<?xml version="1.0" standalone="no"?>
<!DOCTYPE svg PUBLIC "-//W3C//DTD SVG 20010904//EN"
 "http://www.w3.org/TR/2001/REC-SVG-20010904/DTD/svg10.dtd">
<svg version="1.0" xmlns="http://www.w3.org/2000/svg"
 width="332.000000pt" height="155.000000pt" viewBox="0 0 332.000000 155.000000"
 preserveAspectRatio="xMidYMid meet">
<metadata>
Created by potrace 1.12, written by Peter Selinger 2001-2015
</metadata>
<g transform="translate(0.000000,155.000000) scale(0.100000,-0.100000)"
fill="#000000" stroke="none">
<path d="M1265 1300 c-18 -20 -17 -20 25 -20 34 0 41 3 36 16 -3 9 -6 18 -6
20 0 12 -40 1 -55 -16z"/>
<path d="M2291 1224 c-7 -8 -11 -18 -8 -21 9 -9 48 8 44 20 -5 17 -21 18 -36
1z"/>
<path d="M860 1170 c-30 -22 -71 -48 -90 -57 -20 -10 -49 -28 -65 -41 -96 -74
-162 -121 -180 -125 -17 -4 -16 -5 4 -6 14 -1 47 16 80 41 88 67 150 108 162
108 15 0 -83 -89 -98 -90 -7 0 -29 -16 -50 -36 -21 -19 -53 -41 -70 -49 -18
-8 -33 -19 -33 -24 0 -6 -6 -11 -12 -11 -7 0 -33 -19 -58 -41 -25 -22 -57 -50
-73 -62 -36 -28 -57 -61 -49 -74 12 -19 78 1 122 37 24 19 75 62 114 96 49 42
77 59 89 55 15 -6 15 -10 -8 -42 -13 -20 -21 -39 -18 -43 4 -3 -1 -6 -10 -6
-19 0 -37 -29 -37 -59 0 -18 6 -21 48 -21 63 0 110 14 152 45 29 21 36 23 38
10 5 -21 120 -21 148 0 22 17 60 20 69 5 16 -26 192 -1 233 32 13 11 14 10 4
-9 -16 -29 -15 -33 8 -33 10 0 24 9 30 20 6 11 16 20 22 20 7 0 25 12 41 28
l29 27 -7 -25 c-4 -14 -10 -31 -12 -37 -6 -16 51 -17 132 -2 43 8 60 8 65 -1
13 -21 153 0 220 34 44 21 48 20 43 -9 -4 -19 0 -25 21 -31 14 -3 45 -3 68 0
24 4 93 10 153 14 61 5 123 15 138 22 20 10 33 11 45 4 17 -10 61 -8 267 16
115 14 128 14 185 6 72 -10 113 -21 113 -31 1 -5 -24 -27 -54 -47 -29 -21 -59
-41 -64 -45 -15 -11 -170 -88 -230 -114 -27 -12 -99 -37 -160 -55 -94 -29
-125 -34 -211 -34 -55 0 -125 -4 -155 -9 -30 -5 -92 -15 -139 -21 -133 -18
-160 -27 -160 -52 0 -21 2 -21 128 -15 80 4 149 14 187 26 33 10 92 22 130 26
39 4 75 11 80 15 6 5 20 0 33 -10 12 -10 19 -21 14 -24 -10 -6 -9 -36 2 -54 4
-6 3 -12 -3 -12 -5 0 -13 -10 -17 -22 -4 -13 -17 -32 -29 -44 -12 -11 -24 -25
-26 -31 -6 -14 -136 -88 -195 -111 -91 -35 -277 -25 -365 19 -29 14 -38 27
-47 60 -9 37 -8 48 13 90 13 26 32 54 41 64 24 24 2 37 -56 32 -53 -4 -200
-48 -200 -59 0 -11 64 -10 75 1 9 9 117 41 137 41 4 0 -4 -21 -18 -47 -20 -39
-24 -57 -20 -95 3 -25 8 -53 11 -60 8 -20 55 -54 85 -61 14 -3 43 -10 65 -16
72 -19 233 -14 294 10 86 32 191 98 201 125 5 13 17 24 25 24 18 0 52 72 61
130 5 33 3 40 -16 50 -21 11 -15 14 67 36 103 27 257 90 354 146 36 21 69 38
73 38 4 0 24 12 44 28 20 15 41 30 47 34 5 4 24 19 40 32 l30 25 -25 2 c-45 4
-49 4 -56 12 -4 4 -14 7 -23 7 -9 1 -29 7 -46 14 l-30 13 40 18 c22 11 43 24
47 29 24 35 -63 22 -104 -15 -14 -13 -47 -30 -72 -37 -59 -15 -66 -15 -66 3 0
8 7 15 15 15 9 0 18 6 21 14 3 8 16 17 30 20 23 6 35 36 14 36 -25 0 -82 -31
-111 -61 -32 -33 -79 -51 -161 -63 -61 -9 -68 15 -10 32 44 13 92 53 92 76 0
9 -11 18 -23 22 -31 7 -91 -26 -138 -77 -28 -31 -47 -41 -90 -50 -30 -6 -71
-14 -91 -19 -29 -5 -38 -4 -38 6 0 7 8 15 18 18 30 10 75 57 63 69 -13 13 -83
-23 -95 -49 -8 -18 -77 -57 -121 -68 -11 -3 -30 1 -43 7 l-23 13 39 40 c39 39
123 104 136 104 8 0 27 15 70 58 18 17 38 32 44 32 12 0 34 59 26 72 -8 13
-61 0 -117 -30 -53 -29 -150 -127 -174 -177 -23 -47 -140 -103 -228 -107 -40
-3 -50 0 -53 15 -3 13 3 17 28 17 23 0 40 9 61 31 38 41 37 59 -2 59 -36 0
-124 -60 -134 -90 -4 -12 -15 -20 -29 -20 -12 0 -26 -3 -30 -7 -4 -4 -23 -8
-42 -10 -44 -3 -46 21 -3 61 23 22 27 31 17 37 -16 9 -68 0 -68 -12 0 -5 -6
-9 -12 -9 -15 0 23 35 74 70 21 14 38 28 38 32 0 4 19 18 43 32 23 14 56 40
72 57 l30 32 -38 -7 c-45 -8 -175 -100 -209 -148 -32 -42 -142 -125 -186 -138
-20 -6 -46 -16 -58 -21 -11 -6 -37 -9 -58 -7 l-38 3 38 38 c20 20 34 37 30 37
-17 0 -72 -28 -85 -43 -7 -9 -29 -20 -50 -23 -20 -4 -50 -13 -68 -21 -35 -14
-83 -18 -83 -5 0 13 72 83 102 98 38 20 35 28 -6 21 -20 -3 -62 -27 -98 -55
-35 -27 -74 -53 -86 -56 -12 -4 -29 -14 -38 -23 -22 -22 -104 -31 -104 -11 0
9 7 21 15 28 8 7 15 16 15 21 0 9 29 46 67 86 12 13 32 23 44 23 36 0 214 111
227 142 2 5 10 8 18 8 8 0 14 4 14 9 0 5 14 23 30 41 47 50 38 65 -31 51 -52
-11 -118 -34 -177 -63 -24 -11 -46 -17 -49 -14 -8 8 25 34 54 42 12 3 25 15
28 25 4 10 13 19 20 19 8 0 19 9 25 20 17 31 -7 24 -70 -20z m170 -39 c0 -5
-7 -16 -15 -25 -8 -8 -15 -18 -16 -23 0 -8 -103 -86 -148 -113 -14 -8 -40 -20
-57 -26 -29 -10 -31 -10 -26 9 3 12 1 18 -5 14 -6 -4 -19 1 -29 9 -14 11 -16
17 -6 21 7 3 36 20 63 39 28 19 57 34 64 34 7 0 18 7 25 15 7 8 22 15 34 15
11 1 37 9 56 20 39 21 60 25 60 11z m1065 -98 c-32 -29 -64 -53 -71 -53 -7 0
-17 -6 -21 -12 -10 -15 -53 -41 -59 -35 -8 8 128 138 159 151 56 23 53 4 -8
-51z m325 -98 c0 -2 -13 -11 -30 -20 -26 -13 -30 -13 -30 -1 0 13 9 17 53 25
4 0 7 -1 7 -4z m-1790 -13 c0 -5 -11 -14 -24 -21 -13 -7 -30 -24 -37 -37 -7
-13 -18 -24 -25 -24 -7 0 -17 -6 -21 -13 -11 -18 -143 -121 -148 -115 -6 6
122 138 135 138 6 0 13 7 16 15 4 8 12 15 18 15 7 0 23 11 36 25 23 24 50 33
50 17z m1060 -21 c0 -5 -7 -11 -15 -15 -15 -5 -20 5 -8 17 9 10 23 9 23 -2z
m370 -401 c-36 -4 -87 -15 -115 -24 -27 -9 -95 -18 -150 -21 l-100 -4 90 19
c50 11 108 20 130 21 22 0 51 5 65 9 14 4 52 8 85 8 l60 -1 -65 -7z"/>
</g>
</svg>
