<?xml version="1.0" encoding="UTF-8"?>
<svg version="1.1" xmlns="http://www.w3.org/2000/svg" width="241" height="66" >
<path fill="#231F20" d="M49.659,29.681c-5.618-7.026-13.305-13.867-21.699-17.248C19.21,8.909,5.262,8.697,0.986,18.991 c-3.33,8.017,2.245,17.216,9.654,20.389c12.407,5.313,25.097-0.958,34.427-9.298c-0.531-0.162-1.063-0.322-1.594-0.484 c-2.574,2.36-7.143,6.922-4.842,10.651c2.665,4.317,10.385-1.729,12.436-3.667c0.861-0.813-1.029-1.017-1.594-0.484 c-1.018,0.962-2.122,1.774-3.281,2.552c-3.677,2.467-7.635,1.077-5.462-3.322c0.977-1.979,2.715-3.759,4.337-5.245 c0.876-0.804-1.027-0.991-1.594-0.484c-9.01,8.055-21.566,14.113-33.199,7.779C3.711,33.804,0.235,25.366,3.156,18.334 C8.108,6.412,25.71,12.295,33.421,17.28c5.419,3.503,10.424,8.171,14.46,13.219C48.384,31.127,50.233,30.399,49.659,29.681 L49.659,29.681z"/>
<path fill="#231F20" d="M41.944,17.308c-8.133,2.145-11.517,10.717-11.076,18.448c0.663,11.613,13.523,4.886,18.523,0.753 c0.397-0.328-1.396-0.126-1.744,0.162c-2.878,2.379-6.99,5.548-10.953,4.812c-4.051-0.752-4.038-6.531-3.91-9.576 c0.229-5.495,3.475-12.496,9.311-14.034C43.22,17.575,43.067,17.012,41.944,17.308L41.944,17.308z"/>
<path fill="#231F20" d="M131.401,0.403c-0.634-1.044-3.282,0.244-3.931,0.489c-8.357,3.161-16.361,7.461-24.275,11.567 c-17.301,8.977-34.211,18.84-50.663,29.287c-2.207,1.401-27.996,16.721-23.753,20.778c2.937,2.81,9.791-3.733,11.683-5.329 c4.891-4.128,11.126-9.707,13.084-16.02c2.381-7.678-6.187-6.039-4.991-1.577c0.971,3.625,15.679-2.274,18.141-2.261 c1.135,0.007,1.456-1.488,0.149-1.496c-2.74-0.017-5.582,1.074-8.196,1.768c-1.638,0.435-3.28,0.845-4.937,1.198 c-0.982,0.21-2.026,0.388-3.037,0.319c-0.707-0.047,0.287-3.005,0.941-1.334c2.439,6.232-8.667,15.152-12.455,18.446 c-2.304,2.003-4.925,4.247-7.856,5.244c-2.669,0.908,1.241-3.524,1.534-3.8c4.85-4.563,10.658-8.23,16.197-11.88 C64.518,35.602,80.654,26.311,96.947,17.47c8.242-4.473,16.61-8.74,25.123-12.676c2.21-1.021,4.442-2.036,6.741-2.843 c1.496-0.524,1.261,0.038,0.828-0.674C130.122,2.071,131.951,1.307,131.401,0.403L131.401,0.403z"/>
<path fill="#231F20" d="M71.698,38.321c-1.652,0.43-2.057-1.956-0.82-0.187c0.674,0.964,1.973,1.176,3.032,1.296 c1.215,0.139,8.252-2.363,8.384-2.056c1.19,2.773,3.021,2.688,5.892,2.44c1.641-0.141,3.362-0.61,4.915-1.125 c1.927-0.639,5.396-1.438,2.295,1.067c-0.16,0.129-0.091,0.223,0.072,0.271c1.68,0.504,4.728-1.277,6.175-1.753 c1.906-0.627,4.765-1.273,5.97-3.077c0.206-0.31-1.502,0.057-1.685,0.171c-0.979,0.612-1.567,1.775-1.753,2.876 c-0.294,1.736,3.664,1.155,4.388,1.074c3.267-0.362,9.813-2.38,9.673-6.489c-0.644,0.173-1.288,0.345-1.932,0.518 c3.188,6.883,1.678,13.962-1.993,20.295c-2.19,3.777-4.83,7.505-8.137,10.379c-2.799,2.433-3.369-3.145-3.438-4.636 c-0.453-9.837,9.123-16.364,16.228-21.211c8.054-5.495,16.821-10.061,25.883-13.646c1.283-0.508,0.058-0.661-0.652-0.381 c-10.571,4.182-20.544,9.649-29.84,16.188c-7.156,5.035-15.661,12.783-13.116,22.585c1.481,5.707,7.202,0.627,9.277-1.64 c6.967-7.608,12.426-18.298,7.721-28.452c-0.181-0.39-1.946,0.088-1.932,0.518c0.195,5.752-14.851,5.75-8.908,2.036 c-0.562,0.057-1.123,0.113-1.685,0.171c-1.33,1.99-5.623,2.636-7.768,3.344c-1.169,0.386,0.231-0.085,0.757-0.931 c0.815-1.311-1.495-1.116-1.948-1.031c-3.74,0.701-10.88,5.086-12.526-0.08c-0.365-1.146-1.699-0.993-2.629-0.624 c-2.239,0.89-4.517,2.659-7.029,2.372c-1.957-0.223-1.572-1.932-2.793-2.646c-1.119-0.654-3.15-0.109-4.172,0.498 c-5.424,3.224,1.78,3.042,4.239,2.401C72.966,38.566,72.819,38.029,71.698,38.321L71.698,38.321z"/>
<path fill="#231F20" d="M140.514,10.252c-5.242,3.361-12.217,9.177-11.628,16.053c0.537,6.289,12.724,0.594,15.13-0.603 c0.713-0.354,1.397-0.755,2.08-1.162c-1.342,0.801-1.433,0.601-2.421,1.725c-1.374,1.562-2.861,3.03-4.347,4.484 c-2.803,2.741-5.815,5.57-7.754,9.03c-1.448,2.584,0.565,2.18,2.146,1.29c9.053-5.097,18.032-9.995,27.568-14.189 c10.524-4.628,21.305-8.665,32.163-12.433c3.814-1.323,7.647-2.59,11.487-3.834c1.807-0.586,3.617-1.156,5.429-1.726 c1.03-0.325,2.612-1.584,3.183-1.805c-1.851,0.715-3.698,1.438-5.546,2.16c-14.271,5.585-28.58,11.175-42.539,17.507 c-4.718,2.141-12.726,4.85-15.45,9.593c-2.242,3.899,10.721-0.708,11.36-0.952c-0.414-0.09-0.827-0.181-1.241-0.271 c-4.418,6.953,4.833,5.658,3.57-0.438c-0.374,0.232-0.749,0.465-1.123,0.697c1.958-0.312,5.237,1.044,7.264,1.174 c2.106,0.137,4.055-0.264,6.03-0.912c-0.438-0.051-0.876-0.103-1.314-0.153c-3.798,8.247,6.992,4.003,3.613-0.499 c-0.435,0.271-0.869,0.542-1.303,0.813c2.955-0.095,5.912-0.122,8.868-0.072c0.374,0.006,5.432-0.066,4.758,1.007 c-0.683,1.087-2.493,2.014-2.317,3.457c0.034,0.083,0.096,0.136,0.184,0.158c2.427,0.606,5.08-1.003,7.243-1.912 c2.517-1.057,5.025-2.124,7.575-3.097c1.309-0.499,2.641-0.924,3.986-1.308c1.332-0.739,2.405-0.41,3.22,0.989 c-3.026,1.446-4.494,1.383-4.402-0.192c0.013-0.526-1.68,0.016-1.852,0.289c-4.593,7.296,10.529,5.428,13.621,4.959 c5.39-0.815,10.745-2.2,15.84-4.138c2.216-0.844,6.334-2.297,6.884-4.999c0.119-0.587-1.805-0.259-1.918,0.295 c-0.519,2.552-4.617,3.699-6.698,4.491c-4.042,1.538-8.346,2.496-12.589,3.273c-2.825,0.517-17.467,2.57-13.368-3.942 c-0.617,0.097-1.234,0.192-1.852,0.289c-0.091,3.703,8.43-0.229,9.389-1.391c1.134-1.373-2.846-1.313-3.282-1.291 c-3,0.152-6.038,1.444-8.805,2.499c-3.64,1.388-7.146,3.237-10.87,4.392c-0.181,0.056,2.139-3.325,2.243-3.615 c0.148-0.415-0.444-0.581-0.704-0.674c-4.137-1.481-10.042-0.528-14.356-0.39c-0.269,0.008-1.68,0.311-1.303,0.813 c1.083,1.442-0.854,3.974-0.543,1.376c0.074-0.626,0.393-1.304,0.656-1.875c0.238-0.519-1.195-0.192-1.314-0.153 c-4.497,1.476-8.113-1.197-12.268-0.536c-0.265,0.042-1.214,0.264-1.124,0.696c0.248,1.195,0.393,0.688-0.08,2.466 c-1.016-0.011-1.203-0.407-0.561-1.188c0.226-0.49,0.483-0.963,0.773-1.418c0.409-0.643-1.008-0.359-1.241-0.271 c-2.443,0.933-4.886,1.855-7.464,2.341c-3.648,0.687,1.066-3.201,1.593-3.59c3.297-2.432,7.099-4.203,10.804-5.922 c6.479-3.007,13.103-5.711,19.71-8.42c9.647-3.955,19.342-7.801,29.068-11.558c1.068-0.413,0.376-0.941-0.458-0.684 c-24.201,7.468-48.448,15.858-70.89,27.74c-3.654,1.935-7.14,4.149-10.76,6.14c-0.596,0.327,1.236-1.368,1.621-1.964 c1.521-2.361,3.476-4.516,5.438-6.516c1.852-1.886,7.679-5.738,7.784-8.541c0.011-0.273-0.689-0.196-0.808-0.179 c-3.915,0.552-16.183,9.866-15.5,0.236c0.399-5.628,6.838-10.635,11.222-13.445C142.883,9.878,140.927,9.987,140.514,10.252 L140.514,10.252z"/>
</svg>