<?xml version="1.0" standalone="no"?>
<!DOCTYPE svg PUBLIC "-//W3C//DTD SVG 20010904//EN"
 "http://www.w3.org/TR/2001/REC-SVG-20010904/DTD/svg10.dtd">
<svg version="1.0" xmlns="http://www.w3.org/2000/svg"
 width="445.000000pt" height="290.000000pt" viewBox="0 0 445.000000 290.000000"
 preserveAspectRatio="xMidYMid meet">
<metadata>
Created by potrace 1.11, written by Peter Selinger 2001-2013
</metadata>
<g transform="translate(0.000000,290.000000) scale(0.100000,-0.100000)"
fill="#000000" stroke="none">
<path d="M2160 2798 c-25 -28 -52 -63 -62 -77 -9 -14 -35 -46 -57 -71 -23 -25
-41 -49 -41 -53 0 -5 -19 -36 -43 -70 -24 -34 -48 -73 -54 -87 -6 -14 -27 -47
-46 -74 l-36 -49 -6 39 c-18 105 -48 213 -68 244 -12 19 -29 48 -37 64 -15 28
-71 71 -123 94 -53 23 -160 15 -245 -18 -89 -34 -237 -127 -300 -188 -24 -23
-46 -42 -49 -42 -15 0 -229 -228 -290 -310 -39 -52 -80 -104 -92 -114 -12 -11
-21 -25 -21 -33 0 -7 -16 -30 -35 -52 -19 -21 -41 -54 -49 -73 -8 -19 -22 -40
-30 -48 -9 -7 -16 -18 -16 -24 0 -6 -14 -29 -30 -50 -17 -22 -30 -45 -30 -52
0 -7 -16 -40 -35 -72 -37 -64 -82 -184 -121 -322 -19 -70 -23 -109 -24 -223 0
-149 12 -197 69 -277 75 -107 213 -154 378 -130 84 12 252 59 320 91 24 10 45
19 48 19 9 0 293 123 383 167 52 25 95 43 97 41 3 -2 -11 -34 -30 -72 -18 -37
-37 -81 -40 -97 -4 -17 -25 -69 -47 -117 -23 -48 -44 -103 -49 -122 -4 -19
-26 -82 -48 -140 -44 -112 -48 -145 -17 -145 23 0 55 41 66 86 4 19 26 79 48
134 74 182 132 340 132 356 0 9 13 47 28 84 32 78 5 59 347 235 99 51 187 98
195 105 8 7 26 16 40 20 14 4 32 13 40 20 8 7 35 23 60 35 25 13 47 25 50 29
3 3 43 26 90 50 47 24 108 56 135 70 28 14 52 29 55 32 3 3 39 24 80 46 167
91 195 107 198 115 2 4 11 8 20 8 10 0 64 27 120 60 57 32 113 62 124 66 19 6
20 3 14 -22 -4 -16 -24 -54 -44 -84 -20 -30 -39 -59 -41 -65 -8 -19 -139 -177
-238 -287 -29 -32 -53 -61 -53 -65 0 -5 -42 -51 -93 -104 -50 -53 -114 -122
-142 -154 -27 -32 -69 -79 -92 -104 -24 -25 -43 -49 -43 -53 0 -26 41 7 159
129 73 76 153 158 177 183 24 25 44 49 44 53 0 4 19 27 43 52 41 44 102 112
169 190 113 131 200 269 214 340 4 24 17 37 52 57 l47 26 18 -39 c17 -36 22
-39 60 -39 77 0 178 40 447 175 400 201 442 225 395 225 -21 0 -97 -31 -116
-47 -8 -7 -21 -13 -27 -13 -11 0 -309 -140 -342 -161 -8 -5 -26 -14 -40 -20
-14 -5 -38 -17 -55 -25 -130 -65 -285 -104 -285 -73 0 28 28 54 94 88 36 18
66 38 66 44 0 6 -4 6 -12 0 -7 -6 -22 -13 -33 -15 -11 -3 -28 -9 -39 -13 -17
-7 -17 -6 -5 18 24 43 314 333 373 372 29 20 34 40 10 49 -26 10 -71 -26 -220
-176 -161 -162 -254 -267 -254 -286 0 -7 -33 -28 -74 -46 -66 -30 -80 -33
-142 -29 -98 7 -201 -20 -564 -145 -192 -67 -320 -77 -320 -25 0 10 12 38 26
63 57 98 64 111 64 120 0 46 -96 -56 -125 -132 -15 -41 -16 -52 -5 -78 15 -37
35 -49 91 -53 60 -5 124 11 372 94 232 77 385 119 432 118 l30 -1 -30 -15
c-16 -8 -52 -27 -80 -43 -27 -16 -92 -49 -142 -75 -51 -25 -93 -50 -93 -55 0
-6 -8 -10 -17 -10 -9 0 -24 -6 -32 -14 -9 -8 -67 -40 -129 -73 -61 -32 -133
-70 -160 -85 -26 -14 -65 -36 -87 -47 -47 -25 -111 -61 -180 -100 -27 -16
-111 -61 -185 -99 -74 -39 -164 -87 -200 -106 -147 -78 -162 -85 -155 -67 4 9
9 30 12 46 4 17 26 75 50 130 24 55 43 105 43 111 0 6 23 59 50 118 28 59 50
113 50 120 0 7 20 54 45 105 25 50 45 96 45 102 0 5 20 54 45 108 25 54 45
103 45 108 0 6 23 58 50 117 28 59 50 113 50 121 0 8 18 53 40 100 22 47 43
98 46 113 3 15 24 73 46 130 46 122 47 156 3 159 -25 2 -38 -6 -75 -49z m55
-25 c-3 -10 -12 -41 -20 -69 -7 -29 -32 -98 -54 -153 -23 -56 -41 -108 -41
-116 0 -8 -22 -62 -50 -120 -27 -58 -50 -110 -50 -115 0 -12 -25 -68 -62 -141
-15 -31 -28 -62 -28 -68 0 -6 -18 -51 -41 -99 -23 -48 -49 -112 -59 -142 -10
-30 -29 -77 -43 -105 -13 -27 -30 -61 -36 -75 -11 -24 -11 -23 -7 10 2 19 19
114 39 210 36 178 57 330 57 418 0 41 6 58 39 103 21 30 48 72 60 94 27 50 96
150 144 209 21 24 37 47 37 51 0 11 104 124 114 124 4 1 5 -7 1 -16z m-651
-54 c39 -11 97 -61 130 -111 28 -43 66 -195 73 -289 5 -81 4 -88 -21 -125 -14
-21 -26 -43 -26 -47 0 -5 -20 -42 -45 -81 -25 -40 -45 -75 -45 -78 0 -4 -22
-44 -50 -91 -27 -47 -50 -88 -50 -91 0 -3 -17 -34 -39 -69 -21 -35 -42 -74
-46 -88 -4 -13 -27 -58 -51 -100 -24 -42 -44 -79 -44 -82 0 -3 -22 -47 -50
-98 -27 -51 -50 -96 -50 -100 0 -5 -20 -44 -44 -88 -44 -80 -58 -122 -46 -140
3 -6 26 28 50 76 23 49 54 108 67 133 13 25 44 87 68 137 25 51 56 111 70 133
14 22 25 45 25 51 0 7 20 45 45 87 25 41 45 80 45 86 0 6 23 47 50 91 28 44
50 83 50 88 0 5 20 40 45 78 25 38 45 75 45 82 0 7 11 26 25 42 l24 30 -5 -70
c-8 -103 -11 -124 -24 -185 -6 -30 -15 -86 -20 -125 -5 -38 -18 -108 -30 -155
-11 -47 -23 -98 -25 -115 -2 -16 -5 -31 -6 -32 -1 -2 -2 -6 -3 -10 -1 -5 -4
-13 -8 -19 -4 -5 -10 -35 -14 -65 -4 -30 -11 -60 -17 -67 -5 -7 -7 -15 -3 -19
3 -3 0 -16 -7 -27 -7 -12 -23 -48 -36 -81 -24 -61 -47 -95 -63 -95 -5 0 -60
-25 -123 -55 -62 -30 -116 -55 -120 -55 -3 0 -34 -13 -68 -29 -105 -50 -199
-88 -312 -126 -255 -85 -408 -80 -518 17 -49 43 -64 71 -94 178 -31 112 9 363
87 540 22 50 40 95 40 100 0 5 22 47 50 94 27 47 50 88 50 91 0 4 20 35 45 69
25 35 45 67 45 72 0 4 17 28 38 53 21 25 50 64 64 86 14 22 40 53 57 69 17 17
31 34 31 39 0 35 331 338 427 392 15 8 35 20 43 25 27 18 145 68 170 73 47 8
105 7 144 -4z"/>
<path d="M3965 1983 c-33 -27 -62 -52 -64 -56 -2 -5 -21 -27 -42 -50 -43 -46
-114 -148 -147 -212 -21 -42 -62 -77 -62 -53 1 7 7 24 15 38 8 14 14 38 15 53
0 25 -3 28 -27 25 -23 -3 -29 -10 -41 -53 -36 -129 -21 -155 71 -120 12 5 17
2 17 -11 0 -16 2 -16 20 4 11 12 20 27 20 34 0 7 30 40 66 73 181 163 304 324
279 365 -14 23 -62 9 -120 -37z"/>
<path d="M4067 1009 c-10 -6 -60 -20 -110 -31 -51 -11 -108 -23 -127 -27 -574
-130 -683 -138 -818 -58 -29 18 -61 46 -72 64 -14 23 -27 33 -44 33 -42 0 -39
-17 15 -70 113 -112 247 -141 477 -105 126 20 372 70 442 90 30 9 74 18 98 22
23 3 45 10 48 14 3 5 14 9 25 9 10 0 27 4 37 9 9 5 38 19 65 31 26 12 47 24
47 26 0 9 -66 3 -83 -7z"/>
</g>
</svg>
