<?xml version="1.0" encoding="UTF-8"?>
<svg version="1.1" xmlns="http://www.w3.org/2000/svg" width="128" height="74" >
<path fill="#231F20" d="M3.287,52.125c6.797,10.727,20.521-9.806,25.199-14.372C39.39,27.112,51.206,16.928,63.614,8.071 c1.063-0.759,2.388-1.949,3.695-2.253c-2.734,0.636-0.733-2.56-1.451-1.336c-0.181,0.309-0.433,0.594-0.658,0.865 c-0.895,1.079-1.896,2.075-2.876,3.074C54.487,16.402,46.253,24,38.203,31.765c-6.054,5.838-12.471,11.638-17.61,18.328 c-1.369,1.781-2.762,5.801,1.068,5.51c9.153-0.695,13.189-12.845,14.715-20.136c0.786-3.758,3.667-15.178-1.203-17.503 c-3.081-1.471-6.125,3.101-7.124,5.25c-1.503,3.239-1.621,7.98,1.167,10.53c2.775,2.538,8.01,0.379,11.039-0.368 c5.941-1.464,12.257-0.82,18.334-1.309c0.939-0.075-0.286-2.205-1.177-2.133c-4.67,0.375-9.343,0.35-14.019,0.542 c-2.908,0.119-13.498,4.782-14.416,0.125c-0.611-3.104,0.84-6.627,2.878-8.899c0.469-0.523,3.613-2.778,3.769-1.299 c0.339,3.203-0.053,6.573-0.438,9.75c-1.048,8.651-4.199,19.774-13.347,22.982c-0.443,0.154-0.895,0.255-1.355,0.335 c-0.97,0.168,0.249,1.064,0.525,0.403c0.452-1.081,1.309-2.073,2.028-2.975c2.593-3.242,5.585-6.188,8.507-9.129 c7.918-7.974,16.153-15.631,24.233-23.438c3.219-3.109,6.456-6.211,9.543-9.452c0.618-0.648,2.564-2.246,2.529-3.317 c-0.112-3.43-3.589-0.966-4.875-0.092c-5.482,3.725-10.609,8.029-15.705,12.256c-7.852,6.512-15.577,13.243-22.767,20.484 c-3.125,3.146-15.77,20.006-19.789,13.663C4.076,50.871,2.386,50.701,3.287,52.125L3.287,52.125 M78.317,19.448C67.553,22.287,61.483,31.757,54.396,39.51c-3.674,4.019-7.716,8.943-12.636,11.478 c-1.859,0.957,0.225-2.205,0.504-2.649c1.355-2.156,3.05-4.112,4.709-6.034c8.155-9.441,18.021-19.137,29.017-25.199 c3.534-1.949,7.293-3.657,11.225-4.605c3.523-0.85,0.685,2.023-0.298,3.088c-2.08,2.255-4.463,4.282-6.689,6.392 c-4.326,4.1-8.658,8.194-12.998,12.279c-1.06,0.998,0.062,2.206,1.264,1.67c0.608-0.271,5.977-2.369,5.423-0.564 c-1.453,4.735-7.558,8.936-11.61,11.259c-0.701,0.401-6.71,2.161-4.427,0.101c1.16-1.048,2.729-1.735,4.115-2.42 c2.157-1.067,4.417-1.961,6.689-2.753c1.398-0.486,1.174-2.641-0.366-2.104c-4.145,1.444-9.702,3.098-12.683,6.474 c-3.656,4.141,2.87,4.746,5.625,3.53c4.175-1.842,7.754-4.661,10.907-7.934c1.312-1.361,5.033-5.115,4.326-7.478 c-1.075-3.59-6.787-0.952-8.986,0.029c0.421,0.557,0.843,1.113,1.264,1.67c6.583-6.197,13.253-12.321,19.687-18.672 c3.412-3.368,4.598-7.754-1.608-6.673C71.4,13.087,57.431,27.82,47.311,38.728c-3.111,3.353-7.723,7.629-8.731,12.314 c-0.859,3.993,4.848,1.536,6.124,0.616C50.792,47.27,55.798,41.26,60.72,35.646c5.167-5.893,9.989-11.991,17.963-14.094 C80.133,21.169,79.891,19.033,78.317,19.448L78.317,19.448 M84.381,33.037c-2.633,2.436-5.197,4.948-7.7,7.518c-1.641,1.684-6.877,5.942-6.692,8.693 c0.188,2.788,5.813,0.548,6.642,0.221c7.539-2.98,14.448-9.034,19.066-15.605c0.286-0.407-1.892-1.225-2.315-0.826 c-4.009,3.771-8.207,7.735-11.232,12.361c-3.276,5.008,5.222,3.404,7.393,2.5c4.549-1.896,7.965-6.166,10.929-9.911 c-0.305,0.384,5.239-6.057,5.21-6.124c0.775,1.771-1.199,4.518-2.23,5.644c-1.19,1.3-12.719,10.476-10.734,11.941 c1.421,1.05,3.229,0.548,4.751,0.08c5.26-1.617,8.427-5.697,12.264-9.319c2.338-2.207,5.153-3.673,8.042-5.015 c1.358-0.631,2.695-1.183,4.122-1.603c-2.364,0.695,0.012-1.743-1.827,0.602c-2.739,3.492-6.496,6.254-9.78,9.198 c-2.344,2.101-10.346,9.561-2.661,10.34c2.92,0.297,5.56-0.94,8.056-2.332c1.591-0.887,6.1-3.269,6.282-5.44 c0.299-3.563-9.472,2.586-9.537,2.629c-5.631,3.748-15.597,10.492-16.125,18.049c-0.051,0.739,2.357,1.232,2.393,0.727 c0.56-8.021,11.55-15.026,17.621-18.929c1.35-0.868,2.762-1.705,4.261-2.287c1.109-0.431-0.821-1.117-1.162-0.423 c-0.292,0.595-1.029,1.146-1.511,1.584c-1.316,1.197-11.862,7.664-11.286,3.997c0.55-3.504,6.048-7.137,8.523-9.304 c2.745-2.402,5.928-4.837,7.929-7.936c0.75-1.163-1.38-1.603-2.095-1.647c-3.981-0.253-9.58,3.757-12.465,5.984 c-4.615,3.564-7.255,7.931-12.979,10.068c-1.242,0.464-0.769,0.818-0.65,0.523c0.275-0.686,0.933-1.244,1.425-1.776 c1.489-1.607,3.18-3.044,4.806-4.508c1.82-1.639,11.187-9.553,5.361-11.768c-2.567-0.977-4.468,1.424-5.983,3.159 c-4.223,4.841-7.558,10.521-13.75,13.1c-1.152,0.48-3.449,1.738-2.747-0.077c0.568-1.468,1.796-2.786,2.773-3.971 c2.305-2.79,4.896-5.359,7.486-7.884c0.451-0.439,0.905-0.876,1.364-1.308c-0.772-0.275-1.543-0.551-2.315-0.826 c-3.967,5.646-9.331,10.107-15.249,13.592c-1.422,0.837-2.93,1.514-4.462,2.119c-0.352,0.118-0.704,0.236-1.057,0.355 c-1.284,0.091-1.336,0.343-0.156,0.756c-0.403-0.792,1.681-3.055,2.019-3.479c3.604-4.541,7.971-8.585,12.221-12.517 C87.079,33.537,84.878,32.576,84.381,33.037L84.381,33.037 M40.239,43.087c0-1.167,0-2.333,0-3.5c0-1.502-2.478-1.604-2.478-0.174c0,1.167,0,2.333,0,3.5 C37.761,44.415,40.239,44.518,40.239,43.087L40.239,43.087z"/>
</svg>