<?xml version="1.0" encoding="UTF-8" standalone="no"?>
<!-- Created with Inkscape (http://www.inkscape.org/) -->
<svg
   xmlns:dc="http://purl.org/dc/elements/1.1/"
   xmlns:cc="http://creativecommons.org/ns#"
   xmlns:rdf="http://www.w3.org/1999/02/22-rdf-syntax-ns#"
   xmlns:svg="http://www.w3.org/2000/svg"
   xmlns="http://www.w3.org/2000/svg"
   xmlns:sodipodi="http://sodipodi.sourceforge.net/DTD/sodipodi-0.dtd"
   xmlns:inkscape="http://www.inkscape.org/namespaces/inkscape"
   id="svg2519"
   sodipodi:version="0.32"
   inkscape:version="0.46"
   width="400"
   height="218"
   version="1.0"
   sodipodi:docname="Abba Eban signature.svg"
   inkscape:output_extension="org.inkscape.output.svg.inkscape">
  <metadata
     id="metadata2524">
    <rdf:RDF>
      <cc:Work
         rdf:about="">
        <dc:format>image/svg+xml</dc:format>
        <dc:type
           rdf:resource="http://purl.org/dc/dcmitype/StillImage" />
      </cc:Work>
    </rdf:RDF>
  </metadata>
  <defs
     id="defs2522">
    <inkscape:perspective
       sodipodi:type="inkscape:persp3d"
       inkscape:vp_x="0 : 526.18109 : 1"
       inkscape:vp_y="0 : 1000 : 0"
       inkscape:vp_z="744.09448 : 526.18109 : 1"
       inkscape:persp3d-origin="372.04724 : 350.78739 : 1"
       id="perspective2526" />
  </defs>
  <sodipodi:namedview
     inkscape:window-height="751"
     inkscape:window-width="1280"
     inkscape:pageshadow="2"
     inkscape:pageopacity="0.0"
     guidetolerance="10.0"
     gridtolerance="10.0"
     objecttolerance="10.0"
     borderopacity="1.0"
     bordercolor="#666666"
     pagecolor="#ffffff"
     id="base"
     showgrid="false"
     inkscape:zoom="1.415"
     inkscape:cx="187.63251"
     inkscape:cy="130.20721"
     inkscape:window-x="-4"
     inkscape:window-y="-4"
     inkscape:current-layer="svg2519" />
  <path
     style="fill:#000000"
     d="M 210.62876,204.5193 C 207.16578,201.89678 210.30926,196.77844 221.24952,187.22619 C 227.00726,182.19894 264.09498,157.10984 277,149.5121 C 318.99336,124.78883 337.62624,113.12925 343.5,107.89953 C 344.6,106.92014 348.425,103.76133 352,100.87995 C 359.01032,95.229771 366.12951,87.876572 368.12029,84.229794 C 369.05401,82.51935 369.07613,81.676127 368.20997,80.809969 C 367.34381,79.94381 365.38857,80.289449 360.28017,82.211762 C 348.63013,86.595732 340.10191,89 336.20151,89 C 331.70262,89 328,86.664468 328,83.826665 C 328,81.540723 327.84528,81.558776 319.17682,84.856176 C 313.51888,87.008401 311.31811,86.769363 309.1599,83.768181 C 308.12961,82.335461 307.50461,82.166246 306.45637,83.036213 C 305.70647,83.658569 302.97038,84.806562 300.37616,85.587308 C 296.22797,86.83573 295.37856,86.822839 293.3297,85.48037 C 291.97927,84.595536 291,82.961754 291,81.593578 C 291,79.998148 290.28246,79.045621 288.78578,78.654231 C 286.16266,77.968271 285.0364,79.39452 285.01531,83.429002 C 284.99642,87.043501 282.92223,93 281.68248,93 C 281.17882,93 281.08172,91.9875 281.46669,90.75 C 281.85166,89.5125 282.40561,86.188885 282.69768,83.364189 C 283.13015,79.181701 282.83957,77.696719 281.13226,75.364189 C 279.97921,73.788885 278.88934,71.499096 278.71034,70.27577 C 278.53133,69.052443 278.12248,67.789143 277.80177,67.468436 C 276.84525,66.51192 269.83163,86.48978 268.69428,93.410537 C 267.67867,99.590494 271.43756,104.16244 274.78333,100.81667 C 275.43417,100.16583 276.28488,99.951548 276.67381,100.34048 C 278.20438,101.87105 273.81779,104.46127 270.27568,104.11848 C 268.66053,103.96218 266,98.729555 266,95.709239 C 266,93.518064 272.1866,74.524974 276.81721,62.5 C 281.03353,51.550872 282.95724,46.079214 285.95818,36.5 C 287.68121,31 289.31024,25.862252 289.57826,25.082783 C 289.87829,24.210218 290.42258,24.022577 290.99453,24.59453 C 291.56648,25.166483 291.36483,27.248381 290.46981,30.011748 C 289.67029,32.480286 287.59972,39 285.86855,44.5 C 284.13738,50 281.66454,56.611118 280.37335,59.191373 C 278.23076,63.473021 278.15114,64.128039 279.46175,66.691373 C 280.25156,68.236118 281.21541,70.4 281.60364,71.5 C 282.27545,73.403477 282.33094,73.409199 282.75339,71.618563 C 282.99753,70.583772 282.62721,68.67195 281.93046,67.370069 C 281.23372,66.068189 280.95346,64.71321 281.30766,64.359006 C 282.71954,62.947123 284.99408,66.47462 285.59558,71.009002 C 286.17873,75.405001 286.4855,75.844258 289.25647,76.250949 C 291.39208,76.56439 292.75387,76.134619 293.89043,74.788507 C 295.47658,72.909914 304.29448,68 306.08216,68 C 306.58697,68 307,69.356614 307,71.014698 C 307,73.342755 306.25977,74.480727 303.75,76.01096 C 301.9625,77.10082 299.51964,77.994206 298.32143,77.996262 C 296.12903,78.000024 293,80.375553 293,82.036245 C 293,83.701765 296.85972,85.095725 298.72697,84.104571 C 299.70214,83.586942 302.525,82.264631 305,81.166102 C 307.85878,79.897232 310.93551,77.334819 313.43598,74.140312 C 317.10596,69.451681 319.01335,68.479391 318.99029,71.309017 C 318.98496,71.964058 317.39842,74.490402 315.46467,76.923116 C 313.53091,79.355831 312.12073,81.830831 312.33093,82.423116 C 312.94786,84.161464 318.91464,83.35834 323.7113,80.891326 C 328.24008,78.562089 332.42127,74.364281 334.28351,70.277098 C 334.85415,69.024694 335.6988,68 336.16052,68 C 337.88116,68 336.89795,71.64063 334,76 C 330.42467,81.378338 330.06136,85.567313 333.08694,86.527593 C 336.10091,87.48419 340.86899,86.477632 355.21598,81.856078 C 367.98811,77.74183 370.50669,77.550885 371.67977,80.607882 C 374.01296,86.68807 352.35738,107.18268 326.31824,123.53754 C 303.79302,137.68535 300.13443,139.88371 286.5,147.46331 C 278.8,151.74386 268.9,157.73203 264.5,160.77035 C 260.1,163.80867 250.2,170.56175 242.5,175.77719 C 226.62646,186.52881 219.55526,192.24851 214.95333,198.05893 C 211.87872,201.94094 211.82853,202.15305 213.53784,204.04181 C 215.69315,206.4234 213.59733,206.7674 210.62876,204.5193 z M 304,73.157695 L 306.5,71.52364 L 304.11055,71.173995 C 302.51742,70.940874 300.8511,71.721008 299.11055,73.514888 L 296.5,76.205426 L 299,75.498588 C 300.375,75.109827 302.625,74.056425 304,73.157695 z M 45.479048,111.64465 C 28.495392,106.16052 26.660854,91.537114 38.453821,55.645392 C 46.634172,30.748612 56.217585,15.364859 65.024098,12.993511 C 69.512371,11.784945 76.348781,12.607893 80.199131,14.820241 C 86.67978,18.543914 90.51025,27.929465 90.475599,40 C 90.454342,47.404784 90.067795,49.264627 87.475599,54.434294 C 83.371896,62.618386 81.648271,63.449056 77.923451,59.037774 C 76.315553,57.13355 75.007403,54.43355 75.01645,53.037774 C 75.031333,50.74186 75.248346,50.880408 77.293506,54.491515 C 80.503632,60.159584 82.401942,60.117624 85.331348,54.313849 C 90.748677,43.580972 89.43365,30.229574 81.987872,20.367712 C 77.947078,15.01572 77.919053,15 72.417945,15 C 65.650733,15 62.196893,16.695774 57.683226,22.234485 C 51.798816,29.455231 47.762913,37.651562 40.564558,57 C 36.341873,68.350145 32.641024,86.934377 33.356469,93.196236 C 34.463405,102.88458 40.354147,108.66704 50.141447,109.67269 C 60.599256,110.74724 79.604431,100.78845 81.456639,93.263398 C 81.830737,91.743529 83.2826,88.531878 84.683,86.126395 C 86.538448,82.939273 87.454784,82.117823 88.060796,83.09837 C 88.723252,84.170247 89.026819,84.093685 89.553194,82.721975 C 89.916625,81.774889 89.945987,80.301628 89.618443,79.448062 C 89.256386,78.504557 89.436686,78.151853 90.078336,78.548414 C 90.697632,78.931161 91.002819,78.478959 90.816882,77.454096 C 90.642597,76.493461 91.0625,75.510803 91.75,75.27041 C 94.954584,74.14989 91.516104,85.863533 86.578249,92.888675 C 78.960336,103.72676 84.080748,105.03169 96.632241,95.45092 C 101.93991,91.399482 102.35529,90.995888 108.81707,83.611642 C 114.37908,77.25563 117.20981,70.99642 122.09589,54.25 C 123.90121,48.0625 125.74317,43 126.18914,43 C 126.63512,43 127,41.845416 127,40.434259 C 127,37.463234 128.63369,34 130.03518,34 C 132.97958,34 129.38543,48.366028 121.5732,67.822998 C 114.68367,84.981937 111.96894,96.441661 113.82739,100.52051 C 114.96137,103.00933 115.41116,103.18987 119.0343,102.61051 C 123.77761,101.85202 124.29923,103.35144 119.83361,104.90816 C 115.92856,106.26947 112.37673,104.3492 111.36835,100.3315 C 110.77647,97.973234 111.83889,90.171842 113.53919,84.39105 C 113.9181,83.102817 111.11248,85.259653 106.32975,89.933353 C 98.346543,97.734565 88.776512,104 84.843889,104 C 83.641365,104 81.831288,103.25231 80.821497,102.33846 C 79.095517,100.77647 78.761262,100.8566 75.242756,103.67596 C 70.723675,107.29707 60.17037,111.6247 54,112.38706 C 51.440074,112.70335 47.766456,112.38327 45.479048,111.64465 z M 231.62377,106.20026 C 231.15294,105.43844 232.36397,100.85579 238.41544,80.5 C 241.86436,68.8986 242.7204,57.993933 240.63312,52.25 C 239.7837,49.9125 239.48154,48 239.96165,48 C 240.44176,48 241.60991,50.030165 242.55753,52.511477 C 245.10812,59.190087 244.0625,70.511949 239.46474,86 C 234.18704,103.7785 234.21155,103.08826 239.03856,98 C 246.45806,90.178923 263.63915,61.936289 276.5,36.420103 C 282.50767,24.500767 281.88636,25.553028 282.53403,26.2007 C 282.82775,26.494418 281.71241,29.381918 280.0555,32.617366 C 278.39859,35.852815 274.65206,43.45 271.72988,49.5 C 267.15868,58.964076 260.13081,71.795057 252.44467,84.709562 C 251.31424,86.608948 248.16748,90.657189 245.45186,93.705654 C 242.73624,96.754118 239.84998,100.20494 239.03794,101.37416 C 237.38396,103.75565 233.86409,106.91593 232.80902,106.96673 C 232.42898,106.98503 231.89561,106.64012 231.62377,106.20026 z M 124,101.56536 C 124,101.26393 125.575,98.953944 127.5,96.432057 C 131.51474,91.172462 131.79164,90 129.01905,90 C 126.54286,90 125.51087,86.416713 126.91979,82.710967 C 128.58817,78.322806 135,79.504388 135,84.2 C 135,85.19 135.24421,86 135.5427,86 C 136.91867,86 147.13947,77.681064 149.34763,74.763863 C 153.716,68.992788 161.01923,52.878388 165.66951,38.75 C 169.7662,26.303493 172.02624,22.008978 171.98465,26.75 C 171.95118,30.564682 165.58661,53.095831 161.33526,64.449807 C 158.08318,73.135046 153.12453,88.699687 152.55821,92 C 151.67318,97.157545 153.08969,98.78208 157.13907,97.25361 C 160.9481,95.815859 162.31398,96.566028 159.5573,98.581761 C 157.26234,100.25987 154.60372,100.39347 151.93426,98.964816 C 148.99463,97.391574 149.53083,92.102996 153.95795,79.004968 C 156.09488,72.6827 157.69123,67.357893 157.5054,67.172063 C 157.31957,66.986233 155.61676,69.258422 153.72139,72.22137 C 149.91727,78.168166 143.51386,84.136509 137.75,87.107624 C 135.6875,88.170787 134,89.413786 134,89.869843 C 134,91.377581 128.44722,98.99845 126.20362,100.56993 C 124.99163,101.41884 124,101.86679 124,101.56536 z M 132,84.785995 C 132,81.753367 131.95908,81.727056 130,83.5 C 127.72878,85.555427 127.40497,87.619891 129.25,88.281721 C 131.27108,89.006702 132,88.080115 132,84.785995 z M 203.59964,97.349244 C 199.49685,95.127392 195.95714,91.035713 195.3014,87.757012 L 194.74105,84.955234 L 191.37052,86.943892 C 186.67928,89.711793 187.13217,87.840072 191.9204,84.671377 C 194.07661,83.24446 196.13194,81.159661 196.48778,80.038491 C 196.84363,78.917321 197.8276,78 198.67438,78 C 199.76688,78 199.99071,78.508193 199.44515,79.75 C 199.02229,80.7125 198.47922,83.163023 198.23831,85.195606 C 197.76829,89.161311 198.78296,90.597838 206.01327,96.203043 C 209.82464,99.15776 208.28729,99.887827 203.59964,97.349244 z M 279,97.059017 C 279,96.541476 279.45,95.839919 280,95.5 C 280.55,95.160081 281,95.583524 281,96.440983 C 281,97.298442 280.55,98 280,98 C 279.45,98 279,97.576558 279,97.059017 z M 162,94.491063 C 162,94.11948 162.90109,92.669906 164.00243,91.269786 C 167.30414,87.072343 170.16305,76.292043 169.82272,69.322797 C 169.47378,62.177162 170.08989,60.962048 172.32912,64.37955 C 175.61124,69.388693 184.77561,70.137867 192.73828,66.047969 C 194.80723,64.985291 197.79617,63.801257 199.38038,63.416783 C 204.02912,62.288571 202.12905,65.130846 196.42549,67.83693 C 193.71647,69.122242 190.2233,71.372242 188.6629,72.83693 C 184.00364,77.210379 177,87.050961 177,89.224084 C 177,91.339374 176.94546,91.337713 185,89.467736 C 186.64113,89.086723 186.15036,89.593772 183.57144,90.943663 C 178.91161,93.382769 176.68543,93.53082 175.01078,91.512986 C 173.14062,89.259585 174.40073,86.209344 180.48993,78.25 L 186.03647,71 L 182.66746,71 C 180.8145,71 177.85833,70.497971 176.09818,69.88438 C 174.33803,69.270789 172.69221,68.974452 172.44081,69.225855 C 172.18941,69.477257 171.74898,72.341786 171.46208,75.591475 C 170.92014,81.730061 165.663,94.008519 163.25,94.771449 C 162.5625,94.988819 162,94.862645 162,94.491063 z M 235.68854,42.55842 C 230.69469,33.623452 232.90568,27.298407 242.85473,22.05786 C 247.35802,19.685805 258.50807,16 261.18057,16 C 266.79932,16 268.63498,17.494265 269.71281,22.945415 C 270.27681,25.797863 270.33929,28.290305 269.85432,28.590035 C 268.7994,29.242011 268.12361,27.582013 267.66351,23.208626 C 267.20117,18.813853 265.54558,17.178187 263.10337,18.703371 C 261.78782,19.524947 260.94786,19.547864 260.18305,18.783049 C 257.79735,16.397353 242.94414,22.567202 237.75,28.101474 C 234.24127,31.839968 233.93453,38.375762 237.08013,42.374743 C 238.22421,43.829196 238.98405,45.54785 238.76868,46.193974 C 238.5533,46.840098 237.16724,45.204099 235.68854,42.55842 z M 283.05245,24.710162 C 282.93349,22.918732 287.14594,15.992262 288.93752,15.033436 C 291.85302,13.473109 292,13.642313 292,18.559017 C 292,21.343718 291.61081,22.877502 291,22.5 C 290.45,22.160081 289.98503,20.671024 289.96673,19.190983 C 289.93366,16.516333 289.92304,16.512468 288.21673,18.554284 C 287.27253,19.68414 285.7361,21.70914 284.80245,23.054284 C 283.8688,24.399428 283.0813,25.144573 283.05245,24.710162 z"
     id="path2532" />
</svg>
