<?xml version="1.0" encoding="UTF-8" standalone="no"?>
<!-- Created with Inkscape (http://www.inkscape.org/) -->
<svg
   xmlns:dc="http://purl.org/dc/elements/1.1/"
   xmlns:cc="http://web.resource.org/cc/"
   xmlns:rdf="http://www.w3.org/1999/02/22-rdf-syntax-ns#"
   xmlns:svg="http://www.w3.org/2000/svg"
   xmlns="http://www.w3.org/2000/svg"
   xmlns:sodipodi="http://sodipodi.sourceforge.net/DTD/sodipodi-0.dtd"
   xmlns:inkscape="http://www.inkscape.org/namespaces/inkscape"
   width="858.55994"
   height="576.50647"
   id="svg2"
   sodipodi:version="0.32"
   inkscape:version="0.45.1"
   version="1.0"
   sodipodi:docbase="C:\Documents and Settings\Nevit\Belgelerim"
   sodipodi:docname="abidin_dino_signature.svg"
   inkscape:output_extension="org.inkscape.output.svg.inkscape">
  <defs
     id="defs4" />
  <sodipodi:namedview
     id="base"
     pagecolor="#ffffff"
     bordercolor="#666666"
     borderopacity="1.0"
     gridtolerance="10000"
     guidetolerance="10"
     objecttolerance="10"
     inkscape:pageopacity="0.0"
     inkscape:pageshadow="2"
     inkscape:zoom="1.4798849"
     inkscape:cx="53.104512"
     inkscape:cy="123.69353"
     inkscape:document-units="px"
     inkscape:current-layer="layer1"
     inkscape:window-width="760"
     inkscape:window-height="573"
     inkscape:window-x="22"
     inkscape:window-y="29" />
  <metadata
     id="metadata7">
    <rdf:RDF>
      <cc:Work
         rdf:about="">
        <dc:format>image/svg+xml</dc:format>
        <dc:type
           rdf:resource="http://purl.org/dc/dcmitype/StillImage" />
      </cc:Work>
    </rdf:RDF>
  </metadata>
  <g
     inkscape:label="Layer 1"
     inkscape:groupmode="layer"
     id="layer1"
     transform="translate(70.55181,-26.355693)">
    <path
       style="fill:#000000"
       d="M -64.108736,599.97234 C -65.631486,598.38293 -67.254186,595.34543 -67.714736,593.22234 C -69.253926,586.12691 -70.916276,549.56044 -70.481506,532.36217 C -69.920046,510.15204 -64.631676,474.91827 -58.624106,453.36217 C -57.551136,449.51217 -56.241716,444.78717 -55.714286,442.86217 C -51.657916,428.05737 -50.513846,424.11279 -49.768546,422.36217 C -49.300236,421.26217 -47.917456,416.98717 -46.695716,412.86217 C -43.690656,402.71617 -31.921136,368.38162 -29.727626,363.36217 C -29.246926,362.26217 -28.317916,359.56217 -27.663156,357.36217 C -27.008386,355.16217 -26.077036,352.93467 -25.593476,352.41217 C -25.109916,351.88967 -24.714286,350.88704 -24.714286,350.1841 C -24.714286,349.48117 -23.187366,345.63367 -21.321126,341.6341 C -19.454896,337.63454 -17.184306,332.56217 -16.275376,330.36217 C -9.0216257,312.80501 -3.9369657,302.36923 -2.7667357,302.63695 C -2.1039457,302.78857 -1.8758957,302.4097 -2.2579057,301.79159 C -2.6386557,301.17552 -2.5057557,299.70187 -1.9625657,298.51682 C 3.3308344,286.96841 10.185074,273.42802 13.379434,268.20905 C 15.527884,264.69889 17.285714,261.57845 17.285714,261.27473 C 17.285714,260.97102 18.635714,258.76036 20.285714,256.36217 C 21.935714,253.96398 23.285714,251.71398 23.285714,251.36217 C 23.285714,251.01036 24.635714,248.76036 26.285714,246.36217 C 27.935714,243.96398 29.285714,241.77722 29.285714,241.50271 C 29.285714,241.02243 31.143664,238.13064 43.040614,220.09402 C 46.040134,215.54654 51.591994,207.89654 55.378094,203.09402 C 59.164194,198.2915 63.215384,193.12785 64.380744,191.61924 C 65.546104,190.11063 66.850654,189.09329 67.279744,189.35848 C 67.708834,189.62367 67.998214,189.25147 67.922814,188.53136 C 67.714884,186.54559 86.543874,163.86217 88.400144,163.86217 C 88.887214,163.86217 89.285714,163.42732 89.285714,162.89583 C 89.285714,161.38422 95.619771,154.86217 97.087801,154.86217 C 97.811571,154.86217 98.173831,154.49016 97.892821,154.03549 C 97.317491,153.10458 107.65968,142.86217 109.17498,142.86217 C 109.71175,142.86217 110.42592,142.07467 110.76201,141.11217 C 111.0981,140.14967 113.71593,137.44965 116.5794,135.11211 C 119.44287,132.77458 122.96319,129.84958 124.40233,128.61211 C 125.84148,127.37465 128.50024,125.23717 130.31069,123.86217 C 132.12115,122.48717 134.17403,120.79967 134.87265,120.11217 C 135.57127,119.42467 136.4835,118.86217 136.89984,118.86217 C 137.31618,118.86217 138.72202,117.86146 140.02394,116.63837 C 142.04956,114.7354 142.54134,114.6272 143.43272,115.88837 C 144.30295,117.11961 144.38491,117.08242 143.93072,115.66242 C 143.55312,114.48187 144.44878,113.30648 146.86291,111.81446 C 148.77463,110.63296 150.90673,109.14784 151.60091,108.51422 C 154.24446,106.10127 157.48306,104.79003 159.34198,105.38002 C 160.69773,105.81033 161.12084,105.59609 160.76202,104.661 C 159.83808,102.25325 195.43017,85.575624 207.78572,82.626794 C 216.45817,80.556984 235.30788,79.546444 245.62882,80.598014 C 263.38216,82.406844 269.60604,85.085724 279.84609,95.325764 C 294.09507,109.57474 300.31732,128.18452 300.25384,156.36217 C 300.17332,192.10351 292.54019,214.65917 268.26165,250.89809 C 263.68811,257.72471 259.46003,263.96243 258.86592,264.75969 C 255.89417,268.74758 236.62055,287.81002 235.53572,287.83425 C 233.87307,287.87139 233.85843,287.9351 237.17876,280.68194 C 238.76993,277.20607 241.07124,272.11217 242.29278,269.36217 C 243.51433,266.61217 246.88785,259.18717 249.7895,252.86217 C 257.53291,235.98315 259.00269,231.43099 257.35149,229.44142 C 256.14065,227.98245 255.68304,228.08448 252.47994,230.5276 C 247.34386,234.44508 238.47496,237.81112 233.21722,237.83843 C 224.84059,237.88195 218.31044,235.21683 212.78572,229.4998 C 204.1745,220.58883 196.52818,201.09779 197.53462,190.62359 C 198.06719,185.08103 199.8214,182.36242 200.87619,185.44495 C 202.32137,189.66837 208.83834,202.62752 211.64661,206.86217 C 215.71151,212.99173 219.56107,216.32849 224.15598,217.70515 C 232.13971,220.09714 236.66234,218.76961 248.72211,210.49427 C 256.34829,205.26123 257.85713,203.75764 259.01319,200.23895 C 261.02846,194.10508 273.26119,183.49291 276.21333,185.31743 C 277.89178,186.35477 280.52829,183.02413 281.37019,178.80291 C 283.19821,169.63731 285.28572,152.26884 285.28572,146.22497 C 285.28572,135.02833 281.13529,119.70298 276.07066,112.19863 C 271.12402,104.86909 260.84064,101.24563 247.43919,102.11002 C 233.83674,102.98738 227.27202,105.99852 192.82795,127.15941 C 191.75118,127.82093 190.25654,128.92467 189.50652,129.61217 C 188.75651,130.29967 187.795,130.86217 187.36983,130.86217 C 186.94466,130.86217 185.3347,131.94666 183.79214,133.27214 C 182.24957,134.59763 177.2032,138.31013 172.57797,141.52214 C 159.5255,150.58651 150.01016,157.87141 140.78572,165.86217 C 137.92861,168.33717 134.50979,171.22919 133.18833,172.28888 C 127.67006,176.71407 118.44133,184.69968 113.29435,189.50312 C 110.2646,192.33064 106.21071,195.91204 104.28571,197.46177 C 97.228621,203.14313 85.615674,215.66081 72.337974,231.89846 C 70.441724,234.21744 68.416724,236.62045 67.837974,237.23848 C 67.259234,237.85651 65.555024,240.01072 64.050844,242.02561 C 62.546664,244.0405 60.746664,246.2905 60.050844,247.02561 C 59.355024,247.76072 57.518884,250.0581 55.970534,252.1309 C 54.406294,254.22498 52.671304,255.60048 52.066024,255.2264 C 51.452894,254.84746 51.260494,255.01234 51.625894,255.60358 C 52.324254,256.73355 51.320734,258.89814 46.953374,265.68214 C 32.004004,288.90359 14.549444,322.31067 4.7996144,346.36217 C 1.6782444,354.06217 -1.4880157,361.71217 -2.2364957,363.36217 C -2.9849857,365.01217 -5.0088757,370.18717 -6.7340257,374.86217 C -8.4591757,379.53717 -10.735476,385.47059 -11.792476,388.04755 C -12.849466,390.62451 -13.714286,393.44312 -13.714286,394.31112 C -13.714286,395.17912 -14.117256,396.6707 -14.609786,397.62574 C -15.102306,398.58078 -17.406586,406.11217 -19.730406,414.36217 C -22.054236,422.61217 -24.320256,430.26217 -24.766006,431.36217 C -25.211766,432.46217 -26.980916,439.21217 -28.697456,446.36217 C -32.289956,461.32623 -32.498516,462.15358 -33.865176,466.86217 C -34.423896,468.78717 -35.255006,472.38717 -35.712076,474.86217 C -37.630656,485.25116 -38.868466,492.74763 -39.674926,498.86217 C -40.146436,502.43717 -41.481736,511.88717 -42.642256,519.86217 C -43.802776,527.83717 -45.183266,538.18717 -45.710016,542.86217 C -46.629136,551.01949 -47.542386,556.94772 -49.715376,568.86217 C -50.267086,571.88717 -50.972616,576.61217 -51.283216,579.36217 C -52.372736,589.00865 -57.862306,602.86217 -60.595286,602.86217 C -61.004936,602.86217 -62.585986,601.56175 -64.108736,599.97234 z M 235.53572,81.156444 C 234.29822,80.918084 232.27322,80.918084 231.03572,81.156444 C 229.79822,81.394794 230.81072,81.589814 233.28572,81.589814 C 235.76072,81.589814 236.77322,81.394794 235.53572,81.156444 z M 580.28571,374.18891 C 566.30899,372.7763 543.49621,360.17488 528.44329,345.55198 C 522.00953,339.30202 513.11354,328.55295 507.58438,320.34805 C 502.58812,312.93394 494.22812,295.58296 491.4503,286.86217 C 487.30194,273.83862 482.45315,246.5421 480.25935,223.86217 C 478.22301,202.81006 474.59186,191.96457 469.55603,191.89359 C 466.84498,191.85539 465.03264,195.17524 459.81804,209.73168 C 456.03943,220.27958 455.87361,222.13893 457.85463,231.74851 L 458.55273,235.13484 L 454.86453,234.44293 C 451.66049,233.84185 450.71949,234.15214 447.69622,236.8066 C 440.25447,243.34054 435.90614,239.15642 433.72417,223.36217 C 433.34426,220.61217 432.58509,217.79967 432.03712,217.11217 C 430.30102,214.93398 425.90119,215.7508 420.2164,219.30665 C 410.71535,225.2496 404.73414,234.68248 405.7413,242.13516 C 406.46829,247.51476 404.73881,249.85758 399.52426,250.557 C 395.89117,251.0443 395.21494,250.71208 390.19645,245.97444 C 383.92285,240.05193 381.32722,239.08378 376.45036,240.84727 C 373.16131,242.03661 372.78289,241.96028 370.9788,239.74357 C 369.24398,237.61199 369.09403,236.20823 369.54937,226.36217 C 369.82916,220.31217 370.72589,213.46641 371.54211,211.14938 C 372.85887,207.41143 372.85607,206.69379 371.51732,204.78245 C 366.74472,197.96861 342.18458,211.15509 327.56496,228.38072 C 322.05865,234.86855 298.28572,272.5185 298.28572,274.75119 C 298.28572,275.19174 297.43216,276.32465 296.38893,277.26877 C 295.34569,278.21288 293.96603,281.09513 293.323,283.67376 C 291.91711,289.31164 287.91213,296.45656 285.40596,297.79782 C 283.95727,298.57314 282.92406,298.08424 280.30872,295.3859 C 277.27167,292.25246 276.95453,291.28405 276.0311,282.32408 C 274.91161,271.46172 275.7519,266.83846 279.69802,262.14876 C 282.21086,259.16242 285.15445,252.91936 285.91769,248.95747 C 286.17248,247.63488 286.85982,245.65796 287.44513,244.56431 C 288.03043,243.47066 289.76913,238.92778 291.30889,234.46901 C 296.25384,220.1497 299.42594,211.44132 300.87357,208.21104 C 301.65025,206.47792 302.28572,204.76169 302.28572,204.39719 C 302.28572,203.59366 317.93112,161.59272 319.80632,157.36217 C 320.53768,155.71217 323.60632,148.06217 326.62551,140.36217 C 329.6447,132.66217 334.23564,120.96217 336.82758,114.36217 C 339.41954,107.76217 343.44212,98.312174 345.76664,93.362174 C 348.09117,88.412174 350.33554,83.237174 350.75414,81.862174 C 351.17273,80.487174 352.28394,77.787174 353.22349,75.862174 C 360.35618,61.248314 371.18125,38.737904 372.47288,35.833644 C 373.33597,33.892944 375.30397,30.805504 376.8462,28.972674 C 379.46619,25.858984 379.73675,25.758524 380.96798,27.442344 C 383.82301,31.346824 381.47449,48.574204 377.29814,54.362174 C 376.90129,54.912174 371.97138,67.062174 366.3428,81.362174 C 360.71422,95.662174 355.51506,108.71217 354.78912,110.36217 C 354.06318,112.01217 347.32239,128.88717 339.8096,147.86217 C 332.29682,166.83717 325.21148,184.48286 324.06441,187.07482 C 322.34836,190.95248 322.2049,192.05986 323.25472,193.32482 C 324.93801,195.35305 326.8973,195.26522 330.13135,193.01656 C 333.81988,190.45189 345.0169,185.30772 349.80276,183.97907 C 351.99338,183.37091 355.84889,182.87081 358.37055,182.86775 C 363.38814,182.86164 374.30513,186.08826 378.27546,188.75083 C 379.6561,189.67671 381.91071,191.00619 383.28571,191.70524 C 389.75991,194.99671 395.65042,202.39808 398.63959,210.99722 C 401.55907,219.39587 402.8084,219.97662 408.54176,215.60024 C 414.26132,211.2344 419.76698,209.13329 428.68084,207.9146 C 432.47317,207.39611 435.89695,206.60971 436.28926,206.16704 C 436.68156,205.72436 449.91727,179.71217 465.70195,148.36217 C 492.97368,94.197684 511.94305,59.950594 518.89571,52.326724 C 520.60621,50.451084 522.702,47.891774 523.55302,46.639334 C 525.00913,44.496404 525.14427,44.472354 525.84577,46.231424 C 527.04347,49.234754 525.68722,52.612234 505.51461,96.862174 C 504.38632,99.337174 501.62795,105.31615 499.38491,110.1488 C 497.14187,114.98144 493.54818,123.53144 491.39893,129.1488 C 489.24968,134.76615 484.07453,148.13461 479.89861,158.85649 C 475.57454,169.95874 472.55103,179.12275 472.87516,180.144 C 473.18818,181.13025 475.13342,183.00349 477.19791,184.30674 C 486.44721,190.14557 490.55867,199.54185 496.25614,227.86217 C 505.43794,273.50204 509.06295,286.35517 517.85476,304.44412 C 531.82672,333.19108 551.32124,352.25822 574.35671,359.70739 C 579.21182,361.27742 590.79724,361.14463 596.28571,359.45604 C 604.26707,357.00048 622.54601,347.08264 631.46578,340.36794 C 647.55724,328.25447 666.18194,306.07416 693.18824,266.86217 C 710.89879,241.14721 718.18981,228.7772 733.21891,198.94582 C 743.91576,177.71356 751.29816,157.72329 756.84743,134.96385 L 759.62659,123.56553 L 756.43832,113.96385 C 754.68478,108.68292 753.25976,102.56217 753.27162,100.36217 C 753.29644,95.759054 756.01258,90.742464 759.83668,88.236824 C 762.19686,86.690364 763.14407,86.639314 768.59334,87.764844 C 779.54122,90.026094 784.09695,93.965174 786.89467,103.58899 C 788.45889,108.96972 788.44082,109.3767 786.42022,114.27249 C 782.78153,123.08884 779.60857,133.17924 778.84515,138.36217 C 775.33178,162.21462 752.21385,217.36972 730.0821,254.70176 C 719.84316,271.97291 714.95263,279.19856 698.97422,300.66297 C 688.95969,314.11589 683.83674,319.97484 675.94049,327.00595 C 666.44815,335.45827 650.07323,348.16347 643.61959,352.08352 C 640.51722,353.96796 638.16239,355.46356 634.203,358.0642 C 627.81068,362.26284 613.0525,368.94937 605.28571,371.16583 C 596.6744,373.6233 586.66504,374.83366 580.28571,374.18891 z M 555.28571,173.31516 C 549.88077,169.53334 547.31406,163.041 547.29858,153.11217 C 547.28687,145.60803 547.46119,144.86217 549.22669,144.86217 C 550.29423,144.86217 551.44579,144.41217 551.78571,143.86217 C 552.88386,142.08532 554.92893,142.78953 558.52792,146.18381 C 563.53786,150.9088 565.22285,154.77344 565.89565,163.08229 C 566.91022,175.61158 563.40261,178.99452 555.28571,173.31516 z M 393.57683,150.35353 C 387.79907,146.30662 385.17315,127.55702 389.38449,120.41933 C 392.92247,114.4229 396.93553,116.17847 400.31058,125.19909 C 401.81618,129.22316 403.62246,131.84101 406.47097,134.12735 C 410.40023,137.28115 410.48676,137.48431 409.92558,142.23865 C 409.01427,149.95925 407.24643,151.86217 400.98516,151.86217 C 397.91963,151.86217 394.83345,151.23369 393.57683,150.35353 z "
       id="path2170"
       sodipodi:nodetypes="csssssssssssssssssssssssssssssssssssssssssssssssssssssssssssssssssssssssssssssssssssssssssssssssssssssssccssccsssssscccsssssssssssssssssssssssssssssssssssssssssssssssssssssssssssssssssscccssssssssssssccsssssccsssssc" />
  </g>
</svg>
