<?xml version="1.0" encoding="UTF-8" standalone="no"?>
<!-- Created with Inkscape (http://www.inkscape.org/) -->
<svg
   xmlns:svg="http://www.w3.org/2000/svg"
   xmlns="http://www.w3.org/2000/svg"
   version="1.0"
   width="209"
   height="45"
   id="svg2">
  <defs
     id="defs5" />
  <path
     d="M 133.37916,11.058908 C 133.5396,10.624276 133.57303,10.36164 133.67235,10.07536 C 134.25442,8.3976076 133.53539,6.7883353 131.75491,10.07536 C 131.0569,11.36399 130.90994,12.529778 129.0842,15.074377 C 126.36349,18.866339 124.2028,22.064166 121.97217,24.957284 C 114.5656,26.260096 116.65949,25.610897 112.78604,29.592071 C 105.66488,36.911259 114.15564,34.865298 117.44266,32.262778 C 119.70649,30.470371 121.55668,29.003873 123.67488,26.377835 C 125.52649,26.206012 127.39974,26.161803 129.1286,26.068283 C 128.72814,26.973085 128.28007,28.033879 127.93211,28.778479 C 125.59573,33.778097 129.8241,33.910734 131.03115,29.98904 C 131.45104,28.624819 132.02145,27.405058 132.66681,25.746315 C 132.93047,25.697132 133.08643,25.673949 133.32995,25.620249 C 136.40685,24.941753 135.55526,23.948387 133.31388,23.97727 C 133.58238,23.192873 133.85181,22.332962 134.13019,21.321422 C 135.35286,16.878663 135.98257,15.122718 137.27765,12.799071 C 138.74798,10.160995 135.12173,10.852638 134.32388,10.959018 C 133.93422,11.010973 133.69897,11.012978 133.37916,11.058908 z M 132.87267,12.267524 C 133.18288,12.167472 133.44186,12.143636 134.13019,12.121156 C 134.83203,12.097894 135.98633,12.325013 135.00179,13.428563 C 133.38466,15.241176 133.97168,14.854549 133.21016,16.576022 C 132.09391,19.0994 130.99704,21.746364 129.98289,24.130776 C 128.54755,24.191452 127.0818,24.259706 125.13276,24.483597 C 128.53764,19.664224 128.92181,19.423496 131.00164,16.033094 C 131.73116,14.843876 132.38136,13.208528 132.87267,12.267524 z M 120.56834,26.8504 C 115.08996,27.946075 115.76954,29.116785 114.49803,30.002948 C 110.9417,32.481484 111.29144,35.177005 116.55242,30.893185 C 117.96213,29.745311 119.20144,28.517868 120.56834,26.8504 z M 163.60007,23.156428 C 162.14477,22.880045 161.62044,23.598551 159.57334,23.135362 C 158.87807,22.978047 157.49967,23.891608 156.45455,25.454545 C 154.21031,28.810721 153.3941,31.050155 155.18635,32.786346 C 156.10147,33.701475 157.34486,33.19486 158.59723,31.783522 C 160.72765,29.382666 159.97035,27.994422 158.5,29.638374 C 155.95407,32.484897 156.51139,28.924018 159.07258,25.634859 C 160.36108,23.980133 162.11999,23.237655 162.51146,24.796278 C 162.66243,25.39737 162.75524,26.283922 162.63169,27.730502 C 162.37706,30.711768 163.57443,32.746508 164.2577,33.180428 C 165.2242,33.594299 165.85406,33.919184 167.41821,33.393011 C 168.30142,33.095903 169,32.398291 169,31.924396 C 169,30.902664 168.37998,31.35716 167.63005,31.751706 C 165.92427,32.64913 165.97907,31.117536 166.29093,27.910469 C 166.61237,24.604842 165.05537,23.432811 163.60007,23.156428 z M 54.506465,37.25 C 57.348417,33.076032 58.338607,31.132117 54.842712,32.205439 C 54.255613,32.385692 54,30.935686 54,29.634859 C 54,26.91036 57.820319,20.952565 59.465591,22 C 60.589249,22.715358 61.557597,22.247595 61.361626,20.5 C 61.084723,18.030681 64,18.728499 64,21.327592 C 64,23.787389 59.513502,35.628998 57.777949,37.75 C 56.171024,39.713806 53.650737,39.328616 54.506465,37.25 z M 58.564293,25.706872 C 57.737234,27.078094 58.180019,28.246411 59.192568,26.677545 C 60.247305,25.043311 60.436848,22.602269 58.564293,25.706872 z M 6.2557836,36.75 C 8.4392528,32.545727 9.2029727,30.883628 7.0673877,31 C 6.4811942,31.031943 6.0194795,29.977378 6,28.727844 C 5.9589434,26.094227 10.490448,18.902653 13.397335,19.410878 C 15.558855,19.788787 17.443317,20.260173 14.915394,24.158089 C 13.736749,25.975494 12.639203,28.762155 14.872403,26.863338 C 16.895171,25.143444 21.949216,19.917531 26.177266,13.297315 C 28.577898,9.5384426 30.58821,6.3273432 31.447197,8.3889054 C 31.803892,9.2449703 33.087757,7.8902621 33.463948,8.3182122 C 34.180389,9.1332256 33.763455,11.556748 32.535056,13.932209 C 30.780187,17.325751 31.114994,17.527001 36.667883,16.416423 C 37.714219,16.207156 39.580833,15.758798 39.580833,15.758798 C 39.580833,15.758798 40.494669,13.779493 40.930857,12.794076 C 42.671738,8.8611522 47.855947,3.3166242 49.544575,3 C 51.960598,2.5469865 52.910173,4.1356711 51.553409,7.6432248 C 50.474838,10.431584 43.37783,20 40.479789,20 C 39.7942,20 38.94163,21.007239 38.630286,22.25 C 37.372139,27.272027 37.993799,28.448359 41.297607,24.196167 C 42.847285,22.201642 45.144952,21.175633 45.762423,21 C 47.824364,20.413502 48.851153,24.17328 48.589122,27.139698 C 48.336692,29.997433 45.122434,29.983712 44.655193,27.131857 C 44.45647,25.918928 44.624961,24.09956 44.624961,24.09956 L 41.724111,26.789459 C 39.021752,29.633232 33.762571,30.639029 34,27.678561 C 34.058102,26.954095 34.86431,24.589269 35.920689,22.428561 C 37.062374,20.093367 38.013376,18.081187 38.013376,18.081187 C 38.013376,18.081187 35.711181,18.322192 33.271155,18.707625 C 31.506726,18.986339 30.124505,20.054969 28.843011,23.044572 C 26.793703,29.539636 21.840373,31.825001 25.493535,23.75 C 25.992117,22.875433 27.275406,20.425727 27.275406,20.868585 C 27.275406,21.334818 22.833738,22.292322 22.40233,22.415757 C 21.070073,22.796942 19.868095,24.469847 18.5,26 C 15.958099,28.843002 13.538593,30.225626 13.123321,30 C 12.75843,29.801747 10.887516,31.438491 9.9831966,33.794561 C 7.9369859,39.125661 4.7926747,40.428557 6.2557836,36.75 z M 11.049437,25.903095 C 12.198984,23.649797 14.519365,21.606291 12.751576,21.418243 C 10.769271,21.207376 6.5776032,28.427057 7.2054391,29.163655 C 8.5937112,30.792422 9.8061329,29.403292 11.049437,25.903095 z M 26.610468,19.234687 C 28.04382,18.286379 31.294892,11.961559 30.670128,11.336794 C 30.407588,11.074255 28.869596,12.981774 27.048351,15.429725 C 23.659698,19.984444 22.060648,22.209102 26.610468,19.234687 z M 46.685301,12.201383 C 50.3718,7.1958559 51.256308,5 49.586075,5 C 47.898906,5 43.9128,10.497758 42.550676,13.743708 C 40.937426,17.588092 43.851639,16.028452 46.685301,12.201383 z M 198.30572,32.63117 C 197.81191,30.319887 198.29159,29.129207 199.94672,32.628941 C 200.84016,34.518102 202.50393,34.847703 201.97296,29.778499 C 201.76547,27.797653 201.87509,24.816465 202.85424,24.09296 C 204.15016,23.135385 206.06275,24.019285 206.10435,25.217357 C 206.15402,26.647464 204.88047,25.911546 205.06049,29.058431 C 205.19938,31.486322 204.2183,35.114113 202.1452,35.229358 C 199.43692,35.697267 198.85354,35.195235 198.30572,32.63117 z M 174.61632,33.314797 C 174.50996,32.101711 174.49077,31.449141 175.5567,29.047229 C 176.52024,26.876041 177.87837,25.88292 178.02442,25.067719 C 178.30331,23.510992 176.50849,23.671075 174.41656,25.178462 C 173.43993,25.882196 172.82213,27.054259 172.09535,27.036879 C 171.36856,27.019498 171.37962,25.666297 173.02998,24.528904 C 174.76387,23.33394 176.06899,22.898897 179.39302,22.822856 C 183.33249,22.732737 184.1911,23.76925 184.88712,24.548231 C 186.01227,25.807502 186.82002,26.20686 188.14058,24.680133 C 190.31438,22.16695 193.7576,25.032515 193.25922,28.794217 C 192.85148,31.871724 192.63093,33.204351 195.25922,31.32975 C 197.07864,30.032069 197.45218,30.890343 195.55887,32.42578 C 194.49125,33.291601 193.11621,33.944372 192.50887,34 C 190.88949,34.148323 190.55733,33.433664 189.97905,32.42092 C 189.48938,31.563354 189.61789,30.902932 189.74669,29.686959 C 189.89277,28.307781 190.798,25.095304 189.36041,26.322041 C 188.64272,26.934463 187.87694,28.064471 186.87246,30.294561 C 185.44272,33.468774 183.55169,34.202662 182.89665,32.954706 C 182.55242,32.298884 182.61068,31.015552 182.68933,29.25 C 182.79346,26.9125 183.66324,25.570817 181.93933,25 C 181.26061,24.775262 180.72608,25.649589 180.72608,26.527228 C 180.72608,29.211176 177.69159,33.313372 175.98983,34.136959 C 175.28234,34.479358 174.68214,34.06556 174.61632,33.314797 z M 64.298645,31.335873 C 63.947423,30.420603 64.52492,28.058103 65.581972,26.085873 C 67.130786,23.196121 68.085894,22.5 70.570423,22.979358 C 73.365238,21.496638 73.363369,22.710956 73.334,25.886959 C 73.303704,29.163188 72.821291,31.110966 75.206445,29.136959 C 76.203372,28.311881 77.026473,29.263176 75.95995,30.548257 C 73.700109,33.271199 70.000798,31.814204 70.541374,27.794561 C 71.278556,22.312992 69.41369,24.756264 68.68452,25.75 C 68.201188,26.4087 67.743456,27.303741 68.076349,27.842374 C 71.195414,27.324812 67.131749,34.626955 64.298645,31.335873 z M 138,31.61257 C 137.99673,29.193271 140.06922,27.301665 143.79128,22.171745 C 144.42147,21.303193 150.46671,21.798115 145.20239,23.734794 C 143.4375,24.384075 141.74275,29.284915 141.38848,30.440481 C 140.48118,33.399946 138,33.636713 138,31.61257 z M 146.66667,32.333333 C 144.40899,29.733267 147.82798,24.7351 149.57183,20.014159 C 150.7416,16.847351 153.36377,10.200155 154.0423,10.645277 C 154.58219,10.999442 153.2938,15.648486 152.79528,18.200439 C 151.36843,25.504607 148.12528,30.744589 150.66347,29.726081 C 151.89526,29.231798 151.57653,30.378725 150.58912,31.56848 C 149.27566,33.151104 147.78218,33.448847 146.66667,32.333333 z M 77.988402,30.428244 C 77.922036,29.411551 81.95616,28.956564 78.38056,26.923528 C 77.507911,26.427352 78.913772,23.313501 79.097625,22.11688 C 79.300736,20.794917 80.864829,21.108532 81.742765,22.204889 C 83.079602,23.874317 81.626586,24.028942 81.081132,25.338018 C 80.63162,26.416833 80.611253,27.8036 82.780613,27.697964 C 84.003035,27.638439 83.6633,29.390554 82.342398,30.5 C 81.008392,31.620453 78.078913,31.814821 77.988402,30.428244 z M 93.071943,30.586686 C 92.3309,29.693783 91.673054,26.726661 91.927649,24.535329 C 90.503103,25.285614 90.117502,23.81341 91.773445,22.81729 C 92.12767,21.509414 92.865526,19.593147 93.576905,18.007983 C 96.107312,12.369486 98.855404,10.886728 100.09024,11.898171 C 102.89685,14.197038 98.575319,20.576142 95.163484,23.280307 C 95.163484,23.280307 95.109764,24.95182 95.109764,25.863041 C 95.109764,30.393348 97.67268,32.085056 100.02006,28.475834 C 100.61401,27.562607 101.51812,27.184784 101.80304,27.469703 C 102.08796,27.754623 101.50409,28.890497 100.50555,29.993869 C 98.394019,32.327082 94.757057,32.617124 93.071943,30.586686 z M 52.430256,16.678847 C 51.483959,14.628073 52.233755,13.703419 53.726174,14.830766 C 55.043563,15.825898 53.59427,19.201447 52.430256,16.678847 z M 85.595675,18.027195 C 84.257351,18.135811 84.57849,14.230015 85.312071,14 C 87.400964,13.345025 87.03843,17.910104 85.595675,18.027195 z M 94.981324,21.10059 C 101.83072,15.675141 97.259521,11.553761 94.981324,21.10059 z "
     style="opacity:1;fill:black;fill-rule:evenodd;stroke:none;stroke-width:0.30000001;stroke-miterlimit:4;stroke-dasharray:none;stroke-opacity:1"
     id="path1873" />
</svg>
