<?xml version="1.0" encoding="UTF-8" standalone="no"?>
<!-- Created with Inkscape (http://www.inkscape.org/) -->

<svg
   xmlns:dc="http://purl.org/dc/elements/1.1/"
   xmlns:cc="http://creativecommons.org/ns#"
   xmlns:rdf="http://www.w3.org/1999/02/22-rdf-syntax-ns#"
   xmlns:svg="http://www.w3.org/2000/svg"
   xmlns="http://www.w3.org/2000/svg"
   xmlns:sodipodi="http://sodipodi.sourceforge.net/DTD/sodipodi-0.dtd"
   xmlns:inkscape="http://www.inkscape.org/namespaces/inkscape"
   width="409.98016"
   height="105.44691"
   id="svg3043"
   version="1.1"
   inkscape:version="0.48.1 "
   sodipodi:docname="Nouveau document 5">
  <defs
     id="defs3045" />
  <sodipodi:namedview
     id="base"
     pagecolor="#ffffff"
     bordercolor="#666666"
     borderopacity="1.0"
     inkscape:pageopacity="0.0"
     inkscape:pageshadow="2"
     inkscape:zoom="0.35"
     inkscape:cx="87.446016"
     inkscape:cy="-441.98033"
     inkscape:document-units="px"
     inkscape:current-layer="layer1"
     showgrid="false"
     fit-margin-top="0"
     fit-margin-left="0"
     fit-margin-right="0"
     fit-margin-bottom="0"
     inkscape:window-width="1920"
     inkscape:window-height="1138"
     inkscape:window-x="-8"
     inkscape:window-y="-8"
     inkscape:window-maximized="1" />
  <metadata
     id="metadata3048">
    <rdf:RDF>
      <cc:Work
         rdf:about="">
        <dc:format>image/svg+xml</dc:format>
        <dc:type
           rdf:resource="http://purl.org/dc/dcmitype/StillImage" />
        <dc:title></dc:title>
      </cc:Work>
    </rdf:RDF>
  </metadata>
  <g
     inkscape:label="Calque 1"
     inkscape:groupmode="layer"
     id="layer1"
     transform="translate(-287.55398,15.065049)">
    <path
       style="fill:#000000"
       d="m 670.54056,-15.065049 c -1.96368,-3.1e-4 -3.02174,2.81564 -1.25,3.9375 0.76765,0.48607 1.993,0.89825 2.71875,0.90625 1.98438,0.023 1.0048,-4.38723 -1.0625,-4.78125 -0.1385,-0.0264 -0.27534,-0.0625 -0.40625,-0.0625 z m -93.40625,6.9062502 c -2.33296,0.12071 -6.68267,1.10328 -13.4375,3 -18.20811,5.11274999 -37.89059,15.11591 -40.34375,20.4999998 -1.58007,3.46787 0.22861,6.77528 9.25,17.03125 3.90381,4.43805 8.02513,9.36339 9.15625,10.9375 2.65296,3.69201 4.97083,2.82998 5.90625,-2.15625 0.89958,-4.79518 5.64432,-15.33182 7.9375,-17.625 0.95999,-0.95998 2.77303,-1.71875 4.03125,-1.71875 l 2.28125,0 -2.34375,4.75 c -3.0159,6.15403 -2.97892,9.33194 0.0937,12.21875 3.86612,3.63204 11.19435,3.93419 17.34375,0.71875 4.28628,-2.24123 5.06388,-2.37363 6.34375,-1.09375 1.27988,1.28036 1.91694,1.25674 5,-0.0312 1.9342,-0.80816 4.04089,-2.09589 4.6875,-2.875 0.64661,-0.77911 3.81233,-3.2733 7.03125,-5.53125 l 5.84375,-4.09375 -1.40625,6 c -0.76363,3.30556 -1.10555,6.44402 -0.78125,6.96875 1.22617,1.98398 4.56737,0.80926 9.78125,-3.4375 6.64654,-5.41368 17.65716,-12.96943 18.15625,-12.46875 0.20275,0.2034 -0.22314,1.73944 -0.9375,3.4375 -1.04153,2.47576 -2.2537,3.36409 -6.15625,4.4375 -2.67666,0.73622 -5.17341,1.77778 -5.53125,2.3125 -0.35783,0.53473 0.76717,2.13151 2.5,3.5625 1.73284,1.431 3.87317,3.47703 4.75,4.53125 2.59542,3.12047 4.7421,1.39974 5.09375,-4.09375 0.34352,-5.36632 1.91617,-6.66729 9.46875,-7.875 l 4.0625,-0.65625 0.5625,4.25 c 0.31362,2.33819 1.47515,5.16266 2.59375,6.28125 1.77258,1.77258 2.50575,1.88524 5.59375,0.9375 3.81105,-1.16964 3.87527,-0.62176 0.46875,3.25 -0.96782,1.1 -5.80871,9.92935 -10.78125,19.625 -6.37067,12.42176 -9.26949,19.12774 -9.75,22.75 -0.59394,4.47732 -0.46574,5.06972 0.9375,4.53125 2.08226,-0.79904 4.21654,-4.30072 11.5,-18.9375 6.25802,-12.57607 8.37805,-17.26199 12.125,-26.75 1.61133,-4.08019 3.74274,-7.10297 7.3125,-10.3125 8.70282,-7.82484 8.71875,-7.81536 8.71875,1.9375 0,11.43755 2.02835,13.93945 10,12.34375 4.23944,-0.84861 8.10735,-4.0095 10.46875,-8.59375 1.90812,-3.70427 3.65122,-13.9135 2.5,-14.625 -0.39153,-0.24198 -1.02993,1.88189 -1.40625,4.71875 -0.70198,5.29178 -3.09064,9.65825 -7.40625,13.46875 -4.64631,4.10249 -11.06459,3.53917 -11.21875,-0.96875 -0.0417,-1.21815 -0.1542,-5.22086 -0.25,-8.90625 -0.23631,-9.08666 -1.43025,-10.05808 -7.1875,-6 -2.47742,1.74625 -4.5,2.75621 -4.5,2.25 0,-0.50621 0.45,-1.19133 1,-1.53125 1.36257,-0.8421 1.27719,-4.76954 -0.0937,-4.3125 -0.60281,0.20094 -2.74031,2.82005 -4.75,5.8125 -4.28305,6.37752 -8.24622,9.04075 -10.90625,7.375 -2.10758,-1.31979 -2.88582,-7.89115 -1.1875,-9.9375 1.96043,-2.36218 -1.2434,-2.77823 -8.0625,-1.03125 -7.89541,2.02271 -8.29388,2.0155 -7.03125,-0.34375 1.13835,-2.12703 1.3658,-6.38419 0.40625,-7.34375 -0.7844,-0.7844 -6.51372,2.83957 -18.21875,11.5 -5.14076,3.8036 -9.55068,6.69933 -9.8125,6.4375 -0.26183,-0.26183 -0.0245,-2.19842 0.5625,-4.3125 1.34919,-4.85892 1.40768,-9.34375 0.0937,-9.34375 -1.06466,0 -10.09812,6.01661 -13.5,9 -2.05062,1.79865 -8.5,5.32957 -8.5,4.65625 0,-0.20623 1.63624,-3.48586 3.625,-7.28125 4.03367,-7.69794 8.88931,-13.375 11.4375,-13.375 1.93273,0 4.22971,-2.36404 3.25,-3.34375 -0.95437,-0.95437 -5.09447,-0.82261 -5.71875,0.1875 -0.93731,1.51659 -12.68967,4.30745 -21.53125,5.125 -4.71491,0.43598 -8.68339,0.67925 -8.84375,0.53125 -0.16036,-0.14801 1.02053,-2.89369 2.625,-6.125 6.40419,-12.89760981 9.2144,-18.9101498 9.1875,-19.6249998 -0.0202,-0.53553 -0.69398,-0.79118 -2.09375,-0.71875 z m -8.21875,3.96875 c 1.36726,0 1.31087,0.348 -0.40625,2.25 -2.88905,3.20011 -10.57529,14.7397398 -12,17.9999998 -1.08241,2.47698 -1.72774,2.74003 -6.5,2.84375 -2.91405,0.0633 -6.05497,0.0584 -6.96875,-0.0312 -2.22257,-0.21806 -3.45005,1.91852 -1.71875,3 0.75797,0.47347 3.72943,0.58663 6.625,0.25 l 5.28125,-0.59375 -3.375,6.875 c -1.85447,3.78918 -3.66717,8.14375 -4.03125,9.65625 -0.36408,1.5125 -1.00423,2.6947 -1.40625,2.625 -1.06371,-0.18437 -15.23893,-15.38566 -17.375,-18.625 -3.89825,-5.91168 -1.56551,-8.7833 12.90625,-15.7499998 9.27556,-4.46526 25.94365,-10.5 28.96875,-10.5 z m 4.28125,1.75 -1.53125,4.375 c -2.58457,7.40677 -7.63035,16.8749998 -9,16.8749998 -0.71614,0 -2.00502,0.2599 -2.875,0.59375 -0.96382,0.36985 -1.59475,0.0768 -1.59375,-0.75 0.003,-1.86689 8.53301,-14.7112098 12.09375,-18.21874981 z m -168.9375,7.4375 c -0.80387,0.0267 -1.8566,0.30542 -3.15625,0.84375 -3.39987,1.40828 -4.67716,3.50487 -10.59375,17.4687498 -2.33039,5.5 -4.26025,9.4 -4.28125,8.6875 -0.021,-0.7125 -1.15,-2.4 -2.5,-3.75 -1.95826,-1.95827 -3.46941,-2.4375 -7.5,-2.4375 -5.27515,0 -7.66196,1.61143 -10.40625,7.09375 -1.43232,2.86137 -13.36398,11.09426 -15.5,10.6875 -2.41788,-0.46044 -2.50396,-4.14687 -0.1875,-8.6875 3.96653,-7.77503 2.2682,-9.30884 -3.375,-3.0625 -3.77647,4.1801 -15.49493,12.34882 -16.40625,11.4375 -0.28325,-0.28324 0.0608,-1.80617 1.59375,-3.40625 1.53296,-1.60007 2.56812,-3.51831 2.3125,-4.25 -0.25563,-0.73169 1.28619,-3.5344 3.40625,-6.21875 5.74845,-7.27848 5.44695,-9.69445 -1.6875,-5.84375 -4.05895,2.19076 -9.06345,3.89875 -14.15625,4.8125 l -3.90625,0.6875 1.78125,-3.375 c 0.97942,-1.8629 2.41128,-4.5 3.1875,-5.875 0.77622,-1.375 2.07262,-3.9625 2.875,-5.75 0.80238,-1.7875 1.89488,-3.25 2.4375,-3.25 1.2967,0 1.29738,-2.9628298 0,-3.1249998 -4.38557,-0.5482 -8.53604,1.47463 -21.90625,10.6562498 -15.49201,10.6387 -20.65144,17.27563 -18.125,23.375 1.58869,3.83543 6.72094,7.09375 11.1875,7.09375 3.2397,0 3.62435,-0.43616 7.875,-8.25 2.46009,-4.52229 4.92248,-8.00979 5.46875,-7.75 0.5463,0.25979 0.7853,1.175 0.53125,2 -0.25405,0.825 -0.4828,3.975 -0.5,7 l -0.0312,5.5 4.09375,-0.0937 c 2.50779,-0.046 5.28824,-0.91986 7.15625,-2.25 3.61365,-2.57315 4.25,-2.65505 4.25,-0.65625 0,2.60628 4.55601,1.65489 9.65625,-2 8.13807,-5.83185 7.98916,-5.7797 7.5625,-2.125 -0.78422,6.71738 5.07603,7.68746 13.3125,2.21875 l 5.46875,-3.625 0,2.4375 c 0,2.79073 3.31618,5.59375 6.65625,5.59375 1.21974,0 5.16207,-2.25 8.75,-5 3.58793,-2.75 6.70219,-5 6.9375,-5 0.23532,0 0.71146,1.03838 1.03125,2.3125 0.83587,3.33038 4.65716,5.06354 9.28125,4.21875 3.03984,-0.55536 5.29893,-2.23029 10.90625,-8.125 4.77059,-5.0151 7.79795,-7.40625 9.34375,-7.40625 2.22615,0 2.21476,0.079 -0.84375,3.5625 -1.72974,1.97007 -3.39776,4.89507 -3.71875,6.5 -1.56272,3.66803 -2.86649,6.04243 -0.65625,9.5625 2.21578,3.38172 5.54365,2.83877 14.71875,-2.375 6.75577,-3.83899 6.9875,-3.8875 8.8125,-2.0625 1.02781,1.02781 2.17007,1.70258 2.5625,1.5 0.39244,-0.20258 2.51875,-1.17196 4.71875,-2.15625 2.2,-0.98428 5.2375,-2.93265 6.75,-4.34375 l 2.74995,-2.56255 0,3.6875 c 0,3.00837 0.35275,3.6875 1.96875,3.6875 2.38895,0 12.29757,-6.08276 16.78125,-10.3125 1.77926,-1.67849 3.37617,-2.8624 3.5625,-2.625 0.18632,0.23741 0.13703,2.54382 -0.0937,5.125 -0.34163,3.81751 -0.8117,4.75032 -2.5,5 -1.14153,0.16882 -2.24243,0.87529 -2.46875,1.5625 -0.68571,2.08216 2.41078,2.4864 5.15625,0.6875 1.9921,-1.30544 2.5937,-2.50122 2.5937,-5.3125 0,-2.00288 0.45532,-5.19457 1,-7.09375 1.26872,-4.4238 -0.057,-5.95375 -3.1875,-3.65625 -1.26574,0.92894 -5.9125,4.3577 -10.3125,7.625 -4.4,3.2673 -8.58793,5.95825 -9.3125,5.96875 -1.9423,0.0282 -0.48649,-3.85566 2.9375,-7.78125 1.57579,-1.80663 2.875,-3.71913 2.875,-4.25 0,-1.9766 -2.32925,-0.82961 -7.84375,3.875 -6.99453,5.96728 -12.23054,9.1875 -15.03125,9.1875 -2.87676,0 -2.70597,-0.63911 1.375,-5.15625 3.88501,-4.30025 4.12066,-5.09907 2.09375,-6.78125 -1.698,-1.40922 -2.96724,-0.24403 -6.6875,6.0625 -2.06869,3.50681 -4.04498,5.11252 -10,8.125 -4.08198,2.06497 -8.244,3.752 -9.28125,3.75 -3.13459,-0.007 -1.43194,-8.16131 2.96875,-14.15625 4.32066,-5.88591 3.98176,-7.84375 -1.375,-7.84375 -3.34471,0 -4.37035,0.59181 -7.78125,4.59375 -6.56634,7.70415 -9.77268,10.35577 -13.34375,11.03125 -3.92159,0.74178 -6.44899,-0.48007 -6.875,-3.3125 -0.17596,-1.1699 2.45851,-5.79262 6.5,-11.40625 9.81939,-13.63913 12.68465,-20.8628898 8.34375,-20.7187498 z m -1.25,2.9375 c 0.36964,-0.0471 0.69034,0.0341 0.9375,0.28125 0.54055,0.54055 -1.55979,5.4638198 -2.8125,6.5937498 -0.30488,0.275 -2.48681,3.3125 -4.875,6.75 -3.97368,5.71963 -5.0625,6.96669 -5.0625,5.84375 0,-0.22302 0.85119,-2.13552 1.90625,-4.25 1.05506,-2.11447 2.92649,-6.00318 4.125,-8.625 1.6586,-3.62828 4.1795,-6.3896798 5.78125,-6.5937498 z m -83.5,4.3124998 c 0.75294,-0.0663 -0.32973,1.51338 -3.8125,6.625 -1.71957,2.5238 -3.67444,5.91539 -4.34375,7.53125 -1.06063,2.5606 -1.99294,3.08875 -7.28125,4.09375 -6.59608,1.25354 -7.74035,1.84427 -6.3125,3.25 0.56771,0.55892 2.59029,0.47086 5.15625,-0.21875 2.32016,-0.62355 4.4985,-0.84524 4.84375,-0.5 0.34524,0.34525 -0.81421,3.34875 -2.59375,6.6875 -3.05821,5.7378 -3.43538,6.09375 -6.90625,6.09375 -5.29726,0 -8.46382,-3.18992 -7.71875,-7.78125 0.31119,-1.9176 1.53574,-4.8757 2.71875,-6.59375 1.79154,-2.60183 9.85,-8.92655 16.71875,-13.125 0.89982,-0.55 2.26841,-1.58093 3.03125,-2.28125 0.76283,-0.70032 2.74783,-1.98614 4.40625,-2.84375 1.05107,-0.54353 1.75151,-0.90734 2.09375,-0.9375 z m 3.84375,0.0625 -1.71875,3.5 c -0.94901,1.925 -2.09331,4.175 -2.5625,5 -0.46919,0.825 -1.58135,3.1875 -2.46875,5.25 -0.88739,2.0625 -2.17872,3.75 -2.875,3.75 -1.47673,0 1.6812,-7.11213 4.03125,-9.0625 0.78401,-0.65067 1.45655,-1.69235 1.46875,-2.3125 0.0122,-0.62016 0.92886,-2.25 2.0625,-3.625 z m 268.28125,5.71875 c 0.0846,-1.4e-4 0.13917,0.0143 0.15625,0.0312 0.13662,0.13662 -0.73493,1.88243 -1.9375,3.875 l -2.1875,3.625 -3.1875,-2.65625 -3.15625,-2.65625 5.09375,-1.21875 c 2.4634,-0.58516 4.62645,-0.99905 5.21875,-1 z m -20,2.84375 c 6.30287,-0.16644 13.00648,2.43638 13.84375,5.9375 0.62687,2.62134 -2.50801,6.78885 -6.71875,8.9375 -2.24053,1.1433 -5.4125,2.42845 -7.0625,2.875 -3.60195,0.97483 -9.41895,-0.0952 -10.625,-1.96875 -2.00616,-3.11641 2.62522,-14.2227 6.34375,-15.21875 1.33098,-0.35652 2.76424,-0.52409 4.21875,-0.5625 z m -234.65625,5.1875 -3.125,4.40625 c -2.71952,3.85818 -3.43145,4.31794 -5.875,3.78125 -1.70428,-0.37433 -2.78125,-0.19186 -2.78125,0.46875 0,0.59371 1.17292,1.09375 2.59375,1.09375 4.023,0 2.46316,2.09174 -4.65625,6.25 -6.56747,3.83589 -7.84553,4.31456 -8.03125,3 -0.29219,-2.06809 0.31899,-7.10615 1.21875,-9.96875 0.83965,-2.67132 1.62919,-3.32779 4.6875,-3.8125 2.0258,-0.32107 6.43873,-1.63362 9.8125,-2.90625 z m 39.9375,1.90625 c 0.41636,-0.0282 0.83056,-0.0196 1.21875,0 0.44365,0.0224 0.87555,0.0612 1.25,0.15625 2.64806,0.67212 5.02162,3.96299 4.25,5.875 -0.28623,0.70924 -2.6264,2.74585 -5.21875,4.5 -6.29619,4.26042 -9.65159,5.47341 -11.09375,4.03125 -1.6493,-1.6493 -1.42147,-2.85337 1.375,-6.96875 1.38153,-2.0331 2.39403,-4.2446 2.25,-4.90625 -0.25975,-1.19332 3.05421,-2.49036 5.96875,-2.6875 z m 63.71875,2.375 c 0.0475,-0.0211 0.072,-0.0182 0.0937,0 0.17473,0.14567 -0.57255,1.53968 -1.6875,3.125 -1.11495,1.58532 -2.16902,2.73942 -2.34375,2.59375 -0.17473,-0.14567 0.6038,-1.53968 1.71875,-3.125 0.97558,-1.38716 1.88634,-2.44628 2.21875,-2.59375 z m 187.40625,2.59375 c 1.12311,-0.12734 1.05704,0.44257 0.5625,2.5 -0.37952,1.57894 -0.7524,2.94105 -0.8125,3.03125 -0.0601,0.0902 -1.18459,-0.71485 -2.5,-1.78125 -2.73268,-2.21539 -2.62017,-2.47399 1.21875,-3.4375 0.66826,-0.16772 1.15688,-0.27005 1.53125,-0.3125 z m 26.09375,14.15625 c 0.0164,-0.0161 0.0227,-2.6e-4 0.0312,0 0.0254,1.05632 -2.91187,7.53069 -10.09375,22.125 -5.90124,11.99195 -6.875,13.68365 -6.875,12 0,-1.11572 15.91903,-33.12508 16.9375,-34.125 z"
       id="path2996"
       inkscape:connector-curvature="0"
       sodipodi:nodetypes="ssssscssscccsccscccssssscssscccsssssssscssssssccssscssssssscsscsssssscscssssccccccscsssccssccssssssssssscscsscccsssssssscssccssssccsssssssssccssssccsssccsscsssscsssssssscsssssssccsssssccssssssssssssscccscssccccccsccscsssssssscssssssscccscssssscccssscscssscccsscscsscssss" />
  </g>
</svg>
