<?xml version="1.0" encoding="UTF-8" standalone="no"?>
<!-- Created with Inkscape (http://www.inkscape.org/) -->

<svg
   xmlns:dc="http://purl.org/dc/elements/1.1/"
   xmlns:cc="http://creativecommons.org/ns#"
   xmlns:rdf="http://www.w3.org/1999/02/22-rdf-syntax-ns#"
   xmlns:svg="http://www.w3.org/2000/svg"
   xmlns="http://www.w3.org/2000/svg"
   xmlns:sodipodi="http://sodipodi.sourceforge.net/DTD/sodipodi-0.dtd"
   xmlns:inkscape="http://www.inkscape.org/namespaces/inkscape"
   width="306"
   height="143.6261"
   id="svg2"
   version="1.1"
   inkscape:version="0.48.1 "
   sodipodi:docname="4.svg">
  <defs
     id="defs4" />
  <sodipodi:namedview
     id="base"
     pagecolor="#ffffff"
     bordercolor="#666666"
     borderopacity="1.0"
     inkscape:pageopacity="0.0"
     inkscape:pageshadow="2"
     inkscape:zoom="0.7"
     inkscape:cx="310.73672"
     inkscape:cy="277.86259"
     inkscape:document-units="px"
     inkscape:current-layer="layer1"
     showgrid="false"
     fit-margin-top="0"
     fit-margin-left="0"
     fit-margin-right="0"
     fit-margin-bottom="0"
     inkscape:window-width="944"
     inkscape:window-height="1122"
     inkscape:window-x="0"
     inkscape:window-y="0"
     inkscape:window-maximized="0" />
  <metadata
     id="metadata7">
    <rdf:RDF>
      <cc:Work
         rdf:about="">
        <dc:format>image/svg+xml</dc:format>
        <dc:type
           rdf:resource="http://purl.org/dc/dcmitype/StillImage" />
        <dc:title></dc:title>
      </cc:Work>
    </rdf:RDF>
  </metadata>
  <g
     inkscape:label="Calque 1"
     inkscape:groupmode="layer"
     id="layer1"
     transform="translate(-198,-937.7489)">
    <path
       style="fill:#000000"
       d="m 396.15625,937.75 c -1.59888,0.0421 -4.90711,1.37287 -12.65625,4.84375 -14.15338,6.33937 -26.60406,10.23995 -45.5,14.21875 -21.90669,4.6129 -29.10032,6.7082 -37.6875,11 -17.1351,8.5639 -24.31961,15.60905 -31.875,31.21875 -2.43885,5.03875 -4.4375,9.65735 -4.4375,10.28125 0,2.6669 -9.4113,19.9066 -13.0625,23.9375 -2.19143,2.4193 -4.16326,4.2112 -4.40625,3.9688 -1.21955,-2.8836 11.9914,-24.4226 15.5625,-28.4376 2.15645,-3.3383 3.90625,-6.6009 3.90625,-7.25 0,-3.14452 -2.50941,-1.1747 -20.21875,15.75 -4.27217,4.0829 -7.78125,6.9255 -7.78125,6.3126 0,-0.6129 0.46905,-1.4027 1.03125,-1.75 1.1981,-0.7405 8.49022,-10.3971 11.6875,-15.4688 1.6784,-2.6391 4.29821,-3.8767 6.21875,-7.6875 6.80647,-10.4749 6.48809,-15.7167 -0.40625,-6.6875 -1.9502,2.5541 -3.53125,4.3271 -3.53125,3.9375 0,-0.3896 -3.97139,4.177 -8.84375,10.125 -4.87237,5.948 -9.88661,11.7125 -11.125,12.8125 l -2.25,2 2.28125,-4 c 1.26323,-2.2 3.50369,-5.575 4.96875,-7.5 8.7266,-11.46622 12.76706,-19 10.1875,-19 -0.54698,0 -2.94361,2.7247 -5.34375,6.0625 -2.40015,3.3379 -8.44334,11.3254 -13.40625,17.75 -4.96291,6.4247 -13.23825,17.5375 -18.40625,24.6875 -5.168,7.15 -10.21216,13.927 -11.21875,15.0625 -1.00659,1.1354 -1.84375,2.3729 -1.84375,2.75 0,0.377 0.59093,0.6875 1.3125,0.6875 1.18188,0 5.6875,-5.1243 5.6875,-6.4688 0,-0.3016 3.01428,-4.7294 6.6875,-9.8124 14.34986,-19.8576 23.13495,-30.6442 17.40625,-21.375 -2.35584,3.8115 -2.70622,6.6562 -0.8125,6.6562 1.36116,0 7.8123,-7.0646 16.875,-18.5 6.125,-7.7285 8.84375,-10.392 8.84375,-8.625 -0.77793,1.8001 -3.3185,3.0703 -4.65625,5.375 -1.33775,2.3047 -6.25921,8.611 -10.1875,13.9688 -3.92829,5.3576 -7.15625,10.1949 -7.15625,10.75 0,2.7797 4.12318,0.1749 12.375,-7.8438 16.22034,-15.7619 18.92472,-17.992 14.1875,-11.7812 -4.39702,5.8256 -10.39287,16.8188 -13.1875,24 -1.2341,3.4977 -1.22504,4.2124 0.0625,5.5 1.3026,1.3025 1.9301,0.9881 5.40625,-2.5938 5.15209,-5.3089 8.20088,-10.6549 12.625,-22.25 1.99361,-5.225 4.07064,-10.3409 4.625,-11.3438 0.55435,-1.0027 1.97734,-3.70275 3.15625,-5.99995 3.23413,-6.3018 9.20885,-13.90645 13.875,-17.65625 5.80507,-4.6651 18.05757,-10.92025 27.875,-14.21875 1.375,-0.4619 12.46233,-3.0479 24.625,-5.75 25.39645,-5.6424 34.21882,-8.38259 46.71875,-14.59375 9.68614,-4.81302 12.02215,-5.62006 6.90625,-2.34375 -4.53963,2.90725 -4.08718,4.54739 0.5,1.8125 5.16731,-3.08076 6.60346,-4.54462 5.78125,-5.875 -0.27505,-0.44503 -0.64824,-0.67537 -1.375,-0.65625 z m 94.40625,5.71875 c -1.07305,-0.0227 -2.63071,0.40942 -4.4375,1.34375 -6.974,3.6064 -31.31858,11.79885 -47.1875,15.90625 -20.20232,5.2291 -33.19229,10.1066 -39.5,14.8125 -5.26812,3.9303 -8.88925,10.73843 -13.46875,25.37495 -1.71062,5.4675 -3.46337,10.8688 -3.90625,11.9688 -0.44287,1.1 -1.28441,3.125 -1.84375,4.5 -1.89303,4.6536 -6.96313,10.6414 -11.65625,13.75 -4.40031,2.9147 -12.02075,5.1355 -13.28125,3.875 -0.60461,-0.6046 2.7152,-5.2553 7.09375,-9.9375 5.05518,-5.4058 2.84631,-7.5104 -4.25,-4.0313 -5.92572,2.9054 -8.09246,3.0637 -5.6875,0.4063 0.95845,-1.0591 1.59597,-2.7337 1.40625,-3.7187 -0.29289,-1.5209 -0.95343,-1.2496 -4.34375,1.75 -5.30927,4.6972 -10.49275,8.2259 -11.125,7.5937 -0.28128,-0.2813 1.14385,-1.7775 3.1875,-3.3437 7.1071,-5.4471 11.4375,-9.5936 11.4375,-10.9688 0,-2.1643 -2.79904,-1.6195 -3.53125,0.6875 -0.36129,1.1383 -3.19923,3.6793 -6.3125,5.6563 -6.4265,4.0806 -7.13485,4.8813 -7.15625,8.0624 -0.022,3.2749 2.42763,3.7163 6.46875,1.2188 1.92893,-1.1922 3.95886,-1.8537 4.53125,-1.5 0.57239,0.3538 3.32048,-0.1106 6.09375,-1.0312 2.77327,-0.9212 5.19495,-1.5235 5.40625,-1.3126 0.2113,0.2114 -1.16558,2.3533 -3.0625,4.75 -3.88411,4.9087 -4.21595,6.5274 -1.6875,8 3.58654,2.0891 10.13699,0.1213 17.59375,-5.3124 7.05528,-5.1415 10.17422,-10.5781 14.40625,-25.0938 8.02611,-27.52912 11.13361,-30.6551 39.75,-39.8125 4.4,-1.4081 12.72969,-3.7449 18.5,-5.1875 10.07949,-2.5197 27.75472,-8.39996 37.75,-12.5625 l 4.75,-1.96875 -3.5,3.25 c -1.92725,1.7949 -5.50721,4.9408 -7.9375,7 -2.4303,2.0591 -4.14752,4.04 -3.8125,4.375 0.49557,0.4956 14.67111,-10.58828 19.5,-15.25 2.03164,-1.9613 1.60091,-3.21215 -0.1875,-3.25 z m -45.3125,48.9375 c -1.14612,0.14549 -3.65495,2.35682 -7.875,6.875 -5.62834,6.02595 -25.77916,22.95335 -28.5,23.93755 -0.53568,0.1938 -0.0687,-1.3895 1.0625,-3.5 3.49095,-6.5136 2.13421,-8.5405 -2.5625,-3.8438 -8.30186,8.3019 -12.56209,5.8275 -4.625,-2.6875 2.36125,-2.5332 2.57126,-5.8125 0.375,-5.8125 -1.6499,0 -12.57824,8.7134 -17.40625,13.875 -3.00562,3.2132 -4.4765,5.5651 -4.09375,6.5625 0.88544,2.3075 2.1362,1.9015 3.75,-1.2187 1.65724,-3.2049 10.66985,-12.5177 11.40625,-11.7813 0.27136,0.2713 -0.072,1.208 -0.78125,2.0625 -0.98972,1.1926 -1.02015,2.1354 -0.15625,4.0312 1.31764,2.8919 4.58423,3.2457 7.96875,0.875 2.19845,-1.5398 2.25305,-1.5022 1.625,1 -0.47367,1.8877 -0.21839,2.72 1,3.1876 1.99361,0.765 7.50735,-2.9478 20.03125,-13.5313 l 8.96875,-7.5625 -4.8125,9 c -2.65622,4.95 -5.97544,10.4915 -7.34375,12.3125 -1.36832,1.8211 -2.57358,3.8461 -2.6875,4.5 -0.4395,2.5229 -9.07227,17.4649 -16.875,29.1875 -7.25792,10.9041 -11.71875,18.4968 -11.71875,20 0,0.8153 0.86058,1.5 1.90625,1.5 2.16561,0 6.64379,-6.6604 4.875,-7.25 -0.5975,-0.1992 1.88151,-4.9293 5.53125,-10.5 3.64974,-5.5707 9.1828,-14.5367 12.28125,-19.9375 3.09845,-5.4008 7.50633,-12.2634 9.78125,-15.25 4.76229,-6.2523 14.52981,-16.5625 15.6875,-16.5625 0.43153,0 1.99459,-1.35 3.5,-3 2.08737,-2.2879 2.36824,-2.4065 1.09375,-0.5 -0.91916,1.375 -2.23834,3.625 -2.90625,5 -0.66792,1.375 -1.62116,2.768 -2.125,3.125 -1.51137,1.0708 0.15607,3.875 2.3125,3.875 1.10393,0 3.47799,-1.6151 5.25,-3.5625 2.97165,-3.2656 8.69608,-7.4375 10.1875,-7.4375 1.10527,0 0.62714,2.3663 -1.3125,6.4688 -1.03523,2.1897 -1.6676,4.3269 -1.40625,4.75 2.30944,3.7368 18.34375,-9.4861 18.34375,-15.125 0,-3.8443 2.47501,-5.7525 9.90625,-7.6563 C 493.55969,995.5956 501,997.06108 501,1001 c 0,2.1678 -7.51233,9.8042 -16.6875,16.9688 -11.30838,8.8301 -13.74933,14.0295 -9.25,19.75 2.02255,2.5712 6.9375,3.7501 6.9375,1.6562 0,-0.55 -0.675,-1 -1.5,-1 -2.14602,0 -5.5,-3.6658 -5.5,-6 0,-2.1939 6.06256,-8.7259 13,-14 7.01647,-5.3342 16,-14.943 16,-17.125 0,-1.0861 -1.11875,-3.0875 -2.46875,-4.4375 -2.05009,-2.05 -3.39595,-2.4375 -8.3125,-2.4375 -6.73297,0 -14.52341,2.0384 -17.3125,4.5625 -1.04799,0.9484 -1.90625,2.8955 -1.90625,4.3125 0,1.8708 -1.82449,4.3135 -6.625,8.9062 -3.63595,3.4788 -6.80789,6.0984 -7.0625,5.8438 -0.25461,-0.2546 0.25945,-1.8262 1.125,-3.5 1.9902,-3.8486 2.04957,-8.125 0.125,-8.125 -2.94148,0 -6.665,2.0403 -11.0625,6.0938 -2.49047,2.2957 -4.71594,4.0028 -4.9375,3.7812 -0.22156,-0.2216 1.644,-3.6731 4.15625,-7.6875 5.78191,-9.23912 4.7449,-11.51852 -2.1875,-4.7813 -2.59167,2.5191 -5.09417,4.5938 -5.5625,4.5938 -0.46834,0 -1.44982,0.7875 -2.1875,1.75 -0.73767,0.9625 -3.10337,3.325 -5.25,5.25 -3.21859,2.8863 -3.62988,3.0616 -2.375,1 0.83694,-1.375 3.18649,-5.5375 5.25,-9.25 2.06351,-3.7125 4.08467,-6.75 4.46875,-6.75 0.87935,0 4.125,-5.43605 4.125,-6.90625 0,-0.76034 -0.22904,-1.12863 -0.75,-1.0625 z M 333.03125,1008.375 c -0.52496,0 -7.7684,3.3649 -16.125,7.5 -8.3566,4.1351 -15.41914,7.2998 -15.6875,7.0312 -0.26836,-0.2681 1.60633,-2.3428 4.15625,-4.625 2.54993,-2.2821 4.625,-4.9967 4.625,-6.0312 0,-1.0345 -0.26433,-1.875 -0.59375,-1.875 -0.32942,0 -4.22054,2.7124 -8.625,6.0312 -7.14044,5.3805 -15.78125,10.6553 -15.78125,9.625 0,-0.2101 3.14901,-2.7301 7,-5.5937 8.20508,-6.1013 9.69232,-8.214 7.40625,-10.5 -1.89924,-1.8993 -4.0323,-1.0594 -2.375,0.9375 0.87391,1.053 0.19456,2.2127 -3.09375,5.1875 -2.31738,2.0964 -5.0191,4.3725 -6,5.0625 -1.68057,1.1823 -1.71045,1.0834 -0.3125,-1.7188 2.45549,-4.9221 2.91294,-9.9102 0.96875,-10.6562 -1.75675,-0.6742 -5.17569,2.574 -17,16.125 -3.35943,3.85 -6.43125,7.1292 -6.84375,7.3125 -0.4125,0.1834 -0.75,0.9709 -0.75,1.75 0,1.581 2.56898,1.9558 3.46875,0.5 0.84899,-1.3737 11.71163,-6.1918 12.96875,-5.75 2.17532,0.7645 11.16338,-2.6489 15,-5.6875 2.40923,-1.9082 3.72286,-2.488 3.34375,-1.5 -0.72334,1.885 0.92844,3.875 3.21875,3.875 0.87477,0 7.40352,-2.9878 14.53125,-6.625 9.72605,-4.963 12.46974,-6.0234 10.96875,-4.25 -1.1,1.2997 -2.25431,2.6 -2.5625,2.875 -0.3082,0.275 -2.63411,3.454 -5.1875,7.0625 -4.85806,6.8656 -7.0504,11.2933 -6.03125,12.3125 0.98828,0.9883 4.28125,0.7052 4.28125,-0.375 0,-0.55 -0.71108,-1 -1.5625,-1 -1.85926,0 0.97489,-4.3412 10.9375,-16.7812 6.43077,-8.0304 7.63658,-10.2188 5.65625,-10.2188 z m -45.59375,3 c 0.91237,0 -2.38511,8.1236 -4.5,11.0938 -1.15985,1.6287 -4.31656,4.0464 -7,5.4062 -2.68345,1.3598 -5.22546,2.4497 -5.65625,2.4062 -0.43078,-0.043 -0.21875,-0.3163 0.46875,-0.5937 0.6875,-0.2774 1.25,-0.8972 1.25,-1.4063 0,-1.336 14.21821,-16.9062 15.4375,-16.9062 z"
       id="path2996"
       inkscape:connector-curvature="0"
       sodipodi:nodetypes="ccccssscccssssscsssscsscscsscccsscsscssssccssssssssssccccccsscscccccccscccccccssssccsssccccscccccccccssscsscsssscscsccsssccssssscssscsssssscssssssssssccssssscsscscscscsccssccscsscsscscsssssssscscsss" />
  </g>
</svg>
