<?xml version="1.0" encoding="UTF-8" standalone="no"?>
<!-- Created with Inkscape (http://www.inkscape.org/) -->

<svg
   xmlns:dc="http://purl.org/dc/elements/1.1/"
   xmlns:cc="http://creativecommons.org/ns#"
   xmlns:rdf="http://www.w3.org/1999/02/22-rdf-syntax-ns#"
   xmlns:svg="http://www.w3.org/2000/svg"
   xmlns="http://www.w3.org/2000/svg"
   xmlns:sodipodi="http://sodipodi.sourceforge.net/DTD/sodipodi-0.dtd"
   xmlns:inkscape="http://www.inkscape.org/namespaces/inkscape"
   width="182.97282"
   height="76.841782"
   id="svg3073"
   version="1.1"
   inkscape:version="0.48.1 "
   sodipodi:docname="Nouveau document 6">
  <defs
     id="defs3075" />
  <sodipodi:namedview
     id="base"
     pagecolor="#ffffff"
     bordercolor="#666666"
     borderopacity="1.0"
     inkscape:pageopacity="0.0"
     inkscape:pageshadow="2"
     inkscape:zoom="0.35"
     inkscape:cx="266.05844"
     inkscape:cy="-542.94366"
     inkscape:document-units="px"
     inkscape:current-layer="layer1"
     showgrid="false"
     fit-margin-top="0"
     fit-margin-left="0"
     fit-margin-right="0"
     fit-margin-bottom="0"
     inkscape:window-width="1920"
     inkscape:window-height="1138"
     inkscape:window-x="-8"
     inkscape:window-y="-8"
     inkscape:window-maximized="1" />
  <metadata
     id="metadata3078">
    <rdf:RDF>
      <cc:Work
         rdf:about="">
        <dc:format>image/svg+xml</dc:format>
        <dc:type
           rdf:resource="http://purl.org/dc/dcmitype/StillImage" />
        <dc:title></dc:title>
      </cc:Work>
    </rdf:RDF>
  </metadata>
  <g
     inkscape:label="Calque 1"
     inkscape:groupmode="layer"
     id="layer1"
     transform="translate(-108.94156,87.423258)">
    <path
       style="fill:#000000"
       d="m 163.55516,-87.42288 c -3.57265,-0.0154 -6.08053,0.43943 -6.08053,1.45474 0,1.61856 12.08121,3.72801 21.41261,3.74312 6.00031,0.01 7.45603,0.17684 9.4477,1.07881 3.73708,1.69242 7.15518,4.07093 10.01979,6.96318 3.47184,3.50532 4.81502,5.58609 6.42379,9.87269 1.28753,3.43066 1.30634,3.53062 0.29422,3.53062 -0.84057,0 -1.04612,0.34557 -1.04612,1.81435 0,1.00106 0.37802,2.77609 0.84997,3.95562 0.74754,1.86828 0.77228,2.51564 0.1798,4.98538 -0.65684,2.73803 -0.72797,2.84411 -2.43548,2.84411 -0.9724,0 -2.70193,-0.48125 -3.84119,-1.06246 -1.95094,-0.99529 -2.07588,-1.19352 -2.07588,-3.4162 0,-3.16711 -1.20959,-5.98246 -2.56625,-5.98246 -2.27653,0 -1.70728,5.6576 0.84997,8.48332 0.79708,0.88077 0.74151,1.04445 -0.65382,2.50086 -1.8705,1.95238 -3.81103,2.02587 -5.96611,0.21249 -1.20659,-1.01528 -1.60186,-1.79346 -1.60186,-3.10565 0,-3.77391 -2.60091,-8.08552 -4.8873,-8.09102 -1.36662,-0.004 -1.47646,0.12363 -1.16053,1.43841 0.19009,0.79112 1.28348,3.0545 2.41913,5.03442 1.13566,1.97991 2.05954,3.80587 2.05954,4.05367 0,1.06904 -4.3855,3.59602 -6.24399,3.59602 -2.58694,0 -3.16592,-0.76021 -3.18737,-4.16811 -0.0189,-3.00734 -1.24631,-10.89015 -1.78166,-11.4255 -0.62416,-0.62417 -1.39716,0.84247 -1.81435,3.48159 -0.48736,3.08302 0.15754,7.56426 1.34033,9.39867 1.10496,1.71369 0.53767,2.71335 -1.53648,2.71335 -1.6651,0 -4.75226,-1.76916 -5.70458,-3.2691 -0.22912,-0.36089 -0.4208,-1.83914 -0.42498,-3.28546 -0.009,-3.11506 -1.14083,-5.09036 -2.79508,-4.8546 -1.55767,0.22199 -1.71892,2.41833 -0.37595,5.05076 0.58825,1.15306 1.28223,2.23554 1.55282,2.40279 0.53874,0.33295 -0.0241,2.86962 -1.09515,4.90364 -0.86896,1.65027 -3.06829,2.71336 -5.63919,2.71336 -1.83623,0 -2.27201,-0.23162 -3.17103,-1.69993 -0.57246,-0.93497 -1.02603,-2.40606 -1.01342,-3.2691 0.0308,-2.10626 -0.96734,-7.496 -1.61821,-8.71216 -0.55924,-1.04496 -2.27631,-1.25069 -4.24983,-0.52305 -3.37286,1.24357 -4.07826,1.21123 -4.62578,-0.22884 -0.42439,-1.11624 -0.26949,-1.91416 0.81728,-4.13541 2.79561,-5.71402 2.93533,-17.57716 0.27787,-23.58657 -3.20111,-7.23879 -14.02228,-6.33056 -21.75586,1.8307 -6.00883,6.34112 -13.80519,25.89891 -13.17448,33.06695 0.43946,4.99456 3.00316,8.84472 6.78338,10.21595 4.8142,1.74628 15.26887,0.17234 23.22696,-3.49794 l 4.26618,-1.96146 0.27788,1.37302 c 0.15638,0.75981 0.55278,4.44924 0.86631,8.1891 0.8533,10.17846 1.54676,15.99112 2.19029,18.15985 0.52711,1.77641 0.47572,2.03705 -0.67016,2.99123 l -1.2586,1.02977 1.9778,0.0326 c 1.77974,0.0157 1.94542,-0.098 1.69993,-1.16054 -1.46392,-6.33553 -1.87307,-9.03347 -2.37009,-15.82245 -0.31593,-4.31521 -0.79481,-9.37578 -1.06246,-11.24571 -0.26766,-1.86992 -0.48467,-3.71835 -0.49037,-4.10272 -0.007,-0.45605 1.17244,-0.0289 3.41621,1.22592 2.35417,1.31652 3.8304,1.82604 4.65847,1.6182 0.74301,-0.18648 1.45664,-0.0127 1.84704,0.45767 1.08276,1.30464 4.03027,1.55079 6.30937,0.52306 1.96982,-0.88826 4.15176,-3.63055 4.15176,-5.21421 0,-1.37197 0.84812,-1.24292 2.61528,0.40863 1.44144,1.34715 2.16335,1.63804 3.89023,1.56917 1.16769,-0.0465 4.16589,-0.15389 6.66896,-0.24519 4.4163,-0.16107 4.60987,-0.22941 6.5382,-2.05953 1.83435,-1.74092 2.06647,-1.82136 2.87681,-1.04611 1.88059,1.79915 2.52252,2.15761 4.00465,2.15761 1.47032,0 4.33089,-2.06956 4.83827,-3.49794 0.1554,-0.43748 1.14139,-0.29663 3.48159,0.47402 1.79801,0.59211 3.2691,1.24778 3.2691,1.45475 0,0.20697 -0.8161,1.40283 -1.81435,2.66432 -2.13613,2.69941 -6.74168,5.61077 -11.96491,7.56797 -8.41893,3.15466 -11.72617,5.91219 -10.29766,8.58139 0.71479,1.33562 2.7028,1.57856 13.02736,1.6182 5.84112,0.0225 8.83557,0.19585 8.17275,0.49037 -1.0097,0.44863 -14.48775,3.48095 -20.92224,4.7075 -6.51608,1.2421 -10.19959,2.57092 -10.19959,3.66139 0,1.16636 4.6648,0.84136 14.9071,-1.0461 41.41378,-7.63175 74.34291,-11.50201 97.94226,-11.50725 9.14681,-0.002 11.62576,-0.35133 9.21885,-1.27494 -0.47114,-0.18079 -5.94361,-0.29846 -12.16105,-0.26153 -6.68243,0.0397 -12.66893,-0.17849 -14.62922,-0.5394 -4.29552,-0.79084 -10.0198,-2.56663 -10.0198,-3.10565 0,-0.89318 2.12966,-2.2146 10.33036,-6.42378 14.73174,-7.56137 14.77634,-7.57881 14.77634,-8.64677 0,-0.36801 -0.45411,-0.67017 -1.01342,-0.67017 -0.55932,0 -1.67736,-0.58131 -2.48452,-1.29129 l -1.47109,-1.29129 1.8307,0.5067 c 3.25818,0.90279 6.98854,0.62353 8.94098,-0.67017 2.01029,-1.33202 3.94015,-4.8289 4.44598,-8.07468 0.29565,-1.89713 0.15373,-2.36347 -1.01343,-3.53062 -1.67199,-1.67201 -3.40188,-1.71621 -8.35255,-0.2125 -6.32847,1.92222 -9.77461,4.33606 -9.77461,6.84877 0,2.14688 -1.03918,1.61488 -2.61528,-1.34033 -0.7192,-1.34851 -1.60185,-2.45078 -1.96146,-2.45183 -0.91591,-0.002 -0.81787,2.35104 0.13076,3.13834 0.43153,0.35813 0.7846,1.29255 0.7846,2.09223 0,1.16055 -0.33608,1.5685 -1.6509,2.02684 -0.90598,0.31583 -2.037,0.58844 -2.51721,0.58844 -1.73889,0 -6.09811,-1.5798 -7.19203,-2.59893 -0.98472,-0.91743 -1.03967,-1.236 -0.5067,-2.64798 0.49,-1.2982 0.44593,-1.86363 -0.19615,-3.00757 -1.10263,-1.96447 -2.44554,-2.10611 -3.122,-0.32691 -0.51273,1.3486 -0.40559,2.08644 0.76825,4.96903 0.35264,0.86598 -0.74621,1.52544 -4.18445,2.50086 l -1.58552,0.44134 -0.0654,-2.81144 c -0.0989,-4.22304 -0.98391,-6.32154 -3.26909,-7.76411 -2.16533,-1.36691 -2.40271,-2.00462 -3.10565,-8.53235 -0.43401,-4.03033 -1.26925,-5.68765 -2.1576,-4.28253 -0.7135,1.12856 -0.62711,2.61048 0.3269,5.41037 1.16023,3.40509 0.6599,6.51999 -1.38936,8.48332 -1.80382,1.72816 -3.22941,4.2688 -2.59894,4.65846 0.23619,0.14597 0.9376,-0.57549 1.55282,-1.61821 1.43627,-2.43429 1.8288,-2.03335 0.81727,0.83363 -0.90356,2.56099 -0.96236,3.15468 -0.34325,3.15468 0.24191,0 0.74506,-1.35341 1.1115,-3.00757 0.84375,-3.80895 1.38264,-4.83827 2.56624,-4.83827 0.9049,0 2.36352,3.55037 3.54697,8.63042 0.29929,1.28472 0.39817,1.36827 0.55575,0.47403 0.1059,-0.60074 -0.26267,-2.77796 -0.83362,-4.83828 -1.07434,-3.8769 -0.7563,-4.78027 0.83362,-2.35375 0.85208,1.30043 1.72068,6.68847 1.29129,7.97661 -0.31736,0.95211 -3.17104,0.63746 -4.28251,-0.47402 -1.07575,-1.07575 -1.45623,-2.40743 -0.52306,-1.8307 0.67919,0.41976 0.68064,-2.36303 0,-3.39986 -0.45782,-0.6974 -0.58829,-0.6974 -1.04611,0 -0.89148,1.35802 -0.59859,4.46592 0.55574,5.93341 0.81739,1.03914 1.55177,1.38938 2.99123,1.38938 l 1.91243,0 -1.20957,0.84996 c -1.44461,1.01184 -5.05347,1.49522 -7.48624,1.01343 -2.85554,-0.56553 -4.34791,-2.16463 -4.34791,-4.67482 0,-2.51977 -0.97318,-3.42554 -1.19322,-1.1115 -0.35051,3.68614 -3.08796,5.51153 -6.47281,4.33156 -1.48378,-0.51724 -1.57452,-0.69707 -1.2913,-2.46817 0.63772,-3.98813 -1.67563,-7.97702 -2.84412,-4.90364 -0.54572,1.43531 -0.31823,3.51855 0.67016,6.08051 0.50093,1.29842 0.40665,1.63654 -0.78458,2.82778 -1.05273,1.05272 -1.88611,1.35668 -3.69408,1.35668 -3.93066,0 -7.66605,-1.95028 -7.66605,-4.00465 0,-1.14342 -1.47133,-6.24194 -3.51428,-12.1774 -2.11344,-6.14027 -6.95234,-11.41264 -13.86098,-15.13594 -2.80674,-1.51264 -3.07486,-1.78786 -1.8307,-1.79801 3.87145,-0.0316 28.71612,-1.68379 41.94256,-2.79507 0.80002,-0.0672 1.093,0.34159 1.35668,1.89608 0.41884,2.46912 0.78094,2.83342 3.38352,3.4162 l 2.07588,0.47402 -1.38937,0.55575 c -0.76318,0.31046 -1.55751,0.84063 -1.76531,1.17688 -0.55515,0.89824 1.49332,0.1575 4.56039,-1.6509 1.40727,-0.82976 2.67711,-1.50378 2.81143,-1.50378 0.97983,0 4.93633,-2.3602 4.93634,-2.9422 0,-1.00028 -0.33533,-0.91803 -3.92293,0.86631 -4.17643,2.07723 -7.26419,2.52617 -8.64677,1.27495 -1.35271,-1.22417 -1.32054,-2.89456 0.049,-3.25275 1.54933,-0.40515 1.06088,-1.99084 -0.57209,-1.86339 -0.71022,0.0554 -6.35186,0.57226 -12.537,1.14419 -6.18513,0.57192 -16.79953,1.32658 -23.58656,1.68359 -11.37297,0.59822 -12.52278,0.56821 -14.59653,-0.26154 -5.21034,-2.08476 -14.11786,-3.39062 -20.07228,-3.4162 z m -1.25861,1.07879 c 0.50564,-0.0132 1.10099,-0.0109 1.78166,0 0.77792,0.0122 1.67706,0.0525 2.68067,0.0981 4.51444,0.20494 8.27429,0.70363 11.638,1.56916 l 4.96903,1.29129 -5.23056,-0.0326 c -5.86908,-0.0237 -6.43347,-0.0737 -13.20717,-1.24226 -5.3978,-0.93118 -6.17107,-1.59144 -2.63163,-1.68359 z m -26.88835,0.52306 c 0.49206,-0.0109 0.97293,0.007 1.47109,0.049 2.59213,0.21497 3.20522,0.48713 4.69116,2.10858 2.06899,2.25764 2.79721,4.56424 3.18738,10.08517 0.41371,5.85414 -0.5207,12.23914 -2.17395,14.85806 -1.20408,1.90738 -3.59073,3.69408 -4.95269,3.69408 -0.34661,0 -0.55575,-1.92366 -0.55575,-5.21421 0,-3.12715 -0.30301,-6.10889 -0.75189,-7.45355 -0.4115,-1.23269 -0.89927,-3.12199 -1.09515,-4.2008 -0.19844,-1.09291 -0.66244,-1.96146 -1.04611,-1.96146 -0.51774,0 -0.62043,0.68134 -0.40864,2.74606 0.16403,1.59915 -0.0793,4.67684 -0.58844,7.38815 -0.48081,2.56072 -1.09658,7.73898 -1.35668,11.50725 -0.67674,9.80437 -0.64888,10.78803 0.27788,10.78803 0.50304,0 0.78458,-0.51956 0.78458,-1.42206 0,-1.21348 0.0902,-1.29335 0.65382,-0.58844 0.90032,1.12596 3.72331,2.00744 4.62578,1.4384 0.60931,-0.38418 0.57581,-0.74483 -0.24518,-2.17394 -0.56767,-0.98817 -1.0915,-3.17351 -1.24226,-5.18154 l -0.26153,-3.48158 1.91243,-0.89901 c 1.05361,-0.49998 2.03855,-0.78921 2.19029,-0.63748 0.61662,0.61662 2.21637,6.05072 1.9501,7.11164 -0.15727,0.62658 -0.56149,1.55941 -0.2505,1.75161 1.38542,0.85624 0.51424,1.88755 -2.40245,3.42858 -3.92786,2.07527 -7.28877,3.17741 -12.42259,4.08638 -7.77109,1.37591 -11.83465,0.65481 -14.69461,-2.61529 -3.6178,-4.13662 -3.65506,-9.36388 -0.16345,-19.12424 1.16099,-3.24541 1.25714,-3.47512 3.74312,-8.89195 5.07602,-11.06041 11.74331,-17.03674 19.12424,-17.19547 z m 104.11376,11.47931 c 0.14331,0.35413 0.34299,2.98068 0.21022,3.48961 -0.13261,0.50891 -1.06391,-3.04408 -1.07459,-3.90712 -0.008,-0.64728 0.10155,-1.59109 0.13885,-1.50827 0.15973,-0.83306 0.62358,1.70685 0.72554,1.92578 z m 0.41574,6.92573 c 0.0931,0.054 0.1557,0.3743 0.27787,1.01342 0.18843,0.98571 0.0679,1.43841 -0.42499,1.43841 -0.78967,0 -0.83816,-0.31336 -0.24518,-1.8307 0.18096,-0.46302 0.29926,-0.67518 0.3923,-0.62113 z m 45.29339,3.61235 c 0.74775,-0.006 1.34047,0.13281 1.86339,0.42499 0.86901,0.48557 1.46931,1.32017 1.56917,2.17396 0.2377,2.03253 -1.89027,6.56142 -3.69408,7.84583 -3.61896,2.57693 -11.96254,1.08831 -13.09275,-2.33741 -0.7387,-2.23899 0.57094,-3.68024 5.00172,-5.52477 4.28233,-1.78274 6.70749,-2.56899 8.35255,-2.5826 z M 134.689,-63.32962 c 0.009,-3.2e-4 0.0238,0.007 0.0327,0.0163 0.25194,0.25194 0.49297,6.30568 0.34325,8.67947 -0.0408,0.64728 -0.34338,1.17688 -0.67016,1.17688 -0.40593,0 -0.48878,-0.77755 -0.26153,-2.43549 0.18294,-1.33472 0.32691,-3.60456 0.32691,-5.05075 0,-1.35581 0.0984,-2.38159 0.22883,-2.38645 z m 118.5049,2.12493 c 0.37224,0.0207 0.84035,0.6437 0.96438,1.69992 0.20138,1.7149 -0.66081,2.88778 -1.16053,1.58552 -0.18203,-0.47439 -0.3269,-1.45431 -0.3269,-2.17396 0,-0.7835 0.23353,-1.1276 0.52305,-1.11148 z m -47.67984,2.45182 c 0.10344,-0.0239 0.22187,0.0258 0.37595,0.1798 0.16549,0.16548 0.22784,0.98058 0.13076,1.79801 l -0.17979,1.48743 -0.40864,-1.50378 c -0.29852,-1.0886 -0.22859,-1.88961 0.0817,-1.96146 z m 16.11667,0.14711 c 0.0241,-0.0146 0.0475,-0.01 0.0654,0 0.0717,0.0388 0.0887,0.27748 0.0981,0.70285 0.0127,0.57536 0.16979,1.57571 0.34325,2.22299 0.17346,0.64729 0.0752,1.17687 -0.21249,1.17687 -0.72277,0 -1.16683,-2.70227 -0.60478,-3.66139 0.1402,-0.23927 0.23856,-0.39742 0.31056,-0.44132 z m -39.32728,2.19029 c 0.0816,-0.0427 0.33908,0.17202 0.81728,0.60479 0.54793,0.49588 1.37999,1.93796 1.86338,3.20371 0.4834,1.26575 0.75375,2.43363 0.58844,2.59895 -0.32984,0.32984 -2.50277,-3.51724 -3.0893,-5.47575 -0.17679,-0.59032 -0.26143,-0.88902 -0.1798,-0.9317 z m 12.16105,0.49037 c 0.1111,-0.007 0.28229,0.27657 0.5721,0.78458 0.37683,0.66058 0.61221,1.92977 0.52305,2.82778 -0.14215,1.43182 -0.247,1.53389 -0.84996,0.80092 -0.3842,-0.46703 -0.61499,-1.71134 -0.52306,-2.82776 0.0895,-1.08655 0.13504,-1.57689 0.27787,-1.58552 z m -20.95493,0.0491 c 0.0359,-0.016 0.0725,-0.01 0.11442,0.0163 0.25405,0.15702 0.6282,1.64383 0.81727,3.30179 0.18907,1.65797 0.46603,3.67121 0.62113,4.46234 0.4281,2.1837 -0.60149,1.71392 -1.29129,-0.58844 -0.66592,-2.22266 -0.80036,-6.95235 -0.26153,-7.19203 z m 33.39353,-1.07838 c 0.28105,0.006 0.72519,2.22319 0.91568,3.21965 0.1383,0.72344 0.20985,1.32399 0.16346,1.32399 -0.45946,0 -1.34034,-1.47536 -1.34034,-2.23934 0,-0.50895 0.0926,-2.30827 0.2612,-2.3043 z m 46.6504,2.02643 c 0.39628,-0.0295 0.66409,0.18664 1.14418,0.62113 1.24126,1.12331 5.37634,2.41913 7.74778,2.41913 2.39395,0 5.39401,-1.31802 5.39401,-2.3701 0,-0.72673 0.29218,-0.68576 1.96146,0.34325 1.07881,0.66503 2.5499,1.81846 3.26911,2.5499 0.7192,0.73145 1.88074,1.73267 2.58259,2.22299 0.70184,0.49031 1.17258,0.96159 1.0461,1.06246 -0.74901,0.59731 -9.52198,5.40089 -14.8744,8.14007 -7.96935,4.07841 -8.87228,4.77649 -8.45063,6.45647 0.17808,0.70952 0.90897,1.54913 1.63456,1.87973 1.63719,0.74595 7.70172,2.1712 9.5948,2.25568 0.77327,0.0345 -3.18411,0.51015 -8.79388,1.04611 -21.73158,2.07624 -39.93579,4.70155 -68.40593,9.88903 -7.85125,1.43055 -14.79482,2.59383 -15.43016,2.58259 -2.26588,-0.0401 2.06116,-1.4506 8.64677,-2.82777 3.52281,-0.73668 8.40813,-1.82351 10.85342,-2.40279 2.44528,-0.57927 6.73987,-1.57044 9.54577,-2.20665 2.8059,-0.6362 5.01657,-1.39287 4.92,-1.68358 -0.10927,-0.32894 -4.40469,-0.57731 -11.37647,-0.65382 -10.3458,-0.11352 -15.11959,-0.61946 -15.11959,-1.61821 0,-1.23947 4.14445,-4.05023 9.33328,-6.3257 3.2367,-1.41942 6.88198,-3.16292 8.09102,-3.87389 2.81261,-1.65396 6.09022,-4.92314 6.718,-6.68531 0.31822,-0.89323 1.07479,-1.5365 2.15761,-1.84704 1.34081,-0.38454 2.86345,-2.10845 3.28545,-3.71043 0.0172,-0.065 1.31171,0.36781 2.87681,0.96439 4.71187,1.79602 8.98583,0.86257 10.00345,-2.19031 0.12562,-0.37689 0.67861,-0.359 1.74897,0.0491 1.89142,0.72105 5.66179,0.24205 6.55454,-0.83362 0.563,-0.67837 0.82879,-0.62708 2.0105,0.47402 3.19884,2.98062 9.09138,2.91142 13.27254,-0.16346 1.17994,-0.86772 2.60325,-1.56916 3.1547,-1.56916 0.55143,0 1.91166,-0.51907 3.0239,-1.14419 0.96412,-0.54186 1.48346,-0.8205 1.87974,-0.84996 z m -90.27622,1.12783 c 0.19647,-0.0186 0.47604,0.1001 0.80093,0.42498 0.49609,0.49609 0.72645,1.48835 0.62113,2.58259 l -0.16345,1.78166 -0.94804,-1.74897 c -0.86092,-1.58014 -0.89997,-2.98454 -0.31057,-3.04026 z m -13.41965,0.24519 0.93169,1.14419 c 0.53296,0.65818 0.94142,2.07603 0.96438,3.31813 0.022,1.19077 0.13381,3.52736 0.24519,5.18152 0.11138,1.65416 0.0345,3.00758 -0.1798,3.00758 -0.95809,0 -6.40949,-3.84493 -6.2113,-4.3806 0.12168,-0.32885 -0.30267,-1.17688 -0.94803,-1.89608 -0.64537,-0.7192 -1.30757,-2.02984 -1.4711,-2.9095 -0.29514,-1.58756 -0.27069,-1.61211 3.18737,-2.53355 z m -15.21767,2.05953 c 0.3713,-0.0823 0.73064,0.87138 0.93169,2.89316 0.17795,1.78934 0.49042,3.66466 0.70286,4.16809 0.51122,1.21152 -0.89151,1.23341 -2.09222,0.0328 -0.71068,-0.71067 -0.82926,-1.44864 -0.55575,-3.77582 0.24936,-2.12169 0.64212,-3.23575 1.01342,-3.31813 z m 72.3452,0.1471 c 0.33721,-0.0265 0.67436,0.18631 0.86631,0.68651 0.14978,0.39032 -0.0176,1.27552 -0.3596,1.96148 -0.73783,1.47994 -2.78264,2.15137 -2.23933,0.73554 0.18704,-0.48743 0.49636,-1.44878 0.67016,-2.14127 0.19279,-0.76812 0.6289,-1.20814 1.06246,-1.24226 z m -62.7282,5.88455 c 0.18862,0.36736 0.36,0.6915 0.18181,0.75373 -0.1782,0.0623 -0.48006,-0.37019 -0.66868,-0.73754 -0.18862,-0.36736 -0.17353,-0.34945 0.005,-0.41167 0.39924,0.1813 0.26701,0.11558 0.48222,0.39548 z"
       id="path2996"
       inkscape:connector-curvature="0"
       sodipodi:nodetypes="cssssssssssssssssscsssscssssscssssssssssssssscccsscccsssssssssssssssssssssssssscssssssscccsssssscssssssssscccssssssssssssssssssssssccssssssssssssssscccsssssscsssssccscccscccssssssssssssssssccccssssssscccsssccssssssscscssscccsssccccccsccccssscsssssscscsscccssscsscscssscssscsssssscssscsssssscsssssssssssccsscccscsssccsssssssssscscssscssscssssscss" />
  </g>
</svg>
