<?xml version="1.0" encoding="UTF-8" standalone="no"?>
<!-- Created with Inkscape (http://www.inkscape.org/) -->

<svg
   xmlns:dc="http://purl.org/dc/elements/1.1/"
   xmlns:cc="http://creativecommons.org/ns#"
   xmlns:rdf="http://www.w3.org/1999/02/22-rdf-syntax-ns#"
   xmlns:svg="http://www.w3.org/2000/svg"
   xmlns="http://www.w3.org/2000/svg"
   xmlns:sodipodi="http://sodipodi.sourceforge.net/DTD/sodipodi-0.dtd"
   xmlns:inkscape="http://www.inkscape.org/namespaces/inkscape"
   width="404.4043"
   height="151.96284"
   id="svg2"
   version="1.1"
   inkscape:version="0.48.1 "
   sodipodi:docname="Nouveau document 1">
  <defs
     id="defs4" />
  <sodipodi:namedview
     id="base"
     pagecolor="#ffffff"
     bordercolor="#666666"
     borderopacity="1.0"
     inkscape:pageopacity="0.0"
     inkscape:pageshadow="2"
     inkscape:zoom="0.61416932"
     inkscape:cx="574.72941"
     inkscape:cy="316.02391"
     inkscape:document-units="px"
     inkscape:current-layer="layer1"
     showgrid="false"
     inkscape:window-width="1920"
     inkscape:window-height="1138"
     inkscape:window-x="-8"
     inkscape:window-y="-8"
     inkscape:window-maximized="1"
     fit-margin-top="0"
     fit-margin-left="0"
     fit-margin-right="0"
     fit-margin-bottom="0" />
  <metadata
     id="metadata7">
    <rdf:RDF>
      <cc:Work
         rdf:about="">
        <dc:format>image/svg+xml</dc:format>
        <dc:type
           rdf:resource="http://purl.org/dc/dcmitype/StillImage" />
        <dc:title></dc:title>
      </cc:Work>
    </rdf:RDF>
  </metadata>
  <g
     inkscape:label="Calque 1"
     inkscape:groupmode="layer"
     id="layer1"
     transform="translate(-64.538586,-552.03824)">
    <path
       style="fill:#000000"
       d="m 221.9219,552.04442 c -1.20779,0.02 -2.17936,0.0846 -2.8296,0.20654 -3.23542,0.60697 -9.79336,6.38208 -7.24954,6.38208 0.31266,0 1.64053,-1.03481 2.97417,-2.29259 3.02061,-2.84883 5.32926,-3.30461 14.23059,-2.78829 11.25432,0.65281 35.46985,5.50391 37.61089,7.53871 0.48035,0.45651 1.2239,0.83144 1.65232,0.82615 1.15332,-0.015 2.78398,-1.18158 2.31325,-1.65231 -0.71182,-0.71182 -18.25459,-4.83725 -26.49905,-6.2375 -7.28983,-1.23813 -16.96925,-2.06939 -22.20303,-1.98279 z m -129.975486,6.17554 c -0.05347,-0.003 -0.114827,0.003 -0.185886,0.0206 -0.189489,0.0455 -0.433097,0.17991 -0.743543,0.37178 -1.080802,0.66798 -1.084564,7.47182 0,20.50939 1.445274,17.37369 3.493746,26.28418 12.516315,54.52651 1.39355,4.36212 2.53515,8.37725 2.54043,8.92251 0.005,0.54527 0.44954,2.17239 0.9914,3.6351 0.54184,1.46272 1.18694,4.88301 1.44577,7.60067 0.25884,2.71765 0.60796,5.18002 0.7642,5.45265 0.32331,0.56417 1.15249,0.64441 1.63167,0.16523 0.17764,-0.17764 -0.2175,-3.52359 -0.86747,-7.43543 -0.64997,-3.91184 -1.37285,-9.49772 -1.61101,-12.41304 -0.83003,-10.16062 2.06562,-30.21028 5.98965,-41.49384 2.70547,-7.77958 4.7142,-8.36635 5.72116,-1.65232 1.38651,9.2449 3.91541,21.94377 5.45265,27.30456 3.87764,13.52237 10.0069,24.44166 12.82612,22.86395 0.90245,-0.50495 1.06555,-1.5372 0.90877,-5.80377 -0.23584,-6.41828 1.47236,-18.18948 3.0981,-21.33556 1.45243,-2.81068 3.73537,-4.1357 6.21685,-3.61444 1.92862,0.40513 2.5313,-0.62311 0.76419,-1.3012 -3.30838,-1.26955 -6.89193,0.73489 -8.59205,4.79172 -1.4155,3.37765 -2.90759,13.90063 -2.91221,20.53005 l 0,5.57658 -1.71428,-1.61101 c -2.35377,-2.20479 -6.45435,-10.92329 -8.86056,-18.81574 -2.13957,-7.01786 -3.37001,-12.95599 -4.95695,-24.08254 -1.41461,-9.91822 -2.31292,-11.68335 -5.34939,-10.55418 -3.73915,1.39047 -9.28113,26.10728 -9.66606,43.10485 -0.0803,3.54422 -0.17399,6.44404 -0.22719,6.44404 -0.5073,0 -9.225483,-28.84678 -11.504268,-38.06528 -2.52843,-10.22851 -5.220021,-39.53938 -3.862294,-42.13412 0.503488,-0.96219 0.560179,-1.48383 0.185886,-1.50774 z m 180.474456,2.78829 c -0.3242,0.009 -0.58129,0.0935 -0.70223,0.28916 -0.21668,0.35058 0.29471,0.9225 1.13597,1.25989 2.10322,0.84351 2.67305,0.83152 2.37521,-0.0619 -0.26645,-0.79935 -1.83634,-1.51365 -2.80895,-1.48709 z m 180.04073,2.3339 c -1.14903,0.0784 -1.7339,0.58756 -2.8296,2.02409 -3.03171,3.97478 -7.94015,16.30528 -10.38895,26.10663 -1.25527,3.36219 -2.52596,6.36777 -3.24267,9.31494 -1.6799,6.97426 -2.55154,10.32978 -2.58918,10.76489 -0.75354,-0.0325 -1.83484,-0.0465 -3.2559,-0.0455 -6.01271,0.005 -9.857,4.29733 -14.62302,16.31665 -1.07377,2.70793 -1.49647,4.74766 -2.06476,6.32279 -1.91297,1.61877 -4.83276,2.83698 -11.19509,5.88371 -5.06698,2.42643 -15.82074,6.506 -17.16345,6.506 -0.60061,0 -1.64055,-6.85309 -2.62306,-17.18411 -1.84258,-19.37447 -1.1167,-29.01561 2.99483,-39.69694 l 1.63166,-4.25472 c 0,0 0.3143,2.57994 -0.28915,3.6351 -0.32843,0.57426 -1.40572,2.74094 -1.83878,4.17781 -0.36485,1.21056 -0.17581,1.86169 0.33619,1.02074 l 1.89501,-3.1125 0.28916,-0.68158 c 1.33706,-3.08592 0.94728,-6.36143 -0.74355,-6.36143 -1.06513,0 -1.66806,1.22728 -3.44921,6.93974 -3.14236,10.07808 -3.88726,18.14666 -2.89156,31.22881 0.44503,5.84709 1.21746,13.46848 1.73494,16.91561 0.51746,3.44713 0.95008,6.63395 0.95008,7.08431 0,1.28821 -7.00918,1.79179 -13.15658,0.95009 -12.52685,-1.71517 -25.1663,-8.38991 -34.22364,-18.07223 -3.58249,-5.05103 -9.00119,-11.45378 -9.46307,-17.36923 2.34249,-0.9748 4.6619,-1.21619 6.78527,-2.64584 6.10616,-3.20338 15.65461,-10.75827 12.34386,-13.60961 -0.88684,-0.76378 -5.19333,-0.0387 -7.33216,0.43374 -7.6387,1.70904 -12.27318,5.91218 -12.95005,11.91734 -0.16304,1.44649 -0.29855,2.34266 -0.40589,2.91183 -0.48951,0.10361 -1.27199,0.43378 -2.32043,0.72327 -3.162,0.87307 -9.41838,2.16526 -22.22368,4.62649 -21.17823,4.07053 -37.63612,9.3423 -52.6883,16.8743 -1.71737,0.85937 -3.25972,1.3472 -3.42856,1.07401 -0.39723,-0.64273 -5.77748,-28.13711 -7.8072,-39.90349 -1.26331,-7.32346 -1.40444,-9.08775 -0.68159,-9.08775 0.49314,0 0.72036,-0.29741 0.4957,-0.66092 -0.22466,-0.36351 -1.02524,-0.66093 -1.77624,-0.66093 -1.18945,0 -1.30972,0.27688 -0.92943,2.14801 0.24011,1.18141 1.4918,8.24507 2.76763,15.69703 2.02323,11.81743 5.73284,30.39588 6.56797,32.88113 0.15859,0.47195 -1.26044,1.84328 -3.22202,3.09809 -4.11965,2.63527 -7.70394,6.49987 -7.70394,8.3029 0,2.11574 3.53236,5.44723 9.02579,8.5301 2.85646,1.60301 5.29187,3.00642 5.432,3.11875 0.14013,0.11232 0.37322,3.4131 0.51635,7.33216 0.14311,3.91907 0.42621,8.38964 0.61962,9.93456 0.73532,5.87392 1.10203,2.42648 0.76419,-7.10497 -0.19326,-5.45265 -0.14872,-9.92283 0.0826,-9.91391 0.23134,0.009 1.7053,0.31755 3.28398,0.68159 1.57869,0.36404 7.97316,1.46758 14.20994,2.43717 10.32235,1.60472 13.11252,1.75439 31.06358,1.79689 10.84604,0.0256 19.86277,-0.17676 20.03436,-0.45439 0.17158,-0.27763 1.31106,-0.49569 2.54044,-0.49569 1.22938,0 2.39772,-0.28846 2.6024,-0.61962 0.51449,-0.83247 -7.46699,-1.19012 -8.28225,-0.37177 -0.40608,0.40762 -7.30977,0.64701 -17.98961,0.64027 -17.77782,-0.0112 -28.3106,-1.01313 -42.91897,-4.08949 l -5.12218,-1.074 -0.0206,-2.37521 c -0.009,-1.30126 -0.69898,-5.90385 -1.54905,-10.22372 l -1.54905,-7.84851 8.0344,-3.84164 c 16.98808,-8.12632 24.92161,-10.35684 63.28378,-17.76242 3.15102,-0.64998 6.19757,-1.54372 9.10927,-2.13301 0.20387,0.43396 0.36811,1.61824 0.70137,2.8559 3.68963,13.70226 19.81218,27.67658 37.3424,32.36478 3.86257,1.03299 7.33877,1.42407 13.012,1.46643 l 7.74524,0.0619 0.70224,3.65576 c 0.78787,4.13733 4.31216,14.14486 5.78311,16.39925 0.53367,0.8179 1.39671,1.48709 1.90017,1.48709 1.22785,0 1.14231,-0.95957 -0.16523,-2.04474 -0.9413,-0.78121 -3.23458,-5.30061 -4.46126,-8.77794 -0.41981,-1.19005 -2.39454,-10.28553 -2.39586,-11.02923 -3e-4,-0.20391 1.56144,-0.77451 3.46986,-1.25989 3.1074,-0.79032 17.0076,-6.74352 18.6712,-7.99309 0.71459,-0.53675 5.56537,-3.26135 5.80377,-3.26333 0.0798,-6.6e-4 0.056,1.85355 -0.0619,4.1308 -0.48443,9.34304 5.89012,17.6798 13.52835,17.6798 0.52946,0 1.15501,0.0444 1.44394,0.10671 0.45031,2.29758 0.81772,5.31307 1.50958,7.57657 2.18449,7.07253 7.0127,11.12254 11.64885,9.76933 l 1.81755,-0.537 -1.98279,-0.20654 c -5.75814,-0.63328 -7.98198,-2.66221 -10.12045,-9.23233 -1.33347,-4.0969 -1.73915,-6.43064 -1.88026,-7.57437 0.62554,-0.43902 1.83206,-0.88735 2.91296,-1.38946 6.38279,-2.96497 12.01831,-6.86192 18.34074,-12.70219 l 3.30463,-3.05679 0.43374,2.54044 c 0.56888,3.2919 7.10748,18.78625 7.14627,16.93626 0.0266,-1.26758 -0.95145,-3.87999 -3.67641,-9.93456 -0.51677,-1.14821 -1.53653,-4.02794 -1.98516,-6.4647 l -0.8333,-4.52613 3.35547,-3.61153 c 8.2066,-8.83286 12.05942,-13.92616 10.76072,-16.02749 -0.23014,-0.37238 -1.78869,-0.66093 -3.46987,-0.66093 -2.79749,0 -3.31769,0.27693 -6.19619,3.26333 -3.35158,3.4772 -4.71914,6.76901 -5.55592,13.46639 -0.48884,3.91247 -1.46535,5.14872 -8.90187,11.09119 -4.38445,3.50359 -14.1359,9.45259 -15.55489,9.45259 -0.13701,-0.78471 -0.48793,-8.851 0.35353,-16.45429 1.0505,-9.49209 4.6353,-25.36347 5.10391,-26.48096 5.18639,1.42734 7.59325,4.2242 9.02654,7.3354 l 0.96761,2.62238 0.0413,-1.87951 c 0.0297,-1.03445 -0.56019,-2.63992 -1.15472,-3.64638 -2.45215,-3.35835 -5.55445,-4.23674 -8.65414,-5.707 0.34618,-2.04129 1.22015,-4.75123 1.65054,-6.61215 1.2629,-5.08252 3.30712,-10.26418 4.48191,-14.39582 5.34555,-18.8839 11.10066,-28.45266 14.89152,-24.76412 0.68631,0.66776 0.81906,0.50937 0.64027,-0.82616 -0.18407,-1.37499 -0.63221,-1.69119 -2.64371,-1.85886 -0.25913,-0.0216 -0.50579,-0.0362 -0.72289,-0.0413 -0.18996,-0.005 -0.37285,-0.0112 -0.537,0 z m -109.03235,32.55067 c 1.15708,0.002 1.89889,0.25051 1.8382,0.90877 -0.22051,2.39175 -5.50082,6.14322 -8.15832,8.28225 -3.2195,2.39598 -7.58968,4.79999 -11.09652,5.43172 -0.25786,-1.25397 0.69562,-6.32264 2.9382,-8.9429 2.6084,-3.04769 6.65988,-4.21348 10.0998,-5.03957 1.64565,-0.3952 3.22156,-0.64227 4.37864,-0.64027 z m 86.68474,16.44056 c 1.20062,0.0258 2.26771,0.15686 2.94272,0.45945 -0.0171,0.50575 -0.68992,3.53816 -1.43498,6.64552 -2.16467,9.02809 -3.62839,19.17196 -4.02752,27.92418 -0.19544,4.28565 0.14979,7.65304 0.13702,8.82748 -0.68844,0.44181 -1.26938,0.26027 -1.97523,0.26027 -1.8265,0 -7.4061,-3.95533 -8.98448,-6.36143 -1.82717,-2.78536 -2.81422,-7.78364 -2.31324,-11.79342 0.43253,-3.46183 0.56849,-3.63188 5.53526,-7.58001 6.30569,-5.01242 10.27464,-8.94392 9.95522,-9.8726 -0.1337,-0.38874 -2.2878,1.20918 -4.77107,3.55249 -5.68765,5.3671 -9.68671,8.54626 -9.68671,7.70393 0,-1.61065 4.88893,-11.99075 7.0017,-14.87086 2.2192,-3.02521 5.19997,-4.90203 7.62131,-4.895 z m 34.65738,8.15832 c 1.35029,-0.0437 2.58504,0.25942 2.72632,0.66093 0.14128,0.40152 -1.10006,2.48344 -2.74698,4.62649 -1.64691,2.14306 -4.61096,5.68811 -6.58862,7.86917 l -3.59379,3.96556 0.37177,-2.97417 c 1.01134,-7.9257 5.22431,-13.99899 9.8313,-14.14798 z m -134.16824,6.98105 c -0.0712,-0.002 -0.13613,0.0108 -0.20654,0.0206 -0.46946,0.0656 -0.90936,0.36354 -1.32186,0.90878 -0.77743,1.02762 -0.8772,3.25812 -0.59896,11.85538 0.35667,11.02064 1.55946,18.53831 3.1394,19.53866 1.34841,0.85376 1.76527,0.77715 3.98622,-0.86747 1.76819,-1.30934 3.05479,-1.54148 10.71942,-1.85885 7.70994,-0.31924 9.17603,-0.57128 12.82612,-2.23063 4.3495,-1.97731 6.47094,-3.67641 4.58518,-3.67641 -0.56832,0 -1.22503,0.2831 -1.44578,0.64027 -0.22074,0.35718 -2.84489,1.39814 -5.84507,2.31325 -4.23527,1.29183 -6.90631,1.67297 -11.91735,1.67297 -5.866,0 -6.64378,0.15055 -8.61271,1.65232 -2.9016,2.21316 -3.52749,2.09289 -4.29603,-0.82616 -2.57491,-9.77999 -2.8053,-25.75629 -0.39242,-27.53175 1.2809,-0.94252 1.27899,-0.97437 0.0619,-1.44578 -0.24307,-0.0942 -0.46814,-0.15953 -0.68158,-0.16523 z m -87.77941,9.8726 c 0.56998,0.004 0.82616,0.40971 0.82616,1.19793 0,0.69832 0.61587,3.85518 1.36317,7.0017 0.74729,3.14651 1.26777,6.69403 1.15662,7.88982 l -0.20654,2.16867 -4.29603,-2.27194 c -4.73876,-2.50623 -8.59734,-5.84672 -8.59205,-7.43543 0.005,-1.43266 2.45058,-4.14961 5.88638,-6.56797 1.88288,-1.3253 3.12946,-1.98807 3.86229,-1.98278 z m -63.15986,12.28912 c -0.40852,0.0633 -1.61716,1.24438 -2.91221,2.8709 -1.48006,1.85888 -3.41999,3.65315 -4.29603,3.98622 -0.87602,0.33306 -1.40235,0.91635 -1.17727,1.28054 0.54416,0.88048 0.81234,0.83846 2.8709,-0.39242 2.00787,-1.20057 6.15525,-6.84722 5.63853,-7.68328 -0.0237,-0.0383 -0.0656,-0.071 -0.12392,-0.0619 z M 394.3,680.73936 c -22.44964,0.0235 -45.57311,0.17752 -49.85871,0.45438 -2.54457,0.1644 -12.06192,0.62795 -21.14967,1.01205 -23.21384,0.98113 -52.64163,2.53296 -62.78809,3.32529 -4.72563,0.36902 -16.77103,1.26511 -26.76756,1.98278 -23.0266,1.65313 -45.80119,3.46696 -69.56259,5.55592 -10.26439,0.90239 -22.68633,1.97042 -27.59372,2.35456 -11.96208,0.93635 -14.5404,1.29593 -14.5404,2.06539 0,0.36035 0.95788,0.512 2.14802,0.33047 1.1814,-0.18021 4.37864,-0.50083 7.10497,-0.70224 16.8221,-1.2427 40.11442,-3.14148 48.90861,-3.98622 41.68668,-4.00421 124.49424,-9.08943 164.5709,-10.09979 25.10935,-0.633 88.97853,-0.63109 94.34737,0 3.35981,0.39494 4.13079,0.31079 4.13079,-0.45439 0,-0.60643 -1.11566,-1.12079 -3.1394,-1.46643 -1.58509,-0.27072 -23.36089,-0.39526 -45.81052,-0.37177 z M 94.383584,699.63775 c -0.378761,0.0174 -0.809541,0.067 -1.259893,0.12392 -1.726673,0.21825 -7.749372,0.8034 -13.383778,1.32186 -12.366175,1.13789 -15.201327,1.58307 -15.201327,2.35455 0,0.785 2.149387,0.74139 4.316681,-0.0826 0.963692,-0.36639 6.111784,-0.96292 11.442304,-1.32185 12.423316,-0.83653 15.965525,-1.29529 15.965525,-2.0654 0,-0.26754 -0.743232,-0.38285 -1.879512,-0.33046 z"
       id="path2996"
       inkscape:connector-curvature="0"
       sodipodi:nodetypes="sssssssscscsssscssssscccssssssscssscssssssccscscccccccssssssssssscssscccssscsssssssssscssssssssccccccsssscccsccscssccssscccssccccsccccsssssssscccsscscccsccccscssccsscccssccscsccsccccccssssssscssssssccssccccsccssssscsssssssssssssssccsssssscsssssscsssscssss" />
  </g>
</svg>
