<?xml version="1.0" encoding="UTF-8" standalone="no"?>
<!-- Created with Inkscape (http://www.inkscape.org/) -->

<svg
   xmlns:dc="http://purl.org/dc/elements/1.1/"
   xmlns:cc="http://creativecommons.org/ns#"
   xmlns:rdf="http://www.w3.org/1999/02/22-rdf-syntax-ns#"
   xmlns:svg="http://www.w3.org/2000/svg"
   xmlns="http://www.w3.org/2000/svg"
   xmlns:sodipodi="http://sodipodi.sourceforge.net/DTD/sodipodi-0.dtd"
   xmlns:inkscape="http://www.inkscape.org/namespaces/inkscape"
   width="301.66656"
   height="76.298912"
   id="svg3052"
   version="1.1"
   inkscape:version="0.48.1 "
   sodipodi:docname="Nouveau document 5">
  <defs
     id="defs3054" />
  <sodipodi:namedview
     id="base"
     pagecolor="#ffffff"
     bordercolor="#666666"
     borderopacity="1.0"
     inkscape:pageopacity="0.0"
     inkscape:pageshadow="2"
     inkscape:zoom="0.35"
     inkscape:cx="247.12749"
     inkscape:cy="-78.904347"
     inkscape:document-units="px"
     inkscape:current-layer="layer1"
     showgrid="false"
     fit-margin-top="0"
     fit-margin-left="0"
     fit-margin-right="0"
     fit-margin-bottom="0"
     inkscape:window-width="1920"
     inkscape:window-height="1138"
     inkscape:window-x="-8"
     inkscape:window-y="-8"
     inkscape:window-maximized="1" />
  <metadata
     id="metadata3057">
    <rdf:RDF>
      <cc:Work
         rdf:about="">
        <dc:format>image/svg+xml</dc:format>
        <dc:type
           rdf:resource="http://purl.org/dc/dcmitype/StillImage" />
        <dc:title></dc:title>
      </cc:Work>
    </rdf:RDF>
  </metadata>
  <g
     inkscape:label="Calque 1"
     inkscape:groupmode="layer"
     id="layer1"
     transform="translate(-127.87251,-377.15892)">
    <path
       style="fill:#000000"
       d="m 347.65842,377.17103 c -2.32533,0.31535 -4.78778,6.3813 -5.86585,14.94618 -0.94545,7.51129 -0.008,26.36608 1.61897,32.52027 1.70757,6.46179 6.91479,10.08812 15.34506,10.69931 8.93187,0.64755 18.19029,-3.10185 28.55496,-11.54399 l 4.10609,-3.35527 2.48712,2.11171 c 1.35645,1.15867 4.62625,3.3911 7.27365,4.97424 20.99043,12.55212 26.20862,16.60218 26.20862,20.29583 0,1.48216 -0.5139,2.2091 -1.924,2.74522 -2.4623,0.93618 -12.95553,0.93223 -22.03213,-0.0234 -3.88527,-0.4092 -7.2446,-0.56871 -7.46136,-0.35195 -1.05442,1.05442 1.7068,1.82341 8.89263,2.46366 4.33603,0.38634 10.41775,0.73994 13.51491,0.79776 10.20281,0.1904 13.62045,-3.38459 9.38536,-9.78424 -1.93184,-2.91921 -13.31644,-10.93912 -22.59525,-15.93165 -2.10119,-1.13056 -5.72728,-3.58023 -8.07141,-5.42004 l -4.27033,-3.3318 1.59551,-1.6659 c 4.03195,-4.24825 3.1784,-8.10631 -1.43127,-6.49937 -2.6206,0.91355 -3.6299,3.16072 -2.83907,6.31166 0.38305,1.52618 -0.0763,2.38067 -2.55751,4.62229 -14.43069,13.03725 -34.23887,15.76279 -40.94363,5.63121 -1.58295,-2.392 -1.99355,-4.44061 -3.02678,-15.34506 -0.92628,-9.77577 -1.00533,-14.02394 -0.39887,-18.98189 0.80687,-6.5964 2.92188,-12.54505 5.02116,-14.14843 0.22132,1.05878 -0.36898,1.80538 -0.68044,2.60444 -0.33143,1.26738 -0.19521,1.40717 0.68044,0.68044 1.0666,-1.1737 1.25168,-3.61442 0.37542,-4.78653 -0.32234,-0.19922 -0.62981,-0.27969 -0.962,-0.23464 z m -29.84544,12.31828 c -0.86084,0.0906 -0.65156,1.34368 0.962,2.83907 2.96314,2.74615 3.75295,7.03817 3.23794,17.6914 -0.30686,6.34757 -1.04381,11.57257 -2.27594,16.14282 -1.71668,6.36748 -2.22664,9.51579 -2.04132,12.57638 0.1294,2.13702 1.97617,1.49428 4.81,-1.64244 4.27301,-4.72971 4.92823,-6.83422 0.89161,-2.86253 -3.16602,3.11508 -4.88039,4.25247 -4.88039,3.26141 0,-0.16127 0.81249,-3.45553 1.80668,-7.32058 5.07815,-19.742 4.78601,-36.40796 -0.7039,-40.00509 -0.79563,-0.52132 -1.4154,-0.72165 -1.80668,-0.68044 z m -160.63041,4.92731 c -0.88138,0.0372 -1.65523,0.19656 -2.25249,0.5162 -3.0797,1.64821 -7.44994,8.86128 -12.81101,21.09359 -2.98629,6.81377 -5.68605,12.66273 -6.00663,12.99872 -0.32059,0.336 -0.83213,-1.5223 -1.12625,-4.12956 -0.94817,-8.40506 -4.9046,-18.2303 -6.64014,-16.49476 -0.58392,0.58392 -0.46574,1.20259 0.39888,2.15863 2.05023,2.26702 4.09977,9.75902 5.44351,19.92042 0.63114,4.77269 2.15454,4.62045 3.7776,-0.37541 3.75497,-11.55787 11.93435,-28.45582 15.36853,-31.74598 3.57802,-3.42796 8.74003,-2.616 13.58531,2.11171 2.15977,2.10736 9.69038,14.95992 9.69038,16.54169 0,0.21132 -1.09808,0.59978 -2.44019,0.86815 -5.03696,1.00718 -9.57307,2.80558 -9.57307,3.77761 0,1.0541 0.73451,1.25946 9.54961,2.65136 4.25707,0.67219 6.39425,1.49256 9.97193,3.89492 2.98274,2.00286 4.81995,2.80566 5.30273,2.32288 0.81375,-0.81375 -1.50473,-3.98878 -2.90946,-3.98878 -1.04619,0 -3.89211,-2.7444 -5.98316,-5.74853 l -1.64244,-2.34634 4.66921,-0.82122 c 17.13007,-3.01905 34.95424,-3.2657 33.88115,-0.46927 -0.65553,1.70827 1.10031,1.97561 1.99438,0.30503 1.51709,-2.83471 -0.0492,-3.29028 -11.89594,-3.54297 -9.92005,-0.2116 -21.78517,0.86904 -27.54602,2.51058 -1.26827,0.36138 -1.94306,-0.48109 -4.31726,-5.27927 -4.17175,-8.43095 -6.25085,-11.40927 -9.64346,-13.86686 -2.59962,-1.88316 -6.20155,-2.97405 -8.8457,-2.86254 z m 108.98747,0.91507 c -0.22868,0.0328 -0.43806,0.15856 -0.58658,0.39888 -0.26141,0.42294 -2.97914,2.63022 -6.05356,4.90385 -8.05146,5.95434 -17.7285,15.80908 -19.85003,20.22545 -1.13921,2.37147 -1.78322,5.08542 -1.78322,7.4379 0,3.10081 0.33395,4.44744 2.06478,5.93624 7.90686,4.30995 13.92999,-0.4163 20.36622,-3.75415 4.05549,-2.11553 8.24156,-4.94002 12.34175,-9.33843 2.19647,-2.35622 3.43968,-2.88985 9.66692,-4.2938 8.37165,-1.88742 7.64907,-1.84681 7.64907,-0.32849 0,0.68299 1.15,3.30151 2.55751,5.81892 1.40751,2.51743 2.8069,5.84239 3.09717,7.39097 0.63738,3.40037 1.8274,3.58652 3.61336,0.56313 1.29878,-2.19866 0.8348,-3.06383 -0.77429,-1.45473 -0.57385,0.57384 -0.94503,0.19562 -1.31395,-1.31395 -0.28493,-1.16587 -1.37621,-3.36347 -2.41673,-4.88039 -1.04052,-1.51692 -2.2867,-4.09272 -2.76868,-5.72507 -0.48198,-1.63236 -1.03709,-3.08501 -1.24356,-3.21449 -0.45033,-0.28236 -9.12631,1.40209 -12.57638,2.4402 -2.01915,0.60755 -3.07737,0.44749 -6.00663,-0.98546 -2.7747,-1.35735 -7.10968,-1.99832 -11.2859,-1.99439 -5.36941,0.005 -10.48133,1.06428 -11.70823,3.02677 -0.64364,1.02955 -0.48742,1.64776 0.79775,2.93293 1.41878,1.41877 2.39524,1.62363 7.57868,1.52512 3.26964,-0.0622 7.7414,-0.45403 9.92502,-0.86815 5.48074,-1.0394 5.56853,-1.02686 3.80107,1.2201 -7.14934,7.47631 -29.10646,20.50137 -31.91022,8.8457 -1.53012,-6.09646 7.27135,-17.34519 22.03213,-28.17954 3.34802,-2.45744 6.07702,-4.7605 6.07702,-5.13848 0,-0.67186 -0.53287,-1.14621 -1.05586,-1.19664 -0.0784,-0.008 -0.15841,-0.011 -0.23463,0 z m -138.08209,17.08136 c -0.15363,0.0565 -0.23562,0.43877 -0.21117,1.03239 0.036,0.87468 0.20612,1.06822 0.44581,0.46927 0.21689,-0.54201 0.1791,-1.20524 -0.0704,-1.45474 -0.0624,-0.0624 -0.11303,-0.0658 -0.16424,-0.0469 z m 266.02799,0 c 0.19081,-0.007 0.38039,0.0237 0.56312,0.0938 1.18283,0.4539 1.14632,0.67406 -0.32848,2.74522 -1.81631,2.55076 -3.00332,2.92349 -3.00332,0.91507 0,-1.89459 1.43303,-3.70929 2.76868,-3.75414 z m -133.38941,2.32287 c 0.56912,-0.0149 1.14084,-0.009 1.71283,0 3.81325,0.0589 7.54042,0.64839 8.89263,1.59551 1.30318,0.91279 1.20119,1.02712 -1.40781,1.4782 -5.37413,0.92916 -17.09641,1.3052 -18.1372,0.58658 -1.70838,-1.17956 -0.32357,-2.22848 4.19995,-3.16755 1.37319,-0.28508 3.03224,-0.4482 4.7396,-0.49274 z m -84.23358,4.29381 c 0.42451,0 1.49418,1.0133 2.39326,2.27594 1.75996,2.47161 1.76089,3.21657 -0.0234,2.22903 -0.61599,-0.34087 -3.32241,-0.83781 -6.00663,-1.12625 -2.68421,-0.28843 -4.98116,-0.64686 -5.11502,-0.77429 -0.27928,-0.26588 7.58519,-2.60443 8.75185,-2.60443 z"
       id="path2996"
       inkscape:connector-curvature="0"
       sodipodi:nodetypes="sscccsssccsssscccssssssccccsssssssssssssssssssssssssssssscccsssssssccsssccsssssssssscsscssssccssccsssssccsssccscsccsscscsssssss" />
  </g>
</svg>
