<?xml version="1.0" encoding="UTF-8"?>
<svg version="1.0" xmlns="http://www.w3.org/2000/svg" width="236px" height="75px">
<path fill="none" stroke="#231F20" d="
M20.75,29c0,0,16.25-17,4.5-16.5s-33,47.5-20,33.5s13.5-26.5,22.25-28.25 s-17,13.5-14.75,24.5S28.25,38.5,38.5,22S22.25,32.75,24,45s20.75-15.75,27-25.75s-2.5-14-26,48.25c0,0,13.875-36.25,19.75-36.125 s-5.5,12.125-4.5,6.125c0,0,1.375,18.625,18.75-6.625s6.5-26.5-1.75-4.5S46.875,53,60,35.625c0,0-6.125,6.625,0,7.25 s6.5-3.25,6.5-3.25s-4.75,5.125-1.625,7.75s4.875-6,2.75-7.125c0,0,1.5-3.875,5.75-3.375s2,7,0,9.625s1,3.375,5.75-3.625 s7.25-8.125,3.625,0.75s3.75,2.875,6.5-0.25s7.125-8.375,3.25-1s5.125,6,9.75,3.125s6.625-9.5,4.25-9.5s-14.625,17.125,9.125,13.5
M164.667,16.333c0,0-7.668,3-8.334,8.333S166.333,34,167,13.333s-20.333,3.667-27,26 S130.333,71,149.333,59s23.334-2,16.334,0.333
M134.333,57.333c0,0-2.666-2.667,7.334-7S168,34.667,168,34.667S152.666,46,155.333,50.333 S164.667,39,164.667,39s-4.666,21,19-2.667s11.999-42,0.666-10.667s-21.666,45.333-16.666,44S178.625,42.625,186.375,38 S181.5,58.625,179.5,51.125c0,0,8.75-0.125,6-10.125c0,0,3.625,8.375,11.875,5.875c0,0,2.625-9.5,6.625-9.125 c0,0-10,8.625-5.375,12.875S207.375,39.5,205,38.25c0,0,0.125,6.75-5.625,7.5c0,0,13.625-14.625,8.25,2.75 c0,0,9.375-10.5,8.25-6.25s10.5,4.875,17-2.875s-4.375-7-8.875,2.375s5.375,14.75,5.375,14.75" />
</svg>