<?xml version="1.0" encoding="UTF-8" standalone="no"?>
<svg
	xmlns="http://www.w3.org/2000/svg"
	version="1.1"
	width="912"
	height="186">
<path
	fill="#000"
	d="m 505.041,77.199 c 1.225,0.079 2.461,0.09 3.686,0.03 2.034,-0.099 5.084,-0.442 6.475,-2.13 0.836,-1.015 -0.721,-1.205 -1.428,-1.168 -1.206,0.062 -3.043,0.446 -3.863,1.442 -0.367,0.446 1.129,-0.634 1.48,-0.732 0.844,-0.234 0.173,-0.051 -0.029,-0.023 0.681,-0.093 -0.094,-0.005 -0.199,0.001 -0.312,0.02 -0.624,0.025 -0.937,0.03 -0.065,0.001 -0.813,-0.004 -0.233,0.005 -0.233,-0.003 -0.467,-0.012 -0.699,-0.021 -0.186,-0.007 -0.37,-0.016 -0.555,-0.028 -1.38,-0.089 -2.959,0.299 -4.098,1.098 -0.912,0.64 -0.75,1.422 0.4,1.496 l 0,0 z M 390.588,178.303 c 11.537,-14.254 29.632,-21.586 44.664,-31.286 21.054,-13.586 39.996,-30.407 59.297,-46.297 0.95,-0.783 0.616,-1.84 -0.554,-2.066 -7.088,-1.367 -13.029,11.78 -15.568,15.962 -4.499,7.411 -9.771,15.458 -12.02,23.938 -1.179,4.444 1.46,6.259 5.631,5.903 4.417,-0.378 8.725,-3.114 12.489,-5.222 6.101,-3.414 12.06,-7.082 18.1,-10.602 12.73,-7.419 27.229,-16.813 42.203,-18.45 0.262,-1.077 0.523,-2.154 0.785,-3.23 -7.405,1.225 -30.719,6.127 -26.66,17.826 1.661,4.785 9.074,4.136 12.894,3.637 10.928,-1.428 21.559,-6.508 31.358,-11.241 18.454,-8.912 35.389,-21 51.354,-33.764 7.688,-6.147 15.148,-12.633 22.011,-19.698 4.314,-4.442 8.893,-9.322 11.264,-15.136 1.071,-2.628 0.743,-5.914 -1.883,-7.546 -3.581,-2.226 -7.987,0.345 -10.759,2.696 -5.886,4.996 -10.205,12.257 -14.639,18.472 -5.807,8.137 -11.988,15.981 -17.853,24.072 -9.594,13.238 -18.334,27.079 -27.437,40.652 -3.4,5.069 -6.821,10.151 -10.611,14.939 -0.831,1.05 -5.028,4.164 -4.965,5.595 0.068,1.531 3.395,0.665 4.046,0.426 3.704,-1.359 7.255,-4.112 10.647,-6.074 7.079,-4.095 14.184,-8.147 21.358,-12.072 5.856,-3.204 11.796,-6.619 18.085,-8.916 1.935,-0.707 -0.122,-1.55 -0.678,-0.826 -0.71,0.926 -1.694,1.71 -2.53,2.518 -2.512,2.427 -4.972,4.948 -6.864,7.9 -2.601,4.059 -2.64,9.879 2.836,11.088 5.266,1.162 11.381,-1.142 16.25,-2.869 13.69,-4.855 28.274,-12.739 38.6,-23.091 2.365,-2.373 6.468,-6.828 4.322,-10.466 -3.086,-5.231 -10.297,-2.579 -13.999,0.393 -4.581,3.677 -21.571,25.308 -8.808,27.945 5.74,1.187 12.371,-0.82 17.824,-2.405 10.112,-2.938 19.819,-7.278 29.22,-11.977 23.879,-11.935 48.266,-27.211 66.623,-46.812 3.865,-4.127 17.082,-18.442 10.591,-25.092 -4.438,-4.544 -13.736,3.083 -16.994,5.918 -5.44,4.735 -10.041,10.51 -14.52,16.127 -8.664,10.863 -16.744,22.222 -24.609,33.671 -7.64,11.123 -14.453,22.549 -20.854,34.401 -4.225,7.824 11.644,2.205 14.445,1.233 19.089,-6.619 37.246,-16.368 54.342,-27.039 1.522,-0.951 1.303,-2.599 -0.676,-2.523 -8.124,0.311 -12.62,7.804 -16.146,14.137 -2.221,3.986 -4.51,7.944 -7.339,11.535 -0.625,0.792 -2.886,3.679 -3.927,3.306 -2.713,-0.972 -3.947,-5.055 -4.815,-7.433 -0.673,-1.843 -5.763,-0.687 -5.796,1.137 -0.04,2.258 2.254,3.613 4.092,4.364 7.993,3.267 18.76,1.551 26.892,0.03 10.582,-1.98 20.758,-5.884 30.691,-9.938 4.668,-1.906 9.293,-3.917 13.965,-5.815 2.471,-1.003 5.722,-2.807 8.467,-2.681 0.506,-1.089 1.012,-2.179 1.518,-3.269 -7.678,1.005 -15.02,4.431 -21.133,9.079 -2.468,1.876 -16.773,16.763 -7.403,18.614 5.644,1.115 13.003,-0.844 18.025,-3.351 7.454,-3.721 9.129,-10.436 5.683,-17.836 -1.862,0.638 -3.725,1.275 -5.588,1.914 2.787,4.618 9.549,3.319 13.856,2.47 6.396,-1.26 12.761,-2.908 19.237,-3.703 1.499,-0.184 0.411,-2.189 -0.542,-1.273 -0.703,0.676 -1.359,1.403 -2.022,2.118 -1.953,2.103 -3.847,4.262 -5.728,6.43 -1.618,1.865 -8.499,7.899 -7.854,10.776 0.111,0.495 0.702,0.711 1.126,0.806 2.239,0.501 4.163,-0.979 6.004,-1.99 3.538,-1.944 7.152,-3.755 10.747,-5.592 5.54,-2.831 12.364,-5.181 17.289,-9.038 0.527,-0.413 0.782,-1.054 0.364,-1.621 -0.003,-0.004 -0.007,-0.009 -0.01,-0.014 -0.599,-0.812 -2.3,-0.531 -3.082,-0.324 -5.068,1.345 -8.851,10.269 -5.04,14.439 2.225,2.436 6.809,2.425 9.786,2.389 19.09,-0.23 38.786,-8.942 56.038,-16.141 3.735,-1.559 0.317,-3.495 -2.295,-2.404 -14.879,6.208 -30.427,12.484 -46.492,14.789 -3.217,0.461 -6.644,0.797 -9.84,0.028 -0.76,-0.183 -1.452,-0.534 -1.979,-1.111 -0.17,-0.187 -0.233,-0.374 -0.31,-0.613 -0.394,-1.452 -0.45,-2.927 -0.172,-4.423 0.065,-0.579 1.382,-4.107 1.087,-4.029 -1.027,-0.108 -2.055,-0.216 -3.082,-0.324 0.004,0.005 0.007,0.009 0.011,0.014 0.121,-0.541 0.243,-1.081 0.364,-1.621 0.711,-0.556 -1.429,0.699 -1.809,0.897 -1.888,0.987 -3.787,1.95 -5.686,2.917 -4.668,2.377 -9.342,4.745 -13.997,7.149 -1.655,0.855 -3.307,1.719 -4.949,2.6 -0.628,0.337 -1.252,0.683 -1.871,1.037 -2.115,1.208 2.873,2.109 3.703,0.681 2.087,-3.588 5.281,-6.762 7.986,-9.878 2.26,-2.603 4.67,-5.05 6.991,-7.588 2.532,-2.769 -3.315,-2.392 -4.602,-2.234 -4.84,0.593 -9.644,1.753 -14.411,2.747 -3.786,0.79 -10.905,3.559 -13.438,-0.638 -0.922,-1.527 -6.389,0.195 -5.588,1.914 2.091,4.492 3.216,10.027 -1.401,13.354 -3.233,2.331 -7.672,2.861 -11.535,3.183 -3.507,0.292 -1.623,-4.006 -0.786,-5.634 2.169,-4.221 6.054,-7.732 9.905,-10.389 3.924,-2.708 8.896,-4.719 13.655,-5.342 1.936,-0.253 5.208,-3.1 1.518,-3.269 -5.457,-0.25 -11.271,2.848 -16.155,4.874 -9.234,3.832 -18.397,7.824 -27.935,10.864 -9.658,3.079 -20.493,5.337 -30.649,3.862 -1.773,-0.257 -3.759,-0.723 -5.111,-1.975 -0.438,-0.405 -0.698,-1.59 -0.709,-0.999 -1.932,0.379 -3.864,0.758 -5.796,1.137 1.404,3.847 3.552,9.032 8.353,9.268 4.008,0.196 7.364,-1.979 10.033,-4.775 3.474,-3.639 5.988,-8.164 8.44,-12.517 1.038,-1.844 2.042,-3.707 3.129,-5.523 1.055,-1.764 2.333,-3.331 3.825,-4.74 0.333,-0.314 3.204,-1.55 1.992,-1.503 -0.225,-0.841 -0.45,-1.682 -0.676,-2.523 -12.602,7.866 -25.675,14.933 -39.269,20.934 -4.571,2.018 -9.221,3.905 -13.957,5.5 -2.083,0.702 -5.485,2.273 -7.673,1.995 0.756,0.096 0.184,0.904 0.82,-0.221 0.318,-0.562 0.618,-1.134 0.918,-1.706 0.912,-1.738 1.808,-3.484 2.737,-5.212 3.455,-6.428 7.313,-12.632 11.289,-18.748 7.493,-11.528 15.516,-22.729 23.74,-33.743 5.651,-7.568 11.436,-15.186 18.102,-21.903 2.583,-2.603 5.678,-5.226 8.776,-6.784 0.558,-0.281 1.121,-0.557 1.693,-0.807 -0.502,0.22 -1.17,0.153 -1.088,0.187 0.822,0.338 1.13,1.578 1.25,2.488 0.63,4.759 -3.242,10.041 -5.831,13.602 -6.757,9.295 -16.026,16.812 -25.09,23.73 -21.11,16.113 -45.368,30.823 -70.866,38.779 -3.449,1.076 -12.376,4.625 -15.858,1.958 -4.254,-3.257 4.16,-15.219 6.098,-17.862 1.079,-1.473 4.826,-6.773 7.07,-6.476 2.386,0.316 2.469,3.287 1.713,4.893 -2.567,5.455 -8.999,9.5 -13.796,12.73 -6.002,4.041 -12.399,7.519 -18.991,10.491 -4.838,2.181 -10.445,4.748 -15.851,4.889 -6.439,0.169 -2.343,-7.96 -0.252,-10.571 0.975,-1.216 9.625,-8.098 7.845,-9.967 -2.313,-2.427 -8.882,1.064 -11.216,2.117 -6.251,2.82 -12.28,6.172 -18.281,9.48 -6.268,3.456 -12.478,7.016 -18.674,10.598 -2.219,1.282 -4.434,2.57 -6.652,3.855 -0.752,0.436 -1.505,0.87 -2.261,1.301 -0.359,0.205 -1.372,0.599 -0.429,0.253 1.349,0.142 2.697,0.283 4.046,0.426 0.048,1.089 -1.689,2.228 0.347,0.616 0.769,-0.608 1.439,-1.305 2.1,-2.027 2.322,-2.543 4.344,-5.354 6.346,-8.151 6.08,-8.491 11.717,-17.304 17.48,-26.01 6.252,-9.444 12.541,-18.877 19.309,-27.964 8.002,-10.746 15.674,-21.823 23.952,-32.354 1.485,-1.889 3.063,-3.688 4.827,-5.319 1.455,-1.347 1.41,-1.398 2.479,0.65 0.904,1.732 -0.243,4.04 -1.049,5.57 -3.467,6.584 -9.383,12.048 -14.701,17.108 -15.309,14.567 -32.625,27.4 -50.608,38.461 -8.354,5.138 -17.117,9.516 -26.154,13.324 -6.424,2.708 -15.588,7.061 -22.8,5.307 -1.565,-0.381 -2.35,-1.682 -2.573,-3.169 -0.5,-3.328 2.739,-5.55 5.215,-6.972 4.493,-2.58 10.085,-3.949 15.176,-4.791 2.727,-0.451 4.865,-3.676 0.785,-3.23 -10.881,1.189 -21.14,6.249 -30.754,11.175 -11.054,5.665 -21.583,12.269 -32.34,18.461 -2.947,1.697 -6.277,4.041 -9.697,4.637 -2.878,0.501 3.594,-13.366 3.88,-13.918 3.701,-7.123 7.806,-14.135 12.374,-20.737 1.105,-1.597 2.271,-3.194 3.628,-4.588 1.608,-1.651 -0.278,0.215 -2.256,-0.166 -0.185,-0.688 -0.369,-1.377 -0.554,-2.066 -19.603,16.139 -38.829,33.158 -60.29,46.837 -15.167,9.668 -32.814,17.244 -44.417,31.579 -1.629,2.014 4.218,1.594 5.402,0.131 l 0,0 z M 338.532,34.8 c 3.619,-1.331 7.263,-2.595 10.93,-3.787 1.177,-0.383 2.361,-0.737 3.552,-1.074 0.429,-0.119 0.86,-0.232 1.292,-0.342 1.591,-0.364 -0.446,0.237 -0.302,-0.281 -0.251,0.902 -1.201,1.811 -1.759,2.523 -8.523,10.892 -17.231,21.527 -25.085,32.938 -11.869,17.245 -22.458,35.446 -33.473,53.244 -4.197,6.782 -8.388,13.567 -12.506,20.396 -1.622,2.689 -4.268,5.886 -5.067,8.986 -0.241,0.935 1.883,0.511 2.287,0.44 2.189,-0.383 3.279,-1.197 4.42,-2.951 2.461,-3.781 5.003,-7.496 7.732,-11.092 4.528,-5.966 9.948,-10.774 15.355,-15.857 9.851,-9.259 19.325,-18.932 28.874,-28.5 11.709,-11.733 23.382,-23.505 35.165,-35.166 4.409,-4.363 8.832,-8.714 13.334,-12.981 1.417,-1.343 2.846,-2.674 4.305,-3.971 0.496,-0.441 1,-0.873 1.512,-1.295 2.474,-2.04 -2.473,2.592 -3.893,0.083 0.416,0.733 -4.592,6.893 -5.198,7.751 -4.026,5.708 -8.118,11.371 -12.176,17.056 -9.934,13.913 -19.863,27.869 -28.942,42.361 -1.365,2.178 -14.416,21.177 -8.697,22.905 3.821,1.155 8.814,-1.63 12.029,-3.376 6.541,-3.553 12.541,-8.239 18.4,-12.792 16.215,-12.602 31.566,-26.425 46.303,-40.716 7.751,-7.517 15.151,-15.386 22.439,-23.35 4.976,-5.437 10.817,-11.187 13.771,-18.067 0.966,-2.251 2.086,-8.151 -0.917,-9.469 -3.806,-1.67 -9.063,2.142 -11.713,4.46 -6.445,5.642 -11.461,13.134 -16.083,20.258 -7.35,11.33 -13.428,23.481 -18.667,35.913 -7.355,17.455 -14.671,37.708 -10.795,56.909 1.361,6.744 4.47,12.961 8.154,18.714 3.049,4.762 6.215,10.059 12.235,11.011 19.099,3.021 43.871,-33.975 17.933,-38.186 -1.314,-0.213 -6.239,1.912 -4.789,2.147 17.435,2.83 8.785,22.015 0.177,29.792 -5.727,5.175 -11.446,5.237 -16.192,-1.175 -4.941,-6.677 -9.108,-13.875 -11.272,-21.942 -6.187,-23.06 5.687,-49.308 15.312,-69.67 5.292,-11.195 11.489,-22.025 18.719,-32.085 2.532,-3.524 5.254,-6.931 8.256,-10.067 1.029,-1.076 2.125,-2.084 3.267,-3.039 0.468,-0.392 0.959,-0.752 1.47,-1.086 1.69,-1.106 -1.223,0.083 -1.25,0.07 3.521,1.546 0.16,9.356 -0.933,11.261 -4.943,8.613 -12.831,15.862 -19.561,23.027 -13.95,14.854 -28.86,28.75 -44.309,42.032 -7.375,6.34 -14.903,12.519 -22.721,18.308 -2.977,2.205 -6.02,4.318 -9.169,6.269 -1.167,0.723 -2.36,1.418 -3.586,2.037 -0.338,0.17 -2.45,0.775 -1.444,0.761 -2.308,0.032 1.146,-7.409 1.401,-7.955 2.795,-5.962 6.39,-11.577 9.923,-17.118 9.218,-14.457 19.227,-28.411 29.196,-42.354 1.004,-1.405 15.831,-21.965 15.045,-22.368 -5.189,-2.663 -14.775,9.398 -17.479,12.02 -11.113,10.771 -22.003,21.773 -32.929,32.734 -11.776,11.814 -23.497,23.691 -35.468,35.308 -3.738,3.627 -7.691,7.007 -11.457,10.595 -7.001,6.67 -11.253,15.114 -17.342,22.4 1.139,-0.504 2.277,-1.008 3.415,-1.513 -0.01,0.002 -0.021,0.004 -0.032,0.006 0.762,0.146 1.524,0.293 2.287,0.44 0.877,-3.401 3.817,-6.914 5.596,-9.864 4.783,-7.933 9.673,-15.802 14.551,-23.676 12.188,-19.674 23.915,-39.746 37.541,-58.472 4.596,-6.316 9.431,-12.453 14.36,-18.512 1.318,-1.62 5.942,-5.587 5.922,-7.925 -0.02,-2.267 -21.235,5.065 -23.208,5.791 -3.891,1.431 -0.176,1.911 1.954,1.128 l 0,0 z M 210.313,149.42 c 0.088,-0.13 0.191,-0.249 0.294,-0.367 0.099,-0.114 0.206,-0.222 0.312,-0.328 -0.542,0.545 0.15,-0.101 0.277,-0.197 0.056,-0.042 0.729,-0.461 0.229,-0.173 0.099,-0.057 1.045,-0.477 0.65,-0.337 0.789,-0.279 1.374,-0.316 2.221,-0.333 1.268,-0.025 3.024,-0.942 3.194,-2.338 0.183,-1.501 -1.545,-1.915 -2.676,-1.893 -3.29,0.065 -7.389,1.395 -9.35,4.265 -2.083,3.049 3.352,3.891 4.849,1.701 l 0,0 z M 18.071,133.574 c -4.421,4.485 -9.876,11.768 -8.932,18.451 0.83,5.872 5.386,6.361 10.488,5.705 7.906,-1.018 15.612,-4.13 22.964,-7.057 10.934,-4.352 21.558,-9.494 32.012,-14.884 36.597,-18.869 69.032,-43.494 100.925,-69.328 14.586,-11.816 28.997,-23.875 42.938,-36.45 4.647,-4.191 9.261,-8.444 13.583,-12.973 1.86,-1.948 4.744,-4.502 5.185,-7.323 0.565,-3.605 -3.885,-3.308 -6.028,-2.176 -4.21,2.222 -7.69,6.195 -10.988,9.528 -17.17,17.357 -32.83,36.281 -48.749,54.765 -19.543,22.692 -40.165,44.72 -58.557,68.373 -1.755,2.259 -3.529,4.568 -4.941,7.063 -0.195,0.345 -0.364,0.703 -0.517,1.068 -0.95,2.274 4.347,1.119 3.405,-0.755 -1.401,-2.789 -1.933,-6.155 -2.56,-9.177 -1.745,-8.402 -2.483,-16.979 -2.88,-25.535 -0.052,-1.115 0.268,-4.356 -1.087,-5.027 -1.702,-0.842 -3.981,-0.309 -5.004,1.341 -1.122,1.807 0.646,6.134 1.225,7.832 1.639,4.795 4.586,9.025 8.738,11.958 5.726,4.043 13.467,4.28 20.092,2.916 9.261,-1.907 18.443,-5.44 27.294,-8.732 17.944,-6.674 34.143,-16.505 49.596,-27.71 21.783,-15.794 43.467,-32.835 61.063,-53.318 1.531,-1.782 19.934,-23.759 9.848,-24.133 -4.681,-0.174 -8.935,3.961 -12.174,6.819 -6.31,5.568 -12.108,11.713 -17.814,17.888 -15.567,16.845 -30.231,34.602 -44.063,52.894 -12.397,16.396 -22.194,34.684 -34.792,50.872 -0.497,0.639 -1.024,1.25 -1.585,1.832 -0.567,0.589 3.199,0.827 3.017,0.313 -0.523,-1.481 -0.124,-3.506 -0.065,-5.024 0.299,-7.843 0.749,-15.678 0.903,-23.527 0.134,-6.81 0.523,-14.227 -1.183,-20.889 -0.303,-1.181 -0.967,-3.034 -2.093,-3.708 -1.616,-0.967 -4.932,-0.157 -5.232,1.976 -0.48,3.417 4.751,8.346 6.946,10.182 6.383,5.338 13.927,6.434 22.006,5.713 23.41,-2.087 46.208,-12.521 67.917,-20.831 3.729,-1.427 0.405,-4.318 -2.51,-3.202 -19.28,7.379 -38.796,15.682 -59.238,19.25 -7.853,1.371 -15.477,1.797 -22.244,-3.012 -2.02,-1.435 -7.271,-6.83 -7.009,-8.688 -0.558,0.617 -1.116,1.234 -1.673,1.852 0.015,-0.007 0.029,-0.015 0.044,-0.022 -1.168,0.005 -2.335,0.01 -3.503,0.016 -0.431,-0.258 0.439,0.969 0.628,1.483 0.469,1.279 0.632,2.688 0.813,4.029 0.62,4.608 0.543,9.332 0.509,13.971 -0.066,8.888 -0.626,17.76 -0.965,26.638 -0.125,3.269 -0.612,8.285 4.336,7.154 4.28,-0.979 7.212,-6.905 9.431,-10.155 12.784,-18.727 24.719,-37.716 38.762,-55.565 13.715,-17.432 28.104,-34.475 43.583,-50.374 4.628,-4.754 9.417,-9.926 15.091,-13.458 1.627,-1.013 -0.552,-0.65 -0.578,-0.34 -0.168,2.084 -1.579,4.187 -2.6,5.935 -4.606,7.883 -11.044,14.807 -17.333,21.354 -10.409,10.837 -21.981,20.404 -33.755,29.704 -17.234,13.612 -35,26.966 -55.067,36.138 -8.28,3.784 -16.893,6.761 -25.554,9.538 -8.037,2.577 -17.11,6.108 -25.17,1.725 -4.082,-2.22 -6.815,-6.277 -8.442,-10.522 -0.588,-1.536 -1.008,-3.138 -1.314,-4.752 -0.188,-0.99 0.049,-2.144 -0.372,-1.465 -1.668,0.447 -3.336,0.894 -5.004,1.341 -0.836,-0.414 -0.625,-1.172 -0.465,-0.014 0.104,0.764 0.152,1.539 0.194,2.309 0.346,6.386 0.779,12.715 1.658,19.057 0.519,3.741 1.438,21.283 8.549,19.375 3.177,-0.853 5.2,-6.415 7.106,-8.942 4.793,-6.353 10.029,-12.385 15.198,-18.432 17.989,-21.041 36.245,-41.857 54.337,-62.81 13.853,-16.043 27.522,-32.71 42.975,-47.271 1.396,-1.316 2.844,-2.601 4.446,-3.665 0.749,-0.497 -1.455,0.531 -2.3,-0.486 -0.275,-0.331 -0.158,0.169 -0.175,0.21 -1.269,3.103 -4.825,5.856 -7.13,8.144 -11.741,11.646 -24.522,22.297 -37.206,32.888 -30.417,25.4 -61.599,50.924 -95.991,70.806 -19.024,10.998 -39.018,21.452 -59.87,28.545 -3.389,1.152 -11.614,4.863 -15.208,2.827 -3.312,-1.877 0.506,-9.578 1.646,-11.613 1.399,-2.498 3.27,-4.836 5.28,-6.877 2.527,-2.57 -3.097,-3.296 -4.811,-1.556 l 0,0 z" />
</svg>