<?xml version="1.0" encoding="UTF-8"?>
<svg version="1.1" xmlns="http://www.w3.org/2000/svg" width="382" height="93" >
<path d="M34.016,25.387c4.345-3.09,9.933-6.352,13.025-10.774c1.621-2.318-5.324-0.043-5.854,0.255 c-8.973,5.047-16.986,13.506-24.094,20.788c-4.003,4.102-7.769,8.451-11.245,13.007c-2.134,2.797-5.49,6.751-5.83,10.44 c-0.371,4.031,4.917,1.63,6.793,0.774c6.609-3.011,12.712-7.369,18.75-11.355c17.481-11.545,34.473-23.87,52.578-34.441 c6.283-3.668,12.618-7.31,19.205-10.412c2.348-1.106,6.443-3.549,9.102-2.152c4.566,2.398-7.613,13.09-8.878,14.345 C86.404,26.931,74.57,37.539,62.338,47.417c-3.7,2.988-7.509,5.882-11.615,8.292c-1.404,0.825-2.894,1.589-4.456,2.066 c-3.429,1.047-1.207-2.279-0.465-3.192c0.137-0.168-2.318-0.125-2.853,0.532c-4.188,5.148,2.583,3.96,5.702,2.729 c5.667-2.239,10.655-6.227,15.39-9.962c10.453-8.246,20.291-17.335,30.014-26.416c5.35-4.996,12.016-10.33,15.628-16.859 c1.279-2.312,0.38-4.385-2.356-4.58C102.396-0.322,97.155,2.604,92.917,4.7C73.569,14.27,55.722,26.632,37.9,38.716 c-9.045,6.133-18.05,12.387-27.448,17.975c-1.278,0.76-6.914,4.887-7.553,2.63c-1.107-3.905,5.458-10.781,7.523-13.413 c8.899-11.335,20.28-22.868,32.469-30.71c0.88-0.566,1.896-1.271,1.298-0.052c-0.844,1.722-3.215,3.198-4.658,4.374 c-2.627,2.143-5.365,4.163-8.127,6.127C30.831,26.053,33.471,25.774,34.016,25.387L34.016,25.387z"/>
<path d="M59.965,26.205c-4.68,3.486-6.434,11.842,0.68,13.555c7.314,1.761,17.046-4.392,22.643-8.432 c1.595-1.152-0.865-1.647-1.823-0.956c-4.372,3.156-9.285,5.758-14.472,7.263c-3.804,1.103-6.881,0.618-8.236-3.416 c-0.858-2.556,1.055-5.586,3.031-7.058C63.365,25.986,60.916,25.497,59.965,26.205L59.965,26.205z"/>
<path d="M75.939,45.575c2.965-1.248,5.658-3.867,8.136-5.82c13.945-10.991,27.199-22.896,40.457-34.694 c-0.77-0.141-1.54-0.281-2.31-0.422c-8.088,7.211-16.11,14.498-24.078,21.843c-5.816,5.362-11.601,10.762-17.261,16.289 c-3.197,3.122-6.938,6.316-9.408,10.086c-1.134,1.73,0.79,2.061,2.17,1.828c2.886-0.485,5.629-2.155,8.131-3.575 c14.691-8.337,28.164-19.165,41.44-29.521c7.513-5.86,14.934-11.837,22.315-17.86c1.073-0.876-0.783-1.047-1.339-0.897 c-1.243,0.336-2.345,1.237-3.363,1.975c-4.816,3.494-9.17,7.687-13.503,11.744c-8.342,7.811-16.37,15.945-24.755,23.713 c-3.83,3.548-8.115,6.923-11.396,11.015c-0.818,1.02-2.265,4.117,0.071,4.51c3.959,0.666,8.258-3.551,10.988-5.808 c3.363-2.781,9.412-7.1,10.998-11.409c0.582-1.582-0.359-2.506-1.937-2.297c-3.027,0.403-5.265,3.24-7.096,5.398 c-0.798,0.94,2.109,0.705,2.688,0.022c-1.625,1.915,3.758-4.594,3.544-2.986c-0.072,0.541-0.705,1.157-1.019,1.562 c-1.273,1.644-2.786,3.11-4.265,4.564c-3.393,3.335-7.088,6.72-11.25,9.067c-2.21,1.246,0.071-2.743,0.515-3.267 c2.587-3.049,5.805-5.652,8.737-8.353c10.807-9.952,21.04-20.51,31.955-30.341c2.591-2.333,5.23-4.637,8.034-6.713 c0.538-0.398,2.322-1.267,1.422-1.023c-0.446-0.299-0.893-0.598-1.339-0.897c-17.499,14.28-35.172,28.549-53.929,41.165 c-4.058,2.729-8.204,5.478-12.612,7.618c-0.852,0.414-1.961,0.955-2.794,1.095c0.014-0.002,0.068-0.026,0.58-0.752 c2.885-4.09,6.973-7.549,10.547-11.011c5.551-5.378,11.221-10.634,16.907-15.869c7.482-6.889,15.019-13.722,22.611-20.491 c1.239-1.105-1.642-1.016-2.31-0.422C109.253,16.18,96.263,27.755,82.696,38.596c-2.165,1.729-4.345,3.46-6.626,5.035 c-0.323,0.223-1.797,1.055-1.255,0.827C72.944,45.245,74.666,46.111,75.939,45.575L75.939,45.575z"/>
<path d="M114.497,51.318c4.018-2.525,9.047-5.087,12.105-8.783c0.84-1.015,0.165-2.087-1.107-2.019 c-2.979,0.16-5.983,2.989-8.167,4.709c-1.746,1.375-12.275,11.079-4.089,10.405c3.78-0.311,6.767-2.01,9.985-3.863 c2.337-1.346,4.769-2.543,7.235-3.631c2.128-0.938-0.745-1.565-1.632,0.23c-0.664,1.347-2.995,4.408-1.805,5.958 c0.927,1.208,2.991,0.273,3.99-0.23c7.228-3.644,13.766-9.662,19.69-15.073c3.847-3.514,6.989-7.713,10.943-11.107 c0.909-0.78,0.746-1.51,0.016,0.286c-0.62,1.522-1.684,2.937-2.638,4.242c-1.477,2.019-3.171,3.871-4.668,5.876 c-1.425,1.908-1.903,3.995-3.571,5.821c-4.091,4.479-9.896,7.37-15.375,9.721c-1.83,0.786-0.199,2.278,1.268,1.648 c5.071-2.176,9.87-4.786,14.132-8.315c1.879-1.555,4.511-3.802,5.121-6.305c0.371-1.52,13.07-15.73,7.634-16.066 c-2.641-0.163-5.223,3.019-6.871,4.641c-4.412,4.341-8.362,8.863-13.124,12.873c-3.902,3.286-7.979,6.415-12.263,9.188 c-2.614,1.692-1.654,0.942-0.543-1.103c0.733-1.35,1.246-2.188,2.38-3.22c0.34-0.309,0.379-1-0.085-1.226 c-2.484-1.206-6.457,1.695-8.512,2.745c-2.328,1.189-4.508,2.671-6.865,3.792c0.618-0.294-6.134,2.28-3.932-0.756 c1.191-1.642,2.925-3.074,4.434-4.39c1.94-1.691,4.056-3.278,6.313-4.52c-0.191-0.268-0.381-0.536-0.572-0.804 c-0.358,0.368-0.74,0.709-1.146,1.023c-0.9,0.745-1.864,1.416-2.814,2.094c-2.4,1.712-4.88,3.321-7.375,4.89 C110.926,51.094,113.339,52.045,114.497,51.318L114.497,51.318z"/>
<path d="M142.528,38.616c4.662,1.306,9.811,1.397,14.603,1.567c17.118,0.607,34.331-1.219,51.267-3.499 c1.552-0.209,2.269-2.267,0.289-2c-16.71,2.249-33.639,4.007-50.524,3.501c-4.545-0.136-9.516-0.194-13.939-1.433 C143.057,36.424,140.794,38.13,142.528,38.616L142.528,38.616z"/>
<path d="M205.063,39.712c8.803-2.044,17.365-5.45,25.036-10.222c3.754-2.334,10.604-6.039,10.315-11.31 c-0.594-10.813-31.348,13.085-32.29,13.788c-6.94,5.175-13.471,11.271-20.784,15.916c-1.663,1.056-7.66,3.448-7.465,6.27 c0.171,2.462,3.421,1.263,4.929,0.768c1.569-0.516,3.094-1.17,4.634-1.766c1.479-0.572,0.884-0.981,0.02-0.208 c-1.78,1.593-3.701,3.041-5.572,4.524c-5.956,4.72-11.914,9.437-17.678,14.393c-3.056,2.627-23.92,19.802-9.993,20.457 c7.469,0.352,15.615-3.903,22.123-7.028c4.29-2.061,10.77-4.312,14.051-7.927c0.82-0.904-2.086-0.696-2.689-0.031 c-1.039,1.145-3.737,2.221-5.22,3.046c-3.938,2.192-7.983,4.188-12.106,6.007c-2.012,0.888-19.691,8.01-18.255,1.684 c1.225-5.393,8.379-10.444,12.237-13.88c5.814-5.179,11.928-10.02,18.031-14.852c2.215-1.753,7.543-4.527,8.604-7.345 c0.568-1.508-3.267-0.468-3.558-0.373c-1.537,0.5-3.025,1.152-4.533,1.731c-3.766,1.446,0.971-2.785,2.058-3.452 c0.839-0.515,1.723-0.926,2.553-1.453c6.905-4.385,13.1-10.136,19.618-15.063c5.685-4.296,11.431-8.542,17.467-12.336 c2.436-1.531,5.875-4.104,8.917-4.103c3.429,0,1.177,4.967-0.067,6.32c-1.481,1.612-2.874,2.721-4.763,3.928 c-8.04,5.142-16.675,8.963-25.991,11.127C202.933,38.73,203.326,40.115,205.063,39.712L205.063,39.712z"/>
<path d="M217.711,47.612c2.245-2.27-0.457-3.063-2.606-2.876c-3.894,0.339-8.57,3.099-11.371,5.71 c-1.97,1.836,0.108,2.789,1.951,2.386c3.555-0.778,6.915-2.641,10.099-4.355c-0.754-0.169-1.508-0.339-2.261-0.508 c-4.521,5.557,3.791,5.553,6.925,5.081c5.154-0.776,11.64-1.817,16.17-4.573c1.701-1.036-0.864-1.452-1.814-0.92 c-2.247,1.259-5.607,5.878-0.736,5.581c5.577-0.34,11.23-3.938,16.024-6.639c5.924-3.338,11.692-6.966,17.394-10.668 c4.196-2.725,8.954-5.43,12.492-9.026c2.136-2.171-1.47-2.229-2.904-1.772c-7.133,2.275-13.613,8.204-19.413,12.703 c-4.14,3.211-11.578,7.309-13.449,12.552c-1.419,3.977,10.738,0.851,11.536,0.656c1.763-0.43,1.342-1.945-0.406-1.519 c-2.422,0.591-5.276,1.56-7.825,1.174c-1.523-0.23,1.972-3.694,2.242-3.957c3.468-3.372,7.474-6.237,11.287-9.196 c4.565-3.541,9.257-6.997,14.293-9.846c0.839-0.475,1.744-0.922,2.668-1.216c-0.457,0.146,0.05-0.526-0.619,0.154 c-0.886,0.9-1.961,1.652-2.97,2.4c-6.429,4.768-13.311,8.984-20.151,13.125c-3.162,1.915-6.351,3.815-9.641,5.505 c-2.186,1.123-4.465,2.083-6.741,3.002c-0.535,0.216-2.746,1.304-3.465,0.708c-1.057-0.877,1.523-2.423,2.199-2.801 c-0.604-0.307-1.21-0.613-1.814-0.92c-2.61,1.589-6.274,2.134-9.204,2.847c-1.288,0.314-13.993,3.346-9.369-2.339 c0.917-1.127-1.883-0.711-2.261-0.508c-2.571,1.385-5.248,2.771-8.051,3.616c0.902-0.272,2.535-1.989,3.573-2.593 c1.127-0.655,2.325-1.164,3.529-1.656c-0.278,0.114,3.602-1.099,2.354,0.163C214.165,48.311,217.011,48.321,217.711,47.612 L217.711,47.612z"/>
<path d="M270.767,42.745c-3.605-1.019-11.411,4.637-12.336,7.744c-1.4,4.704,8.799-1.413,9.771-2.248 c-0.869-0.012-1.737-0.024-2.605-0.037c-2.437,6.477,5.574,4.466,8.743,3.171c3.967-1.622,7.736-3.849,11.341-6.145 c4.227-2.691,7.834-6.326,12.354-8.559c-0.56-0.632-1.002-0.664-1.327-0.096c-0.412,0.419-0.859,0.807-1.295,1.2 c-1.245,1.124-2.53,2.204-3.803,3.296c-2.477,2.124-4.971,4.238-7.285,6.539c-4.006,3.981-0.056,3.988,3.599,2.752 c1.417-0.479,2.805-1.041,4.196-1.588c2.15-0.846,4.429-2.021,1.774,0.77c-0.922,0.969-1.716,2.599,0.248,2.777 c2.651,0.24,5.112-1.733,7.353-2.853c1.228-0.613,3.563,3.14,4.538,3.836c6.376,4.551,16.734,2.476,23.909,2.038 c4.433-0.271,10.83-0.447,11.049-6.179c0.045-1.171-2.858-0.562-2.895,0.374c-0.132,3.464-2.458,3.801-5.506,4.089 c-4.705,0.444-9.539,0.636-14.262,0.684c-3.667,0.036-7.73-0.511-10.64-2.927c-1.075-0.893-1.663-3.069-2.876-3.627 c-1.444-0.664-3.102-0.008-4.453,0.561c-1.486,0.625-2.848,1.55-4.3,2.25c0.086-0.041,1.588-2.082,2.036-2.578 c3.17-3.511-5.401-1.024-6.164-0.735c-1.284,0.487-2.558,1.003-3.841,1.493c-0.734,0.279-3.47,1.646-2.118,0.022 c1.865-2.241,4.313-4.11,6.509-6.009c0.847-0.732,8.312-6.055,7.45-7.406c-1.747-2.739-11.866,6.012-13.047,6.94 c-2.95,2.319-6.271,4.186-9.569,5.957c-2.134,1.146-11.081,5.575-8.825-0.42c0.411-1.093-2.28-0.315-2.605-0.037 c-0.181,0.157-0.364,0.311-0.551,0.461c-0.205,0.161-0.41,0.322-0.615,0.483c-0.8,1.009-1.792,1.282-2.976,0.82 c0.957-1.407,5.854-5.66,7.242-5.269C269.88,44.542,272.393,43.204,270.767,42.745L270.767,42.745z"/>
<path d="M232.634,46.146c9.736-3.28,18.91-7.783,27.308-13.701c3.756-2.647,9.292-6.11,11.261-10.515 c0.772-1.729-1.063-2.638-2.497-2.221c-6.53,1.897-12.729,8.062-17.867,12.22c-5.586,4.521-12.807,9.615-16.509,15.937 c-0.81,1.381,2.14,1.364,2.762,0.302c2.812-4.801,8.144-8.653,12.299-12.185c5.067-4.306,10.324-8.457,15.861-12.146 c0.95-0.633,1.923-1.228,2.933-1.762c1.75-0.926-0.855,1.268-1.403,1.88c-3.652,4.09-8.66,7.25-13.191,10.259 c-6.51,4.324-14.075,7.515-21.471,10.006C230.389,44.803,230.87,46.741,232.634,46.146L232.634,46.146z"/>
<path d="M295.84,39.368c6.618,1.483,13.512,2.053,20.251,2.615c21.305,1.777,42.784,1.406,64.11,0.257 c1.508-0.082,2.345-1.887,0.35-1.779c-20.784,1.12-41.658,1.396-62.425-0.202c-6.834-0.526-13.839-1.09-20.546-2.593 C296.551,37.436,294.146,38.989,295.84,39.368L295.84,39.368z"/>
<path d="M327.69,30.251c0.176-0.156-0.155,0.112-0.025,0.015c0.063-0.046,0.127-0.088,0.193-0.13 c0.106-0.063,0.074-0.046-0.099,0.053c0.13-0.062,0.083-0.044-0.139,0.053c-0.297,0.119-0.642,0.189-0.961,0.176 c-0.184-0.007-0.18-0.052-0.042,0.055c0.21,0.163,0.263,0.525,0.309,0.765c0.123,0.641,3.039-0.04,2.898-0.776 c-0.079-0.409-0.227-0.841-0.601-1.07c-0.574-0.352-1.429-0.172-2.03-0.026c-0.772,0.188-1.535,0.552-2.133,1.083 c-0.507,0.451,0.444,0.519,0.691,0.5C326.409,30.9,327.187,30.699,327.69,30.251L327.69,30.251z"/>
</svg>