<?xml version="1.0" encoding="UTF-8"?>
<svg version="1.1" xmlns="http://www.w3.org/2000/svg" width="134" height="177" >
<path d="M35.548,4.815C35.37,3.417,35.1-0.219,33.028,0.01c-2.925,0.324-3.694,4.551-4.701,6.774 c-4.275,9.441-5.67,19.829-7.532,29.946C15.364,66.251,10,95.786,4.124,125.222c-0.117,0.584,1.807,0.254,1.917-0.297 c5.276-26.429,10.146-52.938,15.01-79.444c1.539-8.388,2.963-16.811,4.726-25.155c1.011-4.785,2.47-9.379,4.467-13.838 c0.352-0.786,0.709-1.568,1.061-2.354c0.444-0.993,0.612-4.124,1.499-2.302c0.509,1.045,0.667,2.356,0.813,3.5 C33.68,5.834,35.625,5.42,35.548,4.815L35.548,4.815 M19.548,34.315c-0.228-2.129-3.272-9.476-6.189-5.23c-1.26,1.834-0.7,5.782-0.771,7.808 c-0.173,4.979-0.665,9.95-0.546,14.933c0.217,9.117,1.561,18.214,2.266,27.3c1.166,15.026,1.079,30.083-0.183,45.1 c0.641-0.137,1.282-0.273,1.923-0.41c-1.109-11.999-2.586-24.095-5.259-35.852c-0.667-2.934-1.731-10.8-5.407-11.813 c-1.956-0.539-3.161,1.133-3.71,2.704C0.046,83.5-2.57,116.575,6.162,114.012c3.913-1.148,5.725-7.289,6.987-10.531 c5.252-13.49,8.278-27.968,11.391-42.059c-0.638,0.101-1.277,0.202-1.915,0.303c-1.037,11.146-1.921,22.31-2.59,33.482 c-0.38,6.351-0.842,12.789-0.491,19.15c0.076,1.377,0.776,5.144,2.922,2.679c1.592-1.829,2.258-4.48,2.987-6.731 c1.388-4.284,2.479-8.667,3.653-13.012c0.896-3.316,1.759-6.676,3.031-9.872c0.207-0.521,0.453-1.03,0.771-1.494 c-0.769,1.123-0.941-0.277-0.716,0.967c0.294,1.626,0.004,3.466-0.145,5.079c-0.69,7.481-2.277,14.848-3.285,22.286 c-0.524,3.871,2.493,1.244,3.609-0.563c1.874-3.031,3.508-6.206,5.072-9.406c0.963-1.971,2.477-4.382,2.613-6.629 c-0.583,0.223-1.167,0.445-1.75,0.669c0.711,0.329,0.813,8.524,0.889,9.578c0.074,1.036-0.436,8.741-0.024,8.987 c0.484,0.29,1.23-0.002,1.658-0.27c3.12-1.95,5.197-7.758,7.338-10.663c0.987-1.34-0.66-0.969-0.46,0.101 c0.16,0.855,0.571,1.679,0.788,2.524c1.068,4.163-1.249,8.954-2.872,12.637c0.638-0.101,1.277-0.202,1.915-0.303 c1.622-4.366,3.172-8.76,4.673-13.169c2.052-6.026,3.285-12.217,5.159-18.257c0.292-0.941,0.704-1.836,1.166-2.703 c0.767-0.832,0.712-0.971-0.165-0.417c0.298,0.516,0.228,1.402,0.25,1.956c0.206,5.298-1.359,10.926-2.091,16.171 c-0.238,1.704-1.954,7.919,1.389,7.495c0.842-0.107,1.677-1.021,0.323-0.85c-0.456,0.058,2.187-20.899,2.285-22.292 c0.251-3.546-1.873-4.991-3.906-1.761c-1.383,2.197-1.729,4.896-2.236,7.384c-0.713,3.502-1.902,6.934-3.006,10.326 c-1.794,5.514-3.738,10.983-5.757,16.419c-0.183,0.492,1.692,0.204,1.915-0.303c1.799-4.082,3.926-8.806,2.759-13.356 c-0.247-0.962-0.379-3.374-1.676-3.169c-4.739,0.751-5.623,9.776-9.298,12.074c0.553-0.09,1.105-0.181,1.658-0.271 c-0.215-0.128,0.052-10.081-0.015-10.928c-0.086-1.082,0.042-7.237-1.092-7.762c-0.428-0.198-1.716,0.104-1.75,0.668 c-0.146,2.408-1.979,5.148-3.007,7.253c-1.635,3.346-3.325,6.845-5.544,9.85c-0.639,0.866,0.942,0.289,1.001-0.446 c0.038-0.475,0.111-0.947,0.175-1.419c0.198-1.462,0.443-2.918,0.678-4.374c0.686-4.249,1.388-8.494,1.979-12.757 c0.189-1.368,2.467-11.933-0.925-11.081c-3.777,0.948-4.771,10.462-5.567,13.41c-1.084,4.01-2.139,8.028-3.378,11.993 c-0.476,1.521-1.011,3.021-1.638,4.485c-0.261,0.609-0.575,1.19-0.955,1.734c0.804-1.149,1.135,0.532,0.802-0.742 c-1.271-4.868-0.307-10.91-0.078-15.85c0.595-12.84,1.664-25.668,2.839-38.467c0.011-0.116,0.021-0.231,0.032-0.347 c0.058-0.616-1.803-0.206-1.915,0.303c-2.674,12.104-5.49,24.218-9.277,36.031c-1.571,4.9-3.216,11.013-6.775,14.928 c-1.741,1.914-3.029-3.094-3.354-4.453c-0.924-3.867-1.137-7.929-1.24-11.889c-0.111-4.289,0.043-8.609,0.588-12.867 c0.188-1.472,0.448-2.938,0.847-4.367c0.143-0.513,0.326-1.012,0.546-1.496c0.496-1.09,0.176-0.558,0.49-0.347 c3.976,2.672,4.723,12.409,5.525,16.564c1.447,7.503,2.438,15.099,3.316,22.687c0.301,2.603,0.584,5.208,0.826,7.816 c0.044,0.478,1.884,0.063,1.923-0.41c1.733-20.629,0.688-40.937-1.272-61.49c-0.65-6.815-0.888-13.43-0.5-20.264 c0.229-4.042,0.044-8.203,0.616-12.216c0.442-3.101,2.602,3.652,2.733,4.88C17.667,35.31,19.612,34.914,19.548,34.315 L19.548,34.315 M60.478,110.052c4.852,0.45,9.833-0.861,14.151-2.989c8.306-4.092,12.469-13.907,15.933-21.961 c4.827-11.224,6.645-23.458,7.636-35.551c0.582-7.097,1.612-17.36-3.233-23.364c-2.547-3.156-7.243-2.311-10.579-1.204 c-8.354,2.772-8.694,11.886-8.951,19.299c-0.498,14.401-0.74,28.62-2.267,42.973c-1.19,11.192-1.733,22.491-1.784,33.745 c-0.01,2.126-1.107,11.725,1.298,13.028c2.07,1.122,3.474-3.441,3.844-4.419c6.668-17.608,7.525-38.23,6.523-56.795 c-0.644,0.173-1.288,0.345-1.932,0.518c2.259,33.983,0.021,68.64-3.995,102.38c0.641-0.093,1.281-0.185,1.922-0.277 c0.524-9.554,1.241-19.1,2.076-28.63c1.138-12.992,1.514-27.466,5.924-39.87c0.813-2.287,1.729-4.544,2.747-6.747 c1.24-2.683,0.113-1.567,0.229-0.152c0.455,5.579-0.78,11.505-1.087,17.077c-0.093,1.686-1.46,14.435,3.234,11.691 c1.682-0.982,9.355-13.507,9.824-13.103c1.795,1.551,1.483,6.604,1.586,8.689c0.114,2.309,0.113,4.632,0.04,6.941 c-0.019,0.584,1.674,0.006,1.856-0.271c0.987-1.504,2.035-2.966,3.109-4.408c1.411-1.896,4.874-7.234,5.37-2.461 c0.525,5.057-0.983,13.499,5.792,14.483c1.09,0.158,6.817-1.65,6.872-1.343c0.414,2.348,0.152,5.016,0.321,7.402 c0.396,5.584,0.573,13.911,4.743,18.199c0.425,0.438,2.246-0.266,1.803-0.721c-4.958-5.101-4.604-16.003-4.873-22.618 c-0.038-0.936,0.491-3.828-1.028-3.844c-0.94-0.011-1.712,0.29-2.571,0.659c-3.549,1.527-6.947,1.339-8.205-2.518 c-0.762-2.336,0.729-14.479-3.546-13.333c-4.178,1.119-7.376,7.187-9.568,10.526c0.619-0.091,1.237-0.181,1.856-0.271 c0.137-4.295,1.08-11.732-1.478-15.434c-2.667-3.86-7.266,4.528-8.156,5.967c-0.889,1.438-1.759,2.887-2.676,4.308 c-1.254,1.942-1.93,2.42-2.326-0.239c-1.006-6.743,0.33-14.03,0.864-20.776c0.128-1.617,0.937-9.944-2.771-6.145 c-2.231,2.287-3.286,6.861-4.242,9.764c-0.945,2.871-1.472,5.895-1.996,8.863c-1.424,8.048-2.261,16.207-3.052,24.336 c-1.107,11.395-1.967,22.823-2.594,34.254c-0.039,0.7,1.854,0.29,1.922-0.277c4.025-33.808,6.269-68.568,4.005-102.62 c-0.035-0.535-1.968-0.149-1.932,0.518c0.765,14.177-0.068,28.369-2.745,42.317c-0.788,4.104-1.791,8.175-3.053,12.16 c-0.4,1.264-0.859,2.508-1.375,3.729c-0.199,0.473-0.427,0.936-0.683,1.38c-0.613,1.063,0.921,0.264,0.733-0.32 c-0.862-2.677-0.606-5.983-0.659-8.747c-0.113-6.001,0.097-12.014,0.37-18.007c0.611-13.373,2.579-26.618,3.176-39.985 c0.267-5.992,0.296-11.993,0.391-17.989c0.087-5.461-0.199-11.534,1.879-16.69c1.705-4.232,7.435-7.465,11.9-5.841 c2.385,0.867,3.518,3.589,4.231,5.801c1.401,4.339,1.344,9.181,1.258,13.68c-0.147,7.778-1.202,15.638-2.675,23.269 c-2.07,10.721-6.27,20.562-11.674,29.997c-4.055,7.079-12.251,11.774-20.505,11.009 C61.154,109.045,59.429,109.955,60.478,110.052L60.478,110.052z"/>
</svg>