<?xml version="1.0" encoding="UTF-8" standalone="no"?>
<!-- Created with Inkscape (http://www.inkscape.org/) -->

<svg
   xmlns:osb="http://www.openswatchbook.org/uri/2009/osb"
   xmlns:dc="http://purl.org/dc/elements/1.1/"
   xmlns:cc="http://creativecommons.org/ns#"
   xmlns:rdf="http://www.w3.org/1999/02/22-rdf-syntax-ns#"
   xmlns:svg="http://www.w3.org/2000/svg"
   xmlns="http://www.w3.org/2000/svg"
   xmlns:sodipodi="http://sodipodi.sourceforge.net/DTD/sodipodi-0.dtd"
   xmlns:inkscape="http://www.inkscape.org/namespaces/inkscape"
   id="svg2"
   version="1.1"
   inkscape:version="0.91 r13725"
   width="375"
   height="232"
   viewBox="0 0 375 232"
   sodipodi:docname="aleksei kasatonov2.svg">
  <metadata
     id="metadata8">
    <rdf:RDF>
      <cc:Work
         rdf:about="">
        <dc:format>image/svg+xml</dc:format>
        <dc:type
           rdf:resource="http://purl.org/dc/dcmitype/StillImage" />
        <dc:title></dc:title>
      </cc:Work>
    </rdf:RDF>
  </metadata>
  <defs
     id="defs6">
    <linearGradient
       id="linearGradient5597"
       osb:paint="solid">
      <stop
         style="stop-color:#000000;stop-opacity:1;"
         offset="0"
         id="stop5599" />
    </linearGradient>
  </defs>
  <sodipodi:namedview
     pagecolor="#ffffff"
     bordercolor="#666666"
     borderopacity="1"
     objecttolerance="10"
     gridtolerance="10"
     guidetolerance="10"
     inkscape:pageopacity="0"
     inkscape:pageshadow="2"
     inkscape:window-width="1366"
     inkscape:window-height="705"
     id="namedview4"
     showgrid="false"
     inkscape:zoom="1.4330697"
     inkscape:cx="244.587"
     inkscape:cy="163.47212"
     inkscape:window-x="-8"
     inkscape:window-y="-8"
     inkscape:window-maximized="1"
     inkscape:current-layer="svg2" />
  <path
     style="fill:#000000;fill-opacity:1;fill-rule:evenodd;stroke:none;stroke-width:1;stroke-linecap:butt;stroke-linejoin:miter;stroke-miterlimit:4;stroke-dasharray:none;stroke-opacity:1"
     d="m 87.066406,89.050781 c -2.43457,-0.01627 -4.203125,4.261719 -4.203125,4.261719 -1.245707,19.10607 -4.262909,37.87231 -6.802734,56.69531 l -11.339844,3.14063 c 0,0 -2.473647,0.17746 1.570313,5.23242 2.093408,2.61677 8.549828,-3.65453 8.199218,2.79297 -1.747991,32.1445 -14.304687,39.25 -14.304687,39.25 0,0 2.805504,-32.32068 -5.582031,-26.86524 -12.091046,7.86428 -5.582764,29.30901 -2.09375,31.92579 3.489013,2.61675 6.802734,1.04492 6.802734,1.04492 0,0 2.268518,-1.21941 8.025391,-9.24414 5.756873,-8.02473 8.896484,-23.72657 8.896484,-23.72657 l 2.09375,-13.43164 c 0,0 17.271655,7.84953 18.318359,7.32617 1.046704,-0.52335 4.270226,3.65081 4.797376,5.49597 0.34887,1.22115 0.26122,4.18669 1.30792,5.93119 1.0467,1.74451 3.33365,2.05136 4.32049,2.05136 0.98684,0 1.50433,-7.36817 -1.62808,-10.54804 -3.48424,-3.53705 -8.610412,-20.3539 -7.746924,-23.31442 2.467104,-0.92517 7.648334,0.55582 7.648334,0.55582 0,0 2.46639,3.26891 3.45323,-1.41859 0.98684,-4.6875 -4.00833,-3.57658 -4.00833,-3.57658 l -8.819797,0.55376 -4.6875,-49.341793 C 89.79955,90.246175 88.341657,89.059303 87.066406,89.050781 Z m 0.332032,15.835939 c 1.571826,0.20958 1.572265,6.91601 1.572265,6.91601 l 2.791016,31.75 -12.212891,5.58399 3.664063,-34.54297 c 0,0 0.523864,-5.9302 3.140625,-9.07031 0.408868,-0.49064 0.75384,-0.67553 1.044922,-0.63672 z m 5.954023,43.34754 c 1.496021,3.54977 2.6012,9.90948 2.652486,12.75212 -2.361144,0.69255 -12.761432,-3.26366 -16.130329,-5.35302 3.857312,-3.40204 9.906261,-6.83341 13.477843,-7.3991 z m -38.748945,30.03527 c 0,0 5.581774,-0.52342 4.011718,11.51367 -1.570057,12.0371 0.348756,13.43281 -4.884765,12.56055 0,0 -4.883973,-2.79077 -4.011719,-13.25781 0.872253,-10.46704 4.884766,-10.81641 4.884766,-10.81641 z"
     id="path3338"
     inkscape:connector-curvature="0"
     sodipodi:nodetypes="scccsscsscsccsssssccscccssccccsscccccscsc" />
  <ellipse
     style="opacity:1;fill:#000000;fill-opacity:1;fill-rule:evenodd;stroke:none;stroke-width:1;stroke-miterlimit:4;stroke-dasharray:none;stroke-opacity:1"
     id="path5611"
     cx="148.45757"
     cy="143.5098"
     rx="4.7491779"
     ry="3.2072368"
     transform="matrix(0.98497497,0.17269717,-0.17269717,0.98497497,0,0)"
     inkscape:transform-center-x="-0.12335526"
     inkscape:transform-center-y="0.49342105" />
  <path
     style="fill:#000000;fill-opacity:1;fill-rule:evenodd;stroke:none;stroke-width:1px;stroke-linecap:butt;stroke-linejoin:miter;stroke-opacity:1"
     d="m 125.61914,78.128906 c -0.17362,-0.0066 -0.35175,-0.005 -0.53711,0.0059 -5.93132,0.348901 -1.34273,7.501953 -1.34273,7.501953 0,0 4.07291,6.074631 3.20066,9.040296 -0.52291,1.777886 1.21367,23.351565 1.43094,42.419385 0.14515,12.73888 -2.24395,25.29813 -2.24395,25.29813 0,0 4.88619,3.13898 5.58399,-2.9668 0.6978,-6.10577 -1.22246,-14.3038 8.02344,-12.9082 9.24589,1.39561 15.88746,-9.50178 26.6914,-10.11914 6.10578,-0.3489 2.68688,-5.44755 -1.22124,-5.23375 -3.90812,0.2138 -18.83947,7.50204 -19.88618,7.85094 -1.0467,0.34891 -8.89835,1.22054 -8.375,0.17383 0.52335,-1.0467 -1.45862,1.20964 2.35481,-5.9304 4.09959,-7.67583 5.75664,-18.31728 6.6289,-19.71289 0.87225,-1.3956 5.04919,-13.41082 6.10829,-15.874292 1.0591,-2.463475 5.31854,-9.583024 -0.26388,-10.629728 -5.58242,-1.046704 -13.60742,15.68832 -13.60742,15.68832 l -6.45312,14.82813 -1.57085,-30.530008 c 0,0 0.86128,-8.696989 -4.52095,-8.901636 z m 21.34766,20.515625 c 0.57752,0.02555 0.81531,0.925264 0.0957,3.738279 -2.61676,7.41415 -3.22765,8.89672 -3.22765,8.89672 l -5.32073,15.35167 c 0,0 -4.88414,12.03789 -6.27974,2.96646 l 5.92968,-17.27149 5.93164,-11.33789 c 0,0 1.90855,-2.386341 2.8711,-2.343749 z"
     id="path5613"
     inkscape:connector-curvature="0"
     sodipodi:nodetypes="sscsscssszcsszzscccssscccccss" />
  <path
     style="fill:#000000;fill-rule:evenodd;stroke:none;stroke-width:1px;stroke-linecap:butt;stroke-linejoin:miter;stroke-opacity:1;fill-opacity:1"
     d="M 186.95898 97.109375 C 186.57375 97.122791 186.12768 97.247274 185.61523 97.498047 C 177.41605 101.51041 175.67188 115.11719 175.67188 115.11719 C 175.67188 115.11719 172.00884 135.5295 178.28906 132.73828 C 196.96785 124.43658 200.61762 106.39601 203.23438 111.45508 C 205.85113 116.51415 213.17969 111.97852 213.17969 111.97852 C 213.17969 111.97852 220.33621 105.22497 222.59961 105 C 227.27532 104.53526 230.09961 102.38281 230.09961 102.38281 C 230.09961 102.38281 226.26335 95.754765 220.33203 100.98828 C 209.93121 110.16547 206.20117 109.1875 206.20117 109.1875 C 206.20117 109.1875 203.75811 101.16161 197.65234 110.05859 C 191.54656 118.95558 184.91797 121.74805 184.91797 121.74805 C 184.91797 121.74805 192.73745 96.908136 186.95898 97.109375 z M 183.44727 107.33203 A 1.6652961 7.8947368 15.963607 0 1 183.56445 107.3457 A 1.6652961 7.8947368 15.963607 0 1 182.99414 115.39453 A 1.6652961 7.8947368 15.963607 0 1 179.22266 122.52539 A 1.6652961 7.8947368 15.963607 0 1 179.79297 114.47852 A 1.6652961 7.8947368 15.963607 0 1 183.44727 107.33203 z "
     id="path5618" />
  <path
     style="fill:#000000;fill-opacity:1;fill-rule:evenodd;stroke:none;stroke-width:1px;stroke-linecap:butt;stroke-linejoin:miter;stroke-opacity:1"
     d="m 289.90234,18.945312 c -4.05396,0.935022 -4.84077,5.867881 -2.76906,14.199085 2.0717,8.331204 2.89132,27.587707 1.02533,41.825278 0,0 0.54054,7.51251 -6.53885,7.769942 -6.78454,0.246711 -11.71937,0.369758 -11.71937,0.369758 0,0 1.23407,-11.347245 -7.27745,-11.100535 -8.51151,0.246711 -8.35475,2.96043 -9.62109,5.056641 -1.26634,2.096211 -0.76744,2.749205 1e-4,3.825144 0.76754,1.075939 2.96063,-6.17e-4 0.74024,2.589844 -2.2204,2.59046 -12.21289,11.841797 -12.21289,11.841797 0,0 -6.90759,2.960115 -2.4668,-7.648438 4.44079,-10.608553 -5.42733,-8.140625 -5.42733,-8.140625 0,0 -4.19479,5.674445 0.12264,7.771485 0,0 0.0852,11.828154 1.85157,14.185542 1.76634,2.35739 1.72624,1.10989 3.08315,1.3566 1.35691,0.24671 7.64803,-3.453944 12.82895,-10.608549 5.18092,-7.154606 -3.6487,6.351246 6.53711,4.441407 7.89474,-1.480263 0.98725,-4.56394 7.64844,-7.894532 6.66118,-3.330592 16.15985,4.192742 20.9707,-2.591797 4.81086,-6.78454 5.92085,-13.567947 5.55079,-24.669921 -0.37007,-11.101974 -1.0955,-15.072183 -0.36914,-17.886719 2.8234,-3.554668 3.94633,0.862973 3.94633,0.862973 l 5.30367,34.047183 c 0,0 3.59385,26.039995 6.04492,35.525395 2.45107,9.4854 7.52539,21.46484 7.52539,21.46484 0,0 5.55099,10.23777 7.27796,-0.24743 1.72698,-10.48519 -5.05726,-5.67445 -5.05726,-5.67445 0,0 -5.41755,-13.73294 -7.77148,-22.94335 -2.35393,-9.21041 -5.67579,-32.320318 -5.67579,-32.320318 0,0 -3.85977,-29.937962 -4.5625,-33.798828 -0.70273,-3.860866 -2.02528,-15.529284 -2.83789,-17.269531 -1.00309,-1.93496 -3.29328,-4.409277 -6.15039,-4.337891 z m -29.76953,59.636719 0.002,0 c 0.51123,-0.0061 1.10323,0.100646 1.67968,0.302735 1.41081,0.494254 2.36415,1.419602 2.12891,2.066406 -0.23534,0.646303 -1.5687,0.769584 -2.97852,0.27539 -1.40903,-0.493812 -2.36177,-1.417709 -2.1289,-2.064453 0.12871,-0.357704 0.6063,-0.571323 1.29687,-0.580078 z m -1.82617,7.736328 c 1.56527,3.24e-4 2.83428,0.606861 2.83594,1.355469 5.9e-4,0.74937 -1.26907,1.357097 -2.83594,1.357422 -1.56763,1.9e-4 -2.83848,-0.607687 -2.83789,-1.357422 0.002,-0.748972 1.27186,-1.355659 2.83789,-1.355469 z"
     id="path5623"
     inkscape:connector-curvature="0"
     sodipodi:nodetypes="czcscszzscscczzsssssccczczczczccccccccccccccc" />
</svg>
