<?xml version="1.0" encoding="UTF-8"?>
<svg version="1.0" xmlns="http://www.w3.org/2000/svg" width="207" height="45" >
<path d="M0.252,35.759c2.45,1.059,6.65-1.699,8.592-2.728c16.044-8.497,30.428-20.727,44.453-32.084 c-0.472-0.201-0.944-0.401-1.416-0.602c-4.802,4.628-9.427,9.45-13.921,14.376c-5.651,6.192-12.953,13.435-15.591,21.615 c-0.258,0.802,1.705,0.558,1.946-0.189c2.675-8.295,10.261-15.52,15.991-21.799C44.546,9.7,48.938,5.169,53.468,0.803 c0.809-0.78-0.903-1.017-1.416-0.602c-13.21,10.698-26.623,21.609-41.283,30.3c-2.466,1.462-5.064,2.953-7.807,3.842 c-0.723,0.234-1.713,0.157-1.198,0.38C1.088,34.432-0.645,35.371,0.252,35.759L0.252,35.759 M44.64,10.648c-2.65-4.546-8.057-1.185-10.596,1.472c-1.509,1.58-3.741,4.358-2.242,6.576 c1.445,2.137,6.099,1.372,8.118,1.162c7.97-0.829,15.529-5.097,22.341-9.023c3.428-1.975,6.794-4.102,10.015-6.4 c0.518-0.369,3.49-2.003,3.353-2.853c-0.036-0.064-0.092-0.099-0.169-0.103c-1.654-0.432-4.112,1.353-5.395,2.098 c-5.478,3.181-10.252,7.577-14.424,12.3c-3.726,4.218-18.104,25.565-2.537,22.89c6.928-1.189,17.827-6.165,21.04-13.003 c0.959-2.041-1.812-2.234-3.128-2.104c-6.074,0.601-11.971,3.201-17.559,5.476c-1.174,0.478,0.668,0.388,1.102,0.211 c1.39-0.565,18.526-7.462,17.792-3.545c-0.584,3.114-5.677,6.058-8.003,7.615c-3.745,2.509-16.11,9.093-16.759,0.653 c-0.283-3.689,2.445-7.796,4.237-10.786c2.595-4.329,5.913-8.205,9.493-11.742c3.364-3.324,10.145-7.027,12.268-9.285 c-3.089,3.286-7.908,5.64-11.73,7.931c-6.931,4.154-14.43,8.244-22.58,9.091c-3.352,0.349-7.233-0.482-5.551-4.435 c1.28-3.008,6.625-7.724,8.984-3.679C42.974,11.622,44.777,10.884,44.64,10.648L44.64,10.648 M91.978,24.803c0.897-4.784-3.475-3.046-5.833-1.361c-3.017,2.154-5.847,4.611-8.471,7.225 c-1.297,1.291-4.065,3.86-3.87,5.959c0.552,5.92,18.563-8.306,16.698-10.522c-0.283-0.336-0.953-0.23-1.291-0.063 c-2.085,1.034-7.519,8.302-4.757,10.358c3.825,2.85,10.804-2.297,13.834-4.482c-0.467-0.182-0.934-0.362-1.4-0.544 c-2.372,2.465-3.891,6.099,0.691,6.568c3.679,0.377,7.198-4.01,9.004-6.646c-0.605-0.035-1.211-0.07-1.816-0.105 c-0.835,2.088-1.63,6.499,1.857,6.62c4.359,0.15,8.112-2.498,10.292-6.182c0.532-0.9-1.347-0.572-1.694-0.256 c-1.358,1.233-8.428,8.661-2.146,7.298c9.594-2.081,18.744-8.963,26.687-14.437c3.463-2.387,1.73-3.048-1.434-1.75 c-8.742,3.583-14.258,13.653-17.896,21.706c-0.396,0.877,1.142,0.653,1.522,0.394c3.576-2.438,7.333-4.845,10.506-7.805 c0.849-0.791-1.056-0.889-1.572-0.406c-3.06,2.854-6.71,5.176-10.162,7.529c0.508,0.131,1.015,0.262,1.522,0.394 c3.152-6.98,7.103-13.878,13.219-18.681c1.361-1.069,2.913-2.031,4.572-2.554c0.772-0.243,0.382-0.844-0.119-0.482 c-0.891,0.64-1.797,1.257-2.702,1.875c-5.934,4.052-12.071,7.912-18.56,11.014c-2.073,0.99-8.436,3.75-5.092-0.382 c0.964-1.191,2.094-2.276,3.227-3.307c-0.564-0.085-1.129-0.17-1.694-0.256c-0.966,1.634-7.269,8.893-9.08,3.627 c-0.383-1.111,0.141-2.799,0.563-3.854c0.398-0.997-1.461-0.623-1.816-0.105c-0.901,1.316-1.965,2.486-3.105,3.597 c-1.556,1.515-6.036,1.191-4.465-1.452c0.327-0.551,0.812-1.084,1.265-1.556c0.793-0.824-0.926-0.887-1.4-0.544 c-1.106,0.797-2.262,1.52-3.431,2.221c-1.594,0.955-3.265,1.738-5.045,2.274c-4.626,1.396-2.192-3.527-1.706-4.481 c0.406-0.797,0.929-1.535,1.435-2.27c0.389-0.549,0.809-1.074,1.258-1.575c0.731-0.562,0.396-0.722-1.004-0.482 c-1.057,1.725-2.942,3.184-4.409,4.536c-1.806,1.665-3.725,3.208-5.784,4.549c-4.955,3.224-0.351-3.647,0.873-4.933 c2.244-2.358,4.816-4.442,7.399-6.411c1.467-1.119,3.966-2.713,3.392,0.351C89.882,25.839,91.841,25.532,91.978,24.803 L91.978,24.803 M137.47,30.993c-1.139,1.043-7.03,6.691-3.388,7.663c2.277,0.608,5.751-1.848,7.547-2.851 c5.303-2.96,10.32-6.467,15.278-9.963c3.772-2.659,8.119-5.303,11.305-8.688c0.409-0.435-1.453-0.06-1.742,0.173 c-3.2,2.571-6.279,5.298-9.274,8.104c-3.16,2.96-9.351,7.944-10.097,12.554c-0.399,2.473,2.593,1.64,3.962,0.991 c5.154-2.44,9.125-7.031,11.898-11.912c-0.634,0.119-1.269,0.236-1.902,0.355c-1.015,1.839-1.88,4.905,0.943,5.423 c2.4,0.44,5.374-0.8,7.501-1.708c2.846-1.215,5.569-2.648,8.271-4.153c1.009-0.57,2.012-1.153,3.007-1.747 c0.339-0.893,0.313-1.172-0.08-0.837c-0.427,0.292-0.85,0.591-1.272,0.89c-3.746,2.644-7.528,5.484-10.491,9.01 c-1.591,1.893-1.876,4.173,1.062,4.158c3.213-0.016,6.514-1.918,9.245-3.371c7.611-4.049,14.481-9.648,20.97-15.262 c-0.581,0.058-1.161,0.115-1.742,0.173c-2.874,2.504-17.753,14.43-14.428,18.839c3.794,5.031,18.551-11.426,21.367-12.916 c0.813-0.431-1.136-0.195-1.469-0.02c-3.061,1.62-5.611,4.545-8.203,6.791c-1.479,1.281-12.029,9.46-9.874,3.168 c2.136-6.236,9.497-11.809,14.349-16.036c0.387-0.337-1.405-0.118-1.742,0.173c-2.417,2.091-25.99,22.019-28.829,16.989 c-1.87-3.314,10.463-11.168,12.769-12.731c0.797-0.541-1.16-0.205-1.469-0.02c-2.176,1.313-16.928,11.324-18.832,6.818 c-0.511-1.207,0.262-2.92,0.851-3.986c0.121-0.219-1.638-0.109-1.902,0.355c-2.427,4.271-5.66,8.031-9.825,10.688 c-3.794,2.422-1.786-1.723-1.188-2.784c1.195-2.115,2.941-3.973,4.57-5.745c4.14-4.504,8.831-8.594,13.598-12.423 c-0.581,0.058-1.161,0.115-1.742,0.173c-4.766,5.065-11.554,8.955-17.27,12.795c-3.385,2.274-6.83,4.481-10.418,6.423 c-2.37,1.283-4.921,1.229-2.974-1.927c0.878-1.423,2.172-2.67,3.403-3.797C139.597,30.469,137.799,30.692,137.47,30.993 L137.47,30.993 M204.218,28.358c-1.555,1.563-3.078,3.393-3.964,5.423c-1.601,3.674,2.12,4.316,4.976,4.072 c1.011-0.087,1.553-1.338,0.223-1.225c-1.099,0.094-3.162,0.352-3.614-1.025c-0.303-0.922,0.37-2.062,0.807-2.824 c0.836-1.461,1.968-2.798,3.153-3.989C206.626,27.957,204.737,27.837,204.218,28.358L204.218,28.358z"/>
</svg>