<?xml version="1.0" encoding="UTF-8" standalone="no"?>
<!-- Created with Inkscape (http://www.inkscape.org/) -->

<svg
   xmlns:dc="http://purl.org/dc/elements/1.1/"
   xmlns:cc="http://creativecommons.org/ns#"
   xmlns:rdf="http://www.w3.org/1999/02/22-rdf-syntax-ns#"
   xmlns:svg="http://www.w3.org/2000/svg"
   xmlns="http://www.w3.org/2000/svg"
   xmlns:sodipodi="http://sodipodi.sourceforge.net/DTD/sodipodi-0.dtd"
   xmlns:inkscape="http://www.inkscape.org/namespaces/inkscape"
   id="svg2"
   version="1.1"
   inkscape:version="0.47 r22583"
   width="79.297142"
   height="12.633254"
   sodipodi:docname="Alexander Popov signature.svg">
  <title
     id="title3149">Alexander Popov signature</title>
  <metadata
     id="metadata8">
    <rdf:RDF>
      <cc:Work
         rdf:about="">
        <dc:format>image/svg+xml</dc:format>
        <dc:type
           rdf:resource="http://purl.org/dc/dcmitype/StillImage" />
        <dc:title>Alexander Popov signature</dc:title>
        <cc:license
           rdf:resource="http://creativecommons.org/licenses/publicdomain/" />
      </cc:Work>
      <cc:License
         rdf:about="http://creativecommons.org/licenses/publicdomain/">
        <cc:permits
           rdf:resource="http://creativecommons.org/ns#Reproduction" />
        <cc:permits
           rdf:resource="http://creativecommons.org/ns#Distribution" />
        <cc:permits
           rdf:resource="http://creativecommons.org/ns#DerivativeWorks" />
      </cc:License>
    </rdf:RDF>
  </metadata>
  <defs
     id="defs6">
    <inkscape:perspective
       sodipodi:type="inkscape:persp3d"
       inkscape:vp_x="0 : 0.5 : 1"
       inkscape:vp_y="0 : 1000 : 0"
       inkscape:vp_z="1 : 0.5 : 1"
       inkscape:persp3d-origin="0.5 : 0.33333333 : 1"
       id="perspective10" />
  </defs>
  <sodipodi:namedview
     pagecolor="#ffffff"
     bordercolor="#666666"
     borderopacity="1"
     objecttolerance="10"
     gridtolerance="10"
     guidetolerance="10"
     inkscape:pageopacity="0"
     inkscape:pageshadow="2"
     inkscape:window-width="641"
     inkscape:window-height="488"
     id="namedview4"
     showgrid="false"
     inkscape:zoom="5.1726027"
     inkscape:cx="43.85076"
     inkscape:cy="7.2555137"
     inkscape:window-x="0"
     inkscape:window-y="0"
     inkscape:window-maximized="0"
     inkscape:current-layer="svg2" />
  <g
     id="g2830"
     transform="translate(-249.08422,-329.681)">
    <path
       id="path2824"
       d="m 249.58422,338.32097 c 0.38665,0 0.7733,0 1.15995,0 0.0644,0 0.12889,0 0.19333,0 0.0644,0 0.14776,-0.0456 0.19333,0 0.0456,0.0456 -0.0456,0.14776 0,0.19333 0.006,0.006 0.53309,0 0.57998,0 0.51553,0 1.03107,0 1.54661,0 0.0871,0 0.52114,0.0294 0.57997,0 0.0815,-0.0408 0.11182,-0.15257 0.19333,-0.19333 0.0576,-0.0288 0.12888,0 0.19333,0 0.0644,0 0.12888,0 0.19332,0 0.25777,0 0.51554,0 0.77331,0 0.0644,0 0.14776,0.0456 0.19332,0 0.0456,-0.0456 -0.0456,-0.14775 0,-0.19332 0.0395,-0.0395 0.50333,0.0383 0.57998,0 0.0815,-0.0408 0.11182,-0.15257 0.19333,-0.19333 0.0576,-0.0288 0.12888,0 0.19333,0 0.0644,-0.0644 0.11181,-0.15257 0.19332,-0.19332 0.10488,-0.0524 0.72041,0.0529 0.77331,0 0.0456,-0.0456 -0.0456,-0.14776 0,-0.19333 0.0911,-0.0911 0.29552,0.0911 0.38665,0 0.0456,-0.0456 -0.0456,-0.14776 0,-0.19333 0.0911,-0.0911 0.29552,0.0911 0.38665,0 0.0456,-0.0456 -0.0456,-0.14776 0,-0.19332 0.4,-0.4 -0.0156,0.61125 0.38665,-0.19333 0.0288,-0.0576 -0.0456,-0.14776 0,-0.19333 1.9e-4,-1.8e-4 0.57911,3e-4 0.57998,0 0.0865,-0.0288 0.11182,-0.15257 0.19333,-0.19332 0.11528,-0.0576 0.29552,0.0911 0.38665,0 0.0456,-0.0456 -0.0456,-0.14776 0,-0.19333 0.0456,-0.0456 0.14776,0.0456 0.19333,0 0.0456,-0.0456 -0.0456,-0.14776 0,-0.19332 0.0911,-0.0911 0.27137,0.0576 0.38665,0 0.0815,-0.0408 0.11181,-0.15257 0.19333,-0.19333 0.0576,-0.0288 0.1645,0.0576 0.19332,0 0.0576,-0.11528 -0.0576,-0.27138 0,-0.38665 0.0576,-0.11528 0.29552,0.0911 0.38666,0 0.0456,-0.0456 -0.0456,-0.14776 0,-0.19333 0.0456,-0.0456 0.14776,0.0456 0.19332,0 0.0456,-0.0456 -0.0456,-0.14776 0,-0.19333 0.0456,-0.0456 0.14776,0.0456 0.19333,0 0.0456,-0.0456 -0.0456,-0.14775 0,-0.19332 0.0456,-0.0456 0.14776,0.0456 0.19333,0 0.0456,-0.0456 -0.0456,-0.14776 0,-0.19333 0.0395,-0.0395 0.50332,0.0383 0.57997,0 0.35592,-0.17796 0.0307,-0.40202 0.38666,-0.57998 0.0766,-0.0383 0.54045,0.0395 0.57998,0 0.0456,-0.0456 -0.0456,-0.14776 0,-0.19332 0.0456,-0.0456 0.13568,0.0288 0.19332,0 0.0815,-0.0408 0.11181,-0.15257 0.19333,-0.19333 0.26666,-0.13333 0.17292,0.23413 0.38665,-0.19333 0.0288,-0.0576 -0.0456,-0.14775 0,-0.19332 0.0456,-0.0456 0.13569,0.0288 0.19333,0 0.0815,-0.0408 0.11181,-0.15257 0.19332,-0.19333 0.0576,-0.0288 0.13569,0.0288 0.19333,0 0.0815,-0.0408 0.11181,-0.15257 0.19333,-0.19332 0.0576,-0.0288 0.14775,0.0456 0.19332,0 0.0456,-0.0456 -0.0456,-0.14776 0,-0.19333 0.0456,-0.0456 0.14776,0.0456 0.19333,0 0.0456,-0.0456 -0.0456,-0.14776 0,-0.19333 0.0456,-0.0456 0.13569,0.0288 0.19332,0 0.16303,-0.0815 0.22363,-0.30514 0.38666,-0.38665 0.0576,-0.0288 0.14776,0.0456 0.19332,0 0.0456,-0.0456 -0.0456,-0.14776 0,-0.19333 0.0967,-0.0967 0.48332,0.0967 0.57998,0 0.0911,-0.0911 -0.0911,-0.29551 0,-0.38665 0.0456,-0.0456 0.13569,0.0288 0.19333,0 0.0815,-0.0408 0.11181,-0.15257 0.19332,-0.19332 0.11528,-0.0576 0.29552,0.0911 0.38666,0 0.0456,-0.0456 -0.0456,-0.14776 0,-0.19333 0.0456,-0.0456 0.14776,-0.0456 0.19332,0 0.0456,0.0456 0,0.12888 0,0.19333 0,0.0644 0.0456,0.14775 0,0.19332 -0.0456,0.0456 -0.14776,-0.0456 -0.19332,0 -0.0911,0.0911 0.0911,0.29552 0,0.38665 -0.0456,0.0456 -0.14776,-0.0456 -0.19333,0 -0.0395,0.0395 0.0383,0.50333 0,0.57998 -0.0408,0.0815 -0.15257,0.11182 -0.19333,0.19333 -0.0576,0.11528 0.0576,0.27137 0,0.38665 -0.0408,0.0815 -0.15256,0.11181 -0.19332,0.19333 -0.0288,0.0576 0.0456,0.14776 0,0.19332 -0.0456,0.0456 -0.14776,-0.0456 -0.19333,0 -0.0456,0.0456 0.0456,0.14776 0,0.19333 -0.0456,0.0456 -0.14776,-0.0456 -0.19332,0 -0.0911,0.0911 0.0576,0.27138 0,0.38665 -0.116,0.23199 -0.46399,0.34799 -0.57998,0.57998 -0.0288,0.0576 0.0456,0.14776 0,0.19333 -0.0456,0.0456 -0.14776,-0.0456 -0.19333,0 -0.0651,0.0651 0.0651,0.32157 0,0.38665 -0.0456,0.0456 -0.14776,-0.0456 -0.19333,0 -0.0911,0.0911 0.0911,0.29552 0,0.38665 -0.0456,0.0456 -0.14775,-0.0456 -0.19332,0 -0.0456,0.0456 0.0456,0.14776 0,0.19333 -0.4,0.4 0.0156,-0.61125 -0.38665,0.19333 -0.0288,0.0576 0.0288,0.13568 0,0.19332 -0.0408,0.0815 -0.12889,0.12889 -0.19333,0.19333 -0.0644,0.0644 -0.11181,0.15257 -0.19333,0.19332 -0.51553,0 0.0644,-0.0644 -0.19332,0.19333 -0.4,0.4 0.0156,-0.61125 -0.38666,0.19333 -0.0288,0.0576 0.0456,0.14776 0,0.19332 -0.0456,0.0456 -0.14775,-0.0456 -0.19332,0 -0.0456,0.0456 0.0288,0.13569 0,0.19333 -0.0257,0.0513 -0.52865,0.55431 -0.57998,0.57998 -0.11528,0.0576 -0.29552,-0.0911 -0.38665,0 -0.0456,0.0456 0.0456,0.14776 0,0.19332 -0.0456,0.0456 -0.13569,-0.0288 -0.19333,0 -0.64118,0.64119 0.18227,-0.0911 -0.38665,0.19333 -0.80458,0.40229 0.20667,-0.0134 -0.19333,0.38665 -0.0456,0.0456 -0.13569,-0.0288 -0.19332,0 -0.0642,0.0321 -0.32244,0.35455 -0.38666,0.38666 -0.0576,0.0288 -0.14776,-0.0456 -0.19332,0 -0.0456,0.0456 0.0456,0.14775 0,0.19332 -0.0456,0.0456 -0.14776,-0.0456 -0.19333,0 -0.0456,0.0456 0.0456,0.14776 0,0.19333 -0.0911,0.0911 -0.29552,-0.0911 -0.38665,0 -0.0456,0.0456 0.0456,0.14776 0,0.19332 -0.0456,0.0456 -0.14776,-0.0456 -0.19333,0 -0.0911,0.0911 0.0911,0.29552 0,0.38666 -0.0456,0.0456 -0.13569,-0.0288 -0.19332,0 -0.0513,0.0257 -0.55432,0.52865 -0.57998,0.57998 -0.0288,0.0576 0.0456,0.14775 0,0.19332 -0.0456,0.0456 -0.13569,-0.0288 -0.19333,0 -0.0815,0.0408 -0.12888,0.12889 -0.19333,0.19333 -0.0644,0.0644 -0.25776,0.25777 -0.19332,0.19332 0.12888,-0.12888 0.38665,-0.56892 0.38665,-0.38665 0,0.23235 -0.24724,0.3941 -0.38665,0.57998 -0.0547,0.0729 -0.12889,0.25777 -0.19333,0.19333 -0.0644,-0.0644 0.19333,-0.10219 0.19333,-0.19333 0,-0.0644 -0.19333,0.0644 -0.19333,0 0,-0.0911 0.15257,-0.11181 0.19333,-0.19333 0.0576,-0.11527 -0.0911,-0.29551 0,-0.38665 0.0456,-0.0456 0.13569,0.0288 0.19332,0 0.80458,-0.40229 -0.20667,0.0134 0.19333,-0.38665 0.0456,-0.0456 0.13569,0.0288 0.19333,0 0.80457,-0.40229 -0.20668,0.0134 0.19332,-0.38665 0.0456,-0.0456 0.14776,0.0456 0.19333,0 0.0456,-0.0456 -0.0456,-0.14776 0,-0.19333 0.0911,-0.0911 0.27137,0.0576 0.38665,0 0.0815,-0.0408 0.11181,-0.15257 0.19333,-0.19333 0.0576,-0.0288 0.14776,0.0456 0.19332,0 0.0911,-0.0911 -0.0911,-0.29551 0,-0.38665 0.0456,-0.0456 0.14776,0.0456 0.19333,0 0.0456,-0.0456 -0.0456,-0.14776 0,-0.19332 0.0456,-0.0456 0.14776,0.0456 0.19333,0 0.0456,-0.0456 -0.0456,-0.14776 0,-0.19333 0.0456,-0.0456 0.14776,0.0456 0.19332,0 0.4,-0.4 -0.61125,0.0156 0.19333,-0.38665 0.0576,-0.0288 0.14776,0.0456 0.19333,0 0.0456,-0.0456 -0.0288,-0.13569 0,-0.19333 0.0408,-0.0815 0.15256,-0.11181 0.19332,-0.19333 0.0576,-0.11527 -0.0911,-0.29551 0,-0.38665 0.0456,-0.0456 0.14776,0.0456 0.19333,0 0.0651,-0.0651 -0.0651,-0.32157 0,-0.38665 0.0456,-0.0456 0.14776,0.0456 0.19332,0 0.0911,-0.0911 -0.0911,-0.29552 0,-0.38665 0.0456,-0.0456 0.14776,0.0456 0.19333,0 0.0456,-0.0456 -0.0288,-0.13569 0,-0.19333 0.0408,-0.0815 0.15257,-0.11181 0.19333,-0.19333 0.0576,-0.11527 -0.0576,-0.27137 0,-0.38665 0.0408,-0.0815 0.15257,-0.11181 0.19332,-0.19332 0.0288,-0.0576 -0.0456,-0.14776 0,-0.19333 0.0456,-0.0456 0.14776,0.0456 0.19333,0 0.008,-0.008 0,-0.70231 0,-0.77331 0,-0.12888 0,-0.51553 0,-0.38665 0,0.12889 0,0.51554 0,0.38665 0,-0.19332 0.0611,-0.39657 0,-0.57997 -0.0204,-0.0611 -0.12888,0 -0.19333,0 -0.38665,0 -0.7733,0 -1.15995,0 -0.38666,0 -0.77331,0 -1.15996,0 -0.0644,0 -0.14776,-0.0456 -0.19333,0 -0.0456,0.0456 0.0456,0.14775 0,0.19332 -0.0456,0.0456 -0.14776,-0.0456 -0.19332,0 -0.0456,0.0456 0.0644,0.19333 0,0.19333 -0.0645,0 0,-0.25777 0,-0.19333 0,0.0662 0,0.45019 0,0.57998 0,0.0644 -0.0456,0.14776 0,0.19333 0.0456,0.0456 0.14775,-0.0456 0.19332,0 0.0456,0.0456 0,0.12888 0,0.19332 0,0.0645 0,0.25777 0,0.19333 0,-0.12888 -0.12888,-0.38665 0,-0.38665 0.34244,0 0.12302,0.63269 0.19333,0.7733 0.0408,0.0815 0.11181,0.15257 0.19332,0.19333 0.0576,0.0288 0.12889,0 0.19333,0 0.0644,0.0644 0.11181,0.15257 0.19333,0.19332 0.15466,0.0773 0.42531,-0.0773 0.57998,0 0.0815,0.0408 0.11181,0.15257 0.19332,0.19333 0.12151,0.0608 0.6518,-0.0607 0.77331,0 0.0815,0.0408 0.11181,0.15257 0.19332,0.19333 0.0588,0.0294 0.49292,0 0.57998,0 0.51554,0 1.03108,0 1.54661,0 0.51554,0 1.03108,0 1.54661,0 0.0871,0 0.52115,0.0294 0.57998,0 0.0815,-0.0408 0.11181,-0.15257 0.19333,-0.19333 0.0588,-0.0294 0.49291,0 0.57998,0 0.38665,0 0.7733,0 1.15995,0 0.19333,0 0.38666,0 0.57998,0 0.0644,0 0.19333,-0.0644 0.19333,0 0,0.0644 -0.25777,0 -0.19333,0 0.12889,0 0.25777,0 0.38666,0 0.0644,0 0.19332,-0.0644 0.19332,0 0,0.0644 -0.12888,0 -0.19332,0 l 1.54661,-0.57998 c 0.15425,-0.0299 0.87728,0.0447 0.96663,0 0.0815,-0.0408 0.11181,-0.15257 0.19332,-0.19332 0.0576,-0.0288 0.12889,0 0.19333,0 0.12888,0 0.26438,0.0408 0.38665,0 0.0865,-0.0288 0.11181,-0.15257 0.19333,-0.19333 0.10487,-0.0524 0.7204,0.0529 0.7733,0 0.0456,-0.0456 -0.0456,-0.14776 0,-0.19333 0.0911,-0.0911 0.29552,0.0911 0.38666,0 0.0456,-0.0456 -0.0456,-0.14776 0,-0.19332 0.0465,-0.0465 0.72678,0.0465 0.7733,0 0.0456,-0.0456 -0.0456,-0.14776 0,-0.19333 0.0456,-0.0456 0.14776,0.0456 0.19333,0 0.0456,-0.0456 -0.0456,-0.14776 0,-0.19333 0.0911,-0.0911 0.29551,0.0911 0.38665,0 0.0456,-0.0456 -0.0456,-0.14775 0,-0.19332 0.0911,-0.0911 0.29552,0.0911 0.38665,0 0.0456,-0.0456 -0.0456,-0.14776 0,-0.19333 0.0967,-0.0967 0.48332,0.0967 0.57998,0 0.0456,-0.0456 -0.0576,-0.16451 0,-0.19332 0.11528,-0.0576 0.27138,0.0576 0.38665,0 0.0576,-0.0288 -0.0456,-0.14776 0,-0.19333 0.0456,-0.0456 0.14776,0.0456 0.19333,0 0.0456,-0.0456 -0.0456,-0.14776 0,-0.19333 0.0456,-0.0456 0.14776,0.0456 0.19333,0 0.0456,-0.0456 -0.0456,-0.14776 0,-0.19332 0.0456,-0.0456 0.14775,0.0456 0.19332,0 0.0456,-0.0456 -0.0456,-0.14776 0,-0.19333 0.0967,-0.0967 0.48332,0.0967 0.57998,0 0.0456,-0.0456 -0.0456,-0.14776 0,-0.19333 0.0911,-0.0911 0.29552,0.0911 0.38665,0 0.0456,-0.0456 -0.0456,-0.14775 0,-0.19332 0.0456,-0.0456 0.14776,0.0456 0.19333,0 0.0456,-0.0456 -0.0456,-0.14776 0,-0.19333 0.0456,-0.0456 0.14776,0.0456 0.19333,0 0.0456,-0.0456 -0.0456,-0.14776 0,-0.19332 0.0456,-0.0456 0.14775,0.0456 0.19332,0 0.0193,-0.0193 0.0193,-0.56065 0,-0.57998 -0.0465,-0.0465 -0.72678,0.0465 -0.7733,0 -0.0456,-0.0456 0.0456,-0.14776 0,-0.19333 -0.0456,-0.0456 -0.12889,0 -0.19333,0 -0.32221,0 -0.64442,0 -0.96663,0 -0.0644,0 -0.14776,-0.0456 -0.19333,0 -0.0456,0.0456 0.0456,0.14776 0,0.19333 -0.0456,0.0456 -0.14776,-0.0456 -0.19332,0 -0.0456,0.0456 0.0456,0.14776 0,0.19332 -0.0456,0.0456 -0.14776,-0.0456 -0.19333,0 -0.0456,0.0456 0.0288,0.13569 0,0.19333 -0.0408,0.0815 -0.15257,0.11181 -0.19333,0.19333 -0.0288,0.0576 0.0456,0.14775 0,0.19332 -0.0456,0.0456 -0.14775,-0.0456 -0.19332,0 -0.0599,0.0599 0.0599,0.90677 0,0.96663 -0.0456,0.0456 -0.14776,-0.0456 -0.19333,0 -0.0456,0.0456 0,0.12889 0,0.19333 0,0.12888 0.0576,0.27137 0,0.38665 -0.0288,0.0576 -0.14776,-0.0456 -0.19332,0 -0.0456,0.0456 0.0456,0.14776 0,0.19333 -0.0456,0.0456 -0.14776,-0.0456 -0.19333,0 -0.0456,0.0456 0.0456,0.14776 0,0.19332 -0.0456,0.0456 -0.14776,-0.0456 -0.19333,0 -0.0456,0.0456 0.0456,0.14776 0,0.19333 -0.0456,0.0456 -0.14776,-0.0456 -0.19332,0 0,0.51554 0.0644,-0.0644 -0.19333,0.19333 -0.0456,0.0456 0.0456,0.14776 0,0.19332 -0.0456,0.0456 -0.14776,-0.0456 -0.19333,0 -0.0911,0.0911 0.0911,0.29552 0,0.38666 -0.0456,0.0456 -0.14775,-0.0456 -0.19332,0 -0.0456,0.0456 0.0288,0.13568 0,0.19332 -0.0408,0.0815 -0.15257,0.11181 -0.19333,0.19333 -0.0288,0.0576 0.0456,0.14776 0,0.19332 -0.23547,0.23547 -0.43193,0.0906 -0.57998,0.38666 0,0.51553 0.0645,-0.0645 -0.19332,0.19332 -0.0456,0.0456 0.0456,0.14776 0,0.19333 -0.0456,0.0456 -0.14776,-0.0456 -0.19333,0 -0.0456,0.0456 0.0456,0.14776 0,0.19333 -0.0456,0.0456 -0.14776,-0.0456 -0.19333,0 -0.0456,0.0456 0.0288,0.13568 0,0.19332 -0.0408,0.0815 -0.15257,0.11181 -0.19332,0.19333 -0.0288,0.0576 0.0456,0.14776 0,0.19332 -0.0456,0.0456 -0.13569,-0.0288 -0.19333,0 -0.0373,0.0186 -0.34938,0.36802 -0.38665,0.38666 -0.0576,0.0288 -0.14776,-0.0456 -0.19333,0 -0.4,0.4 0.61125,-0.0156 -0.19332,0.38665 -0.0576,0.0288 -0.14776,-0.0456 -0.19333,0 -0.0911,0.0911 0.0911,0.29552 0,0.38665 -0.0456,0.0456 -0.13569,-0.0288 -0.19333,0 -0.16302,0.0815 -0.22362,0.30514 -0.38665,0.38665 -0.0576,0.0288 -0.14776,-0.0456 -0.19332,0 -0.0456,0.0456 0.0456,0.14776 0,0.19333 -0.0456,0.0456 -0.14776,-0.0456 -0.19333,0 -0.0456,0.0456 0.0456,0.14776 0,0.19333 -0.0456,0.0456 -0.14776,-0.0456 -0.19333,0 -0.0456,0.0456 0.0456,0.14776 0,0.19332 -0.0456,0.0456 -0.19332,0.0644 -0.19332,0 0,-0.0644 0.19332,0.0644 0.19332,0 0,-0.0911 -0.15257,-0.11181 -0.19332,-0.19332 -0.0288,-0.0576 0,-0.12889 0,-0.19333 0,-0.0644 -0.0288,-0.13569 0,-0.19333 0.0408,-0.0815 0.15257,-0.11181 0.19332,-0.19332 0.0288,-0.0576 -0.0288,-0.13569 0,-0.19333 0.0815,-0.16302 0.30514,-0.22362 0.38666,-0.38665 0.13333,-0.26667 -0.23413,-0.17293 0.19332,-0.38665 0.0576,-0.0288 0.13569,0.0288 0.19333,0 0.64118,-0.64119 -0.18227,0.0911 0.38665,-0.19333 0.23199,-0.11599 0.34799,-0.46398 0.57998,-0.57998 0.0576,-0.0288 0.14776,0.0456 0.19333,0 0.0456,-0.0456 -0.0288,-0.13569 0,-0.19332 0.11599,-0.232 0.46398,-0.34799 0.57997,-0.57998 0.0288,-0.0576 -0.0456,-0.14776 0,-0.19333 0.0456,-0.0456 0.14776,0.0456 0.19333,0 0.0456,-0.0456 -0.0456,-0.14776 0,-0.19333 0.0911,-0.0911 0.29552,0.0911 0.38665,0 0.0456,-0.0456 -0.0288,-0.13568 0,-0.19332 0.40229,-0.80458 -0.0133,0.20667 0.38666,-0.19333 0.0456,-0.0456 -0.0456,-0.14776 0,-0.19332 0.0911,-0.0911 0.27137,0.0576 0.38665,0 0.0815,-0.0408 0.11181,-0.15257 0.19332,-0.19333 0.0576,-0.0288 0.13569,0.0288 0.19333,0 0.0815,-0.0408 0.11181,-0.15257 0.19333,-0.19333 0.0576,-0.0288 0.14776,0.0456 0.19332,0 0.0456,-0.0456 -0.0456,-0.14776 0,-0.19332 0.0456,-0.0456 0.13569,0.0288 0.19333,0 0.0815,-0.0408 0.11181,-0.15257 0.19333,-0.19333 0.0576,-0.0288 0.14775,0.0456 0.19332,0 0.0456,-0.0456 -0.0456,-0.14776 0,-0.19333 0.0911,-0.0911 0.29552,0.0911 0.38665,0 0.0456,-0.0456 -0.0456,-0.14775 0,-0.19332 0.0456,-0.0456 0.12889,0 0.19333,0 0.0644,0 0.14776,-0.0456 0.19333,0 0.0456,0.0456 -0.0456,0.14776 0,0.19332 0.0456,0.0456 0.14776,-0.0456 0.19332,0 0.0456,0.0456 -0.0288,0.13569 0,0.19333 0.0408,0.0815 0.15257,0.11181 0.19333,0.19333 0.0576,0.11527 -0.0911,0.29551 0,0.38665 0.0456,0.0456 0.14776,-0.0456 0.19333,0 0.009,0.009 0,0.87548 0,0.96663 0,0.0644 0,0.12888 0,0.19333 0,0.0644 0.0456,0.14776 0,0.19332 -0.0456,0.0456 -0.14776,-0.0456 -0.19333,0 -0.0911,0.0911 0.0911,0.29552 0,0.38666 -0.0456,0.0456 -0.14776,-0.0456 -0.19333,0 -0.0651,0.0651 0.0651,0.32157 0,0.38665 -0.0911,0.0911 -0.29551,-0.0911 -0.38665,0 -0.0456,0.0456 0.0288,0.13569 0,0.19332 -0.0408,0.0815 -0.15257,0.11182 -0.19333,0.19333 -0.0288,0.0576 0.0456,0.14776 0,0.19333 -0.0456,0.0456 -0.14775,-0.0456 -0.19332,0 -0.0967,0.0967 0.0967,0.48331 0,0.57998 -0.0456,0.0456 -0.14776,-0.0456 -0.19333,0 -0.0456,0.0456 0,0.12888 0,0.19332 0,0.0644 0,0.12889 0,0.19333 0,0.0644 0,0.12888 0,0.19332 0,0.0645 -0.0456,0.14776 0,0.19333 0.0456,0.0456 0.13569,-0.0288 0.19333,0 0.0815,0.0408 0.11181,0.15257 0.19332,0.19333 0.0111,0.006 0.90282,0.0319 0.96664,0 0.0815,-0.0408 0.11181,-0.15257 0.19332,-0.19333 0.0767,-0.0383 0.54046,0.0395 0.57998,0 0.0456,-0.0456 -0.0456,-0.14776 0,-0.19333 0.0456,-0.0456 0.14776,0.0456 0.19333,0 0.0456,-0.0456 -0.0456,-0.14775 0,-0.19332 0.0456,-0.0456 0.14776,0.0456 0.19332,0 0.0456,-0.0456 -0.0456,-0.14776 0,-0.19333 0.0456,-0.0456 0.14776,0.0456 0.19333,0 0.0456,-0.0456 -0.0456,-0.14776 0,-0.19332 0.0456,-0.0456 0.14776,0.0456 0.19333,0 0.0911,-0.0911 -0.0911,-0.29552 0,-0.38666 0.0456,-0.0456 0.13568,0.0288 0.19332,0 0.64118,-0.64118 -0.18227,0.0911 0.38665,-0.19332 0.16303,-0.0815 0.22363,-0.30514 0.38666,-0.38666 0.0576,-0.0288 0.14776,0.0456 0.19332,0 0.0456,-0.0456 -0.0456,-0.14775 0,-0.19332 0.0911,-0.0911 0.29552,0.0911 0.38666,0 0.0456,-0.0456 -0.0456,-0.14776 0,-0.19333 0.0456,-0.0456 0.12888,0 0.19332,0 0,-0.0644 -0.0456,-0.14776 0,-0.19332 0.2776,-0.2776 0.17846,0.35691 0.19333,0.38665 0.0408,0.0815 0.15257,0.11181 0.19333,0.19332 0.0383,0.0767 -0.0395,0.54046 0,0.57998 0.0456,0.0456 0.14775,-0.0456 0.19332,0 0.0456,0.0456 -0.0456,0.14776 0,0.19333 0.0456,0.0456 0.14776,-0.0456 0.19333,0 0.0456,0.0456 0.0644,0.19333 0,0.19333 -0.0911,0 -0.28446,-0.19333 -0.19333,-0.19333 0.1441,0 0.24995,0.14776 0.38665,0.19333 0.0611,0.0204 0.14776,-0.0456 0.19333,0 0.0456,0.0456 -0.0456,0.14775 0,0.19332 0.0456,0.0456 0.13569,-0.0288 0.19333,0 0.0515,0.0258 0.33512,0.36089 0.38665,0.38665 0.0576,0.0288 0.14776,-0.0456 0.19333,0 0.0456,0.0456 -0.0456,0.14776 0,0.19333 0.0911,0.0911 0.29551,-0.0911 0.38665,0 0.0456,0.0456 -0.0456,0.14776 0,0.19333 0.0456,0.0456 0.12888,0 0.19332,0 0.0644,0 0.12889,0 0.19333,0 0.071,0 0.76553,0.008 0.77331,0 0.0456,-0.0456 -0.0456,-0.14776 0,-0.19333 0.0456,-0.0456 0.14775,0.0456 0.19332,0 0.0456,-0.0456 -0.0456,-0.14776 0,-0.19333 0.0911,-0.0911 0.29552,0.0911 0.38665,0 0.0456,-0.0456 -0.0456,-0.14775 0,-0.19332 0.0456,-0.0456 0.14776,0.0456 0.19333,0 0.0456,-0.0456 -0.0456,-0.14776 0,-0.19333 0.0456,-0.0456 0.14776,0.0456 0.19333,0 0.0456,-0.0456 -0.0456,-0.14776 0,-0.19332 0.0911,-0.0911 0.29551,0.0911 0.38665,0 0.0456,-0.0456 -0.0456,-0.14776 0,-0.19333 0.0456,-0.0456 0.14776,0.0456 0.19333,0 0.0911,-0.0911 -0.0911,-0.29552 0,-0.38665 0.0456,-0.0456 0.14775,0.0456 0.19332,0 0.0456,-0.0456 0,-0.12889 0,-0.19333 0,-0.0644 0,-0.12888 0,-0.19333 0,-0.19332 0,-0.38665 0,-0.57997 0,-0.0644 -0.0644,-0.19333 0,-0.19333 0.0644,0 0.0456,0.23889 0,0.19333 -0.10189,-0.1019 -0.0914,-0.28476 -0.19332,-0.38666 -0.0911,-0.0911 -0.27138,0.0576 -0.38666,0 -0.0815,-0.0408 -0.11181,-0.15257 -0.19332,-0.19332 -0.0508,-0.0254 -0.67221,0 -0.77331,0 -0.38665,0 -0.7733,0 -1.15996,0 -0.12888,0 -0.51553,0 -0.38665,0 0.30628,0 0.7529,-0.0576 0,0.19332 -0.10658,0.0355 -0.73197,-0.0413 -0.7733,0 -0.0456,0.0456 0.0456,0.14776 0,0.19333 -0.0911,0.0911 -0.29552,-0.0911 -0.38666,0 -0.0456,0.0456 0.0456,0.14776 0,0.19333 -0.28446,0 -0.14775,-0.0456 -0.38665,0.19332"
       style="fill:none;stroke:#000000;stroke-width:1px;stroke-linecap:butt;stroke-linejoin:miter;stroke-opacity:1" />
    <path
       id="path2826"
       d="m 286.89619,337.93432 c 0.1321,-0.042 0.46644,0.0568 0.57998,0 0.0815,-0.0408 0.11181,-0.15257 0.19332,-0.19332 0.11528,-0.0576 0.29552,0.0911 0.38665,0 0.0456,-0.0456 -0.0456,-0.14776 0,-0.19333 0.0456,-0.0456 0.12889,0 0.19333,0 0.0644,0 0.12888,0 0.19333,0 0.45109,0 0.90219,0 1.35328,0 0.12889,0 0.25777,0 0.38665,0 0.0645,0 0.13569,0.0288 0.19333,0 0.0815,-0.0408 0.11181,-0.15257 0.19333,-0.19333 0.0767,-0.0383 0.54045,0.0395 0.57997,0 0.0456,-0.0456 -0.0456,-0.14776 0,-0.19332 0.0456,-0.0456 0.14776,-0.0456 0.19333,0 0.0456,0.0456 0.0644,0.19332 0,0.19332 -0.0644,0 0,-0.25777 0,-0.19332 0,0.19332 0,0.38665 0,0.57998 0,0.0644 0.0456,0.14775 0,0.19332 -0.0456,0.0456 -0.14776,-0.0456 -0.19333,0 -0.0456,0.0456 0.0456,0.14776 0,0.19333 -0.0456,0.0456 -0.13568,-0.0288 -0.19332,0 -0.0815,0.0408 -0.11181,0.15257 -0.19333,0.19332 -0.11528,0.0576 -0.29552,-0.0911 -0.38665,0 -0.0456,0.0456 0.0456,0.14776 0,0.19333 -0.0395,0.0395 -0.50333,-0.0383 -0.57998,0 -0.0815,0.0408 -0.11181,0.15257 -0.19333,0.19333 -0.0576,0.0288 -0.14775,-0.0456 -0.19332,0 -0.0456,0.0456 0.0456,0.14776 0,0.19332 -0.0456,0.0456 -0.14776,-0.0456 -0.19333,0 -0.0456,0.0456 0.0644,0.19333 0,0.19333 -0.0644,0 0.0644,-0.19333 0,-0.19333 -0.0911,0 -0.10219,0.19333 -0.19332,0.19333 -0.0645,0 -0.0288,-0.13569 0,-0.19333 0.11081,-0.22163 0.40337,-0.26892 0.57997,-0.38665 0.39839,-0.26559 -0.0127,-0.38028 0.38666,-0.57998 0.0576,-0.0288 0.13568,0.0288 0.19332,0 0.0815,-0.0408 0.11182,-0.15257 0.19333,-0.19332 0.0576,-0.0288 0.14776,0.0456 0.19333,0 0.0456,-0.0456 -0.0456,-0.14776 0,-0.19333 0.0456,-0.0456 0.14775,0.0456 0.19332,0 0.0456,-0.0456 -0.0456,-0.14776 0,-0.19333 0.0911,-0.0911 0.27138,0.0576 0.38665,0 0.0815,-0.0408 0.11182,-0.15257 0.19333,-0.19332 0.12151,-0.0608 0.6518,0.0607 0.77331,0 0.0815,-0.0408 0.11181,-0.15257 0.19332,-0.19333 0.11528,-0.0576 0.26438,0.0408 0.38666,0 0.1367,-0.0456 0.24995,-0.14776 0.38665,-0.19333 0.10907,-0.0364 0.45294,0 0.57998,0 0.38665,0 0.7733,0 1.15995,0 0.0644,0 0.12889,0 0.19333,0 0.0644,0 0.19333,-0.0644 0.19333,0 0,0.0645 -0.19333,-0.0644 -0.19333,0 0,0.40229 0.27112,0.0778 0.38665,0.19333 0.0456,0.0456 0,0.12888 0,0.19333 0,0.38665 0,0.7733 0,1.15995 0,0.0645 0,0.12889 0,0.19333 0,0.0644 0.0456,0.14776 0,0.19333 -0.0456,0.0456 -0.14776,-0.0456 -0.19332,0 -0.0456,0.0456 0.0456,0.14776 0,0.19332 -0.0456,0.0456 -0.19333,0.0644 -0.19333,0 0,-0.0644 0.12888,0 0.19333,0 0.19332,0 0.38665,0 0.57998,0 0.0912,0 0.95786,0.009 0.96663,0 0.0456,-0.0456 -0.0456,-0.14776 0,-0.19332 0.0465,-0.0465 0.72678,0.0465 0.7733,0 0.0456,-0.0456 -0.0456,-0.14776 0,-0.19333 0.0967,-0.0967 0.48332,0.0967 0.57998,0 0.0456,-0.0456 -0.0456,-0.14776 0,-0.19333 0.0456,-0.0456 0.14776,0.0456 0.19333,0 0.0456,-0.0456 -0.0456,-0.14775 0,-0.19332 0.0465,-0.0465 0.72678,0.0465 0.7733,0 0.0456,-0.0456 -0.0456,-0.14776 0,-0.19333 0.0456,-0.0456 0.14776,0.0456 0.19333,0 0.25777,-0.25777 -0.32221,-0.19332 0.19332,-0.19332 0.45339,0 -0.0911,0.0456 0.38666,-0.19333 0.0576,-0.0288 0.12888,0 0.19332,0 0.0645,0 0.12889,0 0.19333,0 0.0644,0 0.19333,-0.0644 0.19333,0 0,0.0644 -0.14776,-0.0456 -0.19333,0 -0.0456,0.0456 0.0456,0.14776 0,0.19333 -0.0456,0.0456 -0.13569,-0.0288 -0.19333,0 -0.0815,0.0408 -0.11181,0.15257 -0.19332,0.19332 -0.0576,0.0288 -0.14776,-0.0456 -0.19333,0 -0.0456,0.0456 0.0456,0.14776 0,0.19333 -0.0456,0.0456 -0.14776,-0.0456 -0.19333,0 -0.0456,0.0456 0.0456,0.14776 0,0.19332 -0.0456,0.0456 -0.14775,-0.0456 -0.19332,0 -0.0911,0.0911 0.0911,0.29552 0,0.38666 -0.0456,0.0456 -0.14776,-0.0456 -0.19333,0 -0.0456,0.0456 -0.0456,0.14776 0,0.19332 0.009,0.009 0.87548,0 0.96663,0 0.0645,0 0.14776,0.0456 0.19333,0 0.0456,-0.0456 -0.0456,-0.14776 0,-0.19332 0.0911,-0.0911 0.29552,0.0911 0.38665,0 0.0456,-0.0456 -0.0456,-0.14776 0,-0.19333 0.0456,-0.0456 0.14776,0.0456 0.19333,0 0.0456,-0.0456 -0.0456,-0.14776 0,-0.19333 0.0911,-0.0911 0.27137,0.0576 0.38665,0 0.0513,-0.0257 0.55431,-0.52864 0.57998,-0.57997 0.0288,-0.0576 -0.0456,-0.14776 0,-0.19333 0.0911,-0.0911 0.29552,0.0911 0.38665,0 0.0456,-0.0456 -0.0456,-0.14776 0,-0.19333 0.4,-0.4 -0.0156,0.61125 0.38665,-0.19332 0.0576,-0.11528 -0.0911,-0.29552 0,-0.38666 0.0456,-0.0456 0.14776,0.0456 0.19333,0 0.0456,-0.0456 -0.0644,-0.19332 0,-0.19332 0.0644,0 0.0644,0.19332 0,0.19332 -0.0911,0 -0.11181,-0.15257 -0.19333,-0.19332 -0.0576,-0.0288 -0.12888,0 -0.19332,0 -0.0644,0 -0.13569,-0.0288 -0.19333,0 -0.0815,0.0408 -0.10687,0.1645 -0.19332,0.19332 -0.11311,0.0377 -0.99402,0 -1.15996,0 -0.0644,0 -0.13569,-0.0288 -0.19333,0 -0.0815,0.0408 -0.11181,0.15257 -0.19332,0.19333 -0.11528,0.0576 -0.29552,-0.0911 -0.38666,0 0,0.51554 0.0645,-0.0644 -0.19332,0.19333 -0.0911,0.0911 0.0911,0.29551 0,0.38665 -0.0456,0.0456 -0.14776,-0.0456 -0.19333,0 -0.0456,0.0456 0.0456,0.14776 0,0.19333 -0.0911,0.0911 -0.27137,-0.0576 -0.38665,0 -0.42746,0.21372 -0.06,0.11998 -0.19333,0.38665 -0.0552,0.11046 -0.5749,0.39173 -0.38665,0.57998 0.0456,0.0456 0.12888,0 0.19333,0 0.13703,0 1.10997,0.025 1.15995,0 0.0815,-0.0408 0.11182,-0.15257 0.19333,-0.19333 0.0553,-0.0277 0.86335,0 0.96663,0 0.0644,0 0.14776,0.0456 0.19333,0 0.10189,-0.10189 0.0914,-0.28476 0.19332,-0.38665 0.0911,-0.0911 0.27138,0.0576 0.38666,0 0.0815,-0.0408 0.11181,-0.15257 0.19332,-0.19333 0.15466,-0.0773 0.42532,0.0773 0.57998,0 0.0815,-0.0408 0.11181,-0.15257 0.19333,-0.19332 0.0766,-0.0383 0.54045,0.0395 0.57998,0 0.0456,-0.0456 -0.0456,-0.14776 0,-0.19333 0.0599,-0.0599 0.90676,0.0599 0.96663,0 0.0456,-0.0456 -0.0456,-0.14776 0,-0.19333 0.0599,-0.0599 0.90677,0.0599 0.96663,0 0.0456,-0.0456 -0.0456,-0.14776 0,-0.19332 0.0967,-0.0967 0.48331,0.0967 0.57998,0 0.0456,-0.0456 -0.0456,-0.14776 0,-0.19333 0.0456,-0.0456 0.12888,0 0.19332,0 0.0644,0 0.19333,-0.0644 0.19333,0 0,0.0644 -0.25777,0 -0.19333,0 0.32221,0 0.64442,0 0.96664,0 l 0.96663,-0.57998 c 0,-0.51553 -0.0645,0.0644 0.19332,-0.19332 0.0456,-0.0456 -0.0456,-0.14776 0,-0.19333 0.0456,-0.0456 0.14776,0.0456 0.19333,0 0.0456,-0.0456 -0.0456,-0.14776 0,-0.19333 0.0456,-0.0456 0.14776,0.0456 0.19333,0 0.0456,-0.0456 -0.0456,-0.14776 0,-0.19332 0.0456,-0.0456 0.13568,0.0288 0.19332,0 0.0815,-0.0408 0.11181,-0.15257 0.19333,-0.19333 0.11528,-0.0576 0.29552,0.0911 0.38665,0 0.0456,-0.0456 -0.0456,-0.14776 0,-0.19333 0.0456,-0.0456 0.14776,0.0456 0.19333,0 0.0456,-0.0456 -0.0456,-0.14775 0,-0.19332 0.0456,-0.0456 0.14776,0.0456 0.19332,0 0.0456,-0.0456 -0.0456,-0.14776 0,-0.19333 0.0456,-0.0456 0.14776,0.0456 0.19333,0 0.0456,-0.0456 -0.0456,-0.14776 0,-0.19332 0.0456,-0.0456 0.14776,0.0456 0.19333,0 0.0456,-0.0456 -0.0456,-0.14776 0,-0.19333 0.0911,-0.0911 0.29551,0.0911 0.38665,0 0.0456,-0.0456 -0.0456,-0.14776 0,-0.19333 0.0456,-0.0456 0.12888,0 0.19332,0 0,-0.12888 -0.0576,-0.27137 0,-0.38665 0.0288,-0.0576 0.13569,0.0288 0.19333,0 0.0815,-0.0408 0.11181,-0.15257 0.19333,-0.19333 0.0576,-0.0288 0.14776,0.0456 0.19332,0 0.0456,-0.0456 -0.0576,-0.1645 0,-0.19332 1.09552,0 0.0645,0.12888 0.38666,-0.19333 0.0465,-0.0465 0.72678,0.0465 0.7733,0 0.0456,-0.0456 -0.0456,-0.14776 0,-0.19332 0.0456,-0.0456 0.14776,0.0456 0.19333,0 0.0911,-0.0911 -0.0911,-0.29552 0,-0.38666 0.4,-0.4 -0.0156,0.61125 0.38665,-0.19332 0.0288,-0.0576 -0.0456,-0.14776 0,-0.19333 0.4,-0.4 -0.0156,0.61125 0.38665,-0.19333 0.0288,-0.0576 -0.0456,-0.14775 0,-0.19332 0.0456,-0.0456 0.13569,0.0288 0.19333,0 0.0513,-0.0257 0.33533,-0.361 0.38665,-0.38665 0.0576,-0.0288 0.14776,0.0456 0.19333,0 0.0456,-0.0456 -0.0456,-0.14776 0,-0.19333 0.0456,-0.0456 0.13568,0.0288 0.19332,0 0.0513,-0.0257 0.55432,-0.52865 0.57998,-0.57998 0.0288,-0.0576 -0.0456,-0.14776 0,-0.19333 0.0456,-0.0456 0.14776,0.0456 0.19333,0 0.0456,-0.0456 0,-0.12888 0,-0.19332 0,-0.0644 0.0456,-0.14776 0,-0.19333 -0.0456,-0.0456 -0.12889,0 -0.19333,0 -0.0644,0 -0.12888,0 -0.19332,0 -0.0644,0 -0.13569,-0.0288 -0.19333,0 -0.16303,0.0815 -0.21374,0.32901 -0.38665,0.38665 -0.71668,0.2389 -0.1266,-0.26005 -0.57998,0.19333 -0.0644,0.0644 -0.11181,0.15257 -0.19333,0.19333 -0.11528,0.0576 -0.29552,-0.0911 -0.38665,0 -0.0456,0.0456 0.0456,0.14776 0,0.19332 -0.0456,0.0456 -0.14776,-0.0456 -0.19333,0 -0.0911,0.0911 0.0911,0.29552 0,0.38666 -0.0456,0.0456 -0.14776,-0.0456 -0.19332,0 -0.0456,0.0456 0.0288,0.13568 0,0.19332 -0.0408,0.0815 -0.15257,0.11181 -0.19333,0.19333 -0.0288,0.0576 0,0.12888 0,0.19332 -0.0644,0.0645 -0.15257,0.11182 -0.19333,0.19333 -0.0288,0.0576 0.0456,0.14776 0,0.19333 -0.0456,0.0456 -0.14775,-0.0456 -0.19332,0 -0.0456,0.0456 0.0288,0.13568 0,0.19332 -0.0408,0.0815 -0.15257,0.11182 -0.19333,0.19333 -0.0288,0.0576 0.0456,0.14776 0,0.19333 -0.0456,0.0456 -0.14776,-0.0456 -0.19332,0 -0.0456,0.0456 0.0288,0.13568 0,0.19332 -0.12884,0.25767 -0.25782,0.12899 -0.38666,0.38665 -0.0288,0.0576 0.0456,0.14776 0,0.19333 -0.0456,0.0456 -0.13568,-0.0288 -0.19332,0 -0.80458,0.40229 0.20667,-0.0133 -0.19333,0.38665 -0.0456,0.0456 -0.14776,-0.0456 -0.19333,0 -0.0456,0.0456 0.0456,0.14776 0,0.19333 -0.0456,0.0456 -0.14775,-0.0456 -0.19332,0 -0.0456,0.0456 0.0456,0.14776 0,0.19333 -0.0456,0.0456 -0.14776,-0.0456 -0.19333,0 -0.0456,0.0456 0.0288,0.13568 0,0.19332 -0.0408,0.0815 -0.15257,0.11181 -0.19332,0.19333 -0.0288,0.0576 0.0456,0.14776 0,0.19332 -0.0456,0.0456 -0.13569,-0.0288 -0.19333,0 -0.0815,0.0408 -0.11181,0.15257 -0.19333,0.19333 -0.0576,0.0288 -0.14776,-0.0456 -0.19332,0 -0.0456,0.0456 0.0456,0.14776 0,0.19333 -0.0456,0.0456 -0.14776,-0.0456 -0.19333,0 -0.0911,0.0911 0.0911,0.29551 0,0.38665 -0.0456,0.0456 -0.14776,-0.0456 -0.19333,0 -0.0456,0.0456 0.0456,0.14776 0,0.19333 -0.0456,0.0456 -0.14775,-0.0456 -0.19332,0 -0.0456,0.0456 0.0456,0.14775 0,0.19332 -0.0456,0.0456 -0.14776,-0.0456 -0.19333,0 -0.0456,0.0456 0.0456,0.14776 0,0.19333 -0.0456,0.0456 -0.14776,-0.0456 -0.19332,0 -0.0456,0.0456 0.0288,0.13569 0,0.19332 -0.0408,0.0815 -0.15257,0.11182 -0.19333,0.19333 -0.0576,0.11528 0.0576,0.27138 0,0.38665 -0.40229,0.80458 0.0134,-0.20667 -0.38665,0.19333 -0.0911,0.0911 0.0576,0.27137 0,0.38665 -0.0408,0.0815 -0.15257,0.11181 -0.19333,0.19333 -0.0288,0.0576 0.0456,0.14776 0,0.19332 -0.0456,0.0456 -0.14776,-0.0456 -0.19333,0 -0.0456,0.0456 0,0.12889 0,0.19333 0,0.0644 0.0645,0.19333 0,0.19333 -0.0644,0 0,-0.25777 0,-0.19333 0,0.12888 -0.0576,0.27138 0,0.38665 0.0288,0.0576 0.19333,-0.0644 0.19333,0 0,0.0578 -0.64118,-0.12726 0,0.19333 0.0588,0.0294 0.49291,0 0.57998,0 0.0644,0 0.14776,0.0456 0.19333,0 0.0456,-0.0456 -0.0456,-0.14776 0,-0.19333 0.0456,-0.0456 0.13568,0.0288 0.19332,0 0.0372,-0.0186 0.34944,-0.36804 0.38665,-0.38665 0.0576,-0.0288 0.14776,0.0456 0.19333,0 0.0456,-0.0456 -0.0456,-0.14776 0,-0.19333 0.0456,-0.0456 0.14776,0.0456 0.19333,0 0.0456,-0.0456 -0.0288,-0.13568 0,-0.19332 0.0408,-0.0815 0.15257,-0.11181 0.19332,-0.19333 0.0288,-0.0576 -0.0456,-0.14776 0,-0.19332 0.0456,-0.0456 0.14776,0.0456 0.19333,0 0.0456,-0.0456 -0.0288,-0.13569 0,-0.19333 0.0408,-0.0815 0.15257,-0.11181 0.19333,-0.19333 0.0288,-0.0576 -0.0288,-0.13568 0,-0.19332 0.0408,-0.0815 0.15257,-0.11182 0.19332,-0.19333 0.0773,-0.15466 -0.0773,-0.42532 0,-0.57998 0.0408,-0.0815 0.15257,-0.11181 0.19333,-0.19332 0.0352,-0.0704 -0.0339,-0.77331 0,-0.77331 0.0644,0 0,0.12888 0,0.19333"
       style="fill:none;stroke:#000000;stroke-width:1px;stroke-linecap:butt;stroke-linejoin:miter;stroke-opacity:1" />
    <path
       id="path2828"
       d="m 311.44862,337.16102 c 0.18926,0.0368 1.04978,-0.0551 1.15996,0 0.0815,0.0408 0.11181,0.15257 0.19333,0.19332 0.10308,0.0516 0.28356,-0.0515 0.38665,0 0.0815,0.0408 0.11181,0.15257 0.19333,0.19333 0.0767,0.0383 0.54045,-0.0395 0.57997,0 0.0193,0.0193 0.0193,0.56065 0,0.57998 -0.0456,0.0456 -0.14775,-0.0456 -0.19332,0 -0.0911,0.0911 0.0911,0.29552 0,0.38665 -0.0456,0.0456 -0.14776,-0.0456 -0.19333,0 -0.0456,0.0456 0,0.12888 0,0.19333 0,0.0644 -0.0456,0.14776 0,0.19332 0.0456,0.0456 0.12889,0 0.19333,0 0.49263,0 0.25767,-0.2255 0.57998,-0.38665 0.0576,-0.0288 0.14776,0.0456 0.19332,0 0.0456,-0.0456 -0.0456,-0.14776 0,-0.19333 0.0911,-0.0911 0.29552,0.0911 0.38666,0 0.0456,-0.0456 -0.0456,-0.14775 0,-0.19332 0.0456,-0.0456 0.14776,0.0456 0.19332,0 0.0456,-0.0456 -0.0456,-0.14776 0,-0.19333 0.0456,-0.0456 0.14776,0.0456 0.19333,0 0.0456,-0.0456 -0.0288,-0.13569 0,-0.19332 0.0408,-0.0815 0.15257,-0.11182 0.19333,-0.19333 0.0288,-0.0576 -0.0456,-0.14776 0,-0.19333 0.0456,-0.0456 0.14775,0.0456 0.19332,0 0.0634,-0.0634 -0.0634,-0.32328 0,-0.38665 0.0456,-0.0456 0.14776,0.0456 0.19333,0 0.0284,-0.0284 -0.0227,-0.57998 0,-0.57998 0.0644,0 0,0.25777 0,0.19333 0,-1.09552 -0.12889,-0.0644 0.19332,-0.38665 0.0456,-0.0456 -0.0456,-0.14776 0,-0.19333 0.0456,-0.0456 0.19333,-0.0644 0.19333,0 0,0.0644 -0.14776,-0.0456 -0.19333,0 -0.0456,0.0456 0.0456,0.14776 0,0.19333 -0.0456,0.0456 -0.14775,-0.0456 -0.19332,0 -0.0456,0.0456 0.0456,0.14775 0,0.19332 -0.0456,0.0456 -0.14776,-0.0456 -0.19333,0 -0.0456,0.0456 0.0288,0.13569 0,0.19333 -0.40229,0.80458 0.0134,-0.20667 -0.38665,0.19332 -0.0456,0.0456 0.0456,0.14776 0,0.19333 -0.0456,0.0456 -0.14776,-0.0456 -0.19333,0 -0.0456,0.0456 0.0456,0.14776 0,0.19333 -0.0456,0.0456 -0.12888,0 -0.19332,0 0,0.0644 0.0288,0.13568 0,0.19332 -0.0408,0.0815 -0.15257,0.11182 -0.19333,0.19333 -0.0294,0.0588 0,0.49291 0,0.57998 0,0.0644 -0.0456,0.14776 0,0.19332 0.0456,0.0456 0.19333,-0.0644 0.19333,0 0,0.0645 -0.25777,0 -0.19333,0 1.09552,0 0.0644,-0.12888 0.38665,0.19333 0.0456,0.0456 0.12889,0 0.19333,0 0.17426,0 0.84495,0.0406 0.96663,0 0.1367,-0.0456 0.24686,-0.15838 0.38665,-0.19333 0.12504,-0.0312 0.25777,0 0.38666,0 0.0644,0 0.13568,0.0288 0.19332,0 0.0815,-0.0408 0.10687,-0.1645 0.19333,-0.19332 8.7e-4,-2.9e-4 0.57979,1.8e-4 0.57998,0 0.0456,-0.0456 -0.0456,-0.14776 0,-0.19333 0.0456,-0.0456 0.13568,0.0288 0.19332,0 0.0815,-0.0408 0.11182,-0.15257 0.19333,-0.19332 0.10488,-0.0524 0.72041,0.0529 0.7733,0 0.0456,-0.0456 -0.0456,-0.14776 0,-0.19333 0.008,-0.008 0.70231,0 0.77331,0 0.38665,0 0.7733,0 1.15996,0 0.0644,0 0.12888,0 0.19332,0 0.0644,0 0.13569,0.0288 0.19333,0 0.0815,-0.0408 0.10687,-0.16451 0.19333,-0.19333 0.0884,-0.0295 0.68728,0.043 0.7733,0 0.0815,-0.0408 0.11181,-0.15257 0.19333,-0.19332 0.0767,-0.0383 0.54045,0.0395 0.57998,0 0.0456,-0.0456 -0.0576,-0.16451 0,-0.19333 0.17291,-0.0865 0.40706,0.0865 0.57997,0 0.0815,-0.0408 0.11182,-0.15257 0.19333,-0.19333 0.0576,-0.0288 0.12889,0 0.19333,0 0.12888,0 0.26161,0.0313 0.38665,0 0.93356,-0.23339 -0.01,-0.0919 0.57998,-0.38665 0.10639,-0.0532 1.00882,0.0504 1.15996,0 0.0865,-0.0288 0.11181,-0.15257 0.19332,-0.19332 0.11396,-0.057 1.04769,0.0561 1.15996,0 0.51554,-0.25777 -0.57998,-0.19333 0.19333,-0.19333"
       style="fill:none;stroke:#000000;stroke-width:1px;stroke-linecap:butt;stroke-linejoin:miter;stroke-opacity:1" />
  </g>
</svg>
