<?xml version="1.0" encoding="UTF-8"?>
<svg version="1.0" xmlns="http://www.w3.org/2000/svg" width="506" height="119" >
<path fill="#231F20" d="M0.001,101.228c0.319,3.907,1.993,7.774,4.751,10.555c5.096,5.14,13.75,2.932,19.561,0.544 c19.817-8.144,30.684-26.397,39.94-44.75c5.968-11.833,11.44-23.899,18.332-35.243c1.611-2.653,3.305-5.553,5.603-7.68 c1.104-1.022-2.334-0.463-1.833,0.517c0.147,0.288,0.145,0.678,0.168,0.989c0.084,1.088-0.15,2.23-0.361,3.291 c-3.004,15.145-8.873,30.023-13.76,44.627c-0.746,2.23-10.842,31.178-9.747,31.404c5.805,1.198,7.323-9.689,7.957-13.055 c1.794-9.522,0.653-23.436-6.188-30.973c-2.74-3.02-7.775-1.11-9.682,1.852c-2.891,4.489,0.801,10.875,3.702,14.328 c11.897,14.156,34.504,2.275,46.709-5.307c8.044-4.998,14.508-11.889,20.103-19.454c6.707-9.069,14.781-20.37,16.449-31.801 c0.807-5.533-1.633-8.146-6.904-5.502c-2.918,1.464-5.019,4.333-6.882,6.912c-3.979,5.507-6.951,11.89-9.722,18.066 c-5.056,11.27-8.784,23.557-8.94,35.987c-0.095,7.543,2.182,20.491,10.611,23.38c14.184,4.861,26.178-14.966,29.486-25.72 c1.259-4.093,2.112-9.466-1.266-12.756c-2.776-2.704-7.716-1.86-11.025-0.961c-13.376,3.638-21.218,17.283-22.863,30.232 c-0.051,0.403,3.72,0.095,3.863-1.035c1.323-10.412,6.273-20.412,15.298-26.191c6.648-4.258,13.588-1.988,13.161,6.369 c-0.44,8.616-6.108,17.626-11.875,23.699c-3.124,3.29-7.387,6.771-12.073,4.676c-4.497-2.011-6.827-7.842-8.135-12.217 c-3.595-12.022-0.023-25.695,3.956-37.13c2.124-6.102,4.834-11.994,7.799-17.727c2.704-5.229,5.703-10.909,10.287-14.745 c2.11-1.767,1.062,7.123,0.968,7.527c-1.497,6.466-4.982,12.503-8.38,18.122c-5.929,9.805-12.647,19.264-21.621,26.513 c-3.991,3.225-8.479,5.785-13.08,8.023c-6.405,3.115-13.668,6.676-20.94,5.935c-7.882-0.805-14.293-7.596-15.67-15.211 c-0.403-2.231,0.164-4.475,1.876-6.027c-0.367,0.333,2.09,2.621,2.48,3.204c1.625,2.425,2.492,5.389,3.325,8.15 c2.149,7.13,2.5,14.484,1.124,21.789c-0.418,2.223-1.518,8.967-3.785,10.303c1.021-0.234,2.043-0.468,3.064-0.702 c0.728,0.15,11.289-33.421,12.112-35.899c4.421-13.288,10.284-27.221,12.322-41.149c0.578-3.945-2.349-4.615-5.276-2.234 c-5.76,4.686-9.308,13.414-12.698,19.765c-11.379,21.321-19.883,48.04-40.688,62.382c-6.618,4.562-16.958,9.907-23.718,3.089 c-2.423-2.445-3.755-6.403-4.033-9.793C3.812,99.547-0.08,100.236,0.001,101.228L0.001,101.228z
M214.719,19.004c-4.042,11.11-8.572,22.066-13.425,32.845c-3.696,8.211-7.662,16.332-12.29,24.063 c-3.44,5.746-8.496,14.234-15.846,15.35c-8.428,1.279-2.206-23.944-1.458-26.997c2.589-10.578,7.944-20.347,13.975-29.332 c5.599-8.342,12.728-17.454,21.782-22.232c4.139-2.185,7.968-1.699,11.397,1.66c3.832,3.753,2.527,10.036,1.211,14.562 c-1.888,6.491-5.417,12.663-8.678,18.541c-2.019,3.64-4.228,7.192-6.894,10.396c-0.863,1.037-2.848,3.766-4.422,2.325 c-1.121-1.025-1.468-2.76-1.713-4.186c-0.437-2.547,0.696-5.376,2.245-7.338c3.289-4.166,3.512,5.867,3.5,7.044 c-0.08,7.518-2.202,14.861-3.359,22.245c-0.4,2.55-1.106,7.046,2.308,7.773c3.139,0.668,5.936-2.104,7.904-4.137 c6.238-6.446,10.375-15.902,15.436-22.247c-1.183-0.108-2.365-0.217-3.548-0.325c-0.272,1.006-2.292,4.295-3.078,5.938 c-1.771,3.704-3.334,7.559-4.246,11.57c-1.503,6.614,2.42,10.716,8.921,8.023c7.869-3.259,13.976-12.249,18.875-18.779 c2.729-3.638,5.312-7.391,7.762-11.221c1.049-1.64,2.572-3.531,3.058-5.462c0.464-1.84-2.939-0.922-3.548-0.325 c-1.37,1.344-2.11,4.036-2.898,5.72c-1.967,4.203-3.789,8.475-5.426,12.817c-1.144,3.032-6.767,15.651-0.771,16.893 c7.074,1.464,15.42-9.383,19.39-13.684c7.457-8.08,14.855-16.978,20.235-26.615c1.042-1.868-2.874-1.624-3.667-0.341 c-2.684,4.335-5.062,8.877-7.217,13.496c-2.726,5.842-6.075,13.182-4.847,19.79c0.909,4.895,6.146,5.696,10.099,4.239 c6.23-2.296,11.361-7.543,15.889-12.2c12.401-12.757,23.791-28.223,31.449-44.324c1.119-2.353,6.018-11.899,1.545-13.163 c-5.053-1.427-10.253,7.336-12.43,10.432c-7.711,10.965-12.349,23.532-17.604,35.755c-1.567,3.644-3.204,7.258-4.722,10.922 c-0.633,1.525-1.554,3.37-1.468,5.068c0.161,3.172,5.136,3.1,7.172,2.302c3.415-1.338,6.136-4.006,8.714-6.533 c1.553-1.522,3.031-3.12,4.538-4.687c0.602-0.626,1.218-1.236,1.845-1.838c1.393-1.339-1.252-1.649-1.533-0.12 c-0.829,4.504-3.914,13.701,3.608,14.287c7.92,0.617,14.384-7.011,18.497-12.815c2.268-3.199,11.916-16.528,6.135-20.353 c-7.132-4.718-12.37,9.659-13.738,13.781c-1.229,3.704-3.767,11.696-0.898,15.34c2.567,3.261,6.775,0.769,9.244-1.271 c5.448-4.502,10.678-9.343,15.918-14.084c1.727-1.563,7.584-5.475,7.581-8.237c-0.002-1.376-1.89-1.312-2.78-0.869 c-2.382,1.186-3.361,5.99-4.266,8.193c-1.513,3.686-3.846,7.833-4.55,11.778c-0.06,0.333,0.136,0.743,0.447,0.891 c0.006,0.002,0.011,0.005,0.017,0.008c0.932,0.44,2.423,0.329,3.101-0.565c3.602-4.755,5.517-11.833,7.838-17.266 c1.667-3.9,3.303-7.816,4.826-11.775c0.561-1.457,2.065-4.155,1.677-5.809c-0.362-1.542-3.298-0.72-3.766,0.347 c-1.174,2.68-0.61,6.827,0.65,9.323c2.487,4.921,9.184,4.05,13.431,2.358c16.347-6.513,28.768-24.168,37.417-38.741 c1.073-1.809-2.855-1.64-3.668-0.341c-7.842,12.551-15.041,25.543-21.798,38.705c-5.479,10.671-10.563,21.572-14.78,32.808 c-2,5.327-3.707,10.773-5.179,16.268c-0.919,3.431-1.972,7.225-1.551,10.813c0.575,4.916,6.491,0.385,7.897-1.269 c6.074-7.146,10.555-16.875,13.445-25.675c3.344-10.184,2.928-21.462-0.399-31.579c-0.399-1.215-0.872-2.405-1.36-3.586 c-0.135-0.324-0.271-0.646-0.404-0.97c-0.354-0.868-2.681,1.233-1.276,1.334c2.952,0.212,5.844,0.716,8.818,0.668 c8.205-0.13,15.476-3.335,19.063-11.055c0.899-1.937-2.633-1.59-3.432-0.669c-3.745,4.314-7.247,8.847-10.562,13.497 c-2.704,3.793-10.33,13.057-7.562,18.272c3.048,5.743,11.901-1.51,14.551-3.875c7.508-6.701,13.874-16.807,14.698-26.985 c0.149-1.849-3.275-1.21-3.784,0.003c-1.093,2.61-1.935,5.678-1.047,8.453c0.98,3.064,4.884,2.641,7.388,2.774 c2.724,0.146,6.273,0.579,7.589,3.352c2.604,5.487-4.464,13.933-7.331,17.808c1.183,0.108,2.365,0.217,3.548,0.325 c1.906-7.345,5.295-14.726,10.161-20.563c1.756-2.106,3.959-3.763,6.239-5.256c1.121-0.734,0.636-0.36,1.861,0.625 c2.915,2.343,6.695,2.39,10.27,2.25c2.12-0.083,3.038-2.738,0.395-2.635c-2.735,0.107-5.588,0.083-7.743-1.82 c-0.756-0.667-1.577-1.474-2.664-1.499c-3.808-0.088-7.19,3.118-9.815,5.506c-6.488,5.902-10.434,15.38-12.604,23.739 c-0.442,1.706,2.955,1.127,3.548,0.325c3.702-5.001,13.709-17.698,5.167-23.018c-2.396-1.492-5.56-1.713-8.302-1.826 c-2.69-0.11-4.322-0.647-4.138-3.774c0.088-1.494,0.57-3.052,1.146-4.426c-1.262,0.001-2.522,0.002-3.784,0.003 c-0.687,8.479-5.298,16.089-10.783,22.374c-1.958,2.244-13.011,12.338-10.733,3.379c1.556-6.122,6.411-11.955,10.124-16.885 c2.35-3.12,4.802-6.177,7.362-9.127c-1.144-0.223-2.287-0.446-3.432-0.669c-4.247,9.141-13.122,9.23-21.858,8.194 c-1.485-0.176-3.486-0.445-4.627,0.794c-1.078,1.169,0.503,3.406,0.943,4.569c3.946,10.419,3.969,21.683,0.869,32.318 c-1.729,5.932-4.859,11.61-7.889,16.972c-1.751,3.099-3.69,6.774-6.492,9.073c-0.673,0.552,1.147,0.659,0.886-0.09 c-0.181-0.519-0.143-1.112-0.135-1.65c0.023-1.745,0.415-3.501,0.762-5.203c1.334-6.548,3.524-12.983,5.822-19.245 c4.134-11.26,9.34-22.13,14.78-32.808c6.716-13.177,13.96-26.158,21.799-38.705c-1.223-0.114-2.445-0.227-3.668-0.341 c-7.4,12.468-16.803,24.836-28.686,33.349c-3.562,2.551-11.979,7.585-14.923,1.759c-0.946-1.872-1.208-5.874-0.554-7.367 c-1.256,0.116-2.511,0.231-3.766,0.347c0.176,0.748-1.287,3.928-1.747,5.125c-1.435,3.728-2.996,7.408-4.56,11.082 c-2.114,4.969-4.467,12.78-7.367,16.608c1.034-0.188,2.067-0.377,3.101-0.565c0.782,0.37,0.181,1.521,0.673,0.165 c0.284-0.783,0.585-1.56,0.883-2.337c0.764-1.998,1.558-3.983,2.354-5.968c0.78-1.943,1.579-3.878,2.395-5.807 c0.303-0.715,0.616-1.426,0.933-2.136c0.516-1.155,1.147-1.259-0.231-0.573c-0.926-0.29-1.853-0.579-2.779-0.868 c0.002,1.787-5.626,5.75-6.877,6.891c-4.479,4.086-9.07,8.05-13.62,12.057c-1.994,1.757-4.541,4.821-5.351,0.781 c-0.505-2.521,0.157-5.399,0.65-7.865c0.696-3.483,1.958-6.836,3.397-10.071c0.823-1.851,5.014-8.706,5.163-3.194 c0.115,4.25-3.086,8.936-5.231,12.385c-3.016,4.849-7.023,10.039-12.097,12.865c-5.849,3.257-6.33-3.004-5.578-6.943 c0.259-1.354,2.154-5.483,0.613-6.584c-1.542-1.102-3.521,0.303-4.655,1.331c-3.429,3.106-6.355,6.717-9.856,9.754 c-1.095,0.949-4.245,3.837-5.748,2.185c-0.716-0.788,0.854-3.722,1.143-4.436c4.232-10.453,8.599-21.026,13.439-31.203 c2.556-5.375,5.537-10.556,8.887-15.474c1.323-1.943,2.784-3.789,4.343-5.548c0.526-0.593,1.095-1.146,1.669-1.691 c1.759-1.669,0.868-0.166,0.445-1.083c1.471,3.195-2.603,9.826-4.031,12.668c-2.822,5.612-6.227,10.94-9.732,16.144 c-7.496,11.124-16.023,22.27-26.235,31.056c-2.258,1.942-6.697,6.151-10.046,5.417c-4.852-1.064-2.649-9.188-1.81-12.205 c2.248-8.081,6.509-15.917,10.911-23.026c-1.223-0.114-2.445-0.227-3.667-0.341c-4.318,7.736-10.069,14.754-15.796,21.476 c-3.205,3.762-6.572,7.392-10.152,10.8c-1.266,1.205-5.938,6.275-8.088,5.83c-2.939-0.608,3.338-16.169,3.858-17.469 c1.353-3.38,2.84-6.707,4.382-10.004c0.508-1.085,1.97-4.269,2.128-4.423c-1.183-0.109-2.365-0.217-3.548-0.326 c-0.845,3.353-5.526,8.937-7.88,12.269c-4.833,6.842-10.178,14.033-16.902,19.136c-7.858,5.963-6.384-4.455-4.711-9.182 c1.556-4.398,4.798-8.551,6-12.987c0.468-1.728-2.949-1.075-3.548-0.325c-4.13,5.177-7.079,11.435-10.999,16.806 c-2,2.741-4.415,6.432-7.523,8.021c-0.142,0.072-0.214-4.096-0.17-4.525c0.294-2.856,0.962-5.691,1.514-8.505 c0.997-5.087,5.973-23.142-1.999-25.232c-5.761-1.511-9.912,6.55-9.59,11.173c0.582,8.379,7.375,8.678,12.465,3.652 c7.37-7.277,12.536-18.901,16.164-28.473c2.959-7.807,3.84-16.937-4.569-21.401c-5.816-3.087-12.248,0.067-17.126,3.471 c-7.488,5.226-13.397,12.766-18.596,20.159c-5.895,8.382-10.853,17.618-13.954,27.403c-2.628,8.291-6.165,20.663-2.738,29.234 c2.535,6.341,10.107,3.25,14.265,0.73c5.448-3.302,9.1-9.3,12.331-14.599c4.687-7.688,8.576-15.872,12.291-24.063 c4.881-10.762,9.384-21.738,13.425-32.845C219.123,17.322,215.26,17.519,214.719,19.004L214.719,19.004z
M475.28,35.553c-7.372-1.338-15.866-0.065-21.783,4.703c-6.347,5.114-8.825,22.434,3.614,18.736 c11.885-3.534,18.504-17.433,23.742-27.632c4.185-8.146,7.921-16.589,11.178-25.15c0.445-1.168-3.237-0.5-3.703,0.304 c-7.179,12.382-15.434,26.173-18.215,40.34c-1.396,7.11,3.323,9.376,9.823,7.796c9.999-2.432,19.974-11.545,25.269-20.069 c0.871-1.403-2.973-0.897-3.563,0.053c-4.783,7.702-14.115,16.988-23.404,18.613c-7.826,1.369-3.384-10.839-2.27-14.025 c3.982-11.393,9.878-22.336,15.922-32.76c-1.234,0.102-2.469,0.203-3.703,0.304c-5.122,13.461-11.175,27.016-19.19,39.006 c-2.768,4.141-8.001,12.052-13.604,11.581c-5.823-0.49-3.219-9.615-1.937-12.537c3.193-7.273,12.412-8.62,19.407-7.35 C473.939,37.66,477.396,35.938,475.28,35.553L475.28,35.553z
M203.441,113.913c7.133-4.239,14.813-8.061,22.8-10.352c4.128-1.184,13.24-2.055,12.241,4.961 c-0.53,3.722-4.979,6.919-7.933,8.787c1.002,0.098,2.004,0.195,3.007,0.293c9.107-6.006,18.543-11.967,28.552-16.352 c2.497-1.094,0.149-1.803-1.402-1.123c-10.568,4.631-20.537,10.837-30.156,17.182c-1.702,1.122,2.237,0.779,3.007,0.293 c3.679-2.325,8.217-5.911,8.867-10.476c0.791-5.554-6.685-6.602-10.481-6.197c-10.806,1.153-21.555,6.769-30.786,12.254 C198.932,114.504,202.429,114.514,203.441,113.913L203.441,113.913z
M94.967,104.782c-0.245-1.112-0.536-2.215-0.857-3.308c-0.347-1.18-0.74-2.993-1.76-3.804 c-0.984-0.783-4.515,0.722-3.605,1.445c0.95,0.756,1.261,2.574,1.584,3.674c0.293,0.999,0.551,2.011,0.775,3.028 C91.362,106.992,95.239,106.018,94.967,104.782L94.967,104.782z
M157.684,95.69c-0.563-2.883-0.822-6.09,0.085-8.918c0.393-1.224-3.46-0.69-3.852,0.53 c-0.951,2.963-0.687,6.403-0.097,9.423C154.057,97.941,157.938,96.995,157.684,95.69L157.684,95.69z
M338.571,11.038c-7.991,0.495-16.239-0.292-23.981-2.272c-5.739-1.468-10.403-4.739-15.714-7.158 c-2.649-1.207-5.647-2.092-8.546-1.315c-8.113,2.174-0.856,13.096,0.879,17.57c1.415,3.647,2.302,7.57,4.432,10.895 c2.084,3.252,5.842,4.653,9.38,5.673c0.926,0.267,4.365-1.207,3.158-1.555c-8.256-2.381-10.008-7.406-12.674-14.881 c-1.467-4.113-3.683-7.943-4.803-12.173c-0.352-1.327-0.456-2.731,0.102-4.009c0.412-0.946,6.445,2.089,6.718,2.224 c3.829,1.894,7.247,4.104,11.313,5.509c3.898,1.347,8.017,2.029,12.094,2.566c5.258,0.692,10.696,0.906,15.997,0.578 C337.995,12.625,341.134,10.879,338.571,11.038L338.571,11.038z"/>
</svg>