<?xml version="1.0" encoding="UTF-8" standalone="no"?>
<!-- Created with Inkscape (http://www.inkscape.org/) -->
<svg
   xmlns:svg="http://www.w3.org/2000/svg"
   xmlns="http://www.w3.org/2000/svg"
   version="1.0"
   width="272"
   height="210"
   id="svg2">
  <defs
     id="defs5" />
  <path
     d="M 116.125,5.03125 C 114.50776,5.1030627 112.95791,6.0027331 111.34375,7.75 C 108.64765,10.668433 108.39549,11.136149 104.96875,20.5 C 103.21924,25.28067 102.41294,26.431281 100.90625,26.15625 C 99.86621,25.9664 98.665907,25.19865 98.25,24.46875 C 94.467325,20.54874 87.902547,16.605537 84.625,22 C 84.139148,22 83.437087,23.0125 83.0625,24.25 C 80.124086,33.95736 78.281638,42.34562 78.0625,47 C 77.920078,50.025 77.060953,55.875 76.15625,60 C 75.25155,64.125 74.500452,68.5125 74.5,69.75 C 74.49955,70.9875 74.076194,72 73.5625,72 C 73.048805,72 72.651259,68.9625 72.6875,65.25 C 72.766329,57.17564 70.00387,50.323869 65.59375,47.71875 C 61.705077,45.42165 61.145492,45.51647 57,49.15625 C 50.781694,54.616 49.049188,62.615798 53.5625,65.03125 C 57.370252,67.06909 62.049849,65.554978 60.9375,62.65625 C 60.585028,61.73772 59.221199,61 57.9375,61 C 54.863786,61 54.511178,60.129709 56.0625,56.4375 C 58.081554,51.63207 60.046246,50.4148 63.125,52.0625 C 67.057667,54.1672 68.857302,58.610474 68.9375,66.4375 L 69,73.375 L 65.0625,74.21875 C 58.115393,75.68517 56.091841,79.177611 58.53125,85.59375 C 59.508286,88.16355 62.124463,90.897659 63.6875,90.96875 C 65.425213,91.04777 70.49575,84.285443 70.5,81.875 C 70.502545,80.42985 71.116452,78.723287 71.875,78.09375 C 72.978525,77.1779 73.368492,77.497047 73.78125,79.65625 C 74.070306,81.16834 73.739387,82.916863 73.03125,83.625 C 71.744432,84.91181 70.27155,105.18114 70.28125,121.53125 L 70.28125,129.59375 L 65.71875,131.21875 C 61.485957,132.74085 60.928913,132.75297 57.65625,131.1875 C 53.287261,129.09761 50.620865,124.53656 51.25,120.25 C 51.616617,117.75208 52.692786,116.50385 56.21875,114.4375 C 58.691852,112.98816 61.352441,111.70714 62.125,111.59375 C 62.897559,111.48037 64.064319,110.84193 64.71875,110.1875 C 65.373182,109.53306 66.472503,109 67.1875,109 C 69.074198,109 68.793664,107.35707 66.75,106.46875 C 64.753026,105.60072 61.2429,105.85989 60.5,106.9375 C 59.825812,107.91545 53.465249,110.98451 52.09375,111 C 51.490751,111.00681 49.947786,112.66334 48.65625,114.65625 C 46.649365,117.75299 46.407531,119.03939 46.96875,123.53125 C 47.499278,127.77746 48.310372,129.49787 51.25,132.4375 C 55.666267,136.85377 58.121456,137.52973 64.59375,136.25 C 68.126117,135.55156 69.763103,135.58718 70.25,136.375 C 70.627005,136.98501 70.741587,142.89874 70.5,149.5 C 69.837739,167.59589 69.989195,185.80168 70.8125,186.625 C 73.187907,189.00041 73.980181,183.77267 74.96875,159.25 C 75.539399,145.09435 76.318049,132.99089 76.71875,132.375 C 77.11945,131.75911 78.919448,130.68397 80.71875,129.96875 C 85.679266,127.99697 92.982671,122.40891 99.3125,115.75 C 102.44197,112.45784 105.93605,108.80069 107.0625,107.625 C 108.18895,106.4493 109.41246,104.71105 109.78125,103.75 C 110.15004,102.78895 110.9364,102 111.5625,102 C 112.24525,102 112.44885,102.70042 112.03125,103.75 C 110.99708,106.34924 109.52982,117.24378 110.09375,118.15625 C 110.36237,118.59088 109.89602,123.78862 109.0625,129.71875 C 106.00939,151.44017 104.9168,184.98565 106.96875,193.6875 C 107.38339,195.44587 108.4394,197.10342 109.34375,197.34375 C 112.65209,198.22293 113.47823,197.94915 115.0625,195.53125 C 116.70589,193.02313 118.09359,185.10927 119.0625,172.5 C 119.35834,168.65 120.03281,161.45 120.5625,156.5 C 121.09218,151.55 121.99424,143.098 122.5625,137.71875 C 123.13076,132.3395 123.33146,127.54824 123.03125,127.0625 C 122.73105,126.57675 123.14212,123.32875 123.9375,119.84375 C 124.80235,116.05435 125.55776,105.66176 125.84375,94 C 126.10677,83.275 126.82729,73.15 127.4375,71.5 C 130.52086,63.16257 132.83626,57.92496 133.625,57.4375 C 134.76999,55.23485 134.37764,52.534461 135.96875,50.4375 C 136.77625,49.36988 137.45125,47.838959 137.46875,47.03125 C 137.48624,46.22355 139.84028,43.16466 142.71875,40.25 C 147.06462,35.84947 147.77654,34.657018 146.875,33.21875 C 144.269,29.06129 138.27604,31.401089 137.15625,37 C 136.47264,40.41805 134.64207,41.555598 128.34375,42.5 L 123.6875,43.1875 L 121.65625,38.59375 C 119.34632,33.37178 117.90525,32.96304 114.15625,36.4375 C 110.71713,39.62477 111.42065,44.465931 115.65625,46.875 C 117.21933,47.76403 118.49652,49.313841 118.5,50.3125 C 118.50347,51.31116 118.91557,52.886161 119.40625,53.8125 C 119.89692,54.73884 120.57175,60.143648 120.90625,65.8125 C 121.47984,75.53341 121.35814,76.369912 119,80.59375 C 117.62482,83.05692 116.5,85.725773 116.5,86.53125 C 116.5,87.33674 116.05,88 115.5,88 C 113.78077,88 114.41074,82.20796 116.5,78.78125 C 118.72168,75.13736 119.18178,68.056783 117.3125,66.1875 C 116.6525,65.5275 115.17402,65 114.03125,65 C 112.88848,65 111.1606,64.1 110.21875,63 C 109.2769,61.9 108.13132,61 107.65625,61 C 105.99203,61 101.57135,65.849542 100.9375,68.375 C 100.03443,71.97314 102.45554,77 105.09375,77 C 107.3158,77 112.5,72.849368 112.5,71.0625 C 112.5,69.12998 114.26435,69.971879 114.84375,72.1875 C 115.67529,75.3673 112.77239,80.697509 109.40625,82.1875 C 107.80789,82.89501 106.5,83.894191 106.5,84.375 C 106.5,84.85581 105.07931,86.484693 103.34375,88 C 101.25866,89.82048 100.40007,91.300209 100.8125,92.375 C 101.59601,94.41678 104.3589,94.49643 105.125,92.5 C 105.44159,91.675 106.29269,91 107,91 C 107.70731,91 108.55841,90.325 108.875,89.5 C 109.78405,87.13104 111.2302,87.74661 111.8125,90.75 C 112.19634,92.7298 111.60044,94.48026 109.71875,97 C 108.2812,98.925 106.81128,100.725 106.46875,101 C 106.12622,101.275 103.99283,104.05104 101.71875,107.15625 C 99.44467,110.26147 95.418723,114.53647 92.78125,116.65625 C 90.14379,118.77603 87.775,120.725 87.5,121 C 85.77746,122.72254 77.287407,128.13115 76.90625,127.75 C 78.121037,120.85997 78.821936,113.43525 81.03125,107.0625 C 80.709159,106.54135 81.358779,104.63306 82.46875,102.8125 C 83.578718,100.99193 84.497944,98.975037 84.5,98.34375 C 84.502056,97.71247 86.3,94.24628 88.5,90.625 C 90.7,87.00373 92.5,83.793397 92.5,83.5 C 92.5,83.2066 94.088663,80.581988 96.03125,77.65625 C 101.9904,68.68111 99.725814,67.451128 84.1875,71.3125 C 78.423963,72.74478 78.369278,72.755117 77.5,70.46875 C 76.879685,68.8372 77.135732,67.017193 78.40625,64.3125 C 79.39485,62.20795 81.188536,53.975 82.40625,46 C 84.968782,29.21759 85.99646,25.39129 88.15625,24.5625 C 89.87452,23.90314 95.081381,26.77825 97.96875,29.96875 C 100.82495,33.12482 103.98043,32.548969 106.40625,28.4375 C 107.56058,26.48106 108.492,24.118559 108.5,23.1875 C 108.52319,20.49006 111.49353,12.66378 113.21875,10.75 C 115.35082,8.384882 116.39839,8.5363311 119.6875,11.6875 C 121.91156,13.818289 122.5,15.26749 122.5,18.6875 C 122.5,21.0596 122.05,23 121.5,23 C 120.95,23 120.5,23.704291 120.5,24.5625 C 120.5,25.75409 121.38625,26.049511 124.25,25.8125 C 127.73494,25.52407 127.97102,25.28795 127.78125,22.5 C 127.32207,15.75393 126.19871,12.685635 122.8125,8.9375 C 120.35921,6.2219998 118.20431,4.9389193 116.125,5.03125 z M 211.96875,7.84375 C 208.24701,7.918453 206.56976,8.5183631 204.46875,10.53125 C 202.4406,12.474345 201.64431,12.777565 201.25,11.75 C 200.7352,10.408471 194.28335,8 191.21875,8 C 186.94273,10.065133 183.82637,13.79895 180.40625,17.03125 L 176.4375,13.84375 C 170.72664,9.254376 164.64513,9.0887613 160.78125,13.40625 C 157.3479,17.24268 156.0786,19.851531 153.96875,27.46875 C 151.23873,37.32498 154.18805,50.844298 160.40625,57.0625 C 162.09832,58.75457 163.8292,60.736962 164.25,61.46875 C 165.26169,63.22814 176.75117,68 179.96875,68 C 183.75222,68 183.02057,69.786341 178.75,70.96875 C 171.98748,72.84113 171.60829,73.49272 175.25,77.25 C 178.90271,81.01864 179.0829,82.23887 176.59375,86.5 C 174.45947,90.15364 171.07408,90.918161 169.5625,88.09375 C 168.67708,86.43934 168.85049,85.882792 170.5,85 C 173.18827,83.56128 173.08895,81 170.34375,81 C 167.11152,81 164.49497,83.875069 164.53125,87.40625 C 164.57821,91.97593 166.71423,94.16364 171.28125,94.34375 L 175.1875,94.5 L 174.71875,98.625 C 174.06142,104.52219 176.34153,106.50712 184.8125,107.375 C 188.45746,107.74844 192.2416,107.66544 193.21875,107.1875 C 194.19591,106.70955 196.0084,105.79934 197.25,105.15625 L 199.5,103.96875 L 199,113.625 C 198.70878,118.92936 198.23423,123.60169 197.96875,124.03125 C 197.70327,124.46081 196.58771,130.59544 195.5,137.65625 C 193.35925,151.55289 192.98747,153.85099 191.4375,161.625 C 190.36359,167.01131 190.75174,185.25353 192,188.25 C 192.40095,189.2125 193.18441,190 193.75,190 C 194.64604,190 199.5,185.43646 199.5,184.59375 C 199.5,184.42215 199.98197,181.83757 200.5625,178.875 C 201.85214,172.29356 203.5064,150.25449 204.09375,131.84375 C 204.4096,121.94331 205.05908,116.47922 206.5,111.96875 C 207.59328,108.54646 208.5,105.14676 208.5,104.40625 C 208.5,103.66573 210.1875,102.22153 212.25,101.21875 C 214.3125,100.21598 217.32764,98.530867 218.9375,97.46875 L 221.84375,95.53125 L 221.1875,98.03125 C 220.82263,99.3958 220.5075,103.23549 220.5,106.5625 L 220.5,112.59375 L 216.75,113.9375 C 211.92322,115.6415 209.66439,117.63591 207.90625,121.84375 C 206.05144,126.28294 206.13092,129.15606 208.1875,133.46875 C 209.60549,136.44231 210.39312,137 213.125,137 C 217.02383,137 220.5,132.86069 220.5,128.21875 C 220.5,124.93859 222.83941,119.65192 223.84375,120.65625 C 224.65405,121.46655 223.97382,124.56965 220.8125,134.5 C 218.01529,143.28658 216.90978,146.24046 215,150 C 214.30153,151.375 212.93843,155.425 211.96875,159 C 210.99909,162.575 209.75645,166.37503 209.21875,167.4375 C 206.4899,172.82946 204.81305,184.88455 206.125,189.78125 C 206.6589,191.77396 207.19386,191.97333 210.375,191.4375 C 215.46568,190.58002 224.5,181.4468 224.5,177.15625 C 224.5,175.49034 224.91634,173.86528 225.40625,173.5625 C 225.89616,173.25972 226.14911,170.86718 225.96875,168.25 C 225.59009,162.75529 226.88686,160.43073 230.96875,159.40625 C 233.32451,158.81499 233.72171,158.97058 233.21875,160.28125 C 230.25471,168.00542 227.84319,188.59647 229.125,195.25 C 229.71407,198.30773 232.45332,198.95969 234.46875,196.53125 C 235.36843,195.4472 235.40689,193.86323 234.65625,190.34375 C 233.86751,186.6456 233.98478,184.98828 235.09375,182.84375 C 235.87567,181.33168 236.5,179.26731 236.5,178.25 C 236.5,175.64443 238.43803,174 241.53125,174 C 246.08387,174 247.48785,176.6519 246.9375,184.28125 L 246.46875,191 C 246.46875,191 246.48056,193.5 250.0625,193.5 C 253.64444,193.5 253.65625,191 253.65625,191 L 251.11972,182.42356 C 250.12813,171.84182 254.89659,168.03836 261.09375,169.59375 C 263.1694,170.1147 263.5,169.85549 263.5,167.71875 C 263.5,165.35846 261.48582,164.04275 257.8125,164 C 255.77343,163.97627 250.5,169.10096 250.5,171.09375 C 250.5,173.75481 249.09133,173.47343 247.5,170.5 C 246.76412,169.125 245.40706,168 244.46875,168 C 240.11232,168.28118 237.36166,168.94102 235.375,172.59375 C 234.58806,173.08011 234.40416,172.41258 234.78125,170.40625 C 236.21284,162.78928 238.40677,155.74737 239.875,154.125 C 240.96616,152.91928 241.5,150.51888 241.5,146.75 C 241.5,143.66661 241.98938,139.86081 242.59375,138.3125 C 243.19812,136.76419 243.98562,132.36647 244.34375,128.53125 C 244.89225,122.6574 245.36084,121.3771 247.25,120.4375 C 251.52705,118.31023 256.30847,111.12454 254.9375,108.90625 C 254.6261,108.40241 253.39254,108.00842 252.1875,108 C 247.63626,107.96819 247.47677,107.14578 249.71875,94.96875 C 251.37018,85.99919 251.84249,79.663417 251.8125,65.90625 C 251.76441,43.84677 251.05051,37.749938 248.09375,34.3125 C 245.94131,31.81014 245.68615,31.75001 243.5,33.28125 C 240.88563,35.11243 237.50986,39.88015 237.5,41.75 C 237.48794,44.03795 241.51565,43.100579 242.46875,40.59375 C 243.71552,37.3145 245.22094,36.586761 246.34375,38.71875 C 247.72605,41.34344 248.95183,63 247.71875,63 C 247.16749,63 246.48495,62.44373 246.21875,61.75 C 245.95254,61.05627 243.62494,59.42036 241.03125,58.125 C 237.13105,56.17715 235.43817,55.881922 231.25,56.4375 C 227.57221,56.92538 225.94499,56.760452 225.34375,55.8125 C 224.08718,53.83128 224.33779,43.223739 225.6875,41.0625 C 226.6206,39.56836 226.59165,38.83378 225.5625,37.59375 C 223.70928,35.36075 222.86343,35.593009 220.90625,38.90625 C 219.75112,40.86174 217.68343,42.28495 214.59375,43.28125 C 209.51181,44.91997 208.5,44.72943 208.5,42.09375 C 208.5,39.52857 205.07154,36.7699 202.34375,37.15625 C 200.39023,37.43294 199.9404,38.160509 199.6875,41.625 C 199.44289,44.97587 199.85485,46.115489 201.75,47.625 C 204.01494,49.42906 204.07695,50.021341 204.28125,65.9375 C 204.42102,76.82581 204.87977,82.60193 205.625,83.0625 C 206.3471,83.50878 206.61247,86.123503 206.34375,90.34375 C 205.95935,96.38065 205.15589,98.999652 204.0625,97.90625 C 203.826,97.66975 203.3023,89.677823 202.90625,80.15625 C 202.20663,63.33614 202.12266,62.815409 199.78125,61.28125 C 197.67473,59.90101 197.20648,59.887282 195.9375,61.15625 C 193.94282,63.15093 192.38556,68.796493 193.625,69.5625 C 195.5069,70.72558 197.66327,69.089751 197,67 C 196.65002,65.89729 196.825,65 197.375,65 C 199.02449,65 199.3925,67.80166 199.96875,83.71875 C 200.48847,98.07463 200.43469,98.9835 198.59375,99.96875 C 195.74023,101.49591 195.63339,101.36418 196.21875,97 C 196.55036,94.52767 196.27622,92.435273 195.5,91.5 C 194.08598,89.79621 189.93913,89.48046 189,91 C 188.1221,92.42047 186.87209,92.247079 185.0625,90.4375 C 184.10924,89.48425 182.71747,89.113589 181.5,89.5 C 179.08095,90.26777 179.03478,89.77646 181.09375,85.4375 C 182.53588,82.39844 182.55219,81.798218 181.15625,79 C 179.49797,75.67589 179.90221,73 182.0625,73 C 184.56864,73 190.5,68.799058 190.5,67.03125 C 190.5,65.59857 189.30767,65.159183 184.09375,64.625 C 180.56467,64.26344 175.65221,63.059012 173.1875,61.96875 C 166.68921,59.09425 159.95612,51.12553 159.28125,45.5 C 159.08331,43.85 158.35205,41.477198 157.65625,40.21875 C 155.23106,35.83259 158.95156,20.349899 163.25,16.96875 C 166.93919,14.06683 170.07099,14.508491 174.03125,18.46875 C 176.70253,21.14002 177.5,22.75795 177.5,25.53125 C 177.5,32.85018 182.37529,36.36604 182.65625,29.25 C 182.73768,27.1875 182.88787,24.825 183,24 C 183.11213,23.175 183.26232,21.957811 183.34375,21.3125 C 183.68533,18.60573 188.74371,13.98666 191.34375,14 C 198.66597,14.03758 200.20615,16.008409 198.40625,23.03125 C 197.75112,25.58744 197.50796,28.88132 197.875,30.34375 C 198.57017,33.11357 200.83034,33.87604 202.125,31.78125 C 202.89419,30.53666 204.30475,23.789729 204.875,18.59375 C 205.4338,13.50207 211.71276,10.14798 214.46875,13.46875 C 215.92126,15.21892 215.00756,20.34451 212.9375,22.0625 C 210.63097,23.97675 211.25455,25.709521 214.6875,26.90625 C 219.35402,28.53301 220.24814,27.014 219.5625,18.5 C 218.79186,8.930428 217.92177,7.7242598 211.96875,7.84375 z M 47.1875,19.71875 C 46.661972,19.713389 46.076604,19.816084 45.4375,20.03125 C 41.876428,21.230148 38.076504,22.87827 35.1875,28.5 C 33.815956,31.1689 33.559389,31.29793 32.90625,29.625 C 32.502458,28.59074 30.56987,26.24461 28.59375,24.40625 C 25.710868,21.72435 24.148537,21.05296 20.75,21.03125 C 16.557435,21.00447 16.505907,21.06351 13.3125,27.25 C 8.195634,37.16275 5.8859918,51.354949 8.8125,54.90625 C 9.528043,55.77456 10.700601,58.75 11.4375,61.5 C 15.755511,77.6142 16.324723,78.693219 21.125,79.59375 L 24.75,80.28125 L 24.15625,90.375 C 23.821475,95.93838 23.09237,106.575 22.5625,114 C 20.299376,145.71294 21.888899,194.09026 25.28125,196.75 C 27.512589,198.49946 27.779566,198.37533 29.84375,194.75 C 32.394494,190.27012 33.434642,179.45628 34.75,143.5 C 36.058518,107.73073 35.950291,85.044041 34.5,83.59375 C 32.468928,81.56268 33.598743,80.006409 37.84375,78.9375 C 41.843105,77.93045 47.5,73.955959 47.5,72.15625 C 47.5,69.87797 45.175075,69.401297 39.71875,70.5625 C 31.86915,72.23302 30.5,72.901603 30.5,75.09375 C 30.5,76.1349 30.05,77 29.5,77 C 28.916075,77 28.5,73.642292 28.5,68.9375 C 28.5,64.50605 27.98593,58.800318 27.34375,56.25 C 26.453618,52.71496 26.453619,51.51546 27.34375,51.21875 C 27.985929,51.00469 28.5,50.324969 28.5,49.71875 C 28.5,49.11253 29.388153,47.681488 30.46875,46.53125 C 31.751769,45.16554 32.22339,43.670501 31.84375,42.21875 C 31.243441,39.92317 29.087247,39.2408 28,41 C 27.306847,42.12154 22.5,42.395638 22.5,41.3125 C 22.5,40.93009 23.61725,39.441909 24.96875,38.03125 C 26.64775,36.27875 27.12702,35.026479 26.53125,34.0625 C 25.794009,32.86962 25.254975,32.917959 23.03125,34.375 C 20.133353,36.27378 18.261563,40.24044 18.71875,43.4375 C 18.943942,45.01223 19.913243,45.61881 22.875,46 L 26.78125,46.5 L 22.8125,51.5 C 20.643428,54.25 18.606085,57.273868 18.25,58.21875 C 17.327936,60.66549 19.297327,61.499319 21.4375,59.5625 C 23.130084,58.03073 23.27008,58.077212 23.84375,60.21875 C 24.181137,61.47824 24.49249,65.572403 24.5,69.34375 C 24.51164,75.18882 24.254605,76.111163 22.90625,75.59375 C 22.036266,75.2599 20.960815,75 20.5,75 C 20.039185,75 18.905559,72.6375 17.96875,69.75 C 16.661856,65.968961 14.64674,62.884696 14.5,58.84375 C 12.583727,51.960902 11.703363,46.229575 13,38.71875 C 14.886448,30.23953 17.648885,25 20.28125,25 C 23.086354,25 28.436415,29.407451 30.84375,33.71875 C 35.133327,41.40096 35.357612,41.66175 36.46875,40 C 37.020391,39.175 37.483297,37.6 37.5,36.5 C 37.532372,34.36805 39.483656,28.32393 40.8125,26.25 C 41.253007,25.5625 42.926388,25 44.53125,25 C 49.915936,25 52.254001,32.51432 50.28125,43.5 C 49.886186,45.7 49.987326,48.175 50.5,49 C 52.011632,51.43253 54.009721,48.42224 55.46875,41.5 C 56.164306,38.2 57.055814,35.05 57.46875,34.5 C 57.881686,33.95 58.505929,32.325131 58.84375,30.90625 C 59.632993,27.59134 65.241917,24.455441 68.78125,25.34375 C 71.774564,26.09503 73.265182,30.6935 71.5625,33.875 C 69.841749,37.09025 70.244726,40 72.40625,40 C 73.934299,40 74.450868,39.023901 75,35.03125 C 75.978963,27.91335 74.85799,22.541869 72.09375,21.0625 C 67.770306,18.74866 58.115671,23.01067 56.25,28.0625 C 52.457679,29.122724 52.267602,19.770573 47.1875,19.71875 z M 143.375,33.9375 C 143.64194,33.945793 143.88197,34.038217 144.0625,34.21875 C 144.31715,34.4734 143.60337,35.50146 142.5,36.5 C 140.66929,38.15677 140.5,38.16391 140.5,36.625 C 140.5,35.312016 142.21827,33.901563 143.375,33.9375 z M 118.0625,38.21875 C 118.46801,38.0869 118.5,38.681975 118.5,40.21875 C 118.5,43.34707 116.74777,44.85584 115.84375,42.5 C 115.48816,41.57334 115.9507,40.143048 116.875,39.21875 C 117.44337,38.650377 117.8192,38.29786 118.0625,38.21875 z M 203.53125,40.6875 C 204.39465,40.6875 205.84453,41.63969 205.84453,43.124739 C 205.84453,44.609788 205.64595,45.843488 204.78255,45.843488 C 203.91915,45.843486 202.46927,44.860049 202.46927,43.375 C 202.46927,41.88995 202.66785,40.6875 203.53125,40.6875 z M 131.9375,46.53125 C 132.21082,46.531708 132.40209,46.558345 132.46875,46.625 C 132.73537,46.89162 131.87968,50.132619 130.5625,53.8125 C 129.24531,57.49238 127.68543,61.9625 127.09375,63.75 C 126.50207,65.5375 125.74214,67 125.40625,67 C 125.07037,67 124.50688,63.9625 124.15625,60.25 C 123.03382,48.36533 122.98622,48.552781 127.75,47.28125 C 129.4995,46.814278 131.11754,46.529875 131.9375,46.53125 z M 218.96875,47.625 C 219.29654,47.645351 219.53783,47.683887 219.625,47.78125 C 219.97366,48.1707 220.4949,51.271449 220.78125,54.65625 C 221.28635,60.62651 221.20124,60.900123 217.90625,64.09375 C 216.03819,65.90435 214.5,67.912737 214.5,68.5625 C 214.5,69.21227 213.82896,70.312031 213,71 C 212.17105,71.68797 210.85649,74.333127 210.09375,76.875 C 208.93909,80.72295 208.57187,81.175848 207.90625,79.53125 C 206.76895,76.7212 206.88398,57.168729 208.0625,53.0625 C 208.93631,50.018 209.64173,49.463518 214.03125,48.34375 C 216.07838,47.821517 217.98538,47.563948 218.96875,47.625 z M 230,60 C 232.80848,59.982515 236.80837,61.130389 240.96875,63.25 C 246.23042,65.93069 247.45952,67.015292 247.9375,69.5 C 248.69141,76.126255 248.01885,82.224557 246.5,88.5 C 246.5,90.35673 246.04658,93.031163 245.5,94.46875 C 244.95343,95.90635 244.43635,99.114292 244.34375,101.5625 C 244.25115,104.01072 243.91706,105.9388 243.59375,105.875 C 240.6344,105.29104 239.36902,104.32715 236.78125,100.6875 C 235.13776,98.37597 233.51214,94.608041 233.15625,92.3125 C 232.60178,88.73608 232.87647,87.703458 235.125,85.03125 C 238.02845,81.5807 237.95046,81.176429 234.46875,80.78125 C 232.70867,80.58148 231.74045,81.232891 230.75,83.25 C 230.0095,84.75807 228.6221,86.405698 227.6875,86.90625 C 226.12845,87.74124 226,86.722879 226,74.65625 C 226,67.04467 226.42126,61.175192 227,60.75 C 227.68697,60.245291 228.72342,60.007948 230,60 z M 220.84375,65.59375 C 221.13885,65.567631 221.38084,65.771017 221.625,66.15625 C 222.575,67.65516 222.83305,85 221.90625,85 C 221.58191,85 220.50394,83.9875 219.5,82.75 L 217.65625,80.5 L 215.28125,82.75 C 213.96158,83.9875 212.54378,85 212.15625,85 C 210.37429,85 214.91743,73.057362 218.75,67.65625 C 219.71468,66.296762 220.35192,65.637282 220.84375,65.59375 z M 107.25,66.5625 C 108.50529,66.6717 109.23388,68.565917 108.40625,70.75 C 107.25786,73.78054 104.5,73.692943 104.5,70.625 C 104.5,69.31735 105.12297,67.749133 105.875,67.125 C 106.37195,66.712568 106.83157,66.5261 107.25,66.5625 z M 141.5625,67.90625 C 139.69411,67.86066 137.90459,69.246767 136.5,72 C 134.42277,76.07172 134.63465,77.81553 137.75,81.75 C 139.1946,83.57443 143.55479,83.27731 145.09375,81.25 C 146.95531,78.79771 146.86635,71.491354 144.9375,69.5625 C 143.84574,68.47074 142.68354,67.933604 141.5625,67.90625 z M 40.375,73 C 41.433126,72.98948 41.482678,73.303911 40.59375,74.375 C 39.027213,76.26256 34.5,77.076351 34.5,75.46875 C 34.5,74.27788 37.468246,73.028921 40.375,73 z M 141.0625,73 C 141.99692,73 142.5,74.05461 142.5,76 C 142.5,79.45287 141.07395,79.909698 139.5,76.96875 C 138.27388,74.67772 138.93243,73 141.0625,73 z M 92.9375,73.625 C 94.213318,73.629285 94.884703,74.656148 93.46875,75.53125 C 92.88128,75.89433 91.06424,78.92305 89.4375,82.28125 C 87.81077,85.63945 86.127439,88.633271 85.6875,88.9375 C 83.811118,90.23502 77.385796,104.6736 75.84375,111.0625 C 74.921796,114.88228 73.737536,118 73.21875,118 C 72.69996,118 72.601909,117.2125 73,116.25 C 73.398095,115.2875 73.96157,107.79815 74.25,99.59375 C 74.67418,87.52798 75.014002,84.995321 76,86.34375 C 76.670452,87.26065 77.973131,88 78.875,88 C 80.664551,88 81.107908,85.49374 79.5,84.5 C 77.989433,83.56642 78.301964,81.288589 80.03125,80.625 C 81.030032,80.24173 81.94998,80.912573 82.6875,82.53125 C 84.290698,86.04989 86.5,85.680181 86.5,81.90625 C 86.5,79.3947 85.94087,78.608819 83.5,77.6875 C 79.184459,76.05856 79.800192,75 85.0625,75 C 87.57366,75 90.469539,74.551481 91.5,74 C 92.00176,73.731465 92.512227,73.623572 92.9375,73.625 z M 153.6875,76 C 148.22227,76 145.26777,84.055868 149.25,88.09375 C 151.6647,90.5422 152.82273,90.425729 156.40625,87.28125 C 161.52094,82.79318 159.877,76 153.6875,76 z M 77.5,77 C 78.05,77 78.5,77.45 78.5,78 C 78.5,78.55 78.05,79 77.5,79 C 76.95,79 76.5,78.55 76.5,78 C 76.5,77.45 76.95,77 77.5,77 z M 65.34375,78.21875 C 66.666652,78.091796 67.859047,78.765212 68.0625,80.15625 C 68.196826,81.07468 67.240536,82.83836 65.9375,84.0625 L 63.5625,86.28125 L 62.53125,83.5625 C 61.72767,81.44892 61.829794,80.51395 63,79.34375 C 63.702147,78.641604 64.550009,78.294922 65.34375,78.21875 z M 152.28125,80.0625 C 152.814,80.045775 153.49693,80.342329 154.4375,80.9375 C 155.62734,81.6904 155.64663,82.1312 154.5625,83.4375 C 153.84302,84.30441 152.84366,85 152.34375,85 C 151.10061,85 150.17353,82.3492 150.96875,81.0625 C 151.36247,80.42544 151.7485,80.079225 152.28125,80.0625 z M 29.84375,81.15625 C 30.219472,81.049754 30.656634,82.255757 31.125,84.75 C 31.721396,87.92606 30.242427,147.43345 28.8125,177.75 C 28.340865,187.74936 27.142266,189.79676 26.125,182.375 C 25.144909,175.22446 25.41869,130.60241 26.5,120.5 C 27.029823,115.55 27.754186,104.6375 28.125,96.25 C 28.563014,86.342482 29.126462,81.35956 29.84375,81.15625 z M 121.5625,83 C 122.73632,83 122.41494,91.57826 120.59375,108 C 120.01429,113.225 119.14803,124.25 118.65625,132.5 C 118.16447,140.75 116.81961,153.575 115.6875,161 C 114.5554,168.425 113.26131,177.57958 112.8125,181.34375 C 112.3637,185.10793 111.6625,187.85584 111.25,187.4375 C 110.08731,186.25834 110.32758,139.2246 111.5,138.5 C 112.05,138.16008 112.5,135.4037 112.5,132.375 C 112.5,129.3463 112.96787,126.02144 113.53125,124.96875 C 114.09463,123.91606 114.74592,116.70661 115,108.96875 C 115.41914,96.20416 115.71933,94.516674 118,90.625 C 119.38254,88.26588 120.5,85.57043 120.5,84.65625 C 120.5,83.74207 120.97062,83 121.5625,83 z M 142.75,84.5625 C 141.5386,84.607619 140.31918,85.193609 139.25,86.375 C 137.28784,88.54309 137.01812,91.622042 138.46875,95.4375 C 139.27848,97.56726 140.10804,98 143.25,98 C 147.72633,98 149.95119,95.324991 149,91.15625 C 148.03541,86.928799 145.41509,84.463239 142.75,84.5625 z M 216.96875,85.96875 C 217.9585,85.916457 218.5234,87.207446 218.3125,89.75 C 217.97464,93.82311 215.72748,95.19599 213.59375,92.625 C 212.61357,91.44396 212.71666,90.616523 214.0625,88.5625 C 215.18512,86.849163 216.19895,86.009422 216.96875,85.96875 z M 143.5,89 C 144.05,89 145.62499,90.275004 145.625,91.375 C 145.625,92.475 145.04999,94.817709 142.5,95.375 C 141.63538,95.563962 140.2439,93.42623 140.5,91.25 C 140.75849,89.053412 142.95,89 143.5,89 z M 228.46875,92.15625 C 229.28991,92.122242 229.46421,93.214368 229.8125,96.375 C 230.13192,99.27356 231.40026,101.34387 235.09375,105.09375 C 237.75623,107.79687 240.73556,110 241.71875,110 C 243.02716,110 243.5,110.77029 243.5,112.90625 C 243.5,118.01849 242.63656,119 238.09375,119 L 233.90625,119 L 234.25,125.75 C 234.43152,129.4625 234.96388,134.075 235.46875,136 C 237.38566,143.30905 237.52841,145.20221 236.34375,149.15625 C 234.78174,154.36978 231.66664,156.01669 227.96875,153.59375 C 223.06571,150.38115 222.21346,151.51477 221.9375,161.6875 C 221.57053,175.21467 220.87296,178.04361 216.875,182.28125 C 213.27613,186.09587 210.82499,186.98134 209.96875,184.75 C 209.17803,182.68943 213.20594,165.61178 215.9375,159.5 C 216.67494,157.85 217.60348,154.925 218,153 C 218.39653,151.075 219.05475,149.05 219.46875,148.5 C 219.88275,147.95 221.87752,143.0396 223.875,137.59375 C 228.16642,125.89387 228.67169,118.87813 225.46875,115.46875 C 223.63262,113.51429 223.54192,112.81961 224.53125,108.40625 C 225.13491,105.71336 225.51643,101.32389 225.375,98.65625 C 225.17468,94.87771 225.49489,93.58485 226.875,92.8125 C 227.5788,92.418634 228.0955,92.171708 228.46875,92.15625 z M 181.59375,93.53125 C 182.34082,93.41166 182.91261,93.87035 182.625,95 C 182.41496,95.825 181.90163,97.85 181.5,99.5 L 180.78125,102.5 L 179.78125,100 C 179.22696,98.625 179.09604,96.6 179.5,95.5 C 179.9228,94.34871 180.84668,93.65084 181.59375,93.53125 z M 191.34375,94 C 193.29761,94 192.63606,96.12405 189.9375,98.625 C 186.8646,101.47286 186.5,101.54105 186.5,99.15625 C 186.5,97.14925 189.46377,94 191.34375,94 z M 208.75,94.125 C 208.97559,94.080007 209.41399,94.476489 210.21875,95.28125 C 211.38332,96.44581 211.57342,97.301589 210.875,98 C 209.56457,99.31043 208.5,98.245851 208.5,95.625 C 208.5,94.659735 208.52441,94.169993 208.75,94.125 z M 248,112 C 248.825,112 249.5,112.39234 249.5,112.875 C 249.5,113.35765 248.825,114.31531 248,115 C 246.7468,116.04007 246.5,115.89824 246.5,114.125 C 246.5,112.90505 247.13782,112 248,112 z M 218.46875,117 C 218.71863,117.01334 218.92773,117.08398 219.0625,117.21875 C 219.7035,117.85975 217.68739,126.51896 215.90625,130.75 C 215.15376,132.5375 214.16764,134 213.71875,134 C 210.65049,134 209.38497,126.54135 211.625,121.625 C 212.55933,119.57437 216.7196,116.90661 218.46875,117 z M 240.5,123 C 244.34183,123.56997 239.8901,127.1827 240.5,130.0625 C 240.5,132.23004 240.05,134 239.5,134 C 238.95,134 238.5,131.525 238.5,128.5 C 238.5,123.66667 238.74242,123 240.5,123 z M 199.84375,139.03125 C 200.50928,138.83848 200.46886,143.46019 199.5625,147.90625 C 198.57611,152.74488 197.92221,161.8529 197.59375,175.0625 C 197.54508,177.01988 196.83876,179.49488 196.03125,180.5625 C 194.70502,182.31593 194.55998,181.61116 194.53125,173.40625 C 194.51376,168.41048 194.95626,161.66048 195.53125,158.40625 C 197.30867,148.34679 198.68027,141.56596 199.25,140 C 199.47479,139.38215 199.69017,139.07574 199.84375,139.03125 z"
     id="path2384"
     style="fill:#000000" />
  <path
     d="M 187.19529,41.63686 A 0.37539163,0.062565267 0 1 1 186.44451,41.63686 A 0.37539163,0.062565267 0 1 1 187.19529,41.63686 z"
     transform="translate(17.393145,2.7528719)"
     id="path2385"
     style="opacity:1;fill:#000000;fill-opacity:1;stroke:none" />
</svg>
