<?xml version="1.0" encoding="UTF-8" standalone="no"?>
<!-- Created with Inkscape (http://www.inkscape.org/) -->

<svg
   xmlns:dc="http://purl.org/dc/elements/1.1/"
   xmlns:cc="http://creativecommons.org/ns#"
   xmlns:rdf="http://www.w3.org/1999/02/22-rdf-syntax-ns#"
   xmlns:svg="http://www.w3.org/2000/svg"
   xmlns="http://www.w3.org/2000/svg"
   xmlns:sodipodi="http://sodipodi.sourceforge.net/DTD/sodipodi-0.dtd"
   xmlns:inkscape="http://www.inkscape.org/namespaces/inkscape"
   width="344"
   height="72"
   id="svg2"
   version="1.1"
   inkscape:version="0.48.2 r9819"
   sodipodi:docname="drawing.svg">
  <title
     id="title3991">Signature of Alexander Dounce</title>
  <defs
     id="defs4" />
  <sodipodi:namedview
     id="base"
     pagecolor="#ffffff"
     bordercolor="#666666"
     borderopacity="1.0"
     inkscape:pageopacity="0.0"
     inkscape:pageshadow="2"
     inkscape:zoom="1.504936"
     inkscape:cx="178.43322"
     inkscape:cy="-2.4061941"
     inkscape:document-units="px"
     inkscape:current-layer="svg2"
     showgrid="false"
     inkscape:window-width="1157"
     inkscape:window-height="716"
     inkscape:window-x="28"
     inkscape:window-y="11"
     inkscape:window-maximized="0" />
  <metadata
     id="metadata7">
    <rdf:RDF>
      <cc:Work
         rdf:about="">
        <dc:format>image/svg+xml</dc:format>
        <dc:type
           rdf:resource="http://purl.org/dc/dcmitype/StillImage" />
        <dc:title>Signature of Alexander Dounce</dc:title>
        <dc:description>Signature of Alexander Dounce (1909–1997), American professor of biochemistry</dc:description>
        <dc:date>1953-03-18</dc:date>
        <dc:source>http://osulibrary.orst.edu/specialcollections/coll/pauling/dna/corr/sci9.001.30-dounce-lp-19530318-02.html</dc:source>
        <dc:publisher>
          <cc:Agent>
            <dc:title></dc:title>
          </cc:Agent>
        </dc:publisher>
        <dc:subject>
          <rdf:Bag>
            <rdf:li>signature</rdf:li>
            <rdf:li>America</rdf:li>
            <rdf:li>professor</rdf:li>
            <rdf:li>biochemistry</rdf:li>
          </rdf:Bag>
        </dc:subject>
        <cc:license
           rdf:resource="http://creativecommons.org/licenses/publicdomain/" />
        <dc:creator>
          <cc:Agent>
            <dc:title>Alexander Dounce</dc:title>
          </cc:Agent>
        </dc:creator>
        <dc:language>en</dc:language>
        <dc:rights>
          <cc:Agent>
            <dc:title></dc:title>
          </cc:Agent>
        </dc:rights>
      </cc:Work>
      <cc:License
         rdf:about="http://creativecommons.org/licenses/publicdomain/">
        <cc:permits
           rdf:resource="http://creativecommons.org/ns#Reproduction" />
        <cc:permits
           rdf:resource="http://creativecommons.org/ns#Distribution" />
        <cc:permits
           rdf:resource="http://creativecommons.org/ns#DerivativeWorks" />
      </cc:License>
    </rdf:RDF>
  </metadata>
  <path
     style="fill:none;stroke:#000000;stroke-width:1.2;stroke-linecap:round;stroke-linejoin:round;stroke-miterlimit:4;stroke-opacity:1;stroke-dasharray:none"
     d="m 29.010156,33.53515 c 0.803823,-1.495084 1.683307,-3.291107 1.371855,-4.488064 -4.641554,-17.838207 -36.0260621,27.457831 -11.82796,18.042262 3.989706,-1.552409 9.856278,-9.376353 11.011709,-10.335656 -9.911911,22.003907 7.507138,7.420662 14.420508,-3.938783 7.342275,-12.346954 0.793845,-11.476388 -5.049505,-3.529344 -3.472229,4.722284 -6.001682,18.301317 -1.716809,17.683309 4.186925,-0.60388 9.52059,-3.004323 9.38957,-7.360562 -0.03557,-1.182545 -1.689685,3.92052 -1.898291,7.463831 8.352108,-0.736037 11.32254,-14.054614 15.678046,0.458608 0.732267,-0.616814 1.494246,-0.7144 2.402946,-0.878309 M 47.769832,54.26367 c 3.021793,-1.22084 3.875462,-2.151632 5.518173,-3.809689 L 68.941287,34.654463 m 8.148127,9.644604 c -0.141956,-13.574627 -18.939844,9.746849 -4.064513,3.025355 8.264814,-5.007912 5.831861,-7.561442 4.374391,0.657512 3.405132,0.35671 8.880655,-5.726061 10.099744,-6.103209 -0.347072,2.233058 -2.100213,4.952046 1.751597,4.543479 2.999636,-0.354894 4.694408,-3.660345 5.536267,-4.200986 0.630253,-0.253613 0.778645,0.357185 0.201919,2.828925 6.179561,3.398622 18.533041,-11.043381 20.700381,-4.77318 m -10.57124,2.376262 c -1.62805,6.061883 8.18483,1.004671 10.67475,-1.08241 l 7.40053,-18.376784 c -1.22775,1.098065 -12.74016,22.630526 -2.29673,20.457444 9.84184,-10.278057 1.99409,-7.935165 2.16795,-0.184621 0.10038,4.475477 7.03119,-3.365996 9.60534,-5.692612 -0.0578,2.307937 -0.43894,5.895561 -1.06468,7.667371 1.20881,-2.454225 3.4524,-9.08799 6.41462,-7.107557 m 34.34179,-12.557352 c -6.13192,-10.224167 -15.96533,22.957637 -19.4832,19.276416 -1.23018,-1.287299 0.27934,-5.398079 2.4756,-5.199039 1.91241,0.173315 3.00315,1.934729 4.63167,3.199439 2.81513,2.186248 4.8305,3.766906 8.14518,3.439393 m 55.34434,-15.870786 -27.36335,-0.356419 c -12.78412,-4.75991 -7.50197,-10.649902 -2.09358,-14.602922 3.24508,-0.533373 8.56066,-1.386224 10.73093,1.393181 6.6374,6.449182 6.41132,20.604218 3.49148,27.218126 -4.32471,9.591275 -12.49092,6.769641 -16.28347,0.245152 -0.53357,-2.329349 -3.08759,-2.793295 -3.46418,-0.388304 0.66627,2.008959 3.66158,-1.349418 3.73671,-2.793833 l 8.14756,-17.116214 m 16.49384,10.946416 c 1.48633,0.09419 5.38581,1.805368 5.98872,3.057284 0.24132,5.459464 -8.71005,13.956243 -9.5657,8.884259 -1.17603,-6.971056 6.41371,-11.671876 8.72007,-9.737702 -0.54094,2.936172 1.28286,5.672027 3.3391,5.757187 4.2907,0.02767 8.71964,-2.061887 12.15281,-3.173088 1.72286,-1.616464 -8.20995,7.689389 -5.39943,8.853508 4.32176,1.790077 9.72359,-5.540672 14.7713,-9.063857 -1.65683,0.551443 -3.28455,5.276506 -1.7221,6.080821 2.51489,1.294612 5.8893,-1.755899 7.88245,-3.095435 1.37058,-0.921124 4.18591,-3.083758 4.37187,-2.587334 0.6944,1.853653 -0.9398,7.106261 1.98721,5.373695 2.25347,-0.898292 4.15274,-2.170731 5.36459,-3.326761 2.59677,-4.019648 1.7608,1.577847 1.86587,3.031304 0.16522,2.285699 1.24318,1.795287 2.77953,0.890736 l 10.12247,-5.959774 m 1.40591,1.699253 c 0.30865,-1.852617 -2.22103,-2.821813 -3.73868,0.610914 -4.64616,10.508974 15.87994,1.149999 17.37393,-2.717411 0.92522,-2.39509 -0.2409,-4.2157 -2.58337,-2.786361 -3.25022,2.289802 -7.57278,8.159306 -5.36547,10.946416 1.95043,1.527231 3.74045,2.659435 6.62574,2.985386 16.7004,2.096484 30.74888,-1.154898 44.44556,-3.980515 M 175.93988,43.959563 c -0.0385,0.551115 0.89379,0.59145 0.88717,0.06042 -0.009,-0.690027 -0.85962,-0.45434 -0.88717,-0.06042 z"
     id="path3002"
     inkscape:connector-curvature="0"
     sodipodi:nodetypes="cssccsssccccscccccccccccccsccccsssccccccccccccscccscsscccssccssccccsss" />
</svg>
