<?xml version="1.0" standalone="no"?>
<!DOCTYPE svg PUBLIC "-//W3C//DTD SVG 20010904//EN"
 "http://www.w3.org/TR/2001/REC-SVG-20010904/DTD/svg10.dtd">
<svg version="1.0" xmlns="http://www.w3.org/2000/svg"
 width="170.000000pt" height="65.000000pt" viewBox="0 0 170.000000 65.000000"
 preserveAspectRatio="xMidYMid meet">
<metadata>
Created by potrace 1.10, written by Peter Selinger 2001-2011
</metadata>
<g transform="translate(0.000000,65.000000) scale(0.100000,-0.100000)"
fill="#000000" stroke="none">
<path d="M775 550 c-35 -34 -40 -41 -79 -97 -16 -24 -33 -40 -39 -36 -6 3 -7
1 -3 -6 4 -6 -25 -61 -69 -128 -64 -98 -79 -114 -87 -99 -19 35 -4 137 31 206
19 36 39 68 45 72 7 5 5 8 -6 8 -11 0 -32 -30 -63 -93 -39 -79 -123 -202 -132
-193 -7 7 39 159 71 236 40 94 43 107 21 107 -8 0 -15 -5 -15 -10 0 -6 -3 -7
-7 -4 -3 4 -11 -2 -17 -12 -6 -11 -29 -46 -51 -78 -24 -35 -52 -96 -69 -148
-16 -50 -31 -97 -34 -105 -7 -19 -13 -75 -8 -69 2 2 14 42 27 89 12 47 29 101
38 120 8 19 14 38 13 43 -1 4 3 7 10 7 6 0 9 3 6 6 -4 3 0 13 8 22 8 9 30 39
48 66 52 80 57 64 14 -46 -49 -124 -79 -236 -67 -244 14 -9 27 4 75 74 l46 67
-5 -57 c-4 -45 -2 -59 12 -72 16 -15 20 -14 44 14 15 16 27 32 27 35 0 19 230
338 238 330 6 -6 -26 -63 -82 -145 -49 -72 -82 -151 -92 -222 -7 -49 10 -49
35 -1 26 52 121 281 121 292 0 5 6 14 14 21 8 6 12 19 9 28 -4 13 -3 14 5 3 8
-11 14 -11 33 3 48 34 91 13 87 -42 -2 -28 -5 -30 -51 -35 -60 -5 -112 -48
-96 -78 12 -23 44 -24 83 -4 41 22 42 19 6 -22 -71 -81 -88 -177 -19 -110 13
13 40 38 61 56 32 28 36 29 31 10 -6 -20 -3 -21 22 -15 16 4 51 25 78 47 28
22 52 37 54 35 7 -6 -23 -61 -41 -75 -9 -8 -16 -21 -16 -29 0 -12 5 -10 18 7
61 83 136 147 82 72 -12 -17 -25 -45 -30 -61 l-9 -30 30 15 c16 9 29 20 29 26
0 6 4 8 8 5 4 -2 34 8 65 23 31 15 59 25 62 23 9 -9 5 -23 -4 -17 -6 3 -15 -3
-21 -14 -5 -11 -6 -22 -1 -25 13 -8 20 4 14 22 -3 10 1 8 11 -5 17 -22 20 -23
168 -16 129 5 150 4 143 -8 -7 -12 -6 -12 9 0 17 14 16 15 -6 24 -13 5 -87 6
-166 2 -143 -7 -144 -7 -132 14 8 16 8 21 -2 21 -7 0 17 27 52 60 36 32 60 59
54 60 -7 0 -34 -20 -60 -46 -42 -38 -130 -94 -149 -94 -4 0 -4 9 0 19 12 38
-12 29 -40 -14 -15 -25 -32 -45 -36 -45 -14 0 -10 12 17 52 16 22 24 44 20 54
-5 14 -10 12 -33 -12 -24 -26 -26 -27 -21 -6 3 12 3 22 -2 22 -4 0 -38 -22
-75 -50 -37 -27 -72 -50 -77 -50 -10 0 -1 40 13 55 23 24 6 25 -20 1 -20 -19
-30 -24 -33 -15 -6 19 -58 -35 -58 -59 0 -22 -27 -49 -37 -38 -13 13 32 81
106 158 40 43 70 78 65 79 -5 1 -20 0 -32 -1 -20 -1 -23 2 -17 20 17 52 -53
91 -101 55 -26 -19 -32 -19 -36 5 -3 18 -5 18 -33 -10z m-69 -231 c-29 -69
-58 -134 -65 -145 -10 -16 -10 -15 -5 11 16 84 39 144 76 202 22 35 42 62 44
60 2 -2 -20 -60 -50 -128z m214 123 c0 -21 -60 -64 -90 -65 -40 -2 -49 16 -20
40 31 27 110 45 110 25z m15 -21 c-16 -16 -32 -27 -33 -25 -8 6 34 53 48 54
10 0 4 -10 -15 -29z m-15 -100 c0 -5 -11 -16 -25 -25 -27 -18 -30 -15 -15 15
11 19 40 27 40 10z"/>
<path d="M301 508 c-28 -34 -67 -99 -88 -145 -26 -58 -42 -83 -54 -83 -10 0
-21 -4 -24 -10 -3 -5 4 -10 15 -10 14 0 20 -5 18 -12 -20 -55 -39 -120 -36
-123 2 -3 14 27 27 65 13 43 30 74 42 80 25 14 24 9 -12 -55 -17 -30 -27 -55
-22 -55 8 0 69 101 66 111 -1 3 7 10 18 17 16 10 19 9 19 -5 0 -15 2 -16 10
-3 6 10 4 20 -6 31 -12 14 -12 18 -1 28 8 6 28 44 46 83 18 40 36 81 42 90 12
23 12 58 -1 58 -5 0 -32 -28 -59 -62z m40 -5 c-15 -55 -91 -193 -114 -204 -34
-19 -35 -4 -6 59 27 61 119 196 126 188 3 -2 0 -22 -6 -43z"/>
</g>
</svg>
