<?xml version="1.0" encoding="UTF-8" standalone="no"?>
<!-- Created with Inkscape (http://www.inkscape.org/) -->

<svg
   xmlns:dc="http://purl.org/dc/elements/1.1/"
   xmlns:cc="http://creativecommons.org/ns#"
   xmlns:rdf="http://www.w3.org/1999/02/22-rdf-syntax-ns#"
   xmlns:svg="http://www.w3.org/2000/svg"
   xmlns="http://www.w3.org/2000/svg"
   xmlns:sodipodi="http://sodipodi.sourceforge.net/DTD/sodipodi-0.dtd"
   xmlns:inkscape="http://www.inkscape.org/namespaces/inkscape"
   width="62.27552mm"
   height="18.18972mm"
   viewBox="0 0 220.66129 64.451764"
   id="svg2"
   version="1.1"
   inkscape:version="0.91 r13725"
   sodipodi:docname="Alfred Russel Wallace signature.svg">
  <defs
     id="defs4" />
  <sodipodi:namedview
     id="base"
     pagecolor="#ffffff"
     bordercolor="#666666"
     borderopacity="1.0"
     inkscape:pageopacity="0.0"
     inkscape:pageshadow="2"
     inkscape:zoom="2.8"
     inkscape:cx="134.12935"
     inkscape:cy="8.3705803"
     inkscape:document-units="px"
     inkscape:current-layer="layer1"
     showgrid="false"
     fit-margin-top="0"
     fit-margin-left="0"
     fit-margin-right="0"
     fit-margin-bottom="0"
     inkscape:window-width="1312"
     inkscape:window-height="747"
     inkscape:window-x="1200"
     inkscape:window-y="117"
     inkscape:window-maximized="1" />
  <metadata
     id="metadata7">
    <rdf:RDF>
      <cc:Work
         rdf:about="">
        <dc:format>image/svg+xml</dc:format>
        <dc:type
           rdf:resource="http://purl.org/dc/dcmitype/StillImage" />
        <dc:title></dc:title>
      </cc:Work>
    </rdf:RDF>
  </metadata>
  <g
     inkscape:label="Capa 1"
     inkscape:groupmode="layer"
     id="layer1"
     transform="translate(65.121295,-282.5884)"
     sodipodi:insensitive="true">
    <path
       style="fill:#000000"
       d="m -41.840289,346.61322 c 0,-0.44158 1.50936,-2.99711 3.35414,-5.67895 1.84477,-2.68182 3.21587,-4.97775 3.04687,-5.10204 -0.16899,-0.12429 -4.5772,0.17955 -9.79602,0.6752 -5.21881,0.49566 -11.88784,0.60145 -14.82006,0.23509 -4.27691,-0.53436 -5.27227,-0.97589 -5.03278,-2.23247 0.38741,-2.03268 7.67668,-3.50431 23.7166,-4.78811 10.88545,-0.87126 12.37208,-1.20197 13.91522,-3.09561 0.95025,-1.16608 3.16509,-3.68379 4.92188,-5.59492 1.75678,-1.91114 3.19415,-3.92103 3.19415,-4.46643 0,-0.5454 -1.58203,0.0433 -3.51563,1.30834 -1.93359,1.265 -4.67711,2.58268 -6.09671,2.92818 -2.32696,0.56634 -2.63848,0.34121 -3.16406,-2.28668 -0.32397,-1.61985 -1.17462,-2.91488 -1.91465,-2.91488 -0.73242,0 -2.38636,1.05469 -3.67543,2.34375 -2.542,2.54201 -5.18598,3.33525 -3.21964,0.96596 0.90225,-1.08714 0.88385,-1.96432 -0.0872,-4.15809 -1.23068,-2.7803 -1.23068,-2.7803 -5.73602,1.43392 -4.79393,4.48416 -9.47703,6.91446 -13.32393,6.91446 -1.71658,0 -2.51202,-0.62163 -2.93087,-2.29047 -0.60955,-2.42865 0.0592,-4.27203 1.54984,-4.27203 0.49502,0 0.63532,1.05469 0.31179,2.34375 -0.49073,1.95521 -0.25438,2.34375 1.42574,2.34375 3.87743,0 9.96108,-4.08695 17.7371,-11.91567 4.52442,-4.55508 8.37095,-7.69182 9.09271,-7.41485 0.68803,0.26402 4.65037,-2.45751 8.80521,-6.04785 4.15484,-3.59033 7.55426,-6.17251 7.55426,-5.73817 0,0.43434 -1.10711,1.81246 -2.46024,3.0625 -3.38649,3.12846 -14.79174,16.80077 -16.16835,19.38217 -0.99283,1.86175 -0.90314,2.10937 0.76405,2.10937 1.24968,0 2.51601,-1.22916 3.74188,-3.63207 1.01912,-1.99764 3.24253,-4.80376 4.94093,-6.23582 3.73423,-3.14865 8.91326,-5.43574 10.7302,-4.73851 1.14461,0.43923 1.14102,0.87126 -0.0258,3.10518 -1.4334,2.74432 -8.67681,8.66472 -13.00706,10.63132 -1.74417,0.79213 -2.57812,1.88032 -2.57812,3.36413 0,3.16774 2.37128,2.79233 8.62465,-1.36543 5.68409,-3.77924 9.72111,-7.37107 16.9603301,-15.08997 2.47018,-2.63386 5.31783003,-4.78883 6.32813,-4.78883 2.08806,0 2.20855,0.3663 0.91532,2.78274 -1.08221,2.02211 -8.45641,8.05049 -8.44702,6.90541 0.004,-0.43004 1.48008,-1.7855 3.28124,-3.01212 1.80117,-1.22662 3.27485003,-2.80865 3.27485003,-3.51563 0,-0.70697 -0.33911,-1.2854 -0.75359,-1.2854 -1.11629003,0 -6.56790003,5.87728 -6.91536003,7.45533 -0.16489,0.74887 -1.5329,2.22544 -3.0400301,3.28125 -1.50712,1.05582 -2.91633,2.45588 -3.13156,3.11125 -0.27071,0.82426 1.09042,0.60752 4.4155501,-0.70313 5.18641,-2.04429 6.98058,-2.4068 4.73749,-0.9572 -1.13004,0.73029 -0.97852,0.91161 0.77137,0.92314 2.15776,0.0142 2.15159,0.046 -0.6772,3.47777 -1.57016,1.90488 -2.69477,3.62349 -2.49913,3.81913 0.68009,0.68009 5.97330003,-2.55761 8.79586,-5.38017 2.81557,-2.81557 4.8591,-3.6442 4.8591,-1.97032 0,0.47826 -1.35823,1.93253 -3.01828,3.23172 -1.66006,1.29919 -2.73951,2.64094 -2.39877,2.98168 0.34073,0.34073 4.30772,-0.66081 8.8155299,-2.22566 10.2901,-3.57211 10.87924,-4.49301 10.48284,-16.38604 -0.28757,-8.6275 -0.28757,-8.6275 3.98627,-10.74993 8.01303,-3.97935 21.23793,-5.83091 34.63241,-4.84875 1.28906,0.0945 7.67253,0.092 14.18547,-0.006 12.20077,-0.1828 20.99847,0.90897 27.146049,3.36874 1.93808,0.77547 3.77685,2.06942 4.08615,2.87544 0.88367,2.30281 -1.9248,5.67173 -6.762659,8.11218 -2.43994,1.23083 -8.54954,3.18454 -13.57689,4.34157 -8.13267,1.87172 -9.14062,2.32964 -9.14062,4.15269 0,1.12695 0.56955,2.82791 1.26567,3.77991 1.30014,1.77804 1.12715,1.77918 11.17244,-0.0741 2.59437,-0.47864 2.59437,-0.47864 0.23438,1.88135 -2.76008,2.76007 -3.02412,4.33366 -0.71937,4.28699 3.11671,-0.0631 6.0596,-2.49532 8.53315,-7.05239 2.42951,-4.47594 7.929489,-9.22329 9.918429,-8.56118 2.26566,0.75423 1.28317,3.30102 -2.87914,7.46334 -2.42493,2.42492 -5.204489,4.66144 -6.176819,4.97004 -2.27499,0.72206 -1.76601,3.60609 0.69209,3.92159 3.024549,0.38821 6.253599,-1.8531 8.448849,-5.86443 2.42314,-4.42776 10.67636,-10.55901 11.78932,-8.7582 1.03731,1.67839 -2.30957,5.90491 -8.1942,10.34785 -3.0843,2.32867 -4.76821,4.19569 -4.25083,4.71307 0.98615,0.98616 6.39516,-1.05136 10.44326,-3.93385 2.51776,-1.79284 7.53527,-2.63903 7.53527,-1.27084 0,0.34611 -0.69101,1.39287 -1.53559,2.32611 -1.43614,1.58692 -1.39061,1.75481 0.70313,2.59252 2.17657,0.87085 2.1817,0.89736 0.18467,0.95514 -1.12973,0.0327 -2.27982,-0.30588 -2.55576,-0.75235 -0.27593,-0.44648 -1.56646,-0.60823 -2.86782,-0.35946 -1.32657,0.25359 -2.36613,0.0156 -2.36613,-0.54176 0,-0.56553 -1.89213,-0.1571 -4.38901,0.94739 -3.34239,1.4785 -4.77525,1.70025 -6.00874,0.92993 -0.89814,-0.5609 -3.18201,-0.75801 -5.126569,-0.44246 -2.71113,0.43996 -3.77986,0.1957 -4.71013,-1.07652 -0.70356,-0.96218 -1.68038,-1.35075 -2.35206,-0.93563 -0.63183,0.39049 -3.33147,0.83107 -5.9992,0.97907 -2.66774,0.148 -5.44839,0.3981 -6.17924,0.55577 -0.92437,0.19944 -1.27508,-0.49798 -1.15231,-2.29143 0.11322,-1.65361 -0.28796,-2.57813 -1.11871,-2.57813 -0.71236,0 -1.90076,-0.86454 -2.64087,-1.92119 -1.30415,-1.86195 -1.4479,-1.78246 -4.66145,2.57812 -1.82369,2.47463 -4.66717,5.76495 -6.31885,7.31182 -2.97963,2.79057 -2.99765,2.79423 -2.31193,0.46875 0.74268,-2.51861 5.65174,-11.90016 7.2358,-13.82812 0.6612,-0.80474 0.65457,-1.17188 -0.0212,-1.17188 -0.54122,0 -2.19326,1.46699 -3.67118,3.25997 -3.32419,4.0328 -10.50269,10.24921 -11.12121,9.63068 -0.25146,-0.25145 1.40556,-3.23505 3.68227,-6.63022 2.27671,-3.39517 3.89509,-6.41741 3.5964,-6.7161 -0.29869,-0.29869 -4.67773,3.57608 -9.7312,8.61059 -8.94027,8.90673 -11.11873,10.2476 -7.31313,4.50133 2.0653,-3.1185 2.50534,-9.72671 0.85326,-12.81366 -0.94553,-1.76673 -1.61854,-1.26957 -9.02207,6.66456 -4.40019,4.71554 -8.22091,8.35313 -8.4905,8.08354 -0.2696,-0.2696 2.54572,-3.68617 6.25625,-7.5924 5.12569,-5.39603 6.60707,-7.54129 6.16635,-8.92988 -0.88208,-2.77919 1.84219,-3.24764 5.68864,-0.97818 2.2478,1.32624 4.94655,1.97227 8.23897,1.97227 4.78636,0 5.03737,-0.14046 11.18672,-6.25969 3.45978,-3.44283 6.54231,-6.00787 6.8501,-5.70009 0.30778,0.30778 -1.16443,2.74065 -3.27156,5.40637 -2.10714,2.66573 -3.83116,5.44171 -3.83116,6.16885 0,0.72713 -0.36581,1.32206 -0.81292,1.32206 -0.86506,0 -5.75318,6.96329 -5.74434,8.18302 0.003,0.39778 1.91696,-1.29565 4.25351,-3.76318 2.33654,-2.46752 4.01556,-4.86293 3.73115,-5.32312 -0.28442,-0.4602 0.28161,-1.09023 1.25783,-1.40008 0.97623,-0.30984 3.76751,-2.87146 6.20283,-5.69249 2.43532,-2.82103 4.83965,-5.12915 5.34296,-5.12915 0.50329,0 -0.59435,1.76344 -2.43922,3.91875 -1.84486,2.15531 -3.3543,4.28958 -3.3543,4.74283 0,0.45324 -0.52734,0.52635 -1.17188,0.16246 -0.89632,-0.50604 -0.91637,-0.3848 -0.0853,0.51562 0.87005,0.94264 2.61596,0.86733 8.76153,-0.37792 9.99664,-2.02558 17.59391,-4.91227 20.453089,-7.77145 2.27589,-2.27589 2.27942,-2.30759 0.46075,-4.12626 -1.00801,-1.00801 -4.123059,-2.47104 -6.922349,-3.25118 -6.18988,-1.72506 -23.0046,-2.74642 -30.27008,-1.83866 -4.57928,0.57215 -5.5025,1.03322 -6.69801,3.34507 -1.66161,3.21322 -11.77353,14.30995 -12.43616,13.64733 -0.25619,-0.25619 2.0489,-3.3277 5.12243,-6.82557 7.87527,-8.96259 7.90282,-9.03882 2.98276,-8.25356 -5.60553,0.89467 -12.85935,4.27755 -17.03643,7.94508 -3.70022,3.24883 -4.91994,2.65709 -1.36347,-0.66148 3.02817,-2.82563 10.92613,-6.59202 16.54094,-7.88807 2.65631,-0.61315 4.40349,-1.37822 3.88262,-1.70014 -1.36462,-0.84338 -15.35818,0.65188 -21.98219,2.34887 -3.1055,0.7956 -6.92564,2.19393 -8.48918,3.10742 -2.81709,1.64585 -2.84365,1.73684 -2.93469,10.05665 -0.0682,6.23061 -0.57707,9.4808 -1.97327,12.60312 -1.03477,2.31404 -2.81215,5.03432 -3.94974,6.04506 -1.6845,1.49668 -2.2156,1.59945 -2.86187,0.55377 -0.43644,-0.70618 -0.5544,-1.90712 -0.26212,-2.66877 0.29227,-0.76165 0.14579,-1.22178 -0.3255,-1.02252 -7.8885599,3.33526 -10.0680599,3.89868 -11.5357299,2.9821 -1.18787997,-0.74184 -2.39961,-0.55758 -4.82436,0.7336 -1.78092,0.94834 -3.55445,1.74194 -3.94116,1.76355 -1.23691,0.0691 -0.75354,-3.22152 0.79874,-5.43773 0.82604,-1.17932 1.27285,-2.37325 0.99292,-2.65318 -0.27993,-0.27993 -2.65858,0.042 -5.2858801,0.71532 -4.18451,1.07246 -5.12148,1.78428 -7.55541,5.73992 -1.52817,2.4836 -2.77849,4.87952 -2.77849,5.32426 0,0.44475 -0.69367,1.38432 -1.54148,2.08794 -1.3801,1.14538 -1.46608,1.03471 -0.82125,-1.05708 0.72023,-2.3364 0.72023,-2.3364 -1.27102,0.15522 -1.09519,1.37039 -1.99125,2.71696 -1.99125,2.99236 0,0.27541 2.84766,0.33163 6.32812,0.12492 20.74672013,-1.23216 31.61197,-1.45521 75.23438,-1.54449 38.96917,-0.0797 51.626359,-0.42554 65.624999,-1.79284 13.97336,-1.36482 25.00267,-2.79942 29.0625,-3.7802 1.42777,-0.34493 -7.58952,-1.88849 -10.58621,-1.81212 -1.95523,0.0498 -5.22477,-0.35905 -7.26563,-0.90859 -2.67409,-0.72006 -3.71066,-1.49801 -3.71066,-2.78489 0,-2.0483 3.33782,-4.70452 5.91172,-4.70452 2.68859,0 1.31494,2.282 -1.69297,2.8125 -2.84861,0.5024 -4.24793,2.5545 -2.18734,3.20771 0.68741,0.21791 2.83483,0.65968 4.77205,0.98171 3.12093,0.51881 3.62008,0.32808 4.38131,-1.67409 0.4725,-1.24279 1.55873,-2.52808 2.41384,-2.85622 2.27459,-0.87284 5.41764,-0.70402 7.02639,0.37741 1.18153,0.79424 0.95681,1.31555 -1.40625,3.26223 -2.8125,2.31694 -2.8125,2.31694 3.23437,2.32159 3.6249,0.003 5.69015,0.3432 5.15626,0.84989 -2.16767,2.05719 -21.16958,4.978 -41.20313,6.33341 -10.3125,0.69771 -10.3125,0.69771 -4.2535,1.49041 5.79537,0.75821 7.37457,1.23871 6.51913,1.98359 -0.21485,0.18707 -3.55469,-0.0596 -7.42188,-0.54818 -8.72841,-1.10272 -56.331959,-1.10395 -64.921879,-0.002 -3.48046,0.44662 -6.32812,0.49651 -6.32812,0.11086 0,-0.38564 0.73828,-0.91537 1.64062,-1.17719 1.76535,-0.5122 -26.83949,0.0116 -50.1766,0.91879 -12.56994,0.48864 -14.42915,0.76571 -15.23437,2.27028 -0.50443,0.94255 -0.91715,1.85693 -0.91715,2.03198 0,0.40317 30.7636001,-1.65867 49.03997,-3.28676 7.63604,-0.68024 14.04813,-0.97077 14.24908,-0.64562 0.41492,0.67136 -29.5557699,3.41281 -50.59222,4.62772 -14.02191,0.80981 -14.02191,0.80981 -18.94782,6.28786 -2.70925,3.01293 -4.94236,5.12091 -4.96246,4.68441 -0.0201,-0.4365 1.65606,-2.71655 3.72481,-5.06677 3.67231,-4.17196 4.42455,-6.48765 1.26124,-3.88256 -2.45091,2.01841 -6.91647,8.48524 -6.41718,9.2931 0.24547,0.39718 -0.18408,0.96405 -0.95456,1.25971 -0.77047,0.29566 -1.40086,0.17627 -1.40086,-0.26531 z m 0,-11.52891 c 6.84681,-0.22822 8.19974,-0.55042 9.60937,-2.28849 0.90235,-1.11258 1.64063,-2.1903 1.64063,-2.39494 0,-0.45683 -24.5168,2.55645 -29.0625,3.57198 -3.16104,0.70619 -3.19539,0.75845 -0.9375,1.42657 1.28906,0.38145 4.24219,0.52636 6.5625,0.32202 2.32031,-0.20433 7.80469,-0.49104 12.1875,-0.63714 z m 13.90194,-2.70066 c 0.67539,-1.08146 0.99039,-2.20388 0.70002,-2.49426 -0.62204,-0.62203 -4.28946,2.51435 -4.28946,3.66835 0,1.54252 2.37883,0.76442 3.58944,-1.17409 z m 45.65772,-18.47406 c -0.62995,-0.62993 -3.30966,1.70833 -3.30966,2.88794 0,0.53241 0.84634,0.20209 1.88075,-0.73404 1.03441,-0.93613 1.67742,-1.90538 1.42891,-2.1539 z m 127.410559,2.65105 c 2.88673,-1.09753 3.17369,-2.8357 0.46815,-2.8357 -2.6232,0 -5.74404,1.76173 -5.06555,2.85954 0.69493,1.12442 1.58945,1.11979 4.5974,-0.0238 z m -75.119789,-6.01511 c 2.41977,-3.29554 4.39957,-6.24867 4.39957,-6.5625 0,-0.31382 -0.40891,-0.57059 -0.90869,-0.57059 -0.49978,0 -2.43917,2.39252 -4.30974,5.3167 -6.1403,9.59883 -5.66672,10.64932 0.81886,1.81639 z m 13.93513,3.50286 c 0.94294,-0.85335 1.71444,-1.86855 1.71444,-2.25598 0,-1.2128 -3.55266,0.16058 -5.24083,2.02599 -1.52815,1.68859 -1.52295,1.78154 0.0998,1.78154 0.94167,0 2.48361,-0.6982 3.42656,-1.55155 z m 35.483249,0.12264 c 0.65223,-0.78589 0.95591,-1.65887 0.67483,-1.93995 -0.62303,-0.62303 -4.44364,1.66134 -4.44364,2.65687 0,1.24785 2.53903,0.76487 3.76881,-0.71692 z m -155.627409,-3.29074 c 1.06123,-2.08019 1.66845,-4.20457 1.34937,-4.72085 -0.31909,-0.51629 -1.8116,0.61088 -3.31671,2.50481 -2.8562,3.59406 -3.14804,4.33671 -2.11156,5.37319 1.26165,1.26165 2.19195,0.54157 4.0789,-3.15715 z m 17.18739,-4.89151 c 2.05158,-1.93457 3.46934,-3.77821 3.15059,-4.09696 -1.22739,-1.22739 -5.63604,0.80413 -9.52561,4.38941 -2.23323,2.05852 -4.27964,4.58109 -4.54759,5.60573 -0.46988,1.79682 -0.35083,1.78762 3.35265,-0.2589 2.1119,-1.16703 5.51839,-3.7047 7.56996,-5.63928 z m 72.56693,3.98795 c 2.1886,-2.06152 3.97928,-3.89156 3.97928,-4.06675 0,-0.1752 -1.85582,-0.38873 -4.12403,-0.47453 -4.12404,-0.15599 -4.12404,-0.15599 -4.45988,4.06675 -0.18472,2.32251 -0.11959,4.22274 0.14474,4.22274 0.26433,0 2.27127,-1.6867 4.45989,-3.74821 z m 57.906469,-1.05869 c 4.3622,-4.02093 5.13468,-5.5056 2.86461,-5.5056 -1.34079,0 -8.0418,7.17134 -8.0418,8.60625 0,1.37655 0.91363,0.82937 5.17719,-3.10065 z m -9.16157,-2.12498 c 3.06591,-2.82849 3.97302,-5.25562 1.96422,-5.25562 -1.58638,0 -8.292339,7.32717 -8.292339,9.06052 0,1.25754 0.24807,1.29441 1.64062,0.2438 0.90235,-0.68077 3.011719,-2.50268 4.687499,-4.0487 z m -131.792559,-3.05717 c 2.5228,-2.2831 2.08637,-3.42287 -0.62931,-1.64349 -1.28906,0.84463 -2.34375,1.90904 -2.34375,2.36536 0,1.25917 1.07151,0.999 2.97306,-0.72187 z m 93.58944,-1.26095 c 0.55191,-1.03125 0.84307,-1.875 0.64703,-1.875 -0.19604,0 -1.12001,0.84375 -2.05328,1.875 -0.93327,1.03125 -1.22443,1.875 -0.64703,1.875 0.57739,0 1.50137,-0.84375 2.05328,-1.875 z m -14.0625,17.75717 c 0,-0.54605 0.42187,-0.73209 0.9375,-0.41342 0.51562,0.31867 0.9375,0.76545 0.9375,0.99283 0,0.22738 -0.42188,0.41342 -0.9375,0.41342 -0.51563,0 -0.9375,-0.44677 -0.9375,-0.99283 z"
       id="path4280"
       inkscape:connector-curvature="0" />
  </g>
</svg>
