<?xml version="1.0" encoding="iso-8859-1"?>
<!-- Generator: Adobe Illustrator 16.0.0, SVG Export Plug-In . SVG Version: 6.00 Build 0)  -->
<!DOCTYPE svg PUBLIC "-//W3C//DTD SVG 1.1 Basic//EN" "http://www.w3.org/Graphics/SVG/1.1/DTD/svg11-basic.dtd" [
	<!ENTITY ns_flows "http://ns.adobe.com/Flows/1.0/">
	<!ENTITY ns_extend "http://ns.adobe.com/Extensibility/1.0/">
	<!ENTITY ns_ai "http://ns.adobe.com/AdobeIllustrator/10.0/">
	<!ENTITY ns_graphs "http://ns.adobe.com/Graphs/1.0/">
]>
<svg version="1.1" baseProfile="basic" id="Layer_1" xmlns:x="&ns_extend;" xmlns:i="&ns_ai;" xmlns:graph="&ns_graphs;"
	 xmlns="http://www.w3.org/2000/svg" xmlns:xlink="http://www.w3.org/1999/xlink" xmlns:a="http://ns.adobe.com/AdobeSVGViewerExtensions/3.0/"
	 x="0px" y="0px" width="293.54px" height="168.54px" viewBox="0 0 293.54 168.54" xml:space="preserve">
<path style="fill-rule:evenodd;clip-rule:evenodd;" d="M76.394,57.228c0.113,2.762,0.521,4.656,0.519,7.701l0,16.321
	c-0.141,5.138,0.232,10.219,0.239,15.158c0.001,1.229-0.118,2.78-0.121,3.731c-0.004,1.347,0.593,1.369-0.116,2.718
	c-0.795,1.513-1.086,0.735-2.569,1.68c-2.585,1.645-0.863,0.455-2.706,1.231c-0.927,0.391-1.225,0.829-2.58,1.341
	c-1.671,0.631-5.238,3.44-3.485-0.367c1.132-2.461,0.229-4.393,1.357-6.822c0.634-1.366,2.408-13.617,3.229-16.728
	c0.585-2.215,0.693-4.761,1.153-7.064c0.251-1.255,0.614-1.7,0.882-2.968l1.49-6.673c0.466-2,0.613-5.349,1.264-6.618l1.063-2.013
	C76.219,57.448,76.187,57.486,76.394,57.228 M101.151,147.302c-0.396-2.425-0.178-4.581,0.32-6.933l0.892-15
	c0.163-3.14,0.389-4.804,0.952-7.324c0.405-1.817,0.379-5.207,0.629-7.152c0.36-2.8,1.034-4.445,1.32-6.881
	c0.599-5.108,1.126-3.24,1.713-6.432c0.589-3.2,0.734-0.148,1.375-6.854c3.028-2.064,6.771-3.859,10.334-4.895
	c0.974,2.93-0.286,5.754-0.433,6.691c-0.313,1.998,0.089,6.821-1.276,11.118c-0.388,1.22-0.73,2.506-0.879,3.822
	c-0.37,3.279,0.234,1.229-0.981,4.115c-0.521,1.239-0.403,2.754-0.906,4.135c-1.063,2.923-3.962,13.531-4.732,14.97
	c-0.409,0.764-0.564,0.714-0.857,1.686c-0.184,0.608-0.326,1.446-0.482,2.02c-0.435,1.594-0.696,1.094-1.476,3.31
	c-0.36,1.022-2.122,3.915-3.069,7.058C103.175,146.149,103.081,147.063,101.151,147.302z M137.151,114.677
	c0-1.661,1.082-4.886,1.794-6.268c1.144-2.217,1.52-4.089,3.809-4.187c1.688,5.469,2.497,6.14,1.305,11.553
	c-0.402,1.822,0.159,1.03-0.887,5.346c-0.694,2.863-2.189,9.68-4.163,11.494c-0.559-1.115-1.858-3.546-1.858-4.729V114.677z
	 M185.872,77.102c2.906-0.676,2.487-5.778,5.169-6.479c3.399,5.973,1.887,2.784,2.31,6.895c0.1,0.97,0.378,1.655,0.44,2.705
	l1.605-0.044c0.023-0.06,0.111-0.021,0.162-0.044c-0.33-3.783-0.077-11.151-3.877-13.381c-1.108-0.651-2.198-0.165-2.752,0.883
	c-0.336,0.637-0.271,0.957-0.679,1.566c-0.544,0.812-0.281,0.049-0.887,1.091c-0.593,1.021-0.525,2.114-1.175,3.314
	C185.39,75.087,185.395,75.286,185.872,77.102z M235.637,20.335c-0.437-2.027-1.012-4.54-1.667-7.065
	c-1.095-4.227-2.348-8.418-3.33-10.016c-0.194,0.604-0.475,1.217-0.725,1.775c-0.379,3.224-0.647,6.617-0.802,10.08l0.198,3.727
	c0,0.752-0.2,1.018-0.342,1.503c-0.017,1.648-0.008,3.301,0.028,4.95c1.177,0.123,0.821,0.41,2.064-0.363
	C234.593,22.732,232.605,25.436,235.637,20.335z M231.399,71.061c0.447-1.426,0.871-2.859,1.271-4.302
	c0.052-0.28,0.128-0.579,0.258-0.948c0.43-1.6,0.829-3.209,1.195-4.832c0.091-0.709,0.213-1.41,0.437-2.01
	c0.524-2.521,0.971-5.069,1.33-7.647c1.064-7.621,1.378-15.507,0.77-23.718l-1.823-1.351c-0.916,0.526-1.2,0.58-2.206,1.051
	c-0.385,0.18-0.82,0.449-1.069,0.629c-0.388,0.28-0.161,0.143-0.471,0.372c-0.432,0.321-0.232,0.15-0.666,0.449
	c-1.435,0.987-0.872,2.342-0.872,6.104v0.333c0.029,0.313,0.059,0.625,0.09,0.937l-0.09,0.009l-0.002,9.123
	c-0.006,1.246,0.241,2.695,0.241,3.37c0,4.788-0.706,18.199-0.358,21.207c0.131,1.13-0.042,1.476-0.018,2.332
	c0.027,0.964,0.228,1.252,0.644,2.012c0.666-0.869,0.386-1.22,0.818-2.272C231.068,71.44,231.238,71.233,231.399,71.061z
	 M237.866,20.077c0.045,0.33,0.09,0.658,0.132,0.986c0.905,0.454,1.305-0.251,3.83-1.128c1.863-0.648,10.072-5.204,12.116-6.158
	c1.162-0.543,4.708-3.486,5.387-3.607l3.101,0.378c-0.115,2.398-1.738,3.48-3.629,4.173c-2.171,0.796-2.482,2.307-4.851,3.294
	c-1.252,0.521-2.109,1.396-3.154,2.169c-4.159,3.075-1.163-1.006-7.52,2.017c-2.972,1.413-3.385,1.702-4.774,3.482
	c0.43,4.785,0.549,9.461,0.394,14.04c-0.07,6.557-0.422,10.778-1.731,18.069c-0.342,1.904-2.527,11.466-3.232,13.847
	c-0.466,1.573-1.046,2.739-1.454,4.102c-0.867,2.894-2.508,5.729-3.009,8.52l0.32,21.171c2.677,1.093,4.699-0.938,7.387-2.464
	c1.584-0.898,3.014-1.684,4.532-2.786c1.046-0.76,1.558-0.557,2.499-1.149l13.867-8.047c1.502-0.787,3.526-1.394,5.121-2.18
	c2.915-1.437,0.398-1.628,4.966-1.109c-0.684,0.637-1.457,0.757-2.286,1.261c-0.803,0.487,0.033,0.248-1.214,0.706
	c-0.579,0.213-0.96,0.181-1.516,0.494c-0.922,0.521-1.168,1.042-2.169,1.436c-1.471,0.578-1.038,0.902-2.408,1.555l-2.368,1.303
	c-1.746,0.984-3.6,1.485-5.188,2.69c-0.707,0.538-1.691,1.013-2.376,1.525c-1.26,0.945-0.585,0.597-2.374,1.321
	c-1.231,0.498-1.128,0.8-2.291,1.614c-0.944,0.663-6.093,3.881-7.192,4.319c-0.972,0.387-3.887,2.205-5.035,2.851
	c-1.672,0.938-0.982,2.379-0.921,4.175c0.02,0.54-0.129,1.039-0.091,1.683c0.18,3.055,0.172,7.789,1.175,10.54l2.589,8.982
	c0.268,1.077,0.67,1.735,0.993,2.888c0.412,1.469,0.405,1.554,1.067,2.612c0.809,1.295,0.481,1.551,1.045,2.914
	c0.492,1.192,0.818,0.784,1.315,2.66c0.458,1.732,1.849,3.437,2.858,4.66c0.357,0.433,0.599,0.634,0.921,1.049
	c0.409,0.525,0.41,0.749,0.741,1.229c0.566,0.82,1.874,1.247,2.665,0.771l1.658-2.391h1.316c-0.094,1.673,0.498,1.626-0.569,3.369
	c-0.497,0.813-1.282,1.84-2.366,2.148c-1.883,0.537-4.593-2.275-5.372-3.189c-1.526-1.791-2.805-2.632-3.716-5.32l-2.824-6.119
	c-0.941-2.182-1.52-4.516-2.385-6.644c-0.652-1.603-0.849-0.771-1.135-3.259c-0.21-1.828-0.502-2.221-0.986-3.583
	c-0.64-1.802-0.921-5.44-1.236-7.789c-0.211-1.571-0.542-2.025-0.628-3.795c-0.069-1.441,0.329-5.746-2.413-3.509
	c-0.905,0.738-5.217,3.259-6.634,4.07c-1.287,0.738-2.732,2.167-4.087,2.944c-1.209,0.694-0.884,0.28-2.064,1.309
	c-1.746,1.521-2.903,1.803-4.226,2.805c-0.725,0.55-1.33,1.219-2.019,1.626c-0.761,0.45-1.49,0.605-2.257,1.111l-4.04,2.986
	c-1.361,0.89-2.993,2.135-4.487,2.789c-1.538,0.673-3.052,1.938-4.241,2.82c-0.765,0.567-1.5,0.766-2.325,1.314
	c-0.912,0.606-1.093,1.072-1.823,1.549c-1.188,0.776-1.194,0.237-2.333,1.329c-1.698,1.628-3.974,2.925-5.796,4.601
	c-0.767,0.705-5.142,3.141-6.456,4.227c-1.298,1.072-2.559,2.15-4.104,2.934c-1.166,0.591-3.002,2.233-3.818,3.185
	c-1.094,1.272-4.36,2.346-4.222-0.456c0.048-0.958,0.716-1.123,1.546-1.653c2.516-1.607,5.973-4.776,8.155-5.88
	c1.696-0.858,3.035-1.512,4.399-2.64l4.013-3.01c1.853-1.396,4.496-2.856,6.271-4.438l5.066-3.649
	c1.28-0.772,2.179-1.187,3.392-2.195c1.518-1.263,2.646-1.724,4.21-2.814l6.202-4.195c0.992-0.665,1.414-1.076,2.106-1.545
	c1.392-0.94,3.16-1.804,4.73-2.585c2.654-1.319,5.611-4.396,8.429-5.609c0.896-0.387,1.577-0.701,2.149-1.223
	c0.741-0.675,1.424-0.772,2.289-1.366c1.55-1.061,2.564-2.106,3.918-3.261c0-6.489-0.652-10.699-1.882-17.072
	c-0.673,0.567-0.641,1.033-1.079,1.88c-0.732,1.417-4.43,4.175-5.613,4.522c-3.142,0-3.474-1.156-4.72-3.17l-1.117-6.67
	c-0.795,0.436-2.1,2.259-2.398,3.311c-0.702,2.476-4.328,9.759-5.99,11.672c-2.518,2.898-4.457,2.485-6.356-1.139l-1.805-9.917
	l0.539-7.517c3.111,0.308,1.853,3.464,2.661,7.4l2.044,7.919c1.428-0.424,3.216-3.28,3.749-4.604
	c0.662-1.645,1.016-1.336,1.597-2.622c0.839-1.857,1.579-3.923,2.687-5.75c0.528-0.87,0.91-1.789,1.372-2.852l3.242-5.428
	c1.88,2.03,0.62,4.77,1.399,7.783c0.993,3.837,0.399,3.118,1.973,7.744c2.922,0,4.076-3.078,5.822-4.975
	c0.872-0.947,0.824-1.068,1.481-2.153c3.787-6.254,1.147-6.232,1.391-11.535c0.157-3.438,0.604-0.798,0.283-5.333
	c-0.106-1.492,0.375-2.807,0.475-4.236c0.166-2.394-0.072-4.887,0.002-7.288c0.17-5.472,0.4-2.703,0.004-8.432
	c-0.107-1.557,0.245-2.872,0.241-4.777c-0.011-4.592-0.467-8.692-0.74-13.211c-1.493-1.116-2.828,0.134-4.312,0.999
	c-1.422,0.83-2.866,1.371-4.312,2.147c-2.712,1.458-5.872,2.551-8.797,4.12c-1.918,1.028-4.61,2.138-6.282,3.274
	c-1.104,0.75-0.462,0.755-2.066,1.307c-1.591,0.546-0.981,0.465-1.978,1.113c-0.968,0.629-1.337,0.313-2.386,0.999
	c-3.554,2.327-4.935,2.284-6.392,3.165c-0.864,0.522-1.366,0.786-2.154,1.211l-6.081,3.492c-1.055,0.664-1.496,0.536-2.44,0.933
	c-1.025,0.43-0.787,0.676-1.874,1.219c-0.979,0.489-1.352,0.353-2.314,1.044c-1.302,0.935-4.26,2.265-6.118,3.417
	c-0.678,0.42-1.528,0.787-2.193,1.198l-8.653,4.256c-1.088,0.647-0.363,0.603-1.954,1.132c-2.164,0.72-3.599,2.095-6.611,3.237
	c-0.918,0.349-3.654,1.689-4.366,2.108c-1.583,0.932-2.398,1.092-4.206,2.245c-0.801,0.511-1.428,0.497-2.184,0.907l-4.103,2.372
	c-1.83,1.114-4.181,1.93-6.48,3.348c-0.606,0.374-1.444,0.927-2,1.135c-1.338,0.499-1.301,0.03-2.36,0.967
	c-1.812,1.604-0.985,2.551-1.78,4.7c-1.29,3.481-0.768,7.972-1.343,11.537c-0.318,1.969-0.905,3.226-1.168,5.336
	c-0.718,5.756-1.821,11.6-1.794,17.581c0.013,3.066-0.497,6.224-0.238,9.277c0.198,2.34,0.2,1.035,0,3.373
	c-0.164,1.918,0.107,5.992,0.478,7.871l2.036,5.777c0.74-1.077,1.43-1.96,1.952-3.244c1.778-4.374,6.242-16.759,6.577-20.812
	c0.314-3.796,0.996-5.581,2.387-8.929c1.552,3.17,1.513,3.096,0.592,8.458c-0.561,3.269-0.341,2.662-0.334,5.808
	c0.011,4.852,0.946,6.529,2.833,10.626c4.54-0.808,2.17-4.403,1.646-5.788l-1.607-8.48c-0.314-3.348,0.282-10.397,0.816-13.978
	c0.298-2,0.578-1.707,1.252-3.023c0.899-1.753,1.55-7.511,5.042-8.193c5.729-1.12,5.707,7.953,5.949,11.551l-1.504,11.465
	c-1.251,4.571-1.451,5.108-2.564,10.242c1.39,0.061,0.919-0.509,1.733-1.512c0.476-0.585,0.813-1.105,1.108-1.986
	c0.868-2.59,5.144-8.473,5.97-14.329l1.646-8.492c0.063-1.796,0.227-8.63,0.476-9.569l2.343-4.603
	c0.837,3.15,0.774,3.843,0.774,7.133c0,2.45-0.84,7.186-0.852,9.263c-0.012,1.831,0.278,4.46,0.102,6.414
	c-0.352,3.879-0.947,4.285,1.558,7.631l3.07-6.174c0.387-0.85,0.459-1.594,0.846-2.556c0.408-1.015,0.634-1.023,0.961-2.071
	c0.75-2.395,1.236-5.249,2.316-7.576c0.362-0.782,0.651-1.313,0.896-2.149c0.635-2.17,1.477-5.746,2.253-7.628
	c0.354-0.854,0.652-1.308,0.904-2.154c0.266-0.894,0.235-1.721,0.702-2.695l2.102-4.21c4.302-1.113,3.324,2.276,4.519,4.331
	c1.905,3.275-0.18,1.041,3.069,6.315c1.307-1.282,1.952-4.114,2.848-5.705c1.092-1.939,0.969-2.048,2.399-4.061
	c1.473-2.073,2.979-6.166,5.701-2.969c2.583,3.035,2.047,12.772,2.897,13.952c0.855,1.186,1.876,0.213,2.297,1.867
	c0.554,2.183-2.37,13.44-2.879,14.258l-2.304,2.234c-1.486-3.84-2.344-5.039-1.965-9.291l0.959-5.341l-0.239-12.647
	c0-1.059-1.166-1.696-1.934-2.24c-0.431,0.733-0.393,0.988-0.681,1.74c-0.278,0.727-0.538,0.985-0.905,1.649
	c-0.426,0.774-1.274,2.593-1.614,3.459c-0.22,0.558-0.419,1.349-0.618,1.888c-0.349,0.943-0.468,0.946-0.795,1.715l-1.665,3.729
	c-0.475,1.097-1.924,6.531-2.069,8.044c-0.435,4.491-0.274,4.019-2.524,7.775c-3.405-4.056-1.204-1.615-0.874-8.929
	c0.391-8.638-0.15-9.008-2.229-16.962l-1.526,0.248c-1.122,1.784-2.085,8.849-2.736,10.483c-0.83,2.082-2.004,5.396-2.44,7.613
	c-0.537,2.722-1.214,3.161-1.598,4.876c-0.423,1.89-1.228,3.104-1.642,5.106c-0.395,1.904-0.479,1.241-1.02,2.379
	c-0.607,1.276-0.971,3.674-1.937,4.82c-0.468,0.555-3.38,3.085-3.951,3.085c-2.502,0-3.125-4.926-3.589-6.628
	c-0.88,2.125-1.665,2.465-2.098,4.313c-0.308,1.314-0.564,1.332-1.122,2.253l-2.232,4.504c-0.508,1.052-0.682,1.272-1.42,1.943
	c-1.458,1.323-1.922,2.313-4.119,2.697c-4.589,0.805-4.389,7.437-10.283,4.25c-1.232-0.666-3.117-4.972-3.867-6.324
	c-0.988,2.339-1.463,6.514-2.612,8.555c-0.435,0.772-0.673,0.706-1.05,1.759c-0.323,0.901-0.241,1.05-0.742,2.091
	c-0.691,1.438-0.839,2.82-2.428,3.495c-1.453,0.616-2.991,0.163-3.912-0.862c-1.148-1.28-0.973-2.643-1.259-4.6
	c-0.243-1.661-0.74-2.586-0.903-4.809l-0.487-5.338l0.252-4.215l-0.493-7.734c-0.934,0.384-0.834,1.024-1.038,2.014
	c-0.174,0.841-0.412,1.371-0.724,2.067c-0.737,1.643-0.801,3.219-1.337,4.278c-1.191,2.354-0.785,1.964-1.599,4.021
	c-0.288,0.728-0.583,1.098-0.853,1.996c-0.423,1.407-1.194,2.569-1.496,4.071c-0.256,1.277,0.09,1.453-0.519,2.306
	c-0.669,0.936-0.608,0.161-1.17,1.702c-0.677,1.855-2.901,8.064-5.342,7.725l-0.691-0.164c-1.491-4.025-1.269-4.495-0.83-8.792
	c0.133-1.304-0.241-2.615-0.241-3.935l0.478-8.442l-0.36-8.491c-0.97,0.444-1.034,1.493-1.481,2.625
	c-0.429,1.084-0.884,1.6-1.108,2.811c-0.449,2.424,0.112,1.212-1.037,2.893c-0.572,0.838-0.572,2.04-1.067,3.171l-3.726,8.064
	c-1.019,2.253-1.199,3.068-2.534,5.63c-0.442,0.849-0.811,1.735-1.264,2.641c-0.574,1.146-0.822,1.415-1.248,2.7
	c-0.686,2.069-1.605,3.564-2.652,5.48c-0.702,1.285-0.433,1.784-0.973,2.972c-0.281,0.617-0.484,0.798-0.711,1.278
	c-1.073,2.268-0.024,1.213-2.717,2.796c-0.443-1.623,0.564-3.868,1.25-4.837c0.942-1.331,1.885-4.798,2.631-6.643
	c0.368-0.906,0.746-1.205,1.069-2.046c0.354-0.919,0.304-1.455,0.797-2.281c0.957-1.604,1.551-3.791,2.919-6.353
	c0.539-1.01,0.507-0.525,0.988-2.142c0.268-0.899,0.425-1.225,0.87-2.171l4.144-8.524c0.327-0.76,0.338-1.616,0.6-2.486
	c0.707-2.354,1.662-4.532,2.521-6.771c1.22-3.178,2.047-6.456,3.156-9.443c0.735-1.98,1.061-2.563,1.505-4.641
	c0.51-2.384,0.966-1.837,1.343-4.867c1.528-12.29,3.823-14.688-3.276-10.341l-5.719,2.732c-2.775,1.256-6.179,3.418-8.228,4.408
	c-1.297,0.626-2.123,0.523-2.883,1.622c-1.296,1.876-0.097,4.764-0.09,7.182c0.008,2.404,0.471,5.664,0.681,7.932
	c0.135,1.454,0.165,2.462,0.308,3.871c0.154,1.516,0.59,2.21,0.683,3.651l-0.295,7.266c-2.942,0.95-2.756-2.596-3.022-4.506
	c-0.481-3.448-0.381-4.903-0.713-7.532l-1.476-15.028c-2.727-0.603-5.53,1.734-7.75,3.178c-1,0.65-2.896,1.329-4.083,1.829
	c-1.773,0.748-1.55,1.894-2.026,3.89c-1.182,4.962-1.752,9.889-2.763,14.992c-0.414,2.088-0.903,2.714-1.197,4.869l-1.147,4.813
	c-0.851,3.088-4.371,0.947-3.406-1.445c0.474-1.175,0.549-0.311,0.81-2.206c0.486-3.532,1.306-6.542,2.059-9.873
	c0.588-2.601,1.314-4.674,1.514-7.251c0.285-3.688,2.668-6.019-4.445-2.377l-5.85,3.145c-1.141,0.592-2.319,1.689-3.532,2.379
	c-4.955,2.815-10.217,5.63-15.05,8.56c-1.664,1.009-4.2,2.121-5.762,3.188l-3.508,2.42l-11.069,6.638
	c-1.24,0.837-0.332,0.696-1.785,1.312c-1.11,0.47-0.86,0.336-1.805,1.002c-1.133,0.799-1.223,0.437-2.185,0.913
	c-1.66,0.823-0.992,2.749-3.293,2.669c-2.031-0.071-2.419-2.26-0.406-3.268c1.319-0.661,2.859-1.38,3.792-2.137
	c0.968-0.787,2.487-1.645,3.611-2.282c1.065-0.604,3.08-1.446,3.875-2.026l3.421-2.47c3.18-2.279,7.518-4.308,10.947-6.752
	l5.702-3.313c2.115-1.068,7.711-4.225,9.437-5.438c1.648-1.158,6.943-3.832,7.526-4.277c1.92-1.463,11.229-5.737,11.744-6.267
	c1.809-1.861,1.272-6.865,2.391-9.419l1.93-9.847c0.359-1.656,0.369-3.394,0.717-5.224c0.36-1.893,0.87-2.702,1.062-4.787
	c0.328-3.567,1.506-6.576,1.916-10.125c0.194-1.683,0.83-3.407,1.131-4.837c0.354-1.682,0.382-3.388,0.852-5.028
	c0.45-1.575,0.921-3.18,1.088-4.796c0.185-1.801,0.727-3.202,1.052-4.922c0.341-1.804,0.484-3.452,0.889-4.941
	c0.717-2.639,0.731-1.511,1.105-4.828c0.73-6.476-0.898-3.852,3.029-9.197c1.951,5.338,0.898,3.912,0.902,10.147
	c0.004,6.524,0.728,12.935,0.959,19.393c0.067,1.874-0.367,3.721-0.234,5.62l-0.005,3.374c-0.267,4.03,0.115,24.115,0.72,28.426
	c2.319,0,2.036-0.095,3.827-1.066l3.259-1.544c2.143-0.831,3.919-2.453,6.174-3.372c0.698-0.284,0.993-0.48,1.528-0.706
	c1.971-0.832,8.124-3.478,8.935-5.388c0.198-0.467,1.507-22.302,1.708-24.212c0.423-4.032,0.319-7.152,0.644-10.519
	c0.186-1.923,0.479-10.343,0.804-11.41l1.841-2.743c3.221,3.8,2.241,24.835,2.241,29.162c0,1.585-0.58,7.491-0.932,8.842
	c-0.721,2.767-0.585,5.438-0.509,8.317c1.989,0.107,3.766-1.594,5.256-2.109c5.927-2.048,3.991-4.907,4.095-10.565
	c0.079-4.297,1.217-9.074,1.441-13.477c0.17-3.333,1.732-15.384,2.167-19.449l2.161,2.022c0,4.3-1.029,12.484-1.439,17.418
	c-0.165,1.986-0.721,3.908-0.721,5.909c0,1.403,0.789,2.8,0.424,4.956c-0.593,3.5-0.203,1.633,0.057,4.881
	c0.14,1.745-1.253,4.787,2.346,3.385l3.389-1.7c2.891-1.675,8.448-4.593,11.832-5.89l4.935-2.619
	c2.326-1.244,4.822-1.905,6.913-3.214l6.563-3.586c5.858-2.678,12.025-6.578,16.78-8.768c1.293-0.596,2.108-1.309,3.253-1.8
	l5.117-2.459c2.611-1.92,1.756-0.429,3.494-1.572l4.922-2.669c1.182-0.501,1.917-1.17,3.281-1.775
	c1.67-0.741,1.347-0.971,3.376-1.675c1.138-0.395,0.602-0.439,1.607-0.947c0.738-0.373,1.349-0.405,1.984-0.825l6.275-3.851
	c1.029-0.53,1.848-0.637,3.531-1.524c1.646-0.868,3.47-1.459,5.099-2.486c0.656-0.413,0.759-0.581,1.56-0.974
	c1.143-0.562,6.238-2.642,6.839-3.292c0.078-0.085,0.156-0.202,0.233-0.342c-0.07-2.297-0.089-4.609-0.059-6.91
	c0.012-0.863,0.031-1.725,0.057-2.583c-0.215-1.157-0.368-2.79-0.368-5.159c0-1.329,0.6-1.962,0.704-3.138
	c0.142-1.58,0.208-5.905,0.745-7.25c0.267-0.669,1.395-1.728,2.134-1.19c2.091,0.435,4.126,6.252,5.648,12.126
	c0.684,2.637,1.282,5.31,1.731,7.47L237.866,20.077z M293.004,96.127c0.222-0.379,0.808-0.208-0.032-1.02
	c-0.271-0.261-0.681-0.335-1.074-0.345c-1.182-0.03-1.054,0.416-2.12,0.942c-1.553,0.766-2.993,0.834-3.575,2.653
	C285.522,100.483,290.775,99.947,293.004,96.127z"/>
</svg>
