<?xml version="1.0" encoding="UTF-8"?>
<svg version="1.1" xmlns="http://www.w3.org/2000/svg" width="341" height="136" >
<path d="M24.709,59.043c-2.429-3.816-7.094,2.32-8.371,3.993c-5.72,7.495-10.754,17.235-11.996,26.646 c-0.41,3.106-0.124,9.164,4.337,8.255c3.578-0.729,6.986-4.131,9.667-6.38C41.324,72.279,60.433,48.49,81.24,26.99 c-0.66-0.66-1.32-1.32-1.979-1.979C67.669,37.354,58.336,52.442,51.488,67.844c-2.499,5.62-4.506,11.451-6.29,17.333 c-0.611,2.016-2.183,5.686-1.294,7.864c1.801,4.413,6.541-4.261,7.156-5.313c3.885-6.643,6.972-13.717,9.859-20.837 c2.201-5.427,6.56-14.163,3.76-20.061c-4.141-8.725-22.755,8.262-25.78,12.45c-1.342,1.859-2.344,5.362,0.905,5.848 c5.555,0.828,12.862-4.391,17.31-6.892c11.729-6.595,22.911-14.227,34.31-21.373c5.462-3.425,11.071-6.712,16.302-10.488 c1.405-1.014,3.961-2.659,3.016-4.736c-0.817-1.797-4.145-2.106-5.686-1.781c-7.535,1.592-14.695,7.677-19.57,13.357 c-2.181,2.541-4.031,5.531-4.571,8.875c-0.817,5.062,0.902,10.322-0.004,15.529c-1.356,7.791-7.402,12.67-10.233,19.634 c-1.014,2.496-0.292,5.131,2.733,5.242c5.554,0.203,12.099-4.502,16.603-7.103c14.633-8.452,28.465-18.364,42.194-28.185 c-0.566-0.733-1.132-1.466-1.697-2.199c-15.594,13.707-29.795,29.633-41.469,46.783c-1.021,1.502,1.396,2.881,2.418,1.414 c8.277-11.887,16.623-23.727,25.047-35.51c5.918-8.278,11.735-16.722,18.215-24.576c3.457-4.189,7.418-8.611,12.174-11.35 c2.429-1.399-1.306,6.444-2.101,8.12c-6.444,13.59-12.515,27.35-19.28,40.788c-3.108,6.175-6.303,12.374-10.152,18.127 c-1.029,1.538-2.176,3.3-3.708,4.392c-0.892,0.637-0.722-1.808-0.753-2.697c-0.678-19.493,21.205-26.164,36.85-28.1 c1.768-0.219,1.789-3.021,0-2.801c-14.792,1.83-32.886,6.744-38.446,22.334c-1.115,3.125-3.017,11.56,0.694,14.002 c2.586,1.701,5.566-2.662,6.759-4.263c8.781-11.776,14.61-26.293,20.793-39.521c2.985-6.385,5.9-12.803,8.883-19.189 c1.571-3.365,6.794-10.517,3.676-13.892c-6.502-7.038-31.627,31.083-35.292,36.197c-8.68,12.111-17.26,24.297-25.775,36.525 c0.806,0.472,1.612,0.942,2.418,1.414c11.532-16.943,25.623-32.673,41.031-46.217c1.187-1.043-0.4-3.127-1.697-2.199 c-16.261,11.631-32.862,24.392-51.076,32.903c-1.265,0.591-5.911,2.739-6.772,1.923c-0.222-0.211,0.985-2.81,1.581-3.818 c3.415-5.785,7.566-10.661,9.085-17.435c1.054-4.7,0.517-9.632,0.04-14.364c-0.474-4.702,3.805-9.051,6.861-12.05 c3.364-3.302,12.262-11.29,17.509-9.041c0.735,0.315,0.234-0.647,0.038-0.424c-0.999,1.134-2.413,1.962-3.649,2.8 c-6.519,4.42-13.304,8.469-19.972,12.658c-11.322,7.113-22.412,14.77-34.318,20.89c-2.804,1.44-5.75,2.881-8.863,3.502 c-1.65,0.329-0.874-0.262,0.059-1.641c3.002-4.437,8.063-7.849,12.595-10.513c2.674-1.572,8.598-5.036,8.76,0.272 c0.128,4.211-1.809,8.729-3.246,12.602c-2.874,7.745-6.321,15.323-10.364,22.528c-0.744,1.325-1.533,2.624-2.367,3.896 c-0.332,0.507-0.687,0.996-1.07,1.465c-1.069,1.308,0.142-0.701,0.903,1.165c-0.385-0.944,0.514-3.074,0.749-3.99 c0.847-3.297,1.976-6.527,3.074-9.747C54.637,65.8,61.129,54.046,68.598,43.102c3.831-5.613,7.981-11.148,12.642-16.112 c1.234-1.313-0.72-3.281-1.979-1.979c-16.707,17.264-32.56,35.328-49.641,52.237c-6.158,6.096-12.871,13.834-20.798,17.685 C4.81,96.881,8.747,83.099,9.475,81.185c1.615-4.246,3.901-8.26,6.251-12.134c0.971-1.599,6.574-8.579,6.564-8.594 C23.257,61.975,25.681,60.571,24.709,59.043L24.709,59.043z"/>
<path d="M131.959,96.957c3.061-6.362,6.624-12.505,10.36-18.489c6.707-10.744,14.625-21.984,25.388-29.009 c-0.639-0.639-1.277-1.277-1.916-1.916c-3.014,3.935-27.339,36.601-17.698,38.65c2.628,0.559,5.757-1.576,7.856-2.833 c4.556-2.727,8.757-6.086,12.892-9.403c4.434-3.557,8.736-7.279,12.962-11.08c1.754-1.578,6.062-4.366,6.688-6.774 c0.116-0.447,0.02-1.053-0.36-1.362c-3.546-2.887-11.227,8.482-12.469,10.664c-3.533,6.209-3.732,17.695,4.436,20.331 c7.107,2.294,16.038-4.443,21.315-8.269c4.879-3.536,9.54-7.489,13.828-11.727c-0.66-0.66-1.32-1.32-1.98-1.98 c-3.829,4.597-16.275,24.457-4.188,26.538c5.536,0.952,11.961-2.818,16.507-5.49c3.598-2.114,8.43-5.239,10.079-8.819 c-0.854-0.359-1.706-0.719-2.56-1.079c-1.061,4.645-3.138,8.951-2.482,13.872c1.229,9.232,11.946,3.302,16.341,0.428 c-0.703-0.403-1.405-0.806-2.107-1.209c-0.122,4.284,2.217,8.775,6.709,9.576c5.256,0.938,10.797-2.354,15.027-5.016 c11.398-7.169,21.133-17.186,30.404-26.82c-0.733-0.565-1.466-1.131-2.199-1.697c-5.371,7.442-11.238,15.32-14.594,23.914 c-0.855,2.188-0.973,6.157,2.552,5.347c4.223-0.972,8.191-3.738,12.298-5.197c2.437-0.865,5.106-1.731,7.703-1.956 c-0.403-0.702-0.806-1.404-1.209-2.107c-1.451,2.068-2.927,4.959-2.511,7.555c0.838,5.22,7.663,4.17,11.342,3.502 c-0.359-0.853-0.719-1.705-1.079-2.559c-2.502,1.29-6.159,3.46-5.387,6.745c0.773,3.294,5.072,1.203,6.729,0.294 c9.977-5.474,20.121-15.896,25.073-26.123c0.789-1.63-1.391-2.902-2.418-1.414c-5.494,7.965-11.488,16.141-15.474,24.987 c-0.818,1.814-1.445,6.128,2.032,4.612c2.219-0.968,6.597-5.854,5.857-0.859c-0.332,2.242-1.171,4.558-0.807,6.839 c0.283,1.779,2.981,1.021,2.699-0.744c-0.496-3.116,3.325-9.296-0.547-11.405c-2.195-1.196-5.231,1.419-6.76,2.568 c-0.286,0.228-0.582,0.444-0.885,0.65c-1.432,1.008,0.342-0.513,0.339,1.177c0.001-0.767,0.624-1.734,0.94-2.402 c4.011-8.456,9.718-16.321,15.021-24.009c-0.806-0.472-1.612-0.942-2.418-1.414c-3.654,7.548-9.868,13.774-16.107,19.242 c-2.666,2.337-5.509,4.532-8.622,6.24c-3.851,2.112,0.619-1.78,2.146-2.566c1.499-0.772,0.395-2.826-1.079-2.559 c-3.176,0.575-8.991,1.538-7.519-3.381c0.378-1.26,1.096-2.488,1.85-3.563c0.587-0.837-0.188-2.195-1.209-2.107 c-4.375,0.38-8.771,2.011-12.771,3.712c-2.181,0.927-4.315,1.923-6.437,2.979c-0.366,0.201-0.749,0.359-1.15,0.474 c-0.601,0.198-0.038,0.545-0.021,0.013c0.057-1.696,1.267-3.585,2.01-5.044c3.583-7.03,8.215-13.637,12.827-20.026 c0.944-1.31-1.116-2.822-2.199-1.697c-8.553,8.889-17.416,17.734-27.538,24.85c-4.163,2.926-9.524,6.55-14.87,6.292 c-3.542-0.171-5.037-3.918-4.951-6.901c0.029-1.03-1.224-1.787-2.107-1.209c-2.769,1.812-6.964,5.019-10.536,4.2 c-2.038-0.467-1.762-3.856-1.665-5.358c0.227-3.52,1.688-6.613,2.457-9.979c0.338-1.48-1.868-2.58-2.559-1.079 c-2.896,6.286-13.425,10.813-19.622,12.547c-13.484,3.771-2.063-16.958,1.622-21.382c1.137-1.365-0.674-3.271-1.98-1.98 c-7.735,7.645-17.687,16.881-28.565,19.294c-4.164,0.924-6.646-1.146-8.02-4.949c-1.745-4.831,0.282-9.862,3.006-13.849 c1.844-2.7,4.428-5.219,7.199-6.961c1.027-0.646-0.749-2.372-1.846-1.261c-0.34,0.345-0.694,0.677-1.044,1.013 c-0.973,0.933-1.966,1.844-2.96,2.755c-6.055,5.544-12.33,10.884-18.867,15.852c-2.872,2.183-5.829,4.271-8.958,6.07 c-1.354,0.778-4.729,3.086-4.637,0.564c0.256-6.979,6.882-15.06,10.569-20.61c2.881-4.334,5.905-8.59,9.071-12.721 c0.868-1.134-0.794-2.647-1.916-1.916c-16.647,10.866-28.294,30.924-36.752,48.502C128.762,97.162,131.176,98.583,131.959,96.957 L131.959,96.957z"/>
<path d="M319.122,62.1c0.291-0.115,0.593-0.203,0.897-0.275c0.116-0.028,0.234-0.049,0.353-0.068 c-0.44,0.071,0.036,0.015,0.149,0.018c0.153,0.013,0.107,0.006-0.14-0.02c0.143,0.041,0.098,0.018-0.134-0.07 c0.122,0.074,0.08,0.04-0.127-0.102c-0.163-0.157-0.26-0.354-0.271-0.582c0.038,0.762,0.609,1.4,1.4,1.4 c0.735,0,1.438-0.638,1.4-1.4c-0.114-2.322-2.654-2.24-4.272-1.6c-0.709,0.28-1.197,0.926-0.978,1.722 C317.586,61.798,318.411,62.382,319.122,62.1L319.122,62.1z"/>
</svg>