<?xml version="1.0" encoding="UTF-8" standalone="no"?>
<svg
 xmlns="http://www.w3.org/2000/svg"
 version="1.1"
 width="252"
 height="71">
<path d="m 234.285,19.267 c 0.454,-0.856 0.864,-1.82 0.984,-2.787 0.233,-1.886 -1.681,-1.933 -3.034,-1.464 -0.3,0.104 -0.94,0.355 -0.822,0.796 0.11,0.411 0.811,0.382 1.109,0.278 0.132,-0.045 0.575,-0.177 0.564,-0.179 0.097,0.014 0.13,0.037 0.183,0.16 0.165,0.379 0.039,0.851 -0.055,1.23 -0.161,0.648 -0.43,1.281 -0.742,1.871 -0.461,0.867 1.487,0.709 1.813,0.095 l 0,0 z m -43.834,24.77 c 3.641,-1.638 7.23,-3.395 10.771,-5.239 3.267,-1.702 8.558,-3.758 10.402,-7.18 1.073,-1.992 -2.165,-0.502 -2.697,-0.047 -4.206,3.601 -7.771,7.937 -11.929,11.611 -1.626,1.437 -11.111,5.637 -8.85,8.938 2.003,2.923 6.322,0.749 8.684,-0.428 10.079,-5.024 20.125,-11.921 28.672,-19.252 0.791,-0.678 -0.718,-0.972 -1.197,-0.708 -6.285,3.471 -12.429,7.29 -18.188,11.579 -1.838,1.369 -13.164,9.996 -6.897,12.245 2.173,0.779 5.098,-0.524 7.074,-1.296 4.553,-1.779 8.823,-4.427 12.95,-7.011 7.647,-4.788 16.096,-10.112 22.258,-16.81 0.796,-0.865 -0.92,-0.918 -1.412,-0.588 -8.379,5.625 -16.767,11.474 -24.325,18.174 -1.233,1.094 -5.916,4.654 -4.47,6.804 1.565,2.327 8.383,-0.95 10.027,-1.589 6.513,-2.527 12.752,-5.876 18.772,-9.399 1.131,-0.662 10.202,-6.166 9.874,-6.922 0.955,2.206 -4.795,7.426 -5.951,8.652 -7.118,7.549 -15.556,13.88 -23.928,19.947 -1.064,0.771 0.551,1.229 1.24,0.73 7.741,-5.61 15.329,-11.479 22.202,-18.14 2.959,-2.868 6.562,-6.267 8.145,-10.187 0.514,-1.271 0.164,-2.441 -1.401,-2.211 -2.894,0.425 -5.72,3.814 -8.041,5.322 -6.273,4.075 -13.033,7.533 -19.899,10.488 -2.644,1.138 -5.479,2.36 -8.372,2.651 -2.726,0.275 1.706,-4.132 2.231,-4.639 7.48,-7.228 16.518,-13.168 25.136,-18.953 -0.471,-0.196 -0.941,-0.392 -1.412,-0.588 -4.649,5.054 -10.777,9.039 -16.403,12.901 -6.303,4.328 -14.097,10.366 -21.868,11.521 -4.213,0.625 -1.199,-4.078 -0.018,-5.397 2.552,-2.847 5.805,-5.099 8.918,-7.28 4.671,-3.273 9.575,-6.28 14.568,-9.038 -0.399,-0.236 -0.798,-0.472 -1.197,-0.708 -6.26,5.369 -13.364,9.938 -20.324,14.33 -3.257,2.055 -6.588,4.125 -10.162,5.585 -0.252,0.084 -0.504,0.168 -0.756,0.252 -2.805,-2.452 -2.436,-4.16 1.106,-5.126 0.454,-0.231 0.861,-0.45 1.304,-0.709 1.264,-0.742 2.383,-1.752 3.494,-2.7 3.11,-2.653 5.938,-5.647 8.805,-8.555 1.023,-1.037 2.047,-2.074 3.124,-3.055 1.034,-0.942 -0.575,-0.609 -1.043,-0.004 -0.473,0.613 -1.163,1.063 -1.778,1.519 -5.392,3.994 -11.947,6.791 -18.049,9.536 -1.219,0.553 -0.12,1.392 0.81,0.974 l 0,0 z M 93.517,3.709 c -3.549,0.666 -9.658,2.647 -8.232,7.329 1.679,5.513 10.697,9.343 15.447,11.01 10.313,3.619 21.664,3.249 32.367,2.157 10.225,-1.042 21.163,-1.639 30.877,-5.297 4.109,-1.548 8.674,-5.088 7.119,-10.065 -1.573,-5.038 -12.13,-0.659 -14.81,0.361 -10.96,4.171 -21.185,10.755 -30.676,17.542 -7.98,5.707 -19.022,12.835 -23.103,22.254 -2.379,5.493 3.77,6.896 7.803,6.606 7.722,-0.556 15.561,-4.149 22.255,-7.798 4.074,-2.222 11.925,-6.454 11.767,-11.994 -0.118,-4.145 -7.741,-0.928 -9.289,-0.139 -5.283,2.693 -11.122,6.961 -13.213,12.748 -1.521,4.21 2.023,7.34 5.851,7.907 4.932,0.731 10.243,-1.58 14.589,-3.595 8.327,-3.859 15.979,-9.184 23.41,-14.519 10.281,-7.381 20.107,-15.396 29.803,-23.524 0.831,-0.697 -0.957,-0.673 -1.362,-0.404 -14.813,9.814 -30.445,19.941 -43.025,32.562 -3.563,3.573 -7.109,9.699 0.96,9.176 5.623,-0.365 11.321,-3.35 16.25,-5.812 7.547,-3.77 14.659,-8.512 21.178,-13.855 -0.513,-0.093 -1.026,-0.187 -1.539,-0.28 -3.656,3.689 -7.428,7.271 -11.298,10.735 -2.651,2.373 -5.374,4.774 -8.392,6.676 -3.783,2.384 0.508,-5.331 1.021,-6.264 0.43,-0.779 -1.501,-0.54 -1.791,-0.014 -0.677,1.228 -4.465,6.81 -2.208,7.978 1.837,0.95 4.909,-1.63 6.192,-2.55 6.533,-4.685 12.365,-10.582 18.014,-16.281 0.813,-0.821 -1.118,-0.625 -1.539,-0.28 -5.714,4.684 -11.858,8.743 -18.331,12.298 -5.35,2.939 -12.118,6.668 -18.413,6.659 -7.853,-0.013 6.863,-12.907 8.124,-13.969 11.331,-9.547 23.639,-18.072 35.982,-26.251 -0.454,-0.135 -0.908,-0.27 -1.362,-0.404 -11.082,9.291 -22.35,18.397 -34.231,26.654 -7.408,5.148 -15.328,10.423 -23.967,13.258 -4.313,1.416 -12.796,1.997 -12.271,-4.902 0.506,-6.64 10.594,-13.445 16.513,-14.527 4.721,-0.862 1.1,5.055 -0.164,6.375 -3.323,3.47 -7.901,5.859 -12.173,7.934 -4.158,2.021 -21.158,10.127 -23.591,2.494 -1.194,-3.747 4.163,-8.682 6.365,-10.935 5.035,-5.151 10.92,-9.509 16.726,-13.737 10.436,-7.598 22.429,-15.377 35.009,-18.765 3.698,-0.996 7.762,-0.822 7.187,3.91 -0.425,3.498 -4.038,5.21 -6.938,6.303 -4.988,1.879 -10.513,2.495 -15.761,3.205 -7.294,0.986 -14.68,1.859 -22.033,2.173 -9.985,0.426 -20.479,-0.84 -29.289,-5.835 -2.668,-1.513 -5.044,-3.521 -7.045,-5.835 -3.531,-4.084 1.24,-6.754 4.962,-7.453 0.885,-0.167 1.609,-1.27 0.275,-1.02 l 0,0 z M 10.235,51.93 C 21.725,48.22 33.138,43.992 44.105,38.937 49.363,36.514 55.549,33.81 59.429,29.333 62.114,26.234 60.051,23.135 56.31,23.098 48.603,23.021 39.744,29.176 33.607,33.128 28.218,36.599 23.09,40.398 18.406,44.776 13.482,49.378 8.726,54.228 4.4,59.399 2.243,61.977 -4.211,71.284 4.209,68.086 10.639,65.644 16.537,61.39 22.231,57.623 36.52,48.17 50.303,37.941 64.03,27.702 63.595,27.38 63.161,27.058 62.726,26.736 55.602,32.698 48.545,38.741 41.538,44.84 c -8.31,7.233 -18.076,14.445 -24.782,23.287 -1.093,1.44 -0.908,2.979 1.243,2.449 4.13,-1.016 8.279,-5.053 11.586,-7.491 6.473,-4.771 12.839,-9.686 19.365,-14.387 5.282,-3.805 10.997,-8.431 17.285,-10.436 -0.281,-0.397 -0.562,-0.795 -0.842,-1.193 -11.718,7.933 -22.44,17.592 -32.166,27.83 -0.84,0.885 0.871,1.216 1.47,0.803 5.969,-4.118 11.989,-8.163 18.043,-12.153 4.601,-3.032 9.231,-6.021 13.939,-8.885 2.407,-1.464 6.036,-4.448 8.959,-4.691 -0.123,-0.457 -0.245,-0.914 -0.367,-1.37 -4.118,2.354 -28.063,15.413 -23.44,21.722 3.009,4.105 11.204,-1.974 13.872,-3.632 8.422,-5.233 16.254,-11.994 25.45,-15.857 -0.293,-0.411 -0.587,-0.821 -0.881,-1.232 -3.889,2.186 -7.682,4.55 -11.405,7.006 -4.777,3.15 -10.993,6.856 -13.736,12.11 -1.903,3.644 2.384,4.748 5.067,4.479 6.563,-0.658 12.753,-5.431 16.954,-10.186 2.844,-3.22 4.333,-7.207 6.176,-11.021 2.584,-5.349 5.563,-10.492 8.045,-15.893 2.82,-6.135 6.319,-16.645 0.272,-22.149 -7.761,-7.067 -22.657,-3.082 -31.457,-0.108 -1.166,0.394 -0.806,1.822 0.381,1.421 7.78,-2.629 17.352,-4.879 25.418,-2.569 17.464,5 -1.931,33.389 -5.898,41.939 -3.282,7.073 -8.04,12.374 -15.196,15.678 -1.848,0.853 -6.157,2.615 -7.908,0.751 -1.486,-1.583 1.861,-4.637 2.807,-5.567 6.073,-5.972 13.974,-10.508 21.361,-14.659 1.168,-0.656 0.135,-1.659 -0.881,-1.232 -6.402,2.689 -12.152,6.964 -17.869,10.841 -3.374,2.287 -6.751,4.57 -10.263,6.643 -1.762,1.04 -6.016,4.002 -8.16,2.802 -4.77,-2.67 19.521,-18.536 22.172,-20.053 0.781,-0.446 0.617,-1.452 -0.367,-1.37 -2.731,0.227 -5.56,2.354 -7.837,3.684 -4.733,2.761 -9.336,5.75 -13.926,8.74 -6.938,4.52 -13.813,9.145 -20.629,13.847 0.49,0.268 0.979,0.535 1.47,0.803 9.609,-10.117 20.251,-19.662 31.834,-27.503 0.859,-0.582 -0.081,-1.437 -0.842,-1.193 -4.378,1.396 -8.312,4.112 -12.104,6.638 -6.132,4.083 -12.008,8.552 -17.896,12.975 -4.761,3.572 -9.484,7.223 -14.43,10.542 -0.884,0.594 -1.789,1.151 -2.723,1.663 -0.979,0.535 -0.638,0.525 -0.738,0.789 0.421,-1.115 1.617,-2.138 2.404,-2.986 C 33.514,52.304 49.233,40.087 64.03,27.702 65.05,26.848 63.525,26.14 62.726,26.736 45.707,39.431 28.641,52.647 10.261,63.36 7.852,64.764 4.585,67.116 1.672,67.232 1.094,67.255 2.823,64.263 2.987,64.016 6.586,58.619 11.4,53.896 15.978,49.34 25.521,39.844 36.622,31.795 49.066,26.527 c 1.887,-0.799 8.236,-3.653 9.525,-0.761 0.908,2.038 -1.818,4.044 -3.125,5.072 -4.933,3.879 -11.094,6.422 -16.804,8.905 -9.391,4.082 -19.065,7.618 -28.809,10.764 -1.173,0.381 -0.809,1.806 0.382,1.423 l 0,0 z" />
</svg>