<?xml version="1.0" encoding="UTF-8" standalone="no"?>
<!-- Created with Inkscape (http://www.inkscape.org/) -->

<svg
   xmlns:dc="http://purl.org/dc/elements/1.1/"
   xmlns:cc="http://creativecommons.org/ns#"
   xmlns:rdf="http://www.w3.org/1999/02/22-rdf-syntax-ns#"
   xmlns:svg="http://www.w3.org/2000/svg"
   xmlns="http://www.w3.org/2000/svg"
   xmlns:sodipodi="http://sodipodi.sourceforge.net/DTD/sodipodi-0.dtd"
   xmlns:inkscape="http://www.inkscape.org/namespaces/inkscape"
   id="svg2"
   version="1.1"
   inkscape:version="0.91 r13725"
   width="390"
   height="307"
   viewBox="0 0 390 307"
   sodipodi:docname="andrei xomutov2.svg">
  <metadata
     id="metadata8">
    <rdf:RDF>
      <cc:Work
         rdf:about="">
        <dc:format>image/svg+xml</dc:format>
        <dc:type
           rdf:resource="http://purl.org/dc/dcmitype/StillImage" />
        <dc:title></dc:title>
      </cc:Work>
    </rdf:RDF>
  </metadata>
  <defs
     id="defs6" />
  <sodipodi:namedview
     pagecolor="#ffffff"
     bordercolor="#666666"
     borderopacity="1"
     objecttolerance="10"
     gridtolerance="10"
     guidetolerance="10"
     inkscape:pageopacity="0"
     inkscape:pageshadow="2"
     inkscape:window-width="1366"
     inkscape:window-height="705"
     id="namedview4"
     showgrid="false"
     inkscape:zoom="1.7459283"
     inkscape:cx="156.23263"
     inkscape:cy="158.81391"
     inkscape:window-x="-8"
     inkscape:window-y="-8"
     inkscape:window-maximized="1"
     inkscape:current-layer="svg2" />
  <path
     style="fill:#000000"
     d="m 85.354476,280.77511 c -7.186542,-1.98687 -19.289635,-21.13963 -10.47915,-22.79377 -1.328633,10.53212 19.186032,30.71076 20.275936,10.94932 -0.301982,-9.57822 3.019636,-23.96408 -9.724546,-25.8044 -0.392199,-2.96578 6.680401,-5.95739 7.371246,-9.51437 C 89.670471,200.77044 81.39791,168.72448 74.768436,136.48134 72.21195,121.3505 62.921726,103.10082 61.532056,87.84047 c -0.508022,-1.770301 1.640224,-1.979006 2.057262,-0.812343 3.449292,9.750951 5.856948,19.657473 9.790192,29.402803 4.100764,10.16039 8.200278,25.60616 14.450206,37.61271 10.752906,26.46471 24.806284,52.67789 36.215414,77.05074 3.84067,11.86275 15.77723,31.06971 4.55046,37.89153 -5.65552,4.27063 -18.18682,-8.03082 -4.78561,-2.6896 11.97392,0.0393 1.55943,-19.25567 -0.91166,-25.70449 -5.63713,-4.03486 -26.933114,-8.93586 -25.629102,2.02688 -0.111284,11.9172 1.771005,24.20689 -1.738752,35.76433 -1.622309,4.43959 -6.714132,3.75218 -10.17599,2.39208 z m 8.5,-37.23475 c -3.557888,-7.96762 -6.464252,3.105 0,0 z m 28.515314,-5.5838 c -8.95882,-18.29568 -16.75891,-35.44987 -25.345252,-51.67479 -4.828452,-11.19114 -8.437033,-22.58406 -14.858192,-32.94563 2.291916,12.74035 3.876947,22.02656 6.999155,35.66434 3.122209,13.63778 5.721682,29.42493 8.290001,43.47406 8.566618,-1.22761 18.831498,2.94539 24.914288,5.48202 z m 21.19345,14.02478 c -2.01765,-2.68733 5.14268,-4.69864 5.30295,-1.04808 0.16026,3.65056 -3.2853,3.73541 -5.30295,1.04808 z m 20.70787,-36.51819 c -7.45987,-9.7333 1.77431,-20.46026 2.66379,-31.37567 -8.52472,-40.41864 -14.95359,-86.840558 -29.11664,-119.861515 -8.30967,-16.516737 -12.55409,12.039258 -12.39755,19.565053 -0.91543,23.659992 -2.35012,48.137782 4.31437,71.124982 2.77312,4.85565 8.76178,12.1077 0.0107,4.53469 -6.00735,-10.50839 -6.32146,-23.13135 -7.25674,-34.91597 -0.22091,-21.56129 -1.62457,-44.294086 6.55178,-64.677119 11.88157,-16.118733 24.23069,39.487115 26.11897,46.886339 6.28528,24.17812 10.08108,50.46499 14.35298,75.02771 9.50163,-2.71204 1.66759,-25.20689 -1.38926,-34.57976 -7.3662,-30.83165 -11.30352,-63.030464 -6.54193,-94.578019 0.25866,-0.794655 1.06271,-6.900346 2.87137,-10.786758 1.669,-3.586302 4.10314,-6.315684 5.04834,-6.996245 0.31547,-0.227144 0.3827,-0.134344 0.41587,-0.170495 0.26154,-0.285062 1.82962,0.624629 0.32378,2.236594 -0.11069,0.118493 -0.3092,0.06276 -0.45402,0.190724 -2.29007,2.023501 -3.9567,7.738636 -5.24856,13.34403 -2.25636,9.790338 -2.37972,20.530195 -1.83661,22.676097 -0.6777,29.708262 5.35919,62.115072 13.94782,90.471552 3.30916,-8.15287 3.37722,-25.03798 4.52557,-35.47492 0.96121,-30.770093 0.69254,-61.982009 -10.38655,-91.037111 -1.47822,-0.2508 -0.58032,-1.878626 -0.81455,-2.467108 8.05777,2.609632 9.61476,24.246236 12.68049,35.897057 5.13156,32.941572 0.55182,66.192912 -1.65744,99.160062 -2.22591,5.20869 7.99231,23.97519 7.99231,23.97519 0,0 -8.32659,-38.85731 -1.57995,-43.21766 14.51375,-7.75623 19.11169,17.57611 20.74901,27.73412 1.91728,9.23131 1.98295,35.21775 -13.39643,26.80279 -10.2751,-3.78378 -11.85686,-22.87644 -19.28287,-23.96735 -3.17528,4.87789 -6.37535,9.26915 -5.16137,16.07972 0.40825,4.99359 3.56952,22.01111 -2.2764,21.6244 -1.50557,-0.76369 -2.58969,-2.07116 -3.77028,-3.22541 z m 4.56806,-10.73181 c 0.14759,-18.69478 -12.28554,10.83423 -0.67126,7.47736 2.03264,-0.71165 0.71939,-4.87642 0.67126,-7.47736 z m 35.18265,-1.96571 c 5.9123,-3.38132 -0.82865,-34.24804 -3.93522,-43.3101 -2.01112,-4.52885 -13.4083,-12.77608 -12.99438,0.0468 -0.13548,13.9093 3.70966,27.62664 6.18473,41.10157 4.15205,3.01038 4.82249,3.25132 5.72028,3.52714 0.89779,0.27582 1.95145,0.39216 5.02459,-1.36541 z m 17.11074,-17.87713 c -6.78386,-3.48215 -1.55712,-9.51226 1.59798,-2.94747 8.7774,-1.44343 7.36052,-30.39029 17.32365,-17.17258 10.20083,7.26378 18.61281,-14.65335 28.29497,-19.04844 8.33126,-9.11407 18.50621,16.6116 21.96218,-1.47485 3.51879,-12.79201 0.85352,-28.44386 0.55189,-37.41238 -0.30164,-8.968514 -3.30485,-25.010424 -6.3457,-35.657756 -3.97447,-19.121736 -10.11334,-38.096635 -10.11684,-57.777456 5.18626,-9.4331225 4.89779,14.405112 6.45757,18.156537 5.61039,32.461741 19.58434,79.888255 27.26441,97.881515 7.68007,17.99326 5.63379,29.52497 11.66456,29.92527 -1.23955,-24.40189 7.40692,9.33816 3.06726,9.62045 -10.03738,-1.34324 -12.96053,-18.9255 -16.1193,-27.07218 -3.15877,-8.14667 -5.67256,-24.94261 -10.79699,-26.72556 -0.97089,11.8844 -0.44686,23.82826 -0.58416,35.74111 -7.38643,10.94849 -15.39657,0.19155 -23.28883,-2.94337 -11.7991,5.12748 -18.66523,25.55939 -33.03504,21.41081 -9.41855,-4.50201 -6.17267,20.20456 -17.89761,15.49635 z m 104.72192,-69.26966 c 0.99734,-7.11596 17.22608,-17.369683 6.49886,-5.04808 -2.09534,1.6352 -2.77439,9.89559 -6.49886,5.04808 z"
     id="path4138"
     inkscape:connector-curvature="0"
     sodipodi:nodetypes="ccccccccsccccccccccccczcczzzccccccccccccssssssccccccccccccccccccsccczsccccczccczcczcccccccc" />
</svg>
