<?xml version="1.0" encoding="UTF-8" standalone="no"?>
<!-- Created with Inkscape (http://www.inkscape.org/) -->

<svg
   xmlns:dc="http://purl.org/dc/elements/1.1/"
   xmlns:cc="http://creativecommons.org/ns#"
   xmlns:rdf="http://www.w3.org/1999/02/22-rdf-syntax-ns#"
   xmlns:svg="http://www.w3.org/2000/svg"
   xmlns="http://www.w3.org/2000/svg"
   xmlns:sodipodi="http://sodipodi.sourceforge.net/DTD/sodipodi-0.dtd"
   xmlns:inkscape="http://www.inkscape.org/namespaces/inkscape"
   width="251.14343"
   height="63.03561"
   id="svg2"
   version="1.1"
   inkscape:version="0.48.2 r9819"
   sodipodi:docname="Nouveau document 1">
  <defs
     id="defs4" />
  <sodipodi:namedview
     id="base"
     pagecolor="#ffffff"
     bordercolor="#666666"
     borderopacity="1.0"
     inkscape:pageopacity="0.0"
     inkscape:pageshadow="2"
     inkscape:zoom="1.4"
     inkscape:cx="92.566299"
     inkscape:cy="-49.090841"
     inkscape:document-units="px"
     inkscape:current-layer="layer1"
     showgrid="false"
     fit-margin-top="0"
     fit-margin-left="0"
     fit-margin-right="0"
     fit-margin-bottom="0"
     inkscape:window-width="1366"
     inkscape:window-height="706"
     inkscape:window-x="-8"
     inkscape:window-y="-8"
     inkscape:window-maximized="1" />
  <metadata
     id="metadata7">
    <rdf:RDF>
      <cc:Work
         rdf:about="">
        <dc:format>image/svg+xml</dc:format>
        <dc:type
           rdf:resource="http://purl.org/dc/dcmitype/StillImage" />
        <dc:title></dc:title>
      </cc:Work>
    </rdf:RDF>
  </metadata>
  <g
     inkscape:label="Calque 1"
     inkscape:groupmode="layer"
     id="layer1"
     transform="translate(-282.4337,-209.4158)">
    <g
       transform="matrix(0.58598887,0,0,-0.58598887,261.86385,298.33107)"
       inkscape:label="ink_ext_XXXXXX"
       id="g3085">
      <g
         transform="scale(0.1,0.1)"
         id="g3087">
        <path
           id="path3089"
           style="fill:#000000;fill-opacity:1;fill-rule:nonzero;stroke:none"
           d="m 2548,1511.91 c -79.37,-3.95 -73,-19.1 10,-23.75 70,-3.93 92,-1.09 92,11.84 0,11 -36,15.21 -102,11.91"
           inkscape:connector-curvature="0" />
        <path
           id="path3091"
           style="fill:#000000;fill-opacity:1;fill-rule:nonzero;stroke:none"
           d="m 2685.45,1511 c -12.98,-21.82 5.55,-29.54 62.55,-26.06 61,3.72 88.35,26.43 30,24.92 -18,-0.47 -45.05,2.09 -59.5,5.64 -15,3.68 -29.34,1.73 -33.05,-4.5"
           inkscape:connector-curvature="0" />
        <path
           id="path3093"
           style="fill:#000000;fill-opacity:1;fill-rule:nonzero;stroke:none"
           d="m 2842.38,1497 c 2.08,-6.33 33.12,-12.06 73.12,-13.5 38,-1.37 79.02,-4.88 90.5,-7.75 22,-5.5 42.38,17.74 25,28.51 -18,11.15 -192.48,4.44 -188.62,-7.26"
           inkscape:connector-curvature="0" />
        <path
           id="path3095"
           style="fill:#000000;fill-opacity:1;fill-rule:nonzero;stroke:none"
           d="m 2244,1476.11 c -28,-6.1 -57.31,-16.07 -65,-22.11 -7.37,-5.79 -23,-14.08 -33,-17.5 -18,-6.16 -18.11,-7.5 -2,-25.5 16.19,-18.09 19,-18.21 59,-2.54 62,24.31 126.72,63.83 120.45,73.54 -6.01,9.32 -11.45,8.91 -79.45,-5.89"
           inkscape:connector-curvature="0" />
        <path
           id="path3097"
           style="fill:#000000;fill-opacity:1;fill-rule:nonzero;stroke:none"
           d="m 3070,1480.5 c 0,-5.43 7.5,-9.5 17.5,-9.5 9.48,0 28.5,-1.37 41.5,-3 13,-1.62 26.06,2.73 28.5,9.5 3.13,8.7 -9.5,12.5 -41.5,12.5 -25,0 -46,-4.34 -46,-9.5"
           inkscape:connector-curvature="0" />
        <path
           id="path3099"
           style="fill:#000000;fill-opacity:1;fill-rule:nonzero;stroke:none"
           d="m 1805.07,1430 c -9.29,-15.11 -2.07,-20.07 44.93,-30.9 48,-11.06 123.34,4.35 116.91,23.9 -5.27,16 -152.39,22.36 -161.84,7"
           inkscape:connector-curvature="0" />
        <path
           id="path3101"
           style="fill:#000000;fill-opacity:1;fill-rule:nonzero;stroke:none"
           d="m 1400,1419.79 c -6.04,-3.73 -94,-7.69 -195,-8.79 -101,-1.1 -230.461,-6.06 -287,-11 -56.648,-4.95 -157,-9.72 -223,-10.6 -139,-1.85 -180,-8.55 -180,-29.4 0,-32.58 159,-32 545,1.99 69,6.08 141.13,11.9 161,13.01 20,1.11 40.89,4.89 47,8.5 6,3.55 13.95,1.5 17.5,-4.5 3.94,-6.67 19.5,-8.44 39.5,-4.5 18,3.55 35.5,2.64 38.5,-2 3.07,-4.74 -9.67,-27.5 -28.82,-51.5 -35.13,-44 -44.51,-71 -24.68,-71 5.82,0 19,8 28,17 16,16 17.18,16.06 20.03,1 4.35,-23 -15.58,-58 -33.03,-58 -8.44,0 -15,7 -15,16 0,9 -5.69,13.58 -13,10.48 -55,-23.38 -67.09,-33.5 -67.53,-56.48 -0.26,-13.81 -23.76,-72 -52.49,-130 C 1122.08,939.195 1115,931.82 983,847.883 951.102,827.598 898,796.961 865,779.801 790,740.801 750,706.086 750,680 c 0,-41.496 83,-8.82 180,70.855 49,40.25 139.22,93.418 146.18,86.145 2.1,-2.203 -2.46,-44 -10.15,-93 -15.38,-98 -8.94,-134 23.97,-134 15,0 26.19,12 39.17,42 22.06,51 93.21,123.047 113.83,115.277 7.58,-2.855 17.21,-24.777 21,-47.777 3.79,-23 13.42,-51.676 21,-62.5 12.75,-18.211 14.63,-14.5 21,41.5 3.87,34 10.13,61.5 14,61.5 3.84,0 17.6,-11.5 30.5,-25.5 22.18,-24.066 22.82,-28 11.5,-70 -6.47,-24 -12,-53.715 -12,-64.5 0,-38.793 -65,-59.133 -290,-90.738 C 935,491.703 930,490.191 930,470 c 0,-36.301 39,-37.414 185,-5.281 140,30.816 191.7,36.344 220,23.515 24,-10.875 28.83,-9.957 43.5,8.266 12.62,15.676 36.5,23.207 101.5,32 47,6.359 109.59,15.84 140,21.207 82,14.469 200,24.082 200,16.293 0,-3.965 -6.71,-20 -15.5,-37 -8.79,-17 -12.79,-34.332 -9.25,-40 12.4,-19.848 35.09,-8 67.04,35 46.42,62.5 74.71,76.164 169.71,81.98 45,2.754 86.29,7.727 91.5,11.02 5.25,3.316 43.5,7.566 85.5,9.5 42,1.934 89.42,5.473 106,7.91 98.35,14.465 294,26.602 450,27.914 193,1.625 200.93,-0.008 263,-54.105 37.86,-32.992 53.02,-29.219 95.53,23.781 14.44,18 31.24,38.684 36.97,45.5 7.94,9.453 80.5,12.5 297.5,12.5 279,0 480.73,10.426 572,29.566 24.88,5.215 121,23.461 215,40.813 214,39.5 332.32,72.105 350.63,96.621 16.43,22 18.04,55.332 3.37,70 -8.05,8.051 -3.75,22 16,52 15.15,23 24.45,47.59 21.18,56 -6.41,16.54 -88.18,43.28 -159.18,52.06 -26,3.22 -50.52,10.3 -53.5,15.44 -2.98,5.15 4.57,23 16.5,39 11.93,16 19.51,35.91 16.57,43.5 -8.35,21.49 -44.27,18 -51.52,-5 -8.19,-26 -66.05,-70 -92.05,-70 -10.61,0 -31.5,-9.15 -44.5,-19.5 -13.39,-10.66 -56,-29.02 -94,-40.5 -38,-11.48 -79.93,-25.29 -92.5,-30.47 -38,-15.65 -62,-11.6 -62,10.47 0,12.09 8,20.11 22,22.04 27,3.72 35.55,35.39 12,44.44 -11.07,4.24 -23.11,-0.98 -34.5,-14.98 -9.8,-12.04 -28.5,-21.5 -42.5,-21.5 -23,0 -67,-40.06 -67,-61 0,-4.457 13.5,-15.082 30.5,-24 25.22,-13.23 39.5,-14.098 82.5,-5 29,6.133 69.69,14.539 92,19 22,4.398 52.6,14.07 68,21.5 22,10.61 32.07,10.96 47,1.63 22,-13.755 43,-7.67 87,25.21 29,21.67 36.82,23.33 64.5,13.66 17.5,-6.11 59.5,-11 94.5,-11 102,0 111.75,-11.12 71.92,-82 -17.99,-32 -19.77,-42.5 -9.92,-58.5 6.77,-11 12,-21.242 12,-23.5 0,-14.191 -371,-85.375 -575,-110.324 -67.52,-8.258 -249,-16.863 -415,-19.676 l -295,-5 -18.5,25.5 c -18.14,25 -18.04,25.988 5.05,50.5 29.15,30.945 68.45,47.637 132.45,56.262 28,3.773 68.7,15.758 92.5,27.238 40,19.293 44,19.531 68,4 24.39,-15.781 28,-15.477 83,7 41.91,17.129 73.5,22.84 116.5,21.059 66,-2.731 86,7.836 86,45.441 0,14 7.09,32.92 16.12,43 16.12,18 12.88,49 -5.12,49 -4.96,0 -22,-10.95 -38,-24.41 -57,-47.985 -166.76,-93.848 -178.51,-74.59 -2.98,4.887 4.29,25 15.9,44 20.78,34 19.86,55 -2.39,55 -6.16,0 -32.63,-22 -60.17,-50 C 3525.77,967.059 3480,941.617 3390,915.605 3360,906.938 3334.67,900 3333,900 c -1.7,0 -3,13 -3,30 0,69 80.77,166 128,153.72 18.48,-4.81 22,-1.72 22,19.28 0,33.16 22,50.32 115,89.73 76,32.2 102.78,58.21 72,69.94 -7.59,2.89 -41,-7.26 -73,-22.17 -32.68,-15.23 -88,-40.27 -124,-56.11 -190,-83.64 -328.83,-167.11 -329.98,-198.39 -0.49,-13.586 50.98,3.027 99.98,32.27 55,32.81 80,43.36 80,33.73 0,-19.4 -42,-71.895 -67,-83.738 C 3230.6,957.652 3224.38,947 3221.87,915 3215.86,838.277 3133,777.988 3010,760.848 c -47,-6.551 -107.35,-15.981 -135,-21.094 -132,-24.406 -498.5,-36.051 -606,-19.254 -44,6.875 -82.64,9.801 -85.86,6.5 -11.16,-11.418 19.86,-37 44.86,-37 58.5,0 1,-18.477 -90,-28.918 -128,-14.687 -177.28,-14.172 -183.48,1.918 -5.84,15.164 56.84,171 78.84,196 19.36,22 67.05,141.54 60.64,152 -11.91,19.46 -44.79,8 -54.53,-19 C 2021.07,941 1987.07,884.859 1961,862.449 1934.05,839.273 1852,810 1814,810 c -21.3,0 -22.03,2 -9.88,27 26.24,54 44.84,98.852 57.23,138 6.95,22 19.6,47.2 28.1,56 25.25,26.15 54.6,62 77.78,95 l 21.77,31 145.5,-5 c 102,-3.5 145.5,-1.71 145.5,6 0,21.32 -37,30.29 -155,37.58 -98,6.06 -123.23,10.72 -137.59,25.42 -22.45,22.96 -32.41,22.84 -85.41,-1.06 -33.13,-14.94 -61,-18.52 -132,-16.94 l -90,2 5.68,27 c 8.85,42 -15.39,46.66 -46.84,9 -31.75,-38 -92.04,-59.2 -114.84,-40.38 -11,9.08 -17.93,9.45 -26,1.38 -16,-16 0,-32 32,-32 39,0 46.89,-15.72 24.08,-48 -10.62,-15.03 -30.16,-48.5 -44.08,-75.5 -13.92,-27 -44.06,-66.23 -68,-88.5 -39,-36.277 -41.65,-41.535 -28.5,-56.5 12.89,-14.668 12.61,-21.5 -2.5,-61.5 -12.09,-32 -22.78,-45 -37,-45 -31.61,0 -31,47.754 1,77.719 15,14.047 24.3,29.726 20.92,35.281 -11.48,18.887 -69.17,-7 -106.97,-48 -19.36,-21 -49.33,-42 -64.95,-45.5 -16,-3.586 -38.86,-11.266 -51,-17.129 -38,-18.355 -39.21,3.504 -2,36.18 40,35.129 54.34,68.289 40.4,93.449 -10.22,18.461 12.93,55 79.85,126 19.79,21 44.83,57 54.25,78 10.77,24 26.15,41.31 40,45 21.29,5.68 22.31,10 19,80 -1.94,41 -8.14,82.47 -13.89,93 -16.13,29.46 1.39,34.37 131.39,36.74 112,2.05 178,15.49 178,36.26 0,10.37 -283,8.29 -300,-2.21 z M 1309.73,1158 c -0.37,-17 -27.63,-53.1 -34.73,-46 -7.5,7.51 16,58 27,58 4.67,0 7.89,-5 7.73,-12 z m 448.27,1 c 51,1.4 79.93,-2.52 96,-13 13,-8.48 32.78,-12.39 45.5,-9 19.69,5.25 21.63,3 15.5,-18 -3.79,-13 -13.64,-30.87 -21.5,-39 -12.89,-13.33 -15.11,-12.5 -20,7.5 -2.93,12 -12.04,22.5 -19.5,22.5 -16.96,0 -44,-51 -44,-83 0,-28.508 -24,-52.793 -61,-61.723 C 1734.82,961.852 1708.8,944 1691.77,926 1660.23,892.672 1543,825.32 1489,809.496 c -24,-7.031 -29,-5.566 -29,8.504 0,9.52 6.6,28 15,42 8.33,13.891 26.33,49 40.5,79 14.17,30 34.39,65.11 45.5,79 10.87,13.59 29.25,46 40.25,71 25.98,59 48.64,83.61 68.75,74.67 8.22,-3.65 48,-5.77 88,-4.67 z m 32,-248 c 0,-9.445 -16,-32.348 -36,-51.531 -41,-39.324 -57.41,-73.696 -48.45,-101.469 5.55,-17.203 12.95,-19.371 52.95,-15.5 25.83,2.5 74.5,15.738 109.5,29.789 74.4,29.863 75.98,25.711 27.2,-71.289 -31.18,-62 -38.91,-70.57 -67.7,-75 C 1809.57,623.242 1721,611.359 1630,599.5 1539,587.641 1450.2,575.758 1432,573 l -33,-5 6.23,54 c 11.61,100.574 13.77,102.91 154.77,167.137 39.06,17.789 67,37.211 150,104.246 60,48.465 80,52.867 80,17.617"
           inkscape:connector-curvature="0" />
        <path
           id="path3103"
           style="fill:#000000;fill-opacity:1;fill-rule:nonzero;stroke:none"
           d="m 2530,1415 c 0,-9.6 9,-15 25,-15 16,0 25,5.4 25,15 0,9.6 -9,15 -25,15 -16,0 -25,-5.4 -25,-15"
           inkscape:connector-curvature="0" />
        <path
           id="path3105"
           style="fill:#000000;fill-opacity:1;fill-rule:nonzero;stroke:none"
           d="m 2625,1422 c -2.24,-2.24 -1.8,-9.5 1,-16.5 3,-7.5 25,-13.1 55,-14 42,-1.26 49.52,1.3 47,16 -2.31,13.49 -14,17.61 -51,18 -26,0.27 -49.83,-1.33 -52,-3.5"
           inkscape:connector-curvature="0" />
        <path
           id="path3107"
           style="fill:#000000;fill-opacity:1;fill-rule:nonzero;stroke:none"
           d="m 2815.48,1401 c -7.77,-12.6 11.52,-24.42 74.52,-45.66 73,-24.61 90,-33.74 90,-48.34 0,-18.72 -80,-64.12 -125,-70.94 -22.22,-3.36 -60,-10.17 -85,-15.3 -105,-21.57 -390.83,18.91 -490,69.38 -66,33.6 -98.12,20.65 -43,-17.34 50.13,-34.53 158,-69.94 283,-92.9 67,-12.31 84.12,-19.68 63,-27.13 -24.17,-8.54 -12,-20.58 32,-31.67 24,-6.06 46.79,-15.65 50.14,-21.1 9.06,-14.75 42.04,-12 48.07,4 6.12,16.25 -8.21,30.75 -38.21,38.65 -80.27,21.16 -80,21.42 30,28.59 226,14.74 309.5,47.97 328.56,130.76 7.21,31.32 -7.56,49.54 -62.56,77.18 -41,20.6 -147.09,35.49 -155.52,21.82"
           inkscape:connector-curvature="0" />
        <path
           id="path3109"
           style="fill:#000000;fill-opacity:1;fill-rule:nonzero;stroke:none"
           d="m 387,1362.82 c -46,-18.98 -47.754,-41.55 -6,-77.21 32.746,-27.98 47,-32.56 124,-39.86 27.691,-2.63 79,-9.66 115,-15.75 36,-6.09 88.871,-13.45 118.5,-16.5 48,-4.93 53.141,-3.6 50,13 -2.895,15.29 -16.5,19.59 -78.5,24.78 -75,6.27 -181.383,22.38 -210,31.79 -8.332,2.74 -27,7.58 -42,10.9 -28,6.19 -39.594,36.03 -14,36.03 22,0 37.484,24.52 24,38 -15.41,15.41 -34,14.22 -81,-5.18"
           inkscape:connector-curvature="0" />
        <path
           id="path3111"
           style="fill:#000000;fill-opacity:1;fill-rule:nonzero;stroke:none"
           d="m 1755,1372.45 c -5.45,-4.06 -17.95,-19.95 -27.5,-34.95 -13.36,-21 -14.43,-27.5 -4.5,-27.5 7,0 18.08,5.08 24,11 16.38,16.38 43,4 43,-20 0,-30.21 15.71,-25 30.18,10 9.1,22 10,35.64 3.12,47 -10.92,18 -51.9,26.67 -68.3,14.45"
           inkscape:connector-curvature="0" />
        <path
           id="path3113"
           style="fill:#000000;fill-opacity:1;fill-rule:nonzero;stroke:none"
           d="m 3770,1363 c 0,-8.7 -19.4,-37 -42.5,-62 -40.65,-44 -41.5,-46.14 -19.5,-49.29 27.79,-3.97 78.57,25.29 104.64,60.29 15.64,21 17.18,30.04 8.04,47 -13.48,25 -50.68,27.94 -50.68,4"
           inkscape:connector-curvature="0" />
        <path
           id="path3115"
           style="fill:#000000;fill-opacity:1;fill-rule:nonzero;stroke:none"
           d="m 1776.5,1263.5 c -3.71,-3.71 -6.5,-11 -6.5,-17 0,-6.12 5,-5.5 12,1.5 7,7 9.71,14.08 6.5,17 -3.3,3 -8.1,2.4 -12,-1.5"
           inkscape:connector-curvature="0" />
        <path
           id="path3117"
           style="fill:#000000;fill-opacity:1;fill-rule:nonzero;stroke:none"
           d="m 822,1219.5 c 2.285,-6 8.07,-10.5 13.5,-10.5 5.43,0 11,4.5 13,10.5 1.852,5.56 -4.5,10.5 -13.5,10.5 -9,0 -15.117,-4.94 -13,-10.5"
           inkscape:connector-curvature="0" />
        <path
           id="path3119"
           style="fill:#000000;fill-opacity:1;fill-rule:nonzero;stroke:none"
           d="m 1057,1214 c -15,-15 -6,-24 24,-24 20,0 29.44,4.61 26.59,13 -4.74,14 -39.94,21.65 -50.59,11"
           inkscape:connector-curvature="0" />
        <path
           id="path3121"
           style="fill:#000000;fill-opacity:1;fill-rule:nonzero;stroke:none"
           d="m 2803,1022.84 c -7,-2.61 -13,-10.38 -13,-16.84 0,-27.105 -45,-54.852 -94,-57.957 -47,-2.98 -48.24,-2.313 -59.43,31.957 -13.07,40 -39.69,49.59 -67.57,24.33 -23,-20.834 -24.64,-47.373 -4,-64.685 22.88,-19.192 18,-28.368 -32,-60.157 -43,-27.34 -103,-40.441 -103,-22.488 0,4.406 -15.5,20.355 -34.5,35.5 L 2361,920 2288,883.5 c -40,-20 -83.85,-44.973 -97,-55.238 -35.36,-27.606 -36.55,-16.262 -4.29,40.738 20.93,37 25.43,52.859 17.29,61 -18.97,18.973 -51.79,1 -63.9,-35 -6.05,-18 -17.92,-38.684 -26.1,-45.5 -8.21,-6.844 -32.88,-34 -54.5,-60 -35.76,-43 -37.98,-49.016 -23.5,-63.5 24.07,-24.066 60,-18.809 98,14.34 19,16.574 36.87,29.66 40.5,29.66 3.53,0 33.5,18.391 65.5,40.188 66,44.957 82.76,48.546 101.86,21.812 24.28,-34 64.6,-53.414 95.14,-45.82 49,12.183 142.33,66.144 148.42,85.82 4.49,14.469 16.08,18 59.08,18 29,0 68.16,2.977 85.5,6.5 31,6.297 31.63,5.797 20,-16 -9.6,-18 -9.2,-25.301 2,-36.5 12.12,-12.117 21,-11.105 66,7.5 29,11.992 52,24.816 52,29 0,4.199 11,9.48 25,12 18,3.238 29.2,-2.078 40,-19 8.3,-13 22.6,-23.406 32,-23.285 27,0.34 156.62,46.328 160.05,56.785 1.67,5.102 -23.05,7.266 -57.05,5 -50,-3.332 -60,-1.418 -60,11.5 0,8.785 13,23.168 30,33.191 38.56,22.739 38,56.899 -1,61.349 -19.89,2.26 -39.5,-10.19 -83.5,-53.04 -51,-49.668 -61.62,-55.66 -94,-53 l -36.5,3 3.5,52 c 3.43,51 -2.66,64.34 -25.5,55.84"
           inkscape:connector-curvature="0" />
        <path
           id="path3123"
           style="fill:#000000;fill-opacity:1;fill-rule:nonzero;stroke:none"
           d="M 3426,995.102 C 3415,986.797 3398.35,980 3389,980 c -22,0 -34.28,-18.719 -21,-32 21.61,-21.609 112.29,28 96.87,53 -7.83,12.69 -15.87,11.47 -38.87,-5.898"
           inkscape:connector-curvature="0" />
        <path
           id="path3125"
           style="fill:#000000;fill-opacity:1;fill-rule:nonzero;stroke:none"
           d="m 2382.97,954 c -8.49,-22.5 12.03,-37.691 41.03,-30.379 38.94,9.817 35,46.379 -5,46.379 -18,0 -32.41,-6.398 -36.03,-16"
           inkscape:connector-curvature="0" />
      </g>
    </g>
  </g>
</svg>
