<?xml version="1.0" encoding="UTF-8"?>
<svg version="1.1" xmlns="http://www.w3.org/2000/svg" width="541" height="170" >
<path fill="#231F20" d="M22.175,66.935c-4.667-0.72-9.441-2.662-12.935-5.87c-8.173-7.504-0.484-18.719,5.057-25.089 c-1.932,0.518-3.864,1.035-5.796,1.553c-2.237,8.89-4.358,25.718,7.067,29.028c9.749,2.823,22.076-6.169,29.477-11.217 c13.848-9.447,26.767-20.271,39.726-30.879c9.535-7.806,19.012-16.916,29.794-23.015c2.719-1.538-3.657,0.122-2.687,0.554 c0.27,0.12,0.287,0.475,0.296,0.721c0.056,1.459-0.697,3.074-1.197,4.403c-2.118,5.623-4.978,11-7.753,16.316 C95.385,38.454,86.792,53.113,77.77,67.445c-3.54,5.622-7.159,11.218-11.129,16.547c-1.163,1.561-2.366,3.12-3.757,4.486 c-1.87,1.835-2.023-0.19,3.45-0.364c-0.541,0.017,0.372-1.606,0.417-1.687c4.083-7.374,9.349-13.833,12.911-21.57 c3.08-6.689,7.846-18.832,4.014-26.095c-1.521-2.883-7.654-0.309-9.481,1.107c-3.325,2.578-4.103,7.896-3.107,11.702 c1.922,7.347,10.993,9.255,17.421,9.762c9.287,0.733,18.745-1.512,27.594-4.088c9.487-2.762,18.59-6.734,27.413-11.148 c6.105-3.054,11.946-6.742,18.163-9.559c1.177-0.533-3.177,0.071-3.727,1.438c-0.351,0.872-0.991,1.706-1.473,2.509 c-1.985,3.311-4.028,6.587-6.083,9.854c-4.597,7.307-9.249,14.638-14.463,21.525c-0.953,1.258-2.218,3.448-3.737,4.092 c1.784-0.406,3.567-0.812,5.351-1.218c9.91-9.68,21.578-17.912,33.693-24.552c2.04-1.118,19.768-11.042,16.372-2.045 c-3,7.948-12.155,14.657-18.358,19.956c-0.327,0.28,0.831,0.052,0.813,0.054c6.039-0.896,2.556,4.661,1.199,7.393 c-2.625,5.286-5.594,10.447-9.246,15.095c-1.042,1.327-2.206,2.517-3.457,3.641c-1.568,1.409-3.379,1.146-0.297,1.023 c-1.933,0.077-2.452-0.984-2.388-2.65c0.194-5.074-2.562-6.53-7.37-7.386c-1.661-0.295-4.647,1.797-5.552,1.636 c3.507,0.624,7.112,1.619,7.218,5.677c0.052,1.971-0.634,3.791,1.804,4.312c5.475,1.17,11.742-3.107,15.054-6.867 c4.968-5.639,8.504-12.686,11.68-19.447c1.377-2.932,0.385-4.163-2.809-4.085c-3.292,0.08,0.227-0.819,1.767-2.161 c2.465-2.147,4.836-4.398,7.148-6.708c1.843-1.841,12.417-11.834,8.146-14.71c-3.639-2.45-13.224,2.079-16.536,3.465 c-16.326,6.833-31.833,17.338-44.509,29.719c0.327-0.319,4.28-0.764,5.351-1.218c4.453-1.889,7.968-9.367,10.494-13.107 c4.786-7.086,9.344-14.334,13.785-21.641c0.375-0.617,2.688-3.487,2.247-4.242c-0.464-0.795-4.637,0.791-5.244,0.988 c-5.136,1.67-9.876,4.92-14.611,7.444c-9.976,5.318-20.357,10.309-31.282,13.337c-9.65,2.676-23.481,4.307-32.065-2.208 c-4.295-3.259-5.038-9.005-3.033-13.742c0.408-0.964,0.992-1.868,1.683-2.651c2.241-2.541-0.908,0.354-2.691,0.134 c2.091,0.258,2.237,4.224,2.317,5.635c0.615,10.759-4.441,21.603-9.76,30.632c-0.609,1.034-9.14,14.053-8.48,14.245 c2.838,0.826,7.008-1.565,8.878-3.63c3.472-3.831,6.315-8.298,9.164-12.592c9.267-13.967,17.755-28.493,25.829-43.177 c3.476-6.321,6.862-12.705,9.912-19.245c1.25-2.68,4.006-7.096,3.53-10.23c-0.619-4.071-17.823,8.107-18.639,8.734 C86.69,19.268,74.612,29.66,62.172,39.58C50.84,48.617,39.049,58.741,25.763,64.817c-0.521,0.238-1.051,0.455-1.587,0.658 c1.643-0.624,0.93-0.209-0.345-0.202c-1.955,0.01-3.833-0.572-5.508-1.55c-2.923-1.705-4.274-5.173-5-8.292 c-1.355-5.814-0.537-12.248,0.651-18.025c0.098-0.479,0.204-0.957,0.324-1.43c-0.083,0.329-5.096,0.748-5.796,1.553 C2.484,44.446-4.568,55.261,3.928,63.062c3.318,3.047,8.28,4.828,12.695,5.509C18.302,68.83,21.242,66.791,22.175,66.935 L22.175,66.935z"/>
<path fill="#231F20" d="M111.586,78.098c-1.749,0.903-3.463,1.893-5.1,2.984c-0.813,0.542-4.464,2.978-1.863,3.488 c1.037,0.203,2.645-0.487,3.614-0.773c0.225-0.066,2.201-0.812,1.938-0.863c-2.279-0.447,1.566-2.964,2.138-3.345 c1.569-1.046,3.223-1.984,4.899-2.85c0.38-0.196-0.475-0.109-0.346-0.123c-0.594,0.065-1.185,0.205-1.764,0.344 C113.923,77.246,112.67,77.539,111.586,78.098L111.586,78.098z"/>
<path fill="#231F20" d="M207.919,73.098c-2.649,1.924-25.377,19.977-17.951,22.292c4.84,1.509,11.687-1.273,16.24-2.713 c7.478-2.363,14.726-5.358,22.036-8.18c1.355-0.523,2.713-1.041,4.089-1.507c1.103-0.374-0.682-0.23-0.67,0.509 c0.034,2.12-4.747,5.886-6.087,7.443c-1.347,1.566-4.648,4.652-4.098,7c0.428,1.827,6.23-0.016,7.12-0.262 c4.888-1.356,9.662-3.059,14.426-4.794c1.828-0.666,13.329-5.988,13.277-2.543c-0.051,3.428-2.155,7.086,2.762,8.328 c3.698,0.934,7.396,0.479,11.134,0.052c6.727-0.767,13.493-2.366,20.263-2.634c1.717-0.068-3.192,1.736-3.882,2.064 c-2.229,1.061-4.016,2.638-3.571,5.279c1.605,9.528,24.579,1.407,27.762-3.678c-1.788,0.526-3.576,1.052-5.365,1.579 c-0.243,0.03,3.225,3.905,3.668,4.203c3.059,2.049,7.836,0.844,11.244,0.784c1.607-0.028,3.175,0.099,4.748,0.422 c1.549,0.318,2.356,1.753,3.904,1.998c4.14,0.654,8.999,0.099,13.096-0.586c4.979-0.832,7.81-2.453,10.335-6.881 c2.766-4.851,3.626-11.139,6.896-15.628c-0.729,1.001-4.766,0.139-5.795,1.553c-4.423,6.073-4.203,15.368-10.523,20.259 c0.613-0.237,1.227-0.475,1.84-0.712c-1.145,0.103-2.287,0.211-3.431,0.327c-1.904,0.188-3.798,0.302-5.711,0.215 c-2.004-0.092-3.247-1.578-5.06-2.18c-5.643-1.875-12.283,1.998-17.202-2.225c-1.785-1.532-1.584-3.51-4.14-2.967 c-2.815,0.598-3.851,1.472-6.025,2.955c-3.583,2.443-8.505,4.64-12.522,1.977c-4.502-2.984-0.868-7.148,2.573-8.494 c0.302-0.118,4.06-1.65,3.487-1.823c-2.168-0.652-5.467,0.374-7.62,0.67c-4.332,0.594-8.655,1.25-12.994,1.795 c-4.22,0.53-9.229,1.471-13.134-0.699c-3.864-2.146,0.578-6.469-1.284-8.533c-1.248-1.384-6.045,0.318-7.41,0.674 c-4.328,1.127-8.536,2.635-12.736,4.163c-2.126,0.773-15.305,6.577-14.272,2.583c1.03-3.985,5.709-7.653,8.286-10.689 c1.367-1.61,2.944-3.398-0.145-2.806c-8.195,1.571-15.932,5.365-23.69,8.304c-3.506,1.328-23.181,8.515-16.099-2.059 c4.337-6.475,11.606-11.654,17.856-16.192C212.74,72.324,209.313,72.086,207.919,73.098L207.919,73.098z"/>
<path fill="#231F20" d="M414.168,55.862c6.884,5.483,16.813,7.352,25.315,7.755c6.999,0.333,14.242-0.505,21.144-1.641 c1.785-0.294,3.557-0.682,5.316-1.102c0.514-0.123,1.025-0.258,1.538-0.386c-1.568,0.391-1.088-0.004-0.646,0.373 c1.932-0.518,3.863-1.035,5.795-1.553c-2.419-2.008-8.547,0.589-10.871,1.559c-6.699,2.794-12.034,8.212-17.481,12.886 c-12.956,11.118-25.902,22.248-38.722,33.523c-5.317,4.677-10.631,9.367-15.795,14.214c-0.528,0.497-5.521,5.13-4.108,5.062 c2.962-0.144,5.441-0.774,8.379,0.269c5.046,1.792,7.662,7.583,9.435,12.18c3.363,8.722,4.196,19.085,10.039,26.667 c5.079,6.591,15.387,3.638,21.4-0.024c5.813-3.542,9.637-10.947,11.391-17.335c-0.164,0.598-5.445,0.278-5.795,1.553 c-1.636,5.954-4.898,11.84-9.56,15.912c-8.921,7.794-14.968-6.765-17.044-13.252c-2.844-8.892-4.307-21.839-13.247-26.879 c-2.354-1.327-5.188-1.313-7.786-0.986c-1.647,0.208-2.574,0.664-1.153-0.9c9.205-10.133,20.503-18.788,30.809-27.748 c11.299-9.823,22.677-19.553,34.026-29.317c2.915-2.507,5.965-4.891,9.452-6.553c-1.469,0.7,0.048,0.068,0.837,0.723 c1.095,0.909,5.224-2.042,5.795-1.553c-0.92-0.787-3.086,0.101-4.059,0.343c-5.5,1.369-11.154,1.83-16.799,2.193 c-10.488,0.675-23.236-0.708-31.81-7.536C418.814,53.394,414.805,56.369,414.168,55.862L414.168,55.862z"/>
<path fill="#231F20" d="M473.211,99.073c1.372-1.442,4.262-5.504,1.193-6.612c-2.506-0.904-5.938-0.058-8.443,0.422 c-7.52,1.441-15.904,4.022-21.168,9.873c-6.078,6.756,4.099,7.121,8.655,6.969c4.026-0.135,8.041-0.634,12.035-1.131 c1.867-0.232,3.732-0.479,5.601-0.706c1.933-0.235,3.387-1.002,2.236,1.177c-1.055,1.999-3.239,6.244,0.154,6.946 c4.493,0.929,9.021,2.166,13.235,3.983c1.264,0.545,2.653,1.238,3.373,2.458c0.379,0.641,0.187,0.842,0.964,1.26 c2.291,1.231,5.364,1.419,7.883,1.749c7.781,1.018,16.056,1.276,23.83,0.049c4.616-0.728,11.228-1.534,13.793-5.968 c3.726-6.441,4.034-15.566,4.121-22.782c0.078-6.516-0.166-16.252-5.711-20.783c-1.124-0.919-5.183,2.054-5.795,1.553 c7.571,6.187,6.108,21.223,5.157,29.718c-0.523,4.674-1.399,9.625-3.568,13.846c-2.262,4.402-8.977,3.465-13.141,3.498 c-5.228,0.041-10.493-0.319-15.657-1.129c-1.724-0.27-3.514-0.596-5.117-1.304c-0.987-0.436-0.903-1.351-1.597-2.087 c-3.012-3.199-9.977-4.206-14.01-5.193c-2.252-0.552-4.071-0.502-3.692-3.293c0.265-1.945,1.427-3.942,2.42-5.608 c-0.136-0.063-0.279-0.072-0.431-0.026c-5.194,0.375-10.347,1.25-15.528,1.77c-3.897,0.392-11.772,1.86-14.973-1.327 c-3.747-3.733,8.037-10.114,10.182-11.06c2.574-1.136,6.87-2.231,9.783-1.179c2.666,0.962-0.457,5.275-1.41,6.277 C468.132,99.858,472.099,100.243,473.211,99.073L473.211,99.073z"/>
</svg>