<?xml version="1.0" encoding="UTF-8" standalone="no"?>
<!-- Created with Inkscape (http://www.inkscape.org/) -->

<svg
   xmlns:dc="http://purl.org/dc/elements/1.1/"
   xmlns:cc="http://creativecommons.org/ns#"
   xmlns:rdf="http://www.w3.org/1999/02/22-rdf-syntax-ns#"
   xmlns:svg="http://www.w3.org/2000/svg"
   xmlns="http://www.w3.org/2000/svg"
   xmlns:sodipodi="http://sodipodi.sourceforge.net/DTD/sodipodi-0.dtd"
   xmlns:inkscape="http://www.inkscape.org/namespaces/inkscape"
   width="684.07471"
   height="425.90253"
   viewBox="0 0 684.07471 425.90253"
   id="svg2"
   version="1.1"
   inkscape:version="0.91 r13725"
   sodipodi:docname="Annie_Leibovitz_Signature.svg">
  <title
     id="title4161">Annie Leibovitz signature</title>
  <defs
     id="defs4" />
  <sodipodi:namedview
     id="base"
     pagecolor="#ffffff"
     bordercolor="#666666"
     borderopacity="1.0"
     inkscape:pageopacity="0.0"
     inkscape:pageshadow="2"
     inkscape:zoom="0.64099174"
     inkscape:cx="392.23988"
     inkscape:cy="283.0713"
     inkscape:document-units="px"
     inkscape:current-layer="layer1"
     showgrid="false"
     inkscape:window-width="1280"
     inkscape:window-height="721"
     inkscape:window-x="-4"
     inkscape:window-y="-4"
     inkscape:window-maximized="1"
     inkscape:showpageshadow="false"
     units="px"
     fit-margin-left="10"
     fit-margin-top="100"
     fit-margin-right="10"
     fit-margin-bottom="10" />
  <metadata
     id="metadata7">
    <rdf:RDF>
      <cc:Work
         rdf:about="">
        <dc:format>image/svg+xml</dc:format>
        <dc:type
           rdf:resource="http://purl.org/dc/dcmitype/StillImage" />
        <dc:title>Annie Leibovitz signature</dc:title>
        <dc:subject>
          <rdf:Bag>
            <rdf:li>Annie Leibovitz</rdf:li>
            <rdf:li>Signature</rdf:li>
          </rdf:Bag>
        </dc:subject>
      </cc:Work>
    </rdf:RDF>
  </metadata>
  <g
     inkscape:label="Capa 1"
     inkscape:groupmode="layer"
     id="layer1"
     transform="translate(127.6666,-247.24048)">
    <path
       style="color:#000000;font-style:normal;font-variant:normal;font-weight:normal;font-stretch:normal;font-size:medium;line-height:normal;font-family:sans-serif;text-indent:0;text-align:start;text-decoration:none;text-decoration-line:none;text-decoration-style:solid;text-decoration-color:#000000;letter-spacing:normal;word-spacing:normal;text-transform:none;direction:ltr;block-progression:tb;writing-mode:lr-tb;baseline-shift:baseline;text-anchor:start;white-space:normal;clip-rule:nonzero;display:inline;overflow:visible;visibility:visible;opacity:1;isolation:auto;mix-blend-mode:normal;color-interpolation:sRGB;color-interpolation-filters:linearRGB;solid-color:#000000;solid-opacity:1;fill:#000000;fill-opacity:1;fill-rule:evenodd;stroke:none;stroke-width:2;stroke-linecap:round;stroke-linejoin:miter;stroke-miterlimit:4;stroke-dasharray:none;stroke-dashoffset:0;stroke-opacity:1;color-rendering:auto;image-rendering:auto;shape-rendering:auto;text-rendering:auto;enable-background:accumulate"
       d="m -56.619141,347.24219 c -6.009914,0.0466 -12.120991,0.92514 -17.841797,2.87304 -6.125465,2.08569 -11.850635,5.36962 -16.998046,9.21094 -4.359781,3.25354 -8.096686,7.2772 -11.462896,11.45703 -3.40124,4.22334 -6.32822,8.84661 -8.77539,13.67188 -2.28549,4.50647 -4.57642,9.24433 -5.53125,14.37304 -0.602,3.23361 -0.5653,6.60524 -0.002,9.82422 0.46541,2.65912 1.44425,5.22653 2.72852,7.5625 1.41822,2.57965 5.33014,6.13244 5.33014,6.13244 0.92329,0.80916 1.70505,-0.0502 0.75964,-1.04064 0,0 -3.52043,-3.9016 -4.63899,-5.93618 -1.19239,-2.16887 -1.78773,-4.65915 -2.20861,-7.06382 -0.52491,-2.99908 -0.55527,-6.14094 -0.002,-9.11328 0.88951,-4.77789 3.07527,-9.35335 5.34766,-13.83398 2.38925,-4.71108 5.24528,-9.21781 8.55078,-13.32227 3.305522,-4.10449 6.93466,-7.99928 11.099608,-11.10742 5.015399,-3.7428 10.568749,-6.92028 16.447266,-8.92188 5.482852,-1.86688 11.387855,-2.72042 17.21289,-2.76562 8.74132,-0.0679 17.507061,1.80807 26.160157,3.80078 9.392929,2.16308 18.512691,5.57867 27.6914059,8.83398 4.8322938,1.71382 9.6031879,3.70293 14.3789061,5.62696 -1.295788,0.68997 -2.6508834,1.28069 -3.892578,2.04687 -5.6893216,3.51057 -10.8337358,7.95063 -15.3222656,12.86914 -3.2956074,3.61132 -6.3356204,7.63598 -8.4296874,12.14063 -1.558444,3.35244 -2.793247,7.05322 -2.91211,10.86523 -0.128934,4.13506 0.286847,8.72028 2.564454,12.43945 2.568349,4.19393 6.8805238,7.30582 11.365234,9.07227 4.21749414,1.6612 9.0524446,1.96072 13.4609375,1.05664 3.2815885,-0.67298 6.6371215,-2.19519 8.9941405,-4.73242 1.701748,-1.83186 2.470933,-4.28659 2.871094,-6.54883 0.03302,-0.18666 0.08065,-0.49266 0.125,-0.70312 0.286898,0.26667 0.581629,0.63438 0.839844,0.86718 1.465109,1.32096 3.384664,2.28286 5.412109,2.47071 1.711293,0.15856 3.246403,-0.5154 4.53125,-1.0918 1.106851,-0.49655 1.809668,-1.37137 2.449219,-2 0.639551,-0.62864 1.095383,-0.94386 1.550781,-0.93359 0.282153,0.006 0.585093,0.18891 1.027344,0.6289 0.44225,0.44 0.924732,1.07391 1.623047,1.5918 0.359489,0.26661 0.789829,0.77017 1.324218,1.2793 0.53439,0.50912 1.251247,1.07264 2.234375,1.13085 1.385413,0.082 2.32254,-0.82173 3.048829,-1.48437 0.726287,-0.66264 1.299378,-1.10716 1.710937,-1.13477 0.764559,-0.0513 1.563173,0.28084 2.498047,0.80274 0.934874,0.52189 1.953439,1.21689 3.199219,1.57812 2.851111,0.82673 5.837242,1.55124 8.910156,1.65039 1.712418,0.0552 3.648305,0.0838 5.458984,-0.68359 0.760725,-0.32241 1.53216,-0.77962 2.232422,-1.35156 0.0052,0.30619 -0.05206,0.59593 0.04492,0.91992 0.913597,3.05215 2.630196,5.82681 4.623047,8.21094 2.000227,2.39295 4.390093,4.78994 7.417969,6.11718 2.542193,1.11438 5.279221,0.94368 7.939137,0.85087 1.667918,-0.0582 4.928997,-0.87921 4.928997,-0.87921 1.288943,-0.34252 1.016245,-1.79407 -0.272747,-1.45174 0,0 -3.164193,0.58083 -4.763356,0.57188 -2.363211,-0.0132 -4.978717,-0.025 -7.029297,-0.92383 -2.563373,-1.12364 -4.770512,-3.27537 -6.685547,-5.5664 -1.864175,-2.23019 -3.43121,-4.79459 -4.242187,-7.50391 -0.05732,-0.1915 0.09873,-1.29069 0.273437,-2.29101 0.08735,-0.50017 0.181023,-0.98375 0.05664,-1.57032 -0.06219,-0.29328 -0.209764,-0.6454 -0.517578,-0.91015 -0.307814,-0.26475 -0.719547,-0.37401 -1.074219,-0.37305 -0.242771,6.9e-4 -0.592899,0.0906 -0.839844,0.32813 -0.246945,0.2375 -0.330943,0.52735 -0.357422,0.72265 -0.05296,0.39061 0.01949,0.59009 0.06055,0.7832 0.03671,0.17268 0.06586,0.30457 0.08008,0.39649 -0.485446,0.86094 -1.536007,1.60334 -2.65625,2.07812 -1.303054,0.55224 -2.945616,0.58113 -4.613281,0.52735 -2.798468,-0.0903 -5.627046,-0.76495 -8.417969,-1.57422 -0.838224,-0.24306 -1.756392,-0.83021 -2.78125,-1.40235 -1.024857,-0.57211 -2.206998,-1.14666 -3.607422,-1.05273 -1.35868,0.0911 -2.218605,1.00892 -2.923828,1.65234 -0.705222,0.64343 -1.198283,0.98964 -1.583984,0.9668 -0.263843,-0.0156 -0.556682,-0.18758 -0.970703,-0.58203 -0.414021,-0.39445 -0.869821,-0.96195 -1.513672,-1.43945 -0.380483,-0.28218 -0.840215,-0.84114 -1.404297,-1.40235 -0.564082,-0.5612 -1.331971,-1.187 -2.392578,-1.21093 -1.33229,-0.03 -2.276276,0.79836 -2.998047,1.50781 -0.721771,0.70945 -1.342548,1.3662 -1.867188,1.60156 -1.241458,0.55694 -2.481571,1.02073 -3.527343,0.92383 -1.503321,-0.13929 -3.089386,-0.90943 -4.257813,-1.96289 -0.596803,-0.53808 -1.171877,-1.17718 -1.748047,-1.79688 0.04407,-0.29761 0.123927,-0.52272 0.146485,-0.82226 0.05404,-0.71754 0.03888,-1.44385 -0.179688,-2.14649 -0.218568,-0.70263 -0.689339,-1.38795 -1.410156,-1.80468 -0.539786,-0.31208 -1.006367,-0.15505 -1.318359,0.01 -0.311993,0.16458 -0.596958,0.37639 -0.744141,0.875 -0.458512,1.55354 0.189201,3.03059 1.048828,4.20508 0.09501,0.1298 0.215637,0.2027 0.316406,0.32812 -0.143874,0.72506 -0.263636,1.43826 -0.384765,2.12305 -0.364737,2.06198 -1.080143,4.15362 -2.367188,5.53906 -1.977147,2.12832 -4.973047,3.52648 -7.9296872,4.13282 -4.0377657,0.82805 -8.52149408,0.53961 -12.3261719,-0.95899 -4.1415398,-1.63128 -8.1190099,-4.54133 -10.3925779,-8.2539 -1.945577,-3.17699 -2.394574,-7.38642 -2.271485,-11.33399 0.106556,-3.41729 1.23799,-6.8796 2.728516,-10.08594 1.973767,-4.24585 4.8826556,-8.11624 8.0917969,-11.63281 4.3793773,-4.7989 9.3900926,-9.11793 14.8964843,-12.51562 1.6951408,-1.04598 3.5118208,-1.89518 5.3027348,-2.78711 3.633721,1.46826 7.268856,2.86968 10.9375,4.27929 7.600154,2.92023 15.108321,6.34019 23.042968,8.68946 5.759044,1.70512 11.662984,3.20944 17.703125,3.86133 3.10036,0.3346 6.077214,0.51844 9.525391,-0.004 0.840004,-0.12723 1.865423,-0.44615 2.390625,-1.42774 0.525202,-0.98158 0.36616,-2.21129 -0.3125,-3.78515 -1.642921,-3.81006 -4.45205,-6.75357 -7.429688,-9.23633 -3.477834,-2.89982 -7.637393,-4.86642 -11.773437,-6.41406 -5.173445,-1.93584 -10.671717,-3.19961 -16.197266,-3.58789 -5.699986,-0.40055 -11.553475,-0.0415 -17.132812,1.33789 -3.765587,0.93098 -7.369323,2.40643 -10.871094,4.09179 -5.3260255,-2.15141 -10.6181203,-4.35312 -16.0546874,-6.28125 -9.1564226,-3.2474 -18.3471226,-6.69378 -27.9121096,-8.89648 -8.672162,-1.9971 -17.586176,-3.92171 -26.623047,-3.85156 z m 397.863281,1.9414 c -2.49266,-0.0218 -4.98536,-0.0181 -7.47852,0.0137 -15.03737,0.19168 -30.27302,0.69756 -45.11132,3.68164 -11.21501,2.2554 -22.99058,4.66993 -32.9375,10.77539 -3.6729,2.25443 -7.62079,5.19645 -9.38477,9.45508 -0.50726,1.22464 -0.44035,2.68401 -0.3457,3.93945 0.0946,1.25544 0.28515,2.28125 0.28515,2.28125 0.21674,1.34581 2.24256,0.97363 1.9668,-0.36133 0,0 -0.17009,-0.93268 -0.25586,-2.07031 -0.0858,-1.13763 -0.0171,-2.50589 0.19727,-3.02344 1.4778,-3.56773 5.03724,-6.33862 8.58398,-8.51562 9.54535,-5.85897 21.07779,-8.26762 32.28516,-10.52149 14.62128,-2.94043 29.73261,-3.44929 44.74219,-3.64062 19.82513,-0.25273 39.68685,1.28041 59.45117,3.32226 22.84187,2.3598 45.58054,5.92269 68.13281,10.30469 28.12523,5.46485 83.79883,19.95117 83.79883,19.95117 1.33264,0.41221 1.76316,-1.22271 0.39884,-1.51334 0,0 -55.52738,-14.90593 -83.81681,-20.40267 -22.60018,-4.39131 -45.39708,-7.96113 -68.30859,-10.32813 -17.32388,-1.78973 -34.7545,-3.19472 -52.20313,-3.34766 z m -172.23437,9.57813 c -0.35639,0.0273 -0.70361,0.27111 -0.86524,0.49805 -2.50512,3.51737 -4.55705,6.46635 -6.74609,9.52929 -1.97954,1.42919 -4.02478,2.77668 -6.20899,4.02539 -2.85299,1.63106 -6.33306,2.26968 -9.79297,3.1211 -4.26465,1.04945 -8.58979,1.87525 -12.93164,2.25 -5.2606,0.45404 -10.56417,0.67397 -15.71484,0.004 -4.41121,-0.57395 -8.71318,-1.24991 -12.51758,-3.2832 -1.28223,-0.68529 -2.26819,-1.83375 -3.26421,-2.89284 -0.78816,-0.83806 -2.126413,-2.71849 -2.126413,-2.71849 -0.794273,-1.07161 -2.044533,-0.0945 -1.25026,0.97711 0,0 1.1863,1.97603 1.940286,2.83958 1.174297,1.34494 2.405987,2.73789 3.974607,3.59068 3.93647,2.14009 8.57873,2.89813 12.98576,3.47154 5.37975,0.69997 10.82527,0.46291 16.14453,0.004 4.47919,-0.38659 8.90362,-1.23457 13.23633,-2.30078 3.37269,-0.82996 7.05296,-1.46492 10.30859,-3.32617 0.65537,-0.37467 1.30795,-0.77984 1.96484,-1.16601 -0.71695,1.03854 -1.52801,2.09542 -2.25,3.17968 -3.58938,5.39048 -7.15105,10.8369 -10.33398,16.52344 -2.2743,4.0632 -4.34963,8.21836 -6.36719,12.39258 -2.11049,0.18282 -4.22697,0.47095 -6.28515,1.1543 -4.55421,1.51206 -8.70245,4.16341 -12.31641,7.20117 -3.3699,2.83262 -5.97779,6.40169 -8.39844,9.9082 -3.45635,5.00683 -6.24913,10.4299 -8.80469,15.88477 -1.93367,4.12748 -3.774391,8.29394 -4.992182,12.87109 -0.863055,3.24383 -1.317077,7.44606 0.501953,10.40309 0.61181,0.99457 1.892059,1.55572 3.046879,1.72852 1.37065,0.2051 2.81648,-0.28813 4.05844,-0.90317 2.64233,-1.30853 4.60792,-3.61256 6.76187,-5.70305 2.46543,-2.39279 4.50702,-5.15314 6.38867,-7.93164 2.41694,-3.56892 4.3347,-7.39804 6.27539,-11.13867 3.62753,-6.99195 6.69395,-14.2151 10.10352,-21.2207 1.67975,-3.45137 3.31286,-6.91614 4.9707,-10.36329 1.95257,-0.12471 3.93659,-0.1735 5.93164,-0.26367 5.80132,-0.2622 11.75578,0.6809 17.83008,0.37891 2.06976,-0.1029 4.31638,-0.10503 6.51172,-0.80469 0.15597,-0.0497 0.4435,-0.1271 0.63476,-0.17578 0.0409,1.1818 0.46551,2.40571 1.46289,3.2207 1.24137,1.01437 2.86563,1.1236 4.21289,0.92774 1.8892,-0.27466 3.3931,-1.42419 4.63868,-2.44532 0.87798,-0.71976 1.77279,-1.82974 2.50976,-2.79492 0.31964,-0.41862 0.33875,-0.46398 0.5586,-0.77148 0.12547,0.4659 0.19573,0.96421 0.63281,1.51758 0.68312,0.86486 1.43591,2.08354 2.81836,2.74609 1.19734,0.57384 2.79768,1.0569 4.3164,0.39453 1.33702,-0.58312 1.81038,-1.89126 2.1211,-2.6914 3.12124,-8.0379 5.25268,-15.62206 7.15039,-22.11719 -0.16707,1.22231 -0.48268,2.71356 -0.50196,3.58008 -0.0709,3.18657 -0.0459,6.46668 0.5879,9.69531 0.32092,1.63489 0.68749,3.55171 1.21093,5.33789 0.52344,1.78618 1.1731,3.45238 2.25781,4.62891 l 0.16407,0.17773 0.22656,0.084 c 0.58465,0.21417 1.13327,0.0508 1.50977,-0.14257 0.37649,-0.1934 0.65589,-0.43946 0.8789,-0.66797 0.72148,-0.73929 0.89684,-1.64104 1.05274,-2.34766 0.15589,-0.70662 0.30058,-1.23706 0.52343,-1.51172 0.52919,-0.65219 1.4675,-1.14709 2.48829,-1.61914 1.17444,-0.54311 2.42614,-0.93503 3.65624,-1.05078 0.59749,-0.0562 1.19191,-0.0165 1.67579,0.14453 0.8282,0.27552 1.5964,0.68297 1.99804,1.18945 0.12724,0.16046 0.22598,0.4721 0.31836,0.95704 0.0924,0.48493 0.17027,1.12172 0.55078,1.77148 0.20429,0.34884 0.45292,0.88162 0.82813,1.39844 0.37521,0.51681 0.97176,1.10242 1.8457,1.17773 0.71244,0.0614 1.30702,-0.23555 1.75977,-0.60742 0.45275,-0.37187 0.79823,-0.84025 0.98242,-1.4082 0.30464,-0.93938 0.22278,-1.85122 0.0195,-2.73438 1.48195,0.048 2.84256,-0.37879 4.06055,-0.67383 1.23736,-0.29972 2.27999,-0.44713 3.16601,-0.13086 -0.0449,-0.016 0.0101,5.3e-4 0.14844,0.17969 0.13837,0.17916 0.32092,0.48729 0.69141,0.79102 0.15603,0.12791 0.41658,0.42814 0.77539,0.74023 0.35881,0.31209 0.9355,0.70009 1.67773,0.61719 0.6831,-0.0763 1.23036,-0.47269 1.58789,-0.88281 0.35754,-0.41013 0.58957,-0.84818 0.80469,-1.24219 0.21512,-0.39401 0.41116,-0.74666 0.58594,-0.9707 0.17477,-0.22405 0.28918,-0.29413 0.38867,-0.32032 0.10789,-0.0284 0.33496,0.0208 0.79492,0.25586 0.45996,0.23511 1.05512,0.63634 1.91016,0.69922 1.40704,0.10341 2.90159,-0.0614 4.26172,-0.64844 1.13379,-0.48932 2.39767,-1.22176 3.1289,-2.50976 4.50675,-7.93829 6.89805,-12.06887 10.18164,-18.20508 0.53887,-1.007 1.16038,-2.03139 1.76368,-3.04687 0.0603,0.73464 0.0841,1.4727 0.24023,2.19531 0.67884,3.1417 2.19194,5.98264 3.71289,8.63086 3.02417,5.26558 6.84507,10.00452 10.72461,14.5625 8.67441,10.19138 18.8755,18.85532 27.9082,28.48047 8.04433,8.57195 16.44662,16.80157 23.44531,26.08593 6.34898,8.42244 12.155,17.32399 16.77735,26.76368 5.72231,11.68599 10.34764,23.18138 13.38672,36.57031 3.01097,13.26509 4.52442,26.83147 6.04883,40.4707 1.15253,10.31206 3.27276,20.53305 6.0996,30.50195 3.4484,12.16077 8.68127,23.66628 13.11133,35.35157 2.67984,7.06867 6.13027,13.76518 8.07813,20.8457 1.08692,3.95101 2.53346,7.86744 1.99023,11.50586 -0.0745,0.49895 -0.17733,1.04682 -0.33008,1.43359 -0.1319,0.33399 -0.2536,0.43028 -0.36132,0.49219 -0.0772,-0.0324 -0.16663,-0.0707 -0.27149,-0.13477 -0.27016,-0.16503 -0.5,-0.36132 -0.5,-0.36132 -1.00909,-0.87202 -2.31733,0.64125 -1.30859,1.51367 0,0 0.33091,0.28793 0.76758,0.55469 0.21833,0.13338 0.46706,0.26834 0.76953,0.36718 0.30247,0.0988 0.69049,0.19063 1.16211,0.0215 0.86436,-0.31002 1.33859,-1.05288 1.60156,-1.71875 0.26297,-0.66587 0.36979,-1.34106 0.44922,-1.87305 0.64689,-4.3327 -0.98824,-8.51224 -2.03906,-12.33203 -2.02173,-7.34904 -5.51134,-14.09839 -8.13672,-21.02344 -4.46056,-11.76573 -9.66497,-23.21986 -13.0586,-35.1875 -2.80057,-9.87623 -4.89649,-19.99178 -6.03515,-30.17968 -1.52436,-13.63883 -3.04385,-27.28062 -6.08789,-40.69141 -3.0814,-13.57536 -7.77803,-25.23678 -13.54102,-37.00586 -4.69479,-9.58761 -10.57265,-18.5945 -16.97656,-27.08984 -7.11942,-9.4445 -15.57656,-17.71946 -23.58203,-26.25 -9.13616,-9.7354 -19.30914,-18.38107 -27.84375,-28.40821 -3.85583,-4.53012 -7.59414,-9.1783 -10.51367,-14.26172 -1.49658,-2.60578 -2.89139,-5.27612 -3.49219,-8.05664 -0.40059,-1.85394 -0.39073,-3.83433 -0.14453,-5.76562 0.57902,-1.16566 1.21667,-2.29651 1.5957,-3.57813 0.0672,-0.22705 0.32651,-0.79278 0.48828,-1.38672 0.0809,-0.29696 0.16436,-0.61101 0.084,-1.05078 -0.0804,-0.43976 -0.57228,-1.01123 -1.08398,-1.12109 -0.79541,-0.17077 -1.68359,0.25561 -2.07812,0.83398 -0.39454,0.57838 -0.53052,1.21142 -0.63282,1.8711 -0.20459,1.31936 -0.19364,2.82877 -0.31445,3.62109 -0.015,0.0985 -0.008,0.20187 -0.0215,0.30078 -1.12002,2.1739 -2.39749,4.3298 -3.61524,6.60547 -3.26911,6.10915 -5.64655,10.21667 -10.15625,18.16016 -0.38002,0.66937 -1.24885,1.25953 -2.18164,1.66211 -0.98725,0.42612 -2.18148,0.57227 -3.32422,0.48828 -0.19935,-0.0147 -0.60862,-0.20945 -1.14648,-0.48438 -0.53786,-0.27492 -1.30033,-0.64891 -2.21485,-0.4082 -0.65444,0.17226 -1.12617,0.6018 -1.45507,1.02344 -0.32891,0.42164 -0.55505,0.86007 -0.76368,1.24219 -0.20862,0.38209 -0.40201,0.7071 -0.55859,0.88671 -0.15658,0.17961 -0.21104,0.19875 -0.30273,0.20899 0.0627,-0.007 0.0499,0.0287 -0.14258,-0.13867 -0.19246,-0.1674 -0.44565,-0.47179 -0.81836,-0.77735 -0.0443,-0.0363 -0.17837,-0.20716 -0.37891,-0.46679 -0.20053,-0.25964 -0.50659,-0.6435 -1.05664,-0.83985 -1.50707,-0.53797 -2.98828,-0.24997 -4.31055,0.0703 -1.32226,0.3203 -2.53933,0.67497 -3.56836,0.63086 -0.34922,-0.015 -0.55619,-0.12104 -0.875,-0.15039 -0.3318,-0.63319 -0.64607,-1.31384 -0.97265,-1.84179 -0.60767,-0.98237 -1.46428,-2.44517 -3.14649,-2.73438 -0.44506,-0.0765 -0.86845,-0.0384 -1.3125,0.12109 -0.44404,0.15947 -1.01674,0.51756 -1.16406,1.23047 -0.13443,0.6506 0.0114,1.30246 0.28906,1.81446 0.0438,0.0808 0.12281,0.12358 0.17188,0.19922 -0.22906,-0.0939 -0.46025,-0.22128 -0.68164,-0.29493 -0.84107,-0.27985 -1.70337,-0.31091 -2.4961,-0.23632 -1.51875,0.14291 -2.977,0.60882 -4.30859,1.2246 -1.0478,0.48456 -2.29438,1.05626 -3.20117,2.17383 -0.63504,0.78265 -0.77343,1.66203 -0.92383,2.34375 -0.1504,0.68173 -0.30176,1.14571 -0.53125,1.38086 -0.0356,0.0364 -0.0724,0.0546 -0.11328,0.0899 -0.58383,-0.79645 -1.15227,-1.89608 -1.57422,-3.33594 -0.48521,-1.65573 -0.84589,-3.51941 -1.16797,-5.16016 -0.58598,-2.98509 -0.61875,-6.12146 -0.54883,-9.26562 0.0432,-1.94155 0.79731,-6.25034 1.3379,-9.45313 0.27028,-1.60139 0.48745,-2.9024 0.5332,-3.70898 0.0114,-0.20165 0.0235,-0.35504 -0.0215,-0.60547 -0.0225,-0.12522 -0.018,-0.29898 -0.27734,-0.58203 -0.12969,-0.14153 -0.37475,-0.29752 -0.63867,-0.33008 -0.26393,-0.0326 -0.48453,0.0442 -0.6211,0.11719 -0.54625,0.29183 -0.47939,0.45641 -0.58007,0.64453 -0.10069,0.18812 -0.19782,0.40623 -0.3125,0.68555 -2.69892,6.57344 -5.32799,19.14652 -9.93164,31.00195 -0.26269,0.67647 -0.76842,1.45352 -1.0586,1.58008 -0.62262,0.27154 -1.74103,0.0725 -2.65039,-0.36328 -0.71345,-0.34193 -1.3558,-1.2246 -2.11328,-2.1836 -0.0213,-0.027 -0.28597,-0.75121 -0.51562,-1.41601 -0.11484,-0.33241 -0.21183,-0.66674 -0.54688,-1.03711 -0.16753,-0.18519 -0.44376,-0.39325 -0.80664,-0.45118 -0.36288,-0.0579 -0.72114,0.0599 -0.96484,0.2129 l -0.17774,0.11132 -0.11914,0.17383 c 0,0 -0.52078,0.77083 -1.2207,1.6875 -0.69993,0.91667 -1.60717,1.98519 -2.1875,2.46094 -1.18247,0.96939 -2.44038,1.83662 -3.65821,2.01367 -0.96808,0.14074 -2.08978,-0.03 -2.66015,-0.49609 -0.43206,-0.35305 -0.77587,-1.19317 -0.76953,-1.8711 l 0,-0.002 c 0.001,-0.11195 0.0478,-0.23826 0.0547,-0.35937 0.0838,-0.0282 0.14546,-0.0339 0.22852,-0.0645 0.52228,-0.19219 1.04021,-0.4351 1.49023,-0.83398 0.45002,-0.39888 0.81513,-1.00372 0.87696,-1.69531 0.064,-0.71705 -0.32306,-1.15206 -0.69141,-1.44141 -0.36835,-0.28935 -0.83025,-0.53757 -1.48828,-0.37891 -1.12782,0.27194 -1.74891,1.24349 -2.0625,2.14063 -0.0827,0.2365 -0.0534,0.45022 -0.10742,0.68945 -0.51634,0.12825 -0.99829,0.25354 -1.50195,0.41406 -1.80861,0.57641 -3.87649,0.60518 -6.00391,0.71094 -5.7971,0.28821 -11.74769,-0.65338 -17.82031,-0.3789 -1.57559,0.0712 -3.21054,0.13179 -4.83789,0.20703 1.85034,-3.80407 3.74042,-7.57796 5.79687,-11.25196 3.13797,-5.60621 6.67255,-11.00926 10.25586,-16.39062 1.64252,-2.4667 3.4877,-4.94642 5.15234,-7.28125 3.08881,-2.24374 5.92084,-4.92423 7.89258,-8.76953 0.23824,-0.46462 0.17183,-0.81743 0.10938,-1.11719 -0.0625,-0.29976 -0.16798,-0.56492 -0.30664,-0.81445 -0.13867,-0.24954 -0.27648,-0.48442 -0.61524,-0.71289 -0.16938,-0.11424 -0.42876,-0.24414 -0.78515,-0.2168 z m -131.333989,3.92773 c 1.389203,10e-4 2.777912,0.0514 4.158203,0.14844 5.315434,0.37352 10.631688,1.59202 15.636719,3.46484 4.025914,1.50644 7.977957,3.39517 11.193359,6.07618 2.85434,2.37995 5.410897,5.10134 6.873047,8.49218 0.568351,1.31805 0.469698,1.89569 0.386719,2.05079 -0.08298,0.15507 -0.334404,0.3027 -0.927734,0.39257 -3.213316,0.4867 -5.96753,0.32262 -9.009766,-0.006 -5.851198,-0.63148 -11.64232,-2.10063 -17.351562,-3.79101 -7.756405,-2.2965 -15.21522,-5.68954 -22.890625,-8.63867 -3.100061,-1.19115 -6.22631,-2.39763 -9.314453,-3.64453 2.886659,-1.28463 5.855782,-2.36249 8.892578,-3.11329 2.670349,-0.66021 5.419127,-1.07907 8.189453,-1.2832 1.385163,-0.10206 2.77486,-0.1497 4.164062,-0.14844 z m 182.882809,35.11328 c 0.44811,0.077 1.01778,0.80703 1.53125,1.5586 -0.3503,-0.21406 -0.73976,-0.40216 -1.00976,-0.62891 -0.29571,-0.24834 -0.5093,-0.49573 -0.61328,-0.6875 -0.0515,-0.095 -0.0298,-0.157 -0.043,-0.22656 0.0538,-0.004 0.12151,-0.0179 0.13476,-0.0156 z m 0.76172,3.42383 c 0.34573,0.19864 0.72747,0.48469 1.01367,0.64063 0.45437,0.24756 0.91825,0.33889 1.37696,0.43554 0.31553,0.86558 0.45356,1.68951 0.23633,2.35938 -0.0381,0.11759 -0.18413,0.34455 -0.34961,0.48047 -0.16549,0.13592 -0.31276,0.16064 -0.31836,0.16015 -0.0623,-0.005 -0.17827,-0.0581 -0.39844,-0.36132 -0.22017,-0.30326 -0.45013,-0.77236 -0.7207,-1.23438 -0.12455,-0.21267 -0.21232,-0.60692 -0.3125,-1.13281 -0.0738,-0.38758 -0.28963,-0.87786 -0.52735,-1.34766 z m -83.19336,6.47852 c -1.4631,3.05654 -2.91359,6.11944 -4.39062,9.1543 -3.43959,7.06729 -6.49989,14.27311 -10.08008,21.17382 -1.94909,3.75685 -3.83697,7.51473 -6.15625,10.93946 -1.84921,2.7306 -3.81782,5.37608 -6.12695,7.61718 -2.05541,1.99485 -3.87679,4.10204 -6.33218,5.38665 -0.90052,0.47113 -1.94118,0.92611 -2.94712,0.78132 -0.57499,-0.0828 -1.19745,-0.40181 -1.49023,-0.90355 -1.485918,-2.54642 -1.07987,-5.80224 -0.27149,-8.84059 1.16654,-4.38451 2.9484,-8.43725 4.86914,-12.53711 2.53385,-5.40853 5.28168,-10.72999 8.64063,-15.5957 2.3983,-3.47415 4.91571,-6.89025 8.03906,-9.51563 3.47462,-2.92064 7.42592,-5.4262 11.66016,-6.83203 1.45282,-0.48236 3.02465,-0.64028 4.58593,-0.82812 z"
       id="path3347"
       inkscape:connector-curvature="0"
       sodipodi:nodetypes="sssssscsccsscssssssscsssssssscccssscssscscsscscsscaccacsscssccsccccsccscssscsssscsscccccssssssssscssscsssssscssssssssccccssssssccssscssssscssaassaasscsscsssssscaaasscssccsssscsssccscsccccsccsccccssssscscccsssscccccsscsssssssssssscccccsccsssssssssssssccccsssccsscccsccsccccscccsccccccscssccsscscsccccssccccsccccssscccccscssccssccsscsccccssscscscsscsssccsccccccccscccccsssscccssaaacssssc" />
  </g>
</svg>
