<?xml version="1.0" encoding="UTF-8" standalone="no"?>
<!-- Created with Inkscape (http://www.inkscape.org/) -->

<svg
   xmlns:dc="http://purl.org/dc/elements/1.1/"
   xmlns:cc="http://creativecommons.org/ns#"
   xmlns:rdf="http://www.w3.org/1999/02/22-rdf-syntax-ns#"
   xmlns:svg="http://www.w3.org/2000/svg"
   xmlns="http://www.w3.org/2000/svg"
   xmlns:sodipodi="http://sodipodi.sourceforge.net/DTD/sodipodi-0.dtd"
   xmlns:inkscape="http://www.inkscape.org/namespaces/inkscape"
   width="744.09448"
   height="290"
   id="svg3019"
   version="1.1"
   inkscape:version="0.48.2 r9819"
   sodipodi:docname="Nieuw document 5">
  <defs
     id="defs3021" />
  <sodipodi:namedview
     id="base"
     pagecolor="#ffffff"
     bordercolor="#666666"
     borderopacity="1.0"
     inkscape:pageopacity="0.0"
     inkscape:pageshadow="2"
     inkscape:zoom="0.35"
     inkscape:cx="375"
     inkscape:cy="520"
     inkscape:document-units="px"
     inkscape:current-layer="layer1"
     showgrid="false"
     inkscape:window-width="1537"
     inkscape:window-height="878"
     inkscape:window-x="-8"
     inkscape:window-y="-8"
     inkscape:window-maximized="1" />
  <metadata
     id="metadata3024">
    <rdf:RDF>
      <cc:Work
         rdf:about="">
        <dc:format>image/svg+xml</dc:format>
        <dc:type
           rdf:resource="http://purl.org/dc/dcmitype/StillImage" />
        <dc:title></dc:title>
      </cc:Work>
    </rdf:RDF>
  </metadata>
  <g
     inkscape:label="Laag 1"
     inkscape:groupmode="layer"
     id="layer1"
     transform="translate(0,-762.36218)">
    <path
       style="fill:#000000"
       d="m 28.925783,1030.906 c -1.969158,-2.1758 -4.510512,-9.0911 -5.647453,-15.3671 -2.47131,-13.6419 -2.921612,-68.74673 -0.735474,-90.00217 3.413704,-33.19086 16.252028,-65.26634 26.730674,-66.78436 8.055377,-1.16696 11.251412,8.12781 14.046396,40.85004 2.488081,29.12914 2.442219,30.09559 -2.550282,53.74133 -2.796158,13.24331 -5.083925,27.017 -5.083925,30.6082 0,7.4262 -4.269093,14.50801 -7.530657,12.49226 -2.717516,-1.67952 -1.394871,-14.39747 4.627788,-44.49873 4.181543,-20.89934 4.349931,-24.50608 2.453219,-52.54571 -1.120075,-16.55837 -2.363931,-30.47243 -2.764125,-30.92015 -1.059016,-1.18478 -8.707735,6.07742 -11.090929,10.53046 -5.422582,10.13218 -13.771741,57.48278 -14.806712,83.97332 -1.123766,28.76328 4.612802,60.84511 12.459724,69.68111 1.584316,1.7841 9.448369,-9.6774 15.882598,-23.1481 5.941328,-12.43878 11.813275,-33.50182 16.026095,-57.48662 1.392993,-7.9307 3.977289,-9.82307 7.966696,-5.83367 3.279521,3.27953 2.150966,12.54864 -4.269361,35.06537 -3.273184,11.47938 -4.221987,36.80512 -1.443207,38.52252 2.559688,1.582 23.487901,-32.61555 24.931012,-40.73826 0.707111,-3.98005 2.48209,-8.22942 3.94439,-9.44302 5.34205,-4.4335 6.5901,2.07543 5.09922,26.59378 -1.29075,21.2269 -0.35546,30.3235 2.61713,25.4542 4.93348,-8.0813 19.70186,-38.57144 20.89393,-43.13663 1.89075,-7.24087 7.61019,-11.33764 10.14788,-7.2688 0.96348,1.54482 1.05758,4.66782 0.20911,6.94 -0.84848,2.27218 -2.17254,9.26187 -2.94235,15.53266 -2.40794,19.61477 2.89743,14.88827 19.05887,-16.97915 2.55121,-5.03052 4.95984,-7.34314 7.19772,-6.91082 2.82365,0.54549 3.25456,2.63384 2.68523,13.01344 -0.39066,7.12231 0.13627,12.36367 1.24297,12.36367 1.79826,0 8.2002,-13.27134 11.23896,-23.29857 0.79034,-2.60795 2.93356,-4.46143 5.15885,-4.46143 3.52065,0 3.7141,1.09667 2.57355,14.58933 -0.82273,9.73295 -0.50665,15.03839 0.94957,15.93838 2.2534,1.39266 9.02358,-7.09765 18.62687,-23.35955 8.45539,-14.31806 13.42886,-10.86386 8.01886,5.56929 -2.63289,7.99753 -2.67956,9.76061 -0.32068,12.11477 2.35664,2.35191 3.70566,2.1562 9.21811,-1.33734 3.65232,-2.31466 6.95779,-6.37298 7.60916,-9.34223 3.34135,-15.23108 6.98957,-19.9938 13.42386,-17.52473 4.37739,1.67977 4.02213,9.18431 -0.72192,15.24923 -5.5594,7.10727 -5.05398,12.73139 1.34656,14.98437 5.05977,1.78102 5.1473,2.03485 1.84124,5.33991 -4.46397,4.4626 -6.42089,4.371 -10.58788,-0.49571 -4.36013,-5.09226 -5.38259,-5.00452 -13.45807,1.15491 -8.82897,6.7342 -13.55963,5.7263 -14.83328,-3.16028 -1.19827,-8.36071 -3.10385,-7.66289 -10.89077,3.98818 -7.32841,10.9651 -14.14136,12.9229 -15.97333,4.5902 -3.05854,-13.91179 -4.38504,-13.86896 -11.367,0.367 -3.26023,6.6475 -6.62533,10.9057 -8.61832,10.9057 -2.83771,0 -3.09521,-1.7026 -1.94918,-12.8886 0.72626,-7.08868 0.53671,-12.88854 -0.42122,-12.88854 -1.78588,0 -14.23161,18.88734 -14.23161,21.59754 0,2.9401 -9.65528,10.5223 -11.75035,9.2275 -1.17131,-0.7239 -2.12965,-5.725 -2.12965,-11.1135 0,-5.3885 -0.77106,-9.7973 -1.71347,-9.7973 -0.9424,0 -3.18671,3.8577 -4.98735,8.5726 -4.81851,12.6171 -13.51778,25.136 -17.46675,25.136 -5.3434,0 -7.558144,-6.3874 -7.558144,-21.7981 0,-7.9196 -0.78814,-13.64026 -1.793611,-13.0188 -0.986487,0.6096 -4.465168,5.7929 -7.730403,11.5184 -7.804793,13.6854 -13.381985,19.3328 -19.092512,19.3328 -5.144392,0 -7.074902,-3.2906 -7.074902,-12.0593 0,-3.1825 -0.892286,-5.7864 -1.982857,-5.7864 -1.090572,0 -1.982857,1.1598 -1.982857,2.5774 0,1.4175 -2.430087,6.3251 -5.400193,10.9057 -4.903255,7.5619 -6.15224,8.3283 -13.572681,8.3283 -5.647707,0 -9.278572,-1.2222 -11.752777,-3.9562 z M 276.92775,992.7265 c -3.86275,-18.86453 -4.51572,-109.69975 -0.81605,-113.51857 1.26917,-1.31005 2.95688,-0.63723 4.97388,1.98285 2.61378,3.3953 2.89868,10.18645 1.98074,47.21431 -1.42167,57.34653 2.1859,56.8768 12.19956,-1.58845 2.53834,-14.82023 4.19452,-19.96285 6.57676,-20.42163 5.34047,-1.02848 5.80095,4.94108 1.85031,23.98762 -6.9292,33.40663 -7.18092,44.99387 -0.97747,44.99387 4.04515,0 8.07413,-9.43124 9.68614,-22.67384 0.78788,-6.47247 2.22419,-13.85034 3.19176,-16.39528 0.96758,-2.54493 1.91481,-9.02247 2.10494,-14.39453 0.41311,-11.67186 2.10278,-14.98695 6.73309,-13.21014 3.08083,1.18223 3.2946,3.34387 2.03188,20.54626 -0.77617,10.57377 -3.22524,24.46681 -5.44239,30.87343 -5.67833,16.40803 -0.38131,19.30157 8.86779,4.8441 3.46679,-5.41899 9.3456,-7.46306 9.3456,-3.24947 0,1.21187 -3.65222,6.56558 -8.11607,11.89715 -8.08813,9.66038 -16.03911,12.78387 -18.36649,7.21518 -0.68658,-1.64281 -2.65889,-0.57369 -5.84915,3.17064 -6.76156,7.9359 -12.00005,6.48141 -13.274,-3.68555 -1.27208,-10.15205 -4.33883,-10.14277 -6.34703,0.0192 -2.99134,15.13697 -3.65787,16.85429 -6.54154,16.85429 -1.5943,0 -3.30983,-2.00765 -3.81226,-4.46143 z m 112.61084,-6.4031 c -0.68092,-1.77442 -0.2321,-8.23509 0.99737,-14.35707 1.22947,-6.12197 1.81309,-11.55317 1.29693,-12.06932 -0.51614,-0.51615 -4.2779,2.30514 -8.35945,6.26954 -12.37979,12.02445 -27.25669,11.68915 -33.90931,-0.76427 -7.16587,-13.41421 4.48109,-72.49846 17.07936,-86.6423 6.64378,-7.45886 11.48988,-5.83494 17.6091,5.9008 11.45952,21.9777 13.53032,38.39311 5.96897,47.31682 -2.41456,2.84961 -9.1566,8.41391 -14.98231,12.36512 -11.5546,7.83677 -17.07244,7.4884 -18.74216,-1.1833 -0.47293,-2.45618 -0.9814,0.11986 -1.12991,5.72455 -0.19155,7.22935 0.78507,11.49333 3.36114,14.67464 5.37235,6.63458 13.08705,3.79477 26.18507,-9.63884 9.3139,-9.55254 11.5344,-13.31525 14.64023,-24.80843 3.57241,-13.21976 7.88005,-18.37153 11.05962,-13.22688 0.88384,1.4301 0.006,7.12706 -1.99566,12.94346 -5.1195,14.88013 -10.11095,38.44602 -10.52949,49.71247 -0.2776,7.4723 -1.15152,9.82904 -3.8355,10.34325 -1.91181,0.36628 -4.03311,-0.78584 -4.714,-2.56024 z m -11.66985,-52.76977 c 4.84162,-4.46287 9.35137,-9.84214 10.02162,-11.95394 1.26347,-3.98085 -6.9824,-27.99799 -11.89949,-34.6588 -3.81876,-5.17299 -5.93772,-2.58118 -11.94354,14.60875 -5.94125,17.00519 -6.46963,22.00786 -1.92615,18.23711 5.22122,-4.33322 6.9981,0.2907 3.97361,10.34034 -4.30687,14.31062 -1.05924,15.25576 11.77395,3.42654 z m -19.47553,-8.24427 c -0.55006,-1.36322 -1.00013,-0.24786 -1.00013,2.47857 0,2.72643 0.45007,3.84178 1.00013,2.47857 0.55007,-1.36321 0.55007,-3.59393 0,-4.95714 z m 76.07523,45.60571 c -9.44048,-6.50166 -18.37418,-24.19312 -17.16886,-33.99955 1.41915,-11.54624 7.01463,-16.03465 20.22805,-16.226 6.83354,-0.099 12.04106,-1.26048 13.87544,-3.09487 4.92604,-4.92602 7.22922,-26.46191 5.74882,-53.75387 -1.32544,-24.43473 -1.23823,-25.28142 2.60337,-25.28142 2.1861,0 4.51636,1.4114 5.17832,3.13645 1.92228,5.0094 1.36801,54.21332 -0.75688,67.18972 -2.72532,16.64314 -0.23404,17.72486 11.65555,5.06086 9.51764,-10.13754 10.14178,-10.45827 17.92862,-9.2131 7.84049,1.25374 8.06771,1.13183 8.06771,-4.32871 0,-3.09033 1.261,-9.56994 2.80221,-14.39914 1.5412,-4.82921 4.36076,-14.84124 6.26569,-22.24897 2.61547,-10.17092 4.23544,-13.32144 6.61636,-12.86752 2.61915,0.49933 3.34109,4.96109 4.26477,26.35717 1.27888,29.62484 -0.85971,42.61057 -8.71313,52.90694 -5.54024,7.26364 -7.03891,15.50506 -2.80876,15.44594 3.41912,-0.0478 15.76855,-21.76787 22.24639,-39.12679 4.09176,-10.96483 6.2644,-14.37571 9.15695,-14.37571 5.00299,0 4.87291,4.98458 -0.44372,17.00373 -4.46161,10.08619 -5.59263,23.53211 -2.2598,26.86495 4.65568,4.65568 20.85206,-22.28571 23.24685,-38.66933 1.93329,-13.22616 2.87404,-15.11364 7.53288,-15.11364 3.70667,0 3.92594,0.83754 2.72528,10.41 -0.71815,5.7255 -1.83904,13.533 -2.49091,17.35 -1.67896,9.83124 1.21789,6.32529 12.28783,-14.87143 11.87138,-22.73136 12.67563,-23.7628 15.92516,-20.4238 2.58806,2.65933 1.87243,8.56514 -3.25019,26.82253 -1.29343,4.60987 -1.73849,9.96358 -0.98902,11.89714 1.27333,3.28503 1.5588,3.25552 4.35352,-0.45015 5.97641,-7.92446 12.50752,-22.65576 15.72737,-35.47402 2.59554,-10.33294 4.0802,-13.10598 7.01675,-13.10598 4.90797,0 4.84983,5.97154 -0.21548,22.13048 -4.15178,13.24475 -5.13712,24.51588 -2.29666,26.27139 2.91758,1.80316 9.63613,-7.13256 18.1291,-24.11187 7.4929,-14.97997 11.84656,-19.27788 14.75726,-14.5683 0.60854,0.98466 -1.11466,6.56144 -3.82933,12.39286 -5.37313,11.54206 -6.269,18.49136 -2.67053,20.71534 3.48738,2.15532 8.95628,-5.90658 12.62532,-18.61153 5.19186,-17.97797 14.81355,-25.33691 14.81355,-11.3298 0,4.71205 -0.91481,6.94 -2.84962,6.94 -2.10629,0 -2.57847,1.68102 -1.81011,6.44429 0.83204,5.15812 0.0159,7.40368 -4.09038,11.25135 -4.98889,4.67494 -6.83868,10.06436 -3.45435,10.06436 0.92155,0 2.93907,-1.5615 4.48335,-3.47 7.04985,-8.71242 10.14958,-17.53379 11.54644,-32.85958 1.98175,-21.74256 6.06637,-29.35951 11.94544,-22.27565 1.8702,2.25343 1.49956,6.05936 -1.74005,17.86784 -2.26405,8.25247 -4.11643,16.77911 -4.11643,18.94809 0,4.48057 5.23835,5.21081 9.91428,1.38207 3.70434,-3.03317 14.48511,-16.87848 17.37949,-22.31978 2.84603,-5.35038 10.37746,-34.98119 10.39158,-40.88336 0.0186,-7.78878 3.99752,-19.4982 6.62556,-19.4982 6.37177,0 6.50224,4.30021 0.88895,29.29905 -3.1158,13.87624 -6.1556,31.82964 -6.75514,39.89645 -1.38086,18.58003 -3.31484,23.5665 -9.76835,25.18623 -7.10715,1.78378 -10.39622,-1.86089 -5.05525,-5.60184 4.53479,-3.1763 9.40733,-14.80264 7.12567,-17.00254 -0.79058,-0.76226 -2.90139,0.83162 -4.69068,3.54194 -1.78929,2.71032 -6.31978,7.92837 -10.06776,11.59565 -6.02444,5.89473 -7.68466,6.52865 -14.31958,5.46769 -7.33846,-1.17347 -7.59486,-1.00298 -11.55042,7.68002 -5.13435,11.2706 -10.40167,14.41756 -16.95012,10.12685 -2.61493,-1.71337 -6.96593,-3.11522 -9.66889,-3.11522 -2.81177,0 -6.30479,-1.90886 -8.16397,-4.46142 -3.11134,-4.27177 -3.34794,-4.30479 -5.56529,-0.77663 -6.1052,9.71437 -9.88484,13.16948 -14.40643,13.16948 -3.82427,0 -5.11864,-1.27922 -6.06076,-5.98983 -1.76766,-8.83827 -4.03323,-8.944 -8.39623,-0.39184 -8.95171,17.54679 -15.63742,16.3561 -16.50284,-2.93905 -0.58128,-12.96013 -0.70447,-13.25433 -3.18179,-7.59854 -1.41743,3.23597 -3.60196,7.11844 -4.85453,8.6277 -1.25258,1.50925 -3.65475,6.88889 -5.33817,11.95475 -2.00015,6.01897 -4.36723,9.45539 -6.83103,9.91694 -3.43478,0.64346 -3.66757,-0.23804 -2.61624,-9.90691 1.25289,-11.52247 1.8004,-11.85186 -8.85631,5.32797 -9.52489,15.35517 -20.39898,18.51123 -22.77896,6.61129 -1.57356,-7.86774 -5.19884,-7.12721 -9.16976,1.87309 -1.83724,4.16421 -5.65718,9.741 -8.48874,12.39286 l -5.14829,4.82157 -4.52071,-5.65415 -4.52072,-5.65416 -8.48964,6.14987 c -15.70591,11.3773 -24.69976,6.82761 -24.73245,-12.51134 -0.0276,-16.29618 -4.32408,-13.19715 -5.8237,4.20057 -1.63381,18.95444 -3.91388,25.18148 -10.28295,28.08343 -6.91968,3.15282 -9.21303,2.84537 -16.56997,-2.22136 z m 19.82231,-23.59939 c 2.19016,-12.98475 1.48044,-20.69915 -1.13856,-12.37584 -4.2188,13.40755 -10.39695,10.45443 -6.66575,-3.1862 0.59749,-2.18438 -1.1312,-3.13593 -6.50918,-3.58296 -10.12618,-0.8417 -16.29584,5.21773 -14.37905,14.12214 2.17805,10.11802 6.56397,17.11711 13.28915,21.20693 5.68388,3.45657 6.58237,3.52464 9.66776,0.7324 1.98168,-1.7934 4.3758,-8.85455 5.73563,-16.91647 z m 35.98225,-2.26199 c 7.00994,-5.33306 8.69398,-7.87467 9.19671,-13.88 0.66573,-7.95255 -2.88224,-10.00803 -7.55542,-4.37719 -1.35764,1.63586 -5.30372,2.97429 -8.76906,2.97429 -3.46536,0 -7.37139,1.07074 -8.68008,2.37942 -4.78398,4.78399 -1.40979,19.432 4.47618,19.432 1.51272,0 6.61196,-2.93783 11.33167,-6.52852 z m 22.38448,-29.5228 c 3.43391,-11.56326 4.00783,-24.59191 1.16078,-26.35149 -2.22827,-1.37715 -5.23391,9.25878 -7.12817,25.22424 -1.73443,14.61837 1.76466,15.27936 5.96739,1.12725 z m -21.61789,3.46767 c 2.89519,-2.13684 3.2873,-3.41099 1.58238,-5.14174 -1.71747,-1.74351 -3.51889,-1.48041 -7.43571,1.08598 -2.843,1.86282 -5.16911,4.1766 -5.16911,5.14175 0,2.73066 6.75272,2.06534 11.02244,-1.08599 z m -278.52317,15.95226 c -1.9972,-2.40648 -1.53677,-3.51925 2.56941,-6.20972 2.75145,-1.80282 5.93417,-2.70214 7.07269,-1.99849 2.5516,1.57697 2.75716,8.97675 0.24938,8.97675 -1.00138,0 -3.08913,0.48675 -4.63947,1.08166 -1.55032,0.59492 -3.91373,-0.23767 -5.25201,-1.8502 z M 47.134648,843.22733 c -2.806764,-2.80676 -1.218529,-6.65083 2.747891,-6.65083 2.771959,0 3.902273,1.07679 3.47,3.30569 -0.707767,3.6494 -4.092621,5.47041 -6.217891,3.34514 z M 652.87605,831.12364 c 0.82576,-4.4695 57.30122,-32.86588 59.99904,-30.16807 2.62899,2.629 -5.73407,10.98462 -15.56852,15.55469 -4.4539,2.06972 -14.94349,6.98518 -23.31022,10.92325 -17.04727,8.02386 -22.08357,8.9038 -21.1203,3.69013 z"
       id="path3038"
       inkscape:connector-curvature="0" />
  </g>
</svg>
