<?xml version="1.0" encoding="UTF-8" standalone="no"?>
<!-- Generator: Adobe Illustrator 13.0.2, SVG Export Plug-In . SVG Version: 6.00 Build 14948) -->
<svg xmlns:dc="http://purl.org/dc/elements/1.1/" xmlns:cc="http://creativecommons.org/ns#" xmlns:rdf="http://www.w3.org/1999/02/22-rdf-syntax-ns#" xmlns:svg="http://www.w3.org/2000/svg" xmlns="http://www.w3.org/2000/svg" xmlns:sodipodi="http://sodipodi.sourceforge.net/DTD/sodipodi-0.dtd" xmlns:inkscape="http://www.inkscape.org/namespaces/inkscape" version="1.0" id="Layer_1" x="0" y="0" width="156" height="40" sodipodi:version="0.32" inkscape:version="0.46" sodipodi:docname="Antonio Villaraigosa signature.svg" inkscape:output_extension="org.inkscape.output.svg.inkscape">
<metadata id="metadata257">
<rdf:RDF>
<cc:Work rdf:about="">
<dc:format>
</dc:format>
<dc:type rdf:resource="http://purl.org/dc/dcmitype/StillImage"/>
</cc:Work>
</rdf:RDF>
</metadata>
<defs id="defs255">
<inkscape:perspective sodipodi:type="inkscape:persp3d" inkscape:vp_x="0 : 19.997499 : 1" inkscape:vp_y="0 : 1000 : 0" inkscape:vp_z="155.147 : 19.997499 : 1" inkscape:persp3d-origin="77.573502 : 13.331666 : 1" id="perspective259"/>
</defs>
<sodipodi:namedview inkscape:window-height="669" inkscape:window-width="640" inkscape:pageshadow="2" inkscape:pageopacity="0.0" guidetolerance="10.0" gridtolerance="10.0" objecttolerance="10.0" borderopacity="1.0" bordercolor="#666666" pagecolor="#ffffff" id="base" showgrid="false" inkscape:zoom="3.506352" inkscape:cx="77.573502" inkscape:cy="19.997499" inkscape:window-x="92" inkscape:window-y="92" inkscape:current-layer="g238"/>
<path fill-rule="evenodd" clip-rule="evenodd" d="M117.152,12.999c-3.201,6.464-9.155,10.175-13.998,14.998 c8.911,6.754,28.311,3.019,42.994,4c-9.319,1.148-36.823,3.62-44.994-3c-2.762,1.237-5.079,2.92-8.999,3 c-2.134,0.467-1.904-1.429-2-3c-3.163-0.163-3.342,2.657-6.999,2c7.045-2.621,9.561-9.771,15.998-12.999 c1.583,4.263-6.343,6.736-7.999,10.999C104.88,32.715,103.612,12.795,117.152,12.999z M103.154,24.997 c4.254-1.766,9.896-7.407,9.999-9.999C109.951,18.462,105.693,20.871,103.154,24.997z" id="path242"/>
<path fill-rule="evenodd" clip-rule="evenodd" d="M44.162,4c-2.864,12.468-14.584,16.079-18.998,26.997 c9.083,5.263,8.572-12.558,15.998-8.999c-0.796,3.39-5.003,0.317-6,5c0.586,2.391,2.101-2.422,3-3 c2.356,2.422-3.292,5.324-4.999,6.999c0.466,4.984,5.8,4.166,9.999,3c-2.287,3.161-11.516,4.512-10.999-2 c-1.338,1.125-9.851,4.904-8.999-1c-4.433,2.114-9.498,8.208-15.998,4.999C12.677,22.052,28.563,1.562,44.162,4z M9.166,35.995 C24.219,27.523,35.407,21.068,42.162,4C25.502,9.003,15.192,20.357,9.166,35.995z" id="path244"/>
<path fill-rule="evenodd" clip-rule="evenodd" d="M125.151,7.999c0.04,3.04,0.582,6.581-3,5.999c0.521-1.479,1.479-2.52,2-4 c-21.023-8.473-37.176,12.417-47.994,23.998c-3.69-3.113,2.333-4.933,2-7.999c4.861,0.872,9.953-7.475,16.998-11.999 C102.876,9.041,113.267,3.099,125.151,7.999z" id="path248"/>
<path fill-rule="evenodd" clip-rule="evenodd" d="M79.157,10.999c-12.45,5.214-20.33,15-28.997,23.998 c6.865-12.133,17.345-20.651,30.997-25.997C76.062,20.568,62.042,23.213,56.16,33.996c5.209,2.53,9.946-3.133,15.998-3 c-4.457,2.715-11.637,6.322-16.998,4.999C57.894,22.398,72.551,20.724,79.157,10.999z" id="path250"/>
<path fill-rule="evenodd" clip-rule="evenodd" fill="#FFFFFF" d="M113.153,14.998c-0.103,2.592-5.745,8.233-9.999,9.999 C105.693,20.871,109.951,18.462,113.153,14.998z" id="path252"/>
</svg>