<?xml version="1.0" encoding="UTF-8" standalone="no"?>
<svg
   xmlns:dc="http://purl.org/dc/elements/1.1/"
   xmlns:cc="http://creativecommons.org/ns#"
   xmlns:rdf="http://www.w3.org/1999/02/22-rdf-syntax-ns#"
   xmlns:svg="http://www.w3.org/2000/svg"
   xmlns="http://www.w3.org/2000/svg"
   viewBox="0 0 300.00247 258.83625"
   version="1.1"
   id="svg8612"
   height="258.83624"
   width="300.00247">
  <defs
     id="defs8614" />
  <metadata
     id="metadata8617">
    <rdf:RDF>
      <cc:Work
         rdf:about="">
        <dc:format>image/svg+xml</dc:format>
        <dc:type
           rdf:resource="http://purl.org/dc/dcmitype/StillImage" />
        <dc:title></dc:title>
      </cc:Work>
    </rdf:RDF>
  </metadata>
  <g
     transform="translate(1004.2857,-411.5155)"
     id="layer1">
    <path
       id="path8601"
       d="m -982.85155,669.81906 c 0,-0.9743 5.68582,-6.6495 10.74004,-10.7201 0.39233,-0.3159 1.67186,-1.3895 2.8434,-2.3854 1.17155,-0.9961 3.34227,-2.7024 4.82383,-3.7917 1.48156,-1.0895 4.47514,-3.305 6.65241,-4.9234 10.05607,-7.4753 13.61901,-10.0992 14.70807,-10.8317 0.64669,-0.435 2.41864,-1.6663 3.93765,-2.7363 1.51903,-1.07 3.09193,-2.1262 3.49533,-2.3469 0.40341,-0.2207 0.6896,-0.4427 0.63596,-0.4934 -0.0537,-0.051 -2.31984,0.1503 -5.03604,0.4468 -10.78716,1.1776 -20.69813,0.6212 -27.83539,-1.5624 -6.3866,-1.9541 -13.40112,-5.6769 -18.22195,-9.6708 -2.74756,-2.2763 -3.73694,-3.1735 -5.73908,-5.2048 -5.80413,-5.8883 -9.38368,-13.1671 -11.86108,-24.1188 -0.769,-3.3995 -0.7705,-16.20637 0,-19.75419 1.4174,-6.546 2.3606,-9.38962 4.96943,-14.98264 0.9623,-2.06304 1.83336,-3.83469 1.93566,-3.937 0.51731,-0.5173 0.0686,0.96604 -0.84451,2.79177 -0.56681,1.13329 -1.52316,3.34005 -2.12524,4.90392 -0.60204,1.56387 -1.21464,2.99048 -1.36134,3.17024 -0.1466,0.17977 -0.1895,0.40394 -0.095,0.49815 0.094,0.0942 0.017,0.45926 -0.1711,0.8112 -0.3891,0.72694 -1.072,3.58892 -1.6451,6.89401 -0.3251,1.87521 -0.9567,9.91724 -0.825,10.50514 0.022,0.099 0.1173,1.3108 0.2117,2.6938 0.3956,5.7975 0.5952,6.8439 2.4498,12.8407 2.30847,7.4643 5.37893,12.5264 10.88209,17.9405 4.6965,4.6206 6.6512,6.1583 11.51869,9.062 1.30233,0.7769 6.45589,3.2682 7.33298,3.5449 0.41154,0.1298 1.48904,0.5163 2.39444,0.8588 1.98808,0.752 7.55087,1.9965 10.02414,2.2426 6.60041,0.6568 15.44005,0.4449 22.45048,-0.5382 3.0747,-0.4312 3.13383,-0.4575 6.66238,-2.9771 2.55298,-1.823 4.73084,-3.242 12.48498,-8.1346 2.08714,-1.317 5.46083,-3.49 7.49708,-4.829 2.03625,-1.339 4.28208,-2.7659 4.99071,-3.1708 0.70863,-0.405 3.30873,-2.0077 5.778,-3.5614 2.46927,-1.5538 4.82629,-2.988 5.23784,-3.1874 0.41154,-0.1992 1.55639,-0.8724 2.54409,-1.4958 0.98771,-0.6235 2.73865,-1.654 3.89097,-2.29 1.15233,-0.6361 3.37467,-1.9218 4.93854,-2.8572 1.56387,-0.9353 4.25761,-2.4842 5.9861,-3.4421 1.72849,-0.9578 3.34474,-1.9103 3.59166,-2.1168 0.24693,-0.2064 0.92037,-0.6422 1.49653,-0.9684 0.57616,-0.3261 2.999,-1.6969 5.38408,-3.046 2.38508,-1.3491 4.47274,-2.5595 4.63924,-2.6898 0.16649,-0.1303 1.78428,-1.0137 3.59508,-1.9633 1.81079,-0.9495 3.82666,-2.0113 4.47972,-2.3595 1.23418,-0.6579 2.18385,-2.2791 4.57882,-7.81625 4.26518,-9.86118 4.63592,-20.20625 1.06194,-29.63121 -1.70295,-4.49085 -5.16047,-9.61878 -8.82471,-13.08812 l -1.49472,-1.41522 -1.16065,0.59213 c -2.94044,1.50009 -6.56587,0.16462 -9.1221,-3.36025 l -1.02128,-1.40827 -1.19327,1.18141 c -1.9848,1.96506 -6.03502,3.47014 -8.65963,3.21795 -1.73569,-0.16678 -5.00574,-1.63277 -6.11388,-2.7409 -0.96654,-0.96656 -2.19772,-3.03716 -2.47454,-4.16172 -0.18889,-0.76736 -0.28677,-0.81579 -1.29252,-0.63945 -1.61256,0.28273 -6.87237,2.0631 -9.29401,3.1459 l -2.1176,0.94686 0.22319,2.57942 c 0.31329,3.62079 0.24438,15.04773 -0.0944,15.65327 -0.18172,0.32479 -0.2889,-2.05522 -0.3033,-6.73473 -0.0271,-8.80876 -0.35583,-11.7051 -1.17759,-10.37545 -0.17861,0.28898 -2.33895,1.49224 -2.67918,1.49224 -0.59034,0 0.085,-0.73793 1.50891,-1.64881 l 1.67049,-1.0686 -0.18317,-1.2602 c -0.50154,-3.4509 -1.45563,-8.24514 -1.80214,-9.05573 -0.32387,-0.75762 -0.32013,-1.00656 0.0221,-1.47468 0.54624,-0.74702 0.64869,-0.58445 0.74931,1.18894 0.0467,0.82309 0.31497,2.30465 0.59617,3.29236 0.28119,0.98771 0.6746,2.90176 0.87423,4.25344 l 0.36298,2.45761 1.15449,-0.58897 c 0.63498,-0.32394 1.5974,-1.02581 2.13873,-1.5597 0.54132,-0.53389 2.06013,-1.87347 3.37513,-2.97683 1.315,-1.10337 2.99699,-2.70866 3.73777,-3.56731 0.74078,-0.85865 1.69958,-1.90886 2.13066,-2.3338 0.43107,-0.42495 1.40755,-2.12803 2.16996,-3.78464 2.01556,-4.37957 1.86841,-6.53928 -0.61381,-9.00879 -2.31641,-2.30457 -7.21744,-3.8992 -11.03581,-3.59071 -3.91109,0.31599 -8.38744,2.10335 -10.29819,4.11197 -0.61397,0.64544 -1.20452,1.17351 -1.31232,1.17351 -1.0263,0 1.84571,-2.98502 3.7055,-3.85133 3.7768,-1.75924 7.46651,-2.49149 10.58278,-2.10019 4.63743,0.58229 7.96801,2.26298 9.88247,4.98694 0.68067,0.96847 0.94381,1.75025 1.10131,3.27193 0.22719,2.19507 0.16014,2.42722 -1.8584,6.43359 -0.63897,1.26824 -1.16177,2.64001 -1.16177,3.04839 0,0.4084 -0.14405,1.12138 -0.3201,1.58442 -0.18617,0.48971 -0.2383,1.54645 -0.1246,2.52613 l 0.19548,1.68425 1.247,-0.29039 c 2.18819,-0.50958 11.86904,0.0532 14.32529,0.8328 0.51559,0.16364 0.5703,0.0921 0.39207,-0.51281 -0.11392,-0.38664 -0.4196,-0.83767 -0.67927,-1.00229 -2.17535,-1.37899 -3.99651,-3.97315 -4.43678,-6.32001 -0.15699,-0.83681 -0.11223,-1.05912 0.19275,-0.95746 0.21847,0.0728 0.44874,0.58365 0.51172,1.13516 0.13359,1.16988 1.8011,3.90789 2.81065,4.61499 0.8365,0.58591 1.01712,0.24686 0.58012,-1.08899 -0.43799,-1.33885 -0.49601,-6.56941 -0.0808,-7.28475 0.31203,-0.5376 0.33411,-0.52802 0.34262,0.1487 0.0157,1.24385 0.40129,0.39707 0.43041,-0.94509 0.0265,-1.22416 0.0736,-1.28611 1.18703,-1.56105 1.02907,-0.25412 1.22059,-0.2107 1.70408,0.3864 1.30185,1.60771 1.88032,3.91946 1.9034,7.6067 0.0156,2.47792 0.12572,3.51663 0.37312,3.51684 0.59054,6e-4 2.7371,-2.3933 3.45785,-3.85613 0.57561,-1.16823 0.67719,-1.83831 0.65828,-4.3422 -0.0226,-2.99785 0.21991,-3.10814 0.60844,-0.27664 0.45947,3.34852 -1.42027,7.44416 -4.02687,8.77395 -1.35928,0.69345 -1.38142,0.7224 -1.65041,2.1562 l -0.20701,1.10346 1.9536,0.8858 c 2.053,0.93087 5.8884,3.2886 6.98057,4.29115 l 0.6429,0.59014 0.97046,-1.41051 0.97045,-1.4105 -0.47655,-1.53121 c -1.27639,-4.10111 -1.75927,-12.1562 -0.76643,-12.78512 2.03693,-1.2903 3.36504,1.49939 3.31256,6.95802 -0.0228,2.36436 -0.19445,3.69376 -0.66541,5.15156 l -0.63477,1.96484 0.91056,1.32347 c 0.53606,0.77913 1.23468,1.40481 1.69857,1.52124 1.11776,0.28054 2.60338,-0.29207 3.56875,-1.37553 2.74736,-3.08345 5.72056,-13.82222 4.94872,-17.87409 -0.37841,-1.98657 -0.38416,-2.42842 -0.0316,-2.42842 0.26228,0 0.44086,0.56645 0.79309,2.51557 0.23215,1.28466 0.64439,1.94951 3.56948,5.75683 0.79172,1.03049 2.92701,2.34167 4.30715,2.6448 0.95979,0.2108 1.00351,0.14575 1.37428,-2.04525 0.31671,-1.87139 1.99017,-5.32697 3.59816,-7.42997 1.38028,-1.80516 2.4197,-2.69761 3.85027,-3.30587 0.40315,-0.1714 0.50639,-0.4232 0.37215,-0.90766 -0.10217,-0.36875 -0.38436,-3.22953 -0.62707,-6.35727 -0.24272,-3.12774 -0.50721,-6.09086 -0.58775,-6.58471 -0.0805,-0.49386 -0.35883,-2.98557 -0.61843,-5.53715 -0.2596,-2.55158 -0.57502,-5.56177 -0.70094,-6.68932 -0.23954,-2.14507 -0.13114,-3.78636 0.25007,-3.78636 0.1233,0 0.1906,0.3059 0.14956,0.67978 -0.041,0.37387 0.0435,1.4177 0.18786,2.31961 0.46808,2.92433 1.18653,9.92512 1.90369,18.55058 0.59559,7.16313 0.70829,7.8655 1.22998,7.66532 0.25503,-0.0979 0.42706,0.0203 0.42706,0.29334 0,0.25147 -0.10101,0.39479 -0.22447,0.31848 -0.53002,-0.3276 0.1341,5.04721 1.08757,8.80171 l 0.52775,2.07813 0.61405,-0.67415 c 1.08199,-1.1879 1.2875,-1.92634 1.28579,-4.62027 -0.002,-3.59653 -0.32256,-4.60673 -1.71675,-5.41482 -0.61873,-0.35863 -0.91924,-0.65514 -0.66779,-0.65892 0.25146,-0.004 0.76524,0.2089 1.14175,0.47261 1.13328,0.79378 1.15419,1.40183 -0.26863,-7.81247 -0.83832,-5.42901 -0.79354,-5.17781 -1.30695,-7.33298 -0.25491,-1.07001 -0.46136,-2.21486 -0.45879,-2.54409 0.009,-1.09406 0.53034,0.19745 0.85499,2.11625 0.16515,0.9761 0.52023,2.78487 0.78907,4.0195 0.64333,2.9546 0.59676,2.70308 1.13618,6.13576 1.36066,8.65884 1.48978,10.26964 1.12574,14.04391 -0.19179,1.98831 -0.49166,4.44482 -0.6664,5.45891 -0.29576,1.71649 -0.27049,1.90764 0.36602,2.76857 1.32965,1.79844 2.19136,0.89234 2.67885,-2.81683 0.44748,-3.40452 0.72062,-3.73654 0.49223,-0.59832 -0.23285,3.19951 -0.66689,4.58955 -1.56021,4.99657 -0.61046,0.27814 -0.88063,0.20537 -1.77771,-0.47886 -1.04365,-0.79603 -1.19576,-0.72958 -1.0777,0.47085 0.027,0.27443 -0.22687,0.58656 -0.56414,0.69361 -0.33728,0.10704 -0.61323,0.33452 -0.61323,0.50551 0,0.81111 -3.41231,2.83268 -5.24547,3.10757 -2.1957,0.32927 -4.71973,-1.4541 -5.52915,-3.90667 -0.19272,-0.58393 -0.43999,-1.96223 -0.54951,-3.06288 l -0.19912,-2.0012 -1.28851,-0.37249 c -2.41579,-0.69838 -3.99405,-2.08749 -6.21797,-5.47277 l -0.87406,-1.33048 -0.075,1.03118 c -0.37586,5.1632 -3.11973,13.3418 -5.13815,15.31518 -1.9369,1.89367 -4.49713,2.09798 -5.86842,0.46829 -0.4075,-0.4843 -0.74091,-1.00488 -0.74091,-1.15687 0,-0.47174 -0.60704,-0.30335 -0.80962,0.22458 -0.10572,0.2755 -0.45284,0.76154 -0.77137,1.08007 -0.57267,0.57267 -0.56119,0.59796 1.02471,2.25849 0.88211,0.92364 1.68564,1.75081 1.7856,1.83816 0.49026,0.42838 3.22077,3.90979 3.99791,5.09734 2.13194,3.25786 4.02719,8.14713 4.81489,12.42118 1.72586,9.36452 0.16872,18.39133 -4.87354,28.25206 -0.53807,1.0523 -0.97831,1.9769 -0.97831,2.0547 0,0.078 0.34427,-0.084 0.76504,-0.3597 0.42076,-0.2757 3.01349,-1.6526 5.76162,-3.0598 2.74813,-1.4073 5.53534,-2.86731 6.19381,-3.24454 0.65847,-0.37723 2.34206,-1.28083 3.74131,-2.00799 1.39925,-0.72718 2.81347,-1.47761 3.14271,-1.66766 0.32923,-0.19005 1.74345,-0.87351 3.1427,-1.51881 1.39925,-0.64529 5.3831,-2.56842 8.85298,-4.27362 3.46989,-1.7052 7.51051,-3.62838 8.97916,-4.27376 1.46865,-0.64538 3.3437,-1.47391 4.16679,-1.84119 0.82309,-0.36728 2.23731,-0.95844 3.14271,-1.3137 0.9054,-0.35526 2.05024,-0.83259 2.5441,-1.06074 0.76277,-0.35239 7.20155,-3.03541 11.82255,-4.92642 0.74078,-0.30315 2.41693,-0.99792 3.72478,-1.54393 1.30785,-0.54601 2.52004,-1.01573 2.69375,-1.04383 0.17371,-0.0281 1.86474,-0.66575 3.75785,-1.41702 4.13134,-1.63949 8.19744,-3.14329 9.42811,-3.48687 0.91126,-0.25441 8.039,-2.6277 10.77499,-3.5877 0.82309,-0.28881 2.16996,-0.73433 2.99305,-0.99003 0.82309,-0.25572 2.8434,-0.93468 4.48958,-1.50879 1.64618,-0.57413 3.5318,-1.14085 4.19027,-1.2594 0.65847,-0.11854 1.53394,-0.39528 1.94548,-0.61498 0.41155,-0.2197 1.55638,-0.61128 2.54409,-0.87019 0.98771,-0.2589 2.19989,-0.58971 2.69375,-0.73512 0.49385,-0.14543 1.70603,-0.48538 2.69374,-0.75546 0.98771,-0.27008 2.87333,-0.8095 4.19027,-1.19871 1.31695,-0.3892 3.4046,-0.91542 4.63924,-1.16938 1.23463,-0.25396 2.51416,-0.51785 2.84339,-0.58642 0.32924,-0.0685 -1.82576,-0.1405 -4.78888,-0.15984 -4.93352,-0.0322 -14.67273,-0.41095 -20.20309,-0.78566 -8.22171,-0.55707 -10.8082,-0.81768 -14.66595,-1.47772 -2.38696,-0.40838 -5.28274,-0.9977 -6.43507,-1.30959 -1.15232,-0.31188 -2.90326,-0.7437 -3.89096,-0.9596 -3.87947,-0.848 -8.49878,-2.83998 -13.26455,-5.72004 -1.50381,-0.90878 -2.30042,-1.18065 -3.89097,-1.32791 -1.22731,-0.11362 -2.31333,-0.40513 -2.81099,-0.75452 -1.11269,-0.78118 -1.43381,-0.71593 -1.43381,0.29133 0,2.23297 -2.86543,6.65707 -5.23719,8.086 -2.43454,1.46674 -5.65504,1.94807 -7.30957,1.09249 -1.57767,-0.81585 -3.41921,-3.22498 -4.16913,-5.45409 -0.59643,-1.77289 -0.68722,-2.55153 -0.59861,-5.13407 l 0.10444,-3.04422 -0.94122,-0.17628 c -1.25065,-0.23422 -2.18269,0.3084 -2.40053,1.39755 -0.18569,0.92844 -0.5518,1.3555 -0.80743,0.94187 -0.28164,-0.45569 0.94742,-2.70112 1.59013,-2.90511 0.35135,-0.11151 1.17188,-0.11269 1.82341,-0.003 1.12955,0.19083 1.1846,0.16367 1.1846,-0.58439 0,-1.01917 1.32972,-3.63167 2.31167,-4.5417 0.97162,-0.90046 3.32991,-1.01109 4.02331,-0.18872 1.09626,1.30017 1.30342,4.57358 0.37874,5.98481 -0.80965,1.23569 -1.68058,1.42803 -4.09912,0.90528 -1.19109,-0.25744 -2.23298,-0.40246 -2.31529,-0.32224 -0.0823,0.0802 -0.1432,1.54087 -0.1353,3.2459 0.0115,2.48668 0.11527,3.21159 0.52443,3.66371 0.28055,0.31001 0.42375,0.64999 0.31821,0.75552 -0.34819,0.34819 1.81715,3.53093 2.82761,4.15617 1.76719,1.0935 2.85505,1.16486 5.28791,0.34688 1.83189,-0.61592 2.45482,-1.00976 3.73033,-2.35842 1.49308,-1.57871 3.01462,-4.39955 3.45529,-6.40591 0.18238,-0.83036 0.0811,-1.11763 -0.6771,-1.91984 -0.82474,-0.87264 -2.41163,-3.89468 -2.90583,-5.53378 -0.11599,-0.38471 -0.12465,-1.15916 -0.0192,-1.72101 0.16536,-0.88147 0.30974,-1.02155 1.05297,-1.02155 0.91217,0 2.70321,1.49086 2.70321,2.25016 0,0.6342 0.57176,0.83545 1.1355,0.39969 0.46722,-0.36115 0.46651,-0.34267 -0.008,0.2171 -0.96954,1.14276 0.008,2.72756 3.74405,6.07009 1.69187,1.51365 1.74639,1.53705 2.57855,1.10673 0.91863,-0.47505 1.8299,-2.07368 1.82693,-3.20498 -8.9e-4,-0.38666 -0.19033,-1.06431 -0.42071,-1.50589 -0.3302,-0.63291 -0.33644,-0.77123 -0.0295,-0.65343 0.59351,0.22775 1.02349,2.34288 0.7373,3.62689 -0.15123,0.67851 -0.61466,1.42845 -1.17282,1.89789 l -0.92279,0.77611 2.32688,1.3625 c 4.74865,2.78055 9.38506,4.71711 12.35359,5.15991 0.74079,0.11051 1.88563,0.37755 2.5441,0.59345 7.24119,2.37416 22.13386,3.59355 43.5489,3.56571 9.35755,-0.0122 13.47519,-0.19263 14.15988,-0.6206 0.43476,-0.27174 0.42327,-0.26969 4.7544,-0.84682 2.34575,-0.31257 3.67836,-0.37058 4.04064,-0.17592 0.2973,0.15976 0.79875,0.37207 1.11437,0.47179 0.4345,0.13728 0.48975,0.2654 0.2275,0.52763 -0.19048,0.19048 -0.51603,0.37187 -0.72348,0.40309 -0.20742,0.0312 -1.31996,0.20064 -2.47229,0.37652 -1.15232,0.17588 -4.11545,0.39697 -6.58471,0.49133 -2.46927,0.0944 -5.09567,0.24975 -5.83645,0.34532 -0.74078,0.0956 -1.73716,0.22354 -2.21416,0.28437 -0.47701,0.0609 -1.31216,0.25743 -1.85589,0.43689 -0.54372,0.17944 -2.17375,0.5729 -3.62229,0.87434 -2.87872,0.59907 -16.72182,4.53014 -18.36973,5.21652 -0.56378,0.23482 -1.42912,0.49487 -1.92297,0.57788 -0.49385,0.083 -2.91823,0.84599 -5.38749,1.69553 -6.25102,2.15062 -9.8109,3.29516 -10.25527,3.29719 -0.208,8.9e-4 -0.61207,0.13758 -0.89791,0.30361 -0.59759,0.34711 -4.50536,1.70859 -6.05687,2.11021 -0.57616,0.14916 -2.52913,0.89127 -4.33993,1.64915 -1.81079,0.75789 -3.69642,1.48082 -4.19027,1.60653 -0.49385,0.1257 -3.12026,1.1364 -5.83645,2.24599 -7.001,2.85998 -7.36281,3.00988 -10.02673,4.15434 -1.31694,0.56577 -4.07803,1.7266 -6.13575,2.57963 -7.87557,3.26481 -10.73745,4.55831 -20.02577,9.05113 -6.759,3.26938 -13.4705,6.61678 -15.29224,7.62709 -1.53397,0.85072 -10.91583,5.76209 -13.61436,7.12699 -1.37743,0.6968 -2.01182,1.2524 -2.74321,2.4026 -4.42154,6.9533 -13.43078,16.2428 -21.79154,22.4693 -3.98774,2.9698 -11.03611,7.4447 -15.16901,9.6305 -0.92838,0.4911 -2.00217,1.113 -2.38621,1.3819 -0.38404,0.269 -0.87032,0.4891 -1.08061,0.4891 -0.89154,0 -0.23619,-0.5638 1.93725,-1.6665 1.27579,-0.6473 2.38696,-1.2588 2.46927,-1.359 0.0823,-0.1002 1.02512,-0.6537 2.09514,-1.2301 2.02168,-1.089 6.3213,-3.8674 10.157,-6.5633 4.79451,-3.3699 12.40259,-10.1998 16.80094,-15.0826 1.04131,-1.156 4.51549,-5.6067 5.91716,-7.5803 0.70334,-0.9904 0.69189,-1.5942 -0.0192,-1.0091 -0.20975,0.1726 -1.59355,0.9572 -3.07511,1.7437 -1.48156,0.7864 -3.29254,1.8092 -4.02439,2.2729 -0.73186,0.4637 -1.43443,0.8431 -1.56126,0.8431 -0.12684,0 -1.06416,0.5387 -2.08294,1.1972 -1.01878,0.6585 -1.97159,1.1972 -2.11735,1.1972 -0.14576,0 -0.62996,0.248 -1.076,0.5512 -1.3296,0.9038 -9.48547,5.7101 -11.0417,6.5069 -0.79319,0.4061 -2.11561,1.1582 -2.9387,1.6714 -1.87139,1.1665 -6.99216,4.1454 -10.32602,6.0068 -0.57616,0.3217 -2.36897,1.4139 -3.98401,2.4272 -1.61505,1.0133 -3.36599,2.0952 -3.89097,2.4043 -0.52499,0.3091 -1.62796,0.9999 -2.45105,1.535 -0.82309,0.5352 -3.38214,2.1465 -5.68679,3.5808 -2.30465,1.4343 -5.90939,3.7066 -8.01051,5.0497 -2.10113,1.3431 -5.603,3.5794 -7.78193,4.9697 -7.3246,4.6731 -8.39301,5.6354 -5.34331,4.8126 0.59526,-0.1606 2.49651,-0.6427 4.225,-1.0713 5.60584,-1.39 14.15839,-4.1672 17.77188,-5.7708 0.80285,-0.3563 1.57854,-0.6478 1.72376,-0.6478 0.30839,0 5.37783,-2.1661 8.69425,-3.7148 2.30447,-1.0762 3.58853,-1.425 2.48066,-0.6738 -2.88151,1.9537 -21.24398,9.2134 -25.1334,9.9365 -0.32924,0.061 -1.16356,0.3163 -1.85406,0.5669 -0.69048,0.2505 -1.70064,0.533 -2.24479,0.6278 -0.54413,0.095 -1.66278,0.3589 -2.48587,0.5869 -1.37128,0.3798 -3.43631,0.8112 -5.66339,1.1832 -0.82385,0.1377 -2.65162,1.2857 -7.98144,5.0136 -4.61017,3.2245 -6.75464,4.7651 -8.65341,6.2168 -1.07002,0.8181 -5.04329,3.7775 -8.8295,6.5764 -3.78621,2.7989 -7.01871,5.1942 -7.18333,5.3228 -6.63879,5.1883 -11.9737,9.7899 -15.36549,13.2536 l -2.19823,2.2447 0.99992,0.1539 c 1.23655,0.1903 2.53256,-0.2337 6.48256,-2.1206 1.6985,-0.8114 3.1923,-1.4753 3.31954,-1.4753 0.24545,0 8.43039,-4.1347 13.19675,-6.6663 1.56387,-0.8307 3.51684,-1.8414 4.33993,-2.246 0.82309,-0.4045 1.83324,-0.9727 2.24479,-1.2625 0.41154,-0.2899 2.57021,-1.4664 4.79704,-2.6146 2.22683,-1.1481 4.31449,-2.2375 4.63924,-2.4208 0.91228,-0.5148 31.70849,-15.6988 34.41194,-16.9667 1.31694,-0.6175 4.41474,-2.097 6.88401,-3.2875 7.44053,-3.5876 7.77634,-3.7436 7.93159,-3.6866 0.0823,0.03 0.75971,-0.3026 1.50533,-0.7396 0.74563,-0.4369 2.29454,-1.1875 3.44201,-1.6679 1.14748,-0.4804 3.26259,-1.4281 4.70025,-2.1061 1.43766,-0.6779 3.48348,-1.5599 4.54625,-1.9599 1.06278,-0.4 2.24354,-0.9001 2.62392,-1.1111 0.38038,-0.2111 0.75894,-0.3916 0.84125,-0.401 0.0823,-0.01 2.16996,-0.8686 4.63923,-1.909 2.46926,-1.0405 5.63442,-2.3681 7.03367,-2.9503 1.39925,-0.5821 3.09217,-1.3026 3.76204,-1.6012 0.66986,-0.2986 1.74736,-0.7405 2.39444,-0.9823 0.64707,-0.2417 2.65807,-1.0027 4.46885,-1.6911 1.8108,-0.6885 3.69642,-1.3646 4.19027,-1.5025 0.8917,-0.2488 4.91542,-1.6948 6.52938,-2.3465 0.46341,-0.1871 0.95174,-0.3401 1.08516,-0.3401 0.13341,0 1.03378,-0.3513 2.00082,-0.7806 1.853,-0.8227 4.87928,-1.8549 9.83948,-3.3561 5.15855,-1.5612 6.19208,-1.8494 6.63121,-1.8494 0.2347,0 0.80301,-0.2783 1.26293,-0.6183 0.61561,-0.4551 1.18487,-0.5933 2.15784,-0.5238 1.62502,0.1162 1.58455,0.5575 -0.10154,1.1077 -1.31432,0.4289 -5.48704,2.3698 -13.24279,6.1597 -2.46927,1.2067 -6.37521,3.0969 -8.67986,4.2006 -4.78368,2.2908 -11.45239,5.6115 -14.96524,7.4519 -1.31695,0.69 -3.67398,1.896 -5.23785,2.6801 -1.56387,0.784 -3.24747,1.6336 -3.74132,1.8879 -0.49385,0.2543 -2.51416,1.2823 -4.48958,2.2846 -1.97541,1.0022 -3.99572,2.1181 -4.48958,2.4797 -0.49385,0.3617 -2.85088,1.6638 -5.23784,2.8935 -7.19176,3.7053 -10.2716,5.3451 -11.37359,6.0556 -0.57617,0.3714 -2.59648,1.6323 -4.48958,2.802 -3.80718,2.3521 -8.73261,5.9764 -8.91304,6.5583 -0.0721,0.2327 0.1763,0.3742 0.6572,0.3742 0.9739,0 1.02195,0.4474 0.0567,0.5273 -0.39411,0.033 -0.87504,-0.1316 -1.0687,-0.365 -0.28158,-0.3393 -0.15298,-0.638 0.64173,-1.4908 1.91199,-2.0517 10.86685,-7.9735 16.55092,-10.9452 0.98395,-0.5144 1.92676,-1.0466 2.09514,-1.1826 0.16838,-0.1361 2.12443,-1.1849 4.34677,-2.3308 4.25185,-2.1925 5.52148,-2.8873 7.38828,-4.0437 1.00186,-0.6205 4.20447,-2.3233 5.48184,-2.9145 0.71089,-0.3291 1.37467,-0.6705 6.13901,-3.1574 8.17322,-4.2664 28.65821,-14.4111 34.67943,-17.1742 1.13213,-0.5195 1.99152,-1.0115 1.90977,-1.0932 -0.0817,-0.082 -1.07539,0.1452 -2.20806,0.5042 -5.53725,1.7557 -11.19515,3.7088 -12.59075,4.3464 -0.8537,0.3899 -1.69283,0.7091 -1.86473,0.7091 -0.17192,0 -1.15703,0.3296 -2.18915,0.7326 -1.03212,0.4029 -3.98705,1.4731 -6.56651,2.3782 -3.88941,1.3648 -9.69773,3.6766 -15.21387,6.0556 -0.57616,0.2485 -1.31694,0.5593 -1.64618,0.6908 -2.61237,1.0431 -5.68057,2.3274 -7.18332,3.007 -0.98771,0.4467 -2.40193,1.0509 -3.14271,1.3427 -0.74078,0.2919 -1.61625,0.6394 -1.94548,0.7724 -0.32924,0.1329 -2.04396,0.925 -3.81048,1.76 -1.76652,0.8351 -3.28214,1.5183 -3.36805,1.5183 -0.21078,0 -7.77042,3.5387 -14.31669,6.7018 -2.93301,1.4172 -5.40986,2.5767 -5.50411,2.5767 -0.17032,0 -14.34882,7.0067 -31.81414,15.7219 -5.02085,2.5054 -11.28381,5.7589 -13.9177,7.2299 -2.63389,1.4711 -5.7317,3.1595 -6.88402,3.7519 -1.15233,0.5925 -3.17264,1.6431 -4.48958,2.3348 -4.01953,2.1111 -12.46491,5.9885 -14.36665,6.596 -2.37692,0.7593 -4.63923,0.7853 -4.63923,0.054 z m 123.45529,-140.13874 c 0.38979,-0.3235 0.29815,-0.4859 -0.66797,-1.18365 -1.45794,-1.05295 -5.2879,-3.30531 -6.78614,-3.99087 -1.03816,-0.47503 -1.22891,-0.48637 -1.61909,-0.0962 -0.97564,0.97563 3.11074,5.36003 5.4522,5.84983 1.12823,0.236 2.99942,-0.0633 3.621,-0.57914 z m -16.90263,-0.62871 c 2.02067,-0.43816 3.98549,-1.51605 5.43712,-2.98275 l 1.09722,-1.10861 -0.55978,-0.92048 c -0.39941,-0.65678 -0.92811,-1.01569 -1.84547,-1.25282 -0.70714,-0.18277 -1.48773,-0.38443 -1.73465,-0.44813 -0.24693,-0.0636 -2.2462,-0.26321 -4.44283,-0.44341 -4.01315,-0.32919 -8.5018,-0.0111 -8.89843,0.63073 -0.21843,0.35343 1.18072,2.86701 2.26061,4.06122 1.29985,1.43744 5.13596,3.18585 6.44142,2.93585 0.32923,-0.0631 1.33939,-0.27527 2.24479,-0.4716 z m 167.46125,-0.57942 c 0.75737,-0.19625 0.67797,-0.22451 -0.50728,-0.18062 -0.77286,0.0286 -1.50241,0.14924 -1.62124,0.26806 -0.27055,0.27056 0.93855,0.22088 2.12852,-0.0875 z m -117.41542,-2.4434 c 1.03504,-0.65431 1.69956,-1.41059 2.50505,-2.85092 l 1.0963,-1.96038 -0.54978,-1.68323 c -0.67232,-2.05842 -0.62177,-1.98303 -1.08588,-1.61938 -0.69678,0.54595 -6.03959,1.54961 -7.93546,1.49069 -1.65612,-0.0515 -1.84847,10e-4 -1.70083,0.46576 0.0916,0.28808 0.0211,0.52379 -0.15656,0.52379 -0.90536,0 0.76452,5.04603 1.92052,5.80347 1.91535,1.25499 3.7356,1.20266 5.90664,-0.1698 z m -28.92159,-3.2979 c 0.49404,-2.30328 0.54354,-6.69106 0.0956,-8.4702 -0.34233,-1.35953 -1.46563,-2.80056 -1.46563,-1.8802 0,0.25229 -0.20456,0.62847 -0.45457,0.83596 -0.36227,0.30066 -0.42525,0.87218 -0.31016,2.81468 0.0794,1.34059 0.27916,3.10661 0.44386,3.92449 0.1647,0.81789 0.35754,1.89113 0.4285,2.38498 0.20167,1.40337 0.54831,2.58654 0.7103,2.42454 0.0811,-0.0811 0.32957,-0.9965 0.55216,-2.03425 z m -40.1391,0.96213 c 0.52777,-0.32618 2.29461,-0.91382 3.92629,-1.30587 l 2.96671,-0.7128 0.19336,-2.71299 c 0.10635,-1.49214 0.28266,-2.85747 0.39179,-3.03405 0.10914,-0.17659 0.0558,-0.32108 -0.11854,-0.32108 -0.17433,0 -0.31696,0.1353 -0.31696,0.30066 0,0.4054 -4.53547,4.93369 -6.58472,6.57427 -2.30592,1.84609 -2.26451,1.80492 -1.81619,1.80492 0.21926,0 0.83048,-0.26687 1.35826,-0.59306 z m 26.19818,0.14411 c 0,-0.24693 -0.13469,-0.44896 -0.2993,-0.44896 -0.16462,0 -0.29931,0.20203 -0.29931,0.44896 0,0.24692 0.13469,0.44895 0.29931,0.44895 0.16461,0 0.2993,-0.20203 0.2993,-0.44895 z m -0.053,-2.66272 c -1.37988,-0.32015 -1.65288,-0.13 -1.20974,0.84259 0.47,1.03153 1.62098,1.12973 2.03891,0.17395 0.30981,-0.70853 0.26578,-0.76251 -0.82917,-1.01654 z m 1.41229,-1.09867 c 0.10857,-0.17566 0.25957,-0.88277 0.33557,-1.57135 0.41449,-3.75558 -0.34422,-7.79428 -1.7611,-9.37455 l -0.57379,-0.63996 -0.72679,0.67358 c -0.39973,0.37046 -0.81131,1.09617 -0.91461,1.61269 -0.10331,0.51652 -0.30568,0.93912 -0.44971,0.93912 -0.61579,0 0.0879,7.25147 0.81836,8.43343 0.22433,0.36298 3.04147,0.30016 3.27207,-0.0729 z m 45.79369,-1.8862 c 0.10405,-0.5546 0.14382,-1.28629 0.0884,-1.62598 -0.0876,-0.53688 -0.17045,-0.56616 -0.63372,-0.22399 -0.42649,0.31499 -0.49357,0.63978 -0.33588,1.62598 0.2388,1.49334 0.62468,1.59143 0.8812,0.22399 z m -6.40298,-0.0292 c 1.38453,-0.24143 2.93473,-0.64721 3.44489,-0.90171 0.92194,-0.45992 0.92514,-0.46981 0.52623,-1.62764 -0.22073,-0.64071 -0.43205,-1.68282 -0.46961,-2.31582 -0.0375,-0.63299 -0.17409,-1.35294 -0.30344,-1.59986 -0.20073,-0.3832 -1.08094,-4.47957 -1.20589,-5.61198 -0.0765,-0.69321 -0.77681,-0.38158 -2.15698,0.95979 -2.53892,2.46755 -4.75807,6.74896 -5.3977,10.41382 l -0.19589,1.1224 1.62053,0 c 0.8913,0 2.75334,-0.19756 4.13786,-0.439 z m 35.54782,-1.35741 c -0.72701,-0.6588 -1.75958,-1.69139 -2.29459,-2.29466 l -0.97274,-1.09686 0,1.49859 c 0,1.38934 0.0816,1.55662 1.11884,2.29465 0.7546,0.53691 1.5016,0.79608 2.29459,0.79608 l 1.17575,0 z m -4.1584,-5.30069 c -0.37687,-1.70914 -1.75145,-3.49432 -2.4764,-3.21613 -0.95818,0.36769 0.40582,5.00779 1.96106,6.67117 l 0.65815,0.70393 0.10058,-1.29952 c 0.0553,-0.71473 -0.0542,-2.00148 -0.24339,-2.85945 z m -10.31927,1.87285 c 0.88353,-0.88353 0.97955,-2.53216 0.2532,-4.34746 -0.44941,-1.12322 -0.73211,-1.35966 -1.45485,-1.21685 -0.15958,0.0315 -0.66032,0.0678 -1.11276,0.0807 -1.13417,0.0322 -1.96725,1.02668 -2.81373,3.3587 -0.66752,1.83899 -0.68166,1.9933 -0.19679,2.1462 0.28734,0.0906 0.79181,0.27907 1.12105,0.41879 0.32923,0.13973 1.2445,0.26316 2.03392,0.2743 1.14123,0.0161 1.58582,-0.13026 2.16996,-0.71439 z m -121.67353,94.12547 c -0.32505,-0.325 -0.67584,-0.9648 -0.77951,-1.4217 -0.10369,-0.4568 -0.36671,-1.5715 -0.58451,-2.4768 -0.43263,-1.7987 -0.9856,-5.3603 -1.16173,-7.4827 -0.18649,-2.2473 -0.79132,-7.8832 -0.93152,-8.6798 -0.1533,-0.8713 -0.91832,-7.0307 -1.35685,-10.9247 -0.16685,-1.48152 -0.42898,-3.56917 -0.58253,-4.63919 -0.15353,-1.07002 -0.42849,-3.42704 -0.61102,-5.23784 -0.18252,-1.8108 -0.39804,-3.89845 -0.47893,-4.63923 -0.0809,-0.74078 -0.26317,-2.55906 -0.40509,-4.04062 -0.14191,-1.48156 -0.66087,-6.59968 -1.15325,-11.3736 -0.49239,-4.77392 -0.96399,-9.55533 -1.04803,-10.62534 -0.25061,-3.19134 -0.74116,-6.28778 -1.39878,-8.82951 -0.34074,-1.31694 -0.81589,-3.25062 -1.0559,-4.29707 -0.24001,-1.04645 -0.51746,-2.03383 -0.61656,-2.19417 -0.0991,-0.16035 -0.35221,-0.98774 -0.56247,-1.83868 -0.21026,-0.85092 -1.28399,-4.77964 -2.38606,-8.73047 -1.10207,-3.95083 -2.25614,-8.12615 -2.5646,-9.27847 -0.30847,-1.15233 -1.02576,-3.47569 -1.594,-5.16302 -0.56824,-1.68733 -0.98871,-3.06788 -0.93435,-3.06788 0.0544,0 -0.44359,-1.51523 -1.10653,-3.36718 -0.66294,-1.85195 -1.33239,-3.80492 -1.48769,-4.33993 -0.32532,-1.12076 -0.60397,-1.18832 -1.70454,-0.41321 -1.99221,1.40308 -3.3846,1.8784 -5.65848,1.93168 -1.34651,0.0315 -2.30218,-0.0732 -2.36777,-0.25962 -0.0693,-0.19687 0.63918,-0.31441 1.91472,-0.31762 2.23883,-0.006 5.16701,-1.08811 6.35006,-2.34741 l 0.63167,-0.67238 -0.94148,-2.36531 c -0.51782,-1.30092 -1.19541,-2.60627 -1.50577,-2.90077 -0.31035,-0.29448 -0.56428,-0.66487 -0.56428,-0.82309 0,-0.38681 0.51474,-0.36617 0.75988,0.0305 0.34068,0.55122 4.71938,3.27354 5.26532,3.27354 0.62731,0 3.47428,-4.18909 4.47507,-6.58471 0.37824,-0.9054 0.87675,-1.94479 1.10779,-2.30977 0.27679,-0.43722 0.35611,-1.04981 0.23253,-1.79583 -0.10315,-0.62273 -0.24804,-2.07505 -0.32195,-3.22738 -0.0739,-1.15232 -0.20281,-3.10529 -0.28642,-4.33992 -0.27438,-4.05171 -0.74136,-12.05856 -0.89898,-15.41422 -0.0851,-1.8108 -0.24716,-4.84126 -0.36022,-6.73437 -0.24153,-4.04415 -0.2213,-16.10404 0.0331,-19.75414 l 0.17733,-2.54409 -0.56263,1.34687 c -1.54936,3.70904 -3.01883,6.60252 -6.30814,12.42117 -0.37224,0.65847 -1.09386,1.938 -1.60359,2.84339 -0.50973,0.9054 -1.64156,2.68902 -2.51517,3.96359 -0.87363,1.27458 -1.5884,2.4531 -1.5884,2.61892 0,0.16584 0.37039,0.32063 0.82309,0.34399 0.61931,0.0319 0.53074,0.0875 -0.35767,0.22447 -1.02613,0.15818 -1.38906,0.45383 -2.77145,2.25774 -1.57384,2.05373 -3.35737,4.01295 -5.1495,5.65675 -0.50876,0.46666 -0.92501,1.00629 -0.92501,1.19918 0,0.46227 -2.07273,1.09507 -3.58695,1.09507 -1.50199,0 -1.53287,-0.34289 -0.24798,-2.75358 1.15762,-2.17194 4.45592,-5.30511 6.89427,-6.54912 0.94186,-0.48052 1.88467,-0.86831 2.09513,-0.86175 0.21047,0.007 -0.12222,0.26415 -0.73931,0.57241 -1.61127,0.80491 -3.43721,2.20854 -3.32814,2.55836 0.0513,0.16462 -0.44684,0.5486 -1.10705,0.85328 -0.93048,0.42942 -1.12721,0.64214 -0.87495,0.9461 0.3512,0.42317 -0.0846,0.91452 -0.55395,0.62449 -0.30178,-0.18651 -1.22553,1.01611 -2.10569,2.74135 l -0.6407,1.25589 0.97526,-0.18542 c 0.5364,-0.10198 1.37272,-0.38567 1.8585,-0.63042 1.64223,-0.82741 7.53974,-7.29713 7.18094,-7.87768 -0.0924,-0.14942 -0.0252,-0.27168 0.14905,-0.27168 0.17434,0 0.31698,-0.14264 0.31698,-0.31696 0,-0.17434 -0.13469,-0.23373 -0.29931,-0.132 -0.16462,0.10175 -0.2993,0.0424 -0.2993,-0.13198 0,-0.17434 0.33323,-0.31698 0.74052,-0.31698 0.60727,0 1.09011,-0.53356 2.68311,-2.96499 1.06842,-1.63076 2.19945,-3.41536 2.5134,-3.9658 0.31397,-0.55044 1.23487,-2.14564 2.04646,-3.54489 3.53733,-6.0986 5.9476,-11.18492 7.40683,-15.63044 0.52536,-1.6005 1.04871,-3.00349 1.16298,-3.11777 0.2876,-0.28761 0.24738,0.99785 -0.0762,2.43608 -0.14816,0.65847 -0.35047,1.87066 -0.44957,2.69375 -0.21462,1.78252 -0.72547,14.83443 -0.59746,15.26456 0.049,0.16462 0.16719,2.72368 0.26264,5.6868 0.0955,2.96312 0.30736,7.81187 0.47091,10.77499 0.71445,12.94456 0.91688,16.27806 1.09963,18.10796 l 0.19432,1.94548 0.39426,-1.49652 c 0.21685,-0.82309 0.39687,-1.86692 0.40004,-2.31962 0.003,-0.4527 0.13709,-0.82309 0.2976,-0.82309 0.25783,0 0.17349,1.23291 -0.15868,2.31962 -0.18637,0.6097 0.18652,0.42898 0.84677,-0.4104 0.8129,-1.03342 2.45988,-1.72869 3.14664,-1.32836 0.45403,0.26467 0.43794,0.2999 -0.14059,0.30796 -0.38522,0.005 -0.73123,0.25472 -0.84326,0.60771 -0.10449,0.32924 -0.45029,0.61545 -0.76843,0.63602 -1.0728,0.0694 -1.16457,0.11085 -1.57372,0.71085 -0.50542,0.74118 -0.84216,2.00654 -0.47333,1.77858 0.14926,-0.0923 0.27139,0.0422 0.27139,0.2989 0,0.25664 -0.18441,0.46662 -0.4098,0.46662 -1.12409,0 -0.83065,6.93526 0.62368,14.74078 0.0844,0.4527 0.27276,0.82309 0.4187,0.82309 0.14593,0 0.26534,0.20587 0.26534,0.4575 0,0.66253 1.65817,3.75449 2.48337,4.63069 0.83305,0.88453 2.5549,1.862 2.90204,1.64745 0.38276,-0.23655 1.97107,-3.17771 2.36111,-4.37218 1.04202,-3.19109 1.2843,-6.40961 0.80876,-10.74401 -0.16429,-1.49749 -0.13555,-1.82291 0.12485,-1.41319 0.49143,0.77328 0.81516,5.66838 0.53751,8.12804 -0.29399,2.60443 -1.24107,5.54675 -2.3637,7.34337 -0.80408,1.28681 -0.81705,1.36092 -0.25417,1.45228 0.89836,0.14581 2.57642,-1.03701 3.61712,-2.5496 0.83359,-1.2116 0.90801,-1.49584 0.71775,-2.74157 -0.11675,-0.76441 -0.26814,-1.79389 -0.33641,-2.28774 -0.0682,-0.49385 -0.26185,-1.6387 -0.43019,-2.54409 -0.46525,-2.50243 -0.72973,-8.29264 -0.36229,-7.93159 0.16752,0.16462 0.38645,1.44415 0.48648,2.8434 0.10004,1.39925 0.31588,3.21753 0.47965,4.04062 0.16377,0.82309 0.41193,2.2373 0.55146,3.1427 l 0.2537,1.64618 0.36733,-0.89543 c 0.58966,-1.43739 0.50569,-8.60531 -0.12723,-10.86103 -0.54431,-1.93991 -1.14276,-2.39504 -1.46437,-1.11366 -0.25886,1.03134 -0.77501,0.94158 -0.77501,-0.13478 0,-1.58932 1.77519,-1.86155 2.35086,-0.3605 0.62315,1.62483 0.94318,4.06642 0.96378,7.353 0.0221,3.52101 -0.12015,4.94671 -0.6818,6.83465 -0.25371,0.85281 -0.24291,1.42445 0.0451,2.38561 0.2083,0.69524 0.43917,1.5974 0.51304,2.00481 0.18621,1.02685 1.78644,3.89647 2.72628,4.88888 1.58953,1.67847 3.48391,0.86688 4.59823,-1.96995 1.00417,-2.55641 1.64248,-12.82359 0.94983,-15.27787 -1.19263,-4.22591 -2.6554,-10.79826 -2.93929,-13.20648 -0.0971,-0.82309 -0.29783,-2.372 -0.44625,-3.44201 -0.1484,-1.07002 -0.34129,-2.68627 -0.42861,-3.59166 -0.55274,-5.73057 -0.54477,-5.68676 -1.03457,-5.68865 -0.26445,-9e-4 -0.82123,-0.1795 -1.2373,-0.39665 -0.41606,-0.21714 -1.42622,-0.56312 -2.24479,-0.76883 -1.60542,-0.40346 -7.73874,-2.24576 -8.59679,-2.58227 -0.28808,-0.11298 -0.52379,-0.3364 -0.52379,-0.49648 0,-0.39607 1.21091,-0.1045 5.83645,1.40529 2.14004,0.69852 4.32716,1.36443 4.86028,1.47983 0.53312,0.11539 1.04614,0.33412 1.14006,0.48607 0.0939,0.15195 0.43474,0.27628 0.7574,0.27628 0.45124,0 0.55361,-0.15544 0.44354,-0.67344 -0.40062,-1.88515 -0.88245,-8.63479 -0.87487,-12.25538 0.009,-4.48591 0.1842,-5.0295 1.61742,-5.0295 0.76113,0 0.89354,0.17028 1.46291,1.88126 0.34432,1.03469 0.69125,2.54992 0.77096,3.36718 0.0797,0.81726 0.21183,1.82265 0.29361,2.23419 0.0818,0.41155 0.2263,1.75842 0.32117,2.99306 0.0949,1.23463 0.21633,2.64885 0.26989,3.1427 0.0536,0.49385 0.19496,2.04276 0.31419,3.44201 0.14946,1.75392 0.36311,2.6603 0.68791,2.91823 0.42341,0.33625 0.41807,0.37413 -0.0527,0.37413 -0.2881,0 -0.45854,0.10565 -0.37873,0.23477 0.0798,0.12912 0.22183,2.04842 0.31561,4.2651 0.0938,2.21669 0.23752,5.17517 0.3194,6.57442 0.0819,1.39925 0.21265,5.23784 0.29057,8.5302 0.0779,3.29236 0.26345,6.39016 0.41225,6.88402 l 0.27057,0.89791 0.2185,-0.89791 c 0.12018,-0.49386 0.34406,-1.43667 0.49752,-2.09514 0.54438,-2.33578 2.14818,-5.00256 4.32126,-7.18532 1.97301,-1.9818 3.79599,-3.16472 4.22144,-2.73927 0.30247,0.30247 -0.45599,1.00636 -1.7885,1.65986 -1.6793,0.82357 -2.01343,1.12421 -3.19772,2.87724 -0.55605,0.82309 -1.177,1.59773 -1.37988,1.72143 -0.50846,0.31 -1.55592,3.66621 -1.96457,6.29478 -0.31634,2.03474 -0.28735,2.33855 0.43642,4.57434 1.27328,3.9333 2.44167,6.26386 3.54748,7.07608 1.28264,0.94212 3.55274,1.43438 6.61465,1.43438 2.17979,0 2.64384,-0.10857 4.60443,-1.07731 2.65567,-1.3122 2.97608,-1.64109 2.4459,-2.51059 -0.31036,-0.50902 -0.60799,-0.61558 -1.43888,-0.51518 -1.09641,0.13247 -2.87141,-0.56621 -3.56665,-1.40393 -0.51594,-0.62168 -0.57516,-2.32523 -0.0868,-2.4968 0.27554,-0.0968 0.33539,0.0703 0.20756,0.57968 -0.35626,1.41948 2.02189,3.1269 3.33317,2.39307 0.35576,-0.19909 0.30957,-0.46113 -0.27671,-1.56975 -0.72388,-1.36881 -1.6431,-4.61508 -1.89765,-6.70166 -0.0792,-0.64934 -0.1929,-1.25971 -0.25264,-1.35638 -0.25378,-0.41061 -0.48811,-6.09894 -0.29767,-7.22609 0.27135,-1.60615 1.97818,-3.556 3.11279,-3.556 2.01476,0 5.08667,5.60566 5.61278,10.24226 0.3401,2.9973 0.17606,6.74938 -0.34035,7.78455 -0.25282,0.50676 -0.45966,1.02947 -0.45966,1.16154 0,0.13208 -0.40214,0.9222 -0.89366,1.7558 l -0.89366,1.51565 1.30352,0.6333 c 1.40389,0.68207 2.86263,0.61818 3.94428,-0.17273 0.56004,-0.40952 0.55865,-0.44074 -0.0699,-1.56756 -1.0481,-1.8789 -1.35047,-3.59775 -1.33121,-7.5674 0.033,-6.8064 1.67296,-11.79498 4.14574,-12.61106 1.02626,-0.33871 1.12548,-0.31258 1.74014,0.45827 0.94462,1.18468 1.39293,3.64293 1.38727,7.60695 -0.007,5.19273 -0.99415,9.00469 -3.15336,12.18227 -0.9835,1.44735 -0.74035,1.89591 1.59615,2.94447 1.58299,0.7104 2.0401,0.78872 3.52254,0.6035 0.93693,-0.11706 2.17906,-0.41063 2.76029,-0.65238 1.5795,-0.65695 4.55514,-2.7113 5.33386,-3.68245 l 0.68541,-0.85477 -0.71057,-1.13543 c -1.50656,-2.40733 -1.99811,-6.5674 -1.25966,-10.66089 0.42744,-2.36954 0.64612,-2.92174 1.59495,-4.02747 1.2341,-1.43817 2.92674,-1.98189 3.83171,-1.23083 1.48352,1.23122 2.00113,4.9935 1.26699,9.20926 -0.35091,2.01506 -1.87484,5.63427 -2.94558,6.99549 -0.3334,0.42384 -0.53336,0.95096 -0.44433,1.17135 0.25646,0.635 2.52304,1.54823 4.16958,1.67998 1.91549,0.15327 3.9163,-0.89369 5.08611,-2.66139 0.80676,-1.2191 0.80725,-1.22325 0.21967,-1.86533 -0.32389,-0.35393 -0.88176,-1.22684 -1.23973,-1.9398 -0.5741,-1.14346 -0.62626,-1.57807 -0.44238,-3.68603 0.17592,-2.01672 0.31322,-2.45838 0.8796,-2.82948 0.96904,-0.63494 2.11663,-0.0406 2.59901,1.34601 0.34146,0.98153 0.43046,4.26687 0.18734,6.91475 -0.0955,1.03965 -0.0863,1.04828 1.20761,1.14116 0.99959,0.0717 1.57164,-0.0836 2.45166,-0.66603 1.03677,-0.6861 1.13211,-0.85666 0.98513,-1.76236 -0.16965,-1.04548 0.5066,-4.19773 1.23278,-5.74644 0.56094,-1.19629 1.84656,-2.5929 3.27205,-3.55456 1.58632,-1.07017 4.45746,-1.12608 5.74751,-0.11193 1.2203,0.95931 2.91347,2.8569 3.26503,3.65922 0.1648,0.3761 0.93027,1.35801 1.70104,2.18203 1.91468,2.04696 2.13702,3.48208 0.95086,6.13756 -0.52281,1.17042 -3.68666,3.80559 -4.57908,3.8139 -0.25717,0.002 -1.05607,0.20929 -1.77533,0.45978 -1.47834,0.51483 -4.36616,0.35653 -5.87558,-0.32209 -1.28959,-0.57979 -3.01293,-2.49869 -3.43591,-3.82584 -0.34993,-1.0979 -0.38689,-1.1225 -1.00776,-0.67042 -1.16645,0.8493 -2.12188,1.11618 -3.52874,0.98568 -1.36533,-0.12665 -1.40688,-0.10415 -2.57916,1.39682 -2.12075,2.71541 -5.22935,3.29257 -8.51361,1.58069 l -1.89863,-0.98963 -0.74205,0.71815 c -3.14965,3.04819 -6.92719,4.66312 -10.02872,4.28734 -1.87249,-0.22687 -2.6598,-0.55135 -4.2367,-1.74614 -0.8924,-0.67615 -0.99794,-0.692 -1.67129,-0.2508 -1.36724,0.89586 -3.07246,0.90536 -4.86751,0.0271 l -1.62784,-0.79643 -0.97755,0.92011 c -1.52444,1.43487 -3.82397,2.18511 -7.18287,2.34345 -2.2347,0.10534 -3.19437,0.0247 -4.1215,-0.34624 -1.68025,-0.6723 -2.01339,-0.6049 -1.21432,0.24565 0.67157,0.71485 0.67259,0.72595 0.0522,0.5637 -0.34809,-0.091 -0.63287,-0.25871 -0.63287,-0.37262 0,-0.11393 -0.88976,-1.12353 -1.97723,-2.24358 -2.05843,-2.1201 -2.9645,-3.71296 -3.25551,-5.72309 -0.0943,-0.65148 -0.22505,-1.52123 -0.29052,-1.93277 -0.0654,-0.41155 -0.13316,-1.21967 -0.1504,-1.79583 -0.0267,-0.89359 -0.0784,-0.96666 -0.35135,-0.49712 -0.176,0.30275 -0.25795,0.87503 -0.18212,1.27175 0.19522,1.02121 -0.60618,7.76285 -1.1354,9.5514 -0.83625,2.82618 -2.77162,4.14476 -4.68273,3.19039 -1.34189,-0.67011 -3.07845,-3.31013 -3.94166,-5.99232 l -0.70908,-2.2033 -0.95708,1.3327 c -1.065,1.48298 -2.52886,2.32565 -4.04006,2.32565 -0.55043,0 -1.16337,0.19594 -1.36212,0.43541 -0.82424,0.99315 -2.96765,1.95903 -4.34731,1.95903 -0.76234,0 -1.3241,0.10102 -1.24835,0.22448 0.14933,0.24345 0.39399,2.72442 0.64197,6.50989 0.0863,1.31695 0.21964,2.86586 0.29638,3.44202 0.0767,0.57616 0.21663,2.11386 0.31085,3.41711 0.0942,1.30324 0.2188,2.44809 0.27684,2.54409 0.0581,0.096 0.19813,1.65365 0.3113,3.46144 0.11319,1.80778 0.25306,3.36334 0.31081,3.45679 0.10323,0.16704 0.37046,3.03598 0.58459,6.2761 0.19219,2.90816 0.78023,6.67317 1.40242,8.97916 0.91913,3.40651 1.72725,7.0051 1.60139,7.13096 -0.3377,0.3377 -0.69307,-0.45012 -1.04546,-2.31772 -0.4557,-2.41513 -0.92963,-2.62474 -0.58391,-0.25825 0.24233,1.65871 0.34021,2.59929 1.03391,9.9354 0.23484,2.48353 0.57069,5.66034 0.74633,7.05959 0.17565,1.39926 0.39262,3.41957 0.48216,4.48958 0.0896,1.07002 0.42715,4.16783 0.75024,6.88402 0.32309,2.7162 0.63368,5.47729 0.6902,6.13576 0.0565,0.65847 0.25775,2.47675 0.4472,4.04063 0.18945,1.5638 0.39911,3.5517 0.46593,4.4173 0.0669,0.8657 0.18022,1.6738 0.25202,1.7959 0.0718,0.1221 0.22103,0.9626 0.33162,1.868 0.11059,0.9054 0.33224,2.7237 0.49256,4.0406 0.16033,1.317 0.48269,4.3474 0.71638,6.7344 0.64715,6.6103 1.8798,12.1462 2.64756,11.8903 0.18553,-0.062 0.43755,-0.5738 0.56004,-1.1377 0.46705,-2.1499 -1.36004,-23.997 -2.73902,-32.75152 -0.15558,-0.9877 -0.42956,-2.94067 -0.60886,-4.33992 -0.17929,-1.39925 -0.45492,-3.28488 -0.61252,-4.19027 -0.15761,-0.9054 -0.3462,-2.18493 -0.4191,-2.8434 -0.0729,-0.65847 -0.35651,-2.34207 -0.63025,-3.74132 -0.27373,-1.39925 -0.56181,-2.94815 -0.64017,-3.44201 -0.46866,-2.95372 -2.0209,-10.63434 -2.6543,-13.13363 -0.16889,-0.6664 -0.12421,-0.83068 0.19681,-0.72368 0.2284,0.0761 0.49825,0.59878 0.59964,1.16141 0.10139,0.56265 0.48485,2.43722 0.85212,4.1657 1.03055,4.85012 2.55013,13.14519 2.84617,15.53672 0.0731,0.59109 0.27373,1.95019 0.44568,3.02021 1.64895,10.26112 2.94731,21.75511 3.75288,33.22291 0.43816,6.2376 0.44312,8.1197 0.024,9.1228 -0.50352,1.2051 -0.82759,1.2954 -1.66038,0.4626 z m -10.32898,-83.8879 c -0.19001,-2.45218 -1.01068,-11.15904 -1.33298,-14.14217 -0.37634,-3.48327 -0.72272,-7.02316 -0.76149,-7.78195 -0.0169,-0.32923 -0.14052,-2.02472 -0.27489,-3.76774 l -0.24431,-3.16914 -1.00137,-0.3621 c -1.47841,-0.5346 -3.4233,-3.28264 -3.4233,-4.83696 0,-0.32149 0.13468,-0.58453 0.2993,-0.58453 0.16462,0 0.27365,0.10102 0.24229,0.22448 -0.0313,0.12346 0.0463,0.66047 0.17258,1.19335 0.22713,0.95845 2.56612,3.67036 3.16564,3.67036 0.38587,0 0.39289,-1.78772 0.0198,-5.03299 -0.1574,-1.36889 -0.30902,-3.47485 -0.33697,-4.6799 l -0.0508,-2.19104 -1.74183,-0.19706 c -0.95802,-0.10838 -2.4254,-0.37438 -3.26087,-0.5911 l -1.51905,-0.39403 -1.21738,1.08074 -1.21738,1.08074 0.65444,1.94548 c 0.35994,1.07002 0.76091,2.08017 0.89105,2.24479 0.21783,0.27557 3.3518,10.39679 4.40219,14.217 0.24894,0.90541 0.6989,2.52166 0.99989,3.59167 0.75809,2.69497 1.36209,4.87563 2.0311,7.33298 0.31371,1.15232 0.937,3.44201 1.38508,5.08819 0.44808,1.64618 1.01754,3.69648 1.26547,4.55622 0.41888,1.4526 0.62064,2.30285 0.67662,2.85158 0.0126,0.12346 0.085,0.22448 0.16093,0.22448 0.0759,0 0.0832,-0.70711 0.0163,-1.57135 z m 1.7368,-30.25845 1.22295,-0.88589 -0.71499,-0.47807 c -1.64736,-1.1015 -3.29462,-3.15085 -4.18888,-5.21142 l -0.93337,-2.15068 0.15783,2.39444 c 0.0868,1.31694 0.24598,3.5109 0.3537,4.87545 l 0.19584,2.481 1.342,-0.0694 c 0.93539,-0.0484 1.7125,-0.33787 2.56492,-0.95537 z m 88.92273,-2.74379 c 2.78403,-0.84456 5.17202,-2.65533 5.84269,-4.43041 0.67192,-1.77838 0.20734,-3.97523 -1.0607,-5.01567 -0.47279,-0.38793 -0.50389,-0.36236 -0.33866,0.2784 0.46339,1.79703 -0.8783,3.11475 -3.68147,3.6157 -4.31824,0.77172 -8.96747,-1.36719 -8.96747,-4.12552 0,-0.84043 -0.0771,-0.98662 -0.36729,-0.69643 -0.22528,0.22528 -0.39378,1.42955 -0.43577,3.1144 -0.0952,3.81858 0.68371,5.49829 3.22249,6.9495 1.55261,0.8875 3.53282,0.9936 5.78618,0.31003 z m -48.67794,-1.58791 c 0.83239,-1.6046 2.12583,-5.86955 1.59537,-5.26056 -0.1282,0.14717 -0.46427,0.89622 -0.74681,1.66453 -0.28256,0.76832 -1.05288,2.00944 -1.71182,2.75804 -1.03447,1.17521 -1.15216,1.44693 -0.86175,1.98957 0.41427,0.77405 0.89125,0.45563 1.72501,-1.15158 z m 7.96298,-1.26408 c 1.54195,-3.03519 2.08924,-6.18773 1.89438,-10.91222 -0.14581,-3.53514 -0.50879,-5.55704 -1.11992,-6.23812 -0.42204,-0.47035 -2.64121,1.10111 -3.10309,2.19739 -1.2153,2.88448 -1.81065,6.95474 -1.58742,10.85283 0.20568,3.59165 0.27072,3.93704 1.09038,5.79 0.60411,1.36571 0.6367,1.38928 1.20694,0.87323 0.32233,-0.29171 1.05076,-1.44511 1.61873,-2.56311 z m -27.63484,-0.14991 c -0.32501,-0.6515 -0.59628,-1.01185 -0.60284,-0.80079 -0.0187,0.5989 0.93824,2.64701 1.07327,2.29731 0.0663,-0.1716 -0.14543,-0.84504 -0.47043,-1.49652 z m 19.42621,-1.4772 c 1.35983,-2.40095 1.87643,-4.92302 1.4952,-7.29955 -0.33846,-2.1098 -1.95915,-6.87196 -2.50926,-7.37305 -0.18072,-0.16462 -0.56554,-0.6697 -0.85514,-1.1224 -0.61839,-0.96659 -1.55606,-1.07135 -2.0093,-0.22448 -0.1762,0.32924 -0.57891,0.59861 -0.89488,0.59861 -1.9365,0 -0.8644,11.79085 1.49753,16.46981 l 0.93545,1.8531 0.74452,-0.69944 c 0.40949,-0.38469 1.12763,-1.37586 1.59588,-2.2026 z m 24.76811,-2.79407 c 0.90946,-2.2554 1.03281,-2.8909 1.08046,-5.56614 0.0647,-3.63153 -0.1875,-4.99114 -1.0225,-5.51261 -0.53009,-0.33104 -0.70972,-0.31705 -1.15985,0.0903 -0.33094,0.2995 -0.841,0.4261 -1.34699,0.33435 -0.73926,-0.13405 -0.79737,-0.08 -0.63022,0.58599 0.13209,0.52631 0.0614,0.73366 -0.25035,0.73366 -1.31226,0 -1.88517,8.58407 -0.73912,11.07429 0.18942,0.41155 0.48915,1.08498 0.66608,1.49653 0.65788,1.53019 0.83642,1.57516 1.62808,0.41013 0.41126,-0.60523 1.20974,-2.24615 1.77441,-3.64651 z m 9.05287,0.63435 c 0.3755,-2.65652 -0.36651,-5.77852 -1.37341,-5.77852 -0.45225,0 -1.30736,2.16153 -1.30736,3.30472 0,1.12423 1.79993,4.89215 2.16337,4.52871 0.14537,-0.14537 0.3782,-1.07008 0.5174,-2.05491 z m 16.48243,0.17799 c 1.19767,-0.25686 1.65275,-0.52472 2.07719,-1.22267 0.67675,-1.11283 0.41571,-2.33783 -0.6092,-2.85877 -0.5439,-0.27645 -0.59526,-0.37083 -0.20361,-0.37413 0.93524,-0.008 0.55843,-0.84009 -1.19832,-2.64663 -1.53464,-1.57812 -1.89021,-1.79402 -3.26627,-1.98328 -1.65937,-0.22822 -2.79356,0.13503 -2.79356,0.89472 0,0.24113 -0.18115,0.43842 -0.40257,0.43842 -0.22141,0 -0.64348,0.2662 -0.93791,0.59156 -0.29445,0.32535 -0.64528,0.52361 -0.77964,0.44058 -0.83104,-0.51362 -1.42538,3.39145 -0.68756,4.51753 0.41356,0.63116 2.45122,1.78538 3.95114,2.23806 1.17197,0.35371 3.1016,0.33964 4.85031,-0.0354 z m -103.85445,-2.42113 c 0.92566,-0.68437 1.17683,-1.44024 0.47859,-1.44024 -0.22395,0 -0.91318,-0.34337 -1.53161,-0.76306 -0.61843,-0.41967 -1.18541,-0.70207 -1.25995,-0.62753 -0.0745,0.0745 0.14328,0.71258 0.48405,1.41789 0.34077,0.7053 0.61957,1.45909 0.61957,1.6751 0,0.53711 0.18148,0.49777 1.20935,-0.26216 z m 7.80375,-3.96221 c -0.1927,-1.82296 -0.3802,-3.84322 -0.41664,-4.48947 -0.0744,-1.3192 0.0338,-1.45099 -1.43897,1.75267 -0.3731,0.81157 -1.33463,2.34266 -2.13675,3.4024 -0.80212,1.05975 -1.41813,1.96572 -1.36891,2.01328 0.33881,0.32732 5.49631,1.1936 5.59432,0.93964 0.0646,-0.16721 -0.0403,-1.79555 -0.23305,-3.61852 z m 23.64236,-4.87424 c -0.0592,-3.81672 -0.30589,-9.4778 -0.61622,-14.13886 -0.13646,-2.04953 -0.18138,-3.90028 -0.0998,-4.11279 0.0926,-0.24129 -0.37849,-0.61217 -1.25443,-0.98765 -1.77996,-0.76298 -1.99759,-0.75431 -1.81124,0.0721 0.0835,0.37039 0.22353,1.48156 0.31114,2.46927 0.3802,4.28636 1.16757,10.20389 1.6328,12.27151 0.68683,3.05242 1.17898,5.41956 1.35985,6.54048 0.31118,1.92853 0.52586,0.97886 0.47792,-2.11413 z m -1.02995,-21.71122 c -0.19752,-3.50635 -0.72077,-8.28468 -1.27005,-11.59808 -0.87698,-5.29026 -1.25668,-5.99507 -2.28859,-4.24819 -0.41017,0.69437 -0.47154,1.43379 -0.35398,4.2651 0.0782,1.88381 0.26506,4.36791 0.41522,5.52024 0.15015,1.15232 0.35832,3.2555 0.4626,4.67372 l 0.18961,2.57859 1.16116,0.34789 c 0.63862,0.19134 1.24208,0.47886 1.34102,0.63894 0.40117,0.64912 0.47564,0.17624 0.34301,-2.17821 z m -75.71456,100.65848 c 0.0886,-0.33863 0.28986,-0.6157 0.44735,-0.6157 0.39735,0 0.17272,0.97136 -0.25778,1.11468 -0.22302,0.0742 -0.292,-0.10732 -0.18957,-0.49898 z m 0.8587,-1.30204 c 0.1124,-0.29519 0.27976,-0.4613 0.3719,-0.36915 0.0922,0.0922 1.9e-4,0.33366 -0.20435,0.5367 -0.29561,0.29339 -0.32999,0.25902 -0.16755,-0.16755 z m 200.36559,-40.56082 c 0,-0.16072 0.21328,-0.37407 0.47397,-0.4741 0.29149,-0.11186 0.42833,-0.045 0.35542,0.17375 -0.14914,0.44741 -0.82939,0.69376 -0.82939,0.30035 z m -87.39712,-4.16371 c 0,-0.47736 0.93439,-1.58005 1.3389,-1.58005 0.22387,0 0.46716,-0.16836 0.54065,-0.37414 0.0735,-0.20577 0.23032,-0.28464 0.34851,-0.17528 0.35042,0.32428 -0.31191,1.2583 -1.30366,1.83839 -0.50842,0.29738 -0.9244,0.42837 -0.9244,0.29108 z m 57.46251,-19.16424 c -0.002,-0.12347 -0.0895,-0.5612 -0.19385,-0.97275 -0.10436,-0.41154 -0.075,-0.64215 0.0653,-0.51246 0.2899,0.26801 0.53658,1.70968 0.29255,1.70968 -0.0879,0 -0.16174,-0.10101 -0.16398,-0.22447 z m -0.59453,-2.00265 c 0,-0.0726 0.13469,-0.21523 0.29931,-0.31697 0.16462,-0.10173 0.29931,-0.0423 0.29931,0.13199 0,0.17433 -0.13469,0.31697 -0.29931,0.31697 -0.16462,0 -0.29931,-0.0594 -0.29931,-0.13199 z m -0.71596,-3.6798 c -0.0883,-0.29048 -0.23854,-0.99954 -0.33398,-1.57571 -0.0954,-0.57616 -0.29594,-1.51897 -0.44557,-2.09513 -0.14965,-0.57616 -0.33338,-1.38429 -0.40832,-1.79583 -0.0749,-0.41155 -0.30221,-1.15233 -0.50507,-1.64618 l -0.36884,-0.89792 -0.21611,0.74827 c -0.17914,0.62031 -0.25268,0.66269 -0.43,0.24786 -0.11764,-0.27521 -0.0511,-0.80456 0.14785,-1.17633 0.34581,-0.64614 0.37948,-0.65171 0.76367,-0.1263 0.43259,0.59162 1.31159,3.3878 1.47931,4.70586 0.0566,0.44423 0.30396,1.48513 0.54984,2.31311 0.24589,0.82799 0.3302,1.57765 0.18737,1.66592 -0.14283,0.0883 -0.3319,-0.0771 -0.42015,-0.36762 z m -36.75987,-15.37628 c -3.08667,-0.43749 -6.05073,-2.49425 -5.86945,-4.07282 0.0782,-0.68128 0.22687,-0.81869 0.81524,-0.7537 0.39576,0.0437 0.97084,-0.14794 1.27796,-0.42587 0.48827,-0.44189 0.78592,-0.46302 2.37077,-0.16829 2.25826,0.41997 5.44988,1.94763 6.08083,2.91058 0.57096,0.87141 0.61271,1.76272 0.1014,2.16534 -0.57023,0.44902 -2.87005,0.615 -4.77675,0.34476 z m 4.09741,-0.9737 c 0.52884,-0.3867 0.50225,-0.46284 -0.51762,-1.48273 -1.29983,-1.29982 -4.25061,-2.59922 -5.90254,-2.59922 -0.66343,0 -1.20623,0.0798 -1.20623,0.17727 0,0.47278 1.37166,1.81447 3.06206,2.99518 2.00506,1.40048 3.4886,1.6961 4.56433,0.9095 z m -4.93264,-0.69187 c -0.74078,-0.437 -1.83766,-1.1765 -2.43751,-1.64335 -1.19127,-0.92713 -1.75276,-1.07008 -1.75276,-0.44624 0,0.91806 3.09698,2.83014 4.63923,2.86426 0.87794,0.0195 0.86796,0.002 -0.44896,-0.77467 z m -78.31241,-1.77813 c -0.0213,-0.88074 0.0602,-1.23315 0.22517,-0.97275 0.32124,0.50705 0.35114,2.35385 0.0381,2.35385 -0.12637,0 -0.24486,-0.6215 -0.26328,-1.3811 z"
       style="fill:#000000" />
  </g>
</svg>
