<?xml version="1.0" encoding="UTF-8"?>
<svg version="1.1" xmlns="http://www.w3.org/2000/svg" width="193" height="63" >
<path d="M15.398,18.184c-0.367-0.445-0.637-0.576-1.17-0.728c-0.512-0.145-1.158,0.121-1.49,0.506 c-0.926,1.075-0.595,3.519-0.668,4.895c-0.175,3.299-0.399,6.597-0.621,9.894c-0.322,4.791-0.178,9.976-1.117,14.696 c0.645-0.125,1.289-0.251,1.933-0.377c-0.299-0.867,0.045-2.393,0.07-3.292c0.08-2.796,0.135-5.592,0.16-8.389 c0.051-5.646,0.152-11.462-0.887-17.031c-0.574-3.075-1.807-6.105-2.659-9.115C8.53,7.766,8.153,6.279,7.801,4.785 c-0.14-0.612-0.265-1.227-0.373-1.846C7.39,2.68,7.351,2.421,7.312,2.162C7.582,1.061,7.3,0.807,6.465,1.399 c4.429,3.859,7.383,11.236,9.824,16.363c3.654,7.675,6.542,16.324,5.746,24.92c-0.749,8.084-7.675,15.995-15.611,9.835 c-2.103-1.632-5.386-5.469-4.063-8.31c1.881-4.037,12.571-4.018,16.439-4.382c5.5-0.518,11.564,0.205,16.964-1.014 c0.642-0.145,1.292-1.03,0.241-1.052c-1.546-0.032-3.423,0.899-4.614,1.796c-1.626,1.225-5.521,6.563-2.858,8.479 c3.306,2.378,9.663-5.331,8.725-8.31c-0.207-0.657-1.634-0.199-1.867,0.232c-1.277,2.364-1.509,11.694,3.097,9.84 c2.715-1.093,4.15-5.611,5.271-7.982c0.309-0.654,0.622-1.305,0.948-1.951c0.125-0.249-1.017-1.313-0.988,1.107 c0.021,1.767-0.375,5.791,1.054,7.141c0.374,0.354,1.12,0.154,1.498-0.085c0.892-0.563,1.377-1.67,1.904-2.542 c0.567-0.94,3.139-6.072,3.734-4.342c0.728,2.119,0.41,7.759,3.962,6.808c1.189-0.318,2.057-1.612,2.754-2.516 c0.755-0.978,1.407-2.043,2.084-3.075c1.267-1.93-0.072-1.054-0.037-0.101c0.069,1.91,0.242,7.159,3.362,4.777 c1.436-1.096,2.506-2.986,3.65-4.365c1.906-2.297,0.105,0.638,0.124,1.88c0.015,0.938-0.146,2.416,0.583,3.191 c1.938,2.061,4.672-2.771,5.283-3.674c3.686-5.446-0.155,3.775,3.455,4.053c2.813,0.217,5.246-4.748,5.685-6.902 c-0.644,0.079-1.289,0.157-1.933,0.236c-0.347,2.113-0.928,6.624,2.305,6.472c0.891-0.041,1.768-0.6,2.267-1.333 c0.684-1.006,1.228-2.076,1.801-3.146c1.029-1.92,2.024-0.65,1.782,0.941c-1.258,8.237,14.055-0.294,13.75-4.301 c-0.049-0.648-1.518-0.152-1.743,0.092c-1.396,1.514-2.862,6.594-1.951,8.518c0.274,0.577,1.936,0.27,1.933-0.377 c-0.048-11.21-2.876-22.145,2.135-32.833c4.018-8.568,14.889-6.403,20.071-0.311c5.499,6.465,2.771,13.199-1.82,18.929 c-3.436,4.288-8.041,7.933-10.723,12.787c-1.019,1.843-0.991,5.194,1.832,4.675c2.98-0.549,5.073-4.593,6.041-7.082 c0.56-1.44-0.616-1.274,0.999-0.034c0.993,0.763,1.875,1.682,2.753,2.571c1.035,1.048,4.188,3.809,4.166,5.437 c0.446-0.225,0.893-0.45,1.339-0.676c-1.141,0.047-5.686-4.994-6.708-5.775c-3.581-2.74-7.5-4.425-11.661-6.069 c-1.499-0.592-6.658-2.259-2.087-3.704c2.286-0.722,4.707-1.107,7.085-1.36c4.313-0.459,8.731-0.213,13.053-0.01 c6.207,0.292,12.835,1.547,19.035,0.759c1.606-0.204,0.655-0.822,0.107,0.199c-0.743,1.386-1.679,2.687-2.479,4.042 c-1.56,2.638-3.247,6.025-2.413,9.15c0.843,3.158,5.648-3.651,5.814-3.876c2.412-3.275-0.409,1.59,1.838,2.397 c1.318,0.474,2.55-0.571,3.268-1.521c0.276-0.469,0.551-0.938,0.823-1.409c2.073-3.56,1.774,2.434,1.813,2.206 c-0.1,0.602-0.271,1.88,0.274,2.332c1.266,1.047,3.035,1.004,4.531,0.391c2.735-1.122,4.896-2.918,6.661-5.282 c0.509-0.681,1.852-3.473,0.178-3.675c-0.448-0.054-1.253,0.032-1.49,0.506c-1.807,3.61,1.235,10.023,5.711,8.066 c7.866-3.438-0.355-9.666-4.566-11.894c-0.452,0.335-0.904,0.67-1.356,1.006c3.958,1.233,8.153,1.721,12.271,2.04 c2.066,0.16,6.881,0.81,7.984-0.487c-1.389,1.631-2.357,3.404-3.002,5.441c-1.175,3.708,1.81,7.946,5.848,7.175 c1.162-0.222,5.582-1.351,4.218-3.248c-0.391-0.543-2.259,0.113-1.793,0.762c-3.311,1.772-5.416,1.234-6.314-1.615 c-0.629-1.406-0.11-3.042,0.318-4.393c0.449-1.419,1.496-2.925,2.503-4.04c0.495-0.548-0.157-0.739-0.647-0.712 c-6.705,0.371-13.745,0.025-20.207-1.987c-0.462-0.144-2.187,0.566-1.356,1.006c2.547,1.347,11.124,6.21,6.079,9.765 c-2.544,1.792-3.462-2.031-3.804-3.747c-0.172-0.86-0.218-1.762-0.182-2.635c-0.001,0.019-3.254,3.94-3.457,4.168 c-0.786,0.879-5.406,4.839-6.505,2.164c-0.278-0.678,0.178-2.19,0.285-2.933c0.09-0.624,0.064-1.862-0.696-2.142 c-1.563-0.576-3.548-0.442-4.619,1.046c-2.931,4.071-0.063-0.233-2.233-1.299c-1.16-0.569-2.546,0.524-3.23,1.33 c-1.022,1.204-1.906,2.512-2.859,3.77c-1.186,1.563-0.394-0.071-0.327-1.462c0.054-1.121,0.532-2.245,0.918-3.278 c0.833-2.227,4.672-5.994,4.452-8.414c-0.015-0.161-0.254-0.249-0.377-0.274c-1.389-0.279-3.143,0.396-4.608,0.379 c-3.949-0.046-7.902-0.427-11.842-0.675c-8.424-0.53-16.739-0.88-24.966,1.281c-6.905,1.814-1.945,4.548,2.22,6.193 c5.146,2.033,9.491,4.711,13.692,8.332c0.924,0.796,2.65,3.186,4.062,3.128c0.337-0.014,1.333-0.168,1.34-0.676 c0.04-2.989-5.589-7.617-7.802-9.096c-3.639-2.432-3.618,1.238-5.007,3.742c-0.259,0.467-2.886,4.339-3.486,2.956 c-0.624-1.438,0.444-3.076,1.165-4.208c2.032-3.187,4.975-5.85,7.5-8.641c3.627-4.01,8.172-9.024,7.523-14.841 c-1.246-11.16-16.722-18.534-24.952-9.718c-8.725,9.347-4.307,24.917-4.259,36.139c0.644-0.126,1.289-0.252,1.933-0.377 c-0.675-1.425,0.48-6.483,1.572-7.667c-0.581,0.031-1.162,0.062-1.743,0.092c0.124,1.623-4.237,3.99-5.171,4.576 c-1.406,1.107-3.005,1.451-4.797,1.033c-0.316-0.678,0.096-2.141,0.208-2.871c0.204-1.334,0.179-2.955-1.55-3.006 c-1.641-0.048-2.72,1.014-3.613,2.253c-0.181,0.251-2.426,5.024-3.157,3.098c-0.501-1.32-0.184-3.096,0.042-4.471 c0.127-0.776-1.799-0.421-1.933,0.236c-0.302,1.479-1.269,2.879-2.074,4.13c-1.786,2.775-1.322-1.96-1.347-2.671 c-0.054-1.506-0.203-2.748-1.903-2.506c-1.691,0.24-2.839,2.381-3.685,3.607c-3.771,5.47-0.448-1.543-2.119-3.6 c-0.225-0.276-0.743-0.172-1.029-0.113c-1.716,0.352-2.974,2.461-3.983,3.708c-0.533,0.658-1.06,1.32-1.6,1.973 c-1.352,1.636-0.183-0.64-0.367-1.673c-0.23-1.292,0.55-3.512-0.352-4.482c-0.29-0.312-0.952-0.182-1.281-0.027 c-1.752,0.825-2.751,3.311-3.781,4.826c-3.32,4.886-2.422-4.029-4.121-5.347c-3.642-2.826-6.309,6.977-8.174,8.153 c0.5-0.028,0.999-0.057,1.498-0.085c-2.013-1.902,0.003-6.515-1.035-8.749c-0.143-0.309-0.541-0.323-0.837-0.287 c-2.375,0.293-3.454,4.996-4.338,6.73c-0.984,1.931-2.941,5.073-3.427,1.296c-0.188-1.465-0.513-4.893,0.265-6.332 c-0.623,0.078-1.245,0.155-1.867,0.233c0.569,1.805-4.671,7.635-5.194,6.662c-1.499-2.793,2.056-8.092,5.127-8.029 c0.081-0.351,0.161-0.701,0.241-1.052c-3.333,0.752-7.228,0.336-10.639,0.508c-5.481,0.277-10.942,0.814-16.324,1.905 c-2.909,0.59-6.886,1.579-8.267,4.542c-1.262,2.708,2.226,6.331,3.826,8.018c3.502,3.694,9.321,3.818,13.548,1.51 c7.938-4.335,6.997-16.551,5.349-23.856c-2.128-9.436-6.925-18.477-12.256-26.483C9.983,2.834,8.531-0.2,6.817,0.01 c-1.894,0.232-1.537,2-1.32,3.447c0.67,4.475,2.242,8.895,3.565,13.206c1.137,3.703,1.292,7.561,1.426,11.411 c0.156,4.503,0.079,9.017-0.024,13.521c-0.038,1.643-0.68,4.405-0.132,5.993c0.23,0.669,1.816,0.206,1.933-0.377 c0.869-4.365,0.736-9.153,1.042-13.583c0.235-3.417,2.055-12.556,0.3-14.683C14.039,19.471,15.894,18.785,15.398,18.184 L15.398,18.184z"/>
<path d="M76.789,25.429c0.05-0.042,0.102-0.081,0.153-0.12c0.061-0.046,0.124-0.088,0.188-0.131 c0.023-0.014,0.046-0.029,0.069-0.043c-0.179,0.115-0.383,0.159-0.612,0.133c-0.134-0.038-0.268-0.075-0.401-0.112 c-0.09-0.286-0.142-0.339-0.156-0.16c-0.16,0.862,1.804,0.565,1.944-0.194c0.138-0.747-0.721-0.906-1.287-0.724 c-0.419,0.135-0.799,0.344-1.139,0.625c-0.268,0.222-0.565,0.625-0.137,0.876C75.794,25.801,76.454,25.705,76.789,25.429 L76.789,25.429z"/>
<path d="M186.968,30.306c0.096-0.661,0.286-1.297,0.53-1.917c0.307-0.78,1.034-1.18,1.345-1.922 c0.486-1.16-0.021-2.855-0.375-3.995c-0.119-0.384-2.039,0.172-1.932,0.518c0.38,1.221,0.825,2.848,0.312,4.074 c-0.118,0.281-0.539,0.561-0.745,0.797c-0.297,0.341-0.467,0.801-0.63,1.215c-0.217,0.552-0.352,1.16-0.437,1.748 C185.015,30.974,186.89,30.852,186.968,30.306L186.968,30.306z"/>
<path d="M101.883,59.183c0.03-0.038,0.135-0.107,0.007-0.015c-0.894,0.648-1.399,0.012-0.93,0.38 c0.122,0.096,0.212,0.234,0.302,0.358c0.292,0.405,2.15-0.215,1.813-0.684c-0.404-0.562-0.926-0.73-1.605-0.596 c-0.457,0.091-1.042,0.265-1.349,0.653c-0.268,0.339,0.231,0.395,0.474,0.382C100.987,59.641,101.621,59.516,101.883,59.183 L101.883,59.183z"/>
<path d="M118.369,61.261c0.149-0.022-0.272,0.005-0.111,0.007c-0.144-0.019-0.17-0.021-0.079-0.007 c0.165,0.027-0.133-0.063,0.032,0.018c0.15,0.073,0.181,0.514,0.159,0.742c-0.074,0.772,1.869,0.398,1.931-0.246 c0.057-0.589-0.016-1.1-0.55-1.425c-0.304-0.185-0.775-0.198-1.115-0.147c-0.362,0.055-0.992,0.229-1.099,0.652 C117.43,61.278,118.126,61.297,118.369,61.261L118.369,61.261z"/>
</svg>