<?xml version="1.0" encoding="UTF-8"?>
<svg version="1.1" xmlns="http://www.w3.org/2000/svg" width="516" height="266" >
<path d="M80.28,11.415C65.591,28.378,51.277,45.697,37.45,63.37C28.904,74.293,20.24,85.371,13.18,97.336 c-1.775,3.009-3.922,6.503-4.354,10.047c-0.542,4.435,5.283,4.332,8.275,5.03c7.294,1.702,20.061,4.159,22.579,12.519 c1.419,4.71-3.194,10.078-6.146,13.132c-4.271,4.418-10.326,6.686-16.195,4.225c-9.746-4.087-12.056-15.342-11.303-24.684 c0.929-11.527,5.599-22.708,10.839-32.87c11.99-23.25,30.538-41.695,51.063-57.512c8.496-6.547,17.378-12.676,26.708-17.977 c3.085-1.753,6.284-3.352,9.605-4.606c1.431-0.541,2.527-0.968,2.511-0.397c-0.061,2.137-1.479,4.419-2.405,6.262 c-1.979,3.944-4.25,7.746-6.526,11.524c-6.482,10.758-13.424,21.242-20.37,31.704c-12.842,19.344-26.553,38.25-38.543,58.143 c-1.612,2.673,4.021,1.827,5.093,0.802c9.274-8.868,19.38-17.048,30.066-24.144c4.487-2.98,31.975-19.049,27.048-2.834 c-3.799,12.504-13.36,23.238-19.173,34.848c-1.965,3.925-4.428,8.916-3.402,13.436c1.039,4.575,6.946,4.996,10.678,4.697 c13.118-1.051,25.435-12.166,35.172-19.985c5.891-4.731,11.639-9.642,17.66-14.209c1.518-1.151,8.223-7.108,10.31-5.926 c-0.15-0.561-0.301-1.123-0.451-1.684c-3.758,4.972-7.203,10.214-10.292,15.625c-2.497,4.374-8.57,14.082-4.235,18.963 c5.443,6.13,16.098-1.971,19.709-6.134c7-8.071,9.453-19.965,2.554-28.808c-0.491,0.864-0.982,1.729-1.474,2.594 c8.546-4.596,20.564-7.313,28.256,0.147c13.044,12.652,0.952,32.187-11.306,39.736c1.232,0.699,2.465,1.398,3.697,2.097 c8.909-6.735,17.958-13.292,27.084-19.73c7.305-5.154,14.687-10.203,22.223-15.013c5.724-3.654,11.636-7.549,18.046-9.903 c-0.801-0.935-1.602-1.869-2.402-2.804c-7.507,3.408-17.851,7.354-23.011,14.047c-3.135,4.067,1.986,5.506,5.044,6.852 c2.636,1.161,5.261,2.461,6.971,4.857c2.797,3.917-2.175,9.415-4.501,12.015c-2.087,2.334,2.081,2.779,3.566,2.032 c8.587-4.315,16.468-10.387,24.102-16.14c26.843-20.231,51.521-43.363,75.396-66.965c-1.577-0.42-3.153-0.84-4.73-1.261 C311.4,67.518,295.76,87.53,286.027,109.474c-3.639,8.203-7.491,24.354,6.877,23.936c6.587-0.191,11.988-6.255,14.929-11.534 c4.159-7.467,4.206-16.371-0.179-23.689c-0.946-1.579-5.57-0.351-5.589,1.498c-0.081,8.033,13.142,8.618,18.359,8.542 c12.028-0.174,24.474-3.134,35.823-6.954c4.516-1.52,11.625-3.721,13.425-8.775c0.913-2.564-1.937-4.667-3.882-5.603 c-3.463-1.667-6.797,0.235-9.639,2.295c-6.246,4.528-17.29,16.134-8.367,23.152c4.722,3.714,12.572,3.6,18.185,3.573 c9.31-0.045,18.622-0.388,27.757,1.762c3.393,0.799,8.651,2.295,9.766,6.14c0.853,2.941-2.529,5.362-4.715,6.494 c-3.598,1.862-0.347,3.945,2.402,2.804c11.731-4.87,23.825-9.28,36.183-12.255c6.013-1.448,12.79-3.598,15.974,3.094 c2.716,5.708,3.35,10.469,10.913,10.085c5.068-0.257,10.095-3.096,14.673-4.999c6.206-2.581,12.479-5.044,18.999-6.716 c3.549-0.91,9.713-2.406,11.034,2.318c0.827,2.959-0.274,6.903-0.813,9.816c-4.744,25.667-15.21,50.912-25.264,74.849 c-5.854,13.936-11.983,27.727-16.558,42.154c-0.888,2.799-1.664,5.629-2.508,8.44c-0.193,0.646-0.388,1.288-0.669,1.893 c-0.594,1.274-0.302,0.019,1.396-0.088c0.854,0.346,1.706,0.692,2.559,1.038c-0.074-0.165,4.892-5.086,5.832-6 c3.335-3.239,6.938-6.205,10.897-8.647c3.346-2.065-1.622-3.378-3.697-2.098c-5.031,3.105-9.508,7.043-13.683,11.21 c-1.012,1.01-6.003,5.187-5.145,7.089c0.455,1.01,1.569,1.1,2.558,1.038c3.038-0.19,4.604-2.523,5.48-5.102 c1.614-4.748,2.835-9.628,4.447-14.383c8.849-26.104,21.18-50.889,30.161-76.982c3.73-10.841,7.223-21.842,9.626-33.063 c1.092-5.095,3.507-13.472-1.938-16.848c-7.079-4.389-19.63,1.333-26.351,3.803c-6.025,2.214-11.824,5.203-17.939,7.142 c-4.48,1.421-5.79-0.961-7.138-4.731c-1.775-4.966-4.155-8.845-9.708-9.41c-6.195-0.63-12.914,1.382-18.814,2.994 c-11.188,3.055-22.202,7.111-32.91,11.557c0.801,0.935,1.602,1.869,2.402,2.804c3.52-1.821,7.678-4.582,8.236-8.873 c0.596-4.569-4.479-7.388-8.037-8.718c-9.545-3.567-20.477-3.614-30.513-3.343c-5.045,0.136-20.533,1.4-20.64-6.994 c-0.063-4.93,4.546-9.506,7.93-12.528c1.295-1.156,2.751-2.319,4.36-3.003c-1.058,0.449-2.389-0.269-1.044,0.378 c0.507,0.244,1.036,0.536,1.466,0.9c3.629,3.083-4.353,5.763-6.213,6.497c-11.384,4.494-25.003,7.456-37.271,7.114 c-3.401-0.094-7.614-0.555-10.19-3.057c-0.522-0.507-0.926-1.096-1.173-1.776c-0.114-0.313-0.19-1.464-0.199-0.637 c-1.863,0.499-3.726,0.998-5.589,1.498c4.144,6.915,3.394,15.005-0.433,21.873c-2.792,5.013-8.531,10.544-12.748,3.951 c-2.056-3.215-0.716-7.813,0.293-11.131c1.724-5.673,4.62-11.018,7.514-16.164c9.71-17.264,21.817-33.491,34.415-48.757 c2.322-2.815-3.256-2.719-4.73-1.261c-23.368,23.102-47.501,45.703-73.686,65.617c-5.797,4.409-11.721,8.671-17.862,12.59 c-1.522,0.971-3.063,1.914-4.63,2.812c-1.239,0.71-0.07,0.081-0.992,0.544c1.188,0.677,2.377,1.355,3.566,2.032 c3.912-4.373,8.793-10.518,4.681-16.278c-1.348-1.889-3.732-3.132-5.745-4.145c-1.213-0.611-5.885-1.768-6.392-3.025 c-1.259-3.125,17.916-11.551,20.625-12.781c3.739-1.697,0.314-3.801-2.402-2.804c-14.286,5.245-27.383,15.694-39.727,24.333 c-9.762,6.832-19.416,13.835-28.921,21.021c-3.227,2.439,1.69,3.333,3.697,2.097c14.52-8.942,26.313-29.185,12.959-44.217 c-8.773-9.875-25.871-6.02-36.009-0.567c-0.845,0.454-2.356,1.463-1.474,2.594c5.783,7.414,4.022,16.587-0.972,23.903 c-2.363,3.462-12.675,11.446-11.31,2.09c0.92-6.299,5.131-12.436,8.462-17.699c2.16-3.412,4.454-6.76,6.889-9.982 c0.446-0.59,0.131-1.354-0.451-1.684c-4.027-2.281-9.172,0.638-12.62,2.723c-6.5,3.93-12.307,9.115-18.165,13.913 c-7.099,5.814-14.224,11.638-21.942,16.624c-4.4,2.842-12.499,8.331-18.079,5.81c-12.079-5.458,28.589-46.479,20.418-57.485 c-2.997-4.037-10.822-2.329-14.743-1.304c-8.042,2.101-15.486,6.688-22.342,11.24c-10.719,7.118-20.867,15.467-30.169,24.362 c1.698,0.267,3.396,0.535,5.093,0.802c17.209-28.549,37.332-55.315,55.043-83.562c3.544-5.653,7.051-11.356,10.127-17.281 c1.198-2.307,3.768-6.254,2.921-9.027c-2.731-8.944-30.801,10.426-33.625,12.3c-19.516,12.958-38.06,28.41-52.615,46.842 C18.125,71.749,11.384,83.157,6.37,95.227c-3.742,9.007-6.784,19.038-6.324,28.898c0.416,8.907,4.518,17.026,12.739,21.188 c7.7,3.898,17.423,1.029,23.641-4.33c5.749-4.954,12.327-13.41,7.454-20.96c-4.33-6.708-15.113-9.042-22.256-10.813 c-1.686-0.417-3.383-0.79-5.079-1.163c-0.982-0.215-2.004-0.634-1.79-0.392c-0.253-0.287-0.002-1.621,0.19-2.333 c1.054-3.896,3.582-7.566,5.7-10.941c7.225-11.511,15.673-22.293,24.061-32.966c13.021-16.571,26.507-32.808,40.304-48.74 C87.33,9.997,81.725,9.747,80.28,11.415L80.28,11.415z"/>
</svg>