<?xml version="1.0" encoding="UTF-8" standalone="no"?>
<!-- Created with Inkscape (http://www.inkscape.org/) -->
<svg
   xmlns:dc="http://purl.org/dc/elements/1.1/"
   xmlns:cc="http://creativecommons.org/ns#"
   xmlns:rdf="http://www.w3.org/1999/02/22-rdf-syntax-ns#"
   xmlns:svg="http://www.w3.org/2000/svg"
   xmlns="http://www.w3.org/2000/svg"
   xmlns:sodipodi="http://sodipodi.sourceforge.net/DTD/sodipodi-0.dtd"
   xmlns:inkscape="http://www.inkscape.org/namespaces/inkscape"
   id="svg2440"
   sodipodi:version="0.32"
   inkscape:version="0.46"
   width="800"
   height="182"
   version="1.0"
   sodipodi:docname="Arroyo Signature.svg"
   inkscape:output_extension="org.inkscape.output.svg.inkscape">
  <metadata
     id="metadata2445">
    <rdf:RDF>
      <cc:Work
         rdf:about="">
        <dc:format>image/svg+xml</dc:format>
        <dc:type
           rdf:resource="http://purl.org/dc/dcmitype/StillImage" />
      </cc:Work>
    </rdf:RDF>
  </metadata>
  <defs
     id="defs2443">
    <inkscape:perspective
       sodipodi:type="inkscape:persp3d"
       inkscape:vp_x="0 : 526.18109 : 1"
       inkscape:vp_y="0 : 1000 : 0"
       inkscape:vp_z="744.09448 : 526.18109 : 1"
       inkscape:persp3d-origin="372.04724 : 350.78739 : 1"
       id="perspective2447" />
  </defs>
  <sodipodi:namedview
     inkscape:window-height="744"
     inkscape:window-width="1280"
     inkscape:pageshadow="2"
     inkscape:pageopacity="0.0"
     guidetolerance="10.0"
     gridtolerance="10.0"
     objecttolerance="10.0"
     borderopacity="1.0"
     bordercolor="#666666"
     pagecolor="#ffffff"
     id="base"
     showgrid="false"
     showguides="true"
     inkscape:guide-bbox="true"
     inkscape:zoom="0.84333392"
     inkscape:cx="400"
     inkscape:cy="91"
     inkscape:window-x="-4"
     inkscape:window-y="-4"
     inkscape:current-layer="layer1" />
  <g
     inkscape:groupmode="layer"
     id="layer1"
     inkscape:label="Signature"
     sodipodi:insensitive="true">
    <path
       style="fill:#000000"
       d="M 1.7168342,181.414 C -0.17951618,180.65664 -0.43801217,180.22674 0.61255141,179.57745 C 1.3669563,179.11121 1.7547601,178.12181 1.4743377,177.3788 C 1.0159114,176.16416 3.1367067,164.69 5.5130958,155.52788 C 7.2804912,148.71372 11.677454,136.56562 14.665256,130.24192 C 16.330384,126.71767 17.692762,123.51252 17.692762,123.11937 C 17.692762,121.65308 25.108641,106.95159 26.832809,104.99983 C 27.818168,103.8844 29.652259,101.15597 30.908567,98.936646 C 37.413483,87.445421 39.355219,84.684233 41.997722,83.167644 C 43.585419,82.256431 45.125455,80.589265 45.420025,79.46283 C 45.757028,78.174127 46.498693,77.62317 47.420364,77.976849 C 48.225982,78.285993 51.095045,77.525108 53.79606,76.285993 C 58.414154,74.167401 58.863352,73.615488 61.329071,67.030473 C 62.771212,63.179043 64.534451,58.677883 65.24738,57.027883 C 67.475963,51.870053 68.0358,47.527883 66.472217,47.527883 C 64.75305,47.527883 62.692762,49.516773 62.692762,51.176363 C 62.692762,51.863023 61.521488,53.685523 60.089931,55.226363 C 58.658374,56.767203 56.666715,59.632103 55.664023,61.592813 C 54.661332,63.553523 52.480658,66.613933 50.818082,68.393723 C 49.155506,70.17352 47.51684,72.506803 47.176602,73.578799 C 46.836364,74.650795 46.176943,75.527883 45.711223,75.527883 C 45.245504,75.527883 43.242642,77.102883 41.26042,79.027883 C 39.278197,80.952883 37.252065,82.527883 36.757904,82.527883 C 36.263742,82.527883 35.689461,83.037785 35.481724,83.660998 C 35.273986,84.284212 33.773986,84.752674 32.14839,84.702026 C 22.373452,84.39747 20.692762,82.966954 20.692762,74.951588 C 20.692762,70.145358 22.623462,61.804003 24.844848,57.012993 C 25.358669,55.904803 25.917712,53.697713 26.087166,52.108343 C 26.256619,50.518983 27.071718,48.723953 27.898496,48.119393 C 28.725275,47.514843 29.745733,45.936343 30.166182,44.611633 C 30.58663,43.286913 32.677113,40.385493 34.811698,38.164023 C 36.946283,35.942553 38.692762,33.539413 38.692762,32.823703 C 38.692762,31.005813 59.819529,9.5278829 61.607697,9.5278829 C 62.41105,9.5278829 64.671334,7.7174129 66.63055,5.5046129 C 70.066985,1.6233929 70.306238,1.5247229 73.406599,2.7102029 C 79.443646,5.0185529 79.996297,11.070323 75.167217,21.989723 L 72.717982,27.527883 L 75.170188,27.527883 C 79.895865,27.527883 80.327348,32.876583 76.501254,44.027883 C 74.459524,49.978583 68.978777,65.066263 68.237097,66.777883 C 67.091779,69.420997 69.905435,68.986895 73.098261,66.027883 C 74.581911,64.652883 76.1222,63.527883 76.521126,63.527883 C 76.920053,63.527883 79.034368,61.742683 81.219605,59.560773 C 83.404841,57.378873 85.765076,55.578873 86.46457,55.560773 C 87.926411,55.522973 95.472415,44.253993 96.333637,40.822613 C 96.650405,39.560513 97.270652,38.527883 97.711964,38.527883 C 98.761479,38.527883 102.69276,30.385813 102.69276,28.212163 C 102.69276,27.285803 103.13638,26.527883 103.67857,26.527883 C 104.22077,26.527883 105.87057,24.705213 107.3448,22.477503 C 109.48947,19.236683 110.54164,18.487153 112.60899,18.727503 C 114.83239,18.985983 115.14828,19.446313 114.87388,22.027883 C 114.69849,23.677883 114.54296,26.747013 114.52825,28.848173 C 114.50913,31.580253 114.12824,32.525233 113.19109,32.165613 C 111.54411,31.533613 110.48935,32.759973 102.3357,44.787063 C 93.79298,57.388073 83.27036,80.527883 86.08289,80.527883 C 89.491854,80.527883 107.25259,64.137323 112.95525,55.728623 C 114.8686,52.907353 115.62286,52.511663 118.16151,52.997373 C 119.79432,53.309783 121.49657,53.931693 121.94429,54.379413 C 123.12105,55.556173 121.80048,58.358923 119.76485,59.005003 C 118.80612,59.309293 116.14769,61.862003 113.85723,64.677693 C 110.81037,68.423233 109.69276,70.700288 109.69276,73.162506 C 109.69276,77.786612 112.15031,77.605161 118.60296,72.504629 C 122.33316,69.556081 123.69276,67.802213 123.69276,65.938893 C 123.69276,64.540523 124.15353,62.535443 124.71669,61.483173 C 125.27985,60.430893 125.93132,56.685043 126.1644,53.159073 C 126.43402,49.080183 127.33335,45.525923 128.63673,43.388043 C 129.76343,41.539953 130.68697,39.240383 130.68902,38.277883 C 130.69108,37.315383 131.25526,36.531393 131.94276,36.535683 C 133.74797,36.546953 135.69276,41.313803 135.69276,45.727253 C 135.69276,47.817593 136.14276,49.527883 136.69276,49.527883 C 137.91672,49.527883 141.69276,45.856563 141.69276,44.666553 C 141.69276,43.177843 146.70937,44.690403 147.65941,46.465563 C 148.19086,47.458593 148.20273,49.766743 147.68812,52.048463 C 147.20559,54.187943 146.50119,59.896053 146.12279,64.733153 C 145.46485,73.143652 145.52392,73.527883 147.47488,73.527883 C 149.78622,73.527883 153.84118,69.124708 156.29824,63.946833 C 157.20777,62.030153 159.22384,59.100373 160.77839,57.436213 C 163.16526,54.881063 163.92275,54.580603 165.64881,55.504363 C 168.2007,56.870093 168.20785,58.094673 165.69276,63.027883 C 163.63509,67.063893 162.93712,75.527883 164.66197,75.527883 C 168.42735,75.527883 182.96425,64.398593 184.17287,60.590533 C 184.49539,59.574373 186.0943,58.189983 187.72601,57.514113 C 189.35772,56.838233 190.69276,55.664833 190.69276,54.906563 C 190.69276,52.315483 192.44159,53.522043 193.04276,56.527883 C 193.39069,58.267533 194.27543,59.527883 195.14871,59.527883 C 197.43162,59.527883 198.14837,64.039323 196.28753,66.696043 C 193.89228,70.115737 194.27991,74.057976 197.24038,76.386682 C 199.40996,78.093276 200.2632,78.227839 202.99038,77.293505 C 204.75169,76.690079 207.96126,74.695959 210.12276,72.862125 C 216.37755,67.555513 220.78493,68.883001 216.66126,74.831507 C 211.91942,81.671724 201.57242,85.578626 195.71357,82.7411 C 193.99502,81.908782 191.92574,79.945314 191.11517,78.377839 C 189.47115,75.198657 188.4801,74.883398 186.46493,76.898566 C 184.8668,78.496696 175.00997,81.527883 171.4113,81.527883 C 170.05079,81.527883 168.37745,82.202883 167.69276,83.027883 C 164.97131,86.307028 157.69276,83.003326 157.69276,78.488928 C 157.69276,75.852849 156.08499,76.020054 152.51039,79.027883 C 148.68618,82.245747 146.45577,82.18144 142.60675,78.742342 C 140.08876,76.492521 139.4276,75.043193 139.16893,71.206396 C 138.98254,68.441763 139.44053,65.321463 140.26455,63.741933 C 143.15496,58.201443 140.80152,53.679113 137.48898,58.408433 C 136.76453,59.442733 135.32474,60.455233 134.28946,60.658433 C 133.25418,60.861633 132.08729,61.702883 131.69638,62.527883 C 131.30547,63.352883 130.13224,65.827883 129.0892,68.027883 C 124.54506,77.612459 114.30058,84.850074 108.43489,82.619939 C 106.96124,82.059659 105.18316,80.684741 104.4836,79.564565 C 102.9079,77.041469 101.20604,76.9693 99.499466,79.353208 C 97.595556,82.012764 87.760218,86.221695 83.692762,86.117522 L 80.192762,86.027883 L 80.44394,79.695245 C 80.587669,76.071574 81.336281,72.447218 82.19394,71.222739 C 83.706255,69.063607 84.238108,65.527883 83.050575,65.527883 C 82.697373,65.527883 80.109873,67.457503 77.300575,69.81593 C 74.491278,72.174355 70.289291,74.938627 67.962827,75.958756 C 64.812971,77.339933 63.217086,78.87905 61.712827,81.986433 C 60.601791,84.281527 59.692762,86.678568 59.692762,87.313191 C 59.692762,87.947814 58.792762,90.069425 57.692762,92.027883 C 56.592762,93.986341 55.692762,96.644928 55.692762,97.935855 C 55.692762,99.226781 55.017762,100.84319 54.192762,101.52788 C 53.367762,102.21257 52.692762,103.56257 52.692762,104.52788 C 52.692762,105.49319 52.012523,106.84754 51.181119,107.53754 C 49.567893,108.8764 45.692762,116.96964 45.692762,119.00001 C 45.692762,119.66985 44.792762,121.03239 43.692762,122.02788 C 42.592762,123.02337 41.692762,124.43695 41.692762,125.16917 C 41.692762,125.90139 39.667762,130.16141 37.192762,134.63587 C 34.717762,139.11034 32.692762,143.36495 32.692762,144.09056 C 32.692762,144.81617 32.243637,145.68742 31.694706,146.02668 C 31.145776,146.36594 29.516385,149.13839 28.073837,152.18768 C 26.63129,155.23698 23.592915,160.50858 21.321893,163.90236 C 19.050871,167.29613 16.071837,172.19401 14.701816,174.78654 C 13.226945,177.57748 11.18741,179.87204 9.7018159,180.41177 C 8.3218365,180.91312 6.517762,181.5662 5.692762,181.86307 C 4.867762,182.15993 3.0785945,181.95785 1.7168342,181.414 z M 10.152557,171.57231 C 11.125931,170.49674 12.006354,168.13424 12.109052,166.32231 C 12.25038,163.82882 12.708713,163.09932 13.994269,163.32172 C 14.965522,163.48974 15.692762,162.97581 15.692762,162.12141 C 15.692762,161.29963 16.325517,160.2674 17.098884,159.82757 C 17.872252,159.38774 20.164787,155.65288 22.193408,151.52788 C 24.222029,147.40288 27.002122,142.00288 28.371393,139.52788 C 35.282731,127.03542 37.692762,121.50218 37.692762,118.12675 C 37.692762,116.20288 38.207269,115.52788 39.67371,115.52788 C 40.968997,115.52788 41.878739,114.63507 42.302051,112.94846 C 42.658118,111.52978 44.832969,106.69228 47.135054,102.19846 C 50.545393,95.54126 55.692762,83.409937 55.692762,82.029648 C 55.692762,81.853502 53.9145,82.568544 51.741068,83.618632 C 49.567637,84.66872 47.333469,85.527883 46.776252,85.527883 C 46.219035,85.527883 45.234999,86.540383 44.589507,87.777883 C 43.944015,89.015383 42.778625,90.702883 41.999753,91.527883 C 41.220881,92.352883 39.05245,95.502883 37.181017,98.527883 C 35.309585,101.55288 33.309141,104.57139 32.735587,105.23567 C 32.162033,105.89996 31.692762,106.99596 31.692762,107.67122 C 31.692762,108.34649 30.882135,109.82798 29.89137,110.96343 C 28.900604,112.09888 27.053074,115.50288 25.785747,118.52788 C 24.51842,121.55288 22.404047,126.32284 21.087139,129.12779 C 19.770232,131.93275 18.692762,134.74525 18.692762,135.37779 C 18.692762,136.01034 18.242762,136.52788 17.692762,136.52788 C 17.142762,136.52788 16.692762,137.19005 16.692762,137.99937 C 16.692762,138.80868 15.539578,142.07118 14.13013,145.24937 C 12.720683,148.42755 11.757734,152.03752 11.990244,153.27153 C 12.222755,154.50554 11.800939,156.02314 11.052876,156.64397 C 10.304813,157.26481 9.6927619,158.75267 9.6927619,159.95032 C 9.6927619,161.14798 9.2148006,162.60584 8.6306255,163.19002 C 7.4221536,164.39849 6.5699263,173.52788 7.6655875,173.52788 C 8.0600472,173.52788 9.1791836,172.64787 10.152557,171.57231 z M 31.588302,71.930108 C 33.349851,71.051332 35.842861,68.666264 37.128325,66.629953 C 38.413789,64.593653 41.298629,60.925153 43.539081,58.477733 C 49.667281,51.783433 50.692762,50.573383 50.692762,50.036533 C 50.692762,49.766293 52.267762,47.481823 54.192762,44.959943 C 56.117762,42.438053 57.692762,39.771663 57.692762,39.034623 C 57.692762,38.297583 58.179063,37.532453 58.77343,37.334323 C 59.367798,37.136203 60.183331,35.411203 60.585726,33.500993 C 61.113378,30.996173 61.789955,30.110283 63.012493,30.323423 C 64.029858,30.500803 65.057796,29.697973 65.583406,28.315513 C 66.065081,27.048613 67.861735,23.633313 69.575971,20.725963 C 73.13479,14.690193 73.476449,12.527883 70.871323,12.527883 C 68.526204,12.527883 61.450834,15.952623 62.215723,16.717513 C 62.535954,17.037743 61.218878,18.275673 59.288888,19.468473 C 52.443558,23.699123 40.571987,39.113683 35.560931,50.277883 C 34.264875,53.165383 32.864333,55.527883 32.448614,55.527883 C 32.032895,55.527883 31.692762,55.982783 31.692762,56.538783 C 31.692762,57.094773 30.836817,59.457273 29.790663,61.788783 C 27.641686,66.578083 26.483272,71.985059 27.40804,72.909827 C 28.20148,73.703268 27.885444,73.777337 31.588302,71.930108 z M 707.36698,167.36544 C 704.34829,165.6761 705.45614,160.08728 711.56054,146.21004 C 712.72616,143.56023 715.48275,138.87448 717.6863,135.79725 C 719.88985,132.72003 721.69276,129.7668 721.69276,129.23452 C 721.69276,128.70224 723.26776,126.07445 725.19276,123.395 C 727.11776,120.71554 728.69276,118.23839 728.69276,117.89024 C 728.69276,117.54208 729.70526,116.25625 730.94276,115.03284 C 735.85059,110.1809 738.75841,105.9472 738.32957,104.27788 C 738.01545,103.05515 738.4684,102.52788 739.83289,102.52788 C 740.95583,102.52788 742.50974,101.25561 743.48927,99.534206 C 744.42619,97.887683 745.72462,96.537683 746.37467,96.534206 C 749.42714,96.517876 754.69276,82.192991 754.69276,73.905218 C 754.69276,70.976706 751.93568,70.715315 748.89181,73.355247 C 747.73298,74.360297 744.97912,75.996878 742.77213,76.992093 C 738.9791,78.702511 738.61706,78.7083 736.15917,77.097828 C 733.93443,75.640125 733.7491,75.163392 734.87584,73.796673 C 735.61226,72.903407 734.42955,73.303181 732.19276,74.703597 C 726.16685,78.476314 723.4356,78.876335 721.23671,76.308222 L 719.38794,74.149021 L 716.29035,77.736824 C 714.58668,79.710115 711.78489,82.028663 710.06417,82.889152 C 707.17647,84.333213 706.81341,84.318684 705.34893,82.700454 C 703.93792,81.141299 703.91919,80.42591 705.17969,76.237557 C 705.95927,73.647236 706.18362,71.527883 705.67826,71.527883 C 705.1729,71.527883 703.20944,72.990383 701.31502,74.777883 C 695.67868,80.096106 694.93054,80.527883 691.35193,80.527883 L 687.92669,80.527883 L 689.32154,76.277883 C 690.08871,73.940383 691.91632,69.445621 693.38288,66.289523 C 696.37104,59.858913 695.89542,57.718423 692.45676,62.121613 C 691.21156,63.716083 687.65075,67.722283 684.54386,71.024272 C 681.43696,74.326258 678.06196,78.017986 677.04386,79.228111 C 673.16217,83.841912 666.73579,79.053025 669.60773,73.686765 C 670.85629,71.353801 671.06633,66.527883 669.9193,66.527883 C 669.4939,66.527883 665.67011,70.02412 661.42199,74.297298 C 657.17388,78.570476 651.68853,83.16451 649.23234,84.506263 L 644.76653,86.945813 L 642.15376,84.491249 C 639.52413,82.020838 639.45214,81.215572 641.28532,74.777883 C 642.21736,71.504788 640.59173,72.002416 635.6019,76.517663 C 626.89732,84.394335 625.55833,85.527883 624.95865,85.527883 C 624.62402,85.527883 623.54951,86.252535 622.57084,87.13822 C 621.00177,88.558208 620.28323,88.587759 616.4921,87.38822 L 612.19276,86.027883 L 612.55149,79.182615 C 612.74879,75.417717 613.53352,71.142717 614.29533,69.682615 C 615.05714,68.222513 615.68321,65.812743 615.6866,64.327573 C 615.68999,62.842403 616.25961,61.267403 616.95244,60.827573 C 617.64526,60.387743 619.30384,57.327883 620.63816,54.027883 C 621.97249,50.727883 624.55564,45.894993 626.37849,43.288143 C 628.20134,40.681283 629.69276,38.078783 629.69276,37.504803 C 629.69276,36.930833 631.26776,34.886213 633.19276,32.961213 C 635.36523,30.788753 636.69276,28.492673 636.69276,26.907683 C 636.69276,24.988733 637.43829,24.072753 639.69276,23.221783 C 641.34276,22.598973 642.69276,21.806923 642.69276,21.461653 C 642.69276,21.116393 643.63977,19.752553 644.79722,18.430893 C 645.95467,17.109233 647.86717,14.823323 649.04722,13.351073 C 650.22727,11.878833 653.58206,9.7743829 656.50233,8.6745229 C 661.40077,6.8296129 661.86124,6.8045829 662.44917,8.3513229 C 662.79967,9.2734329 664.13529,10.857823 665.41722,11.872193 C 667.35983,13.409343 667.64723,14.325313 667.14288,17.372193 C 666.41826,21.749823 663.47508,30.825513 662.55229,31.527883 C 661.75374,32.135693 655.69276,43.096393 655.69276,43.932693 C 655.69276,44.260043 656.5662,44.527883 657.63374,44.527883 C 660.36247,44.527883 661.0245,46.107883 659.49927,48.980163 C 647.66252,71.270924 645.32353,76.527883 647.24242,76.527883 C 649.38827,76.527883 654.45651,72.439833 661.95784,64.658393 C 669.76393,56.560813 670.69614,55.194853 670.72456,51.812593 C 670.75946,47.659613 672.56764,44.527883 674.93056,44.527883 C 677.29809,44.527883 678.98209,47.238973 678.30076,49.953613 C 677.96232,51.302043 678.13707,52.684453 678.68909,53.025613 C 680.05814,53.871733 679.95699,60.853863 678.53032,63.985053 C 676.99769,67.348813 678.14474,68.327373 680.82001,65.938423 C 683.58722,63.467363 690.69276,53.901583 690.69276,52.647313 C 690.69276,50.424243 696.01799,45.432113 698.07554,45.726343 C 699.83624,45.978123 700.14461,46.616193 699.9068,49.515613 C 699.71014,51.913343 700.16176,53.397663 701.35301,54.268713 C 702.98993,55.465663 702.99163,55.796313 701.38402,60.281593 C 700.44839,62.892053 699.68509,65.365383 699.68781,65.777883 C 699.69724,67.207203 702.58549,66.519673 703.88872,64.777883 C 704.60888,63.815383 707.89689,61.695453 711.19543,60.066923 C 714.49396,58.438393 717.55262,56.525893 717.99245,55.816923 C 718.88055,54.385383 724.27762,54.047153 725.09625,55.371733 C 725.38309,55.835843 725.15923,57.876303 724.59878,59.906073 C 724.03833,61.935853 723.86053,64.481123 724.20366,65.562233 C 725.49146,69.619721 733.13339,66.835993 736.5353,61.070173 C 738.41461,57.885003 739.01797,57.555023 742.699,57.699263 C 744.94325,57.787203 747.00197,58.219183 747.27393,58.659223 C 747.54589,59.099263 746.85138,61.256793 745.73058,63.453753 C 744.60978,65.650703 743.69276,67.916133 743.69276,68.488043 C 743.69276,70.838825 747.77824,69.256549 752.37146,65.126853 C 758.45023,59.661513 761.51185,59.006143 763.61433,62.720223 C 764.90794,65.005423 764.94863,66.122133 763.88344,70.104748 C 762.57768,74.98685 762.92898,76.69166 764.84579,74.774853 C 765.46162,74.159019 765.96549,71.761292 765.96549,69.446571 C 765.96549,65.267463 765.9774,65.253783 767.66645,67.493003 C 769.14095,69.447794 769.63811,69.578961 771.40068,68.478213 C 772.51898,67.779833 774.85987,65.030303 776.60266,62.368153 C 778.34546,59.706003 780.42869,57.527883 781.23207,57.527883 C 783.92323,57.527883 784.18318,57.415573 786.57994,55.217333 C 788.24694,53.688413 789.10171,53.404993 789.41327,54.277883 C 789.65866,54.965383 790.68512,55.527883 791.69431,55.527883 C 794.56609,55.527883 796.69276,56.615923 796.69276,58.085183 C 796.69276,58.824013 797.42071,59.835883 798.31043,60.333793 C 799.78181,61.157223 799.7592,61.496843 798.06043,64.089503 C 797.03321,65.657233 796.26946,67.184713 796.3632,67.483903 C 796.45694,67.783093 794.43194,70.320258 791.8632,73.12205 C 786.06351,79.44792 780.87541,80.987553 777.15054,77.488216 C 775.87822,76.292934 775.07787,74.687881 775.37198,73.92143 C 776.18741,71.796461 775.0665,72.245056 772.06776,75.243796 C 770.574,76.737548 769.07603,79.308306 768.73892,80.956592 C 768.31679,83.020545 767.38759,84.127788 765.75401,84.513423 C 764.44943,84.821394 762.88945,85.92018 762.2874,86.955169 C 761.68535,87.990159 759.73026,91.119663 757.94276,93.909622 C 756.15526,96.699581 754.69068,99.442537 754.68813,100.00508 C 754.6823,101.29273 750.20325,112.35072 749.3364,113.21757 C 748.9824,113.57157 748.69276,114.70503 748.69276,115.73636 C 748.69276,116.76769 747.79276,118.57754 746.69276,119.75825 C 745.59276,120.93897 744.69276,122.66505 744.69276,123.594 C 744.69276,124.52294 744.01776,125.84319 743.19276,126.52788 C 742.36776,127.21257 741.69276,128.33079 741.69276,129.01282 C 741.69276,129.69485 740.34276,131.95162 738.69276,134.02788 C 737.04276,136.10414 735.69276,138.30777 735.69276,138.92484 C 735.69276,139.54191 734.79276,140.60885 733.69276,141.29581 C 732.59276,141.98277 731.69276,143.13182 731.69276,143.84926 C 731.69276,144.5667 730.34276,146.44708 728.69276,148.02788 C 727.04276,149.60868 725.69276,151.23605 725.69276,151.64426 C 725.69276,152.7414 718.13309,163.92734 716.55207,165.16963 C 714.0015,167.17372 709.11277,168.34243 707.36698,167.36544 z M 715.69276,156.06306 C 715.69276,155.25741 716.59547,154.11513 717.69878,153.52466 C 721.13307,151.68668 737.65685,125.43795 737.68362,121.77788 C 737.68865,121.09038 738.59276,119.62788 739.69276,118.52788 C 742.0173,116.20334 742.33075,114.34583 740.26468,115.13865 C 738.37946,115.86208 731.69276,124.48446 731.69276,126.19199 C 731.69276,126.92673 731.07235,127.52788 730.31408,127.52788 C 729.55581,127.52788 728.37621,128.87788 727.69276,130.52788 C 727.00931,132.17788 726.1382,133.52788 725.75696,133.52788 C 724.95552,133.52788 720.69276,141.23929 720.69276,142.6891 C 720.69276,143.22382 719.62991,145.0938 718.33086,146.8446 C 717.03182,148.5954 715.45682,151.55753 714.83086,153.4271 C 713.44946,157.553 713.45031,157.52788 714.69276,157.52788 C 715.24276,157.52788 715.69276,156.86871 715.69276,156.06306 z M 624.69276,75.634866 C 624.69276,75.25236 626.56436,72.934309 628.85187,70.483642 C 631.13939,68.032973 633.99586,63.904783 635.19959,61.309883 C 636.40332,58.714983 639.81922,53.914803 642.79047,50.642833 C 645.76173,47.370853 649.09276,43.230933 650.19276,41.443003 C 651.29276,39.655083 653.19786,36.580253 654.42631,34.610063 C 655.65476,32.639863 656.66726,30.015383 656.67631,28.777883 C 656.68536,27.540383 657.1312,26.527883 657.66708,26.527883 C 659.22157,26.527883 661.85358,20.609933 661.20622,18.570283 C 659.90103,14.458003 654.16292,15.383993 651.67154,20.108943 C 650.85821,21.651433 648.27575,24.688183 645.93273,26.857283 C 642.83421,29.725803 641.5055,31.846743 641.05944,34.636223 C 640.64915,37.202063 639.80888,38.673643 638.52062,39.082513 C 636.1677,39.829303 627.82235,51.074543 627.05827,54.527883 C 626.21279,58.349053 623.90186,63.109453 622.21121,64.512563 C 621.37606,65.205683 620.69276,66.752673 620.69276,67.950323 C 620.69276,69.147983 620.20778,70.612864 619.61502,71.205619 C 618.40151,72.419137 616.67372,79.175507 617.39297,79.894762 C 617.98413,80.485915 624.69276,76.570994 624.69276,75.634866 z M 787.4318,69.277883 C 790.05679,66.448773 790.69196,63.194543 788.69276,62.817463 C 787.07036,62.511463 781.34596,69.847751 782.3914,70.893185 C 783.5878,72.089594 785.34564,71.52626 787.4318,69.277883 z M 709.69276,69.027883 C 709.69276,68.202883 709.24276,67.527883 708.69276,67.527883 C 708.14276,67.527883 707.69276,68.202883 707.69276,69.027883 C 707.69276,69.852883 708.14276,70.527883 708.69276,70.527883 C 709.24276,70.527883 709.69276,69.852883 709.69276,69.027883 z M 649.453,54.172173 C 654.17539,49.048983 656.05247,45.868233 654.80753,45.098813 C 653.82783,44.493323 646.69276,52.712173 646.69276,54.446183 C 646.69276,55.041113 646.2909,55.527883 645.79975,55.527883 C 645.30859,55.527883 644.64772,56.202883 644.33113,57.027883 C 643.28333,59.758403 645.38275,58.587873 649.453,54.172173 z M 441.016,149.90085 C 441.69046,144.06712 442.84761,139.55021 443.82192,138.94805 C 444.30088,138.65204 444.69276,137.74241 444.69276,136.92666 C 444.69276,136.1109 445.25526,134.77184 445.94276,133.95097 C 446.63026,133.1301 447.64276,131.91159 448.19276,131.24318 C 450.22896,128.76859 451.90944,124.68749 451.29895,123.6997 C 450.95261,123.13931 452.02454,121.71576 453.681,120.53625 C 455.33747,119.35674 456.69276,117.81485 456.69276,117.10982 C 456.69276,116.4048 457.95687,114.07294 459.5019,111.92792 C 461.04693,109.7829 462.6078,107.24038 462.97052,106.27788 C 463.33323,105.31538 464.26736,104.52788 465.04637,104.52788 C 466.64028,104.52788 469.69276,100.352 469.69276,98.171474 C 469.69276,97.386748 470.70526,96.490205 471.94276,96.179156 C 474.48137,95.54107 483.69276,85.093242 483.69276,82.851961 C 483.69276,81.836788 483.06991,81.590794 481.64477,82.043114 C 480.48333,82.411743 478.90172,82.116251 477.99111,81.360501 C 477.0402,80.571291 473.85066,80.019934 470.16931,80.00839 C 466.23844,79.996063 463.31174,79.456557 462.20843,78.540887 C 460.65297,77.249972 460.2246,77.360576 458.25992,79.560381 C 455.73027,82.392769 452.33532,84.527883 450.36132,84.527883 C 448.4569,84.527883 445.9394,81.4724 445.53394,78.668898 C 445.21421,76.458198 444.70895,76.28936 437.49619,75.982953 C 431.07848,75.71032 429.39067,75.977671 427.33846,77.591938 C 424.10755,80.133368 421.00053,80.072951 420.16884,77.452522 C 419.80656,76.311074 419.66374,75.274877 419.85145,75.149863 C 420.03917,75.024848 421.3316,74.213031 422.72351,73.345825 C 425.33211,71.720591 429.14305,65.121173 430.26981,60.277883 C 431.17746,56.376423 428.71209,56.684943 426.22387,60.784203 C 420.83935,69.654995 417.51101,75.398388 415.65151,79.027883 C 414.52439,81.227883 411.60635,86.852883 409.16699,91.527883 C 406.72763,96.202883 404.723,100.52064 404.71227,101.12289 C 404.70154,101.72515 403.79276,103.03239 402.69276,104.02788 C 401.59276,105.02337 400.69276,106.84497 400.69276,108.07588 C 400.69276,109.30679 400.03809,110.56512 399.23794,110.87217 C 398.43779,111.17922 396.90902,113.13986 395.84067,115.22916 C 394.77232,117.31846 391.48016,122.62788 388.52475,127.02788 C 385.56935,131.42788 382.03562,137.20334 380.67203,139.86224 C 377.78544,145.49084 372.52537,150.52788 369.53413,150.52788 C 367.62366,150.52788 367.48349,150.07913 367.89425,145.27788 C 368.28159,140.75044 372.22007,130.59379 376.90999,122.02788 C 377.51226,120.92788 378.48938,119.12788 379.08138,118.02788 C 379.67338,116.92788 383.87813,110.33562 388.42525,103.37841 C 392.97238,96.421203 396.69276,90.108711 396.69276,89.350653 C 396.69276,88.592594 397.67021,87.135449 398.86486,86.112553 C 400.88861,84.379762 400.91959,84.166913 399.31839,82.996085 C 398.37317,82.304925 396.71771,81.970104 395.63959,82.252039 C 394.26721,82.610924 392.66468,81.656864 390.29576,79.070608 C 386.96461,75.433837 386.88971,75.408615 385.46429,77.443681 C 384.66797,78.580592 382.24611,80.793204 380.08239,82.360595 C 376.88658,84.675626 375.7303,85.023857 373.92056,84.216325 C 372.69527,83.669586 371.69276,82.841021 371.69276,82.375069 C 371.69276,80.828424 369.07998,81.494015 362.76616,84.649068 C 357.50386,87.27867 356.1368,87.595603 354.08636,86.661358 C 351.04516,85.275696 349.37141,81.054341 350.17173,76.788289 C 350.50814,74.995066 350.50657,73.527883 350.16825,73.527883 C 349.82992,73.527883 347.67203,74.779498 345.37294,76.309249 C 337.45797,81.575632 330.60101,82.824321 326.03289,79.831172 C 323.59064,78.23095 323.26771,78.235278 320.35442,79.907278 L 317.26547,81.680094 L 314.72911,78.596552 L 312.19276,75.51301 L 306.34589,78.604542 C 299.72133,82.10728 296.67287,81.953355 294.07259,77.984832 C 292.62356,75.773329 292.57055,74.551598 293.62855,67.750713 C 294.28933,63.503153 295.21282,58.565383 295.68076,56.777883 C 296.14869,54.990383 296.17203,53.527883 295.73261,53.527883 C 294.70536,53.527883 287.99143,61.698753 284.46478,67.240873 C 282.9644,69.598729 281.2769,71.527883 280.71478,71.527883 C 280.15267,71.527883 279.69276,72.18705 279.69276,72.992699 C 279.69276,74.717601 276.08591,76.8889 274.67209,76.01511 C 272.60012,74.734557 273.9201,70.191286 280.21025,56.953213 C 283.79487,49.409133 287.01605,42.064713 287.36844,40.632293 C 287.72082,39.199863 288.66471,37.015383 289.46596,35.777883 C 292.12759,31.667103 289.02241,33.450723 283.57077,39.164083 C 280.61286,42.263993 277.12973,45.751493 275.83048,46.914083 C 274.53123,48.076673 271.60623,51.677173 269.33048,54.915203 C 263.84373,62.721983 263.57019,63.169763 254.72686,78.820431 C 251.44843,84.622519 246.34832,90.527883 244.61584,90.527883 C 241.98196,90.527883 244.79567,80.347214 248.21351,77.510663 C 249.0271,76.835445 249.69276,75.507838 249.69276,74.560426 C 249.69276,73.613014 250.58127,72.033766 251.66723,71.050987 C 252.75319,70.068208 253.93142,68.310963 254.28551,67.146003 C 254.63961,65.981033 255.5054,64.352883 256.2095,63.527883 C 257.85967,61.594363 262.5653,52.851293 269.39572,39.027883 C 272.38514,32.977883 275.51876,26.759233 276.35933,25.208653 C 277.19989,23.658073 277.55717,22.083073 277.15329,21.708653 C 276.7494,21.334223 276.21806,21.590383 275.97252,22.277883 C 275.72699,22.965383 274.87067,23.527883 274.06959,23.527883 C 273.26851,23.527883 270.87286,24.415683 268.74591,25.500773 C 261.84072,29.023533 256.41756,30.544373 254.98891,29.358703 C 252.58585,27.364343 253.69699,26.041923 260.70897,22.550963 C 264.55006,20.638663 267.69276,18.726163 267.69276,18.300963 C 267.69276,17.875773 268.68384,17.527883 269.89515,17.527883 C 271.10647,17.527883 273.52511,16.144233 275.26992,14.453103 C 277.01472,12.761963 280.16773,10.785133 282.2766,10.060143 C 285.46209,8.9650229 286.11784,8.2734529 286.15184,5.9731829 C 286.20531,2.3553129 287.98421,1.8354229 289.65132,4.9504529 C 290.76556,7.0324329 290.73308,7.9361929 289.4438,10.723373 C 288.60308,12.540853 287.58117,15.152883 287.17288,16.527883 C 286.76459,17.902883 284.91453,22.054153 283.06164,25.752923 C 281.20876,29.451693 279.69276,32.821773 279.69276,33.241993 C 279.69276,33.662213 281.25913,32.210943 283.17358,30.016953 C 285.08802,27.822963 286.66302,25.518793 286.67358,24.896573 C 286.69954,23.365153 293.48028,18.278533 294.58534,18.961493 C 295.06978,19.260893 296.02223,18.835813 296.7019,18.016873 C 298.47643,15.878693 299.66616,16.180923 299.69756,18.777883 C 299.82465,29.290743 299.60781,30.998023 297.89782,32.948293 C 295.49554,35.688133 293.69276,40.029113 293.69276,43.073823 C 293.69276,45.425973 293.86029,45.363073 297.81334,41.526773 C 302.32748,37.145953 303.16017,36.852433 305.22277,38.915043 C 306.40565,40.097913 306.02697,42.103213 302.65135,52.531903 C 298.81944,64.370253 297.45318,74.527883 299.69276,74.527883 C 300.24276,74.527883 300.69276,73.852883 300.69276,73.027883 C 300.69276,72.202883 301.36776,71.527883 302.19276,71.527883 C 303.01776,71.527883 303.69276,71.971269 303.69276,72.513185 C 303.69276,74.290878 309.84958,69.799146 311.79281,66.603763 C 312.83778,64.885443 313.69276,62.365423 313.69276,61.003713 C 313.69276,59.642003 314.25526,58.502403 314.94276,58.471273 C 315.63026,58.440133 318.06852,55.835833 320.36112,52.683943 C 324.73546,46.670053 328.54388,43.873043 331.04912,44.834393 C 332.24863,45.294683 332.49628,47.259303 332.31491,54.875823 C 332.19089,60.083873 331.59044,64.948653 330.98058,65.686443 C 330.37071,66.424233 329.56365,68.676638 329.18711,70.691783 C 328.60634,73.799892 328.82598,74.528815 330.63507,75.497009 C 332.39638,76.439631 333.76221,76.15192 338.48021,73.844442 C 345.16477,70.575156 356.5389,61.098223 358.69276,57.003333 C 361.52207,51.624283 367.71169,46.527883 371.41527,46.527883 C 373.38848,46.527883 373.68666,47.028893 373.64712,50.277883 C 373.60555,53.694023 372.96506,54.550443 366.453,59.897393 C 360.53607,64.755683 358.99902,66.650793 357.53128,70.897391 C 353.58587,82.312656 356.78348,83.76556 366.88585,75.147849 C 373.79382,69.255089 375.32915,67.586423 381.03974,59.764773 C 384.59659,54.893053 385.144,54.530503 388.40106,54.889433 C 390.33636,55.102693 392.31182,55.896093 392.79096,56.652533 C 393.97727,58.525393 393.91408,63.815573 392.66619,67.097763 C 391.87735,69.172563 391.99538,70.340792 393.17584,72.142409 C 394.54116,74.226144 395.23943,74.420514 399.45241,73.88956 C 405.00575,73.189685 409.49761,70.485945 412.57964,65.988023 C 413.79322,64.216913 416.10264,61.476333 417.71168,59.897853 C 419.32072,58.319373 420.6497,56.671563 420.66498,56.236073 C 420.70128,55.201443 424.69276,50.916243 424.69276,51.911903 C 424.69276,52.330533 425.82311,51.783913 427.20465,50.697193 C 430.76931,47.893233 433.43679,48.941503 434.86471,53.707473 C 435.77342,56.740453 435.77472,58.412303 434.87035,60.913313 C 432.98111,66.137913 433.35191,69.228966 435.94276,69.853033 C 439.71598,70.761902 446.7072,68.952282 448.32034,66.649193 C 449.13755,65.482473 450.37022,64.527883 451.05963,64.527883 C 451.74903,64.527883 453.65111,63.219713 455.28648,61.620843 C 457.13032,59.818143 459.57673,58.583513 461.72632,58.370843 L 465.19276,58.027883 L 465.12093,63.027883 C 465.08143,65.777883 464.85643,69.089209 464.62093,70.386385 C 464.3523,71.866118 464.82251,73.154236 465.88292,73.843525 C 468.89443,75.801063 481.52721,67.943953 481.66466,64.027883 C 481.68396,63.477883 484.19279,61.683053 487.23984,60.039383 C 491.96111,57.492583 492.91902,57.270883 493.72103,58.539383 C 494.23864,59.358053 494.66903,60.639453 494.67745,61.386933 C 494.68587,62.134413 495.66191,63.752933 496.84642,64.983633 C 498.80625,67.019893 499.24678,67.098213 501.7412,65.853833 C 503.24881,65.101733 505.03476,63.820723 505.70998,63.007133 C 506.3852,62.193543 507.67809,61.527883 508.58307,61.527883 C 509.48805,61.527883 511.79545,60.466423 513.71063,59.169073 C 519.49654,55.249683 521.20253,55.089193 523.67447,58.231763 C 525.32422,60.329073 525.75783,61.985913 525.45029,65.017253 C 524.97727,69.679844 526.97667,73.527883 529.87233,73.527883 C 530.94458,73.527883 532.95783,72.177883 534.34621,70.527883 C 535.7346,68.877883 537.65824,67.527883 538.62098,67.527883 C 539.58371,67.527883 541.80209,65.955673 543.5507,64.034073 C 546.44196,60.856793 547.41397,59.114103 549.68957,53.027883 C 550.10085,51.927883 551.65678,48.393243 553.14718,45.173133 C 554.90491,41.375423 555.64384,38.469103 555.25031,36.901173 C 554.83385,35.241843 555.12164,34.300543 556.1682,33.898933 C 557.00671,33.577173 557.69276,32.742153 557.69276,32.043343 C 557.69276,31.344523 558.36776,30.212573 559.19276,29.527883 C 560.01776,28.843193 560.69276,27.213093 560.69276,25.905443 C 560.69276,24.597783 561.16806,23.527883 561.74899,23.527883 C 562.32992,23.527883 563.68063,21.548873 564.75058,19.130083 C 567.04757,13.937343 572.81715,8.5278829 576.05858,8.5278829 C 579.72906,8.5278829 581.13457,12.276843 579.86452,18.679523 C 577.8987,28.589763 576.20341,34.017073 574.19276,36.837113 C 570.12423,42.543443 562.20812,52.173313 557.59521,57.027883 C 553.77659,61.046543 552.70883,62.960153 552.15489,66.777883 C 551.31825,72.543895 552.09629,72.737358 559.19276,68.527883 C 561.94276,66.896643 565.23377,65.554313 566.50612,65.544933 C 568.51145,65.530153 568.77775,65.955423 568.50612,68.738837 C 568.22912,71.577241 567.7456,72.042036 564.33872,72.744827 C 562.219,73.182096 559.28987,74.39064 557.82955,75.430479 C 554.67827,77.67439 547.06178,79.883466 545.08795,79.126035 C 544.32059,78.831575 543.69276,77.703087 543.69276,76.618285 C 543.69276,73.164437 542.08644,73.441485 535.15239,78.091274 L 528.3826,82.630912 L 524.67851,79.013966 L 520.97442,75.397019 L 517.19404,77.962451 C 515.11484,79.373439 512.85656,80.527883 512.17566,80.527883 C 509.842,80.527883 508.47513,77.607199 508.87016,73.464852 C 509.26045,69.372334 509.2552,69.365391 506.22699,69.968682 C 504.55816,70.301152 503.03307,71.042064 502.83789,71.615152 C 502.6427,72.188241 501.41792,73.062079 500.11613,73.557016 C 498.81435,74.051953 497.0636,75.935372 496.22556,77.742392 C 495.38753,79.549412 493.85282,82.411884 492.81508,84.103442 C 491.77735,85.794999 490.59421,88.7001 490.18588,90.559222 C 489.39946,94.139774 483.4424,105.89145 480.9951,108.69017 C 480.19564,109.60443 479.43985,111.04534 479.31555,111.89219 C 479.19126,112.73905 478.37669,114.24102 477.50538,115.22991 C 476.63408,116.21879 474.28097,119.61538 472.27625,122.77788 C 470.27153,125.94038 468.24972,128.52788 467.78335,128.52788 C 467.31698,128.52788 466.38961,129.84555 465.72252,131.45602 C 465.05544,133.0665 463.88676,134.62319 463.12545,134.91533 C 462.36415,135.20748 460.83228,137.37731 459.72131,139.73719 C 457.11816,145.26668 449.13051,152.16753 444.28009,153.07747 L 440.56824,153.77382 L 441.016,149.90085 z M 455.05439,135.02788 C 455.37097,134.20288 455.24226,133.52788 454.76836,133.52788 C 454.29447,133.52788 453.64772,134.20288 453.33113,135.02788 C 453.01455,135.85288 453.14326,136.52788 453.61716,136.52788 C 454.09105,136.52788 454.7378,135.85288 455.05439,135.02788 z M 462.55428,124.73768 C 463.85312,123.34961 465.00979,121.57358 465.12466,120.79093 C 465.23953,120.00829 465.77559,119.06643 466.31592,118.69791 C 467.9053,117.61391 471.93854,110.52788 470.96615,110.52788 C 470.47679,110.52788 468.75259,112.31724 467.13459,114.50424 C 465.51658,116.69124 463.85526,118.49124 463.44276,118.50424 C 463.03026,118.51724 462.69276,119.20288 462.69276,120.02788 C 462.69276,120.85288 461.85853,122.36211 460.83891,123.38173 C 459.08511,125.13553 455.67722,131.14416 455.70617,132.43152 C 455.71355,132.75952 456.72605,131.73043 457.95617,130.14466 C 459.1863,128.55888 461.25545,126.12574 462.55428,124.73768 z M 380.78127,128.92123 C 382.16203,127.25752 383.28298,125.45973 385.47103,121.39974 C 386.34851,119.77156 386.03496,119.95371 384.47103,121.98067 C 383.21798,123.6047 381.18026,125.98765 379.94276,127.27612 C 378.70526,128.56459 377.69276,129.82333 377.69276,130.07333 C 377.69276,131.10663 379.53918,130.41786 380.78127,128.92123 z M 392.69276,110.40985 C 392.69276,109.85985 392.24276,109.68796 391.69276,110.02788 C 391.14276,110.3678 390.69276,111.09591 390.69276,111.64591 C 390.69276,112.19591 391.14276,112.3678 391.69276,112.02788 C 392.24276,111.68796 392.69276,110.95985 392.69276,110.40985 z M 475.69276,104.40985 C 475.69276,103.85985 475.24276,103.68796 474.69276,104.02788 C 474.14276,104.3678 473.69276,105.09591 473.69276,105.64591 C 473.69276,106.19591 474.14276,106.3678 474.69276,106.02788 C 475.24276,105.68796 475.69276,104.95985 475.69276,104.40985 z M 398.12805,99.629844 C 397.50036,99.002152 395.71537,101.54194 395.73988,103.02788 C 395.74895,103.57788 396.41241,103.16073 397.21423,102.10088 C 398.01606,101.04103 398.42728,99.929066 398.12805,99.629844 z M 489.29693,83.798716 C 488.96464,83.466425 488.72829,84.05705 488.77171,85.111216 C 488.81969,86.276159 489.05665,86.513116 489.37587,85.715383 C 489.66474,84.993508 489.62922,84.131008 489.29693,83.798716 z M 454.69276,73.500251 C 454.69276,72.999972 454.02034,72.848683 453.1985,73.164053 C 452.37666,73.479423 451.95776,74.14764 452.2676,74.64898 C 452.91566,75.697565 454.69276,74.855805 454.69276,73.500251 z M 484.69276,73.420894 C 484.69276,72.929738 484.01776,72.527883 483.19276,72.527883 C 482.36776,72.527883 481.69276,73.18876 481.69276,73.996498 C 481.69276,74.891091 482.27905,75.240133 483.19276,74.889509 C 484.01776,74.572927 484.69276,73.91205 484.69276,73.420894 z M 386.44276,69.860975 C 387.13026,69.206346 387.69276,67.465453 387.69276,65.992323 C 387.69276,63.960803 387.31073,63.460503 386.11097,63.920893 C 385.24099,64.254743 384.15174,64.527883 383.69043,64.527883 C 383.22911,64.527883 382.55629,65.872723 382.19528,67.516413 C 381.83426,69.160108 381.12351,70.761666 380.61582,71.075432 C 380.10814,71.389199 379.69276,72.059712 379.69276,72.565461 C 379.69276,73.609963 384.54891,71.664276 386.44276,69.860975 z M 322.04884,68.842059 C 325.0473,65.085693 325.95081,62.527883 324.27922,62.527883 C 322.51005,62.527883 317.40282,69.249738 318.1964,70.533768 C 319.12266,72.032486 319.70693,71.775916 322.04884,68.842059 z M 457.18268,69.511571 C 456.83722,68.9526 456.13566,68.754157 455.62366,69.070588 C 454.23662,69.927828 454.49525,70.527883 456.25178,70.527883 C 457.10924,70.527883 457.52814,70.070543 457.18268,69.511571 z M 519.60757,66.277883 C 520.82423,63.058693 519.65816,61.805883 518.08568,64.642783 C 516.46773,67.561713 516.37803,68.527883 517.72498,68.527883 C 518.29271,68.527883 519.13987,67.515383 519.60757,66.277883 z M 567.29685,36.846263 C 568.04793,35.096373 569.12662,33.377783 569.69392,33.027163 C 570.26123,32.676553 570.4525,31.948163 570.11899,31.408513 C 569.43624,30.303813 572.28339,23.794393 574.35574,21.722043 C 575.10121,20.976573 575.43453,19.919083 575.09645,19.372063 C 574.26823,18.031963 569.69276,22.413923 569.69276,24.547213 C 569.69276,25.466093 568.78942,27.035423 567.68533,28.034613 C 565.38786,30.113793 562.69276,35.126943 562.69276,37.321283 C 562.69276,38.138643 562.07173,39.307003 561.3127,39.917643 C 560.55367,40.528273 559.62087,42.377883 559.23983,44.027883 L 558.54701,47.027883 L 562.23913,43.527883 C 564.26979,41.602883 566.54577,38.596153 567.29685,36.846263 z M 578.70112,64.579473 C 576.10953,62.897123 579.09454,61.243793 587.89401,59.487723 C 594.04805,58.259583 596.78898,58.115383 598.89184,58.909133 C 604.39755,60.987303 601.15595,63.161113 591.37777,63.948073 C 587.71291,64.243023 583.69702,64.723623 582.45358,65.016073 C 581.21013,65.308513 579.52152,65.112043 578.70112,64.579473 z M 186.44276,32.760773 C 181.8308,29.602533 181.66027,27.754153 185.94276,27.341243 C 188.56137,27.088763 189.62988,27.599883 191.44276,29.972163 C 195.87911,35.777433 193.10628,37.323903 186.44276,32.760773 z"
       id="path2454" />
  </g>
</svg>
