<?xml version="1.0" encoding="UTF-8"?>
<svg version="1.1" xmlns="http://www.w3.org/2000/svg" width="250" height="48" >
<path fill="#231F20" d="M3.367,28.926c2.199,7.365,10.021-3.474,11.673-5.502c2.672-3.281,5.46-7.434,9.051-9.773 c-0.775,0.505-1.081,7.02-1.349,8.24c-0.686,3.119-1.602,6.19-2.539,9.241c-0.193,0.628,1.737,0.354,1.927-0.262 c1.599-5.205,4.123-11.593,3.669-17.128c-0.152-1.856-2.261-1.009-3.265-0.355c-3.186,2.075-5.683,5.675-8.068,8.553 c-1.508,1.82-2.984,3.666-4.479,5.495c-1.384,1.694-3.807,3.922-4.688,0.974C5.11,27.775,3.184,28.311,3.367,28.926L3.367,28.926 M14.96,22.559c3.056-0.073,6.12,0.022,9.167,0.271c2.004,0.164,5.123,0.277,6.651,1.789 c1.182,1.169-2.934,3.873-1.882,4.971c1.268,1.324,4.265-1.37,5.189-2.073c5.319-4.041,10.082-8.91,12.982-14.99 c-0.623,0.03-1.245,0.061-1.868,0.091c-0.855,1.903-7.332,14.801-5.087,15.907c1.81,0.892,4.784-2.065,6.02-2.985 c4.069-3.028,7.596-7.433,9.25-12.256c0.241-0.703-1.348-0.334-1.569-0.18c-0.827,0.578-1.209,2.042-1.593,2.91 c-1.317,2.982-2.627,6.043-3.188,9.271c-1.146,6.598,5.94,1.381,7.91-0.283c-0.581-0.017-1.162-0.034-1.744-0.05 c-1.76,7.845,7.801,1.044,9.91-1.116c-0.581-0.017-1.163-0.034-1.744-0.05c-0.409,1.243-1.804,5.648,0.912,5.316 c3.175-0.387,5.824-3.815,8.166-5.766c-0.581-0.017-1.162-0.034-1.744-0.05c-0.407,1.602-1.363,6.241,1.719,5.563 c2.691-0.592,4.738-3.133,6.956-4.591c1.098-0.34,1.122-0.589,0.07-0.747c-0.308,0.778-0.51,1.576-0.704,2.388 c-0.24,1.006-0.136,1.781,0.364,2.651c0.322,0.562,2.203-0.047,1.792-0.763c-0.786-1.369,0.047-3.414,0.571-4.736 c0.127-0.322-0.399-0.438-0.594-0.441c-1.609-0.025-3.238,1.391-4.431,2.245c-1.423,1.019-4.384,4.308-4.251,0.804 c0.033-0.872,0.229-1.764,0.443-2.608c0.206-0.811-1.498-0.255-1.744-0.05c-1.215,1.013-2.43,2.025-3.645,3.038 C63.928,28.8,64.5,25.98,65.3,23.549c0.248-0.753-1.503-0.297-1.744-0.05c-1.618,1.658-7.576,6.354-6.423,1.217 c0.183-0.814-1.489-0.265-1.744-0.05c-1.47,1.242-5.042,3.947-4.285-0.412c0.224-1.291,0.705-2.553,1.135-3.785 c0.531-1.519,1.89-6.149,2.778-6.77c-0.523-0.06-1.046-0.12-1.569-0.18c-1.341,3.91-3.979,7.254-6.935,10.063 c-1.539,1.463-3.31,2.673-5.128,3.758c0.575-0.343,0.648-1.93,0.832-2.566c1.227-4.245,3.105-8.366,4.915-12.391 c0.272-0.606-1.61-0.449-1.868,0.091C42.54,18.186,38.18,22.735,33.257,26.63c-4.646,3.675,1.075-1.031-0.979-3.063 c-3.267-3.232-12.397-2.226-16.573-2.126C14.976,21.458,13.657,22.59,14.96,22.559L14.96,22.559 M60.883,17.127c0.54-0.575,2.404-0.896,3.292-1.079c4.813-0.99,9.866-0.961,14.754-0.937 c0.589,0.003,2.1-0.884,0.807-0.891c-5.651-0.029-11.479,0.003-16.999,1.383c-1.154,0.288-2.763,0.688-3.621,1.602 C58.648,17.706,60.534,17.5,60.883,17.127L60.883,17.127 M109.46,15.023c0.163-2.001-0.569-3.796-2.851-3.455c-4.11,0.615-7.733,5.534-9.834,8.689 c-1.308,1.963-4.397,7.673-0.443,8.696c2.434,0.63,5.936-1.264,7.557-2.975c0.5-0.529-1.405-0.348-1.776,0.044 c-1.449,1.531-5.137,3.342-5.731,0.279c-0.435-2.238,1.453-5.01,2.591-6.718c1.482-2.226,3.357-4.234,5.431-5.914 c2.317-1.876,3.314-0.521,3.138,1.642C107.486,15.976,109.415,15.574,109.46,15.023L109.46,15.023 M110.244,21.782c-1.604,0.944-5.588,3.146-5.561,5.403c0.033,2.763,3.138,1.789,4.703,0.844 c1.923-1.162,3.261-3.145,5.148-4.237c1.855-1.074,2.26,4.232,3.406,5.235c2.524,2.21,8.036-7.638,7.417,0.385 c-0.076,0.982,1.889,0.692,1.954-0.157c0.16-2.068-0.065-5.493-3.108-4.543c-1.199,0.375-2.208,0.98-3.227,1.707 c-0.564,0.402-1.583,1.854-2.173,0.625c-0.553-1.151-0.37-2.612-0.68-3.832c-0.653-2.566-4.956-0.301-5.952,0.492 c-1.605,1.278-2.641,2.743-4.561,3.711c-1.084-0.519-1.105-1.126-0.064-1.822c0.534-0.544,1.109-1.04,1.725-1.487 c0.574-0.443,1.194-0.853,1.819-1.221C112.219,22.22,111.185,21.228,110.244,21.782L110.244,21.782 M138.436,27.011c-0.85,0.542-1.729,0.174-2.637-1.103c-0.333-1.211,5.364-3.831,5.902-0.482 c0.229,1.423-0.025,2.687,1.239,3.595c0.97,0.696,2.998-0.329,3.806-0.802c1.601-0.939,3.451-2.345,4.553-0.294 c0.163,0.304,0.784,0.248,1.063,0.208c1.596-0.225,5.884-3.158,6.173-0.708c0.05,0.426,1.996,0.032,1.932-0.518 c-0.52-4.405-6.927,1.075-7.364,0.26c-0.211-0.394,0.461-1.614-0.424-1.756c-0.801-0.128-1.155-0.1-1.979,0.067 c-2.936,0.594-6.771,4.747-7.066-0.571c-0.215-3.873-7.203-2.536-8.886-0.541c-3.243,3.845,2.263,4.404,4.817,2.956 C140.684,26.688,138.915,26.739,138.436,27.011L138.436,27.011 M179.716,13.844c-2.182,3.36-4.362,6.774-6.119,10.378c-1.733,3.556,1.594,1.752,3.283,0.692 c0.76-0.477,1.554,2.017,2.818,2.402c1.713,0.521,3.34,0.369,5.044-0.09c6.04-1.626,7.031-9.3,6.373-14.53 c-0.39-3.097-3.767-5.258-5.92-2.125c-3.293,4.79,1.339,12.074,7.137,11.984c3.741-0.058,1.193,2.257,1.191,4.368 c-0.001,0.933,2.435,0.19,2.678,0.104c2.845-1.003,5.819-5.445,0.891-4.894c-0.19,0.021-1.83,0.64-1.222,0.726 c1.729,0.246,3.712,0.628,5.463,0.424c0.558-0.065,6.232-0.491,4.064,1.715c-0.654,0.667-0.503,1.238-0.392,2 c0.018,0.021,0.036,0.042,0.054,0.063c1.048,0.389,2.448,0.354,3.383,0.714c1.003,0.387,0.332,2.75,0.241,3.381 c-0.47,3.289-0.935,6.605-2,9.762c-0.163,0.461-0.371,0.901-0.625,1.318c-0.946,0.747-0.75,0.94,0.591,0.583 c-0.284-0.381,1.223-2.432,1.384-2.692c2.134-3.442,4.668-6.666,7.19-9.828c4.905-6.151,10.181-11.998,15.081-18.154 c0.396-0.498,6.032-7.72,3.812-7.5c-2.29,0.226-3.532,3.172-4.567,4.85c-2.594,4.208-5.105,8.782-6.481,13.552 c-1.014,3.512,1.189,3.934,4.329,3.037c2.358-0.673,4.642-1.582,6.633-3.051c1.09-0.654,0.809-0.73-0.846-0.229 c-0.298,0.774-0.674,1.522-0.977,2.296c-0.453,1.154-0.676,2.33-0.173,3.489c0.19,0.439,2.065-0.209,1.932-0.518 c-0.882-2.034,0.517-4.057,1.243-5.943c0.138-0.355-0.917-0.123-1.023-0.094c-2.426,0.653-8.949,7.083-9.499,2.585 c-0.298-2.433,1.585-5.62,2.572-7.732c1.351-2.891,2.922-5.687,4.595-8.401c0.547-0.887,1.129-1.751,1.746-2.59 c1.244-1.69-0.676-0.187-1.167,0.854c-3.285,6.971-10.092,13.083-14.995,18.913c-3.231,3.843-6.351,7.754-9.282,11.832 c-0.449,0.625-4.085,4.973-3.377,5.921c0.156,0.21,0.566,0.105,0.779,0.072c3.32-0.513,3.811-5.305,4.27-7.881 c0.367-2.061,1.409-5.112,1.139-7.204c-0.293-2.26-5.473-1.352-2.563-4.937c0.005-0.027,0.011-0.054,0.016-0.082 c-1.18-1.827-5.262-0.84-7.025-0.852c-1.215-0.008-2.467-0.203-3.675-0.363c2.06,0.272-1.293,3.867-1.281,3.855 c-1.799,1.763-0.127-2.437-0.011-2.973c0.155-0.713-0.293-1.136-0.941-1.258c-2.477-0.466-4.191-0.497-6.337-2.064 c-2.421-1.77-3.78-4.589-3.165-7.535c1.186-5.68,3.354,1.986,3.411,3.771c0.11,3.478-0.824,7.303-3.354,9.793 c-1.133,1.116-5.564,1.989-6.074-0.524c-0.395-1.949-1.538-1.815-3.244-1.042c-0.98,0.443-1.883,1.057-2.789,1.625 c1.162-0.729,0.848-0.201,1.318-1.404c0.549-1.406,1.37-2.729,2.117-4.035c1.34-2.342,2.78-4.633,4.25-6.896 C181.73,13.316,180.017,13.381,179.716,13.844L179.716,13.844 M243.327,27.047c0.743-0.143,1.484-0.318,2.211-0.533c0.587-0.174,2.313-0.567,2.416-1.344 c0.069-0.52-1.845-0.153-1.908,0.327c-0.039,0.292-0.781,0.402-1.084,0.486c-0.557,0.154-0.854,0.22-1.289,0.303 c-0.328,0.063-0.967,0.19-1.127,0.544C242.394,27.166,243.216,27.069,243.327,27.047L243.327,27.047z"/>
</svg>