<?xml version="1.0" encoding="UTF-8" standalone="no"?>
<!-- Created with Inkscape (http://www.inkscape.org/) -->
<svg
   xmlns:svg="http://www.w3.org/2000/svg"
   xmlns="http://www.w3.org/2000/svg"
   version="1.0"
   width="600"
   height="180"
   id="svg2">
  <defs
     id="defs4" />
  <g
     id="layer1">
    <path
       d="M 546.80451,141.53457 C 547.68166,140.80888 549.46137,139.3808 550.75944,138.36101 C 562.82303,128.88328 564.93016,125.94703 562.30023,122.27922 C 561.05853,120.54745 559.30041,119.91302 553.62601,119.14905 C 549.7117,118.62204 546.49722,117.90829 546.48268,117.56292 C 546.44517,116.6704 539.84771,115.9968 530.0592,115.88609 C 525.43141,115.83375 521.08587,115.62503 520.40231,115.42225 C 518.35547,114.81501 514.04703,117.83444 513.5533,120.22214 C 512.44758,125.56998 506.15022,130.16293 498.16861,131.44291 C 491.19042,132.56201 487.0025,131.83641 485.75652,129.29257 C 484.5664,126.86274 480.18933,126.21407 478.03792,128.14874 C 477.07902,129.011 473.13724,129.6722 466.26315,130.124 C 460.57979,130.49746 453.53717,130.97816 450.61279,131.19216 C 445.84554,131.54097 445.0795,131.32881 443.20401,129.1403 C 441.27929,126.8944 440.71465,126.75491 436.13609,127.39465 C 430.2385,128.21873 428.25521,129.72457 424.48932,129.64764 C 421.30328,129.58249 419.6674,129.74378 411.20445,126.9568 C 409.54031,126.24856 401.83355,129.41452 400.7972,131.26048 C 400.25784,132.2213 392.76273,132.16375 391.0202,131.18547 C 390.48316,130.88402 390.0006,129.61265 389.94793,128.36031 C 389.85803,126.22217 389.53926,126.09646 384.7218,126.29902 C 380.78325,126.46457 379.57764,126.18968 379.53247,125.11551 C 379.44522,123.03963 378.01591,123.44025 372.24098,127.15927 C 369.37303,129.00623 365.59685,130.8882 363.84949,131.34142 C 359.47614,132.47573 353.66109,132.6285 352.58294,131.63728 C 351.39379,130.54406 350.99164,126.19928 351.6768,121.84791 C 352.33173,117.68883 351.75435,117.54492 346.35464,120.52136 C 344.24407,121.68472 340.425,122.88128 337.86783,123.18035 C 335.31062,123.47941 331.86445,124.02561 330.20956,124.39412 C 328.55478,124.76261 327.18504,124.6906 327.16588,124.23414 C 327.14668,123.77765 326.01946,122.2291 324.66093,120.7929 C 323.30241,119.3567 321.90287,117.23476 321.55085,116.07748 C 320.78496,113.55941 318.56916,114.04924 314.05871,117.73373 C 312.45178,119.04642 309.50362,120.7751 307.50731,121.57524 C 303.24909,123.28197 302.38124,122.7151 301.16193,117.43043 C 300.25651,113.50624 299.03512,113.18997 295.72866,116.02355 C 294.46734,117.10449 293.06053,118.00463 292.60245,118.02389 C 291.24975,118.08076 286.84447,120.54717 286.86551,121.23585 C 286.90182,122.42497 278.6428,127.95537 276.70927,128.03664 C 275.15959,128.1018 274.87849,127.70136 275.27565,125.99439 C 275.54736,124.82659 275.9347,121.44623 276.13641,118.48254 C 276.50155,113.11726 275.83033,111.98718 273.67256,114.33434 C 273.0828,114.97587 272.58767,115.2013 272.57228,114.83528 C 272.55689,114.46927 271.10093,114.84543 269.33682,115.67119 C 265.53584,117.4504 265.20311,116.59477 268.36045,113.1603 C 269.72932,111.67129 272.54236,110.1756 275.33203,109.45353 C 281.43843,107.87297 282.80652,108.83194 282.7204,114.6325 C 282.64376,119.79566 283.56745,119.83114 290.63642,114.93673 C 295.75773,111.39084 303.17892,108.6224 305.48454,109.39771 C 306.41211,109.70963 306.9893,111.08035 307.07762,113.18096 C 307.15379,114.99272 307.6591,116.45644 308.20052,116.43367 C 308.74194,116.41091 311.89168,114.80672 315.19991,112.86882 C 323.73913,107.86668 325.50922,108.00258 328.64309,113.90088 C 330.86166,118.07655 331.6179,118.73547 334.79009,119.25663 C 342.54511,120.53072 351.95616,115.7921 357.31684,107.91397 C 359.49504,104.71287 361.77782,102.06386 362.38967,102.0273 C 363.00149,101.99072 364.16657,100.71958 364.97881,99.202532 C 365.79101,97.685482 367.72829,95.690572 369.28389,94.769402 C 370.83956,93.848212 373.28675,92.389792 374.72216,91.528462 C 376.74522,90.314482 377.84208,90.169412 379.60091,90.883172 C 382.57124,92.088582 382.50528,93.478582 379.28903,97.452282 C 377.83111,99.253562 376.65352,101.09021 376.67217,101.53374 C 376.69082,101.97725 376.18171,102.36944 375.54075,102.40528 C 374.89981,102.4411 373.43072,103.55413 372.27606,104.87867 C 370.34251,107.09673 367.60824,108.2087 367.54904,106.80105 C 367.53527,106.47365 369.16282,104.27073 371.1658,101.90569 C 373.16879,99.540652 374.51203,97.334622 374.15084,97.003412 C 373.7896,96.672202 372.54903,97.597322 371.39396,99.059252 C 370.23888,100.52117 368.87484,101.73492 368.36267,101.75644 C 367.85054,101.77797 367.11946,102.37164 366.73802,103.07569 C 366.35662,103.77973 365.22498,104.86579 364.22328,105.48914 C 363.22162,106.11248 362.92726,106.6132 363.56924,106.60184 C 364.21118,106.59049 367.90305,105.5891 370.06446,104.78614 C 371.00571,107.09312 363.66855,111.18735 360.23928,113.64146 C 356.99535,115.96285 355.29008,122.9153 357.17972,126.11525 C 358.31657,128.04057 359.01518,128.2833 362.01046,127.79383 C 363.93636,127.47918 366.39414,126.70078 367.47225,126.06414 C 369.45709,124.89207 369.47074,123.2624 367.54018,117.953 C 366.92445,116.25972 367.31094,115.68539 369.87659,114.48099 C 373.61992,112.7238 376.01608,113.58346 377.44891,117.19769 C 378.20445,119.10335 379.46833,120.00716 382.4308,120.76019 C 384.61396,121.31514 387.35967,122.17056 388.53226,122.66113 C 390.77671,123.60008 391.95225,123.15061 397.59263,119.19698 C 401.53786,116.43156 408.80011,115.91526 412.1641,118.16104 C 413.59392,119.11554 414.79853,120.41098 414.84108,121.03978 C 414.95585,122.73367 418.75623,124.6445 422.66987,124.9761 C 427.24456,125.36375 436.96946,123.70262 441.53256,121.75418 C 445.59949,120.0176 446.78637,120.44244 448.89169,124.38828 C 450.51441,127.42973 455.59884,128.84068 457.49663,126.77629 C 458.21998,125.98954 460.03246,124.77898 461.52441,124.08619 C 463.86188,123.0008 464.74133,123.07025 467.88419,124.58837 C 471.7859,126.473 477.69613,126.05929 480.39479,123.71257 C 481.66308,122.60968 489.38177,119.0956 490.65342,119.04214 C 490.97222,119.02874 491.10586,120.60002 490.9503,122.53388 C 490.68757,125.80194 490.90736,126.15435 494.06597,127.52955 C 497.26794,128.92346 497.68895,128.90834 501.34928,127.26719 C 503.48594,126.30929 505.96896,124.78474 506.86706,123.87947 C 509.02502,121.70426 508.35082,116.53184 505.73984,115.23153 C 496.91699,110.83761 495.9447,107.089 503.07971,104.97596 C 505.01515,104.40279 506.22441,104.88562 509.25208,107.44025 C 511.32304,109.18766 513.43831,110.62529 513.95268,110.63501 C 516.73186,110.68751 534.89733,111.6397 536.89742,111.83773 C 549.40092,113.07568 559.49785,114.74272 562.14152,116.00563 C 563.01887,116.42474 564.44445,116.9519 565.3095,117.17707 C 566.17455,117.40224 567.49842,118.74392 568.25143,120.15858 C 570.42593,124.24389 567.77022,129.12209 560.28905,134.7841 C 558.54572,136.10351 556.9212,137.47052 556.67897,137.82192 C 555.82753,139.05713 548.53255,142.77328 546.88059,142.81329 C 545.28623,142.85197 545.28274,142.79358 546.80451,141.53457 z M 406.2684,121.88896 C 406.47563,121.15489 405.7177,120.74403 404.26869,120.80495 C 401.08756,120.93869 398.91935,121.97345 399.62821,123.01954 C 400.45398,124.23803 405.86528,123.31667 406.2684,121.88896 z M 75.365112,136.18612 C 75.261329,133.71728 81.86293,118.47354 83.057636,118.42331 C 83.485516,118.40532 84.090633,117.43375 84.40235,116.26426 C 84.714059,115.09477 85.218517,113.91717 85.523368,113.64737 C 86.454252,112.82355 90.025206,107.03205 89.998202,106.38994 C 89.984269,106.05844 90.969847,104.49594 92.188375,102.91773 C 93.406904,101.3395 94.37601,99.385482 94.341964,98.575442 C 94.307901,97.765402 95.271603,95.682682 96.483524,93.947172 C 97.695437,92.211662 98.676646,90.545462 98.664,90.244512 C 98.651346,89.943562 99.620519,87.990852 100.81771,85.905138 C 102.01489,83.819433 102.96724,81.466605 102.93403,80.676658 C 102.90083,79.886694 103.85317,77.533875 105.05037,75.44817 C 106.24755,73.362465 107.20923,71.23142 107.18741,70.712529 C 107.1656,70.193638 107.92445,69.23742 108.87375,68.587599 C 109.82305,67.937778 110.39215,66.926399 110.13842,66.340092 C 109.88469,65.753777 110.3032,64.708377 111.06845,64.016984 C 111.8337,63.325583 112.43,62.050915 112.39358,61.18439 C 112.35715,60.317864 113.13498,58.665459 114.12209,57.512383 C 115.1092,56.359307 116.2846,54.310956 116.73409,52.960478 C 118.98662,46.192857 117.07575,47.35168 105.90714,59.526388 C 100.51283,65.406636 95.842448,70.228544 95.528509,70.241741 C 95.214562,70.254939 93.830256,71.469533 92.452256,72.940825 C 91.074257,74.412125 87.480148,78.137522 84.465347,81.219489 C 81.450545,84.301455 79.419016,86.804766 79.950846,86.782405 C 80.482675,86.760045 80.76332,87.273883 80.574497,87.924255 C 80.382367,88.586054 79.136951,89.021109 77.746213,88.912238 C 75.961926,88.772563 74.63994,89.486876 73.057883,91.445482 C 71.846036,92.945762 70.850594,94.395652 70.845775,94.667482 C 70.835334,95.257332 81.914742,97.630522 87.553302,98.246202 C 89.913906,98.503962 91.564097,99.182042 91.59456,99.906792 C 91.680861,101.95945 89.629042,102.64499 88.31794,101.00156 C 87.630114,100.1394 86.852913,99.862312 86.564325,100.37635 C 86.064536,101.26659 79.577059,101.19917 76.658673,100.27341 C 74.093418,99.459692 65.924593,99.922262 64.679027,100.95178 C 61.487923,103.5894 52.010953,114.13146 52.047588,115.00282 C 52.070358,115.54437 51.713611,116.00323 51.254826,116.02252 C 50.796033,116.0418 49.068996,117.47152 47.41695,119.19965 C 40.775857,126.14658 38.403994,127.77629 34.707965,127.93165 C 31.577461,128.06329 31.093258,127.80368 31.015427,125.95246 C 30.910408,123.45439 38.28039,115.27191 44.32704,111.17326 C 46.530879,109.67943 49.302548,107.20276 50.486312,105.66957 C 51.670068,104.13638 53.410353,102.84951 54.35359,102.80985 C 56.213386,102.73166 59.761722,98.448332 59.675028,96.386142 C 59.645585,95.685762 58.991846,95.139202 58.22228,95.171552 C 55.900399,95.269172 56.347264,90.385232 58.938497,87.343871 C 61.087825,84.821181 61.755363,84.600768 67.463877,84.528901 C 70.870273,84.486009 74.145523,84.383755 74.742195,84.301664 C 75.338868,84.219573 79.085247,80.546263 83.067476,76.138744 C 94.182576,63.836606 93.511639,64.719795 91.683675,64.796649 C 90.824325,64.832775 90.136975,65.236515 90.156203,65.693854 C 90.175431,66.151194 88.645528,67.268821 86.756405,68.177469 C 84.867291,69.086118 82.707363,70.221311 81.956565,70.700108 C 76.002938,74.496839 72.579227,75.997148 71.704256,75.192775 C 71.057016,74.597774 72.418469,73.413801 75.783661,71.645158 C 78.561628,70.185143 81.216041,68.974541 81.682351,68.954937 C 82.148662,68.935334 83.46288,68.039072 84.602833,66.963251 C 85.742779,65.887413 87.240891,64.983425 87.931958,64.954374 C 88.623017,64.925323 89.173766,64.552481 89.155824,64.125837 C 89.137891,63.699194 91.063448,61.990425 93.434852,60.328564 C 95.806256,58.666704 101.42289,54.73465 105.91627,51.590673 C 110.40966,48.446696 115.98467,43.953051 118.30521,41.60481 C 125.09443,34.7345 128.30784,36.050321 124.76401,44.249542 C 123.859,46.343408 123.13282,48.735125 123.15025,49.564498 C 123.16768,50.39387 122.38728,52.175025 121.41603,53.52262 C 120.44479,54.870224 119.65969,56.200379 119.67139,56.47851 C 119.68308,56.756657 118.5118,58.903079 117.06855,61.248355 C 115.62529,63.593615 114.474,66.215502 114.51013,67.074744 C 114.54626,67.933986 113.43621,70.452173 112.04337,72.670721 C 110.65054,74.889261 108.90887,78.334756 108.17299,80.32737 C 107.43713,82.319984 105.86689,85.204256 104.68358,86.736858 C 103.50027,88.269459 102.10594,91.023782 101.58505,92.857552 C 101.06418,94.691342 100.25079,96.208002 99.777534,96.227892 C 99.304282,96.247782 98.938214,96.767072 98.964057,97.381862 C 98.989909,97.996652 97.240478,101.39448 95.076449,104.93261 C 92.912419,108.47073 91.178165,112.34992 91.222544,113.55303 C 91.266947,114.75614 90.335712,117.61127 89.153143,119.89773 C 87.97059,122.1842 87.017112,124.38969 87.03431,124.79877 C 87.083383,125.96616 81.007723,135.66582 79.370553,137.03384 C 77.097946,138.93284 75.466072,138.58746 75.365112,136.18612 z M 67.743929,92.715442 C 69.759162,90.523332 68.889938,88.180677 66.110434,88.313044 C 62.041378,88.506811 61.030884,89.637922 62.828077,91.987192 C 64.532686,94.215462 66.145324,94.454362 67.743929,92.715442 z M 217.69084,122.49968 C 214.62692,119.50127 214.32315,113.84963 216.74275,104.86015 C 220.06108,92.531502 221.57487,84.554018 220.69022,84.05737 C 220.20996,83.787742 218.64578,83.876491 217.21425,84.254579 C 215.43908,84.723437 214.21203,84.4999 213.35526,83.551601 C 210.8685,80.799219 208.84536,82.265657 202.32293,91.548192 C 198.74847,96.635272 194.51359,102.13719 192.91209,103.77469 C 191.31059,105.41218 190.02446,107.32712 190.05401,108.0301 C 190.08356,108.73308 188.69526,110.71837 186.96889,112.44186 C 185.24252,114.16534 183.85012,116.05326 183.87467,116.63725 C 183.93449,118.06004 178.51786,123.75462 177.04582,123.81649 C 176.40394,123.84348 175.58774,123.43615 175.23207,122.91132 C 174.39299,121.67315 176.69196,116.2778 179.04623,113.96007 C 180.0563,112.96567 180.85991,111.60909 180.83201,110.94547 C 180.80411,110.28185 181.78309,108.56244 183.00752,107.12457 C 184.23194,105.68668 185.21132,103.97686 185.18392,103.32497 C 185.1565,102.67307 185.57592,101.97148 186.11595,101.76589 C 186.65599,101.56029 187.09099,99.404452 187.08263,96.975112 C 187.07425,94.545782 187.36605,92.545592 187.73106,92.530232 C 188.09607,92.514872 188.78606,90.698702 189.2644,88.494307 C 191.0921,80.071215 198.31058,65.656643 204.08296,58.903163 C 207.15868,55.304686 210.11712,52.341897 210.65727,52.319186 C 211.19742,52.296483 213.00158,50.748863 214.66651,48.880046 C 216.33143,47.011212 218.25571,45.458548 218.94269,45.429664 C 219.62966,45.400788 221.12398,44.708711 222.26341,43.891725 C 223.40283,43.07474 226.85649,42.035128 229.9382,41.581464 C 235.5058,40.761864 235.55784,40.776515 238.14731,43.890957 C 240.28821,46.465893 240.79371,48.008459 240.9797,52.534286 C 241.41723,63.180888 238.49059,71.137268 231.40742,78.557492 C 227.50581,82.644773 226.43509,84.413441 226.51336,86.641644 C 226.56847,88.210363 225.67289,92.476942 224.52318,96.122932 C 223.37347,99.768932 222.35083,103.60045 222.25066,104.63742 C 222.15048,105.67439 221.60774,107.47821 221.04457,108.6459 C 219.42148,112.0113 219.11734,118.1859 220.49933,119.7155 C 222.12449,121.51425 228.33225,120.91515 232.95442,118.51347 C 234.93501,117.48436 237.02714,116.62253 237.6036,116.59829 C 238.18005,116.57406 239.45898,115.73615 240.44565,114.73629 C 245.99866,109.10901 251.37803,109.40546 248.11262,115.15882 C 247.29424,116.60072 247.36345,117.29925 248.44311,118.49424 C 250.02109,120.24076 254.23061,119.70056 258.8256,117.16185 C 260.39414,116.29524 264.91367,114.77762 265.34789,114.75936 C 266.60492,114.70652 263.53831,119.26981 262.26348,119.68382 C 261.62969,119.88964 258.74777,120.91947 255.85919,121.97233 C 251.40071,123.5974 250.25445,123.71646 248.27216,122.76044 C 246.98787,122.14104 245.48924,121.93774 244.94188,122.30868 C 244.39451,122.67961 243.93135,122.6188 243.91263,122.17354 C 243.89391,121.72827 243.26658,120.5968 242.51853,119.65915 C 241.21525,118.02554 241.05748,118.02676 238.74005,119.68839 C 237.40993,120.64212 234.23979,121.75819 231.69532,122.16857 C 229.15084,122.57895 226.86172,123.2839 226.60841,123.73513 C 225.57834,125.5699 220.0448,124.80328 217.69084,122.49968 z M 197.7242,91.642852 C 197.73659,90.760542 199.48705,88.455634 206.68433,79.844696 C 208.36612,77.832579 211.5339,73.80451 213.72386,70.893425 C 218.3086,64.798979 226.09258,56.342552 227.15896,56.297722 C 227.55802,56.28095 227.4954,57.755349 227.01978,59.574175 C 226.54418,61.392992 225.7011,62.908144 225.14628,62.941163 C 224.01849,63.008294 213.92954,75.804783 213.98396,77.099088 C 214.00305,77.553237 215.62364,77.703395 217.58527,77.432765 C 220.04611,77.093275 221.6604,77.408216 222.79209,78.448596 C 224.29972,79.834573 224.6103,79.828851 226.63403,78.377798 C 231.67892,74.760511 235.40937,63.157107 234.32004,54.470728 C 233.34351,46.683792 229.3148,44.906053 221.52624,48.82526 C 214.01765,52.603598 196.16275,75.516638 196.3964,81.074192 C 196.42255,81.696115 195.83675,82.93535 195.09464,83.828053 C 193.61174,85.61183 191.27371,95.186332 192.04359,96.322402 C 192.62033,97.173432 197.70537,92.984502 197.7242,91.642852 z M 126.71968,112.99471 C 126.63897,111.07502 130.21751,109.12301 134.71344,108.63432 C 138.74209,108.19642 139.6087,108.36996 139.66099,109.62512 C 139.70356,110.64706 138.37771,111.54677 135.62396,112.3646 C 130.75721,113.80997 126.76584,114.09242 126.71968,112.99471 z M 264.90969,72.020048 C 261.34459,67.918065 261.45134,66.405369 265.59987,62.239371 C 268.16906,59.659348 269.67042,58.832941 271.24042,59.134568 C 274.03217,59.670917 274.78961,61.759996 272.4524,62.477333 C 270.81032,62.981323 270.69504,63.628997 271.32855,68.791048 C 272.00825,74.329416 271.95185,74.553521 269.81059,74.821687 C 268.26393,75.015396 266.77149,74.162226 264.90969,72.020048 z"
       id="path2453"
       style="fill:#000000" />
  </g>
</svg>
