<?xml version="1.0" encoding="UTF-8"?>
<svg version="1.1" xmlns="http://www.w3.org/2000/svg" width="516" height="159" >
<path d="M8.643,90.869c-0.858,2.137,0.969,4.019,3.114,3.792c2.667-0.281,5.204-1.805,7.483-3.104 c5.907-3.367,11.424-7.455,16.875-11.501C57.427,64.234,77.566,46.828,98.06,29.975c6.89-5.666,13.78-11.333,20.783-16.859 c3.33-2.627,6.708-5.519,10.46-7.542c1.258-0.678-1.106-1.352-1.027-1.528c-0.518,1.163-1.29,2.233-2.003,3.279 c-3.266,4.788-7.05,9.238-10.746,13.693c-11.821,14.25-24.108,28.13-36.583,41.809c-5.335,5.851-10.722,11.659-16.279,17.301 c-1.75,1.776-3.525,3.529-5.366,5.212c-0.564,0.516-1.137,1.035-1.744,1.501c-0.26,0.2-0.535,0.376-0.81,0.555 c-1.356,0.881,1.032,3.25,1.592,2.338c1.254-2.043,3.301-3.815,4.91-5.568c3.243-3.533,6.486-7.064,9.667-10.653 c6.745-7.609,13.409-15.517,18.594-24.295c1.15-1.948-1.876-3.708-3.022-1.767c-5.461,9.247-12.566,17.448-19.691,25.437 c-4.424,4.961-9.651,9.625-13.48,15.08c-0.919,1.309-0.266,2.939,1.337,3.129c1.243,0.147,2.65-1.201,3.536-1.908 c4.19-3.344,7.857-7.467,11.549-11.331c12.688-13.281,24.876-27.06,36.884-40.955c8.196-9.485,17.272-18.993,23.907-29.693 c0.841-1.357,2.488-4.658-0.183-5.274c-2.246-0.518-4.85,1.84-6.501,3.016c-13.789,9.818-26.601,21.173-39.648,31.93 C64.731,52.93,45.579,69.668,24.726,83.925c-3.581,2.447-7.334,5.086-11.385,6.714c-0.708,0.285-1.716,0.543-2,0.549 c-0.059,0.002,0.505,0.324,0.577,0.601c0.029,0.113-0.131,0.585,0.1,0.01C12.859,89.703,9.473,88.801,8.643,90.869L8.643,90.869z "/>
<path d="M98.462,26.979c-7.846-1.383-11.82,7.373-13.153,13.555c-2.256,10.462,8.59,7.255,14.24,4.721 c5.515-2.475,10.745-5.568,16.392-7.751c3.791-1.465,7.81-2.539,11.666-3.846c2.724-0.923,7.292-2.935,10.118-1.487 c3.878,1.986-2.679,14.369-3.573,16.279c-0.782,1.671,1.412,3.771,2.749,2.121c3.052-3.77,22.271-26.645,26.918-20.021 c2.97,4.234,4.865,9.142,10.603,9.927c3.316,0.454,6.747-0.345,9.955-1.113c6.832-1.636,13.508-4.098,20.095-6.513 c4.689-1.719,9.316-3.603,13.99-5.364c1.299-0.49,2.609-0.954,3.953-1.305c1.897-0.494-1.444,0.809-0.381-1.596 c-0.327,0.74-0.933,1.384-1.441,1.999c-3.697,4.468-7.969,8.569-11.998,12.737c-10.899,11.273-22.088,22.406-34.302,32.264 c-4.981,4.021-10.618,8.588-16.861,10.438c-5.804,1.722-5.362-4.546-4.747-8.56c0.338-2.207-3.034-3.155-3.375-0.93 c-0.577,3.765-1.361,9.334,2.1,12.063c3.062,2.414,7.258,0.888,10.402-0.517c12.825-5.729,23.839-17.28,33.812-26.844 c9.552-9.16,19.474-18.546,27.926-28.761c2.627-3.175,2.257-6.795-2.574-5.536c-10.39,2.708-20.342,7.782-30.591,11.057 c-6.064,1.938-15.745,6.147-20.418-0.252c-2.954-4.045-4.304-8.772-10.252-7.497c-6.078,1.303-11.572,7.171-15.787,11.346 c-3.347,3.316-6.536,6.837-9.501,10.5c0.916,0.707,1.832,1.414,2.749,2.121c2.188-4.678,9.229-17.529,1.924-21.27 c-5.212-2.669-13.313,1.677-18.222,3.341c-9.146,3.1-17.364,7.845-26.343,11.308c-1.601,0.618-3.59,1.384-5.329,1.021 c-2.337-0.488,0.968-8.337,1.471-9.392c1.224-2.57,4.412-5.301,6.855-4.87C99.738,30.744,100.682,27.371,98.462,26.979 L98.462,26.979z"/>
<path d="M118.214,90.844c0.889-0.666,1.778-1.333,2.667-2c0.761-0.571,1.151-1.5,0.628-2.394 c-0.441-0.753-1.629-1.202-2.395-0.628c-0.889,0.666-1.778,1.333-2.667,2c-0.761,0.571-1.152,1.5-0.628,2.394 C116.26,90.969,117.449,91.418,118.214,90.844L118.214,90.844z"/>
<path d="M209.88,88.844c2.111-1.333,4.222-2.666,6.333-4c1.902-1.201,0.148-4.23-1.767-3.021c-2.111,1.333-4.222,2.666-6.333,4 C206.211,87.024,207.966,90.053,209.88,88.844L209.88,88.844z"/>
<path d="M212.214,66.511c6.051-4.47,11.973-9.125,17.801-13.881c7.876-6.428,17.645-13.446,22.827-22.414 c1.001-1.733-1.327-3.518-2.749-2.121c-3.378,3.319-8.44,8.676-7.167,13.839c1.465,5.94,14.989,4.729,19.066,4.516 c12.767-0.667,25.241-4.834,36.221-11.272c5.976-3.504,16.345-9.671,18.265-17.032c1.804-6.917-9.41-1-10.948-0.06 c-8.602,5.259-16.073,12.388-23.009,19.635c-6.973,7.286-13.419,15.11-19.285,23.312c-4.215,5.894-8.694,12.4-10.621,19.482 c-2.198,8.08,4.531,8.726,10.771,7.649c10.216-1.762,22.342-7.289,28.651-15.784c5.399-7.272-2.377-15.308-10.275-13.575 c-7.095,1.557-11.9,10.618-14.452,16.729c-0.869,2.082,2.519,2.981,3.375,0.93c1.803-4.317,5.759-11.217,10.914-13.897 c3.398-1.768,9.521,0.932,8.772,5.226c-0.696,3.99-5.525,7.139-8.59,9.16c-4.021,2.651-8.488,4.632-13.033,6.186 c-3.52,1.204-8.54,2.911-12.277,1.978c-3.624-0.905,4.153-13.722,4.963-15.057c10.322-17.01,24.689-33.401,40.629-45.352 c2.355-1.766,4.811-3.395,7.361-4.864c0.925-0.533,1.889-0.995,2.885-1.379c1.349-0.52,0.931,0.197,0.766-1.136 c0.348,2.797-6.386,7.531-8.142,8.971c-11.353,9.313-25.742,14.861-40.27,16.436c-5.466,0.593-12.732,1.187-17.869-1.274 c-3.069-1.47,4.481-9.622,5.773-10.891c-0.916-0.707-1.832-1.414-2.749-2.121c-4.841,8.377-14.094,14.953-21.422,21.001 c-5.855,4.834-11.843,9.525-17.95,14.038C208.653,64.815,210.396,67.855,212.214,66.511L212.214,66.511z"/>
<path d="M314.213,73.844c12.574-6.216,24.734-13.442,36.374-21.252c8.78-5.892,17.288-12.334,24.822-19.773 c3.176-3.136,8.946-8.221,9.943-12.97c0.76-3.621-3.357-2.572-5.106-1.557c-4.491,2.607-8.546,6.161-12.555,9.43 c-12.473,10.171-24.493,20.928-36.36,31.795c-4.024,3.686-26.027,21.458-12.302,24.9c9.156,2.297,21.093-4.952,28.517-9.24 c9.929-5.734,20.291-11.086,29.75-17.586c2.542-1.746,7.812-5.55,4.938-9.161c-2.406-3.025-8.813,1.758-10.863,3.05 c-6.651,4.192-12.863,9.208-18.761,14.393c-3.724,3.274-9.343,7.51-10.907,12.476c-1.439,4.563,4.256,5.476,7.282,5.067 c9.948-1.341,19.879-8.816,27.895-14.238c-0.706-0.916-1.413-1.832-2.12-2.748c-1.968,2.432-6.392,7.831-4.016,11.06 c2.239,3.043,7.335,0.859,10.024-0.194c10.874-4.258,20.953-10.918,30.777-17.116c-0.706-0.917-1.413-1.833-2.12-2.749 c-4.448,4.59-8.843,9.364-12.537,14.59c-1.123,1.59-3.265,4.614-1.565,6.512c1.718,1.918,4.86,0.164,6.684-0.658 c7.884-3.555,15.364-7.945,23.277-11.45c2.49-1.104,6.667-3.404,9.528-2.801c0.388,0.082-6.351,9.627-7.053,10.474 c-1.438,1.733,0.746,3.952,2.475,2.475c7.159-6.119,14.602-12.074,21.333-18.667c-0.975-0.567-1.95-1.135-2.925-1.703 c-1.217,2.938-1.698,6.547-0.632,9.585c2.507,7.144,12.302,5.285,17.784,3.901c-0.567-0.975-1.135-1.95-1.702-2.925 c-15.8,18.888-32.104,37.478-49.373,55.037c-4.854,4.937-9.822,9.789-15.116,14.256c-2.321,1.958-6.323,5.987-9.653,5.98 c-1.991-0.004,0.2-4.497,0.533-5.145c1.927-3.752,4.773-7.051,7.542-10.195c5.656-6.423,12.07-12.545,19.089-17.465 c6.31-4.423,14.226-6.922,21.559-8.987c11.752-3.31,24.323-4.344,36.192-1.088c10.621,2.913,19.474,10.122,15.844,21.815 c-1.412,4.545-4.353,9.005-7.616,12.457c-1.55,1.639,0.921,4.118,2.475,2.475c8.371-8.854,14.188-23.141,4.142-32.929 c-8.177-7.965-21.893-9.616-32.718-9.255c-10.993,0.366-21.943,3.385-32.055,7.579c-13.997,5.807-25.88,17.476-34.753,29.55 c-2.456,3.344-6.661,9.362-3.227,13.353c2.249,2.613,5.954,0.811,8.276-0.572c6.982-4.158,12.952-10.405,18.687-16.07 c8.18-8.08,15.986-16.539,23.692-25.067c9.852-10.903,19.526-21.982,28.955-33.254c1.094-1.307,0.09-3.377-1.702-2.925 c-3.946,0.996-13.065,3.303-13.889-3.002c-0.267-2.046,0.258-4.288,1.041-6.179c0.705-1.704-1.769-2.835-2.925-1.703 c-6.731,6.592-14.174,12.546-21.333,18.667c0.825,0.825,1.649,1.649,2.475,2.475c1.778-2.144,12.633-13.832,5.792-16.225 c-5.71-1.997-14.939,4.095-19.746,6.464c-4.161,2.05-8.265,4.212-12.411,6.29c-1.539,0.771-3.085,1.545-4.671,2.213 c-1.908,0.804-1.146-0.113-0.993,1.519c-0.04-0.426,0.494-1.12,0.686-1.462c3.227-5.746,8.448-10.757,13.01-15.465 c1.362-1.406-0.404-3.832-2.12-2.749c-8.683,5.477-17.46,10.936-26.74,15.354c-2.263,1.077-4.591,2.052-7.019,2.692 c-0.672,0.178-2.51,0.175-2.352,0.389c-0.681-0.924,2.865-5.822,3.564-6.688c1.161-1.435-0.349-3.947-2.12-2.748 c-5.363,3.627-10.834,7.071-16.601,10.023c-3.56,1.822-7.701,3.851-11.791,3.948c-4.739,0.112,5.281-8.971,6.258-9.879 c6.032-5.609,12.581-10.77,19.461-15.298c2.174-1.431,4.484-2.95,6.973-3.77c1.041-0.342,0.145-0.479,0.058-0.281 c-0.473,1.081-1.629,1.901-2.511,2.621c-8.242,6.726-18.718,11.365-27.864,16.69c-2.08,1.211-30.123,16.577-30.995,9.531 c-0.602-4.866,9.318-11.851,12.652-14.939c5.698-5.281,11.475-10.478,17.287-15.632c8.837-7.836,17.747-15.631,27.049-22.916 c2.529-1.981,5.152-4.146,8.063-5.554c-0.854,0.413-0.513-2.636-1.784-0.498c-1.239,2.085-2.842,3.983-4.405,5.823 c-10.896,12.822-25.765,22.421-39.989,31.126c-7.972,4.879-16.145,9.525-24.526,13.669 C310.424,71.823,312.198,74.841,314.213,73.844L314.213,73.844z"/>
<path d="M432.88,44.178c2.071-0.893,5.32-2.282,5.533-4.845c0.079-0.952-0.855-1.75-1.75-1.75c-1.014,0-1.671,0.8-1.75,1.75 c-0.004-0.169,0.034-0.328,0.114-0.477c-0.1,0.153-0.088,0.142,0.037-0.033c-0.078,0.093-0.544,0.495-0.395,0.383 c-0.464,0.35-0.972,0.643-1.479,0.926c-0.673,0.375-1.37,0.718-2.077,1.023c-0.877,0.378-1.065,1.648-0.628,2.395 C431.012,44.447,432.004,44.556,432.88,44.178L432.88,44.178z"/>
<path d="M469.795,82.355c7.255-1.351,14.609-2.444,21.983-2.822c3.56-0.183,6.995-0.188,9.875,2.095 c7.464,5.917-3.033,12.6-8.047,15.216c-9.916,5.173-21.181,7.948-31.993,10.5c-13.284,3.135-26.784,5.378-40.33,7.021 c-25.392,3.081-51.016,3.67-76.568,3.637c-28.409-0.038-56.812-0.811-85.222-0.758c-28.92,0.053-57.846,0.925-86.764,1.364 c-26.083,0.397-52.17,0.747-78.247,1.471c-17.965,0.499-36.099,0.829-53.959,3.001c-2.942,0.357-19.334,2.102-12.472,8.545 c3.647,3.426,9.98,4.502,14.648,5.51c8.792,1.897,17.855,2.657,26.831,2.879c21.315,0.526,43.221-2.868,61.707-13.957 c3.128-1.877,14.609-7.836,12.994-13.194c-1.222-4.05-7.165-2.77-10.118-2.005c-8.976,2.326-22.246,12.671-13.728,22.53 c4.254,4.924,12.345,6.236,18.362,7.133c11.337,1.69,22.971,1.363,34.377,0.734c24.488-1.35,50.079-4.341,72.794-14.135 c6.08-2.622,11.983-5.983,16.842-10.521c2.002-1.87,7.268-7.014,4.316-9.891c-2.235-2.18-6.669,0.552-8.637,1.789 c-3.383,2.128-6.815,5.456-7.513,9.549c-1.587,9.315,14.258,12.282,20.414,13.704c14.532,3.355,29.785,4.248,44.64,3.311 c15.777-0.996,32.125-4.569,45.354-13.591c1.853-1.263,0.104-4.297-1.766-3.021c-18.11,12.347-41.682,14.3-62.986,13.199 c-9.422-0.487-18.851-1.798-27.986-4.173c-4.096-1.064-15.704-3.548-14.027-9.707c0.779-2.863,3.865-5.134,6.231-6.622 c1.066-0.671,2.204-1.203,3.413-1.556c1.466-0.429-0.078,0.336,0.171-0.729c-0.157,0.672-0.718,1.328-1.103,1.888 c-3.315,4.826-8.811,8.135-13.864,10.827c-21.857,11.644-48.644,14.254-72.883,15.964c-12.212,0.861-24.693,1.253-36.858-0.395 c-5.562-0.753-15.651-2.102-18.083-8.247c-2.457-6.211,5.184-11.271,9.809-13.391c2.428-1.113,5.195-1.88,7.872-1.935 c3.081-0.062,0.53,1.804-1.001,3.235c-16.507,15.435-42.031,19.438-63.679,19.733c-9.743,0.134-19.556-0.618-29.135-2.414 c-4.587-0.859-12.019-1.774-15.397-5.442c0.157,0.17-0.173,0.19,1.109-0.275c1.908-0.692,3.964-1.021,5.958-1.35 c6.84-1.129,13.82-1.538,20.73-1.973c22.021-1.386,44.112-1.763,66.167-2.186c57.039-1.094,114.146-2.636,171.194-1.938 c51.898,0.635,104.093,2.264,155.314-7.678c12.556-2.438,25.145-5.401,37.104-9.997c5.883-2.261,12.01-5.026,16.562-9.506 c4.708-4.634,4.684-11.059-0.658-15.086c-3.227-2.434-6.744-2.769-10.724-2.701c-7.994,0.134-16.108,1.522-23.956,2.983 C466.648,79.393,467.59,82.766,469.795,82.355L469.795,82.355z"/>
</svg>