<?xml version="1.0" encoding="UTF-8" standalone="no"?>
<!-- Created with Inkscape (http://www.inkscape.org/) -->

<svg
   xmlns:dc="http://purl.org/dc/elements/1.1/"
   xmlns:cc="http://creativecommons.org/ns#"
   xmlns:rdf="http://www.w3.org/1999/02/22-rdf-syntax-ns#"
   xmlns:svg="http://www.w3.org/2000/svg"
   xmlns="http://www.w3.org/2000/svg"
   xmlns:sodipodi="http://sodipodi.sourceforge.net/DTD/sodipodi-0.dtd"
   xmlns:inkscape="http://www.inkscape.org/namespaces/inkscape"
   width="219.13098mm"
   height="44.610771mm"
   viewBox="0 0 776.44836 158.06966"
   id="svg2"
   version="1.1"
   inkscape:version="0.91pre4 r13712"
   sodipodi:docname="AssinaturaAmericoThomaz.svg">
  <defs
     id="defs4" />
  <sodipodi:namedview
     id="base"
     pagecolor="#ffffff"
     bordercolor="#666666"
     borderopacity="1.0"
     inkscape:pageopacity="0.0"
     inkscape:pageshadow="2"
     inkscape:zoom="0.9275378"
     inkscape:cx="460.87393"
     inkscape:cy="110.84216"
     inkscape:document-units="px"
     inkscape:current-layer="layer1"
     showgrid="false"
     fit-margin-top="0"
     fit-margin-left="0"
     fit-margin-right="0"
     fit-margin-bottom="0"
     inkscape:window-width="1366"
     inkscape:window-height="705"
     inkscape:window-x="-8"
     inkscape:window-y="-8"
     inkscape:window-maximized="1" />
  <metadata
     id="metadata7">
    <rdf:RDF>
      <cc:Work
         rdf:about="">
        <dc:format>image/svg+xml</dc:format>
        <dc:type
           rdf:resource="http://purl.org/dc/dcmitype/StillImage" />
        <dc:title></dc:title>
      </cc:Work>
    </rdf:RDF>
  </metadata>
  <g
     inkscape:label="Camada 1"
     inkscape:groupmode="layer"
     id="layer1"
     transform="translate(53.731071,-692.27757)">
    <path
       style="fill:#000000"
       d="m 120.84229,849.46739 c 0,-0.77343 0.52734,-1.80615 1.17187,-2.29492 0.64454,-0.48878 13.19532,-2.24034 27.89063,-3.89238 14.69531,-1.65203 46.96875,-5.2998 71.71875,-8.10615 135.84243,-15.40289 219.5012,-23.39943 285,-27.24176 26.26499,-1.54078 136.99696,-3.04902 141.46789,-1.92689 1.65332,0.41495 2.43836,1.24294 2.43836,2.5717 0,1.76496 -0.34937,1.88961 -3.51563,1.25428 -10.821,-2.17129 -104.28767,-1.25638 -150.23437,1.47058 -63.29768,3.75676 -180.65723,15.45013 -321.09375,31.99288 -22.17188,2.61173 -43.05469,4.96031 -46.40625,5.21905 -3.35156,0.25874 -6.62109,0.89555 -7.26563,1.41515 -0.83654,0.67438 -1.17187,0.54231 -1.17187,-0.46154 z m 254.37297,-58.429 c -0.37654,-0.98123 1.03853,-3.1157 4.19528,-6.32812 2.6199,-2.6661 5.59609,-6.80489 6.61377,-9.19731 1.01766,-2.39241 2.28038,-4.61564 2.80603,-4.94051 0.52565,-0.32487 1.5554,-1.79276 2.28834,-3.26198 1.21867,-2.44288 1.19271,-2.63473 -0.30358,-2.24344 -0.8999,0.23533 -1.90647,-0.009 -2.23681,-0.54393 -0.35044,-0.56703 0.76144,-1.22732 2.66948,-1.58527 2.30578,-0.43257 4.49474,-1.97995 7.42304,-5.24734 3.55259,-3.96397 4.50667,-4.54508 6.59972,-4.01976 4.55828,1.14405 2.34409,6.4041 -3.8766,9.20924 -3.61537,1.6303 -12.26528,11.36295 -11.11826,12.50996 0.69847,0.69848 7.61239,-4.0845 14.91263,-10.31641 2.99186,-2.55403 5.71913,-4.36432 6.06059,-4.02286 0.63453,0.63452 0.47627,0.91808 -3.45666,6.19358 l -2.26879,3.04331 3.57469,-0.67062 c 1.96609,-0.36884 5.77678,-1.91338 8.46818,-3.43232 5.36433,-3.02744 7.49975,-2.3985 6.38106,1.8794 -0.54542,2.08569 -0.41341,2.14213 3.55485,1.51978 2.26673,-0.3555 5.26439,-1.45768 6.66149,-2.44929 3.06988,-2.17892 4.31806,-2.25012 6.40095,-0.36514 1.42833,1.29263 2.03174,1.2874 5.97626,-0.0518 2.41313,-0.81928 6.1611,-1.36082 8.32881,-1.20342 3.49255,0.25359 3.97439,0.57254 4.23187,2.80124 0.21412,1.85344 -0.27913,2.80891 -1.875,3.63202 -1.19106,0.61433 -3.14536,2.3302 -4.34288,3.81306 -1.19753,1.48286 -2.56862,2.6961 -3.04688,2.6961 -1.75049,0 -0.82938,-4.88854 1.23982,-6.58005 1.61535,-1.3205 1.85267,-1.98567 1.01331,-2.84009 -0.8474,-0.86261 -2.17676,-0.85649 -5.85937,0.027 -2.61982,0.62848 -4.76331,1.47459 -4.76331,1.88024 0,1.33119 -8.44789,2.10891 -9.89171,0.91064 -1.04088,-0.86386 -2.17458,-0.77467 -5.11669,0.40253 -4.7197,1.88845 -7.88441,1.92303 -9.70142,0.10602 -1.51656,-1.51656 -5.29018,-1.93228 -5.29018,-0.58279 0,1.1883 -7.8008,3.00075 -8.76505,2.03649 -1.42755,-1.42756 -7.20788,1.78306 -12.65828,7.03088 -2.91248,2.80424 -5.80478,5.10099 -6.42733,5.1039 -0.62255,0.003 -2.31005,1.48182 -3.75,3.28649 -2.90416,3.63975 -3.81093,3.99077 -4.65137,1.80061 z m 28.28328,-32.26933 c 0.93327,-1.03125 1.22443,-1.875 0.64703,-1.875 -0.57739,0 -1.50137,0.84375 -2.05328,1.875 -0.55191,1.03125 -0.84308,1.875 -0.64703,1.875 0.19604,0 1.12001,-0.84375 2.05328,-1.875 z M 140.7019,786.22857 c 0.25357,-2.17162 1.18144,-2.88627 6.39039,-4.92188 5.73328,-2.24051 19.40114,-10.4103 22.5,-13.44908 2.04582,-2.00616 8.14778,-9.10826 10.62784,-12.3698 8.09643,-10.64763 8.37368,-18.28125 0.66398,-18.28125 -1.47688,0 -3.90485,2.99482 -9.90538,12.21795 -4.37192,6.71987 -7.94894,12.52819 -7.94894,12.90737 0,0.37919 -1.05962,2.24879 -2.3547,4.15468 -2.67829,3.94145 -5.1453,3.8817 -5.1453,-0.12462 0,-1.72458 1.19108,-3.64769 3.77666,-6.09778 2.07717,-1.96832 5.90393,-7.01228 8.50391,-11.2088 2.59997,-4.19653 5.21521,-8.35672 5.81163,-9.24487 0.82576,-1.22966 0.81505,-1.88418 -0.0449,-2.74414 -0.87621,-0.8762 -2.47161,-0.88198 -7.11827,-0.0258 -3.29393,0.60693 -7.52235,1.10351 -9.3965,1.10351 -1.87414,0 -3.40753,0.42187 -3.40753,0.9375 0,0.51562 -0.73828,0.94385 -1.64063,0.95161 -2.60308,0.0224 -8.42862,2.28765 -10.34634,4.02316 -2.33725,2.11519 -3.95053,2.00745 -3.95053,-0.26384 0,-3.9425 15.04006,-8.63835 29.31379,-9.15243 9.7727,-0.35198 10.14469,-0.44403 11.65007,-2.88292 11.33094,-18.35741 15.29231,-22.23944 16.05827,-15.73668 0.22551,1.91457 -0.16516,2.69807 -1.52229,3.05297 -1.77803,0.46497 -3.43642,2.36124 -8.18644,9.36078 -2.92245,4.30648 -2.91136,5.60651 0.0542,6.35081 8.29955,2.08306 7.97933,11.91727 -0.7199,22.10904 -10.33061,12.10304 -15.19172,15.95433 -35.73116,28.30847 -7.03876,4.2337 -8.32593,4.4002 -7.93193,1.02604 z m 573.10914,-6.47223 c -8.07206,-3.07906 -16.38464,-3.98183 -41.11457,-4.46515 -16.92909,-0.33087 -25.60413,-0.85312 -27.05322,-1.62865 -1.40266,-0.75069 -7.91372,-1.21216 -19.01392,-1.34763 -9.28443,-0.11332 -18.7466,-0.69473 -21.02704,-1.29203 -5.21709,-1.36649 -23.0821,-0.86922 -24.63708,0.68576 -2.2159,2.2159 -7.31042,0.43179 -7.31042,-2.56012 0,-1.57546 -15.37209,-1.26587 -19.33367,0.38939 -4.07362,1.70207 -6.91633,0.56037 -6.91633,-2.77776 0,-3.06971 1.50435,-3.76209 4.25627,-1.95897 1.88454,1.2348 3.86225,1.39749 10.9744,0.90275 5.84252,-0.40642 9.90016,-0.22601 12.42558,0.55248 2.0625,0.63579 10.07724,1.3224 17.81054,1.52581 7.7333,0.20341 15.32851,0.78831 16.87825,1.29977 1.54975,0.51146 7.87875,0.91147 14.06446,0.88891 6.18571,-0.0226 12.72331,0.1904 14.528,0.47324 10.81611,1.69514 21.26981,2.38297 37.03125,2.43657 14.02552,0.0477 19.55439,0.44753 26.0057,1.88071 4.50626,1.00108 10.48348,1.82014 13.2827,1.82014 6.29615,0 8.05535,0.63612 8.05535,2.9128 0,2.21653 -3.51142,2.31982 -8.90625,0.26198 z m -470.96452,-2.55031 c -0.77712,-0.93637 -0.95565,-2.60701 -0.52429,-4.90629 0.65118,-3.47113 0.64217,-3.48347 -2.05357,-2.8075 -1.48919,0.37342 -3.46234,1.48846 -4.38477,2.47788 -0.92242,0.98942 -2.45172,1.79894 -3.39844,1.79894 -0.9467,0 -3.03072,0.26189 -4.63114,0.58197 -2.5278,0.50556 -3.03248,0.25939 -3.84397,-1.875 -1.07024,-2.81493 -4.20773,-3.29044 -7.12949,-1.08054 -2.89811,2.19203 -9.28957,1.84316 -10.90873,-0.59543 l -1.34887,-2.03151 -3.68735,1.9371 c -6.44092,3.38363 -13.60518,5.99781 -15.61449,5.6976 -2.56901,-0.38384 -3.95366,-2.74493 -3.24653,-5.53596 0.72714,-2.87002 12.14605,-14.91073 14.14071,-14.91073 3.02663,0 1.36452,3.55841 -4.12502,8.83132 -3.09469,2.97256 -5.39011,5.78751 -5.10092,6.25542 0.68543,1.10905 3.75558,1.0885 5.81849,-0.0389 3.4087,-1.86296 19.4968,-8.4853 20.61391,-8.4853 1.39475,0 1.56892,2.45544 0.23274,3.28125 -1.65787,1.02461 -0.99895,3.28125 0.95809,3.28125 1.04256,0 4.68686,-1.26563 8.09841,-2.8125 3.41157,-1.54688 7.19918,-2.8125 8.41692,-2.8125 2.93477,0 2.86419,2.34331 -0.12967,4.30496 -1.28906,0.84463 -2.34375,1.90904 -2.34375,2.36536 0,2.45514 9.36125,-0.86794 17.06347,-6.05725 2.99017,-2.0146 6.37403,-1.32844 6.37403,1.29248 0,0.97857 -1.26563,3.22067 -2.8125,4.98247 -1.54688,1.76179 -2.8125,3.59428 -2.8125,4.07218 0,0.47792 -0.54954,1.62047 -1.2212,2.53902 -1.08193,1.47963 -1.35558,1.50817 -2.39957,0.25025 z m 54.36816,-2.53444 -2.10522,-2.84746 2.34697,-2.78923 c 1.29085,-1.53407 5.76832,-8.37381 9.94995,-15.19941 4.18164,-6.8256 8.63414,-13.84366 9.89444,-15.5957 1.2603,-1.75203 2.29147,-3.70742 2.29147,-4.3453 0,-2.08694 -4.6231,-4.25009 -11.04308,-5.16704 -23.09865,-3.29915 -32.17744,-3.33852 -40.98817,-0.17778 -5.60157,2.00949 -7.96506,5.77058 -7.9673,12.67861 -0.003,8.91491 5.43829,15.06549 21.68595,24.51332 11.03316,6.41565 12.71706,7.64762 11.77262,8.61306 -1.4892,1.52232 -22.32581,-10.88523 -29.08633,-17.32001 -5.07006,-4.82577 -7.19629,-9.39623 -7.13521,-15.33762 0.0726,-7.05582 2.54012,-12.88855 6.40835,-15.14772 6.82606,-3.98664 38.83811,-2.99973 53.38433,1.6458 6.1717,1.97101 6.93317,2.04074 7.44456,0.68165 0.3133,-0.83267 1.75475,-3.15928 3.20321,-5.17024 1.44847,-2.01095 2.63357,-4.1217 2.63357,-4.69054 0,-0.56884 1.27459,-2.23726 2.83241,-3.7076 2.20398,-2.08021 3.11697,-2.43719 4.11493,-1.60895 3.34346,2.77482 1.72079,9.29095 -2.02259,8.12216 -1.53032,-0.47781 -5.3009,4.31688 -10.31713,13.11933 -0.64549,1.13271 -4.23142,6.74345 -7.96875,12.46831 -11.75815,18.01126 -12.88887,19.9561 -12.88887,22.16891 0,1.18782 0.52734,2.37709 1.17187,2.64283 0.78408,0.32326 0.30143,1.27983 -1.45852,2.89062 -1.44672,1.32411 -2.94942,2.40747 -3.33933,2.40747 -0.38989,0 -1.65626,-1.28136 -2.81413,-2.84747 z m 18.95323,0.4688 c -0.30416,-0.79264 0.17229,-2.24262 1.05877,-3.22217 3.6115,-3.99066 -1.49179,-5.14045 -5.99552,-1.35081 -3.43935,2.89403 -5.33694,2.67266 -2.88374,-0.3364 1.88428,-2.31124 11.86857,-7.14417 12.48379,-6.04282 0.20727,0.37104 0.65415,1.83478 0.99307,3.25274 0.70583,2.95295 3.14772,3.39635 6.52339,1.18453 2.30843,-1.51255 12.48097,-5.1085 14.55704,-5.14585 0.8933,-0.0161 1.13273,0.75339 0.79089,2.54161 -0.45031,2.35568 -0.19813,2.22208 3.09483,-1.63963 1.9718,-2.31237 3.87676,-3.91263 4.23324,-3.55614 0.86025,0.86023 -2.6683,5.77161 -8.23862,11.46735 -3.97788,4.06745 -4.68036,4.45294 -5.89717,3.23614 -1.21681,-1.21681 -1.15661,-1.62259 0.50528,-3.40642 2.16334,-2.32207 2.48652,-4.91596 0.61249,-4.91596 -0.70077,0 -3.71245,1.22991 -6.69262,2.73314 -2.98017,1.50323 -5.99985,2.51006 -6.7104,2.23739 -0.71055,-0.27266 -2.15918,0.6068 -3.21917,1.95436 -2.16046,2.74658 -4.38371,3.17666 -5.21555,1.00894 z m 37.40216,0.35645 c -0.80503,-0.80502 -0.73335,-1.88424 0.28735,-4.32714 1.85496,-4.43954 1.82654,-11.46314 -0.0464,-11.46314 -1.98585,0 -1.77657,-0.8371 1.40625,-5.625 1.54246,-2.32031 2.80627,-4.70096 2.80849,-5.29032 0.008,-2.14156 2.86987,-2.22876 3.65316,-0.11132 0.54778,1.48079 0.12725,3.26596 -1.48259,6.29366 -4.03103,7.58133 -1.988,18.25057 2.6656,13.92043 2.19885,-2.046 9.57214,-5.44281 11.80846,-5.44005 3.15565,0.004 2.66387,2.91152 -1.29358,7.64827 -3.94523,4.72214 -5.38588,5.09347 -5.79993,1.49495 -0.16316,-1.41796 -0.61126,-2.57812 -0.99579,-2.57812 -0.95575,0 -7.64331,3.44467 -10.01054,5.15629 -1.44712,1.04634 -2.19546,1.12652 -3.0005,0.32149 z m -277.416276,-3.9848 0.56636,-4.13202 -2.54831,1.2296 c -12.12947,5.85268 -15.43597,6.36728 -15.98513,2.48779 -0.27018,-1.90861 -0.70854,-2.13819 -3.28125,-1.7185 -1.63318,0.26642 -4.75314,1.02601 -6.93326,1.68797 -4.58293,1.39156 -8.95563,0.35481 -9.45571,-2.2419 -0.71713,-3.72374 9.84158,-10.7679 12.3187,-8.21831 0.8494,0.87424 0.29783,1.83362 -2.41477,4.2002 -1.9336,1.68693 -3.51563,3.54978 -3.51563,4.13967 0,1.31825 4.3545,1.43228 5.15625,0.13502 0.31868,-0.51563 1.17989,-0.9375 1.91381,-0.9375 0.73393,0 4.09147,-1.6875 7.46119,-3.75 3.36972,-2.0625 6.75216,-3.75 7.51651,-3.75 2.2304,0 1.60169,2.38223 -0.99554,3.77223 -3.24437,1.73633 -2.86773,5.28062 0.51028,4.8018 2.29665,-0.32554 13.12905,-5.69475 15.56074,-7.71287 0.67767,-0.56242 1.67248,-0.75042 2.210698,-0.41779 1.68116,1.03902 1.09292,5.05446 -0.896438,6.11913 -1.04422,0.55884 -1.875,1.96296 -1.875,3.16893 0,2.30445 -2.61858,5.26857 -4.65437,5.26857 -0.90928,0 -1.07935,-1.06616 -0.65913,-4.13202 z m -29.8042,-7.18035 c 1.009,-1.63261 -0.14017,-1.97835 -1.42599,-0.42904 -0.73946,0.89099 -0.81059,1.42891 -0.18893,1.42891 0.54833,0 1.27504,-0.44994 1.61492,-0.99987 z m 45.561868,9.67174 c -1.37198,-2.5819 1.34955,-7.8683 5.55038,-10.78125 5.321448,-3.69 8.354338,-3.17654 6.971538,1.18027 -0.40115,1.26389 -1.41965,1.86661 -3.15427,1.86661 -2.968688,0 -4.811818,1.5195 -4.811818,3.96692 0,2.44412 2.43617,3.05781 5.130508,1.29241 1.26693,-0.83013 2.71612,-1.50933 3.22042,-1.50933 0.50429,0 2.52304,-0.94913 4.48611,-2.10917 7.89768,-4.66702 15.28796,-5.89884 15.28796,-2.54821 0,1.58451 -8.0817,9.34488 -9.73181,9.34488 -0.95237,0 -2.01826,-1.1547 -2.59616,-2.8125 -1.14885,-3.29555 -1.45177,-3.37699 -4.01786,-1.08015 -4.752,4.25341 -14.733968,6.20246 -16.334998,3.18952 z m 26.118328,-5.39062 c 0.65103,-0.78444 0.75255,-1.40625 0.22958,-1.40625 -0.51562,0 -1.46268,0.63281 -2.10458,1.40625 -0.65103,0.78444 -0.75255,1.40625 -0.22958,1.40625 0.51562,0 1.46268,-0.63281 2.10458,-1.40625 z m 393.40184,4.41386 c -0.90108,-1.45796 4.57368,-13.19383 7.7445,-16.60136 1.43941,-1.54688 4.00642,-5.34375 5.70446,-8.4375 1.69804,-3.09375 4.21428,-7.10156 5.59165,-8.90625 4.7487,-6.22197 12.87828,-20.93253 14.21736,-25.72648 0.71399,-2.55608 0.18001,-2.20591 -4.92003,3.22648 -3.14652,3.35156 -6.78211,7.76004 -8.07907,9.79662 -1.29698,2.03657 -7.93881,9.20845 -14.75963,15.9375 -6.82082,6.72904 -13.15398,13.71119 -14.0737,15.51588 -0.9197,1.80469 -3.08524,5.13489 -4.81229,7.40044 -1.72705,2.26555 -3.14009,4.69134 -3.14009,5.39062 0,0.69929 -0.63281,1.27144 -1.40625,1.27144 -1.79287,0 -1.9484,-6.13707 -0.18296,-7.21904 0.67281,-0.41234 2.12748,-2.24065 3.2326,-4.0629 1.10512,-1.82225 3.08538,-4.56444 4.40057,-6.09375 1.31518,-1.52931 2.39177,-3.24989 2.3924,-3.82352 0.003,-2.2568 5.87143,-8.28309 9.17181,-9.41771 1.90343,-0.65436 3.99482,-1.9201 4.64754,-2.81275 2.00477,-2.7417 13.26991,-15.04271 25.12156,-27.43159 6.20593,-6.48724 12.25205,-13.37702 13.43583,-15.31062 2.23757,-3.65486 3.44179,-4.34153 4.11028,-2.34375 0.457,1.36575 -4.07203,9.14819 -7.96961,13.69455 -1.48416,1.73122 -3.76202,5.5281 -5.06189,8.4375 -1.29987,2.90941 -2.74573,5.92264 -3.21303,6.69608 -0.46729,0.77344 -1.96363,3.51562 -3.3252,6.09375 -1.36156,2.57812 -3.61853,6.375 -5.01549,8.4375 -1.39697,2.0625 -4.26951,6.49219 -6.38342,9.84375 -2.11391,3.35156 -4.64346,7.14844 -5.62122,8.4375 -0.97776,1.28906 -2.91522,4.30313 -4.30548,6.69793 l -2.52774,4.35419 3.94224,-1.35821 c 2.16823,-0.74702 5.095,-2.17906 6.50394,-3.18231 4.47516,-3.18659 6.79022,-2.13663 4.54383,2.06079 -0.55533,1.03764 -0.78508,2.47195 -0.51055,3.18736 0.42382,1.10446 1.17737,1.09494 4.99406,-0.0631 5.56213,-1.68764 5.90118,-1.69311 5.90118,-0.0951 0,1.27588 -3.85615,2.46094 -8.00782,2.46094 -1.18163,0 -2.28905,0.40944 -2.46093,0.90987 -0.17187,0.50044 -1.36719,1.02778 -2.65625,1.17188 -2.13188,0.23832 -2.33501,-0.0453 -2.24711,-3.13755 l 0.0966,-3.39956 -5.66316,2.80979 c -3.11473,1.54538 -6.36053,3.67101 -7.21288,4.72361 -1.02883,1.27056 -1.76716,1.562 -2.19665,0.86707 z m -539.275514,-3.51085 c -0.328296,-1.30803 -0.34688,-3.62835 -0.0413,-5.15625 0.604481,-3.02241 0.445644,-3.17955 -1.988369,-1.96713 -12.797545,6.37467 -16.422854,6.99118 -20.250559,3.44378 -4.575478,-4.24041 -4.696037,-6.19984 -0.939772,-15.27401 5.131429,-12.39622 13.723552,-23.69206 23.906623,-31.42942 6.468921,-4.91526 23.3201483,-10.13016 27.96768229,-8.65509 2.50800001,0.796 4.71937001,5.61787 4.71937001,10.29056 0,3.79137 -2.77704,11.03882 -4.68058001,12.21527 -1.459738,0.90217 -1.131862,-4.57824 0.45605001,-7.62293 1.94015,-3.72007 1.75922,-7.14729 -0.53101001,-10.05886 -2.67917199,-3.40601 -8.61569009,-3.46551 -12.49965329,-0.12529 -1.498169,1.28844 -3.318169,2.34261 -4.044447,2.34261 -2.654237,0 -11.110493,4.54418 -13.515473,7.26288 -1.35925,1.53656 -3.275385,3.37866 -4.258078,4.09356 -2.714061,1.97444 -10.228525,13.81649 -14.004656,22.06995 -2.845939,6.22034 -3.241672,7.86101 -2.565456,10.63611 1.361426,5.58709 6.130476,4.93538 22.695643,-3.1015 1.869968,-0.90725 8.652421,-8.34571 14.900707,-16.34193 1.646155,-2.10667 4.3907312,-2.79956 5.2948102,-1.33673 0.598277,0.96803 -5.2358942,8.82431 -10.5059992,14.14735 -2.161147,2.18285 -3.929358,4.42953 -3.929358,4.99262 0,0.56309 -0.682814,1.7783 -1.517363,2.70047 -0.977908,1.08057 -1.311909,2.49527 -0.939467,3.97919 l 0.577896,2.30253 8.149536,-4.1241 c 4.482245,-2.26825 9.6688863,-5.6077 11.5258703,-7.421 1.856983,-1.81329 4.07192799,-3.2969 4.922098,-3.2969 3.28437,0 2.71446,2.20571 -1.50091701,5.8089 -2.94830499,2.52013 -4.34265299,4.4411 -4.34265299,5.98279 0,1.24895 0.105469,2.26624 0.234375,2.26066 0.128906,-0.006 2.132813,-0.60062 4.45312499,-1.3223 7.21006001,-2.24255 11.22556971,-4.25019 13.32097971,-6.66013 1.89403,-2.17832 6.36652,-3.25751 6.36652,-1.53621 0,0.43104 -1.68646,2.29768 -3.74769,4.14808 -4.06549,3.64966 -4.43984,6.89835 -0.62567,5.42959 3.83971,-1.47859 9.85152,-4.67492 14.21711,-7.55889 3.25098,-2.14765 5.15625,-2.38644 5.15625,-0.64624 0,1.59468 -1.91025,3.46875 -3.53572,3.46875 -1.93805,0 -4.21771,2.67484 -3.61601,4.24284 0.62253,1.62228 1.4866,1.70745 4.74695,0.46786 2.98717,-1.13572 3.18508,0.26143 0.32118,2.26739 -2.83604,1.98644 -6.56287,1.83357 -9.38318,-0.38488 -1.28955,-1.01436 -2.5066,-1.69043 -2.70455,-1.50238 -0.19796,0.18805 -2.57081,0.99407 -5.27302,1.79115 -4.83467,1.42611 -4.95633,1.41286 -7.6214797,-0.82971 l -2.70839,-2.27896 -5.41590401,1.86334 c -7.11179209,2.44682 -7.85550509,2.37083 -9.00265509,-0.91989 l -0.9702422,-2.78324 -6.457585,3.25199 c -7.807342,3.93172 -10.003541,4.10914 -10.815572,0.87375 z m 116.904976,-15.259 c -1.03687,-1.93739 0.31142,-4.86276 2.2412,-4.86276 1.78696,0 2.58604,1.53729 1.90857,3.67178 -0.78689,2.47927 -3.10435,3.14437 -4.14977,1.19098 z m 291.610828,-1.02463 c -1.70441,-1.05377 -0.98885,-4.20841 1.04335,-4.59978 0.89798,-0.17293 1.90004,0.38228 2.2268,1.23381 0.76713,1.99909 -1.57754,4.41246 -3.27015,3.36597 z"
       id="path3384"
       inkscape:connector-curvature="0" />
  </g>
</svg>
