<?xml version="1.0" encoding="UTF-8" standalone="no"?>
<!-- Created with Inkscape (http://www.inkscape.org/) -->

<svg
   xmlns:dc="http://purl.org/dc/elements/1.1/"
   xmlns:cc="http://creativecommons.org/ns#"
   xmlns:rdf="http://www.w3.org/1999/02/22-rdf-syntax-ns#"
   xmlns:svg="http://www.w3.org/2000/svg"
   xmlns="http://www.w3.org/2000/svg"
   xmlns:sodipodi="http://sodipodi.sourceforge.net/DTD/sodipodi-0.dtd"
   xmlns:inkscape="http://www.inkscape.org/namespaces/inkscape"
   width="195.37939mm"
   height="56.702526mm"
   viewBox="0 0 692.28919 200.91446"
   id="svg2"
   version="1.1"
   inkscape:version="0.91pre4 r13712"
   sodipodi:docname="Assinatura Afonso Costa.svg">
  <defs
     id="defs4" />
  <sodipodi:namedview
     id="base"
     pagecolor="#ffffff"
     bordercolor="#666666"
     borderopacity="1.0"
     inkscape:pageopacity="0.0"
     inkscape:pageshadow="2"
     inkscape:zoom="1.4"
     inkscape:cx="324.59643"
     inkscape:cy="63.137535"
     inkscape:document-units="px"
     inkscape:current-layer="layer1"
     showgrid="false"
     fit-margin-top="0"
     fit-margin-left="0"
     fit-margin-right="0"
     fit-margin-bottom="0"
     inkscape:window-width="1366"
     inkscape:window-height="705"
     inkscape:window-x="-8"
     inkscape:window-y="-8"
     inkscape:window-maximized="1" />
  <metadata
     id="metadata7">
    <rdf:RDF>
      <cc:Work
         rdf:about="">
        <dc:format>image/svg+xml</dc:format>
        <dc:type
           rdf:resource="http://purl.org/dc/dcmitype/StillImage" />
        <dc:title></dc:title>
      </cc:Work>
    </rdf:RDF>
  </metadata>
  <g
     inkscape:label="Camada 1"
     inkscape:groupmode="layer"
     id="layer1"
     transform="translate(-36.406263,-201.73794)">
    <path
       style="fill:#000000"
       d="m 599.37501,401.24615 c 0.6419,-0.77344 1.58896,-1.40625 2.10458,-1.40625 0.52297,0 0.42145,0.62181 -0.22958,1.40625 -0.6419,0.77344 -1.58896,1.40625 -2.10458,1.40625 -0.52297,0 -0.42145,-0.62181 0.22958,-1.40625 z m 3.75,-2.66545 c 0,-0.24716 2.85324,-3.33448 6.34055,-6.86071 6.51651,-6.58929 9.97954,-10.49817 12.48294,-14.09008 3.85891,-5.53684 12.77278,-15.19521 38.767,-42.00485 6.99711,-7.21659 12.72201,-13.34008 12.72201,-13.60774 0,-0.26765 -3.52049,-0.48035 -7.82331,-0.47266 -8.71879,0.0156 -10.36691,-0.76447 -12.52541,-5.92836 -1.26209,-3.01935 -1.38109,-3.07618 -3.37041,-1.60954 -1.13416,0.83617 -4.7098,2.81685 -7.94585,4.4015 -6.76716,3.31377 -10.73311,3.16791 -14.19981,-0.52222 -3.18579,-3.39111 -2.22192,-5.97142 4.14604,-11.09905 8.52331,-6.86319 15.58315,-10.07209 22.15938,-10.07209 4.82859,0 5.63539,0.27738 7.03936,2.4201 1.52306,2.32448 1.48686,2.62165 -0.91589,7.52078 -4.36759,8.90535 -3.20797,10.76237 6.74021,10.79382 8.08571,0.0256 12.8287,-1.93664 19.27997,-7.97622 4.1995,-3.93151 8.04072,-5.59727 8.04072,-3.48689 0,0.45875 -14.03348,14.90797 -31.18552,32.10938 -17.15203,17.2014 -31.87905,32.36167 -32.72671,33.68948 -4.47577,7.01109 -27.02527,29.36874 -27.02527,26.79535 z m 35.40335,-83.01186 c 0.89535,-0.45847 3.26355,-1.61862 5.26267,-2.57812 4.59577,-2.20581 12.77148,-9.43598 12.77148,-11.29442 0,-1.15773 -0.87297,-1.28865 -4.92187,-0.73813 -5.72377,0.77824 -12.36716,3.90627 -17.07477,8.0396 -3.8327,3.36516 -4.18425,5.241 -1.20648,6.43792 2.76255,1.11041 3.23658,1.12262 5.16897,0.13315 z m -386.92851,64.1598 c -2.10107,-2.53162 2.61617,-13.46953 10.4918,-24.32745 5.81966,-8.0234 5.94529,-8.80244 2.5225,-15.64134 -1.74747,-3.49154 -2.19494,-5.94461 -1.94744,-10.67623 0.10897,-2.08347 1.52718,-4.09616 5.61502,-7.96875 4.96618,-4.70468 8.67408,-6.83987 23.23342,-13.37896 1.09115,-0.49007 3.41146,-3.1916 5.15625,-6.00341 1.7448,-2.8118 4.51456,-7.19338 6.15503,-9.73683 3.3378,-5.17507 3.04314,-6.14736 -1.10767,-3.65495 -4.4061,2.6457 -9.4642,5.09785 -21.01727,10.1891 -11.16306,4.91937 -13.82821,6.78311 -17.51406,12.24758 -2.86424,4.24636 -11.00985,14.93108 -13.2222,17.34375 -0.94563,1.03125 -2.74574,3.35156 -4.00023,5.15625 -1.2545,1.80469 -2.64528,3.53417 -3.09064,3.8433 -0.44535,0.30913 -1.99535,4.61241 -3.44443,9.56283 -3.0287,10.34679 -6.19274,16.33339 -11.61927,21.9845 -3.92514,4.08757 -7.02959,5.02539 -8.95515,2.70525 -1.49108,-1.79665 4.84061,-14.19745 12.04964,-23.59957 4.12472,-5.37952 5.77464,-8.41209 6.30784,-11.59381 0.89257,-5.32609 0.79662,-16.3462 -0.17965,-20.63394 -0.65905,-2.89455 -0.42533,-3.45346 2.44714,-5.85206 1.9302,-1.61177 6.85279,-3.79487 12.55078,-5.5661 15.75066,-4.89613 17.2451,-5.7703 22.5,-13.16139 2.57812,-3.62616 6.74182,-9.19509 9.25264,-12.37539 4.90618,-6.21434 6.85624,-9.67348 5.9591,-10.57062 -0.30887,-0.30887 -3.85786,0.52049 -7.88666,1.84303 -5.8979,1.93611 -27.26982,7.37747 -37.50481,9.54885 -1.93052,0.40956 -5.1235,4.91155 -15.59625,21.99012 -16.34454,26.65409 -19.38027,31.83158 -19.38027,33.05339 0,2.48751 -2.28023,3.63611 -4.29566,2.16383 -1.52363,-1.113 -1.84727,-2.75623 -2.12032,-10.76535 -0.17722,-5.19854 -0.52407,-9.45187 -0.77078,-9.45187 -0.24671,0 -2.42202,1.84275 -4.83402,4.09499 -8.03749,7.50512 -11.07741,9.87753 -16.80502,13.11497 -13.75446,7.77448 -27.00401,10.82746 -47.23673,10.88436 -10.02539,0.0282 -10.94476,-0.11646 -11.38268,-1.79105 -0.62404,-2.38632 1.99023,-4.68847 6.51729,-5.73917 1.97129,-0.45753 8.99825,-0.84193 15.61547,-0.85423 21.88499,-0.0407 35.48249,-5.20124 49.92761,-18.94863 7.45137,-7.09147 7.71016,-7.98146 4.21398,-14.49252 -2.70143,-5.03101 -8.51905,-12.12115 -12.4619,-15.18777 -1.10629,-0.86044 -5.8939,-1.36804 -15.48282,-1.64154 -29.9165,-0.85329 -51.98779,-6.93719 -84.858853,-23.39114 -18.832791,-9.42695 -21.478101,-10.86664 -29.46569,-16.03651 -2.665507,-1.72522 -5.109094,-3.13676 -5.430193,-3.13676 -0.801138,0 -2.6085,-1.50834 -8.796605,-7.34125 l -5.301826,-4.9975 2.34375,-1.92367 c 2.222176,-1.82388 3.121825,-1.89219 17.34375,-1.31688 8.25,0.33373 17.742188,1.1898 21.09375,1.90237 10.131279,2.15401 27.740617,6.85272 31.079897,8.29307 1.72637,0.74464 5.6701,2.31381 8.76385,3.48705 5.43068,2.05945 27.05362,12.44537 32.8125,15.76047 10.65109,6.13131 27.8232,17.39642 32.61867,21.39824 2.45984,2.05274 3.19906,2.15803 12.1875,1.73592 5.26285,-0.24715 14.63133,-0.93451 20.81883,-1.52747 l 11.25,-1.07811 3.28125,-3.81443 c 9.62396,-11.18778 18.95745,-18.59407 21.47311,-17.03931 1.6333,1.00944 1.21434,3.63584 -1.52306,9.54797 -1.40248,3.029 -2.72384,5.88543 -2.93637,6.34761 -0.85243,1.85382 12.89958,-1.01092 36.89257,-7.68524 12.05942,-3.35466 13.09748,-4.05226 18.6823,-12.55477 14.0733,-21.42564 33.58078,-42.76526 43.78792,-47.90045 6.83197,-3.43715 16.94332,-3.78929 23.64783,-0.82357 5.60957,2.48137 8.00066,7.09464 6.09578,11.7609 -1.19606,2.92993 -15.08909,17.45655 -16.69517,17.45655 -0.46941,0 -1.41096,0.54123 -2.09232,1.20273 -1.32126,1.28275 -6.73714,5.21289 -9.32382,6.76602 -12.5917,7.56047 -28.11463,15.20021 -41.29138,20.32189 -9.09419,3.53483 -8.56959,3.00995 -26.9594,26.97319 -2.5515,3.3248 -4.43998,6.36727 -4.19661,6.76106 1.43475,2.32148 34.32549,-14.57081 41.594,-21.36218 7.27621,-6.79857 13.15712,-8.41132 13.15712,-3.60815 0,1.68599 -1.36196,2.89216 -6.32812,5.60426 -3.48047,1.90073 -7.17188,4.46117 -8.20313,5.68987 -1.03125,1.22869 -3.05686,3.6146 -4.50135,5.30202 -3.35168,3.91536 -10.34224,15.72445 -9.69277,16.37391 0.27133,0.27134 6.25752,-1.4209 13.30265,-3.76052 12.74112,-4.23121 15.42272,-4.54835 15.42272,-1.824 0,1.22005 1.12173,1.32348 7.73438,0.71315 9.61682,-0.88761 15.74449,-0.66099 17.3124,0.64025 1.8995,1.57645 1.40871,5.8292 -1.07353,9.30224 -4.59549,6.42978 -8.97325,14.80451 -8.97325,17.16596 0,5.88162 7.34739,1.27142 19.6875,-12.35312 9.25613,-10.21956 12.38245,-12.58863 14.20605,-10.76503 0.74858,0.74858 -0.1553,2.81342 -3.30668,7.55378 -5.06819,7.62363 -5.63336,11.47245 -2.03122,13.83267 2.75063,1.80228 6.38956,1.22759 12.85502,-2.03021 6.02173,-3.0342 10.59534,-8.05874 16.23964,-17.84076 4.71306,-8.16814 7.39048,-10.45982 8.58464,-7.34789 0.84001,2.18902 -2.94082,13.46681 -7.75007,23.11763 -1.46222,2.93426 -2.34881,5.6448 -1.97021,6.02341 1.67237,1.67236 17.37644,-2.96652 29.46976,-8.70518 2.99454,-1.421 5.89057,-1.19402 5.89057,0.46168 0,0.45651 -1.00274,1.91201 -2.22833,3.23443 -4.03196,4.35055 -0.9973,9.89677 3.72286,6.804 2.71539,-1.77919 3.73648,-6.79087 2.28168,-11.19893 -0.60336,-1.82821 -0.87114,-3.6895 -0.59508,-4.13619 0.27608,-0.4467 4.63029,-1.07595 9.67604,-1.39834 16.15017,-1.03188 42.35217,-8.53362 59.1008,-16.92078 5.69672,-2.85274 6.02788,-3.22604 11.59354,-13.06865 10.5261,-18.61496 22.82426,-31.57292 29.97506,-31.58322 2.79231,-0.004 5.53755,2.58946 5.53242,5.22657 -0.0126,6.45478 -19.57257,27.10435 -34.04471,35.94112 -3.41653,2.08616 -7.22523,8.48031 -9.54016,16.01631 -0.39598,1.28906 -2.08204,5.08594 -3.74679,8.4375 -5.76402,11.60436 -7.40835,17.53083 -7.46056,26.88922 -0.046,8.2464 0.066,8.72704 2.66516,11.44228 7.54613,7.88296 25.98658,7.6695 40.54007,-0.46928 6.79541,-3.8002 8.07017,-5.54419 7.66035,-10.48004 -0.25716,-3.0972 -0.79934,-3.75445 -4.9761,-6.03216 -3.83922,-2.09363 -5.87509,-2.55614 -11.25,-2.55575 -3.60938,2.5e-4 -8.25,0.44163 -10.3125,0.98082 -8.12993,2.12541 -7.96875,2.12209 -7.96875,0.16408 0,-3.72275 12.80112,-7.24639 21.62291,-5.95191 11.88371,1.74376 17.95971,6.90865 17.37144,14.76652 -0.45341,6.05632 -3.82746,9.74142 -12.93513,14.12765 -9.75088,4.69598 -15.20125,6.02499 -24.4608,5.96448 -9.03679,-0.0591 -13.33935,-1.17209 -18.23229,-4.71651 -9.42309,-6.82605 -8.62087,-19.84991 2.70519,-43.91812 5.72401,-12.16368 7.72768,-17.03728 7.21521,-17.54975 -0.21213,-0.21214 -2.47979,0.64158 -5.03924,1.89714 -11.01769,5.40481 -31.60016,12.04818 -47.77854,15.42139 -10.61184,2.21257 -11.71671,2.72864 -11.73934,5.48327 -0.0113,1.37798 -0.80156,4.22493 -1.75608,6.32654 -1.83139,4.0323 -6.30023,6.96013 -10.62347,6.96013 -2.44341,0 -6.34071,-3.48162 -6.36421,-5.68542 -0.0282,-2.64426 -1.49715,-3.92134 -3.37563,-2.93473 -6.8508,3.59814 -22.11265,7.68265 -28.70635,7.68265 -3.71729,0 -4.97699,-0.45458 -6.84486,-2.47005 l -2.28916,-2.47004 -5.41195,1.51851 c -7.49457,2.10287 -11.64806,0.92645 -14.52644,-4.1144 -1.16188,-2.03477 -2.33608,-3.70283 -2.60934,-3.7068 -0.27326,-0.004 -1.84669,1.42389 -3.49654,3.17303 -4.9075,5.2029 -11.36094,9.00725 -15.27929,9.00725 -3.05072,0 -3.67328,-0.40215 -5.02178,-3.24391 -1.49855,-3.15794 -1.4661,-3.40544 1.22438,-9.33916 1.52005,-3.3524 3.82323,-7.48435 5.11819,-9.18213 1.29496,-1.69777 2.80058,-4.2602 3.34581,-5.69428 1.37358,-3.61279 -0.30416,-4.06994 -9.86381,-2.68776 -9.29399,1.34377 -15.04284,3.2594 -17.93475,5.97621 -1.85153,1.73943 -2.06576,2.6167 -1.56354,6.40266 0.92817,6.99685 -1.55163,13.93921 -6.58972,18.4484 -7.40904,6.63123 -16.34975,7.42544 -17.8162,1.58264 -1.24662,-4.96695 5.1025,-15.93806 15.12984,-26.14394 2.16879,-2.20741 3.74143,-4.2153 3.49475,-4.46197 -0.8976,-0.8976 -16.7327,4.77592 -19.92302,7.13816 -1.59312,1.17961 -18.07167,26.07805 -20.67947,31.24585 -1.09547,2.17087 -1.99177,5.62721 -1.99177,7.68075 0,4.23687 -4.03373,16.02687 -6.92722,20.24723 -6.25376,9.12156 -10.79154,11.93931 -13.66044,8.48249 z m 8.6776,-8.71687 c 2.90837,-4.69892 6.54794,-13.40898 5.88153,-14.0754 -0.29368,-0.29369 -0.69515,-0.35819 -0.89215,-0.14335 -0.74224,0.80949 -9.01682,16.50948 -9.01682,17.10831 0,1.7348 2.09601,0.231 4.02744,-2.88955 z m -29.55213,-13.68871 c 3.28618,-6.4691 3.73216,-8.01206 1.74001,-6.01991 -2.39876,2.39877 -6.77042,11.97425 -5.46681,11.97425 0.38616,0 2.06322,-2.67945 3.7268,-5.95434 z m 44.67082,-23.11332 c 1.91132,-3.09659 5.34448,-8.47549 7.62924,-11.95312 2.28476,-3.47764 3.8206,-6.43474 3.41296,-6.57135 -0.40762,-0.13661 -3.13728,1.04942 -6.0659,2.63563 -5.94818,3.22167 -11.53549,9.12867 -12.41279,13.123 -0.57969,2.63928 1.60149,8.396 3.18118,8.396 0.42909,0 2.34398,-2.53358 4.25531,-5.63016 z m 34.00587,-2.33789 c 3.12908,-2.19168 5.9105,-7.39186 5.9105,-11.05031 0,-9.37089 -3.79268,-8.1794 -10.17003,3.19498 -3.78718,6.75466 -3.88219,9.26088 -0.35107,9.26088 1.43215,0 3.50692,-0.63249 4.6106,-1.40555 z m -58.65867,-8.90695 c 6.91166,-8.17469 12.1478,-15.54637 11.50164,-16.19253 -0.65535,-0.65535 -9.0062,2.17425 -14.12757,4.78698 -3.77565,1.92619 -5.36088,3.97578 -5.19603,6.71805 0.36583,6.08506 1.42355,12.25774 1.98622,11.59108 0.37593,-0.4454 3.00202,-3.55202 5.83574,-6.90358 z m -34.83185,-8.67187 c 8.49246,-13.57879 18.88933,-30.84505 19.4445,-32.29182 0.61419,-1.60054 -3.49916,-1.63838 -5.64579,-0.0519 -0.87213,0.64453 -3.1676,3.3224 -5.10106,5.95083 -1.93346,2.62842 -6.60859,8.82874 -10.38917,13.77847 l -6.87379,8.99954 0.50958,5.90901 c 0.28027,3.24997 0.52581,6.22543 0.54567,6.61215 0.10793,2.10311 2.10806,-0.26885 7.51006,-8.90625 z m -6.76237,-14.53125 c 9.27189,-11.51533 12.41339,-15.61417 12.41339,-16.19628 0,-0.7405 -4.61025,-0.36635 -12.12531,0.98404 -2.80172,0.50345 -6.86335,0.91536 -9.02582,0.91536 -6.42204,0 -6.98287,1.85724 -2.39557,7.93308 2.12748,2.81781 4.35572,6.19343 4.95165,7.50136 1.47892,3.24588 2.8563,2.9924 6.18166,-1.13756 z m 322.28196,-20.43891 c 10.51749,-8.37279 20.13143,-19.78881 20.13143,-23.90497 0,-1.34991 -0.64617,-1.828 -2.47068,-1.828 -2.87508,0 -12.24917,8.90562 -17.05388,16.20162 -4.5327,6.88295 -8.74308,14.73588 -7.90069,14.73588 0.41587,0 3.69809,-2.34204 7.29382,-5.20453 z m -355.80607,0.47308 c 0,-1.26543 -22.77573,-15.71532 -36.09375,-22.89941 -3.60938,-1.94699 -6.98438,-3.82985 -7.5,-4.18413 -0.51563,-0.35428 -4.10156,-1.86538 -7.96875,-3.358 -3.86719,-1.49263 -7.875,-3.21636 -8.90625,-3.83052 -2.86024,-1.70342 -20.903153,-7.56613 -26.718747,-8.68176 -2.835937,-0.54404 -8.109375,-1.63634 -11.71875,-2.42735 -8.701987,-1.90708 -28.098681,-3.00937 -28.942064,-1.64475 -0.818843,1.32492 4.607174,4.98076 19.098314,12.86773 34.154987,18.58924 55.377837,27.35703 75.937497,31.37202 13.41018,2.61881 32.8125,4.2663 32.8125,2.78617 z m 63.81318,-4.67736 c 1.93176,-1.03385 5.03923,-7.3742 4.07441,-8.31326 -0.63563,-0.61866 -7.88759,7.1666 -7.88759,8.46764 0,1.09593 1.59782,1.03124 3.81318,-0.15438 z m 71.51206,-19.49957 c 0.59455,-0.47418 2.1357,-1.18196 3.42476,-1.57286 3.83065,-1.1616 20.81297,-9.49787 24.63525,-12.09293 1.94782,-1.32244 4.86134,-3.08696 6.47449,-3.92115 1.61314,-0.83419 3.39447,-1.90088 3.9585,-2.37043 0.56403,-0.46955 3.81294,-2.92445 7.2198,-5.45534 6.67757,-4.96065 14.45246,-13.24334 15.23292,-16.22782 0.74529,-2.84999 -3.13784,-6.0694 -8.24432,-6.83516 -11.89246,-1.78339 -19.34563,2.15429 -35.53043,18.77151 -6.9466,7.1322 -24.05871,29.24964 -24.05871,31.09594 0,1.22813 4.82527,0.25312 6.88774,-1.39176 z m 393.8144,73.27455 c -0.2982,-0.94046 -0.94993,-2.72332 -1.44829,-3.96192 -1.88631,-4.68811 3.40402,-5.27293 5.63283,-0.62267 0.90645,1.89123 1.02153,3.18108 0.37541,4.20728 -1.35471,2.15153 -3.92981,2.36461 -4.55995,0.37731 z m -132.17432,-3.14684 c -4.24234,-1.57763 -7.02483,-10.53584 -3.67214,-11.82239 1.60173,-0.61463 4.29579,1.24617 4.10812,2.8375 -0.3034,2.57266 0.24637,3.39056 2.27903,3.39056 2.38551,0 4.98527,-2.42811 8.03024,-7.5 3.01052,-5.01456 2.7047,-5.43761 -3.16208,-4.37422 -3.76646,0.6827 -6.90128,0.59896 -11.73726,-0.31352 -7.24077,-1.36623 -7.45424,-1.27043 -10.44564,4.68774 -3.94873,7.86495 -9.89845,12.1875 -16.77536,12.1875 -3.01572,0 -4.45856,-0.59909 -6.59984,-2.74039 -2.9958,-2.99579 -3.25527,-4.21489 -1.53529,-7.21345 1.72374,-3.00513 7.05295,-8.79616 8.09467,-8.79616 0.50576,0 1.25693,-0.54851 1.66927,-1.21892 1.18953,-1.93399 6.57419,-5.39724 9.85425,-6.33795 3.06001,-0.8776 8.10759,0.23356 11.05171,2.43289 6.53268,4.88006 22.17406,3.79409 28.17611,-1.95625 3.92037,-3.75593 6.52674,-1.23096 2.89136,2.80106 -2.39083,2.65167 -7.90359,13.31143 -7.49392,14.49063 0.50739,1.46049 7.17592,-1.87194 14.70638,-7.34913 8.45982,-6.15315 15.6447,-14.091 21.0786,-23.28759 7.82728,-13.24726 13.23601,-17.82151 16.468,-13.9272 1.22836,1.48008 -0.564,3.94885 -11.66919,16.07289 -5.86054,6.39822 -18.62519,31.31172 -16.91768,33.01923 0.32801,0.32801 2.08196,-0.11203 3.89767,-0.97789 4.063,-1.9375 5.11267,-1.97442 5.11267,-0.17978 0,1.79538 -6.80359,6.10551 -9.63762,6.10551 -4.78562,0 -5.56111,-3.5784 -2.41571,-11.14706 1.10505,-2.65903 1.75575,-5.08803 1.446,-5.39777 -0.30974,-0.30974 -2.58496,0.87646 -5.05604,2.636 -8.31809,5.92291 -13.94938,8.97573 -19.54901,10.59785 -3.06288,0.88726 -5.99074,1.92971 -6.50637,2.31656 -1.7963,1.34766 -3.76297,1.68072 -5.69093,0.96375 z m -24.30907,-7.31988 c 1.54688,-0.94521 3.43011,-2.94753 4.18496,-4.44962 0.75486,-1.50209 2.12595,-3.8509 3.04688,-5.21955 2.58337,-3.83935 2.21741,-6.42477 -0.90371,-6.38456 -1.41797,0.0183 -3.44936,0.54561 -4.5142,1.17188 -4.07037,2.3939 -10.03131,7.8072 -11.30168,10.2634 -1.20147,2.32298 -1.14865,2.73885 0.56563,4.45313 2.3467,2.3467 5.26369,2.40075 8.92212,0.16532 z m 63.82585,-47.83921 c -0.928,-1.50155 0.49399,-3.87274 2.32246,-3.87274 0.95093,0 4.09392,-0.61599 6.98442,-1.36888 14.31576,-3.72878 41.91509,-4.56671 62.80477,-1.9068 12.32303,1.56911 21.95091,1.41986 36.4953,-0.56573 4.5404,-0.61986 6.79769,-0.57946 7.5,0.1342 2.04634,2.07941 -2.32158,3.38894 -15.21588,4.56183 -14.84041,1.34992 -19.46839,1.37267 -39.09192,0.19215 -8.08759,-0.48653 -21.82988,-0.50654 -32.34375,-0.0471 -16.72943,0.73107 -20.9921,1.22476 -26.87422,3.11246 -1.11677,0.35839 -2.2783,0.25066 -2.58118,-0.23941 z"
       id="path3347"
       inkscape:connector-curvature="0" />
  </g>
</svg>
