<?xml version="1.0" encoding="UTF-8" standalone="no"?>
<!-- Created with Inkscape (http://www.inkscape.org/) -->

<svg
   xmlns:dc="http://purl.org/dc/elements/1.1/"
   xmlns:cc="http://creativecommons.org/ns#"
   xmlns:rdf="http://www.w3.org/1999/02/22-rdf-syntax-ns#"
   xmlns:svg="http://www.w3.org/2000/svg"
   xmlns="http://www.w3.org/2000/svg"
   xmlns:sodipodi="http://sodipodi.sourceforge.net/DTD/sodipodi-0.dtd"
   xmlns:inkscape="http://www.inkscape.org/namespaces/inkscape"
   id="svg3468"
   version="1.1"
   inkscape:version="0.91pre4 r13712"
   width="575.625"
   height="202.5"
   viewBox="0 0 575.625 202.5"
   sodipodi:docname="Assinatura_D._Manuel_I.svg">
  <metadata
     id="metadata3474">
    <rdf:RDF>
      <cc:Work
         rdf:about="">
        <dc:format>image/svg+xml</dc:format>
        <dc:type
           rdf:resource="http://purl.org/dc/dcmitype/StillImage" />
        <dc:title></dc:title>
      </cc:Work>
    </rdf:RDF>
  </metadata>
  <defs
     id="defs3472" />
  <sodipodi:namedview
     pagecolor="#ffffff"
     bordercolor="#666666"
     borderopacity="1"
     objecttolerance="10"
     gridtolerance="10"
     guidetolerance="10"
     inkscape:pageopacity="0"
     inkscape:pageshadow="2"
     inkscape:window-width="1366"
     inkscape:window-height="705"
     id="namedview3470"
     showgrid="false"
     inkscape:zoom="2.1038002"
     inkscape:cx="289.30454"
     inkscape:cy="117.18291"
     inkscape:window-x="-8"
     inkscape:window-y="-8"
     inkscape:window-maximized="1"
     inkscape:current-layer="svg3468" />
  <path
     style="fill:#000000"
     d="m 233.47527,200.61673 c -3.57628,-0.71573 -8.88643,-3.5134 -11.80033,-6.21706 -13.57167,-12.5924 -13.35708,-31.49361 0.49999,-44.03827 7.31648,-6.62353 23.55697,-16.30813 26.00007,-15.50449 1.0193,0.33532 -1.18071,2.39987 -4.88894,4.5879 -21.38981,12.62102 -26.84401,29.32498 -15.0688,46.1495 8.03217,11.47637 33.91119,16.08558 45.31641,8.07113 2.89913,-2.03721 5.70494,-3.27595 6.23512,-2.75275 1.17469,1.15925 -2.58426,5.02802 -7.20614,7.4167 -4.57254,2.36321 -30.98511,3.90881 -39.08738,2.28734 z M 110.71292,169.04047 c -2.11132,-1.45936 -5.45572,-5.78125 -7.43201,-9.60415 -2.97544,-5.75565 -3.412988,-8.78229 -2.54474,-17.60291 0.94587,-9.60926 4.4573,-27.91242 7.14718,-37.25432 0.74745,-2.59589 0.14797,-3.80657 -2.18239,-4.40798 -4.01263,-1.035518 -36.991711,3.07313 -41.184122,5.13088 -5.106002,2.50616 -25.222388,8.78991 -27.988346,8.74272 -1.416429,-0.0243 1.077408,-1.89585 5.541812,-4.1593 14.04007,-7.11833 40.51888,-14.279566 53.1492,-14.374338 10.872206,-0.0815 16.851246,-2.513732 16.851246,-6.854734 0,-1.919313 1.87356,-9.371884 4.16346,-16.561264 14.89223,-46.755719 14.77127,-46.145574 12.19693,-61.526348 -1.12633,-6.7293477 -0.86818,-7.9568102 1.89315,-9.0025002 5.65831,-2.14274171 10.93325,6.0342638 10.93325,16.9483052 0,5.106045 -1.07745,10.97238 -2.3943,13.036272 -1.31687,2.063909 -4.02312,10.614436 -6.01388,19.00119 -1.99078,8.386737 -4.85253,19.441997 -6.35949,24.567235 -4.88944,16.629251 -4.89143,16.708914 -0.43996,17.567085 27.28461,5.260021 29.71577,6.125439 39.1008,13.918547 5.30883,4.40836 7.77316,8.79543 13.87515,24.7011 4.53718,11.82679 0.89987,26.69483 -6.00624,24.55131 -0.94429,-0.29308 -2.20347,-4.66468 -2.7982,-9.71463 -1.50763,-12.80171 -10.27594,-29.3371 -18.28659,-34.48509 -7.89116,-5.0712 -22.71369,-9.90068 -28.07067,-9.14601 -3.28836,0.46326 -4.40458,2.22107 -6.27525,9.88211 -1.25145,5.12524 -2.42557,17.05332 -2.60914,26.50687 -0.28756,14.81166 0.11849,17.68145 2.93691,20.75509 1.79884,1.96172 3.94078,3.56679 4.75988,3.56679 0.81909,0 5.72119,-4.38111 10.89355,-9.7358 9.48081,-9.81502 12.54573,-9.73143 5.7084,0.1556 -6.20981,8.97966 -16.67312,18.05163 -20.82018,18.05163 -2.14868,0 -5.63411,-1.19404 -7.74541,-2.65342 z m 334.43057,-9.20664 c -1.41643,-0.90333 -4.30144,-1.65409 -6.41117,-1.66835 -5.31522,-0.036 -15.06833,-8.88091 -13.69298,-12.41794 1.82009,-4.68072 9.11248,-5.33283 14.33148,-1.28156 5.90655,4.58499 18.88916,10.28498 23.42571,10.28498 3.37283,0 3.38451,0.1059 0.37408,3.38858 -3.35401,3.6574 -13.45965,4.60719 -18.02712,1.69429 z M 252.85408,131.87801 c 0,-0.46593 1.5021,-2.32948 3.33799,-4.14123 4.16923,-4.1144 6.24536,-14.37321 3.92558,-19.39761 -1.41897,-3.07334 -3.3376,-3.8711 -10.08773,-4.19444 -11.38754,-0.54545 -28.74879,-1.74587 -29.79635,-2.06018 -1.99981,-0.60005 10.06183,-2.875999 17.16869,-3.239635 l 7.72591,-0.395299 -6.86748,-1.306656 c -3.77712,-0.718651 -11.81172,-0.617915 -17.85467,0.223845 -6.04296,0.841761 -11.34088,1.181451 -11.77315,0.754869 -0.43228,-0.426583 1.55504,-4.823609 4.41622,-9.771177 6.0391,-10.442713 11.81487,-24.219209 14.97206,-35.711732 3.15132,-11.471035 0.7913,-18.620332 -8.31397,-25.185909 -6.62361,-4.776132 -8.02357,-5.121423 -17.50076,-4.31635 l -10.30121,0.875085 6.00904,-3.178131 c 13.81458,-7.306419 34.0848,-1.701302 40.25545,11.131436 5.08488,10.574605 0.30476,24.607807 -17.28983,50.75869 -3.47459,5.164311 -6.00718,9.683145 -5.62796,10.041884 0.3792,0.35872 6.79036,0.05638 14.24698,-0.671971 14.71511,-1.437264 33.59364,1.322 38.63136,5.64634 1.61343,1.384945 12.86748,3.615411 27.21635,5.394101 16.54051,2.05037 24.46541,3.70734 24.46541,5.11541 0,1.14545 -2.12464,2.59324 -4.72141,3.21732 -2.59675,0.62407 -13.21989,4.41968 -23.60695,8.4347 -17.3559,6.70877 -35.3162,12.82378 -37.66451,12.82378 -0.53078,0 -0.96506,-0.38122 -0.96506,-0.84714 z m 18.65182,-9.21483 c 3.43353,-1.80663 11.87004,-4.97062 18.74777,-7.03105 6.87773,-2.06042 12.86754,-4.32516 13.31067,-5.03275 0.98021,-1.56512 -21.4358,-5.4716 -26.92677,-4.69257 -2.353,0.33381 -4.90118,2.59235 -6.36301,5.63969 -1.34107,2.79557 -3.45556,7.17958 -4.69893,9.74217 -2.6891,5.5424 -2.20434,5.65475 5.93027,1.37451 z M 2.1910935,130.22721 c 0,-0.442 2.510919,-2.01273 5.5798185,-3.49057 l 5.579831,-2.68691 -4.2921725,3.45288 c -4.1325325,3.32448 -6.867477,4.40952 -6.867477,2.7246 z m 14.0415405,-8.09139 c 3.223866,-3.0095 15.389613,-8.37148 16.502384,-7.27335 1.137692,1.12273 1.366118,0.97535 -8.699758,5.61286 -9.358279,4.31153 -11.021675,4.66551 -7.802626,1.66049 z M 174.54432,105.06757 c 0.15676,-4.82334 0.88923,-9.722746 1.62761,-10.887571 2.06865,-3.263358 7.67419,-2.50943 9.74597,1.310813 1.5205,2.803706 0.98384,4.646928 -2.94414,10.112278 -7.07396,9.84269 -8.76339,9.73537 -8.42944,-0.53552 z m 197.36265,3.87376 c -10.19199,-4.87872 -21.19131,-14.778029 -21.19131,-19.072025 0,-2.943331 6.2296,-6.413838 9.37491,-5.222737 1.45375,0.550522 2.64317,1.984029 2.64317,3.185594 0,4.591448 16.58385,16.802018 25.23529,18.580588 4.81185,0.9892 6.45819,0.24935 13.30575,-5.9795 4.29793,-3.909615 7.81444,-8.173809 7.81444,-9.475982 0,-3.416471 8.04857,-6.074494 12.02866,-3.972433 1.77071,0.935213 10.27279,3.563127 18.89349,5.83984 17.64113,4.658986 24.01768,3.725436 24.01768,-3.516319 0,-3.941602 5.62759,-8.368178 8.4501,-6.646703 6.77592,4.13268 60.09186,7.690531 94.9913,6.338911 3.54105,-0.137171 6.43825,0.495601 6.43825,1.406108 0,1.962812 0.5089,1.918138 -30.04521,2.637656 -13.2199,0.311316 -30.15064,0.905773 -37.62392,1.321005 -8.55073,0.475107 -17.0147,-0.125964 -22.83229,-1.621262 -12.175,-3.129479 -14.38265,-3.004327 -15.41028,0.873623 -1.90741,7.198096 -18.87849,9.082656 -40.73332,4.523263 l -13.58764,-2.834665 -6.15636,5.879328 c -3.38599,3.23365 -10.40562,7.45913 -15.59915,9.38998 -5.19353,1.93083 -9.44279,3.49154 -9.44279,3.46819 0,-0.0234 -4.75683,-2.31944 -10.57077,-5.10246 z M 428.40082,51.508912 C 418.8134,44.655134 416.98019,34.2222 424.9997,32.152634 c 4.6163,-1.191319 7.44935,1.099111 8.65936,7.000868 0.52111,2.541728 2.54571,6.304899 4.49908,8.362628 4.3525,4.584998 4.37177,5.024901 0.31397,7.16802 -2.54977,1.346651 -4.6895,0.672043 -10.07129,-3.175238 z M 170.43318,42.504098 c -0.0105,-2.170682 11.80487,-13.130754 14.15656,-13.130754 2.73134,0 1.07825,2.756951 -5.33355,8.895024 -7.0815,6.779228 -8.80527,7.606765 -8.82301,4.23573 z"
     id="path3529"
     inkscape:connector-curvature="0" />
</svg>
