<?xml version="1.0" encoding="UTF-8" standalone="no"?>
<!-- Created with Inkscape (http://www.inkscape.org/) -->

<svg
   xmlns:dc="http://purl.org/dc/elements/1.1/"
   xmlns:cc="http://creativecommons.org/ns#"
   xmlns:rdf="http://www.w3.org/1999/02/22-rdf-syntax-ns#"
   xmlns:svg="http://www.w3.org/2000/svg"
   xmlns="http://www.w3.org/2000/svg"
   xmlns:sodipodi="http://sodipodi.sourceforge.net/DTD/sodipodi-0.dtd"
   xmlns:inkscape="http://www.inkscape.org/namespaces/inkscape"
   id="svg2"
   version="1.1"
   inkscape:version="0.48.1 "
   width="475"
   height="230"
   sodipodi:docname="org.gif">
  <title
     id="title2997">Reda Kerbouche</title>
  <metadata
     id="metadata8">
    <rdf:RDF>
      <cc:Work
         rdf:about="">
        <dc:format>image/svg+xml</dc:format>
        <dc:type
           rdf:resource="http://purl.org/dc/dcmitype/StillImage" />
        <dc:title>Reda Kerbouche</dc:title>
      </cc:Work>
    </rdf:RDF>
  </metadata>
  <defs
     id="defs6" />
  <sodipodi:namedview
     pagecolor="#ffffff"
     bordercolor="#666666"
     borderopacity="1"
     objecttolerance="10"
     gridtolerance="10"
     guidetolerance="10"
     inkscape:pageopacity="0"
     inkscape:pageshadow="2"
     inkscape:window-width="1280"
     inkscape:window-height="750"
     id="namedview4"
     showgrid="false"
     inkscape:zoom="1.052669"
     inkscape:cx="259.67349"
     inkscape:cy="6.9174696"
     inkscape:window-x="-8"
     inkscape:window-y="-8"
     inkscape:window-maximized="1"
     inkscape:current-layer="svg2" />
  <path
     style="fill:#000000;stroke:#000000;stroke-width:1px;stroke-linecap:butt;stroke-linejoin:miter;stroke-opacity:1"
     d="m 41.311244,80.204759 2.351046,6.045548 -3.358638,16.121463 0,6.38141 -2.015182,2.35105 0,10.41177 -2.351047,4.36623 -0.671727,10.74764 1.343455,13.77042 -3.694502,4.03036 -0.671727,8.06073 -2.015183,10.07592 -1.491262,0.67222 c 0,0 -1.306203,0 -1.306203,1.06871 0,1.06871 1.187458,3.32488 1.187458,3.32488 0,0 -2.374916,1.42495 -2.968645,1.5437 -0.593729,0.11874 -2.137424,-0.23749 -2.256169,-0.71248 -0.118746,-0.47498 -1.781187,-0.47498 -2.018679,-2.49366 -0.237491,-2.01868 -1.187457,-8.66844 -1.187457,-8.66844 0,0 0.356237,-4.1561 0.474983,-4.63108 0.118746,-0.47499 2.137424,-1.06872 1.543695,-2.49367 -0.593729,-1.42494 -1.187458,-1.78118 -1.543695,-2.96864 -0.356238,-1.18746 0.474983,-4.39359 1.068712,-4.86858 0.593729,-0.47498 1.781186,-1.66244 1.781186,-2.37491 0,-0.71248 -0.949966,-3.32488 -0.949966,-4.3936 0,-1.06871 -0.83122,-4.1561 -0.83122,-4.74983 0,-0.59373 1.424949,-2.13742 1.424949,-2.13742 l -0.237492,-8.43095 c 0,0 -0.593728,0.35624 -0.474983,-0.83122 0.118746,-1.18746 1.543695,-3.56237 1.543695,-3.56237 0,0 0.593729,-4.3936 -0.237491,-4.3936 -0.831221,0 -3.562373,-1.06871 -2.493661,-1.06871 1.068712,0 3.799864,-1.66244 4.037356,-2.49366 0.237491,-0.83122 0.237491,-4.03736 0.237491,-4.03736 0,0 0.949967,-1.42495 0.949967,-2.49366 0,-1.06871 0,-1.42495 0.118745,-3.68112 0.118746,-2.25617 0.949967,-6.88725 0.949967,-6.88725 l 0.949966,-2.018681 0.949966,-8.074712 c 0,0 3.08739,-5.34356 3.08739,-6.293526 0,-0.949966 0,-4.51234 0,-4.51234 0,0 1.899933,-3.681119 2.25617,-4.868576 0.356237,-1.187458 4.037356,-5.818543 4.749831,-5.818543 0.712474,0 3.91861,-2.018679 4.393593,-0.356238 0.474984,1.662441 1.662441,2.493662 1.662441,2.493662 l 3.443628,-0.237492 c 0,0 -0.949966,2.137424 0.712474,3.206136 1.662441,1.068712 1.781187,1.068712 2.374916,1.662441 0.593729,0.593729 0.83122,3.206136 0.83122,3.91861 0,0.712475 0.356238,12.94329 0.356238,12.94329 0,0 0.949966,6.649763 0.949966,8.787189 0,2.13742 -1.187458,0.59373 -0.831221,2.8499 0.356238,2.25617 0.712475,3.08739 1.42495,3.68112 0.712474,0.59372 2.612407,0.94996 0.712474,1.78118 -1.899932,0.83122 -2.493661,2.37492 -2.493661,2.37492 0,0 -0.593729,0.83122 0.949966,1.54369 1.543695,0.71248 -0.356237,1.66244 -0.356237,1.66244 0,0 -0.118746,0.35624 -0.118746,1.42495 0,1.06871 -0.118746,25.05536 -0.118746,25.05536 l 1.306204,1.3062 c 0,0 7.837221,-7.36223 9.024679,-7.71847 1.187458,-0.35624 3.443627,-0.59373 5.699797,-0.59373 2.25617,0 4.868577,-0.11875 5.462306,-1.66244 0.593728,-1.5437 2.612407,-3.68112 3.206135,-3.79987 0.593729,-0.11874 3.324882,1.5437 3.324882,1.5437 0,0 3.443628,-1.18746 4.868577,-1.66244 1.424949,-0.47498 2.018678,0 2.849898,0 0.831221,0 9.499662,6.53102 10.093391,6.41227 0.593729,-0.11874 1.068713,-1.78119 2.493663,-1.78119 1.42495,0 12.7058,0.35624 12.7058,0.35624 0,0 1.89993,0.94997 3.44362,1.66244 1.5437,0.71248 4.03736,3.79987 4.03736,4.51234 0,0.71248 -0.11875,5.46231 0.11875,6.88726 0.23749,1.42495 -2.01868,8.54969 -2.01868,8.54969 0,0 -1.66244,2.37492 -1.89993,3.20614 -0.2375,0.83122 -2.25617,2.73115 -3.20614,2.73115 -0.94997,0 -4.86858,-2.37491 -4.86858,-2.37491 l -0.47498,-0.71248 c 0,0 0.47498,-0.71247 2.01868,-2.01868 1.54369,-1.3062 1.54369,-0.94996 1.54369,-2.01868 0,-1.06871 -0.83122,-3.08739 0,-3.91861 0.83122,-0.83122 1.78119,-2.25617 2.37492,-3.20613 0.59373,-0.94997 2.01868,-2.01868 0.71247,-2.96865 -1.3062,-0.94996 -2.8499,-3.08739 -3.56237,-3.68111 -0.71247,-0.59373 -2.13742,-1.66245 -3.08739,-1.78119 -0.94997,-0.11875 -5.10607,0.71247 -5.6998,0.94996 -0.59373,0.2375 -3.918608,0.83123 -4.037354,1.78119 -0.118746,0.94997 -0.949966,2.96865 -0.949966,2.96865 0,0 -0.593729,-1.18746 -0.593729,0.71247 0,1.89993 0.118746,3.32488 0.118746,3.32488 l -0.237492,4.86858 c 0,0 -0.474983,0.47498 -0.949966,2.49366 -0.474983,2.01868 -1.781186,4.86858 -1.781186,4.86858 0,0 -1.187458,2.01867 -2.018679,2.25617 -0.83122,0.23749 -0.83122,0.83122 -3.324881,0.47498 -2.493662,-0.35624 -4.037357,-1.66244 -4.51234,-2.13742 -0.474983,-0.47499 -2.731153,0 -2.612407,-1.42495 0.118746,-1.42495 -1.187458,-3.20614 -1.306203,-4.15611 -0.118746,-0.94996 -0.712475,-3.32488 -0.356238,-3.91861 0.356238,-0.59373 2.849899,-6.41227 3.324882,-6.88725 0.474983,-0.47498 0.474983,-1.42495 1.543695,-1.5437 1.068712,-0.11874 3.324882,6.29353 3.324882,6.29353 l 0.118746,7.12475 1.781186,0 0,-7.2435 -2.612407,0 -2.968644,-5.81854 2.493661,-1.06871 1.424949,-0.23749 c 0,0 0,-1.30621 -0.118745,-1.78119 -0.118746,-0.47498 0.356237,-3.56237 -1.068712,-3.68112 -1.42495,-0.11874 -3.562374,-0.11874 -4.987323,-0.11874 -1.424949,0 -2.731153,-0.2375 -2.731153,0.83122 0,1.06871 -1.068712,1.18745 -0.712474,2.96864 0.356237,1.78119 0.83122,4.63109 0,5.93729 -0.831221,1.3062 -1.42495,2.37492 -2.731153,4.27485 -1.306204,1.89993 -2.849899,4.51234 -2.849899,5.93729 0,1.42495 -2.018678,3.32488 -2.374915,4.86857 -0.356238,1.5437 -2.25617,4.51234 -3.799865,6.29353 -1.543695,1.78119 -2.612407,2.01868 -3.562373,2.25617 -0.949966,0.23749 -2.849899,1.42495 -3.324882,1.42495 -0.474983,0 -2.493661,-0.47499 -2.493661,-2.13743 0,-1.66244 -1.781187,-2.84989 -1.781187,-4.39359 0,-1.54369 1.543695,-4.98732 1.543695,-4.98732 l 6.293526,0 c 0,0 0.356238,1.54369 0.949967,1.42495 0.593728,-0.11875 2.612407,-1.89994 2.612407,-1.89994 l -0.237492,-4.03735 2.374915,-2.37492 c 0,0 1.187458,-2.6124 1.068712,-3.08739 -0.118745,-0.47498 -0.593728,-2.8499 -2.018678,-1.54369 -1.424949,1.3062 -2.018678,2.49366 -2.731153,3.79986 -0.712474,1.30621 -2.018678,4.51234 -2.137423,5.10607 -0.118746,0.59373 0.118745,3.91861 0.118745,3.91861 l -6.412271,0.23749 c 0,0 -0.118746,-2.6124 0.237491,-3.68112 0.356237,-1.06871 0.83122,-2.84989 1.543695,-3.68112 0.712475,-0.83122 3.324882,-3.91861 3.443628,-5.10606 0.118745,-1.18746 1.66244,-2.13743 0,-2.37492 -1.662441,-0.23749 -2.968645,-0.94997 -4.156103,-0.47498 -1.187457,0.47498 -2.849898,2.25617 -2.849898,2.25617 0,0 -3.206136,4.39359 -3.681119,4.98732 -0.474983,0.59373 -0.712475,2.49366 -0.712475,2.49366 0,0 0.356238,3.79987 0.356238,5.34356 0,1.5437 -0.356238,10.92461 -0.356238,10.92461 l -0.118746,11.87458 -5.343559,-0.59373 c 0,0 -2.731153,-3.08739 -3.206136,-3.79986 -0.474983,-0.71248 -3.443628,-5.10607 -3.443628,-5.10607 0,0 -1.662441,-2.49366 -1.187457,-2.61241 0.474983,-0.11874 4.868576,-2.01868 4.868576,-2.01868 0,0 0.712475,-1.78118 0,-2.6124 -0.712474,-0.83122 -2.849898,-1.06872 -2.612407,-1.78119 0.237492,-0.71248 -0.356237,-3.79987 0.118746,-3.79987 0.474983,0 3.08739,-5.4623 3.562373,-5.4623 0.474983,0 0.831221,-1.18746 1.543695,0.23749 0.712475,1.42495 0.949966,2.8499 0.949966,3.44363 0,0.59373 0.474984,3.32488 0.237492,4.86857 -0.237492,1.5437 0.118746,4.98733 -0.356237,6.29353 -0.474983,1.3062 -1.187458,1.5437 -2.137424,1.18746 -0.949966,-0.35624 -1.42495,-1.66244 -1.42495,-1.66244 l -3.206135,1.18746 -1.662441,0.59372 c 0,0 -0.949966,-4.98732 -1.187458,-5.4623 -0.237492,-0.47498 0.237492,-5.10607 -0.237492,-5.10607 -0.474983,0 -3.08739,-2.25617 -3.08739,-2.25617 0,0 3.08739,-4.39359 3.443628,-4.86858 0.356237,-0.47498 6.887255,-6.29352 7.480984,-6.64976 0.593728,-0.35624 1.781186,-0.83122 1.781186,-0.83122 l -0.593729,-43.81719 1.068712,-11.993324 c 0,0 0.237492,-4.631085 -0.356237,-5.699797 -0.593729,-1.068712 -1.306204,-2.25617 -2.018678,-2.137424 -0.712475,0.118746 -1.306204,0.118746 -1.187458,-0.712475 0.118746,-0.83122 0.237492,-1.899932 0.356237,-2.968644 0.118746,-1.068712 -0.237491,-2.493661 -1.068712,-2.493661 -0.83122,0 -1.899932,0.474983 -1.899932,0.474983 z"
     id="path2987"
     inkscape:connector-curvature="0" />
  <path
     style="fill:#000000;stroke:#000000;stroke-width:1px;stroke-linecap:butt;stroke-linejoin:miter;stroke-opacity:1"
     d="m 136.69655,120.17255 c -1.34345,-0.5038 -1.84725,-1.84725 -1.84725,-1.84725 0,0 0.83966,-2.01519 0.67173,-2.85485 -0.16793,-0.83965 0,-2.68691 0,-2.68691 0,0 -1.67932,-4.19829 -2.51898,-4.19829 -0.83966,0 -1.84725,0 -3.02277,0 -1.17552,0 -2.18312,0 -2.18312,1.34345 0,1.34346 -2.01518,2.35105 -2.01518,2.35105 0,0 0.83966,-0.33586 1.34346,0.50379 0.50379,0.83966 0.83966,1.0076 0.83966,2.85485 0,1.84725 -0.67173,4.19829 1.00759,4.36623 1.67932,0.16793 2.01518,2.18311 3.35863,1.67931 1.34346,-0.50379 4.36623,-1.51138 4.36623,-1.51138 z"
     id="path2989"
     inkscape:connector-curvature="0" />
  <path
     style="fill:#000000;stroke:#000000;stroke-width:1px;stroke-linecap:butt;stroke-linejoin:miter;stroke-opacity:1"
     d="m 169.6112,142.50749 c 0,0 1.51139,2.35104 0.83966,2.68691 -0.67172,0.33586 -2.85484,2.35104 -3.6945,3.86243 -0.83966,1.51139 -3.35864,4.1983 -4.53416,4.87003 -1.17552,0.67172 -5.03796,-0.33587 -5.03796,-0.33587 l -2.85484,-2.68691 -3.6945,-1.17552 c 0,0 -1.00759,0.33586 -1.84725,1.34345 -0.83966,1.0076 -5.87762,5.70969 -6.71728,6.04555 -0.83966,0.33587 -4.19829,2.68691 -4.19829,2.68691 l -3.02278,-1.51138 -2.18311,-1.51139 c 0,0 -1.51139,0.33586 -1.51139,-1.00759 0,-1.34346 -0.83966,-4.1983 0.16793,-6.21348 1.00759,-2.01519 0.67173,-3.35864 1.51139,-5.54175 0.83966,-2.18312 4.36623,-6.71728 4.36623,-6.71728 0,0 -1.34346,-3.86243 0.5038,-5.87762 1.84725,-2.01518 7.22107,-8.73245 7.22107,-8.73245 l 0.50379,-1.34346 3.02278,-1.84725 c 0,0 1.00759,-1.84725 2.18311,-3.02277 1.17552,-1.17553 4.36623,-4.1983 5.54175,-4.7021 1.17553,-0.50379 5.87762,1.84725 5.87762,3.6945 0,1.84726 1.84725,5.54176 1.84725,5.54176 0,0 1.17552,2.51898 0.50379,4.03036 -0.67172,1.51139 -0.67172,1.67932 -1.17552,3.6945 -0.50379,2.01519 -0.16793,2.68691 -0.83966,4.1983 -0.67173,1.51139 -2.18311,2.68691 -2.18311,2.68691 0,0 -2.01518,-0.83966 -2.01518,0.33586 0,1.17553 0.83965,1.0076 1.00759,1.67932 0.16793,0.67173 -7.22107,-3.1907 -7.22107,-3.1907 l 2.01518,-5.03796 c 0,0 -0.33587,-2.18311 -1.84725,-2.18311 -1.51139,0 -3.6945,3.52657 -3.6945,3.52657 0,0 -3.52657,4.19829 -5.03796,6.54934 -1.51139,2.35105 -4.53416,6.88521 -3.6945,9.74005 0.83966,2.85484 4.53416,0.16793 4.53416,0.16793 l 6.21348,-9.23625 2.35104,-3.86244 6.38142,3.52657 c 0,0 -1.84725,4.7021 -1.84725,5.87762 0,1.17552 0,3.19071 3.02277,2.51898 3.02277,-0.67173 4.53416,-3.02278 4.53416,-3.02278 z"
     id="path2991"
     inkscape:connector-curvature="0" />
  <path
     style="fill:#000000;stroke:#000000;stroke-width:1px;stroke-linecap:butt;stroke-linejoin:miter;stroke-opacity:1"
     d="m 243.19135,124.79124 -1.42495,-7.12474 c 0,0 -2.13743,-0.71248 -2.13743,-2.37492 0,-1.66244 1.18746,-3.79986 1.18746,-3.79986 0,0 0.94997,-1.66244 1.18746,-3.08739 0.23749,-1.42495 2.37491,-3.32488 2.37491,-3.32488 l 0,-5.699802 4.51234,-9.024678 c 0,0 -0.47498,-5.462306 -0.47498,-6.649764 0,-1.187458 1.42495,-3.562373 1.42495,-3.562373 0,0 1.66244,-3.562373 1.66244,-5.462306 0,-1.899932 1.18746,-6.887255 1.18746,-6.887255 0,0 2.37491,-3.562373 2.37491,-4.512339 0,-0.949966 -2.13742,-3.799865 -1.89993,-5.224814 0.23749,-1.424949 3.56237,-1.899932 3.56237,-1.899932 l 1.18746,-1.662441 -2.13742,-4.037357 c 0,0 2.6124,-3.562373 2.8499,-4.749831 0.23749,-1.187457 3.79986,-7.599729 4.03735,-9.499662 0.23749,-1.899932 1.18746,-4.037356 1.89993,-4.987322 0.71248,-0.949966 1.42495,-2.137424 4.03736,-1.899932 2.61241,0.237491 7.59973,5.224814 7.59973,6.649763 0,1.424949 -7.83722,4.987322 -7.83722,4.987322 0,0 -1.89993,-1.543695 -1.89993,0.356238 0,1.899932 -0.11875,5.818543 -0.11875,6.531017 0,0.712475 -1.42495,2.374916 -2.37491,3.562373 -0.94997,1.187458 -0.59373,2.25617 0.47498,3.206136 1.06871,0.949967 2.01868,2.493662 1.18746,3.324882 -0.83122,0.83122 -2.49366,0.118746 -2.25617,2.018678 0.23749,1.899933 -0.71248,6.768509 -0.59373,8.668442 0.11874,1.899932 -1.3062,3.443627 -1.5437,3.91861 -0.23749,0.474983 -0.83122,1.662441 -0.83122,2.25617 0,0.593729 -0.47498,4.274848 -0.47498,4.274848 0,0 2.37492,0.474983 3.68112,-0.356237 1.3062,-0.831221 3.08739,-4.987323 3.08739,-4.987323 l 0.83122,-3.324882 c 0,0 -1.89993,-0.83122 -0.23749,-2.256169 1.66244,-1.42495 2.13742,-0.593729 1.66244,-1.662441 -0.47498,-1.068712 0.35624,-3.799865 0.71247,-4.987323 0.35624,-1.187457 0.11875,-7.006 0.11875,-8.312204 0,-1.306203 -0.59373,-4.393594 -0.59373,-4.393594 l 1.06871,-4.274847 -1.89993,-4.156103 7.48098,-4.868576 c 0,0 2.61241,12.705798 2.25617,13.655764 -0.35623,0.949966 -0.83122,11.874577 -1.3062,14.130747 -0.47498,2.25617 -2.8499,7.718475 -2.8499,8.905933 0,1.187458 3.20614,1.781187 3.68112,1.781187 0.47498,0 -2.01868,-2.137424 2.13742,-1.899933 4.15611,0.237492 4.51234,1.187458 5.6998,1.306204 1.18746,0.118745 3.44363,2.493661 5.22482,4.393593 1.78118,1.899933 2.25617,9.262171 5.10606,10.924612 2.8499,1.66244 5.34356,1.66244 5.34356,1.66244 0,0 2.96865,-1.543695 3.32489,-1.068712 0.35623,0.474984 2.6124,1.781187 3.68111,1.781187 1.06872,0 4.27485,-2.493661 5.10607,-3.562373 0.83122,-1.068712 5.34356,-5.462306 6.53102,-7.006001 1.18746,-1.543695 7.24349,-8.549696 7.24349,-10.212136 0,-1.662441 2.96865,-4.631086 3.32488,-6.056035 0.35624,-1.424949 1.30621,-4.274848 2.13743,-4.512339 0.83122,-0.237492 6.29352,-3.562374 6.41227,-5.34356 0.11875,-1.781187 0.23749,-4.393594 1.06871,-5.34356 0.83122,-0.949966 2.96865,-4.156102 2.8499,-4.868577 -0.11875,-0.712474 1.18746,-4.037356 1.18746,-4.037356 0,0 1.3062,-1.543695 1.89993,-0.712475 0.59373,0.831221 5.58105,5.462306 5.58105,6.293526 0,0.831221 -2.96864,5.462306 -2.96864,6.649764 0,1.187457 -2.25617,2.612407 -2.96865,5.343559 -0.71247,2.731153 -4.39359,4.631086 -4.03735,6.887255 0.35623,2.25617 0.94996,7.480984 0.94996,7.480984 l 3.79987,-6.531017 c 0,0 0.94996,-1.662441 1.42495,-3.443628 0.47498,-1.781186 2.6124,-4.274848 3.56237,-4.512339 0.94997,-0.237492 1.89993,-1.662441 3.44363,-1.187458 1.54369,0.474983 4.39359,1.424949 5.22481,1.781187 0.83122,0.356237 0.11875,1.068712 1.5437,1.068712 1.42495,0 4.1561,-0.831221 6.05603,-1.662441 1.89993,-0.831221 4.74983,-1.781187 6.05604,-2.493662 1.3062,-0.712474 1.66244,-2.256169 2.37491,-1.306203 0.71248,0.949966 3.20614,2.731153 3.32488,3.799865 0.11875,1.068712 -0.59373,5.224814 -0.83122,7.718475 -0.23749,2.493661 -0.94996,4.037356 -0.35623,5.581051 0.59372,1.543696 1.18745,1.899933 1.78118,0.356238 0.59373,-1.543695 -0.47498,-2.493661 1.06871,-4.631085 1.5437,-2.137424 4.27485,-5.818543 4.63109,-6.293526 0.35624,-0.474984 0.35624,-3.443628 1.66244,-3.681119 1.3062,-0.237492 2.13742,0.593728 2.01868,-0.474984 -0.11875,-1.068712 -0.11875,-4.156102 2.01868,-5.462305 2.13742,-1.306204 2.49366,-1.899933 3.91861,-3.324882 1.42495,-1.424949 6.41227,-4.987322 7.95596,-6.412272 1.5437,-1.424949 6.29353,-3.91861 6.29353,-3.91861 l 1.78119,0.712474 2.37491,1.781187 -16.50566,15.555696 -2.8499,2.25617 2.25617,3.324882 2.13742,-3.681119 c 0,0 0,-0.949966 0.59373,-0.949966 0.59373,0 1.5437,-1.068712 1.5437,-1.068712 l -1.42495,-2.137424 14.24949,-13.537019 c 0,0 2.96865,2.968645 3.20614,3.562374 0.23749,0.593729 0.35624,0.949966 0.35624,2.137424 0,1.187457 -1.5437,2.374915 -1.89994,2.968644 -0.35623,0.593729 -2.13742,2.731153 -3.20613,3.918611 -1.06872,1.187457 -8.31221,10.09339 -9.14343,10.568373 -0.83122,0.474984 -1.66244,0.356238 -1.18746,1.306204 0.47499,0.949966 3.56238,1.781187 4.27485,1.781187 0.71248,0 4.51234,0.474983 6.05604,-0.474983 1.54369,-0.949967 4.98732,-2.968645 7.006,-4.274848 2.01868,-1.306204 9.73715,-11.637086 9.73715,-11.637086 l 4.39359,-4.631085 c 0,0 3.91862,-4.631086 4.03736,-5.106069 0.11875,-0.474983 2.01868,-1.187457 3.20614,-0.83122 1.18745,0.356237 3.68112,2.018678 3.68112,4.274848 0,2.256169 1.89993,5.224814 2.01867,7.837221 0.11875,2.612407 -2.37491,2.612407 -0.47498,5.937289 1.89993,3.324881 -1.89993,1.781186 3.68112,2.137423 5.58105,0.356238 4.63109,-0.474983 5.34356,0.831221 0.71247,1.306203 1.42495,2.493661 0.11875,3.562373 -1.30621,1.068712 -3.68112,3.324882 -4.98733,3.799865 -1.3062,0.474983 -3.68112,0 -4.39359,-0.831221 -0.71248,-0.83122 -4.03736,-2.493661 -4.1561,-2.968644 -0.11875,-0.474983 -1.30621,-0.83122 -2.25617,-3.562373 -0.94997,-2.731153 -1.66244,-4.51234 -2.49366,-5.462306 -0.83122,-0.949966 -1.30621,-0.83122 -1.66244,-0.118746 -0.35624,0.712475 -3.79987,5.106069 -4.27485,5.581052 -0.47499,0.474983 -1.66244,0.474983 -1.66244,0.474983 0,0 -1.5437,0.474983 -2.13743,1.781187 -0.59373,1.306203 -2.6124,5.581051 -2.6124,5.581051 0,0 -3.56238,1.424949 -4.15611,1.306204 -0.59373,-0.118746 0.94997,0 -2.84989,2.137423 -3.79987,2.137424 -4.3936,3.206136 -6.05604,3.206136 -1.66244,0 -3.91861,0 -3.91861,0 0,0 -1.18746,-2.612407 -3.68112,-2.849898 -2.49366,-0.237492 -5.22481,0.83122 -5.22481,0.83122 0,0 0,-0.83122 -4.3936,1.662441 -4.39359,2.493661 -7.36223,5.699797 -11.39959,7.124746 -4.03736,1.42495 -8.90593,1.662441 -8.90593,1.662441 0,0 -3.20614,-2.374915 -3.20614,-3.324881 0,-0.949967 -0.59373,-4.868577 -0.47498,-5.818543 0.11874,-0.949966 2.6124,-4.274848 2.6124,-4.274848 0,0 0.11875,-3.562373 -0.59372,-4.156102 -0.71248,-0.593729 -1.30621,-1.42495 -3.68112,-1.187458 -2.37492,0.237492 -3.68112,-0.474983 -3.68112,3.443627 0,3.918611 0.59373,11.280849 0.59373,11.280849 l -6.76851,-0.356237 c 0,0 -2.49366,-0.831221 -3.08739,0.593729 -0.59373,1.424949 -4.3936,8.549695 -4.3936,9.024678 0,0.474983 -1.3062,2.018679 1.30621,0.593729 2.6124,-1.424949 3.91861,-2.968644 4.03735,-3.443627 0.11875,-0.474983 -1.3062,-0.831221 0,-2.25617 1.30621,-1.424949 2.13743,-4.749831 2.13743,-4.749831 l 6.64976,-0.356237 c 0,0 -3.68112,6.887255 -4.63109,8.787187 -0.94996,1.899932 -0.83122,5.462306 -1.89993,5.937289 -1.06871,0.474983 -4.98732,4.749831 -5.4623,4.868577 -0.47499,0.118745 -2.96865,1.068712 -2.96865,1.068712 0,0 -0.23749,-0.949967 -0.71247,-0.831221 -0.47499,0.118746 -4.86858,-0.593729 -4.86858,-0.593729 0,0 0.59373,-0.83122 1.42495,-1.543695 0.83122,-0.712474 0.83122,-0.712474 0.83122,-2.493661 0,-1.781187 -1.18746,-4.156102 -1.3062,-4.631085 -0.11875,-0.474983 2.73115,-3.443628 2.73115,-4.156102 0,-0.712475 0.94997,-2.493662 1.3062,-3.206136 0.35624,-0.712475 1.18746,-4.037357 1.18746,-4.037357 0,0 -0.71247,-1.899932 1.66244,-2.849898 2.37492,-0.949966 3.68112,-2.968645 4.1561,-3.443628 0.47499,-0.474983 1.18746,-3.324881 1.18746,-3.324881 0,0 -1.42495,-2.25617 -1.89993,-2.25617 -0.47498,0 0,-1.068712 -1.3062,-0.237492 -1.30621,0.831221 -4.15611,5.224814 -4.98733,6.056035 -0.83122,0.83122 -5.10606,7.599729 -4.98732,9.380916 0.11875,1.781187 -1.42495,5.937289 -3.08739,8.668442 -1.66244,2.731152 -3.44363,5.343559 -4.27485,6.531017 -0.83122,1.187458 -2.49366,3.08739 -2.49366,3.08739 0,0 -2.37491,-4.274848 -2.73115,-4.868576 -0.35624,-0.593729 -0.23749,-1.899933 0.11874,-4.393594 0.35624,-2.493661 0.35624,-8.668442 0.2375,-9.143425 -0.11875,-0.474983 0.59373,-2.731153 -0.83122,-2.374915 -1.42495,0.356237 -1.66244,0.593729 -2.96865,2.374915 -1.3062,1.781187 -5.58105,5.699797 -6.53102,8.074713 -0.94996,2.374915 -3.44362,4.987322 -5.4623,6.531018 -2.01868,1.543695 -4.27485,5.462305 -6.29353,6.887258 -2.01868,1.42495 -6.41227,3.56237 -6.76851,4.86857 -0.35623,1.30621 -7.006,3.08739 -7.006,3.08739 l -4.1561,0.83122 c 0,0 -1.06871,3.56238 -1.66244,4.3936 -0.59373,0.83122 -0.11875,6.53101 -1.18746,8.19346 -1.06871,1.66244 -5.4623,1.42495 -5.4623,1.42495 0,0 0.94996,-0.94997 0,-1.5437 -0.94997,-0.59373 -3.44363,-0.83122 -3.56238,0.35624 -0.11874,1.18746 -6.53101,12.94329 -7.12474,14.24949 -0.59373,1.3062 -4.74983,7.36224 -4.74983,9.38092 0,2.01867 -1.42495,2.25617 -2.13743,6.64976 -0.71247,4.39359 -2.01868,5.34356 -0.94996,7.95597 1.06871,2.6124 1.06871,2.49366 3.32488,1.18745 2.25617,-1.3062 3.32488,-6.64976 4.63108,-8.07471 1.30621,-1.42495 3.68112,-6.29352 4.03736,-7.48098 0.35624,-1.18746 0.59373,-2.25617 1.3062,-4.27485 0.71248,-2.01868 1.42495,-6.88725 1.42495,-6.88725 0,0 0.47498,-1.5437 1.78119,-3.79987 1.3062,-2.25617 2.37491,-7.83722 2.37491,-7.83722 l 5.34356,-1.5437 c 0,0 -3.20613,9.49967 -3.68112,10.92462 -0.47498,1.42494 -1.89993,5.93728 -1.89993,7.95596 0,2.01868 0.11875,7.36224 -0.47498,8.90594 -0.59373,1.54369 -2.73115,3.08739 -2.73115,3.08739 0,0 0.23749,4.03735 -0.47499,5.4623 -0.71247,1.42495 -2.49366,4.51234 -3.32488,5.34356 -0.83122,0.83122 -2.01868,3.32488 -4.51234,6.53102 -2.49366,3.20613 -7.12474,7.59973 -7.12474,7.59973 l -1.78119,-0.11875 -1.5437,-1.78118 c 0,0 -1.3062,-0.47499 -2.25617,-2.61241 -0.94996,-2.13743 1.66245,-19.35556 1.66245,-19.35556 l 0.23749,-5.34356 1.06871,-4.98732 3.91861,-4.74984 0.35624,-5.4623 c 0,0 2.6124,-4.27485 3.20613,-5.10607 0.59373,-0.83122 4.3936,-11.51834 4.3936,-11.51834 l 5.34356,-6.64976 c 0,0 4.74983,-2.61241 4.98732,-4.86858 0.23749,-2.25617 2.49366,-2.96864 2.13742,-5.58105 -0.35624,-2.612408 0.59373,-4.156103 0.47499,-6.649765 -0.11875,-2.493661 -0.47499,-5.818543 -0.83123,-6.293526 -0.35623,-0.474983 -2.37491,-3.799864 -2.84989,-3.799864 -0.47499,0 -5.46231,-3.443628 -6.05604,-3.562374 -0.59373,-0.118745 -2.49366,-0.356237 -3.91861,0.831221 -1.42495,1.187457 -2.13742,2.968644 -3.08739,4.512339 -0.94997,1.543695 -2.96864,4.749831 -2.96864,4.749831 l -4.51234,-0.83122 c 0,0 -0.83122,-2.493662 -1.30621,-2.493662 -0.47498,0 -0.59372,-0.593728 -4.1561,2.137424 -3.56237,2.731153 -3.08739,1.42495 -3.91861,5.581052 -0.83122,4.156102 -0.71247,7.718474 -1.42495,8.430954 -0.71247,0.71247 -1.54369,-0.11875 -1.54369,3.32488 0,3.44362 -0.71248,7.12474 -0.23749,8.90593 0.47498,1.78119 0.83122,2.01868 2.13742,0.94997 1.3062,-1.06872 2.25617,-3.08739 2.25617,-3.91861 0,-0.83122 -0.71248,-2.13743 -0.11875,-3.20614 0.59373,-1.06871 2.73116,-5.6998 2.73116,-5.6998 0,0 2.37491,-4.037353 2.25617,-5.343557 -0.11875,-1.306203 -0.83122,-0.712474 0.47498,-2.731153 1.3062,-2.018678 3.08739,-3.91861 3.08739,-3.91861 l -0.23749,-2.612407 5.22481,1.068712 c 0,0 -2.37491,0.712474 -2.73115,2.374915 -0.35624,1.662441 -1.66244,2.612407 -2.49366,6.412272 -0.83122,3.799868 -0.23749,5.106068 -0.83122,7.480988 -0.59373,2.37491 -2.25617,5.34356 -3.56238,8.3122 -1.3062,2.96864 -1.18745,5.10607 -2.6124,7.59973 -1.42495,2.49366 -4.98733,3.44363 -4.98733,3.44363 z"
     id="path2993"
     inkscape:connector-curvature="0" />
  <path
     style="fill:#000000;stroke:#000000;stroke-width:1px;stroke-linecap:butt;stroke-linejoin:miter;stroke-opacity:1"
     d="m 254.82843,188.91396 c -4.98732,0 -4.51234,-0.71247 -7.59973,-0.47498 -3.08739,0.23749 -7.59973,0.71247 -10.21213,2.8499 -2.61241,2.13742 -11.87458,6.41227 -15.91194,7.12474 -4.03735,0.71248 -6.88725,5.46231 -11.87458,7.83723 -4.98732,2.37491 -15.91193,8.07471 -19.4743,9.26217 -3.56238,1.18745 -11.63709,3.56237 -16.8619,6.64976 -5.22482,3.08739 -15.67444,5.4623 -17.81187,5.4623 -2.13742,0 -14.012,-1.42494 -14.012,-3.32488 0,-1.89993 -3.32488,-4.98732 -0.94997,-6.41227 2.37492,-1.42495 4.98733,-2.37491 6.17478,-1.66244 1.18746,0.71247 4.27485,0.47498 5.46231,0.94997 1.18746,0.47498 4.03736,1.89993 6.41227,1.89993 2.37492,0 4.27485,-0.47498 9.02468,-0.47498 4.74983,0 7.83722,-2.8499 12.34956,-4.03736 4.51234,-1.18746 11.1621,-3.32488 14.48699,-4.98732 3.32488,-1.66244 2.84989,-2.61241 9.26217,-6.64977 6.41227,-4.03735 9.97464,-7.83722 15.43695,-10.68712 5.4623,-2.84989 10.44962,-6.88725 15.91193,-7.36223 5.46231,-0.47499 11.1621,-3.08739 12.58705,-3.79987 1.42495,-0.71247 2.8499,-2.8499 5.93729,0 3.08739,2.8499 3.32488,5.93729 3.56237,6.88726 0.2375,0.94996 -1.89993,0.94996 -1.89993,0.94996 z"
     id="path2995"
     inkscape:connector-curvature="0" />
</svg>
