<?xml version="1.0" standalone="no"?>
<!DOCTYPE svg PUBLIC "-//W3C//DTD SVG 20010904//EN"
 "http://www.w3.org/TR/2001/REC-SVG-20010904/DTD/svg10.dtd">
<svg version="1.0" xmlns="http://www.w3.org/2000/svg"
 width="468pt" height="77pt" viewBox="0 0 468 77"
 preserveAspectRatio="xMidYMid meet">
<metadata>
Created by POTRACE VERSION, written by Peter Selinger 2001-2007
</metadata>
<g transform="translate(0,77) scale(0.010981,-0.010981)"
fill="#000000" stroke="none">
<path d="M22741 6809 c-14 -5 -45 -28 -70 -50 -25 -22 -52 -45 -58 -50 -7 -5
-13 -17 -12 -27 0 -14 2 -14 9 3 7 16 9 17 9 3 1 -9 -5 -21 -12 -25 -7 -4 -25
-33 -40 -63 -15 -30 -27 -66 -27 -80 0 -14 -9 -36 -20 -50 -11 -14 -20 -31
-20 -38 0 -7 7 -24 16 -37 9 -14 17 -50 18 -87 2 -37 -3 -77 -11 -98 -12 -29
-12 -45 -3 -90 7 -30 18 -67 26 -82 8 -14 14 -29 14 -33 0 -3 -6 -3 -12 1 -10
6 -9 3 0 -8 8 -11 14 -49 15 -101 1 -47 5 -83 8 -81 4 2 10 -3 13 -12 4 -9 4
-19 1 -22 -3 -3 -5 1 -5 8 0 7 -3 11 -6 8 -3 -4 1 -17 10 -30 8 -12 24 -59 35
-103 12 -44 28 -102 37 -130 9 -27 21 -58 26 -68 5 -10 6 -23 2 -29 -4 -6 -3
-8 4 -4 6 4 11 -1 10 -11 0 -10 5 -44 11 -77 6 -32 13 -61 15 -64 3 -2 1 -13
-5 -24 -8 -14 -20 -18 -52 -17 -23 1 -71 -5 -107 -13 -36 -8 -86 -27 -111 -41
-25 -15 -55 -27 -67 -27 -12 0 -32 -5 -46 -12 -14 -6 -28 -20 -32 -30 -3 -11
-27 -48 -54 -83 -26 -35 -54 -81 -61 -102 -7 -21 -13 -87 -13 -150 -1 -64 3
-109 8 -105 5 3 6 -9 3 -29 -5 -25 -4 -30 4 -19 7 11 8 0 4 -40 -4 -40 -3 -51
4 -40 9 12 11 9 11 -15 0 -23 -3 -27 -10 -15 -8 12 -10 9 -10 -12 0 -16 4 -28
9 -28 4 0 9 -15 10 -32 0 -18 1 -48 2 -66 0 -18 5 -30 10 -27 5 4 9 -3 9 -13
0 -11 6 -25 14 -31 8 -7 14 -20 14 -29 0 -9 9 -35 20 -57 12 -22 21 -35 22
-30 0 6 11 -8 25 -30 13 -22 25 -47 25 -55 0 -8 27 -43 60 -78 33 -34 60 -69
60 -77 0 -7 11 -22 24 -32 13 -10 34 -42 48 -70 14 -29 20 -50 14 -47 -6 3 -4
0 5 -8 9 -7 14 -18 12 -25 -2 -6 9 -19 25 -27 16 -8 32 -23 36 -32 3 -8 4 -20
0 -25 -3 -5 -16 -9 -29 -9 -13 0 -27 -4 -30 -10 -3 -5 -35 -10 -71 -10 -37 0
-81 7 -102 16 -20 8 -62 24 -94 33 -33 11 -77 36 -107 61 -28 24 -53 41 -56
39 -2 -3 -47 37 -99 88 -53 51 -121 123 -152 161 -30 37 -72 82 -92 101 -21
19 -28 28 -17 20 11 -8 0 10 -24 39 -24 28 -48 52 -53 52 -5 0 -7 4 -4 8 3 5
-11 33 -30 62 -19 30 -43 60 -52 68 -12 9 -13 12 -2 7 12 -5 12 -4 -1 7 -9 7
-14 19 -12 26 3 6 0 12 -7 12 -6 0 -9 4 -5 9 3 6 0 13 -7 18 -7 4 -22 26 -33
48 -11 22 -26 45 -34 51 -8 6 -11 18 -8 28 5 11 3 15 -5 10 -8 -5 -9 -2 -5 9
4 10 2 16 -6 14 -7 -1 -11 6 -11 15 1 10 -3 15 -9 11 -6 -4 -8 0 -4 10 4 10 2
16 -5 14 -5 -1 -12 6 -13 16 -2 9 -13 38 -26 65 -12 26 -31 59 -41 74 -10 14
-18 36 -18 47 0 12 -4 21 -9 21 -5 0 -12 7 -15 16 -3 8 -2 12 4 9 6 -4 5 6 -2
22 -7 15 -18 34 -25 41 -7 7 -13 16 -13 18 0 3 6 2 13 -2 6 -4 -4 11 -24 32
-21 21 -40 54 -44 72 -4 17 -10 32 -13 32 -4 0 -7 26 -8 58 0 34 -9 80 -22
115 -12 32 -22 70 -21 85 0 15 10 47 22 71 19 38 30 46 80 65 32 12 55 24 52
28 -3 3 14 3 38 1 36 -4 48 -1 69 18 15 13 34 47 43 76 l16 52 -34 60 c-20 33
-32 63 -29 67 4 4 1 4 -5 0 -7 -4 -13 -2 -13 3 0 6 -6 11 -14 11 -7 0 -35 24
-62 54 -43 47 -59 57 -119 74 -39 11 -93 23 -121 26 -44 5 -59 2 -115 -26 -50
-26 -72 -45 -101 -87 -21 -30 -38 -58 -38 -63 0 -5 6 -6 13 -3 6 4 0 -3 -15
-15 -22 -17 -27 -27 -22 -46 4 -13 1 -37 -5 -52 -6 -15 -12 -71 -14 -124 -2
-54 0 -93 3 -87 4 5 6 -48 6 -120 -1 -71 2 -127 6 -125 4 3 5 -10 3 -28 -4
-24 -3 -28 3 -13 7 15 11 8 17 -35 4 -30 7 -59 6 -63 -1 -5 3 -6 8 -3 5 3 12
-2 16 -12 4 -9 9 -28 11 -42 3 -14 9 -27 15 -28 5 -2 7 -8 3 -13 -3 -5 0 -9 5
-9 6 0 10 -3 9 -7 0 -5 7 -26 17 -48 9 -22 22 -43 28 -47 6 -4 12 -17 13 -30
1 -13 7 -44 14 -70 7 -26 16 -45 21 -42 5 3 10 -5 11 -18 0 -13 2 -35 3 -51 1
-15 6 -31 10 -35 5 -4 5 1 2 11 -4 9 -4 17 -2 17 3 0 11 -16 20 -36 8 -19 14
-41 12 -47 -1 -7 3 -11 9 -10 7 1 20 -8 30 -20 19 -21 19 -21 -1 -7 -19 15
-19 15 0 -11 11 -15 23 -25 26 -23 3 2 11 -8 18 -22 9 -20 9 -24 -1 -18 -7 4
0 -5 15 -20 17 -15 26 -33 23 -41 -3 -8 0 -14 6 -12 6 1 13 -4 16 -12 3 -9 0
-11 -9 -6 -11 6 -12 5 -1 -6 6 -7 12 -19 12 -26 0 -7 18 -31 41 -53 26 -26 39
-45 35 -55 -3 -9 1 -18 10 -22 8 -3 22 -19 30 -35 10 -20 11 -28 3 -23 -7 5 3
-14 21 -41 18 -27 43 -57 56 -67 13 -10 22 -22 19 -27 -3 -4 8 -33 24 -65 17
-33 31 -51 34 -43 5 11 6 11 6 0 1 -8 22 -38 47 -67 25 -30 43 -58 40 -63 -3
-5 5 -19 18 -31 12 -12 29 -20 37 -18 8 2 11 2 8 0 -4 -2 7 -18 24 -36 16 -18
34 -31 38 -30 5 2 14 -7 20 -20 6 -12 21 -33 33 -47 19 -22 19 -23 1 -10 -11
8 -2 -7 20 -35 21 -27 48 -58 60 -68 11 -10 14 -15 6 -11 -9 5 -12 3 -7 -5 4
-6 12 -9 17 -5 6 3 19 -2 30 -12 10 -9 19 -21 19 -25 0 -5 32 -40 72 -79 39
-39 83 -73 97 -77 14 -3 39 -19 56 -35 16 -16 50 -40 75 -53 25 -12 70 -30
100 -38 30 -9 78 -19 106 -24 30 -5 96 -5 165 2 94 9 120 15 144 33 15 12 51
29 79 37 28 8 66 24 84 35 17 11 32 25 32 30 0 6 4 8 10 5 5 -3 7 0 4 8 -3 8
3 20 13 28 17 13 17 13 3 -5 -8 -11 7 -3 33 17 35 26 59 37 83 37 20 0 55 -11
78 -25 24 -14 45 -22 48 -19 4 3 16 1 27 -6 12 -6 19 -15 16 -20 -3 -5 7 -17
22 -26 15 -10 39 -28 53 -40 14 -13 61 -32 105 -44 44 -11 109 -30 145 -41 36
-12 79 -27 95 -35 17 -8 37 -18 45 -23 8 -5 40 -21 70 -34 30 -14 73 -30 95
-36 22 -6 49 -18 59 -26 11 -8 40 -15 65 -15 25 0 64 -9 86 -19 22 -11 67 -24
101 -30 33 -6 73 -11 88 -11 16 0 54 -11 85 -25 41 -19 63 -36 81 -65 18 -29
38 -45 85 -65 34 -14 72 -37 86 -51 13 -15 44 -46 68 -70 27 -27 60 -49 85
-56 23 -6 50 -20 62 -30 12 -10 34 -20 50 -21 24 -2 32 4 47 35 10 20 22 60
26 89 7 43 15 57 47 85 30 25 51 34 94 39 30 3 75 9 100 14 28 6 66 6 100 -1
30 -6 85 -8 122 -5 52 5 75 12 107 35 31 22 55 30 106 35 44 4 80 15 110 33
40 23 51 25 97 18 29 -5 85 -9 123 -10 39 0 138 -10 222 -22 83 -12 164 -24
179 -28 15 -4 39 -13 53 -20 14 -8 43 -14 64 -14 21 0 48 -5 59 -11 11 -6 73
-15 137 -20 64 -4 150 -12 191 -17 41 -5 96 -19 122 -30 26 -12 65 -26 87 -32
22 -6 50 -23 64 -39 13 -16 37 -60 53 -97 16 -38 49 -105 75 -149 25 -44 54
-102 65 -130 12 -31 52 -88 107 -153 49 -57 100 -125 115 -152 15 -27 52 -86
83 -132 31 -46 75 -98 98 -116 22 -18 48 -47 57 -65 9 -18 39 -59 66 -92 28
-33 91 -107 142 -164 50 -57 116 -129 147 -160 31 -31 87 -83 124 -116 36 -33
73 -72 81 -88 8 -15 21 -27 28 -27 7 0 31 -14 52 -31 22 -17 61 -51 88 -77 27
-26 71 -64 98 -84 27 -20 62 -57 78 -81 15 -25 48 -58 72 -74 23 -17 57 -37
74 -46 32 -16 33 -16 95 26 57 38 64 46 71 84 4 23 13 52 21 65 8 13 18 39 22
58 4 19 19 60 32 90 20 43 29 92 43 221 10 91 16 188 14 215 -3 27 -9 83 -15
124 -6 41 -17 91 -24 110 -7 19 -23 66 -34 104 -14 45 -32 78 -51 96 -19 18
-30 38 -30 55 0 15 -14 61 -31 103 -16 43 -36 87 -44 98 -8 12 -23 49 -35 83
-11 33 -20 67 -20 74 0 8 -9 26 -20 40 -11 14 -20 40 -20 60 0 27 7 41 29 60
18 15 48 27 79 31 37 5 62 16 92 41 23 19 49 35 58 35 8 0 47 16 86 35 39 20
89 47 111 60 22 14 51 25 64 25 16 0 37 14 60 41 20 23 61 66 91 96 30 30 74
68 97 84 23 16 57 32 75 36 18 3 44 13 58 21 14 9 40 29 58 46 28 26 45 33
110 41 70 9 82 8 132 -12 30 -13 63 -23 72 -23 10 0 42 -16 72 -35 30 -19 60
-35 67 -35 6 0 46 -16 89 -35 51 -23 93 -35 122 -35 24 0 54 -7 66 -16 12 -8
53 -24 90 -35 37 -11 85 -24 107 -28 22 -5 60 -13 85 -20 25 -6 91 -22 147
-36 56 -13 135 -31 175 -40 40 -8 119 -15 175 -15 56 0 114 -5 128 -10 15 -6
97 -11 183 -11 87 -1 191 3 231 9 41 6 86 16 100 21 15 5 52 11 83 14 40 2 69
11 98 31 22 14 55 29 73 33 17 4 72 27 120 51 48 25 102 60 120 78 17 19 38
34 47 34 9 0 25 7 37 15 12 8 32 34 46 57 13 24 40 72 60 106 21 35 44 91 54
125 9 34 16 77 15 96 -1 19 -6 39 -12 45 -5 7 -14 61 -20 121 -6 61 -13 124
-15 140 -2 17 -9 44 -16 60 -7 17 -12 33 -11 38 1 4 -3 7 -9 7 -5 0 -8 4 -5 9
3 5 -1 12 -10 15 -8 3 -13 10 -9 15 3 6 -52 68 -122 138 -70 70 -156 147 -192
170 -36 24 -73 43 -81 43 -9 0 -31 11 -50 24 -19 13 -73 44 -120 69 -47 24
-104 51 -127 57 -24 7 -50 21 -58 30 -9 9 -13 25 -9 34 3 9 10 16 15 16 4 0
21 19 38 43 16 23 53 66 80 95 28 30 51 58 51 63 0 5 27 36 60 68 33 31 57 60
54 64 -4 3 0 13 9 21 8 8 18 12 22 8 4 -4 6 -2 4 3 -1 6 5 26 13 45 8 19 18
43 21 53 4 9 11 17 17 17 6 0 8 5 5 10 -3 6 -1 10 5 10 6 0 8 4 5 10 -3 6 -2
10 2 10 5 0 9 8 10 18 1 9 7 62 14 117 6 55 11 132 11 172 -1 58 -6 79 -25
110 -13 21 -32 44 -41 52 -9 7 -16 18 -16 23 0 5 -13 26 -30 46 -16 21 -46 46
-67 57 -21 11 -41 24 -45 30 -5 6 -8 6 -8 0 0 -5 -13 4 -28 21 -22 25 -44 34
-107 48 -44 10 -100 22 -125 27 -25 5 -90 14 -145 19 -55 6 -122 15 -150 21
-40 9 -67 8 -135 -6 -47 -9 -132 -18 -190 -19 -96 -2 -108 -5 -144 -29 -21
-15 -50 -27 -64 -27 -14 0 -42 -5 -61 -11 -20 -6 -49 -15 -66 -21 -16 -5 -68
-24 -115 -40 -47 -17 -100 -42 -119 -56 -19 -14 -58 -31 -87 -38 -30 -7 -75
-28 -101 -47 -27 -19 -92 -59 -146 -88 -54 -30 -131 -71 -170 -92 -39 -21 -81
-46 -92 -55 -11 -10 -33 -24 -49 -32 -16 -8 -45 -36 -63 -62 -19 -26 -50 -57
-69 -68 -19 -12 -34 -25 -34 -28 0 -4 -29 -37 -65 -74 -35 -37 -67 -78 -71
-92 -3 -15 -10 -26 -14 -26 -5 0 -22 -11 -39 -25 -21 -18 -32 -38 -36 -68 -4
-23 -20 -65 -35 -92 -16 -28 -36 -66 -45 -85 -9 -19 -20 -66 -25 -103 -4 -37
-13 -73 -18 -80 -5 -7 -13 -64 -17 -127 -4 -78 -3 -131 6 -165 6 -27 13 -89
14 -136 2 -68 7 -93 23 -115 11 -16 26 -59 33 -95 7 -37 9 -74 6 -83 -6 -14
-10 -15 -28 -5 -12 6 -32 23 -45 38 -13 14 -24 34 -24 43 0 10 -34 57 -76 105
-42 48 -83 92 -90 96 -8 4 -14 14 -14 22 0 7 -30 46 -66 87 -36 40 -82 91
-104 113 -21 22 -57 56 -80 75 -24 19 -51 38 -61 42 -11 4 -24 19 -29 33 -5
14 -14 25 -20 25 -5 0 -45 23 -87 51 -43 29 -90 63 -105 77 -15 14 -45 36 -65
48 -21 12 -75 41 -121 63 -45 22 -97 56 -116 75 -18 20 -40 36 -48 36 -8 0
-29 11 -48 25 -18 13 -49 30 -69 36 -20 7 -47 20 -61 30 -14 9 -63 29 -110 44
-47 14 -107 33 -135 42 -27 9 -86 17 -130 20 -44 2 -93 8 -110 13 -16 4 -68 8
-115 9 -47 0 -112 -7 -145 -15 -33 -9 -69 -23 -80 -33 -11 -10 -32 -25 -46
-34 -18 -10 -30 -12 -36 -6 -6 6 -44 19 -84 30 -72 19 -76 19 -129 2 -40 -13
-69 -33 -110 -73 -30 -30 -66 -77 -79 -105 -13 -27 -29 -57 -36 -65 -7 -8 -17
-35 -23 -60 -6 -25 -18 -77 -26 -116 -9 -40 -18 -107 -20 -149 -4 -67 -2 -81
16 -106 19 -26 21 -37 15 -126 -5 -75 -3 -104 8 -123 8 -14 14 -39 15 -57 0
-18 6 -52 14 -75 7 -24 19 -74 26 -113 7 -38 21 -91 31 -116 10 -25 23 -75 29
-110 7 -38 22 -77 36 -96 13 -17 24 -40 24 -50 0 -11 -5 -24 -12 -31 -7 -7
-28 -12 -47 -12 -20 0 -85 16 -145 35 -78 25 -119 33 -143 29 -24 -5 -34 -2
-39 9 -3 9 -29 23 -57 33 -29 9 -61 22 -72 29 -11 6 -31 15 -45 18 -16 4 -32
21 -47 49 -11 24 -25 66 -29 93 -4 28 -7 70 -7 94 0 28 -2 38 -8 30 -5 -9 -8
-1 -7 22 1 20 -3 42 -7 49 -5 8 -4 11 3 6 6 -3 -4 18 -21 48 -18 29 -35 52
-38 50 -4 -2 -9 3 -13 11 -3 8 -3 21 0 29 3 7 -1 20 -8 27 -7 8 -14 21 -16 29
-2 8 -8 17 -13 19 -6 1 -37 44 -70 95 -47 70 -74 101 -124 136 -35 25 -100 75
-146 113 -45 37 -90 67 -100 67 -10 0 -40 19 -67 43 -26 24 -65 54 -86 66 -21
13 -58 28 -83 32 -24 5 -56 18 -70 29 -16 12 -41 20 -67 20 -22 1 -52 7 -66
15 -14 8 -50 14 -81 15 -31 0 -85 -3 -120 -7 l-64 -6 -87 -86 c-68 -67 -89
-95 -98 -129 -6 -23 -15 -40 -20 -37 -4 3 -10 -1 -13 -7 -2 -7 -2 -29 0 -48 4
-28 2 -32 -7 -20 -9 11 -10 -10 -5 -90 4 -58 8 -134 9 -169 1 -51 -3 -66 -16
-75 -13 -8 -23 -8 -35 0 -10 6 -27 29 -38 51 -12 22 -38 61 -58 88 -20 26 -37
54 -37 61 0 8 -5 14 -11 14 -5 0 -7 5 -3 12 4 6 3 8 -3 5 -6 -4 -16 0 -23 8
-7 8 -9 15 -4 15 5 0 -16 25 -46 56 -30 31 -75 70 -100 87 -25 17 -70 56 -101
87 -30 31 -70 77 -88 103 -18 27 -37 45 -43 41 -6 -4 -8 -2 -4 4 3 6 -4 18
-16 27 -13 9 -52 35 -87 58 -36 23 -73 56 -82 72 -10 17 -34 39 -53 49 -20 10
-38 27 -41 36 -3 9 -17 22 -31 28 -14 7 -38 12 -54 12 -23 0 -37 10 -65 47
-19 26 -61 70 -93 98 -36 33 -76 58 -109 69 -28 9 -54 24 -57 32 -3 8 -29 25
-58 38 -29 13 -74 31 -100 40 -37 13 -57 31 -97 82 -27 36 -58 86 -67 112 -10
26 -21 49 -25 52 -4 3 -7 7 -7 10 0 3 -7 21 -16 40 -9 19 -23 46 -31 60 -8 14
-15 45 -15 70 0 33 -3 41 -10 30 -9 -13 -10 -13 -11 0 -1 8 -3 24 -4 35 -1 11
-10 35 -19 53 -11 22 -15 44 -11 70 5 29 4 34 -5 22 -9 -13 -11 -12 -8 5 2 11
-3 25 -10 31 -8 6 -19 35 -24 65 -5 30 -12 65 -15 79 -2 14 -8 59 -13 100 -5
41 -14 90 -20 108 -8 20 -10 53 -5 87 3 30 15 65 25 77 17 21 21 22 42 9 13
-8 39 -22 58 -32 19 -9 39 -15 44 -12 5 3 18 -5 28 -18 11 -13 17 -17 13 -9
-4 8 5 3 21 -12 16 -14 51 -47 77 -73 26 -26 45 -51 41 -57 -4 -6 -3 -8 3 -5
5 3 35 -21 67 -54 31 -32 62 -59 67 -59 6 0 19 -20 29 -44 11 -24 28 -49 37
-57 14 -11 14 -8 -2 11 l-20 25 22 -19 c13 -10 20 -22 17 -27 -2 -5 6 -18 20
-30 14 -12 31 -38 40 -58 8 -20 29 -49 48 -66 l33 -30 -30 35 c-29 35 -29 35
8 -2 29 -29 37 -44 32 -60 -5 -15 -4 -18 6 -13 9 6 11 2 7 -13 -4 -14 -2 -20
5 -15 6 4 8 0 4 -10 -3 -9 -3 -16 1 -14 4 1 17 -8 30 -21 13 -13 32 -22 44
-20 11 2 27 12 34 23 10 16 10 27 -1 58 -7 20 -9 37 -4 37 4 0 13 -8 18 -17 6
-10 11 -14 11 -9 0 5 -6 17 -13 25 -8 9 -20 57 -27 106 -7 50 -17 101 -23 115
-5 14 -11 36 -13 49 -1 14 -10 42 -20 63 -9 21 -21 38 -25 38 -5 0 -13 10 -20
21 -9 17 -8 20 2 14 6 -5 -2 13 -20 39 -18 26 -39 66 -47 89 -8 23 -39 72 -69
107 -31 36 -81 93 -113 128 -31 35 -95 101 -140 148 -50 50 -100 91 -122 100
-24 10 -47 29 -59 50 -19 31 -24 34 -69 34 -35 0 -54 6 -70 20 -12 12 -22 25
-22 29 0 5 -21 23 -47 40 -25 17 -56 31 -67 30 -12 0 -32 -5 -45 -10z m8689
-1676 c36 -1 103 -4 150 -8 47 -3 96 -8 110 -11 14 -3 39 -12 55 -19 17 -8 56
-24 87 -35 32 -12 67 -33 78 -47 11 -14 20 -34 20 -43 0 -10 -11 -42 -24 -72
-13 -30 -47 -83 -76 -119 -28 -35 -75 -80 -103 -99 -29 -19 -73 -57 -97 -84
-25 -26 -72 -76 -105 -110 -33 -35 -73 -72 -90 -83 -16 -11 -47 -26 -67 -32
-25 -8 -51 -29 -75 -59 -20 -26 -63 -69 -95 -97 -32 -27 -75 -58 -95 -68 -21
-10 -45 -23 -53 -27 -8 -5 -42 -24 -75 -42 -33 -18 -78 -52 -100 -74 -22 -23
-74 -59 -115 -81 -41 -22 -97 -54 -125 -71 -27 -17 -79 -48 -115 -69 -36 -22
-87 -48 -113 -59 -27 -10 -57 -31 -68 -46 -12 -16 -43 -35 -77 -48 -31 -12
-66 -29 -77 -39 -11 -10 -40 -25 -65 -34 -25 -9 -67 -17 -94 -17 -41 0 -60 7
-120 48 -57 37 -83 62 -119 118 -26 39 -47 77 -47 85 0 8 -5 20 -12 27 -7 7
-9 12 -5 12 4 0 -1 17 -12 38 -10 20 -23 60 -29 88 -6 29 -9 76 -5 105 3 30
14 70 23 89 9 19 15 41 13 48 -3 6 0 12 7 12 6 0 8 5 5 10 -4 6 -2 17 4 24 6
7 23 35 37 62 14 27 42 67 61 89 19 22 58 66 86 98 29 32 64 64 78 72 14 7 50
37 80 65 30 28 67 58 82 66 16 9 62 40 104 69 41 30 90 57 109 61 18 3 38 12
44 20 7 7 36 20 65 29 30 8 68 27 85 41 17 15 72 43 123 64 52 21 122 44 157
50 34 6 73 18 86 26 12 9 51 22 86 31 35 8 70 15 78 14 8 -1 26 -1 40 -1 14 0
33 2 44 4 10 1 25 11 32 21 10 14 21 16 56 11 24 -3 50 -2 58 4 8 5 22 7 30 3
8 -4 44 -9 80 -10z m-8491 -416 c17 -7 28 -16 24 -20 -3 -4 8 -4 27 -1 24 5
31 4 26 -4 -4 -7 4 -17 21 -24 15 -6 36 -19 46 -27 9 -8 20 -32 24 -53 3 -22
9 -35 12 -30 3 5 14 -6 24 -26 18 -35 18 -35 0 -23 -10 8 -6 3 8 -11 14 -13
36 -43 49 -66 13 -23 28 -42 32 -42 5 0 7 -4 4 -8 -3 -5 9 -28 26 -52 23 -31
33 -56 36 -95 4 -48 2 -55 -22 -70 -14 -10 -37 -40 -51 -67 -14 -28 -48 -71
-76 -97 -28 -25 -64 -52 -80 -59 -28 -12 -31 -10 -72 31 -23 23 -55 51 -71 61
-16 10 -58 46 -94 80 -36 33 -74 71 -86 84 -12 12 -33 35 -47 50 -14 15 -39
51 -56 79 -16 29 -32 51 -35 48 -2 -3 -10 6 -16 21 -7 14 -8 23 -3 20 4 -3 -1
13 -12 35 -11 22 -26 72 -33 111 -12 63 -12 75 1 95 9 12 34 32 57 44 35 18
48 20 89 11 30 -5 71 -6 106 0 31 5 59 11 62 13 2 3 14 5 27 5 12 0 36 -6 53
-13z m8981 -240 c0 -2 -9 -12 -20 -22 -11 -10 -20 -15 -20 -12 0 3 7 13 16 21
8 9 17 16 20 16 2 0 4 -2 4 -3z m-8134 -154 c14 -18 32 -33 41 -33 9 0 32 -10
52 -22 20 -12 42 -28 49 -35 7 -7 17 -13 22 -13 5 0 35 -22 67 -49 32 -26 72
-55 88 -64 17 -9 26 -16 22 -17 -5 0 -18 5 -30 11 -12 7 -20 9 -17 6 3 -3 28
-21 56 -39 28 -19 59 -38 69 -41 11 -5 15 -13 11 -24 -4 -10 -4 -14 0 -10 4 4
13 2 20 -4 8 -6 11 -15 8 -20 -3 -5 0 -9 6 -9 6 0 26 -15 45 -34 18 -19 31
-37 28 -40 -4 -3 -1 -6 6 -6 7 0 9 -5 6 -10 -4 -6 -1 -9 7 -8 7 2 12 -5 12
-15 -1 -10 0 -16 3 -14 2 3 21 -6 41 -19 20 -14 44 -43 54 -66 10 -22 26 -47
36 -55 10 -9 11 -11 2 -7 -8 4 0 -10 18 -32 18 -21 42 -50 53 -62 10 -13 19
-30 19 -38 0 -9 4 -13 9 -10 5 3 12 -1 15 -10 3 -8 2 -12 -4 -9 -5 3 6 -17 25
-45 19 -28 37 -67 41 -86 3 -19 10 -37 15 -40 5 -3 9 -24 9 -46 l0 -41 -61 6
c-43 5 -72 15 -102 36 -24 16 -56 43 -72 59 -17 17 -40 43 -53 59 -13 15 -21
22 -17 16 3 -7 4 -13 0 -13 -3 0 -9 8 -13 19 -4 10 -36 51 -72 91 -36 40 -89
99 -119 131 -29 32 -62 61 -71 64 -10 3 -25 21 -35 40 -9 19 -20 35 -26 35 -6
0 -7 5 -4 10 3 6 1 10 -5 10 -6 0 -9 4 -6 9 4 5 -4 22 -17 38 -13 15 -32 42
-43 59 -10 17 -41 56 -67 86 -27 30 -58 70 -70 90 -12 20 -37 60 -55 90 -17
30 -42 60 -55 65 -13 6 -28 26 -34 48 -8 24 -9 46 -2 61 l9 25 30 -23 c17 -12
42 -37 56 -55z m4084 -68 c41 -2 97 -8 124 -13 27 -5 55 -17 61 -26 7 -8 15
-13 18 -9 4 3 7 1 7 -5 0 -6 7 -9 17 -5 10 4 14 2 10 -4 -4 -6 3 -8 18 -5 14
2 31 -2 40 -12 9 -9 25 -16 35 -16 11 0 34 -9 52 -20 18 -11 42 -20 54 -20 12
0 36 -11 55 -25 19 -14 59 -37 89 -52 30 -14 99 -61 154 -104 55 -43 103 -77
108 -76 4 1 24 -11 43 -28 20 -16 75 -70 123 -119 48 -50 102 -106 120 -125
17 -19 32 -38 32 -43 0 -4 33 -43 74 -84 40 -42 81 -85 91 -96 9 -11 24 -40
32 -64 8 -24 24 -49 34 -55 12 -6 19 -20 19 -37 -1 -22 -9 -31 -48 -48 -26
-12 -68 -26 -95 -33 -26 -6 -60 -11 -76 -11 -17 0 -44 -13 -67 -31 -22 -17
-50 -36 -64 -41 -14 -5 -51 -14 -84 -19 -32 -5 -81 -21 -109 -35 -27 -14 -72
-42 -99 -62 -26 -20 -48 -41 -48 -46 0 -5 -7 -18 -17 -28 -9 -10 -28 -18 -42
-18 -14 0 -31 4 -37 8 -6 4 -25 35 -42 69 -18 34 -36 64 -41 67 -5 4 -12 19
-16 35 -3 15 -16 34 -29 41 -13 6 -33 29 -45 50 -11 21 -32 45 -45 54 -14 9
-29 30 -35 48 -5 18 -21 62 -35 98 -15 36 -29 79 -31 97 -2 18 -9 50 -16 73
-7 22 -16 40 -22 40 -5 0 -7 11 -5 25 3 14 1 25 -4 25 -5 0 -6 5 -3 10 3 6 1
10 -5 10 -6 0 -8 5 -5 10 4 6 1 17 -5 25 -7 8 -9 15 -5 15 5 0 1 8 -8 18 -10
10 -14 22 -10 25 3 4 1 7 -6 7 -7 0 -9 5 -6 10 3 6 1 10 -4 10 -6 0 -11 7 -11
15 0 8 -5 15 -11 15 -5 0 -8 4 -5 9 3 5 -7 27 -22 49 -15 22 -39 50 -53 61
-15 11 -29 31 -33 43 -3 13 -21 34 -40 48 -19 14 -33 27 -31 28 2 2 -4 13 -13
24 -9 12 -36 40 -59 62 -23 23 -60 63 -82 89 -23 27 -41 59 -41 72 0 19 7 26
28 31 15 3 32 7 37 9 6 1 21 1 35 -2 14 -2 59 -6 100 -8z m-680 -135 c36 -33
61 -60 57 -60 -4 0 11 -17 34 -37 22 -21 49 -54 59 -73 10 -19 35 -60 55 -90
21 -30 41 -66 46 -79 5 -13 21 -38 35 -55 14 -17 45 -56 70 -86 25 -30 59 -80
74 -111 16 -31 50 -78 77 -104 26 -26 42 -44 36 -41 -7 4 -13 5 -13 3 0 -3 16
-14 35 -26 24 -14 37 -30 42 -51 3 -17 19 -41 36 -54 23 -18 30 -32 30 -57 0
-26 -9 -41 -46 -75 -37 -33 -57 -43 -94 -48 -27 -3 -121 -8 -209 -12 l-161 -6
-19 26 c-11 15 -31 43 -47 63 -22 29 -26 43 -21 69 5 27 1 40 -20 65 -14 17
-26 39 -26 49 0 10 -6 25 -12 32 -7 7 -14 20 -16 29 -1 8 -13 44 -27 79 -14
35 -25 74 -25 86 0 13 -5 26 -11 30 -6 3 -8 16 -5 28 3 12 -1 39 -9 61 -8 22
-14 57 -15 77 0 20 -3 43 -6 52 -3 9 -9 14 -13 12 -3 -2 -6 6 -7 17 0 12 -7
43 -15 70 -10 35 -11 55 -3 75 7 18 7 37 2 53 -6 15 -5 38 2 64 7 22 18 50 26
63 8 12 20 22 27 22 6 0 41 -27 77 -60z m-1850 -167 c25 -3 52 -12 60 -19 8
-7 35 -21 60 -32 25 -10 51 -17 59 -14 9 3 11 0 6 -8 -5 -8 -4 -11 3 -7 5 4
17 4 26 1 9 -3 14 -10 11 -14 -3 -5 5 -6 17 -3 19 4 20 3 8 -6 -13 -9 -12 -11
5 -11 11 0 38 -12 59 -26 21 -15 36 -22 32 -15 -4 6 -5 11 -2 11 2 0 22 -17
43 -39 21 -21 52 -47 69 -58 18 -10 53 -38 78 -61 25 -23 57 -64 70 -90 13
-26 34 -56 46 -67 12 -11 28 -32 36 -48 13 -25 13 -28 -2 -34 -10 -4 -33 2
-54 14 -20 12 -65 27 -100 33 -35 6 -81 20 -102 31 -20 10 -47 19 -58 19 -12
0 -31 5 -43 11 -12 6 -33 22 -47 34 -14 12 -42 28 -63 35 -20 6 -63 28 -95 49
-31 21 -78 50 -105 65 -26 15 -75 53 -110 84 -34 32 -74 63 -89 70 -16 6 -28
17 -27 24 1 7 4 24 8 37 5 18 18 28 51 37 25 7 59 10 75 8 17 -3 50 -7 75 -11z
m-1808 -44 c13 -5 32 -27 43 -47 11 -20 30 -41 43 -47 12 -5 22 -16 22 -23 0
-7 7 -15 15 -19 9 -3 27 -26 40 -52 12 -25 39 -73 59 -105 19 -32 33 -63 30
-68 -3 -5 -27 -6 -52 -2 -27 4 -65 20 -92 39 -25 17 -71 40 -103 50 -41 13
-62 25 -69 41 -6 13 -24 28 -41 34 -17 5 -39 18 -49 27 -10 9 -18 23 -18 31 0
8 28 45 63 82 34 38 67 69 74 69 7 1 22 -4 35 -10z m8169 -60 c19 -7 42 -19
53 -28 10 -9 27 -15 37 -13 10 2 19 -1 19 -7 0 -6 7 -8 15 -5 8 4 17 -1 21 -9
3 -8 19 -17 35 -21 17 -3 42 -15 56 -26 14 -11 29 -17 34 -14 5 3 9 0 9 -7 0
-7 3 -10 6 -6 4 3 21 -1 38 -10 17 -8 60 -36 95 -62 35 -25 80 -63 100 -83 20
-21 51 -56 69 -77 18 -21 39 -63 48 -91 15 -50 15 -54 -3 -79 -11 -14 -24 -45
-31 -67 -8 -27 -24 -51 -46 -68 -19 -14 -68 -43 -110 -66 -53 -27 -90 -40
-117 -40 -22 0 -57 -9 -79 -20 -22 -11 -52 -20 -67 -20 -15 0 -37 -7 -47 -15
-11 -8 -36 -15 -56 -15 -21 0 -52 5 -70 11 -25 9 -41 9 -65 0 -27 -9 -48 -8
-112 5 -43 9 -116 16 -161 15 -48 0 -93 4 -105 11 -12 7 -44 15 -72 19 -27 4
-83 14 -124 23 -41 9 -83 23 -95 31 -11 8 -33 15 -49 15 -16 0 -43 6 -60 14
-18 8 -52 21 -77 29 -25 9 -67 19 -93 22 -37 5 -50 12 -58 29 -8 16 -30 29
-78 44 -37 12 -77 31 -89 42 -12 12 -22 26 -22 33 0 7 5 18 12 25 7 7 19 12
28 12 9 0 31 13 50 30 18 16 37 27 42 24 5 -3 7 -1 6 4 -2 6 14 22 35 36 21
14 44 26 52 26 8 0 20 9 28 20 7 10 24 23 38 28 13 6 75 44 138 86 63 42 120
76 127 76 7 0 36 20 66 45 29 25 63 48 75 51 12 3 29 4 39 2 9 -1 20 -10 25
-18 4 -8 17 -36 29 -63 12 -26 24 -65 27 -87 4 -31 13 -44 42 -65 21 -14 45
-25 54 -25 10 0 34 9 55 19 20 10 48 33 60 51 19 25 22 39 17 63 -4 18 -7 49
-7 70 0 29 7 47 27 67 15 16 37 31 49 33 11 2 39 5 62 6 23 0 56 -4 75 -10z
m-6698 -425 c18 -9 59 -44 93 -78 34 -34 76 -68 95 -75 19 -7 41 -17 49 -22 8
-5 38 -20 66 -33 28 -13 54 -28 57 -34 4 -5 -2 -17 -12 -26 -15 -14 -38 -16
-147 -13 -71 2 -136 7 -144 11 -9 3 -23 21 -33 39 -9 17 -30 68 -47 112 -16
44 -30 92 -30 107 0 16 5 28 10 28 6 0 25 -7 43 -16z m3110 -525 c12 -6 51
-41 86 -78 35 -36 68 -79 74 -96 5 -16 33 -59 61 -95 29 -36 57 -77 63 -91 6
-15 24 -42 40 -60 16 -19 48 -77 72 -129 24 -52 59 -112 77 -132 28 -31 33
-43 28 -68 -5 -24 -2 -34 19 -50 14 -11 42 -55 62 -96 19 -42 38 -97 42 -123
3 -25 19 -77 35 -115 17 -38 34 -92 38 -120 4 -28 15 -69 25 -91 15 -34 17
-61 12 -170 -2 -71 -9 -142 -15 -157 -8 -18 -19 -28 -32 -28 -12 0 -38 9 -58
19 -21 11 -44 31 -51 45 -8 14 -35 43 -62 66 -26 22 -58 44 -71 50 -12 6 -36
31 -53 56 -16 25 -55 66 -85 92 -30 26 -57 51 -59 57 -2 5 -25 30 -51 55 -26
25 -54 60 -64 77 -9 18 -30 40 -46 48 -16 8 -46 29 -65 47 -20 17 -44 47 -55
67 -10 20 -27 44 -39 55 -11 10 -25 33 -31 50 -7 22 -22 38 -46 49 -21 10 -41
30 -50 50 -8 17 -35 59 -59 92 -24 33 -55 76 -68 95 -13 19 -32 41 -41 49 -9
7 -35 47 -57 88 -23 42 -54 90 -70 108 -15 17 -39 54 -52 81 -14 27 -27 61
-31 76 -4 18 -1 32 10 42 8 9 29 16 47 16 17 0 58 5 91 11 34 6 88 18 121 26
35 9 73 27 92 43 17 16 42 32 55 36 13 4 39 20 58 35 19 16 45 29 58 29 13 0
33 -5 45 -11z"/>
<path d="M22888 4713 c7 -3 16 -2 19 1 4 3 -2 6 -13 5 -11 0 -14 -3 -6 -6z"/>
<path d="M23290 5975 c7 -8 15 -15 17 -15 3 0 0 7 -7 15 -7 8 -15 15 -17 15
-3 0 0 -7 7 -15z"/>
<path d="M22542 5880 c0 -14 2 -19 5 -12 2 6 2 18 0 25 -3 6 -5 1 -5 -13z"/>
<path d="M23732 5770 c0 -19 2 -27 5 -17 2 9 2 25 0 35 -3 9 -5 1 -5 -18z"/>
<path d="M20811 5384 c0 -11 3 -14 6 -6 3 7 2 16 -1 19 -3 4 -6 -2 -5 -13z"/>
<path d="M20812 5340 c0 -14 2 -19 5 -12 2 6 2 18 0 25 -3 6 -5 1 -5 -13z"/>
<path d="M11402 5320 c-12 -5 -25 -16 -28 -25 -3 -8 -25 -20 -48 -26 -32 -9
-60 -31 -129 -102 -48 -51 -99 -108 -112 -127 -14 -20 -29 -59 -34 -87 -6 -29
-17 -68 -25 -88 -8 -19 -13 -42 -10 -50 3 -8 2 -20 -2 -27 -5 -7 -8 -32 -9
-55 0 -24 3 -43 7 -43 4 0 8 -10 8 -22 0 -13 1 -59 3 -103 2 -44 7 -117 12
-162 l8 -82 -36 -36 c-19 -19 -43 -35 -52 -35 -10 0 -35 -20 -56 -44 -22 -24
-63 -58 -92 -74 -28 -16 -67 -45 -86 -63 -18 -19 -74 -63 -124 -99 -67 -48
-96 -76 -112 -108 -12 -23 -35 -57 -52 -75 -16 -17 -51 -71 -76 -119 -26 -48
-47 -95 -47 -105 0 -9 -11 -36 -25 -59 -14 -24 -29 -67 -32 -96 -4 -29 -7 -65
-6 -80 0 -15 -3 -26 -6 -24 -3 2 -6 -39 -5 -92 0 -84 4 -104 26 -147 15 -28
31 -75 36 -105 6 -30 23 -77 38 -105 15 -27 43 -75 63 -105 19 -30 44 -65 55
-77 13 -16 31 -23 55 -23 26 0 47 -9 75 -32 l38 -32 107 12 c58 6 173 13 254
17 139 5 153 8 207 35 32 16 85 34 118 39 33 5 82 21 108 34 27 14 75 30 107
37 38 8 70 22 92 42 19 16 51 34 72 40 21 6 56 26 78 45 22 18 49 42 60 52 11
9 43 32 71 49 28 18 58 32 67 32 10 0 25 16 34 37 14 29 28 41 58 51 22 8 64
12 93 9 40 -3 59 -10 80 -30 18 -18 39 -27 59 -27 18 0 39 -7 47 -16 9 -8 16
-20 16 -25 0 -5 19 -18 43 -28 23 -9 67 -23 98 -30 31 -6 65 -21 74 -31 12
-13 31 -20 55 -20 20 0 68 -10 106 -21 38 -12 101 -32 139 -45 39 -12 104 -30
145 -38 41 -8 91 -20 110 -27 19 -6 49 -17 67 -25 17 -8 46 -14 64 -14 18 0
53 -10 78 -22 39 -20 64 -23 171 -25 69 -1 166 -6 217 -12 50 -5 100 -14 111
-20 12 -6 45 -11 74 -11 29 0 70 -4 91 -9 22 -5 52 -5 75 1 20 5 51 14 67 20
17 6 76 10 131 8 84 -1 108 2 141 18 21 11 61 23 87 27 40 6 57 16 92 51 39
41 46 44 96 44 36 0 63 -6 83 -20 23 -15 47 -20 101 -20 49 0 75 -4 83 -14 6
-7 37 -17 69 -20 31 -4 113 -9 182 -11 73 -3 139 0 158 6 24 8 37 8 48 -2 8
-6 36 -13 62 -13 26 -1 65 -8 88 -15 36 -12 45 -11 75 4 19 10 44 26 56 37 15
14 31 19 50 15 15 -2 42 -11 60 -18 28 -11 37 -11 69 4 34 17 38 17 61 1 15
-9 36 -14 52 -10 14 3 49 10 76 15 28 6 90 15 139 21 49 6 121 22 159 35 52
19 92 25 156 26 47 0 97 0 111 0 14 0 61 -4 105 -10 44 -6 113 -15 154 -20 59
-7 78 -14 91 -31 15 -20 23 -22 66 -16 27 4 69 9 94 12 30 4 63 0 92 -10 31
-10 103 -17 218 -21 95 -4 183 -10 196 -15 13 -5 30 -7 38 -4 7 3 41 -4 75
-16 34 -11 70 -25 79 -29 9 -5 69 -25 132 -44 93 -29 136 -36 225 -39 82 -3
119 -9 145 -23 19 -10 58 -20 85 -21 28 -2 59 -4 70 -5 11 0 45 5 76 12 52 12
62 11 123 -10 47 -16 78 -21 104 -16 23 4 54 0 81 -10 24 -8 58 -15 76 -15 18
0 38 -7 45 -15 7 -8 28 -15 47 -15 19 0 80 -7 136 -15 56 -9 122 -20 147 -26
25 -5 71 -7 102 -3 31 4 72 4 92 0 32 -6 36 -11 51 -62 9 -30 26 -74 39 -97
13 -23 28 -64 35 -91 7 -27 23 -68 37 -91 13 -23 24 -54 24 -70 0 -15 9 -44
20 -64 10 -20 28 -67 40 -105 11 -38 34 -94 50 -125 16 -31 50 -108 75 -173
25 -64 45 -121 45 -126 0 -6 16 -29 35 -52 19 -23 40 -60 46 -83 7 -23 23 -53
35 -67 13 -14 32 -54 43 -88 11 -35 35 -83 52 -106 25 -36 30 -52 27 -87 -3
-41 -2 -43 30 -51 27 -7 37 -18 58 -66 14 -31 37 -92 52 -136 21 -61 35 -84
61 -105 19 -14 58 -48 87 -74 28 -26 57 -61 64 -77 6 -15 24 -33 39 -40 19 -8
35 -8 54 -1 15 6 27 15 27 21 0 6 14 40 30 75 29 61 29 66 16 102 -8 21 -17
61 -20 88 -3 28 -19 84 -36 125 -17 41 -39 91 -47 110 -9 19 -24 51 -33 70
-10 19 -32 60 -49 90 -17 30 -38 69 -46 87 -8 18 -15 41 -15 51 0 11 -13 36
-30 57 -16 21 -30 47 -30 59 0 11 -11 43 -24 71 -13 27 -36 83 -52 124 -15 40
-41 89 -56 109 -15 19 -28 45 -28 57 0 13 -13 47 -28 77 -16 30 -32 67 -36 84
-4 16 -16 47 -26 69 -11 22 -31 76 -45 120 -15 44 -33 90 -41 102 -7 12 -30
70 -50 128 -20 60 -34 119 -32 137 3 32 5 33 58 40 30 4 72 13 92 19 33 10 40
19 57 63 10 28 26 83 35 123 15 67 15 75 -1 115 -9 24 -17 63 -18 88 0 28 -11
66 -29 99 -15 30 -43 68 -61 85 -18 17 -43 52 -55 78 -12 26 -47 72 -78 103
-32 31 -64 63 -72 72 -8 9 -29 32 -46 52 -17 20 -44 56 -61 81 -17 25 -41 54
-53 65 -12 11 -30 36 -41 56 -10 20 -25 39 -33 42 -8 3 -24 24 -35 45 -15 30
-32 44 -68 59 -26 12 -73 24 -104 27 -36 5 -65 3 -82 -5 -20 -9 -32 -28 -49
-78 -20 -59 -22 -83 -20 -236 2 -93 5 -197 7 -230 3 -33 16 -94 29 -135 14
-41 30 -101 37 -134 13 -58 13 -59 -15 -82 -15 -13 -34 -24 -43 -24 -9 0 -32
5 -50 12 -27 10 -38 10 -54 -1 -17 -10 -24 -10 -38 3 -9 8 -50 23 -91 32 -41
9 -86 22 -100 29 -14 6 -65 18 -115 25 -55 8 -98 20 -110 30 -11 10 -42 20
-68 23 -31 3 -57 13 -72 27 -21 20 -31 22 -83 16 -46 -5 -68 -3 -103 13 -24
10 -66 22 -94 26 -27 4 -64 15 -81 26 -17 10 -48 19 -68 19 -20 0 -50 7 -66
15 -16 8 -35 25 -42 38 -7 12 -13 35 -13 52 0 25 -5 31 -35 40 -19 6 -54 20
-77 33 -23 12 -51 22 -62 22 -11 0 -43 20 -71 45 -28 25 -59 45 -70 45 -10 0
-33 12 -51 27 -22 19 -43 27 -68 27 -23 0 -51 -10 -78 -29 -34 -24 -45 -40
-59 -85 -9 -30 -19 -80 -23 -110 -5 -50 -9 -56 -41 -72 -19 -10 -47 -18 -61
-18 -15 0 -32 6 -38 14 -7 8 -31 18 -54 21 -23 4 -50 13 -60 19 -10 6 -27 28
-38 49 -16 30 -18 45 -10 75 5 20 12 103 16 184 6 142 6 149 -16 185 -13 21
-38 56 -56 79 -18 23 -33 46 -33 52 0 7 -18 23 -41 37 -24 16 -47 41 -57 63
-9 21 -42 61 -74 90 -31 29 -72 57 -91 63 -20 5 -46 21 -59 35 -13 14 -66 47
-118 73 -52 26 -104 52 -115 58 -11 6 -60 24 -110 39 -64 21 -110 29 -160 28
-38 0 -117 -3 -175 -7 -58 -3 -139 -10 -180 -16 -52 -6 -95 -20 -140 -43 -36
-18 -77 -44 -91 -58 -15 -14 -52 -47 -84 -75 -31 -27 -61 -58 -67 -68 -5 -10
-18 -51 -28 -91 -13 -49 -17 -82 -11 -102 4 -16 6 -74 3 -129 -2 -55 -5 -113
-5 -129 0 -16 10 -48 21 -70 11 -23 28 -63 37 -89 9 -26 28 -61 41 -76 13 -16
24 -32 24 -36 0 -4 14 -24 30 -45 17 -21 30 -49 30 -63 0 -15 -6 -30 -13 -34
-8 -4 -17 -16 -20 -27 -6 -15 -10 -16 -22 -6 -10 9 -31 10 -66 6 -42 -6 -56
-3 -85 15 -21 13 -72 27 -132 36 -53 9 -133 18 -177 22 -44 4 -93 14 -110 23
-16 8 -46 19 -65 23 -19 4 -52 18 -73 32 -32 20 -46 23 -78 18 -31 -5 -44 -2
-65 14 -15 12 -34 21 -43 21 -10 0 -29 12 -42 28 -14 15 -30 39 -36 54 -7 14
-27 46 -46 70 -18 23 -55 65 -80 93 -26 27 -47 53 -47 57 0 5 -25 25 -56 46
-31 20 -70 46 -86 57 -17 11 -35 32 -42 47 -6 14 -65 69 -131 122 -66 52 -137
108 -158 123 -21 15 -71 60 -110 99 -40 39 -82 74 -95 78 -12 4 -36 5 -52 1
-16 -3 -44 -18 -63 -33 -19 -15 -42 -31 -51 -37 -11 -7 -25 -50 -41 -128 -14
-64 -25 -133 -25 -152 0 -19 4 -35 9 -35 5 0 12 -21 15 -47 4 -27 9 -57 12
-68 4 -17 3 -18 -6 -5 -10 12 -11 12 -5 -5 4 -11 12 -33 17 -50 6 -16 14 -34
18 -40 4 -5 10 -23 14 -39 4 -17 14 -35 21 -40 8 -6 15 -18 17 -26 2 -8 11
-21 21 -28 9 -7 17 -18 17 -24 0 -6 29 -40 64 -77 35 -36 79 -85 98 -108 18
-23 40 -52 48 -63 9 -12 38 -27 68 -35 29 -7 60 -19 68 -25 8 -7 14 -23 14
-35 0 -12 -6 -27 -13 -33 -7 -6 -32 -14 -54 -18 -33 -5 -49 -2 -76 14 -22 14
-49 21 -78 20 -24 0 -78 5 -119 11 -41 7 -95 16 -120 21 -25 5 -65 14 -90 21
-25 7 -57 22 -73 35 -21 17 -35 21 -61 17 -22 -3 -61 4 -113 20 -43 14 -98 28
-123 32 -25 3 -76 15 -115 27 -38 11 -95 31 -125 43 -30 12 -75 25 -100 28
-25 4 -77 22 -117 42 -39 19 -78 35 -86 35 -8 0 -34 16 -57 35 -23 19 -52 35
-64 35 -12 0 -27 5 -34 12 -7 7 -12 32 -12 57 0 34 8 59 34 101 19 31 51 74
70 95 24 26 44 65 62 119 15 45 33 89 42 99 9 10 17 42 19 80 1 34 8 97 14
140 7 48 9 120 4 190 -4 62 -10 117 -14 122 -5 6 -13 36 -19 67 -6 32 -25 85
-42 119 -16 34 -30 65 -30 71 0 5 -11 24 -23 41 -13 18 -32 54 -42 80 -13 36
-25 51 -44 58 -15 5 -44 32 -64 59 -21 28 -56 62 -80 77 -23 16 -48 36 -55 45
-7 10 -19 18 -26 18 -8 0 -19 6 -25 14 -7 8 -27 18 -44 22 -18 3 -50 16 -72
27 -22 11 -51 28 -64 38 -15 12 -40 19 -68 19 -29 0 -56 8 -81 24 -20 13 -66
29 -102 35 -36 6 -112 13 -170 15 -58 3 -123 7 -145 10 -22 3 -50 1 -63 -4z
m470 -514 c41 -13 86 -31 101 -40 14 -10 40 -18 59 -18 18 0 45 -8 60 -16 15
-9 25 -19 22 -23 -2 -4 14 -5 36 -2 35 5 42 2 69 -28 16 -19 38 -44 48 -57 10
-13 26 -24 35 -26 9 -1 31 -19 48 -40 16 -21 30 -45 30 -54 0 -8 14 -40 32
-71 31 -53 32 -61 31 -156 -1 -79 -6 -113 -25 -161 -12 -33 -42 -83 -65 -111
-24 -28 -43 -55 -43 -61 0 -6 -26 -44 -58 -84 -33 -40 -82 -94 -110 -120 -40
-37 -59 -48 -84 -48 -18 0 -49 5 -69 10 -24 7 -50 26 -74 55 -23 29 -44 45
-59 45 -12 0 -27 5 -34 12 -7 7 -12 21 -12 33 0 12 4 25 10 31 6 6 6 51 0 127
-7 81 -7 125 1 138 5 11 7 24 4 29 -4 6 -19 17 -36 25 -16 9 -29 22 -29 29 0
8 -14 44 -32 81 -28 62 -35 69 -82 90 -28 12 -82 32 -121 43 -38 12 -84 30
-102 41 -21 13 -35 33 -42 58 -6 21 -11 49 -11 62 0 13 9 39 21 57 11 19 29
39 40 44 10 6 19 19 19 28 0 10 7 27 15 39 9 12 32 27 53 34 20 6 91 15 157
19 66 3 120 7 121 8 1 1 35 -9 76 -22z m4429 -1012 c8 -8 31 -14 50 -14 19 0
52 -9 75 -19 23 -10 60 -22 84 -26 23 -4 76 -25 117 -47 41 -22 89 -55 106
-73 18 -17 57 -47 89 -65 44 -27 61 -44 79 -82 l23 -48 -21 -28 c-13 -18 -36
-31 -68 -39 -26 -7 -56 -20 -67 -30 -16 -15 -37 -17 -143 -15 -85 2 -136 8
-161 18 -20 9 -71 22 -112 30 -41 8 -91 21 -111 30 -20 9 -72 33 -116 55 -44
21 -92 41 -108 44 -15 3 -45 21 -66 40 -21 19 -54 41 -73 49 -22 10 -40 26
-47 44 -11 26 -10 36 8 70 11 22 27 42 36 46 9 3 27 6 41 6 13 0 57 16 97 34
41 19 82 33 93 30 10 -3 37 -1 59 5 22 5 58 7 80 4 22 -3 47 -11 56 -19z
m-5034 -8 c15 -13 42 -30 59 -39 17 -9 39 -28 49 -43 10 -15 30 -38 44 -52 14
-13 26 -29 27 -36 0 -6 25 -36 55 -66 30 -30 60 -64 67 -75 7 -11 10 -14 6 -6
-5 9 -3 12 5 7 6 -4 9 -11 6 -16 -3 -4 13 -23 35 -40 22 -18 45 -40 50 -51 7
-13 7 -25 -2 -39 -7 -12 -47 -37 -88 -57 -41 -19 -102 -48 -135 -64 -33 -16
-91 -38 -130 -49 -38 -11 -88 -20 -110 -20 -22 -1 -51 -7 -65 -15 -16 -9 -55
-14 -109 -15 -47 0 -114 -7 -149 -16 -54 -14 -74 -14 -118 -5 -29 7 -57 18
-64 25 -6 8 -26 17 -45 20 -22 4 -42 17 -51 32 -14 20 -15 30 -5 50 6 14 11
39 11 56 0 17 11 51 25 74 14 24 50 67 81 96 31 29 71 61 89 70 19 10 37 23
41 29 5 8 3 9 -5 4 -9 -5 -9 -2 0 13 7 12 15 19 17 18 2 -2 21 15 42 38 22 23
63 55 92 71 29 15 65 39 80 52 14 14 48 35 75 48 26 13 58 24 70 24 12 1 34
-10 50 -23z m2528 -406 c3 -5 -1 -10 -9 -10 -9 0 -16 5 -16 10 0 6 4 10 9 10
6 0 13 -4 16 -10z"/>
<path d="M2325 5260 c-27 -5 -103 -14 -168 -20 -80 -7 -140 -19 -185 -36 -36
-13 -100 -31 -142 -40 -41 -8 -84 -19 -95 -24 -11 -5 -31 -12 -45 -16 -14 -4
-41 -17 -60 -30 -19 -13 -55 -31 -80 -40 -25 -9 -60 -18 -79 -21 -21 -2 -50
-18 -73 -39 -22 -19 -51 -40 -66 -46 -15 -7 -37 -21 -49 -31 -12 -11 -54 -27
-93 -36 -52 -13 -84 -28 -121 -56 -27 -22 -61 -57 -75 -77 -20 -28 -35 -38
-65 -43 -31 -5 -58 -23 -117 -78 -42 -39 -91 -90 -108 -112 -17 -22 -43 -46
-58 -54 -14 -8 -26 -18 -26 -23 0 -4 -8 -16 -17 -26 -10 -10 -39 -50 -65 -90
-27 -39 -48 -75 -48 -80 0 -4 -11 -23 -25 -42 -14 -19 -25 -42 -25 -52 0 -10
-5 -18 -11 -18 -5 0 -7 -5 -3 -11 3 -6 2 -14 -4 -18 -6 -3 -13 -18 -16 -31 -3
-14 -9 -42 -15 -62 -5 -20 -6 -39 -3 -42 3 -4 0 -6 -7 -6 -7 0 -9 -4 -6 -10 3
-5 2 -10 -4 -10 -6 0 -8 -7 -5 -15 4 -8 1 -15 -5 -15 -6 0 -8 -7 -5 -15 4 -8
1 -15 -6 -15 -6 0 -9 -4 -6 -9 3 -5 -1 -28 -9 -51 -8 -23 -17 -65 -19 -93 -3
-28 -2 -55 2 -61 4 -6 7 -26 7 -43 0 -18 -2 -33 -5 -33 -3 0 -5 -10 -5 -23 1
-13 4 -27 6 -33 3 -5 7 -43 8 -84 2 -41 6 -79 10 -85 4 -5 17 -35 29 -65 11
-30 23 -66 25 -80 1 -14 8 -35 15 -47 7 -13 9 -23 5 -23 -4 0 -2 -5 5 -12 7
-7 12 -21 12 -33 0 -11 9 -38 19 -61 10 -23 35 -57 55 -77 20 -20 36 -44 36
-53 0 -9 14 -40 31 -68 17 -28 73 -91 123 -139 50 -48 107 -98 126 -111 19
-12 64 -41 99 -64 35 -23 71 -42 80 -42 9 0 50 -17 92 -38 41 -21 84 -42 95
-45 10 -4 35 -19 54 -33 26 -19 42 -24 64 -20 16 3 70 1 120 -5 50 -7 100 -17
111 -24 14 -8 94 -11 270 -9 138 1 316 4 396 8 80 3 156 9 170 14 13 5 83 13
154 17 72 4 173 13 225 20 52 7 117 22 143 34 27 11 60 21 74 21 13 0 60 9
104 20 43 11 101 33 128 50 27 16 92 41 143 55 51 15 111 34 133 43 22 9 65
32 95 52 30 20 79 48 107 63 29 15 67 27 84 27 23 0 42 11 79 48 26 26 74 73
106 105 38 36 67 57 82 57 13 0 32 -5 42 -10 11 -6 54 -15 95 -20 42 -5 86
-16 98 -25 14 -10 45 -15 92 -15 57 0 81 -5 130 -29 34 -17 92 -34 135 -40 41
-6 91 -13 110 -15 19 -3 58 -9 85 -15 28 -6 95 -16 150 -23 55 -6 139 -11 187
-10 57 1 98 -3 121 -13 30 -12 42 -13 79 -1 34 10 51 10 78 1 25 -8 65 -9 140
-2 58 5 132 11 165 13 33 2 97 8 141 13 45 5 96 17 112 25 17 9 49 16 70 16
22 0 56 7 77 16 22 9 49 13 65 9 17 -4 40 0 57 8 15 8 63 17 105 21 59 5 86 3
114 -9 20 -8 53 -15 73 -15 23 0 51 -11 78 -29 29 -19 60 -30 100 -34 32 -3
75 -13 96 -22 20 -8 49 -15 64 -15 16 0 45 -9 66 -20 32 -17 44 -19 83 -10 32
7 65 7 111 -1 36 -6 92 -9 124 -6 36 3 80 0 114 -9 40 -11 65 -12 93 -5 20 5
89 10 152 9 83 0 136 6 190 20 41 11 102 29 135 39 36 12 77 18 101 15 27 -2
53 2 75 13 19 10 45 26 58 36 12 10 39 21 60 25 20 4 48 13 63 20 22 12 43 12
110 3 46 -6 135 -17 198 -26 63 -8 131 -15 150 -14 19 0 56 -7 82 -15 26 -9
84 -17 129 -19 52 -3 103 1 141 11 49 13 69 14 106 4 25 -6 105 -13 177 -16
71 -2 169 -6 216 -9 84 -4 88 -4 128 25 22 17 41 35 41 40 0 6 -9 23 -20 38
-17 24 -18 32 -8 70 10 35 10 45 -3 57 -8 9 -39 18 -68 22 -42 5 -57 12 -74
34 -12 17 -30 29 -43 29 -12 0 -33 9 -46 20 -14 10 -47 24 -73 30 -27 6 -69
19 -94 29 -25 10 -86 25 -136 34 -49 9 -126 23 -169 31 -44 9 -95 20 -115 26
-20 5 -54 10 -76 10 -22 1 -89 11 -150 24 -60 12 -130 33 -155 45 -25 13 -55
35 -68 50 -12 14 -29 39 -38 55 -9 16 -52 70 -96 120 -44 50 -91 97 -104 104
-13 7 -24 16 -24 21 0 5 -19 15 -42 23 -24 9 -75 23 -114 32 -40 9 -89 16
-110 16 -22 0 -59 9 -83 20 -30 14 -65 20 -112 20 -56 0 -73 -4 -89 -20 -12
-12 -26 -33 -31 -48 -6 -15 -13 -40 -15 -57 -2 -16 -7 -50 -10 -75 -3 -25 -5
-72 -4 -104 1 -33 6 -68 11 -78 5 -10 7 -22 4 -27 -3 -5 2 -17 11 -25 8 -9 13
-16 10 -16 -3 0 3 -23 14 -50 11 -28 20 -70 20 -94 0 -25 -6 -48 -14 -55 -10
-9 -57 -11 -163 -7 -81 3 -161 5 -178 6 -16 0 -60 -3 -97 -6 -44 -4 -74 -2
-90 7 -12 7 -66 16 -118 20 -52 4 -115 15 -140 24 -25 10 -64 20 -88 22 -28 3
-52 14 -72 33 -20 19 -30 38 -30 58 0 16 -7 35 -14 42 -8 6 -20 37 -26 68 -7
31 -16 76 -21 99 -5 23 -19 58 -31 77 -13 20 -44 66 -70 102 -26 36 -50 73
-52 82 -3 10 -23 22 -44 29 -22 7 -86 47 -143 89 -57 43 -138 107 -179 143
-41 37 -92 79 -112 94 -20 15 -47 27 -60 27 -13 0 -38 -9 -55 -20 -18 -11 -35
-31 -39 -45 -3 -14 -10 -25 -16 -25 -5 0 -6 -5 -3 -10 4 -6 0 -21 -8 -34 -10
-15 -17 -58 -19 -135 -3 -61 -1 -114 3 -117 5 -3 6 -19 2 -36 -4 -22 -3 -29 5
-24 8 5 12 -4 14 -26 0 -18 2 -37 3 -43 1 -5 9 -26 18 -47 9 -20 19 -56 23
-80 4 -23 11 -49 17 -55 5 -7 6 -13 2 -13 -4 0 5 -14 19 -31 14 -17 26 -34 26
-38 0 -4 9 -18 20 -31 11 -13 20 -29 20 -37 0 -8 12 -30 26 -49 l27 -34 -26
-39 c-24 -35 -30 -39 -99 -50 -40 -6 -167 -16 -282 -21 -133 -6 -215 -6 -227
0 -10 6 -78 10 -151 10 -73 0 -151 5 -173 11 -22 6 -84 17 -138 25 -54 7 -105
18 -115 23 -9 4 -39 11 -67 15 -27 4 -72 12 -100 18 -27 6 -59 17 -70 24 -11
7 -39 17 -62 24 -32 8 -44 17 -49 34 -3 13 4 51 15 84 11 34 45 109 75 166 36
68 53 111 49 125 -3 12 2 32 11 46 12 19 19 58 23 143 3 66 0 151 -6 195 -6
43 -28 128 -50 190 -21 62 -50 143 -65 182 -14 38 -39 83 -55 100 -16 16 -48
49 -71 72 -23 22 -49 48 -58 56 -10 9 -30 32 -47 52 -16 20 -41 42 -55 49 -14
7 -42 16 -63 19 -20 3 -52 16 -69 29 -18 13 -51 31 -73 41 -22 10 -49 27 -60
37 -11 10 -42 21 -70 24 -27 3 -121 10 -208 15 -88 5 -175 5 -195 0 -21 -5
-69 -9 -109 -9 -39 0 -84 5 -100 11 -15 6 -57 42 -94 80 -36 38 -72 69 -81 69
-8 0 -36 16 -61 35 -25 19 -66 39 -92 45 -26 6 -63 19 -84 29 -20 11 -59 22
-86 26 -28 4 -68 15 -91 25 -30 13 -79 19 -185 23 -79 3 -166 1 -194 -3z m363
-422 c6 -1 12 -5 12 -9 0 -5 18 -13 39 -20 30 -9 47 -9 72 0 29 10 37 8 72
-16 22 -16 54 -37 72 -48 19 -12 43 -29 53 -39 11 -9 23 -29 27 -43 4 -16 -1
-36 -14 -58 -10 -18 -22 -48 -26 -66 -4 -19 -16 -53 -27 -77 -14 -30 -21 -65
-21 -115 0 -40 2 -108 6 -152 3 -44 11 -102 16 -130 5 -27 17 -67 25 -87 9
-21 21 -61 27 -90 7 -29 20 -69 31 -90 11 -21 24 -41 29 -44 5 -3 9 -16 9 -29
0 -13 13 -39 30 -58 16 -19 34 -46 40 -62 7 -17 7 -39 1 -60 -5 -18 -5 -50 -2
-72 4 -22 11 -45 15 -51 4 -7 24 -21 44 -31 23 -11 49 -17 69 -14 23 4 41 -1
65 -18 18 -13 49 -31 69 -40 20 -10 45 -31 55 -48 10 -17 24 -31 31 -31 7 0
18 -9 25 -20 7 -11 23 -20 35 -20 13 0 31 -9 41 -19 9 -11 23 -26 30 -35 6 -8
12 -23 12 -33 0 -10 -28 -39 -61 -66 -33 -26 -115 -74 -183 -107 -67 -32 -142
-62 -167 -66 -24 -4 -57 -14 -74 -24 -16 -10 -47 -20 -68 -23 -20 -3 -50 -14
-65 -25 -16 -11 -54 -22 -92 -26 -35 -4 -76 -13 -90 -21 -14 -7 -47 -17 -75
-23 -27 -6 -70 -15 -95 -21 -25 -5 -79 -15 -120 -21 -41 -6 -100 -15 -131 -20
-31 -5 -147 -11 -258 -14 -111 -2 -205 -7 -208 -10 -4 -3 -15 -6 -25 -6 -10 0
-29 6 -41 14 -16 9 -64 14 -164 14 -103 1 -153 6 -179 17 -20 8 -50 15 -66 15
-16 0 -43 7 -60 16 -19 10 -44 14 -64 11 -23 -4 -46 2 -81 20 -26 14 -55 32
-64 39 -8 8 -25 14 -36 14 -11 0 -47 11 -79 25 -33 14 -70 32 -84 40 -14 8
-60 32 -102 54 -70 37 -78 45 -89 82 -9 27 -25 50 -48 67 -20 14 -46 38 -58
52 -17 20 -21 33 -16 65 4 36 1 46 -31 84 -20 23 -36 51 -36 61 0 11 -4 22
-10 25 -6 4 -10 57 -10 128 0 117 2 125 35 202 19 44 35 86 35 93 0 7 16 45
36 85 20 39 54 98 75 130 22 32 39 62 39 67 0 4 16 22 35 39 20 17 40 31 45
31 5 0 19 10 30 23 12 12 30 39 41 60 12 23 27 37 39 37 10 0 45 22 77 48 32
27 69 55 83 62 14 7 43 28 65 45 22 18 72 52 110 75 39 24 76 43 83 43 6 0 12
4 12 9 0 5 4 7 9 4 5 -3 21 4 35 15 15 11 32 22 39 23 6 2 26 6 42 11 17 4 85
34 151 66 67 33 137 62 155 65 19 3 51 12 72 20 20 8 50 14 66 14 16 0 55 12
87 27 40 19 78 28 119 30 33 1 85 5 115 9 30 3 61 11 68 16 6 6 12 8 12 5 0
-4 10 -2 23 3 12 5 67 7 122 4 55 -2 106 -5 113 -6z m1236 -386 c11 -9 16 -11
12 -4 -5 8 8 5 30 -7 21 -12 45 -21 52 -21 7 0 39 -13 72 -30 33 -16 66 -30
74 -30 8 0 35 -13 59 -30 24 -16 57 -49 73 -72 15 -24 45 -62 66 -85 21 -24
38 -49 38 -58 0 -8 4 -15 8 -15 4 0 9 -35 10 -77 3 -70 -1 -87 -33 -163 -19
-46 -35 -89 -35 -95 0 -7 -13 -31 -29 -56 -15 -24 -49 -77 -75 -116 -25 -40
-56 -78 -69 -84 -12 -7 -46 -33 -76 -58 l-53 -45 -32 19 c-17 10 -62 35 -101
55 -38 20 -101 53 -140 74 -38 21 -81 48 -95 61 -14 12 -37 29 -51 36 -15 8
-43 34 -63 57 -20 24 -36 52 -36 62 0 11 -5 22 -11 26 -7 4 -8 23 -4 53 4 25
11 73 15 106 5 42 3 69 -7 92 -7 18 -13 63 -13 100 0 38 5 107 10 153 6 47 13
92 16 100 2 8 20 27 39 41 34 26 40 27 182 28 126 0 150 -2 167 -17z m-187
-1484 c-3 -8 -6 -5 -6 6 -1 11 2 17 5 13 3 -3 4 -12 1 -19z"/>
<path d="M34534 4425 c-27 -6 -62 -20 -76 -29 -14 -9 -29 -28 -32 -40 -3 -13
-23 -39 -43 -57 -21 -18 -47 -44 -58 -58 -12 -16 -23 -51 -28 -91 -5 -36 -11
-120 -13 -187 -4 -88 -2 -128 7 -145 7 -12 16 -43 20 -68 3 -25 11 -65 17 -90
7 -25 14 -58 17 -74 4 -16 21 -43 40 -60 18 -17 52 -48 75 -68 23 -21 48 -38
55 -38 7 0 26 7 41 15 16 8 43 15 60 15 18 0 38 8 48 19 15 17 17 30 11 80 -6
49 -4 61 7 61 8 0 21 -6 30 -12 9 -7 42 -62 73 -123 31 -60 62 -116 67 -122 6
-7 8 -23 5 -35 -4 -13 3 -37 19 -63 13 -23 24 -57 24 -76 -1 -19 -6 -43 -13
-55 -7 -11 -21 -32 -32 -45 -11 -13 -38 -38 -60 -55 -22 -17 -50 -36 -62 -42
-12 -7 -43 -12 -70 -12 -28 0 -58 -7 -72 -16 -18 -13 -37 -15 -94 -9 -46 4
-83 2 -102 -5 -22 -9 -46 -8 -95 1 -41 7 -79 22 -104 40 -33 24 -50 29 -100
29 -40 0 -76 8 -106 21 -25 12 -67 28 -95 36 -27 8 -64 26 -82 39 -17 13 -44
29 -59 34 -14 6 -38 19 -53 29 -14 10 -43 24 -64 31 -25 8 -46 25 -63 50 -14
21 -44 50 -65 65 -22 14 -71 58 -110 98 -63 65 -69 75 -69 113 0 25 6 47 15
54 8 7 15 21 15 32 0 10 -7 32 -15 49 -10 18 -18 66 -20 122 -3 51 -11 127
-18 170 -8 44 -22 86 -32 97 -15 17 -29 20 -74 18 -31 -1 -68 1 -83 6 -23 7
-31 3 -58 -26 -17 -18 -49 -58 -71 -88 -37 -51 -39 -59 -39 -126 0 -39 -7 -91
-15 -114 -8 -23 -15 -60 -15 -81 0 -21 -5 -58 -12 -82 -9 -36 -9 -49 4 -73 8
-16 19 -38 25 -49 6 -11 17 -47 24 -80 7 -33 17 -69 22 -80 6 -11 21 -33 33
-48 16 -19 24 -41 24 -68 0 -35 3 -40 35 -53 24 -10 44 -30 63 -63 15 -26 63
-83 106 -125 43 -43 91 -81 105 -85 14 -3 55 -22 91 -42 36 -20 72 -40 81 -46
9 -5 40 -23 70 -39 30 -16 87 -40 128 -53 41 -12 80 -28 87 -34 7 -6 42 -13
76 -16 35 -4 93 -19 130 -35 39 -16 85 -28 110 -28 24 0 60 -5 81 -11 20 -5
86 -15 145 -21 59 -6 148 -10 199 -9 69 1 110 8 165 26 40 14 88 25 106 25 22
0 42 9 64 30 17 17 39 30 49 30 10 0 35 17 55 38 20 20 45 56 55 79 12 27 32
51 58 67 22 14 45 34 51 45 5 11 10 35 10 55 0 19 11 56 25 82 19 35 25 63 25
103 0 31 2 101 5 156 2 63 -1 131 -10 185 -8 47 -15 99 -15 115 0 17 -16 60
-35 95 -19 36 -35 70 -35 77 0 6 -14 42 -31 80 -18 37 -42 82 -54 98 -13 17
-37 58 -54 92 -17 35 -55 86 -85 115 -29 29 -57 64 -61 78 -4 14 -28 46 -54
71 -25 25 -64 73 -86 106 -24 37 -53 67 -73 77 -18 9 -34 16 -35 15 -1 -1 -25
-7 -53 -14z"/>
<path d="M21270 4305 c7 -8 15 -15 17 -15 3 0 0 7 -7 15 -7 8 -15 15 -17 15
-3 0 0 -7 7 -15z"/>
<path d="M36329 4127 c-20 -24 -48 -72 -62 -108 -24 -61 -25 -73 -23 -229 3
-152 5 -170 30 -235 15 -38 36 -99 47 -135 10 -36 19 -75 19 -87 0 -14 11 -29
28 -40 15 -9 33 -23 40 -32 6 -8 12 -28 12 -43 0 -20 7 -32 23 -39 12 -6 33
-26 47 -45 14 -19 49 -53 79 -76 30 -23 67 -56 83 -74 16 -18 39 -36 51 -40
12 -3 52 -31 88 -60 49 -40 86 -61 143 -79 42 -14 87 -25 99 -25 13 0 45 -11
73 -23 27 -13 72 -33 99 -45 28 -12 79 -29 115 -37 36 -8 77 -15 92 -15 16 0
55 -10 89 -21 49 -17 66 -19 86 -10 17 8 49 8 114 1 77 -9 93 -8 114 6 20 13
31 14 56 5 25 -9 37 -8 60 6 24 14 32 15 56 4 18 -8 29 -9 31 -2 2 6 29 25 60
42 31 18 72 45 90 61 26 22 42 28 80 28 27 0 53 5 60 12 7 7 12 22 12 35 0 12
12 35 26 50 14 15 41 52 59 82 20 31 37 74 40 100 4 25 14 62 22 81 9 19 19
42 23 50 4 8 17 16 28 18 12 2 32 -4 44 -12 12 -9 34 -16 48 -16 14 0 46 -11
71 -24 25 -14 74 -32 110 -41 35 -9 85 -30 110 -46 33 -21 58 -29 90 -29 26 0
57 -8 75 -19 17 -11 60 -31 94 -44 48 -20 68 -23 88 -16 16 6 51 6 99 -1 56
-7 91 -19 141 -49 37 -21 95 -51 129 -65 34 -14 72 -26 84 -26 13 0 52 -12 88
-26 41 -17 98 -30 150 -35 69 -6 88 -12 110 -32 14 -14 50 -37 79 -51 28 -15
52 -33 52 -41 0 -10 10 -15 30 -15 17 0 30 5 30 10 0 6 20 10 44 10 25 0 57
-5 72 -10 22 -9 39 -4 108 27 69 32 92 38 156 39 41 1 95 7 119 14 35 9 54 9
88 -1 34 -9 53 -9 83 0 22 6 50 9 63 6 13 -4 68 -8 123 -11 54 -3 124 -7 154
-10 30 -2 98 -6 150 -9 52 -2 124 -11 160 -19 36 -9 78 -16 93 -16 15 0 63
-20 106 -45 43 -25 89 -45 103 -45 13 0 48 -7 76 -15 49 -15 54 -15 91 5 22
11 53 20 68 20 15 0 42 9 59 19 22 13 36 35 51 77 12 33 23 89 26 125 2 36 -1
95 -8 130 -7 35 -16 72 -20 82 -4 10 -34 31 -66 48 -47 23 -67 28 -98 23 -23
-4 -47 -1 -61 6 -13 7 -55 17 -94 22 -39 6 -91 11 -116 13 -25 1 -58 8 -75 13
-16 6 -73 18 -125 26 -52 8 -133 20 -180 26 -47 7 -159 14 -250 16 -91 3 -183
9 -205 15 -27 7 -55 7 -86 0 -36 -8 -58 -7 -96 4 -43 13 -59 13 -127 0 -42 -8
-86 -19 -96 -25 -10 -5 -32 -10 -49 -10 -25 0 -34 -7 -50 -39 -11 -21 -27 -41
-36 -45 -9 -3 -46 -6 -81 -6 -36 0 -81 7 -101 15 -20 8 -61 18 -92 21 -31 4
-76 17 -101 30 -25 13 -59 24 -76 24 -18 0 -46 12 -70 30 -21 16 -44 30 -51
30 -7 0 -22 13 -34 30 -14 18 -40 35 -68 44 -25 8 -73 22 -106 31 -33 9 -76
23 -95 31 -19 7 -55 18 -80 25 -25 6 -52 17 -60 24 -8 7 -64 30 -125 51 -60
20 -122 46 -137 56 -15 10 -46 25 -70 32 -24 8 -72 25 -108 38 -36 13 -83 36
-105 51 -22 15 -56 30 -75 33 -19 4 -48 14 -65 23 -16 9 -47 31 -69 49 -21 19
-52 40 -70 47 -17 8 -38 22 -46 32 -8 10 -28 36 -44 58 -17 22 -35 43 -42 48
-7 4 -15 21 -19 38 -4 18 -16 34 -28 39 -12 5 -50 13 -85 19 -52 8 -71 7 -105
-6 -23 -9 -50 -24 -61 -34 -14 -13 -21 -39 -27 -106 -4 -49 -4 -131 1 -186 5
-54 14 -105 18 -115 5 -9 12 -38 15 -63 4 -26 18 -68 32 -94 14 -27 25 -63 25
-80 0 -18 9 -52 20 -76 11 -24 20 -58 20 -75 0 -25 -12 -42 -64 -92 -35 -34
-71 -62 -80 -62 -9 0 -44 -10 -78 -22 -55 -18 -69 -20 -118 -10 -30 6 -76 8
-101 5 -32 -4 -55 0 -78 12 -18 9 -56 21 -84 27 -29 5 -74 12 -102 15 -31 3
-86 22 -142 49 -51 24 -98 44 -106 44 -8 0 -35 11 -61 25 -26 14 -53 25 -61
25 -7 0 -28 17 -47 39 -20 23 -65 55 -115 81 -45 23 -85 49 -88 59 -2 9 -22
25 -42 36 -21 11 -57 38 -81 59 -24 22 -50 53 -58 68 -9 17 -20 26 -26 22 -7
-4 -8 -3 -4 4 4 7 3 12 -3 12 -6 0 -8 6 -5 13 2 7 -6 27 -19 45 -13 17 -28 28
-32 24 -4 -4 -5 3 -2 16 3 14 1 20 -6 15 -6 -4 -8 2 -5 15 4 12 3 20 -2 17 -4
-3 -10 5 -14 18 -3 12 -5 36 -4 52 1 30 1 30 8 -5 6 -29 7 -28 3 10 -2 25 -8
65 -12 90 -6 32 -9 38 -11 20 -2 -14 -7 4 -11 40 -5 36 -10 73 -11 82 -1 9 -5
15 -9 12 -4 -2 -10 3 -13 12 -4 10 -2 13 7 9 6 -4 3 1 -7 9 -11 9 -16 16 -11
16 4 0 0 8 -9 19 -10 11 -37 21 -64 24 -26 4 -58 9 -72 12 -21 5 -31 -1 -61
-38z m2061 -162 c0 -8 -4 -15 -8 -15 -5 0 -12 3 -15 6 -4 4 -4 11 -1 15 3 5 9
9 15 9 5 0 9 -7 9 -15z"/>
<path d="M13562 3720 c0 -14 2 -19 5 -12 2 6 2 18 0 25 -3 6 -5 1 -5 -13z"/>
</g>
</svg>
