<?xml version="1.0" standalone="no"?>
<!DOCTYPE svg PUBLIC "-//W3C//DTD SVG 20010904//EN"
 "http://www.w3.org/TR/2001/REC-SVG-20010904/DTD/svg10.dtd">
<svg version="1.0" xmlns="http://www.w3.org/2000/svg"
 width="468pt" height="87pt" viewBox="0 0 468 87"
 preserveAspectRatio="xMidYMid meet">
<metadata>
Created by POTRACE VERSION, written by Peter Selinger 2001-2007
</metadata>
<g transform="translate(0,87) scale(0.051770,-0.051770)"
fill="#000000" stroke="none">
<path d="M8170 1630 c-67 -5 -123 -16 -190 -40 -51 -18 -110 -43 -130 -55 -19
-13 -49 -36 -66 -52 -21 -20 -34 -44 -39 -71 -4 -24 -2 -49 5 -61 6 -12 16
-21 22 -21 7 0 8 13 5 36 -4 23 -1 47 8 64 8 15 36 43 62 62 26 19 62 39 78
45 17 6 75 21 130 33 89 20 116 22 245 16 80 -4 181 -12 225 -17 44 -5 98 -14
120 -20 22 -6 48 -15 57 -20 10 -5 24 -9 33 -9 8 0 36 -12 62 -26 26 -15 61
-38 76 -53 16 -14 40 -48 53 -74 17 -33 27 -72 31 -127 4 -52 1 -95 -7 -125
-7 -26 -30 -73 -51 -105 -20 -32 -63 -83 -96 -113 -32 -31 -89 -77 -128 -102
-38 -25 -101 -61 -140 -79 -38 -18 -101 -43 -138 -55 -37 -12 -134 -30 -215
-41 -81 -10 -219 -24 -307 -29 -88 -6 -200 -10 -250 -10 -49 1 -106 -1 -125
-4 -19 -3 -55 -6 -80 -8 -25 -1 -57 -1 -72 0 -19 1 -26 5 -22 15 3 7 46 34 97
59 51 25 103 48 117 52 14 5 68 32 120 63 52 30 122 71 155 91 33 20 67 43 75
52 8 9 36 33 63 54 26 20 47 41 47 44 0 4 -9 17 -20 29 -16 17 -27 20 -57 15
-21 -4 -65 -21 -98 -39 -33 -17 -91 -52 -130 -77 -38 -25 -123 -86 -188 -134
-64 -48 -156 -118 -203 -155 -48 -38 -89 -68 -93 -68 -4 0 -42 4 -86 9 -44 5
-217 12 -385 16 -168 4 -309 11 -315 16 -6 6 22 40 75 94 46 46 81 87 77 91
-3 3 -18 3 -33 0 -15 -4 -41 -22 -58 -40 -17 -18 -55 -58 -85 -89 l-54 -57
-166 5 c-91 3 -220 9 -286 15 -66 5 -201 12 -300 16 -99 4 -191 8 -205 9 -14
1 -26 3 -28 4 -1 0 10 25 24 54 14 28 32 59 39 67 7 8 32 62 54 119 23 58 45
109 50 115 5 6 32 56 61 111 29 55 61 109 71 121 11 11 19 23 19 27 0 4 -5 7
-11 7 -6 0 -23 -13 -37 -28 -15 -16 -68 -71 -118 -123 -50 -52 -117 -124 -150
-160 -32 -36 -75 -83 -94 -105 -19 -22 -61 -74 -93 -117 -34 -45 -67 -79 -80
-81 -12 -3 -38 -5 -57 -5 -19 0 -63 2 -97 5 -35 3 -63 9 -63 14 0 4 28 46 62
93 35 47 83 111 107 143 24 33 67 83 95 112 28 30 83 79 121 111 39 31 97 75
130 98 33 22 86 52 118 67 31 15 57 32 57 37 0 5 -8 9 -17 9 -10 0 -54 -18
-97 -41 -43 -22 -115 -69 -160 -103 -45 -35 -103 -86 -131 -113 -27 -27 -80
-82 -116 -123 -36 -41 -86 -102 -111 -135 -25 -33 -64 -86 -87 -117 l-42 -58
-142 0 c-78 0 -191 -7 -252 -15 -60 -9 -137 -22 -170 -30 -33 -8 -85 -20 -115
-28 -30 -8 -90 -28 -133 -45 -43 -17 -98 -42 -122 -56 -24 -14 -53 -39 -64
-55 -12 -16 -21 -43 -21 -61 0 -23 9 -41 33 -65 22 -22 47 -36 73 -40 21 -3
56 -11 77 -17 28 -9 74 -9 175 -1 120 10 153 16 273 57 75 25 142 46 149 46 6
0 -4 -22 -24 -49 -20 -27 -36 -54 -36 -60 0 -6 6 -11 13 -11 6 0 17 4 23 8 5
4 34 41 63 83 28 42 61 85 71 94 11 10 20 22 20 27 0 4 20 35 45 69 24 33 56
74 69 90 l25 29 120 0 c70 0 121 -4 121 -10 0 -5 -5 -21 -12 -35 -6 -14 -17
-25 -25 -25 -7 0 -13 -5 -13 -10 0 -6 -9 -30 -20 -52 -11 -23 -29 -74 -40
-114 -11 -39 -18 -78 -15 -86 3 -8 20 -23 38 -33 21 -13 50 -19 83 -19 36 1
70 11 115 33 35 17 78 42 94 55 17 13 27 27 24 31 -4 3 -35 -10 -70 -29 -35
-19 -91 -41 -124 -50 -33 -8 -70 -13 -82 -10 -12 4 -25 14 -28 24 -3 9 -2 26
1 36 4 10 26 46 50 80 24 34 69 84 101 111 32 28 78 60 102 73 43 22 46 22
225 11 100 -7 286 -14 414 -18 165 -4 232 -9 232 -18 0 -6 -18 -22 -40 -34
-23 -13 -69 -56 -103 -96 -34 -40 -70 -86 -79 -102 -15 -27 -16 -32 -2 -51 9
-14 26 -22 42 -22 15 0 55 17 90 38 34 20 87 55 117 76 31 21 58 37 60 34 2
-2 -1 -21 -7 -41 -7 -24 -8 -41 -2 -47 6 -6 28 -11 49 -12 24 0 58 8 85 22 25
12 52 28 60 35 8 8 28 17 43 21 l29 7 -17 -33 c-10 -19 -14 -42 -10 -57 6 -24
9 -25 60 -21 41 3 68 14 109 41 l55 37 -5 -28 c-4 -19 1 -34 16 -50 17 -18 29
-22 48 -17 15 4 50 21 79 38 29 18 53 38 53 45 0 9 -5 10 -17 4 -10 -5 -39
-19 -64 -30 -25 -12 -53 -22 -62 -22 -10 0 -17 8 -17 18 0 10 32 49 70 86 39
38 70 72 70 76 0 4 11 19 24 35 l24 27 125 -6 c69 -3 133 -9 141 -12 9 -3 16
-10 16 -14 0 -4 -29 -45 -65 -91 -36 -46 -65 -93 -65 -105 0 -11 9 -29 21 -40
16 -15 34 -18 76 -17 50 3 66 10 167 77 61 41 138 100 171 132 l60 58 175 8
c96 4 208 12 248 18 40 5 99 10 132 10 32 0 107 9 165 20 58 12 145 35 193 51
48 17 125 51 172 76 47 25 117 73 155 106 39 33 90 82 116 108 25 26 58 72 74
101 26 48 29 64 33 168 3 98 1 122 -16 160 -11 25 -31 56 -44 70 -14 14 -43
39 -66 57 -22 18 -64 43 -93 56 -30 14 -74 31 -99 40 -25 8 -85 22 -135 31
-49 8 -133 17 -185 19 -52 2 -138 1 -190 -3z m-235 -629 c3 -6 -30 -36 -72
-69 -43 -32 -107 -76 -143 -97 -36 -21 -94 -53 -129 -72 -35 -18 -66 -31 -69
-29 -3 3 1 13 9 22 8 10 37 32 64 51 28 18 88 60 135 93 47 33 107 71 134 85
28 14 53 25 57 25 4 0 10 -4 14 -9z m-3155 -380 c0 -5 -15 -27 -32 -49 -18
-22 -51 -64 -74 -94 -32 -43 -51 -57 -90 -70 -27 -10 -94 -33 -149 -52 -55
-19 -133 -42 -173 -52 -57 -13 -100 -16 -202 -12 -109 5 -137 9 -177 29 -37
18 -49 30 -51 50 -2 20 5 32 31 52 19 14 74 44 123 66 49 21 143 55 209 74 70
21 172 41 245 50 69 8 173 15 233 16 59 0 107 -3 107 -8z m1743 -50 c55 -1 77
-5 77 -13 0 -7 -13 -26 -28 -43 -15 -16 -59 -49 -97 -71 -39 -23 -94 -54 -123
-68 -30 -15 -63 -26 -75 -24 -16 2 -21 9 -19 23 2 11 15 44 29 73 15 29 43 70
63 92 29 32 42 38 66 35 16 -2 64 -4 107 -4z m-265 -21 c18 -17 20 -24 10 -45
-6 -13 -16 -26 -23 -29 -7 -2 -58 -34 -112 -69 -55 -36 -118 -74 -141 -86 -23
-11 -44 -21 -47 -21 -3 0 -5 6 -5 13 0 8 21 40 46 73 25 32 73 87 106 122 55
57 64 62 102 62 28 0 49 -7 64 -20z m548 -1 c3 -6 -2 -23 -13 -37 -11 -15 -49
-48 -84 -74 -35 -26 -81 -59 -101 -73 -20 -15 -55 -29 -77 -32 -23 -3 -41 -1
-41 4 0 5 11 25 25 44 14 19 31 39 38 44 7 6 37 38 66 73 l54 62 63 0 c35 0
66 -5 70 -11z m664 -21 c-1 -7 -20 -29 -43 -49 -23 -20 -84 -66 -134 -103 -52
-37 -112 -71 -137 -78 -36 -9 -48 -9 -60 1 -9 8 -16 19 -16 27 0 7 41 56 91
108 49 52 100 97 112 99 12 2 59 5 105 6 60 1 82 -2 82 -11z"/>
<path d="M3678 1585 c-20 -6 -48 -21 -64 -32 -16 -12 -39 -32 -51 -45 -11 -12
-41 -52 -65 -88 -25 -36 -53 -86 -63 -112 -14 -38 -16 -62 -11 -117 6 -63 5
-73 -16 -103 -13 -18 -37 -49 -53 -68 -17 -19 -38 -46 -47 -59 -14 -20 -30
-26 -85 -32 -37 -5 -120 -18 -183 -30 -63 -12 -169 -40 -235 -62 -66 -22 -150
-57 -188 -78 -37 -21 -114 -74 -172 -119 -58 -44 -123 -97 -144 -118 -21 -20
-47 -53 -59 -72 -12 -20 -24 -54 -27 -75 -5 -32 -2 -47 17 -75 13 -19 37 -42
53 -50 21 -10 56 -14 111 -12 48 1 109 10 150 23 38 11 99 38 136 60 37 21 73
45 80 52 7 6 32 24 55 39 23 15 70 53 104 85 35 32 104 99 154 148 50 50 126
128 167 175 l76 84 72 4 c47 3 70 8 67 16 -2 6 -22 12 -45 14 -23 2 -42 8 -42
14 0 6 19 36 42 67 22 31 43 58 45 60 2 3 17 -3 32 -12 16 -9 36 -17 45 -17 9
0 16 7 16 15 0 8 -14 22 -31 30 l-30 16 18 29 c10 16 43 66 74 112 31 46 82
128 113 184 31 55 56 112 56 126 0 17 -7 27 -19 31 -10 2 -34 -1 -53 -8z m-2
-92 c-10 -21 -34 -63 -53 -93 -20 -30 -61 -90 -91 -133 -46 -64 -58 -75 -69
-64 -11 10 -10 23 2 72 10 35 34 86 61 125 25 36 50 72 57 81 7 9 30 28 51 43
27 18 43 23 50 16 7 -7 4 -22 -8 -47z m-436 -612 c0 -5 -73 -83 -162 -174
-108 -109 -206 -197 -289 -259 -69 -52 -151 -107 -182 -121 -31 -14 -84 -33
-118 -41 -33 -9 -82 -16 -107 -16 -26 0 -63 8 -82 18 -25 12 -36 26 -41 48 -3
17 -4 47 -1 65 4 26 23 52 82 110 42 41 108 96 146 121 38 25 119 71 179 103
76 38 151 67 240 92 72 20 162 42 200 48 39 7 85 13 103 14 17 1 32 -3 32 -8z"/>
<path d="M1180 1428 c-41 -20 -89 -57 -131 -99 -42 -42 -73 -83 -84 -112 -17
-45 -17 -47 5 -92 l22 -46 -34 -52 c-20 -29 -59 -80 -88 -114 -35 -42 -64 -66
-89 -74 -20 -6 -88 -39 -151 -72 -63 -33 -133 -72 -155 -87 -22 -15 -92 -62
-155 -103 -63 -42 -136 -96 -162 -119 -26 -24 -65 -65 -88 -93 -28 -35 -40
-59 -40 -82 0 -26 6 -36 30 -48 25 -13 38 -13 77 -4 27 7 55 17 63 24 8 7 34
22 57 34 24 12 43 25 43 29 0 4 29 27 65 51 36 23 107 78 158 121 50 43 140
125 200 183 59 58 107 109 107 114 0 5 14 17 31 27 16 10 36 15 44 13 7 -3 21
1 32 9 17 14 17 15 -4 30 l-23 16 32 47 c17 25 46 63 65 84 18 20 33 41 33 47
0 5 14 17 30 25 17 9 28 20 25 25 -3 5 0 21 7 37 7 15 46 77 86 138 40 60 75
119 78 132 3 12 3 27 -1 32 -3 6 -9 11 -13 11 -4 0 -37 -14 -72 -32z m-10 -88
c0 -5 -24 -44 -52 -86 -29 -42 -63 -88 -75 -103 -19 -22 -24 -24 -33 -11 -6 8
-8 28 -5 44 3 16 24 50 48 76 23 25 56 56 72 67 17 12 33 22 38 22 4 1 7 -3 7
-9z m-527 -679 c-49 -47 -129 -121 -179 -163 -49 -42 -108 -91 -131 -107 -24
-17 -45 -31 -47 -31 -3 0 -34 -18 -69 -40 -36 -23 -81 -44 -101 -47 -27 -4
-37 -2 -42 11 -4 10 6 32 27 59 18 23 71 72 117 107 47 36 97 71 111 79 14 8
44 29 66 47 22 17 78 56 125 84 47 29 112 65 145 80 34 15 62 23 64 17 2 -6
-37 -49 -86 -96z"/>
<path d="M1415 850 c-11 -4 -54 -43 -95 -85 -41 -42 -94 -90 -117 -106 -23
-16 -82 -49 -132 -74 -50 -25 -102 -45 -116 -45 -14 0 -33 9 -42 20 -10 11
-25 20 -35 20 -9 0 -19 -4 -23 -10 -3 -5 -33 -24 -67 -42 -33 -18 -93 -62
-132 -99 -40 -37 -80 -83 -91 -102 -18 -33 -18 -36 -2 -61 13 -19 26 -26 50
-26 17 1 46 9 64 18 17 9 74 55 127 102 53 46 96 88 96 92 0 3 28 21 63 39 34
17 74 35 90 40 15 4 27 4 27 -1 0 -5 -56 -66 -125 -136 -73 -73 -125 -134
-125 -145 0 -11 7 -19 16 -19 9 0 46 28 82 61 43 40 93 74 141 95 40 19 80 34
87 34 8 0 14 -6 14 -12 0 -7 -23 -32 -50 -56 -28 -24 -50 -52 -50 -62 0 -12 9
-22 24 -26 14 -3 42 0 63 6 21 7 64 28 96 46 32 19 62 34 67 34 5 0 10 -17 12
-37 2 -27 8 -39 21 -41 9 -2 37 6 61 18 25 11 65 37 90 56 24 18 48 34 51 34
3 0 5 -17 3 -37 -3 -31 1 -39 22 -50 15 -8 40 -11 64 -8 21 3 58 17 82 31 24
14 44 30 44 36 0 6 -10 8 -22 5 -13 -3 -41 -11 -64 -18 -23 -7 -48 -9 -57 -6
-15 5 -14 12 9 57 20 41 23 54 14 66 -7 7 -18 14 -25 14 -8 0 -34 -16 -59 -35
-25 -19 -67 -51 -92 -70 -25 -19 -52 -35 -60 -35 -8 0 -14 5 -14 10 0 6 10 25
23 43 12 17 30 40 40 51 9 11 17 26 17 33 0 7 -6 13 -14 13 -8 0 -36 -19 -63
-42 -26 -23 -85 -59 -130 -80 -46 -21 -87 -38 -93 -38 -5 0 -10 4 -10 8 0 4
25 32 55 62 30 30 55 63 55 73 0 17 -6 19 -47 15 -27 -3 -74 -18 -106 -33 -32
-15 -60 -25 -64 -22 -3 4 26 41 65 84 39 43 129 136 201 207 72 71 131 133
131 138 0 4 -6 8 -12 7 -7 0 -22 -4 -33 -9z m-580 -389 c3 -5 -24 -38 -59 -73
-36 -35 -81 -73 -100 -83 -27 -15 -38 -17 -47 -8 -9 9 6 31 68 93 59 58 87 80
106 80 14 0 28 -4 32 -9z"/>
<path d="M5575 572 c-9 -9 -44 -53 -78 -97 -35 -44 -71 -91 -80 -105 -9 -13
-17 -30 -17 -37 0 -6 7 -19 16 -27 8 -9 28 -16 44 -16 15 0 52 11 82 25 l53
25 12 -30 c7 -16 22 -34 34 -41 12 -6 34 -9 49 -6 15 3 51 18 81 32 30 14 65
34 79 45 14 10 22 21 19 25 -4 3 -37 -10 -75 -29 -38 -18 -84 -36 -102 -40
-24 -4 -34 -2 -39 9 -3 9 7 32 22 53 14 20 55 71 91 112 35 41 64 81 64 88 0
6 -6 12 -14 12 -8 0 -39 -27 -68 -61 -29 -33 -78 -78 -108 -99 -30 -20 -78
-49 -107 -64 -29 -14 -61 -26 -73 -26 -11 0 -20 5 -20 11 0 6 33 52 74 103 40
50 81 98 90 105 9 7 16 19 16 26 0 7 -7 15 -15 19 -9 3 -22 -2 -30 -12z"/>
<path d="M8028 500 c-20 -11 -40 -24 -43 -30 -3 -6 0 -13 8 -16 8 -3 30 4 48
15 19 12 44 21 57 21 16 0 22 -6 22 -21 0 -13 -33 -54 -90 -110 -49 -49 -90
-96 -90 -104 0 -8 7 -15 16 -15 8 0 39 22 68 50 29 27 77 61 107 74 30 14 76
30 102 37 34 8 51 9 59 1 8 -8 5 -18 -8 -35 -11 -13 -38 -48 -61 -76 -24 -29
-43 -59 -43 -67 0 -8 15 -21 34 -29 18 -8 62 -17 97 -20 35 -3 102 -7 149 -10
47 -2 102 -9 124 -16 21 -6 49 -21 62 -34 13 -13 24 -33 24 -45 0 -11 6 -20
14 -20 7 0 19 7 26 15 10 12 8 21 -10 50 -12 20 -41 45 -64 57 -34 17 -69 23
-201 30 -88 5 -170 13 -182 18 -13 5 -23 15 -23 23 0 7 22 35 49 61 28 27 55
62 62 78 9 22 9 31 -1 43 -7 9 -29 15 -52 15 -22 0 -62 -7 -89 -16 -27 -9 -52
-14 -55 -11 -3 3 2 19 10 36 14 25 14 34 4 51 -10 15 -23 20 -53 20 -22 -1
-57 -10 -77 -20z"/>
<path d="M7672 452 c-15 -15 -48 -45 -75 -66 -26 -21 -54 -50 -62 -66 -8 -16
-12 -36 -9 -44 4 -9 18 -16 34 -16 16 0 50 11 77 25 26 13 74 48 106 78 31 29
57 61 57 70 0 10 -8 17 -20 17 -11 0 -26 -12 -34 -28 -8 -15 -35 -47 -60 -70
-25 -23 -57 -48 -71 -54 -17 -7 -29 -8 -35 -2 -7 7 16 35 65 83 41 39 75 78
75 86 0 8 -5 15 -11 15 -5 0 -22 -13 -37 -28z"/>
<path d="M3196 368 c-9 -12 -16 -33 -16 -45 0 -17 6 -23 21 -23 11 0 29 5 39
10 11 6 24 20 30 31 9 15 8 24 -1 35 -6 8 -22 14 -35 14 -12 0 -30 -10 -38
-22z"/>
<path d="M2022 328 c-7 -7 -12 -20 -12 -30 0 -10 6 -18 13 -18 7 0 18 5 25 12
7 7 12 20 12 30 0 10 -6 18 -13 18 -7 0 -18 -5 -25 -12z"/>
</g>
</svg>
