<?xml version="1.0" encoding="UTF-8" standalone="no"?>
<!-- Created with Inkscape (http://www.inkscape.org/) -->

<svg
   xmlns:dc="http://purl.org/dc/elements/1.1/"
   xmlns:cc="http://creativecommons.org/ns#"
   xmlns:rdf="http://www.w3.org/1999/02/22-rdf-syntax-ns#"
   xmlns:svg="http://www.w3.org/2000/svg"
   xmlns="http://www.w3.org/2000/svg"
   xmlns:sodipodi="http://sodipodi.sourceforge.net/DTD/sodipodi-0.dtd"
   xmlns:inkscape="http://www.inkscape.org/namespaces/inkscape"
   width="427.31342"
   height="100"
   id="svg3904"
   version="1.1"
   inkscape:version="0.48.2 r9819"
   sodipodi:docname="Augusto C. Sandino Signature.svg">
  <defs
     id="defs3906" />
  <sodipodi:namedview
     id="base"
     pagecolor="#ffffff"
     bordercolor="#666666"
     borderopacity="1.0"
     inkscape:pageopacity="0.0"
     inkscape:pageshadow="2"
     inkscape:zoom="2"
     inkscape:cx="385.11683"
     inkscape:cy="47.026182"
     inkscape:document-units="px"
     inkscape:current-layer="layer1"
     showgrid="false"
     fit-margin-top="0"
     fit-margin-left="0"
     fit-margin-right="0"
     fit-margin-bottom="0"
     inkscape:window-width="1920"
     inkscape:window-height="1018"
     inkscape:window-x="-8"
     inkscape:window-y="-8"
     inkscape:window-maximized="1" />
  <metadata
     id="metadata3909">
    <rdf:RDF>
      <cc:Work
         rdf:about="">
        <dc:format>image/svg+xml</dc:format>
        <dc:type
           rdf:resource="http://purl.org/dc/dcmitype/StillImage" />
        <dc:title />
      </cc:Work>
    </rdf:RDF>
  </metadata>
  <g
     inkscape:label="Capa 1"
     inkscape:groupmode="layer"
     id="layer1"
     transform="translate(397.79856,-607.36219)">
    <path
       style="fill:#000000"
       d="m -327.52352,607.36397 c -1.76899,-0.0425 -3.74988,0.67697 -5.94375,2.04818 -9.99515,6.24719 -17.01533,10.84449 -22.00794,16.43902 -4.73707,5.30819 -7.33184,11.16592 -8.91562,20.09363 -9.17616,3.38227 -16.36758,7.35567 -21.47247,11.01735 -6.02881,4.3244 -9.54488,8.84912 -11.05751,13.40021 -1.51264,4.5511 -0.96317,9.05296 0.82998,13.11909 3.58629,8.13226 11.88948,14.73545 19.26364,18.92897 3.68708,2.09675 7.10309,3.69851 9.78577,4.28377 1.45137,0.31665 4.72486,0.96908 5.23424,0.50871 0.50431,-0.45577 0.60036,-1.99811 0.54886,-2.62382 -1.33707,-16.24763 -3.06324,-39.94616 -0.62918,-55.94353 9.33664,-3.32399 21.02721,-6.78923 35.51524,-9.70545 -2.5298,12.81175 -5.83311,21.2057 -6.22487,25.18062 -0.0987,1.00165 2.23325,1.64491 2.89155,0.88352 4.05422,-4.68906 3.79802,-13.19341 6.37213,-26.65316 2.79149,-0.54013 8.05941,-1.66098 11.86073,-2.38285 l 0.95046,2.98526 c 1.11598,3.4707 3.66466,7.18121 6.53278,9.53142 7.27431,5.96075 25.65021,9.40152 42.28897,7.92499 4.84736,-0.43015 16.63243,-1.989 19.10299,-2.5301 0.96306,-0.21094 2.60161,-0.4986 3.64122,-0.62919 6.2289,-0.78238 20.25025,-5.1206 28.54071,-8.8353 2.2795,-1.02138 3.21622,-1.01044 6.05084,0.0669 8.44501,3.20976 11.81383,7.03662 8.74159,9.93302 -3.24469,3.05897 -8.08051,4.61256 -14.41761,4.63184 -5.57389,0.0169 -12.81147,0.6168 -15.19404,1.25836 -1.76837,0.47617 -3.87121,1.90989 -3.44041,2.34269 0.5302,0.53267 17.07993,0.24759 25.78302,-0.44176 7.58585,-0.60086 10.02852,-0.64069 14.7255,-0.22758 6.567,0.57759 13.51319,1.80233 16.8674,2.97188 3.26134,1.13717 6.92715,3.03228 6.66664,3.4538 -0.11865,0.19198 -1.63067,0.47604 -3.34671,0.62918 -1.71603,0.15314 -4.85406,0.46955 -6.97453,0.69611 -2.12047,0.22656 -5.10841,0.52916 -6.63986,0.66935 -1.53146,0.14017 -4.32663,0.42443 -6.21149,0.64256 -1.88487,0.21814 -6.89689,0.69535 -11.13784,1.05756 -33.67471,2.8761 -57.00174,6.18801 -79.0358,11.21816 -3.65192,0.8337 -6.83263,1.56645 -7.06824,1.61981 -0.23561,0.0534 -1.19946,0.24518 -2.14189,0.42837 -5.44713,1.05884 -11.86385,2.84877 -14.44438,4.02944 -2.30316,1.05375 -2.90494,1.90504 -2.90494,4.13653 0,2.84447 2.97183,4.56349 9.63851,5.5823 3.34736,0.51155 25.84783,0.4875 35.12702,-0.0402 5.18338,-0.29477 11.93034,-0.66335 14.99324,-0.8166 7.06269,-0.35338 8.22455,-0.42587 21.8473,-1.52609 14.53482,-1.17389 34.86417,-4.34689 41.76688,-6.506 14.33242,-4.48307 19.49784,-7.42997 22.02133,-12.58361 1.20069,-2.45214 1.30905,-4.10317 0.46853,-6.84067 -0.24594,-0.80102 0.3891,-0.85527 4.032,-1.20354 5.28182,-0.50495 49.86212,-3.17518 85.231092,-3.35879 34.975598,-0.18157 50.975654,1.18602 66.3467105,2.73925 9.6847594,0.97864 17.7252445,3.17086 24.0161585,4.16782 3.736514,0.59214 4.865428,0.35204 3.895543,-0.8166 -0.826886,-0.99636 -5.642657,-2.41336 -16.4402851,-4.18564 -21.8142729,-3.58051 -43.5145289,-3.42697 -66.2692129,-4.08947 -19.630427,-0.57154 -95.871376,3.37684 -99.741056,3.93574 -2.6919,0.38879 -2.84747,0.3524 -4.59168,-0.87015 -4.81807,-3.3771 -14.76305,-6.44948 -23.62774,-7.29582 -2.97116,-0.28366 -5.48168,-0.57724 -5.58231,-0.65595 -0.10062,-0.0787 0.29036,-0.66645 0.88353,-1.31191 0.59318,-0.64546 1.34042,-1.80731 1.64658,-2.58366 0.53893,-1.36656 1.94234,-2.27013 4.5783,-2.93171 0.79334,-0.19911 0.99062,-0.0793 0.99062,0.62918 0,1.31327 0.80632,2.82741 1.86077,3.50735 1.66506,1.07367 7.52485,0.60571 14.24358,-1.13788 8.66671,-2.24912 8.57443,-2.24873 9.30384,-0.52209 0.76056,1.80038 2.56492,3.59937 4.79248,4.79249 1.41727,0.7591 2.35288,0.9189 5.35473,0.85675 3.91172,-0.081 6.3385,-0.74463 14.56487,-3.9625 5.41723,-2.11903 7.04504,-2.59505 7.6171,-2.2356 0.23821,0.14969 0.73969,0.99554 1.1111,1.88755 0.7229,1.73616 2.63289,2.87816 4.83265,2.87816 2.14261,0 6.41458,-1.30806 12.19538,-3.73492 4.52783,-1.90084 6.15697,-2.38616 7.764373,-2.32931 5.174171,0.18298 6.192314,0.1579 7.322599,-0.14725 0.7602,-0.20524 1.581458,-0.11535 2.2222,0.22757 0.659657,0.35303 1.7178,0.44513 3.012029,0.26774 1.893971,-0.25959 2.0836,-0.1937 3.413657,1.25836 1.836742,2.00527 3.778771,2.29793 7.269028,1.08433 2.566342,-0.89234 4.497971,-2.51219 4.497971,-3.7617 0,-1.30933 -1.415371,-3.61917 -2.597029,-4.23023 -1.836999,-0.94996 -5.198056,-0.77783 -8.032113,0.41499 -1.762743,0.74194 -2.972829,0.98412 -4.176686,0.82999 -0.976228,-0.12501 -3.273142,0.15597 -5.448428,0.66934 -4.710457,1.11166 -5.395428,1.11073 -7.764342,-0.0402 l -1.914339,-0.93708 -4.20346,1.96786 c -7.58554,3.56039 -11.97844,5.10067 -13.52068,4.72555 -1.42276,-0.34606 -2.46318,-1.41414 -2.46318,-2.51672 0,-0.53568 -0.29909,-1.27634 -0.66934,-1.64658 -1.37337,-1.37337 -4.51414,-0.63514 -12.78441,2.97187 -5.1296,2.23724 -10.2533,3.64122 -13.23957,3.64122 -1.77544,0 -4.04403,-1.46151 -5.11377,-3.29316 -0.46329,-0.79327 -0.89515,-2.62675 -1.04417,-4.40426 -0.28972,-3.45579 -1.03189,-4.72058 -3.49396,-5.97053 -4.26407,-2.16479 -15.52029,-3.17405 -18.32656,-1.64658 -0.74077,0.40321 -2.33612,1.82856 -3.53412,3.17268 -1.64899,1.85013 -2.85973,2.73872 -5.00668,3.6546 -1.55976,0.6654 -3.06212,1.19244 -3.33331,1.17804 -0.2712,-0.0144 -1.07758,-0.83447 -1.79384,-1.82061 -1.57725,-2.17154 -5.69705,-4.66545 -9.83931,-5.95713 -1.64926,-0.51429 -3.13453,-1.04054 -3.30655,-1.17804 -0.17202,-0.13751 0.88822,-0.91215 2.35608,-1.71352 5.47909,-2.99123 11.44574,-8.02028 11.44574,-9.6519 0,-0.52793 -0.24097,-1.16202 -0.53548,-1.40561 -2.22777,-1.8426 -15.72046,-1.61419 -33.30641,0.56224 -2.7095,0.33533 -6.85406,0.81844 -9.21014,1.08433 -6.93191,0.78231 -13.95621,2.09864 -15.93031,2.97188 -1.46731,0.64906 -1.84739,1.03458 -1.84739,1.90093 0,2.15366 2.65034,2.81594 14.56487,3.6546 3.41631,0.24048 7.07895,0.53132 8.13919,0.65596 4.07342,0.47885 15.2229,2.50355 15.58226,2.82462 0.47087,0.4207 -4.32254,2.60738 -8.78176,4.01604 -6.69135,2.1138 -18.18223,4.69429 -27.57685,6.18472 -4.95542,0.78616 -17.12093,1.22091 -24.41757,0.87014 -19.30329,-0.92797 -29.76184,-5.10795 -32.74417,-13.07893 -0.86868,-2.32176 -1.18267,-5.27805 -0.56224,-5.34134 0.1767,-0.018 0.61044,-0.10166 0.96385,-0.17403 4.71388,-0.96528 8.67909,-1.55651 11.83395,-1.78045 3.34755,-0.23761 3.93974,-0.17002 4.60507,0.49531 0.48403,0.48406 0.67236,1.08998 0.50869,1.65997 -0.14213,0.495 -0.37706,1.82235 -0.52208,2.94511 -0.3338,2.58438 0.42226,3.50934 3.3467,4.13652 8.7001,1.86584 18.3005,0.28643 20.96377,-3.4538 3.497,-4.91108 -3.83807,-15.62209 -13.36005,-19.49121 -3.95971,-1.60898 -8.06795,-2.3638 -11.99459,-2.31592 -6.5444,0.0798 -12.59502,2.40094 -16.67998,6.72018 -2.1309,2.2531 -4.69878,6.98795 -4.69878,8.67466 0,0.3464 -0.1669,0.78483 -0.49531,1.12449 -3.7396,0.6334 -8.51765,1.44495 -10.84333,1.88755 0.15735,-0.9089 0.36864,-1.80253 0.5087,-2.70414 1.19069,-7.6652 1.77818,-14.87243 0.48192,-19.77234 -0.64813,-2.44996 -1.90627,-4.5383 -4.08298,-5.30118 -0.54417,-0.19072 -1.11046,-0.28036 -1.70012,-0.29451 z m -0.1071,3.01203 c 0.31658,10e-4 0.59275,0.0554 0.8166,0.13387 0.89538,0.31381 1.63715,1.25432 2.15528,3.21284 1.03624,3.91705 0.63075,11.03307 -0.53548,18.54075 -0.19366,1.24675 -0.48257,2.50052 -0.7095,3.7617 -14.23943,2.81657 -25.70442,5.62421 -35.16718,8.87546 1.53905,-7.56618 3.99252,-11.91081 8.04548,-16.4524 4.59685,-5.15107 11.1834,-10.24911 21.15118,-16.47918 1.90631,-1.19149 3.29389,-1.59724 4.24362,-1.59304 z m 38.31309,9.02272 c 3.62338,-0.0262 7.40535,0.81178 10.95042,2.59705 5.78173,2.91163 11.09768,9.35426 11.09768,13.45375 0,2.40853 -2.03797,4.14071 -5.80988,4.93975 -5.28844,1.12029 -11.24666,0.56502 -12.32926,-1.15127 -0.32805,-0.52007 -0.30474,-1.4402 0.0669,-3.23961 0.28535,-1.38154 0.5087,-2.94543 0.5087,-3.46719 0,-2.05361 -3.81138,-2.26006 -14.19003,-0.77644 -3.68259,0.52642 -6.91149,0.89116 -7.17534,0.80321 -0.79467,-0.26489 -0.55455,-1.52648 0.82998,-4.29717 2.81496,-5.63323 9.13345,-8.81211 16.0508,-8.86208 z m 92.19505,10.05351 c 2.31242,0.019 3.23813,0.2655 3.41364,0.72288 0.1828,0.47638 -0.13971,1.05128 -0.97724,1.74029 -2.41736,1.9887 -8.34186,6.12717 -10.60236,7.40292 -2.02698,1.14395 -4.48784,1.6701 -5.07361,1.08433 -0.6295,-0.6295 -26.51342,-4.07955 -30.64244,-4.08298 -0.75039,-2.8e-4 -1.87337,-0.18887 -2.50333,-0.42838 -1.63174,-0.62039 -0.72887,-1.54548 2.08834,-2.12851 3.09704,-0.64094 19.84993,-2.64513 27.05477,-3.23961 8.98876,-0.74168 14.26911,-1.09536 17.24223,-1.07094 z m 119.544329,0.0669 c -1.582972,0.0119 -2.918343,1.51177 -2.918343,3.36009 0,1.72901 2.186857,6.60163 4.257028,9.49126 2.155372,3.00854 6.050228,6.74564 8.674657,8.34 4.854371,2.94906 9.747285,3.69743 16.412256,2.48994 5.627085,-1.01945 11.419428,-0.96627 16.06417,0.16065 2.3644,0.57365 4.992857,0.88509 7.496628,0.87014 3.301457,-0.0197 4.378572,0.17084 7.496629,1.3253 3.574371,1.32341 3.739514,1.3446 8.995942,1.08433 2.9450854,-0.14583 5.933028,-0.33537 6.6398566,-0.41499 2.4621712,-0.27738 15.4708444,-1.02112 22.4898444,-1.28514 9.078514,-0.34149 10.306085,-0.55462 11.084285,-1.94109 0.5278,-0.94031 0.534457,-1.26896 0.01343,-2.35608 -0.8616,-1.7977 -3.047799,-2.38731 -9.611742,-2.59704 -6.032199,-0.19274 -8.494799,0.25786 -8.246285,1.49932 0.122629,0.61259 0.840114,0.68446 5.7028,0.57564 5.565885,-0.12457 6.956571,0.14583 6.519371,1.28513 -0.311772,0.81245 -9.203743,1.69003 -13.8285709,1.36546 -2.3475998,-0.16476 -4.8157711,0.0111 -7.9116281,0.54886 -3.660474,0.63578 -5.8937596,0.73688 -11.994588,0.54886 -7.023028,-0.21646 -7.731885,-0.31346 -11.365399,-1.59304 -3.290371,-1.15872 -4.427228,-1.36449 -7.496628,-1.31191 -2.772029,0.0475 -4.329028,-0.17089 -6.626485,-0.93707 -3.390343,-1.13065 -9.115286,-1.30114 -13.989228,-0.41499 -1.492543,0.27136 -4.467457,0.48096 -6.613085,0.46854 -5.507314,-0.0319 -7.917486,-1.00181 -11.1646,-4.48459 -2.824142,-3.0291 -4.262628,-5.48429 -6.800514,-11.63315 -1.586199,-3.84308 -1.895285,-4.29219 -2.958485,-4.41766 -0.107429,-0.0127 -0.215743,-0.0275 -0.321286,-0.0268 z m 30.910169,2.51672 c -1.542714,0 -3.119343,3.49182 -2.409628,5.34135 0.464057,1.20927 2.367228,0.78238 3.293171,-0.73628 1.391857,-2.28282 0.944914,-4.60507 -0.883543,-4.60507 z m -123.172148,12.67733 c 0.4963,-0.0107 1.05656,-0.005 1.67335,0 4.64985,0.04 8.67113,0.70429 9.95979,1.64658 2.00097,1.46314 -1.46284,3.95215 -8.39353,6.03745 -9.31715,2.80334 -13.65082,0.97883 -9.74561,-4.10975 2.22048,-2.89334 3.03188,-3.49904 6.506,-3.57428 z m -195.22004,5.0736 c -2.16951,16.30271 0.66346,39.33669 1.95447,55.07341 -3.75216,0.846 -8.91766,-1.99937 -12.23556,-3.86881 -7.01935,-3.99175 -14.86907,-11.64689 -17.99188,-18.72816 -1.56141,-3.54064 -1.99609,-7.1734 -0.73628,-10.96381 1.25981,-3.79042 4.27186,-7.81721 9.94641,-11.8875 4.52858,-3.24831 10.83495,-6.48912 19.06284,-9.62513 z m 286.665419,0.3079 c 0.501171,-0.009 0.951457,0.028 1.285142,0.13387 1.350858,0.42875 1.1024,1.82369 -0.495314,2.79784 -1.849685,1.12777 -3.929085,1.10437 -5.100371,-0.0669 l -0.923714,-0.92369 0.937086,-0.76305 c 0.808742,-0.65488 2.793685,-1.15004 4.297171,-1.17804 z m -85.327609,20.33459 c 0.96685,-0.0325 1.50213,0.0612 1.76706,0.28112 1.94224,1.61191 1.37603,5.62655 -1.20481,8.54079 -4.9756,5.61836 -18.48192,9.99764 -41.3519,13.40021 -4.00533,0.59591 -7.86692,1.16472 -8.58095,1.27175 -3.05261,0.45757 -14.52515,1.47676 -19.26364,1.71351 -2.8273,0.14127 -6.39354,0.3414 -7.925,0.44177 -1.53145,0.10037 -5.19408,0.29064 -8.13919,0.42837 -2.9451,0.13774 -6.60773,0.33943 -8.13918,0.44177 -1.53145,0.10234 -5.29047,0.29256 -8.35338,0.41499 -19.34506,0.77327 -32.56696,0.21468 -35.76959,-1.49932 -1.9088,-1.02156 -2.25832,-3.47945 -0.64257,-4.53813 1.15899,-0.7594 6.44843,-2.38961 10.92365,-3.37348 1.53145,-0.33669 4.90493,-1.1147 7.49662,-1.7269 5.71259,-1.34943 19.78081,-4.20356 24.20338,-4.91297 1.76706,-0.28345 4.65861,-0.77883 6.42567,-1.09772 3.98004,-0.71825 8.5829,-1.41187 13.06554,-1.95447 1.88486,-0.22816 4.96919,-0.6002 6.85405,-0.82999 5.5519,-0.67681 14.62775,-1.65256 19.91959,-2.14189 7.72808,-0.7146 17.55083,-1.64187 20.13379,-1.90093 9.26934,-0.92966 19.76875,-2.0041 21.20472,-2.16866 0.94243,-0.10801 3.26042,-0.36823 5.14054,-0.58902 0.92303,-0.1084 1.6555,-0.1813 2.2356,-0.2008 z"
       id="path3828"
       inkscape:connector-curvature="0"
       sodipodi:nodetypes="ssscsssscssccsscccssssssssssssssssssssssssssssssssssssssssscsssssssssssssssscsssssssscccssssssssssscsscssssssssssssssssscssssssssccssssccssccsscsssssssssssssssscsssscsssssssssscssssssssssssssscccssssccsssccccssscccssccccsssssssssssssssssssssc" />
    <path
       style="fill:#000000;fill-opacity:1;stroke:none"
       d="m -312.40725,660.53847 c -0.22798,1.20193 -0.28572,1.14542 -1.36786,1.71812 -1.05832,0.56009 -1.75957,-0.0631 -2.27977,-1.14542 -0.79792,-1.66009 0.74167,-2.74898 1.9378,-2.74898 1.19613,0 1.93378,0.99561 1.70983,2.17628 z"
       id="path2983"
       inkscape:connector-curvature="0"
       sodipodi:nodetypes="sssss" />
    <path
       sodipodi:nodetypes="sssss"
       inkscape:connector-curvature="0"
       id="path2986"
       d="m -240.67242,668.47595 c 0.0991,1.32527 -0.57703,1.68603 -1.4929,1.86613 -1.28093,0.25189 -1.7842,-0.0145 -2.223,-1.24409 -0.51731,-1.44955 1.09493,-2.6234 2.02655,-2.36708 1.28004,0.35218 1.58022,0.28588 1.68935,1.74504 z"
       style="fill:#000000;fill-opacity:1;stroke:none" />
  </g>
</svg>
