<?xml version="1.0" encoding="UTF-8" standalone="no"?>
<!-- Created with Inkscape (http://www.inkscape.org/) -->

<svg
   xmlns:dc="http://purl.org/dc/elements/1.1/"
   xmlns:cc="http://creativecommons.org/ns#"
   xmlns:rdf="http://www.w3.org/1999/02/22-rdf-syntax-ns#"
   xmlns:svg="http://www.w3.org/2000/svg"
   xmlns="http://www.w3.org/2000/svg"
   version="1.1"
   width="1920"
   height="588"
   id="svg2">
  <defs
     id="defs4" />
  <metadata
     id="metadata7">
    <rdf:RDF>
      <cc:Work
         rdf:about="">
        <dc:format>image/svg+xml</dc:format>
        <dc:type
           rdf:resource="http://purl.org/dc/dcmitype/StillImage" />
        <dc:title></dc:title>
      </cc:Work>
    </rdf:RDF>
  </metadata>
  <g
     transform="translate(0,-464.36218)"
     id="layer1">
    <path
       d="m 628.10882,1049.6018 c -15.43983,-2.4337 -43.79517,-4.6331 -63.01186,-4.8874 -61.05173,-0.808 -90.62366,-18.4512 -82.56675,-49.26084 7.19908,-27.52925 81.48396,-32.85359 239.90639,-17.19523 153.81126,15.20265 223.82643,17.40434 223.82643,7.03845 0,-4.9115 -2.921,-10.73522 -6.49111,-12.94165 -3.57011,-2.20649 -13.70674,-15.44214 -22.52607,-29.41267 -16.55562,-26.22582 -17.17468,-38.40126 -5.70493,-112.20511 3.41831,-21.99612 2.35259,-23.86462 -19.82212,-34.75235 -12.88914,-6.32847 -35.65027,-15.35999 -50.58031,-20.06998 -39.5153,-12.46591 -63.31006,-36.92565 -63.31006,-65.07937 l 0,-22.73311 -23.39369,4.95178 c -36.52098,7.7304 -73.25137,3.72166 -102.46735,-11.18318 -20.44826,-10.43196 -38.62279,-13.82872 -76.78969,-14.35193 -49.37765,-0.67685 -50.02518,-0.89364 -51.931,-17.38425 -4.05115,-35.05379 -31.19495,-36.27357 -53.39026,-2.39926 -12.57232,19.18775 -43.30677,35.95441 -56.57442,30.86313 -12.18612,-4.67623 -12.41488,-32.67698 -0.39676,-48.55438 11.2107,-14.8105 6.8309,-22.47466 -12.84338,-22.47466 -19.79979,0 -19.35725,-11.65011 1.11073,-29.23768 21.07178,-18.10646 16.18799,-30.3957 -17.76542,-44.70352 -63.53751,-26.77442 -105.87496,-34.46047 -191.96075,-34.84912 -77.76824,-0.35122 -86.60581,0.81404 -115.408867,15.21557 -50.577717,25.28883 -45.080329,34.86913 20.062242,34.96258 45.545575,0.0655 60.706315,2.79028 89.793715,16.1389 75.32269,34.56665 91.79814,100.82887 29.2574,117.66933 -39.84532,10.72921 -114.92416,1.95964 -154.63554,-18.06231 -25.871856,-13.04419 -36.195963,-22.92007 -48.361301,-46.26148 -17.4141366,-33.41231 -16.2548064,-56.3093 4.580608,-90.46783 17.905156,-29.35458 44.357742,-42.84769 106.327063,-54.23611 49.90728,-9.1717 60.45104,-9.20046 120.20576,-0.32752 67.44806,10.01507 139.47386,31.27281 172.93956,51.04148 19.61514,11.58699 28.94155,32.06264 22.38576,49.14684 -2.26425,5.90057 2.52796,15.52635 12.18593,24.47703 13.95462,12.93272 20.10441,14.31993 49.86599,11.24825 33.32154,-3.43907 34.06875,-3.15815 40.47383,15.21562 6.34212,18.19287 7.89215,18.81296 55.11883,22.04996 34.73127,2.38055 58.80263,8.16047 84.38222,20.26156 31.83058,15.05829 40.19479,16.45911 75.62313,12.66503 42.95312,-4.59989 68.34575,-19.1381 78.0618,-44.69318 3.38317,-8.89846 10.69586,-14.77657 18.38283,-14.77657 15.95824,0 32.97452,-31.64387 19.44203,-36.15473 -17.68501,-5.89497 -32.63987,-27.10324 -30.71635,-43.56024 3.05128,-26.10468 36.65723,-45.05138 79.90814,-45.05138 68.03003,0 95.92128,23.49189 73.27815,61.71966 -9.92912,16.76299 -71.54592,68.40889 -82.6273,69.2565 -3.43104,0.26263 -14.52446,7.24948 -24.65193,15.52673 l -18.41374,15.0495 16.79402,15.56417 c 27.3511,25.34814 11.09133,43.04544 -38.91503,42.3553 -12.50445,-0.1728 -26.14273,1.79208 -30.30723,4.36588 -11.73472,7.25248 16.43459,30.22621 55.54691,45.30172 49.67059,19.14516 67.09616,21.24952 71.91752,8.68524 2.22296,-5.79303 10.46202,-12.97376 18.30884,-15.95717 7.98111,-3.03439 15.1648,-11.75661 16.30464,-19.79662 1.31073,-9.24606 6.93867,-15.06959 15.77878,-16.32718 7.55765,-1.07511 15.32085,-6.93182 17.25155,-13.01487 3.9756,-12.5261 51.6049,-35.89302 84.4337,-41.42323 17.7069,-2.98285 27.1734,-0.0742 49.9065,15.33284 25.9461,17.58489 30.9066,18.7308 65.9981,15.24651 36.0303,-3.57748 38.6251,-2.90075 51.4661,13.42393 16.424,20.87983 16.525,22.89562 2.0416,40.78187 -10.5369,13.01244 -16.7919,14.22667 -76.0511,14.7626 -52.2155,0.47225 -67.0276,-1.44779 -77.4149,-10.03527 -12.4552,-10.29709 -12.5137,-11.21256 -1.9278,-30.17287 6.0044,-10.75448 10.9171,-23.53692 10.9171,-28.40549 0,-12.71687 -29.1135,-10.93626 -61.5049,3.76171 -14.9568,6.78679 -30.3966,12.36952 -34.3107,12.40607 -6.5554,0.0624 -27.62563,20.39132 -56.04062,54.07181 -11.71417,13.88493 -9.65784,39.43651 3.17378,39.43651 3.53907,0 15.2807,3.96415 26.09245,8.80919 10.81169,4.84506 29.81569,10.51744 42.23089,12.6054 12.4153,2.08791 30.6625,10.75293 40.5491,19.25562 9.8867,8.50265 20.9793,15.46286 24.6501,15.46704 11.1675,0.0124 45.2637,33.76414 51.9951,51.46942 5.6204,14.78257 3.6926,19.48127 -17.1744,41.85899 -12.9279,13.86397 -26.8512,25.20722 -30.9406,25.20722 -4.0894,0 -7.4353,4.21087 -7.4353,9.35748 0,12.69732 89.9387,12.90412 130.1674,0.29944 15.9004,-4.98204 46.5913,-13.45343 68.2021,-18.82531 35.1388,-8.73464 78.1201,-25.03206 108.783,-41.24769 5.9578,-3.15091 15.0814,-5.72877 20.2746,-5.72877 5.1931,0 9.4421,-2.12196 9.4421,-4.71548 0,-2.59352 8.4241,-8.44431 18.7202,-13.00184 10.2961,-4.55753 28.3662,-17.17358 40.1557,-28.03568 52.7943,-48.6416 61.5957,-54.76475 66.8391,-46.50042 7.6497,12.05705 7.5851,12.15661 -27.5403,42.48288 -17.9698,15.51463 -60.7448,42.07577 -95.0556,59.02477 -34.3107,16.94894 -63.7867,32.62908 -65.5022,34.84468 -1.7156,2.21561 -18.5591,7.7344 -37.43,12.26391 -39.8139,9.55648 -58.0638,22.07163 -44.4546,30.48563 4.7141,2.9145 87.5277,5.1823 184.0304,5.0394 208.9598,-0.3094 435.4981,7.258 431.084,14.4002 -3.4368,5.5608 -668.3404,3.06 -714.1411,-2.6861 -15.4398,-1.937 -43.5123,-0.8733 -62.3832,2.3639 -37.3694,6.4103 -185.08905,20.5987 -215.22179,20.6719 -10.29321,0.025 -62.88488,-1.4206 -116.87035,-3.2125 -53.98539,-1.7918 -108.72662,-1.4273 -121.64718,0.8099 -12.92049,2.2373 -36.12441,2.0765 -51.56425,-0.3575 z m 336.86933,-24.0649 c 19.06369,-11.782 -4.85458,-17.4822 -89.88861,-21.4227 -47.72313,-2.2114 -88.42815,-4.99401 -90.45561,-6.18353 -2.02751,-1.18952 -58.42002,-4.14985 -125.3168,-6.57849 -66.89678,-2.4287 -123.32985,-5.46607 -125.40689,-6.74973 -2.07699,-1.28372 -9.10265,1.598 -15.61251,6.40369 -8.11618,5.99153 -9.82673,10.78096 -5.44275,15.23906 3.60881,3.6698 74.25119,10.2078 162.19624,15.0114 191.85926,10.4793 277.8427,11.7488 289.92693,4.2803 z m 126.44025,-64.11435 c 41.1384,-21.54278 49.7862,-38.61712 31.7018,-62.59215 -11.7095,-15.5235 -18.9712,-19.22002 -89.5208,-45.56929 -22.302,-8.32946 -49.99119,-19.57733 -61.53167,-24.99519 -17.58632,-8.25629 -22.24991,-8.4868 -28.81265,-1.42415 -15.68737,16.8827 -20.65834,45.45163 -14.31505,82.27025 5.08249,29.4995 9.74945,38.43176 26.92563,51.53267 41.019,31.28672 76.89964,31.49258 135.55274,0.77786 z m 53.8159,-236.54819 c -3.3123,-6.18922 -8.7309,-11.25318 -12.0413,-11.25318 -8.4966,0 -7.4916,20.9852 1.4324,29.90918 10.496,10.49609 18.5917,-3.74013 10.6089,-18.656 z m 99.2356,5.15273 c -2.0928,-14.5948 -16.668,-19.52869 -40.2247,-13.61632 -19.8912,4.9924 -17.2855,23.31789 4.0598,28.55209 24.2102,5.93676 38.3221,0.10855 36.1649,-14.93577 z M 865.67511,701.14454 c 3.1504,0 5.72808,-5.61448 5.72808,-12.47662 0,-9.70408 -4.1589,-12.47664 -18.71495,-12.47664 -13.98893,0 -18.71496,2.88809 -18.71496,11.43689 0,14.73298 6.46116,21.00404 17.33972,16.82955 4.74873,-1.82227 11.21163,-3.31318 14.36211,-3.31318 z M 209.8024,651.57719 c 7.04868,-7.04867 12.81582,-16.53734 12.81582,-21.08589 0,-16.90484 -42.97933,-43.65899 -92.05691,-57.30442 -19.63792,-5.46016 -82.68921,8.60001 -86.818172,19.35999 -4.941678,12.87781 13.642076,38.08542 36.971702,50.14964 27.07392,14.00047 42.14588,17.63204 82.3204,19.83492 27.51091,1.50849 36.38242,-0.56956 46.76716,-10.95424 z m 730.07477,-62.64343 c 15.73392,-8.42054 39.56794,-48.27684 35.38613,-59.17431 -5.60068,-14.59529 -50.11621,-23.51689 -78.80073,-15.79298 -38.44849,10.3531 -42.56572,25.61696 -15.10781,56.00954 22.95831,25.41216 37.59995,30.15516 58.52241,18.95775 z m 443.09943,274.53766 c -6.8038,-4.28616 -9.433,-18.05113 -9.7218,-50.89967 -0.403,-45.86111 -2.1872,-49.37778 -29.2992,-57.75559 -16.0263,-4.95235 -13.2982,-25.33568 4.6788,-34.95666 17.7146,-9.48055 19.9056,-17.45269 6.2383,-22.69731 -19.4923,-7.47992 -8.3366,-14.7168 16.5511,-10.73707 19.5689,3.1292 24.759,2.28272 21.2103,-3.45915 -8.5536,-13.83989 -4.8851,-50.99468 6.2498,-63.29859 15.6638,-17.30827 28.6576,-15.05105 52.0011,9.03328 22.2353,22.94097 17.5172,36.31093 -5.7059,16.16953 -35.1855,-30.5161 -45.2806,-1.56944 -40.8209,117.0491 3.4407,91.51487 -1.3319,114.18241 -21.3816,101.55213 z m 88.0848,-149.07045 c 1.2866,-3.85995 4.4448,-7.01811 7.0181,-7.01811 7.3056,0 5.4881,9.08767 -2.3394,11.69685 -3.8599,1.28666 -5.9654,-0.81878 -4.6787,-4.67874 z"
       id="path2996"
       style="fill:#111111" />
  </g>
</svg>
