<?xml version="1.0" standalone="no"?>
<!DOCTYPE svg PUBLIC "-//W3C//DTD SVG 20010904//EN"
 "http://www.w3.org/TR/2001/REC-SVG-20010904/DTD/svg10.dtd">
<svg version="1.0" xmlns="http://www.w3.org/2000/svg"
 width="960.000000pt" height="273.000000pt" viewBox="0 0 960.000000 273.000000"
 preserveAspectRatio="xMidYMid meet">
<metadata>
Created by potrace 1.13, written by Peter Selinger 2001-2015
</metadata>
<g transform="translate(0.000000,273.000000) scale(0.100000,-0.100000)"
fill="#000000" stroke="none">
<path d="M5312 2447 c-30 -11 -51 -31 -52 -49 0 -4 8 -4 18 -1 15 6 15 5 3
-10 -9 -11 -10 -17 -2 -17 6 0 11 -9 11 -19 0 -23 22 -40 28 -23 6 19 22 14
22 -7 0 -22 29 -36 44 -21 8 8 7 13 -4 20 -12 8 -13 13 -3 29 10 15 10 21 0
24 -7 3 -3 6 8 6 11 0 29 -6 39 -14 11 -8 29 -15 41 -15 12 0 25 -4 31 -10 5
-5 26 -10 47 -12 21 -1 40 -5 42 -8 2 -3 79 -6 172 -8 214 -4 396 -18 421 -31
11 -6 44 -14 74 -17 29 -3 56 -8 61 -11 4 -2 7 1 7 6 0 6 -4 11 -10 11 -5 0
-10 6 -10 14 0 15 -89 57 -170 80 -71 19 -120 25 -255 31 -151 6 -321 22 -342
33 -10 5 -23 7 -30 5 -6 -2 -28 3 -48 11 -44 19 -97 19 -143 3z"/>
<path d="M6533 2169 c-6 -6 -41 -14 -77 -16 -55 -5 -68 -10 -81 -30 -20 -31
-14 -39 34 -47 28 -4 42 -12 46 -27 8 -24 31 -20 28 6 0 9 7 25 18 36 10 10
19 15 19 10 0 -5 8 -12 19 -16 13 -4 17 -13 15 -32 -1 -15 2 -33 7 -39 12 -14
1 -46 -13 -38 -6 4 -8 -2 -3 -15 4 -12 8 -46 10 -76 2 -30 6 -58 9 -64 3 -5 4
-22 2 -39 -2 -22 0 -29 10 -25 22 8 16 -11 -10 -36 -14 -13 -29 -20 -35 -17
-6 4 -32 -3 -59 -16 -46 -22 -48 -25 -39 -52 9 -26 12 -28 56 -22 117 14 108
17 106 -34 -2 -53 13 -120 27 -120 5 0 7 -4 4 -8 -5 -9 17 -123 28 -140 16
-27 56 -11 111 43 46 44 59 65 72 112 8 32 16 70 17 84 2 14 6 31 10 37 8 14
114 16 134 3 10 -6 15 -40 18 -117 3 -79 1 -105 -7 -94 -9 12 -10 10 -5 -9 3
-14 -1 -30 -10 -39 -13 -13 -13 -17 6 -37 11 -12 18 -28 15 -36 -3 -8 7 -22
25 -34 20 -13 34 -34 41 -60 6 -22 13 -45 15 -52 5 -19 52 -46 68 -40 12 5 14
24 11 94 -2 53 1 93 7 101 8 9 5 19 -9 35 -12 12 -23 38 -26 57 -12 73 -20
100 -28 100 -5 0 -6 7 -3 15 3 8 2 20 -2 27 -17 26 -15 62 2 75 32 23 234 7
234 -19 0 -5 4 -7 10 -3 5 3 9 -5 8 -17 -2 -61 2 -80 17 -74 19 7 33 -23 17
-33 -12 -7 4 -70 21 -82 5 -4 8 -22 6 -40 -2 -19 1 -51 5 -71 7 -31 13 -38 32
-38 28 0 32 -15 8 -28 -18 -10 -11 -52 9 -52 8 0 7 -4 -2 -9 -12 -8 -12 -16 2
-53 9 -24 17 -56 17 -71 0 -21 5 -27 23 -28 15 -1 17 -3 6 -6 -18 -4 -32 -40
-19 -48 4 -2 8 -30 8 -61 0 -36 4 -60 13 -66 11 -7 11 -11 2 -15 -7 -2 -13
-13 -13 -23 0 -10 -4 -22 -10 -25 -13 -8 -13 -92 0 -100 17 -11 72 28 92 65
16 29 18 50 14 125 -3 50 -7 104 -10 120 -3 17 -7 53 -11 80 -3 28 -15 88 -26
135 -11 47 -22 96 -25 110 -4 14 -18 63 -32 110 -14 47 -27 87 -27 90 -1 3 -5
13 -9 23 -5 9 -6 26 -3 37 3 11 1 20 -4 20 -14 0 -11 30 4 32 6 1 71 3 142 3
239 2 609 15 670 25 33 6 112 13 175 17 107 6 114 5 101 -11 -12 -14 -11 -19
4 -36 10 -11 14 -20 9 -21 -5 -1 2 -4 16 -8 14 -4 30 -6 37 -4 17 6 26 55 12
63 -17 11 28 38 76 44 22 3 65 10 95 14 30 5 62 7 72 4 9 -2 32 1 51 7 19 7
87 13 151 15 119 4 146 12 146 45 0 22 -32 56 -73 78 -18 9 -26 18 -19 20 7 3
12 22 12 48 0 35 -4 44 -21 48 -12 3 -20 13 -19 24 6 49 2 53 -49 53 -66 0
-97 -13 -105 -44 -3 -14 -13 -26 -21 -26 -8 0 -15 -4 -15 -10 0 -5 4 -10 8
-10 5 0 19 -22 31 -50 12 -27 31 -52 42 -55 56 -18 -22 -39 -211 -55 -69 -6
-138 -13 -155 -15 l-30 -5 29 11 c21 9 25 14 15 20 -19 12 -66 11 -74 -1 -4
-6 -1 -17 5 -25 11 -13 0 -15 -79 -15 -50 0 -133 -7 -184 -15 -140 -22 -225
-26 -552 -27 -278 -2 -371 4 -361 20 2 4 -6 25 -18 48 -11 22 -34 67 -50 100
-16 32 -33 67 -37 76 -5 10 -9 24 -9 31 0 8 -9 22 -19 31 -11 10 -23 31 -26
47 -4 16 -29 54 -57 84 -43 48 -55 55 -87 55 -48 0 -133 -71 -133 -112 0 -18
-5 -25 -14 -21 -17 6 -18 -9 -3 -24 8 -8 8 -17 0 -31 -6 -11 -11 -37 -11 -56
0 -20 -5 -36 -11 -36 -6 0 -9 -7 -6 -15 4 -8 2 -17 -4 -21 -6 -3 -8 -13 -5
-21 3 -8 2 -12 -3 -9 -5 3 -19 -18 -31 -47 -12 -28 -28 -55 -34 -59 -16 -11
-184 17 -187 31 -1 3 -3 33 -4 67 -1 33 -4 64 -7 70 -3 5 -9 52 -13 104 -4 52
-11 102 -15 110 -4 8 -10 26 -11 40 -6 38 -53 62 -76 39z m563 -126 c-3 -4 -6
-1 -6 6 0 7 -5 9 -11 5 -8 -4 -7 -9 2 -15 21 -13 27 -11 31 9 3 12 7 8 18 -15
8 -18 22 -33 30 -34 10 0 11 -2 3 -6 -15 -5 -18 -33 -4 -33 5 0 13 -10 17 -22
4 -13 9 -25 13 -28 12 -10 31 -50 31 -65 0 -8 5 -15 10 -15 6 0 10 -7 10 -15
0 -8 6 -15 13 -15 8 0 8 -3 -2 -9 -13 -8 -11 -13 7 -28 11 -10 23 -31 24 -48
l3 -30 -80 3 c-49 2 -90 10 -106 19 -28 17 -56 81 -46 107 3 8 -3 26 -14 40
-16 20 -19 36 -15 72 3 25 7 49 10 51 3 3 1 13 -4 23 -7 12 -1 25 22 50 27 30
31 32 40 16 5 -10 7 -20 4 -23z"/>
<path d="M5729 2006 c-19 -13 -53 -31 -74 -40 -38 -16 -147 -111 -138 -120 2
-2 -5 -7 -16 -11 -12 -3 -21 -10 -21 -14 0 -14 -147 -151 -161 -151 -5 0 -9
-6 -9 -14 0 -7 -11 -21 -24 -29 -39 -26 -96 -91 -96 -110 0 -10 -4 -16 -9 -13
-11 7 -44 -25 -101 -99 -51 -66 -140 -155 -155 -155 -5 0 -37 -14 -70 -31 -85
-46 -142 -44 -225 6 -106 64 -180 151 -194 228 -4 21 -16 59 -28 85 -33 75
-59 185 -43 178 17 -6 25 15 18 44 -3 12 -1 25 5 29 12 7 17 43 14 102 -2 32
-5 36 -25 32 -14 -3 -29 2 -36 11 -17 20 -50 20 -76 1 -20 -16 -21 -23 -9
-165 3 -41 10 -80 15 -86 5 -6 4 -15 -3 -22 -8 -8 -8 -15 -1 -24 9 -11 20 -53
24 -93 1 -5 9 -21 18 -35 10 -14 23 -45 30 -70 18 -64 51 -134 67 -143 8 -4
14 -14 14 -22 0 -8 13 -21 30 -30 16 -8 29 -21 27 -27 -2 -13 130 -96 156 -97
10 -1 31 -8 46 -15 49 -26 127 -17 206 23 94 49 113 63 144 109 14 22 50 65
78 96 29 31 61 69 70 84 10 15 59 69 109 120 69 70 97 92 118 92 23 0 26 -4
26 -32 0 -18 4 -38 8 -43 10 -15 62 -36 62 -26 0 15 49 19 54 5 4 -9 -2 -14
-16 -14 -17 0 -19 -3 -10 -12 6 -6 33 -11 59 -9 40 2 52 8 88 44 23 23 63 61
87 84 25 23 53 57 62 75 21 44 43 71 53 67 4 -2 25 -15 45 -29 60 -40 68 -85
34 -183 -10 -26 -14 -57 -11 -67 4 -14 2 -20 -8 -20 -8 0 -22 -9 -32 -20 -16
-18 -16 -20 -1 -36 10 -9 14 -24 11 -35 -4 -11 -2 -19 4 -19 6 0 11 -11 11
-25 0 -14 4 -25 9 -25 5 0 8 -19 6 -42 -4 -73 23 -111 54 -74 11 13 37 180 42
266 1 25 7 51 12 57 5 7 7 21 4 32 -4 17 46 182 70 226 5 11 13 32 17 48 3 15
11 27 16 27 6 0 10 7 10 15 0 20 6 19 40 -5 33 -24 60 -63 66 -97 3 -15 9 -33
14 -42 4 -9 11 -73 14 -142 4 -69 10 -140 15 -157 5 -18 7 -32 3 -32 -4 0 0
-5 8 -10 13 -8 12 -10 -2 -10 -10 0 -18 -6 -19 -12 -5 -109 -9 -137 -17 -160
-9 -21 -8 -27 4 -32 8 -3 20 -3 27 0 16 6 68 151 68 190 -1 16 1 93 3 171 3
162 -8 233 -52 326 -38 78 -121 167 -157 167 -14 0 -25 -4 -25 -8 0 -5 -8 -17
-19 -28 -29 -32 -43 -63 -36 -84 4 -12 -1 -27 -14 -41 -10 -11 -22 -33 -26
-47 -12 -47 -24 -54 -49 -29 -35 33 -79 67 -89 67 -5 0 -6 7 -3 16 5 12 2 15
-10 10 -22 -8 -53 20 -47 43 2 10 -10 39 -27 64 -36 55 -58 59 -111 23z m28
-160 c27 -23 28 -31 8 -70 -8 -15 -15 -33 -15 -40 0 -6 -17 -27 -36 -46 -20
-19 -42 -47 -49 -61 -8 -14 -30 -38 -49 -53 l-36 -27 0 24 c0 13 -3 27 -7 31
-12 12 -9 126 3 126 6 0 15 16 21 35 9 29 9 35 -3 35 -12 0 -12 4 -2 20 7 11
18 20 25 20 7 0 13 4 13 9 0 5 17 9 37 8 21 -1 38 4 41 11 4 13 14 9 49 -22z"/>
<path d="M3629 1996 c-14 -7 -37 -16 -52 -20 -15 -3 -27 -10 -27 -15 0 -5 -13
-14 -29 -21 -16 -6 -32 -18 -35 -26 -3 -8 -14 -14 -24 -14 -24 0 -139 -109
-147 -140 -11 -45 0 -148 18 -168 9 -10 17 -23 17 -28 0 -11 53 -60 58 -55 2
1 5 1 8 -1 9 -10 -150 -30 -188 -24 -138 19 -218 48 -238 85 -15 29 -99 82
-138 88 -32 6 -34 4 -27 -16 4 -13 2 -21 -5 -21 -6 0 -8 -5 -5 -10 4 -6 10 -8
15 -5 7 4 20 -16 20 -31 0 -6 -82 6 -105 16 -11 5 -54 11 -95 14 -41 2 -109 9
-150 16 -41 6 -107 8 -147 5 -49 -5 -84 -2 -108 6 -33 12 -38 12 -46 -4 -6 -9
-21 -17 -33 -17 -13 0 -39 -6 -57 -14 -27 -12 -30 -16 -17 -21 9 -4 14 -13 12
-20 -3 -7 3 -18 14 -24 15 -8 21 -7 26 4 3 10 21 14 58 14 29 1 94 1 144 2 50
1 95 -1 100 -4 5 -3 69 -10 142 -16 73 -6 172 -20 220 -31 48 -12 98 -23 112
-26 13 -3 31 -15 39 -26 26 -38 60 -111 55 -120 -3 -4 -1 -8 4 -8 13 0 45 -68
37 -79 -3 -5 0 -11 6 -13 7 -2 12 -54 15 -148 4 -156 11 -250 20 -274 3 -9 16
-16 29 -16 21 0 23 4 23 58 1 31 5 88 11 125 5 38 7 75 4 83 -3 8 -1 14 5 14
15 0 7 127 -12 192 -9 31 -25 77 -35 102 -22 51 -21 52 57 51 42 0 51 3 47 14
-4 10 1 9 15 -4 20 -18 27 -18 118 -7 56 7 107 20 122 30 30 20 44 22 132 23
56 0 68 3 73 18 15 49 -28 71 -130 68 -68 -2 -70 -1 -73 23 -2 14 -24 46 -49
72 -39 40 -44 49 -33 63 8 10 9 15 1 15 -6 0 -11 11 -11 25 0 14 5 25 10 25 6
0 35 20 66 45 30 25 70 51 87 59 18 7 39 20 47 28 9 8 27 18 41 21 25 6 27 4
35 -36 4 -23 8 -54 9 -68 0 -14 9 -38 19 -53 10 -15 15 -30 12 -33 -2 -3 0
-17 5 -32 6 -14 12 -39 15 -56 2 -16 7 -58 12 -92 5 -35 5 -68 0 -75 -4 -7 -8
-29 -8 -48 0 -51 -12 -64 -51 -56 -93 17 -117 18 -140 3 -13 -8 -39 -18 -57
-22 -34 -7 -102 -68 -102 -92 0 -7 -4 -13 -8 -13 -14 0 -44 -84 -32 -88 6 -2
7 -8 4 -13 -5 -9 79 -98 94 -100 4 0 16 -3 27 -6 64 -16 86 -14 138 12 42 20
65 41 96 85 23 33 47 62 52 66 15 9 85 -25 95 -46 5 -10 55 -66 112 -125 92
-96 105 -106 134 -103 34 3 43 23 28 64 -6 16 -15 22 -25 18 -8 -3 -15 -1 -15
4 0 11 -121 144 -190 209 -71 67 -90 88 -82 91 5 1 6 16 4 32 -2 17 0 30 6 30
6 0 11 19 11 43 0 23 0 76 0 117 0 41 -7 97 -14 123 -8 27 -14 52 -14 55 4 26
-3 52 -13 52 -8 0 -13 14 -14 36 0 20 -5 39 -11 42 -5 4 -13 25 -17 47 -11 56
-32 91 -58 99 -33 8 -40 8 -69 -8z m11 -689 c62 -22 62 -23 25 -82 -19 -30
-35 -60 -35 -68 0 -8 -15 -22 -32 -30 -42 -19 -138 -3 -138 23 0 9 -5 21 -11
27 -8 8 -6 16 8 30 24 26 43 59 43 76 0 14 48 34 85 36 11 0 36 -5 55 -12z"/>
<path d="M1730 1421 c-8 -5 -48 -14 -89 -20 -41 -7 -79 -15 -85 -19 -6 -3 -22
-8 -36 -10 -13 -2 -29 -7 -35 -11 -5 -5 -23 -11 -39 -15 -16 -4 -48 -16 -70
-27 -56 -28 -175 -66 -229 -74 -35 -5 -47 -13 -56 -32 -13 -28 -7 -56 17 -84
17 -20 52 -26 52 -9 0 6 10 10 23 11 12 0 42 16 67 34 25 19 62 44 83 55 57
31 222 86 302 100 39 7 78 17 87 21 9 5 121 9 249 10 165 1 248 5 287 15 42
11 58 12 69 3 11 -9 16 -8 27 6 8 11 20 16 30 12 19 -7 22 8 4 20 -7 4 -60 8
-118 9 -58 1 -199 4 -315 8 -121 3 -216 2 -225 -3z"/>
<path d="M2474 1320 c-5 -5 -29 -12 -52 -15 -43 -5 -201 -80 -215 -102 -4 -7
-15 -13 -22 -13 -8 0 -15 -6 -15 -14 0 -8 -7 -16 -15 -20 -8 -3 -15 -12 -15
-21 0 -8 -5 -15 -11 -15 -5 0 -7 -5 -4 -10 4 -6 2 -17 -4 -24 -19 -23 -9 -76
21 -107 27 -27 68 -40 68 -20 0 13 25 20 48 14 12 -3 22 -16 25 -32 7 -35 56
-91 79 -91 10 0 18 -5 18 -11 0 -8 18 -10 55 -7 43 4 67 13 112 44 99 67 213
202 213 252 0 11 4 24 10 27 17 10 -2 69 -33 103 -17 17 -55 41 -84 52 -57 21
-162 27 -179 10z m114 -82 c53 -13 96 -37 100 -56 3 -16 -24 -68 -49 -93 -10
-10 -19 -27 -19 -37 0 -24 -102 -119 -146 -138 -18 -8 -49 -14 -67 -14 -30 0
-36 5 -51 38 -25 56 -26 87 -4 107 11 9 17 23 14 31 -3 9 1 14 14 14 10 0 22
5 25 10 3 6 -4 10 -15 10 -29 0 -79 -37 -90 -66 -8 -20 -17 -24 -49 -24 -47 0
-57 18 -38 70 18 51 67 93 133 115 33 11 61 23 64 26 14 19 116 23 178 7z"/>
<path d="M1763 1037 c-20 -9 -22 -15 -16 -51 3 -23 10 -42 15 -44 4 -2 8 -17
8 -33 0 -18 -4 -28 -10 -24 -5 3 -10 1 -10 -5 0 -6 -4 -9 -9 -5 -15 9 -28 -26
-27 -70 1 -33 5 -41 24 -43 23 -4 25 -1 42 65 10 40 12 42 35 31 13 -6 22 -15
19 -19 -8 -14 27 -79 43 -79 9 0 13 -6 10 -14 -4 -10 -1 -13 9 -9 7 3 14 0 14
-6 0 -6 -5 -11 -12 -11 -7 0 -5 -6 4 -17 25 -29 48 -80 48 -108 0 -75 86 -64
95 11 4 37 -12 81 -46 128 -16 22 -29 45 -29 52 0 6 -6 14 -14 17 -8 3 -23 29
-33 57 -10 29 -26 56 -35 61 -10 5 -18 16 -18 25 0 8 -7 17 -15 20 -8 4 -15
12 -15 18 0 7 -12 24 -27 38 -23 21 -32 24 -50 15z"/>
<path d="M850 993 c-25 -8 -90 -28 -145 -45 -55 -17 -110 -37 -122 -44 -13 -8
-23 -12 -23 -9 0 4 -14 -3 -31 -15 -22 -16 -38 -20 -57 -15 -66 16 -86 17
-122 5 -35 -11 -39 -17 -45 -56 -3 -24 -4 -48 -1 -53 4 -5 0 -12 -6 -14 -7 -3
-3 -6 10 -6 13 -1 22 4 21 12 -4 29 3 36 45 42 31 5 52 2 75 -9 22 -12 36 -14
48 -7 10 6 44 15 76 21 31 6 57 15 57 20 0 5 17 12 38 16 20 4 48 12 62 20 50
26 134 48 138 35 2 -6 8 -9 13 -6 5 4 16 2 25 -3 13 -7 10 -11 -15 -22 -32
-13 -39 -24 -21 -35 17 -10 11 -25 -10 -25 -30 0 -52 -53 -55 -139 -16 -394
-16 -440 3 -450 10 -5 37 -7 60 -4 l42 6 0 -42 c0 -35 -4 -43 -25 -51 -33 -12
-32 -43 1 -65 23 -15 28 -15 40 -3 8 8 16 27 18 44 9 67 27 114 54 133 62 46
111 86 111 94 1 4 19 24 42 44 22 20 56 59 75 87 19 28 54 71 79 96 24 24 55
63 67 87 27 50 35 53 48 17 6 -15 19 -39 30 -54 11 -16 20 -39 20 -52 0 -25
22 -93 33 -104 4 -4 7 -16 7 -26 0 -10 4 -18 9 -18 5 0 9 -6 8 -12 -1 -34 5
-55 21 -76 14 -18 24 -22 45 -17 23 6 30 17 43 64 9 31 20 61 24 66 4 6 10 28
14 51 5 33 2 45 -13 59 -21 18 -41 13 -41 -11 0 -24 -39 -16 -45 9 -4 13 -5
27 -4 33 2 5 -9 32 -24 61 -15 29 -27 57 -27 63 0 6 -9 20 -20 32 -11 12 -20
29 -20 37 0 9 -9 31 -20 49 -11 18 -20 39 -20 47 0 8 -4 15 -8 15 -5 0 -19 9
-32 20 -18 16 -20 20 -7 20 28 0 8 28 -24 32 -28 4 -39 -5 -19 -17 19 -12 11
-26 -9 -15 -42 22 -49 14 -39 -41 9 -51 17 -66 51 -97 10 -9 23 -26 29 -37 9
-17 9 -18 -3 -9 -8 6 -24 11 -36 12 -17 0 -23 -7 -29 -31 -3 -18 -11 -38 -17
-45 -5 -7 -7 -15 -4 -18 3 -3 -4 -16 -16 -28 -13 -11 -30 -33 -40 -48 -10 -16
-24 -28 -32 -28 -8 0 -15 -5 -15 -11 0 -16 -109 -121 -149 -143 l-34 -19 7 34
c3 19 8 59 11 89 3 30 10 67 16 82 15 36 6 56 -23 54 -34 -2 -60 -64 -64 -152
-4 -99 -20 -154 -44 -154 -17 0 -18 8 -15 123 10 274 19 349 48 385 12 15 13
117 1 147 -15 38 -25 40 -94 18z"/>
</g>
</svg>
