<?xml version="1.0" standalone="no"?>
<!DOCTYPE svg PUBLIC "-//W3C//DTD SVG 20010904//EN"
 "http://www.w3.org/TR/2001/REC-SVG-20010904/DTD/svg10.dtd">
<svg version="1.0" xmlns="http://www.w3.org/2000/svg"
 width="714.000000pt" height="202.000000pt" viewBox="0 0 714.000000 202.000000"
 preserveAspectRatio="xMidYMid meet">
<metadata>
Created by potrace 1.12, written by Peter Selinger 2001-2015
</metadata>
<g transform="translate(0.000000,202.000000) scale(0.100000,-0.100000)"
fill="#000000" stroke="none">
<path d="M2370 1713 c-182 -30 -413 -143 -482 -235 -25 -33 -48 -89 -48 -115
0 -19 60 -53 93 -53 33 0 32 19 -1 36 -35 17 -36 21 -11 56 40 57 132 136 199
172 103 54 262 107 299 100 17 -4 31 -12 31 -18 0 -21 -39 -74 -70 -98 -17
-12 -40 -37 -51 -55 -11 -18 -36 -42 -56 -54 -19 -12 -60 -44 -90 -70 -31 -27
-65 -51 -76 -55 -44 -14 -213 -143 -285 -217 -38 -39 -43 -47 -33 -66 7 -11
15 -21 18 -21 14 0 93 51 93 60 0 6 6 10 13 10 11 1 35 21 160 135 20 19 40
35 44 35 4 0 16 8 27 19 12 10 53 36 91 56 39 21 77 43 85 50 8 7 33 21 55 32
22 11 58 29 80 41 33 17 205 80 268 99 10 3 17 0 17 -8 0 -13 -29 -46 -240
-269 -44 -47 -114 -125 -155 -174 -64 -76 -74 -92 -62 -103 12 -12 20 -9 55
23 23 21 42 41 42 46 0 5 21 28 47 51 26 23 62 57 80 75 38 38 110 95 144 112
13 7 33 20 44 30 11 10 31 21 45 25 14 4 47 23 75 41 27 19 55 34 62 34 11 0
126 37 177 56 12 4 16 1 16 -14 0 -12 -4 -24 -10 -27 -5 -3 -10 -14 -10 -25 0
-10 -6 -20 -13 -23 -13 -5 -178 -218 -190 -247 -4 -8 -16 -28 -26 -45 -12 -18
-20 -49 -20 -77 -1 -39 2 -48 20 -53 27 -9 33 -1 20 23 -10 19 -4 63 10 73 14
9 89 112 89 121 0 5 14 21 30 35 31 25 144 168 168 210 16 31 15 64 -4 91 -19
27 -32 26 -159 -15 -90 -29 -185 -73 -230 -107 -16 -13 -40 -25 -52 -28 -16
-4 -1 15 47 62 84 84 106 121 88 150 -7 11 -20 20 -29 20 -27 0 -249 -75 -322
-109 -99 -46 -114 -41 -47 16 22 19 40 40 40 48 0 7 7 15 14 18 8 3 22 20 31
37 15 29 15 32 -5 60 -19 26 -27 30 -68 29 -26 -1 -58 -4 -72 -6z"/>
<path d="M6848 1643 c-7 -16 -17 -35 -23 -43 -7 -8 -18 -51 -25 -95 -7 -44
-17 -86 -23 -93 -14 -18 -86 -66 -125 -83 -18 -7 -32 -17 -32 -21 0 -5 -5 -8
-10 -8 -6 0 -57 -23 -115 -50 -98 -47 -152 -69 -216 -90 -15 -4 -37 -15 -50
-23 -34 -22 -179 -57 -231 -56 -53 1 -96 16 -134 49 -38 32 -47 47 -34 55 6 4
10 3 9 -2 -4 -21 3 -20 27 2 15 14 31 25 35 25 11 0 136 96 201 155 44 40 49
48 43 74 -9 43 -25 52 -80 44 -35 -4 -49 -11 -53 -25 -3 -13 -7 -16 -12 -8 -7
12 -45 -16 -97 -72 -7 -7 -18 -18 -26 -24 -7 -6 -21 -37 -31 -68 -21 -65 -32
-73 -166 -117 -107 -34 -207 -55 -217 -45 -17 17 48 112 112 161 35 27 62 51
60 54 -3 2 3 10 12 16 14 11 15 16 5 28 -11 13 -22 10 -84 -24 -39 -21 -72
-39 -74 -39 -4 0 -230 -141 -280 -175 -47 -32 -124 -68 -130 -62 -3 3 4 15 15
26 12 12 21 27 21 35 0 8 14 26 30 39 17 14 30 30 30 36 0 6 36 47 80 93 81
84 86 93 71 116 -6 11 -15 9 -42 -7 -19 -12 -46 -26 -61 -32 -30 -12 -35 -23
-17 -35 7 -4 -2 -20 -24 -43 -41 -43 -97 -125 -97 -141 0 -7 -9 -24 -19 -39
-18 -25 -25 -49 -22 -79 1 -14 41 -12 91 4 48 15 196 93 234 123 44 35 62 40
51 14 -16 -39 -17 -64 -1 -88 14 -21 24 -25 69 -25 28 0 70 5 92 11 105 27
181 53 196 65 17 15 39 2 39 -22 0 -23 59 -72 97 -79 84 -17 231 0 278 31 11
8 30 14 42 14 13 0 45 10 71 21 113 51 129 58 165 73 20 8 37 20 37 26 0 6 5
8 10 5 10 -6 82 32 88 47 2 4 30 22 63 40 32 18 59 36 59 40 0 5 7 8 15 8 18
0 20 -21 3 -38 -7 -7 -9 -12 -5 -12 4 0 2 -10 -5 -22 -6 -13 -15 -45 -20 -73
-4 -27 -12 -70 -18 -95 -50 -233 -60 -331 -60 -566 0 -250 -8 -315 -51 -418
-48 -114 -31 -133 21 -23 46 99 54 166 55 437 0 159 4 261 12 290 7 25 16 81
21 125 9 80 46 246 62 276 5 9 13 34 19 57 19 68 50 129 82 162 27 26 33 42
40 103 12 107 12 107 -16 107 -18 0 -29 -8 -37 -27z m-736 -205 c9 -22 -60
-89 -151 -148 -93 -60 -106 -52 -41 26 22 27 40 52 40 57 0 11 120 87 134 84
6 -1 14 -10 18 -19z"/>
<path d="M1110 1430 c-25 -10 -76 -31 -115 -45 -175 -68 -424 -200 -521 -277
-34 -26 -64 -48 -67 -48 -2 0 -22 -16 -43 -36 -22 -19 -51 -43 -67 -52 -16
-10 -27 -25 -27 -38 0 -26 36 -74 56 -74 25 0 64 31 64 51 0 10 18 35 41 56
23 21 52 48 66 61 30 27 87 66 156 105 28 16 75 45 106 65 76 51 287 155 302
150 14 -5 -139 -158 -158 -158 -6 0 -15 5 -18 10 -7 12 -82 13 -89 2 -3 -5 -2
-18 1 -30 4 -17 13 -22 42 -22 l36 -1 -26 -22 c-14 -13 -49 -53 -77 -89 -53
-67 -54 -78 -3 -78 20 0 56 35 56 56 0 7 32 41 70 75 39 34 84 77 101 95 18
19 35 34 38 34 12 0 166 163 166 175 0 10 -37 56 -43 54 -1 0 -22 -9 -47 -19z"/>
<path d="M3675 1426 c-90 -29 -181 -79 -234 -127 -91 -83 -111 -103 -111 -116
0 -7 -4 -13 -9 -13 -5 0 -18 -23 -30 -51 -23 -51 -20 -66 14 -91 18 -14 118
17 185 58 14 8 39 22 57 29 17 8 34 19 38 25 3 5 15 10 26 10 11 0 18 -4 14
-9 -8 -14 13 -55 36 -69 39 -25 188 -12 289 25 19 7 40 13 60 17 8 2 22 6 30
9 71 26 174 56 181 51 4 -2 -2 -20 -15 -39 -34 -50 -41 -99 -19 -135 11 -20
25 -30 40 -30 31 0 138 35 184 60 20 11 42 20 48 20 6 0 39 17 74 39 35 21 73
42 85 45 12 4 22 12 22 17 0 5 9 9 20 9 19 0 28 -15 13 -22 -10 -4 -73 -94
-73 -104 0 -4 -9 -17 -19 -28 -10 -12 -37 -55 -59 -96 -22 -41 -54 -99 -71
-128 -17 -29 -31 -57 -31 -63 0 -5 -22 -54 -49 -109 -53 -105 -70 -163 -52
-174 16 -10 57 24 76 64 9 19 30 51 46 71 16 20 29 44 29 52 0 8 7 20 15 27 8
7 15 20 15 29 0 19 -31 -17 -54 -64 -19 -38 -95 -124 -96 -108 0 6 15 31 33
55 18 24 59 90 91 148 32 58 76 131 96 162 21 31 42 67 45 80 4 13 13 30 20
38 7 8 29 38 47 65 37 55 99 127 137 160 13 11 41 35 62 54 21 18 39 29 40 25
0 -5 5 2 10 15 7 19 6 28 -5 39 -13 14 -19 12 -53 -10 -21 -14 -60 -36 -88
-49 -27 -13 -106 -58 -175 -100 -69 -42 -145 -85 -170 -96 -25 -11 -72 -33
-105 -48 -115 -52 -138 -35 -81 61 43 72 85 118 134 144 20 12 57 33 82 48 25
15 66 36 93 46 49 19 52 22 37 46 -8 12 -16 13 -56 2 -61 -17 -141 -55 -194
-93 -23 -17 -60 -37 -81 -44 -22 -8 -54 -21 -72 -29 -35 -17 -182 -66 -197
-66 -5 0 -21 -5 -37 -12 -40 -17 -219 -46 -248 -40 -44 8 -31 43 43 116 37 37
85 77 107 88 22 11 48 27 58 36 20 18 23 42 5 42 -19 0 -105 -46 -147 -77 -40
-31 -83 -56 -123 -73 -16 -7 -28 -16 -28 -21 0 -5 -6 -9 -13 -9 -7 0 -48 -20
-91 -45 -43 -24 -88 -47 -100 -51 -11 -3 -28 -12 -36 -19 -8 -7 -25 -16 -37
-19 -89 -27 93 182 218 252 20 11 46 26 58 34 18 11 26 11 51 -4 18 -10 30
-12 32 -6 2 6 21 12 42 13 47 4 50 7 39 42 -8 23 -16 28 -44 30 -19 1 -52 -4
-74 -11z"/>
</g>
</svg>
