<?xml version="1.0" encoding="UTF-8" standalone="no"?>
<!-- Created with Inkscape (http://www.inkscape.org/) -->

<svg
   xmlns:dc="http://purl.org/dc/elements/1.1/"
   xmlns:cc="http://creativecommons.org/ns#"
   xmlns:rdf="http://www.w3.org/1999/02/22-rdf-syntax-ns#"
   xmlns:svg="http://www.w3.org/2000/svg"
   xmlns="http://www.w3.org/2000/svg"
   xmlns:sodipodi="http://sodipodi.sourceforge.net/DTD/sodipodi-0.dtd"
   xmlns:inkscape="http://www.inkscape.org/namespaces/inkscape"
   width="765"
   height="249"
   id="svg2"
   version="1.1"
   inkscape:version="0.48.0 r9654"
   sodipodi:docname="Autograph-AdamAsnyk.svg">
  <defs
     id="defs4" />
  <sodipodi:namedview
     id="base"
     pagecolor="#ffffff"
     bordercolor="#666666"
     borderopacity="1.0"
     inkscape:pageopacity="0.0"
     inkscape:pageshadow="2"
     inkscape:zoom="0.7"
     inkscape:cx="373.43512"
     inkscape:cy="277.60146"
     inkscape:document-units="px"
     inkscape:current-layer="layer1"
     showgrid="false"
     fit-margin-top="0"
     fit-margin-left="0"
     fit-margin-right="0"
     fit-margin-bottom="0"
     inkscape:window-width="1440"
     inkscape:window-height="820"
     inkscape:window-x="-8"
     inkscape:window-y="-8"
     inkscape:window-maximized="1" />
  <metadata
     id="metadata7">
    <rdf:RDF>
      <cc:Work
         rdf:about="">
        <dc:format>image/svg+xml</dc:format>
        <dc:type
           rdf:resource="http://purl.org/dc/dcmitype/StillImage" />
        <dc:title></dc:title>
      </cc:Work>
    </rdf:RDF>
  </metadata>
  <g
     inkscape:label="Layer 1"
     inkscape:groupmode="layer"
     id="layer1"
     transform="translate(-343.21429,-633.57648)">
    <path
       style="font-size:medium;font-style:normal;font-variant:normal;font-weight:normal;font-stretch:normal;text-indent:0;text-align:start;text-decoration:none;line-height:normal;letter-spacing:normal;word-spacing:normal;text-transform:none;direction:ltr;block-progression:tb;writing-mode:lr-tb;text-anchor:start;baseline-shift:baseline;color:#000000;fill:#000000;fill-opacity:1;stroke:none;stroke-width:4;marker:none;visibility:visible;display:inline;overflow:visible;enable-background:accumulate;font-family:Sans;-inkscape-font-specification:Sans"
       d="M 536.375 20.90625 C 519.7342 28.32941 511.04167 45.67193 499.65625 58.9375 C 490.22506 71.31751 483.38741 86.94878 468.53125 93.75 C 439.97513 111.19323 413.12916 121.33717 383.90625 137.59375 C 372.61079 135.97923 366.13294 123.62631 375.28125 118.25 C 350.5959 107.63084 367.92641 156.57575 387.34375 149.46875 C 407.34029 136.66446 426.5864 122.68086 447.125 110.8125 C 439.1637 119.3831 447.60314 139.27 457.15625 123.8125 C 465.39328 115.74456 479.40812 84.8825 489.6875 106.125 C 494.69635 117.22202 477.0295 132.65079 482.46875 137.9375 C 492.46617 131.05185 499.85996 122.34532 517.90625 123.5 C 523.63925 125.61602 517.69863 135.18814 517.125 140.625 C 516.60116 145.58998 521.3595 146.83363 527.46875 141.21875 C 533.73997 133.23019 551.93763 112.24044 550.09375 139.25 C 552.72964 153.49074 573.59512 133.80434 584.90625 130.96875 C 595.26577 141.27689 610.32039 130.04941 615.03125 136.0625 C 604.29454 151.6119 602.85767 167.20528 588.8125 180.5 C 576.31465 195.48603 564.95784 211.5975 550.5 224.78125 C 542.64348 232.29789 549.82045 241.40473 557.53125 232.1875 C 592.13047 206.42586 612.32157 166.37857 646.3125 139.9375 C 654.18528 131.91728 664.53775 113.55889 670.53125 111.5 C 665.41855 116.59058 655.34741 136.27379 665.15625 135.28125 C 667.70055 131.91888 670.74389 129.07155 674.03125 126.46875 C 675.13338 129.59786 677.2135 132.4032 679.78125 134.5 C 682.03175 136.50915 684.49595 138.25037 687.09375 139.78125 C 689.27075 139.91521 691.23605 138.65878 693.28125 138.09375 C 703.38265 134.27866 712.3675 128.16001 722.3125 124 C 724.3748 122.82199 722.48295 119.30101 720.34375 120.53125 C 709.29475 124.98993 699.42475 132.10398 687.96875 135.625 C 683.69865 132.66432 678.805 129.44026 677.4375 124.09375 C 677.42209 124.03373 677.42036 123.96653 677.40625 123.90625 C 685.93265 117.80623 695.50821 112.84439 702.40625 105.40625 C 702.27069 104.66307 702.07561 104.11553 701.84375 103.6875 C 701.8254 103.57677 701.81735 103.46352 701.78125 103.34375 C 701.03545 101.18937 698.20925 101.86621 696.46875 101.78125 C 688.53335 102.64363 681.4717 107.42622 676.4375 113.4375 C 674.6359 115.59854 673.0908 118.18272 673.1875 121.09375 C 673.17784 121.37921 673.17961 121.6853 673.1875 121.96875 C 667.34344 127.38724 663.20174 131.71787 669.03125 120.96875 C 678.59785 103.62257 695.85115 92.48602 707.28125 76.59375 C 712.44965 73.49304 724.3091 57.00075 712.25 59.4375 C 698.7105 74.93124 689.76735 95.46848 670.53125 105.09375 C 655.48551 116.59473 648.92692 136.1354 632.71875 146.4375 C 604.55984 172.17837 585.49444 206.94597 554.25 229.40625 C 558.23335 219.59578 575.67818 206.08654 583.125 193.90625 C 595.43349 179.14269 608.28493 164.56448 616.0625 146.75 C 617.58567 137.94565 643.95033 123.73866 639.71875 117.5625 C 633.99766 111.92676 607.50964 127.21986 598.3125 124.46875 C 592.77525 122.81241 590.16715 118.18446 586.875 118.40625 C 584.92215 117.37859 578.67584 120.58734 575.1875 125.25 C 571.95732 129.56759 568.5622 130.54322 565.15625 128.6875 C 561.86553 126.89457 560.95098 118.54669 555.3125 115.75 C 543.12858 111.42327 533.98909 130.29159 527.78125 121.53125 C 518.52642 111.59982 498.44958 122.47433 490.84375 123.0625 C 504.41578 109.7399 496.41115 90.30345 487.125 89.09375 C 500.29514 76.56209 512.48836 71.3336 524.15625 57 C 529.6195 48.97465 551.28819 27.11576 536.375 20.90625 z M 536.8125 24.875 C 536.19248 40.82901 520.22003 51.96046 509.65625 62.46875 C 504.38481 66.74744 493.57958 79.27811 492.03125 76.84375 C 505.52051 58.69848 517.32242 37.83252 536.375 25.03125 L 536.8125 24.875 z M 164.5 32.8125 C 153.55985 35.37719 145.244 43.56243 136.40625 49.96875 C 128.8272 56.02084 121.48695 62.33894 114.15625 68.6875 C 92.15185 54.36764 59.05207 52.55081 36.375 67.65625 C 30.4143 71.7114 26.54456 80.87168 31.96875 86.90625 C 33.13618 90.11933 46.09072 96.62582 45.09375 89.65625 C 39.03651 86.61828 34.3769 77.25085 41.15625 72.34375 C 47.41309 67.11674 55.8457 65.68095 63.5625 63.8125 C 79.57426 60.91544 96.79449 63.09354 110.90625 71.46875 C 91.84753 87.70044 73.84992 105.30938 53.4375 119.875 C 47.04943 121.85478 46.22407 128.37158 39.5 126.84375 C 33.77686 123.50252 36.03306 118.75837 33.5 115.5625 C 28.64666 115.40769 25.48712 124.67005 26.90625 128.375 C 28.60287 134.86601 38.33024 137.68214 42.96875 133.1875 C 48.63246 129.00497 56.07212 123.554 61.46875 119 C 68.667786 113.54243 75.935173 107.50471 83.125 101.3125 C 79.784177 106.55318 76.806569 112.36989 74.375 117.90625 C 72.55607 122.58007 66.65694 133.373 71.8125 136.9375 C 78.49197 136.0358 84.22543 127.7408 88.90625 123.65625 C 92.46211 119.94175 95.90636 116.13306 99.3125 112.28125 C 105.42138 119.69063 110.67715 129.76878 120.90625 131.8125 C 129.51409 131.8095 133.66085 122.45658 137 115.875 C 140.81486 105.19856 136.71631 93.41035 130.75 84.34375 C 124.90364 80.16842 131.00735 76.60293 133.90625 72.625 C 142.9416 61.61092 151.41838 50.08402 161.625 40.09375 C 166.88837 39.68579 173.69484 33.46072 164.5 32.8125 z M 154.15625 41.90625 C 143.91329 53.25872 134.81169 65.5703 124.84375 77.15625 C 122.07006 74.30899 114.22267 70.39108 121.6875 67.46875 C 132.18699 58.55657 142.58515 49.43052 154.15625 41.90625 z M 114.0625 74.25 C 118.83203 76.70279 120.90625 81.0625 120.90625 81.0625 C 120.87955 80.90245 119.64536 83.00585 117.46875 85.625 C 111.4005 90.96009 100.5 104.78125 100.5 104.78125 C 100.5 104.78125 94.451645 96.12485 88.65625 96.5 C 97.281005 88.962233 105.81182 81.320538 114.0625 74.25 z M 124.875 83.15625 C 131.44307 91.2592 136.19854 102.24611 133.6875 112.75 C 131.09097 118.79437 129.70544 127.1461 121.40625 124.71875 C 114.85596 121.6027 110.41771 117.14512 105.78125 111.875 C 104.98306 110.72735 102.28125 107.6875 102.28125 107.6875 C 102.28125 107.6875 109.72471 102.1451 111.46875 98.4375 C 115.91823 93.32573 120.35076 88.20221 124.875 83.15625 z M 472.03125 98.5 C 465.62174 104.49057 455.21192 126.89202 448.34375 120.4375 C 448.97934 108.0289 461.40466 101.30174 472.03125 98.5 z M 188 99 C 181.50464 98.96756 174.71436 101.83861 170.53125 105.25 C 168.21293 107.28467 166.66029 112.15037 166.375 115.3125 C 167.67171 117.21599 160.64567 119.00755 159.875 120.53125 C 156.75804 123.38972 155.9708 127.67772 158.1875 131.40625 C 159.53646 133.85533 165.23133 135.8865 168.15625 135.375 C 172.41239 134.69129 176.10533 130.77514 179.1875 127.9375 C 180.71453 126.45762 181.95793 124.57066 184.0625 123.84375 C 185.22289 123.34034 186.46183 122.99005 187.71875 122.6875 C 188.60225 125.2989 192.87062 125.35749 195.1875 125.3125 C 200.98817 125.2988 203.7193 123.84821 209.5 124.8125 C 212.11358 127.66103 211.65147 135.68566 216.21875 137.3125 C 221.10591 138.46561 225.74103 129.89203 230.375 129.59375 C 234.80588 128.83172 237.82248 129.04998 241.9375 127.25 C 246.49446 127.41602 245.29543 133.67461 249 135.5625 C 253.35059 136.12547 261.80219 130.90286 265.625 129.1875 C 270.24218 126.91742 269.04017 127.68941 273.65625 125.53125 C 276.14751 124.54624 277.93372 134.06904 281.96875 135 C 289.85758 140.63662 304.35862 131.93822 308.03125 127.15625 C 312.0149 118.671 304.08588 121.07309 302.1875 122.40625 C 297.59416 124.61175 295.37082 123.69878 290.71875 120.28125 C 288.00073 118.25886 282.54007 117.38573 278.53125 117.8125 C 273.79267 119.43891 269.76426 122.69052 265.25 124.875 C 261.88338 126.5492 260.04787 126.3088 256.3125 127 C 252.86467 123.71513 247.65647 121.09592 242.25 122.125 C 237.40427 124.24587 232.12568 124.98206 227.03125 126.3125 C 223.90006 126.76495 221.42828 131.57885 220.59375 125.40625 C 220.73618 119.80797 213.68492 118.57311 208.125 119.9375 C 203.18985 120.13912 198.24083 121.63979 193.3125 121.15625 C 194.60598 120.65034 195.82774 119.98395 196.875 118.96875 C 199.66499 116.12495 200.03991 111.59056 198.875 107.9375 C 197.70062 104.24566 193.05755 99.51653 189.3125 99.0625 C 188.88303 99.033705 188.43302 99.002163 188 99 z M 89.5625 101.40625 C 93.04836 102.82116 96.71875 108.09375 96.71875 108.09375 C 96.71875 108.09375 94.03321 112.23218 91.625 114.84375 C 86.99987 119.87899 82.41003 125.00712 77.15625 129.40625 C 80.84412 119.91051 84.46915 110.21269 89.5625 101.40625 z M 183.6875 104.6875 C 186.04192 104.52121 187.9502 105.79801 188.6875 109.4375 C 189.13713 111.87419 190.50362 113.27901 188.15625 114.75 C 184.76841 116.70394 185.81164 118.47719 182.3125 120.1875 C 180.05283 121.11112 178.33033 122.894 176.75 124.6875 C 174.22995 127.03949 171.50327 129.46847 168.0625 130.28125 C 166.06157 130.6956 164.56203 128.48459 164.28125 126.75 C 163.89748 123.73849 166.1461 121.00946 168.8125 119.90625 C 170.15084 119.33846 169.70295 117.57853 169.5 116.8125 C 170.62444 115.90954 170.39766 114.19069 171.34375 113.125 C 174.58608 109.2207 179.76346 104.96464 183.6875 104.6875 z M 695 106.125 C 691.48299 109.41358 687.38499 113.8746 684.125 113.9375 C 682.54905 114.40093 680.58693 115.67406 678.5625 117.28125 C 678.80503 116.93029 679.06953 116.59091 679.375 116.28125 C 683.27138 111.35797 688.80161 107.3871 695 106.125 z "
       transform="translate(343.21429,633.57648)"
       id="path2996" />
  </g>
</svg>
