<?xml version="1.0" encoding="UTF-8" standalone="no"?>
<!-- Created with Inkscape (http://www.inkscape.org/) -->

<svg
   xmlns:dc="http://purl.org/dc/elements/1.1/"
   xmlns:cc="http://creativecommons.org/ns#"
   xmlns:rdf="http://www.w3.org/1999/02/22-rdf-syntax-ns#"
   xmlns:svg="http://www.w3.org/2000/svg"
   xmlns="http://www.w3.org/2000/svg"
   xmlns:sodipodi="http://sodipodi.sourceforge.net/DTD/sodipodi-0.dtd"
   xmlns:inkscape="http://www.inkscape.org/namespaces/inkscape"
   width="1503"
   height="558"
   id="svg2"
   version="1.1"
   inkscape:version="0.48.0 r9654"
   sodipodi:docname="Nowy dokument 1">
  <defs
     id="defs4" />
  <sodipodi:namedview
     id="base"
     pagecolor="#ffffff"
     bordercolor="#666666"
     borderopacity="1.0"
     inkscape:pageopacity="0.0"
     inkscape:pageshadow="2"
     inkscape:zoom="0.43579508"
     inkscape:cx="1118.9251"
     inkscape:cy="494.16136"
     inkscape:document-units="px"
     inkscape:current-layer="layer1"
     showgrid="false"
     fit-margin-top="0"
     fit-margin-left="0"
     fit-margin-right="0"
     fit-margin-bottom="0"
     inkscape:window-width="1440"
     inkscape:window-height="820"
     inkscape:window-x="-8"
     inkscape:window-y="-8"
     inkscape:window-maximized="1" />
  <metadata
     id="metadata7">
    <rdf:RDF>
      <cc:Work
         rdf:about="">
        <dc:format>image/svg+xml</dc:format>
        <dc:type
           rdf:resource="http://purl.org/dc/dcmitype/StillImage" />
        <dc:title></dc:title>
      </cc:Work>
    </rdf:RDF>
  </metadata>
  <g
     inkscape:label="Layer 1"
     inkscape:groupmode="layer"
     id="layer1"
     transform="translate(376.5,-253.36218)">
    <path
       style="font-size:medium;font-style:normal;font-variant:normal;font-weight:normal;font-stretch:normal;text-indent:0;text-align:start;text-decoration:none;line-height:normal;letter-spacing:normal;word-spacing:normal;text-transform:none;direction:ltr;block-progression:tb;writing-mode:lr-tb;text-anchor:start;baseline-shift:baseline;color:#000000;fill:#000000;fill-opacity:1;stroke:none;stroke-width:8;marker:none;visibility:visible;display:inline;overflow:visible;enable-background:accumulate;font-family:Sans;-inkscape-font-specification:Sans"
       d="M 544.21875 20.09375 C 538.39714 20.210527 532.56316 20.603365 526.78125 20.21875 C 487.43169 20.6469 442.22157 37.83304 427.65625 77.5 C 415.10619 158.27052 470.4579 235.3239 447.90625 315.9375 C 437.80284 356.55276 426.24179 403.06021 387.5 426.03125 C 312.06614 478.60883 214.30876 489.75729 125.3125 474.84375 C 86.28119 467.23748 48.06115 451.71933 17.6875 425.59375 C 15.01632 448.7752 52.05974 458.48774 67.75 470.1875 C 152.02605 505.23351 254.75919 498.98204 339.5 468.9375 C 388.89462 451.0985 433.71758 409.92857 447.03125 356.625 C 454.24124 328.82687 460.83426 301.84683 461.46875 273 C 460.97229 209.29066 433.09503 150.58195 438.9375 86.5 C 446.5065 50.23069 481.16239 33.04187 514.125 28.5 C 525.74188 23.3915 559.52217 29.05707 561.53125 21.5625 C 555.83506 20.125185 550.04036 19.976973 544.21875 20.09375 z M 779.375 209.53125 C 762.0533 227.48825 750.3294 250.76163 730.625 266.8125 C 711.97077 276.79349 696.29179 314.99049 675.96875 301.0625 C 666.53548 302.43418 654.39509 315.61119 658.28125 325.28125 C 662.62845 329.1315 666.16616 322.75782 666.59375 319.03125 C 670.07054 305.57532 686.02622 308.56767 673.375 319.9375 C 661.15703 333.8068 631.77607 355.79707 621 353.71875 C 632.2849 339.05423 634.35006 314.13878 653 307.71875 C 670.31505 299.66525 695.89837 289.7447 695.125 266.96875 C 685.91311 244.03658 662.42784 274.56259 653.375 284.5 C 643.29522 302.87586 627.15619 311.14652 607.25 315.625 C 595.41617 319.32925 586.12229 323.55824 599.03125 311.21875 C 613.39912 296.82287 585.90374 285.58673 579.125 298.71875 C 578.40282 304.07847 585.33685 304.24099 588.40625 301.71875 C 608.45497 302.51176 557.44009 330.4319 580.09375 336.15625 C 595.14568 324.54514 615.03267 322.83856 632.25 315.625 C 622.88271 326.62928 617.16824 357.70128 605.0625 354.96875 C 608.41309 349.73192 600.88852 341.56616 597.3125 348.09375 C 594.5676 362.21696 612.01009 366.20764 598.53125 378.625 C 583.70926 402.41514 574.46672 430.70052 554.25 450.53125 C 551.06062 444.89524 543.13477 452.04951 548.28125 456.25 C 565.80328 463.63019 574.27698 436.38226 582.46875 424.46875 C 593.31575 405.06352 603.91652 385.52097 614.4375 365.9375 C 642.0448 359.57759 665.80275 340.34481 684.28125 320.1875 C 694.87098 311.48493 714.71195 291.73528 719.5 288.625 C 703.68443 304.77376 724.36536 307.02923 736.625 303.71875 C 746.05452 321.02081 701.61032 314.22824 692.375 329.96875 C 674.12341 345.11387 694.78795 381.6057 714.125 357.15625 C 731.52861 346.26436 737.32977 321.72879 756.21875 315.90625 C 754.84764 317.01939 733.99474 343.35997 756.375 346 C 766.04276 349.28734 775.14017 334.24118 777.25 349.28125 C 798.58051 353.85481 814.01748 331.18665 829.5625 319.53125 C 847.42521 297.60885 837.03192 335.68117 829.8125 344.75 C 841.44054 359.42225 845.90904 323.75445 857.53125 319.25 C 862.4009 311.64133 880.15706 298.7176 870.8125 317.375 C 855.31506 334.87838 879.23584 352.47099 893.03125 333.96875 C 901.00072 326.40138 918.90785 301.54348 910.8125 326.09375 C 902.81618 365.69954 943.46893 321.00869 944.46875 325.40625 C 943.28533 348.64643 970.45675 337.3959 977.09375 324.875 C 980.58146 319.28662 971.02017 315.91401 968.5625 321.625 C 962.52278 332.93234 947.85045 335.93063 953.1875 319.1875 C 957.69618 312.21018 963.4672 287.11858 950.8125 301.75 C 944.08908 313.9368 927.91659 329.15764 917.9375 332.375 C 920.16399 321.42218 929.59057 292.10089 907.90625 306.96875 C 897.22271 313.59779 886.36252 338.44569 873.875 331.75 C 882.85423 320.35497 885.24447 287.38017 862.84375 303.125 C 854.85355 307.60059 843.44597 328.8877 848 308.4375 C 840.67099 285.53123 820.09797 322.54657 808.25 327.6875 C 801.21224 336.5681 769.90462 352.92002 787.78125 330.1875 C 798.65341 325.92342 814.12629 289.32172 795.3125 300.4375 C 787.51169 314.0338 772.29367 346.33851 753.65625 334.5625 C 753.90381 321.52974 794.83514 306.92239 773.09375 300.875 C 760.33515 303.13028 746.37887 318.45243 744.5625 298.5625 C 735.50987 292.03641 715.72978 301.59637 730.6875 286.59375 C 745.40432 266.83492 760.71709 247.37047 775.6875 227.9375 C 780.51534 220.71596 796.41743 213.06783 779.375 209.53125 z M 1116.0312 224.28125 C 1092.1477 224.8988 1073.2121 243.86757 1062.25 263.5625 C 1055.9826 275.5007 1051.0234 289.6725 1054.1875 303.1875 C 1056.1621 306.99342 1062.5287 304.64575 1061.5625 300.46875 C 1059.8202 280.4083 1070.816 261.16208 1084.5 247.28125 C 1095.8351 235.68049 1113.7882 227.87947 1129.5312 235.15625 C 1139.5632 237.61412 1147.7255 248.15531 1142.9375 258.375 C 1137.0626 273.84188 1124.4881 285.41635 1112.9375 296.75 C 1116.8525 287.26166 1120.0273 277.35996 1123.3125 267.71875 C 1123.2356 262.84212 1115.722 262.778 1115.0938 267.5 C 1106.5842 291.2374 1098.3496 315.37489 1085.3438 337.125 C 1082.1899 347.08779 1060.983 344.97131 1065.4375 356.09375 C 1072.7759 358.10235 1083.2976 353.80266 1091.9062 355.875 C 1103.603 356.86149 1118.6701 354.7754 1123.1875 342.0625 C 1124.4841 337.55836 1117.3215 335.13092 1115.625 339.5 C 1111.0994 349.58344 1098.2786 347.96167 1089.1875 347.71875 C 1083.3736 347.86027 1095.157 340.34933 1095.375 335.84375 C 1100.5707 327.97732 1102.5426 311.47306 1113.2812 323.3125 C 1122.0314 331.08685 1125.1072 343.20731 1129.6562 353.65625 C 1132.36 367.73703 1145.9059 357.23313 1152.0625 351.9375 C 1158.9442 347.57771 1170.6285 334.69668 1176.2188 340 C 1173.6827 353.15687 1188.8372 361.84377 1200.25 359.59375 C 1212.0063 357.94684 1218.8509 346.31927 1229.875 343.375 C 1240.0759 343.65309 1251.7423 351.45807 1260.75 343.15625 C 1266.643 336.25016 1271.5203 326.22041 1269.4688 316.96875 C 1263.3531 305.58489 1248.1682 308.97112 1237.6875 310.9375 C 1231.1092 311.0288 1221.9692 319.7391 1224.0938 308.875 C 1221.5288 299.96926 1210.5159 295.31337 1202.5312 300.3125 C 1191.3321 306.38768 1183.7273 317.59765 1178.9375 329.125 C 1168.2219 330.02371 1159.2189 335.5127 1151.3125 342.46875 C 1144.7361 347.42927 1135.7002 357.53696 1134.3438 343.65625 C 1129.4066 331.52377 1123.9613 317.56476 1110.75 312.40625 C 1109.5791 307.7205 1121.5682 301.52814 1125.4375 295.9375 C 1137.0783 283.54342 1150.6361 269.96473 1152.2812 252.15625 C 1153.0113 236.85513 1137.5006 228.07749 1124.4375 225.1875 C 1121.6829 224.57444 1118.8533 224.27642 1116.0312 224.28125 z M 686.625 265.8125 C 691.43197 283.88103 658.04199 297.5191 653.125 297.40625 C 663.09708 285.98912 672.49984 272.22625 686.625 265.8125 z M 527.28125 267.375 C 517.93568 272.85605 516.56625 287.70839 509.28125 295.625 C 497.40375 318.51725 481.6374 340.97473 478.71875 367.125 C 487.12408 388.26652 513.53251 365.69696 523.65625 355.53125 C 527.47119 353.50117 533.81161 344.84392 526.53125 342.9375 C 517.94945 345.01034 514.45427 356.75374 505.96875 360.125 C 498.35782 367.05714 479.37013 374.01256 488.6875 356 C 495.69041 336.39799 502.01737 314.46783 525.96875 314.09375 C 531.74628 309.84202 543.3252 312.29268 546.21875 304.9375 C 545.74816 296.80727 534.50816 302.24538 530.6875 303.90625 C 520.34784 307.94189 502.7279 315.37794 516.5625 299 C 519.14718 288.91981 532.96722 279.73356 530.75 268.96875 C 529.95537 267.8952 528.61281 267.27079 527.28125 267.375 z M 1026.1875 283.46875 C 1006.5905 285.13675 999.3573 309.97002 1017 320.53125 C 1012.3272 332.56036 999.34544 329.99355 993.75 321.9375 C 986.34609 320.8029 988.20853 332.1795 993.59375 333.875 C 1010.0574 347.15547 1038.7013 320.48094 1016.1562 307.09375 C 1009.987 293.78377 1030.3804 287.27262 1037.2188 298.28125 C 1045.0152 298.74111 1041.5038 286.93049 1035.6562 286.1875 C 1032.678 284.77361 1029.486 283.77245 1026.1875 283.46875 z M 1387.5938 294.84375 C 1373.3815 296.93423 1369.9605 314.2365 1365.1875 325.4375 C 1362.2223 337.50916 1357.1073 350.41655 1343 352.34375 C 1320.0667 360.796 1294.6418 365.61432 1275.4375 381.625 C 1265.5214 389.13521 1266.5964 404.05293 1275.5312 411.9375 C 1286.4492 425.44455 1306.2529 423.27929 1319.7188 415.15625 C 1327.2934 412.58979 1343.9106 395.47384 1334.9688 411.9375 C 1329.816 424.67926 1323.7523 437.0688 1316.6562 448.84375 C 1281.0335 452.8452 1246.0757 462.97104 1214.125 479.25 C 1202.7096 483.96495 1192.2448 496.79989 1199.3438 509.125 C 1208.6057 521.97093 1226.598 522.18671 1240.9375 523.1875 C 1275.4341 523.33266 1310.5247 518.176 1342.4375 504.71875 C 1347.7789 506.49855 1334.574 525.68804 1337.375 529.3125 C 1344.5438 537.77852 1346.1786 526.28548 1348.125 520.71875 C 1351.1175 509.20478 1351.8069 494.10083 1367.75 496.875 C 1374.2985 497.92251 1388.9172 491.65688 1390.3125 496.59375 C 1387.1558 505.47256 1375.6621 516.83282 1384.875 525.53125 C 1403.2119 534.61941 1423.9375 527.085 1442.9375 524.15625 C 1453.1 521.65139 1463.8061 521.40515 1473.9375 519.71875 C 1478.4189 516.66904 1473.5167 510.27737 1468.9375 512.46875 C 1443.7955 513.20335 1419.3988 524.55488 1394.125 520.625 C 1381.9549 517.08359 1399.5604 503.59165 1399.2812 495.53125 C 1398.7233 480.02318 1379.4759 489.26203 1369.9062 488.40625 C 1361.7967 489.28678 1352.3047 492.97871 1358.6875 481.40625 C 1364.4628 471.02718 1361.0667 449.95565 1375.1562 448.34375 C 1391.2794 445.28362 1408.7252 440.12693 1417.8438 425.21875 C 1427.4776 413.58884 1426.142 393.72083 1411.25 387.0625 C 1404.9166 379.22846 1390.8652 391.76338 1389.875 387.4375 C 1393.0351 374.51218 1380.2989 360.80618 1368.5312 370.875 C 1361.7851 373.92228 1349.4229 388.21012 1355.9375 373.21875 C 1359.456 361.92943 1361.4967 348.50616 1373.4375 343.125 C 1383.7356 336.46306 1395.0122 329.41229 1398.1562 316.625 C 1401.7549 307.99586 1398.4153 295.48086 1387.5938 294.84375 z M 1387.1875 302.8125 C 1398.1013 310.66649 1384.7532 327.49144 1375.375 332.03125 C 1364.349 340.64951 1378.7562 313.21511 1382.0938 307.28125 C 1383.4247 305.57263 1384.8855 303.30322 1387.1875 302.8125 z M 773.375 302.90625 C 773.4075 303.19475 772.52041 303.36555 773.375 302.90625 z M 1292.2812 305.1875 C 1275.5013 305.91138 1266.6161 325.24858 1268.9688 340.15625 C 1270.0746 351.15955 1281.3351 358.53137 1291.9375 356.625 C 1300.8355 356.32501 1310.0087 348.71417 1309.9062 339.5 C 1309.0066 335.31313 1302.242 335.87797 1302.0625 340.15625 C 1299.3934 351.3165 1279.7125 352.3671 1277.2812 340.5 C 1274.6126 329.66137 1280.6457 313.01746 1293.5312 313.125 C 1296.4261 314.60624 1301.9998 315.67404 1302.7812 311.15625 C 1303.4483 305.70961 1295.8756 305.44712 1292.2812 305.1875 z M 1210.5625 306.28125 C 1224.8015 311.71871 1207.6397 321.79365 1199.875 323.34375 C 1194.2561 325.39923 1185.2443 328.93489 1192.5 320.625 C 1197.0519 314.59439 1202.5819 307.31172 1210.5625 306.28125 z M 558.1875 310.84375 C 558.00274 310.84506 557.81047 310.85358 557.625 310.875 C 550.78471 313.81197 537.69699 314.67233 535.4375 323.09375 C 536.89562 330.55445 546.42152 324.33577 549.53125 322.125 C 561.93718 317.70295 538.32733 341.53106 538.625 349.78125 C 530.9766 363.41277 549.65417 376.14438 560.9375 368.71875 C 564.33836 364.11332 557.34358 360.22994 553.3125 362.3125 C 532.17442 354.44347 564.69974 330.8874 564.1875 315.71875 C 563.58173 313.0079 560.95897 310.82411 558.1875 310.84375 z M 1255.25 316.625 C 1265.0892 316.64738 1261.8272 329.55393 1256.6875 335.78125 C 1249.5723 343.6585 1238.7651 333.66035 1229.875 335.375 C 1215.9188 336.00877 1208.3431 353.74228 1193.7188 351.6875 C 1181.746 351.18363 1180.4236 332.55012 1193.3438 333.75 C 1203.0382 330.83857 1213.4279 327.99156 1220.8125 320.65625 C 1224.346 328.35042 1230.4788 319.57447 1235.5625 319.71875 C 1240.8527 318.31578 1246.265 317.21081 1251.75 317.0625 C 1253.0603 316.76727 1254.2321 316.62268 1255.25 316.625 z M 734.625 321.9375 C 726.00438 331.88368 706.87624 364.10181 694.5625 352.9375 C 687.73963 329.37226 719.04376 325.96034 734.625 321.9375 z M 1352.4375 357.375 C 1347.3735 368.36787 1347.8493 382.60082 1340.25 391.78125 C 1326.2732 401.91376 1311.0377 414.99847 1292.6875 413.625 C 1281.9439 411.82021 1269.7035 396.15131 1280.9375 387.4375 C 1301.4017 371.07151 1328.7107 367.04615 1352.4375 357.375 z M 1378.8125 375.4375 C 1384.5411 384.44861 1381.5343 397.70019 1376.9688 407 C 1369.5123 417.92827 1367.3606 433.93224 1359.9375 443.0625 C 1350.0888 443.75018 1333.0358 448.73859 1327.6562 445.96875 C 1336.7342 429.64264 1344.0302 412.34828 1349.7188 394.5625 C 1359.1253 387.96602 1367.5765 378.74244 1378.8125 375.4375 z M 1402.3125 392.71875 C 1415.3379 393.33945 1420.0375 409.84602 1412.2188 419.125 C 1404.8458 431.81306 1390.6373 437.55247 1376.7812 439.75 C 1365.3782 443.38216 1378.3345 425.77312 1379.5938 419.625 C 1385.0545 409.56447 1390.1172 395.91915 1402.3125 392.71875 z M 1359.1562 451.375 C 1354.7109 465.29884 1350.8087 479.38888 1347.125 493.53125 C 1321.4833 506.93992 1292.3113 511.73527 1263.7812 514.53125 C 1288.0627 501.1931 1306.8474 479.63407 1321.4688 456.4375 C 1334.0412 454.82884 1346.6391 453.38557 1359.1562 451.375 z M 1310.9375 457.84375 C 1297.1185 477.87684 1280.2791 497.42319 1258.0312 508.125 C 1245.7647 508.36527 1234.6323 516.41842 1222.6562 513.25 C 1212.9097 513.01563 1198.998 503.06226 1207.9062 493.40625 C 1225.4688 479.2189 1248.048 473.4481 1269.0625 466.21875 C 1282.7517 462.22618 1296.8345 459.81946 1310.9375 457.84375 z "
       transform="translate(-376.5,253.36218)"
       id="path2998" />
  </g>
</svg>
