<?xml version="1.0" encoding="UTF-8" standalone="no"?>
<!-- Created with Inkscape (http://www.inkscape.org/) -->
<svg
   xmlns:svg="http://www.w3.org/2000/svg"
   xmlns="http://www.w3.org/2000/svg"
   version="1.0"
   width="368.75"
   height="52.5"
   id="svg2"
   xml:space="preserve"><defs
     id="defs5" /><g
     transform="matrix(1.25,0,0,-1.25,0,52.5)"
     id="g11"><g
       transform="scale(0.1,0.1)"
       id="g13"><path
         d="M 99.2344,348.062 C 104.66,320.941 114.238,297.062 129.238,276.062 C 147.238,243.062 180.238,225.062 198.238,195.062 C 216.238,165.062 228.238,102.062 180.238,96.0625 C 159.238,117.062 114.238,120.062 114.238,150.062 C 117.238,174.062 150.238,150.062 168.238,141.062 C 177.238,138.062 180.238,150.062 177.238,156.062 C 159.238,195.062 126.238,213.062 99.2344,246.062 C 78.2344,276.062 72.2344,309.062 63.2344,345.062 C 60.2344,351.062 54.2344,363.062 51.2344,357.066 C 0.234375,285.062 51.2344,201.062 30.2344,123.062 C 30.2344,114.062 12.2344,117.062 12.2344,126.062 C 15.2344,153.062 9.23438,183.062 6.23438,210.062 C 3.23438,267.062 0.234375,327.066 33.2344,381.062 C 39.2344,390.062 48.2344,405.062 66.2344,399.062 C 72.2344,396.062 81.2344,390.062 81.2344,387.066 C 90.2344,375.062 96.2344,363.062 99.2344,348.062"
         id="path15"
         style="fill:#000000;fill-opacity:1;fill-rule:nonzero;stroke:none" /><path
         d="M 984.246,177.062 C 975.246,195.062 993.246,210.062 1008.25,216.062 C 1017.25,219.062 1026.25,213.062 1026.25,207.062 C 1032.25,195.062 1026.57,173.172 1011.25,168.062 C 1002.25,165.062 990.246,168.062 984.246,177.062 z M 1047.25,237.062 C 1017.25,228.062 978.246,237.062 960.246,207.062 C 954.246,201.062 948.246,186.062 951.246,174.062 C 954.246,165.062 960.246,156.062 966.246,147.062 C 981.246,135.062 1002.25,135.062 1017.25,144.062 C 1035.25,153.062 1032.25,189.062 1053.25,198.062 C 1059.25,201.062 1068.25,195.062 1077.25,192.062 C 1101.25,177.062 1092.25,150.062 1113.25,135.062 C 1119.25,129.062 1131.25,138.062 1140.25,141.062 C 1155.25,147.062 1167.25,129.062 1179.25,120.062 C 1203.25,108.062 1218.25,138.062 1224.25,162.062 C 1224.25,174.062 1245.25,177.062 1257.25,171.062 C 1269.25,165.062 1266.25,150.062 1275.25,144.062 C 1290.25,135.062 1311.25,135.062 1329.25,138.062 C 1359.25,144.062 1377.25,171.062 1404.25,174.062 C 1410.25,174.062 1419.25,159.062 1431.25,156.062 C 1446.25,150.062 1458.25,162.062 1470.25,174.062 C 1473.25,174.062 1476.25,174.062 1479.25,174.062 C 1524.25,117.062 1569.25,63.0625 1623.25,15.0586 C 1635.25,3.0625 1644.25,27.0625 1650.25,39.0625 C 1650.25,45.0625 1647.25,51.0625 1644.25,57.0625 C 1599.25,108.062 1539.25,144.062 1506.25,204.062 C 1497.25,222.062 1494.25,243.062 1491.25,264.062 C 1491.25,273.062 1473.25,267.062 1467.25,258.062 C 1461.25,240.062 1458.25,219.062 1455.25,198.062 C 1455.25,195.062 1449.25,189.062 1443.25,192.062 C 1434.25,198.062 1428.25,210.062 1428.25,219.062 C 1425.25,237.062 1437.25,252.062 1440.25,270.062 C 1443.25,285.062 1434.25,288.062 1422.25,285.062 C 1404.25,276.062 1401.25,258.062 1395.25,240.062 C 1392.25,228.062 1398.25,216.062 1398.25,204.062 C 1392.25,183.062 1368.25,177.062 1350.25,165.062 C 1332.25,156.062 1305.25,159.062 1296.25,177.062 C 1287.25,189.062 1305.25,204.062 1302.25,219.062 C 1299.25,222.062 1299.25,228.062 1293.25,225.062 C 1284.25,219.062 1281.25,210.062 1275.25,204.062 C 1266.25,198.062 1257.25,195.062 1248.25,201.062 C 1236.25,213.062 1221.25,222.062 1209.25,234.062 C 1200.25,240.062 1176.25,240.062 1179.25,222.062 C 1185.25,201.062 1215.25,168.062 1191.25,156.062 C 1182.25,150.062 1173.25,168.062 1161.25,171.062 C 1152.25,171.062 1137.25,159.062 1134.25,168.062 C 1128.25,195.062 1104.99,211.004 1086.25,225.062 C 1074.25,234.062 1062.25,240.062 1047.25,237.062"
         id="path17"
         style="fill:#000000;fill-opacity:1;fill-rule:nonzero;stroke:none" /><path
         d="M 1728.25,186.062 C 1737.25,186.062 1749.25,189.062 1749.25,180.062 C 1749.25,171.062 1725.25,164.766 1725.25,180.062 C 1725.25,183.062 1728.25,186.062 1728.25,186.062 z M 1695.25,174.062 C 1692.25,159.062 1707.25,147.062 1725.25,150.062 C 1740.25,153.062 1755.25,162.062 1767.25,171.062 C 1782.25,141.062 1761.25,102.062 1773.25,69.0625 C 1779.25,57.0625 1797.25,57.0625 1800.25,63.0625 C 1815.25,90.0625 1791.25,117.062 1797.25,144.062 C 1803.25,165.062 1806.25,183.062 1803.25,201.062 C 1800.25,213.062 1785.25,225.062 1779.25,216.062 C 1773.25,210.062 1764.25,195.062 1758.25,195.062 C 1749.25,192.062 1743.62,207.062 1731.25,207.062 C 1713.25,207.062 1695.25,189.062 1695.25,174.062"
         id="path19"
         style="fill:#000000;fill-opacity:1;fill-rule:nonzero;stroke:none" /><path
         d="M 2037.26,99.0625 C 2028.26,102.062 2019.26,108.062 2016.26,117.062 C 2016.26,129.062 2022.26,147.062 2034.26,144.062 C 2043.26,144.062 2049.26,132.062 2049.26,120.062 C 2049.26,111.062 2049.26,96.0625 2037.26,99.0625 z M 2058.26,183.062 C 2055.26,186.062 2046.26,186.062 2043.26,189.062 C 2022.26,210.062 2001.26,231.062 1989.26,258.062 C 1980.26,285.062 1980.26,324.062 2010.26,339.062 C 2028.26,345.062 2052.26,345.062 2061.26,327.066 C 2073.26,297.062 2049.26,273.062 2019.26,261.062 C 2016.26,261.062 2022.26,249.062 2031.26,252.062 C 2055.26,258.062 2082.26,270.062 2085.26,297.062 C 2085.26,327.066 2064.26,357.066 2034.26,357.066 C 2019.26,357.066 2001.26,360.062 1986.26,348.062 C 1968.25,330.062 1956.25,312.062 1953.25,288.062 C 1953.25,270.062 1953.25,255.062 1962.25,240.062 C 1974.25,210.062 2010.26,195.062 2016.26,165.062 C 2019.26,153.062 1998.26,141.062 1992.26,126.062 C 1986.26,102.062 2001.26,84.0625 2022.26,75.0625 C 2034.26,72.0625 2046.26,78.0625 2058.26,84.0625 C 2067.26,90.0625 2070.26,102.062 2076.26,111.062 C 2079.26,126.062 2073.26,141.062 2076.26,156.062 C 2076.26,171.062 2097.26,180.062 2112.26,174.062 C 2127.26,165.062 2130.26,135.062 2154.26,144.062 C 2178.26,153.062 2193.26,177.062 2214.26,183.062 C 2226.26,189.062 2238.26,162.062 2256.26,153.062 C 2262.26,150.062 2271.26,153.062 2277.26,159.062 C 2277.26,162.062 2277.26,168.062 2277.26,171.062 C 2259.26,186.062 2247.26,204.062 2241.26,225.062 C 2229.26,261.062 2259.26,291.062 2250.26,327.066 C 2247.26,333.062 2238.26,330.062 2235.26,330.062 C 2205.26,300.062 2208.26,252.062 2202.26,213.062 C 2202.26,195.062 2175.26,162.062 2157.26,180.062 C 2136.26,201.062 2109.26,192.062 2085.26,192.062 C 2076.26,192.062 2067.26,183.062 2058.26,183.062 z M 2163.26,276.062 C 2151.26,279.062 2139.26,270.062 2139.26,261.062 C 2136.26,252.062 2150.77,252.062 2160.26,252.062 C 2172.26,252.062 2178.26,270.062 2163.26,276.062"
         id="path21"
         style="fill:#000000;fill-opacity:1;fill-rule:nonzero;stroke:none" /><path
         d="M 2466.26,210.062 C 2472.26,207.062 2484.26,207.062 2487.26,216.062 C 2487.26,240.062 2508.26,270.062 2532.26,267.062 C 2532.26,267.062 2532.26,261.062 2535.26,258.062 C 2538.26,246.062 2524.76,228.438 2523.26,213.062 C 2520.91,188.988 2553.26,186.062 2571.26,189.062 C 2580.26,192.062 2592.26,189.062 2598.26,201.062 C 2607.26,228.062 2604.26,255.062 2610.26,282.062 C 2610.26,294.062 2619.26,324.062 2631.26,312.062 C 2655.26,291.062 2634.26,252.062 2634.26,222.062 C 2637.26,204.062 2646.26,189.062 2664.26,186.062 C 2685.26,183.062 2691.26,207.062 2694.26,222.062 C 2703.26,246.062 2679.26,267.062 2685.26,291.062 C 2688.26,300.062 2706.26,321.062 2709.26,306.062 C 2718.26,276.062 2724.26,249.062 2742.26,225.062 C 2772.27,186.062 2796.27,147.062 2835.27,117.062 C 2868.27,93.0625 2892.27,69.0625 2922.27,48.0625 C 2925.27,51.0625 2928.27,51.0625 2931.27,51.0625 C 2949.27,42.0625 2949.27,12.0586 2931.27,9.05859 C 2916.27,6.05859 2901.27,12.0586 2889.27,21.0586 C 2853.27,54.0625 2811.27,69.0625 2781.27,111.062 C 2760.26,144.062 2730.26,168.062 2712.26,204.062 C 2682.26,195.062 2679.26,147.062 2643.26,159.062 C 2631.26,165.062 2622.26,177.062 2613.26,180.062 C 2586.26,183.062 2562.26,165.062 2535.26,168.062 C 2517.26,171.062 2502.26,183.062 2484.26,189.062 C 2475.26,192.062 2466.26,192.062 2457.26,189.062 C 2442.26,180.062 2442.26,159.062 2427.26,150.062 C 2406.26,144.062 2388.26,156.062 2370.26,162.062 C 2358.26,165.062 2340.26,147.062 2325.26,150.062 C 2295.26,156.062 2295.26,204.062 2316.26,228.062 C 2322.26,234.062 2328.26,225.062 2328.26,222.062 C 2337.26,207.062 2325.26,186.062 2337.26,180.062 C 2358.26,168.062 2367.26,192.062 2379.26,204.062 C 2382.26,204.062 2385.26,204.062 2388.26,204.062 C 2397.26,195.062 2397.26,180.062 2406.26,174.062 C 2415.26,171.062 2421.26,177.062 2424.26,183.062 C 2430.26,204.062 2409.26,222.062 2412.26,243.062 C 2415.26,249.062 2424.26,255.062 2430.26,252.062 C 2445.26,240.062 2448.26,219.062 2466.26,210.062"
         id="path23"
         style="fill:#000000;fill-opacity:1;fill-rule:nonzero;stroke:none" /><path
         d="M 1002.25,348.062 C 996.246,393.062 942.246,402.066 903.246,411.062 C 870.242,420.066 840.242,423.066 807.242,417.066 C 804.242,417.066 797.863,419.172 792.242,417.066 C 768.242,408.062 744.242,399.062 726.242,378.062 C 717.242,363.062 717.242,348.062 723.242,333.062 C 756.242,267.062 822.242,237.062 864.242,174.062 C 876.242,159.062 846.242,147.062 831.242,141.062 C 813.242,135.062 801.242,153.062 789.242,159.062 C 774.242,165.062 759.242,147.062 741.242,141.062 C 732.242,138.062 717.242,147.062 717.242,156.062 C 720.242,162.062 729.242,168.062 726.242,171.062 C 720.242,177.062 705.242,177.062 699.242,171.062 C 681.242,156.062 660.242,126.062 633.242,135.062 C 618.242,138.062 585.242,153.062 600.242,174.062 C 612.242,183.062 630.242,189.062 642.242,198.062 C 657.242,213.062 654.242,246.062 633.242,249.062 C 603.242,255.062 579.242,225.062 564.242,201.062 C 546.242,171.062 561.242,120.062 600.242,111.062 C 627.242,102.062 651.242,111.062 675.242,123.062 C 693.242,132.062 708.242,111.062 726.242,114.062 C 735.242,117.062 747.242,120.062 756.242,123.062 C 771.242,129.062 786.242,114.062 801.242,114.062 C 822.242,117.062 843.242,129.062 861.242,138.062 C 870.242,144.062 873.242,123.062 882.242,120.062 C 894.242,117.062 912.246,117.062 915.246,129.062 C 921.246,168.062 879.242,192.062 867.242,225.062 C 864.242,228.062 870.242,237.062 876.242,240.062 C 900.246,246.062 924.246,240.062 945.246,255.062 C 978.246,276.062 1011.25,306.062 1002.25,348.062 z M 612.242,225.062 C 621.242,228.062 627.242,222.062 627.242,216.062 C 624.242,204.062 609.242,192.062 597.242,204.062 C 594.242,213.062 600.508,221.152 612.242,225.062 z M 969.246,312.062 C 969.246,297.062 954.246,279.062 936.246,270.062 C 915.246,261.062 894.242,270.062 870.242,267.062 C 858.242,264.062 855.242,252.062 846.242,246.062 C 837.242,243.062 830.953,251.785 825.242,258.062 C 795.242,291.062 741.242,318.062 753.242,366.062 C 753.242,375.062 768.242,381.062 777.242,387.066 C 798.242,399.062 822.242,399.062 846.242,396.062 C 897.246,390.062 975.246,375.062 969.246,312.062"
         id="path25"
         style="fill:#000000;fill-opacity:1;fill-rule:nonzero;stroke:none" /><path
         d="M 510.242,216.062 C 492.238,249.062 468.238,279.062 435.238,294.062 C 426.238,300.062 411.238,285.062 414.238,279.062 C 432.238,246.062 471.238,231.062 495.238,201.062 C 498.238,195.062 501.238,189.062 501.238,186.062 C 498.238,177.062 488.488,189.438 482.488,186.438 C 461.863,176.312 447.238,165.062 429.238,153.062 C 414.238,141.062 393.238,144.062 381.238,156.062 C 378.238,162.062 381.238,174.062 375.238,180.062 C 372.238,180.062 366.238,180.062 366.238,183.062 C 366.238,198.062 372.238,216.062 369.238,231.062 C 366.238,252.062 345.238,258.062 330.238,252.062 C 309.238,240.062 285.238,222.062 276.238,201.062 C 273.238,192.062 267.238,183.062 264.238,174.062 C 258.238,156.062 252.238,135.062 264.238,117.062 C 285.238,87.0625 324.238,117.062 351.238,126.062 C 354.238,126.062 360.238,120.062 363.238,117.062 C 378.238,111.062 393.238,117.062 408.238,117.062 C 423.238,114.062 432.238,141.062 441.238,132.062 C 462.238,108.062 504.242,84.0625 522.242,117.062 C 540.242,144.062 528.242,183.062 510.242,216.062 z M 345.238,153.062 C 326.738,132.062 290.238,139.062 288.238,162.062 C 286.238,185.062 305.738,198.562 309.238,204.062 C 312.84,209.723 327.238,222.062 336.238,219.062 C 342.238,216.062 348.238,207.062 348.238,201.062 C 354.238,186.062 356.801,166.188 345.238,153.062 z M 495.238,144.062 C 492.238,144.062 489.238,141.062 489.238,141.062 C 474.238,150.062 485.863,163.938 495.238,174.062 C 504.242,165.062 510.242,144.062 495.238,144.062"
         id="path27"
         style="fill:#000000;fill-opacity:1;fill-rule:nonzero;stroke:none" /></g></g></svg>