<?xml version="1.0" encoding="UTF-8" standalone="no"?>
<!-- Created with Inkscape (http://www.inkscape.org/) -->
<svg
   xmlns:svg="http://www.w3.org/2000/svg"
   xmlns="http://www.w3.org/2000/svg"
   version="1.0"
   width="305"
   height="144"
   id="svg2">
  <defs
     id="defs5" />
  <path
     d="M 45.39271,44.335058 C 59.400952,33.809235 71.697277,22.652066 87.5,14.6875 C 93.672931,11.54205 109.6854,4.2125675 110.59375,15.4375 C 111.18882,19.158887 111.06009,19.59375 109.25,19.59375 C 106.68323,19.59375 105.44953,22.465702 107.65625,23.3125 C 109.66811,24.084523 111.77093,21.417265 112.59375,17.03125 C 113.65141,11.393451 109.23061,7.2241122 102.59375,7 C 101.64563,6.967984 100.65487,7.0204189 99.625,7.15625 C 84.87938,9.1858154 72.092924,17.488508 60.957138,27.181235 C 57.382142,30.272487 45.877239,39.182159 45.640114,39.469016 C 45.631392,39.505293 42.35045,34.36017 39.584083,32.406779 C 36.758066,30.411268 36.210415,29.795507 31.924,29.509294 C 30.909226,29.441535 28.901951,29.069823 24.897351,30.459746 C 20.322397,32.047629 11.188364,37.978659 8.1277705,44.147287 C 5.975282,48.485628 5.682576,57.647214 7.6978647,61.346053 C 8.7104734,63.008533 11.93086,63.988644 14.20295,63.566187 C 22.886251,62.226228 30.435769,55.635292 37.774673,50.347782 M 57.59375,56.78125 C 57.536779,59.828626 58.314745,59.968778 61.25,60.25 C 63.151423,60.43217 65.16252,59.765892 66.25,59.15625 C 69.074101,57.573055 70.199385,56.93543 73.4375,54.4375 C 76.420196,52.136602 72.200173,56.800673 74.03125,57.90625 C 78.11583,60.37246 84.706779,57.11527 93.90625,46.28125 C 97.624974,42.471012 101.7573,36.022302 107.25,35.96875 C 108.67532,37.39407 104.8173,44.59932 99.9375,49.59375 C 97.090916,52.585139 94.769779,55.743155 92.34375,58.96875 C 89.701289,61.36015 90.068991,65.808073 92.9375,66.21875 C 105.69884,61.945977 112.97922,50.626695 123.4375,43.09375 C 126.37709,40.36621 130.34717,38.065908 131,38.71875 C 128.76211,44.554728 124.4385,49.316768 120.125,53.71875 C 114.85011,59.363676 96.842339,74.241244 101.625,82.15625 C 102.62809,83.45593 107.99919,82.860396 110.09375,81.21875 C 115.16759,78.249551 115.00628,76.811356 118.75,73.78125 C 122.25466,70.56865 126.40545,65.302356 128.90625,62.9375 C 132.03918,59.974868 133.59157,57.649999 135.25,56 C 145.02327,46.27636 151.35593,35.46164 151.375,29.0625 C 151.37962,27.51134 151.14887,27.406219 149.90625,28.4375 C 145.06612,35.871393 141.4627,43.94495 135.4375,50.65625 C 130.36063,58.963897 122.88634,66.494308 115.3125,72.40625 C 112.97738,74.58371 110.67839,76.11589 110.1875,75.8125 C 109.28764,75.25636 111.64055,70.790627 113.8125,68.9375 C 114.45713,68.3875 116.2718,66.137501 117.875,63.9375 C 119.4782,61.7375 122.68405,57.687501 124.96875,54.9375 C 127.25345,52.1875 130.57955,47.237501 132.375,43.9375 C 134.17045,40.6375 136.24661,36.812501 137,35.4375 C 138.76559,32.21513 138.77043,29.437499 137,29.4375 C 136.23489,29.4375 132.16231,31.01875 129.5,33.21875 C 123.7106,38.369675 119.69251,41.493389 114.53125,46.6875 C 111.05635,49.945143 107.53832,52.904062 103.59375,55.46875 C 102.39004,56.59017 101.40625,57.300099 101.40625,57.03125 C 104.81785,49.395847 113.04518,45.55423 112.375,36.15625 C 112.37892,34.21068 111.68897,33.067808 110.03125,32.3125 C 106.80361,30.84189 102.36824,33.232799 96.125,39.8125 C 90.580046,45.65627 91.257676,44.976 85.46875,50.34375 C 81.257938,54.24821 79.345396,55.318721 79.4375,53.6875 C 79.46079,53.275 80.810789,51.849202 82.4375,50.5 C 85.073801,48.167067 86.216708,45.170022 88.4375,42.46875 C 91.827867,38.50227 92.116728,36.674139 89.65625,34.875 C 87.53624,33.32481 84.436891,34.699011 84.34375,37.21875 C 84.298651,38.43882 83.984025,38.270449 83.3125,36.59375 C 82.53437,34.65087 81.898494,34.351329 79.6875,34.90625 C 75.740928,35.89678 58.44496,48.013873 57.948617,54.355311 M 290.78125,8.40625 C 287.41036,8.5507803 281.99887,9.6369102 278.90625,10.9375 C 272.56562,13.60403 260.41676,25.633562 258.90625,28.03125 C 257.41783,30.39388 255.86223,28.770568 248.65625,32.125 C 244.58861,34.018516 243.80643,29.586299 247.21875,25.90625 C 248.82354,24.105764 250.66335,21.618745 253.09375,21.03125 C 256.61075,20.181099 256.53881,18.9138 255.6875,18.0625 C 255.34703,17.72202 253.8451,17.437499 252.34375,17.4375 C 249.49296,17.4375 244.31491,22.32476 242.15625,27.0625 C 239.3404,30.697491 237.56379,34.491992 232.3125,34.9375 C 230.70561,35.14086 229.40625,35.184119 229.40625,35.03125 C 230.52573,29.782215 233.45604,27.405857 237.4375,24.1875 C 239.88413,21.84476 243.03125,19.14716 244.40625,18.21875 L 246.90625,16.53125 L 243.75,16.5 C 241.35538,16.46007 239.47096,17.511289 235.84375,20.9375 C 232.55906,23.957736 228.80181,26.149989 225.78125,29.4375 C 222.68749,32.208313 219.65405,36.154531 216,37.4375 C 214.57351,37.4375 213.40625,37.08996 213.40625,36.65625 C 213.40625,34.80779 217.19722,27.365449 220.15625,24.3125 C 222.48687,21.90792 220.99381,21.21875 219.8125,21.21875 C 218.08529,21.21875 216.14133,25.366519 210.40625,32.1875 C 208.19818,34.75023 199.53353,43.54996 197.40625,37.90625 C 198.51884,32.159328 200.5947,26.184321 204.6875,25.59375 C 208.90035,21.78117 201.97718,22.656251 199.53125,22.65625 C 196.9841,22.65625 199.44691,25.008937 196.40625,30.4375 C 194.40228,34.015244 194.3737,33.372121 191.90625,35.875 C 188.83955,38.98575 186.14745,40.72083 183.375,41.34375 C 178.68953,42.39651 178.50072,42.82576 187.125,32.78125 C 190.03098,29.39672 192.40625,26.367961 192.40625,26.03125 C 192.40625,25.69453 191.03856,25.498249 189.375,25.625 C 187.40188,25.77535 186.52591,26.29672 186.84375,27.125 C 184.81186,33.740832 168.64279,43.952639 163.0625,47.21875 C 156.56528,49.7012 154.82162,49.423229 156.65625,46.1875 C 159.31324,42.347629 162.30994,39.454958 166.03125,36.90625 C 169.01793,34.13829 171.40625,33.700751 171.40625,35.9375 C 171.40625,36.7625 172.08125,37.437501 172.90625,37.4375 C 173.73125,37.4375 174.40625,37.03627 174.40625,36.53125 C 174.40625,36.02623 174.66907,34.893589 175,34.03125 C 175.41274,32.95566 174.75699,32.16053 172.9375,31.46875 C 170.83682,30.67008 169.41978,30.880001 166.09375,32.53125 C 158.45739,36.32242 149.19477,47.891271 150.6875,51.78125 C 151.3808,53.58798 160.35583,52.067484 164.21875,49.8125 C 168.73434,47.176529 173.72212,45.193492 172.84375,47.25 C 171.61699,50.122166 178.1279,47.944921 182.0625,45.625 C 185.98694,43.31107 187.47179,42.91907 189.4375,43.65625 C 192.57341,44.83227 201.61242,43.768895 204.03125,41.90625 C 210.19754,37.157839 207.40688,35.440936 207.8125,41.9375 C 212.40321,44.89212 218.436,41.351256 222.625,38.4375 C 225.16322,36.0728 225.77663,35.999549 227.28125,37.8125 C 228.22813,38.95343 229.43289,38.804852 234.6875,36.96875 C 239.40484,35.32038 241.41788,35.042901 242.6875,35.84375 C 243.95139,36.64099 245.18504,36.489888 247.625,35.21875 C 252.08496,32.89526 255.58914,32.215818 257.375,33.375 C 258.6601,34.20914 258.58986,34.57911 256.875,35.875 C 251.79765,39.617356 244.28442,48.540068 249.25,54.8125 C 250.26459,55.73069 251.68281,58.276701 252.40625,60.46875 C 253.49419,63.76524 253.49813,65.129057 252.40625,68.4375 C 247.72093,78.754841 245.40352,77.123943 232.40625,77.96875 C 194.59447,82.656187 138.67435,97.085411 120.4375,123.09375 C 116.24493,132.15176 122.17379,133.76768 128.78125,133.25 C 172.79501,127.26578 213.72444,109.68224 248.75,82.625 C 251.81046,79.40265 252.84852,79.160612 269.8125,77.4375 C 276.3963,76.686835 282.67891,75.051295 289.21875,74.09375 C 291.58294,73.41243 269.86048,73.84161 262,75.0625 C 252.02738,76.611454 254.91471,76.799043 257.09375,73.3125 C 260.22448,70.014943 261.98057,67.121933 260.09375,62.6875 C 260.0676,61.99639 258.73693,59.97139 257.125,58.1875 C 253.85807,54.57209 252.40625,51.434019 252.40625,48.0625 C 252.40625,45.14435 258.22403,38.404959 262.53125,36.34375 C 272.72195,31.46703 275.5254,29.94286 281.90625,25.875 C 293.34771,18.58095 298.6332,10.56201 293.3125,8.59375 C 292.8104,8.4080125 291.90488,8.3580732 290.78125,8.40625 z M 286.875,11.40625 C 288.20016,11.317711 289.56636,11.597415 290.90625,12.4375 C 291.24849,12.99125 290.56273,14.83198 289.375,16.5 C 287.0812,19.72134 277.21778,27.437499 275.40625,27.4375 C 272.29239,28.519854 265.19279,33.671255 263.40625,31.09375 C 263.40625,28.56019 270.00831,21.360779 275.96875,17.40625 C 279.10187,15.310022 282.89951,11.671867 286.875,11.40625 z M 78.78125,38.8125 C 78.877766,38.81266 78.986313,38.845764 79.0625,38.875 C 79.889617,39.1924 80.738737,39.437501 80.96875,39.4375 C 81.145594,43.351102 76.837047,47.634316 74.15625,50.40625 C 69.776582,53.23991 63.406249,56.486631 63.40625,55.875 C 63.40625,52.403911 75.789251,38.807525 78.78125,38.8125 z M 34.979429,34.379465 C 39.331772,34.914685 41.754578,38.941981 42.659426,40.870875 C 42.71273,40.984506 28.695034,51.348623 24.752605,54.176285 C 16.83566,58.752058 15.142815,60.229678 12.783577,59.13767 C 10.981923,58.303748 10.685055,55.396857 11.204018,52.212841 C 12.326426,45.326486 25.223235,33.179719 34.979429,34.379465 z M 241.46875,80 C 243.93563,79.888398 245.42389,80.358605 242.75,82.4375 C 215.09518,101.90847 185.28503,118.77511 152.15625,126.875 C 149.36445,128.33135 132.56205,129.73098 128.90625,128.8125 C 122.17214,127.01184 127.29411,122.37444 129.90625,118.34375 C 164.73109,90.706912 196.43498,86.464103 234.40625,81 C 235.57426,80.791831 239.00187,80.111602 241.46875,80 z"
     id="path2384"
     style="fill:#000000" />
</svg>
