<?xml version="1.0" encoding="UTF-8" standalone="no"?>
<!-- Created with Inkscape (http://www.inkscape.org/) -->

<svg
   xmlns:dc="http://purl.org/dc/elements/1.1/"
   xmlns:cc="http://creativecommons.org/ns#"
   xmlns:rdf="http://www.w3.org/1999/02/22-rdf-syntax-ns#"
   xmlns:svg="http://www.w3.org/2000/svg"
   xmlns="http://www.w3.org/2000/svg"
   xmlns:sodipodi="http://sodipodi.sourceforge.net/DTD/sodipodi-0.dtd"
   xmlns:inkscape="http://www.inkscape.org/namespaces/inkscape"
   id="svg2"
   version="1.1"
   inkscape:version="0.48.3.1 r9886"
   width="155.4903"
   height="32.484894"
   xml:space="preserve"
   sodipodi:docname="bmcclintock.svg"><metadata
     id="metadata8"><rdf:RDF><cc:Work
         rdf:about=""><dc:format>image/svg+xml</dc:format><dc:type
           rdf:resource="http://purl.org/dc/dcmitype/StillImage" /><dc:title></dc:title></cc:Work></rdf:RDF></metadata><defs
     id="defs6" /><sodipodi:namedview
     pagecolor="#ffffff"
     bordercolor="#666666"
     borderopacity="1"
     objecttolerance="10"
     gridtolerance="10"
     guidetolerance="10"
     inkscape:pageopacity="0"
     inkscape:pageshadow="2"
     inkscape:window-width="1920"
     inkscape:window-height="1033"
     id="namedview4"
     showgrid="false"
     fit-margin-top="0"
     fit-margin-left="0"
     fit-margin-right="0"
     fit-margin-bottom="0"
     showborder="false"
     inkscape:showpageshadow="false"
     inkscape:zoom="6.5926795"
     inkscape:cx="70.204669"
     inkscape:cy="38.78355"
     inkscape:window-x="0"
     inkscape:window-y="25"
     inkscape:window-maximized="1"
     inkscape:current-layer="g10" /><g
     id="g10"
     inkscape:groupmode="layer"
     inkscape:label="bmcclintock"
     transform="matrix(1.25,0,0,-1.25,-211.50806,191.2191)"><path
       style="fill:#000000"
       d="m 294.99643,125.16353 c -0.18222,0.47923 -0.33131,1.84258 -0.33131,3.02966 0,1.18709 -0.0984,2.15834 -0.21872,2.15834 -0.12029,0 -1.53264,-0.61728 -3.13854,-1.37174 -3.75164,-1.76252 -6.46774,-1.85569 -6.46774,-0.22187 0,0.80536 -0.25062,1.06358 -0.81875,0.84356 -1.35142,-0.52335 -2.45625,0.23126 -2.45625,1.67763 0,1.54561 2.71482,4.5809 4.09725,4.5809 1.23947,0 0.73932,-1.23343 -0.82122,-2.02521 -1.33458,-0.67714 -2.48739,-2.25938 -2.00262,-2.74861 0.42443,-0.42833 2.43171,0.32896 3.36294,1.26874 0.45209,0.45624 0.82198,1.41612 0.82198,2.13307 0,0.88921 0.30361,1.29104 0.95521,1.26422 0.52536,-0.0216 1.38505,0.14425 1.91041,0.3686 0.76485,0.32661 0.95521,0.12955 0.95521,-0.9888 0,-1.51742 -1.26882,-3.12795 -2.46428,-3.12795 -0.72937,0 -2.44822,-2.01975 -2.44822,-2.8768 0,-0.67008 1.42217,-0.50631 3.7437,0.43111 1.76099,0.71109 2.1803,1.18284 2.42966,2.73362 0.76554,4.76081 5.68181,12.38157 7.98754,12.38157 1.5102,0 1.45182,-1.40722 -0.23185,-5.58883 -0.74486,-1.84995 -1.22127,-3.58078 -1.05867,-3.84627 0.16259,-0.2655 -0.49136,-1.58866 -1.45324,-2.94035 -1.58098,-2.2217 -1.71761,-2.72394 -1.4233,-5.23177 0.31078,-2.6482 -0.227,-3.7495 -0.92919,-1.90282 z m 2.07423,10.92995 c 3.47006,5.41429 4.1422,9.32737 1.0281,5.98542 -2.92123,-3.13497 -6.20019,-11.61252 -3.67275,-9.49566 0.46891,0.39273 1.659,1.97234 2.64465,3.51024 z m -116.41947,-9.48445 c -0.53483,1.45907 0.1342,4.83855 1.07391,5.42466 0.36975,0.23062 1.02637,0.28218 1.45915,0.11458 0.99552,-0.38553 1.74921,0.79114 1.76001,2.74775 0.006,1.15041 -0.25426,1.51483 -1.08331,1.51483 -0.60042,0 -1.09167,0.34147 -1.09167,0.75883 0,0.96623 1.31298,2.08204 2.20871,1.87703 1.13316,-0.25936 3.32098,3.45826 3.13889,5.33369 -0.13337,1.37357 -0.43499,1.70185 -1.69788,1.84796 -3.30375,0.38223 -5.68032,-4.141 -9.06549,-17.25395 l -0.56882,-2.20339 0.22493,2.75424 c 0.22447,2.74857 2.499,10.92823 3.73998,13.44971 1.78666,3.63023 4.95243,5.26605 7.5139,3.8826 1.8072,-0.97606 1.07759,-5.26704 -1.40164,-8.24333 -1.01286,-1.21593 -1.38903,-7.16101 -0.45311,-7.16101 1.09728,0 0.87337,-1.09903 -0.22801,-1.11911 -0.53573,-0.01 -1.60516,-1.09833 -2.43525,-2.47881 -1.64616,-2.73768 -2.43165,-3.05405 -3.0943,-1.24628 z m 3.20616,3.88021 c 0.002,0.22723 -0.46102,0.41314 -1.02889,0.41314 -1.08643,0 -2.02898,-2.31682 -1.37621,-3.38273 0.32924,-0.53762 2.39679,2.01521 2.4051,2.96959 z m 10.78348,-4.77368 c -0.1753,0.17691 0.1522,1.70301 0.72778,3.39132 1.24758,3.65946 1.26819,4.03322 0.29637,5.37446 -0.68821,0.94984 -0.82162,0.78713 -1.61617,-1.97113 -0.79052,-2.74427 -2.55953,-5.48191 -3.52266,-5.45151 -0.21347,0.007 -0.9774,0.46947 -1.69763,1.0283 -1.14831,0.89098 -1.26412,1.30257 -0.94075,3.34339 0.63869,4.03086 3.32604,8.32029 4.6826,7.47419 0.93358,-0.58228 0.64835,-4.42073 -0.53564,-7.20823 -0.60796,-1.43134 -0.98076,-2.72821 -0.82845,-2.88192 0.38838,-0.39194 2.45134,4.33085 2.47604,5.66846 0.0687,3.72214 3.20594,1.90966 3.82547,-2.21012 0.34238,-2.27673 0.2144,-2.91455 -0.92474,-4.60858 -1.61859,-2.40703 -1.5531,-2.34132 -1.94222,-1.94863 z m -4.5997,6.61888 c 0.17774,1.10532 0.72362,2.45624 1.21308,3.00205 0.48946,0.54582 0.80114,1.44463 0.69263,1.99736 -0.25797,1.31402 -3.17339,-4.47083 -3.17339,-6.29671 0,-1.93325 0.89558,-1.01674 1.26768,1.2973 z m 33.11982,-4.02104 c 0,1.07723 -0.60326,1.20899 -1.48077,0.32342 -0.80132,-0.80868 -1.79423,-0.14661 -1.79423,1.19637 0,1.38311 -0.41792,1.35065 -1.60145,-0.12436 -1.1584,-1.44372 -2.76522,-1.03356 -2.76522,0.70585 0,1.15503 -0.0506,1.14432 -1.36699,-0.28914 -0.84799,-0.9234 -1.62512,-1.32639 -2.04688,-1.06142 -0.37393,0.23493 -1.23345,0.35497 -1.91004,0.26674 -1.6347,-0.21315 -2.10421,1.16786 -1.35724,3.99211 0.32758,1.23856 0.52009,2.32815 0.42779,2.42129 -0.0923,0.0932 -0.81087,0.006 -1.59681,-0.19258 -1.13381,-0.28719 -1.42899,-0.69463 -1.42899,-1.97247 0,-2.56052 -1.45176,-5.5498 -2.58241,-5.31737 -1.57826,0.32445 -1.07969,3.38311 1.73234,10.62783 2.61302,6.73197 3.83273,9.01677 4.47013,8.37352 0.19598,-0.19779 0.0967,-0.67545 -0.22071,-1.06148 -0.31738,-0.38603 -1.18706,-2.3131 -1.93262,-4.28238 -0.74557,-1.96928 -1.52502,-4.00204 -1.73211,-4.51724 -0.32037,-0.79701 -0.0483,-0.92352 1.82402,-0.84817 1.64797,0.0663 2.36041,0.39 2.83717,1.28902 0.94882,1.78916 3.21234,2.69374 4.21317,1.68372 0.69016,-0.6965 0.60476,-1.26644 -0.67261,-4.48869 -0.80473,-2.02998 -1.30626,-3.84921 -1.11451,-4.04272 0.45039,-0.45452 2.09244,1.72238 3.66951,4.86476 1.58631,3.16079 1.4672,2.98807 1.81714,2.63491 0.1651,-0.16661 -0.20334,-1.81134 -0.81875,-3.65494 -2.08351,-6.24162 -1.334,-6.49688 2.07465,-0.70656 1.86229,3.16349 3.6629,5.04478 4.16929,4.35608 0.0609,-0.0829 0.51743,-0.99519 1.01444,-2.02737 0.84235,-1.7494 0.84115,-2.08567 -0.0178,-4.95763 -0.98353,-3.28867 -1.80955,-4.74533 -1.80955,-3.1911 z m -18.24748,2.82083 c 0.18241,0.73346 0.23892,1.78695 0.12559,2.34111 -0.12684,0.62018 -0.43789,0.10747 -0.80905,-1.33355 -0.33164,-1.28761 -0.38816,-2.34111 -0.12559,-2.34111 0.26257,0 0.62664,0.6001 0.80905,1.33355 z m 17.87603,-0.34173 c 0.73923,0.82434 0.79,1.35517 0.30068,3.1436 l -0.58872,2.15179 -0.74258,-1.35335 c -0.82187,-1.49784 -1.04474,-4.93386 -0.32003,-4.93386 0.25368,0 0.86147,0.44632 1.35065,0.99182 z m -11.43882,0.89817 c 0.98169,1.51201 3.14774,7.03574 2.86919,7.31684 -1.00433,1.01356 -3.81261,-3.14914 -4.44602,-6.5903 -0.44118,-2.39683 0.27741,-2.72792 1.57683,-0.72654 z m 66.0462,-2.719 c -0.23479,0.61746 -0.82793,0.74045 -2.37056,0.4915 -1.305,-0.21059 -2.20079,-0.0979 -2.44944,0.30811 -0.2879,0.4701 -0.73347,0.41433 -1.67759,-0.20997 -0.79475,-0.52552 -1.4133,-0.64153 -1.62008,-0.30386 -0.21646,0.35345 -0.74703,0.32341 -1.50342,-0.0851 -0.87652,-0.47341 -1.22095,-0.47378 -1.37694,-0.001 -0.11442,0.34641 -0.65835,0.62983 -1.20873,0.62983 -0.55038,0 -1.0986,0.29641 -1.21825,0.65868 -0.14924,0.45179 -0.84564,0.26693 -2.21726,-0.58857 -1.16487,-0.72654 -2.63118,-1.17399 -3.51231,-1.0718 -1.44752,0.16788 -1.50947,0.29855 -1.43975,3.03698 0.0688,2.70313 -0.007,2.87086 -1.36458,3.02966 -2.70632,0.3165 -1.86838,4.95158 1.62003,8.96116 2.21427,2.54509 3.48759,2.61221 3.00134,0.15822 -0.44104,-2.22585 -2.68521,-6.62291 -3.52425,-6.90516 -1.59661,-0.53709 -0.0305,4.22312 1.84462,5.60687 0.52605,0.38819 0.83751,1.056 0.69213,1.48403 -0.3358,0.98866 -3.5052,-3.92738 -4.00114,-6.20615 -0.43383,-1.99334 -0.14786,-2.33605 1.58335,-1.89755 0.92541,0.2344 1.91863,1.40392 3.21139,3.78145 2.08611,3.83658 5.03695,6.22271 5.66213,4.57854 0.70564,-1.85575 -3.35062,-9.56205 -4.45032,-8.45497 -0.69865,0.70332 0.26493,3.08092 1.92935,4.76063 1.62542,1.64035 2.10317,2.83917 1.13147,2.83917 -1.41199,0 -6.58962,-9.72601 -6.58962,-12.37839 0,-1.94987 1.93408,-1.84728 4.43772,0.23538 1.52313,1.26703 2.02909,2.15695 2.28105,4.01208 0.17808,1.31115 0.87312,3.83261 1.54454,5.60325 1.25721,3.31548 4.38729,7.27978 5.29892,6.71118 1.19412,-0.74478 -1.95404,-9.96049 -4.33902,-12.70179 -0.86985,-0.99981 -1.58154,-2.2189 -1.58154,-2.70909 0,-1.77076 1.13335,-0.8299 2.57588,2.1384 0.8098,1.66631 1.8101,3.02966 2.22289,3.02966 0.41279,0 0.66725,-0.18591 0.56546,-0.41314 -0.10179,-0.22722 -0.87565,-1.73916 -1.71968,-3.35985 -0.84404,-1.6207 -1.42495,-3.0574 -1.29092,-3.19266 0.13403,-0.13527 1.61302,1.30542 3.28664,3.20152 3.54556,4.01689 4.90476,3.97295 1.54353,-0.0499 -1.24921,-1.49511 -2.2713,-2.90303 -2.2713,-3.12871 0,-0.64486 2.5705,1.95744 3.9428,3.99158 0.68343,1.01306 1.42683,1.84362 1.65199,1.84569 0.73903,0.007 0.42913,-1.17424 -0.68229,-2.60016 -1.34341,-1.72355 -1.4845,-3.72539 -0.22828,-3.23891 0.47487,0.1839 1.0733,0.33436 1.32986,0.33436 0.47319,0 5.44842,10.17261 5.44842,11.14012 0,0.78207 2.32141,2.59165 3.35174,2.61274 1.14633,0.0235 1.76275,-3.83785 0.74593,-4.67255 -0.37488,-0.30774 -1.84293,-2.78655 -3.26232,-5.50848 -3.43806,-6.59302 -4.24959,-7.48548 -5.00359,-5.50254 z m 2.53074,2.65429 c 0,0.28216 -0.36844,0.20443 -0.81875,-0.17273 -0.45032,-0.37716 -0.81094,-1.08919 -0.8014,-1.58228 0.0146,-0.75319 0.1455,-0.72557 0.81875,0.17273 0.44077,0.5881 0.8014,1.30012 0.8014,1.58228 z m 0.47576,2.22087 c 0.91716,1.11527 1.42035,4.21657 0.68413,4.21657 -0.33773,0 -0.61406,-0.44839 -0.61406,-0.99642 0,-0.54802 -0.36063,-1.47758 -0.80139,-2.06567 -0.44076,-0.5881 -0.8092,-1.25518 -0.81875,-1.48241 -0.0281,-0.66823 0.8907,-0.47385 1.55007,0.32793 z m -12.29459,5.45597 c 2.06318,4.41087 2.82798,7.02331 2.05609,7.02331 -0.79141,0 -3.12939,-4.37988 -4.09645,-7.67413 -1.03563,-3.52783 -1.0161,-3.34282 -0.35299,-3.34282 0.28892,0 1.36593,1.79714 2.39335,3.99364 z m 15.58626,-0.60636 c 0.73631,2.13159 0.74976,1.94503 -0.16578,2.29959 -0.55838,0.21623 -0.82029,-0.28864 -0.96964,-1.86904 -0.24624,-2.60578 0.31104,-2.8171 1.13542,-0.43055 z m 1.14507,4.08167 c 0,0.47233 -0.24563,0.70558 -0.54584,0.51834 -0.30021,-0.18725 -0.54583,-0.5737 -0.54583,-0.85878 0,-0.28509 0.24562,-0.51834 0.54583,-0.51834 0.30021,0 0.54584,0.38645 0.54584,0.85878 z m -40.39167,-11.22886 0,1.74856 -1.2633,-1.19772 c -0.69482,-0.65874 -1.46606,-1.19771 -1.71387,-1.19771 -1.01829,0 0.26617,6.68492 2.14329,11.15466 0.27847,0.66306 0.15743,0.96398 -0.38771,0.96398 -0.4359,0 -1.26046,0.5378 -1.83235,1.1951 -1.02577,1.17896 -1.02507,1.18917 0.0519,0.75544 2.83933,-1.14353 3.22785,-0.99404 4.7892,1.84273 2.15022,3.90665 5.10728,4.75123 3.65635,1.04431 -0.84094,-2.14849 -2.51934,-4.15004 -3.83278,-4.57074 -1.13911,-0.36486 -3.06746,-4.69008 -3.58261,-8.03567 l -0.37292,-2.42184 1.19111,1.06641 c 0.6551,0.58653 1.96655,2.75549 2.91434,4.81992 0.94778,2.06442 1.92188,3.7535 2.16465,3.7535 0.76968,0 0.4867,-1.04259 -1.19608,-4.40678 -1.84469,-3.68787 -2.29416,-7.29506 -0.74761,-5.99974 0.48944,0.40994 1.68892,2.51478 2.66551,4.67744 0.97657,2.16265 2.04987,4.10317 2.3851,4.31225 0.94742,0.59092 0.72671,-0.40001 -0.68657,-3.08245 -0.71285,-1.35298 -1.48023,-3.0631 -1.7053,-3.80026 l -0.40923,-1.34029 1.43238,1.33542 c 0.78781,0.73449 1.4224,1.10631 1.4102,0.82627 -0.041,-0.94086 -3.15491,-4.21575 -3.69075,-3.88154 -0.29152,0.18183 -0.83357,-0.0385 -1.20456,-0.48961 -1.15775,-1.40783 -2.17834,-0.97288 -2.17834,0.92836 z m 4.90979,17.15047 c 0.005,0.87871 -1.11248,-0.27302 -1.93666,-1.99541 l -0.83994,-1.75532 1.38694,1.65254 c 0.76282,0.9089 1.38817,1.85308 1.38966,2.09819 z m 23.20063,-2.37361 c -0.18554,0.30296 0.0311,0.55085 0.48141,0.55085 0.45031,0 0.97055,-0.24789 1.15609,-0.55085 0.18554,-0.30297 -0.0311,-0.55085 -0.48141,-0.55085 -0.45031,0 -0.97055,0.24788 -1.15609,0.55085 z"
       id="path3026"
       inkscape:connector-curvature="0" /></g></svg>