<?xml version="1.0" encoding="utf-8"?>
<!-- Generator: Adobe Illustrator 13.0.1, SVG Export Plug-In . SVG Version: 6.00 Build 14948)  -->
<!DOCTYPE svg PUBLIC "-//W3C//DTD SVG 1.0//EN" "http://www.w3.org/TR/2001/REC-SVG-20010904/DTD/svg10.dtd">
<svg version="1.0" id="Layer_1" xmlns="http://www.w3.org/2000/svg" xmlns:xlink="http://www.w3.org/1999/xlink" x="0px" y="0px"
	 width="205px" height="62px" viewBox="0 0 205 62" enable-background="new 0 0 205 62" xml:space="preserve">
<path d="M2.475,1.988c1.282,9.834,2.354,19.704,3.15,29.591C6.069,37.098,6.779,43.078,5.8,48.571
	c-0.006,0.036-0.614-3.081-1.235-5.384c-1.071-3.961-1.21-8.208-1.333-12.28c-0.133-4.369,0.389-8.646,1.266-12.904
	c0.963-4.671,8.707-10.572,10.741-3.7c1,3.381,0.053,7.28-0.766,10.605c-0.486,1.776-1.213,3.456-2.179,5.032
	c5.335-9.143,5.765,2.563,5.837,3.445c0.236,2.949,1.834,25.183-4.738,20.949c-6.517-4.199,11.219-13.494,14.361-15.612
	c2.276-1.532,18.347-16.199,9.767-19.418c-5.945-2.232-8.216,11.558-8.663,14.197c-0.658,3.902,0.766,18.532,7.863,15.188
	c2.318-1.094,3.015-3.309,3.816-5.644c0.894-2.601,0.108-4.519,1.036-2.206c1.418,3.535,1.246,8.133,3.22,11.394
	c0.419,0.691,2.5,0.208,2.673-0.556c0.48-2.125,1.971-11.629,1.593-3.816c0.047,0.119,0.133,0.197,0.258,0.233
	c0.375,0.169,0.747,0.339,1.122,0.505c0.588,0.268,1.676-0.035,2.137-0.449c2.345-2.117,1.613-1.199,2.995-4.619
	c-0.794,1.96,1.715,5.879,2.989,7.483c0.386,0.485,1.663,0.039,2.06-0.191c3.802-2.229,3.652-10.028,4.574-13.919
	c1.063-4.483,2.042-8.946,2.706-13.507c-1.984-2.282-2.778-2.592-2.387-0.927c0.183,1.576,0.344,3.156,0.505,4.735
	c0.702,6.87,1.34,13.842,0.979,20.753c-0.297,5.679-0.561-0.711-0.228-2.826c1.724-10.88,8.452,0.395,9.72,4.967
	c0.225,0.81,2.72,0.113,2.682-0.72c-0.278-5.956,0.741-11.677,2.231-17.405c2.82-10.836,4.882-6.06,5.598,1.185
	c0.78,7.899,0.744,15.946,0.591,23.879c0.894-0.239,1.788-0.478,2.681-0.719c0.128-9.087,0.48-18.325,2.251-27.257
	c1.679-8.477,4.885,6.893,5.151,9.307c0.694,6.245,0.313,12.737-0.361,18.969c-0.1,0.922,2.576,0.386,2.665-0.395
	c0.872-7.644,1.949-15.271,3.35-22.838c0.422-2.281,1.805-8.154,1.844-8.063c2.545,5.842,2.475,13.479,3.353,19.718
	c0.302,2.157,0.657,9.29,4.644,7.101c2.229-1.222,3.012-5.385,3.672-7.184c1.105-2.998,2.523-5.815,1.341-8.615
	c1.519,3.591,0.466,8.209,1.851,11.992c0.072,0.203,0.309,0.27,0.5,0.292c0.181,0.022,0.361,0.044,0.541,0.063
	c0.719,0.086,1.802-0.163,2.174-0.849c1.035-1.907,2.185-4.511,1.674-6.626c0.924,3.797-0.142,8.03,0.607,11.916
	c0.137,0.717,1.826,0.117,2.146-0.056c2.892-1.543,2.6-8.026,3.222-10.8c0.892-3.953,3.275-6.562,3.417-0.305
	c0.092,3.891,0.072,8.418-0.577,12.273c-0.292,1.734,1.745,2.658,2.076,0.705c0.436-2.57,0.982-5.115,1.549-7.658
	c0.68-3.059,1.582-6.031,2.692-8.963c1.582-4.18,5.49,8.449,5.373,9.953c-0.072,0.961,2.459,0.331,2.668-0.394
	c0.529-1.852,1.154-3.663,1.804-5.479c0.36-2.892,1.821-3.075,4.38-0.552c-0.347,2.483,0.68,4.085,3.084,4.808
	c0.402-6.154,1.071-12.291,1.996-18.386c0.438-2.892,1.085-5.715,2.01-8.485c0.604-1.81,2.023,6.861,2.092,7.725
	c0.478,5.854,0.281,11.824,0,17.686c-0.035,0.767,2.445,0.02,2.676-0.555c0.955-2.387,3.733-6.281,3.336-8.695
	c0.697,4.266,0.697,8.609,3.395,12.212c0.245,0.327,1.105,0.164,1.405,0.067c2.051-0.678,1.884-0.733,2.503-3.123
	c3.207-12.352-0.585-3.367,3.645,2.207c0.387,0.508,1.654,0.005,2.057-0.191c6.121-2.998,3.229-13.848,5.088-1.25
	c0.461,3.123,3.309,2.604,5.271,1.744c3.072-1.347,4.014-6.31,5.079-9.021c2.884-7.342,1.415,6.104,1.626,9.016
	c0.32,4.455,1.017,8.929,1.852,13.317c0.15,0.774,2.843,0.128,2.685-0.72c-1.599-8.401-0.111-18.879-2.915-26.701
	c-0.145-0.404-0.815-0.305-1.127-0.277c-1.438,0.128-2.283,0.55-2.994,1.932c-1.33,2.584-2.362,5.26-3.395,7.972
	c-2.951,7.749-4.117-4.876-4.777-6.173c-0.389-0.77-2.189-0.122-2.572,0.386c-0.533,0.705-4.444,6.765-4.783,5.438
	c-0.577-2.243,0.311-6.434-2.428-7.303c-0.75-0.235-2.019,0.062-2.412,0.791c-1.27,2.335-1.725,10.792-2.99,7.634
	c-1.276-3.188-1.195-6.626-1.737-9.945c-0.047-0.301-0.589-0.312-0.791-0.309c-4.577,0.075-6.128,7.574-7.48,10.867
	c1.413-3.437,2.418,1.715,2.581-2.882c0.111-3.147,0.114-6.295,0.09-9.445c-0.037-4.549,0.33-10.672-2.219-14.661
	c-1.123-1.763-4.193,0.039-4.807,1.34c-3.969,8.421-4.039,19.308-4.641,28.473c-0.059,0.94,2.551,0.372,2.667-0.395
	c0.472-3.142-0.217-13.265-5.521-11.166c-1.984,0.785-2.885,3.167-3.739,4.913c-0.91,1.865-1.513,3.922-2.153,5.893
	c-0.752,2.301,2.24,0.949,2.197-1.672c-0.038-2.586-3.03-14.011-7.94-10.133c-5.526,4.363-6.195,15.341-7.25,21.813
	c-0.152,0.94,2.409,0.3,2.667-0.395c1.933-5.257,3.775-18.358-0.196-21.933c-0.411-0.372-1.321-0.137-1.755,0.05
	c-2.456,1.052-3.155,2.709-4.338,5.132c-1.939,3.983-1.852,9.071-1.383,11.517c-0.763-3.978,0.25-8.103-0.719-12.079
	c-0.074-0.309-0.566-0.298-0.793-0.306c-0.189-0.009-0.381-0.017-0.566-0.025c-0.5-0.02-1.502,0.214-1.782,0.694
	c-1.429,2.453-2.048,5.18-2.896,7.874c1-3.188,0.803-8.879-0.776-12.618c-0.336-0.799-2.212-0.086-2.573,0.387
	c-2.906,3.779-3.613,10.33-5.248,14.76c-0.153,0.414-1.863-8.873-2.16-11.121c-0.347-2.626-0.396-15.971-4.686-15.669
	c-7.164,0.508-7.674,27.426-8.321,32.854c-0.23,1.952,2.553,0.623,2.701-0.877c0.194-2,0.294-4.008,0.399-6.014
	c0.258-5.002,0.059-9.971-0.494-14.944c-0.297-2.682-1.763-12.635-6.62-10.895c-7.771,2.784-5.712,26.315-5.81,33.302
	c-0.008,0.66,2.662,0.214,2.682-0.719c0.108-5.682,2.756-31.67-3.236-34.312c-8.94-3.944-10.781,23.093-10.547,28.091
	c0.894-0.238,1.787-0.477,2.681-0.719c-0.949-3.416-3.667-14.616-9.948-11.047c-2.987,1.699-8.913,10.809-4.039,13.387
	c7.921,4.194,3.267-27.812,2.884-31.022c-0.089-0.741-2.628-0.142-2.673,0.555c-0.497,7.78-2.737,15.347-4.472,22.916
	c-1.782,7.782-1.685-3.161-4.782-4.003c-0.627-0.169-2.196,0-2.415,0.791c-1.643,5.924-0.896,1.371-1.676-0.83
	c-0.267-0.752-2.023-0.119-2.396,0.217c-2.454,2.224-3.667,5.102-4.394,8.321c-1.069,4.747,0.766,0.461,1.987,2.481
	c-1.266-2.087-1.746-6.539-2.313-8.704c-0.388-1.485-1.818-7.095-4.668-4.472c-3.533,3.253-4.172,16.199-8.471,3.114
	c-1.832-5.576,0.297-12.543,2.509-17.725c1.971-4.622,1.538,3.733,1.058,5.182c-1.43,4.3-6.217,7.372-9.715,9.892
	C20.68,41.996,11.493,45.36,9.164,51.613c-1.465,3.931,4.963,5.666,7.675,4.966c7.511-1.938,6.911-33.602-1.146-33.432
	c-9.62,0.205-8.516,12.345-2.948,8.599c7.095-4.777,9.077-26.888-3.7-23.465c-12.69,3.419-9.542,32.172-5.421,40.43
	c0.786,1.573,2.551,2.078,3.983,0.971c3.214-2.486,1.077-13.189,0.88-16.318C7.812,22.639,6.546,11.922,5.153,1.27
	C5.056,0.523,2.358,1.108,2.475,1.988L2.475,1.988L2.475,1.988z M179.471,21.115c0.771-1.388,1.543-2.776,2.312-4.164
	c0.649-1.168-2.052-0.938-2.509-0.114c-0.771,1.388-1.543,2.775-2.313,4.164C176.309,22.17,179.012,21.939,179.471,21.115
	L179.471,21.115z M198.506,21.284c0.619-1.08,1.232-2.156,1.852-3.239c0.202-0.353-2.26-0.203-2.646,0.472
	c-0.615,1.08-1.232,2.157-1.851,3.239C195.658,22.109,198.119,21.959,198.506,21.284L198.506,21.284z"/>
</svg>
