<?xml version="1.0" encoding="UTF-8"?>
<svg version="1.1" xmlns="http://www.w3.org/2000/svg" width="382" height="76" >
<path fill="#231F20" d="M8.113,41.833c4.826-6.469,9.824-13.033,15.639-18.65c0.669-0.647,1.377-1.244,2.144-1.771 c-0.434,0.298-0.317-0.13-0.523,0.868c-0.355,1.727-1.254,3.377-2.024,4.946c-2.385,4.857-5.307,9.474-8.317,13.962 c-2.524,3.763-5.188,7.633-8.518,10.735c-1.026,0.957-0.407,0.815-0.298,0.09c0.128-0.861,0.765-1.719,1.211-2.437 c1.679-2.699,3.993-5.044,6.229-7.279c4.371-4.367,9.56-8.756,15.694-10.193c1.677-0.393,5.674-0.922,4.292,1.955 c-1.766,3.676-6.594,6.279-9.816,8.421c-1.685,1.12,0.847,1.611,1.847,1.041c4.115-2.346,8.446-4.483,12.929-6.024 c3.291-1.131,6.864-1.494,5.804,3.138c-0.52,2.271-2.178,4.352-3.706,6.012c-0.736,0.762-1.553,1.429-2.451,2.001 c-1.003,0.385-2.007,0.771-3.01,1.156c-2.655,0.842-3.625,0.292-2.91-1.65c1.496-0.152,2.338-2.009,0.342-1.807 c-4.182,0.425-6.507,4.241-1.075,5.156c6.617,1.115,13.361-4.109,15.416-10.259c4.509-13.493-19.25-1.008-23.185,1.235 c0.616,0.347,1.231,0.694,1.847,1.041c1.711-1.137,15.674-9.868,9.928-13.051c-5.034-2.789-13.15,2.216-17.021,4.976 c-5.182,3.695-13.25,9.975-15.148,16.433c-1.315,4.477,4.429,1.615,5.854,0.287c5.221-4.863,9.153-11.577,12.813-17.62 c1.76-2.905,7.55-10.487,6.208-14.288c-1.337-3.788-8.544,3.919-9.24,4.656c-4.704,4.978-8.92,10.46-13.052,15.915 c-0.211,0.278-0.421,0.558-0.63,0.838C4.536,42.808,7.483,42.678,8.113,41.833L8.113,41.833 M55.11,51.535c2.425-1.103,4.693-2.5,6.688-4.265c1.062-0.94,2.759-4.219,0.201-4.557 c-4.58-0.605-10.484,5.261-9.698,9.789c0.969,5.581,10.884-1.875,12.295-2.97c1.574-1.221,3.106-2.498,4.672-3.729 c0.843-0.663,4.682-3.874,4.028-0.79c-0.602,2.841-4.029,5.664-6.124,7.541c0.884-0.036,1.769-0.072,2.652-0.108 c1.222-1.105,11.371-9.792,12.225-8.058c0.853,1.732,0.18,3.913,1.379,5.583c4.723,6.581,21.234-8.656,23.95-10.853 c-0.819-0.021-1.638-0.043-2.456-0.065c-4.204,4.034-8.297,8.186-12.313,12.406c-4.946,5.197-11.647,11.162-14.298,18.016 c-0.272,0.704,2.557,0.368,2.874-0.452c2.593-6.705,9.249-12.562,14.077-17.672c4-4.233,8.11-8.373,12.313-12.406 c0.769-0.738-1.996-0.438-2.456-0.065c-3.584,2.899-7.219,5.722-11.09,8.231c-1.598,1.036-5.315,3.839-7.313,2.453 c-1.57-1.089-1.313-4.045-1.694-5.694c-1.333-5.77-16.264,7.25-17.848,8.684c-0.734,0.663,2.085,0.4,2.652-0.108 c2.41-2.159,6.612-5.659,6.466-9.223c-0.136-3.299-6.262,0.179-7.162,0.774c-2.388,1.578-4.552,3.522-6.793,5.296 c-1.628,1.288-6.545,5.84-7.253,1.763c-0.244-1.407,1.051-3.195,1.793-4.208c0.646-0.882,3.908-4.539,3.522-1.294 c-0.303,2.553-4.958,4.477-7.01,5.41C51.635,51.763,54.326,51.892,55.11,51.535L55.11,51.535 M120.195,21.972c0.438,0,0.875,0,1.313,0c0.689,0,1.535-0.186,1.896-0.854 c0.321-0.595-0.274-1.09-0.849-1.09c-0.438,0-0.875,0-1.313,0c-0.689,0-1.535,0.186-1.896,0.854 C119.025,21.477,119.621,21.972,120.195,21.972L120.195,21.972 M138.613,22.664c-2.024,0.89-13.478,5.664-11.191,9.219c3.08,4.789,11.39-3.394,12.044-6.749 c0.296-1.519-2.383-0.806-2.849-0.041c-1.769,2.903-0.678,5.099,2.627,5.443c4.395,0.458,8.725-3.562,11.272-6.604 c2.322-2.772,6.062-9.227,3.467-12.761c-1.656-2.255-5.54-1.208-7.613-0.402c-2.346,0.913-5.546,3.55-5.002,6.423 c0.782,4.133,6.088,6.147,9.694,6.924c11.295,2.435,24.975-0.802,33.147-9.204c0.511-0.525,0.201-1.118-0.369-1.377 c-5.166-2.353-14.108,5.28-17.51,7.839c-8.168,6.145-15.388,13.508-23.219,20.068c-3.721,3.117-12.946,12.113-16.784,5.173 c-0.616-1.114-3.384-0.051-2.655,1.267c6.313,11.416,23.79-7.162,28.544-11.374c7.43-6.581,14.622-13.782,23.295-18.749 c1.456-0.833,5.183-2.965,6.648-2.297c-0.123-0.459-0.246-0.918-0.369-1.377c-4.969,5.107-11.96,7.54-18.893,8.459 c-5.197,0.689-16.18,0.572-18.519-5.521c-1.414-3.683,8.823-8.846,7.1-0.727c-0.844,3.977-3.518,7.507-6.604,10.026 c-1.854,1.513-7.919,3.066-5.492-0.917c-0.95-0.014-1.899-0.027-2.849-0.041c-0.385,1.972-1.873,3.244-3.405,4.392 c-0.908,1.123-1.696,1.102-2.363-0.061c0.653-0.781,1.694-1.373,2.535-1.93c2.048-1.357,4.339-2.441,6.586-3.43 C141.708,23.535,140.085,22.016,138.613,22.664L138.613,22.664 M177.601,26.953c-1.279-1.191-3.858,1.239-4.684,1.943c-8.282,7.068-15.723,15.281-23.256,23.111 c-0.795,0.827,2.087,0.598,2.678-0.016c6.687-6.95,13.369-13.934,20.421-20.519c1.09-1.018,2.197-2.024,3.357-2.963 c1.596-1.29-0.215,0.47-1.218-0.464C175.593,28.693,178.301,27.604,177.601,26.953L177.601,26.953 M172.449,37.953c-6.209,0.558-12.898,0.982-19.022-0.356c-5.998-1.311-1.502-7.078,1.98-8.738 c4.767-2.272,5.072,5.977,4.822,8.225c-0.257,2.31-1.47,4.417-2.177,6.599c-0.324,1,2.582,0.604,2.896-0.366 c1.282-3.955,5.382-16.049-2.478-16.396c-4.686-0.207-10.138,3.47-11.045,8.211c-1.368,7.151,20.875,4.752,24.625,4.415 C173.467,39.42,174.46,37.772,172.449,37.953L172.449,37.953 M189.199,38.362c-0.713-7.575-15.875,5.357-17.529,8.062c-1.283,2.098-0.806,3.964,1.874,3.734 c5.533-0.474,11.313-6.738,15.135-10.107c-0.786-0.2-1.571-0.4-2.357-0.601c-2.069,2.084-5.309,4.926-5.874,7.936 c-0.565,3.009,5.672,0.343,6.543-0.104c3.892-1.996,7.542-4.445,11.353-6.585c0.833-0.467,1.684-0.896,2.549-1.3 c1.017-0.475,1.201-0.881,0.997-0.031c-0.788,3.297-4.543,6.866-6.567,9.334c-1.089,1.328,1.37,1.318,2.098,0.806 c4.335-3.05,9.147-6.909,11.192-11.931c-0.939,0.027-1.878,0.055-2.816,0.083c-0.626,3.741,2.387,5.605,5.836,4.866 c3.177-0.682,6.148-2.121,9.258-3.052c1.165-0.349,3.199-1.075,2.262,0.926c-1.208,2.58-3.65,4.764-5.579,6.802 c-1.07,1.132,1.061,1.354,1.774,0.981c5.953-3.113,12.206-6.219,17.482-10.408c0.342-0.271,0.65-0.573,0.923-0.913 c1.338-1.668-1.141,0.518-1.781-0.219c0.618,0.711,1.131,1.335,1.924,1.872c3.001,2.028,7.519,0.32,10.452-0.832 c-0.505-0.396-1.01-0.791-1.515-1.187c-2.893,1.635-7.003,3.85-8.224,7.135c-1.715,4.619,11.396,1.821,12.764,1.285 c3.889-1.524,7.456-3.631,10.985-5.846c1.034-0.649,9.207-6.063,8.587-3.177c-0.57,2.659-4.436,4.957-6.52,6.229 c-3.227,1.97-7.245,2.793-6.719-2.278c0.133-1.283-2.798-0.769-2.91,0.316c-1.49,14.362,22.898-2.301,18.794-6.499 c-3.716-3.801-13.236,4.535-16.124,6.278c-2.546,1.536-5.196,2.894-8.011,3.863c-1.092,0.375-9.4,1.92-7.604-1.14 c1.328-2.262,4.582-3.891,6.818-5.155c1.62-0.916-0.568-1.558-1.515-1.187c-2.511,0.987-5.722,2.185-7.893-0.072 c-0.378-0.392-0.595-0.87-1.061-1.171c-1.536-0.991-2.526,0.944-3.316,1.735c-4.352,4.354-11.321,7.18-16.73,10.008 c0.592,0.327,1.183,0.654,1.774,0.981c1.152-1.218,10.856-10.769,3.857-10.571c-3.598,0.102-16.203,6.822-15.081,0.113 c0.207-1.241-2.488-0.723-2.816,0.083c-1.887,4.636-6.295,8.246-10.308,11.069c0.699,0.269,1.398,0.538,2.098,0.806 c1.443-1.76,8.672-8.71,7.067-11.541c-1.151-2.033-5.46,0.452-6.697,1.09c-4.193,2.161-8.088,4.853-12.249,7.07 c-2.207,1.177-2.851,1.134-1.201-1.222c1.173-1.675,2.64-3.197,4.08-4.648c1.266-1.275-1.615-1.255-2.357-0.601 c-3.153,2.78-6.361,5.499-9.931,7.734c-2.234,1.399-3.214,1.376-1.716-1.073c1.308-2.138,11.298-10.463,11.626-6.973 C186.403,40.221,189.312,39.564,189.199,38.362L189.199,38.362 M285.388,33.446c-3.213,1.984-6.847,4.422-9.059,7.527c-2.794,3.921,0.204,7.014,4.528,5.672 c1.907-0.592,3.078-2.073,4.07-3.726c0.814-1.356,1.354-3.203,1.473-4.774c0.152-2.016-0.99-5.354,1.982-4.585 c2.208,0.571,4.397,1.196,6.382,2.352c4.698,2.735,0.472,6.948-2.328,9.188c0.876-0.067,1.751-0.134,2.627-0.201 c1.872-1.724,13.1-11.562,13.947-8.099c0.865,3.532,0.687,5.909,4.168,7.971c3.144,1.862,7.763,1.604,11.193,1.015 c2.324-0.399,13.473-2.125,11.891-6.86c-1.403-4.197-11.161,0.253-13.132,1.222c-5.2,2.558-9.509,6.523-13.896,10.223 c-5.79,4.883-12.066,9.271-18.935,12.495c-8.252,3.873-20.928,5.587-28.545-0.781c-5.691-4.758,6.291-6.675,8.87-6.894 c6.203-0.525,12.523,0.214,18.682,0.916c12.733,1.451,25.324,3.102,38.176,2.518c13.583-0.617,27.894-3.645,39.823-10.38 c3.749-2.116,8.548-5.359,10.375-9.497c0.222-0.504-2.529-0.249-2.861,0.502c-1.495,3.388-5.182,5.983-8.14,7.916 c-12.262,8.012-28.546,10.19-42.851,10.419c-12.815,0.205-25.461-2.052-38.175-3.267c-8.269-0.79-18.334-1.532-25.856,2.697 c-6.613,3.717,2.479,8.271,5.885,9.272c7.067,2.077,14.585,1.149,21.474-1.085c11.103-3.602,20.408-11.368,29.135-18.813 c3.306-2.82,11.668-9.947,16.48-7.327c0.857,0.467,0.809,1.393,0.462,2.154c-1.33,2.924-6.854,3.28-9.375,3.601 c-6.135,0.778-11.632-1.591-11.909-8.205c-0.109-2.595-2.367-2.399-4.327-1.954c-5.669,1.287-11.038,6.623-15.186,10.443 c-0.674,0.621,2.137,0.191,2.627-0.201c4.192-3.355,7.104-7.719,1.076-10.711c-2.881-1.43-7.304-2.991-10.462-1.839 c-2.009,0.733-2.172,2.354-2.127,4.289c0.048,2.022-0.291,3.809-0.974,5.696c-0.784,2.168-3.992,4.785-4.701,1.186 c-0.742-3.768,7.127-8.353,9.736-9.966C288.844,32.793,285.92,33.117,285.388,33.446L285.388,33.446 M253.634,22.634c0.667-0.5,1.333-1,2-1.5c0.462-0.347,0.357-0.749-0.219-0.816 c-0.679-0.08-1.502,0.139-2.049,0.549c-0.667,0.5-1.333,1-2,1.5c-0.462,0.347-0.357,0.749,0.219,0.816 C252.264,23.263,253.087,23.044,253.634,22.634L253.634,22.634z"/>
</svg>