<?xml version="1.0" encoding="UTF-8" standalone="no"?>
<!-- Created with Inkscape (http://www.inkscape.org/) -->
<svg
   xmlns:dc="http://purl.org/dc/elements/1.1/"
   xmlns:cc="http://creativecommons.org/ns#"
   xmlns:rdf="http://www.w3.org/1999/02/22-rdf-syntax-ns#"
   xmlns:svg="http://www.w3.org/2000/svg"
   xmlns="http://www.w3.org/2000/svg"
   xmlns:sodipodi="http://sodipodi.sourceforge.net/DTD/sodipodi-0.dtd"
   xmlns:inkscape="http://www.inkscape.org/namespaces/inkscape"
   width="418.05518"
   height="144.6344"
   id="svg2"
   sodipodi:version="0.32"
   inkscape:version="0.46"
   version="1.0"
   sodipodi:docname="signbe.svg"
   inkscape:output_extension="org.inkscape.output.svg.inkscape">
  <defs
     id="defs4">
    <inkscape:perspective
       sodipodi:type="inkscape:persp3d"
       inkscape:vp_x="0 : 526.18109 : 1"
       inkscape:vp_y="0 : 1000 : 0"
       inkscape:vp_z="744.09448 : 526.18109 : 1"
       inkscape:persp3d-origin="372.04724 : 350.78739 : 1"
       id="perspective10" />
    <inkscape:perspective
       id="perspective4185"
       inkscape:persp3d-origin="372.04724 : 350.78739 : 1"
       inkscape:vp_z="744.09448 : 526.18109 : 1"
       inkscape:vp_y="0 : 1000 : 0"
       inkscape:vp_x="0 : 526.18109 : 1"
       sodipodi:type="inkscape:persp3d" />
  </defs>
  <sodipodi:namedview
     id="base"
     pagecolor="#ffffff"
     bordercolor="#666666"
     borderopacity="1.0"
     gridtolerance="10000"
     guidetolerance="10"
     objecttolerance="10"
     inkscape:pageopacity="0.0"
     inkscape:pageshadow="2"
     inkscape:zoom="0.93566975"
     inkscape:cx="161.24937"
     inkscape:cy="135.24886"
     inkscape:document-units="px"
     inkscape:current-layer="layer1"
     showgrid="false"
     inkscape:window-width="640"
     inkscape:window-height="713"
     inkscape:window-x="587"
     inkscape:window-y="0" />
  <metadata
     id="metadata7">
    <rdf:RDF>
      <cc:Work
         rdf:about="">
        <dc:format>image/svg+xml</dc:format>
        <dc:type
           rdf:resource="http://purl.org/dc/dcmitype/StillImage" />
      </cc:Work>
    </rdf:RDF>
  </metadata>
  <g
     inkscape:label="Layer 1"
     inkscape:groupmode="layer"
     id="layer1"
     transform="translate(-67.917149,-332.47931)">
    <path
       style="fill:#000000"
       d="M 141.14286,476.56543 C 138.11786,476.12025 130.91786,475.28529 125.14286,474.70998 C 110.72311,473.27347 110.20636,473.18536 96.642864,469.8506 C 85.344417,467.07273 77.58664,464.14921 74.129114,461.3663 C 69.422994,457.57841 66.752984,449.52821 68.410994,444.12591 C 70.219584,438.23298 71.760914,439.91737 71.698984,447.7191 C 71.644344,454.60426 71.734944,454.86724 75.142864,457.71504 C 82.347002,463.73513 91.878933,466.98707 115.14286,471.36155 C 122.61661,472.76689 129.54853,473.13338 147.64286,473.07981 C 160.41209,473.04201 173.08935,472.51255 176.14286,471.8895 C 194.25222,468.19446 215.05532,463.10588 225.64286,459.78147 C 231.67017,457.88894 247.32363,451.08119 257.64286,445.86456 C 264.0049,442.64839 275.91325,435.20521 277.14286,433.67631 C 277.41786,433.33437 280.56786,430.86829 284.14286,428.19612 C 295.53793,419.67877 299.14235,415.71335 299.1466,411.68969 C 299.14865,409.74171 300.03004,406.70514 301.10523,404.94176 C 303.28244,401.371 312.38761,395.6718 315.93831,395.65729 C 317.20081,395.65213 319.22581,394.59402 320.43831,393.30594 C 323.56084,389.98877 337.56128,371.70608 338.04804,370.31 C 338.27089,369.67085 339.8944,367.3479 341.65584,365.1479 C 346.04226,359.66936 350.56573,351.6479 349.26878,351.6479 C 348.09567,351.6479 336.46841,355.44827 328.64286,358.38948 C 310.89195,365.06111 285.7087,380.51714 282.08555,386.96366 L 279.83028,390.97637 L 282.09735,392.81214 C 283.34424,393.82181 285.32708,394.65479 286.50364,394.66322 C 287.68021,394.67164 289.31786,395.11475 290.14286,395.6479 C 291.22135,396.34487 290.23009,396.62158 286.61537,396.63259 C 281.31547,396.64873 277.14286,394.63072 277.14286,392.05136 C 277.14286,389.31517 280.99242,382.98718 284.56535,379.8501 C 297.51337,368.48159 328.36974,353.28667 347.14286,349.03442 C 353.23575,347.65433 354.08926,347.09506 360.77021,340.10501 C 366.94722,333.64221 371.14286,330.91836 371.14286,333.37099 C 371.14286,333.7687 368.33036,336.95057 364.89286,340.44182 L 358.64286,346.78956 L 362.64286,345.96873 C 373.94667,343.6491 388.14585,346.80101 389.52238,351.93539 C 390.93654,357.21017 390.13794,362.31242 387.20728,366.72646 C 379.72121,378.00165 354.45598,400.87638 343.07647,406.68177 C 339.56737,408.47198 337.66429,410.836 338.80995,411.98166 C 339.10107,412.27278 341.70867,410.58104 344.60462,408.22225 C 350.18052,403.68062 362.31852,397.45228 370.64286,394.86132 C 373.39286,394.00537 379.11062,393.2697 383.349,393.22648 C 389.93002,393.15938 391.28013,393.43991 392.59613,395.1479 C 393.44368,396.2479 393.95505,397.93728 393.73252,398.90207 C 393.45637,400.09935 394.09221,400.84807 395.73539,401.26048 C 398.84868,402.04187 398.85981,404.76948 395.7783,411.77347 C 394.47779,414.72941 393.07116,418.2433 392.65244,419.58213 C 391.92933,421.89425 392.14447,421.83436 396.94116,418.38828 C 400.82194,415.60021 402.22938,415.04723 403.02003,415.9999 C 403.77303,416.90721 402.75161,418.59253 399.21051,422.28551 C 395.58346,426.06813 394.19198,428.39768 393.65258,431.59035 C 392.95432,435.72334 393.00268,435.82814 395.28795,435.13456 C 398.36794,434.1998 403.42823,431.15734 409.73373,426.44915 C 415.07255,422.46277 418.14286,421.62254 418.14286,424.1479 C 418.14286,424.9729 417.76509,425.6479 417.30338,425.6479 C 416.84166,425.6479 415.95131,426.7729 415.32481,428.1479 C 413.70297,431.70747 415.14871,431.31522 422.69635,426.1479 C 429.24005,421.66791 433.14286,420.4724 433.14286,422.9479 C 433.14286,423.6629 432.60742,424.78334 431.95298,425.43778 C 430.43121,426.95955 430.01892,429.6479 431.3073,429.6479 C 432.69018,429.6479 442.93054,421.66081 454.05753,411.90359 C 462.87551,404.17114 467.14286,401.90277 467.14286,404.9479 C 467.14286,405.6629 466.73551,406.6754 466.23763,407.1979 C 465.73975,407.7204 462.31674,413.9979 458.63094,421.1479 C 454.94514,428.2979 451.5275,434.5754 451.03617,435.0979 C 450.54485,435.6204 450.14286,436.65787 450.14286,437.40338 C 450.14286,438.76889 456.45232,433.88366 465.04938,425.8617 C 474.15893,417.36155 485.28391,414.07057 485.93848,419.68232 C 486.38884,423.54339 482.33198,428.62991 474.60704,433.88974 C 467.09878,439.00205 462.28683,440.51135 458.82735,438.83916 C 456.68959,437.80585 456.6985,437.78181 459.24364,437.71558 C 465.95618,437.5409 477.80869,430.67159 481.62021,424.74689 C 489.28979,412.82515 470.04871,423.20011 452.58678,440.40197 C 444.99836,447.87738 437.24076,458.44706 430.57209,470.39688 C 428.96101,473.28382 427.30536,475.64632 426.89286,475.64688 C 424.06242,475.65072 429.16526,465.4298 439.12406,451.1479 C 445.51264,441.98606 462.80591,409.97762 461.87186,409.04357 C 461.6523,408.82401 459.26096,410.79824 456.55776,413.43073 C 447.10182,422.63936 429.24072,435.14576 427.71882,433.62386 C 427.14995,433.05499 427.20983,431.33634 427.87391,429.17255 C 429.20101,424.84846 428.50693,424.78019 423.53036,428.74529 C 418.54733,432.71555 414.80015,434.6479 412.08411,434.6479 C 410.27107,434.6479 410.02821,434.24082 410.56511,432.10167 L 411.20417,429.55543 L 406.92352,432.07526 C 397.77846,437.45854 394.91106,438.75574 392.81609,438.45739 C 389.82328,438.03118 389.43805,433.50763 392.02166,429.12875 C 394.86484,424.30992 393.37888,424.15865 388.16785,428.73644 C 385.71897,430.88774 383.16204,432.6479 382.4858,432.6479 C 381.80956,432.6479 380.5744,433.6214 379.74101,434.81124 C 378.29967,436.86904 366.81346,443.6479 364.76803,443.6479 C 364.2358,443.6479 363.01823,442.9401 362.06231,442.07501 C 360.13632,440.33201 360.53568,437.69269 363.64889,431.58948 C 365.71895,427.53127 375.00429,414.45497 376.52791,413.45228 C 378.36056,412.24621 376.50724,411.53233 374.02209,412.48705 C 370.06712,414.00644 362.30302,415.6479 359.07133,415.6479 C 354.92544,415.6479 347.14286,413.61314 347.14286,412.52919 C 347.14286,411.134 345.21729,411.49839 342.7482,413.36083 C 340.80991,414.82288 340.62642,415.46875 341.49535,417.77081 C 343.53432,423.17265 339.35181,431.77498 331.4834,438.36279 C 324.67475,444.06331 323.321,443.04861 326.03067,434.27571 C 327.16056,430.61754 328.58449,426.69122 329.19496,425.55055 C 330.77803,422.59255 329.9392,422.35852 327.0947,424.96459 C 321.10667,430.45071 317.21324,432.80501 315.19036,432.16297 C 314.04228,431.79859 313.14286,430.65006 313.14286,429.54839 C 313.14286,426.67198 315.90797,420.53338 318.44059,417.78734 L 320.64286,415.39948 L 318.22046,416.1458 C 316.88815,416.55627 312.4528,417.01455 308.36413,417.16419 L 300.9302,417.43628 L 293.73439,424.03097 C 277.66302,438.7598 258.47133,450.63731 241.08326,456.61612 C 237.54104,457.8341 233.44843,459.46451 231.98857,460.23926 C 230.52871,461.01401 228.67622,461.6479 227.87192,461.6479 C 227.06763,461.6479 224.21206,462.5022 221.52621,463.54634 C 218.84037,464.59048 213.94286,466.01476 210.64286,466.7114 C 207.34286,467.40804 203.88291,468.35484 202.95407,468.81538 C 199.84586,470.35655 180.76158,473.73371 169.64286,474.71015 C 163.59286,475.24145 157.06786,475.92513 155.14286,476.22942 C 148.22365,477.32318 146.56261,477.36305 141.14286,476.56543 z M 374.4295,434.45325 C 386.07415,426.54552 388.13503,424.3859 392.65129,415.35843 C 398.17885,404.30948 396.99572,401.64418 388.49409,405.99336 C 381.5652,409.53798 372.42914,419.70353 366.26373,430.72876 C 360.52849,440.98474 363.0906,442.15335 374.4295,434.45325 z M 332.86323,434.3979 C 336.1889,430.78128 339.14286,424.4378 339.14286,420.91271 C 339.14286,416.6724 337.97732,416.79146 334.39303,421.3979 C 331.08007,425.65565 330.201,427.58447 329.15185,432.8979 C 328.28142,437.30625 329.67202,437.86829 332.86323,434.3979 z M 327.52709,421.8979 C 332.76894,417.14586 334.58311,414.92749 333.65617,414.40324 C 329.33335,411.95838 317.14286,420.50201 317.14286,425.97648 C 317.14286,430.15559 319.3932,429.27173 327.52709,421.8979 z M 315.29148,414.15643 C 319.81342,413.57213 335.61122,407.57954 337.43347,405.75729 C 338.84579,404.34497 337.33671,401.00494 334.424,399.09646 C 332.80926,398.03844 329.70653,397.33608 326.43873,397.28884 L 321.09432,397.21159 L 312.98952,405.31639 C 305.11955,413.18637 303.75072,416.1712 308.45415,415.20617 C 309.65794,414.95918 312.73474,414.48679 315.29148,414.15643 z M 313.90293,400.07464 C 313.12641,399.29812 307.89307,401.83684 305.43657,404.18171 C 302.9359,406.56876 300.93481,411.10652 301.93969,412.1114 C 302.30771,412.47942 305.26287,410.03457 308.50669,406.6784 C 311.75051,403.32222 314.17882,400.35053 313.90293,400.07464 z M 370.21136,411.03759 C 380.34724,408.03255 392.34506,400.4501 390.26129,398.36633 C 389.09683,397.20187 381.51148,396.91809 375.58161,397.81714 C 371.62043,398.4177 358.1434,403.4227 353.14286,406.15027 C 349.55614,408.10667 348.27083,410.46768 350.14286,411.66106 C 352.51016,413.17016 364.24831,412.8055 370.21136,411.03759 z M 344.46397,401.8979 C 357.73809,394.47554 382.18659,371.83245 386.02552,363.40548 C 388.63768,357.67144 388.6619,356.18556 386.19958,352.72755 C 382.868,348.04878 374.66607,346.9473 359.78023,349.17957 C 355.61449,349.80426 354.975,350.32411 350.96574,356.34497 C 348.58816,359.91549 346.18367,363.58181 345.62243,364.49236 C 341.62488,370.97795 338.46136,375.32994 331.69796,383.6479 L 323.97345,393.1479 L 329.07539,394.29418 C 335.47126,395.73118 338.93222,397.96047 339.73539,401.16055 C 340.47889,404.12289 340.48353,404.12361 344.46397,401.8979 z M 292.89286,395.98562 C 293.58036,395.70821 294.70536,395.70821 295.39286,395.98562 C 296.08036,396.26303 295.51786,396.49001 294.14286,396.49001 C 292.76786,396.49001 292.20536,396.26303 292.89286,395.98562 z M 442.30521,392.04339 C 443.01435,388.36114 451.88195,384.94739 465.39286,383.15537 C 469.27855,382.64 470.14286,382.80598 470.14286,384.06758 C 470.14286,384.93398 468.93777,385.87978 467.39286,386.2259 C 465.88036,386.56476 463.06786,387.24582 461.14286,387.73938 C 459.21786,388.23293 456.62546,388.63926 455.38196,388.64233 C 453.54912,388.64685 447.28125,391.03226 442.79673,393.43199 C 442.33136,393.68101 442.11017,393.05614 442.30521,392.04339 z"
       id="path4191" />
  </g>
</svg>
