<?xml version="1.0" encoding="UTF-8" standalone="no"?>
<!-- Created with Inkscape (http://www.inkscape.org/) -->

<svg
   xmlns:dc="http://purl.org/dc/elements/1.1/"
   xmlns:cc="http://creativecommons.org/ns#"
   xmlns:rdf="http://www.w3.org/1999/02/22-rdf-syntax-ns#"
   xmlns:svg="http://www.w3.org/2000/svg"
   xmlns="http://www.w3.org/2000/svg"
   xmlns:sodipodi="http://sodipodi.sourceforge.net/DTD/sodipodi-0.dtd"
   xmlns:inkscape="http://www.inkscape.org/namespaces/inkscape"
   width="319"
   height="65"
   id="svg2"
   version="1.1"
   inkscape:version="0.48.0 r9654"
   sodipodi:docname="Bernice_P_Bishop_1883_signature.svg">
  <defs
     id="defs4" />
  <sodipodi:namedview
     id="base"
     pagecolor="#ffffff"
     bordercolor="#666666"
     borderopacity="1.0"
     inkscape:pageopacity="0.0"
     inkscape:pageshadow="2"
     inkscape:zoom="1.4518964"
     inkscape:cx="267.58014"
     inkscape:cy="69.667058"
     inkscape:document-units="px"
     inkscape:current-layer="layer1"
     showgrid="false"
     inkscape:window-width="1440"
     inkscape:window-height="820"
     inkscape:window-x="-8"
     inkscape:window-y="-8"
     inkscape:window-maximized="1"
     fit-margin-top="0"
     fit-margin-left="0"
     fit-margin-right="0"
     fit-margin-bottom="0" />
  <metadata
     id="metadata7">
    <rdf:RDF>
      <cc:Work
         rdf:about="">
        <dc:format>image/svg+xml</dc:format>
        <dc:type
           rdf:resource="http://purl.org/dc/dcmitype/StillImage" />
        <dc:title />
      </cc:Work>
    </rdf:RDF>
  </metadata>
  <g
     inkscape:label="Layer 1"
     inkscape:groupmode="layer"
     id="layer1"
     transform="translate(-179.00728,-552.04529)">
    <path
       style="font-size:medium;font-style:normal;font-variant:normal;font-weight:normal;font-stretch:normal;text-indent:0;text-align:start;text-decoration:none;line-height:normal;letter-spacing:normal;word-spacing:normal;text-transform:none;direction:ltr;block-progression:tb;writing-mode:lr-tb;text-anchor:start;baseline-shift:baseline;color:#000000;fill:#000000;fill-opacity:1;stroke:none;stroke-width:1.50000000000000000;marker:none;visibility:visible;display:inline;overflow:visible;enable-background:accumulate;font-family:Sans;-inkscape-font-specification:Sans"
       d="M 52.53125 13.3125 C 52.344085 13.328313 52.15286 13.3654 51.96875 13.40625 C 51.23232 13.56972 50.45459 13.91142 49.6875 14.3125 C 48.92041 14.71358 48.18203 15.17146 47.59375 15.53125 C 47.29961 15.71114 47.06612 15.85527 46.875 15.96875 C 46.68388 16.08223 46.4821 16.16222 46.59375 16.125 C 46.15153 16.27241 45.70183 16.56194 45 17 C 44.29817 17.43806 43.41162 18.03419 42.40625 18.71875 C 41.39066 19.41027 40.07579 20.36901 38.875 21.21875 C 39.03205 21.02931 39.77641 20.22051 39.875 20.09375 C 40.43161 19.37808 40.79017 18.75528 40.96875 18.15625 C 41.14733 17.55722 41.12265 16.92713 40.84375 16.4375 C 40.56485 15.94787 40.09017 15.66251 39.59375 15.5 C 39.09733 15.33749 38.57669 15.29887 38 15.3125 C 36.84662 15.3398 35.54762 15.62583 34.375 16.09375 C 33.20238 16.56167 32.14914 17.1657 31.5 18.03125 C 31.2152 18.411 31.22442 18.8492 31.28125 19.1875 C 31.33805 19.5258 31.45354 19.84521 31.59375 20.1875 C 31.87416 20.87208 32.25086 21.605 32.5625 22.34375 C 32.87414 23.0825 33.09311 23.82664 33.09375 24.3125 C 33.09439 24.79836 33.05255 24.98053 32.5625 25.21875 A 0.750075 0.750075 0 0 0 32.15625 26.0625 A 0.750075 0.750075 0 0 0 32.15625 26.09375 C 30.91368 27.01475 29.52381 27.99911 28.5 28.78125 C 27.5298 29.52243 26.70833 30.16521 26.0625 30.6875 C 25.41667 31.20979 24.98641 31.54931 24.71875 31.84375 C 22.77769 33.979 20.71258 36.0495 18.75 38.21875 C 18.64427 38.33561 18.40734 38.64091 18.03125 39.09375 C 17.65516 39.54659 17.16917 40.11407 16.71875 40.6875 C 16.26833 41.26093 15.86062 41.82859 15.5625 42.28125 C 15.41344 42.50758 15.27724 42.68561 15.1875 42.90625 C 15.1426 43.01657 15.098 43.12592 15.125 43.40625 C 15.1385 43.54641 15.1976 43.77666 15.375 43.9375 C 15.55235 44.09834 15.76475 44.125 15.90625 44.125 C 16.34001 44.125 16.59581 43.96405 16.90625 43.78125 C 17.21669 43.59845 17.55175 43.36579 17.9375 43.0625 C 18.709 42.45592 19.64277 41.61117 20.71875 40.59375 C 22.8707 38.55891 25.56189 35.83885 28.21875 33.03125 C 30.90573 30.19182 31.99979 28.86541 34.125 26.5 C 34.88919 25.93765 35.49743 25.44364 36.28125 24.875 C 38.75797 23.07821 41.25914 21.29308 43.25 19.9375 C 44.24543 19.25971 45.10791 18.70153 45.78125 18.28125 C 46.45459 17.86097 47.01219 17.57927 47.0625 17.5625 C 47.32135 17.4762 47.41458 17.40619 47.625 17.28125 C 47.83542 17.15631 48.08413 16.99039 48.375 16.8125 C 48.95674 16.45671 49.69458 16.02835 50.40625 15.65625 C 51.11792 15.28415 51.82834 14.98248 52.3125 14.875 C 52.53872 14.8248 52.68378 14.8026 52.75 14.8125 C 52.94043 15.21556 52.93279 15.82907 52.625 16.65625 C 52.31202 17.49739 51.74425 18.48269 51.0625 19.46875 C 49.69901 21.44087 47.94164 23.38436 47.09375 24.65625 C 47.09278 24.65725 47.0645 24.6847 47.0625 24.6875 C 47.0424 24.6945 47.02 24.6805 47 24.6875 C 46.48025 24.87455 45.94477 25.19151 45.46875 25.5625 C 44.99273 25.93349 44.55438 26.3661 44.25 26.875 C 43.94561 27.3839 43.75449 28.01345 43.96875 28.65625 C 44.01355 28.79052 44.1501 28.96331 44.3125 29.0625 C 44.4749 29.1617 44.61088 29.19252 44.71875 29.1875 C 44.9345 29.1775 45.03378 29.12565 45.09375 29.09375 C 45.2137 29.02985 45.25407 28.9866 45.3125 28.9375 C 45.42937 28.8393 45.54792 28.70457 45.6875 28.5625 C 45.96667 28.27836 46.29532 27.90559 46.65625 27.5 C 47.01718 27.09441 47.38663 26.67038 47.6875 26.3125 C 47.7578 26.2289 47.7831 26.19771 47.84375 26.125 C 47.84575 26.1495 47.84175 26.1615 47.84375 26.1875 C 47.86335 26.4828 47.84375 26.81086 47.84375 27.0625 C 47.84375 29.32338 47.09496 30.95678 45.90625 32.40625 C 44.71754 33.85572 43.05218 35.10144 41.3125 36.40625 C 41.20317 36.48825 40.70625 36.7539 40.53125 36.875 C 40.25327 36.64816 40.02109 36.46048 39.6875 36.25 C 38.82969 35.70876 37.68416 35.3901 36.25 35.78125 C 35.97264 35.85685 35.78079 35.94432 35.53125 36.09375 C 35.28171 36.24318 34.99916 36.43497 34.6875 36.65625 C 34.06417 37.09882 33.34998 37.68915 32.6875 38.28125 C 32.02502 38.87335 31.4311 39.46858 31.03125 40.0625 C 30.83133 40.35946 30.67598 40.64496 30.625 41.03125 C 30.574 41.41754 30.77327 41.9577 31.15625 42.1875 C 31.98146 42.68265 32.88445 42.46948 33.875 42.15625 C 34.86555 41.84297 35.96431 41.32445 37.0625 40.75 C 38.49949 39.99833 39.40628 39.3619 40.4375 38.6875 C 40.65823 38.85904 40.80403 38.99593 41.0625 39.15625 C 41.95578 39.71031 43.15189 40.05405 44.6875 39.71875 C 46.22311 39.38345 48.10658 38.44358 50.65625 36.53125 C 50.62415 36.55535 50.77419 36.4593 50.8125 36.4375 C 50.62156 36.67183 50.32212 36.93393 50.15625 37.15625 C 49.73584 37.71973 49.40545 38.23809 49.1875 38.71875 C 49.07852 38.95908 49.0033 39.17869 48.96875 39.4375 C 48.93425 39.69631 48.96075 40.01963 49.15625 40.3125 C 49.32615 40.56736 49.57311 40.71408 49.8125 40.78125 C 50.05189 40.84845 50.27494 40.86185 50.5 40.84375 C 50.95011 40.80755 51.44017 40.65819 51.96875 40.46875 C 52.93291 40.1232 54.09091 39.56454 55.25 38.9375 C 55.2154 39.16098 55.20255 39.40869 55.28125 39.65625 C 55.37365 39.94679 55.58134 40.21755 55.84375 40.375 C 55.84446 40.37542 56.05141 40.45805 56.125 40.46875 C 56.1986 40.47955 56.23847 40.47175 56.28125 40.46875 C 56.36685 40.46175 56.43218 40.4484 56.46875 40.4375 C 56.54185 40.4157 56.56045 40.42195 56.59375 40.40625 C 56.66045 40.37465 56.72211 40.31615 56.78125 40.28125 C 56.89953 40.21155 57.04064 40.14798 57.21875 40.03125 C 57.57498 39.79779 58.07576 39.46112 58.65625 39.0625 C 59.81723 38.26526 61.33912 37.17851 62.875 36.125 C 64.41088 35.07149 65.95233 34.05677 67.125 33.3125 C 67.4381 33.11378 67.62374 32.9935 67.875 32.84375 C 67.58058 33.43038 67.15281 34.15216 66.625 34.90625 C 65.48962 36.52837 64.17233 38.10085 63.71875 38.78125 C 63.40742 39.24827 62.65441 40.25232 62.125 41.03125 C 61.8603 41.42071 61.66875 41.68741 61.53125 42.03125 C 61.49685 42.11725 61.4468 42.22502 61.4375 42.40625 C 61.4325 42.49685 61.4275 42.61934 61.5 42.78125 C 61.572 42.94316 61.75867 43.11659 61.9375 43.1875 C 62.29516 43.32932 62.47748 43.20425 62.59375 43.15625 C 62.71002 43.10825 62.787 43.05865 62.875 43 C 64.34994 42.01667 65.42371 40.5591 66.5 39.125 C 67.57629 37.6909 68.64809 36.29276 69.9375 35.40625 C 71.02483 34.65868 72.34804 34.28419 73.75 33.875 C 74.69283 33.59981 75.65393 33.23863 76.59375 32.78125 C 76.48817 33.14853 76.34989 33.5375 76.25 33.84375 C 76.1386 34.18528 76.02588 34.5199 76.0625 34.4375 C 75.65031 35.36497 74.68979 36.72073 73.84375 38.125 C 73.07525 39.40056 72.43984 40.72393 72.3125 42.0625 C 72.3095 42.0675 72.3125 42.09375 72.3125 42.09375 C 72.3014 42.21897 72.21875 42.34322 72.21875 42.46875 C 72.21875 42.46875 73.62256 42.84795 73.625 42.84375 C 73.627 42.83975 73.62 42.8205 73.625 42.8125 C 73.634 42.7964 73.63735 42.7818 73.65625 42.75 C 73.69405 42.6863 73.77088 42.58684 73.84375 42.46875 C 73.98948 42.23257 74.17745 41.88122 74.4375 41.5 C 74.9576 40.73757 75.68919 39.81084 76.4375 39.0625 C 76.85697 38.64301 78.8225 37.14109 80.75 35.8125 C 81.71375 35.1482 82.6888 34.50421 83.5 34 C 84.3112 33.49579 85.02829 33.09847 85.21875 33.03125 C 85.47365 32.94125 85.44544 32.97625 85.53125 32.96875 C 85.48625 33.30199 85.25428 34.07192 84.875 34.96875 C 84.46011 35.94979 83.9581 37.02997 83.6875 38.03125 C 83.5522 38.53189 83.48372 39.01149 83.53125 39.5 C 83.57875 39.98851 83.82687 40.52111 84.3125 40.8125 C 84.84715 41.1333 85.24151 40.99464 85.6875 40.875 C 86.13349 40.75536 86.63023 40.56972 87.1875 40.3125 C 88.30204 39.79806 89.63655 39.03227 90.96875 38.21875 C 92.30095 37.40523 93.6249 36.54337 94.6875 35.78125 C 94.7601 35.72915 94.7741 35.70635 94.84375 35.65625 C 94.6591 36.08718 94.40849 36.48104 94.28125 36.90625 C 94.10983 37.47911 93.99707 38.01471 94.03125 38.5625 C 94.06545 39.11029 94.29387 39.71673 94.8125 40.0625 C 96.45484 41.15743 98.68505 40.92344 100.8125 40.5 C 102.93995 40.07656 105.04763 39.37173 106.125 39.15625 C 106.52965 39.07535 107.36496 38.70369 108.03125 38.4375 C 108.10955 38.72881 108.1713 39.04634 108.375 39.25 C 108.64317 39.51812 108.97973 39.67506 109.34375 39.8125 C 110.79985 40.36225 113.03225 40.38917 115.90625 40.21875 C 118.66457 40.0552 122.02665 39.6339 125.5625 39.1875 C 125.43741 39.40264 125.21863 39.63572 125.125 39.84375 A 0.750075 0.750075 0 0 0 125.0625 40.25 C 125.1286 40.67587 125.38255 41.0684 125.6875 41.3125 C 125.99245 41.5566 126.35878 41.69398 126.75 41.8125 C 127.53245 42.04954 128.46726 42.12729 129.53125 42.125 C 131.65923 42.12 134.24408 41.76908 136.375 41.15625 C 137.86848 40.72675 139.05046 39.85895 140.09375 39.90625 C 143.89018 40.07836 146.33611 39.30803 147.84375 38.46875 C 148.59757 38.04911 149.10057 37.60486 149.4375 37.3125 C 149.57261 37.19527 149.65949 37.14322 149.71875 37.09375 A 0.750075 0.750075 0 0 0 149.9375 35.71875 C 149.67143 35.55329 149.34049 35.59754 149.1875 35.65625 C 149.03451 35.71495 148.94827 35.7885 148.875 35.84375 C 148.72846 35.95425 148.62269 36.05392 148.46875 36.1875 C 148.16086 36.45465 147.72661 36.80395 147.09375 37.15625 C 145.82803 37.86086 143.71978 38.5678 140.15625 38.40625 C 138.3989 38.32655 137.03672 39.37138 135.9375 39.6875 C 133.95853 40.25663 131.47924 40.62081 129.53125 40.625 C 128.55726 40.627 127.72794 40.5387 127.1875 40.375 C 126.96046 40.3062 126.82007 40.22305 126.71875 40.15625 C 127.0729 39.50139 127.65812 38.73195 128.4375 37.9375 C 129.06589 37.61576 129.49294 37.40458 130.1875 37.0625 C 131.7801 36.27812 133.45397 35.54669 134.0625 35.40625 C 134.36074 35.33745 134.63696 35.23509 134.9375 35.15625 C 135.0271 35.13275 135.06896 35.1347 135.125 35.125 A 0.750075 0.750075 0 0 0 135.15625 35.125 A 0.750075 0.750075 0 0 0 136.15625 34.4375 C 136.15625 34.21079 135.9552 34.00134 135.78125 33.84375 L 135.8125 33.78125 C 135.7832 33.76275 135.74835 33.7674 135.71875 33.75 C 135.69095 33.731 135.68265 33.66775 135.65625 33.65625 C 135.4533 33.56745 135.33232 33.58955 135.21875 33.59375 C 135.20975 33.58975 135.1969 33.59775 135.1875 33.59375 C 134.39629 33.3013 133.56246 33.22724 132.71875 33.4375 C 131.654 33.70284 130.59033 34.24744 129.59375 34.9375 C 128.84145 35.45842 128.17019 36.0943 127.53125 36.71875 C 126.85816 37.06416 126.01188 37.52443 125.625 37.71875 C 121.99931 38.17863 118.57459 38.55497 115.8125 38.71875 C 113.00599 38.88516 110.79823 38.75485 109.875 38.40625 C 109.64419 38.31915 109.49583 38.24582 109.4375 38.1875 C 109.3792 38.1292 109.40935 38.13495 109.40625 38.09375 C 109.40525 38.07785 109.52105 37.91508 109.53125 37.875 C 111.06389 37.19075 112.86887 36.30428 114.5625 35.375 C 116.25613 34.44572 117.81148 33.48429 118.875 32.59375 C 119.40676 32.14848 119.83953 31.72592 120.09375 31.21875 C 120.22086 30.96516 120.29908 30.68166 120.25 30.34375 C 120.2009 30.00584 120.00637 29.66103 119.75 29.46875 C 119.41996 29.22121 119.06372 29.26872 118.84375 29.3125 C 118.62378 29.3563 118.47253 29.42658 118.3125 29.5 C 117.99243 29.64683 117.61114 29.81354 117.71875 29.78125 A 0.750075 0.750075 0 0 0 117.5625 29.875 C 113.04423 32.52132 110.34668 34.41922 108.96875 35.9375 C 108.74061 36.18888 108.60045 36.44469 108.4375 36.6875 C 107.2377 37.19857 106.07201 37.6356 105.8125 37.6875 C 104.51242 37.94753 102.52939 38.63355 100.53125 39.03125 C 98.53311 39.42895 96.59282 39.45774 95.625 38.8125 C 95.5624 38.7708 95.54745 38.7286 95.53125 38.46875 C 95.51505 38.20887 95.57695 37.78642 95.71875 37.3125 C 96.00238 36.36466 96.56669 35.21023 97.09375 34.25 C 97.35728 33.76988 97.61368 33.33605 97.8125 33 C 98.01132 32.66395 98.12341 32.47288 98.21875 32.28125 C 98.23065 32.25725 98.2325 32.2331 98.25 32.1875 C 98.259 32.1647 98.26905 32.14385 98.28125 32.09375 C 98.28725 32.06865 98.3077 32.01385 98.3125 31.96875 C 98.3175 31.92355 98.3126 31.78192 98.3125 31.78125 C 98.3124 31.78058 98.12532 31.40662 98.125 31.40625 C 98.12469 31.40588 97.65678 31.15631 97.65625 31.15625 C 97.65572 31.15619 97.31324 31.1873 97.3125 31.1875 C 97.31175 31.18775 97.2194 31.2314 97.1875 31.25 C 97.05981 31.3246 97.05758 31.349 97.03125 31.375 C 96.92594 31.47894 96.87998 31.53206 96.78125 31.65625 C 96.58379 31.90464 96.25791 32.33969 95.75 33 C 95.6681 33.10648 94.83815 33.82689 93.8125 34.5625 C 92.78685 35.29811 91.48774 36.14349 90.1875 36.9375 C 88.88726 37.73151 87.58639 38.4649 86.5625 38.9375 C 86.05056 39.1738 85.61756 39.35567 85.3125 39.4375 C 85.190174 39.470301 85.119441 39.472489 85.0625 39.46875 C 85.056373 39.444797 85.03856 39.418663 85.03125 39.34375 C 85.01315 39.15788 85.04645 38.8124 85.15625 38.40625 C 85.37578 37.59395 85.82636 36.53297 86.25 35.53125 C 86.67364 34.52953 87.09806 33.66808 87.09375 32.78125 C 87.09275 32.55954 87.06435 32.30433 86.9375 32.0625 C 86.8107 31.82067 86.57537 31.60078 86.3125 31.5 C 85.78676 31.29844 85.30299 31.4188 84.71875 31.625 C 84.19773 31.8089 83.55986 32.19595 82.71875 32.71875 C 81.87764 33.24155 80.88497 33.88789 79.90625 34.5625 C 78.16391 35.76346 76.72666 36.86715 75.875 37.625 C 76.4378 36.74133 77.05518 35.8212 77.40625 35.03125 C 77.49925 34.82204 77.57082 34.67021 77.6875 34.3125 C 77.80418 33.95479 77.9406 33.49592 78.0625 33.0625 C 78.1844 32.62908 78.29316 32.22038 78.34375 31.875 C 78.36905 31.70231 78.41915 31.582 78.34375 31.28125 C 78.30605 31.13088 78.15866 30.79745 77.78125 30.6875 C 77.40384 30.57755 77.14672 30.7571 77.03125 30.84375 C 75.99238 31.62294 74.70562 32.03089 73.3125 32.4375 C 71.91938 32.84411 70.44342 33.22831 69.09375 34.15625 C 68.86145 34.31596 68.68353 34.5407 68.46875 34.71875 C 68.77309 34.24028 69.13763 33.74741 69.34375 33.3125 C 69.52185 32.93673 69.62979 32.58683 69.6875 32.21875 C 69.7452 31.85067 69.7323 31.38852 69.375 31.03125 C 69.09632 30.75256 68.8234 30.76654 68.6875 30.78125 C 68.5516 30.79595 68.46286 30.8435 68.375 30.875 C 68.19928 30.9381 68.04539 31.01774 67.84375 31.125 C 67.44046 31.33953 66.91498 31.64887 66.3125 32.03125 C 65.10753 32.79602 63.57276 33.84888 62.03125 34.90625 C 60.48974 35.96362 58.93532 37.02 57.78125 37.8125 C 57.51674 37.99414 57.37631 38.10073 57.15625 38.25 C 57.17995 38.2123 57.1623 38.19495 57.1875 38.15625 C 57.32836 37.94342 57.65591 37.64745 57.84375 37.40625 C 58.27676 37.13699 58.77521 36.84696 59.15625 36.59375 C 60.19481 35.90361 60.94515 35.37519 61.375 34.90625 C 62.17461 34.03391 63.00672 32.9866 63.5625 31.875 C 63.73772 31.52455 63.68906 31.34221 63.6875 31.15625 C 63.7673 31.06455 63.86392 30.97423 63.9375 30.84375 C 63.9846 30.76015 64.06328 30.6855 64.03125 30.34375 C 64.01525 30.17287 63.9043 29.91194 63.71875 29.78125 C 63.5332 29.65056 63.35455 29.65625 63.25 29.65625 C 62.90587 29.65625 62.53273 29.94056 62.40625 30.1875 C 62.35695 30.2837 62.36445 30.32799 62.34375 30.40625 C 62.16386 30.60063 61.9463 30.83719 61.625 31.15625 C 60.84572 31.9301 59.74836 32.98899 58.6875 34.09375 C 57.99657 34.81327 57.47835 35.51397 56.90625 36.21875 C 56.21931 36.64288 55.57478 37.06554 54.84375 37.46875 C 53.6107 38.14886 52.38734 38.73328 51.46875 39.0625 C 51.07592 39.20329 50.78897 39.27888 50.5625 39.3125 C 50.70295 39.00276 50.99209 38.54447 51.375 38.03125 C 52.14082 37.00481 53.28333 35.75066 54.5 34.5625 C 54.5984 34.4664 54.68215 34.40738 54.78125 34.3125 C 55.13247 34.1238 55.42809 33.97524 55.78125 33.78125 C 56.99782 33.11301 58.19953 32.41919 59.0625 31.84375 C 59.49399 31.55603 59.82432 31.32602 60.09375 31.0625 C 60.22847 30.93074 60.36501 30.78723 60.46875 30.5625 C 60.52065 30.45014 60.57434 30.32114 60.5625 30.125 C 60.5507 29.92886 60.45038 29.70039 60.3125 29.5625 C 60.05471 29.3047 59.6726 29.23604 59.40625 29.25 C 59.1399 29.264 58.92334 29.31 58.6875 29.40625 C 58.21582 29.59869 57.71551 29.91671 57.15625 30.3125 C 56.20572 30.98519 55.11211 32.01263 54.03125 33.03125 C 53.19888 33.47807 52.33466 33.92517 51.65625 34.28125 C 51.16858 34.53721 50.75684 34.7663 50.4375 34.9375 C 50.11816 35.1087 49.97352 35.14485 49.75 35.3125 C 47.29429 37.15436 45.57199 37.98864 44.375 38.25 C 43.17801 38.51136 42.51003 38.2883 41.84375 37.875 C 41.83295 37.868 41.8232 37.85055 41.8125 37.84375 C 41.8935 37.78565 42.15324 37.64288 42.21875 37.59375 C 43.95489 36.29159 45.71077 34.992 47.0625 33.34375 C 48.41423 31.6955 49.34375 29.66693 49.34375 27.0625 C 49.34375 26.93177 49.37225 26.49165 49.34375 26.0625 C 49.32945 25.84793 49.29315 25.64321 49.21875 25.40625 C 49.16675 25.2406 48.98519 25.04793 48.8125 24.875 C 49.64179 23.75591 51.01584 22.17402 52.28125 20.34375 C 53.00057 19.30334 53.64393 18.22844 54.03125 17.1875 C 54.41857 16.14657 54.56921 15.07595 54.09375 14.125 C 53.89427 13.72603 53.47821 13.4269 53.09375 13.34375 C 52.90152 13.30215 52.718415 13.296687 52.53125 13.3125 z M 276.40625 13.46875 C 276.22926 13.48355 276.08787 13.54035 275.96875 13.59375 C 275.73052 13.70064 275.54173 13.85144 275.3125 14.03125 C 274.85404 14.39087 274.30598 14.89214 273.6875 15.53125 C 272.45054 16.80947 270.90036 18.58978 269.34375 20.4375 C 266.23053 24.13294 263.01505 28.18033 262.3125 29 C 261.71052 29.70234 261.26746 30.36516 260.78125 31.0625 C 260.76965 31.0715 260.7616 31.08475 260.75 31.09375 C 259.19012 32.30586 257.4984 33.38491 255.59375 34.28125 C 253.98416 35.03874 252.14621 35.8771 250.75 36.84375 C 249.34582 37.81592 248.22794 37.91671 246.96875 37.90625 C 245.92283 37.89725 244.75268 37.86155 243.5 38.15625 C 244.68026 36.93698 246.04181 35.62113 247.4375 34.34375 C 248.8791 33.42817 250.32903 32.55014 251.6875 31.53125 C 251.91059 31.36392 252.86611 31.04769 253.65625 30.75 C 254.05132 30.60115 254.40729 30.48223 254.75 30.15625 C 254.92136 29.99326 255.1211 29.69473 255.125 29.34375 C 255.129 28.99277 254.93958 28.72084 254.75 28.53125 C 254.49064 28.27188 254.14383 28.1559 253.84375 28.15625 C 253.54367 28.1566 253.24865 28.24055 252.96875 28.34375 C 252.40895 28.55018 251.83057 28.91644 251.15625 29.375 C 249.8076 30.29212 248.17931 31.62077 246.5625 33.09375 C 246.5174 33.13475 246.4826 33.17755 246.4375 33.21875 C 245.30682 33.93618 244.21644 34.67859 243.125 35.40625 C 242.52861 35.80386 241.97036 35.74972 241.1875 35.625 C 240.40464 35.50028 239.44106 35.23693 238.40625 35.625 C 236.49825 36.34053 234.9123 37.77152 233.09375 38.0625 C 232.662 38.1316 232.0809 38.0565 231.53125 37.9375 C 230.9816 37.81898 230.47621 37.65625 229.90625 37.65625 C 229.5938 37.65625 229.53566 37.72435 229.4375 37.78125 C 229.3393 37.83815 229.24234 37.90299 229.15625 37.96875 C 228.98407 38.10026 228.80506 38.2538 228.59375 38.4375 C 228.17114 38.80489 227.63851 39.26027 227.125 39.65625 C 226.61149 40.05223 226.08621 40.38504 225.75 40.5 C 225.5819 40.5575 225.48772 40.566 225.46875 40.5625 C 225.44975 40.5595 225.50095 40.57945 225.46875 40.53125 C 225.39645 40.42286 225.35976 40.29658 225.40625 40.03125 C 225.45275 39.76592 225.59961 39.41449 225.84375 39 C 226.33203 38.17101 227.19023 37.16686 228.15625 36.21875 C 229.12227 35.27064 230.20023 34.36484 231.125 33.65625 C 232.04977 32.94766 232.87483 32.4237 233.125 32.3125 A 0.75519037 0.75519037 0 1 0 232.5 30.9375 C 231.93049 31.19065 231.18913 31.72522 230.21875 32.46875 C 229.24837 33.21228 228.11428 34.15464 227.09375 35.15625 C 226.07322 36.15786 225.13684 37.1906 224.53125 38.21875 C 224.22846 38.73283 224.03026 39.25181 223.9375 39.78125 C 223.8447 40.31069 223.8996 40.89619 224.21875 41.375 C 224.44628 41.7163 224.80942 41.962 225.1875 42.03125 C 225.56558 42.10055 225.92819 42.0475 226.25 41.9375 C 226.89362 41.71742 227.49148 41.28408 228.0625 40.84375 C 228.63352 40.40342 229.15158 39.95098 229.5625 39.59375 C 229.75432 39.42699 229.91631 39.27709 230.03125 39.1875 C 230.24336 39.2083 230.66938 39.28779 231.21875 39.40625 C 231.82665 39.53733 232.5531 39.65276 233.3125 39.53125 C 235.69559 39.14994 237.45206 37.58831 238.9375 37.03125 C 239.44002 36.8428 240.07745 36.95675 240.9375 37.09375 C 241.36753 37.16225 241.86076 37.23409 242.375 37.1875 C 242.27094 37.29523 242.13191 37.42589 242.03125 37.53125 C 240.86128 38.75579 240.07901 39.70169 239.5625 40.40625 C 239.5535 40.41825 239.5086 40.4257 239.5 40.4375 C 239.4496 40.4876 239.4039 40.5326 239.375 40.5625 C 239.367 40.5705 239.381 40.58745 239.375 40.59375 C 239.366 40.60375 239.34645 40.6222 239.34375 40.625 C 239.33475 40.632 239.3125 40.65625 239.3125 40.65625 C 239.3125 40.65625 239.43618 40.82302 239.5 40.90625 L 239.53125 40.9375 C 239.78066 41.26275 240.2187 41.81252 240.21875 41.8125 C 240.21881 41.81247 240.3125 41.7501 240.3125 41.75 C 240.3126 41.74992 240.3667 41.72575 240.375 41.71875 C 240.3916 41.70455 240.40035 41.6931 240.40625 41.6875 C 240.42995 41.6651 240.4313 41.66265 240.4375 41.65625 C 240.45 41.64335 240.45195 41.6424 240.46875 41.625 C 240.47885 41.6146 240.4869 41.5759 240.5 41.5625 C 240.503 41.5575 240.52765 41.53665 240.53125 41.53125 C 240.55655 41.50575 240.5913 41.50175 240.625 41.46875 C 240.76015 41.33691 240.96186 41.14678 241.21875 40.9375 C 241.73253 40.51894 242.464 40.02523 243.28125 39.71875 C 244.468 39.2737 245.60308 39.39491 246.96875 39.40625 C 248.33442 39.41755 249.93009 39.2672 251.625 38.09375 C 252.85257 37.24386 254.61036 36.38192 256.21875 35.625 C 256.71917 35.3895 257.08875 35.03907 257.5625 34.78125 C 257.2056 35.16381 256.85897 35.5574 256.5 35.9375 C 255.07805 37.44315 254.12897 38.47843 253.53125 39.15625 C 253.23239 39.49516 253.01933 39.74337 252.875 39.9375 C 252.8028 40.0346 252.75071 40.08728 252.6875 40.21875 C 252.6559 40.28445 252.60145 40.35395 252.59375 40.5625 C 252.58975 40.66678 252.61595 40.83177 252.71875 41 C 252.82158 41.16823 253.00858 41.30195 253.15625 41.34375 C 253.45158 41.42735 253.57459 41.3407 253.65625 41.3125 C 253.73795 41.2844 253.76472 41.2761 253.8125 41.25 C 253.9081 41.1979 253.99953 41.12848 254.09375 41.0625 C 254.28218 40.93054 254.50526 40.7501 254.78125 40.53125 C 255.33324 40.09355 256.07409 39.49396 256.90625 38.8125 C 258.57057 37.44959 260.63299 35.80291 262.34375 34.625 C 263.19913 34.03604 263.96274 33.54423 264.5 33.3125 C 264.70936 33.2222 264.83605 33.20775 264.9375 33.1875 C 264.9795 33.2833 265.04053 33.36565 265.03125 33.5 C 265.01725 33.70356 264.9199 33.9772 264.75 34.3125 C 264.41021 34.98311 263.76391 35.84269 263.125 36.71875 C 262.48609 37.59481 261.83133 38.50876 261.53125 39.53125 C 261.23117 40.55374 261.39765 41.77261 262.3125 42.6875 C 263.48567 43.86072 264.97917 44.26944 266.40625 44.125 C 267.83333 43.98056 269.20798 43.33242 270.5 42.46875 C 273.08405 40.74141 275.28509 38.13888 276.28125 36.3125 C 276.72605 35.49699 276.94848 34.30866 277.25 33.125 C 277.3346 32.79302 277.44407 32.52009 277.53125 32.21875 C 277.56125 32.24775 277.59345 32.28105 277.59375 32.28125 C 277.91092 32.53499 278.16385 32.52445 278.375 32.53125 C 278.58615 32.53825 278.78812 32.5159 278.96875 32.5 C 279.14938 32.4841 279.29109 32.47125 279.40625 32.46875 C 279.46383 32.46725 279.50878 32.493837 279.53125 32.5 C 280.90838 33.125119 283.96136 36.44163 288.5625 34.03125 C 290.26357 33.14012 292.03948 31.8125 293.71875 30.59375 C 294.032 30.3664 294.25568 30.30863 294.5625 30.09375 C 292.09025 33.01631 289.67742 35.97992 287.25 38.9375 C 283.68374 41.07923 280.60125 44.41619 277.75 48.03125 C 274.022 52.75793 270.6569 57.93493 267.25 61.53125 C 266.77421 62.0335 266.41942 62.55252 266.1875 63.03125 C 265.95558 63.50998 265.78986 63.92171 265.875 64.4375 C 265.9176 64.69539 266.09999 65.05591 266.4375 65.21875 C 266.77501 65.38159 267.09936 65.31675 267.34375 65.21875 C 267.83253 65.02277 268.22614 64.66698 268.75 64.0625 C 271.69464 60.6647 274.53448 56.76957 277.5 53.0625 C 281.00481 48.68131 284.66718 44.45498 288.21875 40.125 C 289.17119 39.56568 290.1466 39.05531 291.15625 38.71875 C 291.33068 38.66055 291.32392 38.6909 291.375 38.6875 C 291.3874 38.83051 291.37546 39.20914 291.3125 39.78125 C 291.2406 40.43486 291.15148 41.239 291.25 42.03125 C 291.3485 42.8235 291.7115 43.67514 292.53125 44.1875 C 292.90077 44.41846 293.28108 44.41142 293.625 44.375 C 293.96892 44.3386 294.31716 44.25137 294.6875 44.125 C 295.42818 43.87225 296.24668 43.48977 297.0625 43.0625 C 298.69413 42.20797 300.31665 41.16728 300.71875 40.9375 C 301.09571 40.72208 301.8647 40.59652 302.78125 40.59375 C 303.6978 40.59075 304.75226 40.68495 305.78125 40.75 C 306.81024 40.8151 307.79007 40.88169 308.65625 40.71875 C 309.08934 40.63725 309.51288 40.48361 309.875 40.21875 C 310.23712 39.95389 310.50406 39.54087 310.59375 39.0625 A 0.750075 0.750075 0 1 0 309.125 38.78125 C 309.1009 38.90999 309.0696 38.92623 308.96875 39 C 308.8679 39.0738 308.67135 39.16299 308.375 39.21875 C 307.7823 39.33028 306.87479 39.3133 305.875 39.25 C 304.87521 39.1868 303.77078 39.09066 302.75 39.09375 C 301.72922 39.09675 300.77632 39.19476 299.96875 39.65625 C 299.43637 39.96048 297.93343 40.90255 296.375 41.71875 C 295.59578 42.12685 294.79671 42.51086 294.1875 42.71875 C 293.88289 42.82269 293.63736 42.85715 293.46875 42.875 C 293.38444 42.8839 293.31009 42.8762 293.28125 42.875 C 292.93545 42.643919 292.81383 42.357091 292.75 41.84375 C 292.6839 41.31179 292.7398 40.62916 292.8125 39.96875 C 292.8852 39.30834 293.03367 38.67553 292.78125 38 C 292.65502 37.66224 292.31753 37.29688 291.90625 37.1875 C 291.49497 37.07812 291.08134 37.1708 290.65625 37.3125 C 290.58975 37.3347 290.53492 37.38325 290.46875 37.40625 C 293.14127 34.17433 295.76875 30.902 298.5 27.71875 C 298.74135 27.59902 298.97943 27.48178 299.25 27.28125 C 299.62082 27.00642 300.03503 26.65648 300.5 26.25 C 301.42993 25.43705 302.51501 24.38719 303.53125 23.34375 C 304.54749 22.30031 305.48557 21.26994 306.15625 20.40625 C 306.49159 19.9744 306.7541 19.57365 306.9375 19.21875 C 307.0292 19.0413 307.11668 18.87618 307.15625 18.65625 C 307.19585 18.43632 307.18725 18.06226 306.90625 17.78125 C 306.75277 17.62776 306.53937 17.57105 306.40625 17.5625 C 306.27313 17.5535 306.18675 17.57585 306.125 17.59375 C 306.00149 17.62965 305.95985 17.6558 305.90625 17.6875 C 305.79905 17.751 305.71842 17.83122 305.625 17.90625 C 305.43815 18.05632 305.20045 18.25497 304.9375 18.5 C 304.4116 18.99006 303.74681 19.65521 303.0625 20.34375 C 301.69389 21.72084 300.33522 23.1151 300 23.5 C 299.11898 24.51158 298.31079 25.5765 297.4375 26.59375 C 295.95402 27.16099 294.43063 28.2233 292.84375 29.375 C 291.14698 30.60645 289.40056 31.91956 287.875 32.71875 C 283.93448 34.78306 282.34044 32.03066 280.09375 31.0625 C 279.79846 30.93525 279.57572 30.96415 279.375 30.96875 C 279.17428 30.97375 278.98289 30.985 278.8125 31 C 278.7343 31.007 278.69055 30.996 278.625 31 C 278.5998 30.89858 278.5909 30.79831 278.5625 30.6875 C 278.5112 30.48711 278.465 30.29921 278.40625 30.125 C 278.37695 30.0379 278.34895 29.9645 278.28125 29.84375 C 278.24745 29.78335 278.21035 29.69434 278.03125 29.5625 C 277.94175 29.4966 277.81025 29.40392 277.59375 29.40625 C 277.37725 29.40825 277.16727 29.55148 277.0625 29.65625 C 276.67898 30.03978 276.49981 30.49925 276.3125 31.03125 C 276.12519 31.56325 275.96667 32.14479 275.8125 32.75 C 275.50416 33.96042 275.1653 35.2334 274.96875 35.59375 C 274.14194 37.10963 272.00915 39.66682 269.6875 41.21875 C 268.52668 41.99472 267.31698 42.51701 266.25 42.625 C 265.18302 42.73299 264.2508 42.50084 263.375 41.625 C 262.80593 41.0559 262.77061 40.61263 262.96875 39.9375 C 263.16689 39.26237 263.7268 38.43971 264.34375 37.59375 C 264.9607 36.74779 265.64452 35.88658 266.09375 35 C 266.31836 34.55671 266.49702 34.0921 266.53125 33.59375 C 266.56545 33.0954 266.42466 32.56623 266.09375 32.125 C 265.81292 31.75054 265.3281 31.63147 264.96875 31.65625 C 264.6094 31.68105 264.26277 31.78372 263.90625 31.9375 C 263.1932 32.24505 262.39537 32.75851 261.5 33.375 C 260.8439 33.82674 260.16769 34.40244 259.46875 34.9375 C 259.90399 34.46808 260.34777 34.00087 260.78125 33.53125 C 261.21522 33.0611 261.52132 32.59581 261.875 32.09375 C 266.65441 28.32516 270.11494 23.4715 274 19.03125 C 274.10602 18.91008 274.3042 18.65192 274.625 18.25 C 274.9458 17.84808 275.3529 17.32962 275.75 16.8125 C 276.1471 16.29538 276.52806 15.78733 276.8125 15.375 C 276.95472 15.16883 277.06516 15.00894 277.15625 14.84375 C 277.20175 14.76115 277.24135 14.68525 277.28125 14.5625 C 277.30115 14.5011 277.34325 14.42261 277.34375 14.28125 C 277.34427 14.13989 277.28605 13.84735 277.03125 13.65625 C 276.82385 13.50069 276.58324 13.45395 276.40625 13.46875 z M 239.5 40.90625 L 239.28125 40.71875 C 239.27825 40.72375 239.2534 40.71275 239.25 40.71875 C 239.247 40.72275 239.253 40.7461 239.25 40.75 L 239.5 40.90625 z M 247.15625 13.5625 A 0.750075 0.750075 0 0 0 246.90625 13.65625 C 245.83778 14.19981 245.21278 14.88857 245 15.625 C 244.78722 16.36143 245.0263 17.12185 245.59375 17.5 C 245.8775 17.68908 246.25955 17.76029 246.625 17.6875 C 246.99045 17.6147 247.30613 17.37591 247.53125 17.0625 C 247.98149 16.43567 248.14876 15.55909 248 14.25 A 0.750075 0.750075 0 0 0 247.21875 13.5625 A 0.750075 0.750075 0 0 0 247.15625 13.5625 z M 120.625 14.3125 A 0.750075 0.750075 0 0 0 120.09375 14.78125 C 120.06255 14.86145 120.06055 14.92048 120.03125 15 C 119.68465 15.94078 119.42799 16.86938 119.3125 17.59375 C 119.2499 17.98655 119.22945 18.33494 119.21875 18.625 C 119.20805 18.91506 119.19795 19.09062 119.28125 19.375 C 119.30205 19.4461 119.33105 19.54409 119.40625 19.65625 C 119.48145 19.76841 119.63409 19.94605 119.90625 20 C 120.17841 20.0539 120.44233 19.9384 120.5625 19.84375 C 120.68267 19.74915 120.70769 19.66178 120.75 19.59375 C 120.91925 19.32163 120.98188 19.10061 121.0625 18.75 C 121.22373 18.04878 121.38241 16.91118 121.53125 15.125 A 0.750075 0.750075 0 0 0 120.6875 14.3125 A 0.750075 0.750075 0 0 0 120.625 14.3125 z M 180.8125 15.625 C 179.80589 15.648341 178.78226 15.71715 177.75 15.8125 C 175.68548 16.00322 173.64568 16.31563 171.90625 16.75 C 170.18706 17.179316 168.80104 17.668137 167.875 18.375 C 167.84771 18.384062 167.77797 18.40875 167.6875 18.40625 C 167.50657 18.40125 167.23597 18.3627 166.9375 18.3125 C 166.34056 18.212 165.65541 17.95358 164.875 18.34375 C 162.76575 19.39842 161.26757 20.10973 160.21875 20.75 C 159.69434 21.07014 159.29543 21.36481 158.96875 21.71875 C 158.64207 22.07269 158.39209 22.52868 158.34375 23 C 158.24705 23.94264 158.75255 24.70796 159.4375 25.75 C 160.12245 26.79204 161.072 28.11175 162.25 29.96875 A 0.75032545 0.75032545 0 1 0 163.53125 29.1875 C 162.3265 27.28833 161.33425 25.92142 160.6875 24.9375 C 160.04075 23.95358 159.81985 23.35798 159.84375 23.125 C 159.85575 23.00851 159.89055 22.93625 160.0625 22.75 C 160.23441 22.56375 160.53737 22.31367 161 22.03125 C 161.92526 21.4664 163.44296 20.74731 165.5625 19.6875 C 165.506 19.7157 166.0778 19.67855 166.6875 19.78125 C 166.99235 19.83255 167.32131 19.89695 167.65625 19.90625 C 167.99119 19.91525 168.37353 19.88655 168.75 19.59375 C 169.31683 19.15286 170.63817 18.62906 172.28125 18.21875 C 173.92433 17.80844 175.90892 17.46576 177.90625 17.28125 C 179.90358 17.09674 181.91429 17.06768 183.625 17.1875 C 184.29091 17.234122 184.88765 17.304891 185.4375 17.40625 A 0.750075 0.750075 0 0 0 185.375 17.5625 C 184.0137 20.82523 180.49225 22.60395 178.25 25.59375 C 178.17652 25.691727 178.08938 25.802678 178 25.90625 C 177.73615 25.97302 177.52857 26.020129 177.40625 26.03125 A 0.75259966 0.75259966 0 0 0 176.78125 27.09375 C 175.51594 28.202711 173.7797 29.453613 171.9375 30.71875 C 169.20206 32.59732 166.29294 34.47912 164.40625 36.15625 C 162.7442 37.63368 160.8853 38.94708 159.21875 40.1875 A 0.750075 0.750075 0 0 0 157.8125 39.96875 C 157.8095 39.97375 157.58152 40.28636 157.375 40.8125 C 157.27174 41.07557 157.18814 41.39263 157.1875 41.75 C 157.18686 42.10737 157.30519 42.55517 157.625 42.875 C 157.80323 43.05323 158.10501 43.11549 158.28125 43.09375 C 158.45749 43.07205 158.55258 43.01135 158.625 42.96875 C 158.76983 42.88355 158.82851 42.82729 158.90625 42.75 C 159.06174 42.59542 159.19827 42.40008 159.34375 42.21875 C 159.48923 42.03742 159.63568 41.86098 159.75 41.71875 C 159.83574 41.612077 159.93861 41.505702 159.9375 41.5 C 161.60382 40.251855 163.59037 38.895426 165.40625 37.28125 C 167.13506 35.74447 170.05751 33.86074 172.8125 31.96875 C 175.16415 30.353753 177.39668 28.789778 178.8125 27.28125 C 179.51574 27.083565 180.33163 26.777926 181.28125 26.40625 C 182.88986 25.77665 184.73388 24.91176 186.3125 23.9375 C 187.89112 22.96324 189.23279 21.92977 189.84375 20.625 C 190.14923 19.97262 190.22908 19.20224 189.9375 18.5 C 189.64597 17.79776 189.05234 17.21296 188.1875 16.71875 C 187.09224 16.09286 185.53889 15.81493 183.71875 15.6875 C 182.80868 15.623785 181.81911 15.601659 180.8125 15.625 z M 38.03125 16.8125 C 38.48897 16.8017 38.86128 16.8512 39.125 16.9375 C 39.38872 17.0238 39.51847 17.1102 39.5625 17.1875 C 39.6065 17.2648 39.62985 17.38793 39.53125 17.71875 C 39.43265 18.04957 39.17118 18.53435 38.6875 19.15625 C 38.34021 19.60278 35.76956 22.37403 34.46875 23.84375 C 34.38325 23.14274 34.24648 22.43961 33.96875 21.78125 C 33.62754 20.97242 33.20898 20.21148 32.96875 19.625 C 32.84863 19.33176 32.77357 19.07783 32.75 18.9375 C 32.7382 18.867335 32.75175 18.840775 32.75 18.84375 C 33.138786 18.384985 33.977423 17.851854 34.9375 17.46875 C 35.95315 17.06347 37.11581 16.83414 38.03125 16.8125 z M 226.875 17.1875 C 226.19031 17.1905 225.52727 17.38702 224.9375 17.65625 C 223.75795 18.19471 222.6982 18.99769 221.875 19.375 C 218.5426 20.90241 215.14176 22.48979 211.84375 24.375 C 212.79788 23.40122 213.78009 22.49926 214.90625 21.8125 A 0.75032545 0.75032545 0 1 0 214.125 20.53125 C 210.89664 22.49998 208.78112 25.54674 206.34375 28.03125 C 205.49913 28.65615 204.6195 29.24576 203.8125 29.9375 C 202.8857 30.73193 200.01783 33.44031 197.21875 36 C 195.98122 37.13169 194.81439 38.1681 193.8125 39.03125 C 193.791 39.05015 193.7712 39.07495 193.75 39.09375 C 193.63916 39.18905 193.48014 39.34835 193.375 39.4375 C 192.96491 39.7967 192.49279 40.19952 192.375 40.25 C 192.18802 40.3301 191.86135 40.47477 191.59375 40.625 C 191.45995 40.7001 191.37499 40.7107 191.1875 40.90625 C 191.1406 40.95515 191.0939 41.03762 191.03125 41.1875 C 190.96855 41.33738 190.93465 41.66536 191.09375 41.90625 C 191.25284 42.14714 191.45315 42.19065 191.5625 42.21875 C 191.67185 42.24685 191.72071 42.25 191.78125 42.25 C 192.17618 42.25 192.27652 42.1557 192.4375 42.0625 C 192.59848 41.9693 192.7454 41.82862 192.9375 41.6875 C 193.3217 41.40525 193.79654 41.02649 194.34375 40.5625 C 194.45566 40.4676 194.6324 40.31988 194.75 40.21875 C 195.30403 39.72932 195.83473 39.4375 196.0625 39.4375 C 196.77048 39.4375 197.35092 39.0775 197.96875 38.65625 C 198.58658 38.235 199.24117 37.70088 199.84375 37.125 C 201.04891 35.97323 202.13682 34.69456 202.625 34.125 C 203.81196 32.74015 205.10243 31.29849 206.40625 30.125 C 206.74648 29.81878 207.02312 29.47794 207.34375 29.15625 C 212.05179 25.69587 217.2989 23.10269 222.5 20.71875 C 223.57407 20.22645 224.6078 19.46706 225.5625 19.03125 C 226.5172 18.59544 227.21886 18.45323 228.03125 19.0625 C 228.27518 19.24545 228.3395 19.38287 228.375 19.625 C 228.4105 19.86713 228.378 20.2295 228.21875 20.65625 C 227.90014 21.50975 227.12027 22.62659 226.21875 23.6875 C 224.41571 25.80932 222.10336 27.77269 221.53125 28.28125 C 221.47885 28.32785 221.43275 28.37455 221.375 28.4375 C 221.3461 28.4689 221.3342 28.4698 221.25 28.65625 C 221.2395 28.67955 221.22965 28.68375 221.21875 28.71875 C 221.20775 28.75375 221.1875 28.84335 221.1875 28.84375 C 221.18745 28.84415 221.18745 29.06217 221.1875 29.0625 C 221.18755 29.06283 221.28115 29.31224 221.28125 29.3125 C 221.28139 29.31276 221.46851 29.53106 221.46875 29.53125 C 221.46899 29.53144 221.65592 29.65613 221.65625 29.65625 C 221.65658 29.65637 221.84332 29.6875 221.84375 29.6875 C 221.84418 29.68755 221.906 29.71975 221.9375 29.71875 C 222.18978 29.71075 222.20964 29.6422 222.25 29.625 C 222.2904 29.6077 222.31875 29.60685 222.34375 29.59375 C 222.39395 29.56745 222.44593 29.5312 222.5 29.5 C 222.7163 29.37518 223.01959 29.20236 223.40625 29 C 223.79291 28.79764 224.25998 28.57851 224.625 28.46875 C 224.95388 28.36985 225.13597 28.40105 225.1875 28.40625 C 225.1915 28.43985 225.1905 28.4376 225.1875 28.5 C 225.1757 28.75684 225.04917 29.20197 224.875 29.65625 C 224.52667 30.56481 223.93701 31.61528 223.84375 31.75 C 221.5209 35.10536 216.71588 39.77582 213.21875 41.71875 C 211.54317 42.64967 208.64428 43.9065 206.78125 44.03125 C 205.84973 44.09365 205.33923 43.91645 205.09375 43.53125 C 204.84827 43.14605 204.73181 42.18597 205.34375 40.4375 C 205.56496 39.80546 205.82604 38.98515 206.125 38.21875 C 206.27863 37.82491 206.42383 37.62244 206.59375 37.3125 C 206.68545 37.50803 206.78657 37.70968 206.90625 37.90625 C 207.07578 38.1847 207.24628 38.51034 207.78125 38.65625 C 210.34606 39.35577 212.02328 39.39977 213.84375 38.8125 A 0.75130096 0.75130096 0 1 0 213.40625 37.375 C 211.86777 37.8713 210.62555 37.864987 208.3125 37.25 C 208.30294 37.23895 208.23751 37.2071 208.1875 37.125 C 208.0875 36.96079 207.9632 36.69731 207.84375 36.4375 C 207.7243 36.17769 207.59862 35.93455 207.4375 35.6875 C 207.3569 35.56398 207.31096 35.42399 207.0625 35.28125 C 206.93827 35.20985 206.71369 35.12997 206.5 35.15625 C 206.28631 35.18255 206.10772 35.29852 206 35.40625 C 205.40529 36.00098 205.04621 36.84803 204.71875 37.6875 C 204.39129 38.52697 204.1399 39.35918 203.9375 39.9375 C 203.25684 41.88231 203.16666 43.29907 203.8125 44.3125 C 204.45834 45.32593 205.68309 45.61106 206.875 45.53125 C 209.25881 45.37162 212.14864 44.0251 213.9375 43.03125 C 217.79879 40.886 222.56705 36.19843 225.0625 32.59375 C 225.32284 32.2177 225.87156 31.28735 226.28125 30.21875 C 226.48609 29.68445 226.66217 29.14285 226.6875 28.59375 C 226.7002 28.3192 226.6855 28.01008 226.5625 27.71875 C 226.43913 27.42742 226.16656 27.13835 225.84375 27 C 225.53157 26.86621 225.26125 27.00605 224.96875 27.03125 C 225.87657 26.18014 226.4198 25.78033 227.375 24.65625 C 228.33335 23.52846 229.19174 22.34813 229.625 21.1875 C 229.84163 20.60718 229.96185 19.99867 229.875 19.40625 C 229.7882 18.81383 229.43047 18.26818 228.90625 17.875 C 228.25723 17.38822 227.55969 17.18462 226.875 17.1875 z M 186.8125 17.78125 C 187.04993 17.865212 187.27391 17.937768 187.4375 18.03125 C 188.12219 18.42252 188.44425 18.77766 188.5625 19.0625 C 188.68075 19.34734 188.67686 19.59105 188.5 19.96875 C 188.14628 20.72415 186.99987 21.78112 185.53125 22.6875 C 184.10982 23.564757 182.41074 24.34172 180.90625 24.9375 C 182.89034 23.043748 185.46916 21.226122 186.75 18.15625 A 0.750075 0.750075 0 0 0 186.8125 17.78125 z M 27.875 31.1875 C 27.53718 31.5474 27.46357 31.64222 27.125 32 C 24.47904 34.79608 21.80237 37.50022 19.6875 39.5 C 19.6286 39.5557 19.5893 39.5704 19.53125 39.625 C 19.65076 39.48436 19.86819 39.22627 19.875 39.21875 C 21.80444 37.08612 23.87116 35.04493 25.84375 32.875 C 25.93385 32.7759 26.37177 32.35181 27 31.84375 C 27.22342 31.66306 27.60362 31.40117 27.875 31.1875 z M 118.03125 31.34375 C 117.98475 31.38515 117.988 31.3952 117.9375 31.4375 C 117.02672 32.20015 115.49307 33.15754 113.84375 34.0625 C 113.66792 34.159 113.49098 34.21697 113.3125 34.3125 C 114.55737 33.4443 116.11688 32.47388 118.03125 31.34375 z M 37.34375 37.09375 C 37.560378 37.080953 37.76116 37.093965 37.9375 37.125 C 38.29018 37.187 38.59202 37.33299 38.90625 37.53125 C 38.97895 37.57715 39.08306 37.66588 39.15625 37.71875 C 38.21212 38.32043 37.56295 38.8161 36.375 39.4375 C 35.32243 39.98808 34.25238 40.45114 33.40625 40.71875 C 32.77721 40.9177 32.53899 40.85367 32.3125 40.84375 C 32.58384 40.45525 33.09456 39.90495 33.6875 39.375 C 34.30023 38.82736 34.98707 38.31481 35.5625 37.90625 C 35.85021 37.70197 36.11101 37.52691 36.3125 37.40625 C 36.51399 37.28559 36.68583 37.20216 36.625 37.21875 C 36.89465 37.145205 37.127122 37.106547 37.34375 37.09375 z M 177.65625 37.90625 A 0.750075 0.750075 0 0 0 177.1875 38.21875 C 176.7983 38.77519 176.60455 39.26167 176.5625 39.71875 C 176.5415 39.94729 176.55255 40.17294 176.65625 40.40625 C 176.75957 40.63956 177.00478 40.90127 177.34375 40.96875 C 177.68272 41.03625 178.00251 40.89315 178.1875 40.71875 C 178.37249 40.54435 178.4928 40.34362 178.5625 40.125 C 178.7019 39.68776 178.70454 39.16289 178.5625 38.5 A 0.750075 0.750075 0 0 0 177.71875 37.90625 A 0.750075 0.750075 0 0 0 177.65625 37.90625 z M 279.375 48.46875 C 279.08319 48.83179 278.76031 49.16794 278.46875 49.53125 C 278.61477 49.34321 278.75926 49.15512 278.90625 48.96875 C 279.05305 48.78262 279.22722 48.65282 279.375 48.46875 z "
       transform="translate(179.00728,552.04529)"
       id="path2983" />
  </g>
</svg>
