<?xml version="1.0" encoding="UTF-8"?>
<svg version="1.0" xmlns="http://www.w3.org/2000/svg" width="292" height="48" >
<path fill="#231F20" d="M3.423,32.233c0.983-1.453,0.618-1.566,1.122,0.05c0.656,2.105,1.397,4.185,2.088,6.28 c0.708,2.147,1.399,4.309,1.895,6.517c0.07,0.324,0.126,0.65,0.167,0.979c-0.115,0.803,0.152,0.735,0.803-0.206 c-1.279-1.275-2.4-2.741-3.492-4.173c-2.565-3.366-4.287-7.213-4.171-11.492c0.161-5.975,5.917-10.813,11.367-7.421 c2.146,1.335,3.699,4.27,4.658,6.544c2.03,4.814-4.525,4.09-7.412,3.763c-0.139,0.472-0.279,0.943-0.418,1.415 c4.921-0.796,11.236-1.132,13.846,3.838c0.566,1.078,1.96,2.461,1.933,3.74c-0.037,1.683-10.216,1.771-11.275,1.836 c-1.093,0.068-1.488,1.501-0.17,1.42c2.968-0.184,16.298,0.433,12.505-5.828c-1.821-3.004-2.833-5.22-6.455-6.253 c-3.195-0.911-6.961-0.699-10.213-0.173c-0.769,0.125-1.678,1.272-0.418,1.415c3.157,0.357,8.318,1.159,10.22-2.209 c1.525-2.7-2.21-7.535-3.804-9.335c-2.615-2.954-6.689-3.521-10.202-2.124c-5.647,2.245-6.87,9.712-5.46,14.821 c0.796,2.887,2.647,5.511,4.433,7.854c0.978,1.283,2.273,3.398,3.857,4.027c2.604,1.033,1.567-3.283,1.346-4.168 c-1.054-4.227-2.726-8.272-3.957-12.445c-0.876-2.97-3.192-1.044-4.41,0.755C1.115,32.68,2.924,32.971,3.423,32.233L3.423,32.233 M44.897,40.432c-0.098,0.108,0.053-0.049,0.086-0.081c0.151-0.145,0.316-0.275,0.482-0.402 c0.465-0.353,0.972-0.594,1.554-0.651c0.424-0.042,0.958-0.169,1.297-0.446c0.339-0.278-0.303-0.271-0.44-0.257 c-1.756,0.174-3.665,0.859-4.878,2.2c-0.208,0.229,0.729,0.14,0.759,0.134C44.144,40.854,44.623,40.735,44.897,40.432 L44.897,40.432 M61.482,25.372c2.47,4.529,4.449,10.44,2.831,15.521c-0.245,0.768,1.613,0.347,1.871-0.08 c0.551-0.913,1.354-1.615,2.306-2.1c1.671-0.851,7.939,0.263,8.325,2.658c0.112,0.695,2.052,0.231,1.932-0.518 c-0.466-2.89-6.083-3.679-8.359-3.552c-2.427,0.134-4.726,1.318-6.009,3.443c0.624-0.026,1.247-0.053,1.871-0.08 c1.652-5.19-0.317-11.195-2.835-15.812C63.042,24.172,61.17,24.8,61.482,25.372L61.482,25.372 M95.579,36.821c0.065-0.302,0.155-0.6,0.253-0.893c0.078-0.229,0.166-0.458,0.281-0.671 c0.057-0.106,0.125-0.205,0.198-0.302c-0.038,0.028-0.025,0.015,0.039-0.04c-0.156,0.117-0.335,0.189-0.539,0.216 c0.355-0.026,0.996-0.245,1.101-0.644c0.113-0.431-0.598-0.41-0.829-0.393c-1.548,0.113-2.15,1.672-2.435,2.977 C93.496,37.777,95.439,37.461,95.579,36.821L95.579,36.821 M116.532,21.87c0.688-1.488,0.512-3.151,0.269-4.718c-0.26-1.673-7.198-13.024-2.86-12.924 c6.328,0.146,14.245,4.075,19.23,7.597c7.412,5.236,5.923,12.334,4.541,20.131c-0.887,5,2.863,6.605,7.003,8.112 c0.773,0.282,2.27-0.83,1.131-1.244c-3.801-1.384-6.829-2.576-6.183-7.037c0.513-3.541,1.75-7.194,1.426-10.81 c-0.652-7.281-7.279-11.357-13.344-14.11c-3.583-1.626-12.752-6.021-16.602-3.261c-2.037,1.46-0.547,4.625,0.186,6.318 c1.512,3.492,5.218,7.757,3.367,11.765C114.246,22.664,116.196,22.599,116.532,21.87L116.532,21.87 M149.717,26.101c-1.094,2.034-4.104,9.498,0.855,8.853c5.121-0.666,5.899-8.78,2.94-11.881 c-0.599,0.25-1.198,0.499-1.797,0.748c1.167,1.22,8.583,8.091,7.814,9.634c0.621-0.082,1.242-0.164,1.863-0.246 c-0.337-1.482-0.03-3.326,0.436-4.744c0.997-3.041,4.974,4.172,6.348,4.775c0.561,0.246,2.331-0.573,1.541-0.92 c-1.098-0.482-1.227-1.624-1.876-2.506c-0.924-1.254-1.981-2.025-3.291-2.827c-0.886-0.542-2.353-0.627-3.239-0.022 c-1.929,1.316-2.342,4.594-1.851,6.761c0.145,0.637,1.666,0.151,1.863-0.246c0.652-1.308-1.966-3.815-2.639-4.638 c-1.632-1.999-3.391-3.905-5.173-5.77c-0.457-0.478-2.291,0.23-1.797,0.748c1.429,1.497,1.781,3.066,1.629,5.081 c-0.066,0.879-1.468,5.911-3.149,4.639c-1.792-1.355,0.549-5.987,1.316-7.415C151.941,25.328,150.008,25.56,149.717,26.101 L149.717,26.101 M173.737,30.288c2.021-3.323,3.268-7.118,4.197-10.869c0.776-3.131,0.994-6.352,0.979-9.564 c-0.006-1.39,0.289-4.421-0.774-5.583c-0.295-0.322-1.178,0.044-1.475,0.174c-2.457,1.082-1.949,9.312-2.016,11.426 c-0.098,3.128-0.15,14.958,5.215,14.659c4.369-0.244,6.882-5.968,7.414-9.563c0.998-6.742-7.382-13.3-11.902-17.05 c-3.938-3.266-16.322-7.556-16.107,1.561c0.259,10.976,15.636,15.055,24.062,15.395c0.451,0.018,2.227-0.813,1.236-0.854 c-8.208-0.331-16.925-2.879-21.638-10.105c-1.221-1.872-1.977-4.208-1.645-6.446c0.895-6.028,9.677-0.834,12.278,1.131 c3.941,2.978,8.303,7.349,10.822,11.609c1.344,2.272,1.117,5.129,0.469,7.552c-0.357,1.334-2.896,6.706-4.994,5.557 c-3.582-1.961-3.279-10.696-3.278-13.964c0-1.446-0.227-9.938,1.219-10.574c-0.491,0.058-0.982,0.116-1.475,0.174 c1.235,1.348,0.657,5.527,0.665,7.122c0.016,3.499-0.725,6.972-1.673,10.32c-0.8,2.824-1.962,5.692-3.492,8.208 C171.638,30.912,173.431,30.79,173.737,30.288L173.737,30.288 M202.465,19.639c-4.405-0.247-9.762-0.817-13.984,0.684c-1.764,0.626-2.215,2.102-0.606,3.371 c1.901,1.499,5.232,2.939,7.719,2.558c1.006-0.154,1.529-1.48,0.209-1.277c-1.909,0.292-4.495-1.004-6.019-2.008 c-2.742-1.808,1.282-1.961,2.55-2.062c3.125-0.248,6.303-0.159,9.431,0.017C202.623,20.969,203.776,19.712,202.465,19.639 L202.465,19.639 M203.134,23.814c-2.322-0.199-4.887,0.254-6.638,1.873c-1.471,1.359-1.04,3.503-0.753,5.23 c0.381,2.295,1.13,4.123,0.564,6.458c-0.205,0.845,1.761,0.572,1.945-0.19c0.705-2.912-0.432-5.605-0.84-8.497 c-0.429-3.042,2.617-3.814,5.014-3.609C203.28,25.152,204.443,23.926,203.134,23.814L203.134,23.814 M210.734,19.493c-2.922,3.735,0.472,8.241,4.757,6.06c0.957-0.487,1.179-0.926,1.731-1.796 c0.488-0.768,0.933-5.864,0.457-6.122c1.559,0.844,2.85,2.414,4.028,3.696c0.917,0.997,2.784,4.892,3.731,4.496 c0.438,0.003,0.876,0.007,1.313,0.01c-0.665-2.069-0.397-8.721,3.262-5.176c1.365,1.323,2.061,4.52,3.606,5.513 c0.337,0.216,2.002-0.028,1.873-0.601c-0.42-1.865-2.449-9.551,2.182-6.209c2.236,1.614,2.778,4.658,4.366,6.759 c0.308,0.407,2.158-0.228,1.813-0.686c-2.292-3.032-3.318-8.537-8.24-7.73c-4.494,0.737-2.723,5.402-2.052,8.383 c0.624-0.201,1.248-0.401,1.872-0.602c-2.585-1.659-2.928-8.237-7.481-7.085c-3.579,0.905-4.165,4.739-3.132,7.951 c0.125,0.39,1.09,0.103,1.313,0.01c0.011-0.004,0.021-0.008,0.031-0.013c0.191-0.08,0.652-0.245,0.618-0.527 c-0.372-3.102-5.886-9.67-9.211-9.495c-0.989,0.052-1.705,0.542-1.927,1.482c-0.481,2.04,0.247,4.087-0.335,6.258 c-2.796,1.093-4.113,0.253-3.951-2.518c0.106-0.746,0.699-1.592,1.137-2.153C212.927,18.849,211.041,19.101,210.734,19.493 L210.734,19.493 M248.894,22.12c1.263-0.941,6.639-5.289,2.617-6.022c-1.498-0.273-2.982,0.54-4.1,1.438 c-1.952,1.571-0.871,4.026,0.311,5.639c2.667,3.642,9.017,3.358,11.155-0.638c0.495-0.927,0.272-2.285,0.25-3.287 c-0.09-4.084,6.313-3.18,5.245,1.285c-0.644,2.687-0.07,3.528,2.662,4.314c0.688,0.198,2.283-0.813,1.16-1.137 c-4.999-1.438,0.828-5.272-2.643-7.473c-2.086-1.322-5.25-1.409-7.33-0.029c-3.508,2.327,2.315,8.198-4.861,8.333 c-2.226,0.042-4.018-2.047-4.891-3.823c-0.065-0.458-0.131-0.916-0.196-1.373c0.251-1.647,1.075-1.929,2.473-0.845 c-0.648,1.153-2.035,2.159-3.079,2.938C246.615,22.225,248.237,22.61,248.894,22.12L248.894,22.12 M274.607,16.13c-2.71,0.789-4.371,3.393-2.601,5.937c3.015,4.333,10.619,3.378,14.782,2.029 c1.162-0.376,0.833-1.682-0.348-1.3c-3.635,1.178-7.576,1.559-11.068-0.272c-1.988-1.042-3.429-4.218-0.418-5.095 C276.134,17.086,275.794,15.784,274.607,16.13L274.607,16.13 M291.223,18.819c-7.667-1.146-6.538,15.332-6.408,18.886c0.018,0.482,1.955,0.131,1.932-0.518 c-0.177-4.849-0.314-10.02,1.369-14.652c0.292-0.802,1.588-2.84,1.891-2.795C290.516,19.817,292.264,18.975,291.223,18.819 L291.223,18.819z"/>
</svg>