<?xml version="1.0" encoding="utf-8"?>
<!-- Generator: Adobe Illustrator 15.1.0, SVG Export Plug-In . SVG Version: 6.00 Build 0)  -->
<!DOCTYPE svg PUBLIC "-//W3C//DTD SVG 1.1//EN" "http://www.w3.org/Graphics/SVG/1.1/DTD/svg11.dtd">
<svg version="1.1" id="Layer_2" xmlns="http://www.w3.org/2000/svg" xmlns:xlink="http://www.w3.org/1999/xlink" x="0px" y="0px"
	 width="231.646px" height="41.759px" viewBox="0 0 231.646 41.759" enable-background="new 0 0 231.646 41.759"
	 xml:space="preserve">
<path d="M14.356,33.882c-7.01,0.001-12.928-2.156-14.272-4.845c-0.154-0.309-0.102-1.034,0.207-1.188s0.775,0.519,0.93,0.826
	c1.167,2.335,7.241,4.182,14.875,3.513c3.918-0.34,4.965-0.722,5.075-1.022c0.213-0.585-0.928-1.726-1.76-2.558
	c-0.46-0.46-0.781-1.72-0.732-2.308c0.159-1.926,2.883-3.254,7.799-6.767c0.938-0.67,2.311-1.873,3.357-2.634
	c5.538-4.028,8.252-7.632,8.161-10.227c-0.042-1.191-0.453-1.797-1.808-2.645C32.042,1.438,17.156,7.03,11.77,9.403
	c-0.317,0.138-0.804,0.529-0.943,0.214c-0.139-0.316,0.123-1.218,0.439-1.357c0.815-0.36,20.609-9.087,26.16-5.615
	c1.71,1.068,2.422,1.69,2.479,3.305c0.11,3.11-1.589,6.338-7.644,10.742c-1.05,0.764-3.761,3.125-4.702,3.797
	c-4.141,2.958-7.412,5.295-7.524,6.644c-0.012,0.144,0.25,0.621,0.501,0.872c1.189,1.189,3.43,1.404,2.944,2.737
	c-0.44,1.21-3.357,2.738-6.909,3.047C15.834,33.852,15.093,33.882,14.356,33.882z"/>
<path d="M0.239,36.577c-0.145,0-0.037-0.207-0.155-0.31c-0.261-0.227,0.392-1.136,0.62-1.395
	C13.564,20.257,18.936,8.119,19.607,8.016c0.341-0.053,1.007,0.655,1.188,0.362c-1.498,2.427-4.177,9.497-19.805,27.53
	C0.867,36.05,0.415,36.577,0.239,36.577z"/>
<path d="M61.905,41.759c-0.121,0-0.242-0.035-0.35-0.107c-0.286-0.193,0.881-1.998,1.074-2.284
	c0.062-0.092,4.192-5.472,10.538-12.37c-0.333,0.057-1.371,0.155-1.654,0.181c-2.019,0.184-3.027,0.968-5.225,2.034
	c-1.637,0.794-3.492,1.693-5.896,2.543c-5.285,1.864-9.917,2.478-12.713,1.677c-0.845-0.241-1.708-0.561-1.835-0.935
	c-0.363-1.067,0.988-2.594,1.738-3.646c-0.421,0.142-0.907,0.312-1.385,0.481c-1.639,0.579-3.884,1.371-6.513,2.102
	c-6.13,1.7-7.021,0.548-7.217,0.392c-0.27-0.216-0.313-0.608-0.098-0.879c0.211-0.265,0.551,0.109,0.821,0.311
	c0.065,0.042,0.773,0.468,6.16-1.028c2.587-0.718,5.285-1.808,6.907-2.381c2.588-0.914,3.046-1.258,3.46-0.722
	c0.098,0.126-0.026,0.904-0.347,1.386c-0.096,0.145-0.231,0.328-0.388,0.539c-0.491,0.665-1.642,2.223-1.423,2.864
	c0.017,0.051,0.069,0.202,0.462,0.315c2.514,0.72,7.313-0.302,12.283-2.057c2.339-0.825,3.83-1.307,5.437-2.087
	c2.312-1.121,3.732-1.945,5.978-2.148c0.65-0.06,1.932-0.288,2.968-0.557c1.006-1.043,2.035-2.056,3.072-3.011
	c1.52-1.397,3.511-3.551,5.012-4.955C91.134,9.598,95.525,5.916,97.606,6.213c0.7,0.1,1.243,0.547,1.395,1.248
	c0.601,2.764-1.139,6.182-6.312,10.266C87.752,21.624,80.47,25.14,75.8,26.403c-6.84,7.146-13.311,14.983-13.377,15.081
	C62.303,41.662,62.105,41.759,61.905,41.759z M97.16,7.625c-1.759,0-7.58,5.842-13.405,11.289c-1.503,1.406-3.625,2.977-5.146,4.377
	c-0.474,0.436-0.945,0.884-1.414,1.341c4.175-1.397,9.646-3.904,13.937-7.291c4.905-3.872,7.054-8.107,6.664-9.555
	C97.729,7.541,97.192,7.625,97.16,7.625z"/>
<path d="M88.185,34.79c-0.214,0-0.422-0.109-0.539-0.308c-0.175-0.297,1.905-2.12,2.202-2.295c0.087-0.052,3.641-2.203,9.813-5.889
	c-0.142-0.312,0.667-0.488,0.517-0.826c-0.14-0.315,0.149-0.428,0.465-0.568c0.315-0.14,0.634-0.159,0.774,0.155
	c0.123,0.276,0.492-0.281,0.62,0c2.621-1.567,4.322-2.443,6.489-3.763c4.091-2.49,10.139-7.047,15.234-11.046
	c4.833-5.636,8.654-9.4,9.812-9.979c1.005-0.503,1.663-0.233,1.943,0.189c0.287,0.432,0.462,1.418-1.59,3.177
	c-0.829,0.71-3.288,3.06-7.924,6.701c-1.94,2.263-4.906,5.186-7.128,8.056c-9.355,12.084-12.386,15.659-13.492,16.028
	c-0.458,0.151-1.375,0.457-4.805-6.887c-6.134,3.661-11.988,7.115-12.075,7.166C88.402,34.762,88.293,34.79,88.185,34.79z
	 M102.192,26.558c0.258,3.047,2.612,5.738,3.254,6.353c1.284-0.915,6.067-7.246,11.911-14.795c0.919-1.187,0.832-1.301,1.724-2.404
	c-3.923,2.982-6.926,4.841-9.905,6.654C106.976,23.704,104.854,24.967,102.192,26.558z M133.594,2.128
	c-0.062,0.021,0.189-0.508,0.104-0.465c-0.541,0.271-1.685,1.429-3.939,3.795c1.712-1.392,2.481-2.191,2.906-2.556
	C133.458,2.222,133.466,2.382,133.594,2.128z"/>
<path d="M135.867,33.993c-0.089,0-0.177-0.016-0.266-0.046c-0.59-0.199-0.58-0.874-0.573-1.276c0-0.04,0.002-0.078,0.002-0.115
	c-0.083-0.088-0.143-0.194-0.163-0.309c-0.04-0.225,0.649,0.243,3.862-1.218c1.074-1.654,0.922-2.087,0.896-2.138
	c-0.003-0.008,0.019,0.144-0.762,0.144c-0.789,0-3.17,0.726-5.363,1.732c-1.7,0.78-3.458,1.588-5.044,2.175
	c-2.578,0.955-4.306,1.009-4.997,0.153c-0.247-0.306-0.559-0.981,0.134-2.069c0.277-0.435-0.045-0.285,0.188-0.648
	c-2.868,1.412-6.647,2.848-8.109,2.272c-0.447-0.175-0.696-0.486-0.775-0.723c-0.301-0.901,0.491-2.263,0.981-3.047
	c1.712-2.733,7.121-3.374,7.386-3.409c0.332-0.039,1.161,0.27,1.207,0.612c0.044,0.343-0.71,0.686-1.052,0.73
	c-1.645,0.215-5.654,1.15-6.815,3.006c-0.287,0.458-0.364,0.92,0.462,1.229s4.192-0.947,8.676-3.33
	c1.207-1.766,1.376-1.666,1.81-1.419c0.605,0.346,0.814,0.604,0.413,1.392c-0.057,0.111-0.703,0.626-0.812,0.687
	c-0.133,0.072-0.312,0.17-0.53,0.287c-0.438,0.647-1.067,1.607-1.975,3.032c-0.236,0.37,0.657,0.146,0.683,0.178
	c0.126,0.155,1.135,0.37,3.667-0.568c1.541-0.571,2.302-0.905,3.981-1.676c2.92-1.341,5.441-1.939,6.452-1.939
	c0.427,0,1.168-0.188,1.602,0.671c0.241,0.479-0.089,1.057-0.438,1.873c0.57-0.229,1.206-0.476,1.914-0.738
	c0.769-0.285,1.479-0.554,2.124-0.797c3.812-1.441,4.299-1.624,4.667-0.96c0.342,0.615,0.346,0.607-0.417,1.19
	c-1.527,1.168-2.274,1.711-2.428,1.963c0.174,0.035,1.009,0.264,1.653,0.207c2.158-0.188,5.118-1.015,8.213-1.959
	c0.023-0.008,0.048-0.015,0.071-0.022c0.388-0.37,0.852-0.715,1.37-1.003c2.407-1.338,5.982-1.155,6.854-1.087
	c0.536-0.341,1.074-0.688,1.606-1.037c2.468-3.481,7.81-7.154,8.624-7.317c0.415-0.081,0.71,0.144,0.82,0.403
	c0.616,1.457-5.958,6.076-6.025,6.122c-0.812,0.561-1.674,1.141-2.552,1.718c-0.346,0.518-0.609,1.024-0.756,1.502
	c-0.738,2.398-0.559,2.533-0.459,2.682c0.227,0.249,0.657,0.053,0.672,0.052c0.096,0,0.395,0.036,1.55-0.568
	c1.379-0.722,2.046-1.088,3.266-1.787c0.871-2.271,5.398-5.174,6.751-5.174c0.005,0,0.011,0,0.016,0
	c0.518,0.009,0.781,0.329,0.855,0.626c0.096,0.382,0.357,1.426-6.524,5.38c0.018,0.14,0.104,0.241,0.273,0.343
	c1.815,1.087,2.725,0.419,4.453-0.524c0.595-0.326,1.007-0.382,1.934-0.79c1.819-0.801,3.438-1.889,4.618-2.683
	c1.465-0.985,2.133-1.44,2.73-1.139c0.678,0.338,1.054,0.774,1.118,1.297c0.062,0.501-0.176,0.985-0.706,1.44
	c-0.161,0.138-0.386,0.312-0.641,0.508c-0.49,0.379-1.968,1.518-2.036,1.973c0.032,0.003,0.135,0.065,0.417,0.128
	c0.808,0.181,2.769,0.097,7.342-1.842c-0.082-0.525,0.003-0.418,0.303-0.648c0.259-0.197,0.484-0.432,0.774-0.258
	c0.19,0.114,0.477-0.025,0.588,0.17c0.772-0.354,1.607-0.755,2.509-1.205c1.832-0.917,2.901-1.522,3.416-1.814
	c0.482-0.274,0.901-0.513,1.242-0.062c0.34,0.446-0.011,1.261-0.214,1.465c-0.099,0.104-0.466,0.591-0.723,1.033
	c-0.989,1.708-1.984,2.97-3.104,3.821c0.347,0.076,0.728,0.139,1.146,0.181c5.381,0.555,14.021-0.982,21.739-2.298
	s10.433-2.272,11.001-2.686s-0.641-0.495-0.619-0.568c0.095-0.332,0.608-0.205,0.939-0.108c0.661,0.188,0.691,0.669,0.685,0.812
	c-0.026,0.577-2.344,1.854-11.126,3.442s-17.419,3.033-22.985,2.466c-2.918-0.299-4.368-1.322-5.125-2.573
	c-3.794,1.605-6.493,2.24-8.06,1.894c-0.789-0.176-1.25-0.537-1.37-1.075c-0.23-1.035,2.678-3.823,2.678-3.824
	c-0.008-0.025,0.605-0.351,0.377-0.482c-0.296,0.115-0.984,0.578-1.599,0.991c-1.22,0.82-2.891,1.944-4.812,2.79
	c-0.878,0.386-0.956,0.4-1.56,0.73c-1.836,1.002-3.515,2.178-5.939,0.723c-0.346-0.207-0.628-0.688-0.771-1.001
	c-0.983,0.549-1.339,1.123-2.587,1.776c-1.158,0.606-3.087,1.108-3.826,0.493c-0.771-0.641-0.549-2.016,0.15-4.318
	c-2.924,1.85-5.789,3.495-7.509,4.163c-1.633,0.638-2.603,0.307-2.76-0.028c-0.159-0.339,0.278-1.131,0.429-1.567
	c-2.836,0.855-5.975,1.751-7.927,1.921c-1,0.086-2.198,0.081-2.521-0.75c-0.253-0.652-0.737-0.793,0.566-1.929
	c-0.378,0.141-0.732,0.156-1.137,0.31c-0.646,0.244-1.449,0.386-2.221,0.672c-1.393,0.518-1.576,0.649-2.454,1.041
	c-0.179,0.263-0.376,0.539-0.592,0.831C137.789,34.462,136.403,33.993,135.867,33.993z M157.057,30.225
	c-0.479,0.516-0.693,0.988-0.677,1.187c0.038-0.027,0.267-0.018,0.75-0.205c1.046-0.407,2.546-1.198,4.23-2.184
	c-0.319,0.076-0.656,0.158-1.012,0.247C159.532,29.474,158.386,29.819,157.057,30.225z M194.053,28.786
	c0.303,0.972,0.548,1.231,1.209,1.231c0.955,0,1.747-1.589,2.582-2.995c-0.487,0.258-0.461,0.152-1.148,0.495
	C195.77,27.98,194.889,28.403,194.053,28.786z M176.445,25.605c-0.523,0.311-1.105,0.7-1.659,1.126
	C175.43,26.318,175.989,25.938,176.445,25.605z"/>
</svg>
