<?xml version="1.0" encoding="UTF-8"?>
<svg version="1.0" xmlns="http://www.w3.org/2000/svg" width="386" height="226" >
<path fill="#231F20" d="M92.667,97.279c-21.636,4.104-43.953,11.41-62.746,22.973c-10.876,6.692-21.761,16.28-24.077,29.464 c-1.7,9.676,1.686,20.59,11.323,24.422c9.791,3.893,21.716-0.097,30.704-4.273c11.994-5.574,22.764-14.274,30.797-24.763 c7.436-9.71,12.113-21.86,9.912-34.168c-1.148-6.418-4.46-12.206-8.584-17.164c-3.692-4.44-9.231-10.303-15.013-11.715 c-6.892-1.685-14.581-2.603-21.45-0.426c-2.976,0.943-10.125,5.978-7.603,10.07c2.189,3.552,8.638,0.93,11.442-0.119 c9.552-3.571,18.135-9.835,25.997-16.193c7.992-6.464,15.742-13.772,21.88-22.066c1.936-2.615,4.571-6.233,4.396-9.695 c-0.388-7.63-14.176,2.292-15.916,3.592c-17.246,12.888-30.863,31.03-43.167,48.448c-11.134,15.763-20.917,32.856-26.168,51.542 c-1.666,5.927-5.488,18.336-0.692,23.865c4.496,5.185,10.529-8.58,11.475-10.768c7.521-17.396,10.43-37.028,12.98-55.652 c0.151-1.103-1.535-1.579-1.688-0.465c-2.681,19.581-5.541,41.059-14.536,58.961c-0.891,1.772-3.516,7.509-6.231,7.132 c-2.444-0.339-2.179-6.066-2.157-7.629c0.202-14.587,7.011-29.492,13.616-42.135c11.57-22.148,27.494-43.019,45.051-60.752 C77.563,54.361,83.323,49.1,89.861,45.16c0.991-0.598,7.656-4.5,8.033-1.535c0.495,3.9-4.102,8.865-6.285,11.545 c-7.951,9.76-17.838,18.298-28.115,25.499c-6.588,4.617-15.492,10.814-23.896,10.971c-4.042,0.075-1.404-4.093,0.016-5.666 c3.373-3.739,9.55-3.931,14.184-3.794c3.611,0.107,7.211,0.739,10.722,1.563c3.427,0.803,6.071,3.424,8.699,5.68 c5.918,5.08,10.689,11.505,12.964,19.015c8.303,27.424-21.324,53.153-43.929,61.938c-9.233,3.589-22.551,6.353-30.301-1.729 c-9.805-10.226-3.448-26.843,4.716-35.66C28.891,119.784,47.319,112.435,64,106.81c9.499-3.203,19.273-5.973,29.132-7.843 C94.24,98.757,93.77,97.07,92.667,97.279L92.667,97.279z"/>
<path fill="#231F20" d="M89.657,161.505c5.853-3.497,11.229-8.043,15.753-13.119c2.601-2.918,10.398-12.406,6.271-16.552 c-2.915-2.929-8.411,2.47-9.921,4.526c-4.618,6.288-4.492,13.743-0.771,20.44c13.543,24.372,38.584-23.676,43.483-33.926 c0.026-0.057,0.053-0.113,0.08-0.17c0.474-1.006-0.937-1.873-1.512-0.883c-5.434,9.365-11.078,19.625-13.495,30.245 c-0.784,3.442-1.189,8.77,3.515,9.152c2.838,0.23,5.911-1.576,8.274-2.891c5.921-3.294,11.269-7.708,16.476-12.005 c-0.459-0.354-0.917-0.707-1.375-1.061c-1.818,3.226-4.614,7.783-4.207,11.62c0.782,7.375,17.041-7.978,17.972-8.811 c-0.488-0.284-0.976-0.568-1.463-0.852c-0.958,2.421-2.156,6.582-0.188,8.799c1.563,1.763,4.05,1.313,6.059,0.703 c6.545-1.987,12.398-6.995,17.693-11.1c-0.488-0.284-0.976-0.568-1.463-0.852c-3.725,18.569-9.753,36.865-16.781,54.415 c-2.531,6.321-5.273,12.601-8.377,18.666c-0.831,1.625-1.807,4.084-3.325,5.225c0.391-0.293,0.392,0.554,0.368-0.595 c-0.017-0.816,0.105-1.644,0.225-2.447c0.393-2.66,1.07-5.283,1.756-7.879c4.343-16.448,10.845-32.666,19.009-47.579 c4.146-7.573,8.979-14.551,15.273-20.489c2.198-2.074,6.764-7.028,10.304-6.499c2.133,0.319,1.156,5.212,0.945,6.463 c-0.481,2.855-1.321,5.699-2.318,8.417c-0.098,0.267,0.006,0.668,0.225,0.852c11.369,9.486,26.444,2.882,35.177-6.688 c15.375-16.851,20.573-40.543,27.639-61.489c7.341-21.76,17.213-43.243,30.913-61.776c3.83-5.181,8.139-10.438,13.378-14.267 c1.79-1.309,6.001-3.962,6.353-0.094c0.401,4.424-2.263,11.822-4.793,15.237c-4.732,6.389-10.704,11.996-16.789,17.058 C282.813,55.61,260.049,62.5,246.074,80.777c-4.358,5.701-8.189,14.346-6.467,21.683c0.849,3.612,4.441,2.319,6.519,0.68 c6.186-4.881,10.859-11.972,15.402-18.314c4.914-6.863,9.502-13.947,14.289-20.897c0.642-0.932-0.876-1.806-1.512-0.883 c-8.647,12.555-16.494,26.567-27.525,37.228c-0.878,0.848-4.147,4.158-5.285,2.268c-1.972-3.274,0.298-9.538,1.449-12.688 c4.018-10.992,14.567-18.936,23.896-25.223c9.489-6.396,19.854-11.399,29.174-18.044c7.809-5.567,14.91-12.322,20.969-19.752 c2.749-3.371,9.97-17.011,5.013-20.999c-5.479-4.408-16.214,9.803-18.641,12.781c-12.872,15.797-22.037,34.666-29.491,53.506 c-9.333,23.588-13.547,50.045-29.472,70.522c-6.268,8.06-15.603,15.169-26.355,13.212c-2.54-0.462-4.977-1.435-7.182-2.766 c-0.406-0.246-1.14-0.744-1.343-0.901c-0.449-0.349,0.009,0.975,0.129,0.642c0.21-0.577,0.401-1.16,0.591-1.743 c1.844-5.674,4.607-19.904-5.916-13.52c-14.331,8.694-22.758,26.042-29.311,40.74c-5.802,13.014-11.461,27.114-13.745,41.261 c-0.166,1.032-1.025,6.2,1.627,5.19c1.276-0.487,2.111-2.154,2.77-3.236c2.803-4.611,4.896-9.712,7.056-14.636 c8.616-19.644,15.588-40.583,19.813-61.651c0.183-0.911-0.776-1.383-1.463-0.852c-2.081,1.614-18.503,15.466-21.454,10.066 c-1.004-1.837,0.104-4.966,0.816-6.766c0.348-0.878-0.871-1.381-1.463-0.852c-3.749,3.361-7.548,6.816-11.914,9.368 c-2.487,1.454-3.505,1.075-2.799-1.693c0.744-2.921,2.223-5.746,3.698-8.363c0.513-0.91-0.632-1.673-1.375-1.061 c-4.689,3.871-9.474,7.646-14.644,10.86c-2.574,1.601-5.725,3.552-8.868,3.523c-4.511-0.04-1.307-9.118-0.643-11.157 c2.905-8.921,7.434-17.505,12.135-25.607c-0.504-0.294-1.008-0.589-1.512-0.883c-2.948,6.26-6.364,12.327-10.02,18.197 c-4.613,7.408-12.586,21.258-22.571,21.801c-6.888,0.375-10.494-9.71-10.589-15.091c-0.095-5.4,3.687-12.203,9.15-13.742 c3.921-1.104,0.546,6.058,0.105,6.978c-1.984,4.143-5.184,7.654-8.436,10.837c-3.562,3.482-7.626,6.634-11.907,9.191 C87.807,160.571,88.687,162.085,89.657,161.505L89.657,161.505z"/>
<path fill="#231F20" d="M221.587,126.606c15.018,3.256,32.567-4.012,45.544-10.584c1.007-0.511,0.121-2.02-0.883-1.512 c-12.45,6.307-29.722,13.546-44.196,10.408C220.952,124.681,220.484,126.367,221.587,126.606L221.587,126.606z"/>
<path fill="#231F20" d="M279.182,130.167c-6.362,2.274-12.345,6.931-14.577,13.456c-2.308,6.745,1.255,13.264,8.147,8.83 c7.205-4.634,13.08-14.272,14.242-22.681c0.092-0.664,0.109-1.321,0.124-1.991c0.028-1.248-1.102-0.774-0.152-0.919 c2.025-0.307,4.045-0.65,6.062-1.01c4.271-0.76,9.487-1.262,13.282-3.533c-0.438-0.252-0.878-0.504-1.316-0.756 c-0.472,4.924-0.164,11.646-2.098,15.072c-1.729,3.063-6.012,9.469-4.364,13.173c3.826,8.602,30.381-24.028,34.039-17.657 c0.252-0.438,0.504-0.878,0.756-1.316c-6.404-0.064-13.591,2.877-17.425,8.108c-1.46,1.992-8.444,18.255-0.951,16.986 c2.911-0.493,5.406-3.114,7.4-5.087c3.774-3.733,7.002-8.056,10.048-12.389c6.589-9.372,13.061-20.286,15.166-31.702 c0.169-0.918-1.129-1.617-1.6-0.674c-5.406,10.849-10.939,22.972-12.275,35.111c-0.53,4.819,0.558,10.617,6.533,10.338 c4.125-0.193,8.193-2.664,11.612-4.734c7.268-4.402,13.868-9.98,20.284-15.514c0.855-0.738-0.388-1.971-1.238-1.238 c-6.101,5.264-12.347,10.398-19.142,14.75c-3.416,2.188-7.384,4.602-11.517,4.986c-6.353,0.591-5.005-8.069-4.271-11.896 c2.05-10.693,6.686-21.21,11.525-30.921c-0.533-0.225-1.066-0.449-1.6-0.674c-1.629,8.831-6.041,17.036-10.65,24.643 c-4.51,7.441-9.748,14.95-16.313,20.736c-0.938,0.827-4.584,4.058-5.394,1.658c-1.492-4.419,1.656-10.771,4.381-14.081 c3.559-4.32,9.88-6.714,15.425-6.658c0.669,0.007,1.083-0.747,0.756-1.316c-2.843-4.95-11.373,2.35-13.845,4.291 c-5.767,4.528-11.642,11.94-18.958,13.829c-3.167,0.818,2.773-11.267,3.635-12.761c0.771-1.336,0.664-2.896,0.81-4.418 c0.34-3.549,0.68-7.098,1.02-10.646c0.064-0.675-0.787-1.073-1.316-0.756c-5.36,3.21-13.455,3.562-19.548,4.461 c-0.349,0.052-0.683,0.496-0.643,0.844c1.047,9.013-7.202,23.412-16.168,26.216c-3.144,0.983-3.283-3.222-3.289-5.188 c-0.012-3.699,2.138-6.968,4.617-9.506c2.474-2.532,5.909-4.585,9.25-5.779C280.701,131.478,280.247,129.786,279.182,130.167 L279.182,130.167z"/>
<path fill="#231F20" d="M175.711,116.172c-5.163,1.718-10.376,3.291-15.609,4.778c-6.782,1.928-15.61,5.382-22.769,4.318 c-1.104-0.164-1.578,1.522-0.465,1.688c6.948,1.032,14.996-1.935,21.59-3.73c5.951-1.621,11.865-3.419,17.718-5.366 C177.241,117.505,176.785,115.814,175.711,116.172L175.711,116.172z"/>
</svg>