<?xml version="1.0" encoding="UTF-8" standalone="no"?>
<!-- Created with Inkscape (http://www.inkscape.org/) -->
<svg
   xmlns:dc="http://purl.org/dc/elements/1.1/"
   xmlns:cc="http://creativecommons.org/ns#"
   xmlns:rdf="http://www.w3.org/1999/02/22-rdf-syntax-ns#"
   xmlns:svg="http://www.w3.org/2000/svg"
   xmlns="http://www.w3.org/2000/svg"
   xmlns:sodipodi="http://sodipodi.sourceforge.net/DTD/sodipodi-0.dtd"
   xmlns:inkscape="http://www.inkscape.org/namespaces/inkscape"
   id="svg2"
   sodipodi:version="0.32"
   inkscape:version="0.46"
   width="739"
   height="200"
   version="1.0"
   sodipodi:docname="Firma_Biagio_Bellotti.svg"
   inkscape:output_extension="org.inkscape.output.svg.inkscape">
  <metadata
     id="metadata7">
    <rdf:RDF>
      <cc:Work
         rdf:about="">
        <dc:format>image/svg+xml</dc:format>
        <dc:type
           rdf:resource="http://purl.org/dc/dcmitype/StillImage" />
      </cc:Work>
    </rdf:RDF>
  </metadata>
  <defs
     id="defs5">
    <inkscape:perspective
       sodipodi:type="inkscape:persp3d"
       inkscape:vp_x="0 : 526.18109 : 1"
       inkscape:vp_y="0 : 1000 : 0"
       inkscape:vp_z="744.09448 : 526.18109 : 1"
       inkscape:persp3d-origin="372.04724 : 350.78739 : 1"
       id="perspective9" />
  </defs>
  <sodipodi:namedview
     inkscape:window-height="667"
     inkscape:window-width="640"
     inkscape:pageshadow="2"
     inkscape:pageopacity="0.0"
     guidetolerance="10.0"
     gridtolerance="10.0"
     objecttolerance="10.0"
     borderopacity="1.0"
     bordercolor="#666666"
     pagecolor="#ffffff"
     id="base"
     showgrid="false"
     inkscape:zoom="0.73612991"
     inkscape:cx="369.5"
     inkscape:cy="100"
     inkscape:window-x="154"
     inkscape:window-y="189"
     inkscape:current-layer="svg2" />
  <path
     style="fill:#000000"
     d="M 252.19368,182.93573 C 251.96685,182.7089 245.93167,182.22101 238.78217,181.85154 C 231.63267,181.48206 223.5639,180.54497 220.85158,179.76911 C 218.13925,178.99325 214.70896,178.35846 213.2287,178.35846 C 211.74844,178.35846 208.56761,177.49565 206.1602,176.4411 C 203.75278,175.38656 199.63306,174.20858 197.00526,173.82339 C 193.85085,173.361 191.88517,172.48347 191.22008,171.24075 C 190.66603,170.20549 189.17329,169.35846 187.90288,169.35846 C 186.63248,169.35846 184.81583,168.49964 183.8659,167.44997 C 182.91596,166.4003 179.13372,164.75211 175.46091,163.78731 C 165.97054,161.29433 165.28308,160.8285 165.28308,156.89066 C 165.28308,154.2501 165.78432,153.33081 167.53308,152.76414 C 168.77058,152.36314 181.05291,151.99532 194.82715,151.94675 C 216.1202,151.87168 220.24125,151.61599 222.34181,150.2396 C 223.70064,149.34923 226.24903,148.30521 228.00489,147.91956 C 229.76075,147.53391 233.06603,146.31554 235.34995,145.21206 C 239.17226,143.36532 239.45404,142.96328 238.89281,140.15711 C 238.55746,138.48035 238.28308,136.3347 238.28308,135.389 C 238.28308,133.07177 234.12051,128.35846 232.07405,128.35846 C 231.1691,128.35846 229.05108,126.68719 227.36735,124.64452 L 224.306,120.93058 L 218.79742,123.63224 C 208.94371,128.46496 204.13597,128.24236 195.89656,122.57196 L 192.01003,119.89724 L 188.39656,124.37461 C 179.37845,135.54874 172.74295,140.27194 167.02442,139.5875 C 162.69905,139.0698 161.72291,137.00681 162.51108,130.04895 C 163.40945,122.11812 176.29986,96.673967 183.04727,89.512907 C 184.84257,87.607547 187.18284,84.638687 188.24786,82.915447 C 191.25405,78.051327 197.46444,75.008607 202.76411,75.803337 C 205.15498,76.161877 207.35764,77.110387 207.66611,77.914227 C 208.67563,80.544987 206.51204,93.306607 204.35484,97.445277 C 202.24754,101.48823 201.42814,109.08943 202.67585,113.0206 C 203.86572,116.76956 211.08425,118.6545 214.20434,116.03098 C 215.07265,115.30087 217.62232,114.17976 219.87028,113.53962 C 225.39024,111.96773 226.76208,110.18218 230.30441,99.958807 C 233.94552,89.450377 237.25513,84.380497 246.52669,75.108457 C 250.54746,71.087477 251.86708,70.358457 255.12478,70.358457 C 259.63331,70.358457 262.28308,72.713037 262.28308,76.719317 C 262.28308,78.206177 262.95808,81.038197 263.78308,83.012697 C 265.77866,87.788807 265.67424,92.177507 263.4129,98.570947 C 262.3843,101.47908 261.0323,105.65846 260.40844,107.85846 C 259.2877,111.8107 252.98213,119.4925 249.88226,120.68203 C 247.51315,121.59114 247.34261,131.71291 249.65595,134.11401 C 250.62155,135.11624 251.70064,134.82813 255.00426,132.68602 C 257.28052,131.21006 259.34861,129.21587 259.60002,128.25448 C 259.85143,127.29308 262.77326,124.80866 266.09297,122.73353 C 269.41268,120.65841 272.11552,118.2626 272.09927,117.40952 C 272.06894,115.81679 273.87729,110.20973 275.41712,107.12203 C 275.8934,106.16699 276.29011,102.11699 276.2987,98.122027 C 276.30729,94.127057 277.02307,88.158457 277.88932,84.858457 C 278.75556,81.558457 279.69899,77.137467 279.98583,75.034037 C 280.54343,70.944987 281.00421,70.560057 286.02295,69.990707 C 291.75718,69.340187 292.52587,70.767527 290.79863,78.858457 C 289.97674,82.708457 289.00812,89.570957 288.64615,94.108457 C 288.28418,98.645957 287.54543,102.35846 287.00447,102.35846 C 286.39394,102.35846 286.19413,106.25306 286.47763,112.62753 C 286.91141,122.38094 287.21173,123.50832 290.88749,129.1822 C 291.00284,129.36025 292.37654,128.84299 293.94015,128.03273 C 298.10343,125.87532 301.6212,121.47266 303.26801,116.35846 C 304.06498,113.88346 305.26984,111.40846 305.94547,110.85846 C 308.08371,109.11783 311.41214,99.222537 310.79875,96.429817 C 310.47678,94.963877 311.11703,91.008497 312.25075,87.459667 C 313.53638,83.435297 314.43746,77.313497 314.71249,70.735087 L 315.1463,60.358457 L 311.2223,60.358457 C 307.18817,60.358457 301.78769,56.969027 302.91515,55.144767 C 303.22527,54.642977 302.77697,53.456687 301.91893,52.508567 C 300.34142,50.765437 300.68593,46.358457 302.39971,46.358457 C 302.88556,46.358457 303.28308,45.733537 303.28308,44.969747 C 303.28308,43.518827 309.60227,41.819657 311.23816,42.830697 C 311.74475,43.143787 314.0996,43.646327 316.47115,43.947447 C 319.39253,44.318387 321.54589,45.340407 323.14844,47.116587 C 325.24638,49.441817 325.4408,50.359407 324.86807,55.232477 C 324.51291,58.254317 323.83596,61.206367 323.36375,61.792597 C 322.89153,62.378817 322.19628,66.008457 321.81875,69.858457 L 321.13233,76.858457 L 326.18861,76.810627 C 329.77642,76.776697 332.10996,76.123237 334.22349,74.560627 C 335.86172,73.349437 337.79519,72.358457 338.52008,72.358457 C 339.24497,72.358457 340.74738,71.721547 341.85877,70.943107 C 344.56716,69.046067 354.12851,70.157097 355.63032,72.543357 C 357.18358,75.011367 354.62178,79.358457 351.6141,79.358457 C 350.33204,79.358457 349.28308,79.006607 349.28308,78.576567 C 349.28308,76.808827 344.17053,77.562157 339.87533,79.962787 C 334.73955,82.833237 334.43893,83.808247 337.22734,88.551297 C 340.09212,93.424257 341.46817,99.962617 341.29068,107.85846 C 341.1159,115.63377 340.28216,117.10694 334.0855,120.58966 C 331.99417,121.76505 330.28308,123.04509 330.28308,123.43419 C 330.28308,123.82329 329.08285,124.44288 327.6159,124.81106 C 324.82981,125.51033 316.28308,123.49603 316.28308,122.14014 C 316.28308,121.71022 315.66056,121.35846 314.89971,121.35846 C 314.13886,121.35846 313.28099,120.45846 312.99333,119.35846 C 312.09402,115.9195 310.74843,117.12168 307.32145,124.42578 C 305.49772,128.31281 303.45617,132.02531 302.78468,132.67578 C 295.99804,139.24996 294.21825,140.39413 292.34126,139.38959 C 291.28157,138.82247 288.80998,138.35846 286.84882,138.35846 C 284.88766,138.35846 283.28308,137.93878 283.28308,137.42585 C 283.28308,136.91291 282.43876,136.22526 281.40682,135.89773 C 279.74877,135.37149 278.40093,132.47511 274.64094,121.35846 C 274.29499,120.33564 273.69761,120.88745 272.76308,123.09306 C 271.16726,126.85945 268.69207,129.53056 261.78308,134.94213 C 254.25674,140.83726 251.15399,144.37638 251.78077,146.35118 C 252.08227,147.30113 252.88113,149.82887 253.55602,151.9684 C 255.20395,157.19271 260.50885,166.32613 261.90572,166.34405 C 262.52317,166.35198 264.89909,168.38797 267.18554,170.86847 C 271.92832,176.01378 271.69545,178.05962 266.03372,180.98741 C 263.10642,182.50118 253.15941,183.90146 252.19368,182.93573 z M 255.86168,174.11396 C 256.27074,173.70448 254.73289,171.14875 252.44425,168.43455 C 250.15561,165.72035 248.28308,162.97636 248.28308,162.33678 C 248.28308,161.69721 247.38308,160.02975 246.28308,158.63133 C 245.18308,157.23291 244.28308,155.09417 244.28308,153.87859 C 244.28308,152.663 243.44714,150.91192 242.42543,149.98729 C 240.67114,148.39968 240.22067,148.50234 234.32936,151.8323 C 230.89824,153.77169 227.32418,155.35846 226.38701,155.35846 C 225.44985,155.35846 224.25558,155.71767 223.73308,156.15671 C 221.82496,157.76002 212.61958,160.20544 206.32686,160.7807 C 202.77594,161.10531 199.47154,161.77 198.98376,162.25778 C 197.28618,163.95536 201.27839,168.27166 205.13036,168.90336 C 207.13935,169.23283 209.68308,169.88611 210.78308,170.3551 C 211.88308,170.82409 213.90808,171.44388 215.28308,171.73242 C 216.65808,172.02095 220.25808,172.91807 223.28308,173.726 C 229.04668,175.26538 254.40972,175.56741 255.86168,174.11396 z M 179.4174,124.51072 C 181.81852,121.56947 184.60045,118.15964 185.59946,116.93333 C 188.94561,112.82584 189.89188,102.47079 187.07989,100.73288 C 185.30497,99.635917 181.3633,104.6279 177.19898,113.24668 C 174.91047,117.98316 172.48555,123.43346 171.81028,125.35846 C 169.12059,133.02599 172.80068,132.61588 179.4174,124.51072 z M 330.28308,110.20347 C 330.28308,109.18872 329.83308,108.35846 329.28308,108.35846 C 328.73308,108.35846 328.28308,106.33346 328.28308,103.85846 C 328.28308,100.49266 327.89877,99.358457 326.75833,99.358457 C 323.42711,99.358457 322.09265,109.21388 324.88423,113.1994 C 326.40689,115.37332 326.57845,115.40113 328.38423,113.76692 C 329.4286,112.82178 330.28308,111.21823 330.28308,110.20347 z M 251.83679,105.92383 C 252.19118,104.03478 253.33657,101.71504 254.38211,100.76884 C 256.04949,99.259877 257.02494,96.358457 255.86487,96.358457 C 253.98178,96.358457 252.2776,97.941617 252.25128,99.715447 C 252.23378,100.8941 251.55878,102.73197 250.75128,103.79959 C 249.0978,105.98568 248.78624,109.35846 250.23777,109.35846 C 250.76284,109.35846 251.48241,107.81288 251.83679,105.92383 z M 319.88725,90.629287 C 319.55496,90.296997 319.31861,90.887627 319.36203,91.941787 C 319.41001,93.106727 319.64697,93.343687 319.96619,92.545957 C 320.25506,91.824077 320.21954,90.961577 319.88725,90.629287 z M 379.09962,150.60846 C 375.08851,146.29567 373.55278,143.23372 372.8302,138.10846 C 372.38535,134.95312 371.67753,133.35846 370.72181,133.35846 C 369.93051,133.35846 369.28308,132.55859 369.28308,131.58097 C 369.28308,130.60334 368.57662,128.79486 367.71317,127.56211 C 366.26521,125.49485 366.30139,125.06491 368.17899,122.02688 C 369.29864,120.21525 371.4676,118.08695 372.9989,117.29733 C 374.5302,116.5077 376.09117,115.41093 376.46772,114.86005 C 381.58174,107.37845 384.14774,104.42537 385.95538,103.9412 C 387.30372,103.58005 388.56587,102.03162 389.28293,99.858907 C 389.91832,97.933657 390.82873,96.358457 391.30607,96.358457 C 392.1265,96.358457 392.79427,95.319437 396.88391,87.679747 L 398.58551,84.501037 L 394.4343,80.391107 C 392.15113,78.130637 390.28308,75.862687 390.28308,75.351197 C 390.28308,74.839717 389.70031,74.644857 388.98803,74.918177 C 388.19398,75.222887 386.99327,73.829207 385.88427,71.315597 C 384.88948,69.060847 383.44725,66.974947 382.67932,66.680267 C 381.142,66.090337 380.73124,62.358457 382.20362,62.358457 C 382.70992,62.358457 383.41569,61.031157 383.772,59.408897 C 384.32882,56.873707 385.70967,55.837127 393.60146,52.030147 C 406.5844,45.767197 407.55658,45.439937 415.32294,44.718137 C 419.15102,44.362347 422.28308,43.685877 422.28308,43.214857 C 422.28308,42.743837 422.95808,42.358457 423.78308,42.358457 C 424.60808,42.358457 425.33933,41.908457 425.40808,41.358457 C 425.47683,40.808457 425.59943,39.795957 425.68052,39.108457 C 425.87439,37.464887 429.38988,38.122257 430.81275,40.068147 C 432.52834,42.414347 451.63082,42.361427 454.38545,40.002837 C 455.48048,39.065237 456.80542,38.563247 457.32975,38.887297 C 457.85408,39.211357 458.28308,38.774927 458.28308,37.917477 C 458.28308,37.060017 458.74758,36.358457 459.3153,36.358457 C 460.60591,36.358457 462.1839,40.428397 461.54469,42.108457 C 461.28312,42.795957 461.79225,43.358457 462.67609,43.358457 C 463.55994,43.358457 464.28308,44.011097 464.28308,44.808767 C 464.28308,45.606437 464.89711,46.618937 465.6476,47.058767 C 468.23193,48.573337 472.42291,59.358457 470.42713,59.358457 C 469.9354,59.358457 469.26308,60.708457 468.93308,62.358457 C 468.57614,64.143157 467.70527,65.358457 466.78333,65.358457 C 465.93097,65.358457 464.76433,66.595957 464.19079,68.108457 C 463.61726,69.620957 461.34523,72.541697 459.14184,74.598997 L 455.13566,78.339537 L 456.73731,83.848997 C 457.61821,86.879197 458.8067,89.358457 459.3784,89.358457 C 459.9501,89.358457 460.14726,90.211037 459.81652,91.253087 C 459.47219,92.337987 459.86695,93.799467 460.74021,94.672727 C 461.77903,95.711547 462.06881,97.179797 461.64915,99.278097 C 461.28626,101.09254 461.4483,102.35846 462.04342,102.35846 C 462.6556,102.35846 462.90786,104.82152 462.68355,108.60846 C 462.03935,119.48366 461.18199,123.56029 458.49119,128.54247 C 456.28983,132.61841 455.22678,133.55436 451.82754,134.40941 C 449.60309,134.96894 446.74941,135.86138 445.48603,136.3926 C 440.67424,138.41585 426.48153,136.89024 423.63508,134.0438 C 423.25815,133.66686 420.9774,133.35846 418.56675,133.35846 C 407.40344,133.35846 404.11063,125.44891 412.88146,119.70204 C 415.11319,118.23976 415.93512,118.18823 419.11754,119.31109 C 421.13359,120.02242 423.45808,121.15213 424.28308,121.82156 C 428.96808,125.62308 443.64058,128.83788 445.28308,126.42274 C 445.55808,126.01838 446.66856,125.20327 447.75082,124.61139 C 450.87593,122.90229 453.12951,114.85622 451.86335,109.92826 C 451.28824,107.68987 450.41475,105.57127 449.92227,105.22026 C 449.42979,104.86926 449.31684,104.11285 449.67128,103.53936 C 450.02571,102.96587 449.85836,102.214 449.29939,101.86854 C 448.74042,101.52308 448.28308,100.14198 448.28308,98.799437 C 448.28308,97.456897 447.83308,96.358457 447.28308,96.358457 C 446.73308,96.358457 446.28011,95.345957 446.27649,94.108457 C 446.26967,91.779207 442.9951,85.979767 442.1589,86.815967 C 441.8984,87.076467 441.95583,84.831547 442.28651,81.827257 C 443.00729,75.278927 445.49042,71.622227 451.08085,68.876517 C 453.34074,67.766587 455.21074,66.295957 455.23641,65.608457 C 455.26208,64.920957 455.95808,64.358457 456.78308,64.358457 C 457.71641,64.358457 458.28308,63.414007 458.28308,61.858457 C 458.28308,60.483457 458.69095,59.358457 459.18946,59.358457 C 460.84781,59.358457 459.06647,55.312597 456.90817,54.177087 C 455.73937,53.562167 454.50215,52.628887 454.15879,52.103127 C 453.0827,50.455437 444.50327,49.324247 441.5625,50.442317 C 440.07675,51.007197 437.83108,51.210847 436.57211,50.894867 C 434.56534,50.391197 434.28308,50.692627 434.28308,53.339407 C 434.28308,56.552927 433.43107,57.106447 431.48308,55.158457 C 430.54975,54.225127 430.28308,54.328347 430.28308,55.622977 C 430.28308,57.220497 426.8061,64.110427 423.35151,69.358457 C 422.4464,70.733457 420.37323,74.481527 418.74447,77.687497 C 415.99837,83.092757 415.90745,83.607587 417.49377,84.768987 C 419.11338,85.954767 421.28308,90.356097 421.28308,92.455777 C 421.28308,92.987697 420.27058,93.810137 419.03308,94.283437 C 417.35248,94.926187 416.24639,94.651587 414.66234,93.198327 L 412.5416,91.252697 L 409.45414,95.913927 C 407.75603,98.477597 405.83765,102.2139 405.19106,104.21681 C 404.54448,106.21972 402.72567,109.63461 401.14927,111.80546 C 399.57286,113.97631 398.27146,116.90131 398.25726,118.30546 C 398.22795,121.2044 394.23905,133.45261 392.6561,135.50425 C 392.08143,136.24907 390.82443,139.43356 389.86276,142.5809 C 388.01247,148.63652 384.96084,153.35846 382.89759,153.35846 C 382.21541,153.35846 380.50633,152.12096 379.09962,150.60846 z M 386.28308,127.35846 C 386.28308,126.25846 386.71502,125.35846 387.24294,125.35846 C 387.77086,125.35846 388.75398,123.44596 389.42765,121.10846 C 390.10132,118.77096 391.24438,115.97083 391.96779,114.88595 C 392.6912,113.80108 393.28308,112.09945 393.28308,111.10457 C 393.28308,110.10969 393.98394,109.02674 394.84055,108.69803 C 395.69716,108.36932 396.17391,107.51635 395.89999,106.80253 C 395.62608,106.08872 396.05021,104.96669 396.84252,104.30913 C 398.32338,103.08012 398.87458,98.344507 397.53308,98.376147 C 397.12058,98.385867 395.65808,99.764927 394.28308,101.44073 C 392.90808,103.11652 390.54558,105.7641 389.03308,107.32425 C 387.52058,108.8844 386.28308,110.5027 386.28308,110.92047 C 386.28308,111.92777 380.16954,117.35846 379.03558,117.35846 C 377.83624,117.35846 379.19498,121.41322 380.99876,123.217 C 381.79726,124.0155 382.85175,125.72399 383.34208,127.01364 C 384.43189,129.88007 386.28308,130.09711 386.28308,127.35846 z M 412.57162,66.767387 C 413.4003,65.164877 415.02439,62.997557 416.1807,61.951107 C 417.33701,60.904667 418.28308,59.229777 418.28308,58.229147 C 418.28308,57.204167 419.6431,55.706527 421.39798,54.799037 C 425.91603,52.462657 423.68794,50.744627 418.79255,52.790047 C 416.72801,53.652677 413.32035,54.358457 411.21997,54.358457 C 409.1196,54.358457 407.123,54.808457 406.78308,55.358457 C 406.44316,55.908457 405.08896,56.358457 403.77375,56.358457 C 402.45854,56.358457 401.0226,56.954887 400.58277,57.683867 C 400.14294,58.412847 398.99558,59.298717 398.03308,59.652477 C 395.28387,60.662947 395.94461,64.903367 399.47841,68.928137 C 405.18374,75.426147 408.36553,74.901067 412.57162,66.767387 z M 563.39688,141.67413 C 559.43629,140.86006 555.47821,135.60966 554.55072,129.9397 C 554.09357,127.14502 554.07133,124.70846 554.50131,124.52513 C 556.07075,123.85595 555.22877,122.35846 553.28308,122.35846 C 551.94975,122.35846 551.28308,121.69179 551.28308,120.35846 C 551.28308,117.43671 549.89878,117.89319 546.28801,122.00563 C 544.52677,124.01157 540.09265,127.68845 536.43442,130.17647 C 532.77618,132.6645 529.49905,135.12582 529.1519,135.64607 C 528.25969,136.98317 521.60173,134.63122 520.86826,132.71985 C 520.54284,131.87182 520.52587,130.77463 520.83055,130.28165 C 521.13523,129.78868 520.96723,127.87409 520.45723,126.02702 C 519.9121,124.0527 519.8963,122.01408 520.4189,121.08025 C 520.96409,120.10605 520.91635,119.24984 520.29546,118.86611 C 519.73865,118.52198 519.28308,118.77516 519.28308,119.42873 C 519.28308,121.3502 510.10755,129.40057 506.03308,131.05393 C 503.97058,131.89086 502.28308,132.94366 502.28308,133.39349 C 502.28308,133.84332 499.86545,135.3942 496.91057,136.83989 C 492.885,138.80941 490.33323,139.39195 486.73237,139.16343 C 482.35779,138.88582 481.84866,138.58933 481.05705,135.85846 C 480.09073,132.52489 480.9184,114.81376 482.29545,109.35846 C 482.78136,107.43346 483.38772,103.95484 483.6429,101.6282 C 484.22112,96.356427 488.05979,84.613037 490.18834,81.604177 C 491.22514,80.138587 492.65795,79.425967 494.28368,79.567327 C 495.65901,79.686917 497.30875,79.460627 497.94976,79.064457 C 499.25272,78.259187 504.28308,79.871127 504.28308,81.093927 C 504.28308,81.525657 505.37024,83.051337 506.69898,84.484337 C 508.02773,85.917327 509.57362,88.751167 510.13429,90.781747 C 512.02424,97.626587 507.22794,106.28024 501.51321,106.33622 C 498.38351,106.36688 491.3854,110.95662 490.36849,113.64553 C 488.67813,118.11519 488.09543,126.13931 489.29804,128.3864 C 490.24572,130.15718 491.09456,130.48539 493.62988,130.06137 C 498.53818,129.24047 502.28308,127.53407 502.28308,126.11846 C 502.28308,125.40924 503.80087,124.1606 505.65595,123.34371 C 509.93732,121.4584 517.28308,114.8357 517.28308,112.86106 C 517.28308,112.03463 517.85498,111.35846 518.55397,111.35846 C 519.25295,111.35846 520.94045,109.2344 522.30397,106.63834 C 523.66748,104.04227 525.12308,101.45477 525.53864,100.88834 C 527.73275,97.897607 532.28308,87.870467 532.28308,86.026237 C 532.28308,83.863487 535.32,75.178547 537.87749,70.027417 C 538.65057,68.470347 539.28308,66.332847 539.28308,65.277417 C 539.28308,64.221987 539.6509,63.358457 540.10046,63.358457 C 540.55002,63.358457 541.72968,60.770957 542.72193,57.608457 C 543.71419,54.445957 545.34038,50.707507 546.3357,49.300787 C 547.33101,47.894077 548.92115,44.744077 549.86934,42.300787 C 550.81754,39.857507 552.11357,37.183457 552.74941,36.358457 C 553.38526,35.533457 555.00218,32.720957 556.34257,30.108457 C 557.68296,27.495957 559.34292,25.358457 560.03136,25.358457 C 560.71981,25.358457 561.28308,24.938777 561.28308,24.425847 C 561.28308,23.912907 562.26129,23.182757 563.45688,22.803297 C 566.91447,21.705897 568.35173,24.507367 566.70212,29.128847 C 565.96993,31.180127 565.35111,33.590857 565.32697,34.486007 C 565.30283,35.381167 564.60808,36.673767 563.78308,37.358457 C 562.95808,38.043147 562.28308,39.437367 562.28308,40.456727 C 562.28308,41.476097 561.4064,43.751697 560.33491,45.513637 C 559.26341,47.275567 558.61693,49.089617 558.89829,49.544867 C 559.17964,50.000107 558.70632,50.642547 557.84646,50.972507 C 556.88029,51.343257 556.28308,52.792167 556.28308,54.765447 C 556.28308,56.521597 555.74308,58.498457 555.08308,59.158457 C 554.42308,59.818457 554.17332,60.358457 554.52805,60.358457 C 555.43639,60.358457 550.42575,71.503977 548.60151,73.541297 C 547.6025,74.656987 547.30805,76.195677 547.72783,78.106907 C 548.17518,80.143687 547.80597,81.704097 546.46972,83.424067 C 545.42952,84.762987 543.74389,87.658457 542.72388,89.858457 C 541.70387,92.058457 539.61242,95.051497 538.0762,96.509667 C 536.53998,97.967827 535.28308,99.921857 535.28308,100.85194 C 535.28308,101.78202 534.38308,103.68717 533.28308,105.08559 C 532.18308,106.48401 531.28308,108.8882 531.28308,110.42822 C 531.28308,111.96824 530.83234,114.41378 530.28145,115.86276 C 529.05364,119.09213 529.99005,123.35846 531.92667,123.35846 C 532.7114,123.35846 534.38241,122.68426 535.64003,121.86024 C 538.46319,120.01043 552.28308,103.89537 552.28308,102.45316 C 552.28308,101.87643 553.40808,100.66744 554.78308,99.766497 C 556.21266,98.829807 557.28308,97.173617 557.28308,95.898437 C 557.28308,94.671927 558.18308,92.853937 559.28308,91.858457 C 560.38308,90.862967 561.28308,89.443227 561.28308,88.703467 C 561.28308,87.963707 561.73308,87.358457 562.28308,87.358457 C 562.83308,87.358457 563.28308,86.156387 563.28308,84.687197 C 563.28308,83.218007 563.87365,81.305507 564.59545,80.437197 C 565.31726,79.568887 566.77388,76.833457 567.83238,74.358457 C 568.89088,71.883457 570.52792,69.010147 571.47023,67.973317 C 572.41255,66.936497 573.46932,64.786977 573.81862,63.196617 C 574.58315,59.715757 578.96837,51.661637 580.67103,50.611137 C 582.40073,49.543957 585.50819,42.531707 584.77624,41.347377 C 584.44008,40.803467 584.6416,40.358457 585.22406,40.358457 C 585.80652,40.358457 586.28308,39.783747 586.28308,39.081317 C 586.28308,38.378887 587.52058,36.410597 589.03308,34.707317 C 591.97428,31.395147 595.73908,25.280057 595.49675,24.208497 C 595.41591,23.851017 596.45977,23.279947 597.81643,22.939447 C 599.17309,22.598947 600.28308,21.653927 600.28308,20.839407 C 600.28308,18.511667 601.84687,19.105677 603.12943,21.920587 C 604.10622,24.064397 603.866,25.737887 601.65808,32.170587 C 600.20677,36.398917 598.63304,40.006997 598.1609,40.188557 C 596.43418,40.852547 588.40897,53.979327 587.20535,58.108457 C 586.52399,60.445957 585.60813,62.358457 585.17011,62.358457 C 584.73209,62.358457 584.07617,63.944467 583.71251,65.882917 C 583.34886,67.821367 582.28399,69.958867 581.34614,70.632917 C 578.42434,72.732857 570.81806,88.457967 567.45153,99.358457 C 566.34741,102.93346 564.91058,109.25618 564.25855,113.40894 C 561.82621,128.9006 568.04482,135.63857 580.26284,130.74988 C 582.47397,129.86516 584.28308,128.74016 584.28308,128.24988 C 584.28308,127.7596 585.35994,127.35846 586.67609,127.35846 C 589.36393,127.35846 590.28308,125.71716 590.28308,120.91759 C 590.28308,119.11508 591.62738,114.98939 593.27041,111.74938 C 594.91345,108.50937 596.26345,105.103 596.27041,104.17966 C 596.27738,103.25632 597.85808,100.83088 599.78308,98.789777 C 601.70808,96.748687 603.28308,94.466647 603.28308,93.718577 C 603.28308,92.970507 603.73308,92.358457 604.28308,92.358457 C 604.83308,92.358457 605.28308,91.876317 605.28308,91.287027 C 605.28308,89.788857 607.874,87.358457 609.4711,87.358457 C 611.34066,87.358457 613.25248,83.957447 612.65889,81.687567 C 612.12413,79.642647 616.29947,73.706597 620.71646,70.232197 C 622.1281,69.121797 623.28308,67.570957 623.28308,66.785877 C 623.28308,66.000797 623.80216,65.358457 624.43659,65.358457 C 625.07102,65.358457 628.02447,64.206807 630.99982,62.799247 C 634.05775,61.352617 638.88178,60.053007 642.09631,59.809817 C 645.22403,59.573197 648.90808,58.961877 650.28308,58.451327 C 656.83555,56.018317 669.11563,55.703387 673.28864,57.861327 C 676.4421,59.492047 677.50466,61.578727 676.7648,64.687917 C 676.48073,65.881717 676.06361,68.208457 675.83787,69.858457 C 674.87353,76.906997 669.13932,90.358457 667.09894,90.358457 C 666.65022,90.358457 666.28308,91.203357 666.28308,92.236007 C 666.28308,93.268667 665.60808,94.673767 664.78308,95.358457 C 663.4625,96.454437 662.64783,99.358457 663.66096,99.358457 C 663.86879,99.358457 665.67906,98.673127 667.68379,97.835497 C 673.47676,95.415037 677.28308,98.775067 677.28308,106.30925 C 677.28308,109.94999 679.30032,113.7813 682.80099,116.78933 C 686.39653,119.87889 690.0411,120.53495 693.54449,118.72328 C 696.8429,117.01761 698.28308,117.62717 698.28308,120.72892 C 698.28308,123.62489 694.98735,127.15288 691.5054,127.98424 C 690.00813,128.34174 688.22467,129.07389 687.54216,129.61125 C 685.57136,131.16294 677.40091,129.51999 676.00966,127.29226 C 675.34544,126.22867 674.28983,125.35846 673.66385,125.35846 C 673.03788,125.35846 672.00311,124.12096 671.36436,122.60846 C 670.72561,121.09596 668.90676,118.28771 667.32247,116.3679 L 664.44194,112.87735 L 663.7541,115.6179 C 663.37579,117.12521 662.75545,118.35846 662.37556,118.35846 C 661.99567,118.35846 661.11527,119.93362 660.41911,121.85881 C 659.03978,125.6733 654.68349,131.35846 653.13995,131.35846 C 652.60902,131.35846 650.73652,132.70638 648.97885,134.35383 C 645.25976,137.83971 645.15183,137.85907 641.10503,135.76639 C 638.14314,134.23473 638.04869,133.98536 638.61602,129.1951 C 638.94036,126.45654 640.30381,121.88547 641.64589,119.03717 C 642.98798,116.18888 645.23417,111.34366 646.63743,108.27003 C 648.04069,105.19639 649.94672,102.05257 650.87307,101.28378 C 651.79941,100.51498 654.33422,96.057477 656.50597,91.378217 C 658.67772,86.698957 660.83786,82.633617 661.30628,82.344117 C 662.76889,81.440167 663.94351,77.070667 664.19227,71.608457 L 664.43136,66.358457 L 660.60722,66.359637 C 657.05929,66.360727 651.49809,67.315067 637.06734,70.399227 C 631.88598,71.506587 631.24826,71.933927 630.24624,74.970077 C 629.63829,76.812177 629.41195,78.757947 629.74325,79.294007 C 630.82722,81.047907 630.68221,100.79647 629.57022,102.85846 C 628.97702,103.95846 628.16175,108.40054 627.75852,112.72975 C 627.19303,118.80107 626.50364,121.20217 624.74384,123.22975 C 616.32196,132.93318 613.87143,135.27048 611.00796,136.33096 C 609.23427,136.98784 607.05098,137.90697 606.15619,138.37347 C 605.2614,138.83996 602.92013,139.52352 600.95338,139.89249 C 597.87872,140.4693 597.01962,140.17722 594.82471,137.80888 C 591.89979,134.65284 586.86437,134.18124 584.892,136.87861 C 582.95017,139.53423 568.58163,142.73982 563.39688,141.67413 z M 608.46165,127.09549 C 609.18844,126.40086 611.02058,125.04049 612.53308,124.07244 C 614.04558,123.10439 615.28308,121.67987 615.28308,120.90684 C 615.28308,120.1338 615.84558,118.90667 616.53308,118.17989 C 617.22058,117.4531 618.40918,115.05846 619.1744,112.85846 C 619.93963,110.65846 620.77528,108.29596 621.03139,107.60846 C 622.01393,104.97101 619.67087,106.54054 617.2891,110.11529 C 615.91741,112.17403 613.66741,114.99488 612.2891,116.38383 C 606.23759,122.48208 602.57405,127.29366 603.64698,127.73415 C 605.68506,128.57087 607.11667,128.38097 608.46165,127.09549 z M 610.28308,107.14974 C 615.56734,101.4505 618.28308,97.506147 618.28308,95.530517 C 618.28308,93.652237 618.06635,93.589497 615.74262,94.795067 C 613.51188,95.952387 604.41043,106.55101 604.20657,108.22878 C 604.11133,109.01261 603.59168,111.11004 602.6879,114.35846 C 602.07024,116.57852 602.31657,116.46585 604.88772,113.35226 C 606.48017,111.42385 608.90808,108.63271 610.28308,107.14974 z M 498.25128,95.608457 C 498.22081,92.974397 498.15758,92.940287 496.75128,94.799587 C 494.88049,97.272977 494.89019,98.358457 496.78308,98.358457 C 497.76049,98.358457 498.272,97.400367 498.25128,95.608457 z M 37.593592,138.59679 C 36.939368,138.16692 35.918557,133.32494 35.325123,127.83684 C 34.731689,122.34873 33.889167,116.28346 33.452853,114.35846 L 32.659554,110.85846 L 31.976958,114.99931 C 31.58564,117.37317 30.616976,119.40009 29.706938,119.74931 C 28.162758,120.34187 23.33416,120.60971 23.232272,120.10846 C 21.978889,113.94224 22.277228,111.50724 24.502353,109.74222 C 25.808509,108.70615 27.953137,106.39596 29.268194,104.60846 C 33.603637,98.715477 40.283089,101.29128 40.283089,108.85615 C 40.283089,111.2675 40.713436,113.50639 41.239415,113.83147 C 41.765394,114.15654 41.939148,115.09118 41.625534,115.90845 C 41.033013,117.45253 43.051918,123.37872 44.154409,123.33158 C 44.500183,123.31679 46.093377,120.27929 47.694839,116.58158 C 49.296302,112.88386 51.813382,108.28346 53.28835,106.35846 C 54.763319,104.43346 56.272944,101.24014 56.643072,99.262187 C 57.013201,97.284247 58.208621,93.818487 59.299561,91.560497 C 60.390501,89.302507 61.283089,86.983327 61.283089,86.406757 C 61.283089,85.830197 61.756051,85.358457 62.334116,85.358457 C 64.180482,85.358457 66.071696,79.100047 66.715838,70.858457 C 67.059731,66.458457 67.760755,61.508457 68.273669,59.858457 C 68.786583,58.208457 69.128728,56.183457 69.03399,55.358457 C 68.939253,54.533457 69.226819,51.323577 69.673027,48.225397 C 70.394962,43.212737 71.197411,41.780987 76.959096,35.225397 C 80.520227,31.173577 84.412454,27.325367 85.608484,26.673807 C 93.828504,22.195817 101.43072,20.406167 103.81767,22.387157 C 104.8455,23.240187 105.28308,23.268177 105.28308,22.480897 C 105.28308,21.863557 106.42951,21.358457 107.8307,21.358457 C 109.53919,21.358457 111.95414,22.934277 115.16254,26.142677 C 120.09461,31.074747 121.28308,34.069767 121.28308,41.566847 C 121.28308,46.148247 117.61849,61.249227 116.04726,63.142547 C 114.76843,64.683507 116.8994,69.358457 118.88063,69.358457 C 119.57341,69.358457 120.75585,69.974087 121.50829,70.726527 C 122.26073,71.478957 123.7967,72.386697 124.92155,72.743707 C 126.04641,73.100727 127.97127,74.462097 129.19902,75.768977 C 132.23369,78.999237 133.28284,90.183687 130.89328,93.830617 C 130.00767,95.182227 129.28308,96.821457 129.28308,97.473357 C 129.28308,98.125257 128.04898,101.0959 126.54063,104.07478 C 123.58418,109.91359 120.68172,112.56274 112.62727,116.77392 C 107.85586,119.26859 106.56988,119.46957 95.379344,119.46957 C 78.448225,119.46957 74.262961,117.10113 79.724482,110.61048 C 83.202264,106.47736 86.444584,106.02563 89.865404,109.19759 C 92.452704,111.59668 93.155594,111.72397 103.14259,111.60204 C 115.01684,111.45706 115.44363,111.2164 119.37194,102.4507 C 121.45108,97.811257 123.09937,85.368467 121.63801,85.344337 C 121.1678,85.336577 118.82118,83.560727 116.42329,81.398017 C 114.02541,79.235297 110.54098,76.429147 108.68013,75.162127 C 105.88784,73.260917 105.29555,72.226877 105.28991,69.243317 C 105.28572,67.026217 106.13252,64.548277 107.47962,62.835727 C 109.64269,60.085827 112.85935,45.099897 111.69197,43.211037 C 111.40216,42.742117 111.8666,42.358457 112.72406,42.358457 C 114.98829,42.358457 114.70331,41.583407 110.55582,36.461447 C 105.73042,30.502307 104.50959,29.603447 100.23821,28.864897 C 91.515694,27.356727 81.089204,36.449867 78.682696,47.663867 C 76.81955,56.345877 76.90817,58.699017 78.955818,54.916157 C 80.9228,51.282327 87.013544,45.425527 90.024404,44.272717 C 95.451914,42.194627 97.850744,46.081497 95.859304,53.727137 C 94.079784,60.559177 92.785734,63.019077 90.260174,64.370717 C 89.172774,64.952677 88.276204,66.200487 88.267794,67.143637 C 88.259384,68.086787 86.664194,71.108457 84.722924,73.858457 C 82.781664,76.608457 79.692812,81.114497 77.858822,83.871887 C 76.024832,86.629277 73.195378,90.229277 71.571148,91.871887 C 69.946917,93.514497 67.571976,96.658457 66.293501,98.858457 C 65.015026,101.05846 62.72774,104.20846 61.210642,105.85846 C 59.693544,107.50846 57.966062,110.69968 57.371793,112.95007 C 56.073838,117.86517 47.849706,134.17469 45.473757,136.54541 C 43.434478,138.5802 39.232951,139.67395 37.593592,138.59679 z M 70.271044,87.380957 C 71.13448,85.767617 71.048886,85.511097 69.806228,85.987947 C 68.968502,86.309417 68.283089,87.199287 68.283089,87.965447 C 68.283089,89.918757 69.030454,89.699027 70.271044,87.380957 z M 73.283089,82.799437 C 73.283089,81.941977 72.833089,81.518537 72.283089,81.858457 C 71.733089,82.198377 71.283089,82.899927 71.283089,83.417477 C 71.283089,83.935017 71.733089,84.358457 72.283089,84.358457 C 72.833089,84.358457 73.283089,83.656897 73.283089,82.799437 z M 80.638681,71.931707 C 85.746734,63.868157 86.400694,60.733477 82.17963,64.545357 C 78.696055,67.691237 72.214023,81.755247 75.057693,79.997757 C 75.483726,79.734457 77.99517,76.104727 80.638681,71.931707 z M 139.70026,136.92156 C 138.3254,135.91624 138.09686,134.75377 138.5867,131.25754 C 139.42709,125.25923 143.24417,113.2127 144.9169,111.27972 C 145.6683,110.41141 146.28308,108.07821 146.28308,106.09482 C 146.28308,104.11143 146.77146,101.22186 147.36837,99.673557 C 149.0289,95.366357 149.56479,86.402827 148.25605,84.825887 C 146.69926,82.950067 148.00482,79.358457 150.24348,79.358457 C 151.24757,79.358457 152.32812,78.683457 152.64471,77.858457 C 152.96129,77.033457 154.34137,76.358457 155.71155,76.358457 C 157.74286,76.358457 158.41949,77.081717 159.37652,80.275997 C 160.37142,83.596667 160.22518,85.468007 158.41666,92.558397 C 157.24319,97.159057 156.28308,101.54009 156.28308,102.29401 C 156.28308,103.04793 154.88907,106.61519 153.18529,110.22126 C 151.4815,113.82733 149.93591,117.47091 149.75063,118.3181 C 148.26701,125.102 148.14188,126.35846 148.94987,126.35846 C 149.45411,126.35846 151.8349,124.35297 154.24052,121.90182 C 156.64615,119.45067 158.98984,117.67723 159.44873,117.96084 C 161.20852,119.04845 160.12378,123.00195 157.14462,126.35846 C 155.43604,128.28346 153.40113,130.81807 152.6226,131.99093 C 151.84406,133.16378 149.00728,135.03759 146.31862,136.15494 C 142.28238,137.83233 141.12859,137.96598 139.70026,136.92156 z M 705.6565,76.038437 C 702.56291,74.525367 700.81062,72.669647 698.6565,68.625237 L 695.78308,63.230347 L 698.78308,60.799367 C 702.31468,57.937627 703.51864,57.811467 706.79714,59.959627 C 709.80669,61.931557 716.01051,70.424257 716.8318,73.696547 C 717.34546,75.743127 716.94795,76.279637 714.21097,77.233747 C 710.44229,78.547517 710.92415,78.614847 705.6565,76.038437 z M 168.46098,65.431847 C 167.06441,64.509957 166.30326,57.435577 167.31447,54.775897 C 169.0743,50.147177 175.91176,49.129997 179.71315,52.931387 C 181.75032,54.968557 181.8178,60.358457 179.80613,60.358457 C 178.99381,60.358457 177.62358,61.435347 176.76117,62.751557 C 175.25528,65.049827 170.30424,66.648617 168.46098,65.431847 z"
     id="path2384" />
</svg>
