<?xml version="1.0" encoding="UTF-8"?>
<svg version="1.0" xmlns="http://www.w3.org/2000/svg" width="233" height="95" >
<path d="M61.345,8.967c-7.223,5.304-14.361,10.73-21.377,16.306c-3.953,3.142-7.916,6.317-11.545,9.833 c-3.256,3.152-6.598,6.195-10.05,9.132c-1.843,1.567-3.93,3.872-6.187,4.862c0.455,0.067,0.91,0.136,1.365,0.203 c-0.246-0.464,1.371-1.97,1.607-2.213c2.63-2.708,7.951-4.018,11.452-2.549c5.015,2.104-0.669,10.266-2.563,12.385 c-3.924,4.387-10.183,5.825-15.869,5.766c-7.688-0.081-6.451-7.046-4.547-12.146c4.207-11.272,11.389-20.669,20.402-28.557 c4.844-4.238,10.49-7.729,16.627-9.712c5.952-1.925,15.094-1.367,18.252,5.016c3.587,7.251-7.42,15.59-12.482,18.59 c-1.546,0.917-3.221,1.621-4.954,2.09c-0.356,0.061-0.712,0.121-1.068,0.182c-0.829-0.296-1.208-0.022-1.135,0.821 c0.31-0.238,0.641-0.447,0.97-0.658c6.658-4.283,9.94,3.341,7.348,8.691c-1.826,3.767-5.354,6.832-8.75,9.142 c-1.458,0.992-6.362,3.979-5.831-0.164c0.41-3.194,5.411-5.911,7.798-7.418c8.256-5.209,19.278-6.964,25.94-14.551 c-0.524-0.138-1.05-0.274-1.574-0.412c-4.772,5.476-9.492,11.055-13.74,16.95c-1.15,1.597-3.483,4.011-2.238,6.006 c1.573,2.521,7.205-3.519,7.803-4.044c0.867-0.762-1.043-0.879-1.574-0.412c-0.287,0.251-5.414,4.468-4.562,2.385 c0.369-0.902,0.968-1.734,1.5-2.544c1.8-2.735,3.884-5.3,5.933-7.851c2.746-3.417,5.573-6.773,8.453-10.078 c0.775-0.889-1.095-0.958-1.574-0.412c-8.149,9.279-22.509,10.359-31.565,18.781c-1.203,1.118-4.44,5.346-1.629,6.678 c2.067,0.98,4.483-0.21,6.329-1.174c5.657-2.953,13.244-9.765,12.326-16.826c-0.903-6.943-8.626-5.838-12.663-2.723 c-0.532,0.41-0.392,0.852,0.254,0.951c9.466,1.452,28.21-14.073,21.768-24.016c-4.979-7.684-17.046-5.382-23.883-2.531 c-9.733,4.057-18.379,12.161-24.729,20.415c-3.46,4.498-6.202,9.313-8.458,14.516c-1.697,3.915-4.268,9.062-2.076,13.241 c3.007,5.731,14.596,2.474,18.882,0.708c5.261-2.166,12.846-10.188,10.089-16.413c-2.496-5.634-13.142-1.29-16.233,1.465 c-0.488,0.435-2.397,2.324-1.964,3.143c0.255,0.482,0.938,0.391,1.365,0.203c4.301-1.887,8.372-6.528,11.783-9.582 c4.937-4.419,9.625-8.98,14.781-13.156c7.51-6.081,15.239-11.91,23.027-17.629C63.633,8.879,62.01,8.479,61.345,8.967 L61.345,8.967z"/>
<path d="M61.386,48.296c6.349-2.719,12.944-5.887,18.205-10.414c1.571-1.353,4.234-4.385,2.938-6.572 c-0.875-1.477-4.082-0.268-5.162,0.104c-8.507,2.928-16.381,12.385-20.573,20.038c-3.675,6.709,3.137,4.93,6.918,2.928 c5.191-2.747,9.572-7.312,13.82-11.271c2.347-2.188,4.61-4.389,7.245-6.234c2.372-1.661,5.763-2.735,3.927,1.093 c-2.447,5.104-7.272,9.195-10.914,13.486c-0.904,1.064-3.028,2.871-3.265,4.367c-0.172,1.091,2.72-1.208,2.875-1.425 c4.398-6.161,8.979-12.279,14.151-17.816c0.915-0.979,1.882-1.905,2.893-2.785c1.683-1.465,3.896-1.151,3.095,1.442 c-1.396,4.523-6.193,7.921-9.181,11.407c-0.714,0.833-8.15,12.088-2.946,10.242c4.134-1.466,8.096-4.509,11.645-6.975 c8.154-5.664,15.398-12.518,21.729-20.15c0.126-0.151-1.501-0.087-1.823,0.259c-3.46,3.721-6.771,7.59-9.938,11.562 c-1.754,2.198-9.822,10.852-7.102,14.054c2.413,2.84,10.778-3.023,12.513-4.146c7.805-5.052,15.295-11.651,20.726-19.229 c0.159-0.223-1.537-0.031-1.823,0.259c-2.26,2.296-20.497,21.281-15.997,23.193c3.446,1.464,9.659-3.541,11.996-5.214 c7.176-5.137,14.281-11.145,19.449-18.363c0.166-0.231-1.542-0.014-1.823,0.259c-6.051,5.87-13.963,12.756-17.271,20.662 c-1.287,3.075,1.774,3.636,4.091,3.015c3.615-0.969,6.927-3.391,9.799-5.718c0.393-0.318-1.394-0.117-1.744,0.166 c-1.863,1.511-8.516,7.021-10.412,4.158c-1.263-1.906,2.865-6.521,3.847-7.807c4.004-5.242,8.702-10.053,13.435-14.643 c-0.608,0.086-1.216,0.173-1.823,0.259c-4.005,5.595-9.256,10.286-14.568,14.607c-2.815,2.29-5.773,4.412-8.897,6.26 c-1.805,1.068-5.979,3.047-4.709-0.706c1.557-4.595,5.899-8.821,9.013-12.374c2.374-2.709,4.832-5.354,7.36-7.921 c-0.608,0.086-1.216,0.173-1.823,0.259c-4.496,6.272-10.409,11.515-16.516,16.176c-2.216,1.691-16.351,11.198-12.636,2.58 c3.458-8.024,10.719-15.192,16.6-21.515c-0.608,0.086-1.216,0.173-1.823,0.259c-7.948,9.583-17.406,17.816-28.12,24.176 c-1.144,0.679-2.31,1.322-3.493,1.928c-1.122,0.574,0.152-0.054,0.113-0.155c-0.298-0.775,0.322-1.956,0.579-2.688 c2.224-6.345,8.017-10.479,11.906-15.724c1.216-1.639,3.267-4.936,0.316-5.783c-1.477-0.424-3.164,0.428-4.339,1.211 c-5.723,3.813-10.141,10.659-14.22,16.051c-1.536,2.031-3.04,4.087-4.516,6.162c-0.656,0.922,0.83-1.164,1.347,0.013 c-0.12-0.274,1.061-1.542,1.19-1.71c1.446-1.864,16.68-17.2,13.057-19.274c-4.229-2.421-12.788,6.96-14.916,8.957 C74,44.954,59.43,58.732,57.627,54.991c-1.584-3.286,5.878-10.931,7.602-12.898c3.192-3.646,6.873-6.885,11.019-9.4 c8.046-4.883,3.119,4.049,0.851,6.001c-4.779,4.113-11.055,6.916-16.815,9.384C59.115,48.577,60.949,48.483,61.386,48.296 L61.386,48.296z"/>
<path d="M157.588,32.38c9.773-8.52,20.979-17.297,28.46-27.971c1.372-1.957,2.344-5.245-1.158-4.214 c-5.969,1.758-11.133,9.001-14.93,13.387c-8.536,9.855-16.396,20.386-24.59,30.535c-0.954,1.182-8.338,8.916-6.343,10.885 c2.481,2.449,10.486-4.021,12.115-5.134c11.103-7.588,21.265-16.698,30.98-25.957c6.113-5.826,14.146-12.093,18.178-19.719 c1.258-2.377-0.507-3.941-2.821-2.775c-5.469,2.754-9.869,8.851-13.821,13.318c-6.596,7.457-12.87,15.235-18.738,23.277 c-1.341,1.838-11.929,16.086-7.166,17.188c1.53,0.354,3.158-0.113,4.557-0.752c4.804-2.194,9.096-5.7,13.336-8.795 c4.258-3.106,8.545-6.253,12.537-9.7c1.653-1.428,6.899-5.396,6.479-8.059c-0.425-2.693-12.109,6.23-12.817,6.858 c-2.446,2.168-21.981,22.272-9.732,22.08c4.805-0.075,9.378-4.341,12.709-7.302c5.023-4.465,9.256-9.686,13.892-14.527 c0.438-0.458-1.423-0.237-1.758,0.113c-6.119,6.392-11.627,13.441-18.938,18.567c-4.004,2.808-9.771,3.086-7.503-2.888 c1.638-4.311,5.137-8.036,8.211-11.368c3.059-3.314,6.439-6.413,10.141-8.994c0.251-0.175,4.019-2.124,3.793-1.357 c-0.296,1.007-1.235,1.874-1.896,2.66c-2.055,2.45-4.53,4.575-7.033,6.546c-4.834,3.807-9.774,7.481-14.81,11.019 c-2.226,1.564-12.135,9.051-9.962,1.578c1.298-4.466,4.532-8.519,7.2-12.262c3.098-4.347,6.405-8.546,9.751-12.703 c5.813-7.223,11.827-14.419,18.52-20.851c0.733-0.706,3.906-4.445,4.415-2.336c0.509,2.104-2.734,5.146-3.881,6.492 c-8.45,9.918-18.504,18.806-28.361,27.277c-6.799,5.842-13.874,11.614-21.567,16.254c-6.478,3.907-3.73-1.122-1.337-4.365 c4.295-5.82,9.084-11.296,13.622-16.926c6.28-7.792,12.194-15.883,19.066-23.178c2.103-2.232,4.33-4.391,6.787-6.234 c1.076-0.808,2.736-1.977,2.183,0.206c-1.027,4.041-5.521,7.669-8.304,10.508c-6.755,6.892-13.95,13.39-21.223,19.729 C155.382,32.884,157.224,32.697,157.588,32.38L157.588,32.38z"/>
<path d="M199.327,46.067c-5.207,2.003-10.103,4.97-14.774,7.975c-11.202,7.203-19.932,17.396-31.1,24.556 c-19.055,12.214-42.528,17.999-64.747,13.085c-2.782-0.615-9.1-1.629-10.072-4.879c-0.492-1.643,2.387-4.012,3.363-4.904 c7.238-6.623,17.765-9.619,27.151-11.347c27.632-5.085,55.614,2.799,83.231,3.81c10.062,0.368,19.639-1.198,28.046-7.044 c8.868-6.167,15.034-17.68,11.542-28.432c-0.157-0.485-2.075,0.075-1.932,0.518c3.646,11.229-3.143,22.285-12.211,28.592 c-10.499,7.301-24.152,5.861-36.165,4.676c-25.749-2.539-52.255-7.7-77.894-1.688c-7.519,1.764-15.013,4.695-21.302,9.236 c-1.505,1.087-7.535,5.51-5.341,7.997c2.1,2.379,5.902,3.189,8.819,3.956c5.072,1.333,10.37,1.973,15.593,2.316 c7.588,0.499,15.035-0.88,22.362-2.741c14.703-3.734,29.082-10.255,40.648-20.172c10.944-9.386,21.728-19.734,35.462-25.02 C201.291,46.064,200.08,45.777,199.327,46.067L199.327,46.067z"/>
<path d="M73.176,15.131c0.791-0.253,1.572-0.559,2.318-0.922c0.844-0.412,2.058-1.064,1.974-2.155 c-0.066-0.868-2.003-0.406-1.932,0.518c-0.007-0.087,0.053-0.145-0.042-0.029c-0.086,0.104-0.222,0.185-0.355,0.274 c-0.309,0.209-0.666,0.358-1.005,0.509c-0.536,0.239-0.803,0.34-1.307,0.501c-0.367,0.117-0.919,0.434-0.791,0.911 C72.156,15.19,72.809,15.249,73.176,15.131L73.176,15.131z"/>
<path d="M160.776,11.376c0.223,0.278,0.444,0.557,0.667,0.834c0.47,0.587,2.324-0.118,1.783-0.795 c-0.223-0.278-0.444-0.557-0.667-0.834C162.089,9.994,160.235,10.699,160.776,11.376L160.776,11.376z"/>
</svg>