<?xml version="1.0" encoding="UTF-8" standalone="no"?>
<svg xmlns="http://www.w3.org/2000/svg" version="1.1" width="81" height="38">
<path d="m 42.342968,13.276873 c 0.708672,0.348029 0.84381,0.333733 0.830254,0.922504 M 13.56082,34.402231 c 0,0 13.929822,0.184501 18.634596,-1.93726 4.704774,-2.12176 7.564539,-6.088531 7.564539,-6.088531 0,0 -4.612524,4.981526 -2.398513,6.734285 2.214012,1.752759 4.335773,-1.383757 6.088532,-2.859765 C 45.202733,28.774952 57.656547,15.490884 60.14731,11.155112 61.862996,8.168547 62.08457,3.2215709 56.549541,8.1108461 51.161112,12.870625 44.721453,23.476618 47.508995,28.682702 c 1.265813,2.364063 3.597768,1.93726 6.549783,-0.461252 2.952016,-2.398513 11.070057,-10.608805 14.114323,-17.619841 3.044266,-7.0110362 3.87452,-11.43905904 -1.476007,-6.180782 -5.350528,5.2582771 -9.409549,14.575575 -8.025792,18.819097 1.383757,4.243522 4.797025,3.228767 7.933541,2.490763 3.136516,-0.738004 11.900311,-3.966771 11.900311,-3.966771 M 8.2102923,17.797146 c 0,0 -0.8302543,-2.859765 -4.1512714,-5.90403 C 0.7380038,8.8488498 6.2730323,5.8045842 16.328334,5.1588308 c 10.055302,-0.6457533 17.52759,2.2140114 19.926103,3.87452 2.398512,1.6605082 2.306262,2.0295102 -5.166027,3.6900192 -7.472288,1.660508 -20.018353,3.413267 -13.56082,6.734284 6.457534,3.321018 14.575575,6.180782 14.575575,9.225048 0,3.044266 -8.302542,6.734285 -13.376319,6.826535 -5.073776,0.09225 -5.719529,0.461253 -5.350527,-2.02951 0.369002,-2.490763 2.02951,-15.49808 2.02951,-15.49808"
style="fill:none;stroke:#000;stroke-width:1px;stroke-linecap:round;stroke-linejoin:round" />
</svg>
