<?xml version="1.0" encoding="UTF-8"?>
<svg version="1.1" xmlns="http://www.w3.org/2000/svg" width="228" height="118" >
<path d="M46.131,26.131C35.309,36.499,24.352,47.253,12.191,56.05c-2.05,1.483-4.168,2.886-6.287,4.268 c-0.637,0.416-1.289,0.801-1.957,1.165C5,60.91,3.52,63.312,5.513,60.752c2.134-2.741,4.402-5.439,7.062-7.686 c5.712-4.822,12.356-8.676,18.773-12.462c6.506-3.839,13.152-7.468,19.956-10.752c2.336-1.128,4.706-2.225,7.165-3.062 c0.585-0.2,1.214-0.411,1.838-0.415c-1.091,0.007,0.021-1.135-0.711-0.222c-0.358,0.448-0.796,0.837-1.213,1.228 c-4.911,4.599-10.652,8.114-16.26,11.77c-1.9,1.238-4.757,2.78-5.026,5.289c-0.077,0.713,0.528,1.355,0.983,1.801 c1.58,1.545,2.719,2.123,2.866,4.585c0.387,6.482-7.224,10.09-12.427,11.08c-1.108,0.211-0.638,1.897,0.465,1.688 c6.185-1.177,14.959-6.066,13.636-13.754c-0.366-2.128-4.169-5.549-2.551-7.056c4.414-4.108,10.402-6.824,15.201-10.5 c0.042-0.032,9.18-6.335,5.433-7.607c-2.84-0.965-8.654,2.878-10.995,4.008C36.459,35.081,22.75,42.47,11.337,51.829 c-1.551,1.272-10.735,9.987-8.278,11.426c1.498,0.878,4.633-2.016,5.63-2.682c3.661-2.443,7.161-5.034,10.564-7.822 c9.756-7.993,19.01-16.66,28.115-25.383C48.185,26.587,46.946,25.351,46.131,26.131L46.131,26.131z"/>
<path d="M46.691,62.255c2.588-1.955,6.518-4.345,7.652-7.523c0.297-0.831-0.884-1.478-1.462-0.851 c-1.493,1.616-6.608,10.008-0.958,9.183c2.787-0.407,5.649-2.947,7.821-4.533c3.686-2.692,7.153-5.703,10.434-8.873 c1.363-1.317,9.602-9.578,6.003-11.686c-1.566-0.917-3.716,1.602-4.584,2.46c-4.415,4.363-8.212,10.026-10.619,15.726 c-1.734,4.107-1.267,9.944,4.571,7.35c5.132-2.281,9.703-7.259,13.736-11.01c4.157-3.866,8.822-7.958,11.895-12.791 c1.951-3.068-1.488-2.706-3.318-1.747c-9.558,5.007-20.118,14.606-22.429,25.634c-1.85,8.828,7.677,4.157,11.508,1.411 c-0.399-0.399-0.798-0.798-1.197-1.197c-5.051,7.38-9.96,14.861-14.765,22.403c-5.786,9.082-13.351,19.055-16.323,29.556 c-0.308,1.088,1.381,1.549,1.688,0.465c3.019-10.666,10.86-20.84,16.739-30.067c4.607-7.232,9.33-14.397,14.172-21.474 c0.484-0.708-0.487-1.706-1.197-1.197c-1.828,1.31-3.781,2.473-5.858,3.342c-4.174,1.745-3.283-2.417-2.533-4.891 c2.796-9.217,11.47-16.473,19.253-21.402c0.753-0.477,1.527-0.917,2.316-1.33c0.301-0.159,0.612-0.293,0.935-0.403 c0.557-0.2-0.073-0.809-0.336-0.277c-0.812,1.64-2.264,3.05-3.475,4.394c-3.818,4.238-8.014,8.162-12.286,11.937 c-2.939,2.598-6.996,7.112-11.145,7.553c-4.122,0.438,3.189-12.155,3.896-13.223c1.771-2.676,3.822-5.18,6.008-7.524 c0.345-0.37,2.566-3.059,2.123-1.43c-1.566,5.754-8.409,10.588-12.739,14.161c-2.751,2.271-5.648,4.44-8.777,6.167 c-4.521,2.496-0.715-3.942,0.678-5.45c-0.487-0.284-0.975-0.567-1.462-0.851c-0.924,2.588-4.737,4.882-6.848,6.477 C44.92,61.416,45.791,62.937,46.691,62.255L46.691,62.255z"/>
<path d="M87.869,67.881c-4.229-3.845,26.634-24.662,28.376-26.041c8.124-6.429,16.049-14.014,20.46-23.559 c1.882-4.071,3.264-9.821-0.406-13.323c-3.59-3.426-11.168-2.327-15.267-0.641c-6.312,2.596-8.831,9.346-9.79,15.604 c-1.791,11.689,1.521,23.205-1.598,34.878c-1.11,4.156-3.12,9.184-6.513,12.083c0.487,0.284,0.975,0.567,1.462,0.851 c1.64-5.438,2.651-11.687,1-17.215c-0.327-1.093-1.896-0.632-1.688,0.465c0.74,3.901,2.573,9.809,7.344,9.893 c4.898,0.085,9.487-7.353,11.756-10.934c-0.504-0.294-1.008-0.589-1.512-0.883c-1.391,2.993-3.997,8.325-1.429,11.277 c2.771,3.185,10.775-2.977,12.876-4.581c-0.354-0.458-0.707-0.916-1.061-1.374c-1.426,1.483-4.454,5.857-1.325,7.385 c3.303,1.612,6.386-0.856,9.093-2.754c8.944-6.269,19.572-15.681,23.976-25.928c0.404-0.94,2.239-5.083-0.18-5.228 c-3.526-0.21-7.817,6.623-9.618,8.798c-4.821,5.822-10.058,12.055-12.992,19.09c-0.84,2.013-0.166,4.555-1.34,6.314 c-0.383,0.575,0.13,1.297,0.756,1.316c12.887,0.398,25.771,0.997,38.641,1.774c8.927,0.54,17.861,1.166,26.744,2.218 c3.54,0.419,7.021,1.008,10.492,1.813c1.485,0.345,11.691,2.832,7.575,4.429c-8.943,3.471-21.618,2.27-31.275,2.367 c-12.635,0.127-25.271,0.111-37.907,0.055c-30.735-0.138-61.487-0.518-92.204-1.686C51.417,73.932,40.48,73.5,29.627,72.364 c-2.737-0.287-5.577-0.546-8.221-1.356c-1.192-0.365-0.342-0.383-0.866,0.215c0.438-0.499,1.533-0.656,2.132-0.819 c8.999-2.445,18.693-2.978,27.938-3.778c14.394-1.246,28.863-1.592,43.306-1.504c16.021,0.098,32.131,0.688,48.084,2.252 c1.123,0.11,1.112-1.641,0-1.75c-13.549-1.329-27.201-1.875-40.806-2.155c-24.987-0.514-50.394,0.14-75.067,4.42 c-0.857,0.149-10.658,2.14-6.169,4.42c5.187,2.634,13.097,2.176,18.706,2.575c28.327,2.011,56.817,2.276,85.202,2.634 c25.813,0.326,51.652,0.575,77.465,0.083c2.237-0.043,4.475-0.094,6.71-0.193c5.353-0.237,13.026,0.021,17.828-2.914 c2.559-1.564,0.039-3.708-1.603-4.539c-4.842-2.452-10.756-3.299-16.093-4.013c-22.433-3.004-45.317-3.62-67.923-4.319 c0.252,0.439,0.504,0.878,0.756,1.316c0.612-0.918,0.88-1.802,0.844-2.903c-0.082-2.474,0.907-4.534,2.075-6.685 c3.245-5.977,7.774-11.398,12.09-16.611c1.484-1.792,3.042-3.522,4.692-5.162c0.593-0.589,2.425-2.832,2.05-1.234 c-1.812,7.716-9.603,14.462-15.083,19.675c-3.234,3.076-6.662,5.994-10.37,8.483c-1.242,0.834-2.563,1.6-3.989,2.066 c-3.545,1.161-1.058-4.055-0.195-4.952c0.664-0.69-0.247-1.995-1.061-1.374c-2.584,1.972-5.422,3.775-8.527,4.776 c-5.167,1.664-1.371-7.258-0.525-9.079c0.47-1.011-0.898-1.85-1.512-0.883c-2.188,3.453-4.821,6.905-8.222,9.234 c-4.773,3.271-7.054-4.482-7.679-7.775c-0.563,0.155-1.125,0.31-1.688,0.465c1.567,5.245,0.554,11.131-1,16.285 c-0.27,0.895,0.833,1.389,1.462,0.851c9.562-8.17,9.255-25.042,8.366-36.123c-0.683-8.497-0.524-20.265,7.611-25.381 c4.635-2.915,15.825-3.827,16.491,3.531c0.731,8.089-7.114,16.593-12.168,21.873c-8.696,9.088-19.819,15.166-29.368,23.241 c-1.664,1.407-12.604,10.282-8.669,13.859C87.464,69.876,88.706,68.642,87.869,67.881L87.869,67.881z"/>
<path d="M64.505,38.809c-0.417-0.583-0.833-1.167-1.25-1.75c-0.276-0.388-0.757-0.572-1.197-0.314 c-0.383,0.224-0.592,0.808-0.314,1.197c0.417,0.583,0.833,1.167,1.25,1.75c0.276,0.388,0.757,0.572,1.197,0.314 C64.575,39.781,64.783,39.197,64.505,38.809L64.505,38.809z"/>
</svg>