<?xml version="1.0" encoding="UTF-8" standalone="no"?>
<!-- Created with Inkscape (http://www.inkscape.org/) -->

<svg
   xmlns:dc="http://purl.org/dc/elements/1.1/"
   xmlns:cc="http://creativecommons.org/ns#"
   xmlns:rdf="http://www.w3.org/1999/02/22-rdf-syntax-ns#"
   xmlns:svg="http://www.w3.org/2000/svg"
   xmlns="http://www.w3.org/2000/svg"
   version="1.1"
   width="1920"
   height="901.54999"
   id="svg2">
  <defs
     id="defs4" />
  <metadata
     id="metadata7">
    <rdf:RDF>
      <cc:Work
         rdf:about="">
        <dc:format>image/svg+xml</dc:format>
        <dc:type
           rdf:resource="http://purl.org/dc/dcmitype/StillImage" />
        <dc:title></dc:title>
      </cc:Work>
    </rdf:RDF>
  </metadata>
  <g
     transform="translate(0,645.55)"
     id="layer3"
     style="display:inline" />
  <g
     transform="translate(0,-150.81218)"
     id="layer2"
     style="display:inline" />
  <g
     transform="translate(0,-150.81218)"
     id="layer1"
     style="display:none">
    <g
       transform="translate(-244,299)"
       id="g3013">
      <path
         d="m 244,625.36218 0,-128 192,0 192,0 0,128 0,128 -192,0 -192,0 0,-128 z m 214.5,71.54973 c 24.29447,-8.1057 42.14713,-26.27521 49.66821,-50.54973 1.96388,-6.33848 2.32376,-9.66817 2.32376,-21.5 0,-11.86901 -0.35585,-15.1416 -2.33785,-21.5 C 501.7214,582.7255 487.94728,566.37276 469.00048,556.87867 457.25095,550.99108 452.13128,549.929 435.5,549.929 c -16.63128,0 -21.75095,1.06208 -33.50048,6.94967 -18.9468,9.49409 -32.72092,25.84683 -39.15364,46.48351 -1.982,6.3584 -2.33785,9.63099 -2.33785,21.5 0,11.83183 0.35988,15.16152 2.32376,21.5 7.32793,23.65111 25.41768,42.4373 48.16808,50.02249 10.38212,3.46149 13.75753,3.90404 27.00013,3.54001 10.26663,-0.28222 13.92936,-0.82051 20.5,-3.01277 z"
         id="path3017"
         style="fill:#ed2117" />
      <path
         d="m 244,625.36218 0,-128 192,0 192,0 0,128 0,128 -192,0 -192,0 0,-128 z m 383,63.5 0,-63.5 -57.85622,0 -57.85623,0 -0.66379,-7.95948 C 508.1024,587.16943 486.53367,561.01636 456.5,551.77517 c -8.5751,-2.63851 -33.4249,-2.63851 -42,0 -30.03367,9.24119 -51.6024,35.39426 -54.12376,65.62753 l -0.66379,7.95948 -57.35623,0 -57.35622,0 0,63.5 0,63.5 191,0 191,0 0,-63.5 z"
         id="path3015"
         style="fill:#2a7e02" />
    </g>
    <path
       d="m 321.02648,185.99643 a 79.195961,79.195961 0 1 1 -158.39192,0 79.195961,79.195961 0 1 1 158.39192,0 z"
       transform="matrix(0.95580632,0,0,0.95580632,-39.59614,746.07061)"
       id="path3074"
       style="fill:#f9f9f9;fill-opacity:1" />
  </g>
  <g
     transform="translate(0,-178.45)"
     id="layer4"
     style="display:inline">
    <path
       d="m 35.121712,1077.9813 c -2.48186,-0.9741 -6.34736,-3.6061 -8.59001,-5.8487 -2.24265,-2.2427 -6.49986,-4.0776 -9.46048,-4.0776 -6.77126,0 -13.3380399,-13.1164 -8.8258499,-17.6286 3.7406099,-3.7406 0.71672,-9.7724 -4.89912,-9.7724 -3.02479998,0 -3.76713,-6.6546 -3.14149998,-28.1622 1.08388998,-37.2619 3.97253998,-54.04093 9.30362998,-54.04093 2.6892299,0 4.2470399,-3.35021 4.2470399,-9.13368 0,-5.02353 1.37005,-9.13368 3.04456,-9.13368 1.67451,0 3.04456,-1.90852 3.04456,-4.24111 0,-2.33262 2.05508,-5.0297 4.56684,-5.99358 2.51176,-0.96384 4.56684,-4.91611 4.56684,-8.78276 0,-8.0788 8.62399,-16.50919 19.74303,-19.2999 10.30358,-2.58604 10.39848,6.15601 0.16958,15.63568 -4.11853,3.81693 -8.37723,10.48178 -9.46374,14.81078 -1.08648,4.329 -3.19697,7.87089 -4.68996,7.87089 -1.49297,0 -2.7145,1.95722 -2.7145,4.34936 0,2.39218 -1.88806,6.23743 -4.19565,8.54502 -2.3076,2.30759 -5.15657,8.57071 -6.33101,13.91799 -1.17447,5.34729 -3.45144,9.72235 -5.05994,9.72235 -1.67795,0 -2.75076,11.35554 -2.51688,26.63987 0.22408,14.652 -0.55252,29.0375 -1.72611,31.9679 -1.62744,4.0636 -0.6115,5.328 4.28105,5.328 3.67238,0 6.41486,1.9524 6.41486,4.5668 0,2.5118 1.37005,4.5669 3.04456,4.5669 1.6745,0 3.04456,2.1585 3.04456,4.7968 0,3.8086 2.97907,4.6267 14.46166,3.9711 12.34374,-0.7047 14.32508,-0.045 13.52905,4.5024 -1.16896,6.6783 -10.04093,17.2548 -14.20568,16.9349 -1.72099,-0.1321 -5.15967,-1.0374 -7.64154,-2.0116 z M 190.981,1063.3724 c -2.15914,-2.4481 -7.1974,-4.4511 -11.19613,-4.4511 -11.30314,0 -19.89056,-13.3216 -19.89056,-30.8562 0,-8.1467 -1.37006,-14.8122 -3.04456,-14.8122 -1.67451,0 -3.04456,-2.055 -3.04456,-4.5668 0,-2.5118 1.17194,-4.5668 2.60428,-4.5668 1.43238,0 3.40677,-8.59319 4.38752,-19.096 0.98077,-10.50279 3.68254,-22.75693 6.00396,-27.23146 6.13936,-11.83359 27.46988,-35.7864 31.9115,-35.83447 2.09313,-0.0213 3.8057,-1.93652 3.8057,-4.25298 0,-4.38045 8.91045,-7.85332 20.33331,-7.92493 10.4278,-0.0654 16.20141,8.04422 16.20141,22.75642 0,7.27613 1.49314,13.72704 3.31811,14.33537 2.08455,0.69483 3.49939,13.5225 3.8057,34.505 0.39345,26.94995 -0.34178,33.39895 -3.80761,33.39895 -6.70997,0 -11.96458,-19.10919 -12.21825,-44.43368 -0.19759,-19.73727 -1.28761,-24.3507 -7.44562,-31.51723 -7.05617,-8.21178 -7.35584,-8.27395 -13.70053,-2.84148 -3.56758,3.05466 -6.48975,6.96202 -6.49368,8.68302 -0.0122,4.72543 -16.39173,22.91872 -20.63566,22.91872 -4.30641,0 -4.23587,-0.65467 -3.72444,34.57305 0.36047,24.8301 1.01326,27.5379 8.25706,34.2513 4.32611,4.0093 10.4057,7.2896 13.5102,7.2896 3.10451,0 5.64456,1.3701 5.64456,3.0446 0,1.6745 3.42513,3.0446 7.6114,3.0446 4.98005,0 7.6114,-1.7016 7.6114,-4.922 0,-3.423 1.85438,-4.437 6.08912,-3.3296 4.51657,1.1811 6.08912,0.093 6.08912,-4.2117 0,-3.1923 1.3358,-5.8041 2.96845,-5.8041 3.79909,0 0.19302,18.7081 -4.39857,22.8206 -6.84308,6.1288 -23.58405,13.7112 -30.02335,13.5983 -3.63195,-0.064 -8.37011,-2.1188 -10.52928,-4.5668 z m 255.10185,-9.1976 c 0,-2.6106 -1.2583,-3.9687 -2.7967,-3.018 -3.4398,2.1259 -7.5801,-15.162 -4.734,-19.7671 1.1298,-1.828 1.0659,-23.0972 -0.1431,-47.26491 -1.7123,-34.25535 -3.1219,-43.94128 -6.3951,-43.94128 -2.3096,0 -4.1991,-2.03943 -4.1991,-4.53204 0,-4.95393 -9.0597,-16.77988 -12.8547,-16.77988 -1.3025,0 -2.3681,2.7401 -2.3681,6.08912 0,3.34901 -1.8687,6.08912 -4.1528,6.08912 -4.1071,0 -8.0254,18.04571 -8.0254,36.95965 0,4.78982 -1.3701,8.70875 -3.0446,8.70875 -1.6745,0 -3.0445,2.05508 -3.0445,4.56684 0,8.26945 -6.20303,4.75828 -8.06813,-4.56684 -1.0047,-5.02353 -2.91668,-9.13368 -4.24868,-9.13368 -1.33199,0 -3.32496,-4.11016 -4.42831,-9.13368 -1.10335,-5.02353 -3.15843,-9.13368 -4.56684,-9.13368 -1.40842,0 -3.52165,-4.37507 -4.69593,-9.72235 -3.1703,-14.43441 -16.61599,-25.04449 -16.61599,-13.11185 0,2.51176 -1.89524,4.56684 -4.21154,4.56684 -4.41188,0 -7.85448,8.92732 -7.92502,20.55078 -0.0244,3.76764 -1.48344,6.85026 -3.24572,6.85026 -1.95972,0 -2.94814,7.09468 -2.54495,18.26736 0.36258,10.04705 1.80442,18.26736 3.20416,18.26736 1.39971,0 2.54495,2.82092 2.54495,6.26881 0,3.4478 -1.37006,5.422 -3.04456,4.3871 -1.67451,-1.0349 -3.04456,0.2543 -3.04456,2.8649 0,8.3405 -4.76328,5.1051 -9.82072,-6.6706 -3.2849,-7.64849 -5.23695,-22.97396 -5.91391,-46.42949 -1.00156,-34.70479 -0.9509,-35.00419 5.76735,-34.07219 4.38218,0.6079 9.99541,-2.35135 15.88133,-8.37254 15.12708,-15.47489 21.63757,-13.08488 43.13125,15.83384 7.65222,10.2957 11.84582,8.33558 11.84582,-5.53668 0,-7.28253 1.3922,-10.47627 4.5668,-10.47627 2.6308,0 4.5668,-2.75055 4.5668,-6.48748 0,-5.68687 1.287,-6.27864 10.4277,-4.79533 11.007,1.78618 23.0625,11.46801 23.0625,18.52143 0,2.30671 2.0551,5.8996 4.5668,7.98418 2.5118,2.08458 4.5669,7.0905 4.5669,11.1243 0,4.0338 2.0551,8.12277 4.5668,9.08661 3.8012,1.45865 4.5669,10.0789 4.5669,51.41293 0,27.31329 -0.8315,51.82769 -1.8478,54.47639 -2.3778,6.1961 -7.2859,6.2428 -7.2859,0.069 z m 665.23635,-11.7204 c -4.7681,-4.9859 -6.0891,-10.5194 -6.0891,-25.5068 0,-10.559 1.4997,-20.11349 3.3453,-21.31189 1.9193,-1.24634 4.2125,-17.74682 5.3798,-38.70712 1.1188,-20.0941 3.3813,-36.99141 5.0271,-37.54957 1.6462,-0.55819 2.9928,-6.38091 2.9928,-12.93938 0,-6.5585 1.3083,-11.92454 2.9067,-11.92454 1.5987,0 3.8176,-4.85479 4.9307,-10.78846 2.1878,-11.66291 8.2854,-12.76297 9.8975,-1.78554 0.5441,3.70627 5.5308,11.27988 11.081,16.83027 9.6689,9.66891 23.4273,35.60698 22.6104,42.62664 -0.2161,1.84379 -0.2283,9.17506 -0.03,16.29172 0.2953,10.62911 1.4099,12.93938 6.2374,12.93938 5.0159,0 5.5112,1.27323 3.3828,8.69502 -3.0248,10.54703 -0.6625,24.69327 5.0828,30.43887 2.7111,2.7111 3.9009,9.2849 3.3155,18.3208 -0.8321,12.8447 -1.6541,14.1778 -9.2852,15.0558 -6.8098,0.7836 -8.3725,-0.2445 -8.3725,-5.5076 0,-3.5591 -1.192,-5.7345 -2.6485,-4.8343 -1.4565,0.9002 -3.3174,-8.7886 -4.1351,-21.5308 -1.1052,-17.22235 -2.7694,-23.88534 -6.4852,-25.96481 -6.2502,-3.49841 -6.506,-8.58386 -0.4308,-8.58386 3.0071,0 4.5668,-3.00836 4.5668,-8.80794 0,-5.02073 -1.9634,-9.56148 -4.5668,-10.56043 -3.0142,-1.15672 -4.5669,-5.92477 -4.5669,-14.02625 0,-8.88032 -1.2626,-12.27378 -4.5668,-12.27378 -3.0446,0 -4.5669,-3.04456 -4.5669,-9.13368 0,-14.27494 -6.0449,-10.708 -6.4496,3.8057 -0.1979,7.11666 -0.1339,14.67027 0.1431,16.78581 0.2771,2.11555 -1.616,4.65973 -4.2063,5.65372 -6.5675,2.52026 -6.6978,28.55685 -0.1431,28.55685 7.2405,0 5.8878,15.44743 -1.5223,17.3852 -3.37,0.88131 -6.0891,4.15288 -6.0891,7.32637 0,3.1537 -1.3701,5.734 -3.0446,5.734 -1.7144,0 -3.0446,8.5664 -3.0446,19.61 0,10.7854 -1.0275,20.1585 -2.2834,20.829 -1.2559,0.6704 -5.0235,-1.6463 -8.3725,-5.1484 z m -538.04595,-14.1726 c -8.1186,-17.6973 -13.7559,-18.9375 -25.053,-5.5116 -6.9745,8.2885 -9.8553,9.4802 -22.3142,9.2301 -9.0618,-0.182 -15.5556,-1.9965 -17.7157,-4.9504 -1.8751,-2.5648 -4.9712,-4.6633 -6.8798,-4.6633 -2.2116,0 -3.4702,-6.6255 -3.4702,-18.2673 0,-10.04708 -1.1648,-18.26739 -2.5885,-18.26739 -3.0993,0 -7.0841,-50.5604 -4.7029,-59.66705 1.2644,-4.8343 3.4559,-6.03812 9.0469,-4.96933 7.2436,1.38476 7.3782,1.98691 7.3782,33.02343 0,19.04558 1.2105,31.61295 3.0446,31.61295 1.6745,0 3.0634,3.08262 3.0862,6.85026 0.07,11.62343 3.5131,20.55073 7.925,20.55073 2.3163,0 4.2116,2.0551 4.2116,4.5669 0,2.5117 1.37,4.5668 3.0445,4.5668 1.6745,0 3.0446,-1.1988 3.0446,-2.664 0,-1.4652 3.9448,-3.4529 8.7662,-4.4172 6.3674,-1.2735 9.3492,-4.0766 10.8974,-10.2449 1.1721,-4.6704 3.3712,-9.25799 4.8868,-10.19462 1.5153,-0.93663 2.9678,-8.48565 3.2272,-16.77556 0.2588,-8.28994 1.5942,-16.514 2.9651,-18.2757 1.371,-1.76171 2.8927,-15.46223 3.3813,-30.4456 l 0.8884,-27.24252 9.1337,0 9.1337,0 -0.7998,31.96789 c -0.44,17.58233 -2.1525,32.42456 -3.8057,32.98272 -1.6532,0.55819 -3.0059,9.80604 -3.0059,20.55078 0,17.69291 0.5915,19.53591 6.269,19.53591 3.4477,0 5.4805,1.2754 4.5172,2.8342 -0.9636,1.5588 -0.3592,3.6948 1.3424,4.7465 1.7019,1.0518 3.0942,7.7052 3.0942,14.7853 0,10.6461 -1.0425,12.9515 -6.0267,13.3269 -4.4466,0.335 -7.8352,-3.4871 -12.9218,-14.5749 z m 454.12655,14.8578 c -0.1065,-0.5298 -0.5449,-23.8976 -0.9745,-51.92838 -0.7344,-47.95846 -0.4354,-51.07457 5.0673,-52.82111 3.2163,-1.02081 6.9286,-0.69239 8.2493,0.72981 1.321,1.42224 2.8957,25.19173 3.4994,52.82111 l 1.0976,50.23527 -8.3726,0.9633 c -4.6049,0.5299 -8.4596,0.5299 -8.5665,0 z m -276.86095,-5.5302 c 0,-1.6745 -1.8085,-3.0445 -4.0191,-3.0445 -2.2107,0 -7.7557,-4.6864 -12.3226,-10.414 -4.5665,-5.7277 -14.3983,-12.9205 -21.8477,-15.984 -7.4498,-3.0635 -13.5502,-7.2825 -13.5565,-9.37559 0,-2.0932 -2.4092,-3.81641 -5.3396,-3.82947 -7.422,-0.0332 -12.2821,-11.85259 -8.4401,-20.52703 2.0474,-4.62289 5.6632,-6.85026 11.1199,-6.85026 4.4472,0 8.8746,-2.05508 9.8385,-4.56684 0.9639,-2.51176 4.4545,-4.56684 7.7573,-4.56684 8.2434,0 9.1559,-2.33771 9.6317,-24.67141 0.6293,-29.55577 0.4957,-30.12632 -7.0731,-30.17223 -12.9689,-0.0789 -20.5508,-3.59934 -20.5508,-9.54278 0,-6.49338 9.6263,-11.77243 11.4564,-6.2826 0.6409,1.92276 5.9701,4.39732 11.8427,5.49902 5.8724,1.1017 11.3772,4.22771 12.2328,6.94665 0.8552,2.71895 2.6929,7.68365 4.0833,11.03267 1.3905,3.34901 3.2431,13.16537 4.1166,21.81415 1.2096,11.97474 0.541,16.127 -2.8041,17.41065 -2.4161,0.9271 -4.393,5.15377 -4.393,9.39262 0,5.75087 -1.5907,7.70694 -6.2687,7.70694 -3.4522,0 -5.4135,1.38387 -4.365,3.0803 1.058,1.71175 -2.2441,3.90989 -7.4318,4.94741 -5.1343,1.02693 -9.3355,3.15596 -9.3355,4.73125 0,5.91677 6.4709,14.64208 10.8587,14.64208 2.5054,0 5.3438,2.05512 6.3078,4.56682 0.9639,2.51179 3.661,4.56689 5.9935,4.56689 2.3327,0 4.241,2.055 4.241,4.5668 0,3.0446 3.0446,4.5668 9.1337,4.5668 6.0891,0 9.1337,1.5223 9.1337,4.5669 0,2.8416 2.8756,4.5668 7.6114,4.5668 9.0028,0 9.9423,6.0807 2.0438,13.2287 -6.3384,5.7362 -9.6552,6.4212 -9.6552,1.9941 z m 535.84245,-13.7005 c 0,-9.2098 -1.3701,-16.7451 -3.0446,-16.7451 -1.6745,0 -3.0445,-4.7952 -3.0445,-10.65589 0,-5.86082 1.37,-10.656 3.0445,-10.656 1.8794,0 3.0446,-15.73024 3.0446,-41.10156 0,-39.07185 -0.3014,-41.10156 -6.0891,-41.10156 -6.3431,0 -18.2674,9.9368 -18.2674,15.2228 0,1.6745 -4.1102,3.04456 -9.1337,3.04456 -6.287,0 -9.1337,-1.49625 -9.1337,-4.80103 0,-7.60495 16.915,-22.60002 25.4934,-22.60002 4.2319,0 8.7899,-1.74544 10.1292,-3.8788 4.1443,-6.60276 18.5834,-14.38856 26.6841,-14.38856 6.5464,0 7.7182,1.38698 7.7182,9.13368 0,8.11884 -1.0147,9.13368 -9.1337,9.13368 -8.1579,0 -9.1336,0.99491 -9.1336,9.31337 0,5.43363 1.2683,8.52952 3.0445,7.43172 1.9598,-1.2111 3.0446,10.11692 3.0446,31.78819 0,20.41685 -1.1984,33.66985 -3.0446,33.66985 -4.1141,0 -3.9247,35.73377 0.1949,37.10757 1.7826,0.5942 4.0182,6.8736 4.9678,13.9543 1.7119,12.7625 1.6443,12.8739 -7.8078,12.8739 -9.5273,0 -9.5346,-0.012 -9.5346,-16.7451 z m -491.18875,5.5817 c -3.7117,-3.7117 -2.0956,-27.5927 2.4615,-36.37681 2.9276,-5.64263 3.845,-12.69843 2.6354,-20.26386 -1.3981,-8.74333 -0.6339,-12.51472 3.0981,-15.2864 3.8827,-2.88378 5.1167,-10.09908 5.7064,-33.36396 0.6068,-23.93716 1.6426,-29.74883 5.3499,-30.0169 2.5288,-0.18298 10.4203,-0.77636 17.537,-1.31893 12.5707,-0.95837 12.9394,-0.72583 12.9394,8.1613 0,5.03129 2.0551,11.20289 4.5668,13.71465 2.5118,2.51176 4.5669,7.20906 4.5669,10.43849 0,3.22939 1.1898,5.87165 2.6438,5.87165 1.4541,0 3.4051,5.67764 4.3358,12.61702 0.931,6.93937 3.3368,13.63324 5.3463,14.87523 2.0097,1.24203 4.0048,9.55274 4.4334,18.46827 0.4287,8.91551 2.3133,16.72137 4.1884,17.34636 1.8749,0.62495 3.4087,2.4477 3.4087,4.0504 0,3.41499 12.6493,21.98999 15.984,23.47209 1.2559,0.5582 2.2834,3.0241 2.2834,5.4799 0,3.5119 -3.7369,4.2702 -17.5062,3.552 -15.5078,-0.8089 -17.6171,-1.695 -18.479,-7.7633 -0.6543,-4.6076 0.5916,-6.8503 3.8057,-6.8503 3.0969,0 4.7785,-2.7419 4.7785,-7.7911 0,-4.2851 -1.2584,-7.0132 -2.7968,-6.0625 -1.5381,0.9507 -3.7022,-2.3936 -4.8086,-7.43173 -1.1067,-5.03814 -3.1021,-9.16026 -4.4341,-9.16026 -1.3323,0 -3.2442,-4.11016 -4.2489,-9.13368 -1.4508,-7.2547 -3.4081,-9.13368 -9.5143,-9.13368 -8.9117,0 -10.5196,-7.9137 -2.7605,-13.58742 3.6626,-2.67802 4.382,-6.08537 2.8028,-13.27501 -1.1685,-5.31976 -3.3855,-9.67229 -4.927,-9.67229 -1.5414,0 -2.8028,-6.16524 -2.8028,-13.70052 0,-7.53529 -1.1837,-13.70052 -2.6305,-13.70052 -3.2887,0 -6.5032,22.65874 -6.5032,45.83962 0,10.04994 -1.4306,18.0656 -3.3377,18.70134 -1.9342,0.64477 -3.7808,11.5323 -4.3912,25.89249 -0.7748,18.22866 -2.4859,26.45306 -6.4724,31.10896 -5.3551,6.2544 -13.32,8.2385 -17.259,4.2994 z m 558.44705,-12.0059 c -5.2382,-6.0246 -5.9521,-8.6744 -3.223,-11.9629 1.9281,-2.3232 4.2633,-15.27659 5.1891,-28.78521 0.9259,-13.50862 2.8549,-25.28507 4.2865,-26.16995 1.4318,-0.88484 2.7398,-15.571 2.9066,-32.63588 0.1675,-17.06489 1.4005,-34.45219 2.741,-38.63846 1.3409,-4.18627 2.5742,-6.37369 2.7414,-4.86094 0.1674,1.51275 5.1645,-2.25489 11.1059,-8.37254 5.9415,-6.11765 13.6378,-11.123 17.1031,-11.123 8.1132,0 29.9408,21.74964 29.9408,29.83371 0,3.40647 1.3451,6.65026 2.9889,7.20845 2.7748,0.94226 6.0562,16.73504 11.8022,56.80361 1.2787,8.91523 3.8182,17.13554 5.6437,18.26736 4.7812,2.96458 4.0834,25.1656 -0.9496,30.19836 -2.3443,2.3443 -4.2624,6.90459 -4.2624,10.13399 0,3.7148 -2.1001,5.8716 -5.7176,5.8716 -3.1448,0 -7.813,3.0827 -10.3738,6.8503 -4.4849,6.5986 -4.7425,6.6333 -7.0082,0.9437 -1.4788,-3.7133 -1.0184,-6.3511 1.24,-7.1039 1.9759,-0.6586 3.5923,-2.6449 3.5923,-4.4138 0,-1.769 2.3976,-5.0539 5.328,-7.2999 3.6857,-2.82479 4.2773,-4.80509 1.9186,-6.42469 -1.8748,-1.28773 -4.1074,-11.7847 -4.9605,-23.32666 -1.1094,-15.0074 -2.9568,-21.77193 -6.4855,-23.74663 -6.3126,-3.53272 -6.6067,-17.68149 -0.3675,-17.68149 4.9822,0 6.6277,-16.63448 1.9327,-19.53603 -1.4486,-0.89541 -3.401,-6.35366 -4.3382,-12.12944 -2.3318,-14.36853 -11.8043,-23.13662 -24.9955,-23.13662 -10.3756,0 -10.656,0.31563 -10.656,11.99855 0,6.59921 -1.1682,12.72069 -2.5964,13.60328 -1.4279,0.88259 -3.3706,15.654 -4.3168,32.82538 -1.0026,18.19667 -3.0945,31.67877 -5.0147,32.31883 -2.0326,0.67748 -3.2949,11.4294 -3.2949,28.06585 0,14.83217 -1.1633,27.68677 -2.5857,28.56577 -1.4221,0.879 -5.6136,-1.8844 -9.3145,-6.1407 z m -703.17845,-0.8912 c -6.7635,-5.1015 -7.0065,-6.715 -6.0042,-39.85231 0.7304,-24.14681 2.1896,-34.916 4.8503,-35.80032 5.5195,-1.83432 4.7468,-18.01219 -0.9648,-20.20397 -3.1113,-1.19384 -4.435,-4.74927 -3.8057,-10.22053 0.864,-7.51191 2.319,-8.48784 13.9042,-9.32607 8.4982,-0.61488 12.9393,-2.37366 12.9393,-5.12433 0,-2.68152 3.286,-4.09475 9.1337,-3.92848 5.2114,0.14827 9.1337,1.91804 9.1337,4.1213 0,2.12391 -4.1102,4.76437 -9.1337,5.86771 -6.3509,1.39496 -9.1337,3.82001 -9.1337,7.96043 0,3.27488 -2.1704,9.26698 -4.8231,13.31572 -3.7269,5.68764 -4.7292,14.83554 -4.4092,40.23332 0.7767,61.65503 0.6436,62.25843 -11.6868,52.95753 z m 854.36735,-2.7097 c -11.426,-0.9992 -13.7447,-4.4166 -8.558,-12.6133 2.2454,-3.54829 3.6367,-3.64849 7.3913,-0.5324 5.7993,4.8129 38.5049,3.6998 43.7363,-1.48849 2.0633,-2.0462 5.1962,-4.20194 6.962,-4.79055 4.9575,-1.65249 0.1462,-36.00819 -5.0433,-36.00819 -2.2813,0 -4.1479,-2.05508 -4.1479,-4.56684 0,-2.51176 -2.0551,-4.56684 -4.5668,-4.56684 -2.5118,0 -4.5669,-2.05508 -4.5669,-4.56684 0,-2.51176 -2.0551,-4.56684 -4.5668,-4.56684 -2.5118,0 -4.5669,-1.43548 -4.5669,-3.18994 0,-1.75446 -3.4251,-6.36423 -7.6114,-10.24394 -4.1862,-3.87971 -7.6114,-8.60947 -7.6114,-10.51058 0,-1.90112 -2.055,-3.45658 -4.5668,-3.45658 -2.5118,0 -4.5669,-2.05508 -4.5669,-4.56684 0,-2.51177 -2.055,-4.56684 -4.5668,-4.56684 -2.5118,0 -4.5668,-2.05508 -4.5668,-4.56685 0,-2.51176 -1.3701,-4.56684 -3.0446,-4.56684 -1.6745,0 -3.0446,-4.79518 -3.0446,-10.65596 0,-5.86077 1.3701,-10.65596 3.0446,-10.65596 1.6745,0 3.0446,-2.05507 3.0446,-4.56684 0,-2.51176 1.9086,-4.56684 4.2413,-4.56684 2.3325,0 5.0297,-2.05508 5.9936,-4.56684 1.0857,-2.82916 5.7195,-4.56684 12.1782,-4.56684 6.4587,0 11.0926,-1.73768 12.1782,-4.56684 1.3278,-3.46026 6.9395,-4.56684 23.16,-4.56684 16.999,0 21.4072,0.94044 21.4072,4.56684 0,2.51176 1.3701,4.56684 3.0446,4.56684 1.6745,0 3.0446,4.66692 3.0446,10.37093 0,9.01236 -0.8312,10.15352 -6.3467,8.71122 -3.4906,-0.91285 -7.0287,-3.43664 -7.862,-5.60842 -1.75,-4.56032 -40.5889,-3.18406 -43.5098,1.54177 -0.9411,1.52301 -5.4653,3.71126 -10.0535,4.8628 -9.2798,2.32909 -10.6827,7.79164 -3.7752,14.6992 2.5118,2.51176 4.625,5.69226 4.6959,7.06773 0.07,1.3755 4.1811,5.86175 9.1337,9.96947 4.9526,4.10773 9.0046,9.24542 9.0046,11.41711 0,2.17168 2.0551,3.94852 4.5668,3.94852 2.5118,0 4.5669,1.55546 4.5669,3.45658 0,1.90111 3.4251,6.63087 7.6114,10.51058 4.1862,3.87971 7.6114,9.1626 7.6114,11.73973 0,2.57716 4.1101,8.61364 9.1337,13.4144 8.0379,7.68133 9.1336,10.78952 9.1336,25.90521 0,16.08725 -0.4618,17.17665 -7.2856,17.17665 -4.0069,0 -7.9914,1.8394 -8.8542,4.0877 -1.0528,2.7432 -6.417,3.9273 -16.3097,3.6001 -8.1077,-0.2682 -16.7962,0.314 -19.308,1.2938 -2.5118,0.9797 -9.7045,1.3321 -15.9839,0.7829 z m 276.6196,-5.4467 c -1.0163,-2.6487 -1.8481,-19.08933 -1.8481,-36.53473 0,-26.16482 -0.7995,-31.71886 -4.5668,-31.71886 -3.3828,0 -4.5669,-3.552 -4.5669,-13.70052 0,-7.53529 -1.37,-13.70052 -3.0445,-13.70052 -1.6745,0 -3.0446,-4.79519 -3.0446,-10.65597 0,-5.86077 1.2614,-10.65596 2.8028,-10.65596 1.5415,0 3.7053,-4.11015 4.8086,-9.13368 1.3299,-6.05353 3.8681,-9.13368 7.5277,-9.13368 6.8959,0 9.924,7.13356 5.1739,12.1878 -2.7331,2.90795 -2.6774,4.12264 0.2375,5.19156 2.7246,0.99898 3.8057,10.7659 3.8057,34.37817 0,21.22801 1.1904,33.37952 3.3402,34.09612 1.9034,0.63451 4.0523,12.52858 4.9958,27.65474 l 1.6559,26.54133 -7.7146,0 c -4.2432,0 -8.5467,-2.1671 -9.5629,-4.8158 z m -155.0558,-5.5243 c -0.7182,-1.8722 -1.494,-33.87779 -1.7239,-71.1236 l -0.4174,-67.7197 7.2945,0 c 9.1102,0 10.9528,6.15766 11.0079,36.7852 l 0.043,23.08471 16.7451,-1.38866 c 11.0655,-0.91763 16.8742,-0.22803 17.1257,2.03295 0.21,1.88187 0.5806,5.13413 0.825,7.22727 0.6117,5.23749 -6.469,7.90541 -21.6535,8.15854 l -12.8361,0.21403 -0.8644,32.72902 c -0.8263,31.29354 -1.1572,32.74384 -7.5511,33.06664 -3.6778,0.1857 -7.275,-1.1942 -7.9932,-3.0664 z m 256.4281,1.9676 c -1.9276,-14.91776 3.0713,-49.99916 6.796,-47.6971 1.8079,1.11735 2.7362,-12.19061 2.4412,-34.99951 -0.2619,-20.2413 -1.5872,-36.80237 -2.945,-36.80237 -1.3579,0 -3.3466,-3.99571 -4.4192,-8.87933 -1.0726,-4.88363 -3.7059,-9.55301 -5.8514,-10.37638 -5.1319,-1.96922 -14.8376,-22.58482 -12.451,-26.44639 2.4743,-4.00378 10.635,-3.86635 10.635,0.17902 0,1.75446 3.4251,6.36423 7.6114,10.24394 4.1862,3.87971 7.6114,9.29449 7.6114,12.03286 0,2.73837 2.055,4.97886 4.5668,4.97886 2.5118,0 4.5668,2.65924 4.5668,5.90943 0,3.25019 1.2647,6.69103 2.8105,7.64632 1.5457,0.9553 3.6845,5.71687 4.7528,10.58131 1.0684,4.86442 3.9141,9.6009 6.3236,10.5255 6.4243,2.46534 6.2502,38.40695 -0.1857,38.40695 -3.9823,0 -6.5961,11.82157 -4.899,22.15779 0.2131,1.30246 -1.6791,3.16159 -4.2064,4.13141 -2.882,1.10593 -4.5952,5.72304 -4.5952,12.38469 0,5.85776 -2.8238,14.58716 -6.2961,19.46391 -6.0109,8.44129 -11.6345,11.44839 -12.2659,6.55909 z m -166.086,-9.18319 c -1.9229,-1.22865 -4.4332,-10.45421 -5.5782,-20.50126 -2.0715,-18.17928 -8.4529,-36.65571 -13.3224,-38.57333 -1.4051,-0.55326 -3.4644,-6.82867 -4.5763,-13.94533 -2.3218,-14.86139 2.6804,-17.44305 13.2731,-6.85026 3.349,3.34901 8.0653,6.08912 10.4806,6.08912 3.4711,0 4.2688,4.56909 3.8057,21.80535 -0.4074,15.16876 0.5727,22.1957 3.2199,23.0879 2.0931,0.70543 3.8057,3.10932 3.8057,5.34199 0,2.23267 1.7126,4.68095 3.8057,5.44057 2.9481,1.06986 2.7763,3.30234 -0.7611,9.90444 -5.026,9.38061 -8.8436,11.59261 -14.1527,8.20081 z M 994.10365,916.9238 c 0,-8.1793 9.68105,-13.07523 26.05805,-13.1782 8.6867,-0.0545 17.9787,-2.04573 21.3119,-4.56684 7.8376,-5.92809 24.5398,-5.98843 26.8007,-0.0968 0.9639,2.51177 3.8504,4.56685 6.4149,4.56685 3.1505,0 4.6621,2.96135 4.6621,9.13368 0,5.02352 -1.258,9.13368 -2.7955,9.13368 -5.9454,0 -12.3131,-3.8107 -10.7077,-6.40813 2.8211,-4.56447 -30.8728,-3.0365 -40.1894,1.82253 -12.2252,6.37571 -31.55505,6.12657 -31.55505,-0.40675 z m 687.22495,-19.39893 c -2.8841,-3.36817 -5.2436,-8.89137 -5.2436,-12.27381 0,-3.38242 -2.0551,-6.93847 -4.5669,-7.90231 -6.6672,-2.55847 -5.9719,-14.03302 0.7612,-12.56052 2.9304,0.64085 4.9854,2.79637 4.5668,4.79007 -0.4186,1.9937 1.294,3.62488 3.8057,3.62488 2.5118,0 4.5669,2.62594 4.5669,5.83542 0,3.20945 1.2689,6.29207 2.8195,6.85026 1.5506,0.55816 3.7543,4.78249 4.8969,9.38738 2.5425,10.24659 -3.7195,11.45979 -11.6065,2.24863 z M 525.22285,796.32804 c 0,-2.09314 -2.1413,-7.87607 -4.7352,-12.85097 -3.3883,-6.49755 -4.5501,-16.62598 -4.1251,-35.95936 0.3252,-14.80277 -0.7018,-28.20748 -2.2825,-29.78825 -1.6221,-1.62205 -11.0253,-2.02217 -21.585,-0.91845 -17.4883,1.82786 -18.8358,2.52519 -20.6251,10.6713 -1.0528,4.79363 -3.1755,8.71567 -4.7169,8.71567 -1.5415,0 -2.8028,4.11015 -2.8028,9.13368 0,6.08912 1.5222,9.13368 4.5668,9.13368 2.5118,0 4.5668,2.05507 4.5668,4.56684 0,2.51176 -1.8952,4.56684 -4.2115,4.56684 -2.3166,0 -4.9298,2.74576 -5.8075,6.10169 -2.0825,7.96341 -9.3337,5.18629 -14.1694,-5.42656 -2.5839,-5.67089 -2.7081,-8.45459 -0.4122,-9.2199 1.8087,-0.60301 3.2887,-5.61003 3.2887,-11.12678 0,-5.51674 2.01,-14.84083 4.4667,-20.72024 2.4566,-5.87938 5.0473,-24.19987 5.7569,-40.71222 1.2769,-29.69905 1.3762,-30.03282 9.2342,-30.9858 7.0141,-0.85068 7.9433,0.10778 7.9433,8.19285 0,5.03592 -1.3701,10.00296 -3.0446,11.03787 -1.6745,1.03491 -3.0446,7.87923 -3.0446,15.20959 0,12.81123 0.3836,13.36492 9.8949,14.28197 5.4421,0.52473 15.0325,0.46761 21.3119,-0.12696 l 11.4171,-1.08091 0,-30.01869 c 0,-27.00507 0.6177,-30.34924 6.1521,-33.31117 9.8081,-5.24913 11.9612,-1.10783 10.7397,20.65588 -0.7371,13.13042 0.3894,24.07866 3.1596,30.70892 5.2032,12.45259 5.6395,34.40889 0.7807,39.26773 -2.6695,2.66953 -2.6272,4.6056 0.1735,7.98174 2.9106,3.50679 2.8668,5.79045 -0.204,10.709 -3.0808,4.93319 -3.1176,7.03826 -0.1735,9.98117 4.3552,4.35503 5.0229,22.66486 0.9191,25.20107 -1.5457,0.95529 -3.7095,5.83131 -4.8085,10.83565 -1.9565,8.90677 -7.5856,12.81565 -7.6227,5.29306 z m 282.3848,-2.23924 c -3.1274,-3.65235 -5.3113,-11.1961 -5.3113,-18.34634 0,-8.76447 -1.2705,-12.14344 -4.5668,-12.14344 -2.5118,0 -4.5668,2.09806 -4.5668,4.66238 0,2.56434 -1.9312,5.40357 -4.292,6.30942 -2.3607,0.90588 -5.0856,4.80931 -6.0559,8.67435 -1.8237,7.26608 -9.4223,10.68598 -23.9035,10.75789 l -8.3725,0.0414 0,-28.74364 c 0,-15.87829 1.3628,-29.58584 3.0446,-30.62529 1.7412,-1.0761 3.0445,-16.71679 3.0445,-36.53472 0,-37.26408 2.7916,-44.32499 12.511,-31.64461 4.6366,6.04912 5.5034,12.36426 5.0985,37.14704 -0.268,16.42242 -1.6003,30.54632 -2.9597,31.38644 -1.3594,0.84011 -2.4715,7.61188 -2.4715,15.04834 0,11.5626 0.8963,13.52083 6.1874,13.52083 6.4624,0 12.4331,-10.6703 9.8172,-17.54497 -0.8047,-2.11448 0.1309,-5.76412 2.0773,-8.11032 1.9473,-2.34623 4.3452,-13.86395 5.3286,-25.595 1.5156,-18.07897 2.7325,-21.5761 7.9847,-22.94959 9.5127,-2.48768 11.2286,0.17841 11.2286,17.4463 0,8.77607 1.5835,17.53989 3.5189,19.4752 1.9598,1.95993 3.2775,10.89751 2.9742,20.17551 -0.2983,9.16123 0.8799,17.53685 2.6202,18.61249 1.7406,1.07564 2.3763,3.23107 1.4127,4.78988 -0.9633,1.55879 -0.2801,2.83419 1.521,2.83419 1.8,0 2.9593,4.11015 2.5766,9.13368 -0.3827,5.02352 -1.9658,9.13368 -3.5183,9.13368 -1.5524,0 -4.3512,2.0906 -6.2197,4.64581 -2.9821,4.07843 -4.0456,3.88827 -8.708,-1.55708 z m -116.9401,-1.97434 c -4.1771,-1.70687 -1.9805,-70.80189 2.4019,-75.5539 2.899,-3.14357 3.7405,-42.21039 0.9688,-44.98207 -3.5077,-3.50779 -13.5243,1.61033 -13.5243,6.91046 0,3.03411 -2.063,7.57955 -4.5842,10.10096 -2.5215,2.52142 -4.7388,8.44199 -4.9276,13.15686 -0.1888,4.71483 -1.8228,11.73051 -3.6312,15.59037 -2.2597,4.82328 -2.3282,9.58373 -0.2192,15.2228 1.6879,4.51268 2.9873,13.00006 2.8874,18.86084 -0.1583,9.30792 -1.2403,10.77783 -8.5537,11.61932 -7.5228,0.8656 -8.3725,0.0152 -8.3725,-8.37254 0,-5.13475 -1.1895,-9.3359 -2.6436,-9.3359 -1.4541,0 -3.405,-5.67765 -4.3361,-12.61703 -0.9307,-6.93937 -2.9815,-13.44712 -4.5571,-14.46166 -1.5758,-1.01454 -3.8952,-5.14116 -5.1538,-9.17024 -1.2589,-4.02905 -5.5536,-10.35142 -9.5441,-14.04964 -3.9905,-3.69823 -7.2555,-8.96453 -7.2555,-11.7029 0,-2.73837 -1.9409,-4.97886 -4.3129,-4.97886 -2.3723,0 -5.008,-1.71256 -5.8574,-3.8057 -2.51,-6.18618 -7.9558,3.94249 -7.7752,14.46166 0.4445,25.89505 -1.0334,42.35906 -4.2993,47.905 -2.8463,4.83339 -2.8092,6.46899 0.1736,7.54859 4.5154,1.6352 5.152,10.00446 0.7611,10.00446 -3.8526,0 -4.0231,17.30327 -0.1948,19.6699 4.3032,2.65957 2.5653,13.42699 -2.4795,15.36294 -9.3255,3.57845 -11.0402,-4.37266 -10.0535,-46.61609 0.5359,-22.93311 2.2484,-42.99811 3.8057,-44.58889 3.9878,-4.0731 3.5238,-21.96114 -0.7471,-28.79989 -2.8677,-4.59178 -2.6083,-6.7016 1.3049,-10.61468 5.3508,-5.35109 20.541,-6.71119 20.541,-1.83922 0,1.67451 2.0551,3.04456 4.5669,3.04456 2.5117,0 4.5668,1.90851 4.5668,4.2411 0,2.33262 2.0551,5.02971 4.5669,5.99359 2.5117,0.96384 4.5668,3.85051 4.5668,6.41485 0,2.56431 2.0551,4.66238 4.5668,4.66238 2.5118,0 4.5669,1.42735 4.5669,3.17186 0,1.74453 2.8186,6.19711 6.2633,9.8946 l 6.2632,6.72276 5.8474,-7.61119 c 3.216,-4.18615 5.8778,-10.05177 5.915,-13.03471 0.036,-2.98296 2.1226,-6.21215 4.6344,-7.17599 2.5118,-0.96388 4.5668,-3.75885 4.5668,-6.21106 0,-4.83677 8.6049,-14.67959 12.8332,-14.67959 1.4364,0 3.5895,-1.52791 4.7842,-3.39535 3.5895,-5.61037 15.7477,-8.22351 17.0514,-3.66483 0.6314,2.20858 2.8844,9.79392 5.0064,16.85627 2.6738,8.89879 2.8948,14.03925 0.7201,16.74508 -1.726,2.14745 -4.1318,27.88034 -5.3457,57.18424 -2.3144,55.85583 -3.7186,60.83783 -15.7623,55.91648 z M 30.211112,787.48728 c -0.87573,-1.41697 -4.17065,-2.57634 -7.32201,-2.57634 -3.15137,0 -6.81065,-1.71257 -8.13172,-3.8057 -1.32106,-2.09314 -1.99985,-23.43648 -1.50836,-47.42965 0.72768,-35.52655 0.009,-44.97254 -3.8668699,-50.88928 -7.66523,-11.69863 -6.00132,-23.30206 4.6863399,-32.68034 7.9481,-6.97432 12.23469,-8.28936 27.02047,-8.28936 21.5385,0 37.0646,2.87787 34.85084,6.4598 -0.90889,1.47064 1.81827,2.67388 6.06035,2.67388 5.46172,0 9.06865,2.62173 12.35793,8.98249 5.970138,11.54494 6.010598,26.37676 0.0782,28.65324 -2.51176,0.96384 -4.56684,3.3509 -4.56684,5.30456 0,1.9537 -3.63685,6.92266 -8.0819,11.0422 -6.51491,6.03782 -7.25279,8.01499 -3.8057,10.19733 2.35192,1.489 7.01631,2.77182 10.36532,2.85071 3.34902,0.0788 8.74858,2.15497 11.999008,4.61345 3.25043,2.45851 9.75818,4.47002 14.46166,4.47002 5.57188,0 8.55177,1.59134 8.55177,4.56685 0,2.53712 2.70628,4.56684 6.08912,4.56684 3.38285,0 6.08913,2.02971 6.08913,4.56684 0,2.51176 1.37005,4.56684 3.04456,4.56684 1.6745,0 3.04456,2.05507 3.04456,4.56684 0,2.51176 -1.37006,4.56684 -3.04456,4.56684 -1.67451,0 -3.04456,4.11015 -3.04456,9.13368 0,6.08912 -1.52229,9.13368 -4.56685,9.13368 -2.51176,0 -4.56684,1.93466 -4.56684,4.29922 0,2.64222 -4.68764,5.09121 -12.16228,6.35403 -6.68927,1.13017 -12.94843,3.32682 -13.90929,4.88152 -2.165468,3.50381 -67.925988,2.77214 -70.121458,-0.78019 z M 110.07166,768.1882 c 2.52406,-2.52406 6.54638,-4.58918 8.93856,-4.58918 6.33396,0 5.42589,-14.14628 -1.34253,-20.9147 -3.79075,-3.79075 -12.4345,-6.41398 -25.878758,-7.85372 -11.10278,-1.18902 -20.18687,-3.42284 -20.18687,-4.96406 0,-1.54125 -5.48021,-2.80225 -12.17824,-2.80225 -11.50168,0 -12.17824,-0.50743 -12.17824,-9.13368 0,-6.17232 1.51165,-9.13368 4.66238,-9.13368 2.56434,0 5.45101,-2.05507 6.41486,-4.56684 0.96387,-2.51176 3.16134,-4.56684 4.88332,-4.56684 4.64085,0 17.62493,-14.92324 18.09074,-20.79261 1.10707,-13.94968 -0.12208,-14.98572 -20.3495,-17.15189 -26.87741,-2.87833 -38.05828,-0.20977 -38.05828,9.08341 0,3.9544 1.37005,8.03655 3.04456,9.07145 1.76721,1.09221 3.062,18.09233 3.08612,40.52011 0.0551,51.15349 0.24234,51.71563 17.7795,53.34724 25.00859,2.32675 58.315898,-0.5963 63.272378,-5.55276 z m 828.38449,16.68794 c -5.8532,-6.83595 -6.8144,-12.14344 -2.1991,-12.14344 1.9354,0 3.0445,-23.84905 3.0445,-65.45805 0,-56.1552 0.6491,-65.45804 4.5669,-65.45804 2.5117,0 4.5668,-1.37005 4.5668,-3.04456 0,-1.67451 2.0685,-3.04456 4.5967,-3.04456 2.5282,0 6.9428,-2.7401 9.8105,-6.08912 8.0602,-9.41375 18.1943,-7.93303 20.5976,3.00964 1.0991,5.00434 3.2632,9.88036 4.8089,10.83565 1.5458,0.95529 2.8102,5.50432 2.8102,10.10897 0,4.60466 2.0115,11.03154 4.47,14.28197 2.4585,3.25044 4.51345,12.14363 4.56675,19.76264 0.052,7.61901 1.5619,15.31776 3.3524,17.1083 4.7599,4.75974 5.5557,13.83357 1.8243,20.79647 -1.7948,3.34902 -3.5941,16.90328 -3.9987,30.12057 -0.7831,25.59297 -3.12975,30.94104 -12.29935,28.03075 -5.2385,-1.66267 -5.634,-4.51411 -4.5093,-32.5153 0.7611,-18.9498 0,-31.90988 -1.9483,-33.87386 -1.8538,-1.85393 -7.7219,-2.32928 -14.0646,-1.13937 -9.5651,1.79443 -10.8834,3.1313 -10.8834,11.03744 0,5.96649 -1.5378,8.99574 -4.5668,8.99574 -3.7211,0 -4.5669,5.07427 -4.5669,27.40104 0,15.07057 -1.0653,27.40104 -2.3677,27.40104 -1.3025,0 -4.7276,-2.75575 -7.6114,-6.12392 z m 38.7234,-80.74292 c 4.6034,-3.48185 5.8261,-7.90253 5.5305,-19.9968 -0.3014,-12.38302 -6.3376,-32.56026 -11.5955,-38.76781 -0.4729,-0.55819 -3.7141,1.8394 -7.2026,5.32798 -5.3605,5.36046 -6.343,10.08044 -6.343,30.47608 0,24.32752 0.3861,25.18846 12.1782,27.17428 0.8373,0.14096 4.182,-1.75519 7.4324,-4.21373 z m -662.77382,78.52955 c -5.57903,-1.30142 -7.5632,-9.93007 -2.28342,-9.93007 1.83639,0 3.04456,-12.68568 3.04456,-31.96788 l 0,-31.96789 -16.74508,0 c -9.20979,0 -16.74508,1.22154 -16.74508,2.7145 0,1.49299 -3.42513,3.57416 -7.6114,4.62484 -7.05747,1.77133 -7.6114,3.23552 -7.6114,20.1197 0,10.10986 1.35422,18.20937 3.04456,18.20937 5.23439,0 3.33529,6.64502 -3.62406,12.68083 -6.59756,5.72204 -6.74023,5.70033 -13.38705,-2.03504 -6.4222,-7.47397 -6.98282,-19.77947 -0.90116,-19.77947 1.4792,0 2.68947,-6.16524 2.68947,-13.70052 0,-7.53529 -1.37005,-13.70053 -3.04456,-13.70053 -4.60974,0 -3.64382,-8.96936 1.52228,-14.13546 3.29141,-3.29142 4.56684,-11.30835 4.56684,-28.70585 0,-14.06298 1.27086,-24.13901 3.04456,-24.13901 1.67451,0 3.04456,-2.15555 3.04456,-4.79007 0,-2.85308 2.07484,-4.39053 5.13088,-3.80198 4.31231,0.83049 5.16235,5.1162 5.32798,26.86316 0.18967,24.89101 0.47346,25.91407 7.46419,26.90252 3.9969,0.56513 8.34514,-0.71681 9.66277,-2.84879 1.91289,-3.0951 3.31473,-3.11355 6.956,-0.0916 3.64232,3.02285 5.8341,2.98924 10.88801,-0.16715 7.42471,-4.63681 8.60052,-19.23072 1.76085,-21.85535 -5.47889,-2.10245 -6.37266,-24.82461 -1.10453,-28.08049 6.57728,-4.06498 14.26656,11.69327 16.42385,33.65865 1.15605,11.77087 3.18662,22.77166 4.51237,24.44617 1.32575,1.67451 2.20116,18.42026 1.94535,37.21278 -0.40693,29.89508 -1.22662,34.87726 -6.55423,39.83776 -3.34902,3.11827 -8.48672,5.11027 -11.41711,4.4267 z m 732.21657,-8.74275 c -2.0932,-0.93213 -3.8057,-3.63567 -3.8057,-6.00787 0,-2.37223 -1.3701,-4.31313 -3.0446,-4.31313 -1.7759,0 -3.0445,-10.14853 -3.0445,-24.35648 0,-13.39607 1.1861,-24.35649 2.6356,-24.35649 1.4496,0 3.3326,-9.74585 4.1851,-21.65741 0.9746,-13.62121 3.1033,-22.64164 5.7369,-24.30987 2.3032,-1.45883 2.8859,-2.67343 1.2951,-2.69907 -1.6303,-0.0274 -1.4906,-1.44832 0.3209,-3.25972 4.1759,-4.17588 19.3165,-0.37597 19.3165,4.84798 0,2.21062 -2.1406,6.16009 -4.7571,8.77661 -2.6579,2.65772 -4.832,10.16272 -4.9264,17.00506 -0.091,6.73624 -1.3774,12.99449 -2.854,13.90722 -1.4769,0.91269 -2.6853,11.15329 -2.6853,22.7569 0,15.563 1.3756,22.70389 5.2437,27.22135 5.4467,6.36124 11.8512,8.57113 8.3302,2.87443 -1.1046,-1.78722 0.7325,-3.96618 4.0821,-4.84213 6.66,-1.74164 7.8949,-5.88858 13.9091,-46.71047 4.8664,-33.0293 6.5428,-36.53472 17.4737,-36.53472 9.3218,0 10.0488,1.87146 8.9345,22.99931 -0.6862,13.01489 -1.5131,17.61214 -3.8352,21.32172 -1.1082,1.77072 -2.9478,10.25046 -4.0879,18.84388 -1.1752,8.86037 -3.8904,16.32201 -6.2715,17.23578 -2.3096,0.88624 -4.1994,3.7094 -4.1994,6.27374 0,2.56431 -2.0551,4.66238 -4.5668,4.66238 -2.5118,0 -4.5669,2.05508 -4.5669,4.56684 0,2.51176 -1.8635,4.56684 -4.1418,4.56684 -2.2779,0 -10.1557,0.64846 -17.5062,1.44102 -7.3502,0.79256 -15.077,0.67839 -17.1701,-0.25361 z m -867.35963,-5.75416 c -0.96388,-2.51176 -3.66096,-4.56684 -5.99358,-4.56684 -2.33262,0 -4.2411,-2.05508 -4.2411,-4.56684 0,-2.51177 -2.05508,-4.56684 -4.56684,-4.56684 -2.58079,0 -4.56684,-2.72625 -4.56684,-6.26881 0,-3.44785 -1.25856,-5.49096 -2.79683,-4.54027 -1.53823,0.9507 -3.73628,-2.5489 -4.88454,-7.7769 -2.60106,-11.84248 1.08411,-48.39435 4.87912,-48.39435 1.54125,0 2.80225,-3.46812 2.80225,-7.70694 0,-4.23885 2.05507,-8.49557 4.56684,-9.45941 2.51176,-0.96388 4.56684,-3.16741 4.56684,-4.89681 0,-4.89584 9.90703,-11.22311 17.7404,-11.33018 3.9094,-0.0533 11.17796,3.99665 16.21816,9.03686 5.02353,5.02353 11.08336,9.13368 13.46631,9.13368 2.38294,0 4.33265,2.57235 4.33265,5.71635 0,3.14396 2.05508,7.42187 4.56684,9.50645 2.62258,2.17656 4.56684,8.81607 4.56684,15.59558 0,6.49301 1.37005,11.80546 3.04456,11.80546 1.67451,0 3.04456,4.79519 3.04456,10.65596 0,5.86078 -1.37005,10.65597 -3.04456,10.65597 -1.67451,0 -3.04456,4.11015 -3.04456,9.13368 0,6.08912 -1.52228,9.13368 -4.56684,9.13368 -2.51176,0 -4.56684,2.05507 -4.56684,4.56684 0,2.51176 -1.90851,4.56684 -4.2411,4.56684 -2.33262,0 -5.02971,2.05508 -5.99359,4.56684 -1.20342,3.13611 -6.10455,4.56684 -15.64407,4.56684 -9.53952,0 -14.44066,-1.43073 -15.64408,-4.56684 z m 32.38916,-18.26736 c 0,-2.51177 2.05508,-4.56684 4.56684,-4.56684 3.65347,0 4.56684,-4.56684 4.56684,-22.83421 0,-13.19308 -1.28548,-22.8342 -3.04456,-22.8342 -1.67451,0 -3.04456,-1.8953 -3.04456,-4.21175 0,-2.31645 -2.74011,-4.92829 -6.08912,-5.80409 -4.11466,-1.07601 -6.08912,-4.15281 -6.08912,-9.48877 0,-5.86671 -1.56515,-7.89643 -6.08912,-7.89643 -6.34319,0 -18.26736,9.93681 -18.26736,15.2228 0,1.67451 -1.92057,3.04456 -4.2679,3.04456 -2.94661,0 -4.91818,5.60282 -6.36834,18.09748 -2.41357,20.79535 0.18085,36.70461 5.98558,36.70461 2.19954,0 4.78778,2.05507 5.75166,4.56684 1.23643,3.22208 6.26306,4.56684 17.07079,4.56684 11.58662,0 15.31837,-1.11255 15.31837,-4.56684 z m 1150.84347,4.56684 c 0,-5.02353 -1.3701,-9.13368 -3.0446,-9.13368 -1.6745,0 -3.0445,-2.05508 -3.0445,-4.56684 0,-7.74217 -12.5159,-5.11663 -21.7699,4.56684 -12.265,12.83416 -24.6913,12.3863 -38.0524,-1.37137 -5.6114,-5.77778 -10.2026,-11.94301 -10.2026,-13.70052 0,-1.75753 -2.0551,-3.19548 -4.5669,-3.19548 -3.3873,0 -4.5668,-3.56259 -4.5668,-13.79605 0,-9.45461 1.4373,-14.34759 4.5668,-15.54854 2.5118,-0.96388 4.5669,-4.9838 4.5669,-8.93317 0,-8.23085 14.0518,-23.90963 24.3607,-27.18159 3.8346,-1.21709 9.9359,-5.65828 13.5581,-9.86934 4.9799,-5.78956 10.4394,-8.0267 22.3906,-9.17505 14.5661,-1.39965 15.8046,-1.01107 15.8046,4.95782 0,3.56208 -1.2215,6.47648 -2.7142,6.47648 -1.4931,0 -3.5744,3.42513 -4.625,7.6114 -1.838,7.32348 -7.8836,10.82554 -7.8836,4.56684 0,-1.67451 -4.8604,-3.04456 -10.8012,-3.04456 -7.6108,0 -12.8852,2.24838 -17.8554,7.6114 -3.8797,4.18627 -8.6094,7.6114 -10.5105,7.6114 -1.9013,0 -3.4568,2.74011 -3.4568,6.08912 0,3.38284 -2.0295,6.08912 -4.5668,6.08912 -3.2772,0 -4.5668,3.34664 -4.5668,11.85251 0,7.72697 1.5895,12.46248 4.5668,13.60498 2.5118,0.96385 4.5668,5.12826 4.5668,9.25424 0,8.34618 8.2584,12.61118 18.2674,9.4344 6.6527,-2.11141 7.1638,-4.4394 6.1856,-28.16219 -0.4052,-9.83094 0.608,-15.98394 2.6321,-15.98394 4.8585,0 15.5388,9.88201 15.5388,14.37715 0,2.13962 1.2613,3.89021 2.8028,3.89021 1.5415,0 3.708,4.12213 4.8147,9.16026 1.1064,5.03814 3.12,8.47524 4.4749,7.63804 1.3545,-0.83722 3.3566,3.24152 4.4487,9.06381 1.0963,5.84257 3.633,10.2644 5.6619,9.86818 2.2491,-0.43918 3.7159,3.12329 3.779,9.17698 0.079,7.50414 -1.209,9.89482 -5.328,9.89482 -4.0048,0 -5.4312,-2.39854 -5.4312,-9.13368 z m -118.7379,-13.70052 c 0,-2.51177 -2.055,-4.56684 -4.5668,-4.56684 -2.5118,0 -4.5668,-2.05508 -4.5668,-4.56684 0,-2.51177 -2.0551,-4.56685 -4.5669,-4.56685 -2.5117,0 -4.5668,-2.05507 -4.5668,-4.56684 0,-2.51176 -2.0551,-4.56684 -4.5669,-4.56684 -2.5117,0 -4.5668,-2.16048 -4.5668,-4.80102 0,-5.40696 -16.0348,-22.60002 -21.0775,-22.60002 -1.8033,0 -3.279,-2.05508 -3.279,-4.56684 0,-3.04456 -3.0445,-4.56684 -9.1335,-4.56684 -8.4155,0 -9.1337,0.84112 -9.1337,10.69728 0,5.88349 -1.7126,13.59779 -3.8057,17.14285 -3.0446,5.15648 -3.0446,6.72123 0,7.82382 5.2031,1.88425 4.7751,5.75812 -1.4377,13.01422 -6.03,7.04246 -19.1131,8.28196 -19.1131,1.81078 0,-2.3722 1.5415,-4.82688 3.4251,-5.45482 2.137,-0.7123 3.3207,-9.10981 3.1472,-22.32679 -0.5922,-45.10096 4.1643,-58.07429 16.697,-45.54154 2.5117,2.51176 7.8939,4.56684 11.9608,4.56684 4.0665,0 7.3936,1.37005 7.3936,3.04456 0,1.67451 2.0685,3.04456 4.5967,3.04456 2.5282,0 6.9428,2.74011 9.8105,6.08912 2.8673,3.34902 6.8493,6.08912 8.8487,6.08912 1.999,0 5.4543,4.11016 7.6778,9.13368 2.2237,5.02353 5.7636,9.13368 7.8665,9.13368 2.1032,0 3.8237,3.42513 3.8237,7.6114 0,4.18627 1.258,7.6114 2.7955,7.6114 1.5378,0 5.0083,0.8491 7.7128,1.88687 4.3497,1.66915 4.8198,-1.47719 4.073,-27.2672 -0.5782,-19.98148 0.3318,-30.32973 2.8926,-32.89066 6.6758,-6.67575 8.4048,0.36836 8.417,34.29219 0,24.40626 1.0945,34.01852 4.0493,35.84467 2.2761,1.40656 3.5992,6.25612 3.0326,11.11435 -0.9587,8.22199 -1.2504,8.37203 -6.3329,3.25786 -4.8436,-4.87373 -5.7628,-4.92615 -10.1122,-0.57679 -5.9625,5.96259 -7.3941,6.0047 -7.3941,0.21738 z M 349.60256,595.38707 c -13.19635,-24.63616 -15.80919,-32.21538 -11.65546,-33.8093 2.20541,-0.84629 48.33144,-1.66915 102.50235,-1.8285 60.9655,-0.17932 98.8791,-1.42044 99.5075,-3.25734 1.3369,-3.90955 9.6409,-3.84324 9.6409,0.077 0,4.42374 15.144,3.74124 16.8891,-0.76114 1.1296,-2.9145 25.6118,-4.02516 104.5484,-4.74288 86.871,-0.78988 103.3345,-0.25727 104.7335,3.38817 2.1013,5.47637 -35.6591,8.53107 -84.3009,6.81966 -26.2416,-0.92332 -34.1249,-0.23504 -37.6475,3.28761 -3.4455,3.4455 -12.4848,4.37524 -39.8773,4.10157 -60.6209,-0.60569 -181.2902,3.72751 -187.0091,6.71542 -2.9967,1.56563 -19.3768,2.58787 -36.4001,2.2716 -33.60375,-0.62428 -36.91379,1.02465 -28.33605,14.11598 2.73858,4.17991 4.15674,8.93119 3.15112,10.55842 -3.6075,5.83694 -10.54057,2.78297 -15.74646,-6.93627 z m 675.84084,-38.72684 c -4.2989,-5.02075 -9.1845,-5.4329 -51.69505,-4.36106 -25.8212,0.65102 -49.2726,2.40937 -52.1143,3.90742 -2.8415,1.49808 -35.6342,2.94759 -72.8722,3.2212 -60.054,0.44122 -67.5009,-0.0362 -65.8934,-4.22527 1.3225,-3.44674 6.1798,-4.72272 17.9778,-4.72272 10.2279,0 16.6303,-1.39785 17.431,-3.8057 0.9521,-2.86414 18.8854,-4.03459 72.4837,-4.73082 51.1163,-0.66399 71.8522,-1.95302 73.4637,-4.56684 1.5518,-2.51663 14.1813,-3.64172 40.87925,-3.64172 36.2985,0 38.6891,0.36806 39.5501,6.08912 2.5644,17.04321 -9.7743,27.85712 -19.2106,16.83639 z M 514.87375,536.43281 c -0.8905,-2.3212 -5.0874,-4.22037 -9.3264,-4.22037 -4.8207,0 -7.707,-1.71016 -7.707,-4.56684 0,-2.51176 -2.0551,-4.56684 -4.5668,-4.56684 -2.5118,0 -4.5669,-2.05508 -4.5669,-4.56684 0,-2.51176 -1.7125,-4.22433 -3.8057,-3.8057 -2.2782,0.45565 -4.1884,-3.21021 -4.7595,-9.13368 -0.5249,-5.44215 -2.2375,-9.89482 -3.8057,-9.89482 -1.5686,0 -2.8519,-2.05508 -2.8519,-4.56684 0,-2.51176 1.2148,-4.56684 2.699,-4.56684 1.4846,0 3.2885,-4.01602 4.0091,-8.92452 0.9895,-6.74248 -0.043,-9.27815 -4.2213,-10.37093 -8.5025,-2.22344 -6.5677,-7.39411 3.6024,-9.62787 12.233,-2.68677 11.6743,-8.21703 -0.7612,-7.5362 -15.3339,0.8395 -17.5062,0.26335 -17.5062,-4.64204 0,-3.28444 -3.3585,-4.56684 -11.9606,-4.56684 -13.0447,0 -21.5296,-6.08498 -21.5296,-15.44028 0,-4.92929 2.1991,-5.87165 13.7006,-5.87165 9.7422,0 13.7005,1.23692 13.7005,4.28114 0,2.85318 5.3069,5.01104 15.9102,6.46936 8.7507,1.20354 18.728,4.03444 22.1717,6.29091 6.6372,4.34879 28.8984,2.64098 28.8984,-2.21695 0,-1.45543 -1.3701,-2.64621 -3.0446,-2.64621 -1.6745,0 -3.0445,-4.76897 -3.0445,-10.59772 l 0,-10.59772 -14.1767,1.94316 -14.177,1.94316 2.0676,-10.37394 c 1.1371,-5.70566 3.4065,-10.83063 5.0433,-11.38879 1.6364,-0.55819 2.9754,-3.54292 2.9754,-6.63282 0,-3.08986 2.1531,-7.77087 4.7845,-10.40223 2.6315,-2.63138 3.743,-4.78431 2.4704,-4.78431 -1.2726,0 0.6847,-2.79347 4.3495,-6.2077 9.5099,-8.85998 9.1285,-27.58497 -0.7636,-37.47708 -6.7096,-6.7096 -10.0909,-7.46267 -35.0125,-7.79785 l -27.5858,-0.37101 0,8.18086 c 0,4.49949 -2.2673,10.68634 -5.0385,13.74859 -3.7871,4.18466 -4.0239,5.56771 -0.9529,5.56771 2.4451,0 0.8004,3.42952 -4.0949,8.53914 -4.4996,4.69651 -8.1811,10.30316 -8.1811,12.45916 0,4.98541 -10.8264,18.91777 -13.0063,16.73775 -0.9003,-0.90022 -2.5474,2.50929 -3.6605,7.57663 -1.2261,5.58235 -4.5477,10.01453 -8.4286,11.24621 -3.5225,1.11802 -7.8799,3.2606 -9.6832,4.76126 -15.05899,12.53315 -18.38396,14.79385 -21.75764,14.79385 -2.11627,0 -4.36194,1.54381 -4.99094,3.43071 -0.62901,1.88689 -8.62098,4.05849 -17.75984,4.82581 -9.1391,0.76729 -20.93369,3.33361 -26.21028,5.70295 -5.27659,2.36933 -12.46936,4.3079 -15.98394,4.3079 -3.51458,0 -6.39014,1.37005 -6.39014,3.04456 0,1.83748 -12.74556,3.04456 -32.14757,3.04456 -20.65643,0 -31.47497,-1.08828 -30.26591,-3.04456 2.41954,-3.91491 -27.4068,-5.57593 -31.24282,-1.73991 -0.64536,0.64536 -2.10005,10.5487 -3.23265,22.00742 -1.96454,19.87571 -2.44439,20.87838 -10.43179,21.79741 -8.32365,0.95776 -8.37254,0.85494 -8.37254,-17.60176 0,-13.69376 1.19831,-19.02497 4.56684,-20.3176 2.51176,-0.96388 4.56684,-4.90247 4.56684,-8.75244 0,-6.13832 -1.96752,-7.26788 -15.98394,-9.17643 -8.79117,-1.19706 -16.77982,-3.42924 -17.75259,-4.96041 -0.97274,-1.53117 -7.12625,-3.65338 -13.67449,-4.71602 -6.54824,-1.06261 -13.72801,-3.75419 -15.95505,-5.98125 -2.22706,-2.22704 -7.41947,-4.04918 -11.53867,-4.04918 -4.11923,0 -8.2781,-2.05507 -9.24194,-4.56684 -0.96388,-2.51176 -3.08554,-4.56684 -4.71487,-4.56684 -1.6293,0 -11.158648,-8.19626 -21.176288,-18.2139 -15.99861,-15.99861 -18.23417,-19.6846 -18.38077,-30.30606 -0.0977,-7.08935 1.79712,-14.05622 4.58024,-16.83934 4.67547,-4.67547 23.36788,-10.08821 23.36788,-6.76663 0,6.51131 -6.78648,17.13485 -12.00385,18.79078 -7.24632,2.29989 -8.43401,7.66675 -1.69667,7.66675 2.51176,0 4.56684,1.32439 4.56684,2.94309 0,5.4001 21.430198,24.45795 27.502518,24.45795 3.29321,0 5.98764,2.05508 5.98764,4.56684 0,3.17143 3.18955,4.56684 10.43849,4.56684 5.74119,0 12.49357,2.05508 15.00533,4.56684 2.51176,2.51177 7.33672,4.56684 10.72215,4.56684 3.38543,0 7.2852,2.019 8.66619,4.48668 1.63821,2.92735 8.03955,4.68235 18.41864,5.04971 10.99476,0.38915 15.90777,1.82433 15.90777,4.647 0,5.1496 5.05619,5.34594 7.16641,0.27827 1.17714,-2.82684 2.62328,-2.53901 5.62254,1.11909 3.09598,3.77611 10.05898,5.00276 29.8527,5.25899 14.58165,0.18877 26.26658,1.68903 26.85281,3.44776 1.31951,3.9585 30.12409,4.11314 31.48346,0.16897 0.55816,-1.61953 8.55013,-3.84632 17.75992,-4.94845 9.2098,-1.10213 17.43011,-3.0364 18.26737,-4.29837 0.83725,-1.26194 8.71505,-3.27387 17.50609,-4.47093 8.79117,-1.19703 15.98395,-3.30908 15.98395,-4.69341 0,-1.38433 4.11015,-3.41971 9.13368,-4.52306 5.02352,-1.10335 9.13368,-3.95232 9.13368,-6.33104 0,-2.37868 2.7401,-4.32492 6.08911,-4.32492 6.1646,0 19.0203,-10.41044 16.2619,-13.16882 -0.8238,-0.82392 1.4017,-2.41832 4.9459,-3.54313 3.9211,-1.2445 7.1395,-5.525 8.2212,-10.93396 0.9779,-4.88883 2.8677,-8.88881 4.2,-8.88881 1.332,0 3.3247,-4.11015 4.428,-9.13368 1.1034,-5.02352 3.2674,-9.13368 4.8089,-9.13368 2.351,0 4.3205,-17.83351 2.0414,-18.48492 -0.4187,-0.11965 -13.7767,-0.94902 -29.6845,-1.843 -15.9078,-0.894 -29.6534,-2.79347 -30.54606,-4.22107 -1.462,-2.33895 -48.88066,-3.34359 -140.71032,-2.9812 l -32.72902,0.12909 0,8.88467 c 0,15.30725 2.69477,18.51637 15.54854,18.51637 11.16702,0 11.8525,0.53377 11.8525,9.22922 0,5.13261 -1.90516,9.96031 -4.29207,10.87626 -2.36066,0.90588 -5.12686,4.97302 -6.14715,9.03815 -1.27893,5.09574 -3.99041,7.39109 -8.73101,7.39109 -3.78177,0 -10.00476,2.19151 -13.82888,4.87002 -6.37278,4.46369 -7.40199,4.46369 -12.33427,0 -7.37292,-6.67237 -30.43586,-6.50531 -35.38007,0.25635 -2.06163,2.81948 -7.93248,5.41597 -13.04631,5.77002 l -9.29784,0.64371 5.09924,-10.16856 c 2.80462,-5.5927 7.78866,-10.58678 11.07565,-11.09796 4.07737,-0.63412 6.65974,-4.28942 8.12694,-11.50354 1.18281,-5.81575 3.63113,-11.06761 5.44072,-11.67083 1.8096,-0.60319 3.29017,-3.72265 3.29017,-6.9321 0,-3.20949 2.05507,-5.83542 4.56684,-5.83542 5.80807,0 5.98664,-7.93738 0.22834,-10.14709 -2.38624,-0.91568 -10.26404,-0.92829 -17.50622,-0.0274 -7.24219,0.90024 -16.59276,1.84537 -20.77904,2.10026 -4.18627,0.25483 -8.29642,1.35404 -9.13368,2.44256 -1.65179,2.14748 -8.39899,3.5231 -14.46166,2.94844 -5.232588,-0.49596 -4.830678,-6.44984 0.43541,-6.44984 2.33262,0 5.0297,-2.05508 5.99358,-4.56684 1.0367,-2.70165 5.61067,-4.56684 11.19914,-4.56684 5.19569,0 11.5018,-2.05508 14.01356,-4.56684 3.11221,-3.11221 10.80094,-4.56684 24.13901,-4.56684 15.36778,0 19.57217,-0.98102 19.57217,-4.56684 0,-2.51176 1.22154,-4.56684 2.7145,-4.56684 1.49299,0 3.57416,-3.42513 4.62484,-7.6114 1.0507,-4.18627 3.2543,-7.6114 4.8969,-7.6114 1.6426,0 2.98656,-2.7831 2.98656,-6.18469 0,-3.40157 2.05508,-6.97326 4.56684,-7.93711 2.51176,-0.96388 4.56684,-5.07403 4.56684,-9.13368 0,-4.05968 2.05508,-8.16983 4.56684,-9.13368 2.51176,-0.96388 4.56684,-3.66096 4.56684,-5.99358 0,-2.33262 2.05508,-4.2411 4.56684,-4.2411 2.51176,0 4.56684,-2.05508 4.56684,-4.56684 0,-2.51177 1.02754,-4.26218 2.28342,-3.8898 3.2656,0.9683 19.29928,-9.99958 27.69442,-18.94441 3.929,-4.18627 8.38167,-7.78265 9.89482,-7.99197 1.51314,-0.20946 4.80626,-0.55182 7.31802,-0.76114 2.51177,-0.20946 4.56684,-2.43564 4.56684,-4.94741 0,-2.51176 2.05508,-4.56684 4.56684,-4.56684 6.01478,0 5.868,10.86981 -0.21433,15.8639 -2.62959,2.15917 -7.04423,6.32333 -9.81031,9.25372 -2.76607,2.93039 -8.14986,5.32798 -11.96399,5.32798 -4.13455,0 -6.93478,1.84409 -6.93478,4.56684 0,2.51177 -1.37005,4.56684 -3.04456,4.56684 -3.02839,0 -15.2228,10.89088 -15.2228,13.59555 0,0.77953 -4.11016,5.62193 -9.13368,10.76094 -5.02353,5.139 -9.30494,12.03648 -9.51425,15.32777 -0.44837,7.05029 -0.88378,8.76544 -4.06422,16.01028 -1.31811,3.00261 -1.42698,6.42774 -0.24204,7.6114 1.18507,1.18366 33.33964,2.15211 71.45467,2.15211 45.77085,0 70.75138,1.13684 73.5743,3.34835 2.3848,1.86823 18.40558,3.56664 36.24214,3.84217 17.58234,0.27157 35.81804,1.33793 40.52374,2.36958 7.0064,1.5361 8.8624,0.70272 10.2498,-4.60334 0.9319,-3.56348 2.9045,-6.47904 4.3838,-6.47904 1.4791,0 2.6893,-2.05508 2.6893,-4.56684 0,-2.51176 -1.212,-4.56684 -2.6935,-4.56684 -1.4818,0 -3.6234,-7.43942 -4.7596,-16.53202 -1.1359,-9.09261 -4.0337,-18.16571 -6.4398,-20.16242 -2.4058,-1.99675 -4.3745,-6.73929 -4.3745,-10.53899 0,-4.6344 -2.2648,-7.47704 -6.8807,-8.63556 -3.7847,-0.94984 -9.3422,-5.89354 -12.3505,-10.98602 -3.0081,-5.09245 -6.8597,-9.259 -8.5592,-9.259 -1.6995,0 -5.145,-2.05507 -7.6568,-4.56684 -2.5117,-2.51176 -7.20918,-4.56684 -10.43855,-4.56684 -3.36545,0 -5.87174,-2.09015 -5.87174,-4.8969 0,-3.81745 1.83892,-4.43534 8.3421,-2.80315 4.58815,1.15154 9.25759,3.57483 10.37619,5.38506 1.1189,1.81027 4.7044,3.48809 7.9679,3.72852 6.508,0.47946 34.1621,26.41777 40.0153,37.53237 2.0209,3.83794 3.8279,13.7081 4.0151,21.93374 0.1857,8.22564 1.3226,14.34889 2.5227,13.60723 1.1999,-0.74168 3.0824,5.85929 4.183,14.66882 l 2.0015,16.01727 12.0193,-1.14624 c 8.9577,-0.85424 12.4973,0.098 13.8938,3.73787 1.3996,3.64704 6.0331,4.88414 18.2936,4.88414 12.5652,0 16.4193,1.07196 16.4193,4.56684 0,2.51176 1.37,4.56684 3.0445,4.56684 1.6746,0 3.0446,2.09807 3.0446,4.66238 0,2.56434 2.3976,5.547 5.328,6.62819 2.9304,1.08118 6.1938,3.255 7.2521,4.83065 2.0922,3.11544 14.8209,-8.11515 14.8209,-13.07666 0,-1.67451 2.0551,-3.04456 4.5669,-3.04456 3.3639,0 4.5668,3.51056 4.5668,13.32771 0,8.13266 -1.7798,14.80512 -4.5668,17.11789 -2.5118,2.08458 -4.5669,5.72566 -4.5669,8.09132 0,2.36562 -2.2054,7.66751 -4.9014,11.78192 -8.1792,12.48319 -3.6044,17.71048 13.3093,15.20685 7.9344,-1.17456 14.883,-3.38281 15.4414,-4.90728 0.5581,-1.52447 2.6512,-2.77177 4.6512,-2.77177 5.5326,0 13.2478,-10.3937 15.5726,-20.97872 1.1435,-5.20678 3.3405,-9.46688 4.882,-9.46688 1.5414,0 2.8025,-4.02929 2.8025,-8.95399 0,-10.03073 3.2016,-13.27492 10.3813,-10.51981 5.3676,2.05968 7.0001,22.51836 1.7969,22.51836 -1.6745,0 -3.0446,3.34427 -3.0446,7.43171 0,4.08745 -1.37,8.27847 -3.0445,9.31337 -1.6745,1.03491 -3.0446,5.22593 -3.0446,9.31337 0,4.08744 -1.7506,7.43171 -3.89,7.43171 -4.3653,0 -14.3773,10.62494 -14.3773,15.2576 0,1.65536 -1.2724,3.00976 -2.8278,3.00976 -1.5552,0 -7.6531,4.45267 -13.5507,9.89482 -5.898,5.44215 -14.1524,12.63493 -18.3435,15.98394 -4.1912,3.34902 -7.6836,9.02913 -7.7609,12.62251 -0.1279,5.992 1.9406,6.71593 24.9766,8.73642 13.8147,1.21168 25.9434,3.50584 26.9523,5.09815 1.009,1.59234 8.4977,3.34436 16.6419,3.89341 8.1442,0.54906 15.3105,2.50763 15.9255,4.35242 1.4793,4.43796 13.6713,4.29849 18.1775,-0.20795 2.6829,-2.68299 6.4024,-2.71632 15.0706,-0.13518 6.3296,1.88483 16.5085,4.20902 22.6199,5.16489 12.2144,1.91052 15.4971,4.88219 24.1582,21.8709 7.0476,13.82309 7.6233,25.37431 1.2651,25.37431 -2.5118,0 -4.5669,2.05508 -4.5669,4.56684 0,2.78714 -2.839,4.56684 -7.2856,4.56684 -4.007,0 -8.0742,2.05508 -9.0381,4.56684 -1.3451,3.50529 -7.1328,4.56684 -24.8996,4.56684 -16.409,0 -24.4631,1.31577 -27.6672,4.51983 -6.431,6.43096 -118.6297,6.15354 -121.1062,-0.29958 z m 18.4141,-8.78721 c 4.6086,-4.60858 6.6907,-4.88384 38.3934,-5.07565 9.6343,-0.0581 18.2778,-1.33768 19.2082,-2.84313 0.9304,-1.50544 18.394,-2.79685 38.8081,-2.86977 44.3918,-0.15862 59.7887,-2.75049 68.5836,-11.54537 8.4255,-8.42533 8.2851,-9.63396 -1.1174,-9.63396 -4.2389,0 -8.4955,-2.05508 -9.4594,-4.56684 -1.2501,-3.2575 -6.3382,-4.56684 -17.7471,-4.56684 -21.4419,0 -44.4396,-3.3116 -42.6872,-6.14685 0.7798,-1.2616 -6.4447,-3.27384 -16.0542,-4.47166 -9.6093,-1.19779 -18.4994,-3.7513 -19.7553,-5.67446 -1.6373,-2.50777 -3.1078,-2.21321 -5.1992,1.04152 -2.555,3.97659 -4.0258,3.88239 -11.8868,-0.76114 -4.934,-2.91462 -14.5823,-5.29933 -21.4404,-5.29933 -6.8585,0 -12.4699,-1.37005 -12.4699,-3.04456 0,-1.67451 -7.5353,-3.04456 -16.7451,-3.04456 -12.4827,0 -16.7451,1.10712 -16.7451,4.34936 0,2.39218 -2.1918,6.54142 -4.871,9.22061 -7.1538,7.15365 -7.479,34.6122 -0.457,38.54827 2.9304,1.64254 5.328,4.97341 5.328,7.40196 0,2.87647 3.1837,4.41556 9.1337,4.41556 6.0891,0 9.1337,1.52228 9.1337,4.56684 0,2.51176 0.783,4.56684 1.7399,4.56684 0.9569,0 3.7948,-2.05508 6.3065,-4.56684 z m 25.4437,-121.78241 c 0,-2.51176 1.3701,-4.56684 3.0446,-4.56684 5.2646,0 3.3067,-5.59565 -2.6156,-7.47527 -8.7811,-2.787 -15.6518,1.30566 -15.6518,9.32329 0,5.74168 1.6133,7.28566 7.6114,7.28566 4.7361,0 7.6114,-1.72526 7.6114,-4.56684 z m -36.5347,-21.13223 c 0,-4.08744 -1.3701,-8.27846 -3.0446,-9.31337 -1.7762,-1.09778 -3.0445,1.99809 -3.0445,7.43171 0,5.12235 1.37,9.31337 3.0445,9.31337 1.6745,0 3.0446,-3.34426 3.0446,-7.43171 z M 184.25079,361.71707 c 0,-1.6745 -1.37006,-3.04456 -3.04456,-3.04456 -1.67451,0 -3.04456,1.37006 -3.04456,3.04456 0,1.67451 1.37005,3.04456 3.04456,3.04456 1.6745,0 3.04456,-1.37005 3.04456,-3.04456 z m 26.30003,-1.52228 c 0.96388,-2.51176 3.66097,-4.56684 5.99359,-4.56684 2.33259,0 4.2411,-2.05507 4.2411,-4.56684 0,-2.9636 -2.93928,-4.55046 -8.37254,-4.52022 -10.58746,0.0591 -14.5488,2.75173 -16.72712,11.37048 -1.44163,5.70408 -0.48947,6.85026 5.69059,6.85026 4.08205,0 8.21054,-2.05507 9.17438,-4.56684 z m 329.91343,-7.6114 c 0,-1.6745 -1.3701,-3.04456 -3.0446,-3.04456 -1.6745,0 -3.0446,1.37006 -3.0446,3.04456 0,1.67451 1.3701,3.04456 3.0446,3.04456 1.6745,0 3.0446,-1.37005 3.0446,-3.04456 z M 183.14978,341.92743 c 0.96388,-2.51176 3.51245,-4.56684 5.66352,-4.56684 4.84186,0 7.99873,-11.57822 5.62836,-20.64257 -2.5482,-9.74439 -7.14631,-8.31348 -7.14631,2.22393 0,4.94031 -1.95778,10.07801 -4.35059,11.4171 -2.39281,1.33909 -4.52811,3.80475 -4.74513,5.47926 -0.21707,1.67451 -2.3694,2.85428 -4.78309,2.6217 -2.4137,-0.2326 -4.38855,1.47999 -4.38855,3.8057 0,5.69708 11.91534,5.41165 14.12179,-0.33828 z m -12.90674,142.58391 c 0.44688,-11.81378 7.91863,-13.00792 7.91863,-1.26556 0,5.8542 -1.54801,9.38738 -4.11293,9.38738 -2.50315,0 -3.9927,-3.17889 -3.8057,-8.12182 z M 908.09485,457.1971 c -2.9304,-0.84983 -5.328,-2.81473 -5.328,-4.36645 0,-1.55175 -5.4802,-2.82133 -12.1782,-2.82133 -11.8881,0 -12.1783,-0.25362 -12.1783,-10.65596 0,-7.44225 1.3774,-10.65596 4.5669,-10.65596 2.5117,0 4.5668,-2.05508 4.5668,-4.56685 0,-2.51176 2.0551,-4.56684 4.5669,-4.56684 2.5117,0 4.5668,-1.16783 4.5668,-2.59518 0,-1.42735 13.291,-3.52944 29.5353,-4.6713 16.2445,-1.14186 30.1874,-2.72829 30.9845,-3.52539 0.797,-0.79709 -1.1908,-3.44662 -4.4177,-5.88784 -3.2266,-2.44119 -4.4968,-4.50312 -2.8223,-4.582 8.5211,-0.40146 -7.7167,-6.05274 -17.5062,-6.09271 -6.2794,-0.0244 -11.4171,-1.41667 -11.4171,-3.09118 0,-1.67451 -6.5078,-3.05646 -14.4617,-3.07101 -7.9539,-0.0152 -21.6544,-0.89042 -30.4456,-1.94636 -14.226,-1.70876 -15.9839,-2.7103 -15.9839,-9.10722 0,-5.15761 1.7195,-7.18733 6.0891,-7.18733 3.349,0 6.0891,1.37005 6.0891,3.04456 0,1.80728 11.4448,3.06146 28.1622,3.08615 30.1585,0.0445 42.8053,2.05958 40.1267,6.39367 -0.9173,1.48413 2.5233,2.69842 7.6455,2.69842 5.9265,0 9.3133,1.54079 9.3133,4.23678 0,2.33025 3.4251,5.09644 7.6114,6.14712 4.1863,1.05071 7.6114,3.2543 7.6114,4.8969 0,1.6426 1.9872,2.98656 4.4158,2.98656 2.4284,0 5.511,1.85609 6.8503,4.12465 1.7948,3.041 14.4178,4.59598 48.04615,5.91875 27.7466,1.09138 46.0313,3.0533 46.6831,5.00903 0.5895,1.76822 3.0126,3.21493 5.385,3.21493 2.372,0 4.3129,2.05508 4.3129,4.56684 0,3.72113 -5.0741,4.56685 -27.4011,4.56685 -16.2375,0 -27.401,-1.24039 -27.401,-3.04457 0,-1.77598 -10.1484,-3.04456 -24.3565,-3.04456 -19.03515,0 -24.35645,0.94656 -24.35645,4.33266 0,2.38294 -4.2155,8.54818 -9.3678,13.70052 -7.2077,7.20784 -12.0634,9.36787 -21.058,9.36787 -6.4298,0 -12.1472,1.35123 -12.7052,3.00272 -1.1643,3.44413 -25.7741,6.49633 -33.7441,4.18506 z m 51.7575,-23.84835 c 3.7677,-3.30252 6.8503,-7.07017 6.8503,-8.37254 0,-3.68376 -41.9605,-2.83573 -43.1965,0.87303 -0.5943,1.78253 -6.8737,4.018 -13.9545,4.96772 -8.4907,1.13881 -12.8739,3.24522 -12.8739,6.1866 0,7.40903 54.125,4.27776 63.1746,-3.65481 z m 153.56025,8.11117 c -4.5963,-4.70217 -10.7153,-9.45437 -13.5979,-10.56042 -6.3056,-2.41976 -7.0259,-11.33579 -0.9155,-11.33579 2.3787,0 5.2275,-4.11015 6.3309,-9.13368 1.1033,-5.02352 3.2674,-9.13368 4.8089,-9.13368 1.5414,0 2.8025,-4.11015 2.8025,-9.13368 0,-6.49505 1.4659,-9.13368 5.0743,-9.13368 2.791,0 4.1729,-0.90149 3.0711,-2.00329 -1.1018,-1.10182 -0.4774,-3.84193 1.3877,-6.08912 1.8648,-2.24722 2.2761,-4.08583 0.914,-4.08583 -1.3625,0 0.1826,-1.97774 3.4327,-4.39497 5.4894,-4.08218 5.5767,-5.00303 1.2264,-12.93938 -2.576,-4.69943 -6.6862,-8.54441 -9.1337,-8.54441 -2.4475,0 -6.2605,-1.71256 -8.4733,-3.8057 -2.2128,-2.09313 -6.6655,-3.8057 -9.8949,-3.8057 -3.2293,0 -5.8717,-2.05508 -5.8717,-4.56684 0,-2.51176 -1.261,-4.56684 -2.8025,-4.56684 -1.5415,0 -3.7055,-4.11015 -4.8089,-9.13368 -1.1033,-5.02352 -3.2671,-9.13368 -4.8086,-9.13368 -1.5414,0 -2.8028,-2.05508 -2.8028,-4.56684 0,-2.51176 1.3701,-4.56684 3.0446,-4.56684 1.6745,0 3.0445,-4.11016 3.0445,-9.13368 0,-5.02352 -1.37,-9.13368 -3.0445,-9.13368 -4.8534,0 -3.5211,-23.84332 1.7847,-31.94112 2.6561,-4.05371 3.9393,-8.81038 2.8518,-10.57035 -1.0878,-1.75997 0.04,-3.97443 2.5072,-4.92101 2.4667,-0.94659 5.3198,-5.04706 6.34,-9.11219 1.0206,-4.0651 3.1992,-7.39109 4.8418,-7.39109 1.6425,0 2.9864,-1.90657 2.9864,-4.23678 0,-2.33025 3.7539,-5.17898 8.3421,-6.33053 4.5881,-1.15154 9.0408,-3.22145 9.8948,-4.59981 0.854,-1.37836 6.9236,-2.96802 13.488,-3.5326 14.318,-1.23144 18.3057,4.88789 4.9289,7.56329 -5.089,1.01777 -9.2683,3.59733 -9.2875,5.73233 -0.03,2.135 -5.5861,6.54203 -12.3712,9.79341 -8.9632,4.29529 -12.8036,8.24923 -14.0461,14.46166 -0.9405,4.70253 -3.5938,8.55007 -5.8964,8.55007 -3.2778,0 -4.1863,6.72945 -4.1863,31.01834 0,27.15602 0.8531,32.2713 6.8503,41.08077 3.7676,5.53431 8.4651,10.07177 10.4385,10.08322 1.9735,0.0122 5.7969,2.22944 8.4965,4.92887 3.5302,3.53038 10.4282,4.87626 24.5739,4.79466 l 19.6657,-0.11356 0,8.90589 c 0,5.98959 -1.5354,8.90588 -4.6886,8.90588 -6.3516,0 -28.8016,23.9999 -28.8016,30.78988 0,2.99323 -2.2682,6.7117 -5.0405,8.26324 -4.4427,2.48622 -6.9252,20.02085 -3.3418,23.6042 1.3722,1.37234 13.9149,3.78223 21.3217,4.09676 7.8114,0.33168 6.6286,12.5944 -2.0039,20.77702 -9.6625,9.15905 -18.532,8.6327 -28.6317,-1.69913 z M 617.77255,382.49823 c -2.2989,-3.7196 1.5479,-8.60292 6.7766,-8.60292 2.5118,0 3.7202,-1.37005 2.685,-3.04456 -1.1898,-1.92523 6.4234,-3.04456 20.7076,-3.04456 12.4239,0 28.6858,-0.8357 36.1377,-1.85709 13.1053,-1.79629 13.5099,-2.17016 12.3475,-11.4171 -0.6609,-5.25801 -3.1417,-13.87722 -5.5128,-19.15381 -2.3711,-5.27659 -4.3111,-11.09931 -4.3111,-12.93938 0,-1.84007 -1.37,-3.34558 -3.0445,-3.34558 -1.6745,0 -3.0446,-2.05508 -3.0446,-4.56684 0,-3.04456 3.0446,-4.56684 9.1337,-4.56684 7.1913,0 9.1337,1.33318 9.1337,6.26881 0,3.44784 1.37,5.42206 3.0445,4.38715 1.7525,-1.08304 3.0528,1.7481 3.0635,6.67057 0,4.70373 2.1443,12.62878 4.7425,17.61123 2.5979,4.98242 4.1278,11.33767 3.3992,14.12274 -1.0993,4.20484 1.7522,5.2863 16.8115,6.37558 11.1361,0.80553 19.2389,2.99268 20.9941,5.6669 2.4335,3.70788 3.2951,3.61654 5.798,-0.61479 2.3182,-3.91877 8.2624,-5.02863 28.1065,-5.24769 13.8418,-0.15284 33.0444,0.50558 42.6729,1.46309 15.9696,1.58811 17.5062,2.3828 17.5062,9.0534 l 0,7.31245 -76.8752,0.30111 c -42.2813,0.16562 -93.0399,0.61177 -112.797,0.99152 -19.757,0.37975 -36.6209,-0.44076 -37.4755,-1.82336 z M 1228.5346,222.04788 c 0,-1.4652 -4.136,-3.49126 -9.1915,-4.50236 -5.0555,-1.01107 -12.1216,-4.56769 -15.702,-7.90362 -6.1814,-5.75878 -6.2261,-6.17431 -0.8857,-8.22363 3.3637,-1.2908 6.1059,-0.71444 6.822,1.43393 0.6585,1.97577 5.0485,3.5923 9.7554,3.5923 5.3063,0 12.2732,3.47038 18.3355,9.13369 l 9.7779,9.13368 -9.4558,0 c -5.2007,0 -9.4558,-1.1988 -9.4558,-2.66399 z M 290.81039,187.15566 c 0,-5.3193 6.45173,-8.1122 18.73961,-8.1122 7.02952,0 8.87729,1.21585 8.09728,5.32798 -1.33611,7.04365 -26.83689,9.68926 -26.83689,2.78422 z m 37.2115,-0.74256 c -7.43832,-5.43902 -2.77834,-8.4437 12.2546,-7.90152 19.00411,0.68539 30.1746,3.65216 28.83926,7.65947 -1.61697,4.8534 -34.52242,5.04721 -41.09386,0.24205 z"
       id="path3191"
       style="fill:#000000" />
  </g>
</svg>
