<?xml version="1.0" encoding="UTF-8" standalone="no"?>
<!-- Created with Inkscape (http://www.inkscape.org/) -->
<svg xmlns:dc="http://purl.org/dc/elements/1.1/" xmlns:cc="http://creativecommons.org/ns#" xmlns:rdf="http://www.w3.org/1999/02/22-rdf-syntax-ns#" xmlns:svg="http://www.w3.org/2000/svg" xmlns="http://www.w3.org/2000/svg" xmlns:sodipodi="http://sodipodi.sourceforge.net/DTD/sodipodi-0.dtd" xmlns:inkscape="http://www.inkscape.org/namespaces/inkscape" width="418.93439mm" height="100.34265mm" viewBox="0 0 1484.4132 355.54483" id="svg2" version="1.1" inkscape:version="0.91 r13725" sodipodi:docname="Boris Pasternak signature.svg">
  <defs id="defs4"/>
  <sodipodi:namedview id="base" pagecolor="#ffffff" bordercolor="#666666" borderopacity="1.0" inkscape:pageopacity="0.0" inkscape:pageshadow="2" inkscape:zoom="1" inkscape:cx="985.88867" inkscape:cy="221.56791" inkscape:document-units="px" inkscape:current-layer="layer1" showgrid="false" fit-margin-top="0" fit-margin-left="0" fit-margin-right="0" fit-margin-bottom="0" inkscape:window-width="1920" inkscape:window-height="1017" inkscape:window-x="-8" inkscape:window-y="-8" inkscape:window-maximized="1"/>
  <metadata id="metadata7">
    <rdf:RDF>
      <cc:Work rdf:about="">
        <dc:format>image/svg+xml</dc:format>
        <dc:type rdf:resource="http://purl.org/dc/dcmitype/StillImage"/>
        <dc:title/>
      </cc:Work>
    </rdf:RDF>
  </metadata>
  <g inkscape:label="Layer 1" inkscape:groupmode="layer" id="layer1" transform="translate(206.31411,-139.27767)">
    <path style="fill:#0e0e0e" d="m 268.65891,493.15535 c -23.57247,-22.21298 5.41042,-49.76224 18.09633,-68.97707 13.84564,-19.62955 31.03932,-36.80602 43.84792,-57.14035 -23.55587,13.75966 -45.14482,31.21817 -68.96646,44.86954 -15.11832,7.34254 -57.90894,38.84244 -57.42248,5.44891 17.75813,-38.95424 51.32894,-67.52452 83.20171,-94.77937 31.30613,-24.96592 64.89243,-46.92548 97.99466,-69.28659 20.20924,-14.67016 39.9477,-29.09033 62.1542,-40.22902 21.86544,-16.88499 -22.80783,6.83128 -30.92173,8.62263 -50.0842,20.97221 -98.01433,46.60729 -146.02813,72.26767 -28.13176,17.04702 -57.09375,32.88148 -84.70346,50.94211 -8.95585,24.86189 -23.28535,47.64172 -44.05329,64.88132 -18.57001,13.79838 -39.22273,26.54875 -62.292929,30.66826 -22.94079,-12.74825 2.499242,-37.82374 13.918233,-49.18165 22.545106,-14.39053 43.416146,-30.64035 65.932246,-44.9883 7.9676,-25.79652 -29.19797,-25.50646 -43.71073,-10.76524 -26.473056,13.70585 -51.676211,30.50076 -79.28907,41.53408 3.72921,-14.40527 39.996383,-21.99581 52.653706,-38.0378 23.682914,-9.62823 44.267424,-33.64154 72.002464,-27.36176 13.68511,7.81585 18.7086,30.00273 36.08509,12.04131 28.12867,-16.76959 56.99338,-32.40636 85.74799,-47.83241 18.21319,-12.46119 40.61059,-20.34666 57.94565,-33.16759 24.85881,-10.20664 48.29621,-24.1439 73.65232,-33.25 13.93985,-11.70329 40.53715,-13.09789 48.87398,-27.70905 -23.37833,-7.35602 -48.98028,3.1595 -73.0179,-3.42683 -42.02848,4.67318 -84.66097,1.87657 -126.6933,4.52092 -27.55691,-4.32293 -43.35527,24.51796 -66.62969,34.36377 -30.72414,27.57984 -64.90724,51.43718 -92.6346,82.09093 -24.3451,17.80202 -41.995747,42.96634 -66.469566,60.58866 -16.923724,17.04312 -34.7240329,35.05514 -56.277426,45.69549 -27.868142,-1.02568 -6.269096,-41.3574 2.710966,-54.93196 16.36363382,3.14428 -21.850017,47.46032 -1.949684,44.53203 22.9563115,-12.55622 38.404623,-35.67214 60.426516,-49.78334 17.694513,-19.88528 35.413383,-40.26067 56.299304,-56.88162 18.57905,-22.72373 45.4782,-35.59239 65.40694,-57.10007 19.36992,-14.70177 39.0848,-31.01609 56.05007,-47.35938 -30.8815,-1.42981 -61.84848,2.21723 -92.81848,2.48004 -30.200488,1.34467 -60.222695,4.07722 -90.307946,6.4608 -28.3672839,-1.04149 -55.338418,10.23847 -83.588957,10.52796 -24.817164,6.33544 -50.653601,9.10949 -74.967447,18.29807 -25.04299,7.61869 -54.68502,14.8121 -72.58142,34.47356 10.18621,24.07449 47.27115,17.18268 69.51204,26.95752 10.19462,0.23976 51.679607,15.29318 23.2491,14.52645 -26.45411,-6.1069 -53.24082,-11.74526 -80.29203,-14.21585 -33.55872,-3.93195 -33.20048,-51.00975 -0.6632,-56.78419 35.09482,-13.37594 71.1596,-24.07749 107.40482,-33.07391 29.666942,-7.88329 60.838668,-11.22148 92.041002,-14.56565 25.904489,-1.93707 51.064126,-8.02973 77.206972,-8.02823 25.882996,-2.13257 51.760276,-3.79425 77.657716,-5.08144 26.94943,-1.19987 54.11479,-4.05137 81.10202,-0.75643 42.64017,-5.14205 86.11542,-0.56232 128.95805,-4.24421 33.20959,3.58318 67.27781,-1.65874 100.71112,2.16456 23.63643,-5.23918 49.15897,1.08342 73.72018,-2.44152 27.25562,2.19015 53.81021,-0.94412 81.05972,-0.017 50.77586,-1.60098 101.49809,-2.19921 152.27231,-3.77919 28.75367,-0.3591 57.77289,-0.62164 86.1416,-4.46744 29.72328,1.04786 59.23472,-0.19443 88.9041,-2.00234 35.63187,-5.38913 71.83897,2.41288 106.93227,-6.4455 21.3245,10.80517 46.0768,-16.28534 63.1857,1.46196 -4.4032,27.29169 -43.3013,13.70884 -63.486,19.44336 -26.6042,3.26208 -53.9425,4.596 -79.78652,5.08821 -35.07835,4.28308 -70.76298,-0.92499 -105.94715,3.59453 -25.93385,0.43406 -52.03236,1.82835 -77.7493,3.15884 -30.94151,-3.18274 -61.85707,4.66601 -92.69484,0.18459 -35.82976,3.94747 -72.4321,1.14946 -108.12071,3.8247 -34.18967,-2.52942 -68.73087,0.11623 -102.88938,-0.91953 -18.47118,-0.16242 -26.3066,20.19248 -44.66328,25.5183 24.66669,17.79489 -18.13357,32.81444 -31.99378,40.9184 -37.9647,26.68448 -78.0767,50.73729 -112.73979,81.78549 -31.39401,24.92339 -63.54873,49.93476 -88.45132,81.58124 22.76087,-0.0679 44.15318,-21.1948 64.61268,-32.24385 18.81554,-18.21337 42.56853,-30.16079 61.80895,-47.79753 22.45866,-17.15726 47.59173,-31.09347 67.94532,-50.97096 9.10463,-10.24264 43.01758,-29.57659 28.49343,-1.19314 -30.19056,25.15598 -58.73198,52.69416 -86.6603,80.04359 -23.74578,30.35316 -49.14036,59.39015 -70.32605,91.46062 -17.30166,13.11271 -17.79487,47.24939 7.83042,22.30479 9.21501,-6.22865 40.85098,-35.84976 35.29916,-10.59749 -18.86204,14.06132 -41.52659,41.1299 -67.26063,32.48962 z M 96.25488,422.68403 c 21.55493,-9.29089 38.89639,-25.21336 54.52207,-42.63373 8.22374,-7.80319 17.29331,-31.29127 -1.28676,-13.32203 -22.6908,15.70113 -46.41602,30.77531 -64.19214,52.34397 -4.676761,8.39613 7.501398,7.30374 10.95683,3.61179 z m 744.66105,62.93219 c -25.56818,-8.52364 -17.12956,-40.86846 -4.82765,-54.88234 -15.74645,-12.79493 1.29842,-46.98229 -27.78837,-33.01215 -15.8315,6.62117 -32.13214,2.12215 -29.97195,-14.53975 -20.02207,1.98363 -47.75344,37.50706 -62.34617,17.3687 -0.0921,-12.22026 28.87738,-32.32853 2.34127,-19.448 -21.0023,11.79649 -44.65826,32.38007 -68.06904,31.01035 -9.55134,-12.76004 27.956,-40.02664 -3.15644,-23.55769 -22.82845,6.23313 -50.51934,26.94324 -72.91104,16.32243 -1.76656,-12.91375 19.89662,-34.15255 -7.14615,-20.82817 -25.41359,9.81446 -50.36231,25.9686 -77.34859,28.21565 -10.38621,-10.24462 9.43169,-34.47404 -12.85543,-19.08413 -18.77374,6.68078 -65.7672,45.48943 -68.19136,7.26911 12.09673,-32.71226 40.84427,-56.693 71.51389,-71.58965 23.18096,-8.58092 45.02477,-17.16062 69.49656,-19.65641 42.10308,-3.08484 12.67623,42.12647 -9.59072,48.24165 -8.34748,11.71594 -39.32933,29.39846 -34.23522,39.28445 25.01378,-6.13097 46.2819,-21.83314 70.74678,-29.45532 27.96478,-5.40893 47.25425,-26.09872 70.12315,-41.16054 18.20322,-14.83977 39.25461,-7.12445 32.80415,18.07636 -9.70453,13.22492 -35.30804,38.3061 -45.83374,16.25096 -13.93293,5.01602 -43.99787,26.69914 -40.07312,34.45712 39.31627,-14.63601 76.95601,-33.30727 116.23018,-47.8975 39.87571,-2.96356 -41.8645,46.04109 -7.29856,26.88135 23.82557,-9.97364 44.72959,-25.13604 67.36898,-36.93369 32.28465,-3.27229 -4.22062,30.4413 -9.0737,37.73502 26.08634,-8.95814 50.70301,-26.4991 78.82664,-27.0584 7.64326,17.5714 -42.47205,22.01913 -37.56551,38.17735 30.88929,0.45652 44.80692,-25.29426 68.47507,-39.54265 16.73044,-14.48961 49.86379,-0.29335 25.65579,19.49986 -18.53064,17.21213 -64.48409,12.71185 -57.45902,47.50229 10.83277,12.91111 36.81859,-17.90992 55.57952,-29.15883 26.01766,-15.59999 51.77683,-30.0838 75.6659,-48.41962 13.88218,-15.61588 41.86937,-0.92799 21.5716,15.17463 -15.09968,6.47234 -14.58689,22.15132 1.3423,8.33803 22.82427,-2.93858 50.35807,-34.14718 70.03127,-13.31763 11.5359,-10.16545 44.1142,-8.27107 22.8996,11.26115 -10.7615,5.9317 -31.5732,28.2865 -6.5913,15.28894 26.3997,-4.60125 46.2396,-35.68375 73.2535,-29.55154 19.7625,8.39644 6.4826,23.82621 -2.8872,32.91231 24.1435,-5.75006 52.6469,-26.7461 75.9441,-13.01957 -2.0758,13.33627 2.9965,32.05638 17.3253,14.8495 22.1021,-11.36313 34.6512,-47.11722 1.2344,-49.20625 -23.227,-13.52588 -48.6672,-18.90309 -74.2491,-25.11697 -31.6397,-2.13198 -61.6749,-14.79113 -93.5269,-13.96535 -24.967,-5.64472 -50.6902,-7.75357 -76.3284,-9.08215 8.4345,-16.29498 43.518,-0.81 61.7926,-3.65365 27.2603,1.63724 53.6915,5.19293 80.5852,9.50069 25.4383,5.44568 51.3485,9.66987 75.6805,18.67132 23.1933,4.30881 52.0258,15.47999 60.0196,39.12106 -2.5539,25.12705 -24.9194,47.33236 -46.7305,58.87191 -13.8646,-0.30943 -23.4157,-16.19614 -39.7858,-1.90754 -20.227,16.14327 -22.8366,-11.62376 -4.0268,-16.28795 16.9439,-5.62371 11.7762,-13.28229 -3.5979,-5.16207 -21.1481,3.59371 -49.1165,28.85669 -68.172,13.42646 -12.7409,-3.96328 -41.8294,27.52512 -45.6099,-0.72013 -11.6372,6.0572 -41.4202,12.14492 -33.9767,-10.23613 -13.5018,3.4007 -50.13805,36.81084 -41.76477,5.44917 9.81347,-6.38954 45.70497,-30.67513 14.06927,-20.38316 -18.01174,6.63891 -47.89083,37.93082 -62.57949,17.49597 1.72152,-9.45837 14.57666,-29.78835 -4.91388,-15.75105 -24.87338,14.08644 -48.79072,30.42035 -70.83482,48.75857 -37.16337,18.44851 29.89187,34.05577 4.00416,60.40257 -9.39544,6.21199 -22.02398,9.97163 -33.26404,7.77105 z m 9.75634,-10.34419 c 34.69123,-4.30456 6.02165,-32.92982 -3.7288,-38.71278 -4.31309,3.69694 -11.68477,10.30362 -13.60658,21.89489 -1.45815,8.79472 8.77118,17.88056 17.33538,16.81789 z m -416.85003,-75.5402 c 22.31902,-11.63572 47.3147,-19.44952 66.47996,-37.00615 17.32423,-15.36891 47.55775,-13.74332 54.65304,-37.01229 -23.85679,-0.82361 -48.05638,9.65564 -69.65624,20.20675 -21.812,12.81684 -53.40959,30.63842 -56.28421,55.76389 z m 682.67166,-24.64484 c 14.8064,-2.63446 17.4963,-27.90654 1.5943,-9.1536 -2.7114,2.33831 -13.7467,15.30651 -1.5943,9.1536 z m -230.97096,-16.6722 c 4.67469,-13.83443 -24.34937,10.86666 -24.34937,10.86666 5.56749,-2.28248 21.59002,-2.70055 24.34937,-10.86666 z M 714.39002,290.28483 c -4.57067,-34.77038 42.56126,-6.94019 61.6464,-14.2268 26.54932,1.24568 53.7479,-3.34798 80.75107,-3.54059 24.87429,1.14702 51.28377,-8.42316 75.19664,2.85067 7.24404,24.03625 -37.53663,1.34661 -52.86004,10.2036 -25.75171,-0.38491 -51.25094,3.40263 -76.86949,3.84037 -26.47481,1.24013 -54.63511,-8.11264 -79.99102,0.38947 -1.36755,3.43889 -6.66553,3.72656 -7.87356,0.48328 z" id="path4147" inkscape:connector-curvature="0" sodipodi:nodetypes="ccccccccccccccccccccccccccccccccccccccccccccccccccccccccccccccccccccccccccccccccccccccccccccccccccccccccccccccccccccsccccccccccccccccccccccccccccccccscssccccccccccsccccccccc"/>
  </g>
</svg>