<?xml version="1.0" standalone="no"?>
<!DOCTYPE svg PUBLIC "-//W3C//DTD SVG 20010904//EN"
 "http://www.w3.org/TR/2001/REC-SVG-20010904/DTD/svg10.dtd">
<svg version="1.0" xmlns="http://www.w3.org/2000/svg"
 width="468pt" height="147pt" viewBox="0 0 468 147"
 preserveAspectRatio="xMidYMid meet">
<metadata>
Created by POTRACE VERSION, written by Peter Selinger 2001-2007
</metadata>
<g transform="translate(0,147) scale(0.011700,-0.011700)"
fill="#000000" stroke="none">
<path d="M8435 11599 c-16 -6 -58 -14 -93 -19 -34 -6 -88 -23 -120 -39 -47
-24 -66 -28 -108 -24 -44 5 -60 0 -120 -30 -38 -19 -95 -42 -126 -51 -31 -10
-83 -33 -115 -52 -32 -20 -83 -42 -113 -50 -30 -8 -82 -23 -115 -33 -33 -10
-79 -24 -102 -31 -23 -7 -60 -30 -82 -51 -22 -22 -48 -39 -58 -40 -10 -1 -30
0 -46 1 -15 1 -43 -4 -63 -10 -20 -7 -61 -32 -91 -57 -30 -24 -72 -51 -94 -58
-21 -8 -81 -34 -132 -59 -51 -24 -120 -64 -152 -89 -33 -24 -85 -57 -115 -72
-30 -15 -62 -33 -71 -41 -8 -7 -72 -38 -140 -68 -69 -29 -139 -57 -156 -60
-17 -4 -52 -21 -78 -37 -27 -17 -71 -39 -99 -50 -28 -11 -69 -31 -91 -44 -22
-13 -58 -40 -80 -60 -22 -20 -51 -42 -65 -49 -14 -8 -58 -21 -99 -30 -40 -9
-89 -23 -107 -31 -18 -7 -65 -34 -104 -60 -40 -26 -97 -58 -128 -72 -30 -13
-84 -45 -120 -71 -35 -26 -92 -69 -126 -95 -33 -27 -102 -69 -153 -94 -51 -24
-109 -58 -130 -75 -21 -17 -60 -40 -88 -53 -27 -12 -88 -48 -135 -80 -47 -32
-134 -82 -195 -111 -88 -41 -118 -61 -148 -98 -21 -25 -48 -49 -61 -52 -13 -3
-33 -1 -45 5 -12 7 -23 26 -27 47 -4 24 0 58 11 98 10 34 22 118 26 191 4 72
12 201 18 287 6 99 7 169 1 189 -6 18 -17 74 -25 124 -8 49 -19 128 -25 175
-5 47 -17 105 -25 129 -9 24 -27 63 -40 85 -13 23 -61 74 -105 114 -59 52 -89
72 -108 72 -19 0 -49 -18 -95 -57 -37 -31 -89 -86 -116 -122 -26 -36 -62 -102
-80 -146 -18 -44 -50 -116 -71 -160 -22 -44 -44 -98 -49 -121 -6 -22 -32 -67
-59 -100 -26 -33 -55 -80 -64 -105 -9 -24 -23 -83 -31 -131 -11 -62 -22 -96
-40 -120 -14 -18 -31 -55 -38 -83 -7 -27 -25 -68 -41 -91 -20 -28 -32 -60 -38
-105 -5 -36 -16 -82 -25 -102 -8 -20 -15 -59 -15 -87 0 -42 -11 -73 -57 -168
-55 -114 -56 -119 -54 -194 1 -76 1 -77 -38 -122 -22 -25 -42 -55 -46 -66 -4
-11 -1 -36 5 -55 6 -19 20 -40 30 -45 10 -6 30 -10 44 -10 14 0 35 9 45 19 11
11 31 57 45 103 14 45 30 107 36 137 6 30 15 73 21 95 6 23 25 70 43 106 18
36 36 87 40 114 3 27 18 70 33 95 16 25 33 57 39 71 6 14 14 54 18 90 5 45 16
80 36 112 16 26 32 59 36 74 4 14 17 47 30 73 12 27 34 92 49 145 14 54 37
120 51 147 13 27 40 69 58 93 22 29 37 64 45 105 8 41 21 72 40 94 16 18 44
61 64 97 19 36 38 78 42 95 3 16 11 36 17 42 6 7 25 13 42 13 21 0 40 -8 54
-22 11 -13 25 -43 31 -68 6 -25 16 -99 21 -165 5 -66 15 -167 21 -225 8 -80 8
-117 -2 -157 -8 -33 -9 -69 -4 -100 5 -26 7 -133 5 -238 -2 -174 -5 -198 -31
-293 -16 -56 -29 -124 -29 -150 0 -27 -7 -57 -15 -70 -9 -12 -37 -36 -63 -54
-26 -17 -63 -45 -82 -61 -19 -16 -78 -56 -130 -89 -52 -32 -110 -66 -128 -75
-19 -9 -77 -58 -130 -109 -54 -50 -126 -118 -162 -149 -36 -31 -86 -68 -111
-81 -26 -13 -67 -47 -92 -77 -32 -36 -65 -62 -105 -80 -41 -19 -78 -48 -118
-91 -33 -35 -67 -75 -76 -89 -10 -14 -68 -63 -130 -110 -62 -47 -134 -112
-160 -144 -26 -32 -65 -79 -85 -104 -21 -26 -61 -65 -89 -87 -28 -22 -66 -59
-85 -83 -19 -24 -50 -58 -70 -76 -20 -18 -49 -58 -65 -89 -15 -30 -44 -69 -63
-86 -20 -17 -66 -69 -104 -117 -37 -47 -87 -126 -112 -176 -29 -58 -64 -110
-99 -147 -31 -32 -67 -80 -81 -108 -14 -28 -50 -80 -79 -116 -31 -39 -64 -95
-80 -137 -15 -40 -40 -88 -54 -107 -14 -19 -29 -37 -33 -40 -3 -3 -24 -36 -46
-75 -22 -38 -47 -83 -56 -100 -9 -16 -32 -65 -52 -107 -23 -52 -35 -92 -35
-122 0 -25 -5 -57 -10 -72 -6 -15 -23 -41 -38 -58 -15 -17 -35 -51 -46 -76
-10 -25 -35 -83 -56 -130 -21 -47 -41 -96 -45 -110 -4 -14 -21 -56 -37 -93
-16 -38 -38 -101 -49 -140 -11 -40 -24 -87 -29 -104 -4 -18 -22 -62 -39 -97
-17 -36 -31 -71 -31 -78 0 -8 -4 -18 -8 -23 -5 -6 -16 -30 -24 -55 -9 -25 -18
-72 -21 -105 -3 -33 -17 -87 -30 -120 -15 -36 -30 -99 -36 -155 -6 -52 -15
-111 -21 -130 -5 -19 -10 -58 -10 -87 0 -30 -10 -77 -22 -110 -15 -39 -22 -81
-23 -128 0 -38 4 -153 8 -255 4 -102 13 -210 18 -241 9 -46 8 -71 -6 -138 -16
-71 -16 -89 -5 -139 7 -31 14 -124 15 -207 2 -84 -1 -175 -8 -208 -9 -48 -8
-69 7 -131 16 -61 17 -82 8 -119 -8 -28 -10 -98 -6 -193 3 -85 14 -194 26
-254 14 -75 18 -123 14 -170 -5 -47 -2 -80 10 -119 8 -30 13 -68 10 -85 -3
-17 -8 -58 -11 -91 -4 -36 0 -98 9 -157 9 -54 16 -118 16 -142 0 -26 12 -72
30 -114 21 -49 30 -87 30 -124 0 -29 5 -70 10 -90 7 -24 28 -52 59 -80 27 -24
68 -71 92 -106 42 -63 43 -64 41 -143 -1 -55 3 -90 13 -109 8 -16 33 -44 56
-62 22 -18 58 -50 79 -70 31 -31 46 -38 77 -38 21 0 62 6 90 14 29 8 68 24 88
36 19 12 45 36 57 53 12 18 55 67 96 109 45 48 82 99 97 133 14 30 50 82 81
116 31 33 67 85 80 115 13 30 35 71 48 92 13 21 32 66 41 99 10 36 34 83 57
115 22 29 58 89 80 133 21 44 50 100 63 125 13 25 43 106 66 180 23 74 50 152
60 172 11 21 24 61 30 90 6 29 31 105 54 169 24 63 49 144 55 180 8 39 31 99
60 154 32 59 52 112 59 155 6 36 27 104 46 150 28 69 35 98 35 155 0 66 2 73
40 120 21 28 51 69 65 92 19 30 28 63 34 120 5 43 23 121 40 173 18 52 39 109
46 125 8 17 19 53 26 80 6 28 22 79 35 115 13 36 28 88 33 116 6 28 30 90 54
137 24 46 50 114 57 148 7 35 23 93 35 129 12 36 26 85 30 110 4 25 17 72 30
105 13 33 28 86 34 117 5 31 21 79 35 106 14 28 30 77 35 111 5 33 21 80 35
104 17 29 29 70 36 121 6 48 21 101 39 139 16 34 39 96 50 137 12 41 21 94 21
117 0 28 11 64 35 110 19 37 35 74 35 80 0 7 11 45 24 85 13 40 29 96 35 123
7 28 19 63 27 80 8 16 22 56 30 90 9 33 22 88 29 121 8 34 24 81 36 105 14 28
23 64 24 101 1 42 8 67 27 95 14 21 30 55 37 75 7 20 16 83 21 140 5 61 17
124 29 156 14 34 21 75 21 117 0 51 8 85 34 153 20 51 41 133 51 197 10 62 32
147 51 195 24 64 35 113 42 191 7 73 18 123 36 166 15 37 30 98 36 150 5 50
21 116 35 151 17 41 30 105 40 189 8 71 15 149 15 175 0 34 9 65 31 107 29 55
31 68 33 164 2 97 4 108 32 153 25 41 59 69 216 174 102 69 219 151 260 182
41 32 103 70 138 84 36 14 86 44 113 67 27 22 76 57 110 79 34 21 81 47 105
58 24 11 86 50 138 86 52 36 132 81 176 100 45 19 121 59 170 90 48 30 125 72
171 91 45 20 103 50 129 69 26 18 75 47 110 65 35 17 115 61 178 97 63 36 144
84 180 107 36 23 88 56 116 73 29 17 74 38 100 47 27 9 99 39 159 66 61 28
128 60 150 71 22 12 72 43 111 70 39 26 86 54 105 62 19 8 55 17 80 21 26 4
60 15 77 25 16 10 43 36 58 57 16 21 33 42 39 46 5 4 30 6 54 4 24 -3 59 0 78
5 20 5 80 31 133 58 54 26 142 62 196 80 55 18 131 47 169 65 39 18 94 38 123
44 30 6 63 17 75 23 12 7 71 14 132 16 61 2 135 4 165 5 36 0 71 -7 102 -20
31 -14 52 -32 63 -54 13 -25 16 -50 13 -104 -3 -49 -13 -86 -31 -123 -14 -29
-33 -76 -42 -104 -8 -29 -15 -90 -15 -138 0 -77 -3 -92 -26 -125 -14 -21 -32
-44 -40 -52 -8 -8 -19 -24 -26 -36 -6 -12 -35 -54 -64 -93 -29 -39 -69 -104
-88 -145 -19 -41 -40 -94 -46 -119 -6 -25 -20 -72 -30 -105 -9 -33 -23 -82
-29 -109 -7 -28 -29 -72 -54 -105 -24 -31 -62 -89 -86 -128 -24 -40 -52 -104
-62 -143 -10 -38 -22 -100 -27 -138 -6 -38 -17 -83 -26 -100 -9 -18 -31 -46
-49 -64 -18 -18 -44 -49 -59 -68 -14 -19 -31 -55 -38 -80 -6 -25 -24 -74 -40
-110 -15 -36 -33 -90 -39 -121 -8 -36 -28 -81 -55 -122 -31 -48 -47 -84 -55
-129 -7 -40 -22 -80 -44 -112 -19 -28 -41 -65 -50 -82 -9 -17 -23 -63 -31
-100 -7 -38 -23 -85 -35 -105 -11 -19 -29 -70 -40 -114 -12 -47 -32 -95 -51
-121 -16 -23 -43 -71 -58 -106 -16 -35 -36 -94 -46 -132 -9 -38 -26 -86 -36
-107 -11 -21 -25 -62 -31 -91 -6 -29 -22 -77 -36 -107 -13 -30 -28 -76 -34
-104 -5 -27 -23 -90 -40 -139 -17 -50 -33 -115 -36 -145 -5 -42 -16 -70 -50
-121 -24 -37 -48 -82 -53 -102 -5 -19 -10 -52 -10 -73 0 -21 -7 -52 -16 -70
-9 -18 -29 -45 -44 -62 -15 -16 -33 -46 -39 -66 -8 -25 -9 -50 -2 -80 7 -31 6
-51 -4 -74 -7 -18 -40 -53 -72 -78 -33 -25 -74 -61 -90 -81 -17 -19 -40 -60
-52 -91 -12 -31 -29 -71 -38 -88 -9 -18 -27 -45 -40 -61 -13 -16 -43 -68 -67
-115 -23 -47 -48 -108 -55 -136 -7 -27 -30 -73 -50 -100 -21 -28 -42 -62 -46
-75 -4 -14 -22 -52 -40 -85 -22 -39 -35 -81 -40 -119 -5 -45 -14 -69 -37 -98
-17 -22 -36 -63 -43 -96 -8 -31 -28 -86 -45 -121 -18 -35 -49 -82 -71 -106
-21 -23 -45 -57 -53 -76 -8 -19 -14 -60 -14 -92 0 -35 -5 -65 -15 -80 -8 -13
-35 -39 -61 -58 -25 -18 -50 -47 -56 -64 -6 -16 -15 -61 -20 -100 -6 -43 -21
-93 -40 -129 -16 -32 -30 -69 -30 -80 0 -12 -16 -48 -35 -80 -19 -32 -39 -74
-44 -93 -6 -20 -24 -53 -40 -73 -16 -20 -43 -66 -59 -102 -17 -37 -39 -71 -51
-77 -11 -7 -27 -24 -35 -39 -7 -15 -16 -58 -20 -96 -4 -37 -15 -85 -25 -105
-10 -20 -25 -61 -35 -92 -12 -40 -34 -75 -81 -128 -35 -40 -69 -89 -76 -108
-6 -19 -9 -47 -6 -61 3 -15 10 -47 17 -72 6 -24 9 -54 6 -65 -3 -12 -22 -43
-41 -68 -24 -32 -39 -64 -45 -100 -5 -28 -14 -80 -20 -114 -6 -34 -24 -91 -41
-126 -23 -49 -32 -87 -39 -163 -6 -63 -19 -124 -36 -169 -22 -59 -25 -80 -20
-135 3 -35 0 -93 -6 -128 -9 -49 -9 -77 2 -130 7 -37 25 -103 40 -147 16 -44
31 -88 35 -97 4 -10 35 -40 69 -66 34 -27 72 -55 84 -61 13 -7 65 -13 116 -14
l93 -2 121 83 c67 45 136 85 152 89 17 3 39 17 50 31 11 13 20 36 20 49 0 13
5 34 12 46 6 12 18 27 27 33 8 7 35 15 58 18 24 3 56 12 71 20 15 8 77 68 137
133 61 65 122 136 135 158 13 22 60 78 105 125 45 47 94 103 111 125 16 22 71
81 122 133 77 76 100 106 129 170 31 65 51 92 145 184 73 72 115 122 129 153
14 32 35 56 67 78 25 18 55 42 67 53 11 12 37 42 57 66 20 25 44 69 53 100 8
31 25 64 37 74 11 11 36 42 54 71 19 28 47 61 63 72 16 12 46 45 67 74 21 28
67 84 103 124 36 39 83 93 104 119 21 26 49 71 62 99 12 29 38 70 57 91 20 22
47 58 61 80 14 23 48 60 74 82 26 23 55 56 64 74 9 18 25 53 36 78 12 25 24
57 27 73 4 15 27 46 52 70 25 23 69 75 97 115 29 41 64 95 79 120 22 37 28 60
28 107 0 41 6 70 20 92 10 18 31 40 46 50 16 10 39 44 56 80 15 35 44 83 62
108 19 24 40 61 47 82 6 21 22 54 34 73 13 20 45 58 73 85 27 28 64 74 82 103
18 29 44 92 60 140 15 48 44 115 64 149 20 34 36 65 36 69 0 4 20 39 44 78 24
40 47 91 51 116 4 24 16 63 26 86 10 24 29 50 43 59 15 10 33 14 45 10 11 -3
49 -41 85 -83 35 -42 109 -121 164 -174 65 -64 116 -105 148 -119 27 -12 68
-35 90 -50 23 -16 67 -63 98 -106 31 -43 73 -116 92 -163 19 -47 46 -116 60
-154 13 -38 24 -85 24 -103 0 -19 -7 -66 -16 -106 -8 -41 -40 -122 -71 -187
-31 -63 -66 -126 -78 -140 -12 -14 -31 -43 -43 -65 -11 -22 -39 -78 -60 -125
-22 -47 -46 -112 -53 -145 -9 -39 -28 -82 -55 -122 -24 -34 -47 -79 -53 -100
-6 -21 -16 -57 -21 -81 -7 -28 -25 -57 -55 -86 -24 -24 -58 -72 -75 -107 -17
-35 -40 -77 -49 -94 -10 -16 -26 -55 -36 -85 -10 -30 -29 -77 -43 -105 -13
-27 -40 -71 -58 -98 -19 -26 -39 -69 -45 -95 -7 -26 -21 -75 -31 -110 -11 -35
-35 -82 -54 -105 -19 -23 -45 -64 -59 -92 -21 -42 -25 -64 -25 -143 0 -83 -3
-99 -30 -152 -21 -42 -30 -74 -30 -108 0 -41 6 -57 40 -102 24 -32 40 -65 40
-81 0 -14 3 -41 6 -58 4 -18 20 -45 35 -61 16 -16 61 -50 100 -77 39 -26 90
-60 112 -75 27 -17 62 -29 97 -33 30 -4 97 -20 149 -37 86 -28 102 -30 185
-25 66 4 109 13 156 32 51 21 87 28 170 32 59 3 117 12 132 19 15 8 49 36 75
62 44 44 55 49 115 59 48 8 80 21 110 43 24 17 66 46 93 64 28 19 61 46 75 61
14 15 65 54 114 87 49 33 101 66 115 72 14 6 55 29 90 51 35 22 94 60 130 83
36 24 80 51 96 59 17 9 51 33 76 55 34 29 54 38 81 38 20 0 49 5 64 10 15 6
40 22 56 35 16 14 42 25 57 25 15 0 32 -5 39 -12 7 -7 12 -39 12 -72 0 -56 2
-61 39 -96 22 -21 67 -52 102 -69 40 -20 77 -31 103 -31 23 0 68 5 101 10 33
6 96 16 140 23 44 7 100 23 125 36 25 12 68 35 96 51 28 16 75 36 105 44 30 8
87 24 128 36 40 11 88 28 105 37 17 8 66 51 109 95 43 44 89 97 102 118 13 21
50 58 81 82 31 23 113 88 183 144 69 55 139 118 155 140 16 21 36 45 44 52 9
6 32 12 53 12 20 0 41 -6 47 -12 5 -7 15 -31 20 -53 6 -22 18 -71 27 -110 9
-38 36 -110 60 -160 25 -49 72 -124 106 -165 34 -41 66 -84 71 -95 5 -11 28
-34 51 -51 23 -18 69 -46 102 -64 l60 -32 120 7 c66 4 149 15 185 25 36 10 87
21 115 25 27 4 63 14 80 22 16 9 64 46 106 82 42 36 115 87 163 113 47 26 121
74 164 105 42 32 102 80 132 107 30 27 87 73 125 101 39 29 102 86 141 126 39
41 83 97 99 124 15 28 46 69 68 92 22 23 53 45 69 49 16 3 42 1 58 -6 16 -7
34 -25 41 -42 10 -25 10 -39 -1 -77 -8 -25 -16 -77 -18 -116 -2 -42 3 -100 13
-145 9 -41 20 -113 24 -160 5 -58 15 -99 31 -130 17 -33 25 -71 31 -142 7 -88
11 -100 43 -146 19 -28 42 -67 50 -87 8 -19 38 -57 65 -84 34 -34 63 -52 95
-60 25 -6 87 -11 138 -11 85 0 97 3 146 30 28 17 52 35 52 40 0 5 40 50 90 99
89 88 90 90 205 317 63 125 124 237 134 248 10 12 42 61 71 109 29 48 68 106
87 129 19 23 41 54 49 69 8 15 14 39 14 52 0 13 10 43 23 68 13 24 40 71 60
103 20 33 46 85 58 115 11 31 28 64 36 73 9 10 29 18 44 18 18 0 42 -12 61
-29 l33 -29 1 -109 c1 -101 3 -112 34 -173 18 -36 62 -104 97 -152 36 -48 77
-95 92 -104 14 -10 49 -36 76 -59 28 -23 65 -50 84 -60 19 -10 55 -18 80 -18
29 0 66 9 101 25 30 13 73 37 94 52 22 14 62 33 90 41 31 9 78 36 118 68 55
42 75 66 108 129 22 42 53 87 69 100 17 13 41 31 56 41 14 10 36 35 49 55 13
20 29 54 35 75 7 21 29 59 48 84 20 26 51 76 69 113 19 36 50 81 69 100 26 25
44 34 70 34 18 0 43 -8 53 -18 11 -9 34 -44 51 -76 19 -35 53 -77 83 -102 28
-24 67 -59 87 -79 20 -19 51 -61 69 -93 20 -33 49 -67 71 -81 21 -13 58 -29
82 -35 24 -6 73 -25 108 -42 52 -25 84 -33 165 -40 56 -4 123 -15 150 -24 26
-9 60 -23 75 -30 14 -8 45 -14 69 -14 24 0 64 5 88 11 35 9 59 9 100 0 30 -7
81 -12 114 -12 44 0 72 7 112 27 46 25 66 28 155 30 93 2 108 5 183 39 69 31
99 38 188 46 59 5 124 14 147 20 22 6 78 24 125 42 59 22 96 43 122 69 23 23
38 48 38 62 0 15 -11 33 -26 45 -14 11 -42 23 -61 27 -19 4 -54 1 -76 -5 -23
-7 -73 -31 -112 -54 l-70 -41 -210 -8 c-115 -3 -239 -12 -274 -18 -35 -6 -83
-22 -106 -35 -27 -16 -57 -25 -84 -25 -24 0 -91 9 -150 20 -58 11 -140 27
-181 35 -41 8 -106 17 -144 19 -49 4 -81 13 -115 32 -25 15 -75 43 -110 62
-35 19 -96 66 -136 103 -53 50 -85 93 -124 163 -40 73 -54 108 -58 153 -3 33
-18 82 -33 113 -15 30 -31 75 -34 100 -4 25 -15 81 -26 125 -10 44 -24 103
-30 130 -7 28 -18 97 -25 155 l-13 105 -46 42 c-35 33 -52 43 -79 43 -24 0
-47 -10 -76 -33 -23 -18 -54 -48 -70 -67 -15 -19 -42 -61 -60 -93 -25 -45 -34
-77 -41 -140 -5 -45 -16 -99 -24 -119 -10 -23 -16 -67 -16 -115 0 -73 -2 -82
-35 -128 -19 -28 -51 -72 -70 -100 -24 -35 -37 -69 -44 -112 -7 -43 -20 -76
-41 -105 -17 -24 -49 -68 -71 -98 -23 -30 -54 -83 -71 -118 -17 -35 -51 -86
-77 -115 -26 -29 -66 -78 -90 -111 -24 -32 -51 -67 -60 -76 -9 -10 -31 -34
-50 -54 -27 -28 -41 -36 -70 -36 -20 0 -50 9 -68 20 -18 10 -44 38 -59 61 -18
30 -33 78 -49 163 -13 67 -28 153 -33 191 -5 39 -17 101 -27 138 -18 66 -18
71 0 138 15 61 16 77 5 129 -10 48 -10 72 0 118 9 43 9 68 1 98 -6 21 -11 55
-11 75 0 19 7 57 16 83 13 37 15 71 11 145 -3 53 -11 120 -18 150 -8 33 -24
64 -41 82 -16 15 -45 31 -65 35 -19 4 -59 1 -88 -5 -29 -7 -67 -23 -86 -37
-19 -13 -50 -49 -71 -79 -27 -41 -42 -81 -61 -162 -14 -59 -31 -153 -38 -208
-9 -75 -18 -109 -36 -135 -13 -19 -43 -60 -68 -90 -25 -31 -51 -77 -59 -105
-8 -27 -19 -68 -25 -90 -6 -23 -19 -50 -30 -61 -10 -11 -31 -40 -47 -65 -15
-24 -37 -71 -49 -104 -11 -33 -34 -84 -50 -114 -17 -29 -37 -68 -47 -85 -9
-17 -19 -51 -23 -76 -4 -25 -13 -59 -20 -76 -7 -17 -34 -48 -61 -68 -39 -30
-57 -56 -106 -153 -32 -65 -58 -128 -58 -141 0 -13 -6 -35 -14 -50 -8 -15 -26
-38 -41 -52 -15 -14 -39 -47 -53 -73 -15 -27 -37 -67 -49 -90 -12 -23 -22 -51
-23 -63 0 -12 -13 -40 -30 -62 -16 -23 -48 -53 -70 -68 -31 -21 -47 -25 -73
-20 -18 3 -43 13 -55 21 -12 9 -44 63 -72 121 l-51 106 3 286 3 287 29 59 c22
47 31 86 41 180 7 67 19 137 26 156 6 19 15 40 20 45 4 6 13 42 20 80 6 38 24
98 40 132 15 34 33 97 39 140 9 66 18 90 67 172 31 53 82 143 112 201 52 99
55 110 59 191 3 52 0 101 -8 122 -6 20 -24 47 -40 60 -16 14 -45 28 -65 31
-26 5 -47 2 -73 -11 -20 -10 -52 -38 -71 -63 -18 -25 -61 -63 -95 -86 -33 -23
-81 -63 -104 -90 -24 -27 -52 -65 -62 -84 -10 -19 -22 -71 -28 -115 -6 -53
-20 -103 -41 -147 -17 -37 -31 -76 -31 -86 0 -10 -18 -47 -40 -81 -22 -34 -54
-90 -71 -124 -17 -34 -56 -100 -87 -146 -36 -53 -75 -97 -109 -122 -29 -22
-62 -49 -74 -62 -12 -12 -41 -52 -65 -89 -30 -44 -64 -80 -102 -107 -31 -22
-75 -64 -97 -93 -22 -29 -67 -82 -100 -118 -34 -36 -81 -92 -105 -125 -24 -33
-58 -75 -74 -93 -17 -19 -47 -42 -66 -52 -19 -10 -66 -44 -105 -75 -38 -31
-77 -61 -86 -65 -9 -5 -57 -23 -107 -40 -51 -16 -131 -37 -178 -45 -48 -8
-115 -15 -151 -15 -38 0 -86 8 -120 20 -31 11 -70 32 -86 47 -15 16 -41 51
-57 78 -16 28 -35 85 -44 127 -9 42 -16 88 -16 100 0 13 6 47 13 75 8 28 38
94 67 145 30 51 73 116 97 143 26 29 50 70 58 99 8 27 15 60 15 72 0 13 17 58
37 101 20 43 54 105 75 139 21 34 38 66 38 72 0 6 12 37 26 69 14 32 34 86 45
120 11 34 24 65 29 68 6 4 19 23 29 43 10 20 21 53 25 72 4 19 20 53 36 75 16
22 41 63 56 90 15 28 35 67 45 87 11 20 19 47 19 60 0 13 13 50 28 83 16 33
37 85 47 115 10 30 32 77 50 105 17 27 38 70 47 95 9 25 27 83 41 130 14 47
28 103 32 125 4 22 35 90 69 150 62 108 63 111 68 200 4 65 12 104 29 140 18
39 25 80 33 185 6 74 10 196 10 271 1 130 0 137 -28 190 -15 30 -37 78 -47
108 -10 29 -36 73 -58 96 -22 24 -51 61 -64 83 -14 22 -38 49 -53 61 -18 14
-41 21 -69 21 -28 0 -62 -10 -98 -29 -30 -16 -80 -47 -111 -70 -31 -23 -56
-45 -56 -49 0 -4 -24 -31 -52 -61 -29 -29 -73 -65 -98 -79 -25 -14 -67 -40
-95 -58 -27 -18 -71 -53 -96 -77 -25 -24 -59 -71 -75 -103 -27 -52 -37 -63
-92 -90 -42 -21 -83 -54 -129 -104 -37 -40 -84 -96 -104 -124 -25 -37 -53 -61
-99 -86 -37 -20 -73 -49 -85 -67 -11 -17 -31 -50 -44 -72 -13 -22 -37 -45 -53
-52 -15 -6 -46 -29 -67 -49 -22 -21 -48 -59 -60 -84 -11 -25 -45 -90 -75 -144
-30 -53 -77 -122 -105 -154 -28 -31 -64 -86 -81 -122 -16 -36 -49 -87 -73
-113 -23 -27 -54 -70 -67 -98 -14 -27 -42 -81 -64 -120 -21 -38 -54 -96 -73
-127 -19 -32 -43 -86 -54 -120 -15 -44 -35 -78 -66 -111 -24 -26 -53 -68 -64
-92 -11 -25 -42 -67 -68 -93 -36 -35 -52 -60 -61 -97 -7 -27 -26 -77 -43 -109
-16 -33 -53 -94 -81 -136 -36 -52 -57 -96 -68 -140 -10 -39 -42 -112 -81 -180
-35 -63 -69 -131 -75 -150 -6 -19 -16 -53 -22 -76 -7 -24 -32 -63 -61 -94 -30
-32 -54 -70 -62 -99 -8 -25 -20 -71 -27 -101 -7 -30 -32 -93 -57 -140 -24 -47
-59 -98 -76 -113 -18 -16 -90 -57 -162 -92 -83 -40 -154 -68 -195 -75 -42 -8
-110 -35 -193 -76 -71 -35 -135 -64 -143 -64 -8 0 -35 -22 -62 -49 -26 -27
-58 -63 -72 -80 -19 -25 -50 -41 -134 -71 -60 -22 -126 -48 -145 -58 -20 -10
-54 -43 -76 -72 -23 -29 -52 -58 -65 -65 -14 -7 -46 -15 -72 -18 -26 -4 -83
-24 -126 -46 -44 -21 -100 -51 -126 -66 -37 -22 -62 -28 -127 -31 -64 -3 -92
-10 -140 -35 -59 -29 -62 -30 -162 -23 -56 3 -116 13 -133 21 -17 7 -53 44
-81 81 -27 37 -61 85 -76 107 -14 22 -38 78 -52 124 -20 62 -26 98 -23 140 3
31 16 99 30 151 14 52 29 123 32 158 5 47 16 77 41 116 20 31 38 76 44 111 6
32 24 79 39 104 16 25 47 83 70 128 23 45 42 91 42 101 0 11 16 51 36 88 19
38 42 95 50 127 8 35 29 78 53 110 21 29 42 63 46 77 4 14 37 86 72 160 36 74
80 167 98 205 19 39 41 90 51 115 9 25 32 83 51 130 19 47 42 99 50 115 8 17
32 75 54 130 31 78 42 121 50 204 8 78 8 115 -1 144 -6 22 -29 75 -52 118 -22
43 -74 118 -115 166 -42 48 -92 111 -113 138 -20 28 -79 91 -131 140 -52 50
-149 148 -216 217 -74 77 -125 137 -129 155 -4 15 -16 46 -27 68 -11 22 -28
51 -38 64 -11 13 -28 51 -38 85 -11 33 -29 83 -40 109 -18 41 -21 69 -21 180
0 127 -1 134 -28 173 -15 23 -40 61 -57 85 -16 24 -42 60 -59 79 -16 19 -40
40 -53 46 -14 6 -36 9 -49 6 -14 -2 -47 -25 -75 -50 -27 -24 -57 -59 -67 -76
-9 -17 -20 -67 -24 -111 -4 -44 -10 -95 -14 -112 -4 -23 2 -55 22 -109 15 -42
42 -94 61 -116 22 -27 33 -50 33 -71 0 -21 -12 -47 -35 -76 -32 -40 -35 -49
-35 -110 0 -57 -6 -79 -39 -148 -23 -48 -43 -108 -50 -148 -5 -37 -22 -99 -36
-138 -14 -40 -37 -102 -51 -138 -14 -36 -40 -84 -58 -105 -18 -21 -39 -50 -46
-63 -7 -14 -19 -52 -27 -85 -7 -34 -24 -77 -37 -96 -12 -19 -32 -63 -44 -98
-12 -36 -38 -83 -60 -110 -22 -26 -57 -81 -79 -122 -22 -41 -51 -93 -65 -115
-15 -22 -30 -53 -34 -70 -4 -16 -20 -50 -35 -75 -16 -25 -38 -62 -49 -82 -11
-21 -25 -60 -31 -88 -7 -32 -24 -66 -48 -96 -21 -25 -44 -63 -52 -86 -7 -22
-26 -52 -42 -66 -15 -15 -46 -57 -68 -95 -22 -37 -73 -102 -113 -145 -40 -43
-85 -103 -100 -133 -15 -30 -42 -70 -61 -89 -18 -19 -57 -78 -86 -130 -29 -52
-67 -117 -84 -145 -17 -27 -48 -84 -69 -126 -22 -46 -56 -95 -84 -121 -32 -31
-51 -60 -60 -91 -8 -25 -21 -52 -30 -61 -10 -8 -30 -20 -46 -25 -15 -6 -61
-34 -102 -62 -41 -28 -83 -65 -93 -83 -11 -17 -23 -44 -27 -60 -4 -15 -32 -53
-63 -84 -31 -31 -85 -95 -121 -143 -36 -47 -93 -122 -126 -165 -34 -43 -88
-101 -121 -129 -33 -27 -72 -72 -88 -100 -15 -27 -43 -73 -61 -101 -19 -28
-67 -76 -107 -107 -39 -31 -103 -91 -142 -133 -38 -43 -110 -111 -160 -151
-49 -41 -121 -100 -160 -132 -38 -32 -81 -65 -95 -74 -14 -9 -70 -32 -125 -51
-55 -20 -108 -36 -119 -36 -10 0 -33 9 -51 20 -18 11 -40 35 -48 53 -10 22
-17 85 -21 202 -5 138 -4 184 10 245 9 41 28 116 41 165 14 50 34 122 43 160
10 39 27 95 39 125 11 30 37 108 56 172 20 65 50 148 67 185 17 38 37 88 44
113 8 25 14 56 14 69 0 12 14 64 30 114 17 50 42 113 55 140 14 27 29 72 34
100 5 29 24 88 43 132 18 44 48 106 66 138 17 31 32 59 32 62 0 3 10 22 23 43
13 20 31 57 41 82 10 25 33 77 52 115 18 39 38 99 44 134 6 44 21 83 44 121
19 31 62 110 96 175 33 65 67 126 74 134 8 9 33 52 55 96 22 44 45 103 52 130
6 28 16 63 22 79 6 16 20 40 32 55 12 14 29 44 37 66 9 22 28 67 42 100 15 33
31 68 37 78 6 11 30 58 53 105 24 48 51 114 61 147 10 33 21 62 24 65 4 3 20
23 37 45 17 22 39 65 48 95 10 30 35 83 57 117 35 56 39 69 39 127 l0 65 58
48 c31 26 73 68 91 93 19 25 45 72 59 105 13 33 39 89 57 125 19 36 42 92 53
126 11 34 28 76 37 94 9 18 30 51 45 72 16 21 34 62 40 91 6 29 23 70 37 92
19 29 28 59 33 112 4 43 15 84 26 100 10 15 40 71 66 123 27 52 55 118 64 146
8 29 25 74 38 100 13 27 36 99 51 159 19 77 44 143 84 220 31 61 75 151 99
201 23 49 42 93 42 97 0 4 13 35 29 69 17 35 52 127 80 205 27 78 66 171 85
206 20 35 36 75 36 88 0 13 11 49 23 79 13 30 45 87 71 125 26 39 50 81 53 95
3 14 20 50 38 80 18 30 45 89 60 130 15 41 38 115 51 163 14 49 38 114 54 145
16 31 42 77 56 102 15 25 46 91 70 147 24 57 44 106 44 110 0 5 17 44 39 88
21 44 57 118 79 165 21 47 46 105 55 130 8 25 27 77 41 115 14 39 26 83 26 99
0 16 16 60 35 97 25 50 42 107 61 201 17 85 25 152 22 189 -3 42 -11 66 -31
92 -15 20 -47 52 -72 72 -24 20 -79 52 -122 71 -62 27 -91 34 -138 33 -33 0
-73 -5 -90 -10z m-4581 -2562 c8 -12 3 -32 -21 -80 -23 -47 -35 -93 -47 -173
-8 -60 -20 -162 -26 -227 -6 -64 -20 -148 -30 -186 -11 -38 -19 -93 -18 -123
2 -30 -7 -86 -20 -132 -12 -43 -35 -100 -51 -126 -18 -29 -36 -80 -46 -127 -9
-43 -27 -110 -40 -150 -14 -39 -25 -81 -25 -93 0 -12 -11 -55 -25 -96 -14 -41
-25 -87 -25 -102 0 -15 9 -51 20 -81 l21 -54 -29 -61 c-23 -47 -31 -81 -35
-149 -5 -77 -11 -97 -42 -153 -31 -55 -34 -67 -24 -86 7 -13 20 -34 30 -47 11
-13 19 -34 19 -47 0 -15 -15 -35 -43 -58 -24 -20 -57 -59 -73 -88 -26 -49 -29
-64 -34 -184 l-5 -131 -37 -48 c-21 -26 -40 -64 -44 -84 -3 -20 -12 -62 -20
-94 -8 -32 -14 -84 -14 -116 0 -46 -6 -66 -30 -105 -17 -26 -55 -104 -86 -172
-46 -106 -56 -137 -63 -212 -6 -66 -15 -102 -38 -147 -17 -33 -33 -80 -37
-104 -4 -24 -18 -67 -31 -96 -20 -41 -25 -68 -25 -126 0 -53 -5 -82 -17 -99
-9 -14 -29 -39 -45 -56 -23 -25 -31 -45 -39 -100 -5 -38 -23 -114 -40 -169
-16 -55 -40 -131 -52 -170 -11 -38 -35 -101 -53 -140 -17 -38 -38 -92 -47
-120 -9 -27 -21 -83 -27 -123 -5 -40 -22 -96 -36 -124 -14 -28 -30 -78 -34
-111 -5 -33 -23 -94 -41 -136 -18 -42 -43 -90 -55 -107 -13 -17 -26 -42 -29
-55 -3 -13 -7 -64 -9 -114 -2 -49 -9 -106 -15 -126 -6 -20 -33 -61 -60 -92
-41 -47 -50 -65 -60 -119 -6 -34 -21 -83 -34 -108 -13 -25 -38 -71 -56 -103
-23 -40 -36 -79 -42 -130 -6 -42 -22 -99 -40 -136 -16 -35 -36 -89 -43 -120
-8 -31 -24 -77 -35 -103 -12 -26 -26 -72 -32 -103 -5 -31 -25 -86 -43 -123
-19 -37 -41 -98 -51 -137 -9 -38 -32 -99 -52 -134 -20 -36 -60 -95 -89 -133
-42 -55 -55 -82 -69 -139 -9 -40 -23 -85 -31 -100 -8 -16 -19 -29 -24 -29 -6
0 -28 -37 -50 -82 -25 -52 -61 -106 -96 -143 -31 -33 -74 -84 -97 -113 -22
-29 -48 -57 -58 -62 -10 -6 -30 -10 -45 -10 -19 0 -39 12 -65 39 -20 22 -46
63 -56 90 -10 28 -34 72 -52 98 -19 26 -52 82 -74 123 -22 41 -48 105 -58 142
-10 37 -23 102 -28 145 -6 43 -13 104 -17 135 -4 40 -14 70 -36 103 -23 35
-32 63 -39 123 -5 42 -11 185 -13 317 -3 151 -8 251 -16 270 -6 17 -14 99 -16
182 -2 84 -8 172 -14 195 -5 24 -10 79 -10 123 0 58 -6 92 -20 124 -11 24 -20
57 -20 75 0 17 9 51 20 75 18 39 19 56 14 155 -5 74 -15 133 -30 178 -18 55
-21 74 -12 100 5 18 9 76 9 129 -1 66 4 107 14 133 10 23 15 64 14 114 -1 52
4 89 15 114 10 24 16 66 16 120 0 46 7 110 15 143 8 33 15 76 15 95 0 19 14
73 30 120 16 47 30 106 30 132 0 25 9 75 20 110 11 34 20 71 20 81 0 10 23 77
50 149 34 88 50 146 50 177 0 33 9 62 30 101 17 30 42 79 56 109 13 29 37 100
53 158 19 68 39 119 60 148 17 24 43 74 56 110 14 37 41 92 61 122 20 31 40
68 46 82 6 14 14 57 18 94 7 63 10 71 53 115 26 26 64 81 85 122 21 41 65 120
97 175 32 55 77 127 101 160 23 33 52 85 64 115 12 30 39 79 61 108 22 29 60
75 84 102 24 27 65 82 91 122 25 40 77 105 114 143 37 39 91 107 120 152 30
49 72 99 101 122 26 21 66 60 87 87 22 27 76 83 121 124 45 41 103 95 129 120
26 25 64 66 84 91 20 26 71 72 112 103 47 35 84 72 95 95 11 20 26 43 34 49 8
7 40 21 72 32 32 11 65 26 73 32 8 7 32 36 53 64 21 28 66 73 101 99 34 26 85
58 113 72 27 14 86 60 130 103 44 42 98 86 120 98 22 11 58 39 80 62 22 23 49
45 60 50 11 4 29 4 40 0 10 -4 24 -14 29 -23z m10571 -1759 c14 -6 28 -22 31
-37 3 -14 7 -34 8 -43 2 -9 0 -38 -5 -65 -9 -43 -7 -53 21 -106 16 -31 30 -65
30 -75 0 -9 -14 -37 -30 -62 -17 -25 -37 -67 -45 -95 -8 -27 -19 -99 -25 -160
-6 -60 -15 -134 -20 -164 -6 -30 -35 -107 -65 -173 -30 -65 -63 -146 -72 -180
-10 -35 -28 -82 -41 -106 -19 -34 -49 -60 -136 -118 -70 -46 -152 -114 -221
-182 -60 -59 -119 -125 -130 -147 -11 -22 -34 -60 -51 -85 -17 -25 -46 -74
-63 -110 -18 -36 -41 -74 -51 -85 -10 -11 -30 -56 -44 -100 -14 -44 -38 -98
-52 -119 -15 -22 -56 -96 -91 -165 -35 -69 -71 -151 -80 -181 -8 -30 -24 -72
-35 -94 -11 -21 -39 -63 -64 -92 -24 -30 -44 -59 -44 -63 0 -5 -24 -40 -52
-77 -29 -38 -66 -95 -83 -127 -16 -31 -46 -73 -65 -91 -19 -19 -57 -47 -84
-63 -38 -22 -57 -43 -88 -98 -22 -38 -52 -83 -66 -99 -15 -15 -51 -42 -80 -58
-28 -17 -62 -43 -75 -60 -12 -16 -33 -42 -48 -56 -14 -15 -56 -44 -95 -65 -38
-21 -90 -53 -115 -71 -26 -18 -71 -41 -100 -50 -30 -10 -80 -33 -111 -52 -32
-18 -75 -38 -97 -45 -31 -9 -57 -9 -108 -1 -48 8 -73 18 -85 33 -10 12 -18 37
-18 55 0 19 11 56 24 82 12 26 41 99 63 162 22 63 48 142 58 175 10 33 21 65
25 70 4 6 17 39 30 75 13 36 50 119 83 185 32 66 92 185 132 264 41 79 92 169
114 201 22 31 67 112 100 179 32 67 70 136 84 155 15 18 44 69 65 112 21 44
69 124 106 179 36 55 75 114 84 130 10 17 43 68 74 115 31 47 72 118 92 158
20 39 58 96 84 125 27 30 62 73 79 98 16 24 44 74 61 111 22 48 54 92 115 155
52 54 96 111 115 148 17 34 50 83 74 110 24 28 66 83 93 123 26 40 66 93 88
118 22 24 52 51 67 59 15 8 61 46 101 85 40 38 104 93 142 122 38 29 101 81
140 116 65 57 81 65 172 93 55 17 105 32 110 34 6 2 18 4 27 4 9 1 29 -4 43
-11z"/>
<path d="M26420 10879 c-30 -16 -82 -56 -115 -88 -33 -32 -82 -73 -110 -91
-27 -19 -83 -64 -123 -101 -40 -38 -94 -81 -118 -96 -25 -15 -61 -41 -81 -57
-19 -16 -48 -57 -65 -90 -17 -34 -61 -92 -98 -131 -37 -38 -75 -84 -84 -102
-9 -18 -16 -37 -16 -44 0 -6 -25 -62 -55 -124 -30 -63 -55 -116 -55 -120 0 -3
-18 -34 -40 -68 -22 -35 -46 -79 -54 -99 -11 -24 -13 -45 -7 -65 5 -16 16 -44
25 -61 9 -18 14 -37 11 -42 -3 -6 -21 -10 -38 -10 -18 0 -47 -8 -66 -18 -18
-9 -39 -28 -46 -42 -8 -14 -39 -77 -69 -141 -31 -64 -56 -119 -56 -123 0 -4
-18 -38 -40 -75 -26 -43 -40 -79 -40 -102 0 -19 -11 -79 -24 -134 -14 -55 -32
-117 -40 -137 -10 -24 -15 -60 -14 -97 3 -56 1 -61 -38 -107 -22 -27 -49 -65
-60 -84 -12 -19 -26 -53 -32 -75 -6 -22 -16 -71 -22 -110 -6 -38 -25 -103 -42
-143 -28 -67 -30 -79 -23 -145 6 -71 6 -74 -25 -112 -18 -22 -36 -48 -41 -57
-5 -10 -14 -52 -19 -95 -6 -47 -21 -102 -40 -141 -16 -35 -36 -100 -44 -145
-8 -45 -18 -109 -21 -142 -4 -33 -20 -99 -35 -146 -16 -47 -43 -114 -59 -150
-17 -35 -35 -87 -40 -114 -5 -28 -14 -63 -20 -78 -6 -16 -17 -59 -25 -96 -8
-38 -30 -100 -50 -139 -29 -58 -36 -83 -36 -130 0 -43 -7 -72 -25 -108 -18
-35 -25 -65 -25 -107 0 -49 -7 -70 -47 -148 -47 -90 -49 -92 -117 -126 -39
-19 -95 -54 -125 -76 -31 -23 -89 -63 -129 -89 -40 -27 -99 -61 -130 -77 -32
-16 -82 -37 -111 -47 -30 -9 -76 -32 -103 -50 -36 -24 -71 -37 -136 -49 -57
-11 -115 -30 -168 -56 -52 -27 -91 -39 -110 -37 -19 2 -36 14 -51 37 -17 25
-23 48 -23 88 0 30 -11 94 -26 143 -14 49 -38 115 -53 147 -16 32 -52 96 -81
143 -28 47 -61 95 -73 107 -11 13 -40 32 -64 44 -34 17 -57 20 -103 17 -52 -4
-68 -11 -159 -72 -55 -38 -113 -84 -128 -104 -15 -20 -42 -59 -61 -86 -19 -28
-41 -69 -48 -91 -8 -22 -30 -74 -50 -115 -20 -41 -54 -110 -75 -152 -31 -61
-39 -87 -39 -132 0 -30 -5 -67 -12 -83 -6 -15 -14 -99 -18 -185 -7 -147 -9
-160 -33 -197 -14 -22 -42 -52 -62 -66 -19 -15 -81 -44 -137 -65 -57 -21 -128
-41 -158 -45 -35 -4 -75 -19 -111 -40 -31 -19 -76 -38 -100 -44 -24 -5 -71
-12 -103 -16 -44 -5 -75 -16 -115 -43 -31 -20 -72 -44 -92 -53 -19 -9 -58 -37
-87 -62 -28 -25 -60 -48 -71 -52 -12 -3 -21 -14 -21 -24 0 -12 9 -17 31 -19
18 -1 43 5 56 13 13 9 43 23 65 31 22 8 97 23 167 34 69 11 142 23 161 26 19
3 59 21 88 40 37 25 69 37 105 40 29 3 90 14 136 25 46 11 101 29 122 40 21
10 58 19 84 19 31 0 51 -6 65 -20 11 -11 22 -30 24 -42 3 -13 7 -65 10 -117 5
-72 12 -108 32 -150 20 -44 27 -82 34 -174 5 -64 15 -127 21 -140 7 -12 27
-41 45 -65 24 -32 34 -58 39 -100 4 -31 13 -75 20 -98 8 -23 36 -89 64 -147
27 -59 73 -135 100 -169 28 -35 51 -67 51 -73 0 -5 11 -34 25 -63 13 -28 38
-70 56 -92 17 -21 73 -66 124 -99 60 -39 111 -65 146 -73 30 -7 76 -25 104
-41 27 -16 61 -34 75 -39 14 -5 60 -29 102 -54 47 -28 94 -65 122 -99 29 -33
60 -58 82 -65 32 -11 41 -9 107 23 53 25 103 62 186 138 62 57 122 110 133
118 11 8 79 36 151 62 72 27 163 70 204 95 40 25 99 67 130 94 32 27 82 61
112 77 31 15 92 60 136 99 44 39 98 81 120 94 22 13 65 47 95 76 30 29 94 81
142 116 47 35 99 71 115 80 15 10 60 41 99 70 39 29 102 80 139 113 38 33 121
112 184 176 64 64 141 132 171 151 30 19 71 52 90 73 19 21 77 79 128 129 52
50 139 136 195 192 56 55 113 115 126 133 12 17 49 49 80 70 31 22 83 67 115
101 31 34 67 76 79 92 12 16 49 49 83 73 33 24 80 68 103 99 24 31 60 66 80
78 20 12 76 60 125 107 48 47 101 105 117 128 17 24 62 68 101 99 60 49 75 67
103 129 30 66 36 73 82 92 37 15 70 43 133 113 47 51 115 123 151 160 37 38
92 81 128 100 34 18 70 45 80 59 11 14 79 85 152 158 74 72 153 147 177 167
23 19 60 57 81 83 21 27 63 76 94 109 30 33 79 73 109 89 29 15 74 43 99 62
27 19 59 33 76 33 16 0 38 -7 50 -15 12 -8 24 -28 28 -44 4 -17 0 -44 -9 -66
-9 -20 -45 -80 -80 -134 -36 -54 -70 -109 -75 -122 -5 -13 -22 -53 -39 -89
-16 -36 -34 -80 -41 -99 -6 -19 -11 -46 -11 -61 0 -16 -15 -50 -33 -78 -19
-27 -48 -78 -66 -113 -18 -35 -41 -80 -52 -99 -17 -30 -19 -46 -14 -111 5 -64
3 -77 -12 -90 -10 -9 -32 -21 -49 -28 -18 -7 -44 -25 -59 -41 -22 -22 -29 -42
-35 -97 -5 -37 -14 -84 -21 -103 -6 -19 -15 -39 -19 -45 -4 -5 -15 -35 -25
-65 -10 -30 -23 -68 -28 -84 -6 -17 -30 -52 -54 -78 -24 -27 -50 -59 -58 -71
-8 -12 -17 -49 -21 -82 -4 -33 -13 -71 -20 -85 -7 -14 -21 -34 -32 -46 -11
-11 -24 -29 -29 -40 -6 -10 -16 -43 -22 -73 -9 -41 -25 -71 -74 -131 -34 -43
-79 -112 -100 -153 -21 -40 -46 -107 -57 -148 -10 -41 -23 -90 -30 -109 -6
-19 -21 -53 -33 -75 -11 -22 -29 -51 -39 -65 -10 -14 -25 -59 -34 -100 -8 -41
-30 -108 -48 -150 -19 -41 -37 -95 -41 -120 -4 -25 -14 -60 -21 -79 -8 -18
-29 -51 -48 -71 -18 -21 -45 -57 -59 -81 -15 -25 -42 -110 -63 -199 -33 -132
-44 -164 -80 -218 -24 -34 -55 -99 -70 -145 -26 -74 -29 -97 -31 -242 -3 -155
-2 -163 27 -251 17 -51 41 -100 53 -111 12 -12 32 -24 44 -27 12 -4 36 0 55 7
18 8 49 31 68 52 19 20 72 59 118 87 58 35 94 65 121 101 21 29 44 62 50 75 7
13 39 40 72 61 37 23 105 86 174 162 63 68 123 133 133 145 10 11 25 25 33 30
9 5 43 46 76 91 34 45 78 108 99 140 20 32 53 78 73 103 20 25 61 72 91 105
30 32 67 70 83 85 15 14 54 51 86 83 48 46 65 57 92 57 28 0 43 -11 102 -72
37 -40 100 -115 139 -166 39 -51 103 -120 145 -155 41 -34 112 -96 157 -137
60 -55 119 -96 223 -153 141 -78 142 -79 255 -93 62 -8 129 -12 148 -8 19 3
62 15 95 26 33 11 81 34 108 50 26 17 47 34 47 39 0 5 18 18 40 29 21 11 52
20 67 20 15 0 45 5 66 11 27 7 44 21 64 52 15 23 46 62 69 87 23 25 62 86 87
135 26 50 62 126 81 170 19 44 40 100 46 125 6 25 20 74 32 109 18 57 19 69 8
123 -12 55 -11 61 7 86 11 15 44 39 74 54 30 15 78 32 106 38 29 6 72 22 96
35 24 12 71 43 104 67 33 24 82 52 109 63 27 10 60 26 74 35 14 9 40 22 59 29
19 6 80 41 135 77 56 36 126 83 156 105 30 21 87 55 125 75 39 20 93 55 120
78 28 22 75 58 105 78 30 21 73 54 95 74 22 20 63 51 90 69 28 19 70 55 95 82
25 27 70 62 100 79 30 18 89 59 130 93 41 34 129 110 194 169 66 59 147 134
180 168 34 33 78 73 98 87 20 15 49 32 64 37 14 6 34 8 44 5 9 -3 22 -17 28
-31 7 -14 12 -34 12 -44 0 -11 -16 -66 -36 -122 -19 -57 -39 -137 -43 -179 -7
-62 -15 -88 -44 -135 -26 -43 -42 -86 -56 -154 -10 -52 -28 -115 -39 -140 -10
-25 -22 -72 -26 -105 -5 -33 -14 -82 -21 -110 -8 -27 -21 -75 -30 -105 -9 -30
-32 -84 -50 -120 -18 -36 -38 -91 -44 -122 -5 -31 -24 -83 -40 -116 -18 -35
-31 -77 -32 -103 -1 -24 3 -63 9 -87 6 -25 7 -56 2 -72 -5 -16 -22 -48 -38
-72 -16 -24 -37 -67 -45 -96 -9 -29 -32 -78 -52 -110 -19 -32 -35 -64 -35 -73
0 -9 -16 -60 -35 -115 -19 -54 -35 -108 -35 -119 0 -11 -16 -56 -35 -100 -20
-44 -40 -108 -44 -142 -5 -35 -19 -76 -31 -92 -11 -17 -37 -63 -56 -103 -20
-40 -46 -93 -59 -118 -12 -25 -40 -94 -60 -155 -21 -60 -50 -129 -65 -152 -16
-22 -31 -52 -35 -65 -4 -12 -39 -88 -78 -168 -69 -141 -71 -147 -72 -222 0
-62 4 -82 21 -105 15 -20 31 -29 56 -31 30 -3 39 2 61 30 15 18 33 41 42 51
10 11 30 17 58 17 24 0 50 6 58 12 9 7 21 33 28 58 7 25 24 67 38 94 14 27 42
72 62 100 21 28 43 73 50 101 7 27 25 69 41 93 16 24 33 66 39 93 6 28 18 63
26 78 7 15 66 81 130 145 86 86 122 130 140 170 15 33 40 67 65 87 25 21 55
61 76 103 20 38 56 90 81 117 25 27 68 84 97 128 28 43 72 107 98 142 27 35
64 87 84 114 20 28 44 68 54 90 10 22 34 50 53 63 19 13 61 60 93 105 33 45
71 94 86 109 14 15 37 28 50 28 13 0 34 -7 46 -16 17 -12 22 -25 22 -60 0 -25
-6 -60 -14 -79 -8 -19 -20 -79 -27 -133 l-12 -99 33 -94 c17 -52 44 -110 58
-129 15 -19 31 -40 37 -46 6 -7 23 -25 36 -41 14 -17 49 -46 78 -66 29 -20 70
-41 90 -47 26 -7 57 -7 97 1 32 6 94 21 137 35 43 13 92 31 110 41 18 9 48 29
67 44 19 15 73 49 118 74 46 25 96 57 110 70 15 14 30 25 34 25 4 0 20 19 35
43 15 23 36 52 47 65 11 13 39 31 61 41 22 10 56 33 75 52 19 19 54 55 76 80
23 25 57 56 75 69 19 13 53 41 76 61 23 21 53 41 68 45 14 3 39 1 55 -6 17 -7
44 -29 61 -49 17 -20 59 -64 92 -99 44 -46 83 -74 147 -107 48 -24 112 -50
141 -58 30 -8 71 -26 93 -40 21 -15 55 -31 75 -37 20 -5 42 -10 49 -10 7 0 70
-25 140 -56 123 -55 129 -56 195 -51 46 4 83 1 120 -10 37 -11 72 -13 122 -9
47 4 97 1 150 -9 56 -11 123 -15 220 -13 l140 3 54 -35 c41 -26 70 -36 116
-41 51 -5 71 -13 116 -46 30 -23 64 -44 75 -47 12 -4 55 1 95 10 41 9 90 25
110 35 20 10 53 37 73 60 23 28 37 56 42 85 5 34 1 54 -20 100 -14 31 -26 65
-26 76 0 11 15 47 34 81 19 34 40 82 46 107 7 25 19 59 27 75 9 17 38 50 65
74 27 24 60 62 73 85 13 23 37 53 52 68 15 14 46 31 68 38 22 7 64 26 92 42
29 16 77 49 107 74 30 24 77 53 103 65 26 11 66 29 88 40 25 13 73 24 130 30
49 4 104 12 120 18 17 5 89 12 160 15 72 3 178 0 238 -6 85 -9 125 -9 187 1
l78 13 86 -42 c72 -35 100 -43 178 -51 51 -4 111 -13 133 -18 22 -6 63 -11 90
-11 28 0 55 4 62 8 6 4 12 14 13 22 1 8 2 23 1 33 0 11 -16 33 -33 49 -18 17
-55 46 -83 64 -27 19 -65 46 -84 59 -19 14 -50 29 -70 34 -20 5 -70 16 -111
26 -41 9 -118 31 -170 48 l-95 30 -280 3 c-274 2 -282 1 -360 -23 -44 -14
-102 -37 -130 -50 -27 -14 -75 -43 -105 -64 -30 -21 -86 -50 -124 -64 -38 -14
-101 -32 -140 -41 -39 -8 -102 -30 -141 -49 -39 -19 -105 -66 -150 -106 -44
-39 -96 -79 -115 -89 -19 -10 -45 -29 -56 -42 -12 -12 -29 -37 -38 -55 -9 -17
-40 -58 -70 -90 -30 -32 -71 -93 -93 -138 -22 -44 -54 -108 -71 -142 -25 -50
-40 -67 -74 -84 -31 -16 -62 -22 -108 -23 -36 0 -88 4 -115 8 -38 6 -63 4 -99
-8 -46 -16 -51 -16 -107 4 -33 11 -80 20 -107 20 -26 0 -85 9 -132 21 -47 11
-139 24 -206 28 -115 8 -125 10 -210 52 -67 33 -106 45 -157 50 -55 5 -77 12
-114 39 -25 18 -68 44 -95 57 -27 13 -68 42 -91 63 -23 22 -62 55 -87 73 -34
25 -46 40 -48 64 -2 18 2 42 8 53 6 12 38 39 71 60 33 21 83 46 110 55 30 10
70 36 103 66 30 27 73 56 96 64 23 8 53 15 66 15 13 0 36 5 51 12 15 7 54 29
85 50 32 21 83 62 115 91 31 28 76 71 99 93 24 23 57 65 74 92 20 33 35 77 44
129 8 43 26 98 39 123 23 41 25 56 26 163 0 116 -1 119 -33 170 -18 29 -38 71
-44 93 -7 23 -35 77 -63 120 -28 44 -88 115 -133 159 -59 58 -104 92 -165 123
-45 23 -95 42 -111 42 -16 0 -62 -13 -103 -29 -41 -15 -90 -31 -109 -35 -19
-3 -46 -19 -60 -34 -14 -15 -35 -45 -46 -67 -12 -22 -41 -64 -65 -93 -24 -30
-50 -72 -58 -95 -7 -23 -21 -55 -31 -72 -9 -16 -47 -57 -83 -89 -37 -33 -81
-82 -100 -111 -19 -28 -52 -70 -73 -93 -21 -23 -44 -59 -50 -79 -6 -21 -23
-78 -38 -128 -16 -49 -41 -112 -58 -140 -29 -50 -29 -51 -32 -229 -2 -99 -6
-198 -9 -220 -4 -23 -23 -74 -43 -114 -24 -48 -55 -91 -91 -126 -31 -28 -86
-88 -122 -132 -36 -43 -74 -93 -84 -111 -10 -17 -43 -46 -73 -65 -30 -18 -89
-55 -131 -82 -42 -27 -99 -71 -127 -97 -28 -26 -78 -61 -112 -78 -34 -17 -76
-31 -93 -31 -25 0 -42 10 -74 44 -32 33 -46 59 -60 110 l-18 68 23 71 c19 57
25 95 25 182 1 61 7 135 15 165 7 30 22 89 32 130 11 41 35 120 53 175 18 55
38 118 44 140 6 22 26 65 46 95 19 30 44 77 55 105 10 27 28 68 39 90 12 21
21 49 21 61 0 13 -4 34 -9 47 -5 13 -22 29 -38 36 -20 8 -53 9 -118 2 -88 -9
-91 -10 -125 -49 -20 -22 -47 -61 -60 -87 -13 -25 -57 -82 -97 -125 -40 -44
-91 -108 -113 -144 -22 -35 -60 -82 -84 -104 -24 -22 -57 -47 -74 -56 -17 -9
-52 -44 -78 -78 -26 -35 -93 -108 -149 -163 -90 -88 -106 -108 -126 -163 -13
-39 -39 -82 -66 -112 -24 -26 -50 -64 -58 -83 -8 -20 -54 -71 -105 -118 -77
-72 -93 -92 -116 -149 -14 -36 -31 -71 -37 -78 -6 -7 -30 -24 -53 -38 -26 -15
-51 -23 -62 -20 -10 4 -29 25 -41 47 -18 31 -22 51 -18 82 2 23 30 95 61 159
31 64 56 121 56 126 0 5 18 50 40 100 35 77 40 99 40 161 0 55 5 83 23 119 13
26 32 75 41 110 10 35 26 78 36 95 10 18 30 68 44 112 15 44 33 118 42 163 9
46 22 103 30 125 8 23 23 78 34 122 10 44 41 145 68 225 27 81 61 169 76 198
14 28 26 63 26 77 0 14 8 51 19 83 10 31 26 102 36 156 10 55 24 116 32 135 9
20 23 47 33 61 10 14 26 50 36 80 10 30 31 76 46 102 16 26 43 89 59 140 17
51 41 111 54 133 13 22 54 67 91 100 37 32 93 95 125 138 32 44 91 115 130
159 39 43 89 107 111 141 22 34 59 81 81 105 23 24 54 50 69 58 15 8 47 14 71
14 27 0 62 -9 93 -26 27 -14 94 -41 148 -60 55 -19 113 -34 128 -34 15 0 37 9
48 20 11 11 20 30 20 43 0 12 -7 32 -15 44 -10 14 -41 30 -84 43 -38 11 -84
31 -103 43 -19 13 -63 38 -99 56 -35 18 -72 40 -81 49 -10 8 -18 28 -18 44 0
16 6 41 14 56 8 15 29 41 46 57 18 17 43 53 56 80 13 28 24 58 24 68 0 10 20
57 45 104 25 47 45 96 45 110 0 13 14 55 30 93 17 38 30 73 30 79 0 6 17 45
37 88 32 68 37 88 38 153 0 54 -6 88 -19 118 -14 30 -33 51 -61 68 -23 13 -58
24 -78 24 -24 0 -70 -18 -142 -56 -69 -37 -116 -69 -135 -93 -16 -20 -48 -74
-70 -119 -21 -45 -43 -82 -48 -82 -5 0 -22 -16 -37 -36 -16 -20 -32 -57 -37
-83 -4 -25 -23 -68 -42 -96 -18 -27 -44 -68 -56 -90 -13 -22 -38 -58 -56 -80
-18 -23 -51 -81 -74 -129 -22 -49 -54 -106 -71 -127 -17 -22 -40 -44 -51 -50
-15 -8 -31 -4 -76 19 -35 18 -81 32 -120 36 -35 4 -106 20 -159 37 -86 26
-109 29 -235 29 -134 0 -140 1 -198 30 -33 17 -70 30 -82 30 -13 0 -44 -7 -70
-17 -44 -15 -52 -15 -120 0 -40 9 -136 21 -213 27 -77 6 -157 10 -177 10 -21
0 -67 -12 -102 -27 l-65 -26 -53 23 c-33 14 -82 24 -128 27 -74 5 -76 4 -104
-26 -17 -17 -38 -31 -48 -31 -10 0 -36 7 -58 16 -40 16 -42 16 -99 -10 -32
-14 -75 -26 -95 -26 -20 0 -72 9 -116 21 -71 18 -87 19 -135 8 -44 -10 -69
-10 -124 1 -56 10 -82 11 -132 1 -39 -8 -91 -10 -139 -6 -57 5 -90 3 -130 -9
-36 -11 -93 -16 -178 -16 -81 0 -142 5 -176 15 -44 13 -68 14 -137 5 -46 -6
-178 -15 -294 -20 -115 -5 -232 -12 -259 -16 -27 -3 -70 -6 -96 -6 -26 0 -60
7 -77 15 -17 9 -33 24 -37 32 -3 9 -6 29 -6 45 0 15 29 88 64 162 34 73 67
144 71 158 4 14 39 89 77 167 60 124 79 154 149 229 44 47 89 105 100 128 12
22 42 66 68 96 26 30 55 69 64 85 9 17 34 76 56 132 23 57 43 120 47 140 4 26
1 44 -10 58 -13 17 -25 20 -94 18 -50 -1 -90 -7 -108 -17 -16 -8 -59 -46 -96
-83 -37 -37 -80 -91 -95 -119 -15 -28 -54 -96 -86 -151 -31 -55 -66 -129 -75
-164 -10 -35 -36 -91 -57 -124 -21 -32 -60 -81 -87 -108 -27 -27 -63 -74 -80
-105 -17 -32 -43 -70 -57 -86 -14 -15 -51 -45 -82 -66 -30 -21 -70 -55 -87
-75 -18 -20 -46 -62 -62 -95 -19 -38 -43 -68 -67 -85 -21 -14 -43 -25 -49 -25
-6 0 -20 -10 -31 -22 -11 -13 -28 -37 -36 -54 -9 -17 -45 -61 -80 -96 -40 -41
-69 -80 -77 -104 -7 -21 -21 -48 -32 -60 -10 -12 -37 -27 -60 -33 -23 -7 -71
-28 -107 -46 -38 -19 -89 -35 -121 -39 -30 -3 -89 -17 -130 -31 -41 -14 -109
-30 -150 -36 -50 -7 -98 -22 -142 -45 -37 -19 -77 -34 -90 -34 -13 0 -59 -12
-103 -26 -44 -14 -147 -34 -230 -45 -140 -19 -155 -23 -215 -59 -46 -27 -89
-43 -145 -54 -44 -8 -141 -27 -215 -42 -74 -15 -155 -30 -180 -35 -25 -4 -81
-8 -125 -9 -44 0 -105 -7 -135 -15 -30 -8 -76 -15 -101 -15 -32 0 -55 6 -73
21 -16 12 -26 30 -26 45 0 14 4 34 10 44 5 10 51 48 102 85 51 37 106 81 121
99 15 17 46 57 67 89 22 32 51 83 65 113 14 30 34 65 46 77 11 12 32 46 46 77
15 30 42 78 60 105 19 29 38 77 46 115 8 36 25 90 40 120 14 30 40 89 57 130
18 41 41 104 51 140 11 36 29 94 41 130 14 45 19 77 14 100 -3 19 -9 53 -12
76 l-6 41 38 6 c22 4 50 14 63 23 22 16 23 22 18 81 -6 57 -3 70 22 121 16 31
38 78 50 104 11 26 30 86 41 134 12 48 25 93 30 99 5 6 27 65 50 131 22 65 40
134 40 152 0 18 -7 49 -15 69 -8 19 -15 46 -15 58 0 12 15 51 33 85 28 56 32
72 30 134 -1 39 5 107 13 151 13 72 13 90 -1 160 -8 44 -15 108 -15 143 0 34
-7 108 -15 165 -9 56 -23 125 -32 152 -9 28 -23 61 -32 75 -8 14 -32 44 -52
66 -26 30 -39 55 -44 86 -4 25 -10 49 -13 55 -4 5 -27 20 -52 34 -25 13 -63
38 -85 55 -22 17 -50 37 -62 43 -12 6 -65 23 -118 36 -52 14 -108 25 -123 25
-15 0 -52 -14 -82 -31z m199 -181 c10 -6 28 -26 40 -44 13 -19 55 -64 93 -100
39 -36 76 -78 84 -92 8 -16 14 -56 14 -96 0 -48 8 -89 25 -138 14 -38 25 -88
25 -111 0 -23 10 -65 22 -94 21 -52 21 -54 5 -106 -9 -30 -17 -65 -17 -78 0
-13 12 -49 26 -79 15 -33 23 -65 20 -80 -2 -14 -16 -56 -30 -95 -20 -54 -26
-90 -26 -155 0 -63 -7 -105 -26 -165 -14 -44 -32 -111 -39 -150 -7 -38 -27
-108 -43 -155 -17 -47 -38 -114 -47 -150 -9 -36 -23 -72 -30 -80 -7 -8 -22
-34 -34 -57 -11 -23 -21 -50 -21 -60 0 -10 -13 -45 -29 -78 -15 -33 -31 -83
-35 -109 -4 -27 -22 -78 -39 -113 l-32 -63 18 -49 c9 -27 17 -59 17 -73 0 -13
-7 -34 -16 -46 -8 -12 -38 -34 -65 -48 -39 -19 -55 -35 -70 -67 -10 -24 -19
-65 -19 -95 0 -29 -5 -63 -11 -75 -6 -12 -30 -40 -54 -63 -31 -29 -48 -55 -59
-93 -9 -30 -33 -77 -54 -105 -21 -28 -49 -68 -61 -88 -12 -21 -41 -52 -64 -70
-23 -18 -48 -40 -55 -48 -7 -8 -19 -30 -27 -49 -8 -18 -15 -40 -15 -49 0 -9
-9 -35 -21 -59 -14 -29 -35 -52 -63 -68 -24 -14 -52 -25 -64 -25 -12 0 -51
-12 -87 -27 -62 -25 -69 -26 -113 -14 -26 7 -77 19 -113 26 -37 8 -95 28 -130
46 -42 21 -79 32 -106 32 -29 0 -66 -12 -118 -37 -52 -26 -80 -46 -90 -66 -8
-16 -15 -40 -15 -53 0 -13 18 -51 40 -84 23 -33 59 -78 82 -99 23 -22 58 -55
80 -75 25 -24 38 -46 38 -62 0 -17 -10 -32 -27 -44 -16 -10 -44 -26 -63 -35
-19 -8 -66 -44 -105 -78 -38 -34 -86 -69 -105 -78 -19 -8 -46 -20 -60 -25 -14
-6 -38 -21 -55 -32 -16 -12 -57 -36 -90 -55 -33 -18 -89 -53 -124 -77 -35 -24
-74 -43 -86 -43 -13 0 -31 7 -39 16 -9 9 -16 32 -16 56 0 28 10 57 35 97 29
47 40 80 56 171 11 63 33 146 50 184 16 39 43 96 59 126 15 30 31 78 36 105 4
28 20 88 36 135 16 47 40 135 54 195 14 61 34 136 45 167 10 32 19 83 19 115
0 48 6 68 33 113 21 35 36 75 40 107 3 28 19 77 36 108 17 31 33 73 37 93 4
21 20 76 35 123 16 48 29 100 29 117 0 16 14 63 31 103 17 41 40 94 51 119 11
24 31 76 45 115 14 38 33 93 43 120 10 28 29 75 43 106 14 30 29 80 33 110 3
29 19 79 35 109 16 30 36 80 45 110 9 30 25 67 35 82 11 15 38 64 60 109 22
45 45 107 49 137 6 33 21 71 37 94 16 21 41 60 57 86 16 26 62 112 102 191 40
79 78 148 83 155 5 6 23 45 40 86 19 45 50 95 77 125 25 28 66 86 92 129 25
44 71 104 102 133 30 29 58 56 62 60 4 5 43 45 85 91 65 69 88 87 133 103 34
12 68 17 89 13 18 -3 41 -10 50 -16z m5756 -3213 c44 -2 100 -11 125 -20 39
-14 58 -15 146 -5 74 9 122 9 185 0 63 -8 105 -21 166 -52 l82 -40 94 7 c91 6
95 6 111 -16 9 -13 16 -35 16 -49 0 -14 -11 -42 -25 -62 -13 -19 -35 -60 -49
-89 -14 -30 -32 -71 -40 -93 -9 -21 -16 -53 -16 -70 0 -17 -10 -48 -23 -68
-12 -20 -38 -60 -59 -90 -20 -29 -48 -75 -62 -102 -14 -27 -26 -65 -26 -85 0
-20 -10 -55 -22 -76 -11 -22 -34 -65 -50 -95 -16 -30 -36 -62 -45 -72 -9 -10
-35 -29 -59 -43 -23 -14 -53 -40 -66 -58 -12 -17 -54 -65 -91 -106 -38 -41
-80 -92 -94 -115 -14 -23 -40 -57 -56 -76 -17 -19 -49 -47 -71 -61 -23 -14
-50 -35 -62 -45 -12 -11 -31 -38 -42 -61 -12 -23 -36 -53 -54 -66 -18 -14 -52
-34 -75 -46 -24 -12 -65 -49 -94 -84 -29 -34 -75 -88 -103 -120 -28 -32 -71
-70 -96 -84 -25 -15 -79 -58 -120 -97 -41 -39 -106 -93 -145 -119 -38 -26
-108 -77 -155 -112 -47 -36 -116 -81 -155 -101 -38 -19 -99 -53 -135 -75 -36
-23 -93 -67 -127 -100 -34 -32 -65 -59 -70 -59 -5 0 -33 -17 -61 -37 -28 -21
-77 -54 -109 -74 -32 -20 -94 -49 -138 -66 -44 -16 -120 -40 -170 -53 -49 -12
-105 -25 -123 -27 -19 -3 -52 2 -77 11 -24 10 -51 28 -59 41 -9 14 -23 51 -32
84 -8 32 -31 97 -51 142 -20 46 -46 100 -59 120 -12 19 -40 56 -62 82 -22 25
-56 79 -76 119 -19 40 -53 92 -75 115 -21 23 -56 50 -77 61 -22 11 -66 49
-100 85 -34 36 -92 82 -132 106 -39 22 -83 52 -99 65 -15 13 -47 33 -70 45
-23 11 -49 21 -57 21 -8 0 -44 16 -80 35 -46 24 -79 35 -109 35 -31 0 -57 -9
-93 -31 -27 -18 -67 -47 -88 -66 -22 -18 -58 -38 -80 -44 -23 -6 -52 -21 -65
-32 -13 -12 -41 -58 -63 -102 -34 -68 -39 -87 -34 -125 3 -25 10 -80 16 -124
5 -43 17 -93 26 -110 8 -17 19 -71 24 -119 7 -71 15 -101 44 -157 20 -38 36
-75 36 -82 0 -7 10 -31 23 -54 12 -22 45 -71 74 -109 30 -41 96 -108 160 -161
59 -50 126 -100 148 -111 22 -12 60 -24 85 -27 25 -4 86 -19 135 -33 50 -14
109 -31 133 -39 33 -11 71 -13 151 -8 l108 7 33 -30 c32 -28 34 -35 33 -86 -1
-40 -11 -78 -36 -134 -26 -58 -36 -98 -41 -156 -3 -47 -14 -93 -26 -117 -11
-22 -33 -47 -48 -56 -15 -10 -52 -44 -82 -77 l-56 -60 -113 -10 c-86 -8 -133
-7 -192 3 -43 7 -86 9 -95 6 -9 -3 -34 -2 -55 4 -25 7 -75 42 -141 99 -57 48
-122 108 -145 133 -23 25 -53 65 -68 89 -15 23 -46 63 -69 88 -23 25 -56 64
-72 86 -17 22 -33 47 -36 55 -3 9 -40 67 -81 130 -42 63 -94 140 -115 170 -25
36 -59 67 -96 89 -32 19 -70 34 -86 34 -19 0 -45 -14 -80 -44 -29 -24 -67 -58
-84 -75 -18 -17 -38 -50 -44 -72 -7 -23 -30 -62 -52 -87 -22 -25 -43 -58 -46
-73 -4 -15 -13 -40 -22 -56 -8 -16 -44 -61 -81 -100 -37 -39 -93 -111 -126
-161 -32 -49 -89 -123 -127 -163 -38 -41 -83 -94 -99 -120 -16 -25 -71 -91
-122 -146 -50 -54 -107 -121 -125 -148 -21 -31 -49 -56 -80 -72 -26 -13 -57
-35 -68 -48 -12 -12 -34 -47 -48 -75 -17 -34 -37 -58 -57 -69 -18 -9 -41 -13
-55 -10 -13 4 -29 16 -35 28 -7 12 -9 40 -6 67 3 25 22 82 41 127 21 51 37
107 41 150 6 55 17 86 53 154 26 47 56 112 68 145 12 33 31 84 42 113 11 29
30 67 41 85 11 17 41 73 66 123 25 50 52 115 61 145 9 30 26 77 40 104 13 28
29 77 35 110 6 33 19 74 30 91 11 18 28 56 38 85 10 30 39 98 65 152 25 54 53
124 62 155 9 30 36 96 59 146 24 50 50 118 60 151 9 33 25 71 34 85 9 14 22
38 29 53 7 15 12 37 12 47 0 11 23 64 51 117 28 54 58 121 66 148 9 28 25 68
38 90 12 22 31 65 40 95 10 30 35 78 56 106 21 28 59 91 85 140 26 49 55 101
65 115 10 14 34 59 55 100 21 41 55 117 76 169 22 52 48 116 58 142 10 27 34
69 53 95 19 27 38 59 41 73 4 14 15 43 24 65 9 22 43 80 77 128 33 49 72 107
87 130 15 23 30 56 34 72 3 17 15 48 27 70 11 22 33 57 49 78 17 20 39 42 49
48 11 6 50 17 87 25 37 8 121 19 187 24 66 5 147 17 180 27 42 12 98 18 185
19 69 1 141 6 160 13 19 6 71 11 116 11 67 0 92 5 138 26 39 18 68 24 89 21
18 -3 78 -14 135 -26 56 -11 122 -21 146 -21 23 0 69 9 102 20 42 15 81 20
134 19 41 -1 118 7 170 17 53 10 142 18 200 19 58 0 123 6 146 12 22 7 89 12
150 12 87 -1 125 4 180 21 55 17 83 20 139 15 41 -3 133 1 220 10 122 13 162
14 216 4 36 -6 79 -9 95 -7 16 3 53 15 83 26 42 15 61 18 94 10 23 -5 77 -11
122 -13z m-4504 -535 c11 -6 19 -21 19 -35 0 -16 -12 -33 -37 -52 -21 -15 -47
-36 -58 -46 -11 -10 -42 -30 -70 -46 -27 -16 -69 -46 -91 -67 -23 -22 -58 -64
-77 -94 -20 -30 -104 -118 -188 -195 -83 -77 -166 -158 -184 -181 -19 -23 -51
-63 -71 -90 -20 -26 -47 -73 -59 -104 -14 -33 -32 -60 -46 -67 -13 -7 -34 -13
-47 -13 -13 0 -36 -7 -52 -15 -16 -8 -45 -41 -64 -73 -20 -32 -63 -82 -96
-111 -33 -29 -83 -86 -110 -126 -38 -56 -63 -82 -108 -109 -33 -20 -65 -36
-71 -36 -6 0 -50 -37 -97 -82 -47 -45 -110 -115 -141 -156 -33 -44 -75 -86
-102 -103 -25 -15 -71 -47 -102 -71 -31 -24 -78 -71 -105 -105 -27 -35 -100
-107 -163 -160 -63 -54 -132 -113 -153 -132 -22 -19 -46 -48 -55 -65 -9 -17
-57 -75 -106 -128 -76 -83 -99 -101 -149 -120 -52 -20 -70 -35 -141 -117 -63
-73 -93 -99 -133 -117 -29 -13 -70 -42 -91 -64 -21 -23 -65 -54 -98 -70 -33
-15 -69 -36 -80 -46 -11 -11 -54 -46 -95 -79 -41 -33 -95 -74 -120 -89 -25
-16 -65 -46 -90 -66 -25 -20 -99 -70 -165 -110 -66 -40 -140 -87 -164 -103
-24 -17 -69 -41 -100 -54 -31 -12 -73 -23 -94 -23 -21 0 -53 6 -71 14 -18 8
-41 24 -50 37 -9 13 -16 33 -16 44 0 12 14 43 31 71 27 42 33 62 39 139 5 65
14 106 34 147 14 32 29 72 32 90 3 18 14 62 24 98 10 36 21 85 24 110 4 25 31
117 61 206 30 88 55 166 55 174 0 7 15 47 34 89 19 42 39 108 45 146 6 39 17
106 25 150 9 44 15 95 16 113 0 19 9 80 21 135 11 56 27 128 35 159 8 32 27
86 43 120 16 35 32 86 36 113 4 28 18 77 31 109 13 33 24 64 24 70 0 6 10 31
23 56 16 33 42 58 102 100 44 30 118 78 165 106 47 28 105 59 130 70 25 10 72
39 105 64 33 25 114 72 179 104 99 48 130 69 180 121 34 35 81 75 106 91 24
15 66 44 92 65 27 21 64 40 87 44 21 3 65 2 97 -4 53 -10 62 -9 112 14 30 14
68 25 86 25 17 0 49 -7 71 -15 22 -8 63 -14 90 -15 28 0 88 7 135 15 52 10
151 16 254 16 146 1 175 4 214 22 25 11 89 30 142 43 72 18 109 23 155 18 58
-6 62 -5 107 29 26 20 64 40 85 46 21 6 94 24 162 41 69 16 143 30 167 30 24
0 71 12 110 29 38 16 103 34 144 40 42 6 91 17 110 25 19 8 39 15 43 16 5 0
17 -5 28 -10z m7705 -1271 c12 -11 43 -58 69 -102 26 -45 62 -104 81 -132 18
-27 43 -72 55 -100 12 -27 22 -68 22 -90 0 -22 -12 -78 -26 -125 -20 -64 -38
-98 -72 -138 -25 -30 -53 -70 -62 -90 -9 -19 -33 -52 -52 -73 -29 -30 -46 -38
-86 -44 -28 -4 -59 -9 -69 -12 -10 -3 -38 -23 -61 -44 -23 -21 -67 -50 -98
-64 -31 -15 -72 -29 -92 -32 -21 -3 -41 -1 -50 7 -8 7 -15 20 -15 30 0 9 18
43 40 76 22 32 59 82 84 110 24 29 50 71 59 95 9 24 18 61 22 81 3 21 29 71
56 112 44 64 55 92 80 193 16 64 29 131 30 148 1 16 -7 60 -19 98 -15 48 -19
74 -12 91 5 13 15 26 22 30 7 3 26 3 43 0 16 -2 39 -14 51 -25z m-11528 -61
c8 -7 18 -23 23 -37 6 -15 6 -35 -1 -56 -6 -17 -24 -45 -40 -60 -17 -16 -35
-47 -41 -69 -6 -22 -11 -90 -11 -151 1 -108 0 -111 -34 -166 -32 -53 -34 -62
-33 -140 0 -65 -5 -99 -24 -150 -13 -36 -30 -97 -37 -135 -7 -38 -26 -98 -42
-134 -16 -35 -33 -98 -39 -140 -8 -55 -19 -88 -41 -124 -28 -43 -32 -59 -39
-158 -5 -61 -11 -120 -15 -132 -4 -11 -18 -46 -32 -76 -13 -30 -29 -88 -34
-130 -7 -56 -17 -89 -43 -132 -18 -31 -36 -67 -40 -80 -4 -12 -15 -36 -25 -53
-9 -16 -25 -52 -35 -78 -10 -26 -27 -53 -37 -58 -14 -8 -27 -6 -51 8 -17 10
-40 33 -50 51 -15 25 -22 71 -32 210 -8 112 -19 194 -30 222 -11 30 -20 101
-26 210 -5 91 -12 204 -14 252 -3 54 -11 100 -21 119 -14 27 -15 52 -9 174 7
129 5 146 -12 186 -11 25 -26 69 -33 99 -7 30 -23 76 -36 102 -15 30 -24 65
-24 95 0 43 4 51 48 92 35 34 74 57 149 88 56 23 126 61 155 83 34 26 82 50
136 67 46 14 119 47 162 74 43 26 103 66 132 88 29 22 65 45 78 50 14 6 38 8
54 6 16 -3 36 -11 44 -17z m-1304 -187 c15 -17 17 -34 15 -104 -3 -66 -8 -90
-23 -106 -12 -13 -31 -21 -51 -21 -20 0 -39 8 -54 24 -15 16 -25 42 -28 70 -3
26 0 59 7 76 7 17 26 42 42 55 16 14 40 25 52 25 13 0 31 -9 40 -19z m6675
-150 c36 -18 96 -60 135 -94 39 -33 95 -85 124 -115 29 -30 83 -100 120 -154
37 -55 78 -122 92 -148 14 -26 41 -67 61 -91 35 -42 37 -49 43 -140 6 -88 4
-98 -15 -123 -16 -21 -29 -26 -62 -26 -23 0 -76 10 -117 21 -41 11 -105 27
-143 34 -43 9 -82 25 -110 45 -23 17 -86 60 -139 96 -70 47 -105 77 -122 107
-14 23 -37 76 -51 117 -15 41 -31 79 -36 85 -5 5 -9 18 -9 30 0 11 -11 55 -25
98 -22 71 -24 86 -16 165 8 77 12 89 37 110 25 22 35 24 98 20 54 -4 86 -13
135 -37z m-6587 -301 c14 -26 18 -60 18 -137 0 -79 5 -114 20 -153 11 -28 30
-95 41 -148 17 -76 20 -115 15 -180 -5 -69 -3 -92 15 -145 17 -47 21 -83 20
-150 -1 -52 5 -113 14 -148 12 -46 13 -72 6 -120 -9 -54 -7 -70 14 -137 14
-43 25 -96 25 -120 0 -24 -5 -52 -10 -63 -6 -10 -21 -19 -34 -19 -15 0 -34 12
-49 30 -14 16 -39 53 -55 82 -17 29 -34 67 -37 83 -4 17 -22 78 -40 136 -18
58 -43 126 -56 150 -16 32 -26 80 -37 174 -8 72 -15 175 -16 230 -1 93 -3 103
-30 143 l-30 44 -3 211 c-3 173 -1 216 10 232 8 10 30 25 48 32 19 6 57 11 84
10 46 -2 51 -5 67 -37z"/>
</g>
</svg>
