<?xml version="1.0" encoding="UTF-8"?>
<svg version="1.0" xmlns="http://www.w3.org/2000/svg" width="350" height="45" >
<path fill="#231F20" d="M36.593,13.802c-1.731,1.608-3.576,3.161-5.655,4.299c-2.66,1.455,0.304-3.775,0.44-3.94 c1.364-1.66,3.206-3.021,4.903-4.302c1.222-0.923,2.506-1.765,3.789-2.599c0.565-0.362,1.136-0.717,1.711-1.063 c0.443-0.271,2.275-2.046,1.356-1.434c-1.672,1.114-3.25,2.375-4.809,3.641c-7.83,6.356-12.925,14.599-19.737,21.858 c-2.786,2.97-11.253,9.638-14.706,4.649c-2.496-3.606,10.311-8.192,11.867-8.74c0.975-0.344,0.051-0.537-0.504-0.342 c-3.528,1.243-12.847,4.062-12.945,9.022c-0.068,3.448,7.899,1.654,9.506,1.104c7.444-2.553,12.102-10.652,16.667-16.468 C32.862,13.9,38.384,8.724,44.306,4.775c0.614-0.409-0.757-0.239-0.975-0.126c-4.022,2.089-15.765,7.977-14.973,13.633 c0.433,3.092,8.994-4.067,9.549-4.584C38.223,13.404,36.851,13.563,36.593,13.802L36.593,13.802 M37.531,25.213c-1.054,0.605-10.939,6.531-7.887,8.398c3.441,2.105,10.436-6.486,12.039-8.404 c2.197-2.627,3.259-5.299,4.126-8.551c0.438-1.644,6.206-1.404,8.066-2.053c7.103-2.476,13.434-6.736,20.183-9.975 c-0.302-0.186-0.604-0.371-0.905-0.558c-9,9.667-18,19.334-27,29c0.398,0.119,0.795,0.238,1.193,0.357 c3.514-4.192,7.396-8.373,11.938-11.452c1.128-1.024,2.406-1.089,3.832-0.192c-0.054,0.76-0.646,1.609-1.019,2.249 c-0.864,1.481-2.011,2.812-3.111,4.12c-1.213,1.443-2.503,2.831-3.832,4.168c-0.629,0.633,0.783,0.77,1.193,0.357 c1.025-1.031,11.958-12.919,6.666-12.912c-6.577,0.008-13.063,8.776-16.859,13.305c-0.588,0.701,0.804,0.775,1.193,0.357 c9-9.667,18-19.334,27-29c0.547-0.588-0.523-0.74-0.905-0.558c-5.099,2.446-9.969,5.351-15.073,7.797 c-3.203,1.535-6.533,3.152-10.167,2.929c-1.09-0.067-1.924-0.337-2.886,0.27c-1.094,0.69-1.298,3.189-1.546,4.202 c-0.883,3.608-3.843,6.634-6.391,9.17c-1.194,1.188-2.505,2.245-3.866,3.233c-2.997,2.177-2.153-0.643-0.309-2.169 c1.616-1.338,3.448-2.471,5.265-3.516C39.318,25.3,38.083,24.896,37.531,25.213L37.531,25.213 M66.827,25.451c0.39-0.227,0.789-0.434,1.191-0.639c2.797-1.431,0.879,1.213-0.055,2.499 c-1.283,1.767-2.79,3.407-4.324,4.957c-0.617,0.623,0.646,0.938,1.097,0.584c2.308-1.817,4.688-3.548,7.125-5.188 c1.664-1.121,3.443-2.331,5.372-2.953c1.155-0.373-1.405,3.591-1.656,3.917c-0.492,0.639-3.066,3.296-1.846,4.223 c2.263,1.72,8.02-1.581,10.097-2.4c0.922-0.363,0.109-1.203-0.654-0.902c-17.841,7.035,0.15-4.237-4.54-5.888 c-2.286-0.804-5.395,1.776-7.151,2.908c-2.665,1.717-5.228,3.618-7.718,5.578c0.366,0.195,0.731,0.39,1.097,0.584 c1.588-1.604,7.139-6.438,6.453-9c-0.524-1.957-4.31,0.335-5.141,0.817C65.324,25.041,66.096,25.875,66.827,25.451L66.827,25.451 M121.7,13.9c-2.848,1.525-1.219,3.767,1.468,2.823c2.587-0.907,9.34-5.044,8.871-8.464 c-0.486-3.541-6.189-0.633-7.783,0.186c-5.092,2.617-10.513,7.374-12.511,12.877c-4.415,12.162,8.136,8.898,14.994,6.164 c6.131-2.444,11.966-5.75,17.511-9.31c3.855-2.475,8.073-5.234,10.932-8.885c0.428-0.545-0.978-0.537-1.273-0.199 c-3.19,3.661-6.363,7.338-9.518,11.029c-2.081,2.435-4.156,4.877-6.174,7.364c-0.387,0.477-1.867,1.805-1.685,2.483 c0.119,0.442,0.943,0.263,1.186,0.067c2.946-2.364,5.174-6.774,7.542-9.677c3.898-4.778,10.709-14.172,17.598-14.119 c7.113,0.055,0.976,5.682-1.125,7.38c-1.032,0.834-3.049,2.25-2.458,3.823c1.246,3.314-5.274,7.778-7.5,9.231 c-2.944,1.921-0.261,0.86,0.311,0.525c1.418-0.831,2.85-1.638,4.287-2.438c3.434-1.91,6.994-3.929,10.758-5.113 c2.358-0.742-0.24,2.789-0.376,2.986c-0.672,0.969-1.544,2.053-1.858,3.212c-1.414,5.212,8.232,1.18,9.75,0.343 c1.81-0.997,3.564-2.075,5.316-3.171c1.087-0.68,2.175-1.341,3.313-1.933c0.923-0.479,0.574-1.155-0.365-0.43 c-2.203,1.698-4.559,3.557-5.954,6.004c-2.259,3.961,6.208,0.792,7.006,0.35c0.855-0.476-0.4-0.813-0.924-0.523 c-0.563,0.313-1.147,0.576-1.734,0.84c-3.361,1.514-2.344-1.712-0.871-3.213c1.301-1.325,2.791-2.5,4.279-3.604 c0.614-0.456-0.043-0.846-0.573-0.678c-1.846,0.584-3.465,1.65-5.101,2.664c-1.077,0.668-13.032,7.688-12.833,3.738 c0.072-1.422,5.121-6.468,3.256-7.521c-2.33-1.314-7.429,2.075-9.275,3.001c-3.54,1.775-7,3.739-10.397,5.771 c-0.569,0.341-0.102,0.753,0.377,0.715c3.512-0.28,12.062-7.254,10.56-11.147c-1.475-3.822,13.43-7.827,3.959-11.487 c-5.424-2.096-12.022,5.101-15.204,8.359c-2.809,2.878-5.358,6.009-7.841,9.168c-1.495,1.902-2.955,4.903-4.843,6.419 c0.396,0.022,0.791,0.045,1.187,0.067c-0.097-0.36,2.322-2.891,2.787-3.453c2.011-2.435,4.067-4.833,6.121-7.231 c2.719-3.176,5.455-6.339,8.202-9.49c-0.424-0.066-0.849-0.133-1.273-0.199c-3.731,4.763-9.753,8.111-14.869,11.146 c-6.423,3.811-13.761,7.813-21.243,8.938c-10.585,1.594-2.828-11.819,0.549-15.245c1.539-1.561,9.433-8.528,12.076-6.25 c1.458,1.257-1.865,4.182-2.648,4.913c-0.899,0.84-1.92,1.53-2.944,2.203c-0.438,0.248-0.877,0.496-1.316,0.744 c-1.167,0.874-1.542,0.521-1.122-1.059C123.177,14.13,122.374,13.539,121.7,13.9L121.7,13.9 M196.725,23.306c0.17-4.44-4.967,1.193-5.56,2.078c-3.017,4.495,0.48,3.614,3.481,2.194 c5.774-2.73,11.375-5.87,16.9-9.067c5.057-2.926,10.857-5.946,14.861-10.306c0.344-0.374-1.085-0.115-1.316,0.09 c-7.194,6.354-14.64,12.535-21.5,19.25c-0.328,0.32,1.06,0.162,1.316-0.09c3.84-3.759,7.972-7.246,11.985-10.816 c2.292-2.039,4.588-4.074,6.885-6.107c0.688-0.608,1.374-1.216,2.062-1.824c1.516-1.339-1.547,0.413-2.05,0.871 c-5.813,5.282-13.498,9.047-20.331,12.779c-2.788,1.523-5.604,2.996-8.45,4.41c-0.083,0.041-4.239,2.14-3.48,0.11 c0.262-0.701,3.832-5.394,3.747-3.184C195.266,23.945,196.707,23.751,196.725,23.306L196.725,23.306 M224.771,12.572c-0.544,2.192-1.542,4.196-2.924,5.98c-1.487,1.922-6.703,2.356-7.595,4.691 c-1.051,2.754,2.802,2.897,4.533,2.85c4.694-0.131,9.514-1.382,14.018-2.611c2.601-0.71,6.634-1.482,8.428-3.739 c0.162-0.203,0.191-0.387-0.027-0.557c-0.008-0.006-0.016-0.013-0.024-0.019c-0.275-0.214-0.779-0.054-1.032,0.11 c-1.404,0.909-7.063,6.258-2.509,6.089c4.342-0.162,9.05-2.76,13.204-3.955c2.423-0.696-1.658,2.872-2.276,3.618 c-0.503,0.606-1.643,1.725-1.31,2.624c0.093,0.251,0.407,0.305,0.644,0.275c1.866-0.229,3.793-1.674,5.483-2.461 c3.244-1.511,6.581-2.961,10.021-3.961c1.785-0.519-2.525,3.352-2.159,4.718c0.438,1.637,3.945,0.183,4.622-0.042 c0.857-0.284,0.643-1.158-0.232-0.867c-6.594,2.188,2.411-4.241-0.083-4.953c-2.567-0.732-6.997,1.873-9.224,2.803 c-2.17,0.906-4.312,1.889-6.411,2.947c-0.67,0.337-1.534,1.271-0.7-0.03c1.033-1.614,2.545-3.045,3.879-4.413 c1.889-1.939-1.541-1.364-2.485-1.126c-2.578,0.652-5.093,1.621-7.621,2.44c-2.011,0.65-7.457,2.533-4.203-1.055 c0.532-0.587,1.122-1.123,1.713-1.649c1.523-1.358-1.535,0.022-1.726,0.127c-2.203,1.216-4.802,1.824-7.212,2.482 c-3.005,0.82-6.067,1.442-9.146,1.909c-1.15,0.176-2.308,0.282-3.469,0.354c-3.718,0.232-0.921-3.187,1.108-4.036 c3.406-1.427,5.331-5.288,6.175-8.689C226.386,11.799,224.912,12.003,224.771,12.572L224.771,12.572 M271.678,25.028c0.479-0.978,1.066-1.881,1.681-2.778c1.334-1.948,3.141-3.234,5.394-3.878 c1.026-0.293,5.014-0.561,3.653,1.474c-0.512,0.765-3.786,4.556-3.239,5.436c0.226,0.363,1.04,0.061,1.257-0.153 c3.405-3.368,7.726-5.479,12.431-6.49c0.893-0.191,0.668-0.964-0.207-0.775c-5.061,1.088-9.736,3.373-13.396,6.991 c0.419-0.051,0.838-0.102,1.257-0.153c-0.217-0.349,3.543-5.134,3.895-5.933c0.61-1.386-1.988-1.538-2.688-1.575 c-5.221-0.279-9.226,3.365-11.392,7.779C270.002,25.624,271.456,25.479,271.678,25.028L271.678,25.028 M296.525,17.194c0.147,0.712-0.026,1.463-0.361,2.093c-0.529,0.995-1.833,1.239-2.228,2.379 c-0.233,0.674,0.124,1.217,0.76,1.453c1.146,0.427,2.603-0.224,3.627-0.683c0.905-0.405,0.102-1.208-0.646-0.873 c-0.183,0.081-2.308,1.047-2.348,0.369c-0.042-0.712,1.085-1.165,1.496-1.559c0.947-0.906,1.419-2.268,1.149-3.568 C297.832,16.12,296.381,16.497,296.525,17.194L296.525,17.194 M314.913,15.428c-3.075,0.665-8.364,1.821-9.795,5.032c-0.958,2.152,8.076-0.114,8.301-0.181 c7.893-2.354,14.729-7.163,21.188-12.118c0.451-0.346,7.269-5.673,3.138-4.843c-3.745,0.753-7.072,3.618-9.854,6.045 c-4.457,3.889-8.549,8.22-12.617,12.506c-4.365,4.599-8.632,9.29-12.974,13.911c-1.64,1.744-3.29,3.48-5.024,5.131 c-0.435,0.414-0.887,0.808-1.352,1.186c-0.592,0.575-1.209,0.291-1.852-0.853c-1.127-1.916,2.332-4.624,3.251-5.403 c0.62-0.525-0.825-0.454-1.146-0.182c-1.868,1.583-5.975,5.681-1.973,7.333c1.348,0.558,2.541-0.42,3.484-1.23 c6.322-5.429,11.684-12.195,17.373-18.259c6.378-6.797,13.259-15.603,22.072-19.296c0.788-0.33-1.46,1.97-1.634,2.121 c-1.436,1.255-2.986,2.384-4.515,3.521c-3.983,2.967-8.104,5.688-12.606,7.801c-3.271,1.535-6.999,2.929-10.644,3.123 c0.018-1.879,0.908-2.973,2.67-3.282c0.896-0.359,1.808-0.669,2.736-0.928c0.64-0.191,1.293-0.35,1.945-0.491 C315.965,15.883,315.776,15.24,314.913,15.428L314.913,15.428 M306.635,30.502c12.124-2.628,24.786-6.031,35.688-12.069c-0.268-0.256-0.536-0.512-0.804-0.768 c-1.373,0.999-8.338,5.187-7.362,7.313c1.682,3.667,10.682-2.153,12.075-3.394c0.734-0.652-0.415-1.158-0.963-0.67 c-2.262,2.011-4.664,3.305-7.685,3.726c-3.98,0.555-0.128-2.349,0.501-2.889c1.407-1.206,2.899-2.325,4.396-3.417 c0.721-0.524-0.233-1.083-0.804-0.768c-10.783,5.974-23.31,9.329-35.313,11.931C305.454,29.696,305.735,30.696,306.635,30.502 L306.635,30.502 M241.567,12.248c1.948,1.382,4.511,1.383,6.601,0.351c0.861-0.425-0.492-0.367-0.836-0.197 c-1.41,0.696-3.16,0.23-4.399-0.649C242.599,11.516,241.354,12.097,241.567,12.248L241.567,12.248 M297.584,9.311c0.42,0.467,0.972,0.881,1.582,1.049c1.278,0.352,2.197-0.541,2.565-1.674 c0.113-0.349-0.445-0.452-0.658-0.434c-0.355,0.031-0.691,0.214-0.805,0.563c-0.042,0.13-0.251,0.61-0.301,0.625 c0.07-0.021-0.277-0.134-0.373-0.19c-0.255-0.15-0.483-0.341-0.679-0.56C298.502,8.229,297.121,8.796,297.584,9.311 L297.584,9.311z"/>
</svg>