<?xml version="1.0" encoding="UTF-8" standalone="no"?>
<!-- Created with Inkscape (http://www.inkscape.org/) -->

<svg
   xmlns:dc="http://purl.org/dc/elements/1.1/"
   xmlns:cc="http://creativecommons.org/ns#"
   xmlns:rdf="http://www.w3.org/1999/02/22-rdf-syntax-ns#"
   xmlns:svg="http://www.w3.org/2000/svg"
   xmlns="http://www.w3.org/2000/svg"
   xmlns:sodipodi="http://sodipodi.sourceforge.net/DTD/sodipodi-0.dtd"
   xmlns:inkscape="http://www.inkscape.org/namespaces/inkscape"
   version="1.1"
   width="334.88596"
   height="99.984993"
   id="svg2"
   inkscape:version="0.48.0 r9654"
   sodipodi:docname="model.svg">
  <metadata
     id="metadata7">
    <rdf:RDF>
      <cc:Work
         rdf:about="">
        <dc:format>image/svg+xml</dc:format>
        <dc:type
           rdf:resource="http://purl.org/dc/dcmitype/StillImage" />
      </cc:Work>
    </rdf:RDF>
  </metadata>
  <sodipodi:namedview
     pagecolor="#ffffff"
     bordercolor="#666666"
     borderopacity="1"
     objecttolerance="10"
     gridtolerance="10"
     guidetolerance="10"
     inkscape:pageopacity="0"
     inkscape:pageshadow="2"
     inkscape:window-width="1366"
     inkscape:window-height="746"
     id="namedview5"
     showgrid="false"
     inkscape:zoom="2.3424114"
     inkscape:cx="151.35589"
     inkscape:cy="56.342443"
     inkscape:window-x="-8"
     inkscape:window-y="-8"
     inkscape:window-maximized="1"
     inkscape:current-layer="svg2" />
  <defs
     id="defs4" />
  <path
     style="fill:#000000"
     d="m 263.6875,0.03125 c -2.41266,0.0786 -4.92415,0.32371 -8.3125,0.71875 -10.70638,1.2482399 -13.82763,2.28936 -18.125,6.0625 -3.13783,2.75506 -2.9265,6.258747 -1.46875,8.75 1.04841,1.791704 2.4933,3.645785 3.21875,4.71875 -6.29019,-0.380305 -13.65211,-1.302366 -20.4375,-0.15625 -1.92477,0.36178 -2.74109,0.0976 -2.625,-0.78125 1.17819,-8.9192 -4.14228,-16.41562 -10.96875,-15.5 -8.79895,1.18019 -14.40749,8.86045 -14.53125,19.90625 -0.0718,6.40695 0.21809,7.26873 7.25,20.84375 4.0326,7.78488 7.10698,14.39302 6.8125,14.6875 -1.03181,1.03182 -5.33775,-0.68727 -10.9375,-4.375 -3.10747,-2.04643 -5.47373,-3.87002 -5.28125,-4.0625 0.19247,-0.19247 2.39761,0.14957 4.90625,0.78125 7.58967,1.9111 7.28794,0.59288 -0.5,-2.1875 -4.02239,-1.43603 -8.1,-2.94507 -9.0625,-3.34375 -2.94182,-1.21854 -2.05295,1.82079 1.5,5.125 9.0202,8.3887 18.15621,12.90138 21.125,10.4375 1.20368,-0.99896 1.20199,-1.77133 -0.15625,-5.375 -0.87231,-2.3144 -1.93072,-4.65618 -2.34375,-5.21875 -0.69843,-0.95129 -5.10148,-9.01714 -8.71875,-15.96875 -2.38437,-4.58223 -2.715,-13.75355 -0.6875,-19.0625 3.13203,-8.2010994 13.25701,-12.34851 17.5625,-7.1875 1.9409,2.326569 2.88223,15.49277 1.21875,17.15625 -0.4125,0.4125 -0.77525,1.03958 -0.78125,1.40625 -0.0507,2.91924 -4.62881,10.644894 -9.09375,15.34375 -0.72264,0.760498 -2.89379,1.809346 -2.84375,1.96875 0.0523,0.166621 2.36394,-0.57935 3.375,-0.84375 3.35088,-0.876278 8.67741,-8.21858 10.46875,-14.46875 l 1.625,-5.6875 3.25,3 c 2.70226,2.507544 5.84019,5.113321 8.03125,6.78125 l -0.0625,0.09375 c 0.96659,0.607572 2.05681,1.561283 3.15625,2.71875 -2.50236,1.299573 -5.375,5.26633 -5.375,8.96875 0,4.69823 -1.89188,7.60327 -6.09375,9.34375 -2.83851,1.17574 -3.33674,1.11382 -4.5625,-0.5625 -1.59894,-2.18667 -0.87276,-5.28228 1.78125,-7.59375 2.20838,-1.92337 2.4331,-3.875 0.4375,-3.875 -2.28279,0 -5.5625,4.9775 -5.5625,8.4375 0,1.85116 0.86214,4.11553 2.09375,5.4375 2.49164,2.67447 5.65578,2.27041 10.40625,-1.34375 l 3.03125,-2.3125 2.96875,2.375 c 6.3444,4.144934 10.11151,-0.151757 9.40625,-5.5625 -0.30176,-2.012037 -1.17166,-4.214905 -2.34375,-6.40625 -0.81967,-1.532461 -1.77864,-3.036145 -2.8125,-4.4375 0.0578,-0.357036 0.0945,-0.720198 0.0625,-1.0625 -0.011,-0.03302 -0.0204,-0.03368 -0.0312,-0.0625 -8e-4,-0.07712 -0.004,-0.168359 -0.0312,-0.25 -0.32979,-0.98937 -0.94316,-1.47732 -1.6875,-1.53125 -0.20537,-0.01488 -0.43288,0.01791 -0.65625,0.0625 -0.96631,-1.046406 -1.94024,-1.931845 -2.875,-2.625 -1.03796,-1.171571 -2.51113,-2.734129 -4.1875,-4.4375 -5.47728,-5.56552 -5.58103,-5.75409 -3.25,-6.40625 3.31579,-0.92766 18.17791,-1.02745 19.40625,-0.125 0.55,0.40407 3.36045,4.21614 6.25,8.46875 l 5.25,7.71875 -5.9375,10 c -3.41453,5.75048 -5.51284,10.26942 -4.9375,10.625 0.55026,0.3401 1.1573,0.47382 1.34375,0.28125 4.6512,-5.013423 9.43664,-10.319889 11.78125,-17.25 l 2.375,2.9375 c 2.14044,2.67987 8.375,13.61515 8.375,14.6875 0,0.24663 -4.8375,1.21922 -10.75,2.15625 -5.9125,0.93704 -12.1,2.1187 -13.75,2.625 -1.65,0.5063 -7.95,1.22439 -14,1.59375 -6.05,0.36936 -11.45,1.00481 -12,1.40625 -0.55,0.40143 -4.86563,0.96644 -9.5625,1.28125 -5.20222,0.34869 -12.23706,1.73128 -18,3.53125 -5.20313,1.62513 -10.3375,3.17936 -11.4375,3.46875 -17.68736,4.65318 -27.5,8.76867 -27.5,11.5 0,6.66171 16.20485,10.96799 45.5,12.09375 38.86327,1.49346 103.38653,-0.40246 118,-3.46875 9.02223,-1.89309 23.5,-6.55768 23.5,-7.5625 0,-0.42775 -1.72889,-0.17263 -3.8125,0.5625 -8.68848,3.06547 -27.28437,6.47916 -38.1875,7 -69.03662,3.2979 -123.08142,1.90233 -137.6875,-3.5625 -10.09704,-3.77779 -6.19869,-7.1817 14.6875,-12.90625 22.1168,-6.06185 23.75031,-8.00075 32.1875,-8.6875 5.71962,-0.46556 11.40043,-1.03413 17,-2.34375 3.025,-0.55536 11.1375,-0.5375 15.8125,-1.40625 8.48251,-1.57629 24.81869,-4.28094 30.5,-5.03125 1.65,-0.21791 8.4,-1.51462 15,-2.90625 28.53103,-6.01587 43.10351,-13.84137 44.21875,-23.75 C 326.26988,20.51254 304.2049,4.11796 278.375,1.0625 271.43867,0.24199007 267.70861,-0.09973 263.6875,0.03125 z m -1.03125,1.875 c 9.87989,0.0367 23.4884,2.07535 32.15625,5.15625 5.21181,1.85249 10.93678,4.17259 15.21875,7.3125 8.62252,6.32278 12.894,14.70537 12.59375,20.375 -0.46478,8.77671 -12.73027,14.95718 -32.15625,20.28125 -6.74635,1.84897 -14.76244,3.68142 -17.8125,4.0625 l -5.5625,0.6875 L 266,54.9375 c -2.25201,-9.82402 -3.10212,-18.00891 -2.5,-23.96875 0.60359,-5.97437 -0.79141,-9.66582 -2.09375,-5.5625 -0.32405,1.021 -1.6178,2.81892 -2.875,4 L 256.25,31.5625 255.03125,28.15625 c -1.22668,-3.39233 -5.85008,-6.36782 -12.25,-7.90625 -2.85899,-0.68725 -6.36638,-6.17053 -5.78125,-9.03125 0.55431,-2.7100594 8.674,-6.75802 17.34375,-8.65625 2.14109,-0.46879 5.0192,-0.6685 8.3125,-0.65625 z M 59.9375,21.59375 C 45.86378,21.58225 25.1256,32.60493 9.75,48.71875 c -12.63416,13.24077 -13.04165,28.59355 -1,37.4375 4.78554,3.51474 15.3929,8.0099 20.625,8.75 5.15295,0.7289 12.01575,0.24823 11.53125,-0.8125 -0.25122,-0.55 -1.893512,-1.519005 -3.65625,-2.125 -1.693393,-0.582156 -2.260506,-0.587505 -2.75,-0.53125 1.289146,0.503631 4.91028,1.334434 4.09375,2.3125 C 38.333718,94.061475 33.433985,93.458877 31.75,93.125 1.8312786,87.193126 -5.9965204,67.83916 13.78125,48.6875 35.17289,27.97305 59.85923,18.35943 69.25,27.0625 c 4.79206,4.44113 2.3877,9.00708 -7.375,14.03125 -7.33503,3.77482 -8.60131,4.5604 -5.4375,6.46875 0.62248,0.37544 5.92185,-0.55701 6.875,-0.0625 1.27601,0.66202 -1.651994,2.648993 -2.09375,3.4375 2.477859,-0.14553 3.28079,0.05271 4.65625,-1.125 3.38745,-2.90042 2.61876,-5.5121 -1.5,-5.03125 -1.925,0.22471 -3.5,0.28098 -3.5,0.15625 0,-0.12474 2.6318,-1.81111 5.875,-3.78125 6.20166,-3.76731 7.125,-4.98181 7.125,-9.53125 0,-3.64542 -5.22403,-8.80131 -9.78125,-9.65625 -1.29968,-0.24382 -2.70035,-0.37381 -4.15625,-0.375 z m 182.59375,0.75 3.40625,0.75 c 6.95252,1.52703 9.90933,5.38478 8.5,11 -0.34511,1.375 -0.94173,2.4584 -1.34375,2.4375 -0.68315,-0.0355 -4.19615,-4.62368 -8.65625,-11.3125 z m 19.3125,7.25 c 0.15618,0.0363 0.0299,0.44007 -0.25,1.1875 -0.34765,0.92847 -0.21634,5.61471 0.28125,10.4375 0.49758,4.8228 1.85273,11.312384 1.9375,11.8125 -0.52376,-0.438463 -7.9375,-12.19748 -7.9375,-13.78125 0,-2.35997 2.4084,-6.97101 4.59375,-8.75 0.77623,-0.63189 1.21882,-0.9426 1.375,-0.90625 z m -87.5625,6.46875 c -2.54068,0.0583 -5.89997,2.05811 -9.9375,6 -5.73893,5.60299 -7.25454,9.5834 -6.0625,15.9375 0.9222,4.91576 6.4131,9.49152 10.5625,8.875 0.88203,-0.131052 2.20721,-0.777753 2.6875,-3.3125 0.8668,2.673826 2.42387,4.602164 3.71875,5.6875 2.07268,1.329481 4.77809,1.564303 5.96759,-0.651894 -6.56433,0.02403 -9.26032,-5.205917 -6.31134,-12.6294 0.74618,-1.87837 0.72321,-3.02679 0,-3.75 -1.62515,-1.62514 -5.27698,4.169203 -4.03125,8.5 -1.11004,5.499263 -3.74619,5.336623 -7.5625,1.21875 -4.00547,-4.321979 -3.10765,-11.93707 2,-16.875 3.35831,-3.24672 7.90092,-6.46875 9.0625,-6.46875 1.92741,0 3.78974,6.51943 3.03125,10.5625 -0.36958,1.97006 -0.23663,3.4375 0.3125,3.4375 1.32258,0 2.43638,-7.32308 1.65625,-10.875 -0.84119,-3.82992 -2.55307,-5.71456 -5.09375,-5.65625 z m 57.875,2.53125 c 0.021,0 0.0421,0.004 0.0625,0 0.0508,0.06466 0.10569,0.122209 0.15625,0.1875 -1.02096,2.880702 -2.58435,5.684198 -4.03125,8.34375 -0.211,0.08598 -0.16234,-0.12158 -0.5,-1.03125 -0.9697,-2.612407 1.84123,-7.5 4.3125,-7.5 z m -98.59375,0.125 c -1.68838,0.143222 -3.43713,0.743296 -4.65625,1.03125 1.89576,0.854301 2.43185,0.685136 3.15625,1.21875 1.89746,1.397721 1.03764,6.11952 -3.1875,17.59375 -2.55955,6.95098 -2.65849,13.53469 -0.25,14.9375 2.18158,1.27061 1.73181,1.27268 4.59375,-0.03125 1.34046,-0.61076 2.98726,-2.19159 3.6875,-3.5 1.21678,-2.27357 1.3493,-2.27669 2.59375,-0.5 1.57428,2.2476 7.35715,5.125 10.3125,5.125 1.17938,0 3.29666,-1.17166 4.71875,-2.59375 2.31338,-2.31338 2.5498,-3.15353 2.0625,-7.875 -1.12195,-10.87062 -7.73913,-19.53125 -14.875,-19.53125 -3.56658,0 -3.84375,0.19753 -3.84375,2.78125 0,2.7218 2.19109,4.722361 4.375,6.15625 -0.7104,-1.660292 -0.81719,-1.90345 -1.4375,-3.0625 -1.86541,-3.48556 0.27167,-4.48 4.71875,-2.1875 4.87725,2.51425 8.19945,8.84108 8.28125,15.84375 0.0325,2.7775 -0.49625,5.59 -1.15625,6.25 -2.9355,2.9355 -10.8316,-0.146545 -12.3125,-4.8125 -0.49284,-1.552801 1.86551,-3.487659 2.8125,-5.6875 0.79396,-1.844356 0.76286,-3.333018 -0.5625,-4.375 -2.30071,-1.808787 -3.18079,-0.73093 -5.21875,6 -2.42197,7.99921 -6.42986,12.39099 -7.875,8.625 -0.54447,-1.41885 -0.0799,-3.35583 4.28125,-18.03125 2.62053,-8.81807 2.52888,-13.608075 -0.21875,-13.375 z m 119.90625,0.625 c -2.29521,4.452296 -4.43564,8.002548 -6.5625,11.53125 1.90819,-3.702133 4.09492,-7.713393 6.5625,-11.53125 z m -20.1875,0.6875 c 0.83371,1.17563 1.61317,2.407217 2.28125,3.65625 1.13533,2.122621 1.97422,4.254921 2.25,6.09375 1.37812,7.841726 -9.06353,3.502747 -8.65625,-2.03125 0.2543,-1.887356 3.05602,-4.885585 4.125,-7.71875 z m -138.65625,0.5 C 92.78175,40.37359 89.65748,44.56074 85.375,53 c -2.71534,5.35099 -3.5,8.11754 -3.5,12.28125 0,4.65695 -0.30051,5.48695 -2.25,6.21875 -1.6181,0.60741 -5.410327,1.943171 -3.173501,-1.672254 C 73.725662,70.798968 73.780326,72.874312 74,73.34375 c 0.305902,0.653705 0.497714,1.11648 2.96875,1.25 0.06272,0.0034 0.09056,-0.003 0.15625,0 0.167299,-0.0089 0.337718,-0.03016 0.53125,-0.03125 1.49523,-0.008 3.36807,-0.45067 4.1875,-0.96875 1.06823,-0.67538 2.20027,-0.28173 4,1.375 3.4397,3.1664 5.70356,3.79645 7.4375,2.0625 0.91277,-0.91277 1.67453,-1.0965 2.0625,-0.46875 1.24921,2.02127 6.12588,1.10294 7.46875,-1.40625 l 1.28125,-2.40625 3.125,1.90625 c 4.93562,3.00961 10.74327,2.44121 12.71875,-1.25 0.80135,-1.49734 0.0702,-4.96455 -3.25,-15.375 -2.35896,-7.39646 -4.62493,-13.4375 -5.03125,-13.4375 -0.89808,0 -2.08359,2.26958 -2.84375,5.28125 -0.62246,3.70143 -2.03651,7.16786 -3.1875,10.71875 -1.12204,3.575 -2.43633,6.62916 -2.90625,6.8125 -0.46991,0.18333 -0.84375,0.96547 -0.84375,1.71875 0,2.38765 -2.29463,6.46875 -3.625,6.46875 -2.329065,0 -2.296865,-1.56408 0.09375,-9.3125 2.33318,-7.56216 2.00415,-10.18603 -0.96875,-7.71875 -2.27302,1.88644 -5.5,9.39948 -5.5,12.78125 0,4.13139 -1.86077,5.12338 -4.1875,2.25 -1.82239,-2.25055 -1.81501,-2.31614 0.1875,-3.71875 4.13786,-2.89827 8.32048,-13.16156 8.625,-21.09375 0.20675,-5.38541 -0.44136,-8.12737 -1.875,-8.25 z m -67.40625,3.0625 c -1.11354,0 -1.34982,0.50627 -0.8125,1.75 0.98347,2.27648 3.81741,14.00149 5.375,22.1875 0.67458,3.54534 2.12016,8.15783 3.1875,10.25 2.49857,4.89759 4.90625,5.04762 4.90625,0.3125 l 0,-3.46875 3.25,1.96875 c 1.7875,1.08987 4.54496,1.373 5.75,1.375 1.20504,0.002 2.16008,1.075 2.5,1.625 0.85256,1.37946 5.81509,1.24741 7.25,-0.1875 0.90183,-0.90182 1.61119,-0.78513 3.03125,0.5 2.82878,2.56001 5.99529,2.07774 8,-1.21875 l 1.75,-2.90625 2.8125,2.40625 c 1.53914,1.32392 3.146054,2.021887 3.71875,1.84375 0.81544,-0.253643 1.579176,-0.80955 1.611983,-2.384775 C 78.387641,78.323154 77.009435,77.50935 76.78125,77.40625 75.937195,77.024884 75.0995,76.229131 74.5,75.0625 73.89544,73.886022 73.224621,72.907221 73.0625,70.875 c -0.01467,-0.05048 -0.02039,-0.09213 -0.03125,-0.15625 -0.118389,-0.698766 -0.03828,-2.189796 0.25,-4.875 0.42483,-3.95716 0.32233,-6.25 -0.3125,-6.25 -1.02786,0 -3.08375,6.11979 -3.09375,9.21875 -0.0114,3.52512 -3.21035,9.78125 -5,9.78125 -3.61367,0 -4.4799,-2.63243 -3.25,-9.8125 1.24923,-7.29299 0.85684,-8.1596 -3.8125,-8.1875 -4.45926,-0.0266 -10.65625,8.53332 -9.71875,13.4375 0.27294,1.42781 0.21769,1.98027 -0.21875,2.25 C 46.35098,77.22315 41.6916,73.00657 41,69.625 39.79066,63.71197 37.8564,64.70435 37.8125,71.25 l -0.03125,5.84375 -1.5,-3.4375 C 35.46127,71.76634 34.38963,67.25358 33.875,63.625 32.47496,53.75342 29.09678,43.59375 27.21875,43.59375 z m 66.9375,0.375 c 1.23177,-0.38533 0.80904,6.93441 -0.84375,12.5 -0.89877,3.02647 -3.04059,6.83063 -5,8.9375 L 84.90625,69.09375 84.875,64.875 c -0.025,-3.87665 5.98207,-17.70081 9,-20.71875 0.0971,-0.0971 0.19913,-0.16181 0.28125,-0.1875 z m 16.53125,4.125 1.09375,2.8125 c 0.59938,1.55685 1.59168,4.93185 2.21875,7.5 0.62708,2.56816 1.75533,5.88982 2.5,7.375 3.30437,6.59029 -0.1569,10.782315 -6.90625,8 -6.88503,-2.838252 -5.87895,-4.410464 2.90625,-3.25 -9.99056,-2.322759 -7.65394,-2.07458 -6.59375,-6.03125 1.51315,-5.647147 2.27349,-11.08667 4.78125,-16.40625 z m 30.59375,8.6875 c 0.0608,-0.02985 0.12659,-0.02648 0.1875,0 0.43394,0.18867 -1.90625,5.59375 -1.90625,5.59375 0,0 1.33107,-5.403312 1.71875,-5.59375 z m -82.84375,5.8125 c 0.99201,0 2.21764,0.60766 1.71875,1.40625 -1.09348,1.75035 -1.4967,3.6691 -1.65625,7.9375 -0.21872,5.85125 -7.625,7.50868 -7.625,1.71875 0,-3.26568 5.33005,-11.0625 7.5625,-11.0625 z m 38.125,1.53125 c 0.14959,-0.0234 0.21875,0.14368 0.21875,0.46875 0,0.825 -0.62023,2.625 -1.40625,4 -0.82589,1.44475 -1.4375,1.86685 -1.4375,1 0,-0.825 0.65148,-2.625 1.4375,-4 0.51618,-0.90297 0.93818,-1.42974 1.1875,-1.46875 z"
     id="path3883"
     inkscape:connector-curvature="0"
     sodipodi:nodetypes="ssssccsssssssssssssssssscscsccccccsssssssccccsccccsccssscccccccssssssssssssssssscssscssssssscccsscccsssssssssscssssscscscsssssccscccccscsscsssscccsscsssssssssccssscssccssssssscsscssssssssccccscccsssscssccsssscccssscccssssssssssssssccsssscccscsscsssssscssscccsssccccssccssscsccsccscsssccssscc" />
</svg>
