<?xml version="1.0" encoding="UTF-8" standalone="no"?>
<!-- Created with Inkscape (http://www.inkscape.org/) -->

<svg
   xmlns:dc="http://purl.org/dc/elements/1.1/"
   xmlns:cc="http://creativecommons.org/ns#"
   xmlns:rdf="http://www.w3.org/1999/02/22-rdf-syntax-ns#"
   xmlns:svg="http://www.w3.org/2000/svg"
   xmlns="http://www.w3.org/2000/svg"
   xmlns:sodipodi="http://sodipodi.sourceforge.net/DTD/sodipodi-0.dtd"
   xmlns:inkscape="http://www.inkscape.org/namespaces/inkscape"
   width="43.723049mm"
   height="28.195358mm"
   viewBox="0 0 154.92419 99.904812"
   id="svg2"
   version="1.1"
   inkscape:version="0.91 r13725"
   sodipodi:docname="Carl Sigismund Kunth, signature.svg">
  <defs
     id="defs4" />
  <sodipodi:namedview
     id="base"
     pagecolor="#ffffff"
     bordercolor="#666666"
     borderopacity="1.0"
     inkscape:pageopacity="0.0"
     inkscape:pageshadow="2"
     inkscape:zoom="1.4"
     inkscape:cx="2.5748522"
     inkscape:cy="67.998286"
     inkscape:document-units="px"
     inkscape:current-layer="layer1"
     showgrid="false"
     fit-margin-top="0"
     fit-margin-left="0"
     fit-margin-right="0"
     fit-margin-bottom="0"
     inkscape:window-width="1312"
     inkscape:window-height="747"
     inkscape:window-x="1200"
     inkscape:window-y="117"
     inkscape:window-maximized="1" />
  <metadata
     id="metadata7">
    <rdf:RDF>
      <cc:Work
         rdf:about="">
        <dc:format>image/svg+xml</dc:format>
        <dc:type
           rdf:resource="http://purl.org/dc/dcmitype/StillImage" />
        <dc:title></dc:title>
      </cc:Work>
    </rdf:RDF>
  </metadata>
  <g
     inkscape:label="Capa 1"
     inkscape:groupmode="layer"
     id="layer1"
     transform="translate(-473.56119,-110.18421)"
     sodipodi:insensitive="true">
    <path
       style="fill:#000000"
       d="m 508.48538,208.57346 c 0,-0.83355 1.54687,-2.77102 3.4375,-4.30548 3.4375,-2.78994 3.4375,-2.78994 -4.6875,-0.94134 -4.46875,1.01673 -9.99509,2.35794 -12.28075,2.98047 -8.2182,2.23832 -10.34523,-1.62207 -3.65675,-6.63672 5.90458,-4.42693 12.94796,-7.75516 32.06153,-15.15015 24.00328,-9.2868 56.72494,-18.80858 69.26122,-20.15454 4.25686,-0.45704 9.43685,-1.85242 11.51107,-3.10083 4.39122,-2.64295 10.05985,-8.38636 9.16268,-9.28354 -0.33964,-0.33964 -5.21686,1.60666 -10.83826,4.3251 -6.60519,3.1942 -10.22074,4.37363 -10.22074,3.33412 0,-0.88468 4.01376,-3.41318 8.91947,-5.61889 4.90572,-2.20571 8.69544,-4.23442 8.42162,-4.50825 -0.95117,-0.95115 -12.94739,2.16522 -15.9775,4.15063 -2.17801,1.42709 -3.18806,1.57653 -3.53904,0.52361 -0.34698,-1.04093 -1.40789,-1.12489 -3.61422,-0.28604 -5.09501,1.93711 -7.96033,1.47186 -7.96033,-1.29255 0,-2.4478 -0.0655,-2.4458 -5.05399,0.15435 -4.89198,2.54985 -8.63747,2.27499 -4.90981,-0.36029 1.92749,-1.36265 1.57448,-1.27232 -6.62481,1.69512 -2.46513,0.89216 -3.97358,0.8303 -5.2326,-0.2146 -1.33688,-1.10951 -2.42303,-1.11809 -4.44656,-0.0351 -1.47267,0.78815 -3.618,1.01971 -4.76741,0.51459 -1.1494,-0.50513 -2.79295,-0.80503 -3.65232,-0.66646 -3.43975,0.55464 -1.18759,-1.91956 4.70616,-5.17015 8.18549,-4.51456 10.44494,-4.31714 4.98134,0.43524 -4.78908,4.16567 -4.66911,4.16862 4.23942,0.10411 6.84755,-3.12417 9.22136,-2.55299 4.49191,1.08084 -3.89244,2.99072 -3.36838,3.00422 4.39367,0.11319 3.4375,-1.28033 8.42007,-2.66078 11.07238,-3.06767 4.59315,-0.70464 4.7945,-0.59396 4.23584,2.32849 -0.3226,1.68756 -0.0896,3.0683 0.51787,3.0683 2.57526,0 21.02617,-10.16766 28.09546,-15.48244 4.21935,-3.17216 8.01622,-5.76756 8.4375,-5.76756 2.3186,0 -0.1025,2.80028 -7.04655,8.15015 -4.29688,3.31042 -8.375,6.55537 -9.0625,7.21101 -2.18699,2.08563 8.33472,-0.34483 15.46355,-3.57199 7.20542,-3.26184 10.16145,-3.78232 10.16145,-1.78917 0,0.6875 -0.57456,1.25 -1.2768,1.25 -0.70224,0 -3.54028,1.4979 -6.30675,3.32866 -3.54115,2.34343 -4.5581,3.62027 -3.4358,4.31389 1.14764,0.70928 0.0231,2.49036 -4.01481,6.35884 -5.30033,5.07793 -5.4365,5.37361 -2.4749,5.37361 1.72373,0 3.2393,0.5625 3.36793,1.25 0.12863,0.6875 -0.98567,1.09299 -2.47622,0.90108 -2.62824,-0.33838 -2.6374,-0.29577 -0.30331,1.41096 2.28195,1.6686 2.29792,1.92601 0.3079,4.96317 -4.22364,6.44608 -25.96517,18.73115 -40.26224,22.75021 -4.125,1.15958 -12.5625,3.72094 -18.75,5.6919 -12.66241,4.03347 -39.85272,11.15768 -42.58448,11.15768 -0.98478,0 -1.79052,-0.682 -1.79052,-1.51554 z m 21.875,-5.26783 c 6.875,-1.68236 18.125,-4.80492 25,-6.93902 6.875,-2.1341 15.21044,-4.66011 18.52321,-5.61336 9.5971,-2.76158 26.92254,-12.0961 32.5539,-17.53925 4.84094,-4.67914 4.99121,-5.02579 2.34185,-5.40187 -1.63777,-0.23248 -2.48121,-0.96791 -2.00106,-1.7448 1.6735,-2.70778 -6.212,0.45078 -16.33369,6.5425 -12.47412,7.50752 -28.97828,14.45752 -48.83421,20.56435 -16.80441,5.16832 -20.83874,6.92246 -26.25,11.41355 -4.38287,3.63758 -5.49154,3.73234 15,-1.2821 z m -20.36135,-2.62506 c 4.32374,-1.10121 16.86135,-6.47547 27.86135,-11.94281 11,-5.46734 26.75,-12.44073 35,-15.49642 8.25,-3.05569 14.4375,-5.56377 13.75,-5.57351 -7.0904,-0.10049 -55.3664,14.94999 -74.375,23.18706 -10.60171,4.59408 -21.25,11.06215 -21.25,12.90785 0,1.11029 7.0215,-0.0279 19.01365,-3.08217 z m 43.48635,-13.38702 c 13.77537,-4.78812 36.94605,-15.29697 38.19945,-17.325 0.5529,-0.89462 -0.92094,-0.54517 -10.38695,2.46275 -10.36146,3.29246 -29.03924,10.89902 -38.9725,15.87163 -17.07518,8.54786 -16.07608,8.45749 11.16,-1.00938 z m -79.41891,-26.02559 c -1.73014,-2.79944 0.90639,-7.24176 9.09314,-15.32116 12.18491,-12.02513 25.29874,-21.3978 40.05339,-28.62682 14.42736,-7.06866 23.42648,-8.98833 24.84212,-5.29925 0.62907,1.63934 -0.29991,3.22574 -3.41531,5.83222 -5.29346,4.42875 -30.74429,17.5811 -32.73606,16.91717 -0.80115,-0.26705 4.3222,-3.5076 11.38523,-7.20123 7.06302,-3.69363 14.91851,-8.61207 17.45663,-10.92987 4.61477,-4.21418 4.61477,-4.21418 -0.0125,-3.59547 -6.24282,0.83474 -23.95453,9.26743 -34.96621,16.64771 -4.9424,3.31251 -13.66831,10.52274 -19.39091,16.02274 -9.94594,9.55904 -12.74787,14.375 -8.36341,14.375 2.4679,0 21.21693,-9.89991 50.47277,-26.65075 42.61787,-24.40147 51.80237,-27.38405 30.01212,-9.74614 -6.18083,5.00301 -11.52062,9.55388 -11.8662,10.11303 -0.34557,0.55916 5.97709,-2.76171 14.05038,-7.37972 14.05598,-8.04016 22.61294,-11.94384 23.73081,-10.82597 0.28695,0.28694 -4.16364,2.87471 -9.89019,5.75059 -16.1294,8.10019 -40.1674,22.61041 -43.53692,26.28049 -2.46557,2.68549 -16.09095,12.45847 -17.36946,12.45847 -3.39497,0 -0.14065,-3.43312 10.22438,-10.78611 11.97259,-8.49341 16.06556,-11.77815 25.29195,-20.29759 3.44953,-3.18521 7.88476,-7.05693 9.85607,-8.6038 1.97132,-1.54688 3.27131,-2.8125 2.88889,-2.8125 -0.38243,0 -9.93124,5.27568 -21.21957,11.72373 -40.14837,22.93329 -59.77776,33.27627 -63.15327,33.27627 -1.4418,0 -2.98885,-0.59447 -3.4379,-1.32104 z m 60.66891,-7.78326 c 2.40625,-2.22016 6.34375,-5.62558 8.75,-7.5676 2.40625,-1.94202 3.14636,-2.9228 1.64468,-2.17952 -1.50168,0.74328 -3.75168,1.32784 -5,1.29902 -2.8871,-0.0667 5.52962,-4.82004 8.66782,-4.89521 4.16986,-0.0999 2.08609,3.10211 -5.96863,9.17157 -4.45163,3.35443 -8.09387,6.5888 -8.09387,7.1875 0,0.5987 -0.98438,1.07332 -2.1875,1.05472 -1.64605,-0.0255 -1.10461,-1.03297 2.1875,-4.07048 z m 2.5,1.6043 c 0,-0.6875 0.87695,-1.25 1.94877,-1.25 1.07182,0 1.60113,0.5625 1.17623,1.25 -0.4249,0.6875 -1.30185,1.25 -1.94877,1.25 -0.64693,0 -1.17623,-0.5625 -1.17623,-1.25 z m -46.11368,-9.21074 c -1.1144,-1.34277 -1.13738,-2.04557 -0.0881,-2.69406 2.03865,-1.25996 4.56781,1.53877 2.89881,3.20778 -0.90397,0.90397 -1.76468,0.74665 -2.8107,-0.51372 z m 9.50149,-8.28926 c -0.4249,-1.62483 -0.0383,-2.5 1.10421,-2.5 0.96689,0 1.75798,1.125 1.75798,2.5 0,1.375 -0.4969,2.5 -1.10421,2.5 -0.60732,0 -1.39841,-1.125 -1.75798,-2.5 z"
       id="path3405"
       inkscape:connector-curvature="0" />
  </g>
</svg>
