<?xml version="1.0" encoding="UTF-8" standalone="no"?>
<!-- Created with Inkscape (http://www.inkscape.org/) -->

<svg
   xmlns:dc="http://purl.org/dc/elements/1.1/"
   xmlns:cc="http://creativecommons.org/ns#"
   xmlns:rdf="http://www.w3.org/1999/02/22-rdf-syntax-ns#"
   xmlns:svg="http://www.w3.org/2000/svg"
   xmlns="http://www.w3.org/2000/svg"
   version="1.1"
   width="600"
   height="315"
   id="svg2">
  <defs
     id="defs4" />
  <metadata
     id="metadata7">
    <rdf:RDF>
      <cc:Work
         rdf:about="">
        <dc:format>image/svg+xml</dc:format>
        <dc:type
           rdf:resource="http://purl.org/dc/dcmitype/StillImage" />
        <dc:title></dc:title>
      </cc:Work>
    </rdf:RDF>
  </metadata>
  <g
     transform="translate(-58.847553,56.751043)"
     id="layer1">
    <path
       d="m 268.45314,251.8553 c -26.36638,-5.4333 -44.68439,-16.4209 -51.23671,-30.73305 -3.20288,-6.996 -0.48335,-7.22856 -36.26329,3.10107 -38.89713,11.22956 -69.49054,17.63501 -84.227486,17.63501 -11.29851,0 -18.77251,-5.3061 -18.77251,-13.32737 0,-7.96298 13.8132,-15.76795 41.609446,-23.51087 20.30458,-5.65604 53.04526,-10.82222 83.39055,-13.15826 7.975,-0.61393 15.40495,-1.29746 16.511,-1.51894 1.10604,-0.22148 3.90152,-3.23361 6.21217,-6.69363 8.83661,-13.23211 16.87622,-20.07013 33.21825,-28.25349 17.14296,-8.58442 27.15027,-11.50387 43.95251,-12.82232 13.34671,-1.04731 15.14918,-0.97491 24.77492,0.9951 12.47805,2.55378 22.35341,6.95344 28.0041,12.47636 l 4.17295,4.0786 8.31972,-2.75958 c 8.84723,-2.93456 31.40852,-8.63508 41.26804,-10.42712 10.48886,-1.90642 20.79553,-1.39415 26.98018,1.34099 4.65665,2.0594 5.8515,3.17065 8.02851,7.46676 1.40671,2.77601 2.55765,6.56526 2.55765,8.42056 0,4.85443 -3.65518,18.44361 -6.0549,22.51083 -3.79912,6.43903 -3.45571,6.53654 20.3257,5.77092 55.55665,-1.7886 110.24147,-10.82502 128.52813,-21.23869 7.76703,-4.42308 10.20107,-7.17937 10.20107,-11.55163 0,-5.99616 -4.54889,-10.19536 -15,-13.84687 -6.95128,-2.4287 -9.95762,-2.94341 -16.5,-2.82492 -7.9355,0.14372 -14.6915,-0.68569 -17.41784,-2.13834 -2.3342,-1.24371 3.27921,-1.963 16.91784,-2.16782 4.96219,-0.0745 9.00205,0.0566 12.48024,0.47606 6.62727,0.79919 11.21537,2.64505 16.259,6.1092 7.83539,5.38164 10.9317,13.04177 8.19714,20.27937 -3.95075,10.45652 -21.70674,17.44618 -62.93638,24.77494 -22.50381,4.00016 -39.28254,5.64022 -67.5,6.59788 -14.3,0.48532 -29.58141,1.18608 -33.9587,1.55724 -7.51049,0.63684 -8.15812,0.88414 -11.5,4.39142 -4.55855,4.78418 -13.2616,11.82579 -19.23126,15.55995 -2.57947,1.61352 -7.32808,4.59179 -10.55245,6.61839 -29.9829,18.84498 -99.87411,33.17639 -130.75759,26.81225 z m 40,-4.92516 c 9.9,-1.05769 22.05,-2.81235 27,-3.89923 17.40147,-3.8209 48.30687,-15.46737 61.51567,-23.18173 12.46494,-7.27992 26.63917,-19.66934 24.70999,-21.59852 -0.78413,-0.78413 -40.14538,-1.86991 -68.22566,-1.882 l -24,-0.0103 -9.78965,4.86847 c -9.96854,4.95743 -28.87085,10.56709 -35.75025,10.60964 -5.71974,0.0354 -15.11639,-2.85115 -18.78457,-5.77036 -1.87136,-1.48926 -3.94202,-3.10222 -4.60148,-3.58435 -1.79249,-1.3105 -33.21279,7.91382 -38.51173,11.30621 -1.19832,0.76717 -0.88752,2.00431 1.86686,7.43087 3.90902,7.70139 5.47971,9.28815 14.07082,14.21479 10.51584,6.03038 13.28853,7.22657 21.96238,9.47494 16.29213,4.22312 24.66665,4.57192 48.53762,2.0216 z m -184.5,-13.09585 c 22.91832,-4.61386 80.38384,-20.4351 86.91004,-23.92782 1.14948,-0.61518 2.10364,-0.76517 2.12037,-0.33332 0.0919,2.37244 1.84868,-2.97635 2.45181,-7.46482 l 0.70546,-5.25 -8.9847,0 c -26.99102,0 -94.59803,13.11643 -111.419556,21.61649 -5.09658,2.57535 -11.78342,8.66196 -11.78342,10.72571 0,7.39563 16.681816,9.32812 39.999996,4.63376 z m 115.25,-32.05876 c 8.6625,-2.79756 15.75055,-5.38589 15.75123,-5.75184 10e-4,-0.7533 -22.7771,-0.43771 -27.73908,0.38431 -3.95811,0.65572 -6.12921,4.57549 -5.37284,9.70033 0.17396,1.1787 0.70508,1.04614 17.36069,-4.3328 z m 58.61017,1.59784 c 9.91531,-3.00259 17.13983,-6.16837 17.13983,-7.51067 0,-0.72078 -5.75631,-1.02155 -17.75,-0.92747 -14.47254,0.11353 -18.74529,0.4837 -23.14029,2.00479 -6.76863,2.34259 -6.93884,2.53362 -4.46322,5.00924 5.32477,5.32478 13.90284,5.75776 28.21368,1.42411 z m 132.01232,-13.0612 c 5.66636,-4.76793 11.00999,-20.2329 9.5958,-27.77115 -1.97422,-10.52354 -7.87737,-12.74826 -27.10622,-10.21556 -13.79042,1.81639 -25.29137,4.67504 -41.36207,10.28085 -11.41935,3.98332 -11.51889,4.04561 -14.19414,8.88174 -1.48178,2.67865 -4.96928,7.5508 -7.75,10.827 -2.78072,3.27619 -5.05586,6.25572 -5.05586,6.62117 0,1.44871 11.98242,2.22456 44.5,2.88129 18.7,0.37768 34.97797,0.76636 36.17327,0.86375 1.19531,0.0974 3.53495,-0.9687 5.19922,-2.36909 z m -175.26995,-1.21915 c 0.6064,-0.40408 1.91719,-3.20897 2.91287,-6.23308 3.59373,-10.91501 19.19429,-22.68462 35.13759,-26.50904 0,0 4.59128,-0.73545 6.88514,-0.46583 2.29386,0.26962 6.06649,1.69139 6.06649,1.69139 6.78449,3.44147 9.20488,6.31879 10.89294,12.94934 1.15009,4.51749 1.41845,4.80956 4.11637,4.48015 4.19705,-0.51245 27.56317,-10.03526 29.72671,-12.11506 1.5994,-1.5375 1.66493,-2.05597 0.5,-3.95584 -1.88091,-3.06752 -10.00479,-7.41948 -18.84065,-10.09291 -6.03058,-1.82465 -9.85107,-2.26499 -19.5,-2.24752 -18.41639,0.0333 -34.80001,4.72181 -53.5,15.31 -14.59174,8.26204 -21.31963,13.66159 -27.83411,22.33857 -3.97627,5.2962 -3.39915,5.61668 10.08411,5.59983 6.7375,-0.008 12.74614,-0.34592 13.35254,-0.75 z m 76.67958,-0.59344 c 3.93896,-1.66322 17.71788,-14.28884 17.71788,-16.23488 0,-0.77351 -0.20907,-1.40637 -0.46461,-1.40637 -0.25553,0 -5.54303,1.839 -11.75,4.08668 -6.20696,2.24767 -13.2452,4.77796 -15.64052,5.62286 -2.39532,0.84489 -5.9631,2.94339 -7.92838,4.66332 l -3.57326,3.12714 4.42839,0.59981 c 7.98496,1.08153 13.93885,0.92289 17.2105,-0.45856 z m -35.0839,-4.09296 c 6.74189,-2.44844 12.86179,-5.26094 13.59978,-6.25 1.57916,-2.11643 0.87582,-8.49818 -1.27502,-11.56895 -2.35452,-3.36154 -6.80965,-5.71579 -10.82959,-5.72275 -5.06691,-0.009 -20.11843,6.30021 -25.4726,10.67706 -3.92169,3.20586 -7.91392,9.43325 -9.65867,15.06635 -0.69365,2.23953 -0.64551,2.25 10.34061,2.25 10.56138,0 11.56627,-0.19203 23.29549,-4.45171 z M 88.816484,125.45773 c -0.88196,-1.93568 -0.57859,-3.94762 1.56645,-10.38857 3.94276,-11.83906 10.505036,-24.168134 34.935926,-65.636984 4.18841,-7.10939 7.4355,-13.10596 7.21574,-13.32572 -0.5691,-0.56909 -7.46338,4.65276 -22.24147,16.8461 -22.566906,18.61985 -28.959026,22.38902 -36.706936,21.64454 -9.8291,-0.94445 -12.98772,-8.58169 -8.70158,-21.03956 6.24017,-18.13738 26.69602,-49.2296716 44.430956,-67.533732 12.39646,-12.79427 26.90673,-23.16547 32.41065,-23.16547 6.59417,0 8.82776,7.90222 5.30173,18.75696 -3.27122,10.0703504 -15.07667,33.427102 -22.51592,44.547142 -7.75331,11.58949 -8.24893,13.19906 -3.24315,10.53225 8.28109,-4.41171 26.03077,-21.27103 32.46487,-30.8363518 10.80625,-16.0652302 26.07754,-33.3644102 41.6731,-47.2069302 11.2496,-9.98507 16.18272,-12.33706 19.52738,-9.31019 2.37713,2.15128 1.93647,4.93794 -1.80531,11.41652 -3.50351,6.06602 -26.79533,29.04586 -43.67578,43.0907604 -17.6411,14.6777816 -21.93951,19.4922616 -30.75794,34.4507116 -3.91006,6.63252 -8.56013,14.08413 -10.33349,16.55913 -1.77337,2.475 -6.48321,10.575 -10.46632,18 -3.9831,7.425 -8.59583,15.48466 -10.2505,17.91036 -3.39311,4.974186 -12.948106,26.166614 -12.155196,26.959514 0.91052,0.91052 12.260786,-10.88132 28.270066,-29.369874 8.57243,-9.9 27.08534,-29.63734 41.13981,-43.86076 14.05446,-14.22342 26.0121,-26.37342 26.57252,-27.00001 0.56043,-0.62657 4.84195,-5.41423 9.51449,-10.6392318 4.67255,-5.2249998 10.7101,-12.6499998 13.41679,-16.4999998 13.48494,-19.1810404 22.82668,-29.0984404 26.19272,-27.8067704 3.83156,1.47031 -0.002,8.51929 -11.04788,20.31594 -8.95868,9.5673304 -24.78062,31.033412 -29.3571,39.829622 -3.65684,7.02864 -9.1666,16.43676 -25.56968,43.66121 -8.05038,13.36135 -18.88931,34.336944 -18.43992,35.685114 0.51338,1.54014 2.30552,-0.45408 12.2657,-13.648904 10.03356,-11.711431 19.93381,-24.735504 27.99838,-33.61088 2.79254,-3.066062 9.7708,-11.39106 15.50723,-18.5 5.73643,-7.10893 14.44804,-17.41747 19.35912,-22.90787 4.91109,-5.4903918 13.3474,-15.2299816 18.74735,-21.6435316 12.76427,-15.1601904 25.01012,-28.0630104 28.3105,-29.8293204 2.00305,-1.072 2.9005,-1.12746 3.79354,-0.23442 1.6942,1.6942 -0.35759,5.46827 -11.14619,20.50237 -5.05693,7.0469 -10.93857,16.3078804 -13.07032,20.5799404 -3.7584,7.5318916 -4.29879,9.7297316 -7.03383,28.6075016 -2.97631,20.54311 -19.79852,54.59015 -36.39832,73.667794 -4.14014,4.75814 -13.72964,11.8322 -16.03957,11.8322 -4.39266,0 -4.34642,-7.29731 0.13137,-20.731458 5.9478,-17.844396 15.65531,-33.515286 19.78076,-31.932206 2.31086,0.88676 1.93356,5.63636 -1.43776,18.09941 -1.627,6.01466 -2.69787,11.18966 -2.37971,11.5 0.96925,0.94544 5.72398,-5.4139 12.29303,-16.44165 13.39718,-22.49039 15.7729,-29.42003 20.05382,-58.49409 1.22388,-8.31204 3.99178,-18.15411162 5.38117,-19.13435162 0.49452,-0.34889 0.73178,-1.09135998 0.52724,-1.64994998 -0.38063,-1.03952 -5.45845,4.63133 -39.09109,43.6565016 -22.80228,26.45832 -36.3711,43.28431 -44.85937,55.627796 -8.48343,12.336448 -12.69054,17.388088 -16.32888,19.606718 -3.75389,2.28909 -4.03865,2.30431 -6.02111,0.32185 -4.22853,-4.22853 -0.37784,-14.14586 15.84781,-40.815554 10.76599,-17.69578 24.58076,-43.09923 24.58076,-45.20062 0,-1.12671 -14.25381,11.89471 -27.47348,25.09812 -12.08869,12.07383 -24.12678,25.26485 -45.67166,50.045824 -10.72222,12.33271 -20.197876,21.44366 -22.302056,21.44366 -0.87762,0 -2.08788,-1.08027 -2.68946,-2.4006 z m 115.936656,-18.7994 c 1.46207,-1.46207 1.60447,-7.799998 0.17525,-7.799998 -1.18834,0 -2.97525,4.243238 -2.97525,7.065098 0,2.20673 1.05205,2.48285 2.8,0.7349 z M 84.453144,65.827506 c 3.3,-1.58871 9.25754,-5.4942 13.23897,-8.67887 6.037356,-4.82916 7.151966,-6.1744 6.714876,-8.10431 -0.39592,-1.74814 0.57335,-3.53463 3.96363,-7.30543 9.57158,-10.6459 27.04685,-41.52593162 32.70221,-57.787112 1.03417,-2.9736 1.88031,-7.19535 1.88031,-9.38167 l 0,-3.97512 -4.05701,0.54416 c -6.49086,0.87061 -14.41864,6.44763 -25.30066,17.79846 -13.604606,14.1907104 -25.073366,29.104152 -32.586526,42.374012 -10.83957,19.14501 -13.72334,28.42136 -10.67063,34.32465 2.56624,4.96256 4.15922,4.98414 14.11483,0.19123 z M 175.99051,-9.1416656 c 14.90134,-12.9107804 34.06989,-33.0000004 31.48765,-33.0000004 -1.70055,0 -8.77464,4.39708 -14.71894,9.14891 -8.53948,6.82642 -30.25051,33.59652038 -24.4457,30.1420004 0.73096,-0.435 4.18561,-3.26591 7.67699,-6.29091 z m 71.5982,130.7227856 c -2.01675,-1.47468 -2.44014,-5.85482 -1.31453,-13.59944 0.69189,-4.76045 0.59301,-5.30435 -0.8627,-4.74574 -3.52316,1.35197 -6.01586,1.6048 -7.33646,0.74414 -1.90928,-1.24432 -0.69495,-2.78874 4.12686,-5.248648 5.58898,-2.85128 6.78479,-4.462496 13.99658,-18.858776 7.10962,-14.19233 14.40282,-23.01432 19.02609,-23.01432 2.8159,0 4.72859,2.3762 4.72859,5.87449 0,1.10328 -2.14905,4.84536 -4.77567,8.31574 -2.62661,3.47037 -5.50654,7.43477 -6.39984,8.80977 -0.89329,1.375 -4.1313,5.10459 -7.19557,8.28798 -3.76477,3.91113 -5.93757,7.153806 -6.70063,9.999996 -0.62107,2.316608 -1.53401,5.245688 -2.02876,6.509068 -1.28915,3.29198 -1.1194,9.20295 0.26429,9.20295 0.9665,0 14.20449,-10.96861 15.83618,-13.1214 0.275,-0.36282 7.39732,-7.759894 15.82738,-16.437954 8.43006,-8.67806 17.15379,-18.51481 19.38606,-21.85946 7.58533,-11.36522 13.81743,-16.27027 15.40749,-12.12665 0.77412,2.01733 -3.45141,9.37039 -7.40915,12.89304 -4.42319,3.93692 -7.31676,9.10212 -13.32447,23.78494 -5.8667,14.338174 -7.04575,17.867484 -5.96906,17.867484 0.42824,0 9.75838,-8.662498 20.73363,-19.249994 10.97525,-10.5875 22.55023,-21.44086 25.72217,-24.11859 3.35367,-2.83114 7.96701,-8.27149 11.02381,-13 2.89116,-4.47227 5.8994,-8.65773 6.68499,-9.30102 2.60849,-2.13597 6.46872,-2.57565 7.86305,-0.89558 1.99186,2.40005 -0.11564,6.30645 -6.97588,12.93034 -3.26763,3.15505 -7.73086,8.80088 -9.9183,12.54629 -5.15768,8.83117 -14.05172,27.02843 -14.05172,28.74991 0,2.743696 -0.5167,3.147916 23.07422,-18.05095 18.69929,-16.80323 28.73103,-24.84176 30.33505,-24.30778 2.35848,0.78515 1.5818,3.96487 -1.91346,7.8337 -7.86132,8.70154 -27.1042,42.827544 -24.61698,43.656614 1.37571,0.45857 10.84748,-7.665594 33.62117,-28.837714 26.89765,-25.00605 40.23296,-36.73569 42.62908,-37.49619 1.13973,-0.36174 2.56524,-0.16471 3.16778,0.43783 1.7027,1.7027 -7.25315,18.4174 -14.83594,27.68898 -11.6069,14.19192 -15.66476,19.97338 -18.14214,25.84811 -1.34071,3.17928 -2.21342,6.004736 -1.93937,6.278786 0.98794,0.98795 29.28913,-22.065076 37.73518,-30.737586 2.53802,-2.60607 6.54803,-8.2791 8.91112,-12.60673 2.3631,-4.32763 6.74822,-11.38173 9.74472,-15.67578 2.9965,-4.29406 5.16645,-8.0891 4.82211,-8.43343 -1.12998,-1.12998 -38.99695,-3.95631 -41.40764,-3.0906 -3.79448,1.36266 -8.1849,1.01638 -8.1849,-0.64556 0,-5.17368 12.91714,-6.62093 35.95362,-4.02827 9.11898,1.0263 17.70359,1.46292 21.13354,1.07487 4.37488,-0.49496 6.70274,-0.24096 9.59459,1.0469 3.35659,1.49482 7.80828,1.69086 36.81825,1.62138 18.15,-0.0435 37.05,-0.57695 42,-1.18551 57.40464,-7.0574 76.12304,-8.39605 84.57426,-6.04836 4.98258,1.38412 8.35199,5.16149 7.52899,8.44058 -0.79619,3.17228 -2.37323,3.29055 -3.52383,0.26426 -1.42596,-3.75057 -3.44996,-4.72469 -11.79428,-5.67638 -7.24601,-0.82642 -30.91561,0.118 -35.15453,1.40267 -0.89683,0.27181 -14.50611,2.08508 -30.24284,4.0295 -26.89114,3.32265 -30.3918,3.53531 -58.19655,3.53531 l -29.58431,0 -3.60954,5.438 c -1.98525,2.9909 -10.3343,11.81775 -18.55346,19.61521 -8.21915,7.79746 -14.94391,14.71202 -14.94391,15.36569 0,0.65367 -2.04543,5.31095 -4.5454,10.34951 -4.38444,8.83663 -7.55105,19.468476 -6.20071,20.818804 1.21842,1.21842 5.50296,-0.555408 10.60954,-4.392418 11.34874,-8.527276 21.39526,-17.880436 24.8494,-23.134416 3.93447,-5.9846 14.63293,-16.8371 18.79283,-19.06341 2.21387,-1.18483 2.76612,-1.15377 4.1535,0.23362 2.72191,2.7219 0.83432,6.04716 -9.09877,16.0288 -9.70526,9.75269 -11.99348,13.7361 -9.38751,16.34206 1.1583,1.1583 2.09147,1.21398 4.87965,0.2912 5.78397,-1.91429 26.0101,-15.98758 33.26063,-23.14265 3.76202,-3.7125 7.65743,-6.75 8.65645,-6.75 3.78602,0 2.87159,3.13105 -3.86852,13.24585 -9.48823,14.2389 -12.05235,19.75415 -9.184,19.75415 2.0104,0 10.96261,-4.40314 25.63291,-12.60752 13.88996,-7.76797 18.45,-9.40406 18.45,-6.61965 0,0.86515 -3.64572,6.57572 -8.94585,14.01259 -5.79213,8.12721 -4.23154,8.12018 7.86379,-0.0354 14.68928,-9.90464 13.96312,-9.5616 15.59566,-7.36747 1.2092,1.62515 1.18328,2.30873 -0.18956,5 -2.7218,5.3357 -12.37362,18.573634 -14.28981,19.599144 -2.72942,1.46074 -4.2185,-0.85238 -3.08747,-4.796038 0.49824,-1.73727 0.58666,-3.355966 0.19649,-3.597106 -0.39018,-0.24114 -3.95851,1.17435 -7.92964,3.145516 -6.10633,3.03105 -7.59202,3.414558 -9.63018,2.48592 -3.56848,-1.62591 -4.09894,-4.649786 -1.54156,-8.787716 1.20245,-1.9456 2.02243,-3.69826 1.8222,-3.89482 -0.20024,-0.19655 -4.76086,1.80378 -10.13472,4.44518 -11.35702,5.582296 -15.66203,6.650796 -19.40098,4.815306 -5.08754,-2.497536 -5.23277,-3.742796 -1.58006,-13.547916 0.84958,-2.28055 -1.77015,-1.29781 -7.04122,2.64138 -6.68731,4.99759 -16.4654,9.69633 -19.84331,9.53547 -3.72419,-0.17736 -6.097,-1.24048 -5.37522,-2.40833 0.34321,-0.55534 -0.0139,-0.75416 -0.80758,-0.44959 -0.78259,0.3003 -1.69184,-0.15485 -2.02055,-1.01146 -0.96038,-2.50271 -2.41462,-1.88621 -9.48425,4.02068 -9.55407,7.982694 -9.49497,7.938324 -14.39425,10.809484 -2.59426,1.52035 -5.97775,2.61236 -8.09411,2.61236 -3.0155,0 -3.89699,-0.5038 -5.16214,-2.95034 -2.02189,-3.9099 -1.92466,-7.150088 0.47432,-15.807094 2.61499,-9.4365 2.53458,-10.1289 -0.80472,-6.92965 -1.54259,1.4779 -3.03056,2.68709 -3.30659,2.68709 -0.27603,0 -2.7264,2.07258 -5.44528,4.60573 -6.91971,6.447026 -17.50834,14.311844 -20.2337,15.028804 -1.4565,0.38316 -2.978,-0.0199 -4.1793,-1.10702 -1.80152,-1.63036 -2.05049,-1.54323 -5.37633,1.88148 -3.8416,3.95579 -5.39446,4.43114 -6.34904,1.94354 -1.48894,-3.88011 6.71896,-16.764194 19.5046,-30.616744 9.04712,-9.80205 19.70507,-23.55442 18.88782,-24.37167 -0.58938,-0.58938 -7.966,5.88 -16.76226,14.7007 -6.10526,6.12222 -14.32164,13.96053 -34.28039,32.702996 -11.83538,11.114138 -18.56821,14.451298 -21.65414,10.732988 -1.66802,-2.00984 0.81398,-11.973908 5.34567,-21.460344 1.82783,-3.82631 3.0183,-7.45046 2.64549,-8.05369 -0.74314,-1.20241 -14.6243,10.846 -26.9668,23.406324 -5.79095,5.89315 -8.10723,7.6069 -10.28139,7.6069 -1.61339,0 -3.05948,-0.65949 -3.40172,-1.55137 -0.32743,-0.85325 2.40633,-8.78183 6.07502,-17.619074 3.66869,-8.83724 6.49771,-16.57663 6.28671,-17.19863 -0.33979,-1.00172 -15.13255,13.50005 -29.20365,28.629144 -4.51801,4.85772 -14.85873,12.73991 -16.7136,12.73991 -0.40716,0 -1.44916,-1.08187 -2.31556,-2.40416 -1.43619,-2.19191 -1.43061,-2.9644 0.0632,-8.75 0.90117,-3.49021 2.56097,-8.497028 3.68844,-11.126264 1.12748,-2.62924 1.79221,-5.03818 1.47718,-5.35321 -0.31502,-0.31503 -7.6091,6.336166 -16.20906,14.780424 -14.17451,13.9179 -20.02362,18.69151 -23.0495,18.81129 -0.58238,0.0231 -1.84488,-0.53283 -2.80556,-1.23529 z M 470.12514,40.108336 c 4.79194,-4.95163 7.39835,-9.01298 6.41515,-9.99618 -0.31619,-0.31619 -1.53767,0.28485 -2.7144,1.33564 -2.25658,2.01508 -9.87275,11.94176 -9.87275,12.86784 0,1.46841 1.99622,0.10764 6.172,-4.2073 z m 66.078,4.08772 c -1.90761,-0.76974 -1.53497,-2.11395 1.91952,-6.92424 3.61861,-5.03883 5.44325,-5.42846 9.18446,-1.96123 3.45973,3.20638 3.33755,4.23782 -0.60398,5.09861 -1.7875,0.39038 -4.32319,1.55113 -5.63486,2.57946 -2.48957,1.95177 -2.81824,2.03334 -4.86514,1.2074 z"
       id="path3006"
       style="fill:#000000" />
  </g>
</svg>
