<?xml version="1.0" standalone="no"?>
<!DOCTYPE svg PUBLIC "-//W3C//DTD SVG 20010904//EN"
 "http://www.w3.org/TR/2001/REC-SVG-20010904/DTD/svg10.dtd">
<svg version="1.0" xmlns="http://www.w3.org/2000/svg"
 width="468pt" height="129pt" viewBox="0 0 468 129"
 preserveAspectRatio="xMidYMid meet">
<metadata>
Created by POTRACE VERSION, written by Peter Selinger 2001-2007
</metadata>
<g transform="translate(0,129) scale(0.011924,-0.011924)"
fill="#000000" stroke="none">
<path d="M4169 10799 c-52 -4 -102 -15 -125 -27 -21 -10 -62 -27 -90 -36 -28
-9 -73 -31 -99 -49 -27 -18 -60 -40 -74 -49 -14 -9 -37 -17 -50 -17 -13 -1
-45 -14 -70 -31 -25 -16 -61 -52 -80 -80 -19 -27 -38 -50 -43 -50 -5 0 -27
-17 -47 -37 -21 -21 -48 -45 -59 -55 -11 -9 -40 -25 -64 -36 -26 -11 -62 -41
-88 -72 -25 -29 -58 -64 -74 -79 -16 -14 -46 -42 -66 -63 -21 -20 -51 -43 -68
-52 -17 -9 -48 -28 -69 -42 -20 -13 -63 -49 -95 -79 -32 -30 -58 -59 -58 -65
0 -5 -17 -20 -37 -33 -21 -13 -111 -97 -200 -185 -90 -89 -163 -166 -163 -171
0 -5 -17 -28 -37 -51 -21 -23 -60 -65 -88 -93 -27 -27 -61 -57 -76 -66 -14 -9
-47 -36 -73 -61 -27 -25 -62 -59 -80 -76 -17 -17 -36 -38 -41 -45 -6 -8 -30
-39 -55 -69 -25 -30 -52 -61 -62 -67 -9 -7 -40 -43 -69 -80 -29 -38 -90 -110
-136 -161 -46 -51 -83 -97 -83 -102 0 -5 -21 -21 -47 -34 -27 -13 -58 -35 -70
-48 -12 -12 -32 -48 -46 -78 -16 -37 -36 -63 -60 -80 -21 -14 -42 -39 -48 -57
-6 -20 -29 -45 -59 -67 -38 -27 -52 -45 -60 -76 -6 -24 -21 -47 -36 -57 -15
-9 -38 -35 -52 -57 -14 -23 -39 -55 -55 -73 -17 -18 -45 -58 -62 -90 -18 -32
-48 -84 -66 -115 -19 -31 -47 -80 -62 -108 -15 -28 -41 -59 -57 -68 -16 -9
-39 -36 -50 -60 -12 -24 -45 -71 -73 -105 -28 -34 -68 -79 -89 -99 -21 -21
-38 -44 -38 -52 0 -7 -7 -19 -15 -26 -8 -7 -23 -38 -31 -69 -9 -31 -20 -58
-24 -61 -4 -3 -16 -19 -26 -36 -11 -17 -36 -50 -57 -73 -21 -23 -48 -46 -62
-51 -13 -5 -32 -22 -41 -37 -10 -15 -35 -47 -56 -70 -25 -28 -40 -56 -44 -83
-4 -23 -21 -60 -41 -85 -19 -25 -41 -61 -49 -80 -8 -19 -14 -64 -14 -100 0
-48 -9 -90 -36 -167 -34 -97 -35 -110 -36 -233 0 -71 5 -166 11 -210 7 -44 12
-159 12 -255 0 -96 -2 -183 -4 -192 -2 -10 -6 -20 -9 -23 -3 -3 -4 -18 -2 -33
2 -15 5 -34 7 -42 1 -9 12 -32 24 -53 12 -20 29 -67 38 -104 9 -37 24 -90 32
-118 9 -27 26 -66 39 -85 12 -19 30 -61 39 -92 9 -32 21 -60 26 -64 5 -3 21
-28 35 -55 20 -41 40 -60 107 -105 45 -30 97 -65 115 -77 19 -12 50 -36 70
-53 21 -17 66 -42 102 -55 36 -12 79 -33 96 -46 17 -13 41 -23 52 -23 12 0 45
-9 74 -20 33 -12 65 -33 84 -55 23 -27 40 -38 71 -42 32 -4 48 0 79 20 21 14
57 31 79 37 22 7 73 30 114 51 40 22 101 48 136 58 34 11 88 30 121 44 32 14
107 41 167 61 59 20 119 36 133 36 14 0 37 6 52 14 15 7 43 17 62 21 19 4 55
20 80 35 25 15 62 31 83 34 20 4 37 10 37 15 0 4 6 15 13 25 7 9 30 22 52 27
22 6 77 19 122 29 54 12 106 33 150 60 37 22 75 40 84 40 10 0 29 5 43 12 14
6 34 25 45 43 13 23 30 35 62 43 24 6 63 16 87 22 25 7 45 18 48 28 3 9 12 28
19 42 7 13 43 41 80 62 37 21 77 38 90 38 13 0 35 -4 49 -10 22 -8 37 -4 90
26 42 23 66 42 69 57 3 12 4 42 2 67 -3 32 1 50 13 64 9 10 33 27 53 37 21 10
47 35 59 54 13 20 34 41 47 46 13 5 44 9 69 9 36 0 51 6 79 33 20 18 45 56 56
87 12 30 23 70 24 88 2 23 13 43 33 60 17 16 38 52 51 88 11 34 21 72 21 85 0
13 -22 56 -48 94 -48 69 -49 70 -103 77 -30 4 -72 5 -94 2 -22 -3 -49 -7 -60
-9 -11 -2 -20 -4 -20 -5 0 -1 -7 -3 -16 -5 -9 -1 -55 -26 -102 -54 -47 -28
-103 -71 -125 -95 -23 -25 -57 -76 -76 -115 -20 -39 -36 -86 -36 -104 0 -29
-11 -44 -69 -100 -53 -52 -76 -67 -98 -67 -19 0 -58 -19 -109 -53 -43 -29 -87
-56 -97 -60 -10 -4 -25 -19 -34 -35 -9 -15 -37 -40 -62 -55 -25 -15 -82 -52
-125 -82 -44 -30 -87 -55 -96 -55 -9 0 -25 -9 -35 -20 -10 -11 -27 -22 -39
-26 -11 -3 -70 -30 -131 -59 -60 -30 -126 -57 -145 -60 -19 -4 -69 -22 -110
-41 -41 -19 -100 -47 -130 -63 -30 -16 -98 -48 -150 -71 -52 -23 -144 -53
-205 -67 -60 -14 -131 -26 -156 -28 -26 -1 -53 -6 -60 -11 -7 -4 -42 -9 -78
-11 -44 -2 -80 2 -109 13 -32 12 -58 14 -98 9 -38 -4 -68 -2 -102 9 -26 9 -58
18 -72 20 -14 3 -33 5 -43 5 -9 1 -42 27 -73 58 -30 31 -60 63 -66 70 -6 8
-14 51 -18 97 -5 46 -14 92 -21 103 -9 16 -10 30 0 64 6 24 13 51 15 59 2 8
-3 27 -10 42 -8 15 -14 32 -14 37 0 6 13 25 29 44 16 18 33 46 37 63 4 16 20
54 35 84 16 30 33 86 39 124 9 55 8 78 -5 121 -8 29 -22 58 -30 65 -9 7 -15
29 -15 50 0 28 6 44 23 57 14 11 27 38 35 73 7 30 19 98 27 151 10 70 20 106
38 133 14 20 28 55 32 79 4 23 16 57 27 76 10 19 24 59 30 90 5 31 19 72 31
91 11 19 33 50 48 67 16 18 33 52 39 75 7 24 21 63 31 87 11 24 45 72 76 107
31 35 62 64 69 64 6 0 17 7 24 15 11 13 11 20 0 40 -7 13 -10 31 -6 40 4 11
13 15 25 12 10 -2 22 3 28 13 8 12 8 29 0 57 -9 35 -8 45 9 70 10 15 25 41 31
57 7 15 13 38 13 50 0 12 6 30 14 41 7 11 17 34 20 52 4 18 19 48 34 67 15 20
43 59 62 87 19 28 53 72 74 98 22 25 51 64 65 86 14 22 51 72 82 110 31 39 63
76 72 84 10 7 17 19 17 25 0 6 13 28 30 47 16 20 39 62 50 93 12 30 25 58 30
61 5 3 34 41 64 85 31 44 61 80 66 80 5 0 11 8 15 19 3 10 39 52 79 92 40 41
83 92 95 114 12 22 32 56 44 75 12 19 34 47 50 62 15 15 27 31 27 36 0 6 17
17 38 25 20 8 50 28 66 43 16 16 37 48 48 71 10 23 23 45 28 48 5 3 42 47 83
98 40 50 76 99 80 109 3 9 30 33 61 55 30 21 57 47 60 59 3 11 40 47 81 79 56
42 78 66 82 87 4 20 20 39 52 60 25 17 69 50 96 72 28 22 60 50 71 61 12 11
45 38 74 60 29 22 73 61 99 86 26 25 57 50 70 54 12 4 60 36 104 71 45 36 112
92 149 126 37 34 92 74 122 88 30 15 61 32 70 39 8 7 61 41 118 77 57 35 110
64 119 64 8 0 20 5 26 11 6 6 31 16 55 21 24 6 59 11 78 11 27 2 35 -2 38 -18
3 -11 13 -32 23 -46 9 -14 20 -36 24 -50 4 -16 -7 -64 -29 -133 -20 -60 -36
-121 -36 -135 0 -15 -7 -52 -16 -82 -9 -30 -22 -61 -30 -69 -7 -9 -20 -35 -29
-59 -8 -23 -24 -54 -35 -68 -13 -17 -20 -41 -20 -69 0 -24 -5 -66 -11 -93 -6
-28 -21 -67 -35 -86 -13 -20 -24 -43 -24 -52 0 -8 -12 -30 -27 -48 -16 -18
-48 -62 -73 -96 -25 -35 -52 -77 -61 -94 -9 -16 -20 -41 -24 -55 -4 -14 -13
-32 -20 -40 -8 -8 -16 -35 -20 -60 -4 -28 -14 -50 -27 -58 -11 -8 -33 -35 -49
-60 -16 -25 -29 -54 -29 -63 0 -9 -13 -47 -30 -84 -16 -37 -30 -77 -30 -90 0
-12 -10 -37 -23 -56 -12 -19 -32 -54 -44 -79 -12 -25 -31 -66 -41 -92 -14 -31
-31 -52 -52 -63 -22 -12 -39 -33 -57 -73 -13 -31 -38 -72 -55 -91 -17 -19 -37
-48 -45 -65 -7 -17 -22 -44 -33 -61 -11 -16 -33 -58 -50 -92 l-31 -62 21 -42
c12 -23 36 -55 53 -70 25 -23 41 -29 76 -29 31 0 69 12 127 40 58 28 88 48 97
67 8 16 18 51 21 78 4 28 18 67 32 87 13 21 24 40 24 44 0 3 18 36 39 72 22
37 42 78 46 92 4 14 25 49 46 79 22 30 39 64 39 76 0 13 7 40 16 61 9 21 34
58 55 83 21 24 39 50 39 57 0 8 25 42 56 75 31 33 62 76 70 94 7 19 19 37 25
40 6 4 28 44 49 89 21 44 57 124 79 176 23 52 48 101 56 110 8 9 33 54 55 100
23 47 52 105 65 130 13 25 58 115 99 202 42 86 76 165 76 177 0 11 13 35 28
53 16 18 38 49 49 68 12 19 21 37 21 40 0 3 3 23 7 45 3 22 10 59 16 83 8 36
6 52 -14 105 -13 34 -31 98 -39 141 -12 57 -13 87 -6 108 6 15 7 39 4 52 -3
12 -15 35 -27 49 -11 15 -29 27 -40 27 -12 0 -34 14 -51 30 -16 17 -37 30 -47
30 -10 0 -44 9 -77 21 -32 11 -86 25 -120 29 -34 5 -67 11 -75 13 -8 2 -53 1
-100 -4z m-3425 -3934 c3 -8 3 -23 -1 -32 -3 -10 -12 -25 -19 -33 -7 -9 -18
-36 -23 -61 -6 -26 -15 -58 -20 -72 -5 -13 -24 -41 -41 -60 -18 -22 -37 -58
-46 -94 -8 -32 -23 -70 -34 -85 -11 -15 -20 -35 -20 -45 -1 -10 -6 -27 -13
-39 -7 -11 -29 -35 -49 -53 l-37 -33 -21 34 c-11 18 -20 41 -20 51 0 10 7 33
14 52 8 19 19 35 25 35 5 0 27 33 49 73 22 40 45 91 51 114 6 22 22 66 36 97
19 44 33 60 65 76 23 12 50 37 62 56 11 18 24 34 28 34 4 0 10 -7 14 -15z"/>
<path d="M14485 10580 c-66 -4 -135 -12 -153 -18 -18 -6 -57 -22 -87 -36 -29
-14 -59 -26 -64 -26 -6 0 -11 -4 -11 -9 0 -5 -25 -17 -56 -27 -30 -9 -61 -25
-68 -36 -7 -10 -36 -25 -64 -33 -33 -10 -56 -24 -63 -38 -7 -12 -37 -50 -68
-85 -31 -35 -78 -79 -106 -99 -27 -20 -54 -42 -58 -50 -5 -7 -35 -27 -68 -43
-41 -21 -67 -42 -84 -70 -14 -22 -37 -47 -51 -56 -14 -10 -79 -71 -144 -136
-65 -65 -123 -118 -129 -118 -6 0 -17 -12 -25 -27 -8 -16 -39 -59 -69 -98 -30
-38 -69 -84 -86 -101 -16 -17 -38 -50 -47 -73 -9 -22 -22 -41 -29 -41 -7 0
-37 -30 -67 -67 -29 -37 -62 -82 -73 -100 -11 -18 -42 -70 -69 -115 -27 -46
-59 -94 -70 -108 -12 -14 -35 -45 -52 -70 -17 -25 -36 -61 -43 -80 -6 -19 -22
-46 -36 -60 -13 -14 -38 -57 -54 -97 -17 -40 -31 -79 -31 -87 0 -8 -14 -46
-32 -83 -18 -37 -51 -98 -75 -134 -24 -36 -50 -85 -58 -109 -8 -23 -15 -56
-15 -72 0 -16 -6 -43 -13 -61 -8 -18 -25 -45 -39 -62 -13 -16 -32 -60 -42 -97
-10 -37 -26 -74 -36 -83 -10 -9 -22 -36 -25 -58 -4 -23 -16 -56 -26 -73 -11
-18 -29 -58 -40 -90 -11 -33 -31 -95 -44 -139 -13 -45 -38 -114 -54 -155 -17
-41 -45 -122 -62 -180 -17 -58 -42 -139 -56 -180 -15 -47 -22 -86 -19 -105 4
-21 -2 -48 -23 -90 -15 -34 -35 -67 -43 -76 -9 -8 -28 -42 -43 -74 -15 -33
-36 -78 -45 -100 -10 -22 -32 -76 -48 -120 -17 -44 -33 -95 -36 -114 -3 -18
-15 -42 -26 -51 -12 -10 -39 -53 -61 -95 -21 -42 -47 -88 -57 -102 -9 -13 -28
-37 -42 -51 -14 -15 -52 -46 -84 -70 -32 -23 -65 -50 -72 -61 -7 -10 -28 -24
-46 -31 -18 -8 -46 -24 -61 -37 -16 -13 -38 -23 -49 -23 -11 0 -48 -17 -81
-37 -34 -20 -80 -54 -102 -74 -22 -21 -83 -58 -136 -83 -52 -25 -104 -55 -114
-66 -10 -11 -22 -20 -26 -20 -5 0 -59 -24 -121 -54 -62 -29 -124 -57 -137 -61
-13 -4 -44 -20 -69 -36 -25 -16 -62 -32 -81 -35 -20 -3 -61 -23 -91 -44 -30
-20 -69 -44 -86 -53 -17 -9 -59 -21 -93 -26 -34 -6 -76 -17 -94 -27 -18 -9
-69 -29 -115 -44 -45 -16 -119 -36 -165 -44 -45 -8 -93 -17 -107 -20 -14 -3
-50 -12 -80 -21 -33 -9 -71 -13 -97 -9 -35 5 -47 2 -78 -21 -20 -16 -48 -28
-63 -27 -15 0 -43 1 -62 1 -19 0 -48 -1 -63 -1 -16 0 -36 6 -44 15 -15 14 -15
24 -3 88 9 45 23 85 40 108 15 20 37 63 49 96 12 33 32 76 43 95 12 19 36 58
54 86 18 28 39 56 47 63 8 6 36 49 61 94 40 70 56 88 106 120 33 21 95 77 140
125 44 49 91 111 106 139 19 40 35 57 68 73 24 11 50 28 58 38 7 9 20 31 28
47 8 17 18 32 21 35 3 3 11 15 18 27 6 12 11 61 11 110 0 48 -5 106 -11 128
-6 22 -27 54 -46 73 -20 18 -49 36 -65 39 -16 3 -39 18 -50 34 -12 15 -34 33
-50 40 -16 7 -41 28 -54 48 -13 20 -36 54 -51 76 -24 34 -28 50 -27 105 0 36
4 110 8 165 4 55 10 129 12 165 4 50 1 73 -13 99 -10 19 -27 40 -38 46 -15 9
-41 9 -109 1 -85 -11 -90 -13 -122 -51 -19 -21 -34 -48 -34 -59 0 -12 -6 -44
-14 -72 -10 -38 -24 -62 -53 -88 -33 -29 -47 -55 -78 -141 -27 -76 -45 -111
-62 -123 -14 -9 -35 -27 -47 -38 -11 -12 -31 -34 -43 -49 -13 -14 -23 -31 -23
-36 0 -4 -15 -30 -32 -56 -18 -26 -46 -58 -61 -72 -16 -13 -47 -49 -70 -80
-22 -31 -64 -81 -93 -111 -28 -30 -70 -91 -93 -136 -32 -63 -61 -100 -128
-165 -48 -46 -99 -97 -115 -114 -15 -16 -48 -52 -73 -80 -25 -27 -107 -112
-183 -188 -110 -110 -145 -139 -177 -148 -28 -7 -57 -28 -100 -72 -34 -34 -70
-69 -80 -77 -11 -8 -33 -25 -50 -36 -16 -12 -48 -27 -70 -34 -22 -7 -59 -23
-82 -36 -23 -13 -58 -24 -77 -24 -20 0 -59 -11 -88 -24 -29 -13 -75 -31 -103
-39 -27 -8 -64 -21 -81 -28 -27 -11 -41 -9 -102 10 l-70 23 -21 61 c-12 37
-19 76 -16 97 3 19 7 51 10 70 2 19 13 67 24 107 16 63 26 79 75 129 32 31 65
71 74 89 9 17 26 47 37 65 11 19 38 51 59 70 22 19 68 63 102 98 35 34 68 62
73 62 6 0 20 17 31 38 12 20 32 53 45 72 13 19 32 46 42 60 10 13 24 38 31 54
7 16 21 36 32 43 11 8 26 36 34 63 8 27 33 71 54 99 35 43 41 60 47 117 4 36
4 110 0 164 -5 84 -12 112 -44 182 -20 46 -56 113 -79 150 -23 36 -54 73 -67
82 -14 9 -25 23 -25 32 0 8 -25 38 -55 66 -30 28 -84 66 -119 84 -36 18 -82
36 -103 40 -21 4 -65 20 -98 37 -35 17 -80 31 -110 33 -39 3 -54 9 -71 30 -18
22 -26 25 -59 20 -20 -4 -40 -8 -44 -11 -4 -2 -28 -6 -52 -9 -25 -3 -63 -13
-85 -22 -21 -9 -52 -26 -68 -37 -17 -12 -48 -24 -70 -27 -30 -3 -44 -11 -51
-27 -5 -13 -22 -27 -38 -33 -16 -5 -51 -13 -79 -16 -45 -6 -59 -14 -112 -66
-34 -32 -83 -70 -110 -83 -28 -14 -66 -25 -85 -25 -20 -1 -48 -6 -64 -13 -15
-7 -73 -57 -130 -113 -56 -55 -122 -113 -147 -129 -25 -16 -56 -40 -70 -55
-14 -15 -38 -34 -53 -44 -16 -10 -33 -30 -38 -45 -5 -14 -25 -35 -44 -45 -19
-11 -35 -23 -35 -28 0 -6 -64 -73 -142 -151 -79 -78 -160 -164 -180 -192 -21
-27 -38 -57 -38 -67 0 -9 -5 -20 -10 -23 -6 -4 -20 -25 -31 -48 -12 -23 -40
-63 -63 -88 -22 -25 -58 -69 -78 -98 -21 -28 -47 -74 -59 -102 -12 -27 -30
-54 -40 -59 -9 -6 -20 -23 -24 -40 -4 -16 -1 -45 6 -65 12 -31 11 -40 -10 -82
-13 -27 -39 -86 -58 -133 -19 -46 -40 -109 -47 -140 -7 -30 -14 -91 -15 -135
-1 -44 -7 -97 -12 -119 -6 -21 -7 -67 -3 -105 3 -36 9 -75 11 -86 3 -11 8 -63
12 -115 4 -52 6 -100 4 -106 -3 -7 -23 -17 -46 -23 -23 -6 -92 -18 -153 -26
-62 -7 -120 -12 -130 -9 -11 2 -57 9 -104 15 -47 6 -105 10 -128 9 -24 0 -68
6 -99 15 -30 9 -80 17 -111 18 -32 1 -84 -5 -118 -12 l-61 -13 -73 37 c-51 26
-86 37 -117 37 -24 0 -55 -8 -68 -16 -14 -9 -25 -25 -25 -34 0 -10 10 -28 23
-40 12 -11 40 -29 62 -38 22 -10 43 -17 48 -16 4 1 7 -2 7 -6 0 -4 14 -16 32
-27 18 -10 44 -29 59 -43 15 -13 32 -36 38 -51 7 -14 21 -33 33 -40 12 -7 59
-26 105 -42 45 -16 100 -29 121 -29 20 0 53 -8 72 -18 19 -11 69 -25 112 -32
45 -7 102 -10 140 -6 34 3 128 9 208 12 99 4 154 11 174 21 23 12 47 14 102 9
48 -5 95 -2 142 8 38 8 88 24 111 36 26 13 56 20 79 18 34 -3 37 -1 40 25 3
21 15 36 50 58 26 16 65 34 87 40 22 6 58 23 81 39 22 16 54 32 70 36 16 3 52
16 79 27 28 12 71 35 97 53 26 18 69 40 95 49 27 9 71 27 98 38 28 12 78 41
113 65 35 24 97 58 137 77 44 21 82 47 97 66 12 17 53 61 89 99 47 48 86 77
139 103 40 19 78 33 85 31 7 -3 17 -16 23 -29 6 -13 9 -34 7 -46 -3 -12 9 -49
25 -83 17 -33 30 -70 30 -82 0 -12 21 -47 47 -78 32 -38 59 -59 83 -66 19 -5
47 -10 62 -10 15 0 30 -5 34 -11 4 -7 44 -29 89 -50 57 -27 97 -39 126 -39 24
0 57 7 73 15 15 8 73 22 129 30 71 11 113 23 146 42 25 14 75 37 111 50 36 14
92 30 125 37 33 6 67 16 77 22 9 5 37 27 62 49 26 22 83 75 128 118 45 43 98
87 118 97 20 10 42 26 50 35 7 8 50 45 96 80 45 36 92 79 104 95 12 17 39 39
61 50 21 11 84 61 139 110 55 49 124 114 154 143 30 30 63 74 74 98 11 25 60
87 116 144 54 55 117 127 141 161 24 34 47 73 50 87 4 14 27 49 51 77 25 29
52 67 61 84 9 17 28 47 43 66 16 19 33 53 40 75 7 22 19 52 27 68 9 18 21 27
38 27 13 0 41 -14 61 -32 20 -17 47 -55 61 -82 13 -28 36 -72 50 -98 21 -40
24 -55 18 -98 -4 -27 -18 -64 -31 -82 -13 -18 -28 -44 -34 -58 -6 -14 -30 -44
-53 -68 -23 -24 -56 -49 -73 -57 -17 -7 -51 -36 -75 -66 -24 -29 -61 -68 -83
-88 -21 -20 -48 -54 -60 -77 -11 -23 -54 -69 -93 -103 -40 -34 -77 -70 -83
-81 -6 -11 -10 -30 -9 -43 1 -12 1 -32 1 -43 -1 -12 -14 -32 -28 -45 -14 -13
-33 -33 -42 -43 -10 -11 -36 -40 -59 -66 -30 -33 -44 -58 -49 -89 -4 -24 -17
-55 -30 -71 -13 -15 -28 -40 -34 -56 -7 -16 -15 -49 -20 -74 -5 -27 -5 -84 2
-145 6 -57 19 -116 29 -137 11 -21 19 -46 19 -57 0 -13 21 -37 56 -65 31 -24
80 -56 109 -71 51 -26 59 -26 271 -31 174 -3 228 -1 264 10 25 8 95 29 155 47
61 17 133 38 160 47 28 8 56 19 63 25 8 6 41 14 73 18 37 4 74 16 97 31 20 14
58 30 84 37 26 7 56 22 68 33 11 10 46 28 77 39 31 10 65 27 75 36 10 9 18 12
18 7 0 -5 5 -1 11 9 5 9 21 17 35 17 14 0 59 22 99 48 40 26 106 61 147 77 40
16 82 38 92 47 11 10 56 36 100 58 45 22 94 40 108 40 15 0 43 14 68 35 22 19
56 37 74 41 19 3 47 18 64 34 18 16 57 34 96 45 36 10 66 22 66 27 0 5 12 26
26 48 21 32 32 40 52 37 17 -2 26 -11 29 -26 2 -15 -9 -37 -32 -64 -19 -22
-35 -45 -35 -49 0 -5 -5 -6 -12 -2 -6 4 -8 3 -4 -4 3 -6 2 -13 -4 -17 -5 -3
-10 -19 -10 -36 0 -16 -9 -46 -20 -66 -11 -21 -20 -46 -20 -57 0 -10 -9 -33
-20 -51 -12 -20 -41 -43 -74 -59 -49 -24 -56 -32 -87 -99 -33 -70 -34 -76 -33
-189 1 -99 4 -122 23 -155 11 -21 35 -66 53 -101 28 -57 37 -66 91 -94 58 -29
61 -29 96 -15 20 9 53 18 74 21 20 2 49 14 64 25 17 14 40 21 72 21 37 0 75
14 199 76 121 61 158 84 177 112 13 19 53 60 88 91 36 31 83 70 104 88 22 17
55 39 74 48 19 9 48 24 64 33 17 10 50 32 75 50 25 17 72 61 105 98 33 36 80
86 105 112 25 26 57 57 72 69 15 12 56 37 90 54 35 17 79 45 98 62 35 31 35
31 38 8 2 -13 -1 -28 -7 -34 -6 -6 -11 -20 -11 -32 0 -11 -9 -37 -20 -57 -11
-20 -24 -65 -29 -100 -5 -35 -8 -72 -7 -83 2 -11 7 -29 11 -40 4 -11 18 -47
30 -80 13 -33 26 -82 29 -108 3 -27 13 -63 23 -80 11 -18 40 -46 66 -64 26
-17 70 -37 99 -43 29 -6 67 -14 83 -16 17 -3 65 -12 108 -19 43 -8 123 -15
177 -16 54 0 107 4 117 10 11 5 51 19 89 30 38 10 101 28 139 39 39 11 95 23
125 27 31 4 79 20 110 37 30 17 75 47 100 68 25 20 70 50 100 65 30 15 64 35
75 45 11 9 78 47 149 84 71 36 134 66 141 66 7 0 24 9 39 21 14 11 26 29 26
39 0 11 14 24 38 35 20 10 51 33 68 52 17 19 49 46 71 61 22 15 68 50 102 77
35 28 77 64 95 82 17 17 44 48 60 68 16 20 43 60 60 88 17 29 44 78 60 109 17
32 43 72 59 90 16 18 49 76 74 128 27 57 52 129 63 180 10 48 16 118 15 161
-2 60 -8 86 -28 125 -14 27 -37 75 -51 107 -14 32 -33 60 -43 63 -10 2 -44 18
-75 34 -31 17 -69 30 -85 30 -15 0 -63 -11 -106 -25 -43 -14 -102 -25 -131
-25 -32 0 -72 -8 -98 -20 -25 -11 -89 -28 -144 -39 -54 -11 -126 -31 -159 -46
-33 -14 -73 -33 -90 -42 -16 -9 -43 -28 -60 -44 -16 -15 -44 -34 -61 -41 -17
-7 -70 -57 -118 -110 -74 -84 -97 -102 -161 -133 -41 -20 -77 -41 -81 -47 -3
-5 -34 -22 -68 -38 -33 -15 -74 -39 -91 -54 -16 -14 -36 -26 -42 -26 -7 0 -13
7 -13 16 0 9 12 37 28 62 15 25 40 58 55 75 15 16 39 51 53 78 13 27 28 49 33
49 4 0 20 11 35 25 22 21 26 32 26 81 0 39 -7 72 -21 102 -15 31 -32 48 -55
58 -18 8 -44 14 -56 14 -13 0 -34 -9 -48 -20 -14 -11 -35 -20 -47 -20 -12 0
-36 -12 -55 -27 -18 -16 -44 -37 -58 -48 -14 -11 -54 -48 -89 -82 -35 -35 -68
-63 -75 -63 -6 0 -58 -48 -116 -105 -68 -68 -117 -109 -140 -116 -19 -6 -59
-25 -88 -41 -30 -17 -87 -63 -127 -103 -41 -40 -103 -89 -139 -109 -47 -26
-66 -43 -66 -57 0 -15 -18 -28 -75 -53 -46 -22 -103 -60 -152 -102 -43 -37
-86 -79 -95 -92 -9 -14 -31 -38 -49 -53 -19 -16 -47 -31 -64 -35 -20 -4 -56
-34 -108 -88 -43 -44 -93 -100 -110 -123 -18 -23 -45 -49 -62 -57 -16 -8 -79
-31 -140 -51 -60 -20 -122 -39 -137 -42 -25 -5 -28 -3 -28 24 0 16 18 73 40
127 22 54 49 110 59 125 10 14 41 76 69 136 27 61 53 124 56 140 4 17 29 77
55 135 27 58 56 126 66 153 9 26 33 66 52 90 19 23 55 54 79 69 24 15 62 49
86 74 24 26 57 53 73 61 17 7 49 28 72 46 23 18 56 42 75 55 18 12 49 34 68
47 19 14 53 34 75 45 22 10 65 37 95 59 30 22 71 49 91 60 21 11 46 35 58 54
11 18 42 54 68 78 27 25 57 57 69 71 12 14 45 39 75 56 30 17 72 47 94 66 22
19 58 45 79 58 22 13 60 43 84 68 24 25 68 77 98 117 30 39 78 88 107 109 29
20 68 55 87 77 19 23 41 55 48 71 7 17 45 63 85 102 40 39 84 87 99 106 15 20
38 54 51 77 13 23 49 68 80 101 30 33 69 84 86 114 17 29 42 61 56 70 14 9 25
22 25 29 1 6 18 26 39 42 21 17 49 46 61 65 13 19 31 47 42 62 10 15 32 66 49
113 20 55 47 105 74 138 23 29 49 66 58 84 9 17 27 40 41 50 13 11 38 42 55
70 17 27 31 56 31 63 0 7 18 39 40 72 22 33 40 65 40 70 0 6 16 33 35 59 19
27 35 53 35 58 0 5 15 32 34 60 19 28 40 67 46 87 7 21 21 51 30 68 10 17 26
56 34 86 13 43 27 65 66 101 33 31 50 54 50 70 0 13 11 44 24 69 13 25 26 63
30 85 4 22 19 59 32 83 14 24 34 69 46 100 11 31 23 101 28 155 7 82 12 105
35 139 26 39 27 45 18 100 -6 35 -6 82 -1 113 4 31 4 82 -1 118 -5 36 -18 86
-30 111 -13 30 -29 50 -46 56 -15 6 -41 21 -58 34 -18 14 -45 28 -62 32 -16 4
-59 20 -94 36 -34 15 -79 30 -100 32 -20 2 -90 0 -156 -4z m247 -288 c35 -16
69 -36 76 -44 7 -8 15 -35 17 -59 3 -24 8 -59 11 -77 4 -23 -1 -44 -15 -68
-12 -19 -24 -54 -27 -77 -4 -23 -32 -98 -62 -167 -44 -100 -55 -139 -59 -195
-4 -55 -10 -75 -28 -95 -13 -14 -27 -38 -31 -55 -4 -16 -16 -43 -26 -60 -10
-16 -18 -39 -18 -50 0 -11 -26 -44 -60 -76 -33 -32 -62 -69 -66 -85 -4 -16
-35 -72 -69 -124 -35 -52 -70 -113 -78 -135 -8 -22 -20 -59 -26 -82 -6 -23
-20 -48 -30 -55 -11 -8 -40 -54 -65 -104 -25 -50 -53 -97 -62 -105 -9 -8 -23
-28 -31 -46 -7 -18 -13 -44 -13 -59 0 -19 -14 -40 -51 -75 -29 -27 -56 -49
-60 -49 -5 0 -16 -15 -25 -32 -9 -18 -50 -67 -92 -108 -41 -41 -81 -89 -88
-105 -7 -17 -21 -38 -32 -48 -11 -10 -25 -38 -32 -62 -9 -33 -25 -55 -57 -81
-25 -21 -57 -49 -70 -62 -14 -14 -32 -40 -39 -58 -8 -19 -27 -40 -43 -48 -16
-9 -32 -27 -35 -41 -4 -17 -17 -30 -34 -36 -19 -6 -32 -21 -41 -45 -7 -19 -27
-50 -45 -68 -19 -18 -64 -73 -101 -122 -38 -49 -88 -114 -111 -145 -24 -30
-50 -62 -59 -69 -9 -7 -36 -43 -59 -80 -24 -36 -61 -80 -83 -98 -22 -17 -60
-40 -84 -50 -24 -11 -51 -27 -59 -36 -7 -10 -37 -29 -64 -43 -28 -14 -78 -53
-112 -88 -47 -48 -77 -69 -135 -93 -42 -17 -95 -32 -118 -34 -29 -1 -47 -8
-55 -20 -7 -11 -23 -18 -42 -18 -17 0 -37 7 -44 15 -10 12 -10 18 1 33 8 9 19
20 26 25 8 5 9 17 3 36 -4 16 -4 49 1 74 4 25 15 62 24 83 8 20 20 78 25 128
6 50 13 104 16 121 4 16 17 43 29 60 13 16 32 47 43 67 16 31 18 46 11 83 -5
25 -5 54 0 63 5 9 18 37 30 62 12 25 29 56 37 70 9 16 13 38 9 63 -3 21 0 57
6 80 6 23 26 67 45 97 18 30 44 87 58 126 13 38 30 83 38 100 9 16 19 47 22
69 4 22 25 67 46 100 21 33 46 85 55 115 10 30 27 70 37 89 11 19 24 59 29 89
4 30 17 65 27 76 11 12 29 42 41 67 11 25 36 63 55 85 18 21 52 74 76 117 23
43 59 97 81 120 21 23 51 67 66 97 15 30 42 67 59 82 18 16 42 54 55 86 12 31
41 78 63 103 23 25 58 68 80 95 21 27 47 69 59 93 14 29 49 68 109 119 49 42
96 89 104 105 8 15 44 60 79 100 35 40 70 78 77 85 7 7 29 23 48 35 19 13 51
44 70 70 31 42 41 48 91 58 41 8 70 22 103 50 26 21 104 66 174 101 110 54
137 63 202 69 41 4 94 5 117 3 23 -2 71 -16 105 -32z m-7922 -3180 c74 -5 173
-8 220 -7 59 2 92 -2 108 -12 13 -8 22 -23 22 -37 0 -13 -13 -37 -30 -53 -17
-16 -46 -61 -65 -99 -19 -38 -35 -76 -35 -84 0 -8 -15 -34 -34 -57 -18 -24
-39 -63 -45 -89 -7 -25 -20 -65 -31 -87 -10 -23 -26 -62 -34 -87 -9 -25 -16
-51 -16 -59 0 -8 -10 -35 -22 -60 -12 -25 -24 -48 -27 -51 -4 -3 -14 -21 -23
-40 -9 -19 -32 -69 -51 -112 -19 -42 -44 -85 -54 -95 -11 -11 -41 -49 -67 -86
-26 -36 -60 -77 -76 -91 -16 -13 -37 -40 -46 -60 -11 -22 -51 -62 -103 -104
-47 -37 -105 -81 -129 -96 -23 -16 -64 -52 -90 -81 -27 -29 -67 -64 -89 -79
-22 -14 -49 -39 -61 -55 -12 -16 -47 -41 -79 -56 -32 -14 -69 -36 -83 -49 -14
-12 -56 -41 -95 -63 -38 -23 -102 -51 -141 -62 -39 -12 -86 -32 -105 -45 -19
-14 -53 -36 -77 -50 -23 -14 -59 -31 -80 -37 -20 -7 -59 -34 -87 -60 -35 -33
-63 -51 -93 -58 -24 -5 -57 -7 -74 -4 -17 2 -40 14 -50 26 -10 12 -23 33 -29
47 -6 13 -9 52 -8 85 1 33 10 76 19 95 10 19 23 76 29 125 6 50 13 113 15 140
2 28 17 87 33 132 17 46 42 100 56 121 23 32 26 46 23 89 -4 44 -1 58 21 90
14 21 37 52 52 69 14 17 34 41 43 53 10 11 29 21 43 21 14 0 25 -4 25 -10 0
-5 14 -10 30 -10 25 0 33 6 44 32 11 26 11 41 -1 91 -7 34 -11 67 -8 75 4 10
14 12 38 8 17 -4 42 -7 55 -8 12 0 38 12 57 26 19 15 35 33 35 40 0 8 -6 26
-14 41 -8 15 -13 34 -11 43 2 9 4 26 4 37 1 11 33 51 74 90 40 39 90 96 110
128 27 42 48 63 75 74 20 8 57 36 82 62 25 25 67 61 94 79 27 17 54 32 60 32
6 0 34 24 63 53 28 30 69 62 90 72 21 10 53 31 71 46 18 16 46 36 63 44 16 9
60 22 97 29 37 7 92 12 122 10 30 -2 116 -7 190 -12z m8020 -798 c9 -9 14 -34
14 -72 0 -50 -6 -68 -50 -147 -27 -49 -55 -108 -62 -130 -6 -22 -22 -56 -34
-76 -13 -20 -72 -89 -133 -153 -60 -64 -114 -124 -118 -134 -4 -10 -33 -30
-63 -46 -31 -16 -70 -47 -87 -69 -18 -21 -48 -48 -69 -58 -20 -10 -46 -32 -58
-49 -12 -17 -65 -56 -118 -87 -53 -30 -113 -70 -132 -88 -19 -18 -73 -51 -120
-75 -85 -42 -85 -42 -166 -35 -66 5 -88 3 -113 -10 -17 -9 -35 -14 -40 -11 -4
3 -39 -2 -77 -10 -38 -8 -89 -14 -115 -13 -25 2 -51 -1 -58 -5 -6 -4 -18 -5
-26 -2 -8 3 -15 2 -15 -2 0 -4 -9 -8 -20 -9 -11 -1 -20 4 -20 10 0 7 -4 6 -10
-3 -7 -10 -10 -11 -10 -2 0 7 7 29 15 49 8 19 15 48 15 64 0 17 15 49 38 80
20 28 55 72 76 98 22 25 51 53 66 62 15 9 38 37 53 61 14 24 46 63 71 86 25
23 57 48 71 54 13 6 27 20 31 30 3 11 36 51 72 90 37 39 91 86 120 105 29 19
87 69 129 111 42 42 94 87 117 98 23 12 77 41 121 64 44 23 104 51 133 61 35
12 78 40 123 80 65 58 72 61 151 75 46 8 101 19 123 23 22 4 67 5 100 3 33 -2
67 -10 75 -18z m-2140 -843 c0 -10 -6 -31 -14 -45 -11 -22 -15 -24 -20 -11 -3
9 -10 13 -16 10 -5 -3 -10 -3 -10 0 0 4 5 16 11 28 7 12 17 25 23 29 6 4 14 8
19 8 4 0 7 -8 7 -19z"/>
<path d="M34728 9156 c-32 -9 -68 -31 -114 -70 -37 -31 -92 -70 -123 -86 -31
-16 -73 -44 -93 -62 -20 -18 -45 -40 -56 -48 -11 -8 -46 -39 -78 -67 -33 -29
-66 -59 -74 -67 -8 -7 -41 -42 -72 -77 -32 -35 -73 -80 -93 -100 -19 -19 -35
-44 -35 -55 0 -10 -8 -31 -18 -45 -9 -15 -29 -44 -43 -65 -14 -22 -31 -54 -37
-71 -6 -18 -34 -56 -61 -83 -41 -41 -51 -58 -51 -84 0 -18 -8 -44 -19 -57 -10
-13 -30 -60 -44 -104 -17 -53 -27 -106 -28 -155 -1 -41 -9 -97 -17 -125 -8
-27 -30 -81 -49 -120 -18 -38 -60 -118 -91 -177 -31 -59 -64 -115 -73 -125
-10 -10 -24 -38 -32 -63 -8 -25 -24 -65 -35 -90 -11 -25 -27 -52 -36 -60 -10
-7 -35 -48 -56 -89 -21 -42 -54 -102 -73 -134 -20 -33 -39 -71 -42 -86 -3 -15
-15 -34 -27 -42 -11 -8 -38 -27 -60 -42 -21 -15 -44 -39 -51 -54 -6 -14 -35
-50 -64 -79 -29 -30 -57 -54 -62 -54 -6 0 -22 -18 -36 -40 -14 -22 -42 -48
-62 -59 -21 -10 -76 -58 -123 -106 -47 -48 -92 -93 -100 -100 -8 -8 -39 -36
-69 -64 -35 -32 -65 -51 -90 -56 -20 -3 -54 -21 -76 -38 -22 -17 -46 -39 -53
-49 -7 -9 -31 -27 -53 -40 -28 -15 -46 -35 -56 -60 -11 -27 -26 -42 -56 -57
-23 -10 -73 -33 -111 -50 -49 -23 -88 -51 -136 -99 -50 -50 -71 -80 -81 -112
-7 -25 -16 -50 -21 -56 -5 -6 -30 -14 -56 -18 -28 -3 -58 -15 -70 -26 -12 -12
-22 -25 -22 -30 0 -5 -22 -32 -49 -59 -31 -31 -61 -51 -82 -56 -19 -4 -61 -20
-94 -37 -33 -16 -68 -39 -77 -49 -9 -11 -61 -50 -115 -85 -54 -36 -109 -76
-123 -89 -14 -13 -43 -26 -65 -29 -28 -5 -54 -20 -89 -53 -27 -25 -76 -65
-109 -89 -32 -24 -64 -44 -71 -44 -6 0 -28 -14 -49 -31 -31 -26 -43 -30 -71
-25 -19 4 -39 13 -46 21 -8 10 -18 11 -35 5 -13 -5 -26 -6 -29 -3 -3 3 -9 -2
-12 -11 -4 -10 -7 -25 -8 -34 -1 -10 -6 -24 -11 -33 -6 -9 -20 -21 -32 -27
-11 -7 -55 -11 -96 -11 -41 0 -84 -4 -96 -11 -12 -6 -19 -15 -16 -20 3 -5 -5
-16 -17 -24 -12 -9 -40 -16 -61 -16 -20 0 -65 -9 -98 -20 -34 -12 -71 -27 -83
-35 -17 -12 -26 -12 -46 -2 -18 9 -26 22 -28 45 -2 18 6 62 19 99 12 36 32 74
45 85 13 12 26 33 29 47 3 15 22 39 41 55 22 17 49 56 71 102 20 41 50 90 68
109 17 19 36 35 42 35 6 0 23 14 38 31 14 18 29 45 32 61 4 21 14 33 34 40 16
5 29 15 29 22 0 6 16 33 35 61 20 27 42 72 50 99 8 27 15 77 15 111 0 33 6 83
13 110 7 28 10 67 6 88 -3 20 -16 48 -29 62 -12 13 -41 27 -64 32 -22 4 -52 6
-66 5 -13 -2 -54 -22 -90 -44 -37 -23 -76 -56 -87 -73 -15 -22 -38 -38 -71
-50 -40 -15 -52 -25 -63 -52 -7 -19 -28 -43 -45 -54 -18 -11 -54 -26 -81 -34
-32 -10 -56 -25 -71 -45 -16 -21 -31 -30 -50 -30 -18 0 -34 -9 -47 -27 -11
-14 -42 -36 -70 -49 -29 -13 -84 -54 -129 -98 -44 -42 -85 -76 -92 -76 -7 0
-42 -20 -77 -44 -35 -24 -79 -47 -98 -51 -19 -4 -57 -20 -84 -35 -28 -16 -62
-41 -75 -55 -14 -14 -39 -35 -57 -46 -17 -11 -64 -26 -103 -35 -39 -8 -77 -19
-83 -25 -7 -5 -32 -27 -57 -49 -25 -22 -49 -40 -54 -40 -4 0 -21 -11 -38 -25
-16 -14 -36 -25 -44 -25 -8 0 -17 7 -21 15 -3 10 18 49 53 101 33 47 84 111
114 143 31 31 66 74 79 96 13 22 43 60 67 85 24 25 58 59 74 76 17 16 30 35
30 40 0 6 17 27 39 46 31 30 39 45 45 86 4 31 14 56 27 68 11 10 34 47 50 81
16 34 29 74 29 88 0 14 -14 56 -30 93 -17 37 -34 74 -39 81 -4 8 -19 24 -33
34 -15 11 -45 20 -74 21 -26 2 -77 -3 -112 -11 -37 -7 -90 -29 -122 -48 -32
-19 -63 -42 -71 -51 -7 -8 -36 -27 -63 -41 -28 -14 -69 -38 -91 -53 -22 -15
-54 -31 -72 -34 -18 -4 -48 -20 -69 -36 -20 -17 -73 -49 -118 -74 -44 -24 -95
-47 -112 -50 -17 -4 -46 -23 -65 -42 -19 -20 -47 -42 -62 -51 -16 -8 -48 -29
-72 -47 -23 -18 -63 -43 -88 -55 -25 -12 -51 -29 -57 -37 -7 -7 -18 -14 -25
-14 -6 0 -33 -14 -60 -32 -27 -18 -59 -42 -73 -55 -13 -12 -44 -25 -68 -29
-26 -4 -61 -19 -86 -38 -22 -17 -49 -37 -58 -44 -10 -7 -48 -24 -85 -37 -37
-14 -93 -39 -124 -55 -31 -17 -76 -34 -101 -37 -25 -3 -57 -12 -71 -19 -14 -7
-31 -20 -38 -28 -8 -9 -27 -16 -43 -16 -26 0 -29 3 -23 23 4 12 19 33 34 47
16 14 35 39 44 55 8 17 29 43 46 59 21 20 34 45 41 83 9 40 19 59 40 75 16 11
42 42 57 67 16 25 41 60 56 76 15 17 55 60 87 97 49 55 60 74 60 103 0 19 1
38 1 43 1 4 8 24 15 44 7 21 23 51 36 68 22 30 22 32 6 78 -9 26 -20 67 -24
92 -4 25 -13 57 -21 72 -7 15 -25 35 -39 44 -19 13 -39 16 -93 11 -49 -4 -87
-15 -131 -37 -34 -17 -94 -55 -133 -84 -40 -29 -94 -66 -122 -82 -27 -15 -65
-39 -84 -51 -19 -13 -47 -23 -63 -23 -19 0 -38 -10 -56 -29 -15 -16 -43 -36
-62 -46 -19 -10 -57 -34 -85 -54 -27 -20 -61 -41 -75 -47 -14 -7 -44 -20 -67
-29 -24 -10 -54 -33 -68 -50 -13 -18 -37 -36 -52 -40 -15 -3 -41 -19 -58 -35
-16 -16 -61 -45 -100 -65 -38 -21 -94 -50 -124 -66 -30 -16 -61 -35 -70 -43
-9 -7 -27 -17 -41 -21 -14 -4 -39 -19 -56 -34 -17 -14 -46 -35 -64 -46 -19
-11 -50 -29 -69 -40 -20 -11 -57 -34 -82 -52 -26 -18 -49 -38 -52 -46 -3 -7
-27 -22 -54 -31 -26 -10 -67 -29 -90 -42 -23 -13 -55 -24 -72 -24 -16 0 -33
-4 -36 -10 -3 -5 -16 -8 -27 -6 -12 1 -24 8 -26 15 -2 7 15 30 39 53 23 22 50
55 58 72 9 17 36 49 59 71 24 22 64 62 90 90 26 27 70 72 97 100 31 31 67 84
94 138 30 61 62 106 103 147 32 33 77 72 100 87 23 15 49 41 57 56 9 15 41 47
72 70 30 23 73 62 95 87 22 25 50 59 62 77 13 18 22 46 22 67 0 20 -6 52 -14
71 -8 18 -24 38 -35 45 -12 6 -58 16 -104 23 -53 8 -90 19 -106 32 -13 11 -30
27 -38 35 -8 8 -37 44 -66 79 -33 40 -70 72 -100 87 -26 14 -78 36 -116 49
-37 14 -83 25 -102 26 -19 1 -96 -3 -172 -9 -127 -10 -141 -14 -175 -39 -20
-15 -53 -37 -72 -47 -19 -10 -44 -27 -55 -36 -11 -10 -36 -26 -55 -35 -19 -10
-51 -31 -70 -46 -19 -16 -40 -29 -47 -29 -6 0 -33 -18 -60 -40 -26 -21 -64
-52 -83 -69 -20 -16 -48 -35 -63 -42 -15 -7 -27 -16 -27 -21 0 -6 -55 -65
-123 -132 -68 -67 -137 -142 -155 -168 -18 -26 -49 -56 -70 -68 -30 -17 -43
-33 -57 -72 -9 -27 -28 -62 -40 -76 -12 -15 -29 -41 -38 -58 -9 -18 -30 -43
-47 -58 -18 -14 -38 -26 -45 -26 -8 0 -23 -9 -33 -20 -10 -11 -25 -40 -32 -63
-8 -23 -15 -48 -16 -55 -1 -8 -14 -30 -28 -51 -14 -20 -42 -77 -62 -125 -24
-62 -34 -98 -30 -120 3 -17 19 -69 36 -116 17 -47 35 -111 41 -144 5 -32 19
-76 29 -97 11 -21 20 -45 20 -54 0 -8 -15 -23 -33 -32 -19 -10 -51 -31 -73
-46 -21 -15 -69 -47 -107 -72 -37 -24 -98 -53 -135 -66 -37 -12 -89 -32 -117
-44 -27 -12 -59 -32 -69 -44 -11 -12 -44 -29 -74 -37 -30 -9 -71 -26 -91 -37
-20 -11 -46 -29 -59 -38 -13 -10 -46 -25 -74 -35 -28 -9 -62 -30 -77 -46 l-26
-30 -53 21 c-29 12 -67 21 -83 21 -24 0 -48 -15 -101 -61 -58 -49 -75 -59 -97
-55 -14 3 -57 10 -96 16 -54 7 -74 14 -87 32 -10 13 -22 28 -28 35 -5 7 -10
17 -10 23 0 8 -6 8 -20 0 -11 -6 -20 -20 -20 -30 0 -11 -4 -28 -9 -38 -5 -9
-16 -33 -25 -53 -14 -33 -14 -41 -1 -73 8 -19 15 -49 15 -66 0 -22 11 -42 38
-70 20 -21 46 -40 57 -41 11 -1 38 1 59 6 26 5 51 3 75 -5 19 -7 51 -13 71
-13 20 0 75 12 121 27 46 15 127 43 179 62 52 18 115 38 140 43 25 6 88 26
140 47 52 20 119 45 148 55 30 10 69 32 88 49 19 16 46 30 59 30 13 0 39 13
57 28 18 15 44 35 58 43 14 8 52 25 85 38 33 13 81 43 106 66 25 24 55 45 65
49 11 3 30 23 41 44 17 29 33 41 75 55 29 10 70 30 91 43 21 14 75 38 120 55
45 17 91 38 102 49 11 10 38 27 60 38 23 11 59 36 80 56 22 20 50 39 62 42 13
3 30 4 38 0 8 -3 15 -16 15 -29 0 -13 8 -31 18 -39 9 -9 39 -25 66 -37 27 -11
78 -26 114 -31 36 -6 73 -15 83 -21 10 -5 50 -7 91 -3 43 4 95 16 127 30 29
13 60 24 68 24 8 0 49 14 90 32 42 17 84 31 92 31 9 0 66 31 128 68 61 38 122
81 135 95 12 14 49 44 82 67 32 23 64 45 70 49 6 3 45 23 88 43 42 21 99 57
127 82 28 24 58 60 67 79 9 19 42 54 73 77 31 24 87 60 126 80 38 20 81 37 95
37 14 0 59 11 100 23 41 13 93 36 114 50 21 15 42 27 46 27 4 0 13 14 20 30 7
17 26 38 41 46 16 8 29 12 29 8 0 -4 6 -1 14 5 8 7 25 9 41 5 25 -6 27 -10 22
-47 -4 -31 -15 -50 -46 -79 -23 -20 -51 -43 -64 -50 -12 -7 -26 -11 -30 -10
-5 1 -6 -2 -2 -8 3 -5 1 -10 -5 -10 -6 0 -9 -4 -5 -9 3 -5 -10 -21 -28 -35
-19 -14 -38 -26 -43 -26 -5 -1 -23 -13 -41 -28 -18 -16 -47 -60 -66 -102 -19
-41 -56 -104 -82 -138 -27 -35 -54 -66 -61 -69 -8 -3 -30 -28 -50 -55 -22 -31
-46 -84 -61 -134 l-25 -84 24 -42 c14 -26 38 -51 60 -63 20 -11 42 -30 47 -42
9 -20 18 -23 73 -24 35 -1 74 -4 88 -8 13 -4 55 -3 92 0 37 4 86 17 110 28 24
12 71 36 105 54 34 19 68 38 75 44 7 6 65 27 129 47 83 26 129 47 160 71 24
19 49 35 55 35 6 0 31 9 55 19 24 11 70 38 102 60 32 23 70 47 85 55 15 8 57
44 93 79 60 58 71 65 116 69 28 3 63 14 79 25 16 11 51 24 78 27 40 6 59 17
110 64 34 31 72 74 85 95 17 29 37 45 79 64 31 14 68 27 81 29 13 3 38 12 55
21 17 8 42 29 56 45 16 20 33 29 45 27 15 -3 20 -12 20 -34 0 -23 -9 -36 -41
-60 -23 -16 -51 -46 -63 -66 -11 -19 -34 -53 -50 -75 -17 -21 -34 -43 -39 -49
-4 -5 -15 -21 -25 -35 -9 -13 -17 -20 -17 -15 0 6 -18 -19 -40 -55 -22 -36
-40 -70 -40 -76 0 -6 -13 -28 -30 -49 -16 -21 -30 -48 -30 -61 0 -12 -11 -36
-24 -52 -14 -15 -41 -53 -60 -83 -21 -31 -36 -66 -36 -83 0 -16 9 -48 20 -71
11 -23 36 -60 55 -83 29 -34 49 -45 108 -63 40 -12 87 -28 105 -35 18 -8 39
-14 47 -14 8 0 53 16 101 35 49 20 96 45 106 55 11 11 31 20 47 20 16 0 43 10
62 23 19 12 49 29 67 36 18 8 39 25 48 40 9 16 44 39 86 59 39 19 88 40 110
48 23 8 50 14 62 14 11 0 30 6 42 13 12 6 39 24 60 38 21 14 59 51 83 82 32
39 53 57 75 61 19 4 35 15 41 28 6 13 28 28 56 37 26 9 63 31 83 49 20 17 42
32 48 32 7 0 28 11 48 25 21 14 43 37 50 50 9 17 22 25 39 25 15 0 37 7 49 16
13 9 25 14 28 12 2 -3 -25 -49 -61 -103 -50 -77 -72 -102 -100 -113 -19 -8
-35 -18 -35 -23 0 -5 1 -10 1 -11 1 -2 -9 -25 -23 -53 -14 -27 -29 -68 -33
-90 -4 -22 -6 -78 -6 -124 1 -46 6 -104 13 -130 6 -25 31 -74 56 -109 24 -34
42 -68 39 -75 -3 -8 8 -19 27 -26 17 -8 42 -24 56 -35 14 -12 47 -28 73 -34
45 -11 52 -11 84 9 29 18 42 20 81 14 26 -5 98 -9 161 -11 97 -2 120 0 152 16
21 11 63 23 94 26 52 6 59 10 78 42 13 22 36 41 64 53 25 10 50 19 57 19 6 0
27 13 46 28 19 16 62 43 95 61 33 17 93 56 132 85 40 30 92 78 115 107 23 30
47 59 53 64 6 6 28 24 50 40 22 17 63 45 90 62 28 17 60 34 72 38 13 3 47 22
75 41 29 20 69 53 89 75 27 29 44 39 67 39 17 0 42 5 56 11 13 6 32 29 41 50
13 28 25 40 47 44 19 5 38 21 55 46 14 21 35 41 47 45 11 4 47 27 79 53 31 25
60 55 63 66 4 10 12 24 18 30 6 5 23 15 37 22 15 6 42 25 60 41 19 16 52 35
75 42 24 7 76 42 125 82 46 39 98 77 114 85 17 9 39 27 50 42 11 14 49 55 85
91 36 36 80 72 97 79 17 7 45 30 62 51 17 21 31 43 31 48 0 6 15 23 34 40 19
17 44 33 56 37 15 5 29 0 44 -14 l23 -21 18 20 c10 11 24 20 30 20 7 0 16 -7
19 -16 3 -9 6 -36 6 -60 0 -36 -6 -50 -34 -80 -22 -23 -40 -57 -50 -92 -8 -32
-20 -88 -26 -126 -6 -38 -18 -82 -27 -99 -8 -17 -20 -65 -25 -106 -5 -42 -17
-87 -26 -100 -9 -13 -25 -35 -35 -50 -9 -14 -28 -62 -41 -106 -16 -54 -26
-116 -29 -191 -5 -91 -10 -121 -30 -160 -13 -27 -27 -62 -31 -78 -4 -15 -2
-52 5 -81 10 -44 9 -60 -3 -92 -9 -21 -14 -50 -12 -65 1 -15 35 -70 74 -122
46 -62 79 -98 95 -102 14 -4 46 1 73 11 26 9 74 23 107 31 33 9 74 24 91 35
17 10 46 19 63 19 17 0 57 14 89 31 31 18 74 43 95 57 22 15 45 42 56 68 12
26 34 52 58 68 21 14 49 46 62 71 13 25 27 45 31 45 4 0 38 35 76 79 38 43 90
105 115 137 26 33 60 84 77 114 16 30 33 67 36 83 4 15 21 44 39 65 19 20 52
64 74 97 22 33 62 95 89 139 27 43 76 109 109 148 33 38 75 91 93 116 19 26
74 86 124 135 49 48 95 88 101 89 7 1 35 3 62 4 28 1 73 5 101 9 33 5 65 3 89
-5 32 -10 41 -21 67 -76 25 -54 29 -71 22 -106 -4 -24 -7 -66 -8 -93 -1 -42
-7 -58 -36 -95 -19 -24 -34 -45 -32 -47 1 -2 2 -23 2 -47 0 -40 -8 -55 -75
-145 -42 -56 -80 -101 -84 -101 -5 0 -27 -28 -49 -62 -22 -35 -56 -81 -76
-103 -20 -22 -40 -53 -45 -70 -5 -16 -15 -60 -22 -97 -11 -59 -10 -75 5 -129
9 -35 33 -92 53 -127 27 -49 45 -68 71 -79 20 -8 59 -17 87 -20 40 -4 60 -1
93 16 24 12 57 42 77 69 27 38 45 51 87 66 29 10 64 26 78 34 14 9 43 20 65
24 22 5 52 12 68 15 22 4 27 2 27 -14 0 -11 -13 -37 -30 -59 -23 -31 -29 -49
-30 -89 0 -27 7 -90 15 -140 9 -49 13 -107 9 -128 -4 -26 -1 -45 10 -62 9 -14
40 -49 69 -79 28 -29 63 -61 77 -69 14 -9 48 -19 77 -23 41 -5 60 -2 95 14 24
12 74 28 111 36 38 9 80 16 95 16 15 0 41 8 59 18 17 9 52 30 77 45 25 16 69
32 98 37 29 5 60 10 68 13 8 2 26 9 40 14 14 6 50 22 80 36 30 14 78 40 105
57 28 16 73 41 100 54 28 13 59 33 69 45 11 12 33 42 50 68 20 30 53 59 94 85
35 21 68 35 74 32 5 -3 13 -17 19 -31 5 -13 12 -47 15 -75 4 -28 22 -83 42
-122 19 -39 45 -82 56 -94 12 -13 33 -30 48 -38 17 -9 38 -12 55 -8 16 4 40
16 54 27 23 17 32 18 62 8 25 -9 69 -9 159 -2 88 6 136 15 168 30 25 11 57 21
71 21 15 0 53 14 84 30 31 17 81 37 110 45 29 9 78 34 110 56 43 31 72 44 123
53 37 6 77 17 89 24 12 6 25 12 30 12 5 0 17 -54 27 -120 12 -81 24 -128 37
-144 10 -13 22 -41 25 -62 3 -22 12 -50 19 -64 7 -14 24 -35 37 -46 12 -12 37
-29 55 -38 18 -9 48 -16 68 -16 20 0 52 -7 71 -15 20 -8 52 -28 70 -45 19 -16
40 -31 47 -31 7 -1 59 -3 117 -5 58 -2 143 1 190 7 47 5 108 15 137 20 37 7
58 18 70 35 13 17 37 29 78 40 33 8 67 16 75 18 8 2 67 22 130 44 63 22 131
46 150 54 20 8 49 29 65 45 17 16 51 72 77 124 26 52 52 108 58 124 7 17 16
86 21 155 6 84 5 143 -2 178 -9 44 -21 65 -70 119 -32 36 -59 69 -59 74 0 5
-12 27 -26 49 -14 22 -35 42 -46 46 -11 3 -37 21 -57 39 -21 19 -60 39 -96 50
-49 14 -81 16 -170 11 -90 -5 -124 -12 -188 -38 -42 -17 -90 -43 -105 -58 -15
-14 -41 -36 -59 -48 -17 -13 -37 -38 -43 -57 -6 -19 -9 -39 -5 -45 3 -5 1 -10
-5 -10 -6 0 -29 12 -53 27 -23 15 -46 26 -50 25 -5 -1 -6 2 -2 8 3 5 0 10 -7
10 -7 1 -3 6 9 13 12 7 31 25 43 40 13 16 59 54 103 84 62 44 84 66 99 100 10
24 22 65 25 92 4 36 1 56 -12 78 -9 16 -30 36 -47 46 -20 12 -52 17 -99 17
-38 0 -84 -6 -103 -14 -18 -7 -49 -28 -70 -46 -20 -18 -44 -46 -52 -62 -8 -15
-71 -84 -140 -153 -68 -69 -148 -143 -178 -165 -29 -22 -60 -40 -69 -40 -9 0
-52 -32 -97 -71 -44 -39 -80 -77 -80 -84 0 -7 -18 -27 -41 -43 -23 -17 -60
-34 -83 -37 -22 -4 -64 -17 -92 -30 -40 -19 -57 -22 -85 -15 -19 5 -44 12 -55
15 -13 4 -32 1 -45 -8 -13 -9 -76 -30 -141 -47 -64 -17 -139 -32 -168 -34 -40
-2 -53 1 -60 14 -5 10 -6 20 -3 24 4 4 8 26 9 51 1 24 9 56 17 72 8 15 26 53
40 83 14 30 28 72 32 92 3 21 24 76 45 122 22 46 40 93 40 105 0 11 9 29 21
39 11 9 61 56 110 104 49 48 103 110 120 138 17 28 39 55 50 60 10 6 41 45 69
87 l50 76 0 92 c0 76 -3 95 -18 108 -10 10 -47 29 -82 43 -50 20 -74 24 -111
20 -26 -3 -55 -9 -66 -13 -10 -4 -31 -16 -47 -27 -16 -12 -40 -32 -54 -46 -14
-13 -34 -46 -43 -71 -10 -26 -30 -64 -44 -84 -14 -21 -25 -45 -25 -55 0 -9
-12 -28 -27 -42 -16 -14 -53 -55 -83 -92 -30 -37 -76 -91 -102 -119 -25 -29
-50 -66 -54 -82 -4 -17 -14 -43 -22 -60 -8 -16 -33 -51 -56 -76 -22 -26 -70
-79 -105 -118 -34 -39 -82 -82 -105 -97 -23 -15 -51 -41 -62 -58 -12 -17 -34
-38 -50 -46 -16 -8 -42 -25 -57 -37 -16 -13 -34 -23 -42 -23 -7 0 -39 -26 -71
-57 -33 -32 -72 -65 -89 -73 -16 -8 -46 -24 -65 -35 -19 -11 -39 -21 -45 -22
-5 -1 -62 -15 -126 -31 -96 -24 -131 -38 -204 -83 -82 -50 -93 -54 -144 -52
-30 2 -58 8 -63 15 -4 7 -8 23 -8 35 0 12 9 37 19 55 11 18 24 51 30 73 7 28
20 46 41 58 17 10 43 37 58 60 14 23 51 69 82 103 30 33 64 78 75 100 11 21
28 51 39 67 11 15 35 36 53 47 17 10 41 37 52 59 12 22 21 59 21 81 0 23 6 53
14 68 8 15 38 50 68 77 29 28 65 64 79 80 14 17 38 39 53 50 16 11 55 55 87
99 32 43 64 95 70 115 6 20 9 54 7 75 -2 29 -10 44 -31 60 -22 16 -43 21 -91
21 -54 0 -73 -6 -146 -44 -46 -24 -90 -50 -97 -57 -7 -7 -23 -16 -34 -19 -13
-4 -30 -28 -45 -62 -14 -30 -41 -75 -62 -100 -20 -24 -59 -61 -87 -81 -27 -20
-66 -47 -85 -60 -19 -13 -64 -54 -100 -91 -36 -37 -90 -83 -121 -104 -30 -20
-68 -37 -83 -37 -15 0 -56 -19 -94 -44 -37 -24 -89 -53 -117 -63 -27 -11 -75
-30 -105 -42 -29 -11 -57 -18 -62 -13 -4 4 -1 20 7 35 8 15 17 45 21 65 4 20
13 51 22 67 8 17 21 37 29 47 8 9 21 42 30 75 8 32 24 73 35 90 13 22 22 63
28 120 5 49 14 102 20 119 9 27 7 45 -14 115 -14 46 -35 109 -48 139 -13 30
-33 73 -45 95 -13 24 -36 49 -59 61 -22 12 -50 25 -64 29 -14 4 -37 16 -52 27
-22 15 -43 18 -126 17 -55 0 -107 3 -115 7 -9 5 -57 7 -109 3 -51 -3 -103 -2
-115 3 -12 4 -37 2 -54 -4 -24 -8 -37 -8 -50 1 -10 6 -26 11 -34 11 -10 0 -15
-10 -15 -30 0 -24 -7 -35 -35 -51 -19 -12 -49 -41 -65 -66 -17 -25 -41 -66
-54 -92 -13 -25 -36 -57 -51 -71 -15 -14 -35 -41 -45 -60 -10 -19 -33 -49 -52
-66 -18 -17 -54 -57 -79 -90 -25 -32 -55 -72 -65 -89 -10 -16 -33 -49 -51 -73
-18 -24 -33 -49 -33 -55 0 -7 -9 -30 -21 -51 -11 -21 -29 -47 -39 -59 -11 -11
-27 -42 -35 -68 -9 -26 -52 -99 -96 -161 -44 -62 -97 -126 -117 -143 -20 -16
-47 -43 -61 -59 -14 -16 -46 -49 -71 -73 -25 -24 -72 -62 -105 -85 -33 -22
-75 -54 -93 -71 -27 -26 -36 -29 -50 -20 -11 7 -16 22 -15 42 0 18 13 49 27
70 14 20 26 44 26 53 0 8 11 35 25 60 14 25 29 74 34 114 6 39 17 87 26 107 8
20 15 65 15 100 0 45 5 68 15 77 8 7 17 28 21 49 4 20 17 56 30 81 13 25 33
81 45 125 12 44 29 96 39 115 10 19 27 55 38 80 11 25 25 70 32 100 7 30 19
75 27 100 8 24 18 49 23 55 4 5 18 48 30 95 17 63 36 106 75 165 29 44 60 94
69 112 9 18 32 45 51 60 20 15 49 49 65 74 16 25 41 56 56 70 14 13 33 37 41
53 8 16 28 74 45 130 18 61 44 123 66 156 20 30 97 116 172 191 74 75 171 177
216 225 45 49 89 101 98 116 10 14 40 50 67 80 27 29 62 67 78 83 16 17 37 46
47 67 9 20 27 42 40 49 13 7 44 44 68 83 24 39 63 107 86 151 24 44 53 91 65
105 12 14 40 52 61 85 21 33 47 78 57 100 10 22 27 49 37 60 11 11 26 40 35
65 9 24 22 51 30 60 8 9 21 36 30 60 8 24 19 48 24 54 5 6 16 34 24 61 9 28
32 90 52 139 27 66 36 101 34 135 -2 25 -9 65 -15 88 -7 24 -29 59 -48 78 -20
20 -36 40 -36 45 0 5 -14 17 -32 26 -17 9 -57 18 -87 19 -31 2 -77 -3 -103 -9z
m-14 -367 c3 -17 6 -50 6 -73 0 -22 -11 -63 -24 -91 -13 -27 -46 -98 -72 -157
-32 -69 -66 -126 -95 -159 -26 -28 -66 -86 -89 -128 -24 -42 -54 -89 -67 -106
-13 -16 -41 -51 -63 -77 -21 -26 -42 -58 -45 -70 -4 -13 -30 -46 -59 -74 -28
-28 -73 -77 -100 -108 -27 -31 -53 -53 -57 -49 -5 5 -10 49 -11 98 -2 75 1 97
19 135 12 25 25 63 29 85 4 21 20 64 37 95 16 30 40 66 52 80 12 14 31 41 43
60 11 19 30 59 42 89 12 30 27 59 34 65 8 6 21 33 30 60 8 27 27 64 41 82 15
19 44 43 66 55 22 11 73 42 113 69 41 27 85 63 99 80 14 16 28 39 32 50 3 11
12 20 19 20 8 0 16 -14 20 -31z m-9013 -2591 c20 -7 44 -20 53 -27 9 -8 23
-38 32 -68 9 -30 13 -65 10 -79 -4 -13 -19 -38 -35 -56 -15 -18 -36 -48 -45
-66 -10 -18 -37 -47 -62 -65 -26 -18 -57 -53 -74 -84 -17 -29 -39 -61 -49 -71
-11 -9 -65 -55 -122 -102 -57 -47 -162 -143 -233 -215 -72 -71 -147 -140 -166
-154 -19 -13 -77 -46 -129 -73 -52 -26 -116 -55 -143 -64 -26 -8 -56 -27 -67
-40 -11 -14 -37 -37 -58 -51 -21 -14 -58 -32 -83 -40 -25 -7 -60 -21 -77 -30
-29 -15 -35 -16 -47 -3 -8 8 -21 39 -30 69 -9 30 -16 68 -16 83 0 16 6 41 14
56 7 15 19 50 25 78 9 35 24 64 49 90 20 22 46 53 56 69 11 17 36 44 56 62 21
18 47 55 59 83 15 35 33 58 56 72 19 11 45 37 57 59 12 21 25 39 29 39 4 0 31
30 60 67 29 36 72 78 94 92 22 14 70 51 107 81 36 30 71 65 77 77 5 12 27 31
48 43 21 11 77 45 125 75 65 40 104 57 150 65 35 7 68 16 74 21 6 5 33 12 59
14 27 3 51 8 54 11 3 3 17 3 31 1 14 -3 41 -11 61 -19z m12739 -1259 c19 -5
89 -12 155 -15 66 -3 131 -7 145 -9 14 -2 50 -4 81 -4 38 -1 62 -7 76 -18 11
-10 25 -28 31 -40 7 -12 12 -34 12 -50 0 -15 9 -55 19 -88 13 -43 16 -66 9
-86 -5 -15 -26 -42 -46 -60 -19 -19 -64 -54 -98 -79 -34 -25 -88 -66 -120 -92
-44 -36 -67 -48 -92 -48 -19 0 -46 9 -61 19 -19 13 -41 19 -76 17 -29 -1 -71
-12 -100 -26 -37 -18 -66 -24 -120 -24 -59 -1 -80 4 -129 29 -32 16 -61 35
-63 42 -3 7 -21 13 -40 13 -32 0 -35 2 -28 23 4 12 8 33 7 47 0 14 -3 50 -6
80 -6 48 -3 68 28 155 25 71 43 107 63 123 17 13 34 19 43 15 8 -4 33 -7 56
-7 22 1 50 6 62 13 12 6 27 29 33 51 l12 40 56 -6 c31 -3 72 -10 91 -15z"/>
<path d="M39093 8990 c-29 -17 -33 -25 -33 -63 0 -24 -5 -48 -12 -55 -7 -7
-24 -12 -40 -12 -18 0 -52 -18 -97 -52 -38 -29 -74 -62 -81 -74 -6 -11 -29
-31 -52 -45 -22 -13 -53 -43 -69 -66 -16 -22 -44 -51 -63 -62 -19 -12 -41 -32
-50 -46 -9 -13 -16 -30 -16 -37 -1 -7 -9 -31 -20 -53 -14 -29 -19 -62 -20
-117 0 -42 5 -89 11 -105 5 -15 22 -39 37 -53 20 -19 37 -25 73 -25 37 0 53 6
74 25 14 13 36 40 48 60 12 19 37 55 55 80 19 25 46 56 59 70 14 14 36 45 48
70 13 25 44 65 69 90 25 25 55 55 68 68 13 12 45 45 72 73 l49 50 -7 69 c-5
63 -4 69 14 75 11 3 25 15 31 26 6 11 8 36 6 55 -3 20 -7 37 -8 38 -2 2 -18
11 -36 20 -18 9 -42 16 -55 16 -13 0 -38 -9 -55 -20z"/>
<path d="M22758 8570 c-9 -6 -45 -12 -80 -14 -47 -3 -86 -14 -156 -45 -69 -32
-105 -42 -145 -43 -30 0 -78 -10 -114 -24 -45 -18 -81 -24 -136 -24 -40 0 -94
-6 -118 -14 -24 -7 -71 -29 -104 -49 -33 -21 -65 -37 -72 -37 -7 0 -43 -20
-80 -44 -37 -24 -84 -49 -104 -55 -24 -8 -46 -25 -62 -50 -18 -27 -36 -41 -68
-50 -24 -7 -62 -24 -84 -38 -21 -15 -68 -50 -103 -80 -35 -30 -76 -56 -92 -60
-18 -3 -50 -28 -87 -68 -32 -34 -67 -77 -78 -96 -11 -18 -43 -47 -72 -64 -29
-16 -81 -47 -117 -68 -41 -24 -76 -53 -95 -80 -16 -23 -60 -73 -98 -112 -39
-38 -90 -86 -114 -107 -25 -20 -54 -56 -66 -80 -12 -23 -40 -63 -63 -87 -22
-24 -40 -47 -40 -52 0 -4 -19 -28 -42 -53 -24 -24 -74 -77 -111 -117 -38 -41
-103 -112 -145 -159 -41 -47 -85 -90 -96 -95 -16 -8 -22 -24 -27 -65 -3 -30
-14 -72 -23 -94 -9 -21 -30 -54 -47 -74 -17 -19 -46 -67 -65 -105 -18 -38 -39
-77 -47 -86 -8 -9 -40 -69 -72 -134 -32 -65 -67 -129 -77 -143 -11 -13 -24
-24 -30 -24 -7 0 -34 -16 -62 -35 -36 -24 -84 -43 -161 -63 -60 -16 -124 -36
-141 -45 -17 -9 -55 -19 -85 -23 -30 -4 -79 -16 -109 -26 -30 -11 -79 -26
-107 -34 -29 -8 -73 -23 -99 -34 -26 -11 -86 -31 -133 -44 -47 -13 -117 -31
-156 -40 -38 -8 -122 -20 -185 -26 -63 -6 -128 -13 -145 -16 -16 -4 -54 -17
-82 -31 -40 -18 -82 -26 -175 -33 -68 -5 -139 -12 -158 -16 -19 -4 -55 -18
-79 -31 -32 -17 -60 -23 -105 -23 -34 0 -96 -8 -138 -19 -59 -14 -83 -25 -98
-44 -12 -15 -36 -29 -55 -33 -19 -3 -50 -12 -70 -18 -20 -7 -44 -24 -53 -38
-9 -14 -25 -37 -36 -52 -18 -25 -18 -27 7 -73 13 -27 39 -58 56 -70 18 -12 56
-27 85 -34 50 -11 57 -10 111 16 32 15 87 31 124 36 36 5 76 17 89 25 19 13
29 13 52 4 19 -8 39 -8 66 -2 22 6 77 14 124 18 47 4 132 8 190 9 82 1 118 6
165 23 33 13 107 29 165 38 58 8 125 21 150 29 25 8 77 19 115 25 39 6 97 19
130 30 33 10 86 21 117 25 36 4 71 16 94 32 21 13 59 28 85 32 25 4 69 19 96
34 28 14 79 33 114 42 35 9 75 23 89 30 14 7 44 16 65 20 22 4 53 11 68 17 21
8 31 8 40 -1 7 -7 18 -42 25 -79 7 -37 17 -87 21 -112 4 -25 14 -58 20 -75 7
-16 23 -43 35 -60 13 -16 33 -49 44 -71 12 -23 35 -53 51 -67 16 -13 51 -35
77 -47 26 -13 77 -26 113 -30 36 -3 75 -11 87 -18 12 -6 38 -13 58 -15 20 -2
62 0 94 4 31 4 82 10 112 14 30 3 68 8 85 12 16 3 40 12 52 20 13 9 23 12 23
9 0 -3 17 1 38 10 24 11 76 18 147 21 61 2 122 9 137 15 15 5 29 16 32 24 3 7
24 17 46 20 22 4 43 11 46 15 3 5 12 9 21 9 9 0 50 20 92 44 42 24 94 49 116
56 22 7 65 31 95 54 30 22 58 45 62 51 4 5 2 15 -4 23 -7 8 -7 16 -2 22 5 5
32 20 59 34 28 13 62 27 75 30 14 2 81 19 150 36 90 23 132 39 151 56 14 14
43 29 64 35 21 6 45 17 53 25 7 8 28 25 45 38 18 12 57 32 87 43 30 12 73 26
96 32 24 6 53 25 73 46 18 20 44 40 58 46 16 6 30 6 36 0 5 -5 6 -19 2 -31 -4
-12 -26 -45 -50 -74 -24 -30 -50 -66 -58 -82 -8 -16 -26 -39 -40 -50 -13 -12
-43 -60 -65 -107 -22 -46 -43 -95 -47 -108 -4 -13 -11 -26 -15 -29 -4 -3 -21
-31 -38 -62 -17 -32 -39 -69 -51 -83 -11 -15 -27 -47 -35 -73 -13 -37 -28 -56
-72 -90 -32 -25 -62 -58 -70 -77 -8 -19 -14 -51 -14 -72 0 -21 -9 -54 -20 -73
-10 -19 -29 -55 -41 -80 -12 -25 -39 -67 -60 -95 -20 -27 -52 -84 -70 -125
-18 -41 -43 -86 -55 -100 -13 -14 -45 -47 -71 -75 -26 -27 -77 -64 -112 -82
-36 -18 -75 -33 -87 -33 -12 0 -47 -13 -77 -29 -30 -16 -70 -32 -88 -36 -18
-4 -54 -16 -79 -27 -25 -11 -54 -27 -65 -37 -11 -10 -36 -21 -57 -25 -20 -4
-57 -18 -84 -32 -26 -14 -60 -35 -76 -47 -16 -12 -46 -36 -66 -54 -21 -17 -50
-35 -64 -38 -20 -5 -30 -17 -40 -48 -11 -35 -22 -46 -73 -75 -33 -18 -64 -38
-70 -45 -5 -7 -30 -30 -55 -51 -25 -22 -52 -52 -60 -67 -8 -15 -30 -38 -49
-51 -19 -13 -42 -34 -53 -48 -10 -14 -29 -56 -43 -93 -13 -37 -50 -104 -82
-148 -32 -45 -70 -99 -85 -122 -15 -23 -39 -64 -53 -92 -14 -27 -47 -90 -75
-140 -27 -49 -56 -103 -64 -120 -8 -16 -22 -55 -31 -85 -9 -30 -32 -79 -51
-107 -19 -30 -34 -65 -34 -82 0 -17 -11 -42 -24 -58 -14 -16 -32 -49 -42 -74
-10 -24 -25 -55 -34 -69 -9 -14 -25 -45 -34 -70 -10 -25 -26 -53 -37 -63 -10
-10 -19 -22 -19 -27 0 -5 -13 -31 -28 -57 -16 -27 -32 -67 -36 -88 -4 -22 -19
-64 -33 -93 -14 -30 -31 -81 -39 -115 -7 -34 -18 -86 -24 -115 -6 -29 -19 -72
-29 -95 -10 -23 -35 -64 -55 -90 -33 -43 -39 -61 -51 -143 -9 -54 -26 -117
-40 -149 -14 -29 -45 -75 -69 -102 -35 -41 -45 -60 -60 -128 -9 -44 -19 -91
-22 -104 -3 -13 -12 -40 -20 -60 -9 -20 -22 -63 -30 -96 -8 -33 -21 -93 -29
-134 -8 -41 -22 -94 -31 -117 -10 -27 -14 -57 -11 -79 3 -20 1 -90 -4 -157 -8
-101 -7 -124 5 -143 9 -14 30 -25 53 -30 21 -4 61 -18 90 -31 28 -14 80 -28
116 -32 58 -7 68 -6 98 15 18 13 39 23 45 23 7 0 36 24 66 53 29 29 75 64 102
77 27 13 80 47 119 76 46 35 79 68 96 101 15 26 53 87 84 135 32 47 72 100 89
117 18 17 35 31 38 31 4 0 15 18 25 41 10 22 31 47 45 54 15 8 33 29 40 47 7
18 32 53 55 78 23 25 67 79 97 120 31 41 65 94 77 117 11 23 25 44 31 48 5 3
25 34 44 68 19 34 39 81 45 104 7 23 22 55 35 70 13 15 33 48 46 73 12 25 37
61 55 80 18 19 38 52 43 72 6 21 26 57 45 80 19 24 59 90 89 148 30 58 69 130
86 160 18 30 32 64 32 76 0 12 13 45 29 75 15 30 36 77 45 106 10 28 26 63 37
77 11 14 31 50 44 81 14 30 25 62 25 70 0 9 11 33 25 55 14 22 25 42 25 46 0
4 16 32 35 63 19 31 53 76 75 101 22 24 43 56 47 70 3 14 18 52 33 85 15 33
30 76 34 95 3 19 22 58 40 86 19 28 41 75 50 103 8 28 24 64 34 79 11 15 32
55 46 89 14 35 42 95 61 135 20 40 42 93 49 118 8 25 41 102 74 171 33 69 67
131 76 138 9 8 16 22 16 31 0 10 16 49 36 87 20 37 52 90 71 117 20 28 43 66
52 85 9 20 33 61 53 91 19 30 69 89 109 130 41 42 81 85 90 97 10 11 24 25 34
30 9 5 21 29 26 54 6 24 21 61 35 81 14 20 34 65 45 99 11 35 27 71 36 81 8 9
31 22 49 28 19 7 34 18 34 25 0 8 -4 17 -10 20 -5 3 -10 16 -10 28 0 12 12 40
27 62 23 34 27 52 30 125 2 47 6 95 9 108 2 12 20 40 39 61 19 21 42 57 50 81
8 23 28 58 43 78 16 21 41 58 56 83 14 25 36 55 47 65 12 10 42 51 67 89 25
39 51 73 58 78 7 4 20 14 29 23 8 8 15 32 15 51 0 31 8 44 60 92 32 31 72 79
87 107 15 29 38 65 51 80 12 16 45 67 72 114 40 68 50 95 52 135 1 27 0 65 -1
84 -1 19 -6 42 -11 52 -5 9 -23 22 -41 29 -24 10 -46 11 -99 3 -48 -8 -79 -19
-104 -38 -20 -15 -45 -43 -57 -61 -11 -19 -33 -41 -49 -49 -15 -8 -66 -55
-112 -105 -72 -77 -89 -90 -116 -90 -23 0 -44 -11 -75 -38 -23 -21 -58 -50
-79 -65 -20 -14 -61 -36 -91 -47 -30 -11 -69 -35 -88 -52 -26 -25 -46 -34 -92
-40 -33 -4 -76 -18 -96 -30 -20 -11 -43 -29 -51 -39 -8 -10 -49 -35 -90 -57
-41 -21 -93 -48 -115 -60 -22 -11 -79 -40 -128 -63 -48 -23 -90 -46 -93 -50
-3 -5 -37 -28 -77 -51 -40 -23 -74 -41 -77 -41 -3 1 -18 -4 -35 -11 -16 -7
-55 -19 -85 -26 -30 -8 -57 -15 -60 -15 -3 -1 -16 -5 -30 -9 -14 -5 -41 -19
-60 -32 -19 -12 -66 -31 -105 -41 -38 -9 -91 -30 -116 -45 -37 -23 -58 -28
-108 -28 -49 0 -74 -6 -124 -31 -34 -18 -89 -37 -122 -44 -33 -7 -88 -16 -121
-20 -45 -5 -74 -2 -108 9 -26 9 -59 16 -74 16 -19 0 -40 14 -73 48 -25 26 -56
54 -70 63 -22 15 -24 23 -23 88 0 41 5 76 12 83 7 7 12 24 12 39 0 15 5 31 11
35 8 4 7 9 -2 15 -9 5 -10 11 -4 17 6 5 28 15 50 22 22 7 56 22 75 35 19 12
46 26 60 30 14 4 54 21 90 37 36 16 81 37 100 47 19 10 60 26 90 36 30 10 73
28 95 41 22 12 83 35 135 50 52 15 106 35 120 44 14 9 52 26 85 38 33 13 83
34 110 49 28 14 77 39 110 56 33 17 97 55 143 85 45 30 90 68 99 83 10 16 22
29 29 29 6 0 67 28 135 63 68 34 138 68 155 74 16 7 57 18 89 24 33 6 73 18
90 26 16 9 47 31 68 50 21 18 63 45 95 59 31 14 75 42 97 63 22 22 56 47 75
56 19 10 50 31 68 46 18 16 45 32 60 36 15 3 49 20 77 36 27 16 69 46 91 67
23 21 60 50 82 64 22 14 43 30 46 35 4 5 21 13 39 16 17 4 52 19 77 35 25 15
59 33 77 40 18 7 49 33 70 59 21 25 48 54 61 64 12 11 38 43 57 73 19 29 52
64 73 78 21 13 61 52 88 86 27 35 72 88 100 119 32 36 60 82 78 126 15 39 30
93 33 122 3 29 0 81 -6 115 -7 35 -20 83 -28 108 -9 25 -24 56 -32 70 -8 14
-32 45 -54 70 -21 25 -50 53 -65 62 -15 10 -55 31 -89 47 -35 16 -63 34 -63
38 0 5 -26 28 -58 50 -32 23 -89 50 -126 62 -38 12 -76 21 -85 21 -9 0 -24 -5
-33 -10z m-58 -381 c30 -11 84 -24 120 -29 36 -6 89 -14 119 -18 35 -6 59 -16
67 -28 7 -10 18 -23 24 -29 5 -5 19 -19 30 -30 14 -13 20 -29 18 -50 -3 -25
-11 -34 -56 -55 -41 -19 -54 -31 -60 -55 -5 -16 -4 -44 1 -61 8 -25 4 -41 -18
-90 -17 -38 -44 -74 -75 -102 -27 -23 -51 -51 -55 -61 -3 -10 -34 -35 -68 -56
-34 -21 -76 -51 -93 -67 -17 -16 -57 -42 -90 -57 -32 -16 -72 -43 -89 -60 -16
-18 -49 -42 -74 -54 -24 -12 -67 -47 -95 -78 -37 -40 -63 -59 -95 -68 -25 -7
-68 -26 -97 -42 -29 -17 -57 -36 -64 -43 -6 -8 -36 -24 -68 -37 -31 -12 -64
-28 -72 -34 -8 -7 -40 -26 -70 -42 -30 -17 -68 -33 -83 -37 -16 -4 -54 -23
-85 -43 -31 -20 -69 -44 -84 -54 -15 -10 -54 -32 -87 -49 -33 -17 -82 -37
-108 -45 -26 -8 -75 -31 -108 -51 -33 -20 -88 -49 -123 -65 -34 -16 -68 -29
-75 -29 -6 0 -29 -5 -49 -10 -21 -6 -50 -21 -65 -34 -15 -13 -44 -27 -63 -30
-19 -4 -55 -14 -80 -23 -25 -8 -52 -18 -60 -21 -8 -3 -17 -6 -20 -7 -3 -1 -14
-6 -25 -10 -11 -5 -33 -19 -50 -31 -16 -12 -56 -28 -87 -35 -39 -8 -82 -29
-130 -61 -65 -44 -78 -49 -120 -47 -34 2 -53 -2 -67 -15 -11 -10 -28 -16 -38
-14 -10 2 -19 14 -21 26 -2 13 8 41 22 62 14 21 28 51 31 67 4 15 11 41 17 56
6 15 24 35 39 43 18 9 42 38 61 75 18 33 45 84 60 114 15 29 38 61 51 72 14
10 36 41 50 69 14 27 49 73 79 102 29 30 74 65 100 78 32 16 55 38 73 67 14
24 25 51 25 59 0 8 37 48 83 89 45 41 127 113 181 159 55 47 109 94 120 106
12 11 44 45 72 75 28 30 72 73 97 96 25 22 55 44 66 48 12 3 21 10 21 14 0 5
17 19 38 33 20 14 74 48 119 77 45 28 84 51 87 51 3 0 27 15 53 34 27 19 72
43 101 54 30 12 81 39 115 61 34 22 95 53 135 70 41 16 82 37 91 45 10 9 28
16 42 16 13 0 38 8 54 17 22 12 59 18 135 20 58 1 119 7 135 12 17 5 41 10 55
10 14 0 50 -9 80 -20z m-1550 -4391 c0 -7 -15 -25 -33 -40 -19 -14 -41 -42
-50 -61 -10 -19 -17 -47 -17 -61 0 -14 -6 -40 -14 -58 -8 -18 -20 -53 -27 -78
-7 -25 -29 -79 -47 -120 -19 -41 -48 -90 -63 -108 -16 -18 -29 -40 -29 -49 0
-8 -16 -41 -35 -73 -19 -32 -35 -68 -35 -82 0 -13 -6 -32 -14 -43 -7 -11 -30
-58 -50 -105 -21 -47 -45 -94 -55 -105 -10 -11 -34 -49 -53 -85 -20 -36 -48
-102 -63 -145 -14 -44 -40 -97 -56 -117 -19 -24 -29 -49 -29 -70 0 -18 -6 -42
-13 -54 -6 -11 -28 -45 -48 -75 -20 -30 -52 -83 -71 -119 -19 -36 -38 -78 -42
-93 -3 -15 -17 -33 -30 -39 -17 -7 -28 -24 -35 -54 -6 -24 -22 -68 -35 -97
-13 -28 -42 -70 -66 -92 -23 -22 -47 -53 -55 -70 -7 -16 -40 -64 -74 -105 -33
-41 -75 -104 -92 -139 -18 -35 -41 -98 -50 -139 -12 -47 -29 -89 -46 -111 -16
-20 -55 -88 -87 -152 -48 -96 -69 -127 -128 -184 -39 -39 -88 -94 -109 -125
-21 -30 -44 -62 -51 -71 -7 -9 -23 -21 -36 -28 -18 -10 -29 -9 -56 4 -19 9
-42 25 -52 36 -15 17 -16 23 -6 40 9 14 11 39 6 79 -5 48 -3 65 11 87 15 22
19 51 21 138 1 76 7 123 18 150 10 22 28 52 42 66 18 19 33 61 59 161 18 75
43 154 54 176 11 22 31 52 44 68 12 16 46 76 74 134 28 58 54 121 58 140 4 19
22 62 40 95 23 43 34 78 38 122 3 39 13 76 27 97 11 19 36 44 55 56 24 15 36
31 41 55 3 18 28 63 54 99 27 37 54 84 61 104 6 20 24 60 40 87 15 28 38 62
50 75 12 14 40 49 62 79 24 33 49 84 63 129 13 41 34 91 48 111 14 20 34 60
44 89 11 28 32 67 47 85 14 17 41 52 60 77 19 25 52 74 74 110 22 36 56 81 75
101 20 20 43 53 51 73 10 23 26 41 43 47 15 6 47 20 72 31 25 11 77 31 115 45
39 13 87 33 107 44 20 11 52 19 70 18 22 -2 46 7 72 24 21 15 43 27 47 27 5 0
9 -6 9 -12z"/>
<path d="M21970 7090 c8 -5 19 -10 23 -10 5 0 5 5 2 10 -3 6 -14 10 -23 10
-15 0 -15 -2 -2 -10z"/>
<path d="M15 5420 c3 -5 1 -18 -4 -28 -7 -14 -7 -24 2 -36 7 -9 19 -14 28 -11
8 3 16 17 17 32 1 14 -3 32 -9 39 -6 8 -18 14 -26 14 -8 0 -11 -4 -8 -10z"/>
</g>
</svg>
