<?xml version="1.0" encoding="UTF-8"?>
<svg version="1.0" xmlns="http://www.w3.org/2000/svg" width="201" height="80" >
<path fill="#231F20" d="M15.197,53.574C30.702,43.273,45.74,31.548,58.701,18.175c3.833-3.955,7.58-8.052,11.069-12.317 c0.758-0.926,2.823-2.898,2.406-4.308c-0.874-2.957-6.336,2.101-7.206,2.781c-12.583,9.831-23.465,22.667-34.305,34.315 c-4.549,4.888-9.266,9.775-13.238,15.157C13.005,59.793,6.981,64.336,2.12,69.924c-0.343,0.394-0.784,0.91-0.731,1.47 c0.044,0.465,0.288,0.888,0.771,1.013c1.633,0.42,4.048-1.896,5.206-2.676c5.195-3.504,10.252-7.21,14.91-11.409 c1.241-1.12,9.861-8.346,6.731-10.691c-3.111-2.332-12.223,10.805-13.255,12.191c-1.176,1.58-10.122,12.845-3.23,13.249 c6.074,0.356,31.6-22.326,27.448-24.757c-1.163-0.682-2.697,0.628-3.527,1.28c-4.532,3.555-8.438,7.943-12.276,12.211 c-0.587,0.653-9.523,10.207-4.477,10.573c4.321,0.313,9.887-4.48,13.227-6.712c4.284-2.863,7.703-6.334,11.074-10.232 c1.182-1.366,2.79-2.937,3.474-4.649c0.417-1.046-0.496-2.022-1.561-1.577c-2.672,1.118-5.041,4.045-7.09,5.957 c-3.679,3.432-8.089,7.076-10.435,11.641c-2.601,5.061,4.64,3.4,6.854,2.546c8.445-3.259,16.061-8.985,22.616-15.119 c1.052-0.984,3.69-3.014,3.278-4.783c-0.468-2.006-3.485,0.183-4.162,0.633c-4.67,3.107-9.593,7.169-12.534,12.066 c-2.149,3.579-1.264,7.263,3.477,6.373c4.19-0.787,8.209-3.533,11.723-5.771c8.106-5.164,15.604-11.332,22.946-17.509 c1.038-0.873-0.456-2.35-1.484-1.484c-8.803,7.404-17.865,14.981-28.049,20.448c-1.16,0.623-8.801,4.677-7.582,0.657 c1.552-5.118,7.842-9.456,11.73-12.374c0.695-0.521,1.42-0.991,2.162-1.441c1.174-0.712-0.138-1.379-0.976-0.373 c-1.497,1.798-3.355,3.331-5.112,4.86c-4.18,3.638-8.737,6.729-13.589,9.394c-2.478,1.36-6.69,4.089-9.704,3.515 c-0.236-0.045,3.252-4.743,3.321-4.823c2.494-2.857,5.342-5.421,8.111-8.004c1.516-1.414,3.046-2.848,4.702-4.099 c0.752-0.568-0.389-1.789-0.875-1.012c-0.301,0.479-0.666,0.932-1.013,1.376c-1.94,2.48-4.096,4.809-6.288,7.065 c-3.703,3.811-8.445,6.633-13.043,9.233c-1.188,0.672-2.408,1.303-3.683,1.795c-1.602,0.619-0.96,0.417-0.226-0.816 c3.148-5.293,8.211-9.895,12.56-14.183c1.475-1.454,3.008-2.88,4.681-4.104c1.123-0.822,0.62-1.835-0.307-0.299 c-2.21,3.667-5.702,6.76-8.82,9.624c-3.993,3.667-8.348,7.092-13.16,9.619c-1.236,0.649-4.469,2.274-3.596-0.554 c1.081-3.498,4.068-6.881,6.238-9.686c2.628-3.395,5.534-7.115,9.081-9.615c1.159-0.817,0.027-1.038-0.782,0.24 c-1.168,1.844-2.798,3.434-4.33,4.97c-4.569,4.584-9.89,8.346-15.188,12.025c-1.479,1.028-2.97,2.05-4.529,2.955 c-0.847,0.492,0.172,2.017,0.778,1.258c0.449-0.562,0.976-1.07,1.477-1.585c10.422-10.722,19.932-22.108,30.171-33.01 C45.717,25.673,56.236,13.101,68.717,4.13c0.505-0.363,1.023-0.704,1.552-1.031c1.218-0.752-0.159-1.301-0.393-0.896 c-1.294,2.254-3.292,4.221-4.998,6.158c-6.305,7.155-13.004,13.865-20.194,20.128C35.053,36.877,24.779,44.69,14.137,51.76 C13.015,52.506,14.065,54.326,15.197,53.574L15.197,53.574z"/>
<path fill="#231F20" d="M59.258,61.091c-1.827,2.102-5.417,5.149-5.713,8.129c-0.136,1.37,0.826,2.328,2.193,2.014 c2.904-0.665,5.295-5.557,6.646-7.729c3.881-6.233,7.39-13.02,9.462-20.091c0.784-2.679,0.542-5.989,3.288-7.415 c4.564-2.369,10.531-4.059,15.616-4.723c2.487-0.324,4.979,0.23,7.46-0.179c5.927-0.979,11.618-3.992,16.986-6.525 c-0.425-0.55-0.849-1.1-1.272-1.649c-5.022,4.968-46.525,45.117-42.372,48.71c1.876,1.623,6.276-2.373,7.581-3.311 c4.509-3.244,8.825-6.831,12.88-10.624c1.705-1.595,3.134-3.403,4.671-5.156c1.649-1.88,3.437-3.613,5.516-5.013 c2.449-1.65,3.691,0.462,5.258,1.96c1.74,1.665,4.889,1.304,7.025,1.119c4.352-0.376,8.816-1.456,12.653,1.297 c1.104,0.791,2.15-1.032,1.061-1.813c-5.06-3.629-11.101-1.399-16.806-1.448c-3.119-0.027-3.427-3.715-6.209-3.977 c-2.456-0.231-4.345,1.173-6.189,2.626c-4.192,3.303-7.294,7.964-11.334,11.514c-3.992,3.508-8.166,6.917-12.641,9.795 c-0.609,0.392-1.239,0.744-1.888,1.066c-0.652,0.093-0.619,0.342,0.1,0.748c0.146-0.539,0.616-1.109,0.915-1.566 c1.692-2.586,3.841-4.93,5.852-7.27c4.784-5.565,9.821-10.916,14.878-16.232c6.736-7.083,13.584-14.067,20.534-20.94 c0.893-0.882-0.233-2.14-1.272-1.649c-5.104,2.409-10.359,5.106-15.941,6.224c-2.09,0.418-4.226,0.016-6.334,0.099 c-3.986,0.157-7.886,1.605-11.631,2.832c-2.609,0.854-5.621,1.573-7.794,3.345c-1.398,1.139-1.605,3.257-1.949,4.888 c-1.157,5.492-3.536,10.562-6.106,15.519c-2.311,4.455-4.808,9.682-8.578,13.127c-0.68,0.622-0.397,0.908-0.016,0.108 c1.101-2.308,3.274-4.392,4.955-6.326C61.626,61.559,60.147,60.067,59.258,61.091L59.258,61.091z"/>
<path fill="#231F20" d="M94.592,59.758c-1.591,1.373-12.087,9.557-8.407,11.792c1.043,0.633,2.807-0.189,3.762-0.537 c3.242-1.182,6.429-2.615,9.498-4.187c2.25-1.151,4.368-2.546,6.517-3.872c1.774-1.095,0.419-2.467-0.77-1.167 c-1.453,1.592-7.279,6.173-6.219,8.758c1.789,4.356,19.736-8.233,21.225-9.139c-0.354-0.604-0.707-1.209-1.061-1.813 c-2.481,1.761-11.274,6.815-10.26,10.502c0.811,2.947,7.794,0.101,9.116-0.297c5.982-1.8,12.211-4.854,16.583-9.39 c-0.55-0.424-1.1-0.849-1.648-1.272c-1.203,2.805-3.754,9.622-7.436,9.233c-1.028-0.108-2.475,0.908-1.736,2.05 c0.976,1.509,3.497,1.147,4.972,0.97c6.039-0.726,11.878-3.571,17.303-6.151c-0.425-0.55-0.849-1.1-1.272-1.649 c-1.876,1.724-7.287,6.075-6.457,9.107c1.148,4.202,10.301,0.282,11.904-2.086c0.498-0.736,0.797-1.46,1.037-2.314 c0.549-1.95,4.605-2.229,4.055-0.946c-0.82,1.914-3.603,3.112-2.524,5.505c2.053,4.559,16.361-3.814,18.425-5.118 c-0.354-0.604-0.707-1.209-1.061-1.813c-4.081,2.931-6.697,7.803-0.103,9.241c4.607,1.005,9.882,0.298,14.546,0.111 c2.619-0.105,5.237-0.201,7.858-0.181c1.086,0.008,5.797-0.222,3.819,1.661c-0.982,0.935,0.505,2.418,1.484,1.484 c5.248-4.995-4.394-5.266-7.358-5.245c-5.14,0.037-10.268,0.445-15.409,0.416c-1.817-0.01-8.41,0.122-6.643-2.891 c0.639-1.088,1.848-2.052,2.865-2.782c1.078-0.775,0.104-2.549-1.061-1.813c-3.375,2.133-6.924,3.803-10.732,5.017 c-1.408,0.448-2.867,0.753-4.346,0.788c0.046-0.001,2.142-3.527,2.351-4.015c1.204-2.805-2.229-3.795-4.324-3.337 c-1.078,0.236-2.704,0.648-3.29,1.723c-1.467,2.689-1.27,4.045-4.772,5.294c-0.704,0.251-5.218,1.586-4.098-0.384 c0.572-1.007,1.39-1.882,2.153-2.746c0.991-1.12,2.063-2.179,3.164-3.191c0.93-0.854-0.249-2.135-1.272-1.649 c-4.839,2.301-9.776,4.475-15.026,5.641c-1.135,0.252-2.283,0.376-3.443,0.361c-0.857-0.011-2.121,0.811-0.779,1.084 c4.492,0.913,7.702-7.242,9.02-10.316c0.44-1.027-0.756-2.199-1.648-1.272c-2.841,2.947-6.382,4.917-10.04,6.67 c-2.278,1.092-4.673,1.896-7.086,2.622c-0.947,0.269-1.903,0.5-2.868,0.695c-1.45,0.321-2.472,0.917-1.653-0.14 c2.275-2.939,5.747-5.232,8.753-7.365c1.085-0.77,0.115-2.529-1.061-1.813c-5.117,3.115-10.256,6.296-15.692,8.836 c-1.455,0.68-2.568,0.515-2.47,1.58c-0.04-0.426,0.838-1.337,1.073-1.636c1.146-1.455,6.112-5.105,5.913-7.109 c-0.051-0.517-0.295-0.817-0.771-1.012c-1.156-0.474-3.18,1.438-3.938,1.911c-4.428,2.758-9.009,4.901-13.864,6.824 c-1.401,0.555-2.315,1.456-0.995-0.229c0.925-1.181,2.021-2.238,3.085-3.291c1.479-1.462,3.024-2.865,4.599-4.225 C97.104,60.356,95.611,58.877,94.592,59.758L94.592,59.758z"/>
<line fill="none" x1="110" y1="54.167" x2="110.834" y2="54.5"/>
<path fill="#231F20" d="M109.721,55.18c0.278,0.111,0.557,0.222,0.834,0.333c0.532,0.213,1.152-0.228,1.292-0.733 c0.164-0.599-0.202-1.08-0.733-1.292c-0.278-0.111-0.557-0.222-0.834-0.333c-0.532-0.212-1.152,0.228-1.292,0.733 C108.823,54.486,109.189,54.967,109.721,55.18L109.721,55.18z"/>
</svg>