<?xml version="1.0" encoding="UTF-8"?>
<svg version="1.1" xmlns="http://www.w3.org/2000/svg" width="301" height="124" >
<path fill="#231F20" d="M37.687,3.814c-1.478,2.392-2.15,5.392-2.768,8.087c-2.246,9.8-2.055,20.152-1.435,30.116 c0.627,10.094,1.953,20.141,2.483,30.24c0.204,3.874,0.192,7.708-2.281,10.89c-0.307,0.396,1.628-0.537,1.958-0.961 c2.246-2.89,2.532-6.162,2.46-9.729c-0.188-9.272-1.502-18.579-2.247-27.815c-0.867-10.756-1.161-21.676,0.807-32.334 c0.572-3.099,1.289-6.721,2.979-9.455C39.937,2.38,37.969,3.357,37.687,3.814L37.687,3.814 M36.174,79.036c1.013,1.644,3.378,1.416,4.873,0.717c0.343-0.16,0.79-0.624,0.296-0.913 c-0.5-0.293-1.23-0.156-1.723,0.074c-0.3,0.14-0.126,0.1-0.3,0.079c-0.073-0.009-0.311-0.16-0.438-0.25 c-0.125-0.09-0.292-0.285-0.39-0.445C38.063,77.601,35.667,78.213,36.174,79.036L36.174,79.036 M36.964,63.734c2.25,0.123,5.257,0.01,6.696-1.978c-0.702-0.429-1.404-0.857-2.106-1.287 c-0.391,2.717,0.993,5.216,4.015,4.23c-0.521-0.597-1.043-1.194-1.564-1.791c-2.016,2.371-4.272,4.55-6.673,6.526 c-1.787,1.471-3.759,2.787-5.957,3.545c-3.231,1.116-6.615-2-3.558-4.666c2.661-2.32,7.336-0.283,9.78,1.331 c2.533,1.673,4.632,4.273,5.042,7.316c0.492,3.645,3.384,3.565,6.263,2.738c1.399-0.402,0.005-2.396-1.14-2.067 c-2.288,0.657-2.665-0.413-3.245-2.387c-0.322-1.095-0.984-2.169-1.667-3.067c-2.073-2.727-4.709-4.774-7.889-6.053 c-3.561-1.432-11.777-1.14-10.584,4.749c1.035,5.105,6.659,5.051,10.432,3.208c4.305-2.104,8.107-6.04,11.185-9.659 c0.71-0.835-0.729-2.063-1.564-1.791c-0.889,0.29-0.71-0.698-0.652-1.103c0.136-0.948-1.35-2.331-2.106-1.287 c-1.104,1.523-3.596,1.449-5.304,1.355C34.813,61.514,35.762,63.668,36.964,63.734L36.964,63.734 M61.883,59.688c-3.665,4.322-4.852,10.278-5.582,15.762c-0.048,0.365-0.436,1.667-0.018,0.926 c-0.354,0.627-2.619,2.871-3.139,2.124c-0.39-0.56-0.277-1.599-0.279-2.243c-0.006-1.795,0.296-3.632,0.65-5.389 c-0.789,0.088-1.577,0.177-2.365,0.266c-0.419,2.345-2.659,4.226-4.453,5.596c-0.652,0.498-1.378,0.944-2.121,1.292 c-1.459,0.684,0.708-1.068,1.056-1.395c2.069-1.942,4.729-3.432,7.218-4.777c1.387-0.75,0.335-2.438-1.034-1.698 c-1.907,1.03-12.341,6.444-9.654,9.693c3.017,3.647,10.891-6.382,11.354-8.977c0.261-1.462-2.124-0.93-2.365,0.266 c-0.889,4.402-1.829,12.244,4.805,8.351c2.121-1.245,2.496-2.676,2.785-4.846c0.611-4.592,1.63-10.028,4.709-13.658 C64.492,59.749,62.839,58.562,61.883,59.688L61.883,59.688 M56.171,76.336c0.756,1.37,2.155,2.249,3.633,2.669c2.643,0.751,3.958-0.333,4.832-2.755 c1.277-3.54,5.906-3.08,8.318-5.796c1.596-1.798-1.441-2.969-2.713-3.295c-4.157-1.068-8.835,6.779-5.308,9.617 c3.606,2.902,8.045,1.526,11.51-0.969c0.227-0.164-1.748-1.288-2.223-0.946c-1.441,1.038-5.869,3.948-7.472,1.959 c-2.078-2.579,1.016-7.112,3.162-8.453c0.776-0.485,1.217-0.383,0.996,0.71c-0.171,0.845-1.583,1.716-2.105,2.067 c-1.556,1.045-3.456,1.083-5.039,1.988c-1.462,0.835-2.952,8.064-5.269,3.865C58.174,76.416,56.111,76.228,56.171,76.336 L56.171,76.336 M72.664,71.393c2.452-1.481,6.141-3.371,7.377-6.08c-0.472-0.653-0.943-1.305-1.415-1.958 c-0.585,1.71-0.342,3.625,0.999,4.933c2.056,2.007,5.793-0.256,7.706-1.562c-0.443-0.706-0.885-1.412-1.328-2.118 c-4.736,3.389-10.491,6.954-14,11.667c-0.365,0.49,1.186,2.288,1.328,2.118c0.554-0.66,1.185-1.227,1.881-1.732 c1.509-1.095,2.128,0.218,3.361,0.908c2.597,1.455,6.259,0.211,8.092-1.842c0.403-0.451-1.17-2.295-1.328-2.118 c-2.218,2.485-6.525,3.489-8.963,0.833c-1.343-1.463-3.546,0.852-4.371,1.833c0.443,0.706,0.885,1.412,1.328,2.118 c3.51-4.713,9.264-8.278,14-11.667c0.383-0.274-0.991-2.348-1.328-2.118c-1.386,0.946-2.896,1.655-4.503,2.13 c-0.651,0.184-1.316,0.226-1.993,0.127c0.24,0.842,0.315,0.785,0.226-0.173c0.025-0.463,0.159-0.942,0.309-1.379 c0.183-0.534-1.276-2.261-1.415-1.958c-1.19,2.608-4.93,4.494-7.29,5.92C70.97,69.496,72.279,71.625,72.664,71.393L72.664,71.393 M53.787,71.443c3.63-0.153,7.425-0.306,11.02,0.287c1.587,0.262,1.885-1.88,0.386-2.128 c-3.822-0.63-7.787-0.542-11.647-0.379C51.924,69.292,52.345,71.504,53.787,71.443L53.787,71.443 M92.91,79.789c0.927-5.3,1.381-11.575-1.025-16.539c-0.398-0.821-2.625-1.05-2.438,0.166 c0.272,1.78,0.635,5.09,2.535,5.986c2.456,1.157,6.825-3.887,6.292,0.2c-0.701,5.373-5.43,9.15-9.645,11.91 c-2.583,1.691-5.815,5.357-3.582,8.61c4.69,6.832,11.781-0.267,13.282-5.666c1.396-5.022,0.727-10.507,2.385-15.407 c0.641-1.894,3.387-1.725,3.597,0.35c0.08,0.788-0.054,1.605-0.156,2.383c-0.125,0.942-0.406,1.884-0.713,2.779 c-0.459,1.339,0.68,2.651,1.332,1.019c1.186-2.969,3.584-6.083,5.954-8.18c-0.997,0.883-1.923,7.899-0.21,9.103 c5.937,4.17,5.827-9.112,5.578-11.469c-0.277-2.629-0.825-5.897-2.83-7.815c-1.633-1.563,0.309-0.375,1.88-0.485 c1.37-0.096,2.736-0.317,4.095-0.505c7.357-1.014,14.69-2.225,22.02-3.415c0.879-0.143,1.758-0.286,2.636-0.431 c1.612-0.265-0.091-1.601-1.127-1.431c-5.004,0.823-10.011,1.623-15.021,2.404c-3.491,0.544-6.985,1.076-10.487,1.546 c-2.275,0.305-4.583-0.087-6.803,0.274c-0.328,0.053-0.6,0.273-0.681,0.593c-0.15,0.6,0.209,0.993,0.65,1.415 c1.756,1.681,2.348,3.41,2.868,5.723c0.806,3.586,1.16,8.606-0.671,11.958c-0.226,1.048-0.339,0.829-0.34-0.658 c-0.055-1.001,0.085-2.04,0.163-3.035c0.117-1.518,0.362-3.141,0.018-4.643c-0.306-1.333-2.367-0.98-3.171-0.552 c-1.917,1.02-8.803,8.775-7.071,10.968c2.963,3.752,4.584-6.309,4.578-7.299c-0.026-3.857-5.212-5.904-7.643-2.568 c-2.074,2.846-1.787,6.977-2.075,10.318c-0.279,3.236-0.932,6.325-2.229,9.316c-0.881,2.03-3.966,6.68-7.132,3.514 c-1.147-1.148-0.92-2.913-0.425-4.262c0.925-2.521,4.27-3.987,6.297-5.468c1.88-1.374,3.446-3.1,4.827-4.958 c1.651-2.223,2.461-5.005,2.492-7.746c0.019-1.754-2.151-2.317-3.54-1.949c-0.992,0.263-4.071,2.349-4.593,1.116 c-0.487-1.151-0.704-2.475-0.893-3.706c-0.813,0.055-1.625,0.111-2.438,0.166c2.35,4.849,1.884,10.934,0.975,16.127 C90.246,80.549,92.728,80.832,92.91,79.789L92.91,79.789 M134.793,60.105c-3.768,2.349-8.2,6.561-7.352,11.414c0.346,1.979,1.761,4.109,3.673,4.877 c2.009,0.807,4.271-1.495,5.424-2.835c0.293-0.34-1.531-2.039-1.745-1.79c-1.04,1.209-2.26,2.312-3.792,2.833 c-2.955,1.005-1.66-4.708-1.099-5.915c1.303-2.804,4.045-5.181,6.636-6.795C136.737,61.771,135.242,59.825,134.793,60.105 L134.793,60.105 M122.588,70.196c7.174-1.099,14.23,0.861,21.383-1c2.854-0.743,12.132-3.915,5.45-6.662 c-4.698-1.932-11.771,2.338-13.061,6.951c-0.943,3.375,1.592,8.944,5.691,6.218c0.846-0.563-1.509-1.135-2.104-0.739 c-0.898,0.597-1.415-3.769-1.355-4.341c0.243-2.315,2.473-4.342,4.172-5.63c0.86-0.604,1.792-1.072,2.794-1.405 c1.256,0.499,2.512,0.997,3.768,1.495c-0.384,0.471-0.843,0.848-1.377,1.13c-1.901,1.223-4.446,1.77-6.606,2.256 c-6.593,1.484-13.293-0.35-19.933,0.667C119.805,69.383,121.78,70.32,122.588,70.196L122.588,70.196 M144.69,68.941c7.379,1.051-4.704,13.976-1.373,17.445c1.489,1.55,4.533,0.771,6.217,0.037 c2.928-1.278,5.452-3.491,7.009-6.305c0.43-0.777-2.014-0.972-2.422-0.234c-1.576,2.85-4.311,5.286-7.519,6.034 c-3.194,0.745,1.776-9.519,2.089-10.231c1.508-3.438,0.71-7.376-3.384-7.959C144.136,67.559,143.026,68.704,144.69,68.941 L144.69,68.941 M160.76,68.807c0.091-1.527-0.39-3.297-1.791-4.092c-2.256-1.28-5.278,0.55-6.277,2.604 c-0.816,1.676-0.516,4.107,0.786,5.456c1.958,2.026,5.038,0.238,6.758-1.168c0.198-0.162,0.84-0.82,0.364-1.049 c-0.471-0.226-1.163,0.224-1.504,0.503c-1.245,1.017-2.712,1.418-3.829,0.001c-0.882-1.12-1.024-2.808-0.58-4.125 c0.475-1.411,2.284-1.099,3.124-0.066c0.646,0.793,0.82,1.994,0.761,2.99C158.527,70.61,160.713,69.603,160.76,68.807 L160.76,68.807 M175.236,60.494c-4.587,2.772-7.231,8.515-2.38,12.438c3.576,2.893,9.45,3.051,13.763,2.268 c0.623-0.113-1.377-1.162-1.904-1.066c-3.633,0.66-8.883,0.983-11.273-2.306c-2.785-3.833,0.681-8.322,3.989-10.321 C177.698,61.344,175.773,60.169,175.236,60.494L175.236,60.494 M179.456,64.452c0.822-2.929,2.163-6.073,4.448-8.151c1.307-1.188,4.714-1.364,6.388-1.462 c8.446-0.497,6.225,7.556,3.605,12.651c0.081-0.157,1.906-0.398,2.205-0.979c1.549-3.015,4.37-8.293,1.526-11.388 c-1.865-2.029-5.571-1.508-7.952-1.087c-2.369,0.419-4.792,1.198-6.872,2.421c-3.085,1.814-4.67,5.794-5.595,9.091 C177.298,65.235,179.269,65.121,179.456,64.452L179.456,64.452 M190.733,72.425c0.02-0.812,0.423-0.891,1.194-0.958c1.489-0.13,2.772,0.149,4.182-0.521 c1.39-0.661,2.748-1.917,2.958-3.521c0.077-0.589-2.036,0.395-2.135,1.15c-0.078,0.596-0.389,1.046-0.968,1.203 c-1.479,0.4-2.982-0.086-4.486,0.456c-1.332,0.48-2.844,1.816-2.88,3.341C188.583,74.239,190.716,73.174,190.733,72.425 L190.733,72.425 M199.696,64.719c4.581,0.595,2.685,6.156,1.313,8.736c0.683-0.346,1.365-0.692,2.048-1.039 c0.95-2.175,2.041-4.297,3.308-6.305c0.731-1.159,1.199-2.532,1.991-0.97c0.571,1.128,0.507,2.739,0.559,3.954 c0.029,0.673-0.313,4.234,1.049,3.762c1.894-0.658,3.218-4.722,4.543-4.812c0.528-0.036,2.238-1.463,1.652-1.423 c-2.692,0.183-4.834,3.598-6.043,5.528c1.162-0.073,1.566-0.36,1.214-0.861c-0.127-0.223-0.136-0.561-0.169-0.805 c-0.115-0.841-0.1-1.709-0.131-2.557c-0.054-1.462-0.042-3.094-0.717-4.425c-1.039-2.049-4.299,1.357-4.979,2.179 c-1.886,2.278-3.215,5.206-4.393,7.904c-0.051,0.117,1.779-0.534,2.048-1.039c1.455-2.738,3.55-8.627-1.353-9.264 C200.966,63.194,199.558,64.701,199.696,64.719L199.696,64.719 M223.197,65.178c-0.091-1.62-0.44-5.624-2.939-5.072c-2.273,0.502-3.54,4.018-4.293,5.926 c-0.66,1.671-1.705,4.612-0.136,6.094c2.285,2.156,6.768-1.626,8.438-2.903c1.248-0.954,0.062-2.744-1.201-1.779 c-1.277,0.976-2.598,1.972-4.069,2.639c-0.348,0.157-0.701,0.287-1.078,0.343c-0.268,0.04-0.293-0.019-0.342-0.056 c0.047,0.037-0.042-0.049-0.108-0.323c-0.044-0.18-0.023-0.587,0.004-0.893c0.07-0.792,0.351-1.588,0.612-2.333 c0.491-1.4,1.345-3.157,2.103-4.149c0.112-0.147,0.238-0.307,0.388-0.418c-0.224,0.166-0.685-0.195-0.492,0.054 c0.265,0.341,0.352,0.826,0.449,1.235c0.153,0.636,0.233,1.293,0.271,1.946C220.888,67.021,223.274,66.543,223.197,65.178 L223.197,65.178 M226.937,63.894c2.545,1.534-0.66,6.365-1.665,7.756c0.507,0.644,1.014,1.288,1.521,1.931 c1.033-1.7,2.137-3.358,3.286-4.98c0.842-1.188,1.733-2.343,2.72-3.415c0.33-0.358,0.689-0.682,1.071-0.982 c0.146-0.11,0.301-0.206,0.464-0.287c0.339-0.188-0.273-0.532-0.191,0.425c0.206,2.395-1.016,5.737,0.752,7.755 c1.899,2.168,4.693-1.536,5.833-3.081c0.446-0.605-1.208-2.369-1.455-2.033c-1.09,1.478-2.454,2.686-4,3.667 c0.337,1.228,0.453,1.446,0.35,0.655c-0.013-0.339-0.013-0.679,0.003-1.018c0.022-1.047,0.114-2.093,0.145-3.141 c0.042-1.449-0.131-5.32-2.372-5.415c-1.799-0.076-3.916,3.647-4.773,4.835c-1.209,1.677-2.344,3.417-3.417,5.185 c-0.314,0.517,1.268,2.281,1.521,1.931c2.481-3.437,4.188-8.853-0.331-11.577C225.321,61.458,226.458,63.605,226.937,63.894 L226.937,63.894 M248.504,64.435c1.693-2.533,1.985-4.484-1.084-5.281c-2.86-0.742-7.465,4.495-7.189,7.067 c0.339,3.173,0.251,5.272,3.819,5.933c1.856,0.344,3.301-0.778,4.501-2.018c1.128-1.166,1.836-2.16,3.396-2.858 c1.438-0.644,4.397,0.103,5.964,0.189c5.664,0.31,11.139,0.56,16.749,1.303c2.164,0.287,11.223,1.18,10.221-2.986 c-0.695-2.894-6.002-4.056-8.332-4.644c-3.825-0.965-7.92-1.268-11.856-1.285c-0.396-0.002,1.44,0.954,1.947,0.956 c2.056,0.009,4.108,0.158,6.153,0.356c3.096,0.3,7.307,0.659,9.389,3.133c1.306,1.551-0.061,2.635-1.425,3.177 c-3.089,1.227-6.71,0.458-9.827-0.084c-3.301-0.575-6.68-0.599-10.02-0.704c-3.068-0.097-7.196-1.111-10.192-0.545 c-1.394,0.263-7.226,5.451-7.569,5.084c-1.972-2.102-0.305-6.198,1.155-7.886c1.146-1.323,2.626-2.542,4.231-3.23 c-1.42,0.609-1.509,2.157-2.375,3.453C246.08,63.687,248.236,64.837,248.504,64.435L248.504,64.435 M256.657,59.798c0,4.555,0,9.111,0,13.667c0,0.923,2.02,2.322,2.02,1.071c0-4.555,0-9.111,0-13.667 C258.676,59.946,256.657,58.547,256.657,59.798L256.657,59.798 M266.03,59.544c-1.826,1.751-3.539,3.823-4.457,6.199c-1.16,3.002,2.239,6.159,3.512,8.671 c0.23,0.456,2.04,1.586,1.83,1.171c-1.408-2.78-4.446-5.563-3.203-8.782c0.831-2.148,2.613-4.104,4.258-5.681 C268.167,60.932,266.354,59.234,266.03,59.544L266.03,59.544 M272.785,61.782c-0.794,3.852-2.063,8.248-1.662,12.197c0.095,0.938,2.523,0.396,2.42-0.626 c-0.384-3.787,0.91-8.105,1.672-11.803C275.43,60.503,272.976,60.854,272.785,61.782L272.785,61.782 M5.835,82.025c5.017,4.849,9.86,10.996,11.661,17.82c1.471,5.574-2.211,11.636-7.061,14.292 c-4.573,2.505-4.286-4.748-3.817-7c0.834-4.008,5.82-4.506,9.13-4.735c7.251-0.502,14.633,0.824,21.91,0.812 c9.067-0.015,17.792-1.685,26.737-2.789c3.218-0.397,6.405-0.45,9.619-1.052c2.235-0.419,6.693-1.027,8.092-3.184 c0.939-1.448-0.063-3.092-1.757-3.408c-2.78-0.52-4.744,1.119-6.061,3.445c-2.704,4.777,0.086,10.687-1.224,15.817 c-0.529,2.073-4.293,8.565-6.915,4.695c-0.943-1.394,0.13-3.382,0.915-4.529c4.944-7.235,16.333-7.579,24.294-8.296 c16.758-1.51,33.558-2.501,50.31-4.098c7.652-0.729,15.318-1.531,22.897-2.836c3.315-0.571,8.267-0.993,10.898-3.384 c0.612-0.556,0.822-1.229,0.367-1.952c-1.599-2.541-4.419-3.01-6.967-1.848c-2.97,1.354-3.695,5.552-3.631,8.388 c0.055,2.46,1.275,4.758,1.334,7.299c0.089,3.854-1.605,8.151-4.404,10.777c-4.351,4.083-4.667-2.476-3.043-4.574 c1.241-1.603,3.291-2.238,5.061-3.028c1.324-0.591,2.615-1.254,3.917-1.889c3.682-1.794,7.472-3.256,11.4-4.418 c11.249-3.327,23.156-4.514,34.803-5.419c18.881-1.468,37.942-1.728,56.874-1.45c5.226,0.077,10.475,0.22,15.669,0.828 c2.126,0.249,4.812,0.449,6.598,1.772c2.13,1.578-2.613,5.428-3.56,6.415c-0.787,0.822,1.662,0.944,2.236,0.345 c2.362-2.466,6.965-6.449,1.802-8.586c-4.215-1.745-9.42-1.671-13.889-1.899c-11.408-0.582-22.872-0.33-34.287-0.122 c-21,0.383-42.591,0.935-63.116,5.873c-7.506,1.806-13.961,5.17-21.006,8.084c-2.519,1.042-6.368,3.363-6.291,6.587 c0.058,2.425,1.782,3.932,4.193,3.92c8.387-0.04,10.686-12.452,8.712-18.551c-0.95-2.936-0.601-5.848,1.09-8.431 c2.665-4.07,5.11,0.424,4.081,1.359c-1.362,1.237-3.992,1.555-5.703,1.931c-6.91,1.52-14.026,2.224-21.052,2.964 c-17.16,1.808-34.388,2.869-51.583,4.281c-7.315,0.601-14.729,1.051-21.652,3.694c-3.389,1.294-12.174,6.034-9.784,11.108 c2.89,6.137,9.76-0.253,11.383-3.667c2.759-5.802-1.152-12.112,2.026-17.727c0.819-1.447,4.41-1.302,2.601,0.398 c-0.802,0.754-2.128,1.029-3.146,1.344c-2.209,0.684-4.544,1.004-6.832,1.301c-6.678,0.865-13.426,1.773-20.129,2.5 c-6.7,0.727-13.449,0.762-20.172,0.398c-5.952-0.322-11.855-1.152-17.775-0.022c-4.245,0.81-7.452,3.13-7.65,7.63 c-0.211,4.794,1.69,7.857,6.822,6.341c7.445-2.199,10.831-11.284,8.616-18.091c-1.986-6.101-6.647-11.739-11.211-16.15 C7.518,80.684,5.186,81.397,5.835,82.025L5.835,82.025 M288.672,95.438c2.137-0.854,9.506-3.84,7.211-7.058c-2.066-2.896-9.321,1.478-11.177,2.596 c-1.789,1.079-11.63,7.49-7.332,10.092c3.816,2.311,10.339-1.249,12.149-4.602c0.107-0.199-2.081-0.16-2.383,0.398 c-1.229,2.277-3.373,4.059-6.192,3.848c-1.494-0.112-2.575-1.059-2.091-2.58c0.875-2.747,4.501-4.982,6.719-6.519 c1.738-1.205,3.64-2.298,5.648-2.979c2.071-0.703,3.26,0.987,2.266,2.637c-1.173,1.948-4.133,3.145-6.164,3.956 C285.861,95.814,288.17,95.638,288.672,95.438L288.672,95.438z"/>
</svg>