<?xml version="1.0" encoding="UTF-8" standalone="no"?>
<!-- Created with Inkscape (http://www.inkscape.org/) -->

<svg
   xmlns:dc="http://purl.org/dc/elements/1.1/"
   xmlns:cc="http://creativecommons.org/ns#"
   xmlns:rdf="http://www.w3.org/1999/02/22-rdf-syntax-ns#"
   xmlns:svg="http://www.w3.org/2000/svg"
   xmlns="http://www.w3.org/2000/svg"
   xmlns:sodipodi="http://sodipodi.sourceforge.net/DTD/sodipodi-0.dtd"
   xmlns:inkscape="http://www.inkscape.org/namespaces/inkscape"
   width="282.22223mm"
   height="155.2048mm"
   viewBox="0 0 1000 549.93828"
   id="svg2"
   version="1.1"
   inkscape:version="0.91 r13725"
   sodipodi:docname="Екатерина I.svg">
  <defs
     id="defs4" />
  <sodipodi:namedview
     id="base"
     pagecolor="#ffffff"
     bordercolor="#666666"
     borderopacity="1.0"
     inkscape:pageopacity="0.0"
     inkscape:pageshadow="2"
     inkscape:zoom="0.70710678"
     inkscape:cx="518.81472"
     inkscape:cy="232.89183"
     inkscape:document-units="px"
     inkscape:current-layer="layer1"
     showgrid="false"
     inkscape:snap-global="false"
     inkscape:window-width="1920"
     inkscape:window-height="1018"
     inkscape:window-x="-8"
     inkscape:window-y="-8"
     inkscape:window-maximized="1"
     fit-margin-top="0"
     fit-margin-left="0"
     fit-margin-right="0"
     fit-margin-bottom="0" />
  <metadata
     id="metadata7">
    <rdf:RDF>
      <cc:Work
         rdf:about="">
        <dc:format>image/svg+xml</dc:format>
        <dc:type
           rdf:resource="http://purl.org/dc/dcmitype/StillImage" />
        <dc:title></dc:title>
      </cc:Work>
    </rdf:RDF>
  </metadata>
  <g
     inkscape:label="Layer 1"
     inkscape:groupmode="layer"
     id="layer1"
     transform="translate(-39.383093,-78.035191)">
    <path
       id="path4177"
       style="fill:#000000;fill-rule:evenodd;stroke:none;stroke-width:0.2;stroke-linecap:butt;stroke-linejoin:miter;stroke-miterlimit:4;stroke-dasharray:none;stroke-opacity:1"
       d="m 980.28504,364.26384 c -2.13764,-23.51062 -47.06923,5.5735 -47.27844,28.9377 -0.15762,17.59693 9.19226,39.20401 26.66102,40.15195 17.17264,0.93184 37.32791,-28.73986 37.32791,-28.73986 0,0 8.09307,32.31007 30.16047,32.19823 7.7235,-0.0368 12.2271,-28.12257 12.2271,-28.12257 -16.6824,-6.59667 -30.1131,-31.64694 -30.5679,-39.94214 -0.6588,-12.01904 6.451,-16.70438 5.7059,-19.97104 -1.8284,-8.01652 -20.66939,3.622 -22.00888,11.00451 -2.36963,13.05945 -4.08553,21.31425 -8.55899,33.01335 -8.6496,22.62057 -34.02784,23.72689 -35.05134,11.81966 -1.74074,-20.25232 13.05075,-35.58977 17.09561,-32.72977 8.44725,5.97278 15.39225,4.52977 14.28754,-7.62002 z m -81.10697,-5.70594 c 17.38382,1.95534 -2.82397,40.56456 5.70597,55.83743 2.26594,4.0572 10.59694,2.03788 10.59694,2.03788 l -2.44545,19.56349 c 0,0 -25.86469,2.12699 -25.6771,-10.1893 0.31101,-20.40306 -5.62997,-69.21225 11.81964,-67.2495 z m -36.27402,-2.85303 c 8.22593,1.04286 1.22272,25.26953 1.22272,25.26953 0,0 15.00453,0.33671 15.08017,5.70597 0.15396,10.94421 -17.11806,8.96661 -17.11806,8.96661 0,0 4.33998,42.38413 -11.412,44.42545 -14.25718,1.84767 -11.77828,-23.03213 -3.66817,-26.49223 0,-9.2199 -4.58668,-60.47198 15.89534,-57.87533 z m -103.93107,11.412 c -8.15699,-1.402 -10.04983,15.31059 -14.65,30.73929 -4.81966,16.16447 -11.91312,29.22877 -4.09834,34.06478 10.45834,6.47191 60.32076,-39.94211 60.32076,-39.94211 0,0 -9.08136,47.78508 16.71047,46.87088 13.71096,-0.48562 -2.72677,-18.83821 0.30076,-37.48312 3.17197,-19.53289 11.94113,-37.78253 -1.11612,-41.58597 -13.11427,-3.82004 -15.08017,19.56347 -15.08017,19.56347 -18.14278,9.30944 -32.86593,29.64208 -44.42545,33.42095 -7.94286,2.59657 28.36287,-41.1234 2.03789,-45.64817 z m -72.14042,61.5435 c 7.93961,3.39417 22.68331,-35.51912 17.11806,-42.79516 -2.97137,-3.8848 -9.53517,-4.89815 -12.70466,-1.17328 -3.30012,3.87842 0.76278,11.84255 0.0735,15.03081 -0.84021,3.86652 -6.58573,8.86413 -7.62455,14.0757 -1.07843,5.41045 -1.93158,12.69332 3.14123,14.86193 z M 576.38031,572.12603 c 11.91941,-0.86671 11.43329,-30.01692 5.29848,-35.45888 -18.59761,-16.49714 -54.89789,3.5894 -62.76623,29.75286 -7.34683,24.4293 15.66351,60.87181 41.16484,61.54349 41.53372,1.0939 87.90746,-88.21913 111.26743,-144.28076 3.63939,-8.73424 8.15147,-44.01787 8.15147,-44.01787 4.07839,2.16147 8.75991,8.94624 14.67258,7.74385 13.7959,-2.8055 32.105,-68.62587 22.41652,-77.03124 -8.25248,-7.15965 -31.45422,0.0142 -41.16486,11.00448 -8.82416,9.98456 -17.21911,85.47976 -28.9377,115.75064 -17.00168,43.91811 -45.98705,115.46374 -85.59028,116.56587 -17.64887,0.49149 -37.19964,-24.45548 -35.05124,-41.98 2.35068,-19.17418 25.21503,-37.31028 39.94214,-30.97556 16.23753,6.98443 -2.84672,32.36068 10.59685,31.38312 z m 52.16936,-183.00021 c 3.75913,-2.94128 -0.39174,-23.0223 -9.37422,-26.49227 -6.58896,-2.5453 -35.47295,9.71854 -35.05123,22.00894 0.30443,8.8662 9.0223,16.75932 15.08019,20.37862 -3.79376,10.18196 -7.7704,22.14135 2.85299,30.97559 11.09474,9.22615 46.44513,5.70545 44.42544,-5.70604 -2.22719,-12.58396 -20.94624,10.15297 -29.34525,0.40786 -22.69079,-26.32755 8.78924,-24.17415 4.07575,-31.79064 -4.44527,-7.18301 -16.42997,2.30556 -19.5635,-12.6348 -1.15456,-5.50483 7.83575,-10.53129 13.44996,-10.18928 6.2334,0.38 8.53153,16.89026 13.44987,13.04202 z m -190.9222,-20.37637 c 13.30287,-10.84868 30.59837,-4.08087 70.96862,2.21092 31.73298,4.94568 53.09254,-4.35173 60.62043,6.41026 3.41912,4.88795 -11.75525,7.51438 -12.77961,32.78456 -0.51278,12.65578 16.02011,37.12926 6.74793,39.50359 -11.52886,2.9523 -19.9272,-17.99076 -20.00503,-37.19795 -0.0368,-8.4734 -0.57366,-15.60483 1.72918,-25.36138 -7.78388,-2.66427 -19.27219,-1.79593 -26.51416,-2.88201 -1.98977,7.14679 -4.29011,17.0758 -5.11766,25.93775 -1.00185,10.72819 10.91309,29.48518 0.5069,32.27819 -11.4525,3.07368 -15.23472,-20.37682 -16.95424,-32.10932 -1.24596,-8.50152 1.03866,-15.91849 1.35057,-25.76896 -7.81674,-3.35593 -20.15657,-3.83635 -25.89678,-3.79599 -2.76067,18.41798 3.96438,54.73377 -8.06957,55.33391 -17.44022,0.8698 -18.97984,-31.31039 -18.15641,-56.19851 0.13569,-4.10958 -12.84086,-7.54806 -8.43017,-11.14506 z m -44.65491,13.44767 c 1.61497,-1.13983 -0.27728,-13.94601 -5.46725,-15.48783 -11.88523,-3.53099 -40.78567,7.15575 -37.73547,31.79072 1.81856,14.68697 5.45598,27.96006 30.56792,28.73986 10.40298,0.32276 17.78303,-8.21289 25.26954,-14.88239 3.39953,9.89944 23.57849,25.53565 30.87667,15.89529 4.3014,-5.68174 -10.10029,-12.48728 -13.08189,-30.61098 -2.32171,-14.11212 0.077,-35.93487 -8.42059,-34.19307 -26.70461,5.47371 -3.78787,31.38972 -15.48781,39.12703 -8.95511,5.92216 -24.21626,24.77145 -31.04539,0.91404 -2.55227,-8.9161 3.8823,-23.22514 12.65519,-26.23301 3.70021,-1.26863 8.67318,7.19599 11.86908,4.94034 z m -77.75138,54.47227 c 20.85964,0.85396 2.93018,-13.02977 5.02272,-43.45089 1.29116,-18.76986 3.8076,-37.45422 -7.57907,-39.14239 -17.16506,-2.54486 -14.24693,6.1618 -14.31977,43.04809 -0.0368,19.38008 -0.0292,38.85306 16.87612,39.54519 z m -52.16935,0 c 20.85964,0.85396 9.04381,-13.43735 11.13632,-43.85848 1.29116,-18.76983 5.53755,-38.38686 -5.94877,-39.14238 -13.90449,-0.91455 -16.28477,20.83443 -15.95003,43.04811 0.29194,19.37795 -6.14378,39.26062 10.76248,39.95275 z M 212.0102,215.90735 c 7.92781,-12.25877 22.17098,28.16847 81.51455,19.66236 28.94856,-4.14937 59.19958,-37.70082 58.69054,-66.94082 C 351.15073,107.47954 300.35301,93.467091 259.86503,92.680487 170.85739,90.951302 73.446259,141.25459 66.099138,212.64673 c -7.040851,68.41652 41.322572,100.28219 65.361892,104.24499 23.42642,3.86177 42.64279,-12.0087 43.86763,0.90882 1.61078,16.98812 -25.91925,4.12341 -32.60586,13.85751 -13.2389,19.27272 -14.40492,65.77534 5.04766,78.74848 22.68735,15.13042 70.03527,0.95003 82.65892,-23.55738 7.28067,-14.13453 -24.0664,-19.56245 -12.71314,-25.8458 10.47112,-5.79513 22.64435,12.15223 20.79817,23.9768 -5.77544,36.99037 -66.46483,49.97068 -100.88027,35.23214 C 111.33885,408.95119 95.910669,353.79111 125.60476,330.02777 72.304301,315.23243 38.595362,276.47386 39.397085,232.44903 40.617973,165.40585 114.07949,111.33344 177.77411,90.374928 c 86.38483,-28.424716 172.63036,-6.719631 187.14581,54.573792 9.44575,39.88573 -22.48368,98.47267 -78.97022,99.67809 -38.83155,0.82865 -82.38273,-15.66374 -73.9395,-28.71946 z"
       inkscape:connector-curvature="0"
       sodipodi:nodetypes="sssccccsssssssscccsscccscscsscccscscccsscsccssssscsscscsssssccssssscsssscscccscsccscsscsccsssssssssscssssssssssssssssssscsssss" />
  </g>
</svg>
