<?xml version="1.0" encoding="UTF-8"?>
<svg version="1.1" xmlns="http://www.w3.org/2000/svg" width="392" height="74" >
<path fill="#231F20" d="M40.885,16.722c-1.492,5.221,3.933,7.066,7.078,3.485c2.976-3.389,2.095-14.806-3.912-14.454 c-11.54,0.676-23.607,10.639-31.179,18.43c-5.04,5.185-9.582,11.806-9.678,19.278c-0.11,8.538,7.668,15.431,15.349,17.48 c11.479,3.063,25.703-3.347,34.949-9.771c0.083-0.058,0.167-0.117,0.249-0.177c-0.403,0.292-2.115,0.174-2.813,0.68 c-9.139,6.615-21.561,11.716-32.625,7.473C6.099,54.467,3.631,41.494,9.688,31.178C15.515,21.25,26.192,13.411,36.38,8.406 c1.724-0.847,4.199-2.382,6.171-1.685c2.678,0.947,3.637,4.263,4.001,6.742c0.38,2.585-0.04,5.871-1.816,7.894 c-0.168,0.192-1.251-2.5-1.287-2.745c-0.127-0.854,0.099-1.845,0.333-2.667C43.695,16.252,41.068,16.079,40.885,16.722 L40.885,16.722 M50.946,59.409c1.667,0.555,3.333,1.111,5,1.667c0.446,0.148,1.387-0.263,1.807-0.387 c0.106-0.031,1.115-0.383,0.969-0.432c-1.667-0.555-3.333-1.111-5-1.667c-0.446-0.148-1.387,0.263-1.807,0.387 C51.809,59.009,50.799,59.36,50.946,59.409L50.946,59.409 M82.449,17.945c0.448-1.442,1.245-4.366,1.962-1.739c0.771,2.823,0.368,6.154,0.193,9.022 c-0.678,11.105-3.107,22.22-6.385,32.826c0.966-0.259,1.932-0.518,2.897-0.776c-0.421-13.209,8.267-27.4,18.351-35.147 c6.257-4.807,17.974-8.207,24.112-1.25c4.858,5.506-1.633,15.207-6.008,18.681c-5.568,4.422-6.744-7.103-5.273-10.174 c3.107-6.491,11.896-1.247,14.621,2.717c3.819,5.556,1.748,14.228,0.081,20.182c-0.852,3.041-2.294,5.933-4.711,8.017 c-3.551,3.061-9.92-0.579-13.172-2.358c-0.732-0.401-2.412,1.042-2.897,0.776c5.289,2.896,11.827,5.074,17.506,1.79 c7.145-4.133,8.635-16.311,8.004-23.677c-0.604-7.055-7.197-11.856-14.004-11.096c-5.027,0.561-8.938,3.08-9.237,8.456 c-0.35,6.301,4.41,8.081,9.448,6.005c6.536-2.692,13.214-13.562,8.541-20.094c-4.057-5.669-13.385-4.09-19.037-2.512 C97.415,20.391,90.16,27.75,84.802,36.41c-3.824,6.181-6.82,14.24-6.583,21.645c-0.001-0.041,2.759-0.327,2.897-0.776 c3.879-12.547,7.29-26.65,6.465-39.9c-0.392-6.307-6.773-2.707-8.03,1.343C79.652,18.397,82.246,18.599,82.449,17.945 L82.449,17.945 M136.1,59.067c1.997-0.162,4.394,0.962,5.785,2.654c0.37,0.45,2.763-0.94,2.897-0.776 c-1.499-1.823-3.843-2.872-6.215-2.68c-0.669,0.054-1.36,0.278-1.995,0.484C136.48,58.78,135.526,59.114,136.1,59.067 L136.1,59.067 M150.885,14.388c6.844,3.752,14.759,3.504,21.717,0.342c2.792-1.268,5.831-3.194,9.007-2.444 c0.521,0.123,0.059,0.219-0.248,0.459c-1.647,1.294-2.853,3.152-3.894,4.935c-6.295,10.782-4.105,23.735-8.819,34.937 c-1.697,4.032-5.939,10.877-11.147,9.102c-4.529-1.544-5.642-7.739-6.053-11.773c-0.005-0.047-2.934,0.424-2.897,0.776 c0.537,5.266,2.864,13.342,9.765,12.149c5.587-0.966,9.363-4.051,12.203-8.957c5.565-9.613,3.894-21.814,7.619-32.161 c1.224-3.399,3.28-8.152,6.602-10.093c0.014-0.016,0.028-0.032,0.042-0.048c-2.31-1.131-5.942,0.26-8.196,0.928 c-4.933,1.463-8.738,4.211-14.172,3.748c-2.956-0.252-6.03-1.25-8.632-2.676C153.051,13.21,151.37,14.654,150.885,14.388 L150.885,14.388 M164.885,34.388c6.033,3.507,13.854,2.153,19.521-1.395c-0.451,0.282-2.072,0.216-2.813,0.68 c-4.211,2.635-9.577,2.4-13.812-0.062C167.072,33.199,165.345,34.656,164.885,34.388L164.885,34.388 M201.406,41.994c1.81-1.662,4.832-4.678,3.124-7.193c-1.212-1.785-4.994-0.443-6.534,0.01 c-7.668,2.26-17.249,9.265-17.821,17.889c-0.402,6.064,5.445,9.345,10.757,8.217c9.099-1.931,13.849-10.289,17.184-18.306 c-0.966,0.259-1.933,0.518-2.898,0.776c-0.864,3.469-2.198,9.326,0.701,12.126c2.492,2.406,8.755-1.527,10.537-3.027 c2.529-2.127,4.446-5.125,5.932-8.035c0.604-1.184,0.858-2.443,1.222-3.71c-1.144-0.42-1.031-0.42,0.337,0 c0.61,0.168,1.208,0.276,1.835,0.367c8.567,1.236,0.635,11.652,3.021,17.279c1.59,3.751,8.245-0.497,9.848-1.801 c3.208-2.611,5.896-5.857,8.813-8.775c0.445-0.441,0.904-0.866,1.378-1.275c1.366-1.218-0.735-0.483-0.392,0.023 c0.508,0.748,0.271,2.787,0.342,3.658c0.321,3.973,0.54,10.244,5.789,8.838c4.704-1.261,8.514-7.159,10.203-11.443 c-0.966,0.259-1.933,0.518-2.898,0.776c-0.718,5.743,1.56,9.541,7.498,8.288c1.68-0.354,3.928-0.937,5.093-2.272 c1.228-1.407,1.634-2.801,1.634-4.651c0-1.204-0.981-2.964-0.344-4.021c-0.472,0.173-0.943,0.346-1.414,0.519 c-0.523,0.134,2.366,0.515,3.237,0.466c1.337-0.074,2.675-0.396,3.983-0.661c3.786-0.763,7.517-1.841,11.223-2.916 c0.637-0.184,1.271-0.375,1.905-0.565c1.491-0.448-0.483-0.375-1.219,0.184c-1.22,0.925-2.376,1.926-3.501,2.963 c-0.987,0.91-2,1.946-2.459,3.227c-0.616,1.717,1.205,0.825-0.818,2.875c-0.81,0.82-1.423,1.522-2.023,2.484 c-3.28,5.248,8.666,2.606,10.581,1.96c6.935-2.34,13.041-6.842,18.138-12.001c7.613-7.705,12.322-17.825,14.672-28.307 c0.15-0.667,1.114-4.142-0.427-3.973c-1.32,0.145-2.73,0.544-3.658,1.52c-2.054,2.159-3.32,5.299-4.559,7.953 c-2.655,5.686-4.655,11.679-6.396,17.699c-1.165,4.029-6.32,16.731-0.467,19.867c2.827,1.515,7.532-0.332,10.194-1.453 c6.47-2.723,12.161-7.13,17.464-11.655c10.232-8.735,24.494-21.995,25.053-36.514c0.071-1.869-1.177-1.454-2.459-1.11 c-2.126,0.57-3.127,2.043-4.306,3.854c-6.478,9.954-8.86,22.334-9.622,33.973c-0.407,6.21-0.632,15.483,6.646,17.876 c4.168,1.37,8.6,1.059,12.925,1.101c1.226,0.012,6.68-0.617,6.765,1.476c0.021,0.495-0.048,0.981-0.007,1.48 c0.003,0.028,2.929-0.406,2.898-0.776c-0.073-0.892,0.362-2.181-0.77-2.521c-4.044-1.216-8.919-0.401-13.073-0.548 c-8.411-0.297-12.087-4.799-12.569-12.895c-0.71-11.909,2.118-24.282,7.07-35.049c0.9-1.957,1.949-3.842,3.124-5.646 c0.487-0.75,1.047-1.438,1.683-2.069c1.078-1.072-1.761-0.186-1.327,0.68c1.268,2.528-1.107,7.78-2.153,10.193 c-3.053,7.041-8.549,13.197-13.764,18.695c-5.647,5.955-11.92,11.431-18.759,15.979c-3.61,2.402-12.21,8.116-14.325,1.272 c-0.995-3.217,0.263-7.167,0.956-10.274c1.503-6.74,3.613-13.35,6.134-19.774c1.428-3.639,3.063-7.235,5.091-10.582 c0.332-0.547,0.705-1.066,1.088-1.578c1.527-2.036,0.468,0.668-1.227-0.297c0.545,0.311,0.2,1.923,0.15,2.348 c-1.225,10.518-7.037,21.098-14.022,28.846c-4.914,5.451-13.7,13.187-21.541,12.787c-6.501-0.331,1.043-5.907,0.567-8.236 c-0.469-2.295,4.327-5.381,5.957-6.618c-0.056,0.043-1.497,0.216-1.825,0.317c-4.332,1.334-8.722,2.626-13.187,3.429 c-2.924,0.526-5.523-0.592-8.347,0.649c-0.959,0.421-0.023,2.621,0.097,3.373c0.503,3.146-1.194,6.91-5.028,6.462 c-3.565-0.417-3.655-6.04-3.333-8.612c-0.021,0.167-2.692,0.254-2.898,0.776c-0.755,1.916-1.887,3.654-3.062,5.333 c-2.559,3.657-4.698,6.543-6.249,1.473c-0.589-1.924-0.04-10.132-2.548-9.735c-3.803,0.602-6.146,3.782-8.666,6.421 c-1.479,1.549-6.281,7.817-8.711,6.78c-2.833-1.21-1.415-7.118-0.976-9.131c0.55-2.517,2.242-5.782,0.35-8.114 c-0.972-1.198-3.373-1.079-4.718-1.332c-2.662-0.501-5.905-0.963-6.832,2.265c-1.019,3.549-7.729,16.182-12.114,11.947 c-2.527-2.441-0.978-8.739-0.243-11.684c-0.069,0.275-2.65,0.181-2.898,0.776c-2.293,5.512-7.439,17.393-14.941,17.002 c-3.887-0.202-6.59-3.602-7.147-7.199c-1-6.45,5.459-12.162,10.131-15.422c2.18-1.522,8.017-5.245,8.948-0.858 c0.423,1.989-2.374,4.623-3.614,5.763C198.914,42.379,200.795,42.556,201.406,41.994L201.406,41.994 M367.946,54.076c1.567,0.368,4.207,1.174,4.604,2.979c0.035,0.156,2.951-0.536,2.898-0.776 c-0.405-1.84-3.123-2.645-4.728-3.021c-0.498-0.117-1.341,0.25-1.807,0.387C368.806,53.676,367.809,54.043,367.946,54.076 L367.946,54.076z"/>
</svg>