<?xml version="1.0" encoding="UTF-8" standalone="no"?>
<!-- Created with Inkscape (http://www.inkscape.org/) -->

<svg
   xmlns:dc="http://purl.org/dc/elements/1.1/"
   xmlns:cc="http://creativecommons.org/ns#"
   xmlns:rdf="http://www.w3.org/1999/02/22-rdf-syntax-ns#"
   xmlns:svg="http://www.w3.org/2000/svg"
   xmlns="http://www.w3.org/2000/svg"
   xmlns:sodipodi="http://sodipodi.sourceforge.net/DTD/sodipodi-0.dtd"
   xmlns:inkscape="http://www.inkscape.org/namespaces/inkscape"
   width="589"
   height="174"
   id="svg3138"
   version="1.1"
   inkscape:version="0.48.3.1 r9886"
   sodipodi:docname="New document 9">
  <defs
     id="defs3140" />
  <sodipodi:namedview
     id="base"
     pagecolor="#ffffff"
     bordercolor="#666666"
     borderopacity="1.0"
     inkscape:pageopacity="0.0"
     inkscape:pageshadow="2"
     inkscape:zoom="1.4"
     inkscape:cx="40.125765"
     inkscape:cy="82.668031"
     inkscape:document-units="px"
     inkscape:current-layer="layer1"
     showgrid="false"
     fit-margin-top="0"
     fit-margin-left="0"
     fit-margin-right="0"
     fit-margin-bottom="0"
     inkscape:window-width="1920"
     inkscape:window-height="1033"
     inkscape:window-x="0"
     inkscape:window-y="25"
     inkscape:window-maximized="1" />
  <metadata
     id="metadata3143">
    <rdf:RDF>
      <cc:Work
         rdf:about="">
        <dc:format>image/svg+xml</dc:format>
        <dc:type
           rdf:resource="http://purl.org/dc/dcmitype/StillImage" />
        <dc:title></dc:title>
      </cc:Work>
    </rdf:RDF>
  </metadata>
  <g
     inkscape:label="Layer 1"
     inkscape:groupmode="layer"
     id="layer1"
     transform="translate(-522.64288,-245.36218)">
    <path
       style="fill:#000000"
       d="m 559.56432,406.7088 c -2.32148,-1.46897 0.37183,-3.75599 5.21792,-4.43077 3.58376,-0.499 24.7602,-1.67466 58.21778,-3.23208 4.4,-0.20481 21.95,-0.79459 39,-1.31063 17.05,-0.51603 34.15,-1.40708 38,-1.98011 3.85,-0.57303 12.85,-1.06733 20,-1.09845 7.15,-0.0311 14.8,-0.48792 17,-1.01512 2.2,-0.5272 11.83242,-1.65812 21.40537,-2.51315 9.57295,-0.85503 17.76868,-1.77914 18.21272,-2.05357 0.70966,-0.43859 22.26814,-2.09192 37.88191,-2.90518 17.75237,-0.92465 27.01593,-1.81606 31,-2.98307 2.475,-0.72497 10.51904,-1.62541 17.87563,-2.00097 7.3566,-0.37556 14.44615,-1.08984 15.75456,-1.5873 1.30841,-0.49745 6.08937,-1.20709 10.62437,-1.57696 4.53499,-0.36987 9.93844,-1.26221 12.00766,-1.98297 2.06922,-0.72076 9.04422,-1.59275 15.5,-1.93776 6.45578,-0.34501 13.29268,-1.10342 15.19311,-1.68537 1.90044,-0.58194 7.30044,-1.39973 12,-1.8173 13.28024,-1.17999 34.99938,-3.80099 37.14784,-4.48289 1.06594,-0.33831 3.08299,-2.71934 4.48234,-5.29118 1.39935,-2.57184 3.52757,-6.34656 4.72938,-8.38828 1.20181,-2.04171 4.16173,-7.44171 6.5776,-12 2.41588,-4.55828 5.22839,-9.36098 6.24999,-10.67265 1.0216,-1.31167 1.8575,-3.38801 1.8575,-4.61408 0,-1.89458 -0.6979,-2.32487 -4.6491,-2.86644 -2.557,-0.35048 -5.20564,-1.09912 -5.88586,-1.66365 -0.89929,-0.74634 -2.68413,0.20904 -6.54112,3.50131 -8.03883,6.86182 -12.27033,5.95181 -14.98355,-3.22228 -0.69131,-2.3375 -1.78093,-4.25 -2.42138,-4.25 -0.64045,0 -2.21614,2.1375 -3.50153,4.75 -3.67173,7.46265 -7.92926,12.40485 -10.38326,12.05303 -2.97675,-0.42675 -3.16114,-3.15059 -0.61409,-9.07137 2.40932,-5.60062 2.32608,-13.26407 -0.16119,-14.84003 -2.45157,-1.55333 -8.49788,-0.96345 -11.09933,1.08285 -1.38059,1.08597 -4.34059,5.47347 -6.57779,9.75 -5.28296,10.09868 -9.11771,14.27552 -13.10636,14.27552 -2.44389,0 -3.16596,-0.51254 -3.69572,-2.62331 -0.86106,-3.43071 1.93773,-9.04171 8.57664,-17.19438 5.87579,-7.21556 7.04366,-9.73782 7.04366,-15.21223 0,-4.95293 -2.63677,-6.77739 -7.11442,-4.92268 -1.61314,0.66818 -3.25981,1.78254 -3.65928,2.47636 -0.39946,0.69382 -2.16477,2.99731 -3.92291,5.11886 -4.92227,5.93975 -12.57429,16.4176 -15.23225,20.85738 -1.31707,2.2 -3.30032,5.0125 -4.40722,6.25 -2.29104,2.56135 -6.44355,2.98784 -7.30229,0.75 -0.81272,-2.11789 -1.74713,-1.94334 -11.09874,2.07325 -10.10749,4.34125 -13.66903,4.09231 -15.84156,-1.1073 -1.26727,-3.033 -1.65063,-3.26058 -4.24104,-2.51766 -1.56631,0.44922 -4.7137,1.99462 -6.99419,3.43423 -5.35392,3.37978 -8.86353,3.41955 -10.36805,0.11748 -0.6265,-1.375 -1.4863,-2.5 -1.91069,-2.5 -0.42438,0 -4.78682,2.025 -9.6943,4.5 -4.90749,2.475 -9.64737,4.5 -10.53308,4.5 -0.88572,0 -3.21649,-1.41018 -5.17951,-3.13373 l -3.56912,-3.13373 -7.09487,3.13373 c -3.90217,1.72355 -8.12906,3.13373 -9.39309,3.13373 -2.45357,0 -6.44339,-4.22249 -6.44339,-6.81913 0,-4.7149 10.69068,-18.30386 20.87557,-26.53502 1.85656,-1.50043 3.11773,-2.98588 2.8026,-3.30102 -0.61683,-0.61683 -7.53103,3.22531 -9.17817,5.10021 -0.55,0.62605 -2.71048,2.18293 -4.80107,3.45973 -2.09058,1.27681 -4.56558,3.50265 -5.5,4.94631 -0.93441,1.44367 -3.50041,4.43026 -5.70222,6.63688 -5.79781,5.81049 -11.52123,12.66562 -12.76246,15.28602 -1.11796,2.36018 -4.83755,3.89825 -6.67741,2.76115 -1.83756,-1.13567 -1.15493,-5.13219 1.94316,-11.37642 1.65,-3.32559 3,-6.57518 3,-7.22131 0,-2.63276 -12.24838,8.42728 -20.54346,18.55033 -6.73429,8.21832 -11.47928,9.2293 -16.87655,3.59576 -3.63791,-3.79716 -4.74074,-11.66301 -2.1826,-15.56723 2.72546,-4.15959 7.60261,-2.73857 7.60261,2.21512 0,1.28227 0.60318,2.56285 1.34039,2.84575 2.12152,0.8141 9.39965,-4.53531 10.81305,-7.94758 1.39333,-3.36377 1.81167,-13.99189 0.59865,-15.20855 -0.41135,-0.41258 -3.11781,0.44891 -6.01435,1.91442 -8.34334,4.22134 -13.16099,3.25586 -14.30978,-2.86775 -1.38296,-7.37181 7.45261,-14.46767 18.01476,-14.46767 5.05705,0 5.5639,-0.23114 8.22325,-3.75 1.55872,-2.0625 3.70942,-5.46912 4.77934,-7.57027 1.66417,-3.26815 1.73643,-3.95313 0.5,-4.7395 -0.79492,-0.50557 -2.04461,-0.69895 -2.7771,-0.42973 -0.73248,0.26923 -1.94308,0.4895 -2.69023,0.4895 -2.33894,0 -14.54916,9.8386 -25.29225,20.37968 -9.79786,9.61363 -12.10087,12.40844 -19.87584,24.12032 -1.82559,2.75 -4.52645,6.50732 -6.00191,8.34961 -1.47545,1.84228 -3.91814,5.29779 -5.42819,7.6789 -3.30513,5.21163 -6.34354,7.16143 -8.44371,5.41844 -2.11998,-1.75942 -1.75407,-5.44121 1.06752,-10.74156 1.43629,-2.69807 2.06322,-4.84978 1.47061,-5.04732 -0.56814,-0.18938 -5.63226,1.92088 -11.2536,4.68947 -22.54908,11.10576 -31.14788,14.14874 -42.01806,14.86955 -5.10811,0.33873 -7.39823,0.0571 -9.21482,-1.13317 -1.32955,-0.87116 -3.22773,-1.58392 -4.21818,-1.58392 -0.99045,0 -7.19378,5.44689 -13.78518,12.1042 -15.645,15.80144 -29.1293,27.08928 -31.88952,26.69502 -1.27457,-0.18205 -2.2173,-1.15984 -2.40757,-2.49708 -0.23385,-1.64357 0.6935,-2.83307 3.67709,-4.71652 2.19439,-1.38526 12.14096,-10.54888 22.10349,-20.3636 l 18.11368,-17.84494 0.87146,-6.93854 c 1.92515,-15.328 8.72943,-27.33783 24.04396,-42.43854 5.85678,-5.775 12.64091,-11.84773 15.07586,-13.49495 2.43495,-1.64722 6.67271,-4.73817 9.41724,-6.86877 5.88325,-4.56723 14.62111,-8.63629 18.54548,-8.63629 4.39977,0 7.96446,4.95587 7.96446,11.07275 0,9.40416 -6.62912,24.13268 -17.10624,38.00646 -11.17019,14.79157 -20.7847,22.43393 -29.71221,23.6176 -3.03033,0.40178 -4.11038,0.0295 -6.10586,-2.10434 -3.07754,-3.29099 -4.40614,-3.26327 -6.635,0.1384 -0.98413,1.50198 -2.68593,3.45689 -3.78177,4.34425 -1.23549,1.00043 -1.75105,2.24241 -1.35706,3.26913 0.83652,2.17995 11.26996,2.27933 16.35238,0.15576 1.97451,-0.825 4.57404,-1.5 5.77675,-1.5 1.20271,0 3.06026,-0.66069 4.12788,-1.4682 1.06762,-0.80751 2.61613,-1.48992 3.44113,-1.51646 1.59034,-0.0512 22.55336,-10.39977 24.73587,-12.2111 0.7075,-0.58717 2.59562,-1.79583 4.19582,-2.68591 6.00728,-3.34143 18.25728,-13.23546 28.56831,-23.07395 3.85,-3.67356 8.575,-7.83976 10.5,-9.25822 1.925,-1.41847 5.02903,-3.96268 6.89784,-5.65379 1.86882,-1.69112 6.14382,-4.7429 9.5,-6.78174 5.02323,-3.05154 7.2812,-3.78301 12.77051,-4.13703 6.66624,-0.42993 6.66888,-0.42904 8.3385,2.79965 1.09867,2.12459 1.4596,4.35207 1.05481,6.50978 -0.75909,4.0463 -4.94658,12.124 -8.02328,15.47697 -4.1837,4.55937 -4.45463,5.94362 -2.69126,13.75 0.90073,3.9875 2.02361,7.25 2.49528,7.25 0.47168,0 2.37435,-1.51675 4.22815,-3.37055 1.85381,-1.85381 4.84631,-4.68349 6.65,-6.28818 1.8037,-1.60469 5.07453,-5.15044 7.26851,-7.87945 8.03193,-9.99057 9.78185,-11.57124 12.46421,-11.25863 3.17945,0.37055 3.83004,3.98633 1.65423,9.19376 -1.96578,4.70478 -0.71027,4.72336 6.96252,0.10305 3.19678,-1.925 6.7962,-3.5 7.99871,-3.5 2.84581,0 4.61149,2.10125 3.38938,4.03354 -1.53636,2.42916 -1.0837,3.10404 1.24576,1.85735 1.21213,-0.64871 4.37917,-1.75331 7.03786,-2.45466 4.50555,-1.18854 5.00469,-1.12778 7.34665,0.8943 1.94686,1.68094 2.64507,3.46114 3.10061,7.90552 0.5092,4.96789 0.26909,6.20137 -1.79299,9.21078 -1.30951,1.91111 -3.46641,4.05488 -4.7931,4.76395 -1.98029,1.05839 -5.1029,6.11115 -5.1029,8.2571 0,1.47359 4.08803,0.15824 9,-2.89581 17.60767,-10.94768 19.06733,-11.69351 22.27797,-11.38334 2.67812,0.25872 3.27544,0.77549 3.53845,3.06127 0.39097,3.39791 1.18912,3.41608 7.1659,0.16311 2.61414,-1.4228 5.82504,-2.4353 7.13533,-2.25 2.21073,0.31262 2.37399,0.75111 2.26636,6.08689 -0.10258,5.08506 0.11083,5.75 1.84543,5.75 1.07878,0 5.85597,-2.5693 10.61599,-5.70955 7.62813,-5.0324 12.92581,-9.91676 30.99141,-28.57347 8.33252,-8.60516 20.41558,-6.91337 22.82278,3.1955 0.88312,3.70864 2.35333,5.21818 4.43785,4.55658 3.48347,-1.10561 8.78736,0.70018 12.1138,4.12432 3.60542,3.71132 5.29339,4.09585 8.22986,1.87482 1.06762,-0.80751 2.72246,-1.4682 3.67742,-1.4682 2.60996,0 5.69649,4.5838 6.44428,9.57038 0.92586,6.17411 3.37768,5.92398 7.9106,-0.80703 1.93961,-2.88016 3.52657,-5.76785 3.52657,-6.4171 0,-0.64924 0.88401,-3.24275 1.96446,-5.76335 2.07061,-4.83052 4.64153,-5.96751 7.01822,-3.10379 0.9301,1.12069 0.9597,2.2473 0.1224,4.64922 -0.60778,1.74357 -1.10508,4.9141 -1.10508,7.04564 0,4.96717 2.74818,6.28784 9.89498,4.75513 4.3976,-0.94311 5.0965,-1.49761 7.5346,-5.9771 1.478,-2.71565 3.7227,-6.1783 4.9882,-7.69477 1.2654,-1.51648 3.0924,-4.33223 4.0599,-6.25723 2.2286,-4.43397 12.4573,-19.80239 14.7681,-22.18874 4.5941,-4.74427 10.0832,-6.1806 13.5042,-3.53358 1.8109,1.40124 1.5875,12.16899 -0.3294,15.87592 -6.227,12.04165 -16.7994,23.77656 -27.0823,30.06026 -8.8364,5.39978 -11.3725,8.28177 -18.6889,21.23817 -1.5678,2.77638 -3.4803,5.7584 -4.25,6.62671 -0.7697,0.86831 -1.3994,1.91028 -1.3994,2.3155 0,0.40522 -2.2759,4.59006 -5.0577,9.29966 -5.21715,8.83282 -5.69803,11.96336 -1.68296,10.95615 1.23237,-0.30915 6.06566,-0.84677 10.74066,-1.19471 4.675,-0.34794 9.8645,-1.04529 11.5322,-1.54966 1.6678,-0.50438 6.6178,-1.30322 11,-1.77521 4.3823,-0.47198 10.6678,-1.55693 13.9678,-2.411 3.3,-0.85407 7.7082,-1.83962 9.796,-2.19011 2.6918,-0.45189 4.1177,-1.34316 4.9018,-3.06408 1.4268,-3.1315 4.0665,-3.92599 7.5361,-2.26819 3.6986,1.76719 4.1192,5.19784 0.8961,7.30965 -4.0647,2.66333 -12.6188,5.61672 -20.63,7.12277 -11.1775,2.10128 -38.4496,6.0573 -46.99998,6.81772 -4.125,0.36685 -8.85,1.08459 -10.5,1.59497 -1.65,0.51039 -10.425,1.39229 -19.5,1.95976 -20.24893,1.26621 -42.65795,3.48003 -49.94784,4.93442 -2.9963,0.59779 -10.4213,1.02878 -16.5,0.95776 -6.07869,-0.071 -12.308,0.36957 -13.84291,0.9791 -1.53491,0.60953 -8.73491,1.56352 -16,2.11996 -7.26509,0.55645 -15.90925,1.45801 -19.20925,2.00347 -3.3,0.54546 -9.24677,0.99435 -13.21505,0.99754 -3.96828,0.003 -9.14328,0.65379 -11.5,1.44579 -2.35672,0.79199 -9.45995,1.63494 -15.78495,1.8732 -11.06633,0.41687 -29.12987,2.15325 -54.5,5.2389 -6.6,0.80273 -17.64296,1.45689 -24.5399,1.4537 -7.90922,-0.004 -14.65535,0.5452 -18.26854,1.48632 -3.68287,0.95927 -15.09622,1.85703 -31.9601,2.51396 -14.4273,0.56201 -31.40646,1.45145 -37.73146,1.97652 -6.325,0.52508 -18.925,1.19972 -28,1.4992 -9.075,0.29948 -22.35,0.97546 -29.5,1.50218 -16.45253,1.21202 -26.59848,1.23947 -28.4357,0.0769 z m 252.81397,-81.27263 c 10.34797,-5.91185 23.03865,-20.78827 17.73394,-20.78827 -3.73754,0 -21.24302,14.71927 -24.93147,20.96333 -1.65647,2.80418 -1.66482,3.03667 -0.109,3.03667 0.92664,0 4.21458,-1.44528 7.30653,-3.21173 z M 649.68877,318.1479 c 3.01402,-3.3 8.56231,-10.5 12.32954,-16 3.76723,-5.5 8.56676,-11.97586 10.66561,-14.39079 3.94769,-4.5422 4.63445,-6.10921 2.67742,-6.10921 -1.85458,0 -14.00676,10.39636 -20.21122,17.29098 -6.19089,6.87954 -13.6501,20.14358 -13.6501,24.27274 0,3.31796 1.22571,2.56001 8.18875,-5.06372 z m 20.00756,2.50912 c 13.06599,-9.35453 27.27514,-31.54318 28.48305,-44.47842 0.66259,-7.09549 -0.48971,-8.77293 -4.53812,-6.60629 -1.59244,0.85225 -1.90378,1.76404 -1.48453,4.34758 0.4183,2.57764 -0.17675,4.33401 -2.8131,8.30325 -3.6756,5.53393 -9.74503,12.87506 -17.16443,20.76082 -9.06567,9.63552 -14.50152,19.50827 -12.07636,21.93343 0.90669,0.90669 4.7772,-0.81216 9.59349,-4.26037 z m 365.55487,-21.4273 c 8.0473,-8.80499 13.7382,-18.4257 11.9545,-20.20941 -1.3793,-1.37929 -4.7024,2.24522 -10.1606,11.0819 -3.2752,5.30248 -6.5377,10.12456 -7.25,10.71573 -1.4775,1.22617 -1.7463,3.82996 -0.3955,3.82996 0.4949,0 3.1281,-2.43818 5.8516,-5.41818 z m -362.15502,75.11215 c -1.09791,-0.80281 -1.65318,-2.2477 -1.44113,-3.75 0.27516,-1.94941 1.01585,-2.50837 3.66029,-2.7622 3.92735,-0.37698 6.18468,1.20125 6.18468,4.32404 0,1.49934 -0.75791,2.46404 -2.25,2.8639 -3.27217,0.87691 -4.16446,0.77893 -6.15384,-0.67574 z m 59.49251,-6.52828 c -0.78649,-1.46958 -0.69096,-2.25087 0.38436,-3.1433 2.18495,-1.81336 5.70568,-0.28668 5.33527,2.3135 -0.41212,2.89291 -4.31263,3.45879 -5.71963,0.8298 z m 292.24841,-29.72946 c -0.7842,-2.04373 1.1949,-6.31941 3.2988,-7.12678 2.0396,-0.78265 4.4571,2.21818 3.6557,4.53775 -1.2908,3.736 -5.8614,5.43754 -6.9545,2.58903 z m -41.2914,-60.88119 c -2.09174,-2.52039 -0.88253,-6.01628 2.20383,-6.37142 2.21702,-0.2551 2.95119,0.21405 3.79082,2.42245 0.57271,1.50636 0.81205,3.33623 0.53187,4.06638 -0.68019,1.77255 -5.02282,1.69443 -6.52652,-0.11741 z"
       id="path3292"
       inkscape:connector-curvature="0" />
  </g>
</svg>
