<?xml version="1.0" encoding="UTF-8"?>
<svg version="1.0" xmlns="http://www.w3.org/2000/svg" width="141" height="38" >
<path fill="#231F20" d="M26.241,13.428c1.399-1.217,3.815-2.792,4.507-4.582c0.044-0.113-0.056-0.189-0.141-0.233 c-2.633-1.377-10.106,7.028-11.64,8.373C13.13,22.104,7.774,27.642,2.092,32.905c-0.608,0.563,0.734,0.447,1.016,0.279 c7.97-4.736,16.75-8.236,24.399-13.461c6.196-4.231,15.596-10.158,18.548-17.49c0.197-0.49-1.207-0.14-1.392,0.102 c-3.352,4.357-6.75,8.68-10.183,12.974c-2.494,3.12-5.017,6.216-7.611,9.252c-1.881,2.201-4.249,3.991-6.085,6.159 c-0.049,0.057-0.067,0.12-0.055,0.192c0.039,0.063,0.078,0.126,0.116,0.189c0.126,0.205,0.398,0.209,0.617,0.173 c1.052-0.173,1.904-0.599,2.845-1.101c1.832-0.978,2.839-1.738,5.043-2.14c0.433-0.079-1.495,2.658-1.755,3.036 c-0.059,0.085-0.092,0.189-0.005,0.271c0.068,0.065,0.137,0.13,0.205,0.194c0.227,0.215,0.708,0.093,0.953-0.01 c2.84-1.184,5.66-2.221,8.648-2.984c-0.95,0.243-0.947-0.047-2.033,0.98c-0.622,0.588-1.308,1.197-1.754,1.932 c-0.047,0.077-0.104,0.198-0.005,0.271c0.318,0.236,0.692,0.224,1.056,0.066c1.21-0.521,1.722-0.236,2.947-0.251 c2.991-0.035,6.176-2.229,6.782-5.141c0.11-0.528-1.298-0.205-1.443,0.199c-0.422,1.173-0.935,2.452-0.12,3.508 c0.869,1.125,1.167,2.892,0.62,4.159c-0.176,0.407,1.252,0.245,1.443-0.199c1.318-3.055-1.626-4.539-0.5-7.667 c-0.481,0.066-0.962,0.133-1.443,0.199c-0.756,3.631-4.328,3.126-7.083,3.864c-0.434,0.116-1.25,1.287-0.357,0.256 c0.767-0.885,1.698-1.673,2.568-2.458c0.506-0.457-0.375-0.493-0.662-0.423c-2.089,0.518-4.142,1.144-6.171,1.855 c-4.4,1.544,0.74-0.211,0.733-2.102c-0.025-0.068-0.073-0.115-0.143-0.14c-1.03-0.465-2.365-0.214-3.413,0.06 c-1.085,0.282-2.082,0.617-3.108,1.083c-0.104,0.047-2.76,1.637-1.735,0.832c2.695-2.115,4.845-5.091,7.021-7.701 C35.88,15.386,40.97,8.873,46.003,2.331c-0.464,0.034-0.928,0.068-1.392,0.102c-1.48,3.678-5.09,6.588-7.956,9.148 c-3.792,3.389-7.91,6.446-12.192,9.183c-4.192,2.678-8.86,4.616-13.241,6.966c-2.291,1.229-4.554,2.51-6.808,3.806 c-0.606,0.349-1.209,0.702-1.813,1.057c-0.84,0.494,0.733,0.415,1.102,0.069c5.491-5.164,10.749-10.493,16.413-15.487 c2.639-2.327,5.302-4.639,8.078-6.803c2.147-1.674,0.788-0.74-0.604,0.606c-0.807,0.78-1.652,1.524-2.499,2.261 C24.475,13.775,25.917,13.708,26.241,13.428L26.241,13.428 M43.903,31.778c5.168,1.144,11.211-4.544,14.421-7.772c0.946-0.952,10.485-12.378,6.774-12.48 c-4.498-0.124-8.571,10.792-9.857,13.865c-2.453,5.862,1.728,5.397,5.392,2.388c-0.354-0.149-0.708-0.3-1.062-0.449 c-5.416,7.142,9.255,1.147,11.4,0.207c-0.301-0.181-0.601-0.36-0.9-0.54c-0.963,0.939-2.953,2.546-2.705,4.066 c0.022,0.138,0.18,0.215,0.295,0.252c1.975,0.635,6.247,0.354,7.522-1.595c0.41-0.627-1.064-0.571-1.369-0.105 c-0.17,0.261-5.255,1.332-4.884,0.444c0.414-0.994,1.557-1.966,2.33-2.721c0.585-0.57-0.547-0.694-0.9-0.54 c-2.506,1.099-5.038,2.015-7.683,2.709c-2.234,0.587-3.313,0.005-1.917-1.836c0.513-0.676-0.67-0.771-1.062-0.449 c-1.054,0.865-4.541,2.95-3.617-0.277c0.525-1.834,1.453-3.594,2.299-5.294c0.859-1.727,1.843-3.388,2.87-5.02 c0.35-0.556,3.336-3.486,3.357-3.621c-0.581,3.839-5.004,8.009-7.474,10.653c-2.497,2.674-8.208,8.146-12.372,7.225 C44.214,30.766,43.044,31.589,43.903,31.778L43.903,31.778 M109.437,4.406c-0.188,0.318-0.378,0.638-0.567,0.956c0.421-0.045,0.841-0.09,1.262-0.135 c-2.128-3.791-7.299-1.714-10.364,0.197c-4.678,2.918-8.178,8.62-11.272,13.042c-0.601,0.856-6.925,9.232-5.705,10.291 c0.847,0.734,2.826-0.37,3.664-0.578c2.829-0.706,5.96-1.077,8.511-2.574c-0.383-0.107-0.766-0.214-1.148-0.321 c-0.585,0.849-1.252,1.774-0.985,2.828c0.051,0.201,0.285,0.251,0.458,0.273c2.381,0.319,5.148-1.48,7.182-2.524 c-0.329-0.137-0.658-0.273-0.987-0.41c-0.631,1.017-1.23,2.02-1.083,3.233c0.017,0.136,0.186,0.211,0.294,0.246 c3.13,1.021,8.432-2.812,10.233-5.098c-0.441-0.031-0.882-0.062-1.323-0.093c-0.251,1.161-1.014,5.848-1.864,6.761 c0.441,0.031,0.882,0.062,1.323,0.093c0.306-1.231,5.438-3.66,6.557-4.534c3.332-2.603,6.344-5.653,8.985-8.948 c1.8-2.245,3.658-5.012,3.681-7.999c0.007-0.84-0.83-1.017-1.459-0.616c-1.571,1-2.381,3.637-3.132,5.215 c-1.507,3.164-2.861,6.405-4.184,9.649c-2.583,6.341,2.648,4.053,6.12,1.245c-0.383-0.107-0.766-0.214-1.148-0.321 c-1.538,2.048-1.657,4.181,1.363,4.185c3.163,0.005,6.645-2.163,9.285-3.696c-0.383-0.107-0.766-0.214-1.148-0.321 c-0.354,0.933-0.707,1.791-1.41,2.55c-0.285,0.309-0.048,0.616,0.327,0.634c2.92,0.139,5.489-0.749,7.693-2.636 c0.661-0.566-0.771-0.688-1.188-0.332c-1.552,0.667-3.103,1.333-4.654,1.999c-1.344-0.003-1.502,0.033-0.476,0.109 c0.524-0.566,0.803-1.512,1.074-2.227c0.265-0.697-0.829-0.507-1.148-0.321c-1.119,0.65-2.275,1.227-3.442,1.785 c-2.125,1.019-7.721,2.113-4.909-1.631c0.427-0.568-0.884-0.535-1.148-0.321c0.054-0.043-4.797,3.829-4.684,1.766 c0.04-0.725,0.587-1.691,0.86-2.368c0.845-2.096,1.733-4.175,2.639-6.245c0.831-1.901,1.702-3.785,2.637-5.638 c1.548-3.064,0.961-1.599-0.058,0.922c-2.185,5.406-7.661,10.093-12.147,13.598c-1.984,1.55-5.665,1.915-6.345,4.646 c-0.16,0.645,1.108,0.323,1.323,0.093c0.837-0.899,0.746-1.326,0.721-2.63c-0.022-1.185,1.147-3.378,1.415-4.609 c0.136-0.627-1.108-0.365-1.323-0.093c-1.313,1.668-3.125,2.653-4.989,3.597c-2.312,1.168-3.503,1.033-1.9-1.549 c0.35-0.563-0.724-0.546-0.987-0.41c-1.326,0.681-7.082,3.731-4.68,0.243c0.438-0.635-0.913-0.459-1.148-0.321 c-1.935,1.136-4.492,1.479-6.648,1.985c-1.371,0.322-3.613,1.82-2.782,0.018c1.242-2.692,3.015-5.195,4.668-7.644 c2.108-3.12,14.935-21.765,19.523-13.59c0.229,0.409,1.028,0.077,1.262-0.136c0.452-0.413,0.64-0.861,0.839-1.435 C111.097,3.68,109.627,3.859,109.437,4.406L109.437,4.406 M110.537,18.188c5.684-0.121,11.5-0.56,17.174-0.174c0.379,0.026,1.685-0.642,0.912-0.693 c-5.783-0.395-11.7,0.035-17.492,0.158C110.667,17.488,109.564,18.208,110.537,18.188L110.537,18.188z"/>
</svg>