<?xml version="1.0" standalone="no"?>
<!DOCTYPE svg PUBLIC "-//W3C//DTD SVG 20010904//EN"
 "http://www.w3.org/TR/2001/REC-SVG-20010904/DTD/svg10.dtd">
<svg version="1.0" xmlns="http://www.w3.org/2000/svg"
 width="468pt" height="106pt" viewBox="0 0 468 106"
 preserveAspectRatio="xMidYMid meet">
<metadata>
Created by POTRACE VERSION, written by Peter Selinger 2001-2007
</metadata>
<g transform="translate(0,106) scale(0.011700,-0.011700)"
fill="#000000" stroke="none">
<path d="M18300 8370 c-36 -9 -117 -29 -180 -45 -63 -15 -140 -38 -170 -51
-30 -13 -109 -37 -174 -54 -65 -16 -135 -38 -155 -49 -20 -10 -58 -30 -86 -45
-27 -14 -95 -37 -150 -51 -58 -15 -120 -39 -147 -56 -25 -17 -80 -40 -121 -53
-42 -13 -113 -45 -159 -71 -46 -26 -101 -65 -123 -86 -22 -21 -74 -54 -116
-73 -42 -19 -92 -48 -110 -64 -19 -16 -65 -45 -104 -65 -38 -19 -96 -58 -128
-86 -32 -28 -62 -51 -67 -51 -4 0 -37 -35 -73 -78 -35 -43 -77 -98 -92 -122
-15 -25 -47 -66 -71 -93 -23 -26 -67 -84 -97 -130 -30 -45 -78 -138 -107 -206
-36 -85 -56 -150 -65 -210 -7 -47 -19 -111 -26 -141 -7 -34 -9 -85 -5 -135 3
-44 17 -118 30 -165 14 -47 38 -133 55 -193 17 -59 50 -145 72 -190 23 -45 59
-106 81 -135 22 -29 46 -68 54 -87 8 -19 14 -49 14 -67 0 -18 -10 -49 -21 -68
-12 -19 -65 -77 -118 -128 -81 -77 -107 -96 -165 -119 -38 -14 -85 -40 -105
-58 -20 -18 -61 -48 -91 -68 -30 -20 -91 -68 -135 -107 -44 -39 -119 -97 -166
-130 -47 -32 -91 -66 -99 -75 -7 -9 -43 -34 -79 -56 -36 -22 -87 -57 -113 -77
-26 -20 -95 -64 -154 -97 -73 -41 -119 -75 -147 -107 -22 -26 -72 -74 -111
-106 -39 -33 -91 -69 -116 -82 -25 -12 -94 -56 -155 -97 -60 -41 -152 -103
-204 -138 -52 -36 -106 -75 -120 -88 -14 -14 -51 -40 -81 -59 -30 -19 -64 -45
-75 -58 -11 -12 -51 -38 -90 -57 -38 -19 -85 -46 -103 -60 -19 -14 -75 -43
-125 -64 -50 -22 -100 -48 -112 -59 -12 -11 -56 -39 -98 -63 -42 -23 -134 -81
-204 -128 -70 -47 -173 -111 -228 -144 -55 -32 -138 -81 -185 -110 -47 -29
-121 -71 -165 -94 -44 -24 -89 -51 -100 -61 -11 -10 -63 -39 -115 -64 -52 -25
-130 -65 -172 -89 -43 -24 -94 -57 -115 -73 -21 -16 -123 -72 -228 -123 -113
-56 -207 -109 -231 -131 -25 -23 -65 -45 -106 -59 -36 -12 -89 -40 -119 -61
-29 -22 -58 -40 -65 -40 -7 0 -59 -24 -116 -54 -57 -30 -137 -64 -178 -76 -41
-12 -102 -37 -135 -55 -33 -17 -91 -42 -130 -55 -38 -12 -104 -42 -147 -67
-42 -24 -140 -65 -220 -92 -78 -26 -161 -57 -183 -68 -22 -11 -88 -34 -147
-52 -60 -17 -116 -31 -125 -31 -10 0 -52 -17 -93 -37 l-75 -38 -210 3 c-115 2
-237 7 -270 12 -39 6 -96 27 -163 62 -57 29 -112 63 -122 75 -10 13 -21 45
-25 71 -3 29 1 88 13 157 11 61 24 121 30 135 5 14 33 53 60 88 28 35 64 73
79 85 15 11 45 36 65 54 21 18 75 51 120 74 46 23 95 50 109 60 15 10 59 35
98 55 40 20 96 58 124 84 29 26 84 66 122 90 39 24 140 84 225 135 85 51 191
117 235 149 44 31 97 70 119 88 21 17 87 63 146 102 60 39 142 90 182 114 40
23 96 59 123 78 30 22 76 72 115 127 36 50 88 117 117 148 28 32 64 77 79 101
15 23 36 70 46 103 10 33 18 76 18 95 0 19 -13 64 -28 100 -16 36 -49 97 -75
135 -25 39 -98 124 -162 190 -65 66 -129 136 -143 155 -15 19 -49 61 -77 92
-28 31 -70 94 -93 140 -30 58 -46 105 -54 159 -6 41 -8 91 -4 111 4 22 37 77
84 141 43 58 100 125 127 150 28 24 64 51 82 60 17 9 58 26 90 38 32 12 76 34
98 49 22 15 49 38 60 50 11 12 58 48 105 80 47 32 119 69 160 84 41 15 113 53
160 84 47 31 101 71 120 88 19 17 67 48 105 69 39 21 81 48 95 60 14 12 50 39
80 60 30 21 69 50 85 66 17 15 71 49 120 74 50 25 124 67 166 94 43 27 130 89
195 138 66 49 139 100 164 114 25 14 80 54 123 89 44 36 93 76 110 89 18 12
52 32 77 43 25 12 84 50 132 86 64 47 106 90 159 158 39 52 91 108 115 126 24
17 44 35 44 39 0 4 34 43 75 87 48 51 92 88 123 102 26 12 68 35 94 52 33 21
54 44 72 81 16 31 26 68 26 95 0 24 -5 63 -11 87 -6 24 -21 53 -33 64 -12 12
-72 39 -132 61 -60 22 -122 42 -137 46 -16 3 -67 0 -115 -6 -48 -7 -134 -28
-192 -47 -58 -18 -134 -40 -170 -47 -36 -8 -106 -30 -155 -49 -50 -19 -124
-45 -165 -57 -41 -12 -98 -35 -126 -51 -28 -16 -104 -47 -170 -70 -65 -22
-133 -48 -150 -58 -16 -10 -68 -33 -114 -51 -47 -17 -110 -45 -140 -60 -31
-16 -96 -44 -144 -64 -49 -19 -102 -46 -120 -59 -17 -13 -89 -53 -161 -90 -71
-36 -155 -73 -185 -82 -30 -10 -71 -26 -91 -36 -19 -9 -41 -25 -49 -33 -7 -9
-56 -46 -109 -82 -53 -37 -125 -94 -161 -128 -36 -33 -110 -97 -165 -141 -55
-44 -132 -114 -172 -155 -40 -41 -104 -116 -143 -166 -39 -51 -85 -125 -104
-165 -18 -41 -50 -99 -71 -129 -20 -30 -56 -93 -80 -140 -23 -47 -75 -184
-115 -305 -40 -121 -81 -236 -91 -256 -10 -21 -31 -47 -46 -59 -15 -12 -69
-48 -119 -80 -51 -33 -123 -88 -162 -122 -38 -35 -98 -85 -133 -113 -35 -27
-103 -76 -152 -107 -48 -32 -111 -70 -140 -84 -28 -15 -70 -42 -92 -60 -22
-18 -75 -46 -118 -63 -43 -17 -119 -59 -168 -94 -49 -34 -109 -75 -133 -92
-24 -16 -70 -47 -102 -68 -33 -20 -74 -48 -93 -62 -19 -14 -59 -33 -88 -41
-30 -9 -114 -46 -187 -83 -73 -37 -154 -85 -179 -107 -30 -27 -67 -47 -109
-59 -34 -11 -81 -34 -103 -51 -23 -17 -63 -44 -90 -59 -28 -16 -63 -41 -80
-56 -16 -15 -61 -43 -100 -62 -38 -19 -94 -52 -123 -73 -28 -22 -95 -66 -148
-99 -52 -33 -132 -84 -176 -113 -44 -29 -119 -73 -166 -98 -48 -25 -112 -60
-142 -79 -30 -18 -91 -55 -135 -83 -44 -27 -99 -59 -122 -71 -23 -12 -58 -35
-77 -51 -19 -17 -67 -44 -107 -61 -41 -16 -90 -42 -109 -58 -19 -15 -62 -45
-95 -65 -33 -21 -71 -48 -85 -61 -14 -12 -70 -49 -125 -81 -55 -33 -113 -65
-128 -72 -15 -7 -78 -45 -140 -85 -62 -40 -134 -87 -162 -104 -27 -18 -84 -51
-125 -74 -41 -24 -96 -57 -122 -75 -26 -18 -71 -40 -100 -50 -29 -9 -109 -46
-178 -82 -69 -36 -158 -87 -199 -114 -41 -26 -78 -48 -83 -48 -6 0 -67 -32
-137 -72 -69 -40 -144 -87 -166 -104 -22 -18 -65 -40 -95 -49 -30 -9 -81 -26
-112 -37 -31 -11 -92 -40 -135 -65 -43 -25 -99 -63 -124 -84 -25 -21 -82 -54
-126 -72 -44 -19 -96 -46 -116 -61 -19 -15 -69 -37 -111 -50 -41 -13 -97 -39
-123 -59 -26 -19 -65 -42 -87 -51 -21 -9 -64 -32 -96 -51 -32 -19 -107 -54
-167 -76 -59 -22 -128 -53 -153 -69 -25 -15 -79 -44 -120 -64 -41 -19 -102
-44 -135 -54 -33 -11 -96 -34 -139 -51 -44 -17 -99 -44 -121 -60 -23 -17 -77
-44 -120 -61 -43 -17 -91 -40 -106 -51 -15 -11 -45 -27 -65 -35 -21 -9 -105
-33 -188 -54 -84 -20 -175 -50 -205 -64 -36 -19 -80 -30 -139 -37 -48 -5 -103
-12 -122 -15 -19 -3 -68 -15 -109 -25 -41 -10 -97 -19 -125 -19 -27 0 -84 9
-125 21 -42 12 -93 31 -114 42 -22 12 -45 33 -52 47 -7 14 -18 54 -25 88 -6
34 -12 137 -13 229 -2 148 1 179 22 263 13 52 38 133 56 180 18 47 38 112 45
145 6 33 16 74 22 90 6 17 36 64 67 105 30 41 70 92 88 112 18 21 46 64 62 96
16 33 42 73 57 91 15 18 48 71 74 119 26 48 63 116 83 151 21 35 58 86 84 115
25 28 57 76 71 106 14 30 52 100 85 155 33 55 88 130 121 168 34 37 98 99 143
137 46 39 100 96 120 128 21 31 62 84 91 117 29 33 70 74 91 90 22 17 80 85
131 153 50 67 95 122 100 122 5 0 47 48 93 108 46 59 96 127 110 152 15 25 63
77 108 115 44 39 113 99 152 135 40 36 113 98 164 138 50 40 121 107 157 151
37 43 88 93 114 111 26 18 99 83 162 144 71 69 149 132 203 166 49 30 121 78
160 106 40 28 95 64 122 79 28 16 64 40 80 55 17 15 51 41 76 58 25 17 52 38
60 48 8 9 64 55 126 100 61 46 131 95 155 110 24 15 64 45 90 68 25 23 79 64
120 92 40 28 100 65 134 82 33 17 101 57 150 90 49 33 105 77 124 97 19 20 60
50 90 67 30 17 82 47 115 67 33 19 124 78 203 130 79 53 166 110 195 128 29
18 96 60 150 95 55 35 118 79 140 99 23 20 52 41 64 48 12 6 62 25 110 42 48
17 133 54 187 83 55 28 122 63 150 78 28 15 61 27 73 28 12 0 48 16 80 35 47
28 75 36 148 45 61 7 111 20 154 41 35 16 93 36 130 44 36 9 84 28 106 42 22
15 88 39 150 54 60 16 174 45 253 64 129 33 148 35 210 27 37 -5 93 -7 124 -4
31 2 82 1 113 -3 48 -6 62 -13 110 -57 31 -28 67 -69 80 -92 13 -22 33 -74 44
-115 11 -40 27 -84 35 -97 11 -15 33 -26 70 -35 42 -9 68 -9 111 -1 30 6 86
24 123 40 37 16 90 37 118 46 29 9 80 35 115 56 35 22 90 54 122 72 32 17 90
62 128 100 38 38 69 77 69 87 0 10 -7 24 -15 31 -8 6 -32 14 -54 17 -27 4 -73
-5 -151 -28 -105 -30 -117 -32 -169 -21 -31 6 -96 32 -146 58 -49 26 -101 54
-115 64 -14 9 -65 34 -115 55 -49 21 -115 51 -145 67 -30 16 -98 37 -150 48
-52 11 -116 20 -141 20 -25 0 -115 -9 -200 -19 -92 -12 -184 -29 -229 -45 -41
-14 -149 -42 -240 -62 -91 -20 -186 -47 -212 -60 -26 -13 -77 -35 -115 -49
-37 -15 -99 -30 -136 -35 -43 -5 -77 -15 -90 -27 -12 -10 -34 -25 -48 -32 -14
-7 -38 -23 -53 -36 -19 -16 -47 -26 -84 -31 -32 -4 -83 -20 -114 -35 -32 -16
-58 -33 -58 -39 0 -5 -27 -17 -61 -26 -33 -9 -88 -34 -120 -56 -33 -21 -144
-81 -247 -134 -102 -53 -199 -105 -214 -115 -15 -11 -63 -36 -105 -56 -43 -20
-94 -49 -114 -64 -20 -16 -74 -46 -121 -67 -46 -22 -123 -64 -170 -95 -48 -31
-91 -64 -97 -75 -6 -11 -43 -42 -83 -68 -40 -26 -108 -68 -152 -92 -43 -24
-97 -57 -120 -73 -22 -17 -77 -52 -121 -79 -44 -26 -109 -65 -145 -86 -36 -21
-148 -94 -250 -162 -102 -68 -198 -135 -213 -150 -15 -15 -63 -49 -106 -77
-43 -27 -117 -76 -164 -107 -47 -31 -88 -62 -92 -67 -3 -6 -38 -29 -78 -52
-40 -23 -100 -68 -134 -100 -34 -31 -97 -85 -140 -118 -43 -34 -103 -81 -133
-106 -30 -24 -77 -64 -105 -88 -27 -24 -79 -59 -114 -77 -44 -24 -83 -56 -130
-108 -36 -41 -88 -97 -116 -124 -27 -26 -77 -67 -110 -90 -33 -24 -80 -63
-105 -88 -25 -25 -99 -104 -165 -175 -66 -72 -156 -166 -200 -210 -44 -44
-158 -156 -254 -250 -96 -93 -199 -204 -229 -245 -30 -41 -99 -120 -153 -176
-57 -59 -108 -123 -124 -155 -15 -30 -55 -87 -87 -127 -33 -40 -103 -121 -155
-179 -52 -59 -108 -127 -126 -152 -17 -25 -44 -62 -60 -81 -15 -19 -43 -69
-61 -110 -18 -41 -48 -97 -68 -125 -20 -27 -49 -79 -66 -115 -16 -36 -67 -114
-112 -175 -58 -77 -93 -135 -116 -193 -18 -46 -48 -104 -67 -130 -18 -26 -54
-83 -79 -127 -25 -44 -58 -112 -72 -152 -14 -40 -36 -94 -49 -120 -13 -26 -27
-73 -31 -103 -4 -30 -21 -109 -38 -174 -30 -114 -31 -123 -20 -199 8 -55 22
-99 47 -145 19 -37 58 -113 85 -169 37 -76 61 -111 93 -137 23 -19 81 -53 127
-75 75 -36 103 -43 235 -61 83 -11 181 -27 219 -35 53 -11 105 -13 218 -8 143
6 151 7 193 35 24 16 65 33 92 37 26 5 91 21 143 36 52 15 102 34 111 41 8 8
27 14 42 14 14 0 29 5 32 10 3 6 17 10 30 10 13 0 64 9 113 21 69 16 112 34
193 81 57 33 134 76 170 94 37 18 82 46 100 62 19 16 49 34 67 40 18 6 46 20
61 32 16 11 34 20 40 20 6 0 34 11 63 24 29 14 97 39 151 55 54 17 128 45 165
62 37 17 101 41 143 55 52 16 101 42 150 78 41 29 94 63 119 76 25 12 70 38
100 56 30 18 96 48 145 67 66 24 123 57 213 119 100 71 133 89 180 98 31 6 87
18 124 26 37 9 93 32 125 51 32 19 91 48 131 65 41 17 94 48 118 69 24 21 75
58 112 82 37 24 90 55 117 70 28 15 82 55 120 87 51 44 85 64 125 75 30 9 91
33 135 55 44 22 105 46 136 55 31 8 76 28 100 43 24 15 73 42 109 60 36 17 88
52 115 77 28 25 77 65 110 88 33 22 88 52 123 64 35 13 76 30 93 38 16 9 64
42 107 74 42 32 88 71 102 86 14 15 58 43 99 61 40 19 108 59 150 90 42 32 90
70 106 85 17 15 53 37 80 49 28 12 98 45 157 75 58 29 126 66 150 83 24 17 50
38 58 47 8 9 49 38 92 63 43 26 123 72 177 102 54 30 122 69 151 85 29 17 103
63 164 104 61 40 127 90 146 110 19 20 78 60 130 88 52 28 113 56 135 63 22 7
58 22 80 33 22 11 76 46 119 79 43 33 114 77 157 99 43 21 107 50 141 63 35
13 121 54 192 90 72 36 146 81 165 100 20 18 52 42 71 51 19 10 63 38 98 62
35 25 98 59 140 76 42 17 111 51 152 76 41 24 91 59 110 76 19 18 60 49 90 68
30 19 95 72 144 118 68 62 110 92 174 122 46 21 98 43 115 48 24 7 41 4 72
-11 23 -11 53 -32 68 -48 19 -19 33 -53 48 -112 11 -47 34 -110 51 -140 17
-30 53 -95 79 -145 27 -49 66 -106 86 -127 21 -21 54 -50 74 -64 20 -14 67
-61 104 -105 36 -44 73 -96 82 -117 9 -20 16 -62 15 -93 0 -34 -8 -74 -20
-100 -11 -24 -48 -73 -83 -109 -35 -36 -88 -86 -117 -110 -30 -25 -74 -58 -99
-73 -25 -16 -74 -51 -109 -79 -35 -27 -73 -63 -85 -79 -11 -16 -53 -47 -92
-70 -40 -23 -85 -54 -102 -69 -16 -15 -58 -42 -92 -59 -34 -17 -99 -55 -145
-86 -46 -30 -108 -72 -138 -94 -30 -21 -66 -44 -80 -51 -14 -7 -45 -30 -70
-50 -25 -20 -72 -52 -105 -70 -33 -18 -76 -46 -94 -63 -19 -16 -55 -39 -80
-50 -26 -11 -71 -37 -101 -57 -30 -21 -78 -49 -106 -63 -28 -14 -85 -59 -126
-100 -41 -40 -99 -92 -130 -115 -30 -24 -78 -68 -105 -100 -27 -31 -68 -82
-91 -112 -23 -30 -58 -74 -77 -98 -19 -24 -41 -66 -50 -94 -8 -29 -15 -68 -15
-88 0 -20 5 -62 11 -94 5 -31 18 -74 27 -96 9 -21 42 -69 72 -107 30 -37 80
-94 110 -126 30 -33 74 -70 97 -84 23 -13 94 -37 158 -53 65 -17 140 -30 167
-30 28 0 78 7 112 16 50 13 91 15 226 10 99 -4 187 -2 220 4 30 5 100 32 156
59 55 27 129 56 165 65 35 8 82 21 104 29 22 8 65 18 95 22 30 4 76 16 103 26
26 10 93 30 149 44 66 16 130 41 185 71 46 25 122 59 169 74 47 16 108 42 137
59 29 16 72 35 97 41 25 7 76 25 115 41 38 17 116 41 174 55 57 13 124 33 149
44 25 12 60 31 76 44 17 13 46 31 64 40 18 9 71 30 118 47 48 17 110 45 138
63 28 18 76 48 106 66 30 18 91 55 134 82 43 27 100 67 125 90 25 22 75 54
111 71 36 16 84 43 107 59 24 16 82 47 130 70 49 22 129 57 179 78 50 21 129
62 175 92 46 30 125 74 174 96 50 23 110 48 134 57 24 8 71 35 106 59 34 25
75 61 91 80 16 19 39 48 51 64 12 16 53 48 90 70 53 32 90 45 168 61 55 10
112 24 127 30 15 6 40 29 55 52 16 23 48 63 71 90 32 35 72 63 145 100 56 28
134 70 172 92 39 22 86 55 105 72 19 18 51 42 70 55 19 13 58 44 85 71 28 26
79 68 115 93 36 26 92 65 125 88 33 23 78 58 100 77 22 20 67 52 100 71 33 18
76 46 97 62 20 15 53 35 74 44 20 9 80 45 133 81 53 37 132 100 176 141 44 42
98 89 120 105 22 16 62 40 90 54 27 14 87 63 133 110 71 72 96 90 178 128 52
24 114 58 137 75 24 17 60 53 81 81 21 29 53 57 72 65 18 8 49 14 69 14 20 0
50 -7 68 -16 18 -9 82 -64 142 -123 61 -58 133 -126 161 -151 27 -25 150 -150
274 -278 180 -186 233 -247 267 -308 23 -41 54 -89 68 -106 15 -17 39 -56 55
-87 16 -31 48 -82 72 -113 24 -31 69 -108 100 -171 32 -63 62 -136 69 -163 6
-27 11 -105 12 -174 0 -100 -5 -151 -27 -254 -21 -104 -36 -146 -73 -215 -26
-47 -72 -122 -104 -167 -32 -44 -76 -97 -97 -116 -22 -20 -65 -52 -97 -72 -31
-20 -86 -67 -122 -104 -36 -37 -72 -76 -79 -88 -8 -12 -38 -34 -67 -49 -28
-16 -90 -58 -137 -93 -47 -36 -98 -76 -114 -89 -16 -13 -56 -38 -90 -55 -34
-17 -86 -48 -116 -68 -30 -20 -84 -52 -120 -70 -36 -18 -78 -43 -95 -55 -16
-13 -85 -50 -152 -84 -68 -33 -158 -70 -200 -82 -43 -11 -102 -36 -131 -55
-28 -19 -87 -48 -130 -65 -42 -17 -106 -49 -141 -71 -35 -22 -94 -53 -130 -70
-36 -16 -87 -43 -113 -59 -26 -17 -82 -45 -126 -63 -43 -18 -100 -47 -126 -65
-25 -18 -53 -45 -61 -61 -9 -17 -15 -55 -15 -90 0 -36 7 -76 16 -95 11 -25 34
-43 85 -70 44 -23 94 -40 137 -46 37 -6 110 -25 162 -42 81 -27 109 -31 190
-31 52 0 112 6 133 13 21 7 47 22 57 34 13 13 20 35 20 59 0 22 -7 52 -15 67
-8 16 -37 45 -65 65 -28 20 -56 47 -62 61 -9 20 -6 31 15 67 14 24 40 58 57
75 18 18 48 37 68 43 21 5 42 10 47 10 6 0 27 5 47 11 21 5 63 32 94 59 32 28
81 59 113 70 31 12 75 32 98 46 23 13 82 35 131 48 49 13 100 29 113 36 13 7
36 23 51 36 15 12 69 38 120 58 51 20 114 49 139 64 25 15 92 63 149 107 56
44 148 124 203 178 62 60 132 116 181 146 45 27 109 61 144 76 53 24 70 38
101 84 21 31 73 89 115 128 42 40 80 73 85 73 5 0 33 30 63 66 29 36 81 102
115 147 34 45 74 103 88 128 14 26 34 92 45 148 11 56 25 113 30 127 6 14 10
74 10 133 0 80 -8 146 -29 252 -16 79 -43 178 -59 219 -16 41 -37 96 -46 122
-10 26 -38 73 -62 105 -25 32 -68 94 -95 138 -28 44 -76 114 -107 157 -31 42
-79 105 -107 139 -27 35 -70 85 -94 111 -23 26 -67 61 -96 77 -37 21 -75 57
-125 118 -39 48 -87 100 -106 114 -19 15 -50 46 -68 71 -19 24 -50 55 -69 68
-19 13 -52 54 -73 90 -21 36 -58 86 -81 111 -23 25 -51 65 -62 90 -12 24 -21
56 -21 70 0 15 11 36 28 51 15 14 72 54 127 88 55 34 116 77 135 95 19 18 69
55 110 81 41 26 103 70 137 97 35 27 82 76 105 110 24 33 72 85 108 114 36 29
92 77 126 107 34 29 99 76 146 104 47 28 113 80 147 115 34 35 77 86 96 114
26 39 55 63 132 110 54 33 119 72 145 87 27 15 67 51 90 83 24 30 57 74 73 97
17 24 78 89 136 147 59 57 122 130 140 161 19 31 79 106 134 166 55 61 119
133 143 161 24 28 54 70 67 93 13 24 41 88 63 143 22 55 43 123 46 150 4 28 2
65 -3 83 -5 18 -28 61 -50 95 -22 34 -52 76 -66 94 -15 18 -51 46 -80 63 -30
17 -86 42 -125 55 -40 14 -118 29 -174 35 -55 6 -128 15 -161 20 -33 5 -73 9
-90 9 -16 -1 -59 -9 -95 -19z m138 -370 c81 -28 162 -59 181 -68 19 -10 42
-33 53 -52 10 -19 18 -51 18 -70 0 -19 -13 -63 -30 -98 -16 -34 -40 -73 -54
-87 -14 -13 -37 -42 -53 -62 -15 -21 -71 -81 -123 -133 -53 -52 -110 -115
-127 -140 -17 -25 -82 -97 -145 -160 -63 -63 -154 -149 -202 -190 -48 -41
-120 -106 -159 -145 -40 -38 -84 -86 -99 -107 -15 -20 -48 -47 -72 -61 -25
-14 -64 -40 -87 -59 -24 -18 -68 -58 -99 -88 -31 -30 -117 -105 -191 -166 -74
-61 -159 -128 -189 -148 -30 -20 -80 -56 -110 -81 -30 -25 -91 -73 -134 -107
-44 -35 -105 -86 -137 -115 -32 -28 -72 -59 -90 -68 -23 -12 -48 -16 -86 -13
-32 3 -65 13 -81 25 -15 11 -35 35 -44 54 -9 19 -31 71 -48 117 -24 64 -36
122 -51 250 -11 92 -21 232 -22 312 -2 135 0 150 25 223 16 42 51 114 78 158
28 45 82 120 120 168 39 49 98 112 131 142 34 30 95 79 135 109 40 30 115 90
165 133 51 43 111 88 133 99 23 11 59 37 81 59 22 21 92 66 155 100 78 42 179
83 315 129 110 38 249 80 309 95 60 14 132 38 160 52 28 15 65 30 81 34 17 4
56 7 88 8 45 1 90 -10 205 -49z m-5785 -684 c21 -8 47 -22 58 -32 10 -9 23
-32 28 -50 6 -21 6 -47 0 -68 -7 -25 -28 -49 -73 -85 -35 -28 -94 -65 -132
-81 -38 -17 -89 -48 -114 -69 -25 -21 -61 -46 -80 -56 -19 -10 -62 -37 -95
-62 -33 -24 -100 -75 -150 -113 -49 -38 -110 -85 -135 -105 -25 -19 -67 -47
-93 -62 -27 -16 -90 -59 -140 -97 -51 -38 -115 -90 -143 -115 -28 -25 -89 -67
-135 -92 -46 -26 -112 -57 -147 -69 -39 -14 -82 -40 -112 -67 -27 -24 -83 -66
-125 -94 -42 -27 -101 -62 -133 -78 -31 -16 -68 -41 -82 -56 -14 -14 -61 -51
-106 -81 -54 -35 -92 -54 -112 -54 -21 0 -38 9 -56 31 -16 19 -26 43 -26 62 0
18 11 52 24 77 13 25 38 81 55 125 17 44 50 110 73 146 26 39 70 88 108 120
36 29 107 96 157 149 51 52 123 136 160 185 63 84 74 93 158 137 50 26 122 63
162 82 40 19 94 54 120 78 26 24 80 63 119 86 59 36 90 46 196 66 70 14 136
30 149 36 12 7 48 29 80 50 32 21 103 52 157 69 54 18 114 41 133 53 19 12 57
27 84 34 28 7 68 12 90 13 22 0 57 -6 78 -13z"/>
<path d="M30349 6884 c-41 -9 -129 -46 -236 -98 -126 -63 -179 -95 -206 -125
-22 -24 -43 -64 -55 -103 -11 -35 -32 -94 -46 -133 -17 -48 -26 -91 -26 -135
0 -36 -6 -96 -13 -135 -12 -64 -12 -79 10 -188 21 -106 32 -135 102 -275 44
-86 97 -184 119 -217 21 -33 77 -97 123 -141 46 -45 97 -98 112 -118 16 -21
72 -66 125 -101 54 -35 121 -84 151 -110 29 -25 61 -50 71 -55 10 -5 51 -22
91 -36 41 -15 90 -37 110 -49 19 -13 70 -39 112 -59 63 -30 81 -44 102 -80 14
-23 25 -57 25 -75 0 -17 -12 -55 -26 -84 -15 -29 -45 -83 -67 -122 -22 -38
-57 -109 -78 -158 -21 -49 -56 -113 -78 -141 -22 -28 -48 -71 -59 -96 -11 -25
-34 -63 -52 -85 -18 -22 -56 -77 -85 -121 -29 -45 -58 -85 -64 -88 -5 -4 -24
-33 -42 -66 -17 -33 -68 -103 -113 -156 -44 -53 -112 -135 -149 -182 -37 -48
-79 -105 -94 -126 -14 -22 -90 -110 -169 -195 -79 -86 -150 -161 -157 -167 -6
-6 -43 -49 -82 -94 -38 -46 -105 -123 -147 -171 -54 -60 -93 -95 -130 -113
-28 -14 -64 -26 -79 -26 -16 0 -40 10 -54 23 -20 16 -28 35 -32 68 -3 26 4 99
17 170 14 82 33 149 55 199 19 41 39 104 44 140 6 36 11 82 11 102 0 24 -18
73 -56 149 -31 62 -74 131 -96 155 -21 23 -62 58 -91 78 -34 23 -89 46 -158
66 -95 27 -121 30 -243 30 -88 0 -181 -7 -264 -20 -70 -11 -187 -34 -261 -50
-73 -17 -136 -32 -140 -35 -4 -2 -49 -13 -99 -24 -50 -11 -142 -40 -204 -64
-62 -25 -142 -50 -178 -56 -36 -6 -103 -15 -148 -21 -59 -7 -111 -21 -176 -49
-50 -22 -130 -48 -176 -59 -47 -12 -110 -32 -140 -45 -30 -13 -100 -39 -155
-57 -55 -17 -145 -54 -200 -80 -55 -27 -127 -56 -160 -66 -33 -9 -86 -30 -118
-46 -32 -16 -97 -42 -144 -58 -47 -16 -115 -47 -152 -69 -45 -27 -95 -47 -156
-61 -49 -11 -133 -40 -185 -64 -70 -32 -113 -46 -163 -50 -38 -4 -101 -19
-140 -35 -40 -16 -115 -42 -167 -59 -52 -16 -127 -35 -165 -41 -52 -9 -83 -9
-120 -1 -27 6 -57 18 -67 27 -9 8 -22 40 -28 70 -11 49 -9 65 20 176 17 67 46
156 65 197 18 41 47 113 64 160 17 47 43 123 58 170 27 81 28 94 28 270 -1
160 -4 196 -23 263 -12 43 -38 109 -57 147 -19 38 -48 84 -65 103 -16 19 -57
47 -91 62 -55 24 -71 27 -129 22 -36 -3 -88 -14 -115 -25 -28 -11 -112 -48
-188 -81 -77 -33 -164 -76 -195 -94 -32 -19 -96 -56 -145 -81 -48 -26 -118
-72 -156 -101 -37 -30 -106 -76 -152 -102 -46 -27 -119 -65 -162 -86 -43 -20
-92 -46 -108 -58 -16 -11 -67 -39 -112 -61 -45 -22 -95 -50 -112 -63 -16 -12
-59 -37 -95 -55 -36 -17 -110 -62 -165 -98 -55 -36 -115 -79 -134 -95 -19 -16
-50 -36 -68 -44 -19 -7 -76 -42 -126 -76 -51 -34 -110 -74 -132 -88 -22 -14
-67 -44 -100 -67 -33 -23 -105 -81 -160 -128 -55 -47 -127 -99 -160 -116 -33
-17 -98 -58 -145 -92 -46 -33 -106 -80 -132 -103 -26 -23 -69 -54 -95 -69 -26
-15 -63 -40 -81 -56 -18 -15 -59 -42 -90 -58 -31 -17 -100 -61 -153 -98 -53
-37 -108 -78 -122 -92 -14 -14 -49 -38 -79 -54 -29 -16 -109 -57 -178 -93 -68
-36 -137 -76 -153 -89 -16 -14 -48 -34 -70 -46 -32 -16 -54 -19 -103 -16 -41
3 -69 10 -82 21 -11 10 -22 30 -25 46 -3 15 -1 47 4 72 7 32 23 57 60 94 27
28 82 85 122 129 40 43 97 95 127 116 30 20 74 58 97 83 23 24 53 69 67 99 16
35 44 70 76 97 27 23 78 55 114 71 38 16 92 53 129 87 36 32 89 79 120 105 47
41 67 50 128 63 40 9 87 24 104 33 22 13 31 27 33 51 2 21 -3 40 -14 52 -9 10
-26 19 -36 19 -11 0 -54 -12 -96 -27 -43 -15 -97 -39 -122 -54 -25 -15 -61
-30 -80 -34 -19 -3 -76 -20 -126 -36 -54 -18 -110 -44 -135 -63 -24 -19 -105
-66 -179 -106 -74 -40 -155 -92 -180 -115 -25 -23 -67 -55 -93 -70 -27 -15
-106 -82 -176 -149 -69 -67 -171 -164 -226 -216 -69 -66 -126 -133 -185 -217
-46 -68 -88 -123 -92 -123 -4 0 -22 -19 -39 -42 -30 -42 -31 -46 -27 -134 3
-81 6 -94 31 -127 15 -21 42 -44 60 -54 18 -9 48 -20 67 -24 22 -5 72 -2 135
8 96 15 105 15 249 -7 103 -16 167 -21 211 -16 35 3 87 15 117 25 29 10 80 35
113 56 33 20 86 55 118 77 31 22 95 54 141 72 46 18 104 47 127 63 24 17 69
45 99 63 30 18 82 53 114 79 32 25 84 69 116 97 31 28 83 69 116 91 32 22 91
56 130 76 50 25 99 63 170 131 59 57 123 108 159 127 33 18 80 47 105 64 25
18 72 46 105 63 33 17 101 63 150 103 50 40 122 93 160 117 39 25 95 68 126
96 30 28 78 68 105 90 27 21 119 73 204 116 87 44 176 96 202 119 26 23 80 57
121 76 41 19 110 55 153 81 43 25 106 65 139 88 33 23 90 55 127 70 37 15 88
46 112 67 24 22 60 46 80 54 19 8 55 15 78 15 24 0 61 -9 83 -19 23 -10 53
-33 68 -50 14 -18 33 -55 42 -83 8 -29 15 -87 14 -132 0 -47 -8 -109 -18 -146
-11 -36 -35 -105 -55 -155 -20 -49 -59 -134 -86 -188 -48 -93 -50 -102 -50
-178 0 -66 5 -90 26 -132 14 -29 37 -70 52 -92 16 -22 50 -57 77 -77 28 -21
68 -46 90 -56 22 -11 71 -27 109 -36 37 -9 90 -28 117 -41 37 -19 64 -25 117
-25 38 0 87 6 108 14 22 7 73 19 114 26 41 7 145 28 230 46 85 19 211 51 278
70 68 19 138 41 155 49 18 8 91 37 162 65 72 28 157 69 191 91 48 31 85 45
175 65 81 18 130 35 169 59 31 18 85 44 120 58 36 13 97 40 136 60 40 20 116
47 170 61 55 14 128 28 164 32 42 4 101 22 166 49 55 24 153 57 218 74 77 20
149 47 213 81 54 27 104 50 113 50 8 0 53 14 100 31 47 16 144 39 215 50 72
11 146 24 165 30 19 6 70 27 112 46 43 19 103 38 134 43 34 6 110 6 189 1 92
-6 143 -14 166 -26 19 -10 48 -29 64 -42 17 -14 42 -41 58 -61 21 -28 27 -46
27 -88 0 -29 -7 -105 -15 -169 -9 -65 -22 -133 -30 -152 -8 -19 -30 -56 -48
-82 -19 -25 -64 -108 -102 -184 -41 -83 -69 -155 -73 -182 -3 -31 3 -69 21
-127 15 -48 42 -106 64 -137 29 -42 56 -64 118 -99 65 -37 91 -47 141 -50 39
-3 82 2 119 13 32 9 115 45 185 80 70 35 163 77 207 94 72 28 87 39 159 114
43 46 104 115 135 153 30 38 72 92 92 120 20 28 69 81 109 116 40 36 98 81
129 101 30 19 70 51 87 71 17 20 47 61 67 91 19 30 50 86 69 123 19 37 54 92
78 122 23 29 95 108 159 174 64 67 129 144 144 171 16 28 39 64 51 80 12 17
33 53 47 80 14 28 44 73 66 100 23 28 56 78 72 113 17 34 68 113 115 175 47
62 101 145 120 185 19 41 57 102 85 137 27 34 70 80 96 101 25 22 58 47 72 56
14 10 38 18 54 18 15 0 60 -9 100 -20 39 -11 110 -39 156 -62 47 -24 102 -57
123 -75 21 -17 53 -41 71 -52 21 -13 59 -61 102 -128 54 -83 75 -128 97 -202
15 -53 33 -137 39 -187 6 -50 8 -144 5 -210 -3 -65 -8 -224 -12 -351 l-6 -233
30 -63 c18 -38 42 -73 61 -86 18 -13 71 -36 119 -53 48 -17 117 -33 155 -35
48 -4 79 -1 110 11 26 10 69 42 112 86 62 63 81 75 180 116 60 26 124 56 140
68 17 12 53 35 80 51 28 16 68 43 90 62 22 18 85 66 140 106 55 41 129 92 165
115 36 22 102 54 146 69 44 16 108 49 143 73 34 25 111 93 171 151 97 94 119
110 187 138 43 17 98 45 123 61 25 16 56 30 70 30 14 0 48 -14 77 -30 28 -16
60 -42 71 -57 11 -15 32 -52 47 -82 16 -32 33 -91 41 -141 8 -48 23 -114 34
-146 11 -32 41 -89 65 -126 25 -36 58 -77 74 -91 16 -13 59 -36 95 -52 l66
-28 158 11 c86 6 223 20 303 31 80 11 159 23 175 27 16 4 47 16 69 27 22 11
54 30 70 43 17 12 67 39 113 59 56 24 107 39 162 45 44 5 99 14 122 20 24 7
77 23 118 38 49 17 89 40 117 65 34 32 57 42 140 62 54 14 115 25 136 25 21 0
53 -6 72 -14 18 -8 41 -26 50 -40 9 -14 23 -47 31 -73 8 -26 21 -142 29 -258
8 -115 19 -229 25 -252 5 -23 33 -83 62 -134 34 -60 70 -107 107 -140 30 -26
69 -55 86 -64 18 -8 68 -20 111 -26 43 -6 95 -19 116 -30 21 -11 65 -37 98
-58 36 -23 90 -47 137 -59 43 -11 103 -23 133 -26 30 -4 118 -11 195 -16 77
-5 173 -16 214 -25 41 -8 163 -22 270 -30 130 -9 308 -13 526 -10 318 3 332 4
394 26 39 15 72 34 84 51 13 18 18 34 13 52 -3 14 -21 42 -39 62 -17 21 -54
48 -82 61 -47 21 -62 23 -226 22 -117 0 -207 5 -270 16 -52 8 -134 29 -184 46
-49 17 -127 35 -172 40 -46 5 -112 20 -148 34 -36 13 -84 35 -107 49 -31 18
-75 30 -153 41 -60 9 -157 27 -215 41 -65 15 -123 36 -152 54 -29 18 -55 45
-67 67 -10 21 -26 73 -35 117 -9 43 -16 93 -16 112 0 18 -12 63 -27 100 l-27
66 18 46 c10 26 20 57 23 69 3 13 -4 41 -17 65 -12 24 -55 93 -96 154 -41 62
-90 126 -109 142 -22 20 -50 33 -79 37 -25 4 -64 5 -88 2 -24 -2 -81 -10 -128
-16 -47 -7 -115 -16 -152 -21 -37 -6 -100 -10 -140 -10 -40 0 -124 -9 -187
-19 -86 -15 -131 -28 -180 -54 -41 -22 -92 -39 -137 -46 -39 -6 -88 -17 -110
-24 -21 -8 -64 -17 -94 -21 -30 -4 -127 -32 -215 -62 -88 -30 -196 -73 -240
-94 -44 -22 -107 -49 -139 -60 -33 -11 -81 -20 -108 -20 -27 0 -63 6 -81 13
-18 8 -39 22 -47 32 -12 14 -15 49 -16 154 -1 75 -6 156 -13 181 -7 25 -28 70
-46 101 -19 31 -39 77 -45 103 -6 27 -17 60 -24 75 -8 14 -45 56 -83 93 -54
51 -81 70 -123 82 -29 9 -85 16 -124 16 -41 -1 -124 -13 -196 -29 -69 -16
-178 -48 -243 -72 -89 -33 -132 -55 -169 -87 -28 -24 -68 -52 -89 -63 -21 -10
-53 -32 -71 -47 -18 -16 -60 -46 -93 -67 -33 -21 -89 -60 -125 -88 -36 -28
-86 -70 -112 -94 -26 -23 -71 -54 -100 -67 -29 -13 -99 -59 -156 -102 -57 -44
-131 -99 -166 -124 -35 -25 -78 -57 -97 -71 -19 -14 -56 -39 -84 -54 -27 -16
-70 -47 -95 -70 -25 -23 -55 -47 -67 -54 -12 -6 -32 -11 -45 -11 -13 0 -38 9
-56 20 -18 11 -40 36 -48 55 -8 19 -14 50 -14 69 0 20 10 61 22 93 18 47 22
77 22 153 -1 74 -11 132 -43 267 -23 94 -50 196 -60 225 -10 29 -42 100 -71
157 -36 72 -70 123 -108 164 -32 33 -100 94 -152 136 -52 43 -106 85 -120 94
-14 9 -60 28 -102 41 -42 14 -99 39 -127 56 -31 20 -91 41 -157 57 -71 18
-122 37 -153 57 -25 17 -56 46 -68 65 -16 23 -23 49 -23 81 0 25 7 97 15 160
8 62 22 154 31 203 10 60 13 113 8 156 -3 36 -15 91 -25 121 -10 30 -25 86
-34 123 -8 38 -26 87 -39 110 -13 23 -36 81 -50 128 -24 80 -32 93 -109 180
-46 52 -94 110 -107 129 -13 19 -49 64 -80 100 -30 35 -103 113 -162 172 -59
59 -136 129 -170 156 -35 26 -76 56 -91 66 -15 9 -62 26 -104 37 -45 11 -107
19 -152 18 -42 0 -106 -7 -142 -15z m231 -342 c69 -22 92 -35 122 -67 21 -22
64 -69 95 -104 32 -35 91 -86 131 -113 40 -28 87 -71 106 -97 18 -25 51 -89
74 -141 22 -52 51 -126 65 -165 14 -38 38 -99 53 -135 24 -57 28 -81 32 -200
2 -74 5 -166 5 -205 1 -64 -2 -76 -37 -138 -21 -37 -46 -72 -56 -77 -10 -6
-36 -10 -58 -10 -21 0 -54 5 -73 12 -19 6 -47 22 -63 35 -16 14 -65 42 -109
65 -44 22 -115 64 -156 93 -42 30 -85 67 -95 83 -11 16 -41 44 -69 63 -27 18
-70 57 -96 85 -25 28 -75 97 -110 154 -35 56 -73 130 -84 164 -16 49 -20 94
-22 236 -3 141 0 193 16 268 10 51 25 105 34 121 8 16 32 43 52 60 21 18 52
36 68 40 17 5 44 7 60 4 17 -2 68 -17 115 -31z"/>
<path d="M11870 1423 c-19 -2 -84 -13 -143 -23 -83 -14 -117 -25 -143 -45 -19
-14 -41 -39 -49 -55 -8 -16 -15 -42 -15 -58 0 -15 7 -51 15 -80 10 -34 25 -58
44 -72 16 -11 61 -27 100 -36 45 -10 84 -27 107 -45 19 -15 51 -33 70 -39 21
-7 54 -9 81 -5 25 4 56 11 68 17 13 6 43 46 68 92 25 44 50 98 57 120 7 21 10
54 7 73 -4 19 -24 55 -49 85 -23 28 -57 57 -75 64 -18 8 -49 13 -70 12 -21 0
-54 -3 -73 -5z"/>
<path d="M5753 580 c-23 -5 -77 -29 -120 -53 -55 -31 -83 -54 -96 -78 -14 -26
-17 -49 -14 -95 2 -33 11 -70 18 -82 8 -13 32 -31 54 -42 22 -10 71 -24 109
-31 38 -6 89 -9 115 -6 25 3 68 16 95 28 45 20 61 21 175 17 90 -4 142 -1 180
9 30 7 70 23 88 34 19 12 45 37 58 57 15 22 25 51 25 73 0 22 -8 47 -21 63
-11 15 -38 35 -58 45 -20 11 -66 25 -102 31 -35 6 -89 18 -119 26 -36 9 -103
14 -200 13 -80 -1 -164 -5 -187 -9z"/>
</g>
</svg>
