<?xml version="1.0" encoding="UTF-8"?>
<svg version="1.1" xmlns="http://www.w3.org/2000/svg" width="236" height="115" >
<path d="M58.175,44.58c10.573-7.534,24.239-19.057,26.147-32.642C87-7.13,57.05,1.512,48.574,5.013 C37.38,9.636,27.996,16.976,19.393,25.377C11.607,32.98,3.625,42.208,0.597,52.894C-0.709,57.501-0.198,64.49,5.466,65.6 c6.13,1.201,13.022-1.138,18.79-2.951C43.525,56.589,62.08,47.252,79.61,37.317c3.898-2.209,43.158-24.792,31.254-30.821 c-5.625-2.849-13.184-0.63-18.694,1.29c-8.962,3.122-17.349,7.893-25.313,12.997c-8.88,5.69-17.256,12.288-24.65,19.816 c-5.116,5.209-11.68,12.481-12.372,20.125c-1.1,12.146,23.026,4.106,28.01,2.393c2.157-0.742,4.269-1.587,6.373-2.465 c4.196-1.75-0.477,2.168-1.569,3.229c-1.399,1.358-2.906,2.622-4.372,3.908c-6.488,5.692-13.068,11.28-19.711,16.789 c-6.015,4.989-12.051,10.129-18.589,14.431c-0.438,0.289-0.889,0.556-1.35,0.807c-1.145,0.625,0.454,1.074,0.568,0.99 c1.435-1.05,3.208-1.754,4.806-2.509c4.306-2.036,8.777-3.924,13.351-5.266c14.77-4.331,29.928-7.45,45.118-9.856 c34.225-5.421,69.879-6.71,104.28-2.066c9.189,1.241,22.267,2.788,28.776,10.33c6.342,7.349-2.996,16.944-8.057,21.807 c-1.299,1.249,1.517,1.673,2.414,0.812c4.673-4.491,10.187-10.194,10.638-17.057c0.341-5.19-3.777-8.877-7.911-11.193 c-7.077-3.964-15.637-5.374-23.549-6.566c-12.705-1.917-25.63-2.424-38.458-2.716c-27.052-0.616-54.039,1.825-80.625,6.791 c-13.361,2.496-27.204,5.215-39.917,10.185c-0.962,0.376-16.035,7.03-13.676,8.317c3.056,1.667,8.144-3.342,10.232-4.903 C39.458,87.312,51.9,76.78,63.711,65.933c0.913-0.839,6.733-5.243,5.311-7.27c-1.263-1.799-4.569-0.223-6.071,0.34 c-5.69,2.133-11.265,4.208-17.252,5.418c-6.321,1.278-15.319,1.438-12.094-7.507c3.316-9.196,11.871-16.843,19.088-23.002 c8.549-7.297,18.044-13.579,27.978-18.817c7.238-3.817,16.016-8.28,24.443-7.667c13.675,0.995-5.367,14.508-8.898,17.002 c-9.283,6.556-19.213,12.175-29.275,17.433c-9.549,4.99-19.313,9.588-29.27,13.707c-8.281,3.425-17.048,6.917-26.001,8.057 c-2.117,0.27-5.301,0.624-6.975-1.056c-3.176-3.19-1.558-9.185-0.229-12.749C9.179,37.178,20.73,26.426,30.822,18.017 c8.542-7.118,19.033-12.254,29.802-14.93C67.23,1.445,79.351-0.098,81.323,8.82c1.894,8.56-6.557,17.623-11.912,23.162 c-4.001,4.139-8.451,7.984-13.144,11.328C54.662,44.454,57.042,45.386,58.175,44.58L58.175,44.58z"/>
<path d="M34.737,91.679C49.248,81.671,64.12,72.079,79.426,63.334c4.733-2.704,9.541-5.286,14.487-7.58 c3.663-1.698,8.419-4.111,12.597-3.51c2.838,0.408-5.865,8.185-6.648,8.85c-3.647,3.097-7.579,5.877-11.109,9.108 c-1.27,1.162,1.594,1.257,2.348,0.567c4.005-3.665,8.471-6.818,12.58-10.367c1.853-1.6,7.284-5.531,6.393-8.608 c-1.691-5.837-20.823,4.299-23.093,5.462c-18.812,9.638-36.684,21.461-54.071,33.451C31.289,91.825,33.761,92.352,34.737,91.679 L34.737,91.679z"/>
<path d="M124.622,54.955c5.475-0.806,10.94-1.802,16.334-3.039c4.271-0.98,12.344-1.943,15.143-5.913 c1.116-1.583-1.403-2.473-2.46-2.618c-2.755-0.377-5.756,0.616-8.292,1.57c-4.647,1.747-15.871,8.943-13.035,15.274 c2.187,4.882,16.474-1.309,19.23-2.345c12.007-4.512,23.354-10.739,34.792-16.496c1.515-0.762,3.034-1.563,4.608-2.198 c-1.733,0.699-0.829-0.481-1.747,0.23c-0.428,0.332-0.876,0.637-1.318,0.949c-2.736,1.926-5.51,3.799-8.229,5.752 c-4.944,3.553-12.317,7.794-14.961,13.575c-1.548,3.386,4.037,1.683,5.334,1.248c5.837-1.958,11.335-5.331,16.677-8.328 c7.063-3.963,14.014-8.124,21.031-12.167c2.572-1.482,5.152-2.96,7.796-4.312c0.747-0.382,1.506-0.76,2.294-1.049 c-1.467,0.539-0.751-0.299-1.364,0.781c-2.02,3.566-5.249,6.667-7.948,9.702c-4.87,5.477-9.879,10.829-14.904,16.162 c-11.627,12.34-23.44,24.507-35.369,36.555c-5.267,5.319-10.488,10.736-16.027,15.776c0.872-0.082,1.744-0.163,2.616-0.244 c9.321-10.587,19.375-20.589,29.688-30.2c8.822-8.222,18.014-16.064,27.708-23.242c9.773-7.236,20.489-14.241,32.232-17.761 c1.661-0.498,1.451-1.347-0.227-0.845c-22.445,6.728-41.738,23.401-58.779,38.83c-11.632,10.531-22.865,21.679-33.239,33.462 c-0.606,0.688,2.178,0.154,2.616-0.244c21.239-19.327,40.936-40.853,60.374-61.958c3.844-4.174,7.673-8.373,11.29-12.746 c0.304-0.369,4.13-4.708,2.846-5.037c-2.685-0.688-6.893,2.444-9.028,3.617c-6.666,3.66-13.175,7.606-19.757,11.412 c-5.472,3.165-10.968,6.317-16.643,9.106c-2.442,1.201-9.223,4.511-5.243-0.879c3.908-5.292,10.428-9.233,15.723-12.958 c1.073-0.755,8.268-4.5,8.202-6.068c-0.007-0.176-0.421-0.182-0.504-0.185c-1.891-0.08-3.969,1.236-5.584,2.021 c-6.058,2.943-12.017,6.093-18.06,9.067c-7.162,3.525-14.392,6.935-21.951,9.525c-5.117,1.754-14.502,3.887-10.319-4.452 c2.311-4.605,10.908-11.897,16.469-9.454c3.804,1.671-6.466,4.877-7.157,5.068c-6.632,1.836-13.499,3.03-20.305,4.032 C124.026,54.103,122.577,55.256,124.622,54.955L124.622,54.955z"/>
<path d="M205.357,70.286c1.202,0.559,2.391,1.151,3.558,1.779c0.74,0.398,1.467,0.822,2.155,1.306 c0.346,0.244,0.608,0.594,1.053,0.655c1.014,0.14,1.464-0.651,1.222-1.503c-0.468-1.648-0.261-3.043,1.555-3.675 c1.157-0.403,0.81-1.802-0.372-1.391c-1.467,0.51-3.003,1.372-3.315,3.042c-0.164,0.88,0.395,2.341,0.287,2.85 c0.265-0.253,0.529-0.507,0.794-0.76c0.616-0.227,1.017,0.269,0.468-0.204c-0.224-0.192-0.481-0.351-0.727-0.513 c-0.699-0.461-1.447-0.858-2.187-1.249c-1.116-0.589-2.245-1.155-3.389-1.688C205.616,68.543,204.23,69.761,205.357,70.286 L205.357,70.286z"/>
</svg>