<?xml version="1.0" encoding="UTF-8" standalone="no"?>
<!-- Created with Inkscape (http://www.inkscape.org/) -->

<svg
   xmlns:dc="http://purl.org/dc/elements/1.1/"
   xmlns:cc="http://creativecommons.org/ns#"
   xmlns:rdf="http://www.w3.org/1999/02/22-rdf-syntax-ns#"
   xmlns:svg="http://www.w3.org/2000/svg"
   xmlns="http://www.w3.org/2000/svg"
   version="1.1"
   width="300"
   height="83.99913"
   viewBox="0 0 300 83.999132"
   id="svg7609">
  <defs
     id="defs7611" />
  <metadata
     id="metadata7614">
    <rdf:RDF>
      <cc:Work
         rdf:about="">
        <dc:format>image/svg+xml</dc:format>
        <dc:type
           rdf:resource="http://purl.org/dc/dcmitype/StillImage" />
        <dc:title></dc:title>
      </cc:Work>
    </rdf:RDF>
  </metadata>
  <g
     transform="translate(-323.35321,-462.82402)"
     id="layer1">
    <path
       d="m 431.39516,545.80939 c -1.25453,-1.25453 -1.32392,-6.71214 -0.14986,-11.79979 1.99876,-8.6625 13.76164,-30.45143 23.6482,-43.80464 6.15776,-8.31696 7.11195,-9.14246 8.55619,-7.4023 0.87709,1.05684 0.87212,1.8763 -0.0261,4.14944 -1.21718,3.08319 -5.38192,10.5493 -10.0641,18.04178 -3.88821,6.22197 -3.87692,8.46183 0.0508,10.10298 4.16907,1.74194 5.96276,1.58647 8.05156,-0.69794 2.36893,-2.59076 4.01918,-5.95399 7.20562,-14.68499 1.4522,-3.97919 3.9303,-9.40946 5.50687,-12.06732 1.57656,-2.65782 3.77747,-7.08854 4.89091,-9.84604 3.67213,-9.09439 11.40338,-15.44213 11.40338,-9.36273 0,3.09261 -3.48585,12.34375 -7.38694,19.60417 -2.05987,3.83373 -4.23203,8.53877 -4.82704,10.45564 -0.59501,1.91686 -2.55004,7.40607 -4.34455,12.19823 -2.43939,6.51424 -3.5067,11.07537 -4.22945,18.07416 -1.17547,11.38285 -2.65718,15.471 -5.60727,15.471 -1.1482,0 -2.79104,-0.77723 -3.65073,-1.72718 -1.36007,-1.50282 -1.48415,-2.69979 -0.95544,-9.21589 0.72751,-8.96614 0.18646,-9.96819 -5.38108,-9.96819 -5.46141,0 -10.60434,1.70696 -12.12214,4.02344 -0.70367,1.07391 -1.83424,5.13096 -2.51244,9.0156 -0.67816,3.88468 -1.64522,7.83325 -2.14901,8.7746 -1.02006,1.90598 -4.29868,2.27553 -5.90824,0.66597 z M 330.4608,544.29306 c -4.0727,-1.74101 -6.02294,-7.42681 -3.31752,-9.67213 1.11629,-0.9264 2.13769,-0.79399 5.89814,0.76463 5.35883,2.22112 6.97583,2.3366 8.41612,0.60117 0.58604,-0.70614 2.49646,-1.53294 4.24537,-1.83732 7.21505,-1.25566 22.18104,-11.88265 27.01759,-19.18446 3.03346,-4.57971 3.12806,-4.95992 1.83505,-7.3759 -1.72617,-3.22542 -8.69866,-1.93444 -25.23714,4.6728 -12.14466,4.85191 -17.47668,5.70619 -21.77322,3.48849 -3.86557,-1.99525 -5.17156,-5.36641 -3.44063,-8.88128 1.68971,-3.43121 18.7213,-19.18725 22.40375,-20.72585 1.61879,-0.67639 6.73616,-3.69848 11.37192,-6.7158 13.61951,-8.86466 19.00823,-11.86101 21.33124,-11.86101 1.20138,0 4.21728,-1.05472 6.70194,-2.34381 3.86005,-2.00266 5.62737,-2.35144 12.14196,-2.39608 8.33947,-0.0572 10.51166,0.85431 10.51166,4.41091 0,1.13937 -0.29407,2.10864 -0.65348,2.15398 -0.35941,0.0453 -3.20204,0.19982 -6.31695,0.3437 -7.09403,0.32732 -15.72176,3.03129 -22.28743,6.98491 -2.78085,1.67456 -5.70692,3.04462 -6.50236,3.04462 -5.1092,0 -35.68664,22.17896 -35.68664,25.88484 0,2.33753 7.87181,0.93973 16.22502,-2.88108 5.4687,-2.50145 15.39177,-4.7064 21.1805,-4.7064 7.5316,0 11.64113,5.65595 9.60463,13.21889 -0.82538,3.06527 -2.80626,5.49603 -10.87441,13.34409 -8.12676,7.9051 -11.5249,10.51616 -19.28379,14.81729 -8.72197,4.835 -9.87081,5.23702 -15.53138,5.4351 -3.36201,0.11762 -6.953,-0.14522 -7.97994,-0.5843 z m 183.21967,-4.46865 c -2.12394,-1.6707 -2.42861,-2.42214 -2.0631,-5.0887 0.67358,-4.91412 4.79528,-12.70025 9.67199,-18.27105 2.45733,-2.80707 5.5459,-7.01782 6.86348,-9.35715 3.53058,-6.26853 20.98867,-26.47157 22.87495,-26.47157 3.6401,0 1.50904,4.89806 -7.32742,16.84141 -8.8193,11.92018 -21.08527,31.25973 -20.79594,32.78863 0.43873,2.31834 4.96338,2.01492 12.96165,-0.86912 7.95613,-2.86885 10.36679,-2.91303 10.36679,-0.18994 0,2.43398 -6.49402,6.09781 -16.01995,9.03819 -12.23994,3.77812 -13.57501,3.90565 -16.53245,1.57936 z m -105.5491,-0.39464 c -0.47921,-0.15045 -2.38542,-0.52798 -4.23604,-0.83857 -7.36483,-1.23615 -9.42543,-7.50689 -5.72065,-17.40881 2.31935,-6.19906 19.45413,-25.09578 25.97295,-28.64379 4.62334,-2.51632 9.75906,-3.02446 11.33812,-1.1218 1.73053,2.08511 0.0842,3.9098 -4.81186,5.33313 -3.78148,1.09929 -6.07065,2.63726 -11.25386,7.56082 -8.73928,8.30148 -13.46691,15.42444 -13.46691,20.29023 0,7.50766 5.73604,8.72999 13.91151,2.96449 7.82174,-5.51605 11.13992,-2.71896 4.39087,3.70129 -5.42142,5.15724 -13.18389,9.08711 -16.12413,8.16301 z m 73.52756,-0.85188 c -3.5658,-1.93798 -4.68142,-5.62957 -3.4916,-11.55405 1.20937,-6.02192 10.12977,-24.79379 13.77457,-28.98682 1.44599,-1.66352 3.67162,-4.69095 4.94578,-6.72762 1.72875,-2.76325 2.87367,-3.70304 4.51137,-3.70304 3.73702,0 3.36887,2.24076 -1.60462,9.76603 -8.03364,12.15554 -11.93885,21.55298 -11.93885,28.72944 0,2.62587 0.33133,3.32707 1.57204,3.32707 7.78558,0 24.40664,-22.70029 31.57926,-43.12949 3.63734,-10.35994 4.53246,-11.4204 7.30204,-8.65079 2.02648,2.02647 1.67918,5.64682 -1.24875,13.01747 -6.02901,15.17716 -15.10941,29.46711 -25.31294,39.83535 -8.7909,8.9328 -14.37894,11.17945 -20.0883,8.07645 z m 84.67661,-10.05271 c -6.90505,-1.00206 -12.66793,-3.97146 -14.57298,-7.50892 -1.44979,-2.69209 -1.47418,-3.17029 -0.27126,-5.31361 0.85065,-1.51554 2.86705,-2.92563 5.65563,-3.95499 2.3835,-0.87984 5.50991,-2.71004 6.94756,-4.06712 1.43765,-1.35709 4.67236,-3.718 7.18825,-5.24644 4.5006,-2.73417 5.68406,-4.63112 3.42913,-5.49644 -0.62987,-0.24164 -4.09147,0.1763 -7.69242,0.92861 -7.20184,1.50486 -9.45973,1.14695 -9.45973,-1.49945 0,-2.64467 3.5663,-4.46552 13.19176,-6.73526 4.7971,-1.13119 10.28689,-2.85506 12.19954,-3.83083 2.27695,-1.16159 4.73606,-1.6826 7.12267,-1.50901 3.26559,0.23758 3.67417,0.51837 3.92432,2.69767 0.59426,5.17725 -5.50132,12.31043 -19.56435,22.89456 -7.07297,5.32328 -8.06699,6.66712 -6.4091,8.66475 1.30158,1.56832 7.32173,1.6822 20.15628,0.38126 12.67975,-1.28526 19.37479,-2.96031 26.67776,-6.67465 5.75896,-2.92903 6.45106,-3.09492 7.70022,-1.84576 2.05602,2.05601 0.20882,4.34361 -6.56997,8.13698 -8.32315,4.65752 -21.69782,8.87093 -31.60224,9.95571 -9.34347,1.02334 -11.14173,1.02561 -18.05119,0.0232 z"
       id="path7598"
       style="fill:#000000" />
  </g>
</svg>
