<?xml version="1.0" encoding="UTF-8"?>
<svg version="1.1" xmlns="http://www.w3.org/2000/svg" width="126" height="39" >
<path d="M20.584,13.419c0.334,1.093,0.547,4.809,1.26,5.411c0.301,0.254,1.296,0.042,1.397-0.375 c1.172-4.809-1.543-11.812-5.81-14.194C10.683,0.493,3.877,7.065,1.77,12.836c-2.886,7.903-3.075,19.739,5.877,23.51 c7.96,3.353,16.234-2.95,20.663-8.963c0.357-0.485-1.086-0.322-1.336,0.018c-5.042,6.847-14.466,12.75-21.987,5.838 c-5.021-4.615-3.591-13.623-2.136-19.426c0.848-3.385,2.642-6.559,5.618-8.477c4.635-2.989,9.479-0.41,11.626,3.764 c1.256,2.443,2.381,6.784,1.704,9.563c0.466-0.125,0.932-0.25,1.397-0.374c-0.585-0.495-0.863-4.276-1.163-5.258 C21.896,12.581,20.452,12.986,20.584,13.419L20.584,13.419z"/>
<path d="M29.592,1.511c-2.204,3.468-1.917,9.486-2.109,13.348c-0.26,5.212-0.168,10.441-0.279,15.658 c-0.044,2.088,0.318,6.02-1.458,7.628c0.459-0.053,0.917-0.106,1.376-0.159c0.509-1.002,1.239-1.863,1.982-2.698 c2.299-2.584,1.813,2.33,1.487,3.056c-0.127,0.285,1.259,0.148,1.434-0.24c0.654-1.459,1.224-4.786-1.423-4.343 c-2.245,0.376-3.94,2.55-4.913,4.464c-0.185,0.364,1.212-0.011,1.376-0.159c3.239-2.936,1.65-12.63,1.694-16.246 c0.066-5.504,0.143-11.038,1.069-16.478c0.222-1.301,0.468-2.926,1.197-4.072C31.161,1.059,29.827,1.141,29.592,1.511 L29.592,1.511z"/>
<path d="M45.367,32.864c-0.239-1.798-3.083-1.969-4.396-1.617c-2.209,0.592-4.049,2.553-3.967,4.941 c0.084,2.444,3.331,1.467,4.649,0.895c1.014-0.439,2.08-1.153,2.757-2.038c0.196-0.255,1.039-1.537,0.569-1.88 c-0.313-0.229-1.187,0.106-1.397,0.375c-0.317,0.404-0.198,1.39-0.162,1.85c0.072,0.907,0.49,1.541,1.416,1.623 c0.296,0.026,1.659-0.509,0.944-0.572c-0.995-0.089-1.29-2.502-0.771-3.163c-0.466,0.125-0.932,0.25-1.397,0.375 c0.137,0.1-0.161,0.904-0.205,1.009c-0.302,0.71-1.002,1.271-1.614,1.703c-1.352,0.955-3.276,1.3-3.349-0.819 c-0.062-1.783,1.554-4.021,3.45-3.821c0.825,0.087,1.9,0.599,2.023,1.53C43.953,33.52,45.414,33.224,45.367,32.864L45.367,32.864 z"/>
<path d="M49.367,37.031c-0.518-2.911,8.428-6.977,10.653-8.499c4.14-2.83,8.44-6.21,11.413-10.292 c2.289-3.142,4.422-7.358,2.442-11.179c-1.438-2.776-5.818-2.832-8.44-2.924c-6.532-0.229-10.024,2.667-11.536,9.157 c-1.343,5.766-0.702,12.182-0.432,18.05c0.09,1.96,0.067,4.164,0.617,6.074c0.169,0.587,1.616,0.192,1.449-0.389 c-1.603-5.568-0.892-12.438-0.801-18.12c0.067-4.157,0.682-9.02,3.635-12.181c2.462-2.634,7.75-1.865,10.9-1.203 c5.998,1.261,3.793,8.125,1.483,11.679c-2.861,4.402-7.437,7.801-11.66,10.785c-2.726,1.926-11.95,5.059-11.174,9.428 C48.021,38.001,49.475,37.641,49.367,37.031L49.367,37.031z"/>
<path d="M58.751,33.752c0.125,4.032,6.275-2.76,7-1.667c-0.133-0.201-2.249,1.192-1.688,2.257 c0.54,1.025,2.538,0.954,3.473,0.917c1.191-0.047,2.635-0.455,3.58-1.204c0.927-0.734,2.367-2.796,1.092-3.884 c-1.798-1.533-5.724-0.618-7.386,0.778c-0.303,0.254,1.047,0.103,1.31-0.117c1.114-0.935,3.217-1.09,4.461-0.383 c0.691,0.393,0.632,1.259,0.504,1.905c-0.268,1.354-1.614,2.189-2.929,2.335c-1.136,0.126-2.966-0.144-2.725-1.618 c0.103-0.629,1.424-0.502,1.717-1.061c0.59-1.127-2.4-0.175-2.615-0.093c-1.123,0.426-2.186,1.039-3.203,1.669 c-0.784,0.486-1.104,0.983-1.141-0.224C60.193,33.127,58.739,33.353,58.751,33.752L58.751,33.752z"/>
<path d="M112.524,7.597c1.383-3.997-1.232-6.637-5.021-7.361c-5.067-0.968-10.688,1.063-12.969,5.813 c-5.935,12.358,17.563,14.839,17.999,4.482c0.278-6.605-11.614-4.918-15.119-4.031c-7.907,2.001-13.673,7.755-16.531,15.235 c-1.464,3.832-3.774,13.654,2.166,14.825c3.006,0.593,9.329-2.695,10.141-5.63c0.026-0.098-0.031-0.127-0.119-0.152 c-2.729-0.764-6.123,6.653-3.482,6.75c6.686,0.243,8.137-10.993,7.924-15.521c-0.073-1.555-0.733-3.219-2.472-2.4 c-2.821,1.328-2.713,6.407-2.79,8.98c-0.043,1.449-0.241,8.225,2.452,8.323c1.13,0.041,1.907-0.568,2.154-1.645 c0.072-0.319-1.348-0.102-1.43,0.256c-0.455,1.989-1.287-2.18-1.431-2.914c-0.689-3.54-0.409-7.541,0.683-10.95 c0.319-0.997,0.879-1.485,1.237-0.271c0.604,2.047,0.121,4.851-0.197,6.834c-0.464,2.889-1.826,5.707-3.844,7.816 c-2.565,2.68-1.432-1.712-1.182-2.236c0.362-0.761,2.226-3.752,0.466-1.704c-1.984,2.309-7.329,5.773-9.5,2.211 c-2.547-4.178-0.176-11.042,1.554-15.039c3.793-8.766,13.951-14.813,23.489-12.68c3.018,0.675,4.911,3.02,4.131,6.093 c-1.324,5.215-10.327,4.154-13.562,1.714c-1.608-1.213-1.982-3.547-2.01-5.401c-0.077-5.25,4.756-8.327,9.887-8.299 c4.175,0.022,7.385,3.002,5.945,7.159C111,8.126,112.396,7.965,112.524,7.597L112.524,7.597z"/>
<path d="M100.979,32.263c-0.488-0.707-1.369-0.721-2-0.176c-0.618,0.534-0.4,1.909-0.384,2.588 c0.016,0.701-0.046,1.681,0.372,2.293c0.276,0.406,1.099,0.125,1.366-0.122c0.483-0.449,0.583-1.268,1.016-1.798 c0.346-0.424,2.92-2.099,2.719-0.774c-0.09,0.583-0.441,1.034-0.395,1.649c0.087,1.161,2.188,0.97,2.918,0.776 c1.07-0.285,2.033-0.986,2.688-1.867c0.501-0.673,0.649-1.592,0-2.213c-1.129-1.079-3.334-0.805-4.717-0.672 c-0.744,0.071-1.175,0.983-0.176,0.888c0.899-0.086,4.652-0.41,3.745,1.568c-0.287,0.625-2.604,2.556-3.011,1.132 c-0.165-0.581,0.543-1.192,0.42-1.808c-0.155-0.777-1.157-0.825-1.786-0.815c-1.05,0.018-2.122,0.505-2.911,1.182 c-0.428,0.367-0.79,0.77-1.119,1.226c-0.22,0.304-0.319,0.991-0.57,1.225c0.226-0.099,0.451-0.196,0.677-0.294 c0.381,0.17,0.511,0.132,0.389-0.115c-0.064-0.224-0.082-0.467-0.109-0.697c-0.085-0.728-0.081-1.468-0.065-2.2 c0.008-0.204,0.029-0.405,0.065-0.605c0.083-0.562-0.733-0.073-0.66-0.006c0.072,0.065,0.134,0.146,0.188,0.226 C99.948,33.301,101.348,32.797,100.979,32.263L100.979,32.263z"/>
<path d="M99.997,26.789c0.063-0.101-0.091,0.11,0.024-0.025c-0.203,0.144-0.447,0.165-0.733,0.064 c0.064,0.075,0.107,0.161,0.13,0.258c0.235,0.615,1.674,0.201,1.449-0.389c-0.22-0.574-0.646-0.936-1.297-0.753 c-0.408,0.114-0.726,0.36-0.948,0.717c-0.192,0.309,0.165,0.534,0.428,0.558C99.408,27.253,99.803,27.1,99.997,26.789 L99.997,26.789z"/>
<path d="M112.875,35.167c0.564-2.015,4.563-2.23,3.742-0.021c0.451-0.079,0.903-0.159,1.355-0.238 c-0.989-1.285-0.619-3.19-0.17-4.586c0.574-1.782,3.673-5.504,4.922-2.197c1.027,2.723-0.873,6.345-3.714,6.945 c0.203,0.271,0.406,0.542,0.609,0.812c1.148-0.726,3.028-1.635,4.19-0.34c0.434,0.483,1.811-0.096,1.328-0.634 c-1.75-1.95-4.572-0.876-6.476,0.326c-0.699,0.442,0.098,0.92,0.609,0.812c1.632-0.344,3.064-1.43,4.009-2.771 c1.343-1.907,1.921-5.99-0.516-7.296c-4.444-2.382-8.592,6.351-6.121,9.563c0.302,0.391,1.188,0.214,1.355-0.238 c0.752-2.025-1.199-2.891-2.898-2.957c-1.765-0.068-3.238,1.311-3.693,2.935C111.218,35.963,112.701,35.79,112.875,35.167 L112.875,35.167z"/>
</svg>