<?xml version="1.0" encoding="UTF-8"?>
<svg version="1.0" xmlns="http://www.w3.org/2000/svg" width="297" height="106" >
<path fill="#231F20" d="M39.554,47.935c-1.506,5.012-3.083,10.002-4.716,14.973c-1.121,3.413-2.285,6.813-3.554,10.173 c-0.479,1.268-0.989,2.523-1.575,3.746c-0.69,1.439,1.115,2.869,1.585,1.603c1.756-4.722,5.395-9.189,8.077-13.402 c4.617-7.254,9.226-14.513,13.606-21.914c4.234-7.154,8.353-14.474,11.54-22.165c2.026-4.891,4.351-10.619,3.263-16.014 c-1.792-8.891-15.097,2.002-17.818,4.258C38.1,19.025,27.991,31.413,19.363,44.115C12.689,53.941,3.632,67.713,5.301,80.281 c0.794,5.979,5.17,11.318,10.811,13.315c7.696,2.725,16.738-1.833,23.254-5.523c11.643-6.592,21.889-15.833,31.621-24.906 c10.352-9.651,20.193-19.855,28.427-31.398c3.344-4.687,9.259-12.189,8.756-18.451c-0.407-5.079-6.33-1.838-8.503-0.282 c-7.783,5.578-14.081,13.596-19.964,21.048c-6.898,8.737-13.222,17.926-19.241,27.285c-5.323,8.278-10.383,16.754-14.903,25.499 c-1.776,3.437-5.606,9.142-5.022,13.28c0.501,3.553,4.312,0.022,5.246-1.039c3.597-4.086,6.667-8.688,9.801-13.126 c4.955-7.019,9.467-15.225,15.553-21.345c0.648-0.652-1.881,0.412-1.603-1.35c-0.083,0.529-0.299,1.049-0.481,1.549 c-1.724,4.749-3.866,9.366-5.915,13.981c-1.68,3.783-3.409,7.543-5.046,11.345c-0.624,1.448-1.809,3.383-1.487,5.034 c0.092,0.474,0.575,0.955,1.048,1.047c1.789,0.353,2.851-1.839,3.705-3.044c2.267-3.2,4.563-6.377,6.904-9.523 c6.182-8.305,12.758-17.225,21.029-23.592c1.117-0.86,2.377-1.716,3.706-2.212c-0.279,0.104-0.46-2.281-1.545-0.876 c-1.368,1.769-2.99,3.362-4.541,4.968c-4.941,5.116-10.013,10.103-14.816,15.352c-3.401,3.717-7.341,7.778-9.213,12.545 c-1.411,3.593,1.876,5.893,5.173,4.622c5.479-2.112,9.474-8.886,12.617-13.481c2.99-4.371,5.756-8.929,8.292-13.579 c0.941-1.726-1.483-3.066-2.591-1.514c-4.461,6.256-8.817,12.654-12.579,19.358c-1.049,1.87-3.504,5.477-2.572,7.797 c0.851,2.118,2.95,1.024,4.195,0.005c5.985-4.902,10.381-12.217,15.37-18.079c0.967-1.136,1.958-2.26,3.055-3.271 c0.926-0.853-1.112-1.607-1.189-1.174c-0.24,1.345-0.801,2.688-1.237,3.978c-1.04,3.078-2.281,6.087-3.444,9.119 c-0.442,1.152-1.246,2.665-0.916,3.942c0.219,0.848,1.051,1.185,1.845,1.047c1.662-0.287,2.761-2.994,3.751-4.192 c1.934-2.337,4.069-4.517,6.169-6.703c6.16-6.414,12.483-12.67,18.723-19.005c6.223-6.318,12.439-12.664,18.272-19.348 c1.942-2.226,7.336-7.107,7.021-10.493c-0.342-3.656-4.652-0.243-5.827,0.708c-4.751,3.848-9.009,8.379-13.205,12.809 c-10.128,10.692-21.147,22.456-27.648,35.824c-1.369,2.816-3.016,6.906-1.348,9.96c1.902,3.483,5.914,1.763,8.529,0.174 c7.893-4.795,14.49-12.637,20.391-19.642c-0.785-0.606-1.57-1.212-2.356-1.817c-2.123,3.867-4.146,7.793-6.053,11.771 c-0.973,2.031-5.281,8.964-2.994,11.188c4.408,4.288,19.97-20.218,22.304-23.779c1.068-1.629-1.51-3.097-2.59-1.514 c-5.853,8.576-6.274,19.569,4.563,23.87c1.8,0.714,2.573-2.188,0.797-2.893c-9.041-3.588-7.309-12.813-2.771-19.463 c-0.863-0.504-1.727-1.009-2.59-1.514c-2.22,3.387-4.571,6.688-6.979,9.942c-2.18,2.946-4.476,5.801-6.908,8.542 c-0.994,1.121-2.051,2.18-3.136,3.212c-0.399,0.39-0.824,0.749-1.275,1.075c1.48-1.059,0.735,2.225,1.14,0.329 c1.421-6.66,5.826-13.325,9.081-19.254c0.792-1.444-1.223-3.163-2.356-1.817c-2.292,2.72-21.216,24.088-24.009,20.439 c-2.71-3.542,3.53-11.751,5.29-14.445c4.483-6.862,9.771-13.208,15.146-19.381c4.98-5.72,10.182-11.263,15.629-16.541 c1.767-1.711,3.574-3.386,5.469-4.956c0.571-0.473,1.163-0.916,1.79-1.312c1.01-0.637-0.844-1.949-1.215-1.168 c-2.722,5.722-8.284,10.663-12.545,15.214c-6.462,6.904-13.15,13.595-19.806,20.312c-4.16,4.197-8.327,8.388-12.398,12.67 c-1.395,1.467-2.77,2.954-4.093,4.486c-0.714,0.827-2.869,3.833-2.762,3.815c0.615,0.349,1.23,0.698,1.845,1.047 c0.005,0.021,1.295-3.334,1.678-4.318c1.23-3.169,2.448-6.336,3.48-9.576c0.522-1.639,1.21-4.147-1.228-4.435 c-1.763-0.208-3.829,2.825-4.763,3.889c-2.715,3.095-5.245,6.355-7.836,9.553c-2.331,2.877-4.652,5.809-7.291,8.414 c-0.31,0.306-0.635,0.606-0.986,0.865c-0.405,0.298,0.836,1.61,1.202,0.241c0.506-1.898,1.655-3.704,2.608-5.401 c3.615-6.443,7.863-12.583,12.15-18.595c-0.864-0.504-1.727-1.009-2.591-1.514c-2.538,4.654-5.332,9.181-8.291,13.578 c-2.181,3.24-4.522,6.384-7.226,9.209c-0.406,0.424-5.62,4.558-5.295,2.688c0.881-5.087,7.123-10.317,10.44-13.881 c4.714-5.064,9.676-9.888,14.449-14.896c1.132-1.188,6.421-5.667,3.677-7.521C90.686,52.764,83,61.571,81.176,63.425 c-6.976,7.092-12.975,15.202-18.813,23.234c-1.067,1.468-2.12,2.946-3.171,4.425c-0.425,0.599-0.85,1.198-1.28,1.792 c-0.861,1.189,1.362,2.808,1.687,1.595c1.177-4.39,3.684-8.674,5.534-12.807c2.31-5.16,4.566-10.343,6.647-15.6 c0.412-1.041,1.138-2.604,0.495-3.701c-1.656-2.826-4.876,1.983-5.72,3.078c-7.428,9.627-13.783,20.046-21.299,29.608 c-0.943,1.2-1.938,2.633-3.167,3.566c-0.312,0.237,1.248,1.577,1.473,0.461c0.227-1.122,0.674-2.209,1.091-3.27 c3-7.624,7.389-14.825,11.552-21.85c11.21-18.914,23.792-38.026,39.501-53.532c2.543-2.51,5.54-5.655,9.01-6.849 c1.487-0.511-0.988,5.131-1.414,6.03c-5.182,10.938-13.716,20.491-21.957,29.189C70.68,60.056,58.994,70.788,46.429,79.898 c-7.693,5.579-18.626,13.198-28.713,11.032c-7.269-1.561-10.297-9.677-9.357-16.286c0.965-6.78,4.198-13.216,7.478-19.135 c7.917-14.288,18.551-27.388,30.236-38.759c4.201-4.087,8.713-8.189,13.915-10.968c3.85-2.057,5.357-1.184,4.997,3.226 c-0.58,7.103-4.595,14.234-7.799,20.426C53.064,37.4,48.381,45.075,43.637,52.68c-3.93,6.301-8.006,12.51-11.892,18.838 c-0.947,1.542-4.814,6.315-3.289,8.352c2.722,3.635,5.52-5.459,5.999-6.729c2.57-6.803,4.72-13.775,6.866-20.721 c0.379-1.228,0.756-2.457,1.125-3.688C43.005,46.875,40.109,46.087,39.554,47.935L39.554,47.935 M142.758,49.295c0.733-0.384,1.489-0.728,2.259-1.031c0.661-0.262,1.338-0.479,2.03-0.644 c0.249-0.06,0.479-0.085,0.735-0.093c0.405-0.012-0.16-0.297-0.076-0.104c0.768,1.771,3.352,0.242,2.59-1.514 c-1.395-3.218-7.077-0.238-9.052,0.795C139.529,47.602,141.046,50.191,142.758,49.295L142.758,49.295 M186.501,55.333c0.084,2.902-0.095,9.986-2.092,11.198c0.734,0.299,1.469,0.598,2.203,0.896 c0.225,1.114-0.322,1.341,0.335,0.348c0.415-0.627,0.844-1.246,1.27-1.866c1.603-2.337,3.209-4.672,4.798-7.019 c4.465-6.593,8.798-13.277,12.858-20.127c3.677-6.201,7.28-12.63,9.589-19.486c1.222-3.627,2.112-8.324-1.364-11.005 c-3.812-2.939-9.212-1.005-13.075,0.764c-8.166,3.739-15.064,10.52-21.007,17.077c-8.996,9.928-16.304,21.468-22.271,33.425 c-3.041,6.093-7.833,15.256-5.268,22.284c4.342,11.893,25.492-2.869,30.538-6.372c6.997-4.856,13.197-10.763,20.125-15.665 c-0.677,0.479-0.949-2.72-1.985-0.375c-0.553,1.251-1.139,2.488-1.699,3.736c-1.901,4.238-3.728,8.573-4.804,13.101 c-0.878,3.695,0.503,8.71,4.974,5.531c2.383-1.695,4.048-4.465,5.337-7.021c0.507-1.005,4.365-8.879,3.259-4.156 c-0.399,1.706-0.729,3.208-0.383,4.934c1.27,6.319,13.862-6.143,15.366-7.125c2.688-1.756,4.193-1.845,2.927,1.716 c-0.988,2.78-2.411,5.428-3.766,8.042c-1.018,1.966-3.396,4.915-3.009,7.293c0.073,0.455,0.588,0.98,1.047,1.047 c3.576,0.525,10.21-9.163,12.393-11.598c6.549-7.309,13.037-14.671,19.524-22.035c9.715-11.029,19.405-22.08,29.074-33.149 c-0.785-0.606-1.57-1.212-2.355-1.817c-7.967,12.438-15.064,25.749-20.225,39.596c-1.566,4.203-2.826,8.526-3.557,12.955 c-0.743,4.504,0.471,10.932-2.787,14.553c-2.837,3.154-7.841-10.53-8.627-12.329c-3.079-7.054-6.404-14.004-9.121-21.211 c-0.896-2.376-1.951-4.976-2.101-7.538c-0.046-0.786-0.221-0.119,0.921,0.655c1.832,1.242,3.444,2.853,5.232,4.171 c8.488,6.257,18.751,10.395,28.75,13.528c7.167,2.246,16.1,4.832,23.644,3.001c0.188-0.059,0.376-0.118,0.563-0.178 c1.839-0.58,1.053-3.476-0.797-2.893c-8.089,2.55-18.768-1.477-26.381-4.052c-10.509-3.555-20.051-8.598-28.673-15.544 c-2.585-2.083-6.496-2.757-6.236,1.723c0.349,5.982,3.83,12.233,6.172,17.625c2.56,5.895,5.547,11.677,7.633,17.763 c1.231,3.595,4.942,9.935,9.646,8.358c2.396-0.803,3.309-3.748,3.88-5.915c1.287-4.888,0.847-10.08,1.994-15.032 c2.327-10.042,7.006-19.578,11.727-28.678c3.366-6.488,6.988-12.886,10.932-19.043c0.914-1.426-1.229-3.106-2.355-1.817 c-17.516,20.052-34.958,40.188-52.853,59.904c-1.453,1.601-2.919,3.188-4.43,4.734c-0.256,0.25-0.512,0.5-0.768,0.749 c-1.145,0.675-0.785,1.322,1.078,1.943c0.189-0.767,0.732-1.577,1.089-2.271c1.315-2.565,2.678-5.099,3.917-7.703 c1.054-2.214,4.103-7.385,2.349-9.851c-1.598-2.247-4.043-1.326-6.169-0.324c-3.901,1.838-7.224,5.047-10.407,7.88 c-4.056,3.608,0.131-5.146-2.684-6.795c-5.322-3.118-9.078,12.176-13.237,13.915c0.146-0.061,0.729-4.141,1.002-5.112 c0.8-2.847,1.984-5.606,3.143-8.322c1.022-2.397,2.305-4.725,3.164-7.187c0.426-1.223-0.239-2.352-1.533-2.458 c-1.539-0.127-3.614,2.293-4.623,3.13c-3.48,2.889-39.666,33.321-43.276,20.135c-0.98-3.581,0.797-8.016,1.982-11.326 c2.538-7.08,6.394-13.757,10.262-20.175c6.533-10.838,14.48-20.996,24.06-29.306c4.627-4.013,12.48-10.443,19.207-9.278 c5.748,0.996,1.842,9.421,0.554,12.463c-4.483,10.587-10.994,20.413-17.301,29.979c-2.487,3.773-5.039,7.505-7.599,11.23 c-0.778,1.131-2.793,3.12-2.48,4.665c0.191,0.95,1.416,1.375,2.203,0.896c3.729-2.263,3.688-10.032,3.578-13.789 C189.445,53.403,186.445,53.398,186.501,55.333L186.501,55.333 M241.113,25.268c-0.147-0.523-0.262-1.056-0.356-1.59c-0.059-0.326-0.033-0.175-0.056-0.38 c-0.028-0.251-0.038-0.504-0.038-0.757c0.002-0.092,0.007-0.184,0.015-0.276c-0.028,0.186-0.026,0.196,0.007,0.032 c0.053-0.165,0.041-0.143-0.035,0.065c-0.201,0.393-0.653,0.472-1.047,0.418c0.81,0.111,1.606-0.182,1.845-1.047 c0.195-0.708-0.235-1.734-1.048-1.845c-3.572-0.489-2.775,4.067-2.179,6.178C238.746,27.924,241.641,27.133,241.113,25.268 L241.113,25.268z"/>
</svg>