<?xml version="1.0" encoding="UTF-8" standalone="no"?>
<!-- Generator: Adobe Illustrator 13.0.2, SVG Export Plug-In . SVG Version: 6.00 Build 14948) -->
<svg xmlns:dc="http://purl.org/dc/elements/1.1/" xmlns:cc="http://creativecommons.org/ns#" xmlns:rdf="http://www.w3.org/1999/02/22-rdf-syntax-ns#" xmlns:svg="http://www.w3.org/2000/svg" xmlns="http://www.w3.org/2000/svg" xmlns:sodipodi="http://sodipodi.sourceforge.net/DTD/sodipodi-0.dtd" xmlns:inkscape="http://www.inkscape.org/namespaces/inkscape" version="1.0" id="Layer_1" x="0" y="0" width="499" height="111" sodipodi:version="0.32" inkscape:version="0.46" sodipodi:docname="Charles Tupper Signature.svg" inkscape:output_extension="org.inkscape.output.svg.inkscape">
<metadata id="metadata275">
<rdf:RDF>
<cc:Work rdf:about="">
<dc:format>
</dc:format>
<dc:type rdf:resource="http://purl.org/dc/dcmitype/StillImage"/>
</cc:Work>
</rdf:RDF>
</metadata>
<defs id="defs273">
<inkscape:perspective sodipodi:type="inkscape:persp3d" inkscape:vp_x="0 : 55.277 : 1" inkscape:vp_y="0 : 1000 : 0" inkscape:vp_z="498.75699 : 55.277 : 1" inkscape:persp3d-origin="249.37849 : 36.851334 : 1" id="perspective277"/>
</defs>
<sodipodi:namedview inkscape:window-height="1000" inkscape:window-width="1530" inkscape:pageshadow="2" inkscape:pageopacity="0.0" guidetolerance="10.0" gridtolerance="10.0" objecttolerance="10.0" borderopacity="1.0" bordercolor="#666666" pagecolor="#ffffff" id="base" showgrid="false" inkscape:zoom="1.0907115" inkscape:cx="249.37849" inkscape:cy="55.277" inkscape:window-x="-8" inkscape:window-y="-8" inkscape:current-layer="Layer_1"/>
<path fill-rule="evenodd" clip-rule="evenodd" d="M339.725,89.057c12.769-16.827,27.423-31.512,41.651-46.678 c0.318-3.528,2.864-4.527,3.246-7.984c-4.924,2.807-12.94,5.368-12.983,11.67c1.918-2.328,2.757-5.88,7.032-5.528 c-13.204,18.174-33.245,33.907-47.06,53.435c-4.473,2.906-8.303,6.542-10.277,12.283c3.954,1.531,5.903-3.602,8.654-6.142 c5.116-4.725,12.652-6.892,15.146-14.741C342.672,85.853,341.875,88.223,339.725,89.057z" id="path242"/>
<path fill-rule="evenodd" clip-rule="evenodd" d="M414.373,66.947c0.504,5.152-6.817,6.533-7.572,12.284 c2.232,6.121,14.906,3.885,18.932,1.228c12.481,11.797,27.413-6.49,37.866-12.283c2.036,0.758,2.789,2.974,4.326,4.3 c-1.941,3.323-5.785,4.485-6.492,9.213c6.238,3.943,13.604,0.102,19.475-3.686c3.716-2.397,7.873-5.372,9.195-8.599 c-7.174,1.3-12.345,10.119-22.178,10.44c0.848-3.336,4.561-3.42,4.868-7.369c-2.986-2.537-4.986-7.189-8.654-7.371 c-4.436-0.22-9.102,7.697-15.687,11.67c-5.13,3.094-10.766,7.033-17.851,4.299c2.618-6.464,16.014-9.066,11.359-17.811 c-8.871,0.983-11.25,9.338-15.688,15.354c-5.056,1.235-10.979,4.008-15.687,0.614c1.914-3.97,5.311-6.253,7.572-9.827 c0.315-3.224-2.566-2.819-3.245-4.914c-9.282,2.357-13.641,10.309-21.637,14.127c8.025-14.023,26.504-21.497,31.914-40.537 c-4.298,0.853-6.021,4.628-9.194,6.756c0.011,1.447-0.933,1.808-0.542,3.685c-13.743,18.791-32.315,32.097-45.438,51.592 c0.131,1.696,2.012,1.401,2.706,2.457C384.571,88.384,398.678,76.765,414.373,66.947z M441.419,65.104 c-1.414,5.15-3.813,9.183-9.196,9.827C433.483,69.606,436.817,66.635,441.419,65.104z" id="path244"/>
<path fill-rule="evenodd" clip-rule="evenodd" d="M102.259,56.505c-2.59,10.322-18.887,16.417-16.769,30.096 c11.062-0.747,18.668-5.419,24.882-11.67c-6.445,0.963-14.183,8.768-21.637,8.599c2.404-12.639,16.571-15.153,15.687-29.481 C92.031,57.38,82.039,63.438,71.426,68.79c10.35-17.319,26.309-28.271,37.865-44.222c-4.215,0.879-8.115,5.543-11.9,9.213 c-4.608,4.467-9.485,8.76-12.441,14.741c-9.793,7.139-17.278,18.39-25.964,28.253c-3.645,4.139-8.277,7.851-8.655,11.67 c0.419,0.228,0.899,0.767,1.623,0.613c4.566-0.965,11.754-11.015,17.31-14.74C80.297,66.916,90.634,61.968,102.259,56.505z" id="path246"/>
<path fill-rule="evenodd" clip-rule="evenodd" d="M129.846,73.703c0.145,2.838-3.886,6.225-3.246,11.669 c7.396,3.464,11.367-2.631,17.31-6.755c7.898-5.482,14.42-11.172,20.555-17.812c3.483,0.141,4.361,3.238,8.655,2.458 c-0.926-4.067-3.653-6.089-7.032-7.371c-10.364,10.547-21.177,20.585-35.16,27.024c-0.155-8.573,9.568-11.245,10.819-20.269 c-5.752-8.928-15.464,0.124-22.178,6.143c-5.409,4.849-10.113,10.211-10.277,16.582 C120.473,91.053,119.569,73.073,129.846,73.703z M115.241,84.144c-1.726-0.364-1.672,1.152-2.705,0 c5.506-10.751,14.946-20.277,25.423-23.339c-1.253,3.89-5.515,4.093-4.868,8.599C124.471,71.297,120.271,77.081,115.241,84.144z" id="path248"/>
<path fill-rule="evenodd" clip-rule="evenodd" d="M172.579,80.458c-2.068,1.099-4.947,2.913-7.032,0.614 c-0.976-8.683,6.067-8.261,7.573-14.126c-4.024,0.873-12.822,7.453-11.9,13.512C161.944,85.218,170.75,88.111,172.579,80.458z" id="path250"/>
<path fill-rule="evenodd" clip-rule="evenodd" d="M200.708,80.458c2.062,0.115,1.309,3.428,3.245,3.686 c15.338-0.396,22.09-10.54,34.079-14.74c0.768,3.544-3.564,6.591-4.868,9.827c-3.095,0.442-2.314-3.515-5.41-3.071 c-1.161,4.412,1.809,8.019,4.328,7.984c2.848-0.04,6.307-6.99,8.655-11.056c2.911-5.04,6.056-9.542,5.95-12.284 c-14.464,5.097-24.968,21.164-42.192,19.04c2.035-6.493,10.832-5.309,9.196-15.968c-7.861-3.488-11.08,6.964-12.982,14.126 c-5.007,3.145-11.02,4.738-18.392,3.686c5.36-20.125,23.166-29.377,31.374-44.223c-3.595-1.068-5.514,3.219-7.573,5.528 c-6.756,7.579-15.071,14.958-20.555,24.567c-2.394,3.833-7.456,6.757-7.573,11.671C177.715,90.663,195.467,83.78,200.708,80.458z M210.985,67.56c-0.807,3.384-2.783,5.439-5.95,6.143C205.702,70.236,207.273,65.656,210.985,67.56z" id="path252"/>
<path fill-rule="evenodd" clip-rule="evenodd" d="M351.084,21.497c-8.272-0.584-11.876,7.913-20.556,7.37 c-4.399-0.274-7.492-5.274-11.358-4.913c-1.252,0.117-5.399,2.735-6.49,3.685c-2.589,2.251-6.491,6.84-5.951,10.441 c5.303-2.782,6.903-9.767,12.982-11.669c3.354,2.334,7.454,3.82,13.522,3.071c-7.232,9.38-18.152,16.377-27.587,26.41 c-7.624,8.107-17.388,20.617-27.588,25.797c-1.652,0.839-5.912,1.473-8.654-0.615c-0.215-4.338,1.916-6.014,2.705-9.213 c3.645-0.69,4.667,3.231,7.031,0.615c-1.197-1.712-2.958-2.783-3.245-5.528c-7.419,1.756-13.361,22.463,1.623,17.812 C304.559,66.529,322.097,37.514,351.084,21.497z" id="path254"/>
<path fill-rule="evenodd" clip-rule="evenodd" d="M334.317,79.844c-2.659,0.805-4.229,1.234-7.033,0.614 c0.541-8.394,6.956-10.118,9.196-16.583c-3.38,0.191-13.884,10.696-12.982,16.583C324.202,85.062,331.911,85.333,334.317,79.844z " id="path258"/>
<path fill-rule="evenodd" clip-rule="evenodd" d="M310.515,80.458c-1.112-1.387-4.573,2.213-6.491,0 c2.095-8.268,9.456-10.556,12.983-17.196c-5.121,0.478-15.317,9.498-16.77,17.196C301.265,83.83,309.247,82.562,310.515,80.458z" id="path260"/>
<path fill-rule="evenodd" clip-rule="evenodd" d="M381.917,78.002c-2.7-2.307-10.678,2.88-15.145,0.614 c2.347-6.139,7.661-8.907,10.277-14.741c0.136-3.044-4.711-2.935-6.491-1.843c0.232,1.374,2.666,0.249,3.786,0.614 c-2.911,5.907-7.391,10.034-11.359,14.741C365.797,85.343,376.32,79.711,381.917,78.002z" id="path262"/>
<path fill-rule="evenodd" clip-rule="evenodd" d="M42.757,76.774c-8.524,2.399-13.375,8.971-24.882,7.984 c-2.757-8.389,1.219-12.565,5.95-19.654c8.459-12.672,18.026-23.076,29.751-33.166c7.597-6.538,14.13-12.892,24.883-12.284 c1.225,7.873-5.29,11.911-8.655,16.583c-4.066-1.021-11.057,1.581-9.195,8.599c6.017,0.116,10.269-5.78,13.522-9.827 c3.095-3.848,8.572-9.329,6.492-16.583c-3.053-1.379-5.742-2.555-9.196-1.229c-11.232,4.315-22.397,13.234-31.915,23.954 c-12.14,13.674-22.874,24.101-27.587,41.765C18.126,95.562,37.68,82.037,42.757,76.774z" id="path270"/>
</svg>