<?xml version="1.0" standalone="no"?>
<!DOCTYPE svg PUBLIC "-//W3C//DTD SVG 20010904//EN"
 "http://www.w3.org/TR/2001/REC-SVG-20010904/DTD/svg10.dtd">
<svg version="1.0" xmlns="http://www.w3.org/2000/svg"
 width="468pt" height="158pt" viewBox="0 0 468 158"
 preserveAspectRatio="xMidYMid meet">
<metadata>
Created by POTRACE VERSION, written by Peter Selinger 2001-2007
</metadata>
<g transform="translate(0,158) scale(0.052000,-0.052000)"
fill="#000000" stroke="none">
<path d="M7920 2925 c-14 -8 -35 -18 -46 -24 -12 -5 -24 -17 -27 -25 -4 -9
-11 -16 -17 -16 -6 0 -18 -6 -26 -12 -9 -7 -50 -44 -92 -82 -43 -38 -88 -80
-100 -95 -13 -14 -38 -43 -55 -65 -18 -21 -42 -50 -55 -63 -13 -14 -34 -42
-47 -63 -13 -21 -33 -47 -43 -57 -11 -10 -53 -67 -93 -128 -40 -60 -81 -116
-91 -123 -10 -7 -18 -21 -18 -31 0 -10 -11 -28 -25 -41 -14 -13 -25 -32 -25
-41 0 -10 -13 -33 -29 -51 -15 -18 -38 -52 -50 -75 -11 -23 -25 -45 -31 -48
-6 -4 -22 -27 -35 -53 -14 -26 -34 -61 -44 -78 -10 -17 -36 -62 -57 -100 -21
-38 -57 -107 -81 -153 -23 -46 -55 -100 -70 -120 -15 -20 -72 -80 -127 -134
-56 -54 -114 -106 -131 -114 -16 -8 -45 -26 -63 -40 -18 -13 -47 -25 -65 -26
-31 -2 -32 -1 -31 41 1 39 7 49 60 103 32 32 62 59 66 59 5 0 36 30 71 67 34
37 97 102 140 145 42 43 77 81 77 84 0 2 6 12 13 20 6 9 33 38 60 65 26 28 47
56 47 63 0 8 7 19 15 26 8 7 35 43 59 79 25 37 58 81 75 99 17 17 31 38 31 45
0 7 13 27 29 45 16 17 33 42 36 54 4 13 18 34 30 48 13 14 33 44 45 68 12 23
26 44 30 47 5 3 11 19 15 35 4 17 10 30 15 30 4 0 18 21 31 48 12 26 26 49 30
52 4 3 21 30 37 60 17 30 40 73 51 95 11 22 29 61 41 88 12 26 19 54 16 62 -3
9 -12 18 -21 21 -9 4 -41 -14 -83 -45 -37 -28 -91 -73 -119 -101 -29 -28 -53
-53 -53 -56 0 -4 -22 -32 -50 -64 -27 -32 -50 -60 -50 -63 0 -3 -10 -17 -22
-32 -13 -15 -30 -35 -39 -45 -10 -10 -29 -38 -43 -62 -14 -24 -37 -55 -51 -68
-14 -13 -25 -30 -25 -38 0 -7 -16 -33 -35 -56 -19 -24 -35 -48 -35 -54 0 -6
-13 -27 -30 -45 -16 -19 -30 -39 -30 -45 0 -5 -14 -27 -30 -48 -17 -22 -52
-68 -78 -104 -27 -36 -52 -77 -56 -92 -3 -16 -11 -28 -16 -28 -6 0 -10 -7 -10
-15 0 -7 -6 -18 -13 -22 -8 -4 -31 -35 -53 -67 -21 -33 -45 -71 -53 -85 -8
-14 -27 -42 -42 -62 -16 -20 -29 -41 -29 -46 0 -5 -13 -22 -28 -37 -16 -14
-45 -29 -65 -33 -21 -3 -37 -10 -37 -14 0 -5 -9 -9 -20 -9 -11 0 -23 -6 -26
-14 -3 -8 -25 -25 -50 -37 -24 -13 -44 -27 -44 -31 0 -5 -6 -8 -14 -8 -8 0
-16 -7 -20 -15 -3 -8 -13 -15 -23 -15 -10 0 -42 -21 -71 -46 -28 -25 -52 -51
-52 -59 0 -7 -10 -15 -22 -19 -13 -3 -26 -6 -30 -6 -5 0 -8 10 -8 22 0 13 10
46 22 75 20 49 20 53 4 77 -9 14 -23 26 -30 26 -7 0 -19 -7 -26 -15 -7 -8 -42
-29 -79 -46 -36 -18 -78 -38 -93 -45 -25 -13 -28 -12 -38 7 -9 16 -7 27 9 55
12 19 21 48 21 64 0 20 -6 31 -20 35 -10 3 -27 2 -37 -3 -10 -6 -30 -23 -44
-39 -14 -15 -55 -55 -92 -87 -37 -32 -77 -66 -89 -74 -13 -8 -28 -22 -35 -30
-7 -8 -31 -19 -55 -24 -24 -5 -57 -12 -74 -15 -23 -4 -33 -1 -38 12 -3 9 -2
34 4 55 6 21 28 74 49 117 22 43 57 98 80 122 22 24 54 64 70 89 16 25 27 51
24 59 -3 7 -14 13 -24 13 -10 0 -40 -21 -66 -48 -27 -26 -82 -77 -123 -114
-41 -36 -92 -81 -112 -98 -21 -18 -38 -36 -38 -42 0 -5 -21 -32 -47 -59 -27
-27 -54 -49 -60 -49 -7 0 -13 -4 -13 -10 0 -5 -12 -21 -27 -35 -15 -14 -37
-25 -49 -25 -16 0 -23 8 -27 28 -2 15 -10 43 -17 62 -7 19 -16 42 -21 50 -5 8
-20 38 -33 65 -13 28 -27 61 -31 73 -5 18 -1 31 18 50 13 15 41 52 61 82 21
30 47 69 60 86 12 17 37 49 54 72 18 22 32 45 32 51 0 6 16 28 35 50 19 21 35
42 35 47 0 5 16 33 35 61 19 29 35 55 35 58 0 3 23 41 51 83 29 42 69 95 91
117 21 22 68 71 103 109 36 38 65 73 65 78 0 5 17 30 38 57 21 27 44 62 51 80
8 17 17 31 22 31 5 0 9 5 9 12 0 6 6 19 14 27 7 9 29 48 49 86 19 39 43 88 53
110 9 22 25 52 35 67 11 14 19 38 19 52 0 21 -5 26 -26 26 -20 0 -42 -16 -81
-57 -30 -32 -70 -81 -89 -110 -19 -29 -44 -63 -57 -76 -12 -12 -47 -58 -77
-100 -30 -42 -57 -77 -60 -77 -4 0 -18 -18 -33 -41 -15 -22 -27 -45 -27 -50 0
-5 -25 -58 -56 -118 -30 -61 -76 -133 -101 -161 -24 -27 -51 -50 -58 -50 -7 0
-15 -6 -18 -13 -3 -8 -21 -22 -41 -31 -20 -9 -36 -21 -36 -26 0 -6 -5 -10 -11
-10 -7 0 -35 -20 -64 -45 -29 -24 -63 -49 -76 -55 -13 -5 -33 -16 -44 -22 -11
-7 -23 -17 -26 -22 -4 -5 -13 -6 -20 -4 -8 3 -33 -3 -57 -14 -24 -10 -60 -18
-81 -18 -20 0 -44 6 -53 13 -9 6 -18 19 -19 27 -2 8 0 28 5 44 4 17 15 36 24
43 9 7 24 13 33 13 9 0 19 6 22 13 3 8 2 19 -2 26 -6 9 -19 9 -50 2 -23 -5
-52 -17 -63 -28 -11 -10 -31 -40 -45 -67 -19 -38 -24 -59 -20 -90 4 -26 14
-46 29 -58 15 -11 41 -18 73 -18 28 0 68 5 90 11 22 6 56 17 75 25 19 8 42 19
50 23 8 4 47 25 85 46 39 20 99 57 136 81 36 24 68 44 72 44 4 0 7 -5 7 -10 0
-6 -46 -78 -102 -161 -57 -82 -109 -160 -115 -173 -7 -13 -37 -48 -67 -79 -33
-35 -63 -57 -76 -57 -11 0 -35 -7 -53 -16 -18 -9 -48 -30 -67 -46 -19 -16 -47
-41 -62 -56 -16 -15 -28 -32 -28 -38 0 -5 -13 -22 -28 -37 -16 -15 -39 -48
-51 -73 -13 -25 -25 -63 -28 -85 -6 -38 -5 -39 27 -39 22 0 44 10 69 31 20 16
47 39 59 50 13 10 27 19 30 19 4 0 18 17 31 37 12 21 34 46 47 56 14 10 31 16
39 13 8 -3 19 -24 25 -48 6 -24 17 -59 24 -78 8 -19 24 -61 36 -92 14 -36 19
-65 15 -80 -4 -13 -22 -40 -41 -60 -18 -20 -43 -55 -56 -77 -13 -23 -26 -41
-30 -41 -3 0 -22 -15 -42 -32 -19 -18 -50 -46 -68 -62 -18 -15 -51 -41 -74
-56 -22 -16 -58 -32 -80 -36 -25 -4 -49 -18 -66 -37 -17 -18 -28 -42 -28 -59
0 -16 7 -31 15 -34 8 -3 30 -1 49 6 19 6 45 22 58 35 13 14 29 25 36 25 7 0
16 8 19 18 4 9 63 74 132 145 69 70 142 139 163 153 21 15 44 24 53 20 8 -3
15 -16 15 -30 0 -14 4 -27 9 -31 5 -3 12 -19 16 -35 4 -17 11 -30 16 -30 5 0
9 -12 9 -27 1 -16 7 -39 15 -53 8 -14 14 -34 15 -45 0 -11 7 -33 15 -49 9 -16
20 -46 25 -65 5 -20 26 -103 47 -185 24 -91 45 -153 55 -159 8 -6 23 -7 33 -3
13 5 16 14 12 39 -3 17 -12 79 -21 137 -8 58 -22 148 -31 200 -9 52 -23 122
-31 155 -9 33 -22 92 -30 130 -8 39 -19 77 -24 86 -4 9 -11 37 -15 63 -7 43
-5 49 31 94 21 26 67 77 103 115 35 37 73 67 83 67 10 0 18 -3 18 -6 0 -3 -6
-18 -14 -32 -7 -15 -19 -43 -25 -63 -8 -25 -8 -45 -1 -63 5 -14 22 -31 37 -37
16 -6 52 -9 81 -6 35 4 70 16 105 38 28 17 77 53 107 79 30 26 67 55 82 64
l28 18 -2 -47 c-2 -30 2 -49 12 -55 7 -4 32 -7 55 -5 23 2 73 17 110 34 37 17
74 31 82 31 10 0 11 -5 3 -19 -5 -11 -10 -38 -10 -60 0 -29 7 -47 25 -67 14
-15 25 -33 25 -40 0 -8 10 -16 23 -19 12 -3 44 -1 71 5 27 6 60 20 74 30 13
11 31 20 39 20 8 0 34 15 58 33 24 17 59 43 77 56 18 13 37 24 42 25 5 0 17
-12 26 -29 11 -21 28 -33 54 -39 32 -8 45 -6 79 12 23 12 48 22 55 22 8 0 28
10 45 22 18 12 39 27 47 35 8 7 35 31 60 53 25 22 53 40 64 40 14 0 17 -5 11
-22 -3 -13 -11 -42 -16 -65 -8 -32 -7 -49 3 -69 7 -15 24 -35 38 -45 19 -14
35 -17 69 -12 24 3 64 20 89 37 25 17 61 51 79 76 18 25 43 60 54 78 12 17 28
32 36 32 9 0 31 -10 51 -22 21 -13 51 -21 76 -21 25 0 66 11 101 27 32 16 66
38 75 49 11 13 23 18 33 14 10 -4 17 -18 17 -34 0 -15 4 -34 8 -41 5 -7 26
-22 48 -33 23 -12 57 -20 83 -20 24 0 49 5 55 11 5 5 18 10 28 10 10 0 35 15
55 33 21 19 49 41 63 50 13 9 28 17 32 17 5 0 8 -4 8 -9 0 -4 -18 -41 -39 -80
-22 -39 -43 -81 -47 -93 -3 -12 -29 -55 -58 -96 -28 -41 -58 -86 -66 -101 -8
-14 -32 -44 -52 -66 -21 -22 -38 -45 -38 -51 0 -6 -23 -37 -50 -68 -28 -32
-59 -74 -69 -95 -11 -21 -27 -43 -35 -50 -9 -8 -16 -18 -16 -24 0 -5 -28 -55
-62 -111 -34 -56 -72 -116 -86 -135 -20 -27 -22 -35 -11 -42 8 -5 21 -9 28 -9
8 0 46 32 83 71 37 40 78 88 90 108 12 20 45 60 73 89 27 29 54 63 60 75 5 11
22 35 37 51 16 17 28 34 28 38 0 4 14 27 30 51 17 25 30 50 30 55 0 6 7 15 16
20 8 5 21 20 28 33 7 16 20 24 36 24 24 0 25 4 30 67 3 37 11 73 18 80 6 6 12
19 12 29 0 9 9 28 20 42 11 14 20 31 20 38 0 6 12 28 28 48 15 20 36 48 47 63
11 15 52 72 92 126 40 55 79 102 88 105 8 4 15 18 15 32 0 14 6 25 13 25 6 0
17 -4 23 -8 6 -4 15 -18 19 -32 4 -14 17 -38 29 -55 11 -16 27 -37 36 -46 8
-9 25 -20 37 -23 12 -4 25 -16 29 -28 3 -11 2 -30 -4 -42 -5 -11 -17 -37 -26
-56 -9 -19 -24 -48 -33 -65 -9 -16 -20 -37 -24 -45 -4 -8 -30 -60 -58 -115
-43 -83 -51 -109 -51 -153 0 -29 7 -66 15 -82 8 -16 24 -34 34 -40 11 -5 28
-10 39 -10 11 0 25 6 31 14 9 11 7 28 -9 77 -14 42 -20 76 -16 99 3 20 13 52
21 71 9 19 20 41 26 49 5 8 14 26 20 40 5 13 32 63 59 110 26 47 51 102 54
122 4 20 4 48 0 62 -3 13 -15 27 -27 30 -12 4 -37 25 -54 47 -18 23 -38 59
-43 81 -8 28 -8 53 -1 86 6 26 17 68 24 93 7 25 17 52 23 60 7 8 21 32 32 54
11 22 32 51 46 64 14 14 26 28 26 33 0 5 16 33 36 63 20 30 41 55 45 55 5 0
16 15 25 33 9 17 24 37 33 44 9 6 30 37 46 70 16 32 45 81 64 108 19 28 55 79
81 115 25 36 56 86 69 113 12 26 28 47 35 47 7 0 18 11 24 24 6 14 27 43 47
64 19 22 35 43 35 48 0 5 9 15 20 22 11 7 20 21 20 31 0 10 -7 22 -16 25 -10
4 -30 -3 -48 -15 -17 -12 -69 -65 -116 -117 -47 -53 -104 -114 -127 -137 -24
-23 -43 -47 -43 -53 0 -6 -16 -28 -35 -49 -19 -21 -35 -43 -35 -50 0 -6 -20
-33 -45 -60 -24 -26 -45 -51 -45 -55 0 -4 -19 -36 -42 -70 -23 -35 -52 -79
-65 -99 -13 -19 -23 -38 -23 -41 0 -3 -19 -39 -41 -79 -23 -40 -59 -120 -81
-178 -22 -57 -45 -114 -51 -127 -7 -12 -23 -36 -37 -54 -14 -18 -35 -44 -47
-57 -13 -14 -23 -32 -23 -39 0 -7 -10 -20 -22 -28 -12 -9 -29 -16 -36 -16 -10
0 -12 7 -8 25 5 21 3 25 -14 25 -12 0 -31 -11 -43 -24 -12 -13 -42 -49 -67
-79 -25 -30 -53 -60 -63 -67 -11 -6 -21 -9 -24 -6 -3 3 3 18 13 32 11 15 32
50 47 78 27 47 28 51 11 63 -10 7 -23 13 -29 13 -7 0 -27 -8 -46 -17 -19 -9
-43 -25 -53 -35 -11 -10 -25 -18 -32 -18 -6 0 -37 -27 -68 -61 -31 -33 -62
-59 -69 -56 -8 2 -11 25 -9 73 2 38 -1 81 -7 97 -6 16 -18 27 -30 27 -10 0
-28 -8 -40 -17 -12 -11 -25 -37 -30 -65 -5 -28 -20 -61 -37 -81 -16 -19 -47
-46 -69 -61 -25 -17 -53 -26 -77 -26 -24 0 -41 5 -44 14 -3 8 4 24 15 35 12
12 21 31 21 42 0 19 -4 20 -35 15 -26 -5 -35 -3 -35 7 0 7 5 18 11 24 6 6 8
16 5 22 -4 6 -17 11 -28 11 -12 0 -39 -19 -63 -45 -25 -26 -51 -68 -64 -103
-13 -34 -41 -79 -67 -107 -24 -27 -44 -52 -44 -56 0 -4 -6 -14 -14 -22 -8 -8
-32 -14 -53 -13 -38 1 -38 1 -41 46 -2 34 6 66 29 120 17 41 37 92 45 114 8
21 28 58 44 82 17 23 30 46 30 49 0 4 12 22 28 40 15 17 34 42 42 54 8 13 28
37 43 55 16 17 46 55 68 84 22 28 44 52 49 52 6 0 10 6 10 14 0 8 4 16 8 18 5
2 39 43 75 91 37 48 67 91 67 95 0 4 8 15 18 24 9 8 38 42 65 76 26 33 47 62
47 66 0 3 20 32 45 64 25 31 66 82 91 112 24 30 65 82 90 115 24 33 68 94 96
135 28 41 63 89 77 107 14 17 35 44 46 60 11 15 19 31 17 36 -1 4 5 7 13 7 8
0 15 4 15 8 0 5 16 25 35 45 19 20 35 39 35 42 0 4 7 13 15 21 8 9 15 24 15
34 0 11 -9 24 -19 30 -11 5 -23 10 -28 10 -4 0 -19 -7 -33 -15z m4 -63 c3 -5
-13 -28 -35 -52 -22 -23 -48 -59 -59 -79 -10 -20 -31 -51 -48 -69 -16 -17 -51
-60 -78 -93 -27 -34 -58 -76 -69 -94 -11 -17 -35 -49 -52 -69 -18 -20 -33 -42
-33 -48 0 -6 -22 -32 -48 -57 -26 -25 -51 -53 -55 -61 -4 -8 -14 -25 -21 -38
-7 -12 -27 -35 -43 -50 -17 -15 -37 -41 -46 -57 -8 -17 -26 -42 -39 -55 -13
-14 -35 -43 -48 -65 -13 -22 -39 -57 -57 -78 -18 -20 -33 -41 -33 -46 0 -6
-23 -33 -50 -62 -32 -33 -54 -49 -60 -43 -6 6 5 31 30 69 22 33 40 63 40 66 0
4 37 62 83 130 45 69 97 148 115 177 18 28 38 52 43 52 5 0 9 5 9 11 0 6 15
30 33 52 17 23 40 50 50 59 9 10 17 22 17 27 0 6 22 36 48 68 26 32 55 68 64
81 9 13 42 53 74 90 33 36 88 97 124 134 36 38 79 77 95 88 17 11 33 20 37 20
4 0 9 -4 12 -8z m-564 -277 c0 -8 -4 -15 -10 -15 -5 0 -10 -8 -10 -18 0 -10
-23 -63 -51 -118 -28 -54 -57 -106 -65 -114 -7 -9 -20 -31 -29 -50 -9 -19 -33
-62 -55 -95 -22 -33 -43 -67 -47 -75 -4 -8 -29 -49 -57 -90 -28 -41 -63 -90
-78 -108 -15 -18 -28 -39 -28 -47 0 -7 -16 -31 -36 -52 -20 -21 -51 -60 -69
-88 -18 -27 -53 -70 -79 -95 -25 -24 -46 -48 -46 -52 0 -4 -39 -44 -86 -90
-47 -46 -92 -84 -100 -86 -8 -2 -14 4 -14 16 0 10 10 28 23 40 13 12 33 42 45
65 12 24 31 52 42 62 11 10 20 22 20 27 0 5 15 30 33 56 17 26 38 56 44 67 7
11 16 28 19 38 3 9 10 17 14 17 4 0 27 30 50 68 24 37 72 110 107 162 34 52
71 106 80 120 10 14 48 66 85 117 37 50 72 94 77 98 6 3 18 21 25 38 8 18 34
52 58 77 24 25 61 66 82 93 21 26 42 47 47 47 5 0 9 -7 9 -15z m1218 -285 c-7
-10 -14 -17 -16 -15 -3 2 -2 11 1 20 4 8 11 15 17 15 6 0 6 -7 -2 -20z m-45
-62 c-4 -7 -24 -38 -43 -68 -20 -30 -39 -63 -43 -72 -3 -10 -11 -18 -17 -18
-5 0 -10 4 -10 10 0 5 20 41 44 79 25 38 50 71 58 74 7 3 14 6 16 6 2 1 0 -5
-5 -11z m-149 -233 c-4 -8 -8 -15 -10 -15 -2 0 -4 7 -4 15 0 8 4 15 10 15 5 0
7 -7 4 -15z m-704 -663 c0 -4 -9 -14 -20 -22 -11 -8 -20 -18 -20 -22 0 -4 -11
-18 -24 -32 -13 -15 -28 -26 -35 -26 -6 0 -11 6 -11 13 1 6 8 21 18 32 9 11
30 30 46 43 16 12 33 22 37 22 5 0 9 -4 9 -8z m-3070 -107 c0 -8 -7 -15 -16
-15 -14 0 -14 3 -4 15 7 8 14 15 16 15 2 0 4 -7 4 -15z m-40 -34 c0 -5 -20
-26 -44 -45 -23 -20 -46 -36 -50 -36 -3 0 -6 5 -6 11 0 7 17 27 38 45 20 18
43 33 50 34 6 0 12 -4 12 -9z m1650 -31 c0 -11 -16 -30 -37 -45 -21 -14 -43
-25 -50 -25 -7 0 -13 5 -13 11 0 6 17 27 37 45 20 19 43 34 50 34 7 0 13 -9
13 -20z"/>
<path d="M1950 2857 c-14 -6 -50 -31 -80 -56 -30 -25 -84 -74 -120 -111 -36
-36 -90 -94 -120 -129 -30 -36 -57 -70 -60 -77 -3 -7 -27 -40 -55 -74 -27 -35
-55 -70 -60 -79 -6 -9 -31 -47 -56 -86 -26 -38 -58 -82 -71 -97 -14 -14 -32
-40 -39 -57 -8 -17 -17 -31 -21 -31 -3 0 -21 -24 -38 -52 -17 -29 -36 -62 -43
-73 -7 -11 -15 -22 -18 -25 -3 -3 -25 -39 -50 -80 -24 -41 -49 -81 -56 -88 -7
-7 -13 -18 -13 -24 0 -6 -7 -19 -15 -28 -8 -9 -25 -34 -37 -57 -13 -22 -40
-66 -61 -97 -21 -32 -60 -79 -86 -104 -26 -26 -71 -69 -100 -96 -28 -28 -61
-65 -72 -82 -11 -18 -50 -57 -87 -86 -37 -29 -74 -60 -83 -68 -8 -8 -46 -40
-82 -70 -37 -30 -86 -65 -110 -77 -23 -12 -59 -23 -80 -23 -30 0 -44 7 -68 33
-28 30 -30 35 -24 87 4 30 16 82 28 115 11 33 35 91 54 130 18 38 33 75 33 81
0 7 18 43 40 80 22 38 40 72 40 76 0 4 28 52 62 105 34 54 75 116 92 138 17
22 36 44 43 48 7 4 13 14 13 22 0 7 15 28 33 47 17 18 46 52 62 74 17 23 82
86 145 140 63 54 141 116 172 137 31 20 63 37 71 37 8 0 29 8 48 17 19 9 48
17 66 17 18 0 35 -3 38 -6 4 -3 0 -21 -8 -39 -8 -19 -39 -59 -68 -90 -30 -31
-94 -86 -144 -123 -49 -37 -94 -70 -100 -74 -5 -4 -26 -15 -45 -24 -19 -9 -50
-19 -69 -23 l-34 -7 27 34 c14 19 60 63 101 99 41 35 75 67 75 71 0 5 -5 8
-12 8 -6 0 -18 -7 -27 -15 -9 -8 -39 -33 -68 -55 -29 -22 -56 -40 -61 -40 -4
0 -22 -15 -39 -32 -16 -18 -33 -41 -36 -50 -4 -10 -11 -18 -17 -18 -6 0 -15
-10 -20 -22 -6 -13 -15 -30 -22 -39 -6 -9 -8 -24 -5 -33 4 -9 17 -16 29 -16
13 0 57 14 98 31 41 17 103 52 138 78 34 25 82 61 105 78 23 18 60 48 82 65
22 18 69 62 105 98 43 42 70 78 77 103 8 28 9 46 1 62 -5 12 -21 28 -35 34
-13 6 -35 11 -48 11 -13 0 -46 -7 -72 -16 -26 -8 -59 -20 -73 -27 -14 -6 -50
-30 -80 -52 -30 -22 -62 -44 -71 -50 -10 -5 -61 -50 -115 -100 -54 -49 -108
-101 -120 -115 -12 -14 -47 -55 -78 -92 -31 -37 -56 -71 -56 -76 0 -5 -21 -34
-47 -64 -27 -30 -61 -77 -78 -104 -16 -27 -37 -61 -46 -75 -8 -15 -23 -34 -32
-44 -9 -9 -17 -23 -17 -31 0 -8 -3 -14 -8 -14 -4 0 -12 -8 -17 -18 -6 -10 -16
-32 -24 -48 -7 -16 -17 -36 -22 -44 -5 -8 -18 -35 -30 -60 -11 -25 -38 -88
-59 -141 -21 -52 -42 -122 -45 -155 -4 -32 -9 -62 -11 -66 -3 -4 -2 -25 2 -46
4 -28 15 -46 36 -62 22 -16 44 -22 86 -22 32 0 71 6 87 13 17 8 71 41 122 74
50 33 99 72 109 87 11 16 39 43 64 60 25 18 73 61 106 97 44 45 67 62 78 58
14 -6 11 -17 -22 -79 -22 -40 -50 -100 -63 -133 -13 -33 -28 -67 -35 -75 -6
-8 -17 -32 -24 -53 -8 -26 -9 -42 -2 -49 5 -5 19 -7 30 -4 11 4 24 17 29 29 4
12 22 43 38 69 16 26 35 50 42 52 7 3 20 -8 28 -24 13 -26 21 -30 55 -30 21 0
41 4 44 9 3 5 15 11 27 14 19 5 21 2 16 -26 -2 -18 0 -42 6 -54 6 -13 15 -23
21 -24 6 -1 22 0 36 1 14 1 46 15 72 32 38 24 54 28 79 23 24 -5 52 2 121 31
73 31 95 45 111 71 12 21 26 33 36 31 14 -3 15 -16 12 -84 -2 -49 2 -90 8
-103 7 -11 20 -21 29 -21 10 0 27 7 38 15 10 8 26 15 35 15 9 0 45 23 80 51
35 28 89 77 121 110 31 32 64 59 73 59 12 0 15 -5 10 -17 -4 -10 -9 -36 -12
-59 -4 -29 1 -52 16 -82 16 -32 28 -42 54 -47 18 -4 45 -2 60 4 16 6 43 22 62
36 20 16 57 30 96 37 50 9 77 21 126 57 35 25 63 52 63 59 0 6 9 12 20 12 11
0 23 -7 27 -17 4 -11 -7 -28 -38 -56 -24 -22 -60 -54 -79 -72 -19 -18 -50 -39
-67 -49 -24 -12 -33 -23 -33 -41 0 -13 8 -29 18 -34 11 -6 25 -5 39 2 12 7 58
46 103 87 44 41 96 97 116 126 35 51 35 52 25 108 -6 32 -13 61 -16 67 -4 5
-15 9 -25 9 -10 0 -25 -6 -32 -12 -7 -7 -33 -29 -58 -49 -25 -20 -57 -48 -73
-61 -15 -13 -41 -32 -57 -42 -27 -15 -31 -16 -36 -1 -4 9 12 52 36 98 25 49
40 93 38 108 -2 17 -10 25 -28 27 -16 2 -45 -10 -75 -30 -28 -18 -60 -42 -72
-53 -11 -11 -31 -36 -42 -55 -12 -19 -21 -51 -21 -70 0 -19 4 -41 9 -49 6 -9
5 -23 -2 -38 -5 -12 -18 -23 -27 -23 -9 0 -22 11 -28 25 -7 14 -12 43 -12 64
0 22 15 71 35 117 20 43 43 94 52 112 9 18 31 47 50 65 18 18 33 37 33 43 0 6
10 19 21 30 12 10 37 44 57 74 19 30 46 66 61 80 14 14 31 37 37 50 7 14 32
49 55 77 24 29 65 79 92 112 26 32 47 62 47 67 0 4 17 27 37 52 21 25 48 61
60 79 13 19 32 44 44 56 12 12 27 36 34 52 8 17 22 39 32 50 10 11 32 42 48
69 17 26 35 56 40 65 6 9 22 34 36 56 15 22 34 46 43 54 9 7 16 17 16 22 0 4
17 34 38 66 21 32 46 74 56 93 9 19 20 56 23 81 4 35 2 47 -9 52 -8 3 -36 -7
-61 -22 -26 -15 -65 -42 -88 -61 -23 -19 -83 -76 -133 -126 -50 -50 -104 -108
-119 -130 -15 -21 -50 -70 -77 -109 -27 -38 -53 -75 -57 -81 -4 -5 -14 -21
-22 -34 -8 -13 -25 -45 -38 -70 -13 -25 -29 -50 -36 -55 -7 -6 -23 -33 -37
-60 -14 -28 -28 -51 -32 -53 -5 -2 -8 -9 -8 -15 0 -6 -7 -18 -15 -27 -8 -9
-27 -40 -43 -70 -16 -30 -48 -90 -71 -133 -23 -43 -53 -94 -67 -114 -13 -20
-24 -41 -24 -47 0 -7 -20 -53 -45 -104 -25 -50 -45 -96 -45 -101 0 -5 -34 -49
-76 -98 -42 -48 -106 -116 -143 -150 -36 -35 -83 -75 -103 -89 -20 -14 -42
-23 -49 -19 -8 5 -10 27 -6 68 4 43 1 69 -9 89 -13 25 -20 28 -62 28 -43 0
-52 -4 -87 -41 -22 -22 -61 -56 -86 -75 -26 -19 -52 -34 -58 -34 -6 0 -11 7
-11 15 0 8 21 43 46 79 25 36 43 70 39 76 -3 5 -15 10 -26 10 -10 0 -19 4 -19
8 0 5 7 17 15 28 8 10 15 27 15 37 0 11 -8 17 -22 17 -13 0 -38 -9 -57 -21
-19 -11 -40 -26 -47 -32 -7 -7 -27 -23 -46 -37 -18 -13 -47 -39 -65 -57 -17
-18 -34 -33 -37 -33 -3 0 -25 -13 -49 -30 -25 -16 -52 -30 -60 -30 -8 0 -20 7
-28 16 -10 13 -10 20 4 44 9 15 17 34 17 41 0 6 11 27 25 45 14 18 25 44 25
58 0 18 -5 26 -17 26 -10 0 -28 -8 -40 -18 -11 -9 -23 -25 -25 -36 -1 -10 -14
-26 -28 -35 -23 -15 -24 -15 -16 4 5 11 11 31 14 44 2 12 19 45 36 72 17 26
41 64 54 84 12 20 22 43 22 51 0 8 5 14 10 14 6 0 15 10 21 23 5 12 15 31 22
43 7 11 35 44 62 74 28 29 57 61 65 70 8 9 25 31 38 48 12 17 22 35 22 39 0 4
13 17 29 28 15 11 43 34 62 50 19 17 45 46 58 65 13 19 43 53 66 75 23 22 52
56 65 75 13 19 43 53 66 75 24 23 57 59 74 80 17 22 66 77 108 122 42 45 107
115 144 155 37 41 80 92 95 114 15 21 51 74 80 118 29 43 53 86 53 96 0 10 -9
29 -21 44 -15 19 -29 26 -52 25 -18 0 -43 -5 -57 -12z m56 -78 c3 -6 -4 -23
-18 -37 -13 -15 -32 -43 -42 -62 -11 -19 -36 -52 -55 -73 -20 -20 -40 -46 -46
-56 -5 -11 -35 -45 -65 -78 -30 -32 -66 -74 -80 -93 -13 -19 -51 -64 -83 -100
-32 -36 -87 -96 -123 -135 -35 -38 -83 -94 -105 -122 -22 -29 -45 -53 -50 -53
-5 0 -22 -21 -39 -47 -16 -27 -45 -63 -64 -80 -19 -18 -39 -33 -45 -33 -6 0
-11 4 -11 9 0 5 11 23 25 39 14 17 25 34 25 38 0 5 18 33 40 62 22 29 40 56
40 61 0 4 17 28 38 52 21 24 49 62 62 84 13 21 32 47 42 57 10 10 18 24 18 31
0 6 15 28 33 47 18 19 44 53 58 75 15 22 37 51 50 65 14 14 31 38 39 53 7 15
35 50 62 78 26 28 48 53 48 57 0 4 33 40 73 79 39 40 83 76 97 82 14 5 35 10
47 10 12 1 25 -4 29 -10z m848 -137 c3 -5 -4 -21 -15 -38 -11 -16 -26 -42 -33
-59 -8 -16 -23 -39 -34 -51 -11 -11 -27 -34 -36 -50 -9 -16 -32 -49 -51 -74
-19 -25 -53 -78 -75 -117 -23 -40 -45 -75 -51 -78 -5 -4 -24 -30 -43 -58 -18
-29 -43 -61 -55 -71 -11 -11 -21 -25 -21 -31 0 -7 -24 -39 -52 -72 -29 -33
-70 -84 -90 -112 -21 -29 -38 -56 -38 -62 0 -5 -20 -31 -44 -57 -24 -26 -51
-61 -60 -79 -9 -17 -21 -35 -27 -38 -5 -4 -12 -5 -14 -3 -2 2 3 24 11 48 8 24
24 56 34 70 11 15 24 38 30 51 6 13 33 60 60 104 27 44 61 104 75 133 13 30
36 67 50 84 14 16 25 34 25 40 0 6 16 30 35 54 19 23 35 46 35 51 0 5 7 18 15
28 8 11 31 41 50 67 19 26 35 50 35 55 0 5 14 19 30 33 17 14 30 32 30 42 0 9
30 46 68 82 37 36 83 77 102 91 18 14 37 25 41 25 4 0 10 -4 13 -8z m-786
-1481 c-7 -12 -18 -21 -25 -21 -7 0 -13 4 -13 9 0 6 10 17 22 25 12 9 24 14
26 12 2 -2 -3 -13 -10 -25z m-898 -39 c0 -5 -10 -17 -21 -28 -12 -10 -30 -38
-41 -62 -10 -23 -30 -49 -43 -58 -13 -9 -32 -14 -42 -12 -10 2 -18 10 -18 19
0 9 14 32 32 52 17 19 50 49 74 66 23 17 46 31 51 31 4 0 8 -4 8 -8z"/>
<path d="M4161 2682 c-14 -2 -49 -19 -78 -38 -29 -18 -53 -37 -53 -41 0 -5
-23 -24 -52 -43 -28 -19 -69 -54 -91 -77 -22 -24 -43 -43 -47 -43 -4 0 -27
-19 -51 -42 -24 -24 -69 -66 -99 -93 -30 -28 -92 -91 -138 -140 -46 -50 -112
-126 -147 -170 -36 -44 -73 -91 -82 -104 -10 -13 -30 -38 -45 -56 -16 -18 -28
-36 -28 -40 0 -3 -15 -25 -33 -48 -19 -23 -42 -57 -53 -74 -10 -18 -21 -33
-25 -33 -4 0 -25 -28 -48 -62 -22 -35 -63 -96 -91 -137 -27 -40 -50 -75 -50
-77 0 -2 -13 -23 -30 -46 -16 -22 -30 -47 -30 -54 0 -7 -12 -27 -27 -45 -15
-17 -42 -55 -60 -83 -17 -28 -44 -76 -58 -106 -15 -30 -33 -69 -40 -87 -13
-29 -12 -33 9 -56 16 -17 39 -27 75 -32 38 -5 57 -3 69 7 9 8 31 20 47 28 17
8 59 32 95 54 36 22 83 56 104 75 21 20 88 84 149 144 60 59 116 107 123 107
8 0 15 -10 16 -22 0 -13 0 -30 -1 -38 -1 -8 -8 -57 -16 -109 -11 -66 -12 -98
-5 -105 7 -7 16 -7 28 0 9 6 27 40 39 75 12 35 29 100 38 143 9 44 26 109 38
145 12 36 27 72 34 79 7 7 13 19 13 26 0 7 14 25 31 42 17 16 47 52 67 79 20
28 55 70 79 95 24 25 55 63 70 85 14 21 39 52 55 67 16 16 40 52 53 81 14 28
22 60 19 70 -3 10 -3 35 1 54 3 19 23 53 44 76 21 23 73 96 115 162 43 66 87
132 97 147 11 15 24 39 29 53 5 14 14 25 20 25 5 0 10 7 10 16 0 8 7 37 16 65
15 45 15 51 0 74 -9 14 -22 25 -29 26 -6 0 -21 2 -32 3 -11 2 -31 1 -44 -2z
m46 -84 c-3 -13 -13 -43 -21 -66 -9 -24 -34 -70 -56 -102 -22 -33 -40 -63 -40
-68 0 -5 -11 -22 -25 -38 -14 -16 -25 -34 -25 -41 0 -7 -13 -28 -30 -46 -16
-19 -30 -39 -30 -43 0 -5 -20 -31 -45 -58 -25 -26 -45 -50 -45 -53 0 -2 -17
-27 -39 -56 -21 -29 -56 -69 -77 -89 -22 -21 -58 -57 -81 -80 -22 -24 -64 -74
-93 -113 -29 -38 -83 -100 -121 -136 -38 -36 -69 -71 -69 -78 0 -6 -16 -27
-35 -46 -19 -19 -38 -35 -42 -35 -4 0 -30 -21 -58 -45 -27 -25 -67 -55 -88
-66 -20 -11 -43 -28 -49 -39 -7 -11 -18 -20 -24 -20 -6 0 -17 -7 -24 -15 -7
-8 -17 -12 -22 -9 -6 4 -13 3 -17 -2 -3 -5 -16 -15 -28 -21 -13 -7 -30 -13
-38 -13 -8 0 -15 6 -15 14 0 8 16 33 35 56 19 23 42 54 51 68 9 15 38 38 65
51 41 20 49 29 49 52 0 26 -1 27 -30 16 -16 -6 -32 -8 -36 -5 -3 4 8 24 25 45
17 21 31 41 31 45 0 4 23 40 52 80 29 40 71 100 95 133 23 33 53 73 65 90 13
16 60 77 105 135 45 58 94 118 110 135 15 16 44 50 64 76 20 26 60 71 90 100
31 30 102 90 159 134 57 44 124 96 149 115 25 19 57 40 71 47 14 6 40 12 59
12 30 1 33 -1 28 -21z m-387 -737 c0 -5 -7 -15 -16 -22 -9 -8 -27 -31 -40 -51
-14 -21 -46 -61 -73 -90 -27 -29 -53 -50 -56 -46 -4 4 10 35 31 70 21 35 48
74 59 87 11 13 34 32 50 42 17 11 33 19 38 19 4 0 7 -4 7 -9z m-371 -418 c-18
-27 -81 -96 -140 -155 -59 -60 -113 -108 -119 -108 -6 0 -15 -10 -21 -23 -6
-13 -28 -34 -50 -47 -21 -14 -39 -28 -39 -32 0 -5 -5 -8 -10 -8 -6 0 -40 -22
-76 -50 -36 -27 -73 -54 -83 -60 -10 -5 -38 -11 -62 -12 -42 -3 -44 -1 -47 25
-2 16 3 36 11 45 8 10 18 28 22 40 4 13 16 33 27 44 13 13 51 27 97 37 52 12
94 28 133 54 31 21 85 64 120 95 35 31 72 65 83 74 11 10 51 43 88 73 38 30
75 55 83 55 11 0 6 -14 -17 -47z"/>
<path d="M5388 1929 c-11 -6 -18 -22 -18 -41 0 -17 9 -46 21 -65 11 -18 34
-40 49 -48 16 -8 37 -15 48 -15 10 0 23 5 30 12 7 7 12 26 12 43 0 17 -7 41
-16 53 -8 12 -20 22 -26 22 -5 0 -23 11 -40 25 -16 14 -33 25 -36 25 -4 0 -15
-5 -24 -11z"/>
<path d="M3662 1183 c-7 -3 -25 -23 -39 -46 -14 -22 -32 -72 -40 -110 -13 -61
-13 -71 2 -93 8 -13 21 -24 28 -24 6 0 17 4 23 8 6 4 14 30 17 57 3 28 13 71
23 95 9 25 17 60 18 79 0 19 -3 35 -9 37 -5 1 -16 0 -23 -3z"/>
</g>
</svg>
