<?xml version="1.0" encoding="UTF-8" standalone="no"?>
<!-- Created with Inkscape (http://www.inkscape.org/) -->

<svg
   xmlns:dc="http://purl.org/dc/elements/1.1/"
   xmlns:cc="http://creativecommons.org/ns#"
   xmlns:rdf="http://www.w3.org/1999/02/22-rdf-syntax-ns#"
   xmlns:svg="http://www.w3.org/2000/svg"
   xmlns="http://www.w3.org/2000/svg"
   xmlns:sodipodi="http://sodipodi.sourceforge.net/DTD/sodipodi-0.dtd"
   xmlns:inkscape="http://www.inkscape.org/namespaces/inkscape"
   width="272"
   height="69"
   id="svg2"
   version="1.1"
   inkscape:version="0.48.0 r9654"
   sodipodi:docname="Chas_R_Bishop_1848_signature.svg">
  <defs
     id="defs4" />
  <sodipodi:namedview
     id="base"
     pagecolor="#ffffff"
     bordercolor="#666666"
     borderopacity="1.0"
     inkscape:pageopacity="0.0"
     inkscape:pageshadow="2"
     inkscape:zoom="2.7010439"
     inkscape:cx="154.06204"
     inkscape:cy="64.237286"
     inkscape:document-units="px"
     inkscape:current-layer="layer2"
     showgrid="false"
     inkscape:window-width="1440"
     inkscape:window-height="820"
     inkscape:window-x="-8"
     inkscape:window-y="-8"
     inkscape:window-maximized="1"
     fit-margin-top="0"
     fit-margin-left="0"
     fit-margin-right="0"
     fit-margin-bottom="0" />
  <metadata
     id="metadata7">
    <rdf:RDF>
      <cc:Work
         rdf:about="">
        <dc:format>image/svg+xml</dc:format>
        <dc:type
           rdf:resource="http://purl.org/dc/dcmitype/StillImage" />
        <dc:title></dc:title>
      </cc:Work>
    </rdf:RDF>
  </metadata>
  <g
     inkscape:groupmode="layer"
     id="layer2"
     inkscape:label="Warstwa"
     style="display:inline">
    <path
       style="font-size:medium;font-style:normal;font-variant:normal;font-weight:normal;font-stretch:normal;text-indent:0;text-align:start;text-decoration:none;line-height:normal;letter-spacing:normal;word-spacing:normal;text-transform:none;direction:ltr;block-progression:tb;writing-mode:lr-tb;text-anchor:start;baseline-shift:baseline;color:#000000;fill:#000000;fill-opacity:1;stroke:none;stroke-width:1.5;marker:none;visibility:visible;display:inline;overflow:visible;enable-background:accumulate;font-family:Sans;-inkscape-font-specification:Sans"
       d="m 86.437501,5.9062504 c -0.345593,0.029045 -0.706058,0.102006 -1.0625,0.1875 -1.42577,0.3419769 -2.986675,1.0780657 -4.53125,1.9375 -3.08915,1.7188685 -6.092398,3.9714436 -7.0625,4.6562496 -8.485521,5.990022 -17.869577,16.037947 -25.5625,24.125 -0.149491,0.07973 -0.319497,0.139145 -0.46875,0.21875 -5.680928,3.029951 -12.831814,3.860848 -19.0625,6.53125 -2.123971,0.91031 -5.529593,2.472021 -8.90625,3.375 -3.376657,0.902979 -6.616704,1.05385 -8.406251,-0.4375 -0.231645,-0.193046 -0.297725,-0.38954 -0.21875,-0.875 0.07897,-0.48546 0.372226,-1.152557 0.78125,-1.8125 0.12482,-0.201392 0.292533,-0.269428 0.4375,-0.46875 9.744877,-4.369812 19.1011,-9.697596 28.750001,-13.5 0.59816,0.337697 1.236759,0.407294 1.875,0.3125 -0.37568,0.624946 -0.862114,1.217757 -1.125,1.875 -0.328972,0.822463 -0.473119,1.510211 -0.15625,2.15625 0.158435,0.32302 0.468391,0.550402 0.78125,0.65625 0.312859,0.105848 0.602935,0.132549 0.90625,0.09375 1.21326,-0.155196 2.632116,-0.958737 4.09375,-2 1.461634,-1.041263 2.884844,-2.344438 3.84375,-3.625 0.479453,-0.640281 0.870892,-1.273041 1.03125,-1.9375 0.160358,-0.664459 0.025,-1.443731 -0.5,-1.96875 -0.397398,-0.397414 -0.902692,-0.592863 -1.40625,-0.65625 0.937431,-0.843593 1.929047,-1.680082 2.5,-2.5625 0.334916,-0.517618 0.929853,-0.868665 1.4375,-1.3125 0.183227,-0.07388 0.222736,-0.08224 0.40625,-0.15625 0.511411,-0.20624 1.00258,-0.410335 1.375,-0.5625 0.18621,-0.07608 0.357805,-0.140806 0.46875,-0.1875 0.05547,-0.02335 0.08723,-0.04564 0.125,-0.0625 0.01888,-0.0084 0.0354,-0.01767 0.0625,-0.03125 0.01355,-0.0068 0.02047,-0.0051 0.0625,-0.03125 0.02102,-0.0131 0.124658,-0.09343 0.125,-0.09375 1.71e-4,-1.61e-4 0.156198,-0.218636 0.15625,-0.21875 2.3e-5,-5.1e-5 -0.02923,-0.18921 -0.0625,-0.375 0.124547,-0.03946 0.240969,-0.04777 0.375,-0.125 0.311657,-0.17959 0.625,-0.610165 0.625,-1.0625 0,-8.75e-4 -0.09332,-0.405575 -0.09375,-0.40625 -4.26e-4,-6.75e-4 -0.280402,-0.249525 -0.28125,-0.25 -8.48e-4,-4.75e-4 -0.16419,-0.08185 -0.21875,-0.09375 -0.05456,-0.0119 -0.09106,0.0016 -0.125,0 -0.135745,-0.0063 -0.173991,-0.0097 -0.21875,0 -0.08952,0.01942 -0.152072,0.03836 -0.21875,0.0625 -0.133356,0.04828 -0.277311,0.129246 -0.46875,0.21875 -0.382878,0.179009 -0.905601,0.43043 -1.46875,0.78125 -0.04022,0.02506 -0.08426,0.06788 -0.125,0.09375 -0.08984,0.05872 -0.162282,0.01229 -0.25,0.09375 -0.225737,0.209621 -0.541699,0.474494 -0.78125,0.6875 -0.0054,0.0048 -0.02581,-0.0048 -0.03125,0 -1.077318,0.376051 -2.351395,0.861937 -3.71875,1.375 -1.537689,0.576976 -3.106214,1.172307 -4.4375,1.65625 -1.331286,0.483943 -2.467535,0.850183 -2.875,0.9375 -9.135791,1.957749 -18.397517,7.553792 -25.78125,12.96875 -0.793161,0.581675 -1.327131,1.306225 -1.78125,1.9375 -0.45412,0.631275 -0.848818,1.135968 -1.281251,1.40625 -0.829016,0.518156 -1.779166,1.553279 -2.625,2.6875 -1.9628957,0.873885 -3.9079932,1.821569 -5.9062499,2.5625 a 0.750075,0.750075 0 1 0 0.5,1.40625 C 7.3543912,45.568383 8.7316981,44.903939 10.125,44.3125 9.9791623,44.669703 9.7465954,45.011739 9.6875001,45.375 c -0.1304296,0.801755 0.031969,1.708909 0.7187499,2.28125 2.461306,2.051171 6.199042,1.69959 9.750001,0.75 3.550959,-0.94959 7.042484,-2.576206 9.125,-3.46875 5.012922,-2.148482 10.877491,-3.146862 16.21875,-5.3125 -1.685193,1.798854 -2.914566,3.780721 -4.5625,5.0625 -0.361244,0.280979 -0.687476,0.688926 -1.125,1.21875 -0.437524,0.529824 -0.92057,1.17403 -1.40625,1.78125 -0.201366,0.251758 -0.371754,0.423029 -0.5625,0.65625 -0.266326,0.162098 -0.445111,0.28313 -0.6875,0.4375 -0.486289,0.309703 -0.875522,0.549296 -1.1875,0.90625 -0.078,0.08924 -0.152839,0.192817 -0.21875,0.375 -0.06591,0.182183 -0.07631,0.532058 0.09375,0.78125 0.170057,0.249192 0.378892,0.335414 0.53125,0.375 0.152358,0.03959 0.30238,0.03125 0.4375,0.03125 0.298237,0 0.421568,-0.08724 0.53125,-0.15625 0.109682,-0.06901 0.191642,-0.138762 0.28125,-0.21875 0.179216,-0.159977 0.357668,-0.364117 0.5625,-0.59375 0.185795,-0.208291 0.415561,-0.496999 0.625,-0.75 0.732768,-0.439164 1.523302,-0.891807 2.03125,-1.28125 0.751611,-0.576259 2.78189,-2.175492 4.875,-3.5 1.046555,-0.662254 2.106558,-1.27306 3,-1.625 0.600642,-0.236602 0.882202,-0.178442 1.21875,-0.1875 -0.0786,0.186432 -0.130608,0.32165 -0.25,0.5625 -0.434613,0.876748 -1.10083,2.007498 -1.71875,3.09375 -0.61792,1.086252 -1.19338,2.115889 -1.5,2.8125 -0.07666,0.174153 -0.143271,0.301113 -0.1875,0.46875 -0.04423,0.167637 -0.190956,0.370215 0.09375,0.8125 0.142353,0.221142 0.479484,0.37505 0.6875,0.375 0.208016,-5e-5 0.340149,-0.04736 0.4375,-0.09375 0.194702,-0.09278 0.330095,-0.201024 0.5,-0.34375 a 0.750075,0.750075 0 0 0 0.09375,-1.09375 c 0.285429,-0.573712 0.679177,-1.293911 1.1875,-2.1875 0.616816,-1.08431 1.280979,-2.241341 1.75,-3.1875 0.23451,-0.47308 0.418112,-0.877561 0.53125,-1.25 0.05657,-0.18622 0.09872,-0.360634 0.09375,-0.59375 -0.0025,-0.116558 -0.01484,-0.273448 -0.09375,-0.4375 -0.07891,-0.164052 -0.243633,-0.323161 -0.4375,-0.40625 -0.917615,-0.39328 -1.894177,-0.129731 -2.9375,0.28125 -1.043323,0.410981 -2.188879,1.027504 -3.28125,1.71875 -1.069052,0.67649 -1.569371,1.108526 -2.4375,1.75 1.611622,-1.481721 2.847029,-3.25472 4.25,-4.71875 0.723797,-0.755297 1.672685,-1.727959 2.4375,-2.53125 4.288194,-2.286423 8.636346,-4.601665 13.15625,-6.65625 5.070378,-2.304811 9.588638,-6.268434 13.8125,-9.9375 2.343641,-2.035808 5.88522,-5.051857 8.71875,-7.75 1.416765,-1.349072 2.666338,-2.616902 3.5,-3.6874996 0.416831,-0.5352989 0.741955,-1.0213402 0.9375,-1.5 0.09777,-0.2393299 0.152666,-0.4745288 0.15625,-0.75 0.0036,-0.2754712 -0.07236,-0.6000362 -0.28125,-0.84375 -0.443318,-0.5172251 -1.071379,-0.8154004 -1.71875,-0.90625 -0.323686,-0.045425 -0.654407,-0.060295 -1,-0.03125 z m 0.125,1.53125 c 0.245805,-0.020086 0.46739,-0.026504 0.65625,0 0.334986,0.047011 0.515695,0.1738017 0.6875,0.34375 -0.0091,0.035041 -0.009,0.039341 -0.03125,0.09375 -0.102441,0.2507566 -0.347353,0.6480473 -0.71875,1.125 -0.742795,0.9539055 -1.9528,2.2067596 -3.34375,3.5312496 -2.7819,2.648981 -6.328344,5.638214 -8.6875,7.6875 -4.228726,3.673292 -8.65751,7.545939 -13.4375,9.71875 -3.247566,1.476226 -6.28263,3.158134 -9.375,4.78125 7.127122,-7.464356 15.093592,-15.663284 22.34375,-20.78125 1.042314,-0.735781 3.97547,-2.945614 6.9375,-4.5937496 1.481015,-0.8240681 2.969567,-1.4966192 4.15625,-1.78125 0.296671,-0.071158 0.566695,-0.1049135 0.8125,-0.125 z M 122.8125,10.28125 c -0.26474,0.0578 -0.48968,0.270244 -0.5625,0.53125 -0.1511,0.442894 -1.03253,1.731728 -2.28125,3.125 -1.01574,1.133328 -2.36928,2.343025 -3.71875,3.5 -1.67527,0.355801 -3.17963,0.719795 -4,0.90625 -0.26006,0.05911 -0.68365,0.200044 -1.3125,0.40625 -0.62885,0.206206 -1.3971,0.494516 -2.125,0.78125 -0.7279,0.286734 -1.41718,0.560682 -1.9375,0.875 -0.26016,0.157159 -0.48516,0.303565 -0.6875,0.5625 -0.10117,0.129468 -0.19899,0.300113 -0.21875,0.5625 -0.0198,0.262387 0.087,0.586963 0.25,0.75 0.59736,0.597387 1.40514,0.899037 2.21875,0.9375 0.81361,0.03846 1.66114,-0.173361 2.53125,-0.5 1.74023,-0.653279 3.60439,-1.864724 5.375,-3.28125 0.18546,-0.148373 0.31699,-0.31644 0.5,-0.46875 1.21708,-0.263171 2.07412,-0.546033 3.34375,-0.65625 1.44203,-0.125184 2.81156,-0.09663 3.78125,0.21875 0.96969,0.315377 1.50504,0.792649 1.71875,1.71875 0.54331,2.354439 -0.22695,4.252197 -1.90625,6.03125 -1.6793,1.779053 -4.2827,3.324857 -7.15625,4.65625 -2.07429,0.961075 -4.2287,1.707894 -6.34375,2.46875 0.12268,-0.649853 0.0549,-1.351344 -0.4375,-1.84375 -0.60278,-0.602804 -1.50126,-0.649931 -2.21875,-0.4375 -0.71749,0.212431 -1.38864,0.621752 -2.03125,1.09375 -0.64261,0.471998 -1.2498,1.015665 -1.75,1.46875 -0.5002,0.453085 -0.92079,0.831213 -1.0625,0.9375 -1.05086,0.788184 -1.76572,1.790174 -2.40625,2.78125 -3.892734,2.195666 -8.514961,4.686897 -12.406249,6.28125 -3.969377,1.626348 -8.301961,3.484337 -10.5625,6.8125 -0.218103,0.438442 -0.287837,1.393061 -0.03125,1.90625 0.559989,1.120025 2.064806,1.585746 3.15625,1.78125 1.091444,0.195504 2.217804,0.0799 3.125,-0.25 7.43521,-2.703822 11.781509,-7.177172 16.499999,-13.46875 0.48853,-0.651394 0.89785,-1.325124 1.3125,-1.96875 0.13475,-0.07512 0.30484,-0.177637 0.4375,-0.25 0.94595,-0.515991 2.94444,-1.19192 4.875,-1.875 -0.87509,1.113516 -1.77212,2.218306 -2.84375,3.53125 -1.50766,1.847166 -3.63075,3.898726 -4.531249,5.84375 -0.900503,1.945024 -1.236461,4.004611 -0.09375,5.71875 0.45378,0.680701 1.949429,0.823655 2.749999,0.78125 0.80057,-0.04241 1.67631,-0.295735 2.65625,-0.6875 1.95988,-0.783529 4.31532,-2.13522 6.6875,-3.625 2.37218,-1.48978 4.76557,-3.133731 6.75,-4.5 1.98443,-1.366269 3.59703,-2.460888 4.25,-2.8125 0.21437,-0.115434 0.35197,-0.247191 0.53125,-0.40625 0.17928,-0.159059 0.37006,-0.338137 0.59375,-0.5625 0.44738,-0.448725 0.97991,-1.02362 1.46875,-1.59375 0.48884,-0.57013 0.9251,-1.122051 1.25,-1.625 0.16245,-0.251475 0.31444,-0.495632 0.40625,-0.75 0.0459,-0.127184 0.0911,-0.252292 0.0937,-0.4375 0.003,-0.185208 -0.0745,-0.480783 -0.28125,-0.6875 -0.21844,-0.218449 -0.44667,-0.265995 -0.625,-0.28125 -0.17833,-0.01526 -0.34644,0.0043 -0.5,0.03125 -0.30713,0.05391 -0.60735,0.147581 -0.96875,0.28125 -0.72279,0.267337 -1.5915,0.697447 -2.46875,1.125 -0.87725,0.427553 -1.78242,0.880461 -2.5,1.25 -0.71758,0.369539 -1.31863,0.6712 -1.4375,0.71875 -0.34445,0.137785 -1.67396,0.50534 -2.625,0.8125 -0.47552,0.15358 -0.77962,0.231913 -1.125,0.4375 -0.0432,0.0257 -0.091,0.06729 -0.15625,0.125 -0.0652,0.05771 -0.18059,0.124836 -0.25,0.375 -0.0694,0.250164 0.0838,0.675385 0.25,0.8125 0.16624,0.137115 0.26756,0.139147 0.34375,0.15625 0.30475,0.06841 0.4281,0.02358 0.6875,0 0.26598,-0.02058 0.51462,-0.194625 0.625,-0.4375 0.0488,-0.01675 0.0439,-0.01514 0.0937,-0.03125 0.90867,-0.293473 2.1271,-0.63833 2.71875,-0.875 0.34049,-0.136202 0.84431,-0.411398 1.5625,-0.78125 0.71819,-0.369852 1.6123,-0.801337 2.46875,-1.21875 0.75288,-0.366936 1.43416,-0.701699 2.03125,-0.9375 -0.23314,0.312634 -0.45082,0.619812 -0.75,0.96875 -0.4625,0.539415 -0.95858,1.082328 -1.375,1.5 -0.20821,0.208836 -0.38609,0.371211 -0.53125,0.5 -0.14516,0.128789 -0.27319,0.216814 -0.21875,0.1875 -0.87211,0.469621 -2.4238,1.572589 -4.40625,2.9375 -1.98245,1.364911 -4.35066,2.969915 -6.6875,4.4375 -2.33684,1.467585 -4.64588,2.783738 -6.4375,3.5 -0.89581,0.358131 -1.67038,0.566359 -2.1875,0.59375 -0.51712,0.02739 -0.68787,-0.04743 -0.78125,-0.1875 -0.77184,-1.157809 0.14431,-2.380522 0.9375,-4.09375 0.79319,-1.713228 2.1409,-3.900445 3.625,-5.71875 1.4841,-1.818305 2.33955,-3.455279 3.375,-4.96875 0.0982,-0.143551 0.12958,-0.266621 0.21875,-0.40625 2.53296,-0.889829 5.25623,-1.849155 7.875,-3.0625 2.96229,-1.372507 5.72081,-2.982698 7.625,-5 1.90419,-2.017302 2.94104,-4.547056 2.28125,-7.40625 -0.33357,-1.445531 -1.42375,-2.360068 -2.71875,-2.78125 -1.295,-0.421182 -2.82447,-0.447103 -4.375,-0.3125 -0.39544,0.03433 -0.75916,0.133527 -1.15625,0.1875 0.72901,-0.701612 1.58714,-1.392642 2.1875,-2.0625 1.30658,-1.457833 2.22072,-2.654406 2.5625,-3.65625 0.18606,-0.496133 -0.32338,-1.099915 -0.84375,-1 z m 57.5,3.9375 c -0.38095,0.0016 -0.76085,0.04245 -1.125,0.125 -1.45661,0.330192 -2.79606,1.076696 -4.15625,1.5625 -5.97004,2.132242 -11.25865,5.122812 -16.1875,9.3125 -4.0359,3.430656 -7.93233,8.628594 -12.15625,13.28125 -4.22392,4.652656 -8.77109,8.719313 -13.875,10.0625 -0.40368,0.106236 -0.68315,0.140452 -0.8125,0.125 -0.0259,-0.0031 -0.0196,0.0031 -0.0312,0 0.025,0.03742 -0.0202,0.01695 0,-0.15625 0.0202,-0.1732 0.11042,-0.449379 0.25,-0.78125 0.55834,-1.327485 2.07022,-3.499147 3.875,-5.65625 1.80478,-2.157103 3.90002,-4.350959 5.625,-5.90625 0.86249,-0.777646 1.62238,-1.386207 2.1875,-1.75 0.28256,-0.181896 0.53665,-0.303662 0.65625,-0.34375 A 0.75470529,0.75470529 0 1 0 145.25,32.75 c -0.42217,-0.293706 -0.86754,-0.200997 -1.1875,-0.09375 -0.31996,0.107247 -0.6253,0.278903 -0.96875,0.5 -0.68691,0.442195 -1.47706,1.096642 -2.375,1.90625 -1.79588,1.619216 -3.93094,3.85097 -5.78125,6.0625 -1.85031,2.21153 -3.42652,4.370561 -4.125,6.03125 -0.17462,0.415172 -0.29858,0.800505 -0.34375,1.1875 -0.0452,0.386995 0.002,0.816963 0.25,1.1875 0.24805,0.370537 0.67214,0.574637 1.09375,0.625 0.42161,0.05036 0.86019,-0.02077 1.375,-0.15625 5.60884,-1.476071 10.30735,-5.77852 14.59375,-10.5 4.2864,-4.72148 8.20415,-9.871834 12.03125,-13.125 4.79283,-4.074066 9.90071,-6.984544 15.71875,-9.0625 1.51461,-0.540953 2.85771,-1.24106 4,-1.5 1.14229,-0.25894 1.99455,-0.193003 3.125,0.9375 0.0242,0.02419 0.0295,0.03668 0.0312,0.03125 5.6e-4,0.01522 -0.002,0.05528 -0.0625,0.15625 -0.1427,0.237577 -0.53776,0.616999 -1,0.96875 -0.46224,0.351751 -0.98687,0.667367 -1.4375,0.9375 -0.45063,0.270133 -0.76483,0.432834 -1,0.59375 -3.59109,2.457153 -8.46352,5.791258 -12.5,6.65625 -0.0919,0.0197 -0.38149,0.04156 -0.53125,0.0625 -0.94102,-0.396006 -2.00321,-0.546106 -3.03125,-0.09375 -0.50172,0.220766 -0.91975,0.457676 -1.25,0.6875 -0.33025,0.229824 -0.55471,0.394124 -0.75,0.6875 -0.0488,0.07334 -0.11753,0.171004 -0.15625,0.3125 -0.0387,0.141496 -0.0545,0.378459 0.0937,0.625 0.14823,0.246541 0.4043,0.349133 0.5625,0.375 0.1582,0.02587 0.28251,0.0175 0.375,0 0.36996,-0.07 0.63408,-0.224187 1.09375,-0.5 0.12023,-0.07214 0.9202,-0.270063 1.71875,-0.375 0.44559,-0.05855 0.80885,-0.137188 1.21875,-0.1875 0.059,0.03939 0.13301,0.04982 0.1875,0.09375 0.65586,0.528775 0.97592,1.246678 0.5625,2.15625 -1.42222,3.128997 -5.60984,6.65812 -8.59375,9.34375 -1.1784,1.060603 -2.35367,2.159789 -3.53125,3.15625 -0.91875,0.77744 -1.78387,1.626052 -2.59375,2.53125 -1.04938,1.172883 -3.15367,1.774428 -4.46875,1.28125 -0.52113,-0.195431 -0.81644,-0.433543 -0.96875,-0.625 -0.15231,-0.191457 -0.19788,-0.363913 -0.1875,-0.59375 0.0208,-0.459673 0.43414,-1.199889 1.09375,-1.875 0.65961,-0.675111 1.54438,-1.283113 2.3125,-1.625 0.38406,-0.170944 0.74458,-0.253322 1,-0.28125 0.25542,-0.02793 0.3578,0.01934 0.375,0.03125 a 0.76290973,0.76290973 0 1 0 0.875,-1.25 c -0.43387,-0.300382 -0.96228,-0.333212 -1.4375,-0.28125 -0.47522,0.05196 -0.95093,0.189677 -1.4375,0.40625 -0.97315,0.433145 -1.97704,1.145639 -2.78125,1.96875 -0.80421,0.823111 -1.45097,1.758434 -1.5,2.84375 -0.0245,0.542658 0.1606,1.127849 0.53125,1.59375 0.37065,0.465901 0.89448,0.831513 1.59375,1.09375 2.0743,0.777896 4.63278,-0.01967 6.125,-1.6875 0.76026,-0.849742 1.56813,-1.63935 2.4375,-2.375 1.21476,-1.027919 2.42807,-2.138349 3.59375,-3.1875 2.94203,-2.64793 7.25014,-6.162653 8.9375,-9.875 0.5417,-1.1918 0.16042,-2.301804 -0.5,-3.1875 4.35972,-1.145463 8.96396,-4.322289 12.375,-6.65625 0.0215,-0.01474 0.43186,-0.246873 0.90625,-0.53125 0.47439,-0.284377 1.05852,-0.655201 1.59375,-1.0625 0.53523,-0.407299 1.04362,-0.854553 1.375,-1.40625 0.16569,-0.275848 0.28685,-0.594383 0.28125,-0.96875 -0.006,-0.374367 -0.19455,-0.757034 -0.46875,-1.03125 -1.0765,-1.076548 -2.26341,-1.473675 -3.40625,-1.46875 z M 233.09375,17.25 c -0.29259,0 -0.38369,0.05999 -0.53125,0.125 -0.14756,0.06501 -0.30979,0.158517 -0.46875,0.25 -0.31791,0.182966 -0.67525,0.413348 -1.03125,0.65625 -0.71201,0.485804 -1.39141,1.003554 -1.65625,1.21875 -2.51165,2.040799 -4.40567,4.502943 -6.8125,6.375 -2.21391,1.722003 -5.28278,3.491669 -8.15625,5.5 -2.87347,2.008331 -5.56682,4.241835 -7.125,6.96875 -0.0372,0.06509 -0.17515,0.17967 -0.21875,0.25 -3.01037,1.81193 -6.24974,3.787739 -9.21875,5.28125 -1.81108,0.911036 -3.50191,1.639711 -4.84375,2.09375 -1.34184,0.454039 -2.38074,0.53345 -2.65625,0.4375 -0.13776,-0.04798 -0.0999,-0.01363 -0.125,-0.125 -0.0251,-0.111366 0.002,-0.424309 0.1875,-0.9375 0.37112,-1.026382 1.35999,-2.713445 3.15625,-5.0625 1.86254,-2.435724 3.38161,-5.190124 6.09375,-5.8125 A 0.7542199,0.7542199 0 1 0 199.34375,33 c -3.49848,0.802822 -5.18788,4.055704 -6.9375,6.34375 -1.435,1.876626 -2.38922,3.346411 -2.96875,4.53125 -0.13233,-0.243216 -0.31171,-0.477941 -0.5625,-0.5625 -0.0476,-0.100376 -0.12499,-0.249995 -0.125,-0.25 -0.80358,-0.301352 -1.63532,-0.09899 -2.40625,0.21875 -0.16695,0.06881 -0.30564,0.198022 -0.46875,0.28125 -0.4843,0.0716 -0.9105,0.1875 -1.4375,0.1875 -1.63376,0 -2.95056,1.054022 -4.1875,2.03125 -1.23694,0.977228 -2.42358,1.915957 -3.46875,2.125 -1.2978,0.259572 -2.17272,0.228026 -2.625,0.09375 -0.45228,-0.134276 -0.51352,-0.241991 -0.5625,-0.53125 -0.098,-0.578518 0.52253,-2.175236 1.65625,-3.75 0.70316,-0.976709 1.61088,-1.798493 2.46875,-2.6875 0.90373,-0.510082 1.91341,-1.055424 2.59375,-1.5 0.60553,-0.395687 1.08304,-0.753568 1.4375,-1.09375 0.17723,-0.170091 0.34887,-0.341002 0.46875,-0.59375 0.0599,-0.126374 0.10475,-0.290653 0.0937,-0.5 -0.011,-0.209347 -0.13394,-0.446436 -0.28125,-0.59375 -0.33093,-0.330945 -0.76698,-0.314965 -1.0625,-0.25 -0.29552,0.06497 -0.56065,0.182929 -0.84375,0.34375 -0.5662,0.321641 -1.21115,0.798492 -1.90625,1.40625 -0.46497,0.406545 -0.91923,1.036561 -1.40625,1.53125 -0.64955,0.364906 -1.14098,0.688937 -1.84375,1.0625 -1.72427,0.916555 -3.49994,1.827709 -4.9375,2.53125 -1.43756,0.703541 -2.57553,1.230208 -2.78125,1.3125 -2.18756,0.875057 -4.14008,1.967569 -6.21875,2.59375 a 0.750075,0.750075 0 1 0 0.40625,1.4375 c 2.29093,-0.690121 4.28175,-1.800167 6.34375,-2.625 0.39699,-0.158804 1.45613,-0.665315 2.90625,-1.375 0.92577,-0.453072 2.07963,-1.056287 3.1875,-1.625 -1.13032,1.600764 -1.99807,3.159954 -1.75,4.625 0.13064,0.771525 0.74248,1.466022 1.59375,1.71875 0.85127,0.252728 1.91669,0.222924 3.34375,-0.0625 1.60526,-0.321065 2.87957,-1.478249 4.09375,-2.4375 0.7421,-0.58629 1.44589,-1.006164 2.09375,-1.3125 -0.17223,0.200066 -0.43752,0.39538 -0.5625,0.59375 -0.16898,0.268206 -0.28708,0.503874 -0.3125,0.875 -0.0127,0.185563 -0.007,0.411914 0.125,0.625 0.13188,0.213086 0.36276,0.370918 0.5625,0.4375 2.32772,0.775936 4.45241,-0.46922 5.59375,-1.75 0.0304,-0.03413 0.0643,-0.05991 0.0937,-0.09375 0.007,0.101373 0.009,0.21352 0.0312,0.3125 0.12595,0.557635 0.58442,1.010121 1.09375,1.1875 1.01865,0.354759 2.20114,0.08612 3.65625,-0.40625 1.45511,-0.492366 3.15284,-1.289565 5,-2.21875 1.88874,-0.950101 3.82287,-2.16572 5.8125,-3.3125 -0.86849,0.991575 -1.62145,2.05893 -2.21875,2.65625 -0.61564,0.615662 -1.08647,1.596496 -1.53125,2.375 -0.10387,0.08014 -0.25951,0.182967 -0.34375,0.25 -0.13259,0.105502 -0.25553,0.202188 -0.34375,0.28125 -0.0441,0.03953 -0.0769,0.07223 -0.125,0.125 -0.024,0.02638 -0.055,0.06691 -0.0937,0.125 -0.0194,0.02904 -0.036,0.06396 -0.0625,0.125 -0.0132,0.03052 -0.0188,0.07611 -0.0312,0.125 -0.0125,0.04889 -0.0312,0.1866 -0.0312,0.1875 0,0.115407 -0.002,0.205811 0.0312,0.34375 0.0328,0.137939 0.10106,0.349408 0.375,0.53125 0.27394,0.181842 0.64649,0.143952 0.8125,0.0625 0.16601,-0.08145 0.2419,-0.176224 0.3125,-0.25 0.22119,-0.231132 0.35767,-0.513855 0.53125,-0.8125 0.19104,-0.146225 0.34522,-0.252269 0.59375,-0.4375 0.87202,-0.64992 2.0617,-1.528708 3.28125,-2.40625 2.3441,-1.686728 4.69896,-3.351261 5.40625,-3.84375 -0.13149,0.623077 -0.37028,1.460959 -0.625,2.5 -0.30866,1.25908 -0.61049,2.568151 -0.25,3.75 0.18024,0.590924 0.59454,1.175178 1.21875,1.46875 0.62421,0.293572 1.40284,0.32165 2.3125,0.15625 2.60601,-0.473841 5.77499,-1.487726 8.6875,-2.9375 2.75726,-1.372495 5.20756,-3.158521 6.6875,-5.375 0.0252,0.02198 0.0381,0.0029 0.0625,0.03125 0.0951,0.110281 0.16515,0.253874 0.1875,0.34375 0.0223,0.08988 10e-4,0.09192 0,0.09375 -1.22665,1.84006 -3.60922,3.154896 -4.9375,5.5625 -0.004,0.0079 0.004,0.02334 0,0.03125 a 0.750075,0.750075 0 0 0 1.3125,0.6875 c 0.007,-0.01214 0.0246,-0.01916 0.0312,-0.03125 0.78297,-1.588009 2.08702,-2.086272 3.71875,-2.46875 1.63173,-0.382478 3.51798,-0.521808 5.03125,-1.59375 1.77381,-1.256495 4.56868,-2.094028 6.84375,-2.8125 0.16915,-0.05342 1.43742,-0.431731 3.125,-0.96875 1.05803,-0.336685 2.4122,-0.828762 3.6875,-1.28125 -3.68026,3.868669 -7.72387,8.733071 -10.75,12.65625 -0.31166,0.249197 -0.40973,0.312203 -0.71875,0.5625 -1.69733,1.374791 -3.30734,2.746261 -4.46875,3.84375 -0.58071,0.548745 -1.0506,1.020314 -1.375,1.4375 -0.1622,0.208593 -0.2792,0.41474 -0.375,0.65625 -0.0479,0.120755 -0.0981,0.246282 -0.0937,0.4375 0.004,0.191218 0.0784,0.453353 0.25,0.625 0.22855,0.228563 0.58311,0.270443 0.78125,0.25 0.19814,-0.02044 0.3354,-0.06226 0.46875,-0.125 0.26669,-0.125474 0.50548,-0.320218 0.78125,-0.53125 0.55153,-0.422064 1.17582,-1.009508 1.8125,-1.625 0.63668,-0.615492 1.28535,-1.256144 1.78125,-1.78125 0.4959,-0.525106 0.79274,-0.86357 0.96875,-1.09375 0.2898,-0.378989 0.8537,-1.036312 1.1875,-1.46875 3.07876,-2.460667 6.3873,-5.009207 7.125,-5.5625 0.9311,-0.698359 1.63504,-1.483187 2.40625,-2.09375 0.89368,-0.707524 1.65107,-1.423828 2.4375,-1.71875 0.15681,-0.0588 0.18222,-0.05035 0.3125,-0.09375 -0.0166,0.02314 -0.0143,0.03892 -0.0312,0.0625 -0.44408,0.613142 -1.04846,1.365323 -1.46875,2.15625 -0.21015,0.395464 -0.39513,0.809991 -0.46875,1.25 -0.0736,0.440009 -0.004,0.946589 0.28125,1.375 0.26179,0.392705 0.65069,0.633494 1.0625,0.75 0.41181,0.116506 0.84493,0.133899 1.28125,0.09375 0.87264,-0.0803 1.82788,-0.378636 2.75,-0.71875 0.92212,-0.340114 1.8088,-0.740084 2.53125,-1.0625 0.36122,-0.161208 0.6598,-0.302751 0.90625,-0.40625 0.24645,-0.103499 0.45322,-0.159395 0.4375,-0.15625 a 0.750075,0.750075 0 1 0 -0.28125,-1.46875 c -0.25737,0.05148 -0.44513,0.135088 -0.71875,0.25 -0.27362,0.114912 -0.60878,0.276853 -0.96875,0.4375 -0.71993,0.321293 -1.57657,0.682454 -2.4375,1 -0.86093,0.317546 -1.71109,0.566785 -2.34375,0.625 -0.31633,0.02911 -0.59455,0.01273 -0.75,-0.03125 -0.15545,-0.04398 -0.17598,-0.09209 -0.21875,-0.15625 -0.0328,-0.04916 -0.0633,-0.09051 -0.0312,-0.28125 0.0319,-0.190743 0.11596,-0.470197 0.28125,-0.78125 0.33058,-0.622106 0.88135,-1.361567 1.34375,-2 0.2312,-0.319216 0.46269,-0.614562 0.625,-0.90625 0.16231,-0.291688 0.39636,-0.57762 0.1875,-1.15625 -0.10443,-0.289315 -0.4176,-0.526188 -0.65625,-0.59375 -0.23865,-0.06756 -0.42141,-0.05768 -0.625,-0.03125 -0.40718,0.05286 -0.85503,0.195627 -1.5,0.4375 -1.17121,0.439222 -2.04762,1.282462 -2.875,1.9375 -0.90319,0.715053 -1.59918,1.511859 -2.375,2.09375 -0.23313,0.174857 -1.6246,1.275208 -2.25,1.75 3.1787,-3.952234 6.38016,-7.725536 8.9375,-10.09375 1.6154,-0.66689 3.22651,-1.33571 4.3125,-2.0625 0.66524,-0.445206 1.20873,-0.889918 1.53125,-1.46875 0.16126,-0.289416 0.25948,-0.633038 0.21875,-1 -0.0407,-0.366962 -0.24425,-0.712993 -0.5,-0.96875 -0.28625,-0.286264 -0.69992,-0.424411 -1.0625,-0.40625 -0.36258,0.01816 -0.67729,0.154218 -0.96875,0.3125 -0.58292,0.316563 -1.10514,0.793107 -1.625,1.3125 -0.51986,0.519393 -1.01551,1.076418 -1.40625,1.53125 -0.39074,0.454832 -0.77356,0.864057 -0.75,0.84375 -0.17393,0.149944 -0.44215,0.520285 -0.625,0.6875 -0.25528,0.103991 -0.3957,0.21087 -0.65625,0.3125 -1.98905,0.775856 -4.08113,1.468934 -5.75,2 -1.66887,0.531066 -2.86235,0.875935 -3.15625,0.96875 -2.25617,0.712504 -5.14895,1.542945 -7.25,3.03125 -1.01101,0.716161 -2.6327,0.922611 -4.34375,1.3125 0.45359,-0.476289 0.9302,-0.895274 1.3125,-1.46875 0.27208,-0.40814 0.28266,-0.867383 0.1875,-1.25 -0.0952,-0.382617 -0.27174,-0.7041 -0.5,-0.96875 -0.22826,-0.26465 -0.47863,-0.500629 -0.84375,-0.625 -0.18256,-0.06218 -0.43274,-0.09514 -0.6875,-0.03125 -0.25476,0.06389 -0.49256,0.248007 -0.625,0.46875 -1.1903,1.983919 -3.61,3.811152 -6.375,5.1875 -2.765,1.376348 -5.8606,2.335432 -8.3125,2.78125 -0.72183,0.131247 -1.14718,0.04464 -1.375,-0.0625 -0.22782,-0.107144 -0.34739,-0.235834 -0.4375,-0.53125 -0.18022,-0.590832 -0.0407,-1.783081 0.25,-2.96875 0.29067,-1.185669 0.68313,-2.330106 0.78125,-3.21875 0.0245,-0.222161 0.0557,-0.436939 0,-0.6875 -0.0557,-0.250561 -0.24599,-0.603574 -0.59375,-0.75 -0.34776,-0.146426 -0.66028,-0.06104 -0.90625,0.03125 -0.24597,0.09229 -0.48657,0.223868 -0.75,0.40625 -0.58503,0.405036 -3.01559,2.109056 -5.34375,3.78125 1.20689,-1.315107 2.36589,-2.674069 3.21875,-3.96875 0.57686,-0.34817 1.23634,-0.697346 1.78125,-1.03125 3.46447,-2.122934 6.27447,-3.902471 6.84375,-4.21875 0.86779,-0.482123 2.21033,-1.63051 3.96875,-3.1875 1.75842,-1.55699 3.84492,-3.496442 5.84375,-5.375 1.99883,-1.878558 3.92271,-3.702306 5.34375,-5.0625 0.71052,-0.680097 1.27691,-1.233851 1.6875,-1.625 0.2053,-0.195575 0.39176,-0.367764 0.5,-0.46875 0.003,-0.0015 -0.003,-0.02997 0,-0.03125 0.04,-0.02193 0.0813,-0.05377 0.0937,-0.0625 0.0248,-0.01745 0.0276,-0.02828 0.0312,-0.03125 0.006,-0.0037 0.0312,2.1e-5 0.0312,0 1.6e-4,-1.31e-4 0.18742,-0.218612 0.1875,-0.21875 8e-5,-1.38e-4 0.0937,-0.374855 0.0937,-0.375 0,-1.45e-4 -0.0937,-0.343599 -0.0937,-0.34375 -8e-5,-1.51e-4 -0.12484,-0.187342 -0.125,-0.1875 -1.6e-4,-1.58e-4 -0.0935,-0.09359 -0.0937,-0.09375 -2.4e-4,-1.64e-4 -0.0747,-0.02113 -0.0937,-0.03125 -0.0381,-0.02023 -0.0418,-0.02327 -0.0625,-0.03125 -0.0828,-0.03192 -0.0996,-0.02574 -0.125,-0.03125 -0.0746,-0.01622 -0.13003,-0.02433 -0.1875,-0.03125 -0.0207,-0.0025 -0.0388,-0.0284 -0.0625,-0.03125 C 233.50814,17.25973 233.2903,17.25 233.09375,17.25 z m -34.78125,0.21875 a 0.750075,0.750075 0 0 0 -0.375,0.1875 c -0.23923,0.19583 -0.42738,0.402237 -0.59375,0.625 -0.88544,0.663029 -1.3984,1.29241 -1.59375,1.9375 -0.10382,0.342858 -0.10724,0.701778 0.0312,1.03125 0.13854,0.329472 0.42406,0.583786 0.75,0.6875 0.65188,0.207428 1.35187,-0.125706 1.75,-0.71875 0.35825,-0.533645 0.51634,-1.296996 0.4375,-2.25 0.0503,-0.05126 0.0986,-0.109071 0.15625,-0.15625 a 0.750075,0.750075 0 0 0 -0.5625,-1.34375 z M 113,19.71875 c -0.87233,0.549842 -1.79414,1.305308 -2.5625,1.59375 -0.74308,0.27895 -1.4138,0.431007 -1.9375,0.40625 -0.2007,-0.0095 -0.30729,-0.138946 -0.46875,-0.1875 0.37529,-0.195169 0.77335,-0.412617 1.3125,-0.625 0.68972,-0.271693 1.45592,-0.519844 2.0625,-0.71875 0.60658,-0.198906 1.10314,-0.355826 1.1875,-0.375 0.0831,-0.01889 0.31403,-0.07178 0.40625,-0.09375 z m -63.437499,3.1875 c -1.080061,0.926336 -2.020584,1.807553 -3.03125,2.8125 -0.651079,0.378436 -1.366225,0.913734 -1.90625,1.09375 -1.000048,0.333363 -1.949234,0.814103 -2.9375,1.1875 0.176838,-0.370347 0.654121,-0.913561 1.25,-1.4375 1.191758,-1.047878 2.841858,-2.033053 3.125,-2.1875 1.105931,-0.60326 2.323221,-1.016652 3.5,-1.46875 z m 41.78125,1.53125 c -0.0011,2.44e-4 -0.135512,0.06445 -0.1875,0.09375 -0.05199,0.0293 -0.09503,0.06843 -0.125,0.09375 -0.109895,0.09285 -0.131213,0.145354 -0.15625,0.1875 -0.0023,0.0038 -0.02898,-0.0037 -0.03125,0 -0.0187,0.03018 -0.0176,0.03768 -0.03125,0.0625 -0.09494,0.08555 -0.215489,0.201185 -0.375,0.34375 -0.374416,0.334639 -0.905784,0.81785 -1.5625,1.40625 -1.313433,1.176801 -3.093969,2.77022 -4.96875,4.5 -3.749561,3.459561 -7.831694,7.331766 -9.40625,9.46875 -0.06358,0.08628 -0.153814,0.221073 -0.21875,0.3125 -0.116482,0.09929 -0.281481,0.236425 -0.40625,0.34375 -0.326459,-0.542557 -0.607018,-1.125258 -0.78125,-1.78125 a 0.750075,0.750075 0 0 0 -0.78125,-0.59375 0.750075,0.750075 0 0 0 -0.65625,0.96875 c 0.234815,0.884091 0.614036,1.663137 1.0625,2.375 -1.322653,1.065914 -2.965894,2.331119 -4.625,3.5625 -1.719037,1.275861 -3.447788,2.511983 -4.78125,3.34375 -0.666731,0.415884 -1.230292,0.730417 -1.625,0.90625 -0.121057,0.05393 -0.172605,0.06849 -0.25,0.09375 -0.02618,-0.0492 -0.04142,-0.05666 -0.0625,-0.15625 -0.04391,-0.207472 -0.05296,-0.527653 0,-0.90625 0.07381,-0.527655 0.369318,-1.217532 0.625,-1.875 0.201451,-0.203491 0.53003,-0.479535 0.65625,-0.65625 0.646816,-0.905578 1.355259,-1.860598 1.90625,-2.59375 0.275496,-0.366576 0.521759,-0.656323 0.6875,-0.875 0.08287,-0.109338 0.141838,-0.220708 0.1875,-0.28125 0.02283,-0.03027 0.01712,-0.04342 0.03125,-0.0625 -0.273077,-0.0031 -0.578897,-0.04696 -0.875,-0.09375 -0.205539,-0.271147 -0.40624,-0.562536 -0.40625,-0.5625 -1.7e-5,6.2e-5 0.03132,-0.156373 0.03125,-0.15625 -0.04342,0.05757 -0.104542,0.140546 -0.1875,0.25 -0.08817,0.116334 -0.220233,0.305282 -0.34375,0.46875 -0.379661,0.0076 -0.77803,0.01118 -1.03125,0.3125 -0.645744,0.768418 -1.253583,1.737403 -1.75,2.78125 -0.109154,0.229525 -0.122162,0.455326 -0.21875,0.6875 -0.231406,0.226922 -0.299079,0.309614 -0.625,0.59375 -0.718659,0.626522 -1.617359,1.345484 -2.53125,2 -0.913891,0.654516 -1.828576,1.221127 -2.53125,1.53125 -0.351337,0.155062 -0.653554,0.235177 -0.8125,0.25 -0.05298,0.0049 -0.05154,-0.0021 -0.0625,0 -0.0209,-0.04586 -0.03912,-0.114083 -0.03125,-0.28125 0.0121,-0.257183 0.08776,-0.638525 0.25,-1.0625 0.32447,-0.847949 0.954787,-1.886311 1.6875,-2.78125 0.732713,-0.894939 1.594044,-1.649815 2.3125,-2 0.359228,-0.175093 0.669209,-0.25996 0.90625,-0.25 0.237041,0.01 0.389085,0.08458 0.59375,0.28125 a 0.76242956,0.76242956 0 1 0 1.0625,-1.09375 c -0.447094,-0.429629 -1.027079,-0.663688 -1.59375,-0.6875 -0.566671,-0.02381 -1.108569,0.154534 -1.625,0.40625 -1.032861,0.503431 -1.986144,1.365686 -2.8125,2.375 -0.826356,1.009314 -1.535194,2.167388 -1.9375,3.21875 -0.201153,0.525681 -0.320542,1.006684 -0.34375,1.5 -0.02321,0.493316 0.0739,1.028429 0.4375,1.4375 0.348159,0.391695 0.856274,0.477132 1.28125,0.4375 0.424976,-0.03963 0.843346,-0.181732 1.28125,-0.375 0.875808,-0.386536 1.851112,-0.998968 2.8125,-1.6875 0.543807,-0.389467 0.999899,-0.78466 1.5,-1.1875 -0.04646,0.426089 -0.08346,0.855703 0,1.25 0.09598,0.453441 0.344939,0.914942 0.75,1.21875 0.364165,0.273134 0.662535,0.205206 0.90625,0.15625 0.243715,-0.04896 0.493894,-0.135911 0.75,-0.25 0.512211,-0.228177 1.114022,-0.595564 1.8125,-1.03125 1.396957,-0.871373 3.137055,-2.085105 4.875,-3.375 0.804956,-0.597434 1.452416,-1.157561 2.21875,-1.75 -0.712794,0.938345 -1.444883,1.931988 -2.0625,2.34375 -0.829158,0.552794 -1.368325,1.406844 -1.75,2.09375 -0.190838,0.343453 -0.340767,0.651177 -0.4375,0.875 -0.04837,0.111911 -0.09998,0.184817 -0.125,0.25 -0.0048,0.0082 0.0016,0.02806 0,0.03125 -0.0076,0.02011 -0.02504,0.04461 -0.03125,0.0625 -0.0044,0.01278 0.01166,0.02046 0,0.0625 -0.0029,0.01051 -0.03118,0.06216 -0.03125,0.0625 -3.4e-5,1.69e-4 1e-5,0.0624 0,0.0625 -1e-5,1.04e-4 0.03123,0.343711 0.03125,0.34375 1.5e-5,3.9e-5 1.124961,0.343776 1.125,0.34375 3.9e-5,-2.6e-5 0.218687,-0.187408 0.21875,-0.1875 1.27e-4,-1.83e-4 0.02389,-0.07904 0.03125,-0.09375 0.004,-0.0079 0.05226,-0.07998 0.0625,-0.09375 0.08105,-0.108961 0.319568,-0.336583 0.5625,-0.6875 a 0.750075,0.750075 0 0 0 0.125,-0.5625 c 0.310256,-0.497077 0.668018,-1.049501 1.0625,-1.3125 1.180877,-0.787283 2.188756,-2.129432 3.15625,-3.53125 0.355961,-0.515758 0.616967,-0.919665 0.9375,-1.40625 2.06543,1.951087 4.940612,2.830127 7.40625,2.53125 a 0.750075,0.750075 0 1 0 -0.15625,-1.46875 c -2.05944,0.249639 -4.631421,-0.562878 -6.40625,-2.34375 0.149965,-0.223594 0.358947,-0.517667 0.5,-0.71875 0.0326,-0.02802 0.09367,-0.06663 0.125,-0.09375 0.45461,-0.393398 0.726728,-0.653314 0.9375,-0.90625 2.953655,-3.544531 7.818532,-5.819241 11.09375,-9.5625 0.54791,-0.626209 1.424578,-1.395139 2.25,-2.21875 0.825422,-0.823611 1.624559,-1.727947 2.03125,-2.8125 0.05863,-0.156349 0.127185,-0.359938 0.1875,-0.53125 0.0084,-0.0083 0.01213,-0.01014 0.03125,-0.03125 0.0096,-0.01056 0.0059,-0.02867 0.03125,-0.0625 0.02534,-0.03383 0.15625,-0.437309 0.15625,-0.4375 0,-0.04519 0.01608,-0.100739 0,-0.1875 -0.008,-0.04338 -0.02697,-0.106891 -0.0625,-0.1875 -0.01776,-0.0403 -0.05419,-0.07053 -0.09375,-0.125 -0.03956,-0.05447 -0.155359,-0.186869 -0.15625,-0.1875 -8.91e-4,-6.31e-4 -0.311512,-0.124813 -0.3125,-0.125 -9.88e-4,-1.87e-4 -0.311417,-2.44e-4 -0.3125,0 z m -48.21875,0.15625 c -0.471504,0.337743 -0.71732,0.430335 -1.1875,0.84375 -0.670162,0.589253 -1.278942,1.21276 -1.625,1.9375 -0.173029,0.36237 -0.28543,0.778556 -0.21875,1.21875 0.0022,0.01423 0.02867,0.01707 0.03125,0.03125 -8.601295,3.432931 -16.848891,7.99399 -25.25,12 0.698352,-0.475322 1.161932,-1.118476 1.59375,-1.71875 0.456228,-0.634207 0.891102,-1.224292 1.4375,-1.625 7.294833,-5.349762 16.453229,-10.809097 25.21875,-12.6875 z m 7.15625,1.59375 c 0.203246,0.01515 0.354754,0.0735 0.5625,0.28125 0.128807,0.128813 0.145141,0.220068 0.0625,0.5625 -0.08264,0.342432 -0.343634,0.832322 -0.75,1.375 -0.812732,1.085356 -2.173877,2.345512 -3.53125,3.3125 -1.357373,0.966988 -2.785012,1.639284 -3.40625,1.71875 -0.07766,0.0099 -0.08234,0.0024 -0.125,0 0.01,-0.01949 -0.0477,-0.255735 0.1875,-0.84375 0.483841,-1.209651 1.241111,-2.403459 2.1875,-3.5625 0.502991,-0.34116 1.022949,-0.633064 1.5,-1 0.912824,-0.702122 1.784768,-1.358092 2.46875,-1.65625 0.341991,-0.149079 0.640504,-0.202652 0.84375,-0.1875 z m 171.874999,1.78125 c -0.81244,0.744068 -1.71176,1.576148 -2.4375,2.21875 -1.73848,1.539338 -3.23021,2.728575 -3.71875,3 -0.60577,0.336554 -2.92385,1.794562 -5.15625,3.1875 1.29679,-1.31757 2.78242,-2.571387 4.46875,-3.75 2.34404,-1.638298 4.71764,-3.141577 6.84375,-4.65625 z M 108.53125,32.5 c 0.10635,0.01073 0.1679,0.04289 0.25,0.125 0.1244,0.124405 0.17413,0.217746 0.0625,0.625 -0.0619,0.225903 -0.31996,0.608988 -0.5,0.9375 -0.15934,0.05572 -0.3429,0.132732 -0.5,0.1875 -1.80836,0.630445 -3.00674,1.117643 -4.34375,1.65625 0.0665,-0.05546 0.11819,-0.135512 0.1875,-0.1875 0.31806,-0.238553 0.70135,-0.622144 1.1875,-1.0625 0.48615,-0.440356 1.05454,-0.924748 1.625,-1.34375 0.57046,-0.419002 1.14003,-0.749917 1.5625,-0.875 0.21124,-0.06254 0.3624,-0.07323 0.46875,-0.0625 z m 147.15625,0.3125 c 0.0122,0.0053 0.0422,-5.49e-4 0.0312,0 -3.9e-4,4.46e-4 2.1e-4,0.03314 0,0.03125 -8.4e-4,-0.0076 0.0213,0.03061 -0.0312,0.125 -0.10518,0.188773 -0.49367,0.556813 -1.0625,0.9375 -0.17767,0.118907 -0.56992,0.252138 -0.78125,0.375 0.0901,-0.09447 0.15897,-0.190306 0.25,-0.28125 0.4709,-0.470484 0.97378,-0.878552 1.3125,-1.0625 0.15476,-0.08405 0.24114,-0.11929 0.28125,-0.125 z M 98.375001,40.28125 c -4.418825,5.784847 -8.436768,9.77236 -15.25,12.25 -0.630539,0.229296 -1.556575,0.328502 -2.34375,0.1875 -0.787175,-0.141002 -1.389316,-0.466108 -1.6875,-1.0625 0.0232,0.0464 -0.01034,0.02175 0.09375,-0.1875 0.104091,-0.209249 0.348232,-0.525522 0.6875,-0.875 0.678536,-0.698957 1.756571,-1.524819 2.90625,-2.3125 1.149679,-0.787681 2.366223,-1.550664 3.40625,-2.125 1.040027,-0.574336 1.976477,-0.973696 2.1875,-1.03125 3.444748,-0.939515 6.82205,-2.96021 10,-4.84375 z m 89.218749,4.53125 a 0.750075,0.750075 0 0 0 0.25,0.0625 c -0.0936,0.194095 -0.0862,0.277248 -0.3125,0.53125 -0.71972,0.807651 -1.96674,1.406391 -3.28125,1.3125 0.23376,-0.295736 0.49046,-0.625137 0.90625,-0.96875 0.3678,-0.303952 0.7782,-0.52193 1.1875,-0.75 0.35173,-0.05941 0.80564,-0.05674 1.09375,-0.125 0.0678,-0.01605 0.0927,-0.04655 0.15625,-0.0625 z M 120.5625,46.5 a 0.750075,0.750075 0 0 0 -0.1875,0.0625 c -0.8856,0.30521 -1.52744,0.803281 -1.8125,1.4375 -0.28506,0.634219 -0.20193,1.352784 0.125,1.875 0.32693,0.522216 0.94351,0.896745 1.625,0.875 0.68149,-0.02175 1.34907,-0.442462 1.875,-1.15625 0.34474,-0.46788 0.44145,-1.029885 0.375,-1.5 -0.0665,-0.470115 -0.27206,-0.880848 -0.625,-1.1875 -0.17647,-0.153326 -0.39592,-0.283284 -0.6875,-0.3125 -0.0648,-0.0065 -0.12055,0.05604 -0.1875,0.0625 a 0.750075,0.750075 0 0 0 -0.5,-0.15625 z"
       id="path3055"
       inkscape:connector-curvature="0" />
  </g>
</svg>
