<?xml version="1.0" encoding="UTF-8" standalone="no"?>
<!-- Created with Inkscape (http://www.inkscape.org/) -->

<svg
   xmlns:dc="http://purl.org/dc/elements/1.1/"
   xmlns:cc="http://creativecommons.org/ns#"
   xmlns:rdf="http://www.w3.org/1999/02/22-rdf-syntax-ns#"
   xmlns:svg="http://www.w3.org/2000/svg"
   xmlns="http://www.w3.org/2000/svg"
   xmlns:sodipodi="http://sodipodi.sourceforge.net/DTD/sodipodi-0.dtd"
   xmlns:inkscape="http://www.inkscape.org/namespaces/inkscape"
   width="272.4425"
   height="39.644432"
   id="svg2"
   version="1.1"
   inkscape:version="0.47pre2 r22153"
   sodipodi:docname="New document 1">
  <defs
     id="defs4">
    <inkscape:perspective
       sodipodi:type="inkscape:persp3d"
       inkscape:vp_x="0 : 526.18109 : 1"
       inkscape:vp_y="0 : 1000 : 0"
       inkscape:vp_z="744.09448 : 526.18109 : 1"
       inkscape:persp3d-origin="372.04724 : 350.78739 : 1"
       id="perspective10" />
    <inkscape:perspective
       id="perspective2884"
       inkscape:persp3d-origin="0.5 : 0.33333333 : 1"
       inkscape:vp_z="1 : 0.5 : 1"
       inkscape:vp_y="0 : 1000 : 0"
       inkscape:vp_x="0 : 0.5 : 1"
       sodipodi:type="inkscape:persp3d" />
  </defs>
  <sodipodi:namedview
     id="base"
     pagecolor="#ffffff"
     bordercolor="#666666"
     borderopacity="1.0"
     inkscape:pageopacity="0.0"
     inkscape:pageshadow="2"
     inkscape:zoom="0.70910507"
     inkscape:cx="132.20221"
     inkscape:cy="93.642061"
     inkscape:document-units="px"
     inkscape:current-layer="layer1"
     showgrid="false"
     inkscape:window-width="563"
     inkscape:window-height="484"
     inkscape:window-x="0"
     inkscape:window-y="0"
     inkscape:window-maximized="0" />
  <metadata
     id="metadata7">
    <rdf:RDF>
      <cc:Work
         rdf:about="">
        <dc:format>image/svg+xml</dc:format>
        <dc:type
           rdf:resource="http://purl.org/dc/dcmitype/StillImage" />
        <dc:title></dc:title>
      </cc:Work>
    </rdf:RDF>
  </metadata>
  <g
     inkscape:label="Layer 1"
     inkscape:groupmode="layer"
     id="layer1"
     transform="translate(-242.79779,-586.35981)">
    <path
       style="fill:#000000"
       d="m 321.21549,624.75423 c -1.89113,-1.38283 -1.88553,-2.37676 0.0654,-11.60406 l 0.7303,-3.45411 -3.1601,3.23273 c -1.73806,1.77801 -4.07182,5.01986 -5.18614,7.20412 -1.33094,2.60883 -2.70527,3.97137 -4.00573,3.97137 -1.08883,0 -1.97931,-0.5625 -1.97887,-1.25 0.001,-1.57783 3.33347,-10.41762 4.28655,-11.3707 1.23009,-1.23008 0.77534,-4.3793 -0.63237,-4.3793 -2.151,0 -4.65499,-3.42325 -4.65499,-6.36392 0,-3.79644 2.57845,-7.30473 7.47972,-10.17706 4.47477,-2.62239 7.01687,-3.08257 8.02427,-1.45257 0.58852,0.95224 -4.4343,16.38098 -6.62198,20.34093 -1.70794,3.09157 -0.50909,2.74823 3.98041,-1.13992 2.87615,-2.49091 5.65658,-6.49661 8.47343,-12.20746 3.17742,-6.44188 4.73393,-8.57737 6.42836,-8.81955 3.87452,-0.55377 2.41758,4.44453 -3.79561,13.0216 -3.02873,4.18104 -6.71639,17.40686 -5.63741,20.21863 0.52341,1.364 1.024,1.45959 2.76475,0.52797 2.08267,-1.1146 7.9326,-0.91127 10.90406,0.37901 0.825,0.35823 2.175,0.19751 3,-0.35717 1.32509,-0.8909 1.31499,-1.15203 -0.0867,-2.23949 -4.26407,-3.30825 -5.24565,-10.92382 -1.87438,-14.54244 2.67482,-2.87108 4.36515,-2.76157 6.88846,0.4463 2.67748,3.40386 2.69033,9.23392 0.0318,14.44497 -2.70772,5.30759 -5.57211,6.56847 -11.28691,4.96843 -3.75004,-1.04995 -4.87223,-0.99626 -7.49188,0.35841 -3.74776,1.93804 -4.29919,1.95823 -6.64453,0.24328 z m 24.46405,-12.69061 c 0,-3.79763 -0.93875,-5.95934 -2.58794,-5.95934 -2.02448,0 -2.8232,4.59322 -1.39731,8.0356 0.98533,2.3788 1.52423,2.76198 2.61328,1.85815 0.75458,-0.62625 1.37197,-2.39674 1.37197,-3.93441 z m -29.22787,-13.20934 c 1.12849,-3.4375 1.89008,-6.41383 1.69243,-6.61407 -0.67308,-0.68189 -7.26374,3.89835 -7.86534,5.46609 -1.39144,3.62604 0.11824,7.39798 2.96096,7.39798 0.63809,0 2.08347,-2.8125 3.21195,-6.25 z m 33.65109,24.91051 c -0.75082,-1.9566 0.24336,-3.66051 2.1358,-3.66051 1.87963,0 1.85108,2.41476 -0.0472,3.99018 -1.20277,0.99821 -1.60332,0.93499 -2.08861,-0.32967 z m 14.57678,-1.00552 c 0,-2.33451 2.14322,-4.86057 5,-5.89317 1.8577,-0.67148 5.58154,-7.51362 4.61521,-8.47994 -0.38839,-0.38839 -1.5796,-0.1607 -2.64712,0.50597 -2.55199,1.59375 -3.96809,1.53432 -3.96809,-0.16653 0,-1.28386 2.5961,-2.67629 7.58989,-4.07084 2.40796,-0.67244 4.96885,-4.8374 3.96904,-6.45513 -0.37233,-0.60244 -1.57189,-1.09535 -2.6657,-1.09535 -1.0938,0 -3.09671,-1.19553 -4.45091,-2.65674 -1.3542,-1.4612 -2.7904,-2.32851 -3.19157,-1.92735 -0.40116,0.40117 -0.69212,3.47263 -0.64656,6.82547 l 0.0828,6.09606 -2.34351,-2.72448 c -2.84778,-3.31075 -2.89498,-4.51212 -0.393,-10.0043 3.47249,-7.6226 5.93034,-8.22294 8.49875,-2.07587 0.93686,2.24221 2.3187,3.62185 4.06717,4.06069 2.27717,0.57153 3.23598,-0.003 6.84311,-4.10251 3.43128,-3.89938 4.59951,-4.63874 6.41768,-4.06168 4.34421,1.3788 2.08246,5.88686 -5.39066,10.74453 -5.12428,3.33089 -6.06827,6.14948 -2.78095,8.30342 3.34896,2.19432 3.0705,3.90798 -0.51838,3.1902 -3.43373,-0.68674 -4.39995,0.25576 -7.81197,7.62027 -3.05578,6.59562 -4.98245,8.71229 -7.93022,8.71229 -1.79335,0 -2.34501,-0.55166 -2.34501,-2.34501 z m 24.02006,-30.17916 c 0.69572,-0.83829 0.98669,-1.80241 0.64661,-2.1425 -0.72629,-0.72629 -3.66667,1.51036 -3.66667,2.78912 0,1.37744 1.62985,1.02848 3.02006,-0.64662 z m -8.45003,31.63748 c -0.6507,-1.05285 0.74375,-2.26061 5.25875,-4.55475 1.90088,-0.96586 3.90096,-3.057 4.66268,-4.87498 1.75954,-4.19943 5.98558,-8.09824 7.95766,-7.34148 2.27655,0.8736 1.94292,1.99943 -1.98614,6.70222 -1.94537,2.32844 -3.37058,4.73352 -3.16714,5.34461 1.31491,3.9497 10.18021,-0.89795 13.86799,-7.58319 1.55859,-2.82541 3.05609,-4.30574 4.35568,-4.30574 1.78183,0 1.96296,0.6284 1.80569,6.26455 l -0.1748,6.26454 2.6748,-1.91155 c 1.47114,-1.05136 4.61208,-3.9829 6.97986,-6.51455 2.36778,-2.53164 4.67518,-4.60299 5.12755,-4.60299 1.7677,0 3.27775,3.0899 2.68507,5.49425 -0.33973,1.37816 -0.8722,3.74325 -1.18329,5.25575 -0.53858,2.61862 -0.4916,2.65834 0.98348,0.83147 9.37438,-11.61012 10.46969,-12.31842 12.42225,-8.03303 0.92517,2.03053 0.85618,3.13817 -0.33949,5.45034 -1.54635,2.99031 -1.98217,6.00122 -0.86866,6.00122 1.62818,0 7.54915,-4.44562 9.41968,-7.07253 2.89261,-4.0623 5.21605,-5.0682 9.95585,-4.31028 l 4.07474,0.65158 -0.65466,4.36561 c -0.58161,3.87841 -0.43825,4.36562 1.28456,4.36562 3.037,0 5.72239,-3.82243 8.7817,-12.5 1.55124,-4.4 3.68036,-9.2375 4.73139,-10.75 2.1051,-3.02938 4.51862,-3.58109 5.41759,-1.23841 0.69339,1.80694 -2.99638,11.25674 -6.29087,16.11144 -1.29357,1.90618 -2.35195,4.59797 -2.35195,5.98174 0,2.28552 0.33466,2.48753 3.65378,2.2056 3.34448,-0.2841 3.9217,-0.81828 6.81878,-6.31037 2.90502,-5.50714 3.44449,-6.00429 6.56747,-6.05226 3.14958,-0.0484 3.53161,-0.41321 5.14,-4.90878 2.04274,-5.70961 3.1364,-7.01525 5.2098,-6.21961 1.27751,0.49023 0.97902,1.76635 -1.84379,7.88278 -6.72934,14.5811 -5.75017,18.34277 3.84061,14.7544 4.051,-1.51568 5.61335,-2.61753 5.61335,-3.95883 0,-1.09952 -0.83301,-1.98911 -2.03961,-2.17815 -1.12179,-0.17575 -1.90929,-0.76955 -1.75,-1.31955 0.42225,-1.45799 5.79967,-0.91852 7.46733,0.74914 3.76185,3.76186 -5.09382,10.42227 -15.25133,11.47061 -4.70628,0.48573 -5.17694,0.34216 -5.72295,-1.7458 -0.57654,-2.20468 -0.67484,-2.22271 -3.17744,-0.58294 -1.42037,0.93066 -2.97916,1.44696 -3.46398,1.14732 -0.48481,-0.29963 -3.16546,-0.0176 -5.95699,0.62678 -4.51419,1.042 -5.29879,0.96952 -7.09434,-0.65543 -1.68403,-1.52403 -2.44052,-1.63486 -4.56181,-0.66834 -3.61844,1.64867 -7.19585,1.43322 -8.27689,-0.49849 -0.84594,-1.51161 -1.23391,-1.4677 -4.41772,0.5 -4.19653,2.5936 -5.64332,2.69114 -7.25355,0.48903 -1.12326,-1.53615 -1.46836,-1.49111 -4.36197,0.56932 -1.72821,1.2306 -4.15393,2.09375 -5.39048,1.91813 -2.40928,-0.3422 -2.74178,-2.96382 -1.18199,-9.31933 0.70183,-2.85968 0.56162,-2.78952 -2.99753,1.5 -4.3214,5.2082 -7.53039,7.94619 -9.35013,7.97776 -2.36512,0.041 -2.41817,-2.85914 -0.13588,-7.42899 1.2456,-2.49405 1.96847,-4.83089 1.6064,-5.19297 -0.36208,-0.36207 -2.81386,1.35794 -5.44841,3.82225 -10.42066,9.74732 -13.73564,10.16401 -12.64304,1.58924 l 0.67116,-5.26729 -2.37581,3 c -3.30514,4.17349 -5.90246,6.38292 -9.34067,7.94573 -3.14172,1.42805 -5.02057,1.13508 -7.75416,-1.20909 -1.50596,-1.29142 -2.0949,-1.2164 -5.11803,0.652 -3.82944,2.36673 -4.33016,2.48673 -5.11015,1.22467 z m 77.67997,-6.9204 c 2.11934,-1.82007 2.29291,-4.19291 0.3067,-4.19291 -1.61777,0 -4.5567,3.7289 -4.5567,5.78152 0,1.42334 1.31529,0.93169 4.25,-1.58861 z m 33.92126,-2.8479 c 2.12128,-1.91973 2.41641,-4.34501 0.52874,-4.34501 -1.85506,0 -3.7,2.09426 -3.7,4.2 0,2.23586 0.81949,2.27333 3.17126,0.14501 z m -95.58056,-3.08765 c -0.6935,-0.69349 -2.5907,0.71555 -2.5907,1.9241 0,0.66309 0.57378,0.58723 1.52417,-0.20152 0.83829,-0.69572 1.31823,-1.47088 1.06653,-1.72258 z m 82.86715,-5.59522 c 2.50816,-4.27985 3.49235,-8.02613 1.60573,-6.11214 -1.10555,1.1216 -5.18524,10.45 -4.5702,10.45 0.23227,0 1.56628,-1.95204 2.96447,-4.33786 z m -220.70785,17.64853 c -0.9625,-0.25152 -1.75223,-0.76182 -1.75497,-1.13399 -0.003,-0.37218 -1.05867,-1.99356 -2.34653,-3.60309 l -2.34156,-2.92641 -3.5215,2.17641 c -4.49534,2.77827 -6.0072,2.75842 -5.60499,-0.0736 0.22102,-1.55624 1.78416,-2.94971 5.06955,-4.51929 3.14368,-1.50188 4.75,-2.89651 4.75,-4.12404 0,-3.85292 8.71708,-17.10667 11.25117,-17.10667 0.48234,0 3.43002,-1.16779 6.5504,-2.59508 5.5284,-2.52874 8.01642,-2.45096 8.92642,0.27905 0.19086,0.57259 -1.65371,3.68749 -4.09905,6.92199 -2.44534,3.2345 -4.23506,6.22234 -3.97715,6.63964 0.25791,0.4173 2.12926,0.51779 4.15857,0.22329 4.37626,-0.63508 8.16037,1.08798 9.85521,4.48749 1.42291,2.85408 0.74989,4.41515 -3.85617,8.9443 -5.9942,5.89412 -15.21992,8.45866 -23.0594,6.40999 z m 19,-7.05415 c 5.75421,-3.78243 6.5957,-6.20054 3.02749,-8.69982 -4.62192,-3.23732 -11.323,-1.73728 -17.26226,3.86417 -3.77962,3.56463 -3.79552,3.61204 -1.91326,5.70485 4.19438,4.66356 8.04647,4.45622 16.14803,-0.8692 z m -11.23416,-14.42022 c 6.23548,-5.83299 9.14536,-9.50844 8.2426,-10.41119 -0.22198,-0.22198 -2.27217,0.33039 -4.55599,1.2275 -3.21802,1.26407 -5.05808,3.02123 -8.17741,7.80896 -2.21377,3.39783 -4.02504,6.48399 -4.02504,6.85815 0,1.76476 2.46267,0.17902 8.51584,-5.48342 z m 18.48416,19.13232 c 0,-1.29149 0.67713,-1.96862 1.96861,-1.96862 1.29149,0 1.78084,0.48935 1.42269,1.42268 -0.90769,2.3654 -3.3913,2.76522 -3.3913,0.54594 z"
       id="path2894" />
  </g>
</svg>
