<?xml version="1.0" encoding="UTF-8"?>
<svg version="1.1" xmlns="http://www.w3.org/2000/svg" width="177" height="67" >
<path d="M17.905,27.606c1.121-4.665,0.771-10.354-5.031-10.576C6.043,16.77,2.224,23.789,0.805,29.441 c-1.339,5.333-1.971,17.039,6.164,17.388c9.777,0.419,18.197-9.705,23.279-16.783c0.694-0.966,8.904-14.225,3.32-14.225 c-2.265,0-4.404,3.007-5.534,4.541c-3.226,4.38-6.764,9.608-7.434,15.18c-0.824,6.857,3.997,8.631,8.834,4.196 c1.85-1.696,0.427-1.859,1.822,0.023c0.614,0.828,1.682,0.858,2.592,0.976c1.591,0.206,3.257-1.124,4.69-1.6 c2.372-0.785,4.95-1.121,7.415-1.446c0.675-0.09,8.916-0.981,8.979-0.117c0.07,0.959,1.57,0.966,1.5,0 c-0.487-6.696-23.529,3.995-24.602-0.334c-0.084-0.34-0.394-0.527-0.723-0.551c-2.542-0.179-5.437,7.642-8.595,3.301 c-3.306-4.543,3.251-13.783,5.668-17.311c-0.062,0.09,4.973-6.777,5.653-5.041c0.726,1.854-1.172,5.204-1.9,6.711 c-2.99,6.19-7.894,11.604-13.132,15.977C15.182,43.347,8.412,47.626,3.914,44c-4.777-3.851-2.144-14.188-0.128-18.752 c1.625-3.681,4.974-6.583,9.089-6.717c4.65-0.151,4.378,5.376,3.584,8.677C16.232,28.148,17.679,28.547,17.905,27.606 L17.905,27.606 M49.56,25.055c0.026-0.018,0.054-0.035,0.081-0.052c0.036-0.023,0.274-0.135,0.161-0.09 c0.156-0.061,0.075-0.041,0.171-0.042c-0.19,0.004-0.237-0.22-0.182,0.07c0.18,0.95,1.625,0.546,1.446-0.398 c-0.233-1.236-1.512-1.427-2.435-0.782C48.017,24.31,48.765,25.611,49.56,25.055L49.56,25.055 M83.848,40.324c-11.87,0.623-10.904-15.458-9.107-23.35c0.877-3.854,4.368-7.821,8.208-4.128 c2.447,2.353,2.971,7.081,3.369,10.226c0.838,6.633,0.24,13.655-0.267,20.3c-0.473,6.211-1.475,13.273-5.9,18.005 c-3.362,3.596-10.507,5.301-10.199-1.969c0.087-2.052,1.121-4.227,1.926-6.063c5.055-11.521,13.538-21.826,21.849-31.108 c4.281-4.781,8.952-9.188,13.112-14.081c1.07-1.259,3.046-3.121,3.137-4.895c0.158-3.116-6.459,3.602-6.593,3.749 c-5.878,6.488-10.909,15.736-11.3,24.637c-0.329,7.471,8.19,2.115,11.004-0.06c4.805-3.717,12.337-10.068,13.158-16.616 c0.513-4.09-6.154,2.562-6.269,2.694c-3.316,3.832-10.203,12.061-7.318,17.666c2.689,5.227,11.471-2.7,13.386-4.56 c-0.393-0.303-0.785-0.606-1.178-0.909c-0.93,1.938-2.357,5.232,0.102,6.526c2.538,1.336,5.125-3.711,5.859-5.27 c-0.466-0.126-0.932-0.252-1.397-0.378c-0.474,5.43,3.941,2.262,5.564-0.288c-0.457-0.192-0.914-0.385-1.371-0.578 c-1.259,5.265,5.98,2.229,7.941,0.737c2.883-2.195,5.119-5.213,7.254-8.102c4.988-6.751,9.213-14.098,13.343-21.391 c0.478-0.843-0.799-1.587-1.295-0.757c-2.04,3.413-3.892,6.944-5.612,10.527c-2.01,4.181-5.076,9.851-4.398,14.658 c0.528,3.753,4.409,3.742,7.514,3.665c6.83-0.17,13.594-1.819,20.476-2.014c0.177-0.005,6.508,0.452,4.191-2.023 c-0.865-0.925-2.287-1.242-3.458-1.553c-5.071-1.346-10.477-1.339-15.646-2.038c-4.746-0.641-9.602-1.758-13.903-3.912 c-4.265-2.135-3.214-4.733,0.236-6.82c8.038-4.858,19.478-2.341,27.883-0.221c0.938,0.237,1.336-1.21,0.398-1.446 c-7.71-1.944-15.803-3.355-23.696-1.674c-3.281,0.699-7.781,2.552-9.392,5.755c-4.466,8.885,29.707,10.974,32.906,11.615 c0.71,0.142,3.34,1.312,3.63,0.986c-0.4,0.45-6.803-0.037-7.854,0.018c-2.027,0.107-4.048,0.306-6.064,0.538 c-4.776,0.549-9.381,1.796-14.196,0.928c-5.999-1.081,6.405-23.091,8.282-26.232c-0.432-0.252-0.863-0.504-1.295-0.757 c-5.185,9.154-10.459,18.889-17.643,26.677c-1.282,1.39-2.71,2.687-4.403,3.551c-0.546,0.278-4.217,1.635-3.75-0.316 c0.199-0.835-0.912-1.299-1.371-0.578c-0.421,0.661-3.003,3.717-2.77,1.045c0.063-0.731-1.084-1.043-1.397-0.378 c-0.443,0.94-0.974,1.819-1.542,2.688c-1.078,1.648-3.274,2.232-2.591-0.48c0.167-0.665,0.468-1.336,0.762-1.95 c0.359-0.75-0.541-1.527-1.178-0.909c-2.402,2.333-4.937,4.542-8.212,5.493c-5.695,1.653-2.036-6.907-1.139-8.628 c1.637-3.137,3.896-6.106,6.201-8.769c0.729-0.842,1.548-1.624,2.437-2.295c0.346-0.261-1.205,3.185-1.404,3.518 c-3.266,5.445-8.433,10.171-13.808,13.468c-2.592,1.589-5.613,2.274-5.437-1.738c0.137-3.126,1.36-6.291,2.479-9.17 c2.021-5.207,5.13-9.971,8.868-14.097c0.868-0.958,1.801-1.855,2.778-2.699c1.386-1.194,0.841-1.472-0.109-0.072 c-3.087,4.544-7.342,8.438-11.146,12.354c-4.995,5.142-9.609,10.644-13.954,16.342c-5.472,7.176-11.826,15.665-13.891,24.655 c-0.595,2.592-0.028,5.322,1.839,7.229c2.622,2.675,7.022,0.085,9.266-1.576c8.046-5.956,7.88-18.996,8.209-27.907 c0.21-5.67,1.949-23.766-6.479-25.734C70.99,7.633,72.19,25.92,72.598,31.574c0.435,6.024,5.106,10.572,11.25,10.25 C84.811,41.773,84.815,40.273,83.848,40.324L83.848,40.324 M138.329,7.362c-0.69-1.129-2.049-1.869-3.347-1.345c-0.379,0.153-0.642,0.494-0.524,0.922 c0.1,0.36,0.543,0.677,0.923,0.524c0.418-0.168,0.793-0.172,1.158,0.117c0.282,0.224,0.373,0.339,0.495,0.539 C137.538,8.943,138.834,8.19,138.329,7.362L138.329,7.362 M175.878,15.271c0.617-0.759,0.938-1.982-0.151-2.511c-0.866-0.421-1.628,0.873-0.758,1.295 c0.26,0.126,0.002,0.006-0.002-0.124c-0.002-0.081-0.053,0.114-0.026,0.058c-0.042,0.089-0.295,0.433-0.123,0.222 c-0.258,0.317-0.312,0.75,0,1.061C175.084,15.538,175.62,15.588,175.878,15.271L175.878,15.271z"/>
</svg>