<?xml version="1.0" encoding="UTF-8" standalone="no"?>
<svg
   xmlns:dc="http://purl.org/dc/elements/1.1/"
   xmlns:cc="http://creativecommons.org/ns#"
   xmlns:rdf="http://www.w3.org/1999/02/22-rdf-syntax-ns#"
   xmlns:svg="http://www.w3.org/2000/svg"
   xmlns="http://www.w3.org/2000/svg"
   xmlns:sodipodi="http://sodipodi.sourceforge.net/DTD/sodipodi-0.dtd"
   xmlns:inkscape="http://www.inkscape.org/namespaces/inkscape"
   width="24.5139in"
   height="6.34722in"
   viewBox="0 0 1765 457"
   id="svg2"
   version="1.1"
   inkscape:version="0.48.3.1 r9886"
   sodipodi:docname="Chuck Yeager signature.SVG">
  <metadata
     id="metadata9">
    <rdf:RDF>
      <cc:Work
         rdf:about="">
        <dc:format>image/svg+xml</dc:format>
        <dc:type
           rdf:resource="http://purl.org/dc/dcmitype/StillImage" />
      </cc:Work>
    </rdf:RDF>
  </metadata>
  <defs
     id="defs7" />
  <sodipodi:namedview
     pagecolor="#ffffff"
     bordercolor="#666666"
     borderopacity="1"
     objecttolerance="10"
     gridtolerance="10"
     guidetolerance="10"
     inkscape:pageopacity="0"
     inkscape:pageshadow="2"
     inkscape:window-width="1401"
     inkscape:window-height="845"
     id="namedview5"
     showgrid="false"
     inkscape:zoom="0.26248073"
     inkscape:cx="1556.9761"
     inkscape:cy="1114.1708"
     inkscape:window-x="49"
     inkscape:window-y="24"
     inkscape:window-maximized="0"
     inkscape:current-layer="svg2" />
  <path
     id="Markering"
     d="m 548.58,231 c -1.57,6.97 -3.83,13.76 -3.54,21 0.16,4.1 1.63,10.6 4.6,13.62 1.9,1.85 4.75,2.5 6.57,0 3.18,-4.24 -3.48,-5.68 -1.89,-15.62 l 10.59,-38 c 0.86,-5.35 1.26,-12.84 -4.1,-16.17 -4.01,-2.5 -11.12,1.4 -14.81,3.34 -9.04,4.73 -20.66,10.58 -31,10.82 -6.89,0.15 -13.77,-0.93 -18.78,-6.18 -1.76,-1.84 -3.85,-4.95 -2.87,-7.63 1,-2.73 9.86,-7.66 12.65,-9.51 l 31,-22.12 c 18.73,-14.79 32.55,-32.93 44.28,-53.55 9.1,-16.01 14.29,-27.32 14.98,-46 0.26,-7.18 -0.7,-21.43 -7.39,-25.59 -7.61,-4.73 -16.15,-1.53 -23.87,0.57 -9.25,2.52 -34.64,14.12 -44,18.77 -6.42,3.19 -16.55,7.61 -21.82,12.15 -12.92,11.13 -10.54,26.64 -5.82,41.1 1.46,4.5 5.27,13.54 5.27,18 0,6.89 -8.96,23.09 -11.63,31 l -4.71,18 c -0.36,2.74 -0.06,7.8 -0.88,9.9 -1.41,3.56 -9.16,8.1 -12.41,10.39 l -22,16.32 c -2.88,2.34 -8.2,6.52 -9.95,9.69 -3.77,6.82 0.39,12.41 4.78,10.42 L 453,225.08 c 9.68,-8.09 21.3,-17.51 32,-24.08 1.81,13.02 16.05,19.71 28,19.99 9.43,0.21 18.44,-2.69 27,-6.41 5.37,-2.34 9.26,-5.14 15,-6.58 z m -50.27,-71 c 3.11,-7.04 10.23,-20.77 10.43,-28 0.12,-4.47 -3.43,-12.66 -5.14,-17 -2.23,-5.64 -4.33,-13.94 -4.56,-20 -0.53,-13.52 8.26,-18.68 18.96,-24.25 14.83,-7.73 26.82,-13.9 43,-18.87 5.88,-1.8 19.25,-6.56 24.75,-3.31 4.09,2.42 3.67,13.01 3.51,17.43 -0.56,14.65 -4.53,22.32 -11.02,35 -14.52,28.41 -31.47,45.6 -57.24,63.72 -7.85,5.52 -21.25,16.7 -30,19.28 2.2,-8.31 3.78,-16.02 7.31,-24 z m 356.86,39 17.74,-23 5.7,-10 c 11.54,-18.99 19.28,-31.19 25.8,-53 4.7,-15.71 3.49,-18.77 -0.53,-34 -0.7,-2.68 -1.88,-9.67 -3.61,-11.4 -4.14,-4.13 -10.88,1.12 -13.98,4.02 -7.93,7.38 -17.32,22.22 -21.23,32.38 -5.19,13.51 -7.34,22.2 -10.8,36 l -4.09,16 -2.59,27 c -0.34,2.52 -0.51,7.8 -1.6,9.71 -1.94,3.4 -10.41,8.92 -13.98,10.96 -11.4,6.47 -33.94,15.17 -47,15.33 -6.22,0.07 -12.02,0.68 -16.77,-4.21 -7.24,-7.45 -1.75,-26.75 5.87,-30.44 3.87,-1.87 14.06,2.26 18.9,3.03 2.94,0.47 6.17,0.71 7.65,-2.53 2.73,-5.93 -7.77,-18.03 -13.65,-18.55 -3.83,-0.34 -8.29,1.82 -12,1.2 -3.14,-0.18 -7.32,-2.88 -11.79,0 -4.15,2.32 -9.58,15.7 -11.63,20.5 -5.5,12.86 -13.8,28.05 -27.58,33.52 -8.86,3.52 -18.48,-1.35 -21.35,-10.52 -0.9,-2.87 -0.66,-8.79 -0.65,-12 0.01,-6.3 1.04,-15.05 3.1,-21 l 4.22,-10 c 0.78,-3.43 -0.6,-7.67 -4.38,-8.52 -3.83,-0.86 -5.47,2.6 -6.68,5.52 -3.53,8.53 -5.18,16.93 -10.35,25 -10.56,16.47 -31.3,22.45 -49.91,20 0.28,-6.02 1.35,-12.45 3.74,-18 1.28,-2.97 5.28,-9.62 5.56,-12 0.48,-4.08 -3.79,-9.71 -8.25,-8.34 -6.69,2.05 -5.91,14.56 -11.43,22.34 -2.85,4.02 -10.98,13.47 -14.62,16.72 -4.16,3.7 -11.95,9.87 -13.49,15.28 -1.6,5.66 3,10.03 7.2,7.35 1.46,-0.93 5.2,-5.48 6.7,-7.06 L 628,211 c 1.04,11.08 10.38,12.78 20,11.83 18.62,-1.83 32.32,-6.54 45,-20.83 0.55,5.94 1.36,12.76 4.36,18 7.15,12.46 22.17,16.04 34.64,9.46 12.63,-6.67 15.35,-15.46 23,-25.46 0.34,15.32 8.21,24.81 24,25 20.29,0.23 49.74,-11.12 66,-23 0,9.59 -0.89,15.64 -2.88,25 -0.61,2.87 -1.76,6.76 1.31,8.7 2.85,1.8 5.44,0.35 7.34,-1.93 l 14.4,-17.72 C 879.99,205.4 903.96,200.36 924,203 c -4.41,11.92 -14.35,16.3 -14.87,24 -0.41,6 3.31,8.64 8.87,8.96 7.22,0.41 31.88,-4.44 40,-6.17 l 14,-2.79 0,-3 -19,0 -30,1 c 6.7,-7.8 19.14,-23.94 4,-30.64 -2.29,-1.01 -4.56,-1.38 -7,-1.77 -3.41,-0.55 -6.54,-0.74 -10,-0.5 -23.44,1.59 -40.1,8.38 -57,24.91 0.03,-3.37 0.89,-15.42 2.17,-18 z m 44.62,-93 c -4.19,19.42 -17.2,39.57 -27.93,56 -4.4,6.74 -9.92,18.1 -16.86,22 l 2.44,-25 4.68,-20 c 5.24,-19.89 10.28,-35.69 23.77,-51.91 L 895,78 c 6.67,7.57 6.81,18.65 4.79,28 z m -495.68,36 c 1.56,-3.04 6.92,-11.29 4.83,-14.48 -4.23,-6.4 -10.2,5.84 -11.63,8.48 -6.03,11.15 -14.77,27.09 -10.66,40 3.43,10.76 12.34,10.66 20.34,5.11 10.17,-7.07 25.96,-23.09 29.38,-35.11 4.22,-14.84 -7.03,-31.1 -20.37,-36.55 -13.3,-5.43 -29.8,-5.56 -44,-6.54 l -30,-2.91 -13,0 -11,-0.98 -17,0 c -14.68,0 -56.74,5.56 -72,8.44 -20.84,3.93 -50.86,13.06 -71,20.23 l -21,7.97 c -16.93,5.98 -39.85,18.01 -49.76,33.34 -3.85,5.96 -7.61,14.77 -7.06,22 0.53,6.96 3.81,14.26 7.66,19.99 15.11,22.46 42.51,28.58 67.16,34.48 14.91,3.57 32.68,5.48 48,5.53 l 19,1.04 14,0 12,0.96 61,0 19,-1 c 8.81,-0.15 6.39,-2.82 22,-3 l 10,-0.91 34,-3.01 c 6.38,-0.51 24.97,-1.93 30,-4.08 l -50,2.91 -51,2.09 -15,1 -58,0 -15,-1 -15,0 -10,-0.91 c -18.07,-1.24 -36.27,-2.68 -54,-6.74 -20.08,-4.6 -42.26,-9.98 -56.96,-25.35 -6.56,-6.87 -12.87,-17.28 -9.49,-27 1.45,-4.19 3.9,-8.39 6.45,-12 4.3,-6.06 4.97,-7.15 11,-11.76 17.63,-13.51 34.73,-19.02 55,-26.66 17.44,-6.58 47.8,-15.65 66,-19.57 l 16,-2.29 c 19.22,-3.21 38.52,-5.84 58,-6.79 L 317,106 c 19.43,-0.08 38.73,2.43 58,4.72 11.31,1.33 20.8,0.9 32,4.63 9.72,3.24 17.69,7.43 21.3,17.65 0.85,2.41 1.44,4.42 1.09,7 -1.47,10.75 -15.47,21.95 -23.39,28.42 -4.54,3.72 -6.27,5.75 -12,7.58 0.01,-12.47 4.47,-23.01 10.11,-34 z M 1675,193.84 c -6.74,-4.91 -13.21,-10.81 -18.96,-16.84 -6.11,-6.4 -16.38,-20.01 -17.24,-29 -0.37,-3.87 1.93,-18.45 -5.84,-17.07 -2.73,0.49 -9.34,7.02 -11.96,9.13 l -25,17.25 c -6.01,3.93 -21.77,13.69 -28,16.24 -19.16,7.84 -48.19,10.35 -68,3.85 l -10,-4.4 c 5.51,-5.8 8.71,-13.01 12.54,-20 1.69,-3.1 3.76,-6.33 2.72,-10 -2.66,-9.33 -18.74,-8.79 -24.73,-3.35 -5.5,4.99 -5.64,14.52 -5.53,21.35 0.49,29.62 37.88,29.1 59,29 14,-0.07 35.65,-5.38 48,-11.89 8.13,-4.28 15.46,-9.87 23,-15.09 L 1629,146 c 1.15,4.31 1.73,7.77 3.45,12 6.46,15.87 19.63,28.18 33.55,37.66 6.93,4.72 12.43,9.56 21,10.34 -1.86,-7.32 -6.33,-8.02 -12,-12.16 z m -262,-43.83 c 2.7,0.13 8.32,1.58 10.4,0 3.12,-2.47 0.57,-7.15 -1.63,-9.15 -5.51,-5.02 -11.95,-10.2 -19.77,-9.77 -6.44,0.36 -14.68,1.91 -19.99,5.71 -4.64,3.32 -5.78,6.73 -10.02,8.77 -2.28,1.09 -10.07,2.45 -12.99,3.03 -10.75,2.15 -17.92,3.54 -29,3.4 -2.61,-0.04 -4.5,-0.04 -7,-1 -5.48,-2.12 -12.16,-8.52 -15,2 -8.03,-5.36 -12.52,-10.52 -23,-9.91 l -10,1.24 c -2.67,-0.01 -5.23,-1.28 -7.83,0 -2.29,1.02 -4.65,4.58 -6.47,6.5 -5.83,6.16 -12.88,12.41 -16.64,20.17 -2.46,5.06 -1.57,7.12 -3.08,9.72 -4.57,7.86 -21.75,17.61 -30.98,18.83 -14.86,1.95 -15.76,-13.07 -16.46,-23.55 -0.27,-3.58 -1.08,-8.57 0,-12 1.27,-3.91 5,-7.08 5.89,-12 0.84,-4.67 -3.11,-11.86 -8.43,-11.63 -4.94,0.21 -7.63,6.43 -8.1,10.63 l 0,6 c -0.72,3.45 -2.12,5.17 -1.63,9 0.5,3.89 3.58,8.92 0.62,13.91 -2.8,4.72 -10.39,10 -14.89,13.11 -10.64,7.37 -29.27,17.68 -42,19.98 1.18,-4.15 0.98,-5.81 1,-10 l 1,-14 c 0.13,-11.04 0.38,-21.11 -2.02,-32 -0.94,-4.31 -5.7,-16.96 -11.67,-15.26 -2.14,0.61 -2.24,3.49 -2.61,5.26 -0.86,4.08 -2.89,11.5 -4.92,15 -7.79,13.43 -19.24,22.14 -33.78,27 -2.32,-9.54 0.88,-21.77 3.66,-31 1.27,-4.25 2.52,-9.63 -2.14,-12.39 -5.36,-3.18 -9.06,4.83 -11.38,8.39 -1.22,1.88 -3.54,4.95 -4.12,7 -1.15,4.14 1.71,6.55 2.78,9.17 0.5,2.1 0.23,4.62 0,6.83 0.15,6.09 0.6,15.18 5.47,19.57 6.08,5.49 17.98,0.53 23.73,-3.32 5.23,-3.5 8.61,-6.82 13,-11.25 3.59,-3.64 6.35,-6.5 8.91,-11 2.37,-4.18 2.82,-7.28 6.09,-11 l 1,16 0,31 c -0.01,3.14 0.48,6.78 -2.31,8.91 -2.22,1.7 -11.45,3.63 -14.69,4.51 l -41,9.18 -53,10.68 -18,4.11 -51,9.48 c -16.18,4.04 -36.51,9.68 -41.39,28.13 -0.89,3.37 -0.65,12.12 -0.61,16 0.2,15.96 15.53,43.08 25.71,55.27 10.25,12.28 19.67,19.1 33.29,27.18 17.33,10.27 34.47,16.08 54,20.43 7.24,1.62 25,4.33 32,4.02 20.64,-0.91 41.49,-8.37 56.99,-22.19 18.72,-16.7 19.52,-42.65 21.1,-65.71 l 1.91,-36 2,-34 0,-15 c 0.07,-5.18 0.15,-8.37 5.05,-11.18 l 16.95,-7.05 14,-7.19 26,-17.58 c 0.55,3.51 1.14,5.81 2.82,9 8.36,15.86 28.25,12.1 41.18,4.83 5.53,-3.11 12.07,-8.68 17,-12.83 2.72,3.11 6.1,6.42 10,7.99 11.94,4.82 33.18,-3.76 41.91,-12.16 4.31,-4.15 6.95,-8.67 9.76,-13.83 2.98,-5.47 4.8,-5.44 5.33,-12 l 15,2.99 28,-3.45 13,-2.54 c 0,7.01 -0.36,12.85 3.85,18.98 3.39,4.94 7.57,6.7 13.15,8.12 13.34,3.4 24.43,1.16 36,-6.34 7.56,-4.9 7.94,-7.84 14.02,-12.54 1.4,-1.09 3.79,-3.06 5.71,-2.64 2.07,0.46 2.99,3.68 3.55,5.42 1.23,3.92 2.82,11.97 2.54,16 -0.29,4.01 -1.76,22.29 -3.13,24.91 -1.58,3.02 -7.92,8.12 -10.69,10.51 l -17,15.17 -10,9.13 -29.08,26.19 c -8.54,8.41 -16.62,16.34 -22.29,27.09 -11.2,21.22 -23.13,46.94 -0.63,65.74 2.63,2.2 7.83,5.44 11,6.79 4.41,1.88 11.21,3.24 16,3.43 23.03,0.9 31.94,-17.49 39.2,-35.96 5.49,-13.95 17.1,-53.25 20,-68 l 7.13,-36 c 0.83,-4 0.73,-8.1 2.15,-11.99 3.45,-9.47 16.91,-9.93 24.13,-19.03 2.22,-2.79 3.7,-6.33 3.23,-9.96 -0.31,-2.34 -1.78,-5.12 -4.59,-3.85 -2.46,1.11 -2.84,4.83 -6.46,8.39 -3.7,3.63 -8.6,5.47 -12.91,8.44 -0.9,-12.03 4.56,-19.78 0,-39 -1.26,-4.7 -4.21,-12.14 -8.97,-14.11 -5.8,-2.4 -10.59,1.05 -14.91,4.57 -11.48,9.39 -18.71,18.71 -35,18.54 -9.02,-0.1 -17.14,-3.45 -16.16,-14 l 1.16,-7 z m 79.12,-0.87 -3.29,12.82 -3.83,4.04 c -1.33,-4.74 -1.06,-12.69 2.65,-16.45 1.22,-1.23 2.81,-1.82 4.47,-2.55 z M 1267,187.99 c -4.17,0.09 -8.91,0.1 -11.3,-4.05 -1.99,-3.46 0.98,-7.01 2.7,-9.94 3.86,-6.59 7.36,-14.55 16.6,-14.33 l 26,4.33 c -5.5,15.01 -18.03,23.63 -34,23.99 z M 137,186 l 1,1 0,-1 z m 936,29 -12,0.98 -10,0 -8,0.93 -23,1.67 c -6.2,0.82 -21.47,0.34 -25,5.42 l 36,-2.91 40,-2.81 c 6.28,-0.74 20.21,-0.18 25,-3.28 z m 45,32 -1,25 -1.04,12 0,10 -1.87,14 c -1.11,16.22 -1.37,35.87 -7.89,51 -10.08,23.42 -39.31,38.96 -64.2,39 l -9,0 c -8.51,-0.01 -16.73,-2.13 -25,-3.88 -36.6,-7.76 -74.28,-26.83 -92.25,-61.12 -7.13,-13.59 -15.8,-31.44 -10.04,-47 7.05,-19.05 33.8,-23.5 51.29,-27 l 76,-15.79 38,-7.63 48,-11.58 z m 322.51,-3 -6.01,31 -8.62,29 c -3.39,10.56 -8.16,27.45 -13.06,37 -3.26,6.36 -8.36,14.97 -14.12,19.3 -10.13,7.63 -26.56,5.47 -36.69,-1.26 -17.98,-11.97 -11.51,-32.03 -3.75,-48.04 13.42,-27.72 33.4,-42.24 55.74,-62.16 7.33,-6.55 21.97,-21.22 30,-24.84 z"
     inkscape:connector-curvature="0"
     style="fill:#000000;stroke:#000000;stroke-width:1"
     sodipodi:nodetypes="ccccccccccccccccccccscccccccccccccccccccccccccccccccccccccccccccccccccccccccccsccccccccccccccccccccccccccccccccccccccccccccccccccscccccccccccccccccccccccccccccccccccccccccccccccccccccccccccccccccccccccccccccccccccccccccccccccccccccccccccccccccccccccccccccccccccccccccccccccccccccccccccccccccccccccccccccccccccccccccccccccccccccccccccccccccccccccccccccccc" />
</svg>
