<?xml version="1.0" encoding="UTF-8" standalone="no"?>
<!-- Created with Inkscape (http://www.inkscape.org/) -->

<svg
   xmlns:dc="http://purl.org/dc/elements/1.1/"
   xmlns:cc="http://creativecommons.org/ns#"
   xmlns:rdf="http://www.w3.org/1999/02/22-rdf-syntax-ns#"
   xmlns:svg="http://www.w3.org/2000/svg"
   xmlns="http://www.w3.org/2000/svg"
   xmlns:sodipodi="http://sodipodi.sourceforge.net/DTD/sodipodi-0.dtd"
   xmlns:inkscape="http://www.inkscape.org/namespaces/inkscape"
   width="406.25259"
   height="334.46042"
   id="svg2"
   version="1.1"
   inkscape:version="0.47 r22583"
   sodipodi:docname="Documento nuevo 1">
  <defs
     id="defs4">
    <inkscape:perspective
       sodipodi:type="inkscape:persp3d"
       inkscape:vp_x="0 : 526.18109 : 1"
       inkscape:vp_y="0 : 1000 : 0"
       inkscape:vp_z="744.09448 : 526.18109 : 1"
       inkscape:persp3d-origin="372.04724 : 350.78739 : 1"
       id="perspective10" />
    <inkscape:perspective
       id="perspective2824"
       inkscape:persp3d-origin="0.5 : 0.33333333 : 1"
       inkscape:vp_z="1 : 0.5 : 1"
       inkscape:vp_y="0 : 1000 : 0"
       inkscape:vp_x="0 : 0.5 : 1"
       sodipodi:type="inkscape:persp3d" />
  </defs>
  <sodipodi:namedview
     id="base"
     pagecolor="#ffffff"
     bordercolor="#666666"
     borderopacity="1.0"
     inkscape:pageopacity="0.0"
     inkscape:pageshadow="2"
     inkscape:zoom="0.98994949"
     inkscape:cx="393.27689"
     inkscape:cy="289.09528"
     inkscape:document-units="px"
     inkscape:current-layer="layer1"
     showgrid="false"
     inkscape:window-width="1440"
     inkscape:window-height="851"
     inkscape:window-x="-4"
     inkscape:window-y="-4"
     inkscape:window-maximized="1" />
  <metadata
     id="metadata7">
    <rdf:RDF>
      <cc:Work
         rdf:about="">
        <dc:format>image/svg+xml</dc:format>
        <dc:type
           rdf:resource="http://purl.org/dc/dcmitype/StillImage" />
        <dc:title></dc:title>
      </cc:Work>
    </rdf:RDF>
  </metadata>
  <g
     inkscape:label="Capa 1"
     inkscape:groupmode="layer"
     id="layer1"
     transform="translate(1421.8562,-121.99338)">
    <path
       style="fill:#000000"
       d="m -1404.3007,455.89728 c -2.4129,-0.96702 -6.1775,-8.21908 -8.3194,-16.02639 -1.8281,-6.66353 -2.0541,-9.52569 -1.601,-20.27657 0.5687,-13.4948 2.5499,-22.55586 7.5471,-34.51785 3.5747,-8.55693 10.7663,-24.27328 12.3549,-27 0.6409,-1.1 1.9855,-3.38416 2.9882,-5.0759 l 1.823,-3.07591 -6.4414,-5.69041 c -4.6599,-4.11659 -7.3402,-7.51611 -9.6912,-12.29156 l -3.2497,-6.60116 -6.2072,6.86747 c -3.4139,3.77711 -6.444,6.63709 -6.7335,6.35552 -0.2895,-0.28157 1.9442,-3.43157 4.9638,-7 3.0195,-3.56843 7.9374,-9.38811 10.9286,-12.93262 2.9912,-3.54451 5.4385,-7.25701 5.4385,-8.25 0,-0.99299 0.4198,-1.80543 0.9329,-1.80543 1.0128,0 9.1047,-13.15151 13.5363,-22 1.5151,-3.025 3.2386,-6.4 3.8301,-7.5 0.5916,-1.1 2.325,-4.32368 3.8522,-7.16372 9.0779,-16.88236 20.541,-48.21047 21.5272,-58.83299 0.4629,-4.98592 0.2294,-6.40723 -1.378,-8.38687 -1.9075,-2.3492 -1.9875,-2.35888 -5.5437,-0.67133 -9.5794,4.5457 -30.3971,31.61117 -34.2699,44.55491 -0.4114,1.375 -1.5488,4.3 -2.5274,6.5 -2.8878,6.4915 -6.7708,19.4454 -8.2432,27.5 -2.0487,11.20701 -2.1708,29.77202 -0.2197,33.42073 0.9057,1.6939 1.19,3.29242 0.6768,3.80563 -0.5132,0.51321 -1.4706,-0.50359 -2.2792,-2.42073 -1.7592,-4.17057 -1.7299,-25.74383 0.047,-34.30563 3.5645,-17.17848 12.3843,-39.98509 20.3807,-52.70085 8.1929,-13.02828 23.0132,-27.59021 29.8179,-29.29809 3.2815,-0.82359 7.5087,2.56626 8.734,7.00375 3.0495,11.04445 -8.8875,48.36358 -21.5893,67.49519 -1.6432,2.475 -5.133,7.875 -7.7551,12 -7.9266,12.4697 -9.8381,15.33819 -12.8177,19.235 -1.9657,2.5708 -2.6805,4.441 -2.293,6 0.3096,1.24575 0.3046,1.7025 -0.011,1.015 -0.8229,-1.79175 -2.4596,-1.54938 -1.7647,0.26134 0.415,1.08145 0.1216,1.33546 -1.0314,0.89301 -0.8862,-0.34008 -1.6114,-0.20118 -1.6114,0.30866 0,0.50985 -1.5421,2.72868 -3.427,4.93075 l -3.4271,4.00376 3.4386,7.10875 c 2.4075,4.97719 5.0042,8.47833 8.6599,11.67624 2.8717,2.51212 5.679,4.56402 6.2385,4.55979 0.5594,-0.004 2.0074,-1.74224 3.2177,-3.86224 6.0797,-10.64927 28.2994,-36.95902 28.2994,-33.50858 0,0.57923 -1.9125,2.867 -4.25,5.08392 -4.9094,4.65623 -10.75,11.21747 -10.75,12.07654 0,0.32403 -0.8647,1.51816 -1.9216,2.65361 -1.0569,1.13545 -4.4228,5.85348 -7.4797,10.48452 -5.4356,8.23461 -5.5132,8.45149 -3.5213,9.84667 2.1255,1.48878 14.0834,6.40586 14.519,5.97024 0.1376,-0.13756 3.4847,-10.14715 7.438,-22.24354 3.9534,-12.09639 8.4188,-25.59344 9.9231,-29.99344 1.5043,-4.4 5.132,-15.425 8.0615,-24.5 2.9295,-9.075 7.2737,-21.87328 9.6537,-28.44061 2.38,-6.56734 4.3273,-12.1852 4.3273,-12.48413 0,-0.29894 -1.7194,2.39892 -3.821,5.99523 -8.5219,14.58311 -13.2661,18.9471 -13.9774,12.85714 -0.3419,-2.927 5.9222,-21.05636 6.5867,-19.06297 0.2405,0.7215 -0.095,4.01586 -0.745,7.32079 -0.6502,3.30494 -0.9659,6.22521 -0.7017,6.48948 1.6143,1.61428 14.0993,-20.0055 22.1782,-38.40506 1.5045,-3.42657 3.0783,-6.01829 3.4972,-5.75939 0.4189,0.25891 -2.477,8.68747 -6.4355,18.73013 -3.9584,10.04266 -8.1522,22.08439 -9.3195,26.75939 -1.1673,4.675 -3.5598,14.35 -5.3167,21.5 -1.7569,7.15 -4.0674,15.22777 -5.1343,17.95061 l -1.9399,4.95061 11.8305,-11.48824 c 10.7582,-10.44689 20.1869,-18.16752 30.8665,-25.27494 2.1626,-1.43919 4.927,-3.33983 6.1432,-4.22363 1.2162,-0.8838 2.7226,-1.43646 3.3475,-1.22815 0.625,0.20832 -2.6201,2.93586 -7.2112,6.0612 -4.5912,3.12534 -11.4976,8.19804 -15.3476,11.27267 -10.47,8.3614 -29.8877,26.9766 -33.1376,31.76799 -1.5712,2.31653 -3.1248,4.43688 -3.4524,4.71188 -0.8738,0.73348 -7.1525,21.15501 -7.2251,23.5 -0.034,1.1 -0.3744,2.225 -0.7562,2.5 -0.9528,0.68617 -6.9593,20.30268 -6.3907,20.87125 0.2511,0.25119 5.1647,0.66609 10.9191,0.92202 10.0665,0.4477 27.7687,-1.30124 40.0429,-3.95616 8.6727,-1.87591 30.1166,-9.5198 43,-15.32775 41.2914,-18.61452 85.6074,-42.15604 103.7524,-55.11524 2.6137,-1.86676 4.9331,-3.39412 5.154,-3.39412 0.5887,0 18.4491,-12.09137 24.9032,-16.85932 9.2984,-6.86911 9.523,-6.76971 -9.3096,-4.12052 -3.575,0.5029 -11.45,1.42513 -17.5,2.0494 -20.9695,2.16373 -19.6855,1.72351 -35.5461,12.18754 -8.0004,5.27827 -20.1504,12.49433 -27,16.03569 -6.8496,3.54136 -15.2529,8.04219 -18.674,10.00185 -26.2926,15.06088 -52.6252,23.56802 -70.6475,22.82378 -3.509,-0.1449 -10.6324,-6.87383 -10.6324,-10.04361 0,-3.1297 7.9098,-11.1069 16.8008,-16.944 11.528,-7.56833 36.5352,-17.50083 55.6992,-22.12289 19.6676,-4.7435 25.5464,-5.77219 55,-9.62406 l 13,-1.70011 13.5,-10.01027 c 7.425,-5.50566 15.9182,-11.847 18.8737,-14.09188 20.6502,-15.68502 47.0305,-30.03756 60.215,-32.76079 6.0792,-1.25563 8.9113,-0.35257 8.9113,2.84147 0,6.22611 -20.635,31.33021 -34.3538,41.79404 -4.3477,3.31616 -4.6462,4.66022 -0.8962,4.03571 1.5125,-0.25189 8.15,-1.17368 14.75,-2.04843 25.039,-3.31861 51.1412,-11.67759 62,-19.85487 15.7864,-11.88799 23.2777,-22.11588 27.5919,-37.67152 2.4169,-8.71481 1.9879,-13.82091 -1.7972,-21.38616 -4.2061,-8.4068 -12.0343,-14.5126 -23.2489,-18.13373 -2.9999,-0.96863 -4.8797,-1.95267 -4.1774,-2.18676 1.9215,-0.64049 13.076,3.68031 17.7265,6.86655 5.4734,3.75 10.2597,9.33982 12.6777,14.80614 2.5797,5.83192 2.0085,18.98204 -1.17,26.93247 -4.6218,11.5605 -11.0829,19.83442 -22.6026,28.94385 -3.85,3.04448 -7.45,6.03155 -8,6.63793 -0.55,0.60637 -1.45,1.12706 -2,1.15708 -0.55,0.03 -3.25,1.09243 -6,2.36092 -14.5113,6.69361 -30.1788,10.69424 -55.5,14.17164 -16.3269,2.24221 -16.5426,2.30448 -20.5639,5.93854 -2.2352,2.01991 -8.2114,6.46128 -13.2805,9.8697 -8.1988,6.30598 -14.4371,9.16936 -22.3348,15.31712 -27.0353,18.0179 -96.709,53.09841 -127.335,64.1128 -20.0311,7.20402 -42.4046,10.74551 -62.6266,9.91313 l -10.6409,-0.438 -3.5954,15.34979 c -4.1337,17.64809 -8.3595,37.48316 -12.1115,56.84978 -3.0355,15.66831 -6.4995,22.87072 -11.947,24.84058 -3.3753,1.22053 -5.2181,1.34068 -7.3651,0.48023 l -4e-4,0 z m 10.6215,-5.76947 c 3.0191,-3.43862 4.7544,-7.9364 6.1926,-16.05134 0.3899,-2.2 2.1447,-12.1 3.8995,-22 1.7547,-9.9 5.0367,-25.2 7.2932,-34 2.2564,-8.8 4.1457,-17.05122 4.1983,-18.33604 0.079,-1.91687 -0.8016,-2.6737 -4.9044,-4.21788 -2.75,-1.03501 -6.2687,-2.61514 -7.8192,-3.51139 -1.5506,-0.89626 -2.9526,-1.47321 -3.1155,-1.28212 -3.3496,3.92878 -14.82,28.06185 -19.177,40.34743 -5.3811,15.17321 -7.137,33.44431 -4.3254,45.00675 1.7519,7.20423 5.6617,15.13148 8.6049,17.44662 3.0183,2.37417 4.5964,1.78761 9.153,-3.40203 z m 101.4946,-134.46957 c 13.7991,-3.49317 19.5004,-5.87607 38.8984,-16.25776 8.4074,-4.49961 18.8862,-10.03818 23.2862,-12.30793 7.8511,-4.04999 21.9272,-12.66247 32.6031,-19.9482 5.364,-3.6606 5.3755,-3.67964 1.8969,-3.12043 -1.925,0.30946 -12.2514,1.70621 -22.9476,3.1039 -20.2199,2.64215 -46.8362,8.50752 -58.0524,12.79285 -20.7224,7.91734 -31.4247,13.26612 -39.737,19.85987 -10.8727,8.62469 -12.1362,11.41634 -7.6045,16.80196 l 2.6585,3.15947 8.9069,-0.6262 c 4.8987,-0.34441 13.9399,-1.9003 20.0915,-3.45753 z m -53.8222,-23.92095 c 3.9397,-11.58551 6.8171,-22.18386 6.1923,-22.80865 -0.2346,-0.23462 -1.6815,3.52766 -3.2154,8.36063 -1.5338,4.83296 -3.1181,9.4622 -3.5207,10.2872 -1.051,2.15357 -3.9494,12.43153 -3.9494,14.00456 0,2.55957 1.0797,0.1942 4.4932,-9.84374 z M -1164,258.14042 c 7.15,-0.80051 17.8857,-2.15065 23.8571,-3.00031 l 10.8571,-1.54484 7.6429,-6.9012 c 8.6568,-7.81671 17.9909,-17.47487 23.3084,-24.1176 4.6865,-5.85456 9.1966,-14.60512 8.2865,-16.07772 -2.273,-3.67775 -24.5715,4.92767 -42.452,16.38302 -11.7972,7.55806 -51,36.3138 -51,37.40918 0,0.27945 1.4625,0.23739 3.25,-0.0935 1.7875,-0.33087 9.1,-1.25654 16.25,-2.05706 l 0,3e-5 z m -187.5,59.43605 c 0,-0.55 0.45,-1 1,-1 0.55,0 1,0.45 1,1 0,0.55 -0.45,1 -1,1 -0.55,0 -1,-0.45 -1,-1 z m 28.0345,-70.96083 c -1.2671,-0.79856 -1.1771,-1.84473 0.6652,-7.73135 3.8546,-12.31668 3.8546,-12.31881 -0.1539,-7.89121 -1.9502,2.15414 -3.5458,3.40729 -3.5458,2.7848 0,-0.6225 1.4049,-2.73197 3.1221,-4.68771 2.5592,-2.9147 3.3858,-3.33703 4.5847,-2.3421 1.0776,0.8944 1.2925,2.3472 0.8166,5.5211 -0.3553,2.36901 -0.4034,4.3073 -0.107,4.3073 0.2964,0 3.709,-4.725 7.5836,-10.5 6.9413,-10.3458 9.6456,-12.92034 8.413,-8.00932 -0.445,1.77311 -0.1624,2.66824 0.9809,3.10699 1.9917,0.76428 2.0296,4.25829 0.074,6.84346 -2.0872,2.7596 -1.8199,3.79682 0.7818,3.03367 l 2.25,-0.65997 -2.2517,1.65052 c -4.0175,2.9448 -5.5327,-0.081 -2.7424,-5.47669 1.3913,-2.69053 1.3629,-2.98854 -0.3741,-3.91816 -2.3627,-1.26445 -3.0309,-0.4958 -10.3703,11.9295 -7.3803,12.49452 -7.9282,13.1727 -9.7269,12.03917 l 2e-4,0 z m 27.0519,-22.78917 c 0.5703,-1.5125 2.1345,-4.63068 3.476,-6.92928 4.3816,-7.50786 8.5165,-10.14706 5.8321,-3.72258 -2.924,6.99822 -0.8013,6.04183 7.1055,-3.20145 5.3654,-6.27231 8.5576,-9.23058 9.6932,-8.98292 0.9312,0.2031 2.4635,-0.48191 3.405,-1.52225 2.2885,-2.52879 3.7488,-2.40847 2.356,0.19413 -1.928,3.60234 -0.4871,3.03308 4.0664,-1.60662 4.7803,-4.87079 5.9715,-5.41309 5.9943,-2.72903 0.011,1.25158 1.0256,0.61074 3.5638,-2.25 3.467,-3.90771 3.539,-3.93598 3.1191,-1.2256 -0.4033,2.60356 -0.073,2.43423 5.362,-2.75 6.2857,-5.99556 7.2969,-6.42447 8.8984,-3.7744 0.943,1.56044 1.5027,1.26256 5.1671,-2.75 3.8135,-4.1759 3.953,-4.52354 1.9363,-4.82687 -1.1953,-0.17978 -4.0361,0.59478 -6.3129,1.72124 -5.3039,2.62416 -5.9885,2.03729 -1.0414,-0.89267 4.9088,-2.90728 11.2927,-3.89177 11.2927,-1.74152 0,1.79551 -8.6941,11.73982 -10.2639,11.73982 -0.5933,0 -1.8378,-0.68701 -2.7656,-1.52669 -1.5421,-1.39563 -2.1891,-0.96876 -7.5357,4.97241 -5.8586,6.51022 -9.2154,9.03088 -8.0775,6.06562 0.9947,-2.59226 -1.1187,-1.65514 -3.3573,1.48866 -2.6759,3.75794 -4.4026,3.88621 -3.7124,0.27578 0.4981,-2.60581 0.3619,-2.54902 -3.1334,1.30661 -2.0098,2.21696 -4.1733,4.90536 -4.8077,5.97422 -1.1096,1.86932 -1.1892,1.85087 -2.0877,-0.48384 -0.9214,-2.39436 -0.9678,-2.37063 -3.4268,1.75295 -1.371,2.29909 -2.7941,3.87884 -3.1624,3.51056 -0.3683,-0.36829 -0.6696,0.0804 -0.6696,0.99705 0,2.11146 -1.6249,2.15944 -2.7873,0.0823 -0.7345,-1.3125 -1.4723,-0.86338 -4.2997,2.61746 -5.1732,6.36878 -5.8445,6.93043 -7.5163,6.28888 -1.074,-0.41212 -1.358,-1.33997 -0.931,-3.0413 0.9917,-3.95126 -1.017,-1.74402 -2.9001,3.18666 -0.9521,2.49297 -2.1327,4.53266 -2.6236,4.53266 -0.4909,0 -0.4259,-1.2375 0.1444,-2.75 l 0,1e-5 z m 26.9136,-21.74134 c 0,-1.6249 -2.3124,-0.0444 -4.011,2.74134 -3.0958,5.07756 -2.3308,6.52191 1.011,1.9087 1.65,-2.27776 3,-4.37028 3,-4.65004 z m -69.5539,19.40421 c -1.0305,-1.66742 1.2873,-3.57951 2.6668,-2.2 1.1539,1.15392 0.4317,3.28713 -1.1129,3.28713 -0.4851,0 -1.1843,-0.48921 -1.5539,-1.08713 z m 49.2206,-22.57954 c -0.3667,-0.36666 -0.6667,-1.52916 -0.6667,-2.58333 0,-2.59345 2.4152,-1.66977 2.8195,1.07833 0.3094,2.10247 -0.7881,2.86972 -2.1528,1.505 z m 75.2019,-17.84318 c -4.7752,-2.59454 -4.6984,-5.71784 0.3932,-15.99015 6.2224,-12.55358 18.359,-27.5 22.3304,-27.5 6.7752,0 3.2437,12.36584 -5.8721,20.56171 -5.0234,4.51648 -8.0698,5.91879 -11.391,5.24352 -4.1592,-0.84565 -7.1441,10.3304 -3.9322,14.72294 2.0398,2.78949 9.6165,2.35489 24.309,-1.39436 10.5035,-2.68029 28.4058,-9.02233 34.0462,-12.06116 0.9613,-0.51795 6.9229,-3.50101 13.2479,-6.62903 6.325,-3.12802 12.2903,-6.37972 13.2561,-7.226 0.9659,-0.84628 2.0304,-1.26449 2.3655,-0.92935 0.9656,0.96559 -7.9998,6.28887 -22.4398,13.32387 -15.9934,7.79178 -24.6053,11.04238 -41.8495,15.79626 -13.9134,3.83563 -20.2443,4.37436 -24.4637,2.08175 z m 15.5555,-24.53783 c 3.3754,-3.73621 8.5759,-12.78319 8.5759,-14.91907 0,-0.56829 -1.0899,-1.03325 -2.4221,-1.03325 -2.705,0 -7.2104,4.74606 -13.6875,14.41848 -2.7611,4.12329 -3.6053,6.13972 -2.7831,6.64787 2.0118,1.24331 6.6509,-1.05631 10.3168,-5.11403 z m -3.3843,15.59567 c -3.369,-4.05947 7.4925,-15.78337 13.0023,-14.03462 1.8283,0.58027 1.8505,0.79364 0.379,3.63926 -0.9011,1.74246 2.7646,-1.47041 8.6542,-7.58521 5.6196,-5.83443 10.3697,-10.45572 10.5559,-10.26953 0.1862,0.1862 -0.5547,2.09064 -1.6465,4.23211 -1.0918,2.14146 -1.7903,4.58576 -1.5523,5.43178 0.5049,1.7948 -4.915,6.47601 -6.4206,5.54551 -1.4326,-0.88538 -1.2562,-2.50729 0.2726,-2.50729 0.7064,0 2.1027,-1.4625 3.1028,-3.25 1.2638,-2.25885 -0.6165,-0.81025 -6.1655,4.75 -4.3912,4.4 -8.6569,7.86519 -9.4795,7.70042 -0.8226,-0.16477 -2.9389,1.52273 -4.7029,3.75 -3.5229,4.44796 -4.2151,4.74765 -5.9995,2.59757 z m 8.379,-7.54799 c 4.8522,-6.17605 5.0159,-6.80663 1.2655,-4.87503 -4.1549,2.13988 -6.6843,5.18585 -6.6843,8.04935 0,1.55412 0.1586,2.82568 0.3525,2.82568 0.1938,0 2.4737,-2.7 5.0663,-6 z m 21.6235,-11.75 c 0.023,-0.4125 2.6956,-4.11515 5.9385,-8.2281 3.243,-4.11296 5.7755,-7.59894 5.6278,-7.74661 -0.1477,-0.14767 -2.4825,0.37325 -5.1885,1.15759 -2.7061,0.78435 -7.5076,1.73468 -10.6701,2.11183 -4.8305,0.57608 -5.75,0.43688 -5.75,-0.87047 0,-0.85591 0.5625,-1.91395 1.25,-2.35119 2.9321,-1.86479 14.6214,-5.40537 19.7218,-5.97353 4.284,-0.47723 6.0265,-1.20477 7.7422,-3.23267 1.5636,-1.84799 2.2246,-2.16144 2.25,-1.06685 0.02,0.8525 -0.4965,2.0825 -1.1473,2.73334 -3.0111,3.0111 0.8687,1.96374 9.8166,-2.65 5.3829,-2.77551 9.9407,-4.89268 10.1285,-4.70483 0.4141,0.41403 -12.2393,7.56514 -13.4243,7.58681 -0.4606,0.008 -1.4788,0.42117 -2.2626,0.91723 -1.142,0.72272 -0.7943,1.43271 1.75,3.57358 3.3719,2.83729 3.8566,4.90399 2.0698,8.82566 -0.7607,1.66947 -1.6883,2.27345 -2.9749,1.937 -1.1106,-0.29044 -3.1286,0.5706 -4.9714,2.12116 -3.3046,2.78068 -4.4928,3.15627 -5.3904,1.70393 -1.0089,-1.63238 -4.6902,0.12374 -5.6719,2.70566 -0.7267,1.91133 -1.2418,2.2448 -2.1164,1.37017 -0.8746,-0.87463 -0.6511,-1.83884 0.9184,-3.9617 2.3012,-3.1126 8.083,-14.29108 6.5728,-12.70801 -0.5246,0.55 -3.7432,4.7125 -7.1523,9.25 -5.9067,7.86159 -7.1618,9.1938 -7.0663,7.5 z m 16.7448,-11.85604 c 1.1138,-1.63891 1.2165,-1.28796 0.7627,2.60604 l -0.5244,4.5 4.5475,-5 c 4.3214,-4.75147 4.5132,-4.85088 3.8582,-2 -0.5401,2.35033 -0.4229,2.75071 0.541,1.84884 3.1885,-2.98353 -1.897,-10.07599 -6.5907,-9.19162 -1.7267,0.32535 -8.3302,10.91312 -8.3217,13.34278 0,0.9939 3.2664,-2.48479 5.7274,-6.10604 z m -12.9672,-3.91345 c 3.476,-0.81946 7.526,-2.14479 9,-2.94518 l 2.6801,-1.45525 -3.8922,-0.04 c -3.9322,-0.0404 -15.8407,3.12276 -18.6078,4.94276 -2.3171,1.52399 3.3386,1.26143 10.8199,-0.50229 l 0,-4e-5 z m 29.1801,2.07851 c 0,-1.74279 1.6397,-2.89975 2.9563,-2.08601 1.331,0.82257 0.1322,3.52699 -1.5633,3.52699 -0.7661,0 -1.393,-0.64844 -1.393,-1.44098 z"
       id="path2834"
       sodipodi:nodetypes="cssssccccccssssssssssssssssssssssssssssscccssssssssssssssssssssssssscccssssssssssssssssssssssssscccssssssssssssssssssssccscccsscccssssssssssccssssssscccccsssscccccssssscccsssccssssssssssscccssscccssssssssssssssssssssssssssssssssssscccssccssccssccssssssssssssccssssccssssssssssssccsssccsssssssssssssssssssssssscccccsssscccccscccssc" />
  </g>
</svg>
