<?xml version="1.0" encoding="utf-8"?>
<!-- Generator: Adobe Illustrator 19.0.0, SVG Export Plug-In . SVG Version: 6.00 Build 0)  -->
<svg version="1.1" id="Layer_1" xmlns="http://www.w3.org/2000/svg" xmlns:xlink="http://www.w3.org/1999/xlink" x="0px" y="0px"
	 viewBox="0 0 459.3 89.4" style="enable-background:new 0 0 459.3 89.4;" xml:space="preserve">
<g>
	<g>
		<path d="M330.4,58.1c-1.3-1.2-2.6-2.3-3.6-3.6c-2.2-3-2.2-7.2,1.7-9.4c6.1-3.5,12.5-4.5,19.1-1.8c4.6,1.9,7.8,5.5,9.3,10.3
			c0.2,0.5,0.3,0.9,0.6,1.6c2.5-0.9,5-1.7,7.4-2.6c2.2-0.8,4.5-1.7,6.7-2.3c0.5-0.1,1.3,0.2,1.7,0.6c0.3,0.2,0.3,1,0.1,1.4
			c-0.8,1.6-1.8,3.1-2.6,4.9c1.6-0.7,3.3-1.4,4.9-2.2c1.5-0.7,3-1.4,4.4-2.3c0.9-0.5,1.6-0.4,2.3,0.2c0.8,0.7,0.4,1.3,0.1,2
			c-0.1,0.2-0.1,0.4-0.2,1c1.5-0.5,2.7-0.9,4-1.3c0.2-0.1,0.4-0.2,0.5-0.3c2.3-1.5,4.2-1.8,6.2,0.7c0.7,0.9,2.5,1.3,3.8,1.5
			c2.5,0.3,5.1,0.2,7.6,0.2c0.6,0,1.3-0.4,1.7-0.8c2.2-2.4,4.9-3.8,8.1-4.4c1-0.2,3.3,0.9,3.4,1.8c0.1,0.7-0.4,1.4-0.6,2.3
			c0.8,1.1,2.1,1.8,3.7,1.7c2.1-0.2,4.2-0.2,6.2-0.7c4.8-1.3,9.6-0.9,14.4-0.2c4,0.5,8,1,12,1.5c0.5,0.1,1,0.4,1.5,0.5
			c0,0.2,0,0.3-0.1,0.5c-1.6,0.1-3.2,0.4-4.8,0.3c-4.9-0.2-9.9-0.7-14.8-0.9c-2.1-0.1-4.3,0.3-6.4,0.5c-2.3,0.3-4.6,0.8-6.9,0.9
			c-1.3,0.1-2.7,0.1-3.8-0.5c-1.6-0.9-2.7-0.3-4.1,0.3c-1.9,0.9-4,1.6-6,2.1c-2.2,0.5-3-0.2-3.6-2.3c-2.5-0.1-5.1-0.2-7.6-0.4
			c-2.2-0.2-4.3-0.9-5.9-2.6c-0.3-0.3-1.2-0.3-1.7-0.2c-1.7,0.6-3.3,1.4-5,1.9c-2.9,0.9-3.6,0.6-4.6-2.1c-2.3,1.1-4.5,2.2-6.8,3.2
			c-0.9,0.4-1.9,0.6-2.9,0.7c-2,0.3-2.9-0.7-2.2-2.6c0.4-1.2,1.1-2.3,1.9-3.8c-4,1.5-7.8,2.8-11.5,4.2c-0.1,1.7-0.2,3.5-0.4,5.2
			c-0.7,5.1-6.5,7.4-10.6,6.7c-1.7-0.3-2.8-2.4-2.5-4.6c0.1-0.6,0.2-1.2,0.4-2.1c-2.4,0.7-4.5,1.5-6.7,2.1c-2.4,0.7-4.8,1.4-7.2,1.8
			c-3.6,0.5-4.9-1-4.1-4.8c-1.1,0.6-2.1,1-3.1,1.5c-6.4,3.5-13,6.6-20.1,8.2c-3.8,0.9-7.5,1.3-10.9-1.2c-0.2-0.2-0.7-0.1-1.1,0
			c-5.9,1.6-12,1.5-18,0.9c-5.5-0.6-11-1.4-16.4-2.4c-6-1.2-11.7-3.4-16.3-7.7c-0.5-0.5-1-1-1.4-1.5c-2.3-3.2-1.8-5.6,1.8-7
			c3.8-1.5,7.8-2.8,11.8-3.9c5.9-1.6,12-2.9,18-4.2c3.5-0.8,7.1-1.5,10.6-2.3c0.3-0.1,0.5-0.2,0.9-0.3c-1.3-2.4-2.7-4.7-3.9-7.1
			c-2-4-3.3-8.2-2.3-12.8c0.9-4.2,3.4-7.1,6.9-9.4c5.8-3.8,12.4-5.6,19-7.3c7.4-1.9,15-3.5,22.7-3.6c2.3,0,4.6,0.1,6.8,0.7
			c3.2,0.9,4.2,3.2,3.4,6.5c1.5-0.5,3-1.2,4.5-1.5c2.9-0.6,5.9-1,8.8-1.4c0.8-0.1,1.7,0,2.5,0.3c3.4,1.3,4.4,3.2,3.5,6.5
			c-0.8,2.8-2.6,4.9-4.6,6.9c-3.2,3.3-6.8,5.8-11,7.6c-3.4,1.5-6.7,3.2-10.1,4.8c-0.6,0.3-1.3,0.1-1.9,0.2c-0.3,0-0.8,0.2-0.8,0.2
			c0.1,1.4-1.1,1.1-1.7,1.3c-5.6,1.8-11.3,3.4-17,5.1c-1,0.3-1.9,1-2.5,1.8c-3.7,4.7-7.1,9.6-9.8,15c-0.4,0.8-0.4,1.4,0.1,2.2
			c1,1.8,2.1,3.6,2.7,5.5c1.1,3.1,0.6,4.1-2.3,5.6c-0.2,0.1-0.4,0.3-0.9,0.6c5.4,1.5,10.1-0.7,14.8-1.8c-1,0.6-2,1.2-3,1.7
			C311.1,69.2,324.7,62.2,330.4,58.1z M325.9,3.3c0,0.1,0,0.2-0.1,0.3c-0.9,0-1.9-0.1-2.8,0c-8.1,0.8-16,2.3-23.7,4.7
			c-5.1,1.5-10.1,3.2-14.5,6.2c-5.9,4-7.6,8.8-5.8,15.4c1.1,4,3.3,7.6,5.3,11.1c0.2,0.3,0.9,0.6,1.3,0.5c1.6-0.2,3.2-0.6,4.8-0.9
			c0.8-0.2,1.1-0.4,1-1.4c-0.1-1,0.1-2.2,0.6-3c0.6-1,1.7-1.8,2.7-2.6c5.1-3.8,10.9-6.4,16.6-9.1c4.4-2.2,8.9-4.1,12.6-7.5
			c2.1-2,4.6-3.7,7.1-5.3c1.3-0.9,2.2-1.9,2.9-3.3c0.8-1.7,0.4-3.1-1.3-3.6C330.3,4,328,3.7,325.9,3.3z M291.6,68.5
			c-2.2-4.1-1.1-7.7,0.4-11.4c0.2-0.5,0.2-1.3-0.1-1.7c-2.2-3.4-4.6-6.7-6.8-10.1c-0.6-0.9-1.2-1.1-2.2-0.9
			c-10.7,2.4-21.4,4.8-32.1,7.3c-2.9,0.7-5.7,1.9-8.4,3.1c-2.7,1.3-2.9,2.9-0.8,5.1c0.4,0.4,0.8,0.8,1.2,1.1
			c2.8,2.2,5.8,3.9,9.2,4.9c10.8,3.3,21.8,4.6,33.1,3.6C287.2,69.4,289.3,68.9,291.6,68.5z M308.5,35.8c0.1,0.1,0.2,0.3,0.3,0.4
			c0.3,0,0.6,0.1,0.8,0c7.7-2.2,15.4-4.5,22.7-7.7c2.9-1.3,5.7-2.6,8.5-4.2c4.6-2.6,8.7-5.8,11.5-10.3c2.2-3.5,1.2-5.8-2.7-5.9
			c-2.7-0.1-5.6,0.4-8.2,1.1c-3.9,1-7.6,2.5-10.4,5.5c-1.1,1.2-2.5,2.2-3.8,3.1c-3.3,2.2-6.5,4.4-9.2,7.4
			C314.8,28.8,311.6,32.3,308.5,35.8z M336.3,57.2c0.4,0.2,0.5,0.3,0.7,0.3c6.2,0.8,12.1-0.3,18.1-1.7c0.8-0.2,0.8-0.6,0.7-1.3
			c-0.7-4.5-5.3-9.2-10.1-10.2c-5.2-1.1-10.1-0.2-14.7,2.3c-3.9,2.1-4.6,4.9-1.9,7.8c0.8,0.9,2.2,1.4,3.4,1.7
			c0.4,0.1,1.2-0.8,1.7-1.3c0.3-0.2,0.6-0.4,0.8-0.6c0.9-0.9,1.7-0.2,2.3,0.4c0.2,0.3-0.1,1.1-0.2,1.7
			C337,56.5,336.6,56.8,336.3,57.2z M292.8,40.1c3.4-0.7,6.5-1.5,9.7-2c1.6-0.3,2.7-1.2,3.7-2.5c2.5-3.1,5-6,7.6-9
			c0.3-0.4,0.7-0.8,1-1.2c-2.5,0.9-4.7,1.9-6.9,3.1c-4.2,2.4-8.5,4.8-12.6,7.4C293.9,36.6,292.8,37.9,292.8,40.1z M286.1,43.8
			c2.5,3.7,4.8,7.1,7.1,10.5c3-4.7,5.9-9.3,8.9-14.1C296.7,41.5,291.6,42.6,286.1,43.8z M348.2,59.5c1.5,1,1.1,1.9,0.3,2.9
			c-0.4,0.5-0.7,1-0.9,1.5c-0.3,1-0.5,2-0.8,3c1,0,2,0.3,3,0.1c4.4-0.9,7.1-4.3,6.2-9.1C353.5,58.5,351,59,348.2,59.5z M328.9,63.9
			c0.1,0.2,0.3,0.4,0.4,0.7c5.6-0.6,10.7-2.7,15.9-4.6c-0.3-0.2-0.5-0.2-0.7-0.3c-3.2-0.2-6.3-0.4-9.5-0.6c-0.4,0-0.9-0.1-1.1,0.1
			C332.2,60.8,330.5,62.4,328.9,63.9z M293,67.8c0.7-0.3,1.2-0.5,1.7-0.7c1.9-1.1,2.3-1.8,1.5-3.9c-0.5-1.4-1.3-2.7-2.1-4.3
			C292.4,61.9,291.9,64.6,293,67.8z"/>
		<path d="M240.1,66.7c-4.2,0.3-8.2-0.1-11.5-3.1c-0.6-0.6-1.1-1.6-1.8-1.7c-0.7-0.2-1.5,0.6-2.4,0.8c-6.1,1.9-12.3,3-18.7,2.3
			c-2.8-0.3-5.7-1.1-7.1-4c-0.5-1-0.7-2.2-1.1-3.4c-3.4,0.7-6.7,1.6-10,2.1c-2.6,0.4-5.3,0.5-8,0.5c-1.7,0-3.2-1-4.2-2.4
			c-0.8-1.1-1.4-1-2.5-0.4c-2.8,1.4-5.5,3.2-8.8,3.4c-1.4,0.1-2.6-0.4-3.1-1.6c-0.6-1.3-1.4-1.2-2.4-0.8c-3.2,1.4-6.3,2.8-9.5,4.1
			c-1.7,0.7-3.3,1.3-5.1,1.7c-1,0.2-2.3,0.3-3-0.2c-1.4-1-2.3-0.3-3.5,0.3c-4.1,2.2-8.5,3.8-13.2,3.9c-4.1,0.1-6.3-1.4-7.8-5.2
			c-0.2-0.6-0.4-1.1-0.7-1.9c-0.4,0.2-0.8,0.4-1.2,0.6c-2.7,1.8-5.5,3.6-8.7,4.5c-3.2,0.9-4.4,0.4-6.1-2.5c-1.7,1.2-3.4,2.6-5.2,3.6
			c-2.3,1.2-4.6,2.5-7.1,3.1c-3.7,0.8-6.2-1.6-6.2-5.4c0-0.3,0-0.7,0-1.2c-2.3,0.9-4.4,1.8-6.6,2.6c-3.5,1.3-7.1,2-10.8,0.8
			c-0.4-0.1-1,0.1-1.4,0.3C57,71.1,51.6,74.6,46.2,78c-4.9,3.1-10,5.7-15.5,7.4c-2.4,0.7-5.1,1.2-7.6,1.2c-5.6-0.1-9.1-3.9-9.3-9.5
			c-0.2-3.5,0.7-6.9,1.9-10.2c2.4-6.7,5.5-13,9.4-19c6.9-10.8,14.7-20.8,24-29.5c1.5-1.4,3.2-2.6,4.8-3.8c1.1-0.8,2.2-0.8,3.3-0.1
			c1.1,0.7,1.5,1.7,1.2,2.8c-0.7,3.2-1.2,6.5-2.3,9.6c-1.6,4.5-3.5,8.8-5.7,13.1c-1.4,2.7-3.5,5.1-5.3,7.5c-0.5,0.6-1.3,1-1.9,1.5
			c-0.2,0-0.4-0.1-0.6-0.1c-0.2-1.1-0.7-2.2-0.5-3.2c1.3-6.2,4-11.8,7.6-16.9c0.8-1.1,1.8-0.9,2.7,0.4c-1,1.3-2,2.4-2.8,3.7
			c-2,3.3-3.5,6.8-4.4,10.6c0.6-0.8,1.3-1.6,1.9-2.4c3-4,5.2-8.5,6.8-13.2c1.1-3.2,2.1-6.4,3-9.7c0.2-0.6-0.1-1.4-0.2-2.1
			c-0.7,0.2-1.6,0.3-2.2,0.7c-4.2,2.7-7.7,6.4-11,10.1c-6.3,6.9-12,14.3-16.9,22.3c-2.6,4.1-4.6,8.6-6.7,13
			c-1.9,3.9-3.5,7.8-4.1,12.1c-0.2,1.9-0.3,3.9,0.1,5.8c0.6,3.4,3.4,5.5,6.8,5.1c2.9-0.4,5.8-1.2,8.7-1.9c0.2-0.1,0.4-0.1,0.7-0.2
			c0.1,0.1,0.1,0.3,0.2,0.4c-1.8,0.7-3.5,1.4-5.3,2c0,0.1,0.1,0.2,0.1,0.3c1.6-0.5,3.2-0.8,4.7-1.4C39,81.7,45.6,78,51.9,73.8
			c3.2-2.1,6.3-4.2,9.5-6.3c0.2-0.2,0.4-0.4,0.7-0.6c-1.1-1.2-2.2-2.2-3.1-3.4c-2.5-3.7-2.2-7.7-0.7-11.6
			C62,41.6,68.7,33.4,77.3,26.8c2.9-2.2,6.1-4,9.3-5.7c3.2-1.7,6.7-0.7,8.2,2.3c0.7,1.5,0.7,3.5,0.4,5.2c-0.7,3.9-2.5,7.4-4.6,10.8
			C86,46.9,80,53.2,73.5,59c-2.2,2-4.6,3.7-7,5.6c-0.5,0.4-1,0.8-1.6,1.3c2.2,0.7,4.1,0.4,5.9-0.3c3.8-1.4,7.6-3,11.3-4.8
			c0.9-0.4,1.3-1.7,2-2.5c1.7-2.2,3.1-4.8,5.1-6.6c3.3-3,7.4-2,9.6,1.9c0.3,0.5,0.6,0.9,1,1.3c1.5,1.2,2,2.5,1.6,4.4
			c-0.1,0.5,0.2,1,0.3,1.6c0.1,0.6,0.3,1.2,0.3,1.8c0.1,1.8,0.4,2.1,2.1,1.8c3.1-0.6,5.5-2.4,8.1-4.1c0.7-0.5,1.4-0.9,2.1-1.4
			c1.5-0.9,3-0.4,3.5,1.3c0.3,1,0.5,2.2,0.9,3.2c0.8,2,2.5,2.9,5.3,2.6c4.8-0.5,9.3-2.1,13.4-4.6c0.4-0.2,0.7-1,0.6-1.5
			c-0.6-3.9,1.3-6.6,4.2-8.9c1.5-1.2,3.3-1,4.8,0.3c1.2,1,0.9,2.1,0.2,3.1c-1.6,2.2-3.3,4.2-5,6.3c-0.3,0.3-0.6,0.6-0.9,0.9
			c0.1,0.1,0.1,0.3,0.2,0.4c1.3-0.3,2.7-0.4,3.9-0.9c3.6-1.4,7.2-3,10.8-4.5c0.9-0.4,1.8-0.7,2.7-1c1.6-0.5,3,0.2,3.5,1.8
			c0.3,0.9,0.9,1.1,1.6,0.9c1.4-0.4,2.8-0.9,4.2-1.5c1.7-0.7,3.4-1.5,5-2.3c1.3-0.6,2.3,0.1,2.9,1c1.4,2.4,3.7,2.7,6,2.5
			c5.6-0.5,11.2-1.6,16.5-3.6c1.1-0.4,1.7,0.2,2.4,0.6c0.2,0.1-0.1,1.2-0.3,1.6c-1.2,2.1-0.5,4.2,1.8,5.1c3,1.1,6.1,1.1,9.2,0.8
			c4.8-0.4,9.6-1.3,14.1-3.1c0.6-0.3,1.2-0.9,1.5-1.6c1.1-2.7,3.5-3.3,5.5-1.3c0.6,0.6,0.6,1.1-0.1,1.6c-0.9,0.6-1.8,1.3-2.7,1.8
			c-0.8,0.4-0.9,0.9-0.4,1.4c0.9,0.9,1.9,1.8,3,2.2c1.9,0.7,4,1.1,6,1.6c0.6,0.2,1.1,0.5,1.6,0.7C240.3,66.4,240.2,66.6,240.1,66.7z
			 M59.3,57.5c0,3.4,0.7,5.2,2.2,6.7c1.6,1.6,2.3,1.6,4,0.3c0.8-0.6,1.6-1.2,2.4-1.8c6.3-4.6,11.6-10.4,16.6-16.3
			c2.8-3.3,4.5-7.2,6.4-11.1c1.5-3.1,2.9-6.1,2.9-9.6c0-1.5-0.7-2.7-2.1-3c-1-0.2-2.2-0.2-3.2,0.1c-4.1,1.1-7.4,3.7-10.6,6.3
			c-6,4.9-11,10.7-14.8,17.5C61,50.4,59.4,54.2,59.3,57.5z M97.9,56.2c-0.7,0.1-1,0.2-1.2,0.3c-3.2,1.5-6.4,3.1-9.7,4.4
			c-2.4,1-3.2,2.9-3.6,5.1c-0.4,1.8,0.7,3,2.6,2.9c0.8,0,1.7-0.1,2.3-0.5c3-1.8,6-3.7,9-5.6c0.3-0.2,0.6-0.5,0.6-0.8
			C97.9,60,97.9,58.2,97.9,56.2z M89.4,57.4c-0.1-0.1-0.1-0.1-0.2-0.2c2.6-1.1,5.2-2.1,7.8-3.2c-1-2-2.6-2.5-4.6-1.6
			c-3.2,1.5-4.6,4.4-5.9,7.6c2.1-1.1,4.3-2.2,6.4-3.3c-0.1-0.1-0.1-0.3-0.2-0.4C91.6,56.7,90.5,57.1,89.4,57.4z M140.4,59.5
			c2.1-2.2,4.1-4,5.2-6.6C143.1,53.3,140.6,56.3,140.4,59.5z M78.7,63.4c0.1,0.2,0.2,0.3,0.3,0.5c0.9-0.5,1.7-1,2.6-1.6
			c-0.1-0.2-0.2-0.3-0.3-0.5C80.5,62.4,79.6,62.9,78.7,63.4z"/>
	</g>
</g>
</svg>
