<?xml version="1.0" standalone="no"?>
<!DOCTYPE svg PUBLIC "-//W3C//DTD SVG 20010904//EN"
 "http://www.w3.org/TR/2001/REC-SVG-20010904/DTD/svg10.dtd">
<svg version="1.0" xmlns="http://www.w3.org/2000/svg"
 width="468pt" height="94pt" viewBox="0 0 468 94"
 preserveAspectRatio="xMidYMid meet">
<metadata>
Created by POTRACE VERSION, written by Peter Selinger 2001-2007
</metadata>
<g transform="translate(0,94) scale(0.052881,-0.052881)"
fill="#000000" stroke="none">
<path d="M1810 1536 c-25 -7 -59 -20 -76 -29 -17 -9 -36 -23 -43 -31 -7 -8
-32 -24 -56 -36 -24 -11 -66 -43 -94 -70 -27 -28 -57 -50 -65 -50 -9 0 -38
-17 -65 -37 -27 -21 -67 -61 -90 -89 -22 -28 -58 -63 -81 -78 -22 -14 -40 -31
-40 -36 0 -5 -24 -22 -52 -36 -29 -15 -64 -35 -77 -45 -13 -11 -31 -19 -40
-19 -9 0 -42 -18 -74 -40 -31 -22 -60 -40 -63 -40 -3 0 -26 -19 -52 -42 -25
-24 -61 -58 -80 -77 -18 -19 -38 -44 -43 -55 -6 -12 -19 -37 -29 -56 -11 -19
-19 -43 -20 -52 0 -12 -8 -18 -23 -18 -13 0 -28 -5 -35 -12 -7 -7 -12 -20 -12
-29 0 -10 4 -21 10 -24 5 -3 23 1 40 10 27 14 33 14 60 0 24 -12 38 -13 77 -5
26 6 67 22 91 36 42 25 43 25 75 7 17 -10 39 -23 47 -29 8 -6 35 -18 60 -27
25 -9 63 -17 83 -17 21 0 62 7 90 16 29 8 66 23 82 31 17 9 34 22 38 30 4 7
16 13 26 13 9 0 52 32 95 72 43 39 97 96 119 126 23 30 52 70 64 90 12 21 29
52 38 71 8 18 15 41 15 51 0 9 9 29 21 44 14 18 19 34 15 51 -4 14 -17 32 -31
41 -20 13 -30 14 -60 4 -19 -6 -61 -25 -93 -42 -31 -17 -78 -49 -103 -72 -26
-22 -63 -52 -83 -66 -20 -14 -43 -37 -52 -52 -8 -16 -19 -28 -24 -28 -5 0 -17
-15 -26 -32 -9 -18 -29 -46 -44 -63 -15 -16 -31 -41 -35 -55 -4 -14 -19 -38
-32 -54 -16 -19 -23 -38 -20 -52 2 -13 1 -28 -3 -35 -6 -9 -19 -9 -56 0 -27 7
-55 17 -62 24 -7 6 -20 23 -28 39 -13 25 -13 32 7 70 11 22 39 67 61 100 22
32 71 90 109 128 38 39 103 93 144 120 42 27 85 52 95 55 11 4 20 10 20 15 0
5 -9 12 -20 15 -11 3 -20 10 -20 14 0 3 31 32 69 63 37 31 79 61 92 68 13 7
40 26 59 42 19 15 39 28 45 28 5 0 23 14 39 30 15 16 41 33 57 39 17 6 29 6
29 1 0 -6 -23 -31 -51 -57 -28 -27 -62 -57 -74 -69 -13 -12 -40 -32 -62 -44
-21 -13 -42 -28 -48 -35 -5 -7 -31 -21 -57 -33 -27 -11 -48 -26 -48 -31 0 -6
9 -11 21 -11 11 0 35 11 53 25 18 14 38 25 44 25 6 0 30 15 54 33 24 18 54 39
68 48 14 9 48 38 76 65 28 27 68 71 88 97 20 27 36 57 36 68 0 10 -6 19 -12
18 -7 0 -33 -6 -58 -13z m-136 -464 c3 -5 -1 -28 -8 -53 -8 -24 -29 -67 -48
-95 -19 -27 -47 -68 -63 -90 -16 -21 -45 -54 -65 -73 -19 -18 -53 -49 -76 -67
-23 -19 -50 -34 -61 -34 -11 0 -26 -7 -33 -15 -7 -8 -20 -15 -29 -15 -9 0 -27
-7 -39 -16 -13 -9 -29 -13 -37 -10 -9 3 -15 18 -15 35 0 17 13 49 29 73 16 24
50 68 75 98 26 30 49 58 54 62 4 4 27 25 52 48 25 22 48 40 52 40 4 0 22 13
40 29 18 15 58 42 88 59 30 18 60 32 67 32 6 0 14 -4 17 -8z m-628 -154 c4 -6
0 -16 -9 -23 -10 -7 -17 -17 -17 -24 0 -6 -12 -21 -26 -34 -14 -12 -37 -46
-50 -76 -13 -29 -24 -68 -24 -85 -1 -17 -9 -41 -19 -53 -12 -14 -30 -23 -48
-23 -16 0 -39 -7 -51 -16 -13 -9 -29 -13 -37 -10 -10 3 -15 20 -15 47 0 35 8
51 51 103 28 33 90 93 137 133 48 39 90 72 94 72 4 1 10 -4 14 -11z"/>
<path d="M2265 1340 c-11 -5 -34 -9 -52 -9 -18 -1 -49 -12 -70 -25 -21 -13
-46 -33 -56 -43 -10 -10 -52 -54 -93 -97 -40 -44 -76 -88 -80 -98 -3 -10 -9
-18 -14 -18 -5 0 -24 -21 -42 -47 -17 -27 -58 -79 -89 -118 -31 -38 -60 -80
-63 -91 -4 -12 -41 -53 -84 -91 -42 -38 -90 -77 -107 -85 -16 -9 -61 -29 -100
-45 -42 -18 -71 -36 -73 -46 -3 -12 3 -17 20 -17 13 0 39 6 58 13 19 7 45 18
57 25 12 7 32 12 44 12 12 0 47 20 77 45 30 25 58 42 63 39 5 -3 9 -16 9 -28
0 -13 6 -28 13 -33 6 -5 32 -17 57 -26 25 -9 55 -17 65 -17 11 0 40 7 65 16
25 9 47 19 50 24 3 4 57 11 121 15 l117 7 28 -31 c24 -28 33 -31 84 -31 31 0
87 10 124 21 38 12 83 35 102 51 19 17 34 34 34 39 0 4 12 25 26 46 14 21 31
41 37 45 7 4 25 8 40 8 15 0 30 -7 33 -15 3 -8 -5 -28 -18 -44 -12 -17 -29
-30 -36 -30 -7 -1 -17 -13 -23 -27 -7 -20 -6 -32 6 -50 8 -13 22 -24 29 -24 7
0 40 32 72 70 32 39 79 82 103 95 24 14 53 25 65 25 11 0 30 7 40 15 11 8 28
15 37 15 10 0 21 -5 24 -11 4 -5 0 -18 -8 -27 -8 -9 -18 -33 -22 -52 -5 -28
-2 -42 15 -63 20 -25 26 -27 98 -27 42 1 97 6 122 12 25 6 68 11 95 11 28 1
66 -5 85 -12 19 -8 50 -20 67 -29 25 -11 51 -13 108 -9 42 4 90 14 107 23 l31
16 -26 26 c-23 22 -29 24 -49 14 -13 -7 -43 -10 -68 -7 -25 3 -64 8 -87 11
-23 3 -48 13 -55 21 -10 13 -8 19 12 34 14 11 35 28 48 38 15 13 22 31 22 53
0 19 -5 39 -12 46 -7 7 -18 12 -25 12 -7 0 -30 -18 -50 -40 -21 -22 -44 -40
-50 -40 -7 0 -20 -11 -29 -26 -9 -14 -29 -31 -44 -39 -15 -8 -47 -21 -71 -30
-24 -8 -68 -18 -96 -21 -45 -6 -54 -4 -59 11 -5 13 0 24 17 37 13 10 42 33 63
51 22 17 60 39 85 47 34 11 47 21 49 37 3 17 -3 24 -22 29 -15 3 -32 2 -39 -4
-6 -5 -42 -15 -78 -21 -36 -6 -105 -11 -152 -11 -72 0 -96 -4 -140 -25 -51
-24 -55 -25 -90 -10 -20 8 -62 15 -94 15 -32 0 -63 -4 -68 -8 -6 -4 -37 -42
-69 -85 -32 -43 -68 -82 -80 -86 -11 -5 -34 -13 -51 -18 -16 -6 -37 -13 -45
-17 -8 -3 -22 -1 -30 4 -12 9 -3 22 51 73 36 34 69 71 73 83 3 11 0 28 -8 39
-13 18 -15 17 -57 -17 -24 -19 -49 -38 -55 -41 -7 -4 -9 14 -6 55 3 44 1 63
-9 69 -8 4 -41 6 -74 3 -33 -3 -80 -13 -105 -22 -27 -9 -68 -37 -103 -71 -32
-31 -67 -71 -79 -89 -12 -21 -18 -41 -14 -56 5 -22 2 -24 -47 -29 -34 -3 -61
0 -79 9 -23 12 -28 21 -28 53 0 22 6 44 15 51 8 7 15 18 15 24 0 6 23 38 51
71 27 33 96 106 152 162 56 57 105 103 109 103 4 0 23 15 43 32 19 18 35 38
35 45 0 7 15 19 33 27 17 8 48 31 68 53 20 21 42 48 48 61 10 18 10 27 0 38
-6 8 -14 14 -18 13 -3 0 -15 -4 -26 -9z m-65 -544 c0 -1 -5 -16 -11 -32 -6
-16 -32 -46 -59 -66 -38 -29 -59 -38 -90 -38 -25 0 -40 5 -40 13 0 6 22 31 49
54 27 23 60 45 75 49 14 3 29 10 32 15 3 5 14 9 25 9 10 0 19 -2 19 -4z"/>
<path d="M7785 1279 c-16 -5 -158 -13 -315 -19 -157 -6 -330 -14 -385 -19 -55
-5 -125 -14 -155 -19 -30 -6 -140 -13 -245 -16 -124 -4 -229 -2 -302 6 -74 8
-125 9 -150 2 -28 -7 -38 -14 -38 -29 0 -19 6 -20 105 -17 58 1 112 -2 120 -7
8 -6 12 -12 10 -14 -3 -2 -39 -23 -80 -46 -41 -24 -87 -52 -102 -62 -15 -11
-30 -19 -33 -19 -4 0 -21 -11 -38 -24 -18 -14 -61 -34 -96 -47 -54 -18 -70
-20 -96 -10 -18 6 -46 8 -63 5 -25 -5 -33 -3 -38 11 -4 9 -28 26 -53 37 -34
15 -57 18 -91 13 -25 -4 -63 -15 -85 -24 -23 -10 -65 -44 -95 -75 -30 -31 -80
-73 -111 -92 -31 -18 -68 -34 -82 -34 -14 0 -28 4 -31 9 -3 4 3 19 14 31 11
13 20 29 20 35 0 7 -7 18 -15 25 -8 6 -23 9 -36 5 -11 -4 -39 -25 -61 -47 -22
-22 -55 -46 -74 -54 -18 -8 -38 -14 -44 -14 -5 0 -10 4 -10 10 0 5 18 21 40
35 22 14 49 25 60 25 13 0 20 7 20 19 0 10 7 24 15 31 8 7 15 22 15 35 0 12
-8 29 -18 38 -12 11 -39 17 -82 18 -36 0 -77 -4 -91 -9 -15 -6 -36 -8 -48 -5
-12 3 -35 -4 -56 -17 -19 -12 -35 -26 -35 -32 0 -6 -11 -23 -25 -39 -13 -16
-32 -54 -42 -85 l-17 -55 30 -25 c27 -22 36 -24 109 -20 44 2 106 10 137 17
51 11 60 10 76 -4 10 -10 35 -17 54 -17 20 0 52 7 71 15 20 8 51 15 69 15 18
0 47 9 64 19 17 10 69 56 115 101 74 74 89 84 130 90 25 3 51 4 57 2 7 -2 12
-12 12 -23 0 -10 -12 -25 -29 -33 -15 -8 -43 -38 -61 -67 -26 -39 -31 -55 -23
-68 5 -9 20 -17 31 -19 14 -2 32 7 49 26 16 16 54 50 87 76 l58 47 92 -2 c69
-2 98 2 121 14 17 9 36 17 43 17 8 0 12 -3 10 -7 -2 -5 -12 -25 -22 -45 -16
-30 -17 -42 -8 -62 6 -14 30 -33 58 -45 25 -12 61 -21 79 -21 18 0 52 7 76 16
35 12 67 14 154 8 88 -5 124 -3 180 11 41 10 80 27 96 41 14 13 31 24 37 24 8
0 11 -14 10 -42 -3 -39 -1 -43 35 -62 32 -17 42 -18 70 -8 19 7 39 12 46 12 7
0 33 14 58 31 25 16 52 28 60 24 9 -3 13 -13 10 -25 -3 -11 3 -26 13 -35 10
-9 35 -25 56 -35 33 -18 59 -20 205 -20 125 0 175 4 202 15 20 8 49 15 64 15
15 0 37 7 47 15 11 8 29 15 41 15 12 0 30 12 42 28 11 15 23 36 26 47 4 11 3
25 -1 30 -4 6 -20 19 -36 29 -21 13 -40 17 -69 13 -21 -3 -44 -10 -49 -15 -5
-5 -6 -16 -2 -25 3 -9 17 -17 29 -17 13 0 26 -4 30 -10 3 -5 -7 -16 -23 -24
-16 -8 -58 -20 -93 -27 -35 -6 -96 -14 -136 -16 -39 -3 -109 0 -154 6 -46 6
-88 16 -94 22 -7 7 0 19 25 40 19 16 52 39 73 50 22 11 54 32 73 47 27 22 34
34 34 63 0 19 -5 40 -12 47 -7 7 -33 12 -58 12 -26 0 -65 -9 -88 -20 -23 -11
-46 -29 -52 -40 -6 -11 -17 -20 -25 -20 -9 0 -23 -9 -32 -20 -10 -11 -21 -20
-26 -20 -5 0 -36 -25 -69 -55 -33 -31 -75 -62 -95 -70 -19 -8 -39 -13 -44 -10
-4 3 -6 12 -3 20 3 8 14 17 24 20 11 3 40 24 66 45 26 21 53 53 60 69 12 28
11 32 -13 51 -18 14 -33 18 -47 13 -12 -4 -47 -7 -79 -8 -52 0 -62 -4 -83 -28
-13 -16 -24 -36 -24 -46 0 -10 -8 -25 -17 -33 -10 -9 -40 -25 -67 -37 -27 -12
-70 -21 -97 -21 -27 0 -49 5 -49 10 0 6 10 15 23 20 12 6 36 19 52 30 17 11
38 23 48 26 13 5 17 15 15 38 -3 26 -7 31 -34 34 -20 2 -36 -4 -49 -18 -10
-11 -24 -20 -30 -20 -7 0 -18 -7 -25 -15 -7 -8 -19 -15 -27 -15 -8 0 -29 -11
-46 -24 -18 -13 -52 -33 -77 -44 -25 -11 -68 -26 -97 -32 -40 -9 -61 -9 -88 0
-19 6 -35 14 -35 17 0 2 15 21 33 40 17 20 39 42 47 50 8 8 55 44 104 81 49
36 112 89 140 118 l51 52 225 7 c124 4 258 9 299 10 41 2 101 8 135 14 34 6
242 12 463 14 309 3 405 7 417 17 9 7 16 18 16 26 0 7 -23 17 -57 25 -32 6
-105 13 -163 14 -58 1 -118 -2 -135 -6z m-850 -358 c3 -5 -2 -17 -11 -25 -8
-9 -22 -16 -30 -16 -8 0 -14 6 -14 13 0 7 5 18 12 25 7 7 18 12 24 12 7 0 15
-4 19 -9z m-1757 -37 c-2 -9 -30 -26 -68 -41 -36 -13 -71 -30 -79 -38 -11 -11
-12 -17 -3 -28 10 -12 6 -15 -25 -20 -21 -4 -41 -3 -46 2 -5 5 -4 19 3 31 7
13 30 42 52 66 40 43 42 44 105 44 54 0 64 -3 61 -16z"/>
<path d="M4550 1191 c-30 -10 -74 -27 -97 -39 -23 -12 -47 -22 -53 -22 -5 0
-10 7 -10 15 0 9 -7 18 -15 21 -8 3 -24 -1 -37 -10 -13 -9 -43 -16 -71 -16
-27 0 -58 -7 -72 -16 -15 -9 -56 -18 -105 -21 l-80 -6 -15 37 c-14 32 -19 36
-54 36 -24 0 -44 -7 -54 -18 -10 -10 -17 -30 -17 -45 0 -16 10 -34 28 -47 25
-21 35 -22 155 -17 106 5 127 3 127 -9 0 -8 -6 -14 -13 -14 -8 0 -28 -20 -46
-45 -18 -25 -37 -45 -43 -45 -5 0 -23 -11 -39 -24 -16 -13 -60 -59 -99 -101
-69 -74 -71 -77 -68 -123 3 -45 5 -47 39 -56 20 -5 49 -6 65 -2 16 4 53 33 84
65 30 31 93 98 140 149 47 51 88 100 93 107 4 8 13 15 19 15 6 0 33 23 60 51
28 29 71 63 96 77 26 14 68 36 94 49 27 12 61 23 76 23 16 0 37 -9 47 -20 16
-18 16 -21 2 -44 -9 -14 -32 -36 -50 -50 -19 -14 -43 -26 -55 -26 -11 0 -24
-4 -27 -10 -3 -5 -17 -10 -31 -10 -13 0 -24 -4 -24 -8 0 -5 -11 -15 -25 -22
-14 -7 -25 -19 -25 -27 0 -7 6 -14 13 -14 6 -1 16 -1 21 0 5 1 23 4 40 6 17 3
42 6 55 7 14 2 28 -4 34 -14 9 -14 8 -24 -6 -47 -9 -16 -17 -35 -17 -43 0 -8
-21 -35 -47 -60 -36 -35 -59 -49 -88 -53 -29 -5 -44 -3 -52 7 -6 7 -14 23 -18
36 -6 19 -2 25 24 35 24 9 31 17 31 39 0 26 -3 28 -43 28 -30 0 -49 -6 -60
-18 -11 -12 -17 -36 -17 -64 0 -28 6 -50 15 -58 8 -7 15 -18 15 -25 0 -7 11
-20 25 -29 13 -9 41 -16 62 -16 21 0 61 9 88 19 33 13 64 35 92 67 24 26 49
62 57 79 10 22 12 46 5 95 l-8 65 50 50 c39 40 49 58 49 84 0 23 -9 41 -29 62
-25 25 -37 29 -83 28 -29 0 -78 -8 -108 -18z m-280 -198 c0 -3 -54 -61 -119
-127 -66 -67 -135 -139 -154 -161 -30 -33 -37 -37 -50 -26 -9 7 -13 20 -10 29
4 9 16 29 27 43 12 15 50 51 86 80 36 29 94 79 129 111 35 32 70 58 77 58 8 0
14 -3 14 -7z"/>
<path d="M8159 1079 c-14 -5 -31 -20 -37 -32 -6 -12 -13 -46 -16 -75 -4 -46
-2 -55 20 -77 14 -14 31 -25 39 -25 8 0 19 9 25 20 6 11 8 31 4 45 -4 17 -1
32 8 43 9 9 18 33 21 53 3 21 1 41 -6 48 -6 6 -16 11 -21 10 -6 0 -23 -5 -37
-10z"/>
</g>
</svg>
