<?xml version="1.0" standalone="no"?>
<!DOCTYPE svg PUBLIC "-//W3C//DTD SVG 20010904//EN"
 "http://www.w3.org/TR/2001/REC-SVG-20010904/DTD/svg10.dtd">
<svg version="1.0" xmlns="http://www.w3.org/2000/svg"
 width="468pt" height="113pt" viewBox="0 0 468 113"
 preserveAspectRatio="xMidYMid meet">
<metadata>
Created by POTRACE VERSION, written by Peter Selinger 2001-2007
</metadata>
<g transform="translate(0,113) scale(0.011567,-0.011567)"
fill="#000000" stroke="none">
<path d="M18245 9533 c-16 -2 -46 -20 -66 -39 -19 -19 -52 -39 -73 -45 -20 -5
-51 -23 -69 -38 -17 -16 -46 -36 -64 -45 -18 -9 -37 -25 -42 -35 -6 -10 -28
-26 -51 -35 -22 -8 -45 -25 -52 -36 -7 -12 -52 -43 -99 -71 -48 -27 -91 -49
-96 -49 -6 0 -23 -16 -38 -36 -15 -20 -39 -41 -54 -48 -14 -6 -60 -30 -102
-54 -44 -24 -80 -52 -87 -66 -6 -13 -25 -32 -41 -42 -17 -10 -34 -26 -37 -36
-3 -10 -23 -27 -44 -38 -21 -11 -62 -37 -91 -57 -29 -21 -69 -54 -90 -74 -20
-19 -50 -41 -68 -48 -17 -8 -31 -17 -31 -22 0 -5 -25 -28 -56 -51 -30 -24 -79
-61 -108 -83 -29 -22 -84 -65 -122 -96 -38 -31 -80 -62 -94 -69 -14 -7 -43
-29 -65 -48 -22 -20 -52 -52 -67 -72 -15 -20 -50 -49 -78 -64 -35 -19 -56 -39
-70 -66 -13 -26 -35 -47 -69 -65 -27 -15 -54 -38 -61 -51 -7 -13 -30 -34 -50
-48 -20 -13 -59 -52 -86 -87 -27 -34 -61 -74 -77 -88 -15 -14 -44 -42 -64 -61
-20 -19 -49 -53 -65 -74 -15 -22 -41 -47 -57 -57 -17 -10 -38 -38 -49 -63 -13
-29 -34 -54 -62 -72 -26 -17 -51 -46 -66 -76 -13 -26 -35 -53 -48 -60 -13 -7
-40 -28 -61 -46 -23 -20 -45 -54 -57 -85 -10 -29 -32 -65 -48 -82 -15 -16 -49
-51 -74 -77 -25 -26 -46 -54 -46 -62 0 -8 -13 -25 -29 -38 -16 -13 -36 -37
-45 -55 -8 -17 -29 -41 -45 -52 -16 -11 -36 -38 -46 -58 -10 -21 -32 -57 -49
-81 -17 -24 -43 -58 -57 -75 -14 -18 -34 -48 -44 -67 -10 -19 -36 -57 -59 -83
-23 -27 -56 -64 -73 -83 -18 -19 -33 -39 -33 -44 0 -6 -30 -40 -66 -77 -36
-38 -74 -84 -84 -103 -10 -19 -30 -46 -45 -60 -15 -14 -57 -64 -93 -112 -36
-49 -69 -88 -74 -88 -4 0 -23 -24 -42 -53 -19 -29 -41 -58 -49 -65 -8 -7 -24
-35 -36 -62 -15 -34 -34 -58 -59 -74 -20 -13 -44 -32 -53 -42 -9 -11 -24 -39
-33 -64 -10 -25 -30 -58 -46 -75 -21 -21 -33 -51 -45 -102 -9 -41 -29 -90 -46
-115 -16 -24 -33 -59 -38 -78 -5 -19 -13 -66 -17 -105 -3 -38 -16 -92 -27
-120 -16 -40 -21 -79 -25 -197 l-4 -147 31 -64 c17 -35 31 -77 31 -94 0 -26 6
-34 37 -50 30 -15 40 -27 53 -70 10 -30 34 -72 56 -96 21 -24 73 -64 114 -90
41 -25 89 -51 107 -57 24 -9 46 -8 98 5 37 10 82 15 100 12 18 -3 70 -21 116
-41 l84 -36 220 -9 c186 -8 229 -13 280 -32 38 -13 84 -22 125 -22 36 0 81 4
100 10 19 6 108 14 198 18 141 5 162 4 162 -9 0 -9 -13 -22 -30 -31 -16 -8
-34 -24 -40 -35 -6 -11 -25 -27 -43 -36 -18 -9 -54 -33 -82 -54 -27 -21 -67
-43 -88 -50 -21 -6 -59 -29 -85 -51 -26 -21 -60 -49 -77 -62 -16 -13 -47 -29
-67 -36 -20 -7 -42 -19 -50 -28 -7 -9 -38 -27 -68 -40 -30 -14 -73 -40 -95
-58 -22 -19 -51 -45 -65 -58 -14 -13 -45 -34 -70 -47 -25 -13 -65 -39 -89 -59
-23 -20 -58 -50 -76 -68 -19 -17 -49 -34 -67 -38 -18 -4 -53 -21 -77 -39 -24
-17 -62 -48 -85 -68 -23 -20 -64 -53 -91 -72 -28 -19 -75 -48 -106 -65 -30
-16 -61 -37 -69 -46 -7 -9 -32 -26 -54 -37 -23 -11 -52 -31 -66 -44 -14 -12
-42 -30 -62 -39 -21 -8 -45 -27 -54 -41 -10 -14 -35 -34 -58 -46 -23 -11 -66
-46 -96 -77 -30 -31 -75 -68 -100 -84 -25 -15 -72 -47 -105 -72 -33 -24 -86
-64 -118 -87 -33 -24 -75 -54 -96 -68 -20 -14 -62 -50 -92 -80 -31 -30 -61
-65 -68 -78 -7 -14 -42 -37 -84 -56 -46 -21 -80 -45 -95 -65 -13 -18 -44 -45
-68 -61 -25 -15 -55 -39 -68 -52 -12 -12 -44 -39 -71 -58 -27 -19 -67 -53 -89
-76 -23 -22 -55 -46 -73 -53 -17 -7 -82 -66 -146 -134 -64 -67 -133 -144 -154
-170 -21 -26 -67 -78 -102 -115 -35 -37 -72 -86 -82 -109 -11 -23 -35 -60 -53
-82 -19 -23 -42 -65 -52 -93 -9 -29 -29 -71 -44 -93 -14 -22 -39 -68 -54 -103
-15 -34 -30 -78 -33 -97 -3 -19 0 -65 7 -102 7 -37 26 -99 42 -138 16 -38 41
-83 56 -99 15 -16 51 -44 80 -63 29 -19 86 -43 129 -53 60 -16 110 -20 232
-20 100 0 174 5 206 14 28 7 73 22 100 33 28 11 75 23 105 27 30 3 114 25 185
48 72 22 144 51 160 63 17 12 41 28 55 36 16 9 59 14 123 14 l97 0 39 43 c21
23 43 42 47 42 5 0 35 4 67 10 48 7 67 17 103 50 39 36 49 40 96 40 34 0 64 7
84 19 17 10 54 24 82 30 28 6 91 33 139 60 48 27 99 58 113 69 14 10 45 29 70
42 25 12 68 37 95 56 28 18 104 51 169 73 92 31 127 48 155 75 24 23 82 55
172 94 75 33 152 71 170 84 19 14 48 33 66 42 18 9 63 39 100 67 37 28 88 61
113 74 25 13 54 33 65 45 11 13 39 31 62 41 23 10 49 29 57 42 9 13 35 29 58
36 29 9 63 35 120 93 44 44 97 87 118 96 22 9 67 40 102 67 34 28 98 88 142
133 45 47 101 94 127 108 36 18 56 38 82 81 20 32 56 79 81 105 25 26 53 60
63 75 10 16 26 34 36 41 10 8 27 33 38 57 11 24 27 46 35 49 8 3 26 32 40 63
14 32 34 67 44 78 10 11 26 46 35 78 9 32 29 73 45 90 15 18 44 71 64 119 19
48 39 111 44 140 4 29 4 132 1 228 -6 147 -11 187 -32 250 -14 41 -30 116 -37
165 -9 75 -17 98 -46 140 -28 41 -34 60 -34 100 0 31 7 60 18 76 9 15 36 51
58 81 38 50 47 56 100 67 33 8 84 26 114 42 30 15 78 33 105 40 29 7 65 25 86
44 22 20 51 34 77 38 31 5 45 14 58 37 13 21 48 45 117 80 55 27 106 50 114
50 8 0 60 23 116 51 56 27 106 54 112 60 5 5 23 9 40 9 18 0 57 9 87 19 31 11
79 35 107 54 39 27 69 38 129 48 49 8 99 24 139 45 34 18 85 40 115 48 29 8
87 28 128 46 41 17 91 46 110 64 19 19 51 42 70 51 19 10 71 22 116 26 45 5
123 20 175 34 52 14 108 30 124 36 17 6 59 17 95 25 36 7 114 13 174 14 108 0
110 0 182 40 40 22 84 40 97 40 13 0 59 9 102 20 43 11 86 20 97 20 11 0 18
-7 18 -18 0 -10 -17 -41 -37 -68 -21 -27 -44 -53 -52 -58 -7 -4 -21 -17 -30
-28 -9 -10 -33 -37 -53 -59 -21 -22 -38 -44 -38 -49 0 -5 -18 -30 -40 -57 -23
-26 -62 -70 -88 -96 -26 -26 -59 -55 -73 -64 -14 -8 -38 -36 -54 -62 -16 -25
-55 -73 -86 -106 -31 -33 -64 -74 -74 -92 -11 -18 -31 -37 -46 -43 -15 -7 -33
-25 -39 -41 -7 -16 -25 -37 -41 -46 -15 -9 -43 -35 -62 -57 -18 -23 -55 -80
-80 -127 -35 -64 -49 -101 -53 -145 -4 -33 -1 -84 5 -115 8 -39 23 -69 46 -97
29 -34 48 -44 118 -66 45 -13 129 -29 187 -34 77 -7 127 -6 190 4 47 7 128 27
180 43 52 16 136 45 185 64 50 18 117 37 150 41 36 4 67 14 80 25 11 10 39 28
62 40 23 11 45 25 48 31 4 6 37 26 73 46 37 19 81 45 99 57 17 12 55 36 83 52
29 17 71 45 94 63 22 18 54 40 71 50 16 9 46 34 67 54 21 21 56 42 78 48 32 9
54 8 101 -5 33 -8 85 -15 114 -15 35 0 68 -7 92 -20 24 -12 84 -25 158 -34 66
-8 142 -20 168 -26 34 -7 152 -8 385 -2 185 5 384 8 442 8 58 0 168 6 245 12
77 7 172 20 210 27 39 8 122 29 185 46 63 16 138 37 165 44 28 8 109 28 180
44 72 16 169 41 217 54 79 22 92 29 136 76 47 50 50 51 104 51 40 0 62 -5 79
-19 21 -17 24 -28 24 -88 0 -51 6 -80 23 -114 12 -26 48 -73 80 -105 36 -37
78 -68 112 -83 30 -13 101 -46 158 -73 56 -27 118 -60 138 -73 26 -17 50 -25
81 -25 24 0 64 -5 89 -11 33 -9 82 -8 196 1 84 7 194 16 243 19 63 5 129 20
223 50 73 23 149 52 170 63 20 12 71 43 112 69 41 27 89 60 106 74 18 14 38
25 46 25 8 0 24 -18 37 -40 18 -33 36 -46 99 -75 42 -20 87 -41 98 -48 12 -7
46 -30 75 -53 30 -22 68 -48 85 -57 17 -9 68 -22 115 -31 46 -8 97 -19 112
-25 16 -6 61 -11 102 -11 40 0 102 -7 137 -16 41 -11 86 -15 130 -12 54 4 77
11 110 34 38 27 48 29 122 27 45 -1 130 5 191 13 75 10 122 22 150 38 22 12
56 29 75 36 19 7 64 25 100 41 36 15 94 32 130 39 36 6 92 20 125 30 33 11 92
24 130 30 52 8 79 19 106 40 23 18 66 36 117 49 47 13 93 18 111 15 17 -4 35
-12 41 -18 5 -7 14 -45 20 -85 5 -40 16 -84 24 -99 8 -15 27 -39 43 -53 15
-15 41 -29 56 -33 16 -4 50 -27 77 -52 26 -25 63 -49 81 -54 19 -6 88 -10 153
-10 66 0 172 5 235 11 80 7 133 18 171 34 30 13 75 29 100 35 25 6 63 24 85
39 22 16 75 49 117 75 66 39 90 48 160 58 46 6 97 19 113 28 17 10 50 23 75
30 25 6 56 22 70 35 14 12 35 28 47 34 12 6 33 11 47 11 15 0 32 -9 41 -23 9
-12 26 -38 38 -57 14 -22 51 -51 97 -77 41 -24 100 -55 130 -69 30 -14 64 -34
75 -44 11 -11 38 -26 59 -35 28 -12 55 -15 100 -10 33 3 99 2 146 -3 82 -10
86 -11 115 -48 17 -21 42 -51 57 -66 15 -16 37 -28 52 -28 14 0 38 12 55 29
l29 28 188 6 c120 3 211 11 249 21 33 8 97 15 142 16 46 0 99 6 120 14 21 8
72 17 113 21 41 3 93 11 115 16 22 6 51 21 65 34 14 13 39 29 55 35 17 6 75
22 130 35 55 13 125 31 155 39 30 9 69 16 86 16 17 0 72 12 120 26 49 14 127
35 172 45 46 10 107 32 135 48 29 16 79 34 112 41 46 10 70 21 102 51 39 36
47 39 99 39 43 0 68 6 99 24 23 14 72 37 110 51 37 14 82 34 99 45 20 12 37
16 45 11 10 -6 12 -26 9 -74 -3 -49 -10 -74 -30 -103 -14 -22 -34 -66 -43 -98
-9 -33 -29 -78 -44 -100 -15 -23 -40 -72 -56 -111 -18 -44 -45 -87 -73 -115
-24 -25 -55 -65 -70 -90 -14 -25 -33 -54 -43 -65 -9 -11 -25 -47 -34 -80 -10
-33 -28 -73 -41 -88 -13 -16 -27 -41 -30 -55 -3 -15 -10 -42 -16 -60 -5 -17
-18 -37 -28 -42 -10 -6 -29 -28 -41 -50 -18 -31 -38 -48 -84 -70 -33 -17 -95
-37 -138 -45 -43 -8 -88 -20 -100 -27 -12 -7 -67 -15 -122 -19 -55 -4 -154
-13 -219 -19 -88 -8 -136 -18 -180 -37 -34 -14 -108 -38 -166 -53 -58 -15
-121 -34 -140 -43 -19 -8 -60 -20 -91 -26 -42 -9 -64 -20 -89 -46 -19 -19 -59
-44 -89 -55 -30 -12 -66 -29 -80 -39 -14 -10 -43 -26 -63 -34 -20 -9 -43 -25
-50 -37 -7 -12 -33 -32 -58 -45 -25 -13 -58 -37 -75 -54 -16 -18 -48 -43 -71
-56 -23 -14 -51 -39 -63 -57 -11 -18 -47 -57 -81 -86 -33 -29 -70 -73 -83 -97
-12 -23 -51 -101 -87 -171 -36 -71 -77 -145 -92 -165 -16 -20 -33 -51 -40 -70
-6 -19 -30 -59 -52 -89 -22 -30 -55 -71 -72 -92 -25 -28 -34 -49 -39 -95 -4
-32 -9 -65 -11 -74 -2 -9 -15 -21 -29 -27 -13 -6 -32 -28 -40 -49 -9 -21 -29
-51 -44 -68 -16 -16 -33 -39 -38 -50 -6 -11 -27 -67 -46 -125 -27 -77 -39
-135 -47 -218 l-10 -113 77 -84 c48 -53 91 -90 115 -100 31 -12 54 -13 132 -5
62 6 118 20 169 40 41 16 89 30 106 30 22 0 40 10 67 40 30 33 44 40 74 40 26
0 43 7 60 25 13 14 34 25 46 25 13 0 34 4 49 10 14 5 29 20 34 32 5 13 33 44
63 69 29 26 72 56 94 67 23 12 49 33 58 47 10 15 34 33 54 42 20 8 48 26 62
39 14 13 46 28 71 32 32 6 58 21 90 50 24 22 87 83 139 135 52 51 120 120 151
153 40 44 77 71 133 99 60 29 80 45 90 69 7 18 26 40 42 51 16 10 106 95 200
189 94 94 176 176 182 181 6 6 34 37 64 69 29 32 68 65 86 73 17 7 32 18 32
23 0 6 35 45 79 88 43 42 85 91 94 107 8 17 41 56 74 86 32 31 84 86 116 122
31 36 85 86 120 111 34 25 73 54 87 64 14 10 48 27 75 37 33 13 70 18 108 16
44 -2 69 3 110 23 29 13 94 32 145 41 61 10 114 13 157 9 62 -6 66 -6 100 25
32 28 42 31 99 31 49 0 69 5 90 21 14 11 54 31 88 45 34 13 78 40 98 59 27 26
51 38 105 50 39 9 84 27 100 39 17 13 52 30 78 39 27 9 64 30 83 46 18 17 50
33 70 37 24 4 39 14 47 31 7 17 25 28 55 36 29 8 58 25 80 49 27 29 45 38 83
43 41 6 54 13 80 46 17 21 36 39 42 39 7 0 28 5 47 10 19 5 50 23 69 39 19 17
52 33 72 36 21 4 46 2 57 -4 11 -6 34 -35 50 -63 16 -29 39 -98 52 -154 12
-55 28 -107 34 -115 6 -8 40 -39 76 -70 36 -31 79 -64 95 -75 17 -10 59 -49
95 -85 53 -55 75 -70 119 -83 30 -9 71 -16 91 -16 20 0 51 -8 70 -18 19 -10
49 -27 66 -37 31 -19 33 -19 147 10 106 27 120 28 164 17 26 -7 68 -25 94 -41
37 -23 61 -29 133 -34 79 -6 92 -4 139 18 29 13 97 44 152 68 55 25 118 50
140 55 22 6 79 16 127 23 l87 12 31 -26 c25 -22 42 -27 84 -27 41 0 62 6 92
26 21 15 71 42 109 61 39 18 96 56 128 83 37 31 77 55 109 65 29 8 58 15 66
15 9 0 36 13 61 29 34 21 63 30 109 34 55 4 74 12 140 56 42 28 82 59 89 70 7
10 42 29 80 42 37 12 84 32 103 45 19 12 60 29 91 38 31 9 62 23 69 31 7 8 57
38 112 67 76 40 106 62 124 90 19 30 35 41 77 53 37 11 58 23 67 40 7 13 24
28 39 34 14 5 43 12 64 16 26 4 42 14 54 33 9 15 42 51 72 80 31 29 66 55 79
59 14 3 46 -3 76 -14 28 -12 66 -26 84 -33 19 -7 55 -40 86 -77 43 -52 58 -81
80 -151 14 -48 26 -112 27 -142 0 -30 4 -75 10 -100 6 -25 13 -58 16 -73 4
-21 -1 -35 -20 -55 -13 -15 -32 -41 -40 -58 -9 -17 -31 -43 -51 -57 -19 -15
-37 -39 -41 -55 -3 -15 -31 -54 -63 -85 -31 -32 -99 -93 -150 -136 -51 -43
-120 -93 -153 -111 -37 -19 -71 -47 -87 -70 -15 -21 -39 -45 -54 -54 -14 -9
-36 -32 -48 -51 -12 -19 -26 -35 -31 -35 -5 0 -27 -18 -49 -40 -22 -22 -46
-40 -54 -40 -8 0 -31 -20 -51 -44 -20 -24 -53 -51 -74 -59 -20 -9 -44 -23 -52
-33 -7 -9 -36 -34 -64 -54 -27 -20 -66 -42 -86 -49 -19 -6 -51 -27 -70 -47
-19 -20 -48 -41 -65 -49 -17 -7 -52 -29 -77 -48 -26 -20 -57 -39 -69 -43 -13
-4 -59 -40 -103 -80 -51 -46 -100 -80 -133 -93 -29 -12 -76 -33 -104 -47 -28
-14 -79 -47 -112 -73 -34 -25 -79 -57 -100 -71 -30 -18 -54 -24 -95 -24 -31 0
-82 4 -113 9 -55 7 -58 7 -58 -14 0 -12 -7 -35 -15 -51 -9 -16 -29 -36 -45
-45 -16 -8 -35 -15 -43 -15 -8 0 -22 -9 -32 -20 -12 -13 -19 -42 -23 -90 -3
-45 -1 -75 7 -84 6 -7 36 -17 65 -20 29 -4 77 -7 105 -8 40 0 59 6 85 26 19
14 59 35 89 46 31 12 66 29 79 39 13 10 55 34 93 53 39 20 113 50 165 67 52
17 104 37 115 43 11 6 66 38 123 69 57 32 123 76 147 98 25 23 61 45 86 51 24
7 61 24 84 40 22 15 51 40 65 55 14 15 41 35 60 45 19 10 44 28 55 40 11 12
65 43 120 69 55 26 125 65 155 87 30 21 72 56 94 77 22 21 54 45 70 54 17 8
40 24 52 34 11 10 41 23 66 28 30 5 61 21 88 43 22 20 61 41 85 48 24 7 57 10
72 7 15 -3 38 -1 52 5 15 5 36 19 49 30 12 12 22 33 22 48 0 14 13 46 29 71
16 25 56 72 89 105 33 32 92 82 132 109 40 28 92 76 117 108 25 32 65 70 89
85 29 18 62 55 100 112 l57 85 11 120 c5 66 10 147 10 180 1 45 -6 72 -25 110
-14 28 -41 77 -59 110 -18 33 -48 77 -67 98 -18 20 -33 42 -33 48 0 6 -17 26
-37 45 -20 19 -48 54 -62 79 -14 24 -50 83 -79 130 -47 76 -54 94 -62 165 -5
44 -16 95 -25 114 -9 18 -27 44 -41 57 -22 21 -36 24 -102 25 -49 1 -91 7
-116 18 -26 12 -51 15 -76 11 -22 -4 -55 -21 -80 -42 -24 -21 -51 -58 -65 -89
-13 -30 -28 -54 -34 -54 -5 0 -28 -18 -51 -40 -23 -22 -51 -40 -61 -40 -11 0
-29 -5 -39 -10 -11 -6 -37 -36 -59 -68 -28 -41 -64 -74 -126 -117 -47 -33
-101 -72 -118 -86 -18 -14 -53 -36 -80 -47 -26 -12 -59 -34 -73 -51 -13 -16
-37 -32 -53 -36 -16 -3 -43 -17 -62 -31 -18 -13 -39 -24 -46 -24 -7 0 -37 -9
-68 -21 -30 -11 -68 -32 -85 -45 -16 -14 -51 -32 -77 -41 -26 -9 -61 -25 -78
-37 -16 -12 -69 -41 -117 -64 -48 -23 -109 -45 -135 -48 -34 -5 -87 -28 -178
-79 -78 -44 -156 -80 -195 -90 -36 -9 -102 -34 -147 -55 -45 -21 -97 -41 -115
-45 -18 -4 -70 -18 -115 -32 -71 -22 -93 -24 -160 -18 -43 3 -101 7 -128 8
-39 2 -68 -6 -125 -32 -65 -31 -89 -36 -185 -42 -60 -4 -117 -10 -126 -14 -10
-3 -36 -1 -59 5 -24 6 -61 24 -83 38 -40 26 -44 27 -201 27 -89 1 -170 4 -181
8 -12 4 -37 26 -56 50 l-35 42 -17 177 c-9 98 -21 187 -27 199 -7 12 -10 40
-7 63 2 22 18 74 36 115 17 41 46 91 65 111 19 21 38 57 45 85 7 26 19 61 26
76 8 15 22 73 30 128 8 56 15 131 15 168 0 66 -1 67 -45 109 -24 24 -61 48
-82 53 -21 6 -60 11 -86 11 -26 0 -63 -7 -82 -15 -26 -10 -40 -26 -54 -57 -10
-24 -35 -63 -55 -86 -20 -24 -36 -48 -36 -53 0 -6 -17 -28 -37 -49 -21 -22
-52 -57 -69 -77 -17 -21 -38 -51 -47 -68 -9 -16 -43 -58 -76 -92 -33 -35 -67
-63 -75 -63 -8 0 -39 -23 -68 -50 -29 -28 -71 -68 -94 -90 -22 -22 -56 -46
-75 -53 -19 -7 -59 -26 -89 -42 -30 -17 -68 -44 -85 -61 -17 -17 -62 -49 -100
-72 -39 -22 -95 -56 -125 -74 -30 -18 -80 -52 -112 -76 -31 -24 -85 -52 -120
-64 -35 -11 -77 -31 -94 -44 -17 -12 -70 -43 -118 -68 -48 -25 -100 -46 -115
-46 -15 0 -54 -7 -86 -15 -33 -9 -93 -31 -133 -50 -40 -19 -96 -37 -125 -41
-29 -4 -76 -15 -106 -26 -30 -10 -67 -18 -82 -18 -18 0 -32 7 -39 19 -5 11
-10 32 -10 46 0 19 21 51 74 109 66 75 75 90 91 155 9 39 28 88 41 107 16 23
28 61 35 111 6 41 15 87 20 102 6 14 19 35 29 46 10 11 23 38 28 60 6 22 13
67 17 100 4 33 19 84 35 115 15 30 35 80 43 110 9 31 31 78 49 105 31 47 33
55 31 127 -2 76 -2 77 42 140 25 35 52 75 60 91 11 19 13 36 7 60 l-8 32 -77
1 c-44 1 -93 8 -117 18 -22 9 -60 16 -84 16 -35 0 -56 -8 -102 -40 -33 -23
-85 -58 -118 -78 -32 -20 -95 -61 -140 -91 -44 -29 -94 -64 -109 -77 -16 -13
-34 -24 -42 -24 -7 0 -37 -16 -66 -36 -30 -20 -79 -47 -109 -59 -30 -12 -73
-34 -94 -48 -21 -15 -44 -27 -51 -27 -7 0 -41 -15 -76 -34 -36 -19 -94 -42
-129 -51 -35 -9 -89 -29 -120 -45 -31 -16 -85 -36 -120 -45 -36 -9 -77 -26
-92 -37 -16 -11 -65 -26 -111 -34 -45 -8 -91 -17 -102 -21 -11 -3 -31 -14 -45
-24 -16 -12 -71 -26 -153 -40 -71 -11 -161 -32 -200 -45 -40 -14 -129 -34
-199 -45 -71 -10 -144 -27 -163 -36 -32 -15 -40 -15 -68 -3 -18 8 -57 14 -87
14 -33 -1 -79 -10 -115 -24 -51 -20 -82 -24 -215 -28 -85 -2 -219 1 -297 6
-117 9 -150 14 -185 33 -24 13 -51 30 -60 38 -10 8 -18 26 -18 41 0 15 11 54
25 88 24 60 25 67 16 180 -5 65 -14 128 -20 140 -6 12 -24 28 -40 36 -15 8
-75 25 -132 36 -59 12 -119 19 -139 16 -19 -3 -52 -11 -74 -17 -23 -6 -55 -28
-81 -54 -31 -32 -57 -48 -100 -60 -32 -10 -76 -30 -98 -46 -22 -16 -45 -29
-51 -29 -6 0 -31 -14 -56 -31 -25 -16 -56 -35 -70 -40 -14 -6 -45 -14 -70 -19
-25 -5 -86 -24 -137 -43 -50 -19 -112 -48 -138 -65 -26 -17 -77 -38 -114 -46
-38 -9 -104 -32 -147 -52 -43 -20 -91 -42 -106 -50 -14 -8 -37 -14 -50 -14
-14 0 -32 8 -41 18 -10 10 -17 31 -17 46 0 16 11 42 25 58 l25 30 -22 31 c-16
22 -23 46 -22 77 0 25 4 79 8 121 5 42 6 93 2 113 -5 26 -17 43 -44 61 -30 20
-49 25 -100 25 -38 0 -75 6 -94 16 -18 9 -54 16 -84 15 -29 0 -70 -7 -91 -16
-21 -9 -47 -24 -58 -35 -11 -10 -38 -23 -60 -29 -22 -6 -78 -26 -125 -46 -47
-19 -104 -48 -127 -65 -24 -16 -69 -37 -100 -46 -32 -9 -85 -29 -118 -45 -33
-15 -92 -35 -132 -44 -40 -9 -82 -24 -95 -34 -13 -10 -46 -25 -73 -35 -28 -9
-67 -27 -87 -41 -19 -13 -55 -29 -79 -34 -24 -6 -65 -13 -90 -16 -26 -3 -68
-19 -95 -37 -33 -20 -69 -33 -109 -38 -33 -5 -86 -20 -117 -34 -31 -14 -85
-33 -120 -43 -53 -14 -99 -17 -283 -15 -121 1 -232 5 -247 8 -16 3 -44 27 -73
62 l-47 57 4 121 c3 121 3 121 40 175 20 30 72 90 114 134 43 44 91 98 108
120 18 22 48 75 69 117 21 43 42 101 47 129 6 29 10 80 10 114 0 52 -4 65 -24
84 -14 13 -57 31 -102 42 -43 11 -90 27 -105 35 -16 8 -37 14 -48 14 -11 0
-32 -15 -48 -34 -15 -18 -38 -38 -50 -45 -12 -6 -48 -55 -80 -108 -31 -54 -76
-118 -97 -141 -22 -24 -57 -52 -78 -63 -21 -11 -38 -23 -38 -28 0 -4 -12 -21
-26 -36 -14 -15 -36 -45 -50 -66 -13 -22 -29 -39 -35 -39 -5 0 -19 -21 -30
-46 -12 -25 -35 -62 -53 -82 -17 -21 -40 -50 -49 -65 -10 -15 -30 -33 -45 -39
-15 -7 -52 -35 -83 -63 -31 -27 -93 -76 -138 -108 -44 -33 -105 -68 -134 -79
-28 -11 -63 -30 -77 -43 -14 -13 -70 -44 -125 -70 -93 -43 -110 -48 -240 -63
-77 -8 -171 -16 -210 -16 -57 0 -80 5 -122 27 -28 15 -58 35 -65 45 -7 11 -27
26 -45 36 -18 9 -38 26 -44 38 -7 14 -10 47 -6 91 3 39 13 81 23 95 10 15 40
59 69 97 28 39 58 86 65 105 8 19 37 81 66 137 29 57 68 121 88 144 19 23 44
60 55 84 11 23 29 69 40 101 11 33 23 91 26 130 7 69 7 72 -23 105 -29 33 -33
34 -129 40 -72 5 -111 3 -146 -8 -26 -8 -56 -23 -65 -34 -9 -11 -35 -41 -57
-66 -22 -26 -80 -87 -130 -135 -49 -49 -130 -117 -180 -150 -49 -34 -105 -74
-123 -89 -17 -16 -57 -36 -87 -45 -32 -9 -61 -24 -68 -36 -7 -11 -30 -29 -52
-40 -22 -12 -55 -33 -75 -48 -19 -15 -60 -36 -90 -45 -30 -10 -64 -24 -76 -31
-11 -8 -45 -22 -75 -33 -30 -10 -77 -30 -104 -43 -28 -14 -75 -28 -105 -32
-30 -4 -93 -18 -140 -31 -47 -13 -104 -31 -127 -39 -22 -8 -88 -22 -145 -30
-56 -9 -139 -23 -183 -31 -44 -8 -163 -17 -265 -22 -102 -4 -248 -7 -325 -8
-77 0 -176 4 -220 9 -61 7 -101 19 -170 51 -60 29 -109 61 -147 97 -55 51 -58
57 -58 102 0 26 7 62 15 79 9 18 43 52 76 77 38 28 70 62 85 90 14 25 45 74
69 109 25 35 54 73 66 84 12 11 28 35 36 55 8 19 30 57 49 84 19 28 34 56 34
62 0 7 14 34 31 60 17 27 42 79 56 115 14 36 33 89 44 117 15 41 19 86 21 220
2 124 -1 177 -10 201 -9 20 -25 36 -45 42 -17 6 -70 16 -118 21 -54 6 -105 6
-135 1 -27 -5 -76 -26 -109 -46 -33 -19 -73 -49 -88 -65 -15 -17 -33 -30 -39
-30 -6 0 -34 -24 -62 -52 -29 -29 -72 -71 -97 -93 -24 -23 -62 -65 -84 -94
-22 -29 -64 -78 -94 -108 -51 -53 -55 -55 -68 -37 -11 15 -13 37 -9 96 6 74 5
78 -18 93 -13 9 -41 18 -62 21 -22 3 -62 12 -90 21 -49 16 -52 15 -120 -11
-38 -15 -79 -32 -91 -39 -11 -7 -51 -40 -88 -74 -44 -42 -77 -64 -100 -69 -19
-3 -55 -20 -80 -36 -25 -16 -71 -37 -102 -45 -31 -8 -73 -23 -93 -33 -20 -10
-77 -26 -126 -34 -49 -9 -105 -16 -125 -16 -20 0 -66 -14 -103 -31 -36 -17
-105 -37 -153 -46 -49 -8 -115 -26 -148 -40 -33 -14 -109 -34 -168 -44 -60
-10 -136 -29 -171 -43 -34 -14 -100 -34 -147 -44 -46 -11 -153 -41 -238 -67
-85 -25 -190 -60 -235 -76 -44 -17 -95 -39 -112 -50 -18 -11 -68 -26 -111 -33
-45 -8 -103 -27 -137 -45 -32 -17 -67 -31 -77 -31 -11 0 -36 -7 -57 -15 -20
-9 -46 -24 -57 -35 -11 -10 -49 -26 -85 -35 -36 -9 -80 -25 -98 -36 -18 -10
-58 -26 -90 -35 -31 -9 -76 -29 -100 -46 -31 -21 -63 -33 -113 -40 -45 -7 -83
-20 -107 -36 -20 -13 -59 -33 -87 -42 -27 -10 -77 -30 -110 -44 -33 -15 -85
-40 -115 -56 -30 -16 -81 -38 -113 -50 -32 -12 -74 -35 -92 -51 -18 -16 -66
-41 -106 -55 -41 -14 -87 -28 -104 -31 -21 -3 -40 3 -65 19 -27 18 -40 38 -56
85 -12 34 -33 75 -46 92 -14 16 -33 59 -42 96 -9 37 -23 80 -31 95 -8 15 -20
56 -29 91 -12 52 -13 100 -6 259 7 165 13 208 34 279 14 47 31 114 37 150 6
36 24 101 40 145 16 43 38 112 49 154 12 42 28 85 37 94 9 10 31 62 50 115 19
54 48 135 63 180 16 45 45 103 64 130 19 26 47 63 62 81 15 19 33 57 41 85 7
28 13 61 13 72 0 11 11 37 25 57 14 20 34 60 45 89 12 29 30 65 41 80 10 15
37 65 59 111 22 45 52 106 68 133 15 28 51 84 80 125 29 41 62 95 73 120 12
25 39 63 61 85 25 25 55 73 80 130 22 50 52 104 68 120 15 17 36 46 45 65 10
19 34 54 54 76 20 23 45 55 56 70 11 16 28 46 37 67 10 21 33 57 53 80 19 22
35 46 35 53 0 8 13 28 29 46 15 18 38 53 51 78 12 25 37 59 54 76 17 16 44 52
59 80 16 27 43 72 60 101 18 28 50 76 73 105 22 29 53 81 69 115 15 34 38 69
50 77 13 9 26 29 30 45 3 17 19 41 34 54 16 13 36 36 46 53 10 16 31 43 46 59
16 17 35 47 44 68 9 21 28 56 44 77 16 22 31 59 34 83 3 24 20 72 37 108 16
35 30 69 30 75 0 6 -27 40 -60 75 l-60 64 -88 1 c-48 1 -100 0 -117 -3z m-678
-909 c3 -8 -4 -29 -16 -45 -12 -16 -31 -51 -42 -77 -11 -26 -29 -56 -39 -67
-10 -11 -21 -35 -25 -54 -4 -18 -28 -56 -55 -86 -26 -28 -50 -65 -54 -81 -4
-16 -17 -39 -29 -52 -11 -12 -30 -37 -41 -56 -12 -18 -40 -62 -64 -99 -24 -36
-49 -68 -57 -71 -8 -3 -23 -22 -34 -43 -10 -21 -31 -49 -46 -63 -15 -14 -35
-41 -45 -60 -10 -19 -27 -43 -39 -54 -11 -10 -27 -40 -36 -66 -9 -26 -27 -58
-42 -71 -14 -13 -36 -47 -49 -76 -13 -28 -29 -55 -37 -60 -8 -4 -22 -21 -32
-38 -11 -16 -29 -42 -41 -57 -12 -15 -30 -51 -39 -80 -9 -29 -27 -62 -40 -73
-13 -11 -33 -45 -45 -76 -11 -31 -29 -64 -40 -74 -11 -10 -24 -34 -31 -54 -6
-20 -25 -53 -41 -74 -17 -21 -48 -73 -70 -114 -22 -42 -48 -104 -59 -138 -10
-34 -29 -71 -43 -84 -13 -12 -30 -43 -36 -69 -7 -26 -24 -68 -37 -95 -13 -26
-34 -88 -48 -138 -13 -51 -31 -99 -38 -108 -8 -9 -20 -27 -27 -40 -6 -12 -16
-53 -21 -90 -5 -36 -23 -93 -38 -126 -16 -33 -39 -98 -51 -145 -12 -46 -26
-92 -31 -103 -6 -10 -15 -62 -20 -115 -5 -53 -19 -146 -30 -207 -16 -84 -20
-130 -15 -195 3 -47 13 -119 22 -160 9 -41 25 -87 35 -102 14 -19 19 -44 19
-93 0 -37 9 -103 21 -148 11 -45 37 -111 56 -147 20 -36 51 -78 70 -95 26 -22
36 -41 40 -72 3 -24 0 -55 -7 -72 -6 -16 -24 -34 -38 -40 -15 -6 -71 -26 -126
-46 -94 -33 -105 -35 -231 -35 -73 0 -166 -6 -206 -14 -41 -8 -108 -19 -149
-25 -46 -7 -87 -8 -105 -2 -17 4 -73 6 -125 4 -67 -4 -139 1 -245 17 -82 12
-153 24 -156 26 -4 2 -48 8 -97 13 -78 8 -107 17 -214 66 -67 32 -138 68 -156
82 -18 13 -44 47 -58 76 -15 28 -36 64 -47 79 -18 25 -22 48 -27 185 -4 87 -3
176 2 198 5 22 24 63 41 90 18 28 41 71 50 96 10 26 26 54 37 64 10 9 24 41
30 71 6 29 23 70 37 91 14 21 34 57 44 81 10 23 33 62 51 85 18 23 47 58 65
77 17 19 40 53 49 75 9 22 30 57 48 77 17 20 46 56 65 80 18 24 47 67 65 97
17 29 41 69 53 89 12 20 37 48 56 62 20 14 54 40 77 57 24 18 54 47 67 65 13
18 31 49 39 68 8 19 28 49 44 65 15 17 34 50 40 75 7 25 19 58 28 75 8 16 35
53 60 82 25 29 63 65 84 80 21 14 55 52 74 84 20 32 42 60 50 63 8 3 25 30 38
60 14 32 49 80 81 113 31 32 64 72 72 88 8 17 32 47 52 69 20 21 56 60 81 86
25 26 53 59 64 75 10 15 39 40 64 56 24 15 53 42 63 58 10 17 35 47 56 68 21
21 57 67 80 103 23 36 51 74 63 85 11 11 35 34 53 51 18 17 46 39 64 48 19 9
50 44 77 84 24 37 64 88 89 114 38 39 54 48 103 58 47 9 68 20 100 52 23 22
58 50 77 61 20 12 46 37 59 56 14 21 38 39 63 48 22 7 58 32 80 53 23 22 45
40 49 40 5 0 29 15 53 33 25 17 67 51 94 74 27 24 62 49 78 57 16 9 38 31 50
51 13 23 37 43 65 55 24 11 63 39 87 62 24 24 59 53 79 65 19 12 39 23 43 23
4 0 10 -7 14 -16z m3323 -3143 c0 -10 -7 -24 -15 -31 -12 -10 -15 -10 -15 3 0
8 3 22 6 31 3 9 10 16 15 16 5 0 9 -8 9 -19z m-65 -116 c-1 -33 -10 -71 -29
-110 -20 -43 -26 -69 -21 -92 3 -18 -1 -62 -10 -98 -8 -36 -15 -98 -15 -137 0
-38 -7 -95 -16 -126 -9 -32 -22 -65 -29 -74 -6 -10 -30 -31 -53 -47 -22 -17
-52 -50 -67 -74 -14 -25 -45 -57 -68 -73 -23 -15 -65 -49 -93 -76 -28 -26 -75
-58 -105 -72 -30 -13 -61 -31 -69 -41 -8 -9 -41 -30 -74 -47 -34 -17 -74 -41
-89 -54 -16 -13 -34 -24 -41 -24 -8 0 -40 -18 -72 -40 -33 -22 -63 -40 -69
-40 -5 0 -27 -5 -48 -11 -21 -5 -53 -24 -73 -41 -27 -24 -46 -32 -85 -35 -28
-2 -69 -8 -92 -13 -23 -5 -59 -10 -79 -10 -27 0 -40 5 -48 19 -5 11 -10 22
-10 25 0 3 19 28 43 55 23 28 62 78 87 112 25 34 64 82 88 106 23 25 42 48 42
52 0 4 31 29 69 55 38 26 89 70 113 99 24 29 57 72 73 96 17 24 39 56 50 72
11 15 43 44 70 65 28 20 76 64 108 97 32 33 64 72 72 86 8 14 33 44 56 66 23
22 52 57 65 77 13 20 36 45 50 55 15 10 62 50 103 90 42 40 92 84 111 98 19
13 53 34 75 45 22 11 49 19 60 17 17 -2 20 -9 20 -52z m-4411 -1507 c21 -21
36 -48 40 -73 5 -26 20 -53 43 -76 26 -27 36 -48 39 -80 3 -24 12 -99 21 -166
10 -80 13 -164 10 -240 -3 -65 -11 -131 -17 -148 -6 -16 -16 -52 -21 -80 -5
-27 -20 -65 -34 -85 -13 -19 -29 -57 -36 -85 -6 -27 -30 -81 -53 -118 -22 -38
-68 -101 -101 -140 -34 -40 -71 -90 -84 -112 -13 -22 -38 -52 -56 -67 -18 -15
-35 -41 -38 -57 -4 -20 -17 -35 -36 -46 -17 -8 -40 -28 -51 -43 -12 -16 -42
-41 -68 -56 -27 -15 -58 -43 -71 -62 -13 -19 -44 -47 -68 -62 -25 -15 -79 -60
-120 -100 -41 -40 -93 -82 -114 -92 -21 -11 -45 -31 -54 -43 -8 -13 -32 -33
-53 -45 -21 -11 -47 -31 -58 -43 -10 -11 -40 -32 -65 -44 -25 -13 -51 -30 -58
-39 -7 -8 -26 -18 -42 -21 -16 -4 -43 -21 -61 -38 -17 -18 -46 -41 -64 -52
-18 -11 -42 -32 -53 -47 -14 -17 -41 -32 -77 -43 -30 -9 -62 -24 -71 -35 -9
-11 -42 -29 -72 -41 -31 -12 -65 -30 -76 -40 -11 -10 -41 -27 -66 -37 -26 -11
-50 -25 -54 -32 -4 -6 -32 -22 -63 -36 -31 -14 -66 -34 -78 -45 -11 -10 -49
-30 -84 -44 -35 -14 -71 -32 -80 -40 -10 -9 -55 -32 -101 -51 -46 -20 -126
-49 -177 -65 -51 -15 -98 -31 -105 -35 -7 -4 -22 -16 -34 -27 -12 -11 -59 -30
-104 -43 -44 -13 -95 -35 -111 -49 -17 -14 -42 -32 -57 -39 -14 -7 -47 -18
-74 -25 -26 -6 -89 -31 -141 -56 -52 -24 -114 -48 -138 -51 -24 -4 -72 -22
-108 -40 -36 -18 -87 -38 -114 -44 -28 -6 -79 -24 -115 -40 -36 -15 -88 -31
-116 -35 -27 -4 -76 -18 -108 -31 -40 -16 -90 -25 -156 -30 -80 -5 -103 -4
-129 10 -17 9 -38 30 -47 46 -8 16 -22 57 -30 91 -11 49 -12 74 -3 113 6 28
24 85 40 126 16 41 45 100 63 131 19 30 45 61 59 68 14 8 31 30 39 50 8 20 24
44 35 54 11 10 32 43 47 73 15 30 31 54 36 54 5 0 21 18 36 41 15 23 58 62 99
90 40 27 91 71 115 99 23 27 49 52 59 55 9 3 52 39 96 80 43 41 86 82 94 90 8
9 27 28 42 43 15 15 42 39 60 54 19 15 46 30 61 33 15 4 36 20 48 36 11 16 27
29 35 29 8 0 54 40 102 89 48 49 101 97 117 107 17 11 40 27 50 37 11 10 47
35 80 56 33 21 77 44 98 51 28 9 42 20 49 41 6 19 24 37 49 49 21 11 46 31 54
44 8 12 27 28 42 35 15 7 44 32 65 56 28 32 56 50 97 65 46 17 61 28 74 55 9
18 28 41 43 52 14 10 41 32 60 50 18 18 51 37 71 42 21 6 43 11 49 11 5 0 28
13 50 29 21 16 64 36 94 45 30 8 73 30 96 48 22 18 65 62 95 98 31 36 69 72
85 80 16 8 54 29 84 46 30 18 73 35 95 40 26 4 51 19 71 39 17 18 55 46 84 62
29 15 62 34 74 40 12 7 29 13 38 13 9 0 25 12 35 27 10 14 32 40 48 58 17 17
53 40 80 50 28 10 68 26 91 37 30 14 48 31 69 69 19 35 38 55 61 65 18 8 58
14 88 14 30 0 66 4 79 9 14 6 28 19 32 30 3 12 25 27 53 38 26 9 64 33 85 53
21 19 49 47 64 61 14 15 38 41 54 58 22 25 35 31 69 31 34 0 48 -6 74 -32z
m15934 -915 c8 -10 11 -30 8 -47 -3 -15 -19 -44 -36 -63 -16 -18 -30 -38 -30
-43 0 -5 -18 -19 -40 -30 -22 -11 -40 -27 -40 -35 0 -8 -20 -36 -45 -62 -24
-27 -93 -102 -152 -168 -60 -67 -137 -154 -173 -194 -36 -40 -104 -104 -151
-141 -47 -38 -124 -108 -172 -157 -48 -48 -104 -104 -125 -124 -20 -20 -49
-49 -63 -65 -14 -16 -50 -50 -80 -77 -30 -26 -65 -57 -79 -70 -13 -12 -40 -31
-60 -42 -19 -11 -57 -36 -84 -55 -27 -19 -71 -54 -97 -77 -27 -23 -64 -46 -84
-52 -19 -5 -54 -21 -77 -36 -24 -15 -73 -44 -110 -66 -37 -21 -73 -39 -80 -39
-8 0 -24 7 -36 16 -17 12 -22 25 -22 59 0 24 8 63 19 87 10 24 28 52 41 63 12
11 29 33 37 50 9 16 30 48 48 70 17 22 48 67 68 100 20 33 43 88 52 123 11 45
31 84 69 135 29 40 81 119 116 177 35 58 71 114 80 125 10 11 27 38 38 60 11
23 32 47 46 54 14 8 33 26 43 40 9 14 32 45 52 68 19 24 50 48 68 54 18 6 41
20 50 32 10 12 57 45 104 74 49 30 105 55 129 59 23 4 67 22 97 40 30 18 89
45 131 59 43 14 109 29 147 32 39 3 87 14 107 24 20 10 54 30 74 44 34 23 44
25 118 21 63 -3 83 -8 94 -23z"/>
<path d="M5105 9488 c-55 -11 -122 -24 -150 -30 -27 -6 -83 -23 -122 -39 -40
-16 -115 -35 -165 -44 -51 -8 -122 -29 -158 -45 -36 -16 -95 -36 -133 -43 -37
-8 -85 -26 -107 -41 -22 -14 -42 -26 -45 -26 -3 0 -82 -36 -177 -80 -94 -44
-192 -96 -217 -114 -25 -19 -63 -38 -83 -44 -21 -6 -65 -28 -99 -49 -33 -21
-79 -54 -102 -74 -23 -20 -62 -47 -87 -59 -25 -13 -56 -34 -70 -48 -14 -13
-41 -35 -60 -48 -19 -13 -60 -40 -90 -60 -30 -20 -73 -51 -95 -69 -22 -18 -67
-46 -100 -63 -33 -16 -69 -40 -80 -52 -11 -13 -38 -35 -60 -49 -23 -14 -63
-44 -89 -66 -27 -22 -83 -71 -126 -110 -42 -38 -99 -83 -125 -100 -26 -16 -65
-39 -85 -50 -20 -11 -54 -33 -74 -50 -20 -16 -56 -46 -79 -66 -23 -20 -64 -51
-90 -70 -27 -19 -63 -45 -81 -59 -18 -14 -66 -53 -105 -87 -39 -35 -76 -63
-82 -63 -6 0 -54 -42 -108 -94 -54 -52 -107 -97 -118 -100 -11 -4 -34 -23 -50
-44 -17 -20 -70 -68 -118 -107 -48 -38 -118 -100 -154 -136 -36 -36 -79 -85
-96 -108 -16 -24 -46 -54 -65 -66 -19 -13 -57 -46 -85 -73 -27 -28 -70 -73
-95 -101 -25 -28 -72 -78 -106 -111 -33 -33 -67 -71 -74 -85 -8 -14 -29 -35
-47 -46 -19 -12 -52 -49 -75 -83 -23 -33 -58 -81 -78 -106 -20 -25 -44 -58
-54 -75 -10 -16 -32 -43 -47 -60 -16 -16 -46 -48 -67 -70 -21 -22 -47 -53 -58
-70 -10 -16 -33 -49 -51 -73 -18 -24 -33 -49 -33 -56 0 -8 -10 -26 -22 -41
-13 -15 -39 -58 -60 -94 -20 -36 -62 -115 -94 -176 l-58 -110 -4 -163 -4 -163
34 -57 c19 -31 45 -75 58 -97 12 -22 40 -55 62 -74 27 -24 54 -36 86 -42 27
-4 66 -12 89 -18 22 -6 74 -33 115 -60 41 -27 93 -54 115 -60 23 -6 140 -18
260 -26 159 -10 237 -20 283 -35 36 -11 76 -20 90 -20 14 0 54 10 90 22 55 18
85 21 195 19 72 -2 231 -3 355 -4 125 -1 269 4 325 11 55 7 145 16 200 22 55
5 120 16 145 25 25 9 68 20 95 26 28 5 120 13 207 19 135 8 166 13 230 39 40
16 130 43 198 61 88 22 166 34 263 41 87 5 162 5 205 -1 37 -5 95 -10 129 -10
34 0 74 -5 90 -11 15 -6 39 -20 51 -32 23 -21 30 -22 210 -19 160 3 191 6 223
23 21 10 51 19 66 19 15 0 45 -5 65 -10 29 -9 45 -7 75 6 25 10 63 15 108 15
46 -1 94 5 136 18 36 12 75 32 88 45 13 14 52 35 88 47 35 11 68 29 73 39 5
10 45 37 87 61 43 24 102 54 131 66 29 12 67 33 83 47 17 15 41 26 54 26 19 0
26 -8 34 -37 6 -21 11 -51 11 -66 0 -16 5 -38 12 -50 6 -12 36 -50 66 -85 40
-46 72 -70 120 -94 61 -29 69 -30 109 -20 24 7 51 12 60 12 9 0 29 -12 44 -26
22 -21 43 -28 108 -36 68 -9 96 -8 164 6 45 10 102 23 127 31 25 7 61 16 80
19 19 3 67 1 105 -4 43 -5 86 -5 112 1 24 5 73 13 109 18 44 7 76 18 99 35 28
22 44 26 102 26 37 0 103 9 147 20 51 13 112 20 175 20 76 0 102 4 121 17 14
10 54 21 90 25 36 4 128 10 205 14 138 6 141 6 191 40 27 18 64 37 82 40 17 4
42 4 56 0 14 -3 27 -14 31 -25 3 -10 -8 -55 -25 -100 -16 -45 -30 -92 -30
-104 0 -11 -9 -40 -21 -63 -19 -41 -20 -50 -9 -181 6 -76 15 -155 21 -175 5
-20 24 -56 42 -80 18 -24 64 -62 102 -85 39 -23 113 -57 165 -75 59 -20 117
-32 155 -33 34 -1 84 -11 115 -23 30 -12 78 -21 106 -22 28 0 75 8 105 17 41
13 81 17 169 14 63 -1 142 -3 175 -4 33 0 106 2 163 6 75 6 111 13 135 27 24
15 50 20 104 20 40 0 96 5 125 11 29 7 107 40 174 75 82 44 132 64 156 64 20
0 55 7 78 15 23 8 44 15 46 15 1 0 10 -7 18 -16 10 -10 16 -33 16 -64 0 -40
-6 -55 -35 -90 -19 -22 -37 -55 -40 -73 -3 -18 -10 -63 -15 -101 -6 -38 -22
-96 -36 -129 -14 -33 -31 -99 -37 -146 -5 -47 -7 -102 -3 -122 3 -20 24 -64
46 -97 21 -34 53 -68 69 -77 26 -13 41 -14 96 -4 36 6 76 20 90 31 22 17 25
27 25 78 0 35 -7 74 -17 94 -16 34 -15 37 10 108 15 40 31 95 37 123 6 27 19
59 29 70 10 11 23 29 28 40 6 11 13 37 17 57 4 20 21 55 39 77 18 22 42 55 54
73 13 18 35 58 50 88 14 30 37 69 49 86 13 16 32 50 43 75 11 25 30 54 42 65
11 10 30 37 41 59 11 22 37 59 57 81 20 23 44 53 53 67 10 15 41 34 74 46 30
12 86 39 122 61 37 21 85 51 106 67 21 15 57 48 80 72 23 24 79 69 126 101 56
37 128 102 210 188 69 72 157 168 195 213 39 45 93 107 121 138 28 31 61 77
72 104 12 26 34 66 51 90 16 23 39 77 50 120 12 42 21 88 21 101 0 13 -6 28
-12 34 -7 5 -32 15 -55 21 -29 8 -74 8 -154 1 -90 -8 -119 -14 -139 -30 -14
-11 -52 -33 -86 -49 -33 -16 -88 -49 -121 -75 -34 -25 -63 -52 -66 -60 -3 -8
-23 -24 -44 -36 -21 -11 -67 -43 -103 -70 -36 -27 -87 -65 -115 -84 -27 -19
-68 -53 -90 -75 -22 -22 -52 -53 -67 -68 -15 -16 -75 -75 -133 -133 -58 -58
-122 -123 -143 -146 -20 -22 -51 -61 -68 -85 -18 -24 -38 -58 -47 -74 -8 -17
-25 -39 -37 -50 -12 -11 -31 -36 -41 -57 -10 -20 -30 -45 -43 -55 -14 -11 -50
-49 -81 -85 -37 -45 -69 -72 -98 -83 -23 -9 -49 -23 -57 -31 -9 -7 -36 -20
-60 -29 -24 -8 -57 -26 -74 -39 -17 -13 -58 -31 -91 -40 -32 -10 -80 -28 -105
-41 -25 -13 -71 -28 -102 -34 -32 -5 -105 -24 -164 -41 -59 -17 -129 -40 -156
-51 -28 -11 -73 -19 -106 -19 -32 0 -93 -9 -135 -20 -42 -11 -141 -25 -219
-30 -79 -5 -159 -14 -178 -20 -19 -5 -69 -10 -110 -10 -41 0 -117 7 -168 15
-52 9 -107 22 -124 31 -19 10 -38 34 -54 67 -13 29 -29 76 -35 106 -6 29 -8
67 -5 85 3 17 14 45 23 61 9 17 36 66 60 110 23 44 59 112 78 150 20 39 50 93
68 120 18 28 52 70 77 95 25 25 65 60 90 79 25 19 66 53 91 76 35 33 59 46
102 55 31 6 106 36 166 66 61 29 115 63 121 74 6 10 43 38 83 61 39 23 92 55
117 70 25 15 68 37 96 48 29 11 83 39 120 62 38 23 84 60 103 82 20 23 61 52
95 68 34 16 67 29 73 29 7 0 51 36 97 80 47 44 90 80 95 80 5 0 40 28 78 63
37 34 82 72 100 85 17 12 45 44 61 71 17 27 41 59 54 71 13 12 45 33 71 46 31
16 59 42 80 72 18 26 59 74 92 108 33 34 70 66 82 73 13 6 30 34 42 67 12 30
40 83 63 117 23 34 58 82 79 107 20 25 55 77 78 117 22 39 52 84 65 100 14 16
36 54 50 84 14 30 36 70 47 89 12 19 36 60 55 90 23 39 37 83 49 145 10 57 30
118 53 165 l37 75 3 216 c2 127 -1 240 -7 275 -6 32 -25 86 -42 119 -17 33
-40 70 -52 83 -11 12 -43 29 -70 37 -27 8 -56 20 -64 27 -9 7 -84 17 -185 24
-110 8 -190 9 -226 4 -41 -7 -63 -17 -79 -35 -12 -14 -42 -34 -65 -44 -24 -10
-67 -36 -97 -57 -29 -22 -81 -67 -115 -100 -33 -34 -81 -88 -106 -119 -25 -31
-64 -78 -87 -105 -23 -27 -44 -57 -47 -67 -3 -10 -19 -26 -35 -36 -17 -10 -33
-27 -36 -40 -4 -12 -20 -35 -35 -52 -15 -16 -39 -52 -53 -80 -14 -27 -40 -79
-57 -115 -18 -36 -44 -78 -57 -94 -14 -16 -31 -46 -40 -67 -8 -21 -25 -45 -38
-53 -14 -9 -31 -39 -44 -77 -11 -34 -29 -71 -38 -81 -10 -11 -32 -47 -50 -81
-17 -34 -46 -91 -63 -127 -18 -36 -45 -80 -61 -98 -16 -18 -29 -39 -29 -46 0
-7 -13 -31 -28 -52 -16 -22 -41 -62 -57 -89 -15 -27 -38 -62 -51 -78 -13 -15
-28 -47 -35 -70 -6 -23 -21 -53 -35 -67 -13 -14 -28 -39 -34 -56 -6 -17 -21
-37 -34 -44 -13 -6 -34 -31 -46 -54 -13 -22 -37 -60 -54 -84 -17 -24 -43 -58
-57 -75 -15 -18 -36 -51 -48 -75 -12 -24 -29 -46 -37 -49 -8 -3 -34 -32 -57
-65 -23 -33 -51 -76 -62 -97 -11 -21 -33 -54 -50 -73 -16 -19 -50 -62 -75 -94
-25 -32 -65 -82 -90 -111 -25 -29 -57 -67 -71 -85 -15 -18 -47 -63 -72 -99
-25 -37 -53 -82 -63 -100 -9 -19 -26 -40 -37 -48 -10 -7 -25 -29 -33 -48 -11
-25 -28 -40 -67 -58 -28 -13 -63 -33 -77 -45 -14 -11 -49 -24 -77 -30 -29 -5
-70 -18 -92 -29 -22 -12 -77 -29 -123 -39 -45 -11 -154 -40 -242 -66 -87 -25
-165 -46 -173 -46 -8 0 -28 -7 -44 -16 -17 -8 -79 -24 -137 -34 -59 -10 -132
-23 -162 -29 -30 -6 -111 -19 -180 -30 -69 -11 -153 -23 -188 -26 -34 -3 -97
-15 -140 -27 -61 -16 -93 -19 -155 -14 -53 5 -107 1 -170 -10 -66 -11 -117
-14 -181 -9 -48 4 -106 13 -127 20 -22 8 -55 26 -73 40 -19 14 -42 42 -51 61
-14 31 -16 60 -11 216 l5 180 32 49 c17 27 58 70 91 96 33 27 75 60 92 75 18
15 45 30 60 34 16 4 37 21 51 44 13 20 42 59 66 86 23 27 51 69 62 93 15 34
18 58 14 101 -2 31 -14 75 -26 97 -14 28 -30 44 -52 52 -18 6 -61 11 -96 11
-47 0 -76 -6 -111 -24 -26 -13 -77 -33 -114 -45 -37 -12 -82 -21 -99 -19 -27
2 -38 11 -58 47 -18 30 -47 57 -91 85 l-64 41 -211 -1 -210 -1 -73 -32 c-40
-17 -103 -39 -140 -47 -37 -8 -78 -22 -92 -29 -14 -8 -41 -21 -60 -30 -19 -8
-53 -25 -75 -37 -22 -12 -63 -33 -90 -47 -28 -14 -72 -39 -98 -56 -26 -16 -62
-40 -80 -52 -18 -12 -50 -35 -72 -49 -22 -15 -83 -64 -135 -110 -52 -45 -159
-151 -238 -236 -78 -84 -151 -166 -161 -183 -10 -16 -28 -39 -40 -50 -13 -11
-29 -35 -37 -54 -8 -19 -32 -53 -54 -77 -22 -24 -40 -50 -40 -58 0 -8 -12 -24
-26 -35 -15 -12 -72 -35 -128 -52 -56 -17 -144 -46 -196 -64 -52 -18 -122 -41
-155 -50 -33 -9 -85 -30 -115 -46 -34 -18 -70 -29 -95 -29 -22 0 -81 -7 -131
-15 -51 -8 -127 -28 -171 -44 -43 -16 -110 -34 -150 -40 -40 -6 -107 -11 -151
-11 -47 0 -124 -10 -189 -24 -61 -14 -189 -31 -284 -39 -96 -7 -217 -13 -269
-11 -52 1 -180 6 -285 12 -165 8 -200 12 -268 36 -44 15 -117 30 -171 35 -68
7 -113 18 -162 39 -38 17 -98 41 -134 55 -36 13 -90 37 -120 52 -30 15 -63 35
-74 44 -10 9 -27 34 -38 56 -18 34 -20 51 -15 125 3 47 17 123 31 168 14 50
34 95 49 110 14 15 32 45 41 67 9 21 24 48 34 58 9 11 31 43 47 72 17 29 46
74 65 100 19 27 51 68 70 91 19 24 55 69 80 100 25 31 72 87 105 123 34 36 87
99 119 139 32 40 64 76 71 80 6 4 27 28 46 53 19 25 82 93 140 152 57 58 122
127 144 152 22 25 51 57 65 71 14 14 67 66 118 115 51 50 100 102 109 115 9
14 32 33 52 44 20 10 50 33 68 51 17 19 44 48 60 64 16 17 45 44 65 60 20 17
68 57 108 90 39 33 132 113 206 178 74 64 139 117 144 117 6 0 29 19 52 42 24
22 75 61 113 86 39 25 94 72 124 104 29 32 71 68 92 78 21 11 44 29 52 40 8
11 29 25 48 31 19 7 50 26 69 44 19 17 55 48 80 67 25 20 60 43 79 53 18 9 50
33 71 53 20 21 57 54 83 76 25 21 63 49 86 63 23 13 41 28 41 32 0 4 12 14 28
22 15 7 45 28 67 46 22 18 86 67 141 107 56 41 129 88 161 105 33 16 65 37 73
46 7 9 30 25 50 35 20 10 42 26 49 34 8 9 55 40 105 70 50 30 128 71 174 91
45 20 133 52 195 71 62 19 150 49 197 66 47 17 117 39 155 50 39 10 111 26
160 34 63 11 114 14 169 9 44 -4 103 -15 131 -26 29 -11 62 -31 75 -44 13 -14
49 -33 80 -41 30 -9 68 -28 83 -43 16 -14 41 -46 55 -71 24 -40 27 -55 27
-141 0 -91 -2 -98 -33 -149 -19 -30 -42 -86 -51 -125 -10 -39 -26 -83 -35 -97
-9 -14 -33 -63 -52 -109 -20 -46 -41 -100 -48 -119 -8 -20 -17 -58 -20 -86 -6
-40 -4 -52 7 -57 8 -3 40 4 72 15 39 15 65 32 83 57 15 20 37 44 49 54 12 9
29 39 39 65 10 26 37 97 62 157 24 61 73 167 109 238 l66 127 -5 113 c-3 69
-11 126 -20 148 -9 20 -49 68 -89 108 -43 41 -97 82 -129 97 -30 14 -66 34
-80 43 -14 10 -45 23 -70 29 -25 6 -81 16 -125 22 -44 6 -102 18 -129 26 -27
8 -68 13 -90 13 -23 -1 -86 -10 -141 -21z m5950 -985 c22 -14 51 -35 63 -47
13 -11 35 -42 48 -68 17 -33 24 -64 24 -103 0 -37 -9 -76 -26 -118 -18 -43
-29 -92 -35 -160 -7 -87 -15 -114 -68 -241 -33 -79 -62 -159 -66 -178 -4 -18
-19 -56 -35 -83 -16 -28 -39 -70 -51 -95 -12 -25 -38 -64 -58 -86 -20 -23 -51
-60 -69 -83 -19 -23 -46 -63 -60 -89 -15 -26 -48 -69 -75 -96 -27 -27 -62 -71
-79 -97 -16 -27 -51 -64 -78 -84 -27 -20 -67 -57 -89 -84 -22 -26 -56 -59 -76
-72 -20 -13 -52 -45 -71 -72 -19 -26 -53 -60 -75 -75 -22 -15 -65 -48 -95 -74
-30 -27 -60 -48 -68 -48 -8 0 -42 -21 -77 -46 -35 -26 -94 -75 -131 -110 -36
-35 -71 -64 -76 -64 -6 0 -32 -17 -59 -37 -26 -20 -104 -66 -173 -101 -69 -36
-132 -71 -140 -78 -9 -7 -37 -23 -63 -34 -27 -12 -56 -18 -67 -15 -15 5 -20
15 -20 41 0 31 12 48 83 125 45 49 101 111 125 137 23 27 42 54 42 59 0 6 11
21 25 34 14 13 35 42 47 64 11 22 33 55 49 75 15 19 35 53 44 74 9 22 38 65
64 95 27 31 68 88 93 126 24 39 56 95 70 125 14 30 42 79 62 109 20 29 36 58
36 65 0 6 16 33 35 60 19 27 35 55 35 61 0 6 16 38 36 71 20 32 42 76 50 97 7
20 24 52 37 70 14 17 32 56 42 86 10 29 30 74 45 100 15 25 44 74 64 108 20
34 43 80 51 103 8 23 24 55 36 71 11 16 31 56 44 90 13 33 35 73 48 89 14 16
33 51 43 77 10 26 37 77 60 113 23 36 65 88 93 115 27 28 69 66 92 85 23 19
53 38 68 41 14 3 62 4 106 1 63 -3 89 -10 120 -29z m-5315 -2438 c7 -9 9 -26
5 -47 -5 -21 -31 -57 -73 -100 -57 -60 -64 -71 -59 -97 4 -21 0 -37 -14 -55
-11 -14 -24 -38 -30 -54 -5 -15 -33 -49 -62 -74 -29 -25 -73 -62 -99 -82 -26
-19 -69 -45 -97 -56 -27 -12 -57 -30 -66 -40 -9 -10 -42 -29 -73 -41 -31 -12
-70 -33 -87 -45 -16 -12 -77 -35 -135 -52 -58 -16 -128 -35 -156 -41 -28 -7
-66 -12 -85 -12 -19 0 -78 -7 -131 -16 -79 -13 -100 -14 -113 -3 -8 7 -15 25
-15 40 0 19 10 36 29 53 16 13 72 47 123 74 51 28 125 62 163 76 39 15 103 36
144 48 51 14 83 30 101 49 14 15 48 39 75 53 28 14 58 34 69 46 10 11 41 28
68 37 27 9 52 23 55 31 3 7 29 26 57 40 28 14 65 36 82 49 23 18 44 24 79 24
31 0 55 6 67 17 10 9 18 21 18 27 0 6 21 40 46 76 24 36 55 70 67 77 12 7 25
12 28 13 4 0 12 -7 19 -15z"/>
</g>
</svg>
