<?xml version="1.0" encoding="UTF-8"?>
<svg version="1.1" xmlns="http://www.w3.org/2000/svg" width="567" height="191" >
<path fill="#231F20" d="M56.726,99.296c1.486-10.607,1.87-21.592,0.416-32.212c-1.31-9.57-7.759-24.073-19.85-17.721 c-4.634,2.435-8.032,7.234-10.855,11.477c-4.263,6.408-7.493,13.494-10.387,20.603C9.227,98.21,4.767,116.292,3.527,134.368 c-1.124,16.396,1.583,42.876,22.331,46.018c14.418,2.183,25.964-14.7,31.285-25.941c0.96-2.027-2.057-3.805-3.022-1.766 c-4.62,9.76-12.762,22.075-24.07,24.237c-8.605,1.646-16.256-6.635-19.53-13.674c-3.235-6.956-3.738-15.145-3.721-22.692 c0.043-18.421,4.708-37.032,11.084-54.213c2.873-7.74,6.337-15.312,10.684-22.341c2.82-4.561,6.357-9.672,11.351-12.042 c11.409-5.415,13.996,15.521,14.408,21.884c0.512,7.901,0.023,17.397-0.976,24.527C53.042,100.572,56.414,101.523,56.726,99.296 L56.726,99.296z"/>
<path fill="#231F20" d="M69.564,136.483c-4.863,8.28-6.837,19.241-5.343,28.662c1.271,8.017,4.914,19.785,15.358,16.382 c7.707-2.512,12.353-11.292,13.558-18.774c1.97-12.224-5.353-22.624-14.646-29.69c0.118,0.916,0.236,1.832,0.354,2.748 c4.53-4.483,11.549-7.552,17.576-4.317c7.891,4.237,9.951,24.018,21.823,20.473c4.09-1.221,7.966-6.373,9.204-10.357 c0.548-1.766,1.454-3.48,2.812-4.747c3.994-3.728,9.571,8.793,10.583,10.879c0.742,1.529,3.429,0.838,3.261-0.883 c-0.749-7.701-1.838-31.949,11.445-26.794c0.31-1.125,0.621-2.25,0.931-3.375c-4.712-1.373-9.624,0.554-12.137,4.73 c-2.77,4.601-2.297,11.067-1.542,16.105c0.6,4.001,1.091,11.132,4.76,13.902c7.931,5.985,14.078-28.149,14.894-32.585 c-1.146-0.155-2.292-0.31-3.438-0.465c-0.784,5.92-1.284,13.374,1.357,18.904c3.2,6.701,8.829,4.631,13.034,0.157 c2.417-2.571,4.379-5.615,6.214-8.613c0.65-1.062,1.264-2.146,1.862-3.237c0.702-1.279-0.296-0.08-0.286-0.083 c5.446-1.771,10.743,14.551,11.739,17.352c0.528,1.486,2.301,1.68,3.199,0.418c2.727-3.833,5.69-7.503,8.757-11.067 c4.044-4.701,10.376-13.016,17.053-13.756c2.218-0.246,2.242-3.749,0-3.5c-7.052,0.783-12.864,7.461-17.368,12.352 c-4.112,4.464-7.945,9.259-11.464,14.207c1.066,0.139,2.132,0.278,3.199,0.418c-2.29-6.44-5.269-16.077-12.043-19.33 c-1.82-0.874-4.553-1.124-5.638,0.91c-2.301,4.315-7.099,14.475-12.641,14.859c-5.395,0.374-3.897-16.793-3.474-19.989 c0.259-1.955-3.083-2.394-3.438-0.465c-0.828,4.5-1.829,8.973-2.933,13.413c-0.87,3.5-1.852,6.974-3.036,10.381 c-0.715,2.059-1.638,5.425-3.494,6.816c-0.591,0.443-2.409-6.24-2.608-7.153c-1.183-5.434-2.307-12.283,0.051-17.598 c1.458-3.288,5.117-4.688,8.487-3.706c2.211,0.644,2.987-2.577,0.931-3.375c-16.74-6.497-16.844,20.206-15.875,30.169 c1.087-0.295,2.174-0.589,3.261-0.883c-2.576-5.312-10.072-19.032-17.095-10.504c-3.424,4.158-2.955,7.595-7.248,11.692 c-6.625,6.324-11.669-6.571-14.017-10.83c-2.575-4.67-6.734-8.588-12.081-9.589c-6.124-1.147-12.797,2.377-17.054,6.591 c-0.876,0.866-0.524,2.08,0.354,2.748c8.13,6.183,13.956,14.697,13.092,25.238c-0.542,6.609-4.75,14.313-11.169,16.83 c-9.457,3.707-11.146-12.617-11.359-18.239c-0.274-7.231,1.601-15.37,5.297-21.664C73.732,136.299,70.707,134.539,69.564,136.483 L69.564,136.483z"/>
<path fill="#231F20" d="M231.952,113.258c8.323-24.473,16.479-49.351,21.845-74.657c0.582-2.749,5.673-23.535-2.783-21 c-4.175,1.251-6.809,7.883-8.511,11.315c-4.077,8.224-7.174,16.965-9.991,25.685c-3.437,10.641-6.204,21.513-8.221,32.512 c-1.717,9.362-3.192,19.194-1.784,28.681c1.52,10.242,10.726,24.183,22.711,18.237c5.269-2.614,7.61-9.185,8.229-14.625 c1.277-11.227-2.174-22.672-5.479-33.272c-6.062-19.436-16.208-39.459-33.896-50.674c-6.735-4.27-14.504-6.521-22.419-7.071 c0.294,1.087,0.589,2.174,0.883,3.261c20.913-9.608,48.332-11.114,69.693-1.772c22.05,9.644,35.951,30.903,44.207,52.703 c5.845,15.432,6.353,30.494,5.758,46.688c-0.119,3.26-0.142,6.988,2.215,9.529c2.667,2.875,7.703,2.347,11.16,1.971 c15.59-1.693,32.714-6.292,43.108-18.823c8.659-10.438,9.555-24.401,3.972-36.479c-7.464-16.146-24.848-25.468-41.169-30.181 c-3.245-0.937-6.554-1.64-9.871-2.263c0.258,0.975,0.516,1.95,0.772,2.925c8.26-7.509,17.84-17.247,20.869-28.266 c3.099-11.271-8.952-14.234-17.36-15.473c-21.546-3.175-52.164,0.575-62.142,23.109c-7.331,16.557-0.037,35.368,6.648,50.771 c6.009,13.842,14.748,33.656,29.873,39.979c5.595,2.339,18.082,1.64,18.472-6.394c0.34-7.005,3.984-14.873,8.039-21.142 c10.245-15.839,26.342-27.468,42.421-36.782c21.936-12.706,45.969-21.609,70.164-28.926 c37.346-11.293,75.899-18.453,114.487-23.898c2.228-0.314,1.276-3.687-0.93-3.375c-48.617,6.86-97.492,16.332-143.563,33.713 C384.722,48.56,360.094,60.39,340.241,78c-9.739,8.64-18.527,19.208-22.892,31.634c-1.043,2.969-1.765,6.06-2.049,9.196 c-0.061,0.673-0.094,1.352-0.079,2.027c0.016,0.714,1.272-1.595-0.148-0.213c-4.513,4.388-10.821,3.931-15.974,0.919 c-6.624-3.871-11.371-10.785-15.349-17.132c-6.922-11.046-12.509-23.471-16.432-35.882c-4.603-14.562-4.885-31.234,7.234-42.16 c9.356-8.434,23.139-11.048,35.32-11.529c5.813-0.229,11.687,0.104,17.419,1.097c4.063,0.704,10.189,1.632,12.404,5.582 c3.436,6.125-5.422,16.243-8.893,20.464c-3.34,4.06-7.006,7.931-10.897,11.47c-0.929,0.844-0.51,2.684,0.772,2.925 c18.952,3.561,39.233,12.043,48.564,30.054c7.073,13.653,2.927,29.034-8.66,38.598c-7.288,6.016-16.492,8.597-25.544,10.543 c-4.775,1.026-12.372,3.516-17.194,1.377c-2.97-1.317-2.216-6.259-2.107-8.803c0.27-6.303,0.632-12.541,0.209-18.85 c-1.363-20.327-9.772-40.496-21.501-56.979c-10.435-14.664-25.354-25.307-42.818-29.753c-19.499-4.964-42.544-2.37-60.858,6.044 c-1.715,0.789-0.688,3.152,0.883,3.261c21.699,1.505,36.379,18.104,45.537,36.463c5.794,11.615,9.718,24.462,12.167,37.186 c1.487,7.726,2.1,18.542-4.294,24.389c-4.594,4.201-10.768,1.103-14.189-2.87c-5.936-6.894-5.794-17.182-5.063-25.663 c1.847-21.411,8.171-43.046,16.229-62.901c2.163-5.329,4.553-10.806,7.93-15.495c2.024-2.81,2.314-2.429,2.377,0.752 c0.204,10.345-3.493,21.317-6.133,31.192c-5.164,19.322-11.197,38.453-17.637,57.386 C227.848,114.47,231.229,115.382,231.952,113.258L231.952,113.258z"/>
</svg>