<?xml version="1.0" encoding="UTF-8"?>
<svg version="1.1" xmlns="http://www.w3.org/2000/svg" width="404" height="142" >
<path d="M52.085,11.187c-2.181,3.558-4.031,7.65-4.371,11.842c-0.581,7.175,7.174,7,12.075,5.758 c5.524-1.399,11.337-5.436,12.464-11.349c0.99-5.196-3.075-8.744-7.831-9.516c-9.608-1.559-20.425,4.583-27.988,9.742 c-8.568,5.844-15.242,13.991-20.186,23.036c-4.334,7.93-7.095,16.63-9.479,25.309c-1.843,6.711-4.923,13.568-1.177,20.144 C10.748,95.203,24,97.596,33.387,96.361c6.662-0.876,19.602-6.064,19.133-14.651c-0.379-6.943-10.774-6.114-15.246-5.224 C24.659,78.998,14.258,88.583,7.222,98.855c-1.279,1.868,1.755,3.616,3.022,1.767c6.383-9.318,15.169-17.136,26.182-20.325 c2.771-0.803,15.461-2.554,11.926,3.863c-4.865,8.831-18.215,10.136-26.905,8.212c-4.327-0.958-8.421-3.017-11.502-6.22 c-3.456-3.593-2.933-7.736-1.714-12.121C13.568,54.823,19.178,36.2,35.163,22.964c5.172-4.283,11.323-7.552,17.599-9.868 c4.086-1.508,9.502-2.944,13.677-0.973c7.754,3.661-2.908,11.711-6.628,13.003c-2.141,0.744-6.138,2.006-8.08,0.229 c-1.196-1.095-0.335-3.782,0.013-5.048c0.709-2.576,1.97-5.08,3.364-7.354C56.291,11.023,53.262,9.267,52.085,11.187 L52.085,11.187z"/>
<path d="M66.403,65.041c-1.835,3.297-10.812,16.953-5.805,19.944c2.637,1.575,8.693-2.175,10.735-3.583 c5.8-4,8.424-10.871,9.722-17.517c0.356-1.823-2.362-3.274-3.199-1.349c-6.483,14.916-13.548,29.639-21.307,43.933 c-4.595,8.464-9.383,17.588-16.124,24.579c-0.754,0.782-3.525,3.785-4.862,2.699c-2.429-1.974-2.102-7.513-2.172-10.212 c-0.059-2.253-3.559-2.259-3.5,0c0.119,4.593,0.89,16.837,8.667,13.292c7.548-3.44,12.666-14.073,16.614-20.785 c9.744-16.565,18.049-34.12,25.707-51.739c-1.066-0.45-2.132-0.899-3.199-1.349c-1.873,9.585-6.402,16.296-15.959,18.816 c1.374-0.362,0.732,1.375,1.133-0.506c0.149-0.7,0.401-1.382,0.632-2.057c0.71-2.071,1.676-4.058,2.625-6.027 c1.039-2.155,2.149-4.282,3.313-6.373C70.524,64.833,67.501,63.069,66.403,65.041L66.403,65.041z"/>
<path d="M65.607,104.379c4.33-6.053,8.846-11.981,13.49-17.796c3.438-4.305,6.984-8.533,10.771-12.537 c1.231-1.302,5.974-7.125,8.125-6.435c-0.349-0.857-0.697-1.714-1.046-2.571c-2.863,5.01-5.727,10.019-8.591,15.029 c-1.145,2.003,1.717,3.548,3.022,1.767c2.249-3.07,4.641-6.039,7.113-8.931c1.917-2.242,3.927-4.408,6.108-6.396 c0.814-0.742,1.68-1.402,2.618-1.977c1.089-0.666,0.958-0.72,1.052,0.413c0.161,1.941-2.104,12.626,3.301,10.719 c3.143-1.109,5.174-6.106,6.534-8.858c0.996-2.016-2.023-3.791-3.022-1.767c-0.664,1.344-1.393,2.654-2.156,3.943 c-0.596,1.006-1.243,1.987-2.004,2.875c-0.604,0.704,0.497,0.339,0.463-0.761c-0.04-1.304,0.144-2.629,0.277-3.921 c0.34-3.292-0.608-7.786-4.937-6.265c-4.544,1.597-8.253,6.647-11.25,10.152c-2.484,2.906-4.86,5.922-7.12,9.006 c1.007,0.589,2.015,1.178,3.022,1.767c2.863-5.01,5.727-10.019,8.591-15.029c0.579-1.012,0.032-2.225-1.046-2.571 c-2.788-0.894-5.68,1.844-7.58,3.487c-4.518,3.908-8.378,8.649-12.17,13.24c-5.785,7.005-11.304,14.26-16.59,21.649 C61.269,104.453,64.306,106.198,65.607,104.379L65.607,104.379z"/>
<path d="M123.498,61.701c-1.625,4.714-4.295,11.471-2.8,16.455c3.23,10.763,24.058-19.906,25.089-21.369 c-1.066-0.45-2.132-0.899-3.199-1.349c-1.44,4.762-7.617,25.72,3.048,23.781c4.228-0.769,8.277-5.506,11.165-8.196 c4.228-3.939,7.909-8.359,11.621-12.77c0.35-0.416,0.713-0.814,1.093-1.201c-1.45-1.424-2.148-1.579-2.095-0.464 c-0.057,0.414-0.111,0.828-0.162,1.242c-0.24,1.879-0.182,3.809-0.253,5.699c-0.232,6.085-2.099,9.901-8.9,8.222 c-2.191-0.541-3.121,2.834-0.931,3.375c9.749,2.407,13.03-3.695,13.364-12.473c0.076-1.99,1.381-6.869-0.229-8.479 c-1.97-1.97-4.311,1.536-5.343,2.779c-4.135,4.977-8.47,9.683-13.284,14.017c-2.271,2.044-8.121,8.163-8.577,2.033 c-0.407-5.479,1.281-11.421,2.858-16.633c0.607-2.006-2.106-2.896-3.199-1.349c-4.845,6.868-9.722,14.019-15.837,19.845 c-0.74,0.705-2.03,2.099-3.147,2.195c0.491-0.042,0.104-0.629,0.107-1.509c0.015-4.314,1.589-8.872,2.985-12.92 C127.611,60.492,124.229,59.581,123.498,61.701L123.498,61.701z"/>
<path d="M182.311,77.179c-12.047,3.972-24.52,9.132-34.599,16.926c-7.389,5.713-9.151,12.629-4.417,20.445 c3.692,6.096,9.941,10.605,16.977,11.866c10.766,1.93,20.933-3.933,28.865-10.61c17.534-14.762,29.148-36.722,39.058-56.929 c-1.065-0.45-2.132-0.899-3.198-1.349c-1.627,5.46-8.521,6.559-13.293,6.375c-5.791-0.222-1.216-6.683,0.493-9.374 c6.777-10.672,17.051-21.171,27.748-27.941c2.423-1.533,12.315-4.233,12.28,1.48c-0.023,3.805-5.863,7.31-8.476,9.048 c-8.675,5.772-18.659,9.676-28.348,13.343c-2.09,0.791-1.185,4.175,0.93,3.375c10.566-4,21.367-8.283,30.718-14.734 c3.43-2.366,7.926-5.795,8.588-10.248c1.011-6.799-8.039-8.776-13.03-7.425c-5.515,1.492-10.562,6.451-14.687,10.137 c-5.978,5.342-11.469,11.286-16.294,17.688c-2.674,3.547-7.229,9.34-6.217,14.203c1.26,6.052,11.168,4.206,15.123,2.784 c3.444-1.237,6.768-4.184,7.839-7.779c0.56-1.878-2.315-3.149-3.198-1.349c-10.097,20.586-21.847,42.583-39.897,57.372 c-7.908,6.479-18.439,11.231-28.55,7.302c-5.82-2.262-10.846-7.767-12.555-13.771c-1.527-5.364,3.264-9.409,7.167-12.298 c6.825-5.053,14.875-8.594,22.709-11.756c3.028-1.222,6.093-2.382,9.195-3.405C185.375,79.851,184.461,76.47,182.311,77.179 L182.311,77.179z"/>
<path d="M245.299,54.652c-0.032,5.174-1.19,10.725-4.217,14.982c1.007,0.589,2.015,1.178,3.021,1.767 c1.672-2.441,3.514-4.766,5.437-7.013c2.38-2.781,6.232-7.756,10.234-7.986c2.243-0.129,2.256-3.63,0-3.5 c-4.789,0.275-8.693,4.577-11.71,7.879c-2.525,2.765-4.865,5.763-6.982,8.853c-1.285,1.876,1.73,3.583,3.021,1.767 c3.365-4.733,4.659-11.001,4.695-16.749C248.813,52.394,245.313,52.396,245.299,54.652L245.299,54.652z"/>
<path d="M268.683,57.238c3.168,0.344,6.357,0.746,9.545,0.834c-0.412-0.996-0.825-1.992-1.237-2.987 c-3.348,3.444-8.087,10.263-2.188,13.602c3.842,2.175,11-2.553,14.137-4.261c8.272-4.503,15.97-10.172,23.147-16.248 c6.74-5.706,13.482-12.296,17.553-20.24c0.889-1.733,3.689-8.288-0.82-7.868c-4.055,0.378-8.217,5.708-10.825,8.328 c-10.302,10.349-21.106,22.12-28.296,34.922c-8.999,16.022-17.656,39.126-38.023,43.081c-2.215,0.43-1.274,3.803,0.93,3.375 c19.779-3.841,30.243-25.504,38.549-41.682c6.881-13.403,17.704-25.193,28.091-35.971c2.124-2.204,4.313-4.352,6.633-6.35 c0.778-0.671,1.59-1.293,2.459-1.842c1.48-0.937-0.58-0.396-0.461-1.058c-1.364,7.604-9.262,14.589-14.585,19.563 c-7.375,6.89-15.674,12.898-24.383,17.986c-2.997,1.751-6.11,3.399-9.392,4.55c-0.939,0.33-1.917,0.605-2.916,0.624 c-3.131,0.058,0.928-5.773,1.43-6.41c0.446-0.567,0.934-1.11,1.437-1.628c1.081-1.112,0.287-2.945-1.237-2.987 c-3.188-0.089-6.377-0.491-9.545-0.834C266.44,53.495,266.464,56.998,268.683,57.238L268.683,57.238z"/>
<path d="M299.62,59.504c7.15,4.756,17.789,1.808,24.827-1.304c11.302-4.997,20.458-14.104,28.777-22.97 c3.054-3.253,6.053-6.583,8.715-10.167c0.989-1.333,2.304-3.1,1.892-4.866c-1.491-6.399-19.944,10.918-21.577,12.761 c-3.583,4.044-6.266,9.037-9.073,13.618c-4.702,7.667-9.291,15.403-13.977,23.081c-7.219,11.829-14.31,24.611-23.788,34.823 c-1.43,1.54-4.253,4.363-6.642,4.02c-1.1-0.158,0.814-4.479,1.278-5.432c2.868-5.891,7.15-11.161,11.299-16.176 c3.039-3.674,6.243-7.21,9.489-10.702c1.926-2.071,3.894-4.104,5.868-6.128c1.139-1.168,4.656-6.008,6.061-6.234 c5.285-0.853,10.521-2.083,15.664-3.557c6.453-1.849,14.032-4.254,18.669-9.391c1.509-1.671-0.824-4.03-2.475-2.475 c-3.017,2.842-5.815,6.464-7.369,10.316c-1.471,3.647-2.769,11.543,2.366,13.265c4.831,1.62,9.647-3.531,12.625-6.597 c2.249-2.315,4.247-4.879,6.149-7.482c0.588-0.804,1.779-3.185,1.839-0.839c0.063,2.435-0.642,4.862-1.426,7.138 c-0.555,1.611,1.811,3.056,2.925,1.703c2.344-2.847,5.307-6.029,8.889-7.185c2.365-0.763,7.175,8.369,9.991,9.963 c1.967,1.113,3.729-1.911,1.766-3.022c-4.398-2.491-5.843-11.634-11.967-10.455c-4.501,0.867-8.344,4.811-11.153,8.224 c0.975,0.567,1.95,1.135,2.925,1.703c1.024-2.975,3.532-11.106-0.272-13.335c-3.717-2.177-7.305,5.437-8.951,7.483 c-2.394,2.975-13.069,15.254-13.569,5.402c-0.259-5.098,4.204-10.506,7.708-13.807c-0.825-0.825-1.649-1.65-2.475-2.475 c-5.751,6.37-16.239,8.463-24.248,10.34c-2.666,0.625-5.354,1.162-8.053,1.626c-0.542,0.093-1.005,0.142-1.429,0.559 c-3.073,3.02-6.111,6.073-9.105,9.172c-7.315,7.571-14.403,15.48-20.454,24.113c-2.712,3.87-5.695,8.32-6.324,13.117 c-0.34,2.596,1.38,4.67,3.998,4.651c3.502-0.026,6.608-2.661,8.879-5.027c11.362-11.845,19.499-27.521,27.935-41.456 c5.875-9.705,11.327-19.915,18.077-29.054c2.562-3.467,6.157-6.321,9.504-8.984c1.782-1.418,3.645-2.744,5.575-3.951 c0.673-0.42,1.368-0.8,2.084-1.143c1.227-0.588-0.679-1.411-0.688-1.392c-1.046,2.406-3.138,4.493-4.815,6.451 c-3.57,4.166-7.385,8.148-11.271,12.018c-6.899,6.869-14.886,13.181-24.033,16.739c-5.359,2.084-13.608,3.802-18.874,0.299 C299.501,55.228,297.75,58.261,299.62,59.504L299.62,59.504z"/>
<path d="M291.813,21.72c0.425,1.392,0.851,2.784,1.275,4.176c0.657,2.152,4.036,1.234,3.375-0.931 c-0.425-1.392-0.851-2.784-1.275-4.176C294.53,18.638,291.151,19.556,291.813,21.72L291.813,21.72z"/>
<path d="M378.31,23.777c1.483,0.279,2.968,0.558,4.452,0.836c0.937,0.176,1.884-0.246,2.152-1.222 c0.237-0.861-0.284-1.977-1.223-2.153c-1.483-0.279-2.968-0.558-4.452-0.836c-0.937-0.176-1.884,0.246-2.152,1.222 C376.85,22.485,377.371,23.601,378.31,23.777L378.31,23.777z"/>
</svg>