<?xml version="1.0" standalone="no"?>
<!DOCTYPE svg PUBLIC "-//W3C//DTD SVG 20010904//EN"
 "http://www.w3.org/TR/2001/REC-SVG-20010904/DTD/svg10.dtd">
<svg version="1.0" xmlns="http://www.w3.org/2000/svg"
 width="468pt" height="57pt" viewBox="0 0 468 57"
 preserveAspectRatio="xMidYMid meet">
<metadata>
Created by POTRACE VERSION, written by Peter Selinger 2001-2007
</metadata>
<g transform="translate(0,57) scale(0.023400,-0.023400)"
fill="#000000" stroke="none">
<path d="M5111 2300 c-29 -20 -58 -46 -63 -56 -6 -10 -25 -33 -44 -49 -23 -21
-36 -42 -41 -68 -4 -24 -2 -37 6 -37 6 0 28 15 48 33 21 17 56 46 78 63 22 17
51 36 63 43 16 8 52 11 108 8 68 -3 87 -7 98 -23 8 -10 17 -37 21 -60 3 -22 1
-54 -5 -70 -6 -16 -17 -64 -25 -106 -7 -43 -22 -93 -33 -111 -11 -17 -24 -50
-27 -72 -4 -22 -13 -47 -20 -55 -7 -8 -23 -35 -35 -60 -12 -25 -29 -52 -37
-61 -8 -9 -25 -48 -38 -85 -17 -51 -35 -81 -69 -115 -25 -25 -46 -50 -46 -56
0 -6 -11 -24 -24 -40 -13 -16 -41 -57 -61 -91 -20 -35 -48 -68 -61 -74 -13 -6
-27 -22 -31 -35 -3 -14 0 -34 6 -46 7 -12 19 -34 27 -49 13 -24 22 -28 58 -28
31 0 48 6 62 21 10 12 36 30 56 40 21 10 44 19 52 19 8 0 30 18 48 41 18 23
75 77 126 120 l93 79 54 -6 c46 -6 54 -4 59 12 3 11 1 35 -4 54 -6 19 -10 38
-10 42 0 4 30 27 68 51 37 24 97 73 134 108 36 35 82 76 101 92 19 15 40 27
46 27 5 0 26 -14 46 -32 20 -17 45 -50 57 -72 11 -23 32 -54 47 -69 20 -22 26
-38 25 -72 -1 -28 -18 -86 -49 -160 -36 -87 -45 -119 -36 -128 7 -7 11 -62 11
-163 0 -145 1 -154 26 -198 25 -45 27 -46 63 -40 20 4 42 11 49 17 6 5 12 15
12 21 0 7 11 27 25 46 13 18 31 65 40 104 11 54 14 117 12 261 -2 123 -8 201
-16 220 -7 17 -15 69 -17 116 -3 55 1 112 11 159 9 41 18 129 22 196 l6 122
-33 21 -33 20 -48 -24 c-26 -14 -68 -45 -93 -69 -31 -31 -61 -50 -97 -60 -51
-15 -53 -15 -118 13 -36 15 -92 36 -124 46 -35 10 -73 15 -94 12 -20 -4 -44
-14 -54 -23 -10 -9 -23 -13 -28 -9 -6 3 -11 21 -11 40 0 19 7 59 14 90 14 51
13 60 -6 123 -11 37 -30 77 -40 89 -15 16 -36 23 -82 27 -33 3 -86 7 -116 9
-50 4 -59 2 -109 -33z m957 -417 c6 -16 11 -60 11 -99 0 -57 -3 -75 -18 -88
-17 -16 -20 -15 -43 16 -14 18 -30 43 -36 55 -7 12 -12 30 -12 40 0 11 9 38
20 61 15 32 26 42 44 42 17 0 27 -8 34 -27z m-486 -69 c10 -22 9 -27 -5 -35
-9 -6 -17 -15 -17 -21 0 -7 22 -9 61 -6 45 3 62 1 66 -9 3 -7 -13 -33 -35 -57
-21 -23 -47 -55 -57 -70 -10 -15 -39 -37 -64 -50 -25 -12 -56 -20 -68 -18 -12
2 -26 9 -31 15 -5 7 -14 33 -20 58 -8 31 -8 57 -2 81 6 20 20 47 31 62 11 14
29 26 39 26 11 0 27 11 36 25 9 14 25 25 35 25 11 0 25 -11 31 -26z m-280
-381 c10 -9 18 -28 18 -42 0 -20 -15 -38 -61 -76 -34 -27 -85 -74 -114 -102
-29 -30 -61 -53 -73 -53 -11 0 -24 5 -27 11 -4 5 0 18 8 27 8 9 24 35 35 57
11 22 29 49 40 61 11 11 32 40 47 65 15 24 34 50 43 57 9 6 27 12 41 12 13 0
33 -7 43 -17z m791 -180 c3 -32 6 -106 6 -165 2 -97 0 -109 -19 -128 -12 -12
-27 -19 -33 -17 -8 2 -13 34 -15 90 -2 60 2 97 13 123 8 20 15 53 15 73 0 20
3 46 6 59 4 12 10 22 14 22 5 0 10 -26 13 -57z"/>
<path d="M2360 2200 c-8 -5 -38 -10 -67 -10 -33 0 -73 -9 -112 -26 -44 -19
-63 -33 -71 -55 -8 -18 -10 -57 -7 -106 3 -43 9 -93 13 -111 3 -17 3 -56 0
-86 -7 -53 -8 -54 -71 -95 -36 -22 -86 -49 -112 -59 -26 -11 -73 -35 -103 -55
-30 -21 -57 -37 -60 -37 -3 0 -14 -13 -23 -30 -10 -16 -25 -30 -33 -30 -8 0
-50 -18 -95 -40 -44 -22 -103 -59 -130 -83 -28 -25 -69 -50 -92 -57 -23 -8
-58 -21 -77 -30 -19 -10 -52 -20 -73 -23 -20 -3 -49 -15 -63 -26 -15 -11 -40
-25 -58 -30 -17 -5 -69 -25 -116 -45 -46 -20 -92 -36 -101 -36 -9 0 -27 -8
-40 -18 -13 -11 -37 -23 -54 -29 -16 -5 -46 -8 -66 -6 -27 4 -51 -3 -94 -26
-32 -17 -64 -31 -71 -31 -7 0 -34 -11 -60 -25 -26 -14 -55 -25 -64 -25 -10 0
-49 -11 -86 -25 -38 -14 -79 -37 -92 -52 -13 -14 -22 -35 -20 -47 2 -17 9 -21
38 -19 20 1 62 17 95 38 33 19 76 40 96 45 20 6 44 7 53 4 9 -3 27 1 41 10 14
9 29 14 34 11 5 -2 40 6 77 20 38 14 80 31 94 39 14 7 45 16 69 20 24 4 62 18
85 31 22 13 61 27 86 31 25 4 54 11 65 17 11 5 29 21 41 35 17 21 31 26 70 27
38 1 60 9 98 35 27 18 83 51 125 72 42 22 84 47 94 56 11 10 34 15 66 14 46
-1 49 1 55 28 4 24 12 31 48 40 24 6 61 18 82 28 21 9 65 38 98 63 32 26 71
50 87 54 15 3 41 19 56 35 16 17 34 30 41 30 7 0 21 -12 31 -26 10 -14 31 -41
47 -61 27 -32 30 -44 42 -166 7 -73 19 -159 27 -193 8 -33 26 -78 39 -100 14
-21 37 -60 51 -85 14 -25 44 -62 66 -82 23 -21 48 -37 56 -37 8 0 33 -10 57
-22 33 -18 61 -22 133 -24 81 -1 93 1 118 22 16 13 37 24 47 24 10 0 22 -4 25
-10 3 -5 13 -10 21 -10 8 0 14 7 14 15 0 9 18 35 40 57 22 23 40 45 40 49 0 4
14 12 30 18 22 7 36 22 49 54 11 25 29 51 41 60 11 8 29 38 40 66 10 29 24 58
29 65 6 7 14 40 17 72 6 55 4 61 -25 98 -18 22 -48 51 -67 64 -24 16 -45 22
-62 19 -15 -3 -43 -11 -62 -19 -20 -7 -54 -28 -77 -46 -23 -18 -55 -56 -71
-85 -17 -28 -46 -68 -66 -86 -20 -19 -36 -40 -36 -47 0 -6 -18 -28 -40 -48
-22 -20 -40 -40 -40 -44 0 -5 14 -24 30 -42 l30 -34 30 29 c17 16 30 39 30 53
0 17 21 45 71 93 39 38 82 77 95 86 24 15 27 15 52 -4 18 -13 28 -31 30 -53 2
-22 -4 -43 -17 -61 -12 -16 -21 -38 -21 -49 0 -13 -28 -48 -72 -91 -48 -45
-86 -73 -110 -79 -21 -6 -59 -21 -85 -35 -27 -13 -60 -27 -75 -30 -22 -6 -39
0 -81 28 -30 20 -75 61 -100 92 -26 32 -54 80 -63 109 -9 28 -18 85 -19 126 0
41 -6 84 -12 95 -6 11 -13 54 -17 95 -3 41 -8 125 -11 187 l-5 111 36 31 c19
17 50 38 69 45 19 8 66 46 104 84 38 38 77 84 86 102 12 23 16 47 12 77 -3 27
-14 54 -28 70 -13 14 -42 33 -64 43 -22 9 -51 20 -65 23 -14 3 -32 2 -40 -3z
m-47 -197 c25 -15 37 -31 37 -46 0 -14 -16 -35 -46 -59 -26 -21 -52 -38 -59
-38 -7 0 -15 7 -19 15 -3 8 -8 36 -11 62 -4 27 -2 60 4 76 9 23 15 27 34 21
12 -4 39 -18 60 -31z"/>
<path d="M18898 2075 c-14 -14 -39 -30 -55 -36 -25 -8 -37 -24 -64 -82 -24
-53 -48 -86 -92 -127 -33 -30 -88 -83 -122 -117 -34 -34 -93 -79 -131 -100
-38 -21 -80 -47 -93 -58 -14 -11 -32 -28 -40 -38 -9 -10 -36 -38 -60 -62 -24
-25 -49 -45 -56 -45 -7 0 -29 -13 -50 -30 -21 -16 -49 -30 -63 -30 -16 0 -80
-37 -167 -95 -112 -75 -149 -95 -177 -95 -23 0 -48 -10 -74 -30 -21 -16 -46
-30 -54 -30 -8 0 -51 -18 -95 -40 -43 -22 -87 -47 -96 -56 -9 -8 -43 -19 -75
-24 -33 -4 -80 -14 -107 -20 -41 -11 -56 -10 -113 6 -47 14 -69 25 -76 40 -7
16 -6 36 5 70 9 27 19 72 22 101 4 29 13 57 21 64 11 9 20 5 45 -15 20 -17 42
-26 65 -26 29 0 46 10 91 52 54 51 55 54 48 93 -4 22 -8 65 -9 96 -1 40 -6 63
-20 78 -10 11 -34 25 -52 31 -19 7 -48 9 -65 5 -17 -4 -49 -23 -71 -43 -22
-19 -46 -48 -54 -63 -7 -15 -29 -45 -48 -65 -20 -22 -39 -57 -46 -83 -6 -25
-15 -59 -20 -76 -5 -16 -16 -49 -24 -73 -15 -40 -15 -45 4 -87 11 -24 20 -55
20 -68 0 -14 17 -47 38 -76 28 -38 43 -51 63 -51 14 0 34 -6 44 -14 13 -9 39
-12 84 -9 36 2 84 9 106 15 22 6 60 20 84 31 24 11 62 21 85 23 22 2 63 15 90
29 27 14 57 25 66 25 10 0 34 14 55 30 21 17 47 30 58 30 10 0 36 18 56 39 22
24 49 42 71 46 19 4 54 23 78 41 25 18 61 36 81 39 20 3 43 10 51 16 8 5 28
17 44 27 16 9 51 36 78 60 27 23 54 42 61 42 6 0 39 27 72 61 33 33 70 69 82
80 14 14 32 19 54 17 17 -2 36 -10 42 -19 8 -12 0 -29 -32 -72 -22 -31 -41
-60 -41 -65 0 -5 -18 -37 -40 -71 -22 -34 -40 -66 -40 -71 0 -5 -11 -30 -24
-55 -14 -25 -30 -71 -36 -103 -6 -31 -15 -79 -21 -106 -9 -46 -7 -53 19 -95
26 -43 31 -46 74 -49 35 -2 65 5 117 27 38 17 75 31 83 31 7 0 22 7 32 15 11
8 29 15 40 15 11 0 30 10 43 22 13 12 36 21 53 21 16 0 38 -7 47 -16 10 -8 30
-18 44 -22 14 -4 48 -24 74 -46 26 -21 56 -39 66 -39 11 0 47 -28 81 -62 35
-34 70 -79 80 -100 12 -27 28 -43 52 -53 18 -8 48 -32 65 -54 24 -30 41 -41
71 -46 21 -4 44 -13 51 -21 6 -8 18 -14 25 -14 8 0 14 3 14 6 0 3 -11 19 -25
36 -14 16 -25 37 -25 46 0 10 -48 67 -106 127 -58 61 -117 129 -131 153 -14
23 -59 73 -100 110 -41 37 -83 72 -94 77 -10 6 -41 42 -67 80 -44 63 -51 70
-82 70 -30 0 -40 -8 -82 -60 -32 -39 -73 -75 -120 -104 -39 -24 -89 -46 -110
-48 -24 -4 -44 -1 -54 8 -12 10 -15 24 -11 53 3 21 29 84 57 140 28 56 71 130
96 166 25 36 48 76 51 89 3 14 32 51 63 84 52 53 58 64 63 110 4 43 10 56 39
82 20 17 59 74 88 130 30 55 62 117 72 137 10 21 30 45 44 54 13 9 29 25 35
36 8 14 6 26 -6 44 -9 14 -25 24 -39 24 -13 0 -35 -11 -48 -25z"/>
<path d="M9117 2010 c-37 -33 -74 -60 -81 -60 -7 0 -30 -13 -51 -30 -21 -16
-44 -30 -51 -30 -7 0 -36 -21 -66 -46 -29 -25 -79 -61 -110 -81 -32 -20 -60
-43 -63 -53 -3 -9 -23 -31 -45 -49 -22 -17 -68 -45 -103 -60 -45 -21 -77 -44
-108 -80 -24 -28 -53 -54 -63 -57 -11 -4 -49 -26 -85 -49 -36 -23 -93 -67
-126 -96 -33 -30 -86 -72 -119 -94 -32 -22 -86 -57 -119 -77 -34 -20 -81 -57
-106 -82 -25 -26 -62 -59 -82 -74 -20 -15 -63 -49 -96 -77 -33 -27 -69 -55
-79 -61 -14 -9 -16 -15 -8 -24 7 -7 21 -9 31 -6 11 3 51 28 90 54 39 26 92 66
118 90 25 23 71 54 101 69 31 15 69 44 85 65 17 21 54 49 82 63 29 15 72 45
97 69 25 23 63 54 85 68 22 13 56 30 76 37 20 6 47 23 59 36 13 14 29 25 37
25 7 0 37 16 67 35 30 19 72 42 94 51 23 8 48 27 57 41 9 13 32 31 50 39 19 7
37 24 40 36 4 13 15 31 24 42 9 10 39 29 66 43 28 14 71 45 97 69 30 28 56 44
72 44 15 0 30 -8 36 -21 9 -15 8 -32 -4 -67 -8 -26 -17 -64 -21 -85 -4 -23
-15 -43 -30 -53 -13 -8 -26 -21 -29 -29 -2 -7 0 -30 5 -50 7 -25 7 -46 -1 -69
-6 -18 -22 -48 -35 -66 -14 -19 -25 -47 -25 -62 0 -16 -7 -45 -15 -65 -8 -19
-15 -48 -15 -64 0 -16 -14 -63 -31 -106 -18 -46 -33 -105 -36 -145 -5 -53 -2
-73 11 -93 10 -16 26 -25 41 -25 17 0 41 16 71 48 25 26 53 61 61 77 9 17 25
42 36 58 12 15 26 27 33 27 6 0 28 18 48 40 20 22 36 45 36 50 0 6 24 37 53
70 28 32 72 84 97 115 25 30 55 67 67 81 13 13 26 36 29 49 4 15 23 34 48 48
l43 24 46 -24 c26 -13 47 -30 47 -37 0 -7 12 -40 27 -72 15 -33 36 -86 47
-118 18 -52 28 -65 76 -98 30 -22 75 -49 100 -62 25 -12 79 -30 120 -39 41 -9
107 -20 146 -25 55 -6 71 -5 67 4 -2 7 4 17 14 22 10 5 34 12 54 16 20 3 44
15 54 26 10 11 33 24 52 31 19 6 63 27 96 46 34 19 100 55 147 79 47 24 96 55
110 69 13 14 31 25 40 25 10 0 30 -10 45 -22 23 -18 26 -27 22 -58 -3 -23 2
-49 14 -74 14 -29 16 -43 8 -64 -6 -15 -7 -53 -4 -88 7 -57 10 -64 50 -97 24
-20 53 -57 65 -82 12 -25 26 -45 31 -45 5 0 28 -17 52 -38 41 -37 44 -39 121
-40 73 -1 83 2 131 32 28 19 70 37 93 41 23 4 53 16 67 27 14 11 32 35 40 54
8 19 21 37 29 40 7 3 42 62 76 131 61 122 63 127 62 199 -1 45 -8 87 -17 104
-11 21 -28 33 -58 42 -23 6 -68 11 -101 10 -46 -1 -71 -9 -121 -37 -34 -19
-73 -46 -86 -60 -13 -15 -41 -37 -62 -51 -21 -14 -42 -36 -47 -50 -6 -14 -12
-35 -16 -48 -4 -17 0 -25 12 -30 13 -5 32 7 68 43 28 27 62 55 76 61 14 6 40
22 59 36 19 13 46 27 59 31 14 3 32 2 41 -4 9 -5 25 -35 36 -66 l19 -56 -23
-73 c-19 -61 -33 -83 -79 -130 -31 -32 -61 -58 -66 -58 -5 0 -17 -6 -25 -14
-9 -8 -50 -28 -92 -45 -66 -26 -83 -30 -122 -22 -24 4 -56 19 -70 32 -14 13
-42 55 -63 93 -33 60 -39 82 -47 170 -5 56 -10 130 -10 166 0 36 7 99 15 140
8 41 25 95 36 120 12 25 22 55 22 68 0 13 12 44 27 70 15 26 47 71 70 99 30
37 43 62 43 83 0 21 -9 39 -26 55 -15 14 -32 25 -38 25 -6 0 -18 -6 -27 -13
-9 -7 -26 -31 -38 -54 -12 -24 -35 -64 -52 -90 -16 -27 -35 -67 -40 -90 -8
-31 -24 -52 -60 -83 -27 -23 -58 -59 -69 -80 -11 -22 -20 -46 -20 -55 0 -9
-24 -40 -53 -69 -31 -32 -68 -58 -92 -66 -22 -7 -56 -30 -76 -51 -20 -22 -45
-39 -55 -39 -11 0 -37 -12 -59 -25 -22 -14 -47 -25 -55 -25 -8 0 -36 -11 -62
-25 -35 -19 -62 -25 -107 -25 -42 0 -73 -6 -100 -21 -38 -19 -42 -19 -92 -5
-29 9 -72 16 -96 16 -38 0 -50 6 -93 46 -37 34 -55 63 -74 112 -20 55 -25 86
-26 172 0 58 -1 123 -1 145 0 22 1 71 3 108 2 58 0 71 -16 82 -13 10 -25 11
-45 4 -14 -6 -36 -22 -48 -37 -12 -15 -22 -34 -23 -43 0 -9 -12 -27 -27 -42
-16 -14 -47 -42 -69 -61 -23 -20 -55 -39 -73 -42 -19 -4 -37 -2 -46 6 -13 11
-19 11 -31 -2 -14 -14 -14 -18 -1 -39 8 -13 18 -37 21 -52 6 -25 -1 -37 -59
-99 -36 -39 -80 -93 -97 -120 -18 -27 -42 -55 -54 -61 -11 -7 -42 -36 -67 -65
-26 -29 -47 -59 -47 -66 0 -7 -9 -25 -21 -40 -17 -21 -24 -24 -35 -15 -8 6
-14 29 -14 51 0 21 9 56 19 76 11 20 24 55 29 77 6 22 18 63 27 90 10 28 32
86 50 130 19 44 37 98 41 120 3 22 11 48 15 57 5 9 16 48 24 87 8 39 28 106
45 149 17 43 41 89 55 102 14 13 25 31 25 41 0 10 -7 25 -16 33 -8 9 -23 16
-32 16 -9 -1 -48 -28 -85 -60z"/>
<path d="M16828 1803 c-8 -10 -23 -31 -33 -48 -11 -16 -27 -52 -37 -80 -9 -27
-17 -60 -18 -72 0 -12 11 -34 24 -50 20 -24 26 -25 40 -14 9 7 16 26 16 41 0
17 13 41 35 66 19 21 35 44 35 52 0 8 8 27 17 42 15 27 15 30 -1 54 -10 16
-26 26 -40 26 -12 0 -30 -8 -38 -17z"/>
<path d="M16340 1551 c-19 -11 -45 -24 -57 -30 -12 -5 -27 -19 -33 -30 -6 -12
-26 -29 -45 -38 -18 -10 -92 -75 -162 -144 -75 -74 -144 -134 -166 -143 -21
-8 -45 -12 -53 -9 -12 5 -15 15 -10 44 4 26 0 52 -15 86 -11 26 -34 63 -52 81
-17 17 -41 32 -53 32 -12 0 -49 -17 -82 -37 -33 -21 -88 -57 -122 -80 -34 -24
-69 -43 -76 -43 -8 0 -24 10 -34 23 -11 12 -37 40 -58 63 -23 26 -58 49 -95
64 -43 16 -71 21 -107 18 -27 -3 -75 -18 -107 -33 -32 -16 -88 -57 -125 -93
-52 -50 -71 -62 -87 -57 -12 3 -24 18 -27 33 -3 15 -10 38 -15 52 -6 14 -33
42 -61 62 -29 21 -68 41 -87 44 -22 5 -61 1 -101 -10 -36 -9 -76 -16 -90 -16
-14 0 -34 -6 -45 -14 -11 -7 -49 -25 -85 -40 -36 -15 -87 -34 -115 -43 -27 -8
-73 -28 -101 -44 -28 -15 -58 -37 -68 -48 -10 -11 -47 -36 -83 -57 -36 -21
-93 -64 -127 -95 -42 -38 -73 -58 -98 -63 -31 -6 -39 -3 -48 14 -8 15 -9 77
-4 211 7 189 7 190 -16 214 -22 24 -29 25 -137 25 -75 0 -132 -5 -166 -16 -29
-8 -74 -24 -102 -34 -27 -11 -63 -22 -80 -25 -16 -4 -47 -14 -68 -23 -36 -15
-41 -15 -74 3 -25 14 -39 16 -51 9 -9 -6 -47 -71 -84 -145 -37 -74 -70 -144
-73 -157 -3 -12 -21 -47 -41 -77 -19 -30 -66 -89 -104 -132 -38 -42 -79 -82
-92 -89 -13 -8 -33 -13 -45 -14 -12 0 -25 5 -28 10 -4 6 -3 60 1 121 l7 111
41 50 c22 28 47 61 54 74 7 13 15 66 17 118 2 52 7 110 10 129 6 31 3 38 -20
53 -20 13 -33 15 -53 8 -22 -8 -28 -17 -33 -54 -4 -25 -12 -70 -18 -100 -6
-30 -20 -73 -32 -97 -11 -23 -33 -58 -50 -79 -16 -20 -29 -43 -29 -50 0 -8 7
-32 16 -54 15 -38 15 -44 1 -78 -9 -20 -19 -63 -23 -94 -6 -52 -3 -62 26 -112
17 -31 39 -60 48 -65 12 -7 22 -5 34 6 9 8 36 19 59 24 26 6 59 25 83 47 23
20 51 44 62 52 12 8 60 74 106 145 46 72 95 156 108 187 13 32 36 72 50 90 19
22 43 37 76 46 27 8 83 24 124 36 41 13 107 31 145 40 39 9 80 16 91 16 12 0
27 7 34 15 7 8 21 15 32 15 10 0 34 -7 53 -14 28 -12 35 -21 35 -43 0 -15 7
-47 15 -70 11 -31 12 -50 5 -68 -6 -15 -10 -52 -10 -84 0 -32 5 -73 12 -92 6
-19 22 -51 36 -71 17 -26 32 -38 48 -38 13 0 41 7 63 16 22 9 47 26 55 40 9
13 29 30 46 39 16 8 40 26 54 40 14 14 33 25 42 25 10 0 29 11 43 24 15 13 61
49 105 80 62 45 86 56 117 56 27 0 51 9 82 30 33 24 64 34 137 46 52 9 109 18
127 21 22 4 44 -3 77 -22 25 -15 49 -31 52 -37 3 -5 13 -37 20 -70 10 -41 12
-85 8 -132 -6 -64 -4 -73 15 -90 18 -16 25 -17 44 -7 12 6 42 41 67 77 25 36
55 82 67 102 12 20 39 52 59 70 21 17 45 32 55 32 10 0 34 14 52 30 19 17 45
30 57 30 12 0 34 -8 48 -19 15 -10 43 -24 63 -30 20 -6 44 -20 53 -30 13 -14
16 -34 14 -85 -2 -51 2 -70 15 -83 16 -17 19 -16 54 2 21 11 62 40 93 65 30
25 73 57 96 73 22 15 47 27 56 27 9 0 32 -9 51 -20 23 -14 40 -35 51 -63 9
-23 32 -59 52 -79 19 -21 42 -38 50 -38 9 0 39 10 67 22 32 13 75 45 113 82
33 34 105 99 158 146 54 47 111 97 127 113 17 15 33 27 37 28 4 0 35 3 69 5
58 4 64 3 100 -28 21 -18 41 -37 45 -43 4 -5 8 -38 8 -72 0 -34 -4 -83 -10
-110 -5 -26 -15 -87 -21 -135 -9 -66 -9 -94 -1 -113 7 -14 20 -25 31 -25 10 0
23 6 30 13 6 7 29 57 51 110 22 53 40 109 40 124 0 16 7 53 15 83 8 30 15 71
15 92 0 20 -10 62 -22 92 -11 31 -39 77 -60 101 -22 25 -44 45 -50 45 -5 0
-21 9 -35 20 -17 13 -41 20 -72 20 -27 0 -61 -8 -81 -19z"/>
<path d="M7007 1127 c-18 -19 -40 -45 -49 -59 -9 -14 -30 -29 -45 -32 -15 -4
-38 -14 -50 -22 -13 -8 -23 -23 -23 -33 0 -10 6 -24 14 -30 8 -7 30 -15 50
-18 29 -4 44 0 74 20 20 14 53 28 72 32 19 4 42 12 51 18 8 7 23 24 33 39 12
18 15 35 11 50 -4 13 -17 33 -28 46 -12 13 -32 22 -50 22 -20 0 -39 -10 -60
-33z"/>
<path d="M3498 1070 c-14 -11 -37 -24 -52 -30 -20 -7 -26 -16 -26 -41 0 -17 5
-50 12 -73 6 -22 14 -44 18 -48 3 -4 45 -2 94 4 84 11 89 14 114 47 15 20 33
40 39 44 7 4 13 16 13 26 0 10 -10 27 -23 39 -12 11 -39 28 -59 37 -21 8 -53
15 -71 15 -19 0 -46 -9 -59 -20z"/>
<path d="M7482 767 c-12 -13 -22 -26 -22 -30 0 -3 16 3 35 14 19 12 38 25 41
30 3 5 -3 9 -14 9 -10 0 -28 -10 -40 -23z"/>
</g>
</svg>
