<?xml version="1.0" encoding="UTF-8" standalone="no"?>
<svg xmlns="http://www.w3.org/2000/svg" version="1.0" width="200" height="32">
<path d="m 177.79937,0.92881365 c -0.53585,2.28876195 -2.25553,3.39575795 -1.99592,6.47997795 -1.54107,-0.118384 -1.93568,-1.38738 -2.9866,-1.993839 0.90138,-2.251377 1.48707,-4.82675295 4.98252,-4.48613895 z M 26.267574,4.9164926 c 1.254458,1.237842 3.27322,1.711379 2.99076,4.486139 -1.435149,-0.90969 -4.342832,-2.380146 -2.99076,-4.486139 z m -13.458415,4.984599 c 2.994912,1.6781474 3.632526,3.3687564 4.984598,5.9815174 3.420681,-0.234692 5.755134,-1.55561 9.470737,-1.49538 -0.36346,3.123682 -2.625222,4.349062 -2.990759,7.476898 0.500537,2.213992 4.473677,-0.710305 5.483058,0.49846 -2.710375,1.204611 -3.698987,1.374918 -6.978437,1.493302 0.44446,-3.285681 1.800686,-5.736442 1.993839,-7.97328 -1.75084,-0.407076 -5.809134,1.160996 -7.476898,2.494376 0.04361,1.860917 0.558691,1.42061 0,2.988682 -1.241996,-2.199454 -2.373915,-3.331373 -0.996919,-5.981518 -4.477831,1.277303 -4.461216,6.452978 -3.987679,10.968193 3.158989,0.502614 2.508914,-2.812144 4.984598,-2.990759 -1.183842,2.305377 -2.550453,4.427985 -6.479978,3.987679 -0.50469,-4.326216 0.654229,-10.853963 3.987679,-12.959956 -0.01662,-2.143377 -2.648068,-1.673994 -1.993839,-4.4882144 z M 54.679785,12.89185 c 3.534912,3.129912 -0.0042,7.001284 -3.489218,7.476897 0.388383,0.442383 0.535844,1.127766 0.498459,1.995917 0.03946,1.786147 3.258682,0.394614 3.987679,1.493302 -0.938766,1.746687 -3.69068,0.697844 -4.984598,0 -0.830767,-0.662536 -0.16823,-2.820452 -0.99692,-3.489219 -0.664613,0 -1.329226,0 -1.993839,0 -1.896225,2.259685 -2.799683,5.507982 -4.486139,7.975358 0.182769,1.813148 2.137147,1.852609 2.492299,3.491296 -1.092458,-0.39046 -2.768529,-0.159923 -3.489219,-1.99384 0.751844,-5.395827 7.346052,-9.788505 1.49538,-13.458416 3.264912,-0.620997 2.967913,1.871302 5.981518,2.4923 0.803767,-2.853683 0.161999,-7.148745 4.984598,-5.983595 z m -3.489218,5.981518 c 1.524456,0.36346 1.466302,-0.859843 2.990759,-0.496383 0.164076,-1.167227 0.600228,-2.060301 0.996919,-2.992836 -0.886843,-0.442383 -1.266918,-1.391534 -2.990759,-0.994843 -0.787151,1.038458 -0.344768,3.310604 -0.996919,4.484062 z m -4.984599,11.965113 c 1.997993,0.523383 3.408219,0.04777 5.483058,0.496383 -0.658382,0.627229 -5.605596,1.308457 -5.483058,-0.496383 z M 196.73877,4.4180326 c 1.00107,1.015612 -0.216,0.978228 -0.49639,1.99384 2.06238,0.525459 1.34792,-2.932606 2.99076,-4.486139 2.6003,2.419607 -3.40199,8.3429724 -6.48205,6.479978 -0.43615,-2.068608 1.85053,-2.716606 3.98768,-3.987679 z M 52.685946,3.4211136 C 54.376556,12.067314 42.56098,11.136856 40.22445,17.377988 c 0.116307,1.455918 3.233758,-2.099762 2.990759,0.49846 -3.802833,0.182769 -5.551596,2.421684 -7.476897,4.486139 C 34.814084,18.601292 43.02621,17.03322 41.719829,12.889773 45.186202,9.7910146 45.304587,0.97658265 52.685946,3.4211136 z M 44.212129,11.89493 c 3.711449,-1.092457 8.696047,-3.0592964 6.978438,-7.9753574 -4.874522,0.110077 -5.90675,4.062448 -6.978438,7.9753574 z m 61.310561,7.973281 c 1.52653,-0.965766 1.24615,-3.738449 2.49438,-4.982522 -0.37385,-1.125688 -2.79969,-0.19523 -3.98976,-0.49846 -3.0946,2.94299 -2.61691,9.0242 -5.981518,9.969197 -2.2223,0.07269 0.44446,-1.277303 0,-2.490222 -2.97622,0.429921 -7.661743,2.218146 -9.472814,-0.49846 -3.954448,1.484995 -7.456128,2.016685 -12.461496,1.49538 0.361384,-3.127836 2.88899,-4.089448 3.489219,-6.978438 0.234692,-1.561841 -1.25238,-1.406073 -1.993839,-1.99384 -3.485065,2.3303 -2.645991,8.982662 -6.976361,10.467657 1.185919,-3.464296 2.627299,-6.677285 3.987679,-9.969197 -1.453842,-0.934612 -4.193294,1.106996 -6.978438,0.49846 1.082073,9.518506 -5.235906,9.377276 -11.464577,9.470737 0.305307,-1.688533 3.35422,-0.633459 4.486139,-1.495379 -0.799613,-5.146598 0.380076,-10.770887 5.981518,-10.966117 2.963759,4.799753 9.32743,-0.859843 14.455336,0.99692 1.511994,3.954448 -2.126762,6.30967 -3.491296,8.972277 1.786148,1.167227 4.77483,-0.0042 6.479978,-0.49846 0.186922,-1.96684 1.543148,-6.197517 2.492299,-8.972277 6.191287,-4.2784464 12.349343,-10.6774254 23.429691,-8.4738174 2.26384,2.55253 5.3709,4.265986 5.48098,8.9722774 1.38323,0.735228 2.33238,-0.07685 3.49337,1.495379 1.75707,-1.262765 4.31376,-1.977224 3.98768,-3.987678 1.24615,0.251307 1.66361,1.327149 2.98868,1.495379 0.67708,6.482055 -1.93984,12.154112 -6.97636,9.969197 -1.10907,-2.714529 -0.76846,-6.878746 -3.49337,-7.975358 0.99069,4.018833 -5.10298,11.512346 -9.96712,6.479978 -1.20877,-0.369691 -4.03337,1.225381 -2.99076,0 1.17346,0.01038 1.46838,-0.857766 2.99076,-0.502613 z M 91.565814,12.39339 c 0.743536,1.383226 2.037455,-0.866074 2.4923,0.49846 -0.176538,3.644987 -2.612761,5.03029 -2.990759,8.473817 5.235905,1.979301 10.872655,-2.315761 9.470735,-6.978438 -0.643842,1.090381 -4.0936,2.726991 -4.98252,0.49846 2.301223,-1.850532 5.64506,-2.662606 8.47382,-3.987678 -1.28977,2.249299 1.64699,2.459068 3.98768,2.492298 0.94084,-1.256534 3.45391,-2.905604 4.98252,-1.993839 C 111.58105,1.1551976 92.895041,4.0566496 91.565814,12.39339 z m -5.483058,8.473817 c 2.060301,-0.431998 2.789298,-2.199454 3.491296,-3.987679 -0.857766,0.02908 -1.277303,-0.386306 -1.497457,-0.996919 0.68746,0.02077 1.094535,-0.234692 1.497457,-0.49846 -0.461075,-0.868151 0.01662,-2.675068 -1.497457,-2.492299 -0.876458,2.44453 -2.373915,4.272216 -1.993839,7.975357 z m 34.892184,-5.981518 c 1.026,-0.301153 3.46222,0.803767 2.98661,-0.99692 -0.76223,-1.368687 -2.91599,0.02077 -2.98661,0.99692 z m -58.818257,7.478975 c 5.678289,0.701997 3.973141,-6.920285 1.49538,-8.475895 -0.998997,2.737376 -2.315761,5.221367 -1.49538,8.475895 z m 46.356767,-1.497457 c 1.39569,-0.263768 2.58991,-0.731074 3.98768,-0.996919 1.03846,-3.302297 -0.84115,-3.844372 0.49638,-5.979442 -4.58998,-0.872304 -4.82675,4.481985 -4.48406,6.976361 z m 11.96511,-4.984598 c -0.88476,2.365607 0.30739,2.618991 0.49638,4.984598 1.94815,-0.04361 4.35945,-4.388523 1.99384,-5.483058 0.0831,1.082073 -1.76953,0.226384 -2.49022,0.49846 z m 76.76074,-4.984598 c 1.06338,1.007304 -1.11115,1.320918 -1.99176,0.996919 0.88061,1.698917 -1.46007,5.713596 -2.99284,7.973281 0.0955,0.749766 2.68753,2.579529 2.49438,0.498459 0.51923,1.140227 1.55769,1.765379 1.49538,3.489219 -6.11444,-2.822529 -10.69819,-1.160996 -16.94763,-3.987678 -0.15162,-3.476758 2.68129,-3.964833 3.49129,-6.479978 -3.19637,-0.371768 -7.38759,4.157985 -7.47897,6.978437 -3.37291,0.267923 -6.72921,0.859844 -9.47074,-0.994842 0.92007,-2.899375 2.85576,-4.787292 4.98252,-6.479978 -0.95538,-0.872305 -2.6003,-1.057151 -3.98975,-1.49538 -1.00108,3.99391 -6.54644,7.597359 -4.98045,10.968194 -3.15483,-2.259685 -2.74153,2.741529 -5.98359,1.991762 -0.42577,-1.590918 0.78715,-1.541072 0.99484,-2.490222 -2.54007,-0.69369 -9.05328,-0.625152 -11.96304,-2.492299 0,-0.994843 0,-1.99384 0,-2.99076 -0.31569,-1.011458 -2.32822,-0.328152 -2.49022,-1.495379 -0.92631,2.394684 -1.63453,5.011598 -2.49022,7.478975 -2.67092,0.778843 -5.66791,1.468379 -7.48106,-0.49846 0.85569,-4.999137 3.16938,-11.067885 8.97228,-9.472814 -1.13815,-10.2578884 -16.27056,-3.5992954 -22.43069,-3.9876784 5.25044,-3.507911 17.18856,-4.930599 22.92707,-0.99692 0.90969,3.4601424 -0.027,5.9088254 2.99076,7.4768974 0.70616,-2.712452 3.81322,-5.3542894 7.47898,-3.489219 -0.71654,3.011528 -0.39877,6.392748 -4.98252,6.482055 2.53591,2.949221 12.60272,4.727061 13.45634,-0.49846 -0.69162,-1.634533 -2.66053,-1.989685 -3.48922,-3.489219 -0.0374,-1.862994 0.80169,-2.855759 1.99176,-3.489218 -0.63969,-0.8556894 -1.98761,-1.0010734 -2.49022,-1.9938394 1.21915,-2.832914 6.13313,-5.362597 9.47281,-2.990759 -1.16307,3.657449 -5.77175,3.865141 -6.4779,7.9753564 -0.16615,2.159993 2.75815,1.227458 2.49022,3.489219 3.78207,-2.722837 1.53692,-9.0968914 6.47998,-9.9691964 1.35623,1.349996 -1.28976,1.239919 -0.99484,2.990759 1.57015,3.0987584 4.23483,-0.44446 6.97636,0.9969194 -1.87338,2.945067 -5.30237,4.336601 -6.4779,7.975358 5.61598,1.956455 7.46859,-4.157986 9.96712,-6.978438 -1.37492,-1.019765 -1.54938,3.41445 -3.98768,2.990759 -0.0935,-2.920144 1.41646,-4.236908 2.99076,-5.4830574 2.65845,0.496382 3.80491,2.5089134 6.97428,2.4922984 0.57946,3.902525 -2.94506,3.701064 -2.9866,6.978438 0.3053,1.686455 3.33553,0.650074 3.98768,1.993839 -0.63139,-4.608677 2.92014,-8.926585 6.4779,-10.9661164 1.42269,0.6646144 -0.38423,2.2160694 -0.49639,2.9907584 1.51408,-1.983454 5.33976,-1.389456 5.98152,-1.997992 z M 158.35943,7.9072516 c 2.03746,2.6065304 5.70737,-0.03323 5.48306,-2.492299 -2.75191,-0.09346 -3.97521,1.341688 -5.48306,2.492299 z m -10.96611,8.4738174 c 2.44661,0.284537 2.5193,-1.80484 2.98868,-3.489219 -0.67292,-0.157846 -0.95123,-0.710306 -1.99384,-0.49846 -0.23469,1.433072 -1.89415,2.940913 -0.99484,3.987679 z m 40.87163,3.987678 c 0.49846,0 0.99692,0 1.49953,0 0.93877,-2.280453 3.80699,-5.66998 1.49538,-6.978438 -2.35107,0.758075 -3.91914,4.565062 -2.99491,6.978438 z m -53.33313,1.49538 c 4.80183,2.056147 5.18814,-3.937833 6.47998,-6.978438 -0.99484,-0.722767 -1.74669,0.519229 -2.4923,-0.99692 -2.20569,1.779917 -4.30129,3.674065 -3.98768,7.975358 z M 8.8214797,10.399551 c -0.63346,0.544151 -3.551527,3.082143 -5.981518,3.489218 -0.41123,1.408149 0.701997,1.291842 0.498459,2.4923 C -0.26087426,16.177531 0.66127674,19.972056 0.84612174,22.364664 -1.6856383,17.012451 1.6062737,10.960318 8.8214797,10.399551 z" />
</svg>
