<?xml version="1.0" encoding="UTF-8" standalone="no"?>
<!-- Created with Inkscape (http://www.inkscape.org/) -->

<svg
   xmlns:dc="http://purl.org/dc/elements/1.1/"
   xmlns:cc="http://creativecommons.org/ns#"
   xmlns:rdf="http://www.w3.org/1999/02/22-rdf-syntax-ns#"
   xmlns:svg="http://www.w3.org/2000/svg"
   xmlns="http://www.w3.org/2000/svg"
   version="1.1"
   width="563.9527"
   height="248.97078"
   id="svg2">
  <defs
     id="defs4" />
  <metadata
     id="metadata7">
    <rdf:RDF>
      <cc:Work
         rdf:about="">
        <dc:format>image/svg+xml</dc:format>
        <dc:type
           rdf:resource="http://purl.org/dc/dcmitype/StillImage" />
        <dc:title></dc:title>
      </cc:Work>
    </rdf:RDF>
  </metadata>
  <g
     transform="translate(-495.28571,-122.64791)"
     id="layer1">
    <path
       d="m 559.28571,369.67466 c 0,-2.91242 4.19225,-11.02675 5.69695,-11.02675 1.66909,0 11.30305,6.89862 11.30305,8.09381 0,1.3457 -3.15307,1.03364 -6,-0.59381 -3.80073,-2.17269 -4.96981,-1.81651 -6.56445,2 -1.57505,3.76962 -4.43555,4.75423 -4.43555,1.52675 z m 124.38806,-16.02454 c -13.90736,-1.93588 -27.33221,-7.96335 -34.1073,-15.31345 -6.7968,-7.37365 -9.5775,-13.88641 -9.68725,-22.68876 -0.0808,-6.48229 0.28047,-8.13619 2.66255,-12.18841 1.51583,-2.57863 5.45333,-6.80751 8.75,-9.39752 3.29667,-2.59001 5.99394,-5.02049 5.99394,-5.40107 0,-0.61822 4.40888,-3.013 5.54705,-3.013 0.24912,0 0.45295,1.5521 0.45295,3.44911 0,4.15964 3.11744,6.86178 13.56904,11.76138 6.19284,2.90315 7.88942,3.25132 15.93096,3.26934 8.19619,0.0184 9.47678,-0.25029 14.33838,-3.00805 6.60802,-3.74844 25.80934,-20.25145 26.72775,-22.97178 0.37137,-1.1 3.03882,-6.05 5.92767,-11 11.35136,-19.45039 17.70811,-33.88093 18.45601,-41.89721 0.3873,-4.15134 1.07671,-6.2237 2.32866,-7 2.83645,-1.75882 3.86488,0.97489 3.17075,8.42827 -1.00458,10.78703 3.67537,19.96894 10.17804,19.96894 5.10703,0 7.50217,-1.61359 12.62939,-8.50834 6.85554,-9.21888 7.22871,-10.6204 3.66131,-13.75074 -5.73102,-5.02888 -2.44948,-12.77679 4.61366,-10.89313 1.63261,0.4354 3.46385,1.78073 4.06942,2.98963 0.60558,1.2089 1.33256,2.42952 1.61553,2.71248 0.28297,0.28297 4.70484,-1.525 9.82638,-4.01771 5.12154,-2.4927 9.90141,-4.53219 10.62193,-4.53219 0.72051,0 2.43429,1.78093 3.80837,3.95763 3.90129,6.18004 5.90052,6.41268 38.81779,4.51716 40.92183,-2.35646 56.9564,-1.29995 98.12838,6.46566 20.77479,3.91841 35.50127,2.31494 51.58057,-5.61627 8.2074,-4.04833 11.044,-6.19209 20.8472,-15.75506 11.3964,-11.11706 17.9209,-19.20956 22.2274,-27.56912 1.706,-3.3116 2.4217,-4.01696 2.7103,-2.67091 0.6556,3.05762 -0.487,5.83971 -5.6145,13.67091 -7.2198,11.02655 -24.7243,27.08541 -38.1278,34.97879 -18.11994,10.67095 -33.8181,11.84826 -67.26357,5.04454 -31.8855,-6.48637 -46.5623,-7.22009 -87.77902,-4.38824 -13.475,0.92582 -26.63536,1.35942 -29.24525,0.96355 -4.92973,-0.74774 -10.75475,-4.64067 -10.75475,-7.18753 0,-2.42293 -3.16137,-1.51201 -13.45553,3.87708 -9.75101,5.10474 -10.02146,5.34249 -13.16462,11.5729 -3.56949,7.07548 -13.32517,17.8361 -17.00849,18.76055 -6.02291,1.51166 -13.83204,-3.1963 -15.85051,-9.55593 -1.06136,-3.34407 -2.13507,-2.44083 -4.97402,4.18429 -3.79505,8.85632 -13.21801,24.68178 -18.74152,31.47561 -2.58207,3.17592 -6.6573,8.24939 -9.05606,11.27439 -5.53835,6.98424 -17.30766,16.08652 -23.83486,18.43367 -3.88348,1.39648 -6.90925,1.70034 -13.22499,1.32811 -10.80756,-0.63697 -17.65082,-3.3863 -25.50316,-10.24609 -3.47256,-3.03363 -6.75649,-5.51569 -7.29761,-5.51569 -1.25552,0 -10.00716,8.72507 -12.3723,12.33473 -2.30725,3.52131 -2.26926,12.88232 0.081,19.95826 4.55978,13.72824 24.89868,24.6657 45.90268,24.68467 11.25401,0.0102 19.17925,-1.45303 33,-6.09265 22.64979,-7.60351 47.34307,-22.14658 62.26986,-36.67372 14.10987,-13.73211 26.23013,-34.0059 26.23013,-43.87564 0,-1.38115 0.43711,-2.18353 1,-1.83565 1.73559,1.07265 1.08976,8.11502 -1.48549,16.19838 -2.52739,7.93313 -4.31155,10.62995 -16.87986,25.51456 -12.3515,14.62784 -39.2104,32.71667 -63.37026,42.67835 -15.99936,6.59691 -35.95837,9.90906 -48.87633,8.11092 z M 794.28571,220.39791 c 0,-1.17109 -1.45675,-0.87974 -1.875,0.375 -0.20625,0.61875 0.13125,0.95625 0.75,0.75 0.61875,-0.20625 1.125,-0.7125 1.125,-1.125 z m -240,128.81207 c 0,-1.42152 1.52836,-7.64202 3.39635,-13.82333 1.868,-6.18131 4.17558,-16.32699 5.12797,-22.54597 1.4823,-9.67922 1.55441,-12.41482 0.50088,-19 -1.48636,-9.29061 -3.09232,-13.42595 -6.00672,-15.46728 -3.55434,-2.48955 -10.92754,0.5206 -21.51848,8.78504 -6.06233,4.73062 -29.4988,28.35539 -29.49958,29.73659 -2.3e-4,0.41091 -1.62778,2.54841 -3.61678,4.75 -3.65065,4.04082 -7.38364,5.2918 -7.38364,2.47436 0,-1.70306 5.28954,-12.59272 8.00085,-16.47148 5.60387,-8.0168 31.8147,-61.43642 37.53544,-76.5 1.25325,-3.3 3.89528,-9.4894 5.87117,-13.75423 1.9759,-4.26482 3.59254,-8.00944 3.59254,-8.32136 0,-1.38893 19.46259,-49.20768 24.7967,-60.92441 3.25507,-7.15 6.94273,-15.8125 8.1948,-19.25 1.40387,-3.85427 2.84801,-6.25 3.76749,-6.25 2.74085,0 0.91498,5.27327 -13.33064,38.5 -2.35807,5.5 -7.42775,18.1 -11.26595,28 -16.90665,43.60789 -24.0835,60.03043 -41.44293,94.83252 -6.53827,13.10788 -11.59494,24.12534 -11.23705,24.48324 0.3579,0.35789 2.26174,-1.36674 4.23076,-3.83252 1.96902,-2.46578 8.40382,-9.25552 14.29956,-15.0883 20.19157,-19.97594 31.91132,-22.12195 37.57715,-6.88077 2.51246,6.75856 3.00457,25.27589 0.98154,36.93355 -2.247,12.9483 -8.52882,31.45203 -10.82143,31.8756 -1.29867,0.23994 -1.75,-0.34324 -1.75,-2.26125 z m 56.72463,-22.40434 c -3.28287,-1.29753 -9.31792,-8.00019 -12.02057,-13.35032 -1.47459,-2.91907 -3.64992,-9.13241 -4.83406,-13.80741 -1.96309,-7.75028 -2.10058,-10.17584 -1.55883,-27.5 0.66078,-21.13029 2.67809,-33.61666 7.61631,-47.14207 2.74392,-7.51539 10.21756,-19.35793 12.21649,-19.35793 1.25688,0 1.10088,0.5833 -1.56083,5.83594 -8.35888,16.49545 -13.195,38.68171 -13.49949,61.93052 -0.30071,22.96016 3.29842,37.42254 11.42328,45.90211 3.73507,3.89814 4.61754,4.33143 8.82165,4.33143 5.10995,0 6.14659,1.48864 2.10632,3.02475 -2.91747,1.10922 -6.1167,1.15806 -8.71027,0.13298 z m 14.3576,-48.0755 c -3.91942,-3.91942 -3.49056,-21.7692 0.82437,-34.31074 2.42383,-7.045 11.92962,-26.02302 18.87474,-37.68284 6.75255,-11.33653 15.08481,-20.73773 17.54357,-19.79421 2.26546,0.86933 2.12217,3.42889 -0.23381,4.17665 -5.76753,1.83054 -26.50011,38.55023 -31.48316,55.76014 -1.31681,4.54782 -2.71221,11.67152 -3.1009,15.83043 -0.62297,6.66555 -0.45832,7.96912 1.38938,11 1.15286,1.89109 2.09779,4.22584 2.09984,5.18834 0.005,2.36636 -3.47872,2.26754 -5.91403,-0.16777 z m 29.91777,-12.76145 c 0,-0.92357 2.8796,-7.34536 6.39912,-14.27066 3.51951,-6.92529 7.78823,-16.18214 9.48603,-20.57078 3.91723,-10.12558 10.14951,-20.86233 12.35651,-21.28736 1.55219,-0.29893 1.64873,0.78393 1.11363,12.49036 -0.53211,11.64073 -0.38526,13.32267 1.59924,18.31766 7.15997,18.02164 25.54561,19.28233 42.3852,2.90632 6.25085,-6.07877 6.81532,-8.37704 2.07617,-8.45315 -1.60375,-0.0258 -3.70062,-0.49209 -4.65973,-1.0363 -1.59315,-0.90397 -1.60985,-1.18075 -0.1933,-3.20317 1.83718,-2.62294 5.98557,-2.91872 9.21462,-0.657 2.84707,1.99417 2.80203,2.71498 -0.62188,9.95239 -3.37807,7.1405 -8.28763,11.72185 -16.86094,15.73379 -8.21638,3.84491 -12.6837,4.36736 -19.75829,2.31072 -11.62821,-3.38041 -19.25889,-14.88827 -18.33564,-27.65206 0.23478,-3.24585 0.0519,-5.90154 -0.40651,-5.90154 -0.45836,0 -2.73138,4.1625 -5.05115,9.25 -2.31977,5.0875 -5.93092,12.4 -8.02478,16.25 -2.09385,3.85 -4.90638,9.3625 -6.25005,12.25 -2.41425,5.18816 -4.46825,6.8296 -4.46825,3.57078 z m 64,-24.76176 c 0,-0.79254 0.45,-1.7191 1,-2.05902 0.55,-0.33992 1,0.30852 1,1.44098 0,1.13246 -0.45,2.05902 -1,2.05902 -0.55,0 -1,-0.64844 -1,-1.44098 z M 614.45692,200.02609 c 0.26253,-2.29815 0.88413,-2.94206 3.08448,-3.19515 1.83793,-0.21141 2.96453,0.22727 3.38278,1.31722 0.77941,2.03111 -0.32072,3.15617 -3.96726,4.05717 -2.6564,0.65635 -2.80876,0.52355 -2.5,-2.17924 z m 435.57878,-30.06751 c -2.7049,-0.70687 -2.2377,-4.31067 0.5589,-4.31067 2.969,0 6.2063,2.35733 5.2849,3.8483 -0.7162,1.15883 -2.6064,1.30838 -5.8438,0.46237 z"
       id="path2996"
       style="fill:#000000" />
  </g>
</svg>
