<?xml version="1.0" encoding="UTF-8"?>
<svg version="1.0" xmlns="http://www.w3.org/2000/svg" width="196" height="68" >
<path d="M20.265,10.797c-2.951-1.331-5.932,0.968-7.701,3.124c-4.458,5.435-6.655,14.522-5.046,21.4 c0.845,3.612,3.895,7.68,8.075,6.955c6.753-1.17,10.131-9.482,12.223-15.067c2.267-6.051,6.477-17.733,2.246-23.956 c-2.307-3.393-7.129-1.595-9.988-0.131C11.246,7.643,6.504,15.533,3.763,24.696c-1.818,6.08-3.587,14.983,0.801,20.437 c7.045,8.753,22.268,2.447,30.325-0.876c0.617-0.254,0.347-1.271-0.279-1.013c-7.499,3.093-17.963,7.515-26.019,3.836 c-5.311-2.426-5.895-8.921-5.456-14.008C4.039,22.586,8.586,12.579,17.081,6.256c5.014-3.731,12.821-6.67,13.431,2.281 c0.385,5.642-1.506,11.631-3.203,16.932c-1.667,5.209-4.197,11.104-8.74,14.464c-7.523,5.565-10.863-5.552-10.44-11.053 c0.316-4.119,4.553-20.358,11.606-17.177C20.347,11.979,20.881,11.075,20.265,10.797L20.265,10.797z"/>
<path d="M35.871,29.379c-1.405-1.659-3.771-1.37-5.438-0.339c-2.269,1.402-3.953,4.082-5.074,6.421 c-0.586,1.223-1.157,2.947-0.304,4.183c1.639,2.375,5.432-0.336,6.542-1.873c0.851-1.177,1.309-2.603,2.052-3.86 c0.768-1.299,1.535-2.598,2.302-3.896c0.346-0.584-0.563-1.112-0.906-0.53c-1.068,1.807-2.135,3.613-3.203,5.42 c-0.659,1.116-0.886,2.16-1.87,3.115c-0.848,0.823-2.219,1.611-3.446,1.386c-3.378-0.619,3.196-8.532,4.143-9.257 c1.284-0.984,3.284-1.414,4.458-0.027C35.567,30.639,36.306,29.892,35.871,29.379z"/>
<path d="M31.744,35.11c-0.426,1.414-1.516,6.689,1.597,5.94c6.942-1.67,12.196-11.57,14.667-17.557 c0.342-0.829,4.927-12.137,1.431-11.985c-1.716,0.074-3.091,2.109-3.979,3.328c-3.382,4.638-6.376,9.748-7.882,15.324 c-1.109,4.107-0.064,9.262,5.169,7.915c7.208-1.855,9.019-11.717,11.072-17.599c0.733-2.102,3.311-6.765,2.512-9.13 c-0.218-0.646-0.834-0.579-1.218-0.121c-2.761,3.292-3.912,9.044-4.994,13.042c-1.769,6.539-4.709,20.083,4.492,22.49 c0.656,0.171,0.934-0.841,0.279-1.013c-9.869-2.582-4.46-19.471-2.366-25.851c0.603-1.838,1.292-3.65,2.061-5.425 c0.24-0.554,0.502-1.098,0.775-1.636c0.63-1.244-0.019-0.482-0.053-1.205c0.153,3.185-2.049,7.276-3.078,10.225 c-1.342,3.846-2.891,7.629-4.565,11.341c-0.929,2.059-3.718,3.489-5.832,4.033c-4.716,1.213-3.598-5.468-2.952-7.857 c1.271-4.708,4.083-9.107,6.82-13.088c0.852-1.238,1.837-2.537,3.047-3.463c1.361-1.042,0.609,3.175,0.581,3.323 c-1.204,6.225-4.47,12.416-8.327,17.386c-0.978,1.259-8.491,8.789-8.782,5.213c-0.089-1.104,0.22-2.296,0.539-3.351 C32.952,34.74,31.939,34.464,31.744,35.11L31.744,35.11z"/>
<path d="M46.765,25.953c1.524-0.845,7.623-3.955,7.96-0.703c0.069,0.667,1.12,0.673,1.05,0c-0.486-4.695-7.213-1.493-9.54-0.203 C45.643,25.375,46.172,26.282,46.765,25.953L46.765,25.953z"/>
<path d="M52.871,33.621c0.734-0.844,4.914-5.386,5.354-1.871c0.168,1.341-0.217,3.902,0.947,4.964 c0.998,0.91,2.269,0.498,3.426,0.112c1.769-0.59,3.57-1.901,5.493-1.028c2.71,1.23,0.129,5.314-0.962,6.581 c-0.439,0.51,0.3,1.256,0.742,0.742c1.505-1.747,3.613-5.272,1.602-7.48c-2.595-2.849-5.913,0.328-8.862,0.589 c-2.576,0.229,0.187-7.332-3.096-7.111c-2.173,0.146-4.044,2.214-5.386,3.759C51.687,33.387,52.426,34.133,52.871,33.621 L52.871,33.621z"/>
<path d="M79.203,24.265c1.37-2.434,2.883-4.785,4.481-7.074c1.477-2.116,3.143-4.307,5.331-5.738 c0.881-0.257,1.763-0.515,2.645-0.772c2.5,2.24,2.712,4.508,0.637,6.804c-0.101,0.181-0.189,0.375-0.282,0.559 c-1.599,3.161-3.27,6.286-4.999,9.378c-1.059,1.895-2.171,3.758-3.338,5.588c-0.581,0.911-1.208,1.79-1.878,2.637 c-1.021,1.291,0.128,0.337-0.079,1.009c0.973-3.148,3.488-6.251,5.247-8.982c2.753-4.278,5.698-8.456,8.948-12.372 c1.89-2.277,9.061-8.731,7.657-1.586c-1.16,5.903-5.606,11.081-8.855,15.93c-0.306,0.456-5.128,9.21-0.662,6.901 c8.471-4.38,12.601-15.267,17.721-22.613c1.009-1.446,4.035-4.961,4.41-1.259c0.159,1.565-0.206,3.182-0.583,4.688 c-0.886,3.531-3.13,6.728-4.537,10.069c-2.423,5.753-6.81,15.926-1.188,21.188c0.493,0.462,1.237-0.279,0.742-0.742 c-6.43-6.019,1.03-19.769,4.179-25.854c1.634-3.158,3.603-7.951,1.904-11.461c-1.81-3.74-6.843,4.317-7.385,5.156 c-3.223,4.984-5.912,10.027-9.785,14.586c-1.182,1.392-2.482,2.674-3.854,3.876c-1.926,1.688-3.266,1.988-1.879-0.918 c3.363-7.047,10.849-13.184,11.055-21.523c0.092-3.728-3.604-2.665-5.563-1.291c-5.54,3.884-9.615,11.157-13.233,16.696 c-0.747,1.143-6.644,8.728-5.253,10.19c0.118,0.124,0.345,0.2,0.511,0.135c3.161-1.238,5.653-7.815,7.157-10.506 c1.807-3.233,6.491-9.52,6.53-13.433c0.042-4.237-4.318-4.883-7.273-2.479c-4.036,3.282-6.913,8.201-9.435,12.683 C77.964,24.326,78.871,24.855,79.203,24.265L79.203,24.265z"/>
<path d="M105.015,34.297c-3.802-2.076-0.773-5.301,1.467-5.958c1.853-0.543,3.79,0.154,5.401,1.041 c7.419,4.082,11.42,14.716,14.36,22.01c0.151,0.376,0.738,0.581,0.959,0.125c5.756-11.874,12.279-24.43,15.263-37.341 c0.811-3.508,0.078-6.901-3.807-3.912c-8.558,6.583-13.926,17.164-17.415,27.098c-0.226,0.641,0.789,0.914,1.012,0.279 c2.91-8.282,6.894-15.735,12.701-22.273c1.397-1.573,7.597-8.671,6.744-2.759c-1.447,10.029-6.979,20.124-11.127,29.239 c-1.355,2.979-2.739,5.946-4.16,8.895c0.963-1.999-2.953-8.261-4.23-10.639c-1.933-3.599-4.303-7.043-7.316-9.821 c-2.452-2.261-6.225-4.122-9.544-2.654c-3.576,1.582-4.628,5.507-0.838,7.576C105.08,35.528,105.609,34.621,105.015,34.297 L105.015,34.297z"/>
<path d="M138.744,27.86c-0.442,1.076-1.893,4.997,0.146,5.504c1.333,0.332,3.657-0.43,4.48-1.493 c2.183-2.819,0.853,5.357,0.873,5.239c-0.041,0.24,0.025,0.459,0.241,0.593c1.343,0.83,3.435,0.927,4.652-0.233 c1.415-1.347,2.191-4.2,4.746-1.928c0.669,0.595,1.566,3.434,2.489,3.718c1.706,0.525,3.781-0.545,5.055-1.57 c5.651-4.544,8.048-12.68,9.982-19.321c0.396-1.357,4.104-11.018,2.54-12.848c-0.119-0.139-0.341-0.182-0.511-0.135 c-1.807,0.497-2.842,7.983-3.212,9.391c-2.183,8.305-3.934,16.741-5.199,25.234c-1.092,7.329-2.069,15.125-0.721,22.483 c0.692,3.78,4.816,8.848,5.468,2.007c0.063-0.674-0.986-0.668-1.051,0c-0.455,4.789-2.388,1.104-2.814-0.049 c-0.474-1.282-0.694-2.67-0.872-4.018c-0.406-3.08-0.309-6.23-0.146-9.323c0.422-8.044,1.87-16.045,3.504-23.919 c1.216-5.857,2.614-11.694,4.314-17.431c0.234-0.791,0.484-1.578,0.751-2.359c0.482-1.417-0.335-0.584-0.363-1.305 c0.075,1.916-0.747,4.13-1.168,5.969c-1.866,8.135-4.257,19.772-11.516,25.077c-4.817,3.52-3.749-2.415-7.834-3.568 c-0.965-0.272-1.995,0.425-2.533,1.161c-2.956,4.041-4.904,3.321-4.509,1.005c0.15-0.882,0.225-1.76,0.302-2.649 c0.064-0.74,0.154-2.191-0.436-2.829c-0.674-0.729-1.432-0.386-2.111,0.153c-0.616,0.489-4.299,3.465-4.358,0.851 c-0.023-1.024,0.436-2.187,0.821-3.127C140.014,27.513,138.997,27.243,138.744,27.86L138.744,27.86z"/>
<path d="M161.371,29.371c6.059-7.726,16.283-12.503,25.269-15.615c0.636-0.22,0.362-1.235-0.279-1.013 c-9.185,3.181-19.547,7.999-25.731,15.885C160.216,29.155,160.954,29.904,161.371,29.371L161.371,29.371z"/>
<path d="M158.547,15.515c0.333,0.583,0.666,1.167,1,1.75c0.336,0.587,1.243,0.059,0.906-0.53c-0.333-0.583-0.666-1.167-1-1.75 C159.117,14.397,158.21,14.926,158.547,15.515L158.547,15.515z"/>
<path d="M122.121,13.871c1.034-1.334,2.525-3.076,4.269-3.365c0.667-0.111,0.383-1.123-0.279-1.013 c-1.923,0.319-3.592,2.164-4.731,3.635C120.97,13.657,121.707,14.406,122.121,13.871L122.121,13.871z"/>
</svg>