<?xml version="1.0" encoding="UTF-8"?>
<svg version="1.0" xmlns="http://www.w3.org/2000/svg" width="252" height="102" >
<path fill="#231F20" d="M49.659,42.503c-0.572,2.188-2.123,5.753-1.411,7.999c0.102,0.322,0.379,0.547,0.723,0.551 c0.447,0.005,0.762-0.219,1-0.601c1.944-3.127,2.651-1.948,5.251-1.271c2.001,0.521,4.134,0.618,6.185,0.464 c5.847-0.44,9.505-4.416,10.376-10.066c2.922-18.955-16.087-29.107-32.313-28.955c-9.525,0.089-17.778,3.873-24.904,10 C7.976,26.29,1.992,34.887,3.613,43.973c1.45,8.133,10.467,12.1,17.697,13.368c9.301,1.634,19.111,0.629,28.42-0.392 c7.279-0.798,14.52-1.925,21.763-2.99c5.129-0.755,10.54-1.875,15.754-1.534c0.966,0.063,0.96-1.438,0-1.5 c-6.778-0.443-13.927,1.257-20.595,2.244c-10.573,1.565-21.183,3.068-31.879,3.397c-9.778,0.301-22.271-0.209-28.246-9.297 c-7.439-11.314,7.193-25.298,15.774-30.544c17.961-10.979,48.936-2.604,48.109,21.562c-0.278,8.146-7.432,10.992-14.468,9.522 c-1.489-0.312-4.233-2.275-5.593-0.586c-0.651,0.808-0.783,1.017-1.367,1.979c0.224,0.174,0.448,0.348,0.672,0.521 c0.052-0.558,0.134-1.111,0.248-1.659c0.291-1.604,0.699-3.189,1.101-4.769c0.034-0.131,0.067-0.263,0.102-0.395 C51.351,41.965,49.904,41.567,49.659,42.503L49.659,42.503 M80.447,45.195c-1.862-5.582-9.462,0.889-7.367,3.771c2.028,2.79,5.099-1.283,6.427-0.2 c2.358,1.924,6.682-4.277,4.334,1.034c-0.32,0.724,0.565,1.595,1.178,0.909c0.608-0.682,1.243-1.337,1.887-1.985 c0.4-0.396,0.814-0.778,1.243-1.144c1.389-1.229,0.137-0.769,0.924,0.575c0.196,0.334,0.77,0.829,1.215,0.829 c0.553,0,4.839-2.446,4.262-0.501c-0.204,0.685,0.766,1.326,1.253,0.729c1.318-1.614,2.745-3.246,4.492-4.402 c0.591-0.392,0.593,2.634,0.92,3.065c0.435,0.574,0.532,0.744,1.227,0.906c1.391,0.325,4.261-3.717,5.224-2.412 c0.481,0.651,1.136,0.968,1.863,0.39c0.897-0.714,2.461-2.978,2.449-3.18c0.131,2.242-0.57,4.69-1.048,6.866 c-1.296,5.898-2.972,11.723-4.743,17.494c-1.332,4.344-8.991,32.866-16.108,29.057c-3.663-1.96-2.46-8.998-1.854-12.078 c1.069-5.432,3.772-10.448,6.943-14.921c1.762-2.486,7.844-11.974,11.641-12.19c0.962-0.055,0.967-1.556,0-1.5 c-4.124,0.235-8.523,7.246-10.627,9.896c-5.972,7.519-11.688,17.724-9.652,27.711c0.86,4.216,5.137,6.778,8.438,3.503 c4.477-4.443,6.685-11.871,8.819-17.625c1.121-3.02,13.324-36.89,8.844-38.122c-1.311-0.36-2.395,1.88-2.954,2.676 c-1.257,1.788-0.296,0.944-1.578,0.192c-1.127-0.66-2.216,0.111-3.098,0.761c-1.822,1.342-2.093,1.536-2.814-1.089 c-0.155-0.563-0.547-0.924-1.096-1.074c-2.019-0.556-4.646,3.047-5.695,4.241c-0.223,0.254-0.438,0.514-0.652,0.775 c0.418,0.243,0.835,0.486,1.253,0.729c1.933-6.507-5.581-1.459-5.768-2.491c-0.597-3.289-5.668,2.585-6.27,3.258 c0.393,0.303,0.785,0.605,1.178,0.909c0.392-0.887,2.326-4.38,0.346-4.925c-1.866-0.514-4.144,3.215-5.729,1.324 c-0.209-0.25-0.643-0.284-0.909-0.117c-1.226,1.323-2.588,1.323-4.086,0.001c2.314-2.464,3.729-2.88,4.244-1.248 C79.305,46.507,80.754,46.115,80.447,45.195L80.447,45.195 M125.762,49.96c3.211-5.441,6.952-11.537,8.102-17.825c-0.491-0.066-0.982-0.133-1.474-0.199 c-0.127,2.649-0.188,5.301-0.187,7.953c0,1.396-0.524,5.722,0.967,6.711c0.358,0.237,0.718,0.264,1.101,0.04 c3.22-1.886,2.492-0.532,4.337,0.532c2.767,1.599,7.199-1.502,10.116-1.665c5.808-0.324,14.66,0.919,18.939-4.039 c3.839-4.447-2.342-11.711-5.086-14.876C148.275,10.1,126.501,3.244,105.269,4.422c-18.482,1.025-42.038,6.291-54.414,21.301 c-2.082,2.524-4.905,6.639-3.265,10.066c1.861,3.892,7.431,4.694,11.183,5.215c9.612,1.332,19.568,0.639,29.205,0.021 c17.531-1.124,35.005-3.21,52.436-5.348c0.947-0.116,0.959-1.617,0-1.5c-23.375,2.867-47.072,6.103-70.671,5.988 c-4.788-0.023-23.928,0.626-20.666-8.724c2.357-6.758,9.823-11.569,15.696-14.817C75.068,10.929,87.008,8.027,98.6,6.538 c23.668-3.04,47.596,3.447,63.648,21.959c3.942,4.545,8.258,11.952-0.008,14.398c-5.077,1.503-10.39,0.31-15.489,1.289 c-1.121,0.216-2.183,0.712-3.263,1.074c-1.607,0.643-3.253,0.563-4.937-0.243c-0.151-0.291-0.334-1.005-0.734-1.24 c-0.766-0.448-4.122,0.193-3.799,1.315c-1.141-3.948-0.324-9.087-0.129-13.155c0.04-0.838-1.32-1.036-1.474-0.199 c-1.126,6.16-4.794,12.119-7.949,17.466C123.974,50.037,125.271,50.792,125.762,49.96L125.762,49.96 M175.27,49.283c0.358-2.69,0.359-5.396-0.529-7.977c-0.482,0.133-0.965,0.266-1.447,0.398 c3.862,11.088,11.894-4.544,13.578-8.961c1.92-5.037,3.582-13.176,1.767-18.465c-0.923-2.689-2.545,1.677-2.693,2.255 c-1.166,4.551-5.672,26.827,1.827,27.339c5.115,0.35,9.526-9.961,11.051-13.309c1.801-3.955,2.85-8.135,3.613-12.396 c0.225-1.256,0.926-3.562-0.08-4.634c-0.186-0.198-0.474-0.254-0.729-0.192c-1.751,0.416-2.517,4.241-2.967,5.609 c-1.45,4.404-2.023,9.076-2.3,13.687c-0.368,6.147,1.452,12.754,8.031,7.305c-0.427-0.177-0.854-0.354-1.28-0.53 c-0.221,1.893,0.796,4.402,3.147,3.89c1.488-0.324,2.714-0.961,4.081-1.658c0.584-0.298,5.756-2.063,2.468,0.355 c-1.105,1.01-1.744,0.915-1.915-0.284c0.862-0.532,1.786-0.93,2.771-1.192c2.771-0.893,6.986,1.016,7.253,4.273 c0.057,0.696,1.02,1.084,1.397,0.379c0.732-1.365,3.97-7.074,5.399-2.274c0.217,0.727,1.221,0.704,1.447,0 c0.697-2.171,1.801-1.955,3.499-1.044c1.18,0.634,2.883,0.459,4.147,0.394c2.269-0.117,4.537-0.558,6.789-0.827 c0.831-0.1,1.659-0.141,2.495-0.153c2.859-0.046-0.313,2.77-1.906,2.503c-0.945-0.157-1.352,1.288-0.398,1.447 c5.188,0.866,7.852-5.539,1.539-5.438c-2.197,0.035-4.436,0.503-6.61,0.78c-2.975,0.378-4.355,0.15-6.861-1.317 c-2.191-1.284-3.605,1.594-4.141,3.258c0.482,0,0.965,0,1.447,0c-1.876-6.296-6.141-1.816-8.142,1.915 c0.466,0.127,0.932,0.253,1.397,0.379c-0.387-4.732-4.691-6.599-9.152-5.72c-0.846,0.166-7.871,4.069-4.258,4.961 c2.749,0.678,7.074-0.971,5.857-4.371c-1.289-3.602-10.94,5.647-10.253-0.254c0.084-0.722-0.842-0.894-1.28-0.53 c-7.492,6.205-5.259-9.594-4.765-13.028c0.317-2.209,0.893-4.371,1.54-6.504c0.331-1.092,0.736-2.166,1.185-3.215 c0.516-1.211,0.036-1.598-0.034-0.347c-0.407,7.169-3.441,14.48-7.171,20.5c-1.387,2.237-3.355,5.004-5.919,6.004 c-2.843,1.108-2.635-6.182-2.657-7.612c-0.074-4.881,0.466-9.819,1.255-14.629c0.236-1.438,0.534-2.867,0.939-4.268 c0.157-0.543-0.48-1.556-0.28-0.054c0.16,1.199,0.129,2.438,0.139,3.644c0.054,6.63-1.546,13.113-4.963,18.799 c-1.615,2.688-5.799,9.049-7.858,3.134c-0.316-0.907-1.764-0.519-1.447,0.398c0.845,2.45,0.815,5.034,0.477,7.578 C173.642,50.24,175.144,50.228,175.27,49.283L175.27,49.283 M162.956,22.597c0.795,0.931,2.099,1.389,3.288,1.416c0.968,0.022,0.966-1.478,0-1.5 c-0.826-0.02-1.683-0.339-2.228-0.977C163.386,20.8,162.331,21.866,162.956,22.597L162.956,22.597z M207.245,25.405c0.586,0.398,1.171,0.798,1.756,1.196c0.802,0.547,1.552-0.754,0.758-1.295 c-0.586-0.398-1.171-0.798-1.756-1.196C207.201,23.563,206.451,24.864,207.245,25.405L207.245,25.405z"/>
</svg>