<?xml version="1.0" encoding="UTF-8" standalone="no"?>
<!-- Created with Inkscape (http://www.inkscape.org/) -->
<svg
   xmlns:svg="http://www.w3.org/2000/svg"
   xmlns="http://www.w3.org/2000/svg"
   version="1.0"
   width="581"
   height="200"
   id="svg2">
  <defs
     id="defs5" />
  <path
     d="M 66.666667,175.33364 C 64.71856,173.38554 67.771609,167.00031 70.651188,167.00031 C 70.996768,167.00031 71.779124,166.36541 72.389757,165.58943 C 73.000391,164.81345 77.1,162.27204 81.5,159.94187 C 85.9,157.6117 90.175,155.20909 91,154.60275 C 92.562746,153.45419 93.595542,152.84648 103.5,147.2475 C 106.8,145.38202 109.87177,143.49398 110.32615,143.05186 C 111.08197,142.31644 109.76642,120.55021 108.33624,110.12813 L 107.73627,105.75594 L 102.61813,106.35378 C 99.80316,106.68259 96.416027,106.6664 95.09117,106.3178 C 93.072872,105.78674 93.883496,105.24412 100.09117,102.97089 L 107.5,100.25781 L 108.17765,95.879061 C 109.32285,88.47911 110.17692,86.00031 111.58139,86.00031 C 112.32292,86.00031 113.4398,86.95356 114.06333,88.118643 C 114.95842,89.791142 114.82766,91.056075 113.44204,94.128838 C 111.44106,98.566229 112.00442,99.836928 115.25151,98.210218 C 119.95968,95.85154 128.98862,94.202372 154.87096,90.973577 C 163.46693,89.901239 173.56708,89.01857 177.31574,89.012091 C 185.58456,88.997798 187.0167,88.297002 191.16473,82.235316 C 192.94683,79.631063 194.97184,76.922627 195.66476,76.216569 C 198.70351,73.12022 199.24914,65.338612 196.92286,58.27388 C 195.1488,52.886212 181.97525,43.00031 176.56992,43.00031 C 175.77138,43.00031 174.86132,42.584931 174.54755,42.077247 C 174.23378,41.569562 172.5345,40.837342 170.77136,40.450091 C 169.00822,40.062841 166.87588,39.385562 166.03282,38.945028 C 163.16568,37.446813 147.51009,35.990902 139.9916,36.523292 C 100.43449,39.324366 75.540517,46.411866 50.620251,61.967988 C 38.990354,69.227786 29.009145,78.362362 25.098526,85.324892 C 23.686094,87.83961 23,90.830078 23,94.471709 C 23,100.96383 21.484744,102.40471 19.54347,97.758592 C 17.825687,93.647358 18.449414,86.457772 20.813599,83.118041 C 21.74112,81.807794 23.04229,79.782794 23.70509,78.618041 C 27.031808,72.771922 45.436017,57.382235 52.734835,54.343229 C 54.805676,53.480994 56.763241,52.357201 57.084979,51.845912 C 58.418781,49.726306 86.783632,39.347055 98.565906,36.667234 C 124.13184,30.852386 159.96202,30.55291 170.23643,36.068196 C 171.19147,36.580859 172.67866,37.00031 173.5413,37.00031 C 176.92645,37.00031 186.81743,42.358029 192.89233,47.48233 C 197.34888,51.241511 203,61.022766 203,64.977207 C 203,68.762617 200.46441,77.547121 198.73583,79.75031 C 198.19644,80.43781 198.10407,81.00031 198.53056,81.00031 C 198.95706,81.00031 198.33717,81.840593 197.15301,82.867605 C 195.96885,83.894618 195,85.244618 195,85.867605 C 195,86.694921 207.49735,87.00031 241.35331,87.00031 C 266.84763,87.00031 290.36659,87.278332 293.61767,87.618137 C 299.37003,88.219378 299.64913,88.134614 304.01436,84.46052 C 309.52714,79.820557 316.96823,75.00031 318.61823,75.00031 C 320.35349,75.00031 322.2762,81.466315 321.539,84.822755 L 320.92061,87.638275 L 337.2103,88.869652 C 354.26167,90.158605 383.36003,91.916204 388.5,91.96765 C 391.14655,91.99414 391.7602,91.410572 393.70849,87.014451 C 395.31947,83.379464 396.33405,82.191266 397.45849,82.622756 C 398.30632,82.948098 399,83.841143 399,84.607299 C 399,85.373455 399.50888,86.00031 400.13084,86.00031 C 400.85371,86.00031 401.06677,87.201424 400.72142,89.329576 L 400.18115,92.658842 L 413.84058,93.87835 C 426.64246,95.021296 433.64624,95.879799 472.25,101.038 C 501.4898,104.945 516.0413,108.11437 537.5,115.24968 C 545.9538,118.06069 555.8797,122.46619 557,123.90455 C 557.275,124.25763 558.75898,125.34806 560.29774,126.32774 C 564.50827,129.00846 566.99196,133.79137 566.99626,139.22726 C 566.99935,143.13747 566.5783,144.23052 564.55932,145.5534 C 558.52693,149.50597 524.43734,152.00031 476.4507,152.00031 C 452.15174,152.00031 447.4367,151.76038 444.78463,150.38894 C 441.26026,148.56642 438.5452,148.76875 424,151.93786 C 406.66306,155.71523 404.07469,156.09876 397.94607,155.79839 C 392.36438,155.52483 391.72564,155.2535 390.18201,152.50031 C 389.2569,150.85031 388.40261,149.32792 388.28359,149.11723 C 388.16456,148.90653 386.52078,150.03153 384.63075,151.61723 C 374.34413,160.24746 372.31398,160.86583 370.16986,156.02193 C 368.57214,152.41242 368.99638,150.88985 374.61258,140.07744 C 377.01884,135.44486 378.83763,131.50461 378.65433,131.32131 C 377.91713,130.58411 375.25357,134.8969 372.05905,142.00031 C 364.06716,159.7712 363.33095,161.00031 360.67842,161.00031 C 359.0498,161.00031 358,158.93086 358,155.72038 C 358,154.55639 360.27847,149.59667 363.06327,144.69877 C 365.84807,139.80088 367.97529,135.64227 367.79044,135.45741 C 367.60558,135.27256 364.88664,137.56909 361.74834,140.56081 C 358.61004,143.55254 355.756,146.00031 355.40604,146.00031 C 355.05607,146.00031 353.35905,147.49525 351.63487,149.32241 C 349.91069,151.14956 345.575,154.84636 342,157.53753 C 338.425,160.22869 335.05,162.97871 334.5,163.64867 C 332.89213,165.60725 323.90098,170.00031 321.50028,170.00031 C 316.96824,170.00031 313.31526,167.90596 311.16063,164.07233 C 308.1192,158.66083 308.42122,156.30019 312.65065,152.42618 C 315.62856,149.69853 333.38069,140.00031 335.39563,140.00031 C 335.89167,140.00031 338.15988,139.01643 351.5,133.01474 C 353.7,132.02496 357.20527,130.61998 359.28949,129.89256 C 363.76435,128.33077 367.03625,125.30801 376.59903,113.90107 C 384.18228,104.8554 386.39961,101.45591 385.58069,100.13087 C 385.2992,99.675407 379.09089,99.029683 371.78444,98.695924 C 364.478,98.362165 348.92923,97.595241 337.23162,96.991649 C 318.77241,96.039161 315.76755,96.089904 314.48162,97.375831 C 313.66673,98.190723 313,99.175494 313,99.564211 C 313,99.952928 311.78313,101.39872 310.29585,102.77709 C 308.80857,104.15546 306.49694,107.35706 305.15889,109.89176 C 302.90963,114.1526 301.17077,116.26499 292.25,125.57366 C 290.4625,127.43888 289,129.42293 289,129.98264 C 289,130.54236 288.61523,131.00031 288.14495,131.00031 C 287.67467,131.00031 284.18717,133.97518 280.39495,137.61113 C 276.60273,141.24708 271.8125,145.30273 269.75,146.62368 C 266.67983,148.59 266.00112,149.61231 266.00616,152.26285 C 266.00955,154.04346 266.66508,156.75173 267.46291,158.28124 C 269.01985,161.26607 268.57292,164.00031 266.52809,164.00031 C 265.83623,164.00031 264.15915,161.86281 262.80124,159.25031 C 260.2117,154.26827 258.25976,153.60943 254.92126,156.59056 C 252.72522,158.55153 244.78754,158.35629 241.08736,156.25031 C 239.39627,155.28781 238.0098,154.14382 238.00632,153.7081 C 238.00285,153.27239 237.4375,152.31095 236.75,151.57157 C 235.70976,150.45283 234.7085,150.62772 230.78324,152.61378 C 225.40249,155.33627 217.99874,155.76996 213.8506,153.60565 C 212.21503,152.75228 209.52072,152.41272 206.80964,152.7183 C 202.80837,153.1693 202.31062,152.97746 201.20904,150.55975 C 199.54005,146.89672 199.68631,146.00031 201.95295,146.00031 C 205.55746,146.00031 208.88821,143.78579 209.50458,140.97944 C 210.81179,135.02775 221,126.55269 221,131.41698 C 221,132.19614 221.55171,133.01755 222.22602,133.24232 C 224.15428,133.88507 223.22769,140.15253 220.97068,141.7334 C 219.8868,142.49258 219,143.7632 219,144.55701 C 219,145.35083 218.55,146.00031 218,146.00031 C 217.45,146.00031 217,146.50656 217,147.12531 C 217,148.66133 221.38351,147.68998 228.34475,144.61139 C 233.05033,142.53036 234,141.68921 234,139.60239 C 234,138.22301 234.41886,136.06074 234.93079,134.79736 C 235.44273,133.53398 236.10374,131.37531 236.3997,130.00031 C 237.18422,126.35552 243.64781,117.01449 250.2332,110.00844 C 256.01241,103.86007 264.27142,97.00031 265.89471,97.00031 C 266.37728,97.00031 267.5113,98.558027 268.41475,100.4619 C 269.93929,103.67463 269.83217,107.598 268.14067,110.50031 C 267.82013,111.05031 267.43843,112.26641 267.29246,113.20276 C 266.96663,115.29286 261.75734,125.02836 259.29992,128.13979 C 258.30997,129.39321 255.5875,132.37054 253.25,134.75608 C 250.9125,137.14162 249,139.52248 249,140.04687 C 249,140.57126 248.1,141.00031 247,141.00031 C 245.9,141.00031 245,141.65948 245,142.46513 C 245,143.27078 244.1,144.41161 243,145.00031 C 240.02503,146.59247 240.44718,149.82346 243.73809,150.64942 C 245.81717,151.17124 248.04349,150.50167 252.98809,147.86747 C 258.4923,144.93514 259.54937,143.94195 259.81901,141.4493 C 260.9532,130.96479 267.13151,120.97562 282.36272,105.00031 C 285.77121,101.42531 289.19135,97.679952 289.96303,96.677292 C 291.31723,94.91776 289.57206,94.865522 239.85121,95.177292 L 188.33633,95.50031 L 182.9216,100.88748 C 179.9435,103.85043 175.93033,107.4402 174.00344,108.86476 C 172.07655,110.28932 169.19382,112.68622 167.59737,114.19121 C 165.086,116.5587 164.87691,117.14707 166.04622,118.556 C 167.51081,120.32073 168.00733,130.32133 166.69563,131.63612 C 165.69739,132.63671 164.13634,130.3757 163.35827,126.80234 C 162.77979,124.14562 162.73052,124.13014 160.13541,125.78938 C 158.68593,126.71613 156.99264,127.93021 156.37253,128.48734 C 155.75242,129.04448 154.23478,130.17531 153,131.00031 C 148.74173,133.8454 143,140.68715 143,142.91613 C 143,143.591 142.30357,144.8396 141.45238,145.69079 C 140.60119,146.54198 140.18129,147.51494 140.51928,147.85292 C 141.35437,148.68801 147.68352,141.36157 150.05195,136.81816 C 151.10766,134.79298 152.4758,132.82428 153.09226,132.44329 C 154.71438,131.44077 158.78585,136.24862 159.17116,139.62164 C 159.49613,142.46647 159.58523,142.41385 166.75,135.14535 C 170.7375,131.10013 174,127.18918 174,126.45437 C 174,125.71956 174.45345,124.8381 175.00767,124.49557 C 176.13304,123.80005 179,126.26558 179,127.92888 C 179,128.51817 179.45,129.00031 180,129.00031 C 180.55,129.00031 181,130.11885 181,131.48596 C 181,135.1471 178.72892,143.00031 177.67015,143.00031 C 177.16688,143.00031 177.29895,143.6556 177.96365,144.45651 C 178.62834,145.25741 178.83142,146.46406 178.41494,147.13794 C 177.99846,147.81182 179.36386,147.06183 181.44916,145.47129 C 185.61045,142.29732 189.30375,137.02428 190.35907,132.75031 C 191.1692,129.4694 192.26658,129.2967 194.82878,132.0469 C 196.38985,133.72252 196.72601,135.56077 196.68334,142.18838 C 196.63772,149.27295 196.89662,150.49818 198.75771,152.0052 C 200.19578,153.16968 200.70332,154.41882 200.32547,155.86372 C 200.01817,157.03884 199.56464,158.00031 199.31763,158.00031 C 197.51455,158.00031 194.68712,155.30735 192.98294,151.96687 C 190.70712,147.50589 189.98996,147.18548 188.30825,149.87833 C 186.63598,152.55607 178.4896,156.29048 176.02616,155.50861 C 172.43183,154.36782 170.25816,147.08169 172.08147,142.28602 C 172.61851,140.8735 172.57793,140.00031 171.97525,140.00031 C 171.43886,140.00031 171,140.42018 171,140.93336 C 171,141.44654 168.96356,143.53512 166.47457,145.57466 C 160.74816,150.26702 155.31502,151.10361 154.3942,147.43479 C 153.81514,145.12764 153.58196,145.24663 148.35287,150.51766 C 142.23095,156.68869 138.03745,157.80733 135.91221,153.83627 C 134.43922,151.08396 135.29772,142.25905 137.44181,138.11283 C 138.32706,136.40094 138.78522,135.00031 138.45994,135.00031 C 137.61952,135.00031 133.59695,137.1736 133,137.95017 C 132.40847,138.7197 124.07048,143.72121 118.75,146.49799 L 115,148.45512 L 115,155.22771 C 115,161.41694 114.82113,162.00031 112.92338,162.00031 C 111.2107,162.00031 110.87795,161.43074 111.0247,158.75031 C 111.46611,150.68788 111.16026,150.55695 103.43255,155.50031 C 100.42329,157.42531 97.78157,159.00031 97.562064,159.00031 C 96.944319,159.00031 77.745851,170.42139 73.403094,173.37237 C 69.459706,176.05197 67.852828,176.5198 66.666667,175.33364 z M 323.84887,161.31544 C 325.85699,160.38877 328.8999,158.47627 330.6109,157.06544 C 332.32189,155.65462 335.47189,153.07289 337.6109,151.32827 C 339.7499,149.58365 342.85,146.99253 344.5,145.57022 L 347.5,142.98422 L 344.8411,143.93288 C 335.69615,147.19567 317.87359,157.98485 321.59501,158.00528 C 322.09276,158.00801 321.15,159.11683 319.5,160.46931 C 317.06676,162.46382 316.84929,162.93518 318.34887,162.96435 C 319.36575,162.98413 321.84075,162.24212 323.84887,161.31544 z M 410.5,147.03257 C 416,145.95364 424.74325,144.155 429.92945,143.03559 C 441.45694,140.54746 443.91342,140.50265 445.56687,142.75031 C 446.74679,144.35428 449.21766,144.48303 475.17711,144.29326 C 523.08451,143.94304 557.94162,141.45869 561.24105,138.15926 C 562.62843,136.77188 557.40388,131.36809 551.70279,128.29381 C 548.84126,126.75074 543.125,124.4784 539,123.24417 C 528.18512,120.00827 502.10351,113.23497 498,112.59662 C 496.075,112.29717 487.075,110.92476 478,109.54682 C 468.925,108.16889 457.225,106.37521 452,105.56087 C 437.91986,103.36642 427.07011,102.12943 412.05011,101.00616 C 394.49563,99.693349 395.54394,99.592335 393.94955,102.75031 C 391.75901,107.0891 386.79916,114.34549 384.81281,116.11761 C 383.81576,117.00712 383,118.20712 383,118.78427 C 383,119.36143 382.4375,120.06062 381.75,120.33803 C 381.0625,120.61544 381.9625,120.87794 383.75,120.92136 C 385.93713,120.97449 387,121.49086 387,122.50031 C 387,123.32531 387.45,124.00031 388,124.00031 C 390.14131,124.00031 388.81935,129.57693 384.94956,136.86843 L 380.89912,144.50031 L 389.22045,136.25031 C 393.79718,131.71281 397.86988,128.00031 398.27089,128.00031 C 398.6719,128.00031 399,128.67531 399,129.50031 C 399,130.32531 399.47656,131.00031 400.05902,131.00031 C 400.64148,131.00031 400.83992,131.45031 400.5,132.00031 C 400.16008,132.55031 400.35852,133.00031 400.94098,133.00031 C 402.65037,133.00031 402.16064,135.50907 399.95475,138.05249 C 396.51846,142.01456 393.82482,146.90784 394.48873,147.98207 C 395.40634,149.4668 399.25445,149.2386 410.5,147.03257 z M 124.5,135.01167 C 128.9,132.28085 135.65,128.15712 139.5,125.84783 C 143.35,123.53854 147.625,120.65345 149,119.43652 C 150.375,118.21959 156.66248,113.531 162.97217,109.01743 C 169.28186,104.50386 175.09179,99.886578 175.88311,98.756802 C 177.31456,96.713124 177.27143,96.706284 167.41094,97.413367 C 157.91223,98.094507 141.72788,100.28493 122.5,103.4917 C 117.55,104.31725 113.22258,104.99441 112.88352,104.9965 C 112.54446,104.9986 112.44139,108.26281 112.65448,112.25031 C 113.20279,122.51034 115.275,140.00254 115.94049,139.98855 C 116.24822,139.98209 120.1,137.74249 124.5,135.01167 z M 279.65271,126.94315 C 292.91257,114.11812 301.2712,104.93431 303.45614,100.78979 C 305.64678,96.634458 304.9711,94.8115 302.17739,97.339774 C 301.16821,98.253069 300.0614,99.00031 299.71782,99.00031 C 299.1098,99.00031 294.96583,103.12033 286.20562,112.43441 C 283.84371,114.94566 281.27033,117.00031 280.487,117.00031 C 279.70367,117.00031 279.27148,117.56281 279.52657,118.25031 C 279.78165,118.93781 277.96753,121.69095 275.49518,124.3684 C 273.02283,127.04585 271,129.87419 271,130.65359 C 271,131.43299 270.22015,133.26088 269.26699,134.71558 C 266.44833,139.0174 269.63396,136.63335 279.65271,126.94315 z M 254.14868,122.30066 C 255.05546,121.15305 256.13287,119.15703 256.54293,117.86505 C 257.23819,115.67447 257.1607,115.61657 255.39425,117.00683 C 252.33513,119.41445 249.00254,123.40758 249.00122,124.66698 C 249.00055,125.30864 248.64625,125.98364 248.21388,126.16698 C 247.14327,126.62094 242.99475,132.60342 243.02157,133.65468 C 243.04232,134.46798 250.74537,126.60784 254.14868,122.30066 z"
     id="path2384"
     style="fill:#000000" />
</svg>
