<?xml version="1.0" encoding="UTF-8"?>
<svg version="1.1" xmlns="http://www.w3.org/2000/svg" width="254" height="61" >
<path d="M37.465,19.715c-6.169,7.897-14.393,14.56-23.323,19.03c-1.009,0.505-0.123,2.015,0.883,1.511 c9.042-4.526,17.433-11.309,23.677-19.303C39.388,20.074,38.159,18.826,37.465,19.715L37.465,19.715z"/>
<path d="M4.838,31.108c3.795-5.262,15.744-5.966,21.569-6.25c5.184-0.252,11.955-0.119,16.237,3.254 c5.398,4.253-5.995,12.06-8.923,14.119c-3.431,2.413-22.818,14.384-25.628,6.87c-1.875-5.016,15.254-10.265,17.969-11.205 c6.518-2.256,13.264-4.16,20.056-5.387c1.827-0.33,3.67-0.573,5.5-0.89c1.247-0.216,2.489-0.458,3.744-0.618 c-0.148-0.279-0.297-0.559-0.446-0.837c-0.674,0.398-1.361,0.774-2.06,1.128c-4.356,2.309-9.714,4.311-13.011,8.158 c-0.704,0.821-1.035,2.408,0.135,3.04c2.022,1.093,4.23-0.012,6.167-0.853c2.127-0.924,13.815-6.239,12.475-9.715 c-0.148-0.385-0.421-0.619-0.844-0.643c-3.119-0.172-14.262,9.931-9.311,11.293c3.415,0.939,8.298-2.531,10.98-4.11 c3.192-1.879,6.273-3.993,9.241-6.208c0.887-0.661,0.051-2.167-0.883-1.511c-1.833,1.288-9.64,5.865-7.981,8.697 c2.541,4.338,13.871-5.889,15.374-7.656c0.722-0.849-0.424-2.042-1.237-1.237c-1.237,1.224-4.462,4.565-1.914,6.058 c3.285,1.924,12.046-0.904,14.974-2.684c0.818-0.497,0.274-1.979-0.674-1.599c-1.508,0.605-7.931,2.581-7.279,4.949 c1.239,4.506,10.501-3.643,12.56-1.486c0.284-0.487,0.567-0.975,0.851-1.462c-1.78-0.366-6.071-0.536-5.748,2.423 c0.309,2.828,5.781-0.932,6.491-1.361c5.735-3.465,10.953-7.817,15.63-12.593c3.974-4.058,9.413-9.18,11.332-14.698 c0.587-1.687,0.678-4.666-1.911-4.4c-3.117,0.32-6.192,4.337-8.111,6.395c-9.569,10.26-17.924,22.683-23.67,35.47 c0.543,0.147,1.087,0.294,1.63,0.441c0.324-10.86-2.433-22.664-8.953-31.441c-0.386-0.52-1.479-0.635-1.599,0.209 c-0.934,6.547,27.556,3.884,29.585,3.767c24.657-1.417,49.165-5.251,73.564-8.906c9.462-1.417,18.928-2.834,28.354-4.472 c2.219-0.385,6.625-0.391,8.449-2c1.9-1.676-2.775-1.701-3.204-1.69c-4.749,0.125-9.498,0.563-14.231,0.935 c-17.864,1.403-36.659,1.583-54.073,5.929c-10.533,2.629-18.172,7.916-16.615,19.429c0.276,2.042,0.687,4.06,0.898,6.111 c0.564,5.46-3.187,8.044-7.966,9.299c-5.121,1.343-13.397,1.864-18.314-0.75c-2.996-1.593,0.974-4.487,2.421-5.539 c6.701-4.866,15.041-7.755,22.669-10.727c3.066-1.194,6.149-2.354,9.276-3.381c0.758-0.249,1.523-0.468,2.299-0.656 c1.096-0.266,0.191-1.206-0.077-0.965c-1.841,1.648-4.467,2.742-6.643,3.867c-2.594,1.342-5.397,2.382-7.72,4.192 c-2.543,1.981-0.724,3.279,1.903,2.799c4.426-0.808,8.744-2.451,12.995-3.883c2.966-0.999,7.893-3.867,11.071-3.651 c-0.281-0.369-0.563-0.738-0.844-1.107c0.244-1.286-11.545,5.069-7.976,6.059c4.647,1.288,11.485-1.823,15.92-3.084 c-0.225-0.533-0.449-1.066-0.674-1.599c-1.151,0.641-5.551,2.595-5.032,4.479c0.438,1.594,4.751,1.4,5.934,1.615 c4.191,0.763,9.117,1.899,12.196,5.034c5.326,5.422-8.576,12.731-12.176,14.239c-4.746,1.988-12.5,4.088-16.882,0.293 c-4.841-4.192,2.423-10.279,5.515-12.584c6.331-4.72,13.915-8.205,21.286-10.978c-0.225-0.533-0.449-1.066-0.674-1.599 c-1.055,0.702-4.766,3.49-2.4,4.876c3.181,1.863,9.074-0.45,12.241-1.443c-0.155-0.563-0.31-1.125-0.465-1.688 c-1.017,0.39-7.542,3.772-3.5,5.021c4.481,1.383,11.64-2.984,15.588-4.725c6.189-2.729,11.848-6.113,17.236-10.197 c0.662-0.502,7.279-5.216,4.154-6.448c-4.218-1.663-11.823,4.138-14.936,6.279c-5.62,3.868-10.964,8.451-15.512,13.541 c-0.439,0.492-4.226,5.169-1.214,5.009c5.063-0.271,11.052-3.985,15.689-6.048c-0.294-0.503-0.589-1.007-0.883-1.511 c-0.896,0.453-10.51,5.359-7.167,7.178c2.48,1.35,6.108,0.002,8.564-0.755c2.369-0.731,3.631-1.871,5.783,1.054 c0.583,0.792,1.641,1.135,2.522,1.469c1.591,0.602,3.767,0.736,4.814-0.784c0.489-0.711-0.537-2.037-0.121-2.565 c0.947-1.204,3.039-1.896,4.377-2.438c11.632-4.712,25.116-5.948,37.501-6.693c1.121-0.067,1.128-1.818,0-1.75 c-10.187,0.613-20.331,1.916-30.247,4.365c-3.642,0.899-11.388,2.215-13.403,6.063c-0.171,0.325-0.285,0.889-0.138,1.244 c0.839,2.024-3.011,0.601-3.576,0.303c-2.369-1.249-1.765-4.188-5.201-3.11c-1.266,0.396-2.477,1.063-3.766,1.461 c-0.624,0.192-5.754,0.767-5.438,0.434c1.644-1.732,4.267-2.895,6.378-3.963c1.021-0.517,0.127-1.96-0.883-1.511 c-3.665,1.63-7.372,3.167-11.124,4.588c-1.101,0.417-2.215,0.792-3.334,1.157c0.412-0.134-0.046,0.985,0.697-0.188 c0.837-1.32,2.018-2.468,3.092-3.592c6.262-6.553,14.034-13.157,22.516-16.573c0.948-0.382,1.945-0.641,2.933-0.901 c2.177-0.573,0.676-0.032,0.184,0.487c-1.412,1.49-3.16,2.714-4.801,3.925c-3.014,2.224-6.165,4.281-9.476,6.032 c-4.383,2.319-8.984,4.28-13.64,5.98c-1.714,0.626-3.462,1.166-5.254,1.518c-2.399,0.472,1.511-1.462,2.048-1.668 c1.032-0.396,0.63-2.031-0.465-1.688c-1.594,0.5-3.21,0.913-4.837,1.29c-1.854,0.43-7.789,1.227-3.656-1.524 c0.783-0.521,0.301-1.966-0.674-1.599c-8.741,3.288-17.797,7.486-24.853,13.687c-3.087,2.713-5.606,6.404-4.175,10.596 c1.508,4.412,7.216,4.868,11.083,4.595c6.877-0.485,27.431-8.075,22.797-18.16c-1.776-3.868-7.84-5.321-11.501-6.222 c-2.063-0.507-4.171-0.844-6.279-1.098c-0.249-0.029-0.499-0.054-0.749-0.076c0.521,0.049,1.009-0.25,1.869-0.831 c0.744-0.503,1.53-0.954,2.314-1.392c0.871-0.485,0.279-1.87-0.674-1.599c-4.515,1.283-9.347,2.975-14.06,3.16 c-0.854,0.034-0.211,0.698,1.085-0.029c1.665-0.934,3.425-1.715,5.148-2.532c0.57-0.27,1.888-0.652,2.034-1.421 c0.11-0.583-0.246-1.067-0.844-1.108c-1.64-0.111-3.802,1.083-5.303,1.591c-3.976,1.347-7.94,2.721-11.937,4.003 c-1.636,0.524-3.281,1.018-4.938,1.469c-0.615,0.167-1.235,0.309-1.857,0.443c-1.705,0.366-1.668,0.893-0.201-0.104 c2.038-1.385,4.324-2.311,6.512-3.416c1.809-0.913,7.387-2.891,7.954-5.114c0.847-3.32-10.355,1.555-10.824,1.73 c-2.417,0.904-37.784,13.281-29.166,20.141c3.14,2.499,8.659,2.27,12.351,2.273c5.453,0.005,14.658-0.935,16.758-7.161 c1.456-4.318-0.373-9.096-0.705-13.484c-0.414-5.472,2.198-9.254,6.908-11.878c9.537-5.314,22.049-5.728,32.615-6.604 c8.011-0.665,16.021-1.349,24.033-2.006c5.672-0.465,11.347-0.938,17.029-1.262c1.436-0.082,2.875-0.159,4.313-0.147 c1.444,0.012,0.863-1.353-0.713-0.974c-18.46,4.438-37.892,6.253-56.647,8.932c-22.604,3.228-46.129,7.018-69.063,5.904 c-2.928-0.143-6.274-0.255-9.013-1.451c-1.037-0.453-0.973-1.011-1.063-0.379c-0.533,0.07-1.066,0.14-1.599,0.209 C84.007,23.985,86.69,35.426,86.375,46c-0.025,0.829,1.266,1.252,1.63,0.441c3.645-8.108,8.431-15.651,13.582-22.877 c4.322-6.063,9.274-13.257,15.55-17.514c3.749-2.542-1.115,5.736-1.851,6.736c-2.985,4.059-6.568,7.736-10.155,11.261 c-3.286,3.229-7.038,5.993-10.842,8.573c-1.439,0.976-2.929,1.874-4.463,2.693c-2.945,1.574,0.432,0.334,2.191,0.696 c0.846,0.174,1.479-0.805,0.851-1.462c-1.968-2.062-5.686,0.145-7.751,0.975c-1.303,0.524-6.076,2.467-2.545,0.45 c1.346-0.769,2.807-1.386,4.244-1.963c-0.225-0.533-0.449-1.066-0.674-1.599c-2.769,1.682-6.461,2.147-9.613,2.552 c-0.983,0.126-4.173,0.568-2.949-1.323c0.432-0.667,1.052-1.291,1.622-1.855c-0.413-0.413-0.825-0.825-1.237-1.237 c-1.719,2.02-3.631,3.641-5.849,5.11c-1.012,0.67-2.104,1.205-3.195,1.73c0.405-0.195-3.471,1.145-3.369,0.956 c1.35-2.493,4.885-4.504,7.14-6.089c-0.294-0.503-0.589-1.007-0.883-1.511c-3.61,2.693-7.387,5.181-11.306,7.399 c-1.766,1-9.74,4.938-6.104,0.266c0.834-1.071,1.847-2.009,2.845-2.921c0.461-0.422,4.834-3.801,2.731-1.983 c-2.097,1.813-4.577,3.263-6.957,4.664c-1.218,0.716-2.477,1.353-3.752,1.958c-0.65,0.308-5.505,1.687-3.07-0.587 c3.171-2.961,7.731-4.801,11.545-6.736c0.772-0.392,3.449-1.321,3.278-2.646c-0.048-0.371-0.229-0.761-0.642-0.844 c-2.923-0.588-6.824,0.911-9.693,1.344c-2.64,0.398-5.242,1.018-7.832,1.657c-7.664,1.889-15.273,4.282-22.484,7.508 c-3,1.342-10.193,4.357-10.088,8.639c0.129,5.273,6.686,4.631,10.228,3.863c5.833-1.264,39.681-17.916,26.507-26.13 c-7.525-4.692-18.359-3.43-26.61-1.916c-4.121,0.756-10.399,2.235-13.076,5.947C2.666,31.142,4.185,32.014,4.838,31.108 L4.838,31.108z"/>
</svg>