<?xml version="1.0" encoding="UTF-8" standalone="no"?>
<!-- Created with Inkscape (http://www.inkscape.org/) -->
<svg
   xmlns:dc="http://purl.org/dc/elements/1.1/"
   xmlns:cc="http://creativecommons.org/ns#"
   xmlns:rdf="http://www.w3.org/1999/02/22-rdf-syntax-ns#"
   xmlns:svg="http://www.w3.org/2000/svg"
   xmlns="http://www.w3.org/2000/svg"
   xmlns:sodipodi="http://sodipodi.sourceforge.net/DTD/sodipodi-0.dtd"
   xmlns:inkscape="http://www.inkscape.org/namespaces/inkscape"
   width="895.13"
   height="154.53999"
   id="svg2"
   sodipodi:version="0.32"
   inkscape:version="0.46"
   version="1.0"
   sodipodi:docname="david thompson.svg"
   inkscape:output_extension="org.inkscape.output.svg.inkscape"
   style="display:inline">
  <defs
     id="defs4">
    <inkscape:perspective
       sodipodi:type="inkscape:persp3d"
       inkscape:vp_x="0 : 526.18109 : 1"
       inkscape:vp_y="0 : 1000 : 0"
       inkscape:vp_z="744.09448 : 526.18109 : 1"
       inkscape:persp3d-origin="372.04724 : 350.78739 : 1"
       id="perspective10" />
    <inkscape:perspective
       id="perspective2390"
       inkscape:persp3d-origin="372.04724 : 350.78739 : 1"
       inkscape:vp_z="744.09448 : 526.18109 : 1"
       inkscape:vp_y="0 : 1000 : 0"
       inkscape:vp_x="0 : 526.18109 : 1"
       sodipodi:type="inkscape:persp3d" />
  </defs>
  <sodipodi:namedview
     id="base"
     pagecolor="#ffffff"
     bordercolor="#666666"
     borderopacity="1.0"
     gridtolerance="10000"
     guidetolerance="10"
     objecttolerance="10"
     inkscape:pageopacity="0.0"
     inkscape:pageshadow="2"
     inkscape:zoom="0.89763231"
     inkscape:cx="680.16257"
     inkscape:cy="93.207068"
     inkscape:document-units="px"
     inkscape:current-layer="layer1"
     showgrid="false"
     inkscape:window-width="1614"
     inkscape:window-height="952"
     inkscape:window-x="2"
     inkscape:window-y="34"
     showguides="true"
     inkscape:guide-bbox="true"
     inkscape:object-nodes="true"
     inkscape:snap-intersection-line-segments="false"
     inkscape:object-paths="false" />
  <metadata
     id="metadata7">
    <rdf:RDF>
      <cc:Work
         rdf:about="">
        <dc:format>image/svg+xml</dc:format>
        <dc:type
           rdf:resource="http://purl.org/dc/dcmitype/StillImage" />
      </cc:Work>
    </rdf:RDF>
  </metadata>
  <g
     inkscape:label="Signature"
     inkscape:groupmode="layer"
     id="layer1"
     transform="translate(224.33256,-107.61264)"
     style="opacity:1;display:inline">
    <path
       style="fill:#000000;fill-opacity:1;fill-rule:nonzero;stroke:none;stroke-width:0.1;stroke-linecap:butt;stroke-linejoin:round;stroke-miterlimit:4;stroke-dasharray:none;stroke-opacity:1"
       d="M -49.375579,122.94375 C -121.10167,123.27373 -174.31,168.31247 -181.21933,173.85 C -191.48801,183.32915 -212.77355,200.30911 -217.06308,224.06875 C -218.6868,234.84805 -216.74207,240.81408 -213.56308,245.25625 C -206.30408,256.28612 -181.90231,259.256 -174.03183,258.7875 C -155.09992,257.62146 -137.3956,246.51575 -138.36255,239.29171 C -138.83802,238.36307 -141.93646,238.48932 -144.04901,238.98065 C -145.26556,240.12408 -143.67973,240.93233 -145.24909,243.48089 C -151.19977,250.6309 -165.25058,253.2875 -173.75058,253.5375 C -187.23367,253.93406 -196.03371,250.84268 -201.71933,246.9125 C -207.40495,242.98232 -211.48115,239.4351 -210.96933,229.1625 C -207.61902,191.85017 -132.33792,129.1625 -55.875579,128.4125 C -21.287443,128.07323 -33.396429,142.7107 -34.656829,144.25625 C -52.515199,141.96671 -86.594329,169.725 -86.594329,169.725 C -97.278839,178.42523 -106.47023,183.98592 -117.24441,191.33916 C -124.48373,191.33915 -130.55059,194.5293 -130.38153,198.98584 C -128.87631,201.59296 -121.13317,199.57214 -117.87324,195.60361 C -105.5624,193.96485 -111.51445,203.42969 -108.61929,202.2664 C -91.531179,195.5727 -37.482959,164.86488 -31.632809,147.19375 C -26.472325,143.58695 -25.089311,136.09238 -27.719329,130.475 C -30.424669,124.84324 -37.116459,123.40166 -45.969329,122.94375 C -47.116289,122.92625 -48.237069,122.93851 -49.375579,122.94375 z M -36.750579,149.50625 C -51.588469,167.32344 -71.924949,179.53031 -92.156829,190.56875 C -92.156829,190.56875 -99.899799,194.83316 -106.65449,198.21054 C -107.57031,198.66845 -105.81691,191.49902 -111.61707,191.65166 C -106.0555,187.73805 -98.937159,183.33817 -91.375579,177.75625 C -91.375569,177.75624 -56.438689,151.33916 -45.906829,150.88125 L -64.969329,163.69375 C -62.374519,165.06747 -45.304469,151.78793 -36.750579,149.50625 z"
       id="path2400"
       sodipodi:nodetypes="cccccccccscsccccccccccccscsccc" />
    <path
       style="fill:#000000;fill-opacity:1;fill-rule:nonzero;stroke:none;stroke-width:0.1;stroke-linecap:butt;stroke-linejoin:round;stroke-miterlimit:4;stroke-dasharray:none;stroke-opacity:1"
       d="M -54.977619,196.52397 C -54.748669,193.54757 -52.777509,191.78176 -45.571449,189.78892 C -45.164009,189.67624 -41.307759,188.54986 -38.645609,186.29738 C -19.108239,160.50195 -4.3025787,164.92839 -4.3025787,164.92839 C -0.18141866,165.69157 0.33286134,166.37958 0.58176134,169.81273 C -10.560639,176.5287 -12.672919,178.5548 -20.176689,179.42878 C -4.7604787,171.64436 -5.3710287,168.89691 -5.3710287,168.89691 C -8.1184687,167.67583 -13.308089,168.74428 -16.513439,170.118 C -30.007829,176.62375 -32.425709,182.82492 -36.890289,188.60599 C -38.333409,190.47465 -45.323109,193.60874 -45.518979,193.84569 C -48.824399,197.84451 -51.664989,197.60665 -54.977619,196.52397 z"
       id="path3196"
       sodipodi:nodetypes="csccccccssc" />
    <path
       style="fill:#000000;fill-opacity:1;fill-rule:nonzero;stroke:none;stroke-width:0.1;stroke-linecap:butt;stroke-linejoin:round;stroke-miterlimit:4;stroke-dasharray:none;stroke-opacity:1"
       d="M 23.935021,165.08102 C 16.691781,164.95611 5.7465713,170.46461 1.0396713,173.62862 C -2.6235887,180.49722 -15.030739,184.35678 -17.581879,187.21319 C -19.260879,189.96064 -21.165369,191.44189 -19.718779,193.31862 C -18.192419,193.62389 -15.332359,191.7445 -13.918629,190.11327 C -11.781729,186.60265 0.12385134,181.41304 0.12385134,181.41304 C 6.8398213,170.42327 18.440141,169.50746 23.935021,165.08102 z"
       id="path3202"
       sodipodi:nodetypes="ccccccc" />
    <path
       style="fill:#000000;fill-opacity:1;fill-rule:nonzero;stroke:none;stroke-width:0.1;stroke-linecap:butt;stroke-linejoin:round;stroke-miterlimit:4;stroke-dasharray:none;stroke-opacity:1;display:inline"
       d="M 51.027852,170.04167 C 41.259169,170.80485 30.984235,177.87817 27.064052,181.33671 C 23.248161,185.76315 9.7907949,190.11315 9.205678,195.3792 C 17.784014,195.28894 25.796911,197.8968 61.267018,178.28387 C 62.133589,177.8047 68.312591,175.98279 71.481032,172.33121 C 75.373241,167.67584 75.599794,168.21985 74.934411,165.97776 C 73.570462,161.38174 67.359863,163.47835 68.123041,171.26277 C 69.376018,173.7543 62.322891,175.23129 60.185991,176.75765 C 34.320398,187.96496 23.095521,189.88431 23.095521,189.88431 C 25.842962,183.47362 36.412667,182.6376 47.822495,175.23129 C 51.143834,173.07535 52.032198,173.38207 51.027852,170.04167 z"
       id="path3206"
       sodipodi:nodetypes="cccscscccsc" />
    <path
       style="fill:#000000;fill-opacity:1;fill-rule:nonzero;stroke:none;stroke-width:0.1;stroke-linecap:butt;stroke-linejoin:round;stroke-miterlimit:4;stroke-dasharray:none;stroke-opacity:1"
       d="M 103.76348,169.66009 C 96.106781,169.49935 82.547121,178.6656 75.983781,181.2604 C 67.391261,185.89696 59.750301,191.22857 58.583311,197.13451 C 64.230831,197.28715 67.894101,192.86071 67.894101,192.86071 C 68.504631,186.75529 72.167901,187.06056 74.762701,185.5342 C 93.065641,176.15047 96.436961,173.78125 103.76348,169.66009 z"
       id="path3209"
       sodipodi:nodetypes="cccccc" />
    <path
       style="fill:#000000;fill-opacity:1;fill-rule:nonzero;stroke:none;stroke-width:0.1;stroke-linecap:butt;stroke-linejoin:round;stroke-miterlimit:4;stroke-dasharray:none;stroke-opacity:1"
       d="M 127.87991,124.17466 C 127.87991,124.17466 128.94836,129.82218 120.70603,130.89063 C 120.70603,130.89063 120.24813,124.02203 127.87991,124.17466 z"
       id="path3214"
       sodipodi:nodetypes="ccc" />
    <path
       style="fill:#000000;fill-opacity:1;fill-rule:nonzero;stroke:none;stroke-width:0.1;stroke-linecap:butt;stroke-linejoin:round;stroke-miterlimit:4;stroke-dasharray:none;stroke-opacity:1"
       d="M 175.06192,158.06875 C 174.32676,158.13046 173.65567,158.35 173.65567,158.35 C 157.78156,164.15016 142.63036,177.5662 134.44181,180.64187 C 134.17787,175.4192 153.07849,169.96689 148.49942,165.68674 C 148.19415,164.00775 144.32455,164.30787 142.53067,164.7875 C 129.89953,168.16466 115.66162,178.66739 114.59317,180.19375 C 112.26789,184.41093 112.84525,183.3358 107.71817,186.6 C 103.90226,188.279 94.905061,189.78577 94.468171,193.1625 C 98.741971,196.82575 106.2221,193.97339 108.49942,193.31875 C 112.92585,190.34236 116.10252,190.85071 119.96817,189.2875 C 125.08362,187.21888 130.77287,184.04228 134.90567,184.00625 C 133.22668,189.04323 132.96942,190.66417 134.28067,192.4125 C 135.04384,194.09149 140.68692,193.94375 140.68692,193.94375 C 149.38714,193.79112 147.42118,190.87041 145.43692,190.4125 C 141.30404,191.16982 140.43423,190.21196 139.46817,189.19375 C 139.62081,182.63042 148.00728,177.52902 153.68692,175.1625 C 159.18179,172.87296 171.29535,168.4732 176.56192,161.1 C 177.7067,158.33348 176.28718,157.9659 175.06192,158.06875 z M 138.68692,170.13125 C 139.06339,170.12692 139.36685,170.16085 139.62442,170.25625 C 131.85232,178.7103 119.62654,184.76475 116.26855,185.22267 C 118.96004,180.94745 132.58196,170.65407 138.68692,170.13125 z"
       id="path3258"
       sodipodi:nodetypes="ccccsccccscccccscccccc" />
    <path
       style="fill:#000000;fill-opacity:1;fill-rule:nonzero;stroke:none;stroke-width:0.1;stroke-linecap:butt;stroke-linejoin:round;stroke-miterlimit:4;stroke-dasharray:none;stroke-opacity:1"
       d="M 249.07263,155.92288 C 246.47782,156.38079 244.49357,156.22815 244.49357,156.22815 C 231.82481,158.9756 219.26919,159.66173 218.0876,156.53342 C 217.78233,152.25963 242.15309,142.45139 266.77838,132.8749 C 269.52582,131.80645 302.53362,121.49032 322.79567,117.76396 C 321.57458,122.03776 322.18512,126.61683 322.18512,126.61683 C 326.91683,127.38001 322.99828,120.22529 326.76419,118.98505 C 328.74845,112.72699 322.4996,114.2892 319.59032,115.01652 C 297.00024,120.20613 277.96169,125.65433 258.23078,132.11172 C 249.83582,134.85916 210.19683,150.95975 210.60845,155.77025 C 207.25047,165.38629 225.17656,162.63885 227.55101,162.63885 C 229.99318,162.63885 245.15883,161.74947 249.07263,155.92288 z"
       id="path2457"
       sodipodi:nodetypes="cccccccccccc" />
    <path
       style="fill:#000000;fill-opacity:1;fill-rule:nonzero;stroke:none;stroke-width:0.1;stroke-linecap:butt;stroke-linejoin:round;stroke-miterlimit:4;stroke-dasharray:none;stroke-opacity:1"
       d="M 238.08287,195.30288 C 243.11985,195.26035 245.58316,195.09623 248.46209,191.33436 C 253.04116,189.50273 259.7299,185.5342 275.93651,173.78125 C 281.73668,168.74428 293.47772,159.89325 303.41093,149.97009 C 311.19534,146.1542 318.18419,142.64877 321.90313,141.42755 C 328.91806,139.124 337.83588,136.5449 342.6383,130.89063 C 344.46993,124.63257 339.77721,126.29597 337.9066,126.15893 C 331.98644,127.45633 325.21135,130.05187 324.10866,132.76118 C 322.87646,135.78871 323.08909,136.05582 320.65876,137.45396 C 301.42667,145.69629 286.98459,153.70934 253.04116,165.38629 C 262.96248,155.92288 276.88111,149.48741 279.44713,150.73327 C 291.81062,146.91738 293.48335,142.02551 291.96326,140.20141 C 285.55256,138.98032 263.13455,154.27793 261.28349,155.31234 C 259.20849,156.47188 244.98173,166.36061 241.89876,170.42327 C 232.43535,176.5287 218.64328,179.02573 210.45581,185.99211 C 182.37085,199.11878 206.56306,195.9903 214.57698,191.18172 C 219.76659,185.99211 230.66491,180.44627 244.03566,173.01808 C 250.90426,171.33908 285.24729,157.75451 293.18434,153.63335 C 289.27724,156.82029 289.89167,158.57646 274.86806,169.50746 C 267.23627,175.00234 262.57782,180.65097 248.15682,187.06056 C 241.59349,189.19746 237.93024,193.31862 238.08287,195.30288 z"
       id="path3229"
       sodipodi:nodetypes="ccccsccsccccccccccccc" />
    <path
       style="fill:#000000;fill-opacity:1;fill-rule:nonzero;stroke:none;stroke-width:0.1;stroke-linecap:butt;stroke-linejoin:round;stroke-miterlimit:4;stroke-dasharray:none;stroke-opacity:1"
       d="M 282.70742,176.199 C 288.17343,174.16754 296.17579,168.68209 299.25925,172.74944 C 298.49607,176.68744 293.65646,177.92779 290.211,179.74015 C 286.40398,181.7523 279.68525,186.68202 275.96094,190.88256 C 280.88856,191.16372 283.21279,191.63411 283.87357,194.53971 C 283.50724,196.02332 280.17979,195.50436 277.46287,195.60815 C 271.96191,195.54832 271.27807,195.2686 271.13154,192.46997 C 272.04735,186.51717 289.979,176.37606 289.979,176.37606 C 289.21582,174.8497 284.23378,177.72536 282.70742,176.199 z"
       id="path3231"
       sodipodi:nodetypes="ccccccccc" />
    <path
       style="fill:#000000;fill-opacity:1;fill-rule:nonzero;stroke:none;stroke-width:0.1;stroke-linecap:butt;stroke-linejoin:round;stroke-miterlimit:4;stroke-dasharray:none;stroke-opacity:1"
       d="M 342.06192,167.725 C 335.35228,167.92312 334.8599,168.78306 332.03067,170.00625 C 326.0748,173.59964 321.96692,177.41959 318.06192,180.475 C 315.83058,182.22087 309.01773,188.21873 306.62442,189.5375 C 303.71312,191.25308 298.54775,191.17404 296.56192,195.4125 C 300.90898,195.85209 303.45562,195.21946 306.09317,194.19375 C 313.64575,191.49468 324.39915,186.94262 327.77095,185.01412 C 333.53307,181.60389 339.50212,178.12805 343.0677,175.58819 C 344.84012,174.33303 348.15382,172.35687 348.15382,167.94769 C 345.84693,167.79965 343.6103,167.67928 342.06192,167.725 z M 340.62627,172.83634 C 338.74331,176.17982 332.17339,180.2263 331.87442,180.4125 C 326.94124,183.48964 316.97517,188.46319 312.87233,188.56088 C 314.72581,185.31729 320.26185,181.05004 323.77858,178.85209 C 328.83129,175.74909 334.66737,172.93403 340.62627,172.83634 z"
       id="path2407"
       sodipodi:nodetypes="ccscccccccccccc" />
    <path
       style="fill:#000000;fill-opacity:1;fill-rule:nonzero;stroke:none;stroke-width:0.1;stroke-linecap:butt;stroke-linejoin:round;stroke-miterlimit:4;stroke-dasharray:none;stroke-opacity:1"
       d="M 354.59273,176.85228 C 354.46552,174.84656 361.79703,172.50831 364.89869,172.261 C 366.75474,172.16332 369.24944,169.47725 371.49255,169.6723 C 379.20981,169.81883 378.72285,169.84723 377.74451,173.48209 C 369.34344,181.73663 365.53385,178.36627 356.54647,184.8626 C 352.24825,188.52586 348.0974,191.84276 342.03997,195.55931 C 337.351,199.46678 335.98339,197.17114 335.98339,197.17114 C 336.17876,195.46162 337.49753,195.657 339.50011,194.58244 C 343.695,191.88675 347.86468,189.93851 355.17885,182.95771 C 358.79327,179.6852 363.09148,179.14792 368.17119,174.99623 C 362.00865,174.5078 361.0889,177.73146 354.59273,176.85228 z"
       id="path2414"
       sodipodi:nodetypes="ccccccccccc" />
    <path
       style="fill:#000000;fill-opacity:1;fill-rule:nonzero;stroke:none;stroke-width:0.1;stroke-linecap:butt;stroke-linejoin:round;stroke-miterlimit:4;stroke-dasharray:none;stroke-opacity:1"
       d="M 373.6905,182.56696 C 373.43894,180.86249 390.9805,171.21916 402.99655,172.65175 C 404.46185,177.29187 398.52855,178.83773 396.15847,179.97826 C 383.99646,186.32791 380.57445,193.73681 373.39744,195.70584 C 371.93214,192.67755 377.25607,189.84463 377.25607,189.84463 C 385.41292,184.42301 387.18062,182.99721 394.00936,177.29187 C 387.95278,175.58235 386.19441,180.41785 373.6905,182.56696 z"
       id="path2416"
       sodipodi:nodetypes="ccccccc" />
    <path
       style="fill:#000000;fill-opacity:1;fill-rule:nonzero;stroke:none;stroke-width:0.1;stroke-linecap:butt;stroke-linejoin:round;stroke-miterlimit:4;stroke-dasharray:none;stroke-opacity:1"
       d="M 405.09682,180.07595 C 407.45834,175.09846 421.39271,171.65649 427.07636,172.55406 C 426.58792,177.878 425.02563,177.92667 420.1406,179.14792 C 413.69327,181.39472 404.92097,188.88972 405.53641,190.57728 C 407.29477,191.74953 424.44225,186.96989 437.33347,180.22248 C 451.37595,173.79957 481.51746,153.1614 486.17078,149.43281 C 487.0938,148.69322 516.03501,127.62574 516.48963,127.29849 C 517.63627,126.47309 521.05659,125.71097 523.83516,125.95745 C 523.83516,129.18111 523.02925,129.35206 519.80558,131.45233 C 515.56723,133.76415 514.10934,134.53632 510.64744,136.40994 C 508.98676,137.28912 495.02043,148.85398 485.05348,156.33805 C 480.51104,159.51287 467.28926,169.15633 448.32324,185.20451 C 430.78845,199.711 410.1961,212.68693 401.77547,218.07612 C 396.59807,222.56972 387.90049,227.50291 386.24326,227.64944 C 377.30492,229.55433 380.53412,225.13122 385.21755,223.15584 C 389.22271,221.15326 398.02129,217.50413 409.00429,210.11465 C 409.93232,209.47968 424.42318,200.16939 437.28463,190.52844 C 438.65225,189.50273 455.48338,177.26551 468.34904,165.56946 C 453.50064,173.33556 444.26426,179.14099 436.45429,182.86002 C 423.36426,189.99116 411.12257,192.23856 402.89886,194.33823 C 394.30242,195.70584 392.03144,195.7186 391.51835,194.82666 C 391.37182,193.01945 393.23541,191.9317 396.84228,191.26109 C 399.33329,191.11456 403.80208,186.9223 406.36675,184.66723 C 411.05571,180.90629 411.49634,180.56233 412.96061,178.75718 C 407.63668,179.29445 407.49015,180.36901 405.09682,180.07595 z"
       id="path2418"
       sodipodi:nodetypes="cccccsscccccccccccccccccc" />
    <path
       style="fill:#000000;fill-opacity:1;fill-rule:evenodd;stroke:none;stroke-width:0.1;stroke-linecap:butt;stroke-linejoin:round;stroke-miterlimit:4;stroke-dasharray:none;stroke-opacity:1"
       d="M 481.2437,172.261 C 474.71155,172.21315 472.99456,176.65242 472.84264,177.4384 C 471.76808,179.92942 464.44157,185.25335 460.19219,187.8909 C 459.27724,188.45651 454.42867,191.1634 457.79887,193.99632 C 459.27018,194.68293 462.29246,194.68013 465.17422,193.84979 C 468.71544,192.96449 470.40046,192.43333 470.74237,191.01687 C 468.13169,189.9726 465.3696,191.99374 462.14593,191.55415 C 462.06856,191.00608 461.9994,189.94232 464.53926,187.98858 C 473.12128,181.94698 478.21541,177.34072 479.14344,177.24303 C 482.25229,176.88091 483.09975,172.30985 481.2437,172.261 z"
       id="path2772"
       sodipodi:nodetypes="cccccccccc" />
    <path
       style="fill:#000000;fill-opacity:1;fill-rule:evenodd;stroke:none;stroke-width:0.1;stroke-linecap:butt;stroke-linejoin:round;stroke-miterlimit:4;stroke-dasharray:none;stroke-opacity:1"
       d="M 551.34317,167.475 C 549.92472,167.50297 549.16947,167.68249 548.24942,167.9125 C 545.36766,168.88937 543.02771,170.00508 539.81192,172.50625 C 535.3183,176.41372 531.47324,179.08838 528.12442,181.6 C 520.99327,186.67971 516.60381,189.17513 512.90567,190.81875 C 510.75654,191.30719 509.71817,191.06875 509.71817,191.06875 C 509.47397,187.45434 512.84779,190.54491 512.03067,184.225 C 509.2466,183.39466 505.15642,184.25894 504.15567,185.1 C 497.44702,190.1001 496.64915,191.77708 498.62442,195.225 C 501.16425,197.27642 506.6955,196.41462 510.43692,194.9125 C 511.7557,194.22869 515.83229,192.50208 519.68692,190.00625 C 522.76409,188.00367 540.08829,174.35493 545.18692,171.81875 C 549.77822,169.52311 553.49316,170.05709 553.59526,170.78935 C 551.8369,173.03614 549.23379,175.05251 542.8353,176.85972 C 545.86903,177.19411 547.88222,176.89839 549.03067,176.475 C 550.83788,175.79119 554.78167,173.849 557.78067,170.85 C 558.41563,170.31272 559.2948,168.61677 558.40567,167.9125 C 554.8401,167.5706 552.76162,167.44703 551.34317,167.475 z M 505.26677,188.5669 C 506.22463,190.41028 503.74839,191.93133 502.72814,191.8014 C 501.65358,191.06875 503.948,188.225 505.26677,188.5669 z"
       id="path3544"
       sodipodi:nodetypes="ccccccccccccccccccccc" />
    <path
       style="fill:#000000;fill-opacity:1;fill-rule:evenodd;stroke:none;stroke-width:0.1;stroke-linecap:butt;stroke-linejoin:round;stroke-miterlimit:4;stroke-dasharray:none;stroke-opacity:1"
       d="M 591.03067,165.225 C 588.90573,165.29623 585.42463,166.54554 582.37442,167.6625 C 578.49058,169.19985 576.61067,170.45219 574.65458,171.75625 C 569.14827,175.77445 574.10177,174.44978 577.98737,172.6296 C 579.80448,171.89863 582.37992,171.79133 578.62004,174.29793 C 577.48197,175.1469 576.11838,177.00625 577.78944,177.1455 C 579.74962,177.01962 585.24176,173.00843 586.3558,173.77434 C 586.8768,175.45078 585.62917,176.40713 583.06192,178.225 C 579.03936,181.07337 575.41391,183.66029 572.28067,185.81875 C 563.21632,191.86165 551.75129,195.08025 551.18692,193.38125 C 550.64478,191.74926 564.87074,179.5044 567.68692,178.725 C 571.58607,176.84505 568.51091,181.43936 571.64415,181.71787 C 572.53243,178.5703 572.95918,176.41287 569.60304,175.03915 C 568.50413,175.17651 566.21598,176.16073 563.81575,177.87303 C 558.86767,181.29862 551.74522,186.78461 545.40567,192.7875 C 543.15884,195.18083 546.62599,198.34974 549.24942,197.9125 C 558.52136,197.0385 571.24555,190.03372 582.99942,182.225 C 588.75045,178.16995 591.64813,176.41084 594.34317,173.225 C 596.18052,170.75269 596.39825,165.26657 591.03067,165.225 z"
       id="path3551"
       sodipodi:nodetypes="cccccccscsccccccccc" />
    <path
       style="fill:#000000;fill-opacity:1;fill-rule:evenodd;stroke:none;stroke-width:0.1;stroke-linecap:butt;stroke-linejoin:round;stroke-miterlimit:4;stroke-dasharray:none;stroke-opacity:1"
       d="M 595.26651,177.26935 C 595.61465,174.27536 605.72206,174.50905 620.54133,168.07851 C 624.92788,166.82521 627.13475,171.15272 623.39606,173.02207 C 610.58458,179.98483 607.1544,181.93954 606.68543,183.81435 C 607.24245,185.06764 619.99606,180.3977 626.66856,177.61749 C 638.92302,173.30058 644.92973,171.03515 646.09467,172.6043 C 647.13909,174.27536 644.93553,176.47355 642.54366,178.10488 C 631.96026,184.51062 624.92547,188.57533 625.13675,191.12525 C 625.55451,193.14445 629.35317,193.02687 633.00467,193.2837 C 640.17631,193.07482 639.1319,195.23328 636.76457,195.44216 C 633.19336,195.89484 627.06189,195.99882 622.4909,194.39774 C 620.95909,193.49258 620.14478,192.72183 620.54133,190.70748 C 621.37686,187.36536 630.28919,183.46621 631.96026,181.09887 C 632.77031,178.68681 627.10513,179.87717 622.56053,181.9344 C 613.71782,185.76392 606.28251,186.42874 601.46336,189.10605 C 596.17166,193.42296 595.8331,193.22282 594.5006,193.84072 C 588.30374,196.97397 586.21491,195.16365 585.72752,194.25849 C 584.88592,192.69551 588.58614,190.92646 590.04443,190.35934 C 591.29773,189.87195 597.23668,187.34475 600.69746,183.88397 C 603.48256,181.44701 612.51334,176.84514 613.30006,174.69313 C 610.02756,174.76276 595.64108,179.60194 595.26651,177.26935 z"
       id="path3570"
       sodipodi:nodetypes="ccccccccccccccccccccc" />
    <path
       style="fill:#000000;fill-opacity:1;fill-rule:evenodd;stroke:none;stroke-width:0.1;stroke-linecap:butt;stroke-linejoin:round;stroke-miterlimit:4;stroke-dasharray:none;stroke-opacity:1"
       d="M 666.42594,190.70748 C 664.54599,189.80232 656.31637,196.83006 658.48838,197.39173 C 660.98035,199.01047 670.64225,192.73755 666.42594,190.70748 z"
       id="path3572"
       sodipodi:nodetypes="ccc" />
  </g>
</svg>
