<?xml version="1.0" encoding="utf-8"?>
<!-- Generator: Adobe Illustrator 15.1.0, SVG Export Plug-In . SVG Version: 6.00 Build 0)  -->
<!DOCTYPE svg PUBLIC "-//W3C//DTD SVG 1.1//EN" "http://www.w3.org/Graphics/SVG/1.1/DTD/svg11.dtd">
<svg version="1.1" id="Layer_1" xmlns="http://www.w3.org/2000/svg" xmlns:xlink="http://www.w3.org/1999/xlink" x="0px" y="0px"
	 width="464px" height="124px" viewBox="0 0 464 124" enable-background="new 0 0 464 124" xml:space="preserve">
<g>
	<path fill-rule="evenodd" clip-rule="evenodd" d="M301.017,28.9c0.749-3.637,5.292-3.479,6.22-6.937
		c2.619-0.144,3.344-3.281,3.349-5.262c-0.2,1.395-2.513,0.677-2.632,2.153c-1.188,0.167-2.393,0.318-2.87,1.196
		c-3.691-0.023-5.055,2.28-7.894,3.11c-1.313,1.318-2.918,2.344-4.784,3.109c-0.968,2.062-3.495,2.565-4.306,4.784
		c-0.559,0.074-0.988,0.468-1.436,0c-0.839,1.712-2.412,2.691-2.87,4.784c-2.317,1.111-3.795,3.062-5.263,5.023
		c-1.005,0.191-1.229,1.164-2.392,1.196c-1.848,2.697-3.89,5.2-5.023,8.611c-2.76,1.865-3.842,5.407-5.263,8.611
		c0.037,0.675-0.676,0.599-0.956,0.957c-1.501,5.675-7.085,7.268-9.09,12.439c-0.757-0.04-0.8,0.636-1.675,0.478
		c-2.521,2.695-7.157,4.439-11.481,4.545c-0.817,0.18-0.304-0.972-1.196-0.717c-1.211-0.255-1.206,0.707-1.913,0.956
		c-2.444,0.291-3.831-0.475-5.502-0.956c-0.569-1.185-1.787-1.722-2.87-2.393c-0.905-2.197-1.724-3.776-1.196-6.937
		c0.592-0.544,1.164-1.22,1.674-1.914c0.351-0.477,0.086-0.481,0.957-0.718c0.479-0.13,0.473-0.804,0.718-0.956
		c1.968-1.229,5.178-1.656,7.654-0.239c1.069,3.191-0.829,5.137-3.349,5.501c-1.479,0.754-1.695,2.77-2.392,4.306
		c0.204,1.63,1.857,1.811,3.827,1.675c3.008,2.285,6.401-0.751,9.567-1.196c1.351-3.194,4.466-4.624,5.502-8.133
		c1.291,0.095,0.972-1.42,1.914-1.674c0.126-3.223,2.413-4.284,3.109-6.938c-0.112-0.51,0.342-0.456,0.718-0.478
		c0.669-1.789,1.668-3.639,2.631-5.741c0.373-0.813,0.726-0.867,1.196-1.435c0.333-0.403,0.27-1.397,0.479-1.674
		c0.105-0.141,0.632-0.064,0.718-0.239c0.22-0.452-0.011-1.006,0.956-0.957c1.498-5.519,6.935-7.099,9.09-11.96
		c0.913-0.363,1.537-1.014,2.632-1.196c1.275-1.436,2.345-3.077,3.588-4.545c3.757-0.948,5.271-4.138,8.851-5.263
		c0.28-0.039,0.201-0.436,0.239-0.717c4.515-1.784,8.821-3.777,12.917-5.98c0.797,0,1.594,0,2.392,0
		c0.93-0.186,1.344-0.888,2.152-1.196c1.142-0.185,1.54,0.374,2.632,0.239c0.769,0.051,0.582-0.853,0.957-1.196
		c1.508-0.405,3.641-0.187,5.501-0.239c0.451,0.445,1.032,0.701,1.196,1.196c0.688,2.068-1.31,3.745-1.914,5.023
		c-1.559,0.514-2.897,1.248-3.349,2.87c-2.222,0.888-3.2,3.019-5.979,3.349C305.526,28.333,303.129,29.462,301.017,28.9z"/>
	<path fill-rule="evenodd" clip-rule="evenodd" d="M88.844,32.01c1.017,1.088,0.604,2.59,0.239,4.066
		c-2.093,0.14-4.008,0.457-5.741,0.957c-1.951,2.594-2.171,6.918-2.631,11.003c-0.999,1.233-2.511,1.955-2.631,4.066
		c-0.445,0.033-0.799,0.157-0.957,0.479c-0.465,1.581,0.978,1.254,0.717,2.631c-0.412,0.625-1.075,0.998-1.674,1.436
		c-1.315,3.708-2.332,7.714-5.98,9.089c-0.94,1.852-2.384,3.198-3.349,5.023c-2.276,0.116-2.777,2.007-4.784,2.392
		c-0.003,1.911-1.089,2.738-2.871,2.871c-0.473,0.882-0.565,2.146-2.153,1.913c-0.554-0.531,0.082-0.933,0-1.674
		c2.618-0.173,2.15-3.432,5.023-3.349c-0.184-0.902,0.292-1.144,0.239-1.914c1.797-0.575,1.786-2.575,2.87-3.827
		c1.277-1.474,4.121-2.109,3.828-5.023c0.928-0.028,0.74-1.173,1.674-1.196c-0.117-0.755,0.431-0.845,0.239-1.674
		c1.901-1.447,2.808-3.89,4.066-5.98c0.357-4.779,2.094-9.342,1.674-14.113c-1.742-1.133-4.677-0.096-4.784,1.914
		c-0.871-0.074-1.557,0.038-2.153,0.239c-0.708,0.808-1.348,1.682-1.914,2.631c-1.392,0.042-2.059,0.812-3.349,0.957
		c-1.013,1.22-1.974,2.492-2.631,4.066c-0.894-0.255-0.682,0.594-1.435,0.479c-1.022,0.892-1.505,2.322-3.11,2.631
		c-1.296,2.132-3.235,3.622-5.262,5.023c0.022,1.617-1.065,2.124-1.196,3.588c-1.005,0.271-1.419,1.132-2.392,1.435
		c-1.108,2.958-2.65,5.482-4.306,7.894c-1.898,0.653-2.803,2.3-4.066,3.588c2.209,0.9,3.427,2.793,5.98,3.35
		c0.701,0.814,1.574,1.456,2.153,2.392c0.754-0.53,2.103-0.641,2.871,0c0.104,1.233-2.338,0.766-2.631,0.239
		c-2.386,1.611-1.354,3.801-0.478,5.741c0.392,0.868,0.941,1.071,0.717,2.152c-0.143,0.688-0.828,1.182-1.674,1.675
		c0.486,3.755-2.675,3.863-3.11,6.697c-1.907,1.043-3.804,2.096-5.023,3.827c-2.014-0.18-2.206,1.463-4.306,1.196
		c-0.661-0.103-0.225,0.892-0.718,0.957c-1.059-0.114-1.189,0.329-1.914,0c0.302-1.532,1.922-1.746,3.588-1.914
		c0.893-0.622,1.28-1.75,1.675-2.87c1.033-0.163,1.746-0.646,2.631-0.957c0.327-0.471,0.229-1.366,0.479-1.913
		c2.719-1.108,3.064-4.591,4.784-6.698c-0.492-2.157,0.648-3.524,0.239-4.784c-0.797-2.456-3.939-0.735-5.502-2.631
		c-1.277-0.279-1.971-0.111-3.109,0.239c-0.777-0.021-1.472-0.123-1.914-0.479c-0.94,0.097-1.021,1.052-1.914,1.196
		c-2.375-0.143-4.394,0.071-4.784,1.913c-4.169,1.094-7.083,3.442-9.568,6.22c-0.689-0.029-1.566,0.131-1.914-0.239
		c-0.98,0.631-1.024,2.72-0.478,3.349c1.212,1.396,1.741,3.723,3.588,4.306c0.191,0.447,0.399,0.876,0.479,1.436
		c3.187,0.88,5.742,2.391,7.654,4.545c-0.253,0.623-0.899,0.854-1.196,1.435c-3.524,0.494-4.509-1.551-7.176-1.913
		c-0.5-1.095-1.3-1.89-1.914-2.871c-2.085-0.086-3.125-2.797-5.023-2.87c-0.926-0.036-1.128,0.758-2.392,0.718
		c-0.541,1.771-1.918,2.706-2.87,4.066c-0.197,2.514-1.24,4.182-3.11,5.023c-0.584-2.834,0.532-3.498,0.718-5.98
		c2.8-2.941,4.843-6.639,6.698-10.524c-0.432-0.765-0.744-1.648-1.674-1.914c-0.149-3.2-0.496-6.202-2.153-7.894
		c0.21-3.915-0.229-8.38-0.478-12.678c-0.25-4.315-0.372-8.952,0.717-12.199c0.229-0.683,0.831-0.947,0.957-1.675
		c0.321-1.859,0.088-2.341,0.718-3.827c0.199-0.471,0.356-1.255,0.478-1.435c0.091-0.134,0.634-0.074,0.718-0.239
		c0.243-0.478-0.016-1.293,0.239-1.674c0.197-0.294,1.303-0.712,0.957-1.914c3.11-2.796,5.386-7.684,9.808-8.372
		c0.45,0.832-0.119,1.063-0.718,1.435c-0.27,0.527-0.275,1.319-0.957,1.435c-0.01,0.788-0.404,1.191-0.239,2.153
		c-0.532,0.186-0.933,0.502-1.674,0.479c-0.343,1.491-1.196,2.472-2.153,3.349c0.094,1.436-0.54,2.009-0.957,3.11
		c-0.552,1.456-0.82,2.244-1.435,4.066c-0.607,1.798-1.609,5.724-1.675,8.611c-0.047,2.11,0.655,4.197,0.239,6.219
		c-0.221,1.075-1.338,1.583-0.957,2.87c0.356,0.999,1.254,1.457,1.674,2.393c0.188,3.327-0.338,6.677,0.239,9.568
		c0.097,0.483,0.553,0.893,0.718,1.435c0.265,0.872,0.005,2.017,0.239,2.632c0.197,0.518,0.921,1.002,1.196,1.435
		c2.25-0.062,3.329-1.296,4.066-2.87c1.704-0.698,3.274-2.048,4.545-3.349c0.608-0.623,1.896-1.379,2.87-1.914
		c-0.117-1.074,0.122-1.792,0.239-2.631c1.069,0.208,1.024-0.869,1.914-1.196c1.802-0.663,4.355,0.127,5.502-1.196
		c1.371-1.738,2.816-3.403,4.545-4.784c0-0.318,0-0.638,0-0.956c0.448-0.271,1.152-0.283,0.957-1.196
		c2.116-0.436,1.967-3.137,3.827-3.827c-0.049-0.688,0.061-1.215,0.479-1.436c0.953-1.837,2.946-2.636,3.588-4.784
		c0.939-0.098,0.683-1.391,1.914-1.196c0.45-2.181,2.627-2.635,3.109-4.784c1.236-0.358,1.801-1.388,2.392-2.392
		c1.109-0.646,2.485-1.023,2.631-2.631c1.621-1.054,3.372-1.638,4.784-3.11c0.794-0.828,1.066-2.154,1.914-2.87
		c2.463-2.083,6.877-1.285,8.372-4.784c1.047-0.228,1.987-0.564,2.631-1.196c0.924-2.312-0.736-3.807-0.957-5.741
		c-0.748-0.528-1.289-1.263-1.674-2.153c-1.406,0.131-1.59-0.961-2.871-0.957c-0.147-0.969-1.006-1.227-1.196-2.153
		c-2.26,0.187-4.007-0.139-5.263-0.957c-4.81-0.369-11.438,0.951-16.505-0.239c0.806-1.659,2.852-1.25,5.501-1.674
		c1.018-0.163,1.868-0.639,2.631-0.718c0.595-0.061,1.035,0.247,1.674,0.239c0.663-0.008,1.236-0.388,1.914-0.479
		c1.182-0.158,2.812,0.056,4.306,0c1.449-0.054,2.886-0.406,3.827-0.239c1.963,0.348,2.741,2.362,4.784,2.153
		c0.541,1.054,1.894,1.296,2.871,1.914c0.929,1.862,2.534,3.048,4.066,4.306c0.417,2.374,1.947,3.634,3.349,5.023
		C84.419,31.853,86.393,31.725,88.844,32.01z"/>
	<path fill-rule="evenodd" clip-rule="evenodd" d="M35.741,25.551c0.206,0.193,0.142,0.655,0.479,0.718
		c-0.37,1.225-1.377,1.812-2.871,1.914C32.386,26.432,34.328,25.704,35.741,25.551z"/>
	<path fill-rule="evenodd" clip-rule="evenodd" d="M31.196,29.14c-0.356,1.159-1.3,1.729-2.87,1.674
		c0.225-0.652,1.3-0.455,0.957-1.674C30.159,29.316,30.611,28.551,31.196,29.14z"/>
	<path fill-rule="evenodd" clip-rule="evenodd" d="M190.026,77.697c-1.637,0.172-3.509,0.651-5.023,0.239
		c-0.323-2.529-1.722-3.928-0.957-6.937c-1.497,0.576-2.549,1.598-3.109,3.109c-1.64,0.274-1.972,1.855-3.11,2.632
		c-2.045,0.267-3.171,1.453-4.784,2.152c-4.008-0.058-8.934,0.801-9.568-2.631c-0.386,0.067-0.412-0.227-0.718-0.239
		c-1.433-0.091-1.593,2.143-2.87,1.435c-0.141-1.018,0.079-1.675,1.196-1.435c-0.067-0.626,0.087-1.029,0.718-0.957
		c0.796-2.951,3.025-4.47,4.784-6.458c0.126-0.91,0.5-1.574,0.717-2.393c1.271-0.004,1.403-1.148,2.392-1.436
		c-0.139-1.493,1.155-1.556,1.196-2.87c1.435-0.319,1.419-2.089,2.87-2.392c0.831-1.401,1.384-3.082,3.11-3.588
		c0.618-1.375,1.832-2.154,2.392-3.588c2.798-1.269,6.584-1.548,8.85-3.349c3.068,0.087,5.883,0.424,8.611-0.239
		c0.624-1.131,0.512-2.996,2.153-3.109c1.219-4.043,4.699-5.826,6.219-9.568c1.692-0.676,2.963-2.405,4.784-3.109
		c2.494-0.964,5.292-1.067,5.023,2.631c-0.225,3.097-3.878,4.914-4.066,7.894c-1.092,0.264-1.538,1.173-2.631,1.435
		c-0.604,2.107-1.905,3.517-3.827,4.306c-1.685,2.621-2.625,5.987-5.023,7.894c0.157,0.875-0.518,0.917-0.479,1.674
		c-0.754,0.013-1.326,0.537-1.674,0.957c-0.212,0.257,0.052,0.731-0.239,1.196c-0.155,0.247-0.554,0.183-0.717,0.478
		c-0.741,1.341-1.281,2.924-2.392,4.306c-0.627,0.78-1.782,2.479-1.914,4.066c-1.322,0.672-1.888,2.1-2.871,3.11
		C188.512,75.385,190.16,75.651,190.026,77.697z M177.109,74.109c1.213-1.896,2.802-3.417,4.306-5.023
		c1.709,0.194,1.66-1.37,3.349-1.195c1.47-3.154,3.937-5.313,5.98-7.894c0.353-1.8,1.087-3.219,2.153-4.306
		c0.62-2.182-0.068-3.723-1.196-4.784c-1.337-0.109-1.844-0.274-3.11,0c-0.396,1.478-2.35,0.864-3.349,1.435
		c-1.201,0.686-1.147,1.631-1.914,2.631c-0.278,0.201-0.642,0.315-1.196,0.239c-0.219,1.137-1.111,1.6-1.196,2.871
		c-3.603,2.697-5.47,7.128-8.851,10.047c0.032,0.59,0.036,1.152-0.239,1.435c-1.423,1.637-3.174,4.577-1.914,7.416
		C173.395,77.092,174.156,74.505,177.109,74.109z"/>
	<path fill-rule="evenodd" clip-rule="evenodd" d="M24.499,32.967c0.42,0.058,0.545,0.412,0.478,0.957
		c-0.984-0.107-0.742,1.011-1.914,0.717C23.22,33.762,24.241,33.746,24.499,32.967z"/>
	<path fill-rule="evenodd" clip-rule="evenodd" d="M345.986,40.86c1.591,0.629,4.027,0.044,5.741,0
		c1.209-1.263,2.73-2.213,5.263-2.153c0.361,2.684,0.175,4.525-1.196,5.98c-0.476,0.505-1.412,0.714-1.913,1.196
		c-1.554,1.495-1.812,3.245-2.871,4.784c3.54-0.213,10.618-3.198,11.96,1.435c0.957,0,1.914,0,2.871,0
		c1.221-1.49,3.548-1.874,4.306-3.827c2.194-0.197,4.384-0.4,6.697-0.479c0.365,0.436,0.365,1.956,0,2.392
		c-3.018-0.659-4.238,0.735-7.176,0.718c-1.104,1.129-2.992,1.473-3.588,3.109c-1.883,0.111-2.321,1.666-3.827,2.153
		c0.03,3.061-2.255,3.805-2.393,6.698c-1.113,0.162-1.687,0.865-1.913,1.913c-1.211,0.783-2.214,1.773-2.871,3.11
		c-0.318,0-0.638,0-0.957,0c-1.092,2.974-3.911,4.221-6.937,5.262c-0.442,0.036-0.146,0.811-0.479,0.957c-1.036,0-2.073,0-3.109,0
		c-0.544-1.05-2.136-1.053-2.631-2.152c-0.325-2.318,1.166-2.82,0.956-5.023c0.902-0.317,1.045-1.877,1.914-2.87
		c0.27-0.31,1.192-0.441,1.674-0.957c0.566-0.606,0.656-1.445,1.196-1.914c0.452-0.392,1.514-0.73,2.153-1.196
		c1.165-0.849,2.076-1.776,3.109,0.239c-0.222,0.836-1.123,1.097-1.675,1.674c-0.469,0.491-0.832,1.472-1.435,1.914
		c-0.161,0.117-0.801,0.084-0.957,0.239c-0.205,0.203-0.022,0.758-0.239,0.956c-1.091,1-2.763,2.101-2.87,4.545
		c0.07,0.488,0.646,0.47,0.717,0.957c2.493-1.095,3.883-3.294,5.263-5.502c2.156-0.634,1.895-3.687,4.066-4.305
		c0.11-3,2.513-3.708,1.914-7.416c-0.793-1.473-3.059-0.874-4.306-0.239c-1.063,0.106-1.266-0.647-1.914-0.957
		c-1.039,0.077-1.563,0.668-2.392,0.957c-0.42,0.371-0.197,1.179-0.479,1.675c-0.065,0.116-0.646,0.091-0.718,0.239
		c-0.916,1.882-2.314,4.237-4.545,5.023c-1.331,1.858-2.311,4.068-3.588,5.98c-0.787,0.01-1.19,0.404-2.152,0.239
		c-0.645,0.95-1.602,1.588-1.675,3.109c-0.919,1.234-2.625,1.681-2.87,3.589c-1.702,0.77-2.185,2.759-3.827,3.588
		c0.098,0.576-0.438,0.52-0.239,1.195c-0.858,0.339-1.357,1.035-2.153,1.436c0,0.319,0,0.638,0,0.957
		c-2.2,1.468-3.635,3.7-4.784,6.219c-0.987,0.05-1.14,0.934-1.913,1.196c-0.595,2.276-2.151,3.59-3.11,5.502
		c-1.852,0.362-3.469,1.408-5.022,0c-0.182-0.165-0.959-1.443-0.957-1.436c-0.43-1.858,1.551-3.379,1.674-5.263
		c0.909-0.207,0.801-1.433,2.153-1.195c0.541-1.213,1.366-2.143,2.87-2.393c0.469-2.321,2.787-2.795,3.349-5.023
		c1.141,0.343,0.595-1,1.675-0.717c0.678-1.315,1.624-2.363,2.87-3.11c1.097-1.934,2.729-3.33,4.306-4.784c0-0.318,0-0.638,0-0.956
		c4.157-2.461,5.751-7.486,9.808-10.047c-0.098-0.576,0.437-0.52,0.239-1.196c1.144,0.106,1.049-1.024,1.914-1.196
		c-0.149-2.7,2.735-2.367,2.87-4.784c1.763-0.868,3.4-1.862,4.066-3.828c0.319,0,0.638,0,0.957,0
		c0.085-0.712,0.381-1.213,0.718-1.674c-0.241-0.477-0.598-0.837-0.957-1.196c-1.966,0.027-3.379,0.608-5.263,0.717
		c-1.492,1.298-2.58,3.001-4.066,4.306c-0.113,1.96-1.128,3.019-1.436,4.784c-1.211-0.335-0.656,1.098-1.674,0.957
		c-0.203,3.784-3.645,4.329-4.066,7.894c-1.535,0.219-1.551,1.957-3.11,2.152c0.046,1.003-1.174,0.74-0.956,1.914
		c-1.975,0.736-2.813,2.608-5.023,3.109c-0.565,1.588-2.56,1.747-3.349,3.109c-2.527,0.157-4.526,2.026-6.938,1.914
		c-1.146-0.054-2.505-1.23-4.306-1.196c-1.692-2.611,0.115-5.906,0.479-8.611c1.394-0.68,1.84-2.306,2.153-4.066
		c1.494-0.869,2.116-2.472,3.109-4.066c0.38-0.61,1.282-0.854,1.675-1.436c0.541-0.803,0.384-1.923,1.195-2.631
		c0.991-0.864,2.479-0.773,3.827-1.196c1.194-0.375,3.438-1.492,5.98-0.957c0.272,1.364,1.689,1.242,1.196,3.349
		c-0.023,0.097-0.942,2.079-1.196,2.392c-0.166,0.205-0.767,0.051-0.957,0.239c-0.202,0.199-0.041,0.752-0.239,0.957
		c-0.332,0.343-1.378,0.643-1.674,1.196c-2.225-0.311-2.941,0.886-4.784,0.957c-1.281,1.351-2.955,2.308-3.349,4.545
		c0.164,0.643-0.495,0.462-0.718,0.717c0.03,1.905-0.572,3.769,0,5.502c5.346-0.794,7.367-4.911,11.481-6.937
		c0.847-0.669,1.14-1.891,2.392-2.153c0.066-2.086,1.87-2.436,1.914-4.544c1.027-0.01,1.018-1.056,1.913-1.196
		c0.937-4.964,4.573-7.228,5.263-12.438c-1.296-0.414-2.356-2.058-2.152-4.306c0.099-1.096,1.116-1.998,0.957-2.871
		c1.332-0.501,2.091-1.577,3.109-2.392c1.914,0.08,2.687-0.981,4.784-0.718c1.134,1.181,2.214,2.057,2.152,3.827
		C346.896,38.412,345.227,39.561,345.986,40.86z M319.196,56.169c-0.112,1.113-0.323,1.596,0,2.631
		c2.22,0.226,1.882-2.105,3.827-2.153c0-0.479,0-0.957,0-1.436C321.283,55.068,320.49,55.87,319.196,56.169z"/>
	<path fill-rule="evenodd" clip-rule="evenodd" d="M435.927,69.804c0.741,0.88,0.915-0.823,1.914-0.479
		c0.269,1.272,1.307,1.033,1.195,2.153c-0.157,1.587-2.928,2.293-3.827,0.718c-2.414,1.188-5.787,0.586-6.458-1.914
		c-0.564-0.312-1.653-0.101-2.153-0.479c-0.656,0.3-0.619,1.294-0.717,2.153c-0.82,0.455-1.658,0.894-1.914,1.913
		c-2.189-0.016-4.609,0.867-6.219,0.239c0.059,0.023-1.611-1.303-1.675-1.435c-0.569-1.189,0.129-2.901,0-4.784
		c1.97-2.975,4.657-5.23,5.023-9.808c0.885,0.168,0.597-0.838,0.956-1.196c0.718,0,1.436,0,2.153,0
		c3.572-2.647,6.716-5.722,9.808-8.851c2.243-0.229,3.918-1.025,5.262-2.153c1.781,0.187,2.854-0.337,4.545-0.239
		c0.387-0.571,1.112-0.801,1.914-0.957c1.133-0.86,1.46-2.526,3.109-2.87c0.26-0.322,0.184-1.176,0.479-1.674
		c0.071-0.121,0.644-0.086,0.718-0.239c0.396-0.813,0.713-1.192,1.674-2.153c0.706-0.706,1.489-1.234,2.153-1.914
		c1.479-1.515,3.387-2.059,5.98-0.718c0.779,1.324,0.623,3.972-0.718,4.545c-0.294,3.294-2.868,4.309-3.589,7.176
		c-0.595-0.037-0.74,0.376-1.195,0.479c-0.04,0.678-0.438,0.997-0.479,1.674c-1.273,0.242-1.385,1.646-2.631,1.914
		c0.098,0.576-0.438,0.52-0.239,1.196c-1.622,0.531-2.108,2.197-3.827,2.631c-0.375,3.293-3.029,4.307-4.307,6.697
		c-0.476,0.322-1.139,0.456-1.674,0.718C440.165,65.431,436.748,66.32,435.927,69.804z M453.149,40.86c0.239,0,0.479,0,0.718,0
		c0-0.239,0-0.479,0-0.717c-0.239,0-0.479,0-0.718,0C453.149,40.382,453.149,40.621,453.149,40.86z M452.192,41.817
		c0.16,0,0.319,0,0.479,0c0-0.16,0-0.319,0-0.479c-0.159,0-0.318,0-0.479,0C452.192,41.499,452.192,41.658,452.192,41.817z
		 M447.887,47.08c0.319,0,0.639,0,0.957,0c0.33-0.308,0.237-1.039,0.239-1.674C447.851,45.096,447.284,46.303,447.887,47.08z
		 M440.232,49.95c0.159,0,0.319,0,0.479,0c0-0.16,0-0.319,0-0.479c-0.159,0-0.319,0-0.479,0
		C440.232,49.631,440.232,49.791,440.232,49.95z M436.166,51.385c-0.17,0.597,1.053,0.983,0.239,1.436
		c-0.756-0.122-1.05-0.704-1.913-0.718c-0.405,1.03-1.557,1.314-1.436,2.871c-0.628,0.079-1.031,0.893-1.436,1.196
		c-0.471,0.353-1.199,0.314-1.674,0.718c-1.69,1.435-1.931,4.149-4.066,5.262c-0.388,1.686-1.413,2.733-1.675,4.545
		c0.486,0.312,0.571,1.023,0.957,1.436c1.56,0.364,1.856-0.536,2.631-0.957c1.285-0.408,0.837,0.917,1.914,0.718
		c0.801-0.851,0.044-2.316,1.435-2.871c0.871,0.074,1.557-0.037,2.153-0.239c1.602-1.508,1.606-4.612,4.306-5.023
		c1.035-1.834,2.52-3.221,3.349-5.262c-0.478-1.218-1.958-2.812-0.718-4.306C438.602,50.312,437.546,51.011,436.166,51.385z"/>
	<path fill-rule="evenodd" clip-rule="evenodd" d="M297.907,43.97c-0.396,4.946-4.77,5.915-5.98,10.046
		c0.127,0.192,0.25,0.388,0.239,0.718c2.039,0.463,2.609-1.34,4.306-0.479c-0.622,0.813-1.601,1.27-1.675,2.631
		c-1.986,0.362-3.252,0.203-3.827,2.153c-1.607,0.306-2.813,1.013-2.87,2.87c-0.429-0.03-0.505,0.293-0.957,0.239
		c0.117,0.755-0.431,0.845-0.239,1.675c-3.127,2.933-5.338,6.781-8.851,9.328c0,0.319,0,0.639,0,0.957
		c-1.945,0.681-4.605,3.303-5.979,0.479c-0.117-0.755,0.431-0.845,0.239-1.674c1.076,0.278,0.258-1.337,1.435-0.957
		c0.479-1.594,1.762-2.385,2.153-4.066c1.896-1.373,3.058-3.48,5.023-4.784c-0.081-0.878,0.367-1.228,0.957-1.436
		c-0.173-0.731,0.244-0.872,0.238-1.435c2.607-1.698,2.721-5.891,5.741-7.176c0.895-1.497,1.708-3.076,3.109-4.066
		c0.488-1.824,1.29-3.334,2.871-4.066c0.171-1.07,0.801-2.743,1.435-3.827c0.07-0.119,0.645-0.088,0.718-0.239
		c0.071-0.145-0.109-0.606,0-0.717c0.483-0.488,2.157-1.24,2.632-1.196c1.747,0.163,1.928,1.927,1.435,4.066
		C299.172,43.162,299.165,44.192,297.907,43.97z"/>
	<path fill-rule="evenodd" clip-rule="evenodd" d="M171.129,40.143c0.089,1.444-0.067,2.643-0.239,3.827
		c-2.375,2.195-5.739,0.263-5.023-2.631C166.337,39.438,169.531,38.368,171.129,40.143z"/>
	<path fill-rule="evenodd" clip-rule="evenodd" d="M117.07,49.232c0.014,1.832,0.362,2.864,0,4.545
		c-0.991,0.125-0.844,1.389-1.914,1.435c-0.051,1.268-0.664,1.661-1.436,2.631c-1.115,1.403-2.51,2.846-3.827,4.306
		c-0.507,3.001-2.708,4.309-4.545,5.98c0.17,0.887-0.408,1.026-0.239,1.913c-2.054,0.679-3.355,3.938-1.914,5.98
		c2.497,0.343,3.684-0.623,5.502-0.957c1.701-2.445,4.388-3.904,6.458-5.98c0.749-0.049,1.756,0.162,2.153-0.238
		c0.627-0.569,0.596-1.796,0.957-2.632c0.577,0.098,0.52-0.437,1.196-0.239c0.558-1.116,0.997-2.352,2.392-2.631
		c0.201-0.277,0.315-0.642,0.239-1.196c0.919-0.118,0.86-1.213,1.914-1.196c0.532-1.78,1.741-2.883,2.87-4.066
		c0.596-2.992,2.459-4.717,3.11-7.655c0.797-0.864,2.856-1.411,4.066-0.479c1.384,2.835-0.567,5.362-1.196,7.655
		c-1.771,2.295-3.635,4.498-4.784,7.416c-1.01,0.027-0.704,1.369-1.914,1.195c-0.683,3.225-3.675,4.139-4.067,7.655
		c-1.098,0.468-1.558,2.677-0.957,4.066c0.833,0.283,1.362,0.87,2.153,1.195c1.356-0.079,1.844-1.026,3.349-0.956
		c1.094-1.293,2.982-1.412,4.066-2.632c0.321-0.36-0.026-0.672,0.239-1.196c0.107-0.212,0.563-0.237,0.718-0.478
		c0.336-0.526,1.05-1.133,1.435-1.675c0.152-0.214-0.143-0.735,0-0.957c0.265-0.41,0.849-0.672,1.196-1.195
		c0.351-0.529,0.742-1.045,0.717-1.675c1.456-0.937,2.629-2.155,3.11-4.066c0.5,0.101,0.633-0.164,0.957-0.239
		c0-0.319,0-0.638,0-0.957c1.796-0.755,2.137-2.966,3.588-4.066c-0.169-0.887,0.409-1.026,0.239-1.914
		c0.6-0.198,0.756-0.838,1.196-1.196c0.108-1.407,0.742-2.288,1.674-2.871c0.109-1.326,0.827-2.043,2.153-2.153
		c0.039,0.28,0.437,0.202,0.718,0.239c0.608,1.813,0.135,3.458-0.718,4.545c-0.198,0.253-0.602,0.515-0.717,0.717
		c-0.631,1.107-0.346,2.538-0.957,3.828c-0.38,0.801-1.402,1.562-1.914,1.914c-0.037,0.761-0.542,1.052-0.479,1.914
		c-1.98,1.288-2.556,3.982-4.545,5.263c0.192,0.829-0.356,0.919-0.239,1.674c-2.486,1.341-4.258,3.396-5.262,6.22
		c-0.558,0-1.116,0-1.674,0c-0.489,0.548-1.169,0.904-1.196,1.913c-1.19,0.006-1.655,0.737-2.392,1.196
		c0.154,0.952-0.633,0.962-0.479,1.914c-1.87,0.7-4.244-1.148-5.263,0.717c-2.043,0.05-3.459-0.527-5.262-0.717
		c-0.765-1.389-1.607-2.699-1.674-4.784c-0.748-0.289-0.984-1.089-1.196-1.914c-2.177-0.163-3.182,1.695-4.784,2.871
		c-0.364,0.267-0.513,0.66-0.717,0.717c-0.685,0.192-1.793-0.313-2.631,0c-1.34,0.502-2.367,2.989-4.306,2.871
		c-0.391-0.024-1.905-0.427-2.153-1.675c-1.535,0.1-2.153-0.717-3.11-1.196c-1.62-3.698,0.064-7.111,2.871-8.372
		c0.84-3.066,3.458-4.356,4.306-7.415c1.987-0.963,2.371-3.53,4.545-4.306c0.431-1.721,1.311-2.995,2.392-4.066
		c0.231-1.224,0.109-1.578-0.239-2.631c-1.945,0.128-2.506,1.64-5.023,1.196c-0.717,0.479-1.375,1.017-1.914,1.674
		c-1.976,0.256-3.323,1.143-4.066,2.631c-1.01-0.054-1.545,0.369-2.392,0.479c-0.792,2.317-3.338,2.88-3.588,5.741
		c-1.165-0.128-1.12,0.953-1.914,1.196c0,0.318,0,0.638,0,0.956c-3.576,2.883-6.662,6.256-7.894,11.482
		c0.666,0.85,2.063,0.967,2.871,1.674c0.347,2.898-2.096,3.007-4.784,2.871c-1.01-1.349-2.661-2.19-2.87-3.827
		c-0.263-2.062,2.247-5.306,3.349-6.698c0.552-0.697,0.737-1.613,1.435-1.674c0-0.399,0-0.798,0-1.196
		c2.361-1.785,3.301-4.992,5.741-6.698c-0.064-0.861,0.442-1.153,0.479-1.914c2.322-0.468,3.002-2.579,5.262-3.11
		c0.354-0.523,0.466-1.288,0.957-1.674c2.47-0.241,4.042-1.38,4.784-3.349c2.24,0.007,3.708-0.757,4.784-1.914
		C109.889,49.18,114.273,47.198,117.07,49.232z"/>
	<path fill-rule="evenodd" clip-rule="evenodd" d="M421.097,50.907c-0.276,2.567,0.569,4.816,0,6.937
		c-1.734,0.932-3.775,0.599-5.98,0.239c-0.13-1.066-0.235-2.157-0.479-3.109c-2.002,0.23-3.262,1.203-3.588,3.109
		c-1.83,0.769-3.453,3.366-4.066,5.741c-2.07,1.995-3.639,4.494-5.98,6.219c0.313,1.191-0.736,1.018-0.717,1.914
		c-1.487,0.25-2.869,2.671-4.784,2.152c-0.67-0.181-1.852-1.601-1.436-3.349c0.461-0.496,1-0.913,1.675-1.196
		c0.382-1.77,1.231-3.073,2.87-3.588c1.078-2.59,3.807-3.528,4.306-6.697c0.444-0.193,0.967-0.31,1.196-0.718
		c-0.116-1.631,0.17-2.86,0.479-4.066c-0.085-0.314-0.422-0.376-0.479-0.718c-1.155,0.06-2.59,0.275-3.11,1.196
		c-0.123,0.218,0.089,0.766-0.239,1.196c-0.674,0.885-1.991,1.187-1.913,2.871c-1.171-0.214-0.646,1.268-1.914,0.957
		c-0.647,2.621-2.542,3.996-3.827,5.98c-3.779,2.36-6.159,6.12-9.328,9.09c-2.075-0.276-4.341,0.378-5.98,0
		c-1.56-0.359-1.868-1.471-2.87-2.152c-0.198-1.634,0.185-2.686,0.717-3.589c-0.842-0.479-1.336,1.127-2.392,1.196
		c-0.163,1.83-2.001,1.986-2.393,3.588c-2.069,0.777-4.833,2.404-7.654,1.914c-1.172-0.204-1.653-1.271-2.87-1.196
		c-1.156-1.595-0.064-3.689,1.436-4.066c1.351-3.273,3.081-6.168,6.219-7.654c0-0.319,0-0.638,0-0.957
		c2.143-0.728,2.143-3.598,4.545-4.066c1.507-2.64,3.842-4.451,6.459-5.98c1.46,0.185,2.237-0.313,3.588-0.239
		c0.499-1.582,4.299-1.662,4.784,0c2.319-0.152,2.168-2.775,5.501-1.914c0.831,1.373,1.343,5.125-0.718,5.501
		c-0.218,0.884-0.503,1.887-0.956,2.631c-0.188,0.309-0.688,0.358-0.957,0.718c-0.298,0.396-0.286,0.996-0.479,1.196
		c-0.257,0.267-1.076,0.418-1.436,0.718c-0.425,0.354-0.456,1.274-1.195,0.957c-1.016,2.493-2.781,4.236-5.023,5.502
		c0.018,1.812-2.122,2.607-1.196,4.545c1.579,0.117,3.296-1.412,4.784-2.153c0.076-0.562,0.378-0.897,0.239-1.674
		c0.849-0.188,0.839-1.234,1.914-1.196c1.009-1.94,3.568-2.332,4.066-4.784c2.494-0.694,3.574-2.804,4.066-5.501
		c0.941-0.522,1.114-1.655,1.913-2.392c1.021-0.941,3.021-1.19,3.109-3.109c2.36-1.061,4.6-0.936,6.938,0
		c0.308,0.809,1.01,1.223,1.196,2.152c0.398,0,0.797,0,1.195,0c0.657-0.619,1.483-1.068,1.675-2.152
		C415.052,49.882,418.879,47.738,421.097,50.907z M379.953,55.93c-1.377,2.689-3.794,4.338-5.979,6.219c0,0.319,0,0.638,0,0.957
		c-1.784,0.528-1.939,2.686-3.827,3.109c-0.66,2.492-3.728,3.71-3.588,6.22c1.1,0.447,2.119-0.571,2.631-1.436
		c1.295,0.099,1.413-0.979,2.631-0.957c0.807-1.267,1.271-2.875,3.11-3.109c1.23-1.799,3.311-2.749,5.022-4.066
		c0.203-0.924,0.612-1.917,1.196-2.631c0.15-0.184,0.784-0.041,0.957-0.239c0.177-0.203,0.097-0.765,0.239-0.957
		c0.392-0.529,1.446-0.704,1.674-0.957c0.189-0.21,0.016-0.875,0.239-1.196c0.561-0.803,2.318-0.989,1.675-2.631
		C383.685,53.635,382.013,55.573,379.953,55.93z"/>
	<path fill-rule="evenodd" clip-rule="evenodd" d="M164.91,56.648c-1.17-0.134-0.482,1.591-1.674,1.435
		c-0.428,2.203-2.02,3.243-3.827,4.066c-0.439,0.278-0.166,1.27-1.196,0.957c-0.164,2.148-1.65,2.975-2.871,4.066
		c0.053,0.771-0.423,1.012-0.239,1.913c-0.74,0.537-0.902,1.65-1.914,1.914c-0.551,2.045-2.305,5.621-0.239,7.415
		c0.129,0.848-0.847,0.589-0.718,1.436c-2.803,0.092-4.17-1.252-5.98-2.153c-0.734-2.354,0.097-4.715,0.718-6.458
		c1.538-0.137,1.487-1.861,2.87-2.153c0.273-1.35,1.25-2.42,1.914-3.349c0.845-1.182,2.338-2.831,3.588-4.066
		c1.112-1.098,2.726-2.031,3.588-3.109c0.788-0.986,0.631-2.525,2.153-2.871c-0.07-1.585,0.924-2.106,0.957-3.588
		c1.882-0.485,3.732-0.189,4.066,1.196C166.441,54.688,164.791,55.134,164.91,56.648z"/>
	<path fill-rule="evenodd" clip-rule="evenodd" d="M306.758,54.495c0.629,1.414,0.166,2.449,0.239,4.306
		c-1.532,0.62-1.35,2.957-2.871,3.588c0.117,0.755-0.431,0.845-0.239,1.675c-0.826,0.13-0.897,1.016-1.674,1.195
		c-0.33,2.541-2.05,3.692-2.632,5.98c-0.038,0.676,0.719,0.558,0.718,1.196c-0.187,0.93-0.327,1.904-0.957,2.392
		c-2.332,0.032-3.657,1.898-6.219,0.957c-0.592-1.217-1.05-4.767,0.718-5.023c0.603-3.782,3.282-5.488,4.066-9.09
		c0.491-0.625,1.497-0.735,1.195-2.153c-1.046-0.468-2.536-0.493-2.152-2.392c1.242-0.973,3.188,0.19,4.784-0.479
		c0.118-0.839,0.356-1.557,0.239-2.631C303.911,53.549,305.554,52.876,306.758,54.495z"/>
	<path fill-rule="evenodd" clip-rule="evenodd" d="M459.369,53.777c0.192,0.126,0.388,0.25,0.717,0.239c0,1.355,0,2.711,0,4.066
		c-1.186,1.286-2.047,2.896-2.152,5.263c-1.879,1.709-2.839,4.337-3.827,6.937c-1.448,1.008-5.019,1.408-6.937,0.479
		c-0.589-1.405-1.309-2.679-1.914-4.066c0.731-1.9,1.552-3.711,2.152-5.741c1.482,0.2,3.518-0.302,4.306,0
		c1.278,0.317,0.615,2.574,1.675,3.11c0.844-0.114,0.786-1.128,0.957-1.914c1.198-0.795,1.485-2.501,2.631-3.349
		c-0.169-0.887,0.409-1.027,0.239-1.914C458.445,56.362,458.304,54.466,459.369,53.777z"/>
	<path fill-rule="evenodd" clip-rule="evenodd" d="M200.791,68.13c0.689,1.058,0.721,1.969,0.239,3.349
		c2.069,1.573,4.285-0.588,5.741-1.196c0.433,0.97,0.471,1.407,0.239,2.632c-1.441-0.006-0.986,1.884-1.914,2.392
		c-1.735-0.086-2.974,0.688-4.306,0.479c-1.917-0.303-2.577-2.12-4.066-2.87c-0.413-3.045,2.108-3.154,3.11-4.784
		C200.153,68.13,200.472,68.13,200.791,68.13z"/>
	<path fill-rule="evenodd" clip-rule="evenodd" d="M195.289,74.109c0.719-0.241,0.424,0.533,0.479,0.957c-0.239,0-0.479,0-0.718,0
		C194.949,74.566,195.214,74.433,195.289,74.109z"/>
	<path fill-rule="evenodd" clip-rule="evenodd" d="M192.179,76.502c0.035-0.093,0.506-0.423,0.718-0.239
		C193.371,76.674,191.837,77.415,192.179,76.502z"/>
	<path fill-rule="evenodd" clip-rule="evenodd" d="M3.449,107.837c0.711,0.021,0.64,1.427-0.239,1.196
		C3.133,108.479,3.248,108.115,3.449,107.837z"/>
</g>
</svg>
