<?xml version="1.0" encoding="UTF-8" standalone="no"?>
<!-- Created with Inkscape (http://www.inkscape.org/) -->

<svg
   xmlns:dc="http://purl.org/dc/elements/1.1/"
   xmlns:cc="http://creativecommons.org/ns#"
   xmlns:rdf="http://www.w3.org/1999/02/22-rdf-syntax-ns#"
   xmlns:svg="http://www.w3.org/2000/svg"
   xmlns="http://www.w3.org/2000/svg"
   xmlns:sodipodi="http://sodipodi.sourceforge.net/DTD/sodipodi-0.dtd"
   xmlns:inkscape="http://www.inkscape.org/namespaces/inkscape"
   width="211"
   height="91"
   id="svg2"
   version="1.1"
   inkscape:version="0.48.0 r9654"
   style="display:inline"
   sodipodi:docname="David_Kawananakoa_1890_signature.svg">
  <defs
     id="defs4" />
  <sodipodi:namedview
     id="base"
     pagecolor="#ffffff"
     bordercolor="#666666"
     borderopacity="1.0"
     inkscape:pageopacity="0.0"
     inkscape:pageshadow="2"
     inkscape:zoom="3.5723973"
     inkscape:cx="101.95958"
     inkscape:cy="31.014538"
     inkscape:document-units="px"
     inkscape:current-layer="layer6"
     showgrid="false"
     fit-margin-top="0"
     fit-margin-left="0"
     fit-margin-right="0"
     fit-margin-bottom="0"
     inkscape:window-width="1440"
     inkscape:window-height="820"
     inkscape:window-x="-8"
     inkscape:window-y="-8"
     inkscape:window-maximized="1" />
  <metadata
     id="metadata7">
    <rdf:RDF>
      <cc:Work
         rdf:about="">
        <dc:format>image/svg+xml</dc:format>
        <dc:type
           rdf:resource="http://purl.org/dc/dcmitype/StillImage" />
        <dc:title></dc:title>
      </cc:Work>
    </rdf:RDF>
  </metadata>
  <g
     inkscape:groupmode="layer"
     id="layer6"
     inkscape:label="Warstwa"
     style="display:inline">
    <path
       style="font-size:medium;font-style:normal;font-variant:normal;font-weight:normal;font-stretch:normal;text-indent:0;text-align:start;text-decoration:none;line-height:normal;letter-spacing:normal;word-spacing:normal;text-transform:none;direction:ltr;block-progression:tb;writing-mode:lr-tb;text-anchor:start;baseline-shift:baseline;color:#000000;fill:#000000;fill-opacity:1;stroke:none;stroke-width:1.5;marker:none;visibility:visible;display:inline;overflow:visible;enable-background:accumulate;font-family:Sans;-inkscape-font-specification:Sans"
       d="m 92.84375,13.21875 c -0.188555,0.03882 -0.360399,0.153378 -0.46875,0.3125 -3.706884,4.904908 -9.834554,6.537923 -15.03125,10.25 -2.784695,1.989149 -4.82486,4.561211 -7.78125,5.6875 -0.708339,0.269855 -2.783006,0.516537 -4.6875,0.96875 -0.623675,0.148089 -1.214557,0.340543 -1.78125,0.5625 1.262898,-1.162144 2.880943,-2.137443 4.34375,-3.3125 0.53424,-0.395789 0.09438,-1.446569 -0.5625,-1.34375 -0.139342,0.02541 -0.271064,0.09127 -0.375,0.1875 -1.696058,1.362425 -3.940423,2.533499 -5.5,4.5 -0.653388,0.823871 -4.149038,5.210016 -7.59375,9.375 -1.722356,2.082492 -3.438312,4.125989 -4.78125,5.625 -0.671469,0.749506 -1.228448,1.367332 -1.65625,1.78125 -0.05679,0.05494 -0.07382,0.07753 -0.125,0.125 -0.06842,0.02897 -0.123064,0.03407 -0.1875,0.0625 -0.226675,0.100008 -0.399795,0.141612 -0.625,0.3125 -0.0563,0.04272 -0.125645,0.108061 -0.21875,0.25 -0.04655,0.07097 -0.105113,0.150538 -0.125,0.3125 -0.01989,0.161962 0.0255,0.384849 0.125,0.53125 0.199001,0.292802 0.424446,0.321056 0.53125,0.34375 0.106804,0.02269 0.14872,0.03125 0.21875,0.03125 0.52226,0 0.619555,-0.196337 0.8125,-0.34375 0.07622,-0.05823 0.168563,-0.148168 0.25,-0.21875 0.321089,-0.131423 0.673484,-0.273534 0.90625,-0.375 0.357599,-0.150334 0.549657,-0.608317 0.40625,-0.96875 0.27418,-0.292631 0.497229,-0.491839 0.8125,-0.84375 1.368416,-1.52745 3.083636,-3.565889 4.8125,-5.65625 2.357543,-2.850493 4.367655,-5.366824 5.84375,-7.21875 0.05664,0.28982 0.1612,0.575107 0.28125,0.84375 0.240112,0.537287 0.570043,1.076754 0.875,1.625 0.609914,1.096493 1.070971,2.184838 0.90625,2.84375 -0.280541,1.122208 -1.026944,2.008899 -1.90625,2.9375 -0.879306,0.928601 -1.886676,1.855623 -2.5625,3.0625 -0.156995,0.28036 -0.654717,1.210917 -1.15625,2.09375 -0.250767,0.441416 -0.491927,0.862227 -0.6875,1.15625 -0.01772,0.02664 -0.01447,0.03812 -0.03125,0.0625 -0.09537,0.08032 -0.199269,0.137777 -0.28125,0.21875 -0.05111,0.05048 -0.07485,0.09415 -0.15625,0.21875 -0.0407,0.0623 -0.145379,0.110536 -0.125,0.46875 0.0025,0.04478 -1.54e-4,0.155658 0,0.15625 1.54e-4,5.92e-4 0.06223,0.155739 0.0625,0.15625 5.42e-4,10e-4 0.248979,0.280557 0.25,0.28125 5.11e-4,3.46e-4 0.113145,0.04468 0.15625,0.0625 0.0431,0.01782 0.05771,0.02288 0.09375,0.03125 0.07208,0.01673 0.141348,0.03125 0.1875,0.03125 0.336699,0 0.440181,-0.115101 0.53125,-0.1875 0.09107,-0.0724 0.160221,-0.150885 0.21875,-0.21875 0.03146,-0.03648 0.0634,-0.08619 0.09375,-0.125 0.104519,-0.08661 0.224365,-0.182923 0.3125,-0.25 0.02203,-0.01677 0.0134,-0.04931 0.03125,-0.0625 0.153419,-0.06878 0.0851,-0.04724 0.0625,-0.03125 0.292595,-0.155902 0.455348,-0.522095 0.375,-0.84375 0.08154,-0.139261 0.136701,-0.261821 0.21875,-0.40625 0.51901,-0.913597 1.054419,-1.911901 1.15625,-2.09375 0.510093,-0.910917 1.415768,-1.769994 2.34375,-2.75 0.927982,-0.980006 1.868896,-2.100521 2.25,-3.625 0.361853,-1.44747 -0.397399,-2.797973 -1.03125,-3.9375 -0.316926,-0.569764 -0.626964,-1.084836 -0.8125,-1.5 -0.185536,-0.415164 -0.190727,-0.676741 -0.1875,-0.6875 0.09604,-0.320143 0.426641,-0.684092 1.03125,-1 0.604609,-0.315908 1.421089,-0.569589 2.3125,-0.78125 1.782821,-0.423323 3.706629,-0.617388 4.875,-1.0625 3.42541,-1.304971 5.569417,-4.018259 8.125,-5.84375 4.899582,-3.499843 11.266188,-5.167114 15.34375,-10.5625 0.396527,-0.471524 -0.114229,-1.337588 -0.71875,-1.21875 z m -43.96875,3.375 c -0.826157,-0.005 -1.679467,0.101167 -2.53125,0.28125 -3.407132,0.720331 -6.841554,2.66189 -8.53125,4.8125 -0.857794,1.091782 -1.75224,2.712366 -1.875,4.25 -0.06138,0.768817 0.114213,1.624008 0.78125,2.15625 0.161602,0.128945 0.399494,0.138622 0.59375,0.21875 -2.117456,2.837435 -4.422556,5.524279 -7,7.9375 -0.750386,-0.387238 -1.632566,-0.685504 -2.6875,-0.84375 -1.319004,-0.197859 -2.739879,0.387941 -4.25,1.25 -1.510121,0.862059 -3.09421,2.070073 -4.65625,3.375 -3.124081,2.609854 -6.065001,5.627447 -7.40625,6.96875 -0.209904,0.209913 -1.237032,1.046507 -2.0625,1.9375 -0.4127338,0.445496 -0.8043883,0.903376 -1.0625,1.40625 -0.1290559,0.251437 -0.2222697,0.53606 -0.25,0.84375 -0.02773,0.30769 0.03445,0.650089 0.25,0.9375 0.176209,0.234955 0.4507987,0.343027 0.625,0.375 0.1742013,0.03197 0.2992133,0.01638 0.4375,0 0.2765734,-0.03275 0.5626186,-0.112039 0.875,-0.21875 0.624763,-0.213421 1.365088,-0.562077 2.1875,-0.96875 1.644823,-0.813347 3.510944,-1.891854 4.75,-2.75 4.60084,-3.186452 9.204544,-6.53528 13.40625,-10.34375 0.124731,0.111163 0.300033,0.191731 0.40625,0.3125 0.683907,0.77761 1.06681,1.798614 1.25,3.03125 0.36638,2.465271 -0.07171,5.640429 0.59375,8.46875 0.02344,0.09963 0.06174,0.50982 0.09375,0.96875 0.03201,0.45893 0.0807,0.977318 0.1875,1.5 0.106798,0.522682 0.272671,1.064365 0.6875,1.5 0.414829,0.435635 1.176352,0.597475 1.84375,0.375 0.852793,-0.284275 1.524518,-0.874232 2.15625,-1.46875 0.631732,-0.594518 1.202235,-1.213144 1.71875,-1.59375 1.343773,-0.990189 2.569417,-2.151755 3.53125,-3.5625 3.809527,-5.587534 7.237607,-10.894645 9.8125,-16.84375 0.114442,-0.02638 0.229768,-4.5e-5 0.34375,-0.03125 2.46006,-0.673504 5.010941,-2.454644 6.65625,-3.59375 0.388162,-0.18808 0.526766,-0.739116 0.28125,-1.09375 -0.245516,-0.354634 -0.812324,-0.422115 -1.125,-0.125 -1.445978,1.001102 -3.546143,2.327388 -5.4375,3.03125 0.674545,-1.719236 1.336478,-3.452429 1.84375,-5.3125 0.193415,-0.70922 -0.02699,-1.323948 -0.21875,-1.9375 C 54.901988,21.230198 54.665296,20.6209 54.5625,20.3125 53.983735,18.576134 52.741506,17.468629 51.25,16.96875 c -0.745753,-0.24994 -1.548843,-0.370001 -2.375,-0.375 z m 0,1.5 c 0.697219,0.0043 1.34323,0.09255 1.90625,0.28125 1.12604,0.377393 1.931821,1.076659 2.375,2.40625 0.137435,0.41232 0.365985,0.971227 0.53125,1.5 0.165265,0.528773 0.1947,1.067351 0.1875,1.09375 -0.575668,2.110868 -1.296155,4.095974 -2.09375,6.03125 -0.554895,0.03865 -1.18148,0.170298 -1.5625,-0.03125 -0.609708,-0.322517 -1.143368,-0.979023 -1.40625,-2.46875 0.01896,0.107435 0.02927,-0.318074 0.15625,-0.75 0.126979,-0.431926 0.313539,-0.943888 0.5,-1.46875 0.186461,-0.524862 0.376768,-1.057633 0.5,-1.5 0.06162,-0.221184 0.103752,-0.413604 0.125,-0.625 0.02125,-0.211396 0.125874,-0.499111 -0.25,-0.875 -4.5e-5,-4.5e-5 -0.593634,-0.218762 -0.59375,-0.21875 -1.16e-4,1.2e-5 -0.187314,0.03118 -0.1875,0.03125 -3.72e-4,1.39e-4 -0.106677,0.05223 -0.125,0.0625 -0.03665,0.02053 -0.02017,0.02378 -0.03125,0.03125 -0.02215,0.01494 -0.04939,0.02158 -0.0625,0.03125 -0.02622,0.01933 -0.059,0.03578 -0.09375,0.0625 -0.06951,0.05344 -0.167454,0.129886 -0.28125,0.21875 -0.227591,0.177728 -0.528732,0.41289 -0.84375,0.65625 -0.315018,0.24336 -0.640991,0.493033 -0.90625,0.6875 -0.265259,0.194467 -0.560478,0.386088 -0.46875,0.34375 -2.243704,1.035598 -3.801114,2.260054 -5.8125,2.96875 0.393553,-0.606353 0.881096,-1.120886 1.25,-1.75 0.204564,-0.343613 0.09363,-0.85796 -0.25,-1.0625 -0.343627,-0.20454 -0.857984,-0.06239 -1.0625,0.28125 -0.613229,1.045776 -1.378468,1.953219 -2.0625,2.9375 -0.179704,-0.03795 -0.586214,-0.0066 -0.65625,-0.0625 -0.173179,-0.138183 -0.257731,-0.355494 -0.21875,-0.84375 0.07796,-0.976512 0.86686,-2.583354 1.5625,-3.46875 1.324016,-1.68518 4.602919,-3.604469 7.65625,-4.25 0.763333,-0.161383 1.521531,-0.254307 2.21875,-0.25 z m 152.03125,3.125 c -0.0649,0.01245 -0.12812,0.03353 -0.1875,0.0625 -9.3398,4.708394 -19.63754,11.39009 -26.53125,19.875 -0.58095,0.715046 -1.55015,2.321554 -2.59375,3.84375 -0.46571,0.67928 -0.93081,1.294917 -1.34375,1.78125 -0.31418,0.249758 -0.65543,0.426309 -0.96875,0.71875 0.0459,-0.04284 -0.12093,0.05439 -0.25,0.15625 -0.0645,0.05093 -0.10712,0.06204 -0.25,0.28125 -0.0357,0.0548 -0.0952,0.134348 -0.125,0.28125 -0.0298,0.146902 -0.01,0.403923 0.125,0.59375 0.26986,0.379653 0.54583,0.3125 0.65625,0.3125 0.43745,0 0.72884,-0.171284 1,-0.375 0.27116,-0.203716 0.51835,-0.455256 0.78125,-0.75 0.0523,-0.05867 0.10346,-0.15692 0.15625,-0.21875 0.45249,-0.348031 0.92739,-0.711598 1.4375,-1.03125 0.008,0.0061 0.0312,0.03124 0.0312,0.03125 0.89801,0.449022 1.92485,1.051981 2.78125,1.53125 0.4282,0.239635 0.81171,0.445563 1.15625,0.59375 0.17227,0.07409 0.31858,0.147727 0.5,0.1875 0.18142,0.03977 0.41321,0.08668 0.75,-0.09375 0.33205,-0.157412 0.49811,-0.591266 0.375,-0.9375 -0.12311,-0.346234 -0.51811,-0.556292 -0.875,-0.46875 -0.008,-0.0024 -0.0222,0.003 -0.0312,0 -0.0443,-0.01478 -0.0534,-0.0317 -0.125,-0.0625 -0.2443,-0.105072 -0.61948,-0.300811 -1.03125,-0.53125 -0.61401,-0.343617 -1.38879,-0.756219 -2.125,-1.15625 0.67265,-0.394207 1.40328,-0.824396 2.46875,-1.5 0.72645,-0.460637 1.46218,-0.942739 2.03125,-1.375 0.28453,-0.216131 0.51146,-0.42254 0.71875,-0.625 0.20729,-0.20246 0.4113,-0.358897 0.53125,-0.71875 0.0393,-0.117892 0.14726,-0.37517 -0.125,-0.75 -0.13613,-0.187415 -0.34943,-0.291731 -0.5,-0.3125 -0.15057,-0.02077 -0.24423,0.0145 -0.3125,0.03125 -0.27306,0.06699 -0.33731,0.123224 -0.4375,0.1875 -0.20038,0.128552 -0.41331,0.285052 -0.40625,0.28125 -0.45977,0.247579 -1.28273,0.464086 -2.09375,0.75 -0.27034,0.09531 -0.54082,0.243143 -0.8125,0.375 0.01,-0.01231 0.0538,-0.08308 0.0625,-0.09375 6.67313,-8.213414 16.83552,-14.817236 26.0625,-19.46875 0.33205,-0.157412 0.49811,-0.591266 0.375,-0.9375 -0.12311,-0.346234 -0.51811,-0.556292 -0.875,-0.46875 z M 48.09375,24.125 c -0.0086,0.02434 -0.02256,0.03805 -0.03125,0.0625 -0.18615,0.523987 -0.38543,1.066486 -0.53125,1.5625 -0.14582,0.496014 -0.283394,0.862827 -0.1875,1.40625 0.312143,1.768883 1.063265,2.984343 2.15625,3.5625 0.477375,0.252517 1.005149,0.307533 1.53125,0.34375 -2.475464,5.492734 -5.711897,10.516816 -9.34375,15.84375 -0.851157,1.248415 -1.924111,2.310821 -3.15625,3.21875 -0.681975,0.502528 -1.286255,1.133436 -1.875,1.6875 -0.588745,0.554064 -1.180946,1.008226 -1.625,1.15625 -0.286874,0.09563 -0.211777,0.07296 -0.28125,0 -0.06947,-0.07296 -0.20078,-0.35617 -0.28125,-0.75 C 34.38828,51.82492 34.343658,51.321723 34.3125,50.875 34.281342,50.428277 34.276057,50.063883 34.1875,49.6875 33.615861,47.257935 34.007495,44.127734 33.59375,41.34375 33.386877,39.951758 32.944825,38.605527 32,37.53125 c -0.127045,-0.144452 -0.323798,-0.242639 -0.46875,-0.375 2.765329,-2.606827 5.249215,-5.501163 7.5,-8.625 0.17625,-0.01805 0.311085,0.0031 0.5,-0.03125 3.205255,-0.582797 4.98897,-2.461211 7.375,-3.5625 0.288277,-0.133057 0.434773,-0.26056 0.71875,-0.46875 0.139703,-0.10242 0.31279,-0.225453 0.46875,-0.34375 z M 91.375,30.78125 c -5.612337,0.264204 -10.904787,4.093527 -14.625,8.03125 -1.860107,1.968861 -3.30774,3.97078 -4.21875,5.65625 -0.455505,0.842735 -0.784072,1.602855 -0.9375,2.28125 -0.153428,0.678395 -0.189058,1.366845 0.3125,1.90625 0.83609,0.899181 2.092984,0.989994 3.125,0.59375 1.032016,-0.396244 1.994861,-1.159552 2.90625,-2.03125 0.0876,-0.08379 0.101254,-0.133109 0.1875,-0.21875 0.08409,0.554426 0.251956,1.06444 0.65625,1.46875 0.442856,0.442874 1.075951,0.449773 1.59375,0.34375 0.517799,-0.106023 1.026851,-0.31699 1.59375,-0.625 0.882462,-0.479463 1.861664,-1.274873 2.8125,-2.03125 -0.04171,0.289701 -0.190636,0.557311 -0.09375,0.875 0.20784,0.681508 0.892473,1.156631 1.78125,1.34375 0.979454,0.206209 1.913884,-0.24191 3,-0.84375 0.216241,-0.119824 0.434866,-0.330832 0.65625,-0.46875 0.166725,0.09372 0.248934,0.294251 0.4375,0.3125 0.564466,0.06964 1.031012,-0.680893 0.71875,-1.15625 0.498368,-0.368516 1.005779,-0.645033 1.46875,-1.0625 1.034496,-0.93282 1.929129,-1.923078 2.4375,-2.9375 0.254186,-0.507211 0.437507,-1.043112 0.40625,-1.59375 -0.03126,-0.550638 -0.334083,-1.109922 -0.8125,-1.46875 -0.433156,-0.32488 -0.989457,-0.428499 -1.46875,-0.3125 -0.479293,0.115999 -0.911172,0.390259 -1.28125,0.71875 -0.740155,0.656981 -1.372697,1.617033 -1.875,2.625 -0.502303,1.007967 -0.846651,2.039874 -0.9375,2.96875 -0.02213,0.226271 0.04396,0.438819 0.0625,0.65625 -0.1809,0.111788 -0.357793,0.310134 -0.53125,0.40625 -0.963223,0.533743 -1.88102,0.70597 -1.96875,0.6875 -0.594943,-0.125256 -0.626375,-0.214539 -0.65625,-0.3125 -0.02988,-0.09796 0.01554,-0.449654 0.1875,-0.875 0.17196,-0.425346 0.432582,-0.918405 0.65625,-1.40625 0.01919,-0.04186 0.04277,-0.08294 0.0625,-0.125 0.564454,-0.550378 1.216365,-1.130755 1.625,-1.625 0.383106,-0.463367 0.680862,-0.870812 0.875,-1.28125 0.09707,-0.205219 0.175081,-0.387833 0.1875,-0.65625 0.01242,-0.268417 -0.121819,-0.692918 -0.40625,-0.90625 -0.129193,-0.0969 -0.281474,-0.06938 -0.4375,-0.09375 0.872702,-1.058732 1.443138,-1.611736 2.3125,-2.875 0.885466,-1.286664 1.643482,-2.514876 1.9375,-3.59375 C 93.272009,32.616813 93.323864,32.031993 93,31.5 92.676136,30.968007 92.015788,30.751084 91.375,30.78125 z m 0.09375,1.5 c 0.157129,-0.0074 0.221009,-0.0067 0.25,0 -0.02445,-0.04016 0.03272,0.119332 -0.0625,0.46875 -0.190449,0.698836 -0.841464,1.895631 -1.6875,3.125 -1.692073,2.458738 -4.081149,5.162726 -4.59375,5.71875 -0.01138,0.02033 -0.02181,0.0412 -0.03125,0.0625 -0.02204,0.01958 -0.04292,0.04046 -0.0625,0.0625 -0.158987,0.253147 -0.146028,0.603057 0.03125,0.84375 0.01656,0.0449 -0.0212,0.122576 0,0.15625 0.135799,0.215723 0.24674,0.298985 0.34375,0.375 0.04851,0.03801 0.06342,0.06166 0.09375,0.09375 -0.0231,0.0532 -0.02102,0.145366 -0.03125,0.1875 -0.396987,0.377589 -0.656914,0.722435 -1.09375,1.09375 -1.142048,0.970753 -2.394166,1.873339 -3.375,2.40625 -0.490417,0.266456 -0.913981,0.412745 -1.1875,0.46875 -0.136759,0.028 -0.191075,0.0298 -0.21875,0.03125 -0.195758,-0.212493 -0.365187,-0.715213 -0.28125,-1.5 0.03131,-0.292755 0.22703,-0.668807 0.3125,-1 0.657188,-0.832905 1.650863,-1.953036 1.875,-2.28125 0.690187,-1.010672 1.183884,-1.808852 1.96875,-2.59375 0.08629,-0.08629 0.08532,-0.07793 0.125,-0.125 0.03968,-0.04707 0.08006,-0.101663 0.125,-0.15625 0.04494,-0.05459 0.09136,-0.114461 0.125,-0.15625 0.01682,-0.0209 0.01769,-0.01383 0.03125,-0.03125 0.0068,-0.0087 0.0194,-0.04621 0.03125,-0.0625 0.0059,-0.0081 0.01163,4.4e-5 0.03125,-0.03125 0.0098,-0.01565 0.06242,-0.09356 0.0625,-0.09375 L 84.28125,39.25 c 1.1e-5,-3.6e-5 -0.71875,-0.21875 -0.71875,-0.21875 0,0 0.146939,-0.06379 0.28125,-0.125 -0.313153,0.0043 -0.623973,-0.0054 -0.96875,0.03125 -0.007,-0.037 -0.03125,-0.125007 -0.03125,-0.125 L 82.875,38.75 c -0.01753,0.0165 -0.04862,0.01439 -0.0625,0.03125 -0.04215,0.05119 -0.09114,0.08483 -0.125,0.125 -0.03386,0.04017 -0.09647,0.09647 -0.03125,0.03125 -0.0115,0.0115 -0.01986,0.01975 -0.03125,0.03125 -0.653656,0.09538 -1.294706,0.281083 -1.6875,0.6875 -0.745751,0.771616 -1.403405,1.781929 -1.90625,2.84375 -0.265647,0.560948 -0.33075,1.115435 -0.5,1.6875 -0.603216,0.74603 -0.880761,1.225672 -1.625,1.9375 -0.836105,0.799693 -1.708667,1.450912 -2.40625,1.71875 -0.686949,0.263755 -1.049731,0.250853 -1.46875,-0.1875 0.0014,-0.0403 -0.04752,-0.214215 0.03125,-0.5625 0.105025,-0.464379 0.368017,-1.141724 0.78125,-1.90625 0.826465,-1.529051 2.220358,-3.460057 4,-5.34375 3.559285,-3.767386 8.659677,-7.328754 13.625,-7.5625 z m -64.65625,4.625 c 0.231327,-0.03319 0.424588,-0.02537 0.59375,0 0.70194,0.105295 1.222944,0.300056 1.71875,0.5 -4.037859,3.620204 -8.442195,6.845782 -12.90625,9.9375 -1.139962,0.789516 -2.98713,1.845997 -4.5625,2.625 -0.773069,0.382274 -1.488599,0.697729 -2,0.875 0.163438,-0.264123 0.383909,-0.54731 0.6875,-0.875 0.729894,-0.787832 1.633473,-1.508456 2.03125,-1.90625 1.358539,-1.358594 4.237367,-4.332143 7.28125,-6.875 1.521941,-1.271428 3.086253,-2.429546 4.46875,-3.21875 1.036873,-0.591903 1.993518,-0.962915 2.6875,-1.0625 z m 88.15625,0.375 c -0.30941,0.04845 -0.59303,0.160968 -0.875,0.3125 -0.56394,0.303064 -1.13157,0.770153 -1.75,1.34375 -1.23686,1.147194 -2.60886,2.736196 -3.75,4.34375 -1.14114,1.607554 -2.05624,3.185778 -2.40625,4.46875 -0.175,0.641486 -0.26744,1.298618 0.1875,1.875 0.22747,0.288191 0.59231,0.4535 0.9375,0.5 0.34519,0.0465 0.68386,0.0072 1.0625,-0.09375 0.55131,-0.147023 1.34959,-0.504068 2.15625,-0.96875 0.27664,-0.159362 0.52935,-0.316655 0.78125,-0.5 0.3381,0.545015 0.76457,0.950718 1.28125,1.125 0.53005,0.17879 1.0866,0.114174 1.5625,-0.03125 0.95181,-0.290849 1.73711,-0.953999 2.34375,-1.5 0.0583,-0.05244 0.10122,-0.103017 0.15625,-0.15625 0.1733,0.120133 0.38776,0.173218 0.59375,0.125 0.82575,-0.189287 2.05946,-0.240223 2.9375,-1.25 0.31197,-0.358781 0.51245,-0.659689 0.75,-1 -0.0841,0.207164 -0.16243,0.416222 -0.21875,0.59375 -0.0387,0.122129 -0.0751,0.232055 -0.0937,0.375 -0.0188,0.142945 -0.11483,0.385164 0.25,0.75 0.14026,0.140266 0.35491,0.242068 0.53125,0.25 0.17634,0.0079 0.31442,-0.02312 0.40625,-0.0625 0.18366,-0.07876 0.25178,-0.167287 0.34375,-0.25 0.18394,-0.165426 0.35038,-0.372587 0.5,-0.5625 0.14962,-0.189913 0.26793,-0.379971 0.375,-0.53125 0.10707,-0.151279 0.26093,-0.312218 0.1875,-0.21875 1.10277,-1.403586 2.4296,-2.452641 3.625,-3.59375 0.4878,-0.446338 -0.0459,-1.440939 -0.6875,-1.28125 -0.13174,0.03955 -0.25213,0.116164 -0.34375,0.21875 -0.7391,0.705527 -1.63905,1.607717 -2.5,2.46875 0.0614,-0.179781 0.12298,-0.357688 0.15625,-0.53125 0.0264,-0.13791 0.0628,-0.291798 0.0312,-0.5 -0.0158,-0.104101 -0.0585,-0.231452 -0.15625,-0.375 -0.0978,-0.143548 -0.28716,-0.291806 -0.46875,-0.34375 -0.36319,-0.103889 -0.56164,0.04177 -0.71875,0.125 -0.15711,0.08323 -0.29181,0.158082 -0.4375,0.28125 -0.29138,0.246335 -0.63299,0.613024 -1.09375,1.125 -0.66467,0.738555 -1.05949,1.484003 -1.5625,2.0625 -0.2735,0.314534 -0.73472,0.436136 -1.28125,0.5625 0.70395,-1.476764 0.51147,-2.985268 -0.21875,-3.96875 -0.51054,-0.687608 -1.31379,-1.154105 -2.1875,-1.0625 -0.87371,0.09161 -1.61701,0.782863 -2.03125,1.875 -0.0742,0.16548 -0.0855,0.358227 -0.0312,0.53125 -0.0967,-0.0241 -0.18706,-0.0625 -0.1875,-0.0625 -0.44892,0 -0.86929,0.218638 -1.125,0.5 -0.25571,0.281362 -0.38918,0.599502 -0.5,0.90625 -0.22163,0.613496 -0.35096,1.271607 -0.46875,1.625 0.005,-0.01638 -0.10988,0.17756 -0.34375,0.375 -0.23387,0.19744 -0.55606,0.423268 -0.90625,0.625 -0.70039,0.403464 -1.5174,0.742138 -1.78125,0.8125 -0.22376,0.05967 -0.36325,0.06619 -0.4375,0.0625 0.0435,0.04655 -0.0532,-0.07602 0.0625,-0.5 0.24558,-0.900192 1.1316,-2.468504 2.21875,-4 1.08715,-1.531496 2.40525,-3.080628 3.53125,-4.125 0.563,-0.522186 1.06726,-0.926034 1.4375,-1.125 0.18512,-0.09948 0.3455,-0.146737 0.40625,-0.15625 0.33054,0.134167 0.75729,-0.0046 0.9375,-0.3125 0.18021,-0.307866 0.0913,-0.74622 -0.1875,-0.96875 -0.31392,-0.207107 -0.69059,-0.235954 -1,-0.1875 z M 186,40.15625 c -0.11522,5.66e-4 -0.20101,0.01267 -0.3125,0.03125 -0.81093,0.13516 -1.36619,0.715166 -1.8125,1.375 -0.0916,0.05073 -0.18272,0.118857 -0.25,0.15625 -0.0347,0.01928 -0.0661,0.01563 -0.0937,0.03125 -0.65347,-0.01865 -1.28252,0.156952 -1.875,0.5 -0.72616,0.420444 -1.40647,1.030749 -1.96875,1.71875 -0.56228,0.688001 -1.02102,1.439386 -1.21875,2.25 -0.19773,0.810614 -0.10478,1.757088 0.5,2.4375 0.30113,0.33878 0.88761,0.473803 1.28125,0.34375 0.39364,-0.130053 0.67928,-0.384192 0.9375,-0.65625 0.51644,-0.544115 0.98044,-1.2989 1.4375,-2.09375 0.003,0.01995 -0.003,0.0427 0,0.0625 0.0608,0.415721 0.16472,0.85382 0.53125,1.1875 0.36653,0.33368 0.9907,0.382109 1.4375,0.1875 0.4468,-0.194609 0.83761,-0.558345 1.28125,-1.0625 0.32349,-0.281377 0.32489,-0.845235 0,-1.125 -0.32489,-0.279765 -0.89476,-0.205425 -1.125,0.15625 -0.30642,0.348223 -0.49331,0.483482 -0.625,0.5625 -0.0174,-0.04721 -0.0183,-0.0055 -0.0312,-0.09375 -0.0338,-0.230903 -0.0441,-0.590299 0,-0.96875 0.0883,-0.756903 0.35072,-1.682302 0.71875,-2.375 0.022,-0.0123 0.0398,-0.0498 0.0625,-0.0625 0.27584,-0.154577 0.61151,-0.318538 0.90625,-0.5 0.3466,-0.213394 0.60018,-0.34724 0.875,-0.65625 0.0687,-0.07725 0.16004,-0.155628 0.21875,-0.40625 0.0294,-0.125311 0.0457,-0.319121 -0.0312,-0.5 -0.0771,-0.180879 -0.22615,-0.308199 -0.34375,-0.375 -0.23519,-0.133602 -0.38478,-0.125566 -0.5,-0.125 z m -92.21875,0.125 c 0.02639,0.0025 0.04467,0.02569 0.09375,0.0625 0.168706,0.126534 0.209123,0.205411 0.21875,0.375 0.0096,0.169589 -0.06987,0.453069 -0.25,0.8125 -0.360254,0.718863 -1.145093,1.644582 -2.09375,2.5 -0.257124,0.231852 -0.538363,0.374973 -0.8125,0.59375 0.136236,-0.562091 0.245093,-1.144313 0.5625,-1.78125 0.439999,-0.882942 1.02571,-1.707519 1.53125,-2.15625 0.25277,-0.224365 0.49681,-0.343975 0.625,-0.375 0.06409,-0.01551 0.09861,-0.03374 0.125,-0.03125 z m 109.875,0.40625 c -0.23678,0.01166 -0.46352,0.06102 -0.6875,0.125 -0.89595,0.255918 -1.70218,0.821941 -2.46875,1.46875 -1.53314,1.293617 -2.82907,2.958865 -3.3125,3.625 -0.23726,0.319068 -0.16282,0.825244 0.15625,1.0625 0.31907,0.237255 0.82524,0.162818 1.0625,-0.15625 0.43789,-0.603375 1.70846,-2.2325 3.0625,-3.375 0.67702,-0.57125 1.35599,-1.030325 1.90625,-1.1875 0.48147,-0.137528 0.77715,-0.03581 1.09375,0.21875 -0.0547,0.162604 -0.15954,0.415743 -0.34375,0.71875 -0.41383,0.680728 -1.11029,1.554314 -1.875,2.4375 -0.76471,0.883186 -1.60368,1.767927 -2.3125,2.46875 -0.70882,0.700823 -1.35879,1.249604 -1.5,1.34375 -0.0107,0.01011 -0.0212,0.02053 -0.0312,0.03125 -7.34315,5.265279 -12.96522,7.127123 -18.4375,7.59375 -5.47228,0.466627 -10.85226,-0.492276 -17.5,-0.96875 C 121.82733,53.180794 85.188808,54.896719 57.5,61.5625 29.811142,68.228281 11.138087,79.788904 2.8125,86.625 2.4527154,86.849031 2.3580688,87.389535 2.625,87.71875 2.8919312,88.047965 3.4564399,88.086958 3.75,87.78125 11.679413,81.27045 30.61209,70.380959 58.15625,63.75 85.70041,57.119041 121.9003,54.661493 162.375,57.5625 c 6.55982,0.470172 11.99353,1.456946 17.71875,0.96875 5.72522,-0.488196 11.68276,-2.462613 19.1875,-7.84375 0.42225,-0.281511 0.95126,-0.803316 1.6875,-1.53125 0.73624,-0.727934 1.61073,-1.61248 2.40625,-2.53125 0.79552,-0.91877 1.53608,-1.841727 2.03125,-2.65625 0.24759,-0.407261 0.42493,-0.797078 0.53125,-1.1875 0.10632,-0.390422 0.14888,-0.944848 -0.25,-1.34375 -0.3747,-0.374715 -0.84219,-0.591227 -1.3125,-0.6875 -0.23516,-0.04814 -0.48197,-0.07416 -0.71875,-0.0625 z m -42.53125,0.375 c -0.0863,-0.0018 -0.17245,0.01273 -0.25,0.03125 -0.3102,0.0741 -0.51846,0.230693 -0.6875,0.40625 -0.18465,0.191762 -0.27213,0.474386 -0.40625,0.71875 -0.42324,-0.228117 -0.8762,-0.461058 -1.4375,-0.5 -0.62331,-0.04324 -1.38733,0.216147 -1.84375,0.84375 -0.26014,0.357706 -0.46533,0.847176 -0.71875,1.5 -0.25342,0.652824 -0.48426,1.441054 -0.625,2.1875 -0.14074,0.746446 -0.24489,1.465745 0.0937,2.15625 0.16934,0.345252 0.51541,0.646778 0.9375,0.75 0.42209,0.103222 0.8407,0.04021 1.28125,-0.125 0.39403,-0.147769 0.48591,-0.321876 0.6875,-0.53125 0.20159,-0.209374 0.41428,-0.448043 0.65625,-0.75 0.008,-0.0099 0.0233,-0.02127 0.0312,-0.03125 0.0343,0.183242 0.004,0.389255 0.0625,0.5625 0.18607,0.550828 0.53136,1.091968 1.125,1.34375 0.59364,0.251782 1.29643,0.161567 2,-0.15625 0.70357,-0.317817 1.46116,-0.875171 2.375,-1.71875 0.29068,-0.268844 0.30286,-0.774402 0.0312,-1.0625 -0.27161,-0.288098 -0.77701,-0.305598 -1.0625,-0.03125 -0.84078,0.776134 -1.49501,1.223503 -1.96875,1.4375 -0.47374,0.213997 -0.68658,0.196403 -0.78125,0.15625 -0.0947,-0.04015 -0.21092,-0.136793 -0.3125,-0.4375 -0.10158,-0.300707 -0.16736,-0.765404 -0.15625,-1.28125 0.006,-0.299004 0.14233,-0.584543 0.1875,-0.90625 0.009,-0.01271 0.0228,-0.01853 0.0312,-0.03125 0.51989,-0.775966 1.01226,-1.538652 1.34375,-2.1875 0.16575,-0.324424 0.29273,-0.62301 0.375,-0.90625 0.0411,-0.14162 0.0649,-0.281269 0.0625,-0.46875 -0.002,-0.187481 -0.0371,-0.498393 -0.3125,-0.71875 -0.18307,-0.14646 -0.45988,-0.244665 -0.71875,-0.25 z M 136.6875,41.75 c -0.53156,0.06175 -0.99334,0.304205 -1.34375,0.625 -0.46722,0.427727 -0.76713,0.976022 -1,1.5 -0.53825,1.211118 -1.13526,2.758278 -0.96875,4.3125 0.0555,0.518078 0.14864,0.974366 0.59375,1.3125 0.22256,0.169067 0.53062,0.217651 0.78125,0.1875 0.25063,-0.03015 0.45758,-0.110932 0.625,-0.21875 0.66969,-0.431273 1.12616,-1.157202 1.625,-2 0.4206,-0.710603 0.78726,-1.48083 1.0625,-2.1875 0.0996,0.320229 0.37598,0.600408 0.71875,0.5625 0.30983,-0.02541 0.34663,-0.116192 0.40625,-0.15625 0.0596,-0.04006 0.0854,-0.06008 0.125,-0.09375 0.0792,-0.06734 0.16614,-0.138853 0.25,-0.21875 0.15815,-0.15067 0.35032,-0.339225 0.53125,-0.5 -0.0429,0.225216 -0.0831,0.465779 -0.1875,0.75 -0.27844,0.757923 -0.70004,1.525099 -0.90625,2.125 -0.1655,0.481484 -0.0556,0.791556 0,1.125 -0.0297,0.09286 -0.10014,0.229434 -0.125,0.3125 -0.0679,0.227057 -0.12274,0.398169 -0.15625,0.53125 -0.0168,0.06654 -0.0225,0.118443 -0.0312,0.15625 -0.004,0.0189 0.003,0.0504 0,0.0625 0.21518,0 1.20721,0.847354 1.40625,0.6875 0.19904,-0.159854 0.29315,-0.35805 0.34375,-0.53125 0.10121,-0.346401 0.0566,-0.625209 0.0312,-0.875 -0.002,-0.01605 0.002,-0.0152 0,-0.03125 0.11417,-0.342974 0.22325,-0.687947 0.40625,-1.09375 0.39142,-0.867978 0.9943,-1.609543 1.625,-2.09375 0.11783,0.33424 0.2448,0.707213 0.40625,1.125 0.20687,0.53531 0.42069,1.088434 0.6875,1.5625 0.26681,0.474066 0.48867,0.924715 1.15625,1.125 0.2693,0.08079 0.60171,-0.0029 0.78125,-0.125 0.17954,-0.122055 0.27045,-0.25813 0.34375,-0.375 0.1466,-0.23374 0.23794,-0.428574 0.3125,-0.65625 0.0746,-0.227676 0.13561,-0.472033 0.1875,-0.65625 0.0519,-0.184217 0.10873,-0.344025 0.0937,-0.3125 0.57749,-1.219184 2.25052,-3.158028 3.03125,-3.90625 0.48792,-0.446354 -0.0458,-1.441144 -0.6875,-1.28125 -0.1428,0.03411 -0.27502,0.111241 -0.375,0.21875 -0.90729,0.86952 -2.57506,2.68964 -3.34375,4.3125 -0.0989,0.208741 -0.13303,0.369143 -0.1875,0.5625 -0.0202,0.07163 -0.0417,0.145435 -0.0625,0.21875 -0.18614,-0.349817 -0.38646,-0.794473 -0.5625,-1.25 -0.19397,-0.501939 -0.36436,-0.993097 -0.5,-1.375 -0.0678,-0.190952 -0.10087,-0.33446 -0.15625,-0.46875 -0.0277,-0.06714 -0.0464,-0.135744 -0.0937,-0.21875 -0.0237,-0.0415 -0.0731,-0.10028 -0.15625,-0.1875 -0.0416,-0.04361 -0.0952,-0.09588 -0.21875,-0.15625 -0.0309,-0.01509 -0.0532,-0.01855 -0.0937,-0.03125 -0.0405,-0.0127 -0.15566,-0.03118 -0.15625,-0.03125 -10e-4,-1.41e-4 -0.31144,0.0309 -0.3125,0.03125 -0.39214,0.130719 -0.62314,0.45386 -0.9375,0.6875 0.002,-0.0198 -0.002,-0.04265 0,-0.0625 0.0414,-0.473388 -0.0221,-1.005338 -0.40625,-1.4375 -0.20385,-0.229339 -0.57189,-0.32705 -0.8125,-0.3125 -0.24061,0.01455 -0.38164,0.07918 -0.53125,0.15625 -0.29922,0.154146 -0.54921,0.358832 -0.78125,0.5625 -0.23204,0.203668 -0.43756,0.413696 -0.59375,0.5625 -0.0422,0.04025 -0.0624,0.06484 -0.0937,0.09375 -0.0162,0.01489 -0.0506,0.02065 -0.0625,0.03125 0.0622,-0.213068 0.10642,-0.422362 0.125,-0.625 0.0159,-0.17369 0.009,-0.334505 -0.0625,-0.5625 -0.058,-0.184567 -0.28928,-0.400766 -0.53125,-0.53125 -0.007,-0.0038 0.007,-0.02762 0,-0.03125 0.0899,-0.411257 -0.23749,-0.863293 -0.65625,-0.90625 -0.18654,-0.0245 -0.38531,-0.02058 -0.5625,0 z m -21.15625,1.15625 c 0.21252,-0.02228 0.53855,0.09978 0.8125,0.46875 0.5479,0.737932 0.80122,2.206972 -0.84375,3.6875 -0.53885,0.48499 -1.24363,0.991966 -1.78125,1.15625 -0.26881,0.08214 -0.46464,0.08534 -0.625,0.03125 -0.16036,-0.05409 -0.32907,-0.16302 -0.53125,-0.5 -0.0793,-0.132107 -0.12212,-0.30766 -0.0625,-0.59375 0.0596,-0.28609 0.22047,-0.640014 0.40625,-0.96875 0.18578,-0.328736 0.39759,-0.650103 0.5625,-0.875 0.0825,-0.112449 0.16138,-0.201577 0.21875,-0.28125 0.0287,-0.03984 0.0537,-0.05524 0.0937,-0.125 0.0201,-0.03488 0.055,-0.05428 0.0937,-0.21875 0.01,-0.04112 0,-0.186677 0,-0.1875 0,-5.69e-4 -0.0105,-0.124171 -0.0312,-0.21875 0.36041,0.100004 0.77958,-0.116822 0.90625,-0.46875 0.28946,-0.763143 0.56873,-0.883968 0.78125,-0.90625 z m 42.6875,0.3125 c 0.23447,0.01627 0.63094,0.136741 1,0.34375 0.0203,0.01138 0.0412,0.02181 0.0625,0.03125 -0.14037,0.443574 -0.22584,0.919378 -0.3125,1.40625 -0.4443,0.649643 -0.92007,1.322776 -1.3125,1.8125 -0.22361,0.279052 -0.41192,0.49985 -0.5625,0.65625 -0.0753,0.0782 -0.17146,0.126594 -0.21875,0.15625 -0.16022,0.05382 -0.26463,0.09524 -0.28125,0.09375 -0.0382,-0.07791 -0.0841,-0.57535 0.0312,-1.1875 0.11542,-0.61215 0.33509,-1.320429 0.5625,-1.90625 0.22741,-0.585821 0.49426,-1.105391 0.53125,-1.15625 0.1934,-0.265938 0.26553,-0.266267 0.5,-0.25 z m -21.375,0.125 c 0.007,0.133134 0.051,0.264087 0.125,0.375 -0.0192,0.136096 -0.051,0.355049 -0.15625,0.65625 -0.23176,0.663464 -0.64635,1.556607 -1.09375,2.3125 -0.31597,0.533838 -0.56439,0.790408 -0.8125,1.0625 -0.0216,-0.999218 0.34945,-2.239329 0.8125,-3.28125 0.18119,-0.407695 0.42315,-0.755351 0.65625,-0.96875 0.15739,-0.144083 0.3134,-0.13082 0.46875,-0.15625 z M 182.3125,43.625 c -0.30109,0.587359 -0.63156,1.234265 -1,1.875 -0.43157,0.750522 -0.87744,1.452896 -1.21875,1.8125 -0.0187,0.01973 -0.0134,0.01398 -0.0312,0.03125 -0.0885,-0.210639 -0.21154,-0.395204 -0.125,-0.75 0.12226,-0.501213 0.45194,-1.131614 0.90625,-1.6875 0.42965,-0.525721 0.96038,-0.96999 1.46875,-1.28125 z"
       id="path3271"
       inkscape:connector-curvature="0" />
  </g>
</svg>
