<?xml version="1.0" encoding="UTF-8"?>
<svg version="1.0" xmlns="http://www.w3.org/2000/svg" width="148" height="24" >
<path d="M21.002,4.252c-2.23,2.31-4.538,4.548-6.895,6.729c-1.851,1.714-3.761,3.375-5.813,4.845 c-1.06,0.759-1.405,1.958-2.317,2.932c-2.866-1.145-3.366-1.699-1.498-1.662c0.365-0.003,0.729,0.008,1.093,0.031 c0.375,0.019,0.913-0.023,1.271,0.048c0.504,0.101,1.019,0.157,1.53,0.209c2.182,0.223,4.434,0.053,6.493-0.727 c2.179-0.824,3.578-2.587,4.177-4.793c0.467-1.721,0.555-7.378-1.217-8.312c-3.53-1.859-6.911,0.757-9.546,2.879 c-2.398,1.93-3.845,3.703-0.875,5.704c0.375,0.253,0.726-0.354,0.354-0.604c-3.905-2.63,3.844-6.934,5.679-7.616 c1.285-0.478,2.806-0.302,4.035,0.242c0.554,0.245,0.71,2.171,0.833,2.744c0.827,3.854-0.122,7.755-4.046,9.24 c-3.539,1.339-6.88-0.192-10.417,0.291c-3.462,0.474,0.288,5.957,3.462,1.833c2.021-2.626,4.789-4.501,7.296-6.789 c2.371-2.163,4.665-4.42,6.895-6.729C21.811,4.423,21.316,3.927,21.002,4.252L21.002,4.252z"/>
<path d="M20.76,16.802c1.377-0.766,5.504-3.035,4.066-5.143c-1.039-1.522-4.779,3.484-5.142,3.944 c-0.72,0.916-2.392,4.143,0.125,3.878c2.94-0.31,5.954-3.369,8.145-5.078c2.984-2.327,5.779-4.884,8.73-7.25 c0.473-0.379,3.566-3.192,2.493-1.291c-2.758,4.886-7.132,9.205-10.842,13.391c-0.303,0.342,0.149,0.779,0.495,0.494 c2.467-2.032,5.013-3.978,7.659-5.772c0.298-0.202,4.376-2.761,4.473-1.996c0.313,2.478-4.211,6.983-5.515,8.677 c-0.249,0.323,0.275,0.694,0.55,0.424c2.479-2.44,5.11-5.15,8.17-6.842c0.885-0.489-0.998,3.695-1.282,4.458 c-0.234,0.626-0.598,1.505,0.009,2.021c1.386,1.178,20.344-16.24,8.465-2.973c-0.287,0.32-2.362,2.561-1.195,2.907 c2.724,0.809,6.991-3.655,8.926-5.466c2.473-2.313-0.859,2.4-1.323,3.316c-0.229,0.453-0.66,1.248-0.477,1.772 c0.823,2.367,6.809-3.677,7.208-4.027c0.34-0.298-0.157-0.791-0.495-0.494c-0.779,0.685-7.256,6.313-5.539,2.921 c0.7-1.382,2.637-3.181,2.543-4.89c-0.006-0.116-0.06-0.25-0.173-0.302c-0.896-0.42-2.094,1.073-2.64,1.584 c-1.239,1.16-2.503,2.063-3.951,2.999c-0.791,0.511-4.67,2.951-2.737,0.58c0.15-0.186,6.252-7.825,3.988-7.189 c-1.668,0.467-3.187,1.851-4.526,2.89c-0.812,0.629-1.615,1.268-2.409,1.918c-0.684,0.56-5.342,3.858-5.232,3.311 c0.125-0.625,3.962-7.46,0.864-6.104c-2.186,0.956-4.051,2.823-5.799,4.394c-0.849,0.763-1.677,1.549-2.499,2.342 c-0.762,0.734,0.26,0.674,1.118-0.44c0.996-1.294,1.94-2.625,2.851-3.979c0.838-1.247,3.374-6.073-0.406-4.34 c-3.965,1.819-7.486,4.853-10.854,7.59c-0.497,0.404,0.167,0.785,0.612,0.279c0.577-0.654,1.15-1.313,1.722-1.974 c1.966-2.269,3.9-4.565,5.775-6.91c0.612-0.766,4.318-4.61,3.511-5.707c-0.976-1.327-5.011,2.725-5.616,3.223 c-3.591,2.952-7.036,6.045-10.849,8.72c-0.514,0.36-4.95,3.348-4.564,1.346c0.102-0.527,0.341-0.972,0.628-1.415 c1.022-1.581,2.47-3.157,3.995-4.259c0.05,1.439-0.602,2.43-1.958,2.972c-0.456,0.329-0.958,0.614-1.45,0.888 C20.012,16.417,20.365,17.021,20.76,16.802L20.76,16.802z"/>
<path d="M60.657,12.337c10.895,1.646,24.333,0.693,31.837-8.285c0.687-0.821,2.185-3.364-0.09-2.253 c-4.413,2.155-8.518,6.352-11.978,9.743c-1.85,1.812-4.729,4.92-5.478,7.389c-1.208,3.982,9.01-0.705,9.561-0.926 c0.158-0.063,9.188-3.746,6.274-4.8c-3.889-1.406-10.193,3.958-12.003,6.786c-0.244,0.382,0.361,0.732,0.604,0.354 c2.237-3.496,6.723-6.295,10.944-6.486c0.262-0.012-2.024,1.661-2.069,1.685c-1.771,0.966-3.739,1.708-5.595,2.451 c-0.094,0.038-7.724,2.618-6.914,0.853c1.962-4.277,6.348-8.053,9.811-11.014c2.263-1.935,4.596-3.956,7.194-5.43 c-0.136,0.077-2.07,2.672-2.699,3.332c-2.039,2.141-4.878,3.454-7.604,4.45c-6.632,2.424-14.657,2.528-21.61,1.477 C60.401,11.596,60.212,12.27,60.657,12.337L60.657,12.337z"/>
<path d="M83.343,20.171c6.938-2.912,14.776-6.873,19.216-13.152c0.288-0.407,1.999-2.865,0.793-3.27 c-1.329-0.445-4.386,3.68-5.059,4.399c-3.398,3.635-7.306,7.526-10.187,11.615c-0.312,0.442-0.932,2.001,0.273,1.844 c1.324-0.173,2.516-0.855,3.688-1.454c0.712-0.363,6.517-4.769,4.548-0.33c-0.088,0.196-0.031,0.459,0.209,0.515 c2.296,0.533,5.064-1.073,5.506-2.644c-0.319,1.138-0.57,2.524,0.224,3.504c1.084,1.337,3.931-1.261,4.639-1.81 c1.88-1.456,0.127-1.74,0.537-0.037c0.684,2.832,6.048-1.07,6.898-1.619c4.302-2.776,8.154-6.21,12.137-9.408 c1.14-0.915,2.307-1.853,3.572-2.593c-0.176,0.103-1.247,1.468-1.747,2.058c-0.799,0.943-13.457,13.383-11.837,14.331 c1.104,0.647,3.23-0.752,4.147-1.197c1.988-0.967,4.943-2.437,5.753-3.875c-0.438,0.779-0.813,1.587-1.147,2.415 c-0.186,0.458-0.815,2.255,0.153,2.463c2.924,0.631,7.689-7.667,9.253-1.834c0.03,0.11,0.129,0.223,0.245,0.245 c3.603,0.67,7.859,0.717,10.673-1.924c0.33-0.309-0.166-0.803-0.494-0.494c-1.657,1.555-9.245,3.863-10.083,0.738 c-0.278-1.039-1.455-1.933-2.55-1.646c-2.481,0.651-3.949,3.276-6.378,4.234c-0.79,0.312,0.811-3.636,1.06-4.07 c0.174-0.301-0.174-0.663-0.479-0.479c-2.359,1.424-4.726,2.826-7.206,4.032c-0.75,0.365-3.205,1.518-2.053-0.167 c0.632-0.924,1.532-1.684,2.305-2.479c3.688-3.79,8.198-7.65,10.972-12.191c0.248-0.406,0.273-1.022-0.348-0.992 c-1.888,0.092-4.729,3.263-6.063,4.35c-4.375,3.566-9.039,8.159-14.46,10.167c-1.319,0.489-1.935-0.124-1.466-1.326 c0.138-0.354-0.348-0.549-0.585-0.34c-2.168,1.896-6.286,4.346-4.915-0.16c0.106-0.352-0.336-0.564-0.585-0.34 c-8.707,7.836-1.21-4.109-7.412,0.245c-1.255,0.881-8.606,5.237-5.491,1.464c0.957-1.158,2.071-2.166,3.031-3.32 c1.799-2.165,3.669-4.273,5.563-6.354c1.072-1.178,2.173-2.33,3.314-3.441c1.079-1.05,1.997-2.147,0.939-0.023 c-3.315,6.654-12.716,10.913-19.291,13.672C82.747,19.667,82.927,20.345,83.343,20.171L83.343,20.171z"/>
</svg>