<?xml version="1.0" standalone="no"?>
<!DOCTYPE svg PUBLIC "-//W3C//DTD SVG 20010904//EN"
 "http://www.w3.org/TR/2001/REC-SVG-20010904/DTD/svg10.dtd">
<svg version="1.0" xmlns="http://www.w3.org/2000/svg"
 width="1115.000000pt" height="390.000000pt" viewBox="0 0 1115.000000 390.000000"
 preserveAspectRatio="xMidYMid meet">
<metadata>
Created by potrace 1.12, written by Peter Selinger 2001-2015
</metadata>
<g transform="translate(0.000000,390.000000) scale(0.100000,-0.100000)"
fill="#000000" stroke="none">
<path d="M0 1950 l0 -1950 5575 0 5575 0 0 1950 0 1950 -5575 0 -5575 0 0
-1950z m11129 1926 c8 -10 10 -523 9 -1937 l-3 -1924 -5549 -3 c-4094 -1
-5552 1 -5562 9 -12 10 -14 330 -14 1934 0 1057 3 1925 7 1928 3 4 2503 7
5553 7 4656 0 5549 -2 5559 -14z"/>
<path d="M8170 3447 c-166 -39 -250 -93 -296 -190 -26 -57 -30 -101 -13 -162
15 -54 36 -75 75 -75 48 0 84 47 84 109 0 101 70 143 280 166 161 18 337 3
480 -40 25 -7 64 -16 88 -19 49 -7 204 -75 265 -116 23 -15 60 -35 82 -44 50
-21 72 -42 97 -90 14 -27 18 -52 15 -80 -5 -55 -73 -353 -99 -439 -38 -127
-16 -229 58 -267 36 -19 251 -24 339 -9 88 16 121 35 162 97 30 46 37 67 44
131 23 235 157 552 307 730 38 46 43 28 21 -79 -22 -107 -24 -114 -96 -295
-108 -268 -152 -430 -167 -610 -9 -111 4 -179 44 -220 30 -31 40 -35 84 -35
99 1 221 25 244 48 52 52 3 106 -107 117 -39 4 -75 12 -80 19 -6 7 -11 53 -12
102 -1 69 5 112 25 189 32 117 59 198 91 275 45 105 113 285 128 340 21 74 40
255 32 307 -12 83 -72 120 -138 86 -96 -50 -149 -100 -235 -222 -25 -36 -49
-68 -53 -71 -18 -14 -145 -283 -188 -399 -58 -154 -75 -185 -99 -176 -9 4 -51
12 -93 19 -41 7 -81 16 -87 20 -18 11 -15 41 15 167 21 90 27 140 27 238 1
119 0 124 -23 140 -13 9 -40 32 -61 51 -63 58 -98 81 -189 128 -108 55 -202
91 -266 103 -27 5 -72 15 -100 23 -56 17 -114 26 -195 31 -30 2 -91 9 -135 14
-133 16 -250 12 -355 -12z"/>
<path d="M1375 3250 c-27 -10 -61 -19 -75 -19 -15 -1 -30 -5 -35 -10 -6 -4
-35 -16 -65 -26 -30 -10 -88 -33 -128 -51 -40 -19 -77 -34 -81 -34 -4 0 -31
-24 -59 -54 -60 -63 -76 -110 -74 -212 2 -79 22 -137 59 -172 20 -18 24 -29
19 -55 -3 -18 -12 -106 -20 -197 -14 -152 -19 -208 -46 -450 -17 -166 -22
-294 -11 -322 14 -36 50 -37 96 -3 31 25 33 30 44 123 6 53 15 174 22 267 11
180 45 490 54 504 3 5 10 44 16 87 5 44 21 120 35 169 27 100 30 143 12 191
-11 30 -9 35 13 53 13 12 62 32 109 46 47 14 99 30 115 36 47 16 224 23 271
10 78 -21 68 -47 -67 -176 -46 -44 -100 -102 -119 -130 -32 -46 -35 -56 -35
-125 0 -67 3 -79 28 -111 20 -27 40 -40 75 -48 107 -27 120 -32 132 -45 14
-18 0 -50 -29 -65 -10 -6 -36 -25 -58 -43 -22 -18 -51 -42 -65 -53 -13 -11
-42 -49 -64 -84 -37 -61 -39 -69 -38 -141 1 -99 37 -184 102 -241 l45 -39 129
0 c111 0 148 4 257 31 69 17 144 39 166 50 22 10 50 19 62 19 13 0 42 5 65 10
163 39 299 70 333 75 22 4 51 13 65 21 14 7 52 18 85 23 122 20 178 32 194 40
24 13 182 32 304 37 115 4 111 3 264 84 72 39 109 92 99 143 -14 70 -66 86
-132 41 -21 -14 -59 -32 -83 -40 -40 -12 -48 -11 -61 1 -13 13 -8 21 43 69 31
30 78 64 104 77 27 12 60 31 75 41 45 31 157 62 187 52 58 -21 65 -132 20
-344 -58 -278 -70 -461 -35 -544 15 -36 78 -86 108 -86 10 0 28 10 39 21 18
18 20 29 15 70 -4 26 -14 65 -23 86 -18 45 -13 175 12 283 51 221 68 329 67
432 -1 122 -10 148 -72 201 -51 43 -94 52 -179 37 -120 -22 -154 -38 -325
-157 -38 -26 -85 -57 -104 -69 -19 -11 -44 -34 -56 -50 -11 -16 -23 -31 -26
-34 -13 -10 -68 -97 -90 -140 -29 -57 -42 -66 -113 -80 -31 -6 -76 -19 -99
-30 -23 -10 -46 -16 -51 -13 -8 5 -66 -9 -112 -27 -11 -5 -51 -13 -90 -20 -38
-6 -88 -15 -110 -20 -22 -5 -58 -11 -80 -15 -22 -4 -49 -10 -60 -15 -32 -13
-104 -29 -180 -41 -322 -47 -334 -48 -423 -49 -99 0 -144 16 -167 60 -39 76
-13 146 79 211 174 124 236 191 236 256 0 53 -34 74 -228 143 -66 24 -87 47
-78 84 3 12 49 65 101 117 53 52 114 120 136 153 33 50 39 66 39 112 0 65 -20
101 -67 120 -53 22 -353 18 -418 -6z"/>
<path d="M4956 2990 c-27 -33 -48 -96 -91 -275 -15 -60 -33 -120 -40 -131 -10
-15 -36 -27 -85 -39 -38 -9 -73 -21 -76 -26 -3 -5 -17 -9 -32 -9 -41 0 -151
-36 -174 -57 -49 -44 -65 -135 -30 -166 26 -24 60 -21 117 10 50 26 196 82
225 86 39 5 -8 -250 -84 -458 -42 -114 -29 -165 41 -165 38 0 50 18 96 136 48
122 70 196 106 358 31 138 52 190 80 201 8 3 42 8 75 11 34 3 75 10 91 16 63
23 247 107 255 117 3 3 19 13 35 21 17 8 64 49 106 92 87 89 101 93 179 53 65
-33 76 -54 53 -102 -17 -37 -96 -120 -168 -175 -38 -30 -80 -84 -151 -198 -75
-120 -64 -267 25 -343 96 -81 442 -113 821 -77 69 7 141 11 161 11 20 -1 69 6
108 14 40 8 87 15 105 15 17 0 37 5 44 12 6 6 44 15 84 19 105 12 150 19 173
28 44 18 94 30 168 42 42 7 77 16 77 20 0 3 21 12 48 19 26 7 65 21 87 30 49
22 141 50 164 50 9 0 21 4 27 9 5 6 41 21 79 35 63 22 136 50 278 108 64 25
89 21 100 -17 16 -56 32 -80 60 -89 41 -15 74 16 132 125 102 190 191 300 275
339 46 21 52 22 66 8 18 -17 47 -153 39 -179 -3 -9 1 -47 9 -85 7 -38 24 -136
36 -219 26 -173 36 -195 85 -195 29 0 39 6 56 33 19 30 20 42 14 157 -4 69 -8
150 -9 180 -2 30 -8 80 -14 110 -6 30 -16 100 -22 155 -13 109 -42 216 -64
234 -28 23 -82 24 -152 1 -107 -34 -206 -112 -317 -249 -34 -42 -66 -79 -71
-83 -16 -11 -31 2 -101 89 -36 46 -76 88 -88 94 -12 7 -38 24 -58 40 -37 29
-85 49 -176 74 -40 11 -65 12 -105 5 -162 -31 -274 -154 -272 -300 0 -60 4
-70 43 -127 23 -34 51 -65 61 -68 11 -4 25 -15 30 -25 8 -16 6 -22 -12 -34
-40 -25 -333 -126 -367 -126 -11 0 -35 -7 -53 -15 -39 -17 -255 -58 -388 -74
-52 -6 -131 -16 -175 -21 -144 -18 -158 -19 -330 -20 -220 -1 -366 18 -467 63
-66 30 -98 59 -98 90 0 55 104 202 189 268 64 49 111 101 154 171 30 51 37 71
37 114 0 101 -54 176 -173 239 -41 21 -61 25 -140 25 -113 0 -125 -7 -171 -99
-19 -37 -52 -83 -74 -103 -68 -62 -220 -130 -325 -146 -97 -15 -101 6 -38 196
35 104 37 131 16 172 -13 25 -21 30 -54 30 -31 0 -44 -6 -65 -30z m2814 -391
c71 -33 120 -74 120 -99 0 -26 -48 -43 -140 -47 -70 -4 -95 -1 -141 16 -66 25
-84 51 -64 98 30 72 116 84 225 32z"/>
<path d="M8937 1124 c-30 -15 -78 -28 -130 -35 -45 -5 -89 -12 -97 -14 -36
-10 -348 -36 -378 -31 -18 2 -58 1 -90 -5 -75 -12 -505 -24 -1190 -33 -210 -3
-386 -7 -391 -10 -4 -3 -52 -6 -107 -7 -63 0 -125 -8 -171 -20 -66 -18 -75
-19 -102 -4 -38 19 -56 19 -88 -2 -25 -16 -126 -23 -324 -22 -32 0 -74 -7 -94
-15 -29 -13 -46 -14 -83 -5 -25 5 -62 7 -82 4 -19 -3 -57 -8 -83 -10 -27 -2
-55 -9 -63 -16 -11 -9 -44 -10 -121 -5 -90 5 -109 4 -124 -10 -13 -12 -26 -14
-46 -9 -65 17 -153 17 -198 0 -35 -14 -60 -16 -115 -11 -38 4 -75 4 -82 0 -14
-9 -59 -12 -258 -18 -84 -3 -175 -12 -215 -21 -38 -9 -77 -16 -85 -16 -123 11
-163 11 -205 2 -27 -5 -106 -14 -175 -20 -68 -5 -126 -13 -127 -18 -2 -4 -42
-7 -90 -6 -48 2 -139 -2 -203 -8 -63 -6 -149 -12 -190 -13 -41 -1 -81 -5 -88
-10 -7 -4 -90 -10 -183 -12 -93 -2 -173 -5 -178 -8 -4 -3 -41 -6 -82 -7 -41 0
-96 -7 -124 -14 -28 -7 -147 -16 -274 -20 -124 -4 -235 -11 -246 -15 -23 -9
-40 -43 -49 -101 -5 -29 -2 -39 19 -59 24 -23 26 -23 122 -11 54 7 116 15 138
17 22 3 184 23 360 45 176 22 363 43 415 46 52 3 102 9 111 14 9 4 65 11 125
15 60 4 114 10 119 14 6 3 48 7 93 8 46 1 89 5 95 10 7 5 82 13 167 17 105 5
164 12 184 22 16 8 37 12 50 8 40 -13 128 -15 142 -4 7 6 35 11 61 11 26 0 57
5 68 11 11 6 61 11 110 12 50 0 98 6 108 11 13 7 36 8 69 2 34 -6 54 -6 61 1
6 6 28 8 51 5 23 -4 61 -1 86 6 25 7 65 14 89 16 25 2 48 7 53 12 4 4 49 3 99
-2 80 -8 96 -7 124 8 31 17 34 17 60 0 26 -17 29 -17 81 1 30 10 54 21 54 25
0 15 40 17 66 4 33 -18 71 -18 121 0 33 12 49 11 111 -2 66 -14 73 -14 90 1
21 19 43 22 58 7 8 -8 24 -7 55 1 104 26 168 33 194 19 18 -10 28 -10 38 -2
13 11 32 12 182 9 39 0 99 2 135 7 36 4 162 10 280 13 286 7 308 7 355 3 65
-5 178 2 202 13 16 7 27 6 38 -3 10 -9 31 -10 66 -6 34 5 56 3 65 -5 11 -9 20
-9 37 -1 27 14 38 15 352 9 138 -3 277 -1 310 4 39 5 63 4 72 -3 9 -7 44 -8
105 -3 51 3 113 7 138 8 152 3 440 19 528 28 116 13 146 29 177 95 19 41 14
78 -17 112 -28 29 -79 28 -141 -4z"/>
</g>
</svg>
