<?xml version="1.0" encoding="UTF-8" standalone="no"?>
<!-- Created with Inkscape (http://www.inkscape.org/) -->

<svg
   xmlns:dc="http://purl.org/dc/elements/1.1/"
   xmlns:cc="http://creativecommons.org/ns#"
   xmlns:rdf="http://www.w3.org/1999/02/22-rdf-syntax-ns#"
   xmlns:svg="http://www.w3.org/2000/svg"
   xmlns="http://www.w3.org/2000/svg"
   xmlns:sodipodi="http://sodipodi.sourceforge.net/DTD/sodipodi-0.dtd"
   xmlns:inkscape="http://www.inkscape.org/namespaces/inkscape"
   width="274.44724"
   height="59.744606"
   id="svg2"
   version="1.1"
   inkscape:version="0.48.2 r9819"
   sodipodi:docname="Nouveau document 1">
  <defs
     id="defs4" />
  <sodipodi:namedview
     id="base"
     pagecolor="#ffffff"
     bordercolor="#666666"
     borderopacity="1.0"
     inkscape:pageopacity="0.0"
     inkscape:pageshadow="2"
     inkscape:zoom="2.8"
     inkscape:cx="137.66151"
     inkscape:cy="30.101765"
     inkscape:document-units="px"
     inkscape:current-layer="layer1"
     showgrid="false"
     fit-margin-top="0"
     fit-margin-left="0"
     fit-margin-right="0"
     fit-margin-bottom="0"
     inkscape:window-width="1366"
     inkscape:window-height="706"
     inkscape:window-x="-8"
     inkscape:window-y="-8"
     inkscape:window-maximized="1" />
  <metadata
     id="metadata7">
    <rdf:RDF>
      <cc:Work
         rdf:about="">
        <dc:format>image/svg+xml</dc:format>
        <dc:type
           rdf:resource="http://purl.org/dc/dcmitype/StillImage" />
        <dc:title></dc:title>
      </cc:Work>
    </rdf:RDF>
  </metadata>
  <g
     inkscape:label="Calque 1"
     inkscape:groupmode="layer"
     id="layer1"
     transform="translate(-237.33849,-502.71933)">
    <g
       transform="matrix(1.25,0,0,-1.25,234.28571,572.46394)"
       inkscape:label="ink_ext_XXXXXX"
       id="g3040">
      <g
         transform="scale(0.1,0.1)"
         id="g3042">
        <path
           id="path3044"
           style="fill:#000000;fill-opacity:1;fill-rule:nonzero;stroke:none"
           d="M 363.668,526 C 347.742,506 331.891,490 328,490 c -3.785,0 -24,11.488 -44,25.008 -60.406,40.824 -160,29.66 -226,-25.34 -63.73438,-53.113 -34,-144.711 66,-203.301 25,-14.648 58.777,-29.258 76,-32.867 29,-6.082 30.547,-8.5 24,-37.5 -3.84,-17 -7.902,-40.031 -9,-51 -1.102,-11 -5.387,-27.648 -9.523,-37 -29.606,-66.8789 98.492,-62 157.523,6 43.344,49.93 61.457,142 40.133,204 -14.09,40.965 -13.637,48 6.551,102 38.507,103 9.984,156.313 -46.016,86 z M 272,480.559 C 302.117,453.68 303.313,450 292.332,418 263.848,335 242.535,279.535 237,274 225.523,262.523 120.719,321 90.0313,356 41.0703,411.844 50,462.188 114,491.129 c 62,28.043 119.012,24.226 158,-10.57 z M 374.188,466 c -3.481,-9 -10.125,-16 -15.188,-16 -4.949,0 -3.359,9 3.535,20 14.02,22.371 20.93,20 11.653,-4 z M 340,380 C 340,356.09 289.074,243 265.695,215 249,195 249,195 255,220 c 3.273,13.637 19.824,60 36.414,102 30.02,76 48.586,98.164 48.586,58 z M 380.195,275 C 380.551,239 346.219,160.172 319,134.484 299.523,116.102 283.5,109.836 261.5,112 l -30.5,3 47,71 c 25.816,39 55.113,86.098 65,104.5 14.508,27 19.844,30.688 27.5,19 5.227,-7.977 9.59,-23.5 9.695,-34.5"
           inkscape:connector-curvature="0" />
        <path
           id="path3046"
           style="fill:#000000;fill-opacity:1;fill-rule:nonzero;stroke:none"
           d="M 914,530.82 C 873.754,506.387 849.938,454 839.066,366 826.348,263 820.016,238.395 798.422,208 775.684,176 764,173.488 740,195.445 725,209.172 721.41,209.059 709.5,194.5 697.688,180.063 699,175.578 720,158.633 c 24.602,-19.856 47,-17.914 88,7.613 37.898,23.598 54.344,59.754 64.016,140.754 14.925,125 26.468,165.734 53.984,190.5 14,12.602 35.559,22.5 49,22.5 39.68,0 41.48,-36 5.699,-114 C 942.625,323 943.586,326.164 955,321.602 959.938,319.625 978.875,346 996.938,380 1036.25,454 1042.31,522.684 1011,539.445 981.945,555 949,552.07 914,530.82"
           inkscape:connector-curvature="0" />
        <path
           id="path3048"
           style="fill:#000000;fill-opacity:1;fill-rule:nonzero;stroke:none"
           d="m 1313.45,526 c -6.29,-7.145 -41.45,-54 -78.03,-104 -78.28,-107 -121.22,-201.852 -105.04,-232 11.27,-21 34.53,-26.227 44.48,-10 3.35,5.453 1.14,10 -4.86,10 -18.83,0 -10.28,48 13.72,77 25.29,30.551 99.53,144 134.81,206 30.17,53 26.7,89.078 -5.08,53"
           inkscape:connector-curvature="0" />
        <path
           id="path3050"
           style="fill:#000000;fill-opacity:1;fill-rule:nonzero;stroke:none"
           d="M 1902,482.559 C 1895.33,480.027 1890,470 1890,460 c 0,-23 47.02,-80 66,-80 18.61,0 18,23.938 -1,39.617 -8,6.606 -15,17.985 -15,24.383 0,19 -24.38,43.738 -38,38.559"
           inkscape:connector-curvature="0" />
        <path
           id="path3052"
           style="fill:#000000;fill-opacity:1;fill-rule:nonzero;stroke:none"
           d="m 1295,297 c -68.37,-68.367 -22,-148.617 49,-84.809 35,31.457 39.56,84.52 9,104.657 C 1331.31,331.133 1328,330 1295,297 z m 31.22,-53 c -6.56,-17 -26.22,-20 -26.22,-4 0,15 24.63,39.039 28.69,28 1.77,-4.801 0.61,-16 -2.47,-24"
           inkscape:connector-curvature="0" />
        <path
           id="path3054"
           style="fill:#000000;fill-opacity:1;fill-rule:nonzero;stroke:none"
           d="m 1559,270.742 c -20,-16.297 -25.87,-16.851 -45,-4.242 -17.77,11.711 -27,12.195 -48,2.523 -32,-14.742 -34.46,-29.023 -5,-29.023 15,0 19.48,-4.855 15.69,-17 -18.13,-58 -18.66,-63 -6.69,-63 7.28,0 35,20.598 63,46.809 49,45.871 70.59,47.343 46.77,3.191 -22.61,-41.941 6.23,-40.367 51.23,2.797 43,41.242 44.07,41.637 46.89,17.203 5.91,-51 13.27,-70 27.11,-70 22.32,0 26.21,15 19.18,74 -7.27,61 -20.19,69.363 -62.18,40.254 -20,-13.867 -22.57,-13.801 -28.24,0.746 -8.09,20.758 -46.76,18.555 -74.76,-4.258"
           inkscape:connector-curvature="0" />
        <path
           id="path3056"
           style="fill:#000000;fill-opacity:1;fill-rule:nonzero;stroke:none"
           d="m 2026,249.5 c -9.09,-23 -13.41,-51.086 -10,-65 4.85,-19.789 1,-26.422 -20,-34.5 -14,-5.383 -26,-14.617 -26,-20 0,-19.262 52,-9 76,15 19.2,19.199 22.76,30 17.81,54 -7.63,37 13.29,43.145 34.04,10 10.02,-16 16.48,-18.238 27.15,-9.406 17.76,14.711 1,56.879 -26,65.406 -10,3.156 -19,10.5 -19,15.5 0,5 -9,9.5 -19,9.5 -12.67,0 -24.33,-13.5 -35,-40.5"
           inkscape:connector-curvature="0" />
        <path
           id="path3058"
           style="fill:#000000;fill-opacity:1;fill-rule:nonzero;stroke:none"
           d="m 935.191,238 c -23.156,-33 -19.457,-64.578 9.809,-83.68 23,-15.015 27,-15.007 50,0.11 26.84,17.636 32.6,52.57 14.27,86.57 -13.84,25.672 -55.129,24 -74.079,-3 z M 980,200 c 0,-11 -4.5,-20 -10,-20 -5.5,0 -10,9 -10,20 0,11 4.5,20 10,20 5.5,0 10,-9 10,-20"
           inkscape:connector-curvature="0" />
        <path
           id="path3060"
           style="fill:#000000;fill-opacity:1;fill-rule:nonzero;stroke:none"
           d="m 1831,241 c -26,-26 -34.99,-64 -21.29,-90 15.53,-29.473 47.04,-26 81.63,9 22.82,23.078 28.97,37.5 26.66,62.5 -2.59,28 -7.43,32.914 -35,35.5 -22,2.063 -38.25,-3.25 -52,-17 z m 49,-25 c 0,-22 -10.96,-46 -21,-46 -10,0 -11.64,44.355 -2,54 11.13,11.129 23,7 23,-8"
           inkscape:connector-curvature="0" />
        <path
           id="path3062"
           style="fill:#000000;fill-opacity:1;fill-rule:nonzero;stroke:none"
           d="M 474.621,220 C 466.027,206.152 477,190 495,190 c 8.25,0 15,9 15,20 0,21 -24.289,27.867 -35.379,10"
           inkscape:connector-curvature="0" />
        <path
           id="path3064"
           style="fill:#000000;fill-opacity:1;fill-rule:nonzero;stroke:none"
           d="m 2184.62,110 c -8.59,-13.8477 2.38,-30 20.38,-30 8.25,0 15,9 15,20 0,21 -24.29,27.867 -35.38,10"
           inkscape:connector-curvature="0" />
      </g>
    </g>
  </g>
</svg>
