<?xml version="1.0" encoding="UTF-8"?>
<svg version="1.1" xmlns="http://www.w3.org/2000/svg" width="321" height="74" >
<path d="M31.881,11.881c-8.205,9.444-16.273,19.047-24.75,28.25c-0.763,0.829,0.42,2.021,1.237,1.237 c2.444-2.346,5.06-4.516,7.803-6.502c5.228-3.786,10.301-3.832,16.375-2.025c4.568,1.358,9.959,5.607,14.821,2.548 c5.651-3.556-1.631-14.177-3.798-17.361c-2.606-3.829-6.98-8.507-11.837-9.372C31.176,8.557,30.63,8.892,30.625,9.5 c-0.045,4.905,23.276,4.082,25.125,4.125c1.129,0.026,1.126-1.724,0-1.75c-6.554-0.154-13.223-0.28-19.688-1.475 c-0.963-0.178-3.684-1.291-3.687-0.9c-0.369,0.281-0.738,0.563-1.107,0.844c5.009,0.893,9.017,5.961,11.655,9.838 c1.959,2.879,6.67,9.94,3.811,13.461c-1.617,1.99-5.656,0.894-7.597,0.071c-5.896-2.5-12.125-5.271-18.619-3.308 c-4.963,1.5-9.72,6.206-13.386,9.725c0.413,0.413,0.825,0.825,1.237,1.237c8.477-9.203,16.545-18.805,24.75-28.25 C33.855,12.271,32.623,11.028,31.881,11.881L31.881,11.881z"/>
<path d="M60.755,29.309c-2.105-4.971-14.452-1.72-12.599,3.455c2.644,7.383,13.044,2.887,15.847-1.927 c2.837-4.874-6.063-4.617-7.79-0.066c-1.103,2.905,1.378,5.25,3.98,5.61c3.447,0.477,7.167-1.287,10.248-2.625 c-0.438-0.251-0.877-0.503-1.316-0.755c-0.293,6.105,6.095,3.559,9.066,1.505c-0.438-0.251-0.877-0.503-1.316-0.755 c-0.054,6.132,14.318,0.938,16.107,0.344c-0.284-0.487-0.567-0.975-0.851-1.462c-6.245,6.516-12.311,13.222-18.09,20.155 c-3.475,4.169-6.674,8.727-10.753,12.345c0.034,0.17,0.068,0.34,0.103,0.51c0.224-0.757,0.512-1.491,0.865-2.2 c0.519-1.167,1.177-2.259,1.84-3.347c0.731-1.199,1.628-2.282,2.583-3.306c2.436-2.61,1.661,2.037,1.477,2.979 c-0.214,1.102,1.472,1.572,1.688,0.465c3.321-17.063-14.192,6.082-9.323,7.063c1.439,0.29,3.122-1.958,3.916-2.776 c3.91-4.021,7.234-8.609,10.85-12.889c5.151-6.098,10.56-11.999,16.082-17.762c0.581-0.605,0.011-1.749-0.851-1.462 c-1.219,0.404-13.92,4.502-13.893,1.344c0.005-0.627-0.761-1.139-1.316-0.755c-1.752,1.21-6.635,4.21-6.434,0.005 c0.035-0.73-0.754-1-1.316-0.755c-1.832,0.795-3.675,1.485-5.604,2.009c-2.087,0.567-6.694,1.343-6.054-3.018 c0.438-2.983,6.789-3.865,3.255,0.639c-2.214,2.822-6.171,3.357-9.423,2.531c-1.906-0.796-1.958-2.314-0.157-4.555 c1.789-0.946,3.691-1.322,5.707-1.126c0.84,0.113,1.636,0.696,1.962,1.466C59.683,31.228,61.19,30.335,60.755,29.309 L60.755,29.309z"/>
<path d="M96.441,39.005c7.001-4.738,13.735-10.418,18.923-17.11c0.364-0.47,8.633-11.474,4.517-10.711 c-3.146,0.583-6.395,3.261-9.07,4.841c-4.991,2.947-10.774,5.729-14.689,10.134c-5.824,6.554,7.712,10.315,11.646,11.685 c1.068,0.372,1.524-1.319,0.465-1.688c-3.486-1.214-7.097-2.388-10.185-4.461c-3.891-2.613,0.827-5.939,3.09-7.603 c3.983-2.927,8.406-5.293,12.659-7.796c1.313-0.772,2.631-1.535,3.964-2.272c0.513-0.284,1.036-0.548,1.563-0.805 c1.455-0.708,0.05,0.266,0.273-0.961c-0.28,1.542-2.046,3.354-2.893,4.61c-2.377,3.528-4.891,6.758-7.904,9.771 c-4.018,4.018-8.536,7.672-13.242,10.857C94.629,38.123,95.504,39.64,96.441,39.005L96.441,39.005z"/>
<path d="M121.732,31.406c-3.177-0.586-8.947-0.639-9.094,3.796c-0.042,1.252,1.353,2.242,2.45,2.388 c3.487,0.466,6.18-2.003,8.28-4.472c-0.458-0.354-0.916-0.707-1.374-1.06c-1.059,1.596-3.154,5.203-0.511,6.344 c1.937,0.836,4.72-0.812,6.299-1.823c0.903-0.579,1.651-1.403,2.396-2.164c1.907-1.95,4.342-1.678,6.84-1.322 c-0.174-0.429-0.349-0.857-0.523-1.285c-0.719,1.649-2.493,5.041-4.989,1.75c-0.551-0.728-1.95-0.344-1.599,0.674 c0.817,2.371,2.278,4.154,4.844,4.393c1.124,0.104,1.114-1.646,0-1.75c-1.791-0.167-2.644-1.622-3.156-3.107 c-0.533,0.225-1.066,0.449-1.599,0.674c2.921,3.853,6.229,2.34,8.011-1.75c0.198-0.454,0.093-1.197-0.523-1.285 c-3.274-0.467-6.056-0.616-8.542,1.772c-0.753,0.723-7.324,5.02-6.909,2.772c0.196-1.059,0.883-2.117,1.474-3.01 c0.547-0.824-0.729-1.819-1.374-1.06c-0.854,1.137-1.865,2.119-3.032,2.945c-0.596,0.294-1.192,0.589-1.789,0.883 c-2.13,0.787-2.348-0.097-0.652-2.653c1.385-0.413,3.197-0.224,4.609,0.037C122.37,33.297,122.841,31.611,121.732,31.406 L121.732,31.406z"/>
<path d="M164.494,20.309c-2.658,3.808-5.328,7.613-8.119,11.325c-0.912,1.212-2.421,2.583-2.369,4.255 c0.158,5.049,17.298-10.729,17.612-11.021c-0.413-0.413-0.825-0.825-1.238-1.237c-1.441,1.418-12.994,12.863-7.552,14.36 c3.355,0.923,7.979-4.297,10.037-6.196c5.937-5.48,11.178-11.805,15.89-18.354c0.58-0.807-0.732-1.812-1.375-1.06 c-11.493,13.452-23.725,28.015-31.136,44.177c-0.467,1.018,1.041,1.908,1.511,0.883c7.359-16.046,19.458-30.475,30.864-43.823 c-0.459-0.354-0.917-0.707-1.375-1.06c-5.886,8.181-12.896,17.054-21.386,22.701c-5.269,3.504,0.077-4.135,1.211-5.494 c1.425-1.708,2.964-3.338,4.55-4.897c0.808-0.794-0.413-2.003-1.238-1.237c-3.944,3.662-7.917,7.411-12.36,10.472 c-0.775,0.534-1.618,1.084-2.534,1.334c0.418-0.114,0.178,0.238,0.632-0.591c2.625-4.79,6.746-9.155,9.888-13.655 C166.653,20.264,165.136,19.391,164.494,20.309L164.494,20.309z"/>
<path d="M181,30.375c-2.875,0.293-8.067,1.453-8.29,5.064c-0.093,1.51,1.438,2.247,2.702,2.321 c2.82,0.165,5.498-2.511,7.207-4.391c-0.413-0.413-0.825-0.825-1.238-1.237c-0.854,1.001-1.733,2.245-1.899,3.581 c-0.309,2.502,2.485,2.646,4.269,2.413c1.103-0.145,1.116-1.896,0-1.75c-1.385,0.181-3.093,0.429-2.228-1.356 c0.285-0.588,0.672-1.153,1.097-1.65c0.724-0.849-0.473-2.08-1.238-1.237c-1.354,1.491-2.854,2.939-4.772,3.657 c-0.714,0.267-2.641,0.463-2.007-0.852c0.95-1.969,4.435-2.612,6.398-2.812C182.111,32.012,182.122,30.261,181,30.375L181,30.375 z"/>
<path d="M190,34.125c1.818-0.01,6.079-0.294,6.125-2.875c0.044-2.497-4.165-1.312-5.393-0.876c-1.832,0.651-4.57,2.6-2.337,4.541 c1.607,1.396,4.259,2.097,6.273,2.639c1.146,0.309,2.388,0.56,3.581,0.571c1.129,0.011,1.128-1.739,0-1.75 c-1.68-0.016-3.379-0.538-4.954-1.066c-1.131-0.379-3.201-0.879-3.956-1.912c-0.236-0.323,0.887-0.889,1.121-1.013 c0.903-0.48,3.099-1.368,4.119-0.834c-0.139-0.35-0.28-0.375-0.425-0.076c-0.188,0.139-0.393,0.252-0.61,0.34 c-0.495,0.207-1.04,0.306-1.565,0.4c-0.647,0.116-1.321,0.157-1.979,0.161C188.872,32.381,188.871,34.131,190,34.125L190,34.125z "/>
<path d="M237.982,16.656c-8.306-3.293-18.21,5.371-21.265,12.298c-1.263,2.864-0.064,5.332,2.706,6.452 c3.915,1.583,9.137-0.631,12.268-2.901c2.201-1.596,7.211-6.39,6.302-9.694c-0.978-3.555-6.329,3.469-6.612,3.82 c-1.492,1.854-5.912,8.127-2.572,10.474c3.246,2.281,6.76-1.787,8.447-4.164c-0.458,0.059-0.916,0.118-1.375,0.177 c1.895,2.049,4.23,1.595,6.311,0.137c-0.398-0.399-0.798-0.798-1.197-1.197c-1.227,1.866-3.475,6.452,0.016,7.412 c5.332,1.467,11.715-5.311,14.725-8.738c0.69-0.786,5.924-7.455,3.031-8.25c-2.394-0.658-5.641,5.169-6.67,6.645 c-1.396,2-4.911,6.365-3.602,9.064c1.007,2.074,6.117,0.081,7.397-0.349c11.627-3.895,21.842-13.303,25.452-25.11 c0.27-0.881-0.839-1.409-1.463-0.851c-3.857,3.45-7.545,7.102-11.079,10.88c-3.544,3.788-9.483,9.383-9.677,14.988 c-0.021,0.627,0.773,1.139,1.316,0.755c0.564-0.398,1.143-0.773,1.724-1.145c1.376-0.877,3.337-2.602,1.829-0.052 c-0.357,0.605,0.112,1.268,0.756,1.316c4.271,0.323,8.994-0.852,11.006-4.934c-0.544-0.147-1.087-0.294-1.631-0.441 c0.612,6.97,6.93,2.204,9.494-0.631c-0.459-0.354-0.917-0.707-1.375-1.06c-2.621,5.74,1.249,7.72,6.549,5.882 c1.966-0.682,13.782-6.866,6.189-8.785c-0.943-0.239-1.57,1.123-0.674,1.599c4.847,2.576,10.39,5.323,15.941,5.62 c1.128,0.06,1.122-1.69,0-1.75c-5.25-0.28-10.486-2.951-15.059-5.38c-0.225,0.533-0.449,1.066-0.674,1.599 c3.974,1.004-6.899,5.656-7.449,5.846c-3.455,1.198-4.576-0.981-3.313-3.749c0.387-0.848-0.661-1.849-1.375-1.06 c-1.284,1.421-6.118,6.283-6.506,1.869c-0.069-0.79-1.211-1.292-1.631-0.441c-1.748,3.548-5.873,4.34-9.494,4.066 c0.252,0.439,0.504,0.878,0.756,1.316c3.662-6.192-3.214-3.128-5.947-1.197c0.438,0.251,0.878,0.503,1.316,0.755 c0.194-5.643,7.047-11.534,10.637-15.313c3.068-3.231,6.284-6.348,9.607-9.319c-0.488-0.284-0.976-0.567-1.463-0.851 c-2.642,8.641-8.656,15.224-16.188,19.989c-1.207,0.763-13.877,6.449-13.408,4.274c0.557-2.58,2.578-5.133,4.056-7.251 c0.878-1.26,1.835-2.461,2.845-3.618c1.146-1.313,1.197-2.28,0.031,0.192c-1.966,4.171-6.137,7.68-9.91,10.149 c-0.957,0.626-6.93,3.831-6.02-0.146c0.231-1.011,0.872-2.048,1.443-2.916c0.47-0.715-0.478-1.702-1.197-1.197 c-1.85,1.187-3.246,1.233-4.189,0.137c-0.411-0.444-1.063-0.263-1.375,0.177c-1.182,1.665-2.394,3.102-4.344,3.842 c-3.864,1.466-0.625-5.267-0.613-5.288c0.998-1.968,2.525-3.654,3.976-5.296c0.468-0.529,2.21-3.067,1.041-0.387 c-2.322,5.326-8.048,9.002-13.769,9.125c-10.353,0.223,2.845-12.659,5.854-14.429c2.681-1.576,6.614-2.477,9.628-1.282 C238.567,18.76,239.019,17.067,237.982,16.656L237.982,16.656z"/>
<path d="M240.75,22.625c11.977-0.209,23.96-0.257,35.938-0.148c8.023,0.073,16.057,0.207,24.066,0.702 c2.738,0.169,5.503,0.359,8.202,0.87c2.131,0.403,2.326-0.07,0.311,0.608c-1.064,0.357-0.607,2.048,0.465,1.688 c3.445-1.158,3.145-3.264-0.311-3.983c-7.394-1.54-15.362-1.311-22.871-1.482c-15.259-0.35-30.54-0.271-45.801-0.003 C239.623,20.895,239.621,22.645,240.75,22.625L240.75,22.625z"/>
</svg>