<?xml version="1.0" encoding="UTF-8" standalone="no"?>
<!-- Created with Inkscape (http://www.inkscape.org/) -->

<svg
   xmlns:dc="http://purl.org/dc/elements/1.1/"
   xmlns:cc="http://creativecommons.org/ns#"
   xmlns:rdf="http://www.w3.org/1999/02/22-rdf-syntax-ns#"
   xmlns:svg="http://www.w3.org/2000/svg"
   xmlns="http://www.w3.org/2000/svg"
   xmlns:sodipodi="http://sodipodi.sourceforge.net/DTD/sodipodi-0.dtd"
   xmlns:inkscape="http://www.inkscape.org/namespaces/inkscape"
   id="svg2"
   version="1.1"
   inkscape:version="0.91 r13725"
   width="386"
   height="259"
   viewBox="0 0 386 259"
   sodipodi:docname="dmitriy kvartalnov2.svg">
  <metadata
     id="metadata8">
    <rdf:RDF>
      <cc:Work
         rdf:about="">
        <dc:format>image/svg+xml</dc:format>
        <dc:type
           rdf:resource="http://purl.org/dc/dcmitype/StillImage" />
        <dc:title></dc:title>
      </cc:Work>
    </rdf:RDF>
  </metadata>
  <defs
     id="defs6" />
  <sodipodi:namedview
     pagecolor="#ffffff"
     bordercolor="#666666"
     borderopacity="1"
     objecttolerance="10"
     gridtolerance="10"
     guidetolerance="10"
     inkscape:pageopacity="0"
     inkscape:pageshadow="2"
     inkscape:window-width="1366"
     inkscape:window-height="705"
     id="namedview4"
     showgrid="false"
     inkscape:zoom="1.8223938"
     inkscape:cx="184.55782"
     inkscape:cy="140.06297"
     inkscape:window-x="-8"
     inkscape:window-y="-8"
     inkscape:window-maximized="1"
     inkscape:current-layer="svg2" />
  <path
     style="fill:#000000;fill-opacity:1"
     d="m 324.11133,12.753906 c -3.15192,0.06321 -7.86372,2.039185 -13.61133,5.886719 -11.72328,6.765508 -19.96944,15.476504 -27.91016,24.306641 C 279.51542,46.358286 274.75,52.398491 272,56.369141 259.41579,74.046107 249.04502,90.07141 241.10938,110.89648 c -2.50333,6.71236 -3.24858,7.61272 -15.7129,19 -7.19639,6.57455 -15.29457,14.07262 -17.99609,16.66211 -9.86102,7.35999 -33.01702,29.9364 -45.83984,30.33008 -0.5832,-0.36043 -1.06055,-1.43894 -1.06055,-2.39648 0,-2.33603 -1.9426,-4.14272 -4.44922,-4.13672 -2.49778,0.006 -5.03267,1.65739 -15.04492,9.79101 -6.94171,5.63922 -7.91832,6.14136 -9.37695,4.82422 -2.0123,-1.81712 -8.81833,-1.3594 -10.91211,0.73438 -2.2687,2.26869 -0.79336,6.24939 2.77734,7.49414 1.65332,0.57635 3.004,1.6335 3,2.34961 -7.16209,17.40504 -25.77696,22.54773 -24.39648,-3.09766 3.35651,-5.30057 2.93165,-5.86724 7.21093,-10.0332 l 17.29102,-22.06641 c 12.02786,-16.55128 24.96922,-33.28161 34.20898,-52.5 3.23559,-7.8346 10.19881,-28.311885 1.95313,-30.718748 -5.14879,-1.324657 -12.09018,3.031324 -17.32422,10.871094 -9.67269,13.141924 -17.21546,26.129354 -25.17188,39.347654 -7.95642,13.2183 -12.09396,25.52399 -16.21093,37.69727 -1.89496,5.57243 -4.154129,13.87298 -5.021487,18.44531 -0.655256,3.45422 -0.650977,4.08046 -1.496094,8.30664 -7.059616,10.70661 -15.442272,22.07782 -23.197265,30.30078 -2.95592,3.12571 -4.797768,4.25 -6.960938,4.25 -3.76628,0 -4.30514,-1.51252 -3.52539,-9.90234 0.86992,-9.35996 2.253711,-12.89427 7.082031,-18.09766 5.38734,-5.80584 12.53672,-14.55114 15.53125,-19 4.154204,-5.29544 8.20868,-11.23091 11.017578,-16.5 5.535295,-9.93805 11.138375,-18.49387 13.960935,-28.03125 1.23388,-5.21746 4.26902,-15.68162 -1.76172,-16.28711 -2.83487,-0.27209 -4.00308,0.38126 -8.05078,4.5 -8.303961,8.44972 -7.777389,11.81316 0.74219,4.73828 20.36287,-13.153 -8.527536,33.70183 -12.863281,39.80274 -1.70087,2.35242 -5.288607,7.72307 -7.972657,11.93555 -2.684049,4.21249 -6.543421,9.49999 -8.576171,11.75 -2.03276,2.25002 -4.841059,5.07112 -5.09961,4.57617 -0.70941,-1.35803 0.16936,-6.78261 3.271485,-17.42774 l 1.3125,-6.92773 c 0,0 6.627734,-5.67295 8.552734,-6.94141 1.925,-1.26846 8.617608,-6.31365 11.707031,-8.90039 3.089423,-2.58674 4.958918,-5.1358 7.563169,-10.1875 2.60425,-5.0517 -3.829177,-9.96784 -11.684262,-5.14453 -4.28774,2.63283 -8.386184,6.69216 -13.652344,17.17774 -3.39142,6.7527 -4.216015,8.61754 -5.642578,12.02148 l -21.847657,11.19531 c -7.331707,2.73759 -7.545917,5.80408 -4.193359,4.65625 0.910616,-0.31177 6.800446,-2.55733 12.972656,-5.69336 6.17221,-3.13603 11.80188,-5.65087 12.212891,-5.875 0,0 -0.696021,4.90532 -1.806641,9.21875 -1.11062,4.31343 -2.297702,10.4063 -2.638672,13.53907 -0.58421,5.36741 -0.978521,6.04358 -6.832031,11.72656 -3.41645,3.31692 -7.100347,6.71685 -8.185547,7.55468 -1.76347,1.36153 -1.807325,1.65623 -0.416015,2.77344 2.656765,2.25192 16.770347,24.986 16.943359,14.25 0,-2.66524 0.41738,-3.5009 1.75,-3.5039 5.785127,2.77147 23.444029,-21.36278 30.421875,-30.69141 1.609694,4.42817 1.792418,11.69002 6.876955,14.7207 2.44979,1.31108 8.57603,1.2336 11.26758,-0.14257 4.73689,-2.42194 10.57284,-9.24023 12.64648,-14.77344 1.88053,-5.01796 2.84962,-6.11075 9.17188,-10.35938 6.43982,-4.32763 10.81548,-5.93408 10.89648,-4 0.0173,0.4125 1.11352,1.53484 2.43555,2.4961 2.33124,1.69506 2.60927,1.65313 9.21875,-1.39844 17.38985,-8.02879 27.65547,-14.65013 40.80273,-26.31836 3.85623,-3.42241 8.11814,-7.0799 9.4707,-8.12695 1.35257,-1.04704 4.34416,-3.74883 6.64844,-6.00391 6.5541,-6.41414 12.28075,-11.60961 15.88689,-14.17667 -1.28284,4.06727 -2.60623,7.29591 -4.42009,11.54776 -7.05756,16.54352 -12.9722,30.9728 -12.64844,43.99414 0.21219,8.53409 0.12104,6.8103 -9.92578,7.67579 -10.95957,0.94412 -24.13696,5.79083 -26.19336,8.20312 -2.41082,2.82806 1.41932,3.72834 11.9043,1.11914 5.65894,-1.40823 12.93057,-2.95402 16.08789,-3.74414 7.06258,-1.76741 8.2393,-0.44595 11.77734,5.58984 2.00074,3.4132 4.05669,4.60749 7.94922,5.9004 6.99542,3.11255 23.0472,-7.74923 23.97461,-13.45311 0,-0.95957 -0.94794,-2.60265 -2.10742,-3.65039 -1.79414,-1.62125 -3.84215,-3.28562 -13.75,-3.41662 -6.40302,-0.0847 -14.14513,1.35483 -14.83263,1.30203 1.12932,-24.03447 8.80616,-38.28204 14.80138,-54.09244 2.16171,-5.82719 5.0074,-12.41798 6.32226,-14.64649 2.1221,-3.59667 18.41884,-19.65914 33.40039,-32.919918 17.5623,-15.634103 37.2093,-42.214489 44.66602,-55.154297 7.76611,-13.477477 8.40184,-14.79987 8.45312,-17.605469 0.0515,-2.819524 -1.29196,-4.295877 -3.73242,-4.455078 -0.1961,-0.01279 -0.39924,-0.01789 -0.60937,-0.01367 z m -2.55274,5.701172 c 1.27484,11.262925 -20.29214,35.360296 -28.2207,44.783203 -7.32674,8.73347 -24.57682,26.138402 -35.92383,36.246094 -3.6224,3.226745 -3.918,4.248575 -9.90924,9.292705 3.67493,-7.95421 4.91137,-13.108797 16.2862,-29.925518 13.52674,-19.998108 20.0639,-28.369223 30.8496,-39.501953 7.17951,-7.41049 19.68274,-17.945922 23.4004,-19.71875 1.58891,-0.757699 2.76383,-1.171523 3.51757,-1.175781 z M 161.53711,82.681641 c 2.49483,0.225497 2.48577,3.562722 0.45703,11.351562 -7.32327,18.923477 -14.33637,33.602867 -27.50586,49.539067 -8.47398,11.61305 -15.90151,23.04343 -24.82226,33.57812 -2.98738,3.76438 -6.16602,5.51949 -6.16602,3.40625 0,-2.19209 5.56817,-19.55433 8.6875,-27.08984 7.02507,-16.97076 11.39878,-26.91585 16.95498,-34.65039 5.5562,-7.73454 20.54465,-35.629113 32.39463,-36.134769 z M 339.8125,136.79492 c -22.56722,-0.30736 -46.09173,10.74381 -64.76953,19.4336 -4.50074,1.99089 -8.21191,6.23098 -7.07031,8.07812 1.15676,1.87168 4.93674,1.09658 9.52734,-1.95508 21.96104,-12.45534 46.33351,-18.55907 62.75,-20.60156 3.26299,-0.40125 4.25,-0.94718 4.25,-2.35352 0,-1.76958 -0.85705,-2.54569 -4.6875,-2.60156 z m -244.597656,5.55664 c 0.94707,0 1.312812,0.87974 1.101562,2.64649 -0.20857,1.74426 -2.259134,4.18354 -5.816406,7.38476 -7.849929,7.06422 -12.142116,9.93336 -15.1134,11.76203 2.160459,-4.32676 3.570164,-6.92397 8.406369,-12.95539 3.568003,-4.4498 9.020585,-8.83789 11.421875,-8.83789 z m 59.810546,31.6875 c 0.45458,-0.0203 0.87371,0.10426 1.22266,0.36328 1.4483,2.36109 0.80071,3.40089 -0.54427,5.41995 -1.30331,1.46656 -2.89872,1.6965 -3.81316,0.53125 -0.91401,-1.16489 -0.0727,-2.56698 1.05402,-4.2572 0.74536,-1.11781 1.10628,-2.01393 2.08075,-2.05728 z m -28.94727,12.39258 c 0.13124,-0.003 0.26259,0.002 0.39258,0.0137 1.15481,0.10855 1.99051,0.75815 1.92969,1.5 l -0.20898,0.53516 c -0.49334,0.67201 -1.70798,0.99575 -2.80664,0.74805 -1.09859,-0.24748 -1.72235,-0.98534 -1.44141,-1.70508 0.24563,-0.62768 1.11866,-1.07418 2.13476,-1.0918 z m 110.28321,8.91992 c 5.7416,0 8.13867,0.71281 8.13867,2.41992 0,2.00612 -5.42901,6.55585 -9.06836,7.59961 -1.87997,0.53916 -4.47926,0.98047 -5.77539,0.98047 -2.72816,0 -9.93594,-6.6665 -8.55664,-7.91406 1.51384,-1.36925 10.0042,-3.08594 15.26172,-3.08594 z m -175.107424,14 c 0.4884,0 0.695315,3.9375 0.458985,8.75 -0.44265,9.01387 1.079652,13.654 -2.822266,9.45703 -2.385093,-2.79647 -6.394447,-8.92732 -6.373047,-10.4375 0.01917,-1.34997 7.237758,-7.76953 8.736328,-7.76953 z"
     id="path3352"
     inkscape:connector-curvature="0"
     sodipodi:nodetypes="sccccsccssssssccccccczcsccsssccccsccsssccsssssccsscsssccccccssscssssscsssssssccssccscccccsccscssscsccssczsccsccsccsscscccccccscccccssssssssscscs" />
</svg>
