<?xml version="1.0" encoding="UTF-8" standalone="no"?>
<svg xmlns:rdf="http://www.w3.org/1999/02/22-rdf-syntax-ns#" xmlns="http://www.w3.org/2000/svg" height="190.62" width="256.38" version="1.1" xmlns:cc="http://creativecommons.org/ns#" xmlns:dc="http://purl.org/dc/elements/1.1/">
<g transform="translate(.73419 1.7812)" stroke="#000" stroke-width="1px" fill="none">
<path d="m108.34 81.172 23.36-47.465m46.74-1.567 12.77 81.78 7.23 31.48m-0.17678 25.191-0.17842 0.4673m-8.3748 6.7617-3.43 0.4338m-16.75-3.09-106.33-45.94-45.895-26.04m186.07-37.277 41.779 4.9459"/>
<path d="m49.915 9.2585 10.085 66.086"/>
<path d="m14.762 87.063 8.762-5.165"/>
<path d="m30.492 79.477 69.658-11.008"/>
<path d="m67.414 80.177 1.172-0.083"/>
<path d="m91.998 82.829 0.7046 1.39"/>
<path d="m90.076 72.753 4.112-31.659"/>
<path d="m91.042 57.435 2.517-14.115"/>
<path d="m93.516 43.469 0.672-2.031"/>
<path d="m89.447 61.023c1.2859-1.7818 1.5955-3.5877 1.5955-3.5877"/>
<path d="m89.447 61.023-9.939 13.883"/>
<path d="m60.055 75.818c0.70312 4.6719 7.3594 4.3594 7.3594 4.3594"/>
<path d="m60 75.344 0.1875 1.125"/>
<path d="m68.586 80.094c7.5-0.39062 10.922-5.1875 10.922-5.1875"/>
<path d="m90.076 72.753c-0.7292 5.2812 1.9224 10.076 1.9224 10.076"/>
<path d="m92.703 84.219c2.5938 4.7188 7.1562 3.5625 7.1562 3.5625"/>
<path d="m101.18 87.403c4.7067-1.2595 7.1594-6.2314 7.1594-6.2314"/>
<path d="m111.88 67.406 72.93-2.316"/>
<path d="m123.72 94.916-0.61-29.577"/>
<path d="m124.37 55.329 2.91-11.744"/>
<path d="m124.37 55.329c-1.37 5.3917-1.2595 10.01-1.2595 10.01"/>
<path d="m123.72 94.916c0.11048 5.016 2.2429 8.187 4.3476 10.104 1.0524 0.9585 0.30678 0.31144 0.48239 0.44"/>
<path d="m138.82 104.27c0.76194-0.30466 2.001-1.434 2.001-1.434"/>
<path d="m128.55 105.46c2.4749 1.5689 10.275-1.1932 10.275-1.1932"/>
<path d="m143.93 99.91c1.7236-1.6131 3.3367-5.4801 3.3367-5.4801"/>
<path d="m147.27 94.43c2-4.9062 35.082-85.711 35.082-85.711"/>
<path d="m140.83 102.83 3.1-2.92"/>
<path d="m178.82 21.984 3.53-13.265"/>
<path d="m178.82 21.984c-1.0312 5.4688-0.375 10.156-0.375 10.156"/>
<path d="m198.44 145.4c3.5797 15.247-0.17678 25.191-0.17678 25.191"/>
<path d="m189.71 177.82c5.8557-0.7071 8.3748-6.7617 8.3748-6.7617"/>
<path d="m169.53 175.16c9.1875 3.9688 16.75 3.0938 16.75 3.0938"/>
<path d="m11.727 99.039c-1.027-1.161-1.585-2.42-1.8731-4.184-0.2879-1.765 0.1611-3.219 0.8881-4.373 1.455-2.308 4.02-3.419 4.02-3.419"/>
<path d="m11.727 99.039c1.3438 1.7344 5.5781 4.1406 5.5781 4.1406"/>
<path d="m23.524 81.898c2.6472-1.708 6.9679-2.421 6.9679-2.421"/>
<path d="m100.15 68.469c5.4219-0.85938 11.734-1.0625 11.734-1.0625"/>
<path d="m184.81 65.09c9.0938-0.3125 18.562 0.8125 18.562 0.8125"/>
<path d="m128.72 39.718c2.8284-5.701 2.9821-6.011 2.9821-6.011"/>
<path d="m127.28 43.585c0.46404-1.9004 1.4363-3.867 1.4363-3.867"/>
<path d="m99.859 87.782 1.321-0.379"/>
</g>
</svg>
