<?xml version="1.0" encoding="UTF-8"?>
<svg version="1.0" xmlns="http://www.w3.org/2000/svg" width="217" height="74" >
<path d="M2.605,34.434c3.635-3.234,25.98-23.583,28.998-13.612c1.523,5.034-2.273,11.636-4.479,15.84 c-6.571,12.52-15.692,23.791-24.64,34.651c-1.22,1.48,0.89,3.615,2.121,2.121c9.677-11.746,19.537-23.941,26.33-37.649 c2.301-4.643,5.419-11.364,3.257-16.617C28.68,5.782,5.714,27.658,0.484,32.313C-0.964,33.601,1.165,35.715,2.605,34.434 L2.605,34.434 M10.943,71.069c12.209-4.542,24.467-8.984,36.832-13.088c6.691-2.221,13.211-3.397,18.349-8.587 c4.818-4.867,8.157-11.851,9.868-18.436c0.885-3.404-1.531-4.347-3.663-1.765c-4.213,5.102-7.635,11.104-10.682,16.952 c-1.474,2.828-5.51,9.679-1.302,12.144c5.822,3.411,9.772-7.366,11.018-10.86c-0.964,0-1.929,0-2.893,0 c-0.244-1.18-0.225,0.367-0.329,0.858c-0.25,1.174-0.474,2.351-0.662,3.535c-0.178,1.117-0.574,2.878,0.352,3.805 c2.164,2.164,4.751-3.122,5.536-4.326c3.168-4.856,6.096-9.882,8.949-14.928c1.091-1.928,4.918-6.763,4.146-9.241 c-0.201-0.647-0.761-1.092-1.446-1.102c-3.218-0.043-6.583,8.466-7.673,10.616C74.922,41.42,71.29,48.956,74.5,54.13 c1.018,1.64,3.613,0.135,2.59-1.514c-2.525-4.07,1.036-10.743,2.844-14.455c0.972-1.994,2.086-3.919,3.25-5.806 c0.505-0.819,1.046-1.616,1.601-2.403c0.622-0.884,1.251-0.907,0.232-0.921c-0.482-0.367-0.965-0.734-1.446-1.101 c-0.269-0.862-0.422,0.523-0.827,1.343c-0.8,1.62-1.686,3.199-2.563,4.778c-2.26,4.065-4.637,8.067-7.069,12.031 c-1.02,1.662-2.064,3.309-3.141,4.934c-0.333,0.503-0.679,0.996-1.027,1.488c-0.162,0.235-0.336,0.461-0.523,0.677 c-0.688,0.624-0.071,0.887,1.85,0.787c-0.218-2.401,1.576-5.01,1.095-7.337c-0.323-1.565-2.434-1.289-2.893,0 c-1.067,2.994-1.808,5.607-4.141,7.935c-3.623,3.615-2.199-2.355-1.616-3.725c2.013-4.734,4.793-9.191,7.557-13.515 c1.176-1.839,2.406-3.645,3.704-5.398c0.403-0.545,0.834-1.065,1.302-1.556c-1.302-1.529-1.991-1.758-2.068-0.685 c-0.073,0.34-0.156,0.677-0.249,1.012c-1.384,5.327-4.088,10.536-7.462,14.862c-3.912,5.019-8.892,6.459-14.647,8.271 c-5.723,1.802-11.39,3.787-17.049,5.777c-7.911,2.783-15.795,5.643-23.655,8.566C8.349,68.845,9.126,71.745,10.943,71.069 L10.943,71.069 M102.598,14.974c-4.42,12.651-10.097,26.443-11.054,39.899c-0.138,1.939,2.834,1.905,3,0 c0.532-6.111,0.863-12.262,0.798-18.396c-0.028-2.674-0.007-5.722-0.999-8.253c-0.278-0.711-0.683-1.198-1.292-1.646 c0.313,0.229,0.674-2.517,0.898-3.324c1.787-6.445,5.17-14.975,10.136-19.673c1.63-1.542,1.905,9.957,1.852,10.82 c-0.421,6.785-1.738,13.47-2.522,20.214c-0.863,7.429,1.373,13.285,9.769,12.762c10.032-0.626,19.41-6.253,29.221-8.188 c5.877-1.159,11.638,0.902,17.381-1.6c8.02-3.492,12.931-11.71,16.86-19.097c1.149-2.161,2.175-4.387,3.194-6.612 c0.792-1.728-1.679-3.25-2.59-1.514c-2.576,4.911-5.09,9.856-7.556,14.823c-2.629,5.298-6.641,11.463-7.61,17.396 c-0.919,5.629,5.741-0.58,6.637-1.603c4.797-5.473,9.312-11.526,12.945-17.834c0.677-1.174,1.953-3.197,1.134-4.597 c-1.11-1.895-2.876-0.322-3.727,0.821c-1.096,1.472-6.852,13.275-1.331,12.796c4.847-0.421,9.765-8.055,12.565-11.345 c3.562-4.184,8.669-9.173,10.658-14.411c0.124-0.328,0.097-0.733-0.015-1.058c-0.232-0.678-0.74-1.044-1.447-1.102 c-3.127-0.254-7.037,7.518-8.246,9.545c-1.633,2.739-6.085,11.119-1.531,13.549c4.063,2.169,7.162-5.77,8.74-8.171 c0.41-0.625,0.862-1.217,1.356-1.778c0.182-0.186,0.363-0.371,0.545-0.556c1.059-0.232,1.29-0.726,0.693-1.481 c-0.662,1.161-1.833,2.161-2.72,3.15c-1.195,1.335-2.809,3.057-2.271,4.992c1.244,4.47,7.595-1.969,8.68-3.065 c4.354-4.4,8.801-9.897,10.926-15.773c1.321-3.654-1.534-6.39-4.517-3.371c-5.249,5.314-3.855,14.495-0.66,20.336 c0.928,1.697,3.519,0.184,2.59-1.514c-1.97-3.603-2.821-7.199-2.164-11.276c0.205-1.279,0.688-2.523,1.236-3.687 c0.31-0.619,0.683-1.199,1.119-1.738c0.837-0.483,0.758-0.748-0.236-0.792c0.326,3.716-4.908,9.262-6.998,11.846 c-1.276,1.578-2.65,3.073-4.077,4.515c-0.593,0.599-1.222,1.157-1.858,1.709c-0.405,0.349-0.836,0.663-1.291,0.943 c-0.695,0.189-0.66,0.557,0.108,1.103c0.411-2.773,5.521-4.359,5.311-7.445c-0.154-2.246-2.469-2.516-4.223-1.777 c-3.137,1.32-4.975,5.432-6.631,8.146c-0.573,0.939-2.32,4.396-2.486,1.538c-0.138-2.381,1.369-4.968,2.435-6.976 c1.1-2.072,2.442-4.019,3.832-5.905c0.548-0.743,1.145-1.445,1.75-2.139c0.518-0.592,1.358-0.863,0.588-0.926 c-0.481-0.367-0.964-0.734-1.446-1.101c-0.278-0.812-1.082,1.255-1.675,2.106c-1.564,2.247-3.266,4.398-4.975,6.535 c-3.357,4.2-6.862,8.339-10.74,12.071c-0.662,0.637-1.354,1.249-2.095,1.795c-1.078,0.794-0.25,0.449-0.042-0.675 c0.465-2.503,1.748-4.983,3.133-7.098c-0.831,1.27-1.002-2.439-2.033-0.29c-0.369,0.769-0.82,1.501-1.258,2.233 c-1.372,2.294-2.922,4.486-4.474,6.661c-2.925,4.1-5.987,8.261-9.572,11.816c-0.224,0.218-0.455,0.426-0.694,0.626 c-0.798,0.406-0.334,0.795,1.391,1.165c0.094-0.57,0.318-1.131,0.508-1.672c0.797-2.277,1.854-4.472,2.864-6.658 c3.58-7.738,7.484-15.338,11.444-22.889c-0.863-0.504-1.727-1.009-2.59-1.514c-4.088,8.919-9.382,20.909-19.271,24.733 c-5.851,2.262-12.562,0.302-18.66,1.681c-5.151,1.166-10.135,3.115-15.136,4.787c-4.646,1.553-10.21,3.784-15.137,2.454 c-4.982-1.344-2.437-11.15-1.956-14.428c0.934-6.361,1.896-12.746,2.016-19.185c0.054-2.91-1.177-12.836-6.49-9.463 c-4.944,3.139-7.74,11.52-9.83,16.616c-1.109,2.706-2.09,5.505-2.447,8.418c-0.243,1.983,1.154,2.781,1.55,4.508 c1.594,6.954,0.351,15.163-0.169,22.206c-0.054,0.727-0.11,1.453-0.174,2.179c1,0,2,0,3,0c0.551-7.744,3.365-15.545,5.634-22.914 c1.671-5.426,3.44-10.827,5.313-16.187C106.13,13.94,103.232,13.16,102.598,14.974L102.598,14.974 M19.038,38.328c-4.811,2.914-7.366,8.589-7.493,14.045c-0.045,1.936,2.955,1.932,3,0 c0.102-4.387,2.112-9.095,6.007-11.455C22.203,39.917,20.696,37.322,19.038,38.328L19.038,38.328z"/>
</svg>