<?xml version="1.0" encoding="UTF-8"?>
<svg version="1.0" xmlns="http://www.w3.org/2000/svg" width="209" height="61" >
<path fill="#231F20" d="M24.196,9.927c-4.718,5.94-9.373,12.413-12.118,19.525c-3.415,8.846,5.019,10.074,10.856,5.374 c3.155-2.541,6.289-5.992,6.684-10.199c0.307-3.263-5.049-7.572-7.021-9.645c-2.826-2.969-6.371-6-10.666-6.089 c-5.047-0.105-7.713,5.335-9.282,9.27c-0.54,1.354,1.917,1.308,2.369,0.173c1.961-4.919,4.944-9.231,10.495-6.171 c3,1.653,5.383,4.458,7.603,7.007c1.711,1.966,4.498,4.133,3.875,6.952c-0.781,3.528-4.296,6.586-7.171,8.448 c-3.714,2.405-6.933,0.993-5.857-3.437c0.761-3.133,2.548-6.062,4.183-8.805c2.269-3.808,5.306-8.083,7.826-11.257 C26.98,9.801,25.039,8.865,24.196,9.927L24.196,9.927 M39.501,31.087c-3.192-10.779-15.361,5.218-6.018,6.925c4.608,0.842,9.078-3.979,12.199-6.841 c3.172-2.909,1.38-7.424-2.958-7.22c-6.721,0.317-1.41,10.153,0.361,12.184c4.354,4.991,8.144-0.733,11.089-3.931 c1.498-0.485,1.875-1.275,1.131-2.37c-0.109,0.368-0.255,0.722-0.436,1.062c-0.428,0.915-0.905,1.802-1.311,2.727 c-0.41,0.935-0.875,2.192,0.083,2.94c4.033,3.149,8.585-8.949,10.615-8.439c-0.088-0.678-0.176-1.356-0.265-2.035 c-2.268,1.599-7.711,5.965-3.766,8.558c4.104,2.696,6.861-4.167,7.515-6.983c-0.788-0.012-1.575-0.024-2.362-0.037 c-0.166,7.296-1.547,15.39-5.836,21.43c-0.94,1.325,1.249,2.053,2.078,0.887c4.511-6.353,5.99-14.895,6.164-22.57 c0.032-1.405-2.091-1.206-2.362-0.037c-0.346,1.494-0.89,2.906-1.641,4.245c-2.436,0.499-2.938,0.11-1.509-1.165 c0.384-0.415,0.788-0.809,1.213-1.182c0.521-0.48,1.104-0.915,1.686-1.324c0.844-0.595,0.801-1.768-0.265-2.035 c-1.246-0.313-2.125,0.44-2.939,1.306c-0.888,0.945-1.616,2.153-2.389,3.173c-0.493,0.639-1.02,1.25-1.578,1.833 c-0.553,0.485-1.104,0.971-1.656,1.456c-1.638,0.494-1.894,0.847-0.769,1.062c0.29-1.038,3.84-6.032,1.077-6.422 c-1.575-0.222-3.181,1.585-4.175,2.526c-1.081,1.023-1.974,2.277-2.936,3.409c-3.716,4.372-8.166-4.057-7.65-6.994 c2.6,1.434,2.854,2.667,0.767,3.701c-0.589,0.448-1.188,0.882-1.796,1.303c-1.162,0.823-2.309,1.633-3.391,2.558 c-1.361,1.163-5.729,2.08-5.083-1.774c1.272-7.599,4.311-2.667,4.775-1.099C37.584,33.332,39.896,32.419,39.501,31.087 L39.501,31.087 M68.435,30.091c6.336-4.431,12.252-9.704,17.188-15.652C87.2,12.536,94.901,3.193,89.089,1.88 c-3.88-0.877-9.391,7.7-11.247,10.129c-2.805,3.669-10.325,13.271-6.05,18.182c4.019,4.617,10.148,2.678,14.05-1.105 c1.125-1.092,4.617-5.92,3.11-7.645c-0.547-0.626-2.008-1.494-2.787-0.866c-2.261,1.823-7.668,8.917-3.913,11.234 c4.634,2.86,12.068,0.496,15.522-3.162c2.134-2.259,2.708-6.825-0.833-7.822c-3.38-0.952-6.362,6.494-7.114,8.737 c-0.792,2.365,0.133,5.78,3.305,5.59c2.666-0.16,8.435-7.072,7.503-9.779c-0.128-0.373-1.889-1.477-2.199-1.096 c-1.473,1.813-2.471,10.432,2.151,8.424c2.584-1.123,4.58-4.771,6.686-6.612c2.667-2.333,2.657,0.468,2.071,2.751 c-0.684,2.666-4.114,6.288-7.092,4.332c-0.749-0.492-2.289-0.797-0.838,0.155c3.088,2.028,5.935,2.272,8.646-0.612 c2.304-2.451,2.719-6.919-0.583-8.559c-3.242-1.61-5.734,1.907-7.713,4.086c-0.771,0.849-1.537,1.694-2.358,2.494 c-0.365,0.37-0.787,0.659-1.268,0.867c1.229,0.875,1.589,0.585,1.081-0.867c0.005-1.488,0.447-4.081,1.421-5.278 c-0.733-0.365-1.466-0.73-2.199-1.096c0.544,1.58-2.55,5.377-3.363,6.525c-0.883,1.245-1.97,2.447-3.445,2.961 c-0.142,0.05,0.531-3.5,0.643-3.834c0.835-2.489,2.367-4.862,4.128-6.79c0.273-0.287,0.567-0.549,0.884-0.787 c1.18-0.962-0.356-1.234-0.144-0.573c0.614,1.916-0.47,4.125-1.571,5.601c-2.032,2.724-5.983,3.717-9.173,4.113 c-4.605,0.572-3.148-2.156-1.615-5.038c0.604-1.135,1.335-2.199,2.104-3.227c0.251-0.328,0.518-0.642,0.799-0.943 c1.509-1.689,0.292,0.788-0.75-1.599c1.309,2.997-3.774,7.778-5.76,9.175c-3.909,2.75-8.863,2.096-8.135-3.557 c0.38-2.948,2.137-5.803,3.638-8.293c3.099-5.139,7.137-10.39,11.913-14.083c2.031-1.57,1.509,0.112,0.363-1.748 c0.395,0.641-0.271,2.057-0.474,2.645c-1.485,4.307-4.644,8.016-7.657,11.333c-4.302,4.735-9.35,9-14.593,12.667 C66.183,28.943,67.885,30.475,68.435,30.091L68.435,30.091 M149.399,12.515c-2.337,8.115-4.59,16.318-7.5,24.25c-0.219,0.596,2.105,0.183,2.367-0.53 c2.91-7.932,5.163-16.135,7.5-24.25C151.954,11.332,149.607,11.795,149.399,12.515L149.399,12.515 M161.444,16.976c-5.3-3.644-6.397,2.812-7.33,6.676c-1.126,4.673-2.078,9.393-2.983,14.113 c-0.132,0.689,1.349,2.262,1.404,1.97c0.74-3.859,1.537-7.708,2.391-11.543c0.78-3.505,1.716-13.005,7.296-9.167 C162.766,19.398,161.915,17.299,161.444,16.976L161.444,16.976 M138.12,30.235c3.979-0.944,7.995-1.745,12.025-2.433c2.99-0.511,6.018-0.946,9.053-1.031 c0.234-0.007,3.04,0.004,2.943,0.405c-0.584,2.415-2.231,4.777-3.313,7c-0.516,1.06-1.323,3.028,0.389,3.491 c2.359,0.638,5.478-2.81,7.146-3.978c-3.526,2.468-2.258,11.669-3.518,15.352c-0.777,2.271-3.671,4.991-2.98,7.671 c0.321,1.246,2.785,0.941,2.434-0.424c-0.262-1.013,0.922-2.838,1.339-3.676c1.308-2.63,2.287-4.784,2.699-7.708 c0.527-3.749,0.67-7.169,1.838-10.842c0.214-0.67,0.355-1.711-0.253-2.249c-1.791-1.585-4.674,1.391-5.907,2.309 c-0.794,0.59-1.561,2.441-0.804,0.702c0.491-1.127,1.102-2.216,1.656-3.313c0.655-1.295,1.853-3.027,1.775-4.544 c-0.292-5.751-23.8,0.516-27.098,1.298C135.966,28.64,136.68,30.577,138.12,30.235L138.12,30.235 M186.884,27.629c-4.165-3.521-10.28,2.151-12.581,5.042c-3.381,4.248,0.981,6.998,5.058,5.596 c7.133-2.454,13.428-12.124,14.301-19.37c0.15-1.242-1.629-1.182-2.383-0.941c-1.824,0.583-3.212,2.443-4.383,3.853 c-2.717,3.272-4.24,10.921-1.957,14.652c2.753,4.498,11.875-1.124,14.619-3.152c1.043-0.771,4.148-3.115,2.251-4.636 c-1.819-1.459-4.905-1.882-7.08-0.966c-4.018,1.693-8.436,8.352-4.145,11.99c1.762,1.494,4.938,0.599,6.837,0.153 c1.697-0.399,3.43-0.941,5.002-1.695c0.521-0.25,1.03-0.509,1.537-0.785c-0.952,0.52-1.314-0.48-0.565,0.631 c0.433,0.641,2.831,0.172,2.377-0.501c-0.798-1.181-1.707-1.507-3.099-1.013c-3.675,1.305-11.555,5.789-11.218-1.26 c0.093-1.94,1.209-3.835,2.467-5.238c1.362-1.521,5.494-2.459,5.957,0.064c0.231,1.262-2.407,2.808-3.157,3.302 c-2.223,1.465-4.751,2.496-7.269,3.324c-3.037,1-2.787-3.79-2.771-5.477c0.025-2.736,0.226-6.063,1.882-8.344 c0.843-1.161,1.834-2.228,2.871-3.216c1.563-1.49-0.225,0.042-0.264-0.529c0.074,1.092-0.722,2.506-1.116,3.472 c-1.194,2.918-2.691,5.72-4.419,8.354c-1.352,2.061-6.048,7.94-9.265,6.375c-3.708-1.803,4.995-11.831,8.411-8.944 C185.323,28.829,187.693,28.313,186.884,27.629L186.884,27.629z"/>
</svg>