<?xml version="1.0" encoding="UTF-8" standalone="no"?>
<svg
   xmlns:dc="http://purl.org/dc/elements/1.1/"
   xmlns:cc="http://creativecommons.org/ns#"
   xmlns:rdf="http://www.w3.org/1999/02/22-rdf-syntax-ns#"
   xmlns:svg="http://www.w3.org/2000/svg"
   xmlns="http://www.w3.org/2000/svg"
   version="1.1"
   id="svg2"
   viewBox="0 0 287.3303 135.47494"
   height="38.234039mm"
   width="81.090996mm">
  <defs
     id="defs4" />
  <metadata
     id="metadata7">
    <rdf:RDF>
      <cc:Work
         rdf:about="">
        <dc:format>image/svg+xml</dc:format>
        <dc:type
           rdf:resource="http://purl.org/dc/dcmitype/StillImage" />
        <dc:title></dc:title>
      </cc:Work>
    </rdf:RDF>
  </metadata>
  <g
     transform="translate(-108.15559,-299.42039)"
     id="layer1">
    <path
       id="path4586"
       d="m 128.11239,431.14534 c -0.32295,-2.0625 -0.79472,-5.05066 -1.04838,-6.64035 -1.2525,-7.84935 -2.28913,-36.16332 -1.61494,-44.10965 0.75287,-8.87375 0.72779,-9.02745 -1.78827,-10.95694 -5.04085,-3.86567 -9.19935,-8.88862 -12.34685,-14.91342 -3.0751,-5.88624 -3.20024,-6.5863 -3.15138,-17.62964 0.0636,-14.37006 2.53195,-23.39849 8.44092,-30.87389 5.26432,-6.65986 7.52459,-7.86844 10.2034,-5.45582 1.11737,1.00634 2.46205,2.95471 2.98818,4.32971 2.04621,5.34761 2.72779,18.20357 1.68567,31.79485 -2.62033,34.17396 -2.59673,32.3835 -0.45306,34.38064 1.07711,1.00348 1.64853,1.88076 1.26982,1.94951 -0.3787,0.0687 -1.15497,0.18125 -1.72503,0.25 -2.37556,0.2865 -2.93368,3.94783 -2.94821,19.34062 -0.0132,13.97116 1.81498,34.5774 3.59619,40.53438 0.33769,1.12936 -0.0165,1.75 -0.99881,1.75 -0.98778,0 -1.72819,-1.31635 -2.10925,-3.75 z m -0.38242,-78 c 1.96507,-21.01912 1.80793,-42.67905 -0.34461,-47.5 -0.9209,-2.0625 -2.29701,-3.75 -3.05803,-3.75 -1.70464,0 -6.72263,6.12783 -9.53953,11.6494 -2.65275,5.19983 -4.16163,14.42354 -4.1713,25.49905 -0.007,7.7156 0.32272,9.27963 3.0544,14.5 2.76505,5.28415 10.35765,14.35155 12.01728,14.35155 0.36455,0 1.28336,-6.6375 2.04179,-14.75 z m 185.441,21.10604 c 0.38404,-5.42082 0.85916,-10.14162 1.05582,-10.49065 0.55873,-0.99167 8.84726,-2.00788 10.67047,-1.30825 2.53742,0.9737 2.94227,3.89144 1.08143,7.79369 -2.08802,4.37862 -3.9174,5.17558 -7.09742,3.09195 -1.34522,-0.88142 -2.5907,-1.45413 -2.76772,-1.27268 -0.17702,0.18144 -0.47548,2.76741 -0.66324,5.74658 -0.21046,3.33955 -0.84683,5.58517 -1.65949,5.85604 -1.0622,0.35406 -1.18255,-1.47425 -0.61985,-9.41668 z m 10.94726,-5.37401 c 1.79617,-3.4734 0.81498,-4.38489 -4.0977,-3.80661 -3.54011,0.41672 -4.0789,2.15727 -1.47409,4.76208 2.77081,2.77081 3.72991,2.60635 5.57179,-0.95547 z m -175.1316,5.55982 c -0.74717,-1.94708 -0.0132,-11.26377 1.63789,-20.79185 0.94426,-5.44901 1.76973,-7.75 2.78029,-7.75 1.05263,0 1.2702,0.73597 0.81298,2.75 -0.63105,2.77969 -2.28044,13.02265 -3.05951,19 -0.59964,4.60065 1.023,4.033 2.67983,-0.9375 2.02515,-6.07546 4.12291,-6.34315 3.23358,-0.41264 -1.29061,8.60638 3.19354,9.54253 7.65816,1.5988 2.88595,-5.13486 4.07652,-5.08551 3.24183,0.13437 -0.79855,4.99384 0.98839,5.0306 4.13726,0.0851 2.8066,-4.40793 4.15386,-3.97609 4.7791,1.53185 0.49719,4.37998 -0.0381,7.10719 -0.93226,4.75 -1.34349,-3.54154 -2.12879,-3.81668 -4.82969,-1.69215 -2.18121,1.71574 -3.02594,1.89135 -4.54239,0.94431 -1.49174,-0.9316 -2.23837,-0.82357 -3.74756,0.54223 -2.338,2.11585 -5.57498,2.19641 -7.24814,0.18038 -1.13448,-1.36697 -1.4407,-1.36697 -2.95118,0 -2.10599,1.90589 -2.9387,1.92119 -3.65019,0.0671 z m 50.87108,-1.98598 c -8.26544,-6.95491 -6.07818,-19.89511 4.49911,-26.61739 6.0724,-3.85926 11.55563,-3.83263 12.10407,0.0588 0.33829,2.4003 0.27767,2.43003 -1.56138,0.76571 -3.5826,-3.24221 -12.15867,1.31449 -15.87985,8.43738 -3.71681,7.11455 -0.2183,16.79966 6.06848,16.79966 4.14118,0 8.5208,-4.66536 8.5208,-9.07673 0,-2.58141 -0.35083,-2.92327 -3,-2.92327 -2,0 -3,-0.5 -3,-1.5 0,-1.17949 1.38889,-1.5 6.5,-1.5 3.66667,0 6.5,0.43589 6.5,1 0,0.55 -0.675,1 -1.5,1 -1.694,0 -1.75614,0.30904 -1.65185,8.21461 0.0763,5.78703 -1.16934,8.48917 -2.16257,4.69105 l -0.5418,-2.07184 -2.82189,2.06944 c -4.73219,3.47036 -8.48344,3.67313 -12.07312,0.65261 z m 59.75123,1.3727 c 0,-0.58928 0.675,-1.74643 1.5,-2.57143 0.92754,-0.92753 1.5,-3.38095 1.5,-6.42857 0,-2.71072 0.17004,-4.92857 0.37788,-4.92857 0.20783,0 2.03292,0.69152 4.05576,1.53672 3.67108,1.53387 3.67663,1.54544 2.994,6.25 -0.7913,5.45345 -0.89903,5.65801 -2.46883,4.68782 -0.75846,-0.46875 -0.95488,-2.09764 -0.55472,-4.60014 0.34075,-2.13092 0.21237,-3.8744 -0.28528,-3.8744 -1.14511,0 -2.11881,2.49389 -2.11881,5.4268 0,1.24477 -0.82293,3.00797 -1.82874,3.91821 -2.11279,1.91205 -3.17126,2.10683 -3.17126,0.58356 z m -124.8,-1.12857 c -1.88714,-1.88715 -1.41765,-4.82586 1.35089,-8.45561 3.87172,-5.07608 8.44911,-4.04616 8.44911,1.90106 0,5.22721 -6.66774,9.68681 -9.8,6.55455 z m 7.8,-7.35577 c 0,-1.9258 -1.91744,-1.82892 -4.17126,0.21076 -1.87905,1.70052 -2.39843,4.44199 -1.08952,5.7509 0.92121,0.92121 5.26078,-3.9965 5.26078,-5.96166 z m 149.49773,7.5521 c -0.34116,-0.55202 -1.67581,-0.73875 -2.96587,-0.41497 -1.29007,0.32379 -3.3358,0.0587 -4.54608,-0.58897 -1.59138,-0.85168 -2.50295,-0.87522 -3.29314,-0.085 -3.35624,3.35624 -9.08064,-0.80983 -7.78247,-5.66387 1.12222,-4.19613 3.35314,-4.16396 2.56504,0.037 -1.12713,6.0081 3.00385,6.13219 5.84436,0.17556 2.01249,-4.22022 4.16752,-4.64147 3.37101,-0.65894 -1.16197,5.80985 3.02794,6.58169 5.87209,1.08173 2.0823,-4.02675 3.67852,-3.68143 2.87135,0.62118 -0.3664,1.95309 -0.2473,3.5 0.26948,3.5 0.50934,0 1.67714,-1.575 2.59511,-3.5 2.04706,-4.29274 3.70139,-4.51621 3.70139,-0.5 0,1.65 0.41,3 0.91111,3 1.10928,0 6.08889,-5.78748 6.08889,-7.07673 0,-0.5078 0.45,-0.92327 1,-0.92327 0.55,0 1,2.25 1,5 0,3.77778 -0.36667,5 -1.5,5 -0.825,0 -1.5,-0.75344 -1.5,-1.67431 0,-1.39605 -0.40629,-1.29262 -2.44464,0.6223 -1.77545,1.66795 -3.12735,2.12527 -4.93871,1.67064 -1.37174,-0.34428 -2.77322,-0.17432 -3.11438,0.3777 -0.34117,0.55202 -1.24219,1.00367 -2.00227,1.00367 -0.76008,0 -1.6611,-0.45165 -2.00227,-1.00367 z m -70.1813,-1.61411 c -0.62635,-1.63225 1.46814,-3.6334 2.88582,-2.75722 1.34146,0.82906 0.88821,3.12631 -0.7401,3.75115 -0.89873,0.34488 -1.79049,-0.0682 -2.14572,-0.99393 z m 31.33223,-2.17792 c -0.65693,-4.10823 0.83199,-28.68733 1.90758,-31.49026 1.1373,-2.96375 2.55951,-1.86214 1.98298,1.53596 -0.95882,5.65129 -1.41684,12.92905 -1.47897,23.5 -0.0605,10.28728 -1.27772,13.54511 -2.41159,6.4543 z m 126.85134,-39.89683 c -15.95485,-1.60234 -56.34522,-2.03225 -126,-1.34114 -34.86819,0.34597 -47.51625,0.16377 -49,-0.70587 -3.21877,-1.88653 139.66779,-2.37121 173.98848,-0.59017 14.04461,0.72883 16.0292,1.04247 16.32333,2.57971 0.18416,0.9625 -0.0357,1.68553 -0.48849,1.60675 -0.45282,-0.0788 -7.12332,-0.77597 -14.82332,-1.54928 z"
       style="fill:#000000" />
  </g>
</svg>
