<?xml version="1.0" encoding="UTF-8"?>
<svg version="1.1" xmlns="http://www.w3.org/2000/svg" width="157" height="39" >
<path d="M30.135,0.175c-3.267-1.044-7.324,2.839-9.399,4.655C16.647,8.406,7.376,22.909,1.135,19.925 c-0.158,0.349-0.317,0.697-0.475,1.046c3.459,0.068,5.274,3.411,8.656,4.073c5.696,1.115,10.616-1.427,14.889-5.024 c3.739-3.147,7.217-7.146,8.425-11.973c0.282-1.126,1.698-3.921,1.1-5.021c-1.461-2.685-6.166,0.949-7.274,2.079 c-7.87,8.017-10.31,21.049-12.22,31.62c-0.134,0.744,1.35,0.567,1.471-0.102c1.737-9.618,3.953-19.887,9.522-28.12 c1.229-1.816,2.766-3.568,4.693-4.659c0.366-0.207,2.497-1.127,2.467-0.056c-0.032,1.184-0.965,3.126-1.228,4.359 c-1.193,5.58-6.366,10.206-10.722,13.381c-3.576,2.606-11.081,4.528-14.434,0.31c-1.342-1.688-3.076-1.918-5.224-1.96 c-0.569-0.012-1.153,0.722-0.475,1.046c4.043,1.933,8.317-2.021,10.993-4.618c2.825-2.742,5.439-5.681,8.143-8.539 c1.764-1.865,6.744-7.591,9.864-6.593C29.946,1.38,31.013,0.456,30.135,0.175L30.135,0.175z"/>
<path d="M21.999,23.716c1.694,0.063,3.351-0.628,4.868-1.291c0.831-0.363,5.167-3.268,5.244-3.15 c0.393,0.593-0.297,1.489,0.244,2.033c0.142,0.143,0.588,0.014,0.742-0.027c0.256-0.068,0.523-0.128,0.752-0.27 c5.501-3.404,4.446-2.167,6.663-0.334c1.02,0.843,3.05,0.914,4.272,0.842c5.757-0.338,10.303-3.315,13.899-7.723 c0.098-0.12-1.127-0.102-1.369,0.187c-2.494,2.981-5.009,6.013-7.059,9.321c-0.101,0.163,1.208,0.098,1.428-0.258 c2.017-3.255,4.488-6.246,6.941-9.179c-0.457,0.063-0.913,0.125-1.369,0.187c-3.39,4.154-8.216,7.682-13.913,6.695 c-1.553-0.27-1.941-1.466-3.263-2.036c-1.556-0.671-4.555,0.241-5.857,1.181c-3.114,2.248,1.25-1.37-1.39-1.45 c-3.691-0.113-5.873,4.836-9.893,4.689C22.64,23.123,21.285,23.691,21.999,23.716L21.999,23.716z"/>
<path d="M55.604,21.012c2.385-0.315,4.928-1.262,6.903-2.626c0.694-0.479,4.962-4.395,5.211-3.081 c0.231,1.214-0.552,2.587-1.027,3.649c-0.413,0.925-2.545,4.306-1.537,5.317c1.195,1.198,3.967-0.613,5-1.188 c0.85-0.474-0.463-0.542-0.868-0.316c-1.26,0.701-3.284,1.791-2.681-0.409c0.263-0.958,0.729-1.875,1.14-2.775 c0.711-1.56,2.009-3.643,1.204-5.394c-0.46-1.001-2.355,0-2.868,0.357c-3.322,2.317-5.995,5.229-10.245,5.792 C55.19,20.423,54.591,21.147,55.604,21.012L55.604,21.012z"/>
<path d="M82.745,14.37c0.66,1.012,0.824,2.013,0.96,3.2c0.427,3.727-1.974,2.756-1.31,0.424c0.646-2.273,2.237-4.391,3.675-6.206 c5.535-6.987,14.749-11.005,23.601-9.062c3.308,0.726,7.216,3.31,5.789,7.159c-2.569,6.936-15.625,7.036-21.428,7.245 c-0.118,0.004-1.178,0.23-1.037,0.49c2.23,4.12,1.709,7.721,0.5,12.024c-0.547,1.95-3.003,7.294-1.5,9.226 c0.276,0.355,1.562-0.243,1.449-0.389c-1.651-2.121,1.429-8.866,2.062-11.187c0.968-3.553,0.732-6.749-1.062-10.063 c-0.346,0.164-0.691,0.327-1.037,0.49c6.821-0.246,19.837-0.657,23.482-8.089c2.995-6.106-7.664-8.164-11.357-8.002 C95.834,2.055,87.26,7.129,82.251,15.481c-0.59,0.983-3.104,6.172,0,5.926c3.429-0.271,3.319-5.316,1.943-7.427 C83.957,13.618,82.625,14.185,82.745,14.37L82.745,14.37z"/>
<path d="M109.767,18.447c-1.638,1.195-6.238,6.399-1.662,7.122c2.661,0.42,5.353-5.054,4.59-7.088 c-0.474-1.263-3.431,0.802-3.084,1.987c1.094,3.743,9.728-0.795,11.345-2.022c0.433-0.329,6.338-5.945,5.933-6.091 c-1.343-0.486-2.537-0.334-3.815,0.226c-1.971,0.863-6.668,9.517-3.006,9.645c0.915,0.031,1.948-0.535,2.52-1.224 c1.716-2.071-2.023-0.537,0.523,0.03c2.416,0.538,4.481-0.931,6.475-2.116c2.764-1.644,7.328-3.12,9.557-5.451 c0.13-0.136,0.243-0.394-0.01-0.489c-1.575-0.591-4.276,0.404-5.516,1.392c-1.138,0.908-3.115,5.538-0.132,5.445 c0.867-0.026,1.476-0.256,2.234-0.695c2.193-1.268,0.306-0.28,1.373,1.119c0.604,0.79,1.226,0.749,2.172,0.664 c1.137-0.102,6.055-2.758,4.78,0.001c-0.325,0.704,1.009,0.351,1.261,0.153c2.519-1.968,5.662,0.728,8.24-1.272 c1.489-1.155,4.23-3.538,1.75-5.216c-0.406-0.275-1.742,0.315-1.148,0.717c2.252,1.524-2.208,4.918-4.393,4.26 c-0.926-0.278-1.467-0.425-2.513-0.3c-1.142,0.137-2.222,0.861-3.104,1.552c0.42,0.051,0.841,0.102,1.261,0.153 c0.362-0.785,0.942-2.357-0.342-2.643c-2.741-0.611-5.047,3.095-6.678-1.125c-0.046-0.119-0.159-0.192-0.283-0.21 c-0.496-0.071-0.806-0.007-1.262,0.209c-0.25,0.118-0.471,0.29-0.687,0.461c-1.694,1.343-3.729,0.722-2.358-2.063 c0.341-0.694,3.028-1.756,3.754-2.133c-0.971,0.504-1.922,1.047-2.877,1.577c-2,1.111-10.127,6.665-11.482,4.303 c-0.183-0.317-0.916-0.082-1.125,0.059c-0.101,0.068-0.305,0.192-0.308,0.339c0.027,0.313-0.048,0.606-0.225,0.881 c-1.33,2.437-0.929-2.033-0.854-2.313c0.689-2.581,2.69-5.873,5.79-4.977c0.28,0.081,0.58-0.036,0.838-0.13 c0.191-0.069,0.481-0.266,0.435-0.507c-0.436-2.228-4.43,2.456-4.58,2.609c-1.297,1.316-2.705,2.447-4.241,3.479 c-1.694,1.093-3.555,1.756-5.581,1.99c-2.994,0.494-1.745-2.516-2.11-0.565c-0.141,0.749-1.635,5.296-3.078,4.199 c-2.087-1.584,1.394-4.653,2.531-5.483C111.467,18.325,110.233,18.106,109.767,18.447L109.767,18.447z"/>
<path d="M117.643,31.908c12.375-0.457,24.962-1.055,37.314,0.001c0.652,0.056,1.507-0.883,0.525-0.967 c-12.468-1.066-25.196-0.461-37.686,0.001C117.011,30.972,116.65,31.945,117.643,31.908L117.643,31.908z"/>
</svg>