<?xml version="1.0" encoding="UTF-8"?>
<svg version="1.0" xmlns="http://www.w3.org/2000/svg" width="162" height="59" >
<path fill="#231F20" d="M5.537,6.837C5.49,12.71,5.333,18.588,4.99,24.452c-0.159,2.727-0.105,5.914-1.048,8.518 c-1.616,4.465,0.085,8.714,2.696,12.412c0.545,0.772,2.773-0.071,2.135-0.977c-3.125-4.425-3.299-7.744-2.208-12.756 c0.669-3.076,0.711-6.351,0.877-9.481C7.716,16.99,7.833,11.799,7.874,6.615C7.882,5.49,5.544,5.907,5.537,6.837L5.537,6.837z"/>
<path fill="#231F20" d="M3.123,5.801c-1.5-2.214,3.478-1.97,4.505-2.013c3.103-0.131,6.207-0.237,9.311-0.314 c3.256-0.081,6.514-0.114,9.771-0.033c0.865,0.021,6.822,0.132,4.232,1.08c-1.539,0.563-0.105,1.098,0.86,0.744 c1.399-0.513,3.904-1.873,1.131-2.504c-4.186-0.952-8.919-0.523-13.167-0.454c-4.82,0.079-9.637,0.284-14.452,0.496 C3.232,2.894-1.073,3.657,0.955,6.651C1.319,7.189,3.567,6.458,3.123,5.801L3.123,5.801z"/>
<path fill="#231F20" d="M6.118,21.468c3.203-0.255,6.411-0.454,9.619-0.62c2.53-0.131,5.062-0.22,7.595-0.249 c1.264-0.014,2.528,0.005,3.79,0.083c0.337,0.023,0.672,0.057,1.007,0.1c1.222,0.141,0.129,0.092,0.792-0.472 c-1.198,1.019,0.629,1.961,1.566,1.165c3.335-2.836-6.087-2.696-6.982-2.693c-5.739,0.02-11.495,0.414-17.214,0.869 C4.946,19.759,4.543,21.593,6.118,21.468L6.118,21.468z"/>
<path fill="#231F20" d="M3.205,39.092c-1.532,0.771-4.023,2.765-2.941,4.785c1.396,2.606,4.521,2.87,7.226,3.291 c13.47,2.092,28.199-0.628,40.915-5.031c1.372-0.475,1.005-1.973-0.398-1.486c-9.312,3.224-18.93,5.021-28.773,5.41 c-3.644,0.145-7.302-0.021-10.917-0.49c-1.274-0.166-2.522-0.443-3.75-0.814c-1.881-0.568-3.32-2.906-0.36-4.396 C5.625,39.646,4.344,38.519,3.205,39.092L3.205,39.092z"/>
<path fill="#231F20" d="M46.899,0.611c-1.978,6.809-3.595,13.745-4.856,20.721c-0.719,3.981-4.422,19.275,2.036,20.649 c0.513,0.109,2.497-0.722,1.919-0.845c-6.1-1.298-2.124-17.729-1.462-21.392c1.19-6.586,2.775-13.142,4.643-19.57 C49.288-0.201,47.057,0.067,46.899,0.611L46.899,0.611z"/>
<path fill="#231F20" d="M45.098,4.728c4.137-0.258,8.285-0.391,12.429-0.376c0.437,0.002,7.294,0.702,7.276,0.729 c-1.235,1.736-4.852,2.84-6.68,3.834c-4.003,2.176-8.611,4.865-9.984,9.493c-1.34,4.516,3.539,6.377,6.916,7.119 c3.118,0.685,6.259,0.952,9.251,2.146c4.976,1.986,5.828,8.678,5.592,13.307c-0.23,4.514-2.934,8.058-5.6,11.45 c-1.005,1.279-2.023,2.539-3.108,3.751c0.633-0.707,1.332-3.358,2.052-4.782c4.141-8.184,12.161-15.027,17.989-22.01 c5.404-6.476,9.941-13.567,9.98-22.254c0.006-1.113-2.004-0.884-2.279-0.033c-1.421,4.392-2.714,8.828-3.936,13.279 c-1.881,6.852-4.27,14.399-3.985,21.583c0.169,4.279,3.522,4.45,6.218,1.908c3.733-3.52,6.138-9.091,8.249-13.686 c-0.76-0.011-1.52-0.022-2.279-0.033c-1.041,4.575-3.894,15.322,0.944,18.569c6.01,4.033,10.37-13.455,11.031-16.173 c1.667-6.846,1.115-13.531,1.678-20.456c0.364-4.483,2.621-8.288,7.369-5.806c5.813,3.039-1.671,16.021-3.171,19.892 c-2.368,6.112-4.97,12.662-5.018,19.308c-0.009,1.167,1.918,0.805,2.279,0.033c1.374-2.938,2.836-5.927,4.776-8.534 c-0.091-0.153-0.183-0.306-0.274-0.458c0.058,0.59,0.074,1.18,0.05,1.771c-0.01,0.839-0.019,1.673,0.007,2.513 c0.031,1.061,0.159,2.569,1.028,3.332c3.115,2.734,14.034-3.436,13.625-7.29c-0.108-1.018-2.247-0.476-2.332,0.403 c-0.257,2.641-0.27,12.488,4.659,10.434c2.458-1.024,4.206-3.567,5.729-5.62c3.392-4.57,6.02-9.717,8.366-14.881 c1.041-2.292,9.857-24.576,6.281-25.447c-4.005-0.976-7.384,10.316-8.462,12.693c-3.663,8.077-8.69,18.424-6.714,27.527 c1.751,8.06,12.235,6.625,17.741,4.138c3.343-1.511,12.664-9.327,5.813-12.667c-4.924-2.4-12.099,1.366-13.408,6.526 c-1.168,4.601,5.525,7.416,9.039,7.419c3.012,0.003,5.801-2.677,7.075-5.193c0.59-1.166-1.759-1.147-2.213-0.251 c-3.893,7.689-16.268,0.405-9.223-5.586c2.323-1.977,7.349-3.357,8.581,0.491c1.097,3.42-4.402,6.73-6.685,7.922 c-3.542,1.85-8.052,2.46-11.67,0.526c-3.099-1.656-3.222-5.941-3.054-8.944c0.399-7.118,3.616-14.168,6.455-20.602 c1.063-2.408,2.177-4.793,3.324-7.161c0.535-1.104,1.101-2.193,1.686-3.272c0.229-0.417,0.469-0.829,0.72-1.234 c0.808-0.798,0.584-0.992-0.67-0.579c0.238,7.147-3.506,15.503-6.179,21.944c-2.688,6.478-6.121,12.938-10.607,18.356 c-2.178,2.631-3.219,2.803-3.97-0.788c-0.396-1.896-0.458-4.005-0.271-5.938c-0.777,0.134-1.555,0.269-2.332,0.403 c0.091,0.854-3.117,2.946-3.891,3.52c-3.451,2.56-6.141,2.434-6.12-2.061c0.005-0.959,0.529-4.065-1.128-4.182 c-3.972-0.279-6.668,7.741-7.968,10.518c0.76,0.011,1.52,0.022,2.279,0.033c0.053-7.119,2.992-13.988,5.525-20.525 c1.947-5.026,6.278-12.101,4.017-17.69c-1.631-4.027-8.255-4.104-11.043-1.542c-3.124,2.871-2.596,9.274-2.512,12.943 c0.169,7.396-1.221,14.802-3.808,21.722c-0.891,2.382-2.059,5.094-3.968,6.84c-2.157,1.973-2.487-6.106-2.485-6.352 c0.026-3.581,0.646-7.241,1.439-10.728c0.256-1.125-1.944-0.763-2.279-0.033c-1.727,3.761-3.678,7.477-6.026,10.888 c-1.031,1.497-3.333,4.646-3.846,1.284c-0.351-2.297,0.18-4.847,0.54-7.108c1.488-9.362,4.297-18.638,7.212-27.646 c-0.76-0.011-1.52-0.022-2.28-0.033c-0.056,12.493-9.752,21.756-17.417,30.591c-3.634,4.189-14.04,13.374-12.306,20.057 c0.916,3.526,9.717-8.226,10.128-8.89c3.896-6.303,4.864-17.005-1.763-21.952c-4.273-3.189-17.083-1.318-17.136-8.124 c-0.052-6.647,11.6-9.476,15.868-12.787c3.74-2.902-4.13-3.396-5.416-3.46c-5.153-0.262-10.366-0.016-15.512,0.305 C44.014,3.14,43.515,4.826,45.098,4.728L45.098,4.728z"/>
<path fill="#231F20" d="M119.924,32.866c4.535-0.107,9.07-0.453,13.574-0.975c4.6-0.534,10.806-0.985,14.466-4.173 c1.186-1.033-0.679-1.714-1.518-0.983c-3.868,3.369-11.095,3.412-15.928,3.886c-3.441,0.338-6.908,0.55-10.366,0.632 C118.864,31.283,118.342,32.904,119.924,32.866L119.924,32.866z"/>
<path fill="#231F20" d="M134.531,13.249c-0.106-0.679-0.298-2.145-1.063-2.405c-0.463-0.157-1.041,0.012-1.483,0.167 c-0.037,0.013-1.063,0.477-0.708,0.597c0.436,0.147,0.586,0.819,0.7,1.206c0.103,0.345,0.181,0.701,0.236,1.056 C132.275,14.269,134.613,13.773,134.531,13.249L134.531,13.249z"/>
</svg>