<?xml version="1.0" encoding="UTF-8"?>
<svg version="1.0" xmlns="http://www.w3.org/2000/svg" width="234" height="59" >
<path d="M5.107,0.076c-2.682,1-6.731,4.1-4.422,7.403c2.063,2.951,7.073,3.211,10.289,3.592 c4.598,0.545,10.623,0.948,14.972-1.047c1.866-0.856,3.946-3.432,1.527-5.071c-3.132-2.122-8.161-0.98-11.553-0.252 C11.363,5.68,5.828,7.759,2.925,11.624c-3.315,4.414-2.749,10.87,0.409,15.196c3.749,5.139,10.151,3.648,14.64,0.563 c1.045-0.718,0.41-2.351-0.867-2.056c-5.204,1.202-9.589,4.95-6.757,10.462c4.59,8.933,17.621,9.159,25.979,7.583 c1.425-0.269,0.82-2.437-0.598-2.17c-7.229,1.363-15.267,1.178-21.164-3.778c-2.89-2.428-4.206-6.162-0.525-8.503 c1.089-0.693,2.405-1.134,3.662-1.424c-0.289-0.686-0.578-1.371-0.867-2.056c-4.572,3.143-9.684,3.76-12.755-1.598 c-2.206-3.848-1.319-9.065,1.763-12.061C10.052,7.693,17.48,6.07,23.154,6.124c2.833,0.027,3.795,1.335,0.631,2.269 C20.993,9.217,17.883,9.159,15,9.099c-3.054-0.064-6.111-0.44-9.075-1.181C4.948,7.673,4.012,7.322,3.137,6.823 C0.221,5.163,4.7,2.621,5.705,2.246C7.052,1.744,6.469-0.432,5.107,0.076L5.107,0.076z"/>
<path d="M47.955,37.826c-3.056-0.962-8.217-1.86-10.45,1.188c-1.829,2.498-1.676,5.948,0.809,7.924 c3.391,2.698,9.047,0.299,12.28-1.497c4.691-2.606,7.333-7.487,8.651-12.505c1.207-4.591,2.013-11.601,0.021-16.081 c-0.81-1.822-2.494-1.72-3.494-0.132c-2.05,3.255-1.763,8.6-1.625,12.216c0.261,6.839,2.324,13.549,6.037,19.29 c0.785,1.213,2.733,0.086,1.942-1.136c-4.185-6.47-5.887-13.859-5.77-21.512c0.037-2.393,0.333-4.816,1.079-7.096 c0.36-1.101-0.247-1.043,0.073,0.355c0.518,2.266,0.398,4.752,0.368,7.055c-0.095,7.291-2.673,14.411-9.28,18.081 c-2.817,1.565-9.892,3.722-10.104-1.38c-0.186-4.481,6.165-3.45,8.863-2.6C48.745,40.433,49.334,38.26,47.955,37.826 L47.955,37.826z"/>
<path d="M87.861,18.207c5.213,5.494,8.441,13.183,10.71,20.253c0.442,1.376,2.614,0.788,2.17-0.598 c-2.399-7.475-5.795-15.457-11.29-21.247C88.451,15.562,86.863,17.155,87.861,18.207L87.861,18.207z"/>
<path d="M92.202,12.957c2.218-2.755,5-5.295,8.354-6.529c4.308-1.584,10.9,3.277,13.851,5.94 c9.054,8.169-8.892,13.15-14.75,13.918c-0.992,0.13-1.681,1.529-0.568,2.096c5.805,2.959,12.402,5.783,18.921,6.448 c3.244,0.331,7.063,0.262,9.301-2.491c1.354-1.666,0.304-3.953-1.214-5.083c-2.017-1.502-4.773-2.37-7.044-0.925 c-1.86,1.185-1.709,4.144-0.388,5.639c2.363,2.674,5.949,3.688,9.392,4.023c1.171,0.114,2.779,0.021,3.841-0.55 c3.032-1.631,5.715-3.833,6.134,1.718c0.068,0.906,1.215,1.583,1.921,0.795c1.741-1.944,3.65-3.827,5.883-5.194 c0.663-0.406,4.239,4.348,5.522,4.734c1.393,0.419,1.983-1.752,0.598-2.17c-3.31-0.997-2.073-6.316-6.339-4.937 c-2.821,0.913-5.341,3.839-7.256,5.977c0.641,0.265,1.28,0.53,1.921,0.795c-0.245-3.25-0.974-6.795-4.93-6.126 c-2.395,0.405-3.84,2.562-6.368,2.728c-1.553,0.102-3.105-0.327-4.576-0.767c-0.857-0.279-1.669-0.652-2.437-1.118 c-1.741-0.764-1.926-2.118-0.553-4.062c1.468-0.169,3.197,0.87,4.042,1.997c1.575,2.1-3.43,2.845-4.435,2.919 c-3.103,0.229-6.32-0.728-9.261-1.604c-3.964-1.18-7.855-2.812-11.54-4.689c-0.189,0.699-0.378,1.397-0.568,2.096 c6.821-0.895,23.604-4.976,18.548-15.032c-2.308-4.592-9.811-8.857-14.798-9.468c-5.155-0.631-9.78,3.583-12.795,7.33 C89.71,12.484,91.292,14.087,92.202,12.957L92.202,12.957z"/>
<path d="M163.839,26.44c-3.909,1.745-10.769,6.886-5.95,11.405c4.53,4.249,12.324-1.981,14.939-5.502 c2.392-3.222,2.814-7.614,2.25-11.464c-0.182-1.237-1.014-6.484-3.627-5.427c-2.393,0.967-2.952,4.137-3.183,6.425 c-0.435,4.325-0.232,8.161,2.999,11.33c4.241,4.159,12.967,3.439,16.349-1.483c0.665-0.968,3.204-4.552,1.271-5.685 c-1.663-0.974-3.21,1.433-3.653,2.696c-2.283,6.508,1.582,11.779,8.296,10.698c6.696-1.078,13.964-7.771,14.644-14.667 c0.274-2.776-0.709-9.395-4.943-6.118c-4.246,3.285-6.342,10.036-5.805,15.206c1.549,14.919,22.314,3.726,27.706-1.592 c5.412-5.338,8.288-13.052,7.61-20.636c-0.454-5.071-4.368-1.029-5.54,1.138c-3.106,5.749-4.439,12.139-3.564,18.599 c1.184,8.744,3.268,18.43,7.798,26.118c0.736,1.249,2.682,0.117,1.943-1.136c-4.68-7.941-6.942-18.431-7.762-27.525 c-0.34-3.777,0.538-7.293,1.771-10.836c0.659-1.893,1.501-3.717,2.524-5.438c0.497-0.836,0.656-0.805,0.503-1.218 c0.339,0.914,0.156,2.231,0.125,3.175c-0.35,10.56-7.67,19.08-17.187,23.013c-3.204,1.325-7.226,2.188-10.537,0.784 c-4.392-1.863-3.41-7.816-2.276-11.367c0.369-1.155,4.355-9.217,5.332-5.689c1.485,5.363-3.021,10.627-7.029,13.452 c-2.695,1.898-8.672,4.654-11.15,1.059c-1.056-1.532-0.957-3.868-0.584-5.577c0.366-1.683,0.086-2.129-0.923-0.332 c-1.313,2.338-4.02,3.437-6.544,3.75c-5.382,0.667-9.229-3.236-9.359-8.432c-0.038-1.501,1.239-10.175,2.438-4.979 c0.786,3.413,0.346,7.052-1.268,10.127c-1.91,3.641-6.246,6.484-10.385,6.427c-4.871-0.068-0.866-5.487,1.126-6.838 c0.868-0.588,1.823-1.088,2.781-1.516C166.297,27.792,165.151,25.854,163.839,26.44L163.839,26.44z"/>
</svg>