<?xml version="1.0" encoding="UTF-8"?>
<svg version="1.0" xmlns="http://www.w3.org/2000/svg" width="361px" height="47px">
<path d="M16.899,14.511c3.326-0.634,10.326-1.941,11.587-5.728c1.72-5.166-6.048-7.234-9.668-6.121 c-5.432,1.669-9.889,7.441-11.696,12.604c-1.86,5.313,1.889,7.709,6.777,6.912c-0.284-0.487-0.567-0.975-0.851-1.463 c-4.227,4.649-8.957,9.94-11.202,15.879C-2.494,48.07,21.83,34.96,23.441,34.09c0.993-0.537,0.11-2.048-0.883-1.512 c-5.255,2.838-11.464,6.848-17.596,7.285c-3.494,0.249-0.866-4.194-0.048-5.634c2.526-4.445,5.938-8.502,9.371-12.276 c0.623-0.686-0.001-1.602-0.851-1.463c-5.72,0.933-5.599-3.255-3.538-7.252c1.798-3.487,4.778-6.534,8.221-8.392 c4.334-2.337,12.377,1.996,6.235,5.437c-2.37,1.327-5.26,2.034-7.918,2.54C15.326,13.034,15.796,14.721,16.899,14.511 L16.899,14.511z
M36.899,27.49c-4.514-1.25-8.787,1.855-11.452,5.158c-0.053,0.065-6.881,12.13-2.536,10.492 c2.28-0.859,4.157-2.984,5.885-4.605c4.335-4.066,8.937-8.196,12.874-12.642c3.427-3.869,6.854-7.738,10.281-11.607 c0.743-0.839-0.462-2.067-1.237-1.238c-6.483,6.939-13.539,14.358-18.045,22.774c-1.24,2.316-2.295,6.367,1.72,6.05 c2.881-0.228,5.792-1.932,8.288-3.232c6.287-3.277,12.22-7.271,18.097-11.217c0.932-0.626,0.057-2.143-0.883-1.512 c-7.482,5.024-15.758,11.537-24.594,14.021c-4.613,1.297-0.059-5.108,0.904-6.559c4.541-6.838,10.153-13.097,15.75-19.087 c-0.413-0.413-0.825-0.825-1.237-1.238c-6.219,7.021-12.472,13.771-19.152,20.365c-2.1,2.072-4.211,4.133-6.416,6.095 c-0.66,0.587-2.299,1.267-2.194,2.242c-0.134-1.245,0.983-2.912,1.47-3.975c1.947-4.253,6.531-10.115,12.012-8.598 C37.523,29.479,37.985,27.791,36.899,27.49L36.899,27.49z
M65.048,24.715c-2.236,2.393-4.433,4.824-6.591,7.287c-1.625,1.855-6.055,5.608-6.072,8.347 c-0.02,3.304,7.747-3.443,8.133-3.758c2.182-1.774,4.315-3.609,6.444-5.446c0.723-0.624,0.872-0.801,1.757-0.97 c2.16-0.411-3.388,8.12-3.809,8.718c0.503,0.294,1.007,0.589,1.511,0.883c0.493-0.895,1.19-1.635,2.02-2.228 c1.182-0.845,2.478-0.65,3.748-0.063c-0.109-0.051,1.389,1.284,1.981,1.369c3.415,0.49,6.888-0.687,9.937-2.098 c1.023-0.474,0.134-1.982-0.883-1.512c-2.64,1.222-5.356,2.039-8.285,1.938c-0.479-0.017-1.453-0.94-1.867-1.209 c-0.806-0.523-1.763-0.674-2.692-0.771c-2.277-0.237-4.46,1.856-5.47,3.688c-0.553,1.003,0.869,1.793,1.511,0.883 c0.833-1.18,8.421-11.373,2.483-11.364c-1.816,0.003-2.809,1.176-4.127,2.313c-3.263,2.815-6.536,5.721-10.099,8.156 c-0.267,0.183-0.542,0.35-0.82,0.514c-1.114,0.655,0.566-0.507,0.266,0.995c0.103-0.517,0.619-1.075,0.915-1.492 c1.319-1.858,2.85-3.58,4.343-5.3c2.25-2.592,4.559-5.137,6.902-7.644C67.055,25.13,65.82,23.89,65.048,24.715L65.048,24.715z
M102.667,28.876c1.128,0,1.128-1.75,0-1.75S101.538,28.876,102.667,28.876L102.667,28.876z
M103.156,30.045c0.118-0.604,0.236-1.207,0.354-1.812c0.215-1.103-1.471-1.572-1.688-0.465 c-0.118,0.604-0.236,1.207-0.354,1.812C101.253,30.683,102.94,31.152,103.156,30.045L103.156,30.045z
M98.781,37.08c-0.188,0.625-0.375,1.25-0.563,1.875c-0.325,1.084,1.364,1.543,1.688,0.465 c0.188-0.625,0.375-1.25,0.563-1.875C100.794,36.461,99.104,36.002,98.781,37.08L98.781,37.08z
M149.744,7.059c-6.166,9.666-12.333,19.333-18.5,29c-0.608,0.954,0.906,1.831,1.512,0.883 c6.166-9.666,12.333-19.333,18.5-29C151.864,6.987,150.35,6.11,149.744,7.059L149.744,7.059z
M143.441,13.756c3.83-2.445,7.862-4.729,12.081-6.426c1.71-0.688,6.263-2.572,5.465,0.87 c-1.273,5.491-6.35,10.665-9.533,15.075c-0.612,0.849-10.343,12.633-5.984,13.58c2.167,0.471,4.736-0.775,6.731-1.443 c4.975-1.667,9.938-3.294,15.031-4.568c1.095-0.273,0.63-1.962-0.465-1.688c-5.092,1.274-10.063,2.889-15.031,4.568 c-1.396,0.472-2.793,0.936-4.223,1.293c-1.902,0.476-1.462-0.231-0.704-1.686c2.667-5.115,6.561-9.753,9.946-14.391 c2.357-3.229,5.497-7.099,6.097-11.207c1.241-8.506-17.967,3.024-20.294,4.51C141.61,12.85,142.487,14.365,143.441,13.756 L143.441,13.756z
M179.441,25.244c-5.783-4.301-14.814,7.506-14.234,12.404c0.663,5.604,15.986-7.492,17.412-9.029 c0.766-0.826-0.466-2.064-1.238-1.238c-1.962,2.101-6.289,6.778-4.637,9.936c1.402,2.68,5.706,1.688,7.994,1.22 c10.652-2.18,20.995-7.625,30.703-12.28c-0.398-0.399-0.798-0.799-1.197-1.197c-2.539,3.417-5.598,6.976-7.316,10.892 c-0.327,0.745-0.159,2.168,1.019,1.813c2.569-0.774,4.959-4.33,6.673-6.145c0.773-0.82-0.459-2.058-1.238-1.238 c-1.297,1.366-3.002,3.681-1.578,5.481c1.149,1.455,4.055,0.858,5.541,0.637c7.349-1.099,14.573-4.378,21.389-7.155 c1.031-0.42,0.58-2.113-0.465-1.688c-5.443,2.218-10.922,4.358-16.564,6.02c-2.452,0.723-5.716,1.872-8.295,1.169 c-1.291-0.352,0.747-2.738,1.211-3.226c-0.413-0.413-0.825-0.825-1.238-1.238c-1.794,1.901-3.576,4.068-5.717,5.604 c0.899-0.645,0.302,1.62,1.283-0.16c0.464-0.842,1.006-1.643,1.533-2.443c1.672-2.537,3.464-5.001,5.275-7.439 c0.574-0.773-0.493-1.534-1.197-1.197c-2.332,1.118-34.028,17.49-36.285,11.718c-0.918-2.348,2.893-6.288,4.346-7.843 c-0.413-0.413-0.825-0.825-1.238-1.238c-3.587,3.869-8.453,7.9-13.437,9.775c-1.848,0.695-0.607-1.404-0.23-2.206 c1.195-2.545,2.942-4.9,4.944-6.854c1.391-1.359,4.065-2.705,5.9-1.34C179.465,27.43,180.336,25.91,179.441,25.244 L179.441,25.244z
M249.441,23.244c-4.132-2.311-7.919,2.913-9.697,5.814c-2.421,3.949-1.657,7.729,3.307,5.357 c4.786-2.287,8.778-7.493,12.45-11.271c3.662-3.769,8.884-7.92,11.255-12.703c0.444-0.896-0.62-1.732-1.375-1.061 c-5.759,5.131-12.024,10.786-15.94,17.499c-1.209,2.072-2.043,4.998,0.763,6.064c1.805,0.687,4.258-0.014,6.025-0.431 c4.902-1.158,9.608-3.263,14.213-5.258c1.033-0.448,0.142-1.955-0.883-1.512c-5.003,2.168-12.75,6.52-18.547,5.602 c-3.079-0.487,1.991-6.633,2.712-7.534c3.824-4.783,8.327-9.123,12.896-13.192c-0.459-0.354-0.917-0.707-1.375-1.061 c-2.88,5.811-9.56,10.923-14.058,15.496c-2.534,2.576-5.003,5.196-8.002,7.251c-5.65,3.87-0.822-4.296,0.724-6.012 c0.993-1.102,3.113-2.398,4.65-1.538C249.544,25.307,250.427,23.795,249.441,23.244L249.441,23.244z
M277.732,21.656c-4.311-1.566-10.459,6.269-10.729,9.698c-0.437,5.555,10.386-3.318,11.394-4.236 c0.749-0.683,1.902-2.705,2.8-2.845c1.108-0.174,2.207-0.405,3.303-0.646c4.283-0.937,8.432-2.368,12.43-4.157 c4.424-1.978,8.436-4.761,11.689-8.352c1.123-1.24,3.655-3.824,3.123-5.758c-1.141-4.146-10.552,5.384-11.217,6.054 c-4.202,4.232-7.755,9.146-10.934,14.176c-1.473,2.331-3.264,5.035-3.546,7.857c-0.442,4.42,6.73,0.742,8.079,0.055 c10.761-5.487,20.673-12.973,30.692-19.664c0.542-0.361,1.083-0.723,1.624-1.083c-0.354-0.458-0.707-0.916-1.061-1.375 c-8.666,10.667-17.333,21.334-26,32c0.459,0.354,0.917,0.707,1.375,1.061c2.599-3.445,5.259-6.846,7.966-10.207 c1.832-2.276,3.7-4.526,5.645-6.708c0.738-0.829,1.503-1.636,2.297-2.411c0.31-0.303,0.636-0.6,0.979-0.863 c0.729-0.562-0.234-0.736-0.366-0.215c-0.647,2.557-6.618,10.28-0.726,11.903c3.695,1.018,8.473-2.424,11.304-4.224 c7.403-4.705,14.01-10.639,20.595-16.388c1.925-1.68,3.878-3.326,5.87-4.925c1.09-0.875,2.197-1.729,3.353-2.516 c0.384-0.261,0.779-0.505,1.19-0.719c0.484-0.254-0.294-1.096-0.613-0.479c-1.498,2.893-4.1,5.424-6.209,7.86 c-5.712,6.597-11.691,12.965-17.659,19.329c0.459,0.354,0.917,0.707,1.375,1.061c1.561-2.497,4.86-6.579,8.071-3.759 c2.759,2.423,1.085,3.642,4.532,3.937c6.073,0.52,8.144-3.503,5.984-8.852c-0.417-1.032-2.11-0.582-1.688,0.465 c1.745,4.323,0.326,6.865-4.297,6.637c-2.437-0.12-2.615-3.296-4.929-4.614c-3.574-2.036-7.564,2.709-9.187,5.304 c-0.527,0.844,0.694,1.786,1.375,1.061c1.548-1.652,27.218-26.696,24.197-29.513c-2.014-1.878-10.06,6.292-11.511,7.539 c-5.579,4.79-11.056,9.668-16.976,14.046c-3.217,2.38-9.987,8.253-14.537,7c-4.512-1.243,5.6-11.435,1.292-11.938 c-3.095-0.362-8.047,7.612-9.629,9.545c-3.152,3.853-6.214,7.786-9.212,11.761c-0.597,0.792,0.75,1.828,1.375,1.061 c8.666-10.667,17.333-21.334,26-32c0.584-0.719-0.173-1.967-1.061-1.375c-7.121,4.751-14.212,9.547-21.401,14.193 c-4.585,2.963-9.396,6.417-14.612,8.186c-2.586,0.877-1.508-1.442-0.832-2.91c1.365-2.964,3.298-5.711,5.131-8.392 c3.95-5.772,9.096-12.269,15.328-15.76c0.765-0.429,1.061-0.968,0.584,0.042c-0.574,1.213-1.525,2.259-2.375,3.277 c-2.463,2.956-5.708,5.109-9.048,6.947c-5.015,2.758-10.701,4.434-16.299,5.528c-3.708,0.725-5.922,4.667-9.019,6.885 c-1.13,0.81-2.35,1.537-3.637,2.065c-0.564,0.231,3.077-5.475,3.044-5.436c0.959-1.11,3.13-3.15,4.845-2.527 C278.33,23.73,278.784,22.038,277.732,21.656L277.732,21.656z"/>
</svg>