<?xml version="1.0" encoding="UTF-8"?>
<svg version="1.0" xmlns="http://www.w3.org/2000/svg" width="221" height="89" >
<path fill="#231F20" d="M24.329,26.272c3.253,5.759,10.682,5.755,16.015,3.308c5.661-2.598,10.51-8.387,13.013-13.969 c2.658-5.929,0.43-11.003-5.723-12.965c-8.445-2.691-18.149,0.069-25.389,4.591C15.385,11.521,9.6,18.838,7.273,26.603 c-2.357,7.87-0.658,13.653,5.72,18.838c3.976,3.232,15.294,8.602,19.83,3.284c1.688-1.979,1.041-4.303-0.616-6.117 c-2.259-2.473-6.349-1.979-9.213-1.252C14.257,43.574,9.242,52.428,5.59,59.908C2.537,66.162-2.354,76.89,1.301,83.793 c3.415,6.449,11.58,4.688,16.693,1.653c9.833-5.837,15.729-18.196,20.023-28.229c5.425-12.675,12.219-24.605,19.632-36.221 c2.495-3.91,5.146-7.721,8.053-11.336c0.868-1.079,6.111-7.732,7.626-6.997c1.765,0.856-3.564,11.446-4.05,12.49 c-6.521,14.007-14.813,27.26-20.428,41.68c-1.25,3.21-3.59,8.514-0.089,11.183c5.308,4.047,12.036-1.954,14.982-6.099 c5.024-7.068,6.824-18.452,1.637-25.864c-4.426-6.323-13.926-6.368-20.7-5.367c-9.575,1.415-18.131,5.979-23.442,14.23 c-3.523,5.476-5.438,18.51,1.593,22.156c1.198,0.621,2.604,0.757,3.923,0.869c1.586,0.135,2.069,0.443,1.288-0.432 c0.313-0.633,0.625-1.267,0.937-1.9c1.169-0.58-0.804-0.186-1.667-0.254c-1.625-0.129-3.203-0.489-4.754-0.979 c-4.993-1.575-8.052-5.561-8.337-10.771c-0.107-1.959-3.993-1.283-3.904,0.334c0.339,6.202,3.578,10.387,9.282,12.688 c2.754,1.111,8.135,2.568,11.055,1.119c0.591-0.293,1.59-1.169,0.937-1.9c-1.301-1.457-4.879-0.475-6.542-1.337 c-4.387-2.274-3.062-12.342-1.756-15.972c4.083-11.351,17.635-16.361,28.832-15.534c13.195,0.975,14.336,15.246,9.922,25.146 c-1.194,2.679-5.898,10.154-9.801,8.079c-2.161-1.149-1.302-4.024-0.817-5.812c1.791-6.592,5.325-12.881,8.383-18.944 c3.71-7.356,7.597-14.624,11.246-22.013c1.65-3.342,12.459-23.748,0.097-18.648C64.767,3.449,60.117,11.491,56.429,16.9 c-4.005,5.875-7.513,12.039-11.067,18.187c-3.022,5.228-5.924,10.321-8.424,15.849C31.61,62.711,26.732,76.312,15.465,83.808 c-4.074,2.711-9.477,2.244-10.988-2.896c-1.382-4.7,0.764-10.64,2.367-14.997c1.614-4.389,3.772-8.597,6.205-12.584 c2.695-4.419,9.263-12.364,15.237-9.304c3.065,1.571,1.479,4.018-1.23,3.899c-2.7-0.118-5.37-1.249-7.733-2.469 c-4.403-2.272-8.356-5.922-9.157-10.941c-1.416-8.869,5.447-18.345,11.829-23.632c5.8-4.805,13.016-6.896,20.471-6.269 c5.893,0.497,9.504,4.029,7.507,9.89C47.564,21.575,34.1,35.627,27.876,24.608C27.072,23.184,23.367,24.569,24.329,26.272 L24.329,26.272 M34.293,64.464c7.516-2.75,14.722-6.522,21.433-10.859C66.381,46.72,74.918,36.8,86.239,30.853 c3.202-1.682,2.349,1.451,1.935,3.517c-0.683,3.414-1.864,6.747-3.035,10.018c-2.86,7.986-6.371,15.824-10.595,23.183 c-1.611,2.806-3.392,5.582-5.679,7.89c-3.405,3.438-1.432-5.33-0.915-6.714c4.101-10.96,13.463-18.269,20.17-27.495 c2.78-3.826,5.259-7.903,8.301-11.531c5.721-6.821,3.007,8.749,2.529,11.152c-1.345,6.775-2.761,13.663-4.423,20.362 c-0.734,2.96-2.017,5.777-3.43,8.465c-0.773,1.47-3.243,6.753-4.1,3.499c-1.126-4.276,2.181-10.054,4.996-12.915 c2.879-2.927,6.891-5.147,9.956-7.986c5.741-5.318,13.551-11.885,16.477-19.382c2.744-7.032-3.634-6.733-7.213-2.676 c-6.585,7.464-10.062,19.296-12.258,28.778c-1.285,5.546-1.695,12.255,5.885,9.334c8.341-3.214,12.543-13.11,15.761-20.692 c1.93-4.55,3.71-9.17,5.27-13.86c1.043-3.135,1.184-5.939,1.662-9.052c0.542-3.531,4.437-6.842,5.696-10.262 c1.015-2.754,0.182-6.803-2.934-7.794c-5.243-1.669-10.844,1.897-14.059,5.778c-5.191,6.269-5.716,17.125-0.899,23.715 c3.428,4.689,10.624,1.328,14.261-1.125c2.833-1.91,5.282-4.441,7.526-6.994c0.909-1.035,1.76-2.123,2.566-3.239 c0.231-0.321,1.384-1.734,0.733-1.283c-1.024,0.225-2.048,0.449-3.071,0.674c0.122,0.037,0.081,5.453,0.057,6.427 c-0.12,4.867-0.577,9.73-1.229,14.553c-0.61,4.513-1.474,9.044-3.028,13.334c-0.983,2.715-9.371,13.187-10.708,10.338 c-1.837-3.916,1.989-8.791,4.137-11.619c3.266-4.298,7.035-8.226,10.699-12.18c6.53-7.046,14.782-14.489,18.401-23.611 c0.391-0.986-3.327-0.122-3.824,0.633c-1.452,2.207-2.8,4.809-2.614,7.514c0.228,3.309,5.843,2.305,7.767,2.035 c4.691-0.659,9.293-2.509,13.569-4.467c1.404-0.644,5.888-2.354,5.969-4.331c-0.069-0.152-0.188-0.244-0.356-0.275 c-3.003-1.236-7.984,2.954-9.996,4.535c-4.765,3.745-6.616,8.422-8.56,13.915c-2.211,6.249-4.431,12.494-6.937,18.632 c-1.254,3.07-4.908,13.718-7.947,14.44c-1.647,0.392-2.405,1.955-0.152,1.484c6.423-1.342,12.725-3.716,18.421-6.962 c8.8-5.015,13.316-13.658,17.36-22.607c2.133-4.722,3.926-9.622,5.22-14.64c0.523-2.028,1.912-6.663,0.354-8.598 c-0.901-1.119-3.158-0.324-4.123,0.34c-1.904,1.311-2.242,4.474-2.475,6.538c-2.176,19.328,26.381,14.682,36.332,8.088 c3.029-2.007,9.93-9.288,4.212-12.102c-4.026-1.981-9.824-0.483-13.676,1.194c-3.525,1.536-6.679,3.837-8.407,7.353 c-2.936,5.965,1.97,11.796,4.667,16.711c3.422,6.234,6.385,14.964,3.01,21.808c-1.506,3.054-4.621,2.114-7.422,1.532 c-4.413-0.917-4.88-5.561-5.039-9.305c-0.034-0.815-3.914-0.146-3.863,1.035c0.146,3.417,0.523,7.917,4.258,9.358 c2.623,1.014,6.4,1.724,9.197,1.275c5.816-0.931,8.018-5.871,8.177-11.32c0.156-5.39-2.067-10.718-4.454-15.419 c-2.219-4.372-5.581-7.981-5.504-13.137c0.101-6.622,8.356-11.087,14.279-10.042c2.17,0.382,3.502,1.845,2.924,4.064 c-1.608,6.173-9.015,9.323-14.583,10.427c-5.125,1.017-11.762,0.928-16.414-1.76c-3.731-2.155-4.208-7.396-3.779-11.202 c0.153-1.364,0.527-2.703,1.053-3.969c0.943-2.274,0.681,1.222-2.178-0.33c0.34,0.185,0.4,1.151,0.45,1.454 c0.709,4.313-1.58,9.662-2.968,13.63c-3.637,10.399-8.67,22.291-18.171,28.521c-4.701,3.083-11.02,5.386-16.187,6.465 c-0.051,0.495-0.102,0.989-0.152,1.484c4.934-1.174,7.29-7.293,9.201-11.374c3.589-7.664,6.322-15.733,9.139-23.703 c0.977-2.763,1.835-5.622,3.292-8.176c1.436-2.517,3.928-4.549,6.225-6.223c0.883-0.643,1.827-1.191,2.792-1.7 c-1.066,0.562-2.285,0.56-3.502,1.243c-2.808,1.576-14.433,7.438-16.961,3.687c-1.352-2.005,1.263-6.064,2.377-7.756 c-1.274,0.211-2.55,0.422-3.824,0.633c-3.403,8.579-11.083,15.614-17.24,22.255c-5.501,5.933-12.381,12.118-15.68,19.668 c-0.925,2.119-1.415,6.246,1.019,7.442c2.204,1.084,5.321-0.759,7.092-1.91c7.365-4.79,10.454-11.558,12.099-19.785 c1.507-7.538,2.184-15.402,2.163-23.087c-0.002-0.76,0.338-3.7-0.734-4.021c-1.353-0.406-3.179,0.286-3.852,1.518 c-2.467,4.521-11.922,15.73-17.211,11.246c-3.87-3.282-3.92-11.103-3.156-15.55c0.786-4.575,4.021-10.271,8.711-11.756 c5.968-1.89,4.378,7.38,3.001,9.964c-1.374,2.577-4.983,5.716-4.327,8.891c0.646,3.126-1.825,7.937-2.832,10.781 c-1.769,5-3.806,9.914-5.96,14.76c-2.191,4.931-4.951,9.266-8.948,12.945c-5.966,5.493-3.598-5.447-2.962-8.188 c1.187-5.124,3.005-10.117,5.007-14.973c0.977-2.367,2.089-4.675,3.281-6.94c0.521-0.988,1.1-1.942,1.688-2.892 c0.726-1.2,1.566-2.31,2.521-3.328c-0.562,0.009-0.693,0.256-0.395,0.742c0.761,3.479-2.322,7.127-4.31,9.574 c-3.264,4.021-6.918,7.744-10.622,11.357c-6.261,6.107-14.305,9.762-16.74,18.729c-0.436,1.604-1.284,6.334,1.225,6.867 c2.487,0.529,4.658-0.576,6.505-2.17c3.771-3.253,5.797-9.045,7.153-13.63c2.101-7.104,3.326-14.837,4.771-22.114 c0.564-2.842,2.862-10.297-0.472-12.274c-1.879-1.114-4.953,0.375-6.595,1.274c-2.698,1.479-4.306,3.807-6.064,6.273 c-3.557,4.991-6.945,10.072-10.885,14.778c-6.442,7.694-13.812,14.344-16.138,24.616c-1.313,5.802,4.296,5.733,7.944,3.343 c5.021-3.292,8.133-10.521,10.717-15.644c3.714-7.362,6.894-15.094,9.292-22.986c0.739-2.433,3.599-9.345-0.929-9.435 c-2.794-0.056-5.536,1.446-7.886,2.779c-5.124,2.904-9.779,6.682-14.371,10.342c-10.954,8.732-21.503,16.99-34.825,21.864 C30.334,64.36,32.76,65.025,34.293,64.464L34.293,64.464z"/>
</svg>