<?xml version="1.0" encoding="UTF-8" standalone="no"?>
<!-- Created with Inkscape (http://www.inkscape.org/) -->

<svg
   xmlns:dc="http://purl.org/dc/elements/1.1/"
   xmlns:cc="http://creativecommons.org/ns#"
   xmlns:rdf="http://www.w3.org/1999/02/22-rdf-syntax-ns#"
   xmlns:svg="http://www.w3.org/2000/svg"
   xmlns="http://www.w3.org/2000/svg"
   xmlns:sodipodi="http://sodipodi.sourceforge.net/DTD/sodipodi-0.dtd"
   xmlns:inkscape="http://www.inkscape.org/namespaces/inkscape"
   id="svg3390"
   version="1.1"
   inkscape:version="0.91 r13725"
   width="168.7961"
   height="52.281708"
   viewBox="0 0 168.79609 52.281708"
   sodipodi:docname="Munch signature.svg">
  <metadata
     id="metadata3396">
    <rdf:RDF>
      <cc:Work
         rdf:about="">
        <dc:format>image/svg+xml</dc:format>
        <dc:type
           rdf:resource="http://purl.org/dc/dcmitype/StillImage" />
        <dc:title></dc:title>
      </cc:Work>
    </rdf:RDF>
  </metadata>
  <defs
     id="defs3394" />
  <sodipodi:namedview
     pagecolor="#ffffff"
     bordercolor="#666666"
     borderopacity="1"
     objecttolerance="10"
     gridtolerance="10"
     guidetolerance="10"
     inkscape:pageopacity="0"
     inkscape:pageshadow="2"
     inkscape:window-width="1312"
     inkscape:window-height="747"
     id="namedview3392"
     showgrid="false"
     fit-margin-top="0"
     fit-margin-left="0"
     fit-margin-right="0"
     fit-margin-bottom="0"
     inkscape:zoom="1.4840715"
     inkscape:cx="16.880201"
     inkscape:cy="91.34062"
     inkscape:window-x="1200"
     inkscape:window-y="117"
     inkscape:window-maximized="1"
     inkscape:current-layer="svg3390" />
  <path
     style="fill:#000000"
     d="m 156.22872,52.235973 c -2.07841,-0.72057 -1.80153,-3.14307 0.69108,-6.04654 2.85078,-3.32068 3.87188,-5.19717 5.19407,-9.54513 1.92079,-6.31642 -2.16332,-18.95026 -5.82861,-18.03033 -1.64776,0.41357 -1.80319,0.85597 -1.56665,4.4593 0.24723,3.76605 -0.37878,5.36787 -2.17989,5.57785 -0.65678,0.0766 -1.43625,0.43094 -1.73217,0.7875 -0.73066,0.88039 -3.975,0.85955 -4.31548,-0.0277 -0.42351,-1.10364 0.17918,-2.68081 1.64879,-4.3147 3.70587,-4.12013 3.91769,-5.32552 2.85933,-16.2718001 -0.55649,-5.75557 1.67548,-3.56453 2.54011,2.4935301 1.02636,7.19123 0.79503,6.8327 3.09872,4.80234 7.07126,-6.2322701 14.35198,6.85255 11.53862,20.73706 -0.98183,4.84551 -4.76005,12.40824 -6.77435,13.55997 -2.25815,1.29116 -4.46127,2.06562 -5.17357,1.81867 z m -36.83763,-20.17603 c -1.49721,-1.04869 -2.42918,-4.06111 -1.79715,-5.80896 0.42792,-1.18337 0.4199,-2.05266 -0.038,-4.11948 -1.01368,-4.57541 -1.67712,-5.01714 -4.839,-3.22183 -2.63114,1.49397 -2.82868,1.89362 -2.03159,4.11022 1.14068,3.1721 -0.49884,6.54861 -3.27579,6.74631 -1.20926,0.0861 -1.39646,-0.0849 -1.86545,-1.7043 -2.24237,-7.74269 -2.55798,-14.28411 -0.70187,-14.5472 1.42841,-0.20248 3.12701,1.01211 4.01261,2.86923 0.94293,1.97737 1.50774,1.95071 4.09313,-0.19314 4.95479,-4.1086 6.5215,-3.47983 7.72903,3.10186 0.29458,1.60559 1.03913,4.48723 1.65457,6.40365 1.64389,5.11891 0.0884,8.48517 -2.94049,6.36364 z m -57.212366,-0.96043 c -1.422198,-0.47383 -3.155584,-2.59718 -3.865828,-4.73553 -0.713358,-2.14771 -0.698851,-3.27587 0.096,-7.46668 0.421273,-2.22113 -1.555937,-9.0604001 -2.619328,-9.0604001 -1.338705,0 -2.286976,1.9716901 -1.93896,4.0315801 0.661613,3.91605 -3.200067,7.01427 -5.570878,4.4695 -0.48623,-0.5219 -1.502276,-2.24315 -2.25788,-3.825 -1.762312,-3.68937 -1.893685,-3.64357 -3.044317,1.06142 -0.906264,3.70578 -0.920484,4.04344 -0.241569,5.7375 1.587451,3.96112 0.946584,8.44519 -1.285695,8.99585 -3.00101,0.74029 -3.120516,0.11624 -2.670656,-13.94585 0.548591,-17.14823013 0.524664,-17.11235013 6.881058,-10.3184901 1.952073,2.08642 3.90865,3.79349 4.347954,3.79349 2.035102,0 5.63594,-4.65625 6.125504,-7.92092 0.320287,-2.13583003 0.775228,-2.37770003 2.37055,-1.26029003 0.862461,0.60409003 1.241473,0.62963003 2.375168,0.16004 1.973277,-0.81736 2.149254,-0.3626 2.362077,6.10414003 0.194634,5.9141801 0.985725,9.4193901 3.731976,16.5359201 1.02478,2.65557 0.323401,4.45216 -1.886544,4.83242 -1.002087,0.17243 -1.371074,0.50844 -1.48424,1.35159 -0.18526,1.38033 -0.547735,1.75179 -1.424394,1.45971 z m 28.542637,-1.88967 c -2.14092,-2.20693 -1.92316,-2.19872 -5.169826,-0.19476 -3.764965,2.32386 -5.474871,1.67319 -7.82636,-2.97818 -1.577375,-3.12012 -1.776563,-5.11429 -0.873063,-8.74051 1.297742,-5.20849 2.281298,-5.00613 2.844977,0.58534 0.715279,7.09529 6.114947,7.57021 6.998382,0.61553 0.68126,-5.36314 1.11275,-5.72113 4.99603,-4.14502 2.44838,0.99372 2.44838,0.99372 2.3303,3.97669 -0.11808,2.98297 -0.11808,2.98297 1.53517,3.1206 3.31389,0.27586 3.89214,3.20642 1.34913,6.83737 -2.31548,3.3061 -3.67592,3.50911 -6.18474,0.92294 z M 7.8590867,30.114193 C -0.33833529,29.737803 -0.75576329,28.997743 0.58120671,17.211083 2.0346897,4.3972229 1.9983767,4.4369029 12.272142,4.4369029 c 7.299051,0 7.051203,-0.0921 7.262431,2.7 0.119151,1.575 0.119151,1.575 -1.905849,1.47201 -8.9805153,-0.45678 -9.9377873,-0.39359 -10.8377993,0.71535 -2.408972,2.9681901 -0.390882,4.8486801 4.5293853,4.2205501 4.252472,-0.54288 4.964531,-0.40564 4.943443,0.95274 -0.03978,2.56218 -3.169606,4.47377 -7.8215393,4.7771 -3.63849,0.23725 -3.63849,0.23725 -3.534743,2.03725 0.309375,5.36766 1.796744,6.48448 6.8785893,5.16489 5.59756,-1.45349 6.742664,-1.18989 6.742664,1.55217 0,1.5446 -1.374531,2.52105 -3.410433,2.42273 -0.970512,-0.0469 -4.237154,-0.19874 -7.2592043,-0.3375 z M 132.95943,29.179623 c -2.8248,-1.13709 -4.64345,-5.63333 -4.87413,-12.05031 -0.1813,-5.04342 -0.0691,-5.13923 4.07779,-3.48024 4.15596,1.66265 5.39063,1.45945 5.39063,-0.88717 0,-2.32394 3.64337,-2.62491 5.50972,-0.45514 3.24764,3.7756 -0.0697,7.14619 -5.86114,5.9552 -3.40318,-0.69985 -3.47358,-0.67701 -3.47358,1.12688 0,0.94512 0.61665,1.95396 2.25,3.68098 2.498,2.64127 2.58605,2.92045 1.4729,4.67042 -1.26473,1.98823 -2.30258,2.32078 -4.49219,1.43938 z M 27.14504,26.881553 c -2.368766,-1.74201 -2.301077,-2.72644 0.224099,-3.25914 2.849465,-0.6011 5.733478,1.75791 4.642138,3.79709 -0.6925,1.29395 -2.672938,1.07502 -4.866237,-0.53795 z"
     id="path3404"
     inkscape:connector-curvature="0" />
</svg>
