<?xml version="1.0" encoding="UTF-8"?>
<!DOCTYPE svg PUBLIC "-//W3C//DTD SVG 1.1//EN" "http://www.w3.org/Graphics/SVG/1.1/DTD/svg11.dtd">
<!-- Creator: CorelDRAW X6 -->
<svg xmlns="http://www.w3.org/2000/svg" xml:space="preserve" width="141.584mm" height="29.4129mm" version="1.1" style="shape-rendering:geometricPrecision; text-rendering:geometricPrecision; image-rendering:optimizeQuality; fill-rule:evenodd; clip-rule:evenodd"
viewBox="0 0 17078 3548"
 xmlns:xlink="http://www.w3.org/1999/xlink">
 <defs>
  <style type="text/css">
   <![CDATA[
    .str0 {stroke:#2B2A29;stroke-width:120.62}
    .fil0 {fill:none}
   ]]>
  </style>
 </defs>
 <g id="Capa_x0020_1">
  <metadata id="CorelCorpID_0Corel-Layer"/>
  <path class="fil0 str0" d="M3535 1779c-1383,309 -1870,-80 -2017,-800 -187,-914 2777,-1577 2659,183 -36,542 -1335,2608 -3125,1949 -652,-240 -993,-242 -991,-24 4,682 2779,-629 3459,-1615"/>
  <path class="fil0 str0" d="M3355 2509c-89,253 -30,734 743,4 1210,-1142 -1368,1429 -214,885"/>
  <path class="fil0 str0" d="M7350 1342c465,-182 1535,-488 1416,-745 -366,-792 -321,797 -488,939 -1333,300 -1681,565 -1824,1255 -312,1513 1433,213 1424,-610 -3,-275 -1100,1043 -814,1160"/>
  <path class="fil0 str0" d="M7734 2654c646,31 1211,-1489 1013,-989 -70,177 -427,785 -693,1281 -317,591 -288,415 138,96 356,-267 1270,-1311 692,-277 -506,905 468,99 891,-235 1364,-1079 1018,-1187 226,-173 -667,855 -320,1273 1025,153 197,-164 378,-504 -72,-5 -578,642 -422,1593 848,-294 399,-592 296,-211 2,79 -28,52 -10,124 -26,174 -123,397 -841,1454 1425,0 645,-414 396,-114 241,323 -216,610 -1073,662 -367,48"/>
  <path class="fil0 str0" d="M15000 1453c-45,-159 67,-249 786,-284 5,0 1091,-92 929,304"/>
  <path class="fil0 str0" d="M17012 2232c0,88 13,468 0,532"/>
 </g>
</svg>
