<?xml version="1.0" encoding="UTF-8" standalone="no"?>
<!-- Created with Inkscape (http://www.inkscape.org/) -->
<svg
   xmlns:svg="http://www.w3.org/2000/svg"
   xmlns="http://www.w3.org/2000/svg"
   version="1.0"
   width="750"
   height="336"
   id="svg2">
  <defs
     id="defs4" />
  <g
     transform="translate(0,-716.36218)"
     id="layer1">
    <path
       d="M 40.572328,1018.7916 C 38.637367,1016.8567 38.590537,1015.3917 40.381915,1012.8347 C 42.778656,1009.4136 51.491182,1001.0358 57.512494,996.36218 C 60.701179,993.88718 65.424497,989.94968 68.008756,987.61218 C 70.593016,985.27468 73.211196,983.36218 73.826934,983.36218 C 74.442672,983.36218 76.871004,981.62532 79.223229,979.50248 C 84.21053,975.00155 93.706686,966.70132 100.9472,960.51439 C 106.0609,956.14479 120.33834,940.7077 131.49477,927.48565 C 138.83016,918.79212 145.96064,906.81191 145.98324,903.14297 C 145.99246,901.64741 146.88916,898.71787 147.97592,896.63289 C 149.68536,893.35324 149.96563,890.70554 150.05414,876.9998 C 150.14933,862.25847 150.01202,861.00388 148.07822,858.94544 C 146.9352,857.72875 146,855.73695 146,854.51921 C 146,852.50125 143.14223,846.38034 138.03108,837.45099 C 136.43602,834.66436 136.14525,832.59788 136.44295,826.16456 C 136.79073,818.64897 136.98303,818.0951 140.65369,814.03622 C 146.35294,807.73422 152.05093,803.59484 156.52563,802.50586 C 160.78052,801.47038 164.53729,800.2342 172.51933,797.24308 C 175.27996,796.20858 178.71088,795.36218 180.1436,795.36218 C 181.57632,795.36218 184.61305,794.70434 186.89189,793.90032 C 189.17073,793.0963 191.6932,792.69095 192.49738,792.99955 C 195.15466,794.01924 198,799.92243 198,804.41576 C 198,807.48781 198.63463,809.40881 200.2,811.07507 C 202.40043,813.41732 203.08092,818.10298 201.73138,821.6198 C 200.43044,825.01 194,823.16153 194,819.39737 C 194,818.53673 193.1,816.15336 192,814.101 C 190.9,812.04863 190,809.75348 190,809.00066 C 190,808.24784 189.02913,806.39764 187.84251,804.8891 C 185.83564,802.33778 185.33029,802.19336 180.60352,802.82039 C 177.80869,803.19113 174.16706,804.31168 172.51101,805.3105 C 170.85495,806.30931 167.35474,807.43328 164.73275,807.80821 C 157.85338,808.79192 151.42462,811.93892 148.52294,815.74322 C 146.46346,818.44333 146,820.17058 146,825.14575 C 146,830.8194 146.27639,831.55989 150,835.86218 C 152.2,838.40408 154,841.39948 154,842.51863 C 154,843.63777 154.95664,845.89692 156.12587,847.53895 C 158.18109,850.42524 158.23562,851.27789 157.76638,873.19332 C 157.37185,891.61946 156.97512,896.42366 155.64666,898.86218 C 154.74778,900.51218 154.00955,902.6035 154.00616,903.50956 C 153.9978,905.74634 148.16701,917.36218 147.05258,917.36218 C 146.56211,917.36218 144.66213,919.78572 142.83041,922.74783 C 140.99868,925.70994 134.1,934.06285 127.5,941.30985 C 120.9,948.55685 114.97854,955.47755 114.3412,956.68918 C 113.70386,957.90082 111.00386,960.43956 108.3412,962.33083 C 104.15137,965.30684 87.758162,979.50744 78.5,988.18075 C 76.85,989.72652 73.475,992.30296 71,993.90619 C 65.12646,997.71088 56,1005.3634 56,1006.4836 C 56,1007.8133 58.794904,1007.5365 61.285183,1005.9603 C 62.503332,1005.1893 65.075,1004.2307 67,1003.83 C 68.925,1003.4294 71.573186,1002.2602 72.884859,1001.2319 C 74.196531,1000.2035 76.618416,999.36218 78.266825,999.36218 C 79.915234,999.36218 82.667047,998.5152 84.381966,997.48001 C 86.096885,996.44481 89.744071,995.27626 92.486825,994.88322 C 95.22958,994.49018 98.694733,993.53716 100.18717,992.76539 C 101.6796,991.99363 103.72788,991.36218 104.7389,991.36218 C 105.74992,991.36218 108.35977,990.45112 110.53856,989.3376 C 112.71735,988.22408 116.24727,986.84064 118.38282,986.26329 C 120.51837,985.68594 124.61866,984.13727 127.49458,982.82179 C 130.3705,981.50632 134.69823,980.13658 137.11176,979.77793 C 139.52529,979.41927 146.8427,977.38905 153.37266,975.26631 C 159.90262,973.14357 166.87762,971.11161 168.87266,970.75083 C 170.8677,970.39006 173.70481,969.48537 175.17735,968.74042 C 176.64989,967.99546 180.02489,967.12885 182.67735,966.81461 C 185.32981,966.50037 188.49667,965.59502 189.71482,964.80272 C 190.93297,964.01042 193.18297,963.35644 194.71482,963.34941 C 196.24667,963.34239 201.00464,962.21739 205.2881,960.84941 C 209.57155,959.48144 214.21363,958.36218 215.60384,958.36218 C 216.99404,958.36218 219.1144,957.8108 220.31574,957.1369 C 223.61774,955.2846 245.38256,950.36543 250.28518,950.36336 C 251.81703,950.36271 254.06703,949.74457 255.28518,948.98971 C 256.50333,948.23485 261.1,947.04067 265.5,946.33599 C 269.9,945.6313 274.54983,944.67086 275.83296,944.20167 C 277.11609,943.73248 280.22464,943.10147 282.74085,942.79942 C 285.25705,942.49738 288.57237,941.60044 290.10822,940.80622 C 291.64407,940.012 294.83553,939.35333 297.20034,939.34251 C 302.29918,939.31917 315.36281,937.04619 319.23636,935.50839 C 320.74135,934.91091 323.44324,934.47734 325.24055,934.54491 C 327.03787,934.61248 329.85651,933.98536 331.5042,933.15133 C 333.15189,932.31729 338.73211,931.32711 343.9047,930.95093 C 349.07728,930.57475 354.11241,929.83721 355.09386,929.31195 C 357.86248,927.83023 369.23081,925.46539 383.5,923.40291 C 390.65,922.36944 398.43062,920.80846 400.79026,919.93408 C 403.1499,919.05969 406.09246,918.59827 407.32929,918.90869 C 408.56612,919.21911 410.9105,918.93889 412.53903,918.28597 C 415.93084,916.92611 432.44229,914.48259 438.72583,914.4106 C 441.11171,914.38326 444.37726,913.49299 446.22583,912.36592 C 448.80131,910.79565 451.31384,910.36126 458,910.3303 C 462.675,910.30865 469.2,909.57948 472.5,908.70992 C 475.8,907.84036 481.425,906.83004 485,906.46478 C 488.575,906.09951 492.4,905.31359 493.5,904.71828 C 494.6,904.12297 501.38359,903.35154 508.57464,903.00399 C 515.7657,902.65643 523.84394,901.71157 526.52628,900.90431 C 529.20863,900.09704 537.05004,899.15595 543.95164,898.81299 C 550.85324,898.47004 557.85,897.80343 559.5,897.33164 C 561.15,896.85985 573.075,896.34149 586,896.17973 L 609.5,895.88562 L 609.8084,899.05746 C 610.0282,901.318 609.59723,902.49858 608.3084,903.16654 C 607.31378,903.68202 592.42616,904.40237 575.22479,904.76731 C 558.02343,905.13226 542.94843,905.80687 541.72479,906.26645 C 540.50116,906.72602 535.45,907.4191 530.5,907.80662 C 525.55,908.19413 519.28082,909.15266 516.5685,909.93668 C 513.85617,910.72071 508.82623,911.36218 505.39086,911.36218 C 497.70235,911.36218 484.53639,913.05673 480.5,914.56581 C 478.85,915.18269 474.125,916.01351 470,916.41208 C 461.92289,917.19251 446.28716,919.74887 439,921.48042 C 436.525,922.06852 430.9,922.89553 426.5,923.31822 C 422.1,923.74091 416.475,924.5823 414,925.18797 C 411.525,925.79365 406.125,926.77791 402,927.3752 C 397.875,927.9725 393.15,928.95508 391.5,929.55873 C 389.85,930.16237 384.45,931.08964 379.5,931.61932 C 374.55,932.149 367.91071,933.43284 364.74602,934.47228 C 361.58133,935.51173 357.24878,936.36218 355.11814,936.36218 C 352.9875,936.36218 349.62875,937.03718 347.65424,937.86218 C 345.67974,938.68718 342.35912,939.36218 340.27509,939.36218 C 338.19106,939.36218 332.4391,940.48159 327.49297,941.84976 C 322.54684,943.21792 316.56515,944.34292 314.20034,944.34976 C 311.83553,944.35659 308.68553,944.98067 307.20034,945.73661 C 305.71515,946.49255 300.82544,947.31594 296.33431,947.56636 C 290.93114,947.86764 287.27844,948.60494 285.53734,949.74576 C 284.09014,950.694 279.6647,951.88155 275.70303,952.38474 C 271.74136,952.88794 266.03943,953.98872 263.03207,954.83091 C 260.02471,955.67311 256.42471,956.37813 255.03207,956.39762 C 253.63943,956.4171 251.375,957.07616 250,957.86218 C 248.625,958.6482 245.01834,959.30726 241.98519,959.32674 C 238.47159,959.34932 235.13989,960.07528 232.80391,961.32729 C 230.78736,962.4081 226.06902,963.58952 222.31872,963.95266 C 218.51381,964.3211 214.12186,965.4415 212.38197,966.48755 C 210.66705,967.5186 207.8322,968.36218 206.08231,968.36218 C 204.33241,968.36218 201.68553,968.98442 200.20034,969.74493 C 198.71515,970.50544 195.025,971.45596 192,971.8572 C 188.975,972.25843 185.375,973.19049 184,973.92844 C 182.625,974.6664 179.475,975.7235 177,976.27756 C 167.24177,978.46207 159.37569,980.69397 156.84571,981.99609 C 155.38585,982.74744 152.91085,983.36386 151.34571,983.36592 C 149.78057,983.36797 147.15,984.19205 145.5,985.1972 C 143.85,986.20235 140.35422,987.3182 137.73159,987.67686 C 135.10897,988.03552 130.97115,989.23644 128.53645,990.34557 C 126.10176,991.45471 123.42531,992.36218 122.58879,992.36218 C 121.13524,992.36218 118.75168,993.27419 109.22325,997.47616 C 106.87104,998.51347 103.93937,999.36218 102.70844,999.36218 C 101.47751,999.36218 98.791177,1000.2622 96.738815,1001.3622 C 94.686454,1002.4622 91.716304,1003.3622 90.138483,1003.3622 C 88.560662,1003.3622 86.125553,1004.2622 84.727129,1005.3622 C 83.328706,1006.4622 80.862764,1007.3622 79.247258,1007.3622 C 77.579967,1007.3622 75.527397,1008.2269 74.5,1009.3622 C 73.258749,1010.7337 71.403303,1011.3679 68.595012,1011.3804 C 65.722106,1011.3931 63.186731,1012.2885 60.099519,1014.3804 C 57.679255,1016.0204 54.612171,1017.3622 53.283778,1017.3622 C 51.955384,1017.3622 50.110601,1017.7499 49.184259,1018.2238 C 45.42219,1020.1485 42.145256,1020.3646 40.572328,1018.7916 z M 198.57143,938.79075 C 195.97589,936.19521 196.7528,933.60389 201.75,928.18878 C 208.55871,920.81067 216.6487,913.25479 219.79232,911.33761 C 221.28154,910.42939 223.1176,908.93837 223.87244,908.02424 C 225.88732,905.58418 227.31135,905.95856 230.86357,909.86218 C 232.61528,911.78718 234.63319,913.36218 235.3478,913.36218 C 236.5873,913.36218 246,900.17209 246,898.43517 C 246,897.97753 248.03132,895.93859 250.51405,893.90418 C 252.99677,891.86977 258.18241,886.52807 262.03769,882.03372 C 274.76497,867.19671 274.6639,867.29598 276.37441,867.95236 C 279.01967,868.96744 278.23942,873.08894 274.64089,877.1093 C 272.79338,879.17338 270.75798,882.47545 270.11778,884.44723 C 269.47757,886.41901 267.61417,889.31571 265.97688,890.88433 C 264.3396,892.45295 263,894.62234 263,895.7052 C 263,897.77901 255.0968,905.74721 248.75,910.07241 C 244.53025,912.94808 243.43117,917.36218 246.9349,917.36218 C 249.69564,917.36218 253.94648,915.62966 258,912.85235 C 259.925,911.53342 264.14225,909.76893 267.37167,908.93127 C 271.78375,907.78684 274.44536,906.2839 278.07883,902.88521 C 281.62139,899.57156 283.72792,898.36218 285.95716,898.36218 C 289.55177,898.36218 289.8724,899.98339 287,903.63505 C 285.9,905.03347 285,906.70492 285,907.34936 C 285,908.97808 290.85158,907.60984 293.81248,905.28879 C 295.08435,904.29178 297.63499,902.97769 299.48057,902.36859 C 301.32616,901.75949 303.55842,900.15887 304.44115,898.81166 C 306.49888,895.67116 308.737,895.69086 310.18195,898.86218 C 311.53398,901.82955 312.63511,901.92079 319.23288,899.61218 C 322.70139,898.39852 325.58441,896.36553 328.63974,892.97884 C 332.21067,889.02064 333.92641,887.9309 337.69639,887.22659 C 340.25451,886.74868 343.09225,885.68368 344.00249,884.85992 C 345.11274,883.85516 347.78245,883.36218 352.1134,883.36218 C 358.11986,883.36218 366.77629,881.17149 372.8151,878.12317 C 374.49515,877.27511 375.59238,877.25212 376.8151,878.03936 C 378.57538,879.17271 378.76858,881.08455 377.56667,885.47664 C 376.42927,889.63302 379.45675,889.99884 385.23993,886.40381 C 387.92401,884.7353 391.33056,883.08283 392.81004,882.73166 C 394.28952,882.38049 398.65,880.62237 402.5,878.82472 C 406.35,877.02708 411.82506,874.76218 414.66681,873.7916 C 419.54579,872.12523 420.08063,872.12126 424.26779,873.72035 C 429.53726,875.73278 431.04918,875.29755 434.49846,870.77531 C 435.93029,868.89809 437.87305,867.36218 438.8157,867.36218 C 439.75836,867.36218 442.20882,866.46218 444.26118,865.36218 C 446.8939,863.95113 449.90327,863.36218 454.48063,863.36218 C 460.40686,863.36218 461.87641,862.88605 471.45596,857.86218 C 481.79238,852.44138 485.2852,851.3966 486.5,853.36218 C 486.83992,853.91218 488.20064,854.36218 489.52383,854.36218 C 491.98111,854.36218 494,851.86297 494,848.82108 C 494,847.90116 495.8,844.8878 498,842.12471 C 500.2,839.36163 502,836.55472 502,835.88714 C 502,835.21956 504.1375,832.14232 506.75,829.04882 C 515.19098,819.05375 517.99961,815.17944 518.019,813.50404 C 518.02945,812.60102 519.38028,809.72468 521.02084,807.11218 C 523.26492,803.5386 524.61367,802.36218 526.46665,802.36218 C 530.1706,802.36218 531.63411,805.80114 529.32107,809.0695 C 526.27654,813.37149 526.14043,813.61726 522.51307,821.36218 C 518.84565,829.19264 509.6156,842.42358 505.42159,845.86218 C 503.87781,847.1279 502.43477,849.99116 501.49111,853.66097 C 499.84993,860.04335 499.48552,872.41587 500.89465,873.91218 C 501.3867,874.43468 502.08523,876.26901 502.44693,877.98847 C 503.37639,882.40697 500.87295,884.76552 496.07925,883.98761 C 491.07942,883.17625 490,881.1669 490,872.67105 C 490,866.26146 489.77537,865.36218 488.17431,865.36218 C 487.17019,865.36218 485.34115,866.43459 484.10978,867.74532 C 482.87842,869.05605 478.86248,871.58069 475.18547,873.35564 C 471.50846,875.13059 467.30557,877.20818 465.84571,877.9725 C 464.38585,878.73682 461.98465,879.36218 460.50972,879.36218 C 457.96874,879.36218 457.84565,879.13916 458.16401,875.11218 L 458.5,870.86218 L 452.59467,871.13502 C 448.27351,871.33468 445.47798,872.13946 442.17371,874.13502 C 435.91143,877.91704 430,883.73784 430,886.12209 C 430,887.21945 429.34662,888.65955 428.54804,889.32231 C 426.15257,891.31037 423.57899,890.07678 422.34706,886.35 L 421.19413,882.86218 L 414.50732,883.14126 C 409.33711,883.35705 406.08315,884.22685 400.16026,886.9763 C 395.94712,888.93207 390.25,891.53924 387.5,892.77 C 384.75,894.00076 380.7,895.84797 378.5,896.8749 C 376.23677,897.93136 371.00066,899.0053 366.44056,899.34833 C 360.33201,899.80785 357.60932,900.50418 355.19263,902.22501 C 351.51684,904.84241 347.24163,904.758 345.60086,902.03563 C 344.68132,900.50992 345.05712,899.73854 347.88252,897.35217 C 353.13179,892.91859 349.71903,888.01838 344.17781,892.03278 C 342.70502,893.09977 340.0783,894.54807 338.34066,895.25124 C 336.60302,895.9544 333.9782,897.88001 332.50772,899.53038 C 329.86495,902.49644 320.90431,907.33 318,907.35615 C 317.175,907.36358 314.96736,908.30402 313.09412,909.44601 C 310.22896,911.19273 308.76281,911.41496 303.85909,910.84583 C 299.03871,910.28636 297.2699,910.5372 293.63815,912.2953 C 291.22268,913.46461 285.94924,915.33501 281.9194,916.45173 C 274.90861,918.39452 274.42851,918.40822 270.79392,916.76925 C 267.41523,915.24567 266.80225,915.22128 265.2477,916.54857 C 261.99803,919.32319 253.76305,923.36218 251.35564,923.36218 C 250.03979,923.36218 246.72894,924.53043 243.9982,925.9583 C 239.79788,928.15459 238.27435,928.45005 234.10589,927.87674 C 230.24614,927.34589 228.59113,927.58398 226.46723,928.97561 C 223.30071,931.05039 214.8056,934.28232 210.5,935.05026 C 208.85,935.34456 206.46929,936.66013 205.20953,937.97376 C 202.54051,940.75692 200.75709,940.97641 198.57143,938.79075 z M 220.14753,924.93003 C 225.61689,923.2701 231.21909,920.51955 232.18402,919.02039 C 233.19615,917.44789 232.17213,916.36218 229.67687,916.36218 C 227.77681,916.36218 217.18402,919.7489 216.50866,920.57231 C 215.91956,921.29056 214,925.28792 214,925.79644 C 214,926.63218 215.00639,926.49034 220.14753,924.93003 z M 364.31574,893.21248 C 368.55884,890.97908 368.68618,888.36218 364.55177,888.36218 C 361.61192,888.36218 357.43836,891.64442 358.39991,893.20023 C 359.31235,894.67658 361.52546,894.68117 364.31574,893.21248 z M 477,866.36218 C 479.53172,863.83046 479.549,862.36218 477.04705,862.36218 C 474.2585,862.36218 470,864.4735 470,865.85603 C 470,868.95171 474.11307,869.24911 477,866.36218 z M 590.57143,866.79075 C 588.15326,864.37258 588.68665,861.07262 592.25,856.40595 C 594.0375,854.06498 596.17885,850.95996 597.00857,849.50591 C 597.83828,848.05186 599.30078,845.74955 600.25857,844.38967 C 601.21635,843.0298 602.01001,840.7798 602.02224,839.38967 C 602.03447,837.99955 602.92446,835.73718 604,834.36218 C 605.07554,832.98718 605.96553,831.45466 605.97776,830.95657 C 605.98999,830.45849 607.17757,828.50709 608.61682,826.62014 C 610.81966,823.73206 611.11518,822.60975 610.48485,819.52575 C 609.01378,812.32821 609.46051,810.9045 615.09926,804.81981 C 623.91575,795.30607 633.34452,786.36218 634.55754,786.36218 C 635.18041,786.36218 636.54727,785.41297 637.59501,784.25284 C 638.64276,783.0927 642.0875,780.83622 645.25,779.23844 C 648.4125,777.64066 651,775.9033 651,775.37764 C 651,774.85198 652.81191,773.39596 655.02647,772.14204 C 659.34832,769.69493 661.26087,765.78573 658.88535,764.25458 C 653.04786,760.49201 624.20187,759.65828 613.88229,762.95386 C 604.31033,766.01068 597.04975,772.66788 591.08501,783.85661 C 589.32741,787.15355 587.04634,790.75355 586.01597,791.85661 C 584.9856,792.95967 583.60002,796.11218 582.9369,798.86218 C 582.27378,801.61218 580.8917,805.26529 579.86561,806.98021 C 578.83953,808.69513 578,810.56499 578,811.13545 C 578,811.70591 575.975,815.4571 573.5,819.47143 C 569.0752,826.64824 568.11038,829.69433 569.90976,830.80641 C 571.56932,831.83207 573.61919,830.33035 576.07387,826.29064 C 577.40824,824.09463 580.1875,819.98109 582.25,817.14943 C 584.3125,814.31778 586.00028,811.51974 586.00063,810.93157 C 586.00188,808.80209 595.0482,798.36218 596.89218,798.36218 C 601.88526,798.36218 601.06598,803.47981 595.05115,809.86218 C 593.49617,811.51218 591.43488,814.43718 590.4705,816.36218 C 588.15155,820.99109 582.81151,828.08894 575.75,835.92833 C 572.5875,839.4392 570,843.11944 570,844.10663 C 570,846.16284 562.02699,857.20794 559.53667,858.6016 C 556.77629,860.14638 554.71206,858.69321 555.27384,855.60066 C 555.79853,852.7123 557.40863,847.86093 559.50155,842.86218 C 560.19239,841.21218 561.2173,836.31543 561.77912,831.9805 C 562.57602,825.83181 563.47126,823.14739 565.85068,819.77168 C 567.52821,817.39175 569.38762,813.63638 569.9827,811.42641 C 570.57779,809.21645 572.33134,804.81042 573.87949,801.63523 C 575.42763,798.46006 577.7467,793.48538 579.03297,790.58041 C 580.31923,787.67544 581.99591,784.78054 582.75891,784.14731 C 583.5219,783.51407 585.07976,781.16587 586.2208,778.92908 C 589.67334,772.16106 600.68709,761.56433 608.22504,757.75802 L 614.95007,754.36218 L 635.7429,754.36218 C 656.27416,754.36218 656.58201,754.39363 660.21481,756.86218 C 662.23831,758.23718 664.98767,759.36218 666.3245,759.36218 C 667.66134,759.36218 669.30001,760.01875 669.96601,760.82122 C 671.80664,763.03904 670.25325,768.16646 667.1631,770.07306 C 665.6984,770.97677 662.7,773.39645 660.5,775.45013 C 655.44455,780.16933 643.43281,788.36218 641.56933,788.36218 C 639.75023,788.36218 618,809.77118 618,811.56174 C 618,812.30723 618.66709,813.86957 619.48242,815.03361 C 620.83507,816.9648 620.70187,817.66265 617.96069,823.00612 C 613.88777,830.94557 610,840.62501 610,842.82597 C 610,843.81975 608.82079,845.7257 607.37953,847.06141 C 605.20948,849.07254 604.8564,850.08983 605.32537,852.97975 C 605.82703,856.07114 605.44123,856.90667 601.94584,860.29883 C 599.77563,862.40495 598,864.55857 598,865.08464 C 598,865.87547 593.84556,868.36218 592.52438,868.36218 C 592.31454,868.36218 591.43571,867.65504 590.57143,866.79075 z M 645.60144,850.76593 C 645.21287,849.75333 646.077,848.15854 647.97486,846.38567 C 650.38725,844.13216 652.25708,843.46492 657.72966,842.90473 C 671.86054,841.45825 677.98514,842.63136 676.50057,846.5001 C 675.55856,848.95494 667.14614,851.15859 656.35624,851.77696 C 647.65118,852.27584 646.12582,852.13245 645.60144,850.76593 z M 661.66667,834.69551 C 660.05227,833.08112 661.33165,829.99966 665.75,824.86052 C 679.98716,808.30081 689.7768,797.88103 693.31715,795.51895 C 695.50727,794.05773 697.8457,792.45306 698.51367,791.95303 C 700.46114,790.49518 703,792.0852 703,794.7627 C 703,796.29578 701.96152,797.98535 700.25,799.23684 C 694.02346,803.7898 674.80918,824.536 670.5068,831.3514 C 668.52793,834.48614 667.35879,835.36218 665.15412,835.36218 C 663.60269,835.36218 662.03333,835.06218 661.66667,834.69551 z M 696.06692,773.96942 C 691.71207,772.3957 690.13881,770.10478 691.93043,767.946 C 692.65338,767.0749 693.98966,766.36218 694.89994,766.36218 C 695.81022,766.36218 697.60383,765.62754 698.88575,764.72965 C 700.78079,763.40231 702.83209,763.20288 709.85826,763.66288 C 725.09629,764.66049 729.47239,767.16634 724.3183,771.94299 C 720.43377,775.54306 717.34463,776.03458 714.63019,773.48448 C 711.82585,770.84994 710.79221,770.82932 708.5,773.36218 C 706.41659,775.66432 701.43097,775.90782 696.06692,773.96942 z"
       id="path2463"
       style="fill:#000000" />
  </g>
</svg>
