<?xml version="1.0" encoding="UTF-8"?>
<svg version="1.1" xmlns="http://www.w3.org/2000/svg" width="593" height="367" >
<path fill="#231F20" d="M136.917,81.208c0.812-1.608,1.692-3.179,2.586-4.742c1.853-3.237,4.667-6.027,6.37-9.281 c2.765-5.287-1.378-9.331-5.859-11.634c-5.141-2.643-11.795-1.798-17.385-1.957c-7.345-0.208-14.688-0.602-22.008-1.235 c-5.323-0.46-10.572-1.558-15.902-1.883c-5.98-0.365-12.052,0.162-17.973,0.975C51.831,53.5,37.043,58.548,24.744,67.343 c-1.985,1.42,4.956,4.758,7.063,3.251c10.917-7.808,23.76-12.269,36.905-14.562c9.801-1.71,18.811-1.294,28.572-0.101 c11.201,1.369,22.539,1.825,33.815,2.016c2.374,0.04,5.527-0.561,7.226,1.463c2.37,2.821-0.598,5.932-2.239,8.109 c-2.629,3.489-4.83,7.383-6.797,11.277C128.237,80.881,135.674,83.669,136.917,81.208L136.917,81.208 M67.086,52.166c-2.292,24.889-4.868,49.758-7.791,74.581c-1.803,15.313-3.609,30.682-6.422,45.849 c-1.281,6.909-3.138,13.121-6.814,19.122c-2.891,4.717-2.549,11.213-2.747,16.503c-0.766,20.462-0.012,40.947-0.886,61.408 c-0.552,12.931-1.382,26.175-4.496,38.787c-0.649,2.628-1.349,6.459-3.257,8.577c-0.533,0.592,5.63,5.625,6.517,4.641 c2.824-3.135,3.497-9.27,4.264-13.138c4.14-20.861,3.998-42.664,4.013-63.826c0.007-10.879-0.014-21.771,0.393-32.644 c0.155-4.145,0.218-8.502,1.326-12.53c1.364-4.961,4.989-9.07,6.424-14.167c2.68-9.52,3.759-19.619,5.103-29.388 c1.959-14.245,3.604-28.533,5.179-42.824c2.066-18.752,3.982-37.524,5.712-56.31C73.794,54.73,67.064,52.403,67.086,52.166 L67.086,52.166 M14.249,323.679c20.792,0.723,41.661,0.556,62.443-0.304c15.753-0.651,31.526-1.805,47.095-4.363 c10.086-1.657,22.509-3.691,30.296-10.944c3.53-3.288-2.742-8.223-6.099-5.096c-7.045,6.562-19.88,7.851-28.893,9.289 c-14.998,2.395-30.279,3.247-45.438,3.85c-20.074,0.799-40.236,0.915-60.317,0.217C8.144,316.147,9.517,323.514,14.249,323.679 L14.249,323.679 M51.74,191.069c3.92-0.89,7.881-1.612,11.85-2.248c5.109-0.819,12.013-2.484,17.069-0.731 c4.615,1.6,7.729-4.815,2.818-6.518c-5.958-2.065-13.043-0.878-19.124-0.036c-4.703,0.651-9.396,1.523-14.026,2.574 C45.311,185.249,46.943,192.158,51.74,191.069L51.74,191.069 M281.634,329.112c-6.53,1.738-13,3.778-19.313,6.188c-3.866,1.476-7.605,3.204-11.133,5.368 c-0.741,0.455-1.462,1.003-2.129,1.557c-1.558,1.294-1.358,0.314,0.127,0.688c-1.127-0.283-0.896-4.645-0.919-5.41 c-0.238-7.754-0.021-15.582-0.018-23.343c0.012-27.914,0.323-55.829,0.968-83.736c0.837-36.265,2.173-72.554,5.044-108.721 c1.224-15.406,2.741-30.811,5.08-46.092c1.595-10.421,3.406-21.21,7.41-31.024c3.979-9.752,10.712-19.114,17.87-26.768 c4.556-4.872,11.251-10.692,18.458-9.678c12.174,1.713,3.682,25.468,1.46,31.458c-6.804,18.347-20.288,34.943-40.148,39.168 c-9.26,1.97-39.047,10.139-36.868-7.911c1.389-11.506,18.868-46.406,32.835-28.473c5.82,7.472,5.044,19.445,7.089,28.39 c1.475,6.449,3.469,12.741,4.411,19.306c1.566,10.92,0.742,22.171-0.127,33.108c-1.115,14.024-2.354,28.039-3.492,42.062 c-2.127,26.21-3.592,52.447-4.886,78.709c-1.015,20.603-1.951,41.221-2.044,61.852c-0.068,15.209-0.494,31.533,3.525,46.344 c0.734,2.704,7.481-1.393,6.88-3.609c-2.253-8.305-2.756-17.063-3.158-25.619c-0.561-11.935-0.422-23.904-0.159-35.846 c0.583-26.435,2.016-52.875,3.503-79.272c1.481-26.284,3.743-52.508,5.926-78.74c1.05-12.613,2.331-25.31,1.407-37.972 c-0.496-6.786-2.196-13.28-3.897-19.837c-2.253-8.683-2.403-18.05-5.129-26.534c-2.312-7.195-7.416-13.255-15.607-12.324 c-17.993,2.045-29.71,23.488-33.442,39.215c-1.155,4.867-1.196,10.091,3.166,13.282c5.227,3.825,14.004,2.479,19.912,1.863 c10.735-1.122,21.661-3.061,31.436-7.778c8.575-4.138,15.993-10.643,21.996-17.961c9.963-12.147,16.964-28.083,18.276-43.813 c0.371-4.446,0.128-9.827-3.817-12.701c-4.397-3.203-10.475-1.769-15.074,0.186c-16.833,7.154-30.161,26.082-36.987,42.362 c-4.036,9.626-5.717,20.344-7.356,30.584c-5.252,32.809-6.957,66.255-8.466,99.407c-1.574,34.567-2.324,69.172-2.677,103.772 c-0.164,15.983-0.223,31.968-0.187,47.951c0.006,2.771,0.001,5.541-0.013,8.312c-0.021,4.278-1.195,12.735,5.416,10.687 c2.715-0.842,4.59-3.22,6.995-4.59c3.201-1.824,6.733-3.084,10.187-4.333c4.724-1.708,9.545-3.21,14.4-4.503 c1.819-0.484,3.642-1.574,4.661-3.205C283.812,329.88,283.206,328.693,281.634,329.112L281.634,329.112 M249.021,173.563c-8.689-3.747-18.843-4.522-28.085-2.937c-19.049,3.27-30.913,19.934-36.634,37.205 c-6.136,18.521-7.826,38.494-8.767,57.869c-0.884,18.205-0.645,36.473,0.186,54.676c0.278,6.091,0.608,12.188,1.13,18.265 c0.296,3.451,5.751,4.693,7.445,1.713c4.53-7.972,14.72-13.224,23.446-15.632c4.897-1.353,1.067-7.819-3.072-6.678 c-10.558,2.914-21.963,8.954-27.588,18.851c2.482,0.571,4.963,1.142,7.445,1.713c-2.448-28.531-2.695-57.581-0.292-86.108 c1.602-19.002,4.178-39.327,13.879-56.103c8.519-14.73,24.039-21.943,40.658-18.897c2.007,0.368,3.987,0.886,5.931,1.505 c0.802,0.255,0.211,0.009,1.447,0.542C250.76,181.534,253.67,175.568,249.021,173.563L249.021,173.563 M270.214,328.536c14.729-30.812,23.931-65.032,30.322-98.418c2.332-12.18,3.731-24.496,5.87-36.705 c0.446-2.545,0.93-5.095,1.614-7.589c0.165-0.604,0.348-1.21,0.628-1.771c1.001-1.998-4.569-6.139-4.18-4.955 c1.19,3.623,0.847,8.134,0.955,11.887c0.189,6.549,0.178,13.105,0.157,19.657c-0.046,13.924-0.8,27.777,1.203,41.589 c4.38,30.199,7.488,61.655-1.944,91.257c-0.526,1.651,4.992,6.489,5.375,5.737c7.345-14.442,12.778-30.052,17.69-45.445 c12.199-38.229,19.098-78.19,20.36-118.296c0.068-2.169-5.471-6.186-5.494-5.444c-1.239,39.355-7.985,78.404-19.64,116.002 c-4.954,15.985-10.565,32.195-18.173,47.152c1.792,1.912,3.583,3.825,5.375,5.737c7.895-24.773,7.057-51.284,3.939-76.8 c-1.472-12.048-3.401-23.591-3.335-35.731c0.07-13.091,0.316-26.189-0.001-39.279c-0.104-4.242-0.132-8.601-0.938-12.782 c-0.329-1.706-4.569-8.74-6.416-6.619c-1.44,1.655-1.675,5.095-2.083,7.111c-1.328,6.562-2.198,13.219-3.131,19.845 c-2.862,20.325-7.256,40.431-12.788,60.19c-5.465,19.524-11.855,39.299-20.622,57.638 C263.996,324.516,269.939,329.111,270.214,328.536L270.214,328.536 M383.344,321.085c-5.693,2.557-11.254,5.446-16.653,8.571c-3.711,2.148-7.343,4.488-10.694,7.167 c-1.376,1.101-2.601,2.352-3.783,3.653c-0.485,0.535-0.885,1.129-1.271,1.736c-1.565,2.464,7.07,2.677,6.176,0.59 c-1.486-3.468,0.396-13.082,0.782-17.591c1.013-11.824,2.28-23.627,3.451-35.436c1.402-14.151,2.727-28.311,3.776-42.493 c0.856-11.552,1.527-23.14,3.414-34.582c2.215-13.427,6.53-28.412,22.537-28.371c5.41,0.014,10.904,1.564,16.031,3.124 c3.797,1.155,8.728-3.722,3.711-5.248c-13.795-4.196-30.732-6.98-41.182,5.384c-4.609,5.454-6.64,12.966-8.093,19.791 c-2.162,10.151-2.935,20.625-3.723,30.952c-2.04,26.735-4.699,53.387-7.24,80.076c-0.731,7.678-1.72,15.491-1.554,23.218 c0.105,4.894,4.95,7.692,8.684,3.525c8.004-8.937,19.072-14.437,29.978-19.335C392.476,323.669,386.962,319.459,383.344,321.085 L383.344,321.085 M409.747,173.943c-1.811,22.416-3.536,44.839-5.197,67.266c-2.082,28.106-5.146,56.516-5.179,84.724 c-0.003,2.852,0.159,5.7,0.159,8.554c-0.001,1.852-0.56,4.264,0.803,5.771c1.198,1.327,4.203,3.979,6.256,3.317 c2.123-0.687,3.784-1.626,6.102-1.865c1.277-0.132-1.416-2.542-1.571-2.664c-1.118-0.883-2.959-2.289-4.499-2.131 c-1.592,0.164-3.079,0.485-4.554,1.111c-1.06,0.45-2.158,0.531-0.879,0.967c1.563,1.056,3.125,2.112,4.687,3.168 c0.919,1.017,0.337-0.225,0.345-1.362c0.016-2.028,0.026-4.055-0.007-6.083c-0.038-2.299-0.146-4.581-0.11-6.879 c0.077-4.957,0.344-9.912,0.604-14.861c0.822-15.596,1.915-31.178,3.02-46.755c2.006-28.279,4.184-56.547,6.443-84.807 c0.097-1.209,0.193-2.418,0.291-3.627C416.61,175.926,409.86,172.536,409.747,173.943L409.747,173.943 M430.17,194.78c2.69-2.083,5.679-3.836,8.863-5.037c1.029-0.389,4.622-1.139,4.832-0.928 c1.968,1.978,0.376,8.324,0.159,10.816c-1.499,17.214-2.336,34.467-2.738,51.74c-0.779,33.429,2.084,69.843-11.868,101.286 c-1.306,2.943,4.519,8.355,5.992,5.035c4.806-10.832,7.277-23.013,9.183-34.626c4.307-26.25,2.509-53.157,3.397-79.653 c0.329-9.794,0.847-19.581,1.55-29.355c0.564-7.838,3.039-17.415,0.224-24.969c-4.418-11.855-17.752-5.844-24.762-0.416 C422.346,190.73,427.462,196.878,430.17,194.78L430.17,194.78 M438.521,284.95c7.041-14.678,13.752-29.524,20.173-44.483c4.65-10.834,9.155-21.758,12.996-32.909 c1.857-5.393,5.964-14.186,4.026-20.039c-0.644-1.947-6.428-3.465-6.604-3.996c1.857,5.612-2.365,14.5-4.12,19.659 c-3.797,11.163-8.359,22.074-12.996,32.909c-6.403,14.964-13.132,29.806-20.173,44.482 C431.359,281.541,438.337,285.333,438.521,284.95L438.521,284.95 M494.804,338.024c-6.488,0.236-13.177,1.093-19.36,3.098c-3.508,1.138-6.778,2.807-9.368,5.469 c-3.372,3.465,5.041-0.932,5.06-0.839c-0.138-0.67-0.115-1.387-0.12-2.066c-0.09-14.446,2.521-29.185,4.055-43.515 c2.025-18.911,4.175-37.874,4.924-56.888c0.647-16.443-0.649-35.483,11.62-48.364c8.525-8.95,22.689-10.1,34.272-10.178 c2.55-0.017,7.937-5.368,3.4-5.337c-18.288,0.123-37.48,4.807-47.978,21.06c-9.306,14.41-7.851,32.371-8.605,48.706 c-0.889,19.233-3.123,38.415-5.178,57.551c-1.441,13.427-4.159,27.513-3.657,41.06c0.205,5.53,5.679,1.165,7.823-0.636 c2.895-2.431,8.787-2.708,12.356-3.166c2.437-0.313,4.9-0.527,7.355-0.616C493.937,343.269,499.318,337.86,494.804,338.024 L494.804,338.024 M402.908,42.268c4.309-2.143,8.814-3.905,13.384-5.402c5.123-1.678,15.063-5.274,19.457-0.463 c1.961,2.147,1.919,6.752,2.064,9.459c0.229,4.293-0.429,8.538-1.539,12.673c-2.73,10.173-9.295,18.75-17.225,25.474 c-4.791,4.063-10.275,7.356-15.963,9.995c-2.439,1.132-6.431,2.837-9.056,1.355c-4.654-2.628-0.513-11.891,1.189-14.948 c9.737-17.484,29.971-18.111,47.693-17.104c25.032,1.422,49.699,4.919,74.853,3.961c13.739-0.523,27.738-1.931,40.959-5.864 c7.717-2.296,15.656-5.79,21.441-11.539c6.325-6.286,8.741-17.348-0.635-22.167c-9.564-4.915-22.205,1.212-29.21,7.932 C537.07,48.343,533.57,68.614,531.948,86.03c-1.349,14.469-0.978,29.072-2.095,43.572c-1.14,14.796-2.996,29.532-5.163,44.209 c-3.433,23.242-8.015,46.272-12.373,69.351c-3.326,17.616-4.036,35.744-4.888,53.613c-0.883,18.531-1.201,37.095-2.27,55.616 c-0.126,2.183-0.244,4.376-0.539,6.544c-0.267,1.954-1.341,3.963-0.702,5.927c0.873,2.679,4.694,2.363,6.785,1.802 c5.074-1.362,9.73-2.381,15.053-2.46c4.995-0.073,4.414-5.715-0.48-5.643c-5.002,0.073-9.904,0.694-14.715,2.088 c-0.65,0.188-1.293,0.399-1.938,0.603c-2.971,0.935,2.839-1.273,3.043,1.903c-0.056-0.856,0.507-1.885,0.67-2.751 c0.915-4.845,0.886-9.978,1.111-14.885c0.869-18.969,1.331-37.953,2.329-56.917c0.943-17.928,2.592-35.502,5.987-53.131 c4.759-24.704,9.343-49.434,12.642-74.382c1.874-14.175,3.299-28.415,4.135-42.689c0.839-14.33,0.413-28.667,2.594-42.897 c2.272-14.828,7.352-33.405,21.596-41.168c5.522-3.009,16.81-4.561,15.146,5.288c-0.958,5.673-6.395,9.571-11.059,12.16 c-10.514,5.837-23.076,7.57-34.843,8.804c-26.713,2.802-53.138-0.111-79.749-2.345c-18.11-1.521-38.796-2.993-54.135,8.539 c-7.392,5.557-21.661,24.653-9.799,32.749c6.096,4.161,14.356,1.27,20.354-1.513c10.534-4.887,20.071-12.477,27.072-21.732 c5.813-7.684,9.207-16.91,9.996-26.474c0.592-7.164-0.079-16.505-7.515-19.787c-7.279-3.213-16.354-0.902-23.583,1.296 c-5.513,1.676-10.983,3.852-16.146,6.419C393.77,40.075,399.401,44.012,402.908,42.268L402.908,42.268z"/>
</svg>