<?xml version="1.0" encoding="UTF-8"?>
<svg version="1.1" xmlns="http://www.w3.org/2000/svg" width="188" height="87" >
<path d="M3.285,30.957c3.302-4.054,6.543-8.157,9.734-12.299c2.154-2.797,4.282-5.621,6.25-8.553 c0.635-0.946,1.857-2.396,1.659-3.64c-0.061-0.38-0.487-0.641-0.844-0.643c-1.987-0.011-4.609,5.212-5.483,6.491 c-3.173,4.646-6.412,9.624-8.197,14.997c-1.006,3.026,0.075,6.42,3.756,5.262c2.625-0.825,9.396-6.915,8.347-10.112 c-0.12-0.368-0.441-0.649-0.844-0.643c-1.447,0.023-2.696,2.445-3.439,3.433c-2.651,3.521-5.031,7.264-7.258,11.063 c-1.349,2.302-6.778,10.88-2.927,13.399c4.909,3.212,11.829-10.888,13.156-13.235c1.195-2.115,2.338-4.357,3.926-6.216 c-0.423,0.495-0.255-1.404-0.63,0.785c-0.181,1.059-0.495,2.099-0.785,3.13c-1.521,5.4-3.617,10.695-5.89,15.817 c-0.448,1.008,0.927,1.878,1.511,0.883c3.891-6.632,8.497-14.389,14.953-18.769c5.889-3.995,0.9,7.636,0.14,9.253 c-1.142,2.43-2.411,4.813-3.765,7.133c-0.576,0.987,0.879,1.801,1.512,0.883c3.264-4.739,6.639-9.429,10.306-13.865 c0.817-0.989,1.677-1.94,2.589-2.842c0.74-0.731,1.323-1.572,0.794,0.556c-0.45,1.81-1.538,3.669-2.343,5.354 c-0.717,1.501-1.451,2.959-1.683,4.622c-0.261,1.88,0.676,3.835,2.881,3.312c6.65-1.577,12.668-9.729,16.966-14.358 c-0.413-0.413-0.825-0.825-1.238-1.238c-2.467,2.855-11.897,12.258-8.637,16.238c3.318,4.05,13.747-11.417,14.769-13.887 c0.38-0.919-1.16-1.553-1.6-0.674c-1.303,2.607-6.682,12.042-3.599,14.561c1.868,1.525,4.02-0.187,5.623-1.358 c4.775-3.494,8.831-8.095,13.124-12.142c-0.413-0.413-0.825-0.825-1.238-1.238c-2.654,3.365-11.595,15.097-5.376,18.767 c2.778,1.64,6.902-2.992,8.522-4.556c4.498-4.338,8.38-9.866,13.788-13.136c-0.398-0.399-0.798-0.799-1.197-1.197 c-1.876,3.165-3.708,6.356-5.506,9.566c-1.76,3.141-4.649,7.007-5.118,10.675c-0.12,0.938,1.198,1.087,1.631,0.441 c3.118-4.651,6.417-9.197,9.921-13.565c2.048-2.552,4.266-5.432,7.067-7.199c3.241-2.045,2.908,2.731,2.523,4.291 c-0.887,3.6-3.433,6.906-5.713,9.713c0.459,0.354,0.917,0.707,1.375,1.061c1.151-2.051,2.406-4.042,3.711-5.998 c1.136-1.7,7.268-10.033,6.804-3.825c-0.491,6.564-3.951,13.527-6.657,19.44c-0.461,1.008,0.981,1.896,1.512,0.883 c3.062-5.855,6.214-11.665,9.445-17.428c2.146-3.825,4.337-7.632,6.695-11.332c0.819-1.285,1.666-2.57,2.645-3.741 c0.911-1.089,0.085-0.019-0.022-1.014c0.12,1.109-0.438,2.381-0.785,3.401c-1.827,5.39-5.746,9.963-8.58,14.83 c-0.688,1.18-2.397,4.656,0.256,4.883c4.927,0.422,11.211-4.354,14.62-7.456c1.659-1.51,3.545-3.911,3.625-6.284 c0.023-0.706-1.015-1.237-1.494-0.619c-1.167,1.507-10.955,12.636-5.435,13.216c3.736,0.392,6.748-3.606,8.672-6.207 c0.719-0.97,6.189-8.436,4.771-10.273c-0.221-0.286-0.598-0.562-0.988-0.402c-2.598,1.06-4.466,6.949-5.43,9.25 c-1.192,2.844-4.149,9.067-0.543,11.345c4.279,2.703,12.067-6.314,14.383-8.64c3.401-3.415,6.549-7.089,9.623-10.798 c1.396-1.684,2.751-3.398,4.097-5.122c0.931-1.192,1.163-0.814,0.257-1.101c-0.174-0.428-0.349-0.856-0.522-1.285 c-1.567,3.574-4.661,6.933-6.813,10.171c-3.217,4.839-6.638,9.767-8.986,15.104c-1.069,2.43-1.119,5.814,2.367,5.653 c6.799-0.313,12.986-9.901,16.271-14.75c0.567-0.838-0.687-1.753-1.375-1.061c-3.231,3.253-11.769,13.1-6.543,17.777 c6.269,5.611,18.283-4.324,22.487-8.739c-0.413-0.413-0.825-0.825-1.238-1.238c-1.872,2.217-4.319,5.135-4.425,8.162 c-0.2,5.739,12.19-0.695,13.656-1.388c1.02-0.482,0.131-1.991-0.883-1.512c-1.806,0.854-13.327,6.64-10.26,0.548 c0.824-1.638,1.968-3.174,3.149-4.572c0.718-0.85-0.449-2.066-1.238-1.238c-3.023,3.176-16.091,14.177-20.335,8.277 c-3.049-4.237,4.117-12.071,6.867-14.839c-0.459-0.354-0.917-0.707-1.375-1.061c-0.592,0.875-14.254,17.951-16.071,13.326 c-0.974-2.476,3.242-7.786,4.405-9.705c2.373-3.914,4.925-7.722,7.484-11.515c1.396-2.068,3.358-4.22,4.366-6.518 c0.23-0.525,0.062-1.102-0.522-1.286c-0.005-0.001-0.011-0.003-0.016-0.004c-0.302-0.096-0.628,0.016-0.851,0.225 c-1.966,1.844-3.485,4.371-5.19,6.452c-3.329,4.062-6.825,7.988-10.531,11.71c-2.701,2.711-6.718,7.3-10.841,7.548 c-3.066,0.185,0.095-7.648,0.521-8.714c1.099-2.755,2.494-5.44,4.068-7.953c0.87-1.389-0.39-2.025-1.034-0.505 c-0.951,2.246-2.142,4.385-3.396,6.471c-1.479,2.46-3.419,4.789-5.934,6.229c-2.655,1.52-1.855-0.528-0.977-1.997 c1.632-2.728,3.6-5.294,5.546-7.803c-0.498-0.207-0.996-0.413-1.494-0.619c-0.145,4.318-6.278,7.665-9.389,9.387 c-1.83,1.013-3.77,1.863-5.769,2.476c-1.666,0.511-0.869-0.595-0.431-1.482c1.077-2.184,2.563-4.199,3.883-6.238 c2.443-3.775,5.638-8.288,6.039-12.925c0.088-1.014-0.436-2.599-1.774-1.836c-1.784,1.016-3.012,3.47-4.078,5.117 c-2.384,3.682-4.544,7.513-6.695,11.332c-3.242,5.756-6.385,11.573-9.446,17.428c0.504,0.294,1.008,0.589,1.512,0.883 c1.647-3.601,3.126-7.284,4.464-11.01c1.033-2.879,4.048-9.552,2.061-12.629c-3.615-5.599-12.09,9.913-13.405,12.256 c-0.471,0.839,0.73,1.854,1.375,1.061c3.244-3.996,7.511-9.514,6.433-15.053c-0.575-2.958-3.898-2.626-5.84-1.4 c-3.976,2.508-6.978,7.133-9.78,10.796c-2.562,3.349-5.013,6.794-7.361,10.297c0.544,0.147,1.087,0.294,1.631,0.441 c0.451-3.53,3.688-7.665,5.387-10.698c1.629-2.908,3.3-5.793,4.999-8.66c0.444-0.751-0.443-1.652-1.197-1.197 c-6.414,3.878-10.802,10.561-16.369,15.47c-1.065,0.94-4.107,3.743-5.134,0.877c-0.78-2.176,0.951-5.372,1.869-7.218 c1.306-2.628,3.002-5.15,4.82-7.454c0.683-0.866-0.396-2.032-1.238-1.238c-2.535,2.392-5.028,4.825-7.548,7.233 c-0.572,0.548-8.761,7.954-8.844,5.176c-0.112-3.718,2.378-8.117,3.993-11.349c-0.533-0.225-1.066-0.449-1.6-0.674 c-1.048,2.534-3.087,4.862-4.787,6.955c-1.077,1.325-2.243,2.572-3.458,3.771c-0.204,0.201-3.957,3.499-3.672,1.59 c0.688-4.603,5.78-9.573,8.711-12.964c0.729-0.846-0.463-2.072-1.238-1.238c-1.314,1.416-13.998,16.179-16.754,13.825 c-2.405-2.053,4.951-10.381,4.136-13.346c-1.235-4.49-7.059,3.448-7.772,4.33c-3.319,4.104-6.399,8.421-9.393,12.768 c0.504,0.294,1.008,0.589,1.512,0.883c1.535-2.631,11.398-18.851,4.91-19.911c-4.463-0.729-9.16,6.069-11.397,8.908 c-2.887,3.665-5.503,7.596-7.864,11.62c0.503,0.294,1.007,0.589,1.511,0.883c2.806-6.323,5.782-13.104,6.954-19.961 c0.588-3.44-1.837-2.706-3.345-0.695c-2.893,3.859-4.85,8.402-7.573,12.393c-0.574,0.841-6.536,8.684-6.699,4.187 c-0.217-5.948,5.813-13.096,8.962-17.71c0.917-1.345,1.872-2.668,2.869-3.955c0.243-0.312,0.493-0.618,0.75-0.919 c1.266-1.512-0.779,0.587-0.429-1.454c-0.363,2.112-2.505,4.255-3.875,5.712c-2.312,2.458-5.882,2.406-4.628-1.366 c2.062-6.203,6.376-12.104,10.212-17.327c0.564-0.769,1.148-1.527,1.804-2.221c-0.681-1.069-1.123-1.2-1.325-0.392 c-0.246,0.508-0.564,0.985-0.862,1.463c-1.799,2.882-3.92,5.581-5.975,8.282c-3.293,4.329-6.684,8.588-10.119,12.805 C1.342,30.585,2.572,31.832,3.285,30.957L3.285,30.957z"/>
<path d="M62.804,68.068c0.982-3.323,9.751-2.514,12.583-2.649c6.106-0.291,12.211-0.674,18.304-1.175 c3.752-0.309,7.753-0.449,11.402-1.464c0.53-0.147,1.041-0.398,1.559-0.585c0.959-0.347,0.335-0.681-0.007-0.116 c-1.942,3.209-4.972,5.997-7.486,8.738c-1.979,2.159-5.261,6.519-2.621,9.439c3.284,3.634,9.435,2.877,13.751,2.289 c9.082-1.237,17.338-6.04,26.135-8.432c5.868-1.595,15.775-4.462,21.74-1.622c1.013,0.482,1.901-1.026,0.883-1.512 c-4.532-2.157-10.651-0.935-15.369-0.207c-10.36,1.599-19.419,6.397-29.394,9.156c-4.339,1.199-9.137,1.839-13.569,0.821 c-7.228-1.658-0.376-8.617,2.065-11.309c1.023-1.127,7.14-6.447,5.835-8.675c-0.883-1.508-4.113,0.393-5.27,0.624 c-5.644,1.133-11.589,1.286-17.316,1.669c-5.628,0.377-11.265,0.689-16.903,0.866c-2.977,0.093-6.979,0.19-8.009,3.677 C60.796,68.688,62.485,69.148,62.804,68.068L62.804,68.068z"/>
</svg>