<?xml version="1.0" encoding="UTF-8" standalone="no"?>
<!-- Created with Inkscape (http://www.inkscape.org/) -->

<svg
   xmlns:dc="http://purl.org/dc/elements/1.1/"
   xmlns:cc="http://creativecommons.org/ns#"
   xmlns:rdf="http://www.w3.org/1999/02/22-rdf-syntax-ns#"
   xmlns:svg="http://www.w3.org/2000/svg"
   xmlns="http://www.w3.org/2000/svg"
   xmlns:sodipodi="http://sodipodi.sourceforge.net/DTD/sodipodi-0.dtd"
   xmlns:inkscape="http://www.inkscape.org/namespaces/inkscape"
   width="1137.4031"
   height="232.26936"
   id="svg2"
   version="1.1"
   inkscape:version="0.48.2 r9819"
   sodipodi:docname="Documento nuevo 1">
  <sodipodi:namedview
     id="base"
     pagecolor="#ffffff"
     bordercolor="#666666"
     borderopacity="1.0"
     inkscape:pageopacity="0.0"
     inkscape:pageshadow="2"
     inkscape:zoom="0.72124892"
     inkscape:cx="701.73481"
     inkscape:cy="240.73444"
     inkscape:document-units="px"
     inkscape:current-layer="layer1"
     showgrid="false"
     inkscape:window-width="1366"
     inkscape:window-height="706"
     inkscape:window-x="-8"
     inkscape:window-y="-8"
     inkscape:window-maximized="1"
     fit-margin-top="0"
     fit-margin-left="0"
     fit-margin-right="0"
     fit-margin-bottom="0" />
  <defs
     id="defs4">
    <filter
       color-interpolation-filters="sRGB"
       inkscape:menu-tooltip="Invert hue, or rotate it"
       inkscape:menu="Color"
       height="1"
       width="1"
       y="0"
       x="0"
       inkscape:label="Invert hue"
       id="filter3039">
      <feColorMatrix
         result="fbSourceGraphic"
         values="1"
         type="saturate"
         id="feColorMatrix3041" />
      <feColorMatrix
         result="fbSourceGraphic"
         values="-1 0 0 0 1 0 -1 0 0 1 0 0 -1 0 1 0 0 0 1 0 "
         in="fbSourceGraphic"
         id="feColorMatrix3043" />
      <feColorMatrix
         id="feColorMatrix3045"
         values="0 0 0 -1 0 0 0 0 -1 0 0 0 0 -1 0 0 0 0 1 0"
         in="fbSourceGraphic"
         result="fbSourceGraphicAlpha" />
      <feColorMatrix
         in="fbSourceGraphic"
         result="fbSourceGraphic"
         values="1"
         type="saturate"
         id="feColorMatrix3047" />
      <feColorMatrix
         result="fbSourceGraphic"
         values="-1 0 0 0 1 0 -1 0 0 1 0 0 -1 0 1 0 0 0 1 0 "
         in="fbSourceGraphic"
         id="feColorMatrix3049" />
      <feColorMatrix
         id="feColorMatrix3061"
         values="0 0 0 -1 0 0 0 0 -1 0 0 0 0 -1 0 0 0 0 1 0"
         in="fbSourceGraphic"
         result="fbSourceGraphicAlpha" />
      <feColorMatrix
         in="fbSourceGraphic"
         values="0"
         type="hueRotate"
         id="feColorMatrix3063" />
      <feColorMatrix
         values="1"
         type="saturate"
         id="feColorMatrix3065" />
      <feColorMatrix
         result="fbSourceGraphic"
         values="2 -1 0 0 0 0 2 -1 0 0 -1 0 2 0 0 0 0 0 1 0 "
         type="matrix"
         id="feColorMatrix3067" />
      <feColorMatrix
         id="feColorMatrix3089"
         values="0 0 0 -1 0 0 0 0 -1 0 0 0 0 -1 0 0 0 0 1 0"
         in="fbSourceGraphic"
         result="fbSourceGraphicAlpha" />
      <feColorMatrix
         result="fbSourceGraphic"
         in="fbSourceGraphic"
         values="0"
         type="saturate"
         id="feColorMatrix3091" />
      <feColorMatrix
         id="feColorMatrix3093"
         values="0 0 0 -1 0 0 0 0 -1 0 0 0 0 -1 0 0 0 0 1 0"
         in="fbSourceGraphic"
         result="fbSourceGraphicAlpha" />
      <feColorMatrix
         result="fbSourceGraphic"
         in="fbSourceGraphic"
         values="0"
         type="saturate"
         id="feColorMatrix3095" />
      <feColorMatrix
         id="feColorMatrix3253"
         values="0 0 0 -1 0 0 0 0 -1 0 0 0 0 -1 0 0 0 0 1 0"
         in="fbSourceGraphic"
         result="fbSourceGraphicAlpha" />
      <feFlood
         in="fbSourceGraphic"
         flood-color="rgb(128,128,128)"
         flood-opacity="0"
         result="result1"
         id="feFlood3255" />
      <feBlend
         result="result2"
         mode="normal"
         in2="fbSourceGraphic"
         id="feBlend3257" />
      <feComposite
         result="result3"
         operator="arithmetic"
         k2="1"
         in2="fbSourceGraphic"
         id="feComposite3259"
         k1="0"
         k3="0"
         k4="0" />
      <feComposite
         operator="in"
         in2="fbSourceGraphic"
         id="feComposite3261"
         result="fbSourceGraphic" />
      <feColorMatrix
         result="fbSourceGraphicAlpha"
         in="fbSourceGraphic"
         values="0 0 0 -1 0 0 0 0 -1 0 0 0 0 -1 0 0 0 0 1 0"
         id="feColorMatrix3315" />
      <feColorMatrix
         id="feColorMatrix3317"
         type="saturate"
         values="0"
         in="fbSourceGraphic"
         result="fbSourceGraphic" />
      <feColorMatrix
         result="fbSourceGraphicAlpha"
         in="fbSourceGraphic"
         values="0 0 0 -1 0 0 0 0 -1 0 0 0 0 -1 0 0 0 0 1 0"
         id="feColorMatrix3319" />
      <feColorMatrix
         id="feColorMatrix3321"
         type="hueRotate"
         values="0"
         in="fbSourceGraphic" />
      <feColorMatrix
         id="feColorMatrix3323"
         type="saturate"
         values="1" />
      <feColorMatrix
         id="feColorMatrix3325"
         type="matrix"
         values="2 -1 0 0 0 0 2 -1 0 0 -1 0 2 0 0 0 0 0 1 0 "
         result="fbSourceGraphic" />
      <feColorMatrix
         result="fbSourceGraphicAlpha"
         in="fbSourceGraphic"
         values="0 0 0 -1 0 0 0 0 -1 0 0 0 0 -1 0 0 0 0 1 0"
         id="feColorMatrix3327" />
      <feColorMatrix
         id="feColorMatrix3329"
         type="saturate"
         values="1"
         result="result2"
         in="fbSourceGraphic" />
      <feColorMatrix
         id="feColorMatrix3331"
         result="result1"
         values="50"
         type="hueRotate"
         in="result2" />
      <feColorMatrix
         id="feColorMatrix3333"
         values="1 -1 1 0 0 0 1 0 0 0 1 -1 1 0 0 0 0 0 1 0 "
         type="matrix" />
      <feColorMatrix
         id="feColorMatrix3335"
         values="300"
         type="hueRotate"
         result="fbSourceGraphic" />
      <feColorMatrix
         result="fbSourceGraphicAlpha"
         in="fbSourceGraphic"
         values="0 0 0 -1 0 0 0 0 -1 0 0 0 0 -1 0 0 0 0 1 0"
         id="feColorMatrix3337" />
      <feFlood
         id="feFlood3339"
         result="result1"
         flood-opacity="0"
         flood-color="rgb(128,128,128)"
         in="fbSourceGraphic" />
      <feBlend
         id="feBlend3341"
         in2="fbSourceGraphic"
         mode="normal"
         result="result2" />
      <feComposite
         id="feComposite3343"
         in2="fbSourceGraphic"
         k2="1"
         operator="arithmetic"
         result="result4"
         k1="0"
         k3="0"
         k4="0" />
      <feComposite
         id="feComposite3345"
         in2="fbSourceGraphic"
         operator="in"
         result="fbSourceGraphic" />
      <feColorMatrix
         result="fbSourceGraphicAlpha"
         in="fbSourceGraphic"
         values="0 0 0 -1 0 0 0 0 -1 0 0 0 0 -1 0 0 0 0 1 0"
         id="feColorMatrix3347" />
      <feGaussianBlur
         id="feGaussianBlur3349"
         stdDeviation="2"
         in="fbSourceGraphicAlpha"
         result="result0" />
      <feComposite
         id="feComposite3351"
         in2="result0"
         result="result3"
         operator="arithmetic"
         in="fbSourceGraphic"
         k2="1"
         k3="10"
         k1="0"
         k4="0" />
      <feComposite
         id="feComposite3353"
         in2="result3"
         operator="in"
         in="result3"
         result="fbSourceGraphic" />
      <feColorMatrix
         result="fbSourceGraphicAlpha"
         in="fbSourceGraphic"
         values="0 0 0 -1 0 0 0 0 -1 0 0 0 0 -1 0 0 0 0 1 0"
         id="feColorMatrix3387" />
      <feColorMatrix
         id="feColorMatrix3389"
         type="saturate"
         values="0"
         in="fbSourceGraphic"
         result="fbSourceGraphic" />
      <feColorMatrix
         result="fbSourceGraphicAlpha"
         in="fbSourceGraphic"
         values="0 0 0 -1 0 0 0 0 -1 0 0 0 0 -1 0 0 0 0 1 0"
         id="feColorMatrix3393" />
      <feColorMatrix
         id="feColorMatrix3395"
         type="hueRotate"
         values="0"
         in="fbSourceGraphic" />
      <feColorMatrix
         id="feColorMatrix3397"
         type="saturate"
         values="1" />
      <feColorMatrix
         id="feColorMatrix3399"
         type="matrix"
         values="2 -1 0 0 0 0 2 -1 0 0 -1 0 2 0 0 0 0 0 1 0 "
         result="fbSourceGraphic" />
      <feColorMatrix
         result="fbSourceGraphicAlpha"
         in="fbSourceGraphic"
         values="0 0 0 -1 0 0 0 0 -1 0 0 0 0 -1 0 0 0 0 1 0"
         id="feColorMatrix3401" />
      <feColorMatrix
         id="feColorMatrix3403"
         type="hueRotate"
         values="180"
         result="result1"
         in="fbSourceGraphic" />
    </filter>
    <filter
       id="filter3430"
       inkscape:label="Lightness-Contrast"
       inkscape:menu="Color"
       inkscape:menu-tooltip="Increase or decrease lightness and contrast"
       y="0"
       x="0"
       height="1"
       width="1"
       color-interpolation-filters="sRGB">
      <feColorMatrix
         id="feColorMatrix3432"
         type="hueRotate"
         values="180"
         result="fbSourceGraphic" />
      <feColorMatrix
         result="fbSourceGraphicAlpha"
         in="fbSourceGraphic"
         values="0 0 0 -1 0 0 0 0 -1 0 0 0 0 -1 0 0 0 0 1 0"
         id="feColorMatrix3446" />
      <feFlood
         id="feFlood3448"
         result="result1"
         flood-opacity="0"
         flood-color="rgb(128,128,128)"
         in="fbSourceGraphic" />
      <feBlend
         id="feBlend3450"
         in2="fbSourceGraphic"
         mode="normal"
         result="result2" />
      <feComposite
         id="feComposite3452"
         in2="fbSourceGraphic"
         k2="1"
         operator="arithmetic"
         result="result3"
         k1="0"
         k3="0"
         k4="0" />
      <feComposite
         id="feComposite3454"
         in2="fbSourceGraphic"
         operator="in" />
    </filter>
  </defs>
  <metadata
     id="metadata7">
    <rdf:RDF>
      <cc:Work
         rdf:about="">
        <dc:format>image/svg+xml</dc:format>
        <dc:type
           rdf:resource="http://purl.org/dc/dcmitype/StillImage" />
        <dc:title></dc:title>
      </cc:Work>
    </rdf:RDF>
  </metadata>
  <g
     transform="translate(1238.2186,-281.32564)"
     inkscape:label="Capa 1"
     inkscape:groupmode="layer"
     id="layer1">
    <path
       id="path4258"
       style="fill:#000000"
       d="m -1203.2186,439.66906 c 0,-0.49851 0.6794,-0.90638 1.5098,-0.90638 0.8304,0 2.2804,-0.9 3.2222,-2 0.9419,-1.1 2.0279,-2 2.4133,-2 0.3855,0 2.0508,-1.35 3.7009,-3 1.6499,-1.65 3.7837,-3 4.7415,-3 0.9579,0 4.5296,-2.88569 7.9371,-6.41266 5.2951,-5.48061 6.6682,-6.38901 9.4477,-6.25 2.0273,0.1014 3.5279,-0.40226 3.9844,-1.33734 0.4027,-0.825 1.236,-2.48041 1.8516,-3.67869 0.6157,-1.19828 0.7981,-2.36202 0.4054,-2.5861 -0.3926,-0.22408 -0.1103,-0.25454 0.6273,-0.0677 2.1651,0.54841 7.7656,-2.56423 9.1,-5.05766 0.8409,-1.57128 1.9161,-2.17845 3.3948,-1.917 1.5246,0.26958 3.7653,-1.10587 7.5836,-4.65511 2.9808,-2.77076 5.6808,-5.0381 6,-5.03853 0.3192,-4.3e-4 2.3496,-1.57543 4.512,-3.5 2.1625,-1.92457 4.7308,-3.49922 5.7074,-3.49922 0.9767,0 3.0324,-1.57499 4.5684,-3.49997 1.5359,-1.92498 3.2072,-3.49998 3.7139,-3.5 0.5066,-2e-5 1.6316,-0.60092 2.5,-1.33534 0.8683,-0.73441 3.1537,-1.94222 5.0787,-2.68402 3.2094,-1.23673 5.8685,-2.87959 20.4772,-12.65141 3.9286,-2.62786 5.9966,-3.32926 9.8157,-3.32926 2.6612,0 5.7392,-0.48198 6.8399,-1.07107 1.5273,-0.8174 2.5776,-0.69351 4.4343,0.52305 1.3381,0.87677 2.4329,2.03795 2.4329,2.58041 0,0.54246 -2.925,2.42867 -6.5,4.19158 -3.575,1.76291 -6.5,3.67121 -6.5,4.24066 -10e-5,1.85472 -6.5872,6.34713 -11.0809,7.55716 -2.4134,0.64987 -5.9701,2.40482 -7.9036,3.8999 -5.1494,3.98173 -10.5312,7.07832 -12.3019,7.07832 -0.8527,0 -3.3492,1.6875 -5.5477,3.75 -5.7793,5.42164 -9.9125,8.54223 -13.5764,10.25024 -1.77,0.82513 -6.2267,3.9412 -9.9038,6.92461 -5.1116,4.67703 -8.3908,7.38245 -20.118,17.85137 -2.2373,1.56937 -6.8625,3.67762 -10.2784,4.68501 -6.1604,1.81678 -6.2158,1.86608 -6.8487,6.08643 1.0824,6.01581 4.4895,6.30254 0.342,18.33602 -1.6944,-0.90686 -2.4693,-0.57761 -4.8977,2.08124 -1.5867,1.73718 -2.8849,3.59039 -2.8849,4.11824 0,0.52784 -1.2375,1.50564 -2.75,2.17288 -1.5125,0.66724 -3.338,2.0076 -4.0567,2.97856 -0.7187,0.97097 -1.9505,1.7654 -2.7375,1.7654 -0.7869,0 -2.5483,1.77031 -3.9141,3.93402 -1.3659,2.16371 -3.0617,4.30121 -3.7685,4.75 -0.7068,0.44879 -2.5428,2.50348 -4.08,4.56598 -1.5372,2.0625 -3.4169,3.75 -4.1771,3.75 -1.5458,0 -8.5161,8.06456 -8.5161,9.85299 0,0.63086 -0.4766,1.14701 -1.059,1.14701 -0.5825,0 -0.7809,0.45 -0.441,1 1.1359,1.83794 4.0984,1.02866 6.8861,-1.88114 1.5182,-1.58463 4.5274,-3.67797 6.6871,-4.65188 2.1598,-0.9739 3.9268,-2.36881 3.9268,-3.0998 0,-0.73099 1.2375,-1.6258 2.75,-1.98847 4.5749,-1.09697 8.0722,-3.24326 8.7465,-5.36774 0.3748,-1.18085 1.5127,-2.01097 2.7565,-2.01097 1.1651,0 4.253,-1.8 6.8621,-4 2.609,-2.2 5.042,-4 5.4066,-4 0.3645,0 1.807,-0.9 3.2054,-2 1.5465,-1.21649 4.0568,-2 6.4078,-2 3.1144,0 3.8651,-0.36466 3.8651,-1.87756 0,-2.31435 1.5907,-3.63187 5.5,-4.55535 1.65,-0.38977 5.025,-1.98229 7.5,-3.53892 2.475,-1.55663 6.525,-3.18569 9,-3.62012 5.6288,-0.98801 5.056,-0.85561 7.9435,-1.83601 1.3439,-0.45631 4.5142,-2.23419 7.0451,-3.95084 9.714,-6.58886 10.8954,-6.85544 13.8327,-3.1212 1.0816,1.375 2.3713,2.5 2.8661,2.5 0.4947,0 2.905,-3.14559 5.3561,-6.99019 3.1229,-4.89844 5.0673,-6.99313 6.4978,-7 2.0309,-0.01 2.9757,-0.83686 14.5758,-12.75981 3.3444,-3.4375 6.4862,-6.25 6.9818,-6.25 0.4956,0 0.9011,-0.66643 0.9011,-1.48095 0,-0.81452 1.0401,-1.74201 2.3114,-2.06108 2.1671,-0.54389 3.5204,-1.89371 8.731,-8.70797 1.1565,-1.5125 2.763,-2.75 3.57,-2.75 0.807,0 3.2314,-0.9 5.3876,-2 2.1562,-1.1 4.7928,-2 5.8592,-2 1.2745,0 2.6812,-1.45626 4.1053,-4.25 1.1916,-2.3375 3.8742,-5.86139 5.9613,-7.83087 2.0871,-1.96948 3.9702,-3.99448 4.1845,-4.5 0.2143,-0.50552 3.4662,-2.49413 7.2265,-4.41913 3.7602,-1.925 7.3602,-4.18282 8,-5.01738 1.7446,-2.27581 5.8275,-4.65196 10.2915,-5.9894 2.2534,-0.67514 4.3937,-2.09179 4.9277,-3.26159 1.0198,-2.23406 1.8437,-2.78039 7.944,-5.26735 2.2,-0.89689 4.675,-2.04654 5.5,-2.55476 0.825,-0.50822 2.625,-1.45859 4,-2.11194 1.375,-0.65335 3.73697,-2.47728 5.24883,-4.05318 32.20358,-28.88009 70.35114,-19.02886 10.44553,0.42112 -0.4901,0.58525 -4.49499,2.91043 -7.22633,4.99556 -42.24063,21.91034 -51.19443,36.09742 -51.78543,35.94463 -0.2938,1.12349 -1.3895,2.26638 -2.4349,2.53976 -1.0454,0.27337 -2.7208,1.88533 -3.7231,3.58212 l -1.8224,3.08507 4.5861,-0.62859 c 2.5998,-0.35634 6.8872,-2.08502 9.8989,-3.9912 4.4938,-2.84422 6.8478,-3.54725 15.2702,-4.5604 5.4765,-0.65878 10.65149,-1.8201 11.49995,-2.5807 0.84846,-0.7606 4.46765,-2.13601 8.04265,-3.05648 3.575,-0.92046 10.325,-3.00121 15,-4.62389 4.675,-1.62267 10.3653,-3.09331 12.64511,-3.26808 2.27981,-0.17477 5.49928,-1.28201 7.15437,-2.46054 1.6551,-1.17853 3.58579,-2.14278 4.29044,-2.14278 0.70465,0 2.21558,-0.87782 3.35762,-1.95071 1.94438,-1.82666 11.92646,-5.04929 15.64011,-5.04929 0.91711,0 2.20365,-0.64607 2.859,-1.43572 0.65535,-0.78965 2.53927,-1.73173 4.1865,-2.09352 1.74473,-0.38321 3.43477,-1.62309 4.04855,-2.9702 0.57947,-1.27181 2.01315,-2.53412 3.18595,-2.80514 3.20178,-0.73989 8.71508,-2.7428 12.51196,-4.54543 3.55557,-1.68807 10.4433,-2.16042 11.79484,-0.80887 1.1452,1.1452 -3.60752,4.50495 -7.42445,5.24842 -1.80257,0.35111 -3.25,1.25152 -3.25,2.02175 0,1.97248 5.47183,1.77402 7.51854,-0.27269 1.10223,-1.10223 3.56635,-1.72018 7.32143,-1.83607 7.96221,-0.24572 8.05289,-0.27476 7.88338,-2.52501 -0.11497,-1.52627 -1.08112,-2.171 -3.93785,-2.62781 -4.15046,-0.66369 -5.18408,-2.34971 -1.44049,-2.34971 2.66249,0 5.04052,-2.25363 6.54018,-6.19804 0.74973,-1.97193 1.9564,-2.86922 4.50034,-3.34646 1.91176,-0.35865 3.70895,-1.25933 3.99375,-2.00151 0.69771,-1.81819 5.2447,-4.02775 10.10231,-4.9091 2.18988,-0.39733 4.88988,-1.22936 6,-1.84896 2.1098,-1.17757 15.84269,-6.15921 21.01841,-7.6245 1.65,-0.46712 6.825,-2.64464 11.5,-4.83892 4.675,-2.19428 10.3547,-4.21868 12.62155,-4.49867 2.26685,-0.27999 7.21685,-2.01078 11,-3.84621 10.96954,-5.32197 21.37845,-6.76952 21.37845,-2.97307 0,2.49234 -2.23238,4.13677 -12.25878,9.03013 -4.81733,2.35109 -8.99883,4.66311 -9.29222,5.13783 -0.2934,0.47472 -2.42694,1.34516 -4.74122,1.93431 -9.37691,2.38708 -20.10692,6.13029 -22.58147,7.87764 -4.64922,3.28295 -16.64277,8.9228 -20.69312,9.73074 -2.16326,0.43151 -4.27069,0.86112 -4.68319,0.95468 -0.4125,0.0936 -1.21114,0.22636 -1.77475,0.29511 -0.56361,0.0688 -1.45248,1.25 -1.97525,2.625 -0.64791,1.70414 -1.71131,2.5 -3.34039,2.5 -1.31444,0 -3.57529,0.93243 -5.02411,2.07207 -2.86244,2.2516 -4.42761,1.58162 -6.0087,-2.57207 -0.7613,-2 -0.7613,-2 -1.85859,0 -0.6035,1.1 -1.58574,2.33061 -2.18275,2.73469 -0.597,0.40407 0.26454,0.74847 1.91454,0.76531 2.32312,0.0237 2.66156,0.2528 1.5,1.01531 -1.33333,0.87528 -1.33333,1.0941 0,1.96938 1.33333,0.87527 1.33333,0.98976 0,1.03041 -1.14563,0.0349 -1.06904,0.29633 0.32421,1.10653 1.38637,0.8062 2.99097,0.55888 6.68538,-1.03041 2.67365,-1.15017 6.88269,-2.09122 9.35343,-2.09122 5.85289,0 18.44176,-1.65204 26.63698,-3.49558 12.82006,-2.8839 23.13699,-4.50468 28.77031,-4.51977 3.15133,-0.008 9.10469,-0.84172 13.22969,-1.85172 8.06625,-1.975 19.415,-1.89003 19.415,0.27348 0,0.8469 -5.58325,1.64813 -9.665,2.12047 -4.24449,0.49117 -7.10971,1.4455 -8.92922,2.97407 -2.03553,1.71005 -4.55816,2.42486 -10.5,2.97529 -4.30143,0.39846 -9.62078,1.34776 -11.82078,2.10956 -2.2,0.7618 -6.80339,1.39164 -10.22976,1.39965 -3.42637,0.008 -7.92637,0.63202 -10,1.38671 -5.06346,1.84283 -12.58431,3.464 -19.27024,4.15383 -3.025,0.31211 -9.55,1.42581 -14.5,2.47489 -4.95,1.04908 -11.475,2.35415 -14.5,2.90014 -5.15503,0.93047 -9.86378,1.98382 -24.5,5.48068 -3.3,0.78843 -9.825,2.87451 -14.5,4.63574 -13.63499,5.13674 -22.08036,7.98256 -23.68941,7.98256 -0.82381,0 -1.73318,0.9 -2.02084,2 -0.52744,2.01694 -3.28975,2.85661 -3.28975,1 0,-1.87067 -1.57368,-1.0095 -1.72065,0.9416 -0.20731,2.75208 4.11361,2.95892 15.72065,0.75256 5.225,-0.99321 13.1,-2.38675 17.5,-3.09676 4.4,-0.71 9.26679,-1.80987 10.8151,-2.44416 1.5483,-0.63428 4.47966,-1.15324 6.51412,-1.15324 2.03446,0 6.16131,-0.9 9.17078,-2 3.00947,-1.1 7.50312,-2.00988 9.98588,-2.02196 2.48277,-0.0121 6.47576,-0.91208 8.87332,-2 2.46461,-1.11834 6.51342,-1.97804 9.31575,-1.97804 2.72609,0 5.93945,-0.55106 7.14079,-1.22457 1.20134,-0.67351 5.33426,-1.50868 9.18426,-1.85593 3.85,-0.34725 11.275,-1.62219 16.5,-2.8332 9.24919,-2.1437 23.41915,-4.62858 43.24049,-7.58276 5.35727,-0.79845 13.23227,-2.42872 17.5,-3.62282 4.26773,-1.19409 10.90951,-2.35444 14.75951,-2.57855 3.85,-0.22411 8.35,-1.00303 10,-1.73094 1.65,-0.7279 6.18323,-1.59998 10.07384,-1.93795 3.89061,-0.33798 8.39061,-1.05998 10,-1.60446 3.334,-1.12794 13.41902,-2.59429 27.80628,-4.043 5.43406,-0.54717 11.95906,-1.71335 14.5,-2.59151 2.54093,-0.87816 10.01988,-2.01559 16.61988,-2.52762 7.76244,-0.60222 13.62561,-1.61343 16.60343,-2.86358 20.6019,-2.31031 51.13732,-2.65196 69.59586,-8.33884 3.99753,-0.82437 13.72492,-2.56685 21.30071,-3.81561 7.36898,-1.21467 16,-3.76065 16,-4.71969 0,-0.66937 3.89388,-2.48172 7.75,-3.60712 1.2375,-0.36117 2.25,-1.07352 2.25,-1.58301 0,-1.57424 35.57599,-27.94765 37.09068,-27.36641 2.29481,0.8806 -25.86619,24.25941 -28.84068,25.80643 -1.5125,0.78664 -3.70528,2.26385 -4.87284,3.28268 -1.87196,1.63351 -1.94645,2.0172 -0.63033,3.24663 1.13373,1.05907 4.39339,1.34418 13.56038,1.18611 6.63733,-0.11446 12.47846,-0.46186 12.98029,-0.77201 3.66332,-2.26405 60.22196,-6.83951 64.48941,-5.21703 2.29398,0.87217 13.91441,-0.38206 19.52108,-2.10697 1.68236,-0.51758 152.82829,-4.67291 154.75357,-4.06002 1.76111,0.56063 156.51712,10.56036 157.27235,10.13645 5.723267,-3.21248 -303.98245,-12.11539 -312.80885,-2.41428 -3.26522,3.58881 -13.34202,5.05824 -31.51506,6.30615 -8.525,0.5854 -17.975,1.30638 -21,1.60218 -3.025,0.29579 -9.775,0.75997 -15,1.0315 -44.78762,2.32751 -51.88008,3.35144 -60.63176,8.75328 -3.24923,2.00554 -6.53033,3.64643 -7.29134,3.64643 -1.47686,0 -7.39103,5.13789 -21.08166,18.31453 -18.16507,17.4831 -29.68137,27.81322 -34.0593,30.5512 -2.51024,1.56991 -6.78524,5.40087 -9.5,8.51323 -2.71477,3.11236 -7.08101,7.05211 -9.70276,8.75498 -5.23135,3.39786 -16.46988,15.10393 -17.78443,18.52429 -0.45621,1.18703 -2.22763,2.98415 -3.9365,3.99361 -2.16352,1.27802 -4.19174,4.11485 -6.679,9.34176 -3.76069,7.90301 -6.82538,12.0064 -8.96716,12.0064 -0.70691,0 -3.60625,1.31936 -5.25907,3.8951 -12.15547,18.943 317.63715,-130.96466 295.25068,-117.4683 -2.73037,1.64609 -300.34196,129.20607 -302.67577,130.02197 -2.11324,0.73878 -3.48709,0.60968 -5.49293,-0.51616 -5.0787,-2.85061 -4.2588,-7.25616 2.86561,-15.39762 4.47823,-5.11752 5.03685,-6.23392 4.51398,-9.02105 -0.55872,-2.97826 -0.2934,-3.34627 4.16735,-5.78021 2.62023,-1.42969 7.73275,-5.68264 11.36114,-9.45099 3.6284,-3.76835 9.23586,-9.08606 12.46103,-11.81714 8.08649,-6.84765 20.58474,-18.54929 22.39289,-20.9656 2.45202,-3.27676 7.34504,-7.53784 10.549,-9.18657 3.05598,-1.57259 5.89731,-4.05568 14.46353,-12.64 2.64902,-2.65461 6.16425,-5.80461 7.81162,-7 10.5402,-7.64831 30.22485,-25.64714 30.22485,-27.63634 0,-1.02439 -6.161,-2.00437 -7.5,-1.19298 -0.55,0.33329 -1.7875,0.47642 -2.75,0.31807 -0.9625,-0.15834 -1.75,0.0922 -1.75,0.55685 0,1.1661 -4.84852,1.46512 -6.72537,0.41478 -0.93391,-0.52264 -3.34619,-0.28884 -6.15522,0.59657 -2.54067,0.80082 -7.93542,1.58662 -11.98833,1.74623 -4.76299,0.18756 -7.65801,0.75794 -8.18639,1.61289 -0.57981,0.93814 -4.97897,1.53173 -15.13108,2.04167 -16.78937,0.84333 -27.27084,2.37525 -30.17648,4.41044 -1.14518,0.80212 -4.34451,1.49124 -7.10964,1.53139 -2.76512,0.0401 -7.50249,0.48004 -10.52749,0.97754 -6.42369,1.05643 -21.95572,3.00572 -27,3.38852 -3.29091,0.24974 -6.07481,0.83058 -17,3.54695 -2.475,0.61537 -8.55,1.51345 -13.5,1.99574 -4.95,0.48228 -10.35,1.42999 -12,2.10602 -1.65,0.67603 -7.05,1.79938 -12,2.49635 -4.95,0.69696 -11.025,1.70468 -13.5,2.23937 -4.17929,0.90287 -20.53532,3.6814 -36.1308,6.13782 -3.64694,0.57442 -11.29694,2.39033 -17,4.03535 -5.70306,1.64502 -11.9442,2.99316 -13.8692,2.99587 -5.0568,0.007 -20.41113,2.21882 -21,3.02494 -0.60621,0.82986 -4.01204,1.66113 -14.36709,3.50661 -4.3269,0.77115 -10.1769,2.04511 -13,2.83104 -2.8231,0.78592 -7.64027,1.69705 -10.70483,2.02472 -3.06455,0.32767 -6.88955,1.24608 -8.5,2.0409 -1.61044,0.79482 -6.75308,1.67012 -11.42808,1.94512 -4.675,0.27499 -10.17305,1.20517 -12.21788,2.06706 -2.04484,0.8619 -5.19484,1.57363 -7,1.58163 -1.80517,0.008 -5.08212,0.63749 -7.28212,1.39885 -5.48586,1.8985 -22.80515,5.69878 -29.51466,6.47624 -3.06066,0.35466 -6.84311,1.56906 -8.5,2.72903 -1.64194,1.14952 -5.68534,2.91293 -8.98534,3.9187 -3.3,1.00577 -7.00465,2.46793 -8.23255,3.24923 -2.03125,1.29247 -2.52044,1.17831 -5.42542,-1.26607 -3.69302,-3.10747 -5.16995,-2.93435 -17.34203,2.03278 -1.65,0.67332 -3.9719,1.51671 -5.1597,1.87418 -1.1878,0.35748 -2.7339,1.34183 -3.4357,2.18745 -1.9144,2.30674 0.5005,3.37545 7.3193,3.23919 4.6532,-0.093 5.8349,-0.46415 6.3174,-1.98425 0.7925,-2.49708 3.4587,-2.39677 3.4587,0.13012 0,1.1 -0.4992,2 -1.1094,2 -1.019,0 -0.9119,4.20949 0.1994,7.83924 0.671,2.19188 -4.6689,5.49758 -9.3236,5.77178 -6.0283,0.35512 -9.6066,1.9441 -10.9328,4.85491 -0.9041,1.98417 -2.1156,2.63525 -5.8175,3.12633 -6.1943,0.8217 -16.1589,6.17613 -17.7617,9.54422 -0.976,2.05081 -2.2259,2.78212 -5.6268,3.29211 -2.8884,0.43315 -5.2319,1.57455 -6.906,3.36352 -3.7646,4.023 -7.6068,7.09906 -11.1054,8.89093 -1.7139,0.87781 -3.3412,1.89628 -3.6162,2.26327 -0.275,0.36698 -2.075,1.29769 -4,2.06823 -1.925,0.77055 -4.0483,1.93615 -4.7184,2.59023 -0.6702,0.65407 -3.6559,1.95588 -6.6349,2.89292 -3.6189,1.13826 -5.8438,2.5021 -6.704,4.10938 -1.1277,2.10707 -9.5472,8.39293 -11.2419,8.39293 -0.3432,0 -2.6855,2.00351 -5.2051,4.45225 -2.7831,2.7049 -5.158,4.23085 -6.0511,3.88812 -0.8085,-0.31026 -2.0268,-0.12877 -2.7073,0.40332 -3.2514,2.54228 -5.7436,2.0935 -9.7497,-1.75565 -2.2511,-2.16282 -4.0326,-4.84521 -4.091,-6.15964 -0.074,-1.65876 -0.3898,-1.24991 -1.0993,1.4216 -0.6783,2.55403 -1.5631,3.75 -2.7742,3.75 -0.978,0 -2.3384,0.675 -3.0231,1.5 -0.6847,0.825 -1.6719,1.5 -2.1939,1.5 -5.5575,4.67574 -28.2008,20.34711 -33.8061,14.54064 -2.567,0.70797 -3.8357,-0.9004 -4.3685,-5.53792 -0.4255,-3.70395 -0.085,-5.03056 1.9901,-7.75103 1.7257,-2.26254 2.2954,-3.93774 1.8338,-5.39219 -0.4919,-1.54972 -0.3347,-1.90292 0.592,-1.33022 0.8209,0.50738 1.0118,0.37553 0.5464,-0.37748 -0.7578,-1.22624 -3.8999,-0.0836 -5.0971,1.85358 -0.3381,0.54704 -1.9269,0.99462 -3.5307,0.99462 -2.4856,0 -3.2186,0.66415 -4.966,4.5 -1.1275,2.475 -2.6586,4.5 -3.4026,4.5 -0.7439,0 -1.9427,0.71119 -2.6641,1.58041 -0.8014,0.96555 -2.269,1.39742 -3.7722,1.11005 -1.7329,-0.33125 -3.137,0.25953 -4.7478,1.99759 -1.341,1.44693 -3.6579,2.595 -5.6003,2.77503 -3.9301,0.36425 -6.813,1.44147 -6.813,2.54572 0,0.43716 -2.8125,1.11224 -6.25,1.5002 -3.4375,0.38795 -6.7902,1.82014 -8,2.25317 -1.5504,0.30408 -2.4197,-0.3973 -3.25,-1.76217 -0.7274,-0.92593 -1.5,-1.3798 -1.5,-6.41821 0,-6.91683 0.6219,-9.58179 2.236,-9.58179 12.1973,-13.97489 19.7055,-23.24501 31.764,-36.57279 2.4796,-1.08514 2.4703,-1.09972 -1.1398,-1.78529 -4.0519,-0.76945 -4.7719,-2.17902 -4.9255,-9.64192 2.1979,-3.3027 2.209,-5.05383 7.0653,-8.09358 z m 45.6378,52.92895 c 5.474,-4.76849 12.5121,-9.97402 17.0555,-14.53996 1.2889,-1.3375 2.8353,-2.02977 3.75,-1.67875 1.7702,-0.3052 4.1876,-1.91327 5.2061,-3.60027 0.9808,-1.6604 2.5139,-3.2508 3.4069,-3.5342 0.8929,-0.28341 2.2216,-1.63283 2.9526,-2.99872 0.731,-1.36589 1.6673,-2.48343 2.0806,-2.48343 0.4134,0 1.047,-1.34484 1.408,-2.98853 0.361,-1.6437 1.0717,-3.24525 1.5794,-3.55902 0.5077,-0.31377 0.9231,-1.28867 0.9231,-2.16645 0,-1.43562 -0.1758,-1.44239 -1.75,-0.0674 -0.9625,0.8407 -3.4369,2.07015 -5.4987,2.73209 -12.3705,6.47818 -22.2652,16.0823 -25.5035,19.86915 -1.2387,0.17591 -3.7137,2.14302 -5.5,4.37135 -1.7863,2.22833 -4.9353,5.66588 -6.9978,7.63902 -4.5253,4.32918 -5.1115,7.72833 -1.1619,6.73705 1.4234,-0.35726 5.0458,-2.03662 8.0497,-3.73193 z m -16.7601,-8.20511 2.2262,-2.36977 -2.2255,-0.58199 c -2.94,-0.76883 -3.8784,-0.0719 -3.8784,2.88056 0,3.06783 1.0445,3.08701 3.8777,0.0712 z m 56.4911,-3.26905 c 1.8902,-0.90136 3.9208,-2.70136 4.5125,-4 0.6052,-1.32819 1.945,-2.36117 3.0625,-2.36117 1.0926,0 3.4648,-1.25186 5.2714,-2.7819 6.084,-5.15253 10.6416,-8.2181 12.2181,-8.2181 0.8617,0 1.5667,-0.43844 1.5667,-0.97432 0,-0.53588 1.3695,-1.68252 3.0433,-2.5481 1.6739,-0.86558 3.5461,-2.67713 4.1606,-4.02568 0.6909,-1.51633 1.953,-2.4519 3.3077,-2.4519 2.7502,0 11.1631,-4.38708 14.5431,-7.5838 1.4051,-1.32891 3.0375,-2.4162 3.6276,-2.4162 0.59,0 1.6225,-0.66229 2.2943,-1.47176 0.983,-1.18452 0.7984,-2.15624 -0.9461,-4.97882 -2.692,-4.35584 -2.3784,-8.67744 0.7286,-10.04048 2.3695,-1.03948 2.6725,-1.67507 3.6989,-7.75894 0.7077,-4.19513 0.5526,-4.07666 3.7473,-2.86203 1.6223,0.61677 5.078,0.20011 11.3151,-1.36426 10.2848,-2.5796 11.8511,-4.42092 5.534,-6.50575 -4.9546,-1.63518 -7.7755,-4.43773 -6.29,-6.2492 1.5738,-1.91917 1.897,-6.02779 0.5113,-6.50057 -1.4272,-0.48695 -15.2713,13.9982 -15.2745,15.98181 -7e-4,0.4125 -1.0388,0.75 -2.3069,0.75 -2.5362,0 -8.1157,3.72898 -10.3479,6.91585 -1.2364,1.76517 -1.2265,2.4153 0.075,4.93189 1.4289,2.7633 1.2322,4.15226 -0.588,4.15226 -0.4583,0 -0.8333,-0.9 -0.8333,-2 0,-2.32098 -1.7142,-2.53169 -4.3501,-0.53473 -1.9819,1.50146 -1.4589,3.53473 0.9091,3.53473 1.951,0 1.8392,3.90997 -0.1334,4.66692 -1.0834,0.41575 -1.3893,1.34149 -0.9809,2.96862 0.3264,1.30045 0.1576,2.36446 -0.375,2.36446 -0.5326,0 -2.2653,1.38773 -3.8504,3.08385 l -2.8821,3.08386 -3.8222,-1.59698 c -2.1021,-0.87834 -3.8655,-1.47858 -3.9185,-1.33386 -0.053,0.14472 -0.659,1.26952 -1.3465,2.49956 -0.6875,1.23004 -1.2628,2.80504 -1.2784,3.5 -0.05,2.24534 -7.5057,9.76357 -9.6818,9.76357 -3.1476,0 -18.3307,15.53993 -20.4147,20.89449 -1.3249,3.40436 0.4414,3.87594 5.4937,1.46668 z m 84.6312,-52.82965 c 5.4373,-2.90368 6.044,-3.16202 8,-3.40652 0.55,-0.0687 1,-1.7 1,-3.625 0,-3.17984 -0.2602,-3.5 -2.845,-3.5 -2.9605,0 -13.2407,6.09491 -16.5031,9.78432 -1.5413,1.74306 -1.6285,2.32511 -0.5252,3.50623 1.5737,1.68468 3.4381,1.21161 10.8733,-2.75903 z m 22.0818,-30.53152 c 1.7187,0 0.9265,-1.66628 -0.8318,-1.74943 -2.8166,-0.13322 -4.4279,0.65261 -3.7122,1.81054 0.3655,0.59138 1.3308,0.81956 2.1451,0.50706 0.8144,-0.31249 1.8939,-0.56817 2.3989,-0.56817 z m 46.51298,-9.09893 c 1.52867,-1.59559 3.6555,-2.90107 4.72629,-2.90107 2.93615,0 9.67893,-2.20021 9.67893,-3.15829 0,-0.46294 0.675,-0.84171 1.5,-0.84171 2.22834,0 1.81646,-2.76479 -0.52247,-3.50713 -2.52836,-0.80247 -7.98984,0.30761 -9.97753,2.028 -0.825,0.71406 -3.975,2.08923 -7,3.05593 -3.025,0.9667 -6.77203,2.80739 -8.32673,4.09042 -1.55469,1.28303 -3.76719,2.33278 -4.91666,2.33278 -3.4169,0 -1.05144,1.3238 3.51196,1.96543 5.97079,0.83952 8.15125,0.24958 11.32621,-3.06436 z m 88.15522,-44.5904 c -0.9625,-0.25152 -2.5375,-0.25152 -3.5,0 -0.9625,0.25153 -0.175,0.45733 1.75,0.45733 1.925,0 2.7125,-0.2058 1.75,-0.45733 z m -155.9571,136.01298 c -0.9261,-1.02337 -1.5722,-2.62144 -1.4358,-3.55126 0.273,-1.85948 7.154,-7.44909 12.6429,-10.27004 15.3455,-8.22152 33.56926,-17.35037 44.5,-25.49034 6.57872,-5.65263 19.02062,-9.85697 21.08462,-18.68509 0.45354,-2.26772 1.27441,-3.61531 -0.8415,-5.73154 -4.32122,-1.4769 -69.90332,6.22891 -47.93372,-0.76245 13.65171,-0.56966 42.71608,-5.94085 53.05701,-2.712 4.9523,1.6344 6.58814,3.58217 6.58814,7.84439 0,2.97548 -0.81314,4.47493 -4.38091,8.07853 -2.40949,2.4337 -5.32426,4.8932 -6.47727,5.46556 -2.54463,1.26317 -3.46648,5.49059 -1.19731,5.49059 0.95642,0 1.32047,0.56732 0.96257,1.5 -0.35888,0.93522 0.007,1.5 0.97236,1.5 2.34322,0 3.03961,1.92062 0.97939,2.70111 -0.99736,0.37784 -2.35912,1.22576 -3.02613,1.88426 -0.66702,0.6585 -3.59202,1.75002 -6.5,2.42559 -3.16276,0.73476 -6.49269,2.35789 -8.28725,4.0395 -1.65,1.54616 -4.35,3.11668 -6,3.49005 -12.42921,4.52676 -31.2889,12.98543 -41.9781,20.55112 -5.3867,3.86846 -10.4453,4.75548 -12.729,2.23202 z m 123.83029,-6.77468 c -1.25588,-1.15034 -2.51177,-2.30069 -3.76765,-3.45103 0.16116,-2.93299 0.32233,-5.86598 0.48349,-8.79897 0.26592,-4.83943 0.77787,-10.37397 1.13767,-12.29897 0.44288,-2.36956 0.18673,-4.12937 -0.79309,-5.44863 -1.27595,-1.71798 -2.55616,-1.92501 -10.81544,-1.74907 -5.15249,0.10976 -31.88188,4.57892 -32.21657,2.69756 l -0.26316,-1.47929 19.72339,-4.21685 c 10.18216,-2.17694 13.18997,-5.80372 18.22805,-5.80372 7.95787,0 11.23396,1.47141 12.95752,5.8197 2.83922,7.16295 2.95447,9.73715 0.6613,14.77096 -2.49734,5.48199 -2.14479,10.98849 0.86102,13.44828 3.41279,2.79284 15.09781,1.0142 25.68028,-3.90894 4.95,-2.30282 9.68977,-4.56691 10.53282,-5.03132 0.84306,-0.4644 3.09306,-1.1702 5,-1.56843 4.1314,-0.86277 8.67678,-3.36507 12.82268,-7.05909 1.66559,-1.48404 4.06698,-3.24235 5.33642,-3.90735 5.28907,-2.77069 7.35123,-4.15304 8.54039,-5.72498 0.69116,-0.91364 3.17164,-1.97514 5.51218,-2.35887 2.34053,-0.38373 4.93051,-1.24163 5.75551,-1.90644 0.825,-0.66481 4.67705,-3.09082 8.56011,-5.39113 7.87274,-4.66379 13.0021,-5.42861 15.7849,-2.35365 1.82516,2.01678 2.2251,6.70088 0.65499,7.67126 -1.88435,1.16459 -1.05069,6.10375 1.42237,8.42707 2.41538,2.26914 13.87619,6.61454 20.07763,5.41699 7.0243,-1.35645 123.82211,-30.64728 113.12931,-24.28221 -2.96243,1.76344 -4.8846,2.50838 -3.88544,2.72703 5.38715,1.17889 -59.78068,19.16075 -107.31487,28.26936 -4.5975,0.88098 -11.12121,1.15228 -14.26321,-0.47251 -1.5042,-0.77785 -4.33929,-1.71525 -6.30021,-2.08312 -6.12525,-1.14911 -11.86558,-8.36298 -11.86558,-14.91147 0,-3.66793 -1.66786,-4.04841 -5.0972,-1.16281 -1.68094,1.41442 -3.87182,2.57167 -4.86863,2.57167 -2.06041,0 -13.26858,6.3846 -17.03417,9.70331 -2.80574,2.47277 -10.37099,6.6608 -14.06685,7.78724 -1.33823,0.40787 -3.78315,1.72669 -5.43315,2.93071 -5.99355,4.37354 -12.66926,7.72777 -14.20626,7.13796 -1.6629,-0.63811 -7.29374,1.41685 -7.29374,2.66184 0,2.83512 -14.27478,6.77537 -24.55458,6.77776 -4.36934,10e-4 -5.56536,-0.46667 -8.82223,-3.44985 z m -33.35236,-33.15314 c 0,0 1.43785,1.20062 0,0 z M -765.87846,337.2067 c -0.33764,-0.87988 -8.80548,-0.82386 -7.7236,-1.83178 19.51186,-5.52377 31.8279,-3.448 60.86353,-8.72574 0,-1.12942 173.65588,-12.96822 176.5253,-12.54838 -67.15,4.16355 -154.02928,15.58487 -229.66523,23.1059 z m 391.65614,-9.16972 c 8.39018,-8.00308 -61.66147,-16.38863 -48.7329,-17.56138 6.22089,-2.38469 49.03925,6.51283 50.44313,9.53708 2.98,6.41955 3.21218,7.56723 1.65196,8.16594 -2.39948,0.92076 -7.50725,3.81218 -3.36219,-0.14164 z"
       inkscape:connector-curvature="0"
       sodipodi:nodetypes="cscscsssccccsssscscscssssssscssscsccscccsssscssssscccsssscssssssssscsscsssscssscssscsssssccccsscssssssssssssssssssssssssssssssssssscsssccssssssssscsssscsssssssssssssssssssssssssssssssssssssccsssssssssssssssssssssssssssssssssssssssssssssssscsscssssssssscsssssssssssssssssscsscscscssscsccsssssccsssccccccccsssccssssccsccscccccccssssssccssscccsscccssssccsssccsccsssscsscsssscsscccsscscccscsssssssccssssssssssssssssccccccccsssssssssscccscssssscsssssscsssssssssssssssssssssssssscccccccscsss" />
  </g>
</svg>
