<?xml version="1.0" encoding="UTF-8"?>
<svg version="1.0" xmlns="http://www.w3.org/2000/svg" width="449" height="76" >
<path fill="#231F20" d="M27.544,14.352c-4.277,1.877-10.97,4.362-13.229,8.763c-2.285,4.452,5.815,2.76,7.284,2.292 c15.497-4.935,29.93-13.081,45.194-18.7c3.283-1.208,6.613-2.302,10.012-3.133c1.305-0.319,2.619-0.541,3.957-0.652 c0.499-0.042,0.984-0.028,1.481,0.017c1.248,0.132,2.479,0.353,3.695,0.662c1.32-0.644,1.376-0.791,0.167-0.439 c-2.565,0.399-4.6-1.096-7.061-1.429c-3.274-0.442-6.714-0.113-9.982,0.197c-9.315,0.883-18.579,3.112-27.271,6.559 c-6.775,2.686-17.39,8.1-18.583,16.194c-1.085,7.367,12.363,7.812,16.643,7.874c1.056,0.015,16.786-0.643,13.506-5.214 c-3.388-4.722-14.664-0.281-18.463,1.161c-11.358,4.31-23.387,12.64-30.935,22.216c-4.817,6.111-5.945,13.715,0.619,18.947 c5.661,4.512,14.47,1.125,19.933-1.855c6.042-3.296,12.954-8.708,15.482-15.36c1.993-5.242-2.887-7.017-7.197-6.803 C21.38,46.214,5.993,56.274,6.697,68.904c0.115,2.057,4.015,1.466,3.918-0.282c-0.519-9.293,7.846-15.44,15.612-18.588 c2.506-1.016,6.815-2.488,9.433-1.092c2.87,1.531-1.341,6.683-2.426,8.005C28.257,63.021,17.721,70.98,9.353,68.364 c-4.628-1.447-6.396-6.811-5.126-11.071c1.73-5.805,7.277-10.412,11.78-14.046c5.81-4.688,12.34-8.742,19.14-11.811 c3.32-1.499,10.831-4.666,14.56-2.533c-0.352-0.201-0.108-0.292-1.205,0.028c-1.097,0.32-2.256,0.404-3.386,0.523 c-2.681,0.283-5.387,0.275-8.073,0.092c-4.008-0.274-11.819-1.532-9.279-7.217C31.94,12.98,47.031,9.11,55.897,6.97 c6.556-1.583,16.359-4.196,23.113-2.142c3.442,1.047,6.647,2.041,10.159,0.25c4.578-2.334-2.066-4.409-3.896-4.753 c-9.015-1.693-19.345,3.602-27.44,6.871c-10.836,4.375-21.397,9.4-32.236,13.767c-1.731,0.698-3.478,1.354-5.257,1.92 c-0.614,0.196-1.236,0.359-1.864,0.505c-1.042,0.243-0.621,0.324-0.146-0.313c2.288-3.07,7.508-4.895,10.938-6.401 C31.691,15.61,29.54,13.476,27.544,14.352L27.544,14.352 M10.878,72.483c4.067,1.498,9.09-0.38,12.81-1.957c5.887-2.496,10.926-6.65,16.114-10.293 c2.709-1.902,5.468-3.728,8.281-5.472c0.998-0.619,7.507-4.79,7.386-2.274c1.035-0.441,2.071-0.882,3.106-1.322 c-5.238-1.434-11.054,0.504-15.331,3.507c-1.338,0.939-11.02,10.066-6.746,12.358c3.896,2.09,9.877-2.467,12.786-4.501 c9.677-6.769,17.748-15.858,25.179-24.939c1.2-1.467-2.667-1.069-3.371-0.443c-4.68,4.165-9.156,8.582-13.419,13.171 c-3.784,4.074-11.504,11.142-10.708,17.377c0.864,6.771,12.403-0.146,14.577-1.716c5.801-4.187,10.979-9.469,15.675-14.849 c-1.042-0.245-2.083-0.489-3.125-0.733c-3.464,3.99-6.835,8.117-9.738,12.537c-2.249,3.424-3.292,7.518,2.281,6.042 c6.16-1.632,12.315-6.244,17.243-10.108c1.424-1.117,3.259-2.333,3.963-4.077c0.72-1.784-2.803-1.012-3.431-0.665 c-3.336,1.847-8.411,7.892-7.728,11.919c0.71,4.189,8.023-0.732,9.276-1.683c4.562-3.46,21.125-20.271,6.932-21.504 c-1.559-0.135-4.084,2.085-1.471,2.313c8.992,0.781-2.795,13.28-5.165,15.547c-1.217,1.165-2.515,2.247-3.88,3.232 c-1.458,1.052-2.224,1.946-1.747-0.284c0.36-1.685,1.679-3.291,2.68-4.638c0.585-0.787,1.243-1.514,1.911-2.23 c0.433-0.464,1.914-1.257,0.875-1.041c-0.689-0.087-1.378-0.175-2.067-0.262c0.044,0.037-15.66,11.047-18.418,11.53 c0.831-0.145,1.433-2.408,1.912-3.219c1.114-1.887,2.456-3.646,3.774-5.392c1.885-2.494,3.873-4.922,5.923-7.283 c1.523-1.754-2.223-1.767-3.125-0.733c-3.346,3.833-6.961,7.451-10.75,10.844c-2.704,2.422-5.614,4.808-8.92,6.356 c-3.164,1.482-4.061-0.909-3.176-3.518c2.142-6.319,8.367-11.887,12.883-16.529c3.246-3.335,6.611-6.575,10.088-9.669 c-1.124-0.147-2.247-0.295-3.371-0.443c-8.009,9.787-18.153,22.602-30.328,27.489c-2.836,1.138,1.402-5.07,1.675-5.45 c3.032-4.214,8.723-7.57,14.041-6.114c0.799,0.219,3.052-0.188,3.106-1.322c0.382-7.89-14.339,1.846-16.276,3.083 c-7.013,4.478-13.362,10.154-20.941,13.68c-2.116,0.985-6.717,2.284-8.191,1.74C12.7,70.088,9.204,71.866,10.878,72.483 L10.878,72.483 M92.506,70.018c2.783-2.841,5.543-5.706,8.278-8.594c1.377-1.455,6.472-5.374,6.146-7.719 c-0.104-0.746-1.192-0.822-1.736-0.808c-4.6,0.118-17.103,14.159-9.493,16.257c4.264,1.176,9.484-3.131,12.568-5.433 c2.796-2.087,8.865-5.848,10.149-9.318c0.599-1.619-1.69-1.696-2.667-1.225c-4.053,1.957-11.85,13.492-3.567,14.387 c4.621,0.5,9.703-2.917,13.418-5.197c2.974-1.825,7.199-4.09,9.227-7.06c1.192-1.746-2.401-1.4-3.095-0.977 c-1.906,1.163-7.33,7.843-4.813,10.094c3.33,2.978,7.491,0.743,8.687-3.086c0.529-1.695-3.412-1.223-3.901,0.344 c-0.044,0.141-0.799,1.973-1.331,0.88c-0.4-0.822,0.541-2.163,0.91-2.835c0.61-1.112,2.038-3.224,2.969-3.792 c-1.032-0.326-2.063-0.651-3.095-0.977c-0.874,1.28-3.247,2.538-4.567,3.476c-3.048,2.166-6.261,4.109-9.695,5.599 c-1.027,0.445-3.372,1.463-4.415,0.497c-0.942-0.874,0.491-3.124,0.917-3.904c0.763-1.398,3.396-5.049,4.016-5.348 c-0.889-0.408-1.778-0.816-2.667-1.225c-0.553,1.494-3.716,3.703-5.037,4.85c-2.856,2.483-5.897,4.884-9.226,6.704 c-5.085,2.78-2.705-2.546-0.827-4.846c0.96-1.176,2.068-2.233,3.177-3.266c0.617-0.574,1.277-1.097,1.943-1.612 c0.789-0.611,1.25-0.367,0.024-0.336c-0.579-0.27-1.158-0.539-1.736-0.808c-0.097-0.696-1.583,1.46-2.131,2.068 c-1.574,1.75-3.2,3.452-4.822,5.157c-2.25,2.365-4.522,4.71-6.807,7.042C87.629,70.72,91.381,71.165,92.506,70.018L92.506,70.018 M126.665,41.905c0.851-1.09,2.958-3.769,1.556-5.07c-0.796-0.739-4.325,0.71-3.63,1.355 c0.927,0.861-0.946,3.292-1.444,3.93c-0.526,0.674,0.455,0.763,0.939,0.733C124.856,42.807,126.151,42.563,126.665,41.905 L126.665,41.905 M194.952,35.511c-3.493-3.796-10.453,3.854-12.193,5.877c-5.189,6.032-10.329,12.102-15.682,17.991 c-2.88,3.169-5.835,6.277-8.954,9.213c-1.086,1.022-2.217,1.993-3.398,2.901c-1.809,1.391-0.239,1.134-0.445,0.049 c-1.137-5.993,1.24-13.625,2.497-19.418c1.96-9.039,4.594-18.021,8.323-26.494c3.723-8.461,8.591-14.48,18.231-15.807 c7.763-1.068,18.977,1.562,19.883,10.824c0.548,5.594-3.833,11.724-7.386,15.586c-3.727,4.052-9.02,6.656-14.539,5.354 c-2.456-0.58-4.425-2.318-5.836-4.327c-0.739-1.052-4.482,0.235-3.591,1.503c3.992,5.681,11.254,6.305,17.43,4.29 c8.478-2.766,15.035-11.046,17.403-19.43c4.907-17.374-21.849-17.621-31.641-13.555c-6.38,2.649-10.101,8.164-12.958,14.208 c-3.946,8.346-6.583,17.262-8.702,26.229c-1.55,6.562-3.218,13.631-3.087,20.422c0.08,4.16,3.12,3.998,6.218,2.09 c6.947-4.277,12.537-11.716,17.887-17.738c1.256-1.415,16.226-19.052,16.95-18.265C192.262,37.993,195.942,36.588,194.952,35.511 L194.952,35.511 M179.487,58.05c-1.414,0.815-4.289,2.883-2.634,4.684c0.82,0.893,4.484-0.488,3.606-1.443 c-0.219-0.238-0.269-0.465-0.201-0.734c0.058-0.228,0.052-0.187,0.189-0.386c0.051-0.074,0.424-0.491,0.266-0.336 c0.289-0.282,0.614-0.527,0.944-0.759c0.224-0.157-0.337,0.211,0.044-0.026c0.041-0.025,0.082-0.05,0.123-0.074 c0.446-0.257,1.239-0.996,0.386-1.333C181.382,57.316,180.224,57.625,179.487,58.05L179.487,58.05 M230.354,15.304c-4.528,4.109-8.92,8.405-13.023,12.938c-0.991,1.095-9.183,10.046-3.894,10.625 c4.188,0.458,9.521-5.965,12.241-8.35c5.593-4.901,11.121-10.436,17.569-14.218c2.142-1.256,2.158-1.405,1.818,1.104 c-0.462,3.412-2.037,6.777-3.388,9.907c-3.933,9.115-8.944,17.836-14.355,26.144c-2.421,3.715-5.011,7.322-7.807,10.764 c-1.155,1.422-2.384,2.78-3.663,4.09c-0.935,0.958-1.953,1.841-2.967,2.714c-0.411,0.349-0.838,0.677-1.28,0.985 c1.082,1.166,1.676,1.268,1.78,0.306c1.222-3.779,3.977-7.301,6.144-10.567c2.727-4.109,5.589-8.165,8.71-11.986 c5.794-7.096,12.477-13.614,19.476-19.51c2.347-1.978,5.007-4.388,7.927-5.477c0.31-0.115,0.019,0.113-0.22,1.434 c-0.257,1.43-0.836,2.823-1.354,4.173c-2.867,7.484-6.84,14.6-10.649,21.632c-2.598,4.794-5.072,10.651-8.254,14.927 c1.199,0.17,2.398,0.34,3.598,0.51c0.086-0.702,2.673-4.334,3.576-5.679c2.998-4.462,6.439-8.66,10.344-12.358 c4.444-4.211,9.507-6.888,15.334-8.702c0.313-0.084,0.627-0.167,0.939-0.251c1.104,0.057,1.183-0.206,0.235-0.787 c-0.256,0.832-1.099,1.615-1.64,2.261c-1.552,1.851-3.269,3.572-4.915,5.339c-3.751,4.026-7.049,8.255-8.235,13.735 c-0.633,2.923,0.907,6.623,4.439,6.182c4.447-0.556,8.266-3.539,11.766-6.136c2.471-1.833,4.838-3.807,7.242-5.726 c0.817-0.652,1.649-1.285,2.49-1.908c1.727-1.279,2.053-0.427,0.339-0.84c-0.328-0.705-0.657-1.41-0.985-2.115 c-3.504,3.585-9.97,6.275-12.91,11.417c-2.993,5.235,2.177,7.115,6.401,5.125c5.734-2.703,11.126-8.878,14.093-14.368 c2.981-5.515-4.03-6.315-7.157-2.906c-5.566,6.069-0.089,14.6,7.598,14.013c5.911-0.452,13.432-7.09,14.813-12.854 c1.346-5.616-7.904-2.8-6.111,1.218c1.207,2.708,4.312,2.104,6.721,1.579c2.147-0.468,4.229-1.227,6.429-1.42 c1.939-0.17-1.59,8.059-2.051,9.215c-0.29,0.727-1.125,2.148-0.762,2.985c0.386,0.89,1.406,1.178,2.31,0.895 c3.775-1.183,6.969-6.654,9.276-9.501c1.211-1.495,2.472-2.909,3.924-4.175c1.642-1.431,3.9-0.893,5.88-0.88 c1.615,0.01,3.317-0.222,4.119-1.773c0.272-0.527,0.03-1.074-0.383-1.426c-0.015-0.013-0.03-0.026-0.046-0.04 c-0.921-0.785-2.927-0.238-3.336,0.894c-0.714,1.974-1.229,3.936-2.479,5.673c-0.853,1.185-1.68,2.536-1.526,4.063 c0.354,3.519,4.22,3.457,6.911,2.841c8.899-2.039,18.722-7.201,26.051-12.562c2.173-1.589-0.994-2.948-2.604-1.918 c-2.477,1.585-21.258,14.524-11.819,16.663c4.817,1.091,11.215-3.777,14.786-6.332c3.947-2.823,10.106-7.774,9.799-13.246 c-0.26-4.602-5.101-3.772-7.813-1.942c-3.907,2.637-6.163,8.52-2.744,12.336c4.765,5.319,14.458,3.269,20.192,1.267 c6.084-2.124,12.721-5.749,17.034-10.655c1.632-1.856-1.746-2.389-2.936-1.592c-3.989,2.673-7.962,5.61-11.33,9.042 c-1.878,1.913-6.628,8.058-1.052,8.886c5.539,0.822,11.955-2.631,16.844-4.775c5.863-2.571,11.725-5.417,17.219-8.719 c2.238-1.345,0.251-3.512-1.758-2.449c-5.503,2.91-12.093,6.471-15.615,11.758c-2.975,4.463,1.939,6.044,5.59,6.118 c6.549,0.133,13.061-2.038,18.521-5.569c7.2-4.656,9.855-12.225,9.196-20.502c-0.55-6.904-4.139-12.918-10.926-15.037 c-2.66-0.83-6.401-1.43-9.107-0.382c-1.625,0.629-2.536,2.354-1.648,3.915c1.567,2.759,6.957,3.41,9.629,3.958 c9.514,1.953,19.421,2.302,29.092,2.698c1.968,0.081,3.904-2.856,1.297-2.963c-8.881-0.364-17.795-0.847-26.582-2.245 c-2.706-0.431-7.611-0.778-9.699-2.922c-0.454-0.467-0.184,0.123-0.766,0.148c3.666-0.159,7.149,0.552,10.087,2.864 c5.741,4.519,5.984,14.839,3.44,21.021c-2.563,6.225-9.251,9.678-15.418,11.26c-1.749,0.448-11.729,2.342-9.007-1.743 c2.946-4.421,9.083-7.5,13.675-9.928c-0.586-0.816-1.172-1.633-1.758-2.449c-8.35,5.017-17.663,9.714-27.027,12.433 c-0.852,0.248-4.519,1.532-3.9-0.344c0.694-2.11,3.083-3.935,4.663-5.342c2.791-2.485,5.842-4.733,8.945-6.813 c-0.979-0.531-1.957-1.062-2.936-1.592c-5.764,6.557-16.94,11.719-25.63,10.792c-5.111-0.545-7.713-4.418-4.728-8.777 c0.666-0.972,2.915-3.51,3.062-0.906c0.096,1.701-1.205,3.385-2.164,4.641c-2.459,3.22-5.995,5.779-9.408,7.897 c-1.592,0.989-3.271,1.826-4.998,2.553c-0.765,0.323-3.377,1.513-2.683-0.199c1.847-4.554,8.987-8.353,12.984-10.91 c-0.868-0.64-1.735-1.278-2.604-1.918c-5.521,4.038-12.061,6.916-18.334,9.563c-1.359,0.574-9.143,4.095-7.871,0.297 c0.825-2.465,2.644-4.863,3.569-7.424c-1.111,0.298-2.224,0.596-3.336,0.894c0.157-0.703,0.314-1.406,0.472-2.109 c-0.687,0.032-1.374,0.039-2.062,0.021c-1.334-0.009-2.988-0.32-4.279,0.157c-1.759,0.65-3.176,1.544-4.523,2.872 c-2.161,2.131-4.018,4.514-5.917,6.876c-1.066,1.327-2.171,2.586-3.409,3.755c-0.37,0.349-2.108,1.471-0.854,1.078 c0.771,0.298,1.54,0.597,2.311,0.896c-0.249-0.573,1.782-4.378,2.029-5.016c0.86-2.223,1.692-4.345,1.459-6.75 c-0.322-3.321-5.523-2.3-7.453-1.882c-0.842,0.182-8.022,2.058-7.934,0.862c-0.139,1.869-2.161,3.873-3.308,5.197 c-1.86,2.148-4.28,3.995-7.02,4.814c-4.328,1.295-7.691-4.1-6.351-7.794c0.537-1.482,2.82-3.498,1.516-0.757 c-0.856,1.799-2.235,3.395-3.505,4.91c-2.478,2.957-6.003,6.909-9.855,8.018c-1.365,0.393,1.299-3.876,1.463-4.069 c1.438-1.699,3.24-3.113,4.975-4.493c2.021-1.606,4.519-2.894,6.324-4.741c0.907-0.929-0.062-1.891-0.986-2.114 c-2.474-0.597-6.075,3.272-7.667,4.542c-2.451,1.957-4.888,3.927-7.407,5.796c-2.157,1.601-9.246,6.849-8.571,0.806 c0.754-6.756,7.617-12.137,11.908-16.896c1.137-1.26,4.404-4.506,2.075-6.129c-2.762-1.923-8.529,1.324-11.035,2.304 c-5.108,1.999-9.407,5.646-13.26,9.455c-3.773,3.73-6.998,8.034-9.908,12.458c-1.008,1.533-3.04,3.844-3.273,5.744 c-0.232,1.9,2.848,1.517,3.598,0.509c3.26-4.379,5.578-9.935,8.188-14.711c4.142-7.579,8.36-15.255,11.455-23.334 c1.104-2.881,3.177-9.348-2.341-8.407c-6.621,1.129-13.05,8.532-17.632,12.87c-6.726,6.365-12.89,13.178-18.283,20.706 c-2.653,3.704-5.172,7.504-7.529,11.403c-1.049,1.735-3.53,4.971-2.88,7.205c1.476,5.062,11.694-6.47,12.744-7.697 c6.07-7.093,11.015-15.228,15.614-23.323c3.099-5.453,5.953-11.064,8.383-16.848c1.359-3.235,3.092-7.117,2.949-10.713 c-0.3-7.526-11.659,1.137-13.664,2.697c-4.274,3.325-8.296,6.977-12.362,10.548c-2.828,2.484-5.759,5.606-9.143,7.34 c1.116,1.034,1.717,1.09,1.801,0.167c0.139-0.345,0.301-0.68,0.486-1.002c0.514-0.978,1.264-1.862,1.939-2.729 c1.82-2.333,3.889-4.481,5.943-6.606c2.851-2.947,5.819-5.793,8.855-8.549C234.896,15.462,231.868,13.931,230.354,15.304 L230.354,15.304z"/>
</svg>