<?xml version="1.0" standalone="no"?>
<!DOCTYPE svg PUBLIC "-//W3C//DTD SVG 20010904//EN"
 "http://www.w3.org/TR/2001/REC-SVG-20010904/DTD/svg10.dtd">
<svg version="1.0" xmlns="http://www.w3.org/2000/svg"
 width="468pt" height="110pt" viewBox="0 0 468 110"
 preserveAspectRatio="xMidYMid meet">
<metadata>
Created by POTRACE VERSION, written by Peter Selinger 2001-2007
</metadata>
<g transform="translate(0,110) scale(0.046800,-0.046800)"
fill="#000000" stroke="none">
<path d="M591 2286 c-24 -18 -49 -47 -56 -63 -7 -17 -26 -37 -41 -45 -16 -7
-43 -33 -61 -58 -18 -25 -37 -49 -41 -55 -5 -5 -30 -44 -57 -85 -27 -41 -57
-81 -67 -88 -10 -7 -29 -34 -42 -60 -13 -26 -34 -56 -46 -67 -12 -11 -38 -45
-58 -75 -20 -30 -46 -64 -58 -75 -12 -11 -31 -28 -43 -37 -11 -10 -21 -29 -21
-44 0 -14 16 -59 36 -100 23 -48 49 -85 73 -104 21 -17 47 -48 59 -69 12 -21
33 -46 47 -57 14 -10 25 -23 25 -29 0 -6 16 -35 35 -65 21 -32 47 -59 65 -67
29 -12 31 -15 24 -50 -3 -21 -17 -54 -30 -74 -13 -19 -24 -46 -24 -60 0 -13
-7 -33 -16 -44 -8 -11 -23 -48 -34 -83 -11 -36 -17 -75 -14 -92 4 -17 32 -56
66 -92 33 -35 91 -97 128 -138 37 -41 91 -98 121 -127 30 -29 76 -71 103 -94
28 -22 66 -52 86 -65 19 -13 57 -27 83 -30 38 -5 51 -3 67 11 11 10 20 28 20
41 0 13 -10 30 -22 38 -12 9 -37 16 -56 16 -18 0 -54 11 -80 24 -26 13 -69 48
-96 78 -26 29 -57 62 -67 73 -11 11 -24 25 -29 30 -6 6 -49 50 -97 100 -47 49
-94 103 -104 120 -11 16 -19 46 -19 65 0 19 9 59 19 88 11 28 22 70 26 92 4
22 10 40 14 40 4 0 14 13 24 29 9 16 17 34 17 41 0 6 -18 29 -40 51 -22 22
-40 46 -40 54 0 8 -11 22 -25 31 -17 11 -27 29 -32 56 -3 22 -21 62 -40 90
-19 27 -52 68 -75 91 -22 23 -51 59 -64 79 -13 21 -24 48 -24 61 0 12 13 38
28 57 15 19 50 68 77 108 27 39 58 78 70 86 12 8 35 36 50 63 15 26 43 63 61
82 19 19 34 39 34 44 0 6 19 35 42 66 24 31 45 58 49 61 3 3 16 23 29 45 14
22 41 58 61 80 20 22 41 55 47 74 7 19 12 40 12 47 0 8 -8 14 -17 14 -10 0
-38 -15 -62 -34z"/>
<path d="M2062 1974 c-7 -8 -18 -28 -24 -45 -5 -16 -23 -36 -39 -45 -21 -11
-32 -26 -40 -59 -7 -26 -23 -55 -38 -68 -14 -12 -38 -41 -53 -64 -16 -24 -28
-45 -28 -49 0 -3 -23 -37 -50 -76 -28 -38 -60 -78 -70 -88 -11 -11 -20 -26
-20 -33 0 -7 -12 -29 -26 -48 -14 -19 -43 -70 -65 -114 -22 -44 -49 -96 -60
-115 -10 -19 -19 -47 -19 -61 0 -16 16 -46 41 -76 26 -33 65 -64 109 -88 56
-31 73 -46 88 -79 11 -23 23 -51 27 -64 4 -15 -3 -50 -21 -100 -15 -42 -37
-88 -50 -101 -13 -13 -24 -31 -24 -41 0 -9 -10 -26 -23 -38 -13 -12 -27 -22
-31 -22 -5 0 -20 -12 -33 -26 -17 -18 -22 -32 -17 -47 3 -12 11 -27 16 -34 5
-6 40 -23 76 -37 37 -14 83 -26 102 -26 19 0 71 -5 115 -11 44 -5 94 -15 112
-20 17 -5 57 -14 88 -19 35 -6 67 -18 86 -34 16 -14 56 -35 88 -46 37 -14 73
-37 97 -61 22 -23 48 -39 61 -39 12 0 27 9 33 21 9 16 8 25 -3 42 -8 12 -27
34 -42 50 -15 15 -33 27 -40 27 -7 0 -19 7 -26 17 -8 9 -41 36 -74 60 -34 25
-70 43 -86 43 -14 0 -51 13 -82 30 -31 16 -69 30 -84 30 -16 0 -47 9 -71 20
-31 14 -55 18 -86 14 -25 -4 -52 -1 -65 5 -11 7 -21 21 -21 33 0 12 6 29 14
37 8 9 28 58 45 109 17 51 31 106 31 122 0 16 -6 51 -12 76 -7 26 -29 65 -48
88 -20 22 -43 53 -53 68 -9 14 -27 30 -39 34 -13 4 -42 20 -65 36 -34 23 -43
35 -43 58 0 16 4 39 9 52 5 13 17 32 28 43 10 11 30 46 45 77 15 31 42 73 60
93 18 21 52 57 76 82 26 27 42 53 42 68 0 14 15 42 35 63 19 21 44 60 55 87
12 27 29 55 40 62 10 7 26 36 35 64 10 29 32 68 50 88 17 20 34 43 38 52 3 9
0 22 -6 28 -6 6 -20 11 -31 11 -12 -1 -27 -7 -34 -16z"/>
<path d="M3610 1901 c-25 -9 -54 -22 -65 -28 -11 -6 -51 -24 -89 -39 -38 -16
-74 -33 -80 -39 -6 -5 -27 -22 -46 -36 -19 -14 -51 -33 -70 -42 -19 -10 -40
-27 -45 -39 -6 -12 -27 -34 -48 -48 -20 -14 -55 -51 -77 -83 -22 -32 -49 -81
-60 -110 -14 -36 -22 -89 -26 -183 -6 -113 -5 -135 10 -155 9 -13 16 -38 16
-56 0 -26 10 -43 43 -76 24 -23 48 -54 55 -69 9 -21 19 -28 40 -28 20 0 44
-15 82 -51 30 -28 73 -60 95 -71 22 -11 47 -26 55 -33 8 -7 49 -23 90 -35 41
-12 93 -28 115 -36 22 -7 111 -18 198 -24 122 -9 162 -9 173 1 8 6 14 26 14
43 0 17 -4 36 -8 42 -4 7 -25 19 -47 28 -34 15 -47 15 -83 5 -32 -9 -49 -9
-68 0 -14 6 -43 11 -65 11 -22 0 -92 12 -157 26 -78 18 -145 40 -202 68 -47
24 -96 51 -110 62 -13 10 -42 36 -65 57 -34 29 -47 52 -65 108 -20 61 -22 84
-17 174 4 81 10 114 27 147 12 24 37 59 55 79 18 20 36 46 39 57 4 11 19 25
34 30 15 5 41 23 57 39 17 16 42 43 56 59 15 16 53 42 85 58 33 16 74 42 92
57 18 16 44 29 59 29 14 0 43 5 63 11 21 7 50 9 64 5 15 -4 31 -17 37 -30 8
-17 8 -30 -1 -46 -8 -14 -8 -26 -2 -32 6 -6 17 -2 31 13 11 13 21 35 21 50 0
14 -7 32 -14 39 -8 6 -20 27 -26 46 -9 25 -21 39 -47 49 -20 8 -45 15 -57 15
-11 -1 -41 -9 -66 -19z"/>
<path d="M7440 1630 c-8 -15 -8 -30 0 -54 5 -17 29 -50 53 -72 23 -23 64 -49
90 -58 26 -10 54 -15 62 -12 10 4 15 20 15 49 0 25 -6 49 -12 55 -7 5 -32 15
-55 21 -29 8 -51 23 -73 51 -17 22 -40 40 -50 40 -11 0 -24 -9 -30 -20z"/>
<path d="M9779 1229 c-35 -29 -74 -69 -85 -90 -17 -29 -22 -55 -22 -122 -1
-75 1 -87 21 -105 15 -14 45 -25 90 -31 36 -5 71 -12 77 -16 5 -3 10 -10 10
-15 0 -5 -15 -29 -32 -53 -18 -25 -45 -52 -59 -62 -14 -10 -38 -38 -54 -62
-15 -24 -34 -50 -41 -58 -8 -8 -17 -27 -20 -43 -4 -20 -1 -34 11 -45 9 -9 28
-20 43 -24 20 -5 29 -1 41 16 9 13 36 47 61 76 25 29 61 73 81 97 20 24 44 57
55 73 10 17 24 36 31 43 7 7 13 22 13 32 0 10 -9 39 -20 65 -15 35 -28 49 -56
61 -20 8 -59 18 -87 21 -29 4 -58 14 -69 25 -10 10 -18 27 -18 37 0 11 10 32
23 48 13 15 30 40 40 55 12 20 26 28 54 30 32 3 38 7 41 28 2 15 -6 34 -18 48
-11 12 -27 22 -34 22 -7 0 -42 -23 -77 -51z"/>
<path d="M8992 1204 c-12 -8 -29 -28 -37 -43 -13 -25 -12 -34 7 -87 11 -32 27
-66 34 -75 7 -8 46 -20 86 -27 61 -10 85 -10 145 3 39 8 79 12 87 9 9 -3 16
-16 16 -28 0 -12 -7 -31 -15 -42 -8 -10 -15 -32 -15 -47 0 -15 -6 -38 -14 -50
-7 -12 -21 -44 -30 -72 -8 -27 -25 -90 -35 -140 -11 -49 -27 -161 -36 -247
-12 -122 -13 -177 -5 -240 6 -49 16 -88 26 -100 10 -10 25 -18 35 -18 10 0 26
11 34 24 14 21 15 34 5 83 -8 45 -7 89 5 203 9 80 20 161 25 180 4 19 15 60
23 90 9 30 28 106 42 169 15 63 31 122 35 130 4 9 15 41 24 72 9 31 16 65 16
75 0 11 -5 25 -12 32 -7 7 -30 12 -52 12 -22 0 -47 7 -56 15 -15 14 -25 13
-98 -5 -58 -15 -92 -18 -115 -12 -17 4 -32 14 -32 22 0 7 14 21 30 30 19 10
31 26 33 42 2 18 -4 31 -20 42 -12 9 -42 16 -68 16 -25 0 -56 -7 -68 -16z"/>
<path d="M5113 1193 c-7 -3 -13 -12 -13 -21 0 -9 -9 -32 -20 -50 -13 -22 -20
-50 -20 -86 0 -44 5 -61 27 -88 15 -18 44 -50 65 -71 32 -32 41 -36 57 -27 12
6 25 19 30 29 6 10 26 22 45 25 19 4 39 13 46 21 7 8 18 15 25 15 7 0 19 -10
27 -22 8 -13 20 -40 27 -61 9 -26 20 -39 37 -43 13 -3 40 -3 59 0 25 5 42 17
58 41 12 19 30 35 40 35 10 0 37 -27 65 -67 26 -36 52 -70 57 -74 6 -5 26 -22
46 -39 22 -18 48 -30 66 -30 16 0 39 7 51 16 12 8 22 24 22 34 0 11 -12 30
-26 44 -15 13 -39 27 -55 30 -15 3 -43 19 -62 36 -19 17 -42 48 -51 70 -8 22
-32 62 -51 89 -20 27 -42 52 -51 55 -8 3 -24 1 -34 -4 -10 -5 -24 -27 -30 -47
-7 -21 -19 -46 -28 -55 -8 -10 -25 -18 -38 -18 -13 0 -28 9 -34 19 -5 11 -10
35 -10 54 0 19 -5 48 -11 64 -6 20 -19 33 -33 35 -13 3 -32 1 -43 -3 -11 -4
-23 -19 -27 -33 -4 -17 -18 -31 -39 -40 -18 -7 -41 -25 -50 -40 -11 -16 -27
-26 -42 -26 -13 0 -31 7 -39 16 -10 10 -16 33 -16 64 0 27 4 59 9 72 5 13 7
36 4 50 -3 15 -10 29 -17 31 -6 2 -17 2 -23 0z"/>
<path d="M6065 1130 c-14 -15 -17 -32 -13 -87 3 -52 10 -78 31 -110 19 -30 34
-43 50 -43 12 0 31 7 41 15 11 8 29 15 41 15 12 0 44 12 73 26 28 14 59 24 69
22 10 -2 22 -19 29 -43 6 -22 28 -58 47 -79 30 -33 43 -39 72 -38 20 1 55 10
79 21 24 10 47 24 50 30 4 6 16 11 26 11 11 0 24 -9 30 -20 6 -11 8 -30 4 -44
-3 -13 0 -35 8 -48 7 -14 31 -48 53 -76 22 -28 48 -53 57 -55 9 -3 24 3 32 12
9 10 16 30 16 44 0 16 -10 36 -25 49 -13 11 -29 35 -34 52 -5 17 -13 58 -16
92 -5 45 -2 71 9 99 9 20 16 50 16 65 0 15 -8 34 -18 43 -10 10 -30 17 -45 17
-14 0 -32 -7 -39 -16 -7 -9 -38 -43 -70 -75 -31 -32 -69 -64 -84 -69 -16 -6
-39 -8 -51 -5 -13 3 -28 18 -34 33 -6 15 -13 47 -16 72 -3 24 -11 57 -19 72
-8 15 -19 30 -24 33 -6 4 -25 -5 -43 -19 -17 -15 -64 -53 -104 -86 -40 -33
-81 -60 -91 -60 -11 0 -25 7 -32 15 -8 10 -11 32 -7 62 3 26 1 57 -4 70 -5 13
-17 23 -27 23 -10 0 -27 -9 -37 -20z"/>
<path d="M8082 1065 c-17 -14 -45 -31 -64 -37 -18 -6 -51 -24 -72 -39 -22 -16
-46 -29 -53 -29 -7 0 -20 -11 -28 -24 -13 -19 -14 -29 -5 -45 6 -12 19 -21 30
-21 10 0 40 18 65 40 25 22 56 40 69 40 12 0 32 -10 44 -23 15 -16 22 -36 22
-63 0 -24 12 -65 30 -101 16 -35 38 -64 49 -68 10 -3 32 -3 48 1 15 4 37 15
48 24 11 10 36 26 55 35 19 10 47 27 62 38 17 13 34 17 50 13 13 -3 32 -20 43
-38 15 -23 33 -35 70 -45 28 -8 60 -17 72 -20 13 -3 34 -2 48 1 15 4 25 13 25
25 0 10 -13 36 -29 58 -19 27 -41 43 -68 51 -30 9 -58 31 -108 87 -37 41 -73
75 -81 75 -8 0 -27 -20 -42 -45 -15 -25 -34 -48 -43 -50 -9 -3 -32 -21 -52
-41 -24 -25 -42 -35 -59 -32 -17 2 -25 12 -32 41 -8 33 -6 45 14 82 l24 43
-38 46 c-20 25 -43 46 -51 46 -7 0 -27 -11 -43 -25z"/>
<path d="M7300 1035 c-7 -9 -10 -33 -7 -62 2 -26 10 -75 16 -108 7 -33 20 -68
28 -77 9 -10 23 -18 32 -18 9 0 21 8 28 19 8 13 9 45 3 112 -4 52 -14 106 -21
122 -9 20 -19 27 -39 27 -15 0 -33 -7 -40 -15z"/>
<path d="M4022 998 c-7 -7 -12 -28 -12 -47 0 -22 14 -65 37 -110 21 -40 49
-81 62 -90 17 -11 46 -16 95 -15 39 0 90 5 113 11 22 5 56 23 73 39 18 16 45
41 60 57 15 15 35 27 43 27 8 0 36 -22 63 -48 27 -27 62 -70 77 -96 16 -25 42
-53 58 -62 17 -8 39 -12 49 -9 13 4 20 15 20 31 0 15 -20 50 -51 87 -28 34
-61 76 -74 92 -13 17 -30 38 -37 47 -7 9 -38 35 -68 57 -30 23 -61 41 -68 41
-7 0 -22 -4 -32 -10 -10 -5 -27 -25 -37 -43 -11 -18 -49 -53 -84 -77 -52 -35
-73 -43 -109 -43 -25 -1 -63 8 -85 19 -40 19 -40 19 -37 70 3 37 -1 55 -13 67
-9 10 -20 17 -24 17 -4 0 -12 -5 -19 -12z"/>
</g>
</svg>
