<?xml version="1.0" encoding="UTF-8" standalone="no"?>
<svg
	xmlns="http://www.w3.org/2000/svg"
	version="1.1"
	width="539"
   height="94">
<path
	fill="#000"
	d="m 305.583,29.39 c -3.668,0.335 -8.138,0.757 -11.237,2.921 -1.246,0.871 -1.2,1.949 -1.467,3.333 -0.639,3.32 -2.088,6.521 -3.457,9.587 -3.345,7.491 -7.577,14.653 -11.217,22.012 -1.436,2.902 -2.845,5.817 -4.212,8.752 -0.641,1.375 -1.15,3.861 -2.177,4.986 0.689,-0.338 1.378,-0.676 2.067,-1.013 1.655,-0.141 0.843,-0.209 0.648,-1.883 -0.289,-2.478 0.51,-5.104 1.21,-7.439 0.792,-2.641 2.045,-5.215 3.168,-7.727 3.4,-7.604 7.518,-14.878 12.22,-21.749 11.23,-16.411 27.503,-28.027 45.749,-35.59 2.243,-0.93 14.08,-6.266 14.933,-1.623 0.88,4.801 -2.129,11.208 -3.802,15.54 -2.146,5.553 -4.843,11.928 -9.271,16.084 -1.446,1.357 -6.063,-0.85 -8.466,-1.248 -6.126,-1.013 -12.172,-1.345 -18.045,-3.573 -0.814,-0.309 -4.274,0.261 -3.339,1.665 4.03,6.044 1.521,12.883 -0.003,19.204 -1.655,6.861 -3.395,13.808 -4.246,20.825 -0.396,3.258 1.038,5.496 4.416,2.991 6.733,-4.995 10.275,-13.066 17.945,-17.224 2.095,-1.136 -0.739,-1.897 -1.945,-1.305 -6.108,3.001 -9.783,7.344 -9.63,14.33 0.06,2.748 0.813,6.879 4.071,7.314 2.229,0.298 4.112,-1.111 5.084,-2.977 1.47,-2.822 1.953,-6.234 2.649,-9.305 0.379,-1.671 0.774,-3.335 1.347,-4.952 0.391,-1.105 -2.227,-0.414 0.513,-0.282 2.721,0.131 5.438,0.681 7.864,1.945 4.534,2.363 3.037,7.457 1.063,11.039 1.241,-0.076 2.482,-0.152 3.724,-0.228 2.305,-5.357 6.119,-13.713 3.752,-19.516 -0.485,-1.191 -3.732,-0.407 -3.861,0.769 -0.811,7.401 9.137,7.687 14.056,7.635 8.027,-0.084 18.758,-0.999 24.499,-7.363 1.027,-1.139 3.214,-6.359 0.624,-6.877 -2.627,-0.525 -4.544,1.489 -6.008,3.372 -3.883,4.996 -5.551,11.639 -6.361,17.771 -0.158,1.195 -0.277,2.395 -0.431,3.591 -0.069,0.565 -0.181,1.123 -0.332,1.672 1.361,-0.624 1.331,-1.421 -0.092,-2.395 -0.893,-1.599 -1.137,-3.851 -1.096,-5.66 -1.242,0.333 -2.484,0.666 -3.727,0.999 6.443,7.397 16.973,7.326 24.712,2.395 4.888,-3.114 9.073,-7.89 11.82,-12.959 1.531,-2.825 2.501,-7.056 -2.053,-5.053 -7.216,3.173 -10.751,19.949 -0.69,21.501 7.099,1.095 10.765,-9.515 12.313,-14.632 0.464,-1.534 -3.232,-0.399 -3.724,0.228 -3.576,4.568 -2.59,11.292 2.009,14.883 5.488,4.286 9.302,-5.832 10.34,-9.111 0.487,-1.541 -3.235,-0.363 -3.724,0.228 -3.01,3.644 4.319,6.982 6.567,7.854 6.199,2.405 13.666,0.411 19.046,-3.01 2.46,-1.564 10.432,-9.345 6.875,-12.644 -2.764,-2.563 -8.494,2.545 -10.041,4.339 -4.174,4.843 -4.734,10.483 0.12,15.224 4.643,4.532 12.18,1.38 16.289,-2.099 5.302,-4.488 9.29,-10.821 13.134,-16.521 1.971,-2.922 3.862,-5.897 5.747,-8.875 0.771,-1.221 2.1,-2.669 2.492,-4.085 0.09,-0.326 -0.135,-0.523 -0.388,-0.666 -3.77,-2.13 -9.146,7.973 -10.342,9.785 -3.347,5.068 -6.062,10.521 -8.306,16.156 -0.96,2.412 -3.184,6.934 -1.568,9.511 2.67,4.259 11.248,-6.57 12.176,-7.733 3.938,-4.938 7.878,-9.792 12.195,-14.412 1.63,-1.744 3.306,-3.445 5.011,-5.116 0.56,-0.547 3.366,-2.647 2.067,-2.236 -0.727,-0.138 -1.454,-0.276 -2.182,-0.415 0.376,0.659 -7.951,9.65 -8.706,10.583 -4.211,5.202 -8.451,10.59 -11.438,16.609 -0.876,1.764 2.94,0.834 3.588,0.047 6.413,-7.789 15,-11.881 24.843,-13.317 14.59,-2.129 29.788,-1.335 44.299,0.944 1.184,0.186 4.553,-1.709 2.379,-2.051 -16.403,-2.577 -33.525,-3.257 -49.938,-0.354 -9.893,1.75 -18.765,6.951 -25.17,14.731 1.196,0.016 2.392,0.031 3.588,0.047 3.363,-6.778 8.28,-12.749 13.04,-18.581 0.821,-1.006 8.198,-8.257 7.38,-9.694 -0.406,-0.713 -1.498,-0.631 -2.182,-0.415 -3.802,1.205 -7.063,5.883 -9.665,8.629 -5.44,5.744 -10.074,12.085 -15.26,18.031 -1.018,1.167 -2.177,2.334 -3.477,3.194 0.99,0.339 1.279,0.173 0.866,-0.497 -0.059,-0.606 -0.024,-1.207 0.102,-1.802 0.671,-4.766 3.204,-9.619 5.327,-13.854 1.95,-3.892 4.287,-7.591 6.79,-11.148 1.042,-1.481 2.614,-4.313 4.183,-5.21 -0.911,0.125 -1.822,0.249 -2.732,0.374 -1.007,-0.568 -2.669,3.066 -3.504,4.385 -2.014,3.177 -4.071,6.324 -6.19,9.432 -3.949,5.791 -14.596,23.237 -22.394,13.421 -2.957,-3.721 -1.821,-7.866 0.785,-11.246 0.131,-0.169 3.595,-3.664 3.803,-3.215 0.91,1.965 -1.819,5.401 -2.877,6.802 -3.63,4.81 -10.249,6.552 -15.928,5.337 -1.502,-0.321 -9.083,-3.449 -6.817,-6.193 -1.241,0.076 -2.482,0.152 -3.724,0.228 -0.791,2.499 -1.518,5.357 -3.383,7.307 0.641,-0.669 0.604,0.004 -0.346,-0.936 -0.453,-0.449 -0.797,-1.021 -1.141,-1.551 -2.332,-3.584 -2.833,-7.469 -0.032,-11.048 -1.241,0.076 -2.482,0.152 -3.724,0.228 -1.085,3.591 -2.575,7.13 -4.734,10.207 -2.827,4.026 -5.317,-0.927 -5.889,-3.866 -0.709,-3.653 0.735,-7.187 2.754,-10.121 0.541,-0.763 1.153,-1.465 1.836,-2.106 -1.538,-0.321 -2.336,0.167 -2.391,1.465 -0.537,1.8 -1.616,3.435 -2.64,4.989 -2.312,3.512 -5.428,6.563 -8.848,8.986 -5.942,4.21 -14.038,2.595 -18.737,-2.801 -0.672,-0.771 -3.7,-0.157 -3.727,0.999 -0.077,3.471 1.351,10.71 6.34,9.374 2.072,-0.555 2.574,-2.033 2.898,-3.997 0.845,-5.131 1.313,-9.958 3.257,-14.858 0.967,-2.436 2.303,-4.716 3.906,-6.78 -1.072,-0.672 -1.446,-0.311 -1.124,1.083 -0.167,1.181 -0.633,2.193 -1.312,3.154 -2.641,3.742 -9.459,4.383 -13.56,4.894 -4.511,0.562 -18.406,2.211 -17.547,-5.622 -1.287,0.256 -2.574,0.513 -3.861,0.769 2.27,5.565 -1.521,13.807 -3.748,18.984 -0.522,1.215 3.212,0.7 3.724,-0.228 2.783,-5.047 3.521,-10.269 -2.205,-13.253 -3.126,-1.629 -8.489,-2.68 -11.992,-1.754 -4.335,1.146 -4.525,10.158 -5.439,13.565 -0.372,1.39 -0.818,2.792 -1.615,4 0.526,-0.798 -0.517,-2.963 -0.725,-3.774 -0.424,-1.656 -0.385,-3.509 -0.306,-5.186 0.201,-4.246 3.712,-7.5 7.243,-9.234 -0.648,-0.435 -1.297,-0.87 -1.945,-1.305 -6.466,3.505 -11.126,9.394 -15.834,14.884 -0.768,0.895 -1.548,1.768 -2.429,2.552 1.603,0.599 2.282,0.461 2.039,-0.413 -0.086,-0.517 -10e-4,-1.07 0.038,-1.587 0.212,-2.757 0.813,-5.506 1.351,-8.213 1.213,-6.114 2.672,-12.183 4.187,-18.229 1.295,-5.17 1.668,-10.461 -1.489,-15.198 -1.113,0.555 -2.227,1.11 -3.339,1.665 6.063,2.3 12.378,2.875 18.75,3.789 3.558,0.509 7.259,2.873 10.849,1.632 5.635,-1.948 8.737,-9.275 11.063,-14.201 2.872,-6.083 6.105,-13.559 5.912,-20.432 -0.15,-5.383 -9.26,-2.909 -12.128,-2.165 -21.747,5.645 -42.191,20.678 -55.204,38.701 -5.813,8.05 -10.517,16.93 -14.448,26.033 -0.978,2.263 -6.962,17.829 -0.077,15.984 2.591,-0.694 3.438,-5.258 4.413,-7.351 3.014,-6.47 6.247,-12.844 9.541,-19.175 3.171,-6.097 6.562,-12.083 8.532,-18.708 0.77,-2.587 0.198,-3.637 3.185,-4.402 1.786,-0.457 3.672,-0.669 5.507,-0.837 1.867,-0.172 3.231,-2.32 0.548,-2.075 l 0,0 z M 0.048,31.141 c -2.176,11.357 69.494,-2.223 72.049,-2.715 24.319,-4.687 48.479,-10.253 72.43,-16.555 4.519,-1.189 9.032,-2.403 13.524,-3.688 1.247,-0.356 2.912,-1.655 1.248,-2.701 -3.067,-1.927 -10.188,2.075 -12.745,3.186 -12.013,5.22 -23.79,11.606 -34.855,18.604 -5.083,3.215 -12.654,7.55 -14.549,13.738 -0.915,2.986 1.332,6.568 2.049,9.394 1.436,5.657 -4.81,10.815 -7.729,15.086 -4.202,6.15 -11.283,16.1 -10.247,24.026 0.503,3.85 7.462,0.452 9.087,-0.375 15.607,-7.944 29.898,-20.324 42.662,-32.154 5.012,-4.646 10.16,-9.686 14.037,-15.325 2.039,-2.965 -1.204,-2.929 -3.323,-2.068 -12.992,5.277 -16.891,18.379 -21.385,30.534 -2.293,6.204 -5.638,13.559 -5.413,20.342 0.115,3.467 4.192,1.547 5.85,0.458 4.766,-3.133 8.947,-7.345 13.048,-11.274 1.713,-1.641 7.741,-5.951 7.704,-8.672 -0.004,-0.316 -0.532,-0.445 -0.739,-0.496 -4.771,-1.172 -9.478,6.72 -10.708,10.125 -2.186,6.05 2.713,11.044 8.194,12.359 8.429,2.021 17.035,-4.148 22.738,-9.511 1.842,-1.733 13.359,-12.458 8.826,-15.622 -3.592,-2.506 -9.682,2.455 -11.96,4.741 -3.189,3.2 -4.4,8.196 -4.253,12.586 0.117,3.503 2.302,6.045 5.939,4.554 6.443,-2.642 9.594,-12.154 12.087,-17.921 -1.286,0.17 -2.571,0.341 -3.856,0.512 -2.046,5.83 -2.277,17.556 6.882,16.359 9.057,-1.184 17.429,-9.821 22.213,-17.1 1.027,-1.563 -2.486,-0.789 -2.979,-0.544 -5.971,2.968 -11.488,10.038 -4.864,15.558 2.053,1.71 5.496,1.9 7.883,0.828 4.012,-1.803 5.627,-5.204 5.971,-9.487 0.123,-1.528 -3.266,-0.613 -3.72,0.241 -2.155,4.051 0.165,9.382 5.044,8.812 8.076,-0.942 15.141,-7.787 20.663,-13.141 1.646,-1.597 -1.977,-1.203 -2.727,-0.811 -4.309,2.256 -5.888,6.544 -5.05,11.177 0.703,3.882 4.609,6.221 7.973,3.398 2.719,-2.281 4.091,-5.778 5.887,-8.773 0.71,-1.185 1.472,-2.414 2.434,-3.416 -1.366,0.016 -1.577,0.166 -0.631,0.451 0.972,0.417 1.837,0.976 2.685,1.608 4.949,3.697 -4.809,12.02 2.698,14.098 1.166,0.323 4.539,-1.43 2.385,-2.026 -3.944,-1.092 0.259,-6.9 0.725,-9.099 0.375,-1.772 -1.037,-3.375 -2.213,-4.457 -1.812,-1.666 -4.691,-3.158 -7.138,-2.148 -3.749,1.547 -5.819,7.114 -7.608,10.327 -0.843,1.515 -1.402,3.139 -2.638,1.026 -0.918,-1.57 -1.03,-3.804 -0.966,-5.534 0.084,-2.29 1.863,-4.542 3.833,-5.573 -0.909,-0.271 -1.818,-0.541 -2.727,-0.811 -3.771,3.657 -7.698,7.107 -12.215,9.822 -1.5,0.901 -4.346,2.665 -5.992,1.271 -1.505,-1.274 -1.704,-4.542 -0.836,-6.171 -1.24,0.08 -2.48,0.161 -3.72,0.241 -0.194,2.417 -1.052,8.532 -5.194,7.29 -2.345,-0.703 -3.645,-3.245 -4.075,-5.448 -0.711,-3.642 3.715,-6.805 6.509,-8.193 -0.993,-0.182 -1.986,-0.363 -2.979,-0.544 -3.815,5.804 -10.119,12.708 -16.898,14.885 -7.66,2.46 -6.038,-10.975 -4.756,-14.625 0.456,-1.299 -3.368,-0.618 -3.856,0.512 -2.201,5.093 -4.482,10.807 -8.379,14.902 -0.966,1.016 -0.758,1.01 -1.354,-0.238 -0.494,-1.035 -0.554,-2.285 -0.592,-3.407 -0.091,-2.738 0.707,-5.679 1.93,-8.107 0.656,-1.302 6.393,-7.618 7.349,-5.596 1.53,3.236 -5.783,9.94 -7.457,11.681 -4.9,5.097 -12.33,11.494 -19.95,9.038 -3.206,-1.034 -5.388,-3.903 -5.813,-7.171 -0.388,-2.988 1.374,-5.866 3.104,-8.104 0.727,-0.941 1.61,-1.718 2.514,-2.477 1.759,-1.477 -1.195,-1.24 -1.946,-0.329 -4.537,5.504 -10.263,10.4 -15.711,14.968 -1.138,0.954 -2.303,1.886 -3.544,2.702 -1.146,0.754 1.253,0.88 0.968,0.054 -0.162,-0.47 -0.141,-1.073 -0.128,-1.55 0.119,-4.307 1.879,-8.766 3.208,-12.798 2.138,-6.488 4.595,-12.901 7.256,-19.191 1.813,-4.286 3.908,-8.579 7.507,-11.644 1.74,-1.482 4.415,-3.301 6.628,-4.033 -2.12,0.702 -1.023,-0.825 -1.921,0.625 -0.39,0.629 -0.871,1.208 -1.326,1.791 -2.036,2.608 -4.338,5.022 -6.582,7.449 C 123.137,64.258 107.548,76.361 92,85.822 c -1.813,1.103 -4.542,3.194 -6.75,3.313 -1.438,0.077 1.934,-9.5 2.262,-10.261 2.186,-5.066 5.141,-9.839 8.248,-14.384 2.786,-4.076 7.13,-7.643 7.52,-12.833 0.28,-3.726 -2.774,-7.014 -2.372,-10.692 0.342,-3.126 3.775,-5.725 5.983,-7.551 9.898,-8.182 22.217,-13.964 33.612,-19.69 4.408,-2.215 8.949,-4.467 13.666,-5.96 0.684,-0.216 1.426,-0.464 2.151,-0.463 -0.279,0 -0.201,-0.031 -0.197,-0.065 0.019,-0.18 2.807,-1.268 0.41,-0.59 -2.229,0.63 -4.462,1.241 -6.697,1.847 C 114.751,18.002 79.022,26.238 43.05,31.549 40.81,31.88 2.719,36.815 3.905,30.63 4.175,29.218 0.291,29.879 0.048,31.141 l 0,0 z" />
</svg>