<?xml version="1.0" encoding="UTF-8" standalone="no"?>
<!-- Created with Inkscape (http://www.inkscape.org/) -->

<svg
   xmlns:dc="http://purl.org/dc/elements/1.1/"
   xmlns:cc="http://creativecommons.org/ns#"
   xmlns:rdf="http://www.w3.org/1999/02/22-rdf-syntax-ns#"
   xmlns:svg="http://www.w3.org/2000/svg"
   xmlns="http://www.w3.org/2000/svg"
   xmlns:sodipodi="http://sodipodi.sourceforge.net/DTD/sodipodi-0.dtd"
   xmlns:inkscape="http://www.inkscape.org/namespaces/inkscape"
   width="536.96381"
   height="128.75"
   id="svg2"
   version="1.1"
   inkscape:version="0.48.2 r9819"
   sodipodi:docname="Nouveau document 1">
  <defs
     id="defs4" />
  <sodipodi:namedview
     id="base"
     pagecolor="#ffffff"
     bordercolor="#666666"
     borderopacity="1.0"
     inkscape:pageopacity="0.0"
     inkscape:pageshadow="2"
     inkscape:zoom="1.979899"
     inkscape:cx="251.33904"
     inkscape:cy="50.923804"
     inkscape:document-units="px"
     inkscape:current-layer="layer1"
     showgrid="false"
     fit-margin-top="0"
     fit-margin-left="0"
     fit-margin-right="0"
     fit-margin-bottom="0"
     showborder="true"
     inkscape:showpageshadow="false"
     inkscape:window-width="1366"
     inkscape:window-height="706"
     inkscape:window-x="-8"
     inkscape:window-y="-8"
     inkscape:window-maximized="1" />
  <metadata
     id="metadata7">
    <rdf:RDF>
      <cc:Work
         rdf:about="">
        <dc:format>image/svg+xml</dc:format>
        <dc:type
           rdf:resource="http://purl.org/dc/dcmitype/StillImage" />
        <dc:title></dc:title>
      </cc:Work>
    </rdf:RDF>
  </metadata>
  <g
     inkscape:label="Calque 1"
     inkscape:groupmode="layer"
     id="layer1"
     transform="translate(-123.66096,-167.98718)">
    <g
       transform="matrix(1.25,0,0,-1.25,119.37477,296.73718)"
       inkscape:label="ink_ext_XXXXXX"
       id="g2993">
      <g
         transform="scale(0.1,0.1)"
         id="g2995">
        <path
           id="path2997"
           style="fill:#000000;fill-opacity:1;fill-rule:nonzero;stroke:none"
           d="m 700,1020 c 0,-6 4,-10 10,-10 6,0 10,4 10,10 0,6 -4,10 -10,10 -6,0 -10,-4 -10,-10"
           inkscape:connector-curvature="0" />
        <path
           id="path2999"
           style="fill:#000000;fill-opacity:1;fill-rule:nonzero;stroke:none"
           d="M 730,982.973 C 664.781,949.66 625.098,899 585.875,799 534.492,668 527.492,558.563 564.758,469 570.184,455.961 551,453.68 418,451.563 175,447.688 58.9766,429.598 36,392 15.9844,359.25 173,333 435,325.293 c 99,-2.91 247.5,-7.836 330,-10.941 209.844,-7.899 411,-12.489 849,-19.375 209,-3.289 381.8,-7.551 384,-9.477 2.29,-2 -0.85,-12.5 -7.31,-24.5 -18.84,-35 -8.19,-92.062 21.31,-114.121 41.19,-30.805 85.05,-9.879 165.83,79.121 l 67.17,74 300,0 -78.5,-42.5 c -43,-23.281 -103.6,-65.336 -134,-93 -53,-48.227 -55.2,-52.121 -48.87,-86.5 9.5,-51.5586 54.37,-78 132.37,-78 102.77,0 230.64,78 304.91,186 43.37,63.066 19.18,54 -37.36,-14 C 2607.88,80.9648 2519,29.668 2426,23.3438 2348,18.0391 2316.36,33.5 2312.09,79 c -2.66,28.387 3.41,39.012 43.41,76 25.54,23.617 90,65.539 143,93 l 96.5,50 165,6 c 90.95,3.309 257,8.469 370,11.5 113,3.031 274.56,9.988 360,15.5 85,5.484 193.39,12.297 240,15.086 432,25.859 600,66.715 600,145.914 0,58.023 -62,108.574 -162,132.082 -51.17,12.031 -39,-12.168 14,-27.84 C 4279,567.559 4324.36,523.184 4305.91,475 4287.8,427.688 4004,378.285 3675,365.18 c -72,-2.871 -159,-7.278 -195,-9.879 -136.54,-9.871 -241,-15.051 -405,-20.082 -94,-2.887 -223.65,-7.903 -290,-11.219 -66,-3.301 -117.75,-3.75 -115,-1 2.75,2.75 41,19.852 85,38 44,18.148 96.88,43.352 117.5,56 35,21.465 36.73,24.668 26,48 -6.44,14 -15.46,25 -20.5,25 -5.4,0 -6.6,4 -3,10 3.29,5.484 34,10 68,10 110,0 367.71,53.039 436,89.73 44,23.645 101,82.489 101,104.27 0,33.859 -26,62.547 -72,79.434 -61.71,22.66 -249,46.066 -345,43.117 -80,-2.457 -84.28,-3.797 -118.5,-37.051 -29,-28.184 -34.95,-40.91 -32.5,-69.5 2.66,-31 6.14,-34.941 30.5,-34.5 15,0.273 27.5,-0.863 27.5,-2.5 0,-1.648 -12.88,-30 -28.62,-63 -28.62,-60 -27.95,-91.246 1,-47 18.05,27.586 74.17,162 83.09,199 10.16,42.137 56.53,46.305 244.53,21.961 80,-10.359 146.51,-33.703 170.84,-59.961 21.38,-23.078 22.03,-27 8.49,-51 C 3405.13,604.645 3173,542.211 2865,525.844 2804,522.605 2719.36,515.77 2675,510.5 c -44.24,-5.254 -128.5,-12.406 -188.5,-16 L 2378,488 l 16.5,28.5 c 9.26,16 21.66,35.516 28.27,44.5 19.86,27 148.47,85.004 133.03,60 -10.56,-17.113 50.2,-13.625 86.2,4.953 46,23.735 128,84.625 128,95.047 0,8.988 -69,-29.801 -100,-56.219 -8.29,-7.062 -32,-19.789 -53,-28.445 -53.39,-22.012 -43,1.305 14,31.418 24,12.68 47.29,32.336 51.25,43.246 7.97,22 0.12,49 -14.25,49 -13.38,0 -58,-50 -58,-65 0,-11 -140.25,-86.297 -148,-79.461 -10.62,9.363 54,81.399 100,111.481 67,43.82 120.93,95.773 144.27,138.98 21.61,40 14.08,53.051 -18.27,31.691 C 2659.86,879.117 2539.42,761 2519.05,732 2511.44,721.168 2483,704.613 2457,695.879 c -63,-21.156 -74.5,-19.805 -43,5.047 35.32,27.871 33,40.637 -5,27.469 -17,-5.891 -38.45,-8.227 -49.5,-5.395 -13,3.332 -24.5,-2 -34.5,-16 l -15,-21 0,22 c 0,30.625 -12,28.398 -96,-17.801 -79,-43.449 -84,-45.246 -84,-30.199 0,5.539 14.5,16.691 32.5,25 l 32.5,15 -40,-4.5 -40,-4.5 25,19.5 c 21,16.379 22.12,19.5 7,19.5 -10,0 -30,-8.668 -45,-19.5 -14.85,-10.727 -45,-22.648 -67,-26.5 -39,-6.824 -39.59,-6.523 -23.71,12 31.71,37 39.68,61.156 29.03,88 -8.43,21.238 -16.82,26 -45.82,26 -20,0 -48.38,-6.551 -65,-15 -27,-13.73 -31.62,-13.645 -54.5,1 l -25,16 22.5,18.5 c 19,15.621 19.78,18.578 5,19 -10,0.285 -17.5,-2.93 -17.5,-7.5 0,-10.668 -46,-32 -69,-32 -16.53,0 -16.03,4 6.15,49 26.12,53 23.97,91 -5.15,91 -20.24,0 -51.3,-28 -112.06,-101 -24.97,-30 -60.49,-70.445 -79.94,-91 l -35,-37 -49,33.5 c -27,18.461 -54.25,46.07 -60.69,61.5 -15.04,36 -40.88,57.609 -60.31,50.426 -23.83,-8.817 -18,-32.094 15,-59.86 41,-34.496 42.65,-76.566 3,-76.566 -15,0 -39.61,-6.656 -53,-14.332 -47,-26.949 -51.08,-27.691 -68,-12.379 -22,19.906 -54.55,5.266 -34,-15.289 17.29,-17.293 15,-23.695 -13,-36.285 -36,-16.184 -75,-14.477 -75,3.285 0,8 3.27,15.117 7,15.25 19,0.68 55.4,38.152 48.32,49.75 -5.35,8.77 -14.32,5.445 -33.32,-12.34 -29,-27.148 -148.65,-74.008 -160,-62.66 -4,4 2,14.039 14,23.426 81,63.355 80.29,62.629 57,58.074 -13,-2.543 -23,-1.023 -23,3.5 0,11.961 37,23.184 50,15.168 5.8,-3.582 10,0.332 10,9.332 0,9.301 -8,15.5 -20,15.5 -30,0 -71.11,-30.262 -67.91,-50 1.58,-9.762 -10.59,-30.586 -26.59,-45.5 -27,-25.168 -28.059,-28.551 -12.5,-39.914 15.55,-11.352 93,-4.434 117,10.453 4.27,2.645 13.79,-2.039 20.41,-10.039 18.71,-22.602 72.59,-17.906 113.59,9.906 34,23.059 36.51,23.473 31,5.094 -4.43,-14.781 0,-22.215 17,-28.492 32.25,-11.906 55,-3.199 98,37.512 25,23.671 40.39,48.636 45,72.98 l 7,37 45,-30.5 c 36,-24.398 44.06,-35.301 40.3,-54.5 -6.17,-31.535 23.7,-58.453 55.7,-50.195 13.29,3.433 51.44,35.195 85.5,71.195 34.06,36 69.53,65 79.5,65 10.18,0 28,7.02 41,16.148 22,15.45 71,12.586 71,-4.148 0,-4.488 -18,-25.094 -41,-46.941 -67,-63.633 -74.49,-118.332 -13,-94.973 48,18.238 84,59.344 84,95.914 0,26 5.44,34.25 29,44 16,6.621 39.54,10.43 52.5,8.5 20.14,-3 23.29,-8.5 22,-38.5 -0.94,-22 -9.67,-41.512 -23.5,-52.531 -29,-23.11 -39.21,-22.324 -33,2.531 2.75,11 0.05,20 -6,20 -16,0 -25.44,-49.559 -12,-63 10.86,-10.863 99,0.613 144,18.746 12.86,5.18 19.61,1.254 23.62,-13.746 11.19,-41.805 33.38,-38.195 135.38,22 51,30.098 56.12,28.461 31.23,-10 -24.19,-37.391 -7.23,-40.852 34.77,-7.098 40,32.149 98.47,57.418 74.27,32.098 -21.68,-22.691 -14.27,-39 17.73,-39 17,0 39.58,4.59 50,10.164 56.36,30.145 -25,-74.57 -87,-111.98 -30,-18.098 -67.27,-43 -82,-54.786 -33.4,-26.718 -134,-31.433 -831,-38.953 -278,-2.996 -518.484,-7.39 -535,-9.773 -55.707,-8.043 -57.305,5.328 -9.465,79.328 49.133,76 63.098,125.047 46.129,162 C 938.23,725.25 896,728.59 831,705.539 800,694.547 790.059,693.926 790.234,703 790.66,724.668 815,748.043 845,755.602 c 48,12.086 92.148,43.214 108.363,76.398 8.797,18 13.52,35.5 10.793,40 -6.808,11.25 -38.156,10 -50.156,-2 -7.699,-7.699 -12.961,1 -17.531,29 C 882.754,983 805.922,1021.76 730,982.973 z M 847,956.316 C 870.066,936.395 873.855,925.5 873,881.5 872.086,834.5 868.129,826.066 827.699,785 778.473,735 752.691,693.605 764,682.73 c 3.855,-3.707 38,-1.339 76,5.27 38,6.609 75.738,9.305 84,6 21.668,-8.668 19.5,-46 -5.687,-98 C 900.875,560 894.09,553.836 881,562.086 861.75,574.223 808,550.031 731,494.57 695,468.645 673,460 643,460 c -50.871,0 -62.078,14 -73.652,92 -7.68,51.75 -5.598,78 11.652,147 38,152 84.414,226.262 164,262.398 53,24.063 69.191,23.254 102,-5.082 z M 1779.5,864 c -12.23,-25 -31.86,-54.676 -43,-65 -11,-10.195 -21.58,-26.414 -22.83,-35 -3.07,-21.043 -29.67,-50.219 -77.67,-85.195 -49,-35.703 -56,-35.555 -56,1.195 0,23.199 21.5,52.5 107.5,146.5 75.94,83 108.53,112.508 111,100.5 1.9,-9.238 -6.77,-38 -19,-63 z m 865,-45 c -27.18,-28 -58.52,-55.508 -69.5,-61 -10.99,-5.496 9.05,19.5 44.5,55.5 35.45,36 66.75,63.473 69.5,61 2.75,-2.469 -17.32,-27.5 -44.5,-55.5 z M 941.621,843 C 927.352,816.418 899,793.793 870,785.848 c -20.406,-5.59 -16,1.5 24,38.597 C 944,870.816 959.875,877 941.621,843 z M 1428,838 c 18.86,-18.855 14,-29.656 -8,-17.789 -11,5.934 -20,15.289 -20,20.789 0,12.5 14,11 28,-3 z m 1575.24,-69 c -1.6,-34 -31.65,-69 -59.24,-69 -21.86,0 -16.99,31 11.48,73 30.27,44.648 49.97,43 47.76,-4 z M 1862,697.961 c -17,-16.977 -35.85,-28.012 -43.5,-25.461 -9.11,3.039 -0.5,16.887 26.5,42.613 47,44.782 62.93,28.711 17,-17.152 z M 2670,731 c 0,-4.398 -9,-16.086 -20,-25.965 -22.62,-20.32 -25.82,-14.035 -7.62,14.965 12.56,20 27.62,26 27.62,11 z M 1418.66,693 C 1381,645 1330,622.566 1330,654 c 0,18.285 42,41.883 98,55.059 2.12,0.5 -2.28,-7.059 -9.34,-16.059 z M 855,500.5 848,460 l -133,0 34,22.582 c 65,43.176 105.215,66.203 109,62.418 2.172,-2.172 0.801,-22.5 -3,-44.5 z m 1505.5,10 c -14.8,-21 -29.75,-30.5 -48,-30.5 -17,0 -23.27,3.184 -17.5,8.883 17,16.781 79.25,58.234 83,55.273 2.23,-1.758 -5.52,-16.656 -17.5,-33.656 z M 2868,488 c 26.05,-26.055 12,-45.215 -55,-74.965 -207,-91.922 -203.18,-90.972 -391,-97.254 L 2249,310 l 40.41,57 c 76.93,108.539 61.59,100.469 205.59,108.105 72,3.821 167.92,10.208 215,14.317 131,11.441 145.27,11.312 158,-1.422 z M 2320.5,452.5 C 2314.73,442.875 2290.65,408 2267,375 l -43,-60 -77,-2.5 c -47,-1.527 -77,1.395 -77,7.5 0,18.262 173,139.086 205,143.172 17,2.168 35.63,4.476 43,5.328 9.66,1.113 10.3,-3 2.5,-16 z m -151.5,-24 c -24.54,-17.566 -67,-50.961 -96,-75.5 l -52,-44 -378,5.363 c -423,6.004 -611.75,11.395 -883,25.211 -102,5.199 -261.27,11.891 -355,14.922 C 166,362.219 80,371.617 80,390 c 0,19.434 81,30.855 289,40.762 163,7.761 220.32,7.336 237,-1.762 16.063,-8.762 30.5,-9.031 53.5,-1 21.309,7.441 229.5,11.137 643.5,11.43 549,0.383 823.92,5.953 836,16.933 2.17,1.973 20,3.637 39,3.637 l 35,0 -44,-31.5 z m 3.96,-177.5 c -45.79,-59 -93.81,-94 -128.96,-94 -34.59,0 -45.74,19 -39.92,68 7.2,60.504 31.92,75 127.92,75 l 79,0 -38.04,-49"
           inkscape:connector-curvature="0" />
        <path
           id="path3001"
           style="fill:#000000;fill-opacity:1;fill-rule:nonzero;stroke:none"
           d="m 2815.61,934 c -19.13,-46 -13.72,-53.105 13.7,-18 23.44,30 25.9,40.301 11.69,48.93 -5.41,3.281 -17.07,-10.93 -25.39,-30.93"
           inkscape:connector-curvature="0" />
        <path
           id="path3003"
           style="fill:#000000;fill-opacity:1;fill-rule:nonzero;stroke:none"
           d="M 2822,752.996 C 2731,671.461 2718.49,619.512 2776,562 c 19,-19 37.74,-32.027 41,-28.5 3.29,3.566 -8,18.945 -25,34.055 -52.31,46.496 -47,80.871 23,148.953 30,29.176 55,58.039 55,63.492 0,15 -3,13.313 -48,-27.004"
           inkscape:connector-curvature="0" />
      </g>
    </g>
  </g>
</svg>
