<?xml version="1.0" encoding="UTF-8"?>
<svg version="1.1" xmlns="http://www.w3.org/2000/svg" width="441" height="95" >
<path d="M41.988,42.867c5.844-1.428,11.503-4.951,14.469-10.265c3.419-6.125,0.741-12.946-5.832-14.962 C37.81,13.708,8.369,32.644,25.37,44.893c3.457,2.491,7.648,1.675,9.874-1.879c2.039-3.257-0.918-4.871-3.851-3.878 c-3.897,1.319-7.314,4.337-10.463,6.874c-5.011,4.036-9.545,8.7-12.681,14.353C5.091,66.054,4.619,72.766,7.581,78.6 c5.576,10.983,23.319,3.167,29.332-3.581c3.629-4.072,5.762-12.336,1.75-16.802c-2.279-2.537-6.74-1.504-9.384-0.237 c-1.221,0.585-0.155,2.396,1.06,1.813c1.196-0.573,2.536-0.894,3.852-0.991c5.343-0.395,4.638,6.723,3.776,10.082 c-2.102,8.189-12.545,12.134-20.059,12.796c-6.012,0.53-8.771-2.777-10.008-8.379c-2.319-10.5,7.338-19.822,14.515-25.808 c3.017-2.517,6.712-5.665,10.646-6.665c1.947-0.495-1.132,2.781-1.708,3.112c-2.866,1.643-6.36-1.71-7.75-3.86 c-3.542-5.474,1.441-11.062,5.609-14.209c5.726-4.325,26.142-12.863,26.624,0.938c0.259,7.438-8.074,12.486-14.403,14.032 C40.115,41.163,40.673,43.188,41.988,42.867L41.988,42.867z"/>
<path d="M38.399,73.334c7.51-5.177,14.972-10.424,22.374-15.753c4.199-3.023,8.384-6.074,12.439-9.287 c2.584-2.048,5.601-4.874,5.549-8.459c-0.033-2.266-2.165-2.885-4.021-2.552c-5.553,0.999-10.159,8.103-13.23,12.13 C53.706,59.648,46.492,70.58,40.418,81.942c-0.638,1.194,1.175,2.254,1.813,1.06c4.073-7.62,8.76-14.936,13.601-22.084 c4.425-6.535,8.963-13.358,14.796-18.724c1.395-1.284,3.384-2.883,5.384-2.959c2.083-0.08-0.963,4.447-1.26,4.811 c-2.505,3.081-6.369,5.368-9.528,7.706c-4.047,2.995-8.147,5.92-12.254,8.834c-5.186,3.68-10.397,7.327-15.632,10.936 C36.232,72.284,37.281,74.105,38.399,73.334L38.399,73.334z"/>
<path d="M65.151,60.329c-2.717,2.683-5.304,5.507-7.761,8.429c-2.242,2.666-6.321,6.84-5.981,10.658c0.119,1.338,2.22,1.35,2.1,0 c-0.332-3.728,4.691-8.422,6.881-10.944c1.993-2.296,4.083-4.521,6.248-6.657C67.601,60.861,66.115,59.377,65.151,60.329 L65.151,60.329z"/>
<path d="M94.199,31.372c-0.128-1.747-0.256-3.494-0.384-5.241c-0.098-1.342-2.199-1.352-2.1,0 c0.128,1.747,0.256,3.494,0.384,5.241C92.197,32.714,94.298,32.723,94.199,31.372L94.199,31.372z"/>
<path d="M63.949,79.284c3.1-3.442,6.321-6.782,9.657-9.995c2.033-1.958,4.141-3.938,6.542-5.438 c2.316-1.447,0.152,2.679-0.204,3.371c-0.45,0.875-3.979,6.19-5.631,4.899c-0.155,0.585-0.309,1.17-0.463,1.755 c3.228-1.285,6.75-2.493,10.248-2.542c1.367-0.02,2.427,2.111,3.761,2.664c1.273,0.528,2.929-0.279,4.032-0.841 c3.917-1.994,3.83-7.213,6.348-10.39c2.315-2.923,7.093-8.62,10.929-9.418c1.325-0.276,0.763-2.3-0.559-2.025 c-2.9,0.604-5.938,3.997-7.996,5.894c-3.256,3.001-6.336,6.312-7.132,10.766c-0.369,2.064-2.64,3.765-4.603,4.025 c-0.809,0.107-1.582-1.501-2.157-2.01c-0.89-0.786-2.326-0.769-3.425-0.753c-3.366,0.048-6.909,1.374-10.004,2.605 c-0.638,0.254-1.156,1.213-0.463,1.755c3.487,2.725,7.369-2.739,8.93-5.325c0.842-1.396,2.977-7.701-0.827-6.991 c-3.855,0.719-7.549,5.272-10.176,7.839c-2.859,2.792-5.617,5.7-8.292,8.669C61.561,78.802,63.041,80.292,63.949,79.284 L63.949,79.284z"/>
<path d="M141.877,53.079c4.623-5.568,9.19-11.184,13.709-16.836c3.104-3.882,6.177-7.792,9.163-11.767 c1.755-2.336,4.044-4.875,5.038-7.674c0.428-1.207-1.267-1.7-1.919-0.809c-3.316,4.526-7.842,12.214-4.223,17.657 c2.252,3.387,9.213-0.628,11.592-1.804c7.831-3.871,15.114-9.021,22.093-14.238c4.572-3.417,10.188-7.098,13.426-11.912 c0.683-1.014-0.815-2.087-1.648-1.272c-10.398,10.165-20.632,20.506-30.707,30.99c-7.096,7.384-14.13,14.85-20.782,22.64 c-2.957,3.462-8.588,8.648-9.089,13.5c-0.091,0.878,1.237,1.44,1.792,0.743c8.955-11.257,18.521-22.2,28.936-32.128 c4.278-4.079,12.373-13.135,19.13-11.417c3.881,0.987-4.551,8.389-5.681,9.362c-2.663,2.294-5.592,4.682-8.724,6.328 c-1.219,0.641-0.15,2.355,1.06,1.813c1.326-0.594,2.71-1.052,4.11-1.431c5.088-1.38,2.522,2.825,0.931,5.503 c-1.954,3.287-3.927,6.555-6.134,9.68c-1.237,1.75-2.646,3.487-4.396,4.752c-2.925,2.113-3.725-3.593-4.009-5.277 c-0.225-1.333-2.249-0.766-2.025,0.559c0.484,2.868,2.065,9.363,6.469,6.884c5.487-3.089,8.829-10.359,11.909-15.538 c1.396-2.347,4.885-7.183,0.851-8.839c-2.522-1.036-6.486,0.874-8.765,1.894c0.353,0.604,0.707,1.209,1.06,1.813 c3.3-1.734,6.307-4.274,9.149-6.656c2.499-2.093,7.283-5.774,7.389-9.469c0.23-8.037-12.143-1.067-14.562,0.678 c-14.724,10.625-26.938,25.869-38.183,40.003c0.598,0.248,1.195,0.495,1.792,0.743c0.186-1.795,1.964-3.762,2.968-5.151 c2.202-3.046,4.668-5.908,7.125-8.748c6.611-7.639,13.587-14.967,20.593-22.243c9.608-9.979,19.371-19.819,29.276-29.502 c-0.55-0.424-1.1-0.849-1.648-1.272c-2.671,3.971-7.355,7.072-11.079,9.946c-5.501,4.247-11.246,8.2-17.18,11.815 c-4.091,2.492-9.393,6.187-14.362,6.34c-5.603,0.173,1.878-13.667,3.358-15.686c-0.64-0.27-1.279-0.539-1.919-0.809 c-0.916,2.581-3.217,5.015-4.826,7.173c-3.069,4.118-6.271,8.137-9.479,12.147c-4.304,5.384-8.662,10.727-13.065,16.03 C139.534,52.627,141.011,54.121,141.877,53.079L141.877,53.079z"/>
<path d="M204.884,49.41c-4.618,3.914-9.192,8.118-12.866,12.945c-0.806,1.06-2.99,3.841-1.698,5.252 c0.93,1.016,2.485,0.111,3.408-0.425c4.57-2.654,8.749-6.813,12.074-10.87c1.632-1.991,4.858-7.303-0.176-7.21 c-1.353,0.025-1.355,2.125,0,2.1c1.222-0.022,0.667,0.621,0.171,1.512c-0.892,1.603-2.184,2.994-3.422,4.332 c-2.721,2.937-5.781,5.734-9.119,7.955c-0.488,0.324-1.005,0.655-1.551,0.874c-0.925,0.37,0.558-0.435,0.347,0.717 c0.086-0.473,0.336-0.908,0.558-1.326c1.249-2.364,3.274-4.376,5.106-6.289c2.726-2.846,5.647-5.534,8.653-8.081 C207.403,50.019,205.91,48.541,204.884,49.41z"/>
<path d="M219.308,48.749c-3.455,5.096-6.91,10.191-10.364,15.287c0.604,0.353,1.208,0.707,1.813,1.06 c1.403-2.693,2.969-5.313,4.692-7.813c0.949-1.377,2.283-3.51,3.938-4.146c1.243-0.479,0.606,8.65,0.546,9.246 c-0.092,0.906,1.215,1.4,1.792,0.743c3.432-3.913,7.131-7.931,9.761-12.442c0.684-1.172-1.131-2.229-1.813-1.06 c-2.545,4.362-6.111,8.229-9.433,12.016c0.598,0.248,1.194,0.495,1.792,0.743c0.231-2.28,1.188-15.463-4.863-10.303 c-3.6,3.069-6.066,7.814-8.225,11.958c-0.63,1.209,1.056,2.176,1.813,1.06c3.455-5.096,6.91-10.191,10.364-15.287 C221.883,48.685,220.063,47.635,219.308,48.749L219.308,48.749z"/>
<path d="M251.839,47.936c-4.18-1.921-8.659,0.301-11.926,2.925c-1.8,1.445-6.894,6.712-4.896,9.675 c5.193,7.701,23.266-15.707,25.013-18.883c4.524-8.23,2.227-20.093-7.146-23.753c-13.496-5.271-23.797,8.952-28.587,19.493 c-0.556,1.223,1.253,2.291,1.813,1.06c3.979-8.754,10.688-19.537,21.569-19.547c7.865-0.007,12.847,7.482,12.56,14.729 c-0.219,5.501-3.712,9.896-7.141,13.863c-3.692,4.273-7.87,8.604-12.873,11.333c-3.814,2.081-3.809-0.291-1.97-3.036 c2.365-3.531,7.916-8.164,12.522-6.045C252,50.311,253.067,48.501,251.839,47.936L251.839,47.936z"/>
<path d="M262.851,48.1c-4.095,4.804-8.189,9.608-12.284,14.413c-0.873,1.024,0.604,2.518,1.484,1.485 c4.095-4.804,8.189-9.608,12.284-14.413C265.208,48.561,263.73,47.068,262.851,48.1L262.851,48.1z"/>
<path d="M273.601,50.721c-2.688,2.912-5.374,5.824-8.061,8.735c-0.916,0.993,0.515,2.438,1.484,1.485 c3.401-3.343,6.978-6.611,10.846-9.407c0.998-0.722,2.036-1.403,3.144-1.946c0.365-0.179,0.75-0.305,1.148-0.385 c0.26-0.052,0.15,0.122,0.084-0.065c0.37,1.044-0.508,2.75-0.869,3.682c-1.099,2.831-2.621,5.518-4.103,8.16 c-0.663,1.182,1.15,2.241,1.813,1.06c1.579-2.815,3.104-5.666,4.315-8.661c0.587-1.451,1.164-3.079,0.902-4.663 c-0.459-2.789-3.991-1.192-5.393-0.381c-4.948,2.864-9.313,7.132-13.372,11.122c0.495,0.495,0.989,0.99,1.484,1.485 c2.688-2.912,5.374-5.824,8.061-8.735C276.002,51.212,274.521,49.724,273.601,50.721L273.601,50.721z"/>
<path d="M299.704,45.043c-3.698,3.212-11.952,9.537-11.401,15.126c0.517,5.241,10.495-7.352,11.161-8.101 c3.519-3.954,9.5-4.989,14.111-7.476c11.522-6.214,21.175-15.576,29.456-25.58c0.849-1.025-0.544-2.489-1.484-1.485 c-11.184,11.935-22.712,23.999-32.299,37.276c-1.282,1.777-5.645,9.773,0.392,6.984c6.167-2.849,12.043-7.311,17.255-11.652 c1.753-1.46,4.226-3.375,5.166-5.568c0.528-1.23-1.28-2.301-1.813-1.06c-0.596,1.388-1.992,2.543-3.051,3.555 c-4.994,4.772-11.104,8.572-17.016,12.079c-1.335,0.792-1.951,0.642-1.916,1.52c-0.028-0.708,0.742-1.678,1.084-2.247 c1.762-2.933,3.979-5.618,6.123-8.273c8.694-10.774,18.094-21.028,27.559-31.128c-0.495-0.495-0.989-0.99-1.484-1.485 c-10.456,12.63-23.46,24.706-39.432,29.735c-4.45,1.401-7.747,7.737-10.857,10.948c-0.313,0.317-0.638,0.621-0.976,0.909 c0.026,0.214,0.054,0.428,0.08,0.642c0.082-0.771,0.332-1.487,0.75-2.146c1.021-1.998,2.647-3.706,4.146-5.35 c1.849-2.028,3.858-3.938,5.93-5.737C302.213,45.639,300.721,44.16,299.704,45.043L299.704,45.043z"/>
<path d="M283.938,31.112c26.518,2.803,53.803,1.495,80.258-1.062c22.871-2.21,46.144-4.735,68.584-9.895 c1.319-0.304,0.76-2.328-0.559-2.025c-22.904,5.267-46.629,7.753-69.971,10.009c-25.792,2.492-52.465,3.605-78.313,0.874 C282.592,28.87,282.605,30.972,283.938,31.112L283.938,31.112z"/>
</svg>