<?xml version="1.0" encoding="UTF-8" standalone="no"?>
<!-- Created with Inkscape (http://www.inkscape.org/) -->
<svg
   xmlns:svg="http://www.w3.org/2000/svg"
   xmlns="http://www.w3.org/2000/svg"
   version="1.0"
   width="588"
   height="213"
   id="svg2">
  <defs
     id="defs5" />
  <path
     d="M 145.5,184.65719 C 135.91244,181.49006 129.34789,176.45664 125.78557,169.54098 C 123.01795,164.16811 123.62173,150.48502 126.89134,144.48191 C 128.08425,142.29169 130.37935,138.06719 131.99156,135.09413 C 134.92951,129.67632 141.28415,122.82515 148.19049,117.62948 C 152.3323,114.51358 152.31021,111.9997 148.14103,111.9997 C 146.68629,111.9997 140.78286,112.89779 135.02231,113.99545 C 129.26175,115.09311 123.76609,115.74285 122.80973,115.43931 C 121.31121,114.9637 115.59532,118.04539 113.96773,120.20642 C 113.14123,121.30381 96.96495,131.9997 96.131781,131.9997 C 95.72466,131.9997 93.39096,133.26434 90.945781,134.81002 C 82.675579,140.03787 73.395709,142.02884 65.064904,140.36268 C 61.219962,139.59369 56.472613,135.06658 54.460027,130.24979 C 53.108349,127.01477 51.303895,116.5263 51.793367,114.7497 C 51.907015,114.3372 51.768894,113.9997 51.486431,113.9997 C 50.883755,113.9997 46.727157,116.27254 46,116.9997 C 45.216281,117.78342 39.837761,120.80574 36.13255,122.54446 C 32.948924,124.03843 32.662335,124.01438 30.88255,122.10401 C 27.591493,118.57147 28.508595,116.64313 35.25,112.92081 C 38.6875,111.02277 43.8077,108.38382 46.628222,107.0565 L 51.756445,104.64317 L 52.515523,97.071431 C 53.460536,87.645009 53.652684,86.16378 55.05441,77.499695 C 55.677285,73.649695 56.504078,67.702972 56.891729,64.284755 C 57.279379,60.866537 57.89216,57.774202 58.253464,57.412898 C 59.747095,55.919266 107.9537,43.999695 112.5008,43.999695 C 116.74297,43.999695 119,45.736082 119,48.999695 C 119,52.333132 117.3737,53.514827 111.48159,54.4627 C 105.92719,55.356246 95.274201,57.720683 83.5,60.673233 C 78,62.052436 72.825,63.306362 72,63.459734 C 65.460456,64.675473 66.061217,63.184553 62.544423,86.92583 C 60.431517,101.18971 60.184746,100.51345 66.267611,97.128994 C 71.579493,94.173514 84.673653,87.639237 104,78.299693 C 116.10004,72.452294 132.01582,65.999695 134.3388,65.999695 C 136.57709,65.999695 138.30634,69.717978 137.63324,73.083474 C 137.32091,74.645166 135.47803,79.134738 133.53797,83.0603 L 130.01058,90.197684 L 132.00529,92.733548 C 134.58614,96.014567 134.53057,99.405153 131.82417,103.78421 L 129.64833,107.30478 L 132.07417,106.72416 C 146.6503,103.23541 154.0381,103.79446 156.20497,108.55021 C 157.51321,111.42148 158.28278,111.57406 160.46252,109.39433 C 161.55105,108.30579 161.82171,107.09851 161.30322,105.64433 C 160.88265,104.46478 160.52987,101.48406 160.51927,99.020487 C 160.50485,95.669595 160.91025,94.460483 162.12862,94.220538 C 164.61158,93.731544 167,96.763497 167,100.40446 C 167,102.19851 167.25198,103.91835 167.55996,104.22633 C 167.86794,104.53431 171.80544,103.47499 176.30996,101.87229 C 180.81448,100.2696 185.35404,99.080107 186.39787,99.228993 C 189.55055,99.678673 190.57799,102.38227 189.34776,106.99132 C 188.39452,110.56265 188.48268,111.18766 190.05871,112.03112 C 191.63993,112.87737 192.00943,112.31664 193.10935,107.40168 C 194.21138,102.47727 194.14576,101.25342 192.55986,97.154526 C 191.56932,94.594369 190.38364,90.474695 189.92501,87.999695 C 189.46639,85.524695 188.81083,82.374695 188.46822,80.999695 C 187.40509,76.73305 187.19213,56.923904 188.11344,47.999695 C 189.13831,38.072487 192.57623,25.690984 194.88627,23.607688 C 196.29169,22.340225 196.75335,22.338163 198.46259,23.591717 C 200.14161,24.82311 200.46475,26.437535 200.69905,34.765385 C 200.84968,40.119256 201.02058,44.499695 201.07882,44.499695 C 201.13706,44.499695 201.29087,49.705129 201.42063,56.067326 C 201.55038,62.429524 201.90564,68.054524 202.21008,68.567326 C 203.16843,70.181564 203.01445,86.846864 201.97337,94.187466 C 201.0659,100.58599 201.16524,101.531 203.06927,104.61179 C 205.5827,108.6786 208.32234,108.96357 210.65662,105.40101 C 212.93725,101.92033 215.88079,100.92431 219.07169,102.55356 C 222.27597,104.18964 231,114.2801 231,116.35018 C 231,118.70167 228.84073,119.50237 227.48805,117.65248 C 226.82336,116.74345 225.6869,115.9997 224.96258,115.9997 C 224.23827,115.9997 222.39603,114.5372 220.86872,112.7497 L 218.09179,109.4997 L 214.48292,113.2497 C 212.49804,115.3122 210.18014,116.9997 209.33205,116.9997 C 208.48395,116.9997 205.85439,115.69334 203.48859,114.09668 L 199.18714,111.19367 L 196.82304,119.83694 C 195.06362,126.26944 193.99302,128.56995 192.63739,128.83102 C 190.80408,129.18408 187.74304,125.85659 187.33336,123.0653 C 186.28032,115.89043 184.8185,115.69205 183.10634,122.49166 C 182.03915,126.72986 182.16902,127.41444 185.14891,133.25866 C 186.89913,136.69123 188.85437,140.1747 189.49388,140.9997 C 191.48003,143.56192 194.00027,153.00597 193.99442,157.86453 C 193.9864,164.53568 192.21521,170.13066 189.92148,170.73049 C 188.86466,171.00685 188,171.67821 188,172.22241 C 188,174.06257 182.12056,178.16153 173,182.67995 C 168.4651,184.92659 165.92074,185.45505 158.5,185.69163 C 152.95765,185.86831 147.96327,185.4709 145.5,184.65719 z M 165.0685,176.40263 C 176.71614,172.97776 179.7409,171.11678 184.50014,164.4473 C 186.97506,160.97901 189,157.61599 189,156.97393 C 189,153.20218 184.02429,141.29707 180.82884,137.42326 C 178.80971,134.97548 176.98927,132.46751 176.78343,131.84999 C 176.52006,131.05989 175.76332,131.13056 174.22939,132.08851 C 172.30591,133.28975 171.87407,133.21759 170.55661,131.47475 C 169.70328,130.34591 169.04998,127.33223 169.0318,124.44083 C 169.01431,121.65845 168.4019,118.56401 167.6709,117.5643 C 166.4675,115.91855 165.98614,115.87526 162.58121,117.10649 C 160.51289,117.85441 158.39765,119.25669 157.88067,120.22267 C 157.36369,121.18865 155.49155,122.7159 153.72036,123.61656 C 149.86929,125.57484 140.86062,134.67614 137.49305,140.01071 C 132.51618,147.89458 130.62062,157.46148 131.92486,168.11334 C 132.1799,170.19619 138.18472,174.29986 143.39443,175.9516 C 150.93772,178.34319 157.97105,178.48955 165.0685,176.40263 z M 83.535095,129.56538 C 85.715793,128.61271 88.175,127.44486 89,126.97014 C 89.825,126.49542 92.75,124.89636 95.5,123.41666 C 100.04141,120.97306 109.04277,115.01998 113.11243,111.76861 C 114.22163,110.88244 114.71088,108.92293 114.68005,105.49005 C 114.65539,102.74536 115.37077,98.362195 116.26978,95.749695 L 117.90434,90.999695 L 113.78408,90.999695 C 108.38357,90.999695 96.75949,92.984517 95.55,94.11318 C 95.0275,94.600763 93.415,94.999695 91.966667,94.999695 C 90.518333,94.999695 88.995833,95.337195 88.583333,95.749695 C 88.170833,96.162195 87.533333,96.53856 87.166667,96.586062 C 85.498754,96.802139 77.75885,100.05687 72.890316,102.58946 C 71.45499,103.3361 70.056615,103.72298 69.782817,103.44918 C 69.509018,103.17538 68.715776,103.63724 68.020056,104.47553 C 67.324336,105.31383 66.247711,106.01467 65.627555,106.03297 C 58.602289,106.24025 57.254047,123.86817 63.804415,129.87007 C 66.119386,131.9912 67.084234,132.19086 72.980792,131.76896 C 76.604961,131.50965 81.354397,130.51804 83.535095,129.56538 z M 174.45729,111.0688 C 175.19684,109.8722 173.31567,108.68657 171.98369,109.50978 C 170.86533,110.20096 171.59952,111.9997 173,111.9997 C 173.48508,111.9997 174.14086,111.58079 174.45729,111.0688 z M 127.35968,98.677154 C 129.35226,94.563836 127.80316,92.810783 125.07319,96.089614 C 122.70831,98.929941 122.25709,103.22201 124.41023,102.39577 C 125.18586,102.09814 126.51311,100.42476 127.35968,98.677154 z M 115.22305,88.150635 C 120.71038,87.526506 121.06902,87.305393 123.93034,82.782315 C 125.57167,80.187756 126.5412,77.834174 126.08485,77.552133 C 125.2664,77.046303 112.97055,81.870389 112,83.078104 C 110.76404,84.616088 106.84315,85.999695 103.72073,85.999695 C 101.49271,85.999695 99.64939,86.743125 98.404988,88.143591 L 96.5,90.287486 L 103,89.544531 C 106.575,89.135906 112.07537,88.508653 115.22305,88.150635 z M 199,85.666362 C 199,84.933028 198.729,84.062024 198.39777,83.730796 C 198.06654,83.399568 197.61092,80.062068 197.38529,76.314129 C 196.952,69.116834 196.23679,54.546326 196.06907,49.499695 C 195.88865,44.070613 194.26531,48.827806 194.12108,55.208287 C 194.04641,58.511671 193.81823,61.503623 193.61401,61.857068 C 193.10399,62.739779 194.71873,82.538133 195.50203,85.006096 C 196.20698,87.227183 199,87.754385 199,85.666362 z M 506,176.73037 C 501.16747,175.03116 497.6435,168.27451 498.42299,162.20265 C 499.02379,157.52272 505.73972,140.9997 507.04112,140.9997 C 507.4832,140.9997 508.37403,139.39642 509.02074,137.43686 C 509.66746,135.47729 511.98069,130.52729 514.16126,126.43686 C 516.34183,122.34642 517.85677,118.9997 517.52778,118.9997 C 517.1988,118.9997 517.35884,118.19772 517.88342,117.21753 C 518.57293,115.92917 518.34239,114.77934 517.05138,113.06782 C 515.34906,110.811 515.15541,110.77744 512.91027,112.35 C 509.58493,114.67916 507.46513,114.40647 505.05239,111.33917 C 502.4838,108.07375 502.30835,98.202335 504.80189,97.245474 C 506.63459,96.542201 509,99.585371 509,102.64647 C 509,104.84855 509.10788,104.87292 512.91295,103.53041 C 516.40571,102.2981 516.98,102.3297 518.26095,103.82477 C 519.05023,104.74598 519.97528,106.2872 520.31662,107.2497 C 520.65795,108.2122 521.28885,108.99161 521.71862,108.98173 C 522.42175,108.96556 528.91482,99.890803 529.90144,97.54537 C 530.34967,96.479814 530.54319,96.233308 535.6287,90.249695 C 537.61536,87.912195 539.85125,85.999695 540.59735,85.999695 C 542.99254,85.999695 544.79299,90.309636 545.50751,97.753649 C 545.89045,101.74333 546.52857,105.20834 546.92554,105.45368 C 547.32251,105.69902 550.50481,105.01039 553.99732,103.9234 C 557.53641,102.82191 560.72765,102.32735 561.20646,102.80616 C 562.77219,104.37189 560.93758,106.72466 556.6911,108.59679 C 552.81671,110.30487 551.05349,111.68649 551.01531,113.04421 C 551.00689,113.3437 553.25442,115.30797 556.00983,117.40927 C 560.86534,121.11213 563.17413,125.24133 561.37678,127.00791 C 560.89455,127.48188 555.41197,127.98321 549.19326,128.12198 C 542.97456,128.26075 537.67715,128.71306 537.42125,129.12712 C 537.16535,129.54118 538.31588,131.42881 539.97798,133.32184 C 541.64009,135.21488 543,137.28095 543,137.9131 C 543,138.54525 543.65375,139.31334 544.45278,139.61995 C 545.25181,139.92657 547.27001,142.30375 548.93767,144.90257 C 552.58276,150.58295 553.14975,156.77452 550.53034,162.29452 C 548.45422,166.66961 545.88064,168.65619 537,172.73873 C 528.09291,176.83343 512.13637,178.88804 506,176.73037 z M 526.27815,167.51547 C 532.6883,165.84584 541.01391,161.77311 543.26756,159.20459 C 546.649,155.35069 545.8881,149.74494 541.37033,145.22717 C 540.61665,144.47349 540,143.45974 540,142.97438 C 540,142.48903 536.62579,138.58367 532.50176,134.29581 C 528.37772,130.00795 524.7474,125.7122 524.43437,124.7497 C 524.12134,123.7872 523.45159,122.9997 522.94603,122.9997 C 521.90129,122.9997 519,129.45346 519,131.77743 C 519,132.62085 517.875,134.78587 516.5,136.58859 C 515.125,138.39131 514,140.68838 514,141.6932 C 514,142.69801 512.875,144.7334 511.5,146.21627 C 510.125,147.69915 508.99322,149.49455 508.98494,150.20606 C 508.96588,151.84421 506.81793,157.8243 505.22386,160.67726 C 504.55468,161.87491 504.27373,163.67491 504.59952,164.67726 C 504.92531,165.6796 505.35957,167.0622 505.56455,167.7497 C 506.09265,169.52097 519.14517,169.37337 526.27815,167.51547 z M 532.05757,118.2497 C 532.8837,117.2872 535.29651,115.06995 537.41937,113.32248 C 541.53448,109.93504 541.71413,108.61641 539.02286,101.55334 L 537.90019,98.606976 L 534.4501,102.48499 C 532.55254,104.6179 531,106.90137 531,107.55938 C 531,108.21739 530.12872,109.37314 529.06383,110.12773 C 526.09639,112.23045 525.87126,119.9997 528.77776,119.9997 C 529.75553,119.9997 531.23144,119.2122 532.05757,118.2497 z M 546.75047,117.2497 C 547.36267,115.41104 544.31989,115.7237 543.6105,117.57235 C 543.18966,118.66903 543.51052,119.04735 544.67064,118.82235 C 545.58564,118.64489 546.52156,117.9372 546.75047,117.2497 z M 256.5,137.06009 C 250.46857,136.02075 244.72257,132.62219 239.98415,127.29151 C 235.58104,122.33805 231,113.47285 231,109.90545 C 231,108.78497 230.60076,107.1103 230.11279,106.18396 C 229.25573,104.55693 228.10065,87.841798 227.4622,67.827181 L 227.15365,58.154667 L 230.62253,56.508577 C 234.43972,54.697199 261.99904,49.633225 274.28755,48.48521 C 280.99674,47.858424 282.34684,48.003607 284.03755,49.533676 C 285.1169,50.510473 286,51.899093 286,52.619499 C 286,53.987335 282.60988,56.276237 281.79334,55.459701 C 281.53504,55.201406 278.88838,55.478524 275.91186,56.07552 C 272.93534,56.672515 268.025,57.557325 265,58.041764 C 255.08816,59.629099 244.57595,61.685089 240.37397,62.858157 C 237.0088,63.79761 236.1413,64.543205 235.66966,66.901375 C 235.07002,69.899599 235.83895,95.171976 236.55149,95.884523 C 236.99874,96.331769 244.05371,93.760825 251,90.619256 C 253.475,89.499898 255.725,88.547999 256,88.503925 C 256.275,88.459852 258.20359,87.59446 260.28576,86.580834 C 262.36792,85.567207 264.35641,85.022767 264.70461,85.370967 C 265.05281,85.719168 266.09719,85.316724 267.02547,84.476648 C 268.50312,83.139386 268.86425,83.131202 269.92632,84.410912 C 270.91961,85.607761 270.47621,86.49812 267.47903,89.325153 C 265.46582,91.224065 261.94696,93.607194 259.65933,94.620996 C 257.3717,95.634798 254.90536,97.034742 254.17857,97.731984 C 253.45179,98.429225 252.45491,98.999695 251.9633,98.999695 C 251.47169,98.999695 248.94073,100.3497 246.33895,101.9997 C 243.73717,103.6497 240.77615,104.9997 239.75891,104.9997 C 238.16735,104.9997 238.0043,105.52277 238.58989,108.7497 C 240.64613,120.08069 250.58338,128.97228 261.21505,128.99412 C 266.58576,129.00515 273.39849,125.77682 279.63973,120.26326 C 286.03144,114.61676 289.02206,109.60588 286.56341,108.66241 C 284.44374,107.84901 283.78399,101.97832 285.51531,99.335984 C 287.35487,96.528466 290.63489,96.273984 291.46034,98.874735 C 291.78765,99.906007 291.97501,104.51851 291.87669,109.12474 C 291.73734,115.65326 291.25384,118.16112 289.68366,120.4997 C 286.15321,125.7579 276.65888,133.91103 272.79222,135.00502 C 270.75294,135.58198 268.81389,136.49182 268.48321,137.02687 C 267.81759,138.10387 262.64049,138.11822 256.5,137.06009 z M 339.57774,137.12549 C 339.19506,136.5063 337.98556,135.9997 336.88996,135.9997 C 333.79967,135.9997 331.94337,130.16474 329.891,113.9997 C 327.83416,97.799411 326.12557,89.231854 323.26635,80.780949 C 321.05979,74.259084 321.25857,68.632169 323.82384,64.999695 C 327.21069,60.20387 344.89923,53.500529 356.16777,52.742481 C 358.5505,52.582192 361.0228,52.122467 361.66179,51.720871 C 362.30077,51.319275 367.25077,50.087367 372.66179,48.983298 C 378.0728,47.879229 385.48144,46.061147 389.12543,44.943117 C 397.90577,42.249175 400.95233,42.089481 402.35415,44.249695 C 404.74853,47.939451 401.72719,49.671833 384.5,54.486932 C 373.92928,57.44151 370.92824,58.073378 370.04853,57.529687 C 369.54785,57.220248 368.88764,57.372487 368.58139,57.867995 C 368.27515,58.363504 365.88156,59.069557 363.2623,59.437002 C 358.94847,60.042171 355.88126,60.827267 345,64.111493 C 339.86505,65.661345 332.75604,68.976485 330.75,70.756684 C 328.06151,73.142503 328.2305,74.528259 333.46246,92.999695 C 334.31928,96.024695 335.2215,100.5247 335.46739,102.9997 C 336.43913,112.78054 338.82812,128.91258 339.45504,129.92695 C 340.25952,131.22863 344.37993,131.33152 346.76357,130.10945 C 347.71861,129.61981 350.46104,128.38231 352.85787,127.35945 C 355.2547,126.33659 359.9797,124.13256 363.35787,122.46161 L 369.5,119.42352 L 369.78621,109.71161 C 370.00174,102.39827 370.4037,99.999695 371.41377,99.999695 C 373.63898,99.999695 374.7176,102.20515 375.44856,108.2497 C 375.83101,111.4122 376.46152,113.9997 376.84972,113.9997 C 378.11125,113.9997 380.68484,110.39154 381.36975,107.66264 C 382.34713,103.76845 385.58541,104.1827 388.15041,108.53005 C 389.82783,111.37306 390.64778,111.92888 392.36188,111.38484 C 393.53256,111.01329 395.73005,110.74453 397.24519,110.78761 C 399.54689,110.85305 400,110.44947 400,108.33395 C 400,105.0019 402.88817,98.999695 404.4915,98.999695 C 405.18648,98.999695 406.32683,99.688573 407.0256,100.53054 C 408.05697,101.77327 408.01204,103.23187 406.78688,108.28054 C 405.95682,111.70108 405.45461,114.81755 405.67086,115.20603 C 406.4995,116.6946 408.71656,114.77069 410.02997,111.42331 C 411.69737,107.17374 413.70596,107.28274 416.48662,111.77368 C 418.07332,114.33631 419.02974,114.936 420.99974,114.60349 C 422.3746,114.37143 425.01706,114.81564 426.87187,115.59063 C 430.55082,117.12779 433.39325,117.44501 432.64539,116.23495 C 432.38544,115.81434 433.69716,112.17908 435.56034,108.15661 C 438.12889,102.61126 439.37455,100.92518 440.71248,101.18285 C 441.68298,101.36975 442.64936,102.4175 442.85999,103.51118 C 443.07061,104.60487 444.35754,106.82433 445.71984,108.44333 C 447.08213,110.06233 448.59133,112.42483 449.07362,113.69333 C 450.21533,116.69625 450.76901,116.62963 458.21558,112.59329 C 465.13034,108.84521 467.87869,108.98431 470.07008,113.19329 C 470.73054,114.46182 471.39135,115.64359 471.53855,115.81946 C 471.94276,116.30238 480.16897,111.98333 482.88486,109.86225 C 484.39085,108.68608 486.89874,107.9997 489.69018,107.9997 C 494.05755,107.9997 494.13986,108.06352 496.54285,113.31233 C 497.88056,116.23428 499.26192,120.05928 499.61253,121.81233 C 500.15965,124.54797 499.96573,124.9997 498.24423,124.9997 C 496.81696,124.9997 495.43586,123.4134 493.45571,119.4997 C 491.08189,114.80793 490.26209,113.9997 487.87695,113.9997 C 486.22596,113.9997 484.14295,114.98433 482.79047,116.40405 C 479.6133,119.73918 473.93425,122.99149 471.27994,122.99596 C 469.97904,122.99815 468.15837,121.78035 466.88247,120.05461 L 464.70507,117.10951 L 460.71189,119.14668 C 458.51564,120.26713 455.77391,122.06407 454.61914,123.13989 C 452.12277,125.46562 448.31074,124.88835 446.19225,121.86379 C 444.83,119.9189 444.72279,119.94998 441.90426,123.10694 C 439.22746,126.10514 438.82893,126.24611 436.52116,125.01103 C 435.06039,124.22924 430.54819,123.64046 425.61901,123.58845 C 418.95307,123.5181 416.78923,123.1196 415.18416,121.66674 C 413.2155,119.88476 413.1285,119.89107 412.05667,121.89382 C 410.40052,124.98835 407.5755,126.169 404.56547,125.02459 C 403.15446,124.48813 402,123.44907 402,122.71558 C 402,121.98209 401.40876,120.57338 400.68612,119.58513 C 399.48834,117.94706 399.07206,118.28361 395.97484,123.394 C 394.10626,126.47713 391.96536,128.9997 391.21728,128.9997 C 389.5647,128.9997 387,126.5706 387,125.00539 C 387,124.37994 386.51846,122.96845 385.92991,121.86873 C 384.88443,119.91525 384.77516,119.9328 381.17991,122.63161 C 379.15596,124.15091 377.23125,125.78307 376.90279,126.25864 C 376.57432,126.7342 375.22432,127.00146 373.90279,126.85255 C 371.92298,126.62946 364.98275,129.51071 357,133.86976 C 351.85019,136.68186 350.22978,137.2237 345.51441,137.71037 C 342.1569,138.05689 340.02348,137.84671 339.57774,137.12549 z M 394.75,116.7497 C 394.27811,115.33403 392.67002,115.48965 392.16667,116.9997 C 391.98333,117.5497 392.58333,117.9997 393.5,117.9997 C 394.41667,117.9997 394.97917,117.4372 394.75,116.7497 z M 400,113.9997 C 400,113.4497 399.52344,112.9997 398.94098,112.9997 C 398.35852,112.9997 398.16008,113.4497 398.5,113.9997 C 398.83992,114.5497 399.31648,114.9997 399.55902,114.9997 C 399.80156,114.9997 400,114.5497 400,113.9997 z M 139.25,94.503864 C 137.66074,92.698771 137.63105,87.768642 139.2,86.199695 C 140.9082,84.491499 144.92953,84.717824 149,86.751249 C 152.67741,88.58832 153.52793,90.808574 151,91.97216 C 150.175,92.351901 148.00103,93.413445 146.16896,94.331146 C 142.16087,96.338838 140.89343,96.370477 139.25,94.503864 z M 477.46376,90.749695 C 476.11944,87.862195 475.01514,84.969338 475.00977,84.321124 C 474.99556,82.60709 477.99569,79.878995 479.12636,80.577792 C 481.91777,82.302978 487.99358,91.448639 487.93661,93.839493 C 487.87787,96.304667 487.8107,96.344938 487.02029,94.388795 C 486.55118,93.2278 485.35592,91.966516 484.36416,91.585942 C 483.3724,91.205368 482.86891,91.201941 483.2453,91.578325 C 484.12049,92.45352 482.25453,95.999695 480.91881,95.999695 C 480.36286,95.999695 478.80809,93.637195 477.46376,90.749695 z M 159.03518,75.065436 C 157.23395,71.699806 157.8118,69.021748 160.5651,67.974944 C 165.87807,65.954957 171,67.286233 171,70.68715 C 171,72.168699 163.77178,76.999695 161.55506,76.999695 C 160.73848,76.999695 159.60453,76.129279 159.03518,75.065436 z"
     id="path2384"
     style="fill:#000000" />
</svg>
