<?xml version="1.0" encoding="UTF-8" standalone="no"?>
<!-- Created with Inkscape (http://www.inkscape.org/) -->
<svg
   xmlns:dc="http://purl.org/dc/elements/1.1/"
   xmlns:cc="http://creativecommons.org/ns#"
   xmlns:rdf="http://www.w3.org/1999/02/22-rdf-syntax-ns#"
   xmlns:svg="http://www.w3.org/2000/svg"
   xmlns="http://www.w3.org/2000/svg"
   xmlns:sodipodi="http://sodipodi.sourceforge.net/DTD/sodipodi-0.dtd"
   xmlns:inkscape="http://www.inkscape.org/namespaces/inkscape"
   width="216.09"
   height="95"
   id="svg2"
   inkscape:label="Pozadí"
   sodipodi:version="0.32"
   inkscape:version="0.46"
   version="1.0"
   sodipodi:docname="Emil_Hacha_signature.svg"
   inkscape:output_extension="org.inkscape.output.svg.inkscape">
  <defs
     id="defs3">
    <inkscape:perspective
       sodipodi:type="inkscape:persp3d"
       inkscape:vp_x="0 : 526.18109 : 1"
       inkscape:vp_y="0 : 1000 : 0"
       inkscape:vp_z="744.09448 : 526.18109 : 1"
       inkscape:persp3d-origin="372.04724 : 350.78739 : 1"
       id="perspective9" />
    <inkscape:perspective
       id="perspective2446"
       inkscape:persp3d-origin="372.04724 : 350.78739 : 1"
       inkscape:vp_z="744.09448 : 526.18109 : 1"
       inkscape:vp_y="0 : 1000 : 0"
       inkscape:vp_x="0 : 526.18109 : 1"
       sodipodi:type="inkscape:persp3d" />
  </defs>
  <sodipodi:namedview
     id="base"
     pagecolor="#ffffff"
     bordercolor="#666666"
     borderopacity="1.0"
     inkscape:pageopacity="0.0"
     inkscape:pageshadow="2"
     inkscape:zoom="1.4"
     inkscape:cx="193.52903"
     inkscape:cy="58.857143"
     inkscape:document-units="px"
     inkscape:current-layer="layer1"
     showgrid="false"
     inkscape:window-width="640"
     inkscape:window-height="667"
     inkscape:window-x="22"
     inkscape:window-y="25" />
  <metadata
     id="metadata6">
    <rdf:RDF>
      <cc:Work
         rdf:about="">
        <dc:format>image/svg+xml</dc:format>
        <dc:type
           rdf:resource="http://purl.org/dc/dcmitype/StillImage" />
      </cc:Work>
    </rdf:RDF>
  </metadata>
  <g
     inkscape:label="Vrstva 1"
     inkscape:groupmode="layer"
     id="layer1">
    <path
       style="fill:#000000"
       d="M 175.96324,92.396787 C 173.80903,90.242577 171.80072,84.404567 171.79131,80.269277 C 171.78697,78.363727 171.51906,78.085947 170.58573,79.019277 C 167.95289,81.652117 165.91474,80.408717 165.58626,75.969277 L 165.27179,71.719277 L 163.49062,75.682677 C 158.72622,86.284297 155.78573,84.915787 155.78573,72.096837 C 155.78573,63.724167 154.70441,60.749417 153.28573,65.219277 C 152.6839,67.115487 150.7815,68.068107 150.78947,66.469277 C 150.7985,64.657127 154.89565,59.219277 156.25198,59.219277 C 158.12486,59.219277 158.70984,61.733977 159.04347,71.219277 L 159.30727,78.719277 L 161.10898,74.719277 C 162.09992,72.519277 163.58959,69.233787 164.41937,67.418187 C 165.24915,65.602587 166.17991,62.565087 166.48773,60.668187 C 166.91954,58.007257 167.53158,57.214397 169.16657,57.197927 C 170.48438,57.184647 172.35016,55.672057 174.10058,53.197927 C 177.17711,48.849417 179.78573,47.997707 179.78573,51.341727 C 179.78573,53.001447 179.49383,53.221917 178.44684,52.352987 C 177.39653,51.481307 176.45753,52.263147 174.09014,55.980547 C 172.43033,58.586847 170.55277,62.263467 169.91776,64.150797 C 168.76776,67.568797 169.32652,74.219277 170.7637,74.219277 C 171.49446,74.219277 174.24858,68.528337 178.02291,59.219277 C 179.81069,54.809867 179.83927,54.789737 179.44247,58.219277 C 179.21974,60.144277 178.03817,65.319277 176.81676,69.719277 C 173.29568,82.403527 175.3035,91.251367 181.69072,91.197317 C 186.86624,91.153517 197.99145,84.740827 206.53573,76.876397 C 210.94306,72.819747 212.07037,70.489297 209.03573,71.708227 C 208.07323,72.094827 206.72323,72.641117 206.03573,72.922197 C 203.12969,74.110317 205.08228,71.306437 208.18686,69.833217 C 215.79,66.225297 216.98878,69.003387 210.53573,75.276557 C 200.56948,84.964977 188.41202,92.756547 181.51459,93.875847 C 178.81234,94.314367 177.54249,93.976037 175.96324,92.396787 z M 5.0226369,78.994507 C 4.4452169,78.293127 3.7826269,74.643387 3.5502169,70.883957 C 3.3023569,66.874517 2.6054569,63.725897 1.8645269,63.267977 C 0.85299694,62.642817 0.86685694,62.062227 1.9340969,60.353297 C 2.6670969,59.179587 3.5597069,58.219277 3.9176869,58.219277 C 4.2756769,58.219277 5.3680969,56.306777 6.3453069,53.969277 C 7.6604769,50.823357 8.2334569,50.205887 8.5509169,51.592397 C 8.7867969,52.622607 8.1486269,54.647607 7.1327569,56.092397 C 5.6038369,58.266847 5.3414369,60.226297 5.6091969,67.469277 C 5.7871069,72.281777 6.3380569,76.219277 6.8335169,76.219277 C 9.1074069,76.219277 16.570127,56.499007 17.444447,48.179837 C 18.023457,42.670477 18.005607,42.624457 14.156177,39.705067 C 7.5314769,34.68093 4.0456069,29.03485 5.8079169,26.18338 C 6.4425969,25.15644 7.4838669,25.50701 10.455777,27.7482 C 12.562247,29.33674 14.435727,30.99258 14.619057,31.42786 C 15.447107,33.39386 16.763957,31.7424 19.179387,25.70876 C 20.612867,22.12797 21.785727,18.30297 21.785727,17.20876 C 21.785727,16.11455 22.235727,15.21928 22.785727,15.21928 C 24.534707,15.21928 23.874887,19.05258 20.715947,27.244 C 18.794377,32.2268 17.895327,35.98925 18.312307,37.303027 C 19.403077,40.739757 24.464857,42.087477 37.156057,42.320287 C 43.594787,42.438407 49.097047,42.913997 49.383297,43.377157 C 50.670707,45.460227 54.369917,43.878357 58.521897,39.469277 C 60.982067,36.85678 64.363337,33.25678 66.035847,31.46928 C 69.330097,27.94854 70.785727,27.39552 70.785727,29.66472 C 70.785727,30.4597 69.552327,31.7013 68.044837,32.42382 C 66.537347,33.14635 64.706717,34.98358 63.976767,36.50656 C 63.246817,38.029537 60.368977,41.462437 57.581547,44.135217 L 52.513517,48.994817 L 55.066927,50.667877 C 56.895747,51.866167 58.636997,52.150207 61.203027,51.668817 C 63.567227,51.225287 64.785727,51.374657 64.785727,52.107987 C 64.785727,52.719197 64.201807,53.219277 63.488117,53.219277 C 62.774437,53.219277 59.104707,54.799547 55.333167,56.730987 C 47.737497,60.620787 45.846027,60.798287 51.256487,57.113537 C 55.366087,54.314727 55.433297,54.104787 52.755147,52.432257 C 51.005397,51.339517 50.266277,51.513697 47.410757,53.691707 C 42.278577,57.606217 41.583607,57.127927 42.365237,50.219277 L 43.044057,44.219277 L 33.664887,44.205627 C 28.506347,44.198117 23.339797,43.938037 22.183667,43.627677 C 20.283957,43.117707 20.028497,43.576247 19.529777,48.391337 C 18.060737,62.574817 8.3571269,83.044817 5.0226369,78.994507 z M 47.539807,50.969277 C 49.410737,48.967297 49.484657,48.504747 48.210377,46.773027 C 46.487947,44.432277 45.287167,45.451017 44.442957,49.969277 C 43.729827,53.786077 44.634417,54.078177 47.539807,50.969277 z M 14.785727,35.53373 C 14.785727,34.51924 10.574937,30.21928 9.5814769,30.21928 C 9.1108769,30.21928 9.7239469,31.56928 10.943847,33.21928 C 13.022527,36.03085 14.785727,37.09305 14.785727,35.53373 z M 54.324197,77.234287 C 43.762847,73.423007 41.912967,70.741477 45.311407,64.169617 C 47.457347,60.019817 48.991707,60.482057 47.211737,64.742117 C 46.136177,67.316297 46.019897,68.788317 46.779947,70.208477 C 47.971997,72.435837 54.934727,74.768337 65.535727,76.491617 C 70.127117,77.237987 72.785727,78.137547 72.785727,78.944717 C 72.785727,81.242117 62.889487,80.325247 54.324197,77.234287 z M 135.39272,74.637487 C 135.05887,73.767507 134.78573,71.447767 134.78573,69.482507 C 134.78573,66.084187 134.69623,65.990307 132.95699,67.564287 C 131.95118,68.474537 130.37618,69.219277 129.45699,69.219277 C 127.72629,69.219277 127.18185,66.282767 127.64932,59.469277 C 127.77195,57.681777 127.72528,56.219277 127.5456,56.219277 C 127.36592,56.219277 123.99948,59.369277 120.06463,63.219277 C 114.9708,68.203267 112.17241,70.219277 110.34804,70.219277 C 107.98347,70.219277 107.78573,69.877037 107.78573,65.784377 C 107.78573,63.345187 108.20415,60.248937 108.71556,58.903837 C 109.5792,56.632297 109.38343,56.414877 105.96556,55.849737 C 98.621337,54.635397 97.704287,55.489627 96.274407,64.877047 C 95.590847,69.364737 93.407437,73.174327 92.206977,71.973867 C 91.798727,71.565617 92.028897,68.710537 92.718467,65.629237 C 93.929157,60.219287 93.490787,53.219277 91.941307,53.219277 C 91.526717,53.219277 90.536847,54.906777 89.741607,56.969277 C 88.946357,59.031777 88.115707,61.169277 87.895707,61.719277 C 87.675707,62.269277 88.422227,61.594277 89.554637,60.219277 C 90.687047,58.844277 91.822467,57.944277 92.077797,58.219277 C 92.953237,59.162187 86.538857,71.219277 85.161787,71.219277 C 83.410747,71.219277 83.439987,69.095797 85.285727,62.219277 C 87.343147,54.554117 87.187867,51.730237 84.615037,50.021937 C 81.995207,48.282437 82.921167,46.219277 86.321687,46.219277 C 89.126607,46.219277 91.056977,43.616667 92.888817,37.365187 C 94.027827,33.47813 96.083387,31.18361 97.319367,32.41959 C 97.565437,32.66566 96.588437,36.3716 95.148257,40.655017 C 92.981957,47.098107 92.767727,48.597407 93.907747,49.336887 C 97.303997,51.539907 99.145347,49.814947 102.9455,40.870377 C 106.93575,31.47835 108.5106,28.93121 109.82502,29.74356 C 110.27199,30.01981 108.68816,34.17735 106.3054,38.982547 C 100.82821,50.028127 100.57215,51.381787 103.78573,52.303147 C 109.3185,53.889437 111.44097,53.347267 113.90683,49.717777 C 115.21522,47.791947 117.09221,45.955597 118.0779,45.636997 C 120.74966,44.773437 127.49467,46.162417 129.82811,48.056697 C 131.67658,49.557277 131.77778,50.206467 130.86669,54.719277 C 129.21313,62.909667 128.91478,66.180997 129.77296,66.711387 C 130.72255,67.298267 136.78573,60.669117 136.78573,59.044017 C 136.78573,56.114287 141.20055,49.373137 143.39383,48.953867 C 144.68352,48.707327 145.94516,48.712037 146.19746,48.964337 C 146.8074,49.574287 143.52774,56.615557 142.41073,57.094277 C 139.68228,58.263617 137.87974,61.618697 137.24332,66.712407 C 136.21254,74.962467 137.78533,75.939977 142.87979,70.215567 C 145.08061,67.742607 148.19414,63.860927 149.79876,61.589597 C 151.40338,59.318277 153.40688,57.194897 154.25099,56.870987 C 155.0951,56.547067 155.78573,55.688077 155.78573,54.962107 C 155.78573,54.236137 156.6984,51.859517 157.81389,49.680717 C 158.92938,47.501927 160.4491,43.694277 161.19106,41.219277 C 163.05281,35.00891 168.72953,23.21928 169.85809,23.21928 C 171.20317,23.21928 171.01564,24.0983 168.92327,27.60125 C 167.89892,29.31617 166.27192,33.19428 165.30771,36.21928 C 162.21312,45.927867 157.4165,55.653027 154.53378,58.063447 C 152.99186,59.352747 150.88554,62.052747 149.85307,64.063447 C 147.16213,69.303957 140.44541,76.219277 138.04633,76.219277 C 136.92069,76.219277 135.72656,75.507477 135.39272,74.637487 z M 120.23185,60.835787 C 122.95222,58.329107 124.97722,56.117677 124.73185,55.921507 C 124.48648,55.725327 121.58573,55.824577 118.28573,56.142047 C 112.3715,56.711027 112.27287,56.771307 111.38635,60.358807 C 110.89169,62.360557 110.77252,64.742457 111.12151,65.651937 C 111.93889,67.781997 113.70906,66.846197 120.23185,60.835787 z M 96.785727,55.219277 C 96.785727,54.669277 96.309167,54.219277 95.726707,54.219277 C 95.144247,54.219277 94.945807,54.669277 95.285727,55.219277 C 95.625647,55.769277 96.102207,56.219277 96.344747,56.219277 C 96.587287,56.219277 96.785727,55.769277 96.785727,55.219277 z M 125.69979,52.586467 C 129.89838,51.746747 129.13959,50.039897 123.80518,48.324637 C 119.09477,46.810027 117.46577,47.309447 114.99912,51.024427 C 113.57126,53.174897 113.63272,53.219277 118.03876,53.219277 C 120.51209,53.219277 123.95956,52.934517 125.69979,52.586467 z M 11.785727,42.778297 C 11.785727,42.535757 12.235727,42.059197 12.785727,41.719277 C 13.335727,41.379357 13.785727,41.577807 13.785727,42.160257 C 13.785727,42.742717 13.335727,43.219277 12.785727,43.219277 C 12.235727,43.219277 11.785727,43.020837 11.785727,42.778297 z M 126.54376,25.64397 C 126.25724,25.35746 126.40441,23.45719 126.87081,21.42116 C 127.3372,19.38513 128.45403,14.23178 129.35264,9.9692841 C 130.44826,4.7723341 131.44756,2.2192841 132.38611,2.2192841 C 134.39543,2.2192841 134.15295,7.1193041 131.88519,12.34216 C 130.83989,14.74958 129.67573,18.62942 129.29817,20.96404 C 128.63755,25.04902 127.64137,26.74159 126.54376,25.64397 z"
       id="path2466" />
  </g>
</svg>
