<?xml version="1.0" encoding="UTF-8" standalone="no"?>
<!-- Created with Inkscape (http://www.inkscape.org/) -->

<svg
   xmlns:dc="http://purl.org/dc/elements/1.1/"
   xmlns:cc="http://creativecommons.org/ns#"
   xmlns:rdf="http://www.w3.org/1999/02/22-rdf-syntax-ns#"
   xmlns:svg="http://www.w3.org/2000/svg"
   xmlns="http://www.w3.org/2000/svg"
   xmlns:sodipodi="http://sodipodi.sourceforge.net/DTD/sodipodi-0.dtd"
   xmlns:inkscape="http://www.inkscape.org/namespaces/inkscape"
   width="610"
   height="122"
   id="svg2"
   version="1.1"
   inkscape:version="0.48.0 r9654"
   sodipodi:docname="Emma_1865_signature.svg">
  <defs
     id="defs4" />
  <sodipodi:namedview
     id="base"
     pagecolor="#ffffff"
     bordercolor="#666666"
     borderopacity="1.0"
     inkscape:pageopacity="0.0"
     inkscape:pageshadow="2"
     inkscape:zoom="1.5185408"
     inkscape:cx="474.65704"
     inkscape:cy="118.78505"
     inkscape:document-units="px"
     inkscape:current-layer="layer1"
     showgrid="false"
     fit-margin-top="0"
     fit-margin-left="0"
     fit-margin-right="0"
     fit-margin-bottom="0"
     inkscape:window-width="1440"
     inkscape:window-height="820"
     inkscape:window-x="-8"
     inkscape:window-y="-8"
     inkscape:window-maximized="1" />
  <metadata
     id="metadata7">
    <rdf:RDF>
      <cc:Work
         rdf:about="">
        <dc:format>image/svg+xml</dc:format>
        <dc:type
           rdf:resource="http://purl.org/dc/dcmitype/StillImage" />
        <dc:title></dc:title>
      </cc:Work>
    </rdf:RDF>
  </metadata>
  <g
     inkscape:label="Layer 1"
     inkscape:groupmode="layer"
     id="layer1"
     transform="translate(-674.5528,-781.8009)">
    <path
       style="font-size:medium;font-style:normal;font-variant:normal;font-weight:normal;font-stretch:normal;text-indent:0;text-align:start;text-decoration:none;line-height:normal;letter-spacing:normal;word-spacing:normal;text-transform:none;direction:ltr;block-progression:tb;writing-mode:lr-tb;text-anchor:start;baseline-shift:baseline;color:#000000;fill:#000000;fill-opacity:1;stroke:none;stroke-width:4;marker:none;visibility:visible;display:inline;overflow:visible;enable-background:accumulate;font-family:Sans;-inkscape-font-specification:Sans"
       d="m 108.5625,24.0625 c -1.59481,0.01808 -3.29098,0.24015 -5.0625,0.5625 -4.72403,0.85966 -10.03619,2.70071 -15.25,4.9375 -5.21381,2.23679 -10.31444,4.87286 -14.46875,7.4375 -4.15431,2.56464 -7.30679,4.89855 -9,7.15625 -2.87317,3.83105 -3.89767,6.85965 -3.34375,9.46875 0.55392,2.6091 2.58638,4.09083 4.1875,5 0.61839,0.35114 1.12097,0.60211 1.59375,0.84375 -0.566942,2.300418 -3.103444,3.346549 -5.09375,4.75 -1.58796,0.79401 -4.39077,2.78388 -8.28125,5.65625 -3.89048,2.87237 -8.62846,6.53081 -13.125,10.21875 -4.49654,3.68794 -8.74251,7.41631 -11.75,10.5 -1.50375,1.54185 -2.69728,2.88936 -3.5,4.15625 -0.40136,0.63344 -0.74216,1.2402 -0.90625,2 -0.16409,0.7598 -0.0452,1.92355 0.71875,2.6875 1.18736,1.1874 2.63437,1.26855 3.96875,1.21875 1.33438,-0.0498 2.71564,-0.34416 4.09375,-0.71875 1.37812,-0.37459 2.73112,-0.83916 3.875,-1.3125 C 38.36263,98.15166 39.26038,97.72543 40,97.1875 44.02134,94.26277 48.50976,91.74411 52.96875,89 c 8.01132,-4.93025 18.68835,-9.83697 27.3125,-15.8125 -0.13976,0.19501 -0.2994,0.40085 -0.4375,0.59375 -1.86331,2.60259 -3.61194,4.95999 -5.6875,6.34375 -2.82562,1.88382 -4.95643,4.67782 -6.46875,6.96875 -0.75616,1.14546 -1.34834,2.15236 -1.75,2.875 -0.17716,0.31874 -0.28026,0.57567 -0.375,0.75 -0.004,0.005 -0.02725,-0.005 -0.03125,0 -0.008,0.0143 -0.02425,0.0495 -0.03125,0.0625 -0.005,0.006 0.005,0.02515 0,0.03125 -0.0465,0.0851 -0.10684,0.14664 -0.09375,0.125 -0.200768,0.315608 -0.310428,0.688452 -0.3125,1.0625 0,0.0855 0.03115,0.34318 0.03125,0.34375 1e-4,5.7e-4 0.2498,0.68715 0.25,0.6875 2e-4,3.5e-4 0.96845,0.84362 0.96875,0.84375 3e-4,1.2e-4 1.21835,0.09385 1.21875,0.09375 4e-4,-1e-4 0.59325,-0.24969 0.59375,-0.25 5e-4,-3.2e-4 0.22056,-0.16512 0.28125,-0.21875 0.12138,-0.10727 0.17585,-0.16715 0.21875,-0.21875 0.0572,-0.0688 0.0359,-0.05685 0.0625,-0.09375 4.028,-5.5102 11.39538,-10.45108 19.15625,-14.875 1.33613,-0.76163 2.62785,-1.45282 3.96875,-2.1875 -4.08612,4.11444 -7.78163,8.22631 -9.28125,11.78125 -0.546517,1.270336 0.654854,2.91529 2.03125,2.78125 2.74886,-0.2837 6.11526,-1.88643 10.25,-4.03125 4.13474,-2.14483 8.83895,-4.87564 13.3125,-7.5 1.93699,-1.13631 3.34709,-1.92896 5.125,-2.96875 -0.99707,0.93732 -2.08273,1.88737 -2.875,2.78125 -0.7135,0.80501 -1.32907,1.59286 -1.78125,2.40625 -0.45218,0.81339 -0.88168,1.75895 -0.5,3.03125 0.35004,1.16686 1.37207,2.11887 2.375,2.4375 1.00293,0.31863 1.89873,0.23516 2.71875,0.09375 1.64004,-0.28271 3.1899,-0.94871 3.71875,-1.125 4.28807,-1.42942 13.67228,-6.3842 22.96875,-10.9375 4.64824,-2.27665 9.2112,-4.44899 12.84375,-5.9375 0.59186,-0.24253 0.96186,-0.32683 1.5,-0.53125 -1.36838,1.37095 -2.73989,2.71898 -4.34375,4.3125 -2.28709,2.27234 -4.53521,4.58186 -6.15625,6.46875 -0.81052,0.94344 -1.47523,1.76701 -1.9375,2.59375 -0.23114,0.41337 -0.4583,0.78942 -0.53125,1.46875 -0.0365,0.33966 0.005,0.79993 0.21875,1.28125 0.21378,0.48132 0.63634,0.91191 1.0625,1.125 0.78145,0.39074 1.77219,0.50673 2.53125,0.3125 0.75906,-0.19423 1.25552,-0.56823 1.65625,-0.875 0.80146,-0.61355 1.28236,-0.96905 1.28125,-0.96875 0.12987,-0.03919 0.25573,-0.09163 0.375,-0.15625 9.41672,-4.72997 22.48349,-10.08324 33,-13.28125 -0.0486,0.0418 -0.0764,0.05185 -0.125,0.09375 -2.25488,1.94834 -4.56686,4.08717 -6.09375,6.1875 -0.76344,1.05016 -1.38262,2.07382 -1.5625,3.375 -0.17988,1.30118 0.63911,3.03828 1.9375,3.6875 1.46011,0.73008 2.73592,0.40039 4,0.03125 1.26408,-0.36909 2.57409,-0.96712 3.84375,-1.625 2.53932,-1.31576 4.81871,-2.83935 5.96875,-3.8125 0.6277,-0.53116 3.50254,-2.01265 7.125,-3.4375 3.62246,-1.42485 8.11762,-2.97717 12.65625,-4.40625 4.53863,-1.42908 9.13462,-2.74422 12.90625,-3.6875 3.77163,-0.94328 6.92338,-1.46875 7.8125,-1.46875 0.92075,0 1.6436,0.0564 2.28125,0.15625 -0.24394,0.20541 -0.29362,0.30078 -0.59375,0.53125 -1.85166,1.42189 -4.66583,3.28055 -7.46875,5.1875 -2.80292,1.90695 -5.5989,3.85521 -7.625,5.65625 -1.01305,0.90052 -1.85282,1.73607 -2.4375,2.75 -0.29234,0.50696 -0.53953,1.0986 -0.5625,1.84375 -0.023,0.74515 0.32672,1.6392 0.875,2.1875 0.43572,0.433229 1.07899,0.647653 1.6875,0.5625 13.62397,-2.05224 40.52716,-7.51203 60.4375,-7.5625 6.46353,1.64784 13.94635,2.78685 21.40625,2.75 3.93944,1.25219 8.44018,1.52671 12.90625,0.96875 2.0953,-0.26177 4.15568,-0.69689 6.15625,-1.25 53.4094,-2.44205 95.77545,-6.07527 124.84375,-0.65625 -1.524,0.41516 -2.8523,0.84652 -4.6875,1.21875 -1.3813,0.28015 -2.56045,0.42752 -3.90625,0.65625 -1.3891,-0.11078 -2.97635,-0.35277 -4.15625,-0.34375 -1.3533,0.0104 -2.4927,0.0908 -3.5625,0.40625 -0.535,0.15774 -1.06865,0.38746 -1.59375,0.84375 -0.5251,0.45629 -1,1.30445 -1,2.125 0,0.77091 0.5447,1.42196 0.875,1.65625 0.3303,0.23429 0.5307,0.27021 0.6875,0.3125 0.3137,0.0846 0.4557,0.08565 0.625,0.09375 0.3387,0.0163 0.6698,-0.005 1.0625,-0.03125 0.7854,-0.0518 1.80895,-0.15063 3.03125,-0.3125 1.1917,-0.15783 2.8026,-0.47759 4.25,-0.71875 1.574,0.13567 2.909,0.17165 4.625,0.40625 3.3273,0.45491 6.6933,1.0216 9.25,1.5 1.2783,0.2392 2.3571,0.46709 3.125,0.625 0.3839,0.079 0.69495,0.14106 0.90625,0.1875 0.1056,0.0232 0.201,0.0509 0.25,0.0625 0.99724,0.315768 2.19188,-0.302183 2.51039,-1.298549 0.31851,-0.996366 -0.29615,-2.192701 -1.29164,-2.513951 -0.2639,-0.0907 -0.2297,-0.07415 -0.3125,-0.09375 -0.083,-0.0196 -0.1936,-0.0364 -0.3125,-0.0625 -0.2378,-0.0523 -0.5404,-0.13708 -0.9375,-0.21875 -0.7944,-0.16334 -1.8858,-0.38143 -3.1875,-0.625 -0.8939,-0.16725 -2.1971,-0.34859 -3.25,-0.53125 0.3928,-0.12577 0.99075,-0.21361 1.34375,-0.34375 1.085,-0.40005 1.96305,-0.72369 2.78125,-1.46875 0.409,-0.37253 0.9139,-0.97031 0.9375,-1.9375 0.024,-0.96719 -0.58535,-1.77496 -1.09375,-2.15625 -0.22259,-0.164862 -0.4798,-0.282751 -0.75,-0.34375 -28.4877,-6.80259 -69.6317,-3.51785 -121.25,-0.9375 0.8834,-0.62976 1.783,-1.25173 2.5,-1.96875 0.8654,-0.86543 2.6482,-2.94444 4.1875,-5.15625 0.7697,-1.10591 1.46295,-2.18983 1.90625,-3.3125 0.2216,-0.56134 0.41215,-1.14492 0.40625,-1.875 -0.01,-0.73008 -0.39775,-1.76509 -1.21875,-2.3125 -0.8569,-0.57125 -1.8257,-0.86392 -2.8125,-1.03125 0.3151,-0.99266 0.49285,-1.96055 0.28125,-2.9375 -0.2205,-1.01817 -0.8809,-1.96819 -1.6875,-2.53125 -1.6131,-1.12613 -3.5166,-1.17422 -5.65625,-1 -4.2792,0.34843 -9.82217,2.10899 -15.3125,4.5 -5.49033,2.39101 -10.85515,5.39889 -14.5625,8.4375 -1.85367,1.5193 -3.30982,2.99683 -4.15625,4.71875 -0.42321,0.86096 -0.68059,1.82264 -0.59375,2.84375 0.0645,0.75875 0.39472,1.48383 0.84375,2.125 -4.7995,-0.4608 -9.52952,-1.3153 -13.75,-2.40625 -0.16315,-0.04177 -0.33159,-0.06283 -0.5,-0.0625 -19.13158,0.023 -42.92358,4.63185 -57.09375,6.9375 1.72394,-1.48137 4.19168,-3.27944 6.8125,-5.0625 2.77331,-1.88681 5.59984,-3.73338 7.65625,-5.3125 1.02821,-0.78956 1.85418,-1.46789 2.5,-2.25 0.32291,-0.39105 0.64542,-0.79444 0.8125,-1.53125 0.16708,-0.73682 -0.2163,-2.01376 -0.90625,-2.53125 -1.92866,-1.44655 -4.23555,-1.5625 -6.53125,-1.5625 -1.99283,0 -4.90511,0.62434 -8.78125,1.59375 -3.87614,0.96941 -8.51843,2.29953 -13.125,3.75 -4.60657,1.45047 -9.18572,3.02429 -12.9375,4.5 -3.75178,1.47571 -6.54283,2.68041 -8.25,4.125 -0.621,0.52548 -2.9664,2.14544 -5.21875,3.3125 -1.12618,0.58353 -2.26722,1.06204 -3.125,1.3125 -0.44303,0.12936 -0.36227,0.11737 -0.5625,0.125 0.12713,-0.29071 0.16698,-0.49893 0.53125,-1 1.14252,-1.5716 3.31845,-3.67327 5.46875,-5.53125 2.1503,-1.85798 4.28812,-3.53163 5.46875,-4.4375 0.29516,-0.22647 0.54611,-0.39691 0.71875,-0.53125 0.0863,-0.0672 0.14467,-0.12614 0.21875,-0.1875 0.037,-0.0307 0.0762,-0.0485 0.15625,-0.125 0.04,-0.0382 0.0568,-0.0798 0.1875,-0.25 0.0654,-0.0851 0.31224,-0.56175 0.3125,-0.5625 6e-5,-1.6e-4 -0.12484,-0.33193 -0.1875,-0.5 0.0282,-0.08 0.0693,-0.0988 0.0937,-0.21875 0.065,-0.31934 0.10956,-0.95369 -0.3125,-1.5625 -0.42206,-0.60881 -1.08112,-0.80633 -1.4375,-0.84375 -0.35638,-0.0374 -0.54323,-8.6e-4 -0.6875,0.03125 -0.0673,0.015 -0.0733,0.0476 -0.125,0.0625 -0.16973,0.049 -0.33483,0.0783 -0.4375,0.125 -10.9092,2.33872 -26.65892,8.58354 -38.5,14.3125 1.13481,-1.1882 2.1131,-2.27769 3.40625,-3.5625 2.26739,-2.25277 4.54367,-4.47853 6.21875,-6.21875 0.83754,-0.87011 1.53635,-1.61047 2.03125,-2.25 0.24745,-0.31977 0.44848,-0.55945 0.65625,-1.0625 0.10389,-0.25153 0.27653,-0.58723 0.15625,-1.28125 -0.12028,-0.69402 -0.96803,-1.53888 -1.5625,-1.6875 -1.4054,-0.35136 -2.51575,-0.0319 -3.96875,0.375 -1.453,0.40692 -3.16327,1.03425 -5.0625,1.8125 -3.79846,1.5565 -8.38331,3.73944 -13.0625,6.03125 -9.35838,4.58363 -19.31494,9.68827 -22.5,10.75 -0.93107,0.31037 -2.1478,0.80569 -3.09375,0.96875 -0.12245,0.0211 -0.11681,-0.007 -0.21875,0 0.24284,-0.37788 0.56824,-0.81735 1.0625,-1.375 1.20536,-1.35995 2.99688,-3.02912 4.84375,-4.65625 1.84687,-1.62713 3.75312,-3.20542 5.21875,-4.5 0.73282,-0.64729 1.35017,-1.2399 1.84375,-1.75 0.24679,-0.25505 0.4499,-0.46698 0.65625,-0.75 0.20635,-0.28302 0.5625,-0.48806 0.5625,-1.53125 0.003,-0.244533 -0.0399,-0.4895 -0.125,-0.71875 -0.256,-0.67975 -0.9928,-1.20014 -1.5,-1.34375 -0.5072,-0.14361 -0.85859,-0.13408 -1.15625,-0.09375 -0.59532,0.0806 -1.04141,0.27814 -1.59375,0.5 -1.10468,0.44372 -2.47387,1.11726 -4.09375,2 -3.23975,1.76549 -7.47772,4.28997 -11.9375,6.90625 -4.45978,2.61628 -9.11972,5.32858 -13.125,7.40625 -1.28845,0.66836 -2.36655,1.11596 -3.5,1.625 1.94495,-2.43516 4.33815,-5.10237 7.0625,-7.75 4.77535,-4.64088 9.97584,-9.01675 12.75,-11.03125 0.851,-0.613533 1.06698,-1.946108 0.45333,-2.797026 -0.61364,-0.850918 -1.94624,-1.066727 -2.79708,-0.452974 -5.09369,3.67703 -13.15255,7.64735 -21.0625,12.15625 -1.24898,0.71196 -2.36192,1.57036 -3.59375,2.3125 0.25394,-0.35253 0.53251,-0.71507 0.78125,-1.0625 1.8603,-2.59839 3.63771,-4.97716 5.78125,-6.40625 2.176301,-1.450931 4.467296,-3.690309 6.125,-5.46875 -0.0658,0.100678 0.273825,-0.177632 0.65625,-0.34375 0.25497,-0.11077 0.56661,-0.15322 1.09375,-0.6875 0.26357,-0.26714 0.62009,-0.80534 0.625,-1.53125 0.005,-0.72591 -0.36801,-1.3055 -0.65625,-1.59375 -0.71847,-0.7185 -1.73769,-0.91814 -2.5,-0.875 -0.76231,0.0431 -1.41176,0.25772 -2.0625,0.53125 -1.30148,0.54706 -2.61374,1.39126 -3.90625,2.3125 -2.58501,1.84247 -5.07474,4.06322 -5.8125,4.6875 -8.27575,7.00284 -21.62269,12.75795 -31.5625,18.875 -4.36687,2.68741 -8.97203,5.26362 -13.25,8.375 -0.13115,0.0954 -0.95097,0.52927 -1.9375,0.9375 -0.98653,0.40823 -2.18675,0.83327 -3.375,1.15625 -1.18825,0.32298 -2.37451,0.56224 -3.21875,0.59375 -0.0272,0.001 -0.0051,-4e-4 -0.03125,0 0.55086,-0.81497 1.44705,-1.94529 2.75,-3.28125 2.80806,-2.87921 7.00396,-6.55122 11.4375,-10.1875 4.43355,-3.63628 9.13467,-7.26302 12.96875,-10.09375 3.83408,-2.83073 7.175292,-4.829268 7.6875,-5.28125 2.57358,-2.270977 5.544855,-4.11661 7.3125,-6.40625 0.36197,-0.41843 0.70552,-0.93046 0.8125,-1.625 0.10698,-0.69454 -0.12217,-1.45053 -0.4375,-1.9375 -0.63066,-0.97395 -1.32838,-1.29403 -2,-1.65625 -0.67162,-0.36222 -1.37394,-0.67575 -2,-1.03125 -1.25212,-0.711 -2.04686,-1.38693 -2.25,-2.34375 -0.20313,-0.95682 0.095,-2.8765 2.625,-6.25 0.92356,-1.23147 3.94434,-3.71039 7.90625,-6.15625 3.96191,-2.44586 8.91309,-5.03197 13.9375,-7.1875 5.02441,-2.15554 10.1475,-3.88126 14.40625,-4.65625 4.25875,-0.77499 7.5403,-0.40732 8.875,0.59375 0.31808,0.23857 0.31343,0.29543 0.34375,0.59375 0.0303,0.29832 -0.0453,0.88984 -0.375,1.65625 -0.65932,1.53281 -2.21135,3.65735 -4.125,5.75 -3.8273,4.18529 -8.99152,8.3744 -11.0625,10.03125 -0.17738,0.14191 -0.99112,0.77407 -1.34375,1.0625 -0.10311,-1.27984 -0.4185,-2.57471 -1.4375,-3.59375 -0.4846,-0.48462 -1.42635,-0.70459 -2,-0.59375 -0.57365,0.11084 -0.88159,0.34175 -1.125,0.53125 -0.48683,0.379 -0.77901,0.72479 -1.09375,1.15625 -0.62947,0.86291 -1.23493,1.95532 -1.84375,3.125 -0.60882,1.16968 -1.18814,2.40398 -1.625,3.46875 -0.21843,0.53238 -0.42062,1.02121 -0.5625,1.46875 -0.14188,0.44753 -0.25,0.7585 -0.25,1.4375 0,0.47424 0.11619,1.14921 0.625,1.6875 0.50881,0.53829 1.22074,0.73212 1.6875,0.75 0.93352,0.0358 1.43083,-0.23194 2,-0.5 0.77651,-0.36571 1.62222,-0.98635 2.46875,-1.5625 0.808204,0.02094 1.603292,-0.500434 1.90625,-1.25 0.008,-0.0204 0.02285,-0.0421 0.03125,-0.0625 2.22625,-1.67484 4.59326,-3.62459 5.0625,-4 2.11162,-1.68936 7.3714,-5.95397 11.5,-10.46875 2.0643,-2.25739 3.87734,-4.55559 4.875,-6.875 0.49883,-1.15971 0.81697,-2.3512 0.6875,-3.625 -0.12947,-1.2738 -0.83549,-2.57971 -1.9375,-3.40625 -1.50759,-1.13074 -3.34746,-1.65743 -5.375,-1.8125 -0.50689,-0.03877 -1.0309,-0.06853 -1.5625,-0.0625 z m 444.78125,2.40625 c -1.3826,0.043 -2.79975,0.18124 -4.28125,0.375 -5.926,0.77506 -12.6533,2.69919 -19.3125,5.125 -13.3184,4.85163 -25.86843,12.182175 -31.78125,15.625 -8.31056,4.838942 -13.04792,11.492384 -17.96875,17.9375 -0.91165,1.194037 -1.8508,2.39864 -2.4375,3.75 -0.5867,1.35136 -0.88765,2.97055 -0.21875,4.53125 0.7776,1.81452 2.5194,3.01339 4.1875,3.125 1.668,0.11161 3.14885,-0.45547 4.53125,-1.15625 2.7648,-1.40156 5.3779,-3.63729 6.25,-4.21875 16.7165,-11.14477 38.6896,-16.12717 54.125,-32.3125 0.74253,-0.749674 1.63346,-0.21826 0.87507,-0.951905 -0.75837,-0.733645 -2.11996,-0.703049 -2.84461,0.06392 -14.3874,15.08642 -35.89875,20.03618 -53.46875,31.75 -1.4565,0.97099 -3.72615,2.89531 -5.84375,3.96875 -1.0588,0.53672 -2.03505,0.77902 -2.46875,0.75 -0.4337,-0.029 -2.17698,-1.145538 -2.50988,-1.922235 -0.092,-0.21445 -0.3629,-2.579811 -0.0282,-3.350581 0.3346,-0.77077 0.93166,-1.843282 1.84375,-2.75 5.00852,-5.513108 8.58,-11.972235 17.28125,-17.28125 5.06416,-3.089866 17.81445,-10.40146 30.78125,-15.125 6.4834,-2.36177 12.9779,-4.22345 18.4375,-4.9375 4.281,-0.55991 8.88231,0.984504 11.25761,1.879554 -0.9471,0.98644 -2.3051,2.30647 -3.75,3.625 -1.4816,1.35204 -3.0327,2.70208 -4.25,3.78125 -0.6086,0.53959 -1.12515,1.0081 -1.53125,1.375 -0.4062,0.3669 -0.5895,0.46894 -0.9375,0.875 -2.2834,2.66406 -8.41595,7.51975 -13.65625,12.78125 -2.6201,2.63075 -5.0478,5.39561 -6.75,8.28125 -1.7021,2.88564 -2.7307,6.00642 -2.0625,9.125 0.6358,2.96696 3.1649,5.02002 6.375,7.34375 3.2101,2.32372 7.31755,4.68392 11.53125,6.9375 8.4273,4.50716 17.5823,8.72416 20.375,10.53125 3.7597,2.43288 7.498,7.645967 13.1875,9.624997 3.1482,1.09509 6.4322,0.73633 9.125,0.0312 2.6927,-0.70503 4.6465,-1.60149 5.875,-2.59375 0.8569,-0.64662 1.02302,-2.03238 0.34324,-2.86322 -0.67977,-0.830837 -2.07099,-0.94241 -2.87449,-0.230527 -0.1506,0.121647 -2.13155,1.233277 -4.34375,1.812497 -2.2123,0.57922 -4.7907,0.76577 -6.8125,0.0625 -3.9708,-1.38117 -7.62065,-6.131247 -12.34375,-9.187497 -3.6373,-2.35365 -12.38565,-6.29536 -20.65625,-10.71875 -4.1354,-2.2117 -8.08915,-4.49526 -11.03125,-6.625 -2.9421,-2.12974 -4.6685,-4.2969 -4.8125,-4.96875 -0.3709,-1.73085 0.17595,-3.84641 1.59375,-6.25 1.4178,-2.40359 3.63,-4.99497 6.125,-7.5 4.9898,-5.01006 10.9314,-9.53447 13.875,-12.96875 -0.1758,0.20501 0.179,-0.18485 0.5625,-0.53125 0.3834,-0.3464 0.8924,-0.80512 1.5,-1.34375 1.2151,-1.07726 2.76905,-2.46383 4.28125,-3.84375 1.5122,-1.37992 2.9811,-2.74044 4.0625,-3.875 0.5407,-0.56728 0.98555,-1.05327 1.34375,-1.5625 0.1791,-0.25462 0.347,-0.51419 0.5,-0.96875 0.076,-0.22728 0.1744,-0.50256 0.125,-0.96875 -0.05,-0.46619 -0.37055,-1.14511 -0.84375,-1.5 -2.7352,-2.05147 -6.38375,-2.69153 -10.53125,-2.5625 z m -227.21875,30.25 c 1.05475,0.03569 1.75663,0.239297 1.90625,0.34375 0.1,0.0696 0.0455,0.01365 0.0625,0.09375 0.017,0.0802 0.036,0.39245 -0.15625,0.96875 -0.1682,0.50471 -0.40505,0.92809 -0.59375,1.40625 -0.8096,0.15839 -1.57895,0.19147 -2.40625,0.4375 -3.50032,1.04094 -7.20779,2.87026 -10.4375,5 -3.22971,2.12974 -5.98307,4.4752 -7.53125,6.96875 -0.58627,0.94426 -0.92539,2.01989 -1,3.125 -2.37287,0.38121 -4.81864,0.61491 -7.3125,0.65625 -1.77225,-0.61002 -3.39099,-1.3597 -4.5,-2.46875 -0.17689,-0.1769 -0.14834,-0.18821 -0.15625,-0.28125 -0.008,-0.093 0.0208,-0.34722 0.21875,-0.75 0.39598,-0.80556 1.48013,-2.0837 3.09375,-3.40625 3.22724,-2.64511 8.39286,-5.59643 13.625,-7.875 5.23214,-2.27857 10.61563,-3.90938 14.03125,-4.1875 0.42696,-0.03477 0.80467,-0.04315 1.15625,-0.03125 z m 4.03125,6.46875 c 0.5493,0.007 0.84155,0.12516 1.21875,0.21875 -0.276,0.57762 -0.65295,1.28078 -1.21875,2.09375 -1.3544,1.94602 -3.2498,4.09346 -3.75,4.59375 -1.17486,1.17486 -2.97259,2.2885 -5,3.28125 3.56484,-2.50552 6.6069,-5.84427 8.75,-10.1875 z m -5.21875,1.09375 c -3.45127,5.1669 -8.59267,8.09359 -14.53125,9.75 0.97994,-1.55844 3.36796,-3.79766 6.28125,-5.71875 2.57726,-1.6995 5.53416,-3.08559 8.25,-4.03125 z"
       transform="translate(674.5528,781.8009)"
       id="path3050"
       inkscape:connector-curvature="0"
       sodipodi:nodetypes="scsssssccssssscsssssccsssccccccsscsccscscccsscsssscssscsssccsssccccssscsssssscsssscccccsccccccssscccccsscccsccccccccccccscccccccsssscccccsssssssssssscssscccccccscccccsssssscsssccsssssccscsssscscscscssccscscsssscssccsssscssssssssssccsscssssssssscscccsssssssscscsscssccsccscccscsscscccsccsscsscsccsssscsccccssscccssccccsssccsccssssccccccccccsc" />
  </g>
</svg>
