<?xml version="1.0" standalone="no"?>
<!DOCTYPE svg PUBLIC "-//W3C//DTD SVG 20010904//EN"
 "http://www.w3.org/TR/2001/REC-SVG-20010904/DTD/svg10.dtd">
<svg version="1.0" xmlns="http://www.w3.org/2000/svg"
 width="468pt" height="215pt" viewBox="0 0 468 215"
 preserveAspectRatio="xMidYMid meet">
<metadata>
Created by POTRACE VERSION, written by Peter Selinger 2001-2007
</metadata>
<g transform="translate(0,215) scale(0.014329,-0.014329)"
fill="#000000" stroke="none">
<path d="M1770 14383 c-47 -25 -99 -56 -117 -69 -17 -13 -47 -45 -65 -70 -18
-26 -57 -62 -86 -80 -38 -25 -63 -52 -90 -96 -20 -34 -59 -83 -86 -109 -28
-26 -66 -70 -85 -98 -20 -27 -66 -89 -104 -138 -48 -63 -73 -106 -87 -153 -11
-36 -36 -87 -55 -115 -20 -30 -42 -82 -55 -130 -12 -44 -30 -106 -42 -138 -18
-50 -19 -65 -10 -105 5 -25 7 -55 2 -66 -4 -12 -5 -35 -3 -53 3 -18 -3 -54
-12 -80 -15 -42 -18 -98 -21 -423 -4 -348 -3 -382 17 -490 17 -90 20 -137 15
-215 -5 -88 -3 -106 15 -145 12 -25 29 -70 39 -100 11 -30 30 -104 44 -163 14
-60 26 -127 26 -150 0 -23 -8 -56 -18 -74 -9 -17 -30 -54 -45 -82 -15 -29 -39
-62 -53 -74 -14 -12 -37 -43 -50 -70 -14 -26 -47 -72 -74 -102 -27 -30 -70
-95 -94 -144 -25 -48 -66 -114 -93 -145 -26 -32 -74 -87 -106 -123 -31 -36
-60 -76 -63 -89 -3 -13 -3 -36 0 -50 4 -16 19 -30 41 -40 19 -8 57 -14 85 -14
28 0 65 6 83 14 18 7 44 27 59 43 16 16 39 58 53 93 16 41 42 81 70 110 24 25
65 73 92 107 26 34 76 97 111 140 34 43 81 100 104 127 23 27 57 55 76 63 30
13 37 12 60 -3 15 -10 54 -43 87 -75 33 -32 83 -67 110 -79 27 -11 78 -43 114
-69 36 -27 98 -64 136 -84 39 -19 78 -44 88 -55 10 -11 21 -38 24 -59 3 -22
-2 -68 -11 -104 -9 -35 -32 -87 -52 -116 -22 -32 -43 -82 -56 -130 -12 -49
-34 -99 -58 -135 -21 -32 -48 -88 -61 -125 -12 -38 -42 -115 -66 -172 -24 -57
-50 -113 -57 -125 -8 -11 -28 -66 -44 -121 -17 -55 -36 -134 -43 -174 -6 -41
-25 -109 -41 -150 -17 -41 -39 -122 -49 -180 -11 -58 -26 -133 -35 -166 -9
-33 -21 -80 -26 -105 -5 -25 -18 -85 -28 -135 -11 -49 -29 -175 -40 -280 -18
-172 -24 -203 -65 -320 -25 -71 -45 -139 -45 -150 0 -11 -14 -72 -31 -135 -17
-63 -34 -153 -39 -200 -4 -47 -13 -128 -20 -180 -12 -89 -12 -100 10 -177 19
-71 30 -91 76 -143 30 -34 54 -64 54 -69 0 -5 12 -20 26 -34 16 -16 65 -39
132 -61 61 -21 126 -36 152 -36 25 0 97 16 160 35 104 30 118 38 150 74 19 22
55 53 80 69 34 22 56 48 89 108 24 43 61 97 82 119 21 22 53 66 71 97 18 31
69 96 114 145 64 71 86 104 108 160 15 39 36 79 48 89 11 11 33 46 49 79 16
33 45 74 64 90 19 17 50 58 70 93 19 34 51 90 71 125 19 34 44 71 54 82 10 11
39 63 64 116 24 53 50 100 56 104 7 4 33 39 58 77 26 39 55 82 65 97 9 14 22
44 28 66 6 22 18 48 26 58 9 9 30 17 49 17 23 0 38 -7 53 -26 16 -21 21 -41
21 -90 0 -34 -9 -100 -20 -146 -13 -54 -20 -118 -20 -183 0 -56 7 -152 14
-215 8 -63 22 -140 31 -170 11 -36 30 -69 55 -95 22 -22 52 -59 67 -82 16 -23
44 -54 63 -68 19 -14 59 -33 89 -42 39 -11 66 -28 96 -59 23 -23 54 -46 69
-50 14 -3 57 1 95 9 38 9 90 26 115 38 27 12 70 47 101 82 30 33 55 64 55 68
0 4 16 17 35 29 20 12 51 46 70 76 19 29 47 60 63 68 16 8 45 33 65 55 20 22
47 62 61 88 13 26 58 81 99 121 41 39 82 72 91 72 9 0 25 -9 36 -20 11 -11 40
-60 64 -109 29 -58 59 -101 85 -123 22 -19 56 -55 76 -81 19 -25 54 -59 78
-75 23 -15 76 -43 117 -61 41 -18 92 -46 112 -62 20 -16 49 -34 64 -40 16 -5
77 -22 137 -36 98 -23 124 -25 260 -21 113 4 166 10 206 24 38 13 74 37 120
79 38 36 72 78 84 105 11 25 34 65 52 90 17 25 43 66 58 91 14 25 42 65 61 87
19 24 45 73 59 115 14 41 43 105 66 142 22 37 45 82 50 99 5 17 12 52 16 78 5
42 13 53 65 98 55 48 59 54 75 124 9 41 26 89 38 108 13 18 34 38 47 45 14 7
44 13 68 13 28 0 59 -10 95 -29 28 -16 72 -35 97 -41 25 -7 79 -25 120 -40 41
-16 124 -36 183 -45 60 -9 120 -21 133 -27 14 -6 27 -22 30 -35 3 -12 1 -37
-5 -55 -7 -18 -16 -81 -21 -139 -6 -58 -28 -204 -50 -324 -23 -121 -46 -267
-52 -325 -6 -58 -8 -154 -5 -214 5 -92 10 -116 34 -164 15 -31 42 -70 59 -87
17 -17 74 -48 133 -73 75 -31 122 -44 175 -49 70 -5 75 -4 137 30 35 19 84 41
108 47 31 8 57 25 85 55 31 34 53 47 91 56 28 7 63 19 79 27 16 8 63 43 103
77 41 35 105 82 143 104 38 23 72 46 76 52 3 6 32 27 63 47 31 21 78 55 104
77 27 22 60 59 74 83 14 24 36 47 49 52 13 5 36 5 55 0 18 -5 43 -20 56 -32
13 -12 33 -52 44 -90 13 -41 38 -92 64 -127 30 -41 65 -72 117 -105 41 -25
101 -55 133 -66 35 -12 84 -20 124 -20 49 0 94 9 176 36 60 20 121 44 135 54
14 9 45 25 70 34 25 10 63 35 85 56 22 21 69 53 105 69 36 17 103 63 150 102
47 39 105 90 130 113 25 23 88 76 141 118 53 43 108 82 122 87 14 5 38 27 54
48 15 20 60 70 100 110 41 42 80 73 91 73 11 0 30 -8 42 -18 21 -17 23 -28 26
-128 2 -73 11 -144 29 -218 14 -60 31 -118 37 -130 6 -11 33 -45 60 -74 26
-30 48 -58 48 -63 0 -6 26 -22 58 -36 31 -14 86 -43 122 -64 36 -21 93 -45
128 -54 34 -9 86 -27 116 -41 44 -20 71 -25 152 -26 55 -1 194 3 309 9 169 9
224 15 282 33 40 13 80 30 88 39 9 9 26 32 38 51 15 22 37 40 65 50 23 9 50
23 60 32 9 9 49 49 89 89 39 41 85 97 102 125 17 29 51 68 75 88 25 20 53 36
64 36 13 0 33 -21 60 -64 33 -52 51 -70 94 -92 29 -15 67 -37 83 -49 17 -13
73 -43 125 -68 52 -24 109 -47 125 -51 17 -3 91 -12 165 -20 109 -11 164 -11
290 -1 l155 12 115 64 c86 48 119 73 134 99 15 24 20 52 20 90 -1 30 -8 80
-17 110 -12 42 -39 83 -113 175 -53 66 -118 143 -145 171 -28 28 -57 66 -67
85 -9 18 -28 39 -42 46 -14 7 -43 13 -66 13 -23 0 -55 -5 -73 -11 -17 -6 -36
-19 -41 -29 -6 -10 -10 -27 -10 -37 0 -10 16 -44 35 -77 20 -32 47 -86 60
-119 19 -44 45 -81 99 -137 55 -56 76 -86 81 -112 4 -20 5 -44 3 -53 -1 -10
-15 -27 -29 -37 -22 -17 -48 -20 -214 -23 l-190 -4 -50 28 c-27 15 -68 31 -89
34 -22 4 -58 19 -80 35 -23 15 -53 33 -68 39 -14 7 -56 47 -92 89 -37 43 -70
93 -76 113 -5 20 -12 83 -16 140 -6 81 -11 108 -26 123 -10 10 -30 18 -45 18
-16 0 -52 -11 -81 -25 -29 -13 -79 -49 -110 -79 -48 -46 -65 -72 -107 -167
-40 -90 -63 -126 -111 -178 -33 -36 -74 -86 -91 -111 -17 -25 -53 -66 -80 -92
-28 -27 -71 -55 -103 -68 -30 -12 -80 -36 -110 -53 -54 -32 -57 -32 -209 -35
-84 -2 -198 1 -252 8 -55 6 -114 16 -132 22 -17 7 -66 33 -107 59 -41 27 -92
59 -112 73 -21 14 -58 56 -83 93 -29 44 -49 88 -56 123 -9 44 -8 74 5 145 9
50 20 106 26 125 5 19 19 49 29 67 11 18 31 39 45 48 14 9 57 21 96 27 39 6
81 19 93 28 20 17 22 27 22 112 0 75 -4 99 -20 126 -11 18 -38 41 -60 52 -22
10 -77 26 -122 35 -68 14 -95 15 -154 6 -39 -6 -85 -19 -102 -28 -18 -8 -72
-46 -122 -83 -49 -37 -102 -81 -116 -96 -14 -16 -38 -46 -52 -67 -14 -22 -84
-103 -156 -180 -72 -78 -159 -173 -193 -211 -35 -38 -88 -86 -118 -107 -30
-20 -104 -83 -165 -139 -60 -56 -130 -118 -155 -138 -25 -20 -65 -55 -91 -78
-25 -23 -71 -51 -105 -63 -32 -12 -72 -35 -89 -51 -16 -16 -51 -34 -77 -40
-36 -9 -59 -9 -97 0 -43 10 -63 25 -143 103 -64 62 -103 110 -121 147 -15 30
-32 80 -37 110 -7 36 -9 136 -4 290 6 202 4 240 -9 273 -10 23 -26 41 -44 48
-15 6 -54 9 -85 7 -38 -3 -64 -11 -79 -24 -12 -10 -32 -41 -46 -69 -14 -27
-35 -62 -46 -77 -19 -26 -20 -33 -9 -86 7 -32 12 -72 12 -88 0 -16 -9 -45 -20
-64 -11 -19 -33 -62 -49 -95 -21 -44 -42 -71 -81 -100 -29 -22 -67 -54 -84
-71 -17 -18 -42 -46 -55 -63 -13 -18 -54 -47 -91 -66 -38 -19 -71 -39 -74 -44
-3 -4 -32 -19 -63 -31 -32 -13 -80 -40 -108 -60 -27 -21 -73 -45 -101 -54 -32
-10 -64 -31 -87 -55 -26 -27 -49 -41 -75 -45 -20 -3 -80 -11 -132 -18 -52 -7
-114 -12 -137 -12 -27 0 -52 7 -70 20 -15 12 -34 38 -41 60 -9 26 -12 63 -8
111 3 40 19 125 35 190 17 69 35 174 41 253 7 74 21 169 32 210 11 41 29 113
40 160 13 58 20 137 23 249 3 124 1 171 -10 196 -7 19 -24 40 -37 49 -12 8
-43 19 -68 25 -36 8 -55 6 -100 -9 -30 -10 -93 -28 -140 -40 -46 -12 -96 -22
-111 -22 -15 -1 -47 11 -72 25 -24 15 -90 40 -146 56 -56 16 -117 41 -136 55
-18 14 -57 64 -85 111 -29 47 -64 93 -78 103 -18 12 -45 17 -89 16 -52 -1 -68
-5 -89 -24 -13 -13 -31 -47 -39 -75 -8 -27 -14 -88 -13 -135 0 -75 -3 -93 -30
-149 -17 -35 -43 -114 -57 -175 -25 -103 -30 -114 -76 -164 -27 -29 -49 -59
-49 -66 0 -6 -20 -44 -45 -83 -24 -40 -65 -114 -91 -165 -25 -51 -63 -111 -84
-134 -20 -22 -55 -72 -78 -110 -22 -38 -64 -94 -94 -124 -29 -30 -79 -68 -110
-84 -55 -27 -60 -28 -155 -21 -60 5 -131 18 -185 35 -67 21 -107 41 -166 85
-42 32 -84 66 -92 75 -8 10 -37 34 -65 55 -27 21 -67 63 -88 94 -20 31 -51 98
-67 149 -17 51 -42 118 -55 148 -13 30 -29 80 -35 111 -5 31 -16 66 -24 78 -8
11 -41 35 -74 53 -33 18 -71 32 -85 32 -14 0 -33 -3 -42 -6 -8 -4 -22 -18 -29
-33 -7 -14 -17 -55 -20 -91 -4 -36 -15 -80 -23 -98 -9 -19 -36 -50 -61 -70
-24 -20 -66 -68 -92 -107 -26 -38 -78 -99 -116 -135 -38 -36 -91 -92 -118
-125 -27 -33 -79 -92 -115 -131 -36 -39 -80 -87 -97 -106 -19 -20 -45 -38 -64
-42 -18 -3 -48 -6 -68 -6 -28 0 -43 8 -75 43 -22 23 -50 58 -63 77 -13 19 -40
78 -59 130 -20 52 -43 115 -52 140 -10 31 -13 66 -9 115 3 39 12 102 20 140
11 52 14 126 12 285 -1 118 -8 262 -16 320 -7 58 -17 123 -22 144 -6 22 -25
55 -43 73 -18 18 -43 33 -55 33 -11 0 -41 -5 -65 -11 -25 -6 -56 -21 -69 -34
-14 -13 -34 -52 -46 -91 -11 -38 -32 -87 -45 -109 -13 -23 -44 -68 -68 -101
-24 -32 -52 -84 -62 -114 -10 -30 -31 -70 -46 -88 -16 -18 -40 -54 -53 -81
-14 -26 -37 -62 -51 -80 -15 -17 -45 -66 -66 -109 -22 -42 -61 -107 -87 -144
-26 -37 -70 -85 -98 -106 -28 -22 -60 -52 -72 -67 -11 -14 -28 -50 -38 -78 -9
-29 -24 -65 -32 -82 -8 -16 -34 -48 -57 -70 -29 -27 -47 -54 -54 -83 -7 -25
-30 -63 -56 -92 -25 -28 -53 -67 -64 -88 -10 -20 -43 -66 -71 -102 -29 -36
-70 -102 -91 -148 -27 -57 -46 -86 -63 -94 -14 -6 -47 -41 -74 -77 -42 -57
-60 -72 -138 -114 -49 -26 -110 -53 -135 -59 -26 -6 -57 -8 -70 -5 -13 4 -53
28 -89 56 -45 33 -75 65 -94 101 -27 50 -28 55 -24 173 4 102 9 134 33 197 23
63 28 93 30 190 2 103 6 123 35 194 18 44 41 126 51 183 10 57 32 148 48 201
16 53 43 167 59 252 17 85 42 182 56 216 18 43 30 101 41 198 9 76 23 156 30
179 8 23 30 87 50 142 20 55 42 118 49 141 8 22 29 70 46 105 18 35 41 89 52
119 10 30 30 71 43 92 13 20 35 64 49 97 13 34 45 94 70 134 25 41 54 98 65
128 10 30 41 98 69 152 28 53 64 113 81 132 16 19 35 51 40 72 6 21 11 61 11
88 0 28 -5 68 -11 90 -6 22 -25 55 -42 73 -18 18 -57 47 -87 64 -30 18 -75 47
-99 65 -25 19 -64 39 -89 45 -24 6 -62 26 -85 46 -23 19 -66 48 -95 64 -34 20
-65 48 -90 84 -20 29 -57 88 -81 129 l-43 76 4 112 c3 82 9 121 23 147 10 19
30 51 45 70 15 19 36 53 47 75 11 22 28 63 37 91 9 29 35 81 56 117 22 36 51
101 65 144 14 43 41 114 60 158 18 44 43 118 55 165 11 47 36 120 56 162 21
46 41 109 48 157 9 57 21 93 40 120 17 25 35 72 47 127 11 52 36 121 59 166
33 64 47 111 75 252 19 96 35 185 35 198 0 12 11 46 24 75 14 29 27 74 31 100
3 26 11 73 16 103 6 30 26 112 45 181 19 69 34 141 34 160 0 19 -5 51 -11 72
-6 21 -26 56 -45 77 -20 22 -73 65 -120 96 l-83 56 -51 -13 c-40 -10 -60 -10
-95 -1 -25 7 -51 12 -58 11 -6 -1 -50 -21 -97 -46z m281 -223 c19 -6 46 -21
59 -35 l23 -25 -9 -169 -9 -169 -32 -40 c-18 -22 -37 -51 -43 -64 -5 -13 -18
-67 -29 -122 -13 -62 -29 -112 -45 -136 -13 -20 -29 -55 -35 -76 -6 -21 -18
-86 -26 -144 -11 -79 -24 -122 -50 -175 -19 -40 -41 -107 -50 -152 -9 -45 -22
-100 -30 -122 -7 -21 -25 -56 -39 -78 -13 -21 -54 -114 -90 -208 -37 -93 -75
-186 -85 -205 -10 -19 -30 -56 -45 -82 -15 -25 -34 -79 -42 -120 -8 -40 -24
-86 -34 -103 -10 -16 -46 -84 -79 -150 -36 -72 -64 -144 -70 -179 -6 -33 -18
-68 -28 -78 -9 -10 -27 -18 -39 -18 -16 0 -28 10 -38 28 -8 15 -17 50 -21 77
-4 28 -13 65 -21 83 -7 18 -34 58 -60 89 -45 57 -46 58 -38 108 4 27 9 133 10
235 1 102 6 276 10 387 6 173 5 208 -9 245 -9 24 -17 68 -18 98 -1 30 3 74 10
96 6 23 25 75 42 115 17 41 46 122 66 181 27 83 44 118 75 153 22 25 49 69 60
97 11 29 32 68 47 87 16 20 35 50 44 66 8 17 32 46 52 65 21 19 49 53 64 75
14 22 52 77 84 122 45 64 76 95 139 139 44 31 112 70 152 85 39 16 87 28 106
29 19 0 51 -5 71 -10z"/>
<path d="M18243 13540 c-50 -5 -143 -20 -205 -35 -79 -18 -128 -36 -163 -59
-27 -17 -97 -55 -155 -84 -58 -28 -132 -62 -165 -75 -33 -13 -97 -50 -143 -83
-46 -32 -100 -71 -120 -85 -20 -15 -87 -52 -149 -84 -64 -33 -119 -68 -128
-82 -9 -13 -42 -51 -73 -84 -31 -33 -78 -75 -104 -94 -29 -21 -70 -68 -106
-122 -33 -49 -67 -95 -77 -103 -9 -7 -28 -36 -42 -63 -14 -29 -63 -88 -118
-141 -51 -51 -106 -116 -123 -146 -17 -30 -61 -84 -97 -120 -37 -36 -82 -89
-101 -118 -19 -29 -42 -56 -50 -59 -9 -3 -30 -36 -46 -72 -17 -36 -41 -80 -54
-98 -13 -17 -40 -66 -59 -109 -20 -44 -55 -98 -80 -125 -25 -27 -45 -54 -45
-61 0 -7 -11 -35 -24 -63 -13 -27 -49 -81 -80 -118 -31 -38 -56 -69 -56 -70 0
-1 -11 -31 -24 -67 -13 -36 -37 -99 -54 -140 -17 -41 -39 -99 -51 -128 -12
-29 -21 -69 -21 -90 0 -20 5 -54 10 -74 6 -20 25 -51 42 -68 16 -17 48 -40 69
-50 21 -11 55 -20 77 -20 21 0 43 5 50 12 9 9 6 21 -13 54 -14 23 -31 71 -40
105 -10 45 -12 75 -5 105 5 22 19 63 30 90 12 27 39 72 60 99 21 28 44 71 50
98 8 30 26 62 52 90 22 23 50 64 64 90 14 27 45 77 69 112 24 36 60 78 79 95
24 22 41 50 56 95 13 38 38 84 62 112 22 27 52 73 67 103 15 30 64 102 109
160 46 58 96 122 113 142 16 21 42 61 56 89 15 28 65 92 111 143 46 50 98 115
114 144 22 38 53 70 105 110 46 34 82 70 94 94 10 20 32 44 47 52 15 7 42 17
60 21 21 4 55 28 90 62 35 34 113 89 202 141 80 47 170 96 200 110 30 13 76
39 101 58 26 19 64 40 86 48 21 8 67 28 101 45 35 17 102 45 150 61 52 17 131
34 197 41 61 6 144 9 185 6 41 -4 111 -14 155 -23 44 -9 105 -29 135 -45 30
-16 79 -36 109 -45 31 -9 66 -28 80 -43 14 -15 46 -54 71 -87 25 -32 63 -87
83 -121 20 -34 46 -97 58 -140 12 -45 23 -127 26 -195 3 -64 0 -172 -6 -240
-6 -68 -18 -154 -27 -193 -8 -38 -24 -110 -34 -160 -10 -49 -28 -117 -39 -149
-12 -33 -21 -69 -21 -80 0 -12 -14 -59 -31 -106 -16 -47 -41 -131 -54 -186
-14 -59 -41 -134 -64 -180 -22 -44 -49 -115 -59 -160 -13 -58 -28 -93 -51
-121 -17 -22 -40 -68 -50 -101 -11 -34 -32 -83 -48 -109 -16 -27 -37 -67 -46
-91 -10 -23 -28 -90 -42 -147 -13 -58 -34 -124 -46 -147 -12 -24 -34 -58 -49
-78 -16 -20 -39 -72 -53 -120 -13 -47 -29 -103 -35 -125 -7 -26 -23 -49 -42
-63 -17 -13 -46 -46 -65 -75 -19 -29 -50 -89 -69 -134 -18 -44 -47 -98 -64
-119 -19 -24 -39 -68 -51 -113 -16 -58 -29 -83 -64 -120 -34 -36 -47 -61 -56
-100 -6 -28 -11 -57 -11 -64 0 -7 -12 -30 -26 -51 -15 -21 -44 -88 -65 -149
-21 -60 -54 -133 -73 -161 -19 -28 -47 -81 -61 -117 -21 -54 -40 -80 -100
-137 -58 -56 -78 -84 -95 -129 -12 -33 -38 -75 -60 -98 -21 -22 -45 -57 -54
-77 -8 -21 -29 -55 -45 -76 -17 -20 -38 -60 -48 -87 -9 -27 -25 -64 -35 -82
-11 -17 -33 -42 -51 -56 -18 -13 -51 -34 -74 -46 -24 -12 -64 -48 -92 -83 -38
-46 -53 -76 -62 -116 -8 -40 -8 -70 1 -116 10 -58 9 -65 -20 -145 -17 -46 -42
-103 -56 -126 -13 -23 -33 -84 -45 -135 -11 -51 -25 -102 -31 -113 -6 -11 -23
-31 -38 -43 -15 -13 -39 -50 -54 -83 -16 -37 -32 -100 -42 -168 -13 -90 -19
-111 -39 -128 -13 -11 -35 -28 -48 -37 -21 -15 -31 -41 -62 -175 -21 -87 -45
-174 -55 -193 -10 -19 -34 -87 -54 -150 -20 -63 -41 -150 -47 -192 -5 -42 -16
-96 -24 -119 -8 -23 -15 -74 -15 -113 0 -39 -7 -150 -15 -246 -8 -96 -15 -275
-15 -397 0 -122 5 -257 10 -300 7 -50 22 -101 42 -143 25 -51 57 -90 152 -183
95 -92 136 -125 191 -152 39 -18 97 -38 130 -44 36 -7 72 -8 90 -2 17 4 52 22
80 38 31 18 71 57 108 104 31 41 77 103 101 139 24 36 54 98 67 138 16 50 36
87 61 115 21 23 51 67 68 98 16 31 37 62 46 70 8 7 28 38 44 68 15 31 40 67
55 81 15 14 33 36 40 50 7 14 20 59 30 100 10 41 29 97 42 123 13 27 33 83 44
125 10 43 35 111 54 153 27 58 38 99 46 170 6 52 8 146 5 210 -4 63 -13 157
-21 208 -9 50 -30 131 -49 179 -19 48 -37 112 -41 142 -4 30 -12 64 -17 75 -6
11 -22 32 -35 47 -21 22 -28 44 -40 140 -8 62 -18 130 -24 150 -5 20 -20 50
-33 65 -13 15 -30 42 -39 59 -9 17 -25 63 -36 101 -10 39 -54 135 -96 214 -55
102 -79 158 -83 191 -2 26 -2 62 2 81 4 19 22 55 41 80 27 35 55 56 120 87 52
26 99 58 121 82 29 33 35 46 31 72 -3 17 -19 69 -36 115 -31 82 -31 84 -14
112 10 15 40 59 66 98 42 61 50 81 62 156 11 69 19 92 43 120 17 18 39 59 51
90 12 30 21 60 21 65 0 5 17 29 38 53 21 24 43 57 49 73 7 16 19 54 27 84 9
30 29 71 47 90 17 19 42 52 55 73 13 20 30 66 38 101 9 43 29 90 61 143 27 43
69 116 93 163 24 47 54 96 67 110 13 14 29 39 35 55 6 17 18 66 26 110 13 73
18 83 54 117 22 21 50 59 60 84 11 25 29 59 40 74 12 17 23 53 26 92 4 34 11
72 17 83 5 11 26 33 45 50 22 18 48 58 70 105 19 41 46 90 60 109 13 18 40 69
58 113 19 43 45 98 58 121 14 23 39 85 56 137 17 52 48 136 70 185 21 50 51
119 65 155 14 36 51 130 81 209 33 87 58 172 64 213 5 40 17 82 30 104 15 24
25 61 31 114 4 43 19 114 33 159 14 45 31 113 37 150 6 40 9 182 7 342 l-3
274 -29 55 c-16 30 -51 99 -78 152 -35 69 -63 109 -97 140 -26 24 -105 74
-176 112 -127 68 -131 69 -319 107 -125 25 -215 38 -261 37 -38 0 -111 -4
-162 -8z m-1030 -6061 c12 -6 34 -23 49 -37 15 -14 39 -56 54 -94 14 -38 44
-90 65 -114 22 -25 39 -47 39 -49 0 -1 9 -49 21 -106 11 -57 31 -124 45 -148
13 -24 33 -78 43 -120 10 -42 22 -100 25 -130 4 -29 25 -101 47 -160 30 -77
43 -131 50 -196 5 -49 13 -162 19 -250 l10 -160 -50 -99 c-31 -60 -59 -132
-71 -185 -14 -60 -32 -104 -59 -146 -21 -33 -48 -82 -59 -108 -11 -26 -34 -64
-50 -85 -17 -20 -43 -67 -60 -103 -16 -36 -37 -72 -46 -79 -9 -8 -28 -37 -42
-64 -14 -28 -40 -65 -58 -82 -21 -19 -37 -47 -44 -75 -7 -24 -19 -63 -27 -86
-11 -31 -32 -56 -79 -93 -43 -34 -72 -50 -92 -50 -16 0 -52 7 -79 15 -27 8
-68 30 -90 49 -22 19 -50 54 -62 78 -12 24 -37 79 -56 123 -19 44 -47 130 -62
190 -15 61 -33 130 -41 155 -8 25 -26 81 -40 125 -21 70 -24 94 -21 195 3 100
9 130 40 225 21 63 46 167 57 245 12 74 23 178 25 231 4 85 8 104 39 165 19
38 44 98 55 134 12 36 28 98 37 138 8 40 20 83 27 95 6 12 28 42 48 67 21 25
45 59 53 75 8 17 19 48 25 70 5 22 13 52 16 67 4 15 25 50 49 76 23 27 65 76
94 110 29 33 61 83 72 112 11 29 28 61 37 71 9 11 19 19 21 19 2 0 14 -5 26
-11z"/>
<path d="M9228 11810 c-21 -11 -45 -34 -54 -51 -8 -17 -16 -54 -17 -83 0 -30
6 -64 16 -84 10 -17 35 -44 57 -58 22 -15 81 -37 131 -50 50 -13 101 -24 113
-24 12 0 66 -16 121 -35 83 -29 114 -35 183 -35 55 0 93 5 112 15 16 9 33 27
36 41 4 14 4 44 1 66 -3 23 -14 53 -25 67 -10 14 -43 38 -73 53 -30 15 -94 41
-143 58 -50 18 -110 46 -134 62 -25 17 -68 40 -96 50 -28 11 -82 22 -121 24
-57 4 -77 1 -107 -16z"/>
<path d="M29555 9601 c-33 -15 -69 -38 -80 -50 -14 -17 -20 -41 -23 -91 -4
-57 -1 -75 17 -103 12 -19 46 -54 76 -77 43 -33 81 -50 168 -77 62 -18 186
-46 275 -63 90 -16 285 -60 432 -96 261 -65 269 -67 295 -50 14 9 35 31 45 49
11 18 20 50 20 72 0 22 -9 54 -19 71 -11 18 -34 43 -53 57 -18 13 -64 42 -103
62 -38 21 -128 62 -200 92 -80 33 -168 61 -229 73 -69 14 -125 33 -190 65 -50
25 -129 56 -175 70 -47 14 -110 25 -140 25 -41 0 -72 -8 -116 -29z"/>
<path d="M19750 8850 c-19 -3 -45 -12 -57 -18 -11 -6 -34 -29 -51 -49 -16 -21
-35 -49 -42 -62 -7 -13 -21 -83 -31 -155 -10 -72 -21 -216 -25 -321 -5 -134
-3 -212 6 -265 6 -41 20 -94 30 -117 10 -23 32 -59 48 -80 17 -21 42 -66 56
-100 14 -34 26 -72 26 -83 0 -12 -9 -43 -21 -70 -17 -40 -33 -57 -87 -92 -36
-24 -75 -48 -86 -55 -12 -6 -66 -20 -121 -30 -55 -10 -125 -18 -155 -17 -39 0
-83 12 -150 39 -67 27 -109 38 -142 37 -26 0 -63 -8 -83 -18 -19 -9 -46 -30
-60 -46 -14 -17 -25 -42 -25 -59 0 -18 9 -39 23 -53 13 -13 49 -33 80 -44 31
-12 87 -24 124 -28 37 -4 119 -19 181 -35 99 -25 118 -27 165 -18 28 6 113 40
187 76 74 37 152 81 172 99 21 18 61 45 90 60 29 14 68 38 87 52 18 13 61 33
94 44 33 10 69 16 81 12 12 -3 62 -23 112 -45 89 -38 95 -39 205 -39 114 0
114 0 187 40 40 22 105 64 145 94 40 29 84 66 98 82 15 16 55 68 90 116 35 47
81 116 101 151 21 36 49 105 63 154 14 48 30 101 37 117 7 18 26 35 52 47 23
10 49 19 59 19 10 0 80 -25 155 -56 75 -31 184 -71 242 -89 59 -18 137 -36
175 -40 39 -4 117 -18 175 -31 58 -13 133 -34 167 -45 43 -14 73 -18 95 -13
18 3 104 7 191 6 142 0 162 -2 186 -19 14 -11 33 -38 41 -61 12 -35 12 -54 1
-124 -7 -46 -16 -110 -20 -143 -5 -33 -23 -105 -41 -160 -31 -96 -33 -109 -40
-325 -5 -133 -4 -258 1 -305 5 -44 16 -103 24 -132 9 -29 20 -55 26 -59 7 -4
32 -50 57 -103 24 -53 62 -117 84 -143 24 -29 67 -62 115 -88 l76 -42 136 4
c122 4 145 8 219 36 54 20 109 51 155 86 40 30 81 70 92 88 10 18 54 78 96
134 45 59 85 125 98 160 12 32 37 75 56 94 18 19 48 64 65 100 18 36 41 76 52
90 11 13 35 57 53 97 19 40 41 76 50 79 9 4 28 -2 43 -13 15 -11 35 -35 45
-54 9 -19 27 -60 38 -93 12 -32 36 -75 54 -95 17 -20 45 -60 60 -89 16 -29 38
-58 49 -64 12 -6 46 -35 77 -64 30 -30 73 -61 94 -69 21 -9 70 -23 109 -30 53
-10 99 -11 180 -5 67 6 134 18 173 31 37 14 88 43 124 73 34 27 84 62 111 76
27 15 103 78 169 140 66 62 137 124 157 138 20 13 57 43 82 66 25 23 73 57
108 76 35 18 72 47 84 63 12 16 39 38 62 48 23 10 52 19 65 19 14 0 33 -8 43
-17 10 -9 25 -40 34 -69 8 -29 26 -67 39 -86 14 -18 37 -55 52 -82 16 -26 46
-70 68 -96 23 -27 58 -62 79 -79 20 -16 50 -47 65 -68 16 -21 41 -47 57 -57
16 -11 41 -33 56 -51 15 -18 80 -71 145 -117 65 -47 132 -92 148 -100 17 -9
86 -34 155 -56 69 -22 160 -45 203 -51 43 -6 101 -11 128 -11 30 0 73 10 109
25 33 14 73 25 89 25 17 0 65 11 109 25 43 14 105 42 138 63 32 22 82 64 109
94 28 31 74 83 103 116 29 34 64 86 77 116 13 30 34 61 47 70 12 9 37 16 54
16 23 0 39 -8 53 -26 12 -15 21 -33 21 -41 0 -7 9 -31 19 -52 11 -20 27 -43
35 -50 9 -8 31 -41 48 -74 18 -32 47 -71 66 -86 19 -14 70 -56 113 -93 43 -37
96 -76 116 -87 21 -10 82 -29 136 -41 61 -14 115 -21 145 -18 31 3 77 21 136
54 70 39 98 61 133 106 24 32 50 73 58 92 8 20 15 50 15 68 0 18 11 48 26 69
14 21 35 66 47 101 22 63 22 63 64 66 22 2 57 -4 77 -12 23 -10 45 -30 63 -60
15 -25 44 -54 65 -66 21 -12 63 -52 93 -90 30 -37 66 -77 80 -88 14 -12 47
-28 73 -36 26 -9 66 -31 90 -50 24 -19 72 -43 111 -55 42 -13 86 -35 110 -55
23 -19 67 -44 98 -56 31 -11 126 -40 212 -62 l156 -42 205 2 c113 1 242 7 287
12 45 6 125 24 178 40 53 16 138 35 188 41 51 6 118 9 150 6 32 -3 69 -12 82
-21 15 -10 28 -32 35 -58 6 -24 19 -70 30 -104 11 -33 20 -74 20 -90 0 -16
-13 -46 -30 -68 -17 -22 -30 -51 -30 -65 0 -14 7 -82 17 -150 14 -107 15 -141
5 -260 -7 -75 -17 -195 -22 -268 -8 -107 -14 -139 -33 -170 -19 -33 -22 -53
-23 -153 -1 -63 -6 -173 -12 -245 -6 -71 -12 -191 -12 -265 0 -111 -3 -140
-18 -161 -9 -15 -25 -38 -35 -52 -14 -19 -27 -83 -47 -225 -21 -144 -36 -217
-55 -262 -14 -34 -30 -96 -35 -138 -6 -43 -16 -133 -25 -200 -10 -87 -20 -133
-34 -155 -11 -18 -30 -49 -41 -70 -11 -21 -31 -88 -45 -150 -13 -62 -37 -150
-54 -197 -17 -49 -34 -124 -40 -177 -6 -58 -20 -116 -36 -155 -15 -35 -36 -85
-47 -113 -11 -27 -28 -88 -38 -135 -10 -47 -44 -146 -75 -220 -31 -74 -79
-199 -106 -278 -27 -79 -63 -172 -79 -207 -16 -35 -34 -95 -40 -133 -5 -38
-14 -169 -20 -291 -8 -190 -8 -226 5 -251 8 -15 27 -38 41 -49 15 -12 39 -21
53 -21 15 0 41 12 59 27 23 20 36 44 45 83 8 30 19 91 25 135 6 44 16 124 22
178 6 53 20 121 31 150 12 28 30 75 41 102 11 28 31 106 44 175 17 87 32 136
49 160 14 20 31 56 39 80 9 25 19 98 25 164 9 113 11 121 46 172 20 29 45 81
56 114 10 34 19 80 19 103 0 27 10 59 31 96 23 39 42 103 70 228 21 95 59 228
85 295 33 88 48 146 53 203 5 47 16 96 28 120 12 22 26 74 32 115 6 41 22 113
36 160 13 47 34 148 46 225 11 77 27 187 36 245 8 58 16 150 18 205 2 55 7
116 10 135 4 19 15 63 25 97 11 35 26 129 35 210 8 82 19 174 24 205 6 31 21
78 35 105 19 35 26 63 26 103 0 30 6 132 15 225 8 94 21 262 30 375 11 152 12
217 4 250 -6 25 -8 76 -5 113 4 38 2 85 -4 105 -5 21 -14 76 -19 124 -6 48
-17 100 -25 116 -8 16 -40 46 -70 67 -49 34 -64 38 -148 47 -51 6 -138 7 -193
4 -55 -4 -158 -13 -230 -22 -71 -9 -171 -24 -222 -34 -50 -11 -129 -24 -175
-30 -53 -6 -129 -7 -213 -1 -108 7 -150 15 -245 46 -63 21 -151 55 -195 77
-44 22 -105 55 -136 74 -31 19 -76 41 -100 49 -24 9 -64 35 -89 59 -25 24 -62
54 -82 68 -21 13 -52 43 -70 65 -18 22 -63 66 -100 97 -36 31 -75 70 -86 88
-11 18 -29 64 -42 101 -12 37 -33 81 -47 97 -13 16 -41 34 -62 40 -24 6 -49 6
-73 -1 -23 -6 -50 -25 -70 -48 -18 -22 -48 -64 -66 -94 -18 -30 -44 -95 -57
-145 -13 -50 -38 -115 -54 -144 -18 -32 -37 -89 -47 -142 -17 -88 -19 -91 -71
-140 -30 -28 -66 -56 -81 -63 -15 -7 -49 -12 -77 -13 -33 0 -61 7 -83 20 -18
11 -56 38 -85 61 -29 22 -78 70 -109 107 -32 37 -72 94 -89 127 -17 33 -44 78
-59 100 -15 22 -40 74 -54 115 -15 41 -41 98 -57 127 -16 28 -38 77 -49 109
-11 32 -30 68 -42 81 -16 17 -33 23 -65 23 -24 0 -57 -7 -72 -15 -18 -9 -46
-44 -75 -94 -25 -44 -61 -122 -80 -174 -20 -57 -52 -121 -80 -160 -25 -35 -53
-84 -61 -108 -9 -24 -23 -51 -31 -61 -9 -9 -38 -25 -66 -34 -27 -9 -72 -32
-101 -51 -29 -20 -90 -51 -137 -70 -70 -29 -94 -34 -135 -30 -27 3 -97 10
-155 16 -58 6 -120 14 -138 17 -18 3 -50 21 -71 39 -21 19 -68 49 -104 67 -57
28 -73 43 -109 98 -34 50 -56 71 -101 95 -36 20 -80 58 -120 103 -34 38 -82
105 -107 149 -25 43 -61 125 -82 183 -20 58 -48 135 -62 173 -14 37 -33 78
-41 91 -8 12 -27 28 -41 34 -14 7 -48 12 -77 12 -32 0 -63 -7 -81 -18 -18 -11
-44 -46 -66 -87 -35 -67 -40 -72 -111 -107 -44 -21 -94 -57 -124 -87 -27 -27
-62 -63 -76 -78 -14 -15 -47 -40 -75 -56 -27 -15 -72 -46 -100 -70 -28 -23
-85 -68 -126 -100 -41 -32 -85 -71 -97 -88 -12 -16 -52 -44 -89 -63 -38 -19
-122 -51 -187 -70 -66 -20 -128 -42 -140 -50 -11 -7 -31 -15 -44 -19 -13 -3
-33 -1 -44 5 -11 5 -56 38 -100 72 -44 33 -91 77 -104 96 -14 19 -39 60 -57
91 -18 30 -40 74 -49 97 -9 22 -24 101 -32 174 -9 73 -23 165 -32 203 -8 39
-22 82 -29 97 -7 14 -26 36 -40 47 -18 14 -41 21 -73 21 -25 0 -61 -8 -80 -18
-19 -9 -43 -28 -53 -42 -10 -14 -25 -63 -34 -110 -8 -47 -27 -105 -40 -130
-14 -25 -35 -83 -46 -130 -11 -47 -25 -94 -31 -105 -5 -11 -25 -38 -43 -61
-19 -22 -43 -63 -55 -90 -12 -27 -39 -74 -60 -104 -20 -30 -58 -75 -84 -100
-30 -29 -61 -74 -85 -125 -31 -64 -56 -96 -119 -158 -45 -43 -98 -85 -118 -94
-23 -9 -67 -16 -108 -16 -38 0 -89 5 -113 12 -24 7 -60 28 -82 47 -21 19 -57
71 -80 115 -28 55 -47 107 -57 162 -9 53 -15 145 -14 262 0 99 5 213 10 253 7
42 28 113 50 165 32 74 41 111 47 182 6 77 13 99 46 162 28 54 40 91 45 136 4
48 2 71 -11 95 -11 20 -35 42 -69 59 -47 24 -68 27 -222 36 -93 6 -231 9 -305
8 -81 -2 -181 4 -249 13 -62 9 -167 30 -234 46 -67 17 -144 38 -172 46 -27 9
-108 43 -180 76 -71 32 -184 86 -250 120 -119 60 -120 60 -190 56 -38 -3 -84
-12 -101 -21 -16 -8 -53 -46 -81 -84 -27 -37 -56 -79 -64 -93 -9 -16 -15 -74
-19 -167 l-5 -142 -31 -33 c-17 -18 -48 -59 -68 -90 -21 -32 -73 -91 -116
-131 -44 -42 -104 -86 -137 -102 -37 -18 -74 -29 -103 -29 -25 0 -67 6 -95 13
-27 8 -67 18 -87 23 -28 6 -39 15 -44 34 -4 16 4 51 24 102 17 42 40 115 52
162 11 47 30 112 41 145 12 33 24 94 28 135 4 41 4 107 0 145 -5 39 -25 115
-46 170 -21 55 -45 109 -53 120 -8 11 -39 41 -68 67 -36 32 -72 53 -115 66
-34 11 -98 22 -142 24 -44 3 -96 2 -115 -2z m230 -282 c14 -17 44 -50 68 -74
l42 -42 0 -114 c0 -62 -5 -131 -11 -153 -6 -22 -31 -88 -56 -148 -25 -59 -55
-114 -66 -122 -12 -8 -36 -15 -53 -15 -17 0 -43 9 -56 20 -14 11 -35 40 -47
66 -12 25 -31 91 -43 147 -12 63 -18 119 -15 148 3 26 15 78 26 116 11 37 22
89 26 114 3 26 11 54 18 64 7 9 29 20 47 25 19 4 49 6 65 3 18 -2 40 -17 55
-35z"/>
</g>
</svg>
