<?xml version="1.0" encoding="utf-8"?>
<!-- Generator: Adobe Illustrator 16.0.0, SVG Export Plug-In . SVG Version: 6.00 Build 0)  -->
<!DOCTYPE svg PUBLIC "-//W3C//DTD SVG 1.1//EN" "http://www.w3.org/Graphics/SVG/1.1/DTD/svg11.dtd">
<svg version="1.1" xmlns="http://www.w3.org/2000/svg" xmlns:xlink="http://www.w3.org/1999/xlink" x="0px" y="0px" width="418px"
	 height="133px" viewBox="0 0 418 133" enable-background="new 0 0 418 133" xml:space="preserve">
<g id="Layer_1">
</g>
<g id="Layer_2">
	<g>
		<g>
			<path d="M47.912,14.755C42.237,2.451,32.924,14.42,28.631,20.8c-1.962,2.914-4.753,7.674-3.006,11.352
				c3.065,6.458,6.613,9.516,3.275,17.148c-2.149,4.911-6.811,8.631-10.248,12.66c-5.249,6.152,2.29,5.28,6.097,3.288
				c9.092-4.758,17.747-10.782,26.207-16.576c4.141-2.836,8.615-5.861,11.182-10.282c-1.145-0.31-2.287-0.62-3.43-0.928
				c0.624,5.985-4.522,11.223-0.751,17.472c5.526,9.158,1.072,21.998-3.67,30.746c-6.152,11.351-16.388,21.036-26.545,28.825
				c-2.241,1.719-9.258,8.092-9.477,2.708c-0.252-6.24,2.999-13.317,5.882-18.588c4.977-9.098,17.454-14.615,25.664-20.373
				c6.504-4.563,16.295-10.678,18.872-18.716c1.112-3.469,5.579-21.375,12.427-10.689c1.49,2.326,2.332,6.146,5.067,7.491
				c7.96,3.914,19.79-8.691,25.747-4.418c0-1.059,0-2.119,0-3.178c-1.679,0.721-3.62,1.09-4.968,2.438
				c-3.001,3.001-0.658,7.329-4.799,10.659c-1.74,1.399,0.474,3.712,2.229,2.89c2.914-1.363,5.617-3.287,8.281-5.069
				c1.422-0.953,2.908-2.005,4.204-3.127c1.053-0.828,2.025-1.742,2.913-2.742c-1.321-1.093-1.744-0.808-1.267,0.855
				c0.058,2.237,0.753,3.769,2.152,5.421c0.45,0.532,1.985,0.908,2.376,1.053c5.229,1.938,9.158,2.896,12.25,8.535
				c1.142,2.08,4.32,0.224,3.18-1.858c-1.863-3.392-4.06-7.156-7.909-8.617c-2.77-1.05-7.911-0.633-8.368-4.534
				c-0.149-1.298,0.056-2.504-0.367-3.755c-0.35-1.033-1.227-1.448-2.265-1.285c-2.385,0.374-5.107,4.176-6.781,5.469
				c-3.122,2.411-6.67,4.798-10.257,6.477c0.743,0.963,1.486,1.927,2.23,2.89c4.48-3.603,3.346-10.082,9.021-12.521
				c1.397-0.601,0.98-2.474,0-3.178c-2.835-2.034-8.303,0.01-11.075,1.071c-3.563,1.364-7.014,2.721-10.688,3.788
				c-5.066,1.47-6.754-5.086-8.577-7.932c-4.015-6.267-12.975-2.516-15.415,2.887c-3.414,7.556-3.682,12.744-10.117,18.736
				c-6.301,5.868-13.831,10.505-20.959,15.288c-10.566,7.091-17.026,13.411-20.89,25.919c-1.172,3.798-3.984,16.384,3.843,14.908
				c9.983-1.883,20.987-15.001,27.288-21.913c10.125-11.109,16.133-23.533,16.906-38.638c0.17-3.308-0.625-6.382-2.491-9.093
				c-3.887-5.649,1.355-10.8,0.782-16.301c-0.179-1.725-2.439-2.633-3.428-0.929c-4.205,7.243-14.057,11.851-20.871,16.224
				c-5.001,3.209-10.027,6.383-15.199,9.314c-1.599,0.907-3.739,4.957-0.659,1.347c2.028-2.377,4.208-4.619,6.23-7.008
				c3.644-4.305,6.321-9.753,5.486-15.563c-0.496-3.451-1.527-5.338-3.643-8.06c-6.045-7.777,11.979-21.482,14.429-16.171
				C45.727,18.767,48.899,16.895,47.912,14.755L47.912,14.755z"/>
		</g>
		<g>
			<path d="M175.643,51.973c6.135-8.482,13.035-16.421,20.107-24.126c2.737-2.981,5.6-5.84,8.467-8.696
				c2.778-2.765,11.059-9.547,9.074-0.516c-1.421,6.457-4.734,12.492-7.808,18.292c-5.372,10.131-11.307,19.959-16.877,29.981
				c-1.484,2.671-7.402,10.458-5.319,13.93c0.323,0.537,0.945,0.942,1.59,0.911c3.152-0.152,5.67-5.187,7.287-7.387
				c5.695-7.739,11.062-15.703,17.055-23.219c2.203-2.763,4.55-5.401,7.142-7.803c6.097-5.645,3,5.651,2.104,8.571
				c-1.554,5.048-4.274,10.064-4.361,15.411c-0.034,2.06,3.149,2.532,3.613,0.489c1.727-7.587,9.6-13.794,15.09-18.624
				c2.951-2.596,6.116-4.978,9.349-7.21c2.032-1.404,0.719-1.561-0.013,0.732c-0.854,2.675-1.585,5.277-1.393,8.103
				c0.329,4.844,6.382,6.784,10.478,5.938c9.18-1.898,12.173-8.675,16.725-15.872c-1.06,0-2.118,0-3.178,0
				c1.653,2.612-1.26,8.312,3.537,11.121c6.325,3.706,14.896-2.532,18.714-7.186c1.561-1.903,4.508-8.55,0.383-9.684
				c-4.055-1.116-5.886,7.105-6.135,9.48c-1.943,18.597,17.652,5.034,24.069-0.25c8.773-7.223,16.692-15.682,26.233-21.923
				c4.355-2.85,12.751-8.123,11.89-14.65c-0.271-2.036-2.868-2.535-3.614-0.489c-1.132,3.103-1.163,6.676-2.203,9.89
				c-2.283,7.045-5.406,13.841-8.457,20.577c-3.81,8.411-7.488,18.041-13.115,25.455c1.059,0.62,2.118,1.239,3.177,1.857
				C324.143,57.346,330.312,50.13,336,43c3.269-4.095,6.624-8.142,10.298-11.881c4.461-4.541,0.119-6.284-2.395-1.383
				c-5.1,9.941,9.271,15.351,16.847,14.421c4.884-0.599,20.403-9.986,13.771-16.601c-0.463-0.463-1.156-0.649-1.788-0.474
				c-5.025,1.392-9.441,16.999-2.404,18.303c8.862,1.643,8.345-4.538,15.049-7.18c2.919-1.15,16.864,15.502,18.002,18.097
				c0.953,2.168,4.122,0.292,3.179-1.858c-2.648-6.034-9.551-10.526-13.95-15.255c-4.076-4.38-4.599-6.878-10.937-3.444
				c-1.55,0.839-2.311,1.765-3.18,3.288c-2.66,0.241-5.321,0.482-7.983,0.723c0.023-1.339,0.239-2.645,0.649-3.914
				c0.434-1.665,1.239-3.208,2.112-4.676c-5.072,8.521-16.621,13.172-24.729,5.949c-5.668-5.052,0.491-6.662,2.742-8.75
				c0.681-0.631,0.757-1.984,0-2.602c-6.835-5.568-31.572,31.704-35.208,37.456c-1.303,2.058,1.784,3.691,3.177,1.857
				c6.121-8.063,10.004-18.585,14.146-27.731c4.328-9.552,6.504-19.471,10.002-29.069c-1.205-0.163-2.41-0.327-3.614-0.489
				c0.917,6.949-10.814,11.627-15.349,15.259c-7.459,5.97-14.406,12.542-21.697,18.712c-3.326,2.815-6.776,5.428-10.526,7.646
				c-4.537,2.685-7.89-1.529-6.975-6.034c0.683-3.356,4.797-8-2.26,0.603c-4.085,4.978-14.55,7.662-14.748-1.183
				c-0.027-1.185,0.401-2.693-0.279-3.769c-0.753-1.187-2.427-1.188-3.178,0c-2.264,3.578-3.685,7.1-6.717,10.301
				c-3.113,3.29-14.855,6.222-13.454-1.812c0.294-1.681,0.931-3.329,1.446-4.95c0.621-1.945,1.025-5.978-2.321-5.336
				c-8.254,1.583-17.396,12.446-22.645,18.226c-2.873,3.164-5.944,7.117-6.915,11.384c1.205,0.163,2.41,0.327,3.615,0.489
				c0.033-2.138,12.648-36.729-0.764-28.941c-7.266,4.22-12.384,12.526-17.266,19.138c-3.307,4.481-6.492,9.051-9.742,13.574
				c-1.342,1.87-2.708,3.725-4.154,5.519c-2.24,2.78,0.856,2.046,2.205-0.797c5.677-11.981,13.029-23.234,19.414-34.844
				c3.552-6.456,13.744-21.869,9.693-29.657c-6.334-12.177-39.836,32.069-44.707,38.802
				C171.069,52.042,174.264,53.876,175.643,51.973L175.643,51.973z"/>
		</g>
	</g>
</g>
</svg>
