<?xml version="1.0" encoding="UTF-8" standalone="no"?>
<svg
   xmlns:dc="http://purl.org/dc/elements/1.1/"
   xmlns:cc="http://creativecommons.org/ns#"
   xmlns:rdf="http://www.w3.org/1999/02/22-rdf-syntax-ns#"
   xmlns:svg="http://www.w3.org/2000/svg"
   xmlns="http://www.w3.org/2000/svg"
   xmlns:sodipodi="http://sodipodi.sourceforge.net/DTD/sodipodi-0.dtd"
   xmlns:inkscape="http://www.inkscape.org/namespaces/inkscape"
   width="621.09003"
   height="410"
   id="svg2"
   version="1.1"
   inkscape:version="0.47 r22583"
   sodipodi:docname="Farah Pahlavi signature.svg">
  <title
     id="title2881">Farah Pahlavi signature's</title>
  <defs
     id="defs4">
    <inkscape:perspective
       sodipodi:type="inkscape:persp3d"
       inkscape:vp_x="0 : 526.18109 : 1"
       inkscape:vp_y="0 : 1000 : 0"
       inkscape:vp_z="744.09448 : 526.18109 : 1"
       inkscape:persp3d-origin="372.04724 : 350.78739 : 1"
       id="perspective10" />
    <inkscape:perspective
       id="perspective2839"
       inkscape:persp3d-origin="22.110235 : 9.8503939 : 1"
       inkscape:vp_z="44.22047 : 14.775591 : 1"
       inkscape:vp_y="0 : 1000 : 0"
       inkscape:vp_x="0 : 14.775591 : 1"
       sodipodi:type="inkscape:persp3d" />
    <style
       id="style2864"
       type="text/css">
   
    .fil0 {fill:#1F1A17}
   
  </style>
    <inkscape:perspective
       id="perspective2874"
       inkscape:persp3d-origin="372.04724 : 350.78739 : 1"
       inkscape:vp_z="744.09448 : 526.18109 : 1"
       inkscape:vp_y="0 : 1000 : 0"
       inkscape:vp_x="0 : 526.18109 : 1"
       sodipodi:type="inkscape:persp3d" />
  </defs>
  <sodipodi:namedview
     id="base"
     pagecolor="#ffffff"
     bordercolor="#666666"
     borderopacity="1.0"
     inkscape:pageopacity="0.0"
     inkscape:pageshadow="2"
     inkscape:zoom="3.2132382"
     inkscape:cx="435.54861"
     inkscape:cy="180.00533"
     inkscape:document-units="px"
     inkscape:current-layer="layer1"
     showgrid="false"
     inkscape:window-width="1280"
     inkscape:window-height="968"
     inkscape:window-x="-4"
     inkscape:window-y="-4"
     inkscape:window-maximized="1"
     showguides="true"
     inkscape:guide-bbox="true" />
  <metadata
     id="metadata7">
    <rdf:RDF>
      <cc:Work
         rdf:about="">
        <dc:format>image/svg+xml</dc:format>
        <dc:type
           rdf:resource="http://purl.org/dc/dcmitype/StillImage" />
        <dc:title>Farah Pahlavi signature's</dc:title>
        <cc:license
           rdf:resource="http://creativecommons.org/licenses/publicdomain/" />
        <dc:source>http://sphotos.ak.fbcdn.net/hphotos-ak-snc6/hs056.snc6/168633_1803644132303_1275866154_2079316_7939976_n.jpg</dc:source>
        <dc:description>امضای فرح پهلوی، همسر محمدرضا پهلوی شاه ایران بین سالهای 1320 تا1357</dc:description>
      </cc:Work>
      <cc:License
         rdf:about="http://creativecommons.org/licenses/publicdomain/">
        <cc:permits
           rdf:resource="http://creativecommons.org/ns#Reproduction" />
        <cc:permits
           rdf:resource="http://creativecommons.org/ns#Distribution" />
        <cc:permits
           rdf:resource="http://creativecommons.org/ns#DerivativeWorks" />
      </cc:License>
    </rdf:RDF>
  </metadata>
  <g
     inkscape:label="Layer 1"
     inkscape:groupmode="layer"
     id="layer1"
     transform="translate(0,-642.36196)">
    <g
       id="Layer_x0020_1"
       transform="matrix(3.543307,0,0,3.543307,-35.111513,382.96752)"
       style="fill:#000000;stroke:none">
      <metadata
         id="CorelCorpID_0Corel-Layer" />
      <path
         id="path2868"
         d="m 147.19244,99.632703 c 1.0573,0 1.9148,0.816697 1.9148,1.823697 0,1.007 -0.8575,1.8237 -1.9148,1.8237 -1.0574,0 -1.9149,-0.8167 -1.9149,-1.8237 0,-1.007 0.8575,-1.823697 1.9149,-1.823697 z m -24.64145,25.791817 c -0.7082,1.4842 -4.95765,4.33528 -6.84835,3.96468 -0.7972,-1.8332 0.12785,-5.18558 1.61275,-5.39508 0.9001,-0.1683 4.3494,0.7711 5.2356,1.4304 z m 56.67055,42.32728 c -9.9127,7.2013 -28.8673,14.8693 -45.7088,15.5937 -18.2855,0.7864 -40.510299,-10.7912 -30.1143,-32.3189 2.6143,-5.4141 7.0155,-11.6508 12.4338,-14.663 1.3216,2.0289 3.2774,4.2195 4.2678,5.5329 2.1852,2.8976 4.7106,6.957 5.5658,11.1193 -0.3388,2.5854 -2.2281,4.2299 -3.8648,6.7519 -2.1894,3.3736 -9.02,8.7718 -5.2203,12.8692 4.8128,5.19 11.7657,-3.0277 13.0673,-7.9166 0.741,-2.7835 0.8452,-5.7036 1.0803,-8.8581 0.9683,-3.0176 3.8186,-6.3158 5.7561,-8.7646 4.297,-5.4312 7.6563,-7.3226 12.4867,-11.9724 7.237,-6.9665 9.113,-1.7139 12.3587,-11.9052 1.6082,-5.05 1.1623,-5.039 -3.5372,-5.7149 -7.8346,-1.1266 -6.2259,10.2506 -10.5369,13.6812 -4.7212,3.7571 -13.8501,12.7608 -18.2392,17.9241 -1.4568,-1.6584 -2.35,-5.3889 -5.828,-9.8428 -0.5707,-0.7308 -4.1367,-4.9073 -4.0816,-5.4179 6.0205,-6.1609 23.3306,-10.556 22.921,-11.9175 -1.2736,-4.2332 -12.6138,-1.4519 -15.0454,-1.5893 -4.6462,-0.2625 -5.3796,-1.5634 -9.366,-1.5634 -3.4836,0 -5.7878,3.2924 -6.6466,6.1317 -0.8358,3.443 0.0545,4.1814 1.0165,6.7197 -3.3826,4.2446 -10.88055,11.52029 -13.497604,18.051 -10.615643,26.49079 14.838804,39.7029 34.162504,38.3134 18.0034,-1.2945 38.2512,-8.401 48.0826,-17.861 5.944,-5.7193 3.7789,-6.2266 -1.5124,-2.3825 z M 47.4481,140.31873 c -0.0045,-2.6235 3.0611,-4.6689 5.9462,-6.6032 2.0388,-1.3668 5.2833,-2.7418 4.6993,-4.0991 -0.6883,-1.5996 -2.6987,-0.4808 -6.2746,0.7878 -2.892,1.0258 -12.254578,8.2243 -9.001978,12.5028 0.9234,1.2149 1.616878,1.5578 2.127478,2.736 0.9903,2.2854 -0.454,3.5692 -3.0031,4.1311 -20.7191,4.5681 -31.3602,-16.1877 -25.4889,-34.3919 5.3802,-16.681897 19.1673,-28.230699 34.6298,-35.616599 3.9807,-1.9014 7.5871,1.6078 9.0949,-0.2745 0.5847,-1.7629 -3.5299,-6.671 -6.6765,-5.3566 -17.4926,7.3077 -35.4014,22.3839 -40.8899,41.008899 -6.9262004,23.5031 6.494397,44.00417 30.518597,38.85667 2.552,-0.5468 8.93421,-4.81147 6.50861,-8.31697 -1.2861,-1.8589 -2.186207,-3.2307 -2.189907,-5.3644 z M 63.960441,130.1929 c 0,1.3064 -0.8933,7.4361 -3.0484,7.3678 -2.9025,-0.0923 -2.677422,-4.21668 -6.031722,-1.19308 -2.9378,2.6485 1.668722,4.47858 1.442122,6.85228 -0.2753,2.8831 -7.9323,9.1267 -7.0315,10.0591 0.9008,0.9324 5.8576,-1.9986 7.6818,-3.6999 2.2376,-2.0872 1.9047,-3.3788 3.6984,-5.487 1.3237,-1.5557 4.3718,-4.2423 5.4626,-5.7289 0.5406,-0.7368 2.0447,-3.6259 3.7474,-2.2663 1.0218,0.8158 3.6334,-0.9666 5.1417,-1.0096 1.0306,-0.0295 2.098,0.0902 2.3591,0.2068 0.7138,0.3187 -1.0377,2.9349 -1.7266,3.9857 -2.0672,3.1526 -9.1261,6.7693 -3.8318,8.6709 3.0525,1.0963 9.9221,-9.7358 13.3466,-13.7086 2.7559,-3.197 3.802426,-3.68088 5.232249,-5.10991 1.429823,-1.42903 7.362261,-4.15913 7.969166,-5.11131 1.12176,-6.08339 -8.677262,0.16731 -10.602779,2.08562 -0.937239,0.93373 -2.582036,3.1234 -4.332736,3.7614 -0.9366,0.3415 -2.4694,-0.3603 -5.1185,-0.3577 -0.8852,9e-4 -1.6428,0.1749 -2.3602,0.4191 -1.1957,0.4071 -2.2799,1.01 -3.6581,1.3329 -3.0848,0.7228 -3.6946,-1.2745 -3.8786,-3.8663 -0.1993,-2.8048 -1.1368,-11.6581 -4.447,-10.562 -3.8443,1.2729 -0.0132,9.8377 -0.0132,13.359 z m -5.7502,35.2079 c 1.7901,1.4667 4.4949,-4.4171 7.4236,-0.9696 0.5856,0.6893 0.9256,2.1969 0.0441,3.058 -0.9419,0.9201 -9.9584,8.0232 -8.3892,8.2164 5.2847,0.6508 15.1426,-6.4783 14.0394,-12.3179 -1.2752,-6.75 -7.9145,-5.9077 -12.1399,-3.2549 -2.4987,1.5687 -3.379,3.3006 -0.978,5.268 z m 68.704599,-6.6858 c 0,2.6317 -0.6739,8.4694 -4.3986,8.3621 -3.7248,-0.1074 4.3986,-7.1763 4.3986,-8.3621 z"
         class="fil0"
         style="fill:#000000;stroke:none"
         sodipodi:nodetypes="cssscccccccccscssscssccscscsssccsccccssscsccscccssccscssssssssssszcsssssssccsssssccsc" />
    </g>
  </g>
</svg>
