<?xml version="1.0" encoding="UTF-8"?>
<svg version="1.1" xmlns="http://www.w3.org/2000/svg" width="413" height="106" >
<path fill="#231F20" d="M52.978,70.008c-9.839-7.731-20.552-15.617-28.627-25.232c-1.653-1.968-1.691-2.683-0.59-5.002 c1.875-3.95,4.678-7.533,7.54-10.808c2.394-2.739,6.526-7.275,10.573-7.007c4.006,0.266,1.415,5.028,0.273,6.707 c-1.893,2.782-4.446,5.105-7.08,7.165c-1.601,1.251-5.431,4.408-7.713,3.652c-4.494-1.488,8.091-14.682,9.066-15.6 c6.201-5.836,13.364-10.96,21.046-14.649c2.457-1.18,5.479-2.543,8.279-2.283c3.473,0.322,3.354,7.723,3.421,10.081 c0.136,4.741-0.038,11.176,6.342,11.228c5.988,0.049,14.158-2.99,15.776-9.416c1.652-6.559-8.227-5.968-11.692-5.05 c-9.031,2.396-16.428,9.746-22.527,16.423c-7.005,7.67-12.997,16.357-18.394,25.213c-5.937,9.74-11.241,20.119-21.679,25.821 c-4.497,2.456-11.026,1.459-8.754-4.891c2.053-5.741,8.266-8.889,13.2-11.658c6.301-3.537,22.151-15.056,26.131-3.686 c0.65,1.859,4.503,0.793,3.863-1.035c-2.967-8.479-10.927-7.575-18.01-4.862c-4.809,1.842-9.274,4.607-13.74,7.137 c-4.693,2.659-9.072,5.188-12.608,9.366c-4.255,5.028-4.872,13.78,3.657,14.086c9.844,0.354,18.354-9.278,23.621-16.45 c6.454-8.787,11.194-18.774,17.699-27.601c6.96-9.445,15.208-19.341,26.12-24.261c2.926-1.319,12.328-2.432,8.358,3.431 c-2.282,3.37-11.672,7.241-13.085,1.612c-1.35-5.376,1.469-14.792-4.661-17.984c-4.525-2.356-11.609,1.521-15.493,3.541 c-7.365,3.83-14.17,8.979-20.201,14.654c-4.125,3.882-9.28,8.932-10.184,14.816c-0.791,5.15,4.392,5.701,8.017,4.26 c4.945-1.965,25.75-18.206,13.379-22.479c-6.507-2.248-13.27,5.021-16.985,9.272c-2.497,2.857-9.854,10.876-8.238,15.29 c0.919,2.511,3.399,4.624,5.229,6.455c3.27,3.274,6.754,6.331,10.257,9.351c5.051,4.354,10.215,8.588,15.459,12.708 C51.466,73.46,54.781,71.425,52.978,70.008L52.978,70.008 M3.341,47.139c7.965,3.202,17.873,2.592,26.191,1.979c12.943-0.955,26.235-3.008,39.038,0.428 c0.848,0.228,4.206-1.151,3.194-1.423c-9.988-2.681-21.052-2.326-31.23-1.431c-10.609,0.933-23.211,3.322-33.541-0.83 C5.954,45.444,3.088,47.037,3.341,47.139L3.341,47.139 M76.537,37.493c-5.61,0.929-10.579,4.575-14.337,8.644c-4.248,4.6-7.084,10.614-10.592,15.779 c-1.923,2.832-7.377,11.855-10.071,12.244c-1.527,0.22-3.467,1.742-0.739,1.349c7.022-1.014,12.072-10.551,15.578-15.712 c4.752-6.997,9.846-19.369,19.422-20.954C77.311,38.591,79.26,37.042,76.537,37.493L76.537,37.493 M58.331,69.944c5.756-2.718,11.426-5.702,16.808-9.104c0.772-0.488,11.044-7.638,6.42-8.379 c-4.63-0.742-10.315,2.823-14.155,4.92c-4.93,2.692-11.155,6.259-13.764,11.481c-1.972,3.946,2.549,5.036,5.386,4.782 c5.367-0.479,10.722-3.314,15.479-5.621c15.569-7.552,30.286-17.204,44.42-27.14c2.422-1.703,24.559-16.157,20.249-20.54 c-2.885-2.933-10.702,2.831-12.791,4.325c-10.338,7.394-17.079,18.637-26.989,26.605c-5.967,4.797-13.617,8.339-18.739,14.09 c-3.004,3.373-0.189,6.988,3.797,6.843c5.748-0.208,11.309-4.657,15.8-7.786c3.576-2.491,7.066-5.104,10.651-7.583 c2.754-1.905,6.646-5.088,10.144-5.371c-0.245-0.393-0.49-0.786-0.735-1.178c-2.571,2.065-19.975,16.227-11.712,18.086 c5.567,1.253,12.664-2.847,17.392-5.183c6.942-3.43,13.446-8.051,20.636-10.943c0.566-0.228-0.435,1.157-1.072,2.012 c-1.088,1.46-2.613,2.599-3.915,3.859c-2.23,2.158-4.518,4.539-4.047,7.864c0.894,6.313,9.914,5.709,14.172,4.717 c6.99-1.629,13.558-4.963,19.304-9.226c3.421-2.538,9.788-7.89,7.362-12.827c-0.582-1.184-4.323,0.101-3.863,1.035 c2.336,4.755-4.119,9.573-7.328,11.954c-5.401,4.007-13.178,8.208-20.116,7.78c-2.99-0.184-5.914-2.646-5.75-5.82 c0.156-3.051,3.983-5.617,5.941-7.521c1.49-1.449,5.516-6.626,0.553-5.864c-4.175,0.641-8.135,3.34-11.749,5.348 c-6.359,3.534-12.68,7.282-19.509,9.851c-1.326,0.499-7.079,2.585-6.558-0.489c0.371-2.184,2.672-4.292,4.101-5.833 c2.809-3.032,5.979-5.791,9.201-8.379c0.846-0.679,0.116-1.247-0.735-1.178c-6.507,0.525-12.254,5.089-17.39,8.724 c-3.541,2.506-7.021,5.095-10.617,7.524c-2.126,1.436-7.666,5.944-10.307,4.006C78.979,65.88,94.85,57.285,96.988,55.774 c4.413-3.118,8.692-6.497,12.551-10.286c5.545-5.446,10.048-11.792,15.792-17.051c0.898-0.823,9.595-8.041,10.428-6.414 c1,1.954-3.573,5.76-4.824,6.894c-4.919,4.458-10.444,8.305-15.865,12.116c-14.403,10.124-29.532,20.003-45.565,27.366 c-2.245,1.031-10.379,5.676-12.2,2.199c-2.416-4.613,10.51-11.282,13.201-12.751c2.521-1.377,5.354-2.919,8.204-3.485 c0.697-0.138-0.378,1.176-0.638,1.493c-1.371,1.672-3.475,2.934-5.26,4.096c-5.323,3.467-11.067,6.394-16.808,9.104 C53.668,70.158,57.214,70.471,58.331,69.944L58.331,69.944 M125.019,72.022c5.821-2.92,11.51-6.137,17.021-9.606c3.398-2.139,6.729-4.442,9.733-7.112 c1.055-0.938,2.018-1.988,2.852-3.125c0.839-1.145,3.789-4.833,5.627-3.398c1.666,1.3-2.53,5.341-2.956,5.779 c-1.555,1.6,2.239,1.411,3.076,0.551c1.754-1.804,7.266-9.015,0.828-8.743c-5.745,0.243-8.182,4.065-11.87,7.79 c-7.2,7.272-17.604,12.269-26.681,16.822C120.33,72.142,123.815,72.625,125.019,72.022L125.019,72.022 M141.773,36.688c-0.448-0.058,0.418,0.075,0.711,0.132c0.895,0.173,1.776,0.412,2.644,0.691 c1.78,0.572,3.862,1.588,4.44,3.507c0.447,1.486,4.302,0.422,3.863-1.035c-1.188-3.945-6.618-5.206-10.205-5.67 C141.618,34.104,139.172,36.351,141.773,36.688L141.773,36.688 M86.569,55.351c1.701,6.324,3.361,12.66,5,19c0.265,1.027,4.133,0.006,3.863-1.035 c-1.639-6.341-3.298-12.676-5-19C90.155,53.284,86.292,54.32,86.569,55.351L86.569,55.351 M151.558,62.973c0-0.444,0-0.889,0-1.333c0-0.329-1.449-0.091-1.449,0.389c0,0.444,0,0.889,0,1.333 C150.109,63.69,151.558,63.453,151.558,62.973L151.558,62.973 M191.052,62.813c11.366-6.116,22.551-12.7,33.228-19.955c5.432-3.691,11.352-7.656,15.374-12.941 c2.573-3.381,1.563-6.594-2.857-6.612c-6.924-0.029-14.107,4.304-19.78,7.795c-9.519,5.858-17.764,13.695-24.338,22.705 c-1.758,2.41-9.595,13.097-2.097,13.808c7.614,0.723,16.313-4.777,22.743-8.079c3.163-1.625,6.284-3.332,9.395-5.054 c-0.928-0.341-1.855-0.681-2.783-1.022c-6.952,6.555-14.026,12.992-21.267,19.229c-4.448,3.833-9.214,7.154-13.792,10.8 c-3.132,2.494-6.333,6.742-6.646,10.901c-0.127,1.687,3.77,0.96,3.875-0.439c0.412-5.476,5.3-9.378,9.414-12.243 c4.234-2.949,8.143-6.408,12.036-9.782c6.636-5.752,13.122-11.688,19.512-17.712c1.723-1.625-1.938-1.49-2.783-1.022 c-7.799,4.316-15.855,9.007-24.445,11.577c-10.062,3.01,0.334-10.682,2.38-13.377c6.002-7.906,13.862-14.46,22.281-19.642 c2.551-1.57,13.239-8.487,16.485-5.762c4.257,3.573-21.828,19.994-24.124,21.435c-7.914,4.968-16.017,9.675-24.246,14.103 C186.32,62.757,189.711,63.534,191.052,62.813L191.052,62.813 M225.403,61.21c1.701-1.384,3.444-2.716,5.203-4.025c1.505-1.121,3.043-2.194,4.605-3.232 c1.118-0.743,4.172-2.195,4.024-2.601c0.889,2.44-6.021,8.068-7.508,9.51c-1.979,1.917-4.034,3.766-6.14,5.543 c1.053,0.286,2.105,0.572,3.158,0.858c5.098-5.089,10.411-9.99,15.95-14.594c1.655-1.376,7.556-7.207,9.983-6.674 c4.623,1.014,9.198,0.827,13.789-0.37c2.354-0.614,1.747-2.862-0.604-2.249c-2.835,0.739-5.748,0.984-8.668,0.78 c-2.085-0.146-3.135-0.83-5.166-0.395c-3.908,0.838-7.579,4.12-10.604,6.515c-6.276,4.966-12.177,10.477-17.839,16.128 c-1.728,1.725,2.142,1.717,3.158,0.858c1.736-1.466,18.189-16.069,13.636-17.939c-3.239-1.331-7.065,1.55-9.642,3.209 c-3.411,2.199-6.661,4.697-9.809,7.257C220.898,61.445,224.087,62.28,225.403,61.21L225.403,61.21 M273.223,42.62c-2.389,2.503-4.871,4.914-7.386,7.289c-4.153,3.923-9.061,6.983-13.133,10.947 c-4.068,3.959,3.787,5.449,6.479,4.738c6.118-1.615,11.857-5.969,17.021-9.446c2.794-1.881,5.54-3.833,8.291-5.776 c1.012-0.715,2.025-1.427,3.046-2.129c1.514-1.042,2.13-0.646,0.303-0.831c-0.427-0.407-0.853-0.813-1.279-1.22 c0.18-0.939,0.07-0.318-0.51,0.208c-0.86,0.78-1.741,1.537-2.615,2.3c-2.232,1.95-4.45,3.915-6.609,5.946 c-1.339,1.26-7.487,6.2-4.72,8.362c1.395,1.09,4.139,0.024,5.544-0.349c4.488-1.192,8.865-2.841,13.157-4.602 c9.332-3.831,18.655-8.937,25.631-16.342c1.586-1.683-1.767-2.313-2.884-1.401c-3.902,3.185-7.741,6.449-11.525,9.771 c-3.95,3.467-9.692,7.437-12.037,12.29c-2.498,5.17,10.621-0.61,11.131-0.84c7.508-3.396,14.775-7.433,21.887-11.592 c2.263-1.324,0.204-3.301-1.695-2.216c-5.333,3.047-12.229,6.435-15.739,11.637c-2.138,3.168,2.975,3.515,4.696,3.542 c4.244,0.066,9.153-0.565,12.83-2.883c2.216-1.396-0.996-2.686-2.547-1.708c-1.456,0.917-5.427,1.594-7.782,1.78 c-5.617,0.444-3.152-1.064-0.411-3.212c3.321-2.603,6.987-4.847,10.648-6.939c-0.565-0.739-1.13-1.477-1.695-2.216 c-4.63,2.709-9.342,5.283-14.099,7.762c-3.572,1.862-7.197,3.626-10.906,5.199c-0.764,0.319-1.534,0.621-2.312,0.903 c-2.564,0.933,0.168-0.228-0.32,1.194c0.267-0.777,0.996-1.456,1.521-2.057c6.088-6.978,13.746-12.864,20.903-18.706 c-0.961-0.467-1.923-0.934-2.884-1.401c-5.952,6.318-13.688,10.552-21.517,14.104c-3.798,1.723-7.714,3.178-11.683,4.45 c-1.318,0.423-2.652,0.793-3.99,1.148c-1.816,0.483-0.899,1.017-0.391,0.15c2.082-3.549,6.234-6.457,9.271-9.126 c1.416-1.245,5.171-3.427,5.562-5.467c0.141-0.735-0.682-1.16-1.278-1.221c-2.482-0.251-5.429,2.721-7.249,4.005 c-4.852,3.424-9.707,6.842-14.759,9.969c-2.298,1.422-4.671,2.725-7.145,3.813c-0.869,0.382-1.79,0.699-2.736,0.811 c-3.794,0.451,1.601-3.719,2.025-4.036c6.175-4.587,11.804-9.947,17.109-15.507C278.118,41.961,274.388,41.399,273.223,42.62 L273.223,42.62 M339.16,54.241c5.015-1.946,11.027-4.209,14.755-8.228c4.381-4.721-5.381-3.539-7.225-3.053 c-7.142,1.881-14.051,5.826-19.854,10.311c-1.364,1.055-9.832,8.827-5.067,10.426c3.748,1.258,8.972-1.425,12.289-2.866 c6.987-3.036,13.627-6.963,20.119-10.924c5.965-3.64,11.85-7.471,17.424-11.689c0.683-0.516,6.845-5.334,2.614-4.451 c-4.701,0.981-9.047,5.736-12.561,8.68c-5.805,4.863-11.86,9.914-16.683,15.788c-0.577,0.704-2.821,3.006-1.912,4.073 c1.268,1.487,6.075-0.546,7.207-0.879c5.898-1.735,11.608-4.24,17.099-6.988c1.664-0.833,7.567-3.001,7.749-5.301 c-0.037-0.044-0.073-0.088-0.109-0.132c-3.807-1.786-10.366,4.83-12.195,7.291c-4.513,6.072,8.692,3.639,10.663,3.154 c3.76-0.925,7.418-2.138,10.991-3.625c1.676-0.698,5.182-1.902,5.891-3.831c0.443-1.208-2.96-0.598-3.323-0.535 c-3.651,0.634-7.212,2.339-10.506,3.956c-9.363,4.596-16.336,11.814-23.826,18.862c-7.552,7.105-15.15,14.257-23.276,20.709 c-1.981,1.573-5.902,3.015-7.048,5.246c-0.878,1.71,6.497,1.706,7.129,1.674c3.655-0.184,7.14-1.599,10.36-3.244 c18.794-9.598,34.113-25.666,50.913-38.175c3.333-2.482,6.743-4.878,10.32-6.997c1.098-0.65,3.909-2.945,4.22-0.579 c0.522,3.978-4.054,8.751-6.266,11.58c-2.48,3.172-5.683,6.623-5.815,10.86c-0.018,0.542,3.829,0.058,3.863-1.035 c0.271-8.629,13.206-13.879,12.043-22.737c-0.433-3.292-7.357-0.067-8.672,0.583c-8.2,4.048-15.544,10.321-22.67,15.949 c-10.802,8.53-21.141,17.659-32.525,25.427c-3.852,2.627-8.704,6.37-13.536,6.837c-1.125,0.109-7.531-0.19-3.433-2.508 c0.929-0.525,1.811-1.102,2.67-1.735c3.601-2.656,6.975-5.61,10.332-8.563c8.041-7.074,15.838-14.435,23.549-21.866 c4.438-4.278,9.466-7.668,14.995-10.381c2.034-0.999,4.151-1.875,6.339-2.471c-0.057,0.015-2.943,2.083-3.938,2.522 c-4.261,1.878-9.272,3.55-13.963,3.64c-6.134,0.116,1.545-6.722,3.181-7.85c2.866-1.978-1.168-0.108-2.219,0.556 c-2.016,1.273-4.175,2.321-6.315,3.362c-2.723,1.324-5.516,2.502-8.337,3.598c-1.37,0.533-6.66,3.152-7.795,2.448 c-1.818-1.13,21.879-21.945,24.051-23.639c0.882-0.688,1.775-1.361,2.692-2.001c2.387-1.667-1.542-0.439-1.617-0.302 c-0.834,1.512-2.996,2.736-4.326,3.742c-6.021,4.557-12.478,8.588-18.946,12.472c-6.469,3.885-13.171,7.838-20.31,10.371 c-1.147,0.407-3.543,1.38-3.916-0.452c-0.669-3.286,3.765-6.641,5.893-8.368c3.267-2.651,7.031-4.754,10.811-6.57 c2.132-1.024,6.879-3.722,9.298-2.438c3.612,1.917-10.877,8.822-12.592,9.487C335.271,54.424,337.719,54.8,339.16,54.241 L339.16,54.241z"/>
</svg>