<?xml version="1.0" encoding="utf-8"?>
<!-- Generator: Adobe Illustrator 15.0.2, SVG Export Plug-In . SVG Version: 6.00 Build 0)  -->
<!DOCTYPE svg PUBLIC "-//W3C//DTD SVG 1.0//EN" "http://www.w3.org/TR/2001/REC-SVG-20010904/DTD/svg10.dtd">
<svg version="1.0" id="Ebene_2" xmlns="http://www.w3.org/2000/svg" xmlns:xlink="http://www.w3.org/1999/xlink" x="0px" y="0px"
	 width="298px" height="114px" viewBox="0 0 298 114" enable-background="new 0 0 298 114" xml:space="preserve">
<path fill-rule="evenodd" clip-rule="evenodd" d="M259.19,17.429c-2.077,3.994-6.886,9.807-12.521,12.311
	c-3.221,4.471-5.256,6.943-7.446,12.55c3.774-1.38,4.564-8.063,9.116-8.585c1.669,0.208,1.166,3.547,2.295,4.173
	c4.382-2.086,5.127,0.409,6.807-1.305c0.659-3.585,4.525-7.008,8.034-5.037c-0.286,1.337-0.819,2.406-1.573,3.227
	c1.221-0.132,1.842,0.281,2.32,0.822c0.205,1.798-0.713,2.357-1.115,3.486c2.887-0.87,4.32-3.343,8.18-3.141
	c0.785,0.037,0.576,0.977,1.119,1.234c5.266-3.124,7.824-9.237,14.455-10.857c3.716-0.532-0.666,5.31-2.431,6.254
	c-7.571,4.266-12.043,10.857-17.016,17.836c-3.559,4.997-14.398,20.45-19.614,27.335c-7.256,9.579-21.422,22.576-34.014,24.206
	c-5.689,0.735-9.481,1.912-13.98,0.417c-1.669-0.626-3.301-2.872-2.367-4.188c2.113,0.697,2.432,2.272,4.828,2.596
	c3.236,0.44,6.883-0.254,9.734-1.176c30.79-9.961,48.944-44.809,54.996-55.034c-0.978-0.652-0.923-1.02-1.252-2.295
	c-2.764,0.391-5.656,3.595-8.163,3.622c-4.55,0.05-1.077-6.02,1.051-7.029c-0.148-0.539-1.315-0.157-1.872-0.327
	c-1.467,2.198-7.004,7.258-8.109,1.727c-1.52-0.271-3.311-0.298-4.685-0.7c-2.657,2.675-5.585,8.877-10.148,4.794
	c-2.087-2.713,1.67-7.512,3.756-9.39c-1.35-0.738-7.49,2.991-8.973,5.217c-0.417,0.626-0.481,5.397-3.965,5.843
	c-2.866,0.367-4.289-1.705-4.59-4.173c-3.24,1.328-7.095,3.756-10.017,1.669c-1.257,0.433-3.314,2.278-4.382,2.921
	c-1.723-0.387-2.855-1.24-2.922-3.13c-3.779,0.131-10.016,4.382-10.86-0.162c-1.957,0.984-2.911,2.249-4.581,1.623
	c-1.242-0.523-1.959-1.327-2.712-2.295c-3.752,0.425-6.052,5.044-9.599,1.252c-0.826,0.725-4.627,2.616-6.119,1.836
	c-0.788-1.595-0.108-3.499,0.478-4.933c-1.355-0.168-2.657,1.865-3.906,2.641c-2.516-2.166,2.24-6.141,5.031-6.362
	c1.048-0.083,3.405,1.563,3.416,2.527c0.707-0.297,1.439-0.564,2.614-0.343c1.14,0.739,0.134,2.532,0.534,3.566
	c4.158-0.873,5.922-4.387,10.838-4.427c0.68,0.658,0.449,2.144,1.037,2.884c3.752-0.744,5.576-3.611,10.086-3.52
	c0.588,0.667,0.367,2.067,0.31,3.319c4.334-0.759,7.94-4.886,13.099-2.428c0.227,0.844,0.658,1.504,0.58,2.624
	c5.652-0.928,8.168-4.948,14.17-3.853c1.082-1.219,7.548-6.008,16.067-9.599c2.416-1.553,3.183-4.484,5.681-6.742
	C252.702,19.273,256.893,15.145,259.19,17.429z M199.904,30.692c2.95,0.597,5.241-0.743,8.371-2.621
	c2.266-1.36,6.096-6.478,5.873-8.719c-0.469-4.709-10.621-2.824-10.699,1.601c3.057,0.35,6.287-1.229,5.869,0.65
	c-1.348,4.557-3.021,6.477-8.138,6.051c3.964-6.051-2.842-5.586-4.249-3.715C196.761,27.629,197.518,30.208,199.904,30.692z
	 M167.585,38.296c8.973-4.382,11.302-9.45,12.376-9.995c1.326-0.674,6.362-0.587,6.613-2.525c0.353-2.703-9.391-2.295-11.857-1.271
	c-5.619,2.819-7.75,5.273-10.471,11.288c-1.498,1.078-5.425,1.878-6.377,4.348c0.51,0.664,3.992-1.029,4.291-0.175
	c-0.481,0.958-1.372,3.921-1.879,4.382c-1.984-2.779-5.16-0.961-4.382,3.339c1.24,0.375,1.751-0.377,2.296,0.626
	c0.926,1.702-6.873,12.841-7.923,14.721c-2.521,4.513-7.936,10.736-10.857,10.11c-2.594-2.277-0.442-7.724,1.077-9.954
	c0.85-0.55,0.819,1.253,2.32,0.821c0.111-0.29,0.327-0.466,0.729-0.437c0.45-2.06,0.453-4-0.195-5.673
	c-3.909-1.21-7.019,6.273-7.771,9.296c-1.241,4.993,0.935,9.256,4.743,9.201c8.431-0.123,16.336-21.199,21.423-26.626
	c1.2-1.281,1.574,0.058,1.925-1.97c0.144-1.031-0.358-2.025-0.464-2.829C164.904,42.683,166.259,38.944,167.585,38.296z
	 M175.097,28.488c0.284,0.117-3.547,5.008-5.818,5.899C168.837,31.618,173.868,29.451,175.097,28.488z M48.227,22.854
	c0.561,0.723,4.173,0.834,0.625,3.05c-1.347-2.232-5.844-3.21-7.971-1.099c-1.225,3.17,0.604,5.568,1.492,8.098
	C39.36,36.23,33.58,38.812,28.786,40.5c-3.791,1.334-8.011,1.527-6.456,6.529c1.769,5.688,13.93-0.37,16.089-1.848
	c3.965-2.712,5.343-5.833,7.179-5.748c1.393,0.065,2.111,1.829,2.908,3.21c-3.069,0.936-4.685,6.282-0.569,6.817
	c3.225,0.417,5.616-2.872,5.267-6.351c1.451-1.047,2.637-2.387,5.519-1.855c1.477-1.194,1.069-3.733-0.241-4.732
	c-3.153,0.244-4.437,2.551-7.013,3.434c-1.561-1.059-2.53-2.655-3.324-4.411c1.919-1.187,2.377-4.554,1.751-6.849
	c2.712-2.921,5.915-3.993,3.459-8.001C50.736,19.172,48.63,20.336,48.227,22.854z M43.427,26.611
	c4.59,0.208,2.206,3.452,1.669,3.964C44.599,30.352,43.01,28.28,43.427,26.611z M41.967,37.461c0.111,1.216-2.648,3.034-3.29,3.521
	c-3.785,2.872-8.396,5.452-11.108,4.409c-0.834-1.461,2.936-3.113,5.882-4.122C35.861,40.443,39.912,37.68,41.967,37.461z
	 M105.402,26.819c-2.295,0.835-4.265,2.841-4.173,6.26c0.045,1.657,2.907,1.969,3.965,2.086c1.878,0.209,4.799,0,6.469-0.626
	c0.835,2.086,3.533,4.562,6.469,3.756c-1.119,1.082-3.916,3.277-5.408,3.947c-1.602-2.496-5.06-0.285-7.323,0.114
	c-0.736-0.758-0.914-2.021-1.756-2.682c-2.924-0.08-3.459,3.211-5.963,3.211s-1.757-3.476-3.338-2.921
	c-2.064,0.724-5.144,3.941-6.751,4.59c0.491-3.755-3.469-5.399-6.395-7.094c0.708-0.843,3.965-3.338,3.965-3.338
	s2.82,2.202,4.493,2.037c4.452-0.44,8.027-3.289,10.188-5.639c0.292-1.766-0.125-2.888-0.758-3.812
	c-5.462-1.591-8.857,1.114-12.169,2.708c-0.771-0.125-0.414-1.274-1.355-1.246c-1.752,0.311-2.249,2.44-2.314,3.898
	c-2.563,1.875-5.584,4.058-8.069,5.743c-1.002,0.679-3.777,2.051-3.928,3.112c-0.611,4.274,6.125-0.294,7.653-0.124
	c2.783,0.31,3.56,4.779,5.772,5.5c1.088,0.354,4.452,0.133,7.374-1.745c3.106-1.997,3.59,2.389,6.26,0.626
	c2.921-2.504,1.99,1.644,3.303,1.447c2.189-0.328,4.792-1.997,6.922-2.282c0.728,2.226,0.926,5.034,2.504,4.173
	c2.317-1.264,6.265-6.229,8.347-6.051c1.685,0.142,1.445,3.348,3.339,3.547c0.588,0.062,3.162-1.488,5.008-1.669
	c2.029,1.16-0.889,5.721,2.306,5.823c1.622-1.52,2.676-5.24,4.58-6.449c1.827,3.262,5.608,1.259,5.925-0.826
	c0.539-3.551-2.865-3.581-6.254-2.43c0.219-1.474-0.301-2.277-1.039-2.883c-4.159,0.459-6.051,3.417-9.884,4.236
	c-0.632-0.927-1.284-1.836-2.733-2.021c1.917-2.424,3.132-6.245,1.144-8.912c-1.817-2.438-5.223-1.82-8.194-1.345
	C113.903,24.574,107.532,25.884,105.402,26.819z M95.803,29.114c1.252,2.713-6.886,4.591-7.929,3.339
	C88.565,31.479,92.673,28.906,95.803,29.114z M118.942,35.703c-1.646,0.715-3.107-0.537-3.315-1.998
	C116.253,31.41,120.426,33.288,118.942,35.703z M141.763,51.688c1.875,1.138,3.563-1.224,3.48-3.607
	C142.759,42.984,138.729,49.844,141.763,51.688z M68.784,47.883c0.026-0.549,0.054-1.099,0.08-1.647
	C64.273,43.666,64.763,50.84,68.784,47.883z M107.69,32.157c1.374,0,3.091-1.202,1.889-2.404c-1.202-1.202-4.98,1.03-4.121,1.717
	C105.458,31.47,106.317,32.157,107.69,32.157z"/>
</svg>
