<?xml version="1.0" encoding="UTF-8" standalone="no"?>
<!-- Created with Inkscape (http://www.inkscape.org/) -->

<svg
   xmlns:dc="http://purl.org/dc/elements/1.1/"
   xmlns:cc="http://creativecommons.org/ns#"
   xmlns:rdf="http://www.w3.org/1999/02/22-rdf-syntax-ns#"
   xmlns:svg="http://www.w3.org/2000/svg"
   xmlns="http://www.w3.org/2000/svg"
   xmlns:sodipodi="http://sodipodi.sourceforge.net/DTD/sodipodi-0.dtd"
   xmlns:inkscape="http://www.inkscape.org/namespaces/inkscape"
   id="svg2816"
   version="1.1"
   inkscape:version="0.47 r22583"
   width="326"
   height="111"
   sodipodi:docname="Firmamujica.JPG">
  <metadata
     id="metadata2822">
    <rdf:RDF>
      <cc:Work
         rdf:about="">
        <dc:format>image/svg+xml</dc:format>
        <dc:type
           rdf:resource="http://purl.org/dc/dcmitype/StillImage" />
        <dc:title></dc:title>
      </cc:Work>
    </rdf:RDF>
  </metadata>
  <defs
     id="defs2820">
    <inkscape:perspective
       sodipodi:type="inkscape:persp3d"
       inkscape:vp_x="0 : 0.5 : 1"
       inkscape:vp_y="0 : 1000 : 0"
       inkscape:vp_z="1 : 0.5 : 1"
       inkscape:persp3d-origin="0.5 : 0.33333333 : 1"
       id="perspective2824" />
  </defs>
  <sodipodi:namedview
     pagecolor="#ffffff"
     bordercolor="#666666"
     borderopacity="1"
     objecttolerance="10"
     gridtolerance="10"
     guidetolerance="10"
     inkscape:pageopacity="0"
     inkscape:pageshadow="2"
     inkscape:window-width="640"
     inkscape:window-height="483"
     id="namedview2818"
     showgrid="false"
     inkscape:zoom="1.6564417"
     inkscape:cx="163"
     inkscape:cy="55.5"
     inkscape:window-x="2"
     inkscape:window-y="14"
     inkscape:window-maximized="0"
     inkscape:current-layer="svg2816" />
  <path
     style="fill:#000000"
     d="M 3.4846635,104.95168 C 2.7474437,102.62891 6.3514661,89.806625 8.3024098,87.811249 11.349077,84.695195 12.267044,79.992739 11.784571,69.973232 11.520436,64.487955 11.601,60 11.963602,60 c 0.362601,0 1.559976,0.839131 2.660833,1.864735 C 16.869077,63.955937 20.402983,66 21.773744,66 c 0.497874,0 1.436849,-1.0125 2.086612,-2.25 0.649762,-1.2375 2.476654,-4.5 4.059761,-7.25 1.583107,-2.75 3.616091,-6.391067 4.517744,-8.09126 C 34.338274,44.825242 41,38.070545 41,39.727108 41,40.342801 39.7625,42.297032 38.25,44.069845 33.221041,49.964324 24.664453,65.648057 25.627459,67.206234 26.81118,69.121534 41,65.727859 41,63.529437 c 0,-0.723503 0.732866,-1.596687 1.628592,-1.940409 1.336346,-0.512804 1.527562,-0.119796 1.065581,2.190107 -0.923404,4.617021 0.202664,5.378306 6.257051,4.230115 C 52.878189,67.454163 55.463117,67 55.695507,67 c 0.23239,0 0.150159,-0.4407 -0.182734,-0.979333 -0.332894,-0.538634 -0.103069,-1.917689 0.510722,-3.064567 0.892997,-1.668582 1.401764,-1.848056 2.546244,-0.898222 C 59.356382,62.710734 60,64.061498 60,65.059574 c 0,1.534678 0.578626,1.724093 3.75,1.22757 C 69.850776,65.331983 76.61807,61.780755 76.207317,59.75 75.758601,57.531554 79.795607,57.303786 80.638374,59.5 81.617253,62.050919 91,61.039778 91,58.383369 91,57.512959 92.112413,57 94,57 c 3.049709,0 4.267168,2.32202 1.75,3.337719 -0.6875,0.277413 0.367756,0.539913 2.345012,0.583334 2.423668,0.05322 4.197728,-0.587044 5.444828,-1.965073 2.0863,-2.305339 5.78814,-2.252444 6.2338,0.08907 0.17196,0.903477 -0.86191,2.037819 -2.48979,2.731742 -2.7007,1.151245 -2.66808,1.173567 1.0923,0.747346 2.40672,-0.272789 4.41847,-1.21361 5.30671,-2.481741 1.68126,-2.40034 4.13931,-2.669382 4.95551,-0.542399 0.35121,0.915236 1.86583,1.5 3.88521,1.5 2.45765,0 3.82494,-0.707436 5.31151,-2.74817 1.10105,-1.511494 2.30004,-2.450035 2.66443,-2.085647 1.22864,1.228643 -1.63333,4.986553 -4.82826,6.339749 -2.86773,1.21461 -1.82349,1.350614 10.90997,1.420947 12.88952,0.07119 28.42915,1.567539 40.77122,3.925949 3.12422,0.596999 7.25862,0.5548 11.6084,-0.118482 l 6.75595,-1.045724 -1.48275,-3.774707 c -0.95557,-2.432644 -1.24115,-5.062533 -0.80323,-7.396867 0.75841,-4.042653 3.30291,-5.744228 4.74266,-3.17154 1.2897,2.304566 7.39153,2.23418 8.27974,-0.09551 0.59091,-1.549939 8.406,-15.769741 11.04968,-20.105279 0.5516,-0.904597 3.40569,-5.964492 6.34243,-11.244213 5.86058,-10.536264 10.74724,-17.1962695 9.62765,-13.1214789 -0.3444,1.253466 -2.16671,4.6182039 -4.04958,7.4771959 -1.88287,2.858992 -3.4234,5.497884 -3.4234,5.864203 0,0.768973 -13.71873,24.771837 -15.20079,26.59595 -1.89834,2.336462 -0.34082,3.213269 2.90522,1.635498 2.728,-1.325969 3.12315,-1.963958 2.65774,-4.29102 C 215.77854,42.142715 217.96115,39 220.57143,39 c 1.8922,0 1.86024,4.425478 -0.0457,6.331444 -1.19536,1.195355 -1.22246,1.570942 -0.14327,1.985068 1.93856,0.743894 5.90427,-1.507152 7.18664,-4.079334 2.42431,-4.862685 9.27131,-10.071898 11.4603,-8.719028 1.69484,1.047468 1.05287,2.244393 -1.55481,2.898878 C 233.95449,38.300511 231,41.532629 231,44.5 c 0,2.168264 0.43126,2.490674 3.25,2.429715 4.29223,-0.09283 7.21622,-1.29892 7.34283,-3.028794 0.0564,-0.770506 0.17416,-2.300921 0.26169,-3.400921 0.15719,-1.975367 5.67841,-6.5 7.93168,-6.5 0.63934,0 1.83714,1.304735 2.66178,2.899412 1.32013,2.552844 1.3232,3.045602 0.0257,4.122445 -2.71443,2.252783 -1.51189,2.902914 2.65207,1.433784 C 260.26389,40.642792 260,40.61332 260,43 c 0,1.259259 -0.66667,2 -1.8,2 -0.99,0 -2.2275,0.411945 -2.75,0.915433 -4.13348,3.983081 -29.22966,14.599938 -45.2,19.121712 -4.5375,1.284729 -8.25,2.669799 -8.25,3.077934 0,0.408135 -0.68666,1.428723 -1.52591,2.267972 -1.36788,1.367878 -1.08307,1.639459 2.75,2.622329 2.35175,0.603032 5.85091,1.699738 7.77591,2.437125 13.64126,5.225394 36.70104,7.276143 56.2052,4.998432 11.17747,-1.305314 40.75858,-8.278949 49.17481,-11.592777 2.68401,-1.056807 5.11092,-1.690566 5.39313,-1.408353 0.28221,0.282214 -0.33879,0.819133 -1.38001,1.193155 -1.04122,0.374021 -5.04313,1.908783 -8.89313,3.41058 -9.12098,3.557888 -12.50686,4.485471 -27.5,7.533793 -25.21818,5.127222 -46.04059,5.213125 -64.80275,0.267347 C 214.96376,78.728718 210.375,77.665153 209,77.481203 207.625,77.297253 201.58446,75.76373 195.57657,74.073374 183.73969,70.742995 178.81314,70.423903 163.28584,71.98191 157.90363,72.521961 143.15,73.648015 130.5,74.484253 61.016635,79.077506 40.08527,79.124962 34.25,74.702472 32.198433,73.147612 32.787087,72.380366 37,71.118146 c 2.454824,-0.735483 4,-1.803693 4,-2.765276 0,-1.104824 -0.516031,-1.350692 -1.75,-0.833804 -0.9625,0.403173 -5.225302,0.958431 -9.472894,1.233905 -6.411967,0.415843 -7.823807,0.818809 -8.317388,2.373945 C 21.132747,72.157112 20.445549,73 19.932612,73 19.419676,73 19,73.481421 19,74.069825 c 0,0.588403 -1.282727,2.950903 -2.850504,5.25 -1.925821,2.824156 -3.063493,6.040861 -3.507079,9.916078 C 11.951694,95.27013 9.4826027,103.63645 7.768732,105.75 6.242657,107.63196 4.2154542,107.2542 3.4846635,104.95168 z M 8.9161169,99.736072 C 10.250405,95.670403 11.884095,87 11.315866,87 10.282949,87 6,98.350207 6,101.08753 c 0,3.70837 1.4807825,3.02211 2.9161169,-1.351458 z M 17.265665,73.868516 C 21.018086,68.736617 20.969559,68.048787 16.75,66.559359 L 13,65.235676 l 0,7.082162 c 0,3.895189 0.362327,6.654662 0.80517,6.132162 0.442844,-0.5225 2.000067,-2.584168 3.460495,-4.581484 z M 92.99438,74.521718 C 93.627036,74.153544 109.05261,73.282433 137.5,72.008404 149.6,71.4665 162.63233,70.725432 166.46073,70.361587 186.89916,68.41915 144.7888,65.849181 104.5,66.580162 76.468534,67.088751 58.692255,68.416576 52,70.501725 c -2.475,0.771152 -6.2325,1.378735 -8.35,1.350185 -5.826818,-0.07856 -6.762269,1.777505 -1.517846,3.011623 3.77421,0.888147 49.274145,0.582369 50.862226,-0.341815 z M 197.98469,71.25 c -0.0534,-2.617555 -1.91517,-3.435796 -6.11095,-2.685801 l -4.37374,0.781806 4,1.250146 c 4.77061,1.490991 6.50535,1.665904 6.48469,0.653849 z M 100,63.976039 103.5,63.143447 99,63.068815 C 96.525,63.027767 93.375,62.949339 92,62.894531 88.511327,62.755471 77.75393,64.132505 76.277727,64.90711 74.547168,65.815183 95.770371,64.982197 100,63.976039 z M 202.00873,61.75 l 1.91095,-4.25 -2.70984,-0.631685 c -6.06342,-1.413433 -6.49385,-1.197029 -5.73164,2.881685 1.37026,7.332583 3.79845,8.076224 6.53053,2 z M 218,60.884722 c 4.39859,-0.843739 32,-13.124761 32,-14.238138 0,-0.158414 -2.3625,0.08687 -5.25,0.545066 -12.83519,2.036739 -14.28277,2.076258 -15.65129,0.427288 -1.20137,-1.447559 -1.59725,-1.400134 -4.28434,0.513241 -2.28472,1.626864 -3.45622,1.887049 -5.13125,1.139628 -1.79478,-0.800855 -3.0922,-0.272734 -7.4935,3.050279 C 207.8686,55.584489 203,61.989822 203,64.412331 c 0,0.270604 2.1375,-0.175029 4.75,-0.990295 2.6125,-0.815266 7.225,-1.957057 10.25,-2.537314 z M 220.96937,41.5 c 0,-0.55 -0.43621,-0.325 -0.96937,0.5 -0.53316,0.825 -0.96937,1.95 -0.96937,2.5 0,0.55 0.43621,0.325 0.96937,-0.5 0.53316,-0.825 0.96937,-1.95 0.96937,-2.5 z M 251,39.440983 C 251,39.198442 250.55,39 250,39 c -0.55,0 -1,0.476558 -1,1.059017 0,0.582459 0.45,0.780902 1,0.440983 0.55,-0.339919 1,-0.816476 1,-1.059017 z M 145.41169,58.558867 c -1.46079,-1.068318 -1.87031,-2.489338 -1.73626,-6.024711 0.3774,-9.953556 14.22871,-24.703599 20.82233,-22.173388 1.93336,0.741898 2.0026,7.537363 0.12148,11.921351 C 163.11782,45.781199 156,53.142476 156,51.196167 156,50.538275 156.4133,50 156.91844,50 c 1.91815,0 7.98484,-12.221559 8.06638,-16.25 0.0318,-1.572284 -4.83223,-0.654068 -8.08694,1.526617 -3.70864,2.484829 -9.55717,10.517721 -10.55645,14.499166 -0.34581,1.377795 -0.20505,3.679387 0.31278,5.114649 1.14495,3.173375 3.09643,3.020882 9.21167,-0.719818 2.40123,-1.468838 5.25042,-3.180404 6.33154,-3.803481 3.77223,-2.174038 8.80266,-7.775185 8.8134,-9.8133 0.014,-2.649501 2.43727,-10.629804 4.15474,-13.682193 3.91961,-6.966156 11.19112,-12.716219 14.48328,-11.452898 0.98988,0.379851 0.9127,1.521343 -0.3572,5.282904 -2.09184,6.196257 -4.893,10.517837 -11.1655,17.225899 -4.00594,4.284119 -4.95182,5.918809 -4.48985,7.759448 0.3219,1.282547 0.97612,2.573462 1.45382,2.8687 1.11016,0.686116 4.58165,-1.170394 7.84263,-4.194145 C 184.33349,43.062697 185.78211,42 186.15188,42 c 0.36978,0 0.96209,-1.715084 1.31624,-3.811299 C 188.02775,34.8763 191.73132,29 193.25936,29 c 1.70831,0 1.32269,3.527837 -0.78942,7.222058 C 189.51439,41.391495 189.38346,43 191.91821,43 c 3.34092,0 5.08131,-1.146231 5.0971,-3.356989 0.0254,-3.558895 1.49002,-4.983982 4.37736,-4.259306 2.79067,0.700415 3.35435,2.469274 1.40733,4.416295 -1.59274,1.592739 -0.79446,1.513458 3.70947,-0.368404 2.7988,-1.169411 4.03824,-1.279482 4.87213,-0.43268 1.67244,1.698348 -1.74974,3.809047 -7.26663,4.48183 -2.53823,0.309538 -6.6299,0.96401 -9.0926,1.454383 -2.83639,0.564783 -5.16347,0.524539 -6.34873,-0.109793 -1.48215,-0.793221 -2.65718,-0.369672 -5.65263,2.037535 -2.07984,1.671405 -4.94041,3.329779 -6.35682,3.685276 -2.13637,0.536194 -2.89019,0.128569 -4.42279,-2.391601 l -1.8475,-3.03796 -5.44695,4.943904 c -2.99582,2.719146 -6.34695,5.220691 -7.44695,5.558987 -1.1,0.338296 -2.675,1.176419 -3.5,1.862495 -2.50638,2.08432 -6.521,2.586782 -8.58831,1.074895 z M 177.09051,37.25 C 182.43817,31.283294 186.15103,25.823392 187.5422,21.880405 189.26393,17.000479 189.26399,17 188.07141,17 186.18206,17 178.15597,25.686482 176.49539,29.528521 174.33679,34.522804 172.98878,40 173.91822,40 c 0.38918,0 1.81671,-1.2375 3.17229,-2.75 z M 202,38 c 0,-0.55 -0.45,-1 -1,-1 -0.55,0 -1,0.45 -1,1 0,0.55 0.45,1 1,1 0.55,0 1,-0.45 1,-1 z m -71.41389,2.709408 c -0.5052,-1.712374 -0.35278,-4.471141 0.39449,-7.140107 1.40164,-5.006165 9.01805,-14.306201 10.80954,-13.199003 C 143.2425,21.267909 141.20247,25 139.25945,25 138.56675,25 138,25.365147 138,25.811439 c 0,0.446291 -0.80417,1.683791 -1.78704,2.75 -2.28861,2.48265 -4.05148,6.991421 -4.47234,11.438561 l -0.33122,3.5 -0.82329,-2.790592 z m 96.79294,-14.164001 c -0.94163,-2.453861 1.13441,-4.194087 3.07857,-2.580581 0.84831,0.704035 1.54238,1.749963 1.54238,2.324285 0,0.574322 -0.2961,0.748127 -0.65799,0.386232 -0.3619,-0.361895 -1.25657,-0.161214 -1.98817,0.445957 -1.0058,0.834746 -1.48737,0.694312 -1.97479,-0.575893 z M 235.48429,3.928494 C 234.75406,0.60375098 235.24931,-0.58198467 236.93347,0.45888148 238.23664,1.2642852 238.36465,7 237.07946,7 c -0.5063,0 -1.22413,-1.3821777 -1.59517,-3.071506 z"
     id="path2828" />
</svg>
