<?xml version="1.0" encoding="UTF-8" standalone="no"?>
<svg
   xmlns:dc="http://purl.org/dc/elements/1.1/"
   xmlns:cc="http://creativecommons.org/ns#"
   xmlns:rdf="http://www.w3.org/1999/02/22-rdf-syntax-ns#"
   xmlns:svg="http://www.w3.org/2000/svg"
   xmlns="http://www.w3.org/2000/svg"
   xmlns:sodipodi="http://sodipodi.sourceforge.net/DTD/sodipodi-0.dtd"
   xmlns:inkscape="http://www.inkscape.org/namespaces/inkscape"
   width="893pt"
   height="212pt"
   viewBox="0 0 893 212"
   version="1.1"
   id="svg2"
   sodipodi:version="0.32"
   inkscape:version="0.46"
   sodipodi:docname="Firma_Blanco_Encalada.svg"
   inkscape:output_extension="org.inkscape.output.svg.inkscape">
  <metadata
     id="metadata49">
    <rdf:RDF>
      <cc:Work
         rdf:about="">
        <dc:format>image/svg+xml</dc:format>
        <dc:type
           rdf:resource="http://purl.org/dc/dcmitype/StillImage" />
        <cc:license
           rdf:resource="http://creativecommons.org/licenses/publicdomain/" />
      </cc:Work>
      <cc:License
         rdf:about="http://creativecommons.org/licenses/publicdomain/">
        <cc:permits
           rdf:resource="http://creativecommons.org/ns#Reproduction" />
        <cc:permits
           rdf:resource="http://creativecommons.org/ns#Distribution" />
        <cc:permits
           rdf:resource="http://creativecommons.org/ns#DerivativeWorks" />
      </cc:License>
    </rdf:RDF>
  </metadata>
  <defs
     id="defs47">
    <inkscape:perspective
       sodipodi:type="inkscape:persp3d"
       inkscape:vp_x="0 : 132.5 : 1"
       inkscape:vp_y="0 : 1000 : 0"
       inkscape:vp_z="1116.25 : 132.5 : 1"
       inkscape:persp3d-origin="558.125 : 88.333333 : 1"
       id="perspective51" />
  </defs>
  <sodipodi:namedview
     inkscape:window-height="675"
     inkscape:window-width="655"
     inkscape:pageshadow="2"
     inkscape:pageopacity="0.0"
     guidetolerance="10.0"
     gridtolerance="10.0"
     objecttolerance="10.0"
     borderopacity="1.0"
     bordercolor="#666666"
     pagecolor="#ffffff"
     id="base"
     showgrid="false"
     inkscape:zoom="0.48734602"
     inkscape:cx="558.125"
     inkscape:cy="214.57721"
     inkscape:window-x="132"
     inkscape:window-y="98"
     inkscape:current-layer="svg2" />
  <g
     id="#ffffffff" />
  <g
     id="#140906ff">
    <path
       fill="#140906"
       opacity="1.00"
       d=" M 330.46 31.70 C 335.99 28.13 342.20 23.16 349.18 25.42 C 346.27 25.87 343.24 26.04 340.60 27.46 C 336.10 29.31 332.75 33.01 328.53 35.34 C 322.54 38.83 317.67 43.85 313.07 48.96 C 309.52 51.90 309.82 57.03 307.26 60.68 C 309.26 60.32 310.68 58.71 312.44 57.82 C 312.41 55.86 312.41 53.91 312.49 51.95 C 312.66 53.72 312.73 55.51 312.81 57.29 C 316.78 54.89 320.04 51.22 324.76 50.28 C 324.68 49.72 324.54 48.59 324.46 48.02 C 324.84 48.75 325.22 49.48 325.62 50.21 C 321.85 51.24 320.12 54.99 316.87 56.83 C 313.83 58.54 311.17 60.85 308.15 62.58 C 308.33 64.01 308.50 65.44 308.64 66.88 C 306.99 66.64 305.47 65.95 303.93 65.37 C 300.76 64.90 297.94 66.56 295.57 68.45 C 291.97 69.33 288.68 71.10 284.93 71.33 C 284.16 71.14 282.63 70.74 281.86 70.54 C 287.40 70.28 292.24 67.16 297.59 66.15 C 297.08 65.57 296.57 64.98 296.07 64.40 C 296.46 64.10 297.22 63.49 297.60 63.18 C 297.62 63.87 297.65 65.23 297.67 65.91 C 299.79 65.27 301.76 64.24 303.68 63.17 C 303.10 58.34 305.46 53.20 309.44 50.42 C 311.41 45.36 316.13 42.42 320.01 38.96 C 320.92 38.55 321.85 38.14 322.77 37.73 C 324.52 34.84 327.91 33.73 330.46 31.70 Z"
       id="path6" />
    <path
       fill="#140906"
       opacity="1.00"
       d=" M 128.88 31.81 C 132.18 29.78 136.12 29.40 139.78 28.32 C 139.79 33.05 135.10 38.26 139.46 42.34 C 141.01 42.70 142.96 42.88 143.24 44.82 C 141.57 44.96 139.90 45.06 138.23 45.15 C 137.12 44.12 135.68 43.66 134.28 43.21 C 132.64 41.65 132.21 39.36 131.68 37.27 C 132.54 37.51 134.25 37.98 135.10 38.22 C 134.14 37.49 132.89 36.92 132.57 35.64 C 132.93 34.41 133.32 33.19 133.73 31.98 C 130.93 31.61 129.09 33.83 126.85 35.05 C 123.94 36.82 120.56 37.57 117.74 39.49 C 120.32 35.51 125.04 34.18 128.88 31.81 Z"
       id="path8" />
    <path
       fill="#140906"
       opacity="1.00"
       d=" M 154.56 46.49 C 156.49 43.11 159.74 40.72 163.08 38.84 C 162.52 41.96 159.28 43.25 157.35 45.39 C 155.72 47.98 154.26 50.85 151.41 52.32 C 151.39 52.81 151.34 53.80 151.32 54.30 C 150.29 54.42 149.27 54.54 148.24 54.66 C 146.83 57.00 144.79 58.80 142.45 60.18 C 142.38 60.68 142.25 61.68 142.19 62.18 C 141.74 62.28 140.83 62.47 140.38 62.57 C 137.61 66.01 133.24 67.76 130.62 71.46 C 127.83 76.36 122.45 78.84 118.43 82.58 C 116.30 86.97 112.45 90.03 108.52 92.74 C 108.16 93.61 107.79 94.49 107.41 95.37 C 106.31 95.72 105.25 96.18 104.21 96.69 C 103.60 98.17 102.98 99.66 102.34 101.13 C 101.09 102.06 99.99 103.15 99.07 104.41 C 103.52 105.50 106.85 102.05 110.55 100.31 C 115.34 97.96 119.09 93.91 124.07 91.94 C 129.78 90.32 134.00 85.85 139.27 83.33 C 141.45 82.41 142.76 80.28 144.93 79.35 C 144.92 78.88 144.91 77.94 144.91 77.47 C 144.41 77.17 143.42 76.57 142.92 76.27 C 144.71 76.44 146.02 77.63 147.34 78.71 C 149.68 77.22 152.28 76.22 154.66 74.81 C 157.69 71.65 161.92 70.04 165.51 67.60 C 169.78 64.35 175.35 63.07 179.13 59.14 C 179.50 59.68 180.24 60.75 180.61 61.29 C 180.55 60.69 180.44 59.50 180.39 58.91 C 184.74 55.43 189.48 52.43 194.62 50.26 C 195.36 53.17 191.76 53.72 190.05 55.06 C 185.45 57.23 182.56 61.51 179.40 65.28 C 174.68 65.78 171.95 69.95 168.62 72.77 C 165.82 74.88 163.61 77.88 160.22 79.10 C 157.38 80.15 155.72 82.83 154.18 85.27 C 149.64 88.99 143.91 91.47 140.67 96.54 C 137.74 99.38 135.92 103.22 132.59 105.67 C 135.68 106.14 138.86 106.71 141.97 106.07 C 147.24 104.97 152.63 104.67 157.99 104.15 C 160.32 103.36 162.79 103.09 165.24 103.37 C 170.75 99.71 176.36 96.24 182.00 92.78 C 184.75 92.51 186.56 95.35 185.97 97.79 C 183.72 100.51 179.87 100.46 176.83 101.70 C 176.39 101.05 175.95 100.41 175.51 99.77 C 178.47 99.80 181.20 98.63 183.79 97.33 C 183.93 96.11 181.89 95.04 181.08 96.17 C 179.81 97.00 178.70 98.03 177.54 99.00 C 176.93 98.99 175.73 98.97 175.12 98.96 C 175.23 100.07 175.28 101.20 175.28 102.32 C 172.50 101.68 170.05 103.45 167.73 104.68 C 167.09 106.17 163.62 107.07 164.95 108.83 C 170.59 108.58 175.66 105.58 181.25 105.08 C 180.97 104.36 180.71 103.64 180.45 102.91 C 181.20 102.63 181.95 102.35 182.71 102.07 L 180.97 103.13 C 181.77 103.55 182.58 103.97 183.39 104.38 C 186.75 103.09 190.20 102.03 193.44 100.45 C 195.47 99.50 197.64 98.92 199.72 98.12 C 201.26 101.74 196.43 103.49 196.35 106.84 C 197.92 106.64 199.49 106.44 201.06 106.22 C 203.24 104.33 206.25 104.95 208.87 104.38 C 212.88 103.48 216.95 102.64 221.09 102.76 C 222.81 102.95 222.91 104.88 223.57 106.09 C 222.67 107.18 221.05 107.88 220.90 109.43 C 223.15 110.59 224.01 107.40 226.34 108.22 C 231.36 105.92 237.02 104.70 242.58 104.83 C 239.91 107.38 239.09 111.19 238.89 114.71 C 242.64 116.10 245.37 111.94 249.04 112.68 C 246.60 115.19 243.37 116.44 240.03 117.22 C 238.53 116.85 237.03 116.48 235.51 116.19 C 235.73 114.16 236.00 112.14 236.21 110.11 C 236.83 109.13 237.45 108.16 238.06 107.18 C 232.54 106.66 227.72 110.18 222.29 110.27 C 220.35 111.44 218.49 112.89 216.10 112.90 C 215.97 110.87 217.95 110.16 219.06 108.91 C 219.63 107.47 219.67 105.90 219.88 104.38 C 215.81 104.68 211.71 104.75 207.68 105.37 C 205.88 107.18 203.22 107.49 200.79 107.41 C 199.46 108.84 197.58 108.76 195.78 108.69 C 193.73 110.41 191.36 111.72 188.75 112.37 C 186.88 110.43 189.65 109.03 190.98 107.95 C 193.09 106.51 194.49 104.27 195.20 101.84 C 190.47 105.09 183.97 103.62 179.59 107.40 C 176.00 107.37 173.08 109.93 169.56 110.35 C 166.32 110.83 162.37 111.51 159.77 108.98 C 159.41 109.47 158.69 110.47 158.33 110.97 C 158.40 110.38 158.54 109.22 158.61 108.63 C 159.20 108.61 160.39 108.56 160.98 108.53 C 162.07 107.09 163.26 105.73 164.40 104.34 C 159.99 105.36 155.11 105.10 151.08 107.37 C 149.21 105.86 147.56 107.53 145.96 108.50 C 145.47 108.22 144.50 107.67 144.01 107.40 C 143.60 107.66 142.76 108.17 142.35 108.43 C 138.14 108.54 133.92 108.54 129.72 108.26 C 129.80 107.50 129.95 105.97 130.02 105.21 C 133.44 100.87 137.14 96.74 141.10 92.88 C 146.29 88.54 151.82 84.53 156.42 79.52 C 160.81 76.67 164.96 73.43 168.68 69.74 C 170.36 68.06 172.26 66.51 174.57 65.78 C 173.97 65.45 173.38 65.11 172.81 64.75 C 167.82 66.78 164.41 72.25 158.84 72.61 C 158.62 74.19 157.30 74.58 155.92 74.78 C 155.43 75.67 154.95 76.55 154.47 77.44 C 152.64 77.98 150.78 78.42 148.89 78.67 C 144.92 80.59 142.17 84.34 138.08 86.14 C 134.49 87.62 131.67 90.57 127.88 91.53 C 127.10 92.18 126.24 92.67 125.28 92.99 C 123.04 95.02 120.00 95.82 117.84 97.96 C 114.78 100.73 110.95 102.37 107.54 104.64 C 105.74 105.94 102.32 104.67 102.32 107.80 C 100.76 106.14 98.42 106.57 96.38 106.41 C 96.17 105.81 95.75 104.62 95.54 104.02 C 97.39 101.96 99.13 99.79 101.14 97.87 C 103.35 95.80 104.46 92.69 107.22 91.20 C 111.27 87.97 115.17 84.40 118.09 80.07 C 120.28 78.27 122.65 76.71 124.75 74.79 C 128.13 72.72 129.65 68.96 132.60 66.49 C 136.49 64.27 140.11 61.43 142.70 57.72 C 145.96 53.25 151.48 51.15 154.56 46.49 M 175.32 63.74 C 175.34 64.07 175.39 64.73 175.42 65.06 C 176.73 64.68 178.84 63.57 178.70 62.02 C 177.39 61.61 176.13 62.86 175.32 63.74 Z"
       id="path10" />
    <path
       fill="#140906"
       opacity="1.00"
       d=" M 327.24 45.43 C 328.52 46.14 328.55 47.52 328.65 48.80 C 328.07 48.75 326.91 48.65 326.33 48.60 C 326.64 47.55 326.94 46.49 327.24 45.43 Z"
       id="path12" />
    <path
       fill="#140906"
       opacity="1.00"
       d=" M 116.03 48.87 C 117.18 49.95 118.18 51.27 119.74 51.79 C 119.74 52.26 119.76 53.19 119.76 53.65 C 119.14 53.63 117.89 53.60 117.26 53.58 C 116.73 52.04 116.34 50.46 116.03 48.87 Z"
       id="path14" />
    <path
       fill="#140906"
       opacity="1.00"
       d=" M 374.28 59.44 C 376.41 56.32 379.33 53.33 383.23 52.71 C 382.82 55.86 379.23 56.28 377.49 58.43 C 375.88 60.49 374.60 62.87 372.42 64.40 C 370.61 65.53 368.57 66.32 366.99 67.80 C 366.52 69.61 365.20 70.85 363.78 71.94 C 363.02 73.41 362.22 74.86 360.90 75.91 C 359.59 77.36 357.98 78.45 356.25 79.34 C 356.01 79.79 355.51 80.70 355.27 81.16 C 353.40 82.28 351.19 83.10 349.99 85.03 C 347.44 88.81 343.36 91.13 339.47 93.32 C 337.09 95.33 335.22 97.87 333.30 100.30 C 330.29 102.26 327.43 104.45 324.39 106.35 C 323.43 108.66 321.15 109.75 319.19 111.05 C 316.56 113.17 314.56 116.08 311.43 117.53 C 309.99 119.66 308.29 122.21 305.28 121.57 C 304.58 118.58 307.75 117.83 309.52 116.28 C 318.63 107.72 329.59 101.10 338.12 91.99 C 342.04 90.20 344.95 86.91 348.29 84.28 C 350.76 80.20 355.06 78.00 358.66 75.10 C 358.68 74.55 358.73 73.44 358.75 72.88 C 360.99 70.77 362.48 67.89 365.02 66.11 C 368.48 64.45 371.41 61.94 374.28 59.44 Z"
       id="path16" />
    <path
       fill="#140906"
       opacity="1.00"
       d=" M 843.41 58.51 C 841.16 59.92 840.58 55.13 842.91 55.13 C 844.25 55.53 843.99 57.57 843.41 58.51 Z"
       id="path18" />
    <path
       fill="#140906"
       opacity="1.00"
       d=" M 446.94 66.58 C 447.63 66.63 448.32 66.71 449.02 66.80 C 448.45 67.69 447.81 68.52 447.10 69.30 C 445.48 70.23 444.08 71.46 442.75 72.75 C 440.54 74.61 438.22 76.34 436.15 78.35 C 435.59 78.37 434.48 78.41 433.93 78.43 C 432.65 79.62 431.31 80.86 429.41 80.61 C 429.47 81.46 429.60 83.17 429.67 84.03 C 429.26 83.47 428.43 82.37 428.02 81.82 C 427.80 82.65 427.37 84.31 427.15 85.14 C 426.65 85.41 425.66 85.97 425.17 86.25 C 423.67 86.48 422.36 87.18 421.25 88.18 C 418.97 90.56 415.82 92.26 414.65 95.53 C 413.99 95.54 412.66 95.55 412.00 95.56 C 408.52 96.71 406.55 99.95 403.40 101.63 C 402.45 102.19 401.89 103.20 401.16 103.99 C 398.04 105.36 396.03 108.22 393.48 110.35 C 391.08 112.78 388.25 115.56 388.33 119.25 C 394.98 119.48 401.33 117.14 407.96 117.05 C 412.49 117.04 416.43 114.49 420.86 113.86 C 425.55 113.37 429.07 109.60 433.79 109.33 C 433.47 111.20 432.62 112.65 430.47 112.41 C 427.46 114.33 424.32 116.16 420.79 116.94 C 417.99 117.33 416.11 119.62 414.76 121.90 C 418.55 122.39 422.24 120.88 425.91 120.09 C 432.03 117.70 438.72 117.23 445.23 117.51 C 444.56 119.42 441.90 119.46 441.21 121.26 C 441.60 121.43 442.40 121.76 442.79 121.92 C 442.69 124.78 438.48 124.60 436.35 124.83 C 436.37 124.36 436.42 123.41 436.45 122.94 C 438.06 121.81 439.59 120.54 440.97 119.14 C 438.66 119.11 436.35 119.31 434.15 120.05 C 431.65 120.01 429.44 120.99 427.33 122.22 C 422.30 122.73 417.46 124.55 412.37 124.60 C 412.34 123.32 412.34 122.03 412.38 120.75 C 413.40 119.66 414.35 118.51 415.24 117.31 C 410.84 117.34 406.50 118.12 402.32 119.46 C 396.80 120.61 391.21 121.59 385.56 121.57 C 385.29 120.88 384.75 119.51 384.48 118.82 C 387.81 114.64 389.52 109.08 394.36 106.25 C 398.66 103.66 402.39 100.31 405.90 96.75 C 412.09 93.11 417.97 88.90 422.71 83.44 C 423.42 83.51 424.82 83.64 425.52 83.71 C 425.53 82.98 425.55 81.50 425.56 80.76 C 427.00 80.48 428.42 80.00 428.98 78.47 C 429.89 78.53 430.81 78.61 431.74 78.71 C 431.66 77.73 431.61 76.74 431.60 75.75 C 434.48 76.47 435.71 73.09 438.42 73.54 C 438.02 71.39 440.46 71.63 441.38 70.25 C 443.02 68.72 445.23 68.02 446.94 66.58 Z"
       id="path20" />
    <path
       fill="#140906"
       opacity="1.00"
       d=" M 636.11 86.77 C 639.56 85.74 643.35 85.67 646.49 87.69 C 647.44 89.06 647.95 90.70 648.61 92.23 C 647.86 92.40 647.12 92.56 646.39 92.73 C 645.30 95.12 642.13 94.09 640.09 94.91 C 634.44 96.64 628.52 96.01 622.72 96.30 C 617.54 97.64 614.18 102.11 609.53 104.44 C 607.70 105.30 607.41 107.59 606.40 109.15 C 607.10 109.93 607.82 110.71 608.56 111.47 C 613.30 112.19 618.03 113.35 622.87 112.70 C 622.66 113.31 622.25 114.51 622.04 115.11 C 618.15 115.36 614.69 117.38 610.81 117.61 C 608.68 118.97 606.56 120.37 604.20 121.29 C 602.11 122.10 600.79 124.26 598.45 124.53 C 597.80 125.77 597.15 127.01 596.52 128.25 C 601.14 129.01 605.54 127.01 609.93 125.91 C 616.72 124.31 623.41 122.27 630.17 120.53 C 630.15 121.47 630.15 122.41 630.16 123.36 C 627.75 123.17 625.39 123.82 622.99 123.61 C 622.55 124.00 621.67 124.77 621.24 125.16 C 612.07 125.75 603.71 131.25 594.43 130.28 C 594.20 126.68 596.25 123.43 599.52 121.99 C 603.77 119.17 608.32 116.95 613.22 115.49 C 612.28 114.15 610.49 114.31 609.10 113.87 C 606.71 113.44 604.50 112.41 602.38 111.26 C 603.44 106.53 607.70 103.82 611.34 101.16 C 615.95 97.30 621.43 94.76 626.32 91.31 C 626.40 91.97 626.55 93.29 626.62 93.95 C 633.46 94.13 640.29 93.22 646.90 91.49 C 645.23 89.95 643.17 88.80 640.95 88.34 C 638.97 88.63 637.06 89.24 635.13 89.68 C 633.04 91.72 630.07 92.06 627.31 92.18 C 628.13 91.37 629.08 90.74 630.16 90.29 C 632.22 89.26 634.08 87.88 636.11 86.77 Z"
       id="path22" />
    <path
       fill="#140906"
       opacity="1.00"
       d=" M 792.13 86.07 C 792.59 87.70 790.84 89.07 791.38 90.80 C 786.16 92.61 782.44 96.93 777.70 99.60 C 776.14 102.74 772.93 104.07 770.19 105.84 C 770.34 106.64 770.65 108.25 770.81 109.05 C 770.20 108.09 769.69 107.09 769.28 106.04 C 763.53 109.43 760.13 116.02 753.45 117.83 C 750.18 120.37 747.28 123.49 744.76 126.76 C 751.08 127.38 757.52 126.42 763.82 125.78 C 768.30 123.38 773.42 120.39 778.65 122.14 C 778.64 122.80 778.60 124.12 778.58 124.78 C 773.81 125.41 768.45 125.94 764.53 128.89 C 768.36 129.02 772.09 127.94 775.88 127.45 C 775.77 127.97 775.57 129.00 775.47 129.52 C 771.07 129.70 766.61 131.21 762.26 130.22 C 762.26 129.67 762.25 128.59 762.24 128.05 C 755.78 127.89 749.49 130.47 743.01 129.27 C 742.02 128.62 741.05 127.96 740.09 127.30 C 740.61 126.26 741.41 125.49 742.48 124.99 C 741.92 124.48 741.38 123.96 740.85 123.45 C 739.16 124.21 737.46 124.90 735.74 125.57 C 733.45 127.27 730.71 128.15 728.04 129.02 C 723.42 130.51 718.60 130.70 713.80 131.00 C 714.82 130.07 716.08 129.26 716.58 127.88 C 710.75 130.10 704.59 131.48 698.32 131.47 C 698.37 130.11 698.70 128.80 699.19 127.54 C 696.16 129.02 692.66 127.98 689.61 129.42 C 682.88 129.54 676.10 131.84 669.42 130.68 C 669.43 129.79 669.44 128.01 669.45 127.13 C 669.92 127.26 670.87 127.53 671.34 127.66 C 671.34 127.25 671.35 126.43 671.35 126.02 C 677.39 123.19 683.33 118.93 690.36 119.53 C 690.37 120.42 690.38 121.32 690.39 122.22 C 688.46 122.35 686.68 122.93 685.17 124.12 C 681.20 125.24 677.13 126.24 673.47 128.18 L 672.81 129.95 C 681.78 128.36 690.83 127.28 699.87 126.19 C 705.10 124.76 709.79 121.45 715.43 121.51 C 715.58 122.07 715.87 123.19 716.02 123.75 C 715.11 123.84 713.28 124.03 712.37 124.12 C 712.40 124.60 712.45 125.56 712.48 126.03 L 712.15 124.48 C 709.88 125.01 707.64 125.66 705.42 126.33 C 703.99 127.61 699.54 127.78 700.81 130.21 C 709.35 129.86 716.94 124.71 725.50 124.66 C 724.19 127.27 720.54 126.89 719.21 129.46 C 722.23 129.16 725.05 128.00 727.84 126.88 C 731.06 126.47 733.64 123.87 737.08 124.47 C 737.54 123.13 738.73 122.55 739.96 122.04 C 741.28 121.77 742.58 121.41 743.90 121.05 L 744.00 122.54 C 743.54 122.41 742.63 122.16 742.18 122.04 C 742.41 122.87 742.65 123.69 742.93 124.52 C 744.09 122.15 746.95 121.22 747.66 118.53 C 751.20 118.14 753.50 115.00 756.59 113.55 C 761.24 111.34 763.98 106.59 768.66 104.46 C 771.76 102.78 774.52 100.52 777.00 98.01 C 780.76 94.12 785.87 92.08 790.46 89.39 C 791.08 88.32 791.64 87.21 792.13 86.07 Z"
       id="path24" />
    <path
       fill="#140906"
       opacity="1.00"
       d=" M 357.95 89.14 C 364.00 87.71 370.48 87.43 376.53 88.91 C 377.45 95.04 367.99 95.34 368.00 101.06 C 369.77 102.98 372.48 103.80 374.09 105.88 C 374.28 107.63 374.35 109.39 374.50 111.15 C 373.59 112.02 372.73 112.94 371.89 113.86 C 367.95 117.46 362.57 118.59 358.11 121.35 C 355.18 121.74 352.24 121.29 349.60 120.00 C 350.54 118.19 351.56 116.42 352.65 114.69 C 356.10 112.41 358.34 108.51 362.39 107.13 C 362.27 108.52 362.56 109.81 363.25 111.02 C 365.60 111.67 364.08 108.13 365.14 106.93 C 365.28 108.94 366.51 110.96 366.10 112.97 C 365.17 113.71 364.39 114.62 363.34 115.18 C 364.90 113.79 363.19 112.36 362.33 111.24 C 361.47 112.05 360.63 112.88 359.80 113.71 C 359.05 114.64 358.30 115.57 357.58 116.52 C 357.56 117.09 357.52 118.23 357.50 118.80 C 362.65 117.66 368.06 115.70 371.15 111.17 C 372.50 109.38 371.40 107.37 370.66 105.58 C 368.04 104.51 364.83 103.26 364.73 99.92 C 366.84 96.03 370.77 93.59 374.25 91.04 C 367.81 89.26 361.07 90.79 354.57 91.44 C 351.87 91.67 348.59 92.41 347.60 95.31 C 345.67 95.83 343.66 96.19 341.90 95.01 C 346.50 91.46 352.39 90.33 357.95 89.14 Z"
       id="path26" />
    <path
       fill="#140906"
       opacity="1.00"
       d=" M 24.00 107.86 C 24.77 100.41 31.72 95.26 38.73 94.23 C 38.71 94.48 38.66 95.00 38.63 95.25 C 35.13 97.05 31.31 98.59 28.56 101.53 C 26.71 104.73 25.39 108.95 27.53 112.34 C 31.99 116.09 37.94 114.69 43.26 114.46 C 46.45 114.37 49.12 112.16 52.36 112.20 C 51.66 113.43 50.46 114.11 49.36 114.91 C 49.44 115.95 49.54 116.98 49.67 118.01 C 49.43 117.28 48.95 115.81 48.71 115.08 C 47.10 115.28 45.40 115.28 44.01 116.24 C 38.28 116.86 32.44 117.80 26.74 116.44 C 25.23 113.82 23.18 111.09 24.00 107.86 Z"
       id="path28" />
    <path
       fill="#140906"
       opacity="1.00"
       d=" M 283.53 106.16 C 283.89 104.33 286.51 104.58 287.85 103.70 C 287.74 105.09 287.63 106.48 287.51 107.87 C 286.01 107.60 283.85 108.23 283.53 106.16 Z"
       id="path30" />
    <path
       fill="#140906"
       opacity="1.00"
       d=" M 846.99 109.79 C 851.60 106.93 856.37 103.88 861.94 103.44 C 860.45 107.06 856.02 107.80 853.70 110.73 C 852.82 110.18 852.08 108.54 851.06 109.80 C 849.21 111.45 846.42 111.93 845.21 114.24 C 843.92 114.94 842.71 115.74 841.70 116.78 C 842.36 116.72 843.68 116.61 844.34 116.55 C 846.29 114.87 848.34 112.77 851.19 113.41 C 849.97 114.07 848.66 114.54 847.41 115.11 C 845.13 117.94 840.75 117.79 839.16 121.22 C 835.56 122.64 833.08 125.75 830.76 128.69 C 830.35 128.64 829.52 128.52 829.11 128.47 C 833.79 131.75 839.65 130.49 844.97 131.24 C 847.93 131.84 850.82 130.58 853.40 129.23 C 855.45 128.10 857.46 125.98 860.03 126.94 C 861.44 127.86 862.28 129.39 863.40 130.63 C 864.10 130.62 865.51 130.61 866.21 130.60 C 865.93 132.86 867.15 136.23 869.92 135.91 C 873.53 136.18 877.13 135.70 880.73 135.43 C 881.15 136.29 881.60 137.14 882.08 137.98 C 881.73 137.56 881.04 136.70 880.69 136.27 C 874.63 138.92 867.66 138.23 861.60 135.97 C 861.68 133.67 859.90 133.23 857.99 133.49 C 854.93 136.65 850.29 136.82 846.19 136.61 C 845.93 135.51 845.69 134.40 845.48 133.30 C 839.84 133.45 834.16 133.56 828.89 131.30 C 827.98 130.35 827.11 129.37 826.25 128.39 C 823.00 130.59 818.90 130.64 815.59 132.67 C 811.44 135.00 806.85 136.53 802.08 136.76 C 801.15 134.12 802.02 131.43 804.69 130.22 C 805.38 130.75 806.07 131.29 806.77 131.84 C 806.29 132.34 805.31 133.34 804.83 133.83 C 810.91 134.04 816.01 129.79 822.02 129.27 C 824.29 127.27 827.47 126.78 829.59 124.59 C 832.20 122.34 833.80 118.89 837.11 117.49 C 841.11 115.93 843.41 112.02 846.99 109.79 Z"
       id="path32" />
    <path
       fill="#140906"
       opacity="1.00"
       d=" M 522.13 115.73 C 524.57 114.90 527.05 114.18 529.52 113.43 C 529.56 114.36 529.60 115.29 529.65 116.23 C 527.41 116.48 525.10 116.89 523.24 118.25 C 520.53 120.21 517.08 121.15 515.15 124.05 C 517.83 124.31 520.44 123.43 523.11 123.22 C 526.28 121.87 529.71 121.27 532.98 120.16 C 537.07 118.78 541.49 119.02 545.57 117.61 C 546.23 120.40 542.42 121.35 542.15 124.01 C 547.55 124.04 553.40 121.93 556.97 117.83 C 554.49 116.78 552.08 115.20 549.28 115.59 L 549.21 115.47 C 552.31 114.78 555.50 113.58 558.35 115.71 C 559.50 119.20 555.51 121.42 553.07 123.03 C 550.03 125.17 546.30 124.92 542.87 125.75 C 541.34 126.63 539.85 125.83 538.40 125.28 C 538.67 124.10 539.25 123.10 540.15 122.27 C 540.78 121.44 541.41 120.62 542.07 119.81 C 539.00 120.53 536.03 121.57 532.98 122.31 C 529.56 122.99 526.45 125.01 522.86 124.73 C 519.74 126.68 516.05 126.37 512.55 126.28 C 512.57 124.87 511.57 122.98 513.09 122.03 C 516.27 120.19 519.62 118.50 522.13 115.73 Z"
       id="path34" />
    <path
       fill="#140906"
       opacity="1.00"
       d=" M 503.82 120.53 C 508.73 118.37 514.11 117.89 519.22 116.41 L 518.66 117.77 C 515.11 118.81 511.48 119.58 508.07 121.07 C 506.70 121.22 505.24 121.04 504.02 121.77 C 500.67 123.63 496.66 123.42 493.16 124.86 C 489.76 126.22 486.29 127.91 482.51 127.34 C 481.52 123.38 486.85 122.72 488.52 119.85 C 486.62 120.12 484.62 120.25 482.96 121.31 C 480.39 121.25 477.85 121.80 475.29 121.65 C 475.29 121.40 475.30 120.88 475.30 120.63 C 481.36 120.09 487.12 117.83 493.25 117.73 C 491.72 119.81 490.15 121.86 488.68 123.98 C 493.81 123.31 498.69 121.32 503.82 120.53 Z"
       id="path36" />
    <path
       fill="#140906"
       opacity="1.00"
       d=" M 444.51 121.15 C 452.58 119.95 460.52 117.58 468.73 117.54 C 468.73 119.80 466.40 120.96 465.46 122.83 C 468.21 122.15 470.93 121.27 473.80 121.28 L 474.18 122.02 C 474.10 122.36 473.96 123.05 473.88 123.40 C 468.99 124.04 463.95 124.86 459.77 127.64 C 459.17 127.10 457.50 125.86 458.95 125.20 C 460.94 123.45 464.06 122.40 464.78 119.58 C 462.49 119.93 460.16 120.53 457.87 119.88 C 456.27 120.32 454.62 121.25 452.95 120.33 C 451.47 121.45 452.06 123.28 453.91 123.33 C 452.59 123.84 451.44 124.66 450.33 125.51 C 448.68 124.56 446.75 124.64 444.92 124.47 C 446.91 124.30 449.17 124.91 450.95 123.78 C 452.09 122.29 449.24 120.40 448.09 121.88 C 446.96 122.30 445.76 122.31 444.59 122.41 L 444.51 121.15 Z"
       id="path38" />
    <path
       fill="#140906"
       opacity="1.00"
       d=" M 630.58 120.93 C 632.63 120.91 637.35 118.06 636.63 122.11 C 633.74 123.70 631.20 125.81 628.87 128.11 C 634.61 126.21 640.34 124.25 646.32 123.12 C 644.72 121.94 642.71 121.81 640.83 121.55 C 642.96 121.67 645.13 121.36 646.94 120.12 C 646.95 120.99 645.62 122.41 646.65 123.01 C 648.75 123.13 650.90 122.84 653.04 122.91 C 652.75 123.94 652.48 124.97 652.21 125.99 C 650.00 126.66 648.65 128.65 646.81 129.91 C 654.46 129.11 661.97 127.39 669.61 126.54 C 667.27 129.51 663.27 129.15 659.94 129.54 C 655.40 130.83 650.59 130.10 646.08 131.53 C 643.72 131.21 641.84 129.55 640.09 128.06 C 641.95 130.01 644.15 129.67 646.31 128.39 C 647.34 127.13 648.44 125.89 649.04 124.34 C 645.11 126.27 640.62 126.14 636.55 127.61 C 631.63 129.45 626.43 130.33 621.31 131.37 L 621.95 130.19 C 625.12 128.30 627.55 125.41 630.84 123.68 C 630.77 123.00 630.65 121.62 630.58 120.93 Z"
       id="path40" />
    <path
       fill="#140906"
       opacity="1.00"
       d=" M 780.30 126.34 C 782.60 124.49 785.67 124.30 788.51 124.19 C 788.55 124.78 788.62 125.97 788.66 126.57 C 785.35 127.00 782.11 127.76 779.00 128.95 L 779.86 130.11 C 790.34 130.11 800.47 126.35 810.97 126.00 C 813.70 126.08 816.43 124.64 819.11 125.77 C 818.32 126.85 817.31 127.55 816.07 127.87 C 812.83 128.67 810.08 130.98 806.63 130.93 C 807.35 129.48 808.47 128.56 809.97 128.18 C 803.89 127.74 798.08 130.44 791.96 129.66 C 791.11 130.29 790.16 130.65 789.12 130.73 C 784.96 131.17 780.77 132.08 776.59 131.29 C 776.47 130.34 776.22 128.44 776.09 127.49 C 777.47 127.07 778.88 126.69 780.30 126.34 Z"
       id="path42" />
    <path
       fill="#140906"
       opacity="1.00"
       d=" M 873.98 140.68 C 875.92 137.60 882.35 138.19 882.62 142.29 C 879.93 141.01 876.94 140.53 873.98 140.68 Z"
       id="path44" />
  </g>
</svg>
