<?xml version="1.0" encoding="UTF-8" standalone="no"?>
<svg
   xmlns:dc="http://purl.org/dc/elements/1.1/"
   xmlns:cc="http://creativecommons.org/ns#"
   xmlns:rdf="http://www.w3.org/1999/02/22-rdf-syntax-ns#"
   xmlns:svg="http://www.w3.org/2000/svg"
   xmlns="http://www.w3.org/2000/svg"
   xmlns:sodipodi="http://sodipodi.sourceforge.net/DTD/sodipodi-0.dtd"
   xmlns:inkscape="http://www.inkscape.org/namespaces/inkscape"
   width="611pt"
   height="234pt"
   viewBox="0 0 611 234"
   version="1.1"
   id="svg3001"
   inkscape:version="0.48.5 r10040"
   sodipodi:docname="firma Padre Hurtado.svg">
  <metadata
     id="metadata3015">
    <rdf:RDF>
      <cc:Work
         rdf:about="">
        <dc:format>image/svg+xml</dc:format>
        <dc:type
           rdf:resource="http://purl.org/dc/dcmitype/StillImage" />
        <dc:title></dc:title>
        <cc:license
           rdf:resource="http://creativecommons.org/licenses/publicdomain/" />
      </cc:Work>
      <cc:License
         rdf:about="http://creativecommons.org/licenses/publicdomain/">
        <cc:permits
           rdf:resource="http://creativecommons.org/ns#Reproduction" />
        <cc:permits
           rdf:resource="http://creativecommons.org/ns#Distribution" />
        <cc:permits
           rdf:resource="http://creativecommons.org/ns#DerivativeWorks" />
      </cc:License>
    </rdf:RDF>
  </metadata>
  <defs
     id="defs3013" />
  <sodipodi:namedview
     pagecolor="#ffffff"
     bordercolor="#666666"
     borderopacity="1"
     objecttolerance="10"
     gridtolerance="10"
     guidetolerance="10"
     inkscape:pageopacity="0"
     inkscape:pageshadow="2"
     inkscape:window-width="1366"
     inkscape:window-height="706"
     id="namedview3011"
     showgrid="false"
     inkscape:zoom="1.5790507"
     inkscape:cx="381.875"
     inkscape:cy="146.25"
     inkscape:window-x="-8"
     inkscape:window-y="-8"
     inkscape:window-maximized="1"
     inkscape:current-layer="svg3001" />
  <g
     id="#fefefeff">
    <path
       fill="#fefefe"
       opacity="1.00"
       d=" M 57.68 98.00 C 59.18 95.79 61.12 93.95 63.47 92.65 C 61.88 94.69 60.60 97.72 57.68 98.00 Z"
       id="path3004" />
  </g>
  <g
     id="#010101ff">
    <path
       fill="#010101"
       opacity="1.00"
       d=" M 597.54 6.66 C 600.56 5.79 603.70 5.79 606.82 5.77 C 610.38 10.33 606.12 15.08 604.59 19.47 C 604.03 20.44 603.51 21.43 603.01 22.43 C 601.57 24.14 600.08 25.82 598.72 27.60 C 595.39 32.32 591.29 36.36 587.53 40.72 C 586.66 41.58 585.52 42.10 584.52 42.76 C 582.83 45.05 581.01 47.33 578.48 48.70 C 576.38 49.87 574.85 52.09 572.28 52.21 C 568.80 55.07 564.48 56.38 560.71 58.75 C 558.27 59.10 555.81 59.23 553.38 59.51 C 552.11 60.19 550.82 60.83 549.51 61.40 C 548.40 61.69 547.29 61.92 546.17 62.11 C 543.72 64.00 541.50 66.15 539.25 68.27 C 536.96 72.85 532.65 75.88 529.45 79.76 C 522.99 85.24 518.57 92.59 512.61 98.54 C 510.44 100.67 508.83 103.29 506.57 105.34 C 509.94 105.37 513.28 105.88 516.64 106.06 C 517.54 106.56 518.46 107.05 519.38 107.55 C 524.46 106.81 529.15 109.08 534.04 110.01 C 536.32 110.62 538.82 110.78 540.83 112.16 C 544.32 114.25 548.50 116.01 550.02 120.15 C 552.57 123.68 551.82 128.31 550.04 132.01 C 548.30 132.00 546.56 132.00 544.84 132.01 C 542.41 130.54 540.97 128.04 538.81 126.29 C 539.25 126.29 540.13 126.28 540.56 126.28 C 540.12 121.46 537.55 117.02 533.24 114.71 C 529.25 113.92 525.45 112.10 521.30 112.34 C 521.09 111.82 520.68 110.78 520.47 110.26 C 514.41 110.20 508.35 110.38 502.30 110.17 C 495.34 117.73 489.47 126.17 483.28 134.34 C 479.31 140.24 474.62 145.75 472.12 152.51 C 471.11 154.07 470.29 155.74 469.55 157.45 C 466.69 164.09 463.74 171.07 464.21 178.45 C 464.14 185.06 469.20 190.46 474.53 193.72 C 477.76 195.48 481.14 196.99 484.60 198.28 C 487.75 200.15 491.49 199.87 494.87 201.06 C 501.78 203.03 508.67 205.19 515.77 206.43 C 517.44 206.72 518.93 207.60 520.45 208.33 C 524.62 209.43 528.61 211.17 532.47 213.07 C 537.14 216.08 542.66 219.82 542.96 225.97 C 543.77 228.62 540.79 230.01 538.94 230.99 C 536.25 231.45 534.36 228.95 532.87 227.10 C 528.29 219.13 520.75 212.31 511.55 210.53 C 508.92 209.68 506.30 208.75 503.57 208.35 C 503.23 208.07 502.56 207.50 502.23 207.22 C 497.80 206.45 493.42 203.84 488.90 204.73 C 485.30 204.02 481.88 202.83 478.41 201.75 C 476.03 200.78 473.71 199.68 471.57 198.27 C 466.19 196.81 462.56 192.30 458.60 188.68 C 457.39 185.44 456.50 182.09 456.10 178.64 C 456.22 174.08 457.98 169.85 458.98 165.46 C 460.20 161.69 461.93 158.13 463.65 154.56 C 465.47 150.35 469.54 147.68 471.44 143.51 C 474.06 138.33 478.29 134.30 481.32 129.42 C 484.03 126.14 486.45 122.61 489.39 119.52 C 491.70 117.12 492.75 113.58 495.73 111.87 C 496.32 110.69 496.87 109.49 497.38 108.28 C 492.07 107.48 486.59 108.25 481.43 106.50 C 479.58 107.72 477.38 107.68 475.29 107.34 C 471.52 106.64 467.56 107.36 463.95 105.88 C 461.63 104.96 459.15 105.53 456.78 105.81 C 454.83 105.58 452.94 105.07 451.01 104.82 C 448.20 105.26 445.43 106.25 442.56 105.89 C 436.81 105.78 430.93 106.73 425.28 105.43 C 424.38 105.97 423.48 106.52 422.59 107.07 C 419.87 107.11 417.12 105.26 414.50 106.60 C 411.61 105.23 408.99 108.01 406.03 107.50 C 401.91 107.29 397.81 108.16 393.71 107.75 C 392.66 107.94 391.62 108.13 390.58 108.32 C 388.99 109.01 387.24 109.02 385.55 109.25 C 380.43 108.21 375.64 110.95 370.49 110.58 C 368.38 111.19 366.25 111.93 364.03 111.77 C 353.44 111.66 343.12 114.40 332.64 115.32 C 327.20 116.72 321.53 116.50 316.00 117.22 C 309.95 117.78 303.98 116.52 297.94 116.57 C 289.17 116.27 282.26 110.36 274.74 106.66 C 269.83 101.69 266.21 95.30 265.67 88.24 C 263.58 87.92 261.47 87.93 259.39 87.62 C 258.06 87.88 256.72 88.10 255.39 88.35 C 252.44 88.61 251.46 91.68 249.56 93.47 C 246.84 96.25 244.81 99.67 244.07 103.52 C 243.25 104.91 242.40 106.29 241.56 107.67 C 239.81 107.55 238.07 107.44 236.33 107.25 C 235.84 106.13 235.35 105.02 234.86 103.91 C 235.74 102.43 236.65 100.96 237.68 99.58 C 242.69 91.82 248.44 84.57 254.18 77.38 C 251.31 78.56 248.55 80.05 246.47 82.39 C 242.84 84.17 238.92 85.44 235.05 86.62 C 232.97 87.74 231.29 89.45 229.49 90.95 C 227.87 90.73 226.09 90.79 224.80 89.61 C 224.68 87.98 224.83 86.35 224.91 84.73 C 221.77 86.64 219.15 89.26 217.03 92.25 C 214.71 94.19 212.37 96.11 210.17 98.18 C 209.44 98.20 208.71 98.18 207.98 98.12 C 210.44 95.20 213.61 93.03 216.18 90.25 C 218.57 87.26 221.28 84.57 223.99 81.89 C 223.93 78.84 223.74 75.66 225.33 72.94 C 225.86 70.43 228.25 69.18 229.20 66.94 C 227.79 67.53 226.44 68.25 225.17 69.10 C 223.69 68.84 222.24 68.45 220.80 68.07 C 219.16 69.19 217.22 69.60 215.37 70.17 C 210.18 77.42 206.46 85.61 202.30 93.47 C 201.26 95.84 200.52 98.38 201.23 100.96 C 203.76 101.09 205.33 98.49 207.73 98.09 C 209.12 100.56 206.03 101.45 204.31 102.19 C 202.77 102.62 201.17 103.72 199.54 103.07 C 197.81 101.91 197.79 99.75 197.21 97.96 C 198.08 94.73 199.36 91.64 200.38 88.46 C 197.90 90.36 195.74 92.63 193.62 94.92 C 192.19 95.37 190.76 95.84 189.32 96.27 C 186.32 100.35 181.30 102.03 176.38 102.06 C 175.30 101.24 174.20 100.46 173.06 99.74 C 172.01 97.78 171.71 95.45 172.78 93.42 C 172.87 92.99 173.03 92.14 173.12 91.71 C 175.24 88.63 176.88 85.18 179.71 82.63 C 180.80 80.99 182.00 79.43 183.14 77.83 C 181.92 77.99 180.71 78.17 179.51 78.39 C 178.37 78.18 177.22 78.01 176.08 77.84 C 174.03 80.00 172.29 82.41 170.85 85.02 C 168.66 87.20 166.66 89.65 163.96 91.24 C 162.07 92.49 161.36 95.06 159.18 95.90 C 156.89 96.65 155.43 98.81 153.05 99.41 C 152.69 99.77 151.97 100.51 151.62 100.88 C 147.72 101.47 143.34 101.50 140.66 98.12 C 140.73 96.05 140.83 93.98 141.08 91.92 C 140.40 91.37 139.72 90.82 139.05 90.28 C 138.16 91.45 137.30 92.65 136.72 94.01 C 133.11 96.78 132.19 102.57 127.40 103.67 C 126.70 97.65 129.40 91.87 131.94 86.57 C 132.87 84.09 135.00 82.19 135.37 79.47 C 131.14 81.14 129.35 86.01 125.53 88.41 C 124.48 90.68 122.41 92.13 120.63 93.79 C 119.86 94.26 119.09 94.74 118.32 95.23 C 115.87 99.40 111.22 101.33 107.42 104.00 C 105.63 104.00 103.82 104.09 102.03 103.89 C 100.33 103.68 100.04 101.71 99.30 100.51 C 99.37 98.16 99.39 95.81 99.49 93.46 C 91.66 97.46 85.35 104.99 76.03 105.49 C 75.28 106.14 74.52 106.79 73.76 107.43 C 71.50 111.25 69.32 115.29 65.80 118.10 C 65.20 117.08 64.62 116.06 64.06 115.02 C 66.06 111.05 68.20 107.16 70.66 103.46 C 72.26 101.07 71.40 98.26 71.29 95.62 C 72.78 91.61 74.93 87.89 77.39 84.41 C 78.06 84.26 78.73 84.11 79.39 83.96 C 81.23 86.37 83.02 83.61 84.26 82.19 C 86.26 79.41 87.73 76.29 89.83 73.57 C 91.56 70.12 94.30 67.29 95.98 63.81 C 96.84 62.00 97.91 60.29 99.15 58.71 C 100.14 56.17 101.52 53.78 102.31 51.16 C 102.63 50.78 103.26 50.02 103.57 49.65 C 103.87 48.60 104.17 47.56 104.48 46.52 C 104.76 45.35 105.01 44.17 105.21 42.98 C 104.83 42.73 104.07 42.21 103.69 41.95 C 100.99 44.09 98.27 46.26 96.25 49.07 C 94.62 52.60 93.17 56.21 91.05 59.49 C 91.02 60.41 90.99 61.34 90.97 62.26 C 87.92 63.85 86.04 67.29 85.85 70.67 C 84.10 74.45 82.01 78.08 78.91 80.92 C 73.16 88.86 65.44 94.95 58.35 101.62 C 54.91 103.34 52.13 106.07 49.79 109.10 C 49.05 109.47 48.31 109.85 47.58 110.22 C 45.86 113.48 41.39 112.59 39.24 115.41 C 36.59 118.34 32.63 119.03 29.28 120.82 C 28.75 120.90 27.67 121.06 27.13 121.14 C 23.46 122.56 19.43 122.04 15.58 122.24 C 10.80 120.95 9.18 115.83 6.14 112.43 C 6.19 111.75 6.30 110.38 6.35 109.70 C 5.61 109.60 4.13 109.41 3.39 109.32 C 5.64 107.09 9.26 108.35 12.10 107.69 C 15.61 110.54 13.76 116.93 18.41 118.52 C 19.79 118.84 21.20 118.99 22.59 119.23 C 23.30 119.09 24.73 118.80 25.45 118.65 C 30.92 116.64 36.12 114.03 41.00 110.85 C 49.68 106.90 53.87 97.80 60.61 91.57 C 66.08 84.53 71.62 77.54 77.41 70.75 C 78.36 68.03 80.89 66.40 82.51 64.13 C 84.11 62.12 85.28 59.47 87.93 58.65 C 90.57 54.63 92.45 50.18 94.83 46.02 C 96.56 42.89 99.87 41.31 102.45 39.02 C 104.19 38.07 105.96 38.01 107.55 39.30 C 107.87 40.18 108.19 41.06 108.52 41.94 C 106.97 49.19 104.49 56.29 100.21 62.42 C 98.00 67.84 94.21 72.38 91.55 77.56 C 88.85 81.81 85.79 85.82 83.17 90.13 C 80.34 93.83 77.36 97.58 76.29 102.23 C 77.69 102.00 79.10 101.78 80.47 101.42 C 82.90 100.53 85.28 99.51 87.55 98.28 C 93.96 92.88 103.17 89.25 105.41 80.38 C 108.90 73.98 112.67 67.68 116.73 61.61 C 120.83 54.96 125.71 48.68 131.49 43.38 C 132.40 42.30 133.84 42.14 135.09 41.71 C 135.51 45.54 134.00 49.03 132.72 52.53 C 131.26 54.16 130.18 56.07 129.35 58.09 C 128.37 60.98 125.89 63.01 124.84 65.86 C 120.23 72.24 115.26 78.40 109.49 83.76 C 106.65 84.95 105.65 87.97 104.36 90.50 C 103.65 94.45 101.76 98.26 102.91 102.36 C 107.94 100.82 112.78 98.09 115.97 93.81 C 120.68 91.08 124.02 86.72 128.05 83.14 C 130.45 81.19 132.13 78.57 134.02 76.16 C 135.02 77.16 136.04 78.15 137.06 79.14 C 136.90 78.48 136.58 77.16 136.42 76.50 L 138.12 76.60 C 137.09 76.17 136.07 75.74 135.05 75.31 C 137.32 72.86 140.00 70.62 141.40 67.52 C 145.93 59.83 150.25 51.94 156.18 45.19 C 157.81 42.84 159.97 40.97 162.48 39.59 C 162.95 40.55 163.43 41.51 163.92 42.48 C 160.65 45.69 158.33 49.70 155.74 53.45 C 154.67 55.91 152.72 57.69 150.81 59.48 C 149.12 62.69 146.66 65.45 145.31 68.85 C 141.75 76.54 136.64 83.43 133.61 91.37 C 132.51 93.01 131.71 94.81 131.22 96.72 C 133.58 95.17 134.56 92.43 136.07 90.18 C 137.66 87.92 138.93 85.47 140.36 83.11 C 140.96 83.02 142.16 82.83 142.75 82.74 C 142.82 84.41 142.87 86.08 142.91 87.74 C 147.00 81.48 152.04 75.55 158.63 71.83 C 160.73 70.60 164.48 70.14 165.15 73.19 C 164.89 76.48 162.83 79.30 160.76 81.75 C 155.79 85.63 150.80 89.55 144.99 92.14 C 144.52 93.64 144.13 95.17 143.80 96.72 C 145.91 98.97 148.87 98.47 151.51 97.68 C 154.72 95.05 158.30 92.90 161.43 90.18 C 165.73 85.56 170.64 81.24 173.27 75.38 C 174.38 72.78 176.52 70.79 177.50 68.12 C 178.19 68.00 179.57 67.77 180.26 67.65 C 180.44 68.88 180.60 70.11 180.74 71.35 C 179.58 72.43 178.36 73.50 177.53 74.87 C 178.45 77.29 181.43 75.72 183.26 75.86 C 183.54 75.51 184.12 74.80 184.40 74.44 C 185.83 74.52 187.26 74.60 188.69 74.71 C 186.47 81.23 179.96 85.09 177.60 91.47 C 175.84 93.50 175.83 96.36 175.77 98.91 C 177.39 98.95 179.02 98.96 180.64 98.92 C 181.62 98.45 182.61 98.01 183.61 97.60 C 184.05 97.31 184.94 96.73 185.38 96.44 C 189.78 95.29 192.49 91.47 195.95 88.83 C 201.45 83.51 206.50 77.57 209.65 70.52 C 206.98 70.26 204.35 69.77 201.74 69.14 C 200.17 70.11 198.46 71.29 196.55 70.56 C 195.46 70.89 194.37 70.86 193.29 70.47 C 192.51 70.37 190.95 70.16 190.17 70.05 C 192.20 67.88 195.24 67.84 198.00 67.58 C 201.79 67.38 205.56 66.78 209.37 66.78 C 210.46 66.37 211.57 66.03 212.70 65.75 C 213.74 63.52 215.12 61.47 216.70 59.60 C 219.89 53.87 223.64 48.49 226.95 42.83 C 228.12 41.06 229.78 39.69 231.31 38.23 C 231.63 38.96 232.27 40.40 232.60 41.12 C 227.49 48.71 222.38 56.40 218.71 64.83 C 225.22 65.20 231.57 63.48 238.00 62.75 C 243.11 62.55 248.06 61.08 253.00 59.83 C 253.53 60.79 253.91 61.80 254.14 62.87 C 252.21 64.24 249.80 63.99 247.57 64.09 C 246.18 64.97 244.81 66.27 243.02 65.91 C 240.38 65.36 238.67 67.75 236.78 69.13 C 236.80 72.10 236.64 75.08 237.00 78.04 C 236.71 79.64 236.39 81.23 236.21 82.85 C 243.09 82.87 248.06 77.68 253.61 74.41 C 257.15 71.40 260.77 68.42 263.84 64.90 C 267.40 61.42 271.27 58.16 273.85 53.83 C 277.82 49.72 281.30 45.18 285.42 41.20 C 287.69 38.44 290.12 35.74 293.32 34.02 C 293.88 35.01 294.43 36.02 294.96 37.04 C 291.15 42.18 286.21 46.29 282.11 51.18 C 276.93 57.96 271.54 64.57 266.34 71.34 C 262.80 75.40 259.40 79.63 256.59 84.24 C 259.39 84.13 262.16 84.68 264.94 84.74 C 267.54 83.24 266.78 79.47 268.80 77.41 C 269.17 76.66 269.54 75.92 269.91 75.17 C 274.26 67.14 280.60 60.51 286.31 53.42 C 287.51 52.58 288.57 51.56 289.39 50.34 C 291.26 48.91 293.06 47.34 294.38 45.36 C 299.33 41.31 304.18 36.91 310.10 34.30 C 310.49 35.36 310.87 36.43 311.23 37.50 C 303.58 39.55 299.12 46.50 293.63 51.59 C 285.44 60.80 276.90 70.58 273.62 82.76 C 278.14 81.30 283.35 80.45 286.66 76.72 C 290.87 72.47 295.99 69.33 300.91 66.00 C 301.75 66.01 303.42 66.01 304.25 66.01 C 304.62 67.04 305.00 68.08 305.38 69.11 C 304.84 69.44 303.75 70.11 303.21 70.45 C 303.05 71.21 302.89 71.97 302.74 72.74 C 302.50 72.46 302.02 71.91 301.78 71.64 C 299.97 73.62 297.81 75.22 295.87 77.07 C 292.65 76.77 290.86 79.78 288.44 81.32 C 286.13 82.72 285.21 85.29 284.14 87.62 C 284.13 89.48 284.15 91.34 284.19 93.20 C 287.75 94.05 291.26 92.89 294.52 91.54 C 295.96 91.02 297.37 90.40 298.78 89.81 C 299.09 89.34 299.70 88.41 300.01 87.94 C 300.80 87.95 302.40 87.96 303.19 87.97 C 306.22 84.66 310.45 82.79 313.35 79.34 C 315.99 76.32 318.90 73.50 322.21 71.22 C 322.84 72.47 323.43 73.75 323.99 75.04 C 322.75 76.00 321.58 77.03 320.42 78.08 C 319.70 79.48 318.43 80.18 316.88 80.29 C 316.34 80.94 315.81 81.59 315.28 82.25 C 314.79 85.42 311.12 86.70 310.72 89.92 C 311.16 91.20 312.32 91.99 313.21 92.95 C 316.95 91.74 320.26 89.68 323.69 87.82 C 327.87 84.67 332.04 81.39 335.01 77.03 C 339.62 73.14 340.88 66.68 345.74 62.97 C 346.42 64.40 347.09 65.84 347.78 67.26 C 346.23 69.83 343.73 71.71 342.54 74.49 C 346.68 74.52 351.20 75.33 354.65 72.43 C 355.71 73.20 356.67 74.11 357.39 75.22 C 352.12 81.46 345.54 87.08 342.93 95.08 C 343.00 96.93 345.05 97.10 346.46 97.08 C 349.26 95.71 352.15 94.42 354.50 92.32 C 358.21 91.16 360.54 87.85 363.63 85.71 C 369.70 81.49 374.45 75.77 379.30 70.27 C 383.90 66.31 386.17 60.50 390.34 56.15 C 389.84 55.44 389.31 54.77 388.75 54.12 C 385.51 53.80 382.31 54.29 379.17 55.01 C 378.71 54.80 377.79 54.39 377.33 54.19 C 374.25 55.48 370.85 54.88 367.61 55.07 C 363.75 54.95 359.71 55.49 356.16 53.59 C 357.98 50.39 361.95 51.51 364.96 51.34 C 373.17 51.60 381.29 50.58 389.49 50.49 C 391.28 50.07 393.09 49.68 394.84 49.10 C 396.99 44.36 400.79 40.65 404.47 37.08 C 404.93 37.44 405.87 38.16 406.34 38.52 C 404.34 42.50 401.97 46.51 398.48 49.37 C 403.51 48.12 408.71 49.01 413.78 48.17 C 418.11 49.53 422.38 45.89 426.62 47.70 C 427.85 47.30 429.11 46.95 430.37 46.58 C 432.36 47.14 434.44 47.12 436.49 46.88 C 441.89 47.31 447.33 47.20 452.69 46.34 C 453.37 47.26 454.05 48.18 454.73 49.11 C 453.33 50.72 451.70 53.08 449.35 51.40 C 446.78 51.21 444.22 51.19 441.65 51.14 C 438.64 51.28 435.52 50.54 432.62 51.56 C 430.73 51.71 428.82 51.97 427.00 51.33 C 425.85 51.78 424.71 52.24 423.59 52.74 C 422.16 52.19 420.62 51.55 419.31 52.82 C 415.67 52.76 412.01 52.92 408.46 53.81 C 406.30 53.40 404.14 52.87 401.94 52.82 C 399.38 53.60 397.03 55.07 394.30 55.25 C 393.44 56.69 392.59 58.14 391.79 59.62 C 389.03 62.27 387.15 65.64 385.15 68.86 C 385.21 70.59 385.09 72.38 383.45 73.36 C 380.25 77.33 376.44 83.60 380.06 88.36 C 385.51 87.78 389.84 84.17 394.07 81.03 C 395.70 79.31 396.65 77.02 398.48 75.45 C 401.96 70.02 407.29 66.10 412.66 62.68 C 416.61 61.28 418.87 56.88 423.39 56.83 C 424.28 57.93 425.20 59.01 426.14 60.09 C 425.67 62.23 425.15 64.35 424.78 66.52 C 426.60 67.00 428.12 68.03 429.15 69.62 C 427.03 71.78 423.61 73.43 423.34 76.79 C 423.54 80.10 419.26 81.66 420.62 85.12 C 424.16 85.03 427.91 84.94 431.01 82.97 C 434.89 80.25 438.32 76.91 441.38 73.30 C 443.29 71.83 445.40 70.65 447.36 69.26 C 453.72 67.27 457.56 61.32 463.40 58.37 C 464.81 58.27 466.23 58.11 467.63 57.88 C 468.18 58.44 468.73 59.00 469.29 59.57 C 470.36 58.96 471.44 58.30 472.18 57.28 C 475.93 53.11 479.74 48.99 484.10 45.45 C 485.31 44.34 486.45 43.15 487.52 41.91 C 489.90 41.09 492.02 39.11 494.67 39.36 C 495.41 40.12 495.57 41.20 495.94 42.15 C 493.13 44.83 491.35 48.36 489.65 51.80 C 487.38 53.89 486.40 56.96 484.13 59.06 C 481.70 61.32 479.55 63.86 477.26 66.27 C 475.14 67.67 471.54 69.28 473.06 72.46 C 471.33 72.89 469.53 73.13 467.99 74.09 C 465.78 78.61 461.72 83.74 464.03 88.90 C 469.80 88.12 474.29 84.11 478.47 80.40 C 481.96 78.12 485.15 75.43 488.51 72.96 C 490.87 71.21 493.01 69.13 495.64 67.75 C 497.53 65.98 499.60 64.42 501.62 62.79 C 504.89 63.43 505.01 60.06 504.94 57.77 C 505.34 56.17 505.39 54.51 505.46 52.87 C 506.36 52.85 508.15 52.83 509.05 52.82 C 518.65 58.54 530.22 60.19 541.18 58.52 C 544.91 58.34 545.59 53.75 548.65 52.29 C 549.01 51.49 549.37 50.70 549.75 49.90 C 552.83 47.47 554.53 43.77 557.63 41.33 C 561.97 36.74 565.54 31.47 570.06 27.03 C 572.56 24.46 575.01 21.83 577.77 19.53 C 583.63 14.23 590.44 9.92 597.54 6.66 M 597.43 10.13 C 591.23 15.34 584.04 19.38 578.80 25.65 C 576.60 28.82 573.21 30.88 570.86 33.92 C 568.11 37.48 564.84 40.56 561.70 43.76 C 557.69 48.27 553.98 53.05 549.61 57.23 C 556.91 55.71 563.87 52.72 570.48 49.40 C 574.35 48.02 577.66 45.44 580.46 42.49 C 583.13 39.85 586.72 38.19 588.88 35.04 C 589.82 33.63 591.17 32.60 592.53 31.61 C 593.17 30.52 593.93 29.52 594.82 28.62 C 595.25 27.71 595.68 26.81 596.12 25.90 C 596.44 25.74 597.09 25.43 597.41 25.28 C 599.35 21.91 601.66 18.77 603.79 15.52 C 604.35 13.88 605.09 12.24 604.99 10.46 C 603.19 7.88 599.93 10.27 597.43 10.13 M 483.69 52.38 C 481.83 53.28 480.04 54.40 479.20 56.37 C 477.23 60.14 473.23 62.39 471.85 66.54 C 477.89 63.22 481.63 57.11 485.95 51.94 C 485.79 51.43 485.47 50.41 485.31 49.90 C 484.76 50.72 484.22 51.55 483.69 52.38 M 120.16 61.40 C 118.62 64.38 116.62 67.10 115.18 70.13 C 113.93 72.82 111.48 75.02 111.48 78.17 C 114.00 74.84 116.83 71.75 119.37 68.43 C 121.66 65.57 123.30 62.27 125.33 59.23 C 126.07 57.92 127.73 56.10 126.00 54.80 C 123.35 56.20 122.00 59.14 120.16 61.40 M 508.50 58.36 C 508.70 59.79 509.44 61.47 507.68 62.26 C 507.72 65.18 505.90 67.90 506.49 70.80 C 505.63 72.07 504.77 73.34 503.93 74.62 C 502.65 79.41 497.65 82.58 497.57 87.88 C 496.05 87.86 494.53 87.94 493.02 87.87 C 491.37 87.36 491.97 85.55 492.37 84.35 C 493.73 80.70 495.49 77.13 498.08 74.18 C 497.11 73.49 496.15 72.79 495.20 72.11 C 491.84 74.17 488.42 76.12 485.03 78.13 C 482.34 79.73 481.32 83.45 478.02 84.05 C 474.08 86.22 470.84 89.41 467.13 91.92 C 464.96 91.46 462.70 91.17 460.66 90.27 C 459.19 88.78 458.27 86.88 458.05 84.80 C 458.07 84.02 458.11 82.47 458.13 81.69 C 456.53 82.99 455.13 84.50 453.57 85.84 C 449.52 86.62 446.42 89.50 442.50 90.70 C 438.18 92.55 433.27 90.13 431.18 86.14 C 430.59 86.90 430.01 87.67 429.44 88.44 C 428.10 88.63 426.76 88.87 425.47 89.27 C 424.45 89.40 423.45 89.56 422.46 89.74 C 419.97 88.82 417.47 87.95 415.01 86.97 C 415.00 86.03 414.98 84.16 414.97 83.22 C 413.28 84.45 411.62 85.72 409.86 86.85 C 408.44 88.20 407.13 89.65 405.82 91.11 C 404.08 91.51 402.56 92.45 401.10 93.43 C 399.58 93.46 398.06 93.50 396.54 93.53 C 396.18 93.16 395.47 92.41 395.11 92.03 C 394.33 92.04 392.78 92.05 392.00 92.05 C 391.65 90.70 391.34 89.34 391.08 87.98 C 387.58 90.74 383.27 90.68 379.13 91.36 C 377.21 90.40 375.46 89.17 373.86 87.75 C 372.60 89.48 371.48 91.30 370.37 93.12 C 369.09 92.56 367.90 91.81 366.68 91.15 C 367.36 89.94 368.05 88.74 368.77 87.55 C 369.20 86.39 369.65 85.23 370.11 84.07 C 369.69 84.35 368.85 84.91 368.43 85.19 C 366.88 88.42 363.09 89.31 360.71 91.72 C 359.85 92.65 358.89 93.47 357.59 93.69 C 355.54 95.73 353.30 97.75 350.46 98.56 C 347.99 99.71 345.29 102.20 342.50 100.45 C 341.19 99.52 339.93 98.52 338.68 97.52 C 338.85 95.07 339.44 92.69 340.15 90.35 C 343.76 87.13 345.73 82.58 349.24 79.28 C 350.09 78.34 351.14 77.37 351.04 75.97 C 349.55 75.83 348.33 76.59 347.16 77.38 C 344.56 76.84 341.51 76.28 339.25 78.05 C 335.67 81.56 332.22 85.20 328.75 88.81 C 326.58 89.92 324.68 91.50 322.36 92.29 C 321.35 92.88 320.36 93.49 319.37 94.11 C 318.84 93.91 317.76 93.53 317.23 93.33 C 316.82 93.86 315.99 94.91 315.58 95.44 C 314.63 95.59 313.68 95.74 312.74 95.89 C 311.63 95.47 310.52 95.10 309.38 94.78 C 308.81 94.53 307.68 94.05 307.11 93.81 C 306.83 93.22 306.29 92.04 306.02 91.46 C 306.26 91.22 306.74 90.74 306.98 90.50 C 306.56 90.14 305.74 89.42 305.32 89.06 C 304.75 89.93 304.18 90.80 303.62 91.67 C 300.98 92.12 298.49 93.17 296.37 94.81 C 294.88 95.16 293.40 95.51 291.91 95.82 C 290.57 96.50 289.14 96.98 287.72 97.45 C 284.45 96.95 279.83 97.19 278.74 93.19 C 277.27 90.93 278.83 88.46 279.34 86.16 C 279.25 86.00 279.08 85.70 278.99 85.54 C 276.47 86.70 271.94 88.22 274.44 91.80 L 273.80 92.15 C 274.40 95.10 275.45 97.91 276.81 100.59 C 279.13 103.94 282.21 106.78 285.99 108.39 C 290.56 110.44 295.00 113.59 300.26 113.09 C 300.64 113.28 301.41 113.67 301.79 113.87 C 315.36 115.20 329.17 114.42 342.50 111.75 C 347.69 110.50 353.15 110.22 358.47 109.49 C 360.92 108.76 363.42 108.02 366.01 108.13 C 371.18 108.09 376.32 107.37 381.45 106.73 C 383.12 106.23 384.84 105.95 386.57 105.67 C 389.57 105.23 392.61 105.42 395.64 105.29 C 397.20 104.94 398.79 104.72 400.39 104.53 C 402.37 104.01 404.43 103.95 406.47 103.68 C 408.20 103.99 410.05 104.24 411.69 103.36 C 420.12 102.87 428.54 102.08 437.00 102.01 C 438.62 102.17 440.15 101.66 441.59 100.95 C 441.93 101.21 442.59 101.73 442.93 101.99 C 444.23 101.98 445.54 101.99 446.85 102.00 C 447.20 101.63 447.88 100.90 448.22 100.53 C 448.64 100.86 449.49 101.53 449.91 101.86 C 455.10 101.95 460.30 101.94 465.50 102.10 C 472.25 102.12 479.06 103.64 485.75 102.76 C 486.96 103.00 488.17 103.23 489.39 103.44 C 490.97 104.04 492.68 103.99 494.35 104.01 C 495.78 102.61 496.86 102.84 497.36 104.70 C 498.72 104.98 500.08 105.27 501.45 105.58 C 513.29 90.53 527.23 77.24 538.77 61.95 C 535.27 61.59 531.82 63.04 528.37 62.25 C 528.10 62.35 527.56 62.56 527.29 62.66 C 526.95 62.26 526.28 61.46 525.94 61.07 C 521.25 62.29 516.66 60.16 512.44 58.36 C 511.12 58.36 509.80 58.36 508.50 58.36 M 420.62 61.03 C 420.12 62.72 420.64 63.31 422.18 62.79 C 422.68 61.12 422.16 60.53 420.62 61.03 M 460.77 63.46 C 460.41 64.13 460.06 64.79 459.73 65.46 C 461.67 65.44 463.62 65.40 465.58 65.36 C 465.83 64.20 466.09 63.03 466.34 61.87 C 464.51 62.52 462.66 63.08 460.77 63.46 M 407.54 71.71 C 405.98 72.74 404.59 74.01 403.65 75.64 C 399.56 79.31 397.82 84.61 395.74 89.52 C 396.65 89.94 397.58 90.36 398.50 90.79 C 399.84 90.13 401.22 89.52 402.52 88.77 C 403.86 88.09 405.21 87.42 406.59 86.79 C 409.18 84.64 411.66 82.37 414.06 80.00 C 416.91 77.94 417.61 74.30 419.58 71.54 C 420.00 70.18 419.91 68.76 419.64 67.37 C 419.15 64.93 417.22 64.36 414.98 64.60 C 413.69 68.10 409.95 69.20 407.54 71.71 M 82.48 68.45 C 80.76 70.40 78.96 72.29 77.36 74.35 C 72.24 80.13 68.02 86.61 62.65 92.18 C 65.81 93.07 67.41 89.21 69.69 87.72 C 71.73 83.90 76.07 81.91 77.80 77.88 C 79.61 74.57 81.29 71.16 83.67 68.20 C 83.37 68.26 82.78 68.38 82.48 68.45 M 456.50 68.11 C 452.12 70.89 448.58 74.82 443.87 77.10 C 441.53 79.35 438.81 81.29 437.01 84.04 C 437.08 85.21 437.21 86.39 437.38 87.56 C 438.79 87.70 440.25 88.03 441.62 87.43 C 443.42 87.02 445.11 86.29 446.52 85.08 C 446.99 85.03 447.93 84.94 448.40 84.89 C 452.14 82.54 456.08 80.40 459.30 77.33 C 460.48 74.15 462.24 71.23 463.61 68.13 C 461.30 67.67 458.73 67.03 456.50 68.11 M 227.64 76.58 C 230.35 75.10 232.13 72.35 233.32 69.58 C 229.90 70.23 229.01 73.92 227.64 76.58 M 149.42 83.47 C 148.20 84.89 146.99 86.37 146.56 88.25 C 148.17 87.25 149.79 86.26 151.54 85.54 C 155.20 82.89 158.58 79.86 161.29 76.21 C 160.54 75.77 159.77 75.37 158.98 75.01 C 154.72 76.23 151.69 79.88 149.42 83.47 M 230.49 80.45 C 230.20 81.35 229.91 82.25 229.61 83.16 C 230.62 83.46 231.63 83.76 232.65 84.06 C 234.99 81.78 234.52 78.41 234.54 75.46 C 233.09 77.04 231.86 78.81 230.49 80.45 M 57.68 98.00 C 60.60 97.72 61.88 94.69 63.47 92.65 C 61.12 93.95 59.18 95.79 57.68 98.00 Z"
       id="path3007" />
    <path
       fill="#010101"
       opacity="1.00"
       d=" M 517.27 103.24 C 517.85 103.84 517.85 103.84 517.27 103.24 Z"
       id="path3009" />
  </g>
</svg>
