<?xml version="1.0" encoding="UTF-8" standalone="no"?>
<svg
   xmlns:dc="http://purl.org/dc/elements/1.1/"
   xmlns:cc="http://creativecommons.org/ns#"
   xmlns:rdf="http://www.w3.org/1999/02/22-rdf-syntax-ns#"
   xmlns:svg="http://www.w3.org/2000/svg"
   xmlns="http://www.w3.org/2000/svg"
   xmlns:sodipodi="http://sodipodi.sourceforge.net/DTD/sodipodi-0.dtd"
   xmlns:inkscape="http://www.inkscape.org/namespaces/inkscape"
   width="672pt"
   height="269pt"
   viewBox="0 0 672 269"
   version="1.1"
   id="svg2"
   sodipodi:version="0.32"
   inkscape:version="0.46"
   sodipodi:docname="Firma_Frei_Montalva.svg"
   inkscape:output_extension="org.inkscape.output.svg.inkscape">
  <metadata
     id="metadata23">
    <rdf:RDF>
      <cc:Work
         rdf:about="">
        <dc:format>image/svg+xml</dc:format>
        <dc:type
           rdf:resource="http://purl.org/dc/dcmitype/StillImage" />
      </cc:Work>
    </rdf:RDF>
  </metadata>
  <defs
     id="defs21">
    <inkscape:perspective
       sodipodi:type="inkscape:persp3d"
       inkscape:vp_x="0 : 168.125 : 1"
       inkscape:vp_y="0 : 1000 : 0"
       inkscape:vp_z="840 : 168.125 : 1"
       inkscape:persp3d-origin="420 : 112.08333 : 1"
       id="perspective25" />
  </defs>
  <sodipodi:namedview
     inkscape:window-height="753"
     inkscape:window-width="1280"
     inkscape:pageshadow="2"
     inkscape:pageopacity="0.0"
     guidetolerance="10.0"
     gridtolerance="10.0"
     objecttolerance="10.0"
     borderopacity="1.0"
     bordercolor="#666666"
     pagecolor="#ffffff"
     id="base"
     showgrid="false"
     inkscape:zoom="0.46191624"
     inkscape:cx="1017.0079"
     inkscape:cy="207.52436"
     inkscape:window-x="-4"
     inkscape:window-y="-4"
     inkscape:current-layer="svg2" />
  <g
     id="#ffffffff" />
  <g
     id="#020202ff"
     style="fill:#000000">
    <path
       fill="#020202"
       opacity="1.00"
       d=" M 652.33 31.38 C 656.97 25.91 660.58 19.69 664.71 13.85 C 664.64 16.70 664.96 19.82 663.36 22.34 C 648.62 38.67 635.11 56.12 620.25 72.37 C 608.15 87.88 594.97 102.51 582.90 118.05 C 565.28 139.76 547.80 161.57 530.14 183.25 C 520.69 195.46 510.44 207.02 500.65 218.93 C 492.12 231.66 482.45 243.68 471.62 254.54 C 469.82 256.30 467.90 258.30 465.31 258.76 C 476.33 250.28 484.63 238.91 492.45 227.56 C 516.94 197.02 541.56 166.58 566.08 136.07 C 576.26 123.55 586.09 110.74 596.60 98.50 C 610.30 82.18 624.38 66.14 637.06 49.00 C 632.92 50.09 629.89 53.18 626.54 55.62 C 620.07 60.56 613.16 64.90 606.25 69.18 C 596.21 75.15 586.58 81.88 575.87 86.65 C 568.42 89.84 561.15 93.73 553.10 95.20 C 548.82 96.03 544.62 97.19 540.40 98.24 C 535.95 99.04 531.39 98.73 526.90 98.65 C 523.60 98.70 521.46 93.74 518.04 96.20 C 511.34 99.38 502.59 101.82 496.22 96.66 C 491.04 100.62 484.25 99.80 478.17 99.45 C 477.56 94.69 480.66 90.29 485.11 88.79 C 483.78 91.80 482.02 94.59 480.33 97.39 C 488.47 100.23 496.02 94.15 501.93 89.25 C 501.45 91.58 500.93 93.90 500.45 96.23 C 510.37 99.56 519.52 92.80 527.92 88.44 C 526.71 90.83 525.43 93.17 524.13 95.50 C 525.98 96.14 527.90 96.73 529.89 96.65 C 546.22 96.80 562.16 91.81 576.82 84.95 C 587.03 80.18 596.47 73.98 605.97 67.96 C 616.99 61.25 627.26 53.39 637.26 45.26 C 642.37 40.73 648.00 36.72 652.33 31.38 Z"
       id="path6"
       style="fill:#000000" />
    <path
       fill="#020202"
       opacity="1.00"
       d=" M 464.88 39.61 C 475.04 38.46 484.78 34.71 495.00 34.21 C 493.13 36.18 491.02 38.44 488.08 38.42 C 481.49 38.48 474.96 39.42 468.44 40.29 C 463.31 41.73 457.87 41.35 452.87 43.28 C 442.85 44.08 433.11 46.88 423.09 47.68 C 419.02 47.96 415.11 49.17 411.06 49.52 C 402.60 49.73 394.50 52.64 386.05 52.88 C 375.44 54.67 364.81 56.23 354.15 57.65 C 353.45 57.11 352.75 56.57 352.06 56.02 C 361.98 55.20 371.79 53.31 381.64 51.86 C 392.68 50.93 403.53 48.60 414.50 47.13 C 431.28 44.48 448.13 42.40 464.88 39.61 Z"
       id="path8"
       style="fill:#000000" />
    <path
       fill="#020202"
       opacity="1.00"
       d=" M 328.92 58.31 C 336.18 57.30 343.54 57.46 350.79 56.29 C 351.51 56.84 352.24 57.39 352.97 57.94 C 343.51 59.79 333.80 59.39 324.42 61.71 C 324.43 62.55 324.46 64.24 324.47 65.09 C 330.29 71.64 335.52 79.21 337.05 88.01 C 338.01 94.61 339.32 101.39 337.76 108.01 C 342.93 105.52 347.27 101.63 352.50 99.27 C 355.58 97.76 359.11 98.32 362.41 98.50 C 362.46 99.45 362.57 101.37 362.62 102.33 C 355.87 107.12 347.84 109.49 339.93 111.52 C 337.80 111.89 336.42 113.64 334.96 115.05 C 331.68 118.37 328.58 122.06 324.38 124.26 C 324.07 120.39 324.58 116.53 325.58 112.79 C 320.91 112.97 316.34 111.94 311.94 110.50 C 303.40 114.63 298.64 124.00 289.51 127.17 C 289.51 126.13 289.52 124.06 289.53 123.02 C 283.07 124.16 276.91 127.54 270.18 126.49 C 270.50 124.79 270.24 122.84 271.50 121.47 C 278.38 112.42 287.48 105.09 293.02 95.04 C 293.93 93.52 294.32 91.78 294.65 90.07 C 279.12 100.52 267.19 115.47 251.41 125.61 C 249.18 127.10 246.56 127.73 243.97 128.19 C 244.55 126.20 245.14 124.20 245.73 122.21 C 239.82 124.35 234.45 128.28 228.02 128.69 C 224.81 129.06 222.18 126.55 219.07 126.42 C 214.62 127.19 210.54 129.61 205.95 129.70 C 203.20 129.98 201.09 127.91 198.95 126.56 C 194.11 128.73 189.34 131.18 184.18 132.50 C 181.03 133.42 178.00 132.00 174.97 131.42 C 168.98 133.22 162.73 134.45 156.45 133.49 C 154.51 132.40 152.89 130.85 151.17 129.46 C 145.47 132.55 139.22 135.15 132.59 134.75 C 131.79 132.91 130.97 131.08 130.17 129.25 C 126.09 130.59 122.26 132.55 118.39 134.40 C 114.58 136.30 110.21 135.68 106.11 135.63 C 105.70 126.75 116.12 124.07 119.01 116.76 C 116.63 116.71 114.25 116.71 111.87 116.72 C 106.26 126.14 98.89 134.59 89.98 141.01 C 87.62 142.33 84.68 144.24 81.94 143.10 C 78.56 140.69 81.55 136.27 81.79 133.08 C 73.14 136.90 64.54 141.34 55.09 142.75 C 52.12 143.22 49.52 141.47 47.04 140.14 C 51.06 133.19 58.87 130.15 64.27 124.55 C 55.02 124.45 48.02 132.30 38.87 132.95 C 48.48 128.40 58.00 123.27 68.49 121.05 C 68.49 122.01 68.50 123.94 68.50 124.91 C 62.02 129.72 55.08 134.12 49.82 140.33 C 62.20 141.69 73.71 135.86 84.31 130.23 C 88.59 128.20 92.37 124.86 97.21 124.23 C 92.59 129.11 86.29 132.26 82.56 138.03 C 82.54 138.97 82.50 140.84 82.48 141.77 C 84.67 141.49 86.94 141.16 88.83 139.91 C 96.25 135.18 102.39 128.67 107.35 121.45 C 109.29 118.71 110.45 115.49 110.72 112.14 C 113.78 114.99 118.09 114.65 121.95 114.42 C 122.04 116.73 121.45 119.09 119.69 120.71 C 115.45 124.87 111.11 128.93 107.11 133.33 C 109.29 134.11 111.64 134.85 113.91 133.90 C 120.37 131.89 126.78 129.20 132.30 125.26 C 135.66 120.78 140.00 116.35 145.99 116.07 C 143.04 119.82 139.00 122.44 135.50 125.61 C 133.38 127.28 133.60 130.20 133.38 132.61 C 139.45 132.71 145.38 130.71 150.46 127.46 C 154.05 125.12 155.17 120.28 159.13 118.37 C 161.26 117.04 163.85 117.39 166.23 117.43 C 163.40 121.46 159.01 123.88 155.28 126.95 C 155.47 128.36 155.66 129.77 155.87 131.18 C 161.80 133.78 168.09 131.41 173.99 130.01 C 176.65 129.64 177.79 126.95 179.16 125.01 C 184.48 116.49 194.71 111.66 204.66 112.32 C 204.63 113.34 204.60 114.36 204.57 115.38 C 197.35 122.12 187.91 125.36 179.40 130.06 C 180.05 130.40 181.34 131.08 181.99 131.42 C 189.69 128.44 198.54 126.77 204.23 120.27 C 206.61 117.45 210.09 116.02 213.56 115.04 C 213.50 115.78 213.38 117.27 213.32 118.01 C 210.02 119.81 206.71 121.61 203.85 124.07 C 203.70 124.96 203.39 126.75 203.24 127.64 C 208.01 127.54 212.78 126.59 217.09 124.47 C 221.46 122.98 222.89 117.96 226.76 115.74 C 228.96 114.00 231.86 114.35 234.47 114.36 C 234.49 115.36 234.51 116.37 234.52 117.37 C 230.57 119.72 226.28 121.80 223.04 125.10 C 224.61 125.73 226.27 126.26 227.98 126.31 C 237.93 124.60 246.59 119.15 255.56 114.89 C 255.62 115.68 255.73 117.27 255.79 118.06 C 253.40 119.82 250.83 121.39 248.83 123.61 C 250.25 124.02 251.77 124.03 252.80 122.80 C 262.54 114.93 271.91 106.64 280.98 98.01 C 286.23 93.70 290.80 88.12 297.47 85.98 C 297.45 88.54 297.83 91.29 296.52 93.62 C 291.12 105.49 280.15 113.27 272.67 123.61 C 274.41 123.86 276.20 124.65 277.97 124.13 C 285.14 122.40 291.62 118.75 297.91 115.01 C 299.48 113.96 301.44 114.53 303.20 114.50 C 305.50 112.41 307.45 109.94 309.93 108.07 C 314.09 108.13 317.87 110.36 322.04 110.31 C 326.09 110.36 330.13 110.23 334.18 110.30 C 335.00 108.96 336.02 107.65 336.21 106.03 C 336.91 97.29 336.28 88.33 333.16 80.07 C 329.99 73.00 323.65 68.08 319.98 61.36 C 322.75 59.83 325.71 58.48 328.92 58.31 M 343.71 107.90 C 349.91 108.47 355.40 105.11 360.39 101.87 C 354.16 98.29 347.91 103.66 343.71 107.90 M 328.35 111.93 C 328.29 114.34 328.21 116.75 328.10 119.16 C 329.95 117.22 331.86 115.35 333.80 113.49 C 331.98 112.97 330.17 112.42 328.35 111.93 M 188.11 119.06 C 185.41 121.23 182.09 123.47 181.79 127.26 C 188.81 124.36 196.58 121.64 201.39 115.40 C 196.67 114.78 191.87 116.19 188.11 119.06 Z"
       id="path10"
       style="fill:#000000" />
    <path
       fill="#020202"
       opacity="1.00"
       d=" M 116.82 84.95 C 122.74 81.56 128.56 77.73 135.26 76.05 C 133.67 77.53 131.82 78.69 129.90 79.67 C 120.38 84.47 111.42 90.33 101.76 94.85 C 91.70 100.61 80.97 105.12 71.02 111.07 C 62.76 116.09 53.82 119.98 46.01 125.74 C 40.87 128.83 35.41 131.49 31.07 135.75 C 33.76 135.00 36.47 134.28 39.26 133.99 C 29.19 139.51 19.29 145.45 8.71 149.98 C 11.52 145.24 16.88 143.22 21.06 139.98 C 51.25 118.74 84.62 102.79 116.82 84.95 Z"
       id="path12"
       style="fill:#000000" />
    <path
       fill="#020202"
       opacity="1.00"
       d=" M 462.12 76.49 C 462.75 76.49 464.03 76.50 464.67 76.51 C 464.67 79.35 464.56 82.20 464.36 85.03 C 463.41 82.24 462.70 79.37 462.12 76.49 Z"
       id="path14"
       style="fill:#000000" />
    <path
       fill="#020202"
       opacity="1.00"
       d=" M 429.19 89.08 C 431.67 87.89 434.33 89.13 436.85 89.52 C 436.98 91.63 436.82 93.85 435.56 95.63 C 431.79 101.58 424.97 104.28 419.75 108.64 C 425.66 110.45 432.20 109.77 437.91 107.57 C 443.07 105.49 447.57 102.16 452.16 99.08 C 451.20 102.00 449.79 104.73 448.31 107.41 C 450.97 109.01 454.02 109.63 457.00 110.38 C 454.47 110.54 451.94 110.70 449.41 110.73 C 448.30 109.51 447.18 108.30 446.06 107.09 C 439.88 108.46 434.11 111.23 427.90 112.39 C 422.67 113.47 418.08 108.21 412.91 110.26 C 407.33 111.94 400.94 112.73 395.46 110.40 C 392.06 109.02 392.15 105.07 392.18 102.01 C 386.43 102.91 382.82 107.91 381.49 113.22 C 381.43 110.93 381.30 108.63 381.30 106.34 C 387.39 101.17 394.64 97.67 401.71 94.05 C 402.36 97.37 398.64 97.94 396.95 99.93 C 394.00 102.32 393.00 108.50 397.55 109.65 C 403.75 111.59 410.28 109.15 416.34 107.64 C 417.00 99.83 421.45 91.73 429.19 89.08 M 419.10 106.25 C 425.75 103.42 433.78 99.04 435.04 91.19 C 426.64 90.35 418.65 97.76 419.10 106.25 Z"
       id="path16"
       style="fill:#000000" />
    <path
       fill="#020202"
       opacity="1.00"
       d=" M 381.09 139.76 C 400.54 138.24 419.81 133.60 439.40 134.57 C 439.41 135.66 439.43 137.82 439.43 138.90 C 435.66 138.15 431.80 137.04 427.96 137.92 C 422.73 139.01 417.39 138.31 412.12 138.69 C 404.45 139.58 396.73 140.01 389.13 141.40 C 381.66 141.67 374.44 143.78 366.97 144.02 C 354.99 146.10 342.72 145.74 330.84 148.35 C 325.80 148.66 320.79 149.23 315.84 150.21 C 302.94 151.42 289.98 152.21 277.08 153.46 C 269.38 153.75 261.66 153.43 254.03 154.68 C 244.44 154.17 234.99 156.01 225.47 156.70 C 225.48 155.65 225.50 154.61 225.52 153.57 C 239.33 152.66 253.10 150.99 266.96 151.36 C 275.97 150.49 285.05 150.55 294.04 149.45 C 309.00 148.06 323.94 146.37 338.93 145.34 C 343.00 145.09 346.93 143.80 351.00 143.55 C 361.12 143.07 371.01 140.64 381.09 139.76 Z"
       id="path18"
       style="fill:#000000" />
  </g>
</svg>
