<?xml version="1.0" encoding="UTF-8" standalone="no"?>
<svg
   xmlns:dc="http://purl.org/dc/elements/1.1/"
   xmlns:cc="http://creativecommons.org/ns#"
   xmlns:rdf="http://www.w3.org/1999/02/22-rdf-syntax-ns#"
   xmlns:svg="http://www.w3.org/2000/svg"
   xmlns="http://www.w3.org/2000/svg"
   xmlns:sodipodi="http://sodipodi.sourceforge.net/DTD/sodipodi-0.dtd"
   xmlns:inkscape="http://www.inkscape.org/namespaces/inkscape"
   width="332.20001"
   height="69.199997"
   viewBox="0 0 265.76001 55.359998"
   version="1.1"
   id="svg2"
   inkscape:version="0.47 r22583"
   sodipodi:docname="firmacardlopezt.svg">
  <metadata
     id="metadata41">
    <rdf:RDF>
      <cc:Work
         rdf:about="">
        <dc:format>image/svg+xml</dc:format>
        <dc:type
           rdf:resource="http://purl.org/dc/dcmitype/StillImage" />
      </cc:Work>
    </rdf:RDF>
  </metadata>
  <defs
     id="defs39" />
  <sodipodi:namedview
     pagecolor="#ffffff"
     bordercolor="#666666"
     borderopacity="1"
     objecttolerance="10"
     gridtolerance="10"
     guidetolerance="10"
     inkscape:pageopacity="0"
     inkscape:pageshadow="2"
     inkscape:window-width="1024"
     inkscape:window-height="696"
     id="namedview37"
     showgrid="false"
     inkscape:zoom="2"
     inkscape:cx="147.72146"
     inkscape:cy="41.09269"
     inkscape:window-x="0"
     inkscape:window-y="25"
     inkscape:window-maximized="1"
     inkscape:current-layer="svg2"
     inkscape:snap-nodes="false" />
  <g
     id="#4852fcff"
     transform="matrix(1.44,0,0,1.44,-24.089899,-1.9753379)"
     style="fill:#000000;stroke:none">
    <path
       d="m 41.190045,6.6074979 c 0.589035,-0.9635207 1.610168,-1.3952878 2.833567,-0.078024 1.732956,2.2405036 3.528784,4.9717561 5.31989,7.6821731 0.468664,0.709212 1.17184,1.856068 0.735445,2.189932 -0.305851,0.202671 -1.283954,-0.243418 -2.138489,-1.352085 -0.992429,-0.216803 -0.418973,0.865251 -1.055175,0.803627 -1.762841,-0.09098 -4.885313,-0.932517 -4.74423,-1.534174 0.275349,-0.948072 5.901254,0.319367 5.239473,-0.618947 -1.65,-2.29 -3.977746,-7.0339049 -4.718272,-6.7196944 -0.561798,0.08991 -0.573535,0.7268792 -0.784753,1.4237413 -0.252926,1.4725637 -0.402833,3.9317171 -1.364413,7.5007121 -1.370538,5.72564 -2.102721,9.975472 -3.02993,9.617873 -0.721207,-0.326753 1.32116,-6.159956 2.501376,-12.251379 0.647104,-2.677785 0.568868,-5.0196126 1.205511,-6.6637551 z"
       id="path5"
       style="fill:#000000;stroke:none"
       sodipodi:nodetypes="ccsccccccccccc" />
    <path
       d="m 146.59444,6.3466667 c 0.64524,-0.2578437 0.31066,0.536537 0.56083,1.2253033 0.17921,0.4933968 0.80225,0.6572554 0.31473,1.12803 -0.57333,0.6577778 -2.02383,-1.9854321 -0.87556,-2.3533333 z"
       id="path7"
       style="fill:#000000;stroke:none"
       sodipodi:nodetypes="cscc" />
    <path
       d="m 69.387485,12.753391 c -0.68,-2.9599996 2.976959,-5.8200577 3.518071,-5.5345021 C 73.141041,7.8944612 67.722607,11.453971 72.14,14.85 c 0.735423,1.156447 2.461779,2.14037 3.699356,2.094461 2.296321,-0.08518 4.266991,-2.087362 4.668422,-1.632239 0.44,0.555556 -2.501813,2.445965 -4.251813,3.105965 -2.559474,0.474096 -6.374796,-3.787427 -6.86848,-5.664796 z"
       id="path9"
       style="fill:#000000;stroke:none"
       sodipodi:nodetypes="cccsccc" />
    <path
       d="m 74.165673,7.0459064 c 0.65887,-0.6427697 2.818364,1.4345327 2.620901,3.4232416 -0.110287,1.110729 -2.175104,3.259607 -2.670785,2.908103 -0.59022,-0.319456 1.045829,-1.115944 1.465446,-2.601334 0.636427,-2.2528732 -1.900982,-3.2366446 -1.415562,-3.7300106 z"
       id="path11"
       style="fill:#000000;stroke:none"
       sodipodi:nodetypes="cscsc" />
    <path
       d="m 114.52,6.4578947 c 0.55228,-0.073527 0.45632,4.8696963 1.02278,7.6616253 0.33776,1.664732 1.91221,1.936481 1.42564,2.472059 -0.38864,0.338619 -1.96852,-0.435827 -2.30946,-1.892913 -0.72662,-3.105422 -0.76044,-8.1307842 -0.13896,-8.2407713 z"
       id="path13"
       style="fill:#000000;stroke:none"
       sodipodi:nodetypes="cscsc" />
    <path
       d="m 171.39474,9.3757895 c -0.10703,-0.8627157 4.58593,0.053064 10.12838,-0.4472986 C 187.547,8.3846655 192.5709,6.7667411 198.58,7.24 c 1.3454,0.089586 1.32852,2.5385712 0.0326,2.5357895 -2.25723,0.1217811 -0.0943,-1.0319925 -2.5172,-0.8816211 -5.03687,0.3126049 -11.78759,1.6671206 -17.84164,1.6559266 -2.26855,-0.0042 -6.64981,-0.07362 -6.85905,-1.1743055 z"
       id="path15"
       style="fill:#000000;stroke:none"
       sodipodi:nodetypes="csccssc" />
    <path
       d="m 130.40947,7.8131579 c 0.57949,-0.5205554 2.41622,4.5465761 1.85843,8.0900001 2.07977,0.227475 9.98122,0.08715 9.98122,0.08715 0.37505,-0.09376 0.4493,1.241347 0.16883,1.311466 0,0 -7.62418,0.207692 -10.46797,0.197018 -0.52959,-0.002 -1.14278,1.589065 -1.76998,1.311208 -0.50103,-0.305753 1.21459,-2.655984 1.1881,-4.430548 -0.0729,-4.8800776 -1.61603,-6.2297582 -0.95863,-6.5662941 z"
       id="path17"
       style="fill:#000000;stroke:none"
       sodipodi:nodetypes="ccccscsc" />
    <path
       d="m 153.17421,37.823158 c -0.6608,-0.706105 2.0711,-2.488214 1.99944,-5.180711 -0.0935,-3.512082 -0.75121,-7.691786 -0.96826,-11.733449 -0.15464,-2.879321 -0.0378,-5.738452 -0.0283,-7.742425 0.012,-2.515039 -0.0241,-3.8344675 0.39657,-3.8744677 0.69846,-0.042293 0.62159,4.6130687 0.99141,11.1409837 0.25472,4.496325 1.03371,9.725092 0.67785,13.303939 -0.25165,2.5308 -2.54127,4.458379 -3.06873,4.08613 z"
       id="path19"
       style="fill:#000000;stroke:none"
       sodipodi:nodetypes="cssscssc" />
    <path
       d="m 22.837368,9.5384181 c 1.36016,-0.1196745 1.328348,3.0475099 1.444331,4.9443829 0.542161,0.04154 3.063245,-0.08949 4.662748,-0.199419 1.129401,-0.07762 1.273762,0.02128 1.3045,0.536618 0.04281,0.618019 -0.231796,0.639334 -1.322992,0.712934 -1.667597,0.112477 -3.27264,0.192532 -4.56342,0.324598 -0.07727,1.822963 0.209829,4.9031 -0.630956,4.894047 -1.070904,-0.02123 -0.684096,-3.289648 -0.679896,-4.914083 -0.730661,0.09318 -2.980074,-0.041 -4.439313,0.0131 -0.853574,0.03165 -0.311681,-1.271237 -0.223423,-1.627969 0.371445,-0.459466 1.745832,-0.54923 1.755323,0.520569 0.939641,0.08209 1.831526,0.0086 2.959414,-0.08162 0.01316,-2.567368 -0.921052,-5.0821053 -0.266316,-5.1231579 z"
       id="path21"
       style="fill:#000000;stroke:none"
       sodipodi:nodetypes="ccscscccscccc" />
    <path
       d="m 83.796316,14.925263 c 0.178947,-2.03421 2.949473,-4.010526 4.358421,-3.84 1.910988,0.387531 4.357368,5.627895 5.753684,5.582632 2.09,-1.02 4.350526,-2.962106 5.49579,-2.956842 1.367899,-0.175264 3.841049,2.291052 3.484739,2.744736 -0.34917,0.372839 -2.05748,-1.960772 -3.438754,-1.740871 -1.610055,0.256324 -4.600677,3.395699 -5.819143,3.020267 -1.384737,0.367895 -4.593307,-5.543008 -5.902255,-5.551955 -0.736962,-0.04212 -3.010603,1.590113 -2.768634,3.023484 0.09967,0.590424 1.16106,0.843003 2.124573,1.268023 -0.908948,1.267895 -3.199851,-0.132937 -3.288421,-1.549474 z"
       id="path23"
       style="fill:#000000;stroke:none"
       sodipodi:nodetypes="cccccsccscc" />
    <path
       d="m 185.97263,17.533685 c -1.15579,-1.084211 -1.31211,-5.579474 0.9379,-6.032106 0.72044,0.119058 -0.28066,4.794688 0.44753,5.1404 1.85051,0.878546 3.15399,-0.857221 3.9472,-0.611979 0.48043,0.48422 0.16507,1.400024 -0.83019,1.844671 -1.01382,0.452937 -3.91789,0.38218 -4.50244,-0.340986 z"
       id="path25"
       style="fill:#000000;stroke:none"
       sodipodi:nodetypes="ccscsc" />
    <path
       d="m 106.59789,13.701053 c 2.58579,-2.111053 6.78053,-0.106842 6.53422,0.739473 0.2175,0.567566 -4.6949,-2.173606 -5.88158,0.764737 -0.12842,2.315263 3.96368,1.525263 3.96052,2.241579 -0.061,1.154211 -3.71105,0.361053 -4.55158,-0.366842 -1.06315,-0.743684 -0.88315,-2.635263 -0.0616,-3.378947 z"
       id="path27"
       style="fill:#000000;stroke:none"
       sodipodi:nodetypes="cccccc" />
    <path
       d="m 145.24737,17.442105 c -0.51263,-3.303684 4.44895,-4.755789 6.07421,-3.367894 1.13894,1.028421 0.49316,3.823683 -1.67631,4.651579 -2.02963,0.571962 -3.96585,-0.13501 -4.3979,-1.283685 z M 148.19,14.909998 c -0.90316,0.246316 -2.2032,1.37907 -1.88772,1.912287 0.26088,0.440928 2.93993,0.302767 3.65509,0.004 1.11976,-1.300818 0.0601,-2.863831 -1.76737,-1.916315 z"
       id="path29"
       style="fill:#000000;stroke:none"
       sodipodi:nodetypes="cccccccc" />
    <path
       d="m 157.94105,14.951053 c 0.49211,-0.529474 3.37527,1.885789 3.43158,2.884736 5.3e-4,0.921053 -2.71579,2.862106 -3.26421,1.665264 -0.0109,-0.548291 1.36199,-0.256133 1.27105,-2.021729 -0.0449,-0.872105 -2.35081,-1.749492 -1.43842,-2.528271 z"
       id="path31"
       style="fill:#000000;stroke:none"
       sodipodi:nodetypes="cccsc" />
    <path
       d="m 164.54,18.48 c 0.58947,-0.05526 1.08632,2.340526 1.84632,3.420526 1.90652,-0.184415 3.49407,-0.382055 6.13646,-0.598098 1.82726,-0.149396 6.29098,-0.853019 6.5988,-0.0698 0.19838,0.937075 -2.82544,1.09164 -4.40591,1.327908 -2.61003,0.390178 -5.82913,0.347684 -7.8462,0.498407 0.69157,2.762642 0.97987,5.824549 -0.56796,7.48792 -2.08285,2.238327 -5.56239,3.132854 -6.84098,0.579449 -0.48935,-1.199225 -1.02821,-3.27821 0.5228,-5.764496 0.99927,-1.601831 2.82625,-2.750315 5.01042,-3.228032 C 164.39595,20.854327 163.55832,18.794623 164.54,18.48 m -3.52737,7.188947 c -0.89959,1.970207 -1.15468,3.698714 -0.49842,4.827895 1.06321,1.040251 4.18395,0.39737 5.19318,-1.522706 0.82798,-1.575251 0.56028,-3.37272 0.1305,-5.236768 -2.20315,-0.301579 -3.84,1.023158 -4.82526,1.931579 z"
       id="path33"
       style="fill:#000000;stroke:none"
       sodipodi:nodetypes="ccscscscsccccscc" />
    <path
       d="m 193.54195,19.490208 c 0.61445,-0.484445 1.23956,0.152046 0.65489,0.772424 -0.48099,0.472716 -1.12415,-0.251066 -0.65489,-0.772424 z"
       id="path35"
       style="fill:#000000;stroke:none"
       sodipodi:nodetypes="ccc" />
  </g>
</svg>
