<?xml version="1.0" encoding="UTF-8" standalone="no"?>
<!-- Created with Inkscape (http://www.inkscape.org/) -->

<svg
   xmlns:dc="http://purl.org/dc/elements/1.1/"
   xmlns:cc="http://creativecommons.org/ns#"
   xmlns:rdf="http://www.w3.org/1999/02/22-rdf-syntax-ns#"
   xmlns:svg="http://www.w3.org/2000/svg"
   xmlns="http://www.w3.org/2000/svg"
   xmlns:sodipodi="http://sodipodi.sourceforge.net/DTD/sodipodi-0.dtd"
   xmlns:inkscape="http://www.inkscape.org/namespaces/inkscape"
   width="500.00003"
   height="540.15625"
   viewBox="0 0 500 540.15625"
   id="svg2"
   version="1.1"
   inkscape:version="0.91 r13725"
   sodipodi:docname="Cathy Barriga.svg">
  <defs
     id="defs4" />
  <sodipodi:namedview
     id="base"
     pagecolor="#ffffff"
     bordercolor="#666666"
     borderopacity="1.0"
     inkscape:pageopacity="0.0"
     inkscape:pageshadow="2"
     inkscape:zoom="0.52759596"
     inkscape:cx="219.64548"
     inkscape:cy="524.33675"
     inkscape:document-units="px"
     inkscape:current-layer="layer1"
     showgrid="false"
     inkscape:window-width="1366"
     inkscape:window-height="715"
     inkscape:window-x="-8"
     inkscape:window-y="-8"
     inkscape:window-maximized="1"
     fit-margin-top="5"
     fit-margin-right="5"
     fit-margin-bottom="5"
     fit-margin-left="5"
     units="px" />
  <metadata
     id="metadata7">
    <rdf:RDF>
      <cc:Work
         rdf:about="">
        <dc:format>image/svg+xml</dc:format>
        <dc:type
           rdf:resource="http://purl.org/dc/dcmitype/StillImage" />
        <dc:title></dc:title>
      </cc:Work>
    </rdf:RDF>
  </metadata>
  <g
     inkscape:label="Capa 1"
     inkscape:groupmode="layer"
     id="layer1"
     transform="translate(282.58998,-426.87047)">
    <path
       style="color:#000000;font-style:normal;font-variant:normal;font-weight:normal;font-stretch:normal;font-size:medium;line-height:normal;font-family:sans-serif;text-indent:0;text-align:start;text-decoration:none;text-decoration-line:none;text-decoration-style:solid;text-decoration-color:#000000;letter-spacing:normal;word-spacing:normal;text-transform:none;direction:ltr;block-progression:tb;writing-mode:lr-tb;baseline-shift:baseline;text-anchor:start;white-space:normal;clip-rule:nonzero;display:inline;overflow:visible;visibility:visible;opacity:1;isolation:auto;mix-blend-mode:normal;color-interpolation:sRGB;color-interpolation-filters:linearRGB;solid-color:#000000;solid-opacity:1;fill:#000000;fill-opacity:1;fill-rule:evenodd;stroke:none;stroke-width:3.75;stroke-linecap:round;stroke-linejoin:miter;stroke-miterlimit:4;stroke-dasharray:none;stroke-dashoffset:0;stroke-opacity:1;color-rendering:auto;image-rendering:auto;shape-rendering:auto;text-rendering:auto;enable-background:accumulate"
       d="m 89.28287,431.87054 a 1.6843585,1.6843585 0 0 0 -0.610524,0.10877 c 0,0 -79.0479772,28.84765 -191.392416,102.57596 -0.43364,-2.28848 -0.88916,-4.62634 -1.33156,-6.69992 -0.54586,-2.55852 -1.02681,-4.62704 -1.507,-5.91046 -0.12005,-0.32086 -0.2155,-0.58475 -0.4614,-0.93858 -0.12295,-0.17693 -0.264,-0.41356 -0.72631,-0.65087 -0.46232,-0.23732 -1.45013,-0.17826 -1.90699,0.17894 -0.91372,0.71444 -0.71288,1.09813 -0.77367,1.45963 -0.0608,0.36151 -0.0865,0.7408 -0.10176,1.21752 -0.18032,5.644 -0.21332,10.85494 -0.11755,15.94367 -33.68554,22.46659 -62.62125,44.40193 -86.50596,63.97993 -1.53622,-4.65611 -3.59256,-9.10249 -6.31045,-13.2051 -2.02081,-3.05037 -4.8178,-6.39354 -8.12446,-8.8613 -3.30666,-2.46775 -7.25241,-4.12073 -11.32969,-3.22452 -6.01703,1.32257 -10.35752,6.0075 -13.3665,11.55073 -3.00899,5.54324 -4.77712,12.05275 -5.6245,17.63663 -1.97552,13.01785 -1.9246,24.56567 -0.8877,35.88027 -23.23413,21.61325 -35.34695,35.27151 -35.34695,35.27151 a 1.6843585,1.6843585 0 1 0 2.52102,2.2333 c 0,0 11.38506,-12.83879 33.25399,-33.30661 0.62048,5.52638 1.44596,11.03327 2.35786,16.66647 3.0992,19.14497 6.66774,33.28163 16.54191,55.99405 3.83352,8.81781 11.96158,16.58111 21.29448,19.26643 9.8429,2.83206 21.4717,0.44856 29.84349,-5.28238 10.91507,-7.47197 16.8944,-20.84486 20.25765,-33.16453 1.18624,-4.3452 1.95177,-8.83439 2.45261,-13.37351 0.36266,-0.11825 0.75726,-0.15473 1.10349,-0.30877 1.35193,-0.60153 2.54215,-1.45094 3.66137,-2.37014 2.01565,1.0484 4.18408,1.80327 6.54377,1.48594 3.3549,-0.45117 6.06252,-2.49015 8.20692,-4.9438 2.14439,-2.45366 3.79333,-5.38061 5.08064,-7.98236 2.05138,-4.14604 3.4405,-8.59836 4.53854,-13.1437 0.80291,0.39002 1.65372,0.69096 2.59471,0.8035 3.63965,0.43528 7.00257,-1.25937 9.72444,-3.62101 2.72188,-2.36164 4.9044,-5.44682 6.3315,-8.34552 2.084158,-4.23328 3.574461,-8.69795 4.780645,-13.25071 1.253774,2.971 2.736336,5.73664 4.554331,8.13675 1.905833,2.51604 4.89012,3.84805 7.970081,4.37714 3.079956,0.52908 6.316957,0.27745 9.0648,-0.63684 9.980253,-3.32078 14.938414,-14.18017 19.855901,-22.19622 1.695104,-2.76321 3.234383,-5.6171 4.659593,-8.52972 0.928351,5.10879 2.07075,10.1731 3.673637,15.11735 3.385757,10.44367 8.25508,21.13159 16.201558,29.0979 12.058005,12.08811 29.72963401,15.73219 43.252107,24.24182 4.978966,3.13322 10.749721,5.46403 15.773496,8.25253 5.023776,2.78849 9.217792,5.96866 11.394596,10.61916 4.107732,8.77571 3.625434,21.80994 -2.314004,29.18387 -4.88658,6.06676 -12.409973,10.23247 -20.594488,13.61386 -0.08369,-3.38282 -0.179871,-6.76576 -0.419292,-10.15075 -0.487463,-6.89183 0.348824,-15.6612 -4.810468,-21.81026 -3.0645616,-3.65249 -8.0901795,-5.06628 -12.48932252,-5.13152 -7.47040658,-0.11082 -13.97044448,4.18585 -19.89625448,7.24552 -10.465725,5.40377 -17.753653,9.96333 -26.382133,9.91918 -0.679181,-0.004 -1.450732,-0.43845 -2.233308,-1.33332 -0.782576,-0.89485 -1.471923,-2.16837 -1.887694,-3.26486 -2.177044,-5.74141 0.200686,-12.88843 1.352614,-19.98047 0.409845,-2.52327 0.986049,-5.11002 0.836834,-7.59815 -0.149221,-2.48813 -1.365334,-5.06141 -4.103464,-6.31396 -1.669012,-0.76349 -3.468327,-0.4043 -5.1666,0.30176 -1.698274,0.70603 -3.421604,1.82914 -5.149063,3.15433 -3.454918,2.65041 -6.894366,6.13188 -9.329712,8.80342 -8.612662,9.44796 -12.495198,15.77272 -19.154152,22.98216 -8.875718,9.60946 -28.336498,27.70493 -28.336498,27.70493 a 1.6843585,1.6843585 0 0 0 0.41754,2.75261 c 0,0 10.17286,4.94287 16.11208,6.43149 13.110741,3.28609 26.755928,4.61659 40.225833,4.47363 20.898492,-0.2218 42.29091,-1.98307 62.39398011,-8.28938 4.74939089,-1.48987 9.75885439,-3.14144 14.73666189,-4.95782 0.128594,28.94605 -4.6840525,58.06504 -7.4420123,87.20947 -2.1356541,22.56819 -4.6011249,42.6565 -8.2016548,67.51145 -1.5324136,10.57845 -3.7866635,22.11022 -0.5806959,32.93645 2.28645209,7.72112 6.160259,17.03589 14.191052,20.64185 11.181488,5.02068 24.176506,-0.70302 34.724142,-4.36661 11.188333,-3.88611 21.001209,-10.89108 30.164551,-17.94539 11.440697,-8.80751 20.245166,-20.2628 30.445243,-29.79438 24.70186,-23.08296 48.48202,-43.38005 75.77277,-67.56409 8.80003,-7.79828 17.08061,-16.66454 23.08042,-26.94353 5.85716,-10.03462 6.09993,-21.20502 6.09993,-21.20502 a 1.6847657,1.6847657 0 0 0 -3.36839,-0.0877 c 0,0 -0.31525,10.47157 -5.64028,19.59452 -5.7441,9.84091 -13.76938,18.46815 -22.40499,26.12073 -27.26391,24.16027 -51.06935,44.47703 -75.83943,67.62373 -10.471323,9.78506 -19.221996,21.13634 -30.199633,29.58736 -9.093435,7.00049 -18.63915,13.75784 -29.215441,17.43137 -10.720474,3.72361 -22.880671,8.67882 -32.238205,4.47714 C 7.1484559,954.13015 3.3521605,945.8563 1.1611256,938.45739 -1.7326814,928.6853 0.2978938,917.64167 1.845329,906.95953 c 3.6061698,-24.89384 6.0817976,-45.05263 8.222704,-67.67638 2.783017,-29.40912 7.765765,-59.075 7.471841,-88.83926 8.934435,-3.54645 17.413568,-8.04666 23.117264,-15.12789 7.048373,-8.75069 7.410076,-22.74775 2.74032,-32.72417 -2.628008,-5.6144 -7.535699,-9.20893 -12.810376,-12.13669 -5.274676,-2.92776 -11.000319,-5.25453 -15.613843,-8.1578 -14.24329803,-8.96323 -31.550444,-12.6317 -42.660886,-23.76989 -7.364296,-7.38267 -12.083935,-17.57815 -15.384023,-27.75756 -2.084129,-6.42868 -3.372972,-13.10996 -4.335035,-19.86818 3.13259,-7.39892 5.631253,-15.07415 7.527977,-22.79972 5.86315,-23.88124 5.874981,-46.19789 7.62447,-72.93771 0.107621,-1.64497 0.391367,-4.90543 0.314029,-7.52097 -0.03864,-1.30776 -0.04436,-2.3758 -0.608764,-3.49995 -0.141099,-0.28103 -0.334859,-0.58936 -0.685953,-0.87016 -0.351096,-0.28082 -0.904919,-0.4882 -1.414018,-0.46842 -1.0182,0.0395 -1.54448,0.58969 -1.998225,1.10525 -4.460388,5.06797 -6.550115,13.45526 -8.389371,20.26291 -4.797747,17.75796 -7.464118,36.25938 -7.638502,54.66776 -0.09915,10.4659 0.367041,21.11256 1.794716,31.60839 -1.941736,4.48685 -4.065458,8.87891 -6.599921,13.01037 -5.067912,8.26125 -9.908064,18.05301 -18.047153,20.76115 -2.15037,0.71551 -4.934636,0.94294 -7.431487,0.51403 -2.496848,-0.42892 -4.644925,-1.49226 -5.856068,-3.0912 -2.54536,-3.36036 -4.347342,-7.85397 -5.840281,-12.67703 1.701506,-9.28736 2.167231,-18.84241 1.757874,-28.07334 -0.91479,-20.6283 -4.521445,-37.18404 -8.236738,-57.71158 -0.22108,-1.22146 -0.57736,-3.17226 -0.91754,-5.02976 0.32238,-0.21214 0.63291,-0.42287 0.95613,-0.63509 C 11.100193,463.855 89.826724,435.14418 89.826714,435.14418 a 1.6843585,1.6843585 0 0 0 -0.543844,-3.27364 z m -124.598494,76.08505 c 0.04675,2.26148 -0.190421,5.3128 -0.299998,6.98763 -1.757283,26.85893 -1.787795,48.94804 -7.534995,72.35701 -1.400547,5.70459 -3.131835,11.36283 -5.173623,16.88752 -0.825288,-8.39329 -1.062203,-16.89594 -0.982445,-25.31549 0.17151,-18.10438 2.796674,-36.32785 7.522719,-53.8204 1.6148,-5.97688 3.631201,-12.77056 6.468342,-17.09627 z m -70.918436,26.44353 c 0.15509,0.81503 0.26223,1.38183 0.42104,2.20876 -0.13336,0.0881 -0.26502,0.175 -0.39824,0.26314 -0.007,-0.82396 -0.0202,-1.64232 -0.0228,-2.4719 z m 1.10349,5.79818 c 0.22687,1.18812 0.53654,2.77803 0.68245,3.58416 3.7267,20.59054 7.284917,36.94453 8.185866,57.26071 0.28558,6.43975 0.06638,13.00177 -0.587712,19.48748 -0.950181,-4.52418 -1.751697,-9.11426 -2.378918,-13.48405 -2.700636,-18.81507 -5.086076,-34.41114 -6.305186,-51.68007 -0.34488,-4.88526 -0.5298,-9.66494 -0.6228,-14.48579 0.34225,-0.2274 0.68307,-0.45494 1.0263,-0.68244 z m -4.41222,2.9333 c 0.13414,4.13234 0.35001,8.23495 0.64911,12.47177 1.23079,17.43443 3.63156,33.12243 6.32975,51.92044 1.00061,6.9711 2.28035,14.63331 4.403454,21.73306 -1.216946,6.27713 -2.919274,12.40808 -5.694664,18.04539 -1.23788,2.51433 -3.23282,5.30732 -5.51924,7.29115 -2.28641,1.98381 -4.76455,3.1022 -7.1157,2.82101 -0.80119,-0.0958 -1.54513,-0.52151 -2.27366,-1.01753 1.65516,-8.81327 1.88631,-17.95237 0.58069,-26.62074 -2.45446,-16.29599 -6.28058,-28.44349 -12.7279,-45.20471 -0.46814,-1.21701 -1.32708,-3.41891 -2.28243,-5.15607 -0.47768,-0.86858 -0.87536,-1.6153 -1.71928,-2.25261 -0.42197,-0.31865 -1.19188,-0.68476 -2.04911,-0.4228 -0.85721,0.26196 -1.27552,0.93651 -1.49822,1.47191 -2.62182,6.30337 -1.44631,15.67589 -0.67368,23.0471 1.64776,15.72011 5.15242,29.29113 10.96829,46.07663 0.82642,2.38515 2.02134,5.41665 3.7789,8.04376 0.54216,0.81038 1.27679,1.46617 1.95261,2.1754 -1.05253,4.89212 -2.44407,9.67576 -4.60871,14.05072 -1.22188,2.46953 -2.77048,5.16826 -4.59819,7.25956 -1.82772,2.09131 -3.86651,3.51806 -6.11923,3.82101 -1.16404,0.15654 -2.36553,-0.13504 -3.57714,-0.61579 0.92588,-1.01647 1.88114,-2.04981 2.614,-3.01049 6.38478,-8.36962 9.7907,-21.84424 7.25078,-32.98205 -1.6221,-7.11318 -3.99432,-14.74978 -6.87886,-21.3243 -2.88454,-6.57454 -6.19065,-12.10442 -10.19111,-15.03667 -2.19508,-1.60895 -5.43758,-1.91302 -8.38586,-0.41052 -2.94828,1.5025 -5.44658,4.84377 -6.31395,10.20514 -0.42456,2.62421 -0.62565,5.27803 -0.77543,7.93499 -1.76887,-1.63161 -3.88119,-2.76248 -6.13502,-2.21401 -2.04588,0.49788 -3.26017,2.2934 -3.96661,4.27013 -0.70644,1.97673 -1.03312,4.35442 -1.17543,6.92096 -0.2846,5.13311 0.22507,11.00258 0.78947,15.15597 0.78691,5.79083 2.72544,12.43628 5.16835,18.34363 2.44292,5.90736 5.30169,11.03881 8.3964,13.91738 3.01342,2.80296 6.08043,3.8455 8.92269,3.87539 -0.48906,4.0739 -1.2404,8.09349 -2.30348,11.98757 -3.25631,11.92796 -9.08461,24.54533 -18.91029,31.27155 -7.51173,5.14217 -18.35492,7.31661 -27.0102,4.82626 -8.14541,-2.34365 -15.71883,-9.51195 -19.13661,-17.37348 -9.78965,-22.51796 -13.23061,-36.18591 -16.30682,-55.1888 -1.04717,-6.46878 -1.96822,-12.72083 -2.59822,-18.99626 11.02329,-10.21573 24.45375,-22.13623 40.26618,-35.22765 2.86833,11.70203 2.87511,24.64522 1.94735,36.675 -1.61147,20.89504 -8.28532,35.27867 -14.52088,44.45209 -6.23556,9.17343 -11.91565,13.03845 -11.91564,13.03845 a 1.6843585,1.6843585 0 1 0 1.90348,2.77891 c 0,0 6.26892,-4.31905 12.79809,-13.9244 6.52916,-9.60534 13.4355,-24.59611 15.0928,-46.08541 0.98088,-12.71859 1.03205,-26.65446 -2.39471,-39.32232 23.59414,-19.39108 52.20351,-41.15529 85.56388,-63.49572 z m -110.60217,37.85392 c 2.46086,-0.16595 5.04112,0.91777 7.54202,2.78418 2.85816,2.13305 5.48297,5.22802 7.33324,8.02095 2.76415,4.17245 4.81216,8.78252 6.29816,13.66124 -15.4547,12.75854 -28.71296,24.45049 -39.69074,34.56274 -0.79503,-10.27275 -0.69542,-20.74989 1.0842,-32.4768 0.80033,-5.27391 2.51446,-11.48421 5.25607,-16.53488 2.74161,-5.05068 6.42068,-8.83324 11.12969,-9.86831 0.34607,-0.0761 0.6958,-0.12541 1.04736,-0.14912 z m 84.28495,0.69825 c 0.68325,1.36681 1.41246,3.07534 1.80523,4.09642 6.41222,16.67 10.12729,28.46592 12.54196,44.49772 1.13731,7.55102 1.08277,15.48968 -0.0948,23.18744 -1.46444,-2.20116 -2.59675,-4.98594 -3.3754,-7.23325 -5.76936,-16.65127 -9.18443,-29.89544 -10.80162,-45.32401 -0.67487,-6.43848 -1.23453,-14.16259 -0.0755,-19.22432 z m -17.45067,30.04874 c 0.22465,-0.0142 0.44422,-0.0141 0.65788,0 0.85467,0.0564 1.60562,0.32526 2.11928,0.70175 3.02399,2.21654 6.32692,7.35555 9.09812,13.67177 2.77122,6.31621 5.09914,13.79343 6.67888,20.7208 2.25383,9.88333 -0.99549,22.78263 -6.64554,30.18911 -0.8564,1.12262 -1.88247,2.2799 -2.94557,3.36486 -1.31292,-0.95719 -2.54918,-2.09048 -3.70873,-3.28766 -0.0132,-8.6525 -1.18996,-17.30526 -3.66136,-25.44532 -1.49052,-4.90932 -4.04205,-11.66677 -7.0929,-17.14189 -0.6259,-1.12326 -1.2852,-2.14576 -1.9526,-3.13681 0.0373,-3.8086 0.24378,-7.60097 0.84559,-11.32092 0.74408,-4.59923 2.65552,-6.79045 4.51925,-7.74025 0.6989,-0.35617 1.41372,-0.53281 2.0877,-0.57544 z m -15.73666,16.72612 c 0.74954,-0.0393 1.70304,0.39421 2.92979,1.57542 0.64812,0.62405 1.32626,1.46363 2.00699,2.40173 0.0218,8.42929 1.13142,16.88153 3.08944,24.96636 1.72341,7.11609 3.98044,14.87555 9.19287,20.64711 0.0984,0.10892 0.2255,0.22491 0.32631,0.3351 -0.0265,2.04424 -0.1689,4.07622 -0.33683,6.10869 -1.99373,0.0885 -4.15317,-0.65084 -6.80693,-3.11926 -2.33579,-2.17263 -5.23807,-7.07627 -7.57886,-12.73669 -2.34081,-5.66041 -4.20891,-12.1169 -4.94206,-17.51207 -0.54317,-3.99734 -1.02893,-9.75166 -0.76489,-14.51386 0.13202,-2.38109 0.46376,-4.51911 0.9842,-5.97537 0.52044,-1.45624 1.09866,-2.01168 1.59121,-2.13154 0.099,-0.0241 0.20169,-0.04 0.30876,-0.0457 z m 8.42973,10.10865 c 2.35288,4.70689 4.45494,10.03401 5.67712,14.05948 1.93687,6.37943 2.91385,13.13595 3.27539,19.9366 -2.96117,-4.63767 -4.72037,-10.33037 -6.08238,-15.95419 -1.42662,-5.89066 -2.43738,-11.96224 -2.87013,-18.04189 z m 12.31564,42.94685 c 0.45181,0.39921 0.93755,0.76362 1.41927,1.13683 -0.50026,0.35896 -1.01608,0.638 -1.53331,0.90349 0.0472,-0.67993 0.082,-1.35897 0.11404,-2.04032 z m 93.93921,9.85777 c 0.151436,0.0162 0.274074,0.0481 0.368414,0.0912 1.682201,0.76953 2.035623,1.67745 2.142081,3.45259 0.106457,1.77514 -0.375611,4.23424 -0.801747,6.85781 -1.080313,6.65114 -3.934889,14.43639 -1.175424,21.71377 0.534478,1.40955 1.349164,2.96976 2.501726,4.28767 1.152557,1.31791 2.749885,2.47393 4.75082,2.48418 9.803888,0.0501 17.614034,-4.96029 27.945274,-10.29461 6.135004,-3.16768 12.1980537,-6.96061 18.29977812,-6.8701 3.66931358,0.0545 7.83744198,1.39884 9.95952988,3.92803 3.972389,4.73447 3.516628,12.60418 4.031531,19.88397 0.263982,3.73226 0.387344,7.46827 0.45964,11.20688 -5.2210514,1.9787 -10.557789,3.77185 -15.7085817,5.38766 -19.6219153,6.15536 -40.6891673,7.91495 -61.4220603,8.13499 -13.223987,0.14034 -26.586008,-1.16777 -39.369701,-4.37188 -4.08217,-1.02317 -10.44509,-3.90826 -13.21739,-5.18766 2.81672,-2.62504 18.342549,-17.12359 26.678632,-26.14881 6.878892,-7.44756 10.723672,-13.73252 19.169943,-22.99796 2.349714,-2.5776 5.713124,-5.96328 8.889366,-8.39989 1.58812,-1.21832 3.136188,-2.19504 4.392931,-2.71751 0.628369,-0.26125 1.152806,-0.39154 1.566647,-0.4351 0.206917,-0.0217 0.387151,-0.0214 0.538591,-0.005 z"
       id="path4147"
       inkscape:connector-curvature="0" />
  </g>
</svg>
