<?xml version="1.0" encoding="UTF-8" standalone="no"?>
<!-- Created with Inkscape (http://www.inkscape.org/) -->

<svg
   xmlns:dc="http://purl.org/dc/elements/1.1/"
   xmlns:cc="http://creativecommons.org/ns#"
   xmlns:rdf="http://www.w3.org/1999/02/22-rdf-syntax-ns#"
   xmlns:svg="http://www.w3.org/2000/svg"
   xmlns="http://www.w3.org/2000/svg"
   xmlns:sodipodi="http://sodipodi.sourceforge.net/DTD/sodipodi-0.dtd"
   xmlns:inkscape="http://www.inkscape.org/namespaces/inkscape"
   id="svg3336"
   version="1.1"
   inkscape:version="0.91 r13725"
   width="825"
   height="280"
   viewBox="0 0 825 280"
   sodipodi:docname="FirmaAlfonsoXIII.svg">
  <metadata
     id="metadata3342">
    <rdf:RDF>
      <cc:Work
         rdf:about="">
        <dc:format>image/svg+xml</dc:format>
        <dc:type
           rdf:resource="http://purl.org/dc/dcmitype/StillImage" />
        <dc:title></dc:title>
      </cc:Work>
    </rdf:RDF>
  </metadata>
  <defs
     id="defs3340" />
  <sodipodi:namedview
     pagecolor="#ffffff"
     bordercolor="#666666"
     borderopacity="1"
     objecttolerance="10"
     gridtolerance="10"
     guidetolerance="10"
     inkscape:pageopacity="0"
     inkscape:pageshadow="2"
     inkscape:window-width="1366"
     inkscape:window-height="705"
     id="namedview3338"
     showgrid="false"
     inkscape:zoom="1.4460606"
     inkscape:cx="412.5"
     inkscape:cy="140"
     inkscape:window-x="-4"
     inkscape:window-y="-4"
     inkscape:window-maximized="1"
     inkscape:current-layer="svg3336" />
  <path
     style="fill:#000000"
     d="m 309.46429,271.78571 c -1.08036,-1.08035 -1.96429,-2.53726 -1.96429,-3.23757 0,-1.73261 14.26005,-25.19278 20.01204,-32.92314 2.55776,-3.4375 6.22161,-9.0625 8.14189,-12.5 3.89998,-6.9814 8.09021,-13.63871 21.24282,-33.75 4.94581,-7.5625 10.50355,-16.42188 12.35051,-19.6875 1.84696,-3.26563 3.89691,-5.9375 4.55543,-5.9375 0.65852,0 1.19731,-0.84375 1.19731,-1.875 0,-1.59456 -3.5054,-1.89785 -23.4375,-2.02776 -38.12014,-0.24846 -43.9536,0.057 -46.43995,2.43154 -18.24352,17.42338 -26.44176,21.84035 -44.49755,23.97388 -19.33448,2.28465 -44.88138,1.90483 -71.875,-1.06861 -12.71875,-1.401 -30.4375,-3.17056 -39.375,-3.93235 -8.9375,-0.7618 -22.4375,-2.2205 -30,-3.24157 -18.9,-2.55184 -30.59033,-3.90885 -52.5,-6.09422 -26.639081,-2.6571 -31.617636,-3.57032 -48.125,-8.8277 C 11.359712,160.7345 2.5,153.49239 2.5,149.80514 2.5,146.96641 5.110699,141.25 6.4071485,141.25 c 0.5532235,0 2.9602991,-1.71603 5.3490575,-3.81338 C 15.895879,133.80194 29.703782,127.5 33.527898,127.5 35.720525,127.5 40,132.21452 40,134.63005 c 0,4.88336 21.252311,7.60314 75.625,9.67814 11.6875,0.44602 31.9375,1.38591 45,2.08863 13.0625,0.70274 28.8125,1.47502 35,1.71618 6.1875,0.24117 14.625,0.73394 18.75,1.09504 4.125,0.36111 16.21875,0.96212 26.875,1.33559 10.65625,0.37347 28.72455,1.03266 40.15177,1.46487 l 20.77678,0.78583 7.97322,-8.00122 C 321.3972,133.50819 334.3579,117.32342 360.20944,82.283229 370.80289,67.924446 375.49524,61.998682 387.76455,47.485095 412.51744,18.204434 412.595,18.125 416.43089,18.125 c 4.83426,0 4.54932,2.208116 -1.1874,9.201525 -2.61608,3.189161 -5.85045,7.284126 -7.1875,9.099922 -1.33704,1.815798 -5.80599,7.44175 -9.93099,12.502118 -9.37981,11.506739 -14.1045,17.93685 -21.91206,29.821435 -7.01769,10.682228 -6.95966,10.772801 6.01077,9.383785 9.4278,-1.009632 9.91844,-1.422502 21.10309,-17.758509 4.14231,-6.050152 10.22991,-14.937776 13.528,-19.750276 16.32254,-23.817471 26.34777,-34.172426 29.77054,-30.749665 1.4775,1.477498 1.24166,2.023036 -8.80179,20.360735 -5.92208,10.812739 -9.63856,15.446195 -20.74122,25.858724 -3.20778,3.008386 -5.83233,5.978449 -5.83233,6.600138 0,0.62169 -3.11025,4.796679 -6.91166,9.277753 -3.80142,4.481074 -6.58072,8.682886 -6.17623,9.337361 0.83625,1.353074 12.41903,1.576469 20.9699,0.40444 5.23013,-0.716866 6.16813,-1.408756 10.73359,-7.91727 2.75145,-3.922467 5.96426,-7.928361 7.13957,-8.901987 1.1753,-0.973625 8.18574,-9.645229 15.57875,-19.270229 7.393,-9.625 17.13682,-21.375475 21.65292,-26.112168 6.8663,-7.201697 8.51612,-8.359007 10.07361,-7.066405 2.26871,1.882868 1.84659,6.612469 -1.15466,12.937144 -1.23235,2.596981 -11.35615,13.838704 -22.49733,24.981607 -22.59154,22.595032 -24.17201,24.650484 -20.64686,26.851973 2.65115,1.655671 6.45771,0.698726 23.01687,-5.7863 10.02002,-3.92411 11.64187,-3.88015 14.71036,0.398719 0.54884,0.765345 4.08968,0.651397 9.71069,-0.3125 14.65603,-2.513229 15.70472,-2.072008 11.9919,5.04543 -2.15617,4.133381 -1.60637,4.198662 6.60858,0.784685 4.44691,-1.848054 7.15679,-3.963631 8.93282,-6.97379 1.40219,-2.376536 3.2453,-4.089281 4.0958,-3.806103 1.875,0.624292 2.83244,4.704884 1.35687,5.782924 -1.30944,0.956663 -6.84642,11.65553 -6.30979,12.192151 1.03161,1.031607 17.1243,-5.255938 17.1243,-6.690602 0,-2.221104 7.37662,-6.570647 9.65849,-5.695015 1.26647,0.485991 1.61462,1.790216 1.12772,4.224673 -0.38737,1.936903 -0.16025,3.857901 0.50473,4.268882 0.66498,0.41098 1.20906,1.83904 1.20906,3.173466 0,2.438728 3.01555,3.375855 4.27994,1.330052 0.3726,-0.602898 3.92142,-2.385579 7.88626,-3.961515 3.96484,-1.575935 8.21509,-3.895155 9.445,-5.153823 2.54356,-2.603049 4.77002,-2.907261 6.7544,-0.922891 0.98745,0.98746 4.95061,-0.680379 14.3125,-6.023216 C 642.77315,46.936206 678.91003,28.526299 707.5,17.41237 c 7.46242,-2.900905 17.51009,-6.127188 19.14944,-6.14884 0.56344,-0.0074 0.84469,1.228915 0.625,2.747459 -0.40309,2.786215 -1.53933,3.332713 -28.52444,13.719403 -7.97695,3.070363 -60.76416,29.118397 -84.09809,41.498489 -32.27055,17.121528 -40.00586,22.595808 -41.49245,29.364215 -0.47157,2.147084 -2.06303,4.748244 -3.53657,5.780354 -2.7372,1.9172 -9.09738,2.47942 -12.64565,1.11781 -2.50534,-0.96138 -2.56908,-5.943966 -0.10224,-7.99126 4.58132,-3.802159 1.18731,-3.487776 -6.05181,0.560571 -4.64749,2.599019 -10.46515,4.733379 -14.0625,5.159179 l -6.13569,0.72624 4.375,-3.85746 c 4.2708,-3.765594 4.31604,-3.90275 1.89932,-5.759021 -2.77441,-2.131008 -6.3174,-1.681073 -16.27432,2.066723 -7.33431,2.760644 -14.375,3.112154 -14.375,0.71768 0,-0.899848 0.82586,-2.727973 1.83525,-4.0625 2.53984,-3.357976 2.37334,-5.080367 -0.27275,-2.821476 C 504.85257,92.75674 489.30021,101.25 487.63321,101.25 c -0.73457,0 -1.68996,-1.411955 -2.12308,-3.137677 -0.57864,-2.305478 0.12349,-4.332034 2.64719,-7.640819 l 3.43473,-4.503142 -6.73353,0.856237 c -9.54287,1.213475 -10.0606,1.468023 -14.23352,6.99817 -3.65387,4.842277 -11.23331,9.927231 -14.79715,9.927231 -0.97445,0 -2.4933,-0.86942 -3.3752,-1.93206 -1.34329,-1.61856 -0.96247,-2.841427 2.34694,-7.536541 2.17272,-3.08247 3.95041,-5.761434 3.95041,-5.953254 0,-0.19182 -4.1624,1.01898 -9.24978,2.690665 l -9.24978,3.039429 -4.6289,9.533381 c -4.70793,9.69615 -16.31133,28.97962 -21.53185,35.78338 -1.58257,2.0625 -3.29955,4.3125 -3.81553,5 -0.51598,0.6875 -2.19501,2.87274 -3.73116,4.85607 -1.53615,1.98334 -2.793,4.13223 -2.793,4.77529 0,0.69576 11.51556,1.10859 28.4375,1.01948 15.64062,-0.0824 56.5625,0.16281 90.9375,0.54482 84.58,0.93993 120.88594,1.01293 123.125,0.24755 1.03125,-0.35251 15.9375,-0.9678 33.125,-1.36731 17.1875,-0.39951 37.71875,-1.25803 45.625,-1.90782 24.53191,-2.01622 85.1796,-3.00703 89.09454,-1.45555 5.33033,2.11238 5.69039,5.00127 1.13106,9.07503 -3.97045,3.54759 -7.7256,3.69233 -7.7256,0.29776 0,-4.67202 -13.35254,-5.05931 -57.5,-1.66774 -9.28125,0.71301 -25.875,1.52611 -36.875,1.80687 -11,0.28076 -29,0.85352 -40,1.27283 -22.98804,0.87625 -252.6976,1.03941 -254.08738,0.18048 -0.50666,-0.31313 -5.80861,-0.73825 -11.78212,-0.94471 l -10.86093,-0.37538 -7.51216,9.94617 c -11.88997,15.74238 -23.09259,30.43008 -25.13241,32.95097 -1.03125,1.27445 -4.125,5.5014 -6.875,9.39321 -9.7821,13.84368 -18.05127,25.12921 -19.76665,26.97698 -0.95736,1.03125 -2.80225,3.5625 -4.09975,5.625 -1.2975,2.0625 -4.22454,6.22537 -6.50453,9.25084 -2.27998,3.02546 -5.22012,7.6074 -6.53362,10.18208 -2.55215,5.00264 -5.72306,8.69208 -7.47045,8.69208 -0.58929,0 -1.95536,-0.88393 -3.03571,-1.96429 z M 362.5,198.77575 c 13.16572,-17.78151 26.23764,-34.17666 27.76002,-34.81741 0.54449,-0.22918 0.98998,-1.16401 0.98998,-2.07744 0,-1.46619 -5.79923,-1.89255 -6.60766,-0.4858 -0.15168,0.26395 -1.5973,2.36341 -3.21249,4.66549 -8.3441,11.8926 -32.67985,48.89422 -32.67985,49.68853 0,1.4593 1.18747,-0.006 13.75,-16.97337 z M 252.79488,179.42563 c 7.77453,-0.75179 15.53532,-3.06853 25.33012,-7.56152 3.4375,-1.57682 7.40931,-3.20797 8.82626,-3.62479 1.41695,-0.41681 4.39598,-2.63531 6.62009,-4.92999 l 4.04381,-4.17217 -15.37007,-0.81293 C 273.79154,157.8771 254.78125,157.19517 240,156.80881 c -14.78125,-0.38635 -28.28125,-1.00571 -30,-1.37635 -1.71875,-0.37065 -9.8612,-0.5888 -18.09433,-0.48479 -8.23312,0.10401 -23.42062,-0.38511 -33.75,-1.08695 -10.32937,-0.70183 -30.31192,-1.89023 -44.40567,-2.64089 -14.09375,-0.75067 -27.875,-1.588 -30.625,-1.86075 -2.75,-0.27274 -10.625,-0.84022 -17.5,-1.26106 C 43.171843,146.7236 32.5,144.2997 32.5,140.57431 c 0,-3.0908 -2.80576,-4.23094 -6.123445,-2.48829 -3.494994,1.83579 -13.445132,11.58804 -12.545334,12.29583 4.362266,3.43141 9.401078,5.7351 15.543779,7.10645 4.125,0.92089 8.52088,2.18334 9.768621,2.80542 4.896039,2.44102 28.802009,5.45167 67.731379,8.52989 9.625,0.76108 19.1875,1.62559 21.25,1.92117 2.0625,0.29556 8.39062,0.89495 14.0625,1.33197 5.67187,0.43701 10.3125,1.2379 10.3125,1.77974 0,0.54184 3.51562,0.99014 7.8125,0.99622 4.29687,0.006 11.1875,0.25942 15.3125,0.56295 19.88811,1.46343 45.94069,3.59607 54.375,4.45109 5.15625,0.52271 10.78125,0.79329 12.5,0.60129 1.71875,-0.192 6.35145,-0.66109 10.29488,-1.04241 z M 381.25,152.61679 c 0,-0.68888 2.8588,-5.0751 6.3529,-9.74715 3.49409,-4.67205 7.85346,-10.88759 9.6875,-13.81229 1.83402,-2.92471 7.95516,-11.64346 13.60252,-19.375 7.14784,-9.785795 9.71053,-14.180387 8.43359,-14.462258 -1.00887,-0.2227 -7.72267,0.187719 -14.91954,0.912039 C 390.02322,97.579769 387.5,97.189474 387.5,93.516945 c 0,-2.022042 -0.61839,-2.342662 -3.4375,-1.782284 -1.89063,0.375815 -7.0722,1.310603 -11.51461,2.077307 -5.81988,1.004436 -8.87802,2.258202 -10.94302,4.486378 -1.57625,1.700805 -3.48882,2.707394 -4.25014,2.236874 -0.76133,-0.47053 -1.74323,-0.28611 -2.18198,0.40983 -2.94176,4.66605 -25.05955,32.39739 -33.64163,42.17995 l -7.67622,8.75 11.51005,0.625 c 24.07246,1.30715 55.88505,1.37362 55.88505,0.11679 z m 21.60182,-5.42453 c 7.08147,-7.78104 22.39547,-30.63181 28.45195,-42.45457 3.24454,-6.333604 3.9437,-8.74022 2.85533,-9.828585 -1.99865,-1.998649 -3.21585,-0.973724 -8.64118,7.276105 -2.60051,3.95439 -5.04651,7.47104 -5.43556,7.81479 -0.38905,0.34375 -1.26986,1.51435 -1.95736,2.60133 -4.78479,7.56504 -12.33024,18.43541 -19.61143,28.25326 -4.68246,6.31376 -8.51357,11.79814 -8.51357,12.1875 0,0.38935 1.54687,0.71006 3.4375,0.71267 2.55856,0.004 4.96572,-1.67442 9.41432,-6.5625 z M 569.48363,99.38465 c 2.3633,-3.60686 1.58297,-6.891516 -1.63191,-6.869176 -2.8215,0.01961 -8.4432,8.279506 -6.24261,9.172216 3.41309,1.38457 5.94313,0.64462 7.87451,-2.30304 z M 463.36667,95.9375 c 5.05079,-5.565361 7.10762,-9.713209 5.57604,-11.244788 -1.51335,-1.513349 -2.90146,-0.383848 -8.64986,7.038362 -4.93199,6.368079 -2.2361,10.057316 3.07382,4.206426 z m 239.41223,45.47251 c -3.05401,-3.80028 -4.5443,-4.71481 -6.93769,-4.25729 -3.8549,0.73692 -5.33226,-1.5574 -3.3672,-5.22917 1.29418,-2.41817 1.08481,-3.50786 -1.41506,-7.36533 -1.61368,-2.49 -3.34019,-4.53424 -3.8367,-4.54275 -0.49651,-0.008 -2.08964,2.74352 -3.54028,6.11562 -2.45197,5.69977 -4.75489,7.54532 -9.48573,7.60185 -2.49212,0.0297 -2.99648,-3.75995 -1.01131,-7.59883 2.22548,-4.30362 1.5279,-6.14158 -2.3212,-6.11568 -2.90929,0.0196 -4.4306,0.786 -14.07538,7.09112 -6.20584,4.05696 -9.28835,3.87055 -9.28835,-0.56173 0,-1.57446 -1.11304,-1.7351 -6.5625,-0.94712 -13.30739,1.92424 -19.23075,0.30647 -17.72019,-4.83968 1.77414,-6.0441 7.06506,-16.42359 12.67281,-24.860911 7.19673,-10.828072 10.71215,-14.956049 16.96613,-19.922365 l 4.73124,-3.757113 4.93017,3.416605 c 4.13344,2.864483 11.68884,10.849828 15.27035,16.139338 1.04374,1.541482 19.05505,-16.448604 24.09914,-24.070723 3.74154,-5.653854 9.04275,-8.744491 10.13166,-5.906825 0.6636,1.729301 -4.85911,12.491205 -7.13054,13.895021 -0.61865,0.382353 -1.69713,1.764558 -2.39663,3.071568 -1.49547,2.794306 -2.40838,3.153986 19.98348,-7.873349 13.9603,-6.875042 18.97458,-7.717325 14.92908,-2.507744 -13.0333,16.783594 -27.74401,28.984502 -36.05718,29.905435 -3.53705,0.391837 -6.97561,3.631003 -8.20007,7.724573 -0.82389,2.75437 -0.63998,2.85092 3.93186,2.06411 16.66478,-2.86802 18.81265,-3.93604 28.28123,-14.062768 C 753.9184,63.472432 754.91573,62.5 757.68253,62.5 c 5.02939,0 1.73217,5.062534 -16.77192,25.751475 -5.34292,5.973775 -9.43717,11.138629 -9.09835,11.477454 1.30068,1.300681 12.67511,-2.669778 14.89031,-5.197732 1.28017,-1.460908 6.90517,-7.634306 12.5,-13.718661 5.59484,-6.084355 10.66397,-12.09471 11.26473,-13.356346 1.19639,-2.512451 8.21479,-6.395704 9.79461,-5.419318 2.99529,1.85119 0.16128,6.391479 -15.06581,24.136512 -2.98589,3.479639 -5.12271,6.326616 -4.74849,6.326616 0.37423,0 3.91979,-0.84375 7.87903,-1.875 8.85522,-2.306494 10.42336,-2.33564 10.42336,-0.193735 0,3.122387 -4.32436,5.559146 -16.68916,9.404256 -11.83641,3.680799 -12.59886,4.140079 -19.65283,11.838229 -4.03626,4.40487 -10.30738,11.87106 -13.93584,16.59152 -9.17383,11.93482 -15.5453,17.98473 -18.9406,17.98473 -1.82156,0 -4.27814,-1.76076 -6.75267,-4.83999 z m 10.32292,-6.72251 c 2.55351,-2.92188 6.18304,-7 8.06565,-9.0625 7.04152,-7.71437 16.50941,-20.625 15.12515,-20.625 -0.78956,0 -3.94325,0.63144 -7.00818,1.4032 -4.69703,1.18272 -7.23908,3.21865 -16.17853,12.95731 -5.83325,6.35475 -10.60591,12.21185 -10.60591,13.01578 0,1.89886 3.75336,7.62371 4.99831,7.62371 0.52843,0 3.05001,-2.39063 5.60351,-5.3125 z m -10.40366,-15 c 2.28704,-2.92187 4.5878,-5.50117 5.11283,-5.73176 0.52502,-0.2306 0.68117,-0.86166 0.347,-1.40237 -0.94243,-1.52487 -14.40799,2.65137 -14.40799,4.46852 0,2.31419 2.73011,7.97811 3.84561,7.97811 0.51938,0 2.81553,-2.39062 5.10255,-5.3125 z m -55.82316,-1.51983 10,-1.88674 8.38307,-9.07796 c 4.61071,-4.99289 8.39907,-9.35922 8.4186,-9.70297 0.0195,-0.34375 -3.34231,-4.700812 -7.47077,-9.682361 -6.38121,-7.699819 -7.83038,-8.851002 -9.66859,-7.68055 -2.5151,1.601442 -7.73785,8.62683 -14.30167,19.237911 -10.80182,17.46219 -12.7251,22.97345 -7.44294,21.32805 1.14526,-0.35675 6.5823,-1.49767 12.0823,-2.53538 z m 33.94365,-8.84658 c 0.40711,-1.0609 0.40305,-2.26606 -0.009,-2.67813 -0.89055,-0.89028 -4.5599,1.93445 -4.5599,3.5101 0,1.88636 3.79041,1.19611 4.56865,-0.83197 z m 25.25982,-20.643121 c 2.31192,-1.409478 3.95642,-2.809748 3.65445,-3.11171 -0.62445,-0.624447 -10.98292,4.174191 -10.98292,5.087915 0,1.342866 3.37885,0.431722 7.32848,-1.976205 z m 40.18474,46.962941 c -1.98055,-2.38641 -0.96056,-4.96255 2.98964,-7.55082 3.6966,-2.4221 5.17274,-1.79888 6.29085,2.656 1.3418,5.34617 -5.7859,9.10556 -9.28049,4.89482 z M 778.75,42.5 c 0,-0.6875 0.5957,-1.25 1.32378,-1.25 0.72807,0 0.97612,0.5625 0.55122,1.25 -0.4249,0.6875 -1.0206,1.25 -1.32378,1.25 -0.30317,0 -0.55122,-0.5625 -0.55122,-1.25 z"
     id="path3348"
     inkscape:connector-curvature="0" />
</svg>
