<?xml version="1.0" encoding="UTF-8" standalone="no"?>
<!-- Created with Inkscape (http://www.inkscape.org/) -->

<svg
   xmlns:dc="http://purl.org/dc/elements/1.1/"
   xmlns:cc="http://creativecommons.org/ns#"
   xmlns:rdf="http://www.w3.org/1999/02/22-rdf-syntax-ns#"
   xmlns:svg="http://www.w3.org/2000/svg"
   xmlns="http://www.w3.org/2000/svg"
   xmlns:sodipodi="http://sodipodi.sourceforge.net/DTD/sodipodi-0.dtd"
   xmlns:inkscape="http://www.inkscape.org/namespaces/inkscape"
   width="450"
   height="150"
   id="svg2"
   version="1.1"
   inkscape:version="0.48.0 r9654"
   sodipodi:docname="Firma_Luigi_Einaudi.svg">
  <defs
     id="defs4" />
  <sodipodi:namedview
     id="base"
     pagecolor="#ffffff"
     bordercolor="#666666"
     borderopacity="1.0"
     inkscape:pageopacity="0.0"
     inkscape:pageshadow="2"
     inkscape:zoom="1.632631"
     inkscape:cx="228.73858"
     inkscape:cy="171.93606"
     inkscape:document-units="px"
     inkscape:current-layer="layer5"
     showgrid="false"
     fit-margin-top="0"
     fit-margin-left="0"
     fit-margin-right="0"
     fit-margin-bottom="0"
     inkscape:window-width="1440"
     inkscape:window-height="820"
     inkscape:window-x="-8"
     inkscape:window-y="-8"
     inkscape:window-maximized="1" />
  <metadata
     id="metadata7">
    <rdf:RDF>
      <cc:Work
         rdf:about="">
        <dc:format>image/svg+xml</dc:format>
        <dc:type
           rdf:resource="http://purl.org/dc/dcmitype/StillImage" />
        <dc:title></dc:title>
      </cc:Work>
    </rdf:RDF>
  </metadata>
  <g
     inkscape:groupmode="layer"
     id="layer5"
     inkscape:label="Warstwa#1"
     style="display:inline"
     transform="translate(-790.68445,-257.31302)">
    <path
       style="font-size:medium;font-style:normal;font-variant:normal;font-weight:normal;font-stretch:normal;text-indent:0;text-align:start;text-decoration:none;line-height:normal;letter-spacing:normal;word-spacing:normal;text-transform:none;direction:ltr;block-progression:tb;writing-mode:lr-tb;text-anchor:start;baseline-shift:baseline;color:#000000;fill:#000000;fill-opacity:1;stroke:none;stroke-width:3;marker:none;visibility:visible;display:inline;overflow:visible;enable-background:accumulate;font-family:Sans;-inkscape-font-specification:Sans"
       d="m 132.25,35.5625 c -0.24406,-0.01176 -0.48639,0.0057 -0.71875,0.03125 -0.46472,0.051 -0.91589,0.15661 -1.375,0.28125 -0.91822,0.24927 -1.84658,0.612 -2.78125,0.9375 -5.47807,1.90775 -13.3527,6.761 -21.4375,12.125 C 98.18684,54.0798 90.48762,59.52645 84.8125,63.28125 79.63207,65.47 74.70874,67.92913 69.5,68.875 c -2.345872,0.426278 -1.551853,3.532175 0.53125,2.96875 0.80268,-0.14576 1.53596,-0.42371 2.3125,-0.625 -5.46479,3.07717 -10.57836,5.62022 -16.25,8.40625 -0.27494,0.13499 -1.13016,0.52335 -1.40625,0.65625 -2.74561,-1.45772 -6.18565,-2.7135 -9.1875,-2.34375 -6.97872,1.46176 -23.34682,4.98651 -17.5625,12.375 0.22054,0.9455 2.12139,3.61979 3.21875,3.96875 1.48792,1.99274 13.10545,-5.31815 18.8125,-8.84375 0.22776,0.16371 0.55227,-0.39641 2.53125,0.9375 1.58051,1.71345 0.99023,2.50609 0.96875,5 -0.0205,2.38325 0.10311,3.62956 -0.1875,7.625 -0.006,0.0621 0.005,0.12527 0,0.1875 -0.20764,2.56485 2.50805,6.31962 4.6875,7.65625 2.26783,1.39082 4.62814,2.97157 7.59375,3.21875 2.09276,0.57909 3.80335,-4.79847 1.09375,-6.125 -1.9641,-0.1637 -3.35896,-0.94854 -4.40625,-2.5625 -1.04729,-1.61396 -1.8114,-2.36669 -1.625,-4.28125 0.004,-0.0624 0.004,-0.12508 0,-0.1875 -0.0614,-2.34978 -0.33053,-3.69157 -0.40625,-6.53125 -0.0739,-2.77166 -0.68307,-5.67892 -2.78125,-8.0625 9.58568,-4.70669 19.34391,-9.4716 28.125,-15.90625 0.0151,-0.01 0.0474,-0.02135 0.0625,-0.03125 0.16676,-0.10937 0.45439,-0.32487 0.625,-0.4375 1.05335,-0.44584 2.12945,-0.96437 3.1875,-1.34375 10.37899,-2.63633 20.39644,-5.94401 30.1875,-10.875 0.0168,-0.008 0.0456,-0.02365 0.0625,-0.03125 2.17222,-0.98559 5.04719,-2.62982 7.71875,-4.5625 2.69233,-1.94771 5.16391,-4.09326 6.4375,-6.4375 0.0237,-0.0509 0.0446,-0.10305 0.0625,-0.15625 0.69457,-1.73093 1.05742,-2.96759 1.03125,-4.125 -0.0131,-0.5787 -0.14669,-1.20092 -0.5,-1.71875 -0.35331,-0.51783 -0.91722,-0.85567 -1.4375,-1 -0.26014,-0.07216 -0.50594,-0.113241 -0.75,-0.125 z m -0.6875,3.09375 c 0.13718,-0.01233 0.21729,0.0045 0.3125,0 -0.0172,0.41481 -0.1671,1.2907 -0.71875,2.6875 -0.84833,1.49688 -3.02565,3.55373 -5.5,5.34375 -2.51614,1.82025 -5.32762,3.44509 -7.25,4.3125 -0.0211,0.01 -0.0419,0.02035 -0.0625,0.03125 -7.39785,3.73143 -15.03943,6.34935 -22.84375,8.625 4.08773,-2.81133 7.68638,-5.29461 12.09375,-8.21875 8.02835,-5.32654 15.9599,-10.14434 20.75,-11.8125 0.96451,-0.33589 1.90002,-0.64694 2.625,-0.84375 0.26234,-0.07122 0.45657,-0.112671 0.59375,-0.125 z m 52.96875,9.5625 c -5.22442,0.117216 -11.34094,1.71813 -14.6875,5.375 -1.90987,2.82821 1.62187,6.70291 3.5,8.96875 0.91732,1.74984 5.26403,4.00639 1.3125,4.65625 -6.16536,2.4135 -12.89742,2.75158 -19.1875,4.75 -3.48985,1.20167 -10.55751,1.56738 -14.09375,2.5625 -3.59357,0.90182 -5.62858,5.34818 -3.8125,8.625 1.5424,4.20054 9.37133,5.79836 13.125,7.46875 4.83146,1.94836 9.74424,3.89851 14.9375,4.59375 3.1988,-0.0236 6.34975,-1.07308 9.21875,-2.4375 3.231,2.18459 7.12342,3.1622 10.8125,4.3125 1.21565,0.0568 4.56581,1.48924 4.09375,-0.5 -0.0252,-1.58385 -0.48098,-2.49988 -2.28125,-2.1875 -3.42382,-0.78631 -6.82923,-1.83597 -9.9375,-3.5 1.68414,-1.83916 6.20762,-2.33218 5.375,-5.46875 -1.69906,-2.17387 -4.51,-0.15235 -6.1875,1.03125 -2.43743,1.22133 -2.94572,4.19598 -5.6875,4.65625 -2.489,0.93237 -5.18278,1.49257 -7.78125,0.65625 -6.07368,-1.60178 -12.05716,-3.81745 -17.46875,-7.03125 -1.86832,-1.72332 -3.8991,-5.30084 -0.96875,-7.09375 3.32489,-1.30695 7.00385,-1.28128 10.375,-2.5 4.88825,-1.52035 9.95084,-2.31118 14.9375,-3.40625 3.394,-0.98736 9.59457,-0.6966 12.40625,-2.96875 1.12484,-2.95469 -5.46411,-5.53261 -6.65625,-7.84375 -2.03076,-1.94118 -3.5369,-5.52927 -0.0312,-6.8125 4.65277,-2.98398 11.17981,-4.20588 16.09375,-1.15625 2.16094,1.11406 1.84615,4.36554 2.78125,5.875 1.22767,3.10031 5.36952,-0.0026 4.84375,-2.3125 -1.13014,-5.3919 -7.49202,-8.01093 -12.84375,-8.28125 -0.69907,-0.04321 -1.44115,-0.048 -2.1875,-0.03125 z M 391.875,63.625 c -1.25494,-0.03495 -2.56875,0.18565 -3.15625,0.5625 -7.9561,3.4612 -11.9337,12.22059 -14.875,19.625 -4.1657,-1.20269 -9.00695,0.27242 -12.90625,4.6875 -5.1079,3.2747 -9.76535,7.84944 -15.90625,9 -3.715,1.0802 -8.32995,-3.21937 -3.65625,-5.625 3.2393,-4.44294 -4.2269,-7.3454 -5.125,-2.15625 -0.2442,5.69503 -5.98405,0.88237 -9.03125,3.625 -3.4198,1.5541 -7.19205,2.77252 -10.96875,2.75 -3.8583,-2.13519 3.6988,-2.56145 4.875,-4.375 3.7498,-2.56711 -0.66995,-6.60255 -3.59375,-3.78125 -3.093,2.20897 -5.4405,5.06148 -9.125,6.375 -2.0516,3.35253 3.3283,1.28258 3.9375,2.625 3.073,4.02222 8.91965,1.54911 12.90625,0.46875 3.7878,-2.07534 9.40085,-3.40514 12.53125,0.40625 2.5486,3.95661 7.68345,2.79266 11.40625,1.53125 4.3265,-1.60679 8.0105,-4.45356 11.625,-7.25 2.6883,2.80843 -2.54825,8.26672 2.78125,9.90625 3.705,2.18109 9.14035,2.72265 12.34375,-0.625 1.648,-4.32161 5.12675,2.01806 8.46875,0.625 4.3043,-0.097 8.6211,-1.34005 12.375,-3.40625 2.1199,-2.13376 4.05865,-1.12687 5.15625,2 0.6975,3.01367 5.72965,7.4326 7.46875,2.9375 -0.1868,-4.55648 -1.596,-9.69302 -5.625,-11.84375 -4.4696,0.097 -7.7095,4.6977 -12.0625,5.90625 -3.8455,1.07794 -11.2251,3.50184 -12.375,-2.15625 -0.5401,-4.8327 -0.0292,-9.8349 2.65625,-14 2.9447,-5.23239 10.381,-12.26372 12.625,-16.90625 -0.30955,-0.59615 -1.49506,-0.871297 -2.75,-0.90625 z m -191.78125,7.25 c -0.43186,0.03762 -0.78515,0.181292 -1.125,0.34375 -0.90627,0.43322 -1.64182,1.12322 -2.28125,1.9375 -0.63943,0.81428 -1.18384,1.73397 -1.28125,2.875 -0.0487,0.57051 0.0228,1.23074 0.375,1.8125 0.35222,0.58176 0.95275,1.00962 1.59375,1.25 1.19495,0.44812 2.4504,0.19457 3.375,-0.34375 0.9246,-0.53832 1.6107,-1.30233 2.09375,-2.15625 0.48305,-0.85392 0.81114,-1.77318 0.6875,-2.8125 -0.0802,-0.67379 -0.58914,-1.30234 -1.21875,-1.78125 -0.004,-0.003 0.004,-0.02815 0,-0.03125 l -0.0312,0 C 201.91961,71.38594 201.193,70.9332 200.5625,70.875 c -0.15967,-0.01475 -0.3248,-0.01254 -0.46875,0 z m 223.1875,6.25 c -0.20809,0.02021 -0.41179,0.08454 -0.59375,0.1875 -3.3739,1.8639 -4.31465,5.34881 -2.84375,7.5625 0.7355,1.10685 2.19645,1.77031 3.65625,1.5 1.4597,-0.27031 2.8229,-1.29581 4.0625,-3.03125 0.3842,-0.53798 0.69095,-1.16595 0.78125,-1.9375 C 428.43375,80.6347 428.225,79.7001 427.625,79 c -1.1164,-1.3025 -2.6292,-1.83699 -4.1875,-1.875 -0.052,-0.0027 -0.10421,-0.0027 -0.15625,0 z m -375.9375,4.53125 c 1.135435,-0.03373 2.236407,0.0955 3.3125,0.34375 -4.46037,1.98299 -8.9196,3.91459 -13.46875,5.8125 -0.0762,0.0354 -0.14951,0.0773 -0.21875,0.125 -0.642793,0.391588 -0.890204,0.345856 -0.90625,0.34375 -0.0023,-0.01085 -0.01236,-0.01276 -0.03125,-0.09375 -0.0988,-0.42373 0.17884,-1.59396 0.96875,-2.09375 0.0774,-0.0454 0.1507,-0.0978 0.21875,-0.15625 2.36585,-2.21231 5.67714,-3.78206 8.96875,-4.1875 0.382005,-0.04705 0.777772,-0.08251 1.15625,-0.09375 z M 275.5,81.71875 c -3.9635,0.36163 -7.4399,2.83453 -10.3125,5.4375 -5.5322,-2.8368 -15.98075,8.42287 -24.96875,9.71875 -2.6283,0.73712 -3.8325,-1.45846 -1,-4.34375 2.5146,-2.96299 -1.82225,-7.27562 -5.90625,-7.34375 -4.6066,-0.0256 -9.441,0.81443 -13.375,3.1875 -1.4626,0.95688 -2.28965,3.44876 -1.78125,0.3125 -1.2079,-4.97783 -9.4614,-2.86622 -12.65625,-2.09375 -2.98965,-0.27192 -2.56631,2.24944 -1.78125,4.25 2.80377,0.0799 8.3142,-2.41037 10.375,-1.1875 1.242,2.69445 -4.34665,8.29366 0.84375,7.75 1.8017,-2.98056 5.4979,-4.28504 8.25,-6.28125 3.3634,-1.50796 6.61005,-3.18589 10.34375,-2.84375 3.4205,1.49287 -4.23605,5.34221 -3.40625,7.9375 0.5232,3.82704 7.8285,4.09598 10.9375,3.59375 7.6529,-1.28578 14.3189,-5.56129 21.375,-8.53125 -1.7042,4.3032 1.93805,9.60557 6.65625,9.1875 2.3577,-0.21086 6.50275,0.27544 4.90625,-3.0625 -1.7368,-1.31809 -7.0926,1.89425 -8.5,-1.90625 -1.7124,-3.60803 1.9088,-6.71519 4.625,-8.46875 2.7882,-2.12406 6.54665,-3.13837 9.78125,-1.3125 3.8805,1.7192 1.21285,6.38558 2.03125,9.5 0.2463,4.11638 4.32155,5.95274 7.96875,5.84375 3.7589,0.19805 7.52985,0.12741 11.28125,0.0937 2.8397,0.0402 2.1297,-1.72485 1.0625,-3.34375 -2.7476,0.69456 -6.27195,0.16831 -9.34375,0.375 -2.8649,-0.14811 -6.2107,0.63187 -6.5,-3.34375 -0.3174,-3.47546 2.02425,-8.61747 -1.15625,-11.25 -2.0816,-1.70293 -7.077,-1.90931 -9.75,-1.875 z M 422.21875,82.5 c 0.005,0.07726 0.005,0.180869 0.0312,0.3125 -0.0176,-0.09493 -0.0328,-0.197728 -0.0312,-0.3125 z m 0.0937,0.53125 c 0.0416,0.08952 0.10217,0.19252 0.1875,0.3125 0.0196,0.02754 0.0375,0.06546 0.0625,0.09375 -0.0887,-0.04218 -0.141,-0.13305 -0.21875,-0.25 -0.0228,-0.03434 -0.0123,-0.110606 -0.0312,-0.15625 z M 88.53125,86.125 c -1.07496,-0.0401 -2.01477,0.69824 -2.71875,1.4375 -0.84887,0.99034 -1.56028,2.09854 -1.96875,3.34375 -0.34229,1.10336 -0.24181,2.38958 0.5,3.3125 0.40936,0.56994 0.8875,1.18223 1.5625,1.4375 1.09994,0.26679 2.25368,0.16536 3.375,0.1875 0.88069,0.0456 1.78345,-0.10998 2.5,-0.65625 0.90112,-0.61859 1.52682,-1.54947 2.4375,-2.15625 0.84146,-0.62024 1.49785,-1.51013 1.65625,-2.5625 0.1417,-0.98611 -0.02329,-2.15146 -0.84375,-2.8125 C 94.41725,87.0884 93.52839,87.05187 92.75,87.21875 92.25306,87.3279 91.85794,87.16965 91.3125,87.5 91.08555,87.00481 90.67985,86.62856 90.15625,86.46875 89.63522,86.25441 89.06738,86.25861 88.53125,86.125 z m 281.375,0.625 c 4.1678,0.28617 3.77635,7.06149 3.46875,9.28125 -0.3241,5.01507 -4.1594,6.18425 -7.9375,3.6875 -4.2237,-2.54629 2.95615,-6.10045 -1.21875,-8.46875 -1.8153,-2.70924 3.7067,-3.92658 5.6875,-4.5 z"
       transform="translate(790.68445,257.31302)"
       id="path3367"
       inkscape:connector-curvature="0"
       sodipodi:nodetypes="sssssccccccccccccccsccsccscccccccscccssssccscccsssssccccccccccccccccccccccccccccsscccccccccccccccccccccccccccssssscssscccccscccccccccscccccccsscccccccccccccccccccccccccccccccccccccccccccccccccccccccc" />
  </g>
</svg>
