<?xml version="1.0" encoding="UTF-8" standalone="no"?>
<!-- Created with Inkscape (http://www.inkscape.org/) -->

<svg
   xmlns:dc="http://purl.org/dc/elements/1.1/"
   xmlns:cc="http://creativecommons.org/ns#"
   xmlns:rdf="http://www.w3.org/1999/02/22-rdf-syntax-ns#"
   xmlns:svg="http://www.w3.org/2000/svg"
   xmlns="http://www.w3.org/2000/svg"
   xmlns:sodipodi="http://sodipodi.sourceforge.net/DTD/sodipodi-0.dtd"
   xmlns:inkscape="http://www.inkscape.org/namespaces/inkscape"
   width="567.65417"
   height="573.74957"
   id="svg3054"
   version="1.1"
   inkscape:version="0.48.1 r9760"
   sodipodi:docname="Documento nuevo 6">
  <defs
     id="defs3056" />
  <sodipodi:namedview
     id="base"
     pagecolor="#ffffff"
     bordercolor="#666666"
     borderopacity="1.0"
     inkscape:pageopacity="0.0"
     inkscape:pageshadow="2"
     inkscape:zoom="0.86100282"
     inkscape:cx="283.82709"
     inkscape:cy="286.87479"
     inkscape:document-units="px"
     inkscape:current-layer="layer1"
     showgrid="false"
     fit-margin-top="0"
     fit-margin-left="0"
     fit-margin-right="0"
     fit-margin-bottom="0"
     inkscape:window-width="1280"
     inkscape:window-height="712"
     inkscape:window-x="0"
     inkscape:window-y="0"
     inkscape:window-maximized="0" />
  <metadata
     id="metadata3059">
    <rdf:RDF>
      <cc:Work
         rdf:about="">
        <dc:format>image/svg+xml</dc:format>
        <dc:type
           rdf:resource="http://purl.org/dc/dcmitype/StillImage" />
        <dc:title></dc:title>
      </cc:Work>
    </rdf:RDF>
  </metadata>
  <g
     inkscape:label="Capa 1"
     inkscape:groupmode="layer"
     id="layer1"
     transform="translate(-97.077005,-76.563738)">
    <path
       style="fill:#000000"
       d="m 323.54312,644.17719 c 0.54116,-5.28197 1.41135,-7.78138 4.10036,-11.77723 1.87738,-2.78977 3.66579,-6.33419 3.97425,-7.87647 0.30846,-1.54229 0.96572,-2.80416 1.46058,-2.80416 0.49486,0 1.35794,-1.0125 1.91794,-2.25 1.34505,-2.9723 2.75235,-5.27057 6.7787,-11.07028 1.84052,-2.65115 3.13691,-5.02976 2.88087,-5.2858 -0.25604,-0.25604 1.75318,-2.81191 4.46493,-5.67972 2.71175,-2.86781 6.09513,-7.0142 7.51863,-9.2142 1.42349,-2.2 2.85839,-4.225 3.18867,-4.5 1.49858,-1.24775 6.95421,-8.81452 8.47174,-11.75 0.92407,-1.7875 2.11857,-3.25 2.65445,-3.25 0.53588,0 0.97432,-0.675 0.97432,-1.5 0,-0.825 0.46114,-1.5 1.02475,-1.5 0.91672,0 2.41384,-2.81367 2.92648,-5.5 0.10496,-0.55 0.83387,-1.35986 1.6198,-1.79969 0.78593,-0.43983 1.42897,-1.42997 1.42897,-2.20031 0,-0.77034 0.57868,-1.76048 1.28596,-2.20031 2.08012,-1.29355 8.81825,-11.80487 14.44415,-22.53252 2.87657,-5.48512 6.81407,-12.17769 8.75,-14.87237 1.93594,-2.69469 3.51989,-5.28087 3.51989,-5.74708 0,-0.4662 1.35,-2.71126 3,-4.98902 1.65,-2.27776 3,-4.57147 3,-5.09713 0,-0.52566 1.18524,-3.11705 2.63388,-5.75866 5.33882,-9.73543 7.35785,-13.83015 7.36193,-14.93047 0.002,-0.62015 0.65617,-1.66865 1.45304,-2.32999 0.79686,-0.66134 1.97152,-2.85394 2.61034,-4.87244 0.63882,-2.01851 1.67434,-4.129 2.30115,-4.68998 1.44891,-1.29674 3.63966,-5.15673 3.63966,-6.41288 0,-0.528 1.67536,-3.79661 3.72302,-7.26357 5.28675,-8.95119 6.30877,-10.78099 10.60642,-18.98942 2.10619,-4.02279 4.24369,-7.74166 4.75,-8.26416 0.50631,-0.5225 0.92056,-1.76 0.92056,-2.75 0,-0.99 0.45,-1.8 1,-1.8 0.55,0 1,-0.51543 1,-1.1454 0,-0.62996 2.925,-6.23955 6.5,-12.46575 3.575,-6.22619 6.5,-11.53533 6.5,-11.79808 0,-0.26275 -2.6678,-0.43991 -5.92845,-0.39368 -4.36473,0.0619 -7.20021,-0.54649 -10.75,-2.30651 -6.77733,-3.36028 -8.17906,-6.79387 -6.89543,-16.89058 1.51268,-11.89825 3.61779,-18.82999 9.00891,-29.66454 1.96073,-3.9405 3.56497,-7.7261 3.56497,-8.41245 0,-1.40913 6.0494,-11.24314 7.23193,-11.75634 0.42244,-0.18334 0.76807,-1.64584 0.76807,-3.25 0,-1.6472 0.54406,-2.93256 1.25,-2.95318 0.6875,-0.0201 2.49819,-1.93258 4.02376,-4.25 7.49955,-11.3922 16.23294,-23.67003 19.71299,-27.71349 2.13014,-2.475 4.01704,-4.86155 4.19311,-5.30344 0.30711,-0.77073 -2.66067,-2.52093 -10.17986,-6.0034 -1.925,-0.89155 -5.075,-1.74974 -7,-1.90708 l -3.5,-0.28608 -1.05548,-7.04671 c -1.20393,-8.03774 -1.48766,-7.30208 7.8138,-20.25968 10.79008,-15.03135 24.35082,-25.18728 39.74168,-29.76339 14.86844,-4.42078 18.65042,-5.42752 22.36724,-5.95403 2.27302,-0.32199 5.70776,-1.00835 7.63276,-1.52524 1.925,-0.51689 5.15718,-0.94231 7.18261,-0.94537 2.70911,-0.004 3.8387,-0.49735 4.27305,-1.86587 0.32474,-1.02317 2.11399,-3.2467 3.97611,-4.9412 1.86213,-1.69449 4.19912,-4.45794 5.19332,-6.14099 0.9942,-1.68305 2.55255,-3.29651 3.46298,-3.58547 0.91044,-0.28896 4.07557,-3.28446 7.03364,-6.65666 2.95806,-3.3722 7.29079,-8.04506 9.62829,-10.38413 2.3375,-2.33908 4.25208,-4.63051 4.25463,-5.09206 0.003,-0.46156 1.24004,-2.1892 2.75,-3.8392 1.50995,-1.65 4.06271,-4.9394 5.67279,-7.30977 1.61008,-2.37037 3.6356,-4.68877 4.50115,-5.152 3.95235,-2.11524 28.00589,-33.43711 26.68913,-34.75387 -0.85086,-0.85086 -11.25032,5.99107 -19.68206,12.94907 -2.51039,2.07161 -4.96584,3.76657 -5.45655,3.76657 -0.49071,0 -3.49842,1.82815 -6.68379,4.06257 -8.54037,5.99072 -14.14946,6.31659 -15.72605,0.91362 -0.89673,-3.07306 -0.30111,-13.00639 0.9699,-16.17544 0.7281,-1.81542 2.59216,-4.77891 4.14234,-6.58555 1.55018,-1.80664 2.81851,-3.94414 2.81851,-4.75 0,-1.86805 1.41029,-1.88068 2.9492,-0.0264 0.96455,1.16222 0.41045,2.43016 -2.88267,6.59626 -2.24221,2.83661 -4.29945,6.23916 -4.57164,7.56121 -0.27219,1.32206 -0.72751,3.52496 -1.01183,4.89532 -0.74497,3.59066 1.96465,9.50843 4.3537,9.50843 1.06635,0 4.22846,-1.575 7.02692,-3.5 2.79846,-1.925 5.33096,-3.5 5.62778,-3.5 0.29683,0 3.79518,-2.62821 7.77411,-5.84046 3.97894,-3.21225 9.70943,-7.32122 12.73443,-9.13104 3.025,-1.80982 5.725,-3.56983 6,-3.91114 1.18242,-1.46751 5.90111,-3.29651 6.90465,-2.6763 1.27836,0.79008 1.49526,5.55894 0.25282,5.55894 -0.46339,0 -1.69072,1.575 -2.7274,3.5 -1.03668,1.925 -2.13552,3.5 -2.44187,3.5 -0.30634,0 -1.41125,1.4625 -2.45535,3.25 -1.0441,1.7875 -2.70828,3.83252 -3.69818,4.5445 -0.9899,0.71197 -3.18277,3.30454 -4.87303,5.76126 -1.69027,2.45672 -4.28561,5.59793 -5.76743,6.98046 -2.30228,2.14803 -2.476,2.66927 -1.19421,3.58307 1.27723,0.91056 1.24821,0.98888 -0.19541,0.52737 -1.00316,-0.32069 -2.5118,0.35532 -3.69487,1.65567 -1.09971,1.20872 -3.58368,3.93158 -5.51994,6.05081 -1.93626,2.11922 -3.79139,4.70672 -4.12251,5.75 -0.33113,1.04327 -1.02172,1.89686 -1.53466,1.89686 -0.51293,0 -0.93261,0.62385 -0.93261,1.38634 0,1.3277 -3.80864,5.40813 -14.9104,15.97443 -2.8089,2.67342 -5.37694,5.93592 -5.70676,7.25 -0.32981,1.31408 -1.17926,2.38923 -1.88766,2.38923 -0.7084,0 -2.72127,1.6875 -4.47304,3.75 -1.75178,2.0625 -4.56743,5.21847 -6.25701,7.01326 -1.68957,1.79479 -2.80818,3.52702 -2.4858,3.8494 0.94466,0.94466 27.97847,0.3973 33.84953,-0.68535 2.95413,-0.54476 7.62114,-1.25785 10.37114,-1.58463 3.83889,-0.45619 6.2005,-1.55191 10.1696,-4.71842 2.84328,-2.26834 6.60064,-5.22313 8.34969,-6.56619 2.69724,-2.07116 3.10162,-2.92558 2.6632,-5.62721 -0.43348,-2.67124 -0.11922,-3.36647 1.94736,-4.30807 3.0567,-1.39273 5.47137,-1.4807 3.37015,-0.12279 -1.2819,0.82843 -1.24555,0.9716 0.25,0.98469 0.9625,0.008 1.75,0.48114 1.75,1.05049 0,0.70185 0.64401,0.69052 2,-0.0352 1.1,-0.5887 2,-1.71541 2,-2.5038 0,-0.90883 0.5912,-1.20657 1.6154,-0.81354 1.296,0.49732 1.49555,0.14511 1.00923,-1.78139 -0.33339,-1.3207 -0.34782,-1.83877 -0.0321,-1.15127 0.89852,1.95634 3.23485,1.49552 8.92579,-1.7605 5.29433,-3.02911 8.49354,-3.37761 10.70503,-1.16612 0.92832,0.92832 0.77233,1.91386 -0.69649,4.40039 -2.38412,4.03598 -6.57488,8.77623 -7.75891,8.77623 -0.49578,0 -2.37355,1.12285 -4.17282,2.49522 -1.79927,1.37236 -3.56924,2.19736 -3.93328,1.83333 -0.364,-0.36402 -0.66185,-0.20761 -0.66185,0.34759 0,1.53185 -14.07991,8.16463 -23.26711,10.96069 -2.62192,0.79796 -6.44692,2.43438 -8.5,3.63649 -3.97198,2.32564 -4.94923,3.17928 -15.47575,13.51826 -5.1991,5.10648 -7.0143,6.35128 -7.9285,5.43708 -0.91421,-0.91421 0.71684,-3.03025 7.12413,-9.24253 4.57039,-4.43129 8.03423,-8.33244 7.69744,-8.66923 -0.3368,-0.3368 -5.23337,-0.11816 -10.88128,0.48586 -12.34415,1.32015 -10.84005,1.21822 -23.76893,1.61065 -11.81662,0.35866 -16.20234,1.92633 -17.81009,6.3662 -0.54181,1.49622 -5.7957,7.67041 -11.67531,13.72041 -12.11893,12.47013 -14.60182,15.63759 -12.74344,16.25705 2.03155,0.67719 1.38236,2.51636 -0.69634,1.97277 -1.35672,-0.35479 -1.76676,-0.0906 -1.38866,0.89471 0.36334,0.94686 0.0373,1.20659 -1.01003,0.80469 -0.95638,-0.36701 -2.42986,0.44651 -3.86134,2.13187 -3.40926,4.01392 -6.06226,6.46577 -8.31479,7.68437 -1.86108,1.00682 -1.89581,0.94911 -0.5,-0.83085 8.26415,-10.5386 13.72344,-16.72336 27.45897,-31.10791 3.82743,-4.00828 7.64416,-8.41705 8.48162,-9.79725 0.83745,-1.3802 2.04527,-2.50945 2.68404,-2.50945 1.27132,0 2.7431,-2.96561 1.89344,-3.81526 -0.82477,-0.82477 -19.6628,1.84261 -23.01807,3.25925 -1.65,0.69665 -6.15,2.30235 -10,3.56822 -8.37554,2.75386 -19.5,7.97197 -19.5,9.14681 0,0.46254 -0.66388,0.84098 -1.47528,0.84098 -2.47115,0 -13.9699,12.18973 -16.03636,17 -1.06324,2.475 -2.19613,4.725 -2.51753,5 -1.4956,1.27965 -3.33249,7.69959 -3.11729,10.89492 0.31256,4.64109 1.82254,6.16352 10.58492,10.67219 l 7.29927,3.75583 3.13114,-2.22956 c 1.72212,-1.22626 3.13113,-2.55633 3.13113,-2.95572 0,-1.44885 8.02926,-9.29457 9.13485,-8.92604 0.96253,0.32084 -2.30851,4.95459 -10.03126,14.21027 -0.88197,1.05705 -1.04109,1.59299 -0.35359,1.19099 0.76008,-0.44444 1.25,-0.16559 1.25,0.71147 0,0.79331 0.7875,1.68273 1.75,1.97647 0.9625,0.29375 4.9,1.74219 8.75,3.21876 3.85,1.47658 8.8,2.89683 11,3.15612 2.2,0.2593 5.575,0.89324 7.5,1.40877 3.15235,0.84423 3.74033,0.6631 5.91961,-1.82357 l 2.4196,-2.7609 -0.66249,2.64574 c -0.75992,3.03486 1.02091,4.28494 5.58588,3.92108 1.51943,-0.12111 4.04267,0.061 5.60721,0.40458 2.23279,0.49041 2.7709,1.09837 2.50193,2.82669 -1.05423,6.77422 -2.35039,11.06194 -4.70557,15.56614 -1.55865,2.98086 -2.23235,5.28585 -1.65012,5.64569 0.54117,0.33446 0.98395,-0.0934 0.98395,-0.9509 0,-0.85746 0.74474,-1.55902 1.65499,-1.55902 1.49949,0 1.4883,0.18418 -0.11907,1.96031 -0.97573,1.07817 -2.12149,1.86567 -2.54614,1.75 -1.00555,-0.27391 -4.98942,4.27007 -4.991,5.6927 -6.7e-4,0.60334 -1.12567,2.40448 -2.5,4.00253 -1.37433,1.59805 -2.49878,3.41795 -2.49878,4.04424 0,0.62629 -1.8,3.06903 -4,5.42831 -2.2,2.35929 -4,4.88938 -4,5.62243 0,0.73305 -0.35416,1.48281 -0.78702,1.66615 -0.43287,0.18333 -2.34537,2.32427 -4.25,4.75764 -1.90464,2.43338 -6.83798,7.84214 -10.96298,12.01948 -4.125,4.17735 -9.68217,10.1598 -12.34927,13.29435 -4.44785,5.22739 -11.87672,11.12569 -18.49239,14.6824 -1.45325,0.78129 -3.24053,2.01879 -3.97173,2.75 -0.73121,0.7312 -1.87232,1.32946 -2.5358,1.32946 -1.48368,0 -3.22514,2.0231 -7.3167,8.5 -4.32332,6.84378 -13.33365,22.64921 -13.33612,23.3935 -0.001,0.33357 -2.02611,3.68583 -4.5,7.44945 -2.4739,3.76362 -4.49799,7.66362 -4.49799,8.66666 0,1.00305 -0.3375,1.97372 -0.75,2.15706 -0.4125,0.18333 -1.87017,2.58333 -3.23927,5.33333 -1.36909,2.75 -3.68629,6.8 -5.14932,9 -1.46303,2.2 -3.42487,5.8 -4.35964,8 -3.63143,8.54663 -6.01905,13.06452 -7.72497,14.6173 -0.97724,0.88951 -1.7768,2.17004 -1.7768,2.84562 0,0.67559 -0.83446,2.42281 -1.85435,3.88271 -1.01989,1.4599 -2.67471,5.35437 -3.67738,8.65437 -1.00267,3.3 -3.0535,7.43293 -4.55741,9.18429 -1.50391,1.75137 -3.05131,4.22637 -3.43868,5.5 -0.38737,1.27364 -1.88958,3.88366 -3.33825,5.80004 -4.35977,5.76737 -8.13393,13.02333 -8.13393,15.63779 0,0.75784 -0.57267,1.37788 -1.2726,1.37788 -0.69992,0 -2.16242,1.6875 -3.25,3.75 -1.08757,2.0625 -2.75975,4.61683 -3.71596,5.67629 -0.95621,1.05945 -2.02376,2.82486 -2.37234,3.92312 -0.34857,1.09826 -1.4592,2.88283 -2.46806,3.96571 -1.00885,1.08289 -2.75981,3.81748 -3.89102,6.07688 -1.13121,2.2594 -4.06153,6.808 -6.51183,10.108 -6.77743,9.12768 -16.51819,23.26131 -16.51819,23.96754 0,0.34538 -1.06326,1.61897 -2.3628,2.83021 -1.29954,1.21124 -3.66204,4.04942 -5.25,6.30707 -1.58796,2.25765 -5.03697,7.05699 -7.66446,10.6652 -3.41706,4.69247 -4.81564,7.58105 -4.91203,10.14518 -0.078,2.07492 -0.64721,3.5848 -1.35142,3.5848 -0.66916,0 -1.76141,1.31517 -2.42723,2.92259 -0.66581,1.60742 -2.50791,4.19492 -4.09354,5.75 -1.61648,1.58533 -2.89762,3.92566 -2.91632,5.32741 -0.0466,3.49672 -1.89852,9.80552 -3.09541,10.54525 -0.65289,0.40351 -0.7611,-1.70616 -0.31223,-6.08739 z m 144.0222,-252.65548 c 4.14464,-0.15582 7.36324,-2.33044 7.36324,-4.97493 0,-0.95044 0.5625,-2.08793 1.25,-2.52776 0.6875,-0.43983 1.90624,-1.92469 2.7083,-3.29969 2.50804,-4.29958 6.98436,-12.43239 7.70564,-14 0.3796,-0.825 0.94842,-1.725 1.26404,-2 0.31563,-0.275 1.61642,-2.525 2.89065,-5 2.31253,-4.49174 5.77916,-9.70528 8.98579,-13.51389 0.93257,-1.10765 2.37058,-3.35765 3.19558,-5 0.825,-1.64236 2.07299,-3.59124 2.77331,-4.33085 0.70032,-0.73961 1.89175,-2.54067 2.64762,-4.00236 0.75587,-1.46169 2.32038,-3.5138 3.47669,-4.56025 1.15631,-1.04644 2.10238,-2.50788 2.10238,-3.24764 0,-0.73975 0.3375,-1.35742 0.75,-1.37259 0.4125,-0.0152 2.54736,-2.71517 4.74414,-6 2.19677,-3.28483 4.59877,-5.97242 5.33777,-5.97242 0.78358,0 -0.63813,2.77722 -3.4108,6.66276 -2.61494,3.66451 -4.75444,7.28375 -4.75444,8.04274 0,0.75899 -1.45191,2.65478 -3.22647,4.21286 -1.77456,1.55809 -3.53253,3.79717 -3.90659,4.97575 -0.37407,1.17857 -2.00396,3.59228 -3.62198,5.36379 -1.61803,1.77151 -2.74711,3.72846 -2.50907,4.34878 0.23804,0.62032 -0.76765,2.44325 -2.23488,4.05097 -3.52915,3.86707 -6.04679,7.68196 -9.44124,14.30601 -1.5399,3.00501 -3.14288,5.70501 -3.56217,6 -1.6465,1.15838 -12.16427,18.01345 -12.16427,19.49365 0,0.74356 4.85391,-2.34828 7.5,-4.77733 1.1,-1.00978 3.46617,-2.45443 5.25815,-3.21035 3.44835,-1.45462 29.04491,-26.50951 35.72566,-34.96963 2.1716,-2.75 4.23376,-5.225 4.58258,-5.5 0.34881,-0.275 1.22153,-1.625 1.93937,-3 0.71784,-1.375 2.75387,-4.3 4.5245,-6.5 3.81951,-4.74571 14.59073,-26.92243 14.81383,-30.5 0.14434,-2.31446 -0.21329,-2.5233 -4.8187,-2.81396 -2.73603,-0.17268 -5.54599,-0.78818 -6.24435,-1.36776 -1.40361,-1.16489 -4.05992,1.36938 -6.9105,6.59301 -2.08675,3.82394 -6.13875,8.15383 -6.90936,7.38322 -0.33505,-0.33505 1.25749,-3.56485 3.53898,-7.17734 2.28149,-3.61248 3.8906,-6.98491 3.5758,-7.49427 -0.3148,-0.50936 -3.38568,-1.23736 -6.82417,-1.61778 -3.43848,-0.38042 -7.55843,-1.3247 -9.15543,-2.0984 -1.597,-0.7737 -3.67792,-1.40672 -4.62427,-1.40672 -0.94635,0 -3.55202,-0.64615 -5.79038,-1.43589 -3.65952,-1.29115 -4.00892,-1.2774 -3.46637,0.13645 0.40929,1.0666 0.15005,1.41342 -0.80599,1.07826 -0.77514,-0.27174 -1.34766,-1.2283 -1.27225,-2.12569 0.0754,-0.89738 -0.22367,-1.40865 -0.66459,-1.13614 -0.44093,0.27251 -0.96448,0.007 -1.16344,-0.58978 -0.39487,-1.18461 -5.83613,3.79662 -9.80907,8.97979 -1.375,1.79385 -3.73031,4.68612 -5.23403,6.42727 -1.50371,1.74115 -2.74121,4.21732 -2.75,5.50259 -0.0112,1.64295 -0.86165,2.65608 -2.86392,3.41185 -1.92255,0.72568 -3.46599,2.48152 -4.75,5.40366 -1.04613,2.38078 -2.18707,4.33295 -2.53542,4.33816 -0.34835,0.005 -0.89779,0.79697 -1.22097,1.75947 -0.32318,0.9625 -1.16316,2.63295 -1.86663,3.71212 -5.55452,8.52098 -11.88615,20.08655 -11.63309,21.24941 0.19203,0.88246 -0.54657,2.91993 -3.18591,8.78847 -6.82426,15.17363 -7.55361,28.79551 -1.73565,32.41618 2.59445,1.61459 10.92204,3.98524 11.97641,3.40937 0.38543,-0.21051 2.38162,-0.44594 4.43597,-0.52317 z m 162.5079,-188.78574 c 3.49544,-1.09084 7.82872,-2.89084 9.62951,-4 1.80079,-1.10915 3.94794,-2.01664 4.77144,-2.01664 0.8235,0 1.99965,-1.1026 2.61366,-2.45022 0.61402,-1.34763 2.29793,-2.86211 3.74202,-3.36553 2.99032,-1.04242 9.09871,-5.91244 9.09871,-7.25409 0,-2.0709 -4.96871,-2.08863 -7.86251,-0.0281 -1.62043,1.15384 -3.26403,2.0979 -3.65246,2.0979 -0.38843,0 -3.60302,2.025 -7.14354,4.5 -3.54052,2.475 -6.86575,4.5 -7.3894,4.5 -0.52365,0 -0.95494,0.3375 -0.95841,0.75 -0.003,0.4125 -1.39952,1.54299 -3.10231,2.5122 -2.00412,1.14073 -2.89463,2.28691 -2.52506,3.25 0.40806,1.06339 -0.11644,1.4878 -1.83868,1.4878 -1.32528,0 -2.68771,0.45 -3.02763,1 -0.88423,1.43072 0.46549,1.2571 7.64466,-0.98336 z M 470.40663,636.26826 c -0.69623,-9.28648 -0.0499,-40.16297 0.9639,-46.04893 0.28421,-1.65 0.71109,-6.15 0.94863,-10 0.23754,-3.85 0.9031,-8.35 1.47902,-10 0.99478,-2.85007 1.58637,-6.65192 2.80087,-18 0.29432,-2.75 0.91912,-5.47233 1.38845,-6.04961 0.46934,-0.57729 1.1358,-3.05229 1.48104,-5.5 0.34523,-2.44772 1.48882,-7.37539 2.5413,-10.95039 1.05249,-3.575 2.81685,-11.225 3.92081,-17 1.10395,-5.775 2.28256,-11.7375 2.61913,-13.25 0.52178,-2.34483 0.2914,-2.75 -1.56366,-2.75 -1.19658,0 -1.92123,-0.41157 -1.61035,-0.91459 0.31089,-0.50302 -5e-5,-1.17387 -0.69098,-1.49077 -0.69093,-0.3169 -0.30712,-0.34513 0.85289,-0.0627 3.59348,0.87479 5.39088,-0.46326 5.39088,-4.01317 0,-3.96558 1.97328,-9.75087 6.08717,-17.84648 2.93904,-5.78366 2.99919,-6.13594 1.26426,-7.40456 -1.7386,-1.27129 -1.72615,-1.35695 0.27321,-1.87979 2.23857,-0.5854 9.37536,-13.01614 9.37536,-16.32984 0,-1.01425 0.675,-2.10311 1.5,-2.4197 0.825,-0.31658 1.5,-1.20752 1.5,-1.97987 0,-1.93702 3.83365,-10.43765 5.04478,-11.18618 0.54332,-0.33578 0.75809,-0.98227 0.47728,-1.43663 -0.28082,-0.45437 0.16184,-1.08415 0.98368,-1.39952 0.82184,-0.31537 1.49426,-1.19278 1.49426,-1.9498 0,-0.75702 0.9,-2.19088 2,-3.18637 1.1,-0.99549 2,-2.20845 2,-2.69548 0,-1.07208 4.19474,-7.16913 5.25623,-7.63993 0.41593,-0.18448 0.5501,-0.66895 0.29815,-1.0766 -0.25194,-0.40765 1.35708,-2.93778 3.57561,-5.62251 2.21853,-2.68473 4.73465,-6.25026 5.59138,-7.9234 0.85673,-1.67314 1.99729,-3.32601 2.53457,-3.67304 0.53728,-0.34703 2.16199,-2.64962 3.61047,-5.11686 1.44847,-2.46725 5.94902,-8.14582 10.0012,-12.61904 l 7.36761,-8.13317 5.13239,0.006 c 2.82282,0.003 6.35257,0.64272 7.84391,1.42073 9.08327,4.73865 13.42779,8.05996 11.83263,9.04583 -0.4856,0.30011 -1.48328,-0.0547 -2.21706,-0.78849 -1.86493,-1.86477 -13.56108,-5.68407 -17.40726,-5.68407 -3.77134,0 -11.18864,6.54901 -19.25391,17 -2.75891,3.575 -5.7357,7.29831 -6.61509,8.27403 -0.87939,0.97571 -2.97667,4.01321 -4.66063,6.75 -1.68396,2.73678 -3.39339,4.97597 -3.79872,4.97597 -0.40533,0 -1.75233,1.9125 -2.99332,4.25 -1.241,2.3375 -3.99106,6.95 -6.11124,10.25 -5.27853,8.21584 -12.07997,21.54043 -11.48585,22.50173 0.26809,0.43379 -0.14254,1.03045 -0.91252,1.32592 -0.76998,0.29546 -1.71593,2.03012 -2.10213,3.85478 -0.38619,1.82466 -1.62936,4.84323 -2.76259,6.70792 -1.86967,3.07646 -1.91189,3.49897 -0.45601,4.56354 1.42358,1.04094 1.27078,1.48809 -1.35559,3.96697 -1.62801,1.53658 -3.86505,4.88299 -4.9712,7.43646 -1.10615,2.55347 -2.46064,5.44848 -3.00998,6.43336 -0.54934,0.98487 -0.75122,2.19128 -0.44862,2.6809 0.30261,0.48962 0.12118,1.15537 -0.40316,1.47943 -0.52435,0.32406 -0.92845,2.39359 -0.89802,4.59894 0.0477,3.45929 0.31365,3.92775 1.93705,3.4125 1.27057,-0.40326 1.8817,-0.11076 1.8817,0.90061 0,0.82381 -1.0125,1.64164 -2.25,1.81739 -3.03854,0.43154 -5.39137,5.5461 -6.81739,14.81955 -0.63432,4.125 -1.77663,8.71125 -2.53847,10.19166 -0.76184,1.48041 -2.01996,7.23342 -2.79582,12.78448 -0.77587,5.55106 -1.86342,10.63981 -2.41679,11.30835 -1.0186,1.23059 -3.15113,11.47812 -3.64079,17.49525 -0.14679,1.80386 -0.53567,3.54852 -0.86417,3.87702 -0.3285,0.3285 0.0523,2.15203 0.84633,4.0523 1.22187,2.92434 1.23639,3.86482 0.0945,6.12298 -3.25948,6.44607 -3.9613,13.64761 -4.03638,41.41796 -0.055,20.33768 -0.3848,27.75 -1.23472,27.75 -0.7478,0 -1.41136,-3.35674 -1.86827,-9.45107 z M 127.9687,355.09965 c -3.52381,-2.96509 -5.78636,-7.65331 -6.05819,-12.55316 -0.10152,-1.82994 -0.10918,-3.55216 -0.017,-3.82716 0.2419,-0.72177 1.25874,-14.83004 1.38742,-19.25 0.06,-2.0625 0.40425,-3.75 0.7649,-3.75 0.36065,0 0.89064,-1.2375 1.17775,-2.75 1.88092,-9.90869 10.9273,-38.55793 12.85157,-40.7 0.46937,-0.5225 0.85341,-1.56355 0.85341,-2.31344 0,-0.74989 2.30211,-6.17239 5.1158,-12.05 10.24273,-21.39635 10.14707,-21.13771 8.91663,-24.10825 -1.35784,-3.27812 0.31315,-9.13273 2.09737,-7.34851 0.74064,0.74064 0.72956,1.66448 -0.0372,3.0971 -0.60095,1.12289 -1.09264,2.8013 -1.09264,3.7298 0,1.38723 0.26741,1.46626 1.5,0.4433 0.825,-0.68469 1.5,-1.62383 1.5,-2.08698 0,-0.46314 1.96729,-4.12054 4.37176,-8.12755 2.40446,-4.00701 4.99196,-8.49292 5.75,-9.96868 3.82511,-7.44686 9.08547,-15.81679 9.9406,-15.81679 1.15358,0 -1.5312,6.75559 -3.588,9.02834 -0.79716,0.88084 -1.96733,3.14731 -2.60039,5.03659 -0.63306,1.88929 -1.93195,4.33507 -2.88643,5.43507 -1.77197,2.04212 -5.87383,9.07634 -9.14723,15.68642 -1.00405,2.02754 -2.27888,3.96659 -2.83293,4.30902 -0.55406,0.34243 -1.00738,1.41151 -1.00738,2.37575 0,0.96423 -0.9,3.61594 -2,5.89267 -1.1,2.27674 -2,4.58782 -2,5.13572 0,0.54791 -2.25166,5.14023 -5.00369,10.20516 -2.75203,5.06493 -5.47416,11.05088 -6.04917,13.30211 -1.70775,6.68604 -4.27732,13.98822 -5.48708,15.59315 -1.55845,2.06751 -3.09359,6.49187 -4.51067,13 -0.65866,3.025 -1.57704,6.625 -2.04083,8 -1.15955,3.43773 -2.02044,13.241 -2.13223,24.28071 -0.11501,11.35652 1.73338,16.27593 6.58805,17.5339 1.72451,0.44687 4.22751,0.60374 5.56222,0.34859 4.24293,-0.81109 10.32019,-8.1658 15.43115,-18.67482 2.67177,-5.49361 5.54409,-11.33838 6.38295,-12.98838 3.66823,-7.21529 6.24351,-12.52191 9.7059,-20 7.7052,-16.64173 12.99848,-26.85119 20.59335,-39.71958 12.77185,-21.64004 15.34335,-25.8168 17.71005,-28.76567 1.2375,-1.54191 2.25,-3.301 2.25,-3.90911 0,-0.6081 0.36665,-1.10564 0.81479,-1.10564 0.44813,0 1.53786,-1.5163 2.42161,-3.36955 0.88376,-1.85325 4.1171,-6.91264 7.18521,-11.24309 4.16521,-5.87893 5.57839,-8.74534 5.57839,-11.31485 0,-3.45292 2.85481,-15.13572 3.92748,-16.07251 1.25874,-1.09929 4.07252,-6.90598 4.07252,-8.40429 0,-0.87764 0.47787,-1.59571 1.06193,-1.59571 0.58405,0 3.50344,-1.15503 6.48753,-2.56672 2.98408,-1.4117 5.88287,-2.28412 6.44174,-1.93872 1.2563,0.77644 0.3112,5.16297 -1.83255,8.50544 -0.88188,1.375 -1.50335,2.8375 -1.38103,3.25 0.12231,0.4125 -0.22762,0.75 -0.77762,0.75 -0.55,0 -1,0.59326 -1,1.31835 0,0.72509 -1.60751,3.08759 -3.57225,5.25 -1.96473,2.16241 -3.99642,4.83165 -4.51485,5.93165 -0.51842,1.1 -1.80302,3.35 -2.85466,5 -3.01826,4.73561 -2.57191,7.8758 1.76794,12.43794 3.55999,3.74232 4.05553,3.95637 7.1227,3.07672 4.48377,-1.28593 6.56862,-2.77661 13.47329,-9.63348 6.05374,-6.01185 16.57783,-19.49854 16.57783,-21.24462 0,-0.53344 0.36331,-1.11989 0.80736,-1.30323 1.07294,-0.44298 10.37844,-16.8933 13.48188,-23.83333 3.35891,-7.51133 5.16453,-17.67631 3.78459,-21.30582 -1.40824,-3.70396 -7.09506,-6.10631 -12.43387,-5.2526 -5.38421,0.86097 -21.26394,8.6891 -22.93965,11.30842 -0.43983,0.6875 -1.45233,1.25 -2.25,1.25 -0.79767,0 -1.45031,0.45 -1.45031,1 0,0.55 -0.56912,1 -1.26471,1 -1.3546,0 -12.86114,10.74848 -19.00494,17.75288 -2.17582,2.48059 -3.73035,5.2935 -3.73035,6.75 0,2.75662 -1.4553,3.35897 -2.36813,0.98018 -2.37932,-6.20042 23.27094,-31.06749 41.65093,-40.3792 8.61809,-4.36611 14.82383,-5.03498 21.07187,-2.27118 4.75509,2.10341 6.64533,4.85164 6.64533,9.66169 0,3.36734 -6.68018,23.17978 -9.56944,28.38158 -1.33681,2.40678 -2.43056,4.95678 -2.43056,5.66667 0,0.70989 -0.34466,1.44071 -0.76592,1.62405 -1.20775,0.52562 -8.23408,12.81774 -8.23408,14.405 0,0.78558 -0.38947,1.42833 -0.86548,1.42833 -0.47601,0 -3.60228,3.30863 -6.94726,7.35251 -16.50045,19.94804 -24.82117,24.41986 -32.64922,17.54675 -1.94235,-1.70541 -3.28145,-3.50541 -2.97578,-4 0.30568,-0.49459 0.11221,-0.89926 -0.42992,-0.89926 -0.54213,0 -1.13765,-0.7875 -1.32338,-1.75 -0.23837,-1.23535 -1.5098,-0.0296 -4.32332,4.10013 -2.1921,3.21757 -5.67314,8.04183 -7.73564,10.72058 -2.0625,2.67875 -3.75,5.26617 -3.75,5.74983 0,0.48366 -1.30471,2.68048 -2.89935,4.88182 -4.45367,6.14811 -11.11095,17.14458 -14.40712,23.79764 -1.63494,3.3 -3.7689,7.13699 -4.74212,8.52664 -2.60667,3.72201 -16.79707,31.66738 -19.02863,37.47336 -1.05697,2.75 -1.922,5.75 -1.92228,6.66667 -2.7e-4,0.91666 -0.39802,1.81666 -0.88388,2 -1.16804,0.44074 -9.11662,15.4492 -9.11662,17.21394 0,0.75598 -0.63883,1.90468 -1.41961,2.55267 -0.78079,0.64799 -2.18826,3.31573 -3.12773,5.92829 -3.04427,8.46583 -12.78234,17.13843 -19.24397,17.13843 -1.83719,0 -4.29644,-1.0444 -6.16855,-2.61968 z M 242.92676,178.96933 c 9.9e-4,-0.6875 0.40366,-1.25 0.89481,-1.25 0.49116,0 1.15203,-0.675 1.46862,-1.5 1.04849,-2.73232 -1.38354,-1.55965 -6.29692,3.03624 -5.01766,4.69343 -8.39686,11.03744 -9.56859,17.96376 -0.62811,3.71293 -0.16796,3.24645 6.4118,-6.5 3.89866,-5.775 7.08928,-11.0625 7.09028,-11.75 z M 541.53818,287.8967 c -0.81564,-1.31973 0.32268,-4.17737 1.66404,-4.17737 0.58282,0 0.79717,-0.2625 0.47634,-0.58333 -0.32083,-0.32084 0.16667,-1.38104 1.08333,-2.35602 0.91667,-0.97497 2.79167,-3.24858 4.16667,-5.05246 2.9362,-3.85204 7.87176,-9.77402 10,-11.99859 0.825,-0.86235 3.39152,-3.7318 5.70338,-6.37658 2.31186,-2.64477 4.6324,-4.54353 5.15674,-4.21947 0.52435,0.32407 0.74724,-0.19899 0.49532,-1.16234 -0.58094,-2.22154 9.48638,-12.80939 10.86695,-11.42882 1.0977,1.0977 -5.05256,10.02065 -6.97239,10.11571 -0.6875,0.0341 -1.25,0.404 -1.25,0.82212 0,1.5877 -5.17061,6.25237 -6.21502,5.60689 -0.66212,-0.40921 -0.80799,-0.21336 -0.36951,0.49612 0.67667,1.09487 -3.7314,7.66232 -7.47499,11.13677 -0.88891,0.825 -4.669,5.325 -8.4002,10 -8.566,10.73275 -8.20112,10.35779 -8.93066,9.17737 z m 39.94966,-48.08145 c -0.30915,-0.50021 1.49939,-3.03058 4.01897,-5.62304 3.37735,-3.47504 4.87493,-4.4197 5.69946,-3.59517 0.82453,0.82453 0.21239,2.06013 -2.32966,4.70242 -4.09421,4.25567 -6.6022,5.78848 -7.38877,4.51579 z M 146.06428,207.90994 c -1.4706,-2.06527 -2.17334,-5.17747 -2.65317,-11.75 -1.15012,-15.75406 -3.49813,-19.25858 -12.11208,-18.07791 -3.75764,0.51504 -5.46525,1.52052 -9.54138,5.61813 -2.73056,2.74495 -4.70181,5.4161 -4.38056,5.9359 0.59988,0.97061 -1.16731,2.52315 -2.94853,2.5904 -0.55,0.0208 -0.9006,0.92765 -0.7791,2.01531 0.1215,1.08766 -0.0263,1.42174 -0.32838,0.74241 -0.68557,-1.54159 -4.49438,0.29947 -11.18483,5.40641 -2.845243,2.17182 -4.788973,3.08492 -5.029684,2.36277 -0.410501,-1.2315 3.566094,-6.03403 4.996304,-6.03403 0.45413,0 1.64161,-0.7875 2.63885,-1.75 0.99724,-0.9625 4.12941,-3.71598 6.96038,-6.11885 2.83097,-2.40287 5.05255,-4.87207 4.93684,-5.48712 -0.2616,-1.3905 16.99064,-10.55774 19.96289,-10.60759 3.06308,-0.0514 7.83448,4.27604 9.61142,8.71706 1.38084,3.45105 3.50612,14.96597 4.03699,21.87268 0.39059,5.08171 3.01153,3.84094 11.26705,-5.33391 4.3512,-4.83575 8.47672,-9.38986 9.16782,-10.12025 0.6911,-0.73038 1.77771,-2.30538 2.41469,-3.5 1.53425,-2.87737 14.40863,-18.33323 18.59848,-22.32771 4.16497,-3.97075 13.36391,-10.34431 14.92992,-10.34431 2.38459,0 2.26734,1.93246 -0.284,4.68089 -1.43934,1.55051 -3.30691,4.16911 -4.15017,5.81911 -0.84326,1.65 -3.28298,4.91331 -5.4216,7.25181 -2.13862,2.3385 -4.43057,5.4885 -5.09322,7 -0.66265,1.5115 -2.68087,4.88569 -4.48494,7.49819 -1.80407,2.6125 -3.02898,4.75 -2.72203,4.75 0.30696,0 -0.65255,1.58725 -2.13224,3.52722 -1.47968,1.93997 -2.90426,3.3133 -3.16572,3.05184 -0.62505,-0.62505 7.39088,-15.50527 9.73914,-18.07906 1.00361,-1.1 2.65508,-3.40068 3.66994,-5.11262 1.01486,-1.71194 3.13737,-5.21976 4.71669,-7.79517 1.57933,-2.5754 2.62688,-4.92717 2.32791,-5.22614 -1.22122,-1.22123 -21.89331,22.24066 -25.15716,28.55224 -0.90114,1.74262 -2.63285,3.62148 -3.84824,4.17525 -1.21539,0.55377 -4.16668,3.67973 -6.55843,6.94659 -8.62323,11.77834 -14.13386,14.57974 -17.99985,9.15046 z m 458.36428,-3.19061 c 0.33992,-0.55 0.81648,-1 1.05902,-1 0.24254,0 0.44098,0.45 0.44098,1 0,0.55 -0.47656,1 -1.05902,1 -0.58246,0 -0.7809,-0.45 -0.44098,-1 z m -26.44274,-29.62752 c -1.17619,-1.9935 -1.90929,-3.85379 -1.6291,-4.13397 1.01264,-1.01265 5.57184,2.85404 5.57184,4.72553 0,3.3933 -1.74619,3.13131 -3.94274,-0.59156 z m -113.67248,-2.13779 c -1.58999,-1.04746 -2.75417,-5.19281 -2.52187,-8.97968 0.25832,-4.21096 3.66926,-15.39136 6.64691,-21.78732 1.28854,-2.76777 2.65081,-6.25952 3.02727,-7.75945 0.37646,-1.49993 1.08462,-2.97445 1.57369,-3.27671 1.66723,-1.0304 0.89456,-2.12315 -1.36078,-1.92447 -5.55218,0.48909 -21.25222,9.99396 -29.19735,17.6762 -2.17104,2.09921 -4.32676,3.81674 -4.79049,3.81674 -1.06709,0 -6.9083,4.08478 -8.25289,5.77128 -0.55746,0.6992 -2.353,1.51416 -3.99011,1.81102 -1.63711,0.29687 -3.21115,0.87588 -3.49786,1.28669 -1.36691,1.95856 -5.7585,4.13101 -8.3508,4.13101 -2.15314,0 -2.73854,0.38031 -2.30887,1.5 0.39501,1.0294 -0.0605,1.5 -1.45203,1.5 -1.1152,0 -1.80055,-0.36743 -1.523,-0.81652 0.27755,-0.44908 -0.80841,-1.59215 -2.41325,-2.54015 -2.83523,-1.67482 -4.47232,-5.4239 -5.08421,-11.64333 -0.31546,-3.20643 2.94963,-13.68219 5.37648,-17.25 1.02881,-1.5125 1.64898,-2.75 1.37814,-2.75 -0.5055,0 1.24722,-2.20607 7.34096,-9.23978 l 3.48472,-4.02224 -3.48472,0.74494 c -1.9166,0.40972 -5.00218,1.36867 -6.85684,2.13101 -1.85467,0.76234 -4.44217,1.38607 -5.75,1.38607 -1.30784,0 -2.37788,0.38634 -2.37788,0.85854 0,0.4722 -3.4875,1.43344 -7.75,2.1361 -4.2625,0.70266 -13.6,2.83052 -20.75,4.72857 -14.76232,3.91884 -26.64542,4.98851 -29.02154,2.61239 -0.81315,-0.81315 -1.47846,-1.86417 -1.47846,-2.3356 0,-1.55071 3.10535,-4 5.07143,-4 1.06071,0 1.92857,-0.4 1.92857,-0.88889 0,-0.48889 0.5625,-0.83906 1.25,-0.77815 1.90527,0.16878 12.53501,-2.28516 19.16516,-4.42441 9.99473,-3.22485 19.67787,-2.03058 14.67261,1.80964 -1.36204,1.04501 -1.37452,1.22103 -0.0878,1.23813 2.47238,0.0329 12.01682,-2.7254 13.39841,-3.87201 0.70709,-0.58683 1.55978,-0.79279 1.89488,-0.45769 0.3351,0.3351 2.7687,-0.0983 5.40799,-0.96317 15.82437,-5.18532 18.29875,-6.11137 18.29875,-6.84838 0,-0.44829 0.96398,-0.81507 2.14219,-0.81507 1.1782,0 4.4407,-1.9482 7.25,-4.32934 10.924,-9.25908 30.98105,-20.54603 49.97993,-28.12584 12.65717,-5.0497 15.16392,1.78125 4.45809,12.14839 -4.98094,4.82336 -26.84586,16.29073 -31.08021,16.30047 -1.5125,0.004 -2.75,0.40524 -2.75,0.89282 0,0.48757 -1.2375,1.13612 -2.75,1.44121 -5.28229,1.06552 -18.25,5.87645 -18.25,6.77063 0,0.49591 -1.30637,0.90166 -2.90305,0.90166 -2.16088,0 -4.06105,1.21434 -7.43268,4.75 -5.82255,6.10581 -11.64153,13.46894 -11.65671,14.75 -0.007,0.55 -1.29109,3.475 -2.85461,6.5 -3.30394,6.39224 -3.29926,12.65263 0.0117,15.64901 3.57848,3.23848 15.47991,1.11968 21.22628,-3.7789 1.51142,-1.28843 13.52562,-10.12941 15.4511,-11.37011 0.85356,-0.55 2.69618,-2.0125 4.09473,-3.25 1.39854,-1.2375 3.05254,-2.25 3.67556,-2.25 0.62302,0 3.94747,-2.25 7.38768,-5 3.44021,-2.75 6.61542,-5 7.05603,-5 0.44061,0 1.48098,-0.67987 2.31194,-1.51083 0.83095,-0.83095 3.55421,-1.7909 6.05169,-2.13321 5.8175,-0.79738 6.75849,1.03935 3.72805,7.27691 -1.18124,2.43134 -2.14771,4.89258 -2.14771,5.4694 0,0.57683 -1.889,4.27729 -4.19779,8.22325 -4.38506,7.49455 -6.95404,17.10287 -5.79512,21.67448 1.24346,4.90503 6.87427,2.62257 16.65221,-6.75 2.4386,-2.3375 4.792,-4.25 5.22979,-4.25 0.43778,0 1.58701,-1.4625 2.55385,-3.25 0.96683,-1.7875 3.53294,-4.36576 5.70247,-5.72947 2.16952,-1.3637 5.52945,-4.5137 7.4665,-7 1.93706,-2.48629 3.86393,-4.52053 4.28193,-4.52053 0.418,0 2.22569,-1.46568 4.01707,-3.25707 1.79139,-1.79139 5.35678,-4.45252 7.92308,-5.91363 2.56631,-1.46111 5.87665,-3.76639 7.35631,-5.12283 3.89747,-3.57291 5.8097,-2.39598 5.8097,3.57572 0,7.30877 2.8001,27.08074 4.60704,32.53111 1.16004,3.49908 2.31118,5.08531 4.21601,5.80952 2.80532,1.06658 7.17695,-0.21341 7.17695,-2.10138 0,-0.56179 0.675,-1.02144 1.5,-1.02144 2.57872,0 1.64946,1.74451 -2.19485,4.12042 -5.93318,3.66691 -10.20679,2.47484 -12.69397,-3.54081 -1.67387,-4.04853 -5.34566,-20.28953 -6.54189,-28.93592 -1.05067,-7.59433 -1.74292,-8.97827 -3.19398,-6.38536 -0.53608,0.95792 -1.45007,1.74167 -2.0311,1.74167 -1.15648,0 -7.81502,4.99436 -11.97251,8.98021 -1.44556,1.38588 -3.24556,3.05889 -4,3.71779 -0.75443,0.65891 -3.39593,3.25154 -5.86999,5.76142 -2.47407,2.50988 -5.23817,4.79824 -6.14246,5.08525 -0.90429,0.28701 -2.16163,1.77111 -2.79409,3.29801 -0.63246,1.5269 -2.47761,3.56046 -4.10034,4.51903 -1.62273,0.95857 -3.40173,2.58614 -3.95334,3.61684 -0.90181,1.68505 -9.31765,8.02145 -10.65388,8.02145 -0.29818,0 -1.68631,0.9 -3.08473,2 -2.70483,2.12762 -4.09133,2.41836 -5.88809,1.23469 z m -93.56056,-45.77569 c 10.14823,-2.47508 11.09723,-2.93756 9.43621,-4.59857 -1.38233,-1.38233 -16.50251,1.43754 -22.6315,4.2207 -2.27091,1.03122 -5.47893,1.93807 -7.12893,2.01522 l -3,0.14028 3,0.74774 c 3.77491,0.94089 8.53932,0.34889 20.32422,-2.52537 z m 77.01725,-21.49449 c 3.07721,-1.17099 4.70731,-2.39933 4.80223,-3.61863 0.28481,-3.6585 0.4414,-3.81747 1.88305,-1.91167 1.43086,1.89155 1.59011,1.89433 7.21819,0.12619 8.31454,-2.61213 18.44085,-8.16517 23.16165,-12.70134 5.29908,-5.09183 5.24613,-6.2491 -0.25751,-5.62876 -6.99402,0.78833 -13.49282,3.66804 -13.84461,6.13475 -0.25027,1.75492 -1.09469,2.19133 -4.74384,2.4517 -4.2757,0.30507 -9.19669,2.81728 -11.81063,6.02944 -0.73351,0.90138 -1.25,1.05636 -1.25,0.37507 0,-1.8644 -13.39846,7.76876 -14.38649,10.34353 -0.64812,1.68898 1.61613,1.29632 9.22796,-1.60028 z m -115.84147,65.00411 c 0,-0.53274 0.675,-0.96862 1.5,-0.96862 0.825,0 1.5,0.17686 1.5,0.39301 0,0.21616 -0.675,0.65203 -1.5,0.96862 -0.825,0.31658 -1.5,0.13972 -1.5,-0.39301 z m -100.53057,-0.83252 c -0.25818,-0.25819 -0.46943,-1.06943 -0.46943,-1.80277 0,-1.78423 5.41597,-1.74197 6.90641,0.0539 0.93832,1.13061 0.49286,1.46409 -2.40813,1.80276 -1.95767,0.22855 -3.77066,0.2043 -4.02885,-0.0539 z m 98.63229,-4.52782 c -1.2358,-1.31545 -2.37009,-3.00295 -2.52066,-3.75 -0.15056,-0.74705 -0.78769,-2.61139 -1.41584,-4.14297 -0.62815,-1.53158 -1.09401,-3.10658 -1.03524,-3.5 0.0588,-0.39342 0.0161,-0.94031 -0.0949,-1.21531 -0.67265,-1.66701 -1.27148,-11.67346 -1.12395,-18.78139 0.0611,-2.94412 0.5889,-4.47327 1.68978,-4.89572 1.89895,-0.72869 3.62547,1.54916 2.78709,3.67711 -0.32503,0.825 -0.59428,6.225 -0.59833,12 -0.0106,15.1077 2.32582,19.97519 9.61531,20.0318 3.81775,0.0296 3.96358,0.13121 2.15388,1.5 -2.88935,2.1854 -6.90486,1.79327 -9.45715,-0.92352 z m 209.22121,-28.79624 c -2.47282,-1.19558 -2.60338,-0.9486 4.85743,-9.18875 4.51089,-4.9821 13.71744,-10.5556 20.06979,-12.14994 1.51242,-0.37959 2.74985,-1.07726 2.74985,-1.55038 0,-0.47311 0.59748,-0.63093 1.32774,-0.3507 0.73025,0.28022 3.88025,0.10922 7,-0.38 l 5.67226,-0.8895 0,2.9556 c 0,2.4345 -0.30855,2.8231 -1.75,2.20406 -2.33007,-1.00065 -3.53154,-0.88813 -11.75,1.10039 -3.85,0.93153 -7.71043,2.31098 -8.57874,3.06544 -0.86831,0.75445 -2.12403,1.37174 -2.79049,1.37174 -2.72295,0 -13.13077,8.55761 -13.13077,10.79649 0,1.03667 0.949,1.31153 3.5,1.01371 4.35403,-0.5083 4.54488,0.6299 0.35078,2.09197 -3.74596,1.30585 -4.66328,1.29487 -7.52785,-0.0901 z"
       id="path3127"
       inkscape:connector-curvature="0" />
  </g>
</svg>
