<?xml version="1.0" encoding="UTF-8" standalone="no"?>
<!-- Created with Inkscape (http://www.inkscape.org/) -->

<svg
   xmlns:dc="http://purl.org/dc/elements/1.1/"
   xmlns:cc="http://creativecommons.org/ns#"
   xmlns:rdf="http://www.w3.org/1999/02/22-rdf-syntax-ns#"
   xmlns:svg="http://www.w3.org/2000/svg"
   xmlns="http://www.w3.org/2000/svg"
   xmlns:sodipodi="http://sodipodi.sourceforge.net/DTD/sodipodi-0.dtd"
   xmlns:inkscape="http://www.inkscape.org/namespaces/inkscape"
   width="517.98822"
   height="431.75162"
   id="svg2"
   version="1.1"
   inkscape:version="0.48.0 r9654"
   sodipodi:docname="Documento nuevo 1">
  <defs
     id="defs4" />
  <sodipodi:namedview
     id="base"
     pagecolor="#ffffff"
     bordercolor="#666666"
     borderopacity="1.0"
     inkscape:pageopacity="0.0"
     inkscape:pageshadow="2"
     inkscape:zoom="0.73417969"
     inkscape:cx="200.99951"
     inkscape:cy="184.70945"
     inkscape:document-units="px"
     inkscape:current-layer="layer1"
     showgrid="false"
     fit-margin-top="0"
     fit-margin-left="0"
     fit-margin-right="0"
     fit-margin-bottom="0"
     inkscape:window-width="1366"
     inkscape:window-height="706"
     inkscape:window-x="-8"
     inkscape:window-y="-8"
     inkscape:window-maximized="1" />
  <metadata
     id="metadata7">
    <rdf:RDF>
      <cc:Work
         rdf:about="">
        <dc:format>image/svg+xml</dc:format>
        <dc:type
           rdf:resource="http://purl.org/dc/dcmitype/StillImage" />
        <dc:title></dc:title>
      </cc:Work>
    </rdf:RDF>
  </metadata>
  <g
     inkscape:label="Capa 1"
     inkscape:groupmode="layer"
     id="layer1"
     transform="translate(-149.00049,-285.32001)">
    <path
       style="fill:#000000;fill-opacity:1;fill-rule:nonzero;stroke:#000000;stroke-width:0.73048443;stroke-linecap:square;stroke-linejoin:miter;stroke-miterlimit:4;stroke-opacity:1;stroke-dasharray:2.9219377, 5.84387541;stroke-dashoffset:0"
       id="path2997"
       d="m 297.63086,365.94993 c -0.79827,-0.9694 -1.65378,-1.89438 -2.39482,-2.9082 -3.03277,-4.14919 -5.66111,-8.58318 -8.67278,-12.74771 -4.84672,-6.70204 -8.55623,-11.51218 -14.63934,-17.25522 -2.99704,-2.82949 -6.31643,-5.29677 -9.47464,-7.94515 -3.57576,-2.20589 -6.97284,-4.73186 -10.72726,-6.61768 -11.04425,-5.54743 -22.16751,-8.31113 -33.86013,-2.62022 -11.24685,5.47394 -14.34626,11.29146 -22.61526,20.83712 -3.52557,6.33351 -7.49869,12.43783 -10.57669,19.00051 -7.47045,15.92793 -12.78309,32.92203 -17.13725,49.91795 -4.10219,16.01241 -8.03085,36.27767 -9.84682,52.77722 -0.86922,7.89747 -1.01599,15.8578 -1.52399,23.7867 0.47089,17.03971 0.57041,35.71371 11.38103,50.09107 2.61649,3.47973 5.73227,6.81406 9.54569,8.91464 11.13137,6.13157 20.30409,3.42744 32.45236,2.63382 7.64678,-1.78877 15.37571,-3.25697 22.94033,-5.36633 15.24102,-4.24988 32.10075,-10.58215 46.8936,-16.19918 16.54904,-6.28387 32.93952,-12.98557 49.3516,-19.61577 5.58286,-1.92884 20.48009,-8.19171 23.72236,2.00244 3.19295,10.03911 -3.34417,31.16685 -5.21538,38.69955 -3.05798,12.31014 -6.39607,24.54901 -9.5941,36.82351 -16.69449,69.60732 -8.32779,33.80146 -25.0294,107.43408 -2.06245,-21.2635 15.6865,-97.68429 18.43915,-109.15135 3.99313,-15.32201 11.19485,-41.6988 14.76303,-58.92584 0.70785,-3.41747 1.45296,-6.86639 1.54684,-10.35514 0.03,-1.11424 -0.1716,-2.66096 -1.184,-3.12729 -3.71024,-1.70899 -12.73074,2.22228 -14.89755,2.91456 -16.47405,6.6552 -32.92612,13.38382 -49.53886,19.68823 -14.84756,5.63453 -32.42566,12.23289 -47.72047,16.44686 -7.94927,2.19015 -16.07322,3.68805 -24.10983,5.53208 -15.36743,0.67577 -23.87632,3.58248 -37.53683,-4.5221 -4.37373,-2.59488 -7.89195,-6.58098 -10.87756,-10.6979 -11.2966,-15.57715 -11.72734,-35.32944 -12.12816,-53.65903 0.52921,-8.12475 0.69181,-16.28171 1.58764,-24.37424 1.8545,-16.75286 5.86474,-37.41683 10.04542,-53.67115 4.45131,-17.30653 10.0321,-35.13306 17.73198,-51.33007 3.3146,-6.9724 7.59897,-13.44096 11.39845,-20.16145 9.43964,-10.61852 12.98129,-17.14877 26.003,-22.93051 13.59638,-6.03691 26.52632,-3.03072 39.1817,3.42115 4.03376,2.05646 7.68108,4.79603 11.52162,7.19404 3.35534,2.83564 6.88118,5.48102 10.06601,8.5069 6.34255,6.026 10.23546,11.07869 15.29336,18.0737 5.03484,6.23392 15.20754,26.86418 5.43595,19.4854 z"
       inkscape:connector-curvature="0"
       sodipodi:nodetypes="cssscsscssscsscsscsscccscscsscsscssscsscscc" />
    <path
       style="fill:#000000;fill-opacity:1;fill-rule:nonzero;stroke:#000000;stroke-width:0.73048443;stroke-linecap:square;stroke-linejoin:miter;stroke-miterlimit:4;stroke-opacity:1;stroke-dasharray:2.9219377, 5.84387541;stroke-dashoffset:0"
       id="path3015"
       d="m 554.79487,360.69224 c 2.68033,-3.47418 5.10295,-7.13977 7.65442,-10.70966 7.29786,-12.79028 17.25152,-29.5792 9.67863,-44.66983 -1.49786,-2.98482 -3.6108,-5.81227 -6.30431,-7.78654 -3.15622,-2.31343 -7.16761,-3.14324 -10.75142,-4.71486 -5.15613,-0.0344 -10.36498,-0.83927 -15.46841,-0.10309 -31.31026,4.51658 -61.9284,28.11655 -82.99709,50.36012 -6.6551,7.02622 -12.45903,14.81233 -18.68854,22.2185 -14.15777,21.18748 -18.88077,26.13208 -28.95156,49.6694 -11.44513,26.74939 -18.02096,55.7963 -21.87583,84.54177 -7.87068,8.04849 -6.3593,84.27689 -7.51764,79.68621 -2.94494,-40.58257 -2.39667,-24.73252 -1.99878,-51.89182 0.93489,-9.64963 1.50971,-19.34095 2.80467,-28.94889 3.96452,-29.41469 10.74632,-59.10069 22.50658,-86.45353 10.38817,-24.16154 15.2598,-29.26169 29.82442,-50.99128 6.41619,-7.60263 12.39201,-15.59991 19.24858,-22.80788 13.43027,-14.11857 27.59135,-26.06385 44.38026,-36.00397 12.76214,-7.55602 28.43405,-14.44918 43.44034,-16.1867 6.04049,-0.6994 12.151,0.51001 18.2265,0.76502 4.41171,2.24457 9.41395,3.58729 13.23511,6.7337 3.2922,2.71086 5.76165,6.46637 7.51625,10.35336 5.61237,12.43309 1.53951,26.37962 -3.88856,37.93889 -1.9914,4.24076 -4.58758,8.17024 -6.88136,12.25537 -2.65428,3.70282 -5.17793,7.50285 -7.96283,11.10846 -31.35363,37.70601 -39.40595,36.75269 -5.22943,-4.36275 z"
       inkscape:connector-curvature="0"
       sodipodi:nodetypes="ccsscsscscccsscssscsssccc" />
    <path
       style="fill:#000000;fill-opacity:1;fill-rule:nonzero;stroke:#000000;stroke-width:0.73048443;stroke-linecap:square;stroke-linejoin:miter;stroke-miterlimit:4;stroke-opacity:1;stroke-dasharray:2.9219377, 5.84387541;stroke-dashoffset:0"
       id="path3021"
       d="m 425.64512,480.78823 c -0.32686,18.1749 3.82707,35.9928 8.18133,53.50992 3.5453,12.36758 7.47066,24.62612 12.19344,36.598 1.30965,3.31987 3.99039,10.0929 6.20512,13.47492 0.56592,0.86419 1.43306,1.4882 2.1496,2.23231 0.55163,-0.75895 0.7753,-1.72581 1.35053,-2.46555 5.98134,-7.69197 0.27111,1.10728 6.99441,-8.44313 3.83817,-5.45209 4.99534,-8.10389 8.26167,-14.1949 7.54771,-15.80327 13.45632,-32.30146 18.79812,-48.95695 0.60377,-1.27096 2.09831,-10.13011 5.48073,-9.2327 4.28272,1.13628 3.96229,3.47695 4.2442,6.33272 1.47034,16.51149 4.81541,32.77093 8.33015,48.94512 3.3203,13.58682 6.87068,27.58189 14.28058,39.61073 0.49937,0.60175 0.87313,1.33528 1.49811,1.80525 0.78534,0.59055 1.09376,-0.66142 1.34216,-0.89503 0.86826,-0.81651 1.87925,-1.46975 2.76397,-2.2684 5.807,-5.24211 8.37782,-8.10885 14.28248,-14.1463 17.72327,-19.62528 34.05476,-40.45422 52.22693,-59.68405 12.14121,-12.84787 13.26392,-13.46209 25.7934,-24.85795 8.23595,-7.11288 16.88872,-13.71986 26.15158,-19.43632 3.5291,-2.17794 6.77104,-3.98154 10.75179,-5.04574 0.86988,0.0637 1.79651,-0.12451 2.60963,0.19104 4.62795,1.79601 3.75238,7.00515 3.60725,10.91809 -0.48729,9.03161 1.199,17.99036 1.63774,26.99236 0.14928,3.06313 0.14717,6.13177 0.22076,9.19766 9.07566,24.81407 -22.98273,56.15304 -20.68445,50.50277 l -6.81032,4.08619 c 2.47568,-4.5795 12.19718,-13.03529 14.23736,-17.8247 4.94798,-11.61558 6.17689,-24.14091 6.44896,-36.60448 -0.0675,-2.94409 -0.0597,-5.89087 -0.20236,-8.83228 -0.44917,-9.26085 -2.18205,-18.47836 -1.65329,-27.77128 0.0294,-0.78469 0.0589,-1.56938 0.0883,-2.35406 0.0142,-0.55018 0.023,-1.10052 0.0426,-1.65053 0.008,-0.22812 -0.14403,-0.54912 0.0404,-0.68359 0.15931,-0.11615 1.733,1.49966 2.01594,0.45287 -3.14479,0.60147 -5.99802,2.51243 -8.67293,4.15782 -8.94771,5.50389 -17.29308,11.88765 -25.24816,18.7437 -12.29495,11.16893 -13.39647,11.76967 -25.33355,24.39798 -18.23265,19.28843 -34.59687,40.20065 -52.40001,59.86762 -2.92902,2.99165 -5.80012,6.04112 -8.78705,8.97494 -3.91337,3.84378 -9.9054,10.88861 -16.37114,9.7502 -2.80578,-0.494 -3.86551,-2.49095 -5.4096,-4.43642 -7.71302,-12.74247 -11.72207,-27.32612 -15.12217,-41.7123 -3.56959,-16.43553 -6.95974,-32.95826 -8.45381,-49.73597 -0.43978,-4.67109 -0.62904,-0.23508 3.4999,-0.2461 1.0037,-0.003 1.45991,-1.40627 2.32864,-1.90899 0.24841,-0.14375 -0.26785,0.50908 -0.37178,0.7766 -0.60766,1.5642 -1.46983,4.32526 -1.91804,5.70359 -5.46946,17.05027 -11.52698,33.9386 -19.28494,50.10234 -3.90344,7.2399 -7.69939,14.21066 -13.08886,20.47684 -2.3906,2.77948 -5.67159,6.77086 -9.73166,7.33863 -1.66465,0.23279 -3.23254,-0.92288 -4.84881,-1.38433 -1.03994,-1.20974 -2.25012,-2.29185 -3.11982,-3.62923 -2.29291,-3.52593 -5.16066,-10.72065 -6.54472,-14.23377 -4.81421,-12.21981 -8.82193,-24.7298 -12.42876,-37.3547 -4.47517,-18.05691 -8.72123,-36.41984 -8.38187,-55.15046 0,-4.81562 6.81032,-4.81562 6.81032,0 z"
       inkscape:connector-curvature="0"
       sodipodi:nodetypes="ccsscssccscccscscscscscscccscscccccscscssccccscccsscssccc" />
    <path
       style="fill:#000000;fill-opacity:1;fill-rule:nonzero;stroke:#000000;stroke-width:0.73048443;stroke-linecap:square;stroke-linejoin:miter;stroke-miterlimit:4;stroke-opacity:1;stroke-dasharray:2.9219377, 5.84387541;stroke-dashoffset:0"
       id="path3045"
       d="m 248.83072,704.74671 c 3.49531,0.84345 6.77467,1.69179 10.37068,2.23387 28.99895,4.3714 59.2124,2.75361 88.35029,1.98464 88.89565,-3.54761 153.86983,-8.71638 241.46638,-23.58578 4.74772,-0.80587 -22.71596,3.18428 1.13968,1.26603 l -2.72413,0 c -87.91424,14.92178 -150.48458,25.5779 -239.70292,29.12772 -29.84484,0.78188 -60.1877,2.39942 -89.86176,-2.11391 -3.72588,-0.5667 -6.81211,-1.36985 -10.37383,-2.2345 -4.72211,-0.94442 -3.3865,-7.62249 1.33561,-6.67807 z"
       inkscape:connector-curvature="0"
       sodipodi:nodetypes="cscscccscc" />
  </g>
</svg>
