<?xml version="1.0" encoding="UTF-8" standalone="no"?>
<!-- Created with Inkscape (http://www.inkscape.org/) -->

<svg
   xmlns:dc="http://purl.org/dc/elements/1.1/"
   xmlns:cc="http://creativecommons.org/ns#"
   xmlns:rdf="http://www.w3.org/1999/02/22-rdf-syntax-ns#"
   xmlns:svg="http://www.w3.org/2000/svg"
   xmlns="http://www.w3.org/2000/svg"
   xmlns:sodipodi="http://sodipodi.sourceforge.net/DTD/sodipodi-0.dtd"
   xmlns:inkscape="http://www.inkscape.org/namespaces/inkscape"
   width="302.46487"
   height="306.56317"
   id="svg2"
   version="1.1"
   inkscape:version="0.48.4 r9939"
   sodipodi:docname="Firmas.svg">
  <defs
     id="defs4" />
  <sodipodi:namedview
     id="base"
     pagecolor="#ffffff"
     bordercolor="#666666"
     borderopacity="1.0"
     inkscape:pageopacity="0.0"
     inkscape:pageshadow="2"
     inkscape:zoom="1.3721033"
     inkscape:cx="266.49873"
     inkscape:cy="151.30204"
     inkscape:document-units="px"
     inkscape:current-layer="g3877"
     showgrid="false"
     fit-margin-top="1"
     fit-margin-left="1"
     fit-margin-right="1"
     fit-margin-bottom="1"
     inkscape:window-width="1280"
     inkscape:window-height="961"
     inkscape:window-x="-8"
     inkscape:window-y="-8"
     inkscape:window-maximized="1" />
  <metadata
     id="metadata7">
    <rdf:RDF>
      <cc:Work
         rdf:about="">
        <dc:format>image/svg+xml</dc:format>
        <dc:type
           rdf:resource="http://purl.org/dc/dcmitype/StillImage" />
        <dc:title></dc:title>
      </cc:Work>
    </rdf:RDF>
  </metadata>
  <g
     inkscape:label="Capa 1"
     inkscape:groupmode="layer"
     id="layer1"
     transform="translate(-41.191483,-376.38626)">
    <g
       id="g3877">
      <path
         style="fill:#000000"
         d="m 49.5625,-5.21875 c -0.685201,-0.0023 -1.2127,0.433285 -2.21875,1.34375 -3.53868,3.20246 -6.6305,9.5976 -8.1875,16.875 -0.82371,3.85 -2.68958,12.4 -4.125,19 -1.43543,6.6 -3.02265,15.825 -3.53125,20.5 -3.15269,28.97876 -5.22215,44.566 -6.1875,46.40625 -0.60728,1.15766 -2.2869,3.50732 -3.71875,5.21875 -1.43184,1.71144 -4.61875,5.74297 -7.09375,8.96875 -2.475,3.22577 -9.835854,11.44234 -16.34375,18.28125 -6.50789,6.83891 -12.566349,13.60737 -13.46875,15.03125 -3.059252,4.82711 -16.549903,19.14937 -17.3125,18.375 -2.15566,-2.18895 2.567254,-30.33923 6.75,-40.21875 0.832607,-1.96659 2.143698,-6.9375 2.90625,-11.0625 0.762553,-4.125 2.698898,-14.025 4.3125,-22 3.137208,-15.5052 4.462343,-24.62536 6.25,-43.21875 1.741166,-18.10984 -1.181355,-33.9142 -7.25,-39.40625 -1.807131,-1.63543 -2.257068,-1.66684 -4.59375,-0.34375 -2.075767,1.1753464 -3.745942,3.503863 -5.09375,7.28125 -0.105649,0.198249 -0.184663,0.364389 -0.1875,0.46875 -2.45e-4,0.009 -0.03029,0.142626 -0.03125,0.15625 -2.708682,8.119687 -3.996946,22.574951 -4.46875,46.5625 -1.273163,64.73026 -2.181471,75.65037 -7.125,87.21875 -3.947723,9.23809 -4.06539,12.62024 -0.5,13.125 2.310157,0.32704 2.338653,0.45977 1.65625,8.5 -0.381275,4.49227 -1.331918,11.75625 -2.09375,16.15625 -0.761831,4.4 -1.39612,9.84798 -1.40625,12.09375 -0.01806,4.00213 -0.652377,8.3427 -3.5,23.40625 -0.779792,4.125 -1.907967,11.1 -2.5,15.5 -1.521913,11.31088 -3.034014,21.22511 -4.09375,26.8125 -1.304476,6.87778 -1.106601,20.75115 0.34375,23.59375 1.765354,3.45999 3.313718,3.62379 6.34375,0.59375 2.471944,-2.47194 2.609808,-3.11656 2.125,-9.15625 -0.703908,-8.76919 1.430015,-32.62343 6.21875,-69.8125 1.131155,-8.78448 2.0625,-17.09756 2.0625,-18.46875 0,-6.86399 13.266628,-27.94308 28.15625,-44.71875 C -4.856325,143.91458 1.375003,136.61577 5.5,131.625 c 4.125,-4.99077 7.79818,-9.07625 8.1875,-9.09375 0.38931,-0.0176 1.87815,-1.9808 3.28125,-4.375 1.40309,-2.3942 3.41638,-5.17559 4.5,-6.15625 1.82522,-1.6518 2.02842,-1.6484 2.625,-0.0937 0.35418,0.92299 0.162,5.81063 -0.4375,10.875 -0.5995,5.06438 -1.58265,14.39375 -2.1875,20.71875 -0.60485,6.325 -1.50789,13.075 -2,15 -0.49212,1.925 -1.38538,8.675 -1.96875,15 -0.58337,6.325 -1.48218,13.975 -2,17 -1.65926,9.693 -3.02806,40.63847 -3.1875,71.5 -0.13399,25.93459 0.03834,30.50415 1.46875,33.8125 1.157,2.67602 2.1838,3.73542 3.40625,3.5 3.30192,-0.63589 3.76581,-4.96919 2.5,-24.5625 -1.40139,-21.69171 -1.46506,-49.79947 -0.125,-62.75 0.5122,-4.95 1.60019,-17.325 2.40625,-27.5 C 25.49211,140.02428 30.16211,100.92954 32.5,96.40625 33.18276,95.08527 34.56514,93.1 35.5625,92 38.43848,88.82802 52.03603,60.87536 55.375,51.28125 64.32912,25.55271 63.18556,2.1622 52.6875,-3.84375 51.080715,-4.763 50.247701,-5.2164463 49.5625,-5.21875 z M 51,0.5625 c 2.996585,-0.21648364 5.580954,4.5697875 6.21875,13.875 1.08514,15.83181 -3.9165,35.59818 -14.3125,56.65625 -3.01351,6.10416 -6.57583,12.15828 -7.9375,13.4375 l -2.46875,2.3125 0,-7.25 C 32.5,70.72173 34.03676,55.5696 35.96875,45.5 38.55681,32.01098 39.494,26.21856 39.5,23.59375 c 0.0034,-1.42077 0.61821,-3.76832 1.375,-5.21875 0.7568,-1.45044 2.1663,-5.05044 3.125,-8 2.093381,-6.4405469 4.669323,-9.64412384 7,-9.8125 z M -21.0625,14.375 c 2.297604,0.137329 4.459823,5.146496 5.53125,15.53125 1.147044,11.11769 -0.361748,32.29419 -3,42.09375 -1.184575,4.4 -2.523912,11.24916 -3,15.21875 -0.476088,3.96959 -2.301995,11.50832 -4.03125,16.75 -1.729255,5.24169 -3.507433,9.74614 -3.96875,10.03125 -1.079477,0.66715 -0.211429,-62.49908 1.0625,-77.15625 1.284606,-14.780019 4.452188,-22.645316 7.40625,-22.46875 z m 77.96875,110.28125 c -0.709622,0.0248 -1.487446,0.14881 -2.375,0.34375 -7.21933,1.58563 -13.3654,13.72392 -14.65625,29 -0.3718,4.4 -1.07162,9.08376 -1.5625,10.40625 l -0.90625,2.40625 -2.75,-2.65625 c -3.01657,-2.89006 -5.65811,-3.425 -6.46875,-1.3125 -0.76486,1.99318 6.57868,17.65911 10.03125,21.40625 4.84247,5.25561 8.35422,4.63197 15.59375,-2.8125 l 5.90625,-6.09375 2.1875,2.09375 c 2.68766,2.52492 4.51232,2.59649 8.4375,0.34375 2.9751,-1.70747 3.03534,-1.69629 5.15625,1 2.46002,3.12742 4.97719,3.42037 8.96875,1.0625 2.66658,-1.57519 2.95471,-1.55129 5.5625,0.5 3.39665,2.6718 4.65874,2.70878 6.96875,0.15625 1.66347,-1.83811 2.01806,-1.88052 4.125,-0.5 2.77851,1.82055 5.71055,1.90619 8.3125,0.28125 1.57601,-0.98424 2.27389,-0.89243 3.8125,0.5 2.37973,2.1536 4.65464,2.17354 8.28125,0.0312 2.80323,-1.65591 2.92673,-1.63574 5,1 2.382,3.02821 5.45322,3.44351 8.71875,1.15625 1.65275,-1.15763 2.69344,-1.28288 4.15625,-0.5 3.6702,1.96423 7.75042,1.20931 10.75,-1.96875 3.43115,-3.63531 3.7473,-3.65769 7.5,-0.5 2.27649,1.91554 4.12309,2.5 7.84375,2.5 3.83863,0 4.97539,0.38776 5.4375,1.84375 1.32344,4.16978 5.23913,6.44375 11.75,6.8125 5.79075,0.32797 6.51371,0.64031 9.78125,4.21875 1.94071,2.12538 4.71378,4.57025 6.15625,5.4375 4.46192,2.68263 13.83922,4.45307 26.875,5.09375 6.875,0.33789 13.85,1.00577 15.5,1.5 4.04445,1.21143 5,0.84918 5,-1.9375 0,-4.37351 -4.32349,-5.68158 -22.84375,-6.90625 -19.49983,-1.28946 -22.06533,-2.19644 -28.625,-10.03125 -4.06718,-4.85779 -4.41189,-5.0478 -9.375,-5.0625 -6.2557,-0.0186 -6.91309,-0.38851 -9.3125,-5.46875 -1.99569,-4.22547 -2.49329,-4.39082 -10.84375,-3.375 -2.98055,0.36259 -3.01835,0.34265 -3.03125,-4.625 -0.0134,-5.18526 -0.82072,-7.5 -2.65625,-7.5 -0.58809,0 -3.92107,2.925 -7.375,6.5 -3.45392,3.575 -6.74322,6.5 -7.34375,6.5 -0.64488,0 -1.09375,-2.05129 -1.09375,-5.03125 0,-4.08883 -0.50514,-5.53639 -2.59375,-7.625 -2.91738,-2.91738 -3.6085,-2.49177 -5.21875,3.1875 -0.62677,2.21056 -1.83005,4.91056 -2.6875,6 -1.44959,1.84179 -1.52204,1.58277 -1,-3.53125 0.58337,-5.71486 -0.91143,-10.5 -3.28125,-10.5 -0.67197,0 -2.90696,3.375 -4.96875,7.5 -4.86593,9.73521 -6.87694,10.01606 -6.40625,0.90625 0.2736,-5.29517 -0.0356,-6.9419 -1.46875,-8.375 -1.71072,-1.71072 -1.85969,-1.67271 -3.59375,0.46875 -0.99405,1.2276 -1.78125,3.06581 -1.78125,4.09375 0,2.74653 -3.07896,9.90625 -4.25,9.90625 -0.64478,0 -0.75583,-2.32899 -0.3125,-6.46875 0.81426,-7.60349 0.1453,-10.53125 -2.46875,-10.53125 -2.18197,0 -3.44178,2.02485 -4.34375,7 -0.349,1.925 -1.59525,5.04405 -2.75,6.9375 -1.74203,2.85643 -2.22964,3.16448 -2.96875,1.84375 -0.52514,-0.93833 -0.52418,-3.63373 0.03125,-6.5625 1.19697,-6.31158 0.14629,-10.61107 -2.71875,-11.03125 -2.2533,-0.33046 -2.40928,-0.0179 -3.75,8.25 -0.86579,5.33904 -4.16512,11.5625 -6.125,11.5625 -1.37194,0 -1.49825,-0.94824 -0.90625,-6.75 0.320906,-3.14494 0.66,-7.50305 0.8125,-10.625 0.36481,-1.98662 0.399262,-3.6828 0.09375,-4.84375 C 80.752067,149.17002 80.239743,149 78.53125,149 c -2.23925,0 -2.63256,0.64472 -4.125,7.21875 -1.71169,7.53986 -6.16144,15.7063 -8.21875,15.03125 -1.9917,-0.65353 -1.91228,-5.14564 0.25,-14.25 2.55186,-10.74467 2.57324,-13.63364 0.125,-18.3125 -1.06428,-2.03397 -2.66612,-5.81949 -3.5625,-8.40625 -1.440278,-4.15634 -3.018722,-5.73247 -6.09375,-5.625 z M 56.5,131.625 c 3.588948,-0.0562 3.645775,3.41986 1.1875,22.40625 -0.94285,7.2821 -3.56635,14.37067 -7.21875,19.5 -4.29823,6.0363 -5.47388,3.505 -5.34375,-11.5625 0.15301,-17.71504 4.30632,-29.54392 10.625,-30.28125 0.271068,-0.0316 0.510737,-0.0588 0.75,-0.0625 z"
         transform="translate(96.656372,382.60502)"
         id="path3918"
         inkscape:connector-curvature="0"
         sodipodi:nodetypes="ssssssssssssssssscccsssssssssssssssscssssssssssssssssssssssccsscsssssssssssssscccsscccssssssssssssssssssssssssssssssssssssssssssssssscsssssccssssssscssssc" />
    </g>
  </g>
</svg>
