<?xml version="1.0" encoding="UTF-8" standalone="no"?>
<!-- Created with Inkscape (http://www.inkscape.org/) -->

<svg
   xmlns:dc="http://purl.org/dc/elements/1.1/"
   xmlns:cc="http://creativecommons.org/ns#"
   xmlns:rdf="http://www.w3.org/1999/02/22-rdf-syntax-ns#"
   xmlns:svg="http://www.w3.org/2000/svg"
   xmlns="http://www.w3.org/2000/svg"
   xmlns:sodipodi="http://sodipodi.sourceforge.net/DTD/sodipodi-0.dtd"
   xmlns:inkscape="http://www.inkscape.org/namespaces/inkscape"
   width="259.17511"
   height="161.70087"
   id="svg3213"
   version="1.1"
   inkscape:version="0.48.1 r9760"
   sodipodi:docname="Documento nuevo 16">
  <defs
     id="defs3215" />
  <sodipodi:namedview
     id="base"
     pagecolor="#ffffff"
     bordercolor="#666666"
     borderopacity="1.0"
     inkscape:pageopacity="0.0"
     inkscape:pageshadow="2"
     inkscape:zoom="3.0550238"
     inkscape:cx="103.40118"
     inkscape:cy="80.850433"
     inkscape:document-units="px"
     inkscape:current-layer="layer1"
     showgrid="false"
     fit-margin-top="0"
     fit-margin-left="0"
     fit-margin-right="0"
     fit-margin-bottom="0"
     inkscape:window-width="1280"
     inkscape:window-height="712"
     inkscape:window-x="0"
     inkscape:window-y="0"
     inkscape:window-maximized="0" />
  <metadata
     id="metadata3218">
    <rdf:RDF>
      <cc:Work
         rdf:about="">
        <dc:format>image/svg+xml</dc:format>
        <dc:type
           rdf:resource="http://purl.org/dc/dcmitype/StillImage" />
        <dc:title></dc:title>
      </cc:Work>
    </rdf:RDF>
  </metadata>
  <g
     inkscape:label="Capa 1"
     inkscape:groupmode="layer"
     id="layer1"
     transform="translate(-234.59795,-99.884656)">
    <path
       style="fill:#000000"
       d="m 239.45238,260.76693 c -0.36667,-0.36666 -0.65255,-1.37916 -0.63529,-2.25 0.0508,-2.56397 17.81183,-19.40809 35.56688,-33.73079 2.14596,-1.73111 6.17404,-5.33176 8.95131,-8.00144 2.77726,-2.66969 7.72084,-7.10333 10.98573,-9.85254 12.48716,-10.51482 18.60824,-16.42736 37.36649,-36.09338 14.2489,-14.93846 17.76798,-18.7897 16.59821,-18.16488 -1.52047,0.81214 -21.68692,8.49728 -24.25,9.24132 -1.2375,0.35924 -2.25,0.2253 -2.25,-0.29765 0,-0.52295 1.0125,-1.18267 2.25,-1.46606 3.01571,-0.69059 8.3715,-2.6103 13.25,-4.74927 2.2,-0.96459 5.8,-2.30705 8,-2.98326 5.99224,-1.84181 6.97,-2.48801 7.31955,-4.8375 0.17575,-1.18133 0.91089,-2.14788 1.63364,-2.14788 0.72275,0 3.01949,-1.9125 5.10388,-4.25 2.08438,-2.3375 7.19925,-8.03011 11.36636,-12.65025 4.16711,-4.62014 7.42657,-8.89514 7.24324,-9.5 -0.18334,-0.60486 -0.0502,-0.81664 0.29578,-0.47063 0.34601,0.34602 2.45364,-1.07223 4.68362,-3.15165 4.00215,-3.73194 4.03771,-3.82724 2.75333,-7.37912 -0.71565,-1.97909 -1.72146,-3.59835 -2.23515,-3.59835 -0.51368,0 0.13922,-0.84136 1.45089,-1.86968 3.39931,-2.665 8.02395,-3.48032 10.30016,-1.81591 1.81714,1.32872 1.80074,1.47962 -0.51946,4.77882 -1.31771,1.87373 -2.9912,3.78503 -3.71887,4.24734 -1.0781,0.68494 -1.03889,1.15453 0.2118,2.53653 4.68335,5.17504 7.88454,19.41154 5.40614,24.04248 -0.7122,1.33077 -2.79641,3.25591 -4.63157,4.2781 -4.21064,2.34533 -23.78243,7.83799 -31.52276,8.84659 -4.89974,0.63847 -6.48984,1.37912 -9.70858,4.52213 -2.11704,2.06724 -3.60936,4.14664 -3.31625,4.62089 0.2931,0.47425 0.11208,0.73862 -0.40226,0.58749 -0.51434,-0.15113 -3.3023,2.20023 -6.19546,5.22522 -2.89316,3.02501 -9.0555,9.44048 -13.69409,14.25662 -5.0086,5.2003 -8.14568,9.2228 -7.72436,9.9045 0.4133,0.66875 0.27049,0.87662 -0.34214,0.49799 -0.57837,-0.35745 -3.4604,1.74219 -6.40451,4.66587 -2.94411,2.92367 -8.27178,7.75911 -11.83927,10.7454 -3.56749,2.98629 -8.74249,7.50629 -11.5,10.04445 -2.75751,2.53816 -7.22749,6.58816 -9.93329,9 -2.70579,2.41185 -6.64329,6.01974 -8.75,8.01752 -2.1067,1.9978 -3.83037,3.4647 -3.83037,3.25979 0,-0.20491 -0.87695,0.3783 -1.94877,1.29603 -1.07183,0.91772 -1.71375,2.04886 -1.4265,2.51365 0.48108,0.77841 -5.35332,8.38844 -10.15456,13.24498 -1.11641,1.12925 -2.69141,2.97582 -3.5,4.10345 -2.9551,4.12107 -8.42588,6.66072 -10.3035,4.78308 z m 9.41342,-6.77177 c 1.56656,-1.78421 5.12438,-5.63048 7.90628,-8.54727 2.7819,-2.91679 4.84293,-5.51833 4.58006,-5.78119 -0.86823,-0.86823 -19.56643,17.33803 -19.56643,19.05164 0,1.3863 4.14196,-1.37684 7.08009,-4.72318 z M 363.54188,147.40273 c 2.3409,-0.54008 5.9409,-1.24916 8,-1.57572 2.05911,-0.32656 4.64383,-1.09427 5.74383,-1.70603 1.1,-0.61175 2.30841,-1.02637 2.68535,-0.92138 1.44977,0.40383 9.32156,-2.91526 12.29762,-5.18521 2.9672,-2.26319 3.10198,-2.66681 2.74677,-8.22531 -0.25836,-4.04292 -1.29746,-7.57876 -3.36986,-11.46699 l -2.99632,-5.62167 -6.8989,7.13412 c -3.79439,3.92377 -8.15119,8.65153 -9.68178,10.50614 -1.53058,1.85461 -4.14165,4.77172 -5.80238,6.48247 -4.52355,4.65982 -8.4805,9.64639 -8.4805,10.68718 0,1.13271 0.41387,1.12497 5.75617,-0.1076 z m 29.75558,-43.34145 1.87856,-2.87232 -3.44515,0.72767 c -4.62903,0.97773 -5.25098,1.75165 -3.8604,4.80365 1.30517,2.86454 2.05464,2.49733 5.42699,-2.659 z m -97.51175,156.7563 c 0,-0.83546 6.77181,-10.07925 10.48877,-14.31759 1.65618,-1.88847 5.82651,-6.53945 9.2674,-10.3355 3.4409,-3.79605 5.95887,-7.38294 5.59549,-7.9709 -0.36337,-0.58796 -0.1989,-0.78361 0.36549,-0.43479 0.7929,0.49003 11.28285,-9.42306 11.28285,-10.6624 0,-0.15203 -3.18269,0.1544 -7.07264,0.68096 -5.87911,0.79583 -7.651,0.68158 -10.5,-0.67701 -4.51585,-2.15346 -4.4673,-4.80041 0.12826,-6.99188 1.95558,-0.93255 9.04308,-2.64548 15.75,-3.80649 6.70691,-1.16101 12.86403,-2.74209 13.6825,-3.51349 1.2535,-1.18143 0.72581,-1.17313 -3.3471,0.0526 -2.65937,0.80036 -5.39606,1.23998 -6.08153,0.97693 -0.68547,-0.26304 -4.35428,0.36698 -8.1529,1.40005 -6.73353,1.83123 -14.01286,1.92574 -15.78937,0.205 -0.48553,-0.47028 -0.54564,-1.67281 -0.13358,-2.67228 0.49144,-1.19199 0.90815,-1.39226 1.21117,-0.58207 0.35522,0.94975 1.12555,0.89199 3.33391,-0.25 3.77371,-1.95146 4.30698,-1.87687 3.68153,0.51486 -0.30106,1.15126 -0.0323,1.99495 0.63337,1.98812 2.70377,-0.0277 12.03647,-2.98509 12.67361,-4.01601 0.98523,-1.59413 8.98277,-2.5599 8.98277,-1.08473 0,0.75313 0.95018,0.91632 2.75,0.47233 5.769,-1.42314 10.27095,-6.78661 7.92267,-9.43882 -0.96653,-1.09162 -0.87684,-1.10145 0.51018,-0.056 1.4412,1.08634 2.08735,0.79303 4.5,-2.04271 3.79286,-4.45798 13.1848,-13.8222 13.86315,-13.8222 0.29955,0 0.22819,1.6875 -0.15857,3.75 -0.81165,4.32831 -3.81715,10.18568 -6.15737,12 -2.14333,1.66169 -1.1224,1.59178 10.29473,-0.70493 5.34498,-1.07522 10.48642,-2.65022 11.42542,-3.5 0.939,-0.84979 2.55866,-1.54507 3.59925,-1.54507 1.04059,0 4.15516,-0.53754 6.92126,-1.19454 5.35425,-1.27173 6.55034,-2.43015 24.4514,-23.68142 3.53217,-4.19322 7.07183,-8.01309 7.86591,-8.48859 0.79409,-0.47551 3.8714,-3.06301 6.83847,-5.75 2.96707,-2.687 6.06491,-4.88545 6.88409,-4.88545 2.12079,0 1.94152,0.36625 -2.38192,4.86608 -3.14178,3.26996 -3.77097,4.55738 -3.3388,6.8316 0.48962,2.57657 0.3911,2.68545 -1.22298,1.35162 -1.56854,-1.29622 -1.96123,-1.18972 -3.68734,1 -1.06251,1.34789 -3.50907,5.6007 -5.4368,9.4507 -2.28366,4.56087 -4.82983,7.98139 -7.30719,9.81646 -3.84637,2.84916 -5.01655,5.68354 -2.34645,5.68354 1.21958,0 1.24086,-0.25896 0.13118,-1.59604 -1.15825,-1.39561 -1.01794,-1.55258 1.11734,-1.25 1.34307,0.19033 2.58048,1.07355 2.7498,1.96273 0.24648,1.2943 -1.48624,1.96517 -8.68916,3.36423 l -8.99704,1.74754 -5.30061,6.10364 c -2.91534,3.35701 -7.44656,8.32217 -10.06937,11.03368 -2.62282,2.71153 -4.58165,5.11715 -4.35296,5.34584 0.36475,0.36475 9.2826,-1.15447 30.12171,-5.13146 4.59894,-0.87767 5.96909,-1.53696 5.86765,-2.82339 -0.0728,-0.92309 0.16239,-1.58349 0.52263,-1.46755 0.72288,0.23263 8.10972,-7.65581 8.10972,-8.66042 0,-1.25185 -3.78542,-0.59228 -5,0.8712 -1.47638,1.77894 -4.58977,1.97279 -5.59376,0.3483 -1.18335,-1.9147 2.68633,-3.8483 7.70156,-3.8483 l 4.72554,0 7.74249,-9.75 c 4.25837,-5.3625 9.29753,-11.39688 11.19814,-13.40973 2.15037,-2.27737 3.16505,-4.12991 2.68633,-4.90451 -0.46777,-0.75686 -0.35973,-0.99163 0.27563,-0.59896 0.57472,0.35519 4.13175,-2.3931 7.90451,-6.10731 8.81006,-8.67336 17.35956,-13.75565 17.35956,-10.31946 0,1.38252 -6.31962,12.08997 -7.1356,12.08997 -0.39279,0 0.65148,-2.55915 2.32059,-5.687 l 3.03476,-5.687 -2.79268,1.82983 c -7.37684,4.83349 -23.79895,22.58957 -35.82556,38.73568 l -2.74966,3.69151 4.17502,1.12422 c 2.29626,0.61832 4.40249,0.89674 4.68052,0.61871 0.68065,-0.68065 3.82235,2.45554 4.58184,4.57381 1.14881,3.2041 -9.53931,7.81298 -21.61833,9.32215 -3.28419,0.41034 -5.75664,1.25913 -6.07358,2.08508 -0.294,0.76615 -0.0987,1.39301 0.43406,1.39301 0.53274,0 0.96862,0.45 0.96862,1 0,0.55 -0.84659,1 -1.88131,1 -1.03472,0 -3.14843,1.6875 -4.69714,3.75 -1.5487,2.0625 -3.08778,3.975 -3.42017,4.25 -0.3324,0.275 -2.11997,2.6375 -3.97239,5.25 -1.85242,2.6125 -3.74175,4.75 -4.19851,4.75 -1.74222,0 -0.71163,-3.4649 2.20167,-7.40214 1.66768,-2.25382 4.61329,-6.23536 6.5458,-8.84786 1.93252,-2.6125 3.15555,-4.74541 2.71786,-4.73979 -0.4377,0.006 -8.55737,1.28934 -18.04372,2.85273 l -17.24791,2.84252 -4.50209,4.63221 c -2.47615,2.54772 -4.50209,4.8298 -4.50209,5.07129 0,0.24149 -3.0375,3.52105 -6.75,7.28791 -3.7125,3.76686 -9.77954,10.10105 -13.48232,14.07598 -6.27928,6.74082 -8.76768,8.53053 -8.76768,6.30593 0,-1.03182 9.53997,-11.59234 18.34839,-20.31124 3.4969,-3.46136 5.50434,-6.19681 5.06696,-6.90451 -0.46427,-0.7512 -0.29034,-0.9038 0.4844,-0.42499 0.75636,0.46746 2.84567,-1.06122 5.5823,-4.08437 4.48859,-4.95854 4.95299,-6.19286 1.81108,-4.81358 -0.98622,0.43295 -2.91813,0.90479 -4.29313,1.04853 -5.57044,0.58235 -11.79085,1.68702 -16.9601,3.01193 -3.00305,0.7697 -7.43935,1.39945 -9.85843,1.39945 -3.96279,0 -4.82633,0.46616 -8.72062,4.70758 -2.37727,2.58916 -4.05895,5.13369 -3.73707,5.65451 0.32188,0.52081 0.0657,0.62584 -0.56927,0.2334 -0.63498,-0.39244 -1.15451,-0.33367 -1.15451,0.1306 0,0.46427 -3.4875,4.45338 -7.75,8.8647 -8.68363,8.9868 -15.55436,17.06595 -19.26422,22.65238 -2.15083,3.23878 -4.98578,5.02468 -4.98578,3.14081 z m 36.39561,-45.89992 c 2.54748,-0.33016 6.22626,-2.48406 4.24267,-2.48406 -0.41894,0 0.6209,-1.26283 2.31077,-2.80629 l 3.07249,-2.80628 -10.68161,1.77369 c -5.87489,0.97554 -10.96744,2.23618 -11.31679,2.80144 -0.34935,0.56525 -1.82281,1.12603 -3.27435,1.24616 -2.02709,0.16777 -2.39157,0.51678 -1.57154,1.50485 0.5872,0.70754 2.13754,1.28643 3.44519,1.28643 1.30766,0 2.37756,0.40217 2.37756,0.8937 0,0.51391 1.80613,0.48402 4.25,-0.0703 2.3375,-0.53021 5.55302,-1.1329 7.14561,-1.33931 z m 12.80517,-1.52012 c 2.91457,-0.56984 9.69064,-2.02095 15.05793,-3.22471 11.11555,-2.49295 10.63043,-3.42481 -2.3021,-4.4221 -7.32637,-0.56496 -14.95661,0.76879 -14.95661,2.6144 0,0.42703 -1.10351,1.96713 -2.45225,3.42245 -2.77256,2.99164 -2.64309,3.03644 4.65303,1.60996 z m 31.70028,-5.96394 c 1.618,0 16.42318,-14.18214 21.04559,-20.15994 l 2.05684,-2.65995 -5.05815,1.33431 c -2.78198,0.73388 -5.63991,1.81714 -6.35095,2.40725 -0.95659,0.79389 -23.76232,6.07833 -26.23191,6.07833 -0.19936,0 -0.36248,0.63486 -0.36248,1.4108 0,0.77593 -1.94208,2.35093 -4.31572,3.5 -4.85523,2.35037 -6.11399,2.5935 -5.12262,0.98944 0.47771,-0.77296 0.0495,-0.7625 -1.44098,0.0352 -3.70107,1.98075 -2.30887,3.06459 3.9365,3.06459 7.16072,0 14.40608,1.64834 16.07279,3.65661 0.65475,0.78892 1.83017,1.18892 2.61203,0.88889 0.78187,-0.30004 2.20344,-0.54552 3.15906,-0.54552 z m -39.40106,-6 c -0.33992,-0.55 -1.15398,-0.99311 -1.80902,-0.98469 -0.71561,0.009 -0.59227,0.40223 0.30902,0.98469 1.92112,1.24153 2.2673,1.24153 1.5,0 z m 95,-3.85726 c 7.6087,-1.98149 13.5,-4.65284 13.5,-6.12141 0,-1.16148 -6.48082,-3.00833 -10.58264,-3.01575 -3.01373,-0.005 -3.82024,0.72853 -10.70739,9.74442 -1.23927,1.62231 -0.57127,1.57024 7.79003,-0.60726 z m -76.28943,-1.79484 c 0.70919,-0.90865 3.40573,-3.72114 5.99231,-6.24999 2.58658,-2.52885 5.18997,-5.9479 5.7853,-7.59791 0.94527,-2.61988 0.53945,-2.37128 -3.20288,1.96209 -2.35692,2.72914 -5.4103,6.13091 -6.7853,7.55947 -4.20366,4.36742 -5.32517,5.97844 -4.16187,5.97844 0.59566,0 1.66326,-0.74344 2.37244,-1.6521 z m 58.67756,-16.90269 c 0.24486,-0.24486 -0.3048,-0.44521 -1.22146,-0.44521 -0.91667,0 -1.66667,-0.225 -1.66667,-0.5 0,-0.89846 3.82109,-4.34557 4.29344,-3.87322 0.93004,0.93004 8.40917,-8.64487 10.01379,-12.81982 l 1.65535,-4.30696 -3.63829,4 c -2.00106,2.2 -5.21359,5.8 -7.13896,8 -1.92537,2.2 -5.28969,5.87815 -7.47627,8.17365 l -3.97561,4.17365 4.35474,-0.97845 c 2.39511,-0.53814 4.55508,-1.17878 4.79994,-1.42364 z m -179.71797,35.89707 c -0.85567,-1.52676 -0.3164,-2.50022 3.14867,-5.68389 8.8265,-8.10971 15.88963,-11.65839 23.20432,-11.65839 3.26561,0 7.08626,-2.99533 5.72903,-4.49147 -0.4137,-0.45605 -0.25204,-0.54401 0.35925,-0.19548 1.24438,0.70951 7.43801,-3.47221 15.51314,-10.47394 5.91192,-5.12607 11.27439,-9.49893 18.19728,-14.83911 3.69153,-2.84756 4.43269,-3.93671 3.97604,-5.84279 -0.93086,-3.88539 9.32362,-11.74523 12.64527,-9.69233 2.08952,1.29139 0.9917,4.48302 -2.44316,7.10292 -4.70301,3.58716 -4.47803,4.82585 0.75,4.1293 2.87568,-0.38313 3.71701,-0.26637 2.60175,0.36108 -1.36126,0.76586 -4.02177,1.22355 -10.95386,1.88442 -0.33116,0.0316 -5.05616,3.69292 -10.5,8.13633 -5.44384,4.4434 -12.14789,9.88387 -14.89789,12.08993 -10.16333,8.15303 -13.5,11.05507 -13.5,11.74149 0,0.38696 1.2375,1.2297 2.75,1.87274 2.52684,1.0743 2.35698,1.13966 -2.09311,0.80539 -4.46099,-0.33508 -5.22733,-0.0373 -9.71277,3.77386 -10.05881,8.54679 -14.16819,11.02627 -20.12734,12.14421 -2.91609,0.54706 -3.81353,0.32219 -4.64662,-1.16427 z m 12.67911,-4.83636 c 6.17592,-3.81882 14.75936,-11.19265 11.81894,-10.15336 -1.00748,0.35609 -2.49654,0.64744 -3.30901,0.64744 -0.86198,0 -1.18006,0.48084 -0.76371,1.15451 0.43428,0.70268 0.27513,0.88356 -0.40669,0.46218 -1.61681,-0.99925 -8.40238,2.7337 -13.39088,7.36672 -3.92203,3.64256 -4.09246,3.99275 -1.94865,4.00412 1.2921,0.007 4.8921,-1.55986 8,-3.48161 z m 65.46762,-51.96134 c 3.14311,-2.7769 3.49616,-3.43531 2,-3.72986 -1.69554,-0.3338 -7.31689,4.58939 -7.31689,6.40815 0,1.45243 1.49223,0.70075 5.31689,-2.67829 z m 125.96424,55.16872 c 0.18545,-1.80768 0.59514,-3.72018 0.91043,-4.25 0.31528,-0.52981 0.8936,-2.45621 1.28514,-4.28087 0.81953,-3.81916 2.48778,-4.80698 5.44516,-3.22424 2.85838,1.52975 2.61176,2.86647 -0.42186,2.28656 -1.375,-0.26285 -2.5,-0.0122 -2.5,0.5569 0,0.56912 -0.2531,1.69435 -0.56245,2.50049 -0.41107,1.07124 0.8116,0.80813 4.54293,-0.97762 5.53596,-2.64942 13.72954,-4.30957 21.31483,-4.31873 l 4.79532,-0.006 -0.64819,3.45512 c -0.58634,3.12547 -0.39922,3.51761 1.96126,4.11006 3.6536,0.91699 9.34813,-0.3017 14.3463,-3.07026 5.04962,-2.79706 5.83895,-1.06769 0.99317,2.17598 -9.28862,6.21762 -21.84263,4.69813 -20.21172,-2.44635 0.44277,-1.93965 0.18364,-2.20544 -1.75601,-1.80115 -1.25149,0.26086 -5.31294,0.75812 -9.02544,1.10503 -3.7125,0.34691 -6.75,1.07149 -6.75,1.61017 0,0.53868 -0.43457,0.71085 -0.9657,0.38259 -1.82879,-1.13025 -8.71255,3.28781 -10.01247,6.42609 -1.66648,4.02325 -3.16432,3.89538 -2.7407,-0.23399 z"
       id="path3643"
       inkscape:connector-curvature="0" />
    <path
       style="fill:#000000"
       id="path3645"
       d="m 81.824512,62.787991 c 1.231332,-0.504566 2.54217,-0.690974 3.851922,-0.849053 0.552789,-0.151749 1.149151,-0.07212 1.700294,-0.205385 0.221212,-0.07452 0.139069,-0.03641 0.25476,-0.0943 0.06976,-0.0657 0.998844,0.920917 0.92908,0.986613 l 0,0 c -0.356327,0.255364 -0.180314,0.170626 -0.510867,0.287171 -0.192095,0.07271 -0.396715,0.160571 -0.601528,0.190523 -0.408265,0.05971 -0.845571,-0.02216 -1.242064,0.146655 -1.23084,0.239619 -2.485081,0.369445 -3.690365,0.740576 -0.08505,0.04888 -0.776283,-1.153922 -0.691232,-1.2028 z"
       inkscape:connector-curvature="0"
       transform="translate(234.59795,99.884656)" />
  </g>
</svg>
