<?xml version="1.0" encoding="UTF-8" standalone="no"?>
<!-- Created with Inkscape (http://www.inkscape.org/) -->
<svg
   xmlns:dc="http://purl.org/dc/elements/1.1/"
   xmlns:cc="http://web.resource.org/cc/"
   xmlns:rdf="http://www.w3.org/1999/02/22-rdf-syntax-ns#"
   xmlns:svg="http://www.w3.org/2000/svg"
   xmlns="http://www.w3.org/2000/svg"
   xmlns:sodipodi="http://sodipodi.sourceforge.net/DTD/sodipodi-0.dtd"
   xmlns:inkscape="http://www.inkscape.org/namespaces/inkscape"
   width="1314.6213"
   height="239.86971"
   id="svg2"
   sodipodi:version="0.32"
   inkscape:version="0.45.1"
   version="1.0"
   sodipodi:docbase="C:\Documents and Settings\HP_Administrator\My Documents\My Pictures"
   sodipodi:docname="Firma de Miguel Delibes.svg"
   inkscape:output_extension="org.inkscape.output.svg.inkscape">
  <defs
     id="defs4" />
  <sodipodi:namedview
     id="base"
     pagecolor="#ffffff"
     bordercolor="#666666"
     borderopacity="1.0"
     inkscape:pageopacity="0.0"
     inkscape:pageshadow="2"
     inkscape:zoom="0.24345225"
     inkscape:cx="757.8972"
     inkscape:cy="128.17813"
     inkscape:document-units="px"
     inkscape:current-layer="layer1"
     inkscape:window-width="809"
     inkscape:window-height="573"
     inkscape:window-x="110"
     inkscape:window-y="145" />
  <metadata
     id="metadata7">
    <rdf:RDF>
      <cc:Work
         rdf:about="">
        <dc:format>image/svg+xml</dc:format>
        <dc:type
           rdf:resource="http://purl.org/dc/dcmitype/StillImage" />
      </cc:Work>
    </rdf:RDF>
  </metadata>
  <g
     inkscape:label="Capa 1"
     inkscape:groupmode="layer"
     id="layer1"
     transform="translate(1592.8389,-182.94407)">
    <g
       id="g4150">
      <path
         sodipodi:nodetypes="csscscscsc"
         id="path2188"
         d="M -1590.0689,357.57505 C -1590.0689,357.57505 -1533.4312,255.91759 -1530.5267,212.35011 C -1527.6222,168.78263 -1527.6222,350.31381 -1517.4564,353.2183 C -1507.2907,356.1228 -1498.5772,337.24356 -1484.0547,264.63109 C -1484.0547,264.63109 -1474.1381,350.84237 -1456.7111,350.84237 C -1439.2841,350.84237 -1425.9647,325.62557 -1411.4422,295.12833 C -1411.4422,295.12833 -1402.9779,344.25564 -1395.7166,345.70789 C -1388.4554,347.16014 -1363.3418,338.94498 -1348.8193,306.99549 C -1348.8193,306.99549 -1345.2062,339.78443 -1343.1865,345.95706 C -1340.282,354.83384 -1319.9505,353.85896 -1319.9505,346.38241 M -1343.1792,258.57204 C -1343.1792,258.57204 -1348.3136,273.97547 -1344.2061,278.08305 C -1340.0985,282.19063 -1366.7978,267.8141 -1360.6364,262.67962 C -1354.475,257.54514 -1344.2061,259.59893 -1343.1792,258.57204 z "
         style="fill:none;fill-rule:evenodd;stroke:#000000;stroke-width:5.53999996;stroke-linecap:butt;stroke-linejoin:miter;stroke-miterlimit:4;stroke-dasharray:none;stroke-opacity:1" />
      <path
         sodipodi:nodetypes="cccsccccccsc"
         id="path3161"
         d="M -1280.5385,332.50851 C -1280.5385,332.50851 -1249.7317,334.5623 -1243.5703,285.27132 M -1262.0544,281.16374 C -1262.0544,281.16374 -1279.5116,402.33739 -1257.9468,410.55256 C -1236.382,418.76772 -1210.7096,362.28847 -1204.5483,306.83612 C -1204.5483,306.83612 -1209.6828,392.06844 -1153.2035,339.69677 L -1146.0152,300.67475 C -1146.0152,300.67475 -1160.3918,381.79948 -1091.5898,335.58919 C -1084.8667,323.57802 -1075.6029,312.20204 -1079.267,297.59406 C -1108.6159,292.09115 -1101.5917,395.77682 -1011.4919,322.23955 C -1011.4919,322.23955 -984.79266,276.02926 -984.79266,256.51825 C -984.79266,237.00723 -1026.8954,298.62096 -978.63129,354.07331"
         style="fill:none;fill-rule:evenodd;stroke:#000000;stroke-width:5.53999996;stroke-linecap:butt;stroke-linejoin:miter;stroke-miterlimit:4;stroke-dasharray:none;stroke-opacity:1" />
      <path
         sodipodi:nodetypes="ccccccccccccc"
         id="path3163"
         d="M -804.89909,256.74604 C -798.20211,257.41574 -812.77605,344.06225 -820.4894,343.80436 M -835.89283,286.29821 C -835.89283,286.29821 -821.51629,364.34226 -776.33289,334.5623 C -776.33289,334.5623 -754.76809,263.70651 -795.84391,218.52312 C -797.51908,216.01037 -844.16455,191.73899 -805.08597,293.48648 C -805.08597,293.48648 -741.41845,359.20779 -691.10058,328.40092 C -691.10058,328.40092 -666.45509,286.29821 -691.10058,250.35687 C -702.05475,233.92561 -723.01056,273.34768 -683.91231,324.29334 C -684.42373,336.12516 -622.92687,357.31566 -593.84628,207.15428 C -593.84628,207.15428 -615.11032,312.99749 -579.16898,320.18576 C -579.16898,320.18576 -546.30832,318.13197 -520.63594,273.97547 C -520.63594,273.97547 -520.81212,336.31531 -494.11284,315.7774"
         style="fill:none;fill-rule:evenodd;stroke:#000000;stroke-width:5.53999996;stroke-linecap:butt;stroke-linejoin:miter;stroke-miterlimit:4;stroke-dasharray:none;stroke-opacity:1" />
      <path
         sodipodi:nodetypes="ccssssscc"
         id="path3165"
         d="M -445.67257,185.71407 L -433.34983,307.86302 C -433.93689,307.6282 -414.64559,264.61608 -404.59676,259.59893 C -397.02057,255.81631 -384.25944,305.09931 -378.92437,309.91681 C -371.73611,316.40771 -347.09062,326.14922 -341.95614,319.15887 C -338.06366,313.85945 -302.93411,270.89478 -312.17617,260.62583 C -321.41823,250.35687 -334.76787,257.54514 -337.84856,261.65272 C -340.92924,265.7603 -340.92924,340.72367 -299.85343,363.31537 C -299.83625,363.30678 -275.5929,382.39152 -282.09543,420.04378"
         style="fill:none;fill-rule:evenodd;stroke:#000000;stroke-width:5.53999996;stroke-linecap:butt;stroke-linejoin:miter;stroke-miterlimit:4;stroke-dasharray:none;stroke-opacity:1" />
      <path
         id="path3167"
         d="M -528.8511,194.90452 L -539.12006,205.17348 L -532.95868,219.55001 L -528.8511,194.90452 z "
         style="fill:none;fill-rule:evenodd;stroke:#000000;stroke-width:5.53999996;stroke-linecap:butt;stroke-linejoin:miter;stroke-miterlimit:4;stroke-dasharray:none;stroke-opacity:1" />
    </g>
  </g>
</svg>
