<?xml version="1.0" encoding="UTF-8" standalone="no"?>
<!-- Created with Inkscape (http://www.inkscape.org/) -->

<svg
   xmlns:dc="http://purl.org/dc/elements/1.1/"
   xmlns:cc="http://creativecommons.org/ns#"
   xmlns:rdf="http://www.w3.org/1999/02/22-rdf-syntax-ns#"
   xmlns:svg="http://www.w3.org/2000/svg"
   xmlns="http://www.w3.org/2000/svg"
   xmlns:sodipodi="http://sodipodi.sourceforge.net/DTD/sodipodi-0.dtd"
   xmlns:inkscape="http://www.inkscape.org/namespaces/inkscape"
   width="414.57318"
   height="168.74411"
   id="svg2"
   version="1.1"
   inkscape:version="0.48.2 r9819"
   sodipodi:docname="Documento nuevo 1">
  <defs
     id="defs4" />
  <sodipodi:namedview
     id="base"
     pagecolor="#ffffff"
     bordercolor="#666666"
     borderopacity="1.0"
     inkscape:pageopacity="0.0"
     inkscape:pageshadow="2"
     inkscape:zoom="0.78306552"
     inkscape:cx="22.144994"
     inkscape:cy="133.94539"
     inkscape:document-units="px"
     inkscape:current-layer="layer1"
     showgrid="false"
     inkscape:snap-bbox="true"
     inkscape:window-width="1024"
     inkscape:window-height="553"
     inkscape:window-x="-4"
     inkscape:window-y="-4"
     inkscape:window-maximized="1"
     fit-margin-top="0"
     fit-margin-left="0"
     fit-margin-right="0"
     fit-margin-bottom="0" />
  <metadata
     id="metadata7">
    <rdf:RDF>
      <cc:Work
         rdf:about="">
        <dc:format>image/svg+xml</dc:format>
        <dc:type
           rdf:resource="http://purl.org/dc/dcmitype/StillImage" />
        <dc:title></dc:title>
      </cc:Work>
    </rdf:RDF>
  </metadata>
  <g
     inkscape:label="Capa 1"
     inkscape:groupmode="layer"
     id="layer1"
     transform="translate(-342.63933,-412.753)">
    <path
       style="fill:none;stroke:#000000;stroke-width:1px;stroke-linecap:butt;stroke-linejoin:miter;stroke-opacity:1"
       d="m 424.40917,455.2546 c 0.22438,-13.117 -11.77771,-12.52818 -12.64197,-12.41623 -11.64852,1.36373 -24.48498,2.65994 -41.31217,21.67196 -21.13626,23.7681 -12.52808,34.7576 -10.61024,35.66843 24.07128,8.87203 55.90354,-32.97009 60.95238,-51.69665 3.20323,-20.70873 -26.30342,23.36128 -27.54144,38.15168 -4.36402,14.69837 0.54807,21.55208 11.73898,18.96296"
       id="path3113"
       inkscape:connector-curvature="0"
       sodipodi:nodetypes="ccccccc" />
    <path
       style="fill:none;stroke:#000000;stroke-width:1px;stroke-linecap:butt;stroke-linejoin:miter;stroke-opacity:1"
       d="m 427.34392,486.40804 c 1.76502,11.96472 3.61197,11.73897 3.61199,11.73897"
       id="path3115"
       inkscape:connector-curvature="0"
       sodipodi:nodetypes="cc" />
    <path
       style="fill:none;stroke:#000000;stroke-width:1px;stroke-linecap:butt;stroke-linejoin:miter;stroke-opacity:1"
       d="m 484.63377,433.00149 c 17.92474,-0.34134 39.4668,-19.04853 39.58801,-19.15548 -3.65766,-8.77837 -83.83198,83.02367 -34.79913,69.279 27.24437,-7.63701 39.588,-24.58287 39.588,-24.58287 8.71345,-11.56749 26.23899,-33.75209 22.98659,-40.54578 -2.63267,-7.27561 -15.6595,14.27874 -25.22139,33.20284 -8.1998,15.88447 -7.79772,25.54793 -3.8311,29.05249 8.55803,9.89047 72.55984,-41.4203 72.15233,-56.18943 0.36166,-0.95451 0.77017,-14.30665 -14.04735,2.55407 -11.7402,13.37999 -18.14187,48.10472 -11.81256,53.63536 5.1951,7.31146 36.31325,-27.25763 37.3532,-30.64878 -3.54594,-0.13727 -12.18748,25.28615 -6.71382,30.8358 5.98466,9.7823 29.02182,5.20634 44.1232,-5.19814 3.48076,-2.39816 20.12358,-11.99387 15.42783,-13.50585 -5.78,-1.41632 -22.97773,10.7299 -15.80327,21.07103 11.88017,14.42369 25.21331,-22.69569 24.26361,-20.43251 0.96644,0.39228 -12.29557,13.67689 0,25.54064 11.91897,11.9516 23.83794,7.60497 35.75691,-7.66219 l 0,0 0,0"
       id="path3117"
       inkscape:connector-curvature="0"
       sodipodi:nodetypes="ccscccccccccsccccccc" />
    <path
       style="fill:none;stroke:#000000;stroke-width:1px;stroke-linecap:butt;stroke-linejoin:miter;stroke-opacity:1"
       d="m 659.18871,435.61439 c 3.185,-5.39786 6.02783,-6.93083 9.02999,-9.93298"
       id="path3119"
       inkscape:connector-curvature="0" />
    <path
       style="fill:none;stroke:#000000;stroke-width:1px;stroke-linecap:butt;stroke-linejoin:miter;stroke-opacity:1"
       d="m 756.71252,480.7643 c -1.42504,-5.86586 -5.98793,-11.97586 -8.12698,-16.25397"
       id="path3121"
       inkscape:connector-curvature="0" />
    <path
       style="fill:none;stroke:#000000;stroke-width:1px;stroke-linecap:butt;stroke-linejoin:miter;stroke-opacity:1"
       d="m 343.13933,577.36839 0,-0.51838 m 0,0 c 4.5807,1.78525 4.49111,2.89311 6.14193,4.1471 l 404.00256,-51.83879 c 1.05802,-2.45519 0.52385,-2.31448 -0.68244,-4.14711"
       id="path3125"
       inkscape:connector-curvature="0" />
  </g>
</svg>
