<?xml version="1.0" encoding="UTF-8" standalone="no"?>
<!-- Created with Inkscape (http://www.inkscape.org/) -->

<svg
   xmlns:dc="http://purl.org/dc/elements/1.1/"
   xmlns:cc="http://creativecommons.org/ns#"
   xmlns:rdf="http://www.w3.org/1999/02/22-rdf-syntax-ns#"
   xmlns:svg="http://www.w3.org/2000/svg"
   xmlns="http://www.w3.org/2000/svg"
   xmlns:sodipodi="http://sodipodi.sourceforge.net/DTD/sodipodi-0.dtd"
   xmlns:inkscape="http://www.inkscape.org/namespaces/inkscape"
   width="285.14017"
   height="131.78973"
   id="svg3287"
   version="1.1"
   inkscape:version="0.48.1 r9760"
   sodipodi:docname="Firma Reina Ana.svg">
  <defs
     id="defs3289" />
  <sodipodi:namedview
     id="base"
     pagecolor="#ffffff"
     bordercolor="#666666"
     borderopacity="1.0"
     inkscape:pageopacity="0.0"
     inkscape:pageshadow="2"
     inkscape:zoom="3.2287582"
     inkscape:cx="142.2073"
     inkscape:cy="63.042397"
     inkscape:document-units="px"
     inkscape:current-layer="layer1"
     showgrid="false"
     inkscape:window-width="1280"
     inkscape:window-height="712"
     inkscape:window-x="0"
     inkscape:window-y="0"
     inkscape:window-maximized="0"
     fit-margin-top="0"
     fit-margin-left="0"
     fit-margin-right="0"
     fit-margin-bottom="0" />
  <metadata
     id="metadata3292">
    <rdf:RDF>
      <cc:Work
         rdf:about="">
        <dc:format>image/svg+xml</dc:format>
        <dc:type
           rdf:resource="http://purl.org/dc/dcmitype/StillImage" />
        <dc:title />
      </cc:Work>
    </rdf:RDF>
  </metadata>
  <g
     inkscape:label="Capa 1"
     inkscape:groupmode="layer"
     id="layer1"
     transform="translate(-307.81092,-449.04398)">
    <path
       style="fill:#000000"
       d="m 313.23542,579.89879 c 0,-0.50308 1.45617,-1.90116 3.23592,-3.10684 1.77976,-1.20568 5.07441,-4.06054 7.32146,-6.34414 4.63462,-4.71002 12.56596,-16.24333 11.73422,-17.06326 -0.30235,-0.29807 -1.19466,0.32755 -1.98291,1.39026 -0.78825,1.06269 -4.15952,4.92683 -7.49172,8.58695 -5.13964,5.64544 -6.55257,6.65477 -9.31583,6.65477 -1.79153,0 -3.81099,-0.65768 -4.4877,-1.46151 -1.34882,-1.60217 -3.38879,-0.98004 -2.70394,0.82464 0.23536,0.6202 0.0734,2.01103 -0.35997,3.09073 -0.57203,1.42523 -0.80362,0.75291 -0.84527,-2.45386 -0.093,-7.16202 7.20977,-19.48258 11.6165,-19.5982 2.81461,-0.0738 4.82989,3.39889 4.42161,7.61934 -0.21955,2.26958 -0.772,4.12652 -1.22768,4.12652 -0.45567,0 -0.57772,-1.52336 -0.27123,-3.38523 0.39242,-2.38392 0.0799,-3.85573 -1.05633,-4.97591 -1.48766,-1.46656 -1.84683,-1.42696 -4.60252,0.50743 -3.21113,2.25409 -3.72614,3.49796 -1.74436,4.21298 0.85496,0.30847 0.54374,1.1138 -0.99414,2.57248 -2.11519,2.00629 -2.15007,2.25683 -0.63223,4.54048 1.55939,2.34617 5.21841,3.59168 3.77155,1.28382 -0.43663,-0.69645 -0.2735,-0.86698 0.42327,-0.44247 1.0692,0.65143 3.17704,-1.18991 10.69378,-9.34179 5.02532,-5.44994 8.70471,-10.67648 7.51605,-10.67648 -0.61262,0 -1.11385,0.44169 -1.11385,0.98154 0,0.53985 -0.40589,0.98155 -0.90199,0.98155 -0.49609,0 -0.38408,-1.12934 0.24891,-2.50962 0.89513,-1.95186 1.73605,-2.42933 3.78367,-2.14833 2.35199,0.32278 2.865,-0.19111 4.81066,-4.81875 1.19784,-2.84904 2.17944,-5.52627 2.18133,-5.94941 0.002,-0.42314 0.46825,-1.32147 1.03634,-1.99628 1.50441,-1.78698 -0.11593,-1.56989 -6.63303,0.88868 -6.12985,2.31248 -6.8927,4.25567 -2.52573,6.43377 l 2.48035,1.23711 -3.07611,0.0144 c -2.39317,0.0113 -3.35171,-0.58188 -4.3176,-2.67168 -1.1162,-2.41505 -1.01397,-2.83508 1.01293,-4.1618 3.01036,-1.97045 8.6264,-4.04274 12.6037,-4.65071 2.17686,-0.33274 3.23591,-1.03771 3.23591,-2.15402 0,-0.91266 0.374,-2.079 0.83111,-2.59185 0.4571,-0.51286 1.61428,-3.03052 2.57151,-5.5948 0.95723,-2.56428 2.15142,-4.66233 2.65374,-4.66233 0.50232,0 0.91332,-0.57958 0.91332,-1.28795 0,-1.75043 3.87861,-9.54666 5.58761,-11.23141 1.23058,-1.21313 1.43977,-1.78109 1.3611,-3.6954 -0.0115,-0.28055 0.44187,-1.05351 1.00754,-1.7177 3.44195,-4.04133 7.38182,-9.45702 8.69834,-11.9566 0.8391,-1.59315 2.02761,-3.43092 2.64111,-4.08393 0.61351,-0.65301 2.63482,-2.9935 4.4918,-5.20109 3.77689,-4.48998 6.74654,-5.12346 9.5749,-2.0425 1.75942,1.91656 1.71914,2.14144 -1.45067,8.09773 -1.79319,3.36953 -4.3906,8.33489 -5.77204,11.03414 -1.38143,2.69924 -3.08273,5.57025 -3.78066,6.38003 -1.3072,1.51669 -3.84196,5.95395 -10.60156,18.55875 -2.74826,5.12478 -3.55427,7.48121 -2.73057,7.98306 0.84723,0.51618 0.75543,0.94606 -0.33375,1.56287 -1.35018,0.7646 -2.43747,2.83891 -7.28051,13.88958 -0.77695,1.77282 -1.41264,4.00338 -1.41264,4.95679 0,0.95341 -0.374,2.15308 -0.83111,2.66594 -0.4571,0.51286 -1.50952,2.92009 -2.33871,5.34941 -6.98213,20.45584 -7.04627,22.95748 -0.51971,20.26919 7.01512,-2.88952 15.70579,-12.5678 22.92634,-25.53171 1.54456,-2.77315 3.3977,-5.70499 4.11808,-6.51519 1.69443,-1.90575 6.71975,-11.77932 5.99528,-11.77932 -0.30437,0 0.26549,-0.8665 1.26635,-1.92555 1.00085,-1.05906 2.66165,-4.26134 3.69066,-7.11619 1.02901,-2.85485 2.1326,-5.41148 2.45241,-5.6814 0.31982,-0.26993 2.54545,-4.24518 4.94582,-8.83389 2.40038,-4.58871 4.88555,-9.00566 5.52261,-9.81543 0.63706,-0.80977 2.68194,-5.22672 4.54419,-9.81543 1.86224,-4.58871 4.59143,-10.55158 6.06485,-13.25083 1.47342,-2.69924 3.905,-7.23448 5.40349,-10.0783 2.17816,-4.1337 2.99693,-4.94772 4.08288,-4.05925 1.64692,1.34743 1.18286,3.7683 -2.61595,13.64678 -1.55702,4.04887 -3.36895,9.12835 -4.02653,11.28774 -0.65758,2.1594 -1.6078,4.98718 -2.11159,6.28397 -0.57274,1.47424 -0.55418,2.71447 0.0496,3.30962 0.96266,0.949 0.40751,3.70721 -0.93367,4.63879 -1.35281,0.93962 -5.91058,9.71392 -5.91058,11.37856 0,1.60411 -4.84917,12.13961 -6.05716,13.16001 -0.7928,0.6697 -7.29891,13.99013 -7.43093,15.21391 -0.1134,1.05109 -3.11798,7.87195 -4.53988,10.3062 -2.30337,3.94335 -3.79817,8.16509 -3.21842,9.08982 0.40586,0.64739 0.15607,0.731 -0.67365,0.22548 -0.96551,-0.58825 -1.1431,-0.35233 -0.66307,0.88086 0.36059,0.92637 0.30738,1.47214 -0.11824,1.21283 -0.42563,-0.25933 -1.82008,1.81578 -3.09878,4.61134 -4.33618,9.47996 -9.32319,12.68391 -8.82336,5.66864 0.15014,-2.10714 0.59296,-3.63677 0.98406,-3.39921 0.64401,0.3912 4.38605,-4.81124 6.09546,-8.47433 0.37789,-0.80977 2.02535,-3.89288 3.66102,-6.85137 1.63567,-2.95848 2.97394,-5.90311 2.97394,-6.54362 0,-0.64051 0.39701,-1.31179 0.88225,-1.49174 0.96848,-0.35916 9.07442,-16.85411 9.07442,-18.46572 0,-0.55085 0.44805,-1.00155 0.99567,-1.00155 0.54762,0 0.99567,-0.66854 0.99567,-1.48563 0,-0.8171 0.40941,-2.2526 0.90979,-3.19002 4.82457,-9.03825 10.04255,-20.39662 10.04255,-21.86035 0,-0.99709 0.48435,-2.10799 1.07635,-2.46867 0.59198,-0.36068 0.80747,-1.71183 0.47886,-3.00255 -0.32862,-1.29073 -0.15495,-2.34678 0.3859,-2.34678 0.54087,0 0.74766,-0.60559 0.45954,-1.34575 -0.2881,-0.74018 0.17272,-2.03244 1.02407,-2.8717 0.85134,-0.83927 1.29274,-2.18144 0.98088,-2.9826 -0.31186,-0.80116 0.20672,-2.93202 1.15239,-4.73526 1.47728,-2.81693 1.49644,-3.09628 0.13604,-1.98385 -0.87085,0.71211 -1.89015,2.69973 -2.26511,4.41694 -0.67889,3.10906 -3.15759,8.56803 -4.3146,9.50222 -0.3343,0.26992 -3.28547,5.7911 -6.55815,12.26929 -3.27269,6.47818 -6.52105,12.13173 -7.21859,12.56344 -0.69754,0.43171 -1.26826,1.42891 -1.26826,2.216 0,1.765 -10.84066,23.80761 -12.08007,24.56274 -0.49285,0.30027 -0.68025,0.89023 -0.41644,1.31102 0.2638,0.42079 -0.28895,1.60739 -1.22834,2.63689 -0.93939,1.02951 -2.7947,3.85699 -4.1229,6.2833 -1.3282,2.4263 -2.67235,4.63231 -2.987,4.90224 -0.31465,0.26992 -2.09744,2.69924 -3.96173,5.39848 -1.86431,2.69925 -4.4406,5.9194 -5.72509,7.15591 -1.2845,1.23651 -2.33545,2.67202 -2.33545,3.19002 0,0.518 -0.67207,0.94182 -1.4935,0.94182 -0.82142,0 -1.4935,0.38168 -1.4935,0.84819 0,0.4665 -1.96051,1.5863 -4.35669,2.48842 -3.55142,1.33706 -4.83967,1.4233 -6.96967,0.46657 -3.2016,-1.43805 -3.28985,-3.32509 -0.57463,-12.28829 2.10446,-6.94701 2.50493,-8.03248 5.33382,-14.45729 0.9208,-2.09127 1.43978,-4.03339 1.15329,-4.31582 -0.2865,-0.28242 0.84907,-3.20918 2.52349,-6.50389 1.67441,-3.29471 3.68214,-7.24139 4.4616,-8.7704 l 1.41723,-2.78001 -4.65845,0.6228 c -5.17005,0.6912 -8.28666,3.34289 -8.28666,7.0505 0,1.26702 -0.44805,2.30367 -0.99567,2.30367 -0.54762,0 -0.99567,0.66854 -0.99567,1.48564 0,0.81709 -0.42634,2.2526 -0.94743,3.19001 -0.52109,0.93741 -1.72989,3.47116 -2.6862,5.63055 -0.95633,2.1594 -1.98615,4.14702 -2.2885,4.41695 -0.30233,0.26992 -1.66983,2.60941 -3.03887,5.19885 -1.36904,2.58945 -3.67246,5.98712 -5.11871,7.55038 -1.44624,1.56326 -2.43466,3.0344 -2.19648,3.2692 0.43174,0.42562 -2.55664,3.36804 -10.10899,9.95351 -3.88061,3.38381 -6.47184,4.40865 -6.47184,2.55963 z m 43.07828,-55.03323 c 3.6156,0 6.70509,-1.60497 6.70509,-3.48325 0,-0.79811 0.39195,-2.21807 0.87101,-3.15549 0.47905,-0.93741 1.74496,-3.47116 2.81314,-5.63055 2.38141,-4.81423 4.59083,-8.67012 5.343,-9.32466 1.19801,-1.04248 9.89053,-17.96157 9.89053,-19.25089 0,-0.74883 0.37712,-1.36151 0.83806,-1.36151 0.46093,0 1.39153,-1.8211 2.068,-4.04691 1.61645,-5.31869 0.13784,-7.00616 -3.08387,-3.51948 -4.43489,4.79963 -5.62894,6.42255 -5.1052,6.93887 0.41252,0.40666 -5.09295,7.91166 -7.66067,10.44295 -1.9928,1.96453 -14.87956,26.38005 -14.9127,28.25389 -0.0122,0.6938 -0.77658,2.46058 -1.69846,3.92617 -1.04077,1.65458 -1.15399,2.19961 -0.2987,1.43779 0.7576,-0.67482 2.66144,-1.22693 4.23077,-1.22693 z m -48.05661,51.04023 c 0,-0.53985 0.47449,-0.98155 1.05443,-0.98155 0.57993,0 0.77751,0.4417 0.43907,0.98155 -0.33845,0.53985 -0.81295,0.98154 -1.05443,0.98154 -0.24149,0 -0.43907,-0.44169 -0.43907,-0.98154 z m 113.94095,-7.47899 c 0.39376,-1.55497 1.26621,-3.48976 1.93878,-4.29953 3.58452,-4.31576 22.51802,-36.34021 22.51802,-38.08737 0,-0.27178 1.18084,-2.96609 2.62409,-5.98735 1.44324,-3.02126 4.73515,-9.91014 7.31535,-15.30862 2.5802,-5.39849 5.29436,-11.36136 6.03147,-13.25083 0.73711,-1.88947 1.58967,-3.65625 1.89458,-3.92617 0.30489,-0.26993 1.62149,-3.58263 2.92577,-7.36157 1.30429,-3.77894 3.25961,-8.32954 4.34517,-10.11245 1.08555,-1.7829 1.69859,-3.51287 1.36233,-3.84438 -0.78363,-0.7725 -0.69025,-0.91233 -4.41476,6.61141 -1.74147,3.5179 -3.16632,7.16188 -3.16632,8.09773 0,0.93584 -0.33604,1.70499 -0.74675,1.7092 -0.89417,0.009 -3.23592,4.76229 -3.23592,6.56805 0,0.70215 -0.44805,1.27664 -0.99567,1.27664 -0.54762,0 -0.99567,0.66254 -0.99567,1.47231 0,0.80977 -0.44805,1.47231 -0.99566,1.47231 -1.25283,0 -1.30287,-1.66006 -0.0727,-2.4096 0.50767,-0.3093 1.46021,-2.21257 2.11676,-4.22948 1.52761,-4.69281 12.122,-26.13757 13.12631,-26.56978 0.41818,-0.17996 0.76029,-1.08935 0.76029,-2.02087 0,-2.44328 2.51104,-5.58527 3.36942,-4.21608 1.34483,2.14511 -5.24718,22.90058 -8.91111,28.05738 -0.78539,1.1054 -1.39765,2.68448 -1.36059,3.50911 0.0433,0.96335 0.4536,0.70985 1.14781,-0.70918 0.59425,-1.21466 1.46002,-2.20847 1.92395,-2.20847 0.46394,0 0.84352,-0.43317 0.84352,-0.96261 0,-1.24503 8.97639,-14.42045 12.59221,-18.48266 1.53244,-1.72162 3.35854,-3.13021 4.05802,-3.13021 1.85861,0 1.67189,8.26617 -0.22172,9.81543 -0.82142,0.67205 -1.4935,1.79356 -1.4935,2.49224 0,0.69868 -0.35265,1.41756 -0.78366,1.59752 -1.1725,0.48952 -5.65827,8.33528 -16.46162,28.79192 -2.32626,4.40491 -5.65507,12.12783 -5.65507,13.11995 0,0.47963 -0.59956,1.36259 -1.33235,1.96213 -0.7328,0.59953 -1.90212,2.96479 -2.5985,5.25612 -0.69638,2.29133 -2.35941,6.38226 -3.69562,9.09093 -6.39552,12.96458 -9.54377,23.187 -8.2241,26.70379 0.84234,2.24476 4.59716,5.21351 6.59394,5.21351 0.68895,0 3.61359,-1.4513 6.49921,-3.2251 2.88562,-1.77382 7.01905,-4.09271 9.18539,-5.1531 5.83403,-2.85569 9.31261,-6.19167 10.06276,-9.65029 0.90875,-4.18983 3.25618,-11.25652 4.98326,-15.00154 0.78449,-1.70113 1.42636,-3.3451 1.42636,-3.65327 0,-0.30816 1.95906,-4.65835 4.35349,-9.66709 2.39441,-5.00873 4.67236,-10.12391 5.06212,-11.36709 0.38974,-1.24316 2.31121,-4.99756 4.26993,-8.34311 1.95871,-3.34554 5.06662,-8.91956 6.90645,-12.38669 1.83984,-3.46714 3.78006,-6.82049 4.31162,-7.45188 0.53156,-0.6314 0.67165,-1.43863 0.31133,-1.79385 -0.36034,-0.35521 -0.13242,-0.64585 0.50646,-0.64585 0.63889,0 1.16162,-0.52652 1.16162,-1.17004 0,-2.02571 10.01788,-16.3115 12.61463,-17.98882 3.06468,-1.97957 5.30619,-1.25969 5.31105,1.70567 0.008,4.85128 -8.01142,26.75383 -12.85913,35.12096 -1.09471,1.88947 -4.33798,8.29404 -7.20727,14.23238 -2.86928,5.93833 -6.69777,12.63808 -8.50776,14.88833 -1.80997,2.25025 -3.29192,4.45872 -3.29321,4.90772 -9.9e-4,0.44898 -1.37099,2.36228 -3.04381,4.25175 -1.67281,1.88947 -3.74609,4.73889 -4.60728,6.33203 -0.86118,1.59315 -2.06776,3.40836 -2.68126,4.0338 -7.24827,7.38923 -8.02306,8.70199 -8.05411,13.64646 l -0.0311,4.94322 3.98267,-0.0734 c 9.95458,-0.18348 14.9824,-3.05418 24.8052,-14.16281 2.62361,-2.96704 6.29265,-7.12184 8.15343,-9.23285 1.86077,-2.11102 3.38322,-4.23513 3.38322,-4.72025 0,-0.48512 0.44806,-0.60906 0.99567,-0.27541 0.54762,0.33364 0.99567,0.0118 0.99567,-0.71531 0,-0.72706 1.32594,-2.85118 2.94654,-4.72025 1.6206,-1.86908 2.96475,-3.96431 2.987,-4.65606 0.0222,-0.69176 0.66839,-1.49528 1.43585,-1.7856 0.76746,-0.29032 1.59386,-1.27027 1.83643,-2.17767 0.24257,-0.90739 3.6471,-6.16178 7.56562,-11.67643 3.91852,-5.51465 7.12457,-10.25348 7.12457,-10.53073 0,-0.27726 2.24026,-3.53097 4.97834,-7.23047 2.73809,-3.69949 4.98041,-7.13201 4.98295,-7.62781 0.003,-0.49579 1.2647,-2.22653 2.80483,-3.84607 1.54013,-1.61955 2.90724,-3.38633 3.03803,-3.92617 0.1308,-0.53985 3.34913,-5.27273 7.15184,-10.5175 3.80272,-5.24479 6.91403,-9.92454 6.91403,-10.39947 0,-1.70536 3.51447,-4.02272 4.85871,-3.20372 1.66629,1.01521 0.83101,3.79806 -2.7747,9.24428 -1.48544,2.24368 -3.7934,6.17748 -5.12879,8.74176 -1.33538,2.56428 -2.76478,4.66233 -3.17643,4.66233 -1.17163,0 -0.88322,-1.41223 0.71338,-3.49318 0.804,-1.04792 1.46117,-2.78869 1.46038,-3.86839 -10e-4,-1.79698 -0.16714,-1.75545 -1.95933,0.49077 -1.07682,1.34962 -2.40607,2.98734 -2.95387,3.63936 -0.54781,0.65202 -0.99602,1.54767 -0.99602,1.99033 0,0.44266 -0.8961,1.56121 -1.99133,2.48568 -1.09524,0.92446 -1.99134,2.3109 -1.99134,3.08097 0,0.77007 -0.36531,1.54736 -0.8118,1.72731 -0.44648,0.17995 -5.00106,6.5109 -10.12129,14.06878 -10.21606,15.07976 -13.20081,19.37942 -13.96812,20.12163 -0.27906,0.26992 -1.38906,2.14712 -2.46668,4.17156 -1.07761,2.02443 -2.30546,3.68078 -2.72854,3.68078 -0.42309,0 -0.76925,0.48836 -0.76925,1.08524 0,0.59688 -1.12688,2.47408 -2.50418,4.17155 -1.3773,1.69748 -2.83347,3.53727 -3.23592,4.08842 -2.99873,4.10665 -10.84613,14.01236 -12.11645,15.2945 -0.85743,0.8654 -3.40272,3.51557 -5.65621,5.88926 -8.3891,8.83662 -12.17115,11.2941 -18.8031,12.21774 -2.73809,0.38135 -5.84914,0.84857 -6.91344,1.03826 -2.36185,0.42097 -5.53241,-2.22523 -5.53241,-4.61745 0,-0.96417 -0.43567,-2.01848 -0.96816,-2.3429 -1.17493,-0.71584 -9.78587,3.07449 -16.45055,7.24114 -6.07066,3.79529 -8.00704,3.81561 -11.58803,0.12161 -2.18192,-2.25077 -2.84988,-3.89426 -2.89227,-7.11618 -0.0765,-5.81314 0.47367,-8.78792 2.24185,-12.12197 3.83094,-7.22353 5.76115,-11.5029 5.76115,-12.77269 0,-0.75876 0.37633,-1.37956 0.8363,-1.37956 0.45997,0 1.44017,-1.8772 2.17824,-4.17155 2.52317,-7.84355 10.07985,-24.29319 11.15986,-24.29319 0.41834,0 0.76061,-0.59248 0.76061,-1.31662 0,-1.46261 6.66997,-14.66096 10.49546,-20.76809 1.35263,-2.1594 3.40513,-5.69295 4.56111,-7.85235 1.15599,-2.15939 2.75085,-4.65529 3.54414,-5.54642 1.03985,-1.16812 1.12584,-1.81311 0.30813,-2.31131 -1.27736,-0.77825 -5.96517,3.13568 -5.96517,4.9804 0,0.65857 -1.28175,2.55007 -2.84833,4.20331 -1.56658,1.65324 -3.41315,4.35012 -4.10347,5.99306 -0.69032,1.64294 -1.64882,2.98716 -2.13,2.98716 -0.48117,0 -0.87487,0.42209 -0.87487,0.93796 0,0.51587 -1.16497,2.61392 -2.58883,4.66232 -1.42386,2.04842 -2.99965,4.60777 -3.50177,5.68747 -0.50211,1.07969 -2.27329,4.17155 -3.93596,6.8708 -1.66267,2.69924 -3.29532,5.75546 -3.62812,6.79159 -0.33279,1.03613 -4.11738,8.83567 -8.41021,17.33231 -4.29282,8.49662 -7.80513,15.70316 -7.80513,16.01453 0,0.31135 -1.34415,2.71963 -2.987,5.35174 -1.64285,2.6321 -3.00398,5.39932 -3.02473,6.14939 -0.0539,1.94611 -11.13721,17.8536 -12.79755,18.36777 -1.06775,0.33065 -1.22107,-0.21883 -0.66918,-2.39829 z m 65.52408,-28.59271 c 2.48674,-3.10413 5.68864,-6.96896 7.11533,-8.5885 1.42669,-1.61955 2.59454,-3.49675 2.59521,-4.17156 6.6e-4,-0.67481 0.39491,-1.22693 0.87608,-1.22693 0.48118,0 1.43164,-1.32508 2.11213,-2.94463 0.68049,-1.61954 1.63095,-2.94463 2.11213,-2.94463 0.48118,0 0.87487,-0.62573 0.87487,-1.39052 0,-0.76478 0.37225,-1.53774 0.82721,-1.7177 0.45497,-0.17995 2.52386,-3.86073 4.59753,-8.17952 2.07366,-4.31879 6.1234,-12.71098 8.99943,-18.64932 2.87601,-5.93833 6.00487,-13.66798 6.95299,-17.177 0.94813,-3.50901 2.12677,-7.39462 2.6192,-8.63468 1.12864,-2.8422 1.15742,-6.08846 0.054,-6.08846 -1.99574,0 -9.46452,11.4035 -19.60745,29.93706 -1.77267,3.23909 -4.3951,7.87688 -5.82764,10.3062 -1.43254,2.42932 -3.09748,6.17967 -3.69988,8.33411 -0.60239,2.15445 -1.92185,5.06154 -2.93213,6.46022 -1.01027,1.39868 -2.7911,4.93629 -3.9574,7.86135 -1.16628,2.92505 -2.80333,6.86422 -3.63787,8.75369 -2.69844,6.10951 -3.1699,7.32094 -3.81991,9.81543 -0.35167,1.34962 -0.85807,3.22682 -1.12533,4.17156 -0.77837,2.75146 0.0694,2.06823 4.87152,-3.92617 z m -91.79228,25.9056 c -0.90305,-2.34151 0.88253,-17.74912 2.74626,-23.69713 1.08675,-3.46835 9.88729,-20.2605 14.66077,-27.97398 1.83748,-2.96916 3.61438,-6.56734 3.94867,-7.99595 0.3343,-1.4286 1.47852,-3.37426 2.54272,-4.32368 1.0642,-0.94942 1.9349,-2.3203 1.9349,-3.04641 0,-0.7261 0.39579,-1.32018 0.87954,-1.32018 0.48374,0 1.15751,-0.77297 1.49726,-1.7177 0.33975,-0.94474 1.89141,-3.95726 3.44814,-6.6945 1.55672,-2.73724 3.12308,-6.12632 3.48078,-7.53131 0.35771,-1.40498 1.80274,-3.9046 3.21119,-5.5547 1.40845,-1.6501 2.30188,-3.4132 1.98542,-3.91798 -0.31647,-0.50479 -0.12842,-1.06595 0.41789,-1.24702 1.28292,-0.42522 1.58074,-4.55985 0.55123,-7.65274 -0.7862,-2.3619 -0.75116,-2.38089 1.56996,-0.85116 3.42335,2.25617 2.33417,7.89549 -3.09547,16.02702 -1.44189,2.15939 -3.90711,6.57634 -5.47826,9.81543 -1.57115,3.23909 -4.7912,8.87521 -7.15566,12.52471 -2.36446,3.6495 -4.29903,7.1021 -4.29903,7.67245 0,0.57034 -1.05794,2.44303 -2.35098,4.16151 -2.08574,2.772 -11.85373,21.86545 -15.90964,31.0985 -1.81373,4.12886 -3.13258,19.57415 -1.83157,21.4499 1.11457,1.60696 2.60344,0.9488 12.32207,-5.44697 12.15138,-7.99675 18.61001,-14.73128 26.18997,-27.30877 3.83332,-6.36065 6.84823,-11.72795 6.69979,-11.92732 -0.14843,-0.19936 0.18956,-0.90591 0.75111,-1.5701 1.50084,-1.77519 9.96792,-18.49719 10.00494,-19.75919 0.0451,-1.53597 2.8252,-4.97017 3.49167,-4.31314 0.30631,0.30195 -0.36113,2.16034 -1.48321,4.12975 -1.12207,1.96942 -2.04012,4.2721 -2.04012,5.11708 0,0.84497 -0.92444,2.81614 -2.05429,4.38038 -1.12987,1.56423 -1.73272,3.35702 -1.33967,3.98396 0.47699,0.76085 0.2761,0.87272 -0.60408,0.33646 -0.98833,-0.60216 -1.13841,-0.34027 -0.59905,1.04535 0.39582,1.01684 0.39972,1.53341 0.009,1.14791 -0.39104,-0.38549 -2.67237,3.15133 -5.06963,7.85958 -2.39726,4.70827 -5.14575,9.45407 -6.10776,10.54625 -0.962,1.09216 -2.40076,3.31084 -3.19724,4.93039 -2.04659,4.16148 -2.76688,5.06931 -8.91565,11.23688 -5.28471,5.30089 -18.10873,15.28454 -22.58597,17.58348 -3.69942,1.89954 -7.22954,1.38581 -8.22568,-1.19706 z m 119.4355,0.0745 c 0.005,-0.65787 1.90942,-4.02474 4.23159,-7.48194 2.32217,-3.45719 4.8942,-7.43244 5.71562,-8.83388 0.82143,-1.40144 2.05357,-2.9013 2.73809,-3.33301 0.68452,-0.43171 1.24458,-1.5799 1.24458,-2.55154 0,-0.97164 1.336,-3.71027 2.96888,-6.08587 1.63289,-2.37559 2.97704,-4.87138 2.98701,-5.54619 0.01,-0.67481 0.37443,-1.22693 0.80992,-1.22693 0.4355,0 2.31962,-2.98143 4.18693,-6.62541 1.86732,-3.64398 4.35829,-7.9505 5.53549,-9.57004 1.83943,-2.53061 3.84502,-6.20363 9.77698,-17.90551 0.61361,-1.21044 1.41609,-2.20426 1.78328,-2.20847 0.3672,-0.004 0.96287,-1.33276 1.3237,-2.9523 0.36083,-1.61955 1.06851,-2.94463 1.57261,-2.94463 0.5041,0 0.91656,-0.62865 0.91656,-1.39701 0,-0.76835 1.10763,-2.69467 2.46141,-4.28072 1.35376,-1.58604 2.21041,-3.13114 1.90365,-3.43355 -0.66008,-0.65071 3.62288,-6.59341 4.75193,-6.59341 0.42745,0 0.51928,0.66255 0.20407,1.47232 -0.78439,2.01511 0.62812,1.85761 2.18686,-0.24385 0.70011,-0.94388 1.60425,-1.38954 2.0092,-0.99034 1.06484,1.04975 -5.4018,6.83992 -6.73312,6.02878 -0.68346,-0.41641 -0.84005,-0.23811 -0.40304,0.45894 0.39305,0.62694 -0.24115,2.46312 -1.40933,4.0804 -3.75698,5.20134 -12.94283,22.62425 -15.90815,30.17317 -0.68919,1.75451 -1.72145,3.19001 -2.2939,3.19001 -0.57245,0 -0.76571,0.2712 -0.42947,0.60267 0.33623,0.33148 1.81549,-0.33106 3.28722,-1.47231 1.47173,-1.14124 3.48891,-2.07499 4.48263,-2.07499 1.10238,0 3.63991,-2.58296 6.50886,-6.62541 2.58616,-3.64398 5.6854,-7.72965 6.8872,-9.07927 1.2018,-1.34962 3.8939,-5.54572 5.98243,-9.32466 2.08853,-3.77894 4.83658,-8.11935 6.10678,-9.64536 1.2702,-1.52599 2.30945,-3.56996 2.30945,-4.54213 0,-0.97218 0.67207,-2.31746 1.4935,-2.98951 0.82142,-0.67205 1.4935,-1.68517 1.4935,-2.25136 0,-0.56621 0.61907,-1.72678 1.37573,-2.57907 1.7144,-1.93107 3.02251,-5.97133 1.92728,-5.95268 -0.44762,0.008 -2.79409,1.77439 -5.21438,3.92617 -2.42029,2.15177 -4.7203,3.91231 -5.11112,3.91231 -0.39083,0 -0.95672,0.92783 -1.25754,2.06185 -0.30169,1.13727 -1.02413,1.77111 -1.6111,1.41348 -1.48418,-0.90425 1.05047,-3.95974 7.97186,-9.60997 6.1811,-5.0459 7.35883,-5.48798 8.28458,-3.10973 1.18395,3.04153 0.55345,4.94705 -3.31709,10.02517 -2.15678,2.8297 -4.23323,6.13052 -4.61431,7.33516 -0.38108,1.20464 -2.02615,4.03091 -3.65571,6.28063 -1.82969,2.52598 -2.66945,4.59067 -2.19572,5.39848 0.42191,0.71945 0.4294,1.00919 0.0166,0.64385 -0.74462,-0.65909 -9.52545,11.1754 -9.52545,12.83807 0,0.47684 -0.67207,1.12122 -1.4935,1.43197 -0.82142,0.31074 -1.50123,1.13095 -1.5107,1.8227 -0.009,0.69177 -1.12959,2.29791 -2.48917,3.56924 -1.35957,1.27132 -2.4651,3.0381 -2.45672,3.92617 0.0198,2.09402 1.45591,4.30644 2.58524,3.98264 0.48639,-0.13946 1.65813,1.70002 2.60386,4.08772 1.37401,3.46899 1.59247,6.01767 1.08723,12.6844 -1.20859,15.9478 -1.08825,18.98115 0.85229,21.48093 0.99943,1.28746 1.81714,3.09621 1.81714,4.01943 0,0.92323 0.86661,2.45174 1.9258,3.39669 1.8352,1.63727 2.06947,1.63443 4.97961,-0.0603 3.63945,-2.11938 4.59095,-4.44764 2.90516,-7.10874 -0.95804,-1.51231 -0.9735,-2.52062 -0.0687,-4.47833 1.39886,-3.02663 2.77796,-3.24872 3.49063,-0.56214 0.2866,1.08044 0.11484,1.71691 -0.38171,1.41438 -0.49655,-0.30253 -0.90281,-0.0822 -0.90281,0.48942 0,0.57171 0.44805,1.03947 0.99567,1.03947 0.54761,0 0.99566,1.50017 0.99566,3.33372 0,7.58957 -12.48499,12.78382 -15.57953,6.48171 -4.75784,-9.68943 -5.34599,-12.69053 -4.30187,-21.95072 1.2113,-10.74297 0.86524,-15.64122 -1.44396,-20.43848 -1.65513,-3.4385 -4.56196,-5.76714 -4.56196,-3.65457 0,0.55477 -0.33603,0.81358 -0.74675,0.57514 -0.41071,-0.23845 -1.64285,0.65914 -2.73808,1.99463 -3.05769,3.72844 -9.14782,9.24941 -12.26319,11.11709 -1.69631,1.01696 -3.49723,3.47303 -4.56204,6.22162 -0.96762,2.49775 -2.06094,4.54137 -2.42958,4.54137 -0.36865,0 -1.23132,1.24954 -1.91707,2.77677 -0.68575,1.52722 -2.57344,4.28781 -4.1949,6.13464 -4.62464,5.26747 -4.66145,5.3152 -5.99673,7.7748 -0.69577,1.28162 -2.10053,3.21428 -3.12169,4.29481 -1.02116,1.08055 -1.85666,2.27578 -1.85666,2.65607 0,0.3803 -0.67207,0.94569 -1.4935,1.25643 -0.82572,0.31237 -1.48927,0.0301 -1.48404,-0.63114 z m 18.90822,-26.22549 c 0,-0.53985 -0.19758,-0.98154 -0.43907,-0.98154 -0.24149,0 -0.71598,0.44169 -1.05443,0.98154 -0.33845,0.53985 -0.14087,0.98154 0.43907,0.98154 0.57993,0 1.05443,-0.44169 1.05443,-0.98154 z m 2.987,-4.90771 c 0,-0.53985 -0.47449,-0.98155 -1.05443,-0.98155 -0.57994,0 -0.77752,0.4417 -0.43907,0.98155 0.33845,0.53984 0.81294,0.98154 1.05443,0.98154 0.24149,0 0.43907,-0.4417 0.43907,-0.98154 z m 15.45291,-16.50286 c -0.23269,-0.2294 -1.10093,0.18763 -1.92944,0.9267 -0.82849,0.73908 -2.19398,1.91331 -3.03441,2.60941 -0.84043,0.69609 -1.52805,1.72579 -1.52805,2.28822 0,0.56242 1.55587,-0.42413 3.45748,-2.19234 1.90162,-1.76821 3.2671,-3.40261 3.03442,-3.63199 z M 415.38451,491.64174 c -0.28719,-0.45808 0.25767,-1.67274 1.21081,-2.69924 0.95314,-1.02649 3.02066,-4.39347 4.5945,-7.48219 1.57384,-3.08872 3.69084,-6.49339 4.70444,-7.56592 1.01359,-1.07253 1.8429,-2.32059 1.8429,-2.77345 0,-1.23323 7.84165,-8.5417 8.48468,-7.90779 0.30575,0.3014 -1.29452,2.48117 -3.55614,4.84393 -2.26162,2.36276 -4.51203,5.17932 -5.0009,6.25902 -0.48888,1.0797 -1.90474,3.55757 -3.14634,5.50638 -1.24161,1.94882 -3.53218,5.5928 -5.09016,8.09773 -3.00277,4.82786 -3.22309,5.03063 -4.04379,3.72153 z"
       id="path3687"
       inkscape:connector-curvature="0" />
    <path
       style="fill:#000000"
       id="path3689"
       d="m 537.17207,533.66462 c -0.39817,1.37951 -1.06735,2.65003 -1.6681,3.94618 -0.27816,0.4886 -0.47132,0.9802 -0.50638,1.53949 0.0409,0.70217 -0.26059,1.30716 -0.62588,1.88218 -0.51224,0.551 -0.85964,1.20801 -1.2666,1.82831 -0.26185,0.34414 -0.11564,0.17932 -0.442,0.49146 -0.0451,0.0519 -0.77895,-0.58639 -0.73382,-0.63827 l 0,0 c 0.22301,-0.16418 0.11089,-0.0602 0.31719,-0.33148 0.33242,-0.4438 -0.0363,0.0792 0.32622,-0.58494 0.24662,-0.45175 0.61427,-0.83086 0.93186,-1.23101 0.32116,-0.456 0.55765,-0.90562 0.52064,-1.48169 0.0597,-0.63732 0.22096,-1.24999 0.51216,-1.82408 0.52288,-1.25734 1.15048,-2.46911 1.66179,-3.73199 0.01,-0.0688 0.98252,0.067 0.97292,0.13584 z"
       inkscape:connector-curvature="0" />
    <path
       style="fill:#000000"
       id="path3691"
       d="m 537.41644,535.89614 c -0.24431,0.88503 -0.69726,1.68501 -1.04069,2.52968 -0.16287,0.40058 -0.29176,0.81415 -0.43726,1.22137 -0.43193,1.14563 -0.90616,2.29991 -1.70035,3.24499 -0.15154,0.25719 -0.40621,0.34653 -0.65656,0.46583 -0.16938,0.0807 -0.31406,0.2049 -0.48832,0.28679 -0.2434,-0.13849 -0.54839,-0.20245 -0.73018,-0.41546 -0.0784,-0.0919 -0.0301,-1.02007 -0.0275,-1.07003 0.0353,-0.68739 0.10119,-1.37454 0.15665,-2.06051 0.0379,-0.56587 0.0754,-1.13208 0.0888,-1.69919 0.004,-0.16691 -0.0176,-0.50137 0.059,-0.6691 0.0557,-0.12199 0.1563,-0.21798 0.23445,-0.32697 0.27689,0.11527 0.59839,0.15607 0.83067,0.34581 0.11052,0.0903 0.0761,0.27546 0.10174,0.41583 0.14747,0.80629 0.11873,1.64628 0.11707,2.46144 -0.0617,0.85792 -0.005,1.73857 -0.13919,2.5912 -0.32254,-0.13938 -0.71715,-0.17171 -0.9676,-0.41814 -0.12825,-0.12619 -0.005,-0.3598 -0.006,-0.53972 -0.003,-0.75318 0.10242,-1.45886 0.25535,-2.19448 0.0571,-0.54807 0.38341,-0.989 0.60214,-1.47651 0.2374,-0.64786 0.67965,-1.19052 1.01668,-1.78949 0.51346,-0.7258 1.28634,-1.19543 1.98145,-1.7292 0.71679,-0.41501 0.63046,-0.31361 0.77283,-1.09468 -0.0121,0.006 0.15749,-0.83847 -0.0349,-0.76522 -0.10907,0.31729 0.25913,0.0971 -0.0558,0.37631 -0.46106,0.61938 -0.75302,1.29362 -0.6921,2.06973 -0.10203,-0.0173 0.38284,1.25715 0.30456,1.26026 -0.31629,0.0125 -0.62759,-0.0832 -0.94138,-0.12478 0.0854,-0.97048 0.22514,-1.93447 0.28705,-2.9072 0.57938,-0.2919 -0.14873,-0.25064 -0.0968,-0.19846 0.0856,0.086 0.22221,0.11389 0.29838,0.20829 0.0182,0.0225 -0.23154,0.22475 -0.31411,0.33152 -0.0817,0.10572 -0.13897,0.2283 -0.20846,0.34246 -0.0326,0.0636 -0.93195,-0.39787 -0.89932,-0.46146 l 0,0 c 0.19687,-0.30296 0.72063,-1.10055 1.14579,-1.14135 0.78327,-0.0752 1.00321,0.33997 1.07417,0.96192 -0.0383,0.97219 -0.14916,1.93898 -0.32389,2.89636 -0.3193,0.097 -0.62651,0.25165 -0.95788,0.29114 -0.0206,0.002 -0.34912,-1.31753 -0.3543,-1.3992 -0.0722,-1.07355 0.27773,-2.0116 0.97618,-2.83533 0.16744,-0.11492 0.30608,-0.29246 0.5023,-0.34477 1.20867,-0.32219 1.46284,0.7059 1.26923,1.59886 -0.15568,0.75782 -0.28254,1.28107 -1.03764,1.61799 -0.60279,0.47841 -1.26172,0.89959 -1.78799,1.46172 -0.32801,0.58793 -0.77215,1.10136 -1.02607,1.723 -0.20835,0.41696 -0.4536,0.82307 -0.50795,1.29371 -0.13086,0.68637 -0.21223,1.33881 -0.22981,2.03796 -0.005,0.17954 0.11465,0.41675 -0.0174,0.53851 -0.25615,0.23624 -0.65007,0.25121 -0.9751,0.37681 -0.0641,-0.85132 0.0744,-1.71348 0.041,-2.5657 0.0124,-0.76528 0.0315,-1.53004 -0.0415,-2.29301 -0.008,-0.0805 -0.10486,-0.21596 -0.028,-0.24085 0.21784,-0.0705 0.45756,0.0185 0.68633,0.0277 0.0348,-0.082 0.0432,-0.1812 0.10429,-0.24608 0.0371,-0.0394 -0.0227,0.1064 -0.0237,0.16046 -0.009,0.48997 0.0188,0.97685 -0.003,1.4681 -0.01,0.2242 -0.0258,0.4481 -0.0387,0.67215 -0.0516,0.68207 -0.11487,1.36221 -0.17984,2.04309 -0.0164,0.1716 -0.0286,0.34363 -0.0481,0.51489 -0.008,0.0702 0.0356,0.2006 -0.0345,0.20915 -0.20891,0.0255 -0.41194,-0.0864 -0.61792,-0.12959 -0.0108,0.16656 0.16551,-0.13884 0.47417,-0.29601 0.0393,-0.02 0.0892,-0.0221 0.13182,-0.0108 0.0198,0.005 0.0143,0.0674 0.0297,0.0539 0.0565,-0.0497 0.0825,-0.12592 0.12372,-0.18888 0.68951,-0.90025 1.10678,-1.9733 1.5286,-3.01732 0.467,-1.25665 0.96715,-2.49299 1.52688,-3.71233 0.0186,-0.0671 0.96731,0.19576 0.94873,0.26285 z"
       inkscape:connector-curvature="0" />
    <path
       style="fill:#000000"
       id="path3695"
       d="m 314.11271,580.83372 c -1.40863,-0.014 -2.74838,-0.50896 -4.01426,-1.08997 -0.37218,-0.25743 -0.85344,-0.43455 -1.12481,-0.82069 -0.15857,-0.22564 -0.21762,-0.48537 -0.38623,-0.70631 -0.44475,-0.56794 -0.69162,-1.16924 -0.77177,-1.88434 -0.0352,-0.78551 0.12451,-1.52407 0.54115,-2.19006 0.48383,-0.48073 0.44685,-0.97703 0.39655,-1.61925 -0.21434,-1.68724 -0.16733,-3.3914 -0.2801,-5.08409 -0.0144,-0.084 -0.12778,-0.26301 -0.0433,-0.25205 0.30854,0.04 0.66112,0.12053 0.86189,0.3582 0.11741,0.13898 -0.0734,0.35641 -0.10717,0.53517 -0.12866,0.68012 -0.21327,1.35864 -0.28405,2.04685 -0.0891,0.83483 -0.0442,1.67198 0.0547,2.50276 0.0682,0.51674 0.0434,1.03866 0.0278,1.5578 -0.0233,0.65445 -0.0265,1.30928 -0.0236,1.96406 0.21883,0.48954 0.16084,1.3167 0.57106,1.65001 0.40665,0.49632 0.96935,0.53589 1.5613,0.60893 0.60772,-0.0179 1.29973,0.13889 1.95099,0.23658 0.51927,0.18139 0.98198,0.43672 1.54099,0.42489 0.51057,-0.0653 1.06435,-0.11287 1.59397,-0.14289 0.0666,-0.02 0.35015,0.92166 0.28356,0.94171 l 0,0 c -0.72123,0.0295 -1.43615,0.13676 -2.15848,0.13135 -0.57221,-0.0571 -1.0825,-0.27347 -1.62989,-0.43317 -0.65609,-0.10644 -1.26501,-0.2661 -1.92648,-0.24842 -0.79675,-0.11305 -1.52696,-0.30646 -2.04323,-0.98131 -0.0959,-0.13833 -0.2118,-0.26472 -0.2876,-0.41498 -0.26867,-0.53266 -0.23225,-1.21159 -0.43838,-1.76749 -0.005,-0.66662 -0.005,-1.33348 0.0276,-1.99954 0.0207,-0.47151 0.0611,-0.94762 -0.0137,-1.41649 -0.13872,-0.89432 -0.21626,-1.79566 -0.13308,-2.70113 0.0705,-0.72718 0.15762,-1.44159 0.32303,-2.15453 0.0444,-0.19144 -0.008,-0.45281 0.14987,-0.57021 0.29681,-0.22108 0.68998,-0.34387 1.05985,-0.33086 0.12971,0.005 0.0763,0.24809 0.1145,0.37213 0.20634,1.6968 0.1394,3.4174 0.25558,5.1219 0.0239,0.77471 0.0363,1.54191 -0.54437,2.13365 -0.36109,0.46455 -0.41766,1.06244 -0.41968,1.63439 0.0542,0.57667 0.29149,1.03881 0.63737,1.50075 0.0958,0.14888 0.1908,0.42745 0.3026,0.5576 0.24312,0.28303 0.64033,0.39311 0.93989,0.59422 1.02818,0.43354 2.08412,0.79753 3.18966,0.97556 0.0678,-0.0174 0.31413,0.94185 0.2463,0.95927 z"
       inkscape:connector-curvature="0" />
    <path
       style="fill:#000000"
       id="path3697"
       d="m 413.96585,494.30233 c 0.86185,-1.08699 2.05002,-1.94691 2.73283,-3.16754 0.15097,-0.32186 0.0831,-0.66403 0.0435,-1.0044 -0.006,-0.0679 0.95435,-0.15868 0.96077,-0.0907 l 0,0 c 0.0545,0.50036 0.12447,1.00364 -0.0765,1.4847 -0.6466,1.35023 -1.83954,2.33809 -2.87751,3.38537 -0.043,0.0554 -0.82599,-0.55202 -0.78304,-0.60739 z"
       inkscape:connector-curvature="0" />
    <path
       style="fill:#000000"
       id="path3699"
       d="m 416.80427,490.75985 c -0.7975,0.3613 -1.74941,0.83376 -1.84595,1.79831 0.091,0.43929 0.26226,0.85209 0.33967,1.29648 0.0104,0.0599 0.0814,0.17517 0.0208,0.18137 -0.32513,0.0333 -0.65128,-0.0557 -0.97692,-0.0835 -0.0991,-0.70238 -0.0892,-1.53439 0.38577,-2.11554 0.10267,-0.12561 0.2398,-0.21855 0.35971,-0.32783 0.31577,-0.16353 0.65013,-0.25606 0.95426,-0.43782 0.0513,-0.0467 0.71115,0.67814 0.6599,0.7248 l 0,0 c -0.27876,0.19235 -0.54557,0.38978 -0.90033,0.39513 -0.59413,0.32331 -0.54175,1.06747 -0.50131,1.66286 -0.30893,0.10867 -0.60474,0.26651 -0.92677,0.32601 -0.0192,0.004 -0.0286,-0.14903 -0.10433,-0.4223 -0.12001,-0.43307 -0.30601,-0.84883 -0.30187,-1.30854 0.0263,-0.17833 0.0271,-0.36236 0.079,-0.535 0.31208,-1.03874 1.32382,-1.6367 2.26779,-2.00796 0.0604,-0.0347 0.55089,0.81887 0.49053,0.85356 z"
       inkscape:connector-curvature="0" />
    <path
       style="fill:#000000"
       id="path3701"
       d="m 458.50958,492.20685 c -0.0522,1.45604 -0.40552,2.84698 -0.87554,4.21659 -0.18326,0.61719 -0.46791,1.19088 -0.76067,1.76118 -0.16303,0.37294 -0.31306,0.7488 -0.48383,1.11912 -0.0241,0.0646 -0.93825,-0.2762 -0.91415,-0.34084 l 0,0 c 0.17268,-0.38904 0.32553,-0.78314 0.50184,-1.16995 0.28952,-0.51879 0.53839,-1.05137 0.66868,-1.63575 0.40647,-1.33516 0.74341,-2.67446 0.8797,-4.06819 0.008,-0.0696 0.9923,0.0483 0.98397,0.11784 z"
       inkscape:connector-curvature="0" />
    <path
       style="fill:#000000"
       id="path3703"
       d="m 577.7467,471.28438 c -0.66093,0.7165 -1.4872,1.24326 -2.19522,1.90608 -0.2706,0.25332 -0.52293,0.5255 -0.78559,0.78705 -0.19154,0.35118 -0.63197,0.64097 -0.79789,0.99366 -0.22955,0.45804 -0.63446,0.76578 -1.04182,1.05601 -0.0506,0.047 -0.715,-0.66889 -0.66438,-0.71586 l 0,0 c 0.30823,-0.19061 0.62822,-0.40331 0.82125,-0.71575 0.23769,-0.4451 0.63672,-0.76979 0.8733,-1.22524 0.936,-1.01582 1.90819,-1.85579 3.00731,-2.69334 0.043,-0.0554 0.82599,0.55202 0.78304,0.60739 z"
       inkscape:connector-curvature="0" />
    <path
       style="fill:#000000"
       id="path3705"
       d="m 571.60822,471.03394 c -0.2444,1.40648 -0.80826,2.75274 -1.43851,4.02843 -0.44821,0.87606 -1.03847,1.65757 -1.28249,2.62087 -0.0887,0.34072 -0.1858,0.69415 -0.35851,1.00456 -0.0391,0.0703 -0.0598,0.21295 -0.13878,0.19749 -1.06474,-0.20855 -0.91818,-0.19757 -0.97923,-0.90144 -0.008,-0.76729 -0.0116,-0.37866 0.0118,-1.16587 0.002,-0.0725 1.02709,-0.0417 1.02491,0.0308 l 0,0 c -0.0314,0.74658 -0.0192,0.38192 -0.0375,1.09395 -9.1e-4,0.63074 0.12175,0.39712 -0.83569,0.44924 -0.0179,9.7e-4 0.0305,-0.0213 0.0387,-0.0372 0.0387,-0.0754 0.0687,-0.15491 0.1004,-0.23349 0.13287,-0.32964 0.0951,-0.245 0.18646,-0.64372 0.12421,-0.50415 0.11634,-0.57906 0.34372,-1.05789 0.28481,-0.59976 0.73231,-1.11102 0.96878,-1.73601 0.55173,-1.18124 1.0268,-2.40584 1.41435,-3.64975 0,-0.0694 0.98163,-0.0694 0.98163,0 z"
       inkscape:connector-curvature="0" />
    <path
       style="fill:#000000"
       id="path3709"
       d="m 582.70554,553.39892 c -0.006,-0.1825 -0.0144,-0.36495 -0.0187,-0.54751 -0.0108,-0.45566 0.004,-0.91183 -0.0123,-1.36731 -0.004,-0.11623 -0.17664,-1.21786 -0.0754,-0.75635 0.24897,0.0164 0.5215,-0.0577 0.7469,0.0493 0.0897,0.0426 -0.0124,0.19814 -0.0167,0.29731 -0.0321,0.73257 -0.0191,1.46308 0.004,2.19567 0.0378,0.74761 0.0746,1.49469 0.0674,2.24341 -0.005,0.12022 -0.016,0.98807 -0.0354,0.98666 -1.08896,-0.0787 -0.95799,0.003 -0.98276,-0.64772 -0.0365,-1.22432 -0.0213,-2.4494 -0.003,-3.67388 0.0142,-0.35076 0.007,-0.70255 0.0219,-1.05327 0.002,-0.0414 -0.0272,-0.13735 0.0119,-0.12375 0.97044,0.33714 0.89086,0.16821 0.74013,0.76849 -0.18782,0.83675 -0.21852,1.69314 -0.15904,2.5454 0.0524,0.4521 0.091,0.90436 0.1025,1.35933 10e-4,0.0687 -0.97051,0.0868 -0.97179,0.0181 l 0,0 c -0.008,-0.43944 -0.0523,-0.87485 -0.11465,-1.30998 -0.0879,-0.95176 -0.0698,-1.91124 0.17292,-2.84208 0.21989,-0.71051 0.0278,-0.56804 1.17961,-0.54214 0.0146,3.3e-4 0.0245,0.68907 0.0255,0.74855 0.002,0.14466 0.004,0.28932 0.007,0.43398 0.011,1.22195 0.0137,2.44421 -0.0191,3.66587 -0.0167,0.64176 0.11093,0.55104 -0.96833,0.62269 -0.015,9.9e-4 0.0243,-0.94531 0.0172,-0.95804 -0.004,-0.73735 -0.0576,-1.47284 -0.10946,-2.20813 -0.0364,-0.77843 -0.0795,-1.57343 0.0256,-2.34894 0.0228,-0.16824 -0.0332,-0.39257 0.0985,-0.49971 0.24769,-0.20151 0.60283,-0.21074 0.90425,-0.3161 0.0679,0.0968 0.15631,0.18214 0.20375,0.29047 0.38145,0.8711 0.0851,2.04905 0.13939,2.9697 0,0.0694 -0.98163,0.0694 -0.98163,0 z"
       inkscape:connector-curvature="0" />
    <path
       style="fill:#000000"
       id="path3711"
       d="m 437.12326,463.37252 c -0.44197,-0.0469 -1.82788,-0.24288 -2.09632,0.28264 -0.0408,0.65579 0.0167,1.29233 -0.15899,1.93701 -0.12847,-0.0419 -0.0363,0.49455 -0.20388,0.467 -0.34115,-0.0561 -0.71437,-0.14037 -0.96612,-0.37734 -0.15712,-0.14789 0.17249,-1.51614 0.221,-1.70681 0.44983,-1.11547 1.32492,-1.84345 2.44359,-2.21765 0.44472,-0.11494 1.63139,-0.20483 1.81245,0.43209 0.0483,0.16997 -0.002,0.35341 -0.002,0.53012 -0.12256,0.11883 -0.22278,0.26624 -0.36768,0.35648 -0.54726,0.34081 -1.28349,0.14774 -1.8802,0.2424 -0.12016,0.0191 -0.23294,0.0703 -0.34941,0.10552 -0.65275,0.44683 -0.8478,1.28057 -1.1412,1.97411 -0.14121,0.51305 -0.49524,0.79536 -0.89604,1.09387 -0.44301,0.34227 -0.94622,0.62302 -1.35644,1.00313 -0.5498,0.40635 -0.755,0.99039 -1.05721,1.56586 -0.0278,0.0635 -0.92546,-0.32994 -0.89764,-0.39341 l 0,0 c 0.36606,-0.66591 0.54177,-1.30521 1.19142,-1.79649 0.42925,-0.40769 0.95165,-0.71807 1.43665,-1.05528 0.017,-0.0127 0.25367,-0.19801 0.31016,-0.21699 0.0152,-0.005 0.0292,0.0323 0.0421,0.0229 0.15577,-0.11276 0.22699,-0.38832 0.28749,-0.54157 0.37215,-0.94405 0.6681,-1.9568 1.57915,-2.52958 0.18399,-0.0648 0.36134,-0.15301 0.55195,-0.19452 0.11176,-0.0243 1.47216,-0.0816 1.57906,-0.0403 0.0432,0.0167 0.0367,0.085 0.0551,0.12757 0.21355,0.53566 0.003,0.0846 -0.40108,0.15618 -0.86499,0.31429 -1.52239,0.73562 -1.94078,1.60048 -0.0485,0.1677 -0.10693,0.33282 -0.14534,0.5031 -0.036,0.15955 -0.0537,0.32271 -0.0775,0.48453 -0.0155,0.10528 0.054,0.26784 -0.0405,0.31665 -0.25547,0.13188 -0.56469,0.11224 -0.85051,0.14331 -0.0987,0.0107 0.6611,-0.48636 0.11339,-0.27539 0.20509,-0.71953 -0.0413,-1.47822 0.24605,-2.18282 0.0983,-0.13849 0.17055,-0.29981 0.2949,-0.41547 0.73479,-0.68343 2.14988,-0.47113 3.0384,-0.30994 0.0643,0.0264 -0.30928,0.93499 -0.37352,0.90857 z"
       inkscape:connector-curvature="0" />
  </g>
</svg>
