<?xml version="1.0" encoding="UTF-8" ?>
<!DOCTYPE svg PUBLIC "-//W3C//DTD SVG 1.1//EN" "http://www.w3.org/Graphics/SVG/1.1/DTD/svg11.dtd">
<svg width="576pt" height="155pt" viewBox="0 0 576 155" version="1.1" xmlns="http://www.w3.org/2000/svg">
<g id="#ffffffff">
</g>
<g id="#000000ff">
<path fill="#000000" opacity="1.00" d=" M 45.07 11.83 C 46.44 9.63 48.30 7.12 51.24 7.54 C 51.20 9.54 50.47 11.32 48.95 12.64 L 49.45 13.32 C 46.40 16.58 43.76 20.19 40.85 23.57 C 48.12 22.94 55.98 20.82 62.93 23.98 C 62.41 24.16 61.36 24.50 60.84 24.67 C 61.06 27.21 60.45 29.60 58.78 31.56 C 59.03 32.18 59.51 33.41 59.75 34.03 C 64.32 33.97 68.89 34.01 73.47 34.00 C 73.50 33.52 73.58 32.55 73.62 32.07 C 76.36 35.92 76.83 40.63 78.03 45.06 C 77.27 45.78 76.51 46.49 75.75 47.21 C 76.79 47.63 77.83 48.04 78.87 48.45 C 78.80 49.03 78.66 50.19 78.59 50.76 C 78.05 50.98 76.99 51.40 76.45 51.62 C 76.41 52.18 76.32 53.31 76.27 53.87 C 77.00 54.12 78.45 54.63 79.17 54.88 C 78.59 56.68 76.61 56.97 75.13 57.63 C 74.67 58.96 74.32 60.33 74.03 61.71 C 75.51 61.73 76.99 61.74 78.48 61.72 C 83.25 57.56 88.33 53.52 94.26 51.17 C 98.08 50.74 101.94 51.13 105.77 50.96 C 106.72 50.00 107.67 48.97 109.08 48.75 C 109.18 50.24 109.27 51.74 109.36 53.24 C 108.08 53.95 106.75 54.53 105.33 54.86 C 102.92 57.37 99.51 58.56 97.05 61.01 C 95.65 62.38 94.27 63.77 92.82 65.08 C 92.10 65.01 90.65 64.87 89.93 64.81 C 90.03 63.59 90.13 62.38 90.27 61.17 C 93.09 59.70 95.66 57.28 96.58 54.16 C 95.27 54.41 94.01 54.83 92.81 55.40 C 91.68 55.95 90.56 56.48 89.43 57.01 C 88.02 58.48 86.07 58.97 84.15 59.36 C 84.01 59.89 83.74 60.94 83.60 61.47 C 82.19 62.16 80.78 62.84 79.31 63.40 C 79.00 63.80 78.36 64.61 78.05 65.01 C 75.73 65.01 73.42 64.99 71.11 64.90 C 71.04 63.30 71.00 61.70 70.97 60.09 C 69.47 59.71 67.82 58.21 66.43 59.68 C 62.50 62.50 58.04 64.54 53.41 65.88 C 51.82 66.00 50.22 66.06 48.62 66.15 C 46.46 67.81 43.62 66.96 41.12 67.16 C 40.68 67.44 39.80 68.01 39.37 68.30 C 36.44 68.20 33.46 68.37 30.63 67.45 C 30.64 65.26 30.54 63.06 30.69 60.87 C 32.00 57.54 33.83 54.32 36.47 51.86 C 37.55 52.16 38.62 52.47 39.70 52.78 C 38.99 55.19 37.37 57.14 35.92 59.14 C 34.81 60.48 35.02 62.23 34.92 63.85 C 37.68 63.89 40.44 63.88 43.20 63.90 C 43.31 63.33 43.54 62.19 43.66 61.62 C 46.17 61.55 48.51 62.66 50.98 62.72 C 59.00 60.81 66.10 55.54 70.31 48.43 C 72.99 46.28 72.08 42.71 72.05 39.75 C 70.69 38.29 68.85 37.51 67.13 36.58 C 62.67 35.92 58.48 38.23 54.03 37.35 C 54.29 35.60 53.27 33.23 55.04 32.05 C 56.86 30.58 57.07 28.14 57.48 26.01 C 54.11 25.99 50.73 25.97 47.35 26.05 C 44.57 28.73 40.40 27.74 37.05 29.20 C 37.09 29.56 37.17 30.30 37.22 30.67 C 35.17 31.33 33.47 32.74 32.24 34.48 C 31.45 36.37 32.24 38.42 32.61 40.32 C 31.19 40.49 29.77 40.69 28.36 40.93 C 27.36 42.74 26.62 45.08 24.06 44.99 C 24.28 42.32 25.73 40.06 26.72 37.65 C 26.18 37.50 25.11 37.20 24.57 37.06 C 24.53 37.67 24.45 38.91 24.40 39.52 C 24.02 39.54 23.26 39.56 22.88 39.58 C 22.35 41.43 21.43 43.15 21.01 45.04 C 20.22 45.00 18.64 44.91 17.84 44.86 C 18.29 40.61 19.69 36.53 20.23 32.29 C 20.93 29.96 23.03 31.52 24.51 32.01 C 24.05 31.42 23.13 30.25 22.68 29.66 C 24.24 29.78 25.69 29.43 27.05 28.62 C 27.58 29.74 28.12 30.86 28.66 31.98 C 29.23 30.16 29.57 28.04 31.37 26.98 C 31.71 23.54 34.73 21.61 36.60 19.01 C 38.68 16.77 40.78 14.07 44.02 13.58 C 44.62 13.52 40.16 12.78 41.69 12.25 C 42.53 12.15 44.23 11.93 45.07 11.83 M 68.87 54.99 C 68.52 56.98 70.55 57.64 72.09 57.74 C 72.67 57.34 73.82 56.55 74.39 56.15 C 74.33 54.78 74.26 53.41 74.17 52.04 C 72.36 52.36 68.57 52.30 68.87 54.99 Z" />
<path fill="#000000" opacity="1.00" d=" M 553.02 21.82 C 557.61 19.51 562.72 17.47 567.95 18.28 C 570.34 19.35 573.54 22.47 570.92 24.98 C 566.52 30.52 561.73 36.18 555.50 39.68 C 554.29 42.42 551.04 42.96 548.82 44.64 C 546.02 45.82 544.71 49.54 541.31 49.24 C 540.67 53.20 535.95 53.85 533.91 56.85 C 532.40 59.31 530.27 61.85 530.68 64.94 C 531.05 69.80 531.32 75.06 528.29 79.20 C 527.09 80.39 525.38 81.17 524.92 82.93 C 524.55 82.95 523.82 83.00 523.45 83.02 C 523.62 85.24 521.59 85.73 520.33 84.13 C 520.31 86.39 517.82 87.45 516.64 89.10 C 518.36 88.96 520.02 89.20 521.62 89.81 C 524.71 90.40 527.31 92.32 530.22 93.42 C 531.29 93.48 532.36 93.54 533.44 93.59 C 533.61 94.09 533.95 95.07 534.12 95.56 C 535.56 95.60 537.01 95.66 538.47 95.72 C 540.16 97.33 542.13 98.65 543.58 100.51 C 547.97 103.06 550.87 107.87 550.85 112.98 C 550.76 117.44 550.71 122.32 548.04 126.12 C 542.23 134.68 533.94 142.10 523.82 144.92 C 516.51 147.73 508.52 146.26 500.93 147.37 C 496.97 148.03 492.99 147.24 489.14 146.36 C 484.95 144.95 480.44 145.99 476.12 145.33 C 472.67 142.12 467.37 144.78 464.07 141.58 C 462.01 141.38 459.95 141.35 457.89 141.33 C 457.25 141.81 456.62 142.30 456.00 142.79 C 455.71 142.08 455.15 140.66 454.87 139.95 C 449.59 137.20 442.89 136.58 438.80 131.95 C 436.07 131.93 433.17 132.55 430.68 131.12 C 431.64 130.88 433.54 130.39 434.50 130.14 C 432.95 126.86 428.92 125.87 427.35 122.59 C 425.40 119.02 423.57 115.38 421.44 111.90 C 420.78 108.89 421.30 105.73 421.26 102.66 C 423.90 100.46 426.34 97.94 427.77 94.77 C 421.90 96.05 415.91 96.40 409.94 95.66 C 410.19 95.18 410.68 94.22 410.93 93.74 C 414.03 93.28 417.17 93.24 420.31 93.28 C 423.36 91.63 426.92 92.40 430.24 92.18 C 431.22 91.54 432.31 91.16 433.49 91.01 C 435.09 89.12 437.74 89.52 439.95 89.17 C 442.46 89.09 445.25 88.43 447.54 89.82 C 449.46 90.15 451.40 90.45 453.32 90.84 C 448.80 94.12 442.98 91.82 438.03 93.71 C 435.28 93.88 433.74 96.33 431.56 97.62 C 428.31 99.34 426.67 102.96 425.10 106.10 C 423.67 115.69 430.52 124.51 438.18 129.51 C 442.07 129.79 445.71 127.87 449.61 128.39 L 449.31 127.47 C 457.07 125.76 464.77 123.83 472.45 121.80 C 475.77 118.91 480.66 119.03 483.84 115.94 C 485.03 115.61 486.23 115.28 487.43 114.94 C 488.00 113.84 488.60 112.76 489.22 111.69 C 491.65 110.64 494.00 109.44 496.42 108.35 C 496.49 107.86 496.64 106.89 496.71 106.40 C 497.99 105.95 499.27 105.47 500.53 104.95 C 500.71 102.88 501.88 101.72 503.99 101.75 C 504.00 101.41 504.03 100.72 504.04 100.38 C 508.06 97.97 509.62 92.92 509.30 88.43 C 510.65 87.85 512.00 87.26 513.36 86.69 C 513.10 84.61 514.90 84.10 516.49 83.57 C 521.14 80.65 525.39 76.58 526.94 71.16 C 527.31 66.65 526.62 61.98 528.36 57.66 C 529.36 57.26 530.37 56.85 531.38 56.44 C 531.47 55.86 531.66 54.72 531.76 54.15 C 534.29 52.14 536.51 49.67 539.50 48.29 C 541.29 47.13 542.87 45.68 544.59 44.40 C 545.87 43.09 547.46 42.18 548.85 41.00 C 550.75 39.57 552.53 37.99 554.44 36.57 C 557.04 34.42 559.35 31.98 561.71 29.57 C 562.42 26.93 564.11 24.78 566.13 22.99 C 565.80 22.43 565.14 21.32 564.81 20.76 C 558.54 22.88 552.38 25.39 546.47 28.37 C 545.14 28.79 544.45 29.93 543.88 31.11 C 536.76 35.92 530.18 42.08 525.08 49.12 C 522.57 51.38 520.29 53.87 517.87 56.23 C 517.73 54.39 517.48 52.27 519.73 51.66 C 520.88 49.89 521.82 47.88 523.54 46.56 C 529.03 41.82 533.43 35.76 539.52 31.75 C 541.09 30.91 542.16 29.49 543.41 28.26 C 546.64 26.17 550.23 24.54 553.02 21.82 M 508.98 100.15 C 505.75 103.32 502.22 106.16 498.59 108.86 C 495.99 111.48 493.20 114.14 489.79 115.67 C 485.71 116.79 482.59 119.88 478.39 120.70 C 475.08 123.09 470.91 123.37 467.40 125.33 C 465.97 125.44 464.53 125.55 463.12 125.71 C 457.11 129.15 449.88 128.36 443.56 130.91 C 443.53 131.53 443.48 132.76 443.45 133.38 C 447.93 135.50 452.48 137.66 457.31 138.95 C 461.05 140.53 465.43 139.68 468.90 142.05 C 470.39 142.33 471.95 142.49 473.29 143.30 C 478.47 143.30 483.83 143.44 488.71 145.37 C 490.85 145.27 493.00 145.18 495.14 145.36 C 501.53 145.84 507.86 144.58 514.22 144.22 C 517.42 143.13 520.94 143.60 524.05 142.10 C 525.03 141.57 526.09 141.25 527.23 141.13 C 529.74 138.90 533.12 137.97 535.52 135.60 C 536.82 134.32 538.20 133.12 539.86 132.32 C 541.06 130.43 542.10 128.32 544.08 127.12 C 544.31 125.66 544.00 123.92 545.32 122.89 C 545.29 122.19 545.23 120.80 545.20 120.10 C 545.48 119.68 546.05 118.86 546.33 118.45 C 546.24 116.99 546.15 115.53 546.07 114.07 C 545.49 112.41 545.32 110.66 545.17 108.93 C 544.24 107.20 544.13 104.94 542.46 103.71 C 539.86 101.56 537.75 98.48 534.22 97.85 C 531.57 97.73 529.53 96.03 527.17 95.10 C 525.47 94.47 523.84 93.65 522.44 92.49 C 519.90 92.46 517.35 92.43 514.82 92.31 C 512.62 94.76 511.58 98.04 508.98 100.15 Z" />
<path fill="#000000" opacity="1.00" d=" M 345.74 22.14 C 349.19 20.98 352.42 18.39 356.25 19.50 C 355.39 22.54 352.33 24.14 351.00 26.94 C 349.33 30.62 344.97 32.21 343.91 36.21 C 346.63 36.28 349.37 36.35 352.09 36.10 C 355.58 35.36 358.12 32.36 361.67 31.76 C 362.21 29.58 364.43 30.06 366.15 29.89 C 368.40 27.64 371.17 25.90 374.38 25.44 C 374.90 23.84 376.36 23.53 377.85 23.39 C 378.40 22.70 378.95 22.01 379.50 21.32 C 379.90 23.63 381.89 28.36 378.03 28.27 C 378.02 28.60 378.00 29.26 377.99 29.59 C 376.00 30.23 374.83 32.05 373.41 33.45 C 370.39 36.86 366.93 39.84 363.90 43.22 C 360.71 43.75 358.96 46.78 356.77 48.82 C 354.74 51.30 351.37 53.19 351.49 56.81 C 356.97 55.09 361.35 51.19 366.17 48.22 C 368.83 47.87 371.40 46.99 373.84 45.88 C 374.63 45.87 376.21 45.87 377.00 45.86 C 376.99 47.45 377.00 49.04 377.00 50.63 C 375.49 52.37 373.92 54.07 372.12 55.53 C 371.87 56.58 371.62 57.64 371.38 58.70 C 369.67 58.82 367.89 59.29 366.24 58.66 C 366.21 57.72 366.23 56.78 366.29 55.84 C 369.10 55.01 370.55 52.39 371.99 50.07 C 362.96 50.00 357.07 57.84 349.62 61.63 C 348.04 62.61 346.57 60.95 345.14 60.47 C 344.17 55.63 349.26 53.12 351.97 50.05 C 353.94 46.28 358.57 45.38 361.06 42.06 C 363.19 40.10 364.27 37.03 366.97 35.73 C 367.08 34.96 367.18 34.19 367.30 33.43 C 367.89 32.80 369.07 31.55 369.66 30.92 C 368.68 31.59 367.73 32.31 366.82 33.08 C 362.59 32.91 359.68 36.14 356.49 38.38 C 351.33 39.85 345.84 41.60 340.59 39.63 C 337.46 42.84 334.14 45.86 331.06 49.13 C 327.84 51.64 325.66 55.24 322.22 57.49 C 322.06 58.09 321.76 59.30 321.61 59.90 C 319.80 59.92 318.01 59.86 316.22 59.76 C 316.32 59.31 316.54 58.41 316.65 57.96 C 317.50 56.93 318.33 55.88 319.12 54.79 C 325.52 50.44 329.61 43.47 335.88 38.94 C 337.68 37.74 338.84 35.86 340.38 34.37 C 342.03 32.35 343.80 30.44 345.59 28.55 C 346.22 26.94 347.53 25.87 349.15 25.29 C 349.20 24.67 349.31 23.43 349.36 22.81 C 348.15 22.58 346.95 22.36 345.74 22.14 Z" />
<path fill="#000000" opacity="1.00" d=" M 392.82 20.98 C 393.90 20.19 395.94 18.16 397.00 20.00 C 397.59 23.52 396.74 30.10 391.75 29.14 C 391.72 28.26 391.66 26.50 391.63 25.63 C 391.93 25.22 392.53 24.41 392.84 24.01 C 392.83 23.25 392.83 21.74 392.82 20.98 Z" />
<path fill="#000000" opacity="1.00" d=" M 298.80 26.83 C 300.86 25.01 301.31 22.10 303.08 20.13 C 306.51 20.07 309.80 21.30 313.20 21.60 C 315.10 24.91 315.63 29.46 313.71 32.83 C 313.54 33.79 313.38 34.74 313.22 35.70 C 311.12 37.81 309.72 40.55 307.16 42.21 C 301.74 45.82 298.12 51.96 291.60 53.87 L 291.49 54.19 C 287.22 57.57 282.84 61.11 277.59 62.83 C 275.13 63.23 272.60 62.95 270.12 62.86 C 270.02 60.95 269.99 59.05 270.01 57.14 C 272.00 54.88 272.39 51.77 274.16 49.38 C 275.34 47.33 277.13 45.76 278.63 43.96 C 279.01 43.84 279.76 43.61 280.14 43.49 C 280.60 42.27 280.69 40.79 281.65 39.83 C 284.06 39.03 286.40 38.05 288.63 36.84 C 290.66 32.13 296.25 31.08 298.80 26.83 M 294.41 34.22 C 291.78 37.71 288.60 40.74 284.84 42.99 C 283.41 44.82 281.46 46.16 280.00 47.93 C 278.07 51.96 274.28 55.04 273.89 59.75 C 276.40 59.91 278.87 59.52 281.12 58.36 C 284.50 55.41 289.31 54.67 292.50 51.44 C 294.16 49.58 296.95 49.46 298.62 47.61 C 301.17 45.45 302.25 41.12 306.25 41.32 C 309.81 36.83 312.51 30.56 310.31 24.88 C 308.29 24.90 306.28 24.90 304.26 24.92 C 301.99 29.01 297.14 30.51 294.41 34.22 Z" />
<path fill="#000000" opacity="1.00" d=" M 213.74 23.59 C 215.34 21.94 217.92 22.03 220.01 21.40 C 222.51 26.65 221.36 32.47 221.67 38.07 C 221.35 38.38 220.71 38.99 220.39 39.30 C 220.39 40.75 220.40 42.19 220.41 43.64 C 222.17 43.65 223.94 43.66 225.71 43.70 C 226.02 44.79 226.35 45.88 226.71 46.96 C 225.76 49.71 223.66 52.15 223.62 55.14 C 226.67 55.40 229.10 53.27 231.96 52.65 C 232.63 51.26 233.03 49.78 233.32 48.27 C 231.77 48.02 230.23 47.76 228.71 47.42 C 228.77 46.42 228.88 44.40 228.94 43.40 C 229.47 43.85 230.52 44.74 231.05 45.19 C 232.78 44.98 234.52 44.82 236.26 44.71 C 236.36 46.60 236.44 48.49 236.53 50.38 C 233.94 55.25 228.83 59.86 222.94 59.00 C 220.66 59.27 219.29 57.25 217.80 55.93 C 218.09 53.62 218.76 51.39 219.28 49.12 C 218.58 49.12 217.19 49.11 216.50 49.11 C 216.08 53.79 211.08 55.93 208.55 59.46 C 207.20 60.19 205.92 61.04 204.69 61.96 C 202.15 62.02 199.61 62.01 197.07 61.93 C 197.11 59.77 196.65 57.49 197.32 55.41 C 200.38 51.61 205.23 49.81 208.21 45.92 C 208.96 45.88 210.46 45.79 211.22 45.74 C 210.50 43.20 209.42 40.65 209.67 37.95 C 210.71 33.09 211.41 28.05 213.74 23.59 M 216.18 29.49 C 213.53 33.06 213.80 37.56 213.64 41.77 C 214.53 41.77 216.32 41.78 217.21 41.78 C 217.29 38.82 217.85 35.91 218.12 32.97 C 218.55 31.35 217.56 30.15 216.18 29.49 M 203.56 53.50 C 202.21 55.03 200.97 56.66 201.28 58.86 C 205.36 57.92 210.25 55.48 211.22 51.02 C 208.37 50.74 205.96 52.23 203.56 53.50 Z" />
<path fill="#000000" opacity="1.00" d=" M 321.14 32.49 C 322.51 30.71 323.81 28.87 325.27 27.16 C 325.93 28.73 326.25 30.41 326.28 32.12 C 325.56 33.52 325.06 35.03 324.43 36.47 C 322.66 36.72 320.88 36.46 319.11 36.38 C 319.83 35.11 320.53 33.82 321.14 32.49 Z" />
<path fill="#000000" opacity="1.00" d=" M 478.13 41.64 C 485.48 42.17 491.81 46.28 498.53 48.92 C 499.49 48.95 500.46 48.98 501.44 49.00 C 505.09 45.15 510.42 44.22 515.50 44.80 C 516.11 47.16 516.02 49.61 516.01 52.02 C 510.80 54.61 504.87 53.23 499.30 53.45 C 496.08 57.82 491.21 60.30 486.57 62.85 C 483.22 62.93 479.97 64.84 476.66 63.38 C 472.79 63.19 468.21 61.53 467.69 57.11 C 466.91 56.67 466.14 56.22 465.38 55.76 C 463.69 56.98 462.03 58.23 460.25 59.32 C 460.06 61.41 458.49 62.75 457.12 64.15 C 455.62 63.98 453.88 64.23 452.96 62.76 C 452.57 58.96 457.21 58.45 458.99 55.94 C 459.52 55.35 460.60 54.17 461.13 53.58 C 455.13 52.05 450.63 56.94 446.36 60.25 C 444.45 61.27 442.42 62.12 441.03 63.87 C 439.38 64.15 437.71 63.92 436.06 63.87 C 435.57 61.06 436.34 58.38 438.47 56.44 C 438.58 54.91 438.67 53.37 438.78 51.84 C 441.66 50.60 444.29 48.88 446.86 47.10 C 446.89 48.77 446.91 50.45 446.94 52.12 C 443.39 52.78 441.50 56.72 440.32 59.78 C 442.71 59.40 444.97 58.41 446.57 56.55 C 451.77 53.00 457.75 50.09 464.15 50.15 C 465.79 50.05 465.85 51.76 466.28 52.90 C 469.94 52.31 472.16 55.50 474.00 58.11 C 475.53 60.67 479.44 61.50 481.78 59.57 C 483.48 59.56 485.18 59.57 486.89 59.61 C 487.03 59.09 487.32 58.06 487.47 57.54 C 488.02 57.51 489.11 57.44 489.66 57.41 C 491.12 55.95 492.71 54.62 494.52 53.61 C 494.53 53.10 494.55 52.08 494.56 51.57 C 492.50 51.35 490.00 50.76 489.74 48.28 C 488.21 49.23 485.89 49.73 485.74 47.23 C 482.63 46.28 479.97 44.31 478.13 41.64 Z" />
<path fill="#000000" opacity="1.00" d=" M 195.60 46.84 C 196.60 47.10 197.60 47.37 198.59 47.66 C 198.13 48.30 197.20 49.57 196.73 50.21 C 194.31 50.25 193.37 52.87 191.73 54.22 C 187.51 55.79 184.08 58.74 180.54 61.41 C 179.57 64.30 176.70 64.30 174.31 63.22 C 176.32 60.12 177.91 56.79 179.28 53.36 C 178.52 53.43 177.01 53.55 176.26 53.62 C 172.88 57.30 168.26 59.47 164.65 62.90 C 162.43 63.13 160.37 61.31 158.08 61.91 C 155.25 62.87 153.01 65.15 150.16 65.99 C 148.69 65.55 146.96 65.13 145.98 63.86 C 146.32 60.80 148.37 58.30 149.31 55.42 C 143.38 57.45 137.86 62.67 131.25 60.64 C 128.89 59.29 131.77 56.62 131.25 54.67 C 129.12 54.33 127.15 55.73 125.04 55.95 C 122.12 59.32 118.38 62.03 116.24 66.01 C 114.56 66.01 112.89 65.98 111.22 65.96 C 114.43 61.84 117.01 56.94 122.02 54.68 C 121.91 52.66 121.18 50.78 120.31 48.98 C 122.27 48.99 124.23 49.00 126.19 49.01 C 126.19 49.75 126.20 51.25 126.20 52.00 C 130.42 52.27 134.68 52.12 138.39 49.87 C 139.01 51.38 139.68 52.86 140.45 54.30 C 143.99 52.75 148.00 53.22 151.43 51.26 C 154.52 51.30 157.14 49.67 160.02 48.93 C 161.99 48.61 162.13 50.61 162.48 51.99 C 163.20 52.01 164.65 52.04 165.37 52.06 C 165.45 53.99 165.46 55.93 165.43 57.88 C 169.85 54.41 174.28 50.92 179.05 47.97 C 182.73 46.89 183.89 50.67 185.00 53.26 C 189.09 52.31 192.55 49.62 195.60 46.84 M 157.27 53.37 C 154.95 56.24 149.79 57.53 150.49 62.04 C 152.48 61.65 154.44 61.13 156.36 60.50 C 156.72 59.61 157.08 58.73 157.45 57.85 C 158.55 57.30 159.63 56.73 160.72 56.15 C 160.81 55.38 161.00 53.84 161.09 53.06 C 159.82 53.16 158.55 53.26 157.27 53.37 Z" />
<path fill="#000000" opacity="1.00" d=" M 391.38 48.08 C 396.05 48.38 401.34 44.93 405.38 48.73 C 402.28 49.14 399.15 49.03 396.05 49.27 C 393.61 50.01 391.51 51.58 389.12 52.44 C 389.02 53.79 388.95 55.15 388.88 56.51 C 394.28 55.37 397.81 49.72 403.67 49.67 C 403.72 51.75 403.97 53.87 403.56 55.93 C 401.28 59.75 398.76 63.57 395.20 66.33 C 393.81 67.52 391.97 68.33 391.50 70.28 C 390.96 70.36 389.90 70.53 389.37 70.62 C 385.99 74.29 380.92 75.23 376.61 77.37 C 370.50 78.51 363.57 80.67 357.84 77.08 C 357.94 74.97 358.70 72.98 359.14 70.93 C 360.53 69.87 361.97 68.82 363.73 68.43 C 362.97 69.92 362.14 71.38 361.27 72.80 C 361.62 73.47 362.30 74.82 362.65 75.49 C 367.34 75.78 371.68 73.72 376.25 73.03 C 378.08 72.25 380.05 71.83 381.91 71.12 C 386.23 68.78 389.81 64.75 394.70 63.65 C 395.55 62.37 396.48 61.12 397.76 60.23 C 398.27 58.22 399.52 56.05 397.87 54.21 C 395.55 56.00 393.30 58.04 390.33 58.61 C 390.11 59.25 389.67 60.53 389.45 61.17 C 387.73 60.67 386.06 60.05 384.39 59.44 C 384.23 57.61 383.94 55.77 384.08 53.93 C 385.76 51.20 388.89 49.92 391.38 48.08 Z" />
<path fill="#000000" opacity="1.00" d=" M 409.86 56.20 C 412.60 53.75 413.68 49.60 417.24 48.10 C 420.75 47.75 425.79 47.68 427.38 51.54 C 428.12 52.82 429.85 52.76 431.07 53.35 C 431.24 56.16 430.60 58.87 429.77 61.52 C 427.53 66.73 423.29 70.61 419.09 74.25 C 415.04 77.20 410.59 79.47 406.15 81.73 C 399.91 82.96 392.62 84.54 386.89 81.02 C 384.93 77.67 389.39 74.86 391.56 72.94 C 391.33 74.70 391.09 76.46 390.91 78.22 C 391.59 78.62 392.94 79.41 393.61 79.81 C 400.68 79.56 406.92 76.16 413.48 73.98 C 414.73 71.89 417.77 72.16 418.91 69.98 C 420.96 67.16 422.68 64.06 425.37 61.76 C 425.52 59.93 425.63 58.10 425.71 56.26 C 421.04 57.51 417.62 61.77 412.66 62.06 C 411.94 61.65 410.50 60.81 409.78 60.40 C 409.78 59.00 409.81 57.60 409.86 56.20 M 412.78 58.83 C 414.58 58.74 416.39 58.59 418.19 58.38 C 420.31 56.83 422.56 55.46 424.82 54.12 C 424.77 53.31 424.69 51.70 424.65 50.90 C 421.88 50.49 418.93 49.54 416.18 50.52 C 414.14 52.82 413.27 55.86 412.78 58.83 Z" />
<path fill="#000000" opacity="1.00" d=" M 7.50 54.62 C 9.17 53.71 10.99 52.81 12.95 53.08 C 12.86 54.20 12.69 55.32 12.41 56.42 C 11.83 56.49 10.66 56.63 10.08 56.71 C 9.33 59.06 8.44 61.39 8.51 63.91 C 10.08 63.30 11.65 62.67 13.27 62.15 C 11.51 66.30 8.26 71.80 2.92 70.35 C 3.08 68.38 2.70 66.23 3.79 64.45 C 4.99 61.20 4.21 56.72 7.50 54.62 Z" />
<path fill="#000000" opacity="1.00" d=" M 355.70 107.72 C 361.16 106.04 366.64 104.44 372.13 102.84 C 371.99 103.36 371.72 104.42 371.58 104.95 C 366.99 106.00 362.71 108.05 358.09 108.97 C 355.92 108.93 355.81 111.05 355.89 112.72 C 352.57 110.57 349.40 113.12 346.34 114.36 C 346.31 116.11 346.27 117.85 346.22 119.59 C 349.78 120.53 352.29 123.77 356.03 124.19 C 358.93 124.67 361.60 125.98 364.32 127.04 C 363.26 127.30 362.18 127.55 361.10 127.70 C 353.60 126.29 345.58 123.63 340.99 117.09 C 341.43 116.32 341.87 115.55 342.31 114.78 C 346.90 112.80 350.63 108.75 355.70 107.72 Z" />
<path fill="#000000" opacity="1.00" d=" M 366.95 127.39 C 371.18 126.71 375.09 129.17 378.96 130.50 C 384.22 130.71 389.56 130.09 394.74 131.31 C 406.36 131.82 418.06 131.89 429.70 131.30 C 430.46 131.85 431.24 132.41 432.01 132.98 C 422.69 133.97 413.28 134.06 403.92 133.61 C 398.42 132.03 392.67 133.60 387.12 132.37 C 383.81 131.76 380.39 131.79 377.14 130.87 C 373.61 130.81 367.55 132.46 366.95 127.39 Z" />
</g>
</svg>
