<?xml version="1.0" encoding="UTF-8" standalone="no"?>
<!-- Created with Inkscape (http://www.inkscape.org/) -->

<svg
   xmlns:dc="http://purl.org/dc/elements/1.1/"
   xmlns:cc="http://creativecommons.org/ns#"
   xmlns:rdf="http://www.w3.org/1999/02/22-rdf-syntax-ns#"
   xmlns:svg="http://www.w3.org/2000/svg"
   xmlns="http://www.w3.org/2000/svg"
   xmlns:sodipodi="http://sodipodi.sourceforge.net/DTD/sodipodi-0.dtd"
   xmlns:inkscape="http://www.inkscape.org/namespaces/inkscape"
   width="33.998146mm"
   height="7.363328mm"
   viewBox="0 0 120.46587 26.090532"
   id="svg3551"
   version="1.1"
   inkscape:version="0.91 r13725"
   sodipodi:docname="Firma de Miguel Primo de Rivera.svg">
  <defs
     id="defs3553" />
  <sodipodi:namedview
     id="base"
     pagecolor="#ffffff"
     bordercolor="#666666"
     borderopacity="1.0"
     inkscape:pageopacity="0.0"
     inkscape:pageshadow="2"
     inkscape:zoom="5.6"
     inkscape:cx="42.933179"
     inkscape:cy="33.335658"
     inkscape:document-units="px"
     inkscape:current-layer="layer1"
     showgrid="false"
     fit-margin-top="1"
     fit-margin-right="1"
     fit-margin-bottom="1"
     fit-margin-left="1"
     inkscape:window-width="1366"
     inkscape:window-height="705"
     inkscape:window-x="-8"
     inkscape:window-y="-8"
     inkscape:window-maximized="1" />
  <metadata
     id="metadata3556">
    <rdf:RDF>
      <cc:Work
         rdf:about="">
        <dc:format>image/svg+xml</dc:format>
        <dc:type
           rdf:resource="http://purl.org/dc/dcmitype/StillImage" />
        <dc:title></dc:title>
      </cc:Work>
    </rdf:RDF>
  </metadata>
  <g
     inkscape:label="Capa 1"
     inkscape:groupmode="layer"
     id="layer1"
     transform="translate(-123.82193,-344.41603)">
    <path
       style="fill:#000000"
       d="m 136.84308,366.77725 c -0.10152,-0.16427 0.3225,-0.60516 0.94228,-0.97975 1.35353,-0.81806 2.3434,-1.61234 4.72687,-3.79291 3.75877,-3.43879 4.07242,-3.75998 3.97045,-4.06589 -0.13754,-0.41265 -1.47095,-0.51569 -1.93092,-0.14922 -0.23352,0.18605 -0.73156,0.153 -1.41413,-0.0938 -0.8973,-0.32447 -1.13319,-0.31185 -1.58953,0.085 -1.26638,1.10136 -3.08564,0.77687 -2.60895,-0.46535 0.26777,-0.69782 -0.19327,-0.60223 -1.17734,0.24409 -0.95179,0.81856 -2.51447,1.273 -2.93419,0.85328 -0.16707,-0.16707 0.61121,-1.07188 1.97965,-2.30148 2.07824,-1.8674 2.63603,-2.58391 2.01152,-2.58391 -0.13388,0 -0.56946,0.30375 -0.96796,0.675 -0.39849,0.37125 -0.72769,0.62289 -0.73156,0.5592 -0.007,-0.11471 -1.101,0.79668 -3.74081,3.11634 -1.87218,1.64513 -3.2038,2.54946 -3.75409,2.54946 -0.80512,0 -0.50793,-0.44241 1.11286,-1.65665 2.68224,-2.00944 4.50131,-3.55037 5.45731,-4.62288 0.50473,-0.56623 1.12702,-1.24123 1.38287,-1.49999 0.50615,-0.51191 1.48482,-2.00146 1.48482,-2.25992 0,-0.0883 -0.2025,-0.16056 -0.45,-0.16056 -0.2475,0 -0.45,0.14945 -0.45,0.3321 0,0.18265 -0.19226,0.25832 -0.42724,0.16815 -0.23499,-0.0902 -0.74124,0.13809 -1.125,0.50725 -0.38377,0.36916 -1.40651,1.11757 -2.27276,1.66313 -0.86625,0.54555 -1.575,1.1241 -1.575,1.28565 0,0.16155 -0.13569,0.2485 -0.30152,0.19322 -0.37655,-0.12552 -4.52787,3.76329 -4.16381,3.9005 0.50188,0.18916 0.2646,0.65 -0.33467,0.65 -1.0437,0 -0.68294,-1.1118 0.80109,-2.46882 0.7706,-0.70465 1.70946,-1.58493 2.08636,-1.95618 0.3769,-0.37125 0.80549,-0.675 0.95241,-0.675 0.14693,0 0.51149,-0.27 0.81014,-0.6 0.29864,-0.33 0.71691,-0.6 0.92948,-0.6 0.21257,0 0.59925,-0.30375 0.85928,-0.675 0.26004,-0.37125 0.57144,-0.67521 0.69201,-0.67546 0.12058,-2.6e-4 0.62423,-0.27684 1.11923,-0.61463 1.07843,-0.73592 2.42182,-1.33491 2.99389,-1.33491 0.75718,0 0.86366,1.20714 0.18719,2.12211 -0.73914,0.99975 -0.8147,1.52952 -0.18361,1.28735 0.68789,-0.26397 0.88208,0.69814 0.31545,1.56292 -0.27667,0.42226 -1.05089,1.31559 -1.72048,1.98518 -0.6696,0.6696 -1.09932,1.16249 -0.95494,1.09532 1.33855,-0.62275 2.08671,-1.02073 2.2125,-1.17692 0.0825,-0.10245 0.72106,-0.54394 1.41903,-0.98111 1.37843,-0.86336 2.18097,-1.01484 2.18097,-0.41165 0,0.41557 -1.69179,2.0168 -2.13085,2.0168 -0.14804,0 -0.26915,0.135 -0.26915,0.3 0,0.165 0.27,0.3 0.6,0.3 0.33,0 0.6,-0.135 0.6,-0.3 0,-0.165 0.14152,-0.3 0.31449,-0.3 0.17297,0 0.83683,-0.25237 1.47525,-0.56082 1.13374,-0.54776 1.16418,-0.54776 1.30743,0 0.22035,0.84262 1.63409,0.72912 2.35642,-0.18918 0.70541,-0.89678 1.91086,-1.00072 2.12465,-0.18321 0.20022,0.76567 -0.11489,1.20124 -0.82231,1.13665 -0.42459,-0.0388 -0.62933,0.18134 -0.74562,0.80158 -0.14645,0.78107 -2.83395,3.79498 -3.38397,3.79498 -0.12449,0 -0.22634,0.12866 -0.22634,0.28591 0,0.15725 0.80343,-0.24775 1.78542,-0.9 0.98198,-0.65225 1.9039,-1.18591 2.04872,-1.18591 0.14481,0 0.56546,-0.64125 0.93477,-1.425 0.36932,-0.78375 0.96636,-1.7625 1.32675,-2.175 0.98363,-1.12583 3.5796,-2.94264 5.60992,-3.92614 1.79948,-0.87168 3.89442,-1.16619 3.89442,-0.54749 0,0.21007 0.40087,0.26036 1.125,0.14112 0.61875,-0.10189 1.65711,-0.25124 2.30747,-0.33189 0.65037,-0.0806 1.39287,-0.33323 1.65,-0.56128 0.79633,-0.70627 3.08143,-1.86459 5.02975,-2.54959 1.58744,-0.55812 2.04347,-0.60593 3.09045,-0.32401 1.44457,0.38899 1.70076,0.8533 1.15327,2.09017 -0.30119,0.68043 -1.01818,1.22469 -2.86358,2.1737 -1.35399,0.69629 -2.40634,1.32144 -2.33857,1.38921 0.0678,0.0678 0.74282,-0.0328 1.5001,-0.22348 1.58849,-0.39999 2.05089,-0.23306 1.77369,0.64031 -0.16328,0.51443 -0.10143,0.58337 0.3628,0.40444 0.30779,-0.11864 1.16712,-0.35251 1.90962,-0.51971 0.7425,-0.16721 1.72541,-0.41791 2.18425,-0.55712 0.58279,-0.17681 0.94449,-0.13363 1.2,0.14326 0.2669,0.28925 0.94905,0.35286 2.52417,0.23539 1.73201,-0.12918 2.38395,-0.0502 3.3,0.39959 1.42394,0.69923 4.26735,0.69222 4.66117,-0.0115 0.61125,-1.09224 2.13051,-0.16257 1.79996,1.10144 -0.14222,0.54386 -0.34657,0.56825 -3.17944,0.37959 -1.71574,-0.11427 -3.40447,-0.39659 -3.89762,-0.65161 -0.677,-0.35009 -1.40125,-0.40296 -3.26254,-0.2382 -1.67496,0.14827 -2.59744,0.10203 -3.07617,-0.15418 -0.56717,-0.30354 -0.98735,-0.25817 -2.46376,0.26601 -2.34404,0.83223 -3.69002,0.84389 -3.69002,0.032 0,-0.77413 -0.64289,-0.76531 -2.20916,0.0303 -2.54738,1.29402 -2.9496,1.46968 -3.36516,1.46968 -0.84408,0 -0.39962,-0.85533 0.84932,-1.63445 l 1.275,-0.79537 -1.2,0.20862 c -0.66,0.11473 -1.83514,0.22999 -2.61143,0.25612 -0.901,0.0303 -1.63418,0.24911 -2.02742,0.60499 -0.55281,0.50029 -0.5696,0.60877 -0.16358,1.05741 0.65067,0.71899 0.56811,1.08691 -0.46557,2.07475 l -0.918,0.87729 2.043,0.14715 c 2.74487,0.19772 5.46623,0.68778 6.30141,1.13475 0.5397,0.28884 1.12888,0.28669 2.79022,-0.0102 1.15833,-0.207 4.02875,-0.51012 6.37871,-0.67359 2.34996,-0.16347 5.69016,-0.40445 7.42266,-0.53552 1.7325,-0.13106 7.9425,-0.3964 13.8,-0.58963 5.8575,-0.19323 12.6075,-0.44605 15,-0.56182 2.3925,-0.11576 5.835,-0.12562 7.65,-0.0219 1.815,0.10373 5.36386,0.22332 7.88636,0.26576 4.01056,0.0675 4.67909,0.15011 5.325,0.65819 0.40625,0.31956 0.73864,0.8215 0.73864,1.11543 0,0.77896 -1.37091,2.15274 -1.933,1.93705 -0.25685,-0.0986 -0.467,-0.0592 -0.467,0.0874 0,0.61344 -3.20828,1.23551 -9.9,1.91954 -4.12867,0.42204 -46.79171,0.20087 -48.3,-0.25039 -1.89614,-0.56729 -5.89471,-0.73399 -6.36342,-0.26529 -0.58689,0.5869 -2.15384,1.36317 -4.11043,2.03634 -0.92189,0.31718 -1.67615,0.56363 -1.67615,0.54767 0,-0.0159 -0.2025,0.0367 -0.45,0.11698 -1.6396,0.53193 -8.17781,0.89607 -8.97384,0.49979 -0.26189,-0.13037 -0.88116,-0.42154 -1.37616,-0.64705 -1.76785,-0.80535 -2.23729,-1.93518 -1.51034,-3.635 0.15933,-0.37255 0.0876,-0.525 -0.24701,-0.525 -0.25935,0 -0.62958,-0.30375 -0.82274,-0.675 -0.19315,-0.37125 -0.38457,-0.71542 -0.42538,-0.76482 -0.0866,-0.10485 -2.03791,1.13235 -3.19198,2.02383 -0.4386,0.3388 -1.01659,0.61599 -1.28442,0.61599 -0.26783,0 -0.5627,0.19736 -0.65526,0.43858 -0.0926,0.24122 -0.45753,0.53038 -0.81103,0.64258 -0.3535,0.11219 -1.33952,0.71874 -2.19116,1.34789 -1.65695,1.22406 -2.93037,1.70542 -3.22983,1.22088 z m 21.69859,-1.10569 c 3.50747,-0.4985 4.54338,-0.77798 6.92056,-1.86712 1.4047,-0.64358 1.5608,-0.79157 1.05,-0.99545 -0.33,-0.13172 -0.90559,-0.24898 -1.27908,-0.26058 -0.37348,-0.0116 -0.9389,-0.18336 -1.25648,-0.38169 -0.42858,-0.26765 -0.75618,-0.27561 -1.27093,-0.0309 -1.69248,0.80467 -10.86301,1.27199 -11.54659,0.58841 -0.10621,-0.10621 -0.37997,0.0737 -0.60837,0.39976 -0.53847,0.76877 -0.11014,1.61365 1.02498,2.02175 3.12843,1.12476 2.88232,1.10618 6.96591,0.5258 z m 59.87056,-2.37573 c 9.0275,-0.44569 12.99344,-1.12978 14.63434,-2.52429 1.1099,-0.94325 0.0533,-1.2043 -6.23434,-1.54033 -11.12988,-0.59481 -40.03088,0.38702 -53.4,1.81413 -1.815,0.19374 -3.60375,0.3702 -3.975,0.39212 -1.16364,0.0687 -0.73523,0.70251 0.6,0.88764 1.21218,0.16807 8.14713,0.56357 18.675,1.06503 5.23643,0.24942 23.94082,0.19004 29.7,-0.0943 z m -58.5,-1.58144 1.2,-0.29341 -0.80676,-0.33247 c -0.44372,-0.18285 -0.95472,-0.60893 -1.13556,-0.94682 -0.21786,-0.40708 -0.6289,-0.61437 -1.21824,-0.61437 -1.01163,0 -1.09923,-0.30093 -0.39881,-1.36991 0.68072,-1.0389 0.42752,-1.12812 -1.11357,-0.39239 -1.96674,0.93895 -5.03667,3.51654 -5.06708,4.25445 -0.0132,0.32066 7.00645,0.0699 8.54002,-0.30508 z m 7.95,0.21293 c 0,-0.165 -0.12704,-0.3 -0.2823,-0.3 -0.15526,0 -0.36573,0.135 -0.4677,0.3 -0.10198,0.165 0.0251,0.3 0.28229,0.3 0.25724,0 0.46771,-0.135 0.46771,-0.3 z m -16.14353,-1.9438 c 1.94529,-1.74898 4.62619,-3.3646 6.51276,-3.92485 1.75271,-0.5205 2.14939,-0.96561 1.3516,-1.51663 -0.31396,-0.21684 -0.73958,-0.53918 -0.94583,-0.71631 -0.25698,-0.2207 -0.49303,-0.22534 -0.75,-0.0147 -1.27049,1.04113 -2.97315,2.2729 -4.38969,3.17564 -3.73272,2.37881 -3.93531,2.55642 -3.93531,3.44993 0,0.48993 0.14891,0.89078 0.33092,0.89078 0.182,0 1.0035,-0.60471 1.82555,-1.3438 z m 14.80966,1.06991 c -0.1746,-0.2825 -1.11022,-0.45701 -4.21613,-0.78639 -2.03209,-0.21549 -2.02878,0.24422 0.005,0.72033 1.58036,0.36993 4.42634,0.41458 4.21095,0.0661 z m -6.98158,-3.19426 c 0.45563,-0.42248 0.74319,-0.90605 0.63902,-1.0746 -0.19136,-0.30963 -1.92357,1.13018 -1.92357,1.59888 0,0.43794 0.44091,0.25798 1.28455,-0.52428 z m -7.07778,-1.17864 c 4.21027,-2.95894 6.16446,-4.47946 5.87923,-4.57454 -0.62715,-0.20905 -5.2693,2.56806 -6.82795,4.08474 -1.45192,1.41282 -1.96895,2.13659 -1.52628,2.13659 0.0725,0 1.18622,-0.74105 2.475,-1.64679 z m 9.46234,-3.45321 0.64402,-0.6 -0.97629,0 c -1.1396,0 -2.23097,0.505 -1.97754,0.91506 0.3043,0.49237 1.63846,0.3104 2.30981,-0.31506 z m 4.53158,-0.0547 c 0.70814,-0.37799 0.63259,-0.42374 -1.06702,-0.64615 -1.23905,-0.16213 -1.52067,-0.0901 -2.25,0.57591 l -0.83367,0.76124 1.8,-0.19852 c 0.99,-0.10919 2.04781,-0.3308 2.35069,-0.49248 z m 3.65883,-1.31314 c 1.89835,-0.92877 2.93042,-1.94873 2.66686,-2.63556 -0.10482,-0.27315 -0.38702,-0.49664 -0.62711,-0.49664 -1.19328,0 -6.69927,2.20472 -6.69927,2.68254 0,0.16078 1.97398,0.95087 2.97009,1.18878 0.066,0.0158 0.8263,-0.31683 1.68943,-0.73912 z m 32.36244,4.02244 c -0.12453,-0.20149 0.14931,-0.60613 0.65729,-0.97129 0.47891,-0.34426 2.05172,-1.79306 3.49512,-3.21955 1.58486,-1.56627 2.9454,-2.65498 3.43482,-2.74854 1.00422,-0.19197 2.19081,0.23116 2.19081,0.78123 0,0.77274 -0.92188,2.26057 -1.97196,3.18254 -0.5769,0.50653 -0.89731,0.92097 -0.71201,0.92097 0.52931,0 4.09491,-1.71321 4.31849,-2.07495 0.29533,-0.47787 1.05722,-0.39564 1.26128,0.13613 0.0973,0.25364 -0.0628,0.72614 -0.35592,1.05 -0.46746,0.51654 -0.4741,0.58882 -0.0541,0.58882 0.26334,0 0.55145,-0.11756 0.64025,-0.26125 0.14354,-0.23225 0.86922,-0.45654 2.68826,-0.83086 0.31036,-0.0639 0.75003,0.038 0.97703,0.22642 0.30258,0.25112 0.75244,0.25674 1.68569,0.0211 0.70014,-0.17682 1.74548,-0.30268 2.32298,-0.27968 0.5775,0.023 1.2525,-0.0507 1.5,-0.16378 0.2475,-0.11307 0.64713,-0.0803 0.88807,0.0729 0.37362,0.23756 0.35155,0.37699 -0.15,0.94772 -0.41713,0.47467 -0.45727,0.62312 -0.13807,0.51071 0.2475,-0.0872 0.99,-0.32912 1.65,-0.53769 0.66,-0.20858 1.43091,-0.49547 1.71314,-0.63754 0.62521,-0.31472 1.43686,-0.0441 1.43686,0.47907 0,0.21061 -0.30375,0.48047 -0.675,0.59971 -1.15129,0.36976 0.11429,0.51479 1.59298,0.18255 0.87988,-0.1977 2.06466,-0.19174 3.5741,0.018 1.8501,0.25704 2.49468,0.23102 3.56874,-0.14407 0.99712,-0.34822 1.48172,-0.3799 2.025,-0.13236 0.97852,0.44584 0.91166,1.10708 -0.11082,1.09598 -0.45375,-0.005 -1.77,0.0802 -2.925,0.18911 -1.155,0.10893 -2.42038,0.0755 -2.81196,-0.0743 -0.41558,-0.15896 -1.47712,-0.16495 -2.55,-0.0144 -2.18739,0.30696 -3.78804,0.0826 -3.78804,-0.53094 0,-0.53812 0.0176,-0.53848 -1.33668,0.0274 -1.52234,0.63607 -5.81144,0.48039 -5.39355,-0.19577 0.0911,-0.1474 0.49517,-0.268 0.89793,-0.268 0.40276,0 0.7323,-0.135 0.7323,-0.3 0,-0.41301 -0.82459,-0.35487 -2.25,0.15865 -1.55669,0.56082 -2.5252,0.55506 -2.74446,-0.0163 -0.12397,-0.32306 -0.28371,-0.36794 -0.54318,-0.1526 -0.20217,0.16778 -0.45557,0.21705 -0.56313,0.10949 -0.10755,-0.10755 -0.44149,0.027 -0.74208,0.29904 -0.30059,0.27203 -0.96282,0.57786 -1.47164,0.67963 -0.76532,0.15306 -0.95973,0.076 -1.12553,-0.44644 -0.24621,-0.77573 -0.45913,-0.78375 -1.71784,-0.0646 -1.46544,0.83719 -3.12584,1.06898 -3.35626,0.46852 -0.23472,-0.61167 0.12186,-1.25815 1.31571,-2.38533 0.52428,-0.495 1.21952,-1.27045 1.54498,-1.72322 l 0.59176,-0.82323 -0.80397,0.0665 c -0.57489,0.0476 -1.73258,0.98734 -4.06309,3.29823 -3.15094,3.12441 -3.89641,3.61913 -4.34931,2.88632 z m -7.77196,-0.17267 c -0.495,-0.0705 -1.00761,-0.23211 -1.13913,-0.35918 -0.27058,-0.26143 2.56985,-1.52279 3.42913,-1.52279 0.59968,0 0.75386,0.44477 0.26,0.75 -0.72667,0.44911 -0.21188,0.71984 0.5851,0.30771 0.95527,-0.49399 2.4149,-0.61686 2.4149,-0.20328 0,0.35387 -2.8977,1.25531 -3.85945,1.20062 -0.43481,-0.0247 -1.19555,-0.10261 -1.69055,-0.17308 z m -49.05,-2.59987 c 0,-0.54041 0.81674,-0.84895 1.59414,-0.60222 0.58754,0.18648 0.58329,0.20806 -0.11727,0.59617 -0.94634,0.52427 -1.47687,0.52644 -1.47687,0.006 z m 30.88908,-1.46664 c -0.44698,-0.3544 -0.46728,-1.41546 -0.0271,-1.41546 0.40473,0 0.938,0.71634 0.938,1.26 0,0.62518 -0.26209,0.66991 -0.91092,0.15546 z m 41.90243,-1.56546 c -0.23341,-0.60825 0.0814,-1.35 0.57288,-1.35 0.55729,0 0.73618,0.38301 0.53614,1.14794 -0.19558,0.74792 -0.85356,0.8678 -1.10902,0.20206 z"
       id="path3565-6"
       inkscape:connector-curvature="0" />
  </g>
</svg>
