<?xml version="1.0" encoding="UTF-8"?>
<svg version="1.1" xmlns="http://www.w3.org/2000/svg" width="234" height="62" >
<path d="M7.755,32.858c2.118-3.215,4.217-6.444,6.296-9.685c0.873-1.359,5.363-6.527,4.423-8.311 c-0.207-0.392-0.823-0.586-1.197-0.314c-2.428,1.762-8.559,10.739-5.646,13.652c1.782,1.782,4.956-0.429,6.44-1.478 c4.646-3.283,7.934-8.505,10.351-13.531c0.487-1.013-0.886-1.832-1.512-0.883c-3.651,5.543-7.192,11.163-10.622,16.846 c-2.216,3.671-4.38,7.383-6.3,11.219c-0.789,1.576-2.34,4.079-1.833,5.942c0.296,1.088,1.984,0.625,1.688-0.465 c-0.536-1.971,2.271-5.831,3.146-7.464c1.996-3.725,4.188-7.347,6.39-10.952c2.931-4.798,5.949-9.548,9.042-14.244 c-0.504-0.294-1.008-0.589-1.512-0.883c-2.637,5.484-6.578,12.034-12.473,14.516c-3.216,1.354-0.618-3.977-0.23-4.747 c0.918-1.82,2.067-3.538,3.265-5.183c0.852-1.169-0.559-1.716-1.095-0.772c-0.366,0.644-0.761,1.273-1.148,1.904 c-1.263,2.06-2.577,4.09-3.885,6.121c-1.686,2.619-3.389,5.226-5.102,7.827C5.622,32.921,7.138,33.796,7.755,32.858L7.755,32.858 z"/>
<path d="M4.167,35.292c5.977-0.096,14.371-0.845,18.452-5.756c-0.458-0.354-0.916-0.707-1.374-1.06 c-1.899,2.82-3.779,6.352-3.255,9.84c0.167,1.113,1.853,0.639,1.688-0.465c-0.443-2.949,1.488-6.13,3.078-8.493 c0.552-0.82-0.738-1.826-1.374-1.06c-3.76,4.524-11.703,5.155-17.215,5.244C3.039,33.56,3.038,35.31,4.167,35.292L4.167,35.292z"/>
<path d="M24.774,34.005c4.969-2.274,9.853-5.167,13.769-9.005c1.835-1.798,6.269-8.642,3.687-11.224 c-2.933-2.933-8.181,8.952-8.884,10.24c-3.863,7.088-7.167,16.17-12.964,21.949c-0.8,0.797,0.438,2.035,1.237,1.237 c3.181-3.17,5.25-7.519,7.386-11.406c3.221-5.86,6.196-11.862,9.647-17.593c2.047-3.399,2.764-2.754,1.678,0.576 c-1.118,3.431-3.646,5.802-6.439,7.914c-3.051,2.307-6.523,4.21-9.999,5.802C22.866,32.964,23.756,34.472,24.774,34.005 L24.774,34.005z"/>
<path d="M38.048,30.631c-2.253,1.941-7.645,5.446-8.171,8.567c-0.62,3.677,4.18,1.007,5.323,0.056 c1.063-0.886,1.865-2.091,2.666-3.204c0.587-1.061,1.277-2.05,2.069-2.969c0.652-0.25,6.395-1.567,5.767-0.189 c-1.083,2.376-3.437,3.988-4.489,6.44c-1.269,2.956,1.456,3.019,3.44,2.038c3.81-1.884,11.282-7.01,11.743-11.775 c0.369-3.818-6.178,3.363-6.319,3.547c-2.052,2.678-4.388,8.472,1.095,8.206c2.615-0.127,5.028-2.068,6.947-3.646 c0.829-0.75,1.688-1.465,2.577-2.145c0.728-0.553,0.283-1.585-0.446,0.072c-0.889,2.018-2.092,3.929-3.173,5.846 c-0.502,0.891,0.641,1.71,1.375,1.06c1.124-0.997,2.265-1.973,3.413-2.942c0.838-0.707,1.689-1.396,2.548-2.079 c0.514-0.407,1.038-0.799,1.573-1.178c1.298-0.937,0.021-0.618,0.258-1.028c-2.203,3.819-0.877,7.769,3.375,4.227 c0.867-0.723-0.377-1.954-1.238-1.237c-0.741,0.618,0.076-3.778-0.337-4.176c-0.626-0.604-1.339-0.264-2.006,0.093 c-3.237,1.73-6.095,4.664-8.824,7.083c0.458,0.354,0.917,0.707,1.375,1.06c0.973-1.725,4.715-6.262,3.624-8.527 c-0.135-0.28-0.464-0.421-0.756-0.433c-2.175-0.093-5.186,3.62-6.654,4.646c-0.915,0.602-1.898,1.066-2.949,1.392 c-4.715,1.631-0.551-4.99-0.265-5.411c0.703-0.981,1.478-1.902,2.322-2.761c1.945-2.072,0.258-0.557-0.067-0.044 c-1.653,2.604-4.489,4.708-6.882,6.53c-0.444,0.338-4.231,2.366-4.285,2.677c0.499-2.869,3.727-4.875,4.918-7.487 c1.879-4.122-8.075-2.28-9.381-0.975c-1.664,1.664-2.493,4.289-4.251,6.052c-0.664,0.64-1.424,1.119-2.28,1.438 c0.396-0.8,1.213-1.533,1.815-2.179c1.796-1.926,3.794-3.689,5.788-5.406C40.143,31.131,38.898,29.899,38.048,30.631 L38.048,30.631z"/>
<path d="M74.274,37.672c1.213-0.562,5.331-2.887,3.814-4.864c-1.7-2.215-4.579,0.492-5.868,1.891 c-1.326,1.439-2.952,5.007-0.862,6.538c2.479,1.816,6.604,0.529,9.089-0.622c2.614-1.212,5.385-2.885,5.291-6.11 c-0.074-2.526-2.699-0.615-3.224,0.477c-1.353,2.815,0.003,5.983,2.866,6.798c2.677,0.762,6.196-0.391,8.685-1.353 c1.041-0.402,0.589-2.095-0.465-1.688c-1.337,0.517-2.72,0.887-4.119,1.189c-2.154,0.465-5.179,0.829-5.609-2.486 c-0.297-2.296-1.283-0.008-2.684,0.854c-2.247,1.382-5.569,2.458-8.209,1.87c-3.051-0.68,1.75-5.49,2.342-5.918 c0.999,0.362,0.784,0.774-0.646,1.237c-0.4,0.262-0.85,0.476-1.283,0.677C72.368,36.636,73.258,38.144,74.274,37.672 L74.274,37.672z"/>
<path d="M112.714,17.798c-3.154,3.789-6.251,7.627-9.283,11.515c-1.755,2.25-3.485,4.522-5.1,6.876 c-0.641,0.935-2.008,2.533-1.675,3.793c0.288,1.09,1.977,0.627,1.688-0.465c-0.199-0.755,2.204-3.463,2.627-4.056 c1.853-2.595,3.832-5.101,5.812-7.6c2.353-2.971,4.744-5.913,7.17-8.826C114.668,18.175,113.438,16.93,112.714,17.798 L112.714,17.798z"/>
<path d="M126.214,14.298c-1.903,2.377-3.895,4.685-5.941,6.939c-1.414,1.557-2.886,3.061-4.445,4.473 c-2.024,1.834-3.372,2.724-2.483-0.729c0.246-0.955-1.103-1.549-1.6-0.674c-1.242,2.187-9.999,17.053-3.744,17.15 c1.129,0.018,1.127-1.732,0-1.75c-1.862-0.029,4.39-12.993,5.256-14.517c-0.533-0.225-1.066-0.449-1.6-0.674 c-1.073,4.17,0.686,6.32,4.398,3.281c4.295-3.514,7.938-7.943,11.397-12.263C128.149,14.664,126.92,13.417,126.214,14.298 L126.214,14.298z"/>
<path d="M120.232,24.261c6.663-1.846,13.515-4.5,19.001-8.768c2.482-1.931,5.472-5.364,5.82-8.646 c0.163-1.537-1.474-1.857-2.571-1.549c-2.379,0.666-4.573,3.734-6.169,5.402c-3.11,3.248-6.032,6.683-8.774,10.246 c-2.838,3.689-5.108,7.708-8.049,11.35c-2.586,3.203-5.474,6.195-7.913,9.513c-0.506,0.688,0.51,1.728,1.197,1.197 c3.017-2.329,6.069-4.614,9.167-6.833c1.625-1.164,3.363-2.63,5.238-3.379c-0.457-1.026-0.86-1.129-1.211-0.31 c-0.658,0.814-1.397,1.572-2.092,2.355c-0.876,0.988-1.775,1.987-2.547,3.061c-1.841,2.562-0.177,3.41,2.255,2.158 c2.046-1.053,3.95-2.44,5.856-3.719c0.783-0.536,1.585-1.044,2.405-1.522c0.554-0.335,2.132-1.96,1.354-0.312 c-0.903,1.913-2.357,3.636-3.652,5.293c-0.683,0.875,0.37,1.997,1.238,1.237c1.689-1.479,3.431-2.904,5.218-4.266 c1.181-0.9,2.401-1.756,3.711-2.459c0.942-0.506,0.188,0.01-0.223,0.836c-0.67,1.345-1.573,2.59-2.415,3.829 c-0.636,0.936,0.881,1.811,1.512,0.883c0.513-0.754,6.014-9.232,0.864-7.339c-3.646,1.34-7.022,4.756-9.905,7.279 c0.413,0.413,0.825,0.825,1.238,1.237c0.822-1.053,6.718-7.775,3.717-8.755c-2.717-0.888-6.899,3.197-8.818,4.454 c-0.975,0.639-1.971,1.236-2.982,1.813c-0.74,0.421-0.762,1.604-0.231,0.751c1.154-1.854,2.865-3.479,4.315-5.096 c2.522-2.814,0.596-3.692-2.145-1.987c-4.448,2.767-8.607,6.081-12.75,9.279c0.398,0.399,0.798,0.798,1.197,1.197 c3.647-4.96,8.026-9.348,11.634-14.357c3.88-5.386,7.502-10.642,12.039-15.557c1.67-1.809,3.392-3.593,5.27-5.188 c2.33-1.98-1.744,4.419-1.327,3.888c-1.507,1.921-3.348,3.348-5.395,4.657c-4.674,2.99-10.209,4.963-15.542,6.44 C118.682,22.874,119.143,24.563,120.232,24.261L120.232,24.261z"/>
<path d="M150.892,30.328c-2.054,1.157-6.956,3.403-7.497,6.012c-0.692,3.34,3.533,1.826,5.047,0.999 c-0.354-0.458-0.707-0.916-1.061-1.374c-3.434,4.234-7.817,8.802-9.892,13.886c-0.427,1.045,1.267,1.496,1.688,0.465 c1.951-4.783,6.219-9.139,9.442-13.114c0.607-0.75-0.144-1.875-1.061-1.374c-0.65,0.355-1.321,0.632-2.025,0.86 c-0.537,0.174,1.933-2.105,2.343-2.401c1.242-0.895,2.565-1.697,3.898-2.449C152.758,31.285,151.876,29.773,150.892,30.328 L150.892,30.328z"/>
<path d="M140.911,22.309c-0.333,0.444-0.666,0.889-1,1.333c-0.286,0.382-0.062,0.977,0.314,1.197 c0.447,0.262,0.911,0.067,1.197-0.314c0.333-0.444,0.666-0.889,1-1.333c0.286-0.382,0.062-0.977-0.314-1.197 C141.661,21.732,141.197,21.928,140.911,22.309L140.911,22.309z"/>
<path d="M174.548,13.965c-2.888,3.601-5.813,7.172-8.765,10.722c-2.23,2.684-4.487,5.347-6.792,7.968 c-1.432,1.627-3.017,3.907-4.933,5.007c-0.979,0.561-0.098,2.074,0.883,1.511c4.267-2.448,7.721-8.049,10.813-11.732 c3.392-4.039,6.731-8.124,10.031-12.238C176.484,14.331,175.254,13.084,174.548,13.965L174.548,13.965z"/>
<path d="M189.214,7.131c-8.564,9.657-16.917,19.681-26.084,28.775c-3.076,3.052-0.384,5.892,1.644,2.168 c0.981-1.803,3.622-15.273-0.773-15.032c-0.941,0.052-1.246,1.518-0.232,1.719c6.527,1.298,13.723,2.385,20.298,1 c-0.225-0.533-0.449-1.066-0.674-1.599c-2.929,1.453-5.811,3.004-8.63,4.66c-1.436,0.843-5.637,2.778-5.637,4.929 c0,4.281,15.474-7.785,16.827-9.048c-0.413-0.413-0.825-0.825-1.238-1.237c-2.086,2.195-4.095,4.465-6.021,6.801 c-1.39,1.685-4.096,4.315-3.703,6.716c0.182,1.112,1.868,0.639,1.688-0.465c-0.336-2.054,3.962-5.884,5.182-7.302 c1.324-1.539,2.694-3.042,4.094-4.514c0.778-0.82-0.413-2.007-1.238-1.237c-2.563,2.394-5.357,4.499-8.249,6.479 c-1.197,0.821-2.439,1.572-3.701,2.289c-1.818,1.033-2.226,1.572-0.16,0.049c3.567-2.631,7.709-4.644,11.671-6.609 c0.932-0.462,0.253-1.794-0.674-1.599c-6.244,1.315-13.179,0.231-19.368-1c-0.077,0.573-0.155,1.146-0.232,1.719 c0.792-0.043,0.331,7.276,0.292,7.792c-0.074,0.972-0.714,5.012-1.054,5.782c0.219-0.496,0.979-1.073,1.396-1.486 c3.079-3.054,5.941-6.346,8.853-9.558c5.693-6.283,11.339-12.609,16.966-18.953C191.197,7.528,189.965,6.285,189.214,7.131 L189.214,7.131z"/>
<path d="M183.286,33.036c2.025-1.654,4.428-4.032,6.949-4.848c-1.172,0.379-0.231-1.412-0.823-0.209 c-0.253,0.514-0.548,1.007-0.838,1.5c-0.751,1.276-1.577,2.51-2.385,3.751c-0.818,1.258-2.645,3.276-2.366,4.919 c0.188,1.111,1.874,0.639,1.688-0.465c-0.205-1.214,8.496-10.811,4.836-11.245c-1.501-0.178-3.457,1.665-4.554,2.461 c-1.275,0.928-2.523,1.899-3.745,2.897C181.174,32.513,182.42,33.743,183.286,33.036L183.286,33.036z"/>
<path d="M200.844,29.018c-2.243-6.695-13.955,2.133-10.846,5.242c2.876,2.877,9.326-3.167,11.179-4.735 c4.021-3.406,7.903-7.889,10.246-12.666c0.506-1.031-0.843-1.775-1.512-0.883c-4.376,5.835-8.824,11.63-13.047,17.578 c-0.496,0.7-1.32,2.292,0.032,2.664c2.683,0.738,7.897-4.975,9.556-6.349c-0.458-0.354-0.917-0.707-1.375-1.06 c-1.274,1.664-4.32,4.661-4.126,6.911c0.052,0.606,0.641,1.074,1.254,0.924c0.606-0.148,1.066-0.479,1.581-0.832 c0.729-0.564,1.464-1.12,2.206-1.667c0.431-0.261,0.861-0.522,1.291-0.784c3.267,0.458,3.521,1.604,0.765,3.438 c-0.762,0.832,0.412,2.011,1.238,1.237c0.879-0.824,1.791-1.612,2.714-2.386c0.979-0.82,2.005-1.566,3.092-2.232 c1.709-1.047,0.446,1.435,0.374,2.425c-0.255,3.465,3.255,2.496,5.143,1.496c0.998-0.528,0.113-2.039-0.883-1.511 c-4.989,2.641,0.325-5.262-4.233-4.499c-2.654,0.445-5.573,3.715-7.444,5.469c0.413,0.413,0.825,0.825,1.238,1.237 c1.287-1.405,3.573-3.571,2.973-5.755c-0.395-1.436-2.179-1.777-3.434-1.389c-1.927,0.597-3.476,1.563-5.1,2.77 c-1.889,1.403-1.166,1.968-0.282,0.488c0.93-1.556,2.044-3.021,3.146-4.458c0.646-0.844-0.669-1.645-1.375-1.06 c-2.048,1.697-4.103,3.384-6.285,4.906c-0.366,0.251-0.742,0.486-1.129,0.706c-0.888,0.526,0.05,1.06,0.16,0.834 c0.871-1.778,2.422-3.403,3.591-4.984c3.271-4.426,6.569-8.832,9.872-13.235c-0.504-0.294-1.008-0.589-1.512-0.883 c-1.6,3.262-3.965,6.147-6.382,8.824c-2.572,2.849-5.563,5.379-8.876,7.314c-1.886,1.101-3.44,0.341-1.824-1.283 c1.009-1.013,5.41-4.086,6.327-1.348C199.513,30.547,201.203,30.09,200.844,29.018L200.844,29.018z"/>
<path d="M214.559,21.162c-0.542,0.367-1.521,0.378-2.226,0.38c-1.128,0.003-1.129,1.753,0,1.75 c0.995-0.003,2.26-0.043,3.108-0.62C216.369,22.043,215.495,20.526,214.559,21.162L214.559,21.162z"/>
<path d="M230.511,30.518c-1.415-5.276-7.125-2.183-8.796,1.222c-0.638,1.298-0.796,3.539,0.666,4.395 c2.323,1.361,5.068-1.37,6.571-2.765c-0.458-0.354-0.917-0.707-1.375-1.06c-2.419,3.427-4.926,6.794-7.501,10.105 c-1.822,2.341-3.699,4.643-5.697,6.837c-0.617,0.678-3.561,4.214-3.337,2.333c0.134-1.119-1.618-1.106-1.75,0 c-0.789,6.623,7.187-2.042,8.151-3.165c4.158-4.838,7.968-10.017,11.646-15.228c0.595-0.843-0.675-1.71-1.375-1.06 c-0.842,0.882-1.793,1.628-2.853,2.239c-1.794-0.423-2.227-1.234-1.299-2.435c0.88-1.793,4.585-3.473,5.261-0.954 C229.115,32.072,230.804,31.609,230.511,30.518L230.511,30.518z"/>
</svg>