<?xml version="1.0" encoding="UTF-8" ?>
<!DOCTYPE svg PUBLIC "-//W3C//DTD SVG 1.1//EN" "http://www.w3.org/Graphics/SVG/1.1/DTD/svg11.dtd">
<svg width="334pt" height="94pt" viewBox="0 0 334 94" version="1.1" xmlns="http://www.w3.org/2000/svg">
<g id="#ffffffff">
</g>
<g id="#000000ff">
<path fill="#000000" opacity="1.00" d=" M 240.16 11.36 C 240.87 9.07 243.35 9.10 245.30 9.27 C 247.17 12.94 246.36 17.14 246.50 21.09 C 246.52 25.52 244.00 29.56 244.27 34.02 C 244.35 37.08 245.82 39.93 245.70 43.01 C 245.85 46.49 245.12 50.57 247.42 53.50 C 249.65 55.00 251.60 52.52 252.82 50.89 C 256.64 45.97 259.26 40.28 261.62 34.55 L 262.22 34.35 C 262.53 33.75 263.14 32.54 263.45 31.93 L 263.32 30.70 C 263.58 30.65 264.09 30.54 264.35 30.49 C 267.09 23.69 265.75 15.99 268.95 9.31 C 269.51 9.69 270.63 10.45 271.19 10.83 C 271.35 15.19 274.02 19.83 272.54 23.98 C 274.03 28.02 273.14 32.50 273.60 36.72 L 274.41 36.34 C 274.53 38.00 274.67 39.67 274.80 41.34 C 276.37 41.50 277.93 41.64 279.50 41.80 C 280.25 44.54 275.66 50.21 274.18 45.60 L 273.55 45.50 C 270.99 38.54 272.66 30.92 270.05 24.00 C 267.59 28.54 266.60 33.77 263.42 37.93 C 263.44 38.20 263.47 38.75 263.49 39.03 C 262.99 39.48 262.00 40.38 261.50 40.83 C 258.79 48.11 255.44 56.43 247.61 59.42 C 246.42 63.29 249.06 67.02 248.74 70.94 C 249.03 71.90 249.61 73.81 249.90 74.77 L 250.45 74.11 C 250.36 76.49 250.11 79.00 251.41 81.14 C 251.34 81.33 251.22 81.71 251.15 81.90 C 253.08 83.66 253.63 86.24 253.75 88.74 C 252.71 88.74 251.66 88.75 250.62 88.75 C 250.54 87.89 250.40 86.17 250.32 85.31 L 249.60 85.59 C 246.75 77.24 244.71 68.63 243.69 59.87 C 243.51 56.21 241.69 53.03 240.13 49.82 C 239.37 49.31 238.62 48.79 237.89 48.26 C 236.73 52.50 233.91 56.28 229.89 58.17 C 225.97 58.29 222.44 55.72 220.66 52.30 C 218.03 54.21 217.58 57.63 216.19 60.36 L 215.38 60.30 L 215.32 61.53 C 213.81 61.17 211.21 62.23 210.70 60.13 C 206.54 53.06 206.98 43.30 212.84 37.30 C 213.07 37.30 213.54 37.30 213.77 37.31 C 214.97 36.89 216.20 36.61 217.46 36.43 C 217.94 36.77 218.91 37.47 219.39 37.81 C 219.69 39.86 221.87 42.77 219.16 44.00 C 218.89 43.18 218.35 41.54 218.08 40.72 C 217.26 40.58 216.45 40.43 215.64 40.29 C 212.28 42.45 211.57 46.39 210.64 49.97 C 211.02 52.14 211.30 54.33 211.70 56.49 C 212.55 56.71 213.42 56.90 214.29 57.05 C 214.80 55.90 215.29 54.75 215.78 53.59 L 216.54 53.59 C 216.59 52.96 216.69 51.69 216.74 51.06 C 217.18 49.87 217.60 48.67 218.00 47.46 C 218.61 47.45 219.23 47.45 219.86 47.45 C 221.91 50.55 224.85 52.87 228.15 54.53 C 229.71 53.71 231.59 53.12 232.45 51.44 C 234.46 47.83 236.51 44.20 237.67 40.21 L 238.13 40.62 C 238.62 38.86 238.96 36.57 240.99 35.93 C 238.39 35.79 239.68 32.71 239.24 30.99 C 237.63 24.64 238.59 17.84 239.66 11.42 L 240.16 11.36 Z" />
<path fill="#000000" opacity="1.00" d=" M 155.72 21.20 C 151.60 19.06 150.28 14.18 150.82 9.87 C 153.39 10.11 154.89 12.28 156.97 13.44 C 159.34 13.78 161.99 13.92 164.10 12.56 C 164.31 12.57 164.72 12.60 164.93 12.61 C 165.67 11.34 167.17 11.61 168.36 11.32 C 169.08 12.08 169.79 12.84 170.52 13.59 C 170.57 15.63 170.45 17.71 171.07 19.68 C 172.45 24.67 172.72 29.98 175.29 34.58 C 175.70 34.55 176.54 34.48 176.96 34.45 C 179.33 32.15 182.52 32.30 185.57 32.50 C 188.08 31.12 189.09 28.08 189.83 25.47 L 190.29 25.63 C 190.55 24.44 190.84 23.25 191.16 22.07 C 192.62 18.46 194.10 14.83 194.88 10.99 C 195.42 10.62 196.51 9.87 197.06 9.50 C 197.61 9.82 198.72 10.47 199.28 10.80 C 199.27 12.26 199.27 13.72 199.26 15.18 C 198.41 15.64 197.58 16.14 196.78 16.68 C 194.58 21.22 194.84 26.78 191.67 30.88 C 191.12 32.03 190.71 33.22 190.21 34.38 L 189.36 34.41 C 189.36 35.48 189.37 36.54 189.38 37.61 L 190.18 37.56 C 190.63 38.74 191.10 39.90 191.61 41.06 C 196.21 45.27 197.25 51.97 201.97 56.11 C 203.43 57.45 204.97 58.71 206.48 60.00 C 206.41 60.60 206.26 61.80 206.19 62.40 C 205.36 62.44 204.54 62.48 203.73 62.52 C 202.71 61.75 201.69 60.99 200.65 60.25 C 195.40 53.70 193.27 44.28 185.34 40.19 C 183.55 42.12 181.06 42.97 178.67 43.87 C 178.67 45.23 178.69 46.60 178.73 47.97 C 180.11 52.06 180.34 57.23 177.18 60.60 C 173.13 61.49 171.30 57.15 168.69 54.98 C 168.29 53.01 168.18 51.01 168.72 49.06 C 170.66 50.05 171.03 52.35 171.92 54.12 C 173.26 54.92 174.60 55.71 175.96 56.48 C 176.88 54.80 178.05 52.90 176.87 51.01 C 176.20 46.21 174.26 41.73 172.95 37.09 C 171.53 31.79 168.85 26.84 168.38 21.30 C 164.13 20.38 159.58 24.17 155.72 21.20 Z" />
<path fill="#000000" opacity="1.00" d=" M 286.55 18.50 C 287.43 17.35 289.67 16.68 290.37 18.37 C 294.27 24.89 286.76 31.99 290.47 38.55 C 292.01 41.14 293.20 45.58 297.05 44.78 C 297.52 44.32 298.48 43.38 298.96 42.91 C 300.01 41.05 301.43 39.38 302.25 37.39 C 303.42 32.26 303.07 26.64 306.00 22.03 C 307.44 22.41 308.84 22.96 310.15 23.69 C 310.78 24.42 311.44 25.12 312.13 25.80 C 315.73 28.45 315.09 33.29 317.20 36.85 C 319.03 40.00 321.00 43.91 325.03 44.47 C 326.43 43.53 327.95 42.76 329.64 42.48 C 329.24 44.32 328.35 45.99 327.23 47.49 C 325.41 47.61 323.59 47.75 321.78 47.82 C 319.38 45.26 317.65 42.17 315.34 39.54 C 313.14 40.20 310.60 40.21 308.87 41.92 C 306.18 44.58 301.64 43.34 299.40 46.70 C 299.39 47.12 299.38 47.96 299.37 48.38 C 297.60 48.84 295.16 50.43 293.70 48.48 C 291.09 45.62 289.60 41.67 286.12 39.69 C 283.34 40.31 280.54 40.60 278.32 38.41 C 278.77 35.72 278.66 32.79 280.35 30.49 C 282.94 26.74 282.92 21.55 286.55 18.50 M 285.52 25.80 C 285.08 27.18 284.64 28.55 284.24 29.95 C 285.34 29.87 286.43 29.76 287.53 29.62 C 287.48 28.67 287.39 26.78 287.34 25.84 L 288.25 28.95 L 288.37 25.13 L 287.54 25.69 C 287.46 25.00 287.30 23.63 287.23 22.95 C 286.67 23.91 286.10 24.86 285.52 25.80 M 305.42 32.04 C 307.05 33.78 312.23 36.20 311.86 32.06 C 312.20 30.08 310.68 27.90 308.70 27.62 C 306.68 28.07 306.26 30.48 305.42 32.04 Z" />
<path fill="#000000" opacity="1.00" d=" M 5.58 28.85 C 8.04 28.42 10.49 27.30 13.01 27.92 C 18.37 29.01 23.88 27.82 29.26 28.74 C 30.86 29.00 32.48 29.06 34.09 28.87 C 36.21 29.08 38.21 29.78 39.99 30.96 C 39.17 33.20 37.35 34.60 35.09 35.17 C 34.04 35.50 33.03 35.94 32.07 36.48 C 31.46 36.58 30.24 36.77 29.63 36.86 C 28.48 39.37 29.10 41.99 29.80 44.53 C 34.28 45.35 38.89 44.87 43.37 45.77 C 43.41 47.34 44.26 49.32 42.60 50.37 C 39.34 53.03 34.69 52.96 31.46 55.70 C 32.42 57.98 33.21 60.33 33.79 62.73 L 34.40 62.27 C 34.46 63.37 34.52 64.46 34.58 65.56 L 35.34 65.54 C 35.31 66.04 35.27 67.05 35.25 67.55 C 34.73 67.59 33.69 67.68 33.17 67.72 C 31.15 64.11 30.63 59.96 29.60 56.02 C 29.21 55.68 28.43 55.01 28.04 54.67 C 24.41 54.56 20.23 55.45 17.45 52.47 C 15.54 51.27 16.48 48.82 17.76 47.55 C 19.19 47.01 20.59 46.40 21.97 45.74 C 23.43 45.58 24.90 45.44 26.36 45.29 C 27.11 43.16 27.45 40.86 25.99 38.93 C 20.77 37.68 14.66 40.27 10.00 37.32 C 9.73 37.42 9.19 37.64 8.92 37.75 C 7.04 35.11 4.77 32.34 5.58 28.85 Z" />
<path fill="#000000" opacity="1.00" d=" M 103.73 47.54 L 105.55 47.16 L 105.39 49.35 C 105.73 49.36 106.41 49.38 106.75 49.39 L 106.17 50.49 C 108.26 51.63 110.65 51.32 112.91 51.66 C 115.52 52.84 119.15 53.69 119.77 56.98 C 117.04 58.89 114.79 61.42 112.97 64.19 C 111.92 66.37 115.06 65.16 116.02 64.98 C 119.63 64.86 123.40 64.36 126.86 65.75 C 123.64 71.14 116.26 70.86 110.79 70.37 C 109.53 68.02 107.85 65.60 108.60 62.78 C 109.74 60.40 112.22 59.09 113.74 57.00 C 112.66 54.12 108.34 55.69 105.90 55.64 C 102.30 58.33 103.45 64.51 99.40 66.99 C 98.20 65.28 96.46 64.13 94.75 63.01 C 94.63 62.41 94.40 61.21 94.28 60.61 C 92.84 60.39 91.40 60.25 89.95 60.25 C 88.97 62.61 87.98 65.69 84.88 65.77 C 83.88 64.80 82.94 63.77 82.18 62.59 C 82.12 62.53 81.98 62.42 81.92 62.36 C 81.47 61.48 80.58 59.71 80.14 58.82 C 79.06 61.77 78.15 65.02 75.84 67.29 C 74.39 67.98 72.96 66.66 71.57 66.35 C 71.46 65.71 71.25 64.42 71.14 63.78 C 70.39 63.67 69.64 63.57 68.90 63.47 C 66.85 66.17 63.78 67.65 61.00 69.43 C 60.00 68.96 59.01 68.48 58.03 67.99 C 55.20 65.52 52.45 62.91 51.34 59.19 C 50.03 59.30 48.72 59.42 47.41 59.54 L 47.66 60.63 L 46.47 60.43 L 46.47 61.67 L 45.60 61.47 C 44.65 63.82 44.47 67.40 41.26 67.76 C 41.25 65.01 42.31 62.46 42.98 59.84 C 43.93 56.66 43.38 53.29 43.69 50.03 C 46.58 49.82 46.60 52.26 46.80 54.41 C 48.28 54.68 49.92 54.97 51.14 53.82 C 51.47 53.74 52.14 53.57 52.47 53.48 C 53.94 56.25 53.66 60.89 57.43 61.60 L 57.29 59.53 L 58.14 59.51 C 58.56 58.18 59.05 56.87 59.53 55.56 C 61.44 53.42 63.74 51.36 66.85 52.40 C 68.71 55.92 72.78 57.71 73.96 61.69 C 74.51 61.63 75.63 61.50 76.19 61.44 C 76.82 58.72 76.76 55.63 78.77 53.46 C 79.48 53.55 80.20 53.63 80.91 53.73 C 81.27 54.24 81.98 55.26 82.33 55.77 C 82.91 56.95 83.49 58.14 83.74 59.44 L 84.64 59.37 L 84.58 60.66 C 85.10 60.64 86.15 60.62 86.67 60.60 C 87.64 58.19 88.74 55.74 90.82 54.07 C 92.09 55.29 93.32 56.56 94.59 57.78 L 94.61 58.13 C 94.94 58.61 95.58 59.56 95.91 60.03 C 96.47 60.48 97.61 61.38 98.18 61.83 C 103.79 59.47 101.92 52.09 103.73 47.54 M 62.72 57.71 C 62.44 59.54 62.33 61.40 62.66 63.23 C 63.52 61.29 64.30 59.31 65.01 57.31 C 64.43 57.41 63.29 57.61 62.72 57.71 Z" />
</g>
</svg>
