<?xml version="1.0" encoding="utf-8"?>
<!-- Generator: Adobe Illustrator 16.0.0, SVG Export Plug-In . SVG Version: 6.00 Build 0)  -->
<!DOCTYPE svg PUBLIC "-//W3C//DTD SVG 1.1//EN" "http://www.w3.org/Graphics/SVG/1.1/DTD/svg11.dtd">
<svg version="1.1" xmlns="http://www.w3.org/2000/svg" xmlns:xlink="http://www.w3.org/1999/xlink" x="0px" y="0px"
	 width="575.972px" height="181.491px" viewBox="0 0 575.972 181.491" enable-background="new 0 0 575.972 181.491"
	 xml:space="preserve">
<g id="Layer_1">
</g>
<g id="Layer_2">
	<g>
		<g>
			<path d="M17.825,107.208C14.142,99.279,34.311,83.98,39.571,78.68c13.417-13.519,27.137-26.798,42.171-38.525
				c7.258-5.661,15.01-10.974,23.59-14.412c11.81-4.737,26.898-2.923,39.404-2.647c7.058,0.156,14.033,0.107,20.755-2.224
				c1.93-0.667,9.146-5.003,7.88-7.582c-0.315-0.643-1.351-0.509-1.917-0.431c-5.538,0.768-10.829,6.121-14.994,9.312
				c-7.698,5.896-15.075,12.213-22.09,18.904c-14.412,13.74-28.109,28.214-43.113,41.327c-2.87,2.508-15.409,15.04-19.73,12.553
				c-6.44-3.706,9.877-15.018,11.992-16.473c8.402-5.775,17.837-10.321,27.368-13.877c2.162-0.805,4.351-1.429,6.578-2.005
				c1.989-0.516,7.029,0.352,8.347-0.194c-1.923,0.795-4.297,1.143-5.932,2.506c-1.301,1.085,0.478,1.451,1.421,1.256
				c5.41-1.12,8.143-8.748,13.294-9.67c1.98-0.354,3.937-2.658,0.745-2.088c-4.822,0.862-8.509,4.762-12.075,7.851
				c-5.518,4.78,5.514,1.958,8.031-0.62c0.154-0.152,0.217-0.333,0.189-0.546c-4.103-7.166-28.591,4.546-32.988,6.56
				c-9.302,4.258-31.055,13.576-32.704,25.559c-1.194,8.681,13.309,1.51,15.652-0.024c14.761-9.662,27.335-22.973,39.843-35.282
				c15.046-14.812,29.921-29.685,47.434-41.661c-10.346,7.076-25.702,4.377-38.262,4.445c-9.651,0.049-19.521,0.691-28.548,4.311
				c-32.39,12.987-55.208,44.725-80.317,67.502c-3.425,3.106-10.99,10.253-8.353,15.932
				C13.869,109.784,18.32,108.274,17.825,107.208L17.825,107.208z"/>
		</g>
		<g>
			<path d="M101.5,117.401c-8.226-6.955,26.321-29.837,31.112-33.172c3.479-2.422,7.084-4.653,10.814-6.66
				c2.777-1.497,3.216-1.666,1.029,0.771c-3.251,3.624-6.742,6.968-9.24,11.186c-3.747,6.333,4.639,6.34,8.446,5.485
				c6.025-1.354,18.323-6.305,20.562-12.783c0.58-1.687-2.475-1.681-2.928-0.371c-1.322,3.829-7.6,6.479-10.799,8.126
				c-2.365,1.219-4.865,2.127-7.408,2.896c-6.293,1.897-4.675-3.754-2.252-6.807c2.001-2.519,9.666-7.886,9.006-11.557
				c-0.054-0.297-0.377-0.556-0.649-0.634c-3.629-1.057-8.198,2.388-11.056,4.048c-10.101,5.867-19.359,13.318-28.356,20.72
				c-3.489,2.87-17.517,14.713-10.631,20.535C100.208,120.08,102.861,118.552,101.5,117.401L101.5,117.401z"/>
		</g>
		<g>
			<path d="M195.172,74.095c-8.272-10.29-24.846,8.4-27.883,14.97c-1.571,3.399,3.072,3.71,5.105,3.169
				c4.631-1.237,9.355-3.103,13.356-5.757c2.1-1.392,6.277-6.695,8.575-7.408c-0.531-0.545-1.064-1.093-1.598-1.639
				c-3.208,4.414-8.679,11.104,0.699,11.036c4.787-0.035,21.995-8.192,21.62-14.074c-0.076-1.194-1.367-1.242-2.252-0.888
				c-4.49,1.802-8.096,9.85-2.273,11.921c7.754,2.757,18.52-5.606,20.255-12.887c0.243-1.011-1.245-1.159-1.854-1.035
				c-3.578,0.73-5.822,9.59-3.885,12.315c4.945,6.961,16.392-6.481,19.787-8.048c1.892-0.871,0.216-2.705-1.396-1.96
				c-2.147,0.99-3.595,2.09-5.333,3.743c-4.058,3.86-12.777,6.634-9.333-1.639c1.936-4.647-2.911,0.263-3.942,1.614
				c-4.992,6.521-20.16,1.76-10.628-2.063c-0.751-0.297-1.501-0.591-2.252-0.888c0.204,3.204-11.148,8.816-12.917,9.73
				c-2.662,1.38-10.093,2.649-6.457-2.545c0.826-1.18,1.906-2.153,2.751-3.314c0.815-1.122-0.546-1.966-1.598-1.639
				c-4.371,1.353-8.429,7.206-12.52,9.493c-6.303,3.522-12.234,3.465-5.978-3.56c2.734-3.068,12.413-13.169,17.165-7.258
				C193.325,76.65,196.21,75.388,195.172,74.095L195.172,74.095z"/>
		</g>
		<g>
			<path d="M254.043,70.766c10.333-7.482,20.59-15.066,30.771-22.753c5.982-4.519,11.925-9.094,17.734-13.831
				c1.528-1.243,7.414-4.879,7.451-7.282c0.024-1.598-2.308-1.23-3.244-0.838c-3.364,1.415-6.405,5.528-8.948,7.972
				c-6.805,6.539-13.513,13.181-20.208,19.831c-6.67,6.626-13.308,13.284-19.857,20.026c-1.741,1.796-7.397,5.928-7.658,8.726
				c-0.122,1.299,1.813,1.336,2.647,1.048c4.148-1.433,7.846-6.038,11.087-8.795c9.584-8.149,19.642-16.286,30.991-21.853
				c2.067-1.016,4.237-1.738,6.463-2.309c7.307-1.875,1.534,1.662-0.476,3.119c-4.027,2.922-8.49,5.4-13.004,7.472
				c-9.023,4.141-11.554,13.58-18.544,20.591c-1.953,1.96,2.537,2.161,3.731,0.963c2.608-2.616,4.922-5.229,7.121-8.175
				c2.254-3.027,3.979-9.22,7.923-10.562c4.468-1.521,8.69-4.208,12.678-6.675c1.059-0.654,14.375-10.136,6.156-10.08
				c-11.237,0.076-21.408,7.169-30.197,13.422c-5.188,3.691-10.134,7.739-15.023,11.817c-2.287,1.907-4.54,3.856-6.796,5.8
				c-0.6,0.515-4.094,3.121-2.805,2.675c0.884,0.35,1.767,0.698,2.648,1.048c0.236-2.516,7.296-7.793,8.96-9.499
				c5.839-5.987,11.758-11.896,17.686-17.795c5.945-5.919,11.927-11.806,17.946-17.648c2.391-2.32,7.388-8.116,9.366-8.946
				c-1.083-0.279-2.164-0.558-3.247-0.838c-0.026,1.792-8.728,7.57-10.251,8.783c-6.103,4.863-12.345,9.556-18.585,14.237
				c-8.423,6.318-16.903,12.559-25.429,18.731C248.609,70.974,252.472,71.903,254.043,70.766L254.043,70.766z"/>
		</g>
		<g>
			<path d="M299.305,75.327c11.544-4.315,22.88-9.362,33.575-15.487c5.271-3.016,32.464-18.812,26.407-27.164
				c-7.268-10.017-35.468,22.9-38.631,26.411c-5.336,5.923-13.644,13.829-15.715,21.823c-1.529,5.896,12.354-1.492,13.173-2.102
				c1.886-1.404,3.537-3.119,5.19-4.781c0.815-0.848,1.628-1.696,2.441-2.547c2.463-2.569-2.666-0.603-3.531,0.849
				c-1.615,2.716-4.529,6.924-0.21,8.19c3.216,0.94,17.713-5.034,13.982-9.232c-0.536-0.603-2.385,0.066-2.953,0.249
				c-1.739,0.562-3.261,2.642-1.418,4.228c5.068,4.368,15.07,2.651,20.92,1.466c3.749-0.762,8.215-2.72,8.091-7.091
				c-0.086-3.107-3.762-6.442-6.753-6.354c-1.229,0.037-5.016,1.96-1.977,1.869c1.443-0.043,3.451,3.727,3.866,4.628
				c3.544,7.698-15.303,6.604-19.135,4.516c-0.654-0.396-1.05-0.945-1.186-1.649c-1.246-3.797-8.834,7.86-11.152,4.665
				c-1.211-1.667,2.59-6.294,3.27-7.801c0.131-0.294-0.145-0.435-0.381-0.494c-1.714-0.438-3.416,0.429-4.726,1.445
				c-1.772,1.376-14.894,14.062-12.562,7.801c3.879-10.405,14.527-19.869,22.057-27.664c4.486-4.645,9.209-9.069,14.233-13.13
				c1.856-1.501,6.841-6.384,9.252-3.059c2.271,3.129-4.894,8.986-6.697,10.701c-14.111,13.428-32.991,21.904-51.026,28.643
				C294.651,75.401,297.553,75.979,299.305,75.327L299.305,75.327z"/>
		</g>
		<g>
			<path d="M350.959,55.661c0.049-0.021,0.097-0.042,0.146-0.061c0.551-0.222-0.479,0.148-0.104,0.029
				c0.195-0.062,0.396-0.111,0.598-0.156c-0.397,0.076-0.468,0.093-0.211,0.051c0.499-0.076-0.512,0.005-0.004-0.008
				c0.221,0.008,0.193,0-0.076-0.022c0.072,0.006,0.498,0.13,0.134,0.006c0.297,0.101,0.182,0.05,0.401,0.278
				c0.406,0.422,0.402,1.227,0.367,1.767c-0.12,1.817,4.478,0.883,4.574-0.598c0.07-1.076,0.021-2.069-0.68-2.939
				c-0.601-0.748-1.73-0.956-2.629-1.005c-1.431-0.078-2.995,0.277-4.305,0.858c-0.502,0.223-1.971,1.044-1.237,1.785
				C348.637,56.354,350.181,56.004,350.959,55.661L350.959,55.661z"/>
		</g>
		<g>
			<path d="M388.502,49.976c6.275-4.934,13.195-9.067,20.218-12.823c8.345-4.461,17.237-7.823,26.497-9.787
				c5.514-1.168,17.229-3.509,20.914,2.649c3.957,6.617-8.295,16.539-12.402,19.687c-5.272,4.04-11.581,7.731-17.776,3.657
				c-6.168-4.057,1.553-10.113,5.222-12.041c2.707-1.422-1.508-1.455-2.701-0.827c-3.091,1.624-9.489,5.343-9.273,9.538
				c0.282,5.471,6.288,8.11,11.184,7.477c11.967-1.551,24.394-11.139,29.724-21.81c7.741-15.495-21.602-11.057-27.773-9.493
				c-17.031,4.317-33.556,12.581-47.389,23.456C383.035,51.158,387.621,50.669,388.502,49.976L388.502,49.976z"/>
		</g>
		<g>
			<path d="M449.658,28.197c-7.943,9.479-16.383,18.575-25.143,27.301c-6.578,6.551-13.496,12.866-21.18,18.105
				c-2.662,1.816-6.329,4.174-9.695,4.104c-11.609-0.241-0.266-9.043,2.149-10.431c2.699-1.55,0.241-4-2.025-2.696
				c-3.145,1.805-15.213,10.22-7.793,14.229c8.081,4.364,14.813,0.693,21.84-4.098c17.427-11.884,32.207-29.087,45.68-45.167
				C455.361,27.314,450.99,26.606,449.658,28.197L449.658,28.197z"/>
		</g>
		<g>
			<path d="M427.769,77.772c9.112-3.238,25.186-7.396,30.228-16.471c1.555-2.796-1.568-3.862-3.689-3.479
				c-4.943,0.888-9.376,5.573-12.271,9.346c-10.65,13.872,13.452,10.173,19.781,7.55c4.313-1.787,8.376-4.313,12.411-6.641
				c2.685-1.546,12.688-7.543,4.163-4.774c-5.242,1.705-11.516,4.124-13.873,9.513c-1.377,3.146,0.916,6.37,4.319,5.939
				c5.915-0.747,11.029-4.562,15.172-8.651c6.515-6.428-3.947-8.133-6.275,1.114c-5.118,20.314,65.317-17.295,49.475-23.658
				c-8.185-3.288-20.026,14.298-21.878,20.326c-1.455,4.74,1.484,7.07,6.411,6.282c6.636-1.061,13.851-4.605,16.92-11.007
				c0.167-0.348,0.26-0.799-0.049-1.112c-0.042-0.041-0.081-0.082-0.122-0.123c-1.062-1.083-3.019-0.442-3.99,0.424
				c-6.001,5.357-4.258,11.252,3.451,11.904c8.005,0.678,20.253-1.919,19.767-11.865c-0.088-1.784-4.68-0.771-4.583,1.228
				c0.589,12.027-24.935,8.767-14.879-0.208c-1.33,0.142-2.66,0.284-3.99,0.426c0.377,0.383-19.036,13.07-13.374,1.563
				c2.104-4.278,5.445-7.999,8.774-11.361c5.398-5.452,5.458-1.561,1.501,2.938c-4.587,5.213-11.854,8.518-18.009,11.375
				c-4.933,2.291-10.099,4.119-15.39,5.369c-2.471,1.003-4.276,0.017-5.423-2.961c1.408-1.708,1.161-2.857-0.739-3.448
				c-1.068,2.524-4.443,4.538-6.543,6.008c-3.968,2.773-7.668-0.613-2.924-4.111c2.419-1.785,5.658-2.749,8.475-3.663
				c1.576-0.513,4.238-0.805,5.386-2.192c0.617-0.749,0.541-1.655-0.517-1.927c-4.007-1.027-8.263,1.624-11.586,3.438
				c-3.848,2.103-7.597,4.367-11.498,6.377c-3.756,1.933-22.265,7.885-17.15-2.106c1.507-2.944,4.457-5.395,7.063-7.295
				c4.542-3.311-1.198,1.911-1.54,2.173c-1.873,1.429-4.104,2.534-6.172,3.608c-5.614,2.922-11.602,5.311-17.562,7.429
				C424.363,75.998,425.018,78.75,427.769,77.772L427.769,77.772z"/>
		</g>
		<g>
			<path d="M281.055,118.999c28.41-23.794,71.368-27.24,106.533-26.355c24.797,0.622,49.663,2.926,74.04,7.561
				c16.644,3.164,41.684,7.574,52.233,22.605c18.706,26.652-56.683,30.739-67.729,30.976c-16.928,0.36-34.119-0.797-50.685-4.424
				c-8.233-1.804-26.406-5.885-25.643-17.262c0.682-10.154,14.605-12.192,22.433-11.711c2.838,0.177,6.908,0.635,8.818,3.028
				c2.652,3.327-8.054,7.225-9.748,7.902c-24.783,9.893-53.93,12.508-80.285,14.494c-16.426,1.239-35.585,2.294-51.084-4.496
				c-5.462-2.393-11.029-8.187-6.014-13.803c3.879-4.345,22.42-4.737,20.218,2.744c-2.117,7.193-17.632,11.135-23.327,13.063
				c-10.15,3.442-20.681,5.787-31.134,8.122c-19.37,4.324-38.91,7.908-58.519,10.966c-20.648,3.218-41.442,5.703-62.315,6.805
				c-16.611,0.877-34.608,1.451-50.648-3.7c-9.399-3.019-18.625-12.985-8.716-21.383c10.896-9.236,30.094-10.254,43.494-11.761
				c54.614-6.14,110.621-3.271,165.407-1.783c64.411,1.751,127.945,2.877,192.022-5.525c35.927-4.711,73.553-10.838,106.972-25.454
				c10.029-4.387,31.159-15.929,16.946-27.922c-1.048-0.885-3.708,0.63-2.351,1.775c23.098,19.49-64.051,39.272-72.797,41.138
				c-62.583,13.348-127.596,17.183-191.436,15.189c-59.19-1.847-118.56-4.27-177.773-2.161c-19.355,0.689-38.879,1.892-57.907,5.683
				c-9.366,1.865-21.156,4.572-27.554,12.351c-4.671,5.677-2.14,13.069,2.974,17.366c8.835,7.425,23.629,8.005,34.48,8.6
				c38.688,2.119,78.299-4.65,116.216-11.585c17.904-3.273,35.789-6.948,53.376-11.655c7.561-2.021,34.566-7.617,35.806-18.76
				c1.301-11.682-22.9-8.373-27.467-1.036c-9.842,15.816,28.268,19.556,34.757,19.924c24.245,1.373,48.869-2.328,72.673-6.498
				c13.77-2.412,33.704-4.44,44.92-14.09c4.207-3.62,1.417-7.146-2.854-8.644c-6.685-2.345-14.996-1.466-21.529,0.892
				c-5.867,2.116-12.005,7.311-11.18,14.239c1.001,8.399,11.272,12.235,18.123,14.576c28.809,9.844,63.725,8.939,93.416,4.375
				c13.636-2.094,51.479-9.971,38.438-31.908c-7.46-12.544-27.605-17.185-40.424-20.487c-22.713-5.854-46.363-8.282-69.715-9.771
				c-40.697-2.594-84.044-1.054-119.751,21.044c-2.657,1.645-5.342,3.333-7.743,5.345
				C277.434,118.918,279.875,119.987,281.055,118.999L281.055,118.999z"/>
		</g>
		<g>
			<path d="M323.965,122.071c-0.309,3.136-2.235,5.204-3.458,7.937c-0.859,1.917-0.169,4.546,0.741,6.32
				c0.393,0.764,3.309-0.325,3.055-0.819c-1.211-2.355-1.54-5.128-0.021-7.409c1.404-2.106,2.487-4.291,2.738-6.848
				C327.062,120.831,324.056,121.144,323.965,122.071L323.965,122.071z"/>
		</g>
		<g>
			<path d="M330.613,123.425c-0.344,2.127-0.686,4.616-1.81,6.479c-1.211,2.005-0.886,4.195-0.307,6.423
				c0.271,1.046,3.329,0.235,3.055-0.819c-0.205-0.79-0.344-1.594-0.452-2.402c-0.23-1.703,0.232-2.439,0.922-3.853
				c0.927-1.904,1.308-4.142,1.643-6.22C333.854,121.863,330.778,122.404,330.613,123.425L330.613,123.425z"/>
		</g>
	</g>
</g>
</svg>
