<?xml version="1.0" standalone="no"?>
<!DOCTYPE svg PUBLIC "-//W3C//DTD SVG 20010904//EN"
 "http://www.w3.org/TR/2001/REC-SVG-20010904/DTD/svg10.dtd">
<svg version="1.0" xmlns="http://www.w3.org/2000/svg"
 width="468pt" height="193pt" viewBox="0 0 468 193"
 preserveAspectRatio="xMidYMid meet">
<metadata>
Created by POTRACE VERSION, written by Peter Selinger 2001-2007
</metadata>
<g transform="translate(0,193) scale(0.015600,-0.015600)"
fill="#000000" stroke="none">
<path d="M5180 12140 c-41 -4 -104 -15 -140 -24 -36 -8 -82 -16 -103 -16 -21
0 -84 -9 -140 -20 -56 -11 -140 -29 -187 -40 -47 -11 -134 -31 -195 -44 -60
-14 -132 -27 -160 -30 -27 -3 -87 -10 -133 -16 -46 -6 -104 -19 -130 -29 -26
-11 -75 -22 -107 -26 -33 -4 -117 -25 -188 -46 -70 -21 -165 -45 -212 -54 -46
-8 -112 -26 -147 -39 -35 -13 -97 -26 -138 -30 -62 -5 -86 -13 -140 -45 -36
-21 -93 -48 -128 -60 -34 -11 -68 -21 -76 -21 -7 0 -67 -21 -132 -46 -65 -25
-164 -61 -219 -79 -55 -19 -194 -64 -310 -101 -115 -36 -232 -79 -260 -94 -27
-15 -68 -33 -90 -40 -22 -7 -69 -27 -105 -45 -36 -18 -103 -46 -150 -63 -47
-17 -146 -56 -220 -87 -74 -31 -184 -77 -245 -101 -60 -24 -157 -68 -215 -97
-58 -29 -168 -86 -245 -127 -123 -66 -152 -87 -244 -175 -57 -55 -128 -132
-157 -172 -29 -40 -63 -89 -74 -110 -11 -21 -20 -55 -20 -76 0 -21 7 -51 15
-68 9 -16 36 -61 61 -99 25 -38 54 -74 64 -80 15 -8 24 -6 40 10 13 13 20 33
20 58 0 21 7 61 15 89 8 27 28 69 44 93 16 23 50 65 76 91 26 27 87 75 134
107 47 32 113 73 145 91 33 19 87 44 121 56 34 13 79 32 101 43 21 11 91 43
154 72 63 28 135 60 160 70 25 10 155 62 290 116 135 53 274 111 310 129 36
18 82 35 103 39 22 4 96 30 165 57 70 27 181 66 246 85 66 20 145 47 175 60
30 13 80 31 111 39 31 8 86 28 122 44 36 16 98 38 139 49 41 11 133 36 204 56
72 20 162 50 200 66 39 16 151 50 250 74 99 24 220 53 268 65 48 12 100 21
116 21 15 0 50 7 77 15 27 8 99 26 159 39 61 14 147 29 192 36 45 6 119 22
165 35 46 13 117 29 158 34 41 6 127 17 190 25 63 9 194 18 290 22 l176 6 49
-42 c26 -23 59 -46 72 -51 13 -5 48 -9 77 -9 42 0 57 5 74 23 11 12 28 53 36
90 9 38 16 82 16 100 0 17 -12 48 -26 69 -15 21 -45 53 -68 71 -22 19 -57 39
-76 46 -20 8 -96 14 -180 16 -80 2 -179 0 -220 -5z"/>
<path d="M21560 11166 c-25 -7 -97 -38 -161 -69 -64 -31 -177 -96 -250 -146
-74 -49 -195 -140 -269 -203 -74 -62 -153 -131 -175 -154 -22 -22 -99 -103
-172 -180 -73 -76 -195 -209 -271 -295 -76 -87 -197 -235 -269 -330 -72 -96
-204 -285 -294 -421 -90 -135 -183 -277 -207 -315 -24 -37 -81 -138 -128 -223
-47 -85 -98 -182 -113 -215 -15 -33 -62 -119 -103 -190 -42 -72 -102 -188
-133 -260 -32 -71 -73 -161 -93 -200 -19 -38 -61 -131 -93 -207 -32 -76 -70
-177 -85 -225 -14 -49 -40 -131 -56 -183 -16 -52 -43 -150 -59 -218 -16 -68
-29 -144 -29 -170 0 -26 -14 -114 -30 -195 -17 -82 -35 -190 -40 -240 -5 -51
-10 -129 -10 -175 0 -46 7 -122 16 -170 9 -48 22 -105 30 -127 7 -22 31 -69
51 -105 21 -35 66 -93 100 -129 33 -37 85 -80 115 -98 39 -24 79 -36 153 -49
86 -14 111 -15 180 -4 44 7 121 25 170 40 50 16 124 47 165 71 41 23 113 65
160 92 47 28 119 71 160 96 42 25 113 73 159 106 46 33 136 100 200 148 64 49
136 103 161 120 25 18 83 68 129 112 46 44 113 109 148 145 35 36 78 85 95
110 17 25 56 72 87 106 31 33 99 110 152 170 54 60 108 123 122 139 14 17 41
59 62 93 22 38 51 72 74 86 20 13 61 51 90 85 45 52 58 61 87 61 23 0 37 -6
44 -19 5 -11 10 -28 10 -39 0 -10 -12 -41 -26 -68 -15 -27 -38 -78 -51 -114
-14 -36 -41 -87 -62 -115 -21 -27 -47 -68 -59 -90 -11 -22 -51 -103 -87 -180
-37 -77 -78 -176 -92 -220 -22 -73 -24 -90 -18 -195 4 -77 12 -128 24 -155 10
-22 39 -64 66 -93 26 -29 67 -64 91 -78 39 -23 54 -26 144 -25 78 1 115 6 174
26 41 14 81 25 88 25 7 0 59 27 116 60 56 32 123 68 149 80 27 11 84 45 128
74 44 30 110 70 148 90 37 21 102 64 145 97 42 33 100 78 127 99 34 27 60 40
81 40 17 0 38 -8 47 -18 10 -10 17 -32 17 -49 0 -17 -7 -48 -16 -69 -11 -26
-18 -78 -21 -154 -4 -110 -3 -117 24 -170 20 -40 38 -60 64 -72 21 -11 62 -19
100 -20 48 -1 72 3 90 15 13 10 45 50 71 90 34 51 48 82 48 106 0 19 7 64 16
99 13 53 14 74 5 122 -10 48 -9 66 4 101 8 24 15 62 15 84 0 23 -7 68 -15 100
-9 33 -26 77 -38 97 -12 21 -49 61 -82 89 -33 28 -80 60 -104 71 -32 15 -55
18 -83 14 -22 -4 -61 -17 -86 -30 -26 -13 -64 -37 -84 -54 -21 -16 -78 -53
-127 -82 -49 -29 -120 -80 -158 -113 -37 -33 -91 -71 -121 -84 -29 -13 -85
-45 -125 -72 -40 -26 -103 -65 -142 -86 -38 -21 -95 -55 -125 -75 -30 -20 -93
-56 -140 -79 -53 -27 -103 -45 -137 -48 -48 -5 -54 -4 -84 26 -28 29 -31 36
-25 74 4 23 37 98 73 167 37 69 98 186 136 260 39 74 88 171 110 215 22 44 53
112 69 150 16 39 36 104 44 145 7 41 14 116 14 166 0 65 -6 108 -20 149 -11
32 -32 74 -46 93 -15 19 -47 47 -72 63 -30 19 -59 29 -84 29 -21 0 -55 -9 -76
-19 -20 -11 -50 -33 -67 -51 -16 -17 -52 -48 -80 -68 -27 -20 -123 -107 -212
-194 -90 -87 -167 -158 -172 -158 -5 0 -54 -54 -108 -120 -54 -67 -125 -154
-158 -195 -33 -41 -105 -125 -161 -187 -55 -62 -131 -141 -167 -175 -36 -33
-98 -87 -137 -120 -40 -32 -84 -67 -98 -79 -15 -11 -83 -62 -152 -113 -69 -50
-145 -108 -170 -129 -25 -21 -65 -52 -90 -69 -25 -17 -117 -67 -205 -111 -88
-44 -204 -96 -257 -116 -62 -23 -115 -36 -145 -36 -26 0 -65 5 -85 10 -21 6
-52 23 -69 38 -18 14 -47 50 -66 79 -18 29 -40 83 -49 120 -13 53 -15 98 -11
198 4 91 14 160 32 230 14 55 25 122 26 150 0 27 4 70 9 95 4 25 25 110 45
190 20 80 58 217 85 306 27 88 63 197 79 242 17 45 57 144 90 220 33 76 86
192 118 258 33 65 113 225 179 354 66 129 137 262 158 295 20 33 92 153 160
266 68 114 145 235 171 270 26 35 76 105 111 154 35 50 94 135 131 190 37 55
87 123 113 150 25 28 100 112 166 189 65 76 149 173 185 215 37 42 118 126
180 188 63 62 184 179 269 262 139 133 168 156 280 220 69 39 142 76 163 82
33 9 42 7 58 -7 12 -11 19 -30 19 -56 0 -21 -20 -93 -45 -161 -26 -67 -46
-135 -47 -151 -1 -18 6 -34 17 -42 11 -8 26 -14 35 -14 9 0 26 10 37 23 11 12
27 36 36 52 8 17 36 98 62 180 26 83 61 174 76 204 20 37 27 61 23 80 -4 14
-17 42 -29 62 -14 21 -42 46 -67 58 -25 11 -62 21 -84 20 -21 0 -59 -6 -84
-13z"/>
<path d="M27286 11065 c-23 -24 -69 -97 -102 -162 -34 -65 -77 -158 -97 -208
-19 -49 -41 -112 -50 -140 -9 -27 -28 -93 -43 -145 -14 -52 -63 -212 -109
-355 -46 -143 -115 -350 -153 -460 -40 -116 -108 -282 -162 -395 -50 -107
-100 -209 -111 -226 -10 -17 -30 -60 -43 -96 -14 -36 -47 -108 -75 -161 -27
-52 -64 -141 -82 -198 -17 -57 -52 -168 -77 -247 -33 -107 -50 -147 -67 -158
-21 -13 -27 -13 -60 0 -21 9 -53 16 -71 16 -28 0 -48 -12 -110 -67 -41 -38
-138 -126 -216 -198 -79 -73 -169 -167 -205 -215 -56 -73 -77 -93 -167 -150
-57 -36 -132 -87 -167 -115 -34 -27 -103 -80 -152 -117 -61 -46 -99 -68 -118
-68 -15 0 -35 7 -43 16 -10 9 -16 33 -16 58 0 30 13 68 45 132 25 49 65 118
90 154 24 36 55 81 68 100 13 20 57 61 98 92 41 31 106 93 144 138 39 45 103
119 143 164 40 44 96 119 124 165 37 61 52 97 56 132 2 26 2 63 -2 82 -4 19
-24 55 -47 80 -22 25 -55 55 -75 67 -20 13 -64 26 -107 31 -46 6 -97 6 -142
-1 -38 -5 -159 -14 -268 -20 -110 -5 -228 -17 -264 -25 -47 -11 -124 -15 -286
-15 -122 0 -251 -5 -287 -11 -46 -7 -95 -7 -165 0 -55 6 -197 10 -315 9 -118
-1 -280 -2 -360 -2 -134 0 -150 2 -205 26 -33 14 -84 36 -112 49 l-53 23 -27
-21 c-18 -13 -29 -31 -31 -51 -2 -24 5 -40 33 -70 19 -22 67 -59 105 -81 38
-23 105 -51 147 -63 76 -21 94 -21 608 -19 413 1 541 5 580 16 28 7 128 16
230 19 99 3 202 10 228 16 27 5 107 16 179 25 72 8 174 18 228 21 92 7 98 6
118 -16 12 -13 22 -31 22 -39 0 -9 -9 -34 -19 -56 -10 -22 -42 -69 -71 -105
-29 -36 -104 -117 -165 -180 -61 -63 -148 -155 -193 -203 -46 -49 -102 -116
-125 -149 -23 -33 -63 -92 -89 -132 -32 -46 -60 -107 -83 -177 -19 -58 -39
-137 -45 -175 -6 -38 -8 -84 -5 -103 4 -18 17 -57 29 -85 14 -30 45 -72 78
-103 37 -35 67 -54 92 -58 20 -4 56 -4 80 -1 24 4 63 19 87 35 24 15 89 51
144 80 56 29 130 78 168 112 38 33 101 84 140 114 40 30 113 91 162 135 50 44
115 99 145 121 30 23 95 80 143 128 49 47 117 127 152 176 35 50 71 111 81
135 9 25 24 53 33 63 9 11 25 17 40 15 l26 -3 0 -175 c0 -139 3 -182 16 -210
9 -20 31 -50 48 -68 18 -17 49 -37 71 -43 21 -6 49 -9 62 -6 13 4 39 17 58 29
23 16 48 51 79 112 43 84 56 99 191 223 80 74 179 160 220 193 41 32 94 75
116 95 23 19 79 61 125 91 46 31 116 86 154 123 39 38 84 78 102 89 17 12 45
22 62 22 21 0 34 -7 41 -21 7 -11 9 -32 6 -45 -4 -14 -22 -46 -40 -72 -19 -26
-37 -58 -41 -72 -4 -14 -23 -61 -42 -105 -19 -44 -53 -129 -74 -188 -33 -93
-39 -121 -39 -190 0 -45 4 -118 9 -162 6 -51 22 -109 43 -160 28 -67 42 -86
83 -117 28 -21 72 -49 99 -63 33 -16 67 -25 98 -25 27 0 81 9 121 20 39 11 91
25 115 31 23 5 65 29 95 52 28 24 71 54 95 67 23 13 49 34 57 47 9 13 40 39
69 59 29 19 84 72 122 117 39 47 78 106 90 137 12 30 25 83 28 117 5 47 3 70
-9 92 -8 17 -24 35 -34 41 -11 5 -29 10 -39 10 -11 0 -60 -30 -109 -66 -48
-36 -135 -115 -192 -175 -57 -61 -131 -129 -164 -152 -33 -23 -68 -48 -77 -55
-10 -7 -42 -20 -72 -28 -29 -8 -66 -11 -81 -8 -17 4 -36 18 -48 37 -10 18 -19
50 -19 72 1 22 7 75 15 118 8 50 29 109 55 162 23 46 50 119 61 161 14 58 30
91 62 132 23 30 51 66 62 80 10 14 42 69 70 121 29 53 82 152 120 221 37 69
87 159 111 201 23 42 47 94 53 115 7 25 7 52 2 71 -5 17 -17 43 -26 57 -10 15
-35 36 -56 47 -21 10 -56 19 -77 19 -26 0 -52 -9 -77 -26 -21 -14 -66 -50
-100 -80 -34 -31 -98 -79 -141 -109 -44 -30 -106 -71 -139 -91 -33 -20 -80
-54 -105 -74 -25 -21 -79 -54 -120 -75 -40 -20 -108 -68 -151 -105 -42 -37
-103 -85 -135 -105 -33 -21 -84 -61 -115 -89 -30 -28 -84 -73 -120 -101 -35
-27 -100 -86 -144 -131 -44 -45 -88 -84 -98 -87 -9 -4 -28 -2 -42 3 -14 5 -30
21 -37 34 -9 21 -7 37 12 88 13 35 41 101 62 148 22 47 54 123 73 170 18 47
44 108 58 135 14 28 34 77 45 110 11 33 40 103 65 155 25 52 81 172 125 265
43 94 93 208 110 255 17 47 51 157 76 245 25 88 59 203 75 255 17 52 44 142
61 199 17 57 53 189 80 295 26 105 58 219 69 253 12 34 21 80 21 102 0 22 -5
62 -11 90 -9 43 -7 58 15 123 14 41 26 77 26 81 0 3 -7 13 -16 21 -8 9 -20 16
-26 16 -6 0 -30 -20 -52 -45z"/>
<path d="M1152 9443 c-7 -3 -21 -21 -31 -41 -10 -21 -39 -111 -65 -202 -25
-91 -55 -210 -66 -265 -12 -55 -25 -138 -31 -185 -5 -47 -16 -123 -25 -170 -8
-47 -24 -127 -35 -178 -10 -51 -19 -125 -19 -165 -1 -40 -7 -101 -15 -137 -8
-36 -19 -139 -25 -230 -7 -91 -24 -304 -40 -475 -16 -170 -34 -366 -40 -435
-7 -69 -16 -172 -20 -230 -5 -58 -12 -123 -15 -145 -3 -22 -12 -109 -20 -194
-8 -84 -17 -156 -19 -160 -2 -3 -15 -62 -29 -131 -14 -69 -31 -159 -37 -200
-6 -41 -17 -127 -26 -190 -9 -63 -22 -144 -30 -180 -8 -36 -21 -105 -30 -155
-8 -49 -19 -126 -25 -169 -5 -44 -17 -107 -24 -140 -8 -34 -15 -94 -15 -135 0
-40 -7 -115 -14 -165 -8 -50 -22 -143 -31 -206 -9 -63 -23 -150 -31 -194 -8
-43 -14 -122 -14 -175 0 -53 -7 -139 -15 -192 -7 -52 -17 -149 -20 -215 -3
-65 -13 -180 -22 -254 -9 -76 -13 -167 -10 -210 3 -41 11 -108 17 -148 6 -40
20 -93 30 -117 11 -25 41 -65 67 -91 26 -25 62 -52 79 -59 21 -10 41 -12 61
-6 16 5 42 15 59 24 16 8 39 26 50 39 12 12 38 56 59 97 20 40 45 103 57 139
15 50 19 80 14 120 -4 30 -12 64 -18 76 -6 11 -18 26 -27 33 -9 7 -37 13 -62
13 -29 0 -55 7 -68 17 -13 11 -22 30 -22 48 0 17 4 116 9 220 6 105 15 206 21
225 7 19 16 100 21 180 5 80 19 201 30 270 10 69 20 144 20 166 0 23 7 60 15
83 8 23 19 85 25 139 6 53 17 153 25 222 7 69 18 159 25 200 7 41 25 130 41
196 16 67 29 141 29 165 0 23 7 86 16 138 8 53 24 137 35 186 10 50 28 142 38
205 11 63 23 176 26 250 4 74 13 159 21 189 9 29 25 63 38 75 12 13 55 33 96
45 41 12 145 55 230 96 85 40 192 87 237 105 46 17 104 46 130 65 27 18 100
61 163 96 63 34 161 85 216 113 56 28 121 60 145 71 24 12 67 33 94 47 28 15
142 73 255 129 113 56 243 122 290 147 47 24 117 60 155 78 39 19 84 41 100
50 17 9 77 43 135 75 58 32 139 72 180 90 41 17 134 66 205 109 72 43 153 88
180 101 28 12 93 42 145 67 52 25 140 65 195 90 55 24 132 57 170 72 39 15
105 42 148 59 64 25 92 31 157 31 71 0 82 3 126 33 26 17 56 44 67 59 11 14
22 49 25 77 3 38 -1 60 -18 96 -14 28 -38 56 -61 72 -32 21 -54 26 -127 31
-81 4 -92 2 -141 -23 -30 -15 -87 -38 -128 -51 -41 -13 -102 -44 -137 -67 -35
-24 -78 -49 -97 -57 -19 -7 -79 -32 -134 -56 -55 -23 -134 -58 -175 -78 -41
-19 -111 -55 -155 -78 -44 -24 -107 -62 -140 -84 -33 -22 -107 -66 -165 -96
-58 -31 -116 -59 -130 -63 -14 -4 -83 -37 -155 -72 -71 -36 -170 -83 -220
-105 -49 -22 -101 -45 -115 -52 -14 -7 -97 -53 -185 -101 -88 -49 -249 -133
-358 -187 -109 -54 -235 -120 -280 -145 -45 -25 -131 -73 -192 -106 -60 -33
-177 -95 -260 -137 -82 -43 -204 -105 -270 -139 -66 -33 -130 -61 -142 -61
-13 0 -32 9 -44 21 -16 16 -20 29 -15 57 3 21 10 93 16 162 6 69 16 141 22
160 5 19 14 100 19 180 4 80 13 210 18 290 5 80 15 170 20 200 6 30 17 127 25
215 9 88 27 237 40 330 14 94 26 187 26 207 0 21 14 119 30 220 17 100 30 199
30 221 0 21 -10 71 -22 110 -11 39 -32 81 -44 94 -13 13 -31 23 -41 22 -10 0
-24 -3 -31 -6z"/>
<path d="M13900 8123 c-8 -3 -34 -14 -56 -24 -27 -13 -46 -30 -54 -49 -7 -16
-10 -40 -6 -52 3 -13 19 -40 36 -60 25 -30 45 -42 101 -58 61 -18 77 -29 132
-85 34 -35 79 -71 99 -80 21 -8 58 -15 83 -15 32 0 51 6 65 20 13 13 20 33 20
61 0 23 -8 57 -17 76 -9 20 -55 75 -102 124 -47 48 -108 101 -135 118 -40 25
-61 31 -100 30 -28 0 -58 -3 -66 -6z"/>
<path d="M12239 7217 c-30 -13 -104 -59 -163 -103 -59 -43 -136 -101 -170
-129 -35 -27 -103 -84 -152 -125 -49 -42 -136 -125 -194 -185 -58 -61 -148
-157 -200 -214 -52 -57 -121 -139 -152 -182 -31 -44 -113 -192 -182 -329 -69
-137 -136 -280 -149 -317 -14 -38 -35 -120 -47 -182 -18 -88 -21 -134 -17
-197 4 -55 14 -102 31 -143 14 -33 26 -78 26 -100 0 -34 -5 -44 -32 -64 -18
-13 -53 -32 -78 -42 -25 -10 -63 -29 -85 -41 -22 -12 -60 -28 -84 -34 -24 -6
-61 -8 -82 -5 -22 4 -54 19 -70 33 -17 14 -56 64 -86 111 -31 47 -78 135 -105
196 -27 60 -67 148 -88 195 -21 47 -42 96 -45 110 -4 14 -19 47 -33 73 -15 28
-52 71 -87 99 -33 28 -80 60 -105 71 -31 15 -73 22 -135 25 -88 3 -92 3 -171
-36 -47 -23 -111 -66 -154 -103 -39 -35 -95 -81 -123 -101 -30 -23 -61 -38
-79 -38 -20 0 -32 7 -39 24 -9 19 -5 41 22 117 32 89 34 101 34 234 0 127 -2
143 -22 175 -12 20 -39 45 -60 57 -21 12 -54 24 -74 28 -20 4 -55 1 -78 -5
-25 -6 -61 -28 -86 -51 -24 -23 -77 -79 -117 -127 -40 -47 -105 -120 -143
-162 -39 -41 -86 -95 -105 -120 -19 -25 -61 -76 -94 -115 -33 -38 -123 -139
-199 -222 -77 -84 -143 -153 -146 -153 -3 0 -49 -40 -102 -89 -60 -56 -133
-112 -199 -151 -58 -35 -135 -88 -172 -119 -36 -31 -93 -71 -125 -90 -32 -18
-98 -48 -148 -66 -49 -18 -112 -36 -138 -39 -28 -4 -62 -3 -82 4 -18 6 -49 29
-69 50 -19 21 -40 57 -47 78 -8 30 -9 72 -1 166 8 109 13 132 35 165 15 22 43
56 65 78 21 21 56 54 78 74 21 19 62 62 91 95 28 33 88 114 134 180 45 65 106
148 134 184 29 36 59 79 68 95 8 17 18 47 22 66 4 20 2 55 -5 78 -6 23 -27 59
-46 81 -19 21 -51 46 -72 55 -20 9 -77 37 -127 60 -49 24 -111 47 -138 51 -26
3 -72 3 -103 -1 -46 -5 -64 -14 -96 -43 -21 -21 -42 -51 -47 -69 -7 -25 -5
-41 11 -72 11 -23 45 -62 74 -87 42 -36 54 -53 54 -75 0 -21 -10 -36 -40 -61
-23 -17 -51 -48 -62 -68 -12 -19 -43 -59 -69 -89 -27 -30 -65 -86 -85 -125
-21 -39 -67 -118 -102 -176 -36 -58 -76 -122 -90 -142 -13 -20 -76 -79 -139
-130 -64 -51 -141 -113 -173 -138 -32 -25 -98 -76 -146 -114 -49 -39 -119 -87
-156 -107 -37 -21 -111 -68 -164 -104 -53 -37 -134 -83 -182 -102 -47 -19
-120 -52 -161 -72 -42 -21 -94 -44 -116 -51 -22 -7 -76 -28 -120 -47 -44 -19
-113 -44 -154 -54 -41 -10 -91 -19 -110 -19 -20 0 -57 10 -81 23 -25 12 -55
37 -67 56 -17 25 -23 48 -23 92 0 50 7 72 54 166 30 59 77 134 103 165 26 31
80 94 119 140 40 46 123 133 186 193 63 61 135 129 159 151 24 23 85 84 134
135 50 52 137 136 195 188 58 51 113 98 122 104 9 6 72 74 140 151 68 77 157
176 199 220 41 45 100 115 131 157 31 42 64 91 73 110 10 19 20 63 23 99 4 60
2 68 -23 98 -15 18 -45 42 -66 53 -21 10 -61 20 -88 20 -35 1 -62 -6 -97 -25
-27 -14 -119 -58 -204 -97 -85 -39 -191 -87 -235 -105 -44 -19 -102 -48 -130
-66 -27 -17 -99 -58 -160 -91 -60 -33 -157 -84 -214 -114 -57 -29 -110 -58
-116 -63 -7 -6 -64 -37 -126 -69 -63 -31 -175 -97 -249 -146 -74 -49 -169
-114 -210 -145 -41 -31 -133 -99 -205 -151 -71 -52 -154 -112 -182 -133 -29
-20 -139 -126 -244 -234 -105 -108 -205 -217 -222 -242 -17 -25 -48 -64 -69
-87 -21 -23 -55 -68 -75 -100 -20 -32 -74 -108 -120 -170 -47 -64 -96 -119
-113 -128 -23 -12 -35 -13 -50 -5 -11 6 -22 21 -26 33 -3 14 7 54 27 103 17
43 45 117 61 164 16 47 37 117 48 155 10 39 26 90 34 114 11 30 16 79 16 155
0 61 -5 161 -10 221 -6 61 -17 142 -26 182 -11 54 -22 79 -45 101 -17 16 -48
37 -69 47 -27 12 -50 15 -75 11 -25 -5 -42 -16 -56 -39 -18 -27 -20 -43 -15
-112 3 -44 10 -123 16 -175 6 -52 8 -133 5 -180 -4 -47 -18 -125 -31 -175 -14
-49 -31 -115 -39 -145 -9 -30 -20 -77 -25 -104 -6 -27 -30 -101 -54 -165 -25
-64 -69 -168 -99 -231 -30 -63 -62 -142 -71 -175 -9 -33 -36 -116 -60 -185
-24 -69 -54 -157 -66 -197 -16 -51 -21 -87 -18 -126 3 -37 14 -69 34 -101 16
-25 47 -59 69 -74 29 -19 53 -27 86 -27 35 0 54 7 83 28 20 16 57 59 81 96 24
37 72 99 106 137 33 38 100 121 147 184 48 63 128 157 178 210 51 52 112 120
136 150 23 30 81 104 128 166 47 61 131 172 187 245 70 93 144 174 240 265 76
71 165 150 198 174 33 24 86 67 118 96 31 30 79 68 105 85 26 18 70 53 97 79
28 26 95 74 150 105 55 32 121 73 146 91 25 19 75 47 110 63 35 17 89 48 119
70 30 21 102 65 160 96 58 32 146 82 195 111 50 30 100 54 112 54 12 0 29 -7
38 -16 11 -11 14 -25 10 -42 -3 -14 -26 -50 -50 -81 -24 -31 -68 -74 -97 -95
-29 -22 -102 -93 -163 -157 -60 -65 -133 -137 -161 -161 -28 -24 -90 -90 -138
-146 -48 -56 -91 -102 -96 -102 -4 0 -25 -24 -46 -52 -20 -29 -61 -78 -89
-108 -28 -30 -81 -93 -117 -140 -36 -47 -85 -117 -110 -155 -25 -39 -50 -86
-56 -105 -5 -19 -16 -66 -22 -103 -7 -39 -10 -93 -6 -127 4 -33 12 -74 18 -92
6 -18 26 -55 43 -83 18 -27 52 -73 77 -100 26 -28 69 -63 96 -78 28 -15 88
-37 134 -48 62 -16 101 -20 154 -16 51 4 125 23 255 66 100 34 242 89 313 123
72 34 165 85 206 113 41 29 104 67 140 85 36 18 108 63 160 100 52 37 111 75
130 85 19 10 76 53 125 95 50 42 100 82 112 88 12 7 35 12 51 12 17 0 37 -9
49 -22 12 -13 33 -54 48 -93 16 -38 45 -95 66 -125 21 -30 60 -69 86 -87 27
-18 71 -42 98 -55 36 -16 76 -23 143 -26 79 -4 112 0 230 29 106 25 147 40
182 65 25 18 72 44 105 59 33 14 85 45 115 69 30 24 65 48 77 55 13 6 67 46
120 89 54 43 120 93 146 111 26 18 142 126 256 241 115 114 218 211 229 214
12 4 30 2 42 -4 11 -6 22 -21 26 -34 3 -15 -4 -44 -20 -77 -13 -30 -31 -90
-40 -134 -8 -44 -27 -107 -42 -140 -15 -33 -30 -82 -32 -110 -3 -43 0 -56 26
-91 17 -23 47 -54 66 -69 20 -15 56 -31 80 -36 28 -5 66 -3 108 6 36 7 88 25
115 38 27 14 63 40 81 58 21 22 35 50 44 87 7 33 33 88 63 137 29 45 78 115
110 156 32 41 99 114 149 163 50 49 131 120 180 158 48 37 100 71 114 75 15 3
36 0 51 -8 14 -8 36 -32 48 -54 12 -21 24 -54 28 -72 3 -19 15 -53 25 -76 11
-23 37 -70 58 -104 23 -37 46 -91 57 -135 9 -40 27 -92 39 -115 11 -23 53 -82
91 -130 39 -48 87 -104 108 -125 21 -21 51 -45 68 -53 16 -9 74 -27 129 -40
l99 -25 98 20 c54 11 118 30 143 42 25 12 77 54 116 93 65 63 73 76 84 128 9
45 17 61 35 69 19 8 30 7 53 -8 17 -11 50 -31 73 -46 24 -15 71 -34 104 -42
32 -9 85 -16 118 -16 32 0 86 6 120 14 34 8 86 19 114 25 29 6 108 31 175 56
67 25 128 51 134 56 7 6 66 37 131 70 65 33 134 69 153 81 19 11 100 60 180
107 80 47 172 108 205 134 33 27 71 53 84 58 17 7 34 6 53 -2 17 -7 46 -37 70
-73 23 -34 64 -86 92 -116 28 -30 71 -70 96 -88 25 -19 68 -45 95 -60 49 -25
55 -26 220 -25 121 1 186 6 225 18 30 8 100 27 155 40 55 14 123 33 150 41 28
9 97 38 155 64 58 26 152 69 210 95 57 26 138 61 180 77 41 16 134 57 205 92
72 35 149 69 171 76 32 9 46 10 63 0 12 -6 26 -21 30 -33 5 -14 3 -41 -6 -70
-8 -27 -11 -62 -8 -78 4 -15 21 -41 38 -55 18 -15 47 -33 66 -41 22 -10 49
-13 76 -9 29 5 60 22 103 57 37 30 82 79 110 122 47 71 47 73 46 152 -1 49 -7
95 -17 118 -9 20 -40 62 -69 93 -29 31 -73 66 -98 79 -33 16 -71 24 -142 29
l-96 6 -142 -56 c-79 -30 -179 -75 -224 -99 -44 -24 -122 -59 -172 -78 -49
-19 -143 -60 -208 -91 -64 -31 -179 -79 -254 -107 -75 -28 -173 -59 -217 -69
-44 -10 -107 -25 -140 -34 -33 -8 -98 -19 -145 -23 -47 -5 -108 -5 -136 -2
-30 4 -65 16 -83 30 -17 12 -40 41 -51 64 -11 23 -20 51 -20 63 0 12 24 68 54
125 29 56 79 140 110 187 31 47 101 144 156 215 55 72 105 145 111 164 6 18 8
51 5 75 -4 22 -14 51 -22 63 -8 13 -37 34 -64 48 -29 15 -66 25 -91 25 -24 0
-55 -8 -73 -20 -18 -10 -68 -59 -111 -107 -44 -48 -102 -111 -130 -139 -27
-28 -75 -81 -105 -119 -30 -38 -81 -100 -114 -138 -32 -38 -111 -110 -175
-161 -64 -51 -143 -110 -176 -131 -33 -21 -130 -85 -215 -142 -86 -57 -185
-116 -220 -131 -36 -15 -99 -46 -141 -70 -42 -23 -134 -62 -205 -86 -111 -38
-142 -44 -219 -46 -50 -1 -103 -2 -119 -1 -20 1 -42 14 -71 44 -26 26 -50 64
-64 100 -16 44 -21 80 -21 150 1 76 6 106 29 172 16 44 43 116 59 160 17 44
57 136 90 205 33 69 84 164 114 212 29 47 87 126 128 175 41 48 125 139 186
202 l112 113 52 -7 51 -7 197 200 c173 175 205 204 264 231 37 17 76 43 87 58
13 15 21 40 21 62 0 20 -9 50 -20 68 -11 18 -41 43 -69 58 -28 14 -65 25 -83
25 -18 0 -58 -11 -89 -23z"/>
<path d="M29650 6186 c-25 -7 -83 -24 -130 -38 -47 -14 -137 -40 -200 -57 -63
-17 -126 -31 -140 -31 -13 0 -61 -7 -105 -16 -44 -9 -134 -29 -200 -45 -66
-17 -165 -34 -219 -39 -55 -6 -108 -12 -117 -15 -10 -3 -68 -12 -131 -20 -62
-7 -147 -20 -188 -28 -41 -8 -124 -22 -185 -31 -60 -8 -148 -20 -195 -26 -47
-7 -103 -18 -125 -26 -22 -7 -80 -18 -130 -23 -49 -6 -123 -15 -162 -20 -40
-6 -99 -17 -130 -25 -32 -8 -88 -17 -126 -20 -37 -4 -95 -15 -130 -26 -34 -11
-111 -25 -172 -31 -60 -6 -142 -22 -182 -35 -39 -13 -127 -31 -195 -39 -68 -8
-141 -19 -163 -25 -22 -5 -78 -12 -125 -16 -49 -4 -104 -15 -130 -26 -25 -11
-79 -23 -120 -28 -41 -5 -146 -22 -234 -39 -87 -17 -173 -31 -191 -31 -18 0
-61 -9 -96 -19 -35 -11 -84 -22 -109 -26 -25 -3 -79 -13 -120 -21 -41 -9 -115
-25 -165 -36 -49 -11 -153 -28 -230 -39 -77 -11 -178 -31 -225 -44 -47 -13
-155 -40 -241 -59 -86 -20 -176 -36 -200 -36 -24 0 -89 -14 -143 -30 -55 -17
-120 -30 -145 -30 -25 0 -84 -14 -131 -30 -47 -17 -116 -35 -155 -41 -38 -6
-110 -14 -160 -19 -49 -5 -104 -13 -121 -18 -17 -5 -80 -15 -140 -22 -67 -8
-131 -22 -167 -37 -31 -13 -79 -26 -105 -29 -26 -3 -76 -15 -111 -25 -35 -10
-78 -19 -97 -19 -18 0 -56 -9 -84 -20 -28 -11 -92 -27 -141 -35 -50 -8 -132
-25 -182 -39 -51 -13 -123 -27 -160 -31 -38 -4 -83 -13 -100 -20 -18 -7 -61
-18 -97 -25 -36 -6 -85 -19 -110 -30 -25 -10 -101 -28 -170 -39 -69 -11 -147
-28 -174 -36 -27 -8 -63 -15 -80 -15 -18 0 -54 -6 -81 -14 -28 -7 -111 -30
-185 -51 -74 -20 -182 -50 -240 -66 -58 -16 -166 -42 -240 -58 -74 -16 -169
-38 -210 -50 -41 -11 -100 -28 -130 -36 -30 -8 -72 -15 -92 -15 -21 0 -66 -11
-98 -25 -33 -14 -106 -37 -163 -50 -56 -14 -120 -25 -143 -25 -22 0 -63 -7
-90 -15 -27 -8 -113 -24 -192 -35 -79 -11 -160 -27 -180 -36 -20 -9 -107 -34
-192 -56 -85 -22 -207 -52 -271 -68 -63 -16 -139 -38 -169 -50 -29 -12 -83
-24 -119 -27 -36 -3 -118 -18 -181 -33 -63 -16 -137 -31 -165 -35 -27 -3 -79
-19 -115 -35 -36 -16 -105 -36 -155 -45 -49 -9 -139 -25 -200 -35 -60 -11
-139 -29 -173 -40 -35 -11 -76 -20 -92 -20 -15 0 -47 -9 -71 -19 -24 -11 -105
-34 -179 -51 -74 -18 -175 -43 -224 -56 -48 -13 -119 -29 -156 -34 -38 -5 -90
-18 -117 -29 -26 -10 -79 -24 -118 -30 -38 -6 -106 -20 -150 -32 -44 -11 -107
-27 -140 -34 -33 -8 -100 -25 -150 -40 -49 -14 -117 -32 -150 -41 -33 -9 -100
-29 -150 -45 -49 -16 -142 -41 -206 -54 -63 -14 -153 -36 -199 -50 -46 -14
-95 -25 -109 -25 -14 0 -102 -23 -196 -51 -93 -27 -200 -57 -237 -64 -37 -8
-84 -21 -104 -30 -20 -8 -62 -18 -93 -21 -31 -3 -99 -17 -151 -30 -52 -14
-153 -43 -225 -64 -71 -22 -191 -53 -265 -70 -74 -17 -175 -41 -225 -52 -49
-12 -151 -38 -225 -59 -74 -21 -166 -45 -205 -53 -38 -9 -108 -27 -155 -40
-47 -13 -139 -40 -205 -59 -66 -19 -181 -49 -255 -67 -74 -18 -190 -50 -256
-71 -67 -21 -146 -41 -175 -45 -30 -4 -72 -13 -94 -21 -22 -8 -76 -25 -120
-38 -44 -13 -137 -35 -207 -50 -69 -14 -159 -37 -199 -50 -40 -14 -95 -25
-122 -25 -32 0 -71 -10 -117 -30 -37 -16 -97 -34 -133 -39 -36 -5 -137 -32
-225 -60 -88 -28 -215 -62 -284 -76 -68 -13 -156 -38 -195 -54 -38 -17 -119
-40 -179 -51 -60 -12 -147 -30 -194 -41 -47 -11 -112 -28 -145 -39 -33 -10
-80 -22 -105 -25 -25 -4 -81 -23 -124 -42 -44 -19 -118 -43 -165 -54 -48 -11
-108 -28 -136 -38 -27 -10 -72 -22 -100 -26 -27 -4 -111 -22 -185 -41 -74 -18
-159 -43 -188 -54 -29 -11 -69 -20 -90 -20 -20 -1 -62 -10 -92 -21 -30 -11
-80 -26 -110 -33 -30 -7 -93 -25 -140 -39 -47 -15 -110 -31 -140 -38 -30 -6
-109 -27 -175 -46 -66 -19 -152 -41 -190 -48 -39 -8 -82 -18 -96 -23 -13 -6
-74 -20 -134 -32 -61 -12 -126 -28 -145 -35 -19 -7 -89 -29 -155 -49 -66 -20
-172 -45 -235 -56 -63 -11 -142 -26 -176 -33 -34 -8 -95 -28 -136 -45 -46 -19
-101 -34 -144 -37 -38 -4 -96 -15 -129 -25 -33 -10 -84 -24 -114 -30 -29 -7
-92 -25 -140 -40 -48 -16 -123 -33 -165 -40 -43 -6 -97 -18 -120 -27 -22 -8
-138 -36 -256 -64 -118 -27 -303 -69 -410 -94 -107 -25 -229 -56 -270 -69 -41
-13 -95 -27 -120 -30 -25 -4 -137 -27 -250 -52 -113 -26 -250 -61 -305 -79
-55 -18 -129 -50 -165 -71 l-64 -39 49 -8 c28 -4 113 -5 190 -2 77 3 165 12
195 20 30 8 102 19 160 25 58 6 137 17 175 24 39 8 103 17 143 20 41 4 153 24
250 46 97 21 247 53 332 69 85 16 196 43 245 59 50 17 127 40 172 51 45 12
112 21 148 21 45 0 85 8 132 26 38 14 97 28 133 31 36 3 127 23 203 44 77 22
173 48 215 59 43 11 130 35 194 54 65 19 164 42 221 50 63 9 140 29 196 51 51
20 146 50 210 66 64 16 136 36 161 44 25 8 104 26 175 39 72 14 159 30 195 36
36 6 108 24 160 40 52 16 122 33 156 39 33 5 123 28 200 50 76 23 182 55 234
71 52 16 121 34 153 40 33 7 74 18 93 26 19 8 64 21 102 29 37 8 99 25 138 38
39 14 91 28 115 32 24 3 64 12 89 20 25 7 65 16 90 19 25 3 70 16 100 30 30
13 107 36 170 50 63 14 140 34 170 45 30 10 116 31 190 46 74 15 167 39 205
52 39 14 95 31 125 38 30 8 105 23 167 34 64 12 149 36 198 56 47 20 134 47
193 60 59 13 126 31 150 39 23 8 70 20 105 26 34 6 123 27 197 45 74 19 159
43 187 55 29 11 79 23 110 26 32 4 117 21 188 39 72 18 155 43 185 54 30 12
95 28 144 37 49 8 135 31 192 50 72 24 121 34 164 34 45 0 76 7 125 29 35 16
79 32 97 36 18 4 92 24 163 45 72 21 173 48 225 61 52 12 126 25 165 29 48 5
96 18 150 43 44 19 105 38 135 42 30 3 78 12 105 20 28 7 68 16 90 20 22 4 76
17 120 30 44 13 125 37 181 53 55 17 127 33 160 37 32 4 82 16 109 27 28 10
149 39 270 63 121 24 252 56 290 70 39 15 108 38 155 51 47 12 110 30 140 38
30 9 80 16 110 16 30 0 107 13 170 30 63 16 153 39 200 51 47 12 150 42 230
66 80 24 193 59 251 78 59 19 125 35 147 35 23 0 76 11 119 24 43 13 114 34
158 46 44 12 139 28 210 36 99 10 166 24 280 59 83 26 177 55 210 66 33 11 92
28 130 39 39 10 104 23 146 29 42 6 88 15 103 21 15 5 60 13 99 16 49 5 97 18
148 40 42 19 108 40 145 48 38 8 98 18 134 21 36 4 106 13 155 22 50 8 115 23
145 33 30 10 73 23 96 29 22 6 81 15 131 20 61 6 124 22 199 49 60 22 150 49
199 61 50 12 140 42 200 66 79 32 134 47 195 54 47 5 108 15 135 21 28 6 90
24 138 40 48 17 128 34 176 40 49 5 105 17 125 25 20 8 73 19 119 24 45 5 136
21 202 36 66 15 150 33 187 40 37 8 75 18 85 23 10 6 45 15 78 22 33 6 128 34
210 61 83 26 195 55 250 64 55 9 136 24 180 35 44 10 100 26 125 35 24 9 78
18 120 21 41 3 116 14 165 24 50 10 115 21 145 25 30 4 96 23 145 43 81 33
102 37 220 43 96 5 151 13 211 32 45 14 128 33 185 42 56 9 105 18 108 19 3 2
96 22 207 45 110 22 230 52 266 65 35 14 94 28 129 31 35 4 89 13 120 21 31 8
79 14 106 14 28 0 83 8 124 19 41 10 94 22 119 26 25 3 95 17 155 31 61 13
126 28 145 34 19 5 51 10 70 10 19 0 64 7 100 15 36 8 119 26 185 40 66 14
203 41 305 60 102 19 226 46 275 60 50 14 135 30 190 35 55 6 134 15 175 20
41 5 127 23 190 40 68 18 139 30 176 30 34 0 81 7 105 15 24 9 77 18 119 21
41 3 113 14 160 24 47 10 127 28 179 40 52 12 119 24 150 27 31 3 79 11 106
18 28 7 91 16 141 19 49 4 149 15 220 26 72 11 142 23 155 29 14 5 60 14 103
21 43 6 97 18 120 26 22 9 131 24 241 34 110 11 240 29 289 40 50 11 117 20
150 20 34 0 102 11 151 24 61 16 132 26 220 30 85 4 153 14 198 27 37 11 100
26 140 34 43 9 103 31 150 55 42 23 93 57 112 77 19 20 37 50 41 68 4 24 -1
46 -20 83 -14 28 -36 58 -48 66 -12 9 -41 16 -63 15 -22 0 -60 -6 -85 -13z"/>
</g>
</svg>
