<?xml version="1.0" encoding="UTF-8"?>
<svg version="1.1" xmlns="http://www.w3.org/2000/svg" width="314" height="107" >
<path fill="#231F20" d="M45.281,46.685c4.878-4.754,9.856-9.407,14.893-13.993c3.77-3.432,7.6-6.797,11.529-10.044 c4.175-3.45,9.045-6.345,12.426-10.656c1.136-1.448,4.216-5.24,2.562-7.34c-1.407-1.787-4.02-1.421-5.975-0.917 c-6.701,1.73-11.79,8.781-15.276,14.239c-6.647,10.409-9.006,22.494-12.134,34.246c-3.13,11.758-6.721,23.811-13.343,34.13 c-3.092,4.819-7.063,8.571-12.325,10.859c-3.61,1.57-14.463,5.353-13.891-2.118c0.45-5.868,6.268-11.078,10.349-14.903 c22.835-21.405,48.266-39.898,71.092-61.333c1.534-1.441,15.904-13.709,12.351-16.652c-6.161-5.104-16.916,16.271-18.511,19.132 c-5.343,9.588-9.923,19.617-14.103,29.759c-3.581,8.689-7.191,17.735-8.894,27.019c-0.147,0.808,1.646,0.422,1.873-0.072 c2.363-5.143,0.663-11.345-2.551-15.674c-4.26-5.738-11.405-9.179-17.969-11.465c-13.92-4.85-28.884-6.272-43.518-6.979 c-0.163,0.383-0.326,0.766-0.49,1.148c22.1-0.896,44.209-2.134,66.246-4.021c10.77-0.922,22.378-1.322,32.788-4.506 c2.939-0.899,2.868-2.194,4.862-4.139c-0.5,0.487-1.267,4.251-1.872,5.431c-2.548,4.962-6.242,9.38-9.806,13.626 c-0.581,0.693,1.313,0.597,1.686,0.224c4.025-4.022,8.123-7.974,12.298-11.84c2.576-2.387,5.179-4.793,7.995-6.897 c0.43-0.321,0.875-0.616,1.335-0.893c0.541-0.325-0.311-0.2-0.49,0.332c-0.553,1.635-1.854,3.181-2.823,4.574 c-0.529,0.763,1.427,0.627,1.809,0.078c0.355-0.513,4.553-5.733,2.505-6.215c-2.148-0.507-4.993,2.581-6.39,3.75 c-6.233,5.223-12.052,10.996-17.801,16.741c0.562,0.074,1.124,0.149,1.686,0.224c3.601-4.291,7.105-8.7,9.806-13.626 c0.821-1.5,2.101-3.775,1.843-5.575c-0.392-2.727-3.625-0.154-4.347,0.929c-1.91,2.865-5.323,3.021-8.669,3.611 c-6.467,1.141-13.026,1.796-19.559,2.431c-24.209,2.351-48.556,3.637-72.855,4.622c-0.726,0.029-1.686,1.091-0.49,1.148 c13.881,0.671,27.934,2.034,41.229,6.289c6.971,2.23,14.18,5.613,18.905,11.392c3.286,4.018,4.997,10.481,2.828,15.201 c0.624-0.023,1.248-0.048,1.873-0.072c3.034-16.557,10.883-32.85,18.313-47.8C89.897,22.816,93.794,15.568,98.596,9 c1.528-2.091,3.246-4.263,5.435-5.701c1.373-0.902,2.372-0.24,1.899,1.227c-1.208,3.743-5.316,7.1-7.982,9.777 c-4.971,4.992-10.253,9.678-15.543,14.326C69.498,39.97,56.221,50.885,43.08,61.952c-8.752,7.371-18.804,14.595-26.087,23.514 c-2.257,2.764-9.279,12.834-2.276,14.854c6.845,1.977,15.771-2.33,20.889-6.623c7.654-6.419,11.666-16.884,14.902-26.025 c4.23-11.946,6.278-24.527,10.443-36.47c3.297-9.455,9.438-21.634,19.076-26.074c2.434-1.121,5.629-0.83,4.882,2.474 c-0.659,2.913-3.479,5.392-5.527,7.339c-3.988,3.794-8.805,6.913-13.002,10.501c-7.802,6.669-15.312,13.711-22.661,20.874 C42.895,47.119,44.796,47.157,45.281,46.685L45.281,46.685 M93.236,51.485c4.607,1.726,10.216,1.237,14.953,0.585c15.495-2.134,29.846-10.405,42.418-19.252 c1.029-0.725-0.38-0.972-0.998-0.751c-4.419,1.58-8.678,3.672-12.691,6.093c-3.18,1.918-9.859,6.225-9.398,10.687 c0.277,2.696,6.688-0.799,7.4-1.188c6.07-3.311,11.895-8.367,15.734-14.12c0.521-0.781-1.338-0.626-1.686-0.224 c-2.87,3.326-5.639,7.135-6.968,11.359c-2.354,7.482,7.355,6.245,11.638,5.345c1.191-0.25,0.891-1.284-0.277-1.039 c-2.647,0.557-8.315,2.042-9.605-1.513c-0.667-1.834,0.576-4.307,1.356-5.883c1.403-2.832,3.356-5.51,5.419-7.9 c-0.562-0.074-1.124-0.149-1.686-0.224c-3.004,4.501-7.147,8.112-11.514,11.25c-1.812,1.302-3.736,2.462-5.769,3.383 c-3.364,1.523-1.651-1.708-0.656-3.181c4.071-6.021,12.844-9.607,19.483-11.98c-0.332-0.251-0.665-0.501-0.998-0.751 c-12.267,8.633-25.925,16.437-40.957,18.748c-4.191,0.645-9.853,1.016-13.672-0.415C94.146,50.283,92.397,51.172,93.236,51.485 L93.236,51.485 M198.465,49.626c1.232-3.116-3.584-8.463-5.16-10.468c-5.365-6.828-25.086-20.821-8.174-26.208 c7.136-2.273,16.288-3.064,23.349-0.137c12.734,5.28-5.999,16.278-10.826,18.91c-0.756,0.412-0.155,0.89,0.462,0.8 c2.763-0.401,6.138-0.396,8.324,1.559c1.973,1.764,0.501,5.296-0.227,7.28c-1.881,5.123-6.557,8.64-11.856,9.506 c-9.687,1.585-20.314-1.034-29.453,3.605c-0.982,0.499,0.165,0.872,0.723,0.748c4.046-0.898,7.941-2.754,11.039-5.508 c3.453-3.069,5.131-9.117,7.102-13.126c2.78-5.656,5.744-11.358,9.661-16.322c0.78-0.988,1.661-1.874,2.619-2.686 c2.837-2.405,5.52,0.696,2.776,3.205c-1.969,1.8-4.593,2.934-6.92,4.188c-1.146,0.618,0.576,0.886,1.193,0.553 c2.178-1.173,11.545-5.121,8.616-8.778c-2.814-3.515-7.658,0.742-9.522,2.823c-5.06,5.646-8.363,13.113-11.625,19.876 c-1.335,2.767-2.509,5.651-4.057,8.306c-2.126,3.645-7.199,5.651-11.135,6.525c0.24,0.249,0.481,0.499,0.723,0.748 c10.444-5.302,23.31-0.047,33.773-4.843c4.191-1.921,14.145-13.265,7.714-17.406c-2.19-1.411-4.822-1.573-7.363-1.468 c-2.326,0.097-1.497,1.034,0.305,0.052c2.8-1.526,5.471-3.264,8.026-5.167c3.65-2.718,8.938-8.013,4.556-12.375 c-7.238-7.208-24.859-4.028-32.672-0.01c-7.146,3.674-3.74,10.346,0.527,14.937c5.202,5.596,14.004,11.924,15.583,20.003 c0.067,0.347,0.124,0.783-0.011,1.125C196.293,50.487,198.217,50.254,198.465,49.626L198.465,49.626 M227.644,33.686c-3.164,1.992-6.245,4.119-9.249,6.344c-2.623,1.942-7.416,4.824-8.112,8.333 c-0.546,2.748,4.439,1.138,5.361,0.803c6.495-2.354,12.296-7.783,16.887-12.734c0.763-0.822-0.933-0.834-1.387-0.495 c-2.255,1.688-10.429,7.843-7.764,11.444c3.675,4.968,13.642,0.292,17.541-1.871c4.397-2.439,8.31-5.422,11.584-9.256 c0.729-0.853,4.298-4.916,2.914-6.468c-2.805-3.146-10.095,3.818-11.783,5.46c-2.496,2.427-11.068,13.252-6.249,16.732 c3.797,2.741,10.59-1.466,13.872-3.263c5.768-3.156,12.386-7.346,16.575-12.532c0.296-0.366,3.233-3.698,1.138-3.784 c-2.493-0.102-5.252,3.015-6.89,4.478c-4.258,3.804-13.589,16.793-1.206,14.439c5.933-1.128,17.691-10.168,6.96-13.612 c-0.391,0.364-0.781,0.729-1.172,1.094c6.247,1.664,10.701-2.251,16.042-4.546c1.724-0.74,5.051-2.009,3.477,1.104 c-2.568,5.079-7.718,9.311-11.713,13.214c-0.85,0.829,1.089,0.755,1.561,0.361c3.282-2.734,6.67-5.349,10.148-7.827 c2.148-1.53,4.37-3.035,6.769-4.147c2.401-1.112,1.093,1.755,0.427,2.659c-0.946,1.286-2.253,2.371-3.397,3.477 c-2.841,2.743-3.898,5.193,0.903,5.866c6.735,0.943,13.941,0.608,20.752,0.617c0.758,0.001,2.044-1.148,0.736-1.15 c-3.327-0.004-23.443,0.296-23.097-2.159c0.247-1.75,9.887-8.349,6.77-10.53c-2.684-1.879-8.4,2.897-10.308,4.203 c-3.896,2.668-7.637,5.608-11.264,8.631c0.521,0.12,1.04,0.241,1.561,0.361c0.599-0.584,16.758-16.101,11.213-16.787 c-7.144-0.885-11.777,7.592-19.407,5.56c-0.634-0.169-2.289,0.735-1.172,1.094c14.346,4.604-17.502,19.847-8.636,4.853 c1.856-3.14,4.736-5.709,7.492-8.046c4.149-3.52,0.902,0.156-0.622,1.699c-3.586,3.632-7.953,6.583-12.269,9.27 c-2.583,1.608-10.952,7.314-13.871,4.232c-1.702-1.799,0.46-6.301,1.197-7.932c1.383-3.056,3.635-5.704,6.017-8.02 c0.451-0.439,7.004-5.973,7.697-4.127c0.874,2.33-4.173,6.826-5.433,8.068c-4.577,4.515-14.771,11.517-21.666,9.021 c-5.394-1.951,3.732-9.716,5.785-11.252c-0.462-0.165-0.925-0.33-1.387-0.495c-3.729,4.021-7.834,7.556-12.515,10.433 c-0.591,0.363-5.512,3.421-6.209,1.909c-0.58-1.261,2.151-3.412,2.874-4.093c4.09-3.852,8.99-7.018,13.736-10.004 C229.966,33.616,228.293,33.277,227.644,33.686L227.644,33.686z"/>
</svg>