<?xml version="1.0" encoding="utf-8"?>
<!-- Generator: Adobe Illustrator 14.0.0, SVG Export Plug-In . SVG Version: 6.00 Build 43363)  -->
<!DOCTYPE svg PUBLIC "-//W3C//DTD SVG 1.1//EN" "http://www.w3.org/Graphics/SVG/1.1/DTD/svg11.dtd">
<svg version="1.1" id="Layer_1" xmlns="http://www.w3.org/2000/svg" xmlns:xlink="http://www.w3.org/1999/xlink" x="0px" y="0px"
	 width="196.5px" height="83.402px" viewBox="0 0 196.5 83.402" enable-background="new 0 0 196.5 83.402" xml:space="preserve">
<g>
	<g>
		<path fill-rule="evenodd" clip-rule="evenodd" d="M104.895,7.877c0.298,5.13-6.263,2.326-8.392,2.797
			c0.046-0.011-0.641,1.21-1.398,1.398c-0.879,0.22-1.913-0.199-2.797,0c-2.012,0.451-2.524,1.134-4.196,1.399
			c-6.735,1.065-15.565,1.443-20.979,2.797c-4.292,1.074-12.048,0.525-18.182,1.399c-1.221,0.175-2.296,1.147-4.196,1.398
			c-4.769,0.63-7.467,1.487-13.986,1.398c-1.936,5.99-3.093,12.757-2.797,20.979c-0.555,3.352,6.37-0.776,4.196,4.195
			c-1.865,0-3.729,0-5.595,0c0.318,2.34-0.739,4.32-1.398,6.993c-0.781,3.166-1.544,7.146-2.797,9.79
			c-0.32,0.677-1.318-0.135-1.398,1.398c-0.125,2.367-2.682,1.62-4.196,4.196c-3.683-1.253-4.66-1.916-5.594-5.595
			c-0.779-3.066,0.585-6.675,0-9.79c1.61-4.525,1.583,3.756,1.398,5.595c0.233,16.166,12.447,1.069,8.392-8.392
			c-0.788-1.839-2.166-3.066-2.797-5.595c-0.559-2.237-0.57-3.739-2.797-4.195c0.448-8.373-3.356-12.495-4.196-19.581
			c4.919-2.721,10.372-0.956,15.384-1.398c9.603-0.847,18.815-2.655,27.972-4.196c0.891-0.15,1.922,0.219,2.797,0
			c1.383-0.346,4.061-0.768,8.392-1.398C76.416,11.915,92.565,9.743,104.895,7.877z M13.986,23.263
			c0.581,5.946,2.445,10.607,5.595,13.985c0.133-2.197-0.187-4.849,2.797-4.195c0.852,3.343-1.755,10.146,1.399,11.188
			c0.848-7.543,2.875-13.908,2.797-22.378C22.197,22.149,16.306,20.921,13.986,23.263z"/>
		<path fill-rule="evenodd" clip-rule="evenodd" d="M173.427,26.06c7.576,1.293-1.798,11.292-1.398,15.385
			c1.915,2.722,5.888-4.275,6.993-6.993c6.552,2.607-1.747,7.661-1.399,12.587c-2.015,0.783-3.413,2.182-4.195,4.196
			c-1.246,0.86-2.502,1.689-2.798,0c-1.89,1.372-2.794,3.731-4.195,5.595c-3.673-3.265,0.006-8.894,1.398-12.588
			c0.186-0.493-0.377-2.488,0-2.797C169.843,39.798,171.992,30.711,173.427,26.06z M172.028,48.438
			c0.909,1.652,2.688-4.036,2.797-4.196c0.442-0.654,2.406-0.619,2.797-1.398c0.312-0.623-1.378-1.71-1.398,0
			C174.182,42.98,171.686,47.813,172.028,48.438z"/>
		<path fill-rule="evenodd" clip-rule="evenodd" d="M120.28,37.248c0.933,0,1.864,0,2.797,0c0,0.933,0,1.864,0,2.798
			c-0.933,0-1.865,0-2.797,0C120.28,39.112,120.28,38.181,120.28,37.248z"/>
		<path fill-rule="evenodd" clip-rule="evenodd" d="M48.951,40.046c4.079-2.056,4.079,6.251,0,4.195
			C48.951,42.843,48.951,41.444,48.951,40.046z"/>
		<path fill-rule="evenodd" clip-rule="evenodd" d="M179.021,48.438c3.795-3.703,9.078,2.973,9.79,6.992
			c-2.973,1.108-1.864-1.864-2.798-2.797c-0.933-0.933-3.747,0.018-2.797-2.797C180.958,50.229,180.809,48.514,179.021,48.438z"/>
		<path fill-rule="evenodd" clip-rule="evenodd" d="M15.385,75.011c1.222-1.967,4.657-0.195,9.79,0
			c9.747,0.37,21.449,0.879,33.566,0c16.21-1.178,41.868-2.785,61.539-2.798c1.587,0.267,0.777,1.403,0,1.399
			c-4.231,0.211-8.06-0.277-12.587,0c-8.448,0.518-17.795,2.398-26.573,2.797c-12.916,0.587-26.552-1.851-40.56,0
			c-4.704,0.621-7.269,0.687-15.385,0C21.7,76.115,18.163,77.207,15.385,75.011z"/>
		<path fill-rule="evenodd" clip-rule="evenodd" d="M34.965,54.031c3.115,0.058,4.674,2.511,9.791,1.398
			c0.441-0.096,6.302-4.229,5.594,1.399c5.016,0.354,5.124-4.2,9.79-4.196c2.379-0.514,2.639,1.092,2.797,2.797
			c4.968,0.692,8.052-7.69,12.587-2.797c5.091-3.3,5.086-11.697,12.587-12.587c2.737,4.47-5.073,8.335-6.993,12.587
			c0.458,2.598,6.799-0.337,8.392-1.398c1.336-0.891,3.673-1.066,4.195-2.797c2.491,1.025,0.202,2.543,0,4.195
			c5.641-1.353,11.193-2.793,16.783-4.195c4.861,0.347,1.141,3.526,6.993,1.398c1.23-0.448,2.189-1.683,4.196-1.398
			c6.395-2.463,3.297-14.419,12.587-13.986c-1.416,6.976-5.758,11.024-8.392,16.783c4.306,1.042,2.688-3.84,6.993-2.797
			c0.217,6.97,9.517-2.39,12.587,2.797c1.865,0,3.73,0,5.595,0c2.152,0.74,0.089,1.459-1.398,1.398
			c-5.641-0.942-11.526,0.705-15.385,1.398c-2.893,0.521-6.864-1.576-8.392,1.398c-3.225,0.428-1.554-4.04-4.196-4.195
			c-3.639-0.233-3.453,0.514-6.993,1.398c-0.923,0.23-1.299,1.38-1.399,1.398c-3.268,0.606-7.693-3.582-8.392,1.398
			c-2.427,1.38-3.576-2.78-4.196-2.797c0.833,0.021-9.987,5.975-12.587,2.797c-2.012-2.458-3.053,2.288-8.392,0
			c-0.617-0.265,0.164-1.519-1.398-1.398c-2.489,0.191-4.451,2.165-6.993,2.798c-1.737,0.432-3.815-0.235-5.594,0
			c-2.833,0.374-10.668,2.243-16.783,1.398c-3.45-0.477-4.526-2.237-8.392,0c-0.366,0.212-3.034,2.823-2.797,2.797
			c-1.535,0.169-4.898-2.471-4.196-2.797c-3.665,1.7-6.088,5.925-6.993,8.392c-4.895-1.651,2.153-4.166,2.797-5.595
			C30.236,59.103,31.587,54.744,34.965,54.031z"/>
	</g>
</g>
</svg>
