<?xml version="1.0" encoding="UTF-8"?>
<svg version="1.0" xmlns="http://www.w3.org/2000/svg" width="504" height="252" >
<path d="M53.955,138.143c4.09-9.499,1.328-22.109-10.601-22.94c-7.094-0.494-13.311,5.19-17.818,9.962 c-6.657,7.048-11.584,15.777-15.127,24.749c-6.381,16.155-6.815,34.221,3.496,48.786c5.229,7.385,12.927,9.64,21.524,7.326 c13.677-3.68,25.738-14.216,36.257-23.173c18.648-15.878,35.791-33.552,52.801-51.141c20.027-20.708,40.11-41.48,58.157-63.966 c8.573-10.683,17.935-22.187,23.196-34.991c0.821-1.998,1.827-4.464,1.044-6.621c-0.579-1.595-1.971-4.75-4.13-4.309 c-5.785,1.185-10.901,10.461-13.687,14.855c-7.96,12.555-14.639,25.985-21.438,39.186c-9.433,18.315-18.608,36.763-27.832,55.184 c-13.106,26.171-25.407,53.367-41.086,78.14c0.859,1.429,1.717,2.856,2.576,4.285c10.333-20.623,23.677-40.039,37.517-58.414 c27.744-36.835,61.321-70.821,100.994-94.745c27.571-16.626,58.195-28.673,89.069-37.558 c26.013-7.485,55.789-14.724,82.966-9.959c6.213,1.089,12.656,3.134,17.509,7.316c4.464,3.848,4.728,9.899,3.987,15.433 c-1.226,9.158-5.881,17.753-10.657,25.503c-7.901,12.821-17.806,24.404-27.961,35.473c-0.692,0.755,2.442,4.431,2.576,4.285 c12.675-13.815,25.283-28.574,33.548-45.549c4.062-8.342,7.485-18.606,4.175-27.775C427.996,8.055,404.795,6.66,387.193,7.384 c-30.804,1.268-61.573,10.171-90.345,20.731c-33.913,12.446-65.364,29.15-93.472,51.972c-29.8,24.196-55.426,53.451-77.42,84.824 c-9.901,14.123-19.501,28.829-27.243,44.279c-0.531,1.06,2.605,4.239,2.576,4.285c7.73-12.214,14.234-25.248,20.842-38.088 c9.376-18.218,18.496-36.567,27.671-54.887c8.851-17.671,17.698-35.347,26.901-52.838c5.877-11.169,11.607-22.855,19.26-32.951 c2.037-2.687,4.298-5.358,7.022-7.376c0.708-0.524,1.489-0.999,2.347-1.225c0.268-0.071,0.547-0.09,0.814-0.014 c1.036,0.299-1.635-4.571-1.651-2.291c-0.023,3.162-1.951,6.479-3.357,9.192c-3.026,5.841-6.768,11.319-10.579,16.668 c-14.65,20.559-31.919,39.217-49.262,57.497C122.318,127.167,103.252,147.15,83.117,166 c-12.525,11.726-25.725,23.857-40.998,31.938c-8.022,4.246-18.595,7.626-26.333,1.024c-6.718-5.731-7.694-16.394-7.336-24.615 c0.46-10.566,4.211-20.917,9.188-30.146c4.194-7.777,9.779-15.205,16.875-20.553c4.152-3.129,18.078-8.267,18.759,0.523 c0.249,3.203-0.629,6.75-1.893,9.686C50.837,135.115,54.087,137.835,53.955,138.143L53.955,138.143z"/>
<path d="M221.5,156.884c4.952-9.761,11.564-21.98,11.418-33.149c-0.151-11.512-13.449-0.221-16.484,2.939 c-10.166,10.583-18.646,22.978-26.882,35.069c-8.421,12.365-16.65,25.047-23.487,38.37c-1.948,3.796-8.027,15.918,1.709,10.784 c4.742-2.5,8.72-6.742,12.511-10.438c6.735-6.564,13.16-13.451,19.612-20.291c14.433-15.301,28.648-30.991,44.434-44.928 c9.81-8.659,20.019-16.94,30.384-24.921c3.998-3.079,8.058-6.105,12.288-8.861c1.049-0.683,5.494-4.279,4.982-1.834 c-0.701,3.348-3.94,6.764-5.911,9.397c-2.149,2.872-4.256,5.775-6.353,8.685c-5.138,7.127-10.177,14.325-15.186,21.543 c-10.7,15.42-21.241,30.957-31.486,46.683c-0.869,1.333-14.586,22.213-13.008,22.869c3.849,1.601,10.988-7.849,13.04-9.917 c44.908-45.265,88.293-92.331,135.381-135.37c4.006-3.661,8.052-7.311,12.361-10.614c-1.219,0.073-2.438,0.146-3.656,0.218 c-31.403,43.736-62.852,87.723-96.816,129.519c-4.684,5.762-9.378,11.817-14.907,16.81c1.352-0.188,2.703-0.375,4.056-0.563 c17.439-24.149,40.079-45.522,63.647-63.514c10.434-7.965,21.431-15.164,32.9-21.544c12.71-7.069,26.151-12.766,38.993-19.604 c20.997-11.181,41.348-23.922,60.032-38.676c5.71-4.509,11.284-9.259,16.38-14.46c2.488-2.541,5.481-5.475,6.709-8.905 c0.979-2.734-2.521-2.456-4.147-2.104c-4.937,1.066-9.623,3.899-13.923,6.418c-44.09,25.829-76.94,67.078-110.15,104.89 c-12.14,13.821-24.276,27.646-36.497,41.395c-1.73,1.947,2.963,0.676,3.779-0.225c8.044-8.874,16.541-17.368,25.25-25.584 c13.711-12.935,28.509-26.937,47.195-31.725c5.112-1.31,19.444-4.723,17.046,5.083c-1.175,4.804-4.926,9.028-7.788,12.902 c-3.555,4.811-6.793,9.854-9.768,15.042c-5.433,9.475-17.362,35.624,4.089,32.902c13.476-1.709,26.785-9.41,38.499-15.79 c15.374-8.373,30.448-17.939,43.815-29.285c3.805-3.229,19.433-15.616,14.105-22.25c-4.523-5.632-18.698,2.857-22.876,5.131 c-20.307,11.051-38.233,27.503-53.278,44.875c-17.383,20.069-32.071,44.225-35.813,70.907c-0.185,1.318,4.402-0.104,4.602-1.525 c5.722-40.795,36.107-76.213,67.693-100.621c6.157-4.758,12.616-9.153,19.455-12.875c3.929-2.138,8.583-4.621,13.171-4.708 c3.487-0.066,3.606,3.374,2.692,5.91c-1.901,5.275-7.087,9.649-11.115,13.275c-13.236,11.916-28.869,21.487-44.425,30.032 c-7.266,3.991-14.724,7.675-22.419,10.764c-5.316,2.134-12.289,5.051-18.023,2.946c-8.501-3.119-2.425-17.075-0.097-22.299 c4.707-10.564,11.688-19.535,18.148-29.018c2.684-3.94,7.592-12.354,0.873-15.028c-7.289-2.9-17.765,1.128-24.697,3.268 c-7.445,2.297-14.171,6.95-20.397,11.497c-8.019,5.854-15.49,12.476-22.764,19.221c-9.344,8.666-18.392,17.732-26.953,27.177 c1.26-0.074,2.52-0.15,3.779-0.225c19.833-22.315,39.495-44.784,59.165-67.242c19.304-22.039,39.271-43.153,62.316-61.351 c7.455-5.886,15.191-11.474,23.359-16.333c2.075-1.235,8.605-6.084,11.32-5.11c1.662,0.597-3.17,6.048-3.569,6.5 c-4.566,5.171-9.896,9.699-15.225,14.056c-18.498,15.123-39.002,27.82-59.977,39.184c-12.852,6.963-26.287,12.737-39.146,19.671 c-11.063,5.965-21.609,12.884-31.74,20.31c-17.236,12.636-33.115,27.157-47.688,42.771c-7.34,7.864-14.564,16.041-20.872,24.774 c-1.136,1.574,3.496-0.058,4.056-0.563c7.316-6.607,13.379-14.846,19.51-22.514c10.211-12.771,20.097-25.803,29.925-38.87 c18.671-24.827,37.021-49.896,55.227-75.064c2.543-3.516,5.084-7.033,7.615-10.557c1.131-1.575-3.204-0.128-3.656,0.218 c-8.546,6.551-16.343,14.151-24.134,21.56c-12.111,11.518-23.979,23.292-35.799,35.107 c-24.693,24.683-49.063,49.686-73.49,74.632c-6.966,7.114-13.889,14.283-21.007,21.246c-0.704,0.688-1.411,1.375-2.14,2.037 c-0.451,0.409,2.188-1.81,3.105-0.518c0.057,0.079,0.204-0.526,0.327-0.795c1.901-4.122,4.563-7.974,6.976-11.802 c18.438-29.255,38.052-58.059,58.723-85.783c0.683-0.915,9.545-11.797,4.817-12.157c-5.46-0.416-12.031,5.5-16.088,8.384 c-18.419,13.098-36.036,27.967-52.104,43.862c-15.104,14.942-29.293,30.773-44.096,46.008 c-4.872,5.015-9.772,10.273-15.399,14.461c-0.269,0.2-2.043,1.061-1.076,0.809c0.459-0.12,0.271,0.052,0.163-0.416 c-0.253-1.097,0.579-2.759,0.95-3.74c4.242-11.241,11.517-21.751,17.945-31.812c8.265-12.934,17.013-25.627,26.575-37.641 c3.432-4.312,7.013-8.58,11.059-12.333c0.625-0.58,2.551-2.172,2.717-2.214c1.892-0.474,2.44,3.349,2.456,4.554 c0.085,6.44-2.966,13.244-5.333,19.091c-1.758,4.342-3.703,8.631-5.823,12.809C216.333,159.431,220.917,158.032,221.5,156.884 L221.5,156.884z"/>
<path d="M463.228,194.529c0.093-0.046,0.19-0.084,0.287-0.121c0.091-0.034,0.184-0.063,0.276-0.092 c-0.65,0.195-0.143,0.042,0.032,0.017c0.203-0.021,0.097-0.018-0.317,0.014c0.191-0.011,0.54,0.041-0.312-0.046 c0.024,0.004,0.049,0.007,0.073,0.011c-0.344-0.058-0.675-0.158-0.992-0.302c-0.135-0.074-0.271-0.147-0.405-0.221 c0.171,0.11,0.088,0.048-0.25-0.188c-0.352-0.304-0.205-0.251-0.101-0.086c-0.199-0.313-0.052-0.118-0.011,0.012 c0.076,0.24,0.087,0.499,0.092,0.748c0.008,0.405,0.613,0.831,0.896,1.01c0.545,0.345,1.177,0.566,1.811,0.67 c0.754,0.123,2.112,0.158,2.093-0.895c-0.059-3.131-4.599-4.088-6.961-2.921c-1.006,0.496-0.273,1.393,0.391,1.813 C460.685,194.492,462.236,195.02,463.228,194.529L463.228,194.529z"/>
<path stroke="#000000" d="M174.458,68.25c0,0,25.5-44.875,29.875-42.125S176.208,73.625,174.458,68.25z"/>
</svg>