<?xml version="1.0" encoding="UTF-8"?>
<svg version="1.0" xmlns="http://www.w3.org/2000/svg" width="383" height="186" >
<path fill="#231F20" d="M45.578,46.252c-5.401,2.846-10.813,5.673-16.236,8.475c-3.007,1.553-6.011,3.121-9.064,4.581 c-1.745,0.834,0.46,0.498,1.543-0.336c10.419-8.024,21.01-15.8,31.194-24.13c5.974-4.887,11.857-9.919,17.322-15.375 c3.152-3.146,6.953-6.765,8.439-11.088c3.239-9.424-18.317-0.784-20.395,0.213c-6.214,2.98-12.159,6.784-17.246,11.447 c-3.246,2.975-7.248,7.31-6.598,12.091c1.221,8.991,18.453,7.17,24.201,6.906c16.132-0.741,32.171-3.001,48.279-4.124 c16.288-1.136,33.691-2.007,49.51,2.786c9.324,2.825,17.412,8.627,20.008,18.395c0.165,0.62,2.097,0.104,1.932-0.518 c-3.263-12.28-14.702-17.772-26.234-20.278c-15.565-3.381-32.09-2.33-47.841-1.159c-15.99,1.188-31.934,3.5-47.969,3.999 c-8.133,0.253-26.47-0.919-17.617-13.557c6.617-9.445,20.079-16.695,31.098-19.293C72.939,4.57,78.28,4.484,76.729,9 c-1.505,4.38-5.897,8.226-9.082,11.361C58.159,29.704,47.531,37.939,37,46.058c-4.285,3.303-8.609,6.556-12.935,9.805 c-1.543,1.159-4.475,2.591-5.504,4.301c-0.086,0.143-0.106,0.225-0.007,0.364c0.003,0.004,0.006,0.008,0.009,0.012 c0.132,0.185,0.575,0.161,0.757,0.125c4.408-0.863,9.09-4.35,13.017-6.382c4.816-2.492,9.621-5.007,14.418-7.535 C47.905,46.143,46.163,45.943,45.578,46.252L45.578,46.252 M29.799,69.91c7.875-6.268,15.879-12.39,24.063-18.249c9.816-7.027,19.541-13.615,27.439-22.901 c0.788-0.926-1.064-1.143-1.604-0.52c-16.335,18.888-32.946,37.59-50.2,55.645c-4.671,4.888-9.404,9.729-14.371,14.318 c-1.776,1.642-6.364,7.078-9.276,5.687C2.33,102.207,21.834,86.015,22.91,85.155c6.33-5.064,12.837-9.9,20.01-13.712 c1.949-1.036,13.035-6.776,10.424-0.434c-1.626,3.952-4.918,7.372-7.699,10.526c-5.502,6.243-11.553,12.013-17.613,17.705 c0.535,0.173,1.069,0.347,1.604,0.52c9.716-10.529,22.085-19.233,34.95-25.392c-0.35-0.315-0.701-0.63-1.051-0.944 c-3.896,3.144-7.69,6.417-11.396,9.782c-2.558,2.322-10.477,8.001-9.886,12.166c0.455,3.208,8.344-1.795,9.161-2.288 c6.513-3.924,12.529-8.639,18.775-12.96c0.98-0.678,1.969-1.357,3.009-1.942c0.636-0.357-0.332-0.571-0.647,0.017 c-0.414,0.77-1.057,1.47-1.607,2.145c-2.565,3.146-5.518,5.966-7.95,9.224c-2.785,3.731,1.205,2.859,3.229,1.289 c5.992-4.65,11.207-10.637,16.074-16.41c1.31-1.553,9.347-10.085,7.058-12.652c-0.263-0.294-0.699-0.299-1.055-0.21 c-1.64,0.412-2.47,3.028-3.11,4.326c-1.404,2.843-2.748,5.796-3.754,8.807c-0.208,0.624-0.153,0.794,0.148,1.381 c0.201,0.392,1.17,0.858,1.49,1.056c1.208,0.749,1.563,2.23,2.44,3.022c0.782,0.707,1.628,0.947,2.639,1.262 c2.594,0.807-4.472,7.446-5.037,7.902c0.478,0.224,0.956,0.447,1.434,0.67c0.745-0.793,1.543-1.523,2.369-2.231 c2.005-1.718,6.458-0.571,4.66,2.379c-0.545,0.895,1.422,0.868,1.838,0.185c1.207-1.979,0.6-6.349-2.489-5.988 c-3.21,0.375-5.85,2.868-7.981,5.136c-0.79,0.84,0.892,1.108,1.434,0.67c2.095-1.692,6.259-4.853,6.549-7.659 c0.103-0.993-0.077-1.387-0.854-1.973c-0.383-0.289-1.026-0.414-1.471-0.552c-1.277-0.397-1.009-1.113-1.691-1.941 c-0.53-0.644-3.743-2.537-3.662-3.034c0.191-1.168,0.88-2.393,1.33-3.475c0.656-1.579,1.362-3.136,2.086-4.684 c0.334-0.715,0.689-1.419,1.048-2.122c0.199-0.385,0.407-0.765,0.624-1.141c0.538-0.579,0.291-0.763-0.741-0.554 c-0.123,2.791-2.851,5.758-4.424,7.821c-2.735,3.586-5.777,6.945-8.864,10.229c-2.663,2.833-5.424,5.601-8.367,8.145 c-0.81,0.7-1.662,1.438-2.611,1.944c1.583-0.846,2.728-2.945,3.967-4.363c2.257-2.583,4.896-5.028,6.765-7.921 c0.397-0.616,1.43-2.542-0.28-2.269c-4.368,0.699-9.2,5.757-12.651,8.218c-3.134,2.234-6.289,4.441-9.527,6.523 c-1.463,0.941-2.959,1.827-4.505,2.626c-0.769,0.398-3.508,1.88-2.731-0.035c1.079-2.659,3.906-4.984,5.896-6.947 c3.036-2.993,6.258-5.8,9.499-8.567c1.659-1.416,3.334-2.816,5.032-4.186c0.939-0.758-0.31-1.299-1.051-0.944 c-13.167,6.303-25.775,15.17-35.716,25.941c-0.845,0.916,1.045,1.044,1.604,0.52c8.072-7.583,16.46-15.312,22.99-24.318 c1.106-1.526,4.78-6.201,2.531-8.176c-2.022-1.776-5.98-0.034-8.033,0.758c-5.306,2.046-10.259,5.188-14.94,8.373 c-8.531,5.805-16.871,12.467-24.11,19.834c-1.161,1.181-7.518,7.617-3.231,8.97c2.841,0.896,4.912-0.634,7.078-2.316 c4.205-3.266,7.995-7.113,11.754-10.867C43.836,71.883,62.669,50.304,81.302,28.76c-0.535-0.173-1.069-0.346-1.604-0.52 c-7.785,9.153-17.396,15.716-27.101,22.601c-8.207,5.822-16.191,11.983-24.063,18.249C27.506,69.908,29.079,70.483,29.799,69.91 L29.799,69.91 M110.857,55.802c-6.371,4.981-12.604,10.179-18.512,15.703c-7.266,6.794-12.569,15.082-20.488,21.297 c-1.033,0.811,0.522,1.495,1.285,0.896c7.696-6.04,12.929-13.985,19.867-20.704c6.005-5.816,12.55-11.148,19.133-16.296 C113.177,55.889,111.621,55.205,110.857,55.802L110.857,55.802 M143.449,61.317c1.481-1.936,7.317-9.611,2.351-10.417c-2.622-0.426-5.853,2.438-7.727,3.819 c-10.804,7.964-21.014,17.86-29.602,28.169c-0.397,0.477-4.962,5.768-2.388,5.763c3.697-0.007,7.546-2.995,10.48-4.86 c6.231-3.96,12.185-8.373,18.086-12.802c2.985-2.24,7.175-4.523,9.565-7.442c0.142-0.173-1.532,0.059-1.817,0.28 c-6.025,4.664-11.594,10.491-16.688,16.128c-0.583,0.645-5.339,5.497-3.873,6.611c1.025,0.779,3.366-0.309,4.331-0.705 c8.835-3.624,17.004-9.347,24.903-14.624c8.458-5.65,17.787-11.534,24.628-19.17c0.109-0.122-1.498,0.01-1.817,0.279 c-9.561,8.04-19.056,16.262-27.891,25.099c-0.776,0.776-8.222,7.822-6.561,9.015c2.126,1.526,7.377-2.583,8.847-3.544 c6.261-4.094,12.146-8.795,17.988-13.457c2.206-1.76,4.396-3.541,6.575-5.334c0.523-0.431,1.045-0.863,1.566-1.296 c0.821-0.683-1.734,0.212-2.171,0.623c-2.693,2.532-24.417,21.925-21.149,25.114c2.196,2.144,10.091-3.966,11.51-4.917 c6.461-4.331,12.573-9.227,18.575-14.169c1.202-0.989-0.257-1.07-1.229-0.217c-1.014,0.89-2.001,1.81-2.982,2.736 c-3.008,2.84-5.961,5.853-8.292,9.284c-4.176,6.148,3.49,7.157,7.45,3.871c0.362-0.301-1.401-0.085-1.736,0.193 c-2.509,2.082-5.967,0.7-4.875-2.467c0.727-2.107,2.485-3.977,3.906-5.633c2.567-2.994,5.482-5.754,8.455-8.343 c0.368-0.32-1.411-0.078-1.736,0.193c-3.69,3.077-7.465,6.055-11.286,8.968c-3.051,2.326-6.157,4.586-9.364,6.693 c-0.885,0.581-7.355,4.902-6.734,2.117c0.454-2.036,2.405-4.008,3.674-5.56c2.534-3.1,5.334-5.986,8.131-8.845 c3.276-3.348,6.636-6.623,10.065-9.816c0.374-0.348-1.424-0.067-1.736,0.193c-4.925,4.113-9.94,8.122-15.02,12.042 c-3.807,2.938-7.667,5.829-11.694,8.461c-1.515,0.991-6.779,4.338-4.152,0.346c4.788-7.278,12.7-13.238,19.131-18.988 c4.761-4.255,9.584-8.446,14.471-12.556c-0.606,0.093-1.212,0.187-1.817,0.279c-5.563,6.209-12.958,11.042-19.747,15.778 c-7.889,5.503-16.014,10.803-24.502,15.343c-0.852,0.456-6.867,4.034-5.773,1.184c1.205-3.141,4.564-6.004,6.822-8.338 c4.245-4.386,8.694-9.018,13.534-12.764c-0.606,0.093-1.211,0.186-1.817,0.279c-1.604,1.958-4.54,3.574-6.561,5.117 c-4.438,3.39-8.933,6.705-13.494,9.927c-4.288,3.029-8.668,6.188-13.423,8.458c-3.841,1.833,0.849-4.056,1.531-4.893 c6.783-8.316,14.898-15.77,23-22.775c3.206-2.772,6.523-5.651,10.227-7.745c3.626-2.05,1.493,4.006,0.965,5.049 c-0.826,1.633-1.9,3.18-3.011,4.632C141.477,61.78,143.112,61.757,143.449,61.317L143.449,61.317 M173.117,90.603c3.81-2.623,7.574-5.313,11.292-8.065c1.859-1.375,9.405-5.638,9.562-8.388 c0.152-2.662-4.466,2.217-4.56,2.323c-2.905,3.29-5.621,6.76-8.321,10.219c-0.568,0.728,1.035,0.638,1.311,0.53 c1.653-0.65,15.52-6.852,13.627-8.997c-0.306-0.347-0.927-0.229-1.292-0.072c-1.893,0.811-6.485,8.358-3.617,9.662 c2.588,1.177,8.062-2.479,10.15-3.501c12.761-6.247,26.879-13.516,37.271-23.35c0.822-0.778-0.916-0.928-1.406-0.565 c-10.366,7.677-19.685,16.434-29.172,25.14c-0.875,0.803,1.055,0.869,1.578,0.425c2.527-2.145,5.169-4.413,8.109-5.975 c-0.799,0.425-2.907,5.879-1.79,6.911c0.791,0.731,2.826,0.124,3.686-0.05c3.749-0.758,7.383-1.964,10.968-3.284 c9.896-3.642,19.488-8.987,27.068-16.38c0.707-0.69,4.674-5.047,0.903-3.857c-4.334,1.369-8.454,5.118-12.018,7.784 c-4.804,3.596-9.761,7.392-13.699,11.95c-2.142,2.479-2.451,5.392,1.761,4.872c5.645-0.697,11.444-5.423,15.885-8.681 c0.068-0.05,0.137-0.101,0.205-0.151c-0.469-0.188-0.938-0.377-1.406-0.565c-2.876,2.523-10.148,10.807-1.593,8.884 c7.668-1.723,15.16-5.457,22.283-8.701c-0.396-0.228-0.794-0.456-1.19-0.683c-1.463,1.518-7.25,6.378-6.599,8.808 c0.711,2.654,7.513-3.048,8.177-3.633c-0.587-0.037-1.174-0.074-1.761-0.112c-1.168,3.063,0.088,4.439,2.945,3.667 c5.056-1.365,9.975-3.508,14.777-5.558c2.803-1.196,23.562-9.169,20.447-14.478c-2.464-4.2-19.128,11.937-20.766,13.547 c-0.87,0.855-6.749,6.06-3.971,7.661c4.698,2.708,11.659-3.946,14.577-6.728c0.815-0.777-0.915-0.94-1.406-0.565 c-2.031,1.553-6.616,7.859-0.841,7.522c4.735-0.276,9.262-4.037,12.747-6.957c0.859-0.72-0.91-0.907-1.406-0.565 c-1.557,1.076-12.378,9.714-5.499,9.413c3.792-0.166,7.881-3.053,11.206-4.619c1.561-0.735,4.002-2.396,5.042-0.261 c1.367,2.803-3.763,6.628-5.421,8.106c0.526,0.142,1.052,0.284,1.578,0.426c5.195-6.256,13.774-7.313,20.328-11.86 c-0.469-0.188-0.938-0.377-1.406-0.565c-5.566,5.433-11.049,10.956-16.44,16.563c-7.593,7.897-14.212,16.662-22.447,23.924 c-2.247,1.98-4.625,3.816-7.188,5.37c-4.071,2.467-3.111-0.985-1.735-3.161c3.24-5.117,8.293-9.462,13.017-13.149 c8.653-6.756,19.97-10.484,30.234-14.113c1.265-0.447,0.124-1.27-0.803-0.941c-12.396,4.383-24.822,9.073-34.844,17.795 c-3.983,3.468-8.769,7.838-10.79,12.865c-1.116,2.778,1.409,3.292,3.536,2.653c4.975-1.495,9.475-6.19,13.159-9.62 c5.047-4.699,9.209-10.136,13.831-15.223c7.063-7.773,14.533-15.203,22.048-22.538c0.824-0.805-0.924-0.899-1.406-0.565 c-6.901,4.789-15.119,5.455-20.672,12.14c-0.794,0.956,1.084,0.867,1.578,0.426c2.227-1.987,6.772-5.451,5.774-9.05 c-0.616-2.223-2.738-2.063-4.464-1.532c-3.913,1.206-7.482,3.512-11.268,5.057c-4.338,1.771-1.731-1.945-0.012-3.506 c1.337-1.213,2.812-2.302,4.297-3.329c-0.469-0.188-0.938-0.377-1.406-0.565c-1.618,1.355-3.344,2.58-5.109,3.735 c-0.767,0.501-7.182,4.578-7.08,0.62c0.036-1.433,2.037-2.981,3.096-3.79c-0.469-0.188-0.938-0.377-1.406-0.565 c-2.688,2.562-5.53,4.97-9.095,6.189c-4.949,1.693-1.533-2.845-0.962-3.519c2.024-2.384,4.382-4.509,6.703-6.595 c2.792-2.508,5.716-4.878,8.798-7.021c1.263-0.878,2.61-1.78,4.078-2.275c1.358-0.459-0.799,2.646-0.966,2.81 c-5.201,5.078-13.393,7.932-19.969,10.697c-3.177,1.336-6.394,2.585-9.65,3.711c-2.519,0.871-4.905,1.989-3.427-1.885 c0.319-0.837-1.511-0.333-1.761-0.112c-0.769,0.677-1.572,1.307-2.391,1.922c-2.136,1.609-2.653,1.674-1.039-0.552 c1.474-2.034,3.267-3.889,5.008-5.696c0.742-0.771-0.718-0.898-1.19-0.683c-4.495,2.048-9.048,3.978-13.646,5.78 c-3.053,1.197-6.284,2.576-9.562,3.004c-1.808,0.236,2.155-4.955,2.387-5.201c0.791-0.843,1.643-1.638,2.512-2.4 c0.837-0.734-0.907-0.937-1.406-0.565c-3.82,2.85-7.878,5.55-12.229,7.511c-8.128,3.665-1.245-4.185,0.716-6.014 c3.886-3.623,8.134-6.875,12.429-9.994c1.861-1.352,3.759-2.654,5.7-3.887c0.723-0.458,1.458-0.897,2.217-1.292 c1.152-0.6,0.104-0.598-0.066-0.321c-3.858,6.278-12.589,10.788-18.899,14.041c-6.423,3.312-13.643,6.315-20.833,7.42 c-3.396,0.521,4.056-7.707-0.098-7.274c-3.748,0.39-7.61,4.616-10.358,6.948c0.526,0.142,1.052,0.283,1.578,0.425 c9.379-8.606,18.578-17.269,28.828-24.86c-0.469-0.188-0.938-0.377-1.406-0.565c-9.751,9.228-22.946,15.923-34.797,21.982 c-2.216,1.133-4.46,2.211-6.751,3.185c-0.868,0.369-1.749,0.701-2.659,0.947c-1.263,0.341,0.419-3.813,0.598-4.201 c0.527-1.145,1.229-2.261,2.036-3.228c-0.781,0.936-4.669,2.472-5.991,3.236c-2.533,1.465-5.07,2.748-7.798,3.82 c0.437,0.177,0.874,0.353,1.311,0.53c1.918-2.458,3.873-4.888,5.857-7.292c1.17-1.417,2.361-2.817,3.617-4.159 c0.964-1.031,0.009-1.395-0.659-0.561c-0.468,0.585-1.07,1.082-1.625,1.581c-5.589,5.024-12.035,9.263-18.218,13.519 C170.801,90.643,172.434,91.072,173.117,90.603L173.117,90.603 M111.247,119.451c-9.854-7.213-20.814,5.113-22.632,14.321c-2.281,11.557,3.911,22.743,12.179,30.336 c15.119,13.885,39.457,19.392,59.388,19.468c17.311,0.066,34.913-4.923,46.609-18.331c7.664-8.785,12.174-21.843,8.17-33.229 c-6.615-18.812-26.163-28.47-44.621-30.97c-8.013-1.085-15.986-1.383-23.14,2.914c-6.394,3.84-11.131,9.706-13.826,16.637 c-2.762,7.103-2.549,15.013,0.566,21.942c4.027,8.957,12.559,13.746,21.008,17.796c42.721,20.477,91.667,31.313,137.922,16.323 c15.732-5.099,35.413-13.451,43.854-28.714c8.27-14.951-7.396-28.011-20.627-31.609c-20.305-5.522-43.46,1.943-62.646,8.349 c-17.992,6.007-35.521,13.183-53.714,18.612c-45.044,13.442-95.658,23.298-142.34,13.136 c-11.229-2.444-22.288-6.443-32.216-12.263c-6.026-3.533-12.669-8.511-14.675-15.55c-4.479-15.719,21.867-20.938,31.884-22.23 c28.12-3.628,56.582,3.509,83.573,10.627c23.568,6.215,46.604,14.126,69.871,21.34c45.323,14.053,92.877,19.838,139.45,7.76 c14.518-3.766,34.574-9.86,42.985-23.549c6.891-11.213-6.143-18.009-15.3-19.991c-14.494-3.138-29.905-2.289-44.483-0.216 c-12.857,1.828-26.49,4.785-37.319,12.308c-7.002,4.863-16.162,13.867-14.111,23.353c2.729,12.616,24.449,10.897,33.353,10.169 c1.072-0.088,1.502-1.487,0.182-1.379c-9.007,0.736-22.446,1.904-29.449-5.345c-4.613-4.776-1.786-11.811,1.453-16.437 c9.952-14.209,28.448-18.595,44.556-21.117c9.883-1.548,19.952-2.19,29.948-1.81c8.091,0.309,16.813,1.223,24.126,4.949 c5.306,2.704,8.413,7.788,6.066,13.618c-2.819,7.004-10.915,11.59-17.225,14.882c-22.745,11.863-50.156,15.384-75.455,15.855 c-23.886,0.445-47.561-3.158-70.582-9.344c-21.909-5.886-43.292-13.603-65.014-20.124c-26.828-8.055-54.629-15.962-82.713-17.581 c-16.535-0.953-36.939-0.359-50.989,9.717c-9.897,7.099-8.117,17.565,0.112,25.186c14.612,13.533,37.281,18.722,56.419,21.088 c23.949,2.96,48.433,0.974,72.167-2.814c21.149-3.376,42.021-8.535,62.461-14.897c18.739-5.832,36.827-13.518,55.575-19.322 c20.036-6.203,47.33-13.455,65.802,0.465c6.875,5.181,11.192,13.253,8.068,21.722c-3.02,8.183-11.105,14.033-18.193,18.473 c-41.974,26.288-97.554,21.664-141.742,3.974c-18.86-7.55-46.798-17.316-42.02-42.763c1.622-8.636,7.47-16.45,15.1-20.693 c9.505-5.286,22.649-2.456,32.5,0.389c16.444,4.749,34.135,20.108,32.82,38.67c-1.127,15.9-13.691,28.374-27.752,34.189 c-22.232,9.195-51.369,4.121-72.224-6.483c-12.638-6.426-24.161-18.065-24.262-33.059c-0.06-8.964,8.977-25.432,19.607-17.648 C110.425,121.04,112.13,120.099,111.247,119.451L111.247,119.451z"/>
</svg>