<?xml version="1.0" encoding="UTF-8"?>
<svg version="1.0" xmlns="http://www.w3.org/2000/svg" width="705" height="174" >
<path fill="#231F20" d="M64.289,85.476c8.407-9.757,15.926-20.486,22.307-31.661c7.393-12.949,16.943-33.002,5.458-46.407 c-5.044-5.887-13.913-6.956-21.13-5.976C59.603,2.968,49.216,8.327,40.081,14.997C24.97,26.029,15.011,42.564,7.932,59.596 c-5.778,13.902-11.52,32.556-5.12,47.206c6.683,15.296,27.773,11.479,40.32,7.616c9.083-2.797,17.734-6.976,26.129-11.379 c5.969-3.131,11.775-7.012,18.044-9.523c1.738-0.696,0.991,0.14,0.85-1.244c0.059,0.575-0.558,1.459-0.782,1.961 c-1.203,2.696-2.35,5.417-3.5,8.136c-3.221,7.613-6.374,15.255-9.52,22.899c-5.576,13.549-11.359,27.055-16.573,40.749 c-0.69,1.811,2.211,2.587,2.893,0.797c4.548-11.945,9.589-23.726,14.438-35.551c3.354-8.176,6.722-16.347,10.139-24.497 c1.255-2.994,2.521-5.984,3.811-8.962c0.701-1.617,1.962-3.51,2.079-5.306c0.25-3.82-4.536-1.958-6.331-1.153 c-6.524,2.925-12.653,6.816-18.994,10.112c-8.978,4.666-18.273,8.795-28.078,11.384c-8.269,2.183-19.064,3.775-26.783-0.906 c-14.252-8.643-6.452-34.115-2.249-46.031c6.7-18.996,17.734-37.253,34.167-49.25c9.469-6.913,21.089-12.428,33-12.543 c10.537-0.103,17.868,6.808,18.433,17.308c0.499,9.256-3.914,18.714-8.039,26.721c-4.262,8.273-9.465,16.068-14.95,23.572 c-2.91,3.981-5.932,7.907-9.151,11.645C60.912,84.812,63.024,86.944,64.289,85.476L64.289,85.476 M88.267,88.991c-3.087,4.176,9.565,4.506,11.32,4.64c6.456,0.49,5.708,7.007,4.889,11.871 c-1.116,6.627-3.124,13.063-4.325,19.67c-0.617,3.393,0.246,12.54,5.837,8.209c5.608-4.342,7.626-12.056,12.621-16.987 c1.601-1.581,4.678,4.745,6.12,5.726c3.431,2.334,7.132,0.526,10.284-1.462c4.551-2.87,14.605-12.674,9.609-18.637 c-4.094-4.887-11.505,8.24-12.61,10.326c-4.668,8.81-6.101,19.642-3.157,29.257c2.266,7.401,9.093,5.375,14.131,2.106 c1.616-1.048,0.114-3.646-1.515-2.59c-2.699,1.751-6.929,4.648-9.201,0.901c-2.185-3.604-1.884-9.231-1.871-13.27 c0.027-7.956,4.438-19.39,11.195-24.104c2.489-1.736-0.002,4.613-0.255,5.078c-1.225,2.255-3.017,4.158-4.838,5.936 c-2.072,2.022-4.609,3.695-7.392,4.532c-2.446,0.735-3.756-1.632-4.808-3.264c-2.233-3.461-4.918-5.516-8.263-2.213 c-3.913,3.863-6.286,9.332-9.509,13.746c-0.773,1.059-1.671,2.139-2.798,2.834c-1.366,0.842-0.688-5.318-0.687-5.327 c0.738-4.854,2.198-9.625,3.273-14.411c1.163-5.177,4.287-15.378-1.449-19.245c-1.815-1.223-3.849-1.574-5.996-1.736 c-1.157-0.088-2.323-0.076-3.482-0.125c-0.479-0.019-0.956-0.068-1.429-0.15c-0.536-0.125-1.072-0.249-1.607-0.373 c-1.351-1.026-1.85-0.833-1.496,0.576C92.009,88.947,89.403,87.454,88.267,88.991L88.267,88.991 M183.524,120.505c2.287-5.024-1.166-9.96-6.443-10.476c-5.942-0.581-11.176,3.094-15.089,7.183 c-3.793,3.963-23.243,35.601-7.703,35.817c6.454,0.09,12.88-6.471,17.01-10.622c9.172-9.22,15.956-20.688,21.653-32.277 c4.113-8.366,8.338-17.712,9.099-27.127c0.239-2.961-1.294-7.361-4.902-4.752c-3.773,2.729-5.814,8.311-7.584,12.375 c-3.91,8.977-7.277,18.33-10.356,27.623c-2.663,8.038-6.982,21.031,2.941,25.852c8.381,4.072,17.813-7.92,22.368-13.225 c6.679-7.781,12.62-16.316,18.005-25.037c-0.864-0.505-1.727-1.01-2.591-1.515c-2.238,4.445-19.534,40.451-7.877,39.624 c2.945-0.209,5.606-3.025,7.567-4.943c3.565-3.488,6.656-7.473,9.692-11.416c4.659-6.053,9.056-12.339,13.208-18.75 c-0.864-0.505-1.727-1.01-2.591-1.515c-2.655,4.863-4.919,9.972-6.825,15.171c-1.734,4.731-5.17,14.111-0.839,18.517 c3.422,3.481,7.94,0.664,11.05-1.841c6.444-5.191,11.715-11.834,16.792-18.315c8.812-11.247,18.146-23.137,23.784-36.369 c0.498-1.168,3.961-11.049-1.19-8.335c-2.906,1.532-5.098,4.918-7.029,7.436c-4.384,5.715-8.124,11.77-11.295,18.236 c-4.481,9.137-8.555,19.883-8.38,30.221c0.083,4.921,2.561,7.915,7.313,5.473c6.751-3.468,12.409-10.106,17.589-15.483 c3.923-4.072,7.883-8.213,11.434-12.62c-0.835-0.486-1.671-0.973-2.507-1.459c-1.29,3.472-4.925,8.879-6.658,13.078 c-3.655,8.853-6.093,18.089-6.11,27.713c-0.003,1.935,2.997,1.935,3,0c0.018-10.102,2.823-19.793,6.903-28.965 c1.659-3.729,4.349-7.235,5.758-11.029c0.511-1.375-1.573-2.619-2.507-1.459c-7.744,9.61-16.987,20.258-27.367,27.017 c-2.499,1.626-3.483,1.655-3.807-1.529c-0.461-4.536,0.785-9.296,1.944-13.636c3.532-13.214,10.363-25.54,18.945-36.118 c1.165-1.436,2.418-3.038,3.951-4.107c-1.324,0.923-0.793-1.756-1.273,0.312c-0.148,0.635-0.375,1.255-0.587,1.871 c-1.321,3.843-3.277,7.521-5.265,11.054c-3.084,5.481-6.994,10.595-10.652,15.697c-2.574,3.589-26.791,37.58-31.842,30.86 c-3.324-4.423,1.114-13.929,2.818-18.264c1.559-3.967,3.399-7.869,5.443-11.611c0.931-1.707-1.542-3.133-2.591-1.515 c-2.928,4.521-6.009,8.946-9.163,13.312c-4.785,6.625-9.898,14.243-16.57,19.143c-2.901,2.13-3.473,0.455-3.278-2.626 c0.271-4.264,1.951-8.576,3.395-12.55c2.327-6.405,5.141-12.679,8.207-18.765c0.866-1.721-1.568-3.17-2.591-1.515 c-7.537,12.207-16.163,25.661-27.651,34.48c-2.109,1.618-5.029,3.602-7.827,2.995c-3.202-0.694-5.104-3.675-5.454-6.719 c-1.08-9.382,4.513-20.398,7.705-28.888c2.34-6.223,4.574-12.533,7.503-18.508c0.617-1.258,4.773-7.202,4.583-7.448 c1.318,1.708-0.222,6.222-0.638,7.993c-1.398,5.954-3.795,11.694-6.308,17.246c-5.713,12.625-13.026,24.789-22.667,34.81 c-2.015,2.095-14.086,14.025-17.239,8.488c-1.725-3.028,0.676-8.443,1.735-11.293c2.544-6.843,6.09-13.604,11.168-18.91 c2.563-2.678,5.764-4.764,9.424-5.492c3.305-0.658,8.729,1.378,6.666,5.913C180.138,120.738,182.723,122.264,183.524,120.505 L183.524,120.505 M231.163,67.528c0.843,0.313,1.631,0.665,2.444,1.062c0.639,0.312,1.259,0.659,1.852,1.051 c0.229,0.151,0.427,0.326,0.62,0.521c0.117,0.118,0-0.237-0.017-0.081c-0.207,1.922,2.795,1.902,3,0 c0.194-1.807-1.974-3.032-3.296-3.751c-1.215-0.661-2.508-1.214-3.805-1.695C230.143,63.961,229.366,66.862,231.163,67.528 L231.163,67.528 M349.675,77.147c1.355-6.521,7.253-12.042,10.702-17.698c4.655-7.632,8.681-15.724,11.734-24.13 c2.289-6.302,4.588-14.181,1.745-20.661c-2.844-6.482-11.044-8.14-17.333-8.171c-20.771-0.101-41.144,14.846-52.69,31.122 c-9.455,13.327-18.34,32.211-16.516,49.001c1.978,18.2,21.675,13.188,33.456,7.729c8.665-4.015,15.891-10.427,24.358-14.768 c3.947-2.023,8.28-3.014,12.699-2.377c6.103,0.879,7.518,4.465,6.743,9.988c-0.988,7.055-1.247,13.473,6.126,16.949 c6.943,3.274,14.558-1.215,19.73-5.675c3.547-3.059,10.433-9.894,9.581-15.248c-1.016-6.386-7.979,1.948-9.074,3.589 c-5.481,8.204-8.994,18.899-8.473,28.793c0.176,3.315,0.762,7.799,4.072,9.499c3.953,2.03,8.675-1.646,11.58-3.927 c9.828-7.717,17.573-18.471,25.073-28.324c-0.863-0.505-1.727-1.01-2.59-1.515c-3.011,4.537-5.669,9.349-7.903,14.312 c-2.029,4.508-5.556,12.503-1.118,16.697c4.954,4.683,12.979-1.505,16.772-4.635c7.271-5.999,13.245-15.353,21.968-19.321 c-0.684-0.684-1.368-1.368-2.052-2.053c-3.423,4.622-6.365,9.698-8.427,15.07c-1.498,3.904-2.764,12.403,3.388,13.169 c5.354,0.667,10.022-6.485,12.736-10.048c2.552-3.352,4.984-6.792,7.529-10.15c1.817-2.398,4.19-6.036,7.134-7.171 c-0.564-0.734-1.129-1.469-1.693-2.203c-4.428,7.292-10.931,17.958-9.151,26.823c0.38,1.896,3.271,1.091,2.893-0.798 c-1.585-7.896,4.895-17.998,8.849-24.511c0.64-1.053-0.431-2.69-1.693-2.203c-4.153,1.601-6.957,5.949-9.537,9.353 c-4.107,5.421-7.776,11.373-12.819,16c-1.789,1.641-4.44,3.176-5.689,0.076c-1.217-3.021,0.742-7.244,1.955-9.97 c1.868-4.2,4.383-8.229,7.117-11.921c0.997-1.346-0.85-2.6-2.052-2.053c-6.106,2.778-10.858,8.561-15.517,13.197 c-3.898,3.879-12.944,14.636-19.43,11.32c-6.473-3.311,6.765-23.596,9.331-27.464c1.094-1.649-1.452-3.009-2.59-1.515 c-2.007,2.637-27.803,37.924-33.559,30.387c-2.744-3.593-1.711-10.818-1.027-14.665c0.984-5.532,3.165-10.882,5.788-15.822 c1.053-1.983,2.277-3.894,3.718-5.616c0.993-1.188,1.962-2.833,1.278-0.552c-2.244,7.492-11.033,14.922-18.35,16.843 c-4.773,1.253-10.246-1.218-11.437-6.174c-0.879-3.655,0.641-7.788,0.856-11.472c0.454-7.759-6.926-10.33-13.53-10.271 c-8.041,0.072-15.183,5.42-21.545,9.704c-10.832,7.292-41.462,24.691-42.668,0.467c-0.436-8.749,2.524-17.705,5.757-25.706 c3.811-9.43,9.179-18.443,15.869-26.108c8.294-9.503,19.867-16.676,31.8-20.584c7.894-2.585,21.128-4.842,26.93,3.061 c4.692,6.39-0.351,17.666-2.897,23.96c-3.301,8.158-7.614,16.043-12.47,23.377c-3.081,4.653-7.146,8.496-8.331,14.195 C346.39,78.237,349.282,79.041,349.675,77.147L349.675,77.147 M460.524,68.991c-1.525-2.792-2.618-6.356-1.849-9.511c0.459-1.879-2.435-2.677-2.893-0.798 c-0.968,3.967,0.228,8.303,2.151,11.822C458.862,72.203,461.453,70.689,460.524,68.991L460.524,68.991 M503.449,58.683c-5.522,18.746-9.219,38.134-12.669,57.342c-2.712,15.101-4.574,30.725-9.678,45.268 c-0.707,2.017-2.8,8.604-5.944,8.053c-3.716-0.651-6.274-7.5-7.634-10.354c-0.831-1.746-3.417-0.224-2.59,1.514 c2.253,4.732,7.809,16.156,14.438,10.11c3.058-2.788,4.418-7.729,5.618-11.511c2.456-7.733,3.943-15.797,5.433-23.758 c4.745-25.371,8.607-51.053,15.918-75.866C506.889,57.62,503.994,56.831,503.449,58.683L503.449,58.683 M470.729,130.415c0.184-8.519,10.854-10.54,17.328-12.21c8.742-2.256,17.614-4.75,25.39-9.474 c5.946-3.612,11.132-9.623,10.743-16.97c-0.254-4.801-4.646-3.444-7.133-1.271c-5.29,4.624-8.748,11.908-11.033,18.398 c-1.852,5.264-3.777,14.351,0.479,19.063c7.934,8.782,23.895-11.372,27.923-16.224c5.581-6.721,10.578-14.002,14.691-21.711 c2.847-5.334,6.707-13.173,5.48-19.423c-1.388-7.066-7.915,5.06-8.493,6.224c-2.402,4.836-4.388,9.897-6.224,14.969 c-1.772,4.898-3.831,10.547-2.944,15.856c0.971,5.82,5.73,9.207,11.477,7.151c5.832-2.087,11.071-8.561,15.303-12.762 c6.771-6.723,13.358-13.942,18.475-22.028c0.694-1.098,6.716-11.898,1.549-11.476c-4.826,0.395-9.09,8.585-11.269,12.076 c-4.806,7.698-8.557,16.579-8.377,25.776c0.127,6.523,3.232,12.479,10.263,8.906c6.838-3.476,11.877-11.077,16.266-17.15 c5.718-7.912,11.058-16.109,16.271-24.359c3.515-5.561,7.497-11.242,10.015-17.354c0.439-1.067,0.093-2.553-1.309-2.553 c-1.214,0-1.954,1.409-2.548,2.268c-3.51,5.081-6.391,10.673-9.144,16.187c-4.158,8.324-9.65,18.78-8.9,28.387 c0.565,7.253,6.694,7.357,11.313,3.489c8.305-6.955,14.011-17.852,19.754-26.84c5.75-8.998,11.34-20.487,19.881-27.215 c-0.836-0.486-1.671-0.973-2.507-1.459c-3.797,10.817-7.361,21.721-10.739,32.675c-2.501,8.107-4.881,16.262-6.854,24.515 c-1.149,4.808-2.915,10.6-2.126,15.603c0.669,4.244,3.737,4.952,4.982,0.612c1.885-6.562,2.14-13.53,3.73-20.167 c1.59-6.627,5.438-12.516,4.172-19.698c-1.398-7.93-8.265-9.382-15.113-10.75c-6.739-1.347-13.554-2.286-20.293-3.635 c-2.547-0.51-5.101-1.085-7.542-1.983c-2.176-0.801-1.673-0.516,0.217-1.416c9.245-4.404,19.336-7.421,29.034-10.628 c14.592-4.826,29.352-9.216,44.297-12.812c10.934-2.631,23.942-6.423,35.283-4.47c1.892,0.326,2.701-2.565,0.797-2.893 c-5.809-1.001-11.806-0.221-17.586,0.612c-8.749,1.262-17.389,3.318-25.943,5.511c-17.73,4.544-35.244,10.084-52.474,16.252 c-4.911,1.758-9.848,3.534-14.603,5.688c-3.215,1.457-5.024,4.419-1.167,6.467c6.109,3.244,14.391,3.605,21.087,4.744 c7.304,1.242,20.182,1.324,21.165,10.718c0.577,5.517-1.743,11.076-3.798,16.061c-1.846,4.481-2.009,10.054-2.799,14.794 c-0.381,2.281-0.778,4.565-1.357,6.806c-0.088,0.33-0.188,0.655-0.299,0.978c-0.316,0.97,1.78,1.069,1.437-0.007 c-0.248-0.778-0.335-1.57-0.357-2.38c-0.119-4.4,1.154-8.965,2.148-13.21c4.537-19.377,11.007-38.423,17.594-57.189 c0.554-1.576-1.454-2.289-2.507-1.459c-5.025,3.958-8.656,9.917-12.168,15.161c-5.023,7.502-9.722,15.218-14.718,22.738 c-3.9,5.872-8.028,12.783-13.826,17.004c-5.953,4.334-5.238-5.353-4.533-8.668c2.732-12.849,9.872-26.516,17.473-37.205 c0.829-1.166-1.554-2.78-2.046-1.428c-0.348,0.955-0.907,1.866-1.388,2.757c-1.846,3.427-3.898,6.747-5.938,10.059 c-5.17,8.391-10.585,16.642-16.215,24.731c-4.86,6.983-10.169,15.108-17.633,19.523c-6.068,3.59-5.93-6.411-5.686-10.018 c0.367-5.413,2.695-10.771,5.089-15.55c1.998-3.989,4.431-7.813,7.191-11.317c0.922-1.169,1.924-2.272,3.002-3.299 c0.381-0.362,0.789-0.666,1.237-0.938c-0.684-0.85-0.988-0.886-0.916-0.106c-0.082,0.412-0.187,0.818-0.312,1.218 c-2.448,8.681-10.65,16.503-16.622,22.873c-5.187,5.532-10.843,11.875-17.354,15.897c-3.268,2.018-6.979,0.859-8.259-2.77 c-2.079-5.89,1.574-13.495,3.607-18.948c1.96-5.256,4.196-10.463,6.953-15.355c0.414-0.735,0.877-1.437,1.356-2.131 c0.896-1.296-0.435-0.877-0.449,0.118c-0.035,2.335-0.573,4.735-1.221,6.977c-2.262,7.83-7.092,15.107-11.688,21.735 c-4.215,6.076-8.951,11.821-14.195,17.035c-3.418,3.397-8.388,8.502-13.554,8.809c-6.091,0.361-3.52-12.332-2.718-15.281 c1.775-6.532,5.324-13.143,9.938-18.114c1.017-1.096,2.862-3.361,2.976-1.215c0.208,3.943-2.021,7.53-4.654,10.238 c-5.69,5.853-14.504,8.549-22.108,10.803c-9.177,2.72-26.451,4.211-26.728,17.062 C467.687,132.351,470.687,132.347,470.729,130.415L470.729,130.415 M366.819,92.453c-4.075-2.846-7.238,8.913-7.735,10.49c-3.74,11.872-6.264,24.261-8.968,36.407 c-0.42,1.885,2.473,2.686,2.893,0.797c1.724-7.739,3.56-15.455,5.468-23.15c1.431-5.766,2.784-11.597,4.828-17.183 c0.479-1.31,2.7-4.282,2.001-4.77C366.895,96.154,368.393,93.552,366.819,92.453L366.819,92.453z"/>
</svg>