<?xml version="1.0" encoding="UTF-8" standalone="no"?>
<!-- Created with Inkscape (http://www.inkscape.org/) -->

<svg
   xmlns:dc="http://purl.org/dc/elements/1.1/"
   xmlns:cc="http://creativecommons.org/ns#"
   xmlns:rdf="http://www.w3.org/1999/02/22-rdf-syntax-ns#"
   xmlns:svg="http://www.w3.org/2000/svg"
   xmlns="http://www.w3.org/2000/svg"
   xmlns:sodipodi="http://sodipodi.sourceforge.net/DTD/sodipodi-0.dtd"
   xmlns:inkscape="http://www.inkscape.org/namespaces/inkscape"
   version="1.1"
   width="350"
   height="300"
   id="svg2"
   inkscape:version="0.48.1 "
   sodipodi:docname="Freddie.svg">
  <sodipodi:namedview
     pagecolor="#ffffff"
     bordercolor="#666666"
     borderopacity="1"
     objecttolerance="10"
     gridtolerance="10"
     guidetolerance="10"
     inkscape:pageopacity="0"
     inkscape:pageshadow="2"
     inkscape:window-width="1280"
     inkscape:window-height="738"
     id="namedview6"
     showgrid="false"
     inkscape:zoom="1.73"
     inkscape:cx="175"
     inkscape:cy="150"
     inkscape:window-x="-8"
     inkscape:window-y="-8"
     inkscape:window-maximized="1"
     inkscape:current-layer="svg2" />
  <metadata
     id="metadata8">
    <rdf:RDF>
      <cc:Work
         rdf:about="">
        <dc:format>image/svg+xml</dc:format>
        <dc:type
           rdf:resource="http://purl.org/dc/dcmitype/StillImage" />
        <dc:title />
      </cc:Work>
    </rdf:RDF>
  </metadata>
  <defs
     id="defs6" />
  <path
     d="m 166.16894,295.5738 c -4.09179,-2.04119 -4.12059,-2.11035 -4.04256,-9.70454 0.0665,-6.47577 0.74846,-8.90994 4.44685,-15.87343 12.50137,-23.53816 41.63906,-51.82074 96.44298,-93.61269 10.19987,-7.77813 18.55344,-14.49975 18.56348,-14.93689 0.0448,-1.94862 -8.66412,-27.25056 -9.37959,-27.25056 -0.43988,0 -1.63585,1.71963 -2.65771,3.82139 -2.86288,5.88831 -9.01542,13.81577 -10.72249,13.81577 -0.84272,0 -2.48992,2.16758 -3.66043,4.81685 -2.26373,5.1236 -2.17797,5.10223 -11.2899,2.81387 -2.69659,-0.67723 -3.09678,-0.26755 -4.55452,4.66253 -1.74582,5.90434 -4.92873,8.93877 -8.41991,8.02709 -1.68027,-0.43877 -2.74051,0.46909 -4.25737,3.64549 -2.21175,4.63154 -5.50567,6.37981 -8.04895,4.27207 -1.29154,-1.07037 -2.06011,-0.66239 -3.69331,1.96052 -3.3732,5.41737 -6.61865,8.60331 -8.76399,8.60331 -1.50321,0 -2.2278,1.42062 -2.84864,5.5851 -0.82882,5.55956 -2.32057,8.52462 -4.28883,8.52462 -0.56831,0 -1.0333,-1.20505 -1.0333,-2.6779 0,-4.85112 -3.1882,-7.90439 -8.25369,-7.90439 -7.41766,0 -10.21486,1.88831 -11.07813,7.47853 -1.97631,12.79773 -7.95089,23.09252 -13.4017,23.09252 -4.6463,0 -6.51972,-2.82823 -6.3136,-9.53143 0.36613,-11.9074 2.87991,-20.19521 5.94889,-19.61325 2.59004,0.49113 3.13384,10.76596 0.91079,17.20929 -1.54408,4.47537 -1.51685,4.88054 0.3281,4.88054 4.05754,0 7.67577,-5.7426 9.40766,-14.93117 0.84387,-4.47714 0.69904,-4.97014 -1.55549,-5.29495 -3.15687,-0.45481 -2.87706,-5.17689 0.50735,-8.56183 1.90955,-1.90987 2.73255,-2.08233 4.54447,-0.95237 1.63,1.01651 3.29636,1.04772 6.32831,0.1185 5.36459,-1.64411 12.25093,-0.3206 13.84928,2.66171 1.91438,3.57201 3.74956,1.4265 2.94043,-3.43767 -1.09277,-6.56922 2.78055,-16.67642 7.4299,-19.38796 3.44386,-2.00848 3.7146,-2.01983 3.7146,-0.1557 0,1.10588 -1.5896,3.81857 -3.53243,6.0282 -3.63679,4.13624 -5.09309,11.70001 -2.06058,10.70227 3.09782,-1.01921 8.84164,-10.18484 9.61665,-15.34564 0.75093,-5.00047 4.47669,-10.31915 5.76756,-8.23343 0.33285,0.53782 0.0314,3.48163 -0.66983,6.54182 -0.70126,3.06019 -0.87767,5.96076 -0.39202,6.4457 1.2282,1.22647 4.22287,-3.14861 4.22287,-6.1694 0,-1.36954 0.7144,-3.46571 1.58758,-4.65816 1.69902,-2.32024 4.29979,-1.59434 4.29979,1.20012 0,0.93187 0.7527,1.69431 1.67265,1.69431 1.90919,0 3.55146,-5.93628 2.53073,-9.14779 -0.37511,-1.18017 0.0478,-3.14247 0.93988,-4.36069 1.58192,-2.16034 1.77394,-2.15185 7.78948,0.34457 3.39216,1.40773 6.68954,2.23736 7.3275,1.84364 0.67229,-0.4149 0.83748,-2.86305 0.39295,-5.82321 -0.81709,-5.44104 0.87093,-10.38258 3.27038,-9.5738 0.76567,0.25809 1.39212,1.7453 1.39212,3.30493 0,2.0518 0.65099,2.83568 2.35495,2.83568 3.88095,0 8.85311,-11.41524 9.66997,-22.20052 0.41217,-5.44225 1.31504,-9.47976 2.30293,-10.29849 2.26243,-1.87498 2.93484,-0.8099 3.59301,5.69124 0.4977,4.91596 10.15285,37.59658 11.50706,38.94887 0.63398,0.63308 13.74736,-8.96509 31.29004,-22.90233 12.75327,-10.13216 17.58272,-14.4805 22.58836,-20.33808 1.99568,-2.33533 6.77048,-3.37493 6.77048,-1.4741 0,1.20378 -7.17977,7.96472 -14.71843,13.85985 -3.23805,2.53211 -6.15231,4.90213 -6.47611,5.26671 -0.32381,0.36459 -9.21787,7.20927 -19.76458,15.21042 -14.06117,10.66738 -18.98699,15.03802 -18.46778,16.38638 0.38943,1.01135 1.24357,6.206 1.89809,11.54368 3.06121,24.96436 -6.72839,47.25616 -32.14424,73.19524 -21.52798,21.97118 -53.48502,42.13545 -75.2486,47.48041 -9.72002,2.38714 -11.33241,2.37128 -16.40941,-0.16137 z m 23.04889,-6.59846 c 23.62504,-8.05126 45.72756,-21.67481 65.07885,-40.11332 20.68392,-19.70826 31.97465,-40.80834 31.97465,-59.75407 0,-10.19094 -2.15816,-23.16539 -3.85331,-23.16539 -1.81408,0 -30.03538,21.46104 -50.76511,38.60457 -19.68476,16.27934 -44.21376,40.22305 -53.05711,51.79109 -7.39873,9.67834 -14.78181,23.95757 -14.78181,28.58876 0,2.07679 0.8812,4.29646 2.06058,5.19047 3.27497,2.48255 14.28851,1.94368 23.34326,-1.14211 z m -25.06066,-81.57877 c 0.33975,-1.77473 0.31011,-3.72378 -0.0658,-4.33124 -0.76579,-1.2373 -1.70699,2.33644 -1.83424,5.50035 -0.13258,3.29635 1.22241,2.3709 1.90008,-1.16911 z m -13.3872,40.55874 c -0.0743,-23.44271 -0.22728,-50.31019 -0.90476,-59.67235 -1.16013,-16.03191 -1.79429,-16.9091 -3.17715,-18.04655 -1.20079,-0.98769 -5.78258,-1.0217 -14.3018,9.8028 -6.78116,8.61613 -18.23104,36.92867 -22.82112,59.39149 -5.19564,25.42634 -8.47448,35.8622 -11.267543,35.8622 -2.013799,0 -2.522492,-2.67257 -3.357047,-17.63715 -0.710928,-12.74786 -2.489648,-24.39329 -4.130856,-27.04507 -1.691428,-2.73291 -5.854389,-0.54449 -7.867455,6.60645 -2.248841,7.98848 -3.645002,10.06865 -2.25891,33.07858 0.49368,8.19538 0.727367,11.68812 0.639612,13.81135 -0.07403,1.79108 -0.354113,2.79559 -1.380941,2.89723 -1.050574,0.10398 -1.613677,-1.09413 -1.872723,-2.46087 -0.259046,-1.36674 -0.483346,-3.58038 -0.987815,-8.35312 -0.552896,-5.23092 -1.288906,-12.61529 -2.118145,-21.38045 L 72.12639,224.26899 c -0.100243,-1.07916 0.649634,-1.95032 1.705003,-2.03752 1.055369,-0.0872 1.978939,0.68062 2.093575,1.86863 l 0.580589,6.01684 1.136124,12.76215 c 0,0 0.02251,-2.14397 2.612257,-9.49108 2.589743,-7.34711 6.569729,-10.40551 9.513806,-8.83212 2.290275,1.22399 2.548536,0.19988 1.826242,-7.03593 -0.410916,-4.11648 -1.099878,-13.43705 -1.531025,-20.71238 -0.738078,-12.45456 -1.765296,-15.93621 -3.288158,-11.14489 -1.003301,3.15666 -7.362554,9.67513 -9.438804,9.67513 -1.251224,0 -1.832587,-1.11903 -1.832587,-3.52743 0,-2.30982 0.593833,-3.52743 1.720343,-3.52743 2.272934,0 6.17313,-4.218 9.045157,-9.78217 1.900256,-3.68151 2.275752,-6.54278 2.083138,-15.87344 C 87.248661,109.17639 72.95384,93.195055 45.29719,114.49282 33.53134,123.55343 16.08988,143.68044 8.45195,157.01128 4.58144,163.76664 2.5,165.28844 2.5,161.3629 c 0,-3.71145 16.71788,-26.11071 29.34962,-39.32373 18.02304,-18.85243 33.222877,-25.77524 43.223038,-19.68606 9.710186,5.91261 13.858573,17.7587 15.989108,45.65835 0.753112,9.86212 1.667015,17.92675 2.030896,17.92141 0.69128,-0.0106 2.238874,-2.71073 12.122888,-21.15489 7.76759,-14.49477 11.25596,-19.98877 12.69171,-19.98877 2.20756,0 1.14405,3.82775 -4.13593,14.88601 -2.91425,6.10352 -5.29864,11.33499 -5.29864,11.62552 0,0.2905 2.51686,-1.26223 5.59301,-3.45054 10.62691,-7.55973 16.80206,-6.1606 18.61052,4.2167 l 0.88132,5.0571 1.60915,-3.86668 c 0.88503,-2.12667 2.01565,-4.21033 3.13693,-4.63037 0.74595,-0.27943 1.92329,0.26255 2.51888,-0.22721 1.81496,-1.49247 2.97217,-4.94562 3.71768,-8.9129 0.4861,-2.58678 0.93771,-4.9678 1.0036,-5.29115 0.56075,-2.75199 3.65639,-10.51068 5.04321,-12.63996 1.85197,-2.84345 4.99284,-3.58623 4.97194,-1.17581 -0.0198,2.2734 -3.13948,12.01655 -5.04409,15.75296 -5.3799,10.55404 -2.13846,11.87463 5.35737,2.18263 2.74895,-3.55436 5.66043,-6.46449 6.46994,-6.46696 2.33354,-0.007 1.75296,1.30448 -3.86812,8.73833 -5.93446,7.8483 -10.73948,11.52772 -13.794,10.56269 -1.35593,-0.42838 -2.06058,-0.0285 -2.06058,1.16955 0,1.00129 -1.26106,2.1366 -2.80235,2.5229 -2.31449,0.58009 -3.05995,1.9145 -4.28205,7.66516 -0.81384,3.82956 -1.93717,7.04219 -2.49628,7.13919 -3.64948,0.63317 -3.86937,0.17978 -3.91419,-8.07031 -0.0735,-13.52034 -4.00802,-15.2712 -15.1782,-6.75419 -3.04729,2.32348 -7.29883,4.50945 -9.44789,4.8577 -3.38557,0.54862 -4.47202,1.67713 -8.135778,8.45074 l -4.228417,7.81755 1.089918,19.1715 c 0.992766,17.46261 4.967541,49.61146 5.408978,51.96623 0.115168,0.61434 1.079888,2.36913 0.427163,4.08363 -1.337918,3.51402 -0.184087,17.0968 1.235926,14.54925 0.48921,-0.87767 3.09878,-10.85528 5.79904,-22.17244 9.65863,-40.48083 18.39478,-62.68957 28.56663,-72.62116 10.79052,-10.53562 18.5499,-8.36711 19.66754,6.18789 0.34979,4.55535 1.09615,31.90854 1.06418,60.84817 -0.056,50.7068 -0.13856,52.6175 -2.27335,52.6175 -2.12543,0 -2.2207,-1.72784 -2.35035,-42.62312 z m 19.31285,-122.39816 c 0.91802,-6.68819 4.12209,-16.13154 6.3113,-18.60123 1.40323,-1.58301 1.46565,-2.46666 0.32465,-4.59563 -2.58615,-4.825415 -1.6604,-31.533711 1.65253,-47.677114 3.16073,-15.401664 7.69005,-28.387934 9.58092,-27.469945 2.8268,1.372385 -0.23162,55.149768 -4.04048,71.045096 -0.90074,3.758993 -0.75754,4.884693 0.76253,5.994623 1.04937,0.76624 1.48781,1.98652 0.99806,2.77783 -0.61305,0.99053 -1.31331,1.04675 -2.34881,0.18857 -2.53575,-2.10151 -2.82839,-0.1491 -0.78384,5.22949 2.62764,6.91244 3.3368,7.40009 4.93121,3.39092 0.74292,-1.86811 1.59045,-2.75389 1.88338,-1.96842 0.81989,2.19843 -2.35005,7.90201 -4.63612,8.34165 -1.27538,0.24526 -2.55512,-0.73987 -3.41809,-2.63121 -1.85106,-4.05688 -2.60446,-3.82087 -4.42466,1.38605 -3.59145,10.27375 -7.97978,13.23867 -6.79258,4.58932 z m 15.43401,-68.377015 c 0.65345,-17.953953 0.59788,-18.62505 -1.21701,-14.697623 -3.73581,8.084291 -6.14155,24.486666 -5.94974,40.565443 0.10032,8.407042 0.69467,16.079201 1.32085,17.049245 1.78969,2.77249 5.05565,-21.20424 5.8459,-42.917065 z m 11.61053,42.650862 c 0.75931,-8.119803 4.92332,-20.728519 7.13006,-21.589954 0.85748,-0.334729 1.46217,-4.524481 1.6429,-11.383204 0.56775,-21.547521 7.00743,-57.8503727 11.15468,-62.8831057 2.53501,-3.07626497 3.45336,-1.352527 2.81893,5.291145 -0.35511,3.7184997 -0.95786,12.5811657 -1.33945,19.6948167 -0.82053,15.295853 -3.46817,36.909465 -5.83708,47.650029 -1.36878,6.205984 -1.41972,8.594137 -0.26649,12.494369 0.78416,2.652028 1.89546,5.019674 2.46955,5.26142 0.5741,0.241747 2.74697,-4.636336 4.82861,-10.840203 4.50506,-13.426323 7.41521,-18.70341 10.31431,-18.70341 2.77911,0 3.68773,2.547729 2.72889,7.651619 -0.5719,3.044185 -1.37267,4.106481 -3.09551,4.106481 -1.89099,0 -2.18636,-0.547713 -1.58519,-2.939525 0.40634,-1.616739 0.42355,-2.939525 0.0383,-2.939525 -1.03312,0 -3.53683,6.566829 -5.94428,15.590806 -3.30024,12.370485 -8.53895,17.325584 -11.48679,10.864919 -0.73769,-1.616738 -1.65359,-2.915504 -2.03535,-2.886155 -0.38175,0.0294 -2.01875,2.807211 -3.63779,6.173 -2.16621,4.50334 -3.69097,6.22509 -5.77311,6.51894 -2.79515,0.39446 -2.82091,0.30802 -2.12512,-7.132463 z m 7.51073,-4.522283 c 2.94982,-7.150383 3.62928,-14.503593 1.27061,-13.75051 -1.58054,0.504623 -4.78634,9.21541 -6.11101,16.604788 -1.19584,6.670768 1.5882,5.029068 4.8404,-2.854278 z m 7.91351,-33.131387 c 2.27582,-14.720189 3.90269,-40.750553 2.46291,-39.407268 -3.16282,2.95087 -8.50942,52.635131 -5.66414,52.635131 0.63588,0 2.07642,-5.952538 3.20123,-13.227863 z m 30.38867,16.52013 c -0.98721,-1.007834 -1.41297,-2.571325 -1.41297,-3.989535 0,-1.418211 -0.79479,-2.883125 -1.76621,-3.255365 -2.60095,-0.996668 -1.97354,-7.59228 0.54702,-6.278073 2.49848,1.302691 3.37386,-2.39916 4.67019,-4.593163 2.24568,-3.800768 5.11925,-5.137188 6.4439,-2.996888 1.06212,1.716133 -1.56277,9.144457 -4.01413,11.359774 -2.58345,2.334683 -2.74087,4.852384 -1.22473,6.414229 0.86226,0.888257 2.69124,0.173942 3.66699,-0.587905 5.50863,-4.301048 6.47686,-10.325948 8.24079,-19.279148 1.3761,-6.984694 3.47027,-9.717881 3.43584,-4.484251 -0.0291,4.416861 -3.42467,17.690915 -5.56202,21.742959 -1.10587,2.096522 -3.06941,4.074754 -4.93533,5.380734 -2.47587,1.732888 -6.23742,2.457244 -8.08934,0.566632 z m -8.47781,-62.086666 c 0,-1.98721 11.21784,-12.9300137 13.25499,-12.9300137 3.71824,0 3.19007,2.184167 -1.17854,4.873674 -2.43259,1.4975907 -5.66216,4.1883577 -7.17685,5.9794727 -2.80407,3.315782 -4.8996,4.204046 -4.8996,2.076867 z"
     id="path2987"
     style="fill:#000000"
     inkscape:connector-curvature="0"
     sodipodi:nodetypes="sssscssssssssssssssssssssssssssssssssscscssssscssssssssssssssssssssssssssssssccsccsssssssssssszscszscczssssssssssssssscsssssscsssscscsscsssssssssscsscsssssssssssssssssssssssssssscsssssssssssscssscssccsssssssssssssssaassssssssss" />
</svg>
