<?xml version="1.0" encoding="UTF-8" standalone="no"?>
<!-- Created with Inkscape (http://www.inkscape.org/) -->

<svg
   xmlns:dc="http://purl.org/dc/elements/1.1/"
   xmlns:cc="http://creativecommons.org/ns#"
   xmlns:rdf="http://www.w3.org/1999/02/22-rdf-syntax-ns#"
   xmlns:svg="http://www.w3.org/2000/svg"
   xmlns="http://www.w3.org/2000/svg"
   xmlns:sodipodi="http://sodipodi.sourceforge.net/DTD/sodipodi-0.dtd"
   xmlns:inkscape="http://www.inkscape.org/namespaces/inkscape"
   id="svg2832"
   version="1.1"
   inkscape:version="0.47 r22583"
   width="904"
   height="580"
   sodipodi:docname="Frondizi_firma_58_1.jpg">
  <metadata
     id="metadata2838">
    <rdf:RDF>
      <cc:Work
         rdf:about="">
        <dc:format>image/svg+xml</dc:format>
        <dc:type
           rdf:resource="http://purl.org/dc/dcmitype/StillImage" />
        <dc:title></dc:title>
      </cc:Work>
    </rdf:RDF>
  </metadata>
  <defs
     id="defs2836">
    <inkscape:perspective
       sodipodi:type="inkscape:persp3d"
       inkscape:vp_x="0 : 0.5 : 1"
       inkscape:vp_y="0 : 1000 : 0"
       inkscape:vp_z="1 : 0.5 : 1"
       inkscape:persp3d-origin="0.5 : 0.33333333 : 1"
       id="perspective2840" />
  </defs>
  <sodipodi:namedview
     pagecolor="#ffffff"
     bordercolor="#666666"
     borderopacity="1"
     objecttolerance="10"
     gridtolerance="10"
     guidetolerance="10"
     inkscape:pageopacity="0"
     inkscape:pageshadow="2"
     inkscape:window-width="640"
     inkscape:window-height="483"
     id="namedview2834"
     showgrid="false"
     inkscape:zoom="0.40689655"
     inkscape:cx="533.92262"
     inkscape:cy="272.71708"
     inkscape:window-x="393"
     inkscape:window-y="285"
     inkscape:window-maximized="0"
     inkscape:current-layer="svg2832" />
  <path
     style="fill:#000000"
     d="m 225.50341,506.91068 c -1.22434,-1.47523 -1.09247,-1.92824 1.07139,-3.68074 4.26604,-3.45501 15.96757,-8.94017 15.96757,-7.48488 0,1.85156 -2.08308,3.71257 -4.15559,3.71257 -2.32235,0 -9.0626,4.62065 -10.41581,7.14036 -0.99567,1.85396 -1.17008,1.87607 -2.46756,0.31269 z m 385.15155,-0.36231 c -1.02797,-0.651 -1.22227,-2.13673 -0.74997,-5.73469 1.33365,-10.15974 1.55731,-12.17863 2.64285,-23.85605 0.61354,-6.6 1.76494,-17.625 2.55866,-24.5 0.79373,-6.875 1.90725,-18.125 2.4745,-25 1.35653,-16.44121 2.56562,-27.96945 3.80063,-36.23758 1.2185,-8.15758 0.0629,-13.76242 -2.83746,-13.76242 -1.96819,0 -10.24107,2.08568 -15.50179,3.90816 -5.50738,1.90794 -16.04577,4.85018 -23.56245,6.57847 -4.09065,0.94056 -9.01255,2.2887 -10.93755,2.99588 -1.925,0.70718 -6.05062,1.81217 -9.16805,2.45552 -5.5928,1.15421 -5.72243,1.26128 -9.76516,8.06621 -2.25342,3.79306 -4.54672,7.17434 -5.09624,7.51396 -0.54952,0.33963 -1.8488,2.27447 -2.88729,4.29965 -1.03848,2.02518 -2.88307,4.80715 -4.09909,6.18215 -1.21601,1.375 -3.39741,4.06874 -4.84755,5.9861 -10.66871,14.10601 -25.61197,29.22031 -36.02245,36.43478 -3.15575,2.18694 -4.26297,2.47305 -6.41059,1.65652 -2.85616,-1.08591 -4.35765,-5.87346 -3.39781,-10.834 1.18357,-6.11675 2.8625,-11.79739 3.75158,-12.6934 0.51846,-0.5225 0.94265,-1.80307 0.94265,-2.84571 0,-1.04264 0.61716,-3.09014 1.37147,-4.55 5.75202,-11.1322 7.82922,-16.18891 7.25975,-17.67294 -0.42984,-1.12013 -1.23456,-1.46003 -2.38965,-1.00935 -0.95786,0.37373 -5.56657,1.7365 -10.24157,3.02838 -4.675,1.29188 -9.85,2.80601 -11.5,3.36472 -10.43237,3.53255 -29.2799,9.1349 -30.7318,9.1349 -1.93179,0 -8.94526,2.46233 -12.7682,4.48273 -1.375,0.72668 -5.2,1.64413 -8.5,2.03877 -3.3,0.39464 -6.675,1.30369 -7.5,2.0201 -0.825,0.71642 -2.85,1.6072 -4.5,1.97952 -4.10867,0.92712 -13.74943,4.44199 -14.98786,5.46435 -0.55668,0.45956 -2.81214,1.1595 -5.01214,1.55543 -2.2,0.39594 -4.45,1.06263 -5,1.48155 -0.55,0.41892 -5.86203,2.14885 -11.8045,3.84428 -5.94248,1.69543 -11.22686,3.34363 -11.74307,3.66266 -0.51621,0.31904 -3.07919,1.17478 -5.69551,1.90164 -13.27097,3.68694 -26.07956,7.69051 -28.75693,8.98853 -1.65,0.79994 -8.4,3.23328 -15,5.40742 -13.33508,4.39278 -20.0034,6.75996 -23,8.16476 -3.54426,1.66154 -13.91049,5.14308 -17,5.70951 -1.65,0.30251 -3.45,0.89152 -4,1.30891 -0.55,0.41739 -2.4705,1.07337 -4.26777,1.45773 -1.79728,0.38435 -6.21748,2.23632 -9.82267,4.11547 -3.60519,1.87915 -7.62063,3.41664 -8.92321,3.41664 -4.70341,0 -3.4263,-1.98757 3.22721,-5.02251 3.73254,-1.70256 8.13644,-3.7273 9.78644,-4.49942 1.65,-0.77211 6.30472,-2.49777 10.34382,-3.83478 4.03911,-1.33702 7.84161,-2.92872 8.45,-3.53711 0.6084,-0.6084 2.02868,-1.11179 3.15618,-1.11864 1.1275,-0.007 7.48328,-2.2037 14.12396,-4.88188 6.64068,-2.67818 13.61568,-5.19954 15.5,-5.60301 1.88432,-0.40348 3.87604,-1.09029 4.42604,-1.52624 1.0043,-0.79606 10.39826,-4.29953 16,-5.96719 1.65,-0.49121 8.175,-2.77066 14.5,-5.06544 6.325,-2.29478 13.82611,-4.74686 16.66913,-5.44906 2.84301,-0.70219 5.69191,-1.59982 6.33087,-1.99472 0.63896,-0.3949 3.48786,-1.3197 6.33087,-2.05511 6.38711,-1.65217 22.59385,-7.12904 24.78678,-8.3764 0.88971,-0.50607 3.58971,-1.42485 6,-2.04174 2.4103,-0.61689 5.73236,-1.74211 7.38236,-2.50048 1.65,-0.75837 5.7,-2.10324 9,-2.98859 3.3,-0.88536 10.95,-3.14259 17,-5.01607 6.05,-1.87348 14.375,-4.36501 18.5,-5.53673 4.125,-1.17172 8.85,-2.58565 10.5,-3.14207 1.65,-0.55643 5.20442,-1.62561 7.89872,-2.37596 2.69429,-0.75036 5.37179,-1.83736 5.95,-2.41557 0.5782,-0.5782 2.11536,-1.05128 3.4159,-1.05128 1.30054,0 4.47304,-0.87833 7.05,-1.95184 2.57696,-1.07351 6.60319,-2.44229 8.94718,-3.04172 4.21652,-1.0783 11.2382,-6.4552 11.2382,-8.60571 0,-0.61222 1.50401,-3.09034 3.34224,-5.50693 1.83822,-2.41659 3.52613,-4.8438 3.7509,-5.3938 1.17191,-2.86766 7.21054,-11.5 8.04465,-11.5 0.53144,0 1.43686,-1.35 2.01205,-3 0.5752,-1.65 1.39575,-3 1.82346,-3 0.42771,0 3.77458,-4.3875 7.4375,-9.75 8.88884,-13.01326 12.82673,-18.40684 19.53031,-26.75 3.09342,-3.85 6.60762,-8.60461 7.80935,-10.56579 1.20173,-1.96119 3.0995,-4.39343 4.21725,-5.40499 3.15204,-2.85255 2.56028,-5.89485 -1.71771,-8.83093 -2.0625,-1.41554 -5.64564,-3.2183 -7.96254,-4.00613 -3.83216,-1.30307 -4.35493,-1.27508 -5.78936,0.30994 -1.52998,1.69061 -13.03382,5.9979 -16.0191,5.9979 -2.56516,0 -1.60501,-3.75206 1.57991,-6.17394 10.1556,-7.72254 29.07494,-25.33913 30.92454,-28.79514 1.23209,-2.30219 -0.84221,-5.14964 -6.67462,-9.16245 -3.68495,-2.53531 -4.95005,-2.94911 -6.34769,-2.07628 -2.12719,1.32846 -2.96114,0.62712 -2.96114,-2.49024 0,-1.3006 -0.69417,-2.6311 -1.5426,-2.95667 -1.90523,-0.73111 -5.4574,-7.50391 -5.4574,-10.40544 0,-5.44005 11.96155,-12.38987 17.80336,-10.34399 4.16905,1.46005 3.9637,4.69164 -0.73301,11.53565 l -4.09104,5.96143 5.16644,4.95354 c 2.84154,2.72444 5.50605,4.95353 5.92114,4.95353 0.41508,0 1.71668,1.98719 2.89243,4.41597 1.95741,4.04347 2.01631,4.69721 0.69822,7.75 -1.4228,3.29532 -12.14602,14.93005 -16.43684,17.83403 -1.21899,0.825 -2.32982,2.625 -2.46852,4 -0.24244,2.40347 -0.0591,2.48769 4.74782,2.18129 3.45901,-0.22049 6.38689,0.31209 9.5,1.72804 2.475,1.12571 5.175,2.03858 6,2.0286 0.825,-0.01 3.17809,-2.13759 5.22908,-4.72804 2.05099,-2.59044 5.65099,-6.81236 8,-9.38203 2.34901,-2.56968 6.74592,-7.49481 9.77092,-10.94473 3.025,-3.44992 7.6375,-8.59093 10.25,-11.42448 2.6125,-2.83354 4.75,-5.67092 4.75,-6.30527 0,-0.63436 0.3375,-1.15389 0.75,-1.1545 2.35481,-0.004 11.25674,-11.71795 11.2416,-14.79329 -0.008,-1.53323 1.70294,-9.5833 4.09044,-19.25081 1.00361,-4.06381 6.98984,-11.52543 10.01742,-12.48635 4.01757,-1.27512 7.45778,4.52434 4.99271,8.41667 -0.70085,1.10664 -1.10691,0.95587 -2.01987,-0.75 -1.234,-2.30576 -3.0723,-2.87392 -3.0723,-0.94955 0,0.65205 -0.95693,2.20415 -2.12651,3.44912 -1.20381,1.28139 -1.86829,2.9365 -1.53139,3.81445 0.83772,2.18306 2.74638,1.92855 3.36815,-0.44912 0.44857,-1.71534 3.28975,-2.9821 3.28975,-1.46676 0,0.54772 -3.27375,6.79948 -7.37508,14.08391 -2.12562,3.77534 -2.3754,5.76783 -3.00868,24 -0.37983,10.93557 -1.095,24.60785 -1.58926,30.38285 -0.49426,5.775 -1.16016,16.8 -1.47979,24.5 -1.26039,30.36352 -1.77237,38.05224 -2.64207,39.67728 -0.49781,0.93018 -0.90512,3.34828 -0.90512,5.37356 0,4.14223 -0.88196,4.0609 11,1.01435 3.575,-0.91664 7.4,-2.05888 8.5,-2.53832 3.33371,-1.45299 16.19081,-5.02687 18.08429,-5.02687 0.9756,0 4.95574,-0.93995 8.84476,-2.08879 9.7035,-2.86645 20.37307,-5.85705 24.57095,-6.88705 1.925,-0.47233 8.675,-2.30064 15,-4.06292 6.325,-1.76228 14.425,-3.81368 18,-4.55867 7.16169,-1.49241 29.81548,-6.6251 40,-9.06282 3.575,-0.8557 8.525,-1.9574 11,-2.44821 2.475,-0.49082 5.65476,-1.36253 7.06613,-1.93713 4.8029,-1.95537 10.81985,2.52707 9.17913,6.83819 -0.89723,2.35755 -8.16723,5.2466 -15.56174,6.18413 -4.01195,0.50867 -8.39449,1.34108 -9.73899,1.8498 -1.34449,0.50873 -4.91953,1.21601 -7.94453,1.57174 -8.52932,1.00303 -25.42954,4.49262 -37,7.63983 -5.775,1.57083 -15,3.79641 -20.5,4.94575 -13.94989,2.91512 -29.39708,6.59857 -40,9.5382 -4.95,1.37237 -11.54092,2.90057 -14.64648,3.396 -3.10557,0.49543 -6.48057,1.33231 -7.5,1.85974 -1.01944,0.52743 -3.52173,1.25996 -5.56066,1.62786 -2.03893,0.36789 -5.68939,1.54574 -8.11213,2.61743 -4.09744,1.81249 -4.44953,2.27346 -5.04286,6.6023 -0.35083,2.55957 -0.63787,9.26782 -0.63787,14.90723 0,5.6394 -0.65894,13.5641 -1.46432,17.61043 -0.80538,4.04633 -1.91264,14.78196 -2.46058,23.85696 -1.0853,17.97485 -2.32109,29.33695 -4.78562,44 -0.87821,5.225 -1.7372,12.58533 -1.90887,16.35628 -0.39231,8.61743 -2.28597,11.25624 -6.26803,8.73446 z M 497.8245,457.09949 c 4.73614,-1.99893 22.74088,-20.74031 29.82954,-31.04999 7.70621,-11.20781 8.3569,-12.10183 10.79251,-14.82857 3.32539,-3.72285 5.35862,-9.74173 3.88903,-11.51248 -1.2744,-1.53556 -5.31111,-0.9391 -10.7932,1.59479 -1.925,0.88975 -6.85505,1.85098 -10.95566,2.13606 l -7.45567,0.51833 -3.80482,6.5 c -2.09265,3.575 -4.19884,7.4 -4.68043,8.5 -3.38758,7.73767 -6.11421,12.73149 -7.644,14 -1.31595,1.0912 -6.47679,18.71683 -6.46606,22.08333 0.012,3.76023 1.95601,4.30927 7.28876,2.05853 z m 32.71788,-60.07422 c 3.025,-0.92201 6.625,-1.90422 8,-2.18269 1.375,-0.27846 3.50425,-0.7105 4.73166,-0.96007 3.07469,-0.62519 9.26834,-6.2426 9.26834,-8.40603 0,-0.97568 0.675,-2.33416 1.5,-3.01885 0.825,-0.68469 1.5,-1.8903 1.5,-2.67913 0,-1.52471 8.01836,-18.4502 11.52189,-24.32087 1.1488,-1.925 2.59261,-5.3 3.20846,-7.5 1.32566,-4.73568 2.79994,-23.5 1.84636,-23.5 -1.95538,0 -12.33249,11.19393 -14.66326,15.81747 -0.74376,1.47539 -2.71605,4.46056 -4.38287,6.63371 -1.66682,2.17315 -3.48058,4.71378 -4.03058,5.64585 -2.86355,4.85278 -9.20343,13.46905 -13.09723,17.79989 -2.42152,2.69332 -4.40277,5.65509 -4.40277,6.58171 0,0.92663 -1.575,3.60686 -3.5,5.95607 -1.925,2.3492 -3.51829,4.67494 -3.54064,5.16829 -0.0223,0.49336 -1.37235,2.45501 -3,4.35924 -1.62765,1.90422 -2.95936,4.31595 -2.95936,5.3594 0,2.21445 2.84804,2.0355 12,-0.75399 z m 44.08981,-12.87597 c 2.57555,-1.67169 20.79952,-7.46575 28.41019,-9.03264 7.77569,-1.60087 17.93595,-5.42256 19.03281,-7.15903 0.87653,-1.38765 1.45141,-9.30703 1.87762,-25.8655 0.33787,-13.12602 0.80119,-24.1679 1.02962,-24.5375 0.36179,-0.58539 0.69392,-7.59382 2.18452,-46.097 0.15969,-4.125 0.42199,-8.85 0.58289,-10.5 0.23967,-2.4578 -0.11411,-3.05775 -1.95746,-3.31955 -1.2375,-0.17575 -2.25,0.0691 -2.25,0.54424 0,0.47509 -1.6875,2.70677 -3.75,4.9593 -6.56715,7.17222 -9.60055,10.73625 -11.75902,13.81601 -1.15642,1.65 -4.32747,5.40591 -7.04678,8.34648 -2.71931,2.94056 -5.35017,6.09056 -5.84634,7 -0.49618,0.90943 -2.97118,3.77529 -5.5,6.36856 -8.83292,9.05803 -8.93545,9.29015 -9.44159,21.37476 -0.27687,6.61058 -1.30105,14.06293 -2.59882,18.9102 -1.17802,4.4 -2.50522,9.35 -2.94933,11 -0.44411,1.65 -2.8454,7.275 -5.3362,12.5 -2.4908,5.225 -5.33389,11.3 -6.31798,13.5 -0.98408,2.2 -2.44337,4.77074 -3.24287,5.71275 -0.7995,0.94202 -1.16482,2.46539 -0.81183,3.38527 0.53659,1.39832 1.67776,1.58935 6.96109,1.16525 3.47562,-0.27898 7.40388,-1.21121 8.72948,-2.0716 z M 561.20162,253.6894 c 0.63758,-0.40569 1.94957,-2.71286 2.91554,-5.12706 1.6832,-4.20674 1.68123,-4.44434 -0.0474,-5.70833 -2.11105,-1.54364 -4.99252,-0.43988 -7.75516,2.97066 -2.18119,2.69271 -2.21215,4.48939 -0.11725,6.80422 1.768,1.95362 3.14275,2.24496 5.00425,1.06051 z M 37.700169,487.77511 c -1.07324,-1.91777 -0.15106,-5.57541 6.06798,-24.06748 2.26588,-6.7375 4.49203,-12.25 4.947,-12.25 0.45498,0 0.82722,-1.56444 0.82722,-3.47653 0,-1.91209 1.5324,-7.64959 3.40532,-12.75 1.87293,-5.10041 4.37736,-12.64847 5.56541,-16.77347 1.18805,-4.125 2.77369,-9.075 3.52365,-11 0.74997,-1.925 2.27312,-6.425 3.3848,-10 1.11168,-3.575 2.67995,-8.525 3.48505,-11 0.8051,-2.475 2.1301,-6.75 2.94444,-9.5 0.81434,-2.75 3.27987,-10.625 5.47896,-17.5 2.19908,-6.875 4.7684,-15.2 5.70958,-18.5 0.94118,-3.3 2.3867,-8.025 3.21225,-10.5 0.82555,-2.475 1.86792,-6.075 2.31637,-8 0.44846,-1.925 2.15367,-8 3.78936,-13.5 1.63569,-5.5 3.28883,-11.49281 3.67365,-13.31736 0.38482,-1.82455 1.32948,-4.52455 2.09926,-6 0.76977,-1.47545 1.40236,-3.34809 1.40575,-4.16143 0.003,-0.81333 1.171051,-4.52727 2.594811,-8.25319 1.92427,-5.03576 3.14335,-6.88619 4.75,-7.20995 18.67935,-3.76409 27.1761,-5.77156 33.66135,-7.95292 5.11971,-1.72205 16.56217,-5.02381 22.5,-6.49245 2.2,-0.54414 6.25,-1.70377 9,-2.57695 12.92025,-4.10247 21.7118,-6.53575 23.61397,-6.53575 1.14607,0 3.50177,-0.6592 5.23489,-1.46488 1.73312,-0.80568 5.17613,-1.9665 7.65113,-2.57959 2.475,-0.6131 7.875,-1.94476 12,-2.95925 4.125,-1.01449 10.65,-2.80545 14.5,-3.9799 7.73161,-2.35854 16.36021,-4.60278 24,-6.24224 2.75,-0.59014 6.82958,-1.90574 9.06572,-2.92356 2.23615,-1.01782 5.83615,-1.86489 8,-1.88238 2.16386,-0.0175 4.80779,-0.6925 5.87541,-1.5 1.06762,-0.80751 3.77999,-1.4682 6.02749,-1.4682 2.2475,0 4.974,-0.61751 6.05887,-1.37225 3.37012,-2.34455 11.1627,-3.57477 13.20132,-2.0841 2.29087,1.67513 1.18216,2.68158 -4.56147,4.14071 -11.41806,2.9007 -14.04691,3.60717 -20.16734,5.41969 -3.575,1.05871 -7.49723,1.91841 -8.71607,1.91044 -1.21884,-0.008 -3.69384,0.63377 -5.5,1.42609 -1.80616,0.79232 -5.98393,2.17659 -9.28393,3.07615 -8.2368,2.24532 -22.36625,6.40566 -26,7.65557 -3.23123,1.11146 -10.69533,3.13479 -19.5,5.28597 -3.025,0.73908 -7.3,2.04357 -9.5,2.89886 -2.2,0.8553 -5.04208,1.57484 -6.31574,1.59898 -1.27366,0.0241 -3.21608,0.52574 -4.3165,1.11466 -1.10042,0.58893 -4.10834,1.45875 -6.68426,1.93294 -2.57593,0.47419 -7.83349,1.82937 -11.68349,3.01152 -3.85,1.18215 -9.475,2.7313 -12.5,3.44257 -3.025,0.71126 -7.975,2.05134 -11,2.97795 -10.55553,3.23333 -22.09284,6.30173 -30.5,8.1116 -7.63015,1.64261 -13.49824,4.1261 -13.50616,5.71607 -0.003,0.68012 -0.69478,2.55711 -1.53642,4.17108 -0.84164,1.61398 -1.92021,4.53898 -2.39682,6.5 -0.4766,1.96103 -1.83818,7.1655 -3.02571,11.5655 -1.187541,4.4 -3.649481,13.625 -5.470991,20.5 -1.8215,6.875 -4.70966,16.325 -6.41813,21 -1.70847,4.675 -3.11519,9.6475 -3.12604,11.05 -0.0109,1.4025 -0.47564,3.00591 -1.03286,3.56313 -0.55722,0.55722 -1.63868,3.90972 -2.40325,7.45 -0.76456,3.54028 -2.16128,9.13687 -3.10382,12.43687 -0.94254,3.3 -2.31577,8.69441 -3.05163,11.98758 -0.73586,3.29317 -1.99097,7.79317 -2.78915,10 -0.79817,2.20683 -2.2085,6.71242 -3.13407,10.01242 -0.92556,3.3 -2.54282,8.40254 -3.5939,11.33898 -1.05108,2.93645 -1.92055,6.31145 -1.93215,7.5 -0.0116,1.18856 -1.13464,5.31102 -2.49564,9.16102 -1.361,3.85 -2.47928,7.9 -2.48507,9 -0.006,1.1 -0.64624,3.21857 -1.42322,4.70792 -0.77699,1.48936 -1.97394,5.31436 -2.6599,8.5 -0.68595,3.18565 -2.01754,7.36708 -2.95909,9.29208 -0.94155,1.925 -2.03133,5.075 -2.42173,7 -0.3904,1.925 -1.63061,6.0875 -2.75603,9.25 -1.93331,5.43276 -2.22918,5.75 -5.36253,5.75 -2.06798,0 -3.67075,-0.63334 -4.2579,-1.68252 z m 85.508881,-12.98415 c -1.302,-1.302 -0.63411,-4.71357 1.71212,-8.74547 1.30833,-2.24832 2.71833,-5.66286 3.13332,-7.58786 0.415,-1.925 1.59454,-5.06834 2.62122,-6.98519 1.02667,-1.91686 1.86874,-3.94186 1.87127,-4.5 0.006,-1.35698 5.70427,-16.36051 7.41143,-19.51481 0.74417,-1.375 1.67241,-3.99281 2.06276,-5.81736 0.39034,-1.82455 1.33953,-4.52455 2.1093,-6 0.76977,-1.47545 1.40236,-3.47177 1.40575,-4.43626 0.003,-0.9645 0.90616,-3.43283 2.00616,-5.4852 1.1,-2.05236 2,-4.34379 2,-5.09208 0,-0.74828 0.63802,-2.55495 1.41783,-4.01481 1.4498,-2.71414 8.68356,-22.05676 11.27711,-30.15429 0.79272,-2.475 2.53565,-6.79496 3.87318,-9.59991 2.51886,-5.28233 3.13698,-9.84628 1.47283,-10.87478 -0.52747,-0.326 -3.11497,0.0733 -5.75,0.88721 -10.38167,3.20692 -22.05461,6.59999 -27.29095,7.9329 -14.89335,3.79108 -25.84783,6.84631 -29.11283,8.11964 -3.93568,1.53489 -9.887171,1.75238 -9.887171,0.36132 0,-0.47809 1.2375,-1.36033 2.75,-1.96053 1.5125,-0.6002 3.944431,-1.71555 5.404291,-2.47856 1.45986,-0.76301 4.04899,-1.38729 5.75363,-1.38729 1.70463,0 4.77853,-0.9 6.8309,-2 2.05236,-1.1 4.63823,-2.01527 5.74637,-2.03393 1.10815,-0.0187 3.81481,-0.90339 6.01481,-1.96607 2.2,-1.06268 4.9225,-1.94741 6.05,-1.96607 1.1275,-0.0187 2.4775,-0.41272 3,-0.87569 0.5225,-0.46296 3.63635,-1.41735 6.91966,-2.12087 3.28331,-0.70351 6.88331,-1.86644 8,-2.58427 1.11669,-0.71783 3.83034,-1.62254 6.03034,-2.01046 2.2,-0.38793 4.45,-0.98372 5,-1.32398 0.55,-0.34026 3.025,-1.06982 5.5,-1.62124 4.14039,-0.92245 4.58134,-1.32202 5.5179,-5 0.55985,-2.19858 1.57235,-4.98034 2.25,-6.18168 0.67766,-1.20134 1.2321,-3.14342 1.2321,-4.31574 0,-1.17232 0.53365,-3.1144 1.18589,-4.31574 1.10541,-2.03603 7.72552,-20.44204 9.7774,-27.18426 3.34084,-10.97762 8.43114,-22.5 9.93994,-22.5 0.46853,0 1.4239,0.68926 2.12305,1.53168 1.0374,1.24999 0.93618,2.6381 -0.55035,7.54777 -1.00184,3.30886 -2.19377,6.24616 -2.64873,6.52734 -0.45497,0.28118 -0.82721,1.42918 -0.82721,2.5511 0,1.12192 -0.62655,3.45786 -1.39232,5.19098 -0.76578,1.73312 -2.06021,5.17613 -2.8765,7.65113 -3.52665,10.69277 -6.87743,19.68911 -8.2516,22.15429 -0.81377,1.45986 -1.47957,3.49723 -1.47957,4.5275 0,1.03026 -0.70107,2.87411 -1.55793,4.09746 -1.93433,2.76163 -1.34825,3.78951 2.61235,4.58164 2.17101,0.4342 2.99888,1.11302 2.77081,2.27197 -0.35773,1.81788 -1.52454,2.61246 -6.97541,4.75016 -2.87129,1.12605 -3.80543,2.14479 -4.37777,4.77424 -0.40018,1.83851 -1.3451,4.23037 -2.09982,5.31525 -0.75473,1.08487 -1.37223,3.24472 -1.37223,4.79966 0,1.55493 -0.63968,4.06416 -1.42152,5.57606 -1.3804,2.6694 -3.25376,8.18306 -7.69635,22.65177 -1.18213,3.85 -2.98921,8.84929 -4.01573,11.10953 -1.02652,2.26024 -1.8664,4.40265 -1.8664,4.7609 0,0.35825 -0.82334,2.55896 -1.82965,4.89047 -1.68314,3.89963 -4.53194,11.91481 -10.21463,28.7391 -1.20752,3.575 -3.47804,9.2 -5.04561,12.5 -1.56756,3.3 -3.74518,8.81341 -4.83914,12.25201 -3.58834,11.27909 -8.46778,17.51784 -11.4043,14.58132 z m 83.38863,-53.58333 c -1.67533,-1.7875 -3.04814,-4.21734 -3.05068,-5.39965 -0.007,-3.32567 6.83861,-20.25993 10.44815,-25.84539 1.77892,-2.75273 4.09228,-6.41917 5.14081,-8.14765 3.77627,-6.22513 11.49048,-17.36012 13.22571,-19.09049 0.97448,-0.97175 2.31105,-3.01949 2.97016,-4.55054 1.002,-2.32753 0.94746,-2.88 -0.33278,-3.37128 -0.84214,-0.32316 -2.30191,0.0594 -3.24393,0.8501 -0.94201,0.79072 -4.86275,2.96433 -8.71275,4.83024 -5.42697,2.6302 -8.72265,3.51416 -14.66577,3.93362 l -7.66577,0.54104 -4.30763,6.5 c -2.36921,3.575 -7.58211,10.70571 -11.58424,15.84602 -4.00211,5.14031 -7.27658,9.69232 -7.27658,10.11557 0,1.2751 -13.35675,14.63501 -15.37675,15.38039 -2.27,0.83764 -4.62325,-0.90615 -4.62325,-3.42588 0,-1.29034 1.15939,-2.1512 3.88596,-2.88539 2.674,-0.72003 5.01988,-2.43018 7.52169,-5.48331 1.99965,-2.44032 4.89345,-5.69929 6.43065,-7.24217 1.53721,-1.54288 4.41427,-5.28023 6.39348,-8.30523 6.21961,-9.50603 11.83144,-17.41701 14.00131,-19.73762 1.9782,-2.11562 2.01867,-2.54443 0.74229,-7.86497 -1.26709,-5.28181 -1.21551,-5.88124 0.84009,-9.76237 1.20454,-2.27427 2.18883,-4.75118 2.1873,-5.50423 -0.0105,-5.15889 17.89638,-26.31445 23.45425,-27.70938 3.26228,-0.81878 5.87885,0.4572 6.40217,3.12204 0.37087,1.88851 -5.56498,14.45653 -6.82779,14.45653 -0.39071,0 -1.26975,1.22769 -1.95343,2.7282 -1.12801,2.47572 -1.33613,2.56189 -2.24877,0.9311 -0.77808,-1.39035 -0.36394,-2.74346 1.82973,-5.9782 1.55949,-2.29961 3.23977,-4.47318 3.73396,-4.83018 0.4942,-0.35699 0.61106,-1.39823 0.25969,-2.31387 -0.45183,-1.17746 -1.57484,-1.57291 -3.83633,-1.35092 -2.59739,0.25496 -3.91077,1.34612 -6.99794,5.81387 -2.09024,3.025 -4.38571,5.95 -5.10103,6.5 -2.13669,1.64285 -5.71729,8.08536 -5.71729,10.28699 0,1.12801 -0.7875,3.45973 -1.75,5.1816 -1.68189,3.00883 -1.67649,3.18563 0.13866,4.54267 1.03876,0.7766 2.41474,2.44177 3.05774,3.70037 0.99493,1.94748 1.83083,2.24435 5.61134,1.99284 5.27773,-0.35111 14.94226,-3.01965 14.94226,-4.12581 0,-0.42869 2.93009,-2.26667 6.51132,-4.0844 5.57494,-2.8297 6.86921,-3.14191 9,-2.17106 4.52025,2.05957 3.21206,6.33108 -6.28983,20.53757 -2.87182,4.29373 -5.22149,7.99246 -5.22149,8.21939 0,0.22693 -2.25,3.56586 -5,7.41984 -2.75,3.85398 -5,7.41408 -5,7.91133 0,0.88465 -3.28685,7.99343 -7.03395,15.21299 -2.27785,4.38873 -1.69559,10.50936 1.08368,11.39146 2.02896,0.64397 6.99366,-1.82826 15.45027,-7.69366 5.89727,-4.09028 24.16198,-22.04091 27.29141,-26.82212 0.89997,-1.375 3.04977,-4.3 4.77732,-6.5 1.72756,-2.2 5.083,-8.05 7.45653,-13 2.37354,-4.95 5.28906,-10.35 6.47892,-12 3.92994,-5.44971 7.49572,-12.14585 7.50198,-14.08786 0.003,-1.05168 0.6089,-3.06713 1.34558,-4.47879 0.73667,-1.41166 1.61909,-3.66166 1.96092,-5 1.00659,-3.94105 9.2213,-12.59014 12.59955,-13.26579 4.64592,-0.92919 8.50545,0.95157 10.97702,5.34914 2.00731,3.57152 2.10621,4.41792 1.07602,9.20817 -0.62395,2.90132 -1.20889,6.62513 -1.29986,8.27513 -0.14563,2.64154 0.13333,2.96764 2.33461,2.72919 1.375,-0.14894 5.78041,-2.51144 9.78979,-5.25 4.00939,-2.73855 7.54693,-4.97919 7.86122,-4.97919 0.31429,0 2.66081,-1.6875 5.2145,-3.75 4.82215,-3.89463 7.57652,-5.78198 10.13449,-6.94434 0.825,-0.37489 3.525,-2.08898 6,-3.80909 9.64646,-6.70422 15.06062,-8.12033 17.02353,-4.4526 0.89984,1.68136 0.53712,2.94888 -2.04454,7.14459 -1.72614,2.80534 -3.55924,6.04806 -4.07356,7.20603 -1.88966,4.25453 -12.91845,19.60541 -14.08544,19.60541 -0.43247,0 -1.91032,2.21815 -3.28413,4.92923 -1.37381,2.71108 -2.95959,5.21461 -3.52396,5.56341 -1.89508,1.17123 -3.89103,6.0849 -3.03459,7.47065 0.60549,0.9797 5.27084,-3.20674 17.17698,-15.41376 8.99014,-9.21732 19.91235,-20.19919 24.27159,-24.40415 4.35923,-4.20496 9.30924,-9.02089 11.00001,-10.70206 7.11304,-7.07269 15.53567,-13.59694 17.14479,-13.28054 3.66353,0.72037 3.97721,3.431 0.86709,7.49284 -4.27875,5.58809 -7.19225,9.96523 -9.06704,13.62198 -0.90866,1.77232 -2.74988,4.53731 -4.0916,6.14442 -3.28234,3.93158 -11.48581,21.29164 -11.0561,23.39676 0.27256,1.33529 1.40446,1.65382 5.50105,1.54804 5.92176,-0.15291 8.47498,-1.54801 28.07606,-15.3409 2.36507,-1.66426 4.45492,-3.02592 4.64411,-3.02592 1.68299,0 13.01896,-12.25872 14.56228,-15.74765 1.07325,-2.42624 3.40287,-6.28808 5.17694,-8.58185 4.3396,-5.61086 20.08687,-20.93591 24.49352,-23.83679 2.73523,-1.80059 4.62752,-4.62528 8.28344,-12.36499 2.60609,-5.51721 6.01121,-12.04221 7.56694,-14.5 1.55572,-2.4578 4.0922,-6.86494 5.63662,-9.79366 5.03105,-9.54052 12.87049,-18.50506 15.70971,-17.96435 2.98317,0.56813 2.30405,4.68462 -2.30553,13.975 -2.51249,5.06379 -4.56816,9.7591 -4.56816,10.434 0,0.6749 -1.52521,3.22523 -3.38935,5.66739 -1.86414,2.44216 -3.68367,5.3676 -4.04339,6.50099 -0.35972,1.13338 -1.69395,3.59309 -2.96495,5.46602 -1.27101,1.87292 -3.73653,6.00297 -5.47894,9.17788 -1.74241,3.17491 -4.4624,7.65387 -6.04441,9.95325 -5.14499,7.47798 -8.71861,16.69304 -9.92176,25.5846 -0.96514,7.13264 -0.91871,8.69722 0.29413,9.91006 1.25361,1.25361 1.86831,1.11033 4.74444,-1.10586 6.74484,-5.19723 26.8212,-26.07157 34.80423,-36.18761 2.475,-3.1363 6.075,-7.48518 8,-9.66417 5.38849,-6.09946 8.48747,-10.11644 10.54871,-13.67354 2.03521,-3.51219 5.04056,-5.05945 6.66738,-3.43263 1.08668,1.08668 0.84202,1.67658 -5.55402,13.39109 -2.01414,3.68895 -3.66207,7.14655 -3.66207,7.68355 0,0.53701 -1.33132,3.14378 -2.9585,5.79282 -3.57892,5.82649 -5.16805,14.94692 -2.765,15.86906 2.9531,1.13321 9.6386,-3.59583 17.53677,-12.40478 4.3857,-4.89144 8.79856,-10.18824 9.80636,-11.77068 1.00779,-1.58243 2.40566,-3.23701 3.10636,-3.67684 0.70071,-0.43983 1.27401,-1.43667 1.27401,-2.2152 0,-0.77854 1.2375,-2.89516 2.75,-4.7036 1.5125,-1.80845 3.23215,-4.15983 3.82144,-5.22528 0.5893,-1.06546 1.6018,-2.11398 2.25,-2.33004 1.94728,-0.6491 1.32767,3.32889 -0.82144,5.27381 -1.1,0.99549 -2,2.33104 -2,2.9679 0,0.63685 -1.35,2.4513 -3,4.0321 -1.65,1.5808 -3,3.58998 -3,4.46485 0,0.87487 -0.7875,2.33796 -1.75,3.25132 -0.9625,0.91336 -3.09573,3.37587 -4.74052,5.47224 -4.14179,5.27895 -18.18698,19.44005 -21.37857,21.555 -3.83263,2.53975 -7.61493,2.22802 -10.01689,-0.82559 -2.31606,-2.94439 -2.00526,-6.64465 1.04179,-12.40301 1.0143,-1.91686 1.84419,-4.05436 1.84419,-4.75 0,-2.3624 -3.85442,-1.278 -5.95801,1.67622 -1.15181,1.61757 -3.61972,4.5119 -5.48425,6.43185 -1.86452,1.91996 -5.3232,6.05127 -7.68595,9.18071 -6.42974,8.51613 -19.54349,21.10907 -24.46111,23.48965 -3.80187,1.84045 -4.6721,1.9368 -7.03248,0.77856 -2.65951,-1.30501 -3.71738,-2.65028 -4.77466,-6.0718 -0.86258,-2.79143 -4.26938,-2.03317 -6.73946,1.5 -8.31887,11.89924 -16.53435,17.8985 -21.23253,15.50481 -1.50825,-0.76844 -1.76565,-1.71839 -1.33519,-4.92768 0.43607,-3.25116 0.26051,-3.87106 -0.96334,-3.40143 -0.82313,0.31587 -2.11726,0.5743 -2.87585,0.5743 -0.75859,0 -2.18429,0.81067 -3.16821,1.80149 -3.92352,3.95101 -15.30307,12.16395 -17.68078,12.76072 -1.38938,0.34871 -3.0257,1.23594 -3.63626,1.97162 -0.61056,0.73569 -2.42386,1.62616 -4.02955,1.97883 -1.60569,0.35267 -3.17615,1.05659 -3.48992,1.56428 -0.65524,1.0602 -6.47023,1.23721 -8.98187,0.2734 -4.47296,-1.71644 -4.76099,-12.80314 -0.60014,-23.10034 3.01297,-7.45641 1.04842,-6.87934 -8.51084,2.5 -11.43833,11.22304 -25.21883,23.60939 -27.41672,24.643 -1.04439,0.49114 -2.13573,1.61614 -2.42522,2.5 -0.28948,0.88385 -1.98688,2.61325 -3.772,3.84312 -1.78512,1.22987 -4.1923,2.92852 -5.3493,3.77479 -2.90316,2.12347 -5.39637,0.92818 -5.39637,-2.58711 0,-3.96727 2.81429,-9.16582 13.91495,-25.70371 5.27178,-7.85395 10.03505,-15.05202 10.58505,-15.99571 0.55,-0.94369 1.7875,-2.9122 2.75,-4.37446 1.84482,-2.80271 2.26195,-5.41549 0.99008,-6.20154 -1.0364,-0.64053 -13.39541,6.8778 -14.47383,8.80483 -0.4761,0.85073 -1.55245,1.54679 -2.3919,1.54679 -0.83944,0 -4.07958,1.93038 -7.20031,4.28973 -7.58903,5.73751 -13.17916,9.29671 -20.17404,12.84469 -6.27374,3.18221 -8.22062,5.36377 -12.23407,13.70886 -2.28983,4.7612 -5.30222,10.45672 -6.6942,12.65672 -4.57121,7.22474 -5.00233,7.96634 -6.60524,11.36211 -1.32259,2.80193 -10.43257,12.59558 -16.55038,17.79244 -0.87114,0.74 -3.2276,1.34545 -5.23658,1.34545 -3.27102,0 -3.81525,-0.38905 -5.20841,-3.72335 -0.85564,-2.04785 -1.42418,-4.86035 -1.26342,-6.25 0.4719,-4.0791 -3.24621,-3.85284 -5.7077,0.34733 -1.62559,2.77383 -17.3247,18.10567 -22.66409,22.13387 -6.28387,4.74075 -13.96784,8.49215 -17.39443,8.49215 -1.34862,0 -3.6307,-1.377 -5.38617,-3.25 z m 67.5493,-30.00589 c 3.35754,-4.53426 7.38594,-10.49411 8.95199,-13.24411 1.56606,-2.75 3.14747,-5.225 3.51424,-5.5 1.37857,-1.03361 5.79119,-10.74762 6.43074,-14.15671 l 0.66528,-3.54626 -5.66736,-0.58493 c -6.09918,-0.62949 -8.49594,-0.16598 -8.50559,1.64489 -0.003,0.62865 -2.02561,4.06801 -4.49391,7.64301 -2.4683,3.575 -4.49333,6.95 -4.50007,7.5 -0.007,0.55 -0.63279,2.18931 -1.39122,3.6429 -2.93874,5.6323 -5.60871,15.08698 -5.60871,19.86108 0,4.51614 0.21612,4.99545 2.25,4.99013 1.65465,-0.004 3.86529,-2.18728 8.35461,-8.25 z m 23.20733,-42.70362 c 1.20343,-1.62773 2.18806,-3.63077 2.18806,-4.45121 0,-0.82043 0.675,-4.0832 1.5,-7.25059 2.18472,-8.38771 1.98425,-13.00916 -0.62488,-14.40552 -1.72881,-0.92524 -2.61418,-0.77224 -4.75,0.82079 -3.26712,2.43685 -3.84744,4.99738 -1.51854,6.70031 1.70278,1.24511 1.69554,1.42578 -0.16213,4.04884 -7.91785,11.18009 -8.96408,14.45837 -5.19445,16.2764 3.84646,1.85507 6.26841,1.36315 8.56194,-1.73902 z m 141.45233,-11.79161 c 3.77525,-3.75425 13.00078,-15.32362 15.69367,-19.68081 1.21285,-1.96244 2.57447,-3.56807 3.0258,-3.56807 0.77468,0 3.01627,-5.31307 3.01627,-7.14922 0,-0.46793 -0.89824,-0.85078 -1.9961,-0.85078 -1.83152,0 -15.88238,13.56489 -20.71651,20 -7.00236,9.32143 -6.21399,18.39973 0.97687,11.24888 z m 48.73574,-73.74888 c 0,-0.825 -0.45,-1.5 -1,-1.5 -0.55,0 -1,0.675 -1,1.5 0,0.825 0.45,1.5 1,1.5 0.55,0 1,-0.675 1,-1.5 z M 89.073389,366.5078 c -0.32287,-0.5224 0.29827,-1.42362 1.38029,-2.0027 2.09918,-1.12345 3.72969,0.10637 2.5887,1.95253 -0.78326,1.26734 -3.19788,1.29786 -3.96899,0.0502 z M 212.10458,345.55829 c -0.37893,-0.61313 0.0146,-1.38475 0.87441,-1.71471 0.85986,-0.32996 1.56338,-1.40364 1.56338,-2.38595 0,-0.98231 0.675,-2.04504 1.5,-2.36163 2.27714,-0.87382 1.81187,1.68761 -0.8744,4.81382 -1.52691,1.77698 -2.62032,2.36536 -3.06339,1.64847 z m 106.4531,-129.73544 c 0.0413,-2.33429 2.36285,-3.79181 8.62814,-5.41697 3.7711,-0.97819 9.162,-2.65707 11.97978,-3.73084 2.81778,-1.07377 7.31185,-2.28051 9.98683,-2.68164 2.67497,-0.40114 5.99452,-1.30236 7.37677,-2.0027 1.38224,-0.70035 4.72577,-1.59563 7.43006,-1.98952 2.7043,-0.39388 5.8543,-1.31903 7,-2.05587 1.14571,-0.73685 3.88311,-1.64817 6.08311,-2.02515 2.2,-0.37698 6.25001,-1.33738 9.00001,-2.13422 2.75,-0.79684 7.25,-2.06437 10,-2.81674 2.75,-0.75237 8.15,-2.30678 12,-3.45424 3.85,-1.14747 7.63545,-2.07979 8.41211,-2.07182 0.77666,0.008 3.92666,-0.7127 7,-1.60149 9.61359,-2.7802 18.31068,-5.24581 26.08789,-7.39588 14.14561,-3.91066 18.50495,-5.23338 21.78393,-6.60972 1.80616,-0.75813 4.28116,-1.37699 5.5,-1.37525 2.72834,0.004 15.44592,-3.47473 22.26062,-6.08893 2.7745,-1.06433 9.2995,-3.04481 14.5,-4.40106 10.79027,-2.81402 20.97672,-5.63627 28.95545,-8.02239 3.025,-0.90466 7.975,-2.20735 11,-2.89488 3.025,-0.68753 6.45421,-1.76251 7.62046,-2.38884 1.16626,-0.62633 3.86626,-1.56049 6,-2.07591 5.36185,-1.29518 17.59314,-4.65176 25.37954,-6.9648 19.97767,-5.93461 23.81372,-6.99501 27,-7.46365 1.925,-0.28313 5.525,-1.18266 8,-1.99896 11.69368,-3.85678 37.98733,-11.67338 51,-15.16133 4.675,-1.2531 11.875,-3.2372 16,-4.40911 4.125,-1.17192 9.3,-2.63633 11.5,-3.25425 2.2,-0.61792 6.89713,-2.03334 10.43806,-3.14539 7.73912,-2.430497 18.28161,-5.282199 26.87278,-7.268981 3.47096,-0.802689 7.24559,-1.959703 8.38808,-2.571142 1.14248,-0.611439 5.95261,-2.18179 10.68916,-3.489668 4.73656,-1.307878 11.53692,-3.240643 15.11192,-4.295032 3.575,-1.054389 9.2,-2.669966 12.5,-3.590172 14.25968,-3.976315 17.05539,-4.834155 18,-5.523154 0.55,-0.40117 3.40176,-1.034984 6.33725,-1.408476 2.93549,-0.373492 6.08549,-1.104838 7,-1.625215 0.91451,-0.520376 4.36275,-1.606768 7.66275,-2.414204 3.3,-0.807436 9.375,-2.43158 13.5,-3.609208 10.6058,-3.027805 16.55791,-4.098846 20.81244,-3.745057 3.18548,0.264892 3.73053,0.679916 4.00317,3.048189 0.24253,2.106809 -0.22052,2.942966 -2,3.611512 -6.61026,2.483449 -9.67922,3.428537 -13.31561,4.100549 -2.2,0.406564 -9.4,2.185342 -16,3.95284 -6.6,1.767499 -13.575,3.601588 -15.5,4.075754 -1.925,0.474166 -6.875,1.838594 -11,3.032062 -4.125,1.193469 -9.975,2.743574 -13,3.444679 -3.025,0.701105 -10.04988,2.684658 -15.61084,4.407897 -5.56097,1.723239 -11.31292,3.133161 -12.78212,3.133161 -1.4692,0 -4.28678,0.675 -6.26128,1.5 -1.97451,0.825 -4.36073,1.5 -5.30273,1.5 -0.94199,0 -4.59954,0.964923 -8.12787,2.144269 -3.52834,1.17935 -7.99016,2.491977 -9.91516,2.916937 -1.925,0.42496 -7.1,1.73898 -11.5,2.92004 -4.4,1.18106 -10.7,2.752 -14,3.49096 -3.3,0.73897 -7.35,1.82262 -9,2.40811 -1.65,0.58548 -6.375,1.9835 -10.5,3.1067 -4.125,1.12319 -9.75,2.67478 -12.5,3.44797 -2.75,0.77318 -6.8,1.86158 -9,2.41867 -9.15233,2.31756 -13.3302,3.58625 -19.35714,5.87815 -3.49642,1.32962 -9.12142,2.99805 -12.5,3.70763 -3.37857,0.70959 -8.39286,2.00934 -11.14286,2.88835 -2.75,0.87901 -7.7,2.31961 -11,3.20133 -3.3,0.88173 -10.275,2.90329 -15.5,4.49236 -5.225,1.58907 -14.675,4.23455 -21,5.87884 -19.86881,5.16523 -29.77953,7.93825 -39.71845,11.11321 -3.42015,1.09256 -6.90085,1.98647 -7.73489,1.98647 -0.83404,0 -5.46074,1.17709 -10.28155,2.61576 -4.82081,1.43867 -11.09122,3.18962 -13.93424,3.891 -2.84301,0.70138 -5.62947,1.55975 -6.19213,1.90749 -0.56266,0.34774 -3.63655,1.11337 -6.83087,1.7014 -3.19433,0.58802 -6.25787,1.4256 -6.80787,1.86128 -0.99476,0.78799 -5.09484,1.86964 -17.5,4.61671 -3.575,0.79167 -7.4,1.86644 -8.5,2.38837 -3.547,1.68298 -14.38017,5.01799 -16.30005,5.01799 -1.94128,0 -13.86076,3.38036 -18.19995,5.16151 -1.375,0.5644 -5.65,1.6239 -9.5,2.35444 -3.85,0.73053 -10.375,2.28508 -14.5,3.45456 -4.125,1.16947 -10.875,3.04359 -15,4.16471 -4.125,1.12112 -9.75001,2.6568 -12.50001,3.41264 -2.75,0.75583 -7.025,1.89854 -9.5,2.53935 -2.475,0.64082 -6.075,1.75138 -8,2.46793 -5.76863,2.14726 -17.22509,5.44482 -18.91841,5.44536 -0.86987,2.8e-4 -3.83159,0.85472 -6.58159,1.89875 -5.6699,2.15257 -16.50783,3.77384 -16.48469,2.46597 z m 228.7347,-1.44532 c -2.25129,-1.31125 -2.22332,-3.18158 0.0787,-5.26491 3.75986,-3.40263 9.99192,-0.66425 7.0437,3.09501 -2.71209,3.45819 -4.15556,3.89795 -7.12244,2.1699 z m 132.86198,-46.45078 c -1.56738,-1.56737 -1.55787,-1.877 0.14731,-4.79668 3.09305,-5.29602 11.24071,-6.29494 11.24071,-1.37814 0,4.92951 -8.19165,9.37119 -11.38802,6.17482 z"
     id="path2866" />
</svg>
