<?xml version="1.0" encoding="UTF-8" standalone="no"?>
<!-- Created with Inkscape (http://www.inkscape.org/) -->
<svg
   xmlns:svg="http://www.w3.org/2000/svg"
   xmlns="http://www.w3.org/2000/svg"
   version="1.0"
   width="593"
   height="256"
   id="svg2">
  <defs
     id="defs5" />
  <path
     d="M 509.11104,175.46312 C 512.42323,176.15441 512.58057,170.50018 509.50516,170.09926 C 506.39482,169.69379 504.55387,175.09962 508.4988,175.46209 M 510.79635,180.9032 C 505.14887,181.0667 499.34912,178.04613 500.45037,171.97682 C 501.92403,163.85506 509.18331,163.26841 508.91887,162.62981 C 506.56659,159.72796 497.84128,154.25585 488.95037,155.65354 C 479.70674,157.10669 473.9687,159.81662 468.23744,165.43575 C 462.20304,171.35209 460.79907,173.62681 459.95857,178.84926 C 459.38164,182.43401 458.29225,183.92395 457.36272,183.92395 C 456.3611,183.92395 455.85235,182.73406 453.95534,179.1287 C 449.50407,170.66883 446.56709,167.64104 438.43779,173.60849 C 432.84598,177.71326 432.45037,178.50887 432.45037,185.64966 C 432.45037,189.96477 432.15952,190.92488 430.98844,190.47549 C 424.48481,182.74582 416.82634,178.34156 406.79673,176.09926 L 401.45037,176.09926 L 401.45037,184.59926 C 401.45037,184.59926 401.68436,191.95093 400.93494,192.48074 C 399.89154,193.21838 393.76376,193.09926 390.4695,193.09926 C 387.17524,193.09926 381.63168,193.23745 380.31332,192.58383 C 379.51159,192.18634 380.13071,188.34926 380.13071,188.34926 C 380.52394,185.44022 381.72438,183.18778 382.30232,181.9833 C 384.46823,177.46939 388.73151,174.48954 391.45037,170.20625 C 391.45037,167.26464 390.00838,166.09926 386.36858,166.09926 C 382.63404,169.67545 379.98563,172.89981 374.90196,174.10931 C 369.57737,175.21469 368.28474,175.06054 362.20037,172.59455 C 360.59911,171.94557 360.45037,172.78685 360.45037,182.49227 L 360.45037,193.09926 C 355.02494,193.6211 351.62118,192.42261 347.72911,188.52968 C 343.5935,184.21352 343.36731,183.67988 343.65052,178.90741 L 343.95037,173.85472 L 346.70037,176.61335 C 348.21287,178.1306 349.45037,180.21062 349.45037,181.23562 C 349.45037,182.41875 350.16475,183.09926 351.40677,183.09926 C 353.24214,183.09926 353.36413,182.33554 353.37884,170.75384 C 353.38746,163.96385 353.68752,157.64483 354.04565,156.71157 C 354.87559,154.54876 356.66747,155.10235 357.9375,157.91395 C 360.86735,162.75752 364.06402,166.38805 369.63097,168.46959 C 373.19216,169.31045 376.1416,168.0772 380.95902,163.73302 C 384.41926,161.71189 386.23146,157.00545 389.45037,156.09926 C 392.77224,157.20829 398.44216,165.79204 399.30593,169.44329 C 399.40902,170.33007 400.19835,170.2125 402.70037,170.16675 C 411.36886,170.00826 414.67423,170.96601 420.6419,173.90106 L 426.33342,176.7003 C 428.67663,174.25353 429.87626,171.393 432.2307,168.33905 C 437.27855,161.79143 451.35743,161.21662 454.3816,167.84926 C 455.37651,170.03131 457.32201,172.47012 458.45037,169.17945 C 459.97358,164.73727 468.96219,157.11216 473.22397,154.5348 C 481.54981,149.49967 483.48807,149.73663 495.39111,148.51643 C 502.51532,147.78611 512.43698,153.23321 514.97368,159.42272 C 528.19032,162.75637 541.42849,163.38005 553.45629,169.60114 C 559.14531,172.54365 563.42328,176.36081 566.76914,181.51114 C 579.61169,204.9275 573.98389,246.44492 537.87026,231.23708 C 532.66895,227.84064 528.45037,223.54022 528.45037,221.63444 C 528.45037,220.18399 531.09263,221.44677 534.5013,224.52631 C 538.76307,228.37656 544.19212,229.6668 552.69397,228.84988 C 563.14169,227.84598 567.89961,218.37712 565.54698,201.01629 C 564.5639,193.7618 562.31917,188.72739 556.95037,183.80627 C 545.38337,173.20379 532.06918,169.15801 517.09455,165.70461 C 516.86441,165.26749 522.40354,180.60598 511.16202,180.93704 M 391.83771,188.0077 C 392.91278,187.86642 394.45037,185.66376 394.45037,183.49227 C 394.45037,180.39374 394.19165,180.09926 391.46942,180.09926 C 389.12445,180.09926 388.35473,180.63215 387.86158,182.59702 C 386.70793,187.19352 388.9731,188.38418 391.83771,188.0077 z M 201.45037,229.09926 C 200.07537,228.02372 198.16287,227.13373 197.20037,227.1215 C 187.52647,222.81777 184.75139,208.63652 184.46289,199.24893 L 184.41309,198.67279 C 184.73666,192.70934 186.09088,186.70407 184.52936,180.78885 C 180.83403,182.54792 177.74433,185.49883 174.45037,188.09235 C 174.17537,188.44379 171.25037,190.25794 167.95037,192.1238 C 164.65037,193.98966 160.42507,196.54744 158.56082,197.80777 C 156.69657,199.06809 154.08056,200.09926 152.74746,200.09926 C 150.6153,200.09926 151.39038,199.56259 150.63701,196.84926 C 149.39485,192.37551 184.24942,174.25786 195.45037,166.86336 C 198.29702,164.70225 201.28338,162.70072 204.18527,160.46914 C 205.4041,159.09495 207.68385,158.41624 208.45037,158.15828 C 209.8151,157.699 211.16572,156.9151 211.83832,158.66786 C 210.69758,163.16419 196.61168,174.845 192.737,176.71778 C 192.58047,177.02704 192.33029,178.24679 192.62095,194.34926 C 192.62095,194.34926 191.67186,207.35861 193.25963,212.59926 C 198.25914,225.25248 210.99425,226.39626 222.16644,222.34926 C 231.53238,219.73653 241.61044,211.50057 246.758,203.39812 C 246.03834,199.29285 241.64362,198.16344 239.95037,195.09926 C 239.38256,193.31024 238.43734,193.09926 230.98997,193.09926 C 224.71369,193.09926 218.92196,192.74913 218.51048,191.67683 C 218.11448,190.64486 222.70744,190.06267 225.7065,189.55599 C 229.04346,188.99221 231.72208,190.18621 230.53669,189.27472 C 226.45655,186.13736 222.45037,180.77742 222.45037,175.4644 C 222.09634,170.79348 223.97842,167.60477 226.82403,164.24873 C 231.0083,160.99289 236.23113,165.11076 238.45037,168.75978 C 241.49261,173.04942 243.25442,178.00374 243.64948,183.22694 L 243.95037,189.59926 L 251.45037,189.88191 C 259.78307,190.19594 259.01821,190.71386 263.84004,181.49228 C 266.68015,176.06068 270.45037,160.1562 270.45037,153.60696 C 270.45037,151.24661 271.52276,147.25061 272.95037,144.29132 C 275.00443,138.99677 276.72959,133.57202 282.70889,132.82087 C 285.68361,132.44717 288.72838,135.83233 290.58824,136.95042 C 295.29622,139.78069 294.72643,140.9856 296.95653,145.46357 C 299.20262,149.97364 298.99936,168.12552 296.48999,174.99085 C 294.32754,182.48227 289.10077,186.54896 283.04955,190.30543 C 279.21825,192.68383 274.87983,195.39102 270.43274,197.13377 C 268.59201,197.85513 264.84026,198.6167 262.26124,199.2941 C 257.76188,200.33222 255.41607,204.23908 252.00939,207.09926 C 246.48497,212.33233 240.36195,218.79664 233.84686,223.69439 C 224.21152,229.70782 212.4307,232.0792 201.45037,229.09926 z M 275.50459,188.26803 C 280.81753,184.88456 290.48016,174.10402 292.12429,169.72554 C 294.7606,162.70478 292.90016,146.13462 289.12126,142.97877 C 285.927,141.48386 286.15321,138.5969 282.95037,139.09926 C 277.29883,139.98569 277.32348,154.17856 276.6015,160.03813 C 274.27907,179.02202 271.69765,178.53855 268.04752,187.34926 C 266.43575,191.07105 266.44097,191.09926 268.74117,191.09926 C 270.01587,191.09926 273.05941,189.82521 275.50459,188.26803 z M 229.25597,169.05049 C 224.48734,173.86179 231.24473,188.09552 236.7186,187.09926 C 243.20898,185.91799 233.10777,165.16422 229.25597,169.05049 z M 31.771855,119.68419 C 10.157529,111.19844 32.651977,84.212251 44.533275,77.06492 C 47.478288,75.48002 50.984179,74.045877 51.450367,70.49228 C 51.450367,67.69691 51.787886,67.01481 52.950367,67.46089 C 53.970656,67.85241 54.450367,67.40692 54.450367,66.06788 C 54.450367,64.76593 55.127662,64.09926 56.450367,64.09926 C 57.561478,64.09926 58.450367,63.4326 58.450367,62.59926 C 58.450367,60.66643 55.740344,60.66643 53.80751,62.59926 C 52.119946,64.28683 47.450367,64.64413 47.450367,63.0857 C 47.450367,62.52823 47.970309,61.06573 48.605793,59.8357 C 49.241277,58.60566 50.060927,56.95105 50.427236,56.15878 C 51.444922,53.9577 56.753194,50.968732 61.012877,53.55637 L 62.016758,54.166199 C 66.166335,56.686951 65.180392,64.09926 63.450367,64.09926 C 62.117034,64.09926 61.450367,64.76593 61.450367,66.09926 C 61.450367,67.21038 60.7837,68.09926 59.950367,68.09926 C 57.525607,68.09926 57.988335,73.81785 60.477008,74.60772 C 73.445134,87.50737 54.06551,128.43664 31.771855,119.68419 z M 53.105355,81.09926 C 44.152649,80.367846 20.82075,104.87151 33.722009,113.13009 C 47.482388,121.93862 68.655399,82.36966 53.105355,81.09926 z M 202.21288,99.34926 C 202.47972,97.83676 204.21732,94.61291 206.07421,92.18515 C 210.02909,87.01441 210.28596,85.35704 207.20037,84.91882 C 203.88447,84.44788 204.46855,79.93384 208.83918,72.2532 C 210.82533,68.76286 212.45037,65.50036 212.45037,65.0032 C 212.45037,63.99875 199.5246,63.74981 197.03216,64.70625 C 196.16217,65.0401 195.45037,66.37426 195.45037,67.67107 C 195.45037,70.92185 192.47218,72.35143 188.54904,70.98382 C 186.84477,70.38971 185.45037,69.30296 185.45037,68.56883 C 185.45037,67.83469 184.55037,66.94839 183.45037,66.59926 C 182.02642,66.14732 181.45037,65.08623 181.45037,62.91525 C 181.45037,60.24107 181.72713,59.94017 183.70037,60.46898 C 184.93787,60.80062 186.51287,61.0781 187.20037,61.08561 C 187.88787,61.09312 188.45037,61.77426 188.45037,62.59926 C 188.45037,63.4326 189.33926,64.09926 190.45037,64.09926 C 192.06942,64.09926 192.45037,63.4326 192.45037,60.59926 C 192.45037,57.76593 192.06942,57.09926 190.45037,57.09926 C 187.17226,57.09926 188.18158,54.67277 191.95037,53.49316 C 195.24674,52.46141 195.45037,52.53023 195.45037,54.67589 C 195.45037,55.96646 196.256,58.721386 198.20037,59.13248 C 200.03641,59.520669 202.39231,61.025566 208.15282,60.66767 C 213.56717,60.33128 215.41119,58.861255 218.92435,62.925366 C 223.37058,68.047017 206.98116,78.486429 213.89896,80.859991 C 219.63504,79.127513 222.14135,76.94223 228.15262,73.44715 C 234.81676,69.572478 242.60667,64.878937 246.63916,58.0329 C 247.47112,55.53702 250.45037,57.90948 250.45037,61.06788 C 250.45037,63.4326 250.01053,64.09926 248.45037,64.09926 C 246.71704,64.09926 246.45037,64.76593 246.45037,69.09926 C 246.45037,72.74844 246.06729,74.09926 245.03243,74.09926 C 243.97512,74.09926 243.53003,75.88019 243.28243,81.10152 L 242.95037,88.10377 L 247.54538,88.10152 C 253.04439,88.09882 258.51901,85.869283 256.33882,83.242313 C 252.47475,80.960234 250.59598,81.49672 250.45037,76.51274 C 250.45037,70.35392 254.96913,63.85963 260.38311,62.23756 C 263.68077,61.24956 264.11159,60.7779 263.69707,58.60949 C 263.43502,57.23865 263.55984,50.750209 265.4575,49.11099 L 266.70232,48.035699 C 269.93524,45.243072 274.45037,47.36924 274.45037,49.09926 C 274.45037,50.21038 275.11704,51.09926 275.95037,51.09926 C 277.0837,51.09926 277.45037,52.32149 277.45037,56.09926 C 277.45037,59.78806 277.82859,61.09926 278.89262,61.09926 C 279.68585,61.09926 283.21147,62.90289 286.72732,65.10732 C 294.54532,70.00919 297.91918,69.81702 302.134,64.22977 C 303.6403,62.23299 306.36088,59.13676 308.17974,57.34926 C 311.09931,54.48002 312.12899,54.09926 316.96856,54.09926 C 316.96856,54.09926 320.03892,54.80927 321.20178,55.972138 C 323.20167,57.972019 322.45037,63.52679 322.45037,63.52679 L 322.45037,72.95431 C 311.80105,82.098265 318.63611,70.488659 318.11805,64.94118 C 317.34968,58.45351 316.12502,57.04455 313.52313,59.65478 C 312.45709,60.72425 308.6296,64.52001 305.01762,68.08981 C 299.18452,73.538066 299.19146,80.978792 291.29301,74.82606 C 284.4492,68.78794 277.44346,64.16469 275.98539,64.7242 C 272.25368,69.210557 276.41565,74.43058 273.32608,78.414236 C 271.84301,80.326489 267.46954,79.787791 266.6708,82.91139 C 266.88409,84.1991 266.07395,84.67209 263.2537,84.90645 C 261.14741,88.81239 259.63107,89.373956 257.76252,91.784284 C 255.14483,95.160955 248.84485,94.566359 244.70919,95.09926 C 241.77674,95.09926 239.6828,94.46207 238.26037,93.13687 C 236.38101,91.38599 236.21668,90.42668 236.73568,84.23612 C 237.283,77.70764 237.18837,77.26385 235.13387,76.72402 C 231.79062,79.950695 227.69054,81.864702 223.3181,84.84926 C 208.31133,99.87933 205.79994,102.09926 203.80328,102.09926 C 202.08808,102.09926 201.81195,101.6218 202.21288,99.34926 z M 262.72813,77.08783 C 263.67536,75.98155 264.45037,73.50655 264.45037,71.58783 C 264.45037,68.40698 264.19519,68.09926 261.55736,68.09926 C 258.26936,68.09926 257.03593,70.03104 257.40712,74.59926 C 257.6217,77.24012 258.85201,79.03677 260.47813,79.08395 C 260.7684,79.09237 261.7809,78.19412 262.72813,77.08783 z M 270.45037,66.09926 C 270.45037,64.98815 269.7837,64.09926 268.95037,64.09926 C 268.11704,64.09926 267.45037,64.98815 267.45037,66.09926 C 267.45037,67.21038 268.11704,68.09926 268.95037,68.09926 C 269.7837,68.09926 270.45037,67.21038 270.45037,66.09926 z M 270.45037,55.59926 C 270.45037,54.77426 269.77537,54.09926 268.95037,54.09926 C 268.12537,54.09926 267.45037,54.77426 267.45037,55.59926 C 267.45037,56.42426 268.12537,57.09926 268.95037,57.09926 C 269.77537,57.09926 270.45037,56.42426 270.45037,55.59926 z M 115.20037,89.01593 C 112.66846,85.249315 105.73047,76.852889 101.76286,79.01229 C 98.68228,86.185227 91.984952,90.244344 84.406878,86.28296 C 82.046558,83.74946 82.084568,77.02593 83.950368,78.09926 C 92.146007,82.813925 96.739973,78.155531 93.950368,68.73764 C 93.008878,68.37635 92.450368,66.84717 92.450368,64.63065 C 92.450368,61.55032 92.763108,61.09926 94.898848,61.09926 C 97.750008,61.09926 102.45037,65.07629 102.45037,67.48869 C 102.45037,68.40173 103.48136,69.54075 104.74147,70.01984 C 106.00157,70.49893 107.63167,71.61279 108.36391,72.49509 C 110.52291,75.09652 113.98055,74.36908 117.85037,70.49926 C 119.91619,66.217446 124.44776,64.167065 127.5318,61.252565 C 133.94046,59.779252 135.50416,66.784874 142.35141,61.726382 C 145.97373,59.050346 150.45037,60.23215 150.45037,62.49228 C 150.45037,64.05548 153.1443,65.40646 154.54061,64.54349 C 155.04098,64.23425 155.45594,63.44529 155.46275,62.79025 C 155.48326,60.81638 162.19356,57.09926 165.73635,57.09926 C 174.59483,56.983103 172.79977,72.69317 170.20037,77.84973 C 167.03768,73.504207 167.13425,67.877993 162.55691,64.09926 C 158.72679,64.09926 157.45037,65.23607 157.45037,68.64724 C 156.4512,72.781485 156.18295,77.764145 153.49613,81.09926 C 153.14787,81.09926 152.24792,78.32708 151.49624,74.93886 C 150.21213,69.15064 147.41169,64.129051 145.45037,65.09926 C 140.03266,67.779243 141.68756,76.147048 137.65866,80.09926 C 136.77431,80.09926 134.45037,72.88092 134.45037,70.13407 C 134.45037,65.50668 126.46899,66.99497 121.70037,72.51156 C 118.9281,75.71866 118.87348,77.26721 121.45037,79.59926 C 122.92612,80.9348 123.45037,82.67923 123.45037,86.25425 C 123.45037,91.07084 123.43131,91.09877 120.20037,91.01593 C 118.36019,90.96874 116.19124,90.10116 115.20037,89.01593 z M 399.85521,75.37329 C 397.67493,71.569588 398.4852,67.797672 398.69896,63.59066 C 398.69896,59.90336 397.18943,61.99708 394.45037,61.44926 C 392.39704,61.0386 391.45037,60.2576 391.45037,58.97426 C 391.45037,57.94301 392.12537,57.09926 392.95037,57.09926 C 396.10843,54.516563 397.92086,53.228455 402.51393,55.421794 C 402.51393,54.947424 404.68787,50.81042 406.20037,48.89904 C 407.71287,46.98767 409.84468,44.22579 410.93772,42.76154 C 420.99604,32.52758 430.92625,23.036813 444.29903,17.919405 C 451.96299,15.014865 467.16597,16.07219 472.45037,18.85368 C 478.73369,22.16096 480.45037,23.55279 480.45037,25.33981 C 480.45037,27.84116 478.04503,27.52117 473.31422,24.39047 C 464.7597,19.085084 454.64818,21.202599 445.50037,23.1215 C 439.37325,24.449129 434.43391,28.638448 429.95037,32.78403 C 421.23361,40.07955 411.99481,49.49983 410.68687,52.42594 C 409.57986,54.90253 408.74474,56.238963 409.31994,57.239501 C 410.44842,59.657715 415.4386,60.516678 416.45037,62.59926 C 419.50353,67.562551 418.35878,71.500035 415.81148,76.84926 C 413.03755,81.369353 402.96365,78.85214 399.85521,75.37329 z M 411.26373,67.84926 C 410.98819,64.99154 410.55809,64.56144 407.70037,64.28591 C 404.58312,63.98535 404.45037,64.11809 404.45037,67.53591 C 404.45037,70.95372 404.59592,71.09926 408.01373,71.09926 C 411.43154,71.09926 411.56429,70.96652 411.26373,67.84926 z M 353.45037,66.09926 C 353.45037,64.99926 353.00037,64.09926 352.45037,64.09926 C 351.90037,64.09926 351.45037,63.39771 351.45037,62.54025 C 351.45037,61.68279 351.90037,61.25935 352.45037,61.59926 C 353.05301,61.97172 353.45037,60.63691 353.45037,58.24007 C 353.45037,51.94127 354.11151,51.09926 359.05736,51.09926 C 363.27182,51.09926 363.45037,51.2212 363.45037,54.09926 L 363.45037,57.09926 L 371.34338,57.09926 C 379.61747,57.09926 380.45037,57.56403 380.45037,62.18105 C 380.45037,63.93499 379.65105,64.09926 371.11704,64.09926 C 361.33711,64.09926 359.74408,64.54331 361.58149,66.75726 C 362.48591,67.84702 361.82641,68.09926 358.07281,68.09926 C 354.11704,68.09926 353.45037,67.81082 353.45037,66.09926 z"
     id="path2384"
     style="fill:#000000" />
</svg>
