<?xml version="1.0" encoding="UTF-8" standalone="no"?>
<!-- Created with Inkscape (http://www.inkscape.org/) -->

<svg
   xmlns:dc="http://purl.org/dc/elements/1.1/"
   xmlns:cc="http://creativecommons.org/ns#"
   xmlns:rdf="http://www.w3.org/1999/02/22-rdf-syntax-ns#"
   xmlns:svg="http://www.w3.org/2000/svg"
   xmlns="http://www.w3.org/2000/svg"
   version="1.1"
   width="355"
   height="86"
   id="svg3035">
  <metadata
     id="metadata3041">
    <rdf:RDF>
      <cc:Work
         rdf:about="">
        <dc:format>image/svg+xml</dc:format>
        <dc:type
           rdf:resource="http://purl.org/dc/dcmitype/StillImage" />
        <dc:title></dc:title>
      </cc:Work>
    </rdf:RDF>
  </metadata>
  <defs
     id="defs3039" />
  <path
     d="m 47.180646,85.312904 c 0,0 -4.351613,-53.593548 -6.183871,-58.403226 C 39.164517,22.100001 34.354839,4.2354838 24.048388,5.1516128 13.741936,6.0677419 0.44955643,18.062987 0.45806452,26.909678 c 0.00419,4.356701 4.12258058,9.16129 14.20000048,9.390323 10.077419,0.229032 18.322581,-2.97742 26.33871,-8.474194"
     id="path3045"
     style="color:#000000;fill:none;stroke:#000000;stroke-width:2;stroke-linecap:butt;stroke-linejoin:miter;stroke-miterlimit:4;stroke-opacity:1;stroke-dasharray:none;stroke-dashoffset:0;marker:none;visibility:visible;display:inline;overflow:visible;enable-background:accumulate" />
  <path
     d="m 46.661525,35.90748 8.12002,-5.83269 c 0,0 -8.463119,3.88846 -8.12002,5.83269 0.3431,1.944231 5.260858,2.401697 6.404523,1.829864 1.143665,-0.571832 2.744796,-1.372398 2.744796,-1.372398 0,0 -5.947057,2.630429 -5.947057,5.718324 0,3.087896 2.973528,1.829864 3.545361,1.944231 0.571832,0.114366 6.976355,-0.228733 7.891287,-3.545361 0.914932,-3.316628 1.94423,-5.146492 6.51889,-5.260858 4.574659,-0.114367 6.17579,5.032125 6.17579,5.603957 0,0.571833 -1.486765,4.803392 -6.404523,5.032125 -4.917759,0.228733 -6.633256,-2.287329 -6.51889,-4.345926"
     id="path3815"
     style="color:#000000;fill:none;stroke:#000000;stroke-width:2;stroke-linecap:butt;stroke-linejoin:round;stroke-miterlimit:4;stroke-opacity:1;stroke-dasharray:none;stroke-dashoffset:0;marker:none;visibility:visible;display:inline;overflow:visible;enable-background:accumulate" />
  <path
     d="m 74.223848,43.341302 c 0,0 5.375224,0.571832 6.061423,-0.914932 0.686199,-1.486764 3.774094,-7.891287 9.378052,-8.005654 5.603957,-0.114366 4.917759,5.947057 4.917759,6.404523 0,0.457466 -2.172964,4.460293 -8.005654,4.460293 -5.832691,0 -6.061424,-3.087895 -6.061424,-3.087895"
     id="path3819"
     style="color:#000000;fill:none;stroke:#000000;stroke-width:2;stroke-linecap:butt;stroke-linejoin:miter;stroke-miterlimit:4;stroke-opacity:1;stroke-dasharray:none;stroke-dashoffset:0;marker:none;visibility:visible;display:inline;overflow:visible;enable-background:accumulate" />
  <path
     d="m 96.754045,54.206118 c 0,0 -2.859162,-8.920585 -1.829864,-14.753276"
     id="path3821"
     style="color:#000000;fill:none;stroke:#000000;stroke-width:2;stroke-linecap:round;stroke-linejoin:miter;stroke-miterlimit:4;stroke-opacity:1;stroke-dasharray:none;stroke-dashoffset:0;marker:none;visibility:visible;display:inline;overflow:visible;enable-background:accumulate" />
  <path
     d="m 104.87406,33.162685 c 0,0 -6.061419,-0.3431 -4.34593,1.829864 1.7155,2.172963 3.0879,2.287329 3.7741,2.058596 0.6862,-0.228733 -5.032123,2.859162 -5.032123,5.032125 0,2.172964 3.545353,1.029299 3.888453,0.914932 0.3431,-0.114366 4.57466,-0.571832 4.8034,-1.258031"
     id="path3823"
     style="color:#000000;fill:none;stroke:#000000;stroke-width:2;stroke-linecap:round;stroke-linejoin:round;stroke-miterlimit:4;stroke-opacity:1;stroke-dasharray:none;stroke-dashoffset:0;marker:none;visibility:visible;display:inline;overflow:visible;enable-background:accumulate" />
  <path
     d="M 128.77666,42.08327 C 122.05127,33.8449 113.95329,20.292341 95.839112,11.54742 c 0,0 80.171758,31.452022 80.399638,47.11899 0.24632,16.934803 -52.83731,17.269339 -52.83731,17.269339 0,0 -25.961196,1.258031 -26.304295,-9.378052 C 96.791008,57.06746 123.17271,43.913133 128.77667,43.112568 l 5.37521,-1.029298 c 0,0 -2.28732,-6.861988 5.37523,-6.861988 7.66255,0 7.66255,6.518889 7.66255,6.518889 0,0 0.3431,3.659728 -6.40452,3.202262 -6.74762,-0.457466 -6.51889,-3.888461 -6.51889,-3.888461"
     id="path3825"
     style="color:#000000;fill:none;stroke:#000000;stroke-width:2;stroke-linecap:round;stroke-linejoin:round;stroke-miterlimit:4;stroke-opacity:1;stroke-dasharray:none;stroke-dashoffset:0;marker:none;visibility:visible;display:inline;overflow:visible;enable-background:accumulate" />
  <path
     d="m 141.70007,43.798768 c 0,0 -13.03778,-7.662555 -13.38088,-18.413004 -0.3431,-10.750449 11.32078,-24.0169615 28.59162,-24.0169615 18.75645,0 26.07556,13.8383445 26.07556,22.1870975 0,13.380879 -21.73038,21.014128 -27.33359,21.1578 -8.92058,0.228733 -9.83551,-0.3431 -9.83551,-0.3431"
     id="path3827"
     style="color:#000000;fill:none;stroke:#000000;stroke-width:2;stroke-linecap:round;stroke-linejoin:round;stroke-miterlimit:4;stroke-opacity:1;stroke-dasharray:none;stroke-dashoffset:0;marker:none;visibility:visible;display:inline;overflow:visible;enable-background:accumulate" />
  <path
     d="m 164.1159,44.3706 c 0,0 10.63609,-2.058597 17.84117,-1.715497"
     id="path3829"
     style="color:#000000;fill:none;stroke:#000000;stroke-width:2;stroke-linecap:round;stroke-linejoin:miter;stroke-miterlimit:4;stroke-opacity:1;stroke-dasharray:none;stroke-dashoffset:0;marker:none;visibility:visible;display:inline;overflow:visible;enable-background:accumulate" />
  <path
     d="m 166.06013,51.118222 c 0,0 36.94037,-11.665381 48.26266,-14.638909 11.32228,-2.973529 59.47057,-16.583141 60.3855,-16.240041"
     id="path3833"
     style="color:#000000;fill:none;stroke:#000000;stroke-width:1.5;stroke-linecap:round;stroke-linejoin:miter;stroke-miterlimit:4;stroke-opacity:1;stroke-dasharray:none;stroke-dashoffset:0;marker:none;visibility:visible;display:inline;overflow:visible;enable-background:accumulate" />
  <path
     d="m 216.15265,34.878182 8.34876,12.122847 c 0,0 0.22873,2.401696 -1.25803,2.744796"
     id="path3835"
     style="color:#000000;fill:none;stroke:#000000;stroke-width:2;stroke-linecap:round;stroke-linejoin:round;stroke-miterlimit:4;stroke-opacity:1;stroke-dasharray:none;stroke-dashoffset:0;marker:none;visibility:visible;display:inline;overflow:visible;enable-background:accumulate" />
  <path
     d="m 248.51837,38.53791 c 0,0 -7.20509,2.058596 -7.20509,6.404523 0,0 -0.0119,2.751162 3.54536,1.60113 0,0 8.92059,-6.290156 9.83552,-6.061423 0.91493,0.228733 1.94423,1.372398 1.7155,4.345926 -0.22874,2.973529 -1.48677,-6.404523 0.91493,-4.117193 2.40169,2.287329 6.06142,6.061423 11.20791,6.061423 5.14649,0 6.63326,-0.343099 6.63326,-0.343099 0,0 3.20226,-0.457466 3.20226,-4.803392 0,-4.345927 -1.48676,-4.689026 -4.00283,-4.689026 -2.51606,0 -3.65972,2.630429 -3.65972,4.460293 0,1.829863 1.25803,5.260858 3.77409,5.260858 2.51606,0 9.14932,0 9.14932,0 0,0 17.26934,-2.28733 18.413,-5.489591 1.14367,-3.202262 -1.7155,-8.920586 -1.7155,-8.920586 0,0 5.1465,9.378052 9.37806,11.207915 4.23156,1.829864 4.46029,1.601131 4.46029,1.601131 l -36.82601,-8.12002 c 0,0 19.55667,-3.430995 28.24852,-4.23156 8.69186,-0.800566 42.6587,-1.94423 48.26266,-1.029298"
     id="path3837"
     style="color:#000000;fill:none;stroke:#000000;stroke-width:2;stroke-linecap:round;stroke-linejoin:round;stroke-miterlimit:4;stroke-opacity:1;stroke-dasharray:none;stroke-dashoffset:0;marker:none;visibility:visible;display:inline;overflow:visible;enable-background:accumulate" />
</svg>
