<?xml version="1.0" encoding="iso-8859-1"?>
<!-- Generator: Adobe Illustrator 18.0.0, SVG Export Plug-In . SVG Version: 6.00 Build 0)  -->
<!DOCTYPE svg PUBLIC "-//W3C//DTD SVG 1.1//EN" "http://www.w3.org/Graphics/SVG/1.1/DTD/svg11.dtd">
<svg version="1.1" id="Layer_1" xmlns="http://www.w3.org/2000/svg" xmlns:xlink="http://www.w3.org/1999/xlink" x="0px" y="0px"
	 width="217.9px" height="56px" viewBox="0 0 217.9 56" enable-background="new 0 0 217.9 56" xml:space="preserve">
<g>
	<path fill-rule="evenodd" clip-rule="evenodd" d="M40.6,11.8c2.6-0.4,3.3,1.2,5,1.7c-0.9,1.9-2.5,3-5,3.3l0.4-1.3l-1.3-0.4
		c0-0.6,0-1.1,0-1.7l1.3-0.4L40.6,11.8z"/>
	<path fill-rule="evenodd" clip-rule="evenodd" d="M160.6,26.8c2.5-0.8,1.5,1.9,1.7,3.3C160.8,29.9,160.4,28.7,160.6,26.8z"/>
	<path fill-rule="evenodd" clip-rule="evenodd" d="M209.8,29.3c3.6,0,1.2,6.1,0,6.7C208.4,35.6,208.4,29.6,209.8,29.3z"/>
	<path fill-rule="evenodd" clip-rule="evenodd" d="M196.5,20.1l0.4,1.3l-1.3,0.4v0.8l1.8,0.6l-0.1,1.9c1.6,0.2,1.8-0.9,3.3-0.8v0.8
		l1.3-0.4l0.4,1.3c2.9-4.3,11-3.4,13.3-8.3C208.8,14.7,202,18.9,196.5,20.1z M206.6,19.8c-0.4,0.4-0.9,0.7-1.4,1.1
		c-0.3,0.2-0.7,0.4-1,0.4h-1.5c-0.6,0,0.8-1.4,0.9-1.4c0.4-0.4,0.9-0.7,1.4-1.1c0.3-0.2,0.7-0.4,1-0.4h1.5
		C208.1,18.4,206.7,19.8,206.6,19.8z"/>
	<path fill-rule="evenodd" clip-rule="evenodd" d="M185.2,21.3l0.4-1.3c-0.6-1.9-4.7-0.3-6.7-0.8l0.4,1.3l-1.3,0.4v1.7l0.4,0.8
		l-0.4,0.8c0.1,0,0.1,0,0.1,0c0.1-0.1,0.1-0.2,0.1-0.2c0.3-0.4,0.6-0.8,0.9-1.2c0,0,0.3-0.5,0.4-0.5c0.6,0.1,1.1,0.1,1.7,0.2
		l-0.1,0.2c-0.1,0.2-0.2,0.3-0.2,0.3c-0.3,0.4-0.6,0.8-0.9,1.2c-0.1,0.2-0.3,0.3-0.4,0.5c0,0-0.1,0.1-0.1,0.1l0.8-0.2l1,1.3
		c1.6-1.5,3.9-2.3,5-4.2L185.2,21.3z"/>
	<path fill-rule="evenodd" clip-rule="evenodd" d="M177.3,26.5c-0.1-0.1-0.2-0.2-0.3-0.3c0,0,0-0.1,0.1-0.1l-1,0.3l-0.4-1.3
		c-3.1,1.1-5.1,3.2-6.7,5.8c1.8,1.6,3.4-2.2,7.5-0.8l-0.4-1.9l1.3-1.5V26.5z"/>
	<path fill-rule="evenodd" clip-rule="evenodd" d="M68.1,14.3c1.3-0.2,1.4,0.8,2.5,0.8c-0.2,2.3-1.4,3.6-4.2,3.3l0.4-1.3l-1.3-0.4
		c0-0.6,0-1.1,0-1.7l1.5,0.4L68.1,14.3z"/>
	<path fill-rule="evenodd" clip-rule="evenodd" d="M94,18.4c-2.3-4.6-10.3-1.2-13.3,0.8l0.8,1.7c2.4,4,8.5-0.3,11.7-0.8l-0.4-1.3
		L94,18.4z M87.5,20.5c-1.9,0-1.9-3,0-3C89.4,17.5,89.4,20.5,87.5,20.5z"/>
	<path fill-rule="evenodd" clip-rule="evenodd" d="M104.4,18.8l-1.3-0.4c0.8-3.1,6.6-4.7,9.2-3.3c-0.8,3.1-3.5,4.2-4.2,7.5
		c0.2,0.7,0.8,0.8,0.8,1.7l-1.3,0.4l0.4,1.3c-0.8,0-1.7,0-2.5,0c-1.9-1.9,0.3-3.2,0-5.8c-0.6,0-1.1,0-1.7,0L104.4,18.8z"/>
	<path fill-rule="evenodd" clip-rule="evenodd" d="M120.6,22.6l1.3,0.4l-0.4,1.3c-0.3,2.2,4.7-0.8,3.3,2.5l1.3-0.4l0.4,1.3
		c2.5-2,5.1-3.8,5-8.3C126.9,17,122.3,19.4,120.6,22.6z M126.8,23.2c-1.9,0-1.9-3,0-3C128.7,20.2,128.7,23.2,126.8,23.2z"/>
	<path fill-rule="evenodd" clip-rule="evenodd" d="M120.2,33l1.3-0.4c0,0.3,0,0.6,0,0.8l0.4,0.8l0.4,0.8c-1.8,0.9-3.4,2.2-6.7,1.7
		c-0.5-3.5,2.2-3.9,4.2-5L120.2,33z"/>
	<g>
		<path fill-rule="evenodd" clip-rule="evenodd" fill="none" stroke="#000000" stroke-width="1.8745" stroke-linecap="round" d="
			M20.5,32.5c6-6.5,12.4-13.1,20.6-16.9"/>
		<path fill-rule="evenodd" clip-rule="evenodd" fill="none" stroke="#000000" stroke-width="2.0077" stroke-linecap="round" d="
			M41.1,13c-13.1-1.9-26.7,0.3-39.8-0.4c-1-1.9,0.8-3.6,2-4.8C13.7,4.1,38.9-3,52.6,3.9c-0.3,0.8-0.9,1.3-1.2,1.8
			c-2.1-0.1-3.6,1.3-5.8,1.1"/>
		<path fill-rule="evenodd" clip-rule="evenodd" fill="none" stroke="#000000" stroke-width="1.908" stroke-linecap="round" d="
			M201.9,43c4.8,1.5,10.5-1,15,1.7"/>
		<path fill-rule="evenodd" clip-rule="evenodd" fill="none" stroke="#000000" stroke-width="1.8384" stroke-linecap="round" d="
			M7.7,55.1C72.5,53.7,137.1,43.7,201.9,43"/>
		<path fill-rule="evenodd" clip-rule="evenodd" fill="none" stroke="#000000" stroke-width="1.9951" stroke-linecap="round" d="
			M201.9,43c0.3-0.9,0.3-1.6,0.4-2.4c-5.9-3.8-3.4-11.2-0.4-16"/>
		<path fill-rule="evenodd" clip-rule="evenodd" fill="none" stroke="#000000" stroke-width="2.9167" stroke-linecap="round" d="
			M195,26.1c0.5-1.3,1.2-1.9,2.4-2.9"/>
		<path fill-rule="evenodd" clip-rule="evenodd" fill="none" stroke="#000000" stroke-width="1.85" stroke-linecap="round" d="
			M178.1,28.5c1.3,2.2,4.1,2.8,6.3,3.7"/>
		<path fill-rule="evenodd" clip-rule="evenodd" fill="none" stroke="#000000" stroke-width="1.559" stroke-linecap="round" d="
			M176.1,26.3c0.3-1.1,1.7-2.5,2.5-2.9"/>
		<path fill-rule="evenodd" clip-rule="evenodd" fill="none" stroke="#000000" stroke-width="1.5781" stroke-linecap="round" d="
			M166.9,20.1c4.2-0.4,8.4-0.4,12.5,0.4"/>
		<path fill-rule="evenodd" clip-rule="evenodd" fill="none" stroke="#000000" stroke-width="1.7296" stroke-linecap="round" d="
			M185.2,21.3c3.4-1.7,8.5-2.2,11.7,0"/>
		<path fill-rule="evenodd" clip-rule="evenodd" fill="none" stroke="#000000" stroke-width="3.4021" stroke-linecap="round" d="
			M176.1,28.2c0.9,0.1,1.4,0.2,2,0.3"/>
		<path fill-rule="evenodd" clip-rule="evenodd" fill="none" stroke="#000000" stroke-width="2.3863" stroke-linecap="round" d="
			M178.1,28.5c0.8-1.2,1.6-2.3,2.4-3.8"/>
		<path fill-rule="evenodd" clip-rule="evenodd" fill="none" stroke="#000000" stroke-width="2.2567" stroke-linecap="round" d="
			M63.1,18.5c4.7,4.1,12.2,0.9,18,1.6"/>
		<path fill-rule="evenodd" clip-rule="evenodd" fill="none" stroke="#000000" stroke-width="1.7717" stroke-linecap="round" d="
			M92.7,18.8c3.8,0.6,7.9,0.7,11.7,0"/>
		<path fill-rule="evenodd" clip-rule="evenodd" fill="none" stroke="#000000" stroke-width="1.852" stroke-linecap="round" d="
			M121.9,34.3c7.1-2.3,14.2-3.6,20.8-7.1"/>
		<path fill-rule="evenodd" clip-rule="evenodd" fill="none" stroke="#000000" stroke-width="2.7334" stroke-linecap="round" d="
			M142.7,27.2c-3.1-3.1,3.1-7.8,5-4.1c0.1,2.3-3,2.6-4.2,4.1"/>
		<path fill-rule="evenodd" clip-rule="evenodd" fill="none" stroke="#000000" stroke-width="1.8307" stroke-linecap="round" d="
			M143.6,27.2c2.2,3.3,6.7,3.9,10.3,4.7"/>
		<path fill-rule="evenodd" clip-rule="evenodd" fill="none" stroke="#000000" stroke-width="1.7873" stroke-linecap="round" d="
			M120.2,33c0.3-3.4,4.7-3.6,5.8-6.7"/>
		<path fill-rule="evenodd" clip-rule="evenodd" fill="none" stroke="#000000" stroke-width="1.7582" stroke-linecap="round" d="
			M121.9,23c-4.8,0.2-9.2,3.3-14.2,1.7"/>
		<path fill-rule="evenodd" clip-rule="evenodd" fill="none" stroke="#000000" stroke-width="2.1969" stroke-linecap="round" d="
			M50.2,18.8c2.7-0.7,5.6-0.3,8.3-1.1"/>
		<path fill-rule="evenodd" clip-rule="evenodd" fill="none" stroke="#000000" stroke-width="1.5891" stroke-linecap="round" d="
			M58.6,17.7c0-1.1,0.8-2.5,1.4-3.2c2.2-0.9,6-1.6,7.2,1"/>
		<path fill-rule="evenodd" clip-rule="evenodd" fill="none" stroke="#000000" stroke-width="3.2543" stroke-linecap="round" d="
			M58.6,17.7c1.4,0.7,3,0.7,4.5,0.8"/>
		<path fill-rule="evenodd" clip-rule="evenodd" fill="none" stroke="#000000" stroke-width="1.9003" stroke-linecap="round" d="
			M63.1,18.5c1.4-0.8,2.7-0.9,3.8-1.3"/>
		<path fill-rule="evenodd" clip-rule="evenodd" fill="none" stroke="#000000" stroke-width="4.2081" stroke-linecap="round" d="
			M142.7,27.2c0.3,0,0.6,0,0.8,0"/>
	</g>
</g>
</svg>
