<?xml version="1.0" encoding="UTF-8"?>
<svg version="1.0" xmlns="http://www.w3.org/2000/svg" width="190" height="50" >
<path d="M20.367,8.407C18.323,3.26,6.998,14.158,7.581,17.901c0.898,5.766,11.569-2.522,13.595-4.058 c0.636-0.483-0.302-0.893-0.777-0.562c-5.975,4.162-7.255,13.103-10.011,19.469c-1.866,4.31-3.867,8.591-6.225,12.655 c-0.644,1.109-2.326,4.627-3.169,1.869c-1.074-3.514,1.245-8.031,2.846-10.988c3.537-6.532,10.403-12.183,16.019-16.883 c0.616-0.516,1.256-0.998,1.911-1.464c-0.661,0.47-1.048,2.643-1.287,3.378c-0.321,0.988-0.683,2.67,0.36,3.422 c2.477,1.784,12.666-4.685,13.69-6.985c0.271-0.609-0.778-0.598-1.045-0.26c-0.992,1.252-2.903,3.912-0.581,4.674 c0.224,0.073,0.54,0.048,0.72-0.123c0.983-0.938,1.054-2.006,0.74-3.305c-0.135-0.561-1.295-0.253-1.159,0.311 c0.315,1.309,0.846-0.669,1.257-1.188c-0.348-0.086-0.697-0.173-1.045-0.26c-0.95,2.134-6.236,4.293-8.131,5.306 c-0.517,0.27-1.043,0.517-1.581,0.742c-3.706,1.644-1.692-3.43-1.456-4.063c0.263-0.705,0.885-1.728,0.615-2.514 c-0.076-0.22-0.316-0.306-0.533-0.287c-3.095,0.273-6.972,5.297-9.015,7.235C8.35,28.737,3.439,33.639,0.865,40.093 c-1.867,4.682-0.784,13.671,3.945,6.229c4.63-7.285,8.815-16.311,11.037-24.672c0.831-3.125,2.322-5.424,4.854-7.461 c0.802-0.646-0.316-0.895-0.88-0.478c-0.712,0.526-1.441,1.027-2.172,1.526c-0.659,0.449-10.46,6.659-8.535,0.812 c0.408-1.24,8.813-10.556,10.094-7.332C19.423,9.259,20.576,8.933,20.367,8.407L20.367,8.407 M48.998,10.697c0.596,0.423-5.603,6.901-6.321,7.973c-0.726,1.084-0.501,3.359-1.162,4.14 c0.43-0.508,1.057-0.917,1.565-1.339c2.304-1.91,6.83-4.45,7.909-7.383c0.187-0.505-0.959-0.196-1.127,0.028 c-0.622,0.83-5.487,10.694-1.854,8.677c1.22-0.677,2.093-1.901,2.991-2.937c0.704-0.813,1.42-1.607,2.262-2.282 c1.118-0.896,1.835,1.156,2.186,1.795c1.551,2.829,3.094,3.472,5.709,1.399c0.617-0.489-0.346-0.727-0.738-0.416 c-3.623,2.869-3.58-3.169-5.945-3.823c-1.298-0.359-2.7,1.227-3.457,2.004c-0.82,0.841-1.557,1.769-2.342,2.642 c-1.502,1.673-1.212,0.293-0.752-1.054c0.675-1.979,1.767-4.253,3.03-5.94c-0.376,0.009-0.752,0.019-1.127,0.028 c-0.669,1.817-3.526,3.541-4.938,4.73c-1.415,1.191-3.193,2.291-4.394,3.708c-0.129,0.152-0.159,0.301,0.017,0.427 c0.008,0.006,0.015,0.011,0.023,0.017c0.181,0.13,0.514,0.063,0.695-0.023c0.644-0.308,1.025-0.655,1.431-1.206 c0.19-0.259,0.299-1.081,0.36-1.346c0.487-2.123,2.189-3.734,3.641-5.238c0.48-0.498,4.925-3.994,3.248-5.186 C49.56,9.845,48.503,10.346,48.998,10.697L48.998,10.697 M77.081,12.454c3.197,4.121-5.791,9.715-8.442,11.023c-6.905,3.408-1.282-7.234-0.284-8.856 c1.21-1.966,2.634-3.834,4.341-5.394c2.75-2.512,5.363-0.465,6.644,2.321c1.174,2.556,1.01,5.278-2.196,5.724 c-2.889,0.402-7.658,1.416-8.277-2.532c-0.06-0.382-1.225-0.11-1.159,0.311c0.597,3.806,4.862,3.378,7.807,3.042 c2.866-0.327,5.526-0.446,5.619-3.928c0.08-3.004-2.015-6.242-4.99-6.912c-2.392-0.539-4.754,2.046-6.12,3.583 c-1.466,1.651-10.369,14.033-3.55,13.843c4.019-0.111,15.423-7.855,11.685-12.675C77.922,11.699,76.805,12.097,77.081,12.454 L77.081,12.454 M92.374,9.217c1.06,2.447-2.212,4.744-3.611,6.387c-1.636,1.921-3.223,4.042-4.333,6.318 c-1.607,3.296,3.647,1.085,4.778,0.476c0.696-0.376,0.066-0.982-0.51-0.672c-0.882,0.477-3.955,1.948-2.965-0.082 c0.911-1.869,2.271-3.559,3.561-5.177c1.537-1.927,5.509-4.627,4.238-7.561C93.313,8.397,92.164,8.732,92.374,9.217L92.374,9.217 M114.341,0.316c-1.231,0.009-2.542,1.159-3.359,1.927c-5.306,4.989-8.642,12.155-11.748,18.592 c0.38,0.004,0.76,0.009,1.139,0.013c0.371-1.962-9.154-7.031-11.136-6.834c-0.268,0.026-0.581,0.171-0.641,0.46 c-1.025,4.999,8.389,5.976,11.147,5.825c4.248-0.232,8.791-1.597,12.767-3.092c0.5-0.188,1.792-0.611,1.997-1.251 c0.174-0.543-0.64-0.572-0.935-0.315c-3.753,3.267-1.362,5.198,2.671,4.968c3.331-0.19,6.701-1.095,9.881-2.039 c1.097-0.326,2.168-0.724,3.206-1.203c1.019-0.47-0.115-1.126-0.339-0.085c-0.318,1.479,1.565,1.788,2.539,1.916 c4.194,0.552,7.507-1.503,11.587,0.279c2.546,1.112,10.659-0.32,12.652-2.252c0.08-0.077,0.127-0.209,0.097-0.318 c-0.009-0.036-0.019-0.071-0.028-0.107c-0.124-0.458-0.842-0.234-1.063-0.007c-0.668,0.684-1.474,1.641-1.474,2.635 c0,0.214,0.17,0.356,0.383,0.364c4.607,0.179,9.655-1.378,13.871-3.016c4.751-1.846,9.054-4.708,13.052-7.825 c2.736-2.134,6.322-4.836,8.16-7.855c1.747-2.869-4.124,0.783-4.425,1.004c-7.393,5.45-13.604,12.821-18.441,20.569 c0.368,0.04,0.737,0.081,1.105,0.121c2.459-4.583,7.568,3.292,9.71,5.175c2.431,2.139,5.588,3.83,8.658,2.096 c0.687-0.389,0.062-0.983-0.508-0.662c-7.482,4.228-13.7-16.539-18.966-6.729c-0.315,0.588,0.857,0.518,1.105,0.121 c4.146-6.643,9.257-12.576,15.123-17.757c1.71-1.51,3.531-3.011,5.528-4.13c0.863-0.484-0.292,0.453-0.573,0.795 c-0.764,0.926-1.658,1.752-2.518,2.585c-6.366,6.167-13.918,11.163-22.53,13.479c-2.019,0.542-4.093,0.832-6.169,1.028 c-1.869,0.177-1.695-0.064-0.127-1.671c-0.354-0.002-0.708-0.005-1.063-0.008c0.001,0.005-10.161,2.822-11.513,0.915 c-1.24-1.749-14.261,1.504-12.826-1.403c0.267-0.541-0.677-0.528-0.935-0.315c-3.034,2.501-9.346,3.101-13.054,3.475 c-2.133,0.215-3.151-3.793-3.09-3.839c-1.503,1.123-3.851,1.466-5.614,1.94c-5.348,1.438-13.13,3.597-17.141-1.607 c-1.944-2.522,0.692-0.619,1.958,0.113c0.933,0.54,6.948,3.431,6.736,4.553c-0.108,0.574,0.969,0.364,1.139,0.013 c2.793-5.788,5.748-11.662,9.902-16.614c0.803-0.958,2.555-3.189,3.99-3.2C114.886,1.137,115.129,0.31,114.341,0.316 L114.341,0.316z"/>
</svg>