<?xml version="1.0" encoding="UTF-8"?>
<svg version="1.1" xmlns="http://www.w3.org/2000/svg" width="170" height="76" >
<path d="M42.843,23.595c3.872-4.772,7.649-9.635,11.208-14.646c0.522-0.735,7.036-9.523,2.764-8.92 c-2.876,0.407-5.721,4.202-7.649,6.065c-5.188,5.013-10.17,10.242-15.122,15.487C23.512,32.736,12.811,44.029,3.559,56.291 c-0.768,1.018-5.009,5.758-3.045,7.137c2.328,1.635,6.861-2.687,8.403-3.875c9.048-6.971,17.365-15.002,25.495-23.003 c7.35-7.232,15.263-14.73,20.852-23.471c0.879-1.375-1.938-1.365-2.605-0.619c-8.124,9.08-16.039,18.417-23.322,28.188 c-2.959,3.969-7.164,8.823-8.112,13.848c-0.675,3.576,3.818,2.452,5.61,1.679c5.695-2.458,10.825-6.796,15.679-10.556 c6.934-5.372,13.618-11.074,20.154-16.92c4.871-4.355,9.783-8.786,14.131-13.675c0.891-1.002,3.986-5.839-0.041-4.087 c-2.088,0.907-3.972,3.554-5.497,5.133c-3.642,3.775-7.154,7.678-10.625,11.61c-7.199,8.156-14.807,16.559-20.309,25.998 c-0.639,1.096-2.927,4.997-1.054,6.096c2.278,1.337,4.464-1.574,5.694-3.085c3.455-4.241,6.322-9.006,9.289-13.59 c1.509-2.332,3.013-4.666,4.571-6.965c0.553-0.816,1.124-1.619,1.717-2.406c0.606-0.805,1.229-0.84,0.308-0.85 c-0.449-0.325-0.897-0.65-1.346-0.976c-0.019,0.072-2.417,2.606-3.029,3.45c-0.952,1.313-1.582,2.699-1.438,4.329 c0.348,3.943,7.328,2.427,9.37,1.583c9.036-3.733,16.948-10.969,23.932-17.67c-0.812-0.295-1.622-0.59-2.434-0.885 c-8.748,8.481-17.65,17.211-24.993,26.958c-1.088,1.445-5.746,7.263-1.803,8.175c4.361,1.009,9.98-5.178,12.761-7.638 c5.23-4.626,10.024-9.713,15.193-14.401c1.745-1.584-0.845-1.715-1.101-1.225c-0.707,1.356-1.863,2.579-2.795,3.781 c-2.516,3.245-5.057,6.512-6.939,10.177c-2.304,4.486-0.421,8.01,4.636,6.662c6.95-1.853,13.529-7.093,19.262-11.205 c1.679-1.204,20.585-14.463,17.718-17.082c-2.019-1.843-6.678,2.333-8.028,3.375c-6.02,4.644-10.965,10.683-14.833,17.188 c-1.006,1.692-3.221,5.218-1.304,6.998c1.692,1.572,5.333-0.748,6.713-1.632c13.957-8.944,25.108-23.476,34.946-36.497 c1.154-1.528-1.563-1.81-2.434-0.885c-4.316,4.586-8.512,9.29-12.626,14.058c-5.583,6.47-12.251,13.431-15.702,21.368 c-2.796,6.429,4.931,4.357,7.999,2.35c8.997-5.887,15.138-15.491,24.262-21.153c-0.644-0.453-1.288-0.906-1.932-1.359 c-2.785,2.302-24.363,21.553-15.758,24.505c4.903,1.682,10.992-3.798,14.408-6.552c4.144-3.342,10.914-8.416,12.285-13.878 c0.373-1.487-2.183-0.821-2.687-0.338c-3.356,3.22-14.209,12.46-11.298,17.847c1.921,3.554,9.042,0.029,11.163-1.156 c4.086-2.283,7.786-5.485,11.068-8.806c-0.812-0.295-1.622-0.59-2.434-0.885c-2.531,2.939-5.687,6.37-6.822,10.152 c-1.444,4.81,7.556,1.489,9.078,1.006c1.331-0.423,2.656-0.859,3.995-1.258c1.358-0.404,1.617-0.937,1.868,0.214 c0.364,1.668,1.778,3.207,3.119,4.163c4.562,3.256,6.418-3.701,6.698-6.689c0.143-1.521-2.813-1.129-2.939,0.209 c-0.161,1.728-0.276,6.374-2.668,3.789c-0.822-0.889-1.217-1.875-1.413-3.032c-0.372-2.186-3.926-1.026-5.208-0.682 c-2.053,0.553-4.06,1.291-6.092,1.911c-2.62,0.801-4.205,1.208-2.549-1.734c1.449-2.572,3.443-4.932,5.366-7.164 c1.239-1.438-1.545-1.784-2.434-0.885c-2.033,2.057-4.264,3.918-6.562,5.669c-1.478,1.126-12.479,7.704-10.457,1.829 c1.782-5.178,7.075-9.895,10.952-13.613c-0.896-0.112-1.791-0.225-2.687-0.338c-1.056,4.206-20.931,21.479-22.518,17.545 c-1.587-3.934,5.947-10.581,8.261-12.952c2.585-2.647,5.34-5.16,8.192-7.518c1.586-1.311-0.777-2.075-1.932-1.359 c-7.391,4.586-13.222,11.938-19.745,17.617c-0.716,0.623-8.211,6.427-8.242,4.549c-0.038-2.351,2.323-5.228,3.542-7.029 c7.169-10.6,16.121-20.213,24.878-29.515c-0.812-0.295-1.622-0.59-2.434-0.885c-8.214,10.873-17.059,21.438-27.275,30.499 c-2.599,2.305-5.363,4.621-8.455,6.238c-2.806,1.468-0.496-2.358,0.186-3.653c2.925-5.552,7.21-10.492,11.811-14.72 c1.519-1.396,3.148-2.665,4.84-3.842c0.643-0.447,1.302-0.816,1.999-1.161c-0.632-0.57-1.083-0.523-1.354,0.139 c-0.193,0.232-0.394,0.458-0.602,0.678c-5.274,5.779-12.213,10.472-18.585,14.929c-3.492,2.443-7.086,4.755-10.854,6.749 c-2.209,1.169-7.811,4.201-6.251-0.903c1.177-3.854,4.236-7.274,6.652-10.41c1.111-1.441,4.017-4.043,4.08-6.047 c0.113-3.633-7.125,3.475-7.371,3.713c-5.553,5.367-10.992,10.94-17.146,15.633c-0.981,0.749-2.867,2.501-4.204,2.462 c-0.048-0.002,1.612-3.277,1.774-3.523c2.808-4.268,6.386-8.085,9.82-11.846c5.27-5.771,10.76-11.359,16.371-16.799 c1.311-1.271-1.494-1.786-2.434-0.885c-5.093,4.887-10.601,9.458-16.465,13.386c-1.136,0.761-13.054,7.246-11.359,1.692 c0.744-2.438,3.77-3.756,4.362-6.096c0.191-0.756-0.85-0.971-1.346-0.977c-3.441-0.037-6.821,7.71-8.28,9.959 C49.153,46.33,45.72,52.583,41.06,57.502c-1.024,1.081,0.414,0.939,0.592-0.233c0.123-0.804,0.584-1.596,0.945-2.309 c1.371-2.703,3.227-5.177,5.019-7.608c4.622-6.271,9.7-12.214,14.827-18.072c4.305-4.919,8.693-9.789,13.307-14.423 c0.594-0.597,1.196-1.184,1.823-1.745c1.358-1.217-1.785-0.558-1.475-1.218c-0.775,1.649-2.487,3.104-3.721,4.395 C61.179,28.008,48.342,38.692,35.28,48.261c-2.53,1.854-5.117,3.653-7.846,5.201c-0.86,0.488-3.299,1.991-3.302,1.137 c-0.02-4.813,6.099-11.028,8.771-14.577c6.949-9.231,14.488-18.066,22.19-26.677c-0.869-0.206-1.737-0.412-2.605-0.619 c-3.769,5.894-8.889,11.035-13.707,16.06c-6.377,6.651-13.037,13.04-19.861,19.23c-4.85,4.4-9.786,8.908-15.227,12.579 c-0.531,0.359-1.125,0.774-1.742,0.976c1.564-0.511,0.601,1.103,1.403-0.475c0.989-1.947,2.455-3.7,3.784-5.418 c9.626-12.447,20.577-23.982,31.397-35.385c4.765-5.021,9.567-10.029,14.6-14.784c1.209-1.144,2.434-2.298,3.774-3.289 c0.927-0.685-1.647,1.506-1.48-0.518c-0.036,0.433-0.393,0.962-0.582,1.337c-0.897,1.771-2.095,3.402-3.229,5.025 c-3.52,5.033-7.339,9.877-11.208,14.646C39.244,24.146,41.995,24.64,42.843,23.595L42.843,23.595 M9.091,74.83c3.741-3.39,12.591-2.476,17.24-2.965c5.451-0.573,10.661-0.144,16.087-0.311 c6.257-0.193,12.503-0.974,18.737-1.507c4.978-0.426,9.358-0.02,14.295,0.31c8.426,0.562,15.681-1.409,23.719-3.469 c8.163-2.092,17.075,1.346,25.4,1.137c9.049-0.227,18.009-1.852,27.009-2.677c1.962-0.181,12.954,0.701,13.266-2.802 c0.136-1.52-2.819-1.124-2.938,0.211c0.699-0.691,0.372-0.774-0.982-0.251c-0.826,0.085-1.654,0.155-2.483,0.211 c-2.204,0.168-4.411,0.299-6.615,0.474c-4.276,0.338-8.533,0.959-12.792,1.46c-8.809,1.034-17.295,1.675-26.087,0.255 c-3.554-0.574-7.045-0.869-10.639-0.63c-4.117,0.275-7.942,2.006-11.916,2.954c-7.108,1.698-13.791,0.491-20.879,0.243 c-10.549-0.37-21.184,2.981-31.712,1.732c-6.415-0.762-13.274,0.712-19.649,1.283c-3.263,0.293-8.376,0.617-10.991,2.985 C5.706,74.793,7.996,75.822,9.091,74.83L9.091,74.83z"/>
</svg>