<?xml version="1.0" standalone="no"?>
<!DOCTYPE svg PUBLIC "-//W3C//DTD SVG 20010904//EN"
 "http://www.w3.org/TR/2001/REC-SVG-20010904/DTD/svg10.dtd">
<svg version="1.0" xmlns="http://www.w3.org/2000/svg"
 width="468pt" height="254pt" viewBox="0 0 468 254"
 preserveAspectRatio="xMidYMid meet">
<metadata>
Created by POTRACE VERSION, written by Peter Selinger 2001-2007
</metadata>
<g transform="translate(0,254) scale(0.050704,-0.050704)"
fill="#000000" stroke="none">
<path d="M4716 4717 c-45 -13 -79 -31 -100 -52 -17 -17 -50 -58 -74 -91 -23
-34 -75 -92 -114 -129 -40 -37 -84 -84 -99 -104 -15 -20 -46 -56 -69 -81 -23
-25 -51 -65 -62 -90 -11 -25 -35 -58 -54 -73 -19 -16 -41 -41 -48 -56 -9 -17
-12 -43 -9 -73 5 -45 5 -47 -36 -72 -27 -17 -42 -35 -46 -54 -3 -15 -10 -40
-16 -57 -6 -16 -14 -50 -18 -76 -4 -25 -16 -61 -28 -80 -11 -18 -24 -47 -27
-64 -4 -16 -19 -55 -32 -85 -14 -30 -36 -77 -49 -105 -13 -27 -36 -77 -51
-109 -15 -33 -42 -76 -59 -95 -28 -31 -33 -45 -37 -103 -3 -50 -9 -73 -24 -90
-12 -13 -38 -52 -59 -88 -21 -36 -46 -76 -57 -90 -10 -14 -27 -44 -37 -67 -11
-22 -27 -45 -36 -51 -10 -5 -43 -32 -74 -60 -31 -28 -77 -69 -102 -91 -33 -29
-57 -42 -90 -46 -24 -4 -54 -8 -65 -11 -12 -2 -24 -11 -28 -19 -3 -8 -3 -22 0
-30 4 -8 12 -15 19 -15 6 0 20 9 30 20 14 16 31 20 80 20 42 0 66 5 75 14 6 8
28 20 48 27 20 6 51 21 67 32 17 11 48 36 70 55 22 19 58 50 80 70 22 20 70
71 108 115 47 56 67 87 67 106 0 16 10 37 25 51 13 12 30 39 36 59 7 20 22 49
35 64 13 16 24 38 24 49 0 12 20 40 44 64 25 23 55 58 68 77 13 18 37 52 53
75 17 23 37 40 45 39 11 -2 14 -14 13 -40 -1 -20 -17 -67 -35 -105 -17 -37
-44 -82 -60 -100 -15 -18 -28 -42 -28 -53 0 -11 -7 -50 -16 -87 -8 -37 -21
-78 -29 -92 -7 -14 -16 -43 -21 -64 -4 -22 -15 -54 -25 -70 -10 -17 -25 -60
-34 -96 -9 -36 -19 -79 -22 -96 -3 -19 2 -44 11 -62 9 -17 25 -36 37 -42 15
-8 40 -8 91 0 40 6 93 23 121 38 27 14 61 42 75 60 14 18 45 47 69 63 24 17
59 54 78 82 19 29 39 74 44 101 5 26 18 60 29 75 11 15 35 56 53 92 30 59 33
73 37 174 3 85 0 120 -11 148 -13 29 -22 37 -41 37 -19 0 -27 -7 -32 -26 -4
-14 -4 -40 -1 -59 3 -19 1 -51 -5 -71 -5 -21 -18 -49 -29 -63 -10 -14 -23 -50
-29 -78 -5 -29 -19 -72 -31 -95 -12 -24 -31 -54 -44 -68 -13 -14 -26 -36 -30
-49 -4 -14 -37 -55 -74 -93 -36 -37 -73 -68 -83 -68 -9 0 -18 5 -20 12 -3 7
-1 37 4 68 5 30 23 91 40 135 17 44 39 91 48 105 9 14 38 68 63 120 26 53 47
110 47 127 0 17 16 59 36 95 19 34 42 70 50 79 8 8 14 21 14 28 0 7 10 31 22
52 12 22 25 39 29 39 4 0 19 24 33 54 14 30 38 69 53 87 15 17 61 57 101 88
41 31 90 66 108 79 19 12 65 52 103 88 38 35 84 76 103 89 18 14 63 45 100 70
37 25 73 56 79 68 7 12 32 47 57 77 25 30 65 73 89 96 23 22 49 57 58 77 8 20
15 56 15 81 0 35 -5 48 -22 60 -13 10 -43 16 -73 16 -39 0 -59 -6 -85 -25 -19
-14 -52 -30 -73 -36 -22 -6 -58 -22 -81 -37 -23 -15 -62 -49 -88 -77 -25 -27
-53 -65 -62 -83 -13 -26 -35 -42 -93 -70 -53 -25 -81 -44 -92 -65 -9 -16 -25
-41 -37 -56 -12 -14 -43 -57 -69 -96 -26 -38 -56 -89 -66 -113 -11 -24 -29
-47 -43 -53 -16 -8 -38 -37 -60 -83 -25 -51 -56 -90 -106 -139 -38 -37 -85
-75 -104 -84 -19 -9 -41 -13 -50 -10 -9 4 -16 13 -16 21 0 8 15 36 33 61 17
26 39 58 48 72 9 13 20 42 23 64 5 33 14 43 59 73 l54 34 0 60 c0 44 6 70 22
97 12 21 28 55 35 75 7 20 35 67 62 104 27 38 78 101 112 142 35 41 77 81 93
89 16 9 29 19 29 23 0 4 36 43 79 87 44 44 89 88 101 99 19 15 21 25 17 60 -4
25 -14 48 -27 58 -12 10 -25 18 -29 17 -3 -1 -37 -10 -75 -22z m429 -367 c4
-12 2 -27 -5 -34 -6 -8 -22 -17 -37 -21 -14 -3 -48 -30 -75 -60 -27 -30 -59
-57 -71 -61 -12 -4 -62 -48 -112 -98 -49 -50 -109 -106 -132 -123 -23 -18 -44
-33 -47 -33 -3 0 -6 9 -6 21 0 11 10 34 23 51 12 16 47 58 78 92 31 35 62 72
68 84 6 11 26 25 44 31 19 7 55 36 86 72 31 35 72 69 95 79 23 10 51 19 63 19
13 1 24 -7 28 -19z"/>
<path d="M2103 4699 c-17 -5 -41 -22 -53 -37 -11 -15 -41 -52 -66 -84 -26 -33
-56 -59 -72 -63 -14 -3 -47 -21 -72 -40 -25 -18 -56 -45 -69 -59 -20 -21 -24
-35 -22 -80 1 -40 -5 -66 -24 -105 -19 -36 -34 -53 -52 -58 -17 -4 -37 0 -56
10 -16 10 -35 17 -42 17 -8 0 -19 -9 -25 -21 -7 -11 -9 -31 -6 -44 3 -13 15
-26 25 -30 11 -3 24 -12 31 -20 9 -10 9 -19 -1 -37 -6 -13 -22 -34 -34 -48
-12 -14 -26 -38 -29 -54 -4 -16 -18 -43 -32 -59 -13 -16 -24 -32 -24 -37 0 -4
-23 -32 -50 -62 -28 -29 -65 -78 -83 -108 -18 -30 -47 -64 -64 -75 -18 -11
-37 -33 -44 -50 -7 -16 -22 -38 -33 -48 -12 -10 -38 -29 -58 -43 -21 -13 -38
-31 -38 -38 0 -8 -12 -29 -27 -47 -15 -17 -42 -38 -60 -46 -19 -7 -38 -24 -44
-37 -6 -13 -29 -34 -51 -47 -22 -13 -61 -41 -86 -61 -26 -21 -60 -48 -77 -61
-26 -21 -45 -25 -145 -32 -63 -4 -123 -11 -132 -16 -13 -7 -18 -22 -18 -49 0
-22 7 -45 16 -55 11 -11 26 -14 52 -10 21 4 59 11 85 16 26 5 62 16 80 25 18
9 47 30 65 45 18 16 38 29 45 29 7 0 34 18 61 40 26 22 52 40 57 40 5 0 14 11
20 23 6 13 33 37 60 53 27 15 51 36 55 46 3 9 32 42 65 71 33 30 73 75 90 100
17 26 40 48 54 51 14 4 32 19 42 34 9 15 28 39 42 55 13 15 30 27 35 27 6 0
30 22 53 48 23 26 68 77 98 114 48 58 62 69 97 74 23 4 55 19 73 35 18 16 38
29 44 29 6 0 26 14 44 31 l32 31 104 -5 c89 -5 109 -10 143 -32 21 -14 43 -36
47 -48 5 -12 27 -37 50 -55 22 -18 41 -41 41 -52 0 -10 -4 -22 -10 -25 -5 -3
-10 -15 -10 -25 0 -11 -13 -35 -30 -53 -24 -28 -30 -44 -30 -79 0 -35 -7 -54
-30 -83 -16 -21 -30 -41 -30 -44 0 -4 -38 -46 -84 -94 -46 -48 -91 -87 -100
-87 -9 0 -33 -15 -53 -34 -30 -27 -55 -37 -121 -51 -67 -15 -85 -16 -92 -5 -4
7 -16 41 -25 77 l-18 64 27 28 c14 15 26 36 26 47 0 11 -10 30 -23 42 -13 12
-31 22 -40 22 -9 0 -24 -11 -33 -25 -12 -18 -15 -38 -11 -68 4 -28 1 -48 -9
-61 -8 -11 -14 -35 -14 -53 0 -18 12 -56 28 -83 17 -32 36 -53 52 -58 14 -4
61 -7 105 -7 44 0 94 6 112 14 18 7 39 24 48 37 8 13 21 24 28 24 7 0 26 13
41 29 15 16 41 31 57 35 19 3 62 37 120 94 50 49 101 105 113 124 11 19 30 50
41 68 11 18 35 50 53 70 17 21 32 42 32 47 0 4 13 40 30 78 16 39 30 75 30 82
0 7 -14 28 -30 47 -18 20 -50 41 -77 50 -25 9 -54 23 -64 32 -9 8 -30 19 -45
23 -16 4 -30 14 -32 23 -2 9 23 40 55 71 32 30 78 70 103 89 25 18 66 46 92
61 25 15 56 39 68 54 16 20 20 36 16 58 -4 16 -12 35 -19 42 -6 6 -24 15 -39
18 -19 5 -32 1 -47 -14 -12 -12 -45 -33 -74 -46 -28 -14 -113 -57 -187 -95
-74 -38 -145 -69 -158 -70 -13 0 -53 -25 -93 -60 -44 -38 -78 -60 -94 -60 -15
0 -25 6 -25 14 0 7 18 29 39 49 21 19 47 38 57 41 11 4 27 18 38 32 10 15 24
47 30 73 10 40 17 48 54 65 35 16 44 26 53 60 7 27 27 56 58 86 26 25 65 58
85 74 21 16 44 44 52 62 8 18 14 40 14 48 0 8 -7 22 -16 30 -8 9 -30 16 -47
15 -18 0 -46 -5 -64 -10z"/>
<path d="M3800 4219 c-19 -12 -52 -37 -73 -57 -21 -21 -59 -44 -85 -52 -39
-13 -49 -22 -67 -58 -17 -37 -28 -45 -78 -64 -43 -16 -65 -31 -83 -57 -13 -20
-24 -41 -24 -48 0 -7 -16 -30 -35 -52 -19 -21 -35 -43 -35 -48 0 -5 -16 -34
-35 -64 -19 -31 -53 -68 -75 -83 -22 -14 -51 -44 -65 -66 -20 -32 -31 -40 -55
-40 -20 0 -43 -11 -67 -33 -21 -19 -72 -52 -113 -75 -41 -22 -102 -66 -135
-96 -33 -31 -72 -67 -86 -81 -19 -18 -37 -25 -67 -25 -22 0 -47 3 -56 6 -9 3
-16 13 -16 22 0 8 16 43 35 78 19 34 35 74 35 87 0 14 11 39 25 55 14 17 25
34 25 40 0 6 28 41 63 78 34 37 84 89 111 115 27 26 66 52 87 58 26 8 52 28
81 62 24 28 61 60 83 71 22 11 48 27 58 36 9 8 17 23 17 34 0 10 -9 27 -21 39
-16 16 -28 19 -52 14 -18 -4 -71 -24 -118 -46 -47 -21 -90 -39 -96 -39 -5 0
-18 -9 -28 -20 -9 -10 -42 -26 -72 -35 -52 -15 -55 -18 -48 -43 3 -15 9 -38
11 -52 4 -17 -3 -36 -20 -60 -14 -19 -37 -57 -51 -85 -14 -27 -39 -72 -56
-100 -17 -27 -41 -61 -53 -75 -12 -14 -30 -38 -40 -53 -9 -15 -22 -63 -28
-106 -11 -70 -10 -82 6 -106 9 -14 38 -39 64 -56 25 -16 54 -29 65 -29 10 0
38 14 63 30 24 17 44 35 44 40 0 5 24 25 53 43 28 19 72 56 97 82 25 26 65 57
90 70 25 12 54 32 64 44 11 12 26 21 34 21 10 0 13 -7 9 -22 -3 -13 -11 -39
-17 -58 -7 -19 -22 -52 -33 -73 -15 -31 -17 -44 -9 -62 6 -13 25 -31 43 -40
18 -10 41 -14 55 -11 14 4 32 22 44 45 11 22 24 42 29 45 5 4 15 23 22 44 6
20 38 80 70 132 31 53 61 109 65 125 4 17 18 47 30 67 13 20 34 42 46 49 13 6
42 27 66 46 37 30 42 39 42 74 0 37 7 46 90 129 50 50 105 96 123 104 18 7 51
34 75 59 32 36 42 54 42 81 0 19 -3 41 -6 50 -3 9 -11 16 -18 16 -6 0 -27 -9
-46 -21z"/>
<path d="M5665 3977 c-14 -11 -16 -21 -11 -49 3 -19 1 -50 -5 -69 -7 -19 -18
-41 -25 -50 -8 -8 -14 -35 -14 -60 0 -39 -6 -50 -52 -99 -28 -30 -66 -77 -83
-105 -18 -27 -41 -57 -51 -66 -11 -9 -40 -26 -67 -37 -26 -12 -50 -28 -53 -37
-4 -9 -19 -22 -35 -30 -15 -8 -37 -15 -47 -15 -11 0 -22 7 -26 15 -3 8 0 26 6
40 6 14 15 25 19 25 5 0 20 21 35 48 15 26 45 66 66 89 21 24 38 51 38 60 0
10 23 42 50 72 28 30 50 60 50 68 0 7 -12 18 -26 23 -14 6 -39 10 -55 10 -17
0 -39 -4 -49 -10 -10 -5 -21 -23 -25 -40 -3 -16 -29 -53 -57 -82 -27 -29 -61
-70 -75 -90 -14 -21 -29 -38 -32 -38 -4 0 -15 -15 -25 -32 -11 -18 -38 -54
-62 -79 -24 -26 -50 -64 -58 -84 -9 -21 -16 -52 -16 -69 0 -17 7 -41 15 -53 9
-12 30 -25 48 -28 18 -3 64 2 107 14 41 11 89 26 105 35 17 8 57 19 89 24 48
8 63 15 80 38 11 16 33 40 49 54 16 14 47 43 69 64 22 22 47 55 55 75 8 20 23
45 34 57 10 11 23 41 28 67 5 26 21 66 37 89 26 36 29 52 33 130 2 69 -1 94
-13 113 -9 14 -20 25 -24 25 -5 0 -16 -6 -27 -13z"/>
<path d="M6742 3904 c-34 -8 -89 -27 -122 -44 -43 -22 -73 -30 -112 -30 -40 0
-57 5 -76 23 -21 20 -34 22 -117 22 -77 0 -96 -3 -114 -19 -12 -11 -21 -31
-21 -47 0 -23 9 -34 40 -54 29 -18 40 -32 40 -49 0 -14 -5 -37 -10 -52 -6 -15
-45 -63 -86 -106 -41 -43 -88 -100 -104 -127 -17 -27 -46 -59 -65 -70 -20 -11
-35 -28 -35 -39 0 -10 5 -23 12 -30 7 -7 28 -12 49 -12 25 0 48 9 74 30 21 17
42 30 46 30 5 0 27 24 50 53 23 28 73 88 113 131 39 44 80 87 91 97 11 10 47
41 80 69 33 27 65 50 71 50 7 0 38 14 69 30 47 25 69 30 125 30 47 0 71 -4 80
-15 6 -8 14 -31 16 -52 4 -25 -1 -49 -13 -71 -10 -19 -36 -56 -58 -84 -22 -27
-57 -68 -77 -89 -21 -22 -38 -44 -38 -49 0 -4 -24 -25 -52 -46 -29 -21 -85
-66 -125 -99 -39 -33 -82 -67 -94 -76 -18 -13 -24 -26 -24 -59 0 -32 6 -47 24
-61 13 -10 38 -19 56 -19 18 0 54 9 80 21 40 18 53 19 90 10 23 -6 82 -14 129
-17 68 -6 89 -11 96 -24 5 -10 21 -20 34 -24 14 -3 36 -2 50 4 15 5 26 17 26
28 0 10 -13 31 -29 46 -24 23 -35 27 -60 21 -21 -4 -49 0 -86 14 -31 12 -66
21 -79 21 -13 0 -41 -6 -62 -13 -22 -7 -46 -12 -56 -10 -9 2 -19 12 -23 21 -4
12 6 27 34 52 23 19 70 64 105 99 35 35 79 80 99 100 20 20 80 79 132 131 53
52 98 103 100 115 2 11 7 55 10 97 3 46 2 86 -4 97 -7 12 -27 21 -58 26 -26 4
-55 11 -63 15 -8 4 -33 10 -55 13 -22 3 -68 -1 -103 -9z"/>
<path d="M400 3457 c-15 -7 -26 -23 -28 -37 -2 -17 7 -36 29 -58 25 -25 40
-32 70 -32 33 0 41 -5 54 -30 8 -16 24 -34 35 -40 15 -8 20 -21 20 -48 0 -21
5 -43 12 -50 7 -7 22 -12 34 -12 12 0 27 7 34 15 9 10 11 32 7 65 -3 28 -18
77 -33 110 -15 34 -44 76 -65 95 -34 31 -46 35 -92 35 -28 0 -63 -6 -77 -13z"/>
<path d="M3505 3075 c-22 -14 -50 -25 -63 -25 -13 0 -38 -16 -58 -35 -25 -25
-44 -35 -66 -35 -17 0 -55 -15 -87 -34 -31 -19 -64 -43 -73 -53 -9 -10 -36
-31 -59 -48 -23 -16 -59 -48 -81 -70 -21 -22 -50 -60 -63 -84 -14 -24 -25 -50
-25 -57 0 -8 11 -19 24 -25 14 -7 36 -9 50 -5 17 4 31 18 39 39 8 18 41 55 73
83 32 28 98 70 146 93 48 23 93 50 100 60 7 10 22 22 33 28 11 6 34 13 51 16
16 3 64 21 105 40 59 27 78 41 93 70 17 30 18 38 7 51 -9 11 -29 16 -60 16
-31 -1 -59 -9 -86 -25z"/>
<path d="M7251 2830 c-13 -11 -38 -20 -56 -20 -26 0 -44 -12 -101 -71 -38 -38
-91 -87 -119 -108 -27 -21 -70 -47 -95 -58 -25 -11 -51 -27 -59 -36 -7 -10
-24 -17 -36 -17 -13 0 -54 -16 -92 -36 -37 -20 -142 -74 -233 -120 -91 -45
-191 -94 -222 -107 -31 -14 -83 -31 -115 -37 -32 -7 -78 -22 -103 -35 -25 -12
-67 -27 -95 -34 -27 -7 -60 -19 -72 -26 -11 -8 -43 -20 -70 -26 -26 -6 -62
-20 -80 -31 -17 -10 -60 -23 -94 -29 -34 -5 -78 -18 -98 -28 -20 -10 -52 -22
-71 -26 -19 -4 -62 -18 -95 -33 -33 -14 -94 -40 -135 -58 -41 -18 -100 -36
-130 -40 -30 -4 -73 -15 -96 -24 -22 -10 -76 -26 -120 -35 -43 -10 -113 -31
-154 -47 -41 -16 -80 -34 -85 -38 -6 -5 -51 -17 -100 -26 -50 -9 -104 -26
-122 -36 -21 -12 -67 -23 -130 -29 -66 -7 -113 -18 -143 -33 -25 -13 -74 -26
-110 -29 -49 -5 -69 -12 -83 -28 -9 -12 -20 -32 -23 -45 -4 -14 -1 -31 6 -39
7 -8 19 -15 27 -15 8 0 26 9 39 19 13 11 48 22 77 25 28 4 81 11 117 17 36 6
83 17 105 24 22 8 85 21 139 30 55 9 107 20 117 25 10 6 40 15 69 21 28 6 63
22 79 35 22 18 45 25 102 30 46 4 91 15 119 29 25 12 65 26 90 30 25 4 61 15
80 25 19 9 49 20 65 24 17 4 53 12 82 16 28 5 64 17 79 27 15 9 55 25 88 34
34 10 101 31 150 48 48 17 95 36 103 42 7 7 56 18 108 25 60 8 113 23 144 39
28 14 74 34 103 46 29 11 77 25 108 31 30 5 70 18 90 28 19 10 57 21 83 25 25
4 67 20 92 36 25 16 72 40 103 53 31 13 84 31 117 41 32 9 82 28 110 42 27 14
63 35 80 47 16 11 48 29 70 39 22 10 53 34 68 53 16 19 48 44 70 56 23 11 65
39 92 62 28 23 66 53 85 68 19 14 63 53 98 87 42 41 62 69 62 85 0 14 -3 31
-6 40 -3 9 -16 16 -28 16 -11 -1 -32 -10 -45 -20z"/>
<path d="M3681 1491 c-19 -3 -39 -13 -44 -22 -7 -12 -7 -26 2 -47 8 -19 24
-35 43 -41 28 -10 37 -7 84 25 31 20 54 43 54 53 0 9 -5 22 -12 29 -7 7 -30
11 -52 11 -23 -1 -56 -4 -75 -8z"/>
<path d="M3460 1415 c-6 -8 -9 -23 -5 -35 3 -11 14 -20 24 -20 9 0 22 5 29 12
7 7 12 20 12 29 0 9 -7 20 -16 23 -9 3 -19 6 -24 6 -4 0 -13 -7 -20 -15z"/>
<path d="M3053 1363 c-7 -2 -13 -13 -13 -23 0 -10 12 -23 30 -30 16 -7 41 -9
55 -6 14 4 28 13 32 21 3 9 0 22 -7 30 -7 9 -28 15 -49 14 -20 0 -42 -3 -48
-6z"/>
<path d="M5010 1341 c-14 -5 -165 -11 -335 -15 -171 -4 -337 -12 -370 -18 -33
-6 -80 -17 -105 -24 -39 -13 -58 -12 -153 3 -81 13 -119 15 -156 7 -30 -6 -59
-6 -76 -1 -21 7 -35 6 -54 -6 -18 -11 -65 -17 -146 -22 -66 -3 -186 -7 -267
-9 -81 -3 -153 -8 -159 -12 -7 -4 -69 -11 -138 -15 -69 -4 -175 -12 -236 -18
-60 -6 -136 -13 -168 -16 -32 -3 -71 -12 -87 -20 -16 -9 -49 -18 -73 -21 -24
-4 -69 -1 -100 6 -47 9 -71 9 -130 -4 -40 -8 -112 -22 -162 -31 -52 -9 -169
-17 -275 -20 -102 -2 -215 -7 -252 -11 -61 -6 -78 -3 -183 31 -104 34 -120 37
-153 26 -20 -6 -58 -27 -84 -46 -30 -22 -48 -43 -48 -55 0 -11 18 -40 41 -65
35 -38 54 -48 122 -69 45 -13 107 -27 137 -31 47 -6 59 -4 82 14 14 12 33 21
42 21 9 0 35 -9 58 -21 33 -17 51 -20 97 -15 31 4 72 7 91 8 19 0 82 -5 140
-11 l105 -12 70 33 c65 30 81 33 205 38 74 4 148 12 163 18 16 7 39 12 53 12
14 0 61 14 105 31 l79 32 73 -16 72 -16 61 30 c34 16 78 29 100 29 21 1 57 8
79 17 22 8 76 19 120 24 44 5 132 11 195 14 63 2 138 11 165 19 28 8 70 22 95
31 35 13 66 16 145 12 55 -3 141 -7 190 -10 50 -2 146 0 215 5 69 5 181 13
250 17 69 4 144 3 168 -1 24 -4 81 -3 130 3 48 6 185 10 304 9 207 -2 218 -1
252 19 l34 22 34 -21 c18 -11 47 -20 65 -20 22 0 36 6 43 20 6 12 8 29 5 39
-3 11 -13 25 -22 33 -9 7 -48 16 -87 20 -39 4 -120 11 -181 17 -60 5 -121 12
-135 14 -14 3 -36 2 -50 -2z"/>
<path d="M6361 1334 c-21 -9 -78 -16 -151 -18 -65 -2 -127 -9 -138 -15 -12 -6
-33 -11 -47 -11 -14 0 -49 7 -76 16 -41 14 -63 15 -122 7 -41 -6 -82 -7 -95
-2 -13 5 -42 9 -66 9 -23 0 -50 -6 -60 -13 -10 -7 -17 -22 -14 -33 2 -13 18
-23 53 -32 28 -7 100 -14 160 -15 84 -1 123 3 164 17 43 15 61 17 85 8 17 -6
83 -10 146 -10 90 1 122 -2 147 -15 18 -9 42 -17 55 -17 13 0 38 13 56 30 28
25 31 33 22 50 -6 12 -26 30 -43 40 -18 11 -34 20 -37 20 -3 -1 -20 -7 -39
-16z"/>
<path d="M6950 1312 c-14 -2 -33 -11 -42 -19 -10 -9 -18 -28 -18 -43 0 -15 6
-32 13 -38 6 -6 25 -14 40 -17 15 -4 40 -2 56 5 16 6 35 24 41 40 8 20 9 34 1
48 -6 11 -23 21 -38 23 -16 2 -39 3 -53 1z"/>
<path d="M6550 1295 c-7 -8 -10 -25 -6 -40 3 -13 16 -29 27 -35 11 -7 27 -9
35 -6 8 3 14 17 14 31 0 15 -5 35 -10 46 -6 10 -19 19 -29 19 -10 0 -24 -7
-31 -15z"/>
<path d="M7130 1291 c-8 -5 -12 -12 -10 -14 3 -3 19 -12 37 -21 17 -9 34 -25
38 -36 3 -11 17 -23 31 -26 14 -4 38 -4 54 0 16 3 48 17 70 31 22 14 40 29 40
34 0 5 -8 17 -17 26 -13 14 -28 16 -72 11 -31 -4 -63 -7 -71 -7 -8 -1 -31 2
-50 5 -19 4 -42 2 -50 -3z"/>
<path d="M7483 1249 c-19 -5 -33 -16 -33 -25 0 -8 12 -19 26 -24 14 -6 39 -10
55 -10 17 0 39 5 50 10 10 6 19 17 19 25 0 8 -9 19 -19 25 -11 5 -30 10 -43 9
-13 0 -38 -5 -55 -10z"/>
<path d="M8546 1239 c-14 -11 -31 -29 -36 -39 -5 -10 -7 -26 -4 -34 4 -9 37
-25 80 -37 60 -18 78 -28 104 -60 17 -22 37 -60 45 -87 8 -26 15 -65 15 -86 0
-27 7 -47 21 -62 19 -20 20 -30 14 -83 -4 -39 -15 -71 -31 -92 -13 -18 -24
-47 -24 -64 0 -17 7 -41 16 -53 8 -12 26 -22 38 -22 15 0 37 15 57 38 23 25
41 61 56 112 12 41 31 118 42 170 15 70 19 112 14 160 -6 59 -11 70 -52 118
-30 35 -65 62 -101 79 -30 14 -85 33 -122 44 -37 10 -76 19 -87 19 -10 0 -30
-9 -45 -21z"/>
<path d="M8164 1235 c-4 -8 -4 -22 0 -30 3 -10 19 -15 44 -15 24 0 45 6 53 16
11 14 10 18 -6 30 -10 8 -34 14 -52 14 -21 0 -36 -6 -39 -15z"/>
</g>
</svg>
