<?xml version="1.0" encoding="UTF-8"?>
<svg version="1.0" xmlns="http://www.w3.org/2000/svg" width="286" height="66" >
<path fill="#231F20" d="M3.549,42.553C3.434,42.511,7.577,38.606,8.328,38c2.179-1.762,4.388-3.486,6.574-5.239 c5.671-4.548,11.222-9.263,16.313-14.459c3.872-3.952,7.745-8.462,9.454-13.815c0.647-2.026,0.228-5.696-2.813-4.092 c-2.525,1.332-4.344,5.42-5.692,7.737c-2.027,3.485-4.053,7.29-4.975,11.243C24.591,30.506,42.72,19.2,45.676,16.894 c-0.849-0.849-1.696-1.696-2.545-2.545c-3.96,3.161-2.875,6.46-3.576,10.752c-0.396,2.427-1.431,4.726-2.739,6.785 c-2.635,4.149-5.848,2.094-8.192-1.173c-0.678,0.881-1.355,1.763-2.033,2.644c6.599,2.441,14.135,4.357,21.196,3.536 c2.237-0.26,6.151-1.233,7.043-3.685c0.704-1.937-1.11-3.359-2.912-3.382c-5.489-0.066-6.984,6.915-1.846,9.303 c2.986,1.388,5.367,0.452,7.827-1.526c1.259-1.011,4.31-4.136,2.98-5.997c-0.679-0.951-1.929-1.216-2.827-0.364 c-2.833,2.689-3.911,9.129-0.261,11.458c1.709,1.09,3.848,0.024,5.039-1.262c2.086-2.252,1.258-5.784,0.307-8.295 c-0.578,0.76-1.157,1.519-1.735,2.278c2.334,0.304,4.683,0.433,7.032,0.282c0.873-0.056,1.811-0.196,2.606-0.574 c-1.072-1.098-1.445-1.207-1.118-0.326c0.162,0.676,0.198,1.393,0.286,2.081c0.469,3.687,2.534,7.257,6.436,4.292 c1.823-1.386,0.032-4.515-1.816-3.109c-1.372,1.043-1.094-1.832-1.255-3.029c-0.154-1.15-0.313-2.674-1.438-3.333 c-1.379-0.808-3.285,0.372-4.708,0.463c-1.991,0.128-4.051-0.089-6.025-0.346c-1.111-0.145-2.118,1.268-1.735,2.278 c0.529,1.098,0.82,2.258,0.873,3.481c-1.434,2.087-1.868,1.904-1.304-0.549c0.18-1.006,0.589-2.511,1.362-3.245 c-0.942-0.121-1.885-0.243-2.827-0.364c0.02-1.187-0.148-1.359-0.504-0.518c-0.367,0.547-0.783,1.053-1.247,1.52 c-0.529,0.563-1.129,1.041-1.798,1.435c-1.907,1.236-4.853-1.766-3.295-2.338c1.235-0.454,1.397-2.166-0.179-1.228 c-1.886,1.122-4.23,1.185-6.353,1.199c-5.634,0.041-11.587-1.661-16.849-3.607c-1.438-0.532-2.934,1.388-2.033,2.644 c3.676,5.124,9.481,7.97,13.9,1.875c1.805-2.489,2.973-5.346,3.61-8.347c0.73-3.434-0.598-6.571,2.649-9.164 c1.822-1.454-0.745-3.95-2.545-2.545c-1.362,1.062-2.925,2.046-4.428,2.968c-1.09,0.67-8.283,3.594-8.128,4.021 c-0.792-2.197,2.276-6.866,3.214-8.686c1.46-2.835,3.088-5.707,5.063-8.221c1.285-1.637-1.18-2.763-1.503-1.433 c-0.562,2.313-1.837,4.345-3.166,6.285c-6.385,9.322-16.297,16.551-25.048,23.502C6.526,34.857-5.1,43.216,2.592,46.023 C4.778,46.821,5.711,43.342,3.549,42.553L3.549,42.553z"/>
<path fill="#231F20" d="M95.292,33.713c-2.834-5.076-12.857-7.114-14.473,0.132c-0.593,2.66,2.126,4.449,4.322,4.967 c3.548,0.838,6.174-1.654,7.331-4.712c-1.157,0-2.313,0-3.471,0c1.593,5.131,3.354,10.213,5.247,15.239 c1.771,4.705,3.889,13.103,8.58,15.837c0.462-1.097,0.925-2.193,1.387-3.29c-5.662-1.207-18.841-6.023-17.534-13.632 c0.927-5.396,19.812-4.1,16.187-11.54c-2.273-4.668-9.385-1.271-7.127,3.414c2.33,4.834,10.055,7.066,11.731,0.639 c0.587-2.249-2.886-3.202-3.471-0.957c-0.698,2.676-3.14,0.854-4.072,0.072c-1.621-1.359-3.027-0.567-5.024-0.024 c-2.434,0.661-4.798,1.444-7.081,2.517c-3.623,1.7-5.323,4.843-4.527,8.725c1.661,8.095,12.83,12.737,19.962,14.258 c1.957,0.418,3.208-2.229,1.387-3.29c-1.757-1.023-2.771-3.965-3.603-5.696c-1.551-3.232-2.815-6.605-4.061-9.964 c-1.623-4.376-3.125-8.806-4.51-13.264c-0.556-1.792-2.854-1.632-3.471,0c-0.715,1.887-1.837,2.449-3.616,2.029 c-0.024-0.555-0.05-1.109-0.074-1.663c1.411-0.998,2.87-1.161,4.376-0.49c1.057,0.462,1.943,1.521,2.495,2.511 C93.314,37.557,96.424,35.742,95.292,33.713L95.292,33.713z"/>
<path fill="#231F20" d="M135.292,25.38c-4.55-9.457-15.638-3.26-16.261,5.199c-0.895,12.132,22.274,8.619,28.185,7.777 c2.291-0.325,1.313-3.794-0.957-3.471c-4.74,0.674-21.242,3.808-23.515-3.201c-0.56-1.728,0.597-3.736,1.622-5.042 c2.657-3.388,5.989-3.246,7.816,0.554C133.189,29.288,136.293,27.461,135.292,25.38L135.292,25.38z"/>
<path fill="#231F20" d="M168.131,16.682c-5.052,5.585-7.59,14.223-6.722,21.726c1.153,9.964,11.098-2.742,12.883-5.211 c-1.097-0.143-2.193-0.286-3.29-0.43c1.037,4.107,4.089,11.289,9.547,9.923c8.119-2.031,12.199-9.646,9.924-17.547 c-0.641-2.227-4.115-1.279-3.471,0.957c1.358,4.72-1.258,14.147-8.107,13.062c-2.521-0.398-3.896-5.268-4.422-7.352 c-0.412-1.634-2.429-1.621-3.29-0.43c-1.562,2.161-3.81,6.14-6.517,7.234c0.635-0.257,0.318-0.086,0.242-1.389 c-0.055-0.932,0.026-1.876,0.093-2.805c0.396-5.498,1.896-11.015,5.675-15.194C172.229,17.51,169.69,14.956,168.131,16.682 L168.131,16.682z"/>
<path fill="#231F20" d="M207.646,33.066c-1.693-1.26-3.441-2.667-4.7-4.376c-0.824-1.119-1.315-2.343-3.025-1.872 c-2.92,0.803-5.12,6.291-4.552,9.007c0.613,2.931,2.579,6.036,5.401,7.232c4.801,2.036,7.942-3.685,9.522-7.195 c-1.118-0.303-2.236-0.605-3.354-0.908c0.296,2.702,0.909,10.882,4.985,10.809c5.363-0.097,11.915-6.542,14.333-10.856 c1.962-3.503-0.029-9.99-4.458-6.063c-3.651,3.237-6.577,8.275-3.09,12.566c3.481,4.285,9.684,6.338,14.21,2.207 c1.662-1.517,9.368-10.301,4.537-12.257c-4.014-1.625-12.477,13.896-0.385,12.395c2.272-0.282,2.3-3.886,0-3.6 c-1.88,0.233-3.356,0.494-2.393-1.697c0.556-1.263,1.486-2.703,2.597-3.554c-1.034-1.729-1.684-2.137-1.949-1.225 c-0.149,0.456-0.336,0.896-0.562,1.319c-1.176,2.48-2.717,4.854-4.976,6.471c-3.109,2.225-6.81-0.192-8.655-2.812 c-1.435-2.035,0.771-4.609,2.085-6.18c0.38-0.448,0.811-0.842,1.292-1.179c-0.997-0.309-1.385,0.129-1.165,1.315 c-0.554,2.094-2.703,3.854-4.257,5.229c-1.345,1.191-6.286,5.607-7.281,3.077c-0.73-1.859-1.053-3.987-1.27-5.967 c-0.171-1.56-2.534-2.729-3.354-0.908c-1.119,2.488-3.292,7.82-6.463,4.616c-1.36-1.375-2.053-3.224-1.562-5.069 c0.572-2.154,1.744-1.758,0.357-3.73c0.606,0.862,1.083,1.673,1.8,2.471c1.309,1.456,2.946,2.676,4.514,3.843 C207.693,37.563,209.485,34.436,207.646,33.066L207.646,33.066z"/>
<path fill="#231F20" d="M250.162,33.733c-2.723,1.163-5.48,2.644-7.614,4.72c-2.59,2.521-1.75,7.076,2.44,6.279 c1.708-0.324,3.352-1.766,4.472-3.01c0.613-0.68,1.028-1.438,1.346-2.29c-1.084,2.907-3.02-0.342-2.283,0.759 c0.178,0.267,0.339,0.546,0.507,0.819c1.713,2.808,4.236,4.991,7.313,2.55c1.819-1.441-0.747-3.972-2.545-2.545 c-1.125,0.892-3.49-8.162-6.612-2.238c-0.592,1.124-1.971,2.104-3.154,2.484c0.281,0.641,0.478,0.752,0.59,0.333 c0.125-0.224,0.283-0.422,0.473-0.596c0.44-0.483,0.979-0.874,1.51-1.25c1.651-1.168,3.517-2.112,5.375-2.906 C254.107,35.933,252.271,32.832,250.162,33.733L250.162,33.733z"/>
<path fill="#231F20" d="M264.203,40.954c0.156-1.866,0.248-6.032-2.261-6.575c-3.018-0.653-5.236,2.363-5.843,4.992 c-2.502,10.832,15.822,7.096,20.39,4.538c2.25-1.261,4.491-3.825,3.716-6.565c-0.542-1.914-2.74-2.458-4.422-1.855 c-8.992,3.224,4.407,14.378,7.046,16.354c1.859,1.393,3.651-1.735,1.816-3.109c-2.609-1.954-7.93-5.439-8.081-9.225 c-0.012-0.315,0.238-0.65,0.565-0.682c-0.535,0.052-1.457,1.304-2.457,1.974c-2.87,1.921-13.287,4.951-15.007,0.42 c-0.504-1.325,1.149-2.324,0.854-3.274c0.283,0.908,0.162,2.067,0.084,3.008C260.41,43.269,264.012,43.25,264.203,40.954 L264.203,40.954z"/>
</svg>