<?xml version="1.0" encoding="UTF-8"?>
<svg version="1.1" xmlns="http://www.w3.org/2000/svg" width="389" height="90" >
<path d="M14.279,60.668c14.049-5.255,27.957-10.918,41.743-16.825c11.041-4.73,22-9.683,32.691-15.162 c7.667-3.929,15.736-8.075,22.162-13.909c0.909-0.826-0.251-2.205-1.272-1.649C95.88,20.593,81.11,30.378,71.716,43.038 c-1.59,2.143-10.7,13.818-4.615,15.873c1.808,0.611,4.241-0.56,5.849-1.237c0.791-0.333,5.4-3.083,4.987-0.707 c-0.759,4.364-7.603,8.06-10.813,10.146c-3.108,2.021-8.033,4.198-9.343,8.037c-2.031,5.948,13.095,0.767,14.054,0.359 c6.63-2.825,12.2-7.079,18.334-10.765c4.491-2.698,10.376-6.158,15.793-6.22c-0.393,0.004-3.483,2.663-4.734,3.474 c-2.519,1.634-5.177,3.008-7.638,4.737c-1.664,1.169-4.316,3.031-4.217,5.353c0.341,7.935,26.019-7.397,27.508-8.399 c1.123-0.754,0.151-2.434-1.06-1.813c-3.279,1.681-14.015,7.043-10.556,12.062c1.463,2.123,4.285,1.024,6.093,0.129 c5.825-2.886,10.487-7.296,16.721-9.539c4.285-1.542,8.746-2.422,13.021-4.1c5.621-2.207,11.077-4.833,16.426-7.63 c11.091-5.8,22.608-12.774,30.818-22.397c0.637-0.746,0.054-2.102-1.021-1.755c-6.355,2.051-12.661,4.629-18.449,7.965 c-2.704,1.559-5.486,3.505-7.059,6.268c-1.426,2.505-1.45,5.504-2.185,8.224c-1.918,7.103-11.09,9.189-16.481,13.108 c-1.043,0.758-3.769,2.714-2.711,4.364c1.159,1.806,4.404,0.643,5.958,0.196c6.064-1.743,11.851-4.737,17.442-7.592 c13.517-6.899,26.037-15.439,39.271-22.808c1.131-0.63,2.273-1.239,3.435-1.811c0.451-0.222,0.908-0.434,1.377-0.619 c1.684-0.665-1.006,0.329-0.093-1.306c-0.727,1.301-2.396,2.392-3.496,3.335c-3.199,2.743-6.553,5.313-9.891,7.881 c-7.346,5.652-15.142,10.884-21.895,17.262c-1.247,1.178-4.998,4.402-3.441,6.518c1.364,1.854,4.955,0.602,6.674,0.135 c5.273-1.432,10.352-3.721,15.325-5.949c11.813-5.292,23.858-11.238,34.353-18.878c1.074-0.782,0.148-2.483-1.061-1.813 c-4.7,2.604-9.293,5.415-13.788,8.355c-4.937,3.229-12.899,7.584-15.276,13.361c-2.796,6.794,10.262,5.489,13.17,4.993 c5.087-0.867,10.061-4.824,10.688-10.178c0.158-1.343-1.944-1.328-2.1,0c-0.581,4.948-6.317,7.896-11.237,8.448 c-1.279,0.143-9.271,0.76-8.761-1.971c0.375-2.006,2.696-3.809,4.113-5.093c7.109-6.446,15.881-11.466,24.251-16.102 c-0.354-0.604-0.707-1.209-1.061-1.813c-12.039,8.766-26.078,15.532-39.786,21.232c-3.497,1.455-9.866,4.999-13.834,4.012 c0.062,0.016,2.766-3.292,3.256-3.771c3.639-3.549,7.784-6.619,11.841-9.66c7.473-5.604,15.294-11.055,22.144-17.436 c0.884-0.824,3.416-4.32,0.242-3.842c-2.508,0.377-5.119,2.277-7.278,3.495c-3.319,1.873-6.528,3.9-9.768,5.91 C178.241,51.109,164.896,59.22,150.72,65c-2.489,1.015-5.268,2.216-7.989,2.392c-1.021,0.066-0.257,0.219-0.34,0.375 c0.378-0.709,1.195-1.277,1.819-1.747c7.263-5.471,16.399-7.369,18.085-17.489c1.799-10.797,16.473-14.923,25.588-17.864 c-0.341-0.585-0.682-1.17-1.021-1.755c-12.439,14.579-32.487,24.593-50.268,30.974c-3.409,1.223-6.976,1.859-10.376,3.083 c-4.544,1.635-8.564,4.524-12.54,7.194c-1.457,0.978-2.938,1.964-4.565,2.636c-1.794,0.741-2.427-1.423-1.441-2.663 c0.549-0.69,1.264-1.262,1.93-1.831c2.158-1.845,4.758-3.326,7.28-4.619c-0.353-0.604-0.707-1.209-1.06-1.813 c-5.55,3.73-11.364,7.035-17.74,9.13c-1.819,0.598-3.725,1.033-5.645,1.033c-2.576,0,2.815-3.914,3.197-4.182 c0.416-0.292,16.818-9.393,11.392-11.227c-2.551-0.862-5.92,0.693-8.241,1.561c-6.265,2.343-11.884,6.005-17.354,9.785 c-5.311,3.669-11.436,6.609-17.791,7.854c-3.096,0.606-4.32-0.317-1.767-2.639c3.078-2.798,7.068-4.653,10.438-7.083 c2.442-1.76,10.407-7.579,6.989-11.495c-2.244-2.571-8.026,1.658-10.328,2.204c-4.49,1.064,2.914-10.435,3.826-11.735 c3.428-4.892,7.969-9.032,12.497-12.878c7.079-6.013,14.915-11.206,22.929-15.885c0.806-0.471,1.616-0.935,2.436-1.381 c-0.424-0.55-0.848-1.1-1.272-1.649c-6.543,5.941-14.872,10.063-22.673,14.061C76.339,32.666,65.672,37.424,54.962,42.03 c-13.61,5.853-27.364,11.422-41.242,16.613C12.464,59.113,13.008,61.143,14.279,60.668L14.279,60.668z"/>
<path d="M248.075,55.624c-7.157-3.382-16.235-1.464-19.421,6.34c-1.088,2.663,1.486,3.969,3.66,4.093 c4.918,0.28,10.22-3.211,13.711-6.284c-0.495-0.495-0.989-0.99-1.484-1.485c-1.834,2.366-5.232,6.406-4.563,9.629 c1.52,7.307,22.3-7.555,23.931-8.604c-0.425-0.55-0.849-1.1-1.272-1.649c-1.692,1.754-7.03,7.128-3.844,9.449 c2.855,2.08,9.565-1.844,12.033-2.956c13.896-6.261,27.018-14.452,40.019-22.344c1.155-0.702,0.102-2.517-1.061-1.813 c-4.573,2.768-9.083,5.645-13.549,8.583c-6.03,3.967-12.964,8.028-17.763,13.523c-3.835,4.392,2.211,4.801,5.38,3.797 c6.618-2.096,12.862-6.384,18.51-10.339c-0.479-0.479-0.958-0.958-1.437-1.437c-1.574,2.441-3.779,6.218-2.776,9.208 c2.29,6.822,18.264-3.893,20.611-5.271c-0.515-0.396-1.028-0.791-1.543-1.186c-0.642,1.782-0.806,4.43,0.959,5.638 c1.638,1.12,3.769,0.645,5.535,0.136c5.787-1.667,11.095-5.604,15.973-8.962c-0.425-0.55-0.849-1.1-1.272-1.649 c-2.212,2.831-5.438,6.85-5.256,10.637c0.4,8.341,21.357-4.949,22.927-5.863c1.169-0.681,0.112-2.497-1.061-1.813 c-5.04,2.936-10.21,6.004-15.803,7.772c-1.79,0.565-4.467,1.238-3.813-1.42c0.677-2.753,2.984-5.901,4.49-7.828 c0.672-0.86-0.203-2.385-1.272-1.649c-1.446,0.997-22.812,15.088-19.381,5.561c0.321-0.894-0.792-1.627-1.543-1.186 c-1.552,0.912-18.005,10.753-17.66,5.21c0.135-2.167,1.544-4.483,2.698-6.274c0.555-0.86-0.567-2.045-1.437-1.437 c-4.45,3.117-9.113,5.987-13.974,8.417c-0.908,0.455-8.221,2.839-7.898,2.183c0.907-1.846,3.14-3.338,4.684-4.596 c8.281-6.746,17.604-12.417,26.731-17.94c-0.354-0.604-0.707-1.209-1.061-1.813c-11.663,7.082-23.404,14.127-35.613,20.24 c-3.494,1.75-9.823,5.917-14.055,5.156c-0.983-0.177,3.113-5.322,4.005-6.246c0.813-0.842-0.245-2.311-1.272-1.649 c-5.072,3.268-10.207,6.534-15.722,9.016c-0.785,0.353-5.464,2.575-5.053,0.316c0.439-2.416,2.886-5.682,3.951-7.058 c0.814-1.051-0.443-2.401-1.484-1.485c-2.641,2.324-5.541,3.994-8.881,5.091c-1.084,0.356-2.21,0.523-3.346,0.578 c-3.505,0.167-0.204-3.818,0.535-4.681c3.39-3.96,9.767-3.917,14.165-1.838C248.232,58.012,249.299,56.202,248.075,55.624 L248.075,55.624z"/>
<path d="M318.267,46.187c0.754,0.417,1.508,0.833,2.262,1.25c1.187,0.655,2.245-1.158,1.061-1.813 c-0.754-0.417-1.508-0.833-2.262-1.25C318.141,43.718,317.082,45.532,318.267,46.187L318.267,46.187z"/>
<path d="M290.243,33.168c19.562,5.626,39.093,11.398,58.479,17.604c4.995,1.599,9.981,3.233,14.911,5.026 c3.257,1.186,6.979,2.308,9.049,5.294c2.597,3.746-0.297,7.38-3.581,9.312c-7.424,4.367-17.772,3.733-25.989,3.202 c-1.353-0.088-1.345,2.013,0,2.1c8.304,0.538,31.7,1.89,32.676-11.235c0.589-7.93-10.862-10.488-16.364-12.378 c-22.604-7.766-45.657-14.343-68.622-20.949C289.497,30.768,288.944,32.794,290.243,33.168L290.243,33.168z"/>
</svg>