<?xml version="1.0" encoding="UTF-8"?>
<svg version="1.1" xmlns="http://www.w3.org/2000/svg" width="166" height="41" >
<path d="M1.922,30.34c1.199-1.651,5.401-2.395,7.17-3.871c2.105-1.758,4.094-3.585,5.982-5.571 c1.779-1.872,3.358-3.911,4.702-6.115c0.704-1.154,0.935-5.301,1.579-5.841c-0.516,0.098-1.032,0.195-1.548,0.293 c1.305,0.685,2.146,2.289,3.322,3.178c1.653,1.25,3.285,2.176,5.213,2.901c2.029,0.764,3.983,0.259,5.46-1.194 c1.504-1.48,1.188-2.851,2.943-0.19c1.122,1.7,2.093,3.534,2.928,5.388c0.954,2.119,1.354,4.428,0.479,6.648 c-1.35,3.421-8.812,4.35-5.127-0.125c3.49-4.241,10.038,1.879,12.483,4.395c1.328,1.365,2.426,2.943,3.213,4.676 c0.392,0.861,0.135,5.001-1.194,3.221c-1.124-1.506-0.887-4.002-0.454-5.685c1.321-5.144,7.162-1.028,9.557,0.841 c0.572,0.447,2.326-0.383,1.516-1.016c-3.228-2.52-7.816-5.394-11.549-2.201c-2.358,2.018-2.383,6.809-0.625,9.163 c1.795,2.404,4.893-0.499,5.144-2.512c0.647-5.197-7.437-11.445-11.626-12.946c-3.85-1.379-8.307,0.093-9.518,4.298 c-1.535,5.327,8.229,0.218,9.325-0.957c1.856-1.989,1.411-4.961,0.701-7.294c-0.714-2.349-3.049-7.748-5.204-8.939 c-1.105-0.611-2.413-0.551-3.206,0.59c-4.528,6.518-8.226-1.137-12.264-3.254c-0.507-0.266-1.14-0.049-1.548,0.293 c-1.143,0.957-0.733,3.759-1.295,5.137c-1.195,2.934-3.646,5.409-5.793,7.668c-2.794,2.939-5.969,5.651-9.875,6.96 c-1.039,0.348-2.064,1.051-2.711,1.942C-0.465,30.999,1.502,30.918,1.922,30.34L1.922,30.34 M85.963,12.478c1.357-3.266-10.941,1.249-12.453,2.399c-1.134,0.863-0.668,1.796,0.018,2.794 c0.425,0.619,1.227,1.349,1.659,1.914c1.035,1.355-1.679,3.226-2.582,4.176c-3.452,3.629,0.315,7.105,3.245,9.466 c0.397,0.32,2.074-0.443,1.824-0.645c-2.386-1.922-5.646-4.415-4.156-7.813c0.894-2.037,3.457-2.812,3.812-5.108 c0.415-2.682-5.56-3.411-0.524-5.89c0.373-0.184,8.081-2.923,7.256-0.939C83.942,13.115,85.765,12.955,85.963,12.478 L85.963,12.478 M104.046,13.788c0.735,1.722,0.979,3.64,1.188,5.481c0.105,0.931-0.918,18.323-4.419,15.258 c-2.231-1.952,0.312-11.622,0.652-13.989c0.846-5.869,1.889-12.613,5.329-17.594c3.931-5.688,11.666,1.015,11.511,6.061 c-0.159,5.141-8.522,10.337-13.159,10.515c-0.662,0.025-2.07,1.069-0.771,1.02c7.296-0.279,23.74-12.446,12.253-18.877 c-9.955-5.572-13.874,3.989-15.793,12.124c-1.21,5.133-1.835,10.418-2.287,15.666c-0.161,1.865-1.082,5.779,1.522,6.462 c8.988,2.354,7.841-18.112,5.906-22.644C105.71,12.643,103.814,13.246,104.046,13.788L104.046,13.788 M120.728,29.021c-0.673-2.997-3.65-4.276-6.33-3.13c-2.895,1.238-1.451,4.988,1.35,5.134 c7.813,0.406,18.614-7.66,18.658-15.72c0.013-2.37-3.083-1.366-3.991-0.273c-2.977,3.582-2.718,9.237-0.024,12.95 c6.351,8.75,10.943-11.171,11.459-13.84c0.128-0.663-1.774-0.295-1.924,0.275c-1.136,4.358-1.167,9.575,1.74,13.232 c2.379,2.991,7.577,3.029,10.848,4.164c2.883,1,5.309,1.776,8.396,2.072c0.537,0.052,2.259-0.862,1.207-0.963 c-2.898-0.278-5.355-0.962-8.049-1.982c-3.558-1.35-7.769-1.244-10.599-4.015c-3.09-3.025-2.611-8.979-1.619-12.784 c-0.642,0.092-1.282,0.184-1.924,0.275c-0.869,4.504-1.686,10.846-5.173,14.227c-1.458,1.415-3.278-2.719-3.571-3.385 c-1.161-2.643-1.188-5.444-0.28-8.158c0.942-2.813,1.679-1.216,1.399,0.691c-0.197,1.355-0.955,2.649-1.665,3.774 c-1.584,2.511-4.189,4.373-6.671,5.905c-2.036,1.258-7.215,4.303-9.102,1.267c-1.51-2.429,2.58-1.858,3.511-0.371 c0.21,0.336,0.336,0.783,0.423,1.171C118.929,30.128,120.866,29.639,120.728,29.021L120.728,29.021 M113.412,17.423c12.627,1.723,25.308,3.107,38,4.25c0.868,0.079,2.009-1.17,0.699-1.287 c-12.691-1.144-25.372-2.528-38-4.25C113.238,16.017,112.11,17.246,113.412,17.423L113.412,17.423 M163.59,17.488c0.521-0.28,2.346-1.398,1.325-2.063c-0.356-0.232-0.897-0.1-1.262,0.044 c-0.118,0.046-0.892,0.438-0.545,0.665c0.502,0.327-0.509,0.847-0.675,0.937c-0.213,0.114-0.63,0.478-0.203,0.631 C162.651,17.854,163.215,17.69,163.59,17.488L163.59,17.488z"/>
</svg>