<?xml version="1.0" encoding="UTF-8"?>
<svg version="1.1" xmlns="http://www.w3.org/2000/svg" width="213" height="68" >
<path d="M24.245,18.501c-2.863,0.638-6.393,4.552-4.276,7.575c2.377,3.396,8.468,3.031,11.974,2.216 c5.416-1.26,10.702-4.324,12.499-9.893c2.161-6.697-5.65-11.945-10.864-13.778C20.631,0.068,3.75,10.676,3.695,24.831 C3.641,38.92,18.596,43.251,29.776,37.688c-0.388-0.029-0.776-0.06-1.165-0.09c-1.155,3.685-2.207,7.402-3.188,11.137 c-1.084,4.125-2.897,9.214-2.228,13.542c0.238,1.538,2.319,1.168,2.778-0.021c1.73-4.484-0.033-13.72,4.636-16.567 c0.835-0.509-0.448-0.644-0.885-0.377c-3.028,1.847-3.4,6.169-3.874,9.342c-0.307,2.058-0.499,4.128-0.861,6.178 c-0.514,2.903-0.445-0.48-0.346-1.583c0.662-7.366,3.208-14.816,5.413-21.847c0.161-0.513-1.021-0.162-1.165-0.09 C19.835,41.816,8.04,38.874,5.49,28.478C2.462,16.136,14.852,4.604,26.397,4.33c9.902-0.234,22.771,9.907,13.347,19.367 c-3.706,3.72-9.842,4.927-14.853,3.96c-4.489-0.866-5.704-7.324-0.469-8.492C25.301,18.97,25.11,18.308,24.245,18.501 L24.245,18.501z"/>
<path d="M41.27,37.568c-0.055,0.556-0.111,1.111-0.167,1.666c-0.069,0.69,1.402,0.454,1.461-0.137 c0.055-0.556,0.111-1.111,0.167-1.666C42.799,36.741,41.329,36.978,41.27,37.568L41.27,37.568z"/>
<path d="M56.438,35.403c2.293,1.643,5.176,3.541,8.019,3.987c3.091,0.485,4.473-1.036,6.475-3.168 c3.477-3.702,6.601-7.812,9.237-12.15c0.766-1.261,3.634-5.748,2.454-7.419c-0.169-0.239-0.547-0.208-0.791-0.156 c-1.607,0.345-2.266,4.14-2.657,5.343c-1.547,4.757-2.965,9.665-3.515,14.651c-0.214,1.943-0.199,4.995,2.635,4.235 c2.812-0.753,3.562-5.608,3.937-7.957c0.108-0.676-1.253-0.485-1.42-0.005c-1.072,3.08-1.415,7.294,2.95,6.57 c0.767-0.128,1.129-1.167,0.145-1.004c-3.533,0.586-2.306-3.74-1.717-5.43c-0.473-0.002-0.947-0.004-1.42-0.005 c-0.355,2.221-0.896,4.58-2.217,6.436c-1.546,2.174-1.192-4.771-1.134-5.14c0.821-5.22,2.366-10.504,4.278-15.424 c0.191-0.492,0.405-0.975,0.657-1.438c-0.791-0.199-1.152-0.011-1.083,0.566c-0.095,1.108-0.548,2.154-0.972,3.168 c-1.48,3.541-3.963,6.742-6.293,9.746c-1.837,2.367-3.817,4.646-5.949,6.753c-2.721,2.688-8.19-1.317-10.492-2.967 C57.072,34.245,55.782,34.934,56.438,35.403L56.438,35.403z"/>
<path d="M92.946,38.236c0.277-0.39,0.555-0.778,0.833-1.167c0.542-0.761-0.814-1.047-1.225-0.473 c-0.277,0.39-0.555,0.778-0.833,1.167C91.179,38.524,92.536,38.811,92.946,38.236L92.946,38.236z"/>
<path d="M126.951,19.957c-3.192,5.727-6.543,11.927-11.113,16.67c-1.421,1.475,1.73-0.005,2.864,0.739 c0.511,0.335,0.98,0.751,1.467,1.121c0.71,0.54,1.65,1.048,2.553,1.131c3.213,0.297,6.008-1.299,8.67-2.921 c7.433-4.53,6.593-15.476-0.876-19.447c-3.343-1.778-5.381,2.566-5.789,5.053c-0.978,5.961,2.105,12.112,7.96,13.94 c2.448,0.765,14.468,1.253,15.113-2.68c0.226-1.377-2.89-3.075-3.813-1.665c-1.196,1.824-5.367,10.576-0.224,8.234 c4.023-1.831,4.897-5.179,3.296-9.161c-0.14-0.347-1.454,0.021-1.449,0.389c0.052,4.158,1.53,10.335,6.909,8.896 c7.6-2.032,13.41-9.224,15.031-16.714c0.089-0.413-1.27-0.006-1.432,0.248c-2.201,3.467-7.918,12.948-1.881,15.324 c4.58,1.803,8.745-5.5,10.146-8.572c0.155-0.341-1.207,0.001-1.373,0.172c-3.144,3.214-6.129,8.154-0.095,9.601 c2.225,0.534,12.844-1.63,10.384-5.594c-1.312-2.112-4.253,4.766-4.022,5.974c0.231,1.213,7.325,0.549,4.782-4.223 c-0.175-0.328-1.48,0.015-1.449,0.389c0.552,6.553,7.556,3.932,11.099,1.76c4.146-2.541,7.818-6.037,11.144-9.549 c1.663-1.756,4.812-4.764,4.665-7.451c-0.008-0.14-0.346-0.111-0.414-0.109c-2.325,0.084-3.125,4.054-3.737,5.669 c-1.229,3.242-1.516,6.686-2.464,9.997c-0.304,1.063-0.781,2.041-1.308,3.007c-1.582,2.905-2.679-2.596-2.868-3.378 c-0.083-0.339-1.535,0.034-1.449,0.389c0.617,2.537,1.439,5.715,4.452,4.152c1.484-0.769,2.105-3.003,2.604-4.418 c1.301-3.692,1.563-7.624,2.969-11.329c0.298-0.75,0.626-1.486,0.983-2.209c0.697-0.93,0.586-1.074-0.334-0.434 c-0.175,0.85-0.77,1.641-1.232,2.349c-1.79,2.736-4.288,5.087-6.648,7.319c-2.946,2.785-15.239,13.031-16.012,3.847 c-0.483,0.13-0.966,0.259-1.449,0.389c0.632,0.789,0.829,1.688,0.591,2.7c-0.858,0.072-1.717,0.146-2.575,0.218 c0.074-0.842,0.277-1.648,0.608-2.421c0.051-0.141,0.955-1.703,0.876-1.83c1.905,3.069-8.866,6.212-11.272,2.433 c-1.365-2.143,2.182-6.006,3.487-7.342c-0.457,0.058-0.915,0.114-1.373,0.172c-0.533,1.172-1.181,2.281-1.862,3.372 c-2.138,3.424-8.125,6.022-8.01,0.282c0.074-3.729,2.518-7.828,4.471-10.902c-0.478,0.083-0.954,0.165-1.432,0.248 c-1.407,6.506-5.646,12.098-11.554,15.208c-6.099,3.21-7.455-3.935-7.506-8.026c-0.483,0.13-0.966,0.259-1.449,0.389 c1.481,3.682,1.051,6.585-2.688,8.558c-0.449,0.237,0.67-4.201,0.785-4.527c0.281-0.801,0.622-1.578,0.965-2.354 c0.499-1.131,0.89-0.817-0.335-1.064c0.699,0.141,1.49,0.827,1.873,1.39c1.442,2.118-7.813,2.618-8.565,2.668 c-3.053,0.199-5.821-0.771-8.065-2.796c-2.679-2.416-3.564-6.405-3.53-9.856c0.015-1.476,0.353-2.919,0.95-4.261 c1.118-2.511,3.109-0.963,4.597,0.299c4.699,3.983,4.551,11.229,0.695,15.593c-2.675,3.026-7.765,5.256-11.252,2.603 c-0.976-0.742-2.081-1.71-3.394-1.742c-1.594-0.039-4.186,0.029-5.02,1.692c-0.023,0.051-0.012,0.093,0.034,0.126 c4.345,4.233,14.311-15.445,15.723-17.979C128.502,19.492,127.158,19.586,126.951,19.957L126.951,19.957z"/>
</svg>