<?xml version="1.0" encoding="UTF-8"?>
<svg version="1.0" xmlns="http://www.w3.org/2000/svg" width="149" height="48" >
<path d="M1.57,37.198c11.243-11.593,24.226-20.7,37.257-30.124c2.519-1.821,5.038-3.645,7.59-5.419 c1.08-0.751,0.726-1.818-0.078-1.086c-0.866,0.789-1.971,1.386-2.948,2.024c-7.193,4.693-14.478,9.687-20.106,16.259 c-0.997,1.164-9.876,11.52-5.992,13.165c2.715,1.149,7.251-2.225,9.353-3.485c3.853-2.311,7.456-5.476,11.527-7.38 c-1.114,0.521-0.827-0.033-2,1.25c-2.081,2.277-4.127,4.58-6.143,6.915c-2.012,2.333-3.979,4.704-5.967,7.058 c-1.231,1.459-2.724,4.009-4.537,4.812c-1.108,0.49-0.094,1.076,0.69,0.729c3.7-1.638,6.788-7.066,9.263-10.002 c2.785-3.304,5.696-6.487,8.555-9.726c0.327-0.371,1.066-0.996,1.076-1.553c0.027-1.533-9.502,4.805-10.022,5.146 c-2.912,1.902-5.967,4.039-9.284,5.167c-4.301,1.462,2.704-9.092,3.397-10.003c4.489-5.899,10.609-10.581,16.66-14.761 c2.507-1.732,6-3.216,8.066-5.502c0.151-0.167,0.227-0.284,0.108-0.49c-0.003-0.005-0.006-0.01-0.009-0.015 c-0.181-0.315-0.919-0.129-1.152-0.022c-2.69,1.229-5.164,3.536-7.545,5.25c-4.883,3.516-9.745,7.064-14.605,10.612 C15.965,22.408,7.746,29.093,0.172,36.901C-0.542,37.638,1.164,37.616,1.57,37.198L1.57,37.198z"/>
<path d="M26.419,41.384c4.776-2.75,9.311-5.937,13.63-9.351c1.691-1.336,12.279-9.598,11.012-11.747 c-0.268-0.454-1.043-0.214-1.37-0.006c-4.298,2.734-7.917,8.138-11.261,11.889c-0.548,0.614-8.705,8.639-5.945,9.579 c2.886,0.983,7.586-2.938,9.761-4.342c4.271-2.757,10.934-6.853,13.447-11.474c0.338-0.622-0.601-0.764-0.985-0.675 c-3.945,0.914-15.397,17.522-13.51,18.787c2.409,1.614,8.048-6.398,9.066-7.584c2.313-2.696,4.527-5.487,6.608-8.367 c0.886-1.226,2.4-2.813,2.116-4.426c-0.062-0.349-0.521-0.387-0.789-0.391c-3.576-0.048-4.048,7.239-0.23,7.864 c2.252,0.368,4.578-0.349,6.663-1.15c5.321-2.048,10.315-4.831,15.306-7.563c1.449-0.793,2.898-1.584,4.366-2.342 c1.729-0.893,2.252-1.606,0.759,0.29c-3.774,4.798-8.45,8.919-12.522,13.465c-2.503,2.794-4.805,5.759-7.287,8.571 c-2.483,2.813-4.182-2.774-5.42-4.908c-0.383-0.66-2.045-0.019-1.594,0.76c0.995,1.714,3.212,7.82,6.236,6.476 c1.287-0.572,2.212-1.8,3.103-2.842c2.483-2.904,4.89-5.864,7.441-8.712c3.319-3.705,6.895-7.168,10.236-10.853 c0.602-0.664,2.908-2.706,2.59-3.897c-0.602-2.244-8.049,2.652-8.671,2.993c-2.968,1.623-22.13,13.588-22.107,5.486 c0.01-3.376-0.05-1.635-1.208,0.063c-0.806,1.182-1.681,2.318-2.551,3.454c-2.052,2.678-4.224,5.265-6.46,7.789 c-0.948,1.07-1.93,2.107-2.941,3.117c-0.397,0.396-0.812,0.772-1.242,1.132c-0.848,0.723,0.168-0.066,0.321-0.407 c1.249-2.781,3.313-5.282,5.1-7.727c1.367-1.868,4.5-7.351,6.934-7.914c-0.329-0.226-0.657-0.45-0.985-0.676 c-1.952,3.589-6.877,6.618-10.127,8.968c-1.981,1.432-4.042,2.755-6.156,3.981c-0.355,0.206-4.189,1.976-4.034,1.534 c0.704-2,2.967-3.915,4.326-5.48c1.804-2.08,3.651-4.122,5.506-6.156c2.177-2.388,4.529-5.788,7.289-7.543 c-0.457-0.002-0.914-0.004-1.37-0.006c-0.068-0.116-3.847,4.109-4.23,4.517c-2.593,2.756-5.573,5.143-8.568,7.44 c-3.494,2.682-7.194,5.183-11.013,7.382C24.633,40.974,25.567,41.874,26.419,41.384L26.419,41.384z"/>
<path d="M53.968,37.545c0.277,0,0.555,0,0.833,0c0.391,0,0.908-0.298,0.953-0.721c0.048-0.461-0.456-0.602-0.813-0.602 c-0.277,0-0.555,0-0.833,0c-0.391,0-0.908,0.298-0.953,0.721C53.107,37.404,53.611,37.545,53.968,37.545L53.968,37.545z"/>
<path d="M82.014,36.595c-6.835,5.134-11.438-0.947-12.545-6.848c-1.584-8.442,5.683-12.636,12.233-15.744 c5.272-2.502,17.423-6.349,15.925,3.768c-0.493,3.326-3.367,6.234-5.788,8.282c-0.667,0.459-1.334,0.917-2.001,1.376 c-6.037-0.101-6.429-0.571-1.173-1.413c1.111,0.772,0.488,3.157,0.295,4.134c-0.99,4.993-4.236,9.459-8.07,12.646 c-4.111,3.417-1.031-1.39,0.287-3.074c2.396-3.065,5.6-5.456,8.889-7.473c2.425-1.486,5.186-2.752,8.006-3.23 c4.378-0.742,0.54,5.065-0.241,6.216c-1.658,2.441-3.814,4.561-5.997,6.523c-2.441,2.196-0.701,1.535,0.849,0.052 c2.928-2.804,6.166-5.348,9.575-7.534c0.815-0.523,6.953-3.182,5.509-1.044c-1.041,1.539-2.713,2.794-4.084,4.026 c-0.47,0.423-9.033,8.294-4.318,7.451c4.423-0.79,9.116-8.82,10.854-12.411c1.462-3.021,0.117,0.945,2.351,0.956 c1.255,0.006,7.387-1.533,7.589-1.839c-2.409,3.645-6.112,6.815-9.333,9.735c-1.658,1.503,1.954-0.123,2.304-0.365 c1.801-1.243,3.633-2.439,5.478-3.614c1.657-1.057,3.343-2.068,5.068-3.008c3.19-1.737,0.925,0.905-0.133,2.371 c-0.657,0.912-6.552,6.902-6.053,7.852c0.24,0.457,1.069,0.187,1.402-0.001c2.645-1.487,4.993-3.949,7.277-5.914 c2.28-1.959,5.716-4.243,7.071-7.037c-0.521,0.175-1.042,0.349-1.563,0.522c1.927,0.771,3.892,1.154,5.945,0.798 c0.567-0.099,1.165-0.405,1.609-0.747c-0.949,0.731-1.137-0.4-2.015,0.479c-0.452,0.453-0.913,0.898-1.371,1.346 c-3.911,3.813-7.896,8.806-12.438,11.852c0.445,0.079,0.892,0.157,1.338,0.236c5.274-6,14.453-8.495,21.445-12.091 c1.401-0.61,1.454-0.688,0.158-0.233c-0.771,0.776-1.579,1.519-2.362,2.282c-1.557,1.516-3.073,3.069-4.564,4.648 c-1.261,1.336-4.651,4.174-4.156,6.342c0.033,0.145,0.213,0.19,0.332,0.218c3.297,0.748,6.115-4.575,6.81-6.985 c0.167-0.581-1.573-0.326-1.734,0.234c-0.244,1.155-0.729,2.213-1.452,3.171c-0.351,0.56-3.354,3.906-1.612,1.119 c1.339-2.143,3.337-4.021,5.075-5.819c1.577-1.632,5.298-3.946,5.997-6.161c0.039-0.125-0.055-0.251-0.172-0.288 c-2.813-0.901-8.983,3.922-11.222,4.961c-5.082,2.359-10.315,4.23-14.153,8.596c-0.508,0.577,1.102,0.395,1.338,0.235 c2.691-1.805,5.004-4.637,7.339-6.864c2.533-2.417,5.515-4.754,7.699-7.506c0.33-0.415-0.443-0.5-0.679-0.456 c-2.028,0.384-3.722,0.639-5.762-0.177c-0.491-0.196-1.325,0.03-1.563,0.522c-1.232,2.54-4.637,4.749-6.72,6.56 c-2.164,1.881-4.444,4.277-6.96,5.692c0.468,0,0.935,0,1.402,0c-0.066-0.126,11.553-13.153,6.324-11.513 c-3.149,0.987-6.018,3.028-8.772,4.784c-2.27,1.445-5.015,2.869-6.972,4.748c-0.582,0.56,0.429,0.628,0.8,0.527 c1.786-0.485,12.403-10.699,11.504-12.033c-0.851-1.262-4.579,0.598-5.546,0.929c-2.498,0.854-2.561,1.27-3.982-0.539 c-0.638-0.811-1.555-1.058-2.503-0.939c-0.279,0.035-0.939,0.21-0.993,0.569c-0.391,2.611-2.25,4.838-3.771,6.932 c-0.955,1.314-1.99,2.568-3.057,3.793c-0.465,0.533-3.888,3.604-2.115,1.117c1.774-2.491,4.564-4.437,6.797-6.499 c0.786-0.726,3.164-2.529,3.017-3.83c-0.361-3.193-8.81,1.873-9.609,2.386c-2.817,1.808-5.422,3.965-7.924,6.181 c-0.626,0.555-3.104,2.252-3.043,3.291c0.021,0.352,0.808,0.221,0.978,0.173c2.181-0.61,4.239-3.151,5.695-4.719 c2.144-2.308,6.523-6.572,5.771-10.191c-0.905-4.365-13.844,3.32-15.013,4.092c-3.956,2.612-7.261,6.089-9.803,10.077 c-0.703,1.103-1.064,2.743,0.791,2.336c6.588-1.445,11.31-9.777,12.896-15.675c1.572-5.847-5.185-7.02-7.597-2.443 c-0.854,1.619,1.426,2.392,2.605,2.237c3.688-0.482,7.177-2.617,9.656-5.36c2.937-3.248,5.203-7.131,3.548-11.532 c-1.006-2.676-4.79-3.032-7.161-2.733c-4.286,0.541-8.408,2.05-12.253,3.994c-3.848,1.945-8.927,4.189-10.745,8.455 c-2.204,5.171-1.295,12.207,3.313,15.85c3.297,2.606,8.405,0.657,11.335-1.543C84.175,36.254,82.427,36.284,82.014,36.595 L82.014,36.595z"/>
</svg>