<?xml version="1.0" encoding="UTF-8"?>
<svg version="1.0" xmlns="http://www.w3.org/2000/svg" width="230" height="76" >
<path d="M2.239,72.927l-0.192-0.318l0.246-0.274c0.043-0.018,22.944-25.865,41.479-36.881l0,0c1.447-1.682,2.649-3.099,3.53-4.143 l0,0c-10.742,5.652-16.343,7.842-18.943,7.867l0,0c-0.532-0.002-0.978-0.091-1.333-0.349l0,0c-0.363-0.258-0.539-0.702-0.53-1.115 l0,0c0.052-1.449,1.447-3.326,3.458-5.683l0,0c1.559-1.796,3.508-3.795,5.546-5.777l0,0c-3.4,0.984-5.702,1.559-5.711,1.564l0,0 v0.002l-0.244-0.973c0.01-0.003,3.154-0.789,7.519-2.097l0,0c0.085-0.081,0.171-0.163,0.257-0.244l0,0 c5.348-5.055,10.687-9.553,10.69-9.555l0,0l0.039-0.035l0.043-0.023c10.001-5.418,14.617-7.27,16.67-7.299l0,0 c0.382,0.002,0.716,0.062,0.999,0.266l0,0c0.287,0.204,0.425,0.563,0.417,0.869l0,0c-0.078,1.358-1.633,3.034-3.146,4.684l0,0 c-1.52,1.6-3.028,2.954-3.084,2.997l0,0c-5.372,3.708-15.36,7.12-22.366,9.227l0,0c-2.516,2.392-4.997,4.881-6.876,7.047l0,0 c-1.992,2.252-3.263,4.275-3.212,5.028l0,0c0.045,0.316-0.002,0.394,0.863,0.464l0,0c2.261,0.029,8.591-2.415,20.737-8.953l0,0 l0.621,0.76c-0.002,0.002-1.277,1.541-3.408,4.041l0,0c2.41-1.274,4.716-2.25,6.862-2.834l0,0c0.324-0.148,2.443-1.111,5.297-2.47 l0,0c0.876-1.03,1.815-2.084,2.755-3.108l0,0c3.548-3.866,7.091-7.303,7.095-7.305l0,0l0.101-0.099l0.141-0.031 c3.443-0.751,5.711-1.083,7.124-1.083l0,0c0.58,0.002,1.016,0.049,1.377,0.189l0,0c0.353,0.116,0.706,0.473,0.691,0.904l0,0 c-0.05,0.698-0.535,1.129-1.206,1.73l0,0c-0.686,0.578-1.635,1.226-2.768,1.93l0,0c-2.265,1.402-5.262,3.006-8.259,4.529l0,0 c-2.25,1.141-4.498,2.234-6.429,3.156l0,0c-0.716,0.846-1.382,1.671-1.962,2.442l0,0c-1.317,1.716-2.147,3.26-2.11,3.805l0,0 c0.064,0.235-0.095,0.173,0.421,0.25l0,0c1.49,0.04,6.187-2.06,15.24-7.747l0,0c0.006-0.006,8.414-7.014,13.729-10.55l0,0 c1.81-1.175,3.124-1.988,4.075-2.031l0,0c0.186,0,0.411,0.041,0.603,0.21l0,0c0.192,0.173,0.261,0.425,0.256,0.625l0,0 c-0.037,0.737-0.541,1.571-1.604,3.088l0,0l-0.05,0.07l-0.07,0.047c-0.014,0.015-9.93,6.938-14.988,11.764l0,0 c-1.4,1.304-2.406,2.543-2.707,3.209l0,0c0.171,0.049,0.418,0.096,0.756,0.096l0,0c2.102,0.025,7.902-1.909,18.918-16.776l0,0 l0.044-0.06l0.06-0.043c0.004-0.006,2.565-1.905,5.464-4.512l0,0c2.896-2.601,6.12-5.933,7.382-8.633l0,0l0.028-0.066l0.05-0.054 c0.056-0.012,1.901-2.265,3.974-2.329l0,0c1.46,0.002,2.597,1.3,2.876,4.347l0,0c0.066,0.029,0.15,0.062,0.254,0.095l0,0 c0.345,0.111,0.903,0.231,1.717,0.233l0,0c1.299,0,3.258-0.312,6.027-1.476l0,0l0.524,0.836 c-0.015,0.013-6.331,5.582-13.663,12.204l0,0c-7.329,6.622-15.663,14.291-19.64,18.436l0,0l-0.721-0.694 c6.68-6.958,25.301-23.552,31.4-28.959l0,0c-1.635,0.489-2.929,0.653-3.928,0.653l0,0c-1.826,0.002-2.662-0.551-2.737-0.607l0,0 l-0.189-0.136L108.5,7.042c-0.302-3.161-1.168-3.706-1.901-3.703l0,0c-0.625-0.013-1.474,0.458-2.122,0.974l0,0 c-0.533,0.417-0.932,0.833-1.06,0.971l0,0c-2.723,5.613-12.192,12.741-13.056,13.402l0,0c-11.067,14.881-16.97,17.1-19.682,17.125 l0,0c-1.044,0.002-1.577-0.355-1.647-0.411l0,0l-0.225-0.169l0.029-0.281c0.167-1.174,1.387-2.489,3.104-4.166l0,0 c1.724-1.645,3.972-3.505,6.207-5.262l0,0c4.155-3.259,8.264-6.154,8.831-6.552l0,0c0.798-1.096,1.21-1.895,1.329-2.249l0,0 c-0.524,0.132-1.857,0.829-3.346,1.843l0,0c-1.74,1.158-3.841,2.712-5.862,4.265l0,0c-4.046,3.111-7.771,6.215-7.835,6.261l0,0 c-9.207,5.739-13.727,7.9-15.824,7.939l0,0c-0.386,0-0.743-0.078-1.026-0.315l0,0c-0.285-0.238-0.4-0.605-0.396-0.933l0,0 c0.039-1.152,0.977-2.595,2.312-4.405l0,0c0.208-0.275,0.425-0.557,0.651-0.843l0,0c-2.077,0.974-3.44,1.59-3.442,1.591l0,0 l-0.041,0.019l-0.035,0.008c-2.744,0.73-5.807,2.162-9.03,4.069l0,0c-6.996,8.131-19.563,22.315-29.133,30.77l0,0 c-4.702,4.114-8.554,6.915-11.122,6.969l0,0c-0.013,0.001-0.026,0.001-0.04,0.001l0,0C3.362,73.957,2.639,73.604,2.239,72.927 L2.239,72.927z M4.177,72.955c1.86,0.054,5.867-2.621,10.459-6.717l0,0c4.628-4.087,9.989-9.551,15.073-15.017l0,0 c4.364-4.693,8.521-9.381,11.848-13.208l0,0c-6.726,4.412-13.917,10.517-20.216,16.392l0,0 C12.154,62.965,4.827,71.013,3.323,72.683l0,0C3.528,72.865,3.786,72.945,4.177,72.955L4.177,72.955z M60.753,27.623 c1.028-0.499,2.105-1.028,3.195-1.574l0,0c5.55-2.762,11.522-6.077,12.639-7.576l0,0c0.09-0.111,0.134-0.192,0.152-0.238l0,0 c-0.011-0.006-0.026-0.013-0.047-0.021l0,0c-0.151-0.062-0.498-0.122-1.009-0.12l0,0c-1.242-0.002-3.442,0.307-6.769,1.03l0,0 C68.244,19.779,64.283,23.668,60.753,27.623L60.753,27.623z M39.234,24.086c0.659-0.206,1.336-0.421,2.026-0.645l0,0 c6.395-2.075,13.882-4.913,18.072-7.815l0,0c0.002-0.002,1.49-1.335,2.977-2.902l0,0c1.495-1.515,2.948-3.474,2.869-3.994l0,0 c-0.008-0.064-0.004-0.05-0.012-0.064l0,0c-0.013-0.017-0.138-0.075-0.403-0.072l0,0c-1.521-0.029-6.266,1.766-16.149,7.156l0,0 C48.153,16.143,43.846,19.794,39.234,24.086L39.234,24.086z"/>
<path d="M147.266,38.75c-0.482-0.445-0.68-1.088-0.678-1.772l0,0c0.04-2.261,1.937-5.766,4.601-9.657l0,0 c-7.382,6.073-13.914,10.086-13.927,10.104l0,0l-0.695-0.675c2.197-3.809,4.271-6.919,6.206-9.457l0,0 c-1.868,1.619-3.12,2.754-3.149,2.779l0,0c-5.69,4.073-8.246,5.6-9.544,5.667l0,0c-0.203,0-0.437-0.048-0.627-0.223l0,0 c-0.191-0.176-0.254-0.426-0.25-0.617l0,0c0.046-0.825,0.692-1.73,1.604-2.991l0,0c0.916-1.228,2.127-2.661,3.336-4.029l0,0 c2.405-2.726,4.803-5.198,4.805-5.199l0,0c2.082-2.469,2.935-4.018,2.958-4.43l0,0c-0.009,0-0.018,0-0.027,0l0,0 c-0.988-0.06-4.86,2.152-8.178,4.376l0,0c-3.369,2.221-6.399,4.439-6.409,4.447l0,0c-9.894,6.998-14.282,9.455-16.198,9.515l0,0 c-0.297,0-0.598-0.066-0.832-0.28l0,0c-0.235-0.214-0.318-0.523-0.314-0.787l0,0c0.06-1.193,1.272-3.002,2.806-4.966l0,0 c-8.338,4.307-12.097,5.769-13.631,5.803l0,0c-0.247-0.002-0.48-0.033-0.702-0.179l0,0c-0.23-0.141-0.364-0.444-0.352-0.675l0,0 c0.042-0.659,0.474-1.141,1.026-1.799l0,0c0.563-0.634,1.292-1.33,2.021-1.984l0,0c1.458-1.311,2.903-2.444,2.918-2.455l0,0 c2.986-2.241,4.848-3.836,5.942-4.948l0,0c1.038-1.025,1.351-1.687,1.358-1.839l0,0c-0.048-0.024-0.193-0.053-0.347-0.051l0,0 c-0.185,0-0.367,0.026-0.467,0.044l0,0c-2.333,1.467-3.312,2.036-4.024,2.089l0,0c-0.114-0.002-0.273-0.019-0.43-0.146l0,0 c-0.162-0.128-0.225-0.343-0.216-0.471l0,0c0.068-0.588,0.405-0.86,0.85-1.423l0,0c0.45-0.517,1.038-1.116,1.624-1.693l0,0 c1.172-1.149,2.339-2.198,2.331-2.193l0,0c3.084-2.862,4.258-4.6,4.276-4.986l0,0c-0.004-0.001-0.008-0.002-0.013-0.003l0,0 c-0.037-0.008-0.098-0.017-0.181-0.015l0,0c-0.87-0.021-3.099,0.841-4.975,1.722l0,0c-1.896,0.875-3.522,1.751-3.526,1.753l0,0 l-0.474-0.881c0.06-0.006,6.474-3.545,8.975-3.595l0,0c0.267,0.004,0.528,0.035,0.777,0.191l0,0 c0.258,0.151,0.426,0.49,0.411,0.783l0,0c-0.087,1.161-1.34,2.625-4.593,5.766l0,0c-0.002,0.002-1.084,0.976-2.201,2.066l0,0 c-0.573,0.542-1.169,1.168-1.609,1.668l0,0c0.6-0.318,1.454-0.814,2.539-1.527l0,0l0.073-0.047l0.087-0.019 c0.021-0.004,0.357-0.081,0.765-0.083l0,0c0.241,0.002,0.511,0.021,0.791,0.152l0,0c0.28,0.114,0.569,0.478,0.553,0.875l0,0 c-0.033,0.704-0.5,1.381-1.643,2.565l0,0c-1.155,1.171-3.045,2.786-6.047,5.039l0,0c-0.004,0.004-3.236,2.544-4.8,4.31l0,0 c-0.374,0.394-0.618,0.784-0.721,0.989l0,0c1.144,0.036,5.449-1.632,15.178-6.726l0,0c0.125-0.152,0.25-0.305,0.375-0.457l0,0 c2.316-2.75,4.626-5.183,4.63-5.187l0,0l0.053-0.056l0.068-0.038c7.683-4.241,10.657-5.683,11.763-5.741l0,0 c0.116,0.002,0.253,0.01,0.415,0.112l0,0c0.168,0.098,0.285,0.343,0.271,0.507l0,0c-0.046,0.451-0.245,0.584-0.476,0.875l0,0 c-0.243,0.264-0.565,0.567-0.952,0.904l0,0c-0.769,0.668-1.779,1.466-2.789,2.233l0,0c-2.02,1.537-4.032,2.956-4.082,2.987l0,0 c-3.273,1.792-6.14,3.332-8.645,4.648l0,0c-2.111,2.53-4.061,5.351-3.984,6.101l0,0c0,0.022,0.002,0.04,0.004,0.051l0,0 c0.011,0.005,0.039,0.017,0.144,0.017l0,0c1.178,0.061,5.85-2.347,15.612-9.326l0,0c0.004-0.002,3.051-2.235,6.445-4.472l0,0 c3.445-2.237,7.012-4.482,8.728-4.542l0,0c0.23,0.002,0.484,0.043,0.706,0.222l0,0c0.227,0.181,0.326,0.48,0.32,0.729l0,0 c-0.056,1.035-0.991,2.422-3.213,5.149l0,0c-0.007,0.008-5.413,5.581-8.083,9.158l0,0c-0.734,0.946-1.241,1.839-1.374,2.22l0,0 c0.816-0.152,3.642-1.697,8.763-5.431l0,0c0.004-0.002,3.613-3.279,7.781-6.689l0,0c2.646-2.714,4.938-4.296,6.826-5.198l0,0 c2.074-1.409,3.871-2.373,5.042-2.416l0,0c0.326-0.002,0.678,0.089,0.933,0.351l0,0c0.176,0.183,0.273,0.41,0.316,0.653l0,0 c4.648-5.585,8.734-9.999,8.738-10.002l0,0l0.813,0.559c-3.201,6.519-9.19,12.88-15.142,18.118l0,0 c-3.78,5.12-6.767,10.01-6.716,12.307l0,0c0.071,0.993,0.302,1.33,1.679,1.406l0,0c0.438,0,0.979-0.064,1.624-0.208l0,0v0.001 c0.035-0.007,0.07-0.012,0.106-0.012l0,0c0.004-0.006,3.797-0.025,5.508-0.802l0,0c0.584-0.262,0.775-0.527,0.759-0.698l0,0 c0.039-0.235-0.385-0.97-1.869-1.915l0,0l0.544-0.837c1.539,1.022,2.284,1.809,2.326,2.752l0,0 c-0.019,0.827-0.673,1.311-1.354,1.612l0,0c-0.708,0.312-1.585,0.5-2.455,0.631l0,0c-1.549,0.228-3.075,0.252-3.396,0.255l0,0 c-0.677,0.145-1.269,0.218-1.792,0.218l0,0C148.433,39.384,147.749,39.193,147.266,38.75L147.266,38.75z M150.998,39.166 c-0.032,0-0.064-0.003-0.096-0.009l0,0C150.939,39.164,150.973,39.167,150.998,39.166L150.998,39.166z M110.953,35.591 L110.953,35.591C110.953,35.591,110.953,35.591,110.953,35.591L110.953,35.591z M138.5,35.438c2.298-1.514,6.583-4.453,11.31-8.284 l0,0c1.243-1.006,2.516-2.075,3.789-3.194l0,0c1.296-1.74,2.677-3.506,4.057-5.23l0,0c0.37-0.459,0.74-0.915,1.109-1.364l0,0 c-0.201-0.037-0.482-0.071-0.84-0.071l0,0c-0.825-0.002-2.087,0.178-3.735,0.941l0,0c-1.933,1.3-4.188,3.015-6.272,4.733l0,0 c-0.156,0.127-0.313,0.254-0.468,0.381l0,0C144.833,26.044,141.831,29.909,138.5,35.438L138.5,35.438z M116.677,27.376 c1.932-1.029,4.049-2.176,6.367-3.452l0,0c0.006-0.006,4.241-2.991,6.53-4.941l0,0c0.205-0.169,0.396-0.338,0.564-0.496l0,0 c-1.533,0.633-4.763,2.225-10.164,5.248l0,0C119.688,24.039,118.294,25.523,116.677,27.376L116.677,27.376z M158.434,19.356 c-0.105,0.13-0.212,0.261-0.318,0.393l0,0c3.006-2.984,5.815-6.196,8.019-9.482l0,0C164.065,12.606,161.251,15.865,158.434,19.356 L158.434,19.356z M158.921,16.377c0.001-0.018,0.001-0.034,0.001-0.049l0,0c-0.074-0.412,0.029-0.262-0.276-0.337l0,0 c-0.27-0.016-0.67,0.099-1.17,0.318l0,0c0.158-0.01,0.308-0.015,0.449-0.015l0,0C158.332,16.294,158.666,16.332,158.921,16.377 L158.921,16.377z"/>
<path d="M153.742,64.567c-7.918-3.4-10.65-8.091-10.634-12.67l0,0c0.044-8.299,8.538-15.888,8.555-15.936l0,0l0.002,0.002 l0.67,0.741c0,0.006-2.062,1.866-4.126,4.72l0,0c-2.071,2.854-4.107,6.673-4.101,10.473l0,0c0.017,4.148,2.328,8.397,10.031,11.751 l0,0c7.699,3.335,20.748,5.628,41.866,5.626l0,0c2.645-0.002,5.412-0.036,8.257-0.104l0,0c0.009-0.002,3.419-0.476,7.697-1.335l0,0 c4.272-0.857,9.41-2.104,12.771-3.606l0,0c2.271-0.983,3.59-2.164,3.519-2.965l0,0c0.02-0.544-0.506-1.354-2.14-2.264l0,0 c-1.611-0.906-4.223-1.879-8.045-2.877l0,0c-7.65-2.002-20.157-4.128-39.453-6.293l0,0l0.111-0.994 c28.997,3.262,42.671,6.392,47.876,9.292l0,0c1.724,0.968,2.632,1.966,2.65,3.136l0,0c-0.071,1.696-1.806,2.815-4.11,3.877l0,0 c-2.34,1.044-5.41,1.941-8.481,2.684l0,0c-6.133,1.483-12.248,2.335-12.313,2.342l0,0c-2.91,0.073-5.687,0.106-8.339,0.108l0,0 C174.814,70.271,161.665,67.99,153.742,64.567L153.742,64.567z"/>
<path d="M122.31,35.541c-0.194-0.203-0.25-0.459-0.248-0.674l0,0c0.078-1.481,2.08-4.145,4.072-6.791l0,0 c1.994-2.587,3.983-4.897,3.985-4.902l0,0h0.002l0.758,0.652c-0.005,0.006-1.978,2.298-3.953,4.86l0,0 c-1.922,2.434-3.837,5.359-3.867,6.122l0,0c0.774-0.018,4.103-1.948,10.629-7.2l0,0l0.624,0.782 c-6.827,5.396-9.818,7.34-11.305,7.417l0,0c-0.004,0-0.007,0-0.011,0l0,0C122.765,35.807,122.501,35.738,122.31,35.541 L122.31,35.541z"/>
</svg>