<?xml version="1.0" encoding="UTF-8"?>
<svg version="1.1" xmlns="http://www.w3.org/2000/svg" width="360" height="157" >
<path fill="#231F20" d="M5.845,131.168c12.259-17.82,24.594-35.588,36.981-53.319C59.085,54.577,74.875,30.624,92.675,8.483 c1.176-1.462,2.972-2.83,3.936-4.422c0.643-1.062-0.035-2.15-1.046-2.571c-1.784-0.742-5.27,3.541-6.273,4.468 c-4.449,4.107-8.744,8.382-12.898,12.786c-7.126,7.554-18.31,18.22-19.101,29.292c-0.77,10.777,14.742,8.167,20.54,5.409 c3.885-1.849,7.735-4.704,12.221-4.565c7.193,0.222,12.156,10.072,15.083,15.325c4.533,8.135,9.234,17.087,9.27,26.619 c0.024,6.306-2.252,12.335-5.514,17.645c-6.902,11.239-18.624,19.275-30.354,24.791c-8.893,4.182-20.959,8.601-30.896,5.916 c-11.325-3.059-1.188-17.116,2.598-22.211c10.488-14.119,23.075-27.499,38.387-36.412c7.889-4.592,17.984-8.579,27.245-6.407 c10.041,2.355,9.076,12.573,6.645,20.64c-4.268,14.157-14.423,29.286-27.435,36.694c0.589,1.007,1.178,2.015,1.767,3.022 c5.112-3.794,10.821-7.254,16.837-9.369c2.922-1.027,7.688-2.358,9.766,0.815c3.428,5.235-0.657,15.015-2.375,20.104 c-0.724,2.145,2.657,3.057,3.375,0.93c2.979-8.827,8.081-28.519-7.804-26.23c-7.702,1.109-15.42,6.166-21.567,10.728 c-1.769,1.313-0.243,4.167,1.767,3.022c15.898-9.051,29.005-29.453,30.861-47.638c1.212-11.875-8.233-17.328-18.907-16.729 c-17.614,0.989-33.44,14.047-45.285,25.931c-7.918,7.943-15.939,16.987-21.435,26.834c-2.08,3.728-3.679,8.006-2.961,12.32 c1.349,8.108,12.02,8.541,18.294,7.896c11.782-1.212,23.304-6.241,33.243-12.494c10.506-6.61,19.99-15.688,24.764-27.327 c6.359-15.507-1.305-30.994-9.274-44.344c-5.273-8.834-12.577-16.47-23.252-11.954c-3.785,1.601-7.175,3.95-11.157,5.098 c-3.135,0.904-9.874,1.273-10.891-2.855c-0.943-3.832,2.719-8.825,4.654-11.774c3.538-5.39,7.849-10.278,12.21-15.008 c3.959-4.295,8.105-8.42,12.35-12.433c1.362-1.288,2.741-2.558,4.137-3.808c0.468-0.418,0.939-0.832,1.417-1.24 c0.903-0.773-0.09,0.26-0.983-0.111c-0.349-0.857-0.697-1.714-1.046-2.571c0.369-0.609-0.987,0.902-1.304,1.245 c-1.013,1.1-1.941,2.281-2.87,3.451c-3.038,3.828-5.941,7.765-8.836,11.701c-9.004,12.243-17.774,24.659-26.528,37.08 C37.774,78.868,21.66,102.079,5.621,125.34c-0.934,1.354-1.867,2.708-2.799,4.062C1.54,131.267,4.574,133.015,5.845,131.168 L5.845,131.168 M181.947,69.082c-12.901,1.943-20.827,13.514-20.254,26.101c0.254,5.575,3.521,16.805,11.28,12.154 c4.322-2.59,6.561-8.339,8.309-12.76c4.274-10.807,6.147-22.626,7.751-34.07c1.437-10.251,3.104-21.296,1.605-31.647 c-0.519-3.582-1.728-8.77-6.046-9.399c-4.012-0.585-7.698,2.764-10.392,5.278c-4.599,4.292-8.459,9.399-12.279,14.374 c-8.751,11.398-16.234,23.629-22.886,36.363c-8.173,15.646-33.32,65.9-0.123,69.987c18.159,2.235,36.434-9.267,49.7-20.306 c15.693-13.06,28.529-29.61,39.6-46.661c6.83-10.52,15.068-22.569,17.816-35.035c1.165-5.286,1.679-15.866-5.718-16.956 c-3.924-0.578-7.523,1.969-10.39,4.322c-6.217,5.104-10.95,12.206-15.279,18.885c-7.477,11.537-13.939,23.924-19.418,36.525 c-3.381,7.777-6.447,15.999-7.142,24.516c-0.703,8.618,3.552,15.423,12.547,15.764c5.997,0.228,12.18-1.918,17.566-4.386 c1.015-0.465-0.347,0.039,0.762-0.257c1.877-0.5,3.792-0.773,5.732-0.806c10.186-0.171,3.58,11.378,1.215,16.235 c-6.538,13.426,9.62,14.176,18.621,13.063c6.946-0.859,13.788-2.493,20.544-4.291c5.475-1.456,10.846-3.483,16.59-3.284 c9.54,0.332,16.618,7.805,26.119,7.955c8.296,0.133,16.76-2.436,24.583-4.912c8.392-2.658,16.681-5.867,24.688-9.531 c2.051-0.938,0.271-3.954-1.766-3.022c-12.255,5.608-25.282,10.446-38.526,13.021c-3.763,0.731-7.606,1.13-11.437,0.832 c-4.945-0.384-9.355-3.897-13.897-5.674c-6.938-2.713-13.746-2.558-20.795-0.562c-11.736,3.322-26.104,8.545-38.393,6.077 c-13.241-2.658,11.43-23.276-2.893-28.646c-11.391-4.27-23.955,10.353-34.656,2.913c-3.913-2.72-3.398-9.107-2.809-13.134 c1.557-10.621,6.449-20.829,11.129-30.355c5.691-11.587,12.001-23.024,19.588-33.491c3.716-5.126,8.229-10.972,14.104-13.756 c8.242-3.905,6.471,10.324,5.429,14.156c-1.486,5.474-4.428,10.615-7.109,15.571c-4.143,7.652-8.758,15.049-13.648,22.243 c-11.964,17.598-26.211,34.465-43.754,46.726c-8.174,5.713-17.267,10.117-27.076,12.093c-6.771,1.364-15.601,1.88-20.86-3.466 c-4.277-4.347-4.065-11.583-3.457-17.17c0.877-8.064,3.671-15.978,6.617-23.483c6.122-15.599,14.41-30.525,23.606-44.51 c3.49-5.307,7.333-10.373,11.275-15.35c3.61-4.558,7.438-9.455,12.233-12.833c4.264-3.005,6.151-0.778,7.072,3.811 c2.23,11.115-0.283,23.955-1.895,34.947c-1.738,11.855-3.886,24.614-9.472,35.367c-1.205,2.319-5.139,8.989-8.121,4.991 c-4.094-5.487-2.736-15.416,0.086-20.854c2.858-5.507,9.182-9.373,15.252-10.288C185.103,72.122,184.154,68.75,181.947,69.082 L181.947,69.082z"/>
</svg>