<?xml version="1.0" standalone="no"?>
<!DOCTYPE svg PUBLIC "-//W3C//DTD SVG 20010904//EN"
 "http://www.w3.org/TR/2001/REC-SVG-20010904/DTD/svg10.dtd">
<svg version="1.0" xmlns="http://www.w3.org/2000/svg"
 width="468pt" height="193pt" viewBox="0 0 468 193"
 preserveAspectRatio="xMidYMid meet">
<metadata>
Created by POTRACE VERSION, written by Peter Selinger 2001-2007
</metadata>
<g transform="translate(0,193) scale(0.078000,-0.078000)"
fill="#000000" stroke="none">
<path d="M3828 2312 c-8 -9 -28 -39 -44 -67 -16 -27 -36 -61 -44 -75 -8 -14
-40 -74 -71 -135 -31 -60 -82 -159 -113 -220 -31 -60 -56 -115 -56 -121 0 -6
-12 -38 -26 -70 -14 -32 -32 -77 -39 -99 -8 -22 -19 -67 -26 -100 -10 -50 -10
-66 2 -90 10 -21 23 -31 42 -33 16 -2 42 6 62 18 19 12 35 29 35 37 0 12 -8
14 -45 9 -37 -6 -46 -4 -52 10 -3 9 -2 24 4 33 6 9 14 32 18 51 4 19 11 41 15
50 5 8 18 40 30 70 12 30 44 100 71 156 27 55 49 110 49 122 0 11 4 23 9 26 5
4 37 63 72 134 34 70 66 134 71 142 4 8 13 26 19 40 6 14 19 34 29 45 10 11
21 29 24 41 4 13 1 26 -7 33 -11 8 -17 7 -29 -7z"/>
<path d="M3107 2200 l-114 -110 -104 -5 c-57 -4 -123 -13 -147 -21 -23 -8 -51
-14 -61 -14 -11 0 -43 -12 -73 -26 -29 -15 -68 -34 -87 -43 -18 -9 -59 -41
-91 -71 -31 -31 -64 -69 -72 -85 -9 -17 -18 -47 -22 -68 -5 -26 -2 -48 10 -72
9 -20 29 -44 44 -55 16 -11 40 -20 54 -20 16 0 26 -6 26 -15 0 -8 -37 -50 -81
-92 -45 -43 -118 -125 -161 -183 -44 -58 -102 -129 -130 -158 -28 -30 -75 -71
-104 -93 -30 -22 -57 -47 -62 -57 -5 -9 -7 -23 -5 -29 3 -7 12 -13 22 -13 9 0
38 19 63 42 25 24 69 60 97 81 28 20 56 37 63 37 7 0 38 13 68 29 30 16 89 40
130 54 41 14 104 30 140 36 36 6 94 15 130 20 36 5 104 12 153 14 76 4 87 3
87 -12 -1 -9 -21 -36 -45 -61 -25 -25 -45 -51 -45 -57 0 -7 7 -13 16 -13 9 0
34 19 56 43 21 23 46 54 54 70 12 22 21 27 52 27 21 0 43 5 50 12 7 7 12 18
12 26 0 10 -7 12 -24 8 -14 -3 -27 -2 -31 3 -3 5 4 28 16 51 16 31 20 51 16
83 -4 31 -14 49 -36 68 -17 14 -31 30 -31 35 0 5 13 16 29 25 16 9 53 46 82
82 30 36 68 94 85 128 18 35 37 79 44 97 10 26 10 38 0 65 -7 17 -27 47 -44
65 -16 17 -36 32 -43 32 -7 0 -17 9 -22 19 -9 15 -6 22 12 34 12 8 55 46 95
84 46 45 72 77 72 91 0 13 -6 22 -15 22 -8 0 -66 -49 -128 -110z m-167 -158
c0 -5 -15 -22 -32 -38 -18 -16 -91 -82 -163 -148 -71 -66 -139 -129 -150 -141
-11 -12 -30 -34 -42 -48 -16 -18 -33 -27 -53 -27 -17 0 -48 9 -70 20 -21 11
-42 29 -45 41 -4 11 -4 37 0 57 4 20 23 60 42 89 19 30 54 66 77 82 22 16 70
42 106 59 36 16 92 33 126 37 33 3 67 11 75 16 8 5 40 9 72 9 31 0 57 -4 57
-8z m133 -23 c12 -6 32 -23 44 -38 12 -14 22 -37 23 -49 0 -13 -7 -37 -15 -53
-8 -16 -22 -44 -32 -61 -9 -18 -39 -58 -66 -88 -28 -30 -74 -71 -101 -90 -28
-20 -77 -55 -108 -78 -32 -23 -58 -46 -58 -50 0 -4 4 -14 10 -22 7 -12 14 -12
43 -2 18 7 48 12 65 12 19 0 40 -8 52 -20 11 -11 20 -32 20 -47 0 -16 -9 -48
-20 -72 l-20 -44 -53 7 c-28 3 -97 1 -152 -5 -55 -6 -143 -18 -195 -26 -52 -9
-107 -22 -122 -30 -15 -7 -35 -13 -46 -13 -10 0 -45 -14 -77 -30 -39 -20 -62
-27 -69 -20 -6 6 25 43 92 107 56 54 102 103 102 110 0 6 71 82 158 167 86 86
224 221 306 301 108 104 156 145 173 145 14 0 34 -5 46 -11z"/>
<path d="M1975 2280 c-16 -11 -49 -28 -72 -39 -23 -11 -55 -31 -70 -45 -15
-15 -36 -29 -47 -32 -10 -3 -34 -17 -55 -31 -20 -13 -90 -73 -156 -133 -66
-59 -154 -141 -195 -182 -41 -41 -105 -109 -142 -153 -38 -43 -85 -103 -105
-134 -21 -31 -48 -68 -60 -83 -12 -16 -40 -66 -62 -113 -23 -46 -41 -90 -41
-96 0 -6 -7 -23 -16 -39 -11 -18 -14 -37 -10 -54 4 -18 18 -32 38 -41 24 -9
38 -10 55 -2 14 6 27 7 32 1 6 -5 -14 -39 -50 -84 -32 -41 -83 -106 -114 -145
-31 -38 -75 -95 -97 -125 -23 -30 -66 -82 -96 -115 -29 -33 -82 -89 -117 -125
-34 -36 -98 -96 -141 -133 -44 -37 -114 -97 -156 -134 -56 -47 -78 -72 -78
-89 0 -12 4 -25 8 -28 5 -3 26 7 48 21 21 15 53 38 71 52 17 14 56 42 85 61
29 19 103 84 165 144 62 61 113 114 113 120 0 5 22 35 48 65 27 31 82 100 123
155 41 54 94 129 119 166 25 38 79 114 120 170 41 56 88 120 104 142 16 23 79
92 140 154 61 62 136 132 168 156 31 24 72 53 92 63 20 11 35 24 33 30 -2 5
-14 11 -26 13 -13 2 -38 -8 -59 -24 -20 -16 -59 -46 -86 -69 -27 -22 -93 -83
-146 -135 -54 -52 -103 -104 -111 -115 -8 -12 -49 -51 -91 -88 -43 -37 -86
-67 -97 -67 -10 0 -24 7 -31 15 -9 11 -8 26 8 73 12 32 35 85 53 118 18 32 61
103 97 157 35 54 96 133 136 175 39 42 127 129 195 192 69 63 139 129 155 145
17 17 57 50 88 73 31 23 61 42 65 42 4 0 31 18 60 39 28 22 71 48 96 59 41 18
47 19 59 5 10 -12 9 -21 -5 -45 -9 -16 -17 -45 -17 -63 0 -19 4 -36 9 -39 4
-3 15 2 23 12 9 9 25 36 37 59 11 23 21 55 21 70 0 16 -7 39 -16 51 -9 14 -25
22 -42 21 -15 0 -40 -9 -57 -19z"/>
<path d="M4376 2117 c-15 -19 -26 -41 -26 -51 0 -9 7 -19 16 -23 8 -3 26 -1
40 6 14 6 32 27 40 46 8 20 12 40 9 45 -4 6 -17 10 -30 10 -15 0 -33 -12 -49
-33z"/>
<path d="M3947 1938 c-18 -24 -51 -74 -72 -113 -22 -38 -49 -88 -62 -110 -13
-22 -31 -57 -40 -77 -10 -25 -31 -47 -59 -63 -24 -14 -46 -36 -49 -48 -3 -12
-5 -62 -3 -112 2 -72 6 -90 18 -90 8 0 19 15 25 32 5 18 17 36 27 39 10 3 18
15 18 27 1 12 7 33 15 47 8 14 14 37 15 52 0 16 9 33 22 42 12 9 36 16 53 16
16 0 43 7 59 15 15 8 35 15 42 15 8 0 14 5 14 11 0 8 -20 10 -66 6 -48 -3 -67
-1 -70 8 -3 7 11 44 31 82 21 37 49 89 64 114 14 25 38 60 53 78 22 26 26 36
18 52 -6 10 -12 19 -15 19 -2 0 -19 -19 -38 -42z"/>
<path d="M5404 1678 c-27 -11 -53 -24 -58 -29 -6 -5 -36 -9 -67 -9 -47 0 -63
-5 -88 -26 l-31 -26 -29 31 c-25 26 -32 29 -57 22 -16 -5 -44 -15 -63 -22 -27
-9 -44 -9 -82 0 -41 11 -51 10 -72 -3 -13 -9 -32 -31 -41 -49 -12 -21 -16 -48
-14 -82 3 -50 3 -50 39 -53 27 -2 44 3 68 23 21 19 31 36 31 55 0 16 7 35 15
44 9 8 32 18 53 21 20 4 49 9 64 11 14 3 29 0 33 -6 4 -6 1 -19 -7 -28 -8 -9
-24 -38 -36 -64 -12 -26 -22 -53 -22 -59 0 -6 10 -9 22 -7 12 2 32 19 45 38
12 19 37 54 54 78 17 23 37 42 44 42 7 0 18 7 25 15 8 10 28 13 72 11 33 -2
65 -9 71 -15 6 -6 19 -11 29 -11 10 0 21 -7 24 -15 3 -8 1 -28 -4 -45 -9 -26
-8 -34 11 -55 14 -15 44 -30 82 -40 32 -8 69 -15 81 -15 11 0 36 -7 53 -16 26
-13 38 -14 57 -5 21 9 23 13 12 31 -7 11 -36 27 -64 35 -29 8 -66 15 -83 15
-18 0 -47 7 -66 14 -19 8 -35 19 -35 23 0 5 7 19 16 31 8 12 14 32 12 45 -2
15 -12 23 -32 27 -16 3 -31 11 -34 18 -2 6 3 12 11 12 7 0 21 8 30 18 10 10
17 21 17 24 0 3 -8 8 -18 10 -10 3 -40 -4 -68 -14z m-506 -120 c7 -7 12 -19
12 -27 0 -8 -7 -23 -17 -33 -9 -10 -25 -18 -35 -18 -10 0 -21 6 -24 14 -3 8 2
28 11 45 8 17 21 31 28 31 7 0 18 -5 25 -12z"/>
<path d="M4140 1656 c-7 -9 -18 -16 -25 -16 -6 0 -32 -11 -56 -25 -24 -14 -51
-27 -59 -30 -8 -3 -28 -13 -43 -21 -16 -7 -35 -14 -42 -14 -8 0 -21 -10 -29
-22 -9 -12 -16 -26 -16 -30 0 -5 9 -8 19 -8 11 0 23 5 26 10 4 6 36 24 72 40
36 17 83 30 104 30 21 0 39 -5 42 -12 2 -7 -13 -32 -34 -55 -23 -25 -39 -53
-39 -67 0 -13 6 -29 14 -35 9 -7 40 -11 78 -9 56 3 63 5 66 25 3 17 -2 22 -25
25 -25 3 -28 7 -25 33 2 17 8 34 13 40 5 5 9 22 9 37 0 15 -4 28 -10 28 -5 0
-10 7 -10 15 0 8 14 22 31 30 16 9 29 22 26 28 -2 7 -19 13 -39 15 -22 2 -39
-3 -48 -12z"/>
<path d="M4290 1601 c-30 -15 -55 -34 -55 -42 0 -9 9 -13 25 -10 13 1 33 9 44
17 11 8 28 14 38 14 10 0 19 -6 19 -12 1 -7 0 -20 -1 -28 -1 -8 -19 -43 -41
-77 -21 -34 -39 -67 -39 -72 0 -5 4 -13 10 -16 5 -3 17 -2 27 3 9 6 37 41 63
78 31 48 53 70 69 72 22 4 23 1 18 -30 -3 -18 -9 -43 -13 -55 -5 -20 -3 -23
19 -23 17 0 45 18 81 51 37 34 57 46 60 37 2 -7 7 -25 10 -41 4 -15 15 -36 26
-47 11 -11 26 -16 40 -13 11 3 25 14 31 24 5 11 7 24 4 30 -4 5 -14 9 -23 7
-10 -1 -23 1 -29 5 -7 5 -13 28 -13 52 0 24 -3 50 -6 59 -3 9 -14 16 -24 16
-11 0 -38 -22 -61 -50 -23 -27 -48 -50 -56 -50 -8 0 -13 11 -13 29 0 16 -7 34
-16 42 -12 10 -20 10 -35 1 -11 -7 -24 -10 -29 -7 -6 4 -10 15 -10 25 0 11 -9
24 -19 30 -11 5 -26 10 -33 10 -7 0 -38 -13 -68 -29z"/>
<path d="M2058 1573 c-20 -21 -55 -69 -79 -108 -23 -38 -51 -81 -61 -94 -10
-14 -27 -44 -38 -69 -15 -33 -17 -49 -9 -63 7 -14 21 -19 54 -19 41 0 50 5
104 59 36 36 61 70 65 89 3 17 9 44 12 60 4 20 0 38 -11 55 -10 15 -14 34 -10
46 3 11 14 23 25 26 10 3 21 13 24 21 3 9 4 20 0 25 -3 5 -13 9 -23 9 -9 0
-33 -17 -53 -37z m7 -123 c15 -28 14 -33 -9 -79 -14 -27 -37 -59 -52 -70 -15
-12 -38 -24 -51 -27 -13 -4 -27 -4 -30 0 -3 3 7 30 22 58 16 29 44 74 63 101
19 26 36 47 38 47 2 0 10 -13 19 -30z"/>
<path d="M1775 1574 c-16 -8 -37 -22 -46 -30 -8 -8 -21 -14 -28 -14 -6 0 -30
-18 -51 -40 -31 -31 -40 -49 -40 -74 0 -28 5 -36 30 -46 17 -7 30 -19 30 -26
0 -8 -20 -40 -44 -71 -25 -32 -48 -69 -51 -83 -3 -14 -1 -38 4 -53 8 -20 17
-27 37 -27 15 0 45 8 65 18 21 9 37 22 35 27 -1 6 -22 10 -45 10 -29 0 -45 5
-52 17 -7 12 -5 21 6 30 9 7 36 39 61 72 24 32 44 62 44 67 0 4 -14 25 -32 45
l-32 36 25 19 c13 10 28 19 33 19 5 0 17 7 26 15 9 8 36 25 61 38 29 15 44 30
44 43 0 13 -8 20 -25 22 -14 1 -38 -5 -55 -14z"/>
<path d="M3159 1462 c-25 -31 -51 -66 -57 -77 -6 -11 -18 -37 -27 -57 -9 -20
-15 -45 -13 -55 2 -11 13 -19 28 -21 16 -2 35 7 53 23 15 14 27 30 27 35 0 6
6 10 14 10 8 0 23 -12 34 -26 16 -23 23 -26 55 -20 24 4 43 17 58 37 12 17 18
33 15 36 -3 4 -18 0 -32 -7 -18 -10 -30 -11 -42 -3 -13 7 -18 28 -20 79 -2 45
-8 75 -19 86 -9 10 -19 18 -22 18 -3 0 -27 -26 -52 -58z m41 -45 c0 -12 -8
-34 -17 -47 -9 -14 -22 -28 -27 -32 -6 -4 -15 -3 -19 1 -5 5 3 29 18 55 15 25
31 46 36 46 5 0 9 -10 9 -23z"/>
</g>
</svg>
