<?xml version="1.0" encoding="UTF-8" standalone="no"?>
<!-- Created with Inkscape (http://www.inkscape.org/) -->
<svg
   xmlns:svg="http://www.w3.org/2000/svg"
   xmlns="http://www.w3.org/2000/svg"
   version="1.0"
   width="211"
   height="83"
   id="svg2">
  <defs
     id="defs5" />
  <path
     d="M 53.875,9.40625 C 53.399444,9.4314432 53.125,9.8886662 53.125,10.75 C 53.125,12.966456 50.016469,13.543629 48,11.71875 C 45.691599,9.6296749 45.650162,10.615776 44.90625,18.84375 C 44.511749,23.179255 44.939349,23.577097 43.936286,23.83075 C 42.57533,24.174907 40.984956,22.474788 37.763214,22.337289 C 36.713867,22.291716 35.901661,23.05014 35.540494,24.003492 C 35.179327,24.956843 34.905932,26.591929 34.950509,29.697256 C 35.000051,33.148536 35.64216,37.847755 36.4375,40.15625 L 37.664048,43.980447 L 31.25,46.695298 C 17.909585,52.011168 9.9469501,58.022262 8.59375,63.5 C 8.104415,65.48082 8.4119508,66.422639 9.78125,67.21875 C 12.800665,68.97424 21.875183,68.509688 35.125,65.90625 C 78.989368,57.28737 90.368537,55.058791 95.8125,53.75 C 110.81832,50.142435 125.00855,47.316796 139.21875,42.40625 C 146.12371,40.020138 155.43544,37.598696 156.99229,28.087367 L 176.53125,28.327844 C 187.03875,28.674812 197.5375,29.612111 199.875,29.96875 C 202.55256,30.377273 204.125,30.213835 204.125,29.5625 C 204.125,27.129595 196.85421,25.794341 176.34375,25.195338 C 162.60886,24.794213 161.05754,24.836221 156.57421,24.873014 C 155.10479,21.739848 152.59488,19.627785 144.6187,17.030196 C 133.02893,13.255776 107.19663,13.352791 84.03125,13.34375 C 59.713023,13.334258 58.344686,13.243982 56.625,11.34375 C 55.436213,10.030155 54.486429,9.3738587 53.875,9.40625 z M 54.4375,11.6875 C 54.575198,11.539254 54.896241,11.99532 55.6875,13.125 C 57.237499,15.337934 57.470652,15.368324 82.5,15.3125 C 114.67721,15.240734 133.7661,16.180574 146.82034,20.236627 C 150.94492,21.518167 152.80507,23.310182 153.98545,24.912103 C 148.91179,25.179435 142.43736,24.853017 131.11975,25.5625 C 90.957704,28.098306 72.695255,32.571291 46.203685,40.550403 C 43.744913,41.290971 39.958419,43.10101 39.571771,43.109009 C 39.209238,42.108835 36.859368,36.030061 36.853506,30.534502 C 36.850747,27.948252 36.969372,26.480837 37.351092,25.690664 C 38.13717,24.063458 39.268324,25.13527 40.39779,25.539984 C 42.422192,26.265374 44.495493,26.79872 45.612407,26.121125 C 46.613497,25.513797 46.623887,25.323566 47.125,20.28125 C 47.519445,16.312254 46.708359,13.56868 47.40625,14 C 49.214335,15.117458 54.34375,14.403842 54.34375,12.59375 C 54.34375,12.076649 54.354881,11.776447 54.4375,11.6875 z M 10.34375,13.4375 C 9.8915332,13.450019 9.4718457,13.619528 9.125,13.96875 C 8.011488,15.089891 7.6292146,23.281196 8.59375,25.59375 C 9.120013,26.855512 8.86723,27.343749 7.65625,27.34375 C 6.18293,27.34375 7.2444302,27.8762 9.0625,30.1875 C 10.202419,31.636672 10.125,33.217923 10.125,33.96875 C 10.125,34.719577 10.635853,35.343749 11.25,35.34375 C 11.945363,35.34375 12.085089,34.494898 11.65625,33.09375 C 10.434508,29.101941 9.7921613,16.343749 10.8125,16.34375 C 12.70999,16.34375 14.606378,22.871493 15.46875,28.375 L 16.65625,35.90625 L 16.53125,27.53125 C 16.475144,22.919899 14.666746,18.2999 14.125,16.875 C 13.318362,14.753382 11.7004,13.399942 10.34375,13.4375 z M 24.327179,23.435834 C 23.874285,23.435834 23.592158,24.019084 23.551239,24.65625 C 23.454079,26.169165 24.613279,26.327276 25.007297,26.103979 C 25.460191,25.847316 25.528318,25.358894 25.271655,24.65625 C 25.052588,24.05653 24.780074,23.435834 24.327179,23.435834 z M 150.87884,28.187105 C 151.30972,28.178112 153.93541,28.157147 154.34274,28.173667 C 153.8575,31.918542 151.14648,34.47812 147.38032,36.205506 C 130.57599,43.912974 112.12746,46.870539 93.625,51.3125 C 85.512706,53.260052 61.017537,59.399021 36.125,63.875 C 21.872888,66.43771 13.576881,66.925383 11.125,65.375 C 9.8520484,64.57009 9.9376328,64.06101 11.71875,61.65625 C 14.548181,57.83612 20.71901,53.829199 29.8125,49.875 L 38.3125,46.21875 L 40.647203,51.6875 C 42.346259,56.221999 45.937753,57.794005 46.602814,55.983393 C 47.322806,54.023233 46.523193,51.843802 44.497452,49.093935 C 42.704461,46.660019 42.407592,47.735061 41.04895,46.470567 C 40.662389,46.110793 40.385301,45.497733 40.440061,45.375199 C 57.163919,40.301579 63.505,37.402383 93.652811,32.669904 C 118.82867,28.717901 144.41559,28.322004 150.87884,28.187105 z M 40.887929,48.069612 C 42.293083,48.069612 44.026502,51.294403 44.788698,53.663369 C 45.754441,56.664978 43.514454,55.714213 41.775974,51.600197 C 40.99418,49.750124 40.363092,48.069613 40.887929,48.069612 z"
     id="path2384"
     style="fill:#000000" />
</svg>
