<?xml version="1.0" encoding="UTF-8" standalone="no"?>
<!-- Created with Inkscape (http://www.inkscape.org/) -->

<svg
   xmlns:dc="http://purl.org/dc/elements/1.1/"
   xmlns:cc="http://creativecommons.org/ns#"
   xmlns:rdf="http://www.w3.org/1999/02/22-rdf-syntax-ns#"
   xmlns:svg="http://www.w3.org/2000/svg"
   xmlns="http://www.w3.org/2000/svg"
   xmlns:sodipodi="http://sodipodi.sourceforge.net/DTD/sodipodi-0.dtd"
   xmlns:inkscape="http://www.inkscape.org/namespaces/inkscape"
   width="373.40842"
   height="65.939384"
   id="svg2"
   version="1.1"
   inkscape:version="0.48.2 r9819"
   sodipodi:docname="Nouveau document 1">
  <defs
     id="defs4" />
  <sodipodi:namedview
     id="base"
     pagecolor="#ffffff"
     bordercolor="#666666"
     borderopacity="1.0"
     inkscape:pageopacity="0.0"
     inkscape:pageshadow="2"
     inkscape:zoom="1.4"
     inkscape:cx="202.72268"
     inkscape:cy="-14.19266"
     inkscape:document-units="px"
     inkscape:current-layer="layer1"
     showgrid="false"
     fit-margin-top="0"
     fit-margin-left="0"
     fit-margin-right="0"
     fit-margin-bottom="0"
     inkscape:window-width="1366"
     inkscape:window-height="706"
     inkscape:window-x="-8"
     inkscape:window-y="-8"
     inkscape:window-maximized="1" />
  <metadata
     id="metadata7">
    <rdf:RDF>
      <cc:Work
         rdf:about="">
        <dc:format>image/svg+xml</dc:format>
        <dc:type
           rdf:resource="http://purl.org/dc/dcmitype/StillImage" />
        <dc:title></dc:title>
      </cc:Work>
    </rdf:RDF>
  </metadata>
  <g
     inkscape:label="Calque 1"
     inkscape:groupmode="layer"
     id="layer1"
     transform="translate(-172.27732,-213.67821)">
    <g
       transform="matrix(0.52376757,0,0,-0.52376757,164.99241,286.3945)"
       inkscape:label="ink_ext_XXXXXX"
       id="g2993">
      <g
         transform="scale(0.1,0.1)"
         id="g2995">
        <path
           id="path2997"
           style="fill:#000000;fill-opacity:1;fill-rule:nonzero;stroke:none"
           d="M 3640,1375.67 C 3446,1321.45 3243.73,1124.82 3264.86,1011 3275.03,956.219 3284,944.703 3368,878.598 3410,845.543 3450.42,808 3456.92,796 c 16.92,-31.25 -12.62,-92 -78.79,-162 -56.72,-60 -111.5,-93.707 -168.13,-103.445 -54.32,-9.344 -51,-33.535 13,-94.567 68,-64.843 125.78,-90.621 156,-69.597 11.2,7.793 21,25.109 21,37.109 0,12 5.13,27.633 11,33.5 6.09,6.086 9.44,21.5 7.5,34.5 -3.5,23.5 -3.5,23.5 -18.32,-5.5 -24.02,-47 -44.03,-54.117 -87.18,-31.016 -47,25.164 -51.73,46.446 -14,62.954 47.19,20.644 121.78,92.062 163,156.062 30.27,47 38,68.355 38,105 0,61.711 -22,93.066 -117,166.766 -92,71.375 -99.18,92.144 -54.39,157.234 103.23,150 384.93,300.7 415,222 13.38,-35.03 -41.37,-150 -146.19,-307 -36.05,-54 -48.2,-100.059 -29.42,-111.512 5.04,-3.074 14.06,5.512 20.5,19.512 6.39,13.891 38.17,65 71.5,115 33.33,50 60,92 60,94.5 0,2.49 11.18,21.5 24.98,42.5 49.3,75 41.41,175.61 -16.98,216.7 -25.58,18 -27,18.02 -88,0.97"
           inkscape:connector-curvature="0" />
        <path
           id="path2999"
           style="fill:#000000;fill-opacity:1;fill-rule:nonzero;stroke:none"
           d="m 1025,1225 c -5.5,-1.65 -64,-19.64 -130,-39.98 C 472,1054.68 324.418,984.031 274.48,888 254.246,849.086 256.863,759 280,698 313.238,610.375 358,577.789 463,564.777 548,554.246 548.949,552.16 504.363,474 482.684,436 453.777,383.434 440.016,357 405.668,291 350.047,220.582 320,205.047 263,175.578 211.813,166.359 183,180.379 168,187.676 151.285,195.828 147,197.938 131.18,205.723 140.824,173 160.543,152 188.234,122.508 273,121.738 333,150.434 384.488,175.059 421.594,224 501.75,373 c 33.352,62 63.375,114.23 67.25,117 3.938,2.813 16.758,19 29.305,37 20.226,29.023 41.695,44.16 146.695,103.422 22,12.418 53.5,30.098 70,39.285 35,19.496 41.262,37.863 21.91,64.293 C 823.473,752.355 821,751.879 764,719.871 598,626.652 542.801,610.004 447,624.242 394,632.121 325.816,673.5 310.633,707 295.223,741 297.477,816.473 314.902,850 340.938,900.094 444,963.188 585,1015.35 c 102,37.74 429.43,144.65 443,144.65 6.4,0 12,-7 12,-15 0,-8 -4.67,-15 -10,-15 -5.5,0 -10,-9 -10,-20 0,-27.15 10,-25.29 66,12.29 76.37,51.24 71,108.53 -10,106.66 -23,-0.53 -45.39,-2.27 -51,-3.95"
           inkscape:connector-curvature="0" />
        <path
           id="path3001"
           style="fill:#000000;fill-opacity:1;fill-rule:nonzero;stroke:none"
           d="m 1609.05,904 c -31.38,-55 -43.07,-113.504 -24.05,-120.383 5.49,-1.988 28.93,28.383 52,67.383 35.49,60 40.14,73.945 30,90 -6.32,10 -15.32,19 -19,19 -3.87,0 -21.27,-25 -38.95,-56"
           inkscape:connector-curvature="0" />
        <path
           id="path3003"
           style="fill:#000000;fill-opacity:1;fill-rule:nonzero;stroke:none"
           d="M 6375,897.625 C 6312,875.836 6286.84,825.883 6310.22,769 6326.15,730.23 6361,713.168 6440,705.453 c 128,-12.5 137.19,-22.89 68,-76.906 C 6451,584.051 6424.84,570 6399,570 c -19.21,0 -20.48,4 -14.93,47 7.11,55 -7.38,89.809 -24.98,60 -25.38,-43 -195.58,-107.148 -212.26,-80 -4.86,7.906 17.5,59 44.19,101 12.07,19 11.66,24.262 -3.02,38.594 -20.89,20.398 -31.14,13.406 -62.42,-42.594 -32.95,-59 -36.32,-137.562 -6.58,-153.324 33.06,-17.52 90,-11.645 139,14.34 50.75,26.914 47.67,27.984 86.15,-30.016 15.97,-24.07 69.85,-24.234 115.85,-0.355 51,26.476 115.01,90.664 134.98,135.355 18.86,42.215 41.02,54.109 90.02,48.313 24.66,-2.918 29.67,-9.813 42,-57.813 7.71,-30 19.39,-58.098 26,-62.5 6.59,-4.398 41.5,-5.297 77.5,-2 53,4.855 68.04,2.945 78.78,-10 16.75,-20.187 40.72,-20.383 68.72,-0.57 17.96,12.711 21.73,24.57 20.5,64.57 -1.2,39 3.88,56.145 24.84,84 39.93,53.051 34.32,76 -38.86,159 -32.16,36.48 -137.48,5.816 -213.48,-62.16 -60,-53.66 -163.04,-67.547 -169.52,-22.84 -1.9,13.09 -23.25,44 -46.98,68 -41.04,41.508 -46.5,43.945 -96.5,43 -29,-0.547 -66.59,-5.699 -83,-11.375 z m 145,-62.945 c 33,-17.137 54.08,-49.582 45.92,-70.68 -10.49,-27.148 -180.93,-9 -206.63,22 -35.95,43.375 94.71,82.953 160.71,48.68 z m 444,-0.481 C 6996.27,821.293 6984.9,800 6888.6,693 c -23.4,-26 -83.16,-31.187 -92.13,-8 -8.69,22.469 26.53,106.469 51.53,122.891 12.94,8.5 37,18.425 55,22.687 44,10.422 44,10.422 61,3.621"
           inkscape:connector-curvature="0" />
        <path
           id="path3005"
           style="fill:#000000;fill-opacity:1;fill-rule:nonzero;stroke:none"
           d="M 5240.56,863 C 5204.64,801 5200,790.941 5200,775 c 0,-22.719 23.7,-18 50.25,10 12.32,13 27.56,23.082 33.25,22 5.83,-1.109 12.18,6 14.29,16 4.42,21 -15.79,77 -27.79,77 -4.32,0 -17.85,-17 -29.44,-37"
           inkscape:connector-curvature="0" />
        <path
           id="path3007"
           style="fill:#000000;fill-opacity:1;fill-rule:nonzero;stroke:none"
           d="M 7173,870.805 C 7106.66,830.383 7109.76,751 7181.04,665 c 21.55,-26 38.96,-53.254 38.96,-61 0,-25.602 -60,-54.508 -100,-48.18 -39,6.168 -67.16,-13.484 -57.07,-39.82 7.67,-20 98.07,-30.859 128.07,-15.383 79.33,40.922 91.35,102.383 36.05,184.383 -64.07,95 -62.51,91.445 -48.05,109 9.33,11.332 26,16 50,14 32,-2.668 36.33,-0.109 38.98,23 5.39,47.102 -46.98,69.051 -94.98,39.805"
           inkscape:connector-curvature="0" />
        <path
           id="path3009"
           style="fill:#000000;fill-opacity:1;fill-rule:nonzero;stroke:none"
           d="m 5554.43,799 c -37.97,-60 -110.25,-206.668 -130.11,-264 -10.21,-29.469 -19.17,-92.5 -21.82,-153.5 -4.09,-94 -2.94,-103.18 12.5,-100 10.84,2.23 25.73,28.5 41.1,72.5 28.3,81 27.94,77.168 6.9,73.758 -9.84,-1.598 -18.63,5.242 -20.87,16.242 -6.74,33 88.64,236 110.87,236 3.88,0 7,-29 7,-65 0,-62 1.29,-65.504 28,-75.926 40.63,-15.859 79,-4.406 155,46.258 37,24.668 69.24,44.668 72,44.668 2.79,0 5,-15 5,-34 0,-82 47.98,-114.121 117,-78.332 37,19.184 62.28,46.68 52,56.562 -3.32,3.188 -23,-1.277 -44,-9.988 -46,-19.07 -85,-11.844 -85,15.758 0,27.805 46,94.355 87,125.867 27,20.754 32.63,30.664 27.33,48.133 -11.69,38.598 -20.33,37.863 -70.33,-5.977 -65.53,-57.457 -98,-79.644 -170,-116.148 C 5658,593.34 5605.04,582.16 5597.2,603 c -8.98,23.832 10.31,80 43.26,126 30.09,42 34.22,57 23.36,85 -4.21,10.863 -13.82,13.484 -34.82,9.5 -18,-3.414 -29,-1.328 -29,5.5 0,22.75 -20.88,9 -45.57,-30"
           inkscape:connector-curvature="0" />
        <path
           id="path3011"
           style="fill:#000000;fill-opacity:1;fill-rule:nonzero;stroke:none"
           d="m 4365,753.289 c -10.79,-2.851 -40.5,-20.953 -64.5,-39.289 -28,-21.395 -50.99,-31.961 -62,-28.5 -10.23,3.219 -61.5,-15.543 -123.5,-45.195 -110,-52.61 -137.93,-56.461 -110.96,-15.305 32.12,49 9.37,112.539 -23.26,65 C 3953.92,650.871 3867,559.031 3827,527.516 3775.35,486.82 3764.71,501 3790.62,576 c 19.34,56 19.54,61.211 3.88,102.5 -16.31,43 -16.96,43.426 -56.5,37 -21.82,-3.547 -62.5,-17.863 -89.5,-31.5 -40,-20.203 -48.93,-29.223 -46.5,-47 2.55,-18.684 8.5,-21.547 39.5,-19 31,2.547 39.82,-1.746 58.5,-28.5 18.16,-26 20.02,-35.863 10.66,-56.5 -15.42,-34 -13.13,-88.145 4.34,-102.586 23.59,-19.5 71,-2.027 125,46.059 41,36.511 53.96,43.226 72,37.308 39.9,-13.093 50,-9.437 202,73.055 54,29.309 70.64,29.352 61.55,0.164 -11.83,-38 -5.45,-81.273 15.05,-102 29.11,-29.445 140.4,-26.367 250.4,6.926 90,27.242 227.79,52.285 237,43.074 3.29,-3.289 4.64,-39 3,-79 -2.67,-65 -0.39,-75.848 20.83,-99 37.33,-40.723 81.17,-50.102 147.17,-31.48 54,15.238 158.94,80.156 147.87,91.48 -3.2,3.273 -28.37,-3.773 -55.37,-15.5 -27.07,-11.754 -81,-24.445 -119,-28 -63,-5.891 -71.51,-4.488 -91,15 -17.92,17.918 -20.37,28.5 -14.75,63.5 8.02,50 28.51,103.504 43.25,112.949 6.16,3.949 22,-3.07 36,-15.949 19.52,-17.961 36.5,-23 77.5,-23 29,0 65.71,4.926 82,11 16.16,6.023 48.5,16.652 71.5,23.496 60,17.852 76.86,39.617 70.09,90.504 -7.3,55 -36.22,93.391 -73.09,97.039 -26.67,2.641 -89,-14.316 -187,-50.867 -21.21,-7.91 -57,-32.723 -81,-56.156 -40,-39.055 -105.48,-68.7 -125,-56.594 -5.08,3.144 -2.46,22.578 6,44.578 12.69,33 12.92,43.383 1.5,67.5 -10.8,22.801 -21,29.102 -51,31.5 -21,1.68 -44.98,-1.18 -54.5,-6.5 -12.59,-7.035 -24,-4.582 -44,9.465 -28.07,19.719 -91,31.047 -124,22.324 z M 4460,686 c 0,-2.254 -6.55,-19.5 -15,-39.5 -12.69,-30.039 -23,-37.898 -67,-51.102 -67,-20.097 -108,-20.25 -108,-0.398 0,8.234 23,33.039 51,55 42,32.941 58.77,40 95,40 24,0 44,-1.816 44,-4 z m 584,-2 c 8.73,-3.273 16,-16 16,-28 0,-25.547 -24,-38.129 -119,-62.383 -56,-14.297 -73.99,-15.355 -95.5,-5.617 l -26.5,12 28,23.199 c 30.99,25.676 126,65.215 159,66.168 12,0.344 29.27,-2.094 38,-5.367 z m -447.72,-29 c 6.13,-15.766 -21.28,-44.117 -43.28,-44.766 -17.73,-0.519 -16.35,24.766 2.4,43.766 19.73,20 33.36,20.332 40.88,1"
           inkscape:connector-curvature="0" />
        <path
           id="path3013"
           style="fill:#000000;fill-opacity:1;fill-rule:nonzero;stroke:none"
           d="m 1864.66,728 c -10.91,-12.762 -43.48,-57.5 -73.16,-100.5 -29.68,-43 -57.73,-77.5 -63,-77.5 -5.28,0 -16.14,16 -24.45,36 -19.94,48 -54.71,94 -71.05,94 -21.06,0 -16,-54.238 7,-75.031 C 1667.64,579.98 1665.66,527 1634.2,450 1606.43,382 1607.61,336.078 1637,341.621 1653.46,344.73 1748.44,462 1772.56,509 c 33.86,66 73.24,119.91 98.44,134.781 40,23.598 51.56,48.496 37.24,80.219 -14.44,32 -19.28,32.445 -43.58,4"
           inkscape:connector-curvature="0" />
        <path
           id="path3015"
           style="fill:#000000;fill-opacity:1;fill-rule:nonzero;stroke:none"
           d="m 1345,704.227 c -27,-14.454 -62.02,-35.43 -78,-46.727 -43,-30.398 -87,-104.488 -87,-146.5 0,-20.094 -6.61,-55 -14.97,-79 -14.62,-42 -11.38,-92 5.97,-92 4.91,0 34,16.59 64,36.5 53,35.172 55.53,35.809 69.5,17.5 7.91,-10.363 14.73,-29 15.02,-41 0.73,-31 28.4,-54.855 54.48,-46.965 28,8.469 66,43.57 66,60.965 0,16.027 -2,16.082 -35,0.957 -41.14,-18.855 -49.39,0.043 -25.32,58.043 14.8,35.688 43.82,70.871 106.82,129.5 79,73.52 85.89,82.93 79.5,108.5 -5.5,22 -11.18,26.715 -26.5,22 -11,-3.383 -27.13,-8.398 -37,-11.5 -12.42,-3.902 -22.48,3.5 -34.64,25.5 -21.51,38.902 -55.86,40.086 -122.86,4.227 z M 1413,654 c 13.31,-13.312 -119,-164 -144,-164 -15.47,0 -9.87,32 13.82,79 15.77,31.289 35.18,50.766 67.18,67.418 49,25.5 53.75,26.828 63,17.582"
           inkscape:connector-curvature="0" />
        <path
           id="path3017"
           style="fill:#000000;fill-opacity:1;fill-rule:nonzero;stroke:none"
           d="m 2007,704 c -3.86,-3.863 -7,-76 -7,-161 0,-135 2.1,-154.801 17,-160.5 10,-3.824 18.64,-1.559 20.98,5.5 9.27,28 149.4,197.648 172.02,208.266 13.85,6.5 39.5,14.859 57.5,18.734 l 32.5,7 0,-49.5 c 0,-40 -5.85,-56.891 -30.5,-88 -19.8,-25 -29.42,-47.266 -27.41,-63.5 5.92,-47.871 32.76,-33 106.5,59 73.73,92 108.07,114.391 95.1,62 -3.75,-15.121 -21.41,-49 -40.15,-77 -36.13,-54 -42.28,-91.828 -16.54,-101.664 26.27,-10.035 67.8,48.664 91.73,129.664 11.82,40 21.27,81.332 21.27,93 0,25 -25.82,90.141 -39,98.375 -4.91,3.066 -27.84,-19.375 -50.44,-49.375 -43.7,-58 -63.78,-64.164 -55.37,-17 2.67,15 -1.64,35.445 -9.69,46 -13.65,17.883 -16.5,18.051 -48.5,2.84 -41,-19.485 -77.87,-21.238 -95,-4.524 C 2191.6,672.465 2184.98,670 2168.91,650 2100.58,565 2056.95,520.234 2048,525.961 c -7.18,4.59 -8.73,31.039 -4.47,76.039 7.66,81 -9.53,129 -36.53,102"
           inkscape:connector-curvature="0" />
        <path
           id="path3019"
           style="fill:#000000;fill-opacity:1;fill-rule:nonzero;stroke:none"
           d="M 1024.52,673 C 1010.5,609 995.434,573 949.164,493 921.977,446 900,404.871 900,401 c 0,-3.898 -13.742,-28.5 -31,-55.5 -26.207,-41 -29.328,-52.211 -20.184,-72.5 19.762,-43.844 26.586,-37 101.672,102 116.142,215 131.302,256.102 110.962,301 -14.58,32.211 -29.49,31 -36.93,-3"
           inkscape:connector-curvature="0" />
        <path
           id="path3021"
           style="fill:#000000;fill-opacity:1;fill-rule:nonzero;stroke:none"
           d="m 2685,678.883 c -10.97,-5.973 -44.82,-36.383 -75,-67.383 -30.18,-31 -64.03,-61.691 -75,-68 -19.26,-11.074 -19,-11.891 7,-22 17.36,-6.75 29.5,-20.5 34,-38.5 3.75,-15 13.4,-37.285 20.79,-48 21.07,-30.551 16.21,-43.117 -24.79,-64.102 -51.22,-26.214 -136,-40.367 -260,-43.402 -56,-1.371 -102,-5.203 -102,-8.496 0,-3.32 10.5,-11.586 23.5,-18.5 16.88,-8.977 65.5,-11.512 172.5,-9 136,3.195 153.36,5.727 199,29 42,21.422 50.48,30.379 53,56 1.7,17.313 -5.99,46.5 -17.79,67.5 -33.31,59.281 -28.21,76.633 39.79,135.34 50,43.164 60.48,57.348 58.15,78.66 -3.22,29.375 -23.15,37.207 -53.15,20.883"
           inkscape:connector-curvature="0" />
        <path
           id="path3023"
           style="fill:#000000;fill-opacity:1;fill-rule:nonzero;stroke:none"
           d="m 5206.17,654 c -3.41,-8.852 -6.17,-26.5 -6.17,-39.5 0,-12.816 -9.37,-48.5 -20.62,-78.5 -22.88,-61 -22.65,-99.453 0.62,-103.613 25.4,-4.543 78.25,176.613 64.36,220.613 -6.95,22 -29.86,22.602 -38.19,1"
           inkscape:connector-curvature="0" />
      </g>
    </g>
  </g>
</svg>
