<?xml version="1.0" encoding="UTF-8"?>
<svg version="1.0" xmlns="http://www.w3.org/2000/svg" width="105" height="38" >
<path d="M3.765,25.203c3.579-2.151,7.332-4.229,10.606-6.832c0.402-0.319,0.023-0.854-0.371-0.896 c-1.192-0.128-4.909-0.556-5.28,1.25c-0.055,0.268,0.074,0.582,0.367,0.646c1.886,0.415,5.362-2.182,6.994-2.913 c0.307-0.138,2.853-1.522,2.597-0.614c-0.383,1.359-0.685,2.74-0.943,4.128c-0.293,1.576-1.119,5.062,0.448,6.253 c3.209,2.439,5.487-6.274,8.364,0.29c0.067,0.153,0.289,0.274,0.453,0.26c3.833-0.333,7.667-0.667,11.5-1 c0.669-0.058,0.675-1.108,0-1.05c-2.839,0.247-5.679,0.494-8.519,0.741c-1.899,0.165-2.432,0.74-3.142-0.88 c-0.438-0.999-1.401-1.536-2.388-1.779c-2.011-0.497-5.639,4.602-6.018,1.259c-0.293-2.581,0.577-5.464,1.256-7.941 c1.016-3.707-5.017-0.182-6.349,0.444c-1.286,0.604-2.557,1.286-3.897,1.762c0.747-0.265,2.829,0.094,3.746,0.125 c1.372,0.047-0.5-0.124-1.073,0.271c-2.872,1.983-5.891,3.772-8.881,5.57C2.656,24.645,3.183,25.553,3.765,25.203L3.765,25.203z"/>
<path d="M48.975,7.5c0.006,2.807,0.383,5.778,1.488,8.37c0.582,1.365,1.68,2.763,3.257,2.931c2.34,0.249,4.383-1.658,5.901-3.18 c0.479-0.479-0.264-1.222-0.742-0.742c-1.322,1.325-3.34,3.366-5.435,2.795c-1.41-0.384-2.085-2.217-2.479-3.444 c-0.687-2.138-0.935-4.489-0.94-6.73C50.023,6.823,48.974,6.823,48.975,7.5L48.975,7.5z"/>
<path d="M43.735,15.953c5.655,2.996,13.562,4.453,19.58,1.783c2.331-1.034,4.296-1.842,4.908-4.292 c-0.344,1.375-0.688,2.749-1.031,4.124c-0.815,3.264-1.632,6.528-2.447,9.792c-0.165,0.657,0.848,0.936,1.012,0.279 c1.167-4.667,2.334-9.333,3.5-14c0.13-0.52-0.491-0.867-0.877-0.511c-6.657,6.137-16.38,6.015-24.114,1.918 C43.667,14.73,43.137,15.636,43.735,15.953L43.735,15.953z"/>
<path d="M78.225,4.25c0.219,2.108-0.456,4.431-0.902,6.459c-1.855,8.434-4.971,16.619-8.078,24.651 c-0.245,0.633,0.771,0.903,1.012,0.279c3.199-8.267,6.321-16.662,8.229-25.337c0.413-1.875,0.992-4.102,0.79-6.052 C79.206,3.583,78.155,3.577,78.225,4.25L78.225,4.25z"/>
<path d="M78.525,20c-0.213-1.977,21.256-1.51,22.475-1.475c0.678,0.02,0.676-1.03,0-1.05C99.834,17.441,77.049,16.044,77.475,20 C77.547,20.666,78.598,20.673,78.525,20L78.525,20z"/>
</svg>