<?xml version="1.0" encoding="UTF-8" standalone="no"?>
<!-- Created with Inkscape (http://www.inkscape.org/) -->

<svg
   xmlns:dc="http://purl.org/dc/elements/1.1/"
   xmlns:cc="http://creativecommons.org/ns#"
   xmlns:rdf="http://www.w3.org/1999/02/22-rdf-syntax-ns#"
   xmlns:svg="http://www.w3.org/2000/svg"
   xmlns="http://www.w3.org/2000/svg"
   xmlns:sodipodi="http://sodipodi.sourceforge.net/DTD/sodipodi-0.dtd"
   xmlns:inkscape="http://www.inkscape.org/namespaces/inkscape"
   width="909.5896"
   height="330.94284"
   id="svg2"
   version="1.1"
   inkscape:version="0.48.2 r9819"
   sodipodi:docname="giorgos-seferis-signature.svg">
  <defs
     id="defs4" />
  <sodipodi:namedview
     id="base"
     pagecolor="#ffffff"
     bordercolor="#666666"
     borderopacity="1.0"
     inkscape:pageopacity="0.0"
     inkscape:pageshadow="2"
     inkscape:zoom="0.98994949"
     inkscape:cx="454.79481"
     inkscape:cy="165.47143"
     inkscape:document-units="px"
     inkscape:current-layer="layer1"
     showgrid="false"
     fit-margin-top="0"
     fit-margin-left="0"
     fit-margin-right="0"
     fit-margin-bottom="0"
     inkscape:window-width="1366"
     inkscape:window-height="706"
     inkscape:window-x="-8"
     inkscape:window-y="-8"
     inkscape:window-maximized="1" />
  <metadata
     id="metadata7">
    <rdf:RDF>
      <cc:Work
         rdf:about="">
        <dc:format>image/svg+xml</dc:format>
        <dc:type
           rdf:resource="http://purl.org/dc/dcmitype/StillImage" />
        <dc:title></dc:title>
      </cc:Work>
    </rdf:RDF>
  </metadata>
  <g
     inkscape:label="Calque 1"
     inkscape:groupmode="layer"
     id="layer1"
     transform="translate(79.794807,-366.89076)">
    <g
       transform="matrix(1.25,0,0,-1.25,-112.41575,723.02505)"
       inkscape:label="ink_ext_XXXXXX"
       id="g2993">
      <g
         transform="scale(0.1,0.1)"
         id="g2995">
        <path
           id="path2997"
           style="fill:#000000;fill-opacity:1;fill-rule:nonzero;stroke:none"
           d="m 3518,2843 c 7,-2.69 15.77,-2.23 19,1 3.16,3.16 -3,5.53 -13,5 -12,-0.63 -14.21,-2.84 -6,-6"
           inkscape:connector-curvature="0" />
        <path
           id="path2999"
           style="fill:#000000;fill-opacity:1;fill-rule:nonzero;stroke:none"
           d="m 6474.91,2568 c -7.29,-19.19 -63.66,-223 -86.55,-313 -11.2,-44 -23.29,-82.25 -26.86,-85 -3.64,-2.8 -13.76,-27 -23,-55 -9,-27.27 -26.5,-75 -38.5,-105 -12.15,-30.38 -37.67,-102 -57,-160 -19.33,-58 -38.58,-111.94 -43,-120.5 -4.43,-8.59 -11.12,-34 -15,-57 -3.88,-23 -12.8,-46.34 -20,-52.37 -17.45,-14.59 -167,-40.13 -235,-40.13 -89,0 -153.37,24.02 -120,44.78 5.33,3.32 10,13.22 10,21.22 0,15.51 11,31 49,69 20,20 21.8,26.67 10.82,40 -19.21,23.33 -46.82,18.75 -82.82,-13.74 C 5607,1569.76 5324.86,1410 5212,1410 c -47,0 -56.79,8.29 -34,28.8 9.77,8.79 26.91,32.2 37.5,51.2 10.59,19 25.44,41.17 32.5,48.5 8.08,8.39 11.86,33 10,65 -2.5,43 -6.38,52 -23.5,54.5 -12.56,1.84 -31.17,-9 -48.05,-28 -31.12,-35 -47.25,-39.07 -39.67,-10 2.87,11 1.4,20 -3.28,20 -4.61,0 -17.18,16 -27.5,35 -15.2,28 -16.84,39.4 -8.19,57 14.24,29 62.26,147.47 70.11,173 5.93,19.27 12.37,29 39.73,60 7.06,8 12.35,18.07 12.35,23.5 0,5.21 15.33,32.5 34,60.5 18.67,28 44.37,71.29 57,96 12.78,25 26.55,45 31,45 4.51,0 8,8.5 8,19.5 0,11 6.54,26.04 15,34.5 20,20 105,182.71 105,201 0,7 4.62,14.62 10,16.5 5.41,1.89 12.99,20.5 16.5,40.5 5.8,33 3.58,38.32 -20.5,49.23 -34.75,15.75 -42.53,7.77 -127.94,-131.23 -76.8,-125 -258.06,-490.24 -258.06,-520 0,-6 -3.8,-10 -9.5,-10 -5.28,0 -11.95,-8 -15,-18 -3.1,-10.14 -20.12,-33.5 -39,-53.5 -18.87,-20 -35.14,-40.3 -37.25,-46.5 -4.09,-12 -147.84,-162 -155.25,-162 -2.7,0 -19.5,-13.58 -36.5,-29.5 -17.59,-16.48 -56,-41.64 -87,-57 -31,-15.36 -61.24,-33.15 -68.5,-40.3 -17.52,-17.24 -137,-53.29 -182,-54.91 -20,-0.72 -46.22,4.26 -59,11.21 -22,11.96 -22.24,13.33 -5.5,31.5 9.21,10 24.13,19 31.5,19 7.72,0 16.46,6.5 19.5,14.5 3.05,8.05 13.5,17.08 23.5,20.3 22.08,7.11 33.38,37.2 24.48,65.2 -8.74,27.5 -57.48,26.53 -97.48,-1.94 -17,-12.1 -42.52,-22.29 -56.5,-22.56 -20.22,-0.39 -26.22,-6.5 -29,-29.5 -1.93,-16 -8.88,-34.24 -15.5,-40.68 -24,-23.37 -199.39,-74.93 -212,-62.32 -3.21,3.21 6.07,19 20,34 13.93,15 26,33.57 26,40 0,6.46 6,15.69 13,20 19.64,12.09 46.1,91 53.3,159 7.1,67 -5.29,118.17 -36.81,152 -11.17,12 -17.31,22 -13.49,22 3.86,0 -6,11.21 -22,25 l -29,25 47.5,94 c 26.28,52 47.5,100.7 47.5,109 0,8 4.67,16.66 10,18.55 14.27,5.08 23.56,89.45 15.69,142.45 -4.31,29 -16.97,56.02 -35.6,76 -52.77,56.57 -137.09,37.71 -236.09,-52.82 -18,-16.46 -30.73,-34.04 -28,-38.68 2.86,-4.86 -1,-8.5 -9,-8.5 -15.15,0 -47,-82 -47,-121 0,-50 42.94,-141.59 87.66,-187 41.37,-42 42.75,-45.32 30.34,-73 -7.17,-16 -16.36,-29 -20.5,-29 -4,0 -7.5,-7 -7.5,-15 0,-8 -3.73,-15 -8,-15 -4.41,0 -15.62,-13 -25,-29 -9.23,-15.74 -33,-45 -52,-64 -19,-19 -35,-37.74 -35,-41 0,-5.6 -19.98,-32 -45.4,-60 -48.12,-53 -69.68,-140.65 -40.6,-165.08 18.9,-15.88 57.12,-3.92 54.6,17.08 -2.67,22.29 9.03,48 45.52,100 16.84,24 35.43,50.59 40.88,58.5 5.52,8 27.93,34 50,58 22.14,24.08 57.63,68.5 79.5,99.5 35.97,51 41.29,54.81 59.5,42.71 82,-54.5 63.09,-184.71 -48.19,-331.71 -57.53,-76 -58.85,-126.89 -3.81,-147.58 18.98,-7.13 136,17.53 191,40.26 43,17.77 50.76,13.77 38.09,-19.68 -5.05,-13.33 -6.87,-36 -4.09,-51 3.89,-21 10.78,-27 31,-27 25.91,0 35.02,12 55.47,73 6.03,18 36.53,25.52 36.53,9 0,-21 151.22,-31.48 158.71,-11 1.88,5.14 9.29,9 17.29,9 7.58,0 33.5,8.72 56.5,19 23,10.28 52.82,21.98 65,25.5 12,3.46 22.5,10.93 22.5,16 0,5.07 7,9.5 15,9.5 17.55,0 52,20.17 106,62.07 l 36,27.93 5,-49.5 c 3.13,-31 14.34,-61.83 29.98,-82.5 26.68,-35.23 26.16,-44 -10.76,-183 -33.46,-126 -75.51,-379.848 -65.59,-396 C 4821,810.262 4776,802.457 4650,790.273 4336,759.91 3933.75,718.52 3865,709.496 3820.95,703.719 3621,679.004 3420,654.5 3219,629.996 2989.85,600.848 2910,589.633 2776.64,570.898 2717,562.227 2465,524.93 2356.99,508.941 2056,457.359 1910,429.813 1852,418.867 1768.3,403.508 1723,395.5 c -44.73,-7.91 -122,-24.047 -170,-35.5 -48,-11.453 -117.55,-27.816 -153,-36 -36,-8.309 -78.38,-18.793 -95,-23.5 -16.5,-4.676 -48,-11.875 -70,-16 -22,-4.125 -44.5,-9.074 -50,-11 -5.58,-1.953 -29,-7.437 -53,-12.41 -51,-10.567 -65,-21.84 -55.98,-45.09 6.03,-15.547 15.98,-17.113 72.98,-11.5 36,3.547 84.18,10.359 106,14.992 104,22.074 181.09,39.86 195,44.981 8.25,3.039 60,14.3 115,25.027 55,10.727 138.25,28.727 185,40 47,11.336 99.53,20.5 117.5,20.5 18,0 32.5,3.793 32.5,8.5 0,4.703 52.5,14.309 117.5,21.5 65,7.191 119.73,16.129 122.5,20 2.78,3.891 45,12.109 95,18.5 49.26,6.293 133,18.516 185,27 52,8.484 106.32,17.086 120,19 13.57,1.898 41,8.527 60,14.5 19.25,6.051 53,11 75,11 22,0 85,7.199 140,16 55,8.801 111.25,17.125 125,18.5 13.57,1.355 41,5.699 60,9.5 19,3.801 51,8.602 70,10.5 19.21,1.922 123,15.684 230,30.5 107,14.816 228.85,29.031 270,31.5 41.38,2.484 140,13.133 220,23.762 162,21.519 292.39,37.804 360,44.968 24.75,2.625 90,9.497 145,15.27 55,5.773 122.5,12.301 150,14.5 27.32,2.188 89,8.762 136,14.5 47.35,5.781 126,12.973 175,16 49,3.027 93.5,6.848 99,8.5 5.39,1.617 15.77,-3 22.5,-10 10.27,-10.684 6,-11.93 -24,-7 -28,4.602 -35.48,2.973 -32.11,-7 13.31,-39.469 84.57,-32 95.4,10 6.59,25.57 24.21,29.418 203.21,44.332 156,13 200.43,17.457 261,26.172 36.32,5.226 124,14.004 195,19.527 143,11.117 301.54,26.16 383,36.344 l 53,6.625 -5.12,-31 c -6.1,-37 1.25,-72 15.12,-72 12.67,0 38,26 38,39 0,6.16 5.5,11 12.5,11 9.26,0 9,2.332 -1,9 -10,6.668 -10.65,10.684 -2.5,15.5 6,3.547 8.57,10.59 5.67,15.5 -8.32,14.035 41.33,22.727 225.33,39.453 58,5.274 152,14.918 210,21.547 57.65,6.59 162.5,12.449 232.5,13 121,0.949 127.5,2.047 127.5,21.5 0,11.586 -7.17,30.5 -16.5,43.5 -13.2,18.4 -22.5,21.8 -46.5,17 -16.56,-3.31 -129,-14.961 -251,-26 -122,-11.039 -253.7,-24.504 -294,-30.059 -93,-12.812 -152,-13.179 -152,-0.941 0,5.453 8.41,25 18.5,43 10.18,18.15 24.35,51 31.5,73 7.15,22 18.47,46.75 25.16,55 15.35,18.95 34.84,76 34.84,102 0,10 5.92,25.63 12.5,33 32.14,36 38.46,47 44.19,77 3.44,18 9.04,35.34 12.31,38.14 7,6 15.76,21.86 70.07,126.86 23.79,46 46.72,83 51.43,83 4.68,0 13.88,-18 20.46,-40 13.36,-44.68 33.04,-54.84 91.04,-46.99 67.59,9.15 105.66,49.99 128.66,137.99 30.04,115 20.83,276.2 -18.33,321 -31.45,35.98 -88.93,-17 -179,-165 -36.51,-60 -71.28,-110.35 -77.33,-112 -6.1,-1.66 -45.5,-14.13 -88.5,-28 -43,-13.87 -79.95,-21.21 -83,-16.5 -2.95,4.55 1,21.5 8.5,36.5 7.65,15.31 22.16,62 32,103 9.84,41 21.4,79.54 25.5,85 4.2,5.6 14.1,32 22.5,60 8.25,27.5 31.65,95 52,150 20.35,55 43.75,120.25 52,145 8.33,25 19.89,56.11 26,70 l 11,25 3.27,-30 c 7.09,-65 24.58,-135 33.73,-135 4.8,0 9,-7 9,-15 0,-8.25 9,-15 20,-15 23.94,0 24.64,15 4.02,86 -18.47,63.58 -14.86,149 11.4,270 9.77,45 14.71,88.55 11.13,98 -7.21,19 -44.83,21.91 -51.64,4 z M 4155.34,2282 c 5.27,-12 12.16,-22 15.16,-22 3.05,0 0.83,-20 -5,-45 -5.83,-25 -13.83,-45 -18,-45 -4.17,0 -7.5,-8 -7.5,-18 0,-19.86 -64.76,-148 -96.02,-190 -1.64,-2.21 -15.58,9 -31.09,25 -68.84,71 -84.68,129.96 -52.12,194 19.83,39 65.19,87.91 82.23,88.65 4.36,0.19 18,9.58 30,20.66 28,25.84 69.17,21.69 82.34,-8.31 z m 2458.64,-408 c 13.34,-35.05 5.54,-170 -12.6,-218 -35.16,-93 -97.17,-135.34 -111.31,-76 -8.11,34 13.7,92.34 37.93,101.47 14,5.27 18.46,13.53 14.88,27.53 -5.38,21 -36.89,28.27 -47.65,11 -3.4,-5.45 -11.23,-7.05 -17.23,-3.5 -7.1,4.2 -5.5,9.52 4.5,15 8.42,4.62 25.09,27 36.5,49 11.41,22 32.42,52.83 46,67.5 13.89,15 25,30.55 25,35 0,13.71 17.89,7 23.98,-9 z M 5094.64,1610 c 3.47,-10.91 6.36,-45 6.36,-75 0,-64 -13.85,-83.33 -66,-92.11 l -35,-5.89 11.5,34 c 6.43,19 15.25,38.85 20,45 4.64,6 6.23,13.27 3.5,16 -2.76,2.76 1.72,18 10,34 8.28,16 15,36.62 15,46 0,24.54 26.7,23 34.64,-2 z m 624.99,-36 c -10.72,-49 1.84,-72.64 35.37,-66.55 14,2.55 25,8.73 25,14.05 0,5.72 31,6.86 78,2.86 70,-5.95 256.55,14.85 284,31.67 10.89,6.68 9.71,-4.03 -7.26,-66.03 -19.28,-70.42 -64.41,-288 -74.67,-360 -21.51,-151 -32.61,-191.996 -54.07,-199.719 -18.98,-6.832 -83,-13.898 -366,-40.386 -52.25,-4.895 -140,-13.641 -195,-19.442 -129,-13.609 -432.96,-39.969 -464,-40.242 -23,-0.203 -23.31,0.559 -7.5,18.289 8.92,10 13.97,21.027 11,24 -2.98,2.98 3.16,27.5 13.39,53.5 32.66,83 43.56,117.54 48.55,154 5.48,40 32.63,120.45 45.56,135 4.36,4.91 8,24 8,42 0,18 4.77,33 10.5,33 6,0 8.14,4.07 5,9.5 -3,5.18 -0.5,12.68 5.5,16.5 8.15,5.18 7.5,9.2 -2.5,15.5 -8.29,5.22 13.5,8.5 56.5,8.5 46,0 88.86,7.08 125,20.65 96,36.05 216.97,100.17 256,135.68 20,18.2 41.14,33.67 46,33.67 9.46,0 60,34.67 92,63.11 29.17,25.93 34.59,21.89 25.63,-19.11 z m 630.37,28 c 0,-4.8 -3.6,-11.8 -9,-17.5 -4.93,-5.21 -36.79,-70.5 -70.5,-144.5 -33.71,-74 -65.11,-141.78 -69.5,-150 -4.38,-8.21 -25.1,-58 -45.77,-110 -46.93,-118 -60.15,-133.47 -51.29,-60 11.34,94 37.22,263.45 45.83,300 4.61,19.6 13.16,57 19.43,85 12.76,57 40.01,84.44 84.8,85.36 17,0.35 40.03,4.53 51,9.26 26,11.2 45,12.2 45,2.38 z m -1370,-27 c 0,-22 -35.43,-125 -43,-125 -11.71,0 -2.04,82 12.98,110 9.65,18 30.02,28.18 30.02,15 z m 112.97,-217 c -26.93,-114 -131.21,-447.051 -155.3,-496 -11.32,-23 -26.33,-42 -33.17,-42 -7.14,0 -20,-2.785 -30,-6.5 -15.98,-5.934 -16.85,-0.5 -10,62.5 4.13,38 7.73,74.617 8,81.5 0.28,7 4.46,12.5 9.5,12.5 5.4,0 7,3.199 4,8 -2.79,4.457 -0.57,25.5 5,47.5 5.57,22 12.21,50.57 15,64.5 2.73,13.68 11.57,51.5 19.5,83.5 7.93,32 14.5,66.65 14.5,76.5 0,10 4.45,19.55 10,21.5 5.67,1.98 12.38,16.5 15.49,33.5 6.8,37.13 12.51,42.8 60.51,60.05 58,20.84 73.18,19.24 66.97,-7.05"
           inkscape:connector-curvature="0" />
        <path
           id="path3001"
           style="fill:#000000;fill-opacity:1;fill-rule:nonzero;stroke:none"
           d="m 6860,1985 c 0,-8.57 -7.5,-15.21 -17.5,-15.5 -16,-0.46 -16.09,-1.48 -1,-12 14.89,-10.38 15.05,-15.5 1.68,-52.5 -28.91,-80 -35.1,-150.2 -17.18,-195 8.8,-22 17.8,-40 20,-40 2.15,0 22,7.15 43,15.5 38,15.1 39.71,14.85 66.5,-10 24.24,-22.48 36.5,-25.56 103.5,-26.01 177,-1.18 244.56,-20.5 322,-92.1 37,-34.2 93.06,-126.33 83,-136.39 -3.3,-3.3 -39.5,-6 -80.5,-6 -69,0 -74.27,-1.48 -71.39,-20 3.78,-24.41 54.89,-35.22 142.89,-30.22 71,4.03 89.41,21.2 80.67,75.22 -3.08,19 -11.38,39.57 -18.17,45 -6.96,5.57 -21.36,27.5 -32.5,49.5 -11.02,21.77 -42,60.87 -69,87.1 -69.67,67.68 -136,88.4 -283,88.4 -99,0 -115.48,2.48 -133,20 -20.1,20.1 -19.49,24 14.25,91 21.15,42 15.97,69 -13.25,69 -17.16,0 -61,-46 -61,-64 0,-9.66 -48,-56 -58,-56 -4.39,0 2.41,42 15.05,93 26.52,107 23.88,137 -12.05,137 -16,0 -25,-5.4 -25,-15"
           inkscape:connector-curvature="0" />
        <path
           id="path3003"
           style="fill:#000000;fill-opacity:1;fill-rule:nonzero;stroke:none"
           d="m 1108,1923 c 7,-2.69 15.77,-2.23 19,1 3.16,3.16 -3,5.53 -13,5 -12,-0.63 -14.21,-2.84 -6,-6"
           inkscape:connector-curvature="0" />
        <path
           id="path3005"
           style="fill:#000000;fill-opacity:1;fill-rule:nonzero;stroke:none"
           d="m 1070,1857.79 c -171,-18.03 -384.406,-58.24 -515,-97.04 -26.762,-7.95 -154,-30.6 -257,-45.75 -47,-6.91 -49.172,-30.69 -7.031,-77 16.761,-18.42 39.219,-52 50.828,-76 25.644,-53.03 22.148,-150 -10.637,-295 -12.211,-54 -20.14,-103.39 -17.66,-110 2.398,-6.4 4.965,-1.5 5.5,10.5 0.535,12 5.668,22.5 11,22.5 12.766,0 12.629,-3 -1.559,-34 -6.406,-14 -14.3,-23.24 -17.941,-21 -3.656,2.25 -5.187,-10 -3.5,-28 2.719,-29 2.25,-29.66 -5,-7 l -8,25 -6.5,-30 c -3.609,-16.67 -10.723,-50 -16,-75 -7.391,-35 -6.277,-51.109 5,-72.5 12.656,-24 17.109,-26.102 35,-16.5 12,6.438 18.219,16.805 15,25 -3.145,8 -0.785,14 5.5,14 6,0 8.273,2.727 5,6 -3.289,3.289 2.137,22.5 12,42.5 9.863,20 21.176,50.06 25.027,66.5 20.145,86 124.684,336.49 145.973,349.77 6.102,3.8 2.008,17.73 -10.5,35.73 -16.68,24 -24.137,27.54 -40,19 -11,-5.92 -19.5,-16.38 -19.5,-24 0,-7.71 -6,-15.86 -14,-19 -10.562,-4.15 -15.719,8.5 -21,51.5 -3.809,31 -17.75,76.16 -30.57,99 -27.348,48.73 -21.43,57.47 45.57,67.32 78,11.47 153.234,27.18 195,40.72 22,7.13 67,18.14 100,24.46 33,6.32 75.75,15.63 95,20.68 122,32 419.4,50.73 471,29.66 16,-6.53 29,-15.88 29,-20.84 0,-17.65 38.67,-9 44.7,10 21.18,66.83 -114.7,107.76 -294.7,88.79 z M 292,998 c -7,-7 -12,-7.832 -12,-2 0,13 12.324,25.19 19,18.79 2.918,-2.79 0,-9.79 -7,-16.79 z m 18,-23 c 0,-8 -4.434,-15 -9.5,-15 -5.066,0 -6.934,7 -4,15 2.934,8 7.367,15 9.5,15 2.133,0 4,-7 4,-15"
           inkscape:connector-curvature="0" />
        <path
           id="path3007"
           style="fill:#000000;fill-opacity:1;fill-rule:nonzero;stroke:none"
           d="m 1910,1541.5 c 0,-4.64 -18.18,-28.5 -40,-52.5 -21.82,-24 -42.95,-53.09 -46.5,-64 -3.57,-11 -9.65,-22.39 -13.5,-25.3 -17.46,-13.22 -115.12,-300.7 -135.11,-397.7 -21.01,-102 6.06,-264.672 46.11,-277.102 10,-3.105 19,-12.054 19,-18.898 0,-31.113 142,-23 175,10 9,9 15,10.602 15,4 0,-6 7.5,-3.5 16.5,5.5 9.04,9.043 33,26.672 53,39 19.91,12.273 56.5,41.363 80.5,64 24,22.637 47.64,41.5 52,41.5 4.41,0 8,6.5 8,14.5 0,8.055 11.11,26.5 25,41.5 13.89,15 25,32.555 25,39.5 0,6.668 7,18.129 15,24.566 26.31,21.164 22.18,-6.066 -27.34,-180.066 -36.42,-128 -40.91,-180.305 -17.83,-208 16.67,-20 21.78,-21.371 39.17,-10.5 14.55,9.09 21.75,27.5 26.42,67.5 9.47,81.25 31.9,174 64.07,265 29.69,84 86.56,198.53 101.51,204.44 4.74,1.88 9,12.56 9,22.56 0,10 4.03,19 8.5,19 4.72,0 19.84,16 34.02,36 46.8,66 129.52,144.96 145.48,138.86 18.52,-7.07 52,27.14 52,53.14 0,22.69 -31,52 -55,52 -16.5,0 -87.34,-68 -193.8,-186 -24.35,-27 -40.71,-40.02 -36.42,-29 12.43,31.98 54.36,187 60.03,222 4.05,25 0.38,35.39 -16.81,47.5 -20,14.09 -23.64,14 -40,-1 -10,-9.17 -18,-24.5 -18,-34.5 0,-19.75 -42.17,-154 -58.11,-185 -42.18,-82 -52.02,-104.27 -63.68,-144 -7.34,-25 -21.21,-53 -31.21,-63 -9.76,-9.76 -20.52,-31.5 -23.5,-47.5 -2.98,-16 -9.39,-27.21 -14,-24.5 -4.59,2.7 -11.03,-3.5 -14,-13.5 -3.02,-10.156 -39.32,-53 -80.5,-95 -41.18,-42 -73.42,-82.137 -71.5,-89 1.96,-7 1.76,-9.422 -0.46,-5.5 -8.68,15.332 -63.94,0 -82.9,-23 C 1890.55,767.363 1793,746.426 1777,752.566 1758.25,759.77 1729.75,849 1730.24,899 c 0.45,47.074 21.52,138 52.13,225 23.58,67 26.9,71.18 77.63,97.57 52,27.06 120,88.5 120,108.43 0,6 2.8,10 7,10 11.2,0 31.16,51 33.26,85 5.63,91 -14.83,125 -75.26,125 -19,0 -35,-3.89 -35,-8.5 z m 43.55,-108.5 c -6.96,-29 -78.46,-123 -93.55,-123 -9.72,0 68,132 84,142.67 15.9,10.6 16.52,9.33 9.55,-19.67"
           inkscape:connector-curvature="0" />
        <path
           id="path3009"
           style="fill:#000000;fill-opacity:1;fill-rule:nonzero;stroke:none"
           d="m 1465,1515.74 c -22,-8.1 -49.68,-25.99 -61.5,-39.74 -20.55,-23.89 -21.3,-32 -17,-183 2.79,-98 0.55,-163.7 -5.88,-173 -16.73,-24.16 -24.34,-3 -21.92,61 1.85,49 -1.24,63.71 -15.7,74.79 -26.98,20.67 -34,18.48 -101,-31.57 -66,-49.29 -82.91,-51.76 -63.42,-9.22 15.59,34 15.21,40.21 -3.58,59 -40.91,40.91 -75,-10 -75,-112 0,-61 2.96,-73.04 21,-85.48 29.42,-20.29 54,-8.91 120,55.59 27.77,27.14 49,21.89 49,-12.11 0,-26 23.89,-70 38,-70 7,0 12,-3.75 12,-9 0,-17.2 33,-21.4 55,-7 45,29.45 55,72 55,234 l 0,151 29,15.24 c 41.83,21.97 142,20.71 189,-2.39 49,-24.09 74.58,-18.58 70.34,15.15 -7.71,61.47 -177.34,104.13 -273.34,68.74"
           inkscape:connector-curvature="0" />
        <path
           id="path3011"
           style="fill:#000000;fill-opacity:1;fill-rule:nonzero;stroke:none"
           d="m 2813,1500.2 c -23.48,-9.24 -47,-27.71 -97,-76.18 -18,-17.45 -37.47,-32.77 -44.5,-35.02 -6.67,-2.13 -13.67,-11 -15,-19 -1.33,-8 -6.24,-21.07 -10.51,-28 -10.6,-17.2 39.01,-61.79 62.01,-55.74 9.93,2.62 23.7,17.74 30.7,33.74 16.65,38 63.3,87.43 93.3,98.86 20,7.62 31,3.02 66,-27.56 47,-41.06 49.49,-47.21 22,-54.38 -19,-4.95 -26.16,-46.92 -8,-46.92 4.31,0 8,-6 8,-13 0,-17.09 63,-47 99,-47 38,0 53.95,20.29 44.82,57 -14.68,59 -132.71,191.6 -189.82,213.25 -30,11.37 -31.97,11.37 -61,-0.05"
           inkscape:connector-curvature="0" />
        <path
           id="path3013"
           style="fill:#000000;fill-opacity:1;fill-rule:nonzero;stroke:none"
           d="M 982.398,1375 C 975.313,1367 970,1358.64 970,1355.5 c 0,-3.04 -20.578,-39.5 -46,-81.5 -45.395,-75 -75.305,-148.55 -87.43,-215 -5.293,-29 -2.488,-39.69 14.43,-54.96 28.199,-25.458 53.332,-8.04 56.215,38.96 2.289,37.28 60.82,161 112.125,237 35.11,52 38.99,85.32 11.66,99.95 -25,13.37 -33.102,12.55 -48.602,-4.95"
           inkscape:connector-curvature="0" />
        <path
           id="path3015"
           style="fill:#000000;fill-opacity:1;fill-rule:nonzero;stroke:none"
           d="m 6528,1003 c 7,-2.69 15.77,-2.23 19,1 3.16,3.16 -3,5.53 -13,5 -12,-0.63 -14.21,-2.84 -6,-6"
           inkscape:connector-curvature="0" />
        <path
           id="path3017"
           style="fill:#000000;fill-opacity:1;fill-rule:nonzero;stroke:none"
           d="m 1921,664 c 0.63,-12 2.84,-14.211 6,-6 2.69,7 2.23,15.77 -1,19 -3.16,3.156 -5.53,-3 -5,-13"
           inkscape:connector-curvature="0" />
      </g>
    </g>
  </g>
</svg>
