<?xml version="1.0" encoding="UTF-8" standalone="no"?>
<!-- Created with Inkscape (http://www.inkscape.org/) -->

<svg
   xmlns:dc="http://purl.org/dc/elements/1.1/"
   xmlns:cc="http://creativecommons.org/ns#"
   xmlns:rdf="http://www.w3.org/1999/02/22-rdf-syntax-ns#"
   xmlns:svg="http://www.w3.org/2000/svg"
   xmlns="http://www.w3.org/2000/svg"
   xmlns:sodipodi="http://sodipodi.sourceforge.net/DTD/sodipodi-0.dtd"
   xmlns:inkscape="http://www.inkscape.org/namespaces/inkscape"
   id="svg2"
   version="1.1"
   inkscape:version="0.48.1 r9760"
   width="340.76181"
   height="92.903778"
   sodipodi:docname="Gov._Josias_Fendall_signature.JPG">
  <metadata
     id="metadata8">
    <rdf:RDF>
      <cc:Work
         rdf:about="">
        <dc:format>image/svg+xml</dc:format>
        <dc:type
           rdf:resource="http://purl.org/dc/dcmitype/StillImage" />
        <dc:title></dc:title>
      </cc:Work>
    </rdf:RDF>
  </metadata>
  <defs
     id="defs6" />
  <sodipodi:namedview
     pagecolor="#ffffff"
     bordercolor="#666666"
     borderopacity="1"
     objecttolerance="10"
     gridtolerance="10"
     guidetolerance="10"
     inkscape:pageopacity="0"
     inkscape:pageshadow="2"
     inkscape:window-width="1833"
     inkscape:window-height="951"
     id="namedview4"
     showgrid="false"
     inkscape:zoom="2"
     inkscape:cx="133.91775"
     inkscape:cy="54.23981"
     inkscape:window-x="0"
     inkscape:window-y="26"
     inkscape:window-maximized="0"
     inkscape:current-layer="svg2"
     fit-margin-top="0"
     fit-margin-left="0"
     fit-margin-right="0"
     fit-margin-bottom="0" />
  <path
     style="fill:#000000"
     d="M 1.4379531,84.821397 C -0.28644911,83.164278 -0.38294251,82.553317 0.73838049,80.391972 2.9623942,76.1052 12.200591,71.738826 17.550651,72.445762 c 2.921404,0.386022 3.934252,-0.557478 7.030079,-6.548737 3.419846,-6.618325 6.014686,-15.125302 5.290596,-17.344803 -0.295102,-0.904558 -0.0098,-2.217192 0.634033,-2.916964 0.969171,-1.053398 1.842916,-0.962613 5.078109,0.52764 3.688913,1.699252 4.016213,1.699572 5.85022,0.0057 1.068481,-0.986839 2.310192,-3.360562 2.759357,-5.274938 0.788346,-3.359994 0.661591,-3.566069 -3.655534,-5.943103 -2.61483,-1.439741 -4.801996,-3.484013 -5.266294,-4.922232 -2.300935,-7.127425 8.585389,-19.218044 13.353724,-14.830972 1.726957,1.588874 1.194398,4.879651 -2.032272,9.560497 -1.095507,1.589224 -1.778502,3.418354 -2.857351,2.751541 -0.802059,-0.495736 0.112945,-1.31629 1.79435,-4.609989 2.39156,-4.68482 2.253258,-5.835766 -0.719505,-5.987672 -2.639852,-0.134893 -5.58776,5.951614 -5.086102,10.50121 0.413164,3.747041 3.685048,7.366445 6.851446,7.57917 1.139206,0.07653 3.184201,-0.930446 4.544433,-2.237733 2.408509,-2.314763 7.167871,-3.106477 7.069223,-1.175957 -0.02708,0.529958 -1.087835,1.448437 -2.357232,2.041064 -2.790507,1.302769 -5.083272,4.012751 -6.773069,8.005574 -1.490854,3.522743 -1.08119,5.48767 1.168078,5.602606 1.228561,0.06278 1.297556,1.208763 -1.168122,2.42456 -2.614287,1.289074 -3.105018,2.959927 -3.641468,7.073383 -1.190785,9.130847 -3.575389,16.616227 -4.610271,17.751161 -0.713744,0.782747 -3.231871,0.861622 -7.994993,0.250426 -9.439315,-1.211236 -11.197492,-0.692131 -14.455315,4.267962 -3.244983,4.940546 -6.088191,6.80514 -11.211295,7.352449 -2.7547303,0.294293 -4.2211471,-0.09783 -5.7075229,-1.526208 z M 14.197462,80.914694 c 3.861295,-3.589875 4.380532,-4.778729 2.456907,-5.625366 -3.855552,-1.696928 -12.0535077,5.302884 -9.510118,8.120196 1.356697,1.502824 3.610972,0.705446 7.053211,-2.49483 z M 37.618051,70.364348 c 0.323039,-1.222607 0.952165,-5.133097 1.39806,-8.689976 0.445893,-3.55688 1.180756,-7.68726 1.633027,-9.178623 0.791705,-2.610643 0.676929,-2.718997 -3.083669,-2.91116 l -3.905981,-0.199592 -3.78117,9.068854 c -5.996474,14.382099 -6.067537,13.457895 1.06281,13.822249 5.509316,0.28152 6.145546,0.09935 6.676923,-1.911752 z M 177.49925,39.679062 c 0.37049,-0.607085 2.0843,-2.664491 3.18818,-4.720807 4.50286,-8.387963 6.45893,-9.548621 7.73865,-15.964737 0.86743,-4.349072 0.77814,-4.716435 -1.17049,-4.816008 -1.50836,-0.07708 -2.58655,0.93791 -3.78332,3.561568 -0.92058,2.01815 -2.71292,5.580569 -3.98297,7.916487 -1.27006,2.335916 -3.25549,6.879852 -4.41208,10.097632 -1.82047,5.064817 -1.28682,6.212452 -0.66401,6.488692 0.62282,0.276241 2.71555,-1.955743 3.08604,-2.562827 z m -1.46576,3.001903 c -0.66229,0.633574 -1.18446,1.199689 -1.93757,1.950967 -2.75766,2.750937 -1.37214,5.156294 2.60029,4.51431 4.62509,-0.747451 4.66575,-0.784081 8.23519,-7.418871 1.76834,-3.286955 4.17771,-7.278859 5.35416,-8.870896 1.17644,-1.592038 2.48606,-3.552759 2.91029,-4.357158 3.85178,-5.321424 13.63113,-14.98512 20.17664,-14.989869 6.78779,0.34685 -7.10399,20.475026 -20.88016,30.253801 -5.94722,4.221537 -6.33944,6.07536 -1.53058,7.234346 4.68374,1.12883 10.85182,-1.563046 11.53201,-5.032807 0.46419,-2.367957 5.65661,-7.689567 7.4152,-7.599705 0.48702,0.02489 1.38385,0.712257 1.99296,1.527491 0.8699,1.164314 0.60305,2.357472 -1.24409,5.562737 -1.32077,2.291872 -1.99265,4.478019 -1.53281,4.987388 0.45984,0.509368 3.2347,0.639359 6.33045,0.296555 3.03145,-0.335685 6.68287,-0.323818 8.11426,0.02637 1.43139,0.350192 3.54561,0.192332 4.69827,-0.350797 2.84909,-1.342489 5.36526,1.3512 4.35278,4.659874 -0.58261,1.903926 -0.2786,2.466364 1.60012,2.960284 1.27566,0.335376 3.67216,0.59009 5.32554,0.566032 2.60022,-0.03784 3.0618,-0.431421 3.15345,-2.926357 0.1412,-3.843673 4.32234,-6.19036 6.02707,-6.165104 1.70473,0.02526 2.5553,0.160606 2.5553,0.800303 1e-5,0.60601 -1.00589,0.420058 -1.612,0.58168 -1.36293,0.03304 -3.13784,1.760581 -3.19256,2.831528 -0.12941,2.532567 2.48861,2.150688 4.91361,-0.471643 2.56213,-2.770615 2.71015,-5.284157 0.39345,-6.680612 -1.01061,-0.609162 -2.95314,-3.255613 -4.31673,-5.881003 -1.96205,-3.777639 -2.85864,-9.197354 -2.7869,-13.933208 0.0821,-5.417929 1.28737,-10.969254 3.66962,-15.836038 4.99588,-10.2062724 10.92389,-13.1451783 15.73015,-7.3678874 4.51495,5.427132 2.96204,21.0802444 0.75288,27.1792104 -2.20916,6.098966 -2.56565,8.358511 -4.25019,11.264674 -4.07427,7.028898 -2.05637,5.607333 -0.43343,6.32716 0.83598,0.370785 2.61649,-0.611104 3.90978,-1.209902 1.49564,-0.692484 3.60878,-0.356686 5.12642,-0.29545 1.65181,0.06665 4.11864,-0.173001 5.50225,-0.798301 3.35966,-1.518363 3.6701,-0.883603 1.51995,3.107839 -2.26752,4.209284 -2.35975,5.925682 -0.41458,7.715305 2.5893,2.38227 5.59489,2.258885 9.92313,-0.40736 3.47504,-2.140662 4.79919,-3.908776 6.57681,-9.928514 0.9496,-3.215723 2.715,-7.08078 4.77119,-10.232972 4.66701,-7.154655 7.50987,-15.256827 16.89202,-19.271482 10.4197,-3.741312 7.57805,7.944328 -6.17651,23.442742 -3.7535,4.229378 -8.18165,7.998101 -9.30563,8.527719 -2.18255,1.028403 -6.3023,8.497382 -6.46722,11.724829 -0.11765,2.302474 1.94732,3.427314 5.13642,2.797932 2.48828,-0.491071 9.83987,-5.117298 12.52192,-7.467875 3.46114,-3.033381 8.21488,-7.773568 8.59102,-9.241671 0.881,-3.438625 5.01895,-13.780456 6.77071,-15.527951 0.88515,-0.882989 1.63805,-2.166954 1.67312,-2.853257 0.0351,-0.686303 1.94707,-2.832248 4.2489,-4.768774 1.75462,-1.476162 2.89403,-1.867783 4.22179,-3.223861 1.32776,-1.356078 0.86529,-3.729535 0.20737,-5.849464 -1.12174,-3.614425 -2.67282,-6.5473494 -7.04789,-9.2283044 -2.33402,-1.430241 -4.19893,-2.597335 -6.28271,-2.870506 -3.42874,-0.44949 -6.91646,0.987726 -10.11869,3.712382 -0.97855,0.832609 -1.66096,2.059531 -2.34454,2.403257 -1.25089,0.628986 -2.06535,-0.231601 -1.59231,-1.500304 0.92452,-2.479592 8.41688,-7.5113932 13.89487,-7.050098 7.00892,0.590213 13.49457,6.435264 15.40603,11.7257264 0.6632,1.835578 1.94338,6.258895 2.21403,7.196753 1.52712,5.29174 2.27922,12.256824 -1.45937,21.348575 -5.77454,14.042926 -9.53834,19.806201 -16.24612,19.802863 -2.27827,-0.0011 -4.50508,-2.882426 -4.41955,-5.482684 0.0882,-2.681116 -0.62565,-2.062759 -6.32033,3.158637 -7.00759,6.425191 -13.1619,9.534187 -16.82229,9.078603 -3.39596,-0.422674 -6.39709,-3.038636 -6.27296,-5.467889 0.13585,-2.658543 -0.88913,-3.088859 -3.9967,-1.677945 -4.29266,1.948969 -10.58638,1.340303 -12.92479,-1.249959 -1.77397,-1.965023 -2.1947,-2.040262 -4.872,-0.871253 -5.92665,2.58779 -11.50739,-1.306291 -8.11314,-5.661118 3.27063,-4.196211 0.24271,-3.495719 -4.11263,0.951423 -3.22534,3.293352 -5.17078,4.491976 -7.12837,4.391944 -1.48081,-0.07567 -2.71166,0.239698 -2.73522,0.700814 -0.1198,2.34446 -10.43144,3.632128 -14.52973,1.814402 -0.91841,-0.407343 -1.48867,-1.86284 -1.40112,-3.576162 0.18889,-3.696491 -0.54039,-3.64006 -4.978,0.385202 -3.64743,3.308493 -6.26828,4.153528 -6.15748,1.985346 0.0329,-0.643354 0.87177,-1.979756 1.86422,-2.969784 2.70762,-2.701022 0.48047,-3.588846 -6.69021,-2.666972 -4.31272,0.55445 -6.44301,1.34918 -7.25865,2.707924 -2.26077,3.76618 -5.49219,6.207148 -8.0258,6.062576 -4.00989,-0.228812 -5.20269,-1.60063 -4.64199,-5.338664 0.48551,-3.23685 0.36143,-3.387855 -3.17542,-3.864411 -3.31858,-0.447146 -3.93585,-0.13392 -6.27456,3.183943 -1.42665,2.023932 -2.96633,4.674968 -3.42152,5.891193 -1.452,3.879594 -10.22013,8.545767 -12.66369,6.739284 -0.50209,-0.371194 -1.67544,-1.394549 -1.79361,-2.50565 -0.22006,-2.069142 -1.15322,-1.637808 -2.98068,-0.15231 -1.14733,0.932636 -3.07632,3.767151 -4.26963,6.320018 -2.12808,3.506745 -4.17693,6.928173 -6.70271,10.072073 -1.68592,2.098512 -3.55087,3.401503 -5.60097,5.817556 -4.8062,5.664144 -12.3041,6.561724 -12.10049,2.577034 0.058,-1.134677 0.76163,-2.876266 1.28377,-4.017951 0.83778,-1.83183 4.39765,-5.84514 8.21963,-9.206562 4.23765,-3.727009 13.7009,-10.350846 14.66461,-10.507315 0.75831,-0.12312 1.83407,-2.271863 3.10286,-5.098296 1.2688,-2.826434 2.66354,-5.909273 3.09942,-6.850756 1.15422,-2.493016 -2.82614,-2.459296 -5.60289,0.04747 -1.20282,1.085866 -2.40733,1.730175 -2.67669,1.431798 -0.95384,-1.056565 1.02261,-2.66961 5.95554,-4.860518 4.60902,-2.047043 5.64511,-3.280678 7.44674,-8.511752 1.07376,-3.117688 2.63814,-7.911745 4.08751,-11.417348 1.44938,-3.505603 3.48363,-8.444603 4.52057,-10.975555 3.9779,-9.709245 9.56665,-13.9342604 12.57793,-9.50874 2.20979,3.247605 0.98764,9.866224 -3.04397,16.484801 -0.9072,1.489308 -2.23707,3.674289 -2.95527,4.855512 -2.50311,4.116848 -3.47842,5.78597 -5.68341,8.319098 -0.66395,0.762755 -1.51443,1.341271 -2.24516,2.040312 z m -32.78632,45.027321 c 1.90831,-1.654224 2.94605,-3.37314 4.32633,-5.135065 1.68134,-2.146233 3.12258,-4.146417 4.8117,-6.614125 1.68913,-2.467706 2.83463,-4.748709 2.54559,-5.068893 -0.50973,-0.56463 -4.5619,2.664215 -10.70012,7.862499 -4.12075,3.489747 -7.76003,7.312329 -8.77267,10.115452 -0.78859,2.182953 -0.0277,2.572333 2.6641,2.052693 1.59108,-0.30713 3.21677,-1.558337 5.12507,-3.212561 z m 29.92419,-21.828422 c 2.49375,-1.45773 5.7729,-6.823887 5.91917,-9.686418 0.14553,-2.848064 -3.90801,-1.41435 -8.07121,2.85474 -2.37408,2.434451 -4.34389,4.96222 -4.37736,5.617265 -0.1492,2.919878 2.70403,3.450555 6.5294,1.214413 z M 171.79002,56.4255 c 2.98454,-2.108119 6.15623,-4.292462 6.36433,-4.772555 0.63644,-1.468242 -8.42082,-1.448793 -9.77308,0.02099 -1.40386,1.525862 -4.01798,8.61058 -2.55356,8.901006 1.31167,0.260133 3.4169,-2.351499 5.96231,-4.149441 z m 30.95957,-1.524651 c 1.96019,-3.358548 0.61559,-4.520259 -2.87214,-2.48149 -3.12394,1.826112 -4.57501,5.150594 -2.7873,6.385821 1.56132,1.078803 3.55301,-0.295225 5.65944,-3.904331 z m 65.88062,-1.423682 c 2.45515,-3.70986 2.4024,-4.017132 -0.82481,-4.127866 -3.03936,-0.104288 -4.99927,0.712468 -5.98821,3.94425 -0.75836,2.478208 -0.58801,2.713511 2.0624,2.848945 2.12979,0.10883 3.37826,-0.591628 4.75062,-2.665329 z m 58.40871,1.637164 c 3.61269,-3.427593 8.05606,-12.958632 10.12877,-18.677675 2.73663,-7.550942 2.06422,-15.676688 -1.18217,-6.268387 -0.67067,1.943645 -4.38797,7.326707 -5.93973,8.364186 -6.71044,4.486478 -10.48699,16.334013 -8.16602,18.904952 1.07576,1.191628 1.79685,0.866935 5.15915,-2.323076 z M 198.85779,37.14861 c 3.09384,-2.953967 6.65136,-7.151581 7.90561,-9.328031 1.25426,-2.176449 3.27069,-5.162613 4.48096,-6.635922 1.40197,-1.706669 1.55387,-3.596227 1.28654,-4.291563 -0.63806,-1.659604 -7.28742,0.952351 -11.64684,5.913715 -6.8831,7.833515 -12.13738,19.483421 -8.86278,19.650751 0.66625,0.03404 3.74268,-2.354983 6.83651,-5.30895 z m 59.94552,2.963944 c 4.90651,-11.785588 5.86407,-17.038119 4.98447,-27.341662 -0.42174,-4.9403294 -2.91291,-8.8497794 -5.73098,-8.9937794 -0.95749,-0.04893 -2.66142,1.445435 -3.81209,3.343236 -4.23846,6.9904684 -3.09582,38.3585734 1.40566,38.5885954 0.44326,0.02265 1.86208,-2.495725 3.15294,-5.59639 z m 47.57745,-0.620296 c 12.62416,-14.522828 15.65611,-23.036216 6.44829,-19.808914 -3.015,1.056745 -9.35628,11.934602 -10.77224,14.857626 -1.41596,2.923024 -3.32188,5.48272 -4.39832,8.181768 -1.45856,3.657171 -2.06531,6.183935 1.8231,2.91005 3.88841,-3.273885 4.6491,-3.885218 6.89917,-6.14053 z m 25.9768,-6.785717 c 3.11985,-4.750028 4.11429,-6.914739 2.23954,-6.963343 -3.59612,1.486052 -7.32679,7.772016 -7.9566,10.540172 -0.44238,1.944315 1.52322,2.499688 5.71706,-3.576829 z M 50.664938,80.234372 c -1.427312,-3.029107 -0.156296,-7.92158 4.033207,-13.209163 1.992978,-2.515344 3.916276,-4.578269 3.930245,-4.851639 0.01397,-0.273371 -0.998138,-0.549339 -2.249128,-0.613263 -6.376525,-0.325834 -8.435307,-7.189316 -3.673207,-11.748216 1.777553,-1.701705 4.070142,-2.711303 4.472486,-1.851491 0.402344,0.859813 0.0269,0.996392 -1.549041,2.319144 -1.424175,1.195369 -2.213544,2.133112 -2.17154,3.390056 0.229239,6.85987 3.686092,8.347968 6.095996,3.318491 1.312366,-2.738912 1.237325,-4.760444 0.856193,-5.623205 -0.533535,-1.20775 -1.874612,-1.301043 -1.575175,-2.296884 0.299437,-0.995841 2.657491,-0.817617 5.344102,-1.560081 2.678538,-0.740234 5.936285,-2.01428 7.239437,-2.831214 2.144247,-1.344211 4.53992,-5.002195 6.116573,-10.163102 1.648124,-5.394853 2.153122,-5.631699 7.429539,-15.204891 4.779882,-8.672309 11.24227,-15.9787014 16.072675,-18.1718264 2.80994,-1.27578 3.22276,-1.248571 4.62514,0.30485 3.07341,3.404422 0.25723,14.0517244 -5.54983,20.9824794 -1.408545,1.681105 -2.578955,3.408125 -2.600915,3.837815 -0.0219,0.429689 -4.991564,5.096038 -11.043576,10.369664 -6.052011,5.273626 -11.04148,10.328589 -11.087707,11.233252 -0.101547,1.987255 0.625504,2.051244 3.987287,0.350927 4.37864,-2.214622 6.411827,-1.490064 6.881199,2.524266 0.365021,3.121865 4.094065,7.773227 6.32102,6.814877 0.488656,-0.210289 1.318323,-1.611423 1.975715,-3.323478 0.913652,-2.379424 2.522442,-3.69313 6.828287,-5.575836 3.09817,-1.354654 6.63211,-2.285364 7.86444,-2.165641 2.36449,0.229714 2.23734,2.076162 1.56351,3.999593 -1.23499,3.525258 -1.93042,3.858707 3.05323,4.05778 1.92492,0.07689 5.85708,-0.452396 8.4677,-1.439889 4.24772,-1.606747 4.83946,-2.213879 5.63032,-5.776893 0.48605,-2.189799 0.8676,-3.233354 1.50814,-4.039222 0.88717,-1.116148 3.16865,-3.657166 4.1394,-5.459206 1.85772,-3.448581 3.2993,-4.096812 4.04277,-1.817904 0.11549,3.564368 -5.46239,8.669004 -6.55895,9.697717 -1.09656,1.028713 1.4986,1.657243 3.97613,2.103983 2.85552,0.514898 6.55465,10.422185 1.09546,14.05324 -2.57522,1.630885 -4.51534,1.6611 -6.08211,-0.535922 -1.87469,-2.046541 -2.10387,-4.085273 -2.05096,-5.120793 0.13087,-2.56108 -1.04288,-3.168554 -3.63271,-1.880104 -7.81241,3.886717 -8.56748,4.07417 -13.44514,3.337924 -3.15469,-0.476178 -2.27554,-0.881711 -3.0096,-0.852761 -0.73406,0.02895 -3.50753,2.858235 -5.24592,3.6475 -2.49562,1.133075 -3.793465,1.177512 -6.168025,0.211185 -1.65404,-0.673113 -4.57285,-1.101336 -6.630893,-1.409 -5.858911,-0.875869 -7.613267,-2.573813 -8.256126,-6.430952 -0.27761,-1.665655 -1.108676,-3.059323 -1.846814,-3.097041 -2.192123,-0.112015 -7.74384,4.633919 -7.849957,6.710603 -0.05402,1.057193 -0.516638,2.683201 -1.028037,3.613352 -0.511398,0.930151 -2.121868,3.883207 -3.578821,6.562346 -5.262912,9.677776 -11.005425,15.959161 -14.430064,15.784166 -0.682381,-0.03487 -1.68856,-1.013886 -2.235955,-2.175593 z M 69.24364,53.219602 c 0.945767,-0.785273 2.074257,-2.684712 2.507752,-4.220977 0.722153,-2.559232 0.593658,-2.743891 -1.533974,-2.204468 -6.6279,1.680381 -8.251369,2.895141 -8.186106,7.570893 0.02217,1.588369 -0.750522,4.169313 -0.16393,4.387003 0.586592,0.21769 5.13244,-3.650302 7.376258,-5.532451 z m -3.017527,4.514155 c 0,0 -1.437557,0.484678 -2.8379,2.004576 -0.666733,0.723656 -1.073245,0.780008 -2.395411,2.308047 -4.645115,5.368401 -7.468346,8.584339 -8.36875,12.9359 -1.292674,6.247356 0.361726,7.142194 4.668047,2.52487 2.937983,-3.150163 8.650139,-13.257445 10.017144,-17.72467 0.70277,-2.296576 0.557833,-2.570723 -1.08313,-2.048723 m 37.370087,0.05692 c 1.69465,-1.436494 2.64949,-4.521382 2.75256,-6.661292 0.0859,-1.78352 -0.4008,-2.834276 -1.72229,-2.440292 -3.04669,0.908326 -5.278365,3.142563 -6.086305,6.093249 -1.39202,5.083946 0.95792,6.482163 5.056035,3.008335 z m 32.56774,-0.933596 c 0.34763,-3.101075 -3.12905,-7.400621 -4.94224,-7.493274 -1.16011,-0.05928 -1.33219,5.23441 -0.27647,8.504636 1.28145,3.969461 4.76422,3.042967 5.21871,-1.011362 z M 86.916807,34.634625 c 9.615988,-8.086388 17.183213,-19.732688 17.555523,-27.0187314 0.27326,-5.347629 -0.24758,-5.977168 -3.65603,-4.419036 -4.177555,1.909723 -6.930797,5.075377 -11.302272,12.9952824 -2.217271,4.017082 -3.65572,5.846762 -5.041529,8.990865 -1.686682,3.82672 -2.804048,8.273742 -3.93749,11.911939 -0.990051,3.366393 -0.172087,3.051051 6.381798,-2.460319 z"
     id="path3023"
     inkscape:connector-curvature="0"
     sodipodi:nodetypes="sssssssssssssssssssssssssssssssssssssscssszsssssszzassssccsssscssssssssszscssssasszsssssssssacssssssscszssssssssssssssssssssssssscssssssssssscascssssssssssssssaasascsssssssssscssssssssssssssssssssssssssssssscszszcccscssssszsssszssssssscssssssssssssssczsccssszsssssssssscssszccssssscsssssssssssssacs" />
</svg>
