<?xml version="1.0" encoding="UTF-8"?>
<svg version="1.1" xmlns="http://www.w3.org/2000/svg" width="311" height="149" >
<path d="M2.318,147.327c0.141-7.813,6.978-15.437,12.117-20.508c5.726-5.65,11.882-10.882,17.885-16.23 c19.72-17.571,39.082-35.523,57.393-54.57c10.035-10.438,19.817-21.176,28.863-32.489c4.324-5.408,8.754-11.075,11.759-17.357 c0.603-1.258,2.326-4.761,0.508-5.841c-1.486-0.884-3.744,0.196-5.032,0.982c-8.371,5.109-15.813,12.29-23.723,18.092 c-5.52,4.05-11.15,8.006-17.106,11.391c-2.926,1.663-13.151,6.068-9.471-1.669c1.57-3.301,4.869-5.998,7.645-8.212 c1.422-1.134,8.645-6.732,10.41-5.344c2.012,1.583-3.798,9.005-4.551,10.027c-7.289,9.904-21.309,23.737-34.853,20.29 c-0.609-0.155-2.679,0.797-1.877,1.001c14.251,3.628,28.149-8.557,36.627-18.549c2.562-3.02,7.569-8.488,7.188-12.872 c-0.324-3.724-10.014,1.996-10.806,2.497c-3.463,2.192-15.641,10.245-12.432,15.767c1.965,3.381,8.335,0.155,10.588-0.919 c14.442-6.885,27.174-18.123,39.689-27.924c0.713-0.558,4.602-4.462,5.757-3.563c1.765,1.374-1.514,6.537-2.164,7.703 c-4.25,7.63-10.081,14.481-15.671,21.14c-9.897,11.791-20.497,23.006-31.305,33.96c-17.721,17.961-36.46,34.838-55.284,51.624 c-5.303,4.729-10.739,9.39-15.517,14.662c-4.06,4.479-8.838,11.16-8.954,17.532C-0.009,148.476,2.304,148.108,2.318,147.327 L2.318,147.327z"/>
<path d="M80.629,74.228c-3.887-0.859,1.624-4.524,2.666-5.221c2.229-1.489,4.269-3.263,6.291-5.016 c4.856-4.212,9.273-9.258,14.655-12.817c-0.593-0.097-1.186-0.195-1.778-0.292c-1.648,2.085-11.444,15.632-3.657,14.845 c3.573-0.361,7.196-2.688,10.336-4.261c1.653-0.828,12.92-7.213,12.049-2.946c0.625-0.25,1.25-0.5,1.876-0.75 c-3.873-0.697-11.78-1.143-12.376,4.242c-0.678,6.136,7.791-1.46,8.79-2.657c-0.742,0.055-1.484,0.109-2.227,0.164 c-1.212,5.73,5.069,3.957,7.974,2.148c2.982-1.857,5.395-4.749,7.748-7.313c0.661-0.72,1.325-1.434,2.048-2.093 c-0.379,0.002-0.758,0.004-1.138,0.006c-0.117,1.123-0.184,2.248-0.198,3.376c-0.057,1.669,0.04,3.358,0.188,5.021 c0.071,0.804,2.109,0.019,2.314-0.471c1.091-2.601,3.79-7.273,3.596-1.737c-0.086,2.472,1.861,4.032,4.276,4.025 c4.264-0.012,8.166-5.092,10.72-7.881c1.952-2.13,22.302-27.094,19.17-28.836c-0.485-0.27-1.477,0.022-1.849,0.382 c-1.216,1.174-1.681,3.38-2.253,4.898c-1.749,4.641-3.313,9.354-4.897,14.053c-2.142,6.346-6.234,13.664-5.702,20.553 c0.053,0.679,2.382,0.204,2.318-0.621c-0.488-6.325,3.286-13.076,5.24-18.905c1.35-4.024,2.72-8.042,4.134-12.043 c0.706-1.998,1.413-6.101,2.998-7.632c-0.616,0.127-1.232,0.254-1.849,0.382c1.919,1.067-19.389,27.757-21.336,29.785 c-1.016,1.058-4.119,4.77-5.813,4.644c-5.796-0.433-0.443-6.198-3.729-7.423c-3.837-1.432-6.186,3.938-7.335,6.678 c0.771-0.157,1.543-0.314,2.314-0.471c-0.155-1.753,1.715-11.633-2.638-8.364c-2.425,1.821-4.313,4.477-6.453,6.604 c-1.799,1.787-8.687,6.343-7.538,0.914c0.196-0.926-1.94-0.18-2.227,0.164c-0.962,1.153-4.684,5.48-4.242,1.483 c0.345-3.122,6.57-2.247,8.531-1.894c0.494,0.089,1.747-0.121,1.875-0.75c1.31-6.417-11.578,0.578-13.334,1.451 c-2.273,1.129-4.528,2.292-6.831,3.358c-1.872,0.866-5.548,3.05-5.197-0.634c0.388-4.068,3.999-8.376,6.466-11.499 c0.64-0.809-1.475-0.493-1.778-0.292c-7.023,4.645-12.616,11.324-19.21,16.543c-1.578,1.25-10.864,6.861-4.428,8.283 C79.862,75.558,81.914,74.512,80.629,74.228L80.629,74.228z"/>
<path d="M142.73,43.714c-3.18-0.928-9.469-3.493-2.272-5.154c5.216-1.204,10.774-1.397,16.097-1.722 c10.311-0.629,20.655-0.703,30.982-0.704c0.946,0,2.438-1.437,0.869-1.437c-14.282,0-28.699-0.001-42.897,1.697 c-2.598,0.311-11.075,0.6-11.405,4.3c-0.218,2.432,5.529,3.881,7.234,4.379C142.157,45.313,144.076,44.107,142.73,43.714 L142.73,43.714z"/>
<path d="M223.501,52.292c-4.545,2.924-10.268,4.72-15.696,4.25c-7.59-0.658-13.958-9.266-16.377-15.887 c-3.892-10.649,0.048-25.953,7.086-34.71c0.811-1.009,0.082-1.114,0.11-0.513c0.038,0.786-0.185,1.61-0.345,2.37 c-0.776,3.679-2.318,7.256-3.703,10.732c-3.416,8.568-7.101,17.04-10.699,25.533c-3.201,7.551-6.417,15.098-9.709,22.609 c-0.572,1.304,1.728,1.242,2.232,0.326c8.357-15.142,16.618-30.769,26.793-44.78c0.778-1.071,1.588-2.173,2.55-3.09 c0.699-0.666-0.56-0.8-0.607-0.349c-0.075,0.72-0.5,1.471-0.79,2.12c-2.033,4.553-4.792,8.835-7.336,13.11 c-6.97,11.707-14.529,23.247-20.217,35.655c-0.538,1.174,1.593,1.35,2.098,0.548c8.375-13.298,17.368-26.778,28.242-38.168 c7.181-7.52,14.769-14.2,20.203-23.222c0.653-1.085,0.407-0.912,0.725-1.09c-1.728,0.967-0.87-1.083-1.606,1.095 c-0.536,1.587-1.283,3.112-1.995,4.625c-10.232,21.757-23.997,42.003-37.456,61.852c-6.703,9.885-13.574,19.66-20.652,29.28 c-6.628,9.009-13.551,18.936-22.7,25.584c-0.965,0.702-1.179,1.23-0.823,0.184c0.5-1.469,1.468-2.813,2.307-4.094 c1.267-1.935,2.687-3.773,4.109-5.596c2.891-3.703,5.907-7.31,8.93-10.906c8.471-10.079,17.171-19.969,25.966-29.766 c9.077-10.113,18.286-20.12,27.798-29.827c3.767-3.843,7.594-7.634,11.594-11.235c2.081-1.874,4.354-4.15,6.971-5.268 c-0.549-0.302-1.098-0.604-1.646-0.905c-2.929,4.965-6.132,11.537-4.855,17.431c0.249,1.151,2.57,0.542,2.318-0.621 c-1.193-5.512,2.018-11.818,4.77-16.484c0.594-1.006-1.117-1.13-1.646-0.905c-3.613,1.545-6.702,4.844-9.528,7.462 c-5.371,4.976-10.474,10.247-15.535,15.535c-13.003,13.586-25.559,27.612-37.893,41.806c-5.082,5.848-10.115,11.74-15.033,17.725 c-3.804,4.628-7.998,9.377-10.633,14.787c-2.271,4.662,2.856,2.958,4.983,1.413c8.736-6.349,15.419-15.987,21.768-24.545 c14.285-19.256,27.771-39.168,40.48-59.495c5.866-9.381,11.432-18.928,16.499-28.766c0.645-1.251,6.391-10.263,4.179-11.857 c-1.229-0.886-2.626,0.543-3.184,1.512c-5.27,9.164-13.061,16.076-20.376,23.521c-10.993,11.187-19.907,24.933-28.242,38.168 c0.699,0.183,1.398,0.365,2.098,0.548c6.29-13.724,14.796-26.407,22.431-39.396c2.143-3.645,5.15-7.744,6.037-11.96 c0.476-2.258-2.356-1.497-3.315-0.668c-2.969,2.564-5.079,6.475-7.177,9.722c-3.399,5.26-6.6,10.651-9.771,16.05 c-4.457,7.584-8.811,15.233-13.062,22.935c0.744,0.109,1.488,0.217,2.232,0.326c5.48-12.503,10.783-25.085,16.057-37.677 c2.272-5.427,4.617-10.833,6.596-16.375c0.874-2.448,2.037-5.384,1.911-8.043c-0.161-3.376-3.841-0.444-4.753,0.69 c-8.395,10.446-11.503,28.226-5.103,40.117c3.346,6.217,10.051,12.631,17.471,12.737c5.8,0.083,11.624-1.867,16.488-4.997 C226.385,52.606,224.503,51.647,223.501,52.292L223.501,52.292z"/>
<path d="M227.976,51.384c-3.896-4.912-11.413-11.011-16.288-3.626c-1.357,2.056-3.495,7.509,0.804,7.893 c3.505,0.312,5.967-2.747,7.204-5.672c-0.732-0.065-1.465-0.129-2.197-0.194c-1.509,4.005,4.471,3.722,6.672,2.639 c2.461-1.211,4.545-3.389,6.578-5.188c2.236-1.978,6.989-7.035,7.689-1.532c0.688-0.314,1.375-0.629,2.063-0.944 c-3.914-1.913-9.503-2.283-9.947,3.234c-0.523,6.488,11.667-0.713,13.207-1.532c8.001-4.253,16.301-6.745,23.646-12.223 c5.424-4.044,13.876-10.746,14.111-18.218c0.302-9.598-25.258-6.515-24.424,2.687c0.425,4.68,5.801,6.231,3.297,11.365 c-2.245,4.603-6.49,8.655-9.808,12.497c-2.933,3.396-5.895,6.777-8.571,10.381c-1.079,1.452-3.159,3.83-2.663,5.835 c0.707,2.854,8.3,0.064,9.575-0.395c4.393-1.58,9.933-4.391,11.53-9.116c0.338-0.998-1.928-0.664-2.268,0.01 c-3.537,7.013,1.382,9.833,8.031,9.576c1.591-0.061,4.755-0.814,5.142-2.756c0.508-2.545-2.202-3.591,2.995-5.001 c2.387-0.647,4.528-1.769,6.691-2.949c0.972-0.53,1.941-1.051,2.934-1.54c-0.026,0.247-0.053,0.493-0.078,0.74 c-0.546,0.057-1.091,0.12-1.636,0.188c-1.453,0.174-2.799,0.594-4.103,1.249c-2.13,1.069-4.823,4.812-3.643,7.245 c0.757,1.56,3.438,0.456,4.439-0.138c2.503-1.484,3.621-3.017,4.665-5.491c-0.752,0.071-1.505,0.142-2.258,0.213 c0.781,1.952,1.774,5.296,4.663,3.866c1.392-0.688,2.523-1.774,3.675-2.798c0.913-0.813,5.827-5.983,6.046-2.494 c0.05,0.793,1.573,0.418,1.912,0.158c3.279-2.528,7.692-0.273,10.594,1.662c0.777,0.519,2.856-0.566,1.807-1.267 c-3.969-2.647-9.635-4.624-13.906-1.332c0.638,0.053,1.274,0.105,1.912,0.158c-0.218-3.477-2.912-3.046-5.286-1.625 c-1.828,1.094-3.417,2.738-4.992,4.155c-2.628,2.365-2.932,1.828-4.105-1.104c-0.334-0.834-1.954-0.506-2.258,0.213 c-0.19,0.452-3.946,6.527-4.784,4.8c-1.524-3.142,3.921-5.735,6.223-6.011c0.914-0.109,1.9-0.151,2.768-0.493 c2.633-1.037,2.363-4.782-0.813-3.802c-2.85,0.879-5.373,2.609-8.033,3.924c-2.063,1.02-6.316,1.154-7.492,3.649 c-0.346,0.733-0.487,1.251-0.476,2.076c0.04,2.764-2.193,3.044-4.809,2.924c-5.153-0.237-5.454-4.178-3.627-7.801 c-0.756,0.003-1.512,0.007-2.268,0.01c-1.412,4.175-6.858,6.476-10.663,7.844c-2.792,1.004-7.102,2.003-4.781-1.938 c3.41-5.794,8.591-10.773,12.937-15.86c2.902-3.398,9.039-9.033,7.862-13.952c-0.646-2.698-3.28-4.719-4.059-7.496 c-0.917-3.271,5.243-4.961,7.296-5.483c5.44-1.383,14.913-0.714,11.658,7.116c-2.728,6.561-9.775,11.801-15.404,15.697 c-5.578,3.859-12.021,5.544-17.989,8.647c-3.152,1.639-6.244,3.529-9.604,4.725c-3.624,1.29-2.979-4.489,1.055-3.585 c0.773,0.173,1.559,0.475,2.271,0.822c0.668,0.327,2.188,0.044,2.063-0.944c-0.472-3.711-2.962-4.795-6.173-2.906 c-2.38,1.4-4.418,3.299-6.478,5.12c-1.285,1.137-2.579,2.252-3.962,3.27c-1.096,0.807-5.38,1.886-4.448-0.587 c0.454-1.205-1.836-1.048-2.197-0.194c-0.509,1.204-1.188,2.246-2.031,3.252c-1.073-0.431-2.146-0.862-3.219-1.293 c0.139-1.004,0.467-1.937,0.982-2.799c1.213-2.43,3.853-3.597,6.294-2.346c2.474,1.268,4.603,3.606,6.318,5.77 C226.445,53.126,228.664,52.252,227.976,51.384L227.976,51.384z"/>
</svg>