<?xml version="1.0" encoding="UTF-8" standalone="no"?>
<!-- Created with Inkscape (http://www.inkscape.org/) -->

<svg
   xmlns:dc="http://purl.org/dc/elements/1.1/"
   xmlns:cc="http://creativecommons.org/ns#"
   xmlns:rdf="http://www.w3.org/1999/02/22-rdf-syntax-ns#"
   xmlns:svg="http://www.w3.org/2000/svg"
   xmlns="http://www.w3.org/2000/svg"
   xmlns:sodipodi="http://sodipodi.sourceforge.net/DTD/sodipodi-0.dtd"
   xmlns:inkscape="http://www.inkscape.org/namespaces/inkscape"
   id="svg3039"
   version="1.1"
   inkscape:version="0.48.4 r9939"
   width="700"
   height="256"
   sodipodi:docname="Griffiths-signature.jpg">
  <metadata
     id="metadata3045">
    <rdf:RDF>
      <cc:Work
         rdf:about="">
        <dc:format>image/svg+xml</dc:format>
        <dc:type
           rdf:resource="http://purl.org/dc/dcmitype/StillImage" />
        <dc:title></dc:title>
      </cc:Work>
    </rdf:RDF>
  </metadata>
  <defs
     id="defs3043" />
  <sodipodi:namedview
     pagecolor="#ffffff"
     bordercolor="#666666"
     borderopacity="1"
     objecttolerance="10"
     gridtolerance="10"
     guidetolerance="10"
     inkscape:pageopacity="0"
     inkscape:pageshadow="2"
     inkscape:window-width="1366"
     inkscape:window-height="719"
     id="namedview3041"
     showgrid="false"
     inkscape:zoom="0.61417275"
     inkscape:cx="-247.91303"
     inkscape:cy="322.57427"
     inkscape:window-x="0"
     inkscape:window-y="25"
     inkscape:window-maximized="1"
     inkscape:current-layer="svg3039" />
  <path
     style="fill:#000000"
     d="m 399.52717,241.7466 c -6.14709,-1.90927 -10.58225,-9.05943 -10.62059,-17.12202 -0.0836,-17.5839 11.58596,-55.8856 26.06377,-85.54621 3.80285,-7.79086 6.91427,-15.08648 6.91427,-16.21248 0,-1.126 -0.96765,-4.63355 -2.15033,-7.79455 -2.37191,-6.3395 -2.96723,-5.93667 -4.26715,2.88741 -0.53337,3.62062 -1.70179,5.82587 -5.03341,9.5 l -4.33879,4.78484 -6.91534,-0.13284 c -8.17491,-0.15703 -12.47172,-2.03151 -22.79498,-9.94428 -8.66007,-6.63793 -15.92989,-14.07753 -21.42259,-21.92288 -6.62109,-9.457068 -8.28901,-13.924518 -8.83084,-23.653068 -0.42822,-7.68856 -0.20522,-9.25751 2.00066,-14.07577 3.64653,-7.96509 12.39776,-16.05105 22.70633,-20.9802 7.93918,-3.7962 8.84345,-4.00575 14.86113,-3.44381 9.57627,0.89425 19.01298,5.61928 25.7451,12.89076 3.00157,3.24206 6.17306,7.27858 7.04774,8.97003 2.01973,3.90573 6.34382,18.55921 6.37149,21.59172 0.0115,1.26481 0.73427,3.67901 1.60608,5.3649 2.13656,4.13165 0.73738,5.51474 -4.31611,4.26644 l -3.76899,-0.931 -0.67381,-9 c -1.75612,-23.45639 -13.45893,-37.02231 -32.82619,-38.05217 -2.99349,-0.15918 -6.50868,0.60219 -10.5,2.27423 -13.16064,5.51325 -14.78718,6.80711 -20.25926,16.11566 -2.42066,4.11778 -2.73585,5.65497 -2.69884,13.16228 0.0374,7.59799 0.38928,9.17399 3.31554,14.85132 4.13591,8.02424 21.02385,26.568378 29.11762,31.973188 6.55673,4.37841 14.07677,6.52319 18.61738,5.30983 3.73133,-0.99711 8.46516,-8.46579 9.13554,-14.41335 0.53574,-4.75303 -2.73057,-18.458908 -5.25946,-22.069398 -3.47316,-4.95863 0.17636,-7.95546 4.14243,-3.40159 4.34621,4.99034 11.41514,16.585618 13.41205,21.999998 1.16639,3.1625 2.56705,5.75 3.11258,5.75 0.54554,0 1.97571,-2.23392 3.17815,-4.96427 2.66263,-6.04593 4.16104,-6.8114 6.3689,-3.25358 0.92763,1.49482 2.5906,3.73954 3.69549,4.98828 1.7628,1.99229 1.86268,2.67474 0.81538,5.57099 -1.79839,4.97336 -1.45917,7.30445 1.38896,9.54478 3.63001,2.85537 5.95528,3.41021 11.07455,2.64253 5.54048,-0.83085 6.30727,-2.59403 2.89283,-6.65187 -2.64831,-3.14734 -3.08484,-6.87967 -0.88912,-7.6021 0.63839,-0.21005 2.61154,1.03632 4.38477,2.76971 2.6772,2.61704 3.75247,3.04864 6.33929,2.54448 5.28635,-1.03028 10.9414,-5.66369 11.72627,-9.6078 1.23151,-6.18853 1.81441,-37.753918 0.81211,-43.977628 -1.24302,-7.71848 0.0174,-10.94697 3.40096,-8.71142 3.44536,2.27637 9.55584,23.10916 9.62314,32.80867 0.0587,8.46667 -0.98607,12.304598 -5.13028,18.845008 -1.97482,3.11668 -2.81698,5.74459 -2.81698,8.79023 0,7.32857 -4.9326,57.71305 -7.51513,76.76399 -1.34203,9.9 -2.56265,20.25 -2.71247,23 -0.23045,4.23008 -0.59927,5.04664 -2.39512,5.30287 -1.26376,0.18032 -2.38086,-0.36981 -2.76064,-1.35951 -0.62058,-1.6172 1.51741,-23.38168 3.38348,-34.44336 0.51031,-3.025 1.62872,-13.825 2.48537,-24 0.85665,-10.175 1.99786,-22.08819 2.53603,-26.47377 1.07787,-8.78367 1.28058,-16.52623 0.43267,-16.52623 -0.30019,0 -2.65911,1.125 -5.24204,2.5 -2.58293,1.375 -5.82482,2.49998 -7.20419,2.49996 -1.66255,-3e-5 -3.54783,1.23852 -5.5928,3.67424 -2.80718,3.34357 -3.61725,3.70857 -9,4.05519 -9.63723,0.62057 -15.79399,-4.62419 -15.6622,-13.34215 0.0555,-3.66973 -0.17889,-4.27864 -1.29144,-3.35531 -4.02102,3.33716 -4.17817,12.91787 -0.58996,35.96807 1.30664,8.39365 3.12844,34.81395 3.12844,45.36945 0,14.63925 -4.11098,25.27325 -13.84595,35.81574 -5.33943,5.78233 -7.68786,6.97428 -16.15405,8.19901 -1.925,0.27848 -4.78585,0.10694 -6.35745,-0.38119 z m 14.53479,-7.12928 c 1.49437,-1.06409 4.93927,-4.428 7.65533,-7.47535 8.49479,-9.53094 10.05966,-18.36005 8.24799,-46.53572 -1.78614,-27.77872 -4.42837,-46.21075 -6.53395,-45.58048 -3.80923,1.14022 -22.21408,49.01663 -24.49467,63.71782 -0.55459,3.575 -1.66931,9.75542 -2.47716,13.73427 -2.13338,10.50741 -0.22418,21.55708 4.18738,24.23487 2.403,1.4586 10.11581,0.25387 13.41508,-2.09541 z M 487.87097,95.802462 c -0.008,-1.40738 -0.29495,-3.60942 -0.63874,-4.89341 -1.00931,-3.76951 -2.31933,-0.44703 -2.30049,5.83454 0.0151,5.052238 0.13601,5.341968 1.48468,3.558868 0.80751,-1.067618 1.46206,-3.092618 1.45455,-4.499998 z M 303.61121,197.83051 c -2.83635,-3.37081 -9.92665,-21.05842 -12.96267,-32.33692 -1.19177,-4.42732 -2.62279,-7.75 -3.33777,-7.75 -0.68837,0 -3.63634,1.57055 -6.55104,3.49011 -7.32371,4.82323 -13.88839,6.83938 -20.48751,6.29213 -8.69309,-0.7209 -12.3688,-5.77622 -12.38202,-17.02936 -0.005,-4.04111 0.52457,-5.33393 3.55908,-8.69277 1.96057,-2.17012 5.87392,-5.09641 8.69635,-6.50289 8.29666,-4.1344 11.75044,-3.13503 11.72534,3.39278 -0.0322,8.38153 -2.20743,10.13783 -6.21451,5.01773 -2.35509,-3.00926 -2.40091,-3.02066 -6.03641,-1.50165 -4.38439,1.83191 -5.73543,4.05116 -5.73543,9.42113 0,8.15295 3.71621,11.74303 11.27383,10.89117 5.55575,-0.62621 15.08727,-6.14367 19.03113,-11.01645 l 3.02261,-3.73453 -1.21415,-11.7637 c -2.48967,-24.12209 -3.76053,-29.80016 -11.54278,-51.572268 -3.58953,-10.04228 -4.35392,-13.22787 -3.5393,-14.75 1.41076,-2.63603 5.52956,-2.47144 8.33402,0.33302 6.36111,6.36111 16.31736,28.92641 19.19669,43.508258 2.14035,10.83939 1.45752,17.33064 -2.99314,28.45392 -3.09932,7.74596 -2.96646,10.72805 1.10328,24.76337 1.35558,4.675 3.25882,11.65 4.22942,15.5 0.97059,3.85 2.96479,9.34754 4.43155,12.21676 1.46676,2.86921 2.66684,5.45671 2.66684,5.75 0,1.39637 -2.06234,0.24786 -4.27341,-2.37984 z m -9.07816,-71.38635 c 0.6364,-6.70343 -4.02298,-25.04311 -9.19712,-36.200568 -3.99668,-8.61839 -5.97817,-8.77577 -2.58886,-0.20562 3.77213,9.53814 6.98585,23.105278 7.62871,32.205618 0.34968,4.95 0.88581,9.8608 1.1914,10.91289 0.51275,1.76532 0.62954,1.7808 1.51388,0.20057 0.52705,-0.94178 1.18045,-4.05258 1.45199,-6.91289 z M 111.38462,199.08409 C 78.790333,195.17461 56.615243,185.6654 39.489563,168.25377 c -7.5387,-7.66458 -10.45472,-12.78134 -8.57488,-15.0464 1.82134,-2.19458 7.79894,-3.71607 11.78511,-2.99968 14.24299,2.55971 40.18483,10.03495 40.18483,11.57941 0,1.45177 -1.54929,1.23795 -18.42995,-2.54351 -18.80631,-4.21283 -25.61115,-4.51726 -25.549,-1.14301 0.0464,2.52185 11.86152,13.53809 18.90402,17.62587 10.99365,6.38123 24.7731,12.63585 31.57493,14.33217 9.11784,2.27391 25.832237,4.89148 28.846237,4.51748 l 2.67959,-0.33251 -3.47181,-4.86821 c -7.11642,-9.97871 -8.35517,-17.91056 -8.03946,-51.47725 0.21493,-22.85231 0.46492,-26.56259 1.88538,-27.98305 1.25893,-1.25893 2.0379,-1.38516 3.36882,-0.54592 2.25832,1.42403 3.58744,10.42611 2.25248,15.25592 -1.70476,6.16774 -2.46691,40.77967 -1.04855,47.61851 1.53632,7.4076 5.39629,15.52127 9.04882,19.0206 5.60177,5.36685 15.26224,4.22837 21.35609,-2.51679 4.39815,-4.86823 6.6224,-12.16579 6.6224,-21.72747 0,-31.86273 -23.0842,-63.92442 -56.651217,-78.682978 -17.7718,-7.81381 -22.01544,-8.95794 -33.84878,-9.12606 -11.94054,-0.16963 -22.16597,-2.34587 -24.25,-5.16103 -1.61804,-2.18568 -1.57595,-2.79087 0.30246,-4.34982 1.25916,-1.045 3.38461,-1.05397 11.25,-0.0475 17.92055,2.29326 37.5132,8.26336 53.697537,16.36223 19.1585,9.58719 37.05424,27.480648 46.14115,46.135248 2.38615,4.89856 4.57274,9.14075 4.85908,9.4271 0.28635,0.28634 1.77643,-0.6825 3.31129,-2.15299 3.58476,-3.43442 26.01503,-14.4693 31.04684,-15.27392 5.10602,-0.81649 5.99909,1.34053 2.65021,6.40103 -3.76034,5.68226 -6.79869,15.92599 -6.22731,20.99525 0.83773,7.4324 7.52201,12.0233 15.87455,10.90299 7.01332,-0.94069 7.19678,-1.63798 3.29949,-12.54103 -4.76167,-13.32129 -4.42802,-17.34272 1.13642,-13.69676 4.05893,2.65951 6.56561,7.51782 5.87586,11.38829 -0.69365,3.8924 3.44542,13.51247 6.28214,14.60102 4.44567,1.70597 5.18216,-6.53357 1.73922,-19.45745 -2.04511,-7.67682 -1.90154,-10.70882 0.56971,-12.03139 4.73356,-2.53332 13.96993,3.3168 17.81568,11.28406 1.74631,3.61785 1.89338,4.86201 0.99232,8.39474 -1.34722,5.28192 0.7453,10.14288 6.28138,14.59179 2.11858,1.70254 3.85197,3.47022 3.85197,3.92816 0,1.68886 -4.64293,0.75979 -8.16567,-1.63397 -6.26149,-4.25479 -9.55065,-11.54892 -7.86234,-17.43571 1.06455,-3.71189 0.0979,-7.0278 -2.93206,-10.05775 -3.85525,-3.85525 -4.32675,-2.74297 -3.56635,8.41316 1.02904,15.09734 -0.85419,19.54691 -8.27298,19.54691 -1.61199,0 -4.07228,-0.89783 -5.46733,-1.99517 -2.52823,-1.98871 -2.55052,-1.98878 -6.88486,-0.022 -4.86284,2.20664 -10.97292,2.56689 -15.68369,0.92471 -2.85924,-0.99674 -3.40125,-0.82489 -6.18813,1.96198 -5.31303,5.31303 -12.63121,5.33645 -19.91002,0.0637 -2.22709,-1.61325 -4.40953,-2.93322 -4.84988,-2.93322 -0.44035,0 -1.53078,3.86754 -2.42319,8.59454 -3.53203,18.70879 -13.10491,25.68022 -34.67999,25.25563 -4.18743,-0.0824 -8.96351,-0.31176 -10.61351,-0.50967 z m 66.92857,-33.91193 c 1.94208,-1.94208 1.95046,-2.86126 0.0822,-9.01964 -1.85502,-6.11493 -1.9111,-10.28156 -0.16594,-12.33019 0.73968,-0.86831 2.08603,-3.49124 2.9919,-5.82874 l 1.64703,-4.25 -2.35114,0 c -2.34576,0 -11.22858,4.26602 -17.37895,8.34634 -4.74563,3.14837 -5.88231,7.44419 -3.43418,12.97861 3.72194,8.41405 14.46548,14.24717 18.60903,10.10362 z m 321.57143,-5.2461 c 0,-0.44964 1.54701,-6.86214 3.4378,-14.25 6.86738,-26.83284 8.0244,-39.38978 6.16727,-66.932468 -1.17207,-17.3826 -1.91877,-22.93631 -3.89909,-29 -2.85874,-8.75341 -2.51533,-10.43972 2.8971,-14.22635 9.15296,-6.40357 22.46463,-8.88284 36.83133,-6.85978 5.05299,0.71154 8.28203,0.76969 8.8916,0.16012 0.60957,-0.60958 0.51931,-3.18284 -0.24856,-7.08584 -1.34814,-6.85248 -0.41657,-9.32532 3.31001,-8.78641 2.99577,0.43322 4.581,4.42337 4.5978,11.57301 0.0138,5.86933 0.18679,6.34016 2.67758,7.28716 3.73741,1.42096 4.61952,0.0375 3.28554,-5.15272 -2.7167,-10.5701 -2.27933,-12.71141 2.35846,-11.5467 3.65395,0.91764 5.81143,6.29341 5.53462,13.79056 -0.22009,5.96105 0.026,6.89976 2.61179,9.964 2.68043,3.17636 2.73206,3.4013 0.84545,3.68354 -1.91267,0.28613 -2.03547,1.24804 -2.55317,20 -0.33725,12.21569 -0.17188,20.15484 0.4353,20.89825 0.98458,1.20549 2.29312,1.68153 13.31917,4.84542 3.3,0.94692 9.9631,3.01184 14.8069,4.58871 10.42541,3.39392 13.04139,3.5174 18.8339,0.88899 6.40962,-2.90844 15.83515,-2.69312 24.49014,0.55945 19.69933,7.403078 35.49627,19.513868 28.80333,22.082188 -1.68116,0.64512 -4.6647,0.004 -23.43427,-5.03786 -24.97424,-6.70818 -30.98284,-7.95459 -33.28662,-6.90492 -3.31327,1.50963 -10.24624,12.16044 -12.12707,18.63029 -3.68525,12.67682 -12.67418,8.90215 -21.57463,-9.0597 -4.50547,-9.09242 -5.60185,-9.4992 -7.06665,-2.62184 -2.44267,11.46845 -4.86552,20.27801 -6.5503,23.81704 -1.96587,4.12946 -5.02266,5.7081 -6.50959,3.36178 -1.28504,-2.02775 -0.98817,-12.31605 0.94109,-32.61374 0.95485,-10.045948 1.40063,-18.864788 0.99063,-19.597418 -0.41,-0.73264 -3.53688,-2.58478 -6.94862,-4.11588 -5.4942,-2.46565 -6.33264,-2.60674 -7.33606,-1.23448 -0.62309,0.85213 -2.56181,7.77368 -4.30826,15.38122 -1.74646,7.607548 -5.21378,22.739798 -7.70516,33.627218 -4.77519,20.86775 -6.65637,26.70469 -8.60662,26.70469 -2.05576,0 -0.47107,-9.84788 6.99186,-43.4503 3.9028,-17.572668 7.096,-32.966868 7.096,-34.209338 0,-1.78601 -1.41341,-2.97196 -6.75,-5.6637 -3.7125,-1.87256 -9,-4.78697 -11.75,-6.47648 -2.75,-1.68951 -6.94783,-4.26538 -9.32851,-5.72417 -2.38067,-1.45878 -4.59382,-2.38702 -4.91809,-2.06275 -0.32427,0.32428 -0.0254,11.05145 0.66414,23.83816 l 1.25373,23.248578 2.96548,3.75497 c 5.80918,7.35573 8.59487,17.46279 5.95974,21.62315 -1.31215,2.07163 -3.09649,0.39188 -3.09649,-2.91498 0,-3.49623 -4.93205,-13.96314 -6.57949,-13.96314 -0.64522,0 -1.46774,2.2984 -1.84779,5.16335 -0.81446,6.13972 -6.98645,30.55101 -9.25033,36.58665 -1.09149,2.90999 -2.18186,4.25 -3.45825,4.25 -1.02528,0 -1.86414,-0.36789 -1.86414,-0.81753 z M 603.75004,120.9326 c 1.10088,-1.54605 2.31323,-4.13355 2.6941,-5.75 0.38088,-1.61646 2.03956,-5.33775 3.68596,-8.26954 1.69059,-3.01048 2.61503,-5.70546 2.12399,-6.19195 -1.35861,-1.346018 -18.99908,-7.862888 -26.81788,-9.907238 -4.31959,-1.12944 -7.67478,-1.51592 -8.66011,-0.99756 -1.64864,0.86731 -2.93104,7.09405 -2.84559,13.816848 0.0457,3.59775 0.0557,3.58936 2.83192,-2.38957 1.53232,-3.299998 3.58821,-6.660378 4.56865,-7.467508 1.60646,-1.32248 2.01834,-1.19345 4.16808,1.30577 1.312,1.52529 2.38546,3.80057 2.38546,5.056158 0,2.92273 9.39679,22.20947 11.16443,22.91478 2.30181,0.91845 2.64868,0.76201 4.70099,-2.12019 z m 53.56455,-15.0757 c 0.82524,-1.33527 -1.1951,-2.52826 -9.23718,-5.45448 -4.83819,-1.760438 -9.31521,-2.658828 -13.25,-2.658828 -6.11874,0 -7.73138,1.30015 -3.69279,2.977208 2.0345,0.84484 19.6763,5.02296 24.94098,5.90679 0.38004,0.0638 0.93759,-0.28301 1.23899,-0.77069 z M 570.42971,72.044552 c 0.69955,-8.39806 -0.0666,-29.89038 -1.16778,-32.76008 -0.67922,-1.77002 -6.46938,-3.84881 -7.59237,-2.72582 -0.46273,0.46272 -1.52906,6.43113 -2.36964,13.26313 -0.84058,6.83199 -1.94189,14.22181 -2.44737,16.42181 -1.87431,8.15769 -1.53617,8.99258 4.78207,11.80703 3.1625,1.40873 6.2721,2.59095 6.91023,2.62715 0.74469,0.0422 1.41976,-3.04975 1.88486,-8.63322 z m -20.18135,-2.05096 c 1.88148,-6.60474 2.94412,-15.27544 3.03303,-24.74827 l 0.10323,-10.99826 -6,-0.91439 c -7.74479,-1.18028 -25.04814,0.6751 -31.04818,3.3292 -2.63419,1.16523 -4.91987,3.01486 -5.61738,4.54572 -1.07539,2.36023 -0.8619,2.86883 2.49477,5.94342 2.01893,1.84927 3.67079,4.09207 3.67079,4.984 0,1.77213 9.78396,8.4092 22.5,15.26315 8.93971,4.81851 10.14821,5.10723 10.86374,2.59543 z m -352.36374,6.75 c -6.25509,-6.2551 -5.04515,-8.96977 4,-8.97454 4.77083,-0.002 18.59002,3.47589 21.57224,5.42991 2.92867,1.91894 3.06489,3.13328 0.50514,4.50321 -1.44954,0.77577 -3.72561,0.41705 -9.25,-1.45784 -4.03006,-1.36774 -8.39163,-2.48994 -9.69239,-2.49377 -2.28403,-0.007 -2.30971,0.0774 -0.75,2.45784 3.85853,5.88886 -0.65315,6.26703 -6.38499,0.53519 z"
     id="path3058"
     inkscape:connector-curvature="0" />
</svg>
