<?xml version="1.0" encoding="UTF-8"?>
<svg version="1.0" xmlns="http://www.w3.org/2000/svg" width="420" height="90" >
<path d="M26.732,4.156c-5.204-1.542-10.652,4.947-13.28,8.277c-5.064,6.418-8.047,14.52-10.171,22.33 c-1.025,3.77-3.63,12.144-0.379,15.577c4.097,4.329,11.52-4.817,13.717-7.222c-0.487-0.129-0.975-0.258-1.462-0.387 c0.946,3.672,0.343,8.11,0.153,11.816c-0.307,6.002-0.968,11.986-1.685,17.951c-0.284,2.361-0.656,5.134,0.428,7.358 C17.2,86.317,30.726,64.535,31.9,62.668c1.579-2.51,2.995-5.129,4.591-7.625c1.13-1.767,1.7,2.469,1.829,3.147 c1.03,5.428,0.32,11.024,1.36,16.439c0.884,4.605,4.341,3.834,6.671,0.746c3.594-4.764,6.042-10.49,8.246-16.006 c0.084-0.212,0.167-0.424,0.247-0.638c0.306-0.802-0.92-1.524-1.462-0.852c-2.721,3.375-5.634,8.953-3.097,13.163 c1.993,3.307,6.542,1.705,8.603-0.485c5.781-6.145,0.851-22.703-8.387-22.934c-1.129-0.028-1.126,1.722,0,1.75 c6.389,0.159,8.622,9.033,8.887,13.918c0.19,3.503-1.91,8.688-6.256,7.754c-4.993-1.073-0.324-9.681,1.488-11.928 c-0.487-0.284-0.975-0.568-1.462-0.852c-1.905,4.995-4.214,9.958-7.079,14.476c-1.752,2.763-3.985,5.196-4.87,0.59 c-0.978-5.093-0.386-10.455-1.2-15.607c-0.252-1.594-1.419-6.6-4.102-4.591c-1.18,0.884-1.902,2.703-2.622,3.913 c-2.684,4.514-5.505,8.951-8.542,13.236c-0.84,1.186-8.491,11.778-9.479,7.785c-0.961-3.883,0.513-8.854,0.917-12.69 c0.515-4.895,0.896-9.809,1.039-14.729c0.078-2.68,0.305-5.743-0.375-8.383c-0.16-0.619-1.018-0.873-1.462-0.387 c-1.697,1.857-10.375,11.938-11.859,5.593c-1.163-4.97,1.051-11.195,2.508-15.886c1.633-5.259,3.761-10.489,6.726-15.146 c2.12-3.329,8.204-12.171,13.512-10.598C27.352,6.165,27.812,4.477,26.732,4.156L26.732,4.156z"/>
<path d="M85.625,15.5c-1.838,13.726-3.769,28.09-2.731,41.94c0.189,2.527,1.261,10.58,5.568,7.062 c2.891-2.361,4.578-6.369,6.155-9.631c4-8.277,7.133-16.995,10.227-25.639c-0.573-0.077-1.146-0.155-1.719-0.232 c0.846,8.043,0.929,16.358-0.314,24.355c-1.223,7.863-4.765,15.887-0.566,23.586c0.54,0.991,2.051,0.108,1.511-0.883 c-4.329-7.939,0.088-16.968,1.152-25.119c0.939-7.197,0.726-14.728-0.033-21.939c-0.103-0.981-1.375-1.192-1.719-0.232 c-2.842,7.939-5.775,15.862-9.266,23.544c-1.6,3.521-3.303,7.435-5.961,10.312c-3.505,3.793-3.471-9.052-3.479-10.575 c-0.065-12.183,1.31-24.482,2.925-36.548C87.524,14.384,85.772,14.398,85.625,15.5L85.625,15.5z"/>
<path d="M122.245,51.059c-1.92,3.844-3.8,7.736-5.372,11.738c-0.42,1.071-1.56,3.253-0.334,4.165 c1.396,1.038,3.692-2.816,4.216-3.521c0.675-0.906-0.845-1.776-1.511-0.883c-0.66,0.885-1.325,1.773-2.102,2.56 c-0.518,0.524,0.487,1.109,0.701,0.244c0.421-1.703,1.207-3.349,1.91-4.947c1.257-2.858,2.606-5.68,4.001-8.474 C124.258,50.936,122.749,50.049,122.245,51.059L122.245,51.059z"/>
<path d="M133.768,21.344c-0.467-0.18-0.026,0.104,0.219,0.61c0.783,1.614,1,3.614,1.234,5.363 c1.501,11.233,0.595,22.933-0.095,34.183c-0.065,1.063,1.379,1.082,1.719,0.232c6.192-15.51,12.054-31.444,15.818-47.732 c0.149-0.647,2.673-8.867-0.445-8.157c-2.384,0.542-3.923,6.792-4.59,8.622c-2.099,5.751-3.618,11.8-4.168,17.904 c-0.348,3.861-0.382,9.698,3.19,12.257c4.145,2.969,11.353-0.766,11.133,6.907c-0.205,7.18-6.945,13.923-13.264,16.304 c-6.178,2.328-12.478-0.063-17.399-3.956c-0.875-0.691-2.122,0.538-1.237,1.238c5.842,4.621,12.698,6.818,19.891,4.108 c5.458-2.057,10.158-6.964,12.388-12.307c1.605-3.847,2.454-8.895-1.349-11.715c-1.876-1.391-4.337-1.02-6.496-1.063 c-3.042-0.062-4.378-2.796-4.928-5.384c-1.301-6.124,0.66-13.146,2.354-19.003c0.764-2.642,1.676-5.242,2.714-7.788 c0.412-1.012,0.875-2.001,1.378-2.97c0.167-0.318,0.351-0.627,0.539-0.933c0.753-1.224-0.031,0.323-0.396-0.839 c0.725,2.303-1.021,6.438-1.544,8.611c-1.326,5.502-3.009,10.919-4.747,16.302c-2.825,8.748-5.98,17.395-9.291,25.969 c-0.407,1.056-0.818,2.108-1.237,3.159c0.573,0.077,1.146,0.155,1.719,0.232c0.728-11.858,1.71-24.248-0.176-36.061 c-0.248-1.553-0.619-5.074-2.467-5.783C133.177,19.251,132.725,20.943,133.768,21.344L133.768,21.344z"/>
<path d="M155.625,44.5c-0.227,6.031,0.409,16.879,7.05,19.54c6.038,2.42,12.403-3.015,16.581-6.689 c3.338-2.935,5.789-5.871,10.766-5.089c3.545,0.557,4.813,4.151,6.885,6.524c1.689,1.937,3.476,3.377,5.78,4.521 c9.008,4.468,17.134-2.265,25.866-3.228c7.72-0.852,15.604,0.48,23.341,0.483c3.894,0.002,11.176-0.036,12.768-4.681 c1.766-5.152-2.607-12.213-7.064-14.576c-9.069-4.81-20.378,10.56-16.333,18.592c2.687,5.335,11.89,3.031,15.932,1.248 c9.178-4.049,16.351-11.624,20.956-20.435c3.782-7.235,6.241-17.879,2.813-25.701c-2.067-4.716-5.726,0.171-6.683,2.695 c-3.513,9.264-0.401,20.706,3.304,29.333c2.822,6.571,8.595,16.8,17.286,14.744c6.162-1.458,9.62-9.175,10.947-14.661 c1.394-5.76-0.713-9.542-2.972-14.6c-0.856-1.919-2.385-6.439-5.301-5.508c-1.465,0.468-2.372,2.275-3.039,3.508 c-2.163,4-3.452,8.547-4.807,12.858c-1.562,4.973-6.971,17.193-2.707,22.364c2.774,3.363,7.621,0.106,10.177-1.838 c5.209-3.964,9.501-9.5,12.556-15.253c3.249-6.12,2.023-12.299,3.665-18.806c0.314-1.247,0.757-2.472,1.429-3.571 c0.547-0.895,0.668,2.533,0.689,3.167c0.184,5.378-0.942,10.74-1.475,16.072c-0.543,5.438-0.996,11.981,1.986,16.855 c2.482,4.058,7.409,4.368,11.65,3.769c10.903-1.542,21.531-8.403,30.771-13.884c0.976-0.579,0.116-2.026-0.883-1.512 c-4.105,2.118-8.505,4.762-11.295,8.519c-4.081,5.496,4.677,7.505,8.337,7.93c5.149,0.597,41.037,0.33,31.625-12.578 c-4.84-6.637-17.2-9.991-19.757,0.216c-2.474,9.877,8.047,12.944,15.588,10.989c12.656-3.28,26.91-14.216,31.937-26.639 c2.657-6.566,3.376-15.079-1.436-20.878c-4.206-5.069-10.386-2.741-13.878,1.767c-8.83,11.397-8.837,29.788-8.94,43.361 c-0.037,4.858,0.139,9.718,0.386,14.569c0.058,1.123,1.808,1.128,1.75,0c-0.608-11.942-0.673-23.984,1.04-35.845 c0.955-6.612,2.515-13.491,5.963-19.288c3.785-6.362,11.009-8.02,14.245-0.299c3.854,9.194-1.434,19.661-7.629,26.363 c-5.262,5.691-32.22,26.387-37.217,10.551c-1.237-3.92,0.843-8.623,4.991-9.526c3.44-0.75,7.083,1.805,9.597,3.757 c4.427,3.44,3.086,6.837-1.456,8.991c-8.794,4.169-21.771,4.323-31.042,1.911c-9.095-2.367,4.738-10.639,8.074-12.359 c-0.294-0.504-0.589-1.008-0.883-1.512c-9.524,5.65-20.376,12.674-31.669,13.868c-7.075,0.749-9.883-4.183-10.356-10.521 c-0.659-8.819,2.27-17.488,1.641-26.296c-0.234-3.279-2.48-5.106-4.32-1.597c-3.003,5.731-1.168,12.315-3.156,18.209 c-2.3,6.818-7.565,13.092-13.002,17.656c-1.822,1.529-4.712,3.788-7.272,3.308c-3.519-0.661-1.489-8.778-1.097-10.657 c1.236-5.924,3.244-11.8,5.261-17.499c0.567-1.604,2.326-8.284,4.672-8.591c1.755-0.23,5.378,9.392,5.895,10.762 c2.583,6.854-2.946,18.408-9.747,20.709c-5.771,1.952-10.374-4.95-12.797-8.985c-4.09-6.808-6.438-14.803-6.882-22.71 c-0.231-4.129,0.132-8.907,2.346-12.515c1.489-2.426,2.599,0.385,2.989,1.847c0.804,3.011,0.647,6.374,0.392,9.445 c-1.036,12.432-9.683,23.956-20.038,30.373c-5.847,3.622-21.107,7.339-17.739-4.502c1.842-6.473,9.907-14.57,16.361-8.558 c2.472,2.304,5.448,7.753,3.803,11.177c-1.408,2.93-6.534,2.986-9.214,3.11c-9.785,0.451-20.813-2.721-30.278,0.635 c-8.387,2.972-17.056,6.317-24.377-0.914c-2.691-2.658-3.67-5.87-7.286-7.539c-1.963-0.907-4.241-0.652-6.256-0.117 c-6.928,1.839-17.619,19.183-24.842,9.207c-3.009-4.157-3.4-10.569-3.212-15.549C157.417,43.371,155.667,43.375,155.625,44.5 L155.625,44.5z"/>
</svg>