<?xml version="1.0" encoding="UTF-8"?>
<svg version="1.0" xmlns="http://www.w3.org/2000/svg" width="453" height="101" >
<path fill="#231F20" d="M34.799,37.658c8.984-3.34,15.309-13.359,19.087-21.536c0.688-1.489,3.293-7.045,0.63-8.226 c-2.722-1.206-5.748,1.8-7.569,3.443c-5.213,4.702-9.114,10.997-12.362,17.14c-2.167,4.099-5.777,10.597-3.822,15.388 c3.022,7.403,15.767-2.938,18.525-5.526c-0.458-0.354-0.916-0.707-1.374-1.061C34.94,55.586,23.906,76.571,18.054,98.268 c0.563,0,1.125,0,1.688,0c-1.359-9.188-3.191-18.339-5.485-27.338c-1.86-7.296-4.111-19.576-11.649-23.441 c-0.526-0.27-1.399,0.048-1.316,0.755c0.32,2.734,9.158,5.202,11.199,5.938c10.733,3.873,22.405,4.098,33.278,0.712 c1.074-0.334,0.615-2.024-0.465-1.688c-9.651,3.005-19.443,2.978-29.158,0.304c-3.332-0.917-6.56-2.223-9.652-3.756 c-0.886-0.439-1.75-0.922-2.603-1.422c-0.816-0.479-0.962-1.049-0.849-0.089c-0.439,0.252-0.878,0.504-1.317,0.756 c3.01,1.543,4.616,4.605,5.977,7.545c2.63,5.683,4.174,11.929,5.65,17.988c1.942,7.975,3.502,16.08,4.704,24.2 c0.132,0.892,1.477,0.78,1.688,0C25.552,77.19,36.537,56.35,49.425,38.163c0.596-0.84-0.676-1.715-1.374-1.061 c-2.091,1.964-15.063,12.287-16.014,4.753c-0.589-4.667,2.795-10.104,4.851-13.989c2.634-4.98,5.925-9.654,9.765-13.773 c0.792-0.851,7.187-6.812,7.168-3.548c-0.025,4.471-3.855,9.672-6.188,13.23c-3.069,4.684-7.84,10.166-13.299,12.195 C33.286,36.36,33.739,38.053,34.799,37.658L34.799,37.658 M59.666,38.188C57.6,41.782,55.097,45.95,54.5,50.104c-0.261,1.817,0.585,3.325,2.602,2.84 c1.57-0.378,3.009-1.561,4.259-2.512c2.661-2.025,5.104-4.336,7.514-6.648c-0.458-0.354-0.916-0.707-1.374-1.061 c-1.267,1.776-2.353,3.91-2.532,6.107c-0.369,4.508,5.429,3.906,8.22,3.342c1.106-0.224,0.637-1.91-0.465-1.688 c-2.689,0.544-6.855,1.06-5.772-2.852c0.396-1.432,1.2-2.821,2.06-4.027c0.595-0.834-0.68-1.727-1.374-1.061 c-3.074,2.951-6.555,6.909-10.596,8.576c-0.604,0.249-0.826,0.362-0.859-0.082c-0.061-0.824,0.245-1.688,0.491-2.461 c1.055-3.316,2.773-6.497,4.503-9.508C61.74,38.09,60.227,37.209,59.666,38.188L59.666,38.188 M96.118,38.78c-5.086-2.909-11.274,2.752-11.527,7.915c-0.435,8.855,9.731-1.862,11.117-3.592 c-0.458-0.354-0.916-0.707-1.374-1.061c-4.749,9.468-9.629,18.896-14.927,28.07c-1.264,2.189-2.565,4.362-4.005,6.44 c-0.443,0.641-0.916,1.262-1.475,1.806c-0.366,0.355,0.569,0.76,0.546,0.258c-0.025-0.555,0.127-1.127,0.236-1.665 c1.489-7.318,5.014-13.9,10.033-19.382c7.076-7.727,16.293-13.535,24.939-19.313c7.89-5.271,17.026-9.917,23.237-17.3 c1.583-1.882,4.138-5.45,2.423-7.983c-1.583-2.339-5.198-0.86-7.092,0.129c-13.715,7.166-19.929,27.044-23.428,40.714 c-0.23,0.9,0.81,1.391,1.462,0.852c2.572-2.127,5.267-4.111,8.043-5.962c1.899-1.266,3.896-2.484,6.05-3.26 c3.598-1.294,1.591,3.303,0.896,4.969c-0.247,0.593,0.491,1.307,1.076,1.076c7.139-2.816,14.649-6.541,19.909-12.244 c2.847-3.088-0.425-3.596-2.938-2.315c-4.083,2.08-10.15,6.868-10.249,11.942c-0.102,5.181,4.606,7.149,9.021,5.985 c7.023-1.853,13.286-8.091,18.426-12.882c5.165-4.813,9.884-10.048,14.734-15.168c2.326-2.456,3.253-7.047,0.514-9.596 c-4.503-4.189-10.227,6.771-11.514,9.178c-2.454,4.587-4.444,9.537-6.247,14.416c-0.864,2.339-2.162,5.466-1.688,8.042 c0.835,4.539,6.523,0.931,8.61-0.376c3.831-2.401,6.617-5.165,9.863-8.095c1.557-1.405,2.697-1.964,2.638,0.639 c-0.114,4.996-2.324,10.264-3.906,14.914c-0.292,0.859,0.861,1.434,1.462,0.852c2.801-2.716,5.756-5.3,8.863-7.659 c1.815-1.379,3.829-2.878,6.055-3.49c2.95-0.813-1.473,9.055-1.668,9.487c-0.398,0.88,0.615,1.778,1.374,1.061 c4.146-3.922,8.412-7.78,12.959-11.231c1.041-0.79,2.116-1.535,3.254-2.177c1.902-1.072,0.332,0.803-0.288,1.972 c-0.972,1.834-2.199,3.496-3.306,5.24c-1.063,1.677-1.894,4.338,0.619,5.115c2.135,0.66,4.978-0.558,6.925-1.243 c6.549-2.307,12.747-5.738,18.832-9.031c-0.354-0.458-0.707-0.917-1.06-1.375c-2.651,2.108-7.025,7.179-3.913,10.649 c2.438,2.719,4.696,1.195,6.603-1.353c3.47-4.632,7.325-19.852-3.348-16.173c-0.828,0.285-0.838,1.406,0,1.688 c7.293,2.451,16.053,3.865,23.445,1.209c1.054-0.379,0.6-2.07-0.465-1.688c-7.122,2.559-15.481,1.155-22.516-1.209 c0,0.563,0,1.125,0,1.688c7.311-2.52,4.754,6.813,3.113,10.536c-0.812,1.842-1.96,3.938-3.733,4.996 c-1.856,0.386-2.568-0.868-2.136-3.76c0.292-1.375,1.427-2.607,2.329-3.622c0.557-0.627,1.2-1.202,1.857-1.724 c0.805-0.641-0.222-1.829-1.061-1.375c-1.28,0.692-24.775,12.313-24.831,9.603c-0.018-0.9,0.726-1.897,1.216-2.603 c1.177-1.696,3.105-4.595,4.049-7.082c2.045-5.392-5.984-0.163-7.006,0.613c-4.485,3.404-8.688,7.23-12.778,11.098 c0.458,0.354,0.916,0.707,1.374,1.061c1.249-2.759,6.313-15.391-1.851-11.499c-5.31,2.531-9.957,6.979-14.146,11.04 c0.487,0.284,0.975,0.568,1.462,0.852c1.542-4.529,3.283-9.238,3.838-14.023c0.167-1.44,0.494-3.661-0.829-4.714 c-2.051-1.632-5.05,1.766-6.277,3.064c-1.453,1.539-12.925,10.803-13.862,8.071c-1.037-3.02,1.919-8.418,2.985-11.081 c2.492-6.228,5.172-13.511,10.117-18.249c3.136-3.004,4.925,0.409,4.328,3.441c-0.467,2.375-3.099,4.385-4.671,6.08 c-5.697,6.141-11.57,12.154-18.063,17.462c-3.157,2.579-6.618,5.065-10.463,6.503c-3.798,1.42-8.458-0.302-7.279-5.131 c0.816-3.345,4.264-6.101,6.92-7.993c1.06-0.755,2.211-1.445,3.421-1.932c1.318-0.53-0.143-0.03,0.133-0.526 c-0.689,1.242-2.049,2.252-3.097,3.168c-4.66,4.075-10.796,7.006-16.527,9.267c0.358,0.358,0.717,0.718,1.076,1.076 c1.882-4.512,1.595-9.332-4.377-6.601c-4.922,2.252-9.381,5.715-13.538,9.15c0.487,0.284,0.975,0.568,1.462,0.852 c2.818-11.01,6.772-21.885,13.534-31.123c2.703-3.692,7.643-9.719,12.796-9.653c4.425,0.057-3.5,8.737-4.177,9.375 c-8.669,8.157-20.013,13.75-29.711,20.609c-12.115,8.568-23.417,18.583-26.103,33.907c-0.391,2.229,0.875,3.765,2.707,1.798 c3.411-3.665,5.718-8.748,8.122-13.081c4.233-7.631,8.255-15.388,12.167-23.188c0.421-0.838-0.72-1.876-1.374-1.061 c-0.87,1.087-8.866,9.96-8.076,4.473c0.534-3.711,5-8.243,8.841-6.046C96.216,40.853,97.098,39.341,96.118,38.78L96.118,38.78 M274.256,44.676c-4.666,3.02,1.662-8.013,2.372-9.234c1.489-2.565,3.163-5.031,4.837-7.479 c3.862-5.651,7.936-11.217,12.439-16.376c1.29-1.478,2.682-3.203,4.396-4.21c0.23-0.136-0.013-0.441-0.175,0.479 c-0.207,1.182-0.662,2.331-1.083,3.448c-5.195,13.773-13.211,26.784-20.359,39.583c-0.473,0.847,0.699,1.825,1.375,1.061 c6.062-6.865,12.192-13.67,18.378-20.423c4.437-4.843,8.907-9.659,13.5-14.354c1.6-1.635,3.221-3.249,4.899-4.802 c0.568-0.526,1.151-1.035,1.752-1.524c1.387-1.129-0.071-0.456,0.13-1.105c-1.368,4.432-5.558,8.769-8.085,12.598 c-2.891,4.38-5.736,8.796-8.406,13.314c-1.246,2.109-3.238,4.773-3.526,7.292c-0.246,2.151,2.063,1.099,2.924,0.411 c3.797-3.034,6.913-7.194,10.042-10.867c7.968-9.353,15.607-18.988,23.234-28.618c-0.459-0.354-0.917-0.707-1.375-1.061 c-5.385,7.546-10.35,15.43-14.922,23.492c-3.227,5.691-6.205,11.563-8.458,17.713c-1.472,4.017-3.118,9.251-1.387,13.443 c0.425,1.028,2.118,0.578,1.688-0.465c-1.739-4.211,0.234-9.368,1.703-13.377c2.334-6.372,5.651-12.407,9.02-18.28 c4.257-7.422,8.896-14.677,13.868-21.644c0.575-0.806-0.759-1.838-1.375-1.061c-7.627,9.633-15.287,19.246-23.233,28.619 c-3.143,3.706-6.329,8.075-10.249,11.029c-0.677,0.51,0.057,1.142,0.583-0.186c0.592-1.49,1.447-2.902,2.238-4.291 c2.488-4.368,5.23-8.597,7.977-12.805c2.946-4.516,6.332-8.87,8.897-13.617c0.704-1.304,0.878-3.789-1.328-2.633 c-3.17,1.661-5.871,5.165-8.323,7.671c-4.63,4.732-9.119,9.604-13.591,14.486c-5.997,6.547-11.936,13.149-17.813,19.804 c0.459,0.354,0.917,0.707,1.375,1.061c5.532-9.906,11.018-19.853,16.042-30.029c2.085-4.224,4.592-8.762,5.576-13.42 c1.35-6.383-6.058,0.797-7.146,2.029c-5.684,6.43-10.722,13.553-15.392,20.742c-1.388,2.137-2.676,4.324-3.913,6.552 c-1.089,1.961-3.429,5.595-2.82,8.051c0.576,2.319,3.159,1.423,4.597,0.493C276.082,45.576,275.206,44.061,274.256,44.676 L274.256,44.676 M336.171,31.837c-4.789-8.062-16.813,7.785-18.132,11.685c-1.118,3.306,3.291,2.369,4.811,1.67 c4.806-2.212,9.947-5.75,12.93-10.203c-0.504-0.294-1.008-0.589-1.512-0.883c-1.664,3.092-8.797,17.41-0.214,15.834 c7.023-1.289,15.729-9.414,18.123-16.035c1.205-3.334,1.61-7.508-0.337-10.685c-0.508-0.827-1.914-0.294-1.6,0.674 c1.101,3.391,2.841,6.735,5.544,9.105c0.886,0.777,3.318,2.007,3.781,1.167c-0.729,1.323-2.288,2.423-3.338,3.485 c-1.507,1.524-3.919,3.891-3.062,6.271c1.229,3.416,8.396,2.498,10.846,2.385c1.123-0.052,1.129-1.803,0-1.75 c-3.325,0.154-12.025,0.777-7.775-4.338c1.507-1.814,3.479-3.234,4.84-5.17c0.686-0.974,0.182-2.185-1.032-2.262 c-4.478-0.288-6.9-5.612-8.116-9.358c-0.533,0.225-1.066,0.449-1.6,0.674c5.83,9.508-7.809,19.924-14.745,23.422 c-7.716,3.891-1.288-9.778,0.196-12.536c0.538-1.001-0.887-1.815-1.512-0.883c-1.808,2.699-4.516,4.761-7.143,6.606 c-0.729,0.513-7.545,4.119-7.398,3.274c0.51-2.925,11.648-16.796,14.933-11.267C335.235,33.689,336.748,32.81,336.171,31.837 L336.171,31.837 M384.541,31.889c-4.593,1.04-14.386,6.954-11.374,12.876c1.295,2.547,6.198,1.345,8.215,0.944 c6.501-1.29,12.824-4.299,18.719-7.231c-0.354-0.458-0.707-0.917-1.061-1.375c-2.232,1.976-6.3,5.774-5.361,9.186 c0.873,3.174,3.812,1.92,5.496,0.406c3.878-3.485,12.381-18.065,4.242-21.156c0,0.563,0,1.125,0,1.688 c3.468-0.856,7.321-1.242,10.827-0.465c3.253,0.721,4.64,3.122,4.188,6.345c-0.317,2.268-1.408,4.401-2.449,6.406 c-0.61,1.176-2.13,2.728-2.305,4.021c-0.26,1.925,1.169,3.054,2.989,2.144c6.379-3.189,10.746-10.402,15.406-15.57 c1.093-1.212,0.231-2.503-0.454-1.165c-0.699,1.365-1.496,2.683-2.253,4.016c-1.746,3.075-3.581,6.218-4.68,9.597 c-0.555,1.709-0.658,4.321,1.817,4.186c4.73-0.258,10.082-5.98,13.429-8.752c1.826-1.512,3.611-3.072,5.394-4.636 c-0.488-0.284-0.976-0.568-1.463-0.852c-1.648,5.179-4.594,18.627,4.761,17.436c1.104-0.141,1.117-1.893,0-1.75 c-7.56,0.963-4.399-11.053-3.073-15.221c0.282-0.887-0.842-1.396-1.463-0.852c-4.773,4.189-11.063,11.34-17.558,12.868 c-1.338,0.314,1.973-6.801,2.35-7.518c1.423-2.707,3.095-5.289,4.447-8.031c0.861-1.744-0.525-2.551-1.854-1.24 c-5.088,5.02-8.88,11.54-14.924,15.554c-1.729,1.148-1.152,0.159-0.438-0.967c2.071-3.265,3.925-6.969,4.189-10.883 c0.593-8.777-11.898-7.706-17.351-6.358c-0.906,0.224-0.759,1.399,0,1.688c5.381,2.044-0.869,12.659-2.69,15.414 c-0.676,1.021-1.466,1.948-2.324,2.817c-1.691,1.711-3.084,0.27-2.018-1.979c0.931-1.963,2.739-3.706,4.358-5.138 c0.782-0.692-0.213-1.797-1.061-1.375c-6.734,3.351-14.56,7.319-22.254,7.548c-6.173,0.184,1.436-7.832,3.214-8.962 c1.452-0.922,3.149-1.596,4.828-1.976C386.106,33.327,385.64,31.64,384.541,31.889L384.541,31.889z"/>
</svg>