<?xml version="1.0" encoding="UTF-8"?>
<svg version="1.1" xmlns="http://www.w3.org/2000/svg" width="82" height="32" >
<path d="M75.02,19.963c-4.162-4.547-10.825,2.69-10.167,7.228c0.381,2.631,3.998,0.592,4.924-0.224 c3.866-3.408,7.492-7.734,10.157-12.157c0.538-0.893,2.396-4.689,0.161-5.089c-1.626-0.291-2.819,1.751-3.595,2.871 c-1.843,2.66-3.24,5.671-4.476,8.651c-0.497,1.2-1.961,3.95-1.114,5.28c0.415,0.65,1.453,0.049,1.036-0.605 c-0.869-1.364,2.109-6.377,2.663-7.528c0.705-1.466,1.491-2.892,2.337-4.28c0.274-0.45,3.394-4.563,2.916-2.067 c-0.438,2.282-2.549,4.623-3.923,6.378c-1.929,2.462-4.044,4.813-6.251,7.028c-0.788,0.791-4.179,3.245-3.613,0.223 c0.294-1.567,1.527-3.066,2.517-4.228c1.438-1.689,3.958-2.402,5.579-0.632C74.694,21.384,75.541,20.533,75.02,19.963 L75.02,19.963z"/>
<path d="M8.28,5.085c-1.534-3.542,3.083-3.596,5.226-3.669c4.442-0.152-0.49,8.433-1.34,10.62c-1.446,3.718-2.3,7.638-3.55,11.42 c-0.932,2.819-2.42,4.952-5.693,4.188c-2.065-2.194-1.75-3.929,0.944-5.205c1.038-0.675,2.147-1.203,3.329-1.584 c4.269-1.547,8.066-2.484,11.579-5.553c3.433-3,8.039-8.933,8.403-13.614c0.181-2.317-3.139,0.866-3.296,1.036 c-4.111,4.428-7.146,10.122-9.387,15.681c-1.133,2.813-4.033,9.816-1.155,12.591c1.968,1.897,5.5-1.684,6.68-2.848 c0.552-0.544-0.297-1.392-0.849-0.849c-1.011,0.997-2.03,1.894-3.276,2.595c-3.578,2.013-2.148-4.609-2.027-5.248 c0.911-4.805,3.107-9.32,5.527-13.524c1.66-2.884,3.604-5.686,5.87-8.126c1.542-1.661-0.31,1.409-0.528,1.85 c-1.379,2.794-3.1,5.41-5.079,7.812c-4.054,4.92-9.696,5.611-15.147,8.021c-2.458,1.087-6.83,5.425-2.999,7.669 c3.477,2.037,6.522-0.044,7.806-3.388c1.42-3.7,2.292-7.585,3.55-11.342c1.05-3.138,4.324-7.12,4.298-10.448 C17.129-1.642,4.298-1.109,7.244,5.69C7.55,6.399,8.584,5.787,8.28,5.085L8.28,5.085z"/>
<path d="M31.613,18.585c-3.058-5.266-13.637,2.847-14.122,6.814c-0.273,2.236,3.071,2.649,4.537,2.416 c4.503-0.717,7.652-3.808,9.312-7.934c0.223-0.555-0.627-1.031-1.003-0.584c-1.655,1.97-6.206,6.966-3.658,9.54 c3.562,3.598,10.2-4.661,11.601-7.146c-0.366-0.154-0.731-0.308-1.097-0.462c-1.522,4.261-1.624,9.215,3.915,6.436 c3.229-1.621,6.28-4.31,8.355-7.244c0.333-0.47,1.603-2.979,0.1-2.979c-2.565,0-5.604,7.744-4.404,9.793 c1.01,1.723,3.63,0.759,4.877-0.055c1.737-1.133,2.293-3.875,2.336-5.792c0.014-0.617-0.809-0.792-1.118-0.303 c-2.366,3.749-4.371,10.943,2.329,6.822c4.043-2.487,7.785-6.199,10.59-9.993c1.279-1.729,4.996-6.468,3.64-8.983 c-1.77-3.285-8.697,10.13-9.169,11.181c-0.811,1.805-2.42,5.181-0.625,6.978c1.739,1.738,3.831-0.293,4.937-1.731 c0.472-0.613-0.571-1.21-1.036-0.605c-0.379,0.493-3.327,3.654-3.486,0.175c-0.032-0.708,0.262-1.496,0.463-2.164 c0.637-2.118,1.726-4.115,2.782-6.047c0.955-1.747,2.039-3.423,3.209-5.032c1.514-2.079,2.356-2.754,1.356,0.366 c-1.605,5.012-6.402,9.321-10.299,12.621c-0.467,0.396-6.926,5.576-5.951,1.644c0.4-1.614,1.41-3.223,2.294-4.625 c-0.373-0.101-0.746-0.202-1.118-0.303c-0.017,0.753-0.158,1.48-0.328,2.211c-0.577,2.482-5.524,4.393-4.492,0.711 c0.327-1.167,0.965-2.265,1.565-3.309c0.24-0.403,0.494-0.796,0.763-1.181c1.136-1.687,0.208-0.563,0.347-1.258 c-0.629,3.126-5.233,6.023-7.65,7.563c-2.007,1.279-4.334,1.657-3.86-1.557c0.151-1.023,0.486-2.048,0.833-3.021 c0.232-0.65-0.768-1.045-1.097-0.462c-1.866,3.311-4.797,6.653-8.815,7.036c-3.324,0.317,2.241-7.36,2.758-7.976 c-0.334-0.195-0.668-0.389-1.003-0.584c-1.141,2.837-2.888,4.852-5.581,6.263c-1.282,0.671-7.528,2.043-5.412-1.748 c1.085-1.946,9.222-8.614,11.387-4.886C30.965,19.859,32.003,19.255,31.613,18.585L31.613,18.585z"/>
</svg>