<?xml version="1.0" encoding="UTF-8"?>
<svg version="1.1" xmlns="http://www.w3.org/2000/svg" width="382" height="72" >
<path d="M24.09,23.538c0.47,2.758-0.958,5.57-2.367,7.821c-0.58,0.928-6.325,7.726-7.35,5.869 c-0.855-1.549,0.382-4.138,0.95-5.589c2.115-5.403,6.23-10.15,10.938-13.441c6.097-4.263,13.953-0.753,20.606-2.767 c4.771-1.444,8.424-4.035,11.747-7.769c1.364-1.533,4.124-5.325,1.965-7.277c-0.986-0.894-3.405-0.023-4.342,0.497 c-3.853,2.138-5.776,7.3-7.903,10.915c-5.854,9.956-13.841,18.106-20,27.793c-2.869,4.513-5.369,9.264-7.896,13.972 c-2.278,4.246-8.55,19.612-15.475,16.497c-5.517-2.481,1.038-11.058,3.041-13.637c8.287-10.675,20.989-15.313,33.561-18.782 c11.015-3.039,22.31-6.007,32.616-11.045c6.578-3.215,13.456-8.233,13.393-16.294c-0.067-8.521-9.017-6.628-13.474-3.167 c-6.369,4.944-11.585,12.783-16.545,19.044c-6.064,7.655-11.978,15.573-16.8,24.082c-2.759,4.868-6.469,12.541,0.31,15.914 c6.246,3.108,14.746-1.273,19.512-5.131c4.471-3.618,7.775-9.242,8.464-14.972c0.545-4.538-2.078-6.48-6.285-5.47 c-8.746,2.102-15.676,12.224-20.856,18.753c-0.159,0.201,2.326,0.143,2.854-0.523c1.606-2.025,17.335-22.565,20.923-15.911 c2.188,4.06-1.199,10.341-3.417,13.643C58.473,62.2,50.808,67.792,43.8,65.201c-4.081-1.508-4.223-6.013-3.032-9.493 c2.743-8.017,8.604-15.354,13.558-22.094c5.802-7.894,11.992-15.552,18.572-22.811c1.229-1.355,2.487-2.66,3.82-3.913 c4.336-4.075,7.055-0.271,7.842,3.153c1.198,5.213-2.685,9.895-6.474,12.85C68.49,30.377,54.531,33.11,43.094,36.31 c-10.948,3.063-21.295,6.206-30.439,13.221C7.481,53.499,2.541,58.996,0.366,65.25c-1.643,4.726,2.54,6.881,6.656,6.202 c9.53-1.572,13.873-13.97,17.779-21.216c4.932-9.148,10.47-17.021,17.062-25.018c4.213-5.109,7.544-10.902,10.885-16.597 c1.412-2.407,2.698-5.104,4.725-7.063c1.271-1.229,0.162,3.908-0.138,4.463c-2.404,4.451-7.748,8.234-12.646,8.896 c-2.933,0.396-6.015-0.03-8.965-0.024c-4.202,0.009-8.05,1.184-11.671,3.256c-5.251,3.006-14.455,13.055-12.578,19.855 c1.464,5.303,12.578-6.448,13.102-7.17c1.544-2.126,2.872-5.361,2.41-8.074C26.893,22.2,23.972,22.845,24.09,23.538L24.09,23.538 z"/>
<path d="M84.543,54.742c-1.541-3.274-4.708-4.959-8.191-3.555c-3.732,1.504-9.816,7.384-8.109,11.872 c1.34,3.524,7.55,0.812,9.396-0.43c4.054-2.726,7.501-6.47,10.456-10.339c0.768-1.007-2.03-0.609-2.484-0.169 c-1.881,1.823-12.016,13.161-4.239,13.473c4.105,0.165,8.115-2.021,11.575-3.983c2.511-1.424,4.873-3.137,7.094-4.975 c0.849-0.702,1.622-1.484,2.389-2.273c0.75-0.865,1.521-1.71,2.314-2.536c-1.079,0.278-1.71,1.027-1.893,2.247 c-0.556,0.952-8.332,9.62-3.72,10.426c2.339,0.409,4.827-0.724,6.9-1.65c6.093-2.726,11.688-6.638,17.19-10.368 c-0.828-0.057-1.656-0.112-2.484-0.169c-2.024,3.013-5.765,10.858,1.114,10.07c5.99-0.688,11.56-4.97,16.02-8.77 c-0.828-0.057-1.656-0.112-2.484-0.169c-1.31,1.613-7.445,9.084-4.149,10.965c4.142,2.363,11.922-1.437,15.689-3.112 c2.435-1.084,11.321-5.263,8.741-9.314c-2.645-4.153-7.306-0.193-8.934,2.691c-1.411,2.501-2.973,9.111,2.146,8.11 c4.097-0.801,8.022-2.552,11.666-4.546c16.002-8.758,26.576-25.33,34.392-41.235c0.411-0.836-2.382-0.336-2.78,0.215 c-7.819,10.815-15.654,21.863-22.009,33.615c-2.486,4.599-4.707,8.751,1.555,10.916c5.853,2.024,14.794,0.585,17.74-5.406 c0.365-0.741-2.461-0.454-2.885,0.408c-2.363,4.803-8.887,4.938-13.335,3.4c-2.358-0.815-3.291-2.206-2.604-4.45 c1.586-5.178,5.059-10.011,7.913-14.547c5.142-8.17,10.644-16.136,16.3-23.958c-0.927,0.071-1.854,0.143-2.78,0.215 c-8.607,17.513-21.442,37.47-41.255,43.538c-4.852,1.486-1.731-5.851-0.615-7.574c1.482-2.292,3.446-0.897,2.748,1.475 c-0.646,2.197-3.759,3.667-5.573,4.657c-1.784,0.974-12.853,6.297-14.006,2.957c-0.91-2.634,3.157-7.128,4.711-9.041 c0.81-0.998-2.04-0.548-2.484-0.169c-2.737,2.332-5.697,4.41-8.842,6.152c-1.21,0.67-5.164,2.834-6.083,0.148 c-0.302-0.884,0.231-2.169,0.509-3c0.506-1.512,1.363-2.945,2.25-4.264c0.788-1.173-2.1-0.429-2.484-0.169 c-1.264,0.857-20.003,13.057-20.33,10.164c-0.377-3.332,8.343-9.581,6.215-11.909c-0.877-0.961-2.797-0.174-3.634,0.502 c-3.822,3.088-6.693,6.693-10.942,9.385c-2.604,1.649-13.276,7.109-10.229-0.22c1.178-2.834,3.713-5.448,5.894-7.563 c-0.828-0.057-1.656-0.112-2.484-0.169c-2.665,3.492-5.715,6.773-9.242,9.4c-2.165,1.612-5.764,2.14-5.237-1.565 c0.246-1.729,1.548-3.288,2.594-4.615c2.387-3.03,6.308-3.848,8.112-0.013C82.079,56.439,84.9,55.499,84.543,54.742 L84.543,54.742z"/>
<path d="M164.354,8.875c0.112-0.436,0.117-0.927,0.021-1.363c-0.232-1.063-1.455-1.365-2.393-1.227 c-0.621,0.092-1.504,0.401-1.605,1.139c-0.095,0.692,0.784,0.973,1.324,0.893c0.373-0.055,0.113,0.008-0.107-0.054 c-0.155-0.083-0.182-0.092-0.077-0.025c-0.115-0.112-0.135-0.123-0.061-0.035c0.093,0.12-0.052-0.179,0.021,0.086 c0.018,0.063,0.042,0.381,0.029,0.097c0.011,0.243-0.021,0.5-0.083,0.736c-0.183,0.71,0.853,0.933,1.324,0.893 C163.435,9.956,164.171,9.582,164.354,8.875L164.354,8.875z"/>
<path d="M136.642,35.978c11.489-0.716,22.977-1.535,34.44-2.602c15.296-1.424,30.949-4.085,46.347-2.498 c0.703,0.073,3.362-1.148,1.846-1.305c-14.845-1.531-30.005,0.785-44.748,2.271c-12.194,1.229-24.438,2.055-36.669,2.816 C137.008,34.715,134.713,36.098,136.642,35.978L136.642,35.978z"/>
<path d="M235.719,10.291c-5.942,7.074-11.834,14.192-17.68,21.347c-4.316,5.284-8.497,10.677-12.809,15.963 c-2.924,3.585-6.114,6.99-9.691,9.93c-1.343,1.104-4.221,3.508-6.112,2.516c-1.4-0.735-1.441-3.451-1.544-4.737 c-0.104-1.28-3.008-0.59-2.898,0.777c0.427,5.311,3.332,7.434,8.299,5.386c7.839-3.231,13.763-12.275,18.788-18.629 c8.491-10.735,17.257-21.262,26.062-31.741C239.309,9.701,236.538,9.317,235.719,10.291L235.719,10.291z"/>
<path d="M193.88,34.576c0.225,1.727-0.294,3.484-0.816,5.106c-0.144,0.445-3.196,6.56-3.752,5.521 c-0.758-1.416-0.447-3.448-0.353-4.963c0.443-7.073,2.843-13.512,8.232-18.11c8.905-7.599,23.031-13.37,34.821-12.837 c12.275,0.556,6.267,12.855,2.148,19.012c-2.389,3.571-15.243,20.47-20.747,15.21c-0.644-0.616-3.004-0.157-2.791,0.968 c0.991,5.228-9.798,14.095,0.162,16.142c5.71,1.174,15.86-0.628,19.386-6.005c0.766-1.168-2.165-0.94-2.711-0.107 c-2.606,3.977-18.192,7.815-18.223,1.448c-0.022-4.786,5.298-6.904,4.284-12.255c-0.931,0.323-1.861,0.646-2.791,0.968 c7.599,7.262,21.409-9.819,25.036-14.697c3.345-4.497,7.136-10.489,6.671-16.35c-0.442-5.575-7.866-6.188-12.075-6.078 c-7.825,0.205-15.655,2.973-22.699,6.194c-6.52,2.981-13.604,7.054-17.696,13.132c-1.578,2.343-7.789,20.394-1.556,20.643 c5.448,0.219,8.932-9.359,8.367-13.718C196.644,32.762,193.732,33.434,193.88,34.576L193.88,34.576z"/>
<path d="M267.085,17.35c-4.461,3.481-9.987,8.209-11.203,13.979c-1.396,6.621,9.053,5.315,12.433,4.621 c9.751-2.003,18.602-7.982,24.736-15.68c1.326-1.664,11.15-16.515,3.974-16.795c-3.491-0.136-6.397,2.202-9.009,4.252 c-4.969,3.9-8.863,9.061-12.413,14.226c-3.358,4.886-6.38,9.984-9.933,14.738c-4.429,5.927-10.428,10.714-16.412,14.992 c-7.09,5.067-15.977,5.543-21.416-2.218c-3.414-4.87-1.109-11.307,2.267-15.426c3.879-4.732,11.313-7.352,17.144-5.153 c5.185,1.955,3.727,9.069,2.223,12.896c-2.022,5.148-9.902,12.021-6.161,18.292c4.746,7.956,19.583,1.208,25.399-1.209 c1.829-0.761,0.214-2.441-1.311-1.809c-4.659,1.938-23.174,9.563-21.841-1.928c0.352-3.028,2.198-5.66,3.949-8.039 c2.347-3.188,3.863-7.017,4.297-10.945c0.923-8.347-6.673-10.899-13.587-9.973c-8.048,1.079-14.827,7.339-16.692,15.158 c-2.015,8.448,6.115,16.659,14.404,16.628c10.963-0.042,21.695-10.34,28.404-18.114c8.524-9.877,13.491-22.12,23.624-30.705 c1.491-1.264,6.924-5.551,6.51-1.2c-0.227,2.378-1.614,4.746-2.746,6.794c-3.485,6.307-8.837,11.308-15.036,14.868 c-3.049,1.751-17.905,8.827-19.857,2.683c-1.452-4.569,7.143-11.136,10.199-13.521C270.582,17.551,268.265,16.429,267.085,17.35 L267.085,17.35z"/>
<path d="M284.682,51.063c-0.916-9.443-15.617,2.62-17.262,6.367c-1.358,3.095,1.18,4.813,4.044,4.398 c6.367-0.923,11.586-5.835,15.97-10.158c0.793-0.781-2.053-0.311-2.449-0.04c-4.099,2.792-13.076,11.383-2.609,11.318 c4.758-0.03,9.656-2.171,13.869-4.166c3.599-1.704,8.959-4.374,10.398-8.411c0.314-0.885-2.438-0.036-2.759,0.296 c-1.847,1.902-9.749,10.268-3.362,10.839c6.044,0.541,13.156-4.724,17.847-7.969c-0.816-0.013-1.633-0.026-2.449-0.04 c-0.964,1.374-4.192,6.063-2.075,7.586c1.736,1.249,4.012,0.641,5.963,0.333c4.024-0.635,7.991-1.47,11.907-2.592 c4.083-1.17,8.17-2.55,12.144-4.043c2.008-0.755,3.988-1.765,5.023-3.706c2.077-3.897-3.753-3.958-5.583-3.201 c-2.703,1.117-14.752,13.702-8.404,14.703c4.315,0.68,9.934-1.612,14.063-2.538c10.207-2.291,20.514-3.724,30.99-3.684 c0.872,0.003,3.152-1.311,1.215-1.318c-10.111-0.039-20.087,1.245-29.959,3.376c-3.772,0.813-7.521,1.752-11.311,2.482 c-3.524,0.68-4.606-0.226-3.04-3.568c1.249-2.667,3.299-5.031,5.417-7.045c1.697-1.614,4.196-2.15,3.741,1.257 c-0.336,2.515-8.442,4.2-10.454,4.875c-2.635,0.884-17.179,6.343-19.199,3.322c-1.077-1.611,1.305-5.077,2.209-6.368 c0.706-1.006-2.09-0.289-2.449-0.04c-3.786,2.619-7.929,5.213-12.344,6.595c-6.57,2.057,1.404-7.989,2.758-9.385 c-0.919,0.099-1.839,0.197-2.759,0.296c-2.248,6.309-14.267,10.363-20.183,10.796c-8.65,0.632,1.389-8.252,3.647-9.791 c-0.816-0.013-1.633-0.026-2.449-0.04c-3.365,3.317-7.198,7.125-11.827,8.604c-2.757,0.882-3.316-1.485-2.669-3.437 c1.155-3.482,10.848-11.776,11.492-5.126C281.85,52.524,284.767,51.947,284.682,51.063L284.682,51.063z"/>
</svg>