<?xml version="1.0" encoding="UTF-8" standalone="no"?>
<!-- Created with Inkscape (http://www.inkscape.org/) -->

<svg
   xmlns:dc="http://purl.org/dc/elements/1.1/"
   xmlns:cc="http://creativecommons.org/ns#"
   xmlns:rdf="http://www.w3.org/1999/02/22-rdf-syntax-ns#"
   xmlns:svg="http://www.w3.org/2000/svg"
   xmlns="http://www.w3.org/2000/svg"
   xmlns:sodipodi="http://sodipodi.sourceforge.net/DTD/sodipodi-0.dtd"
   xmlns:inkscape="http://www.inkscape.org/namespaces/inkscape"
   width="744.09448"
   height="280"
   id="svg2998"
   version="1.1"
   inkscape:version="0.48.2 r9819"
   sodipodi:docname="Nieuw document 3">
  <defs
     id="defs3000" />
  <sodipodi:namedview
     id="base"
     pagecolor="#ffffff"
     bordercolor="#666666"
     borderopacity="1.0"
     inkscape:pageopacity="0.0"
     inkscape:pageshadow="2"
     inkscape:zoom="0.35"
     inkscape:cx="375"
     inkscape:cy="520"
     inkscape:document-units="px"
     inkscape:current-layer="layer1"
     showgrid="false"
     inkscape:window-width="1537"
     inkscape:window-height="878"
     inkscape:window-x="-8"
     inkscape:window-y="-8"
     inkscape:window-maximized="1" />
  <metadata
     id="metadata3003">
    <rdf:RDF>
      <cc:Work
         rdf:about="">
        <dc:format>image/svg+xml</dc:format>
        <dc:type
           rdf:resource="http://purl.org/dc/dcmitype/StillImage" />
        <dc:title></dc:title>
      </cc:Work>
    </rdf:RDF>
  </metadata>
  <g
     inkscape:label="Laag 1"
     inkscape:groupmode="layer"
     id="layer1"
     transform="translate(0,-772.36218)">
    <path
       style="fill:#000000"
       d="m 203.7251,1028.2972 c -8.30608,-6.0736 0.23302,-29.07781 19.88143,-53.56018 5.8094,-7.23863 10.56253,-13.9479 10.56253,-14.90951 0,-3.91775 -6.2073,-1.29036 -14.86567,6.29228 -11.35168,9.94132 -17.35945,13.21114 -21.41443,11.6551 -5.93533,-2.27759 -5.80209,-7.99599 0.46966,-20.15665 3.42806,-6.64693 5.22959,-12.08533 4.00333,-12.08533 -1.22625,0 -8.64232,5.24648 -16.48013,11.65885 -21.66041,17.72105 -31.62702,12.91577 -19.86541,-9.57787 2.94483,-5.63189 4.64571,-10.67771 3.77975,-11.21292 -0.86598,-0.53519 -7.20244,3.68356 -14.08099,9.37504 -14.54575,12.0355 -20.5211,14.21384 -25.8244,9.41443 -5.19646,-4.70273 -6.97481,-4.31145 -13.99718,3.07979 -13.73012,14.45138 -22.131932,17.08659 -25.060294,7.86016 -0.717223,-2.25979 -3.575946,-4.97247 -6.352722,-6.0282 -6.607928,-2.51234 -6.399211,-4.37669 2.063932,-18.43619 17.188514,-28.55462 24.253034,-40.94198 24.253034,-42.52677 0,-6.18288 -27.831958,10.57082 -31.038248,18.68375 -8.481121,21.46003 -12.87365,35.31594 -12.87365,40.60899 0,12.62031 -10.502339,24.135 -13.911064,15.25201 -1.509587,-3.93393 4.285542,-25.1797 11.024689,-40.41811 2.737581,-6.19014 4.977414,-11.51991 4.977414,-11.84396 0,-0.32403 -7.745349,-0.35148 -17.211897,-0.061 -16.515495,0.50677 -17.361097,0.77381 -20.899419,6.59969 -4.668796,7.68725 -4.714801,11.65487 -0.126027,10.86808 6.870061,-1.17793 4.903348,6.16352 -4.374727,16.33021 -7.999576,8.76574 -9.893508,9.89572 -13.16332,7.85359 -5.738974,-3.58422 -4.127813,-11.68739 6.786687,-34.13296 5.332836,-10.96692 11.024139,-24.33718 12.647343,-29.71169 1.623201,-5.37449 6.335133,-14.78419 10.470958,-20.91042 4.135834,-6.12624 14.061638,-25.25317 22.057352,-42.50427 17.315778,-37.35955 19.390919,-40.77532 24.771683,-40.77532 4.635526,0 5.653296,6.00833 1.689245,9.97239 -4.990592,4.99059 -27.42208,56.06733 -27.192298,61.91712 0.157936,4.02044 -1.395981,7.3058 -4.675716,9.88565 -2.701753,2.12518 -8.084025,10.05371 -11.960608,17.61891 -6.932251,13.5284 -6.980127,13.80566 -2.906933,16.83542 4.732426,3.5201 12.70961,2.41231 24.089985,-3.34535 6.745656,-3.41282 8.881834,-7.25905 27.183551,-48.94458 19.45728,-44.31748 31.07798,-64.26882 38.23657,-65.64743 5.89324,-1.13494 4.23221,5.6459 -4.76623,19.45723 -4.59152,7.04733 -14.55777,26.87327 -22.14724,44.05768 -15.746868,35.65469 -16.793104,38.56301 -13.872662,38.56301 5.477842,0 27.127842,-13.63833 33.537952,-21.12709 4.91139,-5.73787 8.55674,-8.17113 11.59001,-7.73631 6.90667,0.99007 6.4155,6.92633 -1.29486,15.64952 -13.64864,15.44153 -17.11846,21.70752 -14.4165,26.03406 2.08249,3.3346 0.90081,6.04064 -7.95436,18.21539 -13.65751,18.77738 -18.58126,31.69571 -12.08064,31.69571 5.03683,0 25.04015,-22.02224 38.43202,-42.31093 13.01623,-19.7196 19.52567,-26.16031 23.78127,-23.5302 3.96033,2.44762 1.94454,8.44042 -6.32127,18.79267 -17.9466,22.47667 -24.43621,34.50221 -18.61922,34.50221 2.0656,0 28.14315,-18.90951 48.55972,-35.2119 13.39055,-10.69221 19.49485,-3.40878 7.30156,8.71194 -3.67111,3.64929 -10.2579,11.73113 -14.6373,17.95968 -12.84381,18.26698 -9.78019,22.49618 6.54019,9.02839 23.37927,-19.29292 37.95659,-29.76271 41.43929,-29.76271 6.79948,0 3.94469,7.03635 -9.81059,24.18041 -22.02064,27.44575 -20.14136,30.98275 6.11723,11.51321 17.28187,-12.81373 23.5653,-15.99082 27.19224,-13.74923 4.43214,2.73921 1.5943,9.02239 -12.75508,28.24064 -19.6406,26.30486 -29.83052,46.39867 -28.12898,55.46867 1.46487,7.8083 -2.38901,10.7517 -8.36056,6.3851 z m 458.18986,-5.1891 c -3.04107,-4.9205 6.6578,-27.00639 32.90684,-74.93386 7.70769,-14.07327 14.01396,-26.07062 14.01396,-26.6608 0,-2.63338 -4.29224,-0.25863 -20.73725,11.47321 -18.85394,13.45038 -27.55812,15.80217 -31.46526,8.50164 -1.19053,-2.22453 -2.10983,-6.22366 -2.0429,-8.88692 0.19342,-7.69375 10.91304,-27.75749 15.26047,-28.56265 7.14565,-1.32341 7.97506,2.80455 2.49106,12.39833 -5.76402,10.08367 -6.81317,16.5496 -2.68525,16.5496 5.07112,0 45.57354,-28.68875 52.39992,-37.11599 4.25975,-5.25873 9.35819,-6.14789 10.98238,-1.91531 0.58875,1.53425 -2.91198,9.76772 -7.7794,18.29662 -4.86744,8.52889 -12.74604,23.03483 -17.50804,32.23542 -25.05629,48.41096 -35.76897,69.50601 -37.62844,74.09681 -2.27828,5.6247 -6.19396,7.7827 -8.20809,4.5239 z m -66.69252,-43.42149 c -2.4072,-2.40721 -1.59331,-4.24491 5.79865,-13.0925 7.15468,-8.56359 10.87809,-16.23369 8.86015,-18.25164 -1.39736,-1.39736 -9.08606,2.78268 -18.14388,9.86414 -22.21064,17.36439 -31.16333,1.55508 -15.24183,-26.9152 l 7.75962,-13.87551 -7.23687,4.3619 c -3.98027,2.39902 -16.27328,10.08424 -27.31781,17.07824 -11.04452,6.99399 -22.48375,13.31943 -25.42052,14.05651 -7.48952,1.87975 -13.34675,-1.91838 -16.17528,-10.48891 -3.00956,-9.11902 -4.48598,-8.4781 -25.17023,10.9266 -22.93597,21.51709 -31.70462,17.84424 -18.73544,-7.84754 3.59246,-7.11657 6.18138,-13.28958 5.75317,-13.71776 -0.42821,-0.4282 -4.20376,1.54895 -8.39014,4.39367 -12.60404,8.56466 -18.99212,5.23229 -12.63507,-6.59111 8.92059,-16.59121 17.27122,-34.2518 18.48801,-39.09984 1.60112,-6.37938 6.13349,-10.69786 9.22345,-8.78817 3.82238,2.36236 2.38707,8.63927 -5.46657,23.90676 -4.20707,8.17852 -7.05117,15.46808 -6.32024,16.19902 0.73093,0.73093 7.17701,-2.5142 14.32463,-7.21137 7.14762,-4.69719 13.75561,-8.07069 14.68442,-7.49664 3.54923,2.19354 1.43585,8.61888 -4.77588,14.52021 -9.3647,8.89671 -18.48337,27.74123 -12.41567,25.65798 1.11657,-0.38336 9.10678,-6.6542 17.75602,-13.93522 13.00109,-10.94444 17.26382,-16.198 24.60166,-30.32013 9.95144,-19.15209 21.0974,-32.76473 26.82756,-32.76473 6.70628,0 6.80699,4.3526 0.25814,11.15865 -3.50086,3.63837 -7.65725,10.3791 -9.23644,14.97938 -1.57914,4.60031 -6.34858,12.90617 -10.59874,18.4575 -11.49442,15.01345 -13.01703,26.49992 -3.51278,26.49992 3.86636,0 56.36613,-30.22055 68.82267,-39.61654 4.50212,-3.39595 4.67435,-4.24155 2.31793,-11.38151 -2.0166,-6.11036 -2.00311,-8.36654 0.0649,-10.85832 4.13624,-4.98385 8.38639,-2.60838 11.52898,6.44375 4.51804,13.01402 3.66742,16.75086 -6.71446,29.49699 -12.29066,15.08964 -22.54748,34.25318 -19.8024,36.99827 1.30459,1.30461 7.45548,-1.45105 17.30573,-7.75316 18.25207,-11.67751 23.86963,-13.44429 28.38618,-8.92775 3.0168,3.01679 2.80422,4.28365 -2.41373,14.38565 -13.60255,26.33463 -21.55775,35.02851 -27.03786,29.54841 z M 403.44641,972.535 c -4.38378,-8.19117 2.81531,-25.51752 26.42393,-63.59534 14.39477,-23.21703 20.2944,-34.5022 18.03695,-34.5022 -0.94826,0 -6.37797,2.96413 -12.06598,6.58696 -16.16546,10.29615 -30.56307,16.37179 -38.84946,16.39408 -6.60357,0.0178 -8.51798,1.27803 -14.63731,9.6358 -3.87205,5.28846 -9.92879,13.05145 -13.4594,17.25111 -3.53064,4.19964 -9.12302,11.39961 -12.42756,15.99989 -13.42382,18.68747 -20.5493,23.80101 -23.27345,16.70199 -0.75104,-1.95719 4.70382,-10.92476 14.30949,-23.52422 26.16827,-34.32413 33.48344,-46.35843 38.37496,-63.13116 6.65589,-22.8227 24.43872,-52.37261 31.5173,-52.37261 8.99393,0 6.08379,12.01939 -11.87308,49.03798 -11.22483,23.14026 -9.02947,25.19694 13.45856,12.60849 28.99585,-16.23143 38.32397,-20.50532 41.82346,-19.16244 5.81919,2.23303 3.80649,8.3917 -10.39731,31.81481 -19.53594,32.21617 -36.41205,64.70182 -36.55777,70.37175 -0.0684,2.66143 0.17231,6.72045 0.53508,9.02005 0.97665,6.19231 -7.71931,6.88004 -10.93841,0.86506 z"
       id="path3017"
       inkscape:connector-curvature="0" />
  </g>
</svg>
