<?xml version="1.0" encoding="UTF-8"?>
<svg version="1.1" xmlns="http://www.w3.org/2000/svg" width="242" height="64" >
<path d="M30.75,33.541c6.479-2.646,12.83-5.625,19.093-8.742c10.618-5.284,20.07-12.576,30.639-17.827 c1.782-0.885,2.689-1.439,1.176,0.383c-1.447,1.742-3.269,3.235-5,4.683c-3.402,2.843-7.248,5.184-11.047,7.443 c-10.138,6.027-20.97,11.04-32.077,14.99c-9.93,3.532-20.612,5.798-31.174,6.075c-0.917,0.024-0.705,0.771-0.17,0.496 c0.434-0.222,0.898-0.393,1.35-0.573c1.545-0.619,3.137-1.134,4.711-1.674c2.949-1.011,5.882-2.06,8.81-3.129 c18.021-6.581,36.461-14.438,55.462-17.648c1.238-0.21,0.825-1.623-0.38-1.42C52.84,19.86,34.113,27.88,15.807,34.565 c-4.617,1.687-11.366,2.656-15.274,5.689c-3.251,2.523,9.415,1.085,9.622,1.06C32.108,38.667,53.227,29.38,71.73,17.472 c3.408-2.193,6.575-4.637,9.538-7.401c1.137-1.061,3.683-3.008,3.351-4.824c-0.618-3.383-15.281,6.622-16.229,7.254 C56.419,20.48,43.18,26.876,29.87,32.311C28.649,32.809,29.725,33.96,30.75,33.541L30.75,33.541z"/>
<path d="M88.73,5.935c-5.913,6.106-11.865,12.187-17.99,18.081c-1.314,1.265-2.642,2.52-4.035,3.697 c-1.347,1.14,0.628,1.12,0.291,1.541c0.408-0.509,1.019-0.936,1.5-1.371c2.737-2.468,5.802-5.044,7.595-8.315 c2.992-5.46-7.294-2.454-4.413-0.53c3.762,2.511,11.376-1.657,14.795-2.938c4.996-1.871,11.239-3.853,15.462-7.271 c0.95-0.77-0.299-1.466-1.094-1.103c-3.343,1.526-6.544,4.991-9.393,7.262c-1.678,1.338-7.686,4.799-7.867,7.306 c-0.056,0.78,0.943,0.743,1.423,0.559c2.226-0.859,4.202-4.636,5.958-1.37c0.946,1.758,3.966-0.54,4.749-1.168 c2.444-1.962,5.082-4.998,5.936-8.069c0.353-1.27-0.507-2.726-1.901-2.463c-0.397,0.075-0.705,0.391-0.791,0.773 c-1.144,5.082,18.294-0.225,19.558-0.617c2.269-0.706,4.506-1.508,6.755-2.273c1.978-0.673,1.266-1.836-0.41-0.922 c-2.867,1.563-5.775,3.049-8.633,4.631c-1.334,0.738-11.614,5.646-9.766,8.243c1.119,1.571,4.354,0.662,5.727,0.119 c1.957-0.775,3.763-1.783,5.564-2.866c0.719-0.433,4.322-3.33,5.171-2.961c0.036-0.435,0.071-0.87,0.107-1.305 c-1.871,0.759-5.71,2.387-4.237,4.904c2.134,3.646,12.327-2.458,14.233-3.426c-0.457-0.251-0.914-0.503-1.371-0.754 c-0.629,1.446-0.438,3.631,1.529,3.869c1.856,0.226,3.175-0.123,4.819-0.997c1.723-0.915,3.724-3.865,5.648-4.144 c-0.286-0.297-0.572-0.595-0.858-0.892c-0.723,1.63-1.854,5.047,0.86,5.446c1.089,0.16,2.071-0.506,2.925-1.065 c0.997-0.652,1.839-1.617,2.691-2.44c0.889-0.861-0.174-1.086,0.286-0.048c2.195,4.957,18.102-3.246,17.858-6.756 c-0.247-3.564-10.76,1.764-8.159,5.209c1.637,2.167,7.152,0.959,9.192,0.646c4.405-0.676,8.869-2.034,12.635-4.457 c-0.435-0.323-0.87-0.646-1.305-0.969c-1.501,1.369-5.362,6.52-0.581,5.529c2.042-0.422,6.91-6.758,2.924-6.503 c-0.49,0.032-1.184,0.427-1.038,1.016c1.727,6.978,15.337,3.045,17.662-1.417c0.727-1.394-0.932-0.465-0.536,0.523 c0.209,0.522,0.562,1.248,1.046,1.573c1.172,0.787,2.185,0.79,3.58,0.676c4.732-0.388,8.571-3.172,11.071-7.079 c0.679-1.062-1.066-1.393-1.637-0.643c-1.331,1.754-1.637,4.047,0.029,5.672c1.832,1.786,5.214,1.813,7.56,1.889 c7.1,0.23,14.378-1.431,21.269-2.922c-0.128-0.476-0.255-0.95-0.383-1.426c-27.565,7.765-55.024,16.579-81.874,26.519 c-17.362,6.428-34.438,13.597-51.577,20.59c-7.107,2.9-14.222,5.8-21.452,8.382c-2.137,0.763-8.949,4.117-11.25,2.788 c-0.789-0.456-2.448,0.604-1.476,1.166c1.988,1.148,5.036,0.004,7.03-0.55c5.885-1.634,11.602-3.985,17.276-6.22 c18.288-7.204,36.348-14.97,54.693-22.032c29.075-11.194,59.018-20.769,89.013-29.217c1.205-0.34,0.826-1.688-0.383-1.426 c-5.956,1.29-11.953,2.441-18.047,2.791c-2.715,0.156-6.32,0.337-8.685-1.304c-1.405-0.975-1-2.881-0.106-4.058 c-0.546-0.214-1.091-0.429-1.637-0.643c-1.918,3-4.327,4.995-7.804,5.95c-2.866,0.788-3.771-0.39-5.032-2.635 c-0.149-0.267-0.539-0.322-0.808-0.316c-0.061,0.001-0.12,0.002-0.18,0.003c-0.422,0.009-0.806,0.257-1.003,0.62 c-1.854,3.413-12.923,8.313-14.429,2.227c-0.347,0.338-0.692,0.676-1.039,1.015c1.712-0.11-4.223,4.424-2.466,2.068 c0.445-0.597,1.026-1.14,1.573-1.639c1.012-0.922-0.499-1.487-1.305-0.969c-4.158,2.675-9.378,3.842-14.243,4.294 c-2.607,0.243-6.251,0.015-2.761-3.043c2.247-1.969,1.617-0.428,0.467,0.445c-2.259,1.715-5.048,3.07-7.725,4.004 c-2.237,0.779-3.249,0.409-4.41-1.223c-0.26-0.363-0.901-0.456-1.302-0.349c-0.996,0.268-1.757,1.196-2.461,1.878 c-0.667,0.646-1.345,1.257-2.069,1.84c-1.708,1.376-0.728-2.896-0.62-3.141c0.24-0.541-0.361-0.964-0.858-0.892 c-0.996,0.145-1.65,0.547-2.471,1.132c-0.874,0.622-1.676,1.38-2.506,2.06c-1.367,1.12-6.485,2.579-5.305-0.137 c0.364-0.837-0.852-1.018-1.371-0.754c-2.907,1.477-5.807,2.898-8.955,3.797c-2.471-0.81-2.69-1.536-0.655-2.18 c0.44-0.238,0.914-0.435,1.378-0.623c0.6-0.243,0.746-1.027,0.107-1.305c-2.37-1.032-6.268,2.567-8.062,3.646 c-0.706,0.425-7.996,3.424-7.688,2.478c0.451-1.385,3.292-2.761,4.395-3.455c3.533-2.226,7.263-4.146,10.953-6.095 c0.726-0.383,4.389-1.662,4.126-2.924c-0.08-0.383-0.561-0.52-0.893-0.498c-4.167,0.275-8.875,2.938-12.9,4.062 c-3.778,1.056-8.369,2.299-12.241,1.164c-2.787-0.817-1.905,1.377-2.624,2.796c-0.61,1.204-1.526,2.282-2.382,3.315 c-0.729,0.879-3.835,4.784-4.273,2.264c-0.142-0.818-0.982-1.113-1.671-1.222c-2.643-0.417-4.5,2.727-6.633,3.549 c0.474,0.187,0.949,0.372,1.423,0.559c0.13-1.801,6.648-5.77,8.009-6.854c2.397-1.911,5.665-5.213,8.169-6.356 c-0.364-0.368-0.729-0.735-1.093-1.104c-2.442,1.978-5.862,3.154-8.696,4.414c-5.391,2.397-11.469,5.245-17.41,5.829 c0.358-0.035-4.694,6.366-5.073,6.729c-1.341,1.286-3.011,2.432-4.177,3.887c-0.156,0.194-0.257,0.547-0.063,0.76 c0.007,0.008,0.014,0.016,0.021,0.022c0.347,0.379,0.873,0.392,1.321,0.18c4.532-2.135,8.474-7.578,11.958-11.056 c3.987-3.979,7.934-8.001,11.852-12.047C91.222,5.692,89.375,5.269,88.73,5.935L88.73,5.935z"/>
<path d="M143.669,5.147c0.058-0.218,0.133-0.431,0.213-0.641c0.071-0.189,0.156-0.372,0.25-0.551 c0.306-0.59,0.561-0.204-0.553-0.114c0.434-0.035,0.985-0.142,1.284-0.495c0.287-0.34-0.244-0.466-0.491-0.446 c-0.937,0.076-1.63,0.457-2.109,1.256c-0.234,0.391-0.395,0.842-0.512,1.28C141.598,6.007,143.517,5.716,143.669,5.147 L143.669,5.147z"/>
<line fill="none" x1="76.889" y1="33.165" x2="77.648" y2="31.963"/>
<path d="M77.802,33.236c0.253-0.4,0.506-0.802,0.759-1.202c0.256-0.406-0.218-0.679-0.561-0.706 c-0.467-0.037-1.008,0.156-1.266,0.563c-0.253,0.4-0.506,0.802-0.759,1.202c-0.256,0.406,0.218,0.679,0.561,0.706 C77.003,33.837,77.545,33.644,77.802,33.236L77.802,33.236z"/>
<path d="M99.132,27.563c0.005-0.028,0.012-0.057,0.019-0.084c0.019-0.069,0.014-0.058-0.014,0.034 c0.02-0.064,0.045-0.128,0.07-0.19c0.064-0.159,0.082-0.169,0.127-0.224c-0.148,0.176-0.799,0.088-0.473,0.225 c0.806,0.337,2.251-0.818,1.118-1.293c-1.304-0.545-2.564,0.396-2.804,1.683C96.997,28.672,98.972,28.42,99.132,27.563 L99.132,27.563z"/>
</svg>