<?xml version="1.0" encoding="utf-8"?>
<!-- Generator: Adobe Illustrator 14.0.0, SVG Export Plug-In . SVG Version: 6.00 Build 43363)  -->
<svg version="1.2" baseProfile="tiny" id="Layer_1" xmlns="http://www.w3.org/2000/svg" xmlns:xlink="http://www.w3.org/1999/xlink"
	 x="0px" y="0px" width="330.776px" height="313.494px" viewBox="0 0 330.776 313.494" xml:space="preserve">
<g>
	<g>
		<path fill-rule="evenodd" d="M324.585,214.899c2.475-9.479,0.516-21.185,0.917-32.103c0.158-4.316,1.188-8,0.688-12.611
			c-1.098-10.117-5.146-21.84-8.483-31.873c-6.965-20.931-15.893-37.617-24.994-55.72c-4.225-8.403-11.366-16.433-18.114-22.242
			c-14.813-12.749-29.247-23.479-46.318-34.395c-15.967-10.209-34.319-21.5-55.491-25.223c-9.8-1.723-20.606-0.152-29.35,2.064
			c-17.099,4.334-30.295,15.28-44.025,22.93c-7.856,7.795-16.609,14.172-24.535,22.013c-5.078,5.024-10.702,9.668-15.363,14.905
			c-5.728,6.435-12.304,14.16-16.493,20.039c-8.049,10.58-16.716,22.079-22.391,32.572c-6.493,12.006-14.037,28.626-16.606,38.879
			c-3.429,13.68-5.299,40.143,0.688,56.408c6.14,16.679,21.749,28.696,33.019,40.586c11.983,12.641,26.531,23.772,40.357,33.478
			c12.405,8.707,28.342,17.38,43.567,22.013c48.784,14.844,107.727,3.299,147.439-12.383c2.913-1.149,8.483-4.585,11.007-4.356
			c4.833,0.438,6.786,7.578,11.924,8.484c5.879-2.197,1.964-12.239,5.962-15.821c2.673-2.396,7.004,0.15,10.089-1.835
			c-0.747-4.374-5.943-4.299-8.714-6.649c5.356-14.547,14.313-29.546,20.179-44.255c1.278-3.204,3.367-12.9,7.108-8.025
			c-0.318,3.804-4.246,6.205-3.439,9.631c3.017-2.416,7.504-5.892,7.566-12.612C329.982,216.228,326.336,216.51,324.585,214.899z
			 M290.649,292.172c-2.085-0.43-5.764-2.482-5.503-4.356c0.209-1.509,4.749-3.307,6.42-2.063
			C291.313,287.945,291.363,290.441,290.649,292.172z M319.541,210.542c-0.813,4.381-2.171,7.22-6.649,8.025
			c-4.822,0.867-10.489,1.306-16.051,2.293c-2.494,0.442-4.867,1.549-7.338,1.834c-5.374,0.621-10.325,1.96-14.904,2.522
			c-2.426,0.298-10.286,1.509-11.924,1.146c-2.599-0.575-4.94-7.218-5.962-10.777c-2.348-8.185-4.738-18.94-5.732-27.058
			c-2.657-21.702-4.568-49.067-2.98-71.312c1.024-14.359,3.182-29.549,4.815-44.484c0.314-2.875,4.629-17.289-2.064-15.592
			c-1.962,0.498-3.014,11.478-3.439,14.675c-0.406,3.052-0.11,5.801-0.458,9.401c-1.431,14.777-3.313,31.893-3.898,48.841
			c-0.533,15.42-0.006,28.659,1.605,42.649c2.069,17.969,5.661,39.963,11.923,54.114c-2.371,1.547-6,2.187-8.942,2.752
			c-6.793,1.307-14.068,2.304-20.637,4.356c-2.124,2.447,0.554,8.419,4.586,7.797c1.449-0.224,1.767-2.444,3.439-3.211
			c4.936-2.261,9.9-1.93,15.821-3.668c3.695-1.085,6.271-2.854,8.484-2.522c2.462,0.367,3.445,2.795,5.503,2.293
			c1.445-0.353,1.348-2.049,2.522-2.981c15.238-3.834,30.708-7.07,47.007-9.172c1.319,3.655-0.599,7.709-2.064,11.236
			c-4.618,11.118-10.903,21.281-15.134,32.561c-1.266,3.375-2.504,9.841-4.356,11.693c-1.635,1.636-6.073,2.585-8.713,3.898
			c-1.477,0.734-2.446,1.957-3.898,2.063c-3.15,0.232-4.873-2.439-7.566-2.293c-0.305,2.656,3.492,2.049,2.521,4.815
			c-0.201,0.573-4.428,2.762-4.814,2.981c-7.403,4.181-16.958,6.615-25.682,9.4c-12.011,3.835-26.007,7.938-39.669,9.86
			c-21.076,2.965-42.334,2.808-62.599-0.229c-31.628-4.74-53.053-18.141-75.898-34.624c-15.059-10.865-27.74-24.578-39.898-38.293
			c-4.275-4.822-8.867-9.377-12.153-13.987c-7.206-10.111-11.76-24.397-12.153-39.669c-0.257-10.001,2.445-23.502,3.878-28.374
			c2.305-7.835,11.875-29.563,16.813-38.375c5.433-9.696,22.981-33.188,24.71-35.289c5.682-6.906,12.72-13.345,18.803-18.803
			c-3.464,12.646-0.925,26.132,1.146,38.293c-7.654,4.563-18.243,9.691-25.682,16.051c-2.464,2.107-11.121,9.329-10.777,12.841
			c0.384,3.927,8.017,5.628,11.923,4.586c-1.164-1.71-4.992-2.479-5.044-4.815c-0.036-1.575,2.305-2.502,3.439-4.127
			c0.376-0.538,0.774-2.261,1.146-2.751c1.126-1.484,3.7-2.518,5.732-3.898c6.031-4.095,13.481-9.73,19.72-12.153
			c3.941,9.931,4.425,19.707,5.732,31.185c1.015,8.906,2.507,19.729,3.21,30.039c1.354,19.85,5.627,37.274,9.86,54.114
			c1.289,5.129,4.131,13.234,4.127,17.656c-0.003,3.759-2.682,8.55-1.146,12.152c1.55,1.116,2.564-1.892,3.669-0.458
			c-0.23,2.685-2.347,6.242,1.605,6.42c4.008-3.489,0.776-10.393,0.917-14.904c0.118-3.789,1.85-7.993,2.293-12.153
			c0.327-3.07,0.417-6.171,0.917-8.942c2.191-12.122,10.507-25.799,17.197-33.019c1.388-1.498,3.407-3.688,4.815-4.815
			c1.997-1.598,7.312-5.185,9.86-4.815c3.784,0.548,5.622,11.822,6.42,16.739c1.22,7.511,3.415,13.428,2.751,19.948
			c-0.396,3.892-4.275,10.187-3.669,16.51c0.52,5.42,3.629,5.117,6.65,2.522c2.967-10.915,1.632-24.613,6.879-33.248
			c6.707-9.728,12.4-20.466,22.93-26.37c4.703-2.813,8.504,0.381,11.465,2.522c0.874-9.122-8.725-8.964-14.904-5.503
			c-10.786,6.04-18.891,22.863-25.681,31.185c-3.786-10.708-2.477-25.114-11.694-30.268c-16.711,5.148-26.469,20.646-33.937,36
			c-2.559,5.263-3.783,11.527-5.962,17.197c-12.582-34.514-11.459-81.873-18.802-121.07c4.058-3.372,11.161-5.124,15.822-6.65
			c9.912-3.245,22.085-0.643,32.102-2.522c3.224-7.575-8.204-4.838-13.758-4.586c-13.999,0.636-25.928,4.535-35.312,7.567
			c-3.32-8.284-3.248-23.543,0.229-31.873c3.393,0.353,7.685-0.197,6.879-2.981c-0.572-1.977-9.836-2.222-11.465-3.439
			c2.882-3.42,6.317-6.521,9.631-9.172c7.934-6.349,16.727-14.524,25.452-20.178c7.363-6.01,21.753-13.308,27.745-16.739
			c4.373-1.529,9.045-4.1,13.987-5.044c3.83-0.732,13.532-1.854,14.675-2.064c5.218-0.955,11-0.006,15.363,0
			c16.102,4.46,29.937,10.525,42.879,18.115c12.662,7.426,25.549,16.279,37.376,25.911c11.471,9.342,23.21,19.276,31.414,31.873
			c3.769,5.788,7.188,12.804,10.318,19.49c3.12,6.666,7.125,13.094,10.089,19.949c6.03,13.951,11.914,30.288,14.217,45.86
			c0.686,4.638-0.715,8.919-1.146,13.07C318.975,190.117,321.378,200.63,319.541,210.542z"/>
		<path fill-rule="evenodd" d="M302.801,185.548c-6.242-5.105-23.917-5.404-34.854-3.21c-3.117,0.625-7.922,2.819-8.483,5.044
			c-0.571,2.263,0.759,3.876-0.917,5.274c-5.279-2.749-8.676-9.755-1.605-12.611c6.655-2.689,20.198-3.619,28.433-3.439
			c6.708,0.146,17.219,2.093,20.179,5.962c1.907,2.491,0.034,7.861-2.522,5.273C302.204,187.003,302.831,187.728,302.801,185.548z"
			/>
		<path fill-rule="evenodd" d="M301.884,187.841c0.313,2.455-2.815,3.451-4.356,4.815c-0.81-0.559-1.296-0.159-2.063,0.688
			c-0.741-0.176-1.2-0.634-1.376-1.376C296.926,190.832,299.196,189.127,301.884,187.841z"/>
		<path fill-rule="evenodd" fill="#FFFFFF" d="M291.566,285.752c-0.253,2.192-0.203,4.688-0.917,6.42
			c-2.085-0.43-5.764-2.482-5.503-4.356C285.355,286.307,289.895,284.509,291.566,285.752z"/>
	</g>
</g>
</svg>
