<?xml version="1.0" encoding="UTF-8" standalone="no"?>
<!-- Created with Inkscape (http://www.inkscape.org/) -->
<svg
   xmlns:svg="http://www.w3.org/2000/svg"
   xmlns="http://www.w3.org/2000/svg"
   version="1.0"
   width="763.01367"
   height="390.25397"
   id="svg2">
  <defs
     id="defs5" />
  <path
     d="M 698.54852,390.25398 C 707.46831,379.30689 714.22345,376.47677 720.47911,369.87078 C 721.50241,369.86408 733.98723,358.1663 740.21531,351.37874 C 743.10196,348.23278 747.42148,341.64754 749.46522,332.58671 C 751.55559,323.31917 716.503,316.69908 711.80945,315.85893 C 681.69151,312.02514 612.43978,308.61488 561.01072,308.31719 C 509.68669,308.0797 467.24431,307.87389 466.69431,307.85983 C 466.14431,307.84577 456.46931,308.04847 445.19431,308.31028 C 422.50391,308.83714 418.82659,309.10854 395.69431,311.9635 C 372.71611,315.56761 349.0693,314.11454 326.19431,318.38369 C 286.55575,321.64914 247.44917,329.40531 207.9379,333.82351 C 191.56238,334.96988 176.81497,336.04044 194.17723,338.70799 C 199.57492,339.53729 198.02809,344.19971 191.73701,348.8472 L 186.27971,352.87874 L 175.98041,352.87874 C 170.31579,352.87874 164.13702,352.4359 162.2498,351.89465 C 159.92707,351.2285 155.79213,351.28248 149.45125,352.06173 C 140.69111,353.13829 139.96136,353.08865 138.19142,351.29582 C 137.15049,350.24143 136.08145,348.14866 135.81577,346.64524 C 135.12421,342.7317 134.60289,342.1667 130.43038,340.80864 C 124.5286,338.88773 113.67369,329.35999 112.56634,325.12874 C 111.63184,321.55799 112.81389,318.73909 117.49344,313.37874 C 119.89418,310.62874 122.39305,306.8231 123.0465,304.92176 C 123.69994,303.02042 125.05846,300.54542 126.06543,299.42176 C 128.74708,296.42935 129.22973,294.30894 127.70335,292.22594 C 125.99504,289.89467 118.4857,289.92539 109.42318,292.30074 C 102.08122,294.22512 96.914041,293.33822 93.347141,289.54142 C 91.326701,287.39077 91.036381,285.5951 90.071291,269.28018 C 89.337851,256.88133 89.330411,249.22706 90.047061,244.37874 C 90.665571,240.19439 90.802721,231.74745 90.388041,223.37874 L 89.694311,209.37874 L 74.864025,209.37874 C 66.707363,209.37874 61.360961,209.50548 61.204382,209.66039 C 63.052328,222.87226 64.125444,243.44335 67.600896,253.16392 C 67.682101,256.34725 71.238121,273.55889 71.482669,294.51887 C 71.677893,311.25133 71.543399,312.82614 69.749492,314.81289 C 66.519596,318.38999 64.252605,317.08772 61.16018,309.87874 C 58.623512,303.96533 58.270592,301.61896 57.249487,283.87874 C 59.349289,262.57603 51.467519,242.02561 51.194317,221.10566 L 51.194317,210.23325 L 46.944317,207.9833 C 44.606817,206.74583 37.308638,204.96147 34.283638,202.83223 C 21.448448,196.61451 12.904773,188.32227 2.9443166,177.92113 C -0.87720343,173.58009 -0.99777243,165.44891 2.6943166,161.06111 C 4.0693166,159.42701 5.1943166,157.55938 5.1943166,156.91082 C 9.9792305,149.36077 17.244481,143.35401 23.535984,136.94422 C 29.594581,130.59426 31.194317,128.57693 31.194317,127.28677 C 33.951321,122.08367 36.877732,117.59557 37.994659,111.62578 C 42.808054,97.893208 43.308043,83.214808 47.829487,69.292554 C 50.695881,63.088624 51.646076,61.878744 53.652018,61.878744 C 57.066037,61.878744 59.715791,65.790324 61.609572,73.625714 C 65.587776,90.085273 65.361867,109.04608 60.885729,134.37874 C 59.525183,142.07874 58.051905,152.65374 57.61178,157.87874 L 57.961065,199.36893 L 62.327691,200.1594 C 72.05216,201.91978 88.247768,200.32422 88.822478,199.67536 C 89.159778,199.29453 89.575171,194.05374 89.152651,183.87874 C 88.730141,173.70374 88.501621,153.90374 88.644841,139.87874 C 88.870271,117.80226 89.147661,113.84172 90.711001,110.37874 C 92.196671,107.08779 92.588271,102.93338 92.920101,86.942363 C 93.141931,76.252364 93.760211,66.689864 94.294061,65.692364 C 95.723801,63.020874 100.38503,63.388394 103.20992,66.395364 C 105.30155,68.621794 105.6621,70.264944 106.33676,80.645364 C 107.16618,93.407013 106.95602,95.643303 103.87146,106.87874 C 101.97162,113.79886 101.79956,117.40262 101.64607,153.48873 C 101.52801,181.24409 101.817,196.81969 102.64148,198.83675 C 112.43621,200.87231 124.68911,199.00633 124.50757,198.22936 C 123.57064,184.95296 126.37706,166.83074 135.10695,156.72627 C 142.26793,147.84036 152.13257,159.76701 141.36452,164.6956 C 139.18343,165.38212 138.89606,165.53479 135.25481,180.83958 L 135.86789,194.97515 C 137.04541,196.22856 140.45115,196.71253 143.4362,197.82938 C 148.33918,199.66382 150.32605,197.89344 168.53638,197.64915 L 188.69431,197.37874 L 188.3375,191.37874 C 188.10433,187.45778 187.18105,183.99271 185.67296,181.37874 C 180.37232,172.1911 179.42329,161.15606 183.78967,159.48052 C 186.48896,158.44471 193.89081,163.66159 196.8642,168.69554 C 199.39987,172.98843 199.64249,174.29551 199.77524,184.37874 L 199.92007,195.37874 L 210.30719,195.09385 C 221.96858,194.77401 280.56694,197.37297 282.02602,198.27473 C 282.94893,198.84512 293.14811,194.69987 300.33046,190.83525 C 302.33035,189.75917 305.6489,188.87874 307.70503,188.87874 C 310.8743,188.87874 312.1476,189.61779 316.06887,193.73326 C 318.61286,196.40325 321.19383,199.44075 321.80436,200.48326 C 322.87483,202.31117 323.04537,202.31636 326.58828,200.62874 C 328.60892,199.66624 331.27177,198.87874 332.50573,198.87874 C 333.73969,198.87874 335.67811,198.22818 336.81331,197.43305 C 337.94852,196.63791 340.9192,195.4732 343.41483,194.8448 C 348.43293,193.58122 351.74157,194.69468 357.66464,199.64027 C 360.49271,202.00163 361.06742,202.0907 369.66464,201.50011 C 390.10358,199.20582 410.6079,203.31036 430.93697,200.58098 C 435.80532,194.95642 452.28102,188.90852 460.30419,185.34401 C 460.10221,182.04383 460.98636,168.93915 458.74021,160.02308 C 457.95708,156.91446 456.82664,145.60374 456.26507,134.87874 C 455.50551,120.37271 454.7104,113.58603 453.16038,108.37874 C 451.66586,103.35791 450.80747,96.430823 450.12439,83.878744 C 448.64933,56.773354 447.38045,39.595634 445.76618,24.878744 C 443.81186,7.0617735 443.83968,4.5382535 446.0201,1.8455535 C 447.51685,-0.0028564937 448.46472,-0.2931065 451.27969,0.2349835 C 457.21617,1.3486735 457.32918,1.9585735 458.23808,37.788964 C 458.81805,60.652014 459.50538,72.169504 460.54102,76.378744 C 461.35295,79.678744 462.29901,85.528743 462.64338,89.378743 C 464.58482,111.08378 465.50938,118.06341 467.27966,124.37874 C 468.90283,130.16923 469.36735,136.15925 469.96809,159.04568 C 470.36751,174.26249 470.97494,184.56755 471.31793,184.91039 C 479.62945,187.50085 483.8141,191.9556 490.19431,193.89091 C 492.66931,194.54993 496.53385,196.16679 498.78217,197.48393 C 503.73285,200.38421 506.33422,200.45187 512.11197,197.83061 C 514.54168,196.72829 519.65427,195.11571 523.47329,194.2471 C 527.2923,193.37848 532.27936,191.85013 534.55563,190.85076 C 546.71847,186.69981 559.57698,184.49242 571.20904,178.86825 C 572.77826,177.75087 576.0044,176.15182 578.37824,175.31482 C 584.08189,173.30375 590.19431,167.33143 590.19431,163.7696 C 590.19431,160.00289 581.41883,155.24325 575.05184,152.9453 C 565.36911,149.45064 557.69307,147.1656 546.895,146.67703 C 525.08193,145.76567 523.9573,145.5617 524.37939,142.59339 C 524.87797,139.08718 532.18755,137.64159 548.69431,137.78472 C 563.15293,137.15495 577.23073,140.6989 590.01515,147.31809 C 591.48869,148.52315 594.43344,150.56089 596.55904,151.84639 C 602.6677,155.54074 604.9023,163.58702 601.84136,170.86684 C 600.64933,173.70185 589.1125,183.87874 587.09067,183.87874 C 586.68207,183.87874 584.96197,185.0448 583.26823,186.46999 C 581.57449,187.89518 577.9118,189.66188 575.12892,190.39599 C 570.12947,191.75393 565.744,194.4053 560.74685,195.77865 C 550.07498,201.4942 537.587,201.55104 526.51585,205.78235 C 517.56492,209.72526 518.47272,213.04493 528.98785,214.82199 C 532.6764,215.44535 539.06931,217.03178 543.19431,218.34738 C 547.31931,219.66297 552.23909,221.04956 554.12714,221.42867 C 558.62231,222.33127 576.32107,228.9962 584.56037,232.88908 C 588.13374,234.57741 592.48778,237.5879 594.23603,239.57904 C 596.95949,242.68089 597.34017,243.75457 596.89453,247.07711 C 596.60846,249.20992 595.65599,252.05138 594.77793,253.39147 C 592.56291,256.77201 577.36641,263.6635 569.85854,264.95137 C 552.83425,267.87165 536.4687,273.36665 519.43957,276.46907 C 460.92297,280.88182 535.3062,280.99214 547.69431,285.47552 L 552.69431,287.28507 C 541.16864,288.92825 535.43315,288.70029 525.80567,287.8779 C 519.48971,287.33838 505.39565,289.41701 494.03063,289.40343 L 473.36694,289.37874 L 469.03063,286.33937 C 463.45842,282.43376 462.83097,278.78256 466.95886,274.28358 C 480.57848,268.41382 503.94601,266.18983 519.69431,263.42377 C 533.59542,259.7963 548.00642,258.44232 561.92943,254.98861 C 566.75011,253.39905 572.61573,251.78299 574.96413,251.39737 C 579.62022,250.63282 582.19431,248.71069 582.19431,245.99844 C 582.19431,242.74065 579.67887,240.8144 573.56079,239.38715 C 564.07322,235.2835 553.81416,233.98229 544.04727,230.8478 C 535.42867,226.52406 514.51207,224.80865 501.59314,227.36606 C 494.41198,229.13615 487.58765,230.96094 480.166,230.98092 C 472.67663,230.84107 472.61823,228.91984 468.87215,232.75616 C 465.2728,236.44224 465.06454,238.96831 464.1535,247.96581 C 462.93628,259.98699 462.39015,262.47132 460.6466,263.91833 C 459.4973,264.87217 459.01126,264.55256 458.09044,262.23743 C 456.6299,258.56536 456.56467,243.19259 457.99479,239.69844 C 458.90604,237.47203 460.69764,235.62252 459.05624,233.53582 C 457.11157,231.06357 454.97462,232.0033 444.72808,232.58356 C 434.8704,233.14179 434.02702,233.03159 428.87833,230.51258 C 418.61374,225.49058 415.74704,219.83022 419.90412,212.79284 C 422.98649,207.57482 422.11884,207.41014 389.7721,207.07394 C 355.22383,206.71485 356.55118,206.3338 357.54235,216.32632 C 357.87254,219.65515 359.31221,225.69113 360.74162,229.7396 C 362.80538,235.5847 363.1644,237.84984 362.48514,240.7396 C 361.68804,244.13065 361.3462,244.39951 357.47086,244.68336 C 352.60131,245.04004 350.94486,243.24706 349.29024,235.82845 C 348.73205,233.32579 347.367,229.27579 346.25679,226.82845 C 345.14659,224.38111 344.22835,220.72053 344.21627,218.69384 C 344.1857,213.56412 342.59821,209.87874 340.41914,209.87874 C 338.67999,209.87874 327.0314,217.71529 325.79367,219.71797 C 325.46951,220.24247 323.38819,221.61821 321.16851,222.77517 C 311.76156,227.67835 303.09872,223.23565 304.76345,214.3619 C 306.02885,207.61673 302.30346,203.35027 298.11195,206.74435 C 296.30483,208.20767 295.68488,210.06878 295.06165,215.90155 C 294.1847,224.10892 292.78389,226.21207 288.19431,226.21207 C 283.06007,226.21207 281.66548,223.86186 281.88856,215.58544 C 281.9954,211.62175 282.34465,206.96226 282.66469,205.23101 L 283.24657,202.08327 L 265.97044,202.34439 C 256.46857,202.48801 238.39405,202.20403 225.80485,201.71334 C 204.98088,200.90168 201.78436,200.49154 200.0917,202.02338 C 199.95656,204.10686 198.75404,206.91551 201.06157,213.59412 C 203.05947,219.37657 203.20087,224.97212 201.61532,222.805 C 200.60227,221.42037 198.39238,216.12172 196.51348,213.76691 C 186.15956,203.94114 180.52775,224.17307 175.44431,214.08879 C 170.42431,216.61025 164.44087,218.98295 162.03215,219.40731 C 160.38565,219.69738 158.02612,220.59806 156.78875,221.40882 C 155.55137,222.21958 151.87392,223.3665 148.61664,223.95754 C 139.22416,225.66181 134.9441,229.50908 137.32688,234.10571 C 138.82866,238.32643 141.71594,240.19394 145.5671,242.29936 C 150.993,245.0916 152.06557,245.25786 169.96838,246.08176 C 180.26764,246.55574 189.95086,246.65951 191.44431,246.90003 C 219.83558,251.47238 236.56498,247.90807 233.35535,251.1177 C 231.15444,253.31861 191.65544,257.16537 170.19431,257.26889 C 154.88259,258.85055 143.7356,256.28456 132.18396,246.66868 C 126.27528,241.4094 126.2407,241.34631 126.21757,235.78428 C 126.0045,224.19482 137.66884,218.32889 146.97379,214.36605 C 151.22008,212.84855 155.30362,211.04273 156.04834,210.35311 C 158.07814,208.47348 148.9113,207.68483 124.06646,207.60164 C 106.89803,207.54416 102.86135,207.79315 102.12604,208.95497 C 100.68547,211.23112 100.93979,279.22422 102.39431,280.67874 C 104.20724,282.49167 112.15923,282.07773 116.90473,279.92339 C 119.26074,278.85382 123.88529,277.8966 127.40473,277.75003 C 137.47621,277.33059 140.75523,280.13669 141.77023,290.04369 C 142.43186,296.50158 142.34096,296.86676 138.07142,304.9028 C 135.66401,309.43399 131.94133,315.13818 129.79879,317.5788 C 125.13395,322.89264 124.84422,322.44761 138.19431,330.4745 C 148.9132,336.91935 151.81965,337.33569 162.09619,333.89841 C 165.17516,332.86857 169.26931,331.71776 171.19431,331.34106 C 226.67444,321.34414 284.30391,313.76972 340.69431,307.89326 C 403.07717,300.71445 465.89985,302.50091 528.69431,302.44355 C 589.20072,297.85677 687.98931,302.60046 706.84679,304.49652 C 725.70427,306.39258 772.73872,314.7083 761.22142,336.82559 C 748.99887,360.29722 722.74944,378.04225 698.54852,390.25398 z M 184.83757,344.36601 C 186.31077,340.52691 178.99985,337.79773 172.75949,339.85723 C 169.07171,341.07431 168.32074,342.60517 170.39431,344.67874 C 172.23266,346.51709 184.11082,346.2599 184.83757,344.36601 z M 461.87881,199.08777 C 460.78621,198.41251 445.13674,205.3221 440.40941,208.92781 C 438.37429,210.48007 437.19431,216.73771 437.19431,217.49743 C 437.19431,218.25715 437.30681,218.90698 437.44431,218.9415 C 439.37838,219.42703 459.58091,222.14451 461.25078,222.23795 C 460.67893,219.75197 460.95829,203.5882 461.87881,199.08777 z M 486.8585,220.11711 C 498.13959,219.67743 499.06222,219.49185 499.56719,217.56084 C 500.41387,214.32315 499.66114,208.0096 491.92907,206.07104 L 470.19431,200.62177 C 470.38368,207.48247 469.7002,214.46397 470.89208,221.24317 C 475.96819,221.23028 481.59156,220.36472 486.8585,220.11711 z M 49.579943,148.87874 C 50.325716,130.11874 51.084614,125.15744 55.300667,111.47952 C 56.526611,107.50225 56.428559,93.184943 55.159133,90.813003 C 53.871405,88.406863 52.324828,88.328623 51.516698,90.628743 C 44.511294,101.67606 46.389685,115.85521 41.194317,127.18828 C 41.194317,127.94305 39.169317,130.70438 36.694317,133.32456 C 34.219317,135.94475 32.194317,138.54166 32.194317,139.09548 C 32.194317,139.6493 29.719317,142.36934 26.694317,145.14 C 23.669317,147.91067 21.194317,150.69991 21.194317,151.33832 C 21.194317,151.97673 19.87514,153.84835 18.262813,155.49748 C 14.445176,159.40225 11.777092,166.08025 12.648104,169.55063 C 18.351085,178.18015 40.076183,191.45478 50.119883,196.08829 C 51.150089,192.71268 49.289821,157.03023 49.579943,148.87874 z M 255.19431,291.97615 C 240.27666,290.19758 240.8511,290.42241 236.4581,284.64296 C 228.51202,274.18906 229.30497,271.64723 245.33082,256.201 C 252.85419,250.28944 261.9072,246.5944 270.69431,242.97035 C 277.4688,239.68566 290.21714,235.32355 297.69431,233.73174 C 305.04963,232.16586 315.71308,233.40668 320.86927,236.42841 C 325.11198,238.9148 332.00378,248.06253 329.27437,248.44506 C 328.07044,248.61379 324.5433,241.75772 317.55888,241.98201 C 308.28401,240.87168 301.21337,244.35536 293.19431,248.37641 C 290.71931,249.30703 286.66931,250.73334 284.19431,251.54598 C 269.54466,256.35605 261.3965,259.6817 258.72452,261.9414 C 257.05791,263.35086 253.58667,265.71483 251.01066,267.19467 C 243.84448,271.31142 243.55857,274.78665 250.01896,279.24867 C 253.51956,281.66643 254.71658,281.84031 275.19431,282.90564 C 287.01931,283.52081 309.96931,284.02221 326.19431,284.01986 C 356.46389,284.01546 364.40152,284.79162 360.82586,287.40621 C 359.80613,288.15185 354.14282,288.92127 346.90072,289.29809 C 340.18719,289.6474 331.09431,290.56902 326.69431,291.34613 C 312.82139,293.7963 298.15399,294.94618 284.04328,294.68984 C 274.30003,295.05544 264.7991,293.16815 255.19431,291.97615 z"
     id="path2384"
     style="fill:#000000" />
</svg>
