<?xml version="1.0" encoding="UTF-8" standalone="no"?>
<svg xmlns="http://www.w3.org/2000/svg" version="1.1" width="200" height="45">
<path fill="#231f20" d="M 17.778408,1.2194903 C 15.836968,5.9875745 13.738364,10.697878 11.52882,15.34809 9.971045,18.625426 8.313887,21.863471 6.460274,24.985954 5.471064,26.652357 2.961059,31.702412 2.246887,28.025232 2.038875,26.952818 -0.19840297,27.532938 0.01423103,28.626154 1.504979,36.283287 8.124366,26.118461 9.43946,23.841891 13.537286,16.741766 16.835423,9.0892563 19.923237,1.5037722 20.41322,0.29268327 18.166696,0.26494827 17.778408,1.2194903 l 0,0 m 13.056185,4.5323379 c -3.198754,6.8273978 -6.441421,13.6363058 -9.790405,20.3920558 -0.901383,1.818945 -1.82819,3.626333 -2.824333,5.396742 0.281971,-0.50385 2.218788,-5.31816 3.242667,-7.046966 1.449146,-2.442979 12.157113,-2.479959 11.995327,2.350529 -0.06471,1.983043 -1.784276,3.416011 -1.758853,5.440655 0.0023,0.171032 0.307395,0.256548 0.422957,0.272726 7.021542,0.979965 17.075428,-13.832761 20.88666,-18.099307 0.610167,-0.684126 -1.620178,-0.494605 -2.068558,0 -3.062391,3.411388 -16.9668,17.167878 -11.928301,21.979877 3.624022,3.464546 14.225672,-6.018465 16.543844,-7.962216 0.984587,-0.825112 -1.275804,-0.677193 -1.770409,-0.29815 -1.800454,1.384432 -8.805818,6.050822 -5.932948,8.662521 3.520016,3.201065 11.701799,-6.820464 12.50611,-0.381354 0.02311,0.173343 0.291216,0.251925 0.425268,0.272726 8.713368,1.245757 15.956789,5.956061 24.4321,-0.552386 0.991521,-0.760398 -1.252692,-0.695683 -1.770409,-0.29815 -4.481491,3.441434 -7.553127,1.439902 -12.774214,0.446069 -2.68797,-0.510784 -7.846654,-0.01618 -8.503045,-3.372097 -0.03467,-0.16872 -0.27966,-0.256547 -0.425268,-0.270414 -2.741129,-0.26117 -5.167929,1.146374 -7.654822,2.181808 -4.684879,-0.478426 -5.112459,-1.858235 -1.278114,-4.137116 0.76502,-0.674882 1.548529,-1.326651 2.35284,-1.955308 -0.48536,0.3906 -3.628644,1.206467 -4.862845,2.142518 -1.315095,0.998455 -11.79656,7.178706 -9.494567,0.399844 1.093216,-3.219554 3.667935,-6.270389 5.671779,-8.974538 1.569331,-2.112472 3.277336,-4.125561 4.98303,-6.127093 4.435266,-5.20722 -5.791964,4.042356 -6.385952,4.680258 1.257314,-1.352075 -11.308889,10.45142 -10.481465,8.431397 0.307394,-0.751152 1.879036,-3.771941 1.077037,-4.957606 -2.038513,-3.002298 -6.940649,-2.803532 -10.217985,-2.801221 -4.587808,0.0023 -10.939091,6.589341 -8.197962,11.258042 0.374421,0.637902 1.564708,0.180277 2.001532,-0.147919 2.822022,-2.117094 4.474558,-7.772694 5.939883,-10.763437 2.676414,-5.461456 5.276557,-10.962203 7.855899,-16.4721957 0.293527,-0.6032332 -1.897527,-0.3721094 -2.216478,0.3097059 l 0,0 m 70.707717,9.2865558 c -5.382878,5.828943 -10.717216,11.803494 -15.404407,18.212558 -1.090905,1.490749 -4.398287,5.211842 -2.087049,6.908291 1.959931,1.43759 5.325093,-1.562397 6.577785,-2.780419 0.940674,-0.915251 -1.259625,-0.906006 -1.795833,-0.383666 -0.483048,0.469181 -2.761929,2.789665 -3.37903,1.432968 -0.330507,-0.718795 0.825112,-2.193365 1.157931,-2.745751 1.712627,-2.840512 3.90137,-5.43141 5.999974,-7.992262 3.439123,-4.19952 7.046966,-8.278856 10.731079,-12.270365 0.89214,-0.968409 -1.28736,-0.936051 -1.80045,-0.381354 l 0,0 m 11.13785,-0.122496 c -5.39212,6.804286 -10.78655,13.610883 -16.178665,20.415168 0.663325,0.145608 1.328962,0.286594 1.994599,0.432202 1.622486,-2.789665 4.319706,-7.534637 2.727266,-10.786549 -0.91063,-1.853613 -3.709543,-1.620178 -5.304297,-1.033124 -1.520795,0.557009 -3.050834,2.001533 -1.728806,3.568552 2.958385,3.503838 11.223373,3.515394 15.175593,3.91986 1.06779,0.11094 2.29275,-1.428345 0.7812,-1.585509 -4.04929,-0.418334 -8.20259,-0.848224 -12.0508,-2.25808 -0.91294,-0.335129 -3.235734,-1.49306 -1.456081,-2.278881 5.313541,-2.348218 0.707239,8.533092 -0.275037,10.217985 -0.610167,1.049302 1.516172,1.035434 1.994599,0.432201 5.392119,-6.804285 10.786549,-13.610882 16.178669,-20.415168 0.88058,-1.109394 -1.24345,-1.402922 -1.85824,-0.628657 l 0,0 m 2.95377,19.444448 c 0.64252,0.12943 1.28504,0.256548 1.92526,0.385977 0.53389,0.106317 1.17873,-0.04391 1.58088,-0.425268 0.33745,-0.321262 0.24731,-0.760397 -0.23112,-0.857469 -0.64252,-0.129429 -1.28505,-0.256548 -1.92526,-0.385977 -0.5339,-0.106317 -1.17873,0.04391 -1.58089,0.425268 -0.33975,0.321262 -0.24961,0.760397 0.23113,0.857469 l 0,0 m 31.04224,-21.244902 c 9.14325,-0.441447 19.91593,-2.681037 26.51683,-9.4483427 0.61479,-0.6286568 -1.604,-0.455314 -2.06394,0.013867 -5.80351,5.9468161 -15.49916,7.8790117 -23.55844,8.2696107 -0.75116,0.03698 -2.39214,1.236513 -0.89445,1.164864 l 0,0 m 16.0839,-2.429111 c -5.23958,4.899825 -10.60396,9.674844 -16.08159,14.301943 -3.44144,2.909849 -6.94758,5.78503 -10.69872,8.290412 -0.41603,0.277348 -2.99075,2.047757 -2.92834,1.282737 0.14329,-1.696449 1.57626,-3.570863 2.42218,-4.96454 0.63327,-1.044679 -1.64098,-1.02619 -2.12634,-0.226501 -0.4923,0.813556 -4.61786,6.919847 -1.3151,7.109369 3.43912,0.198766 7.218,-3.429878 9.70489,-5.332027 8.00844,-6.115536 15.52227,-12.966047 22.87663,-19.848915 1.01233,-0.940674 -1.16255,-1.259625 -1.85361,-0.612478 l 0,0 m -28.47676,25.287259 c 4.11862,-0.214946 8.31121,-0.529274 12.35357,-1.368253 4.34281,-0.901383 7.1787,-4.204143 11.53076,-4.79582 1.14869,-0.154853 1.78659,-1.631734 0.25193,-1.421411 -1.74268,0.238057 -3.58704,0.582432 -5.20029,1.294293 -1.75654,0.771954 -2.8798,2.479959 -4.58549,3.050835 -4.38211,1.467636 -9.5015,1.580887 -14.09393,1.818944 -1.18336,0.06009 -1.7889,1.499994 -0.25655,1.421412 l 0,0 m 12.87822,-1.183354 c 0.3698,1.876725 1.92064,2.810465 3.8251,2.299682 0.84822,-0.293528 1.64791,-0.695683 2.39675,-1.208778 3.53157,-1.848991 1.61787,-1.255002 1.43297,-1.890593 0.2889,0.996144 0.47842,1.562397 1.35438,2.017711 6.89211,3.589353 22.664,-11.022295 26.73641,-14.137844 1.24113,-0.94992 -0.61711,-1.483816 -1.46302,-0.947608 -6.37902,4.028488 -12.56158,8.64172 -17.60932,14.274208 -1.03313,1.153307 -6.07163,10.185627 -1.18105,9.790405 5.03157,-0.406778 7.97378,-9.254198 9.40906,-13.081609 1.2342,-3.288892 9.30966,-2.752685 12.31196,-3.610154 5.70414,-1.627112 10.68254,-5.768851 15.09239,-9.508435 1.19029,-1.010011 -0.6171,-1.506927 -1.46302,-0.947607 -5.50537,3.62171 -15.48529,8.875155 -17.47758,15.663262 -0.54314,1.858235 2.03851,2.082426 3.11093,2.024645 5.25806,-0.293528 5.00152,-5.482258 11.36436,-2.623256 0.8852,0.397533 2.58858,-0.871337 1.30353,-1.449146 -2.62556,-1.178732 -3.37672,-3.790431 -6.22416,-1.904461 -0.95454,0.591677 -1.86979,1.243447 -2.73882,1.959931 -1.25038,1.747296 -2.26732,1.497682 -3.05083,-0.744219 2.24652,-2.819711 5.48225,-5.022321 8.34357,-7.18564 1.72187,-1.301227 3.50383,-2.533118 5.28349,-3.755763 0.45069,-0.307394 0.90369,-0.610167 1.35901,-0.912939 -3.09706,2.061625 -8.07085,4.326639 -11.41752,6.240344 -4.22263,2.415244 -8.39211,2.662547 -13.05156,2.130962 -0.85516,-0.09707 -1.96456,0.214945 -2.66024,0.718795 -2.859,2.063936 -4.15098,8.264988 -5.82663,11.299644 -3.5778,6.478401 -2.98843,-0.483049 -0.63559,-3.501526 2.49614,-3.205688 5.87054,-5.743427 9.05312,-8.223386 1.84668,-1.439901 3.77887,-2.773486 5.71107,-4.093203 5.44759,-3.725717 -3.06933,0.517717 -4.71493,1.731117 -2.28581,1.684893 -17.2349,13.197171 -18.83197,7.680245 -0.22419,-0.776576 -1.38211,-0.457625 -1.84667,-0.175654 -1.50924,0.917562 -5.21416,3.760385 -5.66254,1.47457 -0.19183,-0.991521 -2.43142,-0.418334 -2.23265,0.5963 l 0,0 z" />
</svg>
