<?xml version="1.0" encoding="UTF-8"?>
<svg version="1.1" xmlns="http://www.w3.org/2000/svg" width="669" height="300" >
<path fill="#231F20" d="M4.823,80.375c-0.727,21.289,1.19,42.909,4.524,63.907c5.199,32.747,15.566,70.157,43.086,91.271 c1.771,1.358,3.644,2.578,5.552,3.732c0.994,0.601,2.55,0.7,3.533,0c23.459-16.717,48.425-32.275,74.639-44.259 c7.819-3.575,15.926-6.717,24.328-8.612c6.285-1.419,12.978-0.69,18.194-5.092c9.665-8.153-1.748-24.392-6.955-31.527 c-5.801-7.95-12.42-15.453-19.498-22.295c-3.245-3.137-8.2,1.808-4.949,4.949c7.062,6.827,13.687,14.301,19.416,22.276 c3.594,5.005,7.259,10.568,8.407,16.722c1.049,5.623-4.617,6.705-8.976,7.049c-16.907,1.333-33.488,10.02-48.248,17.735 c-16.002,8.366-31.409,17.89-46.462,27.849c-4.518,2.989-9.018,6.017-13.43,9.16c1.178,0,2.355,0,3.533,0 c-29.531-17.855-39.715-57.019-45.085-88.768c-3.552-20.997-5.338-42.781-4.61-64.099C11.978,75.858,4.977,75.874,4.823,80.375 L4.823,80.375 M119.377,72.626c-5.144-2.448-7.115-6.772-4.673-11.62c4.268-8.467,14.506-14.088,22.471-18.555 c21.021-11.79,44.257-19.746,67.082-27.2c4.271-1.395,2.442-8.155-1.861-6.75c-22.839,7.459-45.838,15.555-67.052,26.971 c-9.416,5.067-19.76,11.238-25.756,20.401c-5.352,8.178-2.646,17.603,5.552,22.417c0.229,0.135,0.464,0.266,0.704,0.381 C119.896,80.601,123.451,74.566,119.377,72.626L119.377,72.626 M399.591,5.39c-1.218,2.452-1.063,5.623-1.057,8.276c0.024,10.961,1.703,21.979,3.316,32.79 c3.834,25.692,9.145,51.17,14.697,76.536c10.262,46.873,21.897,93.444,33.939,139.888c2.885,11.128,5.807,22.247,8.749,33.361 c2.133-0.899,4.265-1.798,6.397-2.697c-16.828-22.807-43.048-40.37-69.883-48.702c-27.009-8.385-57.932-1.938-83.231-16.669 c-7.298-4.249-12.684-10.782-12.609-19.526c0.112-13.144,10.235-25.546,18.382-34.874c17.739-20.31,39.72-36.349,61.137-52.48 c20.109-15.147,39.775-30.885,58.85-47.318c9.696-8.354,19.169-16.956,28.689-25.508c4.631-4.16,9.14-8.94,14.641-11.646 c-0.687,0.338,1.89-0.39,0.611-0.255c1.056-0.111-0.091-0.199,0.208-0.014c-0.104-0.065-0.188-0.226,0.148,0.336 c0.716,1.198,0.299,0.395,0.777,1.874c1.965,6.074,2.612,12.667,3.744,18.928c0.803,4.438,7.548,2.552,6.75-1.861 c-1.428-7.896-2.175-31.741-15.998-24.94c-7.099,3.491-13.171,10.222-18.959,15.445c-12.862,11.608-25.821,23.092-39.128,34.191 c-21.936,18.296-45.047,34.984-67.49,52.622c-17.559,13.799-34.97,28.854-48.036,47.125c-6.717,9.392-12.749,21.14-10.989,33.039 c1.372,9.281,7.952,16.244,15.739,20.907c24.146,14.462,53.362,9.438,79.524,15.879c19.513,4.803,37.456,15.098,52.67,28.072 c4.851,4.136,9.422,8.606,13.7,13.332c1.274,1.408,2.511,2.851,3.713,4.32c0.351,0.43,0.695,0.863,1.036,1.301 c-0.681-0.873-0.198-0.257-0.041-0.044c2.261,3.064,7.474,1.368,6.397-2.697c-13.479-50.906-26.509-101.946-38.224-153.291 c-6.547-28.695-12.767-57.508-17.591-86.549c-2.089-12.579-4.086-25.136-4.574-37.922c-0.091-2.369-0.128-4.759,0.089-7.123 c0.139-1.507-0.189,0.734,0.103-0.701c0.044-0.215,0.094-0.432,0.171-0.638c0.133-0.36-0.48,1.081-0.324,0.767 C407.637,4.894,401.599,1.347,399.591,5.39L399.591,5.39 M435.669,140.352c3.185,9.58,8.028,19.373,15.056,26.697c4.321,4.503,10.438,7.776,16.819,6.563 c9.907-1.886,14.747-11.592,21.42-18.017c5.218-5.022,11.723-7.299,16.366-0.665c1.503,2.146,2.706,4.634,3.309,7.19 c2.388,10.118,10.076,18.689,21.216,16.187c10.936-2.457,18.104-12.937,25.831-20.06c3.815-3.518,9.853-8.073,14.123-3.046 c4.23,4.98,5.602,15.676,5.013,22.071c-0.823,8.935,8.021,11.609,15.211,9.859c11.301-2.751,19.974-11.296,30.206-16.249 c8.334-4.033,17.652-3.991,25.61,0.75c5.47,3.259,10.225,8.711,13.027,14.437c1.985,4.054,8.021,0.504,6.045-3.533 c-4.524-9.239-13.111-17.02-22.836-20.278c-8.941-2.996-18.443-0.776-26.666,3.203c-9.603,4.648-18.145,13.942-29.186,15.336 c-1.697,0.214-3.188-0.088-3.817-0.718c-0.172-0.172-0.58-1.453-0.598-1.679c-0.127-1.63-0.04-3.291-0.146-4.928 c-0.579-8.926-2.266-23.561-12.256-27.02c-6.574-2.277-12.947,2.015-17.773,6.046c-7.65,6.39-14.748,18.812-25.847,19.372 c-7.713,0.39-9.164-8.869-11.292-14.32c-1.91-4.892-4.818-9.555-9.429-12.294c-6.938-4.123-14.547-0.117-20.027,4.458 c-6.401,5.344-11.473,17.647-21.255,17.129c-5.956-0.316-10.67-7.291-13.503-11.749c-3.265-5.136-5.95-10.823-7.872-16.604 C441.002,134.229,434.241,136.056,435.669,140.352L435.669,140.352z"/>
</svg>