<?xml version="1.0" encoding="UTF-8"?>
<svg version="1.1" xmlns="http://www.w3.org/2000/svg" width="683" height="219" >
<path d="M44.982,127.254c7.255-8.591,14.811-16.956,22.649-25.018c4.978-5.12,10.095-10.309,15.93-14.46 c0.619-0.44,1.551-1.068,2.091-1.302c-0.658,0.285-2.037-0.022-1.873,0.259c0.62,1.06,0.12,2.742-0.122,3.824 c-2.842,12.714-10.672,25.099-17.306,36.099c-8.397,13.924-18.083,28.379-30.61,38.956c-2.798,2.362-7.352,6.549-11.41,5.49 c-3.824-0.998-6.456-4.991-8.229-8.227c-6.432-11.737-7.824-26.469-8.268-39.586c-1.165-34.474,8.1-75.57,36.106-98.272 c16.186-13.12,39.817-23.334,60.981-20.933c16.539,1.877,28.059,13.831,30.14,30.146c1.357,10.639-1.558,21.276-4.514,31.393 c-3.611,12.358-8.443,24.412-14.442,35.803c-4.057,7.703-8.981,16.313-16.139,21.573c-1.633,1.2-2.419,0.681-4.249-1.469 c-2.584-3.037-3.291-7.882-3.906-11.654c-0.323-1.975-8.101-0.219-7.728,2.07c0.995,6.092,2.719,14.255,9.922,15.358 c6.576,1.007,12.903-3.875,17.1-8.295c7.207-7.591,12.254-17.471,16.659-26.852c5.901-12.567,10.313-25.858,13.513-39.356 c3.9-16.452,1.94-35.303-12.882-45.663C113.317-3.4,91.995-0.573,75.609,4.793C55.674,11.323,36.384,22.32,23.607,39.262 C12.827,53.557,6.593,70.894,3.123,88.315c-3.28,16.466-4.02,33.637-2.013,50.308c1.305,10.839,3.676,24.082,11.505,32.332 c7.423,7.821,19.484,2.438,26.711-2.826c12.527-9.125,21.917-22.822,30.265-35.641c7.971-12.24,15.665-25.356,20.543-39.185 c0.791-2.242,2.797-6.916,1.041-9.147c-2.563-3.255-9.626,0.453-12.131,2.03c-9.6,6.042-17.568,15.23-25.224,23.466 c-5.435,5.847-10.753,11.816-15.904,17.916C36.09,129.728,43.66,128.82,44.982,127.254L44.982,127.254 M117.566,158.701c-14.809-7.931-34.661,1.189-37.177,18.082c-0.927,6.226,4.75,6.689,9.517,5.632 c11.63-2.578,22.219-13.422,30.581-21.093c-2.293,0.052-4.586,0.105-6.879,0.157c-1.953,3.644-3.378,8.583-1.652,12.541 c2.59,5.943,11.883,5.316,17.022,3.986c13.852-3.584,26.739-13.629,38.255-21.667c14.598-10.188,28.72-21.085,42.531-32.312 c4.141-3.366,8.278-6.752,12.252-10.315c2.409-2.16,5.376-6.135-0.451-5.303c-5.348,0.764-10.348,4.577-14.617,7.606 c-8.289,5.881-15.759,12.986-22.458,20.606c-8.563,9.741-14.916,21.038-21.246,32.29c-1.992,3.541-3.964,7.12-5.574,10.854 c-0.543,1.259-1.726,3.729-0.881,5.095c2.375,3.837,10.27-1.016,12.734-2.554c5.283-3.297,10.273-6.87,15.758-9.85 c6.261-3.401,12.759-6.376,19.465-8.787c4.432-1.593,10.506-3.878,15.253-2.395c9.826,3.069-2.653,21.813-5.107,25.714 c2.465-0.216,4.93-0.431,7.396-0.646c5.318-12.941,16.584-23.992,28.535-30.78c4.51-2.562,12.976-7.099,11.966,1.757 c-1.058,9.278-7.523,18.568-12.396,26.17c-1.738,2.71,5.93,1.684,7.109-0.156c5.452-8.503,13.119-19.208,13.122-29.77 c0.002-8.359-11.631-5.251-16.184-3.638c-16.758,5.938-33.016,20.963-39.833,37.554c-0.915,2.226,6.44,0.872,7.396-0.646 c4.441-7.057,17.18-27.047,1.615-29.592c-12.45-2.035-27.045,5.487-37.806,10.79c-5.502,2.711-10.879,5.725-15.96,9.165 c-2.572,1.741-5.083,3.561-7.823,5.036c-1.442,0.777,2.264,0.049,2.312,0.184c-0.269-0.761,0.303-1.909,0.546-2.605 c3.512-10.037,10.22-19.746,15.774-28.689c6.401-10.308,14.655-19.511,23.773-27.48c4.835-4.226,10.286-8.831,16.158-11.522 c1.978-0.906-2.981-0.957-3.086-0.812c-0.361,0.502-0.839,0.924-1.293,1.339c-1.454,1.329-2.957,2.604-4.458,3.877 c-11.618,9.864-23.674,19.24-35.887,28.352c-13.144,9.806-26.613,19.768-41.275,27.214c-4.642,2.357-10.254,5.077-14.431,0.594 c-2.877-3.088-0.56-9.19,1.128-12.34c1.157-2.159-6.031-0.621-6.879,0.157c-7.006,6.428-14.333,13.143-22.788,17.635 c-2.57,1.366-3.931,1.033-3.551-2.489c0.475-4.407,3.206-8.618,5.87-12.005c4.38-5.57,11.791-4.519,17.39-1.52 C113.256,163.152,120.42,160.229,117.566,158.701L117.566,158.701 M256.56,181.027c14.81,2.094,30.057,2.523,44.965,1.561c10.756-0.695,21.567-2.504,31.606-6.526 c3.065-1.228,11.75-5.046,9.739-9.842c-1.64-3.912-7.857-3.955-11.326-3.64c-5.296,0.481-10.651,2.951-13.489,7.583 c-2.596,4.239-1.431,11.227,1.901,14.767c3.039,3.229,7.846,3.626,12.006,3.495c11.276-0.355,22.705-5.744,32.794-10.303 c10.914-4.932,21.436-10.658,32.235-15.825c1.613-0.771,3.24-1.516,4.897-2.189c1.037-0.421,0.069-0.086,1.268-0.44 c1.112-0.328-0.57-0.067-0.37-0.05c-1.575-0.132-2.033-1.344-1.88-1.73c-0.125,0.313-0.614,1.07-0.607,1.061 c-2.23,3.013-5.018,5.659-7.578,8.377c-6.015,6.385-12.159,12.768-18.844,18.464c-1.325,1.129-2.687,2.222-4.112,3.22 c-1.038,0.726-0.772,0.48-0.471,0.337c1.388,1.212,2.776,2.424,4.164,3.635c6.127-4.569,12.55-8.77,19.061-12.766 c10.494-6.442,22.789-13.947,35.311-15.15c3.268-0.314,8.713,0.542,8.638,4.828c-0.078,4.484-4.327,8.758-7.152,11.802 c-5.449,5.869-11.829,11.045-18.378,15.644c-4.321,3.034,2.125,5.118,5.021,3.143c15.737-10.732,31.35-21.652,46.875-32.688 c21.985-15.625,44.997-31.001,64.806-49.401c-2.128-0.655-4.255-1.311-6.383-1.966c-17.553,16.641-34.826,33.671-51.225,51.453 c-4.611,5.001-9.149,10.09-13.362,15.435c-2.604,3.305-5.355,6.771-6.733,10.794c-2.779,8.114,10.881,2.966,13.544,1.699 c19.78-9.413,37.729-22.37,57.33-32.166c3.499-1.749,7.216-3.503,10.474-4.438c1.475-0.423,1.468-0.385,1.996-0.324 c-1.04-0.12-0.624-0.565-0.643,0.051c-0.101,3.22-3.071,6.791-4.858,9.363c-4.942,7.116-10.784,13.659-16.522,20.131 c-3.335,3.762,4.241,3.91,6.383,1.965c6.256-5.681,12.93-10.945,19.743-15.935c5.614-4.112,11.437-7.996,17.602-11.236 c4.646-2.442,10.28-5.284,15.691-4.589c11.295,1.451-5.567,18.72-8.001,21.121c-6.102,6.021-12.804,11.544-19.737,16.585 c1.674,1.048,3.348,2.095,5.021,3.143c7.343-6.17,16.033-12.744,25.377-15.32c7.879-2.173,9.352,8.405,11.692,13.852 c2.893,6.728,6.303,12.56,13.647,14.845c3.041,0.945,9.128-3.469,4.545-4.895c-9.281-2.887-11.937-15.751-15.409-23.588 c-2.692-6.079-9.243-6.41-14.988-5.253c-10.915,2.199-21.511,10.178-29.886,17.217c-4.069,3.419,2.176,5.212,5.021,3.143 c7.651-5.562,49.665-37.311,28.166-45.476c-5.584-2.121-12.279-0.004-17.563,1.958c-7.508,2.788-14.476,7.251-21.07,11.727 c-9.2,6.245-18.001,13.26-26.234,20.738c2.128,0.655,4.255,1.31,6.383,1.965c5.787-6.527,11.527-13.144,16.616-20.238 c2.419-3.375,5.125-7.044,6.072-11.171c1.859-8.097-10.46-4.69-14.073-3.369c-9.988,3.651-19.323,9.434-28.499,14.72 c-10.206,5.879-20.256,12.039-30.581,17.709c-3.358,1.845-6.76,3.678-10.319,5.109c-0.749,0.301-1.107,0.399-1.493,0.421 c2.16-0.123,1.906,1.67,2.292,0.096c0.738-3.021,4.152-6.83,6.252-9.466c4.343-5.451,9.047-10.619,13.778-15.731 c16.005-17.295,32.855-33.869,49.955-50.08c1.296-1.229,0.67-2.94-0.919-3.43c-1.92-0.591-4.042,0.144-5.464,1.464 c-19.355,17.979-41.97,32.947-63.444,48.224c-15.521,11.041-31.139,21.956-46.875,32.688c1.674,1.048,3.348,2.095,5.021,3.143 c7.743-5.438,15.259-11.669,21.511-18.78c3.203-3.644,7.109-8.583,6.771-13.738c-0.341-5.169-5.707-7.312-10.123-8.04 c-6.288-1.037-13.168,1.078-19.005,3.198c-7.42,2.695-14.45,6.309-21.295,10.219c-8.747,4.998-17.3,10.473-25.38,16.499 c-3.895,2.904,1.309,4.992,4.164,3.635c2.138-1.017,4.029-2.653,5.831-4.148c6.948-5.764,13.276-12.279,19.501-18.8 c3.087-3.234,9.627-8.213,10.692-13.16c0.807-3.744-5.152-3.025-7.049-2.465c-9.983,2.947-19.381,9.058-28.659,13.641 c-11.353,5.607-23.484,12-36.082,14.208c-7.212,1.264-13.374-0.978-12.197-9.82c0.421-3.165,3.194-4.763,6.104-5.123 c1.34-0.166,2.654-0.067,3.918,0.358c0.77,0.259,0.656,0.436,0.505,0.725c-0.672,1.283-3.2,2.1-4.387,2.639 c-3.815,1.733-7.933,2.774-12.009,3.679c-8.89,1.972-18.148,2.442-27.227,2.567c-10.708,0.147-21.593-0.48-32.206-1.98 C255.789,175.293,251.356,180.292,256.56,181.027L256.56,181.027 M532.91,174.363c13.037,0.135,26.309,2.894,38.966,5.706c35.865,7.968,70.329,21.818,102.92,38.611 c1.933,0.995,7.929-2.218,7.307-2.539c-32.917-16.96-67.651-30.726-103.83-38.889c-13.079-2.951-26.808-5.655-40.284-5.794 C536.516,171.443,529.231,174.325,532.91,174.363L532.91,174.363z"/>
</svg>