<?xml version="1.0" encoding="UTF-8"?>
<svg version="1.0" xmlns="http://www.w3.org/2000/svg" width="977" height="218" >
<path d="M23.586,115.974c-6.596,28.379-13.192,56.759-19.788,85.139c1.146,0.154,2.292,0.31,3.438,0.465 c-0.625-8.798-0.455-17.76,0.563-26.516c0.673-5.79,1.81-12.075,5.043-17.035c3.45-5.291,8.953-3.641,13.445-0.676 c2.441,1.61,2.979,2.652,5.57,2.428c2.26-0.195,4.521-0.384,6.783-0.57c8.901-0.732,17.807-1.41,26.715-2.051 c59.564-4.285,119.839-8.139,179.547-4.971c10.594,0.563,21.216,1.405,31.687,3.165c6.717,1.128,13.981,2.479,19.938,5.958 c1.523,0.891,3.235,2.137,3.907,3.845c0.259,0.658,0.38,1.374,0.281,2.076c-0.654,4.619-2.091,9.21-2.965,13.806 c-0.722,3.8-1.273,7.598-1.32,11.466c-0.035,2.938-2.612,7.034-3.881,9.86c-0.916,2.041,2.099,3.822,3.022,1.766 c1.548-3.449,4.033-7.372,4.344-11.246c0.396-4.931,0.933-9.658,1.924-14.546c1.687-8.313,4.885-14.748-3.259-19.874 c-6.658-4.191-15.265-5.564-22.883-6.784c-12.094-1.938-24.369-2.736-36.594-3.271c-59.366-2.596-119.19,1.246-178.392,5.588 c-8.158,0.599-16.314,1.232-24.467,1.912c-1.789,0.149-3.577,0.301-5.365,0.457c-0.944,0.083-0.292-0.146-0.21-0.077 c-2.512-2.07-5.279-3.811-8.382-4.83C1.28,144.555,3.064,189.97,3.687,200.814c0.015,0.255,0.03,0.509,0.048,0.763 c0.134,1.886,2.968,2.485,3.438,0.465c6.596-28.379,13.192-56.759,19.788-85.139C27.471,114.708,24.097,113.775,23.586,115.974 L23.586,115.974z"/>
<path d="M368.127,155.714c9.08-12.655,18.644-25.203,29.369-36.514c2.602-2.744,5.324-5.518,8.445-7.676 c1.484-1.027,3.124-2.292,3.512-0.596c0.942,4.121-1.329,9.644-2.496,13.482c-2.93,9.64-6.804,19.006-10.697,28.287 c1.125,0,2.25,0,3.375,0c-3.589-10.61-12.559-19.303-22.243-24.419c-1.994-1.054-3.763,1.967-1.767,3.021 c8.845,4.673,17.337,12.582,20.634,22.327c0.593,1.754,2.718,1.566,3.375,0c4.128-9.841,8.185-19.771,11.215-30.016 c1.254-4.239,2.759-9.146,1.977-13.614c-1.368-7.816-10.726-0.074-13.3,2.269c-13.175,11.989-23.996,27.193-34.369,41.606 c-0.018,0.025-0.036,0.05-0.054,0.075C363.787,155.786,366.824,157.53,368.127,155.714L368.127,155.714z"/>
<path d="M468.717,159.055c10.084-19.435,21.782-38.141,33.925-56.337c23.716-35.532,50.82-70.278,84.528-96.895 c-0.825-0.825-1.649-1.649-2.475-2.475c-16.865,17.756-32.815,36.517-47.783,55.889c-10.79,13.966-21.216,28.434-29.491,44.058 c-6.546,12.359-12.118,27.205-7.932,41.321c2.671,9.008,10.602,2.344,14.033-2.04c1.688-2.154,3.226-4.437,4.608-6.799 c0.175-0.299-1.632,0.895-0.63,0.592c0.643-0.195,1.29-0.197,1.956-0.173c4.349,0.155,6.148,5.738,7.071,9.083 c0.203,0.738,0.911,1.303,1.688,1.285c45.023-1.039,90.081-1.244,135.114-0.986c38.029,0.218,76.065,0.867,114.064,2.443 c32.23,1.337,64.678,2.976,96.617,7.717c7.208,1.069,14.399,2.348,21.47,4.121c-0.258-0.975-0.516-1.95-0.772-2.925 c-4.415,4.572-8.718,9.257-12.942,14.005c-5.764,6.477-12.422,13.306-16.352,21.124c-0.921,1.831-1.851,4.633,0.384,5.934 c2.543,1.479,6.606-1.038,8.773-2.156c19.144-9.883,35.033-25.134,53.585-36.008c8.411-4.931,20.593-11.891,30.787-8.756 c6.242,1.92,8.207,9.012,8.728,14.785c0.903,10.005-1.146,20.701-4.155,30.242c-0.681,2.158,2.698,3.074,3.375,0.93 c3.785-11.998,7.028-27.542,2.518-39.681c-3.087-8.308-10.82-11.447-19.256-10.145c-19.491,3.011-36.509,17.796-51.903,28.912 c-6.374,4.602-12.827,9.115-19.505,13.268c-3.279,2.04-6.817,4.397-10.598,5.393c-1.155,0.304-0.547-0.261-0.281,0.597 c0.036,0.117,0.318-1.02,0.571-1.549c1.268-2.655,3.127-5.064,4.896-7.398c7.235-9.549,15.534-18.409,23.851-27.021 c0.894-0.926,0.53-2.598-0.772-2.925c-26.426-6.627-54.328-8.243-81.412-9.999c-37.285-2.416-74.663-3.413-112.017-3.993 c-56.455-0.876-112.945-0.658-169.397,0.46c-1.79,0.035-3.579,0.071-5.369,0.112c0.563,0.429,1.125,0.856,1.688,1.285 c-1.704-6.175-5.434-12.62-12.739-11.492c-2.604,0.402-3.949,4.237-5.31,6.147c-1.955,2.746-7.31,10.35-9.203,3.965 c-2.176-7.338-0.906-16.195,1.414-23.378c5.01-15.507,14.866-29.677,24.189-42.854c10.608-14.993,22.208-29.283,34.142-43.235 c8.044-9.404,16.249-18.704,24.773-27.679c1.595-1.679-0.745-3.841-2.475-2.475c-33.304,26.296-60.037,60.524-83.662,95.498 c-12.712,18.818-24.871,38.267-35.339,58.442C464.657,159.289,467.677,161.06,468.717,159.055L468.717,159.055z"/>
<path d="M627.299,88.842c-0.413,0.556-0.825,1.111-1.237,1.668c-0.57,0.768-0.128,1.951,0.628,2.394 c0.891,0.522,1.827,0.137,2.394-0.628c0.413-0.556,0.825-1.111,1.237-1.668c0.57-0.768,0.128-1.951-0.628-2.394 C628.802,87.691,627.865,88.077,627.299,88.842L627.299,88.842z"/>
</svg>