<?xml version="1.0" encoding="UTF-8"?>
<svg version="1.0" xmlns="http://www.w3.org/2000/svg" width="591" height="106" >
<path fill="#231F20" d="M110.542,19.451c-2.649,0.166-5.427-0.161-7.793-1.406c-2.574-1.355-2.443-4.097-5.9-4.387 c-6.997-0.586-14.285,3.65-19.37,8.082c-11.651,10.154-20.827,23.893-29.78,36.383c-4.594,6.409-9.073,14.544-16.635,17.82 C17.303,81.904,7.183,55.036,3.922,46.839c-0.615-1.547-4.441-0.418-3.863,1.035C4.437,58.88,11.691,78.284,26.05,79.128 c8.332,0.49,14.841-6.515,19.448-12.541c8.837-11.559,16.871-23.631,26.323-34.742c5.297-6.228,14.793-17.633,24.025-15.576 c1.562,0.348,1.92,2.398,3.1,3.257c1.243,0.905,2.491,1.409,3.965,1.833c2.283,0.656,4.836,0.717,7.195,0.57 C112.152,21.801,113.199,19.285,110.542,19.451L110.542,19.451 M55.839,71.134c4.695-1.801,9.341-3.741,13.921-5.816c2.215-1.003,11.647-4.277,11.567-7.685 c-0.119-5.033-18.776,8.959-19.984,10.05c-2.287,2.063-6.612,5.859-5.915,9.445c0.944,4.859,9.155,4.263,12.609,4.105 c18.899-0.867,35.108-12.64,52.634-18.248c-0.398-0.802-0.797-1.604-1.195-2.406c-5.744,2.322-11.425,4.891-16.854,7.878 c-1.671,0.919-12.19,7.022-6.317,9.476c2.847,1.189,6.148-0.178,8.804-1.268c5.895-2.417,10.77-6.727,15.606-10.74 c9.17-7.61,19.51-13.023,29.677-19.124c9.137-5.481,18.404-11.825,25.677-19.692c2.831-3.062,3.371-7.333-2.029-5.837 c-6.574,1.822-12.844,6.82-18.239,10.763c-7.9,5.773-15.478,12.354-21.612,20.006c-4.962,6.189-9.859,15.785-8.787,23.922 c0.819,6.217,9.128,2.931,12.376,1.391c7.063-3.349,14.22-6.512,21.381-9.645c5.367-2.349,12.255-6.475,17.878-7.261 c-3.672,0.514-0.169-2.586-1.851-1.198c-0.447,0.369-0.91,0.718-1.369,1.071c-1.256,0.966-2.527,1.912-3.789,2.871 c-3.059,2.323-6.058,4.718-8.854,7.355c-3.01,2.838-6.535,7.943-0.192,8.856c6.417,0.924,14.135-2.255,20.115-4.114 c6.949-2.16,13.753-4.787,20.725-6.867c2.156-0.643-0.208-1.847-0.105-1.922c-1.906,1.41-3.973,2.621-5.946,3.933 c-1.916,1.274-6.205,3.695-5.493,6.583c1.293,5.244,17.436,0.371,20.304-0.401c4.359-1.172,8.658-2.567,12.962-3.926 c1.748-0.552,3.498-1.095,5.258-1.607c0.679-0.198,1.362-0.376,2.047-0.549c2.41-0.608,0.06-0.446-0.242-0.044 c-1.212,1.615-5.535,4.396-3.742,6.792c0.941,1.258,3.251,0.792,4.533,0.574c13.853-2.354,27.421-6.756,41.08-10.014 c2.482-0.592,4.977-1.199,7.494-1.624c0.408-0.069,1.496-0.195,1.556-0.19c-0.345-0.461-0.688-0.923-1.033-1.384 c-0.455,0.373-0.918,0.736-1.388,1.09c-1.124,0.867-2.278,1.697-3.417,2.545c-2.594,1.93-11.459,9.659-2.601,9.338 c6.824-0.247,15.689-3.193,20.209-8.53c2.892-3.415,0.332-8.592-4.158-6.452c-1.333,0.636-2.035,2.04-1.109,3.304 c1.823,2.489,7.622,2.171,10.114,2.138c10.929-0.145,21.288-3.403,32.078-4.474c2.179-0.216,0.638,0.314-0.538,1.122 c-1.564,1.075-3.317,1.908-5.001,2.776c-3.602,1.859-7.269,3.615-10.637,5.886c-2.91,1.962-5.997,6.933-0.533,7.629 c5.231,0.667,11.429-2.045,16.271-3.619c7.022-2.283,13.938-4.891,21-7.049c2.075-0.634,4.248-1.354,6.43-1.461 c-0.775,0.039,0.137-0.915-1.26,0.913c-2.025,2.649-4.699,4.801-7.241,6.929c-2.021,1.691-12.794,10.233-4.253,11.379 c3.064,0.411,6.534-1.731,9.115-3.076c5.69-2.963,11.129-6.444,16.517-9.917c31.992-20.619,63.129-43.588,92.021-68.372 c1.735-1.489,3.451-3,5.151-4.529c1.954-1.757-1.093-2.931-2.549-1.714c-17.506,14.631-34.86,29.452-52.018,44.49 c-10.65,9.334-21.314,18.708-31.419,28.638c-1.26,1.238-13.41,12.266-6.105,12.3c3.913,0.019,8.456-4.691,11.24-6.88 c7.144-5.615,14.194-11.329,21.557-16.661c17.461-12.645,38.77-25.804,60.743-27.875c4.149-0.391,4.064,1.13,1.662,3.971 c-3.765,4.451-8.726,8.012-13.351,11.499c-11.7,8.82-24.037,16.792-36.304,24.792c-2.11,1.376-4.221,2.75-6.318,4.146 c-0.777,0.518-1.549,1.046-2.322,1.57c-1.297,0.878-2.363,0.812-0.341,0.646c0.365,0.748,0.73,1.495,1.096,2.243 c8.653-6.609,20.317-11.911,30.812-14.458c7.439-1.805,12.47,0.198,18.034,5.162c5.895,5.258,10.772,11.564,16.626,16.877 c13.89,12.607,32.082,17.59,50.386,11.953c6.384-1.966,11.623-7.963,6.4-14.067c-1.121-1.31-4.797,0.219-3.541,1.687 c8.487,9.92-12.602,11.562-17.717,11.771c-19.727,0.805-32.31-13.165-44.814-26.176c-3.921-4.079-8.485-8.852-14.147-10.298 c-5.669-1.448-11.975,0.283-17.351,2.08c-9.265,3.096-19.409,7.778-27.236,13.757c-1.344,1.025-0.373,2.363,1.096,2.243 c2.831-0.231,6.345-3.796,8.642-5.302c5.388-3.532,10.794-7.036,16.16-10.599c11.765-7.811,23.866-15.659,34.289-25.243 c2.068-1.902,6.009-5.18,5.698-8.398c-0.313-3.248-5.556-2.774-7.698-2.572c-20.697,1.951-40.814,13.649-57.646,25.081 c-8.104,5.504-15.805,11.567-23.458,17.673c-2.529,2.018-5.054,4.042-7.653,5.968c-0.913,0.677-1.848,1.323-2.809,1.932 c-1.506,0.954-1.382,0.092-0.536,1.004c0.411,0.443,0.385-0.275,1.122-1.231c1.135-1.473,2.432-2.827,3.715-4.169 c3.955-4.137,8.157-8.042,12.355-11.928c21.633-20.018,44.195-39.063,66.728-58.053c2.321-1.956,4.644-3.911,6.973-5.857 c-0.85-0.571-1.699-1.143-2.549-1.714c-28.018,25.188-59.192,47.585-90.479,68.501c-6.218,4.157-12.502,8.245-18.995,11.961 c-1.876,1.074-7.782,4.794-9.131,4.446c-3.073-0.792,6.928-8.461,8.137-9.52c2.294-2.008,5.746-4.613,6.537-7.712 c0.897-3.51-6.957-1.457-8.065-1.17c-6.832,1.766-13.468,4.372-20.144,6.638c-5.298,1.799-11.987,4.955-17.712,4.612 c-2.559-0.153,3.791-4.464,4.35-4.786c3.679-2.119,7.57-3.842,11.255-5.951c2.73-1.563,8.15-6.83,1.425-6.742 c-10.219,0.132-20.322,3.839-30.577,4.454c-2.965,0.177-6.184,0.225-9.057-0.651c-2.65-0.808-1.238,1.563-2.005,3.134 c-1.938,3.974-9.335,5.752-13.178,6.664c-0.977,0.231-5.124,1.305-3.226-0.78c1.501-1.649,3.501-2.947,5.279-4.272 c1.084-0.807,5.778-3.178,5.27-5.076c-0.679-2.534-8.329,0.016-9.673,0.317c-14.084,3.152-27.919,7.412-42.056,10.33 c-0.78,0.161-1.562,0.304-2.354,0.396c-0.046,0.005,2.157-2.209,2.768-2.857c0.988-1.048,3.716-4.001,1.073-4.832 c-1.849-0.581-4.299,0.394-6.052,0.887c-4.246,1.194-8.427,2.626-12.644,3.916c-4.291,1.313-8.618,2.52-13.025,3.374 c-2.194,0.425-4.361,0.577-6.589,0.439c-3.631-0.224,3.81-4.96,4.525-5.427c1.057-0.689,5.502-2.559,5.132-4.497 c-0.282-1.476-2.62-0.919-3.551-0.692c-6.624,1.612-13.058,4.365-19.541,6.458c-3.867,1.248-7.763,2.41-11.707,3.388 c-1.8,0.446-7.925,2.507-9.539,0.823c-1.839-1.918,13.053-12.61,14.648-13.819c0.986-0.747,3.421-2.04,3.603-3.459 c0.22-1.716-2.397-1.304-3.31-1.063c-6.395,1.682-12.614,4.925-18.648,7.557c-7.166,3.125-14.309,6.313-21.381,9.645 c-2.832,1.334-6.734,3.345-6.916-1.333c-0.205-5.274,2.44-11.34,4.955-15.867c4.906-8.828,13.521-15.898,21.353-22.011 c5.686-4.438,12.569-10.205,19.666-12.172c0.221-0.062-0.31-0.75-0.585-0.05c-0.249,0.635-0.754,1.176-1.175,1.698 c-1.372,1.699-3.047,3.187-4.67,4.635c-4.56,4.068-9.543,7.681-14.6,11.099c-8.039,5.433-16.814,9.675-24.957,14.957 c-8.098,5.252-14.847,12.459-23.279,17.155c-1.974,1.1-4.143,2.088-6.406,2.347c-2.263,0.258,0.793-2.328,0.914-2.421 c2.531-1.963,5.521-3.386,8.374-4.809c4.054-2.023,8.216-3.861,12.417-5.559c2.107-0.852,0.703-3.014-1.195-2.406 c-12.966,4.149-24.849,11.119-37.852,15.259c-6.353,2.022-14.196,4.128-20.833,2.306c-4.3-1.181-0.314-5.581,1.331-7.315 c2.946-3.106,6.547-5.652,10.1-8.011c1.488-0.988,3.018-1.91,4.593-2.75c0.519-0.277,1.051-0.528,1.59-0.762 c1.088-0.472-0.991-1.803-1.642-1.064c-2.875,3.264-9.13,5.042-13.003,6.723c-3.341,1.45-6.718,2.827-10.119,4.131 C51.663,69.863,53.865,71.891,55.839,71.134L55.839,71.134 M365.369,46.893c24.315-2.026,48.725-3.197,73.106-4.029c45.005-1.536,90.495-1.929,135.294,3.241 c4.02,0.464,8.027,1.026,12.027,1.636c6.461,0.986,5.969-6.584,0.389-7.436c-44.304-6.759-89.664-6.692-134.363-5.629 c-29.096,0.691-58.209,2.072-87.225,4.371c-0.439,0.035-0.879,0.07-1.318,0.106C356.771,39.696,360.317,47.313,365.369,46.893 L365.369,46.893 M95.607,51.248c1.613,0,4.049-2.449,1.434-2.449C95.427,48.798,92.992,51.248,95.607,51.248 L95.607,51.248 M99.57,48.075c-1.167,0.333-2.333,0.667-3.5,1c-0.535,0.152-1.893,0.663-1.678,1.466 c0.212,0.792,1.652,0.583,2.186,0.431c1.167-0.333,2.333-0.667,3.5-1c0.535-0.152,1.893-0.663,1.678-1.466 C101.543,47.714,100.104,47.922,99.57,48.075L99.57,48.075z"/>
</svg>