<?xml version="1.0" encoding="UTF-8"?>
<svg version="1.1" xmlns="http://www.w3.org/2000/svg" width="629" height="143" >
<path d="M65.16,51.598c-6.333,10.246-13.308,20.131-20.531,29.762C32.485,97.552,18.71,115.424,0.895,125.683 c-2.705,1.558,1.458,1.879,2.804,1.104c17.423-10.032,30.919-26.883,42.998-42.583c8.077-10.497,15.77-21.395,22.737-32.666 C70.478,49.848,65.866,50.456,65.16,51.598L65.16,51.598z"/>
<path d="M117.174,36.986c-7.693,11.621-15.477,23.184-23.332,34.696c-5.75,8.427-11.544,16.826-17.497,25.112 c-3.244,4.516-6.521,10.319-10.857,13.913c1.206,0.128,2.412,0.257,3.617,0.385c5.324-4.429,10.034-9.727,13.835-15.504 c4.574-6.952,8.51-18.918,2.689-26.45c-4.752-6.15-13.358-1.456-18.041,2.283C61.73,76.1,60.455,83.166,64.545,89.52 c4.846,7.526,14.645,9.438,22.94,8.951c8.044-0.472,19.011-2.263,25.281-7.915c1.897-1.71,4.674-6.964,0.337-7.668 c-4.522-0.734-10.012,3.907-13.031,6.628c-2.974,2.681-6.358,6.085-7.058,10.206c-0.76,4.479,4.288,5.894,7.676,6.452 c8.545,1.407,18.028,1.266,26.574-0.048c5.443-0.837,11.508-2.721,15.05-7.199c2.128-2.692,3.693-10.904-0.487-12.577 c-3.369-1.349-7.317,0.916-8.832,3.941c-2.629,5.248,4.129,7.252,7.898,7.034c2.835-0.163,5.611-1.065,8.279-1.974 c1.618-0.55,3.193-1.23,4.762-1.903c0.421-0.181,3.395-1.226,1.906-0.925c-0.154-0.574-0.308-1.148-0.461-1.722 c-5.339,2.294-14.586,9.18-6.654,14.558c4.331,2.937,10.481,1.612,15.023,0.021c9.448-3.31,17.274-10.797,23.873-18.037 c13.467-14.776,23.72-32.534,32.973-50.138c0.55-1.045-3.801-0.46-4.421,0.448c-11.967,17.507-23.917,35.032-35.613,52.722 c-2.233,3.377-4.472,6.755-6.591,10.204c-1.428,2.325-1.59,4.095,1.732,4.3c11.693,0.719,25.204-9.486,30.227-19.34 c0.534-1.047-3.917-0.385-4.598,0.723c-2.389,3.885-5.104,8.802-4.76,13.495c0.539,7.335,14.436,1.009,17.226-0.302 c7.404-3.476,16.117-9.884,20.268-17.141c0.927-1.62,0.333-2.365-1.568-2.066c-2.292,0.361-3.99,1.969-5.609,3.501 c-3.346,3.168-11.063,11.165-7.98,16.317c2.929,4.895,13.228,0.979,16.95-0.438c5.629-2.144,14.163-6.063,16.568-12.103 c1.553-3.9-3.56-3.146-5.413-1.718c-1.932,1.489-2.992,4.807-0.581,6.347c5.786,3.693,17.204-2.065,22.378-4.226 c-0.741-0.384-1.482-0.769-2.224-1.152c-3.399,1.625-11.143,7.721-5.863,11.611c4.096,3.018,11.928-0.069,15.825-1.905 c5.481-2.584,10.167-7.905,6.4-13.87c-4.54-7.188-11.51-13.701-18.48-18.549c-1.351,0.608-2.702,1.216-4.053,1.823 c4.429,2.267,12.411,0.827,16.995,0.587c11.007-0.577,22.038-1.281,33.037-2.025c11.222-0.759,22.512-1.893,33.431-4.692 c7.565-1.94,16.568-5.081,20.718-12.219c-1.539,0.328-3.078,0.655-4.617,0.983c1.322,4.468-1.13,10.154-2.977,14.054 c-8.456,17.865-26.244,31.314-41.848,42.466c-2.002,1.432,2.667,1.063,3.617,0.385c15.924-11.382,32.904-24.673,42.22-42.355 c2.23-4.235,5.099-10.806,3.624-15.792c-0.436-1.47-4.133,0.15-4.617,0.983c-4.146,7.13-14.048,9.308-21.487,10.847 c-10.167,2.104-20.601,2.853-30.944,3.478c-9.41,0.569-18.82,1.155-28.229,1.718c-4.068,0.244-11.26,1.604-15.16-0.392 c-0.957-0.49-5.07,1.115-4.053,1.823c3.525,2.452,6.747,5.354,9.82,8.34c4.051,3.937,12.116,10.672,9.079,16.993 c-1.966,4.092-8.273,6.476-12.541,6.084c-3.153-0.29-3.084-3.864-1.67-5.97c1.035-1.54,2.874-2.702,4.527-3.493 c2.596-1.24-0.983-1.671-2.224-1.152c-3.345,1.396-13.639,6.99-17.089,3.331c-0.612-0.648-0.367-1.768-0.104-2.493 c0.154-0.425,0.394-0.786,0.681-1.13c0.943-1.129-3.022-0.595-2.676,0.694c1.185,4.413-8.553,8.891-11.342,10.252 c-3.729,1.818-15.667,6.057-13.336-2.453c1.305-4.764,5.705-9.546,9.49-12.578c1.441-1.154-2.429-0.804-3.024,0.44 c-0.55,1.15-1.505,2.166-2.316,3.133c-2.744,3.27-6.03,6.07-9.445,8.608c-3.781,2.81-18.818,11.965-16.467,1.128 c0.755-3.484,2.583-6.912,4.441-9.933c-1.533,0.241-3.065,0.481-4.598,0.723c-3.343,6.557-9.08,11.161-15.618,14.318 c-1.106,0.534-9.906,4.114-7.81,0.393c4.012-7.125,8.921-13.839,13.467-20.625c9.605-14.341,19.308-28.617,29.049-42.866 c-1.474,0.149-2.948,0.298-4.421,0.448c-7.996,15.211-16.755,30.109-27.497,43.564c-6.171,7.729-13.271,15.412-21.931,20.386 c-3.664,2.104-8.194,3.972-12.391,2.378c-1.144-0.435-2.238-1.272-2.897-2.311c-3.019-4.747,1.937-8.097,5.792-9.753 c1.855-0.798,1.684-2.156-0.461-1.722c-3.992,0.808-21.323,9.984-19.24-0.271c0.542-2.668,1.108-1.873,1.837,0.063 c0.802,2.128,0.521,4.77-0.136,6.882c-1.715,5.52-8.75,6.671-13.615,7.291c-6.828,0.869-13.868,0.336-20.691-0.271 c-3.371-0.301-7.773-1.515-7.06-5.723c0.931-5.486,8.029-11.267,12.846-13.345c0.551-0.238-0.647-0.42-0.175,0.313 c0.188,0.294,0.275,0.637,0.358,0.97c0.215,0.862-0.147,1.718-0.531,2.467c-2.006,3.917-8.418,5.194-12.176,6.093 c-10.876,2.6-25.52,2.222-30.505-9.816c-1.451-3.502-0.991-7.501,1.087-10.632c3.186-4.799,10.209-8.799,13.439-2.24 c5.262,10.683-1.816,22.469-8.561,30.43c-2.427,2.865-5.11,5.624-8.001,8.027c-1.924,1.601,2.703,1.142,3.617,0.385 c4.203-3.484,7.327-8.73,10.496-13.099c6.117-8.434,12.021-17.025,17.9-25.625c8.061-11.792,16.034-23.645,23.918-35.555 C122.422,35.3,117.857,35.955,117.174,36.986L117.174,36.986z"/>
<path d="M302.092,48.68c-3.846,7.63-7.992,15.122-12,22.667c-3.372,6.347-7.158,12.34-11.197,18.271 c-1.834,2.694-2.378,5.246-2.274,8.482c0.076,2.348,4.748,1.548,4.685-0.4c-0.106-3.273,0.479-5.412,2.316-8.108 c3.934-5.776,7.571-11.638,10.879-17.805c4.038-7.526,8.155-15.038,12-22.667C307.656,46.83,302.962,46.954,302.092,48.68 L302.092,48.68z"/>
<path d="M445.643,7.045c0.475-2.016,1.644-7.597-2.21-7c-3.927,0.607-5.97,4.979-8.353,7.813 c-7.733,9.198-15.832,18.086-23.576,27.276c-9.945,11.803-19.618,23.913-28.054,36.854c-5.449,8.361-12.792,19.351-11.806,29.867 c0.204,2.177,4.28,0.718,4.664-0.81c2.679-10.673,5.865-23.156,3.938-34.157c-2.201-12.563-23.118-3.482-22.796,6.686 c0.226,7.125,9.273,11.683,15.35,12.797c7.775,1.425,15.756,0.253,23.392-1.442c11.478-2.548,22.91-6.829,33.453-12.039 c-0.847-0.78-1.694-1.561-2.542-2.341c-3.358,2.049-25.354,16.214-15.917,20.564c4.531,2.089,11.502-3.337,14.765-5.769 c4.238-3.158,10.938-8.496,11.292-14.29c0.152-2.5-2.287-4.073-4.384-4.712c-3.161-0.963-6.428,1.115-8.269,3.5 c-3.981,5.161-0.901,11.184,5.052,11.692c7.135,0.61,14.844-1.866,21.594-3.835c6.651-1.94,13.496-4.102,19.742-7.144 c2.876-1.4,0.302-3.696-2.029-2.645c-3.591,1.619-21.57,9.54-17.338,15.507c3.023,4.262,9.535,2.445,13.389,0.647 c5.393-2.517,10.678-7.417,12.475-13.187c3.851-12.363-22.236-6.305-14.398,3.083c4.194,5.023,14.336,3.328,19.762,2.364 c7.973-1.416,16.09-4.499,22.987-8.741c2.463-1.516-0.779-3.192-2.542-2.341c-2.53,1.221-10.678,5.419-7.174,9.096 c5.372,5.637,18.097,0.201,23.352-2.731c4.694-2.619,13.623-9.047,9.629-15.385c-3.069-4.869-9.585-1.079-11.852,2.34 c-4.183,6.31,2.387,10.739,7.896,11.809c9.133,1.772,19.611,0.516,28.748-0.531c7.451-0.854,15.958-1.879,22.451-5.934 c5.731-3.579,1.106-9.39-3.934-10.479c-6.626-1.433-11.563,5.034-10.118,11.022c0.724,3.002,2.856,5.213,5.485,6.697 c5.229,2.95,11.734,3.672,17.59,4.275c12.712,1.308,25.645,0.918,38.39,0.463c1.337-0.048,3.644-1.674,2.011-2.967 c-2.629-2.083-7.227-4.775-10.627-2.905c-6.067,3.339-2.669,12.898,0.455,17.237c1.6,2.22,3.976,3.782,6.433,4.883 c0.403,0.168,0.816,0.31,1.238,0.426c2.466,0.759-0.952-0.735,0.825-2.168c0.562-0.453-0.57,0.257-0.831,0.375 c-3.757,1.705-7.626,3.182-11.433,4.773c-13.27,5.553-26.436,11.543-38.819,18.893c-10.534,6.252-23.198,14.133-28.244,25.892 c-1.037,2.416,3.633,2.319,4.42,0.484c4.636-10.803,16.269-17.959,25.921-23.771c11.58-6.973,23.993-12.59,36.417-17.868 c3.83-1.628,7.688-3.192,11.528-4.797c1.347-0.563,4.762-1.461,5.021-3.254c0.187-1.29-1.25-1.417-2.111-1.619 c-3.244-0.764-5.684-3.41-7.352-6.134c-0.896-1.465-3.638-11.199-0.737-10.331c1.556,0.466,3.045,1.511,4.311,2.513 c0.67-0.988,1.341-1.978,2.011-2.967c-12.051,0.43-24.157,0.684-36.185-0.354c-5.516-0.477-11.661-1.075-16.644-3.71 c-2.315-1.225-3.885-3.024-4.5-5.574c-1.026-4.255,2.742-8.665,6.551-4.598c2.817,3.009-1.371,4.313-3.719,5.121 c-8.775,3.018-18.589,3.647-27.791,4.043c-4.729,0.204-24.064,1.983-20.804-7.326c1.118-3.192,4.697-3.661,4.278,0.484 c-0.438,4.33-6.758,7.731-10.083,9.447c-2.325,1.199-4.799,2.006-7.341,2.591c-1.534,0.354-7.085,1.083-7.973-0.822 c-0.521-1.121,4.496-3.588,5.34-3.995c-0.847-0.78-1.694-1.561-2.542-2.341c-8.171,5.026-18.905,8.594-28.539,8.369 c-3.662-0.085-11.668-3.375-5.236-6.645c1.943-0.988,3.91,0.62,3.997,2.582c0.082,1.845-1.184,3.695-2.219,5.103 c-2.399,3.26-6.058,6.026-9.892,7.33c-3.37,1.146-6.479-0.469-3.534-3.539c3.543-3.694,9.015-6.111,13.631-8.192 c-0.677-0.882-1.353-1.763-2.029-2.645c-8.187,3.986-17.314,6.609-26.135,8.735c-4.094,0.986-8.599,2.043-12.828,1.454 c-2.858-0.397-2.531-4.468-1.788-6.41c1.298-3.395,5.253-1.267,3.706,2.052c-1.806,3.872-5.718,7.015-9.008,9.564 c-0.86,0.667-9.18,6.43-9.286,4.013c-0.163-3.701,6.634-7.864,9.141-9.733c2.384-1.778,4.866-3.452,7.407-5.001 c2.456-1.498-0.771-3.216-2.542-2.341c-7.202,3.559-14.775,6.467-22.42,8.907c-12.046,3.847-27.92,8.202-39.027-0.025 c-6.951-5.148-3.487-12.628,3.806-14.669c6.271-1.755,6.088,5.732,5.994,9.867c-0.206,9.074-2.145,18.313-4.351,27.098 c1.555-0.27,3.109-0.54,4.664-0.81c-0.859-9.158,5.876-19.065,10.48-26.406c7.208-11.492,15.719-22.182,24.33-32.64 c7.449-9.047,15.184-17.851,22.897-26.671c2.242-2.564,4.506-5.119,6.637-7.778c0.269-0.335,0.529-0.676,0.784-1.021 c0.34-0.476,0.685-0.947,1.035-1.415c1.291-1.759-0.962-1.974-0.938-1.117c0.038,1.277-0.265,2.62-0.557,3.858 C440.431,9.633,445.171,9.043,445.643,7.045L445.643,7.045z"/>
</svg>