<?xml version="1.0" encoding="UTF-8" ?>
<!DOCTYPE svg PUBLIC "-//W3C//DTD SVG 1.1//EN" "http://www.w3.org/Graphics/SVG/1.1/DTD/svg11.dtd">
<svg width="281pt" height="43pt" viewBox="0 0 281 43" version="1.1" xmlns="http://www.w3.org/2000/svg">
<g id="#ffffffff">
<path fill="#ffffff" opacity="1.00" d=" M 0.00 0.00 L 281.00 0.00 L 281.00 43.00 L 0.00 43.00 L 0.00 0.00 M 13.41 4.24 C 8.00 8.39 6.38 15.21 3.80 21.24 C 9.00 19.31 8.32 9.74 14.59 7.67 C 17.38 16.54 13.01 25.10 11.84 33.48 C 18.27 25.96 21.72 15.10 29.95 9.68 C 29.12 14.08 32.12 20.46 27.97 23.31 C 27.06 30.95 36.68 32.98 42.44 27.78 C 46.47 36.40 55.62 29.16 55.03 22.30 C 58.26 19.10 58.34 27.72 58.98 29.97 C 58.75 40.68 69.11 17.36 68.00 30.01 C 69.79 39.63 75.92 27.61 79.00 24.55 C 77.96 29.37 80.09 36.69 83.27 29.20 C 87.05 18.53 86.75 43.35 92.29 32.06 C 85.79 33.48 89.74 23.98 86.23 22.22 C 84.35 24.38 80.03 32.99 80.99 26.00 C 80.72 12.54 70.60 40.19 69.02 27.00 C 69.55 17.17 63.59 28.13 59.99 30.39 C 61.30 26.68 58.71 16.24 54.24 21.51 C 52.93 31.10 41.14 31.04 43.79 21.75 C 47.11 29.72 50.98 13.63 45.00 16.94 C 40.56 19.25 44.35 27.04 38.41 27.28 C 25.87 31.81 36.14 12.19 29.66 6.68 C 23.88 12.38 19.30 18.77 15.66 26.01 C 14.90 21.02 20.53 7.33 13.41 4.24 M 219.24 4.73 C 212.98 14.01 214.13 28.53 201.36 32.57 C 196.30 28.95 208.60 24.15 202.47 19.95 C 199.05 26.11 194.82 26.43 198.01 32.00 C 201.36 40.30 209.05 26.81 211.00 29.01 C 209.43 40.61 221.67 31.64 223.29 26.00 C 225.76 27.45 221.22 34.16 225.87 35.03 C 229.48 34.06 235.97 19.93 236.99 27.99 C 233.76 38.92 246.63 27.24 251.05 24.84 C 250.53 28.74 249.71 30.48 251.33 34.21 C 257.61 30.36 257.98 23.75 261.50 32.86 C 267.59 28.52 271.54 37.14 276.30 30.23 C 278.85 23.96 272.60 34.88 269.69 29.68 C 273.30 27.66 275.93 23.51 274.77 19.22 C 266.93 18.42 271.72 34.09 261.99 30.02 C 257.14 23.41 272.05 13.07 266.99 6.99 C 259.77 14.01 262.02 26.04 252.00 31.38 C 248.94 22.06 260.86 18.01 259.02 8.58 C 251.62 13.89 252.96 26.09 241.62 28.72 C 233.65 34.79 243.16 18.84 236.79 21.73 C 230.57 22.61 231.59 31.49 224.99 32.29 C 223.29 28.63 228.39 23.78 224.49 21.78 C 221.23 25.97 218.21 30.99 213.43 33.27 C 207.69 23.58 228.47 13.92 219.24 4.73 M 154.40 12.09 C 151.11 14.91 148.14 18.56 147.85 23.04 C 150.15 20.61 153.31 10.75 158.56 15.50 C 160.69 19.55 156.38 34.04 161.00 31.71 C 158.77 26.20 170.05 10.83 170.21 21.13 C 172.16 25.53 169.43 26.96 169.95 32.32 C 174.20 30.16 176.57 25.06 179.98 21.55 C 179.87 25.39 180.60 28.93 181.70 32.33 C 188.62 31.24 178.78 27.05 182.01 18.69 C 177.21 20.14 176.20 25.86 172.00 28.37 C 172.39 23.60 172.90 20.67 170.72 14.98 C 165.21 13.29 165.11 20.80 161.05 22.35 C 161.26 17.75 161.01 10.11 154.40 12.09 M 104.41 21.12 C 101.77 23.95 94.80 31.48 100.61 32.76 C 104.51 26.46 107.15 27.93 106.01 35.41 C 109.40 32.51 117.58 23.11 116.11 32.82 C 121.67 35.75 116.55 18.58 111.30 28.21 C 104.62 37.25 108.67 23.67 104.41 21.12 M 122.97 24.56 C 122.35 28.35 125.16 37.22 128.56 29.64 C 123.45 34.07 126.62 25.47 122.97 24.56 Z" />
<path fill="#ffffff" opacity="1.00" d=" M 218.28 9.23 C 222.30 8.72 217.29 19.41 213.88 21.59 C 215.46 17.46 216.01 13.07 218.28 9.23 Z" />
<path fill="#ffffff" opacity="1.00" d=" M 265.35 11.30 C 266.62 10.97 264.51 18.22 261.75 19.48 C 262.70 16.70 262.98 13.29 265.35 11.30 Z" />
<path fill="#ffffff" opacity="1.00" d=" M 257.09 12.95 C 257.48 12.53 257.48 12.53 257.09 12.95 Z" />
<path fill="#ffffff" opacity="1.00" d=" M 257.09 12.95 C 255.65 20.17 251.70 17.64 257.09 12.95 Z" />
<path fill="#ffffff" opacity="1.00" d=" M 272.33 22.22 C 275.48 25.91 266.20 30.07 272.33 22.22 Z" />
<path fill="#ffffff" opacity="1.00" d=" M 103.42 25.14 C 106.86 27.06 94.42 33.82 103.42 25.14 Z" />
</g>
<g id="#010101ff">
<path fill="#010101" opacity="1.00" d=" M 13.41 4.24 C 20.53 7.33 14.90 21.02 15.66 26.01 C 19.30 18.77 23.88 12.38 29.66 6.68 C 36.14 12.19 25.87 31.81 38.41 27.28 C 44.35 27.04 40.56 19.25 45.00 16.94 C 50.98 13.63 47.11 29.72 43.79 21.75 C 41.14 31.04 52.93 31.10 54.24 21.51 C 58.71 16.24 61.30 26.68 59.99 30.39 C 63.59 28.13 69.55 17.17 69.02 27.00 C 70.60 40.19 80.72 12.54 80.99 26.00 C 80.03 32.99 84.35 24.38 86.23 22.22 C 89.74 23.98 85.79 33.48 92.29 32.06 C 86.75 43.35 87.05 18.53 83.27 29.20 C 80.09 36.69 77.96 29.37 79.00 24.55 C 75.92 27.61 69.79 39.63 68.00 30.01 C 69.11 17.36 58.75 40.68 58.98 29.97 C 58.34 27.72 58.26 19.10 55.03 22.30 C 55.62 29.16 46.47 36.40 42.44 27.78 C 36.68 32.98 27.06 30.95 27.97 23.31 C 32.12 20.46 29.12 14.08 29.95 9.68 C 21.72 15.10 18.27 25.96 11.84 33.48 C 13.01 25.10 17.38 16.54 14.59 7.67 C 8.32 9.74 9.00 19.31 3.80 21.24 C 6.38 15.21 8.00 8.39 13.41 4.24 Z" />
<path fill="#010101" opacity="1.00" d=" M 219.24 4.73 C 228.47 13.92 207.69 23.58 213.43 33.27 C 218.21 30.99 221.23 25.97 224.49 21.78 C 228.39 23.78 223.29 28.63 224.99 32.29 C 231.59 31.49 230.57 22.61 236.79 21.73 C 243.16 18.84 233.65 34.79 241.62 28.72 C 252.96 26.09 251.62 13.89 259.02 8.58 C 260.86 18.01 248.94 22.06 252.00 31.38 C 262.02 26.04 259.77 14.01 266.99 6.99 C 272.05 13.07 257.14 23.41 261.99 30.02 C 271.72 34.09 266.93 18.42 274.77 19.22 C 275.93 23.51 273.30 27.66 269.69 29.68 C 272.60 34.88 278.85 23.96 276.30 30.23 C 271.54 37.14 267.59 28.52 261.50 32.86 C 257.98 23.75 257.61 30.36 251.33 34.21 C 249.71 30.48 250.53 28.74 251.05 24.84 C 246.63 27.24 233.76 38.92 236.99 27.99 C 235.97 19.93 229.48 34.06 225.87 35.03 C 221.22 34.16 225.76 27.45 223.29 26.00 C 221.67 31.64 209.43 40.61 211.00 29.01 C 209.05 26.81 201.36 40.30 198.01 32.00 C 194.82 26.43 199.05 26.11 202.47 19.95 C 208.60 24.15 196.30 28.95 201.36 32.57 C 214.13 28.53 212.98 14.01 219.24 4.73 M 218.28 9.23 C 216.01 13.07 215.46 17.46 213.88 21.59 C 217.29 19.41 222.30 8.72 218.28 9.23 M 265.35 11.30 C 262.98 13.29 262.70 16.70 261.75 19.48 C 264.51 18.22 266.62 10.97 265.35 11.30 M 257.09 12.95 C 251.70 17.64 255.65 20.17 257.09 12.95 C 257.48 12.53 257.48 12.53 257.09 12.95 M 272.33 22.22 C 266.20 30.07 275.48 25.91 272.33 22.22 Z" />
<path fill="#010101" opacity="1.00" d=" M 154.40 12.09 C 161.01 10.11 161.26 17.75 161.05 22.35 C 165.11 20.80 165.21 13.29 170.72 14.98 C 172.90 20.67 172.39 23.60 172.00 28.37 C 176.20 25.86 177.21 20.14 182.01 18.69 C 178.78 27.05 188.62 31.24 181.70 32.33 C 180.60 28.93 179.87 25.39 179.98 21.55 C 176.57 25.06 174.20 30.16 169.95 32.32 C 169.43 26.96 172.16 25.53 170.21 21.13 C 170.05 10.83 158.77 26.20 161.00 31.71 C 156.38 34.04 160.69 19.55 158.56 15.50 C 153.31 10.75 150.15 20.61 147.85 23.04 C 148.14 18.56 151.11 14.91 154.40 12.09 Z" />
<path fill="#010101" opacity="1.00" d=" M 104.41 21.12 C 108.67 23.67 104.62 37.25 111.30 28.21 C 116.55 18.58 121.67 35.75 116.11 32.82 C 117.58 23.11 109.40 32.51 106.01 35.41 C 107.15 27.93 104.51 26.46 100.61 32.76 C 94.80 31.48 101.77 23.95 104.41 21.12 M 103.42 25.14 C 94.42 33.82 106.86 27.06 103.42 25.14 Z" />
<path fill="#010101" opacity="1.00" d=" M 122.97 24.56 C 126.62 25.47 123.45 34.07 128.56 29.64 C 125.16 37.22 122.35 28.35 122.97 24.56 Z" />
</g>
</svg>
