<?xml version="1.0" encoding="UTF-8" standalone="no"?>
<svg
   xmlns:dc="http://purl.org/dc/elements/1.1/"
   xmlns:cc="http://creativecommons.org/ns#"
   xmlns:rdf="http://www.w3.org/1999/02/22-rdf-syntax-ns#"
   xmlns:svg="http://www.w3.org/2000/svg"
   xmlns="http://www.w3.org/2000/svg"
   xmlns:sodipodi="http://sodipodi.sourceforge.net/DTD/sodipodi-0.dtd"
   xmlns:inkscape="http://www.inkscape.org/namespaces/inkscape"
   width="9.9193in"
   height="5.6100in"
   viewBox="0 0 999 565"
   id="svg2"
   version="1.1"
   inkscape:version="0.48.2 r9819"
   sodipodi:docname="sig.svg">
  <title
     id="title3782">H G Fourcade signature</title>
  <metadata
     id="metadata26">
    <rdf:RDF>
      <cc:Work
         rdf:about="">
        <dc:format>image/svg+xml</dc:format>
        <dc:type
           rdf:resource="http://purl.org/dc/dcmitype/StillImage" />
        <dc:title>H G Fourcade signature</dc:title>
      </cc:Work>
    </rdf:RDF>
  </metadata>
  <defs
     id="defs24" />
  <sodipodi:namedview
     pagecolor="#ffffff"
     bordercolor="#666666"
     borderopacity="1"
     objecttolerance="10"
     gridtolerance="10"
     guidetolerance="10"
     inkscape:pageopacity="0"
     inkscape:pageshadow="2"
     inkscape:window-width="1600"
     inkscape:window-height="819"
     id="namedview22"
     showgrid="false"
     inkscape:zoom="0.83967816"
     inkscape:cx="419.61455"
     inkscape:cy="198.54246"
     inkscape:window-x="-6"
     inkscape:window-y="-6"
     inkscape:window-maximized="1"
     inkscape:current-layer="svg2" />
  <g
     id="g3771">
    <path
       id="path4"
       d="M388,31 l1,-2 2,-2 1,-3 2,-2 2,-4 3,-4 3,-2 3,-3 3,-3 3,-2 2,-1 2,-1 2,-1 2,0 2,0 2,1 1,0 2,1 1,1 1,1 1,2 1,1 1,1 0,2 0,1 0,1 0,4 0,6 0,7 -1,5 -2,9 -3,8 -3,8 -4,8 -4,7 -5,8 -4,7 -5,7 -10,14 -10,14 -11,14 -10,14 -5,5 -5,5 -5,6 -4,5 -4,6 -3,6 -4,6 -3,6 -6,12 -7,13 -6,12 -7,13 -2,6 -1,5 0,1 0,1 0,0 1,1 1,1 1,0 2,1 2,0 8,-9 7,-9 7,-10 7,-9 7,-10 7,-10 7,-10 7,-9 13,-17 13,-16 13,-17 12,-17 13,-18 12,-17 12,-18 11,-18 0,0 1,-1 3,-7 3,-5 1,-2 2,-2 2,-1 2,-1 1,-1 2,0 1,0 2,0 1,0 2,0 1,0 1,1 0,1 0,1 0,2 0,1 -2,5 -1,5 -4,10 -2,6 -1,8 -3,8 -3,8 -3,8 -3,8 -3,8 -3,8 -3,8 -8,16 -9,17 -8,16 -9,15 -8,16 -9,17 -9,16 -8,16 -10,14 -11,14 -10,15 -11,14 -10,15 -10,14 -11,14 -10,15 0,3 0,2 1,2 0,2 1,1 2,1 2,0 3,1 6,-6 6,-6 7,-7 7,-7 7,-6 7,-7 6,-6 6,-6 5,-5 7,-10 5,-6 5,-7 6,-6 6,-6 5,-5 6,-4 2,-2 3,-1 2,-1 3,-1 2,0 2,0 2,1 1,1 1,2 1,3 1,3 0,4 -3,5 -4,5 1,3 1,3 1,2 1,2 2,2 1,1 2,1 2,1 2,0 2,1 2,0 2,0 5,-1 5,0 4,-1 5,0 2,0 2,0 2,1 1,0 2,1 1,2 2,1 1,2 1,2 1,3 0,3 0,3 -3,7 -3,6 -3,7 -3,7 0,3 1,3 0,1 1,0 0,1 1,1 1,0 2,-1 2,-1 2,-2 4,-4 4,-4 4,-4 4,-4 3,-1 3,-2 2,-1 3,-1 3,0 3,-1 2,0 2,1 2,0 1,1 1,2 0,2 0,2 -1,3 -2,3 -2,4 -1,3 0,2 0,2 0,1 0,1 1,1 4,0 4,-1 3,-1 4,-2 3,-2 3,-3 3,-2 3,-3 3,-3 3,-2 3,-3 3,-2 4,-2 3,-1 4,-1 4,-1 5,4 3,2 2,1 2,3 1,0 2,0 1,-1 1,-1 3,-2 3,-2 7,-6 7,-6 3,-3 3,-2 2,0 1,-1 2,0 1,0 1,0 1,1 1,1 1,1 1,2 0,2 1,2 0,3 -1,2 -2,2 -8,6 -8,6 -7,6 -7,7 -7,7 -6,7 -7,8 -6,8 -3,2 -4,3 -5,3 -4,2 -2,1 -2,0 -1,0 -1,-1 0,-1 0,-2 0,-2 1,-4 3,-3 4,-4 3,-5 3,-5 1,-2 0,-3 0,-2 0,-2 -1,-1 -1,0 0,-1 -2,-1 -2,0 -4,-1 -7,5 -6,5 -7,5 -7,5 -6,5 -7,5 -7,4 -6,5 -5,3 -5,2 -4,2 -3,1 -3,1 -1,0 -1,-1 -1,0 0,0 0,-1 0,-1 0,-2 1,-3 1,-3 4,-7 5,-9 0,-3 0,-2 -1,-1 0,-1 -1,-1 -1,0 -2,0 -3,0 -5,5 -7,5 -4,3 -4,2 -3,2 -4,2 -4,2 -3,0 -2,0 -1,0 -1,0 -2,-1 -1,-1 -1,-1 -1,-1 -1,-2 0,-2 -1,-2 0,-3 0,-3 3,-6 5,-7 5,-6 4,-7 2,-3 1,-4 1,-3 1,-3 0,-2 -1,-2 0,-1 0,-2 -1,-2 -1,-1 -2,-2 -1,-1 -2,0 -3,0 -2,0 -1,1 -2,1 -1,1 -1,1 -1,2 -2,3 -1,4 -1,4 -2,4 -6,9 -5,9 -3,4 -3,4 -4,4 -3,4 -4,3 -3,3 -4,3 -5,2 -4,2 -5,1 -5,1 -6,1 -5,-5 -3,-3 -1,-2 -1,-2 0,-2 0,-4 4,-7 4,-8 0,-2 0,-2 0,-1 0,-2 -1,-1 -2,-1 -2,0 -2,0 -4,4 -3,5 -4,4 -4,4 -4,4 -4,4 -5,4 -5,4 -5,3 -4,3 -5,3 -6,2 -5,2 -5,2 -6,1 -5,1 -2,-3 -2,-2 -1,-1 -1,-2 0,-2 -1,-2 0,-2 0,-4 3,-6 3,-6 4,-6 3,-6 7,-12 7,-11 7,-11 8,-12 7,-11 7,-12 7,-8 7,-9 7,-9 6,-9 7,-9 6,-10 6,-9 6,-10 11,-20 11,-20 11,-19 10,-19 1,-2 3,-6 3,-7 3,-7 1,-4 1,-3 0,-3 0,-2 -1,-1 0,-1 -1,0 -1,0 -1,0 -2,0 -2,1 -2,1 -15,21 -12,17 -9,13 -7,10 -6,9 -7,9 -8,11 -9,12 -10,12 -9,11 -9,12 -9,13 -9,12 -9,12 -9,11 -9,13 -4,6 -3,7 -4,7 -4,7 -4,7 -3,7 -3,7 -3,7 -6,12 -7,11 -6,12 -5,12 -12,24 -12,23 -11,24 -12,23 -7,12 -6,12 -7,11 -7,11 -4,2 -3,1 -2,1 -2,0 -1,0 -2,0 -1,0 -2,-1 -1,0 -1,-1 -1,-1 -2,-2 -1,-2 0,-2 2,-10 3,-10 4,-11 4,-10 4,-10 5,-9 5,-10 6,-9 11,-20 11,-18 11,-19 12,-18 11,-17 11,-17 9,-17 10,-17 4,-9 5,-9 4,-9 4,-10 4,-9 4,-9 3,-10 4,-9 3,-6 4,-6 3,-5 4,-6 -1,-2 0,-1 -1,-1 0,-1 -1,0 -1,0 -2,0 -1,0 -3,2 -3,2 -4,3 -4,4 -7,8 -7,8 -5,6 -3,3 -3,7 -4,6 -4,7 -3,6 -4,7 -3,6 -3,7 -3,7 -3,3 -3,3 -5,9 -5,9 -5,8 -6,9 -5,9 -5,9 -4,9 -4,9 -4,7 -5,9 -3,5 -3,5 -4,5 -4,4 -4,5 -4,4 -2,1 -2,2 -2,1 -2,1 -2,1 -3,0 -2,0 -2,0 -2,0 -3,-1 -2,-1 -2,-1 -1,-3 0,-3 -1,-3 1,-2 0,-3 0,-2 1,-3 1,-2 2,-6 2,-5 3,-4 3,-5 2,-6 2,-6 2,-5 3,-5 2,-5 3,-5 3,-5 4,-5 0,-6 1,-4 1,-2 2,-4 14,-13 10,-9 7,-8 11,-12 8,-7 5,-4 3,-3 2,-2 10,-22 9,-22 9,-22 9,-22 10,-22 10,-21 11,-22 10,-21 2,-1 2,-1 2,-1 2,-1 2,0 2,0 2,0 1,0 1,1 1,0 1,2 1,1 0,2 0,2 -1,2 -1,3 -5,5 -4,5 -4,6 -3,6 -4,7 -3,6 -3,7 -3,7 -5,13 -5,14 -5,13 -5,13 1,2 1,1 0,1 1,0 2,0 3,1 9,-10 8,-10 9,-9 8,-9 8,-9 8,-10 8,-10 7,-11 3,-9 4,-10 3,-9 4,-9 3,-9 4,-10 3,-9 4,-9 4,-5 3,-5 3,-6 3,-6 5,-11 5,-12z"
       style="fill:#000" />
    <path
       id="path6"
       d="M215,489 l-1,-2 -1,-1 -1,-1 0,-1 0,-1 1,-1 1,-1 1,-1 3,-1 4,-1 4,-1 5,-1 11,-1 10,-1 8,0 5,0 17,-2 17,-1 18,-1 17,-1 17,-2 17,-2 9,-1 8,-2 9,-1 8,-2 4,-1 3,-1 4,-1 4,0 13,-2 12,-2 13,-2 12,-1 13,-2 12,-1 13,-2 13,-1 11,-1 11,-1 12,-1 11,-1 11,0 12,0 11,0 11,1 10,1 10,1 11,0 11,0 10,0 7,0 8,1 10,2 17,2 21,3 23,3 23,3 22,3 19,2 8,1 6,0 4,1 3,-1 11,-2 10,-4 3,-1 3,0 2,-1 3,0 2,0 3,1 2,1 2,1 2,5 0,4 0,3 -1,3 -1,4 -2,2 -3,2 -3,2 -4,2 -4,1 -4,2 -5,1 -5,0 -6,1 -6,0 -5,0 -12,0 -12,0 -12,-1 -11,-1 -19,-2 -11,-1 -11,-2 -10,-2 -10,-2 -11,-2 -10,-2 -10,-1 -11,-1 -10,-1 -13,-1 -10,0 -7,0 -4,-1 -9,0 -8,-1 -8,-1 -7,-1 -7,-1 -6,0 -7,-1 -7,0 -16,0 -17,0 -17,1 -17,1 -17,2 -17,2 -17,2 -17,2 -17,2 -17,2 -17,3 -17,2 -17,2 -17,2 -17,2 -17,2 -9,0 -9,1 -9,0 -9,0 -9,0 -9,0 -9,0 -9,0 -4,0 -3,0 -2,-1 -2,0 -1,-1 -2,-1z"
       style="fill:#000" />
    <path
       id="path8"
       d="M648,424 l-2,-1 -3,-1 -2,-1 -3,0 -5,-1 -5,-1 -2,-1 -2,0 -3,-1 -2,-1 -2,-1 -1,-2 -2,-2 -2,-2 0,-4 0,-4 0,-4 0,-4 0,-2 0,-2 0,-1 1,-2 1,-2 1,-1 0,-1 1,-1 4,-4 4,-5 3,-3 4,-5 5,-5 6,-5 5,-4 6,-5 7,-5 7,-4 4,-2 3,-2 4,-2 4,-1 4,-1 3,-1 4,0 3,1 0,3 0,4 -7,4 -11,6 -5,4 -6,4 -6,3 -6,5 -5,4 -4,4 -2,3 -1,2 -1,2 -1,2 -1,2 0,3 0,2 1,2 1,2 1,2 3,2 2,2 5,1 5,1 5,2 5,1 1,1 1,2 0,2 0,2 -1,2 -1,2 -1,2 -2,2 -4,3 -5,3 -4,2 -4,1z"
       style="fill:#000" />
    <path
       id="path10"
       d="M48,414 l-3,-1 -3,-1 -2,-1 -3,-2 -7,-8 -7,-10 -4,-6 -4,-5 -3,-6 -3,-6 -3,-6 -2,-6 -1,-3 -1,-3 0,-3 -1,-3 0,-3 0,-3 1,-2 0,-3 1,-3 1,-2 2,-3 1,-2 4,-2 3,-2 4,-2 3,-1 4,-2 3,0 3,-1 3,0 3,1 2,1 3,2 2,2 2,3 2,3 2,4 1,4 0,6 0,4 -1,5 0,6 3,6 3,6 2,2 1,2 2,2 1,1 2,1 2,0 2,1 2,0 3,-1 2,-1 3,-1 4,-2 8,-9 9,-10 8,-10 9,-9 11,-15 10,-16 10,-15 10,-16 10,-16 9,-16 10,-16 8,-16 5,-12 5,-11 5,-12 5,-12 5,-12 5,-11 5,-12 5,-12 3,-1 3,-1 2,0 1,1 2,1 1,1 0,2 1,3 -1,2 0,3 0,4 -1,3 -2,8 -3,8 -3,9 -3,9 -4,8 -3,7 -5,12 -2,5 -6,10 -6,11 -5,11 -6,10 -10,17 -10,16 -10,17 -11,16 -10,16 -11,16 -11,16 -11,16 -8,9 -7,8 -7,7 -7,6 -4,3 -4,2 -4,2 -4,3 -4,2 -5,1 -5,2 -6,1z"
       style="fill:#000" />
    <path
       id="path12"
       d="M759,410 l-5,-4 -4,-3 -5,-4 -4,-4 -3,1 -3,0 -4,1 -4,2 -8,2 -9,3 -4,1 -4,0 -4,0 -3,0 -1,-1 -2,0 -1,-1 -1,-1 -1,-2 0,-1 -1,-2 0,-2 8,-8 7,-8 8,-8 9,-7 8,-7 9,-7 10,-6 9,-6 4,0 3,0 3,0 3,1 3,1 3,0 4,1 3,0 4,-1 4,-1 3,-1 2,1 1,0 1,1 1,0 1,2 0,1 1,1 0,2 0,3 -3,3 -4,5 -6,6 -5,7 -2,3 -2,2 0,2 -1,1 0,1 0,1 0,1 1,1 0,1 1,1 2,1 1,0 2,0 2,1 6,-3 6,-3 5,-4 6,-3 10,-8 11,-7 10,-8 11,-7 5,-4 6,-3 6,-3 5,-3 4,0 2,1 1,0 0,1 1,0 0,1 0,2 -1,2 -1,2 -1,2 -4,4 -4,4 -3,3 -2,2 0,2 0,2 1,2 1,1 1,0 2,1 1,-1 2,0 2,-1 2,-1 2,-2 2,-2 5,-4 4,-4 10,-11 9,-10 6,-9 4,-5 1,-3 2,-4 2,-6 3,-11 4,-5 3,-5 3,-5 3,-5 2,-5 3,-6 2,-6 1,-6 -4,-8 -5,-8 -6,-10 -7,-15 -3,-9 -2,-10 -3,-10 -3,-9 0,-2 0,-1 0,-2 0,-1 0,-10 0,-9 0,-11 1,-10 1,-6 1,-4 1,-6 1,-4 2,-4 3,-4 1,-1 1,-2 2,-1 1,-1 2,-2 2,-1 3,0 2,0 5,-1 6,1 2,0 3,1 2,1 2,1 4,3 4,2 3,3 2,3 2,3 2,5 2,4 2,5 2,7 1,6 1,7 1,7 1,1 0,2 0,1 0,1 -1,9 -1,10 -1,9 -1,9 -1,9 -2,8 -2,10 -2,8 0,2 0,1 0,1 1,2 2,2 2,3 3,3 3,3 2,3 2,3 2,3 1,3 1,3 1,2 1,3 1,3 0,4 0,3 0,2 -1,3 0,3 -1,3 -2,6 -2,6 -3,5 -3,6 -7,12 -7,11 -9,10 -10,11 -2,2 -2,3 -3,3 -1,3 -2,3 -1,3 -1,3 0,3 1,1 1,1 2,1 2,0 4,2 4,2 1,1 2,1 0,1 1,1 -1,2 -1,2 -2,2 -2,2 -6,1 -9,2 -5,2 -5,0 -5,1 -4,1 -5,0 -5,0 -2,-1 -2,0 -1,-1 -2,-1 -1,-1 -1,-1 -1,-1 -1,-2 -1,-2 0,-2 0,-2 1,-2 9,-10 10,-10 11,-10 10,-11 5,-5 5,-6 4,-5 4,-6 3,-6 4,-7 2,-6 2,-7 0,-5 0,-5 0,-2 -1,-2 0,-2 -1,-2 -1,-1 -1,-1 -1,-1 -2,1 -1,0 -2,2 -2,2 -3,3 -6,10 -5,10 -6,10 -6,11 -7,9 -7,10 -7,9 -8,9 -6,5 -8,8 -9,9 -10,9 -5,4 -5,3 -5,4 -5,2 -3,1 -2,1 -3,0 -2,1 -2,0 -2,-1 -2,0 -2,-1 0,-8 0,-5 0,-1 0,-1 -1,-1 -1,0 -1,-1 -1,0 -2,-1 -2,0 -7,5 -7,5 -7,4 -8,5 -8,4 -8,3 -4,1 -4,1 -4,1 -4,1z"
       style="fill:#000" />
    <path
       id="path14"
       d="M381,379 l-1,-1 -1,-3 0,-2 0,-3 0,-3 1,-3 1,-3 1,-2 3,-6 2,-6 3,-4 3,-3 2,0 2,0 1,0 1,1 1,0 1,1 0,1 1,1 0,3 0,3 -1,3 -1,3 -3,7 -3,6 -3,6 -2,3 -4,1 -4,0z"
       style="fill:#fff" />
    <path
       id="path16"
       d="M739,375 l-1,-1 0,-1 0,-1 0,-2 0,-1 0,-2 0,-1 1,-1 2,-3 2,-2 2,-2 3,-2 3,-1 3,-1 2,-1 3,0 1,0 1,1 1,0 1,1 1,1 0,1 1,1 0,2 -7,6 -5,5 -3,1 -3,2 -3,1 -5,0z"
       style="fill:#fff" />
    <path
       id="path18"
       d="M957,207 l-3,-5 -3,-5 -3,-6 -2,-7 -2,-6 -2,-7 -2,-7 -1,-7 -1,-7 0,-7 0,-7 0,-7 0,-7 1,-6 1,-6 1,-7 0,-1 1,-1 1,-1 1,0 3,-1 3,0 3,1 2,1 3,1 2,3 2,3 2,3 1,3 2,4 1,5 1,4 1,5 1,5 0,5 1,5 0,10 0,11 -1,5 0,4 -1,5 -1,4 -1,4 -1,4 -1,3 -1,3 -2,3 -2,2 -2,1 -2,1z"
       style="fill:#fff" />
    <path
       id="path20"
       d="M403,31 l2,-1 2,-2 2,1 1,0 1,0 1,1 1,1 1,3 -3,10 -4,11 -4,10 -5,10 -5,10 -6,10 -5,10 -6,10 -1,1 -2,2 -1,0 -2,0 -1,0 -2,0 -1,-2 -1,-2 1,-2 2,-4 3,-7 4,-8 5,-11 7,-14 7,-17 9,-20z"
       style="fill:#fff" />
  </g>
</svg>
