<?xml version="1.0" encoding="UTF-8"?>
<svg version="1.0" xmlns="http://www.w3.org/2000/svg" width="113" height="30" >
<path fill="#231F20" d="M17.083,3.722c-1.864,7.502-3.696,15.014-5.625,22.5c-0.077,0.3,0.976,0.137,1.054-0.165 c1.929-7.486,3.762-14.998,5.625-22.5C18.212,3.255,17.158,3.42,17.083,3.722L17.083,3.722 M20.453,2.076c-2.177,9.205-4.276,18.555-7.375,27.5c-0.135,0.39,0.936,0.252,1.065-0.122 c3.099-8.945,5.198-18.295,7.375-27.5C21.618,1.53,20.543,1.692,20.453,2.076L20.453,2.076 M1.913,24.037c6.528-3.026,13.278-5.919,20.246-7.749c1.729-0.454,1.377-1.751-0.348-1.298 c-7.23,1.897-14.232,4.862-21.004,8.001C-1.031,23.844,0.676,24.611,1.913,24.037L1.913,24.037z M19.704,22.657c0,0.292,0,0.583,0,0.875c0,0.24,1.063,0.066,1.063-0.285c0-0.292,0-0.583,0-0.875 C20.767,22.132,19.704,22.306,19.704,22.657L19.704,22.657 M26.209,23.602c-0.254,0.955-0.548,1.978-0.208,2.934c0.039,0.109,0.222,0.092,0.307,0.092 c1.194-0.011,1.974-0.789,2.919-1.47c2.953-2.127,5.845-4.339,8.737-6.548c3.308-2.527,6.592-5.086,9.82-7.714 c1.326-1.08,3.563-2.384,4.293-3.988c0.1-0.22-0.914-0.092-1.052,0.175c-2.335,4.524-4.571,9.49-5.94,14.395 c-0.086,0.306,0.928,0.031,1.051-0.175c2.607-4.348,6.122-8.174,9.6-11.832c0.714-0.751,2.067-1.859,1.557,0.065 c-0.556,2.095-1.467,4.133-2.125,6.203c-0.571,1.8-1.072,3.639-1.457,5.488c-0.061,0.29,0.969,0.094,1.051-0.175 c1.322-4.318,4.121-7.976,7.137-11.265c1.15-1.255,0.389,0.611,0.172,1.453c-0.854,3.323-2.243,6.548-3.484,9.737 c-0.097,0.247,0.923,0.08,1.051-0.175c2.003-3.966,4.071-8.158,6.806-11.7c0.527-0.683-0.027-0.408,0.008-0.246 c0.137,0.624-0.199,1.505-0.344,2.11c-0.899,3.746-2.34,7.396-3.646,11.01c-0.094,0.258,0.926,0.074,1.051-0.175 c2.299-4.577,6.154-8.24,9.396-12.148c1.339-1.615,0.98-1.473,0.44,0.518c-1.005,3.708-2.46,7.323-3.763,10.931 c-0.089,0.246,0.937,0.098,1.051-0.175c1.891-4.488,5.016-7.957,7.695-11.925c1.022-1.514-0.302-0.519-0.718,0.76 c-1.066,3.275-2.127,6.552-3.153,9.84c-0.086,0.273,0.935,0.073,1.051-0.175c1.878-3.982,3.729-8.417,6.482-11.876 c-0.408,0.512-0.728,2.538-1.041,3.638c-0.909,3.188-2.095,6.305-3.242,9.413c-0.106,0.289,0.889,0.029,1.01-0.116 c3.021-3.62,6.095-7.199,9.273-10.682c0.674-0.738,6.271-7.089,3.541-7.877c-2.251-0.65-3.919,4.674-4.364,5.688 c-0.692,1.579-5.698,12.045-3.943,13.534c0.205,0.174,0.73-0.024,0.91-0.155c2.604-1.896,4.69-5.706,7.03-8.046 c0.722-0.721,1.477-1.404,2.271-2.043c-0.144,0.115-0.819,2.958-0.973,3.415c-0.533,1.586-1.688,3.874-1.525,5.591 c0.028,0.302,0.911-0.074,1.015-0.17c2.465-2.283,4.48-5.24,6.836-7.667c0.512-0.528,1.045-1.031,1.59-1.525 c-0.897,0.814-1.189,4.311-1.397,5.459c-0.193,1.074-0.231,4.181,0.827,4.955c0.228,0.167,0.908-0.02,1.024-0.274 c0.947-2.071,1.691-4.31,2.479-6.45c0.442-1.202,0.692-2.454,1.094-3.667c1.113-3.369,5.283-1.508,7.27-0.589 c0.244,0.113,1.219-0.273,0.867-0.436c-3.226-1.493-7.385-2.808-9.188,1.199c-1.293,2.873-2.1,6.185-3.221,9.161 c-0.307,0.79-0.217,0.769,0.27-0.064c-0.607-1.724-0.387-3.912-0.081-5.605c0.256-1.418,1.249-2.974,1.186-4.428 c-0.02-0.042-0.052-0.067-0.099-0.075c-1.136-0.333-2.347,1.179-3.006,1.813c-2.656,2.553-4.738,5.768-7.417,8.249 c0.338-0.057,0.677-0.114,1.016-0.17c-0.124-1.318,3.302-9.605,2.277-9.546c-2.594,0.15-5.342,4.176-6.857,5.824 c-0.908,0.987-3.439,3.099-3.313,4.488c-0.318-3.477,2.262-8.305,3.48-11.427c0.854-2.185,1.771-4.43,3.186-6.32 c0.076-0.102-0.307,2.603-0.46,2.988c-1.294,3.251-5.153,6.269-7.438,8.89c-1.64,1.881-3.254,3.786-4.857,5.698 c1.746-2.082,3.206-6.484,4.229-10.068c0.246-0.861,1.348-3.757-0.541-3.08c-0.55,0.197-0.943,0.828-1.242,1.283 c-2.046,3.122-3.7,6.513-5.341,9.859c-1.506,3.071,1.16-1.261,1.466-2.228c0.513-1.623,1.039-3.242,1.568-4.859 c0.225-0.687,1.269-2.614,1.014-3.379c-0.091-0.274-0.808,0.017-0.942,0.11c-1.011,0.705-1.694,2.415-2.463,3.359 c-1.457,1.792-2.772,3.505-3.969,5.483c-0.605,1.001-1.12,2.058-1.634,3.108c-1.456,2.981,1.395-1.443,1.699-2.294 c0.122-0.338,4.446-11.424,1.65-9.442c-1.417,1.004-2.459,2.72-3.572,4.027c-2.656,3.122-5.504,6.145-7.441,9.795 c1.02-1.92,1.994-2.819,2.734-4.95c0.418-1.202,0.809-2.411,1.194-3.623c0.427-1.344,0.831-2.709,1.052-4.104 c0.127-0.802-0.077-1.187-0.876-0.954c-0.858,0.25-1.374,1.198-1.85,1.883c-2.186,3.148-3.977,6.606-5.744,9.994 c-1.201,2.303,1.788-2.352,1.896-2.635c0.483-1.267,0.939-2.543,1.387-3.822c0.478-1.362,0.95-2.759,1.16-4.191 c0.121-0.824-0.336-1.063-1.055-0.794c-1.173,0.44-2.023,1.748-2.795,2.657c-1.123,1.326-2.178,2.672-3.157,4.108 c-0.761,1.117-1.34,2.357-1.91,3.577c-0.23,0.522-0.441,1.051-0.632,1.589c-0.363,0.646-0.069,0.744,0.882,0.294 c0.919-4.417,3.414-8.737,3.879-13.168c0.103-0.972-1.409-0.401-1.749-0.148c-2.831,2.107-5.131,5.083-7.388,7.763 c-1.096,1.302-2.14,2.669-3.104,4.071c-0.295,0.419-0.582,0.843-0.862,1.272c-0.933,1.407,0.695,0.147,0.756-0.068 c0.822-2.944,2.189-5.786,3.41-8.578c0.419-0.957,3.778-7.357,0.678-4.213c-4.188,4.246-9.402,7.739-14.129,11.35 c-2.247,1.716-4.506,3.415-6.782,5.092c-2.066,1.523-3.212,2.798-2.235-0.87C27.332,23.16,26.286,23.315,26.209,23.602 L26.209,23.602 M107.23,19.529c0.305-0.537,0.765-1.051,1.342-1.29c0.131-0.055,0.448-0.256,0.281-0.434 c-0.166-0.176-0.517-0.093-0.705-0.015c-0.795,0.329-1.484,0.96-1.908,1.71C105.987,19.946,107.057,19.837,107.23,19.529 L107.23,19.529 M39.334,1.477c-2.493,7.278-5.25,14.766-6.5,22.375c-0.049,0.3,0.99,0.102,1.052-0.174 c1.658-7.415,5.561-13.998,8.476-20.942c-0.21,0.499-0.981-0.018-1.257,0.761c-0.208,0.59-0.412,1.181-0.617,1.773 c-0.684,1.978-1.338,3.966-1.982,5.957c-1.569,4.849-3.035,9.751-4.047,14.75c-0.059,0.289,0.994,0.111,1.052-0.174 c1.593-7.867,4.175-15.575,6.875-23.125c0.09-0.25-0.938-0.102-1.051,0.174c-1.297,3.134-2.788,6.192-4.25,9.25 c-1.29,2.697-2.368,5.472-3.297,8.313c-0.271,0.83-0.502,1.672-0.729,2.516c-0.47,1.75,0.931,0.104,1.096-0.745 c1.373-7.087,3.895-14.063,6.231-20.882C40.471,1.055,39.434,1.186,39.334,1.477L39.334,1.477 M52.149,1.729c0.035-0.297,0.073-0.88,0.317-1.081c0.558-0.458-0.287-0.866-0.713-0.517 C51.276,0.523,51.14,1.214,51.071,1.8C51.005,2.366,52.091,2.232,52.149,1.729L52.149,1.729z"/>
</svg>