<?xml version="1.0" encoding="UTF-8"?>
<svg version="1.0" xmlns="http://www.w3.org/2000/svg" width="299" height="66" >
<path fill="#231F20" d="M4.28,37.28c7.92-6.858,16.132-13.676,25.059-19.186c1.843-1.137,4.048-2.583,6.26-2.772 c2.632-0.226,0.357,7.379,0.041,8.487c-2.215,7.764-5.813,15.199-9.354,22.432c-1.848,3.773-3.726,7.526-5.421,11.372 c-0.733,1.664-1.969,3.764-1.703,5.633c0.401,2.813,6.079-5.1,6.417-5.574c9.521-13.335,18.33-28.706,31.199-39.142 c-0.393-0.303-0.785-0.606-1.178-0.909c-2.689,6.045-5.261,12.146-7.737,18.281c-1.79,4.436-3.516,8.906-4.996,13.456 c-0.68,2.092-1.823,4.838-1.343,7.091c0.15,0.706,1.315,0.731,1.446,0c0.777-4.339,1.857-9.334,0.945-13.702 c-0.84-4.018-4.832,0.863-5.47,2.285c-1.935,4.312,1.6,7.508,5.802,7.718c3.564,0.178,6.701-0.755,9.871-2.331 c1.483-0.737,8.236-6.421,9.849-5.139c0.177-0.427,0.354-0.854,0.53-1.28c-2.042-0.046-5.071,0.184-6.232,2.165 c-0.835,1.427,0.018,4.101,1.99,3.746c3.481-0.627,5.278-4.04,8.726-4.772c4.522-0.96,9.532-1.489,13.395-4.241 c-0.303-0.393-0.606-0.785-0.909-1.178c-1.388,1.228-2.2,3.707,0.435,4.071c1.915,0.266,3.992-0.746,5.681-1.508 c11.644-5.246,20.943-16.293,28.695-26.003c0.589-0.737-0.363-1.764-1.061-1.061c-3.269,3.295-6.228,6.906-8.918,10.684 c-1.639,2.301-7.123,9.86-4.999,12.934c1.223,1.77,5.454-1.647,6.482-2.278c1.025-0.629,7.116-5.09,7.325-2.923 c0.089,0.918,0.662,1.222,1.45,1.306c0.341,0.037,0.772-0.281,1-0.488c0.978-0.882,2.111,1.074,2.9,1.291 c1.75,0.481,3.296-0.357,4.57-1.465c0.983-0.854,2.156-1.499,3.231-2.238c9.562-6.567,17.885-15.071,26.019-23.262 c-0.354-0.354-0.707-0.707-1.061-1.061c-3.352,3.551-10.604,10.584-9.693,15.979c0.509,3.01,2.678,3.244,5.225,2.194 c1.437-0.592,2.673-1.647,3.81-2.678c0.526-0.477,0.911-1.027,1.337-1.587c1.2-1.575,1.791,0.871,2.271,1.543 c0.258,0.362,0.625,0.447,1.026,0.269c1.775-0.788,2.427-2.275,4.68-2.472c1.639-0.143,1.412,0.893,2.24,1.485 c1.411,1.008,5.002-0.184,6.47-0.474c8.124-1.607,18.427-3.653,25.161-8.742c1.392-1.051,3.074-2.892,2.369-4.761 c-0.634-1.678-3.652-1.425-4.828-0.666c-2.863,1.847-8.02,10.16-4.396,13.308c1.563,1.357,5.113,0.513,6.868,0.384 c2.914-0.214,5.804-0.498,8.701-0.865c7.873-0.998,15.729-2.146,23.593-3.215c20.512-2.787,41.222-5.736,61.946-6.172 c0.966-0.021,0.968-1.521,0-1.5c-19.52,0.411-39.014,3.107-58.34,5.686c-8.306,1.108-16.6,2.296-24.904,3.402 c-3.485,0.464-17.2,3.346-17.256-0.588c-0.031-2.25,0.918-4.522,1.955-6.455c0.391-0.53,0.78-1.06,1.171-1.589 c2.602-2.426,3.617-2.063,3.046,1.087c-1.117,1.293-2.784,2.113-4.266,2.893c-4.104,2.158-9.093,3.234-13.531,4.467 c-3.784,1.051-7.676,2.11-11.593,2.505c-1.684,0.169-2.194-1.575-4.407-1.689c-0.903-0.047-2.193,0.193-2.98,0.608 c-1.608,0.848-1.413,1.51-2.664-0.205c-1.353-1.855-2.559-0.392-3.628,1c-0.781,1.016-8.554,7.38-7.465,1.346 c0.393-2.17,1.916-4.254,3.122-6.05c1.763-2.625,3.85-5.087,6.021-7.387c0.663-0.702-0.377-1.749-1.061-1.061 c-7.607,7.661-15.362,15.389-24.053,21.84c-1.329,0.987-2.708,1.895-4.094,2.8c-0.33,0.216-0.655,0.441-0.953,0.701 c-3.37,2.942-3.306-0.003-5.606-0.636c-0.554-0.152-1.912,1.135-2.014,0.075c-0.058-0.602-0.304-1.177-0.946-1.354 c-2.792-0.768-7.148,3.27-9.282,4.581c-0.566,0.348-4.14,2.955-3.55,0.513c0.839-3.471,2.896-6.66,4.875-9.58 c2.514-3.71,5.526-7.197,8.684-10.38c-0.354-0.354-0.707-0.707-1.061-1.061c-6.537,8.188-13.664,16.083-22.258,22.164 c-2.345,1.659-4.867,3.148-7.544,4.202c-0.636,0.25-5.46,1.47-2.887-0.806c0.634-0.561-0.213-1.674-0.909-1.178 c-4.646,3.31-10.457,2.796-15.564,4.76c-1.508,0.579-2.83,2.402-4.154,3.303c-1.476,1.267-2.014,0.795-1.617-1.416 c0.81-0.386,1.662-0.614,2.557-0.685c0.544-0.069,1.108-0.077,1.657-0.064c0.607,0.014,1.057-0.861,0.53-1.28 c-1.506-1.198-3.061-0.386-4.566,0.467c-4.934,2.795-8.943,6.35-14.923,6.628c-3.946,0.184-7.328-2.117-5.506-6.177 c0.333-0.74,0.869-1.366,1.438-1.933c1.419-1.413,1.211,2.266,1.212,2.712c0.003,3.381-0.563,6.812-1.158,10.134 c0.482,0,0.964,0,1.446,0c-0.499-2.342,1.142-5.713,1.863-7.868c1.451-4.338,3.15-8.595,4.861-12.835 c2.298-5.697,4.704-11.355,7.2-16.969c0.352-0.791-0.501-1.458-1.178-0.909C43.031,27.758,34.116,42.977,24.807,56.18 c-0.775,1.099-1.56,2.189-2.359,3.271c-0.318,0.43-0.644,0.853-0.978,1.27c-0.922,1.161-0.724,1.037-0.833,1.791 c0.63-4.334,3.737-9.02,5.652-12.907c3.417-6.939,6.724-13.926,9.403-21.19c1.26-3.418,4.491-10.524,1.664-13.955 c-1.903-2.309-7.188,1.394-8.772,2.341C19.507,22.226,11.197,29.312,3.22,36.22C2.487,36.854,3.553,37.91,4.28,37.28L4.28,37.28z M124.25,24c0-0.051,0.004-0.102,0.007-0.152c0.002-0.033,0.026-0.208,0-0.033 c0.015-0.099,0.037-0.196,0.061-0.293c0.069-0.279,0.157-0.51,0.431-0.521c0.963-0.042,0.968-1.542,0-1.5 c-1.334,0.057-1.991,1.28-2,2.5C122.743,24.968,124.243,24.967,124.25,24L124.25,24z M167.551,12.223c0.416,0.083,0.833,0.167,1.25,0.25c0.944,0.189,1.347-1.257,0.398-1.446 c-0.416-0.083-0.833-0.167-1.25-0.25C167.005,10.588,166.603,12.034,167.551,12.223L167.551,12.223 M64.647,32.878c0.329-0.563,0.769-1.048,1.309-1.415c1.417-0.96,3.033,1.838,4.251,2.461 c1.315,0.673,2.989,0.28,4.073-0.645c0.737-0.629-0.329-1.685-1.061-1.061c-2.618,2.233-3.938-2.487-6.355-2.484 c-1.55,0.001-2.764,1.101-3.512,2.386C62.865,32.959,64.161,33.714,64.647,32.878L64.647,32.878z"/>
</svg>