<?xml version="1.0" encoding="UTF-8" standalone="no"?>
<!-- Created with Inkscape (http://www.inkscape.org/) -->

<svg
   xmlns:dc="http://purl.org/dc/elements/1.1/"
   xmlns:cc="http://creativecommons.org/ns#"
   xmlns:rdf="http://www.w3.org/1999/02/22-rdf-syntax-ns#"
   xmlns:svg="http://www.w3.org/2000/svg"
   xmlns="http://www.w3.org/2000/svg"
   xmlns:sodipodi="http://sodipodi.sourceforge.net/DTD/sodipodi-0.dtd"
   xmlns:inkscape="http://www.inkscape.org/namespaces/inkscape"
   width="335"
   height="85"
   id="svg2"
   version="1.1"
   inkscape:version="0.48.0 r9654"
   style="display:inline"
   sodipodi:docname="Nowy dokument 1">
  <defs
     id="defs4" />
  <sodipodi:namedview
     id="base"
     pagecolor="#ffffff"
     bordercolor="#666666"
     borderopacity="1.0"
     inkscape:pageopacity="0.0"
     inkscape:pageshadow="2"
     inkscape:zoom="2.7651041"
     inkscape:cx="174.79967"
     inkscape:cy="55.500663"
     inkscape:document-units="px"
     inkscape:current-layer="layer2"
     showgrid="false"
     fit-margin-top="0"
     fit-margin-left="0"
     fit-margin-right="0"
     fit-margin-bottom="0"
     inkscape:window-width="1440"
     inkscape:window-height="820"
     inkscape:window-x="-8"
     inkscape:window-y="-8"
     inkscape:window-maximized="1" />
  <metadata
     id="metadata7">
    <rdf:RDF>
      <cc:Work
         rdf:about="">
        <dc:format>image/svg+xml</dc:format>
        <dc:type
           rdf:resource="http://purl.org/dc/dcmitype/StillImage" />
        <dc:title></dc:title>
      </cc:Work>
    </rdf:RDF>
  </metadata>
  <g
     inkscape:groupmode="layer"
     id="layer2"
     inkscape:label="Warstwa"
     style="display:inline">
    <path
       style="font-size:medium;font-style:normal;font-variant:normal;font-weight:normal;font-stretch:normal;text-indent:0;text-align:start;text-decoration:none;line-height:normal;letter-spacing:normal;word-spacing:normal;text-transform:none;direction:ltr;block-progression:tb;writing-mode:lr-tb;text-anchor:start;baseline-shift:baseline;color:#000000;fill:#000000;fill-opacity:1;stroke:none;stroke-width:1.5;marker:none;visibility:visible;display:inline;overflow:visible;enable-background:accumulate;font-family:Sans;-inkscape-font-specification:Sans"
       d="m 126.53125,15.8125 a 0.750075,0.750075 0 0 0 -0.25,0.125 c -0.016,0.0102 -0.0155,0.02113 -0.0312,0.03125 -0.82472,0.525961 -1.44637,0.943434 -1.875,1.25 -0.21844,0.156233 -0.40755,0.275967 -0.53125,0.375 -0.0619,0.04952 -0.10474,0.108138 -0.15625,0.15625 -0.0258,0.02406 -0.055,0.04823 -0.0937,0.09375 -0.0194,0.02276 -0.0297,0.04053 -0.0625,0.09375 -0.0164,0.02661 -0.0414,0.04269 -0.0625,0.09375 -0.0105,0.02553 -0.0212,0.05621 -0.0312,0.09375 -0.0101,0.03754 -0.0312,0.155813 -0.0312,0.15625 -3e-5,4.37e-4 0.0312,0.187136 0.0312,0.1875 7e-5,3.64e-4 0.0936,0.249708 0.0937,0.25 1.7e-4,2.92e-4 0.15597,0.18728 0.15625,0.1875 2.8e-4,2.2e-4 0.21837,0.124853 0.21875,0.125 3.8e-4,1.47e-4 0.15577,0.03118 0.15625,0.03125 4.8e-4,7.5e-5 0.0619,0.03116 0.0937,0.03125 0.0639,1.78e-4 0.12189,-0.02496 0.15625,-0.03125 0.13744,-0.02516 0.14887,-0.04489 0.1875,-0.0625 0.0773,-0.03522 0.12325,-0.05541 0.1875,-0.09375 0.12849,-0.07669 0.31298,-0.194479 0.53125,-0.34375 0.42398,-0.289946 1.05623,-0.752604 1.875,-1.375 0.0243,-0.01845 0.0379,-0.01248 0.0625,-0.03125 a 0.750075,0.750075 0 0 0 -0.5625,-1.34375 0.750075,0.750075 0 0 0 -0.0625,0 z m 36.25,4.875 c -0.18739,0.01395 -0.37981,0.0321 -0.5625,0.0625 -0.36539,0.06079 -0.6962,0.146246 -0.96875,0.21875 -0.13628,0.03625 -0.2558,0.0672 -0.34375,0.09375 -0.044,0.01327 -0.0935,0.02092 -0.125,0.03125 -0.0315,0.01033 0.004,0.0016 -0.125,0.0625 -1.27523,0.600129 -3.43996,1.498083 -5.5625,2.46875 -2.12254,0.970667 -4.17639,1.976619 -5.4375,2.9375 -1.46978,1.119874 -4.6303,4.45924 -7.34375,8.125 -0.13917,0.188017 -0.20766,0.37337 -0.34375,0.5625 -1.61965,1.224178 -3.35555,2.516229 -4.84375,3.625 -3.06403,2.282831 -5.79908,4.219292 -7.9375,5.4375 -1.06921,0.609104 -2.02138,1.052557 -2.71875,1.25 -0.69737,0.197443 -1.0866,0.131568 -1.25,0.03125 -0.66825,-0.410272 -1.13773,-1.496835 -1.28125,-2.84375 -0.14352,-1.346915 0.0253,-2.884363 0.3125,-3.9375 0.0968,-0.354764 0.63243,-1.292463 1.03125,-2.09375 0.19941,-0.400644 0.41235,-0.763636 0.4375,-1.25 0.0126,-0.243182 -0.0623,-0.584371 -0.3125,-0.84375 -0.25019,-0.259379 -0.56915,-0.3125 -0.84375,-0.3125 -0.33842,0 -0.6885,0.174289 -0.875,0.375 -0.1865,0.200711 -0.2722,0.384283 -0.34375,0.5625 -0.1431,0.356435 -0.24136,0.676868 -0.28125,0.75 -1.79749,3.295523 -5.39489,6.52009 -8.625,8.78125 -1.15827,0.810826 -2.66723,1.401558 -4.0625,2.0625 -1.2438,0.589189 -2.49214,1.073612 -3.78125,1.6875 -1.32175,0.629432 -2.30025,0.930045 -2.875,0.96875 -0.57475,0.03871 -0.66059,-0.06993 -0.75,-0.21875 -0.0894,-0.148823 -0.13694,-0.561195 -0.0312,-1.1875 0.10564,-0.626305 0.34809,-1.436811 0.6875,-2.28125 0.67882,-1.688879 1.70276,-3.588423 2.53125,-5.09375 0.41425,-0.752664 0.77274,-1.412695 1.03125,-1.90625 0.12926,-0.246778 0.23651,-0.441419 0.3125,-0.625 0.038,-0.09179 0.067,-0.160012 0.0937,-0.28125 0.0134,-0.06062 0.0366,-0.132113 0.0312,-0.25 -0.005,-0.117887 -0.0514,-0.332625 -0.25,-0.53125 -0.78476,-0.784794 -1.92272,-0.852175 -3.0625,-0.65625 -1.13978,0.195925 -2.37055,0.66368 -3.59375,1.21875 -2.446393,1.110141 -4.856413,2.620655 -5.75,3.09375 -1.426679,0.755332 -3.360105,1.536668 -4.40625,1.15625 a 0.750075,0.750075 0 0 0 -0.25,-0.0625 c 1.3809,-2.619397 2.951312,-5.215016 4.28125,-7.875 0.360309,-0.720646 1.324122,-2.108402 2.1875,-3.5 0.431689,-0.695799 0.843052,-1.413753 1.15625,-2.0625 0.313198,-0.648747 0.5625,-1.21621 0.5625,-1.84375 0,-0.04356 0.01711,-0.09941 0,-0.1875 -0.0086,-0.04404 -0.02542,-0.106702 -0.0625,-0.1875 -0.01854,-0.0404 -0.05384,-0.07182 -0.09375,-0.125 -0.03991,-0.05318 -0.186713,-0.1557 -0.1875,-0.15625 -7.87e-4,-5.5e-4 -0.280376,-0.12482 -0.28125,-0.125 -8.74e-4,-1.8e-4 -0.280292,-1.78e-4 -0.28125,0 -9.58e-4,1.78e-4 -0.134871,0.03583 -0.1875,0.0625 -0.05263,0.02667 -0.09373,0.03834 -0.125,0.0625 -0.125072,0.09664 -0.15887,0.175892 -0.1875,0.21875 -0.11452,0.171431 -0.116795,0.213854 -0.15625,0.3125 -0.07891,0.197292 -0.168836,0.458005 -0.1875,0.5 -0.492326,1.107779 -1.661373,2.682138 -2.75,3.96875 -3.15849,3.732913 -5.196858,8.259225 -8.46875,11.53125 -1.746162,1.746232 -3.41829,3.578155 -5.03125,5.40625 -0.828661,0.939187 -1.86737,2.136792 -2.71875,2.5625 -1.108452,0.554249 -1.964396,1.433775 -2.78125,2.21875 -0.785691,0.755028 -1.515663,1.372004 -2.28125,1.6875 -0.04145,-0.08406 -0.105484,-0.220557 -0.15625,-0.53125 -0.125145,-0.765895 -0.103546,-2.022632 0,-3.34375 0.207092,-2.642236 0.719709,-5.506686 0.8125,-6.15625 0.05145,-0.360142 -0.08692,-0.691066 -0.21875,-0.90625 -0.131831,-0.215184 -0.264807,-0.347404 -0.375,-0.46875 -0.09556,-0.105238 -0.155194,-0.173185 -0.1875,-0.21875 0.001,-0.0016 -0.0019,-0.02657 0,-0.03125 0.01538,-0.03841 0.02511,-0.07064 0.09375,-0.21875 0.0971,-0.209527 0.24381,-0.495533 0.40625,-0.8125 0.32488,-0.633934 0.754945,-1.420038 1.125,-2.25 0.370055,-0.829962 0.697771,-1.710932 0.84375,-2.53125 0.145979,-0.820318 0.131118,-1.712607 -0.5,-2.34375 -0.121647,-0.121651 -0.366478,-0.217686 -0.59375,-0.21875 -0.227272,-0.0011 -0.395195,0.08165 -0.5,0.15625 -0.20961,0.149197 -0.267171,0.277719 -0.34375,0.40625 -0.153157,0.257061 -0.273792,0.54158 -0.40625,0.90625 -0.264917,0.729341 -0.552331,1.72402 -0.8125,2.71875 -0.18064,0.69066 -0.328858,1.293592 -0.46875,1.90625 -0.290864,-0.817985 -0.692332,-1.434152 -1.28125,-1.8125 -0.402346,-0.258486 -0.853875,-0.375628 -1.3125,-0.375 -0.458625,6.28e-4 -0.935078,0.09371 -1.375,0.28125 -1.759688,0.75015 -3.513106,2.614992 -5.125,4.8125 -1.611894,2.197508 -3.020939,4.743373 -3.8125,6.90625 -0.39578,1.081439 -0.648709,2.071283 -0.65625,2.9375 -0.0038,0.433108 0.04433,0.836451 0.21875,1.21875 0.174425,0.382299 0.495809,0.73034 0.90625,0.90625 0.657245,0.281688 1.374068,0.22267 2.0625,0 0.688432,-0.22267 1.394589,-0.620948 2.09375,-1.125 1.398322,-1.008103 2.844394,-2.465566 4.15625,-4.0625 1.311856,-1.596934 2.464306,-3.322723 3.28125,-4.84375 0.326127,-0.6072 0.580878,-1.158702 0.78125,-1.6875 0.102199,0.142396 0.194852,0.279857 0.28125,0.375 0.110698,0.121902 0.194786,0.210884 0.21875,0.25 -0.07955,0.535884 -0.600118,3.446519 -0.8125,6.15625 -0.107781,1.37515 -0.135611,2.697552 0.03125,3.71875 0.08343,0.510599 0.175441,0.947198 0.5,1.34375 0.324559,0.396552 1.020537,0.597775 1.53125,0.40625 1.175075,-0.440671 2.073707,-1.293698 2.90625,-2.09375 0.832543,-0.800052 1.605911,-1.537315 2.40625,-1.9375 1.330794,-0.665424 2.385087,-1.996813 3.1875,-2.90625 1.60207,-1.815753 3.255274,-3.630204 4.96875,-5.34375 1.508916,-1.508977 2.657951,-3.242721 3.8125,-4.96875 -1.822915,3.252087 -3.581622,6.577185 -4.5,10.1875 -1.0387,4.083326 -0.980344,8.205716 -1.5,12 -0.519656,3.794284 -1.579836,7.207561 -4.78125,10.125 -0.655181,0.597065 -1.062494,1.067525 -1.3125,1.5625 -0.125003,0.247487 -0.233743,0.509522 -0.21875,0.8125 0.01499,0.302978 0.190255,0.648975 0.40625,0.84375 0.43199,0.389551 0.906746,0.404221 1.40625,0.40625 0.499504,0.002 1.060867,-0.06223 1.65625,-0.1875 1.190765,-0.250532 2.508758,-0.712723 3.65625,-1.25 0.573746,-0.268639 1.124942,-0.565385 1.5625,-0.875 0.437558,-0.309615 0.773959,-0.596877 1,-1.0625 a 0.750075,0.750075 0 1 0 -1.3437,-0.65625 c -0.02213,0.04558 -0.199039,0.264928 -0.53125,0.5 -0.332211,0.235072 -0.797074,0.477418 -1.3125,0.71875 -1.030852,0.482664 -2.29176,0.934916 -3.34375,1.15625 -0.525995,0.110667 -1.009074,0.157609 -1.34375,0.15625 -0.127964,-5.2e-4 -0.0829,0.01593 -0.15625,0 0.131562,-0.213588 0.38857,-0.52824 0.90625,-1 3.517396,-3.205392 4.677805,-7.112776 5.21875,-11.0625 0.540945,-3.949724 0.494407,-8.013427 1.46875,-11.84375 0.515671,-2.027199 1.366104,-4.008684 2.34375,-5.96875 a 0.750075,0.750075 0 0 0 0.375,0.21875 c 1.986981,0.722542 4.124239,-0.471992 5.59375,-1.25 1.050069,-0.555941 3.367581,-1.978501 5.6875,-3.03125 1.15996,-0.526374 2.29978,-0.967032 3.21875,-1.125 0.68923,-0.118476 0.99642,0.0496 1.3125,0.1875 -0.2402,0.458586 -0.61378,1.116471 -1.03125,1.875 -0.83495,1.517057 -1.89858,3.442706 -2.625,5.25 -0.36321,0.903647 -0.64638,1.794125 -0.78125,2.59375 -0.13487,0.799625 -0.14724,1.557535 0.25,2.21875 0.39724,0.661215 1.25215,0.998384 2.15625,0.9375 0.9041,-0.06088 1.96066,-0.420229 3.375,-1.09375 1.22703,-0.584326 2.50904,-1.070047 3.8125,-1.6875 1.31963,-0.625112 2.91048,-1.227924 4.28125,-2.1875 2.58438,-1.809135 5.36579,-4.199321 7.4375,-6.875 -0.23933,1.153861 -0.45343,2.42735 -0.3125,3.75 0.16795,1.576235 0.68864,3.163638 2,3.96875 0.71316,0.437844 1.5734,0.378496 2.46875,0.125 0.89535,-0.253496 1.87197,-0.732387 3,-1.375 2.25606,-1.285225 5.01503,-3.268721 8.09375,-5.5625 0.56847,-0.423538 1.25496,-0.931748 1.84375,-1.375 -0.26942,0.485591 -0.69348,1.001606 -0.90625,1.46875 -0.79228,1.739461 -1.23927,3.367298 -0.625,4.71875 0.27816,0.611971 0.77487,1.064125 1.34375,1.3125 0.56888,0.248375 1.19026,0.320789 1.84375,0.28125 1.30698,-0.07908 2.76358,-0.581483 4.21875,-1.21875 2.91035,-1.274534 5.76165,-3.146778 6.90625,-4.0625 0.16292,-0.130343 0.1724,-0.11279 0.3125,-0.21875 -0.14405,0.315913 -0.28195,0.610659 -0.4375,0.96875 -0.5117,1.177955 -1.08175,2.42922 -0.8125,3.65625 0.13462,0.613515 0.64838,1.213919 1.34375,1.40625 0.69537,0.192331 1.48934,0.136443 2.5625,-0.15625 1.66206,-0.453307 2.91691,-1.112752 3.65625,-2 A 0.7542199,0.7542199 0 1 0 158.09375,43.875 c -0.41098,0.4932 -1.397,1.096891 -2.875,1.5 -0.93651,0.255423 -1.52643,0.25798 -1.78125,0.1875 -0.25482,-0.07048 -0.23688,-0.07903 -0.28125,-0.28125 -0.0887,-0.40443 0.23347,-1.632867 0.71875,-2.75 0.24264,-0.558566 0.50865,-1.081657 0.71875,-1.5625 0.2101,-0.480843 0.3808,-0.844433 0.40625,-1.34375 0.006,-0.124829 0.014,-0.282207 -0.0625,-0.46875 -0.0765,-0.186543 -0.28359,-0.381797 -0.5,-0.46875 -0.43283,-0.173906 -0.70199,-0.0429 -0.9375,0.0625 -0.47102,0.210811 -0.99153,0.593197 -1.8125,1.25 -0.96327,0.770649 -3.82676,2.676931 -6.5625,3.875 -1.36787,0.599035 -2.72979,1.033914 -3.71875,1.09375 -0.49448,0.02992 -0.88539,-0.03799 -1.15625,-0.15625 -0.27086,-0.118257 -0.42679,-0.26392 -0.5625,-0.5625 -0.2733,-0.601286 -0.0947,-1.888555 0.625,-3.46875 0.6285,-1.379882 1.66581,-2.967951 2.78125,-4.53125 4.98187,-3.7623 10.27088,-7.711134 15.40625,-10.8125 0.82636,-0.499058 1.49509,-1.200973 5.46875,-3 a 0.750075,0.750075 0 0 0 0.4375,-0.6875 c 0.009,-0.310012 -0.20601,-0.678532 -0.4375,-0.84375 -0.23149,-0.165218 -0.43227,-0.195038 -0.625,-0.21875 -0.19273,-0.02371 -0.37511,-0.01395 -0.5625,0 z m 48.8125,0.53125 c -0.21925,-0.0066 -0.43709,0.02686 -0.65625,0.0625 -0.87662,0.142555 -1.77171,0.533877 -2.65625,1.03125 -1.76908,0.994747 -3.42142,2.344615 -4,2.875 -1.99746,1.831085 -4.0328,4.184605 -5.5,6.65625 -2.65934,2.087761 -5.12742,4.433872 -7.5625,6.78125 -4.6864,4.517624 -9.30822,8.992333 -15.28125,11.59375 a 0.750075,0.750075 0 1 0 0.59375,1.375 c 6.28788,-2.738545 11.06491,-7.358645 15.75,-11.875 1.30329,-1.256353 2.6497,-2.395388 3.96875,-3.59375 -1.07851,1.884115 -1.91422,3.308169 -3.53125,6.125 -1.26951,2.211452 -2.50601,4.408786 -3.4375,6.0625 -0.46574,0.826857 -0.85179,1.494735 -1.125,2 -0.1366,0.252633 -0.23387,0.467781 -0.3125,0.625 -0.0393,0.07861 -0.0969,0.154133 -0.125,0.21875 -0.014,0.03231 -0.0162,0.04987 -0.0312,0.09375 -0.0151,0.04388 -0.0312,0.06797 -0.0312,0.28125 0,0.153833 0.002,0.353456 0.1875,0.59375 0.18558,0.240294 0.56606,0.342041 0.78125,0.3125 0.43038,-0.05908 0.53484,-0.218647 0.71875,-0.375 0.36783,-0.312706 0.7623,-0.772834 1.1875,-1.28125 0.8504,-1.016832 1.80225,-2.27518 2.09375,-2.625 1.33741,-1.604955 3.05914,-2.965325 4.65625,-4.5625 0.28709,-0.287107 0.99418,-0.882969 1.84375,-1.5625 3.09706,4.467142 3.65877,10.473576 6.21875,16.1875 a 0.75519037,0.75519037 0 1 0 1.375,-0.625 c -1.9582,-4.370746 -2.6867,-9.237274 -4.6875,-13.5 a 0.750075,0.750075 0 0 0 0.4375,-0.1875 c -0.004,0.0028 0.54919,-0.296607 1.21875,-0.59375 0.66956,-0.297143 1.52361,-0.665246 2.4375,-1.09375 1.82778,-0.857009 3.88115,-1.912343 5.1875,-3.21875 0.43229,-0.432306 1.36685,-1.437894 2.0625,-2.53125 0.34782,-0.546678 0.6247,-1.108027 0.75,-1.71875 0.1253,-0.610723 0.0241,-1.367713 -0.53125,-1.84375 -0.52402,-0.449175 -1.17557,-0.458474 -1.8125,-0.34375 -0.63693,0.114724 -1.35378,0.37024 -2.125,0.71875 -1.54244,0.697019 -3.36802,1.804045 -5.1875,3 -1.83554,1.206512 -3.61712,2.492751 -5.09375,3.625 -0.24721,-0.286444 -0.5071,-0.569587 -0.78125,-0.84375 -0.28543,-0.285437 -0.67455,-0.492212 -1.0625,-0.53125 -0.38795,-0.03904 -0.73634,0.07408 -1.03125,0.25 -0.0378,0.02256 -0.0574,0.06939 -0.0937,0.09375 1.24348,-2.168983 2.91396,-5.102129 3.15625,-5.5625 0.0597,-0.113501 0.15524,-0.230118 0.21875,-0.34375 2.36085,-1.846508 4.86486,-3.461873 7.65625,-4.625 1.17982,-0.491614 3.00748,-0.956395 4.4375,-1.78125 0.71501,-0.412427 1.37983,-0.924566 1.71875,-1.6875 0.33892,-0.762934 0.2634,-1.732099 -0.25,-2.65625 -0.23936,-0.430855 -0.66104,-0.731861 -1.09375,-0.875 -0.21635,-0.07157 -0.437,-0.118358 -0.65625,-0.125 z m -0.0625,1.5 c 0.0989,8.5e-4 0.19156,0.01192 0.25,0.03125 0.11687,0.03866 0.17822,0.08953 0.25,0.21875 0.35871,0.64571 0.328,0.964966 0.1875,1.28125 -0.1405,0.316284 -0.52248,0.670482 -1.09375,1 -1.14255,0.659036 -2.92912,1.15534 -4.28125,1.71875 -1.53816,0.640926 -2.99638,1.397018 -4.375,2.25 0.90879,-1.052067 1.89794,-2.070474 2.84375,-2.9375 0.44051,-0.403819 2.11156,-1.752532 3.71875,-2.65625 0.8036,-0.451859 1.5971,-0.784072 2.15625,-0.875 0.13979,-0.02273 0.24487,-0.0321 0.34375,-0.03125 z m -179.25,0.125 a 0.750075,0.750075 0 0 0 -0.4375,0.28125 c -1.711904,2.116511 -3.345727,4.569509 -4.875,7.15625 -1.848813,0.594093 -3.70751,1.172853 -5.4375,1.53125 0.06981,-0.240157 0.188523,-0.482459 0.25,-0.71875 1.074401,-1.103691 1.974607,-2.246522 2.34375,-3.46875 0.184571,-0.611114 0.229543,-1.258291 0.03125,-1.875 -0.198293,-0.616709 -0.628357,-1.148055 -1.25,-1.5625 C 22.708779,24.055848 22.252444,23.98095 22,24.125 c -0.252444,0.14405 -0.312901,0.313752 -0.375,0.4375 -0.124197,0.247495 -0.191707,0.472969 -0.25,0.75 -0.116586,0.554063 -0.224669,1.287797 -0.375,2.1875 -0.137806,0.824743 -0.292338,1.796755 -0.53125,2.78125 -0.736583,0.727903 -1.574411,1.400892 -2.40625,2.03125 -5.709565,0.337602 -12.0763679,4.215945 -16.75,7.625 -0.00659,0.0048 -0.024672,-0.0048 -0.03125,0 C 1.2533237,39.957882 1.215301,39.979659 1.1875,40 a 0.750075,0.750075 0 0 0 0.75,1.28125 c 0.056759,-0.02783 0.068949,-0.03504 0.125,-0.0625 6.295281,-3.083716 8.216238,-3.849593 13.09375,-5.25 A 0.750075,0.750075 0 0 0 15.25,35.9375 c 0.851494,-0.393013 2.146387,-1.237823 3.5,-2.25 0.194278,-0.0024 0.397565,-0.05164 0.59375,-0.0625 -0.02612,0.06084 -0.03562,0.12703 -0.0625,0.1875 -0.562045,1.264654 -1.946095,4.053764 -3.1875,6.8125 -0.620703,1.379368 -1.188095,2.740983 -1.625,3.9375 -0.436905,1.196517 -0.75,2.179801 -0.75,3 0,0.888538 -0.22813,1.849068 -0.375,2.90625 -0.14687,1.057182 -0.202833,2.241028 0.3125,3.40625 a 0.75519037,0.75519037 0 1 0 1.375,-0.625 c -0.352417,-0.796852 -0.351194,-1.609156 -0.21875,-2.5625 0.132444,-0.953344 0.40625,-1.991091 0.40625,-3.125 0,-0.358778 0.240836,-1.33109 0.65625,-2.46875 0.415414,-1.13766 0.981192,-2.513731 1.59375,-3.875 1.225117,-2.722538 2.587517,-5.462483 3.1875,-6.8125 0.147999,-0.333011 0.217189,-0.663001 0.34375,-1 1.611391,-0.252938 3.248217,-0.719126 4.875,-1.21875 -2.54427,4.613503 -4.668818,9.559432 -5.9375,14 -0.390883,1.368146 -0.259485,2.641567 0.5,3.4375 0.379743,0.397966 0.982486,0.633615 1.5625,0.53125 0.544792,-0.09615 1.017369,-0.448752 1.46875,-0.9375 0.02874,-0.0238 0.06503,-0.03867 0.09375,-0.0625 5.297169,-4.395585 10.219271,-9.274215 15.96875,-12.8125 0.215633,-0.132703 1.359572,-0.821496 2.4375,-1.40625 0.304632,-0.165257 0.539365,-0.27053 0.8125,-0.40625 -0.186088,0.377088 -0.37976,0.773573 -0.6875,1.28125 -0.84035,1.386323 -2.058627,3.139916 -3.3125,4.875 -1.253873,1.735084 -2.54058,3.440882 -3.53125,4.75 -0.495335,0.654559 -0.912438,1.216283 -1.21875,1.625 -0.153156,0.204359 -0.281435,0.370127 -0.375,0.5 -0.09356,0.129873 -0.108306,0.105862 -0.21875,0.34375 a 0.75470529,0.75470529 0 1 0 1.34375,0.6875 c -0.01168,0.0156 -0.0015,-0.02276 0,-0.03125 0.02467,-0.03491 0.05843,-0.07597 0.09375,-0.125 0.08282,-0.114962 0.193216,-0.299139 0.34375,-0.5 0.301068,-0.401721 0.722543,-0.938038 1.21875,-1.59375 0.992415,-1.311424 2.297033,-3.030122 3.5625,-4.78125 1.265467,-1.751128 2.493617,-3.545985 3.375,-5 0.440692,-0.727008 0.79974,-1.357376 1.03125,-1.90625 0.115755,-0.274437 0.203069,-0.52332 0.25,-0.78125 0.04693,-0.25793 0.08362,-0.558542 -0.125,-0.90625 -0.190566,-0.317625 -0.521526,-0.396761 -0.6875,-0.40625 -0.165974,-0.0095 -0.268477,0.0059 -0.375,0.03125 -0.213046,0.05072 -0.426916,0.151269 -0.65625,0.25 -0.458668,0.197462 -1.003363,0.47793 -1.5625,0.78125 -1.118274,0.60664 -2.239772,1.277354 -2.5,1.4375 -5.979097,3.679595 -10.960556,8.645407 -16.21875,13 a 0.750075,0.750075 0 0 0 -0.09375,0.09375 c -0.327541,0.374348 -0.602217,0.479433 -0.71875,0.5 C 21.602217,48.67682 21.590904,48.68902 21.5,48.59375 21.318191,48.403216 21.085773,47.637335 21.375,46.625 22.730347,41.881094 25.130338,36.440679 27.96875,31.53125 29.859162,30.920778 31.706136,30.333786 33.375,30 c 0.575711,-0.115147 1.610967,-0.254996 2.59375,-0.3125 0.939541,-0.05497 1.860418,0.01587 2.21875,0.125 0.02408,0.03114 0.143641,0.116789 0.25,0.25 0.163632,0.204941 0.354067,0.471918 0.5625,0.75 0.208433,0.278082 0.433328,0.548577 0.71875,0.78125 0.142711,0.116336 0.285859,0.230237 0.5625,0.28125 0.276641,0.05101 0.666466,-0.04146 0.875,-0.25 0.515749,-0.51577 1.347338,-1.206565 2.03125,-1.78125 0.341956,-0.287342 0.637783,-0.547413 0.875,-0.75 0.118608,-0.101294 0.23036,-0.205616 0.3125,-0.28125 0.04107,-0.03782 0.08633,-0.05341 0.125,-0.09375 0.03867,-0.04034 0.05919,-0.05587 0.15625,-0.25 A 0.75032545,0.75032545 0 1 0 43.375,27.6875 c -0.0086,0.0083 -0.01741,0.0185 -0.03125,0.03125 -0.05537,0.05099 -0.137977,0.123081 -0.25,0.21875 -0.224045,0.191338 -0.529607,0.45977 -0.875,0.75 -0.566808,0.476283 -1.205935,1.01986 -1.75,1.53125 -0.08589,-0.09668 -0.140969,-0.167035 -0.25,-0.3125 -0.187518,-0.250179 -0.415114,-0.518379 -0.625,-0.78125 -0.209886,-0.262871 -0.336316,-0.540174 -0.8125,-0.71875 -0.82612,-0.309807 -1.841796,-0.281033 -2.90625,-0.21875 -1.064454,0.06228 -2.110785,0.209652 -2.78125,0.34375 -1.284787,0.256968 -2.615075,0.643319 -3.96875,1.0625 1.242848,-1.997148 2.537396,-3.877505 3.875,-5.53125 a 0.750075,0.750075 0 0 0 -0.65625,-1.21875 0.750075,0.750075 0 0 0 -0.0625,0 z M 158,23.96875 c -0.0618,0.0419 -0.23039,0.156787 -0.28125,0.1875 -3.62426,2.18877 -7.32453,4.836566 -10.9375,7.5 1.62481,-1.834519 3.11373,-3.397647 3.78125,-3.90625 1.01976,-0.776992 3.06315,-1.792797 5.15625,-2.75 0.85925,-0.392945 1.4649,-0.673156 2.28125,-1.03125 z M 22.71875,26.4375 c 0.03393,0.224926 0.06247,0.439696 -0.03125,0.75 -0.01565,0.05182 -0.105206,0.133639 -0.125,0.1875 0.06153,-0.379694 0.106958,-0.641373 0.15625,-0.9375 z m 141.1875,2 a 0.750075,0.750075 0 0 0 -0.125,0.03125 0.750075,0.750075 0 0 0 -0.15625,0.0625 c -1.03692,0.497586 -1.6708,1.298352 -2.03125,2.125 -0.36045,0.826648 -0.50583,1.664345 -0.71875,2.46875 -0.15295,0.577838 -0.21397,1.03508 -0.1875,1.4375 0.0132,0.20121 0.0214,0.405699 0.15625,0.625 0.13482,0.219301 0.44534,0.401903 0.71875,0.4375 0.54682,0.0712 0.82865,-0.179764 1.09375,-0.40625 0.2651,-0.226486 0.50551,-0.504536 0.75,-0.84375 0.48898,-0.678429 0.9364,-1.580769 1.21875,-2.53125 0.28235,-0.950481 0.39908,-1.992265 0,-2.9375 A 0.750075,0.750075 0 0 0 163.90625,28.4375 z M 163.1875,31 c -0.0299,0.163445 0.0505,0.267448 0,0.4375 -0.14885,0.501087 -0.40552,0.931892 -0.65625,1.375 0.13634,-0.554397 0.25858,-1.152156 0.4375,-1.5625 0.0457,-0.104814 0.16768,-0.15555 0.21875,-0.25 z M 212.5,34.03125 c 0.0977,0.0047 0.1381,0.01123 0.125,0 0.0927,0.07943 0.0934,0.134492 0.0312,0.4375 -0.0622,0.303008 -0.2691,0.757602 -0.5625,1.21875 -0.58681,0.922297 -1.46902,1.875259 -1.84375,2.25 -1.02253,1.022568 -2.97398,2.073513 -4.75,2.90625 -0.88801,0.416368 -1.72534,0.79157 -2.40625,1.09375 -0.68091,0.30218 -1.14202,0.481829 -1.53125,0.78125 A 0.750075,0.750075 0 0 0 201.4062,42.875 c -0.33526,-0.609881 -0.684,-1.205795 -1.09375,-1.78125 1.45354,-1.114311 3.23089,-2.399651 5,-3.5625 1.78224,-1.17148 3.55717,-2.237113 4.96875,-2.875 0.70579,-0.318944 1.3176,-0.515867 1.75,-0.59375 0.2162,-0.03894 0.37109,-0.03598 0.46875,-0.03125 z m -197.53125,0.3125 c -0.08733,0.04494 -0.269803,0.184619 -0.34375,0.21875 -0.935735,0.26937 -1.565372,0.533461 -2.34375,0.78125 0.907018,-0.373952 1.803115,-0.750161 2.6875,-1 z m 210.1875,2.8125 c -0.12477,-0.0035 -0.23859,0.03461 -0.3125,0.0625 -0.14782,0.05577 -0.20339,0.114319 -0.25,0.15625 -0.18644,0.167723 -0.19918,0.227256 -0.25,0.3125 -0.10164,0.170489 -0.20545,0.348385 -0.25,0.4375 -0.0816,0.163305 -0.21794,0.365405 -0.3125,0.53125 -0.0238,0.02301 -0.0381,0.03946 -0.0625,0.0625 -0.21364,0.201796 -0.45072,0.395728 -0.65625,0.59375 -0.11048,0.106451 -0.18193,0.286815 -0.28125,0.40625 -0.33564,0.08192 -0.6509,0.151858 -1,0.34375 -0.49276,0.270858 -1.02669,0.631028 -1.59375,1.0625 -1.13412,0.862943 -2.38464,1.976358 -3.53125,3.15625 -1.14661,1.179892 -2.18597,2.405449 -2.875,3.46875 -0.34451,0.53165 -0.60813,1.01407 -0.75,1.5 -0.14187,0.48593 -0.19596,1.116525 0.25,1.5625 0.22505,0.225058 0.56694,0.317927 0.8125,0.3125 0.24556,-0.0054 0.42969,-0.07568 0.625,-0.15625 0.39062,-0.161134 0.79427,-0.400663 1.21875,-0.71875 0.84896,-0.636174 1.83502,-1.551936 2.8125,-2.53125 0.9282,-0.929936 1.82009,-1.902122 2.5625,-2.75 -0.14475,0.77932 -0.28746,1.57216 -0.34375,2.28125 -0.0686,0.863936 -0.0902,1.592853 0.15625,2.25 0.33865,0.903099 1.14554,1.463295 1.90625,1.5 0.76071,0.0367 1.425,-0.235728 2.09375,-0.5 0.66875,-0.264272 1.31944,-0.544888 1.84375,-0.65625 0.52431,-0.111362 0.82761,-0.08893 1.09375,0.125 1.48505,1.193734 3.35706,1.640266 5.375,1.5625 2.01794,-0.07777 4.21723,-0.639121 6.5625,-1.46875 4.69054,-1.659258 9.96626,-4.407886 15.15625,-6.65625 5.38673,-2.333593 11.1316,-3.260399 15.3125,-3.875 0.14294,-0.02101 0.14747,0.0041 0.25,0 -0.12348,0.178444 -0.27138,0.374731 -0.5,0.625 -1.1431,1.251346 -3.42662,3.125775 -5.9375,5.03125 -2.51088,1.905475 -5.26008,3.84669 -7.375,5.3125 -0.53603,0.371513 -0.87095,0.604484 -1.3125,0.90625 -0.51683,0.250575 -0.95771,0.456424 -1.46875,0.71875 -0.44114,0.226448 -0.78696,0.383508 -1.09375,0.65625 -0.0767,0.06819 -0.16184,0.146471 -0.25,0.3125 -0.0882,0.166029 -0.15688,0.564973 0.0312,0.84375 0.18818,0.278777 0.4263,0.343502 0.5625,0.375 0.1362,0.0315 0.22813,0.03125 0.34375,0.03125 1.7e-4,0 0.35694,-0.08392 0.375,-0.09375 0.0181,-0.0098 0.0248,-0.02736 0.0312,-0.03125 0.013,-0.0078 0.0226,0.0055 0.0312,0 0.0174,-0.01099 0.038,-0.04653 0.0625,-0.0625 0.049,-0.03194 0.0992,-0.06636 0.1875,-0.125 0.17666,-0.117283 0.42901,-0.283429 0.75,-0.5 0.33678,-0.227226 0.90846,-0.618389 1.375,-0.9375 0.29772,-0.146482 0.65677,-0.312789 0.875,-0.4375 2.67402,-1.528077 5.12005,-1.300394 8.0625,-2.28125 1.57879,-0.526284 7.98965,-3.075408 14.28125,-5.25 3.1458,-1.087296 6.23242,-2.069567 8.59375,-2.625 1.18067,-0.277717 2.18819,-0.470034 2.875,-0.5 0.14328,-0.0063 0.20014,0.02615 0.3125,0.03125 -0.15139,0.178986 -0.27974,0.323887 -0.5,0.5625 -0.70045,0.758799 -1.68129,1.783262 -2.65625,2.875 -0.97496,1.091738 -1.93711,2.260119 -2.625,3.40625 -0.68789,1.146131 -1.19848,2.302332 -0.84375,3.4375 a 0.750075,0.750075 0 0 0 0.15625,0.25 c 0.67716,0.800684 1.7267,1.173652 2.9375,1.3125 1.2108,0.138848 2.61977,0.0622 4.15625,-0.1875 2.86953,-0.466333 6.14717,-1.557533 9.15625,-2.90625 0.64135,1.063965 1.51117,2.139144 2.625,3.1875 1.19613,1.125808 3.10643,1.716661 4.8125,2.28125 0.85303,0.282294 1.6543,0.530972 2.25,0.78125 0.5957,0.250278 0.94981,0.584038 0.9375,0.5625 a 0.75583666,0.75583666 0 0 0 1.3125,-0.75 c -0.368,-0.644025 -0.96542,-0.897254 -1.65625,-1.1875 -0.69083,-0.290246 -1.52771,-0.532107 -2.375,-0.8125 -1.69457,-0.560785 -3.49249,-1.25577 -4.25,-1.96875 -0.9899,-0.931705 -1.71561,-1.850597 -2.28125,-2.75 2.84878,-1.411373 5.38394,-3.049918 6.78125,-4.84375 0.76142,-0.977485 1.21768,-2.020275 1.09375,-3.125 -0.12393,-1.104725 -0.86154,-2.122084 -2.09375,-2.90625 -1.39198,-0.885841 -3.02003,-0.918607 -4.4375,-0.34375 -1.41747,0.574857 -2.66982,1.720836 -3.4375,3.25 -0.98268,1.957438 -1.00664,4.555303 0.15625,7.25 -2.90743,1.30512 -6.10406,2.341097 -8.8125,2.78125 -1.44481,0.234799 -2.74657,0.302569 -3.75,0.1875 -0.90995,-0.104348 -1.44615,-0.403944 -1.78125,-0.71875 -0.0523,-0.426347 0.0849,-1.100087 0.625,-2 0.59874,-0.997596 1.52283,-2.128279 2.46875,-3.1875 0.94592,-1.059221 1.89887,-2.057126 2.625,-2.84375 0.36307,-0.393312 0.68338,-0.732747 0.90625,-1.03125 0.11143,-0.149252 0.20199,-0.295475 0.28125,-0.46875 0.0793,-0.173275 0.21743,-0.460422 -0.0312,-0.875 -0.23253,-0.387557 -0.61134,-0.569094 -0.96875,-0.65625 -0.35741,-0.08716 -0.72677,-0.112489 -1.15625,-0.09375 -0.85896,0.03748 -1.92669,0.242032 -3.15625,0.53125 -2.45913,0.578437 -5.58068,1.560825 -8.75,2.65625 -6.33864,2.190851 -12.92511,4.839602 -14.25,5.28125 -1.26653,0.422194 -2.5506,0.584457 -3.875,0.84375 1.38186,-0.988209 2.67188,-1.882176 4.0625,-2.9375 2.53842,-1.926373 4.85385,-3.793021 6.15625,-5.21875 0.3256,-0.356432 0.58318,-0.675204 0.78125,-1 0.19807,-0.324796 0.35937,-0.665492 0.3125,-1.125 -0.0234,-0.229754 -0.13588,-0.479381 -0.3125,-0.65625 -0.17662,-0.176869 -0.36379,-0.2593 -0.5625,-0.3125 -0.39742,-0.106399 -0.81383,-0.104556 -1.3125,-0.03125 -4.20086,0.617535 -10.07849,1.570115 -15.6875,4 -5.25635,2.277112 -10.5294,4.990183 -15.0625,6.59375 -2.26655,0.801784 -4.34859,1.337792 -6.125,1.40625 -1.77641,0.06846 -3.19312,-0.293835 -4.34375,-1.21875 -0.70646,-0.567874 -1.59421,-0.596702 -2.34375,-0.4375 -0.74954,0.159202 -1.46129,0.46882 -2.09375,0.71875 -0.63246,0.24993 -1.20603,0.420434 -1.5,0.40625 -0.29397,-0.01418 -0.3669,-0.0096 -0.5625,-0.53125 -0.0764,-0.203847 -0.12366,-0.823227 -0.0625,-1.59375 0.0612,-0.770523 0.19246,-1.715678 0.375,-2.625 0.25318,-1.261228 0.50646,-2.063488 0.75,-2.90625 0.4616,-0.730472 0.9163,-1.469948 1.375,-2.25 0.1692,-0.168716 0.35111,-0.331271 0.5,-0.53125 0.21201,-0.284764 0.40625,-0.623266 0.40625,-1.09375 0,-0.05248 -0.004,-0.113522 -0.0312,-0.21875 -0.0276,-0.105228 -0.0835,-0.315579 -0.3125,-0.46875 -0.11451,-0.07659 -0.25023,-0.12155 -0.375,-0.125 z m -171,0.25 C 53.871556,37.40291 53.576537,37.4064 53.25,37.4375 a 0.750075,0.750075 0 0 0 -0.15625,0.03125 c -2.302032,0.673949 -3.678007,2.162633 -5.3125,3.5 -0.988703,0.808971 -2.304616,1.462764 -3.40625,2.65625 -0.91657,0.992991 -1.704126,2.154451 -2.53125,2.84375 -1.704738,1.420672 -2.634876,3.228538 -2.46875,4.875 0.08306,0.823231 0.46358,1.598553 1.15625,2.125 0.69267,0.526447 1.642606,0.78125 2.78125,0.78125 0.365249,0 0.608517,-0.108814 0.90625,-0.25 0.297733,-0.141186 0.611897,-0.328881 0.96875,-0.5625 0.713706,-0.467238 1.582547,-1.107476 2.5,-1.875 1.834905,-1.535048 3.939337,-3.551617 5.6875,-5.5625 1.748163,-2.010883 3.159221,-3.925947 3.53125,-5.625 0.186015,-0.849527 0.01461,-1.817393 -0.6875,-2.375 -0.526582,-0.418205 -1.208419,-0.58373 -2.0625,-0.59375 z m -0.6875,1.53125 c 1.020452,-0.07579 1.659305,0.103516 1.84375,0.25 0.193662,0.153804 0.243985,0.300347 0.125,0.84375 -0.23797,1.086805 -1.505522,3.065249 -3.1875,5 -1.681978,1.934751 -3.759797,3.893034 -5.53125,5.375 -0.885726,0.740983 -1.705959,1.36371 -2.34375,1.78125 -0.318896,0.20877 -0.578122,0.372426 -0.78125,0.46875 -0.203128,0.09632 -0.361837,0.09375 -0.28125,0.09375 -0.902489,0 -1.509178,-0.190715 -1.875,-0.46875 -0.365822,-0.278035 -0.546671,-0.627152 -0.59375,-1.09375 -0.09416,-0.933197 0.514871,-2.376928 1.9375,-3.5625 1.07559,-0.896363 1.886836,-2.101329 2.6875,-2.96875 0.867158,-0.93946 2.086321,-1.547861 3.25,-2.5 1.701963,-1.392572 2.91238,-2.658257 4.75,-3.21875 z M 306.15625,39.5 c 0.518,0.03173 1.01395,0.221935 1.5,0.53125 0.99064,0.630431 1.34213,1.209685 1.40625,1.78125 0.0641,0.571565 -0.16291,1.268687 -0.78125,2.0625 -1.12908,1.449487 -3.50258,3.015877 -6.21875,4.375 -0.97453,-2.280293 -0.90174,-4.359044 -0.125,-5.90625 0.61436,-1.223767 1.61559,-2.140459 2.65625,-2.5625 0.52033,-0.211021 1.0445,-0.312984 1.5625,-0.28125 z M 68.8125,39.71875 c 0.206013,-0.0077 0.378473,0.02685 0.53125,0.125 0.305554,0.196302 0.67465,0.721931 0.90625,1.84375 a 0.750075,0.750075 0 0 0 0,0.03125 c 0.0184,0.06899 0.0047,0.46078 -0.15625,0.96875 -0.160925,0.50797 -0.434467,1.139909 -0.8125,1.84375 -0.756066,1.407682 -1.870929,3.067159 -3.125,4.59375 -1.254071,1.526591 -2.644161,2.925141 -3.875,3.8125 -0.61542,0.443679 -1.188609,0.754994 -1.65625,0.90625 -0.467641,0.151256 -0.807139,0.158552 -1.03125,0.0625 -0.06776,-0.02904 -0.07749,-0.05211 -0.125,-0.15625 -0.04751,-0.104139 -0.09623,-0.308412 -0.09375,-0.59375 0.005,-0.570677 0.201417,-1.45087 0.5625,-2.4375 0.722165,-1.97326 2.093108,-4.411558 3.625,-6.5 1.531892,-2.088442 3.282313,-3.793403 4.5,-4.3125 0.304422,-0.129774 0.543987,-0.179781 0.75,-0.1875 z m 128.53125,0.3125 c 0.0267,-0.0013 0.0577,-4.8e-4 0.0625,0 0.01,9.6e-4 0.0289,-0.0024 0.125,0.09375 0.23226,0.232274 0.44514,0.47439 0.65625,0.71875 -0.85471,0.687395 -1.58853,1.307268 -1.96875,1.6875 -0.0308,0.03077 -0.0628,0.06302 -0.0937,0.09375 -9.8e-4,-0.05192 -0.003,-0.09926 0,-0.15625 0.0267,-0.455903 0.18024,-1.005616 0.40625,-1.46875 0.22601,-0.463134 0.54083,-0.831367 0.71875,-0.9375 0.0445,-0.02654 0.067,-0.02995 0.0937,-0.03125 z m -2.625,1.75 c -0.0332,0.194324 -0.051,0.39707 -0.0625,0.59375 -0.0284,0.484398 0.0159,0.989592 0.21875,1.4375 -1.02502,0.972958 -2.06778,1.969631 -3.03125,3.0625 0.71663,-1.258859 1.37426,-2.458356 2.1875,-3.875 0.31829,-0.554446 0.37246,-0.670229 0.6875,-1.21875 z m 27.1875,0 c -0.0718,0.124795 -0.15034,0.216698 -0.21875,0.34375 -0.0455,0.08444 -0.6366,0.86932 -1.375,1.71875 -0.7384,0.84943 -1.67608,1.861801 -2.625,2.8125 -0.94892,0.950699 -1.91562,1.82 -2.65625,2.375 -0.14505,0.108696 -0.21921,0.138046 -0.34375,0.21875 0.10128,-0.21575 0.16097,-0.405438 0.34375,-0.6875 0.59818,-0.923112 1.58792,-2.087254 2.6875,-3.21875 1.09958,-1.131496 2.32165,-2.229761 3.375,-3.03125 0.3025,-0.230171 0.5459,-0.356527 0.8125,-0.53125 z M 189.125,51.6875 c -0.004,0.0065 0.002,0.05787 0,0.0625 -0.006,0.01654 -0.0359,0.01037 -0.0312,0 0.003,-0.0079 0.024,-0.04681 0.0312,-0.0625 z"
       id="path2999"
       inkscape:connector-curvature="0" />
  </g>
</svg>
