<svg id="svg" version="1.1" width="400" height="289" xmlns="http://www.w3.org/2000/svg" xmlns:xlink="http://www.w3.org/1999/xlink" style="display: block;"><g id="svgg"><path id="path0" d="M334.817 3.691 C 334.494 10.396,334.736 11.334,339.277 21.000 C 341.732 26.225,344.738 32.750,345.956 35.500 C 347.175 38.250,348.993 42.300,349.996 44.500 C 350.999 46.700,352.944 50.975,354.318 54.000 C 355.692 57.025,358.441 63.016,360.427 67.314 C 363.861 74.742,364.189 77.000,361.837 77.000 C 360.319 77.000,332.675 88.051,331.550 89.108 C 331.028 89.598,329.678 90.004,328.550 90.009 C 327.423 90.014,324.250 91.125,321.500 92.478 C 318.750 93.831,315.845 94.952,315.044 94.969 C 314.244 94.986,310.194 96.524,306.044 98.387 C 301.895 100.250,296.475 102.541,294.000 103.479 C 291.525 104.417,288.150 105.776,286.500 106.500 C 284.850 107.224,279.225 109.473,274.000 111.499 C 261.322 116.414,254.917 118.931,252.500 119.950 C 251.400 120.414,248.025 121.764,245.000 122.950 C 241.975 124.137,238.600 125.497,237.500 125.973 C 236.400 126.450,232.138 128.078,228.029 129.592 C 220.341 132.424,201.160 141.584,143.000 170.200 C 99.563 191.572,86.253 198.000,85.435 198.000 C 85.068 198.000,82.683 196.503,80.134 194.673 C 66.515 184.896,59.114 184.699,51.558 193.915 C 48.589 197.537,44.774 201.822,43.080 203.437 C 39.665 206.694,39.000 210.925,41.569 213.057 C 43.591 214.735,66.794 212.936,72.014 210.697 C 87.001 204.268,87.681 204.202,89.124 209.020 C 90.582 213.886,88.055 216.768,80.576 218.768 C 78.323 219.371,74.776 221.020,72.695 222.432 C 70.614 223.844,68.518 225.000,68.037 225.000 C 67.259 225.000,39.584 238.949,26.500 245.936 C 13.037 253.125,2.002 259.577,2.001 260.258 C 2.001 260.676,2.787 260.606,3.750 260.104 C 18.903 252.195,73.693 225.254,84.343 220.475 C 90.768 217.592,90.538 217.577,91.791 220.964 C 92.515 222.921,91.974 224.368,88.816 228.928 C 86.694 231.993,83.004 237.445,80.617 241.044 C 78.230 244.644,75.202 248.322,73.888 249.219 C 72.575 250.115,70.247 251.895,68.716 253.174 C 67.185 254.453,63.917 257.075,61.455 259.000 C 53.111 265.524,47.500 270.833,48.205 271.538 C 52.028 275.361,80.967 248.657,91.594 231.500 C 92.616 229.850,94.078 228.111,94.842 227.635 C 95.906 226.973,96.075 225.381,95.562 220.847 L 94.892 214.924 101.424 211.962 C 105.017 210.333,108.655 209.000,109.509 209.000 C 110.364 209.000,111.322 208.325,111.638 207.500 C 111.955 206.675,113.236 206.000,114.485 206.000 C 115.733 206.000,117.315 205.325,118.000 204.500 C 118.685 203.675,119.667 203.000,120.182 203.000 C 121.030 203.000,127.083 200.261,144.500 191.996 C 150.699 189.054,164.980 182.445,168.500 180.889 C 169.600 180.403,171.175 179.578,172.000 179.057 C 174.263 177.627,214.966 158.000,215.669 158.000 C 216.004 158.000,218.473 156.650,221.154 155.000 C 223.836 153.350,226.610 152.000,227.319 152.000 C 228.028 152.000,230.737 150.650,233.339 149.000 C 235.941 147.350,239.152 146.000,240.476 146.000 C 241.799 146.000,243.124 145.608,243.420 145.130 C 244.178 143.903,258.343 137.000,260.102 137.000 C 260.902 137.000,262.326 136.100,263.268 135.000 C 264.210 133.900,265.858 133.000,266.931 133.000 C 268.004 133.000,269.136 132.589,269.447 132.087 C 270.069 131.079,275.559 128.436,284.000 125.080 C 290.850 122.356,293.684 121.165,297.500 119.408 C 302.522 117.094,308.788 115.122,309.346 115.679 C 309.900 116.233,315.964 113.354,332.500 104.689 C 368.305 85.925,367.232 86.412,368.408 88.395 C 371.191 93.090,372.837 94.520,374.065 93.314 C 375.007 92.389,374.802 91.329,373.136 88.507 C 370.462 83.974,370.365 84.365,374.500 83.000 C 376.425 82.365,378.000 81.430,378.000 80.922 C 378.000 80.415,378.674 80.000,379.498 80.000 C 383.412 80.000,388.301 73.389,386.462 70.582 C 384.539 67.647,384.097 67.688,375.126 71.635 C 368.490 74.555,367.319 74.579,366.441 71.815 C 366.060 70.613,363.840 65.550,361.509 60.565 C 352.873 42.094,351.000 37.983,351.000 37.504 C 351.000 37.233,348.975 32.708,346.500 27.446 C 344.025 22.185,342.000 17.680,342.000 17.435 C 342.000 17.190,340.875 14.658,339.500 11.808 C 338.125 8.958,337.000 5.386,337.000 3.872 C 337.000 -0.474,335.025 -0.638,334.817 3.691 M381.917 74.404 C 381.034 75.258,371.659 80.000,370.851 80.000 C 368.586 80.000,370.372 77.077,372.989 76.503 C 374.632 76.142,376.234 75.431,376.548 74.923 C 376.861 74.415,378.291 74.000,379.726 74.000 C 381.160 74.000,382.146 74.182,381.917 74.404 M364.417 81.643 C 365.202 83.690,366.985 82.508,349.500 91.527 C 341.250 95.782,330.000 101.627,324.500 104.515 C 309.838 112.214,307.124 113.513,300.500 116.011 C 291.318 119.473,283.756 122.771,269.000 129.746 C 263.775 132.216,256.575 135.583,253.000 137.229 C 249.425 138.875,243.906 141.522,240.735 143.111 C 237.565 144.700,234.293 146.000,233.466 146.000 C 232.638 146.000,230.224 147.096,228.102 148.436 C 225.980 149.775,222.726 151.520,220.872 152.312 C 215.965 154.407,199.754 161.989,198.000 163.009 C 195.770 164.305,184.271 169.933,168.500 177.446 C 147.760 187.325,145.501 188.393,133.500 193.977 C 127.450 196.792,120.864 199.974,118.864 201.048 C 116.864 202.121,114.746 203.000,114.158 203.000 C 113.569 203.000,110.931 204.257,108.294 205.794 C 100.164 210.531,93.029 212.139,92.956 209.250 C 92.932 208.287,92.318 205.836,91.592 203.802 L 90.271 200.104 97.886 196.477 C 102.074 194.482,115.400 187.970,127.500 182.006 C 139.600 176.041,162.550 164.787,178.500 156.997 C 194.450 149.207,209.662 141.754,212.303 140.437 C 214.945 139.119,223.495 135.528,231.303 132.457 C 247.649 126.028,254.672 123.239,257.500 122.056 C 258.600 121.596,264.450 119.313,270.500 116.984 C 276.550 114.654,284.200 111.632,287.500 110.269 C 290.800 108.906,295.300 107.108,297.500 106.275 C 299.700 105.442,302.400 104.389,303.500 103.934 C 305.733 103.011,308.214 102.032,332.500 92.496 C 341.850 88.825,350.850 85.221,352.500 84.488 C 354.150 83.754,356.742 82.845,358.259 82.466 C 359.777 82.088,361.266 81.378,361.568 80.889 C 362.428 79.498,363.725 79.842,364.417 81.643 M74.516 193.442 C 79.341 195.993,82.932 199.421,82.978 201.521 C 83.046 204.673,47.900 212.233,45.294 209.627 C 44.479 208.812,47.199 204.646,53.411 197.197 L 59.500 189.895 64.516 190.351 C 67.274 190.602,71.774 191.993,74.516 193.442 " stroke="none" fill="#000000" fill-rule="evenodd"></path></g></svg>