<?xml version="1.0" encoding="UTF-8"?>
<svg version="1.1" xmlns="http://www.w3.org/2000/svg" width="490" height="105" >
<path d="M17.98,73.427c1.211,2.907,4.837,3.616,7.618,3.521c11.643-0.396,22.38-11.352,30.079-18.789 c0.828-0.8-1.1-0.817-1.438-0.75c-1.548,0.309-2.581,1.063-3.51,2.315c-3.643,4.91-5.474,11.47-7.398,17.159 c-2.496,7.376-6.008,14.446-11.475,20.078c-8.344,8.598-19.031,6.127-28.133,0.257C2.73,96.578-0.619,98.136,0.101,98.6 c13.056,8.421,27.418,7.722,37.69-4.462c5.598-6.64,8.237-14.886,11.125-22.907c1.239-3.441,2.618-6.861,4.364-10.08 c0.412-0.76,0.879-1.487,1.42-2.162c0.701-0.874,0.93-0.322-1.114,0.086c-0.479-0.25-0.959-0.5-1.438-0.75 c-2.841,2.746-25.533,25.511-30.303,14.066C21.394,71.312,17.613,72.545,17.98,73.427L17.98,73.427z"/>
<path d="M78.177,57.725c0.103-1.56,0.864-5.259-0.374-6.438c-0.613-0.583-2.361,0.007-2.948,0.348 c-1.582,0.917-1.903,2.976-2.509,4.596c-1.294,3.459-2.604,6.912-3.899,10.37c-2.872,7.67-5.972,15.375-8.113,23.291 c1.242-0.333,2.484-0.665,3.726-0.998c-4.266-2.447-8.772-4.542-13.418-6.152c-2.452-0.85-4.92-1.285-7.506-1.366 c-1.285-0.04-2.08,1.555-0.246,1.312c0.848-0.112,1.698-0.206,2.547-0.304c14.193-1.629,28.414-3.081,42.474-5.67 c-0.476-0.235-0.951-0.471-1.427-0.705c-0.983,1.056-2.425,2.693-2.457,4.214c-0.063,3.017,4.792,2.074,6.55,1.824 c5.646-0.8,15.307-5.009,20.636-1.978c2.438,1.387,3.952,1.785,6.959,1.655c9.116-0.396,18.55-3.414,27.003-6.661 c1.205-0.463,4.59-2.627,5.444-2.038c0.832,0.573,1.321,1.648,2.073,2.332C156.23,78.57,163,77.134,167.1,76.407 c7.8-1.381,15.375-5.28,23.264-5.956c1.178-0.101-0.006,1.512-0.083,2.213c-0.248,2.271,4.064,1.695,5.268,1.58 c9.088-0.863,18.151-3.844,26.882-6.311c-0.649-0.197-1.298-0.395-1.947-0.593c-4.938,5.535-10.296,11.961-12.713,19.061 c-2.616,7.684,5.217,6.297,9.689,4.648c9.885-3.645,19.047-9.655,28.173-14.822c9.31-5.271,19.254-11.856,29.798-14.294 c-0.706-0.058-1.412-0.116-2.117-0.173c2.419,5.11-10.349,3.259-12.013,3.087c-9.405-0.967-24.524-3.532-29.302-13.177 c-3.374-6.812,6.047-11.212,10.65-13.772c9.864-5.484,20.83-9.694,31.962-11.635c6.764-1.179,24.396-0.995,18.044,10.274 c-2.745,4.871-7.635,6.46-12.85,5.222c-4.848-1.151,3.43-1.377,4.978-1.279c1.806,0.115,3.624-0.113,5.409-0.348 c9.904-1.305,19.628-5.688,28.429-10.202c9.378-4.81,19.354-10.928,25.056-20.041c1.358-2.171,4.409-9.463-0.461-9.862 c-4.881-0.4-9.126,3.934-11.946,7.302c-8.024,9.584-9.999,24.488-13.31,36.143c-1.721,6.06-3.62,12.147-6.621,17.711 c-1.385,2.566-3.185,4.93-5.591,6.605c-1.513,1.053-5.878,4.015-6.778,0.98c-0.378-1.271,0.397-2.813,0.929-3.924 c4.167-8.722,13.468-4.672,20.272-1.888c10.262,4.199,20,9.724,29.928,14.637c1.059,0.524,4.231-1.066,3.627-1.365 c-12.051-5.964-23.932-13.072-36.781-17.218c-6.738-2.174-13.353-2.134-18.502,3.135c-3.893,3.982-5.196,11.014,2.312,9.565 c7.554-1.457,12.604-7.237,15.76-13.814c4.251-8.859,6.268-18.798,8.908-28.209c2.584-9.211,5.315-18.783,12.288-25.677 c2.618-2.587,4.638-2.398,4.201,1.307c-0.313,2.662-2.008,5.261-3.499,7.376c-3.731,5.294-9.52,9.123-14.923,12.523 c-9.971,6.274-22.201,12.281-34.07,13.479c-0.679,0.068-18.584-0.362-15.099,3.614c1.698,1.938,6.843,2.024,9.147,1.752 c3.18-0.376,6.065-1.626,8.667-3.469c4.388-3.108,8.383-9.739,3.265-14c-5.934-4.939-17.614-2.64-24.339-1.11 c-9.973,2.269-19.586,6.006-28.674,10.674c-4.773,2.452-12.329,5.793-14.548,11.125c-2.593,6.229,5.241,11.461,9.711,13.734 c9.096,4.624,21.291,6.771,31.442,5.781c2.451-0.239,10.165-1.887,8.185-6.07c-0.307-0.647-1.626-0.287-2.117-0.173 c-7.941,1.836-15.377,6.035-22.483,9.878c-9.307,5.032-18.369,10.505-27.73,15.437c-3.406,1.794-6.919,3.674-10.632,4.751 c-3.688,1.07-3.149-3.288-2.362-5.6c2.259-6.637,7.54-12.701,12.156-17.874c0.878-0.984-1.613-0.687-1.947-0.593 c-8.255,2.332-17.86,6.186-26.591,6.087c-1.972-0.022-1.124-1.159-0.761-2.403c0.617-2.118-3.247-1.466-4.231-1.326 c-8.481,1.209-16.429,4.932-24.919,6.259c-4.592,0.718-7.94,0.451-10.875-3.088c-1.999-2.41-6.327-0.09-8.431,0.895 c-4.774,2.236-9.966,3.69-15.055,5.007c-4.416,1.142-10.368,2.988-14.945,1.796c-1.135-0.296-2.003-1.471-3.207-1.88 c-1.645-0.56-3.677-0.366-5.363-0.278c-2.838,0.147-19.098,4.46-19.801,2.038c-0.357-1.23,1.367-3.032,2.126-3.848 c0.767-0.823-1.062-0.772-1.427-0.705c-10.675,1.966-21.456,3.299-32.237,4.528c-4.816,0.549-11.377,0.13-15.894,2.198 c-0.175,0.08-0.981,0.52-0.797,0.853c0.201,0.362,0.641,0.372,1.012,0.4c2.856,0.219,5.4,0.753,8.108,1.691 c4.041,1.401,7.952,3.355,11.66,5.482c0.794,0.456,3.442,0.052,3.726-0.998c1.826-6.75,4.415-13.32,6.839-19.871 c1.308-3.532,2.638-7.057,3.966-10.582c0.423-1.124,2.089-6.461,2.161-6.502c-0.983,0.116-1.965,0.231-2.948,0.347 c0.97,0.923,0.22,4.854,0.138,6.107C74.268,59.466,78.096,58.967,78.177,57.725L78.177,57.725z"/>
<path d="M348.957,43.931c-2.914,0.574-5.864,1.932-7.785,4.245c-1.137,1.369-1.926,3.726-1.387,5.484 c0.363,1.183,1.686,1.453,2.755,1.498c3.278,0.137,7.126-1.649,9.317-4.047c0.917-1.004,1.604-2.214,1.522-3.613 c-0.097-1.652-1.664-2.831-2.976-3.561c-0.652-0.363-1.847,0.05-2.475,0.27c-0.121,0.042-1.742,0.693-1.176,1.009 c2.107,1.173,3.525,3.053,2.225,5.397c-0.521,0.937-1.367,1.716-2.252,2.304c-0.399,0.267-0.818,0.49-1.258,0.683 c-0.104,0.046-0.381,0.089-0.217,0.083c-2.813,0.12-1.538-4.173-0.802-5.471c0.652-1.15,1.75-2.077,2.932-2.649 c0.183-0.088,1.064-0.408,0.666-0.287c0.149-0.045,0.3-0.084,0.451-0.123c-0.671,0.168-0.449,0.099-0.298,0.069 c0.648-0.128,1.902-0.36,2.278-1.004C350.806,43.657,349.089,43.905,348.957,43.931z"/>
<path d="M351.249,47.5c4.525-1.374,9.103-2.598,13.721-3.615c1.518-0.334,7.178-2.235,6.897,0.333 c-0.2,1.828-2.949,7.015-4.174,7.64c0.813,0.533,1.628,1.066,2.442,1.599c3.481-3.671,11.582-9.126,17.213-9.894 c2.544-0.347,5.85,2.636,8.105,3.569c13.948,5.769,31.237-5.417,42.392-12.397c2.083-1.304-0.682-2.525-2.105-1.901 c-4.989,2.191-10.008,4.878-14.026,8.593c-3.341,3.087-3.024,7.755,2.268,6.348c2.113-0.562,4.037-1.761,6.042-2.605 c-1.77,0.745-0.495-1.699-1.58,0.336c-0.54,1.012-1.262,1.928-1.934,2.854c-1.092,1.505-2.164,3.023-3.229,4.547 c-4.784,6.848-9.428,13.896-13.024,21.453c-1.604,3.369-5.059,10.477-0.765,13.238c3.74,2.405,11.422-0.506,15.277-1.424 c20.798-4.951,41.161-9.263,62.621-10.248c2.143-0.099,3.018-2.822,0.377-2.701c-19.104,0.877-37.746,3.971-56.274,8.597 c-5.527,1.38-11.066,2.955-16.73,3.664c-7.168,0.897-0.812-10.882,0.569-13.578c3.511-6.854,7.881-13.301,12.305-19.589 c1.16-1.648,7.563-8.204,4.084-9.804c-1.297-0.596-3.231,0.425-4.376,0.942c-0.964,0.436-1.909,0.912-2.874,1.347 c-1.367,0.617-1.32,1.021-1.207,0.023c0.334-2.937,6.046-5.655,8.242-6.894c1.915-1.08,3.898-2.065,5.912-2.949 c-0.702-0.634-1.403-1.267-2.105-1.901c-11.781,7.374-27.58,17.527-41.325,9.615c-3.936-2.265-7.169-2.085-11.449-0.389 c-5.305,2.103-11.646,5.918-15.611,10.1c-1.474,1.554,1.378,2.143,2.443,1.599c3.433-1.752,10.364-13.021,3.34-13.728 c-7.066-0.711-15.46,2.676-22.135,4.704C348.237,45.694,348.887,48.218,351.249,47.5L351.249,47.5z"/>
</svg>