<?xml version="1.0" encoding="utf-8"?>
<svg version="1.0" xmlns="http://www.w3.org/2000/svg" 
	 width="321" height="72" >
<path fill="#231F20" d="M0.17,27.811c2.051,0.69,4.808-0.354,6.712-0.983c10.268-3.394,19.547-10.701,27.994-17.174
				c-0.55-0.029-1.1-0.06-1.65-0.09c-2.875,4.893-6.142,9.503-9.456,14.103C20.453,28.27,13.757,38.738,7.061,35.949
				c-0.511-0.212-2.281,0.56-1.558,0.861c5.514,2.295,10.543-2.037,14.141-5.79c5.977-6.234,11.009-14.086,15.361-21.49
				c0.456-0.776-1.379-0.298-1.65-0.09c-7.739,5.931-15.795,11.914-24.796,15.812c-1.693,0.733-5.124,2.273-6.831,1.697
				C1.206,26.773-0.547,27.568,0.17,27.811L0.17,27.811 M44.741,11.676c-10.18,3.72-16.503,17.16-20.423,26.165c-0.247,0.567,1.664,0.351,1.928-0.256
				c3.61-8.294,9.763-21.703,19.244-25.167C46.764,11.952,45.592,11.365,44.741,11.676L44.741,11.676 M29.302,22.078c-2.898,2.971-1.59,6.714,1.526,8.763c4.772,3.138,10.708-0.505,14.433-3.5
				c-0.486-0.254-0.973-0.508-1.459-0.763c-1.643,1.906-5.172,7.44-1.122,8.926c5.575,2.044,10.782-3.856,13.581-7.822
				c0.612-0.867-0.606-1.191-1.247-0.894c-3.282,1.525-4.212,5.877-1.782,8.59c2.613,2.917,8.758-0.062,11.195-1.704
				c1.086-0.732-0.488-1.464-1.292-0.922c-1.415,0.953-2.962,1.548-4.601,2c-5.442,1.501-6.063-5.194-2.652-6.78
				c-0.416-0.298-0.832-0.596-1.247-0.894c-2.249,3.187-5.075,6.719-9.194,7.362c-5.319,0.832-1.164-5.926-0.014-7.259
				c0.77-0.893-0.869-1.238-1.459-0.763c-3.47,2.791-7.989,5.695-12.281,2.873c-2.263-1.487-2.748-4.573-0.76-6.61
				C31.782,21.807,29.925,21.439,29.302,22.078L29.302,22.078 M69.706,27.378c-0.782,0.395-9.713,5.356-7.183,6.105c1.892,0.56,9.836-3.194,9.169-5.378
				c-0.232-0.759-1.608-0.323-1.88,0.184c-2.047,3.808-1.192,9.531-2.386,13.771c-2.713,9.631-14.354,20.074-24.837,15.203
				c-6.439-2.991,6.396-10.353,8.534-11.706c5.738-3.632,11.652-6.991,17.543-10.365c5.317-3.044,10.666-6.039,15.911-9.206
				c0.841-0.508,9.232-5.741,7.244-6.785c-2.555-1.342-6.396,1.77-8.168,3.277c-4.48,3.812-9.595,10.386-10.512,16.328
				c-0.124,0.804,1.256,0.536,1.598,0.287c3.558-2.589,7.343-5.301,10.212-8.665c0.401-0.47,0.672-0.955,0.843-1.54
				c0.332-1.132-1.702-0.506-0.755,0.132c3.293,2.217,5.561,6.824,7.519,10.101c0.398,0.666,2.26-0.01,1.779-0.814
				c-0.721-1.205-7.287-13.73-10.45-10.4c-0.298,0.313-0.219,0.706-0.071,1.066c0.39,0.954-2.776,3.345-3.367,3.871
				c-2.2,1.961-4.576,3.756-6.958,5.49c0.533,0.096,1.065,0.191,1.598,0.287c0.615-3.982,3.245-7.545,5.624-10.672
				c1.117-1.469,2.368-2.826,3.648-4.151c0.707-0.738,1.482-1.397,2.326-1.978c-0.123,0.09,3.273-1.403,3.157-1.248
				c-3.14,4.187-10.692,7.143-15.146,9.698C63.915,36.457,52.418,42.167,42.556,49.8c-2.529,1.957-5.279,5.027-2.363,7.89
				c3.816,3.746,11.517,1.479,15.652-0.161c6.035-2.392,10.392-7.61,12.787-13.49c0.861-2.114,1.367-4.368,1.713-6.617
				c0.442-2.87-0.113-6.365,1.294-8.981c-0.626,0.061-1.253,0.122-1.88,0.184c0.144,0.47-2.338,1.79-2.633,1.971
				c-0.724,0.427-1.468,0.815-2.23,1.166c-1.253,0.281-1.503,0.446-0.751,0.495c1.458-1.778,4.355-2.853,6.379-3.873
				C71.71,27.783,70.636,26.909,69.706,27.378L69.706,27.378 M169.913,31.509c-12.89,1.259-27.8,2.033-40.138-2.4c-9.003-3.235-12.057-16.172-1.306-19.688
				c6.539-2.138,5.63,10.699,5.227,13.993c-1.632,13.297-10.476,24.812-19.421,34.184c-4.626,4.848-14.398,15.144-22.246,12.291
				c-12.039-4.377,16.873-23.754,18.522-24.9c1.05-0.724,2.104-1.44,3.164-2.15c1.085-0.733-0.586-0.995-1.201-0.58
				c-7.829,5.289-16.343,10.76-22.403,18.143c-1.849,2.252-3.275,4.99-2.295,7.906c0.885,2.634,4.445,3.287,6.826,3.045
				c6.928-0.702,12.866-5.615,17.806-10.118c9.159-8.349,17.208-18.71,21.361-30.473c2.16-6.119,3.286-13.784,0.777-19.993
				c-1.577-3.903-5.597-2.88-8.765-1.379c-6.403,3.034-7.985,10.424-4.143,16.251c4.729,7.172,18.559,7.208,25.998,7.542
				c7.298,0.328,14.7,0.115,21.974-0.596C170.599,32.493,171.253,31.378,169.913,31.509L169.913,31.509 M159.65,21.285c2.051-1.572,4.143-3.089,6.258-4.571c1.718-1.202,3.474-2.349,5.304-3.372
				c2.174-1.218,0.285,1.858-0.105,2.617c-3.401,6.609-8.132,14.018-13.526,19.183c-0.37,0.354,1.424,0.097,1.736-0.189
				c5.695-5.2,11.469-10.345,17.489-15.167c0.654-0.524,4.053-3.026,4.08-2.942c0.459,1.446-1.589,4.466-2.202,5.663
				c-2.185,4.267-4.688,8.633-7.685,12.389c-0.092,0.114,1.552,0.02,1.898-0.363c4.202-4.641,8.599-9.213,13.439-13.19
				c0.935-0.768,3.812-3.179,3.744-0.652c-0.047,1.803-1.252,3.84-1.96,5.449c-1.173,2.668-3.688,6.844-2.305,9.834
				c0.196,0.425,2.056-0.249,1.932-0.518c-1.943-4.202,3.066-10.522,4.145-14.59c0.709-2.673-1.434-2.643-3.243-1.947
				c-3.785,1.457-6.977,5.08-9.808,7.828c-2.704,2.624-5.314,5.356-7.843,8.149c0.633-0.121,1.266-0.242,1.898-0.363
				c3.55-4.45,6.495-9.707,8.895-14.853c0.886-1.9,1.918-4.676-1.134-3.511c-3.679,1.405-6.962,4.882-9.907,7.363
				c-4.101,3.456-8.107,7.025-12.085,10.623c-2.167,1.961,0.904,0.594,1.853-0.456c2.039-2.255,3.804-4.783,5.564-7.256
				c2.614-3.669,7.284-8.867,8.044-13.471c0.369-2.24-4.473,0.429-5.065,0.76c-3.928,2.198-7.583,5.01-11.147,7.743
				C157.548,21.755,159.303,21.552,159.65,21.285L159.65,21.285 M201.35,28.851c1.173-0.477,6.795-4.881,2.821-5.031c-3.654-0.138-8.105,4.542-10.435,6.895
				c-2.571,2.599-1.332,3.903,1.938,2.821c2.538-0.84,9.105-3.203,10.119-6.037c0.31-0.865-1.601-0.323-1.881,0.042
				c-1.975,2.578-2.91,8.191,1.221,8.879c3.927,0.653,7.819-3.729,9.892-6.48c0.573-0.762-1.394-0.684-1.82-0.117
				c-1.445,1.919-5.745,7.128-8.452,4.823c-1.502-1.278,0.01-5.721,0.979-6.986c-0.627,0.014-1.254,0.027-1.881,0.042
				c-0.447,1.249-4.186,2.714-5.18,3.229c-1.041,0.54-6.005,3.279-3.77,0.655c1.38-1.62,3.128-2.97,4.82-4.237
				c0.778-0.583,1.595-1.109,2.427-1.613c2.274-1.377-0.668,1.795-1.603,2.175C199.306,28.413,200.425,29.227,201.35,28.851
				L201.35,28.851 M216.149,26.806c1.135,4.761,8.647,3.332,9.995-0.508c0.811-2.309-2.292-2.937-3.82-2.726
				c-2.822,0.388-5.492,2.606-7.406,4.549c-4.517,4.581-1.323,8.471,4.204,7.729c10.181-1.366,20.371-8.979,28.591-14.522
				c-0.499-0.1-0.997-0.198-1.496-0.297c-3.125,3.724-6.407,7.331-9.909,10.703c-0.863,0.832-1.768,1.617-2.692,2.379
				c-2.506,2.065-2.868,0.153-0.768-1.809c1.165-1.089,4.166-3.323,4.433-0.576c0.098,1.006,0.131,2.146,0.655,3.043
				c2.091,3.575,6.867,2.788,9.689,0.608c4.094-3.161,7.744-8.381,7.737-13.719c-0.011-8.851-21.234-2.567-16.871,8.211
				c1.996,4.931,10.054,3.452,13.841,2.479c1.589-0.408,11.617-3.511,10.721-6.341c-0.071-0.227-0.385-0.288-0.588-0.282
				c-2.881,0.082-7.481,4.449-5.604,7.338c1.91,2.939,9.412-1.618,10.022-3.957c1.041-3.988-4.972-4.757-6.095-1.413
				c-0.582,1.735,0.975,2.376,2.526,2.212c1.651-0.175,3.208-0.45,4.779-1.033c0.439-0.162,3.438-1.658,3.832-0.796
				c0.963,2.108,1.014,3.722-1.084,5.981c-0.775,0.836,1.114,0.748,1.547,0.307c1.858-1.896,3.769-3.756,5.826-5.438
				c-0.308,0.251,1.001,5.427,2.131,6.082c0.538,0.312,2.324-0.473,1.539-0.928c-1.799-1.042-0.131-8.027-3.39-6.6
				c-2.975,1.304-5.419,4.297-7.653,6.576c0.516,0.103,1.031,0.204,1.547,0.307c2.171-2.34,3.475-9.081-1.5-7.623
				c-1.575,0.462-3.082,1.197-4.653,1.686c-1.246-0.723-1.771-0.24-1.575,1.447c-0.343,0.365-0.686,0.729-1.028,1.095
				c-1.653,1.746-3.396,1.629-5.228-0.353c0.202-1.261,4.21-4.571,1.098-2.448c-1.646,1.122-3.535,1.871-5.385,2.579
				c-4.212,1.609-11.844,3.176-14.009-2.172c-2.452-6.06,6.786-11.641,11.573-9.556c6.502,2.833-5.224,22.43-11.556,15.672
				c-2.539-2.709,0.396-7.566-5.177-5.127c-0.98,0.43-8.881,6.009-4.927,7c3.111,0.779,6.663-3.4,8.54-5.208
				c3.348-3.225,6.464-6.736,9.451-10.295c0.57-0.68-1.222-0.481-1.496-0.297c-7.889,5.32-16.295,10.995-25.524,13.67
				c-4.353,1.262-8.368-0.655-5.063-5.368c1.222-1.741,3.216-3.101,5.079-4.038c4.976,1.585,4.219,2.431-2.269,2.536
				c-0.336-0.307-0.553-0.829-0.66-1.278C217.923,25.625,215.987,26.126,216.149,26.806L216.149,26.806 M294.414,29.788c-0.039-5.162-7.998,0.688-9.119,2.401c-0.485,0.741-1.562,3.163,0.295,2.92
				c3.214-0.421,5.694-3.198,7.897-5.311c-0.607,0.085-1.216,0.17-1.823,0.256c-4.892,7.582,3.758,3.729,7.092,1.916
				c3.724-2.024,7.688-4.394,10.616-7.507c1.494-1.588,0.827-2.938-1.308-2.742c-3.183,0.293-5.991,2.392-8.056,4.679
				c-1.909,2.113-4.569,8.057-1.335,10.187c1.746,1.15,4.975-0.408,6.54-1.123c1.572-0.718,7.921-5.913,8.916-5.629
				c0.434,0.124,2.131-0.579,1.591-0.733c-0.492-0.14-0.984-0.28-1.477-0.421c-0.449-0.128-1.343,0.111-1.668,0.447
				c-2.225,2.292-6.572,8.311-2.746,11.021c2.294,1.625,6.341-1.713,7.72-3.084c5.272-5.241,3.014-10.202-0.167-15.712
				c-2.582-4.474-12.384-19.919-1.022-20.598c0.49-0.029,2.118-0.826,0.844-0.75c-2.624,0.157-6.542,1.707-7.964,3.933
				c-2.432,3.808,3.203,12.411,4.891,15.564c3.411,6.376,7.369,11.18,1.675,17.724c-1.322,1.52-4.267,3.104-5.292,0.575
				c-0.655-1.62,0.296-3.586,0.998-5.025c0.607-1.246,1.538-2.387,2.445-3.422c0.28-0.32-1.83-0.091,0.173,0.481
				c0.434,0.124,2.131-0.579,1.591-0.733c-1.813-0.517-3.78,1.272-5.131,2.182c-2.103,1.416-4.213,2.813-6.481,3.953
				c-5.368,2.698-5.416-2.621-4.034-6.282c0.626-1.66,1.902-3.042,3.164-4.238c0.851-0.807,6.168-3.635,4.933-0.847
				c-0.896,2.024-4.003,3.753-5.698,4.907c-2.36,1.607-4.857,3.041-7.408,4.322c-1.221,0.613-3.454,1.695-2.847-0.74
				c0.231-0.933,0.832-1.852,1.349-2.653c0.184-0.284-1.563,0.006-1.823,0.256c-0.812,0.777-6.778,6.599-4.834,2.396
				c0.637-1.377,5.544-5.893,5.573-2.052C292.484,30.6,294.418,30.322,294.414,29.788L294.414,29.788z"/>
</svg>
