<?xml version="1.0" encoding="UTF-8" standalone="no"?>
<!-- Created with Inkscape (http://www.inkscape.org/) -->

<svg
   xmlns:dc="http://purl.org/dc/elements/1.1/"
   xmlns:cc="http://creativecommons.org/ns#"
   xmlns:rdf="http://www.w3.org/1999/02/22-rdf-syntax-ns#"
   xmlns:svg="http://www.w3.org/2000/svg"
   xmlns="http://www.w3.org/2000/svg"
   xmlns:sodipodi="http://sodipodi.sourceforge.net/DTD/sodipodi-0.dtd"
   xmlns:inkscape="http://www.inkscape.org/namespaces/inkscape"
   width="218.36259"
   height="81.797821"
   id="svg2"
   version="1.1"
   inkscape:version="0.48.2 r9819"
   sodipodi:docname="Nouveau document 1">
  <defs
     id="defs4" />
  <sodipodi:namedview
     id="base"
     pagecolor="#ffffff"
     bordercolor="#666666"
     borderopacity="1.0"
     inkscape:pageopacity="0.0"
     inkscape:pageshadow="2"
     inkscape:zoom="0.35"
     inkscape:cx="174.69852"
     inkscape:cy="-227.31882"
     inkscape:document-units="px"
     inkscape:current-layer="layer1"
     showgrid="false"
     fit-margin-top="0"
     fit-margin-left="0"
     fit-margin-right="0"
     fit-margin-bottom="0"
     inkscape:window-width="1366"
     inkscape:window-height="706"
     inkscape:window-x="-8"
     inkscape:window-y="-8"
     inkscape:window-maximized="1" />
  <metadata
     id="metadata7">
    <rdf:RDF>
      <cc:Work
         rdf:about="">
        <dc:format>image/svg+xml</dc:format>
        <dc:type
           rdf:resource="http://purl.org/dc/dcmitype/StillImage" />
        <dc:title></dc:title>
      </cc:Work>
    </rdf:RDF>
  </metadata>
  <g
     inkscape:label="Calque 1"
     inkscape:groupmode="layer"
     id="layer1"
     transform="translate(-200.30148,-223.24554)">
    <g
       transform="matrix(0.39594921,0,0,-0.39594921,189.86397,311.93816)"
       inkscape:label="ink_ext_XXXXXX"
       id="g2993">
      <g
         transform="scale(0.1,0.1)"
         id="g2995">
        <path
           id="path2997"
           style="fill:#000000;fill-opacity:1;fill-rule:nonzero;stroke:none"
           d="m 1175.67,2217 c -8.03,-12.04 -19.88,-43.5 -26.17,-69.5 -6.29,-26 -15.57,-49.99 -20.5,-53 -5.06,-3.09 -9,-12.5 -9,-21.5 0,-9 -5.91,-23 -13.5,-32 -7.56,-8.96 -19.18,-38 -26.4,-66 -17.54,-68 -100.143,-325.62 -111.26,-347 -4.887,-9.39 -13.024,-34 -18.188,-55 -10.199,-41.44 -60.136,-179 -94.39,-260 -21.867,-51.71 -31.75,-65 -165,-222 C 614.023,1000 530,881.723 530,864 530,857.891 517.32,837 501.473,817 470.566,778 320,480.141 320,458 c 0,-8 -3.363,-17.855 -7.848,-23 -10.617,-12.18 -38.332,-90 -46.656,-131 -3.543,-17.453 -1.949,-49.5 3.504,-70.5 8.57,-33 16,-40.355 52,-51.5 40,-12.383 43.809,-11.738 80,13.5 21,14.645 40.906,35.449 44.5,46.5 3.512,10.813 21.531,37 39.215,57 35.504,40.152 69.617,102 110.867,201 40.418,97 47.633,112.414 65.551,140 19.711,30.348 82.121,187 115.535,290 13.301,41 33.172,94.27 43.832,117.5 10.555,23 19.5,49.38 19.5,57.5 0,29.84 85.348,191 119.684,226 19.621,20 41.986,48.45 50.316,64 8.11,15.14 32,39.26 52,52.5 20.55,13.61 55.52,48.5 78.66,78.5 102.62,133 233.45,213.3 348.34,213.81 34,0.15 49.07,-5.88 72,-28.81 16,-16 28.96,-34.83 28.91,-42 -0.25,-36.78 -83.87,-324 -115.58,-397 -7.81,-18 -14.33,-42.09 -14.33,-53 0,-21.65 -81.98,-183 -108.74,-214 -9.46,-10.957 -43.49,-72 -75.26,-135 -31.77,-63 -73.15,-142.129 -91.5,-175 -18.43,-33 -33.73,-66.301 -34,-74 -0.28,-7.777 -11.77,-38 -25.85,-68 -24.4,-52 -45.72,-132.676 -48.35,-183 -1.04,-20 3.6,-25 23.2,-25 21,0 32.21,15 78.5,105 29.7,57.75 78.52,159 108.5,225 29.98,66 59.52,129 65.65,140 17.82,31.973 33.76,65 72.4,150 60.9,134 78.47,169.66 91.1,185 6.8,8.25 29.44,48.5 50.35,89.5 20.91,41 47.16,87.99 58.36,104.5 35.98,53 80.21,110.44 87.64,113.82 3.91,1.78 16.23,18.18 27.92,37.18 22.48,36.52 131.08,128.18 227.08,191.65 50,33.06 65.72,38.31 114,38.05 89,-0.49 118.92,-39.7 98.2,-128.7 -12.89,-55.36 -24.32,-82 -123.63,-288 -36.16,-75 -65.57,-140.04 -65.57,-145 0,-4.91 -14.32,-31.5 -31.5,-58.5 -17.18,-27 -42.64,-69.95 -56,-94.5 -13.61,-25 -36.48,-60.555 -51.46,-80 C 1796.36,859 1640,565.613 1640,534 c 0,-20 27.35,-28.391 45,-13.805 17.77,14.684 106.86,160.805 134.02,219.805 23.47,51 43.55,85.539 61.02,105 9.88,11 36.64,56 59.46,100 22.82,44 49.6,89 59.5,100 10.05,11.16 29.13,39 43.18,63 34.32,58.63 260.82,300.46 371.82,396.99 25.6,22.27 63.96,65.51 86.5,97.51 22.54,32 44.49,57.5 49.5,57.5 4.91,0 21.5,11.59 36.5,25.5 27,25.04 27.86,25.14 47,5.5 18.88,-19.36 18.96,-22 2.58,-83 -28.02,-104.32 -42.91,-138 -217.15,-491 -24.19,-49 -48.43,-98.66 -53.93,-110.5 -5.49,-11.797 -36.05,-72.5 -67.72,-134.5 -74.06,-145 -77.31,-212 -10.28,-212 26.32,0 111,51.969 175,107.402 63,54.567 143.91,112.598 157,112.598 5.79,0 11,-9 11,-19 0,-33 11.2,-50.805 42,-66.762 38.76,-20.086 111,-4.215 168,36.907 22,15.871 42.25,28.855 45,28.855 10.19,0 139,106.484 189,156.25 28,27.86 93.39,96.75 145,152.75 51.61,56 95.58,100.42 97.5,98.5 1.93,-1.93 -1.42,-31 -7.5,-65 -9.12,-51 -8.18,-70.04 5.55,-111.5 23.16,-70 42.68,-90.79 91.45,-97.406 44.64,-6.055 84,8.986 194,74.136 73,43.24 92.73,43.3 85.19,0.27 -8.58,-49 7.14,-91.145 39.81,-106.684 22.14,-10.527 41.5,-11.117 92.5,-2.816 39,6.348 73.59,7.027 87.5,1.711 35,-13.375 155.25,6.492 185,30.562 13.64,11.027 50,31.817 80,45.727 30,13.91 64.09,33.91 75,44 11.11,10.28 32,21.37 47,24.95 34.73,8.29 35.36,-2.45 4.81,-81.45 -12.37,-32 -28.65,-81.883 -35.56,-109 -13.07,-51.254 -57.18,-167 -91.46,-240 -10.47,-22.285 -29.64,-71 -43.29,-110 -13.57,-38.785 -40.44,-103 -60.23,-144 -59.89,-124 -58.82,-160.129 4.73,-160.578 34.71,-0.242 64.88,42.578 71.56,101.578 3.17,28 16.27,63.832 31.44,86 14.37,21 26,45.383 26,54.5 0,9 4.55,19.227 10,22.5 5.55,3.332 10.22,18 10.5,33 0.28,15 6.72,38.109 14.5,52 7.93,14.168 14.22,38 14.5,55 0.27,16.5 11.52,48 25,70 13.48,22 24.73,47.426 25,56.5 0.27,9 18.23,59 39.5,110 21.27,51 42.18,113.95 46,138.5 3.89,25 14.78,58.33 24.5,75 9.82,16.83 19.81,48 22.76,71 7.21,56.3 37.74,94.61 117.74,147.8 37,24.59 80.99,61.61 96.5,81.2 15.41,19.46 43.43,53 61,73 17.57,20 34.8,44.12 37.5,52.5 2.76,8.55 18,23.12 34,32.5 15.88,9.3 41.45,38.5 56.5,64.5 15.05,26 38.44,60.63 51.67,76.5 47.73,57.28 105.79,202 122.37,305 10.3,64 -1.85,184.42 -20.99,208 -5.78,7.13 -24.55,13 -41.55,13 -50.55,0 -149.8,-92 -244.87,-227 -27.47,-39 -102.13,-183.75 -102.13,-198 0,-5.93 -12.67,-31.5 -27.5,-55.5 -15.25,-24.68 -46.87,-93.5 -71,-154.5 -24.12,-61 -48.84,-123.36 -55.5,-140 -6.64,-16.59 -25.22,-72 -41.58,-124 -28.33,-90 -41.63,-111.1 -105.42,-167.15 -25.48,-22.39 -109,-80.42 -147,-102.14 -101,-57.71 -136.81,-72.937 -165,-70.15 -53.36,5.29 -49.1,35.44 23.84,168.44 16.45,30 39.25,77.5 50.16,104.5 18.59,46 18.83,50.38 3.5,62 -15.14,11.47 -13.54,16 19.5,55 27.11,32 36,51.64 36,79.5 0,41.07 -11,49 -68,49 -34.27,0 -55,-9.78 -171,-80.7 -25,-15.28 -119.24,-126.65 -120.41,-142.3 -1.52,-20.16 -83.59,-128.34 -122.59,-161.58 -79,-67.34 -193.14,-108.89 -236,-85.91 -25.16,13.49 -45.25,80.49 -37.03,123.49 16.25,85 100.81,262.12 161.84,339 29.37,37 67.3,92.97 84.69,125 17.38,32 38.9,66.96 48,78 9.35,11.33 22.79,33 31,50 8.09,16.73 29.32,53 48,82 18.68,29 31.01,58.63 27.88,67 -13.68,36.46 -90.59,4 -130.3,-55 -23.76,-35.3 -171.98,-292 -213.06,-369 -43.75,-82 -67.41,-116.14 -108.02,-155.87 -22,-21.52 -52.02,-53.98 -66.7,-72.13 C 3189.78,1189.66 3013,1010.61 2935,944.672 2800,830.543 2700,809.406 2700,895 c 0,29.223 8.5,43.172 51.5,84.5 42,40.37 59.06,50.05 92.5,52.5 39,2.86 40.9,4.44 39,32.5 -1.15,17 5.49,37.98 15.68,49.5 30.94,35 81.32,116.16 81.32,131 0,8 5.36,17.43 12.5,22 7.07,4.53 19.88,19.5 29.5,34.5 16.04,25 15.98,27.43 -1,42.86 -44.69,40.63 -100,13.66 -228,-111.17 l -73,-71.19 0,-64 c 0,-71 -11.95,-89.8 -65,-102.211 -16.79,-3.93 -61,-38.226 -105,-81.457 C 2388,755.176 2295.73,720.117 2364.88,844 c 13.96,25 25.12,49.891 25.12,56 0,6 11.36,26 25,44 13.64,18 25,36.41 25,40.5 0,4.246 7.81,19 18,34 9.9,14.57 38.02,71.5 62.5,126.5 24.48,55 65.2,140.5 90.5,190 25.55,50 51.78,107.78 59,130 7.15,22 16.54,44.5 20.87,50 10.58,13.43 40.07,130 46.31,183 6.94,59 -15.36,92 -62.18,92 -19,0 -36.21,-3.75 -39,-8.5 -2.76,-4.69 -40,-29.16 -83,-54.54 -75.87,-44.78 -202.87,-167.96 -315.45,-305.96 -44.87,-55 -62.27,-62.4 -70.59,-30 -5.41,21.08 4.7,47 31.59,81 7.12,9 10.63,25 7.45,34 -3.18,9 -1.53,22.41 3.5,28.5 5.26,6.37 12.4,40.5 16,76.5 5.1,51 2.97,71.89 -9.89,97 -28.84,56.3 -99.61,76.22 -185.61,52.23 -65.33,-18.21 -200.5,-121.23 -324.39,-247.23 -45.23,-46 -84.73,-80.01 -88.61,-76.29 -11.79,11.3 -7.88,50.29 12.78,127.29 24.95,93 16.93,152.14 -25.78,190.11 -37.01,32.9 -63,39.37 -133,33.09 -38,-3.41 -72.31,-14.16 -99.5,-31.2 -23,-14.41 -47.96,-26 -56,-26 -7.99,0 -36.5,-19.3 -63.5,-43 -27,-23.7 -66.51,-56.02 -88,-72 -21.8,-16.21 -59.5,-48.4 -85.5,-73 -26,-24.6 -50.91,-41.36 -56.5,-38 -10.82,6.5 -1.56,62 20.2,121 16.13,43.77 24.25,70 57.27,185 11.77,41 27.42,88.6 34.53,105 7.06,16.29 16.2,46 20,65 7.28,36.4 29.7,98 50.95,140 21.25,42 28.82,101.77 14.05,111 -20.69,12.93 -26.67,11 -43.33,-14 z M 4951,2163.89 c 23.06,-20.63 24.67,-81.89 3.94,-149.89 -8.23,-27 -15.03,-60.22 -15.14,-74 -0.46,-58.95 -54.51,-174 -126.38,-269 -26.48,-35 -55.12,-73.52 -63.21,-85 -27.48,-39 -216.3,-226 -228.21,-226 -7.5,0 -12,18 -12,48 0,46.5 18.04,105 61.04,198 10.64,23 18.96,43.86 18.96,47.5 0,3.55 17.73,44 39,89 21.27,45 42.39,96.14 46.45,112.5 13.15,53 60.47,143.2 90.55,172.63 15.68,15.33 41.79,45.37 56.83,65.37 22.56,30 88.92,84.02 106.17,86.44 2.22,0.31 12,-6.6 22,-15.55 z M 4080,1471 c 0,-18.91 -63,-91.75 -92,-106.37 -18,-9.07 -44.36,-27.08 -58,-39.63 -14.06,-12.94 -39,-25.84 -57,-29.5 l -32,-6.5 11.76,32 c 16.99,46.23 83.24,110.73 145.24,141.42 49,24.25 82,27.7 82,8.58 z M 3971.13,1246 C 3951.9,1223 3880,1088.08 3880,1075 c 0,-20.16 -68,-75 -93,-75 -53.44,0 -60.62,54 -18.6,140 28.24,57.8 71.6,94.32 161.6,136.11 44,20.43 45.08,20.47 48.5,1.89 1.84,-10 -1.65,-25.16 -7.37,-32 z M 2950,1277 c 0,-17.9 -45.71,-85 -88.57,-130 -37.14,-39 -71.43,-49.08 -71.43,-21 0,19 58.33,114 70,114 3.89,0 19,11.13 34,25.05 29,26.9 56,32.66 56,11.95 z M 719.5,956.5 c -12.437,-34 -26.301,-65.746 -31,-71 C 683.719,880.156 680,869 680,860 680,843.023 633.957,744 614.906,720 608.414,711.816 595.047,680 585.5,650 575.953,620 561.637,585 554,573 c -7.637,-12 -14,-27 -14,-33 0,-6.051 -18,-47 -40,-91 -22,-44 -40,-86.074 -40,-93.5 0,-7.328 -14.855,-29.5 -32.5,-48.5 -17.645,-19 -40.719,-46.887 -50.477,-61 -22.812,-33 -49.507,-33.398 -66.73,-1 -11.781,22.156 -9.711,34.5 18.207,108.5 17.352,46 31.5,90.238 31.5,98.5 0,8.184 11.816,32.5 26,53.5 14.07,20.836 31.965,58 39,81 7.035,23 22.637,56.035 34,72 11.648,16.363 35.695,60 54,98 18.305,38 45.023,86.309 60,108.5 14.852,22 27,44.727 27,50.5 0,6 7.5,16.93 17.5,25.5 9.492,8.137 28.941,28.5 42.5,44.5 13.559,16 36.441,37.74 50,47.5 23,16.56 25.281,16.68 28.5,1.5 1.934,-9.12 -6.562,-44 -19,-78"
           inkscape:connector-curvature="0" />
        <path
           id="path2999"
           style="fill:#000000;fill-opacity:1;fill-rule:nonzero;stroke:none"
           d="m 5625.59,2141 c -3.1,-4.98 -49.09,-12.12 -103.09,-16 -54,-3.87 -119.81,-15.25 -147.5,-25.5 -27.78,-10.28 -90,-21.52 -140,-25.3 -116,-8.78 -137.15,-24.61 -97.81,-73.2 17.22,-21.27 20.81,-21.62 107.81,-10.5 50,6.39 110.67,20.39 136.5,31.5 40.81,17.55 61,19.39 165,15 l 118.5,-5 57,34.64 c 58,35.24 67.45,49.91 46,71.36 -14,14 -134.01,16.53 -142.41,3"
           inkscape:connector-curvature="0" />
        <path
           id="path3001"
           style="fill:#000000;fill-opacity:1;fill-rule:nonzero;stroke:none"
           d="m 5117,1673 c -25,-20.65 -57.87,-46.4 -72,-56.41 -37.6,-26.62 -110.38,-128.59 -128.18,-179.59 -40.12,-115 -40.35,-118.06 -13.22,-179 28.94,-65 59.47,-81.17 101.4,-53.71 13.46,8.81 42,18.57 65,22.21 34,5.39 44.76,2.93 63,-14.39 33,-31.32 80.16,-38.98 112,-18.17 72,47.05 171.4,151.16 194.82,204.06 5.75,13 16.7,25.39 25.18,28.5 8,2.93 15,10.4 15,16 0,5.86 15.65,29.5 35.41,53.5 34.59,42 69.15,56.32 77.26,32 5.51,-16.53 -45.35,-159 -76.75,-215 -14.82,-26.42 -35.69,-72.5 -46.42,-102.5 -10.73,-30 -30.51,-65.96 -44,-80 -13.45,-14 -29.23,-36.77 -35,-50.5 -5.88,-14 -14.16,-31.6 -18.81,-40 -52.09,-94 -65.85,-150.008 -40.69,-165.687 13,-8.106 56.6,31.687 65.4,59.687 3.62,11.5 19.59,40 35.31,63 44.25,64.75 168.2,310 196.08,388 32.54,91 36.45,202.62 8.21,234 -23.4,26 -65.86,27.92 -88.47,4 -29.53,-31.25 -103.95,-128 -147.68,-192 -54.67,-80 -141.33,-171 -162.85,-171 -12.75,0 -17,9 -17,36 0,26.73 14.16,57.5 55,119.5 30.3,46 55,86.42 55,90 0,3.68 9.21,19.5 21.27,36.5 27.07,38.19 19.73,63.46 -33.27,114.55 -36.86,35.53 -51,42.38 -99,47.95 -54,6.27 -57.64,5.14 -102,-31.5 z m 128.45,-54 c 13.89,-22.12 -17.04,-110 -51.74,-147 -18.76,-20 -41.14,-48.95 -48.69,-63 -20.45,-38 -123.24,-119 -151.02,-119 -21.6,0 -24,4 -24,40 0,92 119.3,258.25 210,292.66 25,9.48 58.37,7.61 65.45,-3.66"
           inkscape:connector-curvature="0" />
      </g>
    </g>
  </g>
</svg>
