<?xml version="1.0" encoding="UTF-8"?>
<svg version="1.1" xmlns="http://www.w3.org/2000/svg" width="206" height="77" >
<path d="M40.766,31.592c-1.239,1.067-2.616,1.945-4.044,2.733c-1.533,0.846-3.262,1.387-5.015,1.038 c-3.375-0.672-2.794-5.571-1.872-7.577c2.055-4.474,8.528-7.692,13.112-8.794c-0.329-0.429-0.659-0.857-0.988-1.285 c-4.667,6.617-9.518,13.111-14.471,19.517c-6.948,8.982-14.294,19.666-23.763,26.2c-0.922,0.637-0.048,2.154,0.883,1.512 c9.34-6.445,16.529-16.752,23.425-25.583c5.306-6.796,10.468-13.717,15.437-20.763c0.469-0.665-0.299-1.45-0.988-1.285 c-5.848,1.405-16.897,7.21-15.034,14.795c1.997,8.126,9.998,4.655,14.555,0.73C42.86,32.092,41.616,30.859,40.766,31.592 L40.766,31.592z"/>
<path d="M16.571,55.346c2.133-1.125,4.213-2.354,6.247-3.649c1.474-0.938,2.896-1.956,4.239-3.075 c0.511-0.426,0.974-0.897,1.409-1.399c1.006-1.159-0.703-0.515-0.692-1.026c-0.047,2.123-1.811,4.654-2.901,6.359 c-2.095,3.274-5.108,6.067-8.976,6.945c-1.101,0.25-0.634,1.937,0.465,1.688c4.188-0.95,7.301-3.861,9.712-7.287 c1.466-2.084,3.394-5.181,3.453-7.845c0.068-3.089-3.896,1.484-4.147,1.694c-2.901,2.419-6.358,4.326-9.691,6.084 C14.69,54.36,15.574,55.871,16.571,55.346L16.571,55.346z"/>
<path d="M35.627,52.553c-4.432,1.899-10.735,4.749-11.302,10.201c-0.14,1.347,0.149,3.136,1.837,3.165 c2.851,0.05,5.497-5.182,6.675-7.052c-0.533-0.225-1.066-0.449-1.599-0.674c-0.4,1.96-0.74,4.305-0.05,6.229 c1.492,4.157,6.294-0.678,7.714-2.182c0.774-0.82-0.461-2.06-1.237-1.238c-1.128,1.195-4.731,5.362-5.058,1.701 c-0.119-1.334,0.051-2.736,0.318-4.045c0.197-0.966-1.057-1.535-1.599-0.674c-1.158,1.839-2.916,5.498-5.218,6.188 c-0.214,0.064,0.224-2.487,0.322-2.777c1.259-3.702,6.749-5.903,10.08-7.331C37.544,53.621,36.652,52.113,35.627,52.553 L35.627,52.553z"/>
<path d="M51.572,53.834c-5.398-3.718-10.794,6.479-11.262,10.353c-0.327,2.703,1.4,3.975,3.954,3.334 c4.025-1.011,7.438-4.893,9.84-8.017c-0.503-0.294-1.007-0.589-1.511-0.883c-1.047,2.084-2.306,4.392-2.602,6.729 c-0.12,0.947,0.622,1.569,1.518,1.389c2-0.403,3.99-3.75,5.116-5.14c0.704-0.869-0.527-2.115-1.237-1.238 c-1.229,1.518-2.458,3.069-3.915,4.377c-0.698,0.626,0.19,1.027,0.303,0.433c0.087-0.457,0.254-0.902,0.409-1.34 c0.525-1.483,1.213-2.922,1.918-4.327c0.52-1.034-0.837-1.76-1.511-0.883c-1.981,2.575-4.313,4.887-7.148,6.507 c-0.84,0.48-1.984,1.017-2.984,0.817c-1.107-0.22-0.132-2.74,0.052-3.288c0.79-2.35,4.501-9.843,8.176-7.312 C51.621,55.987,52.495,54.47,51.572,53.834L51.572,53.834z"/>
<path d="M63.667,50.313c-1.943,2.588-7.137,12.047-1.543,13.66c4.543,1.312,12.107-2.57,13.334-7.232 c0.288-1.093-1.4-1.556-1.688-0.465c-0.974,3.695-7.213,6.753-10.805,6.119c-4.175-0.737,0.87-9.412,2.212-11.199 C65.857,50.292,64.336,49.422,63.667,50.313L63.667,50.313z"/>
<path d="M124.238,26.223c-3.747,0.166-8.08,5.508-10.371,7.783c-5.646,5.606-10.606,11.875-16.027,17.695 c-2.69,2.889-11.078,12.828-13.52,5.211c-0.343-1.07-2.033-0.612-1.688,0.465c3.557,11.096,15.068-2.912,18.618-6.794 c5.686-6.214,10.937-12.825,17.176-18.512c1.291-1.178,4.33-4.033,5.812-4.099C125.362,27.923,125.367,26.173,124.238,26.223 L124.238,26.223z"/>
<path d="M107.272,38.164c-2.717-4.271,0.712-6.935,3.877-8.962c2.356-1.511,8.104-4.729,8.27,0.269 c0.098,2.929-1.254,6.482-3.331,8.516c-0.412,0.404-0.676,0.805-0.675,1.397c0.001,1.246,1.814,2.06,2.58,2.769 c3.498,3.235-7.571,9.35-9.259,10.4c0.354,0.458,0.707,0.916,1.061,1.375c2.317-1.824,4.726-3.539,7.193-5.153 c1.55-1.014,3.164-1.992,4.891-2.672c2.652-1.044-0.239,3.704-0.689,4.8c-0.32,0.78-1.955,4.467,0.331,4.37 c4.063-0.171,9.179-4.986,12.464-6.962c-0.398-0.399-0.798-0.799-1.197-1.197c-1.111,2.216-6.141,11.793-1.743,13.002 c2.39,0.658,4.608-2.507,5.769-4.067c2.378-3.194,3.667-7.351,2.891-11.28c-0.533,0.225-1.066,0.449-1.6,0.674 c3.763,7.401,12.44,0.65,15.997-3.021c-0.413-0.413-0.825-0.825-1.238-1.238c-2.366,2.887-8.029,9.899-3.988,13.387 c2.407,2.076,7.979-1.231,10.099-2.313c18.672-9.519,33.414-27.687,43.116-45.814c0.498-0.931-0.617-1.649-1.375-1.06 c-3.664,2.85-6.689,6.74-9.573,10.325c-9.713,12.067-17.692,25.526-25.123,39.079c-0.545,0.995,0.898,1.825,1.512,0.883 c1.742-2.68,3.579-5.299,5.476-7.872c1.499-2.035,3.077-4.016,4.816-5.851c0.62-0.654,1.291-1.256,2.062-1.725 c-2.189,1.332,0.925,3.156-2.032,3.264c-0.552,0.021-1.017,0.546-0.844,1.107c0.541,1.759,0.374,3.517,0.022,5.301 c-0.463,2.348-2.484,3.752-2.899,5.987c-0.276,1.491,1.045,2.745,2.333,3.196c6.045,2.113,12.522-1.708,14.992-7.244 c0.455-1.021-1.053-1.912-1.512-0.883c-2.085,4.675-8.098,8.829-13.32,6.275c-1.527-0.746,2.053-6.657,2.359-8.212 c0.306-1.552,0.18-3.365-0.288-4.886c-0.281,0.369-0.563,0.738-0.844,1.107c5.496-0.2,4.958-8.843,0.758-6.287 c-5.301,3.226-9.283,10.753-12.591,15.838c0.504,0.294,1.008,0.589,1.512,0.883c7.503-13.685,15.579-27.208,25.384-39.391 c2.708-3.364,5.601-6.984,9.039-9.659c-0.458-0.354-0.917-0.707-1.375-1.06c-8.463,15.813-20.146,30.019-34.81,40.457 c-4.017,2.859-8.48,5.685-13.268,7.034c-6.715,1.893-0.161-8.482,1.601-10.63c0.701-0.855-0.438-2.063-1.238-1.238 c-2.717,2.808-10.143,9.483-13.247,3.377c-0.475-0.933-1.782-0.251-1.6,0.674c0.571,2.892-0.258,5.442-1.53,8.004 c-0.295,0.594-5.023,6.882-5.303,4.188c-0.313-3.012,1.813-6.83,3.116-9.429c0.378-0.754-0.406-1.673-1.197-1.197 c-3.045,1.832-6.043,3.741-9.093,5.564c-0.519,0.31-1.923,1.221-1.864,0.968c0.292-1.25,0.939-2.439,1.462-3.602 c0.704-1.564,2.508-4.724-0.023-5.601c-2.399-0.83-6.414,2.438-8.17,3.587c-2.36,1.544-4.64,3.229-6.856,4.974 c-0.789,0.622,0.23,1.892,1.061,1.375c3.167-1.973,12.12-6.495,10.627-11.618c-0.327-1.121-1.381-1.89-2.269-2.549 c-1.14-0.845-0.371-0.856,0.463-1.931c0.939-1.214,1.472-2.696,1.971-4.131c0.836-2.4,1.286-5.563-0.104-7.83 c-1.337-2.178-4.977-0.729-6.668-0.058c-5.482,2.171-11.92,6.738-7.876,13.099C106.364,39.996,107.88,39.119,107.272,38.164 L107.272,38.164z"/>
</svg>