<?xml version="1.0" encoding="UTF-8"?>
<svg version="1.1" xmlns="http://www.w3.org/2000/svg" width="211" height="60" >
<path d="M35.322,39.762c-9.006-0.484-20.48-4.86-19.189-15.699c1.139-9.549,9.421-18.348,18.874-19.721 c5.438-0.791,11.03,0.896,9.979,7.17c-1.37,8.168-8.28,15.468-13.856,21.085c-4.591,4.625-9.775,8.675-15.009,12.537 c-3.445,2.543-7.615,5.867-11.962,6.632c-2.192,0.386-2.685-1.639-2.7-3.298c-0.031-3.513,2.779-5.75,5.404-7.634 c7.39-5.305,19.667-9.856,28.67-6.901c0.388,0.127,1.7-0.466,1.17-0.641c-7.373-2.419-15.806,0.123-22.699,2.939 c-4.988,2.037-13.427,5.82-13.969,12.046C-1.14,61.772,28.698,36.104,29.87,35.04c4.677-4.241,27.345-27.906,11.038-31.278 c-5.896-1.22-12.178,1.091-16.821,4.626c-6.05,4.606-11.436,14.296-8.886,21.968c2.394,7.201,12.511,9.747,19.211,10.107 C34.794,40.483,36.095,39.803,35.322,39.762L35.322,39.762z"/>
<path d="M33.083,35.242c-0.087,0.123,0.019-0.011,0.033-0.025c0.11-0.141-0.04-0.079-0.449,0.185 c0.098,0.061,0.188,0.133,0.269,0.215c0.306,0.274,1.622-0.274,1.361-0.508c-0.741-0.666-2.078-0.435-2.647,0.374 c-0.164,0.233,0.54,0.183,0.59,0.175C32.539,35.606,32.901,35.502,33.083,35.242L33.083,35.242z"/>
<path d="M32.862,20.123c12.679,2.688,25.976-3.245,34.357-12.56c-0.401-0.134-0.804-0.269-1.205-0.402 c-6.586,7.668-13.274,15.272-20.277,22.562c-1.731,1.802-3.489,3.599-5.397,5.216c-2.39,2.026-0.355-1.163,0.41-2.388 c5.158-8.258,14.406-14.36,22.746-18.913c6.609-3.609,23.235-12.076,30.183-4.892c4.354,4.503-3.35,9.582-6.553,11.313 c-5.934,3.207-12.963,4.586-19.637,3.587c-9.069-1.357-14.898-8.563-17.897-16.729c-0.234-0.639-1.676-0.229-1.449,0.389 c5.624,15.309,20.088,21.177,35.164,15.529c4.421-1.656,9.732-4.154,12.195-8.438c2.729-4.745-1.823-8.102-5.974-8.859 c-9.852-1.801-21.749,4.213-29.819,9.048c-7.787,4.666-15.801,10.551-20.693,18.383c-1.093,1.75-1.757,5.256,1.294,3.347 c5.035-3.15,9.169-8.813,13.116-13.142c4.679-5.13,9.271-10.344,13.794-15.611c0.6-0.698-0.789-0.864-1.205-0.402 c-7.994,8.885-20.558,14.502-32.643,11.94C32.68,18.955,31.901,19.92,32.862,20.123L32.862,20.123z"/>
<path d="M49.745,36.179c3.416-0.475,8.289-1.146,10.57-4.019c0.658-0.83,0.295-1.918-0.783-1.871 c-1.366,0.06-2.506,1.057-3.458,1.923c-4.356,3.96,0.093,5.112,3.611,4.531c4.558-0.754,10.956-2.8,13.845-6.66 c0.345-0.461-1.095-0.19-1.326,0.059c-1.732,1.869-5.79,8.518-0.511,8.319c1.734-0.065,3.534-1.163,4.995-1.963 c1.2-0.657,2.358-1.396,3.524-2.11c2.713-1.663,4.695-2.293,7.68-3.251c-0.887,0.284-9.808,4.797-6.644,5.811 c4.194,1.345,12.688-7.066,15.939-3.075c0.254,0.313,1.636-0.179,1.357-0.52c-1.566-1.924-5.25-0.534-7.14,0.032 c-2.138,0.64-4.218,1.477-6.321,2.222c-2.886,1.021-3.014-0.883-0.271-2.522c1.043-0.624,2.222-1.076,3.377-1.447 c0.119-0.038,0.868-0.29,0.605-0.534c-1.473-1.373-4-0.007-5.464,0.703c-2.018,0.979-3.914,2.271-5.827,3.433 c-2.61,1.587-8.726,4.366-6.6-1.362c0.397-1.07,1.159-2.006,1.852-2.898c1.57-2.025-1.398,0.159-1.987,0.651 c-2.914,2.438-7.193,3.717-10.841,4.481c-1.061,0.223-3.392,0.833-4.087-0.442c-0.107-1.075,0.208-2.018,0.947-2.825 c0.691-1.105,0.918-0.883,0.68,0.667c-2.132,1.278-5.039,1.697-7.479,2.036C49.362,35.633,48.73,36.319,49.745,36.179 L49.745,36.179z"/>
<path d="M99.139,32.294c-0.928,0.814-6.715,6.419-3.374,7.547c3.896,1.316,7.504-5.855,10.98-6.496 c-0.244-0.229-0.488-0.457-0.732-0.687c-2.712,3.416-5.551,6.733-8.442,9.997c-4.771,5.387-10.023,11.785-16.509,15.147 c-3.926,2.034-2.133-1.931-0.981-3.553c1.969-2.773,4.673-5.035,7.352-7.085c8.563-6.553,19.164-10.144,29.866-10.786 c0.809-0.048,1.126-1.093,0.137-1.033c-11.576,0.694-22.573,4.766-31.785,11.815c-1.739,1.331-11.362,8.99-8.049,11.914 c3.563,3.145,12.756-7.151,14.645-9.032c5.337-5.313,10.293-11.079,14.975-16.977c0.438-0.553-0.3-0.767-0.732-0.687 c-2.157,0.397-3.998,2.383-5.612,3.717c-0.41,0.339-5.419,4.389-4.282,1.039c0.538-1.587,2.262-3.117,3.501-4.205 C100.833,32.282,99.673,31.825,99.139,32.294L99.139,32.294z"/>
<path d="M118.781,21.926c4.521,1.587,9.842,0.395,14.146-1.237c1.828-0.693,3.636-1.657,5.251-2.746 c1.387-0.934,2.695-1.912,3.994-2.965c0.458-0.404,0.915-0.809,1.372-1.213c0.375-0.299,0.418-0.749,0.131-1.35 c-1.417,1.654-2.849,3.296-4.282,4.936c-5.067,5.79-10.111,11.787-15.819,16.964c-0.371,0.336-0.759,0.649-1.153,0.956 c-0.933,0.724-0.028,0.215-0.084-0.004c-0.184-0.71,0.5-1.763,0.807-2.342c2.047-3.861,5.777-6.949,9.159-9.562 c5.801-4.481,12.525-7.521,19.321-10.142c6.126-2.363,13.341-5.127,20.04-4.483c7.442,0.715,4.942,8.532,0.912,11.59 c-11.863,9.004-29.826,6.769-36.045-7.455c-1.742-3.984-2.364-8.406-2.689-12.705c-0.028-0.367-1.484-0.084-1.449,0.389 c1.13,14.945,9.244,27.068,25.388,25.707c6.901-0.582,20.32-4.426,20.199-13.222c-0.203-14.779-39.434,5.27-43.558,7.901 c-4.715,3.009-12.105,8.213-13.504,14.133c-0.696,2.949,4.027-0.833,4.34-1.125c7.109-6.65,13.448-14.224,19.774-21.61 c0.381-0.445-1.083-0.194-1.33,0.043c-5.825,5.595-15.166,11.927-23.749,8.915C119.578,21.167,118.262,21.744,118.781,21.926 L118.781,21.926z"/>
<path d="M120.178,41.91c6.111-4.395,13.705-9.091,21.336-9.678c0.579-0.044,6.302,0.03,3.428-0.339 c-1.284-0.165-2.587,0.07-3.84,0.321c-2.807,0.563-5.466,2.186-7.545,4.106c-1.345,1.241-3.472,5.032,0.149,4.259 c2.068-0.442,3.974-1.413,5.766-2.52c1.165-0.72,2.303-1.468,3.434-2.24c0.443-0.315,0.886-0.631,1.328-0.946 c1.134-0.344,1.681-1.06,1.641-2.147c-0.938,0.916-1.818,1.886-2.679,2.873c-2.965,3.4-3.857,6.723,1.515,5.097 c3.363-1.019,6.595-2.546,9.837-3.887c2.06-0.852,4.134-1.664,6.237-2.4c0.933-0.326,8.231-2.146,4.246-1.31 c-1.88,0.395-13.744,3.135-11.737,6.854c1.97,3.649,13.549-5.34,14.734-6.377c0.372-0.324-0.991-0.188-1.223-0.012 c-5.251,3.99-9.852,8.926-13.6,14.334c-0.306,0.441,1.11,0.232,1.322-0.072c3.691-5.326,8.195-10.141,13.328-14.111 c-2.544,1.968-6.595,4.094-9.588,5.355c-7.041,2.967-2.127-2.281-0.29-3.215c2.502-1.271,5.503-1.951,8.264-2.439 c0.209-0.037,1.329-0.579,0.588-0.626c-5.428-0.344-11.157,2.932-16.002,4.947c-1.419,0.591-10.384,4.581-8.331,0.54 c1.087-2.139,3.076-4.037,4.781-5.701c0.375-0.366-1.01-0.175-1.223-0.012c-2.754,2.104-5.537,4.143-8.539,5.883 c-0.895,0.519-5.044,2.855-4.441,0.358c1.017-4.216,8.491-6.957,11.702-6.144c0.345,0.087,1.665-0.46,1.18-0.6 c-8.955-2.579-19.987,4.781-26.901,9.752C118.44,42.257,119.897,42.112,120.178,41.91L120.178,41.91z"/>
<path d="M160.148,41.643c3.982-1.391,7.924-2.909,11.803-4.565c1.779-0.759,7.902-2.671,8.135-5.169 c0.012-0.13-0.034-0.182-0.145-0.245c-2.91-1.664-9.089,5.257-8.799,7.894c0.26,2.36,7.436,0.406,8.434,0.134 c17.029-4.653,28.198-20.445,31.264-37.174c0.099-0.534-1.359-0.282-1.445,0.191c-3.054,16.659-14.094,32.326-31.189,36.604 c-1.548,0.388-3.76,0.911-5.299,0.207c-1.78-0.813,1.562-4.104,2.094-4.607c0.507-0.479,5.063-3.656,2.89-1.771 c-4.65,4.037-12.551,5.931-18.304,7.94C158.625,41.417,159.508,41.866,160.148,41.643L160.148,41.643z"/>
<path d="M43.295,49.116c15.403,0.038,30.807,0.184,46.208,0.435c10.236,0.166,20.476,0.37,30.705,0.813 c3.366,0.146,6.735,0.314,10.09,0.637c0.961,0.093,1.935,0.189,2.878,0.397c0.814,0.18,0.818-0.23-0.186-0.005 c-0.903,0.203-0.641,1.139,0.252,0.938c5.12-1.152-2.371-2.337-3.734-2.454c-10.337-0.886-20.771-0.964-31.137-1.179 c-18.308-0.378-36.622-0.544-54.934-0.59C42.629,48.106,42.31,49.113,43.295,49.116L43.295,49.116z"/>
<path d="M189.058,41.942c0.105-0.188,0.219-0.369,0.341-0.542c0.11-0.156,0.23-0.306,0.362-0.444 c0.013-0.014,0.299-0.115-0.115,0.028c-0.578,0.201-0.601-0.336-0.504,0.072c0.158,0.665,1.608,0.283,1.449-0.389 c-0.218-0.919-1.273-0.831-1.861-0.299c-0.436,0.394-0.77,0.902-1.055,1.413c-0.18,0.32,0.155,0.568,0.439,0.602 C188.474,42.426,188.877,42.266,189.058,41.942L189.058,41.942z"/>
</svg>