<?xml version="1.0" standalone="no"?>
<!DOCTYPE svg PUBLIC "-//W3C//DTD SVG 20010904//EN"
 "http://www.w3.org/TR/2001/REC-SVG-20010904/DTD/svg10.dtd">
<svg version="1.0" xmlns="http://www.w3.org/2000/svg"
 width="468pt" height="174pt" viewBox="0 0 468 174"
 preserveAspectRatio="xMidYMid meet">
<metadata>
Created by POTRACE VERSION, written by Peter Selinger 2001-2007
</metadata>
<g transform="translate(0,174) scale(0.012124,-0.012124)"
fill="#000000" stroke="none">
<path d="M19117 14256 c-21 -8 -46 -21 -56 -30 -9 -8 -70 -41 -134 -71 -65
-31 -133 -70 -152 -86 -19 -17 -35 -37 -35 -44 0 -7 -15 -23 -33 -34 -18 -11
-41 -29 -51 -40 -10 -11 -41 -28 -68 -37 -35 -11 -52 -23 -59 -41 -5 -13 -9
-35 -9 -48 0 -13 7 -31 16 -39 9 -9 32 -16 56 -16 33 0 47 7 77 37 20 20 72
61 116 90 44 30 95 61 113 69 18 7 46 24 63 36 16 13 48 38 70 56 23 17 50 32
61 32 11 0 45 14 75 31 46 27 60 30 86 22 22 -6 37 -20 49 -43 10 -20 17 -59
17 -90 1 -30 -6 -82 -13 -115 -8 -33 -26 -84 -39 -114 -14 -29 -40 -68 -57
-86 -24 -25 -39 -57 -60 -132 -15 -54 -36 -114 -45 -133 -10 -19 -28 -48 -40
-65 -12 -16 -38 -61 -58 -99 -21 -38 -37 -75 -37 -83 0 -7 -14 -52 -30 -100
-17 -48 -41 -99 -54 -113 -12 -14 -40 -53 -60 -88 -26 -43 -40 -81 -47 -126
-5 -35 -13 -76 -19 -92 -6 -16 -9 -44 -5 -62 5 -25 -1 -48 -26 -99 l-32 -65 7
-137 c4 -75 11 -152 15 -171 5 -19 27 -99 50 -177 23 -78 55 -169 71 -202 17
-33 35 -63 41 -67 6 -3 22 -30 34 -58 13 -28 42 -75 64 -105 23 -30 41 -62 41
-71 0 -9 14 -37 31 -63 16 -25 38 -67 47 -94 10 -26 28 -68 41 -93 13 -25 41
-67 62 -94 22 -27 39 -56 39 -65 0 -10 -9 -35 -19 -57 -11 -22 -37 -63 -58
-90 -21 -28 -67 -77 -103 -110 -36 -32 -92 -84 -125 -114 -33 -30 -85 -81
-115 -114 -30 -33 -73 -78 -95 -101 -22 -22 -54 -58 -70 -80 -16 -22 -54 -67
-85 -100 -30 -34 -70 -81 -88 -105 -18 -25 -47 -67 -65 -95 -19 -27 -52 -89
-75 -137 -23 -48 -51 -92 -61 -97 -10 -6 -35 -44 -55 -86 -20 -41 -36 -77 -36
-81 0 -3 -11 -20 -24 -37 -12 -18 -29 -54 -35 -82 -7 -27 -24 -75 -36 -105
-13 -31 -31 -95 -39 -142 -9 -48 -22 -103 -31 -123 -9 -24 -15 -77 -17 -153
-2 -71 2 -133 10 -158 7 -23 24 -53 39 -68 14 -14 36 -28 47 -30 12 -2 59 -9
106 -15 56 -6 100 -7 130 0 25 5 72 13 105 19 36 5 99 29 160 59 55 27 124 70
153 95 30 25 59 46 66 46 8 0 24 11 38 25 14 13 49 63 78 110 37 59 67 95 98
116 24 16 61 38 81 49 21 10 46 31 56 47 10 15 35 51 55 78 22 29 45 75 54
110 9 33 23 91 32 130 8 38 23 85 33 105 10 19 33 69 51 110 17 41 38 113 47
160 8 47 20 123 28 170 7 47 16 137 20 201 6 99 4 130 -15 215 -11 54 -28 126
-35 160 -10 42 -12 88 -8 150 6 79 9 92 33 114 14 14 50 46 80 72 30 25 91 77
135 115 44 38 98 83 121 100 22 18 52 35 67 38 15 4 38 20 51 35 13 16 43 38
67 50 24 13 67 40 95 61 29 21 60 49 71 62 10 13 27 28 38 34 11 6 40 13 64
17 24 4 64 19 90 33 25 15 66 41 91 58 25 17 86 49 135 70 50 21 95 43 102 48
7 5 45 17 85 28 40 10 90 19 112 19 23 0 58 -11 86 -26 30 -17 53 -37 61 -56
7 -18 9 -49 5 -86 -3 -31 -18 -79 -32 -107 -14 -27 -30 -72 -34 -100 -5 -27
-22 -88 -39 -135 -16 -47 -39 -133 -51 -191 -21 -102 -21 -111 -6 -216 8 -60
20 -121 26 -137 6 -16 36 -59 68 -96 35 -42 72 -74 95 -84 20 -9 61 -16 90
-16 28 0 72 5 97 11 25 5 61 20 80 33 19 12 51 28 70 36 19 7 71 40 115 73 44
33 99 77 121 98 23 20 56 44 72 53 17 9 42 16 56 16 14 0 28 -5 31 -11 4 -6
-13 -30 -38 -55 -25 -25 -62 -74 -83 -111 -20 -36 -60 -91 -89 -122 -29 -31
-76 -83 -105 -116 -28 -33 -62 -81 -75 -106 -13 -25 -40 -65 -61 -90 -20 -24
-45 -62 -54 -84 -10 -22 -24 -46 -33 -53 -9 -8 -18 -26 -22 -41 -3 -16 -17
-43 -31 -62 -13 -18 -33 -57 -44 -86 -11 -29 -33 -71 -50 -94 -16 -23 -30 -47
-30 -52 0 -6 -13 -39 -30 -73 -16 -35 -39 -104 -50 -154 -11 -49 -20 -124 -20
-167 0 -66 4 -82 25 -113 14 -20 44 -47 68 -60 37 -21 54 -24 157 -24 111 1
119 2 225 43 61 23 146 61 190 83 44 22 97 50 118 61 21 10 42 28 48 38 5 11
16 19 24 19 8 0 37 20 65 45 27 24 60 49 72 56 13 7 43 29 68 49 25 21 59 44
75 53 17 8 59 45 95 82 36 37 76 79 91 94 14 14 57 56 97 93 40 36 72 71 72
77 0 6 18 31 41 56 22 24 57 49 76 56 29 9 37 9 44 -2 5 -8 9 -21 9 -29 0 -8
-7 -61 -15 -117 -11 -76 -12 -122 -5 -184 5 -45 22 -119 36 -163 15 -45 32
-88 38 -97 6 -9 32 -33 58 -52 26 -20 78 -52 115 -70 50 -25 86 -36 136 -40
37 -2 113 -1 168 3 58 5 149 21 217 40 64 18 150 48 190 68 39 21 74 44 77 53
3 9 24 25 48 35 23 10 63 31 88 47 26 16 52 39 58 51 7 12 26 31 43 41 17 9
39 28 50 41 11 12 34 28 52 35 17 7 72 47 121 89 50 42 117 96 149 121 32 24
71 51 86 59 15 8 40 25 56 38 16 12 48 37 71 55 23 18 69 55 102 82 32 28 76
61 96 75 21 14 54 41 75 62 21 20 76 61 124 92 47 31 86 60 86 65 0 5 21 23
48 40 26 17 57 38 70 47 16 12 26 14 33 7 7 -7 5 -28 -6 -66 -9 -30 -23 -61
-31 -68 -8 -6 -30 -40 -49 -74 -19 -34 -35 -68 -35 -75 0 -7 -12 -32 -27 -57
-16 -24 -39 -61 -52 -81 -13 -20 -48 -79 -77 -130 -29 -51 -56 -102 -60 -115
-3 -12 -17 -33 -30 -47 -12 -14 -30 -42 -39 -62 -8 -21 -44 -79 -78 -130 -35
-51 -70 -111 -77 -133 -7 -22 -39 -78 -70 -125 -31 -47 -66 -105 -77 -131 -11
-25 -37 -67 -57 -93 -23 -31 -36 -59 -36 -79 -1 -21 -11 -45 -30 -67 -17 -19
-30 -39 -30 -44 0 -5 -17 -32 -38 -60 -21 -28 -45 -62 -53 -76 -9 -14 -22 -43
-29 -65 -7 -22 -23 -61 -36 -86 -13 -26 -40 -61 -61 -78 -21 -17 -44 -45 -53
-63 -8 -18 -37 -49 -63 -69 -27 -20 -58 -52 -70 -72 -12 -19 -43 -57 -68 -84
-25 -26 -87 -86 -138 -132 -52 -47 -111 -107 -133 -135 -23 -28 -51 -55 -64
-61 -13 -5 -46 -32 -74 -58 -27 -27 -50 -56 -50 -64 0 -8 -23 -36 -50 -62 -28
-25 -61 -63 -73 -83 -12 -20 -45 -74 -73 -120 -28 -46 -70 -114 -94 -153 -23
-38 -56 -84 -72 -101 -16 -18 -40 -54 -53 -81 -12 -27 -43 -76 -67 -109 -25
-32 -49 -70 -53 -84 -4 -14 -32 -72 -61 -130 -29 -58 -67 -146 -84 -195 -17
-50 -51 -130 -76 -178 -24 -48 -55 -122 -67 -165 -12 -42 -30 -89 -40 -103 -9
-14 -21 -50 -27 -80 -6 -30 -19 -83 -30 -119 -11 -36 -33 -136 -50 -223 l-31
-158 21 -46 c11 -25 20 -52 20 -60 0 -8 11 -25 25 -38 19 -20 34 -25 76 -25
29 0 81 10 115 21 43 15 77 35 109 66 26 24 56 65 67 91 12 26 45 69 74 97 31
31 62 73 77 105 13 30 32 62 42 70 10 8 26 34 36 58 11 24 40 71 66 104 25 33
52 78 60 100 8 23 11 55 7 77 -6 37 -4 41 33 64 25 16 48 43 64 73 13 27 33
62 43 78 11 16 31 52 46 80 15 28 37 69 49 91 11 22 35 72 51 110 17 39 41 89
52 112 11 24 35 65 53 92 17 27 38 67 47 88 9 21 31 85 49 143 18 58 43 123
55 145 12 22 25 55 29 73 4 19 20 48 35 65 15 18 33 51 39 74 6 22 18 46 27
54 8 7 26 31 39 53 12 23 39 87 59 142 20 56 36 106 36 112 0 6 20 51 44 99
24 48 57 113 72 143 16 31 56 84 89 119 33 35 78 80 99 100 22 20 54 51 70 69
17 18 56 59 86 90 31 31 66 71 78 89 13 18 35 34 52 38 20 4 43 23 65 52 19
25 35 50 35 55 0 6 41 53 91 106 50 54 116 123 146 155 31 31 62 57 68 57 7 0
34 24 60 53 26 28 73 72 105 97 32 25 80 74 107 110 26 35 82 99 123 140 41
42 88 93 103 114 16 20 43 44 60 52 18 9 51 41 75 72 24 31 63 85 88 120 25
34 51 62 57 62 6 0 64 53 128 117 64 65 130 130 145 144 16 15 40 39 54 55 14
16 95 97 180 180 85 83 201 200 258 261 57 61 113 124 125 140 12 17 80 91
151 167 101 105 138 139 168 148 28 8 42 8 50 0 8 -8 7 -36 -5 -107 -11 -62
-23 -105 -37 -122 -11 -14 -20 -37 -20 -52 -1 -14 -7 -53 -15 -86 -7 -33 -23
-95 -34 -137 -12 -42 -27 -139 -35 -215 -8 -76 -21 -156 -29 -178 -8 -22 -22
-71 -31 -110 -9 -38 -23 -113 -31 -165 -8 -52 -25 -123 -39 -157 -13 -35 -33
-74 -44 -88 -11 -13 -28 -59 -38 -101 -17 -74 -17 -77 1 -110 10 -19 29 -37
43 -41 14 -3 29 0 37 8 8 8 31 48 53 89 21 41 44 103 51 137 7 35 19 80 28
100 9 21 24 74 34 118 10 44 30 114 44 155 21 60 28 105 35 225 5 83 12 175
15 205 4 30 16 102 27 160 11 58 24 125 28 150 4 25 17 71 28 103 12 31 35 76
51 100 22 31 32 58 37 107 5 41 15 78 30 100 13 19 28 56 34 81 10 39 9 52 -4
78 -9 17 -27 33 -42 37 -14 4 -41 4 -60 1 -19 -3 -53 -18 -76 -34 -23 -15 -49
-41 -58 -58 -9 -16 -32 -39 -51 -50 -19 -11 -68 -56 -111 -100 -42 -44 -91
-97 -109 -119 -18 -21 -63 -62 -99 -91 -36 -29 -192 -180 -347 -336 -154 -156
-298 -300 -319 -319 -21 -19 -55 -53 -76 -75 -21 -22 -75 -78 -121 -125 -46
-47 -121 -121 -168 -166 -46 -44 -104 -107 -129 -140 -24 -32 -83 -97 -130
-144 -47 -47 -103 -97 -125 -111 -22 -14 -71 -57 -110 -96 -38 -38 -106 -111
-150 -162 -44 -51 -98 -114 -120 -139 -22 -26 -47 -51 -55 -56 -8 -4 -92 -87
-187 -183 -120 -121 -178 -174 -190 -171 -13 3 -17 12 -16 33 1 16 18 52 36
79 19 28 47 74 62 101 16 28 38 61 50 75 12 14 38 54 57 90 19 36 49 90 66
121 18 31 43 61 57 67 15 7 33 30 44 54 10 24 45 99 79 168 33 69 72 152 87
185 15 33 35 69 45 80 10 11 31 41 47 66 15 26 50 80 77 120 26 41 56 83 66
94 10 11 25 42 34 68 9 26 28 70 43 98 16 28 45 81 65 117 20 37 49 92 64 122
15 30 44 71 66 91 21 20 38 45 38 58 0 12 9 53 19 91 11 39 30 85 42 102 13
18 47 58 76 91 29 32 55 68 59 80 4 12 18 40 32 62 15 22 54 70 89 106 34 37
71 86 82 110 10 24 46 76 80 114 34 39 70 89 81 112 11 23 31 55 44 70 13 15
31 44 41 63 10 19 36 61 57 93 22 32 49 80 60 105 12 26 50 90 84 142 35 52
78 114 95 137 17 23 40 60 52 81 12 22 31 54 42 72 11 18 35 56 54 84 18 28
40 65 48 81 9 17 29 45 44 63 16 18 29 37 29 42 0 5 24 44 53 86 28 42 55 81
59 88 4 6 10 24 13 39 3 16 19 41 35 55 18 17 40 58 58 107 16 44 39 98 51
121 12 22 31 72 42 110 11 38 24 83 29 99 5 17 17 55 28 85 11 30 30 84 41
120 12 36 31 96 42 134 13 44 19 80 15 102 -4 18 -16 40 -27 48 -11 7 -29 11
-40 9 -11 -3 -36 -24 -55 -47 -20 -22 -43 -54 -51 -71 -9 -16 -35 -55 -59 -85
-23 -30 -59 -90 -79 -132 -20 -43 -40 -78 -45 -78 -4 0 -27 -17 -51 -37 -23
-21 -64 -60 -91 -88 -27 -27 -57 -63 -65 -80 -9 -16 -32 -50 -52 -75 -20 -25
-49 -63 -63 -85 -15 -22 -39 -66 -53 -98 -14 -32 -35 -73 -48 -90 -12 -18 -36
-49 -54 -71 -18 -21 -35 -51 -38 -65 -3 -15 -20 -48 -38 -73 -18 -25 -47 -65
-64 -88 -18 -24 -33 -54 -33 -67 0 -14 -21 -59 -46 -101 -26 -42 -58 -96 -72
-121 -13 -25 -39 -65 -57 -89 -19 -24 -36 -61 -40 -82 -4 -21 -16 -46 -27 -57
-11 -10 -31 -39 -44 -65 -13 -26 -38 -63 -54 -82 -17 -19 -42 -62 -55 -95 -14
-33 -25 -65 -25 -71 0 -6 -21 -48 -47 -93 -25 -45 -70 -121 -100 -168 -29 -47
-53 -91 -53 -96 0 -6 -9 -21 -20 -35 -10 -14 -32 -49 -48 -79 -16 -30 -36 -67
-45 -84 -9 -16 -31 -73 -49 -125 -21 -61 -41 -104 -59 -120 -14 -14 -41 -37
-60 -52 -19 -15 -77 -66 -129 -112 -52 -47 -115 -99 -138 -116 -24 -17 -105
-90 -180 -161 -76 -71 -143 -129 -150 -129 -7 0 -39 -24 -71 -52 -32 -29 -93
-78 -136 -108 -42 -30 -91 -70 -107 -87 -17 -18 -37 -33 -44 -33 -7 0 -28 -12
-46 -27 -18 -16 -47 -38 -65 -50 -18 -13 -36 -23 -41 -23 -5 0 -33 -18 -63
-39 -30 -22 -68 -51 -85 -65 -17 -14 -74 -48 -125 -74 -52 -27 -117 -65 -144
-85 -28 -20 -71 -48 -97 -62 -26 -14 -98 -39 -160 -56 -62 -17 -138 -37 -168
-44 -30 -7 -68 -18 -83 -24 -16 -6 -45 -11 -65 -11 -23 0 -56 12 -86 29 -27
16 -64 48 -82 71 -21 26 -37 62 -44 97 -7 31 -9 79 -6 106 4 27 18 71 32 98
15 30 24 65 24 94 0 24 -5 65 -12 89 -8 30 -8 54 -2 77 9 30 15 34 54 41 25 4
51 16 58 25 7 10 17 36 23 58 6 22 24 57 41 79 17 21 44 64 60 95 16 31 41 77
56 102 15 25 39 60 54 77 15 18 30 42 34 54 4 13 30 48 59 79 37 41 58 76 78
130 15 41 27 86 27 100 0 15 -9 37 -19 50 -18 22 -27 24 -111 24 -83 0 -93 -2
-110 -23 -10 -12 -37 -37 -59 -56 -22 -19 -63 -62 -92 -97 -28 -35 -58 -77
-66 -94 -9 -16 -36 -56 -60 -87 -24 -31 -58 -69 -77 -85 -19 -15 -69 -82 -112
-148 -43 -66 -112 -160 -153 -210 -42 -49 -162 -175 -266 -280 -105 -104 -222
-219 -260 -254 -39 -35 -92 -74 -120 -87 -27 -14 -72 -40 -100 -59 -27 -20
-75 -44 -105 -55 -30 -11 -64 -25 -75 -31 -11 -5 -30 -25 -42 -43 -16 -25 -33
-36 -70 -46 -26 -7 -63 -22 -82 -33 -23 -14 -50 -20 -84 -19 -41 1 -61 8 -105
38 -30 21 -61 48 -69 61 -12 17 -14 38 -10 79 3 31 14 68 23 82 10 15 34 61
55 102 20 41 40 86 44 100 4 14 23 47 41 75 19 27 34 53 34 58 0 4 33 56 74
115 40 59 85 130 99 157 14 28 43 71 64 97 21 25 58 83 83 128 25 45 57 98 72
118 15 20 40 55 55 76 15 22 51 62 80 90 29 28 59 68 67 88 9 20 43 65 76 99
33 35 63 72 66 82 3 10 0 31 -6 47 -7 17 -24 33 -42 39 -17 6 -49 11 -72 11
-31 0 -63 -13 -136 -55 -52 -30 -116 -62 -142 -71 -35 -11 -71 -38 -140 -105
-51 -49 -96 -89 -100 -89 -5 0 -54 -30 -110 -67 -93 -62 -106 -68 -163 -71
-58 -4 -64 -2 -99 28 -20 18 -44 46 -52 61 -7 15 -14 48 -14 73 0 25 14 102
30 173 17 70 42 147 55 171 14 24 34 74 44 111 11 36 23 93 26 126 4 33 13 83
21 110 7 28 16 78 20 112 3 34 3 82 0 107 -6 35 -20 60 -58 106 -28 33 -63 67
-79 75 -15 8 -52 15 -81 15 -30 0 -78 -7 -108 -15 -30 -8 -93 -18 -140 -21
-47 -4 -90 -11 -96 -16 -6 -4 -31 -19 -55 -33 -24 -14 -57 -31 -74 -39 -16 -7
-55 -21 -85 -31 -30 -10 -105 -41 -166 -70 -62 -29 -135 -69 -164 -89 -29 -20
-56 -36 -60 -36 -4 0 -31 -16 -60 -35 -29 -19 -57 -35 -62 -35 -6 0 -38 -24
-72 -53 -34 -30 -88 -71 -121 -93 -33 -21 -88 -63 -122 -94 -34 -30 -89 -80
-123 -110 -33 -30 -75 -62 -93 -72 -17 -9 -37 -17 -44 -18 -7 0 -22 10 -33 23
-12 12 -30 38 -40 57 -10 19 -26 64 -35 100 -10 36 -31 92 -47 124 -16 33 -46
79 -68 102 -27 29 -44 61 -55 101 -9 32 -31 101 -50 153 -19 52 -44 131 -56
175 -19 69 -22 102 -20 235 1 85 2 194 2 243 1 48 0 102 -2 121 -2 24 8 57 33
108 21 40 42 91 49 113 7 22 30 78 51 124 22 46 55 127 75 180 19 53 48 117
64 142 16 25 29 50 29 56 0 6 9 22 21 37 11 14 31 54 45 88 13 34 33 71 44 83
12 12 29 59 41 111 11 49 24 114 29 144 4 30 17 91 29 134 12 44 21 96 21 117
0 28 -9 48 -36 80 -20 24 -42 60 -51 80 -8 21 -25 45 -38 53 -18 12 -50 16
-122 16 -56 -1 -114 -7 -136 -14z m7608 -976 c4 -6 -1 -34 -9 -64 -9 -30 -41
-105 -72 -167 -31 -63 -66 -125 -79 -139 -13 -14 -38 -61 -56 -105 -18 -44
-39 -91 -48 -105 -8 -14 -32 -45 -52 -70 -20 -25 -44 -59 -55 -76 -10 -18 -40
-63 -66 -101 -27 -39 -48 -75 -48 -81 0 -5 -18 -33 -41 -62 -22 -28 -48 -68
-56 -88 -8 -20 -28 -53 -43 -72 -15 -19 -37 -57 -49 -84 -12 -27 -38 -70 -59
-95 -20 -25 -60 -79 -87 -121 -35 -52 -56 -75 -70 -75 -16 0 -20 6 -18 28 1
16 37 99 79 185 43 86 95 183 116 215 22 32 44 72 50 90 6 18 26 50 43 72 18
22 39 54 48 70 8 17 18 44 21 61 4 17 22 46 41 64 24 24 35 43 35 63 0 16 9
45 21 63 11 19 32 43 47 54 15 12 44 49 64 83 21 34 46 80 57 103 10 22 39 72
64 112 26 39 57 78 70 87 13 8 36 41 52 73 15 31 37 65 49 74 11 10 26 18 33
18 6 0 15 -5 18 -10z m-7454 -2510 c10 -6 26 -25 35 -42 13 -24 15 -46 10 -92
-4 -34 -9 -144 -12 -246 -4 -138 -10 -202 -24 -250 -10 -36 -24 -110 -31 -165
-9 -74 -24 -128 -56 -210 -25 -63 -56 -123 -73 -140 -16 -16 -37 -50 -48 -75
-11 -25 -26 -51 -35 -58 -9 -8 -28 -35 -43 -60 -14 -26 -51 -73 -82 -104 -32
-31 -84 -84 -117 -118 -33 -34 -100 -95 -148 -136 -48 -41 -95 -74 -104 -74
-8 0 -30 -9 -47 -19 -17 -11 -62 -31 -101 -46 -46 -17 -81 -25 -103 -21 -18 3
-48 14 -66 26 -24 14 -36 30 -40 53 -3 17 -2 79 3 137 7 86 17 127 55 232 25
70 46 134 46 142 0 8 10 31 23 50 12 20 41 61 65 92 23 31 42 61 42 66 0 5 20
51 45 101 25 51 70 124 101 162 31 39 60 81 66 95 5 14 24 45 41 69 18 24 46
59 62 76 17 18 48 54 71 81 22 27 61 78 87 114 25 36 78 96 117 135 38 38 70
72 70 76 0 4 22 34 50 67 27 32 64 66 82 75 18 9 34 17 36 17 2 0 12 -5 23
-10z m4469 -2643 c0 -18 -8 -56 -17 -83 -9 -27 -27 -65 -39 -84 -13 -19 -29
-51 -35 -70 -7 -19 -22 -47 -35 -62 -12 -15 -28 -44 -35 -65 -6 -21 -19 -49
-29 -63 -9 -14 -27 -50 -39 -80 -13 -30 -36 -77 -51 -105 -16 -27 -42 -78 -58
-112 -17 -34 -45 -99 -63 -145 -18 -46 -45 -101 -61 -123 -15 -22 -37 -68 -48
-102 -11 -34 -40 -103 -65 -154 -25 -51 -45 -101 -45 -111 0 -10 -7 -34 -15
-54 -8 -19 -41 -75 -74 -124 -33 -50 -64 -105 -69 -123 -5 -18 -30 -63 -55
-99 -25 -37 -65 -104 -89 -150 -23 -46 -62 -102 -85 -125 -23 -24 -49 -43 -57
-43 -9 0 -24 -9 -35 -21 -11 -12 -24 -18 -30 -15 -6 4 -10 28 -9 54 0 26 -4
89 -10 140 -10 78 -9 99 3 135 9 23 25 69 36 101 11 32 33 85 49 116 16 31 40
70 53 86 13 16 40 63 59 104 20 41 43 100 52 131 8 30 25 64 36 74 11 10 20
23 20 30 0 7 18 48 40 91 22 43 40 84 40 89 0 6 14 30 30 54 16 24 34 59 39
77 5 19 27 55 50 80 22 25 43 58 46 74 4 16 29 58 56 92 27 35 62 79 77 98 16
19 40 53 54 75 14 22 33 47 43 55 9 8 33 39 52 70 20 30 55 78 79 105 24 28
71 82 105 120 33 39 73 75 87 82 15 7 30 12 35 13 4 0 7 -15 7 -33z"/>
<path d="M18295 13678 c-11 -6 -33 -22 -49 -35 -15 -13 -43 -30 -60 -37 -18
-8 -50 -32 -72 -54 -21 -22 -52 -56 -67 -76 -18 -23 -43 -39 -67 -46 -20 -5
-49 -19 -64 -31 -14 -11 -34 -35 -42 -52 -9 -18 -40 -58 -68 -89 -28 -31 -68
-74 -88 -95 -20 -21 -54 -53 -75 -71 -21 -19 -49 -39 -61 -46 -12 -7 -39 -36
-60 -65 -20 -30 -44 -66 -53 -80 -8 -14 -32 -37 -52 -51 -20 -14 -55 -50 -77
-80 -22 -30 -51 -63 -64 -73 -14 -10 -37 -39 -52 -65 -14 -26 -37 -58 -49 -72
-12 -14 -34 -47 -49 -73 -15 -26 -42 -64 -59 -84 -18 -20 -43 -55 -57 -79 -14
-23 -52 -89 -84 -146 -33 -57 -80 -130 -104 -162 -25 -33 -51 -76 -59 -95 -9
-20 -28 -51 -44 -69 -16 -18 -29 -43 -29 -57 0 -13 -11 -36 -24 -52 -14 -16
-28 -41 -31 -55 -4 -15 -16 -35 -27 -45 -11 -9 -25 -31 -32 -48 -7 -16 -25
-41 -40 -55 -14 -14 -38 -45 -52 -70 -14 -25 -44 -58 -67 -75 -23 -16 -71 -47
-106 -67 -35 -21 -67 -38 -73 -38 -5 0 -30 -10 -56 -21 -26 -12 -65 -36 -87
-53 -22 -18 -74 -51 -115 -73 -41 -22 -105 -48 -142 -58 -62 -16 -72 -17 -129
-2 -46 12 -68 13 -83 5 -12 -6 -31 -20 -43 -31 -15 -13 -23 -32 -23 -54 0 -23
7 -37 23 -47 12 -8 47 -19 77 -24 33 -6 83 -7 125 -2 39 5 88 14 109 20 22 7
66 25 98 40 32 16 86 47 120 71 45 31 66 39 77 32 8 -5 16 -14 18 -19 2 -5
-16 -40 -39 -76 -24 -37 -56 -88 -73 -113 -16 -26 -38 -63 -48 -83 -11 -20
-29 -48 -42 -62 -12 -14 -31 -41 -40 -60 -10 -19 -31 -52 -47 -73 -17 -20 -41
-61 -55 -90 -14 -28 -36 -65 -49 -80 -13 -16 -24 -34 -24 -40 0 -6 -8 -20 -18
-31 -10 -12 -50 -79 -89 -151 -38 -71 -75 -146 -82 -165 -6 -19 -29 -64 -51
-100 -22 -36 -40 -71 -40 -78 0 -8 -6 -26 -13 -40 -8 -15 -22 -43 -31 -62 -10
-19 -44 -87 -76 -150 -32 -63 -69 -142 -82 -175 -14 -33 -35 -100 -48 -150
-12 -49 -33 -108 -46 -130 -12 -22 -37 -76 -54 -120 -24 -62 -30 -89 -25 -121
3 -23 20 -63 36 -88 17 -25 44 -57 61 -71 26 -22 39 -25 107 -25 68 0 86 4
140 32 41 21 80 52 113 90 27 32 54 58 60 58 5 0 32 19 60 42 27 24 61 61 74
83 12 22 58 75 101 117 43 42 103 104 133 139 30 34 81 89 113 121 31 33 57
63 57 68 0 5 23 39 52 76 28 38 104 120 168 184 101 100 121 126 160 204 26
53 68 116 102 155 49 55 62 78 83 146 13 44 31 105 39 135 8 30 19 68 25 83 6
16 11 39 11 53 0 14 11 46 25 73 13 27 29 79 35 117 7 38 23 116 37 174 14 58
35 123 46 144 16 32 18 50 12 95 -3 31 -10 93 -13 138 -6 71 -11 86 -33 109
-16 16 -41 28 -67 31 -29 4 -49 1 -66 -10 -13 -9 -27 -26 -31 -37 -4 -13 1
-31 14 -49 11 -15 25 -48 30 -72 6 -28 6 -60 0 -89 -5 -25 -13 -88 -18 -141
-5 -55 -15 -106 -24 -120 -8 -13 -18 -44 -22 -69 -4 -25 -25 -94 -47 -155 -21
-60 -48 -135 -59 -165 -12 -30 -30 -79 -40 -109 -11 -30 -30 -73 -43 -95 -13
-23 -44 -82 -69 -132 -26 -50 -54 -97 -63 -105 -10 -8 -27 -36 -40 -64 -12
-27 -44 -71 -71 -96 -26 -25 -71 -86 -98 -134 -28 -49 -68 -109 -90 -134 -23
-25 -53 -64 -68 -86 -14 -22 -97 -107 -182 -190 -86 -82 -175 -163 -198 -180
-23 -17 -73 -61 -112 -98 -38 -38 -82 -74 -96 -82 -14 -8 -47 -19 -72 -26 -40
-10 -51 -9 -72 5 -21 14 -25 24 -25 67 0 36 11 77 40 147 23 53 63 144 90 202
28 58 50 115 50 127 0 12 4 24 9 27 5 3 21 41 37 83 15 43 36 88 47 100 11 12
33 46 48 75 16 29 44 85 62 124 19 39 55 97 81 130 26 34 78 122 116 198 38
76 85 161 103 189 19 29 55 90 80 137 25 47 57 98 71 115 14 16 32 48 40 71 8
23 28 60 45 84 17 24 31 48 31 55 0 6 11 22 25 35 13 12 30 39 36 59 7 20 32
74 58 121 25 47 61 100 80 117 18 18 52 42 75 52 23 11 55 24 71 30 17 6 41
27 53 46 13 19 28 51 32 71 6 27 5 45 -6 65 -8 16 -14 34 -14 40 0 7 12 31 27
53 15 23 39 55 54 71 16 17 35 48 44 70 10 22 26 50 38 63 11 12 30 38 41 56
12 19 42 61 67 94 26 33 50 70 54 83 4 13 19 32 32 42 13 11 35 43 49 71 13
28 34 65 47 83 12 18 34 52 49 77 14 25 45 56 67 70 23 15 49 43 61 66 11 22
40 62 65 90 25 28 45 55 45 60 0 5 27 45 61 90 33 44 73 87 87 94 15 8 39 27
53 43 14 15 37 49 52 74 14 25 33 52 42 59 9 8 25 31 36 51 10 21 38 51 61 68
24 16 91 76 149 133 67 65 113 118 124 145 16 36 26 45 67 59 26 8 51 20 54
26 3 5 19 17 34 26 15 10 55 48 89 85 46 50 61 75 61 97 0 19 -7 33 -19 40
-11 5 -26 10 -33 10 -7 0 -22 -6 -33 -12z"/>
<path d="M7335 13246 c-22 -7 -58 -22 -80 -33 -22 -11 -65 -23 -95 -27 -30 -4
-100 -22 -155 -42 -55 -20 -117 -44 -137 -55 -20 -10 -54 -19 -75 -19 -21 0
-55 -5 -76 -11 -27 -7 -44 -21 -63 -50 -13 -22 -27 -53 -31 -69 -3 -17 -24
-49 -47 -72 -23 -24 -106 -104 -185 -178 -79 -74 -167 -166 -197 -205 -29 -38
-74 -95 -99 -125 -25 -30 -54 -73 -64 -95 -10 -22 -38 -58 -61 -80 -23 -22
-59 -62 -80 -90 -20 -27 -52 -66 -70 -85 -18 -19 -52 -64 -75 -100 -23 -36
-50 -90 -60 -120 -9 -30 -29 -71 -44 -90 -15 -19 -42 -60 -59 -91 -18 -31 -32
-63 -32 -72 0 -8 -15 -35 -33 -59 -19 -24 -45 -64 -59 -88 -14 -25 -34 -69
-43 -98 -9 -30 -30 -68 -45 -85 -15 -18 -32 -42 -39 -54 -6 -12 -11 -35 -11
-52 0 -17 10 -41 23 -56 14 -17 36 -28 62 -31 33 -5 47 -1 82 25 27 20 43 40
48 62 4 17 32 68 62 112 30 45 61 99 69 121 7 23 21 64 31 91 10 28 40 77 67
110 26 32 59 81 73 109 14 27 47 79 74 116 26 36 58 78 71 94 13 16 37 55 55
85 18 31 41 74 51 96 11 22 32 51 47 65 15 14 36 43 47 65 11 22 41 69 66 105
26 36 95 112 153 170 59 58 147 142 196 188 48 46 117 106 153 134 36 27 86
61 112 74 26 13 49 28 53 34 4 6 32 23 63 39 31 15 75 31 98 34 22 4 62 16 88
28 26 11 66 21 90 22 26 1 65 -8 106 -26 40 -17 75 -40 91 -60 14 -17 28 -43
32 -56 4 -16 -2 -38 -19 -67 -15 -25 -29 -71 -35 -111 -5 -37 -18 -95 -29
-130 -10 -34 -26 -73 -34 -85 -8 -13 -19 -48 -25 -78 -6 -30 -16 -86 -22 -125
-6 -38 -17 -80 -25 -92 -8 -13 -30 -78 -50 -145 -19 -68 -44 -141 -54 -164
-11 -22 -20 -48 -20 -58 0 -10 -13 -42 -29 -70 -16 -28 -43 -96 -61 -151 -18
-55 -48 -136 -67 -180 -20 -44 -48 -107 -63 -140 -15 -33 -35 -82 -44 -108 -9
-26 -16 -56 -16 -66 0 -10 -12 -36 -27 -57 -14 -21 -41 -82 -59 -134 -17 -52
-48 -137 -68 -189 -20 -52 -54 -130 -76 -175 -21 -45 -47 -103 -56 -131 -9
-27 -38 -96 -65 -152 -27 -56 -53 -120 -58 -142 -5 -23 -16 -52 -24 -64 -8
-13 -25 -61 -37 -108 -12 -46 -25 -92 -31 -101 -5 -10 -17 -43 -28 -75 -11
-32 -22 -71 -26 -88 -4 -16 -16 -46 -28 -65 -12 -19 -32 -57 -43 -85 -12 -27
-36 -83 -54 -124 -18 -41 -41 -104 -52 -140 -10 -36 -22 -77 -25 -91 -2 -14
-22 -63 -43 -110 -22 -47 -46 -110 -54 -141 -9 -30 -30 -75 -48 -99 -18 -24
-42 -58 -53 -75 -11 -18 -32 -51 -47 -74 -16 -22 -28 -44 -28 -48 0 -5 -12
-30 -25 -58 -14 -27 -25 -66 -25 -85 -1 -20 -13 -57 -30 -85 -16 -27 -46 -83
-66 -124 -20 -41 -47 -106 -60 -144 -13 -39 -24 -77 -24 -85 0 -9 -38 -92 -84
-186 -47 -94 -92 -197 -101 -228 -9 -33 -35 -83 -63 -120 -26 -35 -64 -89 -85
-119 -20 -31 -48 -62 -62 -69 -13 -7 -35 -29 -49 -49 -13 -20 -52 -68 -87
-106 -35 -39 -77 -92 -94 -118 -16 -27 -47 -58 -70 -72 -23 -13 -60 -45 -83
-72 -23 -26 -50 -57 -61 -68 -10 -11 -44 -38 -76 -60 -31 -22 -75 -56 -97 -74
-22 -19 -59 -62 -83 -96 -24 -33 -72 -88 -107 -121 -35 -33 -75 -69 -91 -78
-15 -10 -34 -33 -42 -50 -9 -17 -48 -63 -88 -103 -40 -39 -115 -113 -167 -165
-52 -51 -110 -106 -128 -122 -18 -15 -40 -42 -48 -58 -9 -17 -44 -58 -79 -92
-34 -33 -90 -83 -123 -111 -33 -27 -77 -61 -96 -75 -20 -14 -92 -95 -161 -180
-68 -85 -138 -163 -154 -172 -16 -9 -39 -34 -50 -55 -11 -21 -26 -45 -33 -53
-7 -8 -29 -28 -48 -44 -19 -16 -52 -51 -72 -79 -21 -28 -42 -53 -47 -56 -5 -4
-46 -40 -91 -81 -44 -41 -91 -91 -103 -110 -11 -19 -62 -79 -111 -132 -50 -54
-95 -107 -101 -118 -6 -10 -38 -50 -71 -87 -34 -38 -69 -83 -78 -101 -9 -18
-34 -43 -55 -57 -21 -14 -53 -47 -72 -73 -18 -26 -58 -74 -87 -107 -30 -33
-69 -76 -87 -95 -17 -19 -37 -44 -43 -54 -5 -11 -40 -52 -76 -90 -36 -39 -93
-102 -126 -140 -34 -38 -70 -87 -81 -109 -11 -21 -60 -82 -108 -135 -48 -54
-94 -108 -101 -122 -7 -14 -24 -38 -37 -55 -13 -16 -42 -57 -64 -90 -22 -33
-48 -72 -57 -87 -9 -15 -27 -32 -39 -37 -13 -6 -23 -17 -23 -24 0 -7 -12 -37
-26 -66 -17 -33 -40 -61 -63 -75 -20 -13 -50 -43 -66 -67 -16 -24 -49 -66 -73
-92 -24 -26 -52 -68 -63 -93 -11 -24 -33 -59 -48 -77 -16 -18 -58 -78 -95
-133 -36 -56 -66 -106 -66 -111 0 -5 -8 -18 -17 -29 -10 -10 -36 -42 -57 -69
-22 -28 -54 -66 -72 -85 -17 -19 -44 -66 -59 -105 -15 -38 -39 -90 -53 -115
-14 -25 -42 -65 -62 -90 -20 -25 -48 -67 -62 -95 -14 -27 -38 -75 -53 -105
-15 -30 -46 -91 -67 -135 -22 -44 -49 -103 -59 -132 -11 -28 -26 -56 -34 -63
-8 -6 -19 -28 -26 -48 -6 -20 -21 -50 -32 -65 -11 -16 -30 -61 -44 -100 -13
-39 -32 -84 -43 -101 -10 -17 -24 -53 -31 -81 -6 -27 -20 -64 -30 -81 -11 -17
-19 -42 -19 -55 0 -13 -13 -52 -30 -87 -25 -53 -31 -80 -36 -170 -6 -102 -5
-111 20 -172 15 -36 36 -91 46 -124 10 -32 30 -75 44 -96 15 -23 53 -54 99
-81 l74 -45 184 -18 c173 -17 188 -17 244 -1 33 9 71 19 85 22 14 2 54 14 90
25 36 11 98 41 139 67 41 25 98 69 126 97 28 28 62 54 75 58 14 4 37 12 53 18
15 6 51 43 84 87 31 42 84 105 118 141 35 36 83 98 109 138 26 39 51 72 55 72
5 0 30 29 57 65 27 36 66 89 87 118 21 28 54 77 73 107 18 30 34 60 34 68 0 7
26 39 58 71 31 31 89 95 127 141 39 46 79 98 90 116 11 18 57 71 102 119 46
48 83 93 83 100 0 7 21 38 46 69 26 31 54 69 63 85 9 16 34 64 57 108 22 43
68 114 101 158 34 44 73 91 88 105 14 13 34 43 44 65 10 23 37 69 60 102 23
34 53 88 66 120 13 32 37 85 53 118 16 34 37 67 47 75 9 7 28 34 41 59 14 25
40 69 59 96 18 28 43 62 54 77 12 15 33 52 46 82 14 31 37 75 52 97 16 23 40
60 55 83 15 22 34 55 42 72 7 17 28 50 45 74 17 24 31 50 31 60 0 9 15 31 34
49 20 19 39 50 45 75 6 22 26 63 46 90 19 27 35 54 35 60 0 5 16 35 37 65 20
31 54 82 76 114 21 32 63 107 93 166 29 59 71 132 94 162 22 29 40 57 40 62 0
5 19 32 43 61 23 29 59 86 79 127 21 41 49 106 64 144 14 39 48 111 76 160 28
50 57 97 64 105 6 8 17 34 23 56 6 23 20 52 30 66 11 13 30 49 44 79 13 30 27
67 31 82 3 15 32 55 62 89 31 33 69 88 84 122 16 33 42 80 59 103 17 24 31 48
31 54 0 6 11 37 24 68 14 31 27 68 30 84 4 15 22 44 40 65 18 20 39 55 46 77
7 22 28 69 48 105 19 36 43 74 53 85 10 11 32 51 49 88 17 37 37 91 44 121 8
29 30 75 48 102 19 27 49 81 66 120 18 39 32 75 32 80 0 6 14 32 32 60 18 27
45 80 60 117 15 38 28 77 28 87 0 10 24 67 54 127 30 60 58 122 62 138 4 17
14 44 22 60 8 17 36 55 63 85 26 31 66 80 88 110 23 30 41 60 41 67 0 7 13 27
29 45 16 18 35 49 43 68 9 20 38 55 66 78 28 24 61 60 74 80 12 20 52 67 88
103 36 36 114 116 174 177 70 71 120 113 138 117 15 4 61 29 103 56 41 27 95
58 120 69 34 15 50 28 60 55 8 19 15 43 15 53 0 10 -9 28 -20 40 -12 12 -33
22 -48 22 -15 0 -43 -5 -63 -10 -22 -6 -55 -29 -80 -56 -24 -25 -60 -54 -79
-64 -19 -10 -54 -39 -78 -64 -24 -25 -55 -52 -70 -60 -15 -8 -56 -45 -92 -83
-47 -51 -74 -71 -100 -76 -22 -5 -38 -3 -46 5 -10 10 -10 21 0 49 7 20 32 65
54 99 23 34 48 83 56 109 8 27 23 65 34 87 11 22 25 59 32 84 6 25 47 118 91
207 43 89 79 169 79 177 0 8 11 28 25 44 14 17 25 34 25 39 0 6 14 29 31 52
20 29 34 63 40 103 5 33 16 72 23 87 7 14 16 39 20 55 4 16 23 66 43 110 19
45 57 126 84 181 26 55 66 155 89 222 22 68 40 129 40 136 0 8 12 32 27 53 15
21 38 62 51 89 14 28 33 73 42 101 10 28 30 70 44 92 14 23 26 45 26 49 0 5
21 51 46 103 25 52 57 118 70 145 13 28 42 109 64 180 23 72 70 189 105 262
35 72 81 187 103 255 22 67 47 141 57 163 9 22 30 85 47 140 16 55 37 113 46
130 9 16 31 53 49 80 21 32 38 76 47 120 7 39 24 97 36 129 12 33 30 76 40 97
11 20 24 58 30 84 6 25 19 65 29 88 11 23 32 80 47 126 15 47 35 99 44 115 12
21 19 62 23 126 3 52 11 109 18 125 6 17 15 75 19 130 4 55 15 141 26 192 16
80 17 103 6 172 -6 44 -19 92 -28 107 -10 14 -34 37 -53 50 -20 13 -47 32 -61
43 -16 12 -48 21 -90 24 -40 4 -81 1 -105 -7z m-2245 -6360 c0 -8 -10 -40 -22
-73 -12 -32 -27 -65 -35 -74 -7 -8 -13 -21 -13 -27 0 -6 -20 -64 -46 -129 -25
-65 -56 -137 -70 -161 -14 -23 -31 -61 -39 -85 -7 -23 -30 -80 -51 -127 -20
-47 -45 -96 -54 -110 -10 -14 -31 -55 -48 -92 -17 -37 -53 -101 -81 -143 -28
-41 -51 -79 -51 -83 0 -5 -13 -29 -29 -54 -16 -25 -32 -54 -35 -65 -3 -10 -30
-62 -59 -114 -28 -52 -64 -110 -79 -129 -14 -19 -30 -48 -34 -65 -4 -16 -22
-61 -41 -99 -19 -38 -45 -85 -58 -105 -12 -20 -28 -57 -35 -83 -7 -28 -24 -57
-41 -72 -16 -15 -29 -32 -29 -39 0 -7 -16 -36 -36 -65 -19 -29 -67 -120 -105
-203 -38 -82 -73 -157 -78 -167 -6 -9 -22 -42 -36 -72 -14 -30 -44 -86 -65
-125 -22 -38 -47 -86 -55 -105 -9 -19 -32 -66 -52 -105 -20 -38 -46 -83 -59
-100 -12 -16 -34 -55 -49 -85 -15 -30 -45 -74 -66 -97 -22 -24 -39 -52 -39
-63 0 -11 -7 -36 -15 -55 -8 -20 -35 -61 -61 -93 -26 -31 -53 -72 -61 -90 -8
-19 -31 -59 -52 -90 -21 -31 -48 -75 -59 -97 -11 -22 -30 -49 -42 -60 -12 -11
-42 -54 -67 -95 -24 -41 -68 -115 -98 -164 -30 -49 -65 -101 -79 -115 -14 -15
-35 -53 -46 -86 -11 -33 -31 -76 -44 -95 -13 -19 -36 -57 -52 -83 -16 -27 -44
-72 -61 -100 -18 -29 -42 -70 -53 -93 -10 -22 -34 -58 -51 -80 -17 -21 -49
-77 -71 -124 -21 -47 -54 -101 -73 -120 -18 -19 -59 -73 -90 -120 -31 -47 -67
-96 -80 -110 -13 -14 -37 -51 -55 -82 -17 -31 -61 -90 -97 -130 -36 -40 -83
-104 -105 -143 -22 -38 -49 -85 -61 -104 -12 -18 -55 -71 -94 -116 -40 -46
-80 -103 -89 -127 -10 -24 -43 -70 -74 -103 -31 -33 -76 -86 -101 -119 -24
-32 -54 -73 -67 -90 -12 -17 -59 -69 -105 -116 -45 -47 -96 -107 -112 -134
-17 -26 -36 -58 -42 -71 -7 -12 -34 -42 -61 -66 -27 -24 -81 -71 -121 -104
-40 -33 -90 -70 -112 -82 -22 -11 -57 -37 -77 -55 -32 -29 -57 -39 -153 -62
-62 -15 -142 -33 -176 -41 -34 -8 -80 -15 -102 -15 -22 0 -42 4 -45 9 -3 4
-32 18 -64 30 -32 11 -77 34 -99 50 -26 19 -54 55 -81 103 -22 40 -43 94 -47
118 -5 37 1 67 34 165 22 66 49 165 60 221 16 79 32 121 70 190 27 49 68 132
91 184 24 52 53 109 65 125 13 17 30 53 38 80 8 28 27 79 41 115 15 36 34 81
44 100 9 19 30 58 46 85 16 28 42 64 57 80 15 17 45 59 68 94 22 34 50 88 61
119 12 31 42 90 68 132 26 41 57 90 70 109 12 19 39 51 60 72 20 20 50 53 66
74 16 20 45 62 64 93 19 31 43 73 54 92 11 19 30 47 42 62 11 15 39 52 61 83
22 31 55 73 73 93 18 20 45 57 59 82 14 25 54 74 88 110 34 36 94 112 134 170
39 58 83 121 97 140 13 19 33 42 44 51 11 9 35 37 54 62 19 25 42 60 51 77 9
18 33 51 54 74 21 22 47 56 60 73 12 18 42 56 67 85 25 29 53 57 64 63 10 6
44 44 76 85 31 41 75 98 99 125 24 28 59 71 78 97 19 25 40 54 45 64 6 11 63
72 126 137 63 64 120 117 125 117 6 0 22 18 36 41 14 22 85 99 157 172 77 78
143 154 161 187 17 30 67 91 112 136 45 44 109 116 142 160 33 43 94 108 134
144 41 36 117 108 169 161 52 52 124 129 160 169 36 40 74 82 86 94 12 12 45
50 75 86 29 36 61 72 71 80 10 8 28 29 40 47 13 17 45 60 73 95 27 34 104 117
170 183 67 66 133 137 148 157 15 20 54 56 88 79 35 25 87 77 124 123 35 45
116 135 181 201 64 66 129 128 143 137 14 10 34 18 44 18 9 0 17 -6 17 -14z"/>
<path d="M32303 13199 c-26 -23 -51 -51 -54 -63 -3 -12 -14 -36 -23 -54 -13
-24 -32 -40 -77 -59 -44 -19 -68 -38 -93 -72 -19 -25 -55 -73 -80 -106 -26
-33 -74 -84 -108 -113 -34 -29 -66 -58 -70 -66 -4 -8 -67 -53 -138 -101 -72
-48 -136 -97 -142 -108 -6 -12 -73 -84 -150 -160 -76 -77 -158 -152 -182 -167
-24 -15 -56 -46 -72 -68 -15 -21 -51 -54 -79 -72 -27 -17 -88 -56 -135 -86
-46 -30 -123 -91 -172 -136 -48 -45 -101 -87 -119 -95 -17 -7 -49 -28 -69 -47
-21 -18 -55 -39 -76 -46 -22 -7 -48 -20 -59 -29 -11 -10 -47 -33 -80 -53 -33
-20 -75 -39 -92 -43 -18 -3 -37 -13 -41 -21 -5 -8 -41 -26 -82 -40 -40 -14
-89 -36 -109 -49 -20 -13 -63 -31 -96 -40 -53 -13 -65 -13 -111 0 -28 8 -58
22 -65 31 -8 10 -17 51 -20 93 -4 42 -16 116 -28 166 -12 49 -34 111 -49 138
-18 34 -38 55 -66 69 -33 17 -52 20 -108 15 -44 -4 -84 -14 -110 -29 -23 -13
-51 -39 -62 -58 -17 -28 -21 -55 -23 -149 l-2 -114 39 -76 c22 -42 58 -98 80
-125 27 -32 40 -58 40 -78 0 -16 -4 -38 -10 -48 -5 -10 -16 -60 -24 -112 -11
-72 -21 -107 -45 -145 -17 -27 -37 -68 -45 -89 -7 -22 -23 -57 -35 -79 -11
-22 -21 -48 -21 -58 0 -11 -8 -31 -19 -45 -10 -15 -21 -37 -25 -49 -4 -13 -22
-42 -41 -65 -19 -24 -43 -52 -54 -64 -12 -12 -21 -26 -21 -32 0 -6 -12 -25
-27 -43 -16 -18 -44 -57 -64 -86 -19 -30 -57 -79 -85 -109 -27 -31 -110 -117
-185 -192 -75 -75 -151 -147 -170 -159 -19 -12 -104 -58 -189 -103 -127 -66
-161 -80 -189 -76 -18 3 -44 12 -58 21 -14 9 -37 42 -51 73 -23 48 -27 70 -26
137 0 64 6 93 28 145 15 36 40 90 56 121 16 31 34 79 40 106 6 28 26 75 45
104 18 30 46 69 62 88 15 19 37 49 48 67 11 18 46 64 77 102 31 38 98 107 148
153 50 46 116 98 148 115 31 18 78 44 104 58 26 14 52 35 58 46 6 12 8 30 5
40 -4 11 -13 27 -22 35 -11 11 -25 14 -51 9 -21 -4 -62 -20 -92 -36 -30 -15
-80 -49 -110 -73 -30 -25 -71 -54 -90 -64 -19 -11 -55 -40 -80 -64 -25 -25
-69 -70 -99 -101 -30 -31 -58 -56 -62 -56 -5 0 -15 -13 -23 -28 -8 -16 -60
-75 -116 -133 l-101 -104 -18 24 c-14 18 -19 20 -24 9 -3 -8 -1 -21 4 -29 5
-8 9 -35 9 -60 0 -26 -7 -63 -15 -83 -8 -20 -22 -62 -31 -93 -8 -32 -19 -78
-24 -103 -5 -25 -16 -74 -24 -110 -7 -36 -17 -89 -21 -118 -4 -29 -2 -101 5
-160 9 -80 18 -118 36 -149 15 -26 42 -53 70 -69 42 -25 50 -26 127 -20 45 4
105 13 132 21 28 8 84 35 125 59 41 25 100 68 129 95 30 28 64 51 74 51 11 0
41 21 67 48 26 26 136 132 244 237 111 107 205 206 217 229 11 22 36 58 55 80
19 22 40 58 46 79 7 21 31 60 54 86 24 26 46 61 50 77 4 16 17 43 29 59 12 17
36 62 53 100 16 39 35 90 42 114 6 24 20 60 31 80 10 20 19 45 20 56 0 11 17
49 37 84 20 35 50 73 65 85 25 18 43 21 165 22 82 1 165 8 207 17 39 9 92 23
118 31 27 8 66 26 86 39 20 14 60 36 89 51 28 14 57 26 65 26 7 0 33 13 58 28
24 15 65 36 90 45 26 10 73 37 105 62 33 24 73 55 89 68 17 13 44 31 60 40 17
8 39 25 50 37 11 12 38 31 60 41 22 10 88 64 148 119 59 55 112 100 119 100 6
0 46 33 87 73 42 39 93 86 113 104 20 18 39 41 42 51 4 11 35 40 70 66 36 26
67 54 70 61 3 8 24 22 46 31 28 12 47 28 60 53 10 20 52 70 92 111 41 41 81
87 91 102 9 14 27 30 39 33 13 4 35 18 49 32 18 16 29 21 34 14 3 -6 -6 -35
-20 -64 -15 -28 -40 -70 -56 -92 -15 -22 -43 -67 -60 -100 -17 -33 -51 -82
-76 -108 -24 -26 -53 -68 -64 -93 -11 -25 -27 -48 -34 -50 -8 -3 -44 -50 -80
-104 -36 -54 -71 -114 -76 -134 -5 -19 -23 -46 -40 -60 -16 -14 -37 -42 -45
-62 -9 -21 -35 -56 -59 -80 -24 -23 -56 -66 -71 -95 -14 -30 -51 -90 -80 -134
-29 -44 -67 -100 -84 -124 -17 -24 -45 -69 -62 -100 -18 -31 -45 -73 -61 -94
-16 -21 -35 -58 -43 -83 -7 -25 -24 -59 -38 -75 -13 -15 -30 -45 -36 -65 -7
-20 -25 -60 -40 -90 -19 -36 -30 -74 -34 -121 -4 -37 -11 -105 -18 -150 -8
-63 -8 -100 1 -160 7 -43 17 -93 23 -111 5 -18 37 -64 71 -102 43 -51 81 -82
132 -110 40 -22 88 -43 106 -46 19 -4 68 -24 110 -45 72 -36 84 -38 195 -44
66 -4 166 -15 224 -25 58 -10 123 -22 145 -25 23 -3 61 -1 85 5 25 6 115 16
200 22 85 6 184 11 220 10 36 -1 110 5 165 13 55 8 154 17 220 20 66 4 172 18
235 32 63 13 147 29 185 35 39 5 111 7 160 5 50 -3 113 -10 141 -14 27 -5 63
-18 80 -30 16 -11 54 -31 84 -43 30 -13 62 -29 70 -35 8 -6 37 -20 63 -29 27
-10 57 -31 69 -47 13 -17 38 -33 60 -40 26 -7 40 -17 43 -32 3 -12 -1 -42 -10
-66 -8 -24 -15 -76 -15 -117 0 -49 -6 -90 -20 -124 -15 -39 -18 -63 -14 -108
6 -50 3 -65 -19 -107 -15 -28 -52 -76 -84 -108 -32 -32 -73 -72 -91 -90 -19
-18 -60 -68 -93 -112 -32 -43 -59 -85 -59 -91 0 -7 -20 -42 -45 -79 -24 -37
-73 -91 -107 -121 -35 -30 -79 -70 -98 -88 -19 -18 -66 -52 -105 -76 -38 -23
-81 -51 -95 -61 -14 -11 -43 -29 -65 -40 -22 -12 -57 -36 -77 -53 -20 -17 -62
-51 -94 -76 -31 -25 -71 -54 -89 -65 -18 -11 -54 -38 -80 -60 -25 -22 -72 -66
-103 -98 -31 -32 -74 -66 -96 -76 -23 -10 -66 -43 -97 -73 -30 -31 -70 -63
-88 -72 -18 -10 -60 -40 -94 -67 -34 -28 -82 -61 -107 -74 -25 -13 -56 -35
-69 -49 -14 -14 -29 -26 -33 -26 -5 0 -30 -14 -54 -31 -25 -17 -57 -34 -73
-39 -15 -4 -72 -37 -127 -72 -54 -36 -133 -84 -174 -108 -41 -24 -101 -60
-134 -79 -32 -20 -90 -56 -130 -80 -39 -24 -74 -50 -79 -57 -4 -7 -31 -20 -60
-28 -28 -9 -92 -43 -142 -76 -49 -32 -96 -60 -104 -60 -7 0 -30 -13 -50 -29
-20 -15 -54 -34 -75 -41 -22 -7 -63 -26 -92 -41 -29 -16 -59 -29 -67 -29 -9 0
-30 -12 -48 -27 -18 -16 -55 -40 -83 -54 -28 -14 -76 -39 -106 -55 -30 -16
-93 -44 -140 -63 -47 -18 -99 -45 -116 -60 -18 -14 -65 -46 -104 -71 -40 -25
-79 -51 -87 -58 -7 -7 -13 -27 -13 -43 0 -22 5 -30 25 -35 14 -3 47 -3 73 1
30 4 61 17 85 36 20 17 61 38 91 48 29 11 66 25 82 33 16 8 51 20 77 27 27 6
65 23 85 36 20 13 53 30 72 36 19 7 46 25 60 39 17 18 44 31 80 39 30 7 80 26
110 43 30 16 69 40 85 52 17 13 45 28 63 34 19 6 46 23 60 37 15 14 45 41 67
59 22 18 92 61 155 95 63 34 132 73 153 85 20 13 50 35 65 49 16 15 37 27 49
27 11 0 32 9 46 20 14 12 52 32 84 46 31 14 72 39 90 54 18 16 52 35 75 41 24
7 69 30 100 51 31 21 60 43 63 48 4 6 43 29 88 51 45 23 105 61 132 86 28 24
86 69 130 98 44 30 102 66 129 81 28 14 82 53 120 86 39 33 88 69 109 79 21
11 55 35 75 53 20 18 52 41 71 51 19 9 64 45 100 79 37 34 95 77 129 96 35 18
82 50 105 70 23 20 56 44 73 53 18 9 63 45 100 79 38 35 85 74 104 87 19 13
58 45 85 71 28 27 61 51 75 55 14 4 58 41 98 82 39 42 72 79 72 83 0 5 9 12
20 15 11 4 28 21 37 38 9 18 30 49 47 69 17 20 53 78 80 130 27 51 72 118 100
149 28 31 67 82 86 115 19 32 39 70 44 84 5 14 16 33 24 43 8 9 24 41 35 70
10 28 28 81 38 117 10 35 19 94 19 131 0 36 4 90 10 119 7 36 6 65 -1 96 -7
28 -23 54 -41 69 -16 14 -37 25 -47 25 -9 0 -42 15 -72 33 -30 18 -74 39 -99
47 -25 8 -72 34 -105 57 -33 23 -77 52 -97 63 -20 11 -43 28 -50 39 -8 11 -35
23 -68 29 -30 6 -154 13 -275 17 -187 5 -227 3 -270 -11 -36 -11 -115 -18
-285 -25 -129 -5 -255 -13 -280 -18 -25 -5 -81 -17 -125 -26 -44 -9 -142 -18
-218 -20 -76 -3 -146 -9 -155 -13 -9 -5 -91 -10 -182 -11 -154 -2 -171 0 -249
24 -55 18 -95 25 -115 21 -18 -3 -77 1 -131 9 -83 12 -104 19 -122 39 -11 14
-26 47 -32 73 -6 26 -22 70 -36 97 -14 27 -25 55 -25 61 0 7 -10 20 -21 31
-12 10 -28 34 -36 52 -10 24 -12 54 -7 110 3 42 17 111 29 152 13 41 26 104
30 140 5 50 18 88 57 165 37 73 71 123 127 185 43 47 86 99 96 115 11 17 34
47 52 68 19 21 44 61 57 90 12 29 47 77 76 107 29 30 59 68 66 85 7 16 37 56
68 88 38 39 61 74 73 110 13 37 34 68 74 107 31 30 66 71 79 90 13 19 40 54
59 78 20 23 55 63 77 90 23 26 46 63 53 82 6 19 27 55 46 79 19 24 35 50 35
57 0 7 11 25 24 41 12 15 35 51 51 78 15 28 52 88 83 135 30 47 63 104 73 128
11 24 32 57 48 72 16 16 39 51 52 77 13 26 25 73 27 105 4 47 0 64 -19 95 -13
21 -28 41 -33 45 -6 4 -25 8 -43 8 -23 0 -45 -11 -80 -41z"/>
<path d="M13135 12670 c-32 -13 -75 -20 -120 -20 -38 0 -104 -10 -145 -21 -41
-11 -98 -26 -126 -34 -28 -7 -73 -24 -100 -38 -27 -13 -74 -30 -104 -37 -30
-6 -72 -16 -92 -21 -21 -5 -59 -26 -85 -46 -26 -20 -84 -60 -128 -88 -44 -28
-116 -71 -160 -95 -44 -23 -91 -52 -105 -62 -14 -11 -47 -39 -75 -64 -27 -24
-81 -71 -119 -104 -37 -33 -72 -60 -76 -60 -5 0 -94 -84 -198 -187 -104 -104
-236 -231 -293 -285 -57 -53 -130 -117 -162 -143 -31 -25 -64 -59 -72 -75 -8
-16 -15 -40 -15 -53 0 -13 -8 -31 -17 -39 -10 -9 -35 -23 -55 -33 -21 -9 -75
-56 -119 -104 -45 -47 -104 -105 -131 -128 -26 -23 -64 -63 -84 -90 -20 -26
-56 -68 -80 -93 -24 -25 -68 -74 -97 -109 -28 -35 -68 -85 -87 -112 -19 -26
-68 -87 -109 -136 -41 -48 -109 -122 -151 -163 -42 -41 -87 -91 -101 -110 -14
-19 -33 -49 -42 -66 -9 -17 -39 -58 -66 -90 -28 -33 -62 -81 -75 -109 -13 -27
-46 -71 -72 -96 -27 -25 -62 -53 -76 -63 -18 -12 -32 -35 -42 -70 -9 -31 -39
-83 -75 -131 -32 -44 -77 -103 -99 -131 -21 -28 -55 -79 -75 -115 -20 -35 -45
-70 -57 -77 -11 -7 -20 -18 -20 -25 0 -7 -11 -35 -24 -63 -13 -27 -37 -78 -54
-114 -17 -36 -40 -91 -52 -122 -12 -32 -26 -60 -31 -64 -5 -3 -23 -33 -40 -67
-18 -34 -39 -73 -49 -87 -9 -14 -38 -88 -63 -166 -37 -109 -47 -154 -47 -205
0 -35 -5 -119 -12 -187 -9 -92 -9 -139 -1 -188 9 -51 19 -75 50 -112 21 -26
63 -73 93 -104 51 -54 61 -60 135 -79 44 -11 112 -20 150 -21 40 0 88 6 112
14 23 8 54 25 70 37 15 12 60 42 98 68 39 25 88 61 110 80 22 19 53 46 68 60
16 14 40 44 54 67 14 22 53 70 88 106 34 36 86 107 116 158 30 51 63 110 74
131 11 21 29 51 41 67 12 16 28 50 37 76 9 26 27 62 40 80 13 18 36 57 51 86
14 30 26 58 26 64 0 6 34 62 76 125 42 63 84 134 92 157 9 22 26 53 37 67 12
15 34 66 49 113 15 48 36 124 47 169 11 45 34 111 51 147 16 36 39 83 49 106
10 23 19 47 19 55 0 7 15 47 34 89 19 41 46 109 59 150 14 41 40 118 59 170
19 52 38 113 42 135 4 22 20 81 36 130 16 50 36 107 45 128 9 22 25 85 35 142
11 60 40 159 69 236 43 110 51 143 51 197 0 54 -5 72 -25 102 -15 22 -23 44
-19 53 3 10 10 17 15 17 5 0 60 51 121 113 62 61 138 141 168 177 31 36 67 81
80 100 13 19 54 65 90 101 36 36 72 70 81 75 9 5 63 53 121 106 57 53 115 106
130 117 14 12 36 41 48 65 20 42 29 48 148 106 84 40 142 76 172 104 25 24 80
65 123 91 43 25 133 72 200 104 90 43 138 59 184 64 35 4 96 15 137 26 68 18
97 19 315 14 156 -4 244 -10 250 -17 5 -6 14 -28 20 -48 7 -20 28 -57 47 -82
19 -25 38 -56 43 -69 6 -14 13 -101 16 -193 6 -140 4 -182 -10 -244 -9 -41
-23 -104 -30 -140 -7 -36 -16 -99 -20 -140 -3 -41 -16 -104 -27 -140 -12 -36
-31 -85 -43 -110 -12 -25 -38 -77 -58 -117 -20 -39 -41 -74 -46 -77 -5 -3 -27
-39 -49 -79 -21 -39 -47 -94 -56 -122 -9 -27 -32 -70 -52 -95 -20 -25 -77 -88
-127 -140 -51 -52 -129 -122 -174 -155 -45 -33 -97 -70 -115 -82 -18 -12 -55
-34 -83 -49 -45 -24 -53 -25 -95 -16 -25 6 -62 18 -83 27 -28 12 -43 27 -57
58 -11 23 -20 52 -20 65 0 12 9 40 19 60 10 21 40 56 65 78 33 29 61 44 99 52
28 6 92 18 140 28 49 9 99 25 112 36 18 14 25 29 25 54 0 19 -7 48 -15 63 -8
16 -28 34 -45 41 -21 9 -56 11 -106 7 -53 -4 -90 -13 -124 -31 -27 -14 -94
-70 -147 -124 -54 -54 -116 -124 -138 -156 -22 -32 -50 -73 -63 -91 -14 -20
-25 -54 -29 -88 -5 -45 -2 -64 16 -99 12 -24 50 -69 84 -101 34 -32 74 -65 89
-73 15 -8 61 -17 102 -21 74 -6 77 -5 221 52 80 32 155 68 168 80 12 13 41 45
65 73 23 27 62 62 85 76 23 15 62 54 87 88 25 33 62 86 83 116 21 31 59 81 85
112 27 30 62 77 80 103 18 26 32 52 32 56 0 5 15 31 33 57 18 27 44 85 56 129
13 44 30 92 37 107 8 15 21 58 30 95 8 37 25 88 36 113 12 25 36 103 55 174
31 122 33 137 33 304 0 97 -5 226 -11 287 -6 60 -16 119 -22 130 -6 11 -14 44
-18 74 -6 43 -15 61 -45 92 -21 21 -54 44 -73 50 -20 6 -52 28 -71 49 -20 21
-62 49 -96 64 -46 19 -78 26 -125 26 -39 -1 -84 -9 -114 -20z m-2155 -1706 c0
-20 -9 -67 -20 -103 -10 -36 -26 -99 -35 -140 -8 -41 -24 -88 -34 -105 -10
-17 -30 -85 -45 -151 -15 -66 -31 -140 -37 -165 -6 -25 -22 -72 -36 -105 -13
-33 -29 -68 -34 -78 -5 -9 -25 -60 -45 -112 -19 -52 -38 -112 -41 -132 -3 -21
-18 -66 -33 -100 -16 -34 -31 -76 -35 -93 -4 -18 -38 -114 -75 -214 -37 -101
-73 -194 -80 -207 -7 -13 -38 -55 -68 -92 -36 -46 -59 -86 -68 -120 -7 -28
-22 -58 -33 -67 -11 -8 -30 -53 -45 -103 -19 -61 -37 -99 -60 -125 -18 -20
-49 -61 -69 -91 -21 -30 -37 -65 -37 -81 0 -17 -13 -44 -35 -70 -19 -23 -35
-46 -35 -51 0 -5 -15 -31 -32 -58 -18 -26 -61 -84 -94 -127 -34 -44 -82 -118
-107 -164 -26 -47 -75 -121 -111 -166 -35 -44 -86 -98 -111 -119 -26 -21 -64
-44 -84 -51 -20 -7 -51 -13 -69 -14 -18 0 -54 11 -80 24 -26 13 -63 28 -83 35
-20 6 -47 24 -61 39 -13 15 -44 61 -69 102 l-44 75 0 132 c0 131 1 132 31 176
18 24 37 62 44 83 7 21 21 55 31 75 10 21 27 69 38 107 11 39 28 83 39 99 10
15 35 55 54 88 20 33 53 94 73 135 21 41 44 86 52 100 8 14 20 39 28 55 7 17
34 54 59 83 24 28 47 60 50 70 3 10 28 34 55 54 33 25 64 63 100 122 28 47 51
89 51 94 0 5 24 40 53 77 28 37 67 88 84 114 18 25 48 69 67 96 18 28 54 70
80 94 25 25 51 61 57 80 7 20 26 52 43 72 17 20 42 54 56 74 14 20 39 54 56
74 17 20 39 50 48 68 9 18 31 43 49 57 19 14 47 50 62 78 16 29 58 85 93 123
36 39 74 85 85 103 11 18 32 39 47 47 16 8 57 47 92 87 35 39 104 111 153 159
50 49 96 88 103 89 7 0 12 -14 12 -36z"/>
<path d="M23802 12520 c-38 -4 -70 -14 -82 -25 -11 -10 -38 -51 -60 -91 -22
-39 -40 -84 -40 -100 0 -16 -9 -61 -19 -99 -11 -39 -23 -93 -27 -122 -6 -49
-5 -54 25 -84 29 -29 35 -31 76 -24 25 3 65 15 89 26 25 10 64 38 88 62 29 29
61 80 101 162 35 71 61 138 64 167 5 40 2 54 -18 82 -13 19 -34 40 -47 45 -13
6 -37 10 -55 10 -18 -1 -60 -5 -95 -9z"/>
<path d="M29749 10272 c-20 -15 -71 -45 -113 -66 -61 -31 -94 -58 -160 -127
-51 -54 -118 -112 -172 -148 -49 -32 -114 -83 -145 -112 -31 -30 -83 -72 -115
-94 -33 -22 -102 -82 -156 -132 -53 -51 -101 -93 -106 -93 -6 0 -41 -31 -79
-68 -37 -37 -76 -79 -85 -93 -9 -14 -30 -32 -46 -40 -16 -8 -76 -66 -134 -129
-58 -63 -116 -121 -129 -128 -13 -7 -51 -47 -84 -88 -33 -41 -85 -105 -115
-142 -31 -37 -84 -107 -120 -157 -35 -49 -78 -107 -97 -127 -18 -21 -36 -50
-39 -65 -4 -16 -22 -45 -40 -66 -19 -20 -34 -41 -34 -46 0 -5 -16 -29 -36 -53
-19 -23 -49 -59 -65 -78 -17 -19 -48 -62 -70 -95 -22 -33 -50 -76 -64 -95 -13
-19 -37 -52 -52 -73 -15 -22 -37 -52 -48 -67 -11 -16 -35 -53 -54 -84 -18 -30
-48 -67 -66 -81 -19 -14 -37 -35 -41 -47 -4 -13 -17 -36 -30 -51 -13 -16 -24
-36 -24 -46 0 -9 -16 -32 -35 -51 -19 -19 -35 -41 -35 -50 0 -8 -21 -46 -47
-82 -27 -37 -73 -104 -103 -148 -30 -44 -68 -99 -85 -121 -16 -23 -42 -57 -57
-77 -15 -21 -33 -54 -40 -76 -6 -21 -18 -40 -25 -43 -8 -3 -21 -20 -30 -37 -8
-17 -30 -49 -48 -71 -17 -22 -40 -62 -50 -90 -10 -27 -31 -65 -47 -83 -15 -18
-28 -41 -28 -52 0 -10 -5 -31 -12 -45 -6 -14 -14 -25 -18 -25 -4 0 -21 -23
-40 -51 -18 -28 -39 -72 -47 -97 -8 -26 -15 -73 -14 -105 1 -55 -2 -61 -51
-124 -28 -37 -59 -87 -68 -112 -11 -28 -27 -51 -42 -58 -13 -7 -38 -29 -54
-50 -17 -21 -43 -64 -57 -95 -15 -31 -27 -72 -27 -92 0 -19 7 -42 16 -50 8 -9
24 -16 34 -16 10 0 30 4 44 9 13 6 43 35 66 66 23 31 45 68 50 83 5 15 11 39
14 54 4 15 20 43 36 61 16 19 39 56 50 83 16 36 21 66 19 118 l-2 69 37 19
c20 10 55 38 77 61 23 22 49 58 60 79 10 20 19 46 19 56 0 10 12 38 28 63 15
24 42 73 60 109 18 36 41 76 51 90 10 14 37 57 61 95 24 39 67 106 95 150 29
44 64 103 79 130 14 28 44 73 66 100 22 28 56 84 76 125 20 41 55 96 78 122
22 25 50 59 62 75 12 15 31 48 44 73 12 25 48 74 80 110 31 36 66 85 77 110
11 25 41 79 68 119 26 41 56 94 66 118 10 24 22 43 27 43 5 0 29 16 54 36 35
26 48 44 53 72 4 20 22 53 41 74 19 21 34 44 34 52 0 8 11 27 24 43 13 15 30
44 38 63 9 20 48 70 89 111 41 41 96 100 123 129 27 30 58 68 67 85 10 16 34
42 53 58 20 15 62 62 94 105 33 43 123 143 200 222 77 80 148 153 159 162 10
10 61 57 113 106 52 48 122 106 155 127 38 24 76 60 102 96 25 34 58 66 81 78
21 11 63 44 93 74 30 30 68 61 84 70 17 8 70 55 120 103 49 48 102 92 117 98
15 7 59 36 97 66 38 30 75 66 81 80 7 14 21 42 31 63 11 21 17 42 14 47 -3 6
-14 10 -23 10 -9 0 -33 -13 -53 -28z"/>
<path d="M26110 9899 c-19 -12 -52 -40 -74 -63 -21 -22 -47 -59 -57 -81 -14
-30 -19 -64 -19 -138 0 -70 5 -109 16 -133 9 -19 35 -45 62 -61 26 -16 61 -36
78 -45 17 -10 55 -21 85 -26 34 -5 88 -4 144 4 50 6 102 16 117 22 14 6 37 26
51 44 13 18 29 42 34 53 6 11 13 35 16 53 5 25 2 37 -15 54 -19 19 -27 20 -97
14 -42 -4 -92 -9 -113 -10 -20 -2 -42 0 -48 4 -9 5 -10 18 -5 41 4 19 8 63 9
99 0 46 -5 77 -19 105 -13 24 -35 48 -60 62 -22 12 -47 23 -55 23 -8 0 -31
-10 -50 -21z"/>
<path d="M12175 9475 c-27 -7 -77 -16 -110 -20 -33 -4 -75 -14 -94 -23 -18 -8
-46 -33 -62 -55 -23 -31 -29 -51 -29 -90 0 -38 6 -58 26 -84 14 -18 44 -43 67
-55 33 -17 59 -21 124 -21 69 1 89 5 132 29 28 15 70 43 93 63 22 19 49 53 59
75 10 23 19 52 18 66 0 14 -6 33 -13 42 -7 10 -39 33 -71 53 -33 19 -66 35
-74 34 -9 0 -38 -6 -66 -14z"/>
<path d="M29617 6232 c-15 -15 -27 -33 -27 -40 0 -6 -17 -14 -37 -17 -21 -4
-44 -8 -50 -10 -7 -3 -13 -16 -13 -30 0 -20 5 -25 26 -25 16 0 37 12 54 30 24
26 35 30 79 30 43 0 53 4 68 26 12 19 14 30 6 43 -5 9 -25 17 -44 19 -27 2
-40 -3 -62 -26z"/>
<path d="M29065 5966 c-18 -13 -17 -14 9 -31 25 -17 29 -17 43 -2 13 13 14 19
3 31 -7 9 -18 16 -24 16 -7 0 -21 -6 -31 -14z"/>
<path d="M28875 5881 c-6 -5 -39 -18 -75 -29 -36 -12 -96 -32 -133 -46 -37
-14 -80 -35 -96 -47 -15 -11 -43 -24 -62 -29 -19 -5 -69 -23 -113 -41 -43 -18
-93 -47 -110 -64 -17 -17 -42 -36 -56 -42 -14 -7 -56 -21 -94 -33 -41 -12
-123 -24 -203 -30 -73 -5 -197 -17 -274 -25 -114 -14 -200 -15 -462 -10 -177
3 -335 6 -352 5 -16 0 -147 -2 -290 -3 -215 -3 -265 -1 -290 12 -19 9 -60 15
-110 15 -57 0 -93 -5 -126 -19 -44 -18 -49 -18 -135 -2 -49 9 -143 17 -209 18
-66 1 -285 -1 -488 -4 -239 -4 -405 -11 -475 -21 -59 -8 -179 -20 -267 -25
-88 -6 -236 -13 -330 -16 -93 -3 -222 -10 -285 -16 -63 -6 -164 -17 -224 -25
-60 -8 -219 -19 -355 -25 -135 -5 -273 -14 -306 -19 -33 -6 -94 -14 -135 -20
-41 -5 -177 -14 -302 -19 -125 -5 -232 -12 -238 -16 -5 -3 -110 -10 -233 -15
-122 -5 -249 -15 -282 -22 -33 -6 -114 -12 -180 -13 -66 -1 -185 -7 -265 -13
-80 -7 -167 -16 -195 -21 -27 -5 -108 -14 -180 -20 -71 -6 -179 -16 -240 -22
-60 -6 -184 -15 -275 -19 -99 -5 -185 -15 -214 -24 -27 -9 -82 -16 -122 -16
-40 0 -162 -11 -271 -25 -109 -14 -245 -26 -303 -26 -74 0 -124 -6 -170 -19
-36 -11 -139 -29 -230 -40 -91 -12 -196 -28 -233 -36 -38 -8 -87 -14 -110 -14
-23 0 -58 -5 -77 -10 -19 -6 -75 -17 -125 -26 -49 -8 -135 -22 -190 -30 -55
-7 -127 -14 -160 -14 -33 0 -107 -6 -165 -14 -58 -8 -155 -19 -216 -25 -66 -6
-132 -18 -163 -30 -28 -12 -73 -21 -99 -21 -26 -1 -65 -8 -87 -16 -22 -8 -128
-23 -235 -35 -112 -11 -219 -28 -250 -38 -30 -11 -91 -26 -135 -34 -44 -9
-105 -19 -135 -22 -30 -4 -89 -15 -132 -26 -42 -10 -93 -19 -114 -19 -21 0
-67 -7 -103 -15 -36 -9 -103 -25 -148 -35 -45 -11 -107 -20 -136 -20 -30 0
-74 -7 -98 -16 -24 -8 -83 -20 -131 -25 -49 -6 -112 -17 -140 -25 -29 -8 -129
-27 -223 -44 -93 -16 -196 -39 -227 -50 -32 -11 -69 -20 -83 -20 -13 0 -71
-13 -127 -30 -57 -16 -148 -39 -203 -50 -55 -11 -139 -29 -187 -39 -47 -11
-111 -28 -141 -39 -29 -11 -93 -30 -140 -41 -48 -11 -117 -25 -154 -31 -36 -6
-118 -27 -182 -46 -64 -19 -132 -41 -152 -49 -20 -7 -80 -21 -135 -30 -54 -10
-110 -23 -124 -30 -14 -7 -79 -29 -145 -49 -68 -21 -141 -36 -168 -36 -33 0
-65 -9 -107 -30 -33 -16 -103 -40 -157 -51 -54 -12 -138 -37 -187 -56 -48 -19
-143 -48 -210 -65 -66 -16 -126 -34 -132 -39 -6 -5 -42 -18 -80 -28 -38 -10
-91 -28 -119 -39 -27 -12 -114 -42 -193 -66 -79 -25 -157 -52 -175 -60 -18 -8
-79 -27 -137 -41 -58 -15 -132 -37 -165 -50 -33 -13 -80 -35 -105 -49 -25 -13
-67 -28 -95 -31 -27 -4 -75 -20 -105 -36 -30 -15 -95 -40 -145 -55 -49 -14
-112 -39 -140 -54 -27 -15 -76 -35 -107 -44 -32 -9 -80 -21 -106 -26 -27 -5
-101 -37 -163 -71 -63 -34 -134 -68 -158 -76 -25 -7 -52 -20 -62 -29 -9 -8
-40 -21 -69 -29 -29 -8 -69 -25 -89 -39 -20 -14 -65 -35 -99 -47 -34 -11 -76
-32 -94 -45 -18 -13 -51 -33 -73 -43 -22 -11 -69 -24 -104 -30 -39 -6 -80 -21
-105 -37 -23 -15 -80 -66 -127 -113 l-85 -86 -23 -99 c-19 -81 -21 -106 -12
-135 6 -20 29 -61 51 -91 22 -30 54 -76 71 -102 17 -26 61 -74 99 -107 57 -48
79 -61 117 -67 26 -4 63 -13 81 -21 18 -8 73 -18 120 -24 48 -5 112 -17 142
-25 30 -8 73 -25 95 -37 27 -14 67 -23 125 -27 47 -4 139 -21 205 -38 66 -17
154 -38 195 -47 41 -8 122 -19 180 -25 58 -5 177 -12 265 -14 88 -3 176 -10
195 -17 20 -6 101 -13 185 -14 83 -2 245 -8 360 -15 116 -6 442 -14 725 -16
486 -4 520 -4 621 16 71 13 147 20 232 20 69 0 137 4 152 10 14 5 103 13 198
16 119 4 200 13 262 27 67 15 129 21 245 22 85 1 193 7 240 13 47 7 135 18
195 27 61 8 205 26 320 41 116 14 244 35 285 46 48 13 129 23 225 29 83 4 188
13 235 19 47 6 101 15 120 21 19 5 60 14 90 20 30 5 129 14 220 19 116 7 181
15 221 28 30 11 84 23 119 27 36 4 82 14 104 21 21 8 75 14 120 14 45 0 97 5
116 10 19 6 80 17 135 25 55 8 134 21 175 29 41 8 104 22 140 30 36 9 85 16
110 16 25 0 83 7 130 14 47 8 132 21 190 30 58 9 152 26 210 38 58 11 159 33
225 49 66 16 170 33 230 39 61 7 166 22 235 36 69 13 166 33 215 43 50 11 131
25 180 31 50 7 163 30 253 51 89 22 190 42 225 45 34 4 121 21 192 40 72 18
159 36 195 40 36 4 76 12 90 19 14 7 52 16 85 20 33 4 86 16 117 27 32 11 70
18 85 15 14 -3 52 1 82 9 31 8 83 28 116 44 33 17 85 34 115 40 30 5 64 14 75
19 11 5 49 16 85 25 36 8 83 18 105 22 22 3 65 14 95 24 30 10 72 26 92 34 21
9 66 16 100 16 49 0 82 8 146 35 46 19 105 37 130 40 26 4 79 16 117 27 39 12
111 31 160 43 50 13 115 30 145 39 30 9 102 28 160 42 58 14 134 34 170 45 36
11 70 19 77 19 7 0 54 14 105 30 51 17 113 35 137 41 24 5 56 18 70 28 14 10
58 27 96 38 39 12 87 24 107 27 21 4 61 17 90 30 29 13 73 28 98 34 25 6 70
20 100 31 30 11 67 20 81 21 14 0 34 7 45 15 10 8 27 15 36 15 10 0 34 9 55
20 21 11 92 29 158 40 66 11 143 25 170 31 28 7 62 18 76 25 15 7 61 22 103
34 42 11 111 25 152 31 56 8 97 22 161 55 48 25 99 44 117 44 17 0 47 11 66
24 19 13 97 51 173 84 75 34 156 66 178 72 23 6 66 24 97 40 32 16 71 32 87
35 17 4 39 13 50 19 11 7 57 25 101 40 45 15 113 42 150 61 38 19 75 35 83 35
7 0 30 13 50 29 20 16 70 39 111 51 41 13 97 25 123 27 26 3 58 2 70 -1 17 -4
26 -18 36 -53 7 -26 15 -88 18 -138 2 -49 14 -119 25 -155 11 -36 29 -90 40
-120 11 -30 28 -78 39 -105 10 -28 19 -67 19 -88 0 -30 8 -46 40 -81 28 -30
43 -57 47 -83 3 -21 17 -53 30 -70 13 -18 30 -52 37 -75 7 -24 34 -80 60 -126
26 -45 63 -105 84 -132 20 -27 48 -70 62 -96 14 -27 38 -67 53 -91 15 -23 32
-45 38 -48 5 -4 18 -23 29 -43 10 -20 37 -56 59 -80 22 -24 54 -66 72 -95 18
-29 61 -82 96 -120 35 -37 63 -71 63 -76 0 -4 17 -20 38 -35 21 -14 50 -46 66
-70 15 -24 93 -104 172 -177 80 -72 164 -144 187 -159 23 -15 56 -42 73 -61
18 -19 59 -55 91 -81 33 -26 72 -52 87 -58 15 -5 54 -33 85 -60 32 -28 62 -50
67 -50 6 0 35 -21 66 -48 31 -26 110 -74 175 -106 65 -33 131 -70 146 -83 16
-12 34 -23 41 -23 7 0 34 -11 62 -24 27 -13 72 -34 101 -46 28 -12 59 -30 69
-41 9 -10 36 -24 58 -30 22 -6 53 -20 67 -30 15 -10 34 -19 42 -19 9 0 35 -9
60 -19 25 -11 48 -24 51 -29 3 -6 28 -18 54 -27 26 -10 85 -33 132 -53 47 -19
92 -39 100 -43 8 -4 49 -18 90 -32 41 -14 118 -39 171 -56 53 -17 125 -36 160
-41 35 -5 100 -18 144 -29 44 -12 109 -21 145 -21 38 0 89 -8 120 -19 30 -10
91 -26 135 -34 44 -9 127 -23 185 -31 58 -9 126 -16 152 -16 27 0 74 -9 105
-19 32 -11 90 -22 128 -26 39 -3 99 -13 135 -21 36 -9 126 -18 199 -20 74 -2
168 -8 208 -14 41 -5 174 -15 296 -20 122 -6 247 -15 277 -20 30 -5 116 -8
190 -5 74 3 194 5 265 6 72 0 167 -4 211 -10 68 -10 95 -9 158 4 45 9 114 15
173 13 54 -1 233 5 398 14 165 9 318 21 340 27 22 6 76 11 120 11 44 1 105 6
135 11 30 6 116 16 190 24 74 7 198 25 275 40 77 15 178 30 225 35 47 4 112
15 145 24 32 9 86 16 120 17 33 0 96 7 140 14 44 8 114 20 155 25 41 6 109 21
150 34 41 13 113 27 160 31 47 4 101 15 120 25 19 9 68 25 109 34 40 9 86 16
102 16 15 0 70 14 121 30 51 17 128 38 172 46 43 8 149 40 235 70 86 31 174
60 195 65 21 5 91 35 154 66 64 31 150 69 191 84 42 15 113 40 158 56 52 19
97 43 123 66 22 21 46 37 53 37 8 0 45 10 83 21 38 12 84 33 102 46 18 14 68
40 110 60 42 19 91 41 109 49 17 8 38 14 46 14 8 0 31 11 52 25 20 14 54 32
74 38 20 7 48 23 61 36 14 12 50 38 80 58 30 19 72 41 93 49 21 7 50 22 65 32
15 11 37 23 50 26 12 4 30 18 38 32 9 13 22 24 30 24 7 0 39 29 70 65 32 36
66 65 75 65 11 0 35 23 57 53 20 28 45 64 54 78 10 15 30 29 48 32 17 4 42 19
55 34 14 16 38 42 54 58 16 17 35 41 41 55 7 14 41 57 74 95 34 39 76 91 93
116 18 26 37 58 42 71 5 13 21 38 35 55 15 17 42 71 62 119 28 69 36 105 40
178 3 54 -1 144 -10 221 -8 72 -21 158 -29 193 -7 34 -23 72 -33 85 -11 12
-32 40 -46 63 -14 22 -55 66 -90 97 -34 31 -94 84 -132 117 -38 34 -82 68 -98
76 -15 8 -35 28 -44 45 -8 17 -37 51 -62 75 -26 25 -65 54 -87 66 -22 11 -55
32 -74 46 -18 14 -54 29 -78 33 -24 5 -65 23 -91 41 -26 18 -73 56 -104 85
-31 29 -70 56 -85 59 -15 4 -77 31 -138 59 -60 29 -122 65 -137 81 -15 16 -38
39 -50 51 -13 12 -48 33 -78 47 -30 13 -84 27 -120 31 -36 4 -74 13 -86 20
-12 8 -50 19 -85 25 -35 6 -74 18 -87 26 -13 9 -32 24 -43 35 -10 10 -26 19
-35 19 -9 0 -50 10 -92 22 -43 12 -88 29 -102 38 -14 10 -77 42 -140 73 -66
32 -158 66 -217 81 -56 15 -121 35 -145 45 -24 11 -79 24 -123 29 -44 6 -101
20 -125 31 -25 11 -50 21 -57 21 -7 0 -37 11 -68 25 -30 14 -85 30 -122 34
-38 5 -103 21 -146 35 -43 14 -95 26 -117 26 -22 0 -86 9 -143 19 -56 11 -138
25 -182 31 -44 7 -100 20 -125 30 -25 10 -81 21 -124 25 -44 3 -115 15 -158
25 -71 17 -87 17 -160 6 -45 -7 -95 -10 -112 -6 -18 4 -41 12 -53 18 -12 7
-36 12 -53 12 -18 0 -71 6 -119 14 -47 8 -162 20 -256 26 -93 6 -240 15 -325
20 -85 5 -227 14 -315 21 -88 6 -223 13 -300 15 -77 2 -180 11 -230 20 -50 9
-137 16 -197 15 -59 0 -187 6 -285 15 -98 8 -279 17 -403 20 -124 2 -247 8
-275 13 -27 5 -183 8 -345 7 -162 -2 -437 -8 -610 -15 -173 -7 -396 -9 -495
-6 -99 3 -234 11 -300 17 -66 7 -151 11 -190 10 -38 -2 -185 -7 -325 -12 -140
-5 -340 -14 -445 -20 -104 -6 -221 -12 -260 -13 -64 -2 -70 0 -73 19 -2 16 6
24 35 37 21 8 52 23 68 33 17 9 38 21 47 26 10 4 24 8 31 8 8 0 32 12 53 27
21 14 57 32 79 39 22 7 58 22 80 34 22 11 60 32 85 45 25 14 55 37 68 51 12
14 22 36 22 50 0 18 -5 24 -23 24 -13 0 -27 -4 -32 -9z m1151 -542 c134 -8
247 -9 340 -3 76 5 173 6 214 2 41 -5 376 -10 744 -13 415 -2 698 -8 745 -15
42 -6 99 -18 126 -27 28 -8 115 -19 195 -25 80 -5 222 -11 315 -13 94 -2 211
-9 260 -14 50 -6 133 -11 185 -11 52 0 137 -7 190 -14 52 -8 163 -20 245 -26
83 -6 211 -15 285 -20 74 -5 158 -15 185 -21 28 -7 106 -16 175 -20 69 -4 213
-14 320 -22 150 -11 207 -20 248 -36 35 -14 75 -21 118 -21 36 0 101 -9 144
-20 44 -11 107 -33 142 -49 46 -21 97 -33 193 -46 99 -13 146 -24 195 -47 51
-24 86 -32 165 -39 76 -6 116 -15 170 -38 39 -17 81 -31 94 -31 13 0 75 -20
137 -45 62 -24 130 -54 151 -65 21 -11 44 -20 51 -20 8 0 44 -13 82 -30 37
-16 97 -36 132 -45 34 -8 104 -26 153 -40 50 -14 113 -37 141 -50 28 -14 84
-32 125 -41 42 -10 100 -32 134 -52 33 -19 89 -54 125 -77 36 -23 92 -58 125
-77 33 -20 82 -45 109 -57 26 -11 64 -34 82 -51 19 -16 41 -30 49 -30 8 0 30
-14 49 -31 19 -16 54 -40 78 -53 24 -12 48 -32 53 -43 6 -12 17 -28 25 -38 7
-9 39 -29 70 -45 31 -16 62 -36 70 -45 7 -9 28 -22 46 -30 18 -7 53 -39 78
-71 27 -35 47 -73 51 -95 4 -21 23 -60 42 -86 20 -26 51 -64 69 -83 24 -26 37
-53 49 -104 10 -47 25 -80 46 -103 28 -33 30 -38 23 -90 -4 -31 -24 -105 -44
-167 -21 -61 -50 -143 -65 -183 -17 -45 -45 -93 -76 -129 -28 -34 -60 -86 -76
-126 -21 -54 -37 -78 -74 -109 -29 -24 -66 -71 -95 -122 -26 -45 -59 -95 -74
-112 -14 -16 -38 -46 -53 -66 -20 -28 -35 -38 -65 -43 -27 -4 -55 -20 -90 -51
-27 -24 -55 -58 -62 -75 -8 -19 -27 -38 -51 -49 -21 -10 -49 -16 -62 -14 -18
4 -28 -1 -36 -15 -6 -11 -30 -27 -53 -37 -24 -9 -52 -25 -63 -35 -11 -10 -67
-42 -125 -73 -58 -30 -118 -57 -134 -61 -17 -4 -41 -15 -55 -25 -14 -10 -49
-26 -78 -35 -28 -10 -63 -26 -76 -36 -13 -11 -62 -35 -108 -55 -46 -19 -97
-43 -114 -52 -16 -8 -50 -26 -75 -39 -25 -12 -74 -36 -110 -52 -36 -17 -83
-36 -105 -43 -22 -6 -49 -18 -60 -25 -11 -7 -78 -26 -148 -43 -71 -18 -174
-47 -230 -66 -56 -20 -136 -45 -177 -56 -41 -12 -102 -25 -135 -29 -33 -5
-100 -22 -150 -38 -49 -17 -139 -42 -200 -57 -60 -15 -137 -33 -170 -40 -33
-7 -114 -28 -180 -48 -73 -21 -163 -39 -230 -46 -60 -6 -139 -20 -173 -31 -35
-11 -100 -24 -145 -30 -45 -5 -104 -17 -132 -26 -27 -9 -88 -17 -135 -19 -47
-2 -137 -8 -200 -15 -63 -6 -144 -16 -180 -22 -36 -5 -85 -13 -110 -17 -25 -3
-98 -2 -164 2 -78 5 -129 4 -149 -2 -16 -6 -64 -11 -106 -11 -42 0 -100 -7
-130 -15 -30 -8 -95 -17 -145 -20 -50 -3 -230 -7 -401 -10 -170 -2 -345 -9
-387 -16 -65 -9 -88 -9 -145 4 -37 9 -111 19 -163 23 -52 4 -203 8 -335 9
-132 2 -260 8 -285 13 -25 6 -119 11 -210 12 -91 0 -217 7 -280 15 -63 8 -152
21 -198 30 -45 8 -90 19 -100 23 -9 5 -60 19 -112 30 -52 11 -126 24 -164 27
-38 3 -107 15 -153 25 -55 13 -120 20 -191 20 -67 0 -128 6 -162 16 -30 9 -77
20 -105 25 -27 5 -75 17 -105 28 -30 10 -111 26 -179 36 -69 9 -136 22 -150
29 -14 8 -48 17 -76 21 -27 3 -75 19 -105 35 -30 15 -66 33 -80 38 -14 6 -62
27 -106 46 -45 20 -85 36 -89 36 -5 0 -40 15 -79 34 -39 19 -111 53 -160 75
-49 23 -97 41 -107 41 -10 0 -24 9 -33 21 -8 12 -50 35 -94 53 -43 18 -103 48
-133 68 -30 19 -63 38 -74 42 -11 3 -60 44 -110 91 -49 47 -96 85 -105 85 -9
0 -44 21 -79 47 -34 27 -86 63 -114 81 -29 18 -64 36 -79 39 -16 3 -60 37
-103 79 -41 41 -79 74 -85 74 -5 0 -30 31 -54 69 -25 38 -61 82 -82 98 -20 15
-44 36 -53 46 -9 9 -64 66 -122 125 -58 59 -116 124 -130 145 -13 21 -45 51
-72 67 -30 20 -53 43 -64 68 -10 20 -39 62 -65 94 -27 31 -54 71 -60 90 -6 18
-33 65 -58 103 -26 39 -55 77 -64 84 -8 7 -18 29 -22 47 -3 19 -30 71 -60 115
-29 45 -60 105 -69 137 -8 31 -31 89 -50 127 -20 39 -35 75 -35 81 0 7 -17 38
-39 70 -23 36 -45 86 -56 128 -9 38 -21 81 -27 95 -5 14 -14 64 -18 111 -5 51
-19 110 -34 146 -15 36 -27 91 -31 135 -4 52 -2 81 7 99 11 20 30 29 90 45 42
11 82 25 89 31 8 6 37 27 66 47 28 20 96 59 150 86 54 28 104 51 110 51 6 0
24 10 40 23 15 12 57 37 93 54 36 17 103 48 150 68 47 20 101 45 120 55 19 11
71 37 114 59 43 22 86 47 96 56 9 8 23 15 32 15 8 0 35 14 60 30 26 17 74 42
108 56 34 14 79 37 101 51 21 14 39 30 39 34 0 5 24 24 53 42 28 19 72 41 97
51 25 10 54 26 65 36 11 9 36 22 55 28 19 6 97 16 172 22 76 6 150 15 165 21
16 6 50 15 77 20 36 7 83 5 170 -7 114 -16 129 -16 267 1 83 10 162 15 185 11
21 -4 98 -11 169 -15 95 -6 150 -4 203 5 40 8 145 19 235 25 89 6 185 8 212 5
28 -3 73 -2 100 3 28 5 70 8 95 5 25 -2 135 -9 246 -15z m-4127 -24 c9 -9 14
-48 15 -136 2 -103 -1 -140 -21 -219 -13 -52 -28 -142 -34 -200 -5 -58 -12
-112 -15 -121 -2 -9 0 -63 5 -120 7 -77 7 -110 -2 -128 -7 -13 -23 -33 -38
-43 -14 -11 -56 -23 -95 -29 -38 -5 -112 -23 -164 -41 -52 -17 -109 -38 -127
-45 -17 -7 -34 -13 -39 -13 -4 0 -15 -6 -23 -14 -9 -8 -50 -28 -91 -44 -41
-17 -95 -36 -120 -43 -25 -7 -57 -23 -71 -36 -14 -13 -43 -28 -65 -34 -21 -6
-55 -21 -74 -34 -19 -13 -64 -28 -99 -34 -39 -6 -81 -22 -110 -40 -25 -17 -79
-41 -118 -54 -40 -14 -89 -38 -110 -55 -21 -16 -52 -37 -70 -46 -17 -8 -76
-21 -130 -27 -54 -6 -123 -19 -153 -30 -30 -11 -82 -29 -115 -40 -33 -11 -87
-28 -120 -39 -33 -11 -82 -25 -110 -31 -27 -6 -75 -14 -105 -19 -33 -5 -75
-20 -105 -39 -28 -17 -79 -37 -115 -45 -36 -8 -112 -26 -170 -41 -58 -14 -114
-30 -125 -35 -11 -5 -44 -16 -74 -25 -30 -8 -64 -15 -75 -15 -12 0 -38 -9 -59
-20 -21 -12 -62 -25 -90 -31 -29 -5 -95 -23 -147 -40 -52 -16 -140 -39 -195
-50 -55 -12 -108 -25 -117 -30 -10 -5 -44 -14 -75 -20 -32 -5 -105 -25 -163
-44 -58 -18 -119 -36 -137 -40 -18 -3 -44 -16 -59 -28 -22 -17 -47 -23 -123
-28 -71 -5 -124 -16 -206 -44 -60 -20 -132 -43 -160 -50 -27 -8 -86 -27 -131
-43 -44 -17 -103 -33 -130 -37 -27 -4 -76 -15 -109 -25 -33 -10 -85 -25 -115
-33 -30 -9 -86 -18 -123 -22 -38 -3 -85 -12 -105 -19 -21 -8 -50 -19 -67 -24
-16 -6 -82 -27 -145 -46 -63 -19 -135 -38 -160 -41 -25 -4 -77 -13 -117 -21
-40 -8 -91 -14 -115 -14 -24 0 -86 -9 -138 -21 -52 -11 -138 -31 -190 -44 -52
-13 -133 -35 -180 -49 -47 -15 -130 -31 -185 -36 -55 -5 -125 -14 -155 -19
-30 -5 -84 -14 -119 -21 -36 -6 -90 -20 -121 -30 -32 -11 -82 -23 -111 -29
-30 -5 -97 -19 -149 -31 -52 -13 -113 -24 -135 -25 -22 -1 -51 -8 -65 -15 -13
-7 -90 -19 -170 -26 -79 -7 -187 -20 -240 -29 -52 -9 -117 -22 -145 -29 -27
-8 -90 -19 -140 -25 -49 -7 -115 -19 -145 -26 -30 -8 -95 -21 -145 -30 -49 -9
-103 -21 -120 -26 -16 -6 -70 -17 -120 -25 -49 -7 -140 -20 -202 -28 -61 -9
-122 -18 -135 -21 -13 -3 -81 -15 -153 -26 -71 -12 -200 -25 -285 -29 -85 -4
-231 -17 -325 -29 -93 -12 -222 -26 -285 -32 -63 -5 -167 -23 -230 -39 -63
-16 -171 -33 -240 -39 -69 -6 -177 -15 -240 -21 -63 -5 -149 -16 -190 -25 -41
-8 -143 -24 -227 -35 -83 -11 -211 -27 -285 -35 -73 -9 -218 -20 -323 -25
-104 -5 -246 -14 -315 -19 -69 -6 -172 -15 -230 -20 -58 -6 -126 -15 -152 -20
-25 -6 -206 -10 -405 -11 -197 0 -576 1 -843 3 -290 3 -513 9 -555 16 -38 6
-169 13 -290 15 -121 3 -278 12 -350 20 -71 9 -161 21 -200 27 -38 6 -108 21
-155 34 -47 13 -114 28 -150 33 -36 6 -99 16 -140 22 -41 7 -131 27 -200 46
-69 18 -161 36 -205 40 -44 3 -95 10 -113 16 -19 6 -50 24 -69 41 -21 18 -52
65 -74 111 -29 59 -39 93 -39 128 0 26 10 76 21 110 12 35 28 71 36 80 9 10
32 22 52 29 20 6 61 22 91 36 30 13 71 33 90 43 19 11 62 32 95 49 33 16 83
40 110 52 28 12 91 42 142 66 50 24 98 52 105 60 7 9 33 24 58 35 25 11 55 28
66 39 12 11 50 30 85 43 35 13 82 30 104 39 22 8 76 25 120 37 44 13 112 33
150 45 39 13 97 35 130 50 33 14 74 32 90 40 17 7 57 23 90 35 33 12 85 30
116 39 30 10 66 25 80 34 13 8 49 20 79 26 31 5 86 27 125 50 39 22 84 47 101
55 17 8 73 18 125 22 74 5 112 14 179 41 47 20 125 50 173 69 48 18 116 38
150 44 34 6 112 25 172 41 61 17 173 50 250 74 77 25 169 51 205 60 36 8 110
26 165 40 55 15 161 42 235 62 74 19 221 64 325 98 105 34 226 68 270 75 44 7
96 20 115 30 19 9 71 26 115 37 44 12 125 28 180 38 55 9 125 25 155 35 30 10
105 32 165 50 61 18 137 41 170 52 33 10 96 25 140 32 44 8 116 19 160 26 44
7 121 23 170 36 50 13 146 35 215 49 69 14 161 33 205 42 44 8 115 26 158 39
43 13 90 24 105 24 15 0 43 5 62 11 19 6 80 12 135 14 76 2 134 12 240 40 77
20 187 43 245 51 58 7 151 20 207 28 57 9 159 17 227 19 99 2 128 6 143 19 10
9 38 23 63 31 25 8 106 20 180 27 74 7 160 18 190 26 30 7 91 18 135 23 44 6
103 17 130 25 28 8 79 17 115 21 36 4 81 11 100 15 19 5 100 14 180 20 80 5
211 16 292 24 80 8 151 17 157 20 6 4 48 14 93 23 51 10 150 17 259 18 97 2
194 6 215 9 22 4 100 11 174 16 74 5 182 16 240 24 58 8 138 22 179 31 41 8
126 20 188 25 62 5 117 11 122 14 4 3 66 10 136 16 71 5 168 16 215 24 47 8
162 17 255 20 94 3 213 9 265 12 52 3 157 14 233 25 90 12 196 19 305 19 102
0 199 6 250 15 46 8 165 19 265 25 100 5 234 14 297 19 63 6 219 17 345 26
127 8 325 18 440 21 116 3 233 6 260 6 28 1 104 5 170 10 66 5 165 16 220 24
55 8 116 19 135 24 19 5 147 14 283 21 201 10 264 10 332 -1 66 -10 92 -10
127 -1 25 8 152 16 310 20 147 4 271 10 275 15 4 4 61 4 128 0 75 -4 125 -11
134 -19z m1490 -11 c32 -12 41 -21 41 -40 0 -14 -12 -32 -33 -48 -19 -15 -37
-26 -41 -26 -3 0 -23 -11 -44 -25 -20 -13 -57 -31 -82 -40 -25 -9 -56 -27 -70
-40 -14 -13 -38 -27 -55 -31 -16 -4 -64 -28 -105 -55 -41 -26 -90 -60 -107
-75 -18 -14 -53 -32 -78 -39 -24 -8 -66 -26 -92 -41 -27 -15 -67 -41 -91 -56
-23 -16 -68 -38 -100 -49 -31 -11 -79 -35 -107 -53 -27 -19 -72 -46 -100 -60
-27 -14 -57 -26 -65 -26 -8 0 -37 -11 -65 -24 -27 -13 -59 -33 -69 -45 -11
-12 -31 -21 -46 -21 -15 0 -33 7 -40 15 -7 9 -17 39 -23 68 -5 29 -9 59 -8 67
0 8 2 51 4 95 2 44 11 130 20 190 10 61 24 144 32 185 8 41 12 84 9 96 -4 14
3 31 18 49 l24 28 350 3 c192 1 439 5 548 8 110 4 202 9 205 12 3 3 33 4 67 1
34 -3 80 -13 103 -23z"/>
</g>
</svg>
