<?xml version="1.0" encoding="UTF-8" standalone="no"?>
<svg
xmlns="http://www.w3.org/2000/svg"
version="1.0"
width="284"
height="118">
<path d="M 80.399,27.777 c 7.27,-1.242 11.034,-5.988 19.528,-6.006 3.381,-5.129 14.077,-2.946 15.772,-9.76 -10.425,2.871 -24.149,8.874 -36.052,12.763 -20.306,-3.638 -43.375,4.229 -64.594,3.754 -2.998,2.508 -6.261,4.752 -9.013,7.507 0,1.752 0,3.503 0,5.255 24.081,10.689 51.627,-5.176 71.353,-12.763 0.556,6.627 -3.212,11.634 -6.009,18.018 -1.601,3.656 -4.024,14.193 -9.013,14.264 -4.295,0.062 -9.796,-13.757 -12.017,-1.502 6.478,-3.125 8.085,6.897 15.773,4.505 C 72.173,53.089 79.01,43.156 80.399,27.777 z M 30.827,41.291 c -6.993,0.762 -16.763,2.077 -21.781,-3.003 4.538,-9.056 17.918,-6.6 30.043,-7.507 11.759,-0.881 23.7,-6.017 33.799,-3.754 -11.219,4.231 -27.054,12.629 -42.061,14.264 z
M 183.297,57.057 c 4.524,-0.732 5.251,-5.262 12.018,-3.754 0.386,-7.417 -7.711,1.278 -6.76,-5.255 -3.218,1.866 -6.118,5.201 -5.258,9.009 z
M 141.237,46.546 c -1.862,-1.429 3.411,-2.045 2.253,-5.255 -6.778,-0.192 -13.348,6.121 -22.532,6.006 1.01,-5.752 12.475,-4.195 9.764,-11.261 -7.194,0.067 -8.171,6.348 -15.022,6.757 1.03,2.224 2.672,3.835 3.004,6.757 8.967,1.167 16.412,2.497 24.035,-0.751 1.02,0.232 0.623,1.88 0.751,3.003 4.708,-2.551 9.044,-5.475 15.022,-6.756 2.667,2.233 -1.28,4.176 -0.752,6.756 4.262,1.837 8.202,-1.334 11.267,-3.003 1.041,1.212 2.128,2.377 3.005,3.754 4.42,-2.004 6.918,-1.115 10.515,0.75 -3.009,-5.805 4.22,-4.399 3.756,-9.759 -6.058,-4.6 -6.4,6.271 -13.52,5.255 -1.905,-1.233 2.437,-2.51 1.502,-5.255 -5.93,0.079 -7.046,4.969 -12.769,5.255 0.18,-3.324 2.59,-4.418 5.258,-5.255 -0.885,-6.39 5.212,-5.801 6.009,-10.511 0.127,-1.879 -1.154,-2.35 -2.254,-3.003 -5.425,3.336 -11.244,6.278 -13.52,12.763 -6.298,2.539 -11.693,-1.998 -15.772,3.753 z
M 78.896,84.834 c 23.083,-11.211 25.629,-42.95 45.065,-57.807 2.258,1.898 -2.908,5.586 0,8.258 2.262,-1.993 4.27,-4.241 3.755,-9.009 -16.063,-7.307 -15.933,23.749 -30.043,23.273 0.583,-3.672 3.364,-5.146 6.76,-6.006 -4.591,-6.593 -8.595,4.885 -12.769,6.006 -2.117,-2.166 2.459,-4.012 1.502,-7.507 -7.307,-5.013 -18.374,5.88 -10.516,11.261 2.443,-0.06 4.047,-0.96 4.507,-3.003 3.63,4.775 7.532,0.584 13.52,3.003 -1.634,6.63 -7.975,15.048 -12.769,21.021 -1.732,0.229 -0.834,-2.169 -2.253,-2.253 -4.242,1.876 -9.134,6.735 -6.759,12.763 z M 89.412,45.045 c -2.235,1.519 -2.69,4.818 -6.76,4.504 -0.129,-3.407 3.764,-6.714 6.76,-4.504 z
M 224.607,60.06 c 0.128,2.982 -0.644,10.384 4.507,10.511 -5.799,6.215 -12.496,11.533 -16.523,19.52 -6.622,-0.613 -10.228,1.789 -13.52,4.504 -14.88,0.894 -20.014,11.527 -33.799,13.514 8.815,7.544 19.388,-9.899 27.79,-9.76 5.716,0.095 6.186,5.874 11.266,9.009 4.782,-0.775 6.891,1.121 9.014,3.003 15.362,4.092 25.557,-15.632 9.764,-18.769 3.629,-6.883 5.515,-15.508 11.267,-20.27 -2.559,-3.172 -0.283,-6.214 0.751,-9.76 7.718,1.294 9.979,8.043 18.777,8.258 11.07,6.201 -15.188,14.634 -18.026,19.52 -3.208,0.691 -3.267,-4.021 -5.258,-2.252 3.583,12.37 16.767,-2.313 23.284,-6.757 4.849,-3.308 6.341,-4.862 12.017,-6.757 2.792,-5.659 3.456,-12.055 0,-17.267 0.555,-10.245 12.191,-14.712 7.512,-25.525 -11.722,-6.263 -19.729,4.787 -25.537,11.261 -3.09,-0.416 -4.857,-2.152 -8.262,-2.252 -2.561,-7.865 -0.715,-15.741 -5.258,-21.021 -5.979,5.234 -23.96,1 -20.279,15.015 2.034,0.969 2.67,3.337 6.009,3.003 -2.243,5.266 -7.32,7.699 -12.018,10.51 0.729,3.525 5.944,2.566 6.76,6.006 -1.522,6.144 -8.654,3.414 -10.516,9.009 -0.811,2.439 0.952,5.498 0,9.01 -1.318,4.863 -13.746,18.817 -3.004,20.27 2.548,0.345 6.422,-3.196 7.511,-6.006 1.547,-3.993 -1.304,-9.284 -0.751,-12.763 0.9,-5.671 6.776,-7.667 8.262,-12.763 3.566,0.865 6.143,-1.743 8.26,-10e-4 z m 4.507,41.291 c -3.31,5.684 -15.521,8.493 -20.279,2.252 -1.81,-0.307 -1.633,1.372 -3.756,0.751 -2.307,-1.947 -2.986,-5.522 -5.257,-7.507 3.179,-1.327 5.96,-3.051 11.266,-2.253 0.323,2.43 -0.988,6.493 1.503,6.757 5.244,0.238 6.134,-3.879 8.262,-6.757 3.587,1.419 9.066,0.946 8.261,6.757 z m -15.022,-6.757 c 1.091,0.411 3.882,-0.877 3.755,0.751 -2.036,0.467 -1.869,3.137 -4.506,3.003 -0.621,-2.122 1.059,-1.945 0.751,-3.754 z m 1.502,-5.255 c 4.239,-3.02 5.915,-8.603 10.516,-11.262 -1.5,4.508 -4.155,7.859 -5.258,12.763 -1.961,-0.292 -4.121,-0.385 -5.258,-1.501 z m -9.763,-14.265 c -0.424,3.427 1.33,4.676 0.751,8.259 -1.437,2.067 -3.189,3.819 -5.258,5.255 -2.512,-5.687 2.679,-9.706 4.507,-13.514 z m 60.086,-8.258 c -0.778,1.975 -0.606,4.899 -3.755,4.505 -0.436,-3.188 2.024,-3.482 3.755,-4.505 z m -39.056,-0.751 c -0.431,-2.725 3.157,-5.295 5.257,-3.003 -1.573,0.679 -0.267,4.237 -2.253,4.505 -0.494,-1.007 -1.606,-1.398 -3.004,-1.502 z m -15.023,-4.503 c -2.655,0.599 -2.124,4.383 -4.506,5.255 0,-1.251 0,-2.503 0,-3.754 2.041,0.467 3.518,-3.396 4.506,-1.501 z m 42.813,1.501 c -1.112,0.14 -0.688,1.814 -0.751,3.003 -1.503,0 -3.005,0 -4.507,0 -0.299,-2.594 4.107,-4.346 5.258,-3.003 z m 2.253,-1.501 c 1.669,-0.584 2.929,-1.577 5.258,-1.502 -0.446,2.808 -0.902,5.604 -3.756,6.006 -0.5,0 -1.001,0 -1.502,0 0,-1.502 0,-3.003 0,-4.504 z m -21.03,-3.004 c 2.364,-5.345 7.901,-12.165 14.271,-13.513 4.698,-0.995 10.651,2.185 16.524,0 -0.508,4.498 -3.418,6.594 -3.756,11.261 -9.465,1.986 -17.525,8.412 -27.039,2.252 z m -18.027,-2.252 c 0.219,-3.973 -1.071,-6.436 -3.755,-7.508 3.381,-4.378 7.964,-7.554 10.515,-12.763 6.206,0.948 6.499,-4.014 10.516,-5.255 1.303,2.201 1.771,5.237 1.502,9.009 -9.273,-0.554 -15.396,15.494 -3.004,15.766 -2.713,5.692 -9.454,-1.336 -15.774,0.751 z m 11.267,-5.255 c 0.509,-4.746 3.031,-7.481 7.511,-8.258 0.669,4.172 -1.442,5.565 -1.502,9.009 -2.299,1.099 -3.914,0.202 -6.009,-0.751 z m 10.515,-7.508 c 2.158,-0.156 3.814,0.19 4.506,1.501 -1.79,1.213 -3.311,2.696 -5.258,3.753 0.008,-1.993 -0.283,-4.286 0.752,-5.254 z m 13.52,-1.501 c 0.578,-5.088 15.586,-15.509 17.274,-3.003 -2.758,3.603 -11.95,4.43 -17.274,3.003 z m -36.053,-9.76 c 0.02,-4.986 5.002,-9.55 9.014,-6.006 -1.698,1.556 -2.346,4.162 -3.005,6.757 -2.163,-0.09 -4.917,0.41 -6.009,-0.751 z m 14.271,-5.255 c 0.001,2.541 -2.29,6.67 -4.506,4.504 1.386,-1.617 0.694,-5.311 4.506,-4.504 z m 0.751,-2.253 c 0,-0.5 0,-1.001 0,-1.501 1.034,0.033 1.649,-0.354 2.254,-0.75 -0.003,0.753 0.608,0.894 0.751,1.501 -0.585,0.166 -0.873,0.628 -0.751,1.501 -0.501,0 -1.002,0 -1.502,0 -0.043,-0.458 -0.113,-0.888 -0.752,-0.751 z" />
</svg>
