<?xml version="1.0" encoding="UTF-8"?>
<svg version="1.0" xmlns="http://www.w3.org/2000/svg" width="268" height="99" >
<path fill="#231F20" d="M146.11,22.109c-7.087,0.242-15.044,4.264-21.846,3.294c-8.413-1.2,5.15-10.708,7.22-12.222 c5.457-3.993,11.218-7.885,17.368-10.739c5.968-2.77,1.705,1.133-0.231,2.675c-9.481,7.549-19.519,14.406-29.092,21.842 c-15.247,11.843-29.866,24.519-43.255,38.441c-0.418,0.435,1.37,0.052,1.601-0.095c14.62-9.298,27.592-20.694,41.004-31.584 c7.274-5.907,14.701-11.662,22.358-17.067c1.2-0.847,2.416-1.67,3.658-2.452c1.691-1.064-0.951,0.772-1.626,1.527 c-0.722,0.809-6.35,6.145-4.873,7.396c0.376,0.318,2.056-0.441,1.826-0.636c-1.468-1.244,6.577-8.133,6.724-9.372 c-0.018-0.02-0.035-0.039-0.053-0.059c-1.966-1.379-8.76,4.75-9.904,5.575c-9.615,6.925-18.918,14.329-27.951,21.995 C99.371,48.832,89.404,56.639,78.866,63.7c-0.759,0.509-1.523,1.01-2.292,1.505c0.341-0.219,3.012-1.623,3.904-2.541 c1.232-1.265,2.485-2.509,3.739-3.752c5.295-5.255,10.812-10.283,16.424-15.196c15.713-13.753,32.764-25.627,49.23-38.404 c0.484-0.375,5.992-4.324,3.367-4.558c-5.149-0.459-11.647,4.705-15.609,7.226c-3.894,2.478-7.665,5.156-11.325,7.967 c-1.864,1.432-6.283,4.139-6.744,6.732c-0.667,3.753,4.851,3.906,7.357,3.583c6.063-0.78,11.733-3.212,17.925-3.424 C145.208,22.827,147.02,22.078,146.11,22.109L146.11,22.109 M165.387,4.657c-0.011-0.008-10.35,9.131-12.274,10.837c-5.79,5.131-11.44,10.424-17.054,15.747 c-10.278,9.746-21.911,19.572-30.195,31.158c-1.413,1.977-1.176,3.879,1.649,2.766c2.331-0.919,4.4-2.958,6.291-4.526 c3.764-3.123,7.387-6.417,11.033-9.674c10.098-9.02,20.229-18.023,31.094-26.121c9.826-7.323,19.503-15.59,30.29-21.492 c2.842-1.555,10.688-4.335,9.464,2.091c-0.71,3.728-4.854,7.321-7.664,9.659c-1.008,0.838,0.574,1.3,1.244,0.742 c3.468-2.885,9.223-7.822,8.414-12.88c-0.783-4.902-8.212-2.511-10.763-1.355c-9.468,4.292-17.839,11.773-26.097,17.936 c-10.682,7.971-20.971,16.256-30.962,25.081c-7.197,6.357-14.126,13.679-22.158,18.998c-2.198,1.456,0.054-1.201,0.67-2.004 c1.745-2.277,3.723-4.385,5.675-6.483c11.358-12.208,23.604-23.667,35.909-34.909c3.31-3.023,6.607-6.122,10.145-8.882 c0.659-0.515,8.82-6.326,6.801-7.721C166.281,3.197,164.536,4.069,165.387,4.657L165.387,4.657 M145.893,41.741c-6.42,4.491-12.816,9.098-18.791,14.172c-0.48,0.408-5.061,3.979-3.715,4.859 c1.583,1.036,6.861-0.175,6.888-2.557c0.005-0.396-1.925-0.1-1.932,0.518c0.007-0.614-4.959,2.736-2.4-0.172 c0.732-0.832,1.585-1.565,2.413-2.297c2.507-2.218,5.192-4.244,7.859-6.264c3.671-2.78,7.404-5.486,11.178-8.125 C148.221,41.295,146.275,41.474,145.893,41.741L145.893,41.741 M156.926,34.129c0.674-0.765,1.291-1.583,1.855-2.43c0.523-0.786,1.604-2.337,0.993-3.317 c-0.28-0.45-2.061,0.311-1.932,0.518c0.622,0.999-0.558,2.55-1.091,3.349c-0.521,0.782-1.105,1.532-1.727,2.238 c-0.212,0.241,0.729,0.154,0.763,0.147C156.178,34.561,156.655,34.438,156.926,34.129L156.926,34.129 M147.743,55.43c4.602-3.315,10.736-7.174,13.45-12.299c2.605-4.921-7.959,0.632-8.576,1.035 c-3.514,2.298-6.781,5.026-9.763,7.975c-1.73,1.711-4.279,4.108-4.421,6.706c-0.125,2.306,4.044,2.744,5.317,1.37 c0.146-0.157,0.285-0.338,0.121-0.54c-0.003-0.004-0.006-0.008-0.009-0.012c-0.213-0.262-0.757-0.184-1.027-0.107 c-1.854,0.528-3.497,2.561-4.794,3.826c-5.965,5.816-11.108,12.403-17.1,18.209c-5.178,5.018-10.777,9.771-16.905,13.592 c-0.964,0.601-5.968,3.449-4.126,0.457c1.372-2.231,3.479-4.088,5.349-5.891c19.233-18.536,46.565-27.006,64.492-46.95 c0.75-0.834-0.942-0.741-1.375-0.45c-5.063,3.409-10.43,7.198-14.355,11.907c-2.893,3.471-3.541,8.035,2.37,6.708 c9.341-2.098,17.812-9.27,24.321-15.91c0.692-0.706,10.413-11.73,4.503-9.704c-5.244,1.797-10.777,7.296-12.672,12.427 c-0.515,1.393-0.259,2.962-0.047,4.378c0.438,2.928-3.256,4.445-5.036,6.106c-1.969,1.837,2.171,2.379,3.149,2.652 c1.428,0.397,8.433,2.572,5.338,5.13c-0.823,0.68-1.79,1.2-2.729,1.699c-3.773,2.008-7.956,3.289-12.057,4.428 c-18.727,5.199-38.689,6.315-58.01,6.84c-26.4,0.717-53.128-0.1-79.431-2.569c-6.27-0.588-12.704-1.192-18.81-2.817 c-2.903-0.772-4.267-1.723-0.643-2.553c7.46-1.708,15.583-1.532,23.201-1.769c60.08-1.868,120.363-1.831,180.453-0.518 c14.685,0.321,29.402,0.678,44.051,1.815c3.932,0.306,7.93,0.601,11.79,1.451c1.103,0.243,3.352,0.69,1.412,1.437 c-1.261,0.485-0.107,1.136,0.766,0.8c3.979-1.53,0.737-2.949-1.735-3.445c-7.541-1.514-15.462-1.68-23.117-2.07 c-29.377-1.496-58.842-1.627-88.249-1.748c-31.982-0.131-63.968,0.031-95.946,0.545c-10.927,0.176-21.856,0.382-32.778,0.769 c-7.068,0.25-14.697,0.125-21.52,2.126c-8.106,2.377,5.178,5.125,7.164,5.456c20.801,3.463,42.333,3.69,63.354,4.158 c24.189,0.538,48.627,0.251,72.571-3.596c9.787-1.573,20.172-3.604,29.014-8.31c2.637-1.403,6.083-3.755,2.342-6.341 c-1.959-1.354-4.799-1.857-7.057-2.467c-1.707-0.461,3.932-4.511,4.271-5.653c0.596-2.013-0.231-4.086,0.22-6.175 c0.682-3.157,3.7-5.759,6.006-7.77c0.536-0.468,5.031-3.337,5.032-3.39c-0.013,2.554-4.922,6.826-6.351,8.355 c-5.538,5.929-12.428,11.164-19.934,14.312c-2.332,0.978-7.219,2.015-5.296-2.105c1.112-2.382,3.401-4.294,5.307-6.032 c3.207-2.924,6.738-5.557,10.336-7.979c-0.458-0.15-0.916-0.3-1.375-0.45c-14.417,16.04-35.436,24.161-52.464,36.832 c-4.203,3.127-8.212,6.529-12.027,10.117c-2.033,1.912-5.171,4.477-6.172,7.208c-1.475,4.022,6.971-0.441,7.699-0.874 c9.907-5.887,18.663-14.56,26.206-23.157c3.461-3.945,6.879-8.037,10.904-11.433c1.974-1.666-2.433-0.82-1.867-3.374 c0.688-3.112,4.444-5.924,6.674-7.912c3.152-2.811,6.649-5.498,10.455-7.365c4.434-2.175-1.73,4.758-2.753,5.688 c-2.557,2.326-5.315,4.455-8.104,6.491c-0.069,0.051-0.139,0.101-0.208,0.151C145.481,55.617,147.136,55.867,147.743,55.43 L147.743,55.43z"/>
</svg>