<?xml version="1.0" encoding="utf-8"?>
<!-- Generator: Adobe Illustrator 13.0.2, SVG Export Plug-In . SVG Version: 6.00 Build 14948)  -->
<!DOCTYPE svg PUBLIC "-//W3C//DTD SVG 1.0//EN" "http://www.w3.org/TR/2001/REC-SVG-20010904/DTD/svg10.dtd">
<svg version="1.0"
	 id="Layer_1" inkscape:version="0.46" sodipodi:docname="Jacqueline Kennedy Signature.svg" sodipodi:version="0.32" xmlns:sodipodi="http://sodipodi.sourceforge.net/DTD/sodipodi-0.dtd" xmlns:rdf="http://www.w3.org/1999/02/22-rdf-syntax-ns#" xmlns:cc="http://creativecommons.org/ns#" xmlns:svg="http://www.w3.org/2000/svg" xmlns:inkscape="http://www.inkscape.org/namespaces/inkscape" xmlns:dc="http://purl.org/dc/elements/1.1/" inkscape:output_extension="org.inkscape.output.svg.inkscape"
	 xmlns="http://www.w3.org/2000/svg" xmlns:xlink="http://www.w3.org/1999/xlink" x="0px" y="0px" width="546.339px"
	 height="150.83px" viewBox="0 0 546.339 150.83" enable-background="new 0 0 546.339 150.83" xml:space="preserve">
<defs>
	
	
		<inkscape:perspective  id="perspective283" inkscape:persp3d-origin="273.16949 : 50.276667 : 1" inkscape:vp_x="0 : 75.415001 : 1" inkscape:vp_y="0 : 1000 : 0" sodipodi:type="inkscape:persp3d" inkscape:vp_z="546.33899 : 75.415001 : 1">
		</inkscape:perspective>
</defs>
<sodipodi:namedview  id="base" inkscape:window-y="230" inkscape:pageopacity="0.0" inkscape:window-height="669" inkscape:current-layer="g240" inkscape:pageshadow="2" inkscape:window-width="640" inkscape:window-x="230" inkscape:cy="75.415001" showgrid="false" pagecolor="#ffffff" bordercolor="#666666" gridtolerance="10.0" inkscape:cx="273.16949" objecttolerance="10.0" borderopacity="1.0" inkscape:zoom="0.99571879" guidetolerance="10.0">
	</sodipodi:namedview>
<g id="g236">
	<g id="g238">
		<g id="g240">
			<path id="path244" d="M75.075,20.261c-5.362,4.964-1.863,18.896,0,24.013c4.779,13.125,16.384,27.732,23.263,39.771
				c5.189,9.081,9.139,22.968,2.251,33.769C87.11,138.95,39.614,143.72,14.29,130.569c3.844-12.914,19.388-14.129,28.516-21.762
				c-8.599,1.275-20.321,6.655-24.764,10.506c-2.613,2.266-7.274,7.47-6.003,12.006c1.385,4.947,19.518,8.478,31.518,9.756
				c29.118,3.102,65.561-11.42,63.786-39.021c-0.901-14.005-12.199-25.746-18.01-36.019c-6.286-11.112-13.722-24.944-14.258-38.271
				C74.946,24.551,77.748,23.538,75.075,20.261z"/>
			<path id="path246" d="M427.773,96.801c0.752,0,1.502,0,2.252,0c-0.482-8.272-2.527-14.981-12.008-14.257
				c-2.576,2.977-1.256,9.967,0.75,12.757c4.029-1.685-2.311-6.708,0.75-9.755C425.515,86.052,427.183,90.888,427.773,96.801z"/>
			<path id="path248" d="M172.63,87.046c6.716,5.68,21.159,1.895,27.015-2.251c3.382,0.599,6.454,4.739,10.506,2.251
				c-0.229-2.771-4.688-1.314-6.003-3.002c10.354-8.919,8.084-36.988-13.508-31.517c-11.818,8.308-0.641,25.728,6.754,30.767
				c-4.931,2.715-12.081,5.881-19.511,3.752c3.423-2.08,9.966-1.04,12.007-4.502c-2.957-6.891-13.614-2.32-17.26,0.75
				c-1.27-2.043-4.146-5.43-7.504-3.002c-0.438,3.939,1.969,5.035,5.253,5.253c-0.272,2.729-1.772,4.229-4.502,4.502
				c-3.713-0.039-2.942-4.563-4.502-6.753C155.059,91.507,171.82,97.205,172.63,87.046z M186.137,81.043
				c0.01,3.535-7.247,3.729-9.755,2.251C179.113,82.022,182.417,81.325,186.137,81.043z M188.389,58.531
				c8.629-17.356,33.715,17.509,12.007,23.263C195.89,76.89,183.898,67.562,188.389,58.531z"/>
			<path id="path250" d="M371.492,92.299c2.254-11.03-10.99-14.88-20.262-17.259c-8.775-2.251-19.49-3.239-28.516-3.752
				c7.576-25.119,41.453-42.836,73.541-45.024c10.773-0.734,20.65-0.582,24.764,6.754c-10.926,20.34-37.791,24.744-58.531,35.269
				c12.596-3.207,30.994-8.792,42.771-15.758c6.768-4.001,18.91-11.713,18.012-22.512c-11.771-9.697-33.301-6.999-48.027-3.002
				c-25.744,6.987-48.043,22.161-55.531,44.273c-10.811,0.832-8.986-22.632-12.006-28.515c-4.553,9.705,3.314,19.586,4.502,28.515
				c-0.592,1.703-8.623-0.175-6.004,2.251c-0.291,3.042,4.678,0.827,6.754,1.5c4.602,2.651,0.514,13.996,5.254,16.509
				c0.098-5.867,1.004-10.924,3.002-16.509c16.674-0.194,38.771,2.006,48.777,14.258c-0.473,1.53-3.793,0.211-3.002,3.001
				C368.39,93.769,369.738,92.531,371.492,92.299z M318.21,75.04c0.779,0.709,0.686,3.866-1.5,3.752
				C316.845,76.345,314.947,75.18,318.21,75.04z"/>
			<path id="path252" d="M408.261,93.049c0.75,0,1.502,0,2.252,0c0.607-8.137-7.869-13.401-14.258-9.755
				c-2.898,4.994-16.531,11.848-21.012,3.752c1.236-1.189,8.715,1.842,9.004-2.251c-1.256-5.366-8.889-1.217-11.256-1.5
				c-0.229,3.479,0.008,6.496,1.502,8.254c6.225,1.871,14.855,0.604,18.76-2.251c2.66-0.158,1.482,3.521,4.502,3.001
				c1.139-1.976-0.922-5.528,1.502-7.504C404.839,84.966,407.371,88.188,408.261,93.049z"/>
			<path id="path256" d="M232.664,90.048c1.25,0,2.501,0,3.752,0c-0.724-7.029-6.102-9.406-12.007-11.256
				c-2.111,0.141-3.197,1.305-3.001,3.752c-3.431-1.32-1.769-7.736-6.754-7.504c1.958,5.796,4.482,11.025,9.755,13.507
				c0.453-2.797-1.918-4.746,0-6.753C228.697,83.008,232.331,84.877,232.664,90.048z"/>
			<path id="path258" d="M276.188,83.294c-7.74-0.809-21.027,8.176-29.267,2.251c0.879-2.623,5.56-1.444,6.754-3.752
				c-3.65-8.134-10.913,2.69-17.26,1.501c3.282,2.971,9.749,2.758,12.007,6.753C260.391,90.509,268.719,87.332,276.188,83.294z"/>
			<path id="path260" d="M216.905,85.545c-4.263,1.261-1.685-4.317-5.253-3.752C208.602,85.388,217.196,93.704,216.905,85.545z"/>
			<path id="path274" d="M532.082,127.567c-7.664-6.68-11.43-25.849-11.256-40.521c-4.727,9.796-23.93,10.611-29.268,0.75
				c0.133-3.622,4.189-6.469,1.502-10.505c-4.992,0.637-6.281,3.172-5.254,8.254c-2.246,3.426-8.172,4.879-12.758,3.752
				c0.807-2.585,4.645-4.934,5.254-9.005c3.328-22.181-29.447-18.911-18.01,3.002c-10.176-2.433-16.361,12.215-24.764,5.252
				c2.141-1.61,7.336-0.167,7.504-3.752c-1.695-5.79-10.652-0.612-15.01,0c0.512,2.74,2.846,3.659,3.754,6.003
				c18.42,4.451,37.313,1.762,54.029-1.501c5.48,6.872,20.174,11.5,30.018,5.253c0.846,12.995,4.959,24.985,9.756,36.02
				C530.568,131.058,532.169,130.157,532.082,127.567z M450.287,90.048c2.598-3.906,8.83-4.176,15.008-4.502
				c-0.797,2.799,2.814,1.188,2.252,3.752C461.763,90.618,455.808,92.374,450.287,90.048z M477.3,82.544
				c-3.385,4.977-5.025,0.405-11.256,0.75C453.589,65.111,481.876,60.686,477.3,82.544z"/>
			<path id="path276" d="M159.873,114.812c1.212,0.211,1.292-0.709,2.251-0.75c-3.151-8.105-7.497-15.017-9.005-24.764
				c1.09-4.663,6.959-4.547,6.003-11.256c-13.716-1.141-17.305,9.114-29.267,8.254c-0.022-5.927,5.882-3.654,8.255-3.752
				c-1.875-7.717-14.451-1.555-11.256,4.502c-1.611,1.391-5.497,0.506-8.255,0.75c0.068-3.208,1.504-5.496,0-8.254
				c-5.345-0.761-13.688,1.08-12.757,9.005c8.265,4.562,21.143,0.647,32.268-0.75c2.847,3.229,8.198,3.576,12.757,1.501
				C152.678,98.993,155.06,108.118,159.873,114.812z M108.093,87.796c0.713-2.789,1.742-5.262,5.253-5.252
				c1.034,0.967,0.743,3.259,0.75,5.252C113.005,88.899,109.185,88.899,108.093,87.796z M141.862,86.296
				c2.8-3.049,6.219-5.645,10.506-3.752C152.297,86.646,145.136,90.231,141.862,86.296z"/>
		</g>
	</g>
</g>
</svg>
