<?xml version="1.0" standalone="no"?>
<!DOCTYPE svg PUBLIC "-//W3C//DTD SVG 20010904//EN"
 "http://www.w3.org/TR/2001/REC-SVG-20010904/DTD/svg10.dtd">
<svg version="1.0" xmlns="http://www.w3.org/2000/svg"
 width="469pt" height="212pt" viewBox="0 0 469 212"
 preserveAspectRatio="xMidYMid meet">
<metadata>
Created by POTRACE VERSION, written by Peter Selinger 2001-2007
</metadata>
<g transform="translate(0,212) scale(0.053061,-0.053061)"
fill="#000000" stroke="none">
<path d="M1916 3790 c-27 -11 -61 -31 -76 -45 -14 -14 -29 -25 -33 -25 -4 0
-24 -19 -45 -41 -20 -23 -53 -63 -72 -89 -19 -27 -54 -72 -76 -102 -23 -29
-50 -62 -61 -73 -10 -11 -37 -45 -60 -75 -22 -30 -52 -68 -67 -83 -14 -15 -26
-30 -26 -32 0 -2 -23 -39 -52 -82 -29 -43 -54 -80 -57 -83 -4 -3 -16 -19 -28
-36 -12 -18 -25 -44 -29 -59 -4 -15 -12 -29 -19 -32 -7 -2 -32 9 -56 26 -23
17 -55 31 -70 31 -16 0 -47 -9 -69 -21 -22 -12 -60 -46 -84 -77 -30 -37 -54
-83 -71 -136 -19 -54 -28 -107 -30 -161 l-3 -80 -109 -28 c-59 -15 -129 -32
-154 -37 -25 -5 -102 -14 -170 -21 -68 -7 -170 -13 -226 -13 -56 -1 -105 -4
-108 -8 -4 -4 -4 -16 0 -28 7 -21 10 -22 128 -16 67 3 192 7 277 8 85 2 196 1
245 -1 50 -2 145 -2 213 1 84 2 126 0 133 -8 6 -7 4 -16 -6 -24 -11 -9 -18
-10 -29 -1 -7 6 -20 9 -27 7 -8 -3 -61 -7 -119 -10 -58 -3 -155 -10 -217 -16
-61 -5 -119 -13 -128 -16 -12 -5 -15 -17 -13 -48 l3 -41 140 -5 140 -5 3 -28
c2 -18 -2 -29 -12 -33 -9 -3 -16 -12 -16 -19 0 -6 -6 -25 -14 -41 -11 -23 -12
-50 -4 -127 6 -71 16 -113 35 -153 14 -30 33 -60 42 -67 10 -7 24 -21 32 -33
7 -12 37 -40 64 -63 28 -23 67 -56 89 -74 21 -18 49 -44 63 -59 14 -15 38 -30
54 -33 16 -4 52 -24 79 -46 27 -21 54 -39 60 -39 5 0 19 -9 30 -20 11 -11 35
-28 52 -38 18 -9 45 -26 61 -36 15 -10 27 -27 27 -37 0 -11 3 -20 8 -20 4 -1
26 -3 50 -3 24 -1 47 -7 50 -14 4 -6 19 -15 32 -21 14 -6 43 -22 65 -36 22
-13 64 -36 94 -50 29 -14 57 -25 62 -25 4 0 30 -12 56 -26 26 -15 62 -34 78
-42 17 -8 32 -18 35 -22 3 -3 29 -16 59 -28 29 -12 60 -22 67 -22 8 0 31 -9
51 -20 21 -11 53 -23 73 -26 19 -3 68 -19 109 -35 40 -16 84 -29 98 -29 13 0
45 -5 71 -11 26 -6 61 -17 77 -25 17 -8 57 -19 90 -24 33 -5 103 -19 155 -30
52 -12 111 -26 130 -31 19 -6 51 -10 70 -11 19 0 82 -9 140 -20 58 -10 113
-23 122 -28 9 -5 133 -17 275 -25 142 -9 274 -13 294 -10 23 4 40 2 44 -5 4
-7 3 -16 -3 -22 -5 -5 -42 -16 -82 -24 -58 -12 -83 -23 -119 -54 -34 -29 -50
-52 -60 -87 -13 -42 -13 -55 3 -112 13 -52 25 -73 56 -101 21 -19 63 -52 93
-74 29 -21 58 -48 63 -60 5 -11 23 -25 39 -31 17 -5 46 -20 66 -33 20 -12 42
-22 48 -22 8 0 10 8 6 23 -4 12 -18 47 -32 77 -22 49 -34 61 -116 115 -51 33
-111 77 -134 99 -26 23 -43 47 -43 61 0 18 14 28 78 55 42 18 124 42 182 52
58 11 139 23 180 27 41 4 95 17 120 29 25 11 63 26 85 33 22 6 49 18 60 25 11
7 58 15 105 18 47 3 110 10 140 16 30 6 84 13 120 15 36 3 88 7 117 9 28 3 69
9 90 15 21 5 62 12 90 16 29 4 55 11 59 16 3 5 23 9 44 9 21 0 51 5 67 11 15
6 51 17 79 24 28 8 74 17 102 21 28 3 57 13 63 20 6 8 26 14 45 14 18 0 36 5
39 10 3 6 17 10 30 10 13 0 26 4 29 9 3 4 28 11 55 15 28 4 53 11 56 16 3 6
15 10 25 10 10 0 40 11 66 25 26 14 52 25 59 25 6 0 21 10 32 23 11 12 23 29
27 37 4 8 13 26 21 40 8 14 15 32 15 40 0 8 -16 25 -35 38 -19 12 -46 22 -59
22 -14 0 -28 5 -32 11 -3 6 -2 15 2 19 5 5 52 11 104 14 52 2 122 9 155 15 33
5 105 15 160 22 55 6 118 13 140 15 22 1 72 7 110 13 39 6 86 14 105 17 19 3
45 7 57 10 12 2 35 22 53 43 l31 40 -25 16 c-13 9 -53 21 -88 27 -35 5 -85 12
-113 14 -27 3 -63 7 -80 9 -16 1 -55 10 -85 20 -30 9 -95 18 -145 19 -51 2
-91 8 -93 14 -2 6 6 15 16 21 11 6 37 10 59 9 21 0 78 2 127 5 49 4 128 12
175 18 47 6 115 15 151 20 36 5 108 14 160 19 52 6 120 15 150 21 30 5 62 10
70 10 8 0 41 5 73 11 32 6 61 17 64 24 3 8 13 14 23 14 9 0 29 12 44 26 14 15
26 35 26 45 0 10 -13 25 -30 34 -16 8 -44 18 -62 21 -18 3 -57 8 -86 11 -29 3
-60 2 -70 -2 -9 -4 -64 -8 -122 -10 -58 -2 -168 -3 -245 -3 -77 0 -178 2 -225
4 -47 2 -169 5 -271 7 -103 2 -191 7 -196 10 -6 4 -58 7 -117 8 -59 1 -109 6
-112 11 -3 5 -1 14 4 21 7 8 29 11 69 7 32 -3 105 1 163 8 58 7 179 20 270 28
91 9 199 17 240 19 41 2 109 9 150 15 41 5 127 13 190 16 63 3 139 7 168 9 29
3 69 9 90 14 20 5 79 9 131 10 51 1 97 4 102 7 5 3 7 8 5 12 -2 4 46 7 107 7
62 0 147 4 190 8 62 7 77 12 75 24 -2 9 3 18 11 21 10 3 12 0 8 -12 -6 -16 -1
-17 55 -13 35 3 85 7 112 10 28 3 82 11 120 18 39 6 86 18 105 25 18 8 46 14
62 14 17 0 43 12 66 32 21 18 40 33 42 35 2 2 -4 12 -14 22 -9 11 -36 23 -59
26 -22 3 -99 8 -171 10 -71 2 -184 7 -250 11 -66 4 -124 10 -130 14 -5 5 -73
11 -150 15 -77 4 -183 8 -235 10 -52 2 -216 6 -363 8 -179 3 -272 8 -280 16
-7 7 -8 14 -1 21 5 5 66 12 134 16 69 3 139 7 155 9 17 2 48 9 70 15 22 7 55
12 73 11 18 -1 42 4 53 10 12 6 64 12 117 14 53 2 153 10 222 19 69 9 138 21
154 26 16 6 67 10 113 10 46 0 93 5 105 11 11 6 45 13 77 15 31 2 115 8 186
14 72 6 150 13 175 14 25 2 86 9 135 16 50 6 104 15 120 20 17 5 48 12 70 16
22 4 51 15 64 25 13 11 32 19 42 19 12 0 19 7 19 19 0 11 -5 23 -10 26 -6 4
-111 2 -233 -5 -122 -6 -239 -16 -260 -21 -21 -6 -136 -12 -255 -15 -119 -3
-219 -9 -222 -12 -3 -4 -32 -7 -65 -8 -33 0 -114 -4 -180 -7 -66 -4 -172 -11
-235 -17 -63 -6 -132 -13 -153 -16 -20 -3 -44 -13 -52 -21 -10 -9 -22 -12 -33
-7 -9 4 -33 9 -52 9 -19 1 -80 -2 -135 -7 -55 -5 -145 -9 -199 -9 -55 0 -105
-4 -112 -10 -8 -6 -20 -7 -31 -2 -10 5 -76 5 -148 1 -71 -4 -179 -12 -240 -17
-60 -6 -139 -12 -175 -15 -36 -2 -240 -8 -455 -12 -214 -3 -428 -8 -475 -9
-47 -2 -202 -6 -345 -9 -169 -4 -261 -9 -263 -16 -3 -7 -8 -8 -16 -1 -6 5 -90
11 -187 12 -115 1 -183 -2 -197 -10 -11 -6 -26 -11 -32 -11 -6 0 -18 7 -27 16
-12 11 -37 15 -102 15 -47 0 -201 -1 -341 -2 -140 -1 -271 -1 -290 -1 -19 0
-84 1 -143 1 -60 1 -118 6 -130 13 -12 6 -27 17 -34 23 -7 7 -34 13 -60 13
-26 0 -82 5 -123 11 -41 6 -160 11 -265 12 -104 0 -210 -2 -235 -4 -25 -3 -99
-6 -165 -7 -66 -2 -124 -5 -130 -9 -5 -3 -39 -7 -75 -9 -36 -1 -94 -4 -130 -6
-36 -3 -170 -8 -298 -11 -143 -5 -237 -4 -243 2 -5 5 -7 17 -4 26 4 8 19 20
33 25 15 5 58 30 96 56 38 25 75 46 82 46 8 0 33 26 57 58 23 31 59 73 80 94
23 22 37 45 37 61 0 13 11 41 25 61 14 20 25 41 25 45 0 5 6 14 14 20 7 6 27
39 43 74 17 34 37 78 47 99 9 20 16 42 16 50 0 7 13 41 29 74 16 34 34 65 40
68 6 4 11 19 11 34 0 15 12 57 26 94 14 38 30 68 35 68 5 0 9 14 9 30 0 19 9
38 24 51 13 12 26 37 30 58 3 21 14 45 23 53 10 9 37 25 61 37 32 16 42 27 42
46 0 13 -10 31 -22 39 -12 9 -27 16 -33 16 -5 -1 -32 -10 -59 -20z m-74 -171
c-2 -13 -12 -35 -22 -49 -11 -14 -31 -49 -45 -79 -14 -29 -25 -58 -25 -63 0
-6 -6 -24 -14 -41 -8 -18 -35 -79 -61 -137 -25 -58 -51 -112 -56 -120 -5 -8
-17 -31 -27 -51 -10 -20 -35 -62 -57 -95 -22 -32 -43 -60 -47 -62 -5 -2 -8 -8
-8 -14 0 -5 -27 -43 -61 -84 -60 -74 -61 -74 -109 -74 -27 0 -52 5 -56 11 -3
6 -1 16 5 22 6 6 11 21 11 34 0 13 5 23 10 23 6 0 10 6 10 14 0 7 18 48 40 92
22 43 51 92 63 108 12 17 29 44 37 61 8 16 21 36 28 45 7 8 24 28 37 44 14 16
25 35 25 43 0 7 18 33 39 56 22 23 56 67 76 97 20 30 45 60 55 67 10 7 28 31
40 54 11 23 38 61 58 85 20 24 42 42 47 40 6 -1 9 -14 7 -27z m-710 -714 c4
-16 4 -39 0 -50 -5 -11 -40 -82 -78 -158 -38 -76 -77 -143 -87 -148 -10 -6
-32 -9 -50 -7 -25 2 -33 8 -35 27 -2 13 6 56 18 95 12 39 33 99 47 132 15 38
37 71 56 85 18 13 43 32 57 41 14 9 34 16 44 15 12 -1 23 -13 28 -32z m80
-232 c10 -9 18 -22 18 -30 0 -8 -25 -25 -55 -39 -31 -13 -59 -24 -64 -24 -5 0
-11 6 -14 14 -3 8 8 32 25 55 18 25 38 41 51 41 11 0 29 -7 39 -17z m7196
-130 c2 -7 -4 -16 -13 -19 -9 -4 -21 -2 -27 4 -6 6 -7 15 -3 22 4 6 14 10 23
8 8 -2 17 -9 20 -15z m-142 -4 c3 -6 2 -15 -3 -20 -4 -4 -18 -6 -31 -3 -12 4
-22 13 -22 20 0 8 10 14 24 14 14 0 28 -5 32 -11z m-88 -16 c2 -7 -4 -16 -13
-19 -9 -4 -21 -2 -27 4 -6 6 -7 15 -3 22 4 6 14 10 23 8 8 -2 17 -9 20 -15z
m152 7 c0 -5 -4 -10 -9 -10 -6 0 -13 5 -16 10 -3 6 1 10 9 10 9 0 16 -4 16
-10z m-372 -17 c2 -7 -4 -16 -13 -19 -9 -4 -21 -2 -27 4 -6 6 -7 15 -3 22 4 6
14 10 23 8 8 -2 17 -9 20 -15z m-332 -24 c3 -6 2 -14 -2 -19 -5 -5 -24 -10
-43 -12 -21 -2 -36 2 -38 10 -3 6 6 16 19 21 12 6 31 10 40 10 9 1 20 -4 24
-10z m-160 -20 c3 -6 2 -15 -4 -21 -5 -5 -45 -11 -88 -13 -44 -1 -122 -10
-174 -18 -52 -9 -140 -21 -195 -27 -55 -6 -128 -15 -163 -20 -35 -5 -69 -7
-77 -4 -7 3 -32 0 -55 -6 -23 -6 -65 -13 -93 -15 -29 -3 -88 -7 -132 -10 -44
-3 -107 -9 -140 -14 -33 -5 -63 -7 -67 -5 -4 3 -53 -2 -110 -11 -57 -8 -161
-19 -233 -25 -71 -6 -134 -11 -140 -11 -5 -1 -85 0 -177 1 -92 1 -171 0 -175
-3 -4 -3 -34 -1 -66 3 -32 5 -85 4 -119 0 -39 -6 -66 -5 -74 1 -8 6 -28 6 -59
-1 -25 -6 -52 -7 -58 -3 -7 4 -32 8 -57 10 -25 1 -124 5 -220 8 -96 4 -219 8
-272 10 -54 2 -100 -1 -103 -5 -3 -5 -17 -4 -30 2 -14 6 -25 19 -25 30 0 14 7
18 38 17 20 -1 48 -4 62 -8 14 -4 40 -3 59 2 19 5 93 11 165 13 72 2 217 6
321 9 105 3 242 7 305 10 63 3 126 5 140 5 14 1 125 -1 248 -3 123 -2 225 0
228 4 3 5 45 8 94 8 48 0 97 4 107 9 10 6 61 11 113 11 52 0 199 3 325 6 127
3 253 8 280 11 28 3 70 7 95 8 25 1 59 5 75 9 17 3 84 12 150 18 66 7 144 13
173 14 29 1 55 5 59 8 3 4 19 7 34 7 15 0 31 -5 35 -11z m-3361 -124 c0 -13
-11 -22 -34 -28 -21 -5 -37 -5 -44 2 -7 7 -2 13 15 20 15 5 29 15 33 21 4 6
12 9 18 7 7 -2 12 -12 12 -22z m-419 4 c3 -6 1 -16 -5 -22 -8 -8 -14 -8 -22 0
-6 6 -8 16 -5 22 4 6 11 11 16 11 5 0 12 -5 16 -11z m484 -4 c9 -11 10 -19 2
-27 -5 -5 -15 -7 -21 -4 -6 4 -11 16 -11 27 0 10 4 19 9 19 5 0 14 -7 21 -15z
m-410 -10 c7 -8 19 -15 26 -15 8 0 14 -4 14 -10 0 -5 -6 -10 -14 -10 -8 0 -26
4 -40 10 -14 5 -26 16 -26 25 0 8 6 15 14 15 7 0 19 -7 26 -15z m568 -28 c3
-16 -2 -18 -40 -15 -32 2 -44 8 -46 21 -3 16 2 18 40 15 32 -2 44 -8 46 -21z
m-315 -12 c-2 -6 -8 -10 -15 -10 -6 0 -13 6 -16 13 -3 9 2 13 14 10 11 -2 18
-8 17 -13z m-786 -10 c106 -3 282 -9 390 -12 109 -3 236 -7 283 -9 47 -2 146
-6 220 -9 74 -3 162 -8 195 -10 33 -3 117 -5 186 -6 69 0 132 -4 139 -9 7 -4
10 -14 8 -21 -3 -10 -40 -13 -154 -14 -82 -1 -232 -5 -334 -9 -102 -4 -333 -9
-515 -11 -181 -2 -346 -6 -365 -10 -19 -3 -64 -7 -100 -8 -36 -1 -69 -5 -75
-8 -5 -3 -23 -5 -40 -4 -16 1 -73 5 -125 9 -52 4 -162 9 -245 11 -82 3 -213 7
-290 10 -77 2 -171 10 -210 16 -38 7 -86 14 -105 16 -19 2 -68 8 -107 13 -40
5 -78 12 -83 15 -6 4 -9 12 -7 18 2 7 24 13 48 13 24 1 224 7 444 13 219 7
400 13 401 14 1 1 58 1 126 0 67 -1 210 -4 315 -8z m971 -3 c2 -7 -3 -12 -12
-12 -9 0 -16 7 -16 16 0 9 5 14 12 12 6 -2 14 -10 16 -16z m2283 -15 c-6 -6
-13 -8 -17 -4 -3 3 -3 11 1 16 3 6 11 8 17 5 6 -4 6 -10 -1 -17z m-1716 -47
c0 -8 -8 -16 -19 -18 -10 -2 -23 1 -28 6 -6 6 -7 15 -3 22 4 6 17 10 28 8 12
-2 22 -10 22 -18z m-3540 -11 c39 0 97 -6 130 -14 33 -8 74 -14 90 -14 17 0
75 -3 130 -6 55 -3 107 -8 115 -11 8 -4 69 -10 135 -15 66 -5 163 -13 215 -19
52 -5 140 -16 195 -25 55 -8 147 -19 205 -25 58 -5 143 -16 190 -25 47 -9 103
-18 125 -20 22 -3 84 -5 138 -6 76 -2 101 1 108 12 6 10 9 10 9 2 0 -8 14 -13
35 -13 l35 0 -7 47 -6 46 36 -6 c20 -3 39 -1 42 4 4 6 13 6 23 0 10 -6 23 -6
35 1 10 5 54 7 100 4 45 -3 125 -7 179 -8 53 -2 100 -6 104 -10 4 -4 2 -13 -4
-20 -7 -9 -34 -13 -79 -12 -37 1 -97 5 -133 9 -54 6 -68 5 -79 -9 -9 -10 -18
-13 -25 -7 -6 5 -30 12 -53 16 -33 5 -43 4 -43 -7 0 -7 -9 -19 -20 -26 -11 -7
-20 -17 -20 -22 0 -6 15 -10 33 -10 17 1 71 -2 119 -6 63 -5 92 -3 102 5 10 8
21 9 33 3 10 -5 83 -8 163 -6 80 2 157 5 172 8 15 2 46 0 69 -5 23 -5 50 -7
60 -4 11 4 16 12 12 22 -3 8 0 19 8 24 8 5 22 9 32 9 9 0 17 -6 17 -14 0 -7
10 -16 23 -20 12 -3 58 -6 102 -7 44 0 118 -4 165 -8 50 -5 90 -4 97 2 8 6 45
5 100 -2 49 -7 135 -19 193 -28 58 -9 114 -21 125 -26 11 -6 54 -17 95 -24 41
-8 90 -16 108 -20 18 -3 35 -10 38 -15 4 -5 2 -13 -2 -18 -5 -5 -90 -11 -189
-15 -99 -4 -205 -9 -235 -11 -30 -1 -192 -6 -360 -9 -168 -4 -316 -7 -330 -7
-14 0 -72 0 -130 1 -58 0 -199 -2 -315 -5 -115 -3 -219 -5 -230 -5 -11 1 -40
1 -65 0 -25 0 -65 -3 -90 -6 -25 -3 -61 -5 -80 -6 -19 0 -109 3 -199 7 -90 5
-183 9 -205 10 -23 1 -48 -1 -56 -5 -8 -4 -130 -10 -271 -13 -169 -4 -280 -12
-325 -22 -40 -8 -151 -17 -267 -21 l-198 -6 3 -46 c3 -44 4 -45 42 -53 21 -5
91 -4 155 1 64 5 204 7 311 5 107 -2 256 -8 330 -13 74 -5 146 -12 160 -15 14
-3 84 -11 155 -17 72 -6 150 -13 175 -15 25 -2 115 -8 200 -14 85 -5 169 -15
187 -21 17 -5 53 -12 79 -15 27 -2 52 -8 58 -14 6 -6 4 -11 -5 -14 -8 -2 -43
-7 -79 -11 -36 -4 -103 -9 -150 -12 -47 -2 -96 -4 -110 -4 -14 0 -88 4 -165 9
-77 5 -147 5 -156 1 -8 -4 -49 -6 -90 -4 -41 3 -114 7 -164 10 -49 4 -162 13
-249 21 -88 8 -165 13 -172 10 -7 -3 -28 -1 -46 5 -18 5 -113 11 -210 13 -97
3 -189 1 -205 -3 -16 -4 -34 -19 -41 -34 -11 -22 -11 -34 0 -62 7 -22 20 -37
33 -40 11 -3 102 -7 203 -10 101 -2 202 -1 225 5 23 5 64 6 91 2 27 -4 51 -12
53 -18 2 -6 -4 -15 -14 -19 -10 -5 -63 -9 -118 -10 -55 -1 -108 -6 -117 -10
-10 -4 -40 -2 -67 5 -33 8 -95 9 -190 5 -120 -6 -146 -4 -166 9 -13 9 -31 16
-39 16 -8 0 -23 9 -33 19 -10 10 -36 29 -58 42 -22 12 -57 31 -77 41 -20 10
-40 22 -43 28 -4 6 -21 17 -38 24 -18 8 -44 26 -59 40 -14 14 -32 33 -40 43
-7 10 -47 46 -88 80 -58 46 -82 74 -104 118 -21 44 -28 71 -27 118 0 56 3 63
38 100 21 21 56 51 78 65 22 14 63 39 90 54 44 25 57 28 105 22 30 -3 87 -5
125 -5z m5273 -25 c31 -3 58 -1 65 5 9 7 35 7 82 -1 39 -6 79 -11 90 -10 11 0
63 2 116 3 53 1 101 -1 106 -4 6 -4 51 -7 100 -8 53 -1 98 3 111 10 18 9 45 9
120 0 53 -6 129 -13 167 -15 39 -2 93 -6 120 -9 28 -3 123 -12 213 -20 90 -8
172 -17 183 -20 11 -4 19 -2 19 4 0 6 11 11 25 11 15 0 25 -6 25 -15 0 -8 -9
-19 -19 -25 -14 -7 -22 -7 -26 0 -5 8 -12 7 -22 -2 -8 -7 -29 -11 -47 -10 -17
2 -62 -2 -101 -8 -38 -6 -97 -13 -130 -15 -33 -2 -89 -6 -125 -9 -36 -4 -81
-9 -100 -11 -19 -3 -71 -7 -115 -9 -44 -3 -116 -8 -160 -11 -44 -3 -105 -11
-135 -17 -30 -5 -131 -14 -225 -18 -93 -5 -262 -15 -375 -23 -113 -8 -268 -20
-345 -26 -77 -6 -175 -16 -218 -22 -43 -6 -85 -13 -93 -16 -8 -3 -17 2 -20 11
-4 10 1 25 11 36 9 10 14 24 10 30 -5 8 -59 11 -184 9 -97 -2 -270 0 -386 4
-115 4 -244 12 -286 17 -42 5 -87 14 -100 19 -13 6 -53 15 -89 20 -36 6 -103
17 -150 25 -47 9 -110 20 -140 26 -30 6 -94 9 -142 8 -48 -2 -90 1 -95 6 -4 4
0 13 9 20 11 8 50 11 120 9 57 -1 112 -2 123 -2 11 0 83 1 160 3 77 2 196 6
265 10 69 3 193 11 275 17 83 6 175 12 205 14 30 1 136 6 235 10 99 4 182 9
184 11 2 2 146 1 320 -1 174 -3 340 -7 369 -11z m-2278 -58 c0 -8 -3 -17 -7
-19 -5 -3 -32 -8 -61 -12 -49 -6 -54 -5 -50 11 2 10 14 21 28 25 14 4 40 7 58
8 22 1 32 -4 32 -13z m-1316 -2 c9 -3 16 -12 16 -19 0 -8 -4 -16 -9 -19 -5 -3
-26 1 -47 10 -28 12 -34 18 -23 25 8 5 22 9 31 9 9 0 23 -3 32 -6z m120 -10
c3 -9 6 -25 6 -36 0 -11 -3 -18 -7 -16 -5 2 -21 10 -38 18 -16 8 -33 19 -37
25 -4 6 2 13 15 17 12 3 29 6 38 7 9 1 20 -6 23 -15z m987 6 c10 -6 19 -14 19
-19 0 -4 -12 -13 -27 -20 -19 -9 -29 -9 -31 -2 -2 6 -22 11 -43 11 -22 0 -48
-4 -57 -9 -10 -5 -51 -6 -92 -3 -57 5 -75 11 -75 22 0 13 17 15 103 12 56 -1
110 2 120 7 9 6 27 11 40 11 13 0 32 -5 43 -10z m-331 -15 c10 -12 10 -19 2
-27 -6 -6 -22 -8 -36 -4 -17 4 -26 13 -26 26 0 14 7 20 24 20 13 0 29 -7 36
-15z m1820 -166 c0 -4 -5 -11 -10 -14 -6 -4 -39 -9 -73 -12 -34 -2 -89 -6
-122 -8 -33 -1 -68 -6 -78 -10 -12 -5 -24 -2 -35 9 -12 12 -13 19 -4 28 8 8
18 9 36 1 17 -9 27 -8 35 0 7 7 48 12 105 12 52 0 97 3 101 6 3 4 15 5 26 2
10 -3 19 -9 19 -14z m1235 1 c3 -5 -1 -10 -9 -10 -9 0 -16 5 -16 10 0 6 4 10
9 10 6 0 13 -4 16 -10z m-255 -15 c0 -8 -4 -15 -8 -15 -5 0 -12 3 -15 6 -4 4
-4 11 -1 15 3 5 9 9 15 9 5 0 9 -7 9 -15z m-1345 -15 c0 -8 -10 -16 -22 -18
-15 -2 -23 2 -23 11 0 7 3 17 7 21 4 4 14 5 23 4 8 -2 15 -10 15 -18z m-1166
-165 c74 -3 142 -10 152 -16 11 -5 19 -18 19 -27 0 -10 6 -26 13 -36 12 -16
20 -16 157 0 80 9 181 20 225 24 44 5 127 14 185 20 58 6 206 13 330 14 124 2
243 7 265 11 31 5 44 3 53 -8 10 -12 10 -17 1 -23 -7 -4 -24 -8 -38 -10 -14
-1 -57 -7 -95 -12 -39 -6 -99 -17 -135 -26 -36 -8 -91 -20 -121 -25 -30 -5
-126 -17 -213 -27 -105 -11 -250 -17 -435 -18 -152 -1 -349 2 -437 6 -88 3
-187 9 -220 12 -33 3 -134 10 -225 16 -91 6 -174 14 -185 17 -11 4 -33 6 -48
5 -15 -2 -36 2 -47 8 -11 6 -50 12 -87 15 -37 2 -95 9 -128 15 -33 6 -96 13
-139 15 -54 3 -84 9 -95 20 -12 12 -13 17 -3 27 9 9 20 9 40 3 15 -6 128 -10
252 -9 124 1 346 4 494 7 147 3 271 8 273 11 3 3 17 3 32 1 14 -2 86 -7 160
-10z m2126 -41 c110 -3 227 -6 260 -7 33 -1 96 -1 140 1 44 1 207 2 362 2 155
0 284 -4 287 -9 3 -5 -1 -14 -9 -21 -8 -7 -46 -17 -83 -22 -37 -5 -83 -11
-102 -13 -19 -2 -69 -9 -110 -15 -41 -7 -91 -13 -110 -14 -19 -2 -84 -6 -145
-10 -60 -4 -162 -11 -225 -16 -63 -5 -239 -15 -390 -21 -151 -6 -309 -9 -350
-6 -41 3 -96 2 -122 -2 -25 -4 -70 -5 -100 -1 -29 4 -90 3 -135 -3 -46 -5 -90
-6 -99 -3 -12 5 -14 9 -5 20 6 7 39 17 73 20 34 4 98 19 142 33 45 14 98 34
118 44 20 10 41 25 45 33 4 7 17 16 28 19 11 2 90 2 175 0 85 -3 245 -7 355
-9z m-2670 -145 c5 -6 5 -13 -2 -20 -7 -7 -28 -8 -57 -4 -28 5 -46 12 -46 20
0 8 10 16 23 18 12 3 33 3 47 0 14 -2 29 -9 35 -14z m643 -101 c7 -7 12 -18
12 -26 0 -10 -14 -12 -52 -10 -39 2 -53 7 -53 18 0 9 13 17 35 21 19 4 37 7
41 8 3 0 10 -4 17 -11z m436 0 c10 -6 14 -14 10 -18 -5 -5 -97 -12 -206 -15
-145 -5 -198 -3 -203 5 -4 7 -2 16 6 21 7 4 69 8 137 8 69 0 127 3 130 6 3 3
29 5 57 4 27 -1 58 -6 69 -11z m-559 -18 c0 -8 -8 -16 -18 -18 -10 -2 -25 -1
-34 2 -12 5 -13 9 -3 22 8 8 23 14 34 12 12 -2 21 -10 21 -18z m-1736 1 c8 -5
11 -16 7 -26 -5 -14 -14 -16 -54 -10 -26 4 -51 11 -57 16 -6 7 -5 13 5 19 8 5
31 10 50 10 19 0 41 -4 49 -9z m146 -26 c0 -17 -6 -20 -35 -17 -19 1 -39 7
-43 11 -5 5 -6 14 -2 21 4 6 23 10 43 8 29 -2 37 -7 37 -23z m3455 2 c58 -1
111 -6 119 -11 7 -5 81 -10 165 -13 83 -2 185 -6 226 -9 41 -3 98 -7 125 -10
28 -4 55 -10 61 -15 7 -6 35 -12 63 -16 28 -3 51 -9 51 -13 0 -4 -8 -11 -17
-16 -10 -4 -36 -8 -58 -9 -22 -1 -107 -7 -190 -13 -82 -7 -175 -16 -205 -22
-30 -5 -139 -14 -242 -20 -103 -5 -196 -7 -205 -3 -10 3 -27 15 -37 26 -16 16
-27 18 -75 13 -31 -3 -110 -10 -176 -16 -66 -5 -142 -10 -170 -11 -27 -1 -133
-1 -235 -1 -102 0 -230 -1 -285 -3 -55 -2 -174 -6 -265 -9 -90 -3 -169 -1
-175 3 -5 5 -50 11 -100 15 -49 3 -137 8 -194 11 -57 3 -108 8 -112 11 -5 3
-9 11 -9 17 0 9 18 12 58 10 31 -1 91 -2 132 -2 41 0 113 4 160 8 47 5 92 5
101 1 9 -5 60 -6 115 -2 54 4 122 7 149 5 28 -1 109 3 180 8 72 5 159 14 195
20 36 6 92 12 125 14 33 2 76 6 95 9 19 3 76 12 125 20 50 8 106 19 125 23 19
5 89 8 155 6 66 -2 167 -5 225 -6z m-3100 -122 c47 -2 166 -4 265 -6 99 -1
191 -6 205 -12 14 -5 75 -10 135 -13 61 -2 169 -6 240 -10 72 -3 175 -7 230
-9 55 -2 147 -6 204 -9 58 -4 147 -15 199 -26 52 -10 96 -21 99 -24 3 -2 2 -9
-1 -14 -3 -5 -35 -10 -71 -10 -36 -1 -70 -4 -76 -7 -5 -4 -62 -13 -127 -22
-64 -8 -148 -18 -187 -23 -38 -5 -100 -18 -137 -29 -57 -18 -68 -25 -77 -53
-6 -17 -11 -47 -11 -67 0 -20 6 -47 13 -59 6 -13 23 -30 37 -37 14 -7 36 -17
50 -23 14 -6 44 -17 68 -26 24 -9 47 -14 52 -11 4 3 27 -2 51 -11 24 -8 80
-18 124 -21 44 -3 96 -12 116 -19 25 -8 40 -9 47 -2 6 6 15 7 21 4 6 -4 11
-13 11 -20 0 -8 -17 -16 -42 -19 -23 -3 -50 -1 -59 4 -10 5 -91 9 -181 8 -90
0 -233 2 -318 5 -85 2 -162 7 -170 10 -8 2 -42 7 -75 10 -33 4 -89 11 -125 16
-36 5 -110 16 -165 25 -55 8 -134 22 -175 30 -41 8 -91 14 -110 15 -19 0 -55
9 -79 20 -24 11 -55 20 -70 20 -14 0 -51 9 -81 20 -30 11 -71 20 -90 20 -20 0
-40 4 -45 8 -6 5 -35 14 -65 22 -30 7 -62 16 -70 20 -8 4 -30 14 -48 23 -19 9
-44 17 -56 17 -12 0 -44 14 -72 31 -27 18 -69 39 -94 47 -25 8 -49 19 -54 23
-6 5 -21 9 -35 9 -14 0 -36 11 -50 24 -15 13 -53 38 -86 55 -33 17 -67 31 -76
31 -9 0 -21 6 -27 13 -6 7 -8 18 -4 24 4 6 32 14 62 17 30 4 111 8 179 10 68
3 135 0 149 -5 19 -8 29 -6 41 6 14 14 45 15 271 9 140 -4 293 -8 340 -9z
m2180 -189 c28 -23 31 -24 202 -20 95 2 187 4 203 4 17 0 73 -2 125 -4 52 -2
133 -4 180 -6 47 -1 123 -8 170 -16 47 -9 93 -18 103 -20 9 -3 17 -11 17 -19
0 -7 -41 -28 -97 -48 -54 -20 -132 -45 -173 -56 -41 -11 -120 -32 -175 -46
-55 -15 -125 -32 -155 -40 -30 -7 -75 -19 -100 -25 -25 -7 -65 -14 -89 -15
-24 -2 -62 -8 -85 -13 -22 -6 -102 -18 -176 -27 -74 -9 -146 -19 -160 -22 -14
-3 -85 -6 -158 -7 -115 -1 -136 1 -152 16 -11 10 -24 18 -30 18 -6 0 -18 4
-28 9 -9 5 -36 14 -59 20 -24 6 -60 15 -80 21 -21 5 -94 23 -163 39 -69 16
-154 36 -190 45 -36 8 -79 17 -97 21 -17 3 -36 12 -42 18 -5 7 -7 17 -3 23 4
6 22 18 41 27 18 9 38 14 43 11 5 -3 39 -1 76 6 37 6 101 19 142 27 41 9 109
19 150 23 41 4 134 17 205 28 72 12 186 26 255 32 69 6 145 14 170 19 25 5 58
7 73 5 16 -2 42 -15 57 -28z"/>
<path d="M4663 3516 c-50 -20 -103 -51 -136 -79 -34 -29 -63 -66 -79 -99 -14
-29 -31 -82 -37 -117 -7 -35 -10 -66 -7 -69 3 -3 15 15 26 39 11 24 20 49 20
55 0 5 9 28 19 50 11 21 29 48 41 59 12 11 28 32 36 47 8 16 23 28 33 28 10 0
35 11 55 25 20 14 45 25 56 25 10 0 31 5 46 10 15 6 29 9 31 6 3 -2 -1 -22 -7
-43 -7 -21 -17 -51 -23 -68 -5 -16 -30 -77 -55 -135 -25 -58 -54 -117 -64
-132 -10 -14 -18 -30 -18 -35 0 -5 -18 -27 -40 -48 -22 -21 -40 -45 -40 -52 0
-7 -12 -20 -27 -30 -16 -10 -33 -22 -38 -28 -6 -5 -19 -27 -28 -47 -9 -20 -20
-49 -23 -65 -4 -20 0 -33 13 -46 19 -16 21 -15 64 36 24 28 52 63 60 77 9 14
34 44 55 66 22 23 50 61 64 84 14 23 43 61 66 85 23 23 49 47 58 52 10 5 61
49 114 96 54 47 124 103 157 122 33 20 72 39 87 42 20 4 29 1 34 -11 4 -9 19
-23 35 -32 28 -14 31 -13 63 11 18 14 43 25 54 25 18 0 22 -6 22 -29 0 -17 -4
-32 -9 -36 -6 -3 -40 -66 -76 -141 -38 -78 -73 -137 -83 -140 -9 -3 -36 -15
-60 -27 -24 -12 -58 -40 -76 -62 -18 -22 -38 -50 -44 -62 -7 -12 -12 -37 -12
-55 0 -18 9 -48 20 -66 11 -18 32 -37 46 -42 21 -8 31 -5 60 18 19 15 64 70
99 123 56 84 72 100 118 123 30 14 63 26 75 26 11 0 23 4 26 9 3 4 18 11 33
14 16 3 54 18 86 32 31 15 57 31 57 36 0 5 9 9 20 9 11 0 20 -7 20 -15 0 -9
-20 -50 -44 -93 -24 -42 -50 -93 -58 -112 -9 -19 -21 -56 -28 -81 -8 -32 -9
-53 -2 -65 6 -11 19 -27 29 -36 15 -14 26 -16 54 -8 18 5 44 20 56 32 13 13
34 37 47 53 13 17 27 41 31 55 4 14 18 35 30 47 15 16 24 41 29 77 3 30 15 75
25 99 11 25 29 51 40 57 12 6 51 20 87 31 37 11 70 17 74 12 5 -4 2 -26 -6
-48 -7 -22 -19 -66 -25 -97 -11 -54 -10 -58 16 -92 15 -20 34 -36 41 -36 9 0
14 -12 14 -36 0 -25 9 -48 31 -75 20 -25 39 -39 54 -39 12 0 43 12 69 26 25
14 46 31 46 38 0 7 20 22 44 33 26 13 65 46 95 82 27 34 54 77 60 97 5 19 29
56 53 82 31 34 56 50 88 59 25 7 64 12 88 13 23 0 42 -1 42 -3 0 -1 -9 -20
-20 -42 -11 -22 -20 -44 -20 -51 0 -6 -7 -17 -15 -24 -10 -9 -15 -32 -15 -76
0 -59 3 -67 36 -104 20 -22 43 -40 50 -40 9 0 14 12 14 33 0 18 -5 38 -11 44
-6 6 -9 21 -7 34 2 20 8 23 33 21 17 -2 66 -3 110 -2 56 1 97 7 135 23 30 11
62 27 71 34 8 7 19 13 23 13 5 0 27 14 50 32 22 17 46 38 53 46 7 8 19 12 28
9 8 -4 15 -17 15 -31 0 -15 20 -45 58 -84 34 -36 73 -66 98 -75 33 -13 55 -14
109 -6 36 5 75 14 85 19 10 6 26 10 35 10 8 0 54 18 101 40 47 22 90 40 94 40
5 0 19 4 32 10 13 5 46 23 73 39 28 17 66 39 85 50 19 11 49 32 67 48 22 20
33 40 37 70 5 36 3 44 -14 53 -11 6 -25 8 -30 5 -5 -3 -19 -23 -31 -45 -14
-24 -34 -43 -52 -50 -17 -6 -38 -16 -46 -23 -9 -7 -54 -29 -101 -49 -47 -20
-112 -44 -145 -53 -33 -9 -85 -26 -115 -38 -41 -16 -76 -22 -135 -22 -66 1
-87 5 -117 23 -29 18 -39 32 -43 60 -4 20 -8 42 -9 47 -2 6 14 29 34 52 20 23
42 60 49 82 6 23 21 49 31 59 15 14 19 26 14 50 -4 21 -12 32 -23 32 -9 0 -35
-17 -56 -39 -22 -21 -46 -47 -52 -57 -7 -11 -20 -34 -28 -53 -8 -18 -15 -44
-15 -56 0 -14 -13 -34 -32 -50 -18 -15 -62 -45 -96 -67 -35 -22 -86 -51 -114
-65 -38 -19 -72 -27 -134 -31 -82 -5 -84 -4 -84 17 0 12 19 59 43 104 24 45
48 96 55 114 9 27 8 36 -8 55 l-18 23 -53 -23 c-30 -12 -76 -28 -104 -37 -27
-8 -76 -15 -107 -15 -35 0 -68 6 -86 17 -25 14 -32 15 -46 4 -9 -7 -16 -23
-16 -34 0 -11 7 -29 17 -39 15 -17 14 -21 -12 -71 -16 -28 -38 -66 -49 -82
-12 -17 -46 -53 -76 -80 -30 -28 -81 -64 -112 -80 -43 -22 -60 -27 -69 -18 -8
8 -7 19 5 44 9 18 16 47 16 66 0 19 -5 43 -10 54 -6 10 -20 19 -30 19 -15 0
-20 7 -20 24 0 14 4 27 9 30 5 4 25 35 45 71 20 36 36 79 36 96 0 21 -6 32
-23 40 -18 8 -34 5 -72 -11 -28 -12 -93 -33 -145 -47 -52 -14 -104 -25 -115
-25 -11 1 -24 9 -30 18 -5 10 -18 26 -28 36 -17 18 -18 18 -58 -2 -22 -12 -43
-28 -46 -36 -3 -8 -47 -34 -97 -58 -50 -24 -127 -57 -171 -74 -47 -17 -84 -26
-89 -21 -6 5 3 35 23 76 18 38 43 89 56 114 13 26 26 65 30 87 4 26 1 51 -9
76 -8 20 -19 36 -23 36 -5 0 -26 -9 -48 -20 -22 -11 -46 -20 -54 -20 -8 0 -22
-6 -30 -14 -9 -8 -25 -15 -36 -16 -11 -1 -26 -2 -32 -1 -7 0 -13 12 -13 25 0
14 -4 27 -9 30 -5 3 -37 -9 -72 -28 -35 -18 -68 -43 -74 -55 -5 -11 -17 -21
-26 -21 -8 0 -49 -25 -90 -56 -41 -31 -91 -72 -111 -92 -25 -24 -41 -33 -48
-26 -7 7 -5 28 5 64 9 30 18 72 22 93 3 21 10 40 14 43 5 3 9 27 9 54 0 39 -4
52 -19 60 -11 5 -26 10 -33 10 -7 0 -50 -15 -95 -34z m1037 -550 c0 -8 -9 -24
-19 -37 -18 -22 -20 -22 -26 -6 -4 10 0 28 9 42 9 14 21 23 26 20 6 -4 10 -12
10 -19z"/>
<path d="M3402 3203 c-18 -9 -45 -32 -60 -52 -14 -20 -42 -54 -62 -76 -20 -22
-43 -56 -50 -75 -6 -19 -18 -48 -25 -65 -8 -16 -19 -44 -25 -61 -6 -17 -22
-37 -36 -44 -13 -8 -33 -28 -44 -47 -10 -18 -24 -33 -29 -33 -5 0 -11 6 -14
13 -3 9 -12 8 -38 -5 -19 -9 -54 -25 -79 -36 -25 -11 -59 -23 -77 -27 -18 -3
-34 -2 -37 4 -4 6 2 28 14 50 11 22 20 46 20 53 0 7 9 19 20 26 16 10 20 22
19 70 -1 31 -4 68 -8 82 -6 19 -14 25 -32 23 -14 -1 -36 -10 -50 -22 -13 -11
-70 -59 -127 -107 -69 -57 -107 -83 -113 -77 -7 7 -3 22 10 44 12 19 21 46 21
60 0 14 -6 33 -14 44 -11 15 -21 17 -60 12 -25 -4 -59 -14 -74 -22 -15 -8 -37
-22 -49 -31 -21 -15 -23 -15 -29 -1 -3 9 5 31 20 50 14 19 26 39 26 45 0 6 -5
23 -12 37 -8 17 -19 25 -37 25 -14 0 -53 -13 -87 -29 -44 -21 -90 -57 -171
-137 -60 -60 -141 -137 -178 -172 -63 -58 -70 -62 -84 -47 -15 15 -14 18 12
36 15 12 27 25 27 31 0 5 9 21 20 35 11 14 20 34 20 43 0 10 7 23 15 30 8 7
15 19 15 27 0 8 16 34 36 58 23 29 34 52 32 67 -2 13 -15 28 -30 36 -15 7 -30
21 -33 32 -4 11 -15 25 -25 30 -10 5 -27 7 -37 3 -10 -3 -43 -21 -74 -40 -31
-19 -62 -44 -68 -56 -7 -12 -32 -38 -57 -57 -24 -19 -44 -43 -44 -54 0 -10 -6
-24 -14 -30 -8 -6 -42 -65 -76 -131 -34 -66 -66 -124 -71 -129 -5 -6 -9 -22
-9 -36 0 -14 7 -36 16 -48 8 -12 25 -22 37 -22 12 0 38 10 58 23 20 12 49 36
63 54 15 18 36 35 46 38 12 4 20 15 20 30 0 12 8 26 17 29 9 4 19 2 23 -4 4
-6 5 -22 2 -36 -2 -13 3 -35 12 -49 10 -15 26 -25 40 -25 15 0 46 20 81 53 31
28 75 69 96 90 21 21 39 44 39 52 0 8 6 15 14 15 7 0 31 21 52 48 21 26 56 64
78 85 22 20 48 37 57 37 9 0 26 9 39 20 13 11 27 20 31 20 4 0 11 -5 14 -10 3
-6 3 -19 0 -30 -4 -11 -13 -20 -20 -20 -8 0 -23 -17 -33 -37 -11 -21 -27 -52
-36 -69 -9 -18 -23 -37 -31 -44 -8 -6 -19 -27 -25 -46 -10 -29 -9 -39 5 -61
l17 -25 112 114 c61 63 121 118 133 122 11 4 27 13 33 21 7 8 21 15 31 15 11
0 19 -6 19 -14 0 -8 -4 -18 -10 -21 -5 -3 -10 -14 -10 -24 0 -10 -9 -26 -20
-36 -17 -16 -20 -26 -14 -64 4 -25 11 -54 16 -63 5 -10 20 -18 33 -18 14 0 42
17 69 42 25 22 46 47 46 55 0 7 8 16 18 20 9 3 29 18 43 34 14 15 29 34 32 43
4 9 13 16 20 16 8 0 25 10 39 23 13 12 27 31 31 41 5 12 11 16 17 10 6 -6 3
-26 -6 -54 -9 -25 -24 -53 -34 -62 -9 -9 -27 -37 -40 -62 -18 -39 -20 -50 -10
-78 6 -18 25 -44 41 -57 26 -20 34 -22 55 -12 14 6 38 11 54 11 16 0 80 24
142 54 62 30 124 57 138 61 16 3 39 -2 63 -14 36 -18 42 -19 90 -5 29 8 61 18
72 23 11 4 40 17 65 29 25 12 58 24 73 28 16 4 31 13 34 20 3 8 11 14 19 14 8
0 20 -15 28 -34 10 -23 28 -42 55 -55 22 -12 47 -21 56 -21 9 0 32 17 51 38
19 20 37 46 40 57 4 11 14 31 24 45 9 14 25 50 36 80 10 30 21 60 25 65 4 6
10 26 14 45 4 22 1 48 -9 72 -9 20 -24 38 -33 40 -10 3 -35 -4 -56 -14 -21
-11 -40 -25 -44 -33 -3 -8 -11 -15 -17 -15 -7 0 -38 -26 -69 -57 -31 -32 -61
-62 -67 -68 -5 -5 -29 -30 -53 -55 -26 -28 -62 -52 -92 -63 -28 -11 -59 -22
-70 -27 -11 -4 -39 -13 -61 -19 -23 -6 -46 -11 -53 -11 -6 0 -11 6 -11 13 0 7
21 36 48 63 26 28 56 57 67 65 12 8 36 37 55 64 19 28 36 52 37 54 1 2 13 4
25 5 13 1 24 8 26 19 2 12 -3 17 -18 17 -19 0 -22 4 -17 33 2 17 0 40 -5 50
-5 11 -20 17 -41 17 -18 0 -47 -8 -65 -17z m453 -103 c3 -5 -8 -37 -25 -70
-22 -44 -36 -60 -48 -58 -12 3 -16 12 -15 31 1 15 16 46 33 67 18 22 36 40 40
40 5 0 11 -4 15 -10z m-1945 -96 c0 -9 -7 -31 -16 -50 -9 -19 -33 -51 -53 -72
-20 -21 -56 -62 -81 -91 -25 -29 -54 -67 -65 -85 -11 -17 -35 -51 -54 -74 -19
-23 -40 -42 -48 -42 -7 0 -13 6 -13 14 0 7 9 25 20 39 11 14 20 33 20 44 1 10
8 34 18 53 9 19 36 67 59 105 24 39 64 88 90 110 25 22 56 45 67 52 12 7 29
12 39 13 9 0 17 -7 17 -16z"/>
</g>
</svg>
