<?xml version="1.0" encoding="UTF-8"?>
<svg version="1.1" xmlns="http://www.w3.org/2000/svg" width="378" height="85" >
<path d="M82.065,16.973c-0.189,0.116-2.521,3.498-3.381,4.313c-0.578,0.548-4.694,3.949-3.923,2.299 c1.593-3.41,5.742-6.303,8.519-8.683c4.661-3.995,9.705-7.546,14.983-10.673c1.617-0.958,3.291-1.82,4.977-2.648 c0.489-0.24,2.019-1.732,0.759-1.119c-1.721,0.839-3.201,2.012-4.603,3.304c-1.918,1.768-3.246,4.334-4.693,6.487 c-2.45,3.646-5.065,7.175-7.799,10.612c-7.773,9.771-16.955,18.693-27.927,24.786C48.441,51.503,36.88,56.085,25.239,59.167 c-5.854,1.551-21.117,5.52-22.828-3.788c-1.184-6.436,4.921-12.073,9.488-15.439c9.25-6.817,20.907-10.494,31.842-13.519 c10.359-2.866,20.971-4.809,31.598-6.357c0.531-0.077,2.53-1.054,1.03-0.835c-21.613,3.15-45.178,7.451-64.009,19.222 C7.374,41.568,2.229,45.816,0.459,51.647c-1.729,5.701,1.598,9.356,7.061,10.198c7.551,1.164,16.074-1.359,23.19-3.586 c9.995-3.127,19.68-7.2,28.958-12.052C76.51,37.401,89.052,22.004,99.273,6.349c1.618-2.479,3.829-4.713,6.57-5.933 c1.394-0.62-0.816-0.421-1.31-0.208C93.127,5.14,80.641,13.269,72.984,23.252c-1.929,2.516,1.119,1.963,2.709,1.349 c2.301-0.888,9.627-5.898,8.987-8.831c-0.029-0.135-0.318-0.119-0.396-0.123c-1.436-0.063-2.773,0.604-3.972,1.338 C79.369,17.563,81.69,17.203,82.065,16.973L82.065,16.973z"/>
<path d="M83.244,46.334c4.046-2.688,12.982-8.572,12.861-14.136c-0.095-4.375-10.604,1.917-11.749,2.586 c-9.108,5.33-16.477,12.313-23.287,20.313c-0.424,0.498-5.311,5.712-3.616,6.544c1.236,0.606,2.887-0.478,3.946-1.028 c6.317-3.287,12.491-6.857,18.721-10.306c3.126-1.73,6.258-3.452,9.417-5.124c1.123-0.594,2.253-1.175,3.402-1.718 c1.863-0.882-0.488-0.537-1.41,0.191c-5.247,4.146-12.444,7.415-16.427,12.932c-2.739,3.794,5.836,0.622,6.531,0.262 c3.94-2.046,7.633-4.605,11.356-7.013c1.801-1.165,3.607-2.32,5.442-3.431c0.631-0.383,1.273-0.744,1.919-1.102 c0.42-0.231,0.851-0.442,1.291-0.632c0.617-0.222,0.651-0.24,0.102-0.056c-0.27,2.921-6.457,6.965-8.485,8.705 c-2.178,1.87-4.406,3.688-6.667,5.455c-1.013,0.793,1.109,0.939,1.654,0.556c4.55-3.201,9.211-6.261,13.995-9.101 c1.067-0.634,8.496-5.108,7.961-2.433c-0.528,2.646-5.761,8.47-8.483,9.024c0.439,0.094,0.879,0.188,1.318,0.282 c0.04,0.596,0.234,0.091,0.844-0.323c0.948-0.644,1.923-1.247,2.894-1.854c2.496-1.56,5.038-3.045,7.618-4.459 c1.13-0.619,2.278-1.199,3.463-1.705c0.81-0.313,0.687-0.224-0.368,0.269c-0.379,0.644-0.969,1.217-1.456,1.776 c-1.075,1.233-3.443,3.285-2.735,5.155c1.549,4.094,21.502-5.957,23.623-8.263c0.739-0.804-0.535-0.914-1.091-0.794 c-2.319,0.504-6.348,4.893-7.173,7.034c-1.048,2.72,4.546,0.561,5.28,0.3c5.593-1.988,11.02-4.447,16.661-6.3 c1.528-0.502,1.851-0.968,0.552,0.445c-1.028,1.118-2.258,2.075-3.426,3.039c-1.916,1.579-3.908,3.076-5.921,4.528 c-1.274,0.919,0.708,1.242,1.444,0.711c3.541-2.555,7.265-5.156,10.229-8.381c2.312-2.515-0.908-2.189-2.594-1.715 c-5.307,1.491-10.398,3.891-15.544,5.845c-1.102,0.418-2.21,0.817-3.331,1.184c-1.737,0.566-1.405,0.546-0.438-0.757 c0.936-1.26,2.18-2.345,3.323-3.411c0.531-0.495,2.445-1.594,1.255-1.335c-0.364-0.265-0.727-0.529-1.091-0.794 c-1.496,1.628-4.377,2.554-6.302,3.481c-3.252,1.568-6.596,3.022-10.041,4.11c-8.39,2.651,3.37-6.515,0.932-7.541 c-2.547-1.071-7.823,3.015-9.771,4.138c-1.333,0.768-9.281,4.334-9.154,6.236c0.034,0.509,1.057,0.336,1.318,0.283 c3.68-0.75,7.277-5.439,9.333-8.275c1.573-2.169,1.736-5.145-1.688-4.389c-8.169,1.803-16.157,8.546-22.88,13.275 c0.551,0.186,1.103,0.37,1.654,0.556c5.171-4.044,10.941-8.245,14.921-13.518c0.798-1.057,1.123-2.571-0.645-2.496 c-2.272,0.096-4.593,1.834-6.451,2.959c-3.892,2.357-7.653,4.929-11.512,7.339c-1.828,1.141-3.683,2.25-5.618,3.2 c-1.933,0.949-2.585,0.591-0.937-1.136c3.163-3.312,7.305-5.816,11.022-8.445c1.211-0.856,5.565-3.043,5.864-4.744 c0.036-0.207-0.071-0.327-0.239-0.426c-1.021-0.597-2.832,0.563-3.695,0.983c-3.076,1.498-6.07,3.174-9.07,4.817 c-7.244,3.967-14.396,8.111-21.703,11.963c-2.348,1.237-0.637,0.073,0.328-1.33c2.414-3.512,5.479-6.626,8.373-9.732 c4.063-4.36,8.757-7.961,13.717-11.248c2.327-1.542,4.746-2.961,7.26-4.174c3.18-1.535,4.476-1.007,2.413,2.496 c-2.377,4.038-6.824,7.373-10.683,9.936C80.49,46.494,82.495,46.833,83.244,46.334L83.244,46.334z"/>
<path d="M172.057,38.734c3.83-1.208,8.117-3.053,10.234-6.642c0.632-1.072-1.579-1.044-2.066-0.427 c-2.827,3.584-5.889,6.929-8.953,10.306c-4.208,4.639-8.698,10.307-14.254,13.362c0.421,0.38,0.842,0.761,1.263,1.141 c8.089-5.348,16.351-10.602,23.988-16.585c0.806-0.631,1.669-1.186,2.593-1.625c0.98-0.466,0.355,0.216-0.125,1.187 c-3.082,6.223-9.148,11.605-13.845,16.548c-1.033,1.087,1.249,1.245,1.925,0.629c3.151-2.871,6.447-5.595,9.818-8.202 c2.521-1.949,5.131-3.824,7.921-5.371c2.588-1.435,5.135-2.207,4.459,1.69c-0.193,1.121,2.172,0.796,2.344-0.197 c1.269-7.329-6.686-3.525-10.006-1.503c-5.928,3.611-11.34,8.288-16.462,12.954c0.642,0.21,1.283,0.419,1.925,0.629 c4.808-5.061,12.135-11.172,14.585-18.01c0.87-2.429-1.698-2.353-3.267-1.764c-4.243,1.59-8.095,5.56-11.756,8.096 c-5.161,3.576-10.379,7.071-15.617,10.534c-1.189,0.786,0.388,1.622,1.263,1.141c5.359-2.948,9.659-8.052,13.758-12.479 c3.568-3.854,7.114-7.727,10.368-11.852c-0.689-0.142-1.377-0.285-2.066-0.427c-1.699,2.88-5.351,4.386-8.433,5.358 C170.258,37.664,170.643,39.18,172.057,38.734L172.057,38.734z"/>
<path d="M191.942,56.567c-0.214-0.11-0.252-0.197-0.296-0.39c-0.132-0.582,0.72-1.167,1.108-1.45 c0.364-0.266,0.3-0.56-0.161-0.601c-0.538-0.049-1.201,0.119-1.639,0.438c-0.68,0.497-1.636,1.19-1.638,2.131 c0,0.269,0.213,0.573,0.451,0.695c0.452,0.233,1.055,0.086,1.505-0.085C191.365,57.271,192.361,56.783,191.942,56.567 L191.942,56.567z"/>
<path d="M224.677,39.409c-0.184,0.012-0.592,1.651-0.854,2.129c-1.622,2.946-4.283,5.563-6.525,7.996 c-2.071,2.249-4.308,4.419-6.859,6.118c-3.771,2.511-1.847-2.685-1.441-3.655c4.989-11.945,16.324-21.867,28.857-24.714 c2.391-0.543,5.062-0.957,7.503-0.533c2.275,0.395-2.936,3.071-3.327,3.376c-1.823,1.425-5.906,4.823-3.269,7.235 c3.586,3.28-4.82,8.839-6.869,10.849c-1.992,1.955-3.781,4.101-5.849,5.98c-2.302,2.092-0.033-2.749,0.358-3.244 c1.575-1.992,3.707-3.632,5.814-5.014c2.213-1.45,8.126-2.842,6.387,1.004c-1.246,2.755-4.277,4.714-6.198,6.999 c-3.041,3.617,8.546-0.467,9.303-0.791c4.08-1.75,8.021-3.82,12.025-5.732c0.689-0.329,4.283-2.346,2.02-1.207 c-1.698,0.854-3.444,1.616-5.153,2.451c-2.272,1.11-5.294,2.332-6.933,4.356c-1.717,2.121,0.849,3.144,2.771,2.899 c4.404-0.559,8.313-2.457,11.964-4.931c0.957-0.648-1.403-0.211-1.76-0.008c-1.855,1.056-9.234,6.071-2.844,5.536 c4.119-0.346,8.076-1.541,11.904-3.07c2.42-0.966,4.802-2.011,7.188-3.056c3.9-1.707,0.962,0.046-0.733,1.227 c-1.206,0.84-2.422,3.47-0.12,3.48c2.171,0.011,4.153-1.38,5.669-2.78c7.42-6.856,1.131-19.027-4.583-24.727 c-2.925-2.917-9.185-4.489-12.37-0.956c-1.729,1.92,2.499,4.135,3.561,4.685c5.529,2.863,12.227,3.563,18.352,3.547 c6.005-0.016,11.97-1.205,17.919-1.874c1.882-0.211,7.513,0.403,8.734-0.454c-0.895,0.628-1.783,1.267-2.67,1.907 c-5.703,4.115-11.876,8.306-16.524,13.637c-3.114,3.571,1.999,3.564,4.494,3.166c2.457-0.393,9.749-2.589,7.397-6.241 c-0.271-0.422-1.499,0.041-1.817,0.193c-0.37,0.179-1.64,0.774-1.011,1.271c0.61,0.481,2.154,0.238,2.815,0.198 c3.453-0.213,6.878-0.764,10.293-1.298c0.556-0.087,2.14-1.019,0.738-0.818c-2.041,0.292-4.463,0.734-6.217,1.874 c-1.664,1.08-3.106,3.737-0.205,4.488c2.277,0.589,15.521-0.745,14.171-5.018c-0.156-0.494-1.792,0.162-2.039,0.306 c-0.949,0.554-1.222,1.61-1.286,2.645c-0.125,2.018,3.438,1.667,4.602,1.604c2.071-0.113,8.694-1.612,8.977-4.306 c0.048-0.463-2.022,0.292-2.203,0.419c-0.918,0.645-0.75,2.629-0.556,3.508c0.483,2.19,3.609,2.134,5.264,1.911 c1.954-0.263,3.771-1.206,5.481-2.129c1.541-0.83,8.575-6.759,8.287-2.945c-0.424,5.605,4.813,4.325,8.919,3.972 c5.448-0.47,11.553-1.457,16.397-4.144c0.899-0.498,7.901-6.2,3.808-6.379c-4.592-0.202-9.475,3.13-13.1,5.492 c-7.232,4.711-12.782,11.504-19.298,17.096c-9.014,7.734-19.375,14.042-30.932,17.056c-1.348,0.351-1.175,0.983,0.17,0.633 c12.333-3.215,23.136-9.777,32.849-17.905c5.089-4.259,9.443-9.288,14.509-13.555c2.737-2.306,5.759-4.258,8.89-5.98 c2.772-1.525,8.188-2.793,4.244,1.515c-3.939,4.304-12.047,4.928-17.507,5.397c-1.862,0.16-5.995,0.864-6.688-1.556 c-0.315-1.099,0.734-3.284-0.105-4.17c-1.349-1.422-4.16,0.296-5.436,1.045c-2.321,1.363-4.448,3.043-6.766,4.421 c-3.321,1.976-6.148,1.963-6.818-1.075c-0.122-0.555-0.056-2.05,0.476-2.423c-0.734,0.14-1.469,0.279-2.203,0.419 c-0.282,2.69-7.902,4.851-8.941,1.46c-0.107-0.352,0.247-1.735,0.728-2.015c-0.68,0.103-1.359,0.204-2.039,0.307 c1.078,3.408-8.681,4.109-10.405,3.301c-4.929-2.312,10.194-5.945,0.029-4.531c-2.07,0.288-4.364,0.732-6.461,0.485 c-0.626-0.074-0.031-0.379-0.113-0.339c-0.605,0.064-1.212,0.129-1.817,0.193c3.067,4.764-9.542,6.396-8.156,3.253 c1.185-2.688,4.677-4.962,6.865-6.771c4.227-3.494,8.667-6.758,13.16-9.902c0.332-0.232-0.108-0.325-0.284-0.335 c-8.091-0.468-16.002,1.293-24.03,1.963c-6.227,0.52-12.321-0.282-18.235-2.253c-1.79-0.597-6.843-2.331-6.177-5.03 c0.953-3.86,7.927,1.638,8.961,2.669c3.12,3.113,5.114,7.463,6.317,11.637c1.021,3.539,0.652,7.045-1.278,10.185 c-0.356,0.58-4.596,5.014-3.604,1.558c0.445-1.554,2.652-2.032,3.827-2.846c2.411-1.668-1.901-0.996-2.666-0.748 c-2.532,0.821-4.953,2.093-7.396,3.139c-2.459,1.053-4.957,1.967-7.526,2.712c-1.396,0.404-8.605,1.896-4.899-1.327 c0.822-0.715,1.769-1.29,2.689-1.868c1.278-0.802,2.438-2.758-2.025,0.267c-1.496,1.014-9.163,5.254-9.89,1.742 c-0.247-1.192,2.73-2.685,3.419-3.101c2.683-1.616,7.811-2.661,9.867-5.106c0.041-0.071,0.025-0.127-0.045-0.168 c-0.831-0.497-2.59,0.321-3.345,0.63c-4.007,1.639-7.835,3.72-11.744,5.573c-2.159,1.023-4.344,1.991-6.591,2.805 c-2.59,0.938-3.31,0.359-1.528-1.591c1.952-2.137,4.512-4.014,5.731-6.71c2.324-5.141-9.479-0.771-10.656-0.075 c-1.234,0.732-12.165,10.402-5.958,9.76c2.647-0.273,4.522-2.488,6.233-4.282c3.529-3.701,9.116-7.314,11.215-12.104 c1.109-2.534-2.67-2.999-1.076-6.118c0.443-0.868,8.205-5.92,7.476-6.738c-1.244-1.393-4.754-0.704-6.33-0.546 c-4.254,0.426-8.406,1.721-12.356,3.304c-9.37,3.754-16.688,12.057-21.63,20.625c-0.595,1.03-3.908,6.432-1.393,7.169 c2.226,0.653,4.827-0.704,6.554-1.998c4.975-3.729,10.237-9.029,13.253-14.507c0.563-1.024,0.587-2.024-0.743-1.94 C225.135,38.584,223.153,39.505,224.677,39.409L224.677,39.409z"/>
<path d="M229.188,61.646c0,0,48.999,28.667,92.333,15.667c0,0-12.333,7.666-30.333,7.333s-23.334-2.999-28.667-6.333 S247.855,76.979,229.188,61.646z"/>
</svg>