<?xml version="1.0" encoding="UTF-8"?>
<svg version="1.0" xmlns="http://www.w3.org/2000/svg" width="411" height="95" >
<path fill="#231F20" d="M71.422,47.167c-7.164-8.954-3.553-21.104,0.715-30.516c1.669-3.682,4.682-5.039,7.524-7.595 c5.713-5.137,11.852-8.028,18.996-3.169c3.854,2.62-6.892,8.938-8.542,10.384c-2.836,2.487-5.444,5.254-8.042,7.984 c-7.233,7.602-14.132,15.543-20.793,23.65c-6.585,8.015-12.419,16.594-19.031,24.591c-3.457,4.181-7.067,8.313-11.14,11.908 c-3.113,2.748-7.405,3.935-11.027,5.929c-1.66,0.914-6.259,4.175-8.135,2.692c-0.963-0.761-1.948-1.239-3.229-1.158 c-1.895,0.119-3.687,0.603-5.53,1.035c-1.722,0.405,1.566-4.628,1.608-5.073c0.156-1.665-0.383-3.278-0.2-4.991 c0.276-2.579,2.706-4.118,4.459-5.678c3.71-3.302,7.401-6.624,11.167-9.863c9.461-8.139,19.364-15.515,30.049-21.974 c5.53-3.343,14.035-9.69,20.943-9.319c0.98,0.052,1.957-1.4,0.651-1.471c-6.34-0.341-13.114,4.209-18.336,7.156 c-11.554,6.52-22.21,14.234-32.363,22.752c-3.889,3.263-7.683,6.637-11.462,10.025c-2.435,2.183-5.359,4.176-6.734,7.214 c-0.619,1.368-0.478,2.98-0.325,4.425c0.283,2.668-1.381,3.542-2.342,5.649c-0.909,1.991,0.319,3.044,2.383,2.694 c2.69-0.456,5.707-1.911,8.231,0.083c0.694,0.548,1.849,0.392,2.641,0.284c4.103-0.557,8.013-3.715,11.637-5.517 c3.057-1.52,5.325-2.283,7.96-4.609c3.936-3.474,7.363-7.56,10.726-11.572c6.665-7.953,12.474-16.555,19.031-24.591 c6.635-8.13,13.59-16.02,20.793-23.65c2.77-2.934,5.582-5.87,8.662-8.482c2.544-2.158,7.85-4.307,9.036-7.703 c1.204-3.448-2.741-4.983-5.312-6.104c-4.238-1.846-8.74-0.791-12.558,1.454c-3.286,1.932-5.61,5.209-9.011,6.908 c-3.491,1.743-5.047,7.097-6.207,10.396c-3.095,8.806-4.988,18.775,1.344,26.689C70.239,48.762,72.068,47.973,71.422,47.167 L71.422,47.167 M94.174,31.677c-2.896-7.339-21.108,5.295-19.818,11.239c0.566,2.606,18.493-6.463,19.195-9.593 c0.08-0.354-0.354-0.469-0.608-0.496c-3.288-0.352-6.572,7.789-3.565,9.716c2.153,1.38,5.845-0.313,7.705-1.396 c2.082-1.213,3.999-2.633,5.937-4.058c1.183-0.869,0.31,0.456,0.083,1.272c-0.482,1.732-1.508,2.818-2.213,4.36 c-0.136,0.298,0,0.549,0.328,0.62c1.094,0.236,2.212-0.558,3.13-1.033c1.379-0.713,2.749-1.435,4.155-2.093 c2.294-1.074,1.544,1.933,0.799,3.002c-0.554,0.795,1.202,0.612,1.521,0.391c1.733-1.199,5.551-4.617,6.963-1.772 c1.099,2.213,3.136,2.721,5.395,3.034c3.106,0.43,11.202-4.158,9.932-8.052c-0.104-0.32-0.566-0.385-0.85-0.335 c-2.51,0.443-3.669,4.407-4.076,6.512c-0.708,3.665,3.161,3.427,5.47,2.776c4.624-1.304,8.926-4.021,13.131-6.271 c0.784-0.419,1.572-0.826,2.374-1.209c0.675-0.226,0.536-0.293-0.418-0.205c-0.291,0.515-0.611,1.011-0.96,1.489 c-0.782,1.144-1.617,2.238-2.349,3.417c-0.156,0.272-0.291,0.554-0.403,0.846c-0.692,2.938-3.459-2.501-3.523-2.661 c-0.297-0.745-2.208-0.176-1.932,0.518c0.995,2.498,3.529,5.547,6.502,3.596c1.154-0.758,1.493-2.741,2.263-3.859 c0.627-0.911,2.753-2.94,2.479-4.185c-0.036-0.163-0.234-0.286-0.386-0.31c-2.425-0.371-5.687,2.321-7.661,3.377 c-2.372,1.268-4.767,2.485-7.235,3.555c-1.292,0.56-2.746,1.166-4.18,1.196c-2.601,0.055-0.59-4.545-0.211-5.37 c0.234-0.475,0.493-0.936,0.778-1.382c0.969-0.966,0.713-1.115-0.767-0.445c-0.312,1.895-2.527,3.736-3.908,4.765 c-4.692,3.497-6.758,0.245-8.104-2.467c-0.224-0.451-0.496-0.871-1.016-1.004c-2.729-0.702-6.489,2.354-8.534,3.768 c0.507,0.13,1.015,0.261,1.521,0.391c0.614-0.881,2.918-4.375,0.672-4.953c-2.396-0.616-5.511,1.604-7.468,2.625 c-0.678,0.354-1.355,0.709-2.041,1.049c0.167,0.204,0.335,0.408,0.503,0.612c0.427-0.595,0.806-1.221,1.136-1.876 c0.684-1.224,2.006-3.713,1.589-5.1c-0.419-1.395-2.415-0.147-3.104,0.3c-1.978,1.284-13.936,9.81-12.226,2.656 c0.394-1.646,1.583-3.323,2.663-4.599c1.139-1.345-3.214,1.243-2.688,0.848c-0.931,0.698-1.926,1.314-2.908,1.936 c-1.974,1.25-4.021,2.389-6.09,3.473c-0.808,0.423-5.04,2.875-4.903,1.353c0.393-4.349,14.064-14.331,15.991-9.449 C92.536,32.94,94.448,32.372,94.174,31.677L94.174,31.677 M200.937,18.13c-5.48,3.967-11.677,6.677-16.595,11.25c-2.286,2.125-4.522,4.3-6.825,6.407 c-1.015,0.929-2.06,1.822-3.128,2.689c-1.128,1.289-2.476,1.257-4.043-0.095c1.792-1.277,3.608-1.41,5.448-0.399 c3.292,1.547,4.129,10.644,9.662,7.89c4.629-2.304,7.113-7.889,9.804-12.046c1.795-2.773,3.628-5.523,5.631-8.152 c0.906-1.189,4.015-3.177,4.113-4.807c0.146-2.43-2.532-6.5-5.407-4.702c-2.223,1.39,2.772,5.852,3.716,6.82 c0.489,0.502,2.324-0.22,1.791-0.768c-1.294-1.328-2.502-2.726-3.571-4.242c-0.964-1.66-0.672-1.504,0.876,0.466 c0.762,2.108,0.451,3.609-0.934,4.503c-0.67,0.516-1.219,1.25-1.766,1.889c-3.913,4.566-6.907,9.995-10.191,15.013 c-0.815,1.245-1.637,2.406-2.623,3.543c-3.847,4.438-5.766-1.088-7.013-3.677c-0.896-1.862-2.615-2.892-4.521-3.41 c-2.54-0.691-6.117,0.563-7.395,2.883c-1.345,2.441,2.356,2.695,3.738,2.129c4.94-2.024,8.763-6.442,12.561-10.046 c5.371-5.097,11.832-8.15,17.881-12.528C203.208,17.973,201.561,17.678,200.937,18.13L200.937,18.13 M196.933,49.929c0.608-0.77,1.208-2.059,0.342-2.857c-0.462-0.427-2.264,0.301-1.801,0.728 c0.641,0.591,0.119,1.581-0.324,2.143c-0.285,0.36,0.24,0.496,0.503,0.494C196.084,50.434,196.653,50.284,196.933,49.929 L196.933,49.929 M242.433,21.943c-5.526,5.777-11.142,11.481-16.938,16.988c-1.583,1.503-3.193,2.977-4.859,4.386 c-2.807,2.373-1.361,0.892,0.517-1.066c3.243-3.384,5.583-7.316,8.995-10.619c3.223-3.12,6.782-5.891,10.416-8.507 c1.947-1.402,3.971-2.691,6.005-3.961c0.589-0.368,3.675-2.714,3.423-0.836c-0.576,4.31-0.782,6.195,2.181,9.645 c4.842,5.637,7.565,15.219-2.458,16.692c-3.141,0.461-7.027,1.138-10.004-0.331c-0.647-0.319-1.146-0.908-1.605-1.443 c-1.138-3.928,0.265-5.565,4.205-4.911c1.854,2.068,0.23,3.935-1.543,5.297c-0.875,0.672,1.063,0.691,1.549,0.317 c1.953-1.5,3.626-2.846,2.465-5.368c-0.75-1.628-2.432-3.215-4.343-2.703c-4.152,1.113-6.972,6.794-2.683,9.484 c4.198,2.633,11.707,1.208,16.013-0.178c5.257-1.692,5.391-7.064,3.791-11.506c-0.9-2.5-2.471-4.8-4.188-6.8 c-2.213-2.576-2.217-4.7-1.548-7.912c0.837-4.015-3.303-1.819-5.242-0.742c-7.727,4.291-15.088,10.126-21.088,16.609 c-1.538,1.661-2.605,3.517-3.947,5.304c-1.08,1.438-4.563,3.724-4.734,5.708c-0.015,0.17,0.044,0.266,0.197,0.346 c3.425,1.799,10.304-6.833,12.142-8.606c5.056-4.875,9.977-9.896,14.831-14.971C244.767,21.44,242.874,21.483,242.433,21.943 L242.433,21.943 M258.673,46.01c-0.354-3.063,7.878-6.627,10.346-8.336c4.754-3.292,9.324-6.854,13.906-10.379 c3.051-2.347,6.09-4.624,9.272-6.784c1.931-1.311,2.867-4.883-0.556-4.551c-8.751,0.849-14.003,9.898-18.835,16.136 c-6.327,8.167,1.223,12.013,9.013,14c0.846,0.215,2.286-1.021,1.109-1.32c-3.698-0.943-11.199-2.418-10.823-7.535 c0.208-2.839,3.039-5.473,4.735-7.552c2.641-3.236,4.612-6.526,8.021-9.144c0.924-0.682,1.892-1.297,2.901-1.847 c0.328-0.165,0.656-0.329,0.984-0.494c1.516-1.181,2.236-0.713,2.161,1.403c-1.146,0.958-2.543,1.656-3.75,2.554 c-6.219,4.627-12.25,9.495-18.563,14c-2.982,2.129-12.394,5.708-11.855,10.367C256.846,47.434,258.783,46.955,258.673,46.01 L258.673,46.01 M298.654,35.175c-4.183-1.716-13.248,1.215-15.163,5.332c-0.831,1.786,1.251,2.075,2.602,1.894 c4.393-0.588,8.263-2.931,11.875-5.363c-0.507-0.068-1.013-0.137-1.52-0.205c-1.951,1.421-6.027,4.441-4.143,7.126 c0.852,1.213,4.839-0.257,5.769-0.514c4.415-1.218,8.719-2.809,13.136-4.027c2.935-0.81,11.455-3.336,9.872,2.493 c0.642-0.134,1.284-0.267,1.926-0.401c-0.863-3.078-3.671-5.961-7.126-5.271c-3.257,0.651-6.01,2.563-3.52,5.961 c5.583,7.622,18.412-0.381,24.241-3.518c11.938-6.424,23.568-13.457,35.07-20.626c8.592-5.356,18.185-10.57,25.628-17.519 c0.733-0.685-0.767-0.577-1.121-0.423c-5.077,2.196-9.77,5.514-14.228,8.733c-14.147,10.218-26.441,22.959-37.634,36.273 c-0.488,0.581,1.426,0.379,1.777-0.039c10.741-12.778,22.454-24.803,35.808-34.872c4.635-3.495,9.631-7.133,14.999-9.455 c-0.374-0.141-0.747-0.282-1.121-0.423c-4.807,4.487-10.735,7.971-16.221,11.537c-8.859,5.76-17.89,11.261-26.987,16.635 c-7.46,4.406-14.976,8.77-22.72,12.661c-4.723,2.373-10.509,4.667-15.16,0.871c-3.535-2.885,0.316-6.934,4.346-3.542 c1.01,0.85,1.682,2.271,2.036,3.533c0.164,0.585,1.801,0.061,1.926-0.401c1.783-6.565-7.857-4.066-11.163-3.24 c-4.251,1.063-8.389,2.552-12.574,3.836c-1.055,0.324-4.119,1.684-5.154,1.021c-2.253-1.442,2.852-5.475,3.857-6.207 c0.864-0.629-1.113-0.479-1.52-0.205c-2.187,1.472-4.243,2.692-6.651,3.737c-2.28,0.991-6.292,0.97-2.923-1.734 c2.479-1.99,6.974-4.139,10.222-2.807C297.601,36.237,299.371,35.469,298.654,35.175L298.654,35.175 M376.84,24.843c-0.592-2.415-2.939-2.321-4.931-1.893c-2.424,0.522-8.444,0.904-10.104,2.987 c-0.544,0.683,0.497,1.797,0.769,2.325c1.229,2.383,0.538,5.496,0.232,8.034c-0.24,1.999-1.819,8.497,0.63,9.884 c1.67,0.946,4.34-0.671,5.976-1.13c4.283-1.202,8.658-2.104,13.01-3.015c8.804-1.842,18.215-4.321,27.261-4.488 c0.8-0.015,2.021-1.247,0.717-1.223c-12.635,0.232-26.015,3.857-38.232,6.823c-2.015,0.489-4.076,0.969-6.017,1.712 c-3.29,1.261-1.458-8.299-1.271-9.842c0.367-3.05,0.556-5.894-1.117-8.614c0.688,1.119,10.084-5.378,11.146-1.043 C375.096,26.128,377.031,25.62,376.84,24.843L376.84,24.843 M391.538,47.578c0.079,0.029,0.154,0.065,0.229,0.101c-0.373-0.178-0.051-0.019,0.027,0.028 c0.1,0.059,0.193,0.126,0.286,0.195c0.269,0.198,0.525,0.556,0.493,0.978c-0.114,1.504,2.836,1.089,2.936-0.221 c0.111-1.462-1.008-2.553-2.298-3.033c-0.679-0.252-1.583,0.005-2.05,0.549C390.714,46.697,390.905,47.343,391.538,47.578 L391.538,47.578z"/>
</svg>