<?xml version="1.0" encoding="UTF-8"?>
<svg version="1.0" xmlns="http://www.w3.org/2000/svg" width="268" height="74" >
<path fill="#231F20" d="M59.758,6.71c-1.335,2.928-9.409,19.44-12.926,15.257c-4.783-5.689,1.012-14.101,6.297-16.898 c2.732-1.446,0.242,5.541-0.132,6.505c-1.204,3.107-2.922,6.342-5.413,8.599c-1.293,1.173,1.563,1.376,2.369,0.646 c1.92-1.741,11.791-17.502,5.49-17.997C48.792,2.3,41.742,11.88,42.303,17.906c0.274,2.937,1.557,6.548,4.897,6.909 c2.577,0.278,4.929-1.862,6.524-3.588c3.751-4.057,6.484-9.335,8.764-14.335C63.124,5.499,60.21,5.717,59.758,6.71L59.758,6.71 M37.634,31.223c-4.959,6.062-13.725,12.86-20.015,4.729c-1.908-2.467-3.457-6.639-7.2-6.474 c-2.075,0.091-3.371,1.502-4.061,3.33c-2.642,7.002,1.846,15.516,7.896,19.025c9.336,5.417,20.415,1.873,29.529-2.24 c1.851-0.835,0.133-1.593-1.103-1.035c-10.387,4.688-21.891,7.393-30.472-1.814c-2.553-2.739-3.348-6.91-3.474-10.518 c-0.053-1.523,0.209-3.028,0.744-4.446c0.757-2.008,4.526,3.85,4.713,4.147c7.058,11.234,19.889,2.89,26.118-4.724 C41.065,30.278,38.175,30.561,37.634,31.223L37.634,31.223 M59.326,33.607c-4.273-1.379-12.871-2.2-15.354,2.852c-1.238,2.518-1.831,6.817,2.209,6.684 c4.519-0.148,8.078-2.992,11.147-6.065c0.716-0.717-2.027-0.294-2.435,0.017c-2.58,1.971-9.266,9.448-4.443,12.35 c2.861,1.721,7.196-2.9,8.869-4.48c0.353-0.334,0.708-0.666,1.066-0.993c0.167-0.149,0.335-0.298,0.503-0.447 c0.993-0.628,0.969-0.756-0.075-0.383c0.36,0.577,0.025,1.395,0.376,2.014c0.487,0.861,2.323,0.211,2.948-0.066 c1.435-0.637,2.593-1.825,3.836-2.755c3.426-2.565,3.559,6.012,3.628,7.725c0.029,0.733,2.506-0.175,2.766-0.477 c0.939-1.087,3.938-4.852,4.771-2.358c0.861,2.579-0.575,5.076,2.663,6.173c4.348,1.472,10.654-2.608,13.695-5.191 c0.83-0.705,9.324-10.288,4.479-9.46c-4.051,0.692-6.169,5.786-6.436,9.384c-0.454,6.133,5.701,6.997,9.928,5.173 c5.386-2.324,9.693-8.996,12.229-14.042c1.541-3.066-3.326-0.117-4.09,1.053c-2.637,4.036-3.381,9.032-4.012,13.696 c-0.125,0.84-0.312,1.667-0.559,2.479c-0.376,1.396,0.461,0.893,0.12,0.567c-0.495-0.473-0.851-1.199-1.134-1.82 c-0.345-0.756-3.152,0.218-2.897,0.776c1.083,2.375,3.01,3.701,5.468,2.064c2.49-1.657,2.149-6.97,2.608-9.48 c0.392-2.141,1.95-9.031,4.113-9.966c-0.736,0.093-1.471,0.186-2.207,0.278c-0.382-0.264-9.254,20.962-15.762,11.948 c-1.984-2.747-0.515-6.591,1.036-9.139c0.358-0.556,0.766-1.07,1.225-1.543c-0.805,0.887-0.685-0.657-1.24,1.161 c-0.665,2.182-2.273,3.977-3.834,5.565c-2.222,2.261-10.304,8.579-12.219,3.442c-0.693-1.857,0.709-5.144-2.032-5.67 c-3.282-0.629-6.669,2.911-8.547,5.086c0.922-0.159,1.844-0.318,2.766-0.477c-0.133-3.327-0.269-10.312-5.421-8.735 c-1.616,0.495-2.933,1.309-4.259,2.351c-0.67,0.527-1.317,1.081-2.018,1.568c1.161-0.807,1.337-0.414,0.911-2.101 c-0.67-2.654-5.871,1.702-6.485,2.268c-1.744,1.61-4.154,5.466-5.198,1.717c-0.95-3.413,2.667-7.253,5.099-9.111 c-0.812,0.006-1.623,0.011-2.435,0.017c-1.602,1.604-6.689,6.897-8.675,3.375c-1.597-2.832,1.956-6.471,4.433-6.757 c2.128-0.246,4.475,0.244,6.504,0.899C57.642,34.993,60.237,33.902,59.326,33.607L59.326,33.607 M137.609,33.11c-0.445,2.943-0.932,5.879-1.441,8.812c-0.426,2.448-0.888,4.89-1.402,7.321 c-0.208,0.986-0.444,1.965-0.698,2.941c-0.11,0.432-0.243,0.856-0.398,1.273c-0.516,0.936,0.182,1.011,2.091,0.225 c0.113-4.119,3.224-9.033,5.075-12.555c2.412-4.589,6.344-12.303,12.063-13.209c4.001-0.634-0.05,5.921-1.732,6.475 c-0.85,0.28-2.559,0.699-2.599,1.91c-0.087,2.59,1.365,5.106,1.41,7.782c0.051,3.081-1.474,6.206-2.959,8.816 c-0.726,1.274-2.895,4.65-4.895,3.626c-1.67-0.855-0.702-2.19,0.266-2.986c1.967-1.616,4.667-2.524,7.011-3.427 c3.839-1.479,7.906-2.807,11.897-3.826c-0.571-0.201-1.143-0.401-1.714-0.601c-0.288-0.659,0.855-1.252-0.325-0.401 c-0.431,0.31-0.84,0.65-1.226,1.014c-1.024,0.966-1.784,1.945-2.262,3.274c-1.059,2.946,1.85,5.832,4.443,6.573 c6.214,1.776,8.613-8.175,5.532-11.961c-1.179-1.449-0.278-1.27,1.492-1.538c1.954-0.296,3.953-0.27,5.91-0.03 c6.592,0.809-1.33,5.707,0.029,8.73c2.988,6.651,10.096,0.063,11.585-3.895c-0.951-0.018-1.901-0.035-2.853-0.053 c-0.183,3.83,3.283,10.934,7.498,6.075c1.152-1.329,1.658-8.019,1.135-8.113c1.883,0.339,11.598-2.26,11.833-0.662 c0.526-0.481,1.053-0.963,1.579-1.445c-3.294,0.043-8.881,0.984-10.362,4.483c-1.151,2.72-0.422,5.106,2.354,6.28 c10.525,4.45,17.876-14.479,19.913-20.854c0.524-1.64-2.214-1.428-2.77-0.328c-2.438,4.827-4.666,9.833-6.174,15.033 c-0.435,1.499-1.409,4.773,0.194,5.994c1.454,1.107,3.49,0.582,4.708-0.643c1.088-1.094,1.863-2.38,2.633-3.708 c0.479-0.826,0.927-1.673,1.392-2.508c0.149-0.257,0.3-0.514,0.449-0.771c0.975-0.695,0.988-1.179,0.042-1.454 c-1.049,3.063-3.59,5.214-4.228,8.546c-0.958,5.011,5.465,6.481,6.919,1.52c0.414-1.414,0.733-2.854,1.284-4.223 c0.411-1.022,4.474-0.485,5.375-0.521c3.082-0.121,6.306-0.636,8.604-2.823c0.908-0.864,1.454-3.374-0.306-3.583 c-1.747-0.208-2.746,1.564-3.517,2.82c-1.04,1.696-5.887,11.347-0.444,10.784c2.273-0.235,4.386-1.387,6.424-2.344 c1.23-0.578,2.461-1.171,3.769-1.553c0.157-0.046-3.133,6.021-3.097,5.967c-1.035,1.542,1.634,1.897,2.424,0.85 c1.412-1.873,2.974-3.669,4.754-5.2c2.651-2.28,1.951,2.187,1.887,3.881c-0.057,1.504,0.289,2.893,0.985,4.209 c2.851,5.393,12.518-1.884,15.125-3.848c1.574-1.186-0.778-2.176-1.92-1.316c-2.389,1.799-9.457,7.645-11.047,2.64 c-0.793-2.495,1.271-7.364-2.092-8.601c-3.759-1.383-8.309,4.987-10.116,7.385c0.808,0.283,1.616,0.566,2.424,0.85 c0.964-1.435,6.087-7.713,2.441-8.897c-2.978-0.968-7.42,2.285-9.997,3.371c-2.945,1.241-1.078-2.802-0.489-4.307 c0.479-1.226,1.092-2.398,1.739-3.542c1.894-3.34-3.602,0.718-5.106,0.953c-4.525,0.706-9.355-1.438-11.095,3.895 c-0.282,0.864-0.49,1.755-0.726,2.632c-0.149,0.602-0.359,1.18-0.632,1.734c0.171-0.038,0.342-0.076,0.513-0.114 c-0.923-0.759-1.306-1.706-1.147-2.84c0.098-2.896,2.831-5.518,4.062-7.995c1.655-3.329-3.213-2.287-4.53-0.773 c-1.747,2.007-2.665,4.722-4.173,6.905c-1.886,2.729-0.052-5.209,0.184-5.907c1.411-4.174,3.29-8.238,5.275-12.168 c-0.923-0.109-1.847-0.219-2.77-0.328c-2,6.258-5.926,18.53-13.952,19.435c-1.552,0.175-2.896-0.751-3.211-2.258 c-0.793-3.782,5.232-4.61,7.769-4.643c0.751-0.01,1.702-0.609,1.579-1.445c-0.372-2.526-3.007-2.405-5.016-2.094 c-1.795,0.278-3.55,0.829-5.313,1.253c-1.61,0.387-3.195-0.235-4.676,0.148c-2.24,0.58-2.448,2.654-2.608,4.675 c-0.057,0.715-0.024,5.863-1.698,4.272c-1.147-1.09-1.187-3.552-1.117-5c0.068-1.438-2.467-1.078-2.853-0.053 c-0.202,0.536-0.448,1.047-0.701,1.561c-1.178,2.396-6.606,4.141-4.571,0.267c0.752-1.432,3.323-4.748,1.846-6.482 c-2.535-2.977-8.404-2.342-11.8-1.827c-1.476,0.224-6.853,1.502-4.689,4.021c1.248,1.453,2.121,2.004,2.247,4.142 c0.095,1.606-0.936,6.407-3.716,4.875c-4.328-2.385-0.928-5.805,1.399-7.689c0.267-0.216,0.66-0.655,0.488-1.046 c-0.005-0.012-0.01-0.024-0.016-0.036c-0.294-0.674-1.062-0.767-1.714-0.601c-6.287,1.604-13.051,3.658-18.702,6.871 c-4.062,2.308-5.497,7.875,0.871,7.722c6.153-0.149,10.5-11.181,9.943-16.168c-0.044-0.39-1.274-6.338-1.185-6.363 c1.057-0.288,1.894-0.879,2.702-1.598c1.535-1.363,3.909-4.439,3.279-6.701c-1.725-6.193-10.736,0.344-12.892,2.669 c-5.269,5.685-9.182,13.662-11.464,21.017c-0.295,0.952-1.143,3.112,0.233,3.651c1.59,0.622,2.587-0.779,3.039-2.063 c2.132-6.062,2.768-12.883,3.759-19.207c0.064-0.416,0.129-0.833,0.192-1.25C140.767,31.421,137.807,31.81,137.609,33.11 L137.609,33.11z"/>
</svg>