<?xml version="1.0" standalone="no"?>
<!DOCTYPE svg PUBLIC "-//W3C//DTD SVG 20010904//EN"
 "http://www.w3.org/TR/2001/REC-SVG-20010904/DTD/svg10.dtd">
<svg version="1.0" xmlns="http://www.w3.org/2000/svg"
 width="468pt" height="117pt" viewBox="0 0 468 117"
 preserveAspectRatio="xMidYMid meet">
<metadata>
Created by POTRACE VERSION, written by Peter Selinger 2001-2007
</metadata>
<g transform="translate(0,117) scale(0.027857,-0.027857)"
fill="#000000" stroke="none">
<path d="M10505 3703 c-16 -2 -66 -10 -109 -18 -57 -10 -97 -25 -145 -54 -36
-22 -100 -53 -142 -71 -42 -17 -102 -51 -134 -75 -32 -25 -63 -45 -70 -45 -6
0 -39 -27 -72 -59 -34 -32 -80 -85 -104 -116 -41 -55 -43 -59 -50 -153 -6 -83
-4 -104 13 -149 11 -30 30 -66 43 -81 12 -15 43 -37 68 -50 28 -14 62 -22 95
-22 40 0 54 4 66 21 8 12 12 29 9 38 -3 9 -13 24 -21 34 -8 9 -25 17 -38 17
-12 0 -42 15 -65 33 -27 20 -47 45 -53 65 -6 21 -5 57 4 108 12 66 19 83 57
127 24 29 81 75 126 104 45 29 107 62 137 74 30 11 84 40 120 63 36 24 75 48
87 54 12 7 33 12 46 12 13 0 31 -8 40 -18 10 -10 17 -34 17 -53 0 -19 -6 -43
-14 -54 -7 -11 -19 -38 -26 -60 -6 -22 -41 -93 -76 -157 -35 -64 -64 -121 -64
-126 0 -5 -7 -15 -15 -22 -9 -7 -29 -33 -45 -57 -17 -24 -30 -48 -30 -52 0 -5
-16 -33 -36 -62 -20 -30 -54 -90 -77 -134 -22 -44 -50 -94 -63 -112 -13 -17
-24 -35 -24 -40 0 -5 -25 -51 -56 -103 -31 -51 -70 -112 -88 -134 -18 -23 -42
-59 -54 -81 -11 -22 -28 -65 -36 -96 -13 -46 -23 -61 -55 -82 -29 -19 -48 -45
-74 -100 -21 -43 -50 -86 -70 -103 -19 -16 -51 -53 -72 -82 -21 -29 -50 -85
-66 -123 -20 -49 -50 -96 -99 -152 -39 -45 -81 -98 -93 -118 -12 -20 -43 -68
-70 -107 -26 -39 -52 -74 -57 -77 -5 -3 -19 -32 -30 -64 -16 -44 -40 -77 -95
-135 -41 -43 -85 -97 -99 -119 -13 -23 -41 -67 -61 -97 -29 -43 -35 -61 -31
-85 3 -16 16 -38 27 -47 12 -10 30 -18 40 -18 11 0 29 6 40 12 11 7 59 66 105
130 46 64 84 119 84 123 0 4 18 27 40 52 22 25 53 73 70 107 17 33 49 84 71
111 22 28 52 70 67 95 14 25 50 73 79 108 29 35 71 96 93 135 22 40 64 108 94
152 30 44 72 106 93 137 21 32 64 93 96 135 31 43 76 116 98 163 22 47 53 101
68 120 15 19 36 51 46 70 10 19 30 51 45 70 15 19 41 64 59 100 18 36 39 72
46 80 6 8 29 44 50 80 20 36 58 94 85 130 26 36 72 110 103 165 31 56 65 109
77 120 11 10 47 73 79 139 32 67 64 137 71 156 7 19 23 51 34 70 16 27 21 51
20 105 0 45 -6 81 -17 101 -10 19 -29 36 -48 43 -18 6 -32 10 -33 10 -1 -1
-14 -4 -31 -6z"/>
<path d="M2753 3510 c-29 -4 -74 -20 -100 -35 -26 -16 -87 -48 -134 -72 -47
-25 -119 -72 -160 -107 -69 -58 -78 -70 -136 -186 -53 -108 -62 -133 -62 -182
-1 -31 4 -80 10 -109 6 -28 20 -60 30 -70 14 -14 33 -19 69 -19 41 0 56 5 75
25 14 13 25 32 25 42 0 10 -9 38 -20 62 -11 24 -20 64 -20 90 0 25 5 63 11 84
5 20 33 65 62 99 28 34 76 87 107 118 30 30 79 66 107 79 28 13 59 21 67 18 9
-4 21 -18 26 -32 6 -15 7 -45 4 -68 -4 -23 -14 -55 -22 -72 -8 -16 -23 -56
-33 -87 -9 -32 -27 -70 -38 -85 -12 -15 -37 -50 -56 -78 -19 -27 -46 -71 -60
-97 -13 -25 -54 -92 -91 -149 -37 -56 -76 -123 -87 -148 -11 -25 -34 -66 -52
-91 -18 -25 -45 -67 -61 -95 -16 -27 -50 -76 -75 -108 -26 -33 -50 -71 -54
-85 -4 -15 -23 -49 -44 -77 -21 -27 -53 -75 -71 -105 -18 -30 -44 -67 -57 -81
-13 -14 -48 -63 -78 -110 -30 -46 -62 -105 -70 -130 -11 -33 -31 -59 -68 -91
-39 -34 -65 -69 -96 -130 -24 -45 -53 -94 -65 -108 -12 -14 -36 -44 -54 -68
-18 -23 -39 -63 -47 -89 -11 -36 -31 -63 -88 -117 -40 -39 -96 -105 -124 -146
-27 -41 -64 -102 -83 -135 -18 -33 -52 -81 -76 -106 -23 -25 -49 -59 -57 -75
-8 -16 -18 -43 -21 -60 -4 -17 -2 -42 3 -57 6 -14 22 -33 36 -43 23 -15 27
-15 50 0 13 9 32 30 41 48 9 17 37 59 63 92 26 34 55 82 65 108 9 26 30 63 46
83 15 19 43 59 61 88 18 29 48 69 66 89 17 20 41 54 53 75 11 21 44 70 73 110
29 40 72 101 96 135 24 35 57 78 74 95 17 18 42 53 56 77 14 25 46 77 70 118
24 40 58 94 75 119 17 25 64 89 104 141 39 52 72 100 72 106 0 6 40 62 88 124
48 62 98 127 109 144 12 16 25 43 29 58 3 15 49 91 101 168 52 78 97 148 101
157 3 9 20 34 37 56 18 22 52 76 76 120 23 44 63 112 87 150 25 39 58 89 74
112 16 24 38 68 48 99 11 32 33 84 50 117 25 50 30 72 30 132 0 40 -3 87 -6
104 -4 18 -17 39 -28 47 -12 7 -35 16 -52 18 -16 2 -52 1 -81 -4z"/>
<path d="M13855 3291 c-33 -10 -94 -35 -135 -55 -61 -31 -97 -61 -192 -157
l-118 -119 0 -55 c0 -31 7 -72 15 -92 9 -21 23 -46 33 -56 9 -11 37 -33 62
-50 41 -28 51 -31 140 -33 52 -1 123 -5 156 -9 40 -4 90 -1 144 9 45 9 86 19
92 22 6 4 54 16 107 26 53 11 114 23 136 25 22 3 51 14 65 23 14 10 55 24 90
30 36 6 88 24 115 40 29 16 73 30 104 33 29 4 64 13 77 22 13 8 73 25 133 37
107 21 111 21 131 3 11 -10 20 -29 20 -41 0 -13 11 -65 24 -116 14 -51 27
-100 31 -110 3 -9 31 -33 62 -55 31 -21 65 -44 77 -50 12 -7 57 -13 106 -13
47 0 101 -5 120 -11 19 -6 89 -15 155 -21 66 -5 139 -10 162 -11 34 -1 48 4
73 28 16 16 30 34 30 40 0 7 -8 19 -18 28 -14 13 -38 17 -95 17 -42 0 -94 6
-114 14 -21 7 -65 21 -98 31 -33 9 -81 26 -107 37 -35 15 -55 32 -77 67 -16
25 -43 96 -60 156 -18 61 -40 118 -50 128 -10 10 -37 23 -61 28 -24 5 -64 7
-89 3 -25 -3 -66 -14 -91 -24 -25 -10 -71 -22 -104 -28 -32 -6 -90 -26 -130
-43 -39 -18 -89 -40 -111 -50 -22 -10 -69 -25 -105 -34 -36 -9 -87 -23 -115
-31 -27 -9 -63 -22 -80 -29 -16 -7 -57 -24 -90 -38 -33 -14 -76 -29 -95 -35
-19 -6 -74 -13 -122 -17 -49 -3 -118 -12 -155 -20 -53 -11 -84 -12 -138 -4
-38 6 -88 19 -110 30 -22 10 -50 35 -62 54 -13 19 -23 49 -23 67 0 21 16 58
44 103 25 39 55 81 68 94 12 13 50 42 83 64 45 31 70 41 98 41 27 1 43 -5 54
-19 11 -15 13 -33 8 -70 -4 -27 -8 -66 -9 -85 -1 -29 3 -36 21 -38 16 -2 32
10 64 50 23 29 48 67 55 85 8 18 14 52 14 75 0 24 -9 62 -20 86 l-19 42 -58
-1 c-32 0 -85 -8 -118 -18z"/>
<path d="M11910 3146 c-30 -6 -63 -15 -72 -21 -9 -5 -38 -39 -65 -75 -26 -36
-117 -132 -200 -215 -84 -82 -187 -181 -229 -220 -42 -38 -119 -100 -172 -137
-54 -37 -116 -77 -138 -89 -24 -13 -49 -19 -59 -15 -14 5 -17 14 -12 47 3 26
23 67 54 112 26 40 62 101 79 137 17 36 47 81 65 101 19 19 60 54 91 77 32 23
64 55 71 70 8 15 11 38 8 51 -4 13 -19 33 -33 44 -25 18 -31 19 -70 8 -34 -11
-67 -37 -161 -135 -65 -66 -132 -139 -147 -162 -16 -22 -47 -76 -68 -120 -22
-43 -50 -98 -62 -121 -14 -27 -23 -69 -27 -116 l-6 -74 39 -27 c29 -19 51 -26
87 -26 27 0 81 10 120 21 40 12 79 27 87 34 8 7 51 32 95 54 44 23 98 59 120
79 22 21 66 55 99 77 32 21 68 55 81 75 12 19 49 60 82 90 32 30 84 84 115
118 31 35 74 76 95 92 21 15 53 31 71 35 23 5 40 2 58 -10 14 -9 48 -51 75
-93 29 -46 60 -110 74 -158 17 -53 34 -89 53 -106 15 -14 44 -33 66 -42 23
-10 68 -16 114 -16 64 0 97 8 226 51 83 28 170 62 193 75 23 13 55 24 72 24
23 0 31 -5 31 -18 0 -9 -19 -55 -41 -102 -23 -47 -50 -104 -60 -127 -10 -24
-39 -76 -65 -115 -25 -40 -52 -82 -59 -93 -7 -11 -34 -60 -60 -110 -27 -49
-67 -112 -90 -140 -24 -27 -52 -68 -64 -90 -12 -22 -34 -60 -49 -85 -16 -25
-37 -69 -48 -99 -11 -33 -41 -80 -76 -120 -32 -36 -71 -94 -87 -127 -16 -34
-47 -85 -70 -114 -34 -43 -41 -60 -39 -88 2 -23 11 -40 25 -49 21 -14 25 -13
55 20 18 19 61 70 94 113 34 44 74 102 90 130 16 27 48 77 72 110 24 32 71
106 106 164 34 58 80 129 102 157 21 29 52 73 68 100 16 26 86 133 155 236 69
104 143 214 163 245 21 32 51 75 67 97 16 22 41 66 55 98 14 32 34 70 44 85
11 15 28 52 37 83 11 34 15 67 11 83 -4 15 -18 32 -31 38 -19 8 -39 8 -79 -1
-31 -7 -93 -35 -143 -65 -48 -29 -145 -83 -214 -119 -79 -42 -155 -74 -205
-87 -43 -11 -89 -20 -101 -20 -12 0 -31 10 -42 21 -11 12 -34 58 -52 103 -18
44 -49 110 -70 146 -20 36 -50 82 -66 102 -15 20 -39 53 -53 73 -14 20 -43 47
-66 60 -22 14 -45 24 -50 24 -5 -1 -34 -7 -64 -13z"/>
<path d="M3691 2830 c-34 -10 -77 -28 -95 -41 -17 -12 -57 -45 -89 -73 -32
-27 -75 -75 -96 -105 -20 -31 -43 -71 -49 -90 -7 -19 -12 -59 -12 -89 0 -41 7
-66 25 -99 14 -23 40 -50 57 -59 16 -9 63 -18 103 -21 70 -6 76 -4 137 30 35
19 72 45 82 56 11 12 31 21 48 21 23 0 49 -17 109 -72 44 -40 95 -80 112 -89
18 -9 70 -26 116 -38 47 -11 103 -21 125 -21 23 0 76 7 119 15 43 8 107 15
141 15 38 0 70 -6 83 -15 11 -8 33 -35 47 -60 15 -25 50 -63 77 -85 29 -23 65
-42 87 -45 20 -3 72 -13 114 -22 57 -12 102 -14 175 -10 54 4 134 11 178 17
49 6 99 19 131 35 33 17 92 32 170 44 65 11 148 30 184 44 36 13 85 27 110 31
25 3 72 15 105 26 33 11 112 31 175 44 63 13 133 31 155 41 22 9 70 21 106 25
37 5 88 20 114 35 31 16 56 23 69 19 12 -3 32 -16 44 -28 13 -11 30 -34 38
-49 8 -15 41 -44 72 -64 31 -20 75 -51 97 -69 22 -17 65 -39 95 -47 30 -8 80
-22 110 -30 30 -8 94 -22 142 -31 48 -9 105 -16 128 -16 22 0 57 -7 78 -15 20
-9 62 -42 93 -75 48 -51 61 -60 91 -60 26 0 38 6 48 24 7 14 32 43 56 66 27
25 44 51 44 64 0 13 -9 31 -21 42 -15 13 -43 20 -107 25 -48 3 -125 14 -172
24 -47 10 -118 28 -158 41 -40 13 -87 24 -106 24 -18 0 -60 12 -92 26 -33 14
-66 29 -74 34 -8 5 -39 20 -68 34 -42 20 -56 33 -72 68 -11 24 -20 65 -20 94
0 40 -5 55 -23 73 -15 13 -42 24 -73 27 -46 5 -53 3 -112 -39 -35 -25 -100
-60 -145 -77 -45 -17 -102 -40 -127 -50 -25 -11 -110 -31 -190 -46 -80 -14
-183 -33 -230 -40 -47 -7 -119 -21 -160 -29 -41 -9 -94 -20 -118 -25 -23 -5
-52 -15 -64 -21 -12 -7 -43 -18 -68 -25 -25 -7 -89 -28 -142 -47 -76 -27 -115
-35 -180 -37 -46 -1 -115 -3 -154 -4 -66 -1 -76 2 -123 34 -32 22 -60 52 -78
85 -24 43 -27 60 -26 122 1 54 -2 77 -13 88 -9 8 -23 15 -32 15 -9 0 -42 -6
-74 -14 -33 -8 -73 -26 -97 -45 -23 -18 -69 -41 -104 -52 -34 -10 -98 -22
-142 -25 -67 -5 -90 -3 -140 15 -32 11 -67 21 -77 21 -10 0 -35 16 -57 35 -21
19 -49 58 -61 86 -15 36 -20 62 -16 84 4 18 18 54 31 81 14 27 25 54 25 60 0
6 -9 23 -21 38 -19 24 -27 27 -78 24 l-56 -3 -31 65 c-20 40 -43 72 -60 82
-16 10 -40 18 -54 17 -14 0 -54 -9 -89 -19z m38 -219 c20 -25 31 -50 31 -71 0
-27 -11 -44 -53 -87 -41 -40 -61 -53 -84 -53 -16 0 -37 6 -47 13 -12 9 -19 27
-20 53 0 33 9 54 48 112 37 53 55 72 72 72 14 0 34 -14 53 -39z"/>
</g>
</svg>
