<?xml version="1.0" encoding="UTF-8" standalone="no"?>
<!-- Created with Inkscape (http://www.inkscape.org/) -->
<svg
   xmlns:svg="http://www.w3.org/2000/svg"
   xmlns="http://www.w3.org/2000/svg"
   version="1.0"
   width="535"
   height="172"
   id="svg2">
  <defs
     id="defs5" />
  <g
     id="g4072"
     style="stroke:#000000;stroke-width:3;stroke-linecap:round;stroke-linejoin:round;stroke-miterlimit:4;stroke-dasharray:none;stroke-opacity:1">
    <path
       d="M 92.703072,87.452622 C 52.096694,82.304708 20.873364,134.44458 17.066454,156.69678 C 16.826666,158.9126 21.28995,163.94287 40.321691,137.57905 L 63.924632,105.125 C 86.604799,69.486058 65.578531,112.18392 110.37545,25.50002 C 114.96008,7.8359121 74.19183,56.099339 74.976156,107.67313 C 75.445491,112.7739 76.359205,114.50837 79.905791,115.32835"
       id="path2456"
       style="fill:none;fill-rule:evenodd;stroke:#000000;stroke-width:3;stroke-linecap:round;stroke-linejoin:round;stroke-miterlimit:4;stroke-dasharray:none;stroke-opacity:1" />
    <path
       d="M 109.65533,78.571691 C 112.55822,71.898986 109.61307,69.560451 102.52527,79.063419 C 94.523777,92.162578 93.725233,106.67355 109.40946,87.361328 C 114.75958,80.188253 118.17878,72.158872 122.3788,63.328125"
       id="path3228"
       style="fill:none;fill-rule:evenodd;stroke:#000000;stroke-width:3;stroke-linecap:round;stroke-linejoin:round;stroke-miterlimit:4;stroke-dasharray:none;stroke-opacity:1" />
    <path
       d="M 113.34329,82.013786 C 109.63888,106.45522 152.84703,56.875855 156.86121,43.659007 C 149.27067,51.270457 122.37183,94.961866 125.88235,99.224262 C 130.24331,106.90978 155.2769,66.801354 156.36949,68.982996 C 139.9362,93.59778 143.07454,95.204777 144.32215,98.240809 C 150.25811,100.20972 164.56495,78.7356 174.31755,68.491268 C 163.91165,83.074225 157.36091,95.14139 162.27022,97.994945 C 172.25852,96.697566 175.69318,87.73266 189.80698,66.770221 C 185.07782,77.650019 171.26101,96.102859 177.02206,98.240809 C 180.89443,96.765713 184.84497,95.915973 188.08594,89.389706 L 188.3318,89.389706"
       id="path3236"
       style="fill:none;fill-rule:evenodd;stroke:#000000;stroke-width:3;stroke-linecap:round;stroke-linejoin:round;stroke-miterlimit:4;stroke-dasharray:none;stroke-opacity:1" />
    <path
       d="M 242.39639,40.793735 C 228.99019,66.359186 195.73873,110.85496 194.76091,102.68508 C 194.8188,97.141686 197.7887,91.237136 202.80938,83.070566 C 255.54465,-2.7079115 276.34099,26.900727 255.95685,58.874356 C 267.9725,67.611156 253.20762,86.734426 234.06895,92.297946 C 229.4568,89.059186 244.26053,76.868756 239.15376,75.821466 C 244.41696,72.349076 247.71265,69.379946 255.86992,59.091666 C 250.73434,57.736846 228.58951,70.477016 240.44907,76.250826"
       id="path3238"
       style="fill:none;fill-rule:evenodd;stroke:#000000;stroke-width:3;stroke-linecap:round;stroke-linejoin:round;stroke-miterlimit:4;stroke-dasharray:none;stroke-opacity:1" />
    <path
       d="M 284.6992,81.633984 C 238.68215,96.600121 287.65827,12.629897 311.89063,17.097796 C 328.57216,32.85473 289.05806,67.109245 278.51103,93.41886 C 294.36549,75.38631 310.41524,56.963169 327.18962,37.090785 C 325.72656,37.090785 291.21147,91.39778 295.89624,93.418859 C 299.41106,94.935202 341.39474,47.865856 341.09778,46.826502 C 332.09721,62.202241 316.07764,79.588792 319.01857,89.420262 C 330.66907,83.521433 342.92627,66.095399 355.00595,52.042064 C 346.56331,65.620923 331.36705,84.739933 337.62074,88.377149 C 351.71405,81.117429 360.01265,65.487568 370.30493,52.737472 C 361.90761,67.182102 343.69419,90.522583 363.00315,79.858397 C 373.16579,74.375817 381.41132,65.538282 389.77637,56.909922"
       id="path3240"
       style="fill:none;fill-rule:evenodd;stroke:#000000;stroke-width:3;stroke-linecap:round;stroke-linejoin:round;stroke-miterlimit:4;stroke-dasharray:none;stroke-opacity:1" />
    <path
       d="M 390.43199,56.19807 C 383.30193,68.245404 365.78939,91.416834 369.04182,92.340073 C 378.79142,93.419001 395.33826,63.910368 408.62592,49.068015 C 360.60379,122.6475 421.62082,53.696165 447.66374,19.517037 C 449.5861,20.338269 453.03888,14.017292 457.30699,9.9756432 C 428.8163,50.538648 394.91522,93.733306 386.98989,111.76333 C 404.77547,91.837437 434.35121,39.940836 440.34237,52.018382 C 430.76988,76.051231 423.05313,80.540145 419.19807,83.243107 C 411.50752,86.571777 415.17891,77.400023 417.23372,75.361825 C 420.85976,69.826352 428.51926,64.244737 423.50687,76.44712 L 419.94673,82.292037"
       id="path3242"
       style="fill:none;fill-rule:evenodd;stroke:#000000;stroke-width:3;stroke-linecap:round;stroke-linejoin:round;stroke-miterlimit:4;stroke-dasharray:none;stroke-opacity:1" />
    <path
       id="path3244"
       style="fill:none;fill-rule:evenodd;stroke:#000000;stroke-width:3;stroke-linecap:round;stroke-linejoin:round;stroke-miterlimit:4;stroke-dasharray:none;stroke-opacity:1" />
    <path
       d="M 434.45635,71.339645 C 453.08792,70.696889 479.53028,20.20646 482.26568,21.965654 C 493.65714,-7.1258629 437.46823,85.912071 440.54118,89.420262 C 443.13631,92.543975 462.0314,70.923339 477.05011,52.389768 C 467.2427,68.114952 456.07919,85.050949 458.79564,89.594114 C 463.03219,91.67606 481.96743,66.197952 493.56606,54.475993 C 484.30011,69.1266 464.70312,95.980688 468.53135,97.939013 C 477.101,98.326124 504.80818,66.76226 521.20854,43.175608 C 485.64734,90.928604 439.7456,146.71408 443.67051,155.83176 C 450.95191,159.59771 474.06973,127.41 483.30878,137.05574 C 478.66098,124.08957 446.26427,162.20654 444.01821,152.19961"
       id="path3246"
       style="fill:none;fill-rule:evenodd;stroke:#000000;stroke-width:3;stroke-linecap:round;stroke-linejoin:round;stroke-miterlimit:4;stroke-dasharray:none;stroke-opacity:1" />
    <path
       d="M 269.99228,57.257626 C 262.61343,76.663261 267.84297,81.4783 271.20924,81.423066"
       id="path4064"
       style="fill:none;fill-rule:evenodd;stroke:#000000;stroke-width:3;stroke-linecap:round;stroke-linejoin:round;stroke-miterlimit:4;stroke-dasharray:none;stroke-opacity:1" />
    <path
       d="M 235.47621,91.47955 C 231.46702,90.599306 241.62356,81.602125 242.9136,74.14614"
       id="path4066"
       style="fill:none;fill-rule:evenodd;stroke:#000000;stroke-width:3;stroke-linecap:round;stroke-linejoin:round;stroke-miterlimit:4;stroke-dasharray:none;stroke-opacity:1" />
    <path
       d="M 202.34605,97.011489 L 212.42647,83.980698 L 217.34375,79.555147"
       id="path4068"
       style="fill:none;fill-rule:evenodd;stroke:#000000;stroke-width:3;stroke-linecap:round;stroke-linejoin:round;stroke-miterlimit:4;stroke-dasharray:none;stroke-opacity:1" />
    <path
       d="M 381.77918,64.907118 C 378.38158,70.953944 363.70473,77.987492 368.56641,70.818089"
       id="path4070"
       style="fill:none;fill-rule:evenodd;stroke:#000000;stroke-width:3;stroke-linecap:round;stroke-linejoin:round;stroke-miterlimit:4;stroke-dasharray:none;stroke-opacity:1" />
  </g>
</svg>
