<?xml version="1.0" encoding="UTF-8" standalone="no"?>
<!-- Created with Inkscape (http://www.inkscape.org/) -->
<svg
   xmlns:dc="http://purl.org/dc/elements/1.1/"
   xmlns:cc="http://creativecommons.org/ns#"
   xmlns:rdf="http://www.w3.org/1999/02/22-rdf-syntax-ns#"
   xmlns:svg="http://www.w3.org/2000/svg"
   xmlns="http://www.w3.org/2000/svg"
   xmlns:sodipodi="http://sodipodi.sourceforge.net/DTD/sodipodi-0.dtd"
   xmlns:inkscape="http://www.inkscape.org/namespaces/inkscape"
   width="792.4884"
   height="272.30609"
   id="svg2"
   sodipodi:version="0.32"
   inkscape:version="0.46"
   sodipodi:docname="Ridley Scott.svg"
   inkscape:output_extension="org.inkscape.output.svg.inkscape"
   version="1.0">
  <defs
     id="defs4">
    <inkscape:perspective
       sodipodi:type="inkscape:persp3d"
       inkscape:vp_x="0 : 526.18109 : 1"
       inkscape:vp_y="0 : 1000 : 0"
       inkscape:vp_z="744.09448 : 526.18109 : 1"
       inkscape:persp3d-origin="372.04724 : 350.78739 : 1"
       id="perspective10" />
    <inkscape:perspective
       id="perspective2390"
       inkscape:persp3d-origin="372.04724 : 350.78739 : 1"
       inkscape:vp_z="744.09448 : 526.18109 : 1"
       inkscape:vp_y="0 : 1000 : 0"
       inkscape:vp_x="0 : 526.18109 : 1"
       sodipodi:type="inkscape:persp3d" />
    <inkscape:perspective
       id="perspective2407"
       inkscape:persp3d-origin="372.04724 : 350.78739 : 1"
       inkscape:vp_z="744.09448 : 526.18109 : 1"
       inkscape:vp_y="0 : 1000 : 0"
       inkscape:vp_x="0 : 526.18109 : 1"
       sodipodi:type="inkscape:persp3d" />
    <inkscape:perspective
       id="perspective2451"
       inkscape:persp3d-origin="372.04724 : 350.78739 : 1"
       inkscape:vp_z="744.09448 : 526.18109 : 1"
       inkscape:vp_y="0 : 1000 : 0"
       inkscape:vp_x="0 : 526.18109 : 1"
       sodipodi:type="inkscape:persp3d" />
    <inkscape:perspective
       id="perspective2480"
       inkscape:persp3d-origin="372.04724 : 350.78739 : 1"
       inkscape:vp_z="744.09448 : 526.18109 : 1"
       inkscape:vp_y="0 : 1000 : 0"
       inkscape:vp_x="0 : 526.18109 : 1"
       sodipodi:type="inkscape:persp3d" />
    <inkscape:perspective
       id="perspective2519"
       inkscape:persp3d-origin="372.04724 : 350.78739 : 1"
       inkscape:vp_z="744.09448 : 526.18109 : 1"
       inkscape:vp_y="0 : 1000 : 0"
       inkscape:vp_x="0 : 526.18109 : 1"
       sodipodi:type="inkscape:persp3d" />
    <inkscape:perspective
       id="perspective2532"
       inkscape:persp3d-origin="372.04724 : 350.78739 : 1"
       inkscape:vp_z="744.09448 : 526.18109 : 1"
       inkscape:vp_y="0 : 1000 : 0"
       inkscape:vp_x="0 : 526.18109 : 1"
       sodipodi:type="inkscape:persp3d" />
    <inkscape:perspective
       id="perspective2547"
       inkscape:persp3d-origin="372.04724 : 350.78739 : 1"
       inkscape:vp_z="744.09448 : 526.18109 : 1"
       inkscape:vp_y="0 : 1000 : 0"
       inkscape:vp_x="0 : 526.18109 : 1"
       sodipodi:type="inkscape:persp3d" />
    <inkscape:perspective
       id="perspective2610"
       inkscape:persp3d-origin="372.04724 : 350.78739 : 1"
       inkscape:vp_z="744.09448 : 526.18109 : 1"
       inkscape:vp_y="0 : 1000 : 0"
       inkscape:vp_x="0 : 526.18109 : 1"
       sodipodi:type="inkscape:persp3d" />
    <inkscape:perspective
       id="perspective2645"
       inkscape:persp3d-origin="372.04724 : 350.78739 : 1"
       inkscape:vp_z="744.09448 : 526.18109 : 1"
       inkscape:vp_y="0 : 1000 : 0"
       inkscape:vp_x="0 : 526.18109 : 1"
       sodipodi:type="inkscape:persp3d" />
  </defs>
  <sodipodi:namedview
     id="base"
     pagecolor="#ffffff"
     bordercolor="#666666"
     borderopacity="1.0"
     inkscape:pageopacity="0.0"
     inkscape:pageshadow="2"
     inkscape:zoom="0.86"
     inkscape:cx="358.87055"
     inkscape:cy="145.49041"
     inkscape:document-units="px"
     inkscape:current-layer="layer1"
     showgrid="false"
     inkscape:window-width="1280"
     inkscape:window-height="750"
     inkscape:window-x="-8"
     inkscape:window-y="-8" />
  <metadata
     id="metadata7">
    <rdf:RDF>
      <cc:Work
         rdf:about="">
        <dc:format>image/svg+xml</dc:format>
        <dc:type
           rdf:resource="http://purl.org/dc/dcmitype/StillImage" />
      </cc:Work>
    </rdf:RDF>
  </metadata>
  <g
     inkscape:label="Calque 1"
     inkscape:groupmode="layer"
     id="layer1"
     transform="translate(193.04279,-115.89926)">
    <path
       style="fill:#000000"
       d="M 306.0747,386.38365 C 303.472,383.41177 299.22602,382.60888 297.28814,379.12407 C 305.90405,370.42521 306.42631,359.75224 310.06389,347.29556 C 316.69216,327.09636 321.40347,312.65525 327.6719,293.04147 C 333.32426,279.3427 331.56708,269.35892 324.17303,272.53975 C 317.25284,275.51674 304.98071,269.19101 302.37827,261.30553 C 301.0983,257.4272 296.46553,255.27548 294.12518,257.47233 C 290.48954,260.5998 286.78468,263.64281 283.20429,266.83541 C 271.46185,277.43075 255.61862,279.57953 245.48848,271.95073 C 240.17702,268.96003 233.09335,269.99555 227.10929,269.82632 C 223.77144,269.73044 218.10877,274.27737 215.88838,278.83631 C 212.23055,286.34668 200.8179,283.59072 194.15874,273.58898 C 192.34183,270.86007 187.31663,271.69591 187.31663,274.72704 C 187.31663,280.98375 171.38004,288.32317 165.07846,284.96858 C 154.6664,280.99083 150.13609,271.07933 147.05758,260.94384 C 142.67554,243.28083 143.54708,243.59683 131.12169,255.16589 C 121.77463,263.86876 119.506,265.47298 116.55132,265.46903 C 113.88646,265.46548 110.6065,263.23906 110.6065,261.43371 C 118.45602,257.64587 133.09735,242.33131 138.41392,236.56631 C 143.60213,232.57967 142.93705,227.24928 143.43346,220.89406 C 143.93434,214.18008 144.54007,208.36981 144.77953,207.98235 C 146.13817,200.67225 147.17765,193.25581 148.2773,185.88467 C 149.21265,179.47172 155.00724,166.80939 157.53332,165.65844 C 159.93638,164.56352 166.93073,168.3545 169.9412,172.38358 C 175.04996,178.11284 175.80029,186.066 174.33923,193.45679 C 172.84051,201.01626 168.46667,206.78879 164.94284,213.47268 C 164.94284,215.33372 160.66113,222.25762 157.97118,224.74646 C 155.47922,226.76749 154.25456,229.72452 152.4269,232.25139 C 150.18388,234.82127 151.65834,254.65058 154.42535,259.1277 C 156.56391,267.7723 157.0633,277.94566 167.59646,279.50815 C 171.0809,279.46454 178.8028,274.3249 180.23754,271.09435 C 187.41328,259.81714 188.07075,246.55568 187.39965,233.50887 C 186.54,226.16464 188.96847,225.96231 193.88528,232.9685 C 196.29879,236.40762 196.29879,236.40762 196.93353,245.66571 C 198.3863,266.85538 198.60419,267.9713 202.20485,272.663 C 205.08472,276.41549 207.73598,276.06791 212.75823,271.27945 C 217.83604,266.43804 219.25223,262.01068 217.62218,256.07366 C 214.78645,245.7453 216.71919,239.97153 222.12483,242.6227 C 227.15823,245.09131 229.2371,250.26925 228.38877,258.22457 C 228.02545,261.63167 230.01432,263.1789 234.79985,263.21203 C 238.42174,263.23711 239.70483,260.94658 239.72551,254.41887 C 239.74847,247.17554 245.37183,242.44285 252.09766,244.00632 C 260.0141,245.84656 267.22301,251.67472 267.22301,256.23466 C 267.22301,257.69854 258.4849,264.83774 255.41137,265.885 C 251.24795,267.30362 251.42146,269.53586 255.71649,269.81049 C 263.99889,270.34005 277.77698,262.72664 286.84612,252.60907 C 291.44682,247.47651 291.44682,247.47651 291.44954,239.05437 C 291.26963,228.63049 294.1167,218.58447 295.33713,208.28232 C 298.11946,193.00184 301.11713,178.79556 303.29309,162.552 C 303.61154,150.32309 306.79793,137.17056 311.28424,129.56684 C 317.42638,117.13941 322.07452,113.12906 334.45727,117.77258 C 345.10691,127.0438 349.94453,138.96931 347.81357,152.59822 C 342.31694,176.39372 334.43297,198.54345 321.78689,219.54334 C 317.77289,224.82812 314.80874,230.95844 310.5461,236.05539 C 303.50371,244.07956 301.96726,250.99521 306.21209,255.56303 C 327.1385,281.69861 346.25799,233.05336 350.42209,213.49184 C 351.83726,209.3301 353.38447,209.13113 357.21224,212.61866 C 367.40305,214.04116 377.97029,217.37028 381.31093,206.53962 C 383.93825,197.62408 391.11902,204.779 391.22209,216.4151 C 391.33843,229.54788 414.66924,233.60723 423.5199,222.03463 C 427.5432,216.77401 433.59704,214.88003 438.60533,217.31509 C 440.61207,218.29077 444.26047,219.44535 445.33683,219.44535 C 446.62371,219.44535 448.71917,214.82006 450.37464,208.32536 C 453.79124,196.93632 456.41796,185.36087 456.6937,173.41927 C 456.09754,164.314 462.8105,167.92382 464.13113,177.41865 C 465.1174,189.39386 460.56265,200.60289 459.94008,212.41358 C 459.17233,222.43593 460.19245,244.33208 461.50055,245.90822 C 462.90927,247.60568 467.65347,247.23634 470.91614,245.1752 C 473.99132,243.23249 474.15689,242.61785 472.70291,238.54344 C 469.45948,229.45482 474.64982,211.19442 482.88503,202.72098 C 486.31244,199.19442 491.98752,198.69682 495.67747,201.59932 C 500.76088,205.20987 510.24491,215.73414 510.76156,221.41919 C 509.29064,226.54813 510.13918,227.90987 515.89167,229.65206 C 519.85999,231.14159 523.70738,233.14302 527.27648,235.43769 C 537.32627,242.86786 552.02994,242.49824 553.36834,234.78182 C 555.41037,223.00921 564.43186,214.42321 571.54454,217.48301 C 580.64952,221.39986 582.13981,219.51437 585.55034,199.76332 C 589.76707,189.15364 587.93264,174.9575 593.67592,165.10901 C 598.18322,165.10901 600.8145,170.63387 598.70817,175.67501 C 596.56932,188.14153 593.94158,200.56648 591.36164,212.97867 C 588.936,222.3097 588.8591,223.04524 589.04826,235.107 C 584.33238,250.96089 596.18303,252.83598 593.96876,258.27985 C 592.14249,261.28266 585.55711,259.74366 584.64267,256.10033 C 579.7608,248.0205 582.57101,239.12218 570.04345,244.37592 C 563.34817,249.05663 557.72621,247.90313 550.41123,247.2784 C 541.02473,246.58079 531.94359,243.68321 527.92436,240.10334 C 526.86295,239.15796 523.75203,238.15211 520.04681,237.55628 C 517.52809,237.15126 515.27735,239.47152 511.3847,246.48592 C 508.16684,252.28427 509.07125,251.86346 501.68227,251.00024 C 495.15281,251.57126 490.01879,254.91433 483.05015,253.08061 C 479.63272,251.65273 471.9727,252.28397 470.10966,254.14701 C 466.50058,257.75611 455.8676,251.41962 452.24132,243.49878 C 449.73776,238.03039 448.07513,238.49716 444.38649,245.70392 C 442.0782,250.29493 439.38506,254.7178 437.90305,259.65601 C 437.90305,261.39219 426.93885,272.4809 424.49954,273.21174 C 414.78716,276.12164 407.99887,261.38165 412.69162,247.57221 C 415.58122,239.06895 414.23501,236.88512 405.04024,235.16017 C 401.7971,234.55176 398.30648,232.87641 395.27325,230.47243 C 390.31399,226.54199 389.21519,227.31214 389.34496,234.62756 C 389.6907,254.11804 388.35712,263.63315 384.58501,268.58995 C 383.14597,270.48093 381.32255,272.98944 380.53297,274.16441 C 375.83119,281.16109 366.46515,275.36307 367.80408,266.28462 C 368.75131,259.86198 373.05295,242.78209 374.52931,239.58175 C 381.20126,225.11879 379.49333,217.16889 370.34391,220.10001 C 365.01118,221.80841 358.85192,233.12641 357.35786,243.96264 C 357.07962,251.70237 350.7638,257.29572 349.04715,264.44178 C 339.29813,297.67219 328.69973,330.90829 317.48065,363.78802 C 316.58436,365.5413 315.54801,371.2332 314.81135,378.44847 C 313.94445,386.93938 309.74884,390.75011 306.0747,386.38365 z M 424.09483,263.2174 C 430.76236,258.11638 433.42971,250.94175 437.02994,243.93052 C 445.02194,229.35873 443.26136,226.04083 430.23203,231.11932 C 423.33105,233.80915 421.96735,236.70272 419.91715,253.00603 C 418.53624,263.98703 419.463,266.25229 424.09483,263.2174 z M 253.50013,260.07021 C 258.4349,258.00833 261.06559,251.32654 257.66015,249.50401 C 251.3137,247.43176 247.68413,251.14143 245.86446,256.43071 C 243.78551,259.79454 248.6316,262.10441 253.50013,260.07021 z M 499.65355,235.04 C 498.79516,232.80317 491.54273,236.30629 485.2913,241.97728 C 481.82471,245.12207 482.19432,246.08627 487.16917,246.87549 C 493.30195,245.77382 500.08242,242.02093 499.65355,235.04 z M 572.10983,232.63999 C 577.76081,228.33048 577.83771,223.62953 572.25724,223.62953 C 566.66304,223.62953 559.65761,233.07514 562.8696,236.28714 C 566.12824,238.54124 569.76225,234.74087 572.10983,232.63999 z M 484.60302,234.20641 C 489.43007,231.04815 494.27553,225.72318 497.22644,220.33387 C 502.92747,209.92188 495.18135,201.32715 487.45766,209.49496 C 477.33525,220.19948 474.99067,240.49567 484.60302,234.20641 z M 306.9536,226.3173 C 316.35425,214.59854 324.58118,201.79199 330.16571,187.80242 C 334.90412,168.02996 345.27712,148.70709 336.90046,128.77131 C 332.92194,120.75254 329.09722,118.96701 324.98,123.20637 C 317.21738,132.02415 314.80418,144.21644 311.90657,155.31881 C 309.27952,177.91848 304.8009,200.05408 302.33254,222.6416 C 301.44514,230.95036 302.42373,231.72875 306.9536,226.3173 z M 157.83501,215.29021 C 163.07156,207.38146 165.10082,198.49693 167.73959,189.5298 C 171.34494,183.69623 167.11239,171.71404 162.12275,173.62874 C 154.3258,182.92489 153.69989,197.38332 152.12764,208.91245 C 151.00047,216.77388 154.98104,221.22202 157.83501,215.29021 z M -143.55708,384.43904 C -146.23434,382.80647 -147.12059,375.38583 -145.08734,371.626 C -139.79004,355.50564 -132.42859,340.39951 -127.19489,324.21085 C -123.9986,292.63662 -118.64288,261.29522 -112.40611,230.15547 C -111.75229,227.55085 -112.52358,225.19861 -114.03145,225.19861 C -130.05967,237.28007 -143.85311,252.72958 -157.92995,267.12968 C -166.14664,273.54512 -178.34443,294.24193 -191.06984,288.64427 C -197.38556,284.22158 -186.83437,281.37233 -183.22491,279.32348 C -162.94802,262.24017 -143.23643,244.16259 -125.66553,224.23973 C -117.00141,213.43411 -105.6035,202.30878 -101.88483,188.57272 C -99.101674,177.27706 -96.579502,173.63993 -92.522323,175.07138 C -87.654449,179.64858 -93.339515,194.81385 -96.793485,202.61637 C -104.89734,228.36225 -109.87097,255.13892 -113.38138,281.58812 C -115.66024,286.79419 -116.22394,300.63023 -114.15719,300.63023 C -108.67086,294.30468 -104.0587,286.15637 -100.51823,278.40597 C -91.814895,267.72578 -87.949042,254.28182 -81.353142,242.37988 C -71.79313,231.32535 -61.196396,185.2666 -49.893131,179.81178 C -46.229781,179.81178 -44.418591,183.30336 -46.296705,186.74491 C -49.652811,194.51964 -53.222003,202.34191 -55.578163,210.49583 C -59.676757,221.30509 -64.721695,230.22678 -65.885985,241.79683 C -66.832729,251.83623 -67.077081,262.98287 -64.524284,273.70896 C -63.275133,283.25612 -49.266882,294.35417 -36.22051,290.77285 C -19.724412,286.24456 -15.025355,282.90394 -15.679321,276.16985 C -16.235548,254.35243 -9.5524929,231.32291 1.1731395,212.15365 C 2.8441162,209.31772 4.7901115,207.69979 9.4266186,205.29162 C 17.379459,203.96287 24.838002,207.12105 31.563359,210.9462 C 35.377488,213.0044 40.22273,219.80154 42.450041,226.21858 C 44.044326,230.81181 41.355796,243.49039 38.400142,245.31708 C 36.015499,246.79088 30.646666,255.51828 29.654107,259.53437 C 28.069242,264.42601 26.182818,268.77073 27.252633,274.04903 C 31.165064,276.83635 35.475942,270.66841 37.927985,267.79959 C 41.133549,263.52133 43.923842,259.01545 46.409153,254.28453 C 52.782566,244.12451 55.336309,232.5661 58.517207,221.22606 C 59.132921,217.93114 59.967476,217.41097 62.977786,218.44587 C 68.299039,220.27524 69.684047,223.11671 68.418579,229.6082 C 67.109499,236.59539 67.80836,243.77773 66.572812,250.76865 C 64.81553,258.17393 66.249722,260.86251 69.80018,256.81876 C 72.241576,254.03817 79.283201,243.8389 79.283201,243.08332 C 79.283201,239.68951 81.910082,236.70048 84.538791,237.10319 C 91.34957,238.14657 91.840968,239.19064 92.33835,253.67464 C 93.060915,274.71621 96.776236,279.04004 110.92613,275.30677 C 125.85912,271.3669 124.59517,276.82696 109.328,282.21044 C 99.391156,285.71436 86.891778,278.66967 83.970471,267.91886 C 81.876617,260.2132 79.718205,259.04363 76.209554,263.71348 C 70.23857,270.91837 66.533075,279.52626 61.029048,287.09392 C 56.074526,295.48124 45.462965,287.65505 49.534547,278.61655 C 50.49024,276.49501 52.434656,269.86584 52.434656,268.7291 C 52.434656,267.04571 50.549288,268.44829 44.414798,274.6953 C 34.306749,284.98876 27.801871,287.33582 23.029108,282.41158 C 19.645986,278.92108 16.704901,279.62745 10.761867,285.35786 C 3.3629791,296.03029 -7.6936941,286.3764 -16.329593,291.36109 C -23.67696,295.4221 -32.413909,296.84168 -40.663484,297.89164 C -51.156272,298.93934 -66.668543,287.63114 -71.696808,275.26883 C -75.749549,266.39065 -72.329951,256.48963 -73.670087,247.18737 C -74.801612,246.05506 -77.685721,247.95869 -79.09699,250.76933 C -85.445495,264.14135 -93.095845,276.82433 -99.939802,289.94518 C -106.38934,301.70601 -111.91494,313.73188 -115.68444,326.74651 C -122.47263,341.7778 -127.36051,357.50494 -132.62887,373.18523 C -136.76001,381.52159 -138.57682,387.47596 -143.55708,384.43904 z M 2.2935286,270.45806 C 7.9168899,267.57286 9.6566162,265.96392 12.960886,261.17927 C 16.072217,258.98657 17.517741,254.19424 17.9844,250.19784 C 20.151615,231.63802 23.804347,222.6416 29.172809,222.6416 C 31.978622,222.6416 31.978622,222.6416 31.978622,220.28909 C 31.978622,211.78861 13.59536,208.23533 9.3451908,215.9143 C 1.596288,229.4566 -5.3457122,244.739 -6.9948717,260.44714 C -7.9341617,273.14008 -4.5602847,276.06524 2.2935286,270.45806 z"
       id="path2651"
       sodipodi:nodetypes="ccccssccccsssccsscccccscccccccccssssssssssssssccccccccccccssssccccssssccccsscccccccccsssccssccsssssssssscccscccssccccccscccscccssccccccccccccccccccccccccccccccccccsccccsscccccsccsssssssccssssccccccccccccsssccc" />
  </g>
</svg>
