<?xml version="1.0" standalone="no"?>
<!DOCTYPE svg PUBLIC "-//W3C//DTD SVG 20010904//EN"
 "http://www.w3.org/TR/2001/REC-SVG-20010904/DTD/svg10.dtd">
<svg version="1.0" xmlns="http://www.w3.org/2000/svg"
 width="468pt" height="265pt" viewBox="0 0 468 265"
 preserveAspectRatio="xMidYMid meet">
<metadata>
Created by POTRACE VERSION, written by Peter Selinger 2001-2007
</metadata>
<g transform="translate(0,265) scale(0.012059,-0.012059)"
fill="#000000" stroke="none">
<path d="M31579 21865 l-156 4 -24 -25 c-13 -14 -36 -33 -51 -42 -16 -9 -33
-32 -39 -51 -7 -19 -30 -54 -52 -78 -35 -38 -39 -47 -29 -64 7 -10 12 -43 12
-74 0 -31 -9 -78 -20 -107 -11 -29 -20 -72 -20 -96 0 -23 -9 -75 -20 -115 -15
-55 -28 -79 -55 -104 -19 -18 -43 -33 -53 -33 -10 0 -31 -13 -47 -30 -16 -16
-47 -37 -70 -46 -24 -9 -52 -29 -64 -45 -12 -16 -35 -36 -52 -44 -17 -9 -44
-31 -60 -48 -16 -18 -40 -52 -53 -77 l-24 -45 23 -27 c12 -14 31 -31 43 -37
11 -6 30 -11 42 -11 13 0 49 -26 91 -67 l69 -66 0 -62 c0 -52 -4 -68 -28 -101
-16 -21 -45 -54 -66 -71 -20 -18 -46 -33 -56 -33 -16 0 -20 -7 -20 -30 0 -17
-7 -47 -15 -67 -8 -19 -15 -56 -15 -82 0 -27 -7 -56 -16 -70 -14 -19 -15 -39
-9 -121 6 -85 4 -103 -12 -132 -10 -18 -20 -51 -23 -73 -4 -31 -12 -44 -37
-60 -30 -19 -32 -23 -33 -81 0 -34 -7 -81 -15 -104 -9 -24 -15 -77 -15 -122 0
-62 -4 -86 -19 -106 -11 -16 -21 -55 -25 -96 -4 -45 -14 -78 -26 -94 -14 -17
-20 -40 -20 -72 0 -26 -5 -62 -12 -81 -6 -19 -22 -50 -34 -69 -13 -19 -31 -64
-40 -100 -9 -36 -21 -132 -26 -215 -7 -113 -13 -154 -25 -167 -9 -10 -27 -18
-40 -18 -20 0 -23 -5 -23 -38 0 -21 -4 -42 -9 -47 -5 -6 -17 -70 -25 -143 -8
-73 -21 -142 -27 -155 -6 -12 -34 -45 -60 -74 l-49 -52 0 -75 c0 -70 2 -76 31
-106 30 -30 31 -33 27 -105 -3 -61 -7 -78 -27 -99 -16 -17 -35 -26 -56 -26
-28 0 -32 -4 -43 -47 -7 -27 -27 -66 -44 -87 -31 -38 -32 -42 -29 -125 2 -81
1 -89 -28 -131 -17 -25 -31 -49 -31 -55 0 -5 -14 -30 -30 -54 -29 -42 -30 -48
-30 -158 0 -105 -2 -117 -24 -146 -13 -18 -45 -77 -71 -132 -27 -55 -59 -113
-71 -128 -13 -16 -24 -37 -24 -46 0 -10 -10 -40 -22 -67 -18 -40 -21 -65 -19
-136 l3 -86 -37 -41 c-21 -23 -43 -41 -50 -41 -8 0 -18 -23 -25 -57 -9 -42
-21 -66 -45 -90 l-32 -32 -8 -148 -7 -148 -40 -43 c-22 -24 -51 -68 -64 -98
-13 -30 -24 -63 -24 -73 0 -9 -20 -59 -45 -111 -25 -51 -55 -105 -65 -121 -15
-21 -20 -44 -20 -99 0 -39 -5 -81 -11 -93 -7 -12 -26 -38 -44 -58 -18 -20 -42
-63 -54 -95 -12 -33 -43 -102 -68 -154 -26 -52 -55 -106 -65 -119 -10 -13 -18
-36 -18 -51 0 -17 -13 -44 -34 -68 -18 -23 -39 -62 -45 -89 -7 -26 -23 -59
-35 -73 -13 -14 -31 -47 -39 -73 -9 -27 -36 -70 -60 -97 -25 -27 -52 -65 -61
-84 -9 -19 -16 -43 -16 -54 0 -10 -12 -37 -26 -58 -14 -21 -58 -72 -97 -111
-59 -61 -77 -73 -104 -73 -17 0 -35 -4 -38 -10 -3 -5 -34 -10 -69 -10 -52 0
-66 4 -84 23 -11 12 -35 49 -52 82 -28 54 -31 67 -28 132 2 47 -1 73 -8 73 -5
0 -23 14 -40 31 -27 29 -29 35 -29 114 0 73 3 86 23 108 l22 24 -21 19 c-12
10 -30 36 -40 56 -12 24 -19 58 -19 97 0 58 1 61 40 92 25 20 40 41 40 54 0
13 -7 28 -15 35 -11 9 -15 33 -15 90 0 66 4 83 25 114 14 20 25 39 25 41 0 3
-20 5 -44 5 -36 0 -48 5 -65 26 -16 21 -21 41 -21 89 0 48 5 68 21 89 12 15
30 26 45 26 23 0 24 2 24 76 0 41 5 85 11 97 6 12 23 34 37 50 l26 27 -35 1
c-19 0 -59 6 -91 12 -31 7 -66 21 -78 32 -19 17 -21 28 -17 80 2 33 7 68 12
78 6 13 2 17 -17 17 -14 0 -32 8 -41 18 -11 12 -17 36 -17 64 0 28 6 50 15 58
13 11 12 16 -9 40 -14 17 -26 49 -30 77 -4 26 -10 58 -13 71 -4 17 -12 22 -38
22 -25 0 -40 8 -58 30 -18 21 -27 47 -32 92 -4 35 -14 75 -21 90 -8 15 -14 41
-14 59 0 26 -3 30 -17 24 -10 -5 -45 -10 -78 -12 -51 -4 -64 -2 -88 17 -15 12
-34 38 -43 58 -8 21 -36 58 -62 85 -25 26 -51 47 -56 47 -6 0 -27 18 -47 40
-33 36 -41 40 -86 40 -41 0 -54 5 -76 28 -16 16 -27 39 -27 55 0 26 -2 27 -57
27 -54 0 -58 2 -101 46 l-44 47 4 63 4 64 -47 0 c-43 0 -51 4 -81 39 -18 21
-44 44 -58 51 -14 7 -37 24 -52 38 -26 23 -28 32 -28 97 l0 72 -82 6 c-46 3
-91 8 -100 12 -12 5 -18 2 -18 -7 0 -8 -13 -26 -28 -41 -16 -15 -43 -32 -61
-37 -18 -5 -72 -12 -119 -15 -48 -4 -108 -14 -134 -23 -27 -9 -48 -22 -48 -29
0 -8 -7 -28 -16 -45 -15 -30 -15 -31 15 -62 23 -24 31 -41 31 -69 0 -28 7 -43
26 -60 14 -12 32 -34 40 -49 8 -15 14 -56 14 -93 0 -37 -7 -82 -16 -103 -12
-29 -14 -57 -8 -132 3 -52 13 -108 21 -124 8 -16 18 -56 21 -88 3 -41 -1 -77
-13 -118 l-18 -59 37 -41 c20 -22 36 -46 36 -54 0 -8 16 -33 35 -56 31 -37 35
-48 35 -98 -1 -32 -9 -92 -19 -134 -10 -43 -23 -83 -28 -90 -6 -7 -16 -30 -23
-51 -11 -35 -10 -40 11 -63 15 -16 26 -44 31 -82 5 -31 11 -89 14 -128 6 -69
5 -71 -25 -96 -16 -14 -36 -28 -43 -31 -9 -3 -5 -13 13 -33 15 -16 32 -40 39
-53 9 -17 10 -78 5 -240 -5 -164 -11 -222 -22 -239 -8 -13 -21 -45 -29 -71 -7
-26 -23 -56 -34 -66 -11 -10 -20 -24 -20 -30 0 -7 7 -18 15 -25 10 -8 15 -31
15 -71 0 -43 -7 -70 -25 -105 -14 -26 -25 -57 -25 -70 0 -13 -14 -40 -32 -60
-28 -32 -31 -41 -29 -91 2 -51 0 -58 -30 -89 l-33 -34 27 -28 c23 -24 27 -37
27 -84 0 -45 -6 -63 -30 -99 -16 -24 -32 -60 -35 -79 -4 -19 -13 -66 -22 -105
-9 -38 -29 -97 -45 -130 -16 -33 -35 -72 -43 -86 -8 -15 -22 -60 -30 -100 -8
-41 -23 -105 -33 -143 -13 -51 -25 -74 -47 -92 -17 -14 -35 -28 -41 -33 -6 -5
-14 -39 -18 -75 -4 -36 -11 -77 -16 -90 -5 -14 -36 -54 -69 -91 -34 -37 -61
-72 -61 -78 0 -6 -12 -24 -27 -39 -17 -18 -37 -28 -55 -28 -15 0 -28 -4 -28
-10 0 -5 -16 -27 -35 -49 -24 -26 -47 -41 -73 -46 -20 -4 -51 -15 -68 -26 -22
-13 -50 -19 -93 -19 -48 0 -74 6 -121 30 -34 17 -70 45 -87 67 -15 21 -32 40
-37 42 -5 2 -25 18 -45 36 -20 18 -46 37 -58 44 -12 6 -29 11 -39 11 -9 0 -47
27 -84 60 -54 48 -78 62 -116 69 -33 6 -56 18 -71 36 -20 23 -23 37 -23 122
l0 96 -40 43 c-22 24 -40 50 -40 57 0 8 -18 19 -39 26 -22 6 -53 27 -70 46
-17 20 -31 39 -31 44 0 4 -16 28 -35 52 -19 24 -35 54 -35 67 0 19 -5 22 -39
22 -31 0 -47 7 -75 34 -34 32 -36 37 -36 99 0 36 4 77 10 91 7 19 5 43 -5 84
-8 31 -19 98 -24 149 -5 50 -15 101 -21 112 -6 12 -19 21 -29 21 -11 0 -31 15
-46 32 -26 31 -27 36 -23 120 4 67 2 90 -8 99 -8 6 -14 18 -14 27 0 8 -16 32
-35 53 -29 33 -35 47 -35 85 0 30 -7 56 -20 75 -12 15 -29 52 -40 81 -10 29
-26 71 -34 93 -8 22 -24 58 -35 80 -12 21 -21 46 -21 55 0 9 -7 25 -15 37 -14
20 -21 21 -103 16 -67 -4 -96 -2 -125 10 -27 12 -45 14 -63 7 -14 -6 -44 -10
-68 -10 -33 0 -48 6 -69 28 -24 25 -27 36 -27 93 0 47 10 96 39 184 34 107 37
126 31 181 -4 33 -13 71 -21 85 -7 13 -16 48 -20 78 -6 39 -15 62 -37 85 -16
17 -34 40 -39 51 -6 11 -13 37 -17 58 -7 35 -9 37 -45 37 -26 0 -44 7 -59 23
-17 18 -22 36 -22 80 0 52 3 61 37 98 l37 41 -23 41 c-12 23 -41 56 -64 72
-38 28 -43 36 -48 85 -4 30 -17 81 -31 112 -13 31 -29 63 -35 70 -5 7 -13 21
-16 31 -5 13 -17 17 -50 17 -36 0 -49 6 -75 33 -20 21 -32 43 -32 60 0 25 -3
27 -40 27 -35 0 -48 7 -90 46 -37 35 -50 54 -50 75 0 24 -7 31 -37 44 -21 9
-48 26 -60 37 -15 14 -23 33 -23 56 0 31 -2 34 -22 27 -13 -4 -56 -9 -96 -12
-66 -5 -76 -3 -98 18 -13 12 -24 30 -24 39 0 9 -2 19 -5 22 -3 2 -41 -1 -84
-8 -44 -7 -90 -19 -103 -26 -15 -8 -60 -13 -128 -13 -84 0 -111 -4 -133 -17
-18 -12 -46 -18 -87 -18 -34 0 -92 -7 -130 -16 -38 -8 -86 -27 -107 -41 -21
-14 -59 -32 -86 -40 -37 -11 -70 -33 -130 -90 -45 -42 -89 -91 -98 -110 -9
-18 -29 -47 -44 -63 -17 -17 -39 -30 -53 -30 -17 0 -49 -23 -101 -72 -52 -50
-87 -93 -109 -137 -18 -36 -42 -77 -53 -92 -11 -16 -32 -54 -46 -86 -15 -32
-54 -89 -87 -127 -34 -38 -73 -82 -87 -97 -15 -15 -29 -35 -32 -44 -4 -8 -18
-15 -33 -15 -21 0 -25 -3 -18 -17 5 -10 9 -55 9 -100 0 -79 -1 -83 -32 -115
-18 -18 -39 -53 -48 -77 -8 -24 -42 -74 -75 -111 -58 -66 -60 -69 -60 -124 0
-32 -5 -67 -11 -79 -6 -12 -21 -32 -32 -44 -13 -15 -32 -23 -52 -23 -31 0 -32
-2 -44 -62 -7 -35 -12 -96 -11 -137 1 -68 -1 -76 -26 -102 -15 -16 -33 -29
-38 -29 -7 0 -12 -61 -13 -181 -2 -154 -5 -185 -20 -212 -10 -18 -33 -39 -49
-48 -17 -8 -46 -32 -65 -53 -18 -21 -51 -50 -74 -64 -23 -15 -68 -31 -105 -37
l-65 -11 -6 -70 c-4 -61 -11 -80 -49 -140 -24 -38 -56 -86 -72 -108 -15 -21
-28 -52 -28 -67 0 -19 -12 -42 -35 -68 -19 -21 -49 -68 -66 -104 -28 -60 -31
-75 -28 -149 1 -46 2 -115 3 -154 1 -65 -3 -78 -43 -155 -41 -80 -43 -88 -42
-161 1 -43 -3 -96 -10 -118 -12 -38 -11 -42 15 -68 14 -16 31 -44 36 -63 6
-18 10 -63 10 -100 0 -56 -3 -69 -23 -87 -13 -12 -31 -22 -41 -22 -14 0 -16
-4 -10 -17 4 -10 10 -40 12 -68 2 -27 -1 -80 -8 -117 -10 -58 -10 -70 4 -90
10 -14 16 -44 16 -82 0 -50 -4 -64 -24 -85 -22 -23 -24 -30 -16 -67 5 -22 23
-67 40 -98 17 -33 30 -74 30 -95 0 -24 12 -54 35 -91 24 -37 35 -66 35 -91 0
-30 9 -48 40 -84 38 -44 40 -50 40 -113 l0 -66 95 -97 c78 -79 95 -102 95
-127 0 -25 19 -49 113 -144 88 -90 129 -124 192 -158 45 -25 111 -73 152 -111
54 -51 82 -70 110 -75 21 -3 65 -19 98 -35 33 -15 87 -48 120 -72 53 -39 68
-46 130 -52 39 -4 135 -6 215 -5 95 1 157 7 180 16 19 8 73 18 120 23 67 6
100 16 157 44 40 20 87 50 105 65 18 16 56 40 83 54 28 13 77 40 110 60 33 19
98 72 144 117 67 64 96 85 138 98 47 15 54 21 63 52 5 19 24 49 42 68 17 18
38 33 45 33 7 0 13 10 13 23 0 12 7 34 17 47 9 14 27 37 41 53 20 20 35 27 64
27 32 0 38 3 38 21 0 13 20 41 48 68 40 38 50 56 55 92 3 24 18 73 32 109 18
46 41 81 80 120 51 51 56 62 71 130 9 46 24 84 36 98 12 12 30 22 40 22 15 0
18 8 18 43 0 23 5 59 10 79 6 21 28 58 49 82 24 28 40 58 44 83 4 24 18 49 36
67 18 17 34 47 41 76 7 29 23 59 41 76 25 24 29 35 29 85 0 32 4 69 10 84 5
14 23 34 40 43 26 15 30 23 30 59 0 30 7 50 25 72 18 21 30 52 39 104 8 45 21
85 34 102 12 15 22 40 22 56 0 15 5 52 11 81 6 29 20 63 32 76 14 15 32 22 58
22 37 0 37 0 43 48 4 26 6 56 6 67 0 11 -3 45 -6 76 -5 48 -2 64 21 108 16 33
29 80 35 128 6 56 14 80 31 99 18 19 33 24 70 24 40 0 51 -4 73 -31 14 -17 26
-36 26 -42 1 -7 4 -42 9 -78 5 -36 16 -78 26 -93 14 -21 25 -26 60 -26 29 0
47 -6 60 -20 14 -15 17 -32 13 -82 -3 -47 0 -74 14 -108 10 -25 23 -52 27 -61
5 -8 12 -59 16 -112 l7 -97 52 0 c46 0 56 -4 85 -34 31 -32 33 -37 29 -100
l-3 -66 31 -10 c17 -6 42 -23 56 -38 13 -15 33 -49 43 -76 10 -27 33 -66 52
-86 18 -21 51 -76 74 -124 36 -78 43 -86 68 -86 15 0 48 -7 74 -16 29 -10 59
-31 83 -57 20 -23 66 -63 103 -89 36 -26 86 -60 110 -75 24 -15 67 -49 96 -75
46 -42 59 -49 117 -57 36 -5 79 -16 96 -25 24 -12 62 -16 166 -16 l136 0 38
-34 c37 -33 40 -34 102 -29 42 3 80 14 106 29 22 12 46 30 54 39 7 8 38 22 69
31 31 9 83 31 116 50 33 18 73 49 88 69 15 19 43 42 62 50 20 8 35 21 35 31 0
9 40 56 89 104 49 48 98 105 110 128 11 22 35 51 53 63 18 13 37 29 42 37 5 8
23 31 41 51 18 20 42 55 54 78 11 23 21 52 21 64 0 11 11 34 25 51 14 16 25
35 25 41 0 7 5 29 11 51 6 21 28 57 50 81 21 23 48 67 58 96 11 30 33 90 50
134 17 44 31 91 31 105 0 14 10 45 23 70 13 25 35 66 50 91 15 25 32 73 37
105 6 32 16 71 22 87 6 15 25 40 44 56 18 16 41 32 52 35 14 5 22 19 27 53 4
28 3 49 -4 56 -6 6 -11 36 -11 67 0 30 9 96 21 145 12 50 28 110 36 135 9 25
19 86 23 135 5 50 16 112 24 139 10 31 16 86 16 150 0 82 4 109 20 141 13 26
20 59 20 98 0 32 5 67 11 79 9 16 6 25 -14 47 -13 14 -30 36 -36 48 -6 12 -11
49 -11 82 0 56 2 61 34 88 l34 28 -38 65 c-27 45 -39 77 -40 103 0 24 8 49 20
64 16 20 20 41 20 100 0 54 5 84 20 113 11 22 20 46 20 55 0 10 -10 15 -33 15
-21 0 -41 8 -52 20 -15 17 -17 31 -11 109 6 74 4 95 -10 123 -9 18 -19 64 -22
102 l-5 69 52 47 c28 27 51 57 51 67 0 11 8 27 18 36 12 11 36 17 65 17 33 0
59 -7 86 -24 21 -14 48 -37 60 -52 11 -15 21 -35 21 -45 0 -16 8 -19 41 -19
35 0 47 -6 75 -36 25 -26 34 -45 34 -70 0 -33 1 -34 39 -34 32 0 44 -6 70 -35
26 -30 31 -44 31 -88 1 -43 5 -57 30 -84 21 -23 39 -33 59 -33 20 0 36 -9 50
-26 17 -22 21 -41 21 -103 0 -46 -5 -82 -12 -89 -9 -9 -8 -18 1 -39 7 -16 16
-66 18 -113 5 -78 8 -88 36 -117 27 -29 31 -40 35 -110 3 -69 1 -83 -22 -126
-14 -26 -28 -65 -32 -85 -4 -30 0 -44 20 -71 23 -30 26 -45 26 -112 0 -61 -4
-81 -20 -102 -18 -23 -19 -32 -10 -123 6 -55 13 -151 17 -214 5 -109 4 -116
-16 -134 -11 -11 -21 -27 -21 -36 0 -10 6 -23 14 -29 7 -6 16 -39 19 -74 4
-34 9 -88 13 -119 l6 -58 43 0 c28 0 47 -6 58 -18 13 -14 17 -38 17 -95 0 -66
-3 -79 -25 -105 -14 -17 -25 -39 -25 -50 0 -12 18 -42 40 -67 37 -43 40 -50
40 -108 0 -34 4 -67 8 -73 4 -6 38 -14 76 -18 37 -4 85 -15 105 -25 20 -11 51
-35 69 -55 18 -20 45 -39 60 -42 15 -4 48 -17 74 -30 26 -13 56 -24 66 -24 10
0 27 -6 37 -14 16 -12 25 -11 63 5 24 11 59 19 78 19 27 0 41 8 65 35 26 29
38 35 73 35 22 0 64 7 91 16 28 9 57 20 65 25 8 5 34 22 58 37 24 15 72 55
107 90 48 46 66 72 71 99 4 23 23 54 49 83 23 25 49 59 58 76 9 17 34 47 56
67 23 20 45 37 49 37 5 0 16 39 25 88 9 48 22 104 28 125 6 21 26 56 46 78 19
21 41 39 48 39 7 0 18 14 24 31 6 18 11 43 11 57 0 15 15 39 40 64 38 38 40
44 40 100 0 57 2 63 40 100 34 34 40 47 40 83 0 27 7 51 20 68 11 14 29 29 40
32 18 6 20 15 20 90 0 73 3 87 24 112 13 15 29 45 35 65 7 20 27 50 46 67 19
16 43 32 54 36 19 6 21 14 21 95 0 49 5 101 11 117 6 15 20 38 32 51 18 20 20
26 9 55 -7 19 -12 56 -12 84 0 35 5 54 18 65 9 9 23 17 31 20 7 2 22 26 32 53
11 29 19 75 19 110 0 45 7 75 28 120 16 33 45 75 65 92 21 18 37 40 37 50 0
10 5 35 10 55 6 21 21 50 34 65 13 15 27 43 30 60 4 18 28 74 53 124 25 49 54
96 64 102 14 9 19 23 19 55 0 31 -7 53 -25 76 -21 28 -25 44 -25 103 0 63 3
74 30 108 27 34 30 45 30 106 0 65 2 70 40 114 22 25 40 56 40 69 0 12 10 32
23 44 13 12 31 22 40 22 12 0 17 8 17 28 0 15 9 47 20 71 13 27 20 65 20 103
0 55 3 62 34 92 19 17 47 41 64 54 17 12 34 22 39 22 4 0 8 36 8 79 0 74 2 82
28 109 21 22 28 38 25 58 -2 18 -8 28 -17 26 -7 -1 -19 3 -27 9 -9 8 -14 33
-14 79 0 54 5 77 25 113 14 25 43 61 64 80 22 20 42 49 46 66 6 26 4 31 -12
31 -11 0 -29 10 -41 23 -18 19 -22 35 -22 86 0 56 3 67 30 98 17 18 30 39 30
46 0 8 14 26 30 42 17 16 37 42 45 57 7 16 9 30 4 34 -5 3 -9 16 -9 28 0 13 7
29 14 36 8 6 25 10 38 8 18 -2 24 -10 26 -35 3 -29 7 -33 31 -33 16 0 37 -10
49 -22 11 -13 25 -36 31 -51 6 -16 11 -61 11 -100 0 -50 -5 -80 -16 -95 -8
-12 -28 -29 -44 -37 -16 -8 -40 -15 -53 -15 -14 0 -27 -7 -31 -15 -3 -9 0 -15
8 -15 7 0 20 -8 29 -18 9 -10 26 -45 38 -78 12 -32 24 -87 26 -122 3 -35 1
-71 -3 -80 -4 -9 -8 -60 -9 -112 -1 -52 -6 -122 -12 -154 -8 -45 -17 -65 -37
-83 l-27 -23 34 0 c20 0 41 -7 50 -18 11 -12 17 -36 17 -71 0 -28 -6 -64 -14
-79 -7 -15 -18 -56 -24 -92 -6 -36 -13 -84 -16 -107 -3 -36 -1 -43 13 -43 10
0 29 -13 44 -28 23 -24 27 -37 27 -88 0 -40 -6 -68 -17 -84 -13 -18 -17 -41
-15 -86 2 -41 -3 -81 -17 -121 -15 -44 -18 -68 -11 -93 4 -19 13 -51 19 -70 6
-19 11 -64 11 -100 0 -36 -7 -86 -17 -112 l-17 -47 47 -50 47 -50 0 -100 c0
-56 4 -103 10 -106 6 -3 10 -29 10 -56 0 -32 12 -81 35 -142 19 -50 42 -103
50 -117 8 -14 24 -44 35 -68 13 -29 20 -64 20 -103 l0 -59 33 0 c17 0 51 -9
73 -19 23 -11 59 -35 81 -54 21 -20 50 -38 65 -42 14 -4 40 -21 58 -40 17 -18
37 -50 45 -71 13 -38 15 -39 77 -50 35 -6 71 -15 79 -19 8 -5 61 -8 119 -7 58
2 131 10 162 18 31 8 78 23 104 34 25 11 67 38 92 60 24 22 51 40 58 40 6 0
34 18 62 39 45 36 50 44 56 91 4 32 17 65 32 85 14 18 34 58 44 89 11 30 20
77 20 104 0 38 5 53 23 70 16 15 36 22 64 22 l40 0 7 48 c3 28 20 70 37 98 17
27 41 60 54 74 16 18 25 43 30 88 6 50 13 71 37 97 19 22 40 35 60 37 25 2 33
9 41 33 5 17 21 42 35 58 21 22 34 27 74 27 34 0 60 -7 86 -24 21 -13 45 -35
54 -48 8 -13 19 -48 23 -78 3 -30 11 -72 16 -93 6 -24 25 -51 50 -74 l40 -36
-2 -141 c-1 -78 2 -159 6 -181 4 -22 20 -53 35 -70 15 -16 31 -41 35 -55 4
-14 23 -42 41 -63 25 -28 34 -46 34 -73 0 -26 8 -46 29 -69 17 -20 32 -51 36
-77 4 -24 17 -54 30 -68 13 -14 31 -52 40 -85 9 -33 27 -75 39 -92 18 -28 27
-33 63 -33 33 0 46 -5 62 -26 12 -16 21 -42 21 -63 1 -26 10 -46 33 -72 18
-20 54 -46 82 -58 27 -12 60 -31 72 -42 12 -12 27 -34 33 -50 10 -22 19 -29
40 -29 15 0 44 -13 65 -30 24 -19 45 -28 54 -24 9 3 41 8 72 11 54 5 58 4 97
-32 23 -20 44 -45 47 -56 4 -11 25 -29 47 -40 38 -19 43 -20 72 -6 17 9 71 28
120 43 71 21 99 25 143 20 30 -4 74 -17 97 -31 28 -16 59 -24 99 -26 l59 -3
61 61 c58 56 67 61 130 73 54 10 70 17 77 34 4 11 18 31 31 43 13 12 42 26 65
31 29 6 53 22 82 53 22 24 55 51 74 60 18 9 58 29 90 43 31 15 72 44 91 65 20
22 43 65 56 103 12 36 32 75 45 87 14 13 26 38 29 63 4 27 16 51 38 74 26 27
41 34 71 34 21 0 38 4 38 10 0 5 14 25 31 45 19 21 40 35 54 35 13 0 39 10 59
23 25 15 35 29 36 48 0 15 13 37 33 56 17 17 49 38 71 47 21 9 66 16 100 16
57 0 65 -3 94 -33 18 -18 32 -38 32 -45 0 -7 16 -29 35 -51 19 -21 35 -48 35
-59 0 -12 14 -37 31 -56 22 -26 33 -52 43 -102 12 -66 13 -68 46 -77 19 -5 47
-20 62 -34 15 -15 33 -42 39 -62 6 -20 25 -58 42 -86 17 -27 44 -65 59 -83 15
-18 28 -40 28 -50 0 -9 9 -35 19 -57 10 -22 26 -48 35 -58 11 -11 33 -17 61
-17 35 0 52 -7 87 -35 24 -19 68 -51 98 -72 30 -20 65 -46 78 -57 13 -11 32
-40 42 -63 l19 -43 54 0 c48 0 60 -4 97 -35 23 -19 46 -35 51 -35 4 0 34 -21
66 -47 56 -46 58 -47 129 -47 67 -1 75 -3 106 -32 18 -18 42 -36 53 -42 11 -5
57 -18 102 -27 69 -15 92 -16 140 -6 31 6 88 11 126 11 67 0 72 2 96 31 18 22
40 33 71 39 25 5 64 9 86 10 26 0 47 6 55 17 8 9 28 22 46 30 18 7 50 13 71
13 33 0 47 7 89 48 27 26 61 55 75 64 18 12 30 33 38 68 7 27 21 61 31 74 15
20 17 30 9 51 -5 14 -10 46 -10 69 0 36 -7 51 -47 99 -27 31 -56 56 -65 56
-10 1 -41 -8 -70 -19 -29 -11 -82 -25 -118 -30 -36 -5 -90 -17 -120 -26 -30
-9 -92 -34 -137 -55 -68 -33 -91 -39 -147 -39 -59 0 -69 3 -101 31 -22 19 -35
40 -35 55 0 14 -6 24 -14 24 -7 0 -30 -7 -49 -15 -20 -8 -56 -15 -79 -15 -24
0 -60 5 -80 10 -25 7 -50 27 -77 59 -23 27 -50 68 -61 92 -11 24 -20 51 -20
60 0 9 -14 48 -31 87 -21 48 -39 74 -53 78 -11 3 -36 20 -53 37 -19 17 -33 41
-33 54 0 13 -16 40 -35 61 -19 21 -39 51 -44 65 -6 16 -18 27 -29 27 -11 0
-34 11 -53 25 -19 13 -57 40 -85 59 -29 19 -59 45 -68 57 -11 17 -16 47 -17
104 0 44 -4 101 -8 127 -5 31 -19 60 -42 87 -19 22 -47 57 -64 77 -16 21 -46
64 -66 97 -21 33 -40 79 -44 105 -4 26 -17 86 -31 134 -13 48 -24 103 -24 123
0 19 -11 63 -25 97 -16 40 -25 81 -25 118 0 46 4 61 23 78 13 12 31 22 40 22
13 0 17 9 17 36 0 24 -8 46 -25 66 -22 26 -25 39 -25 109 0 78 1 80 39 122 21
23 46 56 55 74 9 17 26 39 38 47 12 9 33 16 45 16 19 0 25 10 43 73 12 39 28
82 36 94 8 13 21 53 30 90 8 38 25 78 36 91 13 12 33 22 50 22 21 0 29 6 32
23 3 12 7 59 8 104 3 68 7 85 26 105 17 18 22 36 22 74 0 27 11 98 25 159 14
60 25 134 25 165 0 39 6 62 20 80 11 14 20 31 20 38 0 7 -10 26 -22 43 -16 21
-23 48 -26 93 -3 50 0 73 18 112 12 27 34 85 47 129 14 44 27 94 29 110 3 17
7 49 10 73 3 27 16 55 33 75 16 18 36 55 45 84 10 28 26 63 37 77 10 13 19 34
19 45 0 16 -6 21 -28 21 -17 0 -38 10 -50 23 -12 13 -28 49 -34 79 -9 41 -9
83 -1 157 8 84 14 106 33 126 16 17 34 25 57 25 28 0 33 3 33 25 0 16 -9 30
-27 42 -16 9 -40 28 -55 42 -19 17 -28 35 -28 55 l0 31 -184 0 c-135 1 -188 4
-199 13 -11 9 -54 14 -132 15 l-116 2 -31 -32 c-31 -32 -35 -33 -111 -33 -43
0 -86 4 -96 9 -14 8 -25 2 -53 -33 -23 -27 -50 -46 -75 -54 -30 -9 -45 -21
-63 -54 -13 -24 -40 -61 -61 -83 -20 -22 -46 -58 -57 -80 -11 -22 -37 -56 -57
-75 -20 -19 -41 -42 -46 -52 -6 -11 -4 -26 6 -45 9 -16 15 -55 15 -95 0 -61
-2 -68 -30 -91 -28 -24 -30 -30 -30 -98 0 -56 -5 -79 -22 -107 -12 -19 -25
-56 -29 -83 -4 -26 -32 -109 -62 -183 l-54 -136 19 -42 c15 -33 18 -59 15
-113 -2 -38 -14 -97 -26 -130 -18 -47 -22 -80 -21 -150 0 -60 -6 -116 -19
-168 -17 -64 -19 -87 -10 -130 5 -29 9 -81 8 -117 -1 -36 1 -95 6 -133 5 -43
3 -96 -5 -147 -12 -74 -11 -85 8 -138 17 -47 21 -86 24 -222 2 -91 -1 -180 -5
-197 -8 -31 -7 -33 16 -33 16 0 34 -10 46 -26 16 -20 21 -41 21 -86 0 -32 -7
-74 -14 -93 -13 -31 -13 -39 0 -70 7 -19 14 -62 14 -97 0 -50 -5 -69 -25 -98
-14 -20 -29 -57 -34 -84 -5 -30 -19 -58 -37 -77 -15 -16 -33 -29 -40 -29 -7 0
-20 -7 -28 -16 -10 -10 -16 -33 -16 -64 0 -43 -4 -51 -40 -84 -22 -20 -44 -36
-50 -36 -5 0 -21 -21 -34 -47 -13 -27 -48 -71 -78 -99 -29 -29 -69 -78 -88
-110 -19 -32 -60 -83 -90 -114 -30 -30 -64 -75 -74 -100 -11 -25 -33 -60 -50
-77 -16 -18 -39 -36 -50 -39 -12 -4 -42 -26 -68 -50 -26 -24 -52 -44 -58 -44
-6 0 -38 -28 -73 -61 -34 -34 -78 -77 -97 -96 -29 -27 -43 -33 -78 -33 -26 0
-62 -10 -92 -25 -40 -20 -64 -25 -125 -25 -54 0 -86 5 -113 19 -20 10 -62 21
-93 25 -31 4 -78 14 -104 22 -27 7 -64 14 -84 14 -31 0 -44 9 -101 70 -36 39
-74 70 -84 70 -10 0 -33 15 -51 33 -25 25 -36 48 -45 94 -9 45 -20 69 -41 89
-16 15 -29 37 -29 49 0 12 -15 44 -32 71 -31 46 -33 54 -34 145 -1 83 -4 102
-24 135 -13 22 -43 57 -67 80 l-43 40 0 82 0 81 -41 38 -41 38 4 85 c4 61 1
91 -9 106 -7 11 -16 63 -19 115 -3 52 -12 111 -20 132 -8 20 -14 59 -14 85 0
26 7 59 14 75 11 21 12 27 2 27 -7 0 -24 13 -39 28 -25 26 -27 34 -27 118 0
75 4 99 24 140 13 27 32 66 42 88 14 32 15 44 6 70 -7 18 -12 59 -12 91 0 49
4 63 25 85 23 24 24 33 26 142 1 103 -1 122 -20 153 -12 20 -21 49 -21 64 0
15 -7 36 -15 47 -9 12 -14 44 -15 92 0 52 5 83 19 110 10 20 28 46 40 56 12
11 27 32 35 47 9 18 12 49 9 96 -4 49 -1 79 11 107 15 37 15 40 -1 58 -13 14
-19 41 -21 95 -4 72 -3 76 26 106 20 22 31 46 35 75 3 23 20 65 37 93 28 43
31 53 21 75 -6 14 -11 54 -11 88 0 47 7 78 25 118 16 34 25 71 25 104 0 37 5
56 18 67 10 10 26 17 35 17 14 0 17 11 18 58 1 31 0 62 -1 67 -2 6 -5 35 -7
65 -4 43 1 70 22 125 22 58 26 85 26 159 l-2 88 39 42 c21 22 48 64 60 91 13
28 36 76 52 107 26 50 30 67 30 142 0 56 6 100 17 128 9 24 22 50 30 59 7 8
13 37 13 62 l0 47 -40 0 c-23 0 -54 7 -71 15 -16 9 -34 13 -39 10 -6 -4 -41
-15 -78 -26 -37 -10 -107 -22 -156 -26 l-89 -6 -58 -61 c-35 -37 -59 -70 -59
-83 0 -13 -16 -40 -35 -62 -33 -36 -36 -45 -44 -127 -4 -49 -15 -102 -23 -119
-9 -16 -27 -89 -41 -162 -15 -73 -34 -149 -43 -170 -9 -21 -22 -58 -30 -83 -7
-25 -14 -87 -14 -138 l0 -92 -39 -43 c-21 -23 -40 -49 -43 -57 -3 -8 1 -23 10
-32 9 -11 16 -48 20 -107 l5 -90 -35 -35 c-28 -28 -36 -45 -41 -87 -4 -31 -17
-67 -31 -88 -14 -20 -28 -54 -32 -76 -3 -22 -14 -53 -24 -70 -11 -18 -20 -59
-23 -103 -3 -52 -10 -82 -25 -101 -17 -24 -18 -29 -6 -46 9 -12 14 -45 14 -87
0 -43 -7 -87 -20 -121 -11 -30 -30 -63 -43 -74 -12 -11 -29 -23 -38 -26 -11
-3 -18 -23 -22 -59 -4 -29 -7 -75 -7 -101 0 -27 -5 -58 -11 -70 -6 -12 -22
-33 -34 -47 -13 -14 -29 -45 -35 -69 -6 -24 -22 -61 -36 -82 -13 -21 -29 -60
-34 -86 -6 -26 -20 -62 -31 -79 -11 -18 -19 -49 -19 -74 0 -29 -9 -57 -27 -87
-16 -24 -46 -72 -68 -106 l-40 -62 -5 -156 -5 -157 -47 -53 c-26 -30 -61 -69
-78 -87 -16 -19 -30 -38 -30 -44 0 -6 -11 -34 -24 -62 -13 -28 -34 -83 -46
-122 -13 -43 -37 -93 -62 -125 -22 -30 -51 -79 -65 -109 -13 -30 -32 -64 -43
-75 -11 -12 -22 -48 -29 -88 -5 -38 -17 -80 -26 -93 -8 -13 -49 -43 -90 -67
-62 -35 -74 -46 -75 -68 0 -14 -10 -41 -23 -60 -12 -19 -38 -42 -57 -51 -21
-11 -58 -18 -91 -18 -43 0 -60 5 -73 19 -14 15 -17 33 -14 80 1 34 0 61 -4 61
-3 0 -20 12 -37 26 -28 23 -31 32 -31 80 0 46 -4 58 -25 77 -18 15 -28 37 -34
74 -7 46 -14 57 -65 104 l-58 52 6 56 c2 31 9 83 14 115 6 46 15 64 36 83 l28
24 -21 23 c-18 19 -21 34 -21 107 0 46 4 100 10 118 5 19 24 50 42 68 l32 33
-36 0 c-28 0 -42 7 -62 31 -19 22 -26 42 -26 72 0 24 8 54 19 71 l19 28 -34
30 c-33 29 -34 33 -34 104 0 40 5 84 11 98 10 22 8 29 -15 56 -20 25 -26 42
-26 80 0 27 7 75 15 107 8 32 20 70 26 84 8 21 7 34 -6 59 -13 25 -16 56 -15
138 1 59 -1 141 -5 182 -6 60 -12 80 -32 102 -23 24 -25 33 -21 102 3 64 7 79
29 103 15 15 32 39 40 53 7 14 16 77 20 140 4 69 3 120 -3 127 -5 7 -8 22 -6
35 2 19 9 23 36 23 17 0 32 0 32 0 0 1 -9 18 -20 40 -13 26 -20 59 -20 97 0
32 6 74 14 92 7 18 17 57 21 87 5 32 17 66 31 83 l23 30 -21 10 c-12 6 -31 24
-42 39 -17 22 -22 46 -24 110 -2 53 2 91 10 107 7 14 28 32 45 40 32 15 33 17
33 77 0 54 4 67 28 95 l29 33 -5 118 c-4 112 -6 119 -27 127 -13 5 -30 19 -39
32 -9 13 -16 43 -16 71 0 26 6 60 14 75 7 15 16 70 18 123 4 70 10 103 24 124
15 22 18 43 15 103 -3 69 -1 76 25 103 26 27 26 30 11 47 -11 12 -17 36 -17
69 0 36 9 70 30 115 20 41 30 79 30 109 0 33 -6 51 -20 64 -16 14 -20 31 -20
76 0 32 5 70 11 86 5 15 24 43 42 61 17 18 47 37 67 42 19 6 96 13 170 17 108
5 140 10 160 24 14 10 57 25 96 33 39 8 124 18 190 22 90 5 127 11 150 25 22
13 50 19 93 19 34 0 94 6 134 14 40 8 154 17 254 21 104 4 205 13 235 21 29 8
85 17 123 20 53 5 76 12 95 29 14 13 62 35 108 49 69 22 102 26 198 26 71 0
159 8 227 20 62 11 128 24 147 30 19 5 62 10 94 10 39 0 74 7 100 20 23 11 77
26 121 35 44 8 114 15 156 15 70 0 77 2 103 29 17 17 58 40 101 55 42 15 95
26 124 26 27 0 61 -5 74 -11 21 -9 31 -7 66 16 25 17 59 29 88 32 27 2 68 13
93 23 25 10 66 26 93 35 35 13 55 28 77 61 17 24 46 55 65 70 22 16 35 35 35
49 0 20 -6 23 -65 27 -39 4 -78 14 -99 26 -20 12 -38 17 -41 12 -3 -6 -32 -17
-63 -25 -31 -9 -78 -22 -104 -31 -29 -10 -78 -15 -130 -14 -46 1 -128 -3 -183
-7 -78 -7 -111 -14 -152 -36 -41 -21 -66 -27 -115 -27 -34 0 -81 7 -104 16
-38 14 -44 14 -72 0 -25 -13 -62 -16 -189 -15 -87 1 -176 -2 -198 -6 -22 -4
-82 -18 -134 -31 -53 -14 -122 -24 -160 -24 -36 0 -110 5 -164 10 -99 10 -99
10 -155 -20 -32 -17 -73 -30 -92 -30 -19 0 -51 -5 -70 -11 -19 -6 -93 -12
-165 -13 -100 -1 -138 -5 -164 -19 -21 -10 -57 -17 -94 -17 -42 0 -66 5 -78
16 -17 15 -20 15 -43 0 -17 -10 -47 -16 -88 -16 -35 0 -103 5 -153 11 -49 5
-110 10 -135 11 -34 0 -67 -11 -130 -42 l-85 -43 -138 -5 c-134 -5 -138 -4
-162 18 -19 18 -25 34 -25 65 0 29 -6 47 -20 60 -15 14 -20 31 -20 70 0 38 6
60 21 79 19 24 20 35 14 99 -4 40 -11 89 -16 110 -6 24 -16 37 -27 37 -9 1
-87 3 -173 5z m5370 -2857 c68 -3 75 -6 102 -36 24 -27 29 -41 29 -86 0 -44
-5 -60 -29 -89 -26 -34 -29 -44 -34 -149 -3 -62 -11 -131 -17 -153 -7 -24 -32
-59 -61 -89 -43 -44 -49 -54 -49 -93 0 -30 4 -43 14 -43 8 0 28 -12 45 -26 30
-25 31 -29 31 -103 0 -70 -3 -82 -29 -119 -16 -22 -34 -43 -40 -47 -6 -3 -11
-37 -11 -76 0 -65 -2 -71 -35 -108 -19 -21 -35 -47 -35 -57 0 -11 -7 -31 -17
-44 -9 -14 -30 -40 -47 -58 -16 -18 -36 -54 -43 -80 -6 -26 -12 -78 -13 -116
0 -50 -5 -75 -17 -88 -12 -13 -30 -18 -68 -18 -41 0 -56 5 -74 23 -21 23 -21
31 -20 209 2 178 1 186 -21 215 -19 27 -22 40 -18 101 3 57 8 76 32 107 28 37
29 42 30 155 1 80 5 122 14 133 11 13 9 24 -15 67 -15 29 -36 66 -45 83 -12
21 -18 54 -18 93 0 53 4 66 30 99 25 32 30 47 30 93 0 46 6 63 34 106 19 28
49 65 68 82 18 17 44 38 58 47 14 10 44 17 70 17 37 0 51 5 71 26 22 24 29 26
98 22z m-6046 -118 c24 0 48 -7 59 -17 12 -11 18 -30 18 -61 0 -28 -6 -52 -17
-64 -11 -12 -30 -18 -61 -18 -28 0 -52 6 -64 17 -12 10 -18 30 -18 56 0 28 7
48 22 64 15 17 33 23 61 23z m-91 -512 c31 -3 33 -5 33 -43 0 -39 -1 -40 -35
-40 -31 0 -35 3 -38 28 -2 16 -1 35 2 43 4 10 17 14 38 12z m-8729 -2189 c64
1 84 -3 107 -19 16 -11 50 -25 77 -31 26 -5 72 -13 101 -16 46 -5 57 -11 87
-46 19 -22 40 -56 46 -75 7 -22 10 -71 6 -131 -2 -53 -8 -104 -12 -113 -6 -15
-1 -18 32 -18 30 0 46 -7 67 -29 18 -18 33 -51 43 -92 8 -35 17 -119 20 -186
4 -114 6 -122 25 -125 12 -2 30 -15 40 -29 11 -14 23 -43 28 -65 5 -21 10 -69
10 -105 0 -53 4 -69 20 -84 16 -15 20 -31 20 -83 0 -57 -4 -69 -31 -104 l-32
-39 33 -34 c31 -32 34 -40 38 -117 3 -70 0 -92 -19 -138 -18 -44 -23 -80 -27
-183 l-4 -127 -35 -30 c-28 -25 -32 -33 -23 -49 5 -11 10 -55 10 -97 0 -51 -5
-83 -14 -93 -11 -13 -11 -30 -3 -87 5 -40 6 -106 2 -148 -5 -54 -13 -85 -30
-110 -23 -34 -23 -35 -4 -52 15 -13 19 -31 19 -76 0 -53 -3 -63 -30 -90 -28
-28 -30 -32 -15 -48 10 -11 15 -37 15 -87 0 -61 -3 -72 -25 -93 -20 -18 -25
-33 -25 -69 0 -28 -10 -67 -25 -99 -13 -29 -31 -76 -40 -104 -8 -29 -24 -61
-34 -72 -14 -15 -23 -46 -30 -104 -8 -65 -16 -90 -36 -113 -13 -17 -29 -49
-35 -72 -5 -23 -19 -72 -30 -108 -11 -36 -20 -79 -20 -96 0 -16 -12 -52 -26
-79 -15 -27 -46 -102 -69 -168 -23 -65 -54 -134 -70 -153 -15 -19 -42 -41 -60
-49 -19 -8 -37 -24 -43 -41 -6 -15 -16 -59 -23 -96 -7 -45 -20 -78 -36 -97
-13 -16 -45 -45 -72 -64 -36 -26 -58 -56 -92 -118 -24 -46 -67 -110 -94 -143
-28 -33 -61 -74 -73 -92 -12 -17 -22 -42 -22 -56 0 -13 -10 -39 -23 -58 -12
-19 -39 -43 -60 -54 -21 -11 -37 -28 -37 -38 0 -9 -19 -38 -41 -62 -23 -25
-56 -49 -73 -53 -19 -5 -32 -16 -36 -30 -3 -12 -17 -37 -32 -56 -25 -31 -32
-34 -92 -38 -54 -3 -73 -10 -111 -37 -34 -24 -69 -37 -138 -52 -51 -10 -114
-19 -142 -19 -27 0 -68 9 -90 19 -22 10 -46 25 -54 34 -11 14 -36 17 -159 17
-136 0 -147 1 -169 22 -18 17 -23 32 -23 70 l0 48 -47 0 c-34 0 -53 6 -70 22
-18 17 -23 32 -23 70 0 27 6 64 14 83 13 31 13 37 -5 72 -16 31 -26 39 -56 43
-24 3 -43 14 -56 32 -17 22 -22 50 -27 150 -4 68 -11 132 -15 143 -5 11 -23
37 -42 58 -31 35 -33 42 -33 107 0 53 -6 82 -21 113 -18 34 -22 61 -23 147 -1
101 -2 106 -28 128 -15 13 -30 37 -32 55 -3 18 -9 199 -13 402 -4 204 -7 415
-7 471 0 81 4 109 21 145 12 24 24 63 28 86 5 31 16 51 41 72 28 25 34 37 34
70 0 27 10 53 33 87 29 45 35 49 77 52 39 2 49 8 69 38 18 26 25 52 29 107 4
60 9 77 31 100 24 26 31 28 93 26 66 -2 68 -2 112 39 29 27 55 42 71 42 17 0
39 14 64 40 32 34 44 40 79 40 37 0 47 6 90 50 45 47 51 50 99 50 28 0 66 6
85 14 19 8 59 18 89 22 30 3 74 16 99 27 25 12 62 36 83 54 36 32 40 33 126
33 76 0 101 -5 168 -31 53 -21 90 -43 116 -70 21 -21 48 -39 60 -39 12 0 33
-7 47 -15 14 -8 39 -21 57 -30 17 -8 52 -29 78 -46 25 -17 58 -46 73 -65 l27
-34 101 0 c93 0 106 -2 158 -30 l57 -30 20 47 c12 27 23 75 26 108 3 33 13 74
23 91 l18 32 -31 30 c-18 16 -48 35 -67 41 -20 6 -52 24 -71 41 -20 16 -44 45
-53 64 -9 19 -16 51 -16 71 l0 36 -29 -20 c-24 -17 -44 -21 -109 -21 -63 0
-84 4 -104 19 -21 17 -45 20 -154 24 -80 2 -164 11 -220 24 -50 11 -96 23
-103 28 -7 4 -49 7 -94 6 -49 -1 -109 6 -149 16 -64 16 -68 16 -87 -1 -14 -13
-42 -20 -90 -24 -38 -2 -82 0 -98 6 -23 8 -45 5 -104 -14 -46 -15 -99 -24
-138 -24 -46 0 -70 5 -83 17 -15 14 -18 32 -18 121 l0 104 45 46 c25 25 45 49
45 53 0 5 14 24 31 44 17 19 39 35 48 35 16 0 17 10 13 105 -4 100 -3 107 18
130 13 14 33 25 45 25 19 0 23 7 28 43 3 24 20 70 37 103 17 32 39 67 47 77 9
9 24 17 34 17 12 0 22 15 34 51 10 28 24 63 31 78 8 14 14 53 14 85 0 41 5 65
17 78 9 10 29 18 44 18 23 0 32 7 43 33 7 17 31 48 52 69 22 20 57 44 78 55
27 12 47 31 62 61 12 23 34 56 48 73 14 17 26 39 26 49 0 11 14 35 30 54 18
20 68 53 125 80 61 30 107 46 132 46 28 0 45 8 68 30 27 26 42 32 111 40 43 5
90 13 104 19 14 5 60 10 103 10z"/>
<path d="M20185 21129 c-5 0 -37 -9 -70 -19 -33 -11 -83 -23 -112 -26 -36 -5
-74 -1 -122 11 l-70 19 -68 -27 c-37 -14 -79 -28 -93 -31 -14 -3 -51 -21 -84
-41 -50 -30 -67 -35 -122 -35 -53 0 -64 -3 -69 -20 -3 -10 -20 -31 -36 -45
-21 -17 -42 -25 -68 -25 -30 0 -44 -7 -72 -36 -18 -20 -51 -44 -71 -55 -21
-10 -51 -19 -68 -19 -20 0 -30 -5 -30 -15 0 -8 -15 -31 -32 -51 -18 -21 -52
-49 -75 -64 -23 -15 -53 -41 -68 -59 -15 -17 -56 -52 -90 -76 -34 -25 -68 -52
-75 -59 -6 -8 -27 -20 -46 -26 -19 -6 -47 -25 -63 -41 -16 -16 -40 -29 -53
-29 -19 0 -28 -9 -42 -40 -10 -23 -43 -62 -78 -92 -33 -29 -84 -87 -113 -129
-30 -41 -73 -93 -97 -115 -24 -22 -52 -46 -63 -54 -11 -8 -31 -39 -45 -69 -14
-30 -37 -71 -51 -91 -15 -20 -47 -46 -72 -58 -42 -20 -46 -25 -51 -64 -3 -24
-8 -77 -11 -118 -5 -62 -10 -79 -31 -101 -14 -15 -38 -29 -52 -32 -15 -3 -35
-18 -44 -34 -10 -15 -46 -57 -81 -93 -34 -36 -89 -90 -121 -120 -45 -42 -68
-75 -98 -140 -22 -47 -59 -125 -83 -175 -24 -49 -51 -115 -61 -145 -9 -30 -28
-69 -41 -86 -20 -27 -23 -42 -23 -122 0 -86 -1 -92 -26 -111 -15 -12 -32 -21
-39 -21 -6 0 -20 -9 -29 -19 -11 -12 -14 -21 -7 -26 6 -3 11 -39 11 -81 0 -42
-5 -85 -11 -97 -7 -12 -41 -55 -77 -95 -65 -73 -65 -74 -72 -145 -3 -40 -11
-82 -18 -94 -7 -12 -12 -46 -12 -76 0 -29 -7 -76 -17 -103 -9 -27 -25 -60 -35
-73 -10 -13 -28 -56 -40 -95 -13 -42 -32 -82 -48 -98 l-27 -26 32 -41 c22 -28
36 -60 44 -103 7 -35 17 -79 23 -98 6 -19 14 -87 18 -150 4 -63 13 -134 19
-157 6 -24 16 -62 22 -85 6 -24 14 -80 18 -124 4 -59 11 -88 24 -102 11 -11
23 -40 28 -64 6 -24 22 -60 36 -80 23 -34 25 -45 21 -112 -2 -53 -8 -80 -21
-94 -18 -19 -17 -21 30 -65 l48 -46 0 -100 c0 -65 4 -101 11 -101 6 0 20 -10
32 -23 19 -21 22 -34 22 -120 0 -57 -4 -98 -11 -102 -7 -5 -8 -34 -3 -88 4
-45 13 -95 19 -112 7 -16 16 -52 20 -80 4 -31 15 -59 30 -75 13 -14 29 -38 35
-54 6 -16 10 -79 9 -142 -2 -108 -1 -114 24 -147 14 -19 31 -55 38 -81 6 -25
15 -49 20 -52 5 -3 9 -30 9 -60 0 -33 -6 -64 -16 -79 -13 -20 -15 -42 -9 -122
3 -54 8 -115 11 -135 5 -33 9 -38 33 -38 18 0 38 -12 62 -37 20 -21 44 -58 55
-83 14 -32 19 -68 19 -126 0 -54 -5 -86 -14 -98 -8 -9 -12 -17 -10 -19 2 -1
13 -7 23 -13 11 -6 23 -17 27 -25 5 -8 11 -71 15 -141 6 -124 7 -128 28 -128
13 0 33 -11 45 -24 19 -20 25 -42 32 -118 5 -51 12 -129 15 -173 3 -44 7 -90
9 -102 3 -11 23 -44 46 -73 22 -28 47 -68 56 -87 9 -24 14 -64 13 -117 -1 -45
-2 -89 -1 -98 1 -14 10 -18 40 -18 31 0 44 -6 60 -26 16 -21 21 -41 21 -89 0
-34 -6 -84 -14 -111 -8 -27 -18 -113 -22 -191 -6 -138 -6 -143 13 -143 11 0
30 -11 43 -25 21 -23 22 -29 16 -112 -3 -48 -2 -105 3 -125 5 -22 23 -49 45
-68 32 -29 36 -37 36 -83 0 -33 -6 -57 -17 -69 -16 -18 -14 -21 23 -59 l39
-40 3 -149 3 -150 34 0 c24 0 39 -7 54 -26 15 -19 21 -41 21 -74 0 -33 6 -55
21 -74 17 -21 21 -45 26 -136 5 -91 3 -113 -9 -128 -9 -9 -19 -44 -23 -77 -6
-54 -4 -63 19 -94 20 -27 26 -47 26 -86 0 -28 -5 -56 -12 -63 -9 -9 -7 -16 8
-33 16 -18 19 -36 19 -114 0 -59 -4 -97 -13 -107 -7 -9 -10 -23 -6 -31 3 -9 3
-21 -1 -28 -6 -8 -10 -7 -16 2 -6 10 -9 6 -9 -13 0 -15 14 -43 35 -68 30 -36
35 -49 35 -94 0 -29 -5 -57 -11 -63 -9 -9 1 -23 39 -58 35 -33 53 -58 62 -90
9 -31 11 -82 6 -167 -3 -68 -9 -168 -12 -224 l-6 -101 32 -37 33 -37 -8 -182
c-4 -100 -6 -225 -6 -277 2 -94 2 -96 -28 -124 -29 -27 -29 -31 -24 -95 4 -44
0 -95 -11 -147 -12 -62 -13 -88 -5 -119 7 -24 24 -51 44 -68 23 -19 38 -44 49
-81 9 -30 16 -72 16 -95 0 -31 -7 -49 -31 -75 -30 -34 -31 -39 -36 -153 -3
-65 -5 -138 -5 -163 -1 -25 2 -79 6 -120 6 -62 4 -84 -12 -129 -18 -48 -18
-58 -6 -105 8 -28 17 -99 20 -157 5 -85 4 -115 -10 -155 -15 -46 -15 -54 -1
-93 9 -26 15 -78 15 -130 l0 -87 -40 -39 c-22 -21 -40 -48 -40 -60 0 -11 9
-54 20 -95 11 -41 20 -104 20 -140 0 -59 -2 -67 -34 -100 -31 -32 -34 -41 -38
-112 -3 -51 0 -87 9 -108 7 -19 13 -69 13 -122 0 -67 -5 -98 -19 -126 -10 -20
-29 -46 -41 -57 -12 -11 -28 -32 -36 -46 -12 -24 -11 -29 3 -40 13 -12 15 -29
9 -117 -4 -57 -17 -153 -30 -214 -14 -60 -32 -118 -41 -128 -9 -10 -29 -20
-46 -24 -26 -5 -29 -10 -29 -43 0 -23 7 -45 20 -58 12 -13 23 -42 27 -72 3
-28 2 -76 -1 -107 -5 -37 -16 -66 -31 -85 -13 -15 -34 -53 -45 -84 -14 -36
-34 -67 -56 -85 l-34 -28 45 -44 c44 -43 45 -46 45 -105 0 -56 -3 -64 -33 -93
-18 -18 -41 -32 -50 -32 -14 0 -17 -10 -17 -56 0 -31 -8 -84 -17 -118 -9 -34
-17 -100 -17 -149 -1 -84 -2 -90 -29 -113 -15 -13 -37 -24 -48 -24 -15 0 -19
-7 -19 -32 0 -18 -11 -57 -25 -86 -21 -46 -25 -69 -25 -151 0 -89 -2 -99 -23
-119 -13 -12 -35 -22 -50 -22 -23 0 -27 -4 -27 -31 0 -17 -5 -40 -11 -52 -6
-12 -25 -37 -42 -55 -17 -17 -39 -32 -48 -32 -14 0 -19 -13 -24 -68 -4 -37
-11 -84 -16 -104 -5 -20 -21 -51 -35 -68 -17 -20 -35 -30 -54 -30 -20 0 -29
-6 -34 -22 -3 -13 -6 -40 -6 -61 0 -31 -7 -46 -35 -74 -28 -28 -37 -47 -46
-98 -6 -38 -23 -83 -40 -110 -16 -25 -49 -60 -74 -77 -30 -21 -45 -39 -45 -54
0 -12 -13 -48 -30 -79 -16 -31 -30 -72 -30 -90 0 -25 -8 -40 -35 -64 -20 -17
-40 -31 -44 -31 -5 0 -12 -18 -16 -40 -4 -23 -18 -54 -31 -70 -14 -16 -33 -32
-44 -35 -12 -4 -21 -19 -25 -44 -4 -23 -18 -49 -33 -64 -15 -14 -40 -30 -55
-36 -19 -7 -34 -25 -46 -55 -11 -24 -30 -51 -42 -60 -13 -9 -31 -16 -41 -16
-14 0 -18 -8 -18 -38 0 -24 -7 -45 -17 -54 -10 -9 -27 -18 -37 -19 -13 -3 -25
-21 -36 -57 -10 -29 -26 -62 -36 -73 -11 -12 -39 -32 -64 -44 -25 -13 -61 -39
-79 -59 -20 -20 -45 -36 -57 -36 -20 0 -26 -11 -45 -73 -13 -39 -32 -83 -43
-96 -12 -13 -45 -34 -73 -47 -38 -16 -53 -28 -53 -43 0 -11 -22 -38 -51 -63
-28 -24 -89 -78 -136 -120 -47 -43 -89 -78 -94 -78 -5 0 -18 -18 -29 -39 -10
-22 -31 -49 -46 -60 -15 -12 -36 -21 -47 -21 -10 0 -36 -18 -57 -41 l-37 -41
-66 4 c-59 3 -64 1 -51 -13 8 -9 14 -36 14 -63 0 -39 -5 -53 -28 -76 -16 -15
-47 -34 -70 -41 -23 -7 -42 -16 -42 -20 0 -5 -13 -24 -30 -42 -17 -19 -44 -37
-61 -41 -17 -3 -40 -18 -51 -32 -19 -24 -25 -25 -82 -21 -33 3 -74 8 -89 12
-23 6 -34 2 -56 -20 -16 -14 -46 -31 -67 -36 -22 -4 -64 -9 -95 -9 -31 0 -73
-7 -92 -15 -20 -8 -60 -15 -89 -15 -29 0 -70 5 -90 10 -21 6 -53 26 -73 44
-31 30 -35 39 -35 86 l0 53 -42 -9 c-24 -5 -77 -9 -120 -9 -69 0 -80 3 -120
30 -33 24 -44 39 -48 65 -5 33 -8 35 -49 41 -33 4 -52 14 -73 38 -23 25 -28
41 -28 81 l0 50 -53 0 c-48 0 -56 3 -88 37 -19 21 -46 62 -59 90 -13 29 -31
55 -40 58 -9 3 -29 19 -45 35 -27 29 -28 33 -33 160 l-5 131 28 29 29 30 -25
26 c-22 24 -24 33 -23 127 1 56 6 131 11 167 6 36 13 76 17 88 6 17 2 30 -12
45 -15 16 -21 43 -26 102 -4 44 -12 132 -18 195 -8 89 -8 133 2 194 9 55 23
94 46 134 19 30 43 65 53 76 14 15 17 26 11 36 -5 8 -10 39 -10 68 0 36 8 68
24 101 16 30 29 80 35 132 5 46 12 105 14 131 3 33 0 51 -10 60 -8 6 -21 24
-29 39 -8 16 -14 38 -14 51 0 13 -4 29 -8 36 -5 6 -53 24 -107 38 -95 25 -100
25 -142 9 -29 -11 -53 -30 -72 -58 -16 -23 -43 -55 -60 -71 -24 -23 -31 -38
-31 -68 0 -22 -7 -53 -16 -70 -9 -16 -33 -49 -53 -72 -31 -34 -42 -57 -60
-131 l-21 -90 22 -29 c14 -19 23 -50 26 -83 3 -33 -2 -71 -12 -102 -9 -27 -16
-71 -16 -97 0 -38 -5 -54 -27 -76 -15 -15 -36 -28 -48 -28 -21 0 -22 -4 -28
-175 -4 -115 -10 -183 -19 -199 -7 -13 -21 -38 -31 -56 -19 -32 -19 -32 6 -59
18 -18 33 -54 47 -115 14 -54 20 -105 17 -128 -3 -22 -13 -48 -22 -58 -9 -10
-20 -48 -26 -84 -8 -57 -6 -72 8 -99 14 -25 18 -57 18 -147 1 -107 3 -120 33
-189 18 -40 32 -82 32 -92 0 -15 7 -19 39 -19 23 0 51 -9 72 -23 31 -21 34
-27 37 -80 2 -40 -2 -64 -12 -79 -9 -12 -16 -28 -16 -35 0 -8 14 -13 38 -13
30 0 45 -7 69 -33 17 -17 34 -43 38 -57 4 -14 23 -53 43 -86 l37 -62 59 -7
c51 -5 65 -12 98 -44 21 -21 69 -61 108 -90 41 -29 81 -51 96 -51 14 0 37 -6
52 -14 15 -7 53 -16 86 -19 46 -5 65 -12 87 -33 18 -17 29 -38 29 -54 l0 -27
128 1 c124 1 129 0 218 -36 77 -31 104 -37 175 -39 46 -1 176 3 289 8 137 7
225 16 264 27 33 10 86 31 118 47 32 16 77 46 99 66 32 29 52 38 95 44 39 5
71 18 108 43 28 20 85 49 124 65 44 17 79 37 89 52 9 13 34 43 57 67 23 24 53
50 69 58 15 8 27 23 27 33 0 11 8 39 19 63 11 27 39 60 72 88 30 25 62 52 72
59 10 8 48 17 85 20 62 6 68 8 88 41 13 19 35 50 49 68 22 26 34 32 65 32 33
0 41 5 59 35 11 20 27 38 36 41 8 3 17 22 21 42 4 21 12 48 19 62 7 14 24 35
37 46 12 12 40 27 61 34 26 8 42 21 49 38 5 15 15 56 20 92 8 46 18 73 36 93
14 15 40 32 58 39 27 10 34 19 44 57 6 26 25 60 42 78 20 20 45 34 70 38 24 4
41 14 45 23 2 10 12 33 20 54 8 20 30 51 49 69 20 19 48 34 71 38 35 6 38 9
46 48 5 28 23 58 53 92 25 27 53 52 62 55 9 3 33 36 52 73 19 38 57 91 85 118
28 28 69 66 92 85 34 29 43 45 53 93 7 33 22 70 37 88 22 26 24 34 14 55 -6
14 -11 46 -11 71 0 37 6 53 27 75 24 25 34 28 89 28 61 0 63 1 69 29 3 16 19
49 35 74 16 25 32 63 36 84 4 20 16 57 26 80 19 43 19 44 -1 72 -16 22 -21 45
-21 89 0 57 3 63 46 117 31 37 62 63 91 76 36 15 48 27 65 66 11 27 32 60 46
76 14 15 36 27 49 27 21 0 23 4 23 58 1 33 7 65 15 76 10 13 12 35 8 81 -3 34
-3 79 1 99 4 21 22 54 40 74 18 20 45 59 60 85 15 26 36 53 47 60 11 7 31 36
45 66 l26 53 -26 27 c-19 20 -26 38 -26 67 0 32 6 46 30 69 17 17 37 51 45 79
8 27 23 61 32 75 12 19 16 42 14 83 -1 31 3 75 9 98 6 23 26 58 45 78 25 29
39 58 55 122 12 47 31 101 42 120 19 33 20 45 14 185 l-7 151 35 59 c26 43 36
70 36 101 0 31 7 51 25 72 23 28 24 32 10 58 -10 19 -15 58 -15 116 0 76 3 90
23 115 15 17 28 54 36 97 7 38 23 88 37 111 14 24 24 58 24 79 0 20 6 52 14
70 8 18 24 41 37 50 l23 16 -35 0 c-25 0 -42 7 -58 24 -22 24 -23 30 -20 175
4 150 4 150 33 180 l29 30 -6 129 c-7 121 -6 130 13 147 14 13 17 22 10 29 -5
5 -10 38 -10 73 0 55 3 66 31 98 17 19 38 35 48 35 14 0 15 11 11 84 -4 75 -8
88 -32 113 -23 24 -28 38 -28 77 0 26 7 101 16 167 8 66 22 138 30 161 14 41
14 42 -16 73 -27 28 -30 37 -30 98 0 63 2 69 35 106 22 24 36 50 37 68 1 15
-4 66 -10 113 -7 46 -12 118 -12 160 1 41 5 107 11 145 6 39 11 77 11 85 0 8
-5 53 -10 100 -6 50 -19 101 -31 125 -15 27 -21 58 -21 100 0 33 5 97 10 141
9 71 8 87 -10 140 -12 32 -25 91 -31 129 -5 39 -18 88 -29 111 -13 25 -20 61
-20 95 0 30 4 59 10 65 5 5 21 43 35 84 14 40 25 91 25 112 0 22 -11 60 -27
89 -21 40 -28 72 -34 148 -4 58 -16 120 -29 156 -12 33 -25 88 -28 122 -4 54
-1 70 23 120 l28 57 -21 37 c-14 25 -22 55 -22 87 0 26 6 57 14 67 10 14 13
40 9 95 -2 41 -6 84 -8 95 -2 11 -21 45 -41 75 l-36 55 6 128 c4 105 9 135 26
162 11 18 20 47 20 64 0 23 -9 39 -34 61 -26 23 -35 41 -41 78 -4 26 -20 67
-36 91 -22 34 -29 56 -29 95 0 44 -6 60 -46 119 l-47 68 6 67 c4 37 15 104 25
149 10 46 26 91 35 101 10 10 17 28 17 40 0 17 -6 22 -28 22 -19 0 -39 11 -60
33 -25 26 -35 47 -42 93 -6 32 -10 75 -10 95 0 25 -9 48 -30 74 -28 35 -30 43
-30 124 0 62 -4 93 -15 109 -9 12 -25 58 -36 103 -15 56 -20 103 -17 150 2 48
0 69 -8 69 -6 0 -31 21 -54 46 l-42 46 6 142 7 141 -33 20 c-24 14 -38 34 -50
70 -9 28 -17 80 -18 116 0 59 -3 68 -30 94 -26 25 -29 35 -32 99 l-3 71 -40 3
c-24 2 -49 12 -63 25 -23 22 -24 24 -17 167 4 80 11 152 16 161 6 11 2 22 -11
34 -15 14 -20 31 -20 70 0 36 -5 57 -16 66 -8 7 -22 25 -30 40 -8 16 -14 48
-14 73 0 37 -4 47 -22 57 -13 6 -35 23 -50 37 -22 20 -28 35 -28 69 0 28 10
61 30 98 17 30 30 58 30 60 0 3 -10 5 -23 5 -13 0 -35 13 -50 28 -24 25 -27
36 -27 94 0 56 4 71 24 95 23 27 23 29 8 58 -9 16 -19 59 -23 95 -3 36 -12
103 -18 149 -7 46 -21 101 -31 122 -11 20 -29 72 -41 115 -12 43 -29 89 -39
103 -10 15 -21 48 -24 75 -3 28 -18 84 -33 125 -21 60 -27 100 -31 192 -3 70
0 124 6 135 7 13 6 26 -4 46 -10 18 -22 28 -38 28 -12 0 -32 10 -44 23 -16 16
-22 36 -22 66 0 23 5 51 11 63 9 16 7 24 -12 44 -16 17 -24 40 -27 77 -4 49
-1 57 27 89 21 24 31 46 31 67 0 23 -8 39 -29 56 -17 15 -33 42 -41 72 -7 27
-24 65 -38 85 -22 35 -24 45 -20 123 l4 85 -36 0 c-23 0 -43 7 -53 18 -12 13
-17 37 -17 84 0 55 4 68 23 86 13 12 33 22 45 22 19 0 22 6 22 36 0 21 -8 47
-20 62 -18 22 -20 38 -19 121 2 86 -1 102 -24 151 -20 41 -27 71 -27 117 l0
62 50 42 c28 24 60 64 75 92 16 33 25 68 25 98 0 26 4 50 9 53 5 3 12 23 16
43 4 21 13 50 22 66 8 16 33 49 55 73 22 24 47 44 54 44 10 0 14 16 14 61 0
57 3 64 36 97 19 19 49 64 65 100 16 36 29 75 29 87 0 13 7 36 15 51 8 16 17
28 20 27 3 -2 9 -3 14 -3 4 0 12 36 15 80 6 65 12 86 33 110 18 22 33 30 59
30 30 0 36 5 56 47 15 31 38 58 65 75 34 23 43 36 53 79 7 27 23 63 37 80 18
21 33 29 58 29 19 0 45 4 59 10 23 8 26 15 26 59 0 37 6 56 23 76 13 15 42 30
72 38 l50 12 5 70 c4 55 14 86 43 142 28 54 37 85 37 121 0 38 5 53 23 70 17
16 41 23 93 28 64 6 73 10 88 34 8 15 33 42 53 60 21 17 61 54 90 81 35 33 60
49 78 49 14 0 39 7 54 15 16 8 33 27 39 42 6 15 13 42 17 59 3 17 20 45 38 62
23 22 49 34 94 42 48 10 68 20 94 46 31 32 37 34 99 34 58 0 70 3 90 25 13 14
41 30 63 36 21 6 58 27 80 49 23 21 59 45 79 53 20 9 53 34 73 56 22 24 52 45
74 51 20 5 64 16 99 25 35 8 83 15 106 15 28 0 52 -7 69 -20 14 -11 46 -23 71
-26 40 -6 54 -15 101 -65 48 -52 58 -59 93 -59 29 0 44 -7 64 -27 14 -16 33
-48 43 -73 9 -25 22 -58 28 -75 5 -16 14 -64 19 -105 5 -41 12 -118 17 -170 4
-52 11 -103 16 -112 4 -10 17 -18 29 -18 13 0 32 -10 44 -23 18 -19 22 -35 22
-87 0 -55 -4 -68 -25 -90 -23 -24 -24 -28 -10 -40 11 -9 15 -32 15 -86 0 -61
-6 -90 -35 -164 -34 -86 -35 -95 -35 -218 0 -110 -3 -131 -17 -145 -10 -8 -30
-18 -45 -22 -24 -6 -28 -13 -34 -62 -3 -30 -17 -75 -30 -99 -20 -37 -22 -51
-15 -84 5 -21 17 -51 28 -67 10 -15 24 -41 31 -56 7 -15 12 -52 12 -82 0 -29
-5 -66 -10 -80 -6 -15 -28 -45 -50 -66 -22 -22 -40 -46 -40 -54 0 -7 -16 -46
-37 -85 -22 -45 -38 -92 -41 -124 -2 -28 -8 -56 -13 -62 -5 -5 -15 -39 -23
-73 -8 -35 -21 -70 -29 -79 -8 -10 -19 -32 -26 -51 -6 -19 -11 -56 -11 -83 0
-32 -8 -65 -25 -98 -15 -29 -25 -67 -25 -92 0 -24 -9 -62 -20 -85 -10 -24 -33
-63 -49 -87 -17 -25 -31 -51 -31 -59 0 -8 -16 -46 -35 -85 -20 -39 -51 -84
-71 -101 -19 -17 -44 -31 -54 -31 -16 0 -20 -7 -20 -34 0 -28 -7 -40 -34 -61
-24 -18 -36 -37 -41 -63 -4 -21 -20 -51 -37 -69 -27 -28 -31 -40 -35 -105 -5
-59 -12 -83 -38 -128 -18 -30 -38 -73 -43 -95 -6 -22 -13 -66 -17 -98 -4 -40
-14 -66 -32 -87 -13 -17 -33 -30 -44 -30 -10 0 -23 -9 -29 -19 -5 -11 -10 -47
-10 -81 0 -33 -6 -73 -14 -88 -8 -15 -22 -34 -32 -43 -11 -9 -32 -21 -49 -26
-16 -5 -36 -20 -42 -34 -7 -13 -13 -44 -13 -68 0 -39 -5 -49 -43 -86 -24 -22
-55 -63 -70 -89 -17 -31 -27 -63 -27 -91 0 -30 -6 -47 -23 -63 -15 -14 -36
-22 -58 -22 -19 0 -40 -5 -46 -11 -6 -6 -8 -37 -5 -77 3 -53 1 -70 -11 -80
-14 -12 -13 -17 5 -48 18 -30 25 -34 62 -34 31 0 48 -6 63 -22 11 -13 26 -33
32 -46 11 -21 13 -21 41 -7 16 8 49 15 75 15 37 0 45 3 45 18 0 10 10 28 23
40 13 12 30 22 39 22 9 0 28 20 42 45 15 24 42 57 61 72 23 18 43 47 56 83 11
30 24 59 29 65 5 6 47 87 94 180 46 94 88 188 91 210 4 22 14 47 22 57 8 9 36
26 63 37 43 19 50 26 65 71 10 31 29 60 49 77 26 22 34 38 40 76 3 27 15 68
25 93 11 24 52 76 92 116 l73 73 4 100 c3 84 7 104 25 123 13 14 32 22 54 22
l33 0 0 78 c0 42 5 93 10 113 6 19 21 46 35 59 21 20 25 32 25 84 0 33 9 94
21 135 12 42 30 86 42 99 11 12 28 22 36 22 14 0 16 17 16 112 0 112 0 114 36
173 19 33 40 69 47 80 6 11 14 41 17 67 4 31 19 66 42 100 31 44 37 64 44 128
5 55 16 96 44 155 21 44 46 93 57 108 15 21 20 46 21 107 1 55 -2 80 -10 80
-6 0 -23 14 -37 31 -23 27 -26 40 -26 101 0 70 0 71 45 116 25 24 45 48 45 53
0 4 12 21 26 38 14 17 34 31 45 31 11 0 21 9 25 25 4 16 -1 34 -15 54 -17 24
-21 43 -21 108 1 56 6 88 19 113 17 32 18 37 4 64 -11 20 -14 51 -11 106 3 69
6 80 35 113 17 19 34 44 37 54 2 10 10 45 16 78 7 44 7 61 -1 64 -6 2 -26 17
-45 33 -31 28 -34 35 -34 89 0 32 5 69 11 83 9 20 7 34 -15 82 -15 32 -42 71
-60 85 -17 15 -53 63 -79 107 -26 43 -47 92 -47 107 0 15 -5 45 -12 66 -6 22
-15 39 -19 39 -4 0 -22 12 -40 27 -18 15 -45 56 -61 90 -21 48 -28 78 -28 128
l0 65 -27 -6 c-16 -3 -72 -1 -125 4 -82 8 -104 14 -138 37 -39 27 -43 28 -91
17 -28 -7 -65 -12 -82 -12 -18 1 -43 7 -57 15 -14 8 -29 14 -35 14z"/>
<path d="M11629 17700 c-3 0 -20 -11 -38 -24 -18 -14 -50 -27 -71 -31 -24 -4
-51 -19 -72 -39 -34 -33 -34 -34 -16 -56 14 -17 18 -39 18 -94 -1 -46 -6 -78
-15 -90 -9 -12 -15 -42 -15 -71 0 -37 -5 -57 -18 -68 -9 -9 -36 -24 -58 -34
-34 -15 -40 -22 -33 -38 4 -11 8 -86 8 -166 l1 -145 -28 -27 c-15 -15 -36 -27
-45 -27 -9 0 -19 -10 -21 -22 -3 -13 -7 -69 -10 -125 -3 -61 -11 -114 -20
-131 -8 -16 -31 -43 -51 -61 -20 -17 -41 -31 -48 -31 -6 0 5 -14 26 -31 34
-28 37 -34 37 -85 0 -30 -6 -67 -14 -83 -8 -15 -22 -33 -30 -40 -9 -8 -16 -22
-16 -32 0 -12 7 -19 18 -19 10 0 28 -10 40 -23 17 -18 22 -36 22 -74 0 -45 -4
-54 -34 -81 -19 -17 -42 -45 -51 -64 -10 -18 -33 -49 -51 -69 -30 -31 -36 -45
-44 -110 -5 -45 -18 -93 -34 -123 -22 -42 -26 -63 -26 -133 0 -58 -5 -94 -16
-116 -9 -18 -24 -41 -34 -52 -10 -11 -20 -40 -24 -64 -4 -24 -13 -56 -22 -73
-14 -27 -14 -33 5 -72 12 -23 21 -57 21 -75 0 -17 9 -45 21 -60 14 -20 23 -50
26 -95 5 -55 3 -70 -12 -86 -10 -11 -24 -20 -32 -20 -11 0 -11 -4 -2 -21 6
-13 9 -45 7 -76 -4 -42 -11 -60 -33 -83 -21 -22 -38 -30 -62 -30 -31 0 -33 -2
-33 -33 0 -22 -8 -41 -22 -55 -13 -11 -35 -24 -50 -27 -15 -4 -31 -12 -37 -18
-5 -7 -6 -34 -1 -67 5 -30 14 -100 21 -156 6 -55 9 -117 5 -137 -5 -26 -20
-48 -54 -77 -26 -23 -51 -49 -56 -58 -6 -10 -13 -59 -16 -110 -5 -73 -11 -98
-28 -122 -12 -16 -22 -36 -22 -44 0 -8 -12 -29 -27 -46 -14 -17 -37 -36 -50
-41 -21 -8 -23 -15 -23 -73 0 -47 7 -78 26 -121 23 -49 26 -67 21 -122 -3 -45
-12 -74 -27 -94 -11 -17 -27 -61 -34 -99 -8 -39 -20 -77 -27 -86 -7 -8 -25
-22 -39 -29 -24 -12 -29 -25 -44 -107 -9 -51 -20 -106 -23 -121 -2 -16 -18
-44 -35 -63 -17 -19 -38 -34 -47 -34 -9 0 -22 -5 -29 -12 -7 -7 -12 -31 -12
-54 0 -24 6 -46 13 -51 6 -4 38 -6 71 -5 49 3 62 0 82 -19 20 -19 24 -32 24
-81 0 -43 -7 -72 -25 -108 -14 -27 -25 -56 -25 -64 0 -9 -14 -31 -31 -51 -26
-30 -37 -35 -73 -35 -31 0 -48 -6 -62 -21 -10 -12 -38 -32 -62 -46 -27 -16
-44 -34 -48 -51 -3 -15 -10 -43 -15 -63 -5 -20 -16 -42 -24 -49 -8 -7 -15 -19
-15 -27 0 -8 14 -26 30 -40 25 -20 30 -32 30 -67 0 -32 -6 -48 -23 -64 -13
-12 -29 -22 -36 -22 -10 0 -12 -14 -6 -62 4 -35 8 -91 9 -126 1 -62 0 -63 -41
-102 -24 -22 -43 -45 -43 -53 0 -8 -13 -34 -30 -58 -16 -24 -30 -53 -30 -65 0
-11 -16 -35 -35 -54 -32 -31 -35 -39 -35 -91 0 -32 -5 -70 -11 -86 -5 -15 -22
-40 -37 -55 -19 -21 -35 -28 -64 -28 -29 0 -40 -5 -49 -22 -6 -13 -23 -35 -37
-50 -14 -16 -31 -28 -38 -28 -6 0 -27 -19 -46 -42 -19 -24 -37 -57 -41 -73 -3
-17 -26 -61 -51 -98 -29 -44 -46 -80 -46 -99 0 -22 -11 -41 -42 -73 -24 -23
-58 -61 -76 -83 -22 -28 -61 -56 -120 -86 -72 -38 -96 -46 -142 -46 -54 0 -57
2 -108 53 -47 48 -52 57 -52 98 0 32 6 51 18 62 10 10 25 17 32 17 10 0 9 5
-3 18 -10 10 -17 28 -17 40 0 11 -4 32 -10 46 -5 14 -27 34 -49 45 -21 11 -49
32 -60 47 -12 16 -21 41 -21 63 0 20 -3 46 -6 59 -4 13 -23 31 -44 42 -21 11
-59 44 -84 73 -40 47 -46 60 -46 98 0 24 7 62 14 85 9 24 12 57 9 83 -5 34
-12 47 -37 62 -17 10 -39 19 -48 19 -9 0 -30 12 -47 26 -30 25 -31 29 -31 101
0 65 4 83 29 127 27 48 28 54 18 104 -6 28 -16 52 -23 52 -6 0 -30 20 -52 44
-22 24 -44 52 -50 62 -5 10 -13 37 -17 59 -3 21 -18 53 -32 69 -22 26 -25 37
-21 90 4 51 9 63 36 88 l32 28 -21 50 c-19 43 -21 62 -15 122 6 64 4 74 -15
94 -18 19 -20 32 -17 98 2 64 0 76 -13 76 -8 0 -25 10 -36 23 -16 16 -22 41
-27 97 -3 41 -9 140 -12 220 -6 122 -4 151 9 176 10 20 12 35 6 45 -5 8 -9 39
-9 70 0 44 6 64 25 93 14 20 25 45 25 54 0 9 -8 36 -17 59 -10 24 -24 43 -31
43 -8 0 -27 13 -43 29 -27 27 -29 35 -29 104 0 66 3 79 25 105 14 17 25 34 25
38 0 4 -13 22 -29 39 -15 16 -34 50 -41 75 -7 25 -15 68 -17 97 -4 48 -3 53
26 74 28 20 31 28 31 74 0 41 5 56 23 73 13 12 35 22 50 22 25 0 27 3 27 40 0
22 8 62 19 89 13 34 15 54 8 66 -5 9 -7 42 -5 71 3 35 13 65 26 84 19 25 22
42 22 123 0 92 0 93 33 125 18 18 38 32 45 32 8 0 12 23 12 74 0 72 1 75 35
105 33 28 35 34 35 90 0 52 4 64 34 99 23 28 37 58 45 99 6 32 21 74 33 93 19
30 22 50 23 142 0 98 2 108 24 132 18 19 35 26 62 26 30 0 39 4 45 23 4 12 6
47 5 78 -1 42 3 61 18 81 l20 25 -37 35 c-24 23 -50 37 -76 41 -22 4 -58 21
-84 42 -34 26 -55 35 -83 35 -29 0 -47 8 -74 31 l-35 31 -31 -26 c-18 -16 -43
-26 -61 -26 -27 0 -30 -3 -23 -22 4 -13 9 -55 12 -94 5 -65 3 -72 -22 -102
-19 -22 -35 -32 -56 -32 -22 0 -30 -6 -35 -25 -3 -13 -24 -40 -45 -60 -38 -34
-39 -37 -39 -101 0 -64 -2 -69 -40 -110 -22 -24 -40 -50 -40 -57 0 -7 -10 -23
-22 -34 -13 -12 -32 -23 -42 -25 -12 -2 -23 -18 -31 -45 -7 -23 -24 -56 -39
-73 -14 -18 -26 -42 -26 -54 0 -12 7 -31 15 -42 8 -10 15 -39 15 -64 0 -26 -5
-51 -11 -57 -8 -8 -8 -13 0 -17 7 -5 11 -44 11 -100 0 -84 -2 -95 -23 -114
-13 -12 -27 -22 -33 -22 -5 0 -8 -40 -6 -93 3 -88 2 -96 -22 -124 -14 -17 -26
-37 -26 -45 0 -8 11 -25 25 -38 22 -21 25 -32 25 -91 0 -61 -3 -70 -26 -88
-15 -12 -39 -21 -55 -21 -26 0 -29 -5 -45 -60 -12 -43 -26 -69 -49 -89 -26
-22 -30 -32 -23 -46 6 -9 8 -47 6 -84 -2 -38 -12 -83 -23 -106 -11 -22 -30
-44 -42 -50 -18 -8 -23 -18 -23 -47 0 -22 -10 -52 -24 -75 -14 -21 -35 -50
-46 -66 -12 -15 -32 -30 -45 -33 -17 -4 -24 -15 -28 -41 -4 -20 -19 -49 -34
-65 -25 -26 -27 -34 -25 -96 l3 -68 -49 -44 c-41 -38 -51 -54 -61 -100 -7 -34
-22 -65 -38 -82 -18 -19 -37 -28 -58 -28 l-32 0 -7 -77 c-3 -42 -6 -93 -6
-114 0 -26 -8 -47 -26 -68 -19 -24 -34 -31 -60 -31 -30 0 -34 -3 -34 -26 0
-14 -7 -42 -17 -61 -9 -19 -31 -47 -50 -61 -18 -15 -33 -32 -33 -38 0 -5 -13
-22 -28 -37 -18 -17 -39 -27 -59 -27 -26 0 -31 -4 -37 -31 -3 -17 -6 -53 -6
-79 0 -36 -7 -56 -30 -88 -26 -36 -30 -51 -30 -104 l0 -62 -60 -56 c-40 -37
-64 -69 -75 -100 -9 -24 -26 -55 -38 -68 -12 -13 -39 -33 -59 -43 -38 -19 -38
-20 -38 -80 0 -39 -7 -73 -19 -98 -11 -21 -36 -52 -56 -69 -20 -18 -39 -32
-44 -32 -5 0 -11 -18 -15 -39 -3 -21 -19 -69 -36 -106 -17 -37 -41 -81 -55
-97 -16 -19 -25 -42 -25 -64 0 -19 -6 -47 -14 -62 -8 -15 -34 -43 -58 -63 -23
-19 -74 -54 -113 -77 -38 -22 -83 -49 -100 -59 -25 -15 -31 -26 -33 -61 -2
-28 -15 -62 -37 -96 -18 -28 -62 -79 -98 -112 -36 -34 -68 -72 -72 -85 -4 -13
-15 -33 -25 -44 -10 -11 -29 -43 -43 -71 -14 -28 -41 -71 -60 -96 -19 -24 -37
-60 -41 -80 -3 -20 -17 -51 -29 -69 -19 -28 -30 -35 -64 -37 -33 -2 -42 -7
-47 -26 -3 -13 -26 -41 -50 -62 -25 -21 -57 -48 -71 -59 -19 -15 -30 -38 -41
-85 -10 -42 -24 -75 -42 -93 -15 -16 -49 -40 -77 -54 -27 -14 -64 -36 -82 -49
-23 -18 -45 -24 -81 -24 -38 0 -53 5 -71 24 -18 19 -23 39 -28 110 -4 59 -2
99 7 126 13 39 13 40 -28 84 -23 25 -44 57 -47 73 -3 15 -15 52 -27 81 -18 48
-20 67 -14 160 3 59 9 122 12 140 6 30 5 32 -24 32 -21 0 -38 9 -56 31 -14 17
-29 42 -32 55 -4 14 -4 66 -2 117 5 86 3 94 -19 121 -22 27 -24 36 -19 105 3
42 9 113 13 158 l8 81 -37 32 c-34 28 -38 36 -38 80 0 27 5 61 11 77 6 17 8
55 4 96 -7 65 -8 67 -34 67 -16 0 -37 10 -50 24 -12 13 -29 52 -38 87 -8 35
-17 90 -20 121 -4 52 -9 61 -54 107 l-50 49 2 130 c1 105 -2 134 -15 155 -11
15 -34 29 -63 38 -25 7 -61 25 -79 41 -25 22 -36 42 -45 86 -6 31 -20 74 -30
94 -14 27 -19 59 -19 116 0 71 2 81 25 102 16 15 25 34 25 53 0 16 -11 42 -25
59 -20 24 -25 40 -25 88 0 32 4 70 9 83 8 20 6 29 -9 42 -10 9 -22 34 -25 56
-4 21 -11 39 -16 39 -4 0 -24 14 -44 31 -33 29 -35 35 -35 93 0 58 -2 64 -35
96 -33 32 -35 37 -35 102 0 67 0 68 -27 68 -16 0 -39 11 -55 27 -24 23 -28 34
-28 86 0 43 5 66 20 88 12 16 28 52 37 81 8 29 17 76 20 105 l5 52 -56 52
c-42 39 -57 61 -61 88 -4 20 -9 49 -12 64 -2 15 -22 47 -42 71 l-38 43 -18
232 -19 231 -28 0 c-18 0 -42 13 -68 36 -37 34 -40 40 -40 89 0 46 4 56 29 77
24 21 29 33 33 88 4 57 8 66 39 92 19 16 40 33 47 39 6 5 12 20 12 33 0 14 -9
27 -23 33 -12 6 -37 23 -55 38 -29 24 -32 32 -32 81 0 36 -4 54 -12 54 -7 0
-26 7 -43 16 -20 10 -43 14 -71 9 -22 -3 -56 -14 -75 -24 -19 -10 -48 -21 -65
-25 -17 -4 -45 -21 -61 -39 -17 -18 -38 -45 -46 -62 -8 -16 -29 -42 -46 -58
-28 -24 -31 -33 -31 -83 0 -45 -5 -62 -25 -86 -17 -20 -25 -41 -25 -66 0 -25
12 -55 35 -92 30 -47 35 -62 34 -115 0 -33 -4 -69 -8 -80 -6 -15 -3 -22 13
-30 11 -6 27 -22 34 -35 9 -17 11 -46 7 -92 -3 -37 -13 -83 -22 -103 -16 -34
-16 -36 5 -58 12 -13 26 -47 32 -75 5 -29 14 -61 19 -71 6 -10 17 -23 25 -31
11 -9 16 -30 16 -73 0 -49 5 -69 30 -109 24 -38 30 -60 30 -102 0 -36 -5 -58
-16 -67 -8 -7 -21 -24 -29 -38 -9 -19 -11 -39 -5 -69 4 -24 17 -54 30 -67 19
-21 21 -31 17 -101 -2 -44 -7 -89 -12 -101 -5 -17 -4 -23 8 -23 9 0 25 -12 36
-26 15 -19 21 -41 21 -80 l0 -53 56 -3 c47 -2 60 -7 75 -28 11 -14 22 -46 25
-72 4 -25 3 -67 0 -93 -5 -32 -18 -58 -41 -83 -18 -20 -38 -55 -43 -76 -11
-39 -11 -40 32 -78 29 -25 50 -54 60 -85 9 -26 16 -77 16 -115 0 -68 0 -68 28
-68 18 0 38 -10 55 -28 23 -24 27 -37 27 -88 0 -47 -5 -67 -25 -96 -14 -20
-25 -46 -25 -56 0 -11 7 -25 16 -33 8 -7 31 -36 50 -64 29 -45 34 -61 34 -111
0 -38 -6 -68 -16 -82 -13 -19 -13 -28 -4 -58 7 -19 29 -52 50 -73 27 -26 40
-50 45 -77 3 -21 8 -49 11 -61 4 -20 11 -23 48 -23 28 0 48 -6 58 -17 9 -10
23 -32 32 -50 9 -18 16 -56 16 -87 0 -51 -3 -57 -37 -85 l-37 -30 21 -53 c12
-29 29 -79 38 -111 13 -45 15 -78 10 -139 l-7 -80 32 -33 c29 -30 32 -37 28
-86 -2 -30 -8 -62 -12 -71 -7 -16 -2 -18 36 -18 36 0 50 -5 74 -31 28 -29 29
-34 29 -122 0 -65 -5 -106 -18 -139 -10 -26 -16 -52 -12 -58 3 -5 19 -10 34
-10 15 0 36 -9 45 -19 10 -10 33 -70 52 -132 19 -63 40 -134 45 -159 5 -25 9
-76 8 -115 -1 -49 5 -89 21 -134 17 -53 22 -95 26 -230 3 -91 10 -188 16 -216
6 -27 26 -78 45 -113 18 -35 33 -73 33 -84 0 -12 20 -43 45 -69 41 -44 45 -52
45 -99 0 -28 -6 -61 -12 -73 -9 -15 -12 -63 -9 -157 3 -134 3 -136 -23 -167
-15 -18 -41 -34 -59 -38 -17 -4 -48 -17 -67 -30 -19 -12 -60 -27 -91 -34 -44
-9 -68 -22 -112 -61 -50 -46 -60 -50 -104 -50 -27 0 -54 5 -61 12 -9 9 -12 7
-12 -12 0 -14 -9 -45 -20 -69 -11 -24 -20 -55 -20 -68 0 -16 -13 -38 -36 -59
-19 -19 -42 -54 -50 -79 -11 -30 -32 -59 -62 -86 -26 -23 -67 -53 -92 -67 -25
-14 -64 -41 -87 -60 -23 -18 -56 -55 -73 -81 -16 -27 -37 -69 -46 -94 -8 -25
-33 -66 -54 -90 -26 -29 -70 -60 -132 -92 -51 -26 -112 -65 -135 -86 -38 -35
-48 -39 -95 -39 -36 0 -63 -7 -83 -20 -18 -12 -47 -20 -72 -20 -36 0 -43 -3
-43 -20 0 -11 -44 -67 -101 -130 -57 -62 -113 -113 -127 -117 -15 -3 -29 -18
-38 -38 -7 -18 -25 -43 -40 -54 -20 -16 -41 -21 -85 -21 -50 0 -60 -3 -70 -22
-6 -13 -25 -37 -41 -55 -20 -21 -54 -39 -99 -54 -63 -21 -69 -25 -69 -50 0
-19 -12 -36 -40 -60 -22 -19 -55 -47 -74 -62 -19 -15 -58 -34 -85 -41 -39 -10
-67 -28 -119 -75 -37 -34 -110 -104 -162 -155 -52 -52 -111 -103 -130 -115
-21 -13 -52 -21 -78 -21 -37 0 -48 -5 -83 -42 -23 -24 -63 -69 -91 -100 -29
-34 -74 -71 -109 -90 -32 -18 -59 -37 -59 -42 0 -5 -28 -37 -62 -71 -35 -34
-78 -81 -96 -103 -18 -23 -40 -64 -48 -91 -8 -29 -25 -58 -40 -70 -14 -11 -42
-23 -61 -27 -31 -6 -38 -13 -58 -58 -13 -29 -31 -58 -40 -66 -9 -8 -34 -40
-56 -71 -21 -31 -53 -68 -71 -82 -18 -15 -41 -33 -50 -41 -10 -9 -20 -26 -22
-38 -3 -13 -8 -41 -11 -63 -5 -32 -19 -52 -66 -97 -35 -35 -59 -66 -59 -79 0
-11 -15 -36 -34 -55 -19 -19 -40 -34 -48 -34 -8 0 -20 -11 -26 -24 -6 -13 -18
-54 -27 -91 -13 -49 -14 -70 -6 -78 6 -6 11 -43 11 -82 0 -60 -4 -76 -25 -105
l-25 -34 22 -9 c13 -4 33 -18 45 -29 19 -18 23 -32 23 -82 0 -34 3 -78 6 -98
6 -37 8 -38 48 -38 33 0 48 -6 69 -28 23 -24 27 -36 27 -88 0 -43 -6 -66 -20
-84 -11 -14 -20 -32 -20 -41 0 -8 7 -24 15 -35 8 -10 15 -29 15 -41 0 -21 5
-23 49 -23 34 0 57 -7 79 -22 17 -13 48 -36 69 -52 21 -17 55 -45 75 -65 29
-26 39 -44 43 -78 3 -24 7 -63 11 -87 4 -40 9 -46 39 -56 18 -6 55 -34 81 -62
38 -41 61 -55 108 -70 33 -10 71 -28 83 -40 17 -16 23 -33 23 -64 0 -35 5 -47
34 -72 27 -23 49 -32 116 -42 80 -12 83 -14 156 -78 41 -36 81 -76 89 -89 9
-13 22 -23 30 -23 7 0 35 -18 60 -40 35 -30 55 -40 81 -40 19 0 48 -7 64 -15
16 -8 36 -25 44 -37 9 -12 16 -32 16 -44 0 -18 8 -24 40 -29 27 -4 48 -17 68
-39 15 -18 38 -48 50 -68 l22 -35 47 23 c33 17 63 24 105 24 53 0 62 -3 98
-36 31 -28 40 -44 40 -69 0 -30 3 -33 40 -39 27 -4 55 -19 83 -45 l42 -38 73
5 c72 4 74 4 107 -28 33 -32 35 -33 123 -31 83 2 91 0 121 -24 17 -15 31 -33
31 -41 0 -8 10 -14 24 -14 13 0 29 7 36 15 8 10 31 15 65 15 47 0 56 -4 79
-31 24 -29 29 -30 58 -20 17 6 40 19 50 28 14 13 46 19 121 23 69 4 113 12
136 24 26 14 52 17 120 15 68 -2 93 1 121 16 21 11 72 22 125 26 89 9 89 9
137 56 47 46 50 47 116 51 67 4 69 5 81 37 6 19 40 59 74 91 34 32 70 70 79
85 10 17 46 43 85 63 37 19 82 44 98 55 17 12 46 21 67 21 35 0 37 2 43 38 3
20 8 50 11 67 2 16 16 42 31 57 17 18 37 28 55 28 25 0 28 4 28 33 0 17 9 51
19 73 10 23 24 45 30 48 6 4 11 27 11 50 0 38 5 48 39 79 33 30 39 42 45 91 5
36 16 66 29 82 12 14 38 29 57 33 34 7 35 8 38 58 3 44 8 56 33 78 22 18 43
25 72 26 32 0 37 2 22 8 -11 5 -29 19 -40 31 -17 19 -20 36 -20 119 0 74 4
104 19 131 10 19 30 48 45 63 24 26 26 35 26 118 l0 90 47 45 47 45 -9 97 c-5
53 -10 128 -10 165 0 41 6 79 15 97 8 16 24 35 35 43 19 13 20 18 9 61 -6 26
-9 71 -6 100 3 30 13 69 22 87 14 26 17 50 13 118 -5 85 -6 87 -47 127 -39 39
-41 45 -41 101 0 52 3 63 28 86 20 19 39 27 65 27 36 0 37 1 37 40 0 39 -1 40
-33 40 -24 0 -41 9 -63 31 -29 30 -29 32 -29 143 0 92 3 117 19 140 15 23 16
33 7 53 -6 13 -11 78 -11 144 0 93 4 127 17 152 10 20 19 70 23 129 5 61 13
106 23 121 15 23 14 26 -14 53 -24 23 -29 36 -29 74 0 37 6 55 30 85 17 21 30
45 30 54 0 10 -5 22 -12 29 -6 6 -15 49 -20 94 -5 46 -11 108 -14 138 -6 54
-6 55 35 91 l42 35 -53 24 c-29 13 -68 37 -85 54 -31 28 -33 34 -33 96 0 57 3
70 23 88 13 12 33 22 45 22 12 0 22 4 22 9 0 5 -9 12 -20 16 -11 3 -29 18 -40
32 -16 20 -20 41 -20 93 0 52 4 73 20 93 11 14 29 29 40 32 16 5 19 12 13 33
-3 15 -12 36 -18 47 -7 11 -16 47 -21 80 -4 33 -8 101 -8 150 -1 75 -4 92 -20
104 -10 7 -24 29 -32 47 -8 18 -14 60 -14 92 0 49 -4 62 -25 82 -22 21 -25 31
-25 97 0 42 7 96 16 124 16 49 16 51 -6 81 -12 16 -27 58 -33 92 -5 33 -7 77
-3 98 5 25 26 57 71 106 35 38 78 75 94 82 26 10 32 20 41 69 6 31 16 71 21
89 6 18 25 57 43 86 18 30 44 68 59 85 15 18 31 50 37 71 6 21 22 53 36 70 15
17 39 37 55 45 22 12 29 24 35 62 5 32 16 56 35 75 15 16 36 28 47 28 11 0 25
7 33 16 7 9 29 23 48 32 32 15 37 22 41 62 3 25 14 58 25 74 11 16 38 47 60
69 22 22 56 55 75 73 19 19 41 34 48 34 7 0 12 14 12 39 0 24 8 48 21 65 15
19 30 26 54 26 18 0 40 3 49 6 9 4 16 18 16 34 0 15 8 34 18 43 10 10 30 17
44 17 13 0 35 11 48 25 13 14 27 25 31 25 4 0 20 5 35 10 21 8 24 14 16 22 -7
7 -12 42 -12 81 0 62 4 75 40 137 22 38 62 92 89 119 41 43 56 51 85 51 20 0
36 2 36 5 0 3 -16 25 -35 51 -30 39 -35 53 -35 98 0 42 5 57 23 74 13 12 28
22 34 22 6 0 13 23 17 50 5 39 15 60 43 90 30 34 42 40 74 40 l39 0 0 49 c0
40 7 59 41 110 22 33 51 69 65 80 19 15 24 28 24 64 0 30 7 53 21 71 16 20 29
26 58 26 l38 0 7 50 c4 31 16 60 32 80 20 24 34 30 63 30 36 0 39 2 50 41 7
23 31 61 54 87 23 25 54 53 69 62 l28 17 -52 12 c-29 6 -63 21 -75 33 -20 19
-23 31 -23 96 0 68 2 76 29 103 19 19 40 29 59 29 25 0 43 15 107 85 45 49 85
85 96 85 11 0 19 6 19 14 0 8 12 24 26 35 20 16 41 21 84 21 53 0 61 -3 84
-31 14 -17 26 -35 26 -40 0 -6 12 -21 28 -34 19 -17 39 -24 68 -25 29 0 47 -6
62 -23 17 -18 22 -36 22 -74 0 -36 -5 -55 -18 -66 -10 -10 -23 -17 -28 -17 -5
0 -7 -22 -6 -50 3 -41 10 -56 38 -84 32 -32 34 -38 34 -104 0 -38 -7 -93 -17
-121 -16 -50 -16 -53 5 -90 12 -21 28 -67 37 -102 8 -35 15 -89 15 -119 0 -31
-5 -61 -12 -68 -9 -9 -7 -17 10 -35 17 -18 22 -36 22 -76 0 -29 -5 -61 -10
-72 -9 -16 -7 -19 13 -19 13 0 33 -11 46 -23 13 -14 25 -46 31 -78 4 -30 15
-67 24 -84 8 -16 20 -71 27 -121 9 -65 9 -103 2 -132 -9 -35 -8 -43 8 -58 10
-9 21 -30 25 -48 3 -17 12 -35 18 -39 8 -6 8 -10 -1 -14 -7 -2 -13 -11 -13
-19 0 -9 11 -14 28 -14 19 0 38 -11 58 -31 l29 -31 -2 -141 c-2 -121 -5 -145
-21 -167 -19 -26 -19 -26 4 -53 13 -16 24 -35 24 -43 0 -9 11 -14 33 -14 24 0
40 -8 58 -27 14 -16 32 -44 41 -65 9 -20 20 -64 24 -97 3 -34 10 -61 15 -61 4
0 21 -12 38 -26 l31 -26 0 -144 0 -143 -31 -36 c-17 -19 -38 -35 -46 -35 -8 0
-29 -11 -46 -24 -18 -13 -63 -35 -102 -48 -55 -18 -82 -35 -135 -84 -62 -59
-67 -67 -99 -163 -19 -55 -43 -109 -55 -119 -12 -11 -43 -27 -71 -36 -40 -13
-54 -23 -70 -54 -11 -20 -42 -52 -69 -69 -27 -19 -61 -33 -77 -33 -21 0 -32
-6 -38 -22 -5 -13 -22 -35 -37 -49 -16 -15 -45 -32 -65 -38 -19 -6 -51 -27
-69 -46 -19 -19 -44 -35 -56 -35 -15 0 -50 -29 -109 -94 -48 -52 -105 -107
-128 -123 -23 -15 -60 -47 -83 -69 -23 -23 -56 -45 -74 -49 -18 -4 -50 -23
-71 -42 -27 -25 -39 -44 -39 -63 0 -15 -7 -33 -15 -40 -8 -7 -15 -23 -15 -36
0 -13 -14 -39 -31 -59 -18 -20 -50 -46 -73 -59 -22 -13 -56 -27 -74 -31 -27
-5 -37 -16 -60 -63 -18 -38 -37 -62 -57 -72 -16 -8 -32 -16 -34 -17 -2 -1 4
-14 13 -27 11 -17 16 -48 16 -93 l1 -68 47 -22 c26 -13 84 -56 130 -97 l83
-74 128 5 127 6 35 -42 c28 -32 43 -41 67 -41 17 0 55 -14 83 -31 40 -23 59
-29 78 -24 14 4 62 10 106 12 78 4 82 3 119 -26 28 -22 45 -29 60 -25 12 4 33
12 47 20 14 7 31 19 38 27 9 12 46 15 190 15 166 0 184 2 254 26 53 18 86 37
114 66 40 40 42 40 115 40 42 0 95 -7 122 -16 l48 -16 43 42 c38 37 49 42 111
50 38 5 94 14 124 20 30 6 80 10 110 9 30 -1 77 2 103 6 37 6 50 13 57 30 5
12 21 32 36 44 19 15 41 21 79 21 35 0 71 8 107 25 29 14 63 25 75 25 13 0 39
18 63 44 37 39 46 44 100 49 40 3 77 15 112 35 29 16 64 33 78 37 14 4 39 21
57 37 20 20 48 33 80 39 26 5 59 18 73 29 14 12 45 30 70 41 25 10 69 32 99
47 29 15 67 37 84 50 21 15 45 22 76 22 36 0 51 6 76 28 16 16 55 36 85 45 30
9 73 22 94 30 22 8 54 32 73 56 19 23 56 53 81 68 26 15 58 35 71 45 14 11 41
18 66 18 33 0 53 8 91 37 27 20 67 52 89 70 22 19 43 37 47 41 4 4 24 26 45
50 32 36 47 44 98 54 33 6 72 19 86 29 14 10 48 23 74 29 36 8 57 21 86 53 21
23 38 47 39 53 0 6 -19 14 -41 17 -26 3 -52 16 -69 32 -16 15 -31 38 -34 51
-4 14 -14 24 -24 24 -9 0 -26 3 -37 6 -16 4 -23 -2 -33 -30 -7 -19 -33 -53
-58 -75 -24 -21 -59 -42 -77 -45 -18 -3 -59 -26 -92 -51 -33 -25 -64 -45 -68
-45 -4 0 -40 -15 -80 -34 -40 -19 -94 -37 -120 -41 -31 -5 -51 -13 -54 -24 -3
-9 -15 -26 -26 -38 -11 -12 -36 -28 -56 -34 -20 -7 -51 -29 -68 -49 -26 -30
-48 -43 -103 -59 -39 -12 -91 -33 -117 -46 -30 -16 -62 -25 -93 -25 -40 0 -49
-4 -68 -29 -12 -16 -49 -43 -83 -61 -51 -26 -71 -30 -117 -28 -54 3 -58 2 -94
-37 -26 -30 -53 -46 -95 -59 -32 -10 -76 -31 -97 -47 -24 -18 -52 -29 -72 -29
-17 0 -38 -7 -45 -17 -8 -9 -28 -22 -46 -30 -19 -7 -69 -13 -121 -13 -74 0
-94 3 -115 20 -14 11 -29 20 -33 20 -4 0 -17 -9 -28 -19 -12 -11 -63 -33 -115
-50 -51 -17 -105 -31 -119 -31 -14 0 -37 -11 -51 -24 -15 -13 -50 -31 -80 -40
-40 -12 -98 -16 -212 -16 -156 0 -158 0 -189 -27 -27 -22 -44 -27 -111 -31
-59 -3 -88 0 -121 13 -24 9 -70 21 -103 26 -33 4 -69 11 -80 14 -15 4 -23 -2
-35 -27 -9 -19 -35 -44 -65 -63 l-50 -30 -185 3 -185 3 -30 28 c-16 16 -40 34
-52 40 -12 6 -41 11 -65 11 -37 0 -49 6 -76 33 -28 29 -32 40 -32 88 0 47 4
59 28 82 15 15 39 27 52 27 15 0 35 14 57 39 18 22 42 43 53 46 10 3 22 14 25
25 3 10 19 35 35 55 17 21 30 46 30 56 0 9 11 31 25 48 20 23 36 31 67 33 38
3 43 6 50 35 5 17 20 41 34 52 15 12 40 21 55 21 26 0 29 3 29 33 0 17 9 46
20 64 10 18 36 41 58 52 21 11 55 23 77 27 21 4 50 13 64 20 14 8 31 14 37 14
7 0 14 10 18 23 3 12 6 48 6 80 0 51 4 62 29 88 20 20 39 29 61 29 18 0 45 9
61 21 16 11 46 25 66 31 24 6 52 27 78 56 22 25 48 58 57 74 10 16 43 54 73
85 38 39 57 68 61 92 4 23 21 49 45 73 28 26 39 46 39 66 0 17 9 37 23 50 17
16 36 22 71 22 27 0 90 -9 140 -21 50 -12 102 -28 115 -37 14 -8 51 -23 83
-33 l58 -17 34 27 c19 15 56 36 83 46 26 10 64 32 83 51 19 18 64 47 100 63
36 17 70 31 77 31 6 0 26 12 43 26 17 15 48 32 68 39 25 9 39 21 42 36 3 13
26 39 50 57 30 22 49 46 56 69 5 20 25 49 42 64 25 23 42 29 77 29 43 0 45 1
45 29 0 20 13 44 43 77 24 27 62 83 85 124 22 42 52 86 66 99 15 14 26 35 26
48 0 14 5 33 11 44 5 11 11 51 12 89 2 61 5 72 31 99 20 20 40 31 58 31 25 0
28 4 28 30 0 17 9 47 19 68 10 20 31 48 45 61 20 19 26 34 26 65 0 23 5 59 11
81 6 21 26 53 44 70 18 16 53 46 78 65 l46 35 0 78 c1 43 8 117 18 165 12 64
23 94 41 115 20 20 35 27 64 27 l38 0 0 48 c0 39 11 72 59 168 33 65 64 139
70 162 5 24 18 54 29 65 11 12 24 31 29 42 6 11 13 51 17 89 4 38 13 94 20
125 7 31 20 70 29 87 9 17 32 45 51 62 23 20 37 43 42 69 4 22 21 54 40 76 19
20 34 46 34 57 0 11 15 37 34 57 22 26 35 52 38 79 3 23 24 73 46 110 36 64
40 76 45 165 3 53 14 134 26 180 11 46 29 122 41 168 11 47 20 117 20 157 0
54 4 77 18 95 10 13 28 45 40 70 13 26 22 65 22 90 0 37 5 50 28 72 15 15 36
27 46 27 16 0 17 6 12 53 -4 28 -9 75 -12 102 -5 42 -2 54 14 68 19 18 19 18
-9 47 -24 23 -29 37 -29 77 0 28 10 73 24 108 13 33 30 75 36 93 7 18 32 50
56 70 42 38 43 39 42 103 0 35 -1 97 -1 137 -2 71 -1 75 31 103 18 16 42 29
55 30 12 0 36 17 55 39 l32 38 -25 31 c-15 16 -29 46 -32 65 -3 21 -19 47 -39
67 -29 28 -34 40 -34 79 0 39 5 51 33 78 18 18 43 32 55 32 19 0 22 5 22 43 0
24 4 47 10 53 6 6 4 31 -5 69 -8 33 -14 95 -15 137 0 55 6 97 22 140 20 60 20
64 5 109 -10 26 -17 69 -17 95 0 27 7 58 15 68 10 13 15 44 15 95 0 52 4 79
15 91 11 12 18 56 24 159 8 128 12 146 35 181 14 21 29 57 32 80 4 22 20 61
35 85 16 25 29 58 29 74 0 15 -7 50 -15 77 -8 27 -15 74 -15 104 -1 40 -7 66
-25 95 -18 29 -25 54 -25 93 0 42 6 61 25 86 22 29 25 43 25 111 0 60 4 85 20
110 l20 32 -31 7 c-17 3 -44 6 -60 6 -16 0 -52 9 -81 20 -29 11 -56 20 -59 20z
m-1069 -3980 c6 0 10 -7 10 -15 0 -8 -4 -15 -10 -15 -5 0 -10 7 -10 15 0 8 5
15 10 15z m-3109 -936 c5 -3 7 -10 3 -15 -3 -5 -10 -7 -15 -3 -5 3 -7 10 -3
15 3 5 10 7 15 3z m-3191 -4244 c35 0 51 -5 67 -22 18 -19 22 -39 25 -124 3
-97 5 -103 45 -170 23 -38 47 -82 54 -99 6 -16 12 -80 13 -140 1 -92 -2 -116
-17 -139 -18 -27 -18 -28 7 -71 14 -24 26 -59 26 -78 0 -21 7 -41 20 -52 16
-14 20 -31 20 -75 0 -39 -5 -62 -15 -70 -10 -9 -15 -31 -15 -73 0 -43 -6 -69
-21 -93 l-21 -34 32 -27 33 -27 -7 -88 c-6 -79 -5 -91 14 -116 13 -18 22 -50
27 -95 l6 -67 41 0 c23 0 51 -7 63 -15 12 -8 31 -30 42 -49 14 -22 21 -50 21
-83 0 -41 -5 -54 -27 -75 -16 -14 -38 -31 -49 -37 -15 -7 -26 -27 -34 -61 -7
-27 -20 -60 -29 -72 -10 -13 -23 -38 -30 -57 -6 -19 -19 -43 -27 -53 -15 -16
-15 -21 1 -65 10 -26 20 -73 22 -103 4 -38 12 -63 29 -83 21 -25 24 -39 24
-111 0 -64 -5 -96 -24 -142 -20 -49 -24 -77 -25 -159 0 -55 2 -135 5 -178 4
-58 2 -88 -10 -118 -9 -23 -16 -69 -16 -109 0 -38 -4 -72 -10 -75 -5 -3 -10
-10 -10 -14 0 -5 14 -26 31 -47 29 -36 31 -43 26 -101 -3 -42 -13 -76 -31
-107 -20 -35 -26 -58 -26 -105 0 -51 -3 -62 -24 -78 -19 -15 -22 -23 -14 -38
7 -11 8 -44 4 -84 -4 -36 -7 -101 -6 -145 1 -65 -3 -87 -24 -130 -14 -28 -47
-76 -74 -106 -27 -30 -54 -65 -61 -77 -9 -18 -9 -23 1 -23 6 0 22 -10 35 -22
18 -17 23 -32 23 -74 0 -29 -4 -56 -10 -59 -5 -3 -21 -30 -35 -60 -14 -29 -46
-72 -71 -95 -25 -23 -50 -56 -56 -74 -6 -17 -20 -41 -30 -53 -11 -12 -33 -27
-49 -33 -27 -12 -29 -16 -29 -67 0 -52 -2 -58 -42 -95 -24 -22 -54 -50 -66
-62 -13 -11 -41 -43 -61 -71 -21 -27 -58 -68 -83 -90 -25 -22 -70 -61 -101
-87 -31 -27 -62 -48 -69 -48 -7 0 -18 -10 -23 -22 -6 -12 -28 -35 -50 -50 -22
-16 -78 -42 -125 -59 -47 -17 -110 -37 -140 -45 -41 -11 -85 -13 -175 -8 -66
3 -147 12 -180 19 -33 7 -82 26 -109 44 -28 17 -57 31 -66 31 -9 0 -25 -9 -35
-20 -15 -17 -31 -20 -98 -20 -69 0 -84 3 -104 22 -16 15 -23 33 -23 59 0 34
-6 42 -71 94 -40 32 -77 72 -84 89 -11 27 -22 35 -62 45 -26 6 -93 13 -148 15
-55 2 -120 7 -145 11 -33 5 -55 16 -81 43 -20 20 -57 49 -82 65 -37 22 -56 27
-110 27 -61 0 -67 2 -91 31 -14 17 -26 35 -26 41 0 5 -11 23 -25 40 -14 16
-25 39 -25 51 0 19 -13 26 -88 49 -48 15 -111 29 -140 31 -38 3 -60 11 -78 28
-25 23 -26 27 -21 117 4 83 2 96 -15 112 -11 10 -33 21 -50 24 -17 3 -45 18
-64 33 -19 16 -50 41 -68 56 -19 15 -40 44 -46 62 -10 29 -16 35 -40 35 -18 0
-42 11 -63 30 -23 20 -38 45 -46 74 -9 38 -16 46 -47 56 -20 7 -52 26 -71 43
-20 18 -44 50 -54 72 -12 26 -19 64 -19 110 0 51 5 78 18 100 l19 30 -44 38
c-41 37 -43 41 -43 96 0 37 6 65 17 81 13 18 17 46 18 111 0 74 3 92 22 117
12 16 24 50 28 76 5 31 22 69 50 109 23 34 54 85 68 114 15 28 32 55 38 58 6
4 23 35 39 69 17 38 48 81 83 115 53 51 57 53 121 58 36 3 66 10 66 14 0 5 17
27 37 50 20 22 58 51 83 64 37 19 49 31 58 62 7 25 32 58 67 92 31 30 65 71
75 92 11 20 31 47 46 58 19 15 41 21 78 21 47 0 55 4 99 46 26 25 47 50 47 56
0 6 20 31 44 57 24 25 64 67 89 94 40 42 49 47 88 47 39 0 48 5 73 36 16 20
45 43 64 51 20 8 54 35 76 60 23 27 61 54 93 68 32 15 53 30 53 40 0 9 11 38
25 65 14 27 25 60 25 74 0 15 13 35 34 54 19 16 52 35 73 42 21 7 47 19 58 26
11 8 29 14 40 14 12 0 34 14 51 31 16 17 70 50 119 73 81 38 100 53 185 143
52 55 105 105 117 112 12 6 46 37 75 67 29 31 68 63 87 71 19 8 43 26 54 39
10 14 60 44 111 68 76 36 100 53 147 107 31 35 62 75 69 89 7 14 37 51 66 82
30 31 54 64 54 73 0 9 21 39 48 67 26 28 64 58 84 68 20 9 57 39 83 68 25 28
61 56 79 63 26 9 41 27 76 93 23 44 57 96 73 114 26 27 38 32 77 32z"/>
</g>
</svg>
