<?xml version="1.0" encoding="UTF-8" standalone="no"?>
<!-- Created with Inkscape (http://www.inkscape.org/) -->

<svg
   xmlns:dc="http://purl.org/dc/elements/1.1/"
   xmlns:cc="http://creativecommons.org/ns#"
   xmlns:rdf="http://www.w3.org/1999/02/22-rdf-syntax-ns#"
   xmlns:svg="http://www.w3.org/2000/svg"
   xmlns="http://www.w3.org/2000/svg"
   xmlns:sodipodi="http://sodipodi.sourceforge.net/DTD/sodipodi-0.dtd"
   xmlns:inkscape="http://www.inkscape.org/namespaces/inkscape"
   width="1300"
   height="560"
   id="svg2"
   version="1.1"
   inkscape:version="0.48.5 r10040"
   sodipodi:docname="Nowy dokument 1">
  <defs
     id="defs4" />
  <sodipodi:namedview
     id="base"
     pagecolor="#ffffff"
     bordercolor="#666666"
     borderopacity="1.0"
     inkscape:pageopacity="0.0"
     inkscape:pageshadow="2"
     inkscape:zoom="0.49497475"
     inkscape:cx="448.34006"
     inkscape:cy="230.66565"
     inkscape:document-units="px"
     inkscape:current-layer="layer1"
     showgrid="false"
     fit-margin-top="0"
     fit-margin-left="0"
     fit-margin-right="0"
     fit-margin-bottom="0"
     inkscape:window-width="1366"
     inkscape:window-height="716"
     inkscape:window-x="-8"
     inkscape:window-y="-8"
     inkscape:window-maximized="1" />
  <metadata
     id="metadata7">
    <rdf:RDF>
      <cc:Work
         rdf:about="">
        <dc:format>image/svg+xml</dc:format>
        <dc:type
           rdf:resource="http://purl.org/dc/dcmitype/StillImage" />
        <dc:title></dc:title>
      </cc:Work>
    </rdf:RDF>
  </metadata>
  <g
     inkscape:label="Layer 1"
     inkscape:groupmode="layer"
     id="layer1"
     transform="translate(-1473.1429,-806.64789)">
    <path
       style="fill:#000000"
       d="m 2000.1658,1323.6964 c 2.5119,-5e-4 17.2157,-2.883 22,-4.3128 2.475,-0.7397 8.0663,-1.8824 12.4252,-2.5394 4.3589,-0.657 8.6339,-1.5704 9.5,-2.0298 2.0097,-1.0661 20.5061,-3.9628 25.3034,-3.9628 2.0026,0 4.8214,-0.4487 6.2639,-0.9972 2.7565,-1.048 23.9165,-3.728 35.3089,-4.472 3.6788,-0.2402 9.6159,-0.9112 13.1937,-1.4911 7.1277,-1.1552 40.7082,-4.4311 62.0049,-6.0488 7.425,-0.564 16.65,-1.4492 20.5,-1.9671 3.85,-0.5179 9.025,-1.2026 11.5,-1.5217 19.3361,-2.4924 39.8091,-6.0065 46.5,-7.9815 4.4,-1.2988 10.3784,-2.8459 13.2853,-3.4381 2.907,-0.5921 8.292,-2.4823 11.9668,-4.2004 3.6747,-1.7181 8.4052,-3.732 10.512,-4.4753 4.1981,-1.4812 17.6036,-12.6754 21.959,-18.3368 16.3799,-21.2916 17.2621,-28.0551 8.0961,-62.07 -2.4536,-9.1051 -7.2451,-22.58 -9.3294,-26.2364 -0.5444,-0.9551 -0.9898,-2.1975 -0.9898,-2.7609 0,-1.0462 -2.6496,-7.3357 -6.1095,-14.5027 -4.4656,-9.2503 -9.0896,-16.9555 -16.512,-27.515 -12.4826,-17.7584 -13.4556,-19.0925 -19.3177,-26.485 -14.6027,-18.4155 -38.4085,-54.4652 -50.0093,-75.7305 -17.1115,-31.36695 -31.1313,-62.46995 -37.5341,-83.26957 -1.5237,-4.95 -3.6334,-11.43259 -4.6882,-14.40576 -1.0547,-2.97317 -1.537,-5.78643 -1.0717,-6.25169 0.4652,-0.46526 7.7739,-1.9985 16.2415,-3.40719 8.4676,-1.40869 15.7711,-2.7933 16.23,-3.07691 0.4589,-0.28362 4.9826,-1.12265 10.0527,-1.86451 20.2893,-2.96879 30.4294,-4.57142 34.7183,-5.48722 2.475,-0.52847 12.15,-2.12783 21.5,-3.55413 9.35,-1.4263 21.05,-3.29411 26,-4.15069 14.8482,-2.56942 17.5889,-2.9885 27.5,-4.20508 5.225,-0.64137 12.1257,-1.62607 15.335,-2.18823 3.2093,-0.56216 11.0843,-1.65369 17.5,-2.42562 6.4157,-0.77193 15.49,-1.91183 20.165,-2.53311 4.675,-0.62127 10.075,-1.27688 12,-1.45689 1.925,-0.18002 8.45,-1.00299 14.5,-1.82882 6.05,-0.82583 14.15,-1.78309 18,-2.12724 3.85,-0.34415 10.375,-1.07845 14.5,-1.63177 4.125,-0.55333 14.25,-1.36759 22.5,-1.80946 12.9357,-0.69284 15.2487,-0.58861 16.8074,0.7574 1.4053,1.21355 3.7391,1.49404 10.4898,1.26073 9.78,-0.33802 10.6382,-0.66739 17.9528,-6.89031 3.61,-3.07117 5.25,-5.20947 5.25,-6.84497 0,-1.30819 0.3603,-2.37853 0.8007,-2.37853 0.4404,0 1.8071,-2.07132 3.037,-4.60294 1.7728,-3.64893 1.9882,-4.90192 1.0391,-6.04551 -0.6585,-0.79341 -1.901,-1.17251 -2.7611,-0.84245 -0.8602,0.33007 -12.3756,0.7809 -25.5898,1.00186 -13.2142,0.22096 -28.3009,0.81883 -33.5259,1.3286 -5.225,0.50976 -9.8572,0.71567 -10.2938,0.45755 -0.4366,-0.25811 -1.3419,-0.0144 -2.0117,0.5415 -0.6699,0.55593 -6.0884,1.27428 -12.0411,1.59634 -5.9528,0.32205 -11.7975,1.12959 -12.9883,1.79454 -1.1908,0.66494 -5.0901,1.49624 -8.6651,1.84733 -3.575,0.3511 -10.0643,1.18707 -14.4207,1.85772 -10.6962,1.64666 -24.9851,3.03289 -31.0793,3.01515 -2.75,-0.008 -8.6,0.94602 -13,2.12006 -4.4,1.17404 -9.575,2.28889 -11.5,2.47745 -1.925,0.18856 -10.25,1.03951 -18.5,1.891 -8.25,0.85148 -17.25,1.7407 -20,1.97604 -21.2226,1.81614 -39.6144,4.47463 -53.5293,7.73754 -4.6911,1.10002 -10.9911,2.15848 -14,2.35214 -8.7385,0.56241 -22.7882,2.26523 -23.7879,2.88309 -0.5044,0.31175 -4.8327,0.81802 -9.6185,1.12504 -4.7857,0.30701 -10.7608,1.25739 -13.2778,2.11195 -2.517,0.85455 -5.7486,1.32966 -7.1812,1.0558 -1.4326,-0.27387 -4.1399,0.14346 -6.0161,0.9274 -1.8762,0.78393 -4.1583,1.18827 -5.0712,0.89852 -1.5663,-0.49715 -8.1845,0.36154 -19.518,2.53241 -2.75,0.52675 -7.4597,1.19313 -10.4659,1.48086 -3.0063,0.28772 -9.3063,1.38459 -14,2.43749 -4.6938,1.05289 -10.5591,2.18032 -13.0341,2.5054 -2.475,0.32508 -9,1.74926 -14.5,3.16485 -5.5,1.41559 -11.8,2.79977 -14,3.07596 -2.2,0.27619 -4.4275,0.90607 -4.95,1.39974 -0.5225,0.49366 -1.9638,0.89757 -3.2029,0.89757 -1.2392,0 -3.2867,0.39952 -4.5501,0.88782 -1.2633,0.48829 -6.347,2.09277 -11.297,3.56549 -18.9946,5.65127 -23.3165,7.52258 -26.3204,11.39626 -4.7223,6.08953 -7.4953,14.32938 -6.9669,20.70135 0.5135,6.19303 1.893,8.4362 4.0744,6.62575 2.5397,-2.10777 19.4952,-7.33067 39.7129,-12.23302 4.675,-1.13358 9.4,-2.44829 10.5,-2.92156 1.1,-0.47328 7.175,-2.03932 13.5,-3.48009 6.325,-1.44077 13.75,-3.24971 16.5,-4.01987 2.75,-0.77015 6.8,-1.6937 9,-2.05234 2.2,-0.35864 8.5,-1.56496 14,-2.68071 13.4434,-2.72719 22.773,-3.92154 23.6376,-3.02602 0.3914,0.40532 0.3151,2.76194 -0.1695,5.23694 -1.1846,6.05075 -1.1802,11.651 0.011,13.76357 0.5385,0.95504 3.0405,8.26143 5.5599,16.23643 2.5195,7.97502 5.004,15.28142 5.521,16.23642 0.5171,0.955 0.9418,2.53 0.9438,3.5 0,0.97 0.825,3.1136 1.8286,4.7636 1.0037,1.65 2.1132,4.4498 2.4656,6.2217 0.3525,1.772 2.2943,6.947 4.3152,11.5 2.021,4.55305 4.5719,10.30335 5.6688,12.77835 7.3,16.4717 14.3936,29.6937 17.831,33.2358 2.1379,2.2029 3.8871,4.4057 3.8871,4.895 0,0.4893 1.4847,3.0226 3.2992,5.6294 1.8146,2.6069 5.7329,8.3398 8.7073,12.7398 2.9745,4.4 7.4523,10.3158 9.9508,13.1463 6.2884,7.1239 6.3753,7.2359 15.2998,19.7235 4.3749,6.1216 9.6351,12.9302 11.6893,15.1302 2.0541,2.2 5.9005,7.15 8.5474,11 14.1124,20.527 17.5062,25.624 17.5062,26.2921 0,0.404 1.5663,3.0604 3.4807,5.9031 1.9144,2.8427 4.6484,7.7867 6.0756,10.9866 1.4272,3.2 3.2191,7.1682 3.982,8.8182 2.3733,5.133 8.447,21.9286 8.4546,23.379 0,0.7585 1.1773,4.5835 2.6077,8.5 2.2637,6.1987 2.526,8.1345 2.0255,14.9463 -0.6565,8.9323 -1.7001,10.6293 -11.3702,18.4891 -7.2835,5.9199 -9.3325,7.0909 -21.7559,12.4331 -4.4,1.8921 -11.6,4.2232 -16,5.1803 -4.4,0.9571 -9.1924,2.1883 -10.6498,2.736 -1.4574,0.5477 -3.4824,0.8926 -4.5,0.7665 -1.0176,-0.1261 -3.5233,0.513 -5.5681,1.4202 -2.0448,0.9072 -5.2173,1.6495 -7.05,1.6495 -1.8326,0 -3.7596,0.4085 -4.2821,0.9078 -0.5225,0.4993 -3.2,1.117 -5.95,1.3726 -2.75,0.2557 -9.05,0.9583 -14,1.5615 -4.95,0.6031 -11.025,1.3058 -13.5,1.5614 -2.475,0.2556 -8.775,0.9548 -14,1.5538 -5.225,0.5989 -12.65,1.3236 -16.5,1.6104 -3.85,0.2867 -7.675,0.7583 -8.5,1.0479 -2.0714,0.727 -15.8387,2.5747 -19.5,2.617 -1.65,0.019 -6.375,0.4217 -10.5,0.8947 -4.125,0.4731 -10.2,0.9409 -13.5,1.0395 -3.3,0.099 -6.4923,0.5484 -7.094,0.9993 -0.6017,0.451 -6.0017,0.9832 -12,1.1828 -5.9983,0.1995 -12.1728,0.8776 -13.7211,1.507 -1.5483,0.6294 -4.3315,1.1443 -6.1849,1.1443 -1.8534,0 -4.4434,0.4081 -5.7555,0.907 -1.3121,0.4989 -5.43,1.1712 -9.151,1.4941 -3.7209,0.3229 -7.2721,0.9002 -7.8915,1.2831 -0.6194,0.3828 -2.6514,0.5933 -4.5156,0.4677 -1.8642,-0.1255 -3.9063,0.181 -4.538,0.6811 -0.6316,0.5001 -3.3984,1.3941 -6.1484,1.9867 -2.75,0.5925 -7.25,1.5744 -10,2.1819 -2.75,0.6075 -9.05,1.7783 -14,2.6019 -4.95,0.8235 -9.675,1.7698 -10.5,2.1029 -0.825,0.3331 -2.85,0.7215 -4.5,0.8631 -1.65,0.1416 -5.925,0.9621 -9.5,1.8232 -8.1277,1.9577 -13.8744,2.0269 -15.9213,0.1919 -2.6686,-2.3925 -8.4876,-3.0017 -10.1012,-1.0575 -3.1743,3.8248 -0.5508,12.7673 5.3805,18.3395 2.9383,2.7604 10.1032,3.9975 19.642,3.3914 3.575,-0.2271 7.175,-0.4131 8,-0.4132 z m -455.5,-59.0561 c 1.1,-0.01 3.3779,-0.424 5.0619,-0.9192 1.6841,-0.4953 8.2091,-1.3565 14.5,-1.9139 6.291,-0.5574 14.1381,-1.4202 17.4381,-1.9174 3.3,-0.4972 12.75,-1.6259 21,-2.5082 8.25,-0.8824 16.35,-2.0887 18,-2.6806 1.65,-0.5919 6.15,-1.4049 10,-1.8066 3.85,-0.4017 9.25,-1.2963 12,-1.988 10.8647,-2.7327 13.0933,-3.3154 15.5,-4.0527 1.375,-0.4213 5.2,-1.5329 8.5,-2.4701 3.3,-0.9373 7.35,-2.1479 9,-2.6902 1.65,-0.5423 6.15,-1.8642 10,-2.9375 3.85,-1.0733 7.9,-2.331 9,-2.7948 1.1,-0.4638 3.8,-1.304 6,-1.8672 12.1176,-3.1019 30.0996,-8.808 40.1855,-12.7516 6.3167,-2.4699 11.9468,-4.4907 12.5114,-4.4907 1.4626,0 19.5363,-6.6394 24.3031,-8.9278 2.2,-1.0561 5.125,-2.2231 6.5,-2.5932 1.375,-0.3702 6.55,-2.488 11.5,-4.7062 4.95,-2.2183 10.575,-4.7014 12.5,-5.518 1.925,-0.8166 5.525,-2.5362 8,-3.8213 5.9764,-3.103 13.269,-6.564 20,-9.4916 5.6214,-2.445 18.3823,-10.3178 30,-18.5082 14.8431,-10.4644 20.2155,-14.088 25.1059,-16.9337 10.3207,-6.0056 27.967,-23.1078 33.7918,-32.75 1.7792,-2.9451 2.8855,-3.75 5.1542,-3.75 6.744,0 20.086,-8.9765 23.0382,-15.5 0.4978,-1.1 1.3608,-2.675 1.9178,-3.5 0.5569,-0.825 2.1273,-4.0875 3.4898,-7.25 1.3624,-3.1625 2.9021,-5.75 3.4215,-5.75 0.5194,0 1.6897,3.4875 2.6007,7.75 2.7985,13.0942 6.0436,21.0471 10.6571,26.1176 5.5548,6.105 6.241,6.4467 11.3941,5.674 4.3619,-0.6541 4.4384,-0.6131 11.4773,6.1499 7.0672,6.7903 8.5543,7.8081 18.9516,12.971 7.4599,3.7043 12.9034,3.3814 26.2088,-1.5545 5.7386,-2.1288 11.9766,-4.1931 13.8625,-4.5873 6.837,-1.4292 11.3283,-4.397 13.1533,-8.6913 l 1.7246,-4.0582 -5.2771,-5.4914 c -5.2071,-5.4186 -5.3522,-5.4905 -10.9459,-5.4237 -3.6369,0.043 -7.3816,0.8644 -10.4475,2.2903 -3.4869,1.6217 -6.6709,2.2269 -11.7787,2.2386 -8.6244,0.02 -11.64,-1.6969 -23.6515,-13.4652 -12.4495,-12.1976 -15.0109,-13.4554 -20.7241,-10.1764 -2.0627,1.1838 -3.3647,1.4163 -4.0566,0.7244 -3.2985,-3.2985 -5.9712,-22.6654 -11.1665,-80.9141 -3.6875,-41.34445 -5.7408,-51.55377 -10.3682,-51.55377 -1.763,0 -5.5027,5.57662 -6.197,9.24082 -0.3396,1.7926 -1.0335,3.7906 -1.5419,4.4401 -1.6408,2.096 -2.0554,11.632 -0.8403,19.3257 1.5022,9.5122 4.9928,65.45965 4.2634,68.33605 -1.3001,5.1276 -8.519,14.7132 -14.0183,18.6145 -6.9532,4.9327 -8.7182,4.1949 -7.0745,-2.9571 0.5688,-2.475 0.857,-7.65 0.6403,-11.5 -0.5626,-9.9998 -4.2204,-17.0557 -14.5148,-27.9998 -3.4375,-3.6544 -6.25,-7.2262 -6.25,-7.9374 0,-2.6842 -4.2657,-6.5798 -8.5836,-7.8388 -7.4397,-2.1693 -30.772,-25.35765 -47.6837,-47.38965 -2.603,-3.391 -4.7327,-6.4653 -4.7327,-6.8317 0,-0.3664 -1.5296,-2.5419 -3.3991,-4.8344 -4.1765,-5.12152 -12.6009,-17.64225 -12.6009,-18.72793 0,-0.43713 -1.6742,-2.17479 -3.7204,-3.86146 -3.2276,-2.66049 -3.5257,-3.24607 -2.25,-4.42104 1.5573,-1.43441 9.9481,-4.13843 16.2314,-5.23077 2.0686,-0.35962 4.0077,-1.05283 4.3091,-1.54048 0.3013,-0.48765 1.8858,-0.88664 3.521,-0.88664 1.6352,0 4.4287,-0.60816 6.2076,-1.35146 1.779,-0.7433 5.4711,-1.68685 8.2047,-2.09678 2.7336,-0.40994 6.1012,-1.32916 7.4834,-2.04273 2.2415,-1.15713 15.1946,-4.24209 34.0132,-8.10072 3.575,-0.73303 7.85,-1.61361 9.5,-1.95684 1.65,-0.34324 5.025,-1.20901 7.5,-1.92395 2.475,-0.71493 6.975,-1.80251 10,-2.41684 16.6456,-3.38045 21.7412,-4.40131 24,-4.80813 1.375,-0.24765 7.9,-1.5018 14.5,-2.78699 6.6,-1.2852 17.175,-3.08523 23.5,-4.00006 6.325,-0.91484 13.75,-2.12064 16.5,-2.67956 7.8639,-1.59829 32.7389,-4.93617 47.75,-6.40738 4.4626,-0.43737 6.75,-1.09413 6.75,-1.93807 0,-1.80479 -2.9983,-2.7368 -4.5803,-1.4238 -0.9875,0.81948 -2.0955,0.6472 -4.3311,-0.67344 -2.9146,-1.72169 -3.1472,-1.70953 -7.7964,0.40736 -4.5797,2.08522 -8.6013,2.36246 -11.1771,0.77052 -0.6566,-0.40579 -3.2011,-0.7378 -5.6544,-0.7378 -3.1818,0 -4.4607,-0.40617 -4.4607,-1.41666 0,-2.36172 -3.8428,-1.58622 -5.6261,1.13536 -2.4834,3.79024 -6.1587,2.98002 -8.6902,-1.91576 l -1.9978,-3.86374 -6.593,0.64259 c -3.6261,0.35343 -10.3159,0.85736 -14.8663,1.11985 -4.5503,0.26249 -9.0503,0.88719 -10,1.38823 -1.8976,1.00122 -10.3779,2.39108 -25.7266,4.21641 -5.5,0.65409 -10.45,1.51461 -11,1.91227 -0.55,0.39766 -7.2767,1.26336 -14.9482,1.92377 -8.9807,0.77312 -15.8881,1.92654 -19.3951,3.23866 -5.4554,2.04114 -12.8576,3.46304 -23.1567,4.44822 -3.025,0.28936 -6.175,1.0989 -7,1.79897 -0.825,0.70007 -2.175,1.30493 -3,1.34413 -0.825,0.0392 -3.3,0.59766 -5.5,1.24101 -2.2,0.64336 -6.925,1.47239 -10.5,1.84231 -3.575,0.36991 -7.4829,1.22123 -8.6843,1.89181 -1.2013,0.67058 -3.6887,1.21924 -5.5275,1.21924 -1.8387,0 -4.2429,0.6302 -5.3426,1.40043 -1.2725,0.8913 -4.171,1.32647 -7.9725,1.19697 -3.2852,-0.11191 -6.8394,0.2159 -7.8982,0.72846 -4.0783,1.97426 -15.3182,3.72226 -17.8195,2.77124 -1.3586,-0.51653 -4.4468,-3.68788 -6.8628,-7.04745 -15.9172,-22.13417 -39.6857,-51.16607 -42.4509,-51.85138 -1.7477,-0.43314 -3.7653,8.92696 -2.9563,13.71519 0.369,2.18427 1.3812,4.55981 2.2492,5.27897 1.4747,1.22175 13.9319,17.23492 17.2654,22.19391 0.825,1.22728 3.0959,4.22993 5.0464,6.67254 5.0434,6.31597 8.9536,12.34081 8.9536,13.7959 0,0.686 -1.6875,1.91344 -3.75,2.72764 -2.0625,0.8142 -4.875,2.09997 -6.25,2.85726 -1.375,0.7573 -5.425,2.1334 -9,3.05801 -3.575,0.92461 -6.95,2.02488 -7.5,2.44505 -0.55,0.42016 -4.6,1.34571 -9,2.05677 -4.4,0.71106 -8.7859,1.69204 -9.7465,2.17996 -0.9606,0.48792 -4.3146,1.36187 -7.4534,1.94211 -3.1388,0.58024 -8.2029,2.30726 -11.2535,3.83782 -6.1549,3.08802 -15.5643,6.0406 -19.2505,6.0406 -1.3179,0 -2.8236,0.38694 -3.3461,0.85987 -0.5225,0.47293 -6.575,3.03588 -13.45,5.69545 -6.875,2.65957 -13.175,5.33135 -14,5.93728 -0.825,0.60592 -3.975,2.07519 -7,3.26502 -8.1106,3.1902 -9.7352,3.8492 -18.3809,7.4568 l -7.8809,3.2884 -3.3362,9.4803 c -2.9776,8.4609 -3.2798,10.2822 -2.8107,16.9386 0.289,4.102 0.7303,7.7896 0.9806,8.1946 0.7428,1.20195 5.8232,-0.6643 17.8522,-6.5579 6.2398,-3.0571 11.6065,-5.5584 11.9261,-5.5584 0.3196,0 4.5584,-1.9503 9.4197,-4.334 4.8612,-2.3836 10.1642,-4.8267 11.7843,-5.429 1.6202,-0.6024 8.5708,-3.4081 15.4458,-6.2349 6.875,-2.8269 16.325,-6.4174 21,-7.9791 4.675,-1.5616 16.375,-5.5937 26,-8.96017 9.625,-3.36647 19.075,-6.51112 21,-6.98811 1.925,-0.47699 10.25,-2.95547 18.5,-5.50774 l 15,-4.64048 2,2.51025 c 5.2917,6.64177 6.2849,8.19288 22.0121,34.37805 1.9977,3.3261 11.6843,18.0877 17.1828,26.1852 2.5653,3.77785 27.5731,29.25915 37.9816,38.70055 9.7732,8.8653 9.7621,8.8456 12.8603,22.7995 0.9769,4.4 2.8308,11.8055 4.1197,16.4567 1.2889,4.6513 2.3435,9.4609 2.3435,10.6882 0,2.4431 -12.7351,14.2996 -24.0117,22.3551 -7.9797,5.7003 -23.3644,16.3611 -28.1542,19.5094 -2.0163,1.3252 -3.9554,2.8778 -4.3091,3.4501 -0.3537,0.5722 -1.3215,1.0405 -2.1507,1.0405 -0.8293,0 -3.076,1.1962 -4.9928,2.6581 -4.3025,3.2817 -16.8857,10.5007 -21.477,12.3213 -1.8725,0.7425 -4.0795,1.8604 -4.9045,2.4842 -0.825,0.6239 -3.975,2.1688 -7,3.4333 -3.025,1.2644 -10.9,4.9586 -17.5,8.2094 -6.6,3.2508 -12.5433,5.9068 -13.2073,5.9021 -0.664,0 -5.164,1.7261 -10,3.8462 -4.836,2.12 -11.0427,4.6512 -13.7927,5.6249 -9.5763,3.3908 -11.1061,4.0323 -13.7596,5.771 -1.4685,0.9622 -3.302,1.7495 -4.0743,1.7495 -0.7724,0 -4.7257,1.1436 -8.7852,2.5413 -4.0595,1.3978 -8.3245,2.7006 -9.4778,2.8952 -1.1533,0.1945 -3.6282,1.146 -5.5,2.1144 -1.8717,0.9683 -5.4281,2.3195 -7.9031,3.0025 -3.9426,1.0881 -9.9721,3.0874 -16.5,5.4712 -1.1,0.4017 -4.475,1.2935 -7.5,1.9817 -3.025,0.6883 -5.95,1.5623 -6.5,1.9424 -0.55,0.3801 -3.025,1.2686 -5.5,1.9746 -2.475,0.7059 -6.3163,1.9125 -8.5363,2.6812 -8.2654,2.8621 -31.6958,8.9997 -39.4637,10.3375 -3.025,0.5209 -14.275,2.8151 -25,5.0981 -19.7464,4.2034 -24.3182,4.9672 -40.5,6.7665 -4.95,0.5504 -12.6072,1.5304 -17.0159,2.1779 -4.4088,0.6474 -9.5838,1.0282 -11.5,0.8463 -3.393,-0.3222 -3.4921,-0.4551 -3.7889,-5.0808 -0.4077,-6.3538 -2.4464,-6.281 -9.9346,0.3549 -8.6073,7.6275 -9.2667,8.5614 -8.6209,12.2092 0.9744,5.5038 4.3018,13.7426 6.9552,17.2214 3.0322,3.9754 5.0032,4.4142 16.9051,3.7638 4.95,-0.2705 9.9,-0.5003 11,-0.5106 z m 791,-148.7887 c 4.4,-1.087 10.925,-1.9921 14.5,-2.0112 3.575,-0.019 12.35,-0.9277 19.5,-2.019 7.15,-1.0913 22,-2.4365 33,-2.9894 11,-0.5528 20.675,-1.1968 21.5,-1.4311 0.825,-0.2342 8.7,-0.6956 17.5,-1.0252 8.8,-0.3295 19.15,-0.7979 23,-1.0407 3.85,-0.2428 19.6,-0.926 35,-1.5181 15.4,-0.5921 30.25,-1.2586 33,-1.481 2.75,-0.2225 10.85,-0.6497 18,-0.9495 7.15,-0.2997 21.325,-1 31.5,-1.556 10.175,-0.5561 26.375,-1.2284 36,-1.4942 9.625,-0.2657 19.975,-0.6951 23,-0.9541 3.025,-0.2591 14.5,-0.9619 25.5,-1.5618 11,-0.6 26.9341,-1.7593 35.4092,-2.5762 13.3804,-1.2897 16.2437,-1.8878 21.7479,-4.5424 5.5473,-2.6754 9.7996,-6.5382 12.6884,-11.5261 0.8465,-1.4617 -2.009,-10.2089 -4.1048,-12.574 -1.9661,-2.2188 -2.7387,-2.1974 -4.9517,0.1373 -1.9513,2.0586 -6.5695,2.8607 -20.789,3.6107 -4.95,0.261 -12.15,0.6924 -16,0.9585 -6.5158,0.4504 -18.0664,0.773 -75,2.0944 -12.1,0.2808 -25.15,0.7187 -29,0.973 -3.85,0.2543 -13.3,0.6761 -21,0.9371 -23.0675,0.7822 -39.4752,1.493 -49,2.1228 -4.95,0.3273 -16.2,0.7562 -25,0.9532 -8.8,0.1969 -19.15,0.6114 -23,0.9211 -3.85,0.3097 -18.025,1.2566 -31.5,2.1042 -13.475,0.8476 -27.2,1.9548 -30.5,2.4605 -3.3,0.5056 -10.5,1.1757 -16,1.489 -5.5,0.3133 -12.7,0.9979 -16,1.5214 -3.3,0.5234 -8.475,0.9557 -11.5,0.9606 -5.3934,0.01 -14.7615,1.4599 -28.3093,4.3851 -10.4749,2.2618 -21.2496,11.3035 -16.7695,14.0724 0.5067,0.3132 1.708,2.7022 2.6695,5.309 1.8987,5.1476 4.0885,8.2465 5.8143,8.2279 0.6022,-0.01 4.695,-0.9012 9.095,-1.9882 z m -209.7085,-11.0294 c 8.9271,-4.4236 21.8193,-15.4795 24.6371,-21.128 4.6792,-9.3795 6.8724,-27.3583 4.9824,-40.8426 -1.4736,-10.514 -2.8374,-8.5147 -6.4806,9.5 -0.6674,3.3 -2.753,9.2862 -4.6348,13.3026 -2.9894,6.3807 -4.1394,7.762 -9.1085,10.9409 -8.1138,5.1907 -13.7432,7.0853 -20.1118,6.7688 -6.8522,-0.3405 -8.0753,-1.8647 -8.0753,-10.0633 0,-8.1384 2.7531,-34.875 4.1136,-39.949 1.9192,-7.1578 2.1324,-10.4919 0.8664,-13.5484 -1.3128,-3.1692 -5.7953,-6.9516 -8.2383,-6.9516 -2.6418,0 -6.5893,4.7134 -7.6537,9.1387 -0.577,2.3987 -1.9306,7.0613 -3.008,10.3613 -5.5879,17.1148 -7.1862,57.1301 -2.7097,67.8438 0.7392,1.7691 2.8533,4.726 4.6981,6.5707 l 3.3541,3.3541 9.4799,-0.5656 c 8.5253,-0.5086 10.3268,-0.9852 17.8891,-4.7324 z"
       id="path3031"
       inkscape:connector-curvature="0"
       sodipodi:nodetypes="ccscscccsscscscsscssscscccscsssssssssssssssssscccssccssssssssssssssssssssssssscssssssssssccscccccsscsscsscssscscccssssssssccsccccccccssssccccscsssccscccccsscsssccssscsscccscssscssccssssssscccscscscsssccccsscssscsssscscscscssssssssssccscsscscsscssssssssscscsscssccsssssssssssssssssccccssscccssscssssssssccscsccsccscsccccscscccssccssssscscssccssccsccsssccscssscscsscsccscscsccsscsssscscssccsc" />
  </g>
</svg>
