<?xml version="1.0" encoding="UTF-8" standalone="no"?>
<!-- Created with Inkscape (http://www.inkscape.org/) -->

<svg
   xmlns:dc="http://purl.org/dc/elements/1.1/"
   xmlns:cc="http://creativecommons.org/ns#"
   xmlns:rdf="http://www.w3.org/1999/02/22-rdf-syntax-ns#"
   xmlns:svg="http://www.w3.org/2000/svg"
   xmlns="http://www.w3.org/2000/svg"
   xmlns:sodipodi="http://sodipodi.sourceforge.net/DTD/sodipodi-0.dtd"
   xmlns:inkscape="http://www.inkscape.org/namespaces/inkscape"
   width="200"
   height="84"
   id="svg5193"
   version="1.1"
   inkscape:version="0.48.4 r9939"
   sodipodi:docname="Nouveau document 2">
  <defs
     id="defs5195" />
  <sodipodi:namedview
     id="base"
     pagecolor="#ffffff"
     bordercolor="#666666"
     borderopacity="1.0"
     inkscape:pageopacity="0.0"
     inkscape:pageshadow="2"
     inkscape:zoom="3.959798"
     inkscape:cx="191.96032"
     inkscape:cy="26.434756"
     inkscape:document-units="px"
     inkscape:current-layer="layer1"
     showgrid="false"
     inkscape:window-width="1680"
     inkscape:window-height="998"
     inkscape:window-x="-8"
     inkscape:window-y="-8"
     inkscape:window-maximized="1" />
  <metadata
     id="metadata5198">
    <rdf:RDF>
      <cc:Work
         rdf:about="">
        <dc:format>image/svg+xml</dc:format>
        <dc:type
           rdf:resource="http://purl.org/dc/dcmitype/StillImage" />
        <dc:title></dc:title>
      </cc:Work>
    </rdf:RDF>
  </metadata>
  <g
     inkscape:label="Calque 1"
     inkscape:groupmode="layer"
     id="layer1"
     transform="translate(0,-968.36218)">
    <path
       style="fill:#000000"
       d="m 54.051056,1050.1278 c -0.94657,-1.5316 24.61447,-16.9769 40.40054,-24.4122 20.315414,-9.5685 25.604384,-11.7364 39.500004,-16.1909 23.61558,-7.5703 34.75808,-11.25994 38,-12.58278 1.65,-0.67327 3.9,-1.57093 5,-1.99481 17.58652,-6.77686 20.39638,-11.69397 6.10549,-10.68428 -4.45802,0.31497 -13.67676,1.72722 -20.48609,3.13833 -14.4454,2.99356 -20.1194,3.28974 -20.1194,1.05026 0,-1.9926 -10.48655,-1.74551 -13.75501,0.3241 -1.75091,1.10869 -2.57337,1.16366 -3.6792,0.2459 -1.10728,-0.91896 -2.49696,-0.81167 -6.245,0.48213 -2.65143,0.91526 -5.9029,1.67518 -7.22549,1.68869 -1.32258,0.0135 -3.93873,0.92968 -5.81366,2.03592 -4.23849,2.50077 -6.290131,1.24748 -4.47595,-2.73421 0.63329,-1.38992 0.99596,-2.52713 0.80593,-2.52713 -0.64987,0 -9.333744,13.49388 -11.051364,17.17268 -0.9431,2.02 -2.35498,3.9183 -3.1375,4.2186 -2.29331,0.88 -1.73597,-3.9772 1.10549,-9.63447 1.39054,-2.7685 2.38569,-5.1762 2.21144,-5.35046 -0.17425,-0.17425 -2.54947,0.72872 -5.27826,2.0066 -5.84307,2.73629 -11.15386,3.89373 -11.95063,2.60453 -0.31171,-0.50436 -2.08957,-0.0185 -3.95079,1.0797 -3.35636,1.9803 -5.53131,1.2835 -3.95498,-1.26712 0.49297,-0.79765 0.16751,-0.95675 -1.02277,-0.5 -0.96021,0.36847 -2.09805,0.66994 -2.52854,0.66994 -0.43049,0 -2.30618,1.33248 -4.16821,2.96108 -3.99977,3.4983 -7.66327,5.5945 -8.43267,4.8251 -2.05166,-2.0516 7.3651,-15.45376 10.11648,-14.39795 0.7158,0.27468 1.49929,-0.0378 1.74107,-0.69441 0.34022,-0.92391 0.72757,-0.92282 1.71326,0.005 1.02783,0.9673 0.95297,1.68809 -0.38784,3.73441 l -1.66149,2.53576 2.76284,-1.18622 c 1.51956,-0.65242 3.69439,-2.28489 4.83296,-3.6277 1.13857,-1.34282 2.63424,-2.25345 3.3237,-2.02363 0.81402,0.27134 0.17581,1.54564 -1.82012,3.6342 -1.69053,1.76901 -3.0737,3.69589 -3.0737,4.28199 0,1.60815 5.80115,-2.10104 9.06723,-5.79743 3.97635,-4.50022 5.78341,-4.10533 2.03322,0.44431 -1.67484,2.03187 -2.92411,3.81537 -2.77615,3.96333 0.28725,0.28724 6.73672,-1.67556 12.96607,-3.94604 3.06343,-1.11656 4.54774,-2.67756 7.73932,-8.13916 2.17191,-3.7167 5.390544,-8.62847 7.152514,-10.91504 1.76197,-2.28657 3.34178,-4.3449 3.51069,-4.57407 0.16891,-0.22916 0.5881,-0.13567 0.93154,0.20777 0.53829,0.53828 -0.59897,2.23558 -5.6395,8.41669 -0.54171,0.66429 -0.98493,1.52886 -0.98493,1.92126 0,0.39241 -0.62997,1.4239 -1.39993,2.29221 -1.895844,2.13801 -10.214044,17.96502 -11.078394,21.07882 -0.38169,1.375 1.32501,-0.875 3.79266,-5.00008 4.51933,-7.55485 14.685664,-19.40904 14.685664,-17.12404 0,0.67647 -1.125,2.88553 -2.5,4.90903 -6.511524,9.58257 0.577,7.38117 8.4812,-2.63391 3.07057,-3.89058 4.5213,-5.04878 5.32158,-4.2485 0.80027,0.80027 0.0911,2.13359 -2.60129,4.89087 -2.03582,2.08487 -3.70149,4.05335 -3.70149,4.3744 0,0.32104 3.02836,-0.51551 6.72968,-1.85902 4.95148,-1.79729 8.23478,-3.87836 12.42576,-7.87589 3.87416,-3.69531 6.51947,-5.43314 8.27032,-5.43314 3.79098,0 3.25811,2.65912 -1.42576,7.11478 -2.2,2.09281 -4,4.00601 -4,4.25154 0,1.53939 5.13057,-1.38778 8.83709,-5.04187 4.04659,-3.98934 7.16291,-5.5086 7.16291,-3.49204 0,0.45782 -1.9125,2.54422 -4.25,4.63644 -2.3375,2.09223 -3.35,3.46884 -2.25,3.05915 1.1,-0.4097 3.44624,-1.16276 5.21387,-1.67348 1.76762,-0.51071 3.48168,-1.36191 3.80901,-1.89155 0.32734,-0.52963 1.49515,-0.96297 2.59515,-0.96297 3.0972,0 1.30183,1.74278 -4.73969,4.60088 -3.02831,1.43262 -5.31004,2.80075 -5.0705,3.04029 0.23954,0.23954 4.65577,-0.23956 9.81384,-1.06468 5.15808,-0.82511 13.65332,-2.18918 18.87832,-3.03127 14.85356,-2.39389 20,-2.00203 20,1.52281 0,5.05222 -12.50979,11.12352 -43,20.86895 -12.375,3.9554 -23.18977,7.5554 -24.03282,8.0001 -0.84306,0.4448 -2.98333,1.1272 -4.75616,1.5166 -1.77283,0.3894 -8.50806,3.0831 -14.96718,5.986 -6.45911,2.903 -13.093844,5.8847 -14.743844,6.626 -6.46721,2.9058 -30.64416,16.9344 -29.18479,16.9344 0.41395,0 6.02487,-2.6928 12.46871,-5.9838 26.923584,-13.7508 34.041134,-16.8859 53.716084,-23.6603 28.42511,-9.7873 58.20081,-15.44034 65.75,-12.4828 4.58031,1.7944 3.14021,7.599 -3.41468,13.7636 -3.86899,3.6385 -17.63944,11.5952 -19.17933,11.0819 -0.57535,-0.1918 1.62919,-1.853 4.89896,-3.6916 7.78537,-4.3778 14.20789,-9.5908 16.55177,-13.4345 1.03719,-1.7009 1.88749,-3.3716 1.88954,-3.7126 0.002,-0.341 -1.9866,-1.1773 -4.41924,-1.8584 -11.22859,-3.1438 -53.87573,7.35 -84.07702,20.6881 -5.5,2.4291 -18.775004,8.8291 -29.500004,14.2223 -21.08094,10.6009 -23.53491,11.6296 -24.40054,10.229 z m 4.55548,-53.2756 0.69005,-3.38538 -3.89266,4.5 c -4.86124,5.61978 -5.2611,8.26568 -0.71988,4.76358 2.01997,-1.5578 3.49128,-3.76266 3.92249,-5.8782 z m 2.87803,-1.38538 c 1.35701,-1.85001 1.33579,-1.89707 -0.28297,-0.62755 -0.9625,0.75484 -1.75,1.84234 -1.75,2.41666 0,0.57432 0.12734,0.85672 0.28297,0.62756 0.15563,-0.22917 0.94313,-1.31667 1.75,-2.41667 z m 68.967034,-10.07715 2.5,-1.50628 -2.5,0.65411 c -1.375,0.35976 -2.9275,1.05353 -3.45,1.54172 -1.52746,1.42714 0.66379,0.98917 3.45,-0.68955 z m 3.13922,-4.38958 c 3.10663,-2.58808 1.4198,-2.61815 -1.86635,-0.0333 -1.39842,1.1 -2.08175,2 -1.51851,2 0.56324,0 2.08642,-0.88503 3.38486,-1.96673 z m 5.9311,-3.16466 c 0.98284,-1.83647 0.89248,-1.91907 -0.99463,-0.90912 -1.14163,0.61098 -2.07569,1.7966 -2.07569,2.63471 0,1.88735 1.62572,0.97366 3.07032,-1.72559 z M 29.451596,1026.2989 c 0,-0.2701 2.025,-4.5663 4.5,-9.5472 2.475,-4.9809 4.5,-9.8686 4.5,-10.8615 0,-2.4442 -1.76168,-3.366 -3.56797,-1.8669 -0.8142,0.6757 -1.68961,1.0193 -1.94536,0.7636 -0.25575,-0.2558 1.72586,-2.3386 4.40358,-4.6285 7.34206,-6.27885 10.44683,-14.31504 6.06758,-15.70496 -1.1232,-0.35649 -3.73569,-0.36205 -5.80555,-0.0123 -3.64758,0.61625 -3.81515,0.83017 -5.44669,6.95312 -2.07925,7.80317 -13.81321,29.54624 -15.95559,29.56584 -1.66045,0.015 -0.58641,-2.9568 2.11285,-5.8464 5.54594,-5.9369 15.35921,-28.14684 12.43646,-28.14684 -3.08389,0 -9.02313,11.87618 -6.96734,13.93204 1.7015,1.7015 -2.07738,7.9758 -5.25219,8.7205 -1.41888,0.3328 -3.76871,1.7098 -5.22186,3.06 -5.4236896,5.0394 -10.8200596,0.069 -5.7659796,-5.3104 3.2962996,-3.5087 4.5383496,-2.9399 1.4902699,0.6826 -4.0216399,4.7794 -1.2893899,6.8326 3.7829297,2.8427 1.79233,-1.4098 2.63486,-3.0245 2.63486,-5.0496 0,-3.3131 2.04271,-7.83847 4.43406,-9.82312 2.12647,-1.76481 1.97072,-0.54627 -0.34968,2.73577 -2.27204,3.21365 -3.5751,7.20955 -2.35103,7.20955 1.11857,0 5.46074,-8.79698 5.82336,-11.79779 0.15271,-1.26376 0.82003,-2.95126 1.48292,-3.75 0.88597,-1.06753 0.89959,-1.45225 0.0514,-1.45225 -0.63461,0 -1.41186,0.67242 -1.72723,1.49426 -0.31537,0.82184 -0.97932,1.24338 -1.47544,0.93676 -1.07128,-0.66209 -7.26098,3.52973 -6.43367,4.35704 0.31343,0.31343 1.87281,-0.39343 3.46529,-1.5708 2.62494,-1.9407 2.95567,-1.98362 3.54055,-0.45944 0.35483,0.92467 0.33466,1.37073 -0.0448,0.99124 -0.37949,-0.37948 -1.93524,0.19674 -3.45722,1.28049 -3.16955,2.25691 -4.62297,2.47707 -5.18678,0.78566 -0.22188,-0.66565 -2.66834,1.00648 -5.5833296,3.81623 -5.41766,5.2219 -6.70557998,9.2672 -3.9384,12.3704 1.06341,1.1925 0.98877,1.2041 -0.5,0.078 -3.99866994,-3.0258 -1.12836,-10.1771 6.6395399,-16.5424 2.5357497,-2.07786 4.6104597,-4.25019 4.6104597,-4.8274 0,-1.35117 13.08795,-15.10385 14.78936,-15.5405 1.35429,-0.34757 0.83671,3.56637 -0.92769,7.01516 -1.32935,2.5984 -1.04621,2.98487 1.27619,1.74196 5.05417,-2.70491 15.61497,-3.22232 17.13426,-0.83946 1.8019,2.8261 -0.12755,8.67706 -4.31197,13.0758 -2.47929,2.60627 -3.62774,4.55574 -3.08891,5.24314 1.38036,1.7611 0.26319,6.6232 -3.12359,13.5943 -1.73683,3.575 -3.34859,6.8991 -3.58168,7.3868 -0.23309,0.4877 1.54672,-0.4482 3.95512,-2.0799 6.191,-4.1941 6.87891,-4.5429 6.87891,-3.4877 0,1.134 -10.499,8.49 -12.5464,8.7905 -0.79948,0.1173 -1.4536,-0.01 -1.4536,-0.2777 z m -7.43734,-21.4532 c 0.89175,-1.7245 1.06882,-2.8788 0.44158,-2.8788 -0.57591,0 -1.5597,1.125 -2.18619,2.5 -0.6265,1.375 -1.51685,2.5 -1.97856,2.5 -0.46172,0 -0.83949,0.4358 -0.83949,0.9686 0,1.8569 3.08492,-0.2322 4.56266,-3.0898 z m 1.14741,-16.92765 c 1.85946,-0.64822 3.26895,-1.9412 3.55647,-3.2625 0.26195,-1.2038 0.82254,-3.08873 1.24577,-4.18873 0.42322,-1.1 -1.99391,0.68591 -5.37141,3.9687 -3.37749,3.28278 -6.1409,6.39002 -6.1409,6.90498 0,0.51496 0.81672,0.19717 1.81493,-0.7062 0.99822,-0.90337 3.20103,-2.12568 4.89514,-2.71625 z"
       id="path5212"
       inkscape:connector-curvature="0" />
  </g>
</svg>
