<?xml version="1.0" encoding="UTF-8"?>
<svg version="1.1" xmlns="http://www.w3.org/2000/svg" width="147" height="110" >
<path d="M22.194,34.386c0.164,1.172,0.619,5.064-1.263,5.14c-0.254,0.01-0.521,0.088-0.705,0.272 c-0.464,0.464-0.187,1.108,0.312,1.392c1.534,0.871,3.771,0.169,5.218-0.495c3.727-1.71,6.113-5.902,7.551-9.527 c3.797-9.572,4.353-20.27,4.505-30.445c0.015-0.99-1.392-0.936-1.5,0c-1.895,16.316-3.564,32.663-5.059,49.021 c-1.099,12.026-2.089,24.068-2.711,36.13c-0.384,7.451-1.296,15.667,0.252,23.048c0.457-0.192,0.914-0.385,1.371-0.578 c-3.117-6.488-6.54-13.006-10.86-18.779C14.674,83.374,7.113,78.779,1.287,73.712C1.043,74.13,0.8,74.548,0.557,74.966 c2.996,0.961,7.861,1.849,8.938-2.045c0.258-0.934-1.189-1.33-1.446-0.398c-0.807,2.916-5.106,1.635-7.093,0.996 c-0.699-0.224-1.298,0.76-0.729,1.254c5.623,4.891,12.495,9.286,17.311,14.954c4.763,5.606,8.164,12.774,11.334,19.374 c0.386,0.805,1.537,0.213,1.371-0.578c-1.578-7.521-0.542-15.981-0.151-23.572c0.625-12.111,1.658-24.202,2.761-36.277 c1.462-16.001,3.108-31.99,4.961-47.951c-0.5,0-1,0-1.5,0c-0.139,9.288-0.7,18.747-3.563,27.646 c-1.291,4.012-3.397,8.415-7.123,10.696c-1.05,0.643-3.168,1.49-4.402,0.79c0.301,0.171-0.838,2.207,0.866,0.923 c0.547-0.411,0.994-0.728,1.232-1.417c0.603-1.744,0.572-3.561,0.318-5.373C23.506,33.032,22.062,33.44,22.194,34.386 L22.194,34.386z"/>
<path d="M37.732,68.121c4.569-1.276,9.168-2.957,13.242-5.409c3.307-1.991,6.13-6.784,1.458-9.521 c-4.264-2.498-4.943,9.193-4.022,11.339c0.889,2.069,3.608,2.392,5.513,2.152c3.746-0.471,4.83-5.152,8.092-5.659 c0.954-0.148,0.547-1.594-0.398-1.447c-3.8,0.591-4.438,5.197-8.501,5.708c-4.994,0.627-3.853-5.416-3.099-8.246 c1.191-4.471,4.777,0.322,1.989,3.059c-3.641,3.574-9.861,5.234-14.671,6.577C36.404,66.935,36.799,68.382,37.732,68.121 L37.732,68.121z"/>
<path d="M75.311,52.163c-2.576-3.274-6.009,0.596-6.564,3.386c-0.913,4.577,4.902,4.679,7.353,2.799 c0.846-0.65,1.366-1.608,1.923-2.486c0.354-0.558,3.776-6.591,3.854-4.854c0.118,2.658-0.382,4.92,2.193,6.485 c1.664,1.013,3.99-0.07,5.472-0.856c1.137-0.604,1.928-1.747,2.666-2.751c0.415-0.563,4.33-6.45,4.428-2.713 c0.092,3.554,3.262,4.132,5.418,1.616c1.639-1.91,2.434-4.567,3.642-6.75c2.145-3.87,2.401,3.85,3.359,4.824 c2.342,2.387,9.576-0.904,12.207-1.533c7.988-1.908,16.067-3.88,24.246-4.759c0.951-0.103,0.961-1.604,0-1.5 c-10.91,1.173-21.606,4.104-32.257,6.643c-5.33,1.271-2.026-4.57-4.994-6.309c-2.659-1.558-4.29,2.623-5.118,4.345 c-0.426,0.884-0.854,1.763-1.312,2.631c-0.892,1.693-3.629,3.213-3.711,0.042c-0.023-0.873-0.241-1.815-1.053-2.291 c-3.403-1.993-6.604,5.935-8.279,7.21c-2.87,2.187-5.569-1.363-5.407-4.334c0.022-0.4-0.002-1.479-0.281-1.857 c-0.346-0.469-0.746-0.896-1.408-0.714c-1.185,0.326-1.937,1.699-2.59,2.624c-1.573,2.223-2.394,4.947-4.647,6.678 c-5.38,4.131-4.123-9.503-0.198-4.514C74.848,53.983,75.902,52.914,75.311,52.163L75.311,52.163z"/>
</svg>