<?xml version="1.0" encoding="UTF-8" standalone="no"?>
<!-- Created with Inkscape (http://www.inkscape.org/) -->

<svg
   xmlns:dc="http://purl.org/dc/elements/1.1/"
   xmlns:cc="http://creativecommons.org/ns#"
   xmlns:rdf="http://www.w3.org/1999/02/22-rdf-syntax-ns#"
   xmlns:svg="http://www.w3.org/2000/svg"
   xmlns="http://www.w3.org/2000/svg"
   xmlns:sodipodi="http://sodipodi.sourceforge.net/DTD/sodipodi-0.dtd"
   xmlns:inkscape="http://www.inkscape.org/namespaces/inkscape"
   width="586.04456"
   height="246.2877"
   id="svg2"
   version="1.1"
   inkscape:version="0.47pre2 r22153"
   sodipodi:docname="New document 1">
  <defs
     id="defs4">
    <inkscape:perspective
       sodipodi:type="inkscape:persp3d"
       inkscape:vp_x="0 : 526.18109 : 1"
       inkscape:vp_y="0 : 1000 : 0"
       inkscape:vp_z="744.09448 : 526.18109 : 1"
       inkscape:persp3d-origin="372.04724 : 350.78739 : 1"
       id="perspective10" />
    <inkscape:perspective
       id="perspective2884"
       inkscape:persp3d-origin="0.5 : 0.33333333 : 1"
       inkscape:vp_z="1 : 0.5 : 1"
       inkscape:vp_y="0 : 1000 : 0"
       inkscape:vp_x="0 : 0.5 : 1"
       sodipodi:type="inkscape:persp3d" />
  </defs>
  <sodipodi:namedview
     id="base"
     pagecolor="#ffffff"
     bordercolor="#666666"
     borderopacity="1.0"
     inkscape:pageopacity="0.0"
     inkscape:pageshadow="2"
     inkscape:zoom="0.93566975"
     inkscape:cx="199.47555"
     inkscape:cy="164.3607"
     inkscape:document-units="px"
     inkscape:current-layer="layer1"
     showgrid="false"
     inkscape:window-width="563"
     inkscape:window-height="484"
     inkscape:window-x="0"
     inkscape:window-y="0"
     inkscape:window-maximized="0" />
  <metadata
     id="metadata7">
    <rdf:RDF>
      <cc:Work
         rdf:about="">
        <dc:format>image/svg+xml</dc:format>
        <dc:type
           rdf:resource="http://purl.org/dc/dcmitype/StillImage" />
        <dc:title></dc:title>
      </cc:Work>
    </rdf:RDF>
  </metadata>
  <g
     inkscape:label="Layer 1"
     inkscape:groupmode="layer"
     id="layer1"
     transform="translate(-175.52445,-193.93443)">
    <path
       style="fill:#000000"
       d="m 207.319,439.28776 c -0.9625,-0.5606 -1.75,-1.63028 -1.75,-2.37705 0,-1.85359 7.32502,-15.79134 10.4577,-19.8985 1.39827,-1.83322 2.56059,-3.74066 2.58294,-4.23874 0.0223,-0.49809 1.37236,-2.46361 3,-4.36784 1.62765,-1.90422 2.95936,-4.04172 2.95936,-4.75 0,-0.70827 0.46413,-1.28777 1.03139,-1.28777 0.56726,0 1.31373,-0.7875 1.65882,-1.75 1.17169,-3.26796 8.80289,-13.19155 10.16678,-13.22085 0.75535,-0.0162 1.11579,-0.65772 0.81296,-1.44688 -0.29922,-0.77975 0.58435,-2.69225 1.96348,-4.25 1.37913,-1.55775 4.35709,-5.53227 6.61768,-8.83227 2.26059,-3.3 4.47888,-6.15 4.92953,-6.33333 0.45065,-0.18334 0.81936,-1.19584 0.81936,-2.25 0,-1.05417 0.43247,-1.91667 0.96104,-1.91667 1.51923,0 5.03896,-4.20826 5.03896,-6.02468 0,-1.43488 7.19923,-11.48026 11.50916,-16.05921 0.81996,-0.87114 1.49084,-2.05354 1.49084,-2.62755 0,-0.57402 0.7346,-1.65333 1.63244,-2.39847 0.89784,-0.74515 3.00178,-4.28775 4.67541,-7.87245 1.67364,-3.5847 3.57745,-7.19264 4.2307,-8.01764 1.68612,-2.12942 4.86101,-10.93377 4.18614,-11.60865 -0.31023,-0.31023 -3.60601,3.52481 -7.32394,8.5223 -3.71794,4.99749 -7.12304,9.08635 -7.5669,9.08635 -0.44386,0 -1.44861,1.53556 -2.23278,3.41235 -0.78418,1.87679 -2.25271,4.25444 -3.26342,5.28365 -1.01071,1.02921 -3.18538,3.88115 -4.8326,6.33765 -2.77362,4.1363 -9.1312,12.7833 -11.56449,15.72897 -0.57365,0.69444 -0.75722,1.72501 -0.40795,2.29014 0.34927,0.56514 -0.47341,1.89943 -1.82818,2.9651 -1.35477,1.06566 -3.37214,3.8601 -4.48304,6.20985 -1.1109,2.34976 -2.96518,5.35364 -4.12061,6.6753 -1.15543,1.32166 -2.10078,2.98364 -2.10078,3.6933 0,0.70965 -0.7875,1.88378 -1.75,2.60916 -1.71232,1.29049 -2.39742,2.32561 -6.40787,9.68154 -1.08339,1.98714 -2.84107,4.36012 -3.90596,5.27328 -1.06489,0.91316 -1.93617,2.18208 -1.93617,2.81983 0,1.49327 -5.38852,9.4462 -9.67053,14.27276 -1.83121,2.06409 -3.32947,4.20107 -3.32947,4.74886 0,1.53445 -7.59046,9.00023 -9.13298,8.98295 -0.75186,-0.008 -1.99142,-0.41074 -2.75458,-0.89404 -1.11755,-0.70773 -0.43911,-2.79659 3.48653,-10.73468 2.68075,-5.42078 6.11765,-11.61099 7.63756,-13.75601 1.51991,-2.14502 2.76347,-4.33473 2.76347,-4.86602 0,-0.53129 1.575,-3.11157 3.5,-5.73394 1.925,-2.62237 3.5,-5.06398 3.5,-5.42579 0,-0.36181 0.93819,-1.65152 2.08486,-2.86602 1.14668,-1.21451 2.77305,-3.55819 3.61416,-5.20819 0.84112,-1.65 2.57515,-4.125 3.8534,-5.5 2.39973,-2.58136 4.75654,-5.72369 11.06281,-14.75 2.01736,-2.8875 4.06084,-5.25 4.54105,-5.25 0.48022,0 1.76103,-1.4625 2.84625,-3.25 1.83414,-3.02108 5.71001,-7.81057 12.15621,-15.02166 1.4623,-1.63583 3.47714,-4.4939 4.4774,-6.35128 1.01352,-1.88199 2.60342,-3.37706 3.59126,-3.37706 0.97493,0 1.7726,-0.58757 1.7726,-1.30572 0,-0.71815 1.125,-2.83057 2.5,-4.69428 2.60024,-3.52442 3.21913,-6 1.5,-6 -0.55,0 -1,0.49037 -1,1.08971 0,2.21993 -15.43454,13.21186 -23,16.37979 -2.475,1.03637 -6.48336,2.74823 -8.90747,3.80414 -4.94911,2.15575 -15.46217,2.75671 -17.23375,0.98514 -2.2733,-2.27331 5.24975,-16.35432 12.89075,-24.12783 2.04397,-2.07941 0.87976,-2.39977 -3.71655,-1.02268 -3.59255,1.07635 -4.55179,1.01648 -7.01364,-0.43777 -3.78543,-2.23611 -6.80131,-1.04619 -11.15588,4.40156 -15.28324,19.11999 -26.3961,27.15405 -31.66193,22.89004 -1.21084,-0.98047 -2.2168,-2.16055 -2.23546,-2.62239 -0.0187,-0.46184 -0.90339,-2.63971 -1.96607,-4.83971 -2.69599,-5.58137 -2.73374,-15.03694 -0.0657,-16.46482 4.10262,-2.19565 5.05322,-0.79511 5.7454,8.46482 0.24668,3.3 0.91032,7.47992 1.47476,9.28872 0.85513,2.74037 1.38634,3.18066 3.18591,2.64062 2.46465,-0.73961 17.62525,-16.30971 17.64601,-18.12264 0.007,-0.65631 0.80116,-1.78131 1.76366,-2.5 0.9625,-0.71868 2.6012,-2.8817 3.64154,-4.8067 1.04035,-1.925 2.91137,-4.625 4.15784,-6 1.24646,-1.375 3.09527,-3.95194 4.10846,-5.72654 1.01319,-1.7746 5.55466,-9.12647 10.09216,-16.3375 4.5375,-7.21102 8.25,-13.52158 8.25,-14.02345 0,-0.50188 0.41701,-0.91251 0.92668,-0.91251 1.56337,0 1.80046,-3.40492 0.35674,-5.12318 -1.595,-1.89829 -2.99428,-9.81204 -2.65217,-14.9996 0.30721,-4.65841 3.16332,-14.49887 4.68952,-16.1573 0.64858,-0.70478 2.71285,-4.22512 4.58726,-7.82299 1.87442,-3.59787 5.24941,-8.58792 7.5,-11.089 5.1031,-5.6711 16.87929,-13.27283 21.79275,-14.0676 4.69186,-0.75893 8.781,1.04696 8.79142,3.88255 0.007,1.86314 -2.39287,7.92733 -4.89787,12.37712 -0.46444,0.825 -1.87632,3.525 -3.13754,6 -1.26121,2.475 -4.46744,7.82485 -7.12495,11.88856 -2.65751,4.0637 -4.83184,7.71149 -4.83184,8.10619 0,0.39471 -1.49462,2.69486 -3.32138,5.11145 -1.82676,2.41659 -3.62434,5.0688 -3.99461,5.8938 -0.37028,0.825 -2.25066,3.68664 -4.17862,6.35919 -1.92797,2.67256 -3.50539,5.6985 -3.50539,6.72432 0,1.89473 4.57911,4.91649 7.45034,4.91649 2.2349,0 1.9095,2.75102 -0.41257,3.48801 -1.07922,0.34253 -2.84964,0.14786 -3.93426,-0.43261 -3.32776,-1.78096 -6.60763,-1.18459 -9.31975,1.6946 -3.92755,4.16949 -13.78376,18.98661 -13.78376,20.72152 0,0.84066 -0.3375,1.52928 -0.75,1.53027 -0.4125,9.8e-4 -2.02882,2.02598 -3.59182,4.5 -1.563,2.47401 -3.2505,4.49821 -3.75,4.49821 -0.4995,0 -0.90818,0.37709 -0.90818,0.83797 0,0.46088 1.62725,0.89914 3.61611,0.97391 1.98886,0.0748 4.19391,0.61548 4.90011,1.20158 1.49015,1.23671 9.57076,-0.38564 13.22379,-2.65495 2.50598,-1.55675 11.25999,-14.11052 11.25999,-16.14749 0,-1.96534 2.99657,-7.4292 5.38893,-9.82604 3.19978,-3.20576 5.98236,-3.71466 8.62233,-1.57694 l 2.29002,1.85434 -2.40064,6.75339 c -1.32035,3.71437 -3.63814,8.14638 -5.15064,9.84892 -1.5125,1.70254 -2.75,3.40425 -2.75,3.78158 0,0.37732 -2.8125,2.53704 -6.25,4.79936 -7.80117,5.13419 -7.18066,4.58722 -13.75,12.12025 -3.025,3.46875 -6.4,7.31251 -7.5,8.54168 -1.1,1.22918 -2.07779,2.63871 -2.17288,3.1323 -0.0951,0.49358 -0.48137,2.12654 -0.85841,3.62878 -0.60995,2.43026 -0.40959,2.73136 1.81755,2.73136 4.53331,0 15.10443,-3.85791 22.05052,-8.0473 8.55083,-5.15724 11.35513,-7.52354 21.37349,-18.03514 2.31564,-2.42966 4.79064,-4.91539 5.5,-5.52386 0.70935,-0.60846 4.66473,-5.30753 8.78973,-10.44239 4.125,-5.13485 9.12387,-11.16202 11.10861,-13.3937 1.98473,-2.23169 4.85283,-6.08261 6.37355,-8.55761 1.52072,-2.475 3.63571,-5.45706 4.69998,-6.62681 2.18465,-2.40117 14.81786,-27.11821 14.81786,-28.99134 0,-0.66835 0.3375,-1.36518 0.75,-1.54852 0.4125,-0.18333 2.07449,-3.03333 3.69332,-6.33333 1.61882,-3.3 3.53132,-6.59464 4.25,-7.32143 0.71867,-0.72678 1.30668,-1.80207 1.30668,-2.38953 0,-1.20787 11.78358,-13.10857 16.37627,-16.53904 3.87646,-2.89548 7.17192,-2.86919 9.09946,0.0726 1.3655,2.08402 1.35853,2.8725 -0.0678,7.67563 -1.44835,4.87712 -6.08187,14.78455 -7.48373,16.00176 -0.31672,0.275 -1.7141,2.19613 -3.10529,4.26918 -1.3912,2.07305 -4.39456,5.75911 -6.67415,8.19126 -2.27964,2.43214 -4.14476,4.81366 -4.14476,5.29226 0,0.4786 -0.83739,1.76901 -1.86087,2.86758 -4.93064,5.29243 -19.13913,22.76319 -19.13913,23.53348 0,1.6005 7.46666,-2.1455 9.80552,-4.9194 1.26804,-1.5039 3.74304,-4.30045 5.5,-6.21455 1.75697,-1.91411 4.31948,-5.1341 5.69448,-7.15554 6.72324,-9.88409 27.8538,-29.8278 31.62756,-29.85112 3.59532,-0.0222 4.84316,2.47216 2.7052,5.4076 -1.00802,1.38402 -2.17026,2.53054 -2.58276,2.54783 -0.4125,0.0173 -0.75193,0.59392 -0.75428,1.28142 -0.0135,3.93346 -24.2947,30.67731 -31.3439,34.52282 -6.50046,3.54616 -24.64349,25.51234 -24.65814,29.85417 -0.003,1.03016 -1.24098,2.57601 -2.75,3.43523 -2.49746,1.42203 -14.86646,16.77971 -19.74368,24.51427 -3.52406,5.58865 -9.66094,13.42351 -10.51435,13.42351 -0.45471,0 -1.13331,1.39582 -1.50801,3.10182 -0.3747,1.706 -1.42795,3.84849 -2.34055,4.76109 -0.9126,0.9126 -2.2949,3.58524 -3.07178,5.9392 -0.77688,2.35396 -2.44443,5.67863 -3.70568,7.38815 -1.26125,1.70953 -2.08809,3.44009 -1.83742,3.84568 0.25067,0.4056 -0.21428,1.29353 -1.03322,1.9732 -0.81894,0.67966 -1.48899,1.85565 -1.48899,2.6133 0,0.75766 -0.40122,1.37756 -0.89159,1.37756 -0.49038,0 -1.17999,1.14907 -1.53248,2.55349 -0.35249,1.40442 -1.97627,4.39694 -3.60841,6.65004 -1.63214,2.2531 -2.96752,4.64893 -2.96752,5.32406 0,0.67514 -0.6833,1.79461 -1.51845,2.48773 -0.83515,0.69311 -2.28822,2.88571 -3.22905,4.87244 -2.60655,5.50424 -5.33042,8.29246 -6.86052,7.02258 -1.32282,-1.09783 0.22342,-4.71863 4.7251,-11.06471 1.03561,-1.4599 1.88292,-3.1099 1.88292,-3.66667 0,-0.55676 0.3375,-1.16229 0.75,-1.34563 0.71511,-0.31782 2.75349,-3.78647 6.07246,-10.33333 0.83648,-1.65 2.00612,-3.33061 2.5992,-3.73469 0.72862,-0.49642 0.67229,-0.73965 -0.17368,-0.75 -1.35806,-0.0166 -12.82346,15.10286 -18.18806,23.98469 -1.8271,3.025 -3.64797,5.725 -4.04638,6 -1.4043,0.96931 -16.86522,23.90908 -19.20839,28.5 -0.84215,1.65 -2.7563,5.1375 -4.25366,7.75 -2.84002,4.95508 -2.06233,6.70478 0.94206,2.11951 0.94796,-1.44677 2.8121,-3.85219 4.14254,-5.34538 3.34709,-3.75654 13.4737,-18.24185 18.01913,-25.77495 3.13499,-5.19559 3.99584,-6.0267 5.09935,-4.92319 1.01089,1.0109 1.06901,1.90573 0.24359,3.75082 -1.42097,3.17636 -3.28516,6.35915 -4.77852,8.15855 -0.66126,0.79676 -0.88834,1.7626 -0.50463,2.14631 0.38371,0.38371 -0.1827,0.93004 -1.25868,1.21406 -1.07598,0.28403 -3.21039,2.62868 -4.74312,5.21034 -4.77657,8.04538 -7.0718,11.28323 -11.46321,16.17098 -2.3375,2.6017 -4.25,5.19492 -4.25,5.76271 0,0.5678 -1.5305,1.75863 -3.40113,2.6463 -3.95049,1.87463 -3.60155,1.84278 -5.84887,0.53384 z m 15.25,-48.4199 c 0.71755,-0.86459 0.81474,-1.5 0.22944,-1.5 -0.5585,0 -1.27448,0.675 -1.59106,1.5 -0.31659,0.825 -0.41983,1.5 -0.22944,1.5 0.1904,0 0.90637,-0.675 1.59106,-1.5 z m 9,-13.5 c 1.17491,-1.65 1.91119,-3 1.63619,-3 -0.275,0 -1.46128,1.35 -2.63619,3 -1.1749,1.65 -1.91118,3 -1.63618,3 0.275,0 1.46128,-1.35 2.63618,-3 z m 56.80687,-73.52646 c -0.30789,-0.30789 -0.86705,0.24711 -1.24258,1.23333 -0.54268,1.4252 -0.42782,1.54006 0.5598,0.5598 0.68342,-0.67834 0.99067,-1.48524 0.68278,-1.79313 z m 18.52892,-16.79284 c 2.46597,-2.7659 8.84908,-11.68164 11.05963,-15.44777 0.40905,-0.69689 -0.92538,-0.13439 -2.9654,1.25 -2.04001,1.38439 -4.07909,2.51707 -4.53129,2.51707 -0.45219,0 -3.55967,3.64021 -6.90551,8.08935 l -6.08334,8.08935 3.29506,-0.65865 c 1.8505,-0.36989 4.53828,-2.05308 6.13085,-3.83935 z m 11.05722,-30.26249 c 0.93873,-2.44628 0.7352,-2.7695 -0.89301,-1.41821 -1.66238,1.37965 -1.99022,3 -0.60699,3 0.49116,0 1.16616,-0.7118 1.5,-1.58179 z M 245.569,253.26664 c 0,-0.54076 0.44972,-1.5267 0.99938,-2.19099 2.07183,-2.50392 8.31784,-12.38718 10.71695,-16.95779 1.37131,-2.6125 2.82777,-4.75 3.2366,-4.75 0.40883,0 1.55501,-1.8 2.54707,-4 0.99206,-2.2 2.07291,-4.00516 2.40187,-4.01147 0.32897,-0.006 1.48457,-1.91881 2.56801,-4.25 1.08343,-2.33119 2.93378,-5.58853 4.11189,-7.23853 2.38426,-3.33927 4.71656,-9.535 3.89761,-10.35396 -1.14438,-1.14438 -8.18788,2.34433 -11.97938,5.9335 -2.2,2.08259 -5.44258,5.05417 -7.20573,6.6035 -1.76315,1.54933 -4.29056,4.84196 -5.61648,7.31696 -9.30084,17.3613 -10.02341,19.49696 -9.30134,27.49131 0.33109,3.66562 0.86292,7.08698 1.18186,7.60304 0.6788,1.09831 2.44169,0.23511 2.44169,-1.19557 z m 85.61892,-14.52924 c 3.3654,-4.34889 6.8529,-8.51623 7.75,-9.26075 0.89709,-0.74452 1.63108,-1.79632 1.63108,-2.33733 0,-0.54101 1.4625,-2.80764 3.25,-5.03695 5.57287,-6.95031 10.29084,-16.59366 8.83208,-18.05243 -0.94896,-0.94896 -13.00399,10.78321 -13.05739,12.70768 -0.0136,0.48936 -0.66485,1.38936 -1.44727,2 -0.78242,0.61063 -3.98872,6.17274 -7.12512,12.36024 -3.1364,6.1875 -6.04745,11.25 -6.46901,11.25 -0.42156,0 -1.03834,1.08319 -1.37062,2.4071 -0.33228,1.3239 -0.87295,3.2364 -1.20149,4.25 -0.75848,2.33998 0.67691,0.73626 9.20774,-10.28756 z M 754.569,370.92688 c 0,-0.85746 0.45,-1.55902 1,-1.55902 0.55,0 1,0.42344 1,0.94098 0,0.51754 -0.45,1.2191 -1,1.55902 -0.55,0.33992 -1,-0.0835 -1,-0.94098 z M 522.57946,318.88047 c -0.65975,-0.79495 -1.0445,-1.87746 -0.855,-2.40558 0.62285,-1.73585 6.24308,-8.34434 12.09454,-14.22126 3.1625,-3.17625 5.75,-6.24993 5.75,-6.83039 0,-0.58046 0.675,-1.05538 1.5,-1.05538 0.825,0 1.5,-0.56675 1.5,-1.25945 0,-0.6927 0.9,-1.82152 2,-2.50848 1.1,-0.68696 2,-1.82956 2,-2.5391 0,-0.70955 2.46865,-3.74324 5.48589,-6.74153 3.01725,-2.99829 5.49225,-5.72364 5.5,-6.05632 0.008,-0.33269 2.03911,-2.68841 4.51411,-5.23494 2.475,-2.54654 4.5,-5.08684 4.5,-5.64512 0,-0.55828 0.5625,-1.01853 1.25,-1.02276 0.6875,-0.004 2.22516,-1.69174 3.41702,-3.75 4.02418,-6.9495 20.08647,-24.37316 33.11638,-35.92322 2.59413,-2.2995 6.2916,-5.57959 8.2166,-7.28909 1.925,-1.7095 5.975,-4.2547 9,-5.65599 3.025,-1.4013 6.26785,-2.95024 7.20633,-3.4421 3.4131,-1.78883 9.23066,-2.11864 11.22023,-0.6361 2.6031,1.9397 2.31636,11.74956 -0.48262,16.51136 -1.06917,1.81894 -1.94394,3.92191 -1.94394,4.67328 0,0.75136 -1.04274,2.63814 -2.3172,4.19283 -1.27446,1.5547 -2.86358,4.19152 -3.53138,5.8596 -0.6678,1.66807 -2.59005,4.33146 -4.27167,5.91864 -1.68162,1.58718 -3.41722,3.83194 -3.85689,4.98836 -0.43967,1.15642 -2.08718,2.76803 -3.66113,3.58135 -1.57395,0.81333 -3.47047,2.05537 -4.21448,2.7601 -0.74401,0.70473 -3.33151,1.81056 -5.75,2.4574 -2.41849,0.64685 -4.39725,1.47924 -4.39725,1.84977 0,1.01153 -18.44065,2.19327 -22.00589,1.41022 -1.70503,-0.37449 -2.92188,-1.2024 -2.70413,-1.8398 0.44267,-1.29574 4.58066,-0.97929 6.37099,0.48722 0.71373,0.58464 1.3828,0.59207 1.73679,0.0193 0.31669,-0.51242 3.16926,-1.24468 6.33902,-1.62723 11.40704,-1.3767 23.14767,-9.77567 29.88477,-21.37887 1.48793,-2.56263 2.97621,-4.88433 3.30729,-5.15933 0.33108,-0.275 1.98339,-3.37395 3.67179,-6.88656 3.64684,-7.58703 3.4972,-11.13374 -0.46721,-11.07328 -2.99726,0.0457 -11.27509,3.4855 -15.54554,6.45984 -4.05272,2.82269 -23.45205,22.11644 -27.61381,27.46352 -3.71027,4.76699 -5.99016,7.4033 -12.72407,14.71319 -2.3375,2.53744 -4.25,4.81361 -4.25,5.05815 0,0.24454 -2.25,2.96907 -5,6.0545 -5.47817,6.14637 -6.00624,7.28654 -3.01215,6.50357 4.44391,-1.16211 3.46346,6.08225 -1.9228,14.20707 -1.45846,2.2 -3.21322,5.29923 -3.89946,6.88718 l -1.24772,2.88717 3.8064,-0.51054 c 2.09352,-0.2808 7.18045,-1.91517 11.30429,-3.63193 6.93104,-2.88539 7.75664,-3.55397 10.92032,-8.84329 4.90917,-8.20759 10.24399,-13.01378 14.3062,-12.88859 2.5353,0.0781 3.31286,0.57724 3.5556,2.28232 0.50417,3.54145 -2.20196,7.46575 -9.18368,13.31768 -7.84628,6.5766 -8.44968,9.3106 -2.16791,9.82283 2.58867,0.21108 5.44887,-0.4212 8.26301,-1.82665 4.31151,-2.15327 20.57301,-17.51021 29.84068,-28.18076 l 4.93722,-5.68458 4.33043,0.81501 c 6.03407,1.13565 6.72913,2.08138 5.4946,7.47625 l -1.02366,4.47341 2.61251,-1.35098 c 1.43688,-0.74304 5.30658,-2.09736 8.59932,-3.00959 3.29274,-0.91224 6.8868,-2.06062 7.9868,-2.55196 8.91099,-3.98025 13.77062,-4.97216 14.95681,-3.05287 0.31616,0.51156 -1.46003,2.83734 -3.94709,5.1684 -2.48706,2.33106 -5.83658,6.86915 -7.44338,10.08464 -5.16861,10.3433 -6.80579,12.35798 -12.30232,15.13898 -6.36665,3.22122 -7.22977,3.27871 -9.10167,0.6062 -3.29534,-4.70476 2.89573,-11.22739 6.87741,-7.24572 1.20903,1.20903 1.81408,1.26861 2.98812,0.29425 0.80967,-0.67196 1.50501,-1.95415 1.54521,-2.8493 0.0402,-0.89516 0.92651,-2.97756 1.96959,-4.62756 5.40048,-8.54281 5.95148,-10.60899 2.3047,-8.64229 -2.64756,1.42783 -5.71943,2.48762 -6.63418,2.28878 -1.32223,-0.28741 -12.02432,7.42519 -15.25494,10.99366 -1.67296,1.84792 -4.37296,4.47009 -6,5.82705 -1.62704,1.35696 -5.80051,4.88119 -9.27436,7.83162 -6.11913,5.19713 -9.1839,6.10216 -9.1839,2.71204 0,-0.85355 4.1625,-5.72893 9.25,-10.83418 5.91681,-5.93744 10.24095,-11.28114 12,-14.82938 2.54682,-5.13729 3.5734,-9.8473 2.14627,-9.8473 -0.33205,0 -3.81955,3.45997 -7.75,7.68883 -16.7308,18.00105 -20.06693,20.94514 -28.00023,24.70981 -5.04689,2.39496 -8.65318,3.50597 -10.43008,3.21324 -1.49378,-0.24608 -3.52495,-0.48442 -4.51371,-0.52965 -0.98876,-0.0452 -2.90574,-1.27778 -4.25996,-2.739 -2.35787,-2.54419 -2.64189,-2.60334 -6.70225,-1.39586 -2.33202,0.6935 -5.23442,1.64614 -6.44978,2.11699 -4.41129,1.70898 -12.2163,2.24191 -13.78363,0.94115 -2.02211,-1.67821 -1.89944,-4.62798 0.32651,-7.85114 2.76425,-4.00261 7.21861,-13.43596 6.62477,-14.0298 -0.49013,-0.49013 -20.45791,19.12967 -20.45791,20.10138 0,0.85736 -12.45731,13.94843 -14.11984,14.83819 -1.13418,0.60699 -2.0551,0.43 -2.8697,-0.55153 z m -194.31952,-6.30162 c -3.01695,-3.3337 1.54074,-5.97988 6.93801,-4.0282 3.7744,1.36484 4.2002,2.32192 1.62105,3.64369 -3.94657,2.02257 -6.95435,2.15769 -8.55906,0.38451 z m 56.78401,0.79203 c -3.96695,-1.23744 -9.76576,-7.24604 -9.31045,-9.64729 0.23882,-1.2595 1.37732,-1.95521 3.54351,-2.16535 2.75621,-0.26737 3.52021,0.21088 5.60005,3.50558 1.83842,2.91223 3.42745,4.08717 6.71404,4.96442 3.90451,1.04217 5.03133,0.8721 12.09594,-1.82562 4.28468,-1.63616 8.89442,-3.84332 10.24387,-4.9048 1.34945,-1.06148 2.71493,-1.92996 3.03439,-1.92996 0.85001,0 4.11974,-2.84258 9.71906,-8.44938 l 4.94277,-4.94937 -3.27907,-1.18394 c -1.80348,-0.65117 -5.26677,-1.72705 -7.6962,-2.39085 -5.52321,-1.50911 -9.72829,-5.61949 -10.62186,-10.38267 -0.96437,-5.14051 0.32985,-12.43464 2.61108,-14.71587 1.06036,-1.06036 1.92792,-2.55955 1.92792,-3.33153 0,-1.77329 5.97591,-8.59639 7.52901,-8.59639 0.63856,0 2.01289,-0.94132 3.05408,-2.09181 3.64043,-4.02263 22.04611,-11.31936 27.06028,-10.72775 2.66293,0.31419 3.57979,1.40337 8.16564,9.70032 l 1.86859,3.38075 2.37448,-3.38075 c 1.30597,-1.85942 2.86683,-3.83076 3.46857,-4.38076 0.60175,-0.55 2.27021,-2.8 3.70769,-5 4.28615,-6.55974 24.52377,-26.3921 30.42711,-29.8178 2.64813,-1.53671 7.58902,-1.06835 8.99359,0.85251 1.95671,2.67596 1.67573,4.99057 -1.14904,9.46529 -1.375,2.17814 -2.5,4.57445 -2.5,5.32514 0,0.75069 -0.9,2.17937 -2,3.17486 -1.1,0.99549 -2,2.26184 -2,2.81412 0,1.30886 -7.54749,11.40233 -11.17494,14.94458 -1.55378,1.51728 -2.83325,3.09228 -2.84326,3.5 -0.0217,0.88549 -3.08896,4.75784 -12.4818,15.75819 -10.05752,11.77879 -12.46046,14.85427 -12.48796,15.98311 -0.0134,0.55 -0.65725,2.21311 -1.43078,3.69581 -1.75222,3.35861 -0.91833,3.71109 6.15542,2.60181 3.3254,-0.52147 6.88385,-1.95898 9.44885,-3.81706 3.97043,-2.87616 8.15355,-3.85897 9.2023,-2.16205 0.42084,0.68093 -4.54086,5.63546 -8.04248,8.03087 -0.52309,0.35784 -2.27473,2.45062 -3.89252,4.65062 -1.6178,2.2 -3.38098,4.31303 -3.91818,4.69563 -0.5372,0.38259 -0.72208,0.95028 -0.41083,1.26152 0.31124,0.31125 5.02321,-3.69514 10.47104,-8.90308 8.93714,-8.5436 10.28077,-9.47313 13.74876,-9.51152 3.02288,-0.0335 3.9553,0.38451 4.36663,1.95745 0.61457,2.3501 0.97903,2.39258 4.28975,0.5 3.48192,-1.99045 7.73212,-1.86906 8.86796,0.25327 2.23333,4.17303 0.19211,10.12639 -5.74194,16.74673 -3.39012,3.7822 -3.46675,4.01703 -1.40727,4.31279 1.19795,0.17204 2.99358,-0.12365 3.99031,-0.65708 1.98975,-1.06489 7.29094,-0.4108 7.29094,0.89959 0,0.45219 -2.1375,1.11009 -4.75,1.462 -2.6125,0.35192 -7.17249,1.3095 -10.13331,2.12796 -3.67404,1.01562 -5.70854,1.16289 -6.40762,0.46381 -1.15395,-1.15395 -0.95103,-1.46287 7.08996,-10.7932 4.70652,-5.4612 5.29281,-6.62878 5.01526,-9.98772 l -0.31429,-3.80359 -2,2.07761 c -1.1,1.14269 -2.75817,2.34929 -3.68482,2.68133 -0.92665,0.33204 -4.32129,3.9474 -7.54364,8.03414 -4.95102,6.27912 -14.42311,15.68236 -15.79718,15.68236 -0.22219,0 -0.85368,-0.84024 -1.40329,-1.86721 -0.83762,-1.56509 0.21022,-3.13705 6.47611,-9.71539 6.19766,-6.5067 11.45282,-13.82458 11.45282,-15.94819 0,-1.80445 -3.56018,0.55997 -10,6.6413 -4.125,3.89537 -8.2875,7.50489 -9.25,8.02117 -0.9625,0.51628 -1.75,1.59785 -1.75,2.4035 0,0.80565 -0.401,1.46482 -0.89112,1.46482 -0.49011,0 -3.07761,1.82952 -5.75,4.0656 -5.77668,4.83356 -10.05181,7.24221 -11.38825,6.41625 -1.94285,-1.20075 -0.89541,-4.85314 2.27937,-7.94804 3.46685,-3.37962 11.75,-13.82165 11.75,-14.81246 0,-0.63711 -8.44487,-0.0323 -11.03715,0.79044 -0.86005,0.27297 -3.25697,3.15416 -5.32649,6.40265 -2.06952,3.24848 -6.23824,8.42166 -9.26384,11.49595 -5.52403,5.61294 -8.70099,6.86114 -11.17252,4.38961 -1.91632,-1.91632 -1.44695,-6.62883 0.8,-8.03207 1.1,-0.68696 2.00478,-1.70328 2.01063,-2.25848 0.006,-0.5552 1.80106,-3.25945 3.98937,-6.00945 2.18831,-2.75 3.98353,-5.3375 3.98937,-5.75 0.006,-0.4125 -1.06837,-0.75 -2.38716,-0.75 -2.22083,0 -9.16239,5.31642 -13.84561,10.60412 -1.02497,1.15726 -4.20201,3.17753 -7.06009,4.48949 -2.85808,1.31196 -5.42151,2.67745 -5.69651,3.03443 -0.275,0.35697 -3.52108,2.074 -7.21351,3.81562 -7.30337,3.44481 -17.70128,4.80941 -23.31154,3.05936 z m 68.17284,-33.25302 c 6.5365,-7.11854 8.50551,-11.05615 8.15866,-16.31565 l -0.30645,-4.64691 -5.5,7.22806 c -3.025,3.97543 -5.95,7.9572 -6.5,8.84837 -0.55,0.89117 -2.0125,2.8959 -3.25,4.45495 -2.96439,3.73465 -2.8385,4.68118 0.62264,4.68118 2.10075,0 3.92126,-1.14199 6.77515,-4.25 z m -12.93251,-2.52915 c 2.31841,-3.14647 5.13263,-6.84585 6.25382,-8.22085 1.1212,-1.375 4.26404,-5.56814 6.98408,-9.31809 5.2937,-7.29806 5.30625,-7.41198 1.60429,-14.57078 -1.79341,-3.46806 -6.96513,-4.79175 -12.1002,-3.09703 -1.87999,0.62046 -3.83459,0.87074 -4.34354,0.55619 -0.50895,-0.31455 -4.00525,1.45249 -7.76955,3.92676 -3.7643,2.47427 -7.06918,4.61214 -7.34418,4.75081 -1.3302,0.67079 -5.79952,7.63684 -6.83377,10.65136 -1.75582,5.11771 -1.46872,12.50801 0.58377,15.02677 1.8191,2.23234 11.89787,5.94821 16.25,5.99108 1.89741,0.0187 3.51604,-1.3543 6.71528,-5.69622 z m 31.6025,-20.18167 c 0.94158,-1.59395 3.18834,-4.41837 4.99281,-6.27648 1.80447,-1.85811 4.16028,-4.75791 5.23513,-6.444 1.07485,-1.68609 4.65428,-6.60954 7.95428,-10.94101 6.78022,-8.89948 6.96673,-9.18078 10.76685,-16.23879 1.52176,-2.82639 2.33162,-5.1389 1.79969,-5.1389 -0.53194,0 -1.32702,0.56516 -1.76685,1.25591 -0.43983,0.69075 -2.59969,2.59941 -4.79969,4.24147 -7.17693,5.3568 -16.95329,15.8382 -22.38807,24.00262 -2.92893,4.4 -5.69163,8.22951 -6.13934,8.51002 -1.50251,0.94138 -2.09306,5.54292 -1.06006,8.25991 1.22422,3.21995 3.01734,2.81166 5.40525,-1.23075 z m 275.76117,52.37749 c 0.048,-1.16495 0.28494,-1.4019 0.60416,-0.60417 0.28887,0.72187 0.25335,1.58437 -0.0789,1.91667 -0.33229,0.33229 -0.56864,-0.25834 -0.52522,-1.3125 z M 669.995,300.92906 c -0.70347,-2.80285 0.89271,-5.3448 8.46304,-13.47759 2.26103,-2.42901 4.11096,-4.76119 4.11096,-5.18261 0,-0.42142 0.93391,-1.06264 2.07536,-1.42492 1.14145,-0.36228 1.89869,-0.83536 1.68276,-1.0513 -0.21594,-0.21593 3.17181,-4.00036 7.52832,-8.40983 l 7.92094,-8.01724 -4.55518,-4.30277 c -4.79537,-4.52965 -8.90387,-12.37213 -8.8329,-16.86063 0.0515,-3.25515 2.43187,-8.03604 5.44138,-10.92861 5.25427,-5.05012 19.51637,-9.16575 23.80633,-6.86984 1.72242,0.92181 2.64693,0.57078 5.84801,-2.22048 15.22243,-13.27353 16.81553,-14.27611 21.33695,-13.42789 7.0265,1.31818 5.98472,4.00273 -10.48762,27.02532 -5.56386,7.77634 -8.02732,10.6957 -15.51435,18.38557 -3.4375,3.53063 -6.25,6.80299 -6.25,7.27193 0,1.26212 6.66768,2.74766 13.5,3.00775 10.08681,0.38398 12.31894,0.0678 12.92144,-1.83053 0.86312,-2.71947 4.07779,-4.22585 10.43633,-4.89045 5.08602,-0.5316 5.92248,-0.37212 6.54404,1.24763 0.40225,1.04825 0.25217,2.01063 -0.34458,2.20955 -0.58148,0.19382 -1.05723,0.93142 -1.05723,1.63911 0,2.9821 -15.42906,5.00867 -35.72322,4.69216 l -12.22322,-0.19063 -2.68725,4.27255 c -2.90199,4.61397 -9.55674,13.13954 -14.67576,18.8015 -1.7548,1.94092 -4.09055,4.78779 -5.19055,6.32638 -2.2518,3.14964 -5.48044,5.07663 -10.21304,6.09557 -2.87509,0.61901 -3.28119,0.42025 -3.86096,-1.8897 z m 83.574,-39.16819 c 0,-0.21616 -0.675,-0.39301 -1.5,-0.39301 -0.825,0 -1.5,0.43588 -1.5,0.96862 0,0.53273 0.675,0.70959 1.5,0.39301 0.825,-0.31659 1.5,-0.75246 1.5,-0.96862 z m -46.19543,-7.71685 c 0.71751,-1.47189 1.73001,-2.67616 2.25,-2.67616 0.51998,0 0.94543,-0.81 0.94543,-1.8 0,-0.99 0.39542,-2.2275 0.87871,-2.75 1.24339,-1.34427 2.54392,-9.22662 1.31169,-7.95 -7.53789,7.80945 -13.66986,16.6508 -11.33784,16.34739 2.04851,-0.26652 3.17634,0.29683 2.56726,1.28234 -0.42296,0.68437 -0.15056,0.95093 0.69098,0.67616 0.76406,-0.24947 1.97625,-1.65784 2.69377,-3.12973 z m -0.55603,-15.83809 c 2.62847,-2.74144 4.52127,-5.40151 4.20623,-5.91126 -1.00671,-1.62888 -5.82956,-0.9648 -9.95477,1.37073 -5.24197,2.96778 -6.75631,6.12092 -5.41428,11.27352 1.82842,7.02004 1.90654,7.06754 4.19928,2.55293 1.20148,-2.36582 4.33507,-6.54448 6.96354,-9.28592 z m 18.22944,-1.42705 c 1.06304,-1.97394 2.88966,-4.34165 4.05916,-5.26157 1.1695,-0.91993 2.416,-2.79239 2.76999,-4.16103 0.354,-1.36863 1.98589,-4.04474 3.62643,-5.94691 3.26966,-3.79112 3.28442,-5.72598 0.0169,-2.21874 -1.11561,1.19748 -2.57336,2.17931 -3.23944,2.18186 -1.46591,0.006 -7.71102,5.71214 -7.71102,7.04606 0,0.52212 -0.675,0.94931 -1.5,0.94931 -0.825,0 -1.5196,0.3375 -1.54355,0.75 -0.024,0.4125 -0.41128,2.65018 -0.86072,4.97262 -0.44944,2.32243 -0.57984,4.45993 -0.28978,4.75 1.29789,1.29788 2.88407,0.25845 4.67203,-3.0616 z m -3.27915,62.73181 c -2.09991,-1.33 0.49661,-5.85875 3.66777,-6.39718 1.44837,-0.24591 3.23915,-0.62679 3.9795,-0.84638 1.88111,-0.55796 3.20658,3.3095 1.79401,5.23455 -1.35712,1.84948 -7.59682,3.17722 -9.44128,2.00901 z M 340.28461,289.46357 c -2.31219,-3.91423 -2.17216,-4.76431 0.91238,-5.53848 2.7426,-0.68835 4.91986,0.86089 7.20156,5.12428 1.38261,2.58343 0.65594,3.31849 -3.28061,3.31849 -2.38083,0 -3.52322,-0.68645 -4.83333,-2.90429 z M 759.569,218.36786 c 0,-0.55 0.45,-1 1,-1 0.55,0 1,0.45 1,1 0,0.55 -0.45,1 -1,1 -0.55,0 -1,-0.45 -1,-1 z"
       id="path2892" />
  </g>
</svg>
