<?xml version="1.0" encoding="UTF-8" standalone="no"?>
<svg xmlns="http://www.w3.org/2000/svg" version="1.0" width="721" height="90">
<path d="M677,4c-2.901,4.432-7.406,7.26-13,9C656.46,5.938,672.257-4.304,677,4z
M721,9c0,0.333,0,0.667,0,1c-2.478,4.189-7.662,5.671-11,9 c-3.213,0.879-1.37-3.296-4-3c-4.21,2.124-8.7,3.967-12,7c0,1.667,0,3.333,0,5c-12.847,12.153-24.984,25.016-46,29 c-4.909,0.909-3.809-4.191-8-4c-9.758,1.461-25.297,5.332-26-7c-8.429,2.182-19.911,8.124-28,2c-7.06,2.063-14.269,8.898-23,6 c0.723-11.611,11.918-12.748,18-19c-19.292,11.723-44.517,17.125-66,15c2.612-14.055,15.67-17.663,30-20 c3.22,2.392,2.473,11.416,0,14c18.631,3.558,28.511-15.416,45-14c-1.56,9.44-11.482,10.518-16,17c6.78,0.768,11.061-9.597,21-9 c2.028,3.203,1.144,3.526,2,7c16.32,1.48,25.176-13.459,36-11c-0.531,8.135-8.668,8.665-12,14c8.302,4.063,19.572,0.494,28-3 c5.719-2.371,12.007-4.936,18-7C686.301,31.35,700.987,0.502,721,9z M530,40c-0.557,4.443-6.791,3.209-8,7 c7.601-1.732,14.217-4.45,18-10C534.189,36.641,535.479,42.445,530,40z M664,45c6.543-0.457,8.803-5.197,13-8 C671.959,38.959,666.77,40.77,664,45z
M547,0c3.824,6.596-10.261,18.795-16,24c-16.958,15.379-45.349,26.199-70,34 c-0.903-8.393-12.383-8.644-21-11c1.399-8.935,11.535-9.131,17-14c-6.112-0.432-15.543,4.447-19,10 c-12.05-0.713-28.879,16.174-35,0c-10.569,4.422-27.448,15.829-39,7c-0.615-4.615,2.245-5.755,2-10 c-7.029,0.971-13.559,2.441-20,4c-20.621,17.046-36.832,38.501-69,44c2.755-9.168,12.616-15.435,21-22 c8.42-6.594,18.581-12.387,26-20c-9.037,0.037-17.862-0.138-19-8c-8.928,2.405-19.967,2.7-26,8c-2.526,1.891,0.922,3.506-1,6 c-5.775,4.931-13.277,8.13-20,13c-13.403,9.71-26.564,23.802-44,22c1.86-11.066,12.806-16.336,20-22 c7.944-6.255,15.837-12.558,24-18c-23.129-3.039-45.396,16.883-69,7c-1.774-1.893-0.729-6.604-1-10c-7.34,0.638-25.982-2.119-38,0 c-8.375,1.477-18.771,7.703-30,12c-21.257,8.134-42.737,14.553-73,13C28.338,68.043,3.002,64.824,1,47 c-2.125-18.914,15.596-29.006,30-31c32.168-4.454,66.472,19.772,94,23c18.99,2.227,25.797-1.571,37-9 c9.759-6.472,19.112-9.454,23-22c-19.163,0.507-35.825,12.173-49,22c12.719,4.396,27.634-5.464,35-13 c-5.061,8.475-24.482,21.244-40,16c0.618-8.394,12.371-13.224,21-18c11.681-6.465,25.89-15.154,39-8 c-4.875,17.791-22.69,22.643-36,32c10.682,2.007,27.474,1.48,37-1c9.868-6.492,22.242-19.93,38-14 c-1.143,19.19-29.959,10.708-36,25c13.105,5.913,28.902-2.29,39-6c5.637-12.888,17.828-12.783,32-14 c14.021-1.204,26.446-11.781,38-11c-0.368,1.701,0.78,1.887,2,2c-3.924,8.743-14.488,10.845-20,18 c25.797-5.042,54.189-17.576,80-16c-1.675,8.659-10.742,9.924-15,16c14.904,3.188,25.859-11.412,40-9 c-0.921,11.079-13.947,10.053-18,18c21.425,1.376,36.297-17.654,54-20c2.265,7.774-9.687,9.518-12,16 c5.282,2.919,9.686-3.626,16-3c32.094-16.906,72.311-25.689,107-40C540.333,0,543.667,0,547,0z M481,37 c0.045,6.712-9.298,4.036-9,11c12.808-1.035,22.014-7.937,30-12c15.848-8.064,35.25-15.538,42-32 C519.473,7.699,501.552,26.052,481,37z M460,34c2.612-0.279,5.004-0.338,4,3c11.277-6.057,24.009-10.658,33-19 C484.734,23.401,468.25,24.583,460,34z M49,22C30.955,20.624,9.814,27.143,7,40C2.305,61.448,35.053,64.9,52,65 c33.074,0.195,67.996-9.951,87-23C112.216,44.129,78.467,24.247,49,22z M344,27c1.509,7.285,10.056,1.669,12-2 C352.708,22.948,348.298,26.884,344,27z M273,32c1.889,0.111,0.694,3.306,3,3c4.156-3.177,9.465-5.202,13-9 C283.003,27.336,277.771,29.437,273,32z M206,36c7.24,0.24,11.041-2.959,14-7C214.229,30.229,209.638,32.638,206,36z M316,41 c8.832,2.06,21.291,1.176,24-6C331.978,31.109,319.458,34.334,316,41z M259,40c1.822,1.528,8.178,1.528,10,0 C268.729,33.507,260.581,36.746,259,40z M445,44c4.884-0.45,9.71-0.956,11-5C452.909,41.242,446.992,40.659,445,44z M459,48 c4.43,0.43,6.332-1.668,7-5C463.539,44.539,459.203,44.203,459,48z M272,46c-14.145,7.188-25.126,17.54-37,27 c-3.492,1.205-10.5,4.127-8,8c14.861-11.808,39.829-18.836,48-34C274.44,49.896,273.44,45.466,272,46z M289,80 c19.368-7.299,33.285-20.048,47-33C319.506,57.172,305.09,69.424,289,80z"/>
</svg>