<?xml version="1.0" encoding="UTF-8" standalone="no"?>
<!-- Created with Inkscape (http://www.inkscape.org/) -->
<svg
   xmlns:dc="http://purl.org/dc/elements/1.1/"
   xmlns:cc="http://creativecommons.org/ns#"
   xmlns:rdf="http://www.w3.org/1999/02/22-rdf-syntax-ns#"
   xmlns:svg="http://www.w3.org/2000/svg"
   xmlns="http://www.w3.org/2000/svg"
   xmlns:sodipodi="http://sodipodi.sourceforge.net/DTD/sodipodi-0.dtd"
   xmlns:inkscape="http://www.inkscape.org/namespaces/inkscape"
   width="354.26999"
   height="94.504112"
   id="svg2"
   sodipodi:version="0.32"
   inkscape:version="0.46"
   version="1.0"
   sodipodi:docname="Jens Stoltenberg signature.svg"
   inkscape:output_extension="org.inkscape.output.svg.inkscape">
  <defs
     id="defs4">
    <inkscape:perspective
       sodipodi:type="inkscape:persp3d"
       inkscape:vp_x="0 : 526.18109 : 1"
       inkscape:vp_y="0 : 1000 : 0"
       inkscape:vp_z="744.09448 : 526.18109 : 1"
       inkscape:persp3d-origin="372.04724 : 350.78739 : 1"
       id="perspective10" />
    <inkscape:perspective
       id="perspective2390"
       inkscape:persp3d-origin="372.04724 : 350.78739 : 1"
       inkscape:vp_z="744.09448 : 526.18109 : 1"
       inkscape:vp_y="0 : 1000 : 0"
       inkscape:vp_x="0 : 526.18109 : 1"
       sodipodi:type="inkscape:persp3d" />
  </defs>
  <sodipodi:namedview
     id="base"
     pagecolor="#ffffff"
     bordercolor="#666666"
     borderopacity="1.0"
     gridtolerance="10000"
     guidetolerance="10"
     objecttolerance="10"
     inkscape:pageopacity="0.0"
     inkscape:pageshadow="2"
     inkscape:zoom="1"
     inkscape:cx="374.51463"
     inkscape:cy="122.99589"
     inkscape:document-units="px"
     inkscape:current-layer="layer1"
     showgrid="false"
     inkscape:window-width="1280"
     inkscape:window-height="750"
     inkscape:window-x="-8"
     inkscape:window-y="-8" />
  <metadata
     id="metadata7">
    <rdf:RDF>
      <cc:Work
         rdf:about="">
        <dc:format>image/svg+xml</dc:format>
        <dc:type
           rdf:resource="http://purl.org/dc/dcmitype/StillImage" />
      </cc:Work>
    </rdf:RDF>
  </metadata>
  <g
     inkscape:label="Layer 1"
     inkscape:groupmode="layer"
     id="layer1"
     transform="translate(-160.3018,-574.64554)">
    <path
       style="opacity:1;fill:none;fill-opacity:0.65174124;fill-rule:evenodd;stroke:#000000;stroke-width:1.93665814;stroke-linecap:round;stroke-linejoin:miter;marker:none;marker-start:none;marker-mid:none;marker-end:none;stroke-miterlimit:4;stroke-dasharray:none;stroke-dashoffset:0;stroke-opacity:1;visibility:visible;display:inline;overflow:visible;enable-background:accumulate"
       d="M 243.22966,579.10442 C 243.22966,579.10442 246.54964,579.65775 246.54964,590.72438 C 246.54964,601.79099 257.38093,635.41969 229.39639,639.41749 C 198.40987,643.84413 161.89002,640.52415 162.99668,634.99085 C 164.10335,629.45753 187.89657,623.92422 211.13647,619.49758 C 234.37637,615.07093 269.23621,611.19761 266.46956,607.87763 C 263.70291,604.55764 255.40294,611.19761 256.5096,614.5176 C 257.61626,617.83759 270.8962,617.28425 275.87618,612.85761 C 280.85616,608.43096 283.06949,605.11098 283.06949,605.11098 C 283.06949,605.11098 284.17615,611.75095 283.06949,616.73092 C 281.96283,621.7109 283.62282,617.28425 287.49613,612.30427 C 291.36945,607.32429 293.58277,608.43096 294.68944,613.96426 C 295.7961,619.49758 301.32941,620.60424 304.09606,617.83759 C 306.86271,615.07093 317.92934,610.09096 316.26935,611.75095 C 313.9879,614.03238 322.35598,614.5176 321.24932,621.71091"
       id="path2396"
       sodipodi:nodetypes="cssssssscssssss" />
    <path
       style="opacity:1;fill:none;fill-opacity:0.65174124;fill-rule:evenodd;stroke:#000000;stroke-width:1.93665814;stroke-linecap:round;stroke-linejoin:miter;marker:none;marker-start:none;marker-mid:none;marker-end:none;stroke-miterlimit:4;stroke-dasharray:none;stroke-dashoffset:0;stroke-opacity:1;visibility:visible;display:inline;overflow:visible;enable-background:accumulate"
       d="M 351.12918,594.59768 C 351.12918,594.59768 350.02252,587.95772 346.70254,588.51105 C 343.38256,589.06438 338.95591,592.93769 340.6159,596.25768 C 342.27589,599.57766 353.89584,610.64428 351.68252,616.73092 C 349.46919,622.81756 341.16922,625.58421 335.63592,620.05091"
       id="path3168"
       sodipodi:nodetypes="cssss" />
    <path
       style="opacity:1;fill:none;fill-opacity:0.65174124;fill-rule:evenodd;stroke:#000000;stroke-width:1.93665814;stroke-linecap:round;stroke-linejoin:miter;marker:none;marker-start:none;marker-mid:none;marker-end:none;stroke-miterlimit:4;stroke-dasharray:none;stroke-dashoffset:0;stroke-opacity:1;visibility:visible;display:inline;overflow:visible;enable-background:accumulate"
       d="M 357.76915,584.63773 C 357.76915,584.63773 363.30247,578.55109 366.06912,576.8911 C 368.83578,575.23111 361.08914,582.42441 361.08914,587.40439 C 361.08914,592.38437 362.74913,630.01087 363.8558,631.67086 C 364.96246,633.33086 352.23585,618.39092 353.34251,615.62425 C 354.44917,612.85761 368.18092,610.80471 371.60243,612.85761 C 377.13574,616.17759 372.15576,615.62425 371.0491,621.7109 C 370.65317,623.88852 381.56239,624.47756 384.32904,602.34432 C 387.09569,580.21108 384.32904,580.21108 382.66905,586.29772 C 381.00905,592.38437 377.13574,626.13755 386.54237,623.92422"
       id="path3170"
       sodipodi:nodetypes="csssssssss" />
    <path
       style="opacity:1;fill:none;fill-opacity:0.65174124;fill-rule:evenodd;stroke:#000000;stroke-width:1.93665814;stroke-linecap:round;stroke-linejoin:miter;marker:none;marker-start:none;marker-mid:none;marker-end:none;stroke-miterlimit:4;stroke-dasharray:none;stroke-dashoffset:0;stroke-opacity:1;visibility:visible;display:inline;overflow:visible;enable-background:accumulate"
       d="M 387.09569,616.17759 C 387.09569,616.17759 383.7757,610.09095 390.41567,607.32429 C 397.05565,604.55764 404.80228,605.11098 408.6756,607.87763"
       id="path3172"
       sodipodi:nodetypes="css" />
    <path
       style="opacity:1;fill:none;fill-opacity:0.65174124;fill-rule:evenodd;stroke:#000000;stroke-width:1.93665814;stroke-linecap:round;stroke-linejoin:miter;marker:none;marker-start:none;marker-mid:none;marker-end:none;stroke-miterlimit:4;stroke-dasharray:none;stroke-dashoffset:0;stroke-opacity:1;visibility:visible;display:inline;overflow:visible;enable-background:accumulate"
       d="M 406.46228,621.15757 C 406.46228,621.15757 413.65558,614.5176 409.78227,613.96426 C 405.90894,613.41094 399.82231,625.03089 402.58896,626.69088 C 405.35561,628.35087 419.18889,610.64428 419.18889,617.28425 C 419.18889,623.92422 416.97556,628.35087 416.97556,628.35087 C 416.97556,628.35087 426.38218,612.85761 428.59551,620.05091 C 430.80884,627.24421 434.68215,624.47756 437.44881,618.39092 C 440.21547,612.30427 445.19544,613.41094 444.08878,620.05091 C 442.98211,626.69088 433.02215,632.77752 434.12882,612.85761 C 435.23548,592.93769 438.00213,569.69779 438.55547,578.55109 C 439.1088,587.40439 436.89547,616.73092 436.89547,616.73092"
       id="path3176" />
    <path
       style="opacity:1;fill:none;fill-opacity:0.65174124;fill-rule:evenodd;stroke:#000000;stroke-width:1.93665814;stroke-linecap:round;stroke-linejoin:miter;marker:none;marker-start:none;marker-mid:none;marker-end:none;stroke-miterlimit:4;stroke-dasharray:none;stroke-dashoffset:0;stroke-opacity:1;visibility:visible;display:inline;overflow:visible;enable-background:accumulate"
       d="M 454.04873,618.94424 C 454.04873,618.94424 457.36871,615.07093 454.04873,614.5176 C 450.72875,613.96426 445.74877,625.03089 450.17542,626.13755 C 454.60206,627.24421 460.6887,616.73092 462.34869,621.15757 C 464.00868,625.58421 464.56202,627.79754 464.56202,627.79754 C 464.56202,627.79754 464.00868,617.28425 466.77533,615.07093 C 469.542,612.85761 471.75531,610.64428 473.96863,611.75095"
       id="path3178"
       sodipodi:nodetypes="cssscss" />
    <path
       style="opacity:1;fill:none;fill-opacity:0.65174124;fill-rule:evenodd;stroke:#000000;stroke-width:1.93665814;stroke-linecap:round;stroke-linejoin:miter;marker:none;marker-start:none;marker-mid:none;marker-end:none;stroke-miterlimit:4;stroke-dasharray:none;stroke-dashoffset:0;stroke-opacity:1;visibility:visible;display:inline;overflow:visible;enable-background:accumulate"
       d="M 487.24857,609.53762 C 487.24857,609.53762 473.41532,618.39092 475.07531,623.3709 C 476.73529,628.35087 487.80191,612.85761 487.80191,612.85761 C 487.80191,612.85761 487.80191,630.56419 489.4619,644.39747 C 491.12189,658.23074 484.94573,664.78057 467.88199,666.5307 C 446.30209,668.74403 429.22609,664.91384 431.36216,660.9974 C 433.01932,657.95904 475.62862,659.89073 512.7018,663.76405"
       id="path3180"
       sodipodi:nodetypes="cscssss" />
    <path
       style="opacity:1;fill:none;fill-opacity:0.65174124;fill-rule:evenodd;stroke:#000000;stroke-width:1.93665814;stroke-linecap:round;stroke-linejoin:miter;marker:none;marker-start:none;marker-mid:none;marker-end:none;stroke-miterlimit:4;stroke-dasharray:none;stroke-dashoffset:0;stroke-opacity:1;visibility:visible;display:inline;overflow:visible;enable-background:accumulate"
       d="M 395.39565,578.55109 C 395.39565,578.55109 394.289,619.49758 394.84233,624.47756 C 395.39565,629.45753 390.96901,620.60424 390.96901,620.60424"
       id="path3182" />
  </g>
</svg>
