<?xml version="1.0" encoding="UTF-8" standalone="no"?>
<!-- Created with Inkscape (http://www.inkscape.org/) -->

<svg
   xmlns:dc="http://purl.org/dc/elements/1.1/"
   xmlns:cc="http://creativecommons.org/ns#"
   xmlns:rdf="http://www.w3.org/1999/02/22-rdf-syntax-ns#"
   xmlns:svg="http://www.w3.org/2000/svg"
   xmlns="http://www.w3.org/2000/svg"
   xmlns:sodipodi="http://sodipodi.sourceforge.net/DTD/sodipodi-0.dtd"
   xmlns:inkscape="http://www.inkscape.org/namespaces/inkscape"
   id="svg4902"
   version="1.1"
   inkscape:version="0.91 r13725"
   width="178.6756"
   height="56.894184"
   viewBox="0 0 178.6756 56.894184"
   sodipodi:docname="Farley.svg">
  <metadata
     id="metadata4908">
    <rdf:RDF>
      <cc:Work
         rdf:about="">
        <dc:format>image/svg+xml</dc:format>
        <dc:type
           rdf:resource="http://purl.org/dc/dcmitype/StillImage" />
        <dc:title></dc:title>
      </cc:Work>
    </rdf:RDF>
  </metadata>
  <defs
     id="defs4906" />
  <sodipodi:namedview
     pagecolor="#ffffff"
     bordercolor="#666666"
     borderopacity="1"
     objecttolerance="10"
     gridtolerance="10"
     guidetolerance="10"
     inkscape:pageopacity="0"
     inkscape:pageshadow="2"
     inkscape:window-width="1278"
     inkscape:window-height="753"
     id="namedview4904"
     showgrid="false"
     fit-margin-top="0"
     fit-margin-left="0"
     fit-margin-right="0"
     fit-margin-bottom="0"
     inkscape:zoom="2.2299488"
     inkscape:cx="88.675593"
     inkscape:cy="28.459286"
     inkscape:window-x="0"
     inkscape:window-y="1"
     inkscape:window-maximized="0"
     inkscape:current-layer="svg4902" />
  <path
     style="fill:#1c1c1c"
     d="m 9.343931,56.321465 c -0.877982,-0.87799 3.486761,-8.41679 9.023255,-15.58501 l 4.441109,-5.75 -6.316351,-0.0544 C 9.618905,34.872855 1.996939,32.461785 0.33934633,29.822425 -1.0491999,27.611455 2.029467,20.707905 5.830212,17.509785 10.473199,13.602972 19.613501,9.6558407 25.049574,9.2101337 c 7.32431,-0.600524 10.290009,1.8709883 10.826914,9.0227813 0.221041,2.94435 -0.17598,6.66793 -0.903249,8.4714 -0.713705,1.76984 -1.297646,3.92317 -1.297646,4.78519 0,2.33212 3.680405,0.10527 4.548342,-2.75201 0.830525,-2.73411 5.227905,-8.75106 6.39556,-8.75106 1.527549,0 2.068865,3.10617 0.927549,5.32244 -0.616758,1.19766 -2.043585,3.19006 -3.170728,4.42756 -2.446676,2.68623 -1.576478,2.88039 2.394985,0.53439 1.597361,-0.94358 2.904292,-2.51858 2.904292,-3.5 0,-1.05163 0.739164,-1.78439 1.8,-1.78439 2.124893,0 4.136706,1.7761 3.81935,3.37186 -0.123398,0.62048 0.224507,0.11316 0.773122,-1.12736 1.106893,-2.50291 4.144792,-2.26441 6.319897,0.49614 1.088555,1.38155 1.466203,1.37238 3.697853,-0.0899 1.660644,-1.08809 2.703731,-1.27542 3.143127,-0.56446 0.41905,0.67804 1.462589,0.30789 2.876334,-1.02026 2.333699,-2.1924 3.570317,-1.86248 3.570317,0.95251 0,1.45706 0.778505,1.31314 5.75,-1.06298 8.139876,-3.89045 8.959279,-2.3435 0.908517,1.71519 -5.24267,2.64302 -6.655261,3.8323 -6.643204,5.59301 0.01591,2.3231 1.941234,6.25417 1.969374,4.02101 0.02294,-1.82074 5.918833,-8.18355 9.114097,-9.83588 3.875464,-2.00408 6.885534,-1.81228 9.455986,0.60253 l 2.18367,2.05146 2.09988,-3.30146 2.099887,-3.30145 -2.969107,-0.31336 c -4.83576,-0.51036 -3.78199,-3.17633 1.2809,-3.24055 4.027217,-0.0511 4.472267,-0.3656 8.490167,-6.000002 4.37826,-6.1397263 4.23355,-7.0180973 -0.73308,-4.4497533 -1.59147,0.8229833 -3.13917,1.0989723 -3.43933,0.6133073 -0.69779,-1.1290513 1.02307,-2.4291073 5.43224,-4.1038813 1.925,-0.73119 4.50076,-2.224017 5.7239,-3.317394 2.00177,-1.78939502 2.28704,-1.82344002 2.85596,-0.340854 0.40162,1.04661 -0.4597,2.890543 -2.36253,5.057746 -1.64702,1.875852 -4.43563,5.5051333 -6.19691,8.0650683 l -3.20233,4.654423 3.59095,-0.67366 c 2.16598,-0.40634 3.59096,-0.27896 3.59096,0.32099 0,1.09633 -3.29875,2.19302 -6.66036,2.21427 -2.57168,0.0163 -9.655247,10.52479 -10.807607,16.03318 -0.85324,4.0786 -5.189329,11.98047 -6.574184,11.98047 -1.715654,0 -1.014568,-3.37676 2.042943,-9.83979 1.649571,-3.48688 2.999211,-7.42438 2.999211,-8.75 0,-2.14172 -0.44171,-2.41021 -3.965204,-2.41021 -4.69813,0 -9.827358,3.93574 -12.517567,9.60494 -1.43466,3.02332 -1.525242,4.30616 -0.571504,8.09379 0.888786,3.5297 0.856775,4.83432 -0.148334,6.0454 -1.108213,1.33532 -0.978204,1.44803 0.960451,0.83273 2.476863,-0.78613 3.160089,0.85692 0.742158,1.78477 -1.77184,0.67992 -4.5,-0.20231 -4.5,-1.4552 0,-0.48377 -1.516188,-1.51309 -3.369307,-2.28738 -7.342485,-3.06788 -8.415788,-8.76543 -3.130693,-16.61905 3.833336,-5.69631 4.31517,-6.92142 1.950262,-4.95872 -0.852356,0.70739 -2.764856,1.41294 -4.25,1.56789 -1.485144,0.15494 -3.600262,0.41877 -4.700262,0.58627 -1.391618,0.21192 -1.957751,-0.22777 -1.861111,-1.44544 0.183471,-2.31173 -0.294951,-2.21719 -3.829205,0.75669 -3.428592,2.88497 -5.249157,2.38045 -4.349201,-1.20526 0.612464,-2.44025 0.569276,-2.43047 -2.668973,0.60446 -1.81033,1.69667 -3.96651,3.15487 -4.79151,3.24044 -0.825,0.0856 -2.85,0.23349 -4.5,0.32869 -5.055623,0.29172 -5.89822,0.85409 -8.945297,5.97028 -3.735996,6.27292 -9.344084,11.89644 -14.473374,14.51321 -4.495211,2.29329 -4.496,2.29349 -5.412991,1.3765 z m 11.475474,-8.0839 c 4.13591,-3.73655 7.585644,-8.9527 10.417082,-15.75111 l 1.665942,-4 -2.275618,2 c -6.756349,5.93804 -17.951218,20.0545 -17.951218,22.63607 0,1.37483 3.615423,-0.79383 8.143812,-4.88496 z m 52.138386,-4.91537 c 0.05571,-5.01878 -0.916996,-9.34074 -2.099586,-9.32891 -1.374002,0.0138 -5.182171,6.6871 -5.167299,9.05505 0.01837,2.92572 0.8229,4.24432 3.484687,5.71131 2.782044,1.53326 3.719782,0.18513 3.782198,-5.43745 z m -43.02722,-15.12013 c 3.701209,-3.70121 4.245022,-4.80616 4.245022,-8.62533 0,-6.600165 -2.570814,-8.965191 -9,-8.279567 -9.605189,1.024322 -19.501499,7.055287 -22.208589,13.534267 -1.253602,3.00029 -1.25037,3.62463 0.02537,4.90037 2.193485,2.19349 7.351543,3.17301 15.4382,2.93174 7.089519,-0.21152 7.351793,-0.31327 11.5,-4.46148 z m 13.516518,-3.77745 c -0.3352,-0.3352 -1.148481,0.44159 -1.807291,1.7262 -1.145119,2.23285 -1.118297,2.25967 0.609456,0.60945 0.99401,-0.9494 1.533036,-2.00044 1.197835,-2.33565 z m 95.895171,29.89517 c -2.34683,-2.34682 0.23232,-8.84338 6.95257,-17.51272 4.63262,-5.97623 6.75282,-11.8483 4.25576,-11.78668 -0.75625,0.0187 -3.14724,0.87202 -5.31331,1.89636 -2.16607,1.02433 -4.49341,1.64941 -5.17186,1.38906 -0.67845,-0.26034 -2.13611,0.01 -3.23925,0.60006 -2.39347,1.28095 -5.15058,0.43815 -5.15058,-1.57444 0,-1.01291 -1.31622,-0.53547 -4.43018,1.60699 -5.25394,3.61481 -5.41535,3.63983 -6.39509,0.99133 -0.75175,-2.03217 -0.79014,-2.03396 -3.21778,-0.1504 -3.33483,2.58744 -11.95695,2.68871 -11.95695,0.14044 0,-1.76795 6.48169,-8.93333 8.08095,-8.93333 1.5258,0 2.21458,4.93899 0.90827,6.51299 -2.02726,2.44271 -0.0346,1.69101 4.01078,-1.51299 4.76713,-3.77564 6.43935,-3.88666 5.55645,-0.3689 l -0.66036,2.6311 3.30195,-2.05208 c 1.81726,-1.12937 4.65089,-4.48685 6.30196,-7.46698 3.72199,-6.718073 6.92116,-11.2842593 10.85484,-15.4931383 3.05876,-3.27275302 5.64516,-4.23310702 5.64516,-2.0961 0,2.515251 -7.11244,13.5960673 -11.42805,17.8043083 -4.56486,4.4513 -5.92685,8.04179 -3.05051,8.04179 0.83679,0 2.04767,-1.2375 2.69084,-2.75 1.32629,-3.11892 4.72347,-7.249998 5.96203,-7.249998 1.43707,0 0.89364,3.966458 -0.92431,6.746508 -2.16067,3.30415 0.19819,2.17337 3.10219,-1.48711 1.48821,-1.87588 2.1352,-2.09979 3.29238,-1.13942 1.09086,0.90533 1.72099,0.91446 2.59781,0.0376 2.09623,-2.09622 2.97302,-1.21355 2.60701,2.62448 l -0.36068,3.78211 7.50564,-6.05055 c 10.2094,-8.230133 17.00565,-12.7109093 17.00565,-11.211852 0,0.678776 -4.3875,4.466063 -9.75,8.416192 -14.51939,10.69529 -16.4242,13.04663 -19.67073,24.282 -1.50979,5.225 -3.46878,10.0625 -4.3533,10.75 -1.7468,1.35771 -4.49642,1.64622 -5.5593,0.58333 z m 4.88428,-3.77074 c 1.91144,-2.91723 4.66653,-12.81503 3.33868,-11.99437 -1.52758,0.94409 -6.87011,10.79154 -6.88025,12.68178 -0.0134,2.49123 1.67335,2.16384 3.54157,-0.68741 z m -32.42339,-24.31259 c 1.24387,-1.58605 1.2085,-1.62142 -0.37756,-0.37755 -0.9625,0.75484 -1.75,1.54234 -1.75,1.75 0,0.82303 0.82119,0.2933 2.12756,-1.37245 z M 143.40319,9.7161287 c 1.41079,-2.07368 2.3373,-3.998109 2.0589,-4.276508 -0.59662,-0.596613 -8.5634,9.7445273 -9.47136,12.2941143 -0.77927,2.18825 3.94713,-2.924007 7.41246,-8.0176063 z"
     id="path5452"
     inkscape:connector-curvature="0" />
</svg>
