<?xml version="1.0" encoding="UTF-8"?>
<svg version="1.0" xmlns="http://www.w3.org/2000/svg" width="356" height="155" >
<path fill="#231F20" d="M3.547,27.892C2.975,22.369,2.54,16.785,2.644,11.229c0.024-1.298,0.093-2.616,0.447-3.87 C2.998,7.687,2.459,7.138,3.112,8.003c0.23,0.306,0.457,0.614,0.684,0.923c1.36,1.856,2.593,3.8,3.755,5.786 c11.112,19,14.901,41.607,19.35,62.828c2.688,12.825,5.422,25.645,7.62,38.564c1.643,9.654,3.69,20.221,2.282,30.041 c-0.326,2.272-1.102,5.672-3.883,5.885c-3.921,0.299-8.563-1.271-12.257-2.429c-8.592-2.691-18.715-8.466-18.423-18.698 c0.212-7.416,6.44-14.063,11.323-19.034c5.322-5.417,11.168-10.292,16.542-15.659c11.165-11.15,18.666-24.423,18.193-40.569 c-0.037-1.246-1.899-1.563-2.21-0.299c-1.711,6.958-2.688,19.475,5.351,23.045c9.808,4.356,17.63-12.231,20.455-18.429 c-0.699-0.189-1.397-0.378-2.096-0.568c0.11,4.603,0.79,12.611,5.318,15.183c5.806,3.297,12.026-2.394,14.528-7.365 c-0.699-0.189-1.397-0.378-2.096-0.568c0.13,4.621,6.185,6.861,9.759,7.842c6.556,1.8,13.573,1.155,20.252,2.325 c7.214,1.263,14.339,3.74,20.6,7.553c4.87,2.966,9.964,8.104,6.964,14.12c-1.735,3.479-5.007,6.021-8.745,6.965 c-12.28,3.101-14.246-14.668-14.081-22.555c0.03-1.452-2.22-1.449-2.25,0c-0.189,9.025,1.32,23.114,12.497,24.917 c6.778,1.093,15.259-4.959,15.778-12.02c0.925-12.588-18.024-18.34-27.293-20.556c-7.978-1.907-16.31-1.048-24.196-3.213 c-2.244-0.616-6.957-2.551-7.036-5.379c-0.03-1.061-1.571-1.612-2.096-0.568c-2.301,4.571-9.258,10.862-13.21,4.447 c-1.918-3.115-2.358-7.537-2.444-11.129c-0.025-1.039-1.607-1.641-2.096-0.568c-2.611,5.728-8.629,19.725-17.115,17.688 c-7.492-1.797-5.899-15.203-4.579-20.572c-0.737-0.1-1.473-0.199-2.21-0.299c0.655,22.339-14.449,36.244-29.558,50.283 C6.115,115.566-7.86,131.264,5.977,144.205c5.788,5.413,14.207,8.099,21.838,9.479c4.92,0.89,8.656,0.955,10.534-4.276 c2.605-7.255,0.806-16.606-0.153-23.978c-1.567-12.044-4.033-23.971-6.486-35.859C26.31,63.402,22.586,34.598,8.215,11.454 c-1.149-1.851-5.8-9.983-7.411-4.279c-1.767,6.257-0.167,14.345,0.493,20.717C1.445,29.32,3.696,29.335,3.547,27.892 L3.547,27.892z"/>
<path fill="#231F20" d="M142.143,37.71c1.016-1.342,2.129-2.608,3.268-3.846c2.505-2.722,5.398-5.689,7.153-0.809 c2.032,5.651,0.561,12.227,1.598,18.126c1.95,11.096,9.912,18.389,21.311,18.185c10.447-0.187,19.506-7.775,23.271-17.23 c6.097-15.312,0.983-31.904-6.85-45.563c-0.722-1.258-2.666-0.125-1.943,1.136c8.123,14.163,13.489,32.254,4.788,47.428 c-6.289,10.968-22.787,16.906-32.819,7.223c-3.861-3.728-5.463-9.495-5.992-14.676c-0.546-5.353,0.679-11.354-1.638-16.417 c-3.771-8.245-10.902,1.099-14.088,5.306C139.324,37.732,141.279,38.851,142.143,37.71L142.143,37.71z"/>
<path fill="#231F20" d="M237.507,46.343c-0.64-3.592-4.875-2.494-7.149-1.513c-5.444,2.347-8.784,8.749-7.309,14.486 c1.326,5.157,6.683,4.608,10.113,2.192c5.806-4.089,8.921-11.983,8.885-18.867c-0.475,0.362-0.949,0.723-1.424,1.085 c1.466,0.385,2.843,0.963,4.149,1.73c2.071,1.217-1.51,6.421-2.028,7.807c-0.979,2.615-1.358,7.691,2.063,8.839 c3.691,1.238,6.505-0.888,8.169-4.084c2.397-4.606,1.218-10.474-1.332-14.695c-0.324,0.564-0.647,1.128-0.972,1.693 c3.696-0.051,7.298,1.341,9.955,3.896c2.655,2.551,3.49,7.666,7.348,8.944c3.083,1.022,6.7-8.223,7.636-9.906 c4.519-8.128,8.796-16.411,12.51-24.94c2.372-5.45,7.563-15.541,5.055-21.654c-2.354-5.734-9.307,8.52-9.709,9.367 c-5.199,10.944-8.75,23.848-4.728,35.734c2.304,6.808,7.849,8.828,12.952,3.489c2.685-2.81,4.417-6.542,5.909-10.078 c0.577-1.368,2.588-5.301,1.472-6.842c-0.45-0.622-1.173-0.721-1.767-0.228c-1.923,1.597-1.866,6.911-2.041,9.14 c-0.257,3.266-0.142,9.113,3.341,10.926c6.783,3.532,13.192-7.648,15.789-12.403c-0.699-0.189-1.397-0.378-2.097-0.568 c0.161,5.648,5.698,8.37,10.582,9.067c7.639,1.091,15.518,0.623,23.066,2.343c2.282,0.52,2.554,0.787,0.082,2.506 c-3.638,2.53-8.621,1.574-11.134-1.984c-1.067-1.511-1.835-3.452-1.884-5.302c-0.211-8.01,16.081-9.729,21.211-10.545 c1.43-0.228,0.821-2.396-0.598-2.17c-6.479,1.031-21.698,2.809-22.786,11.789c-0.75,6.192,5.071,12.668,11.384,11.799 c2.351-0.323,8.571-2.172,8.107-5.577c-0.369-2.713-5.14-3-7.093-3.288c-5.42-0.799-10.932-0.95-16.387-1.397 c-4.566-0.375-12.13-1.218-12.302-7.241c-0.031-1.083-1.543-1.582-2.097-0.568c-2.343,4.292-5.372,9.157-9.729,11.594 c-5.088,2.846-5.334-6.304-5.208-8.981c0.065-1.391,0.109-6.493,1.382-7.549c-0.589-0.076-1.178-0.152-1.767-0.228 c0.153,0.212-1.288,4.064-1.699,5.108c-1.404,3.563-3.386,7.051-6.038,9.825c-3.743,3.917-6.893,0.681-8.483-3.236 c-1.834-4.514-1.821-9.683-1.448-14.455c0.724-9.275,4.937-20.413,10.681-27.795c2.505-3.219,0.825,4.096,0.486,5.633 c-0.651,2.945-1.72,5.805-2.799,8.614c-4.52,11.773-10.707,22.997-16.959,33.925c-0.6,1.048-1.206,2.093-1.822,3.132 c-1.059,1.786-5.97-6.563-6.829-7.591c-2.63-3.148-7.563-4.609-11.546-4.554c-0.84,0.012-1.419,0.951-0.972,1.693 c2.355,3.898,4.474,15.067-2.778,15.807c-4.604,0.47-1.913-6.781-1.274-8.168c0.601-1.306,1.946-2.334,2.399-3.684 c1.358-4.049-3.718-6.041-6.826-6.857c-0.703-0.185-1.428,0.347-1.424,1.085c0.033,6.318-3.862,17.602-11.411,18.608 c-5.172,0.689-3.196-7.585-2.125-9.713c0.652-1.296,8.393-8.437,9.076-4.597C235.591,48.368,237.759,47.762,237.507,46.343 L237.507,46.343z"/>
</svg>