<?xml version="1.0" encoding="UTF-8"?>
<svg version="1.1" xmlns="http://www.w3.org/2000/svg" width="140" height="46" >
<path d="M13.71,6.427c-0.555-0.345-1.063-0.739-1.553-1.171c-0.322-0.285-0.75-0.658-0.917-1.07 c0.128,0.318,1.293-0.213,1.871-0.343c1.638-0.369,3.388-0.321,5.049-0.17c0.626,0.057,3.081,0.773,3.072,0.83 c-0.357,2.271,3.111,3.245,3.472,0.957c0.969-6.156-8.82-5.782-12.549-5.089C9.667,0.833,7.147,2.268,7.77,5.143 c0.409,1.89,2.587,3.438,4.124,4.393C13.871,10.765,15.677,7.65,13.71,6.427L13.71,6.427z"/>
<path d="M18.823,1.579c-4.309,0.714-4.178,8.737-4.204,11.613c-0.044,4.855,0.448,9.728,0.506,14.586 c0.047,3.926,0.67,10.395-1.958,13.685c-1.759,2.201-6.188-5.341-6.708-6.307c-2.038-3.781-3.026-8.144-2.86-12.421 c0.248-6.388,5.366-9.774,11.04-11.333c6.107-1.679,12.274,1.466,16.304,5.878c1.908,2.089,1.719,3.979-0.7,5.51 c-1.894,1.198-6.609,0.904-3.15-1.359c4.414-2.888,10.204-1.663,13.121,2.537c2.621,3.772,5.383,7.437,7.824,11.332 c1.1,1.755,2.419,3.792,2.684,5.89c0.174,1.383-4.056-0.313-4.364-0.477c-1.44-0.77-2.156-2.444-2.634-3.892 c-1.839-5.571,1.647-12.325,5.158-16.442c2.584-3.03,8.608-3.817,8.608,1.709c0,1.43-0.38,2.695,0.01,4.108 c0.665,2.41,3.865,2.271,5.674,1.608c2.607-0.954,5.211-7.417,7.463-7.357c-0.518-0.903-1.036-1.806-1.554-2.708 c-4.093,5.571-0.449,10.618,6.223,8.751c3.762-1.052,10.605-8.235,13.631-3.385c1.851,2.965,3.55,5.784,7.396,6.201 c4.403,0.477,7.997-1.324,11.291-4.117c2.084-1.768,5.612-5.963,4.598-9.05c-2.184-6.64-9.601,0.902-10.813,4.319 c-2.093,5.895,2.636,10.98,8.706,9.85c7.147-1.331,13.596-6.303,19.368-10.436c2.417-1.73,4.776-3.544,7.247-5.198 c0.351-0.235,0.712-0.451,1.078-0.659c-1.66,0.94-0.894-3.497-2.146-1.16c-1.27,2.369-2.803,4.611-4.253,6.871 c-2.432,3.79-4.907,7.58-6.617,11.76c-0.86,2.104-0.554,4.078-2.313,5.853c-1.14,1.148-1.676,2.194-1.809,3.808 c-0.19,2.315,3.411,2.297,3.6,0c0.09-1.085,1.632-1.983,2.162-2.869c0.83-1.389,1.136-2.7,1.369-4.306 c0.462-3.19,2.967-6.45,4.619-9.125c1.931-3.125,3.989-6.169,5.867-9.328c0.592-0.995,1.709-2.503,1.266-3.77 c-1.625-4.647-17.092,8.646-19.104,9.929c-3.698,2.357-9.926,6.808-14.451,4.562c-4.059-2.014,0.045-7.359,2.371-8.842 c0.727-0.463-1.687,3.592-1.645,3.54c-1.563,1.988-3.72,3.497-6.054,4.429c-8.336,3.332-7.078-7.7-13.701-7.687 c-3.23,0.006-5.833,1.578-8.534,3.204c-0.667,0.402-8.257,4.448-7.585,1.179c0.182-0.882,0.81-1.786,1.34-2.507 c0.85-1.157-0.312-2.676-1.554-2.708c-3.012-0.08-4.583,2.794-6.115,4.967c-1.001,1.419-3.905,4.764-3.502,1.146 c0.222-1.997-0.108-3.69-1.102-5.417c-1.936-3.364-6.464-3.922-9.704-2.601c-4.389,1.791-7.417,7.155-8.969,11.348 c-2.484,6.712-2.115,18.123,7.309,18.889c9.078,0.738,4.726-8.296,1.954-12.72c-4.483-7.155-9.209-16.602-18.837-16.091 c-4.067,0.216-14.014,4.995-8.23,9.912c4.115,3.497,13.813-1.427,12.65-7.001C34.371,11.05,22.948,6.863,15.662,7.586 C5.712,8.575-0.602,16.2,0.045,25.904c0.435,6.527,3.978,15.944,10.328,18.959c14.241,6.76,4.759-39.043,9.407-39.813 C22.066,4.672,21.093,1.203,18.823,1.579L18.823,1.579z"/>
</svg>