<?xml version="1.0" encoding="UTF-8"?>
<!DOCTYPE svg PUBLIC "-//W3C//DTD SVG 1.1//EN" "http://www.w3.org/Graphics/SVG/1.1/DTD/svg11.dtd">
<!-- Creator: CorelDRAW -->
<svg xmlns="http://www.w3.org/2000/svg" xml:space="preserve" width="2.04724in" height="1.29921in" style="shape-rendering:geometricPrecision; text-rendering:geometricPrecision; image-rendering:optimizeQuality; fill-rule:evenodd; clip-rule:evenodd"
viewBox="0 0 2.04724 1.29921"
 xmlns:xlink="http://www.w3.org/1999/xlink">
 <defs>
  <style type="text/css">
   <![CDATA[
    .fil0 {fill:#1F1A17}
   ]]>
  </style>
 </defs>
 <g id="Layer_x0020_1">
  <metadata id="CorelCorpID_0Corel-Layer"/>
  <g id="_25097496">
   <path id="_49789904" class="fil0" d="M0.689 0.559657c0.00339764,-0.0033937 0.00339764,-0.0033937 0.00226378,-0.00848819 -0.00113386,0.00226378 -0.00169685,0.00452756 -0.00226378,0.00735827 -0.020937,0.0243346 -0.041878,0.0486693 -0.062815,0.0735669 -0.0079252,0.000566929 -0.0079252,0.000566929 -0.0141496,-0.00452756 0,-0.0531969 0.0379173,-0.116579 0.0701732,-0.155626 0.00339764,0 0.00679134,0 0.010189,0 0.00848819,0.0169724 -0.010189,0.0305591 -0.00679134,0.0424449 0.0135787,-0.0181142 0.0277283,-0.0362205 0.041878,-0.0537638 0.010185,0 0.011315,-0.00339764 0.0248976,0.00565748 -0.00225984,0.0209409 -0.00792126,0.0322559 -0.00679134,0.0367874 0.0169803,-0.0260354 0.0169803,-0.0260354 0.0333898,-0.0452756 0.00679134,0.00112992 0.0135827,0.00226378 0.0209409,0.00396457 0,0.0186732 -0.0113189,0.0447047 -0.0198071,0.0656457 -0.00452756,0.00848819 -0.00452756,0.00848819 -0.0033937,0.0152795 0.00169685,-0.00396457 0.00396063,-0.00792126 0.00622441,-0.0113189 0.00396063,-0.00112992 0.041878,-0.0571575 0.0667795,-0.0877205 0.00792126,0.00112992 0.0158465,0.00226378 0.0237677,0.00396457 -0.00396063,0.0277244 -0.0254685,0.052063 -0.0322598,0.0803583 0.010189,0.00396063 0.010189,0.00396063 0.0147165,0.00905906 0.0339528,-0.0226417 0.110921,-0.0865906 0.143744,-0.0209409 0.00509449,0.0265984 -0.00112992,0.0628189 -0.00905118,0.0922441 0.0772441,-0.0372874 0.15074,-0.0783071 0.226933,-0.117713 0.0401772,-0.147142 0.0837559,-0.333898 0.194114,-0.444252 0.0150984,0 0.0159016,0.000169291 0.0254646,0.011315 -0.00961811,0.0130157 -0.0169803,0.0169803 -0.0560276,0.0707441 -0.0628189,0.108091 -0.10413,0.221843 -0.132992,0.34635 0.00283465,0 0.00283071,-0.0045315 0.127902,-0.0577283 0.0181102,-0.0316929 0.0367835,-0.0633819 0.0554606,-0.0950748 0.0531929,0 -0.0079252,0.0475394 -0.00226772,0.0769685 0.0113189,-0.00622441 0.010189,-0.00849213 0.0265984,-0.000566929 0,0.0158425 -0.0430079,0.0288622 -0.0514961,0.0322559 -0.0124488,0.0243386 -0.0565945,0.0950748 -0.0520669,0.123374 0.0164134,-0.0209409 0.0362205,-0.0452756 0.0464094,-0.0696102 0.00679134,0.00169685 0.0135787,0.00339764 0.020937,0.00509449 0.00226772,0.0186772 -0.00566142,0.041315 -0.0118858,0.0639488 0.0220709,0 0.0673465,-0.0639488 0.0758346,-0.0803622 0.0073622,0.00225984 0.0152795,0.00452756 0.0232047,0.00735827 0.000566929,0.00962205 -0.0107559,0.0469724 -0.0147165,0.0696102 0.0356535,-0.0186772 0.0582913,-0.0373543 0.0781024,-0.0724409 0.0101811,0 0.0118819,0.00169685 0.0243307,0.0107559 0.0186772,-0.0141535 0.0152795,-0.00905906 0.0367874,-0.00679134 0.000566929,0.0158425 0.00113386,0.031689 0.00169685,0.0475354 0.108091,-0.0396181 0.251839,-0.0452756 0.34748,-0.117713 3.93701e-006,-0.0560276 -0.18676,-0.0486693 -0.210524,-0.0571614 0.000562992,-0.00226378 0.00169291,-0.00452362 0.00282677,-0.00679134 0.0639528,-0.0101811 0.201472,-0.0220709 0.236559,0.0577283 0.0118504,0.0435079 -0.127669,0.0956496 -0.403508,0.164685 -0.00452756,-0.0169803 -0.00452756,-0.0169803 -0.00509449,-0.0475394 -0.0175394,0.020937 -0.0356535,0.0531969 -0.0633819,0.0560276 -0.00169685,-0.00679134 -0.0033937,-0.0130157 -0.00509449,-0.0192441 -0.0232008,0.0124528 -0.0441417,0.0175472 -0.0537638,0.0424449 -0.0271614,0.00679134 -0.0305591,-0.00848819 -0.0401772,-0.0232008 -0.0164094,0.00452756 -0.0277323,0.00792126 -0.040748,0.00792126 -0.00565748,-0.00622441 -0.0113228,-0.0124488 -0.0164134,-0.0181102 -0.041878,0.041878 -0.0588543,0.0345236 -0.062252,-0.0198071 -0.0220669,0.0118858 -0.0548937,0.0588583 -0.0775315,0.0362205 3.93701e-006,-0.0390512 0.0237677,-0.0679094 0.0424449,-0.0984724 -0.00169685,-0.000566929 -0.0033937,-0.00112992 -0.00452756,-0.00169685 -0.0130118,0.00792126 -0.0260315,0.0158465 -0.0390472,0.0243346 -0.0600433,0.300244 -0.135398,0.834551 -0.587996,0.74872 -0.250126,-0.0977244 -0.000429134,-0.41065 0.117713,-0.503677 0.0605551,-0.040185 0.121106,-0.0797953 0.182224,-0.119409 0.0124528,-0.0452756 0.0232047,-0.0775276 0.0181142,-0.119972 -0.0526339,-3.93701e-006 -0.0848898,0.0373504 -0.125071,0.0650787 -0.0135827,0.000566929 -0.0265984,0.00112992 -0.0396142,0.00169685 -0.00283071,-0.00679134 -0.00509449,-0.0135827 -0.00735827,-0.0198071 -0.0147126,0.0152795 -0.0333898,0.0430118 -0.0554606,0.0396142 -0.00339764,-0.00905512 -0.00622441,-0.0181063 -0.00905512,-0.0271614 -0.0147165,0.0198071 -0.0237677,0.041311 -0.0486693,0.0390512 -0.00905512,-0.0169843 -0.000566929,-0.0379213 0.00396063,-0.0532008zm0.593091 -0.0152795c0.00339764,-0.00905512 0.00735433,-0.0181102 0.0113189,-0.0271614 0.00169685,-3.93701e-006 0.0033937,0 0.00565748,0 0.00848819,-0.0209449 0.0373543,-0.0679134 0.0611181,-0.0650866 -0.0237638,0.0356535 -0.0526299,0.0605551 -0.0780945,0.092248zm0.173173 0.0169724c0.00169685,-0.00338583 0.0033937,-0.0067874 0.00509449,-0.0101811 0,0.00338976 0,0.00679528 0.000562992,0.010185 -0.00226378,-3.93701e-006 -0.00396063,0 -0.00565748,-3.93701e-006zm-0.559134 0.19298c-0.0147126,-0.0594173 -0.0135827,-0.0497992 0.0396181,-0.0797913 -0.0215039,0.0486693 -0.0215079,0.0486693 -0.0396181,0.0797913zm-0.195811 0.493492c-0.328295,-0.0967402 0.0361299,-0.455614 0.173173,-0.533669 -0.000562992,0.0322559 -0.00452756,0.0452756 0.0113189,0.0797953 0.0113189,0 0.0141496,0.00226378 0.0260315,-0.00792126 0.0260354,-0.0458425 0.0260354,-0.0458425 0.0673465,-0.135827 0.102433,-0.0594173 0.102429,-0.0594173 0.230894,-0.127894 -0.0631969,0.330575 -0.121339,0.731354 -0.508764,0.725516z"/>
   <path id="_49529928" class="fil0" d="M0.144579 1.15444c-0.367622,-0.105685 0.355913,-0.619913 0.440858,-0.681374 0.00622441,-0.0328228 0.0464055,-0.288055 0.0865866,-0.297677 -0.0220709,0.0899803 -0.0447087,0.182795 -0.062252,0.27787 0.0894134,-0.0515 0.179398,-0.105264 0.273343,-0.153366 -0.0350906,-0.0215079 -0.0475394,-0.0288622 -0.0435748,-0.0650787 0.0124488,0.00225591 0.0283622,0.0173465 0.0481024,0.0396102 0.0101378,0.0118701 0.0294567,0.00279528 0.0396142,0.00113386 0.0684764,-0.0209409 0.134689,-0.0464055 0.204862,-0.0713071 0.00687795,-0.00137008 0.0292283,0.00285433 0.0164134,0.010752 -0.0594213,0.0237677 -0.0594213,0.0237677 -0.110358,0.040748 0.0226417,-0.00452756 0.0452756,-0.00848819 0.0679134,-0.0124528 0,0.00169291 0,0.00339764 0,0.00566142 -0.0515,0.020374 -0.142043,0.0582913 -0.193543,0.0582913 -0.00226378,0.00452362 -0.0956417,0.0509331 -0.202602,0.111488 -0.0356535,0.0226378 -0.0707402,0.0452717 -0.105831,0.0684764 -0.0147126,0.0696102 -0.0294291,0.13978 -0.0441417,0.209957 -0.0655709,0.206858 -0.179417,0.427776 -0.41539,0.457268zm-0.00566142 -0.020378c-0.286394,-0.116146 0.353854,-0.566488 0.437465,-0.628736 -0.0147165,0.0865827 -0.0350906,0.174299 -0.0650827,0.26315 -0.031126,0.0752717 -0.0701732,0.143748 -0.117713,0.213921 -0.0716693,0.083626 -0.143154,0.14374 -0.254669,0.151665z"/>
   <path id="_50306144" class="fil0" d="M1.35283 0.886197c-0.00396063,-0.00339764 -0.00792126,-0.00622835 -0.0118858,-0.00905512 0,-0.0288661 0.00566142,-0.041311 0.0135827,-0.0673425 -0.0905433,-0.00509843 -0.0497992,-0.0724409 -0.010752,-0.119413 0.0130197,0.0033937 0.0130157,0.0033937 0.0209409,0.00849213 3.93701e-006,0.0294252 -0.0384843,0.0492323 -0.0356535,0.0814921 0.0452756,-3.93701e-006 0.0475354,-0.020374 0.0690433,-0.0588583 0.0147126,-0.0209409 0.0294291,-0.041878 0.0447047,-0.062252 0.0209409,0 0.0220748,-0.00452756 0.0249055,0.019811 -0.0175472,0.00848425 -0.0260354,0.0271614 -0.0373543,0.0447047 0.00226772,0.000566929 0.00509449,0.00113386 0.0079252,0.00226378 3.93701e-006,0.00679134 0.000562992,0.0135827 0.00112992,0.0209409 -0.00452756,0.00565354 -0.0294291,0.0260315 -0.0294291,0.0356535 -0.041878,0.0152756 -0.0215039,0.0882835 -0.0571575,0.103563z"/>
   <path id="_49354032" class="fil0" d="M1.45526 0.87035c-0.0220709,-0.0299961 -0.00283071,-0.0911142 -0.00169685,-0.121677 0.00848819,-0.0441417 0.0339567,-0.115445 0.093378,-0.083189 0.0130157,0.0164094 0.0192402,0.0294291 0.00792126,0.0554606 -0.0492362,0.0367874 -0.0679094,0.0899843 -0.082626,0.146575 -0.00565748,0.000562992 -0.0113189,0.00170079 -0.0169764,0.00283071zm0.0282953 -0.110358c0.00452756,-0.0345197 0.010189,-0.0730039 0.0509331,-0.0769606 -0.00679134,0.0254606 -0.0345197,0.0543268 -0.0509331,0.0769606z"/>
  </g>
 </g>
</svg>
