<?xml version="1.0" encoding="UTF-8"?>
<svg version="1.0" xmlns="http://www.w3.org/2000/svg" width="236" height="66" >
<path fill="#231F20" d="M20.998,4.115c-0.8,0.399-5.879,3.755-2.176,3.634c0.678-0.021,1.617-0.572,2.176-0.843 c2.492-1.203,4.715-2.409,7.423-3.16c2.164-0.599,4.41-1.11,5.601-3.151c0.384-0.657-0.85-0.72-1.178-0.432 c-5,4.395-9.843,8.977-14.582,13.651C11.722,20.264,4.011,27.33,0.046,35.78c0.476,0.013,0.953,0.025,1.429,0.038 c0.172-1.285,0.378-2.565,0.598-3.844c0.176-1.028,0.389-2.05,0.62-3.066c0.127-0.582,0.292-1.151,0.495-1.709 c0.361-1.064-0.08,0.585,0.013,1.037c0.142,0.689,1.593,0.313,1.449-0.389c-0.321-1.557-1.435-3.339-2.666-1.263 c-1.502,2.533-1.595,6.476-1.979,9.337c-0.102,0.755,1.207,0.512,1.429,0.038C5.349,27.617,13.044,20.656,19.48,14.26 C24.119,9.652,28.9,5.166,33.812,0.848c-0.393-0.144-0.785-0.288-1.178-0.432c-1.348,2.309-5.942,2.663-8.29,3.495 c-0.952,0.338-6.25,2.856-2.698,1.085C22.532,4.554,21.74,3.745,20.998,4.115L20.998,4.115 M30.855,14.407c2.171-5.249-5.321,1.872-6.016,2.675c-3.454,3.987-6.592,8.271-9.664,12.557 c-0.768,1.071-4.925,5.631-4.436,7.109c0.053,0.159,0.484,0.057,0.581,0.04c1.454-0.235,2.544-1.736,3.473-2.731 c2.425-2.597,4.74-5.297,6.996-8.041c-0.475,0.091-0.949,0.183-1.424,0.273c-1.111,4.545,3.101,2.829,5.682,2.14 c4.897-1.308,11.124-2.283,15.465-5.047c1.547-0.985,3.888-5.999,0.328-5.345c-5.511,1.014-9.661,6.133-12.826,10.373 c-0.385,0.515-5.04,7.104-1.679,5.835c2.19-0.826,4.089-2.539,5.917-3.944c0.764-0.594,1.537-1.177,2.316-1.75 c-0.642,0.479,3.492-2.979,2.921-2.181c-0.719,1.004-1.422,2.019-2.122,3.036c-10.765,15.655,11.378-4.927,11.426-0.631 c0.003,0.229,1.336-0.083,1.437-0.331c0.815-2.007,1.609-4.061,2.695-5.938c0.133-0.23-0.712-0.064-0.763-0.053 c-5.435,1.276-9.333,9.397-11.687,13.554c-0.147,0.26,1.147-0.083,1.26-0.14c9.662-4.908,19.206-11.456,26.136-19.841 c0.074-0.09-1.125-0.039-1.363,0.209c-5.974,6.226-12.446,13.03-16.232,20.852c-0.097,0.199,1.229-0.01,1.424-0.273 c1.178-1.593,2.513-3.048,3.965-4.395c1.893-1.754,4.811-1.973,3.46,1.11c-0.303,0.691-0.793,1.342-1.253,1.938 c-0.069,0.09,1.169,0.017,1.424-0.273c3.14-3.57,7.091-4.729,11.033-7.012c1.792-1.037,6.132-3.177,6.386-5.561 c0.024-0.229-1.056,0.094-1.134,0.128c-1.681,0.744-3.032,3.476-4.059,4.874c-1.6,2.177-4.878,5.604-5.087,8.441 c-0.019,0.251,1.173-0.134,1.272-0.197c1.681-1.075,3.369-2.138,5.061-3.195c1.964-1.226,5.406-3.19,6.119-4.147 c-2.211,2.97-5.336,6.088-6.887,9.45c-0.115,0.249,1.198-0.055,1.363-0.209c2.14-2.004,9.146-3.78,9.231-7.359 c0.003-0.115-0.362-0.071-0.402-0.067c-2.471,0.254-2.609,4.483-4.29,5.981c-0.041,0.037-0.124,0.121-0.034,0.166 c1.604,0.803,6.713-2.439,8.091-2.935c2.13-0.766-1.036,2.938,0.017,3.431c-0.56-0.262-0.667-0.498-1.344-0.424 c-1.732,0.191-3.177,1.882-4.403,2.894c-0.272,0.225,1.05,0.064,1.303-0.145c1.074-0.886,2.062-2.323,3.563-1.621 c0.348,0.162,1.166-0.082,1.397-0.375c5.438-6.868-1.199-4.036-4.813-2.526c-0.669,0.28-1.335,0.566-2.003,0.849 c-0.771,0.327-0.499,0.587,0.103-0.029c1.195-1.225,1.768-3.257,2.49-4.779c-0.257,0.542-2.416,2.042-3.022,2.524 c-1.109,0.884-2.424,1.587-3.647,2.305c-1.183,0.693-2.527,1.308-3.539,2.255c0.455-0.069,0.909-0.139,1.363-0.209 c1.564-3.389,4.714-6.53,6.943-9.525c0.153-0.206-1.022,0.025-1.121,0.071c-4.425,2.052-8.534,5.004-12.635,7.627 c0.424-0.065,0.848-0.131,1.272-0.197c0.167-2.274,2.679-4.953,3.916-6.728c1.001-1.436,2.944-5.335,4.6-6.068 c-0.378,0.043-0.756,0.086-1.134,0.129c-0.146,1.375-2.561,2.86-3.568,3.642c-2.291,1.775-5.309,2.56-7.892,3.881 c-2.257,1.153-4.272,3.045-5.935,4.936c0.475-0.091,0.949-0.183,1.424-0.273c1.479-1.917,2.983-5.932-1.035-4.855 c-3.395,0.91-5.976,4.033-7.985,6.749c0.475-0.091,0.949-0.183,1.424-0.273c3.759-7.765,10.18-14.542,16.111-20.723 c-0.455,0.069-0.909,0.14-1.363,0.209c-6.842,8.279-16.271,14.729-25.809,19.573c0.42-0.046,0.84-0.093,1.26-0.14 c2.44-4.31,5.083-8.839,8.974-12.017c2.105-1.721,0.465-0.705-0.104,0.446c-0.731,1.479-1.343,3.026-1.963,4.555 c0.479-0.11,0.958-0.221,1.437-0.331c-0.038-3.383-8.554,2.108-9.279,2.553c-1.48,0.908-2.929,1.868-4.388,2.809 c-1.949,1.257-1.201,0.831-0.302-0.739c1.444-2.524,3.195-4.903,4.891-7.264c0.152-0.211-1.023,0.024-1.122,0.071 c-2.147,1.018-4.04,2.328-5.942,3.746c-1.133,0.845-2.243,1.722-3.372,2.573c-1.219,0.921-2.755,2.497-2.03,0.513 c1.699-4.65,6.183-9.159,9.924-12.15c0.807-0.646,4.234-3.031,4.715-0.933c0.225,0.98-0.621,2.21-1.126,2.963 c-1.486,2.217-6.401,2.979-8.719,3.672c-2.473,0.738-4.962,1.426-7.456,2.093c-2.121,0.566-3.909,0.418-3.25-2.277 c0.079-0.321-1.261,0.075-1.424,0.273c-2.038,2.479-4.13,4.915-6.291,7.287c-0.797,0.874-1.618,1.705-2.483,2.509 c0.606-0.563,0.431,0.352,0.914-0.57c0.815-1.555,1.894-2.998,2.888-4.438c2.606-3.774,5.375-7.44,8.218-11.039 c1.563-1.979,3.19-3.889,4.918-5.726c1.456-1.546,1.55-1.199,0.902,0.369C29.354,14.865,30.711,14.755,30.855,14.407 L30.855,14.407 M96.759,26.86c2.623,0.155,5.229-0.398,7.725-1.149c1.04-0.313,1.997-0.782,2.979-1.235 c2.388-1.104,0.656-0.706,1.926-2.192c-0.615,0.72-1.226,1.445-1.835,2.17c-2.092,2.488-4.152,5.002-6.17,7.551 c-1.458,1.843-3.683,4.054-4.341,6.378c-0.178,0.626,1.124,0.225,1.313,0.06c2.007-1.749,4.622-2.82,6.33-4.831 c1.268-1.492,3.762-4.511,3.861-6.583c0.031-0.654-1.199-0.297-1.405,0.051c-0.47,0.793-1.308,3.541-0.071,4.127 c2.742,1.3,6.906-1.895,9.186-3.004c0.896-0.436,1.783-0.889,2.67-1.343c-1.279,0.656-0.181-1.126-1.211,0.013 c-0.931,1.027-1.821,2.089-2.706,3.156c-2.595,3.131-5.551,6.725-6.451,10.784c-0.15,0.679,1.205,0.197,1.405-0.051 c2.424-2.989,7.046-6.191,7.952-10.105c0.142-0.613-1.112-0.268-1.313-0.06c-0.452,0.468-1.071,2.163-0.187,2.528 c2.419,0.997,5.588-0.836,7.804-1.75c0.735-0.315,1.462-0.646,2.183-0.991c1.527-0.715,0.274-0.655-0.042-0.143 c-0.897,1.458-1.952,2.833-2.951,4.222c-1.133,1.576-3.701,3.964-4.091,5.917c-0.035,0.175,0.13,0.311,0.289,0.333 c2.219,0.314,5.45-2.781,7.133-3.856c0.965-0.617,1.935-1.227,2.909-1.828c0.411-0.252,0.826-0.499,1.245-0.741 c1.623-0.95,0.919-0.942-0.008,0.169c-1.809,2.168-3.229,3.896-4.196,6.627c-0.189,0.534,1.271,0.349,1.453-0.164 c0.906-2.559,2.088-4.253,3.917-6.18c0.408-0.43,0.864-0.969,1.032-1.547c0.016-0.079-0.003-0.149-0.057-0.21 c-1.632-1.523-8.851,4.44-10.135,5.254c-0.999,0.634-1.741,1.3-1.985,1.703c0.793-1.309,1.769-2.529,2.663-3.769 c1.431-1.98,3.989-4.458,4.65-6.861c0.068-0.247-0.273-0.357-0.452-0.356c-0.724,0.005-1.334,0.462-1.964,0.773 c-1.134,0.56-2.304,1.041-3.472,1.522c0.441-0.182-7.002,2.153-4.565-0.369c-0.438-0.02-0.876-0.039-1.313-0.059 c-0.849,3.661-5.505,6.978-7.856,9.878c0.469-0.018,0.937-0.034,1.405-0.051c1.176-5.306,5.823-10.207,9.416-14.084 c0.525-0.567-0.529-0.652-0.882-0.471c-1.909,0.99-3.845,1.927-5.787,2.848c-2.113,1.001-6.085,1.284-4.259-1.799 c-0.469,0.017-0.937,0.033-1.405,0.051c-0.239,4.982-6.652,8.125-9.912,10.966c0.438,0.02,0.876,0.039,1.313,0.06 c0.868-3.064,4.227-6.148,6.17-8.559c1.944-2.411,3.93-4.79,5.941-7.146c0.558-0.652-0.693-0.623-1.044-0.384 c-3.581,2.442-7.85,4.114-12.255,3.854C96.72,25.948,95.776,26.802,96.759,26.86L96.759,26.86 M155.733,17.337c-4.226,4.916-8.516,9.777-12.885,14.564c-2.507,2.746-5.028,5.514-7.78,8.019 c-1.424,1.297-0.859,0.698-1.052-0.903c-0.331-2.759,0.234-5.632,0.919-8.287c3.722-14.421,21.742-25.232,36.367-22.44 c5.819,1.111,4.567,5.967,2.189,9.783c-1.257,2.017-2.897,3.796-4.602,5.438c-1.324,1.276-6.057,5.042-5.461,0.681 c0.094-0.687-1.218-0.394-1.416,0.014c-2.948,6.046-6.91,11.658-11.427,16.618c-0.597,0.654,0.684,0.72,1.063,0.46 c6.427-4.4,13.204-8.326,20.176-11.788c-0.301-0.184-0.602-0.367-0.902-0.551c-1.987,2.646-3.955,5.33-6.125,7.829 c-0.923,1.063-3.735,4.026-3.23,5.495c0.142,0.41,0.734,0.296,1.031,0.181c2.057-0.796,3.567-3.156,5.332-4.426 c1.712-1.231,3.838-1.889,5.409-3.328c2.993-2.74,5.539-6.03,8.086-9.179c-0.397-0.117-0.794-0.234-1.191-0.352 c-2.061,2.726-4.103,5.466-6.132,8.216c-1.858,2.519-5.943,6.378-6.549,9.555c-0.022,0.122,0.05,0.271,0.165,0.322 c2.366,1.059,8.423-7.514,8.73-9.586c0.103-0.692-1.327-0.413-1.46,0.139c-0.646,2.667,1.329,2.832,3.123,1.803 c1.909-1.095,11.561-4.95,11.788-7.75c0.028-0.354-0.382-0.429-0.652-0.409c-1.979,0.149-4.188,4.416-5.188,5.761 c-1.549,2.081-6.345,6.785-6.159,9.598c0.009,0.138,0.192,0.22,0.296,0.256c2.22,0.777,7.402-5.429,6.523-7.339 c-0.229-0.496-1.214-0.318-1.41,0.138c-1.472,3.418,5.003,1.524,5.905,1.2c0.184-0.065,5.525-1.979,5.141-1.254 c-1.056,1.989-2.699,3.732-4.072,5.51c-0.636,0.822-2.7,2.722-2.112,3.826c0.13,0.244,0.582,0.18,0.786,0.138 c4.463-0.922,9.155-5.394,13.091-7.608c0.969-0.546,1.858-1.634,1.003-0.355c-1.041,1.557-2.24,3.019-3.368,4.512 c-0.631,0.835-2.773,2.885-2.405,3.998c0.111,0.336,0.572,0.311,0.843,0.248c2.853-0.648,5.793-3.511,8.253-5.021 c1.781-1.093,0.943-0.599,1.214-1.197c-0.609,1.346-1.848,2.548-2.728,3.72c-0.63,0.839-1.711,1.889-1.929,2.958 c-0.111,0.543,0.791,0.396,1.037,0.306c2.252-0.834,4.455-3.158,6.339-4.587c3.096-2.348,6.175-4.731,9.097-7.294 c-0.397-0.117-0.794-0.234-1.191-0.352c-2.198,2.252-4.326,4.572-6.378,6.958c-1.209,1.406-4.251,4.189-3.672,6.277 c0.038,0.134,0.168,0.223,0.296,0.256c2.764,0.714,5.048-3.654,6.291-5.463c-0.47,0.046-0.939,0.092-1.409,0.138 c0.733,3.689,5.581,0.405,7.405-0.688c-0.354-0.153-0.709-0.307-1.063-0.46c-1.085,1.057-6.09,4.904-5.519,6.579 c0.09,0.264,0.408,0.299,0.646,0.284c2.189-0.142,4.567-2.068,6.495-2.995c1.795-0.864-0.589,1.403-0.73,1.574 c-0.865,1.04-1.777,2.044-2.668,3.062c-0.861,0.982-2.269,2.267-2.524,3.619c-0.125,0.661,1.35,0.446,1.461-0.139 c0.579-3.064,5.178-6.029,6.845-8.678c0.515-0.817-0.637-1.024-1.172-0.877c-2.421,0.667-4.606,2.143-6.855,3.226 c1.178-0.566,3.654-3.786,5.213-5.304c0.647-0.631-0.701-0.677-1.063-0.46c-0.873,0.522-4.563,3.17-5.021,0.868 c-0.123-0.624-1.2-0.166-1.409,0.139c-0.915,1.331-1.771,2.591-2.915,3.759c-1.397,1.427-0.191-0.816-0.141-0.897 c0.778-1.237,1.766-2.352,2.703-3.469c2.02-2.408,4.183-4.709,6.377-6.958c0.646-0.662-0.793-0.701-1.191-0.352 c-2.839,2.489-5.842,4.787-8.841,7.077c-1.759,1.343-3.912,3.626-6.018,4.405c0.346,0.102,0.691,0.204,1.037,0.306 c0.504-2.469,3.628-4.353,4.675-6.665c0.057-0.125,0.072-0.246-0.019-0.36c-0.024-0.031-0.049-0.062-0.073-0.093 c-0.126-0.16-0.4-0.203-0.589-0.174c-3.215,0.515-6.527,3.67-9.201,5.361c-0.988,0.625-0.499,0.84,0.191-0.218 c0.842-1.289,1.821-2.495,2.752-3.721c0.956-1.26,2.569-2.816,3.002-4.362c0.014-0.088-0.008-0.166-0.063-0.235 c-1.641-1.575-8.976,4.153-10.235,4.927c-1.279,0.785-2.558,1.572-3.843,2.348c-1.81,1.093-1.881,1.781-0.659-0.004 c1.687-2.464,5.532-5.693,5.97-8.769c0.021-0.146-0.054-0.24-0.164-0.321c-0.467-0.347-0.937-0.38-1.521-0.196 c-0.762,0.239-1.289,0.437-2.049,0.738c-0.483,0.193-8.734,3.299-7.883,1.32c-0.47,0.047-0.94,0.093-1.41,0.139 c0.565,1.229-2.171,3.904-2.797,4.61c-1.765,1.992-0.522,0.451,0.242-0.744c1.918-2.996,4.078-5.856,6.25-8.671 c0.677-0.878,1.371-1.741,2.097-2.579c1.117-1.29-1.994,0.556-2.353,0.799c-1.194,0.809-2.495,1.466-3.76,2.156 c-1.204,0.658-7.23,4.997-6.501,1.983c-0.487,0.046-0.974,0.093-1.46,0.139c-0.391,2.634-3.83,5.549-5.579,7.435 c-0.881,0.949-0.558,1.672,0.287,0.35c0.773-1.211,1.624-2.376,2.458-3.546c3.017-4.229,6.138-8.388,9.271-12.532 c0.547-0.723-0.825-0.805-1.191-0.352c-1.633,2.018-3.304,4.004-5.01,5.959c-2.734,3.133-6.022,4.743-9.329,7.122 c-0.74,0.532-3.159,3.795-2.187,2.1c0.765-1.332,1.705-2.559,2.71-3.715c2.025-2.331,3.843-4.867,5.695-7.335 c0.464-0.617-0.479-0.761-0.902-0.551c-7.082,3.516-13.972,7.501-20.498,11.97c0.354,0.153,0.709,0.307,1.063,0.46 c4.586-5.036,8.614-10.724,11.606-16.858c-0.472,0.005-0.943,0.009-1.416,0.014c-0.523,3.838,2.3,3.591,4.907,2.069 c4.518-2.638,9.154-8.196,10.232-13.369c1.03-4.941-5.548-6.097-9.036-6.062c-8.571,0.089-17.086,3.217-23.939,8.303 c-6.839,5.075-11.197,13.273-11.632,21.748c-0.118,2.308-0.045,6.248,2.923,3.965c8.162-6.28,14.813-15.514,21.501-23.296 C157.511,17.007,156.114,16.894,155.733,17.337L155.733,17.337 M220.044,48.482c-0.078,2.337,4.593,1.378,5.798,0.976c1.936-0.646,3.711-2.271,5.233-3.55 c1.024-0.86,1.993-1.789,3.007-2.663c-0.568,0.49-1.032-0.214-1.716,0.484c-6.384,6.521-13.763,13.055-18.198,21.13 c-0.248,0.45,1.157,0.079,1.293-0.018c5.385-3.849,10.924-7.972,16.951-10.756c1.53-0.707,1.09,1.39,0.89,2.101 c-0.521,1.854-2.609,4.731-4.697,4.693c-1.048-0.02-2.097-0.125-3.14-0.208c-3.606-0.29-7.208-0.647-10.81-0.993 c-9.583-0.92-19.163-1.872-28.754-2.712c-6.808-0.596-13.856-1.556-20.704-1.221c-0.479,0.023-1.557,0.789-0.586,0.742 c9.953-0.488,20.263,1.162,30.153,2.087c10.438,0.977,20.868,2.165,31.325,2.936c2.606,0.192,4.339-0.06,6.412-1.905 c1.142-1.018,4.936-7.267,1.122-6.623c-3.727,0.629-7.493,3.729-10.563,5.72c-2.961,1.919-5.875,3.916-8.745,5.968 c0.432-0.006,0.862-0.012,1.293-0.018c4.698-8.553,13.01-13.984,18.729-21.614c0.359-0.479-0.775-0.319-0.942-0.245 c-1.121,0.495-12.071,10.351-11.902,5.301C221.505,47.726,220.062,47.962,220.044,48.482L220.044,48.482z M175.174,24.404c0.245-0.54,0.49-1.08,0.734-1.62c0.108-0.239-0.504-0.15-0.578-0.138 c-0.232,0.042-0.736,0.143-0.85,0.394c-0.245,0.54-0.49,1.08-0.734,1.62c-0.108,0.239,0.504,0.15,0.578,0.138 C174.557,24.755,175.061,24.655,175.174,24.404L175.174,24.404 M84.241,14.8c0.915,0.133,1.415,0.801,1.039,1.695c-0.124,0.296,0.835,0.185,0.965-0.125 c0.471-1.12-0.316-1.925-1.41-2.084c-0.231-0.033-0.502,0.027-0.683,0.184C84.005,14.597,84.037,14.771,84.241,14.8L84.241,14.8z M204.363,34.985c0.994,2.058,5.07,2.444,6.881,2.716c3.663,0.549,7.432,0.342,11.122,0.396 c1.7,0.024,3.398,0.093,5.096,0.191c1.433,0.084,4.313,0.456,1.332,1.136c-0.856,0.195-0.726,0.643,0.121,0.449 c0.218-0.05,3.402-0.594,3.269-1.321c-0.189-1.03-4.27-0.884-4.869-0.919c-5.668-0.33-11.402,0.226-17.007-0.856 c-1.294-0.249-3.82-0.783-4.495-2.181C205.64,34.239,204.247,34.744,204.363,34.985L204.363,34.985z"/>
</svg>