<?xml version="1.0" encoding="UTF-8" ?>
<!DOCTYPE svg PUBLIC "-//W3C//DTD SVG 1.1//EN" "http://www.w3.org/Graphics/SVG/1.1/DTD/svg11.dtd">
<svg width="742pt" height="298pt" viewBox="0 0 742 298" version="1.1" xmlns="http://www.w3.org/2000/svg">
<path fill="#ffffff" d=" M 0.00 0.00 L 742.00 0.00 L 742.00 298.00 L 0.00 298.00 L 0.00 0.00 Z" />
<path fill="#000000" d=" M 428.22 11.46 C 432.00 11.77 435.49 10.08 439.16 9.54 C 445.14 9.81 451.20 8.98 457.08 10.49 C 463.15 10.16 468.44 13.55 474.42 13.95 C 481.83 17.32 489.34 22.98 491.28 31.30 C 492.91 38.61 489.47 46.25 483.90 50.96 C 474.45 59.84 461.50 63.07 449.52 66.97 C 445.85 67.11 442.70 69.47 439.00 69.25 C 435.78 68.89 433.14 71.31 429.96 71.20 C 426.47 70.92 423.48 73.23 420.03 73.21 C 417.13 73.08 414.51 74.36 411.78 75.08 C 406.83 75.74 401.68 74.44 396.86 76.05 C 394.63 76.64 392.39 77.36 390.06 77.25 C 378.70 77.22 367.35 77.29 356.00 77.21 C 351.47 77.15 347.12 74.62 342.60 75.41 C 338.42 78.71 335.74 83.40 331.85 86.99 C 325.91 94.36 319.63 101.48 314.01 109.12 C 308.21 117.54 301.41 125.24 295.97 133.92 C 294.55 136.25 293.77 138.95 292.03 141.09 C 288.45 145.48 286.51 150.90 284.29 156.03 C 284.97 158.90 288.43 157.48 290.54 157.62 C 291.31 151.42 294.28 145.83 297.85 140.78 C 300.36 136.76 302.99 132.74 306.50 129.51 C 311.18 123.94 315.95 118.18 322.18 114.28 C 330.00 107.83 338.71 102.37 348.05 98.40 C 351.52 96.87 354.91 94.70 358.83 94.69 C 361.34 94.55 363.37 92.50 365.96 92.76 C 372.92 92.83 379.89 92.56 386.83 92.89 C 389.48 93.80 392.11 94.80 394.93 95.06 C 403.84 98.23 411.93 103.59 418.50 110.34 C 422.34 116.85 425.32 124.35 424.77 132.01 C 422.68 141.50 418.86 151.59 410.61 157.36 C 413.81 161.94 419.29 165.36 425.01 164.83 C 426.93 164.62 430.18 165.48 430.65 162.81 C 432.08 157.10 436.13 152.69 440.21 148.68 C 443.49 148.76 446.77 148.51 450.06 148.58 C 450.43 151.09 451.85 153.72 450.28 156.10 C 448.39 159.69 449.85 163.85 448.95 167.67 C 448.13 170.54 450.51 172.87 451.80 175.17 C 455.90 173.31 460.45 172.16 463.94 169.16 C 465.81 167.49 468.37 166.82 470.10 164.99 C 472.17 160.67 473.41 155.82 476.77 152.24 C 478.01 153.21 479.27 154.17 480.30 155.37 C 480.10 160.81 474.92 165.22 476.85 170.91 C 480.12 171.26 482.67 169.02 484.39 166.50 C 485.12 163.10 485.96 159.70 487.76 156.68 C 489.11 156.72 490.47 156.74 491.84 156.77 C 492.26 157.32 493.11 158.43 493.53 158.99 C 491.22 163.21 489.56 168.13 490.90 172.95 C 495.88 172.45 498.25 167.23 500.52 163.40 C 503.04 156.99 503.02 149.95 504.90 143.36 C 506.20 138.83 505.40 134.06 505.74 129.42 C 506.73 126.51 508.11 123.51 510.65 121.64 C 515.18 118.30 520.28 115.73 525.68 114.14 C 528.90 112.60 531.87 110.54 535.23 109.28 C 538.97 108.04 542.05 105.42 545.79 104.15 C 551.50 100.62 557.67 97.92 563.53 94.66 C 566.79 91.97 568.44 87.89 570.66 84.40 C 578.15 72.58 585.60 60.76 593.20 48.99 C 597.15 42.82 601.80 37.14 606.67 31.67 C 610.63 28.37 614.62 24.32 620.01 23.73 C 623.28 24.08 626.61 25.63 627.88 28.88 C 631.26 34.55 627.78 40.86 626.79 46.66 C 623.62 52.93 620.09 59.16 615.30 64.34 C 609.98 68.34 605.91 73.81 600.15 77.25 C 595.96 80.80 591.40 83.87 586.65 86.64 C 581.89 89.96 576.92 92.98 571.67 95.46 C 569.38 96.47 567.43 98.18 566.23 100.38 C 562.56 107.45 558.40 114.29 553.65 120.70 C 553.07 121.74 552.58 122.82 552.17 123.94 C 559.84 123.15 566.89 119.63 574.22 117.47 C 577.42 115.03 580.65 112.56 583.89 110.13 C 582.27 107.68 579.89 105.78 578.70 103.06 C 578.95 97.53 585.40 96.40 589.65 95.15 C 593.68 92.98 598.35 94.41 602.54 92.87 C 611.46 91.81 619.88 88.05 628.88 87.60 C 632.60 87.19 635.43 84.27 639.07 83.54 C 642.79 84.77 641.33 89.19 638.25 90.13 C 633.06 91.81 629.19 95.98 627.09 100.92 C 625.09 103.70 624.66 107.20 625.47 110.49 C 628.01 113.77 632.44 114.29 635.88 116.21 C 637.52 116.96 637.16 118.98 637.52 120.45 C 634.61 123.21 631.52 125.91 629.67 129.55 C 628.37 134.11 627.24 140.17 631.40 143.62 C 633.03 145.20 635.82 148.18 638.02 146.15 C 639.96 141.01 642.92 135.52 648.26 133.28 C 650.18 132.56 652.00 131.38 654.07 131.15 C 656.11 131.45 658.16 131.79 660.24 131.93 C 663.09 121.38 669.91 112.51 673.57 102.27 C 675.89 98.15 678.87 94.35 680.08 89.68 C 682.98 88.42 686.00 90.05 686.26 93.29 C 686.85 104.72 683.43 115.91 678.87 126.27 C 677.02 133.90 673.70 141.05 669.83 147.85 C 668.70 149.38 667.31 150.69 666.07 152.12 C 667.96 157.45 674.19 158.05 678.53 160.52 C 688.34 164.44 698.46 167.72 707.93 172.47 C 714.87 175.06 720.56 179.97 725.38 185.48 C 727.16 187.35 727.51 190.04 727.22 192.51 C 724.90 199.14 717.78 202.55 711.18 203.55 C 705.22 204.97 699.12 205.52 693.00 205.33 C 686.77 206.46 680.42 206.43 674.12 206.85 C 668.42 206.00 662.71 207.26 657.01 206.57 C 651.96 206.05 646.96 207.79 641.98 206.56 C 621.77 205.87 601.54 206.65 581.34 206.18 C 576.33 204.91 571.43 207.18 566.39 206.56 C 566.36 206.75 566.31 207.12 566.28 207.31 C 571.95 207.33 577.48 208.74 583.04 209.72 C 583.41 210.38 584.16 211.70 584.53 212.36 C 583.17 213.39 582.19 215.65 580.21 215.30 C 578.29 215.29 576.82 213.86 575.18 213.09 C 573.50 213.73 571.87 214.70 570.01 214.55 C 562.44 214.34 554.94 215.61 547.47 216.64 C 547.04 220.40 547.35 224.19 547.18 227.96 C 545.05 237.23 542.21 246.68 536.33 254.36 C 534.57 256.28 533.19 258.52 531.36 260.37 C 526.31 264.03 521.17 268.06 514.87 269.15 C 511.23 269.08 507.59 270.58 504.03 269.35 C 500.74 268.87 498.18 266.57 495.85 264.38 C 493.31 257.52 490.00 250.38 491.45 242.87 C 492.45 237.83 492.47 232.59 494.38 227.78 C 494.92 224.13 497.35 221.16 497.86 217.50 C 495.63 216.65 493.26 216.30 490.89 216.29 C 482.59 216.30 474.25 215.84 466.05 217.30 C 468.41 213.36 473.21 213.32 477.14 214.41 C 481.34 213.75 485.59 213.76 489.83 213.64 C 492.86 212.95 495.93 213.20 499.00 213.44 C 500.17 211.99 501.17 210.41 501.78 208.65 C 496.53 208.25 491.25 208.68 486.02 209.12 C 481.17 209.40 476.24 208.64 471.48 209.82 C 464.99 211.59 458.20 209.92 451.63 210.97 C 446.10 211.84 440.56 212.82 434.93 212.54 C 429.43 212.27 424.16 213.98 418.83 215.04 C 414.27 215.50 409.67 214.90 405.12 215.39 C 402.06 215.85 399.15 217.15 396.03 217.19 C 392.34 217.28 388.53 216.88 385.01 218.25 C 379.87 220.12 374.24 218.41 369.09 220.28 C 363.30 222.26 356.96 220.15 351.24 222.42 C 347.72 223.79 343.90 222.80 340.29 223.58 C 333.35 225.80 325.99 225.84 318.86 227.13 C 313.31 226.97 308.22 229.47 302.72 229.76 C 294.31 231.50 285.83 232.78 277.26 233.48 C 263.89 236.63 250.22 238.12 236.86 241.30 C 232.91 242.39 228.79 242.37 224.84 243.42 C 219.75 244.75 214.39 244.84 209.42 246.65 C 206.59 247.80 203.56 247.04 200.79 246.12 C 200.77 244.71 200.76 243.29 200.75 241.88 C 204.67 240.27 208.47 238.11 212.86 238.34 C 217.37 236.62 221.60 234.00 226.47 233.25 C 233.19 232.46 240.05 231.74 246.36 229.11 C 252.71 228.19 259.19 227.45 265.15 224.93 C 270.93 225.34 276.26 222.57 282.01 222.74 C 285.15 222.72 287.99 221.10 291.09 220.82 C 295.80 220.55 300.23 218.52 304.99 218.68 C 309.09 218.73 312.89 216.66 317.01 216.78 C 320.54 216.83 323.87 215.55 327.34 215.11 C 334.19 214.50 340.93 213.06 347.79 212.51 C 355.68 210.94 363.75 210.90 371.64 209.38 C 377.11 208.02 382.87 209.71 388.27 207.93 C 394.62 206.25 401.21 207.04 407.67 206.39 C 413.02 204.86 418.65 206.00 424.08 204.91 C 430.98 204.73 437.90 204.76 444.80 204.42 C 454.81 203.08 464.97 204.05 475.00 202.85 C 484.76 202.69 494.54 202.86 504.31 202.72 C 510.00 186.84 518.66 172.27 526.51 157.40 C 527.83 154.89 525.24 152.87 523.87 151.09 C 519.57 147.15 515.23 143.22 511.16 139.04 C 512.03 136.72 513.05 133.72 515.74 133.07 C 523.27 132.25 530.39 129.25 537.94 128.55 C 540.17 128.28 542.42 127.60 544.33 126.38 C 546.51 123.14 548.26 119.63 550.40 116.36 C 553.08 111.82 556.77 107.86 558.62 102.84 C 547.64 108.49 536.90 114.64 525.58 119.61 C 521.38 121.66 516.90 123.34 513.12 126.13 C 508.17 130.45 511.52 137.49 509.83 143.03 C 508.74 149.54 507.08 155.91 505.95 162.39 C 504.38 166.99 501.78 171.13 498.55 174.74 C 497.08 177.37 494.15 178.62 491.27 178.88 C 488.16 178.16 486.81 175.05 485.20 172.65 C 482.63 174.05 480.40 175.99 477.78 177.28 C 474.32 176.79 471.74 173.83 470.16 170.87 C 465.53 173.94 460.96 177.25 455.67 179.14 C 453.28 179.35 450.85 179.36 448.46 179.13 C 446.16 177.81 445.31 175.15 444.10 172.96 C 442.52 174.40 441.16 176.09 439.36 177.25 C 436.64 177.72 433.81 177.67 431.13 177.06 C 428.68 175.21 428.89 171.89 428.60 169.17 C 423.35 168.77 417.22 170.79 412.84 166.97 C 410.86 165.57 409.49 163.53 407.83 161.81 C 403.67 164.52 400.91 168.91 396.53 171.36 C 392.76 173.54 389.10 175.88 385.63 178.49 C 378.15 182.03 370.76 185.84 362.98 188.68 C 357.58 189.97 352.80 193.35 347.14 193.49 C 343.42 195.55 338.95 194.70 335.32 196.90 C 324.32 198.04 312.85 199.54 301.94 196.65 C 298.99 195.14 295.44 195.16 292.65 193.40 C 290.05 190.62 286.93 188.48 284.02 186.07 C 281.37 181.86 277.83 177.92 276.90 172.88 C 276.44 169.23 277.04 165.58 277.45 161.96 C 270.20 157.92 262.94 153.91 255.96 149.43 C 252.44 150.42 249.63 152.70 247.62 155.73 C 244.97 158.06 244.39 161.82 241.74 164.12 C 239.64 164.93 238.14 163.02 236.66 161.90 C 235.54 157.13 240.41 153.71 239.35 149.11 C 228.24 152.08 219.47 162.84 207.19 161.22 C 203.81 160.96 202.74 157.34 200.78 155.17 C 200.44 155.21 199.75 155.30 199.41 155.34 C 195.72 161.43 190.80 167.85 183.51 169.58 C 182.33 167.84 180.71 166.12 180.70 163.89 C 180.38 160.61 181.62 157.48 182.01 154.27 C 173.10 154.69 164.19 154.18 155.28 154.37 C 157.95 166.15 153.34 178.70 145.67 187.69 C 142.01 190.67 138.87 194.21 135.38 197.38 C 131.99 198.98 128.52 200.44 125.40 202.59 C 121.91 204.74 118.07 201.92 115.69 199.40 C 114.47 196.44 115.58 193.17 115.75 190.11 C 116.74 188.08 118.18 186.27 118.91 184.11 C 115.75 184.88 114.35 188.09 112.46 190.41 C 107.78 197.92 100.70 203.52 95.94 210.93 C 92.49 214.50 88.74 217.79 85.61 221.66 C 81.19 225.27 78.10 230.15 73.96 234.04 C 70.10 238.48 66.30 243.00 62.38 247.38 C 57.34 250.91 53.87 256.15 49.06 259.95 C 46.75 261.68 45.81 264.70 43.27 266.18 C 39.57 268.38 37.30 272.27 33.70 274.61 C 28.51 277.87 24.51 282.73 19.15 285.74 C 16.48 286.64 13.68 287.11 10.88 287.43 C 9.78 285.29 8.55 283.20 7.69 280.95 C 8.84 277.53 10.06 274.16 9.81 270.46 C 11.98 267.59 15.28 265.46 16.17 261.75 C 17.01 258.15 20.46 255.96 21.37 252.36 C 22.28 248.61 26.02 246.62 27.33 243.06 C 28.60 239.65 31.81 237.66 34.10 235.01 C 40.93 226.00 47.87 217.04 55.82 209.00 C 60.94 205.13 64.39 199.44 69.87 196.00 C 76.30 191.50 81.25 185.30 87.18 180.22 C 99.51 170.97 111.84 161.68 125.07 153.73 C 122.62 151.78 119.38 152.99 116.61 152.00 C 112.97 150.65 108.87 151.99 105.37 150.12 C 102.65 148.66 99.48 149.64 96.61 148.91 C 90.33 146.36 83.80 144.28 77.99 140.72 C 72.20 136.49 68.21 129.93 66.77 122.95 C 66.86 117.26 65.81 111.21 68.40 105.91 C 70.51 98.70 73.22 91.64 77.34 85.32 C 79.71 81.15 83.12 77.70 85.66 73.63 C 92.53 66.16 99.99 59.27 107.69 52.67 C 115.49 47.49 123.44 42.53 131.38 37.54 C 140.88 32.30 151.01 28.37 161.26 24.90 C 169.27 25.17 179.03 22.09 185.43 28.49 C 190.63 32.61 192.35 39.23 193.88 45.36 C 195.44 54.76 192.98 64.11 190.64 73.16 C 189.07 77.16 187.56 81.19 186.13 85.24 C 180.72 96.30 175.68 107.63 168.69 117.82 C 165.72 121.91 163.53 126.56 159.94 130.20 C 161.21 130.76 162.49 131.32 163.77 131.88 C 163.53 133.23 163.40 134.62 162.96 135.93 C 160.20 138.45 156.52 139.69 153.62 142.05 C 158.54 145.98 164.64 141.61 169.98 141.03 C 175.40 141.08 179.80 137.55 184.93 136.42 C 188.21 135.03 191.73 133.84 194.51 131.55 C 197.21 129.48 196.68 125.73 198.14 122.98 C 200.24 120.42 203.71 119.30 205.38 116.33 C 206.62 113.94 208.89 112.52 211.24 111.39 C 213.46 113.16 215.26 115.62 214.43 118.62 C 212.81 122.48 209.74 125.51 206.62 128.21 C 206.22 132.15 207.57 136.00 207.18 139.92 C 206.39 142.73 204.39 144.99 203.34 147.70 C 207.95 147.92 212.46 146.56 217.07 146.80 C 220.67 146.95 224.15 145.83 227.73 145.67 C 230.40 145.37 233.42 145.35 235.55 143.47 C 239.01 141.03 242.67 137.96 247.20 138.70 C 247.30 140.84 247.35 142.99 247.48 145.14 C 252.20 143.61 256.97 142.01 261.97 143.29 C 266.81 141.58 272.05 141.83 276.85 139.97 C 280.29 138.83 284.91 140.66 287.36 137.24 C 291.46 131.62 295.04 125.68 299.15 120.07 C 302.97 114.60 307.64 109.77 311.26 104.15 C 316.34 98.53 320.52 92.19 325.76 86.69 C 329.20 81.57 333.72 77.35 338.68 73.71 C 332.99 71.73 326.86 70.60 321.86 67.05 C 316.68 63.41 312.06 58.74 309.17 53.06 C 307.20 49.28 310.75 44.15 314.93 44.72 C 317.54 44.54 318.80 47.35 320.56 48.82 C 320.19 49.44 319.45 50.70 319.08 51.33 C 317.61 51.30 316.14 51.29 314.68 51.29 C 316.50 56.46 320.54 60.74 325.67 62.72 C 327.90 63.47 329.68 65.02 331.59 66.35 C 335.01 66.80 338.08 68.32 341.22 69.67 C 343.71 68.44 345.15 66.01 347.05 64.10 C 359.83 51.49 372.37 38.41 387.56 28.64 C 395.30 23.06 404.44 20.06 412.90 15.83 C 415.35 14.79 418.05 14.50 420.46 13.31 C 423.07 12.80 425.73 12.53 428.22 11.46 Z" />
<path fill="#ffffff" d=" M 424.33 16.76 C 429.02 16.64 433.20 13.84 437.95 14.35 C 443.96 14.48 449.98 14.78 455.98 14.35 C 458.72 13.95 461.09 15.44 463.52 16.42 C 468.93 16.80 474.61 18.40 478.64 22.25 C 482.54 24.51 485.63 27.90 487.54 31.98 C 488.34 35.92 486.69 39.52 484.98 42.95 C 484.09 46.23 480.54 47.31 478.16 49.26 C 470.01 56.17 459.26 58.40 449.45 61.94 C 447.17 62.87 444.63 62.87 442.39 63.93 C 438.83 65.64 434.69 63.94 431.09 65.55 C 427.83 67.17 423.99 66.14 420.79 67.85 C 417.58 69.75 413.59 67.83 410.34 69.59 C 405.65 71.92 400.25 70.06 395.27 70.98 C 384.73 73.23 373.87 72.98 363.17 72.43 C 357.80 71.03 352.27 71.60 346.85 70.90 C 352.73 64.38 359.86 59.09 365.46 52.36 C 376.27 42.95 386.87 32.91 399.95 26.71 C 407.85 22.89 415.90 19.25 424.33 16.76 Z" />
<path fill="#ffffff" d=" M 149.89 34.43 C 155.40 32.04 161.41 31.30 167.12 29.56 C 170.82 28.97 174.83 28.75 178.19 30.68 C 183.67 32.35 186.49 38.14 187.19 43.45 C 189.76 49.75 189.40 57.13 186.93 63.40 C 187.24 69.57 183.83 74.93 182.07 80.65 C 176.26 92.94 170.52 105.39 162.73 116.57 C 158.27 123.50 153.74 130.38 149.16 137.23 C 146.99 136.08 144.81 133.86 142.15 134.94 C 139.53 136.75 141.63 139.67 141.95 142.09 C 138.71 143.36 136.31 146.07 133.11 147.35 C 120.80 146.72 108.68 144.37 96.57 142.25 C 89.47 139.28 80.95 137.48 76.52 130.56 C 72.40 124.09 71.83 115.76 74.28 108.55 C 75.62 102.20 78.07 96.12 80.92 90.30 C 84.50 85.15 87.25 79.33 91.88 75.00 C 94.28 72.00 97.42 69.71 99.79 66.70 C 102.87 62.40 107.58 59.78 111.77 56.71 C 118.60 51.03 126.00 45.85 134.23 42.39 C 139.01 38.92 144.60 36.97 149.89 34.43 Z" />
<path fill="#fefefe" d=" M 610.48 35.50 C 613.13 32.07 617.36 30.70 621.14 28.93 C 625.55 32.22 624.38 37.94 623.40 42.56 C 620.56 48.38 617.80 54.42 613.13 59.06 C 610.10 62.04 607.28 65.24 604.03 67.99 C 598.07 72.02 592.83 77.03 586.66 80.78 C 582.41 83.36 578.66 86.79 574.07 88.77 C 577.06 83.08 581.30 78.15 584.64 72.66 C 590.09 63.61 595.97 54.83 601.93 46.10 C 604.23 42.14 607.67 39.07 610.48 35.50 Z" />
<path fill="#ffffff" d=" M 608.99 97.15 C 614.61 95.52 620.37 94.26 625.93 92.32 C 623.49 98.38 617.12 103.61 618.98 110.71 C 621.15 115.61 626.08 118.41 631.03 119.84 C 627.70 123.13 624.04 126.52 622.86 131.23 C 622.60 134.63 622.52 138.09 622.95 141.48 C 625.64 146.58 630.21 151.36 636.30 151.88 C 636.82 155.87 639.36 159.32 642.88 161.16 C 646.93 161.11 651.38 162.07 655.01 159.78 C 657.63 158.63 660.42 156.15 663.43 157.51 C 670.15 164.32 679.87 166.43 688.34 170.23 C 697.02 173.72 706.43 176.06 713.80 182.10 C 717.61 184.01 721.96 187.63 720.69 192.43 C 719.07 194.10 717.48 196.29 715.03 196.64 C 711.33 197.34 707.88 199.27 704.01 198.77 C 698.30 198.22 692.82 200.59 687.14 200.17 C 666.79 201.34 646.37 200.44 626.00 200.86 C 623.44 201.03 620.91 201.74 618.34 201.39 C 614.87 200.78 611.38 201.91 607.91 201.18 C 604.20 201.34 600.47 201.88 596.78 201.13 C 593.53 201.22 590.27 201.59 587.03 201.10 C 579.04 201.88 571.01 201.01 563.02 201.74 C 557.73 201.92 552.45 201.29 547.18 201.79 C 545.88 200.06 547.38 197.63 546.67 195.65 C 545.71 192.97 545.14 190.20 545.04 187.35 C 542.32 179.44 540.31 171.31 537.18 163.53 C 536.75 160.59 532.88 159.17 533.39 156.04 C 538.69 148.23 542.94 139.76 547.35 131.43 C 552.08 129.73 557.08 128.98 561.69 126.95 C 564.10 126.30 566.44 124.41 569.03 125.41 C 565.38 129.65 561.32 134.00 560.34 139.74 C 558.95 142.20 558.53 144.94 558.72 147.74 C 561.08 150.17 563.86 152.34 567.18 153.24 C 569.49 153.52 571.31 151.66 573.44 151.06 C 578.47 149.36 583.37 146.96 587.38 143.43 C 591.65 135.85 594.58 126.08 590.50 117.82 C 590.33 116.49 590.25 115.16 590.24 113.83 C 592.35 112.11 594.46 110.30 595.55 107.73 C 594.93 107.14 593.68 105.98 593.06 105.40 C 591.07 106.13 589.11 106.92 587.14 107.67 C 585.78 105.99 584.62 104.14 584.18 102.00 C 587.68 100.73 591.17 98.91 595.02 99.21 C 599.87 99.73 604.12 96.61 608.99 97.15 Z" />
<path fill="#ffffff" d=" M 365.52 98.87 C 371.04 96.65 377.08 97.07 382.89 97.52 C 386.08 98.67 389.40 99.28 392.78 99.53 C 397.29 101.51 402.22 103.06 405.78 106.63 C 402.99 112.05 399.37 117.01 396.87 122.59 C 394.34 126.99 392.96 131.92 390.46 136.33 C 386.22 142.00 379.92 145.43 374.65 149.98 C 368.58 152.77 363.42 157.27 357.00 159.35 C 348.54 163.48 339.90 167.47 330.66 169.44 C 327.38 170.65 323.89 171.14 320.67 172.53 C 316.13 173.14 311.49 172.65 306.92 172.81 C 303.75 173.07 301.02 171.21 298.19 170.10 C 296.16 167.88 295.11 164.98 294.34 162.13 C 295.77 161.10 297.26 160.15 298.77 159.23 C 297.50 156.77 296.31 153.76 297.80 151.11 C 308.41 131.30 325.79 115.71 345.34 105.01 C 352.00 102.75 358.37 99.13 365.52 98.87 Z" />
<path fill="#fdfdfd" d=" M 678.53 104.54 C 679.01 102.93 680.11 101.68 681.45 100.69 C 680.88 110.49 675.38 119.05 673.34 128.55 C 671.14 134.70 668.69 140.80 665.47 146.49 C 665.02 147.60 664.23 147.92 663.10 147.43 C 661.81 145.64 663.09 143.72 663.85 142.04 C 665.41 139.03 663.82 135.40 665.21 132.35 C 669.75 123.12 674.24 113.88 678.53 104.54 Z" />
<path fill="#fdfdfd" d=" M 525.58 119.61 C 536.90 114.64 547.64 108.49 558.62 102.84 C 556.77 107.86 553.08 111.82 550.40 116.36 C 548.26 119.63 546.51 123.14 544.33 126.38 C 542.42 127.60 540.17 128.28 537.94 128.55 C 530.39 129.25 523.27 132.25 515.74 133.07 C 513.05 133.72 512.03 136.72 511.16 139.04 C 510.67 140.35 510.25 141.69 509.83 143.03 C 511.52 137.49 508.17 130.45 513.12 126.13 C 516.90 123.34 521.38 121.66 525.58 119.61 Z" />
<path fill="#fdfdfd" d=" M 402.41 130.32 C 405.66 124.46 408.91 118.52 411.18 112.17 C 412.41 112.65 414.23 112.50 414.89 113.90 C 416.49 117.22 418.63 120.51 418.76 124.31 C 419.06 130.34 419.05 136.71 416.13 142.17 C 413.95 146.08 412.54 150.62 408.80 153.42 C 408.38 147.50 407.83 141.24 410.50 135.74 C 409.34 135.33 408.17 134.99 406.99 134.69 C 404.48 136.54 401.98 138.44 399.07 139.65 C 398.34 139.24 396.86 138.43 396.13 138.02 C 397.39 134.83 399.92 132.55 402.41 130.32 Z" />
<path fill="#fdfdfd" d=" M 567.91 136.12 C 571.94 127.94 577.90 119.51 587.10 116.90 C 587.92 124.58 587.96 133.02 584.06 139.91 C 578.59 143.99 572.19 148.06 565.03 146.71 C 564.81 142.92 566.96 139.67 567.91 136.12 Z" />
<path fill="#fcfcfc" d=" M 199.69 133.47 C 200.59 133.41 202.39 133.29 203.29 133.22 C 202.98 135.22 202.55 137.20 201.90 139.11 C 201.06 137.27 200.29 135.40 199.69 133.47 Z" />
<path fill="#fcfcfc" d=" M 531.24 135.20 C 534.59 134.99 537.60 133.14 540.98 133.21 C 536.92 139.04 533.46 145.21 530.06 151.44 C 527.58 148.75 525.69 145.51 522.80 143.21 C 520.65 141.52 518.49 139.84 516.54 137.93 C 518.57 136.77 520.77 136.06 523.10 136.77 C 525.97 137.57 528.41 135.24 531.24 135.20 Z" />
<path fill="#fdfdfd" d=" M 643.12 147.54 C 644.29 141.05 650.90 138.20 656.35 136.00 C 657.16 137.27 657.94 138.57 658.71 139.88 C 658.00 141.49 657.51 143.22 656.58 144.73 C 652.17 145.92 647.70 147.27 643.12 147.54 Z" />
<path fill="#ffffff" d=" M 191.49 148.20 C 192.06 144.73 193.23 141.18 196.03 138.87 C 196.75 141.93 197.76 144.98 197.80 148.16 C 195.70 148.25 193.59 148.25 191.49 148.20 Z" />
<path fill="#ffffff" d=" M 167.61 146.56 C 175.49 147.15 182.14 142.41 189.37 140.15 C 188.82 143.28 186.89 145.83 185.00 148.28 C 179.02 147.60 173.18 149.67 167.27 149.29 C 167.36 148.61 167.52 147.24 167.61 146.56 Z" />
<path fill="#fefefe" d=" M 390.68 143.39 C 394.71 142.98 398.86 144.02 402.76 142.30 C 402.75 147.62 402.15 153.17 404.61 158.10 C 394.62 167.79 382.31 174.61 369.53 179.88 C 362.85 183.45 355.42 185.20 348.41 187.95 C 345.66 189.27 342.39 188.26 339.71 189.81 C 337.11 191.33 334.02 190.53 331.19 190.91 C 328.94 191.98 326.67 193.12 324.10 192.79 C 317.91 192.37 311.37 193.95 305.56 191.22 C 300.48 190.60 295.89 188.24 291.83 185.24 C 287.36 182.65 286.44 177.16 283.64 173.19 C 282.70 169.68 282.55 165.96 282.71 162.35 C 284.83 162.35 286.96 162.43 289.08 162.55 C 289.81 166.63 290.29 171.38 294.01 173.94 C 296.71 177.08 301.02 177.40 304.63 178.92 C 312.27 180.51 319.78 177.84 327.29 176.87 C 334.72 174.35 342.22 171.99 349.59 169.27 C 352.39 168.15 354.61 165.83 357.61 165.14 C 359.84 164.70 361.58 163.22 363.38 161.95 C 373.56 157.56 382.45 150.72 390.68 143.39 Z" />
<path fill="#fcfcfc" d=" M 263.98 146.49 C 270.73 146.64 277.04 143.53 283.83 144.21 C 282.07 148.11 280.55 152.12 278.58 155.92 C 273.50 154.17 269.77 149.69 264.37 148.89 C 264.28 148.29 264.08 147.09 263.98 146.49 Z" />
<path fill="#fcfcfc" d=" M 243.88 151.26 C 244.71 150.33 245.55 149.40 246.41 148.50 C 246.53 149.29 246.76 150.89 246.87 151.68 C 246.13 151.58 244.63 151.37 243.88 151.26 Z" />
<path fill="#fefefe" d=" M 652.55 150.57 C 654.70 149.66 656.83 148.67 659.13 148.20 C 659.29 149.27 659.60 151.40 659.75 152.47 C 656.09 154.42 652.10 155.71 648.00 156.32 C 645.57 156.47 642.26 155.56 642.16 152.63 C 645.64 152.08 649.27 152.02 652.55 150.57 Z" />
<path fill="#fefefe" d=" M 133.73 152.70 C 134.86 152.35 136.03 152.18 137.24 152.19 C 136.49 155.89 133.28 158.26 130.90 160.93 C 128.23 163.31 126.79 166.72 124.10 169.08 C 120.55 172.23 117.84 176.16 114.67 179.66 C 111.02 184.93 105.66 188.68 101.81 193.77 C 95.74 200.69 89.83 207.75 83.28 214.20 C 79.72 216.71 77.84 220.77 74.61 223.60 C 70.59 227.27 67.13 231.48 63.27 235.29 C 58.58 241.87 51.37 246.01 46.57 252.47 C 38.80 259.76 31.66 267.98 22.41 273.47 C 20.88 276.52 18.14 278.51 15.14 280.01 C 16.76 276.00 18.94 272.24 20.34 268.14 C 26.15 257.41 33.53 247.66 40.71 237.84 C 42.97 233.30 46.95 230.06 49.90 226.02 C 52.78 223.17 54.83 219.61 57.77 216.82 C 67.17 208.21 75.53 198.52 85.36 190.38 C 100.70 176.82 118.02 165.79 133.73 152.70 Z" />
<path fill="#ffffff" d=" M 206.38 152.29 C 210.19 152.23 214.00 152.25 217.81 152.43 C 217.74 153.10 217.61 154.44 217.54 155.11 C 213.91 155.84 210.16 155.94 206.53 155.20 C 206.49 154.47 206.42 153.01 206.38 152.29 Z" />
<path fill="#fefefe" d=" M 145.89 152.34 C 147.48 152.89 149.07 153.46 150.66 154.04 C 150.67 159.04 151.48 164.31 149.43 169.05 C 146.92 176.75 142.36 183.97 135.78 188.80 C 130.97 191.72 126.87 197.10 120.53 195.64 C 122.05 190.74 123.13 185.57 125.97 181.21 C 128.03 178.11 129.27 174.56 131.37 171.48 C 136.14 165.05 140.36 158.19 145.89 152.34 Z" />
<path fill="#ffffff" d=" M 188.87 153.69 C 190.17 152.26 192.28 152.95 193.96 152.84 C 194.05 156.89 189.96 159.92 186.42 160.98 C 186.01 158.26 187.39 155.83 188.87 153.69 Z" />
<path fill="#ffffff" d=" M 437.06 161.69 C 437.57 158.62 439.30 155.49 442.21 154.14 C 446.31 157.11 440.14 161.18 437.06 161.69 Z" />
<path fill="#fefefe" d=" M 510.08 202.62 C 516.59 188.96 523.88 175.67 530.04 161.85 C 534.95 167.44 535.04 175.31 538.07 181.82 C 540.22 188.19 541.14 194.89 541.85 201.54 C 535.71 203.40 529.25 201.89 522.97 202.22 C 518.66 202.14 514.38 203.15 510.08 202.62 Z" />
<path fill="#ffffff" d=" M 435.65 166.77 C 437.97 165.22 440.65 164.32 443.35 163.66 C 443.34 165.80 444.21 168.59 442.07 170.04 C 439.87 171.46 437.25 172.01 434.80 172.84 C 434.59 170.81 433.83 168.32 435.65 166.77 Z" />
<path fill="#ffffff" d=" M 546.69 211.13 C 547.41 209.85 547.42 207.71 549.20 207.41 C 550.67 206.87 551.77 208.61 552.66 209.52 C 552.98 209.89 553.61 210.64 553.92 211.01 C 551.55 211.82 549.05 212.12 546.69 211.13 Z" />
<path fill="#fefefe" d=" M 506.28 212.71 C 506.28 210.61 506.51 207.92 509.07 207.51 C 516.70 207.58 524.37 207.15 531.99 207.90 C 535.91 207.95 540.01 206.97 543.75 208.68 C 543.58 209.45 543.25 211.00 543.08 211.77 C 534.78 211.57 526.47 211.26 518.16 211.51 C 514.21 211.98 510.27 212.71 506.28 212.71 Z" />
<path fill="#c9c9c9" d=" M 552.66 209.52 C 557.31 209.38 562.15 209.05 566.45 211.21 C 562.33 211.83 557.94 212.34 553.92 211.01 C 553.61 210.64 552.98 209.89 552.66 209.52 Z" />
<path fill="#c9c9c9" d=" M 392.41 211.30 C 393.22 209.83 396.48 210.72 395.26 212.51 C 394.43 214.13 391.31 213.12 392.41 211.30 Z" />
<path fill="#dbdbdb" d=" M 368.79 214.33 C 372.44 213.27 376.26 212.70 380.01 213.71 C 375.01 216.73 369.19 214.35 363.82 215.51 C 361.03 215.80 358.42 216.89 355.67 217.34 C 353.13 217.55 350.60 217.13 348.07 217.20 C 346.40 217.55 345.04 218.67 343.45 219.22 C 340.51 219.58 337.55 219.32 334.63 218.95 C 339.53 217.14 344.65 216.46 349.83 216.38 C 355.92 214.01 362.44 214.97 368.79 214.33 Z" />
<path fill="#000000" d=" M 435.42 216.48 C 443.34 215.00 451.49 216.63 459.40 215.12 C 460.74 215.52 461.98 216.16 463.25 216.74 C 463.24 217.11 463.22 217.83 463.21 218.19 C 455.42 218.00 447.70 218.72 440.05 220.09 C 436.12 220.46 432.16 220.19 428.23 220.28 C 427.74 219.64 426.75 218.36 426.26 217.72 C 429.23 216.77 432.36 216.87 435.42 216.48 Z" />
<path fill="#ffffff" d=" M 504.63 216.29 C 508.40 216.35 512.16 216.81 515.92 217.09 C 524.81 215.63 533.86 216.36 542.83 216.34 C 542.68 223.50 540.71 230.46 539.12 237.39 C 537.54 244.38 532.90 250.04 528.07 255.11 C 522.48 260.15 515.45 263.39 508.01 264.50 C 504.40 263.96 501.64 261.35 499.62 258.48 C 499.00 254.94 496.72 251.79 497.18 248.08 C 497.39 244.43 496.56 240.51 498.26 237.11 C 499.34 235.01 499.09 232.61 499.45 230.35 C 501.17 225.66 502.67 220.89 504.63 216.29 Z" />
<path fill="#555555" d=" M 322.58 220.84 C 326.46 219.80 330.44 219.06 334.46 219.05 C 330.92 221.36 326.62 221.26 322.58 220.84 Z" />
<path fill="#c9c9c9" d=" M 307.61 222.78 C 310.33 221.67 313.25 221.56 316.14 221.74 C 313.48 223.09 310.51 224.08 307.61 222.78 Z" />
<path fill="#4b4b4b" d=" M 298.77 224.16 C 299.22 222.87 301.61 223.42 301.15 224.83 C 300.70 226.13 298.31 225.58 298.77 224.16 Z" />
</svg>
