<?xml version="1.0" encoding="UTF-8"?>
<svg version="1.0" xmlns="http://www.w3.org/2000/svg" width="490" height="243" >
<path d="M136.688,126.465c5.935-34.361,18.297-69.131,38.313-97.771c4.876-6.977,10.062-13.967,16.066-20.029 c0.511-0.516,1.463-1.399,1.731-1.592c0.745-0.538-1.032,0.844-1.804-1.231c-0.248-0.666,0.103-0.828-0.171-0.261 c-1.43,2.951-3.602,5.636-5.533,8.261c-11.725,15.939-24.753,30.975-37.63,45.979c-19.705,22.958-38.364,46.238-54.83,71.667 c-13.131,20.279-24.851,41.39-36.806,62.369c-7.191,12.619-14.395,27.545-25.723,37.063c-7.135,5.996-17.518,3.422-21.045-5.515 c-3.718-9.419,4.761-20.562,10.24-27.385c9.754-12.146,21.856-22.448,34.05-32.047c13.649-10.745,28.088-20.525,42.942-29.523 c8.934-5.412,18.078-10.518,27.517-14.999c5.829-2.767,12.455-6.121,18.995-6.701c-0.155-1.146-0.31-2.292-0.465-3.438 c-14.825,2.36-28.709,13.972-23.286,30.236c2.305,6.912,7.198,0.794,8.819-2.815c2.47-5.499,4.152-11.43,5.619-17.268 c-0.857,0.349-1.714,0.697-2.571,1.046c11.062,4.82,26.169-3.296,34.417-10.008c2.436-1.982,5.288-5.567,3.295-8.773 c-1.703-2.739-5.762-2.621-8.428-1.757c-13.96,4.527-4.212,23.159-0.107,30.956c1.214,2.307,4.124,8.818,7.715,8.377 c1.758-0.215,2.543-1.705,2.742-3.306c0.277-2.236-3.226-2.209-3.5,0c0.108-0.869-0.003-0.109-0.07,0.108 c-0.087,0.283,0.327-0.518,0.707-0.313c-3.03-1.633-5.039-7.466-6.433-10.292c-2.831-5.735-9.554-19.097,0.346-22.307 c1.062-0.344,3.787-0.729,4.22,0.755c0.902,3.099-8.092,7.601-9.61,8.499c-5.382,3.181-11.511,5.479-17.799,5.738 c-1.493,0.062-2.995-0.063-4.457-0.366c-0.289-0.06-1.989-0.646-1.27-0.333c-1-0.435-2.271-0.149-2.571,1.046 c-0.939,3.736-2.038,7.437-3.258,11.09c-0.88,2.637-1.854,5.256-3.162,7.713c-0.55,1.034-1.515,1.549-0.807,2.11 c-0.889-0.706-1.039-2.895-1.232-3.895c-2.57-13.249,10.21-21.051,21.611-22.866c1.945-0.31,1.492-3.611-0.465-3.438 c-9.409,0.835-18.791,6.071-27.04,10.271c-14.151,7.206-27.719,15.596-40.87,24.482c-14.021,9.474-27.596,19.72-40.177,31.049 c-9.896,8.91-19.93,18.864-26.2,30.763c-3.992,7.575-5.785,16.748,0.341,23.694c6.168,6.994,14.917,8.442,22.458,2.875 c10.963-8.092,17.954-22.189,24.614-33.68c11.71-20.204,22.885-40.691,35.29-60.489c16.395-26.166,34.972-50.429,55.146-73.775 c13.595-15.734,27.158-31.573,39.735-48.142c0.857-1.129,11.559-13.452,6.771-14.711c-3.597-0.946-9.249,7.851-10.976,9.955 c-26.081,31.771-41.815,71.658-48.781,111.992C132.931,127.742,136.304,128.686,136.688,126.465L136.688,126.465z"/>
<path d="M209.535,92.313c-2.548,0.792-5.394,0.871-7.924,0.011c-8.047-2.733-3.546-16.647-1.923-21.858 c2.291-7.353,7.68-15.502,15.148-18.394c7.786-3.015,10.352,4.609,10.467,11.006c0.133,7.351-1.815,14.728-3.904,21.711 c-3.56,11.899-8.617,23.336-13.98,34.514c-1.906,3.973-3.905,7.901-5.93,11.814c1.007,0.589,2.015,1.178,3.022,1.767 c2.872-5.624,5.973-11.164,9.42-16.455c1.028-1.577,2.11-3.123,3.319-4.567c0.485-0.58,1.014-1.119,1.577-1.623 c0.848-0.759,0.437,0.115-0.106-0.68c0.755,1.105,0.179,3.705,0.065,4.905c-0.418,4.401-1.483,8.773-2.474,13.071 c-0.472,2.049,2.032,2.875,3.199,1.349c4.333-5.667,8.667-11.333,13-17c-1.066-0.45-2.132-0.899-3.199-1.349 c-2.613,8.035-3.32,17.896,1.176,25.349c1.165,1.929,4.191,0.171,3.022-1.767c-4.013-6.651-3.146-15.509-0.824-22.651 c0.666-2.048-2.085-2.805-3.199-1.349c-4.333,5.667-8.667,11.333-13,17c1.066,0.45,2.132,0.899,3.199,1.349 c1.067-4.63,2.057-9.277,2.599-14.002c0.23-2.006,0.502-4.524-0.418-6.416c-1.644-3.375-5.082-0.873-6.761,0.959 c-5.742,6.264-9.777,14.589-13.619,22.11c-1.023,2.004,1.984,3.774,3.022,1.767c10.025-19.375,20.575-40.35,23.723-62.208 c0.983-6.831,1.766-18.351-5.906-21.957c-6.158-2.895-13.039,1.746-17.229,5.982c-7.947,8.036-13.024,21.872-11.059,32.969 c1.382,7.801,9.671,10.116,16.425,8.017C212.613,95.02,211.696,91.641,209.535,92.313L209.535,92.313z"/>
<path d="M258.511,116.883c1.479-3.419,4.398-8.935,3.095-12.704c-2.54-7.343-14.625,9.001-15.677,11.252 c-7.254,15.536,21.618,21.398,27.583,8.452c0.938-2.035-2.078-3.814-3.021-1.767c-3.853,8.361-24.697,6.977-21.86-3.973 c0.968-3.736,4.295-6.785,6.911-9.416c1.038-1.045,2.14-2.06,3.429-2.784c0.673-0.378-0.665-0.782-0.638-0.487 c0.031,0.338-0.003,0.702-0.05,1.037c-0.406,2.84-1.848,6.438-2.792,8.624C254.603,117.166,257.617,118.95,258.511,116.883 L258.511,116.883z"/>
<path d="M333.763,80.763c-2.955,2.846-5.839,5.788-8.517,8.897c-0.958,1.113-6.07,7.909-1.053,7.606 c2.388-0.144,4.68-1.742,6.669-2.913c4.308-2.535,8.652-5.253,11.995-9.018c4.17-4.697,5.868-11.217,3.62-17.173 c-6.15-16.291-27.418-11.243-38.176-3.695c-9.069,6.363-17.064,16.076-21.696,26.161c-2.369,5.158-3.557,11.238-0.635,16.41 c5.418,9.589,20.74,8.613,29.819,7.248c6.697-1.008,13.233-3.118,19.334-6.039c2.498-1.196,4.951-3.633,7.406-4.585 c0.771-0.299,1.572-0.503,2.38-0.678c2.838-0.617,2.181,1.602,1.402,3.551c1.125,0,2.25,0,3.375,0 c-1.714-4.653-5.867-7.736-10.239-4c-3.211,2.743-11.909,17.542-4.15,20.026c6.081,1.948,15.452-5.285,20.108-8.231 c5.313-3.362,10.485-6.995,15.477-10.818c-0.856-0.659-1.713-1.318-2.57-1.977c-0.951,3.083-1.323,7.19,0.584,9.978 c5.131,7.501,18.645-1.663,23.483-4.7c10.606-6.658,20.309-14.817,29.812-22.931c6.188-5.284,12.864-10.617,18.033-16.958 c1.343-1.647,2.725-5.847-1.103-5.088c-3.348,0.664-6.678,3.746-9.266,5.758c-7.564,5.882-14.535,12.613-20.329,20.259 c-4.335,5.72-10.498,15.898-6.503,23.241c5.952,10.939,30.637-13.415,35.213-17.855c-0.916-0.707-1.832-1.414-2.748-2.121 c-1.876,3.911-4.546,9.39-3.603,13.828c2.082,9.793,17.813-4.558,20.351-6.707c-0.996-0.412-1.991-0.825-2.987-1.237 c0.212,2.659,0.721,5.531,2.525,7.589c3.238,3.692,7.356-2.472,8.735-4.706c-1.065-0.45-2.132-0.899-3.198-1.349 c-6.236,30.367-3.94,65.972,11.177,93.348c1.091,1.977,4.113,0.211,3.021-1.766c-14.64-26.513-16.867-61.221-10.823-90.652 c0.395-1.923-2.127-3.085-3.198-1.349c-1.454,2.355-3.207,5.544-4.283,1.603c-0.241-0.882-0.384-1.808-0.456-2.72 c-0.125-1.57-1.789-2.253-2.987-1.237c-3.77,3.193-7.835,6.923-12.547,8.69c-2.292,0.86-2.128-0.666-1.822-2.532 c0.51-3.108,1.76-6.206,3.117-9.038c0.84-1.751-1.263-3.563-2.748-2.121c-7.229,7.016-15.812,15.402-25.45,18.809 c-6.974,2.465-4.847-6.642-3.374-10.501c2.436-6.381,7.307-11.929,11.921-16.828c4.482-4.759,9.419-9.164,14.663-13.069 c1.607-1.197,3.265-2.341,5.012-3.325c0.435-0.245,0.87-0.47,1.351-0.605c-3.056,0.861-0.36-3.073-2.135-0.795 c-4.998,6.416-11.912,11.7-18.033,16.958c-9.804,8.42-19.871,16.728-30.906,23.503c-2.812,1.726-14.668,9.598-17.364,4.02 c-0.906-1.876-0.337-4.589,0.241-6.464c0.419-1.358-1.317-2.937-2.57-1.977c-7.957,6.095-16.351,12.023-25.349,16.473 c-2.104,1.041-4.499,2.165-6.885,2.28c-2.105,0.102-0.823-2.928-0.467-4.032c1.158-3.578,6.757-16.264,9.896-7.744 c0.625,1.696,2.727,1.624,3.375,0c2.48-6.211-1.216-9.231-7.23-7.471c-2.225,0.651-4.079,2.465-6.072,3.63 c-3.432,2.005-7.137,3.5-10.902,4.745c-9.567,3.163-31.186,7.756-37.03-4.122c-3.493-7.099,3.437-16.703,7.302-22.055 c7.271-10.065,17.98-20.307,30.956-21.495c7.323-0.671,15.099,2.949,17.045,10.45c2.498,9.63-7.863,16.058-14.659,20.183 c-1.24,0.753-2.513,1.452-3.823,2.075c-1.539,0.732-0.067,2.269,0.51,1.28c0.963-1.649,2.377-3.081,3.652-4.487 c2.178-2.401,4.468-4.711,6.803-6.961C337.865,81.669,335.388,79.197,333.763,80.763L333.763,80.763z"/>
<path d="M420.688,106.465c0.57-2.16,1.987-4.193,3.166-6.046c4.349-6.833,10.045-12.938,15.802-18.592 c5.748-5.645,13.515-9.682,21.019-12.429c1.446-0.53,12.358-4.292,10.51-0.243c-1.778,3.894-5.571,7.07-8.643,9.903 c-7.301,6.733-15.374,12.64-23.424,18.431c-1.814,1.305-0.07,4.343,1.766,3.022c8.584-6.175,17.122-12.512,24.904-19.689 c3.379-3.117,7.152-6.664,8.897-11.023c2.863-7.157-7.491-5.942-11.12-4.989c-8.865,2.328-17.573,7.065-24.585,12.92 c-6.544,5.463-12.313,12.489-17.181,19.473c-1.726,2.476-3.7,5.358-4.486,8.332C416.735,107.719,420.111,108.646,420.688,106.465 L420.688,106.465z"/>
<path d="M445.688,123.535c-2.872-9.611-9.366-18.568-16.933-24.988c-7.033-5.967-15.665-9.502-24.749-10.803 c-7.543-1.081-16.001-0.003-21.846-5.943c-4.153-4.221-2.874-10.401-0.145-14.976c4.237-7.103,12.255-11.592,19.74-14.459 c20.34-7.792,47.22-6.752,65.779,5.178c11.341,7.291,20.992,22.65,13.246,35.803c-2.761,4.687-7.815,7.403-12.419,9.96 c-6.091,3.384-12.407,6.37-18.721,9.311c-15.438,7.191-31.129,13.832-46.746,20.62c-10.611,4.612-22.147,8.731-31.926,15.018 c-3.152,2.026-3.605,5.655,0.984,5.562c7.821-0.158,15.384-1.219,23.107,0.722c7.846,1.972,8.35,7.072,6.037,13.85 c-1.145,3.356-4.004,8.604-2.044,12.174c2.704,4.926,10.701,3.514,15.146,3.065c7.248-0.73,14.648-1,21.907-0.285 c0.651,0.063,6.976,0.787,6.743,2.091c-0.561,3.149-8.359,5.926-10.733,7.055c-2.038,0.969-0.261,3.985,1.766,3.021 c3.396-1.614,16.337-6.938,11.341-12.785c-1.69-1.979-5.291-2.36-7.646-2.699c-4.806-0.692-9.714-0.64-14.554-0.484 c-5.289,0.169-10.552,1.023-15.84,1.007c-5.402-0.017-5.661-2.488-4.234-6.895c1.987-6.139,5.549-12.756,0.645-18.419 c-5.567-6.429-17.982-5.671-25.442-5.353c-2.072,0.088-5.529,0.87-7.283,0.371c2.293,0.652-0.08,2.592,1.103,1.563 c0.495-0.431,1.108-0.761,1.668-1.1c10.509-6.37,22.5-10.757,33.736-15.634c15.582-6.763,31.219-13.417,46.596-20.641 c9.864-4.634,23.029-9.377,29.459-18.742c7.301-10.632,2.663-24.478-5.028-33.394c-12.909-14.962-34.788-18.733-53.503-17.95 c-15.583,0.652-33.574,5.277-43.885,17.874c-5.87,7.171-7.514,18.038,0.929,24.003c5.137,3.631,11.366,4.329,17.483,4.575 c9.808,0.395,19.258,4.039,26.854,10.214c7.176,5.833,13.358,14.497,16.032,23.443 C442.957,126.622,446.335,125.703,445.688,123.535L445.688,123.535z"/>
</svg>