<?xml version="1.0" encoding="UTF-8" standalone="no"?>
<!-- Created with Inkscape (http://www.inkscape.org/) -->

<svg
   xmlns:dc="http://purl.org/dc/elements/1.1/"
   xmlns:cc="http://creativecommons.org/ns#"
   xmlns:rdf="http://www.w3.org/1999/02/22-rdf-syntax-ns#"
   xmlns:svg="http://www.w3.org/2000/svg"
   xmlns="http://www.w3.org/2000/svg"
   xmlns:sodipodi="http://sodipodi.sourceforge.net/DTD/sodipodi-0.dtd"
   xmlns:inkscape="http://www.inkscape.org/namespaces/inkscape"
   id="svg3390"
   version="1.1"
   inkscape:version="0.91 r13725"
   width="389.27222"
   height="86.25"
   viewBox="0 0 389.27222 86.25"
   sodipodi:docname="Johannes Franz Hartmann, signature.svg">
  <metadata
     id="metadata3396">
    <rdf:RDF>
      <cc:Work
         rdf:about="">
        <dc:format>image/svg+xml</dc:format>
        <dc:type
           rdf:resource="http://purl.org/dc/dcmitype/StillImage" />
        <dc:title></dc:title>
      </cc:Work>
    </rdf:RDF>
  </metadata>
  <defs
     id="defs3394" />
  <sodipodi:namedview
     pagecolor="#ffffff"
     bordercolor="#666666"
     borderopacity="1"
     objecttolerance="10"
     gridtolerance="10"
     guidetolerance="10"
     inkscape:pageopacity="0"
     inkscape:pageshadow="2"
     inkscape:window-width="1312"
     inkscape:window-height="747"
     id="namedview3392"
     showgrid="false"
     fit-margin-top="0"
     fit-margin-left="0"
     fit-margin-right="0"
     fit-margin-bottom="0"
     inkscape:zoom="1.406135"
     inkscape:cx="262.81192"
     inkscape:cy="53.678007"
     inkscape:window-x="1200"
     inkscape:window-y="117"
     inkscape:window-maximized="1"
     inkscape:current-layer="svg3390" />
  <path
     style="fill:#000000"
     d="m 133.34268,83.99566 c -1.93626,-2.13954 -1.78042,-2.53749 2.6092,-6.66255 12.79602,-12.02478 23.20577,-10.8729 12.71184,1.40661 -5.65891,6.6218 0.8058,5.70036 9.93771,-1.41646 C 160.24102,76.04547 162.8718,75 164.44761,75 c 1.95886,0 4.37667,-1.96006 7.64393,-6.19675 5.63541,-7.3075 10.08934,-8.97259 6.60984,-2.47107 -3.18632,5.95369 14.99108,-0.84075 21.61083,-8.0778 3.48047,-3.80505 4.96241,-4.70883 5.7398,-3.5005 0.7699,1.19671 3.58774,-0.74302 10.62065,-7.31098 7.4112,-6.92125 9.5727,-8.37671 9.5727,-6.44586 0,1.37169 -1.82813,4.13472 -4.0625,6.14008 C 206.82936,60.9169 202.68721,67.5 209.37036,67.5 c 3.54166,0 4.375,0.47619 4.375,2.5 0,1.375 0.30366,2.5 0.6748,2.5 0.37114,0 2.87997,-1.125 5.5752,-2.5 6.83535,-3.48713 9.19508,-3.30365 8.43811,0.65611 -0.6947,3.63411 1.45168,3.44323 8.82084,-0.78446 9.01849,-5.17391 13.76378,-0.58904 5.73911,5.54511 -1.64894,1.26047 -2.99806,3.27609 -2.99806,4.47917 0,2.84879 -1.07329,3.84342 -3.24721,3.00921 -2.60372,-0.99914 -2.1442,-2.98479 1.59358,-6.8862 3.58927,-3.74639 3.36545,-5.74476 -0.41215,-3.67995 -1.27007,0.69421 -4.94495,2.20205 -8.16638,3.35075 -3.22143,1.14869 -6.1569,2.86968 -6.52327,3.8244 -0.71507,1.86347 -4.49457,2.43494 -4.49457,0.6796 0,-0.58095 1.125,-2.07438 2.5,-3.31874 2.14205,-1.93852 3.47281,-5.625 2.03054,-5.625 -2.50843,0 -15.34849,7.04378 -17.69093,9.70486 -2.70919,3.07771 -3.01265,3.16984 -3.03097,0.92014 -0.0261,-3.2067 1.13132,-4.88998 4.62886,-6.73185 1.54687,-0.81461 2.8125,-2.52804 2.8125,-3.80762 0,-4.01575 -10.0446,-0.49515 -16.69621,5.85197 -3.06204,2.92188 -5.9018,5.3125 -6.31057,5.3125 -2.13531,0 -0.22647,-3.53725 3.52347,-6.52933 3.09179,-2.46694 4.0842,-4.10185 3.60417,-5.9375 -0.79195,-3.0284 -0.1396,-2.98545 -9.29802,-0.61226 -4.07715,1.0565 -7.97746,1.57206 -8.66734,1.14569 -0.68988,-0.42637 -4.66631,2.92797 -8.83651,7.45409 -4.17022,4.52612 -8.36673,8.22931 -9.32559,8.22931 -2.65101,0 -2.10296,-1.48669 1.6941,-4.59559 3.34651,-2.74001 3.36306,-2.81569 0.625,-2.85945 -1.54688,-0.0247 -2.8125,0.46736 -2.8125,1.09353 0,1.56296 -10.16841,6.36151 -13.48043,6.36151 -1.87855,0 -2.47386,-0.56614 -1.97161,-1.875 0.91148,-2.37525 -0.12689,-2.37233 -3.76365,0.0105 -2.61231,1.71165 -3.06766,1.67569 -4.93699,-0.3899 z m 11.1298,-6.02124 c 3.03759,-2.48906 5.52288,-4.96765 5.52288,-5.50797 0,-2.9514 -11.51706,3.82755 -14.12461,8.31375 -1.96525,3.38115 3.04638,1.74642 8.60173,-2.80578 z M 201.8773,64.99234 c 1.24817,-1.37922 2.00454,-2.77253 1.68081,-3.09625 -0.82738,-0.82738 -6.06275,2.99357 -6.06275,4.42479 0,1.93841 1.96436,1.34284 4.38194,-1.32854 z M 73.74536,83.94205 c 0,-6.20271 31.79353,-35.19205 38.59624,-35.19205 0.77207,0 1.40376,-0.5625 1.40376,-1.25 0,-0.6875 0.81756,-1.25 1.8168,-1.25 2.29252,0 12.73703,-10.51134 15.22486,-15.32229 1.02999,-1.99177 3.80448,-6.15216 6.16553,-9.2453 4.227,-5.53768 5.45237,-9.18241 3.08716,-9.18241 -4.37201,0 -21.29435,12.76567 -21.29435,16.06378 0,0.78992 -0.5625,1.43622 -1.25,1.43622 -6.4986,0 4.55776,-14.27773 14.5984,-18.85177 2.97089,-1.35339 5.4016,-3.00915 5.4016,-3.67947 0,-2.07216 7.2932,-1.36631 8.51925,0.82451 1.27624,2.28053 -0.71976,10.45673 -2.55275,10.45673 -0.61272,0 -0.78885,0.52618 -0.39138,1.16929 0.39747,0.64311 -0.60813,2.50009 -2.23467,4.12663 -4.13526,4.13526 -7.58084,9.63036 -6.63289,10.57831 0.83689,0.83689 2.15941,0.31178 13.29244,-5.27772 12.4753,-6.26341 13.75,-7.01921 13.75,-8.15276 C 161.24536,19.47637 181.26342,0 183.02857,0 c 6.46534,0 -0.9947,10.24902 -14.38802,19.76707 -7.42414,5.27601 -11.14158,8.5424 -11.16272,9.8083 -0.01,0.5773 -3.52526,4.78628 -7.8125,9.35329 -4.28723,4.56701 -9.76372,10.73926 -12.16997,13.7161 -2.40625,2.97684 -5.21875,6.29448 -6.25,7.37253 -1.03125,1.07805 -3.91179,4.4683 -6.40119,7.5339 -7.14809,8.80257 -14.43224,16.19881 -15.95331,16.19881 -2.79255,0 -1.26438,-2.68123 4.8545,-8.5174 3.4375,-3.27868 6.25,-6.34992 6.25,-6.82497 0,-0.47505 2.54665,-3.52156 5.65921,-6.77002 3.11258,-3.24846 5.38023,-6.63333 5.03924,-7.52195 -0.34099,-0.88861 0.0812,-1.61566 0.93815,-1.61566 0.85697,0 4.35494,-3.15182 7.77326,-7.00406 3.41833,-3.85223 7.55981,-8.4665 9.2033,-10.25394 3.86733,-4.20605 1.72433,-4.85634 -4.41041,-1.33832 -2.65526,1.52268 -7.2502,4.01937 -10.21099,5.54821 -4.87182,2.51564 -16.49176,12.94762 -16.49176,14.80575 0,1.18584 -16.39821,17.39911 -21.045463,20.80811 -2.293757,1.68259 -4.825007,3.65124 -5.624997,4.37477 -3.90603,3.53272 -17.07954,7.00476 -17.07954,4.50153 z m 10,-4.56705 c 2.72268,-1.71875 5.4444,-3.125 6.04828,-3.125 0.93076,0 12.7503,-10.21044 15.4572,-13.35286 0.48426,-0.56217 2.95377,-3.42763 5.4878,-6.36767 6.78447,-7.87152 4.4645,-7.72256 -7.23407,0.46448 -18.2333,12.76026 -35.4994,32.3174 -19.75921,22.38105 z m 166.74417,3.60771 c -3.3113,-1.36671 -0.0157,-7.06979 6.49019,-11.2316 8.3881,-5.36581 9.81076,-5.41423 8.78774,-0.29909 -0.75421,3.77102 -0.68529,3.85689 1.50468,1.875 2.51391,-2.27507 5.22322,-2.74774 5.22322,-0.91125 0,0.64117 -1.0742,1.5067 -2.38711,1.9234 -2.60598,0.82711 -5.8123,4.12808 -4.8979,5.04248 0.31417,0.31418 4.95015,-1.66816 10.30215,-4.40521 10.59415,-5.4179 13.80255,-6.05229 14.98782,-2.96352 0.66558,1.73447 1.36418,1.56156 5.05033,-1.25 7.90363,-6.0284 13.36005,-2.37697 6.32463,4.23245 -5.03621,4.73128 -2.67495,4.36861 7.25864,-1.11485 9.80674,-5.41344 15.47271,-6.67794 14.11933,-3.15107 -0.41778,1.0887 -0.33733,1.77715 0.17876,1.52989 0.51609,-0.24726 2.9966,-1.49906 5.51224,-2.78178 7.41113,-3.77895 11.22671,1.29387 4.33768,5.76698 -2.65177,1.72181 0.55332,2.64464 4.52699,1.30344 9.17358,-3.09628 15.59828,-5.54498 20.61031,-7.85537 2.91439,-1.34343 6.4498,-2.44261 7.85648,-2.44261 1.40669,0 3.80344,-0.79841 5.32612,-1.77425 4.52467,-2.89971 16.61378,-3.90924 17.55145,-1.46568 0.53798,1.40193 -0.72846,2.99379 -4.22005,5.30442 -5.51582,3.6502 -8.60072,2.91691 -3.6692,-0.87218 6.98512,-5.36695 -33.8207,5.85864 -47.51867,13.07227 -9.0959,4.79009 -13.85913,2.40359 -6.1537,-3.08315 5.58424,-3.97633 2.81777,-5.75867 -3.6808,-2.37142 -2.85425,1.48772 -5.60601,3.40696 -6.11503,4.26499 -1.33041,2.24264 -6.38415,4.67534 -7.8415,3.77465 -0.68165,-0.42129 1.1581,-2.96351 4.08834,-5.64939 2.93023,-2.68588 4.54555,-4.89846 3.5896,-4.91684 -2.33329,-0.0449 -12.63691,5.15664 -12.63691,6.3794 0,0.53332 -2.09244,1.54742 -4.64986,2.25356 -6.68057,1.84459 -7.96961,-0.21198 -3.06856,-4.89568 7.76658,-7.42218 0.34036,-5.86857 -8.86354,1.8543 -8.11939,6.81288 -12.69023,6.98713 -6.1451,0.23427 4.39687,-4.53642 5.15125,-6.51611 1.78956,-4.69624 -11.52043,6.23661 -22.21556,10.28049 -24.09135,9.10905 -1.25285,-0.78243 -2.76578,-0.85209 -3.833,-0.1765 -1.88592,1.19386 -3.4324,1.29994 -5.64397,0.38713 z M 257.5976,80 c 0.63126,0 1.14776,-1.125 1.14776,-2.5 0,-2.78449 -2.44976,-3.30023 -4.75,-1 -2.21703,2.21703 -1.88659,5.16582 0.47724,4.25874 C 255.56007,80.34143 256.96632,80 257.5976,80 Z M 3.5316189e-5,78.4375 C 0.00873532,70.88273 5.5519283,64.27715 8.6999182,68.07025 c 1.6379888,1.97365 0.612891,4.928 -1.299757,3.74591 C 6.0727862,70.9958 4.2786013,74.69991 5.4405283,75.86184 6.5337022,76.95501 15.903501,70.53385 22.936918,63.8715 34.560658,52.861 54.995362,32.02863 54.995362,31.18918 c 0,-0.46498 1.744281,-3.03214 3.876181,-5.7048 C 75.18158,5.03729 65.062847,-0.82077 43.999096,16.87424 41.453292,19.01289 37.401612,22.1278 34.995362,23.79626 29.841419,27.36992 24.344538,31.99335 20.487018,35.99925 16.73695,39.89356 15.585046,37.43878 19.060587,32.95942 23.484762,27.25745 32.165551,20 34.561624,20 c 0.926055,0 1.683738,-0.52459 1.683738,-1.16576 0,-0.64117 1.024295,-1.49087 2.27621,-1.88821 1.251916,-0.39734 3.923791,-2.29839 5.9375,-4.22455 2.01371,-1.92616 5.489415,-4.23846 7.72379,-5.13845 2.234375,-0.89998 4.0625,-2.13059 4.0625,-2.73468 0,-0.60409 1.40625,-1.09835 3.125,-1.09835 1.71875,0 3.125,-0.5625 3.125,-1.25 0,-2.12827 8.399138,-1.4673 9.241268,0.72724 2.63551,6.86803 -2.85922,16.8611 -19.137883,34.80538 C 34.586958,57.88736 21.709085,69.70488 8.9322512,78.10363 0.70950932,83.50878 -0.00582868,83.53552 3.5316189e-5,78.4375 Z M 53.319387,74.07203 c -0.362488,-0.58652 -0.190453,-1.82463 0.382297,-2.75136 1.267745,-2.05125 5.470106,-0.72569 4.731543,1.49249 -0.625519,1.87866 -4.188686,2.7558 -5.11384,1.25887 z"
     id="path3412"
     inkscape:connector-curvature="0" />
</svg>
