<?xml version="1.0" encoding="UTF-8"?>
<svg version="1.1" xmlns="http://www.w3.org/2000/svg" width="230" height="45" >
<path d="M21.549,11.583c1.59-0.675,5.119-2.623,3.799,0.213c-1.361,2.925-3.447,5.594-5.55,8.007 c-2.086,2.393-4.881,3.813-7.346,5.753c-1.285,1.01-2.533,2.065-3.819,3.074c-0.601,0.466-1.22,0.906-1.856,1.323 c-1.116,0.185-2.231,0.368-3.347,0.553c-1.479-1.718-1.672-2.75-0.582-3.097c1.506-0.557,0.153-1.587-0.974-1.17 c-3.753,1.389-1.22,6.047,1.927,6.275c5.052,0.366,10.528-6.631,14.47-9.062c4.104-2.531,8.741-8.692,9.99-13.375 c0.792-2.971-6.925,0.012-7.687,0.335C19.099,11.04,20.428,12.06,21.549,11.583L21.549,11.583z"/>
<path d="M30.277,32.622c0.001-0.166,0.014-0.253,0.052-0.421c0.2-0.871,0.222,1.203-1.723,0.245 c0.207,0.102,0.375,0.34,0.503,0.52c0.439,0.614,2.552-0.295,2.318-0.621c-0.248-0.346-0.485-0.697-0.908-0.834 c-0.622-0.2-1.568,0.075-2.066,0.462c-0.409,0.316-0.493,0.777-0.496,1.271C27.956,33.706,30.272,33.351,30.277,32.622 L30.277,32.622z"/>
<path d="M88.667,12.748c3.3-5.083-0.818-9.555-6.175-8.09c-8.122,2.223-15.265,7.503-22.538,11.558 c-1.014,0.564-6.952,2.618-6.086,4.591c1.268,2.887,5.996,2.689,8.584,2.6c2.134-0.074,4.234-0.812,6.268-1.378 c2.448-0.682,0.707,0.594,0.07,1.345c-0.788,0.931-1.593,1.847-2.393,2.766c-2.032,2.333-4.289,4.469-6.742,6.353 c-1.7,1.305-4.972,2.93-6.024,0.305c-1.185-2.957,8.959-4.509,10.094-4.641c0.628-0.073,2.51-1.174,0.987-0.996 c-4.03,0.469-7.938,1.418-11.46,3.488c-2.377,1.397-2.542,4.548,0.758,4.77c7.13,0.478,14.875-8.706,18.268-13.963 c0.926-1.434-3.561-0.271-3.769-0.217c-2.723,0.712-4.542,1.314-7.702,1.148c-2.679-0.14-6.869-1.986-2.53-4.262 c1.688-0.886,3.389-1.72,5.043-2.675c4.773-2.757,9.469-5.653,14.422-8.081c3.293-1.614,7.674-3.679,9.671,0.731 c0.701,1.546-0.172,3.704-1.038,5.037C86.169,13.454,88.287,13.333,88.667,12.748L88.667,12.748z"/>
<path d="M79.677,30.998c0.051-0.065,0.104-0.128,0.159-0.19c0.152-0.174-0.04,0.035,0.076-0.083 c0.073-0.075,0.15-0.146,0.228-0.215c0.038-0.033,0.318-0.235,0.106-0.094c0.108-0.063,0.086-0.056-0.065,0.021 c0.272-0.108,0.076-0.073-0.59,0.106c-0.283,0.014-0.404-0.174-0.249,0.024c0.08,0.102,0.095,0.331,0.116,0.453 c0.13,0.75,2.46,0.195,2.318-0.621c-0.074-0.426-0.245-0.856-0.683-1.015c-0.594-0.215-1.324-0.077-1.877,0.192 c-0.67,0.326-1.229,0.816-1.689,1.402c-0.344,0.439,0.291,0.636,0.617,0.639C78.675,31.623,79.336,31.433,79.677,30.998 L79.677,30.998z"/>
<path d="M124.812,11.543c4.295-0.222,11.587-3.434,10.539-8.94c-1.089-5.729-11.324-0.398-13.833,0.859 c-5.639,2.826-10.839,6.573-15.828,10.398c-2.147,1.647-6.579,4.458-6.879,7.53c-0.387,3.978,14.431,0.88,15.932,0.703 c-0.284-0.382-0.569-0.764-0.854-1.145c-3.612,3.339-7.242,6.661-10.914,9.935c-0.957,0.854-1.922,1.696-2.898,2.525 c-1.563,1.326,0.19,1.136,0.371,0.701c1.568-3.758,9.051-3.1,11.985-2.858c1.101,0.091,2.386-1.508,0.814-1.637 c-4.428-0.365-10.165-0.539-13.721,2.69c-0.727,0.66-2.746,3.289-0.499,3.456c2.538,0.189,6.01-4.343,7.626-5.796 c3.076-2.768,6.127-5.563,9.165-8.372c0.67-0.619-0.248-1.216-0.854-1.145c-4.066,0.48-9.289,2.016-13.354,1.032 c-1.754-0.425,4.223-5.508,4.281-5.557c3.264-2.716,6.786-5.143,10.333-7.468c3.045-1.996,12.162-8.601,16.245-6.391 c2.655,1.438-1.925,6.06-3.069,6.696c-1.28,0.713-2.91,1.062-4.367,1.136C123.74,9.966,123.228,11.624,124.812,11.543 L124.812,11.543z"/>
<path d="M150.265,22.3c0.701-3.729-7.547-0.772-8.37-0.473c-5.002,1.826-9.915,4.319-14.625,6.806 c-1.131,0.598-3.581,1.734-3.394,3.368c0.536,4.688,9.569,0.455,11.5-0.315c2.37-0.945,14.977-5.716,13.95-9.798 c-0.106-0.423-0.672-0.624-1.063-0.561c-2.49,0.408-4.226,4.232-5.207,6.224c-1.586,3.216-0.983,5.931,2.76,6.437 c13.138,1.776,27.065-9.829,35.031-18.743c0.976-1.092-1.058-1.379-1.749-0.907c-3.042,2.076-22.673,16.122-13.755,19.837 c5.104,2.126,12.928-1.848,17.375-3.958c7.744-3.674,15.265-9.116,19.994-16.36c0.767-1.174-0.998-1.487-1.749-0.907 c-6.096,4.707-14.432,10.595-17.552,17.861c-1.67,3.889,2.826,5.023,5.741,4.772c3.808-0.328,7.591-1.969,11.233-3.021 c4.346-1.256,8.888-1.564,13.3-2.537c0.512-0.113,8.889-2.911,4.688-4.173c-5.119-1.537-11.594-1.125-15.791,2.434 c-1.85,1.568-3.632,5.78-0.42,7.045c5.448,2.145,12.467-1.27,17.892-2.082c1.286-0.192,1.764-1.976,0.193-1.74 c-3.739,0.56-7.363,1.711-11.105,2.295c-1.826,0.285-5.648,1.131-6.377-1.188c-0.631-2.007,2.008-3.867,3.388-4.625 c2.814-1.545,6.404-1.211,9.44-0.873c3.009,0.336-2.774,1.368-3.63,1.557c-5.068,1.117-10.028,1.633-15.026,3.146 c-2.219,0.671-13.559,4.535-11.064-1.274c1.169-2.722,3.736-5.049,5.79-7.102c3.372-3.373,7.074-6.48,10.85-9.396 c-0.583-0.303-1.166-0.604-1.749-0.907c-6.414,9.827-20.306,19.229-32.352,19.674c-7.458,0.275,1.719-8.963,3.424-10.506 c2.754-2.492,5.743-4.778,8.812-6.872c-0.583-0.303-1.166-0.604-1.749-0.907c-7.491,8.384-17.412,16.044-28.87,17.645 c-1.338,0.188-2.685,0.19-4.021,0.01c-2.756-0.372-1.026-3.735-0.381-5.047c0.688-1.395,1.631-2.677,2.639-3.855 c0.843-0.984-1.037-1.341-1.438-0.486c-0.357,0.763-1.225,1.317-1.863,1.82c-3.121,2.456-6.987,4.138-10.626,5.662 c-1.908,0.799-3.872,1.456-5.888,1.92c-1.046,0.241-3.125-0.09-1.611-1.266c3.639-2.827,8.802-4.492,12.94-6.391 c0.167-0.077,8.342-3.184,8.134-2.075C147.691,23.647,150.065,23.364,150.265,22.3L150.265,22.3z"/>
</svg>