<?xml version="1.0" encoding="UTF-8"?>
<svg version="1.1" xmlns="http://www.w3.org/2000/svg" width="404" height="91" >
<path fill="#231F20" d="M54.931,27.816c-2.891-5.16-5.119-11.269-0.708-16.035c0.544-0.588,1.13-1.136,1.734-1.663 c1.274-1.11,1.976-0.6,0.06-0.81c1.491,0.164-0.079,5.258-0.199,5.685c-3.322,11.792-9.664,23.601-16.65,33.582 c-5.324,7.606-13.06,16.416-22.416,18.943c-6.163,1.665-9.955-3.334-6.86-8.762c6.152-10.79,22.181-15.955,33.578-17.036 c6.417-0.608,13.038,0.435,19.458,0.836c1.59,0.099,3.183,0.181,4.768,0.346c0.512,0.054,1.32-0.029,0.655,0.373 c-4.263,2.574-12.338,7.105-12.102,12.748c0.083,1.974,3.329,2.042,4.646,1.792c2.694-0.515,4.176-2.283,5.911-4.258 c6.3-7.172,13.685-14.552,22.087-19.157c6.626-3.631,13.487-3.292,20.651-4.497c3.46-0.583,7.237-1.432,10.148-3.515 c3.258-2.332,4.502-6.974-0.706-7.277c-5.191-0.302-9.868,4.155-13.344,7.36c-6.118,5.641-11.704,12.111-16.339,19.018 c-1.216,1.812-7.337,10.983-1.825,11.703c5.601,0.731,9.818-3.962,13.369-7.546c0.441-0.445,0.896-0.873,1.362-1.291 c1.26-1.128-1.956-0.457-1.711,0.614c0.375,1.64-0.333,3.474-0.051,5.187c0.448,2.728,3.786,2.546,5.776,2.066 c3.143-0.757,5.927-2.35,8.31-4.521c0.828-0.754-0.053-0.771,0.293,0.618c0.264,1.062,0.396,2.12,0.841,3.127 c0.565,1.277,2.545,1.527,3.708,1.651c2.997,0.319,6.165-0.728,8.851-1.939c1.617-0.729,2.992-1.829,4.196-3.113 c0.664-0.708,1.21-1.675,1.735-2.469c-0.863-0.371-1.033-0.139-0.509,0.696c0.173,0.742,0.313,1.491,0.421,2.245 c0.508,3.048,3.595,4.146,6.341,3.629c4.044-0.759,6.79-2.817,9.157-6.176c0.18-0.256-3.164-0.177-3.799,0.725 c-1.932,2.741-5.606,5.922-7.629,1.612c-0.604-1.286-0.11-3.564-1.283-4.585c-1.54-1.341-4.373,0.251-5.558,1.404 c-3.176,3.085-3.49,7.116-9.616,6.463c-2.777-0.296-2.721-3.208-3.243-5.301c-0.63-2.53-4.097-0.923-5.481-0.027 c-2.787,1.804-8.691,8.325-8.817,0.852c-0.035-2.064,1.06-4.594-1.958-4.018c-3.198,0.611-10.812,10.339-12.728,7.888 c-2.951-3.775,6.444-14.215,8.437-16.721c4.941-6.21,10.737-13.059,17.581-17.266c2.291-1.408,3.883,1.211,3.118,3.218 c-2.204,5.781-12.227,4.546-17.125,5.167c-9.211,1.166-17.611,5.444-24.685,11.323c-2.996,2.49-5.675,5.335-8.424,8.086 c-1.524,1.526-3.105,2.987-4.546,4.595c-0.823,0.918-1.626,1.856-2.464,2.761c-0.779,0.578-0.606,0.682,0.52,0.311 c-0.674-0.098-1.203-0.424-1.589-0.978c-2.135-2.903,5.832-8.854,7.646-10.176c1.347-0.981,3.161-1.565,4.355-2.732 c0.866-0.845-0.871-1.014-1.385-1.081c-4.391-0.57-8.897-0.602-13.309-0.918c-11.239-0.807-21.538,0.375-32.049,4.604 c-7.504,3.02-16.471,8.121-20.175,15.688c-2.117,4.325,0.892,7.751,5.165,8.31c14.84,1.94,28.084-14.502,35.023-25.144 c6.071-9.311,11.697-20.379,14.461-31.217c0.78-3.061,0.623-5.774-3.17-4.697c-2.914,0.827-5.088,2.846-7.034,5.088 c-3.995,4.603-1.387,10.917,1.264,15.648C51.559,29.728,55.181,28.262,54.931,27.816L54.931,27.816 M196.878,27.666c-4.601,5.682-9.491,11.163-14.618,16.373c-3.494,3.551-7.174,7.104-11.35,9.852 c-1.816,1.195-2.958,2.056-4.75,0.567c-4.365-3.626,2.487-9.819,4.979-11.998c4.752-4.154,10.757-8.319,16.431-11.081 c6.065-2.953,15.436-4.573,21.689-1.255c3.898,2.068,1.319,6.009-1.292,7.756c-6.568,4.396-16.014,4.181-23.533,3.759 c-0.805-0.045-2.434,0.375-2.696,1.291c-0.973,3.411-2.453,9.305-0.193,12.481c3.314,4.66,11.61,0.221,15.338-1.539 c0.438-0.207,4.053-2.254,4.182-1.354c0.114,0.797,0.416,1.337,0.934,1.943c1.257,1.467,3.829,1.972,5.637,2.072 c7.727,0.428,14.376-3.739,19.482-9.198c-1.192,0-2.384-0.001-3.576-0.002c-4.178,4.954-4.542,10.611,2.924,11.662 c7.987,1.123,16.923-3.5,22.398-9.066c1.531-1.556-1.923-1.304-2.714-0.766c-5.768,3.917-11.328,8.159-16.701,12.6 c-6.688,5.527-15.669,12.531-18.378,21.168c-0.444,1.417,3.024,0.392,3.46-0.002c10.59-9.558,21.521-19.238,33.494-27.032 c5.575-3.629,11.903-6.493,17.807-9.564c0.912-0.474,6.225-3.681,6.662-1.942c0.849,3.377-4.277,9.147-5.951,11.609 c-1.059,1.558,2.771,0.679,3.322,0.263c2.891-2.181,5.938-4.173,9.12-5.901c1.773-0.964,4.919-2.807,4.514,0.602 c-0.254,2.139-1.579,4.071-0.544,6.206c3.423,7.057,25.21-5.669,29.119-7.45c-0.642-0.408-1.282-0.815-1.924-1.223 c-3.897,2.039-13.568,7.258-11.907,12.832c0.582,1.954,3.887,1.627,5.308,1.287c4.152-0.993,7.644-3.485,10.612-6.48 c4.204-4.24,5.689-8.766,11.6-11.274c5.342-2.268,11.443-2.672,17.128-3.514c4.48-0.663,9.313-2.264,11.387-6.686 c2-4.265-5.624-1.462-6.846-0.743c-4.271,2.517-7.865,6.317-11.302,9.821c-3.105,3.167-6.421,6.759-7.779,11.084 c-1.734,5.522,5.128,6.344,8.907,5.953c7.513-0.777,13.651-4.06,19.668-8.403c4.706-3.397,11.281-8.878,17.472-6.953 c1.291,0.401,3.018,0.533,4.081-0.502c0.246-0.24,0.631-0.661,0.266-0.996c-1.287-1.18-4.017-1.035-5.601-1.027 c-4.409,0.023-8.622,1.794-12.245,4.176c-2.014,1.323-11.987,9.761-4.914,11.168c6.47,1.288,14.721-3.786,19.796-7.076 c3.857-2.5,7.296-5.55,10.338-8.986c1.776-2.006,5.724-6.085,5.325-9.172c-0.587-4.549-11.85,5.179-12.291,5.625 c-2.861,2.889-13.634,15.337-7.825,19.36c4.281,2.965,12.536-1.306,16.457-3.139c2.348-1.098,1.923-2.088,0.65,0.372 c-1.091,2.107-1.82,4.362-2.771,6.532c-0.72,1.645-1.659,3.21-2.938,4.483c-0.245,0.244-2.591-1.768-2.823-1.935 c-1.362-0.982-3.175-1.848-4.896-1.882c-4.104-0.082-6.617,2.038-8.27,5.676c-0.489,1.078,3.313,0.661,3.852-0.526 c3.007-6.617,7.188,1.41,11.774,0.782c3.715-0.509,5.676-4.092,7.152-7.124c0.48-0.987,4.411-8.474,3.578-9.256 c-1.8-1.691-5.877,1.012-7.465,1.755c-2.988,1.397-6.885,3.385-10.267,2.903c-5.016-0.715,2.205-11.65,3.218-13.095 c2.446-3.49,5.877-7.486,9.8-9.385c-1.107,0.537-0.56-0.481-0.954,0.859c-0.293,0.998-0.971,1.893-1.527,2.756 c-1.879,2.915-4.232,5.536-6.753,7.901c-3.909,3.669-8.586,6.569-13.479,8.723c-1.237,0.544-9.202,3.867-8.227,0.136 c1.46-5.587,9.853-9.553,15.037-9.581c0.76-0.004,1.499,0.134,2.236,0.293c1.276,0.276,4.229-1.158,2.165-1.799 c-1.667-0.518-3.462-0.759-5.205-0.512c-10.213,1.446-16.804,9.994-25.898,13.85c-5.259,2.23-17.576,4.115-12.333-5.311 c2.794-5.021,7.488-9.152,11.707-12.939c1.636-1.468,3.369-2.849,5.265-3.965c0.743-0.438,0.394-0.417,0.012,0.626 c-0.687,1.87-2.901,3.281-4.706,3.792c-4.393,1.245-9.221,1.245-13.697,2.206c-4.007,0.86-7.826,2.048-11.431,4.019 c-4.174,2.282-6,6.061-8.837,9.64c-1.967,2.481-4.85,4.798-7.878,5.805c-3.795,1.262-0.796-4.011-0.006-4.951 c2.223-2.646,5.605-4.605,8.641-6.192c2.124-1.111-0.765-1.751-1.924-1.223c-6.649,3.031-13.486,7.079-20.74,8.413 c-7.392,1.36,0.483-7.761-3.563-9.522c-5.918-2.576-15.145,5.29-19.488,8.566c1.107,0.088,2.215,0.175,3.322,0.263 c1.693-2.491,11.223-14.945,2.473-14.229c-7.294,0.597-14.61,6.779-21.01,9.869c-14.938,7.212-27.894,19.73-40.119,30.764 c1.153-0.001,2.307-0.001,3.46-0.002c2.689-8.575,11.823-15.349,18.454-20.829c4.86-4.017,9.916-7.859,15.133-11.403 c-0.905-0.255-1.81-0.511-2.714-0.766c-4.174,4.243-9.905,7.46-15.919,7.642c-7.436,0.225-6.068-5.789-2.759-9.713 c1.079-1.279-2.841-0.788-3.576-0.002c-3.092,3.305-14.349,11.9-18.407,5.049c-0.575-0.971-0.069-1.688-1.221-2.313 c-1.082-0.588-2.963,0.013-4.001,0.386c-3.718,1.336-13.303,8.097-15.188,2.334c-1.029-3.145-0.022-7.278,0.864-10.385 c-0.899,0.43-1.797,0.86-2.696,1.291c8.821,0.495,17.956-0.04,26.007-3.988c2.976-1.46,8.351-5.635,5.593-9.491 c-3.915-5.475-14.688-3.978-20.111-2.973c-8.651,1.603-15.351,6.892-22.413,11.727c-4.098,2.806-16.753,12.911-8.188,17.926 c3.733,2.186,8.868-1.472,11.753-3.563c9.515-6.896,17.555-16.574,24.916-25.665C201.481,26.401,197.614,26.757,196.878,27.666 L196.878,27.666z"/>
</svg>