<?xml version="1.0" standalone="no"?>
<!DOCTYPE svg PUBLIC "-//W3C//DTD SVG 20010904//EN"
 "http://www.w3.org/TR/2001/REC-SVG-20010904/DTD/svg10.dtd">
<svg version="1.0" xmlns="http://www.w3.org/2000/svg"
 width="468pt" height="147pt" viewBox="0 0 468 147"
 preserveAspectRatio="xMidYMid meet">
<metadata>
Created by POTRACE VERSION, written by Peter Selinger 2001-2007
</metadata>
<g transform="translate(0,147) scale(0.011833,-0.011833)"
fill="#000000" stroke="none">
<path d="M16815 12407 c-94 -6 -131 -13 -173 -32 -36 -17 -87 -28 -160 -35
-59 -6 -125 -16 -147 -22 -22 -6 -53 -19 -68 -30 -20 -14 -67 -26 -160 -39
-73 -10 -135 -18 -140 -19 -4 0 -26 -17 -50 -39 -27 -24 -55 -40 -77 -43 -19
-3 -55 -10 -80 -17 -25 -6 -71 -16 -103 -22 -49 -9 -70 -20 -122 -64 -60 -51
-65 -54 -97 -44 -32 9 -35 7 -84 -48 -30 -34 -60 -57 -75 -59 -13 -2 -43 -5
-67 -7 -35 -4 -49 -11 -74 -41 -16 -20 -38 -36 -48 -36 -10 0 -22 -4 -25 -10
-3 -5 -15 -10 -26 -10 -11 0 -32 -8 -46 -17 -15 -10 -38 -28 -50 -39 -13 -12
-23 -26 -23 -31 0 -6 -6 -16 -14 -22 -10 -9 -20 -9 -39 0 -18 8 -30 8 -46 0
-11 -7 -21 -18 -21 -25 0 -7 -9 -25 -21 -40 -11 -15 -39 -36 -62 -47 -22 -12
-79 -60 -126 -108 -47 -48 -99 -92 -116 -98 -16 -6 -45 -17 -64 -24 -18 -7
-62 -42 -98 -78 -36 -36 -70 -78 -75 -93 -5 -15 -31 -43 -58 -62 -26 -19 -63
-42 -81 -51 -19 -10 -53 -33 -77 -52 -23 -19 -50 -49 -58 -66 -9 -17 -49 -65
-90 -108 -51 -54 -76 -88 -84 -117 -7 -30 -24 -53 -59 -82 -37 -31 -52 -53
-61 -87 -7 -25 -30 -70 -51 -101 -21 -31 -55 -95 -75 -142 -23 -52 -42 -119
-51 -175 -7 -49 -23 -126 -34 -170 -12 -44 -21 -104 -20 -133 0 -45 -3 -54
-22 -62 -12 -4 -53 -15 -90 -24 -38 -8 -79 -24 -93 -35 -14 -11 -49 -25 -79
-31 -29 -6 -59 -18 -65 -26 -7 -8 -30 -14 -54 -14 -23 0 -68 -7 -99 -15 -32
-8 -76 -24 -98 -36 -22 -11 -75 -29 -117 -40 -42 -11 -109 -35 -148 -54 -39
-19 -81 -35 -95 -35 -13 0 -50 -14 -83 -31 -32 -17 -83 -39 -114 -50 -31 -11
-84 -35 -118 -54 -34 -18 -81 -39 -103 -45 -23 -6 -54 -25 -72 -45 -24 -25
-52 -40 -103 -55 -39 -12 -108 -41 -153 -65 -45 -23 -99 -48 -120 -55 -21 -7
-52 -25 -69 -42 -17 -16 -48 -34 -70 -39 -21 -6 -50 -19 -64 -29 -14 -9 -40
-22 -58 -28 -18 -6 -46 -21 -62 -32 -16 -12 -52 -28 -79 -36 -30 -8 -58 -25
-71 -41 -11 -15 -59 -46 -105 -69 -47 -23 -100 -47 -118 -53 -18 -6 -48 -27
-66 -46 -18 -19 -39 -35 -47 -35 -9 0 -30 -11 -47 -24 -18 -13 -57 -36 -87
-51 -30 -15 -73 -44 -95 -65 -22 -21 -57 -43 -78 -50 -21 -6 -58 -28 -82 -48
-24 -21 -63 -48 -86 -62 -24 -14 -64 -43 -89 -66 -25 -22 -72 -60 -105 -84
-33 -24 -76 -57 -95 -74 -19 -17 -64 -51 -100 -75 -36 -23 -78 -61 -95 -82
-16 -22 -44 -48 -62 -59 -18 -11 -38 -31 -43 -44 -5 -14 -25 -32 -45 -42 -20
-9 -90 -75 -158 -148 -68 -72 -129 -145 -136 -163 -7 -17 -30 -44 -52 -58 -21
-15 -52 -50 -69 -79 -17 -28 -55 -82 -86 -121 -31 -38 -72 -101 -91 -140 -20
-38 -50 -92 -69 -120 -18 -27 -37 -63 -43 -78 -6 -16 -11 -44 -11 -63 0 -19
-8 -49 -17 -67 -9 -18 -18 -36 -19 -42 -1 -5 -11 -29 -21 -52 -11 -24 -22 -41
-25 -38 -3 3 -3 -7 -1 -22 3 -19 2 -24 -5 -15 -5 8 -8 -8 -6 -45 3 -43 1 -51
-5 -33 -8 23 -9 24 -10 3 -1 -12 -13 -54 -28 -93 -24 -67 -25 -76 -15 -134 7
-34 9 -91 5 -129 -4 -41 1 -125 11 -215 10 -81 21 -173 26 -206 8 -49 6 -68
-11 -119 -11 -34 -36 -78 -55 -99 -19 -21 -34 -42 -34 -48 0 -5 -29 -69 -63
-142 -48 -101 -68 -156 -81 -226 -15 -75 -17 -118 -11 -215 4 -67 11 -143 16
-169 5 -27 18 -68 29 -92 11 -25 20 -53 20 -63 0 -10 6 -25 13 -35 7 -9 45
-31 85 -49 40 -17 75 -30 77 -27 3 3 0 41 -6 84 -8 59 -21 97 -51 151 -31 58
-40 86 -44 140 -3 38 -1 102 4 143 6 41 18 102 27 135 9 33 23 67 30 75 8 8
27 44 44 80 17 36 45 84 62 108 17 23 44 49 61 58 26 13 35 14 55 3 14 -7 37
-34 51 -59 15 -25 62 -85 105 -134 43 -49 93 -97 110 -105 17 -9 42 -32 55
-51 13 -19 33 -41 45 -49 12 -7 34 -30 49 -52 17 -24 49 -49 86 -68 32 -16 65
-37 73 -47 8 -10 41 -35 73 -56 33 -21 68 -38 79 -38 11 0 34 -15 51 -33 17
-18 63 -48 101 -67 39 -18 93 -39 122 -46 28 -6 69 -26 90 -43 24 -19 58 -34
90 -41 29 -5 69 -20 90 -34 21 -13 56 -27 78 -31 22 -3 50 -13 62 -21 12 -7
53 -22 91 -33 37 -10 93 -30 124 -45 30 -14 104 -37 164 -51 60 -13 128 -31
152 -39 23 -9 84 -20 135 -25 51 -6 130 -23 177 -38 68 -22 107 -28 195 -30
61 -1 209 -7 330 -13 121 -5 333 -10 470 -10 187 0 260 4 290 14 26 9 47 11
63 5 13 -5 49 -9 80 -8 31 0 80 4 107 10 28 5 99 9 158 8 77 0 118 -4 141 -16
32 -15 36 -14 92 12 33 15 76 33 96 40 20 8 101 19 180 25 79 6 161 17 183 24
22 8 70 17 106 20 36 3 106 18 154 32 49 14 107 35 130 47 32 17 60 22 143 24
93 2 110 5 180 37 42 19 106 40 142 46 36 7 115 26 175 42 61 17 115 34 120
38 6 5 28 12 50 16 21 4 57 15 80 25 22 10 69 21 105 25 36 3 79 12 97 20 18
7 58 30 91 52 32 22 92 50 132 63 48 14 83 32 100 49 14 15 41 36 60 45 19 10
67 37 105 60 40 24 94 48 126 54 39 8 64 21 84 41 17 18 46 33 79 41 28 6 60
16 71 22 11 5 34 22 51 36 18 14 82 58 143 96 62 39 128 82 146 96 19 15 54
31 78 37 33 9 49 20 68 49 16 25 35 40 58 46 18 4 51 19 72 33 21 13 48 42 59
63 10 22 33 50 49 63 16 12 66 66 111 118 45 52 110 122 145 155 34 33 66 69
69 81 4 11 22 38 41 60 20 21 38 50 41 64 2 14 8 36 12 50 4 14 24 36 45 49
29 19 41 36 54 79 14 42 25 60 49 74 18 10 35 29 38 41 3 12 6 49 6 83 0 33 6
67 13 76 6 9 23 18 37 20 22 3 25 7 23 38 -2 19 -3 132 -2 250 0 182 -3 230
-21 315 -12 55 -27 110 -33 122 -7 12 -47 62 -89 111 -42 49 -86 109 -98 132
-12 23 -35 49 -52 58 -17 9 -48 32 -70 50 -31 25 -49 32 -83 32 -26 0 -51 7
-66 19 -13 10 -37 25 -54 33 -16 9 -47 18 -67 22 -21 4 -63 18 -94 33 -47 21
-80 27 -185 34 -102 7 -141 14 -189 34 -41 17 -95 29 -168 37 -65 6 -343 10
-713 10 -528 0 -611 -3 -644 -16 -26 -11 -69 -16 -139 -16 -63 0 -123 -6 -156
-16 -30 -8 -93 -19 -140 -22 -47 -4 -91 -11 -99 -16 -8 -5 -69 -12 -136 -16
-87 -6 -131 -13 -156 -26 -28 -14 -55 -17 -149 -16 -88 1 -127 -3 -167 -17
-35 -12 -56 -14 -62 -8 -7 7 -20 6 -38 -2 -16 -7 -68 -14 -117 -16 -76 -3 -92
-6 -105 -24 -13 -16 -32 -21 -95 -27 -69 -6 -82 -10 -103 -35 -23 -25 -33 -28
-121 -34 -54 -4 -134 -18 -180 -31 -53 -16 -108 -24 -156 -24 -56 0 -86 -6
-127 -24 -30 -13 -80 -40 -111 -59 -51 -30 -67 -35 -146 -39 -48 -3 -99 -11
-113 -18 -13 -7 -37 -24 -52 -39 -25 -23 -38 -27 -132 -32 -88 -6 -112 -11
-149 -33 -25 -15 -81 -33 -128 -42 -45 -8 -100 -26 -123 -39 -22 -13 -57 -27
-78 -31 -21 -3 -51 -17 -67 -30 -15 -14 -45 -31 -67 -40 -21 -9 -50 -25 -64
-35 -15 -10 -52 -21 -85 -24 -33 -3 -73 -8 -89 -11 -17 -2 -54 -22 -82 -43
-35 -26 -67 -41 -100 -46 -36 -5 -58 -17 -90 -46 -24 -22 -53 -39 -65 -39 -13
0 -45 -18 -72 -40 -26 -22 -67 -45 -89 -51 -23 -5 -56 -14 -74 -19 -18 -4 -45
-17 -60 -28 -15 -10 -50 -27 -76 -37 -27 -10 -59 -27 -73 -37 -13 -11 -60 -37
-103 -58 -43 -21 -97 -43 -118 -49 -22 -6 -70 -35 -109 -64 -38 -29 -109 -73
-157 -97 -53 -27 -98 -57 -112 -76 -13 -17 -36 -35 -51 -38 -15 -4 -39 -16
-53 -27 -14 -11 -58 -35 -97 -53 -40 -19 -86 -49 -104 -69 -22 -24 -50 -41
-84 -51 -40 -12 -62 -28 -103 -73 -29 -32 -60 -68 -70 -80 -10 -12 -27 -23
-38 -25 -12 -2 -20 3 -20 12 0 8 -8 29 -16 45 -9 17 -24 59 -34 95 -9 37 -17
102 -16 150 0 47 4 126 10 175 6 50 22 137 36 195 14 58 32 123 38 145 7 22
18 39 24 38 7 -2 21 23 32 55 12 31 28 68 36 82 9 14 38 70 66 125 28 55 63
116 77 135 15 19 34 57 43 85 12 34 25 54 43 63 14 7 31 23 38 35 6 12 45 60
86 107 41 47 84 99 96 117 11 18 32 38 44 45 13 7 33 29 43 50 14 27 33 44 65
59 28 14 63 43 91 78 25 31 64 68 86 83 23 15 54 33 69 39 24 10 28 17 28 49
0 35 4 41 48 68 26 16 74 52 106 80 37 33 82 60 126 77 38 14 88 43 112 64 24
20 64 52 91 70 26 18 57 46 70 63 12 16 48 43 79 59 32 16 73 48 94 73 29 35
46 46 78 51 23 4 49 9 59 11 9 3 24 18 32 33 9 18 30 34 62 46 26 10 62 29 79
42 18 13 70 39 115 58 46 19 93 43 104 53 11 10 31 25 45 32 14 7 34 20 45 30
11 10 36 20 55 24 19 3 53 17 75 31 22 13 54 31 70 39 17 8 55 22 87 31 33 9
73 29 98 50 23 19 70 50 104 69 33 19 83 37 110 41 30 4 83 25 135 55 47 26
111 55 141 65 30 10 69 25 85 35 17 10 46 21 65 25 19 4 71 24 115 45 44 21
116 48 160 60 44 12 98 30 120 40 22 11 53 29 68 42 21 17 44 23 97 26 65 4
69 6 81 34 12 29 15 30 55 24 24 -3 67 -1 96 4 29 5 75 20 101 32 43 20 49 20
63 6 9 -9 27 -42 40 -74 13 -33 31 -87 39 -122 8 -34 22 -77 31 -94 9 -17 47
-62 85 -100 38 -39 77 -89 88 -113 13 -29 35 -53 67 -76 27 -18 79 -58 115
-88 36 -31 96 -78 134 -106 39 -27 86 -59 105 -69 19 -11 57 -21 85 -23 40 -3
57 -10 85 -37 19 -19 53 -39 75 -46 22 -7 49 -19 60 -26 11 -7 45 -22 76 -33
38 -15 60 -29 67 -46 7 -14 24 -30 39 -36 15 -5 50 -7 79 -3 44 5 58 3 82 -15
20 -14 69 -28 146 -41 71 -12 135 -30 166 -45 36 -18 76 -28 147 -35 54 -5
116 -13 138 -19 22 -5 81 -15 130 -21 50 -6 155 -16 235 -21 80 -6 381 -10
670 -10 289 0 543 0 565 -1 22 -1 81 4 130 10 50 6 128 20 175 31 47 11 133
24 191 30 59 5 116 14 127 20 12 6 32 11 45 11 14 0 44 7 68 16 24 8 93 22
154 30 60 9 122 22 138 31 16 8 61 25 100 38 40 13 90 27 112 31 22 4 58 15
80 25 22 10 50 19 61 19 12 0 47 13 79 30 31 16 75 35 98 41 23 6 58 26 78 44
24 21 52 35 80 40 24 4 60 16 81 26 20 10 65 44 100 74 34 31 75 63 90 72 14
9 32 27 39 40 9 17 21 23 45 23 23 0 38 8 53 26 11 14 24 49 27 77 5 37 16 60
41 88 19 21 38 52 43 71 6 18 10 47 10 65 0 17 9 53 21 80 16 37 20 63 17 115
-3 51 -9 72 -25 90 -12 13 -31 48 -42 78 -12 33 -37 70 -60 93 -22 21 -48 58
-60 82 -11 24 -37 56 -57 72 -20 15 -54 43 -76 61 -22 17 -47 32 -56 32 -9 0
-41 15 -72 34 -35 22 -79 38 -120 46 -36 6 -95 22 -133 36 -37 14 -90 32 -118
39 -28 8 -60 21 -70 31 -10 9 -19 28 -19 42 0 15 13 36 35 56 22 21 40 50 50
82 8 27 32 71 54 97 22 26 42 56 45 65 3 9 14 60 24 112 11 52 30 124 42 160
18 54 24 102 32 280 7 150 7 239 -1 295 -6 44 -12 102 -15 128 -2 33 -13 62
-33 90 -17 23 -42 75 -58 115 -19 51 -36 80 -58 95 -16 12 -47 48 -67 80 -21
33 -71 88 -111 124 -41 36 -87 72 -104 80 -16 9 -47 31 -68 49 -20 19 -45 34
-55 34 -9 0 -34 5 -55 11 -20 5 -50 23 -66 38 -19 19 -44 31 -74 35 -25 4 -57
16 -71 27 -14 11 -41 26 -60 34 -19 8 -58 15 -85 15 -43 0 -53 4 -67 25 -9 14
-29 26 -47 29 -18 3 -165 7 -327 8 -162 2 -349 0 -415 -5z m366 -126 c41 -11
126 -27 189 -36 63 -10 149 -20 190 -24 57 -4 83 -12 104 -28 16 -13 34 -23
40 -23 7 0 50 -18 96 -40 47 -22 108 -52 135 -67 28 -14 66 -43 86 -64 24 -25
46 -39 61 -39 17 0 44 -18 80 -52 29 -29 67 -71 82 -93 16 -22 44 -56 62 -75
20 -22 40 -60 52 -100 11 -36 34 -99 51 -142 26 -63 31 -90 31 -155 0 -44 5
-106 11 -138 7 -41 7 -87 0 -159 -6 -56 -25 -153 -42 -216 -16 -63 -37 -140
-45 -170 -9 -30 -26 -71 -38 -90 -11 -19 -29 -52 -38 -73 -10 -22 -29 -52 -42
-67 -13 -16 -27 -49 -30 -74 -4 -25 -15 -54 -24 -65 -13 -16 -47 -26 -152 -44
-91 -15 -149 -20 -177 -16 -23 5 -78 24 -123 43 -45 20 -90 36 -101 36 -11 0
-29 -5 -40 -11 -13 -6 -123 -12 -280 -15 -195 -3 -267 -7 -287 -18 -21 -10
-101 -15 -342 -19 -283 -4 -323 -7 -395 -27 -68 -18 -94 -20 -185 -15 -92 6
-113 4 -165 -14 -52 -18 -81 -21 -220 -19 -119 1 -183 -3 -250 -16 -60 -12
-98 -25 -113 -39 -23 -21 -35 -22 -287 -27 -249 -5 -265 -6 -287 -26 -19 -17
-46 -23 -143 -32 -66 -6 -158 -22 -205 -36 -47 -13 -136 -29 -198 -35 -70 -7
-138 -21 -178 -36 -35 -13 -92 -27 -126 -30 -35 -4 -79 -11 -99 -16 -19 -5
-46 -20 -59 -34 -19 -20 -33 -25 -69 -25 -25 1 -55 6 -66 13 -11 7 -21 22 -22
35 -2 13 1 21 7 17 6 -4 8 20 4 67 -6 68 -5 76 18 103 17 21 28 52 37 105 8
53 22 91 45 130 19 30 47 82 64 116 17 34 42 74 56 91 14 16 30 51 37 77 7 29
27 66 50 93 22 24 39 48 39 53 0 5 13 31 30 56 16 26 45 60 63 75 18 15 46 47
62 71 16 23 41 57 56 73 15 17 35 49 44 72 12 29 24 43 43 48 14 3 43 22 64
41 21 19 47 34 59 34 11 0 29 5 40 10 10 6 33 37 49 70 24 48 37 62 72 78 24
10 60 30 80 44 20 14 55 28 77 32 26 4 47 15 60 32 12 15 21 32 21 39 0 6 8
19 18 27 9 9 32 19 50 23 18 4 40 18 49 31 9 14 29 39 44 55 15 17 55 41 87
54 33 13 86 42 118 63 50 33 62 38 82 29 18 -8 27 -6 46 12 14 13 29 19 40 15
10 -4 25 1 36 11 11 10 20 24 20 30 0 7 13 18 29 25 16 6 32 18 35 26 3 8 14
14 25 14 11 0 26 7 35 15 8 8 23 15 33 15 10 0 46 6 80 13 44 10 76 25 115 54
29 23 71 46 93 52 22 6 60 11 85 11 25 0 68 9 95 19 28 10 88 26 135 36 48 9
122 34 170 57 83 40 88 40 230 47 140 7 148 8 200 39 l55 32 151 0 c116 0 167
-4 225 -19z m-885 -2142 c53 -15 92 -19 128 -15 28 3 125 10 216 15 91 6 291
10 445 10 154 0 318 0 365 0 47 1 131 -4 187 -10 86 -9 113 -8 174 6 40 9 85
13 101 10 15 -4 39 -21 52 -38 13 -18 25 -39 26 -47 1 -8 2 -20 1 -25 0 -6
-17 -19 -36 -29 -19 -11 -52 -42 -74 -70 -21 -28 -63 -76 -93 -107 -30 -31
-81 -70 -114 -87 -32 -17 -71 -46 -85 -64 -17 -21 -42 -39 -68 -46 -25 -8 -50
-25 -66 -46 -16 -21 -47 -42 -80 -56 -30 -12 -59 -28 -66 -36 -6 -8 -50 -37
-98 -66 -47 -28 -98 -62 -112 -75 -23 -21 -32 -23 -75 -18 -48 6 -50 5 -109
-44 -32 -28 -63 -51 -68 -51 -5 0 -22 -10 -39 -21 -19 -14 -61 -26 -120 -35
-65 -10 -101 -21 -127 -38 -20 -14 -56 -32 -81 -41 -25 -9 -84 -18 -131 -20
-61 -2 -101 -9 -135 -24 -26 -12 -64 -34 -83 -48 -30 -23 -48 -28 -126 -33
-61 -4 -99 -11 -115 -23 -14 -9 -37 -17 -52 -17 -15 0 -67 -6 -115 -14 -49 -8
-142 -20 -208 -26 -83 -9 -132 -19 -160 -33 -38 -20 -56 -21 -405 -21 -361 -1
-366 0 -408 22 -24 13 -46 30 -49 39 -3 8 2 30 11 48 10 18 15 41 12 52 -3 10
-23 36 -43 57 -35 35 -41 38 -81 33 -38 -4 -53 -14 -106 -66 -34 -34 -69 -61
-79 -61 -9 0 -26 14 -36 31 -11 17 -49 49 -86 71 -47 28 -86 64 -133 121 -37
44 -83 97 -104 117 -20 21 -44 52 -53 69 -10 19 -15 49 -13 74 3 39 1 42 -25
45 -15 2 -34 13 -42 25 -7 12 -17 50 -21 84 -4 43 -3 67 5 77 9 10 34 15 83
15 66 0 73 2 104 32 30 29 40 32 126 40 51 5 103 11 116 14 12 3 22 11 22 19
0 7 7 20 16 27 11 9 51 14 123 16 58 1 141 9 183 18 42 8 94 23 115 31 20 9
75 20 120 24 57 5 89 13 103 25 15 14 40 18 122 19 57 1 166 8 243 15 77 6
169 16 205 22 36 6 91 19 122 30 43 14 109 21 270 29 117 5 242 13 277 16 49
6 71 13 95 34 17 15 38 30 46 33 8 3 18 6 22 6 4 1 42 -8 84 -20z m2151 -118
c32 -16 92 -39 134 -49 44 -12 116 -43 170 -73 52 -29 114 -66 139 -83 25 -17
64 -48 87 -69 27 -25 60 -74 92 -139 28 -55 51 -108 51 -118 0 -10 -9 -37 -20
-61 -12 -27 -20 -66 -20 -102 0 -55 -2 -60 -52 -117 -29 -33 -69 -78 -88 -101
-19 -23 -48 -48 -65 -56 -17 -8 -38 -27 -47 -43 -12 -20 -26 -30 -56 -35 -27
-4 -49 -17 -70 -41 -19 -21 -39 -34 -55 -34 -14 0 -43 -15 -66 -34 -27 -22
-55 -36 -86 -41 -26 -3 -92 -30 -148 -60 -56 -30 -121 -61 -144 -69 -23 -8
-55 -24 -70 -34 -21 -15 -52 -21 -128 -26 -55 -3 -127 -13 -160 -22 -33 -9
-73 -23 -89 -31 -18 -9 -89 -20 -190 -28 -89 -7 -174 -18 -190 -24 -16 -6 -88
-18 -160 -27 -72 -8 -214 -19 -316 -24 -126 -6 -210 -16 -265 -30 -75 -19 -99
-20 -380 -14 -219 5 -306 10 -321 19 -11 7 -86 21 -165 30 -88 10 -161 24
-188 36 -32 15 -82 22 -200 29 -86 6 -169 14 -186 19 -16 5 -50 18 -75 29 -25
12 -77 26 -115 32 -39 6 -74 15 -79 20 -5 5 -6 13 -2 17 4 4 45 8 92 9 70 2
94 7 137 30 43 22 64 27 122 26 38 -1 120 3 180 9 61 6 122 17 137 25 15 8 43
14 62 14 19 0 47 4 61 10 14 5 65 13 112 17 70 5 90 10 114 31 16 13 36 21 44
18 9 -3 74 3 146 14 72 11 152 29 177 41 26 11 73 25 104 30 32 5 72 18 90 28
18 11 74 31 123 46 50 15 104 35 121 45 17 9 53 25 81 34 28 9 62 27 76 40 14
13 44 26 67 30 23 4 58 15 79 26 20 10 74 36 121 58 47 22 106 47 132 56 25
10 52 24 59 33 7 8 36 25 65 38 28 12 55 28 58 34 4 6 26 21 48 32 23 12 55
35 73 53 17 17 55 48 84 69 30 20 60 37 68 37 7 0 62 48 121 106 59 59 137
133 174 164 36 32 73 62 81 66 8 5 26 29 39 54 21 41 27 46 68 51 25 3 68 7
97 7 40 2 66 -5 110 -27z m-2480 -2280 c51 -6 104 -16 118 -21 15 -6 77 -14
138 -20 62 -5 138 -10 171 -10 47 0 78 -9 160 -44 61 -26 130 -48 175 -55 40
-6 83 -17 95 -23 11 -6 35 -26 52 -44 24 -26 42 -34 83 -40 47 -6 55 -11 77
-45 13 -22 31 -39 39 -39 7 0 17 -5 21 -12 4 -7 10 -28 14 -48 4 -28 13 -39
48 -58 29 -16 44 -32 47 -50 3 -15 12 -54 20 -87 9 -33 25 -93 35 -134 17 -61
19 -96 15 -199 -2 -69 -7 -127 -10 -130 -3 -3 -11 0 -17 6 -7 7 -20 12 -30 12
-10 0 -18 -6 -18 -14 0 -7 7 -20 16 -27 13 -11 15 -27 12 -86 -4 -57 -11 -81
-31 -111 -15 -20 -33 -59 -41 -84 -7 -26 -23 -59 -35 -73 -11 -15 -23 -43 -27
-64 -4 -21 -19 -47 -35 -63 -16 -15 -29 -36 -29 -46 0 -11 -7 -26 -16 -33 -9
-7 -26 -18 -38 -24 -11 -5 -30 -29 -42 -53 -12 -25 -73 -96 -145 -168 -72 -73
-143 -135 -170 -149 -29 -15 -51 -35 -58 -53 -8 -19 -27 -36 -54 -48 -31 -15
-43 -27 -49 -51 -7 -26 -19 -38 -56 -57 -26 -13 -56 -34 -67 -46 -11 -12 -46
-40 -78 -62 -32 -22 -80 -49 -105 -60 -26 -12 -65 -33 -87 -48 -22 -15 -63
-39 -92 -54 -29 -14 -61 -35 -71 -47 -11 -11 -41 -27 -67 -34 -25 -8 -60 -26
-77 -40 -16 -14 -50 -30 -75 -37 -26 -6 -64 -27 -89 -48 -33 -29 -55 -40 -96
-45 -29 -4 -73 -19 -98 -33 -25 -14 -54 -33 -65 -43 -11 -10 -49 -23 -85 -29
-36 -6 -88 -25 -116 -41 -28 -16 -83 -35 -123 -44 -41 -8 -86 -25 -104 -39
-18 -13 -61 -31 -97 -39 -36 -9 -85 -18 -111 -21 -25 -3 -70 -16 -100 -30 -29
-14 -79 -31 -109 -37 -30 -6 -104 -22 -163 -35 -60 -12 -114 -29 -120 -37 -9
-11 -61 -19 -182 -31 -120 -11 -191 -23 -240 -40 -38 -13 -117 -29 -175 -35
-58 -6 -143 -21 -190 -32 -47 -12 -128 -25 -180 -30 -52 -4 -176 -13 -275 -18
-99 -6 -223 -18 -275 -26 -67 -11 -104 -13 -121 -6 -14 5 -149 10 -300 11
-151 1 -326 6 -389 11 -63 5 -194 13 -290 18 -146 7 -189 13 -259 36 -46 15
-126 31 -178 36 -69 6 -105 15 -136 33 -24 13 -77 29 -122 36 -44 7 -97 22
-119 32 -21 11 -70 26 -108 34 -39 8 -85 22 -102 31 -17 8 -57 31 -88 50 -32
19 -86 41 -120 50 -35 8 -105 35 -156 60 -51 25 -95 49 -97 54 -3 4 -27 15
-53 25 -30 11 -65 36 -97 70 -40 41 -62 56 -107 69 -37 10 -62 24 -72 40 -9
14 -34 36 -55 49 -20 13 -51 37 -68 53 -17 15 -52 44 -77 63 -26 19 -70 60
-99 91 -29 31 -68 76 -88 100 -20 25 -51 73 -69 109 -18 36 -48 85 -67 109
-30 40 -34 51 -31 95 2 40 8 53 24 61 12 6 30 17 39 25 10 8 28 32 41 52 15
23 35 40 52 44 15 4 38 12 52 19 14 7 42 29 62 48 20 19 60 43 89 53 31 11 69
36 95 61 24 24 48 43 53 43 6 0 20 18 31 39 15 30 28 41 52 46 18 4 58 20 88
35 30 15 64 37 74 49 11 12 42 34 70 50 28 16 68 34 88 40 20 7 54 25 75 40
21 15 62 36 91 45 30 10 78 39 112 68 43 36 77 54 117 65 31 8 67 23 80 33 13
10 47 24 76 30 28 7 72 25 97 40 25 15 57 30 72 34 15 3 29 15 33 25 3 11 11
24 18 30 7 5 48 17 91 26 43 9 114 30 159 46 44 16 98 43 121 59 30 22 51 30
83 30 36 0 49 6 77 33 25 25 46 36 79 40 25 4 66 20 91 36 29 18 72 33 114 40
37 7 105 21 152 33 53 13 98 31 121 48 19 16 53 33 74 39 21 6 53 24 70 41 28
27 41 32 121 40 49 6 103 15 121 21 17 5 37 17 43 25 7 8 30 14 52 14 21 0 56
9 76 19 21 11 60 22 87 27 28 4 100 25 160 46 82 30 131 41 190 45 44 2 109
11 145 20 36 8 108 28 162 45 53 16 106 38 119 49 19 16 32 18 74 14 41 -5 56
-3 69 10 11 12 24 15 39 10 12 -4 58 -10 102 -15 44 -4 89 -11 101 -15 14 -4
29 1 50 18 16 13 40 28 54 32 14 4 35 17 48 29 21 18 41 22 160 29 75 4 256
11 402 15 146 4 272 11 280 17 8 5 35 12 60 16 25 3 266 5 535 3 270 -1 531
-7 582 -13z m-7090 -1303 c-3 -8 -6 -5 -6 6 -1 11 2 17 5 13 3 -3 4 -12 1 -19z"/>
<path d="M9430 11117 c-19 -8 -68 -29 -109 -46 -41 -17 -79 -35 -85 -40 -6 -5
-31 -14 -56 -21 -25 -6 -72 -24 -105 -40 -33 -16 -79 -34 -103 -40 -23 -6 -57
-24 -75 -40 -19 -16 -78 -53 -133 -81 -54 -29 -120 -68 -145 -86 -25 -18 -73
-45 -105 -59 -32 -15 -76 -41 -97 -58 -21 -17 -59 -51 -85 -75 -26 -24 -71
-59 -99 -78 -29 -18 -60 -47 -68 -64 -9 -16 -26 -35 -38 -40 -12 -6 -36 -30
-52 -52 -24 -33 -43 -46 -95 -63 -53 -19 -75 -34 -125 -87 -33 -35 -75 -69
-92 -76 -18 -8 -33 -17 -33 -22 0 -5 -25 -25 -56 -44 -31 -20 -80 -58 -108
-84 -28 -26 -67 -59 -86 -73 -19 -14 -78 -68 -131 -120 -53 -51 -134 -128
-180 -170 -46 -42 -104 -92 -129 -110 -28 -21 -57 -55 -75 -90 -17 -31 -42
-66 -56 -77 -15 -11 -41 -42 -58 -69 -17 -27 -58 -70 -91 -95 -32 -25 -67 -61
-76 -79 -9 -18 -26 -44 -36 -58 -11 -14 -26 -39 -33 -56 -7 -17 -31 -46 -54
-64 -26 -21 -52 -56 -70 -94 -16 -34 -39 -70 -51 -81 -12 -11 -33 -42 -47 -68
-13 -27 -40 -62 -59 -79 -19 -16 -34 -35 -34 -42 0 -6 -11 -33 -25 -61 -13
-27 -25 -55 -25 -62 0 -6 -15 -29 -34 -51 -20 -25 -36 -57 -40 -81 -3 -23 -18
-55 -35 -73 -16 -18 -32 -48 -36 -66 -4 -19 -21 -49 -38 -69 -27 -30 -32 -45
-35 -102 -3 -51 -9 -71 -27 -91 -13 -14 -39 -56 -59 -93 -20 -38 -36 -74 -36
-81 0 -6 -21 -32 -47 -58 -27 -25 -64 -51 -84 -57 -19 -6 -53 -30 -75 -52 -21
-23 -62 -58 -90 -79 -28 -21 -80 -52 -115 -69 -35 -17 -91 -47 -124 -67 -33
-19 -66 -42 -72 -51 -7 -9 -13 -27 -13 -39 0 -12 -6 -27 -14 -33 -8 -7 -37
-16 -65 -20 -28 -4 -59 -15 -69 -25 -10 -9 -39 -23 -63 -31 -24 -8 -59 -28
-78 -44 -18 -16 -52 -34 -75 -41 -22 -7 -54 -21 -71 -33 -16 -11 -43 -32 -60
-48 -16 -15 -64 -41 -105 -59 -51 -21 -86 -44 -111 -71 -27 -31 -48 -43 -94
-55 -32 -9 -79 -26 -104 -38 -26 -13 -64 -29 -86 -36 -22 -7 -56 -24 -75 -37
-20 -12 -62 -28 -95 -34 -34 -6 -71 -21 -86 -33 -15 -13 -57 -31 -94 -40 -37
-9 -77 -23 -89 -32 -13 -8 -63 -21 -111 -30 -50 -9 -99 -23 -114 -35 -18 -13
-53 -22 -121 -28 -52 -5 -156 -21 -230 -35 -74 -14 -205 -31 -290 -38 -85 -7
-193 -12 -240 -12 -47 0 -137 5 -200 11 -70 7 -144 21 -190 36 -41 14 -111 28
-154 32 -44 3 -95 13 -115 22 -20 8 -63 24 -96 34 -33 10 -110 35 -171 56 -61
21 -129 51 -152 65 -22 15 -57 34 -78 43 -22 10 -70 28 -107 41 -38 13 -84 37
-103 54 -24 21 -45 30 -69 30 -23 0 -41 7 -52 21 -10 11 -33 36 -52 56 -19 19
-52 46 -73 59 -21 13 -38 28 -38 33 0 5 -32 35 -71 67 -39 33 -88 82 -109 111
-22 28 -49 54 -60 58 -12 4 -33 31 -50 64 -20 41 -38 62 -59 70 -16 7 -36 20
-44 29 -8 10 -22 41 -31 69 -10 29 -22 55 -27 58 -5 3 -22 26 -39 50 -18 27
-39 78 -51 127 -11 46 -34 104 -50 129 -16 25 -29 52 -29 60 0 8 -11 37 -25
64 -13 28 -25 61 -25 75 0 14 -18 80 -41 147 -22 67 -50 137 -62 155 -12 17
-42 47 -65 65 -38 29 -51 33 -103 33 -33 0 -75 -6 -94 -14 -20 -9 -41 -28 -51
-47 -13 -25 -15 -47 -10 -93 3 -34 14 -72 24 -85 10 -14 46 -35 82 -48 36 -14
74 -33 86 -44 11 -11 34 -56 49 -101 16 -46 44 -112 62 -148 19 -36 55 -93 82
-127 30 -37 57 -86 70 -126 12 -36 30 -72 41 -82 11 -10 26 -39 35 -66 9 -28
29 -59 45 -71 15 -13 43 -57 63 -99 24 -53 46 -85 72 -105 21 -16 48 -39 59
-51 12 -12 46 -49 76 -83 30 -34 71 -77 90 -96 19 -19 53 -53 76 -75 23 -22
56 -44 75 -49 19 -6 49 -10 66 -10 23 0 44 -10 70 -34 21 -18 58 -43 83 -55
25 -11 61 -31 80 -43 19 -11 85 -50 145 -86 61 -36 126 -78 145 -93 19 -15 69
-37 110 -49 41 -12 98 -31 125 -41 28 -10 75 -19 105 -19 30 -1 73 -8 95 -16
22 -9 80 -26 128 -40 49 -13 98 -31 111 -39 12 -8 60 -22 106 -31 70 -13 127
-15 317 -11 213 5 236 7 267 26 27 17 50 21 117 21 46 0 128 5 182 10 72 7
116 18 168 40 52 23 91 33 155 37 70 5 93 11 127 33 23 16 62 31 87 35 25 4
65 18 90 32 28 15 68 27 105 30 37 4 68 12 80 23 11 10 55 34 98 54 43 20 115
48 160 63 45 15 131 52 192 84 60 31 124 64 140 73 17 9 38 16 48 16 9 0 37
18 61 40 24 22 67 51 97 64 30 13 67 38 83 54 18 19 46 35 76 42 27 6 72 30
105 54 31 24 66 57 77 74 15 24 39 39 101 62 45 18 92 38 104 46 13 8 32 32
43 53 15 30 30 43 65 57 26 9 62 30 81 45 20 15 57 35 83 44 27 9 57 25 66 35
10 11 27 20 37 20 10 0 32 -10 49 -22 l30 -23 46 25 c30 16 49 34 54 50 4 14
12 44 18 67 7 27 34 68 71 111 33 38 82 83 109 100 27 18 60 47 74 65 14 19
39 40 56 47 17 7 33 21 36 31 4 11 19 26 34 34 16 8 34 27 41 44 7 19 27 37
53 49 23 11 70 41 103 66 34 25 66 46 71 46 5 0 49 39 98 86 50 47 106 94 126
105 23 11 39 28 43 44 4 16 19 30 41 39 18 8 41 28 49 44 10 19 29 35 51 42
20 7 45 25 57 41 12 16 47 46 77 67 31 20 70 51 87 67 17 17 57 50 88 75 32
25 86 71 121 104 34 32 71 73 81 91 10 19 34 41 53 50 20 9 50 35 66 58 17 22
48 49 70 60 22 12 72 53 110 92 39 39 86 81 106 93 21 13 43 38 54 62 12 27
31 48 59 63 22 12 51 37 63 56 13 19 37 43 53 53 17 10 50 37 73 60 24 24 103
100 175 171 72 70 137 135 144 145 7 9 32 32 56 51 23 18 52 51 63 72 12 25
34 46 59 59 21 11 51 36 66 55 14 19 48 46 73 59 26 13 91 67 144 120 94 92
99 96 141 96 33 0 52 7 75 25 16 14 50 61 75 105 25 43 46 88 46 99 0 10 -14
31 -31 45 -20 17 -43 26 -64 26 -19 0 -45 -4 -59 -10 -14 -5 -58 -41 -98 -79
-40 -38 -84 -82 -98 -97 -14 -16 -52 -53 -85 -83 -33 -31 -81 -78 -108 -106
-26 -27 -55 -62 -64 -76 -9 -15 -30 -34 -47 -44 -17 -10 -52 -38 -78 -64 -26
-25 -67 -64 -92 -86 -24 -22 -103 -96 -176 -165 -72 -69 -167 -160 -210 -203
-44 -43 -89 -91 -100 -107 -11 -16 -29 -32 -40 -35 -10 -3 -27 -21 -38 -39
-11 -19 -38 -42 -63 -54 -24 -12 -59 -41 -78 -64 -19 -24 -65 -66 -102 -95
-45 -35 -77 -70 -98 -108 -19 -34 -48 -66 -72 -83 -23 -15 -62 -45 -88 -68
-25 -22 -62 -50 -81 -62 -19 -11 -57 -43 -83 -71 -27 -28 -55 -51 -63 -51 -8
0 -53 -37 -99 -82 -47 -45 -87 -90 -91 -100 -3 -9 -22 -27 -42 -39 -20 -12
-58 -43 -83 -68 -25 -25 -65 -62 -90 -82 -24 -20 -62 -47 -84 -61 -22 -14 -65
-50 -95 -80 -30 -30 -71 -63 -90 -73 -19 -10 -76 -56 -126 -102 -50 -47 -105
-93 -121 -102 -16 -10 -37 -30 -47 -46 -10 -15 -37 -36 -61 -46 -24 -11 -53
-33 -65 -49 -11 -16 -30 -32 -41 -35 -12 -4 -25 -3 -31 3 -6 6 -2 21 11 43 12
19 21 41 21 49 0 8 6 26 13 40 7 14 25 45 39 70 14 25 41 73 61 106 19 34 44
71 56 83 11 11 26 41 32 65 8 32 21 53 44 70 24 18 41 46 60 98 23 62 38 83
95 138 46 44 74 80 85 110 9 25 29 59 44 75 16 17 48 56 72 88 24 33 53 74 65
93 11 19 35 49 51 67 17 18 36 48 42 67 7 21 41 65 84 108 39 40 86 87 102
104 17 17 45 45 64 62 19 17 43 41 55 53 12 13 77 78 146 147 69 68 145 141
170 162 25 22 68 53 95 71 28 18 61 51 75 73 14 23 50 63 81 90 31 27 77 59
103 72 39 18 51 31 72 77 14 31 30 59 37 63 7 4 24 8 39 8 18 0 33 10 49 31
14 19 48 43 94 64 40 18 90 48 111 67 22 20 53 42 69 51 17 8 50 35 75 60 25
24 61 52 80 62 19 10 49 33 66 51 18 19 41 34 51 34 11 0 37 13 58 30 21 16
55 35 76 40 21 6 52 22 68 36 16 13 80 43 141 65 62 21 126 51 144 64 19 14
60 36 94 50 33 13 90 29 128 35 54 9 75 18 105 45 21 19 53 37 71 40 18 4 45
2 60 -4 15 -6 34 -25 44 -46 10 -21 33 -46 59 -60 23 -14 51 -25 63 -25 12 0
26 9 32 19 5 11 10 32 10 47 0 15 -10 47 -21 72 -13 26 -32 47 -48 54 -14 5
-89 12 -166 14 -105 3 -149 1 -175 -9z"/>
<path d="M24611 8507 c-12 -7 -30 -24 -39 -39 -15 -25 -15 -33 2 -101 9 -41
32 -99 49 -128 18 -29 40 -57 50 -63 12 -8 22 -8 35 0 9 6 27 30 40 54 16 33
22 61 22 110 0 42 -6 77 -18 99 -9 19 -28 42 -42 52 -14 9 -36 20 -50 23 -14
3 -36 0 -49 -7z"/>
<path d="M6207 6410 c-14 -12 -50 -29 -79 -39 -29 -11 -81 -33 -116 -50 -40
-20 -69 -42 -82 -63 -10 -18 -24 -54 -29 -80 -8 -36 -7 -64 3 -113 9 -42 27
-86 50 -120 20 -30 53 -66 74 -79 21 -13 60 -35 87 -49 44 -23 66 -27 191 -32
l140 -6 32 29 c18 17 32 37 32 45 0 8 -10 29 -23 48 -20 30 -28 34 -63 32 -21
-2 -73 -4 -113 -4 l-75 -2 -39 44 c-22 24 -46 58 -53 75 -10 23 -11 47 -4 95
8 59 13 68 57 109 27 25 63 52 80 61 24 13 32 26 38 58 4 22 4 45 0 51 -3 5
-23 10 -44 10 -23 0 -48 -8 -64 -20z"/>
<path d="M18126 5709 c-54 -4 -123 -13 -154 -20 -30 -6 -83 -22 -118 -35 -35
-13 -99 -26 -145 -30 -79 -7 -85 -9 -121 -46 -28 -29 -45 -38 -70 -38 -18 0
-49 -9 -68 -20 -19 -11 -57 -31 -85 -45 -30 -15 -62 -43 -80 -68 -17 -23 -50
-52 -75 -64 -24 -13 -58 -36 -74 -52 -17 -16 -46 -36 -63 -45 -18 -9 -41 -33
-52 -54 -10 -20 -31 -48 -45 -61 -14 -14 -26 -33 -26 -43 0 -10 11 -24 25 -30
22 -10 30 -8 53 10 15 12 43 29 62 37 19 9 49 29 65 44 17 16 48 34 70 41 22
8 64 36 95 65 42 40 69 57 115 70 33 9 77 26 99 37 21 11 51 33 65 48 20 23
43 32 106 45 44 9 95 23 114 31 19 8 87 24 150 35 84 15 140 20 201 16 47 -3
101 -12 120 -20 19 -8 63 -18 97 -22 38 -4 73 -15 88 -27 17 -13 25 -29 25
-49 0 -16 -14 -65 -30 -108 -17 -44 -46 -99 -64 -123 -18 -23 -41 -59 -51 -78
-10 -19 -47 -66 -83 -105 -35 -38 -81 -82 -101 -98 -20 -15 -58 -38 -86 -51
-33 -16 -61 -39 -83 -69 -18 -26 -53 -61 -77 -78 -25 -18 -45 -36 -45 -40 0
-5 -26 -26 -58 -48 -32 -22 -66 -51 -76 -65 -9 -14 -34 -35 -57 -46 -22 -12
-45 -32 -51 -45 -6 -14 -19 -27 -30 -30 -10 -4 -23 -15 -29 -27 -6 -11 -11
-46 -12 -77 -1 -34 4 -69 12 -85 8 -14 26 -29 39 -33 14 -3 39 1 61 12 20 9
67 38 106 63 38 26 101 73 140 105 38 33 86 67 106 77 19 10 42 26 49 35 8 10
40 34 71 56 31 21 67 54 78 73 12 19 28 37 36 40 8 3 26 1 40 -4 15 -6 33 -28
47 -57 20 -41 30 -51 73 -68 28 -11 64 -30 80 -43 29 -23 32 -24 250 -20 199
4 226 6 280 27 48 19 84 24 185 26 85 2 139 8 170 20 25 9 88 25 141 35 53 10
119 30 147 45 32 17 76 29 123 34 68 7 75 10 106 46 l33 38 70 -7 c54 -5 78
-3 100 9 16 8 42 15 59 15 16 0 33 -4 36 -10 3 -5 2 -16 -2 -24 -4 -8 -27 -36
-51 -63 -23 -26 -58 -72 -77 -101 -19 -30 -42 -74 -50 -99 -9 -26 -13 -58 -10
-72 3 -14 7 -60 10 -102 2 -42 10 -90 17 -106 7 -17 44 -56 81 -87 46 -37 81
-57 105 -61 21 -3 57 -13 82 -22 29 -11 86 -18 163 -20 81 -3 142 1 195 11 46
10 117 15 177 14 58 -1 142 5 200 15 55 9 144 17 197 17 72 0 120 6 180 24 55
15 123 25 200 29 100 5 130 11 195 37 46 19 111 35 157 40 44 5 93 14 110 19
17 5 74 12 126 15 73 4 120 14 200 41 68 24 131 38 180 41 47 3 92 13 120 27
34 16 66 22 132 23 75 1 92 5 135 29 26 16 63 41 81 56 18 16 44 32 58 35 15
4 30 2 37 -5 8 -8 11 -49 9 -127 l-3 -114 49 -48 c34 -33 70 -56 118 -74 39
-15 114 -32 174 -39 58 -7 161 -13 230 -13 99 -1 142 4 205 21 44 12 140 26
213 32 79 6 144 17 161 26 17 8 58 19 93 24 35 5 109 17 166 25 73 12 119 25
159 46 31 17 71 30 90 30 19 0 48 8 66 17 18 9 55 20 83 24 28 4 79 19 115 34
35 15 120 47 189 71 69 24 143 44 166 44 23 0 56 5 75 12 19 6 58 28 88 50 30
21 59 38 65 38 6 0 30 14 54 30 24 16 64 32 90 36 26 3 82 22 125 40 48 21 94
34 120 34 36 0 46 5 69 34 22 27 39 37 80 45 29 6 73 14 98 19 41 7 45 10 48
39 2 17 9 36 15 41 7 6 39 17 72 27 33 9 74 19 90 22 17 3 43 16 58 29 16 13
38 24 49 24 12 0 35 11 52 24 17 12 46 31 64 40 19 10 40 15 48 12 8 -3 14
-14 14 -25 0 -11 -15 -32 -34 -46 -18 -14 -46 -45 -62 -68 -15 -23 -48 -63
-73 -88 -25 -25 -53 -56 -61 -68 -12 -18 -28 -23 -88 -28 -65 -5 -75 -9 -93
-34 -13 -19 -32 -30 -57 -34 -20 -4 -52 -11 -70 -17 -22 -6 -46 -28 -73 -64
-22 -30 -57 -63 -79 -74 -21 -11 -45 -29 -53 -40 -7 -11 -28 -25 -45 -33 -17
-7 -42 -28 -54 -47 -16 -24 -34 -36 -58 -41 -19 -4 -46 -21 -61 -37 -17 -19
-33 -58 -48 -116 -21 -87 -21 -87 -2 -130 17 -38 26 -46 75 -65 31 -11 71 -21
89 -21 18 0 60 7 92 15 33 9 66 23 72 33 7 9 29 34 50 54 21 21 52 43 70 49
18 6 33 14 33 19 0 4 30 36 66 71 36 35 72 77 81 93 8 16 27 39 41 52 15 13
39 28 54 34 14 7 32 25 38 41 7 15 20 31 30 34 11 4 40 -7 72 -26 29 -18 71
-49 93 -69 22 -21 54 -45 71 -54 17 -8 65 -24 105 -36 41 -11 115 -25 164 -31
50 -6 132 -22 184 -35 61 -16 121 -24 175 -24 44 0 119 7 166 15 52 9 149 15
250 15 91 0 244 7 340 15 96 8 211 19 255 25 44 6 89 17 100 24 11 7 31 15 44
19 13 3 33 1 43 -4 15 -8 18 -17 14 -40 -3 -16 -8 -42 -11 -57 -5 -24 -1 -31
35 -51 22 -12 41 -28 42 -34 0 -7 2 -16 3 -22 2 -5 3 -15 4 -21 0 -6 9 -21 20
-32 10 -12 27 -22 38 -22 10 0 36 -9 58 -20 22 -11 50 -20 64 -20 14 0 43 -12
65 -27 31 -23 50 -28 95 -28 31 0 92 6 136 13 44 6 101 17 126 24 38 9 54 8
90 -4 24 -9 62 -23 84 -31 23 -9 106 -19 195 -24 89 -6 276 -7 440 -2 175 4
318 13 370 22 47 9 102 23 124 32 23 10 89 20 165 26 69 5 160 15 201 23 41 9
116 22 165 31 50 9 117 28 150 41 33 14 91 36 129 50 38 13 90 24 114 24 28 0
67 10 101 26 31 15 71 40 89 56 23 19 43 28 60 26 14 -2 27 -8 29 -15 3 -7
-11 -28 -29 -46 -18 -19 -40 -48 -50 -65 -9 -17 -35 -42 -57 -56 -23 -15 -47
-36 -53 -47 -7 -11 -29 -29 -49 -40 -21 -10 -71 -52 -113 -93 -42 -41 -81 -89
-88 -106 -9 -27 -8 -36 9 -58 11 -15 35 -38 54 -50 27 -19 44 -23 80 -20 26 3
90 25 145 51 54 25 114 48 132 52 19 4 41 19 54 36 12 16 38 34 57 40 20 7 61
28 91 48 30 20 75 53 99 73 32 28 53 38 78 38 27 0 47 11 96 55 34 30 78 65
97 78 19 12 50 45 68 72 19 28 40 53 47 58 8 4 35 11 60 16 40 7 53 5 91 -15
24 -13 77 -34 116 -46 58 -18 95 -22 183 -22 61 1 155 9 210 17 55 9 180 28
277 41 117 17 190 32 216 45 22 11 71 28 109 36 37 9 101 20 140 25 40 4 87
12 105 15 18 4 62 21 98 37 36 17 88 36 115 44 28 8 62 14 77 14 15 0 29 -4
33 -9 3 -5 -13 -30 -35 -55 -23 -27 -46 -68 -55 -98 -8 -28 -15 -59 -15 -67 0
-9 9 -30 20 -48 10 -18 38 -42 62 -54 37 -19 63 -22 213 -26 93 -3 216 -1 271
5 80 8 110 16 140 35 22 14 68 33 104 42 36 10 83 21 105 26 22 4 70 16 108
25 50 13 70 15 78 7 9 -9 3 -25 -20 -63 -17 -28 -43 -81 -56 -117 -14 -36 -25
-74 -25 -84 0 -11 11 -46 24 -80 14 -34 48 -86 80 -122 39 -45 74 -72 128
-100 40 -20 82 -37 93 -37 11 0 53 -9 93 -20 41 -11 84 -27 96 -35 12 -8 58
-20 102 -25 43 -6 95 -13 114 -16 19 -4 49 -14 65 -22 17 -8 66 -21 110 -29
44 -7 158 -24 253 -38 100 -14 191 -22 216 -19 27 4 71 -1 117 -12 62 -15 120
-19 352 -20 163 -1 289 -6 305 -12 15 -6 124 -13 242 -15 136 -3 228 -9 250
-17 22 -8 126 -15 280 -20 234 -7 248 -8 325 -35 73 -26 94 -29 230 -30 139
-2 162 -5 305 -42 85 -22 179 -52 209 -67 29 -15 72 -31 94 -34 26 -5 43 -13
45 -23 2 -12 -7 -18 -36 -21 -22 -3 -55 -13 -75 -23 -22 -10 -42 -30 -52 -52
-15 -30 -15 -37 -3 -49 8 -8 43 -19 79 -25 35 -6 76 -8 90 -5 14 3 53 23 87
45 33 23 68 51 76 63 9 12 16 43 16 68 0 25 -8 61 -18 80 -12 24 -37 46 -81
72 -39 22 -83 39 -115 43 -28 4 -78 20 -111 35 -33 16 -93 36 -134 45 -40 8
-77 17 -81 20 -4 3 -41 11 -82 19 -40 8 -120 17 -178 21 -58 4 -159 18 -225
31 -66 13 -182 28 -257 33 -75 6 -177 17 -225 25 -48 9 -144 20 -213 26 -69 6
-186 15 -260 20 -74 5 -220 12 -324 15 -133 4 -215 11 -277 25 -48 11 -134 22
-191 25 -57 3 -132 10 -168 15 -36 5 -117 14 -180 20 -63 6 -140 17 -170 25
-30 8 -95 19 -145 25 -49 6 -133 23 -185 40 -52 16 -129 36 -170 45 -45 10
-108 35 -157 61 -46 25 -87 53 -93 64 -5 10 -10 47 -10 83 0 35 7 85 16 110 9
27 34 66 59 91 31 32 58 49 101 62 33 10 75 32 94 49 19 17 56 38 82 48 28 11
50 26 53 39 4 11 23 27 43 35 20 8 47 26 59 39 13 15 33 24 51 24 15 0 53 15
84 33 30 19 75 44 100 55 24 12 54 31 66 42 15 14 22 32 22 58 0 20 -9 56 -20
80 -12 26 -29 46 -45 52 -15 6 -44 7 -66 4 -22 -4 -56 -17 -75 -30 -19 -13
-39 -24 -43 -24 -5 0 -27 -15 -50 -34 -22 -18 -56 -37 -75 -40 -20 -4 -56 -22
-80 -41 -25 -19 -62 -43 -84 -54 -21 -11 -70 -27 -108 -36 -49 -11 -78 -24
-99 -45 -17 -16 -50 -37 -75 -46 -25 -9 -63 -20 -85 -25 -22 -4 -78 -21 -125
-37 -47 -17 -101 -37 -120 -45 -19 -8 -70 -20 -113 -26 -44 -6 -97 -21 -122
-34 -38 -21 -54 -23 -117 -19 -56 3 -90 -1 -144 -17 -39 -11 -87 -21 -106 -21
-20 0 -41 7 -48 15 -7 8 -10 22 -6 30 3 8 27 30 53 47 26 18 72 57 101 86 28
29 52 57 52 62 0 5 28 24 63 41 34 18 82 49 106 70 24 22 47 39 51 39 5 0 24
23 44 50 20 28 36 58 36 68 0 10 -15 29 -32 43 -29 21 -44 24 -113 24 -67 0
-93 -5 -160 -32 -44 -18 -99 -37 -121 -43 -23 -5 -58 -21 -78 -35 -20 -14 -68
-31 -106 -39 -38 -8 -108 -35 -157 -60 -54 -28 -123 -54 -177 -66 -50 -11
-104 -30 -121 -40 -18 -11 -65 -27 -106 -35 -41 -9 -94 -20 -119 -24 -25 -5
-70 -16 -100 -25 -30 -8 -91 -20 -136 -26 -44 -6 -128 -24 -185 -40 -95 -27
-117 -30 -255 -30 -83 0 -165 5 -182 11 -17 6 -38 21 -46 34 -9 14 -16 32 -16
41 0 9 25 41 55 70 36 36 55 62 55 77 0 14 -4 47 -9 74 -6 27 -27 77 -48 111
-25 40 -50 67 -72 78 -19 9 -46 14 -65 11 -17 -3 -51 -11 -76 -18 -24 -7 -64
-28 -88 -46 -24 -18 -50 -33 -57 -33 -8 0 -42 -25 -75 -55 -34 -30 -71 -57
-83 -61 -12 -4 -39 -22 -61 -42 -34 -31 -43 -34 -80 -29 -26 4 -47 1 -58 -7
-10 -7 -18 -20 -18 -29 0 -9 -13 -23 -30 -32 -16 -8 -36 -15 -44 -15 -8 0 -32
-14 -52 -32 -31 -28 -47 -33 -110 -39 -55 -6 -81 -13 -106 -32 -18 -14 -78
-37 -133 -52 -55 -14 -131 -35 -168 -45 -38 -10 -86 -30 -106 -43 -24 -16 -65
-29 -112 -36 -41 -7 -99 -18 -129 -26 -30 -8 -107 -23 -170 -34 -63 -11 -142
-30 -175 -42 -45 -16 -96 -23 -205 -28 -80 -3 -151 -10 -158 -15 -8 -5 -71
-14 -140 -22 -70 -7 -188 -13 -262 -14 -74 0 -195 7 -268 15 -73 8 -142 20
-153 25 -10 6 -19 19 -19 29 0 12 26 40 65 70 37 30 89 85 124 133 33 46 72
98 87 116 14 18 33 50 40 72 7 21 33 59 57 84 28 28 52 66 66 105 12 34 48 95
82 138 32 43 77 100 99 128 21 27 55 57 74 67 19 10 44 31 56 48 12 17 49 43
86 60 36 18 97 60 135 95 40 36 90 70 117 80 26 10 53 23 60 28 8 6 22 28 33
49 15 29 17 43 9 58 -6 11 -28 29 -50 40 -23 12 -59 20 -87 20 -30 0 -59 -7
-76 -19 -15 -10 -35 -27 -43 -39 -8 -11 -31 -26 -52 -32 -20 -7 -62 -26 -92
-42 -30 -17 -71 -46 -90 -64 -19 -19 -69 -63 -110 -98 -42 -36 -82 -77 -90
-91 -8 -15 -35 -37 -60 -50 -25 -13 -56 -35 -69 -49 -14 -14 -30 -26 -37 -26
-7 0 -29 -13 -47 -30 -23 -20 -45 -30 -67 -30 -25 0 -41 -9 -69 -39 -24 -26
-52 -44 -86 -54 -27 -8 -90 -34 -140 -57 -49 -23 -130 -55 -179 -72 -77 -26
-95 -28 -125 -19 -20 6 -61 26 -91 46 -46 30 -63 35 -112 35 -32 0 -75 -7 -97
-16 -33 -13 -43 -24 -57 -61 -12 -31 -29 -52 -56 -69 -24 -15 -40 -34 -43 -52
-4 -15 -10 -34 -14 -42 -5 -9 -25 -16 -47 -18 -21 -1 -77 -7 -124 -13 -47 -6
-105 -20 -130 -31 -28 -13 -80 -24 -140 -29 -52 -4 -138 -13 -190 -18 -52 -5
-129 -18 -170 -28 -64 -15 -119 -18 -365 -18 -255 0 -295 2 -335 18 -25 10
-83 28 -130 41 -47 13 -111 35 -144 49 -32 14 -70 38 -86 55 -15 17 -46 40
-68 51 -23 12 -46 30 -52 40 -5 11 -10 30 -10 42 0 14 19 40 49 68 26 25 62
67 79 92 17 25 49 57 71 72 30 20 43 37 51 68 7 24 29 61 54 88 24 25 47 57
51 69 5 16 25 32 61 48 30 13 57 31 60 39 3 8 38 30 78 48 39 19 78 42 86 52
8 10 15 35 15 56 0 26 -7 46 -22 60 -16 17 -37 23 -90 26 -64 4 -71 3 -123
-30 -30 -20 -67 -45 -82 -57 -15 -12 -45 -24 -65 -27 -21 -3 -116 -44 -210
-90 -95 -47 -176 -89 -179 -95 -4 -6 -27 -19 -53 -31 -25 -11 -56 -31 -68 -43
-17 -18 -33 -24 -65 -24 -25 0 -56 -8 -75 -20 -18 -11 -33 -24 -33 -28 0 -5
-11 -14 -25 -20 -14 -7 -38 -12 -53 -12 -15 0 -67 -20 -116 -45 -48 -25 -97
-45 -108 -45 -11 0 -33 -9 -48 -20 -16 -11 -54 -25 -86 -31 -31 -6 -82 -24
-113 -41 -31 -17 -67 -41 -81 -53 -14 -13 -34 -27 -45 -32 -11 -6 -37 -13 -57
-17 -21 -4 -68 -21 -105 -38 -38 -17 -80 -41 -94 -53 -19 -16 -47 -24 -95 -28
-49 -5 -86 -16 -129 -38 -33 -17 -91 -40 -130 -51 -38 -11 -74 -23 -80 -28 -6
-5 -33 -14 -60 -21 -28 -7 -61 -20 -75 -29 -14 -9 -43 -20 -65 -23 -22 -4 -87
-17 -145 -30 -58 -13 -134 -32 -170 -40 -36 -9 -112 -24 -170 -33 -58 -9 -130
-25 -160 -37 -48 -19 -78 -22 -240 -23 -102 -1 -217 -5 -256 -9 -47 -5 -90 -3
-125 5 -30 7 -67 19 -82 27 -19 9 -38 34 -54 69 -17 38 -23 63 -18 82 3 15 22
63 42 107 19 44 62 123 94 175 45 73 69 102 104 124 26 16 56 41 67 57 11 15
31 30 44 33 13 4 31 20 39 36 9 17 20 30 25 30 6 0 10 -8 10 -19 0 -10 -7 -24
-15 -31 -8 -7 -15 -18 -15 -25 0 -8 11 -26 24 -42 13 -15 31 -43 40 -62 16
-30 21 -33 49 -27 17 3 56 18 86 32 31 14 91 30 135 36 71 10 82 15 117 50 24
25 47 38 64 38 16 0 37 11 53 28 15 16 50 43 78 60 28 18 56 32 63 32 8 0 47
35 89 77 43 44 85 100 99 128 12 27 23 55 23 62 0 7 -17 30 -37 52 -21 21 -48
53 -61 70 -19 25 -31 31 -60 31 -20 0 -71 -10 -112 -21 -41 -11 -113 -24 -159
-29 -60 -6 -89 -14 -105 -28 -11 -11 -88 -55 -171 -97 -82 -43 -171 -92 -196
-109 -26 -17 -51 -43 -57 -58 -8 -22 -17 -27 -53 -30 -37 -3 -47 -8 -69 -40
-14 -20 -41 -48 -60 -60 -19 -13 -44 -39 -55 -57 -11 -19 -60 -73 -108 -120
-60 -57 -99 -105 -118 -144 -24 -47 -38 -62 -72 -77 -25 -12 -65 -20 -98 -20
-30 0 -78 -7 -105 -15 -27 -8 -96 -23 -154 -35 -58 -11 -117 -20 -132 -20 -14
0 -40 -12 -58 -26 -27 -23 -43 -27 -145 -35 -82 -6 -136 -16 -188 -34 -48 -18
-102 -28 -164 -32 -88 -5 -91 -6 -96 -32 l-5 -26 -184 0 c-177 0 -185 -1 -253
-28 -63 -26 -88 -29 -253 -38 -100 -5 -192 -11 -205 -14 -12 -3 -60 -10 -107
-14 -47 -5 -105 -16 -130 -26 -29 -11 -79 -17 -140 -18 -52 -1 -149 2 -215 6
-66 5 -145 15 -175 23 -30 8 -70 22 -87 29 -18 8 -33 20 -33 27 0 7 -11 36
-25 63 -14 28 -25 68 -25 91 0 34 5 45 25 58 14 9 25 25 25 35 0 10 16 34 35
54 19 19 37 48 40 64 4 15 8 34 11 41 2 7 17 18 33 23 17 6 33 19 36 30 4 11
23 30 43 43 20 13 57 45 82 71 25 26 75 62 111 80 46 24 73 45 87 69 11 19 38
44 59 55 21 10 63 32 93 48 31 15 69 38 85 49 17 12 40 24 52 28 13 4 41 22
63 41 22 18 65 41 94 49 42 13 64 27 99 66 25 28 65 59 89 70 27 12 64 43 101
85 39 46 57 75 57 93 0 15 -4 32 -8 39 -4 7 -18 16 -32 21 -13 5 -39 6 -58 1
-19 -4 -46 -19 -61 -33 -16 -15 -48 -30 -81 -37 -30 -6 -80 -24 -110 -40 -30
-15 -80 -39 -111 -54 -31 -14 -77 -43 -102 -65 -24 -22 -65 -48 -90 -59 -25
-11 -48 -24 -52 -30 -3 -6 -25 -21 -48 -32 -23 -12 -57 -35 -75 -50 -18 -16
-54 -40 -80 -53 -26 -13 -60 -38 -76 -55 -22 -23 -45 -34 -89 -42 -35 -7 -71
-22 -88 -37 -16 -13 -49 -28 -72 -34 -23 -5 -80 -28 -127 -52 -65 -33 -101
-45 -154 -50 -56 -6 -74 -12 -92 -31 -13 -14 -30 -25 -39 -25 -9 0 -37 -9 -63
-20 -27 -12 -98 -26 -165 -34 -96 -11 -125 -18 -150 -37 -27 -21 -48 -25 -142
-31 -60 -3 -159 -11 -220 -16 -60 -6 -148 -20 -194 -32 -47 -12 -119 -22 -160
-23 -42 0 -101 4 -131 9 -30 6 -70 18 -87 27 -18 10 -40 28 -48 41 -12 18 -14
37 -9 82 6 51 12 64 45 94 l38 35 -6 67 c-5 62 -4 68 19 90 14 12 37 31 51 40
22 15 25 23 20 52 -4 26 1 44 18 73 21 33 24 53 27 150 4 105 3 112 -18 130
-12 10 -28 24 -34 31 -6 8 -20 24 -31 36 -13 14 -39 26 -65 30 -24 4 -59 18
-77 32 -18 14 -51 31 -74 39 -25 9 -74 14 -123 14 -44 -1 -125 -5 -180 -10z
m6268 -469 c14 -5 26 -13 26 -18 0 -4 -30 -40 -67 -78 -43 -44 -82 -75 -104
-83 -20 -6 -46 -23 -57 -36 -12 -14 -32 -25 -44 -25 -12 0 -32 12 -44 27 -18
23 -30 27 -89 31 -67 4 -69 4 -94 -27 -18 -21 -38 -33 -63 -38 -30 -4 -38 -2
-38 9 0 9 6 20 13 26 6 5 29 15 50 20 21 6 47 22 58 36 11 14 26 26 33 26 7 0
35 11 61 25 26 14 76 32 111 39 35 8 76 22 91 31 15 10 46 24 68 31 22 7 45
13 52 13 6 1 23 -3 37 -9z m5426 -559 c0 -11 -11 -33 -25 -49 -14 -17 -32 -46
-40 -66 -8 -20 -26 -43 -39 -51 -12 -8 -28 -27 -35 -42 -7 -15 -30 -42 -51
-60 -22 -19 -41 -46 -45 -63 -4 -17 -24 -45 -48 -66 -23 -19 -62 -49 -86 -65
-25 -16 -52 -29 -60 -29 -9 0 -34 21 -57 48 -22 26 -50 68 -61 93 -12 26 -26
50 -32 53 -6 4 -11 24 -11 44 0 27 8 45 30 69 16 17 38 34 47 37 10 2 45 10
78 16 33 7 76 22 95 35 19 14 55 31 80 40 24 9 54 24 65 34 11 10 34 23 50 29
17 6 56 11 88 11 50 1 57 -1 57 -18z m2731 -147 c11 -13 10 -23 -2 -57 -11
-34 -23 -46 -62 -66 -28 -14 -60 -40 -78 -66 -17 -23 -49 -52 -72 -65 -23 -13
-68 -45 -100 -72 -32 -26 -64 -48 -71 -48 -7 0 -25 -14 -42 -31 -16 -17 -47
-40 -69 -51 -22 -12 -51 -29 -64 -39 -13 -11 -37 -19 -52 -19 -16 0 -29 2 -29
5 0 3 17 27 38 53 20 26 56 65 79 86 23 20 45 47 49 58 3 12 31 31 69 48 49
22 71 39 92 71 17 26 57 61 108 94 45 29 87 61 95 71 8 9 28 23 45 30 16 7 35
13 41 14 6 0 17 -7 25 -16z m-6233 -81 c-2 -10 -13 -22 -25 -28 -12 -5 -27
-21 -33 -36 -6 -14 -28 -42 -48 -62 -20 -20 -61 -56 -89 -81 -29 -25 -62 -50
-74 -56 -11 -7 -23 -9 -27 -6 -3 3 1 18 8 32 8 14 26 38 40 52 14 15 36 49 50
76 21 42 32 52 75 69 28 10 58 27 68 38 10 10 27 19 38 19 14 0 19 -5 17 -17z
m2753 -50 c20 -28 37 -72 46 -112 10 -50 22 -74 47 -101 19 -19 39 -45 45 -56
8 -17 7 -25 -4 -34 -9 -7 -55 -17 -103 -21 -55 -5 -99 -5 -119 2 -24 8 -45 30
-83 86 -49 73 -50 76 -44 131 4 31 12 68 18 81 7 16 27 30 58 40 26 9 50 19
54 24 4 4 18 7 30 7 16 0 33 -14 55 -47z m2817 -440 c-8 -7 -27 -15 -43 -16
-15 -1 -30 4 -32 11 -3 7 13 20 39 31 37 15 44 16 46 3 2 -8 -2 -21 -10 -29z"/>
<path d="M27962 954 c-15 -10 -22 -25 -22 -49 0 -33 2 -35 103 -85 57 -27 108
-50 114 -50 6 0 56 -15 111 -34 55 -19 139 -39 186 -45 47 -7 105 -19 128 -27
24 -9 75 -20 113 -25 39 -5 115 -13 170 -19 55 -6 141 -22 190 -35 57 -15 157
-30 270 -39 99 -9 230 -27 290 -41 61 -13 172 -29 249 -35 76 -6 141 -12 145
-14 3 -2 49 -11 102 -20 53 -9 179 -21 280 -26 126 -6 206 -15 255 -29 40 -11
125 -22 190 -26 66 -4 147 -13 182 -21 35 -8 82 -14 105 -14 23 0 83 -7 132
-15 50 -9 189 -20 310 -25 121 -5 254 -14 295 -20 41 -6 116 -15 165 -19 50
-5 158 -18 240 -29 83 -12 206 -26 275 -32 69 -6 181 -17 250 -25 69 -8 238
-19 375 -25 165 -6 271 -14 310 -24 33 -9 76 -16 95 -16 19 0 67 -7 105 -16
50 -12 133 -17 295 -18 124 -2 302 -8 395 -14 94 -7 202 -18 240 -27 56 -11
170 -14 585 -15 391 0 544 4 635 15 66 8 136 19 155 24 19 5 74 12 122 16 48
3 112 12 141 20 30 8 69 23 88 34 19 10 58 24 87 30 29 6 74 22 100 35 26 13
59 26 75 30 15 3 52 22 82 41 37 24 66 54 91 93 20 31 51 75 69 97 17 22 39
54 49 72 12 24 16 60 16 148 0 84 -4 124 -15 145 -9 17 -24 30 -34 30 -10 0
-25 -8 -33 -17 -9 -10 -21 -29 -28 -42 -6 -12 -13 -56 -14 -97 -1 -68 -4 -76
-33 -106 -18 -18 -55 -55 -82 -83 -27 -27 -56 -63 -64 -80 -12 -23 -36 -39
-104 -70 -48 -22 -112 -54 -141 -71 -32 -20 -79 -37 -120 -44 -37 -7 -125 -16
-197 -20 -71 -4 -151 -13 -176 -20 -33 -8 -187 -10 -565 -7 -418 3 -540 7
-629 21 -60 9 -153 21 -205 26 -52 6 -246 14 -430 20 -257 7 -358 14 -435 29
-55 11 -148 27 -206 36 -58 9 -118 13 -132 10 -14 -4 -92 -2 -173 5 -81 6
-171 16 -198 21 -28 6 -116 15 -196 20 -80 5 -227 13 -328 18 -160 7 -187 11
-211 28 -23 17 -58 23 -236 37 -116 9 -239 18 -275 21 -36 2 -137 9 -224 14
-88 5 -171 13 -184 16 -13 3 -119 10 -235 15 -153 7 -234 15 -292 30 -44 11
-101 20 -127 20 -25 0 -127 9 -225 20 -98 11 -225 24 -283 30 -58 6 -125 17
-150 25 -25 7 -88 16 -140 19 -52 2 -154 16 -227 30 -73 14 -149 26 -170 27
-21 1 -99 8 -173 16 -74 8 -160 21 -190 29 -30 8 -127 21 -215 29 -97 8 -184
22 -222 34 -34 11 -124 27 -200 37 -89 11 -147 23 -163 33 -14 10 -56 32 -94
49 -37 18 -85 32 -105 32 -20 0 -47 -7 -59 -16z"/>
</g>
</svg>
