<?xml version="1.0" standalone="no"?>
<!DOCTYPE svg PUBLIC "-//W3C//DTD SVG 20010904//EN"
 "http://www.w3.org/TR/2001/REC-SVG-20010904/DTD/svg10.dtd">
<svg version="1.0" xmlns="http://www.w3.org/2000/svg"
 width="468pt" height="160pt" viewBox="0 0 468 160"
 preserveAspectRatio="xMidYMid meet">
<metadata>
Created by POTRACE VERSION, written by Peter Selinger 2001-2007
</metadata>
<g transform="translate(0,160) scale(0.011700,-0.011700)"
fill="#000000" stroke="none">
<path d="M31492 13233 c-18 -9 -41 -28 -51 -42 -10 -14 -22 -37 -26 -49 -4
-13 -4 -39 0 -58 3 -20 22 -53 41 -74 20 -22 64 -57 98 -79 34 -21 78 -44 98
-49 20 -5 47 -7 62 -5 15 3 35 17 46 31 11 13 20 39 20 57 0 20 -21 74 -50
133 -28 56 -64 112 -81 126 -23 20 -41 26 -77 26 -26 0 -62 -8 -80 -17z"/>
<path d="M28948 11605 c-20 -13 -45 -43 -56 -67 -11 -24 -42 -88 -68 -143
l-47 -100 -7 -140 c-4 -77 -14 -174 -23 -215 -8 -41 -24 -145 -36 -230 -11
-85 -28 -256 -37 -380 -12 -163 -21 -236 -34 -266 -9 -22 -30 -50 -46 -62 -16
-12 -53 -41 -83 -65 -30 -23 -83 -80 -118 -127 -34 -47 -80 -121 -101 -165
-22 -44 -63 -108 -91 -142 -29 -34 -70 -73 -91 -87 -20 -13 -92 -49 -159 -80
-66 -31 -163 -69 -214 -85 -50 -16 -119 -37 -152 -46 -33 -9 -96 -30 -140 -45
-44 -16 -102 -34 -130 -41 -27 -7 -61 -18 -75 -26 -14 -7 -29 -13 -34 -13 -5
0 -53 -23 -108 -50 -54 -28 -129 -60 -166 -71 -37 -11 -128 -42 -202 -69 -74
-27 -198 -69 -275 -94 -77 -25 -183 -52 -235 -61 -52 -8 -126 -24 -165 -36
-38 -11 -137 -38 -220 -59 -82 -21 -178 -47 -212 -59 -35 -12 -97 -26 -138
-32 -41 -5 -96 -16 -122 -24 -27 -7 -86 -27 -133 -43 -47 -17 -116 -35 -155
-42 -38 -7 -106 -25 -150 -40 -44 -15 -118 -46 -165 -68 -47 -23 -114 -57
-149 -77 -35 -19 -78 -35 -95 -35 -18 0 -37 5 -44 12 -7 7 -12 30 -12 53 0 22
7 69 16 105 10 43 13 84 9 120 -4 30 -14 84 -22 120 -9 36 -31 97 -49 137 -19
39 -53 92 -76 118 -39 42 -48 47 -98 52 -39 4 -67 0 -95 -11 -22 -10 -81 -42
-131 -72 -62 -37 -129 -90 -208 -165 -64 -61 -151 -152 -193 -203 -42 -50 -97
-122 -122 -161 -24 -38 -69 -102 -98 -142 -30 -39 -71 -106 -92 -150 -21 -43
-55 -104 -74 -136 -20 -32 -45 -96 -58 -142 -14 -55 -32 -96 -51 -119 -16 -20
-37 -36 -47 -36 -10 0 -24 15 -34 36 -10 19 -22 67 -27 106 -7 48 -7 97 0 147
5 42 11 187 12 322 1 135 -2 250 -5 256 -4 7 -12 82 -17 167 -6 85 -15 167
-20 182 -6 14 -13 67 -16 118 -3 50 -14 133 -25 183 -10 51 -19 114 -19 140
-1 27 -5 66 -9 88 -5 22 -25 85 -44 140 -22 61 -48 169 -67 278 -25 146 -38
194 -69 262 -22 46 -44 99 -50 118 -7 20 -25 63 -41 95 -16 33 -50 80 -77 105
-27 26 -76 65 -108 88 -33 23 -74 48 -92 56 -18 7 -50 13 -71 13 -27 0 -62
-14 -127 -51 -50 -29 -113 -70 -142 -93 -28 -22 -82 -66 -120 -97 -37 -31 -86
-76 -108 -101 -22 -24 -57 -65 -78 -91 -21 -26 -81 -78 -135 -116 -53 -38
-128 -102 -167 -141 -38 -40 -104 -97 -145 -128 -41 -30 -122 -101 -180 -157
-58 -56 -127 -118 -155 -137 -27 -20 -68 -55 -90 -78 -22 -23 -74 -68 -115
-100 -41 -31 -107 -86 -146 -121 -39 -36 -96 -77 -125 -93 -30 -16 -92 -57
-139 -91 -47 -35 -105 -73 -130 -86 -33 -17 -62 -23 -110 -24 -52 0 -77 6
-125 29 -32 16 -79 48 -103 70 -24 22 -53 58 -64 80 -11 21 -27 57 -35 80 -9
25 -19 100 -23 191 -5 83 -18 197 -30 255 -12 58 -26 146 -31 195 -5 50 -14
180 -19 290 -5 123 -15 223 -25 260 -9 33 -28 76 -44 95 -15 19 -44 43 -65 54
-33 16 -41 17 -74 4 -22 -8 -44 -27 -56 -47 -14 -24 -19 -51 -18 -95 0 -34 8
-90 17 -125 9 -35 20 -129 26 -210 5 -80 14 -180 19 -221 5 -41 18 -142 29
-225 11 -82 28 -231 36 -330 13 -151 20 -188 41 -232 17 -36 58 -83 135 -157
85 -81 127 -114 186 -143 75 -37 80 -38 188 -38 105 0 113 2 185 36 41 20 120
65 175 101 55 35 122 84 149 107 27 23 88 69 135 101 47 32 111 84 141 115 30
31 89 83 130 115 41 32 91 75 110 95 19 21 87 80 150 133 63 53 149 125 190
162 41 36 118 99 170 140 52 40 129 106 170 145 41 39 95 87 120 106 25 19 94
81 155 137 60 57 129 115 153 129 36 21 52 25 95 20 49 -4 55 -8 115 -73 35
-38 81 -98 102 -134 21 -36 47 -96 59 -135 11 -38 25 -108 32 -155 6 -47 31
-143 55 -215 24 -71 48 -159 54 -195 5 -36 10 -92 10 -125 0 -33 9 -116 20
-185 15 -89 20 -165 19 -270 -1 -127 2 -157 25 -245 26 -99 26 -101 20 -375
-3 -151 -6 -293 -7 -315 0 -22 5 -121 11 -220 6 -99 18 -207 26 -240 9 -33 16
-91 16 -130 0 -38 -7 -110 -16 -160 -8 -49 -19 -196 -24 -325 -7 -207 -12
-247 -35 -335 -15 -55 -38 -151 -51 -213 -13 -62 -25 -116 -28 -121 -3 -4 -16
-76 -30 -159 -14 -84 -36 -191 -50 -239 -13 -49 -30 -119 -39 -158 -8 -38 -20
-99 -26 -135 -5 -36 -13 -87 -16 -115 -3 -27 -24 -124 -46 -215 -33 -133 -42
-196 -50 -325 -6 -88 -8 -196 -4 -240 3 -44 13 -105 21 -135 9 -30 34 -101 56
-158 25 -64 52 -115 73 -137 25 -27 40 -35 68 -35 20 0 47 5 61 11 14 7 36 29
50 50 14 20 35 77 47 126 12 48 31 111 44 138 12 28 31 73 40 100 13 35 17 74
15 133 -1 45 -2 115 -2 155 0 39 4 135 10 212 8 113 15 152 36 202 14 34 28
79 32 100 4 27 -2 62 -22 123 -17 53 -27 106 -27 140 0 30 10 91 21 135 12 44
26 121 32 170 5 50 10 169 10 265 1 114 6 199 15 245 9 39 22 133 30 210 8 77
23 210 34 295 12 85 30 187 42 225 11 39 29 101 40 139 11 37 33 97 50 133 18
38 35 98 43 151 7 48 21 103 31 122 10 19 30 53 45 75 15 22 49 81 76 130 26
50 69 122 95 160 26 39 58 93 72 120 14 28 47 80 74 117 26 36 92 114 146 173
53 59 132 140 175 180 43 40 96 83 119 95 27 14 55 20 79 18 26 -2 43 -11 56
-29 11 -14 23 -43 29 -65 5 -21 12 -91 15 -154 4 -75 2 -141 -6 -190 -7 -41
-25 -104 -41 -139 -21 -47 -52 -87 -113 -150 -46 -47 -122 -128 -168 -180 -45
-51 -92 -105 -103 -120 -10 -14 -41 -50 -67 -79 -26 -30 -51 -66 -54 -80 -4
-15 -10 -31 -14 -37 -4 -5 -10 -23 -14 -38 -4 -16 -28 -65 -54 -110 l-47 -81
0 -141 c0 -118 3 -146 19 -179 13 -25 31 -43 54 -53 26 -11 41 -12 65 -3 18 6
44 21 59 33 15 12 56 67 92 122 36 55 87 131 113 170 27 38 60 92 76 119 15
27 34 57 41 65 8 9 35 57 60 107 25 50 56 102 68 117 13 15 32 43 43 64 11 21
39 65 63 98 23 33 59 84 79 113 20 29 54 68 75 85 22 18 117 73 211 124 95 51
204 108 242 127 58 29 86 36 160 42 75 6 104 13 173 46 45 21 110 47 145 57
34 11 109 31 167 45 58 14 146 33 195 41 50 9 132 30 184 46 51 17 134 39 185
49 50 9 154 34 231 54 77 20 196 57 265 81 69 24 157 54 195 66 39 12 107 41
152 65 45 23 115 52 155 64 40 12 111 35 158 52 46 16 89 33 95 38 5 4 48 20
95 35 47 15 119 38 160 52 41 14 105 38 142 54 36 16 83 29 102 29 22 0 39 -6
42 -14 3 -8 1 -32 -5 -54 -6 -21 -39 -86 -74 -143 -35 -57 -96 -156 -137 -219
-40 -63 -97 -162 -125 -220 -29 -58 -60 -123 -70 -145 -9 -22 -28 -101 -42
-175 -17 -90 -23 -155 -20 -195 3 -34 20 -101 41 -154 24 -66 46 -106 71 -130
31 -32 41 -36 86 -36 47 0 54 3 83 36 17 20 39 60 49 87 9 28 37 79 61 114 24
35 76 117 115 184 39 67 80 143 92 170 12 27 49 92 82 144 33 52 94 147 136
212 42 64 96 149 120 189 25 39 55 99 69 133 13 34 36 71 50 83 15 13 37 23
49 23 11 0 32 -13 46 -30 17 -20 28 -50 36 -97 5 -37 14 -107 19 -155 9 -81
14 -96 81 -220 49 -92 95 -161 148 -223 42 -50 115 -127 162 -173 52 -49 112
-96 151 -116 36 -19 99 -44 140 -55 41 -12 95 -21 119 -21 25 0 95 16 156 36
60 20 119 41 130 47 11 6 67 53 125 106 57 53 171 161 253 241 82 80 165 168
185 195 20 28 68 84 106 125 39 41 120 136 179 210 60 74 135 174 168 222 33
48 69 94 82 103 12 8 34 15 49 15 16 0 37 -9 47 -19 11 -11 23 -40 26 -65 4
-25 2 -74 -4 -109 -6 -35 -11 -85 -11 -110 0 -36 11 -68 48 -139 26 -51 58
-121 71 -155 13 -35 35 -74 49 -89 25 -24 32 -26 97 -22 69 3 73 5 190 82 110
72 147 106 455 416 184 185 371 379 415 430 44 52 100 122 125 155 25 34 73
93 107 131 34 38 86 103 115 144 30 41 90 118 134 170 43 52 98 124 120 160
23 36 50 83 62 105 11 22 51 78 88 125 38 47 133 149 211 227 79 79 168 161
198 184 35 26 69 43 94 46 28 4 48 1 66 -11 18 -12 25 -25 25 -49 0 -18 -6
-57 -14 -87 -8 -30 -19 -94 -25 -142 -7 -48 -18 -104 -25 -125 -7 -21 -19 -69
-26 -108 -7 -38 -22 -106 -32 -150 -11 -44 -23 -84 -28 -90 -4 -5 -19 -48 -33
-95 -15 -47 -39 -130 -55 -185 -16 -55 -33 -138 -37 -184 -5 -58 -17 -107 -37
-155 -16 -39 -37 -91 -45 -116 -11 -31 -17 -99 -21 -218 -3 -144 -1 -184 13
-235 10 -34 28 -87 42 -117 13 -30 33 -65 45 -77 12 -12 36 -27 54 -33 27 -9
41 -8 77 8 24 11 56 35 70 53 14 19 63 84 107 144 45 61 134 180 198 265 64
85 136 184 159 219 24 35 58 83 77 105 19 23 73 102 121 175 47 73 124 197
169 274 46 78 93 162 106 187 12 25 53 99 90 165 37 66 87 156 111 200 25 44
74 111 113 152 43 46 88 82 121 99 34 16 61 23 75 19 11 -4 27 -17 36 -29 11
-18 14 -55 13 -172 -1 -82 -6 -279 -11 -439 -9 -244 -8 -317 6 -462 13 -141
22 -189 47 -260 17 -49 39 -115 48 -148 10 -33 29 -85 43 -115 15 -30 47 -84
72 -120 24 -36 64 -96 87 -135 23 -38 56 -93 74 -120 18 -28 83 -103 146 -167
63 -64 132 -125 154 -136 22 -11 74 -31 115 -46 41 -15 84 -31 95 -36 11 -5
47 -21 80 -35 33 -14 78 -29 101 -32 29 -4 88 6 200 32 120 29 187 51 274 92
63 30 135 64 159 76 25 12 68 43 95 68 28 25 73 60 100 79 27 18 95 81 151
139 57 58 125 133 151 166 26 33 68 83 93 111 26 27 73 90 105 138 33 49 75
103 93 121 19 18 47 39 64 45 23 10 36 10 54 2 14 -7 34 -26 45 -44 10 -17 24
-54 30 -80 5 -27 20 -67 31 -90 12 -23 47 -69 78 -101 31 -33 85 -83 121 -112
36 -29 93 -76 127 -104 35 -28 107 -74 160 -102 54 -28 129 -68 168 -89 38
-21 99 -45 135 -54 36 -9 99 -26 141 -37 41 -11 105 -24 141 -29 37 -4 97 -4
135 0 46 5 102 21 166 49 53 22 101 41 107 41 5 0 34 12 65 26 33 16 85 56
130 99 40 40 90 98 110 130 21 32 46 78 57 104 11 25 28 64 38 86 10 22 28 69
40 105 21 60 22 75 14 185 -5 66 -7 181 -6 255 2 102 -1 146 -12 179 -9 24
-50 94 -92 157 -42 62 -102 138 -134 169 -32 30 -70 59 -85 65 -14 5 -39 10
-53 10 -15 0 -38 -7 -50 -16 -15 -10 -22 -25 -22 -47 0 -26 14 -47 79 -114 56
-57 90 -104 115 -155 31 -62 38 -90 47 -183 6 -60 9 -162 6 -225 -4 -101 -10
-131 -49 -250 -25 -74 -59 -162 -76 -195 -16 -33 -45 -74 -64 -91 -18 -18 -64
-51 -103 -74 -38 -24 -92 -56 -120 -71 -48 -27 -56 -29 -180 -29 -71 0 -148 5
-171 10 -22 5 -78 27 -125 48 -46 21 -100 45 -119 53 -19 7 -62 34 -95 59 -33
25 -98 70 -144 100 -73 48 -97 72 -188 188 -57 74 -115 151 -128 172 -13 21
-40 69 -60 108 -27 54 -35 81 -35 123 0 42 8 72 35 128 20 41 45 110 56 155
11 45 31 126 45 181 13 55 38 125 54 155 17 30 64 125 106 210 42 85 86 183
99 217 12 35 41 91 64 126 22 34 50 89 61 121 11 33 20 66 20 75 0 9 22 62 50
117 27 56 61 136 75 177 14 42 25 92 25 112 0 20 -7 51 -15 69 -9 18 -30 41
-48 51 -25 16 -49 20 -107 19 -41 0 -100 -8 -131 -17 -46 -14 -67 -28 -121
-84 -36 -38 -90 -97 -119 -132 -30 -35 -64 -77 -77 -95 -12 -17 -40 -65 -61
-106 -21 -41 -53 -124 -71 -185 -17 -60 -39 -132 -47 -160 -8 -27 -21 -81 -30
-120 -8 -38 -15 -122 -16 -185 -1 -63 5 -155 13 -203 l14 -88 -38 -117 c-21
-64 -47 -143 -58 -175 -10 -32 -38 -93 -60 -135 -22 -42 -51 -90 -63 -107 -13
-16 -46 -55 -75 -85 -29 -30 -69 -80 -88 -110 -20 -30 -67 -100 -106 -155 -48
-66 -126 -154 -239 -265 -93 -91 -190 -179 -215 -196 -26 -18 -92 -61 -147
-96 -55 -36 -111 -71 -124 -78 -13 -6 -82 -30 -153 -51 -92 -28 -148 -39 -193
-39 -41 0 -83 7 -117 21 -29 11 -89 39 -132 61 -44 21 -105 59 -136 83 -31 24
-72 63 -91 87 -20 23 -62 81 -94 128 -32 46 -79 127 -105 180 -26 52 -59 127
-73 165 -14 39 -32 97 -41 130 -8 33 -29 122 -47 198 l-32 138 14 352 c8 194
14 424 13 512 0 107 -6 186 -17 237 -9 43 -25 95 -36 115 -10 21 -28 46 -39
56 -11 11 -38 25 -59 33 -21 7 -58 13 -83 13 -28 1 -66 -9 -99 -25 -30 -13
-85 -49 -122 -79 -36 -29 -108 -99 -160 -155 -51 -56 -117 -132 -145 -169 -28
-38 -77 -115 -108 -172 -32 -57 -74 -133 -94 -169 -21 -36 -47 -88 -59 -117
-12 -29 -52 -100 -90 -158 -37 -58 -96 -147 -130 -198 -34 -51 -91 -135 -126
-187 -36 -52 -104 -144 -152 -204 -47 -61 -100 -136 -117 -168 -17 -32 -50
-76 -74 -98 -27 -24 -53 -40 -68 -40 -16 0 -30 8 -37 21 -6 12 -9 41 -7 64 3
23 17 80 31 126 14 46 41 143 60 214 19 72 44 171 56 220 12 50 33 119 47 155
14 36 29 74 34 85 6 11 23 74 40 140 16 66 30 138 30 160 1 22 7 67 15 100 8
33 21 85 30 115 9 30 20 94 25 141 5 57 19 112 39 163 17 43 31 93 31 112 0
19 -7 49 -17 67 -9 18 -30 49 -47 71 -17 21 -50 49 -74 63 -37 22 -52 25 -110
21 -47 -2 -84 -12 -122 -30 -30 -15 -93 -53 -140 -84 -47 -30 -116 -86 -155
-123 -38 -37 -99 -92 -134 -122 -36 -30 -108 -102 -161 -161 -59 -66 -115
-141 -145 -193 -26 -47 -64 -107 -84 -135 -20 -27 -68 -93 -108 -147 -39 -54
-95 -120 -123 -148 -29 -27 -77 -84 -108 -125 -30 -41 -81 -103 -114 -138 -32
-34 -74 -86 -93 -115 -19 -29 -164 -185 -322 -347 -159 -162 -327 -334 -374
-382 -67 -68 -94 -89 -130 -98 -36 -10 -49 -10 -68 2 -14 7 -33 27 -43 45 -15
25 -21 67 -29 210 -5 98 -14 205 -18 238 -4 33 -16 81 -26 107 l-19 46 34 87
c21 54 33 101 32 127 -1 23 -9 52 -17 64 -8 13 -32 28 -53 33 -26 7 -50 7 -77
0 -22 -6 -57 -27 -78 -47 -21 -21 -54 -61 -74 -91 -19 -29 -55 -75 -79 -102
-23 -26 -62 -77 -85 -111 -23 -35 -60 -81 -83 -104 -23 -22 -64 -72 -91 -110
-27 -38 -78 -105 -114 -149 -36 -44 -88 -107 -116 -140 -28 -33 -70 -86 -95
-118 -24 -32 -54 -66 -66 -76 -13 -10 -72 -70 -131 -133 -60 -64 -148 -161
-198 -217 -62 -69 -115 -118 -170 -155 -44 -29 -100 -63 -124 -76 -34 -17 -56
-21 -97 -18 -35 3 -82 19 -148 52 -81 41 -107 60 -167 124 -39 43 -89 107
-111 144 -22 37 -57 87 -77 110 -21 24 -45 57 -55 75 -12 23 -16 59 -16 131 0
91 -2 104 -30 156 -16 31 -43 81 -60 112 -19 35 -30 72 -30 96 0 21 11 60 24
86 13 26 40 97 59 157 19 61 40 133 46 160 5 28 12 77 16 110 3 33 15 96 26
140 15 60 23 133 29 290 5 116 16 251 25 300 9 50 21 119 25 155 5 36 7 106 4
155 -4 50 -1 124 5 166 5 41 13 156 17 255 6 157 10 191 35 273 21 67 29 115
29 168 0 69 -2 77 -29 104 -19 18 -40 29 -58 29 -16 0 -45 -11 -65 -25z m9242
-517 c0 -6 -14 -55 -31 -107 -16 -53 -40 -115 -51 -139 -12 -24 -34 -52 -50
-63 -16 -12 -36 -18 -45 -15 -13 5 -15 18 -11 74 3 44 14 84 30 117 14 28 46
71 70 98 27 28 53 47 66 47 12 0 22 -5 22 -12z m-9772 -1910 c2 -22 -5 -52
-17 -75 -10 -21 -41 -63 -67 -93 -26 -30 -65 -92 -87 -138 -21 -46 -49 -95
-61 -110 -13 -15 -45 -61 -73 -102 -27 -41 -70 -105 -94 -142 -24 -37 -66
-102 -92 -145 -26 -43 -67 -112 -90 -153 -25 -45 -53 -81 -70 -90 -26 -14 -29
-14 -43 5 -10 14 -13 31 -9 55 3 19 39 96 79 170 41 74 133 243 205 375 72
132 153 267 178 300 26 33 64 80 86 105 21 24 51 53 65 63 15 9 41 16 57 15
27 -3 30 -7 33 -40z"/>
<path d="M2325 9771 c-121 -4 -229 -11 -240 -15 -11 -5 -49 -20 -85 -33 -36
-14 -85 -34 -110 -45 -25 -12 -83 -43 -130 -71 -47 -28 -109 -68 -137 -89 -32
-23 -62 -56 -74 -81 -12 -23 -48 -80 -80 -127 -42 -60 -69 -115 -94 -187 -19
-56 -57 -149 -85 -205 -43 -90 -52 -120 -69 -233 -11 -71 -25 -183 -30 -248
-7 -80 -7 -145 0 -200 6 -45 19 -132 29 -194 10 -62 31 -145 45 -185 14 -40
30 -77 35 -83 5 -6 27 -56 49 -112 24 -63 57 -125 85 -162 25 -32 93 -100 150
-149 58 -50 130 -107 162 -127 31 -20 100 -50 153 -67 53 -16 130 -41 171 -55
41 -14 111 -34 155 -45 70 -18 102 -19 250 -15 118 4 196 12 255 26 47 11 110
27 141 35 31 9 70 23 85 31 16 8 32 15 37 15 4 0 35 12 70 27 34 15 89 42 122
58 33 17 94 51 135 76 68 40 80 44 141 44 41 0 72 -5 82 -14 12 -9 17 -29 17
-60 0 -26 -7 -72 -16 -102 -9 -30 -25 -72 -36 -94 -11 -22 -51 -80 -88 -130
-37 -49 -84 -117 -105 -150 -21 -33 -72 -96 -114 -141 -42 -44 -119 -141 -172
-215 -53 -74 -113 -166 -133 -206 -19 -39 -60 -113 -91 -163 -31 -50 -72 -124
-92 -163 -19 -40 -61 -108 -91 -152 -31 -43 -93 -138 -137 -210 -45 -71 -107
-173 -138 -225 -32 -52 -76 -124 -99 -160 -22 -36 -72 -123 -110 -195 -38 -71
-89 -157 -112 -190 -24 -33 -71 -112 -106 -175 -34 -63 -77 -135 -95 -160 -18
-25 -51 -85 -74 -133 -22 -49 -61 -116 -87 -150 -26 -34 -68 -108 -95 -165
-26 -56 -57 -115 -68 -131 -11 -15 -47 -82 -80 -147 -32 -65 -80 -162 -106
-214 -25 -52 -63 -126 -84 -165 -20 -38 -61 -137 -91 -220 -29 -82 -74 -193
-100 -245 -26 -52 -55 -129 -64 -170 -10 -41 -24 -104 -33 -140 -9 -36 -22
-76 -28 -90 -7 -14 -20 -63 -30 -110 -9 -47 -23 -110 -30 -140 -7 -30 -20 -82
-29 -115 -9 -33 -21 -110 -26 -172 -5 -61 -16 -137 -24 -170 -8 -32 -17 -116
-21 -188 -4 -92 -15 -171 -38 -270 -31 -136 -32 -147 -32 -370 0 -215 2 -235
24 -305 13 -41 32 -92 43 -113 11 -22 53 -76 95 -120 41 -45 93 -92 116 -104
22 -13 52 -23 66 -23 14 0 45 9 69 20 23 10 66 41 95 68 28 27 90 77 136 110
47 34 118 99 158 144 40 46 105 130 145 188 39 58 85 123 102 145 18 22 56 81
86 130 29 50 69 115 88 145 19 30 42 67 52 81 10 15 39 66 64 115 24 49 54
112 67 139 12 28 47 93 79 145 31 52 70 122 87 155 17 33 67 134 111 225 45
91 95 205 111 253 16 48 43 108 60 133 16 25 33 59 36 75 4 16 11 31 16 34 5
4 9 13 9 22 0 8 20 65 45 126 24 62 52 132 61 157 9 25 26 72 39 105 12 33 36
94 52 135 17 41 47 120 68 175 20 55 58 163 84 240 27 77 66 187 89 245 22 58
48 129 57 159 9 29 34 121 55 205 21 83 53 205 71 271 17 66 37 145 44 175 7
30 23 87 35 125 12 39 29 93 37 120 7 28 25 100 38 160 13 61 33 155 45 210
11 55 29 141 40 190 11 50 25 135 31 190 6 55 26 159 44 230 19 72 41 189 50
260 8 72 18 153 21 180 3 28 13 91 21 140 10 53 17 149 17 235 1 123 5 162 29
262 20 82 39 134 64 175 20 32 56 93 81 136 32 57 56 86 86 105 23 15 59 40
80 57 22 16 75 72 118 123 43 52 87 111 98 131 10 20 42 59 72 87 29 27 69 62
88 76 19 14 69 59 110 100 41 41 95 88 120 104 25 16 76 53 115 84 38 30 81
64 94 75 13 11 49 42 78 68 30 26 79 59 110 72 30 14 61 25 67 25 7 0 37 13
67 28 30 15 73 40 97 56 24 15 76 42 115 60 40 18 99 42 132 53 33 12 94 31
135 43 41 12 113 36 160 52 50 18 106 30 135 30 28 1 64 -6 80 -15 17 -8 51
-37 77 -63 27 -27 65 -72 86 -100 21 -28 45 -75 54 -105 8 -30 23 -92 32 -139
10 -47 22 -114 27 -150 5 -35 12 -213 16 -395 4 -181 7 -424 7 -540 l0 -210
-32 -84 c-17 -47 -32 -103 -32 -125 0 -23 9 -60 20 -84 11 -24 29 -55 41 -70
11 -15 30 -32 42 -39 12 -7 37 -12 56 -13 28 0 43 8 76 43 22 24 53 68 67 99
15 32 34 79 42 105 8 26 22 84 32 128 10 44 28 106 40 138 13 32 44 94 69 137
25 44 45 82 45 85 0 3 22 41 49 84 27 43 67 114 89 157 22 43 73 119 114 168
40 49 105 129 145 176 39 48 96 128 127 177 30 50 63 96 72 104 10 8 49 55 89
104 39 50 143 158 231 241 87 83 197 186 244 228 47 43 141 115 210 161 69 45
144 88 168 94 23 7 59 9 80 5 20 -4 58 -17 83 -30 25 -12 70 -42 99 -65 30
-24 82 -71 116 -106 37 -37 74 -88 93 -126 17 -35 31 -67 31 -72 0 -4 20 -51
44 -104 24 -53 52 -125 61 -160 9 -35 25 -116 35 -180 11 -64 29 -143 40 -176
16 -46 23 -95 27 -206 3 -87 1 -186 -6 -245 -6 -54 -23 -146 -38 -204 -18 -77
-24 -120 -20 -162 3 -32 14 -73 24 -90 10 -18 36 -42 57 -52 36 -17 43 -18 79
-5 21 8 45 25 53 39 7 14 23 48 35 75 12 28 37 84 56 125 30 65 36 90 43 190
6 82 16 136 35 187 14 40 30 99 36 130 6 32 28 92 50 133 21 41 66 109 99 150
34 41 92 116 130 166 39 50 81 99 94 108 14 8 55 54 92 101 42 54 101 114 160
160 51 41 119 91 151 112 32 20 96 71 143 113 47 42 108 92 135 111 28 20 99
64 158 100 59 35 138 81 175 102 37 21 146 78 242 127 96 48 186 91 200 95 14
4 45 16 70 27 25 11 107 51 182 88 78 39 162 73 195 80 32 6 115 24 184 41 69
16 150 29 180 29 30 0 83 -5 119 -11 36 -5 83 -19 105 -29 22 -11 90 -60 150
-109 61 -49 155 -135 210 -192 76 -79 108 -121 134 -174 18 -38 43 -90 56
-115 12 -25 30 -70 38 -100 9 -30 21 -86 27 -125 6 -38 24 -115 40 -170 15
-55 33 -131 39 -170 6 -38 11 -146 12 -240 1 -93 -1 -204 -6 -245 -6 -58 -4
-89 8 -131 10 -32 32 -73 54 -98 20 -24 52 -50 70 -57 18 -8 46 -14 63 -14 17
0 44 7 60 15 15 8 50 45 77 82 28 38 72 93 100 123 27 30 67 87 87 125 21 39
61 102 89 140 28 39 67 90 88 115 21 25 88 110 150 190 62 80 139 177 173 215
33 39 103 115 155 171 53 55 115 122 139 148 23 26 61 56 85 66 30 14 60 18
108 16 49 -1 76 -8 110 -28 24 -14 66 -47 92 -74 27 -26 62 -66 78 -90 16 -24
49 -82 73 -131 24 -48 46 -101 50 -117 4 -15 11 -74 16 -130 6 -75 17 -123 40
-181 18 -44 41 -102 53 -128 12 -27 64 -105 117 -174 52 -69 115 -139 139
-157 38 -27 51 -31 110 -31 48 1 77 7 109 23 24 13 61 39 83 59 22 20 49 54
60 74 10 21 19 52 19 68 0 16 -7 37 -16 45 -8 9 -27 19 -40 22 -17 4 -50 -3
-93 -20 -36 -14 -85 -26 -107 -26 -31 0 -46 6 -68 29 -15 16 -48 78 -73 137
-25 60 -54 138 -64 174 -10 36 -18 81 -19 100 0 19 -7 62 -14 95 -7 33 -34
112 -58 175 -25 63 -56 138 -71 165 -16 33 -66 90 -140 161 -106 103 -121 114
-198 144 -56 22 -108 34 -156 38 -50 3 -85 0 -119 -12 -27 -9 -80 -35 -119
-58 -51 -30 -122 -94 -261 -232 -105 -105 -205 -212 -223 -238 -17 -26 -71
-97 -119 -157 -49 -60 -139 -182 -202 -271 -63 -90 -125 -175 -137 -190 -13
-15 -39 -35 -58 -45 -33 -15 -39 -15 -59 -1 -13 8 -26 29 -30 47 -3 17 0 73 6
123 7 50 12 125 12 167 -1 60 -10 101 -42 195 -22 65 -48 153 -58 194 -9 41
-31 107 -47 145 -16 39 -35 86 -42 105 -8 19 -23 66 -35 103 -16 54 -37 88
-102 170 -45 56 -139 160 -211 231 -111 111 -143 137 -234 188 -58 32 -133 67
-166 78 -33 11 -89 25 -125 31 -36 6 -90 9 -121 6 -31 -3 -90 -17 -131 -30
-41 -14 -104 -30 -140 -37 -36 -6 -95 -20 -132 -31 -37 -11 -105 -38 -150 -61
-46 -22 -126 -56 -178 -75 -52 -19 -162 -67 -245 -107 -82 -40 -181 -88 -219
-106 -38 -18 -88 -45 -110 -60 -23 -15 -66 -42 -96 -61 -30 -19 -111 -72 -180
-118 -69 -46 -174 -122 -235 -169 -60 -47 -127 -100 -148 -119 -21 -19 -63
-50 -94 -69 -30 -20 -85 -66 -121 -103 -37 -37 -88 -82 -114 -101 -26 -18 -58
-49 -71 -69 -13 -20 -38 -59 -56 -87 -17 -28 -59 -77 -92 -109 -33 -32 -84
-88 -114 -125 -29 -37 -68 -79 -85 -93 -17 -15 -37 -27 -43 -27 -7 0 -20 7
-30 14 -13 11 -21 42 -33 132 -8 66 -24 151 -35 189 -11 39 -30 93 -41 120
-11 28 -53 115 -93 195 -71 140 -77 149 -192 266 -108 110 -126 124 -218 170
-99 48 -101 49 -195 49 -90 0 -101 -3 -199 -45 -57 -24 -137 -67 -177 -96 -40
-29 -101 -76 -136 -105 -35 -29 -103 -89 -153 -133 -49 -45 -166 -157 -259
-251 -93 -93 -206 -216 -250 -273 -45 -57 -112 -147 -151 -201 -38 -55 -102
-141 -141 -192 -39 -52 -92 -123 -118 -159 -25 -36 -68 -111 -96 -166 -29 -61
-62 -112 -81 -128 -17 -15 -41 -26 -52 -24 -11 2 -29 15 -40 29 -16 23 -19 43
-20 140 0 79 6 135 18 184 12 43 18 103 18 155 0 55 -8 113 -22 165 -13 44
-29 105 -37 135 -7 30 -14 75 -14 100 0 25 -7 72 -15 103 -8 32 -31 82 -50
112 -19 30 -59 88 -90 129 -30 41 -80 95 -110 120 -31 25 -86 60 -122 78 -47
23 -84 33 -127 36 -34 2 -121 -6 -194 -16 -129 -19 -136 -21 -201 -66 -37 -26
-83 -49 -102 -52 -19 -2 -41 0 -49 5 -11 8 -12 16 -4 38 5 17 31 43 63 64 30
20 60 47 67 60 7 13 13 39 14 57 0 22 -8 41 -25 57 -16 17 -35 25 -60 25 -20
0 -52 -7 -72 -15 -20 -8 -69 -47 -110 -85 -40 -39 -129 -112 -196 -162 -67
-50 -177 -141 -244 -202 -68 -61 -163 -147 -213 -191 -50 -44 -125 -101 -167
-128 -43 -26 -116 -85 -163 -130 -50 -49 -104 -91 -130 -102 -25 -11 -74 -45
-110 -77 -36 -32 -95 -74 -131 -93 -37 -19 -80 -35 -96 -35 -17 0 -41 9 -54
21 -21 18 -23 27 -20 87 2 37 3 87 3 112 0 25 -4 128 -9 230 -9 171 -13 193
-45 290 -20 58 -41 130 -48 160 -7 30 -21 84 -32 120 -11 36 -26 79 -33 95 -7
17 -16 41 -20 55 -4 14 -38 79 -74 144 -50 90 -92 149 -173 240 -59 67 -129
136 -155 154 -26 19 -79 54 -118 78 -38 25 -108 63 -154 86 -47 22 -110 49
-140 60 -31 10 -87 20 -126 22 -38 2 -169 0 -290 -3z m215 -220 c118 -6 189
-13 217 -24 23 -9 95 -43 160 -76 85 -44 141 -81 200 -133 45 -40 108 -107
139 -148 30 -41 66 -93 79 -115 12 -22 37 -103 55 -180 18 -77 43 -178 57
-225 14 -47 34 -116 45 -155 15 -56 22 -141 33 -433 13 -321 13 -367 0 -392
-8 -16 -32 -44 -54 -62 -22 -18 -70 -49 -108 -70 -37 -20 -153 -79 -258 -131
-104 -52 -206 -98 -225 -102 -19 -4 -91 -20 -159 -37 l-124 -30 -226 6 -226 6
-172 86 c-164 81 -175 89 -257 172 -48 48 -106 117 -130 152 -24 36 -58 92
-74 125 -17 33 -46 106 -66 162 -30 88 -37 124 -48 265 -7 90 -13 201 -13 248
0 71 6 104 39 205 21 66 47 145 58 175 11 30 26 69 33 85 8 17 23 55 34 85 12
30 41 90 65 133 25 43 70 109 101 147 31 38 73 84 93 102 23 21 94 58 185 96
81 35 166 67 190 72 23 5 74 7 112 4 39 -3 149 -9 245 -13z m1416 -1915 c3 -8
-2 -30 -11 -49 -8 -18 -45 -70 -81 -115 -35 -44 -73 -84 -84 -87 -11 -4 -34
-4 -50 0 -16 3 -32 15 -35 25 -3 10 1 34 8 52 8 19 30 52 48 73 19 21 56 56
82 77 35 27 58 38 83 38 21 0 37 -6 40 -14z m-516 -1052 c11 -12 11 -27 2 -72
-7 -31 -19 -88 -27 -127 -8 -38 -19 -117 -24 -175 -5 -58 -21 -143 -34 -190
-13 -47 -28 -116 -31 -155 -4 -38 -18 -135 -32 -215 -14 -80 -34 -190 -44
-245 -10 -55 -22 -129 -26 -164 -3 -35 -11 -78 -16 -95 -5 -17 -18 -89 -28
-159 -15 -100 -28 -146 -58 -215 -22 -48 -44 -103 -50 -122 -6 -19 -16 -66
-23 -105 -6 -38 -27 -124 -45 -190 -18 -66 -49 -176 -68 -245 -19 -69 -49
-168 -66 -220 -18 -52 -40 -114 -51 -136 -10 -23 -30 -81 -44 -130 -14 -49
-30 -102 -37 -119 -6 -16 -24 -58 -39 -91 -16 -34 -38 -99 -49 -145 -13 -49
-50 -143 -90 -224 -38 -77 -72 -156 -75 -175 -4 -19 -13 -55 -21 -80 -8 -25
-26 -74 -40 -110 -14 -36 -37 -90 -50 -120 -14 -30 -36 -71 -49 -90 -13 -19
-40 -73 -59 -120 -20 -47 -56 -125 -81 -175 -25 -49 -45 -96 -45 -105 0 -9
-13 -41 -29 -71 -16 -31 -44 -76 -62 -100 -19 -24 -47 -78 -63 -119 -16 -41
-54 -118 -84 -170 -30 -52 -91 -156 -135 -230 -44 -74 -115 -187 -157 -250
-43 -63 -123 -175 -178 -248 -55 -74 -129 -158 -164 -188 -34 -31 -83 -69
-107 -85 -27 -18 -58 -29 -78 -29 -19 0 -43 4 -53 10 -10 5 -27 25 -39 43 -11
18 -32 77 -46 132 -14 55 -32 150 -40 210 -8 61 -15 142 -15 181 0 47 10 111
29 185 19 75 32 154 36 229 4 63 13 147 21 185 8 39 19 131 24 205 8 120 13
144 43 215 19 45 43 121 52 170 10 50 32 126 50 170 17 44 38 105 45 135 7 30
28 91 45 135 18 44 40 107 48 140 9 33 23 91 32 128 8 38 34 105 56 149 22 44
65 117 95 163 30 45 54 85 54 89 0 4 38 87 85 184 47 97 92 191 101 207 10 17
31 55 49 86 18 31 40 78 51 104 10 27 46 87 79 134 34 47 74 118 89 156 15 39
61 120 101 180 40 61 90 137 110 170 21 33 55 86 75 117 21 31 52 92 70 135
18 43 46 105 63 138 16 33 56 98 87 145 32 47 78 126 104 176 28 56 71 118
111 163 36 39 77 95 91 124 15 29 45 81 69 117 23 36 64 106 90 155 27 50 63
111 81 137 18 25 42 64 53 87 12 22 21 46 21 53 0 7 13 40 29 73 15 33 38 69
51 80 13 11 57 61 98 110 42 50 82 95 91 102 9 7 26 13 37 13 12 0 27 -7 34
-16z"/>
</g>
</svg>
