<?xml version="1.0" encoding="UTF-8" standalone="no"?>
<!-- Created with Inkscape (http://www.inkscape.org/) -->

<svg
   xmlns:dc="http://purl.org/dc/elements/1.1/"
   xmlns:cc="http://creativecommons.org/ns#"
   xmlns:rdf="http://www.w3.org/1999/02/22-rdf-syntax-ns#"
   xmlns:svg="http://www.w3.org/2000/svg"
   xmlns="http://www.w3.org/2000/svg"
   xmlns:sodipodi="http://sodipodi.sourceforge.net/DTD/sodipodi-0.dtd"
   xmlns:inkscape="http://www.inkscape.org/namespaces/inkscape"
   width="182"
   height="31"
   id="svg2"
   version="1.1"
   inkscape:version="0.48.0 r9654"
   sodipodi:docname="John Edward Gray Signature.svg">
  <defs
     id="defs4" />
  <sodipodi:namedview
     id="base"
     pagecolor="#ffffff"
     bordercolor="#666666"
     borderopacity="1.0"
     inkscape:pageopacity="0.0"
     inkscape:pageshadow="2"
     inkscape:zoom="5.0896147"
     inkscape:cx="115.36094"
     inkscape:cy="33.115436"
     inkscape:document-units="px"
     inkscape:current-layer="layer1"
     showgrid="false"
     fit-margin-top="0"
     fit-margin-left="0"
     fit-margin-right="0"
     fit-margin-bottom="0"
     inkscape:window-width="1440"
     inkscape:window-height="820"
     inkscape:window-x="-8"
     inkscape:window-y="-8"
     inkscape:window-maximized="1" />
  <metadata
     id="metadata7">
    <rdf:RDF>
      <cc:Work
         rdf:about="">
        <dc:format>image/svg+xml</dc:format>
        <dc:type
           rdf:resource="http://purl.org/dc/dcmitype/StillImage" />
        <dc:title></dc:title>
      </cc:Work>
    </rdf:RDF>
  </metadata>
  <g
     inkscape:label="Layer 1"
     inkscape:groupmode="layer"
     id="layer1"
     transform="translate(-937.22742,-788.30743)">
    <path
       style="font-size:medium;font-style:normal;font-variant:normal;font-weight:normal;font-stretch:normal;text-indent:0;text-align:start;text-decoration:none;line-height:normal;letter-spacing:normal;word-spacing:normal;text-transform:none;direction:ltr;block-progression:tb;writing-mode:lr-tb;text-anchor:start;baseline-shift:baseline;color:#000000;fill:#000000;fill-opacity:1;stroke:none;stroke-width:1.50000000000000000;marker:none;visibility:visible;display:inline;overflow:visible;enable-background:accumulate;font-family:Sans;-inkscape-font-specification:Sans"
       d="M 12.46875 1.90625 C 10.11424 2.9515 9.48879 5.7608 8.375 7.84375 C 6.93343 10.31174 10.70374 9.31268 10.15625 7.34375 C 10.5484 6.43228 12.16807 3.76092 11.0625 6.21875 C 9.2648 11.38092 6.3872 16.22999 2.4375 20.03125 C 0.5229 21.49864 3.06275 23.40453 3.96875 21.3125 C 5.61891 18.49329 8.32362 16.5505 10.90625 14.65625 C 12.48353 13.57839 12.8725 14.9553 11.34375 15.625 C 9.75122 17.02948 7.79282 19.07164 8.4375 21.375 C 10.60971 22.50214 12.26589 18.48543 13.375 16.9375 C 13.87086 14.27044 16.96722 14.94255 18.9375 14.71875 C 20.63257 14.2704 22.95611 11.68625 23.6875 11.65625 C 21.95627 14.74604 19.9237 17.76666 18.84375 21.15625 C 19.61721 23.67195 21.50684 20.10516 22.40625 19.15625 C 23.08922 17.74689 26.75999 15.18869 25.375 18.5 C 23.72974 20.74386 26.97345 22.33929 27.90625 19.90625 C 29.18379 17.77083 31.99785 17.34545 33.78125 15.71875 C 35.45241 16.10168 32.70247 19.06831 32.9375 20.40625 C 33.61241 23.27137 35.47631 18.46858 36.9375 17.96875 C 38.02064 17.03255 40.39617 15.50598 39.46875 18.125 C 38.85767 20.05908 40.19325 23.0145 42.5 21.5 C 44.05536 21.23432 44.93804 19.12884 42.96875 19.28125 C 42.10021 20.68417 40.08993 20.49873 41 18.5625 C 41.95612 15.92151 39.32652 13.59803 37.1875 15.9375 C 36.40039 16.46942 35.11428 17.79956 35.9375 16 C 35.76209 12.49103 32.0877 14.82768 30.59375 16.03125 C 29.48459 16.31613 27.31595 18.27847 27.21875 17.96875 C 28.42099 15.21557 24.42986 14.13172 23.03125 16.28125 C 22.22497 16.53634 24.25948 13.84624 24.625 12.9375 C 26.10778 10.54024 27.38035 7.96158 29.40625 5.96875 C 31.49582 4.44521 29.38956 1.18901 28.25 4.375 C 26.73344 7.13298 24.00495 8.96611 21.75 11.09375 C 19.78941 13.65635 16.75539 12.90383 14.1875 13.9375 C 13.60157 12.44826 10.70653 12.33607 9.40625 13.9375 C 10.47404 11.54155 11.75228 9.04222 12.59375 6.46875 C 12.95701 5.19577 14.77921 2.33737 12.46875 1.90625 z M 145.1875 2.09375 C 145.0649 2.0900531 144.93335 2.10631 144.8125 2.125 C 141.7365 2.96401 139.5109 5.63658 138.0625 8.34375 C 136.8573 10.29746 138.02875 12.47757 140.15625 12.90625 C 141.70405 14.56751 138.4781 16.32133 137.5 17.5625 C 135.4526 19.29223 133.01965 21.12741 132.46875 23.90625 C 132.19195 26.03127 134.5211 25.47428 134.4375 23.6875 C 135.8695 21.23938 138.2724 19.56849 140 17.34375 C 142.2141 15.12701 144.5185 12.5905 147.6875 11.84375 C 150.4463 11.92085 149.03405 15.36152 148.96875 16.96875 C 151.05275 17.97347 151.9666 14.64442 153.75 14.125 C 156.3576 12.85326 158.9865 11.46379 161.8125 10.75 C 162.1437 11.27022 159.84325 13.93348 161.71875 15 C 163.32405 15.78007 164.6501 12.45322 165.875 14.625 C 168.128 15.13346 169.982 13.13015 172 12.40625 C 172.8127 12.09393 174.82865 10.65504 174.84375 11.0625 C 173.93555 12.44028 172.01195 15.70071 174.28125 16.5 C 176.49595 16.27831 173.4202 18.63933 173.75 19.875 C 173.3221 21.46942 173.05675 23.17745 172.09375 24.5625 C 168.66745 26.34003 164.68325 26.13972 160.96875 26.78125 C 159.70895 27.07859 156.686 27.02708 156.75 28.5625 C 158.2479 29.29695 159.8621 28.21974 161.4375 28.21875 C 165.1659 27.69129 169.05695 27.67312 172.53125 26.0625 C 174.57605 24.63701 174.5659 21.8763 175.3125 19.71875 C 176.117 17.43922 177.7327 15.56276 179.3125 13.78125 C 178.9179 11.28737 176.6817 14.42378 175.5625 14.78125 C 173.751 14.78525 176.1004 12.14348 176.5 11.25 C 177.423 9.93787 178.5869 8.7764 180 8 C 180.7499 6.16488 177.9516 6.76197 177.4375 7.84375 C 175.0205 9.15922 172.5068 10.30557 170.125 11.6875 C 169.1121 12.03827 166.8095 13.77647 166.4375 12.84375 C 167.0696 11.14407 168.71635 9.94493 169.15625 8.1875 C 169.21025 6.16585 167.5416 7.30664 166.875 8.1875 C 164.6802 8.40372 162.47675 8.68746 160.40625 9.5625 C 157.37685 10.59989 154.46595 11.94994 151.71875 13.59375 C 150.05935 15.56402 151.4718 11.78204 150.125 11.28125 C 148.3113 9.39956 145.4328 10.60237 143.75 12.03125 C 142.955 12.66717 142.0501 13.45296 141.75 12.0625 C 140.0274 11.43908 138.0606 10.16925 139.8125 8.3125 C 140.9929 6.34878 142.6514 4.41946 144.875 3.6875 C 146.9362 3.96354 143.7775 8.33687 146.625 7.46875 C 147.2126 5.92296 147.62075 3.72165 146.21875 2.46875 C 145.92617 2.240315 145.5553 2.1048406 145.1875 2.09375 z M 123.53125 3.6875 C 121.73775 3.6714 120.99595 5.6881 120.15625 6.9375 C 118.74255 8.81706 118.83285 11.48522 117.15625 13.125 C 115.64495 14.72293 114.0117 16.42409 111.875 17.09375 C 110.6803 15.81715 113.60465 14.51526 114.34375 13.4375 C 115.95655 11.6792 112.7634 11.11402 111.75 12.28125 C 110.4459 11.11305 108.8277 10.85936 107.5625 12.25 C 106.3969 12.81475 104.7212 13.91933 104.125 14.5 C 104.9414 12.20215 101.70475 12.84783 100.96875 14.125 C 99.23845 15.48615 97.46545 16.8301 95.40625 17.65625 C 93.88345 16.81079 95.8274 14.42664 96.1875 13.1875 C 95.630196 11.620288 94.347327 12.860464 94.09375 14 C 93.339216 13.413183 92.171076 13.053603 91.4375 12.5625 C 87.6618 12.36806 85.47305 16.07598 82.84375 18.15625 C 80.46675 19.64325 82.64005 15.74563 82.53125 14.71875 C 80.64585 13.7148 80.30835 17.19518 78.59375 17.8125 C 77.60285 19.007 75.238 19.58428 76.625 17.40625 C 76.8952 15.84508 80.6489 12.60843 77.4375 12.59375 C 76.552 14.19266 75.0318 15.42628 73.625 16.65625 C 72.58 17.17402 70.21695 20.15516 69.84375 18.625 C 70.12955 15.95923 71.59325 13.585 72.96875 11.34375 C 74.24575 9.48718 75.0441 7.35456 76.375 5.53125 C 76.7324 4.90321 76.50045 3.90548 75.59375 4.09375 C 73.79355 5.0516 73.3426 7.26776 72.25 8.84375 C 71.2804 11.34566 69.7859 13.56981 67.9375 15.5 C 66.3287 17.24291 64.7304 19.07029 62.8125 20.46875 C 60.65761 20.32543 63.01465 17.02989 64.34375 16.65625 C 65.76145 16.24585 68.481 13.21672 65.375 13.6875 C 63.0701 15.39782 60.7697 17.17136 58.4375 18.875 C 57.62098 19.89426 53.17265 22.11872 54.375 19.34375 C 55.58877 17.64834 57.33795 16.48661 58.75 15 C 59.66311 13.14158 57.25113 10.92315 58.8125 9.03125 C 59.78517 7.42863 63.31285 5.12092 63.21875 8.5625 C 64.16805 10.48561 65.58255 7.91453 64.34375 6.8125 C 63.86445 4.2188 60.75139 4.95142 59.40625 6.34375 C 56.83881 7.92434 56.33648 11.21777 57.375 13.84375 C 56.27081 15.9921 53.45102 17.14455 52.59375 19.625 C 51.54819 22.12645 55.29654 22.99649 56.84375 21.65625 C 58.03488 21.26516 60.1983 19.12154 60.5 19.46875 C 59.78807 22.31827 63.81825 22.89373 65.03125 20.65625 C 66.28965 19.73846 67.83865 17.34954 68.65625 17.09375 C 67.70775 18.93474 68.1625 22.47275 70.875 20.5625 C 72.2555 20.01075 74.1408 17.76064 74.9375 17.75 C 73.3552 20.15745 77.06485 21.67127 78.53125 19.78125 C 79.37145 18.9686 80.5131 17.8377 80.5625 19.71875 C 82.7957 21.57552 84.83785 18.20894 86.34375 16.90625 C 87.36465 15.94879 90.11255 13.03762 91.09375 14.625 C 90.17865 16.32551 87.6232 18.19351 89.1875 20.25 C 90.906555 21.068055 92.458516 19.765062 93.5 18.21875 C 93.773542 18.889391 94.359202 19.332085 95.375 19.21875 C 98.0426 18.4769 100.1878 16.54911 102.375 14.9375 C 101.8137 16.25447 101.0556 18.05188 101.375 19.3125 C 103.1491 19.65857 103.78975 17.0546 104.96875 16.03125 C 105.84645 14.37209 107.9193 14.19101 109.125 12.90625 C 109.8869 12.65302 111.4151 14.00405 111.5625 13.96875 C 110.3977 14.9217 108.95525 17.02693 110.59375 18.21875 C 112.26625 19.31705 114.0605 17.86254 115.375 16.875 C 116.4873 16.3641 117.6534 13.75497 117.9375 16 C 118.9426 17.73145 120.8779 16.44961 122.375 16.5625 C 123.6156 16.66902 127.27775 15.63976 125.03125 14.3125 C 123.47225 15.02221 121.72235 15.0406 120.03125 15.28125 C 118.15965 15.24495 119.50305 12.28952 120.53125 11.5625 C 121.78035 9.57896 123.06365 7.57453 124.03125 5.4375 C 124.24585 4.80864 124.32445 3.93649 123.53125 3.6875 z M 166.09375 9.84375 C 165.59725 11.29037 163.5744 13.08221 162.625 13.15625 C 162.9473 11.54588 164.43235 10.02161 166.09375 9.84375 z M 92.90625 14.28125 C 93.82555 15.8815 91.79375 19.01197 90.28125 18.65625 C 91.00825 17.10603 92.31805 15.90518 92.90625 14.28125 z "
       transform="translate(937.22742,788.30743)"
       id="path3389" />
  </g>
</svg>
