<?xml version="1.0" encoding="UTF-8"?>
<svg version="1.1" xmlns="http://www.w3.org/2000/svg" width="387" height="98" >
<path d="M46.105,40.905c-0.967,1.075-2.018,2.055-3.183,2.916c-0.667,0.494-0.915-3.296-0.921-3.427 c-0.243-5.82,1.238-11.776,3.013-17.268c2.186-6.76,5.924-12.999,10.33-18.536c0.705-0.887,1.484-1.703,2.283-2.503 c2.083-2.088,0.166-0.592,0.218-0.214c0.337,2.426-2.105,6.046-3.126,8.045c-7.75,15.165-15.144,30.586-24.334,44.954 c-1.949,3.048-4.021,6.039-6.416,8.756c-0.823,0.933-1.722,1.812-2.739,2.53c-0.998,0.706-2.96-2.041-3.549-2.825 c-2.256-3.002-3.725-6.627-5.398-9.967c-0.896-1.788-2.425-5.627-4.693-6.186C1.499,45.679-0.516,54.73,0.108,58.98 c1.319,8.977,12.685,9.951,19.612,8.451c7.659-1.66,15.01-5.121,21.945-8.673c6.588-3.375,13.376-7.209,18.737-12.381 c-0.876,0.065-1.753,0.129-2.63,0.194c-3.559,3.891-6.995,7.906-10.247,12.056c-0.875,1.117-7.623,8.96-4.333,9.831 c3.912,1.037,8.393-3.896,10.525-6.333c6.289-7.19,9.545-16.658,10.485-26.04c0.056-0.558-2.63,0.084-2.879,0.637 c-1.965,4.356-3.813,11.312,0.86,14.535c4.13,2.85,10.273-0.941,13.708-3.144c7.724-4.953,14.38-11.827,20.319-18.748 c4.866-5.67,10.521-12.539,12.184-20.005c0.69-3.099-2.589-2.081-4.198-0.925c-4.393,3.156-7.689,8.417-10.865,12.695 C82.623,35.564,72.153,51.183,64.989,67.723c-0.232,0.536,2.518,0.227,2.861-0.498c1.364-2.878,2.894-5.683,4.576-8.386 c0.708-1.139,1.492-2.225,2.35-3.255c1.165-1.398,0.463-1.286,1.813,0.627c0.864,1.225,2.061,2.762,3.466,3.43 c0.78,0.37,3.095-0.825,2.728-1c-3.635-1.726-4.522-7.953-9.233-4.192c-3.98,3.177-6.426,8.768-8.561,13.274 c0.954-0.166,1.908-0.332,2.861-0.498c5.488-12.669,13.133-24.497,20.823-35.917c3.756-5.578,7.661-11.072,11.858-16.327 c1.302-1.63,2.654-3.221,4.09-4.735c0.542-0.572,1.115-1.112,1.716-1.621c0.672-0.569-0.779-0.522-0.713,0.417 c0.327,4.666-4.572,10.677-7.063,14.186c-4.587,6.463-10.101,12.324-15.933,17.672c-3.734,3.424-12.086,12.029-17.719,9.36 c-4.872-2.309-2.364-10.404-0.726-14.034c-0.96,0.212-1.92,0.425-2.879,0.637c-0.799,7.969-3.33,15.429-7.713,22.137 c-1.589,2.433-3.521,4.635-5.694,6.558c-1.249,1.105-3.496,2.619-2.392-0.121c2.853-7.08,9.796-13.484,14.896-19.059 c0.651-0.712-2.16-0.259-2.63,0.194c-7.786,7.513-18.51,12.625-28.41,16.692c-5.402,2.219-11.23,4.359-17.141,3.353 c-6.364-1.083-10.22-6.686-9.148-12.913c0.208-1.209,2.071-5.398,2.368-5.255c1.264,0.612,2.046,2.246,2.718,3.39 c2.061,3.503,3.56,7.305,5.648,10.798c2.186,3.655,5.136,6.465,9.274,3.877c4.913-3.071,8.252-9.093,11.251-13.85 c5.01-7.944,9.425-16.27,13.761-24.594c3.59-6.893,7.102-13.833,10.559-20.793c0.401-0.808,3.598-6.63,1.352-7.192 c-1.838-0.46-3.773,1.091-5.008,2.199c-9.885,8.868-15.236,24.101-15.879,37.069c-0.099,2-0.525,6.42,2.638,5.911 c2.874-0.462,5.085-2.447,6.979-4.552C49.359,40.016,46.579,40.378,46.105,40.905L46.105,40.905 M80.698,57.407c1.087-0.672,2.21-1.278,3.347-1.861c1.771-0.908,3.333-1.937,2.593,0.713 c-0.911,3.265-2.677,6.436-4.259,9.421c-0.737,1.391,1.983,1.227,2.574,0.505c4.176-5.089,9.209-10.39,15.273-13.132 c5.404-2.443,1.689,2.229,0.214,3.914c-1.644,1.879-3.448,3.681-4.718,5.847c-2.83,4.827,6.012,2.761,7.712,2.085 c5.792-2.301,10.847-7.831,14.519-12.714c-0.858-0.168-1.716-0.337-2.574-0.505c-1.62,2.537-8.395,12.847-4.17,15.414 c3.92,2.382,10.345-1.347,13.775-3.139c19.336-10.101,33.601-28.938,40.479-49.351c0.508-1.509-1.931-1.235-2.574-0.506 c-8.477,9.609-16.512,20.358-21.933,31.999c-2.551,5.477-4.863,12.202-1.718,17.865c3.525,6.347,11.981,5.562,17.701,3.411 c7.175-2.698,13.408-9.257,14.594-16.932c0.712-4.606-1.195-9.021-6.337-7.862c-9.072,2.046-20.329,18.728-15.738,27.7 c0.702,1.371,1.631,2.387,2.836,3.329c0.938,0.733,3.522-0.606,2.253-1.6c-8.896-6.958,2.309-21.874,8.717-26.381 c6.264-4.406,5.787,5.017,4.4,8.762c-2.625,7.09-10.888,12.788-18.426,12.614c-6.815-0.156-9.265-6.548-8.329-12.308 c1.015-6.245,4.517-12.171,7.756-17.495c4.808-7.9,10.501-15.413,16.621-22.35c-0.858-0.168-1.716-0.337-2.574-0.506 c-6.186,18.358-17.916,34.435-34.128,45.165c-3.963,2.623-8.886,5.665-13.721,6.272c-4.882,0.613,2.114-12.04,3.266-13.845 c0.806-1.262-1.977-1.3-2.574-0.505c-1.427,1.896-3.029,3.659-4.678,5.363c-1.548,1.602-3.239,3.042-5.019,4.377 c-0.459,0.345-7.601,4.396-7.684,2.741c-0.09-1.807,3.092-4.43,4.181-5.65c1.329-1.492,3.308-3.313,3.842-5.321 c1.264-4.753-8.039-1.164-9.38-0.374c-5.49,3.23-10.238,7.958-14.263,12.864c0.858,0.168,1.716,0.337,2.574,0.505 c1.175-2.217,6.437-10.265,4.623-12.748c-2.172-2.974-8.874,1.741-10.942,3.021C77.138,57.242,79.577,58.1,80.698,57.407 L80.698,57.407 M203.536,43.086c-1.74-4.876-6.224-7.186-11.179-5.837c-7.784,2.12-14.63,11.321-15.433,19.198 c-0.508,4.987,2.158,9.824,7.616,9.435c9.811-0.699,16.542-14.651,20.259-21.932c0.707-1.385-1.997-1.36-2.583-0.536 c-2.728,3.842-13.124,17.67-6.804,21.661c4.076,2.575,10.212-1.664,13.268-4.01c5.023-3.856,10.138-9.719,11.538-16.047 c0.323-1.465-2.393-0.766-2.844-0.019c-1.679,2.78-11.067,17.419-6.261,19.976c3.334,1.773,8.241-0.479,11.115-2.218 c6.823-4.131,11.869-10.355,15.903-17.142c0.791-1.33-1.975-1.323-2.582-0.536c-2.179,2.822-4.181,5.792-6.021,8.843 c-1.769,2.931-5.124,8.074-3.178,11.591c2.211,3.993,10.808-0.313,13.171-1.665c6.512-3.725,12.08-9.977,14.943-16.899 c0.65-1.572-2.185-1.259-2.758-0.284c-2.209,3.756-11.647,19.913-2.868,21.31c12.449,1.98,22.991-11.411,24.712-22.291 c0.207-1.314-2.194-0.952-2.669-0.271c-3.569,5.131-7.174,10.547-9.429,16.4c-2.065,5.363,1.508,6.72,5.821,4.296 c5.988-3.366,11.167-8.117,16.843-11.965c0.981-0.665,4.952-3.804,4.826-1.71c-0.281,4.686-4.31,10.024-6.569,13.897 c-0.827,1.418,2.127,1.223,2.758,0.283c2.594-3.861,5.147-7.75,7.663-11.663c1.342-2.089,6.751-8.225,6.047-10.971 c-0.184-0.718-1.159-0.66-1.702-0.557c-2.129,0.402-3.039,4.472-3.521,6.096c-1.112,3.76-2.025,8.378,0.618,11.71 c2.966,3.738,9.951,2.19,13.647,0.865c3.587-1.286,7.018-3.566,9.739-6.228c-0.803-0.263-1.605-0.524-2.408-0.787 c-2.061,2.748-4.769,6.274-4.52,9.873c0.227,3.283,4.517,0.837,5.535-0.215c3.348-3.454,5.457-8.726,7.141-13.142 c0.537-1.41,1.752-5.596-1.466-4.112c-2.775,1.279-4.538,5.818-5.357,8.468c-1.278,4.138-1.209,8.224,3.171,10.157 c8.238,3.637,23.473-4.906,24.498-13.759c0.164-1.417-2.13-0.814-2.668-0.271c-3.037,3.068-12.265,13.831-3.199,15.259 c10.845,1.708,22.462-5.975,25.534-16.321c0.405-1.364-2.21-0.757-2.669-0.271c-3.529,3.738-11.267,16.688-1.359,17.744 c6.795,0.725,18.729-4.281,17.013-12.739c-0.262-1.285-3.165-0.539-2.898,0.777c1.294,6.37-9.125,12.104-14.456,9.473 c-5.286-2.608,1.81-12.032,4.109-14.468c-0.89-0.09-1.779-0.181-2.669-0.271c-2.558,8.614-11.726,14.954-20.751,14.182 c-7.155-0.612,1.572-10.375,3.752-12.578c-0.889-0.09-1.778-0.181-2.668-0.271c-0.872,7.533-11.638,12.582-18.401,11.994 c-7.833-0.682-2.854-11.422-0.25-14.891c0.747-0.995-1.208-1.281-1.501,0.004c-0.246,1.084-0.718,2.138-1.132,3.164 c-1.106,2.743-2.468,5.391-3.96,7.94c-0.651,1.112-1.388,2.159-2.22,3.142c-1.278,1.512,0.054-1.597,0.296-2.231 c0.795-2.087,2.17-4.073,3.504-5.852c1.146-1.53-1.585-1.592-2.408-0.787c-3.902,3.816-16.162,10.869-19.325,3.204 c-1.031-2.499-0.241-5.696,0.415-8.19c0.308-1.168,0.746-2.296,1.208-3.409c0.532-1.281,1.429-1.615,0.133-1.37 c-0.567-0.186-1.135-0.372-1.702-0.557c0.212,0.828-1.945,3.559-2.358,4.247c-1.498,2.493-3.078,4.938-4.655,7.382 c-2.154,3.335-4.343,6.649-6.557,9.946c0.919,0.095,1.839,0.188,2.758,0.283c0.803-1.376,10.257-15.59,5.504-16.924 c-4.175-1.171-9.651,4.016-12.634,6.205c-2.897,2.126-5.741,4.323-8.671,6.405c-0.999,0.71-5.853,4.686-5.668,1.926 c0.404-6.036,6.5-13.533,9.627-18.026c-0.89-0.09-1.779-0.181-2.669-0.271c-1.013,6.411-4.057,11.818-9.093,15.925 c-2.338,1.906-9.9,6.604-12.802,3.37c-3.319-3.701,3.718-14.842,5.738-18.276c-0.919-0.095-1.839-0.189-2.758-0.284 c-2.403,5.81-6.557,10.523-11.543,14.282c-2.364,1.781-12.542,7.419-11.272,0.652c1.054-5.614,5.649-11.307,9.064-15.732 c-0.86-0.179-1.721-0.357-2.582-0.536c-3.247,5.461-7.109,10.368-12.154,14.271c-1.782,1.379-10.651,6.922-10.197,1.611 c0.467-5.456,4.328-11.325,7.109-15.933c-0.948-0.006-1.896-0.012-2.844-0.019c-1.071,4.847-4.581,8.918-7.997,12.344 c-1.929,1.935-12.915,10.371-12.756,3.182c0.125-5.664,4.915-12.118,8.089-16.588c-0.861-0.179-1.723-0.357-2.583-0.536 c-3.577,7.006-8.095,16.168-15.622,19.728c-4.541,2.147-6.629-2.891-6.603-6.529c0.063-8.761,15.983-26.561,20.82-13.001 C201.09,45.13,203.974,44.315,203.536,43.086L203.536,43.086 M375.479,51.552c-9.991,6.439-16.575,17.227-24.479,25.869c-7.239,7.916-16.493,12.525-26.854,14.997 c-21.329,5.089-44.511,2.698-65.987,0.073c-20.477-2.502-40.881-4.975-61.452-6.631c-42.754-3.443-85.629-5.321-128.482-6.999 c-15.209-0.595-30.421-1.117-45.628-1.782c-4.237-0.185-8.478-0.369-12.709-0.68c-1.023-0.075-2.049-0.157-3.066-0.303 c-0.757-0.108,0.215,0.981,0.089,0.115c-0.196-1.341-3.053-0.519-3.007,0.797c0.046,1.317,1.207,2.256,2.207,2.946 c3.035,2.097,7.012,2.983,10.539,3.782c8.433,1.908,17.141,2.634,25.748,3.217c39.197,2.655,78.645-1.079,117.729-3.896 c28.414-2.049,56.862-4.33,85.354-4.929c9.939-0.209,19.969-0.254,29.862,0.855c3.457,0.389,12.368,0.849,13.631,5.211 c0.359,1.239,3.254,0.452,2.898-0.777c-1.769-6.105-13.986-6.304-18.758-6.72c-14.947-1.305-30.13-0.594-45.089,0.07 c-40.46,1.797-80.798,5.672-121.234,7.895c-19.064,1.048-38.085,1.576-57.168,0.681c-9.961-0.468-20.025-1.19-29.823-3.135 c-3.845-0.764-8.099-1.661-11.434-3.842c-0.895-0.586-1.532-1.775-1.587-1.65c0.172-0.387-4.234-0.404-2.437,0.958 c0.507,0.384,1.408,0.386,2.005,0.459c8.988,1.1,18.212,1.048,27.248,1.402c39.058,1.532,78.118,2.949,117.142,5.22 c21.681,1.262,43.353,2.768,64.974,4.815c22.619,2.144,45.083,6.079,67.781,7.25c20.245,1.045,43.725,0.82,61.189-11.012 c12.963-8.783,19.498-24.582,32.683-33.08C379.016,51.665,376.583,50.84,375.479,51.552L375.479,51.552 M379.528,73.998c-2.39,3.068,2.794,5.671,4.902,6.503c1.313,0.518,3.383-1.368,1.646-2.053 c-1.35-0.532-3.518-1.402-4.043-2.746c-0.095-0.241-0.098-0.401-0.098-0.386c-0.002-0.12,0.116-0.588,0.006-0.227 c0.031-0.101,0.076-0.196,0.126-0.289c-0.215,0.396-0.155,0.236-0.089,0.15C383.126,73.478,380.396,72.881,379.528,73.998 L379.528,73.998z"/>
</svg>