<?xml version="1.0" encoding="UTF-8" standalone="no"?>
<svg xmlns="http://www.w3.org/2000/svg" version="1.0" width="200" height="54">
<path d="m 196.04354,52.197307 c 1.39695,-1.70126 1.96642,-3.139145 1.96463,-4.306536 l 0,0 c 0.25982,-3.596493 -6.32634,-6.918933 -17.8223,-8.723407 l 0,0 c -11.39453,-1.875658 -27.26465,-2.599939 -44.86628,-2.599939 l 0,0 c -29.04777,0 -62.839856,1.969974 -89.360651,3.945286 l 0,0 C 19.598303,42.472008 0.471584,44.425966 0.181515,44.454438 l 0,0 L 0,42.685555 c 0.01424,0 77.081678,-7.897691 135.32136,-7.897691 l 0,0 c 17.6568,0 33.57853,0.720722 45.15636,2.626631 l 0,0 c 11.47461,1.969975 19.05376,4.756766 19.3118,10.478055 l 0,0 c -0.004,1.752867 -0.82216,3.553783 -2.36861,5.438338 l 0,0 -1.37737,-1.133581 0,0 z M 0.179735,44.452659 c 0,0 0.0018,0 0.0036,0 l 0,0 0,0.0035 -0.0036,-0.0035 0,0 z m 172.135135,-15.982236 3.76199,-4.596606 c -0.35413,-2.555449 -1.02502,-2.854415 -1.74218,-2.877549 l 0,0 c -1.11935,-0.05872 -3.24414,1.357804 -4.86355,2.893565 l 0,0 c -1.64965,1.517966 -2.89712,3.037711 -2.90068,3.04127 l 0,0 -0.25982,0.309643 -0.39684,0.01602 c -0.35234,0.0107 -0.67978,0.01779 -0.98943,0.01779 l 0,0 c -1.12825,-0.0035 -1.93438,-0.08364 -2.57324,-0.291847 l 0,0 c -0.59794,-0.1655 -1.29374,-0.699368 -1.28663,-1.505509 l 0,0 c 0.11208,-1.163833 0.88444,-1.649653 1.73864,-2.35258 l 0,0 c 0.888,-0.660217 2.01802,-1.318655 3.14091,-1.921925 l 0,0 c 2.24759,-1.208323 4.46671,-2.172844 4.47916,-2.176404 l 0,0 h 0.004 l 0.59594,1.375603 c 1.05706,-0.676233 2.17284,-1.153155 3.31354,-1.185188 l 0,0 c 1.94685,-0.02847 3.34024,1.724395 3.55379,4.753208 l 0,0 c 2.12123,-1.466358 4.48093,-2.751202 6.33523,-2.820604 l 0,0 c 0.72962,-0.0107 1.51975,0.247358 2.03404,0.879103 l 0,0 c 0.5143,0.626405 0.7136,1.457461 0.7136,2.459353 l 0,0 c 0,0.777668 -0.12101,1.685244 -0.36836,2.765437 l 0,0 h 4.64109 v 1.777782 h -6.95808 l 0.31676,-1.126463 c 0.41642,-1.49483 0.58903,-2.628411 0.58903,-3.416756 l 0,0 c -0.13525,-1.567794 -0.29006,-1.450342 -0.96808,-1.560675 l 0,0 c -1.29374,-0.05872 -4.16061,1.590928 -6.43489,3.32066 l 0,0 c -2.30987,1.719057 -4.18018,3.434553 -4.18375,3.439891 l 0,0 -1.29197,-1.217219 0,0 z m -7.38873,-2.973647 c 0.16728,0 0.34523,-0.0035 0.53565,-0.0072 l 0,0 c 0.4698,-0.542765 1.51618,-1.717275 2.80637,-2.907802 l 0,0 c 0.50183,-0.448449 1.02859,-0.907577 1.5749,-1.334671 l 0,0 c -0.7225,0.336337 -1.67279,0.795464 -2.64798,1.307977 l 0,0 c -1.76711,0.882663 -3.68369,2.15149 -4.214,2.760099 l 0,0 c 0.33455,0.0961 0.98766,0.181515 1.94506,0.181515 l 0,0 z m -28.50145,28.44806 c -0.0676,-0.01424 -0.89155,-0.0961 -1.80091,-0.613948 l 0,0 c -0.90758,-0.489379 -1.92371,-1.599825 -1.90413,-3.299305 l 0,0 c 0.12102,-3.521751 3.57335,-9.1594 17.28664,-20.037856 l 0,0 c 0.92183,-1.389837 1.8116,-2.71561 2.67113,-3.979098 l 0,0 -11.72553,0.902237 0.52676,-1.323993 c 0.74385,-1.854302 1.03036,-3.126689 1.0268,-3.799363 l 0,0 c 0,-0.40574 -0.0961,-0.544545 -0.10503,-0.544545 l 0,0 c -0.008,0 0.009,-0.03381 -0.20465,-0.04093 l 0,0 c -0.92537,-0.07651 -3.69259,1.566014 -5.86722,3.285071 l 0,0 c -2.22978,1.706598 -4.09476,3.416756 -4.1001,3.420315 l 0,0 -1.3151,-1.185188 c 2.09099,-2.770775 2.90247,-4.546777 2.93985,-5.078866 l 0,0 c -0.008,0 -0.0142,0 -0.0214,0 l 0,0 c -0.85598,-0.05161 -3.51286,1.181629 -5.65723,2.461133 l 0,0 c -2.18886,1.272386 -4.05028,2.546551 -4.05384,2.546551 l 0,0 -2.36148,1.603384 1.03037,-2.660443 c 0.92715,-2.382832 1.29196,-3.995113 1.28484,-4.852862 l 0,0 c 0.004,-0.464466 -0.105,-0.658438 -0.12991,-0.679793 l 0,0 c -0.0214,-0.01424 0.0125,-0.03381 -0.19041,-0.04449 l 0,0 c -0.93249,-0.09966 -3.9097,1.840067 -6.2338,3.856309 l 0,0 c -2.38461,2.002007 -4.39018,4.002233 -4.39374,4.005792 l 0,0 -0.62996,0.631745 -0.62997,-0.629965 c -0.95197,-0.94495 -1.46271,-1.978874 -1.45915,-3.019918 l 0,0 c 0.13881,-2.809927 3.02347,-4.358144 5.57359,-5.561128 l 0,0 c 2.61239,-1.165613 5.16784,-1.802695 5.19809,-1.809813 l 0,0 0.3488,1.391616 c 0.77589,-0.375488 1.52152,-0.613949 2.22445,-0.644201 l 0,0 c 0.54632,-0.0107 1.18518,0.20287 1.58025,0.706486 l 0,0 c 0.39329,0.500057 0.51786,1.110446 0.52141,1.799136 l 0,0 c -0.005,0.807922 -0.17974,1.7849 -0.54632,3.016356 l 0,0 c 2.43622,-1.546438 6.31566,-3.81004 8.52409,-3.89368 l 0,0 c 0.39862,0 0.84351,0.07119 1.23146,0.389724 l 0,0 c 0.40218,0.32388 0.57835,0.85063 0.5659,1.302639 l 0,0 c -0.0178,0.453788 -0.1317,0.939609 -0.35057,1.489492 l 0,0 c 2.34724,-1.74041 4.85108,-3.546665 6.91536,-3.628524 l 0,0 c 0.52498,-0.0072 1.13714,0.172617 1.54467,0.64776 l 0,0 c 0.40573,0.471584 0.54098,1.071296 0.54098,1.717277 l 0,0 c -0.004,0.836393 -0.21533,1.841845 -0.65843,3.137365 l 0,0 9.97088,-0.76699 c 0.1299,-0.0783 0.33633,-0.201091 0.60682,-0.36659 l 0,0 c 3.93283,-5.682138 7.19833,-10.01003 9.9175,-13.289761 l 0,0 c 6.20888,-7.4136506 9.41566,-9.55446244 11.80382,-9.64166084 l 0,0 c 1.37203,-0.023135 2.2369,0.96096184 2.52341,1.72083434 l 0,0 c 0.32922,0.7794477 0.33456,1.4521216 0.34167,1.5161859 l 0,0 0.004,0.1850742 -0.0659,0.1690584 c -2.14793,5.2461453 -9.18786,10.969213 -15.16898,15.284649 l 0,0 c -3.43811,2.461132 -6.52208,4.409752 -8.10767,5.379613 l 0,0 c -0.32033,0.464465 -0.6442,0.937828 -0.97521,1.420088 l 0,0 c 3.06263,-2.311649 6.53277,-4.829727 10.46027,-7.57737 l 0,0 1.01613,1.459241 c -5.83518,4.039603 -10.63821,7.600504 -14.57461,10.727192 l 0,0 c -4.05918,6.127029 -8.72518,13.503308 -14.08877,22.369081 l 0,0 -0.29363,0.48404 -0.56591,-0.05517 0,0 z m -1.92548,-3.913253 c 0.0195,1.01079 0.4609,1.412971 1.00723,1.758205 l 0,0 c 0.20287,0.117454 0.40752,0.20109 0.58548,0.259816 l 0,0 c 3.92036,-6.468704 7.46703,-12.141944 10.67736,-17.112256 l 0,0 c -9.92817,8.504521 -12.37684,13.095788 -12.27007,15.094235 l 0,0 z m -17.78849,-29.10116 c -2.49673,1.05706 -4.66067,2.7601 -4.52186,3.936389 l 0,0 c 0.003,0.304305 0.0925,0.658438 0.37548,1.083752 l 0,0 c 0.80258,-0.774108 2.22089,-2.10344 3.81538,-3.438111 l 0,0 c 1.27417,-1.033925 2.58214,-2.089204 3.84919,-2.891786 l 0,0 c -0.93605,0.290068 -2.22979,0.733179 -3.51819,1.309756 l 0,0 z m 48.77776,-9.287528 c -2.09277,2.521637 -4.52899,5.696374 -7.36382,9.663017 l 0,0 c 1.31153,-0.863087 2.81349,-1.882777 4.39195,-3.011019 l 0,0 c 5.80671,-4.126801 12.60286,-9.8623256 14.46961,-14.2969913 l 0,0 c -0.0195,-0.1637195 -0.0569,-0.4431106 -0.1744,-0.7082651 l 0,0 c -0.22066,-0.4181968 -0.34523,-0.6210668 -0.89156,-0.6424215 l 0,0 c -0.0267,-0.00178 -0.0516,-0.00356 -0.0801,-0.00356 l 0,0 c -1.16561,-0.00356 -4.46136,1.8187111 -10.3517,8.9992389 l 0,0 z m -62.81672,16.589067 c 0.0997,-2.820604 3.58582,-8.481387 7.05596,-13.962435 l 0,0 c 3.47192,-5.3885102 6.93673,-10.2128997 6.94029,-10.220018 l 0,0 1.44678,1.037484 c -0.007,0.010679 -3.44879,4.8030347 -6.89402,10.152395 l 0,0 c -3.44523,5.256823 -6.87266,11.42834 -6.77479,12.994353 l 0,0 c 0,0.08719 0.007,0.121005 0.0107,0.121005 l 0,0 -1.71727,0.476923 c -0.0569,-0.222446 -0.0676,-0.421756 -0.0676,-0.599712 l 0,0 z M 99.489909,18.181002 C 98.488015,17.367743 98.084055,16.1612 98.094732,14.970674 l 0,0 C 98.201506,9.6853782 104.68445,2.3162167 104.70046,2.2112227 l 0,0 v 0.00356 l 1.35959,1.1460371 c 0,0.00711 -1.5678,1.8525229 -3.13381,4.267387 l 0,0 c -1.57491,2.3970642 -3.082199,5.4205372 -3.053727,7.3424642 l 0,0 c 0.106775,1.589147 0.557007,2.487825 3.941727,2.624852 l 0,0 c 0.56056,0 1.19409,-0.03915 1.90769,-0.121005 l 0,0 0.20109,1.768882 c -0.77055,0.08721 -1.46814,0.131688 -2.11056,0.131688 l 0,0 c -1.90235,0 -3.326,-0.382606 -4.322551,-1.194085 l 0,0 z m -10.656011,8.353259 c -0.64776,-1.243913 -1.046382,-2.991442 -1.243913,-5.432999 l 0,0 1.772442,-0.144145 c 0.179736,2.30987 0.578357,3.870545 1.046382,4.749648 l 0,0 c 0.498277,0.882663 0.857748,1.032145 1.332892,1.049941 l 0,0 c 0.930709,0.07652 2.87043,-1.302638 4.815491,-3.639202 l 0,0 c 1.973532,-2.30987 4.080528,-5.445457 6.000678,-8.586381 l 0,0 c 3.83851,-6.2836299 6.91359,-12.5672593 6.91893,-12.5814958 l 0,0 0.004,0.00356 1.59449,0.7794477 c -0.0213,0.028476 -6.95628,14.2542861 -13.161607,21.5380291 l 0,0 c -2.108779,2.405966 -4.023587,4.192645 -6.169737,4.269166 l 0,0 c -0.01247,0 -0.0267,0 -0.04093,0 l 0,0 c -1.186967,0.0018 -2.252924,-0.779448 -2.868651,-2.005565 l 0,0 z M 36.95614,28.650159 c 1.806254,-3.722842 3.473703,-6.886901 5.007684,-9.572258 l 0,0 c -5.39029,1.434325 -10.122142,1.722614 -10.157733,1.726174 l 0,0 -0.110327,-1.777782 c 0.0107,-0.0107 5.721289,-0.354132 11.572484,-2.172843 l 0,0 C 50.112433,5.5087489 54.087972,4.1260301 55.951173,4.049509 l 0,0 c 0.464465,-0.00356 0.761651,0.1067738 0.863087,0.1566014 l 0,0 0.501836,0.2313429 0.01424,0.555223 c 0.0035,0.1138925 0.0035,0.2384612 0.0072,0.3665896 l 0,0 C 57.282347,12.529117 50.657045,16.314243 44.43392,18.348281 l 0,0 c -1.112225,1.864979 -2.302752,4.004012 -3.573358,6.458026 l 0,0 c 0.329219,-0.302525 0.669115,-0.610389 1.01435,-0.918253 l 0,0 c 2.644428,-2.261822 5.208775,-4.568133 7.276624,-4.712277 l 0,0 c 0.395062,-0.0107 0.907576,0.147703 1.224337,0.540986 l 0,0 c 0.314983,0.387944 0.395063,0.838173 0.398623,1.284843 l 0,0 c -0.01779,0.895119 -0.332778,2.044716 -1.01613,3.660557 l 0,0 c 0.553443,-0.460907 1.146038,-0.944947 1.759986,-1.432547 l 0,0 c 2.776115,-2.121236 5.562907,-4.299419 7.644993,-4.411531 l 0,0 c 0.398621,-0.0072 0.89512,0.121005 1.243913,0.501836 l 0,0 c 0.347015,0.379046 0.453789,0.855969 0.453789,1.309757 l 0,0 c -0.0267,0.980538 -0.428875,2.226231 -1.306198,4.018249 l 0,0 c 0.573019,-0.402181 1.194084,-0.829276 1.836506,-1.25637 l 0,0 c 2.781388,-1.795577 5.703427,-3.642762 7.774836,-3.715723 l 0,0 c 0.427095,0 0.914694,0.09966 1.309757,0.457346 l 0,0 c 0.395062,0.36659 0.544546,0.8969 0.537427,1.375602 l 0,0 c -0.02491,1.051719 -0.512514,2.299191 -1.553556,4.144597 l 0,0 5.778234,0.72428 -0.220665,1.763545 -8.486726,-1.060618 0.717163,-1.17451 c 1.482374,-2.381052 2.018021,-3.913254 1.98599,-4.397294 l 0,0 c 0.0018,-0.01957 0.0018,-0.03559 0.0035,-0.04804 l 0,0 c -0.01958,-0.0018 -0.04449,-0.0035 -0.07296,-0.0035 l 0,0 c -0.97342,-0.07296 -4.189087,1.646094 -6.789025,3.420316 l 0,0 c -2.655105,1.763545 -4.938281,3.527089 -4.9454,3.530649 l 0,0 -1.313315,-1.151377 c 2.194198,-3.706824 3.003898,-5.936614 2.962968,-6.625305 l 0,0 c 0,-0.01424 0,-0.02491 0,-0.03737 l 0,0 c -0.877323,0.03204 -3.989775,2.005566 -6.452688,4.030706 l 0,0 c -2.637309,2.089204 -4.924045,4.178408 -4.927603,4.181968 l 0,0 -1.389837,-1.073076 c 1.978894,-3.742449 2.713854,-5.984696 2.68538,-6.730332 l 0,0 c 0,-0.01602 0,-0.03025 0,-0.04272 l 0,0 c -0.848851,0.16194 -3.708604,2.18708 -5.933056,4.258489 l 0,0 c -2.494944,2.217333 -4.664229,4.438225 -4.667788,4.441784 l 0,0 -1.437885,-1.01079 0,0 z m 8.981444,-12.734538 c 5.069968,-2.010904 9.374727,-5.18742 9.611407,-10.054519 l 0,0 c -1.192305,0.2526977 -4.400853,1.9290439 -9.611407,10.054519 l 0,0 z M 26.284113,30.664622 c -2.026919,-0.0072 -3.548444,-0.809701 -3.617847,-0.838173 l 0,0 -0.40218,-0.213548 -0.06585,-0.450229 c -0.02136,-0.131687 -0.0267,-0.252698 -0.0267,-0.354132 l 0,0 c 0.149483,-2.571466 2.861534,-4.470257 5.363597,-6.185753 l 0,0 c 2.537654,-1.653212 5.041496,-2.834842 5.059291,-2.847298 l 0,0 1.427207,-0.672674 -0.16016,1.569573 c -0.697587,7.710836 -4.427548,9.994013 -7.41365,9.994013 l 0,0 c -0.05517,0 -0.110326,0 -0.16372,-0.0018 l 0,0 z M 24.333714,28.56474 c 0.505397,0.16016 1.192307,0.3221 1.950399,0.3221 l 0,0 c 1.973534,-0.0783 4.489832,-0.841732 5.559348,-6.730298 l 0,0 c -0.911135,0.48404 -2.126574,1.167391 -3.338455,1.959295 l 0,0 c -2.181743,1.343569 -4.197985,3.24414 -4.518306,4.327892 l 0,0 c 0.101436,0.03915 0.218887,0.08008 0.347014,0.121018 l 0,0 z M 9.76623,29.49545 c -0.153042,0.03025 -0.379047,0.0605 -0.653099,0.0605 l 0,0 C 8.556128,29.55955 7.726853,29.413585 7.054179,28.740911 l 0,0 C 6.381505,28.064678 5.984663,26.989823 5.988222,25.459401 l 0,0 c 0,-1.105107 0.193972,-2.473589 0.658438,-4.213999 l 0,0 1.715496,0.457346 C 7.929723,23.338164 7.766003,24.5714 7.766003,25.459401 l 0,0 c 0.135247,2.470031 0.827496,2.18708 1.347128,2.318768 l 0,0 c 0.233122,0 0.36303,-0.03915 0.36303,-0.03915 l 0,0 0.193973,-0.05872 0.204649,0.03381 c 0.355912,0.05872 0.706486,0.08719 1.0535,0.08719 l 0,0 c 4.278064,0.0783 8.529435,-4.65889 11.563587,-9.744876 l 0,0 -0.93249,0.93249 c -0.0267,-0.08364 -3.149823,-3.000339 -3.222785,-6.402859 l 0,0 C 18.338395,9.5857136 21.089576,7.1210217 28.3662,6.7918031 l 0,0 1.331111,-0.072962 -0.443111,1.2581495 c -0.01424,0.033812 -1.877437,5.3226664 -5.041496,10.6631284 l 0,0 C 21.03085,23.937873 16.629996,29.497221 10.926503,29.577302 l 0,0 c -0.01957,0 -0.03737,0 -0.05695,0 l 0,0 c -0.366589,0 -0.733179,-0.02847 -1.103327,-0.08185 l 0,0 z M 20.112597,12.584284 c -0.0107,1.09087 0.629965,2.42554 1.327552,3.443449 l 0,0 c 0.548105,0.809701 1.089091,1.405853 1.291961,1.615842 l 0,0 c 2.101661,-3.560901 3.616068,-7.112905 4.347468,-8.9600895 l 0,0 c -5.92238,0.6175075 -6.97054,2.4024075 -6.966981,3.9007985 l 0,0 z" />
</svg>
