<?xml version="1.0" encoding="UTF-8"?>
<svg version="1.1" xmlns="http://www.w3.org/2000/svg" width="234" height="100" >
<path fill="#231F20" d="M2.311,41.325c2.363-1.894,5.923-2.959,8.731-4.151c4.936-2.095,9.947-4.027,15.006-5.801 c2.367-0.83,4.756-1.592,7.173-2.262c0.429-0.119,4.766-0.875,4.712-0.729c-2.527,6.947-8.648,13.701-12.93,19.562 C17.243,58.566,8.353,68.706,2.137,80.358c-1.328,2.49-3.765,7.539-0.537,9.641c2.105,1.371,4.928-2.049,5.051-3.853 c0.091-1.333-2.653-0.896-2.73,0.241c-0.099,1.453-0.572,2.555-1.139,0.063c-0.226-0.995,0.41-2.451,0.74-3.318 c0.995-2.616,2.551-5.047,4.025-7.411c3.893-6.245,8.416-12.1,12.859-17.957c4.387-5.781,8.717-11.6,12.865-17.555 c2.075-2.979,4.081-6.008,5.925-9.136c0.563-0.956,1.77-2.441,1.447-3.659c-1.276-4.819-36.302,9.752-40.095,12.792 C-0.887,41.355,1.32,42.119,2.311,41.325L2.311,41.325 M29.626,63.481c-2.424,1.745-4.892,5.927-3.736,9.068c1.354,3.676,10.698-2.835,11.864-3.549 c-0.735-0.096-1.471-0.191-2.206-0.288c-0.379,5.489,4.62,7.251,9.091,5.174c3.096-1.438,4.119-5.002,4.285-8.122 c0.112-2.126-0.445-4.212-1.004-6.239c-0.27-0.979-0.532-1.96-0.773-2.947c-0.237-0.966-0.813-1.434-0.218-1.382 c1.092,0.095,2.859-1.46,1.029-1.619c-4.182-0.363-3.917,2.269-3.054,5.534c1.102,4.167,2.238,8.445-0.197,12.394 c-3.382,5.482-6.631-0.442-6.447-3.105c0.074-1.063-1.731-0.579-2.206-0.288c-0.939,0.576-7.633,5.153-7.595,2.893 c0.042-2.468,0.791-5.14,2.869-6.636C32.817,63.296,30.519,62.839,29.626,63.481L29.626,63.481 M68.855,54.932c-3.028-0.568-6.275-0.884-9.244,0.099c-1.41,0.467-2.235,1.436-1.814,2.932 c0.2,0.71,1.095,1.153,1.659,1.504c1.297,0.807,0.535,1.948,0.024,3.033c-0.97,2.059-2.244,4.449-2.06,6.794 c0.126,1.607,2.446,1.229,3.458,1.069c2.198-0.347,4.346-1.339,6.318-2.327c1.188-0.595,3.086-1.42,3.69-2.702 c0.234-0.497-2.336-0.263-2.674,0.453c-0.598,1.268-7.013,4.594-7.974,3.163c-1.304-1.942,1.955-6.707,2.631-8.545 c0.757-2.059-2.969-2.139-2.449-4.38c0.264-1.139,5.318-0.17,6.225,0C67.308,56.149,69.667,55.084,68.855,54.932L68.855,54.932 M85.793,57.969c1.435-4.671-1.934-9.011-6.345-6.176c-1.515,0.973-2.889,2.771-2.578,4.637 c0.301,1.802,4.057,1.103,5.131,0.933c3.107-0.49-5.763,9.451,1.837,7.221c7.309-2.145,14.822-4.054,21.913-6.878 c-0.504-0.123-1.007-0.247-1.51-0.37c-1.606,1.096-3.949,5.704-0.452,5.87c3.874,0.185,7.046-3.708,9.313-6.249 c4.124-4.62,6.707-9.145,7.31-15.356c0.282-2.91,0.343-11.414-3.891-12.159c-7.064-1.243-10.494,8.229-3.861,11.511 c2.091,1.035,4.974,0.966,7.246,1.332c3.523,0.567,7.074,1.337,10.323,2.85c9.835,4.58-6.678,14.847-10.229,10.252 c-0.517-0.668-2.922,0.444-2.705,0.725c2.948,3.814,12.51-0.739,15.354-2.685c9.17-6.274-2.342-10.54-7.959-11.732 c-4.334-0.92-10.943-0.226-12.78-5.2c-0.612-1.659-0.098-3.498,0.738-4.959c2.146-3.748,4.391,2.82,4.678,3.984 c1.165,4.736,0.389,10.168-1.539,14.58c-1.353,3.096-3.982,5.754-6.203,8.243c-1.129,1.265-2.378,2.414-3.742,3.421 c-0.931,0.688-0.955-3.352,0.477-4.329c1.104-0.753-1.145-0.515-1.51-0.37c-3.521,1.403-7.169,2.499-10.805,3.558 c-2.666,0.776-5.353,1.463-8,2.301c-0.125,0.04-2.732,0.99-2.77,0.934c-0.306-0.464,0.857-2.331,1.03-2.69 c1.05-2.186,2.968-5.371-0.729-4.992c-2.767,0.285-4.934-0.065-3.363-2.881c2.165-3.883,3.46,3.486,2.951,5.143 C82.949,59.007,85.58,58.665,85.793,57.969L85.793,57.969 M145.846,42.092c-0.452,1.34-3.973,10.336-1.308,10.118c3.946-0.322,7.701-5.626,10.342-8.062 c0.994-0.917,1.996-1.848,3.095-2.64c-1.378-0.373-2.005,0.097-1.883,1.409c-0.262,0.958-0.585,1.892-0.831,2.854 c-0.626,2.447,0.467,3.919,3.004,3.711c2.259-0.185,3.869-1.715,5.277-3.333c0.744-0.435,0.777-0.713,0.1-0.835 c0.621,0.251,1.296,0.982,1.89,1.343c1.333,0.811,3.182,0.797,4.678,0.928c0.579,0.051,3.108-0.989,1.754-1.107 c-1.671-0.146-3.057-0.24-4.482-1.107c-0.665-0.404-1.155-1.061-1.945-1.243c-0.769-0.177-1.999,0.155-2.646,0.586 c-0.808,0.539-4.264,5.053-5.091,2.284c-0.59-1.973,1.931-4.405,1.221-6.183c-0.07-0.175-0.327-0.18-0.477-0.191 c-3.616-0.271-7.402,4.92-9.655,7.025c-1.047,0.978-2.103,1.944-3.186,2.881c-0.358,0.313-0.733,0.605-1.125,0.875 c2.194-1.526,1.348,0.289,1.788-2.254c0.441-2.555,1.32-5.082,2.148-7.534C148.691,41.092,146.08,41.402,145.846,42.092 L145.846,42.092 M177.454,33.608c-0.639,3.87-2.051,9.767,3.209,9.813c5.321,0.046,9.405-2.823,8.229-8.467 c-0.159-0.763-2.652-0.131-2.696,0.562c-0.271,4.207,1.982,6.45,6.107,5.338c4.847-1.307,9.124-6.078,12.417-9.652 c-0.829,0.019-1.659,0.038-2.488,0.057c-2.813,3.442-3.711,10.475,2.65,7.98c4.496-1.764,7.681-5.295,11.464-8.16 c1.243-0.941-0.246,4.614-0.467,5.548c-0.127,0.538-0.253,1.076-0.38,1.614c-0.207,0.877,2.429,0.338,2.688-0.398 c1.328-3.778,2.971-7.555,5.266-10.847c1.944-2.788,4.504-1.514,7.318-2.188c1.041-0.25,2.03-0.56,2.326-1.678 c0.218-0.821-2.474-0.41-2.688,0.398c-0.128,0.48-4.827,0.064-5.894,0.559c-1.5,0.696-2.53,1.665-3.551,2.965 c-2.518,3.206-4.125,7.374-5.466,11.189c0.896-0.133,1.792-0.266,2.688-0.398c0.412-1.744,3.483-9.244-0.35-8.674 c-2.282,0.339-4.059,1.92-5.783,3.336c-1.108,0.911-8.364,7.988-9.539,4.63c-0.656-1.875,1.11-4.593,2.205-5.933 c0.701-0.858-2.012-0.461-2.488,0.057c-1.85,2.007-3.844,3.872-5.937,5.623c-1.649,1.381-5.733,4.627-7.114,0.968 c-0.31-0.822-0.354-1.861-0.298-2.732c-0.898,0.187-1.797,0.375-2.696,0.562c0.431,2.064,0.644,4-1.081,5.552 c-1.579,1.421-4.881,1.394-5.349-0.875c-0.467-2.263,0.012-4.88,0.385-7.145C180.289,32.318,177.584,32.81,177.454,33.608 L177.454,33.608 M223.851,4.164c0.001-0.496,0.032-0.992,0.085-1.484c0.043-0.403,0.111-0.804,0.213-1.197 c0.048-0.188,0.115-0.371,0.196-0.548c0.353-0.769-0.944,0.6-1.66,0.351c0.581,0.202,1.381-0.041,1.899-0.312 c0.285-0.149,0.889-0.628,0.296-0.834c-1.481-0.516-3.076,0.457-3.445,1.893c-0.235,0.917-0.287,1.913-0.289,2.856 C221.145,5.481,223.849,5.047,223.851,4.164L223.851,4.164 M36.479,99.344c7.672-1.239,15.048-4.386,22.381-6.878c11.696-3.975,23.728-6.669,35.922-8.592 c17.454-2.752,34.931-4.767,52.31-8.071c7.444-1.416,14.87-2.932,22.33-4.265c3.867-0.691,8.255-1.83,12.208-1.335 c1.121,0.14,2.842-1.427,1.02-1.655c-3.499-0.438-7.243,0.412-10.676,0.976c-6.327,1.04-12.615,2.334-18.909,3.558 c-18.699,3.635-37.429,6.156-56.263,8.905c-12.174,1.776-24.223,4.403-35.933,8.188c-7.917,2.558-15.817,6.208-24.057,7.538 C35.471,97.928,34.621,99.644,36.479,99.344L36.479,99.344z"/>
</svg>