<?xml version="1.0" encoding="utf-8"?>
<!-- Generator: Adobe Illustrator 19.0.0, SVG Export Plug-In . SVG Version: 6.00 Build 0)  -->
<svg version="1.1" id="Layer_1" xmlns="http://www.w3.org/2000/svg" xmlns:xlink="http://www.w3.org/1999/xlink" x="0px" y="0px"
	 viewBox="0 0 737 174" style="enable-background:new 0 0 737 174;" xml:space="preserve">
<g>
	<g>
		<path d="M170.9,128.3c2,0.3,3.4-0.1,5.3-1.4c4.1-3,8.7-5.4,13.3-7.5c10.7-4.8,21.5-9.4,32.4-13.8c8.5-3.4,15.9-8.8,23.4-13.8
			c4.4-2.9,8.5-6.5,11.7-10.6c7.4-9.5,14.8-19.1,19.3-30.5c0.4-1.1,0.3-2.4,0.5-3.6c0.5-0.2,1.6-0.3,1.6-0.5c0.3-4.5,1.4-8.9,3.3-13
			c0.1-0.2-0.2-0.5-0.4-1.1c-3.4,2.1-6.8,4.2-10.6,6.5c2.3,3.1,4.3,5.6,6.2,8.2c-4.3,1.8-5.2-2.5-7.3-4.3c-1.7-1.4-0.8-3.5,0.3-5
			c2.3-3,4.4-6.5,8.5-7.3c1.3-0.3,3.4-0.2,4.1,0.6c0.9,1.1,1.1,3.1,0.8,4.6c-0.7,3.5-1.8,7-2.8,11c1.8,0.1,2.9,0.2,4,0.2
			c5.4,0,10.5,0.9,15.5,3.2c4,1.8,6,4.7,5.6,9c-0.2,2.4-0.6,5.1-1.9,7.2c-6,10-13.4,19-22.3,26.6c-0.8,0.6-1.8,1.1-2.2,1.9
			c-0.6,1-0.6,2.3-0.9,3.5c1.1,0.1,2.1,0.4,3.2,0.4c2.3,0,4.7-0.5,6.9-0.1c7.9,1.1,15.8,2.4,23.6,3.9c3.2,0.6,5.2,0.1,7.6-2.6
			c9-10.2,17.9-20.4,28.6-29c10.5-8.4,20.4-17.4,30.9-25.8c4.1-3.3,8.8-5.9,13.3-8.6c1.9-1.2,4.2-2.1,6.4-2.5
			c1.7-0.3,3.5,1.1,2.6,3.1c-1.4,3.1-2.8,6.3-4.8,9.1c-4,5.5-8.3,10.7-12.5,16c-7.2,9.1-14.9,17.9-21.6,27.4
			c-3.7,5.3-6.2,11.6-8.3,17.8c-1.7,5,1.1,7.4,6.4,6.8c7.6-0.8,14.3-4,21.2-7c10.3-4.5,19.6-10.8,28.8-17.2
			c4.2-2.9,8.6-5.7,12.3-9.2c3.3-3.1,5.9-7.1,8.5-10.9c5.2-7.5,10.1-15.2,15.1-22.8c2.1-3.1,4.8-5.6,8.5-6.6c1.3-0.4,3,0.4,4.6,0.7
			c-0.3,1.3-0.2,2.9-0.9,4c-4.5,6.3-9,12.7-14,18.7c-3.7,4.5-8.5,8.2-12.3,12.6c-3.4,3.8-6.5,7.9-9.1,12.3
			c-4.5,7.9-8.7,16-12.6,24.2c-1.6,3.4-2.3,7.4-3.5,11.2c6.8,1.1,12.7-1.9,18.5-4.9c7.1-3.8,14.2-7.2,21.8-9.8
			c2.3-0.8,4.4-2.2,6.5-3.3c1.6-0.9,3-1.9,4.6-2.8c2.5,2.1,1.4,3.7-0.3,5.1c-2.7,2.2-5.4,4.3-8.1,6.4c0.4,3.2,2.6,3.5,4.8,3.6
			c4.5,0.2,9,0,13.4,0.2c4.5,0.2,9,0.7,13.5,1.3c1,0.1,2.3,1.1,2.7,2c0.9,2.7,2.8,4.1,5.4,4.3c3.3,0.3,6.4,0.2,9.6-1.4
			c9.7-4.9,16.1-12.9,21.7-21.8c2.9-4.7,5.7-9.4,8.8-14.6c-6-6.2-13-11.2-21.2-14.7c0.7-0.8,1.5-1.7,2.6-3
			c6.9,4.3,13.8,8.7,21.3,13.4c3.7-7.1,7.1-13.6,10.6-20.2c1.1-2,2.4-4,3.6-6c1.5-2.6,2.7-5.3,4.3-7.8c1.1-1.8,2.6-3.5,3.9-5.2
			c0.4,0.2,0.8,0.3,1.2,0.5c0.2,1,0.7,2.2,0.4,3c-1,2.8-2.2,5.5-3.6,8.2c-4.9,9.5-9.9,19-15,28.5c-1.3,2.4-1.2,4.2,0.8,6.2
			c1.6,1.7,2.8,3.9,4.3,6.1c-5.3,2.3-5.6-3.2-8.3-4.3c-0.6,0.2-1.2,0.3-1.4,0.6c-4.7,6.6-9.4,13.2-14,19.9c-2.7,3.9-1.3,6.7,3.5,6.8
			c2.5,0,5.1-0.9,7.6-1.4c2.8-0.5,5.5-1.3,8.3-1.4c2-0.1,4.1-1.4,6.2-0.1c0.5,0.3,1.2,0.2,1.8,0.3c-0.2,0.6-0.1,1.4-0.5,1.8
			c-1.5,1.4-3.1,2.7-5,4.3c3.3,0.2,5.5-0.9,7.6-2.9c1.3-1.2,3.2-1.9,4.8-2.8c1.3-0.7,2.5-1.3,4.2-2.2c0.9,3.6,2.5,7.6,2.9,11.7
			c0.5,4.7-0.9,9.3-4.3,12.9c-7.3,7.6-14.8,15-22.3,22.5c-0.6,0.6-1.7,0.9-3.4,1.9c0.6-2.2,0.5-3.9,1.4-4.7
			c3.6-3.8,7.2-7.7,11.2-11.1c4.7-4,8.7-8.5,12.1-13.5c3.4-5,1.8-10,0.3-15.2c-3.1,1.6-5.7,3-8.3,4.3c-3.6,1.8-7.2,1.6-11.1,0.4
			c-2.8-0.9-5.9-0.8-8.8-0.9c-5.3-0.1-10.9,1.1-14.3-5.2c-1.5,1.3-2.7,2.3-3.9,3.3c-6.1,5.5-13.2,8.2-21.4,7.5
			c-1-0.1-2.5-0.7-2.9-1.5c-2.9-6.1-8.5-6.2-13.9-6.4c-4.3-0.2-8.7,0.1-13,0c-9.3-0.2-9.6,0.4-12.9-8.1c-9.2,2.3-17.1,7.7-25.5,11.8
			c-4.3,2.1-8.8,0.8-13.1,1.5c-0.4,0.1-1.6-1.8-1.6-2.8c0-7,3.1-13,6.3-19c2.8-5.4,5.6-10.8,8.3-16.2c0.2-0.4,0-0.9-0.1-2.1
			c-1.9,1.3-3.5,2.2-5,3.3c-13.1,9.8-27.4,17.6-42.6,23.4c-4.3,1.6-9.1,2.2-13.7,2.4c-5.6,0.2-7.3-2.8-6.2-8.2
			c2-9.3,6.7-17.1,12.7-24.4c4.2-5.1,8-10.6,12-15.9c1.6-2.1,3.5-4,5.1-6.1c4.7-6.2,9.3-12.4,13.9-18.6c0.9-1.2,1.4-2.7,2.1-4.1
			c-0.4-0.4-0.7-0.7-1.1-1.1c-6.1,3.7-12.4,7.1-18.1,11.3c-7.6,5.6-14.8,11.6-21.9,17.7c-8.2,7-16.2,14.1-23.9,21.7
			c-4.1,4-7.2,9-10.7,13.5c-0.5,0.6-0.6,1.5-1.1,2.5c1.2,0.8,2.2,1.5,3.3,2.3c5.5,4.1,5.7,11.6-0.2,15.4c-3.3,2.1-7,4.8-11.5,3.3
			c-2.5-7.2-2.1-9.6,4-19.6c-1.3-0.4-2.4-1-3.6-1.2c-8.3-1.7-16.5-3.9-25.1-4c-4.5,0-9-0.7-13.4-0.4c-2.7,0.2-5.3,1.6-7.9,2.6
			c-5.6,2.1-11.1,4.4-16.6,6.5c-1.2,0.4-2.6,0-3.9,0c1.6-0.9,3.1-1.9,4.7-2.5c4-1.5,8.1-2.8,12.2-4.2c0.8-0.3,1.6-0.7,2.4-1
			c-0.3-0.4-0.7-0.7-1-1.1c-3.9,0.6-7.8,0.9-11.7,1.8c-2.2,0.5-4.4,1.5-6.4,2.5c-2.5,1.3-2.5,2.9-0.1,4.4c-1.1-0.2-3-0.1-3.2-0.6
			c-0.4-1-0.4-3.1,0.3-3.6c2.7-1.9,5.5-3.9,8.5-4.7c5.3-1.4,10.8-2.1,16.2-2.6c2.7-0.3,5.5,0.5,8.4,0.8c-0.4-0.6-0.9-1.3-1.4-1.9
			c5.7-5.9,11.6-11.6,17-17.7c3.4-3.8,6.4-8.1,8.9-12.5c1.3-2.4,1.2-5.7,1.6-8.6c0.3-2.5-0.9-4.4-3.3-4.9
			c-5.8-1.2-11.7-2.1-17.6-3.1c-2-0.3-3,1-3.6,2.7c-4.1,11.2-11.1,20.6-18.6,29.6c-5.8,7-12.9,12.5-20.9,17.3
			c-13.6,8.2-28.2,14-42.7,20c-8.1,3.3-15.8,6.7-22.9,13.3c-0.8-2.1-1.2-3.3-1.7-4.6L170.9,128.3z M314,124.1
			c2.7-1.1,5.9-1.6,7.8-3.4c1.9-1.9,3.3-5.1,3.4-7.7c0.1-1.5-2.6-3.4-4.3-4.7c-0.6-0.4-2.7,0.2-3.2,1
			C314.7,113.5,312.4,118.1,314,124.1z M436.2,66.3c5.4-1.4,7.3-6.4,10.7-9.9c3.3-3.4,6.3-6.9,7.5-11.5c-0.4-0.3-0.9-0.6-1.3-0.9
			C447.4,51.4,441.8,58.9,436.2,66.3z"/>
		<path d="M644.7,126.7c4.2-0.5,7.6-0.9,10.9-1.3c7.4-0.9,14.7-1.9,22.1-2.8c0.8-0.1,1.6,0.1,2.5,0.2c2.4,0.3,4.7,0.8,7.2-0.5
			c2-1.1,4.2-0.4,5.8,2.4c-1.5,0.5-2.7,1.1-3.8,1.2c-8.1,0.7-16.2,1.1-24.2,2c-7.1,0.8-14.2,1.9-21.1,3.4
			c-5.9,1.3-12.9,10.5-12.9,16.4c-4.7-1.1-6.9,2.7-9.6,5.2c-3.7,3.3-7.6,6.2-12.4,7.8c-2.6,0.9-4.5,0.2-4.7-2.5
			c-0.2-2.3,0-5.2,1.3-7c2.2-3.2,5.1-6.2,8.2-8.6c5.2-4.1,10.4-8.2,16.8-10.5c1.1-0.4,2.1-1.9,2.5-3.1c1.3-3.7,2.3-7.4,3.4-11.2
			c2.3-7.6,4.2-15.4,7.3-22.7c1.9-4.7,2.6-9.7,5.7-14.2c2.6-3.7,2.5-9.4,3.8-14.1c2.1-7.1,4.5-14.2,6.8-21.3
			c0.3-0.9,0.6-1.9,1.1-2.7c2-3.4,4-4.2,7.4-2.2c3.3,2,7.2,3.9,5.5,9.1c2.1,0.8,2,2.8,2.4,4.6c1.3,7-0.6,13.6-2.7,20.1
			c-2.3,6.9-5.2,13.7-8.5,20.1c-3.6,6.9-8,13.3-12.1,19.9c-1.4,2.3-2.7,4.6-4.2,6.8C647.9,122.7,646.6,124.2,644.7,126.7z M665,44.4
			c-9.5,28.6-20.2,56.4-28.7,85.1c2.5-1.4,4.8-2.9,6.3-4.9c4.1-5.8,8-11.7,11.8-17.7c6.4-10,11.8-20.4,15.3-31.9
			c2.3-7.6,3.4-15.2,2.5-23C671.8,48.4,670,45.6,665,44.4z M609.4,157.9c6.7-6.6,15.2-11.2,19.7-19.8c-8.1,2.8-14.2,8.1-19.6,14.4
			C608.2,154,606.9,155.8,609.4,157.9z"/>
		<path d="M62.2,115.6c6.2-4.4,12.8-5.5,18.9-7.6c2-0.7,4.1-1.4,6.2-1.7c2.9-0.4,4.4,1.6,3.2,4.3c-0.6,1.3-1.6,2.6-2.6,3.6
			c-4,4.1-6.2,9-6.6,14.6c6.3,5.8,15.1-0.4,16.9-7.2c0.7-2.6,0.7-2.6,3.1-2.9c0.2,9.9-9.6,17.1-18.7,13.7c-2.6-1-3.3-3-3.3-5.5
			c0-4.8,2.7-8.5,5.1-12.3c0.9-1.4,1.8-2.7,2.3-5c-2,0.3-4.1,0.1-5.9,0.8c-6.6,2.7-13.2,5.6-19.6,8.5c-1,0.5-2,1.8-2.4,2.9
			c-3.5,9.8-9.1,18.4-14.7,27c-1,1.6-1.8,3.3-2.2,4c-4.1,3.7-7.3,6.9-10.9,9.6c-4.4,3.3-8.7,7.1-14.5,7.6c-4.2-5.2-3.5-10-0.5-15
			c5.8-9.6,12.2-18.2,21.4-25c7.1-5.3,13.9-10.5,22.2-13.5c1-3.8,1.9-7.7,3-11.6c2.7-9.1,5.6-18.1,8.2-27.1
			c1.8-6.2,4.2-12.5,4.5-18.8c0.6-10.1,3.6-20.3,1-30.5c-0.4-1.4-0.7-2.9-1.4-4.2c-2.4-4.6-7.7-5.4-11.7-2.1
			c-3.8,3.1-5.5,7.5-7,11.8c-2.5,6.9-4.1,14-6.4,21c-4.6,14.2-5,29.2-8.7,44.7c-1.3-5.7,1.3-10.3,0.7-15c-3.2,8.2-3.3,16.9-4.6,25.5
			c0-2.7-0.2-5.4,0.1-8.1c0.5-4.4,1.2-8.8,1.9-13.2c0.5-3.8,0.8-7.6,1.7-11.2c1.9-7.5,4.2-14.9,6.3-22.4c0.8-2.9,1.2-5.8,2-8.7
			c1.6-5.4,2.9-10.9,5.2-16c1.8-4.1,4.3-8.1,7.5-11.2c5.7-5.5,14.6-2.4,16.6,5.4c2.1,8.2,2,16.5,0.5,24.8c-1.4,7.5-2.5,15.1-4,22.5
			c-0.9,4.4-2.3,8.7-3.6,12.9c-2.7,8.5-5.5,17-8.2,25.5C62.5,112.2,62.5,113.9,62.2,115.6z M56.9,121.2c-0.3-0.2-0.6-0.4-0.9-0.6
			c-1.4,0.8-2.8,1.6-4.2,2.4c-9.3,5.2-17.4,12.1-24.3,20.1c-3.7,4.2-6.6,9.1-9.7,13.8c-3.3,4.8-3,7.6,0.6,11.8
			C37.1,157.5,48.6,140.6,56.9,121.2z"/>
		<path d="M134.4,117.9c4.8-8.5,9.7-17,14.5-25.6c-0.3-0.3-0.5-0.6-0.8-1c-1.3,0.8-2.6,1.5-3.8,2.3c-8.1,5.7-16.3,11.3-25.4,15.4
			c-3,1.3-6.1,2.6-9.3,3.6c-3.2,1-6.5,1.4-8.8,4.1c-0.3,0.4-1.2,0.2-3.1,0.4c1.1-1.8,1.6-3.3,2.5-3.8c2.2-1.1,4.6-1.8,7-2.5
			c9.3-2.6,17.8-6.8,25.6-12.5c5.9-4.2,12.3-7.8,18.1-12c2.7-2,5.3-4.7,7-7.6c5.3-9.2,10-18.7,15.3-27.9c2.5-4.3,5.6-8.2,8.5-12.3
			c0.4-0.5,0.9-1.2,1.4-1.3c1.4-0.2,3.2-0.5,4.1,0.1c0.7,0.5,0.7,2.6,0.3,3.9c-1.7,6.5-6,11.6-9,17.5c-4,7.8-9.6,14.1-16.2,19.8
			c-6,5.2-9.3,12.7-13.5,19.4c-3.9,6.2-7.6,12.4-11.5,18.5c-0.5,0.8-1.2,1.4-1.9,2.1C135.2,118.4,134.8,118.1,134.4,117.9z
			 M185.9,41.1c-3.6-0.3-5.3,2.3-6.7,4.8c-5.2,8.9-10.3,18-15.5,27.1c0.6-0.1,1.5,0.1,1.9-0.2C174.5,63.6,179.6,52.1,185.9,41.1z"/>
		<path d="M171.1,128.2c-0.6-0.6-1.6-1.1-1.7-1.7c-0.5-4.5-4.7-6.2-7.2-9.1c-0.8-0.9-2.7-1.1-4-1c-7.2,0.6-12.4,5.2-17.5,9.8
			c-4.2,3.7-8.3,7.5-12.5,11.3c-1.5,1.4-3.3,2.2-6,1c5.4-1.9,9-5.2,12.6-8.9c3.9-4,8.2-7.7,12.5-11.4c3.7-3.2,8.4-3.7,13.1-4.1
			c0.8-0.1,1.9,0,2.4,0.5c3,3.1,6,6.2,8.6,9.5c0.6,0.8-0.1,2.7-0.2,4.2C170.9,128.3,171.1,128.2,171.1,128.2z"/>
	</g>
</g>
</svg>
