<?xml version="1.0" encoding="UTF-8"?>
<svg version="1.0" xmlns="http://www.w3.org/2000/svg" width="293" height="173" >
<path d="M72.941,81.887c-6.288,1.104-13.25,1.242-19.428-0.432c-15.903-4.309-5.044-22.227,0.838-30.654 c7.583-10.865,16.922-20.853,27.173-29.241c6.273-5.133,14.245-10.857,22.547-11.85c19.049-2.275-4.92,33.351-7.893,37.423 c-9.114,12.48-19,24.32-27.847,37.021c-7.85,11.271-15.271,22.834-22.574,34.465c-5.753,9.162-11.378,18.408-17.337,27.439 c-3.605,5.463-7.39,11.844-12.664,15.897c-3.71,2.853-5.34-0.158-5.269-3.955c0.127-6.766,3.548-13.713,6.554-19.592 c8.138-15.916,20.62-31.698,36.606-40.228c5.799-3.094,12.278-4.657,18.832-3.815c2.234,0.287,2.207-3.217,0-3.5 c-16.515-2.122-31.219,9.943-41.579,21.385c-10.345,11.425-20.254,26.213-23.396,41.55c-0.771,3.761-1.192,8.763,1.935,11.621 c2.743,2.507,6.34,1.021,8.834-1.022c4.88-4,8.498-9.646,11.995-14.818c5.9-8.724,11.353-17.754,16.935-26.682 c7.181-11.486,14.492-22.889,22.142-34.069c8.726-12.756,18.334-24.737,27.673-37.031c6.642-8.743,13.177-18.097,16.602-28.639 c1.504-4.629,2.299-10.438-1.133-14.405c-3.141-3.631-8.974-2.781-13.004-1.62c-8,2.307-15.112,7.595-21.459,12.789 c-9.809,8.026-18.352,17.737-25.845,27.924c-4.66,6.334-9.761,14.034-10.565,22.095c-1.708,17.117,20.527,17.379,32.256,15.32 C76.092,84.872,75.148,81.499,72.941,81.887L72.941,81.887z"/>
<path d="M77.728,78.319c-6.163,5.34-11.548,14.217-5.559,21.561c0.606,0.743,1.849,0.619,2.475,0 c4.623-4.571,9.356-10.608,9.777-17.31c-0.428,0.563-0.856,1.125-1.285,1.688c28.792-9.53,55.824-34.335,66.288-62.81 c0.842-2.289,1.966-7.034-1.887-7.117c-3.82-0.083-8.122,5.264-10.459,7.62c-16.589,16.721-30.364,36.711-43.516,56.141 c-3.274,4.838-6.469,9.729-9.624,14.646c-1.096,1.708,1.349,3.485,2.749,2.12c1.958-1.909,4.065-3.684,6.305-5.252 c1.258-0.88,2.823-1.982,4.394-2.15c1.651-0.177-0.437,6.964-0.654,7.708c-0.508,1.737,1.676,2.863,2.925,1.702 c1.93-1.793,4.058-3.359,6.339-4.674c2.383-1.372,5.018-2.173,5.497,1.429c0.224,1.678,0.487,3.554,1.691,4.86 c4.24,4.604,11.681,0.563,15.765-2.346c1.822-1.297,0.077-4.334-1.766-3.021c-2.373,1.689-5.013,3.073-7.843,3.785 c-5.669,1.426-3.295-6.271-6.713-8.545c-4.975-3.311-11.972,2.809-15.445,6.037c0.975,0.567,1.95,1.135,2.925,1.702 c1.223-4.182,3.144-14.126-4.607-11.774c-4.254,1.29-8.165,5.02-11.286,8.064c0.916,0.707,1.832,1.414,2.748,2.12 c13.334-20.783,27.524-41.167,43.496-60.026c4.32-5.101,8.794-10.236,13.912-14.562c0.53-0.448,2.609-2.2,3.083-2.108 c-1.098-0.212-0.458-0.811-0.793,0.71c-0.241,1.097-0.66,2.16-1.065,3.205c-10.361,26.692-36.165,50.149-63.388,59.16 c-0.781,0.259-1.233,0.872-1.285,1.688c-0.357,5.676-4.86,10.986-8.752,14.835c0.825,0,1.65,0,2.475,0 c-4.588-5.625,1.153-12.794,5.559-16.611C81.911,79.313,79.424,76.849,77.728,78.319L77.728,78.319z"/>
<path d="M155.396,40.057c6.351-2.572,13.168-4.8,19.981-5.637c2.504-0.307,7.942-1.009,8.765,2.326 c0.509,2.063-0.954,4.705-1.842,6.436c-2.232,4.353-5.384,8.254-8.484,12.002c-8.238,9.957-17.401,19.074-25.35,29.291 c-3.68,4.731-7.45,9.705-9.683,15.318c-1.6,4.023-0.328,8.573,4.703,7.91c0.579-0.076,1.161-0.159,1.719-0.34 c2.138-0.693,1.223-4.074-0.93-3.375c-1.013,0.329-1.145,0.361-2.27,0.256c-0.153-0.015-0.315-0.051-0.479-0.354 c-0.215-0.396,0.219-1.986,0.488-2.777c2.126-6.235,7.126-11.938,11.147-16.981c8.148-10.215,17.539-19.356,25.653-29.587 c3.874-4.884,15.554-20.292,3.579-23.427c-7.734-2.025-17.418,1.744-24.625,4.318c-1.108,0.396-2.213,0.805-3.304,1.246 C152.401,37.518,153.303,40.904,155.396,40.057L155.396,40.057z"/>
<path d="M185.204,37.402c-2.738,6.803-6.66,15.904-5.345,23.355c2.376,13.454,22.606-8.97,25.725-11.294 c0.79-0.589,2.671-1.237,2.477-1.792c0.523,1.489-0.338,3.742-0.716,5.168c-1.569,5.918-3.992,11.637-6.241,17.318 c-2.366,5.977-4.826,11.933-6.813,18.05c-0.891,2.742-2.835,7.549-1.034,10.313c1.227,1.884,4.258,0.132,3.021-1.766 c-1.438-2.209,1.73-8.707,2.479-10.831c2.125-6.035,4.594-11.948,6.932-17.902c1.363-3.472,10.411-21.396,3.57-23.517 c-3.616-1.122-8.379,4.241-10.551,6.272c-1.036,0.969-13.813,13.609-15.195,10.2c-1.544-3.809,0.752-9.688,1.838-13.356 c0.93-3.139,2.007-6.252,3.229-9.29C189.423,36.237,186.036,35.336,185.204,37.402L185.204,37.402z"/>
<path d="M235.994,48.736c-2.576-0.728-5.564-0.658-8.077,0.239c-6.026,2.154-7.346,8.813-7.108,14.509 c0.094,2.249,3.594,2.258,3.5,0c-0.181-4.338,0.351-9.819,5.168-11.346c1.809-0.573,3.871-0.513,5.588-0.027 C237.24,52.727,238.163,49.349,235.994,48.736L235.994,48.736z"/>
<path d="M268.834,59.972c5.502-2.715,11.69-6.41,15.334-11.457c2.848-3.943,2.526-7.68,0.815-11.935 c-3.066-7.628-9.723-8.345-16.056-3.686c-7.033,5.176-12.258,12.958-17.077,20.096c-6.967,10.317-13.614,21.264-18.778,32.612 c-1.312,2.882-3.959,7.773-1.635,10.771c1.645,2.12,5.225,0.119,6.896-0.834c1.853-1.058,3.58-2.32,5.377-3.468 c1.087-0.694,3.622-0.858,3.218-3.069c-0.427-2.332-4.344-2.188-5.887-1.468c-4.639,2.168-3.448,8.636-2.569,12.578 c0.316,1.42,1.967,1.52,2.925,0.772c3.445-2.686,9.78-5.477,14.713-3.164c3.055,1.432,3.818,5.088,6.609,6.771 c1.831,1.104,3.873,1.519,5.993,1.142c8.379-1.491,15.722-9.472,20.859-15.799c1.409-1.735-1.052-4.228-2.475-2.475 c-4.063,5.004-14.599,17.814-22.009,14.473c-2.665-1.201-3.664-4.952-6.251-6.543c-2.777-1.707-5.638-2.246-8.868-1.844 c-3.99,0.498-7.9,2.512-11.047,4.965c0.975,0.257,1.95,0.515,2.925,0.772c-0.38-1.702-2.153-9.338,1.91-8.595 c1.325,0.242,2.122-3.042,0.344-2.638c-0.436,0.099-0.862,0.346-1.255,0.557c-2.494,1.345-4.693,3.184-7.201,4.52 c-0.563,0.3-2.018,0.606-1.731,0.871c-0.089-0.082,1.034-3.738,1.425-4.748c4.305-11.12,11.295-21.644,17.704-31.613 c2.596-4.037,18.983-31.447,26.952-22.749c1.707,1.864,3.313,5.95,2.945,8.481c-0.907,6.255-10.771,11.164-15.871,13.681 C265.044,57.948,266.818,60.967,268.834,59.972L268.834,59.972z"/>
<path d="M266.714,80.794c1.235,1.339,2.472,2.679,3.707,4.018c1.533,1.662,4.002-0.819,2.475-2.475 c-1.235-1.339-2.472-2.679-3.707-4.018C267.655,76.657,265.187,79.139,266.714,80.794L266.714,80.794z"/>
</svg>