<?xml version="1.0" encoding="UTF-8"?>
<svg version="1.0" xmlns="http://www.w3.org/2000/svg" width="342" height="102" >
<path d="M68.976,20.25c1.019-5.231,4.553-8.327,9.477-9.98c0.222-0.074-2.069,2.996-2.341,3.267 c-1.444,1.436-2.963,2.793-4.506,4.12c-8.431,7.246-18.218,13.003-28.886,16.21c-11.017,3.312-26.633,4.051-35.269-4.995 c-4.732-4.958-5.42-14.111,0.849-18.128c1.104-0.708-0.509-1.308-1.266-0.823c-7.71,4.94-6.038,15.423-0.109,21.023 c10.65,10.062,29.545,6.854,41.793,2.26c11.519-4.319,22.347-11.98,30.75-20.945c3.594-3.833-0.396-3.701-3.392-2.489 c-4.858,1.965-8.039,5.435-9.053,10.645C66.844,21.339,68.816,21.073,68.976,20.25L68.976,20.25z"/>
<path d="M71.579,30.209c0.834-0.48,4.313-2.237,3.971-3.498c-0.422-1.557-2.997-0.746-4.029-0.398 c-1.563,0.528-14.299,6.273-11.044,8.651c1.213,0.886,3.861-0.425,4.911-0.915c1.543-0.719,4.743-2.98,6.491-1.962 c0.392,0.229,0.918,0.194,1.352,0.149c4.773-0.494,9.677-3.23,13.946-5.212c7.388-3.43,14.646-7.173,21.632-11.366 c3.094-1.856,9.222-4.647,10.47-8.395c0.97-2.911-5.601,0.418-6.001,0.66c-6.322,3.825-11.987,8.912-17.599,13.679 c-4.511,3.833-8.846,7.896-13.435,11.634c-0.818,0.667,1.114,0.519,1.516,0.191c7.985-6.505,15.464-13.598,23.574-19.965 c1.995-1.567,4.032-3.082,6.137-4.5c0.429-0.289,4.46-3.122,3.813-1.179c-1.112,3.339-7.727,6.312-10.404,7.919 c-9.772,5.864-20.442,11.742-31.351,15.187c-1.453,0.458-1.981,0.164-3.355-0.063c-1.696-0.28-3.828,0.846-5.26,1.53 c-0.812,0.388-6.403,2.974-4.689,0.47c0.956-1.396,2.951-2.445,4.356-3.284c1.563-0.934,3.224-1.703,4.921-2.357 c1.359,0.631,1.516,1.171,0.471,1.62c-0.483,0.362-1.022,0.682-1.549,0.985C69.297,30.438,71.041,30.519,71.579,30.209 L71.579,30.209z"/>
<path d="M95.202,28.203c-0.506,0.03,0.225,0.013,0.37,0.023c0.082,0.006,0.537,0.096,0.676,0.214 c0.89,0.764-2.441,2.983-2.848,3.271c-1.069,0.756,0.591,1.006,1.199,0.576c0.843-0.596,4.787-3.022,3.484-4.562 c-0.568-0.672-1.818-0.643-2.619-0.596C94.508,27.186,93.865,28.282,95.202,28.203L95.202,28.203z"/>
<path d="M101.967,32.082c2-1.245,4.082-2.375,6.223-3.355c0.75-0.343,4.078-1.979,3.735-0.183 c-0.196,1.026-1.074,2.075-1.728,2.858c-0.779,0.934,1.069,1.172,1.605,0.528c0.93-1.114,1.857-2.41,2.134-3.857 c0.322-1.686-1.783-1.884-2.927-1.677c-3.658,0.661-7.192,2.914-10.31,4.855C99.588,31.943,101.203,32.558,101.967,32.082 L101.967,32.082z"/>
<path d="M121.97,26.593c0.277,0.002,0.149,0.003,0.284,0.032c0.185,0.04,0.426,0.095,0.546,0.336 c0.21,0.42-0.067,0.92-0.272,1.281c-0.643,1.127-1.695,2.039-2.646,2.895c-0.316,0.285-0.192,0.66,0.203,0.759 c0.466,0.117,1.015-0.05,1.366-0.366c1.012-0.911,4.129-3.389,3.247-5.156c-0.351-0.703-1.266-0.962-2.001-0.967 c-0.446-0.003-1.018,0.136-1.27,0.546C121.188,26.341,121.627,26.591,121.97,26.593L121.97,26.593z"/>
<path d="M141.067,27.25c13.468-3.35,29.751-7.455,40.467-16.681c0.363-0.313-1.406-0.089-1.736,0.193 c-3.317,2.846-6.772,5.536-10.273,8.15c-6.27,4.682-14.355,11.35-22.379,12.354c-3.572,0.447-6.151-3.504-5.283-6.805 c1.155-4.393,7.831,1.919,8.487,3.604c2.734,7.017,14.771-2.766,16.853-4.831c0.358-0.355-1.429-0.111-1.736,0.193 c-2.818,2.797-8.034,7.839-12.241,5.276c-1.135-0.691-1.364-2.52-2.19-3.528c-1.239-1.512-3.361-2.193-5.214-2.51 c-2.587-0.443-5.907,0.521-6.06,3.499c-0.6,11.682,16.381,2.468,20.194,0.215c5.16-3.049,10.021-6.622,14.757-10.284 c1.729-1.337,3.434-2.708,5.12-4.1c2.428-2.002,0.922-1.947-1.412-0.096c-10.147,8.05-25.087,11.761-37.486,14.846 C139.807,27.028,139.948,27.529,141.067,27.25L141.067,27.25z"/>
<path d="M173.477,30.321c1.962-0.448,5.663-1.366,6.014-3.741c0.388-2.629-4.443-0.851-5.389-0.478 c-2.637,1.041-5.384,2.512-7.451,4.479c-2.06,1.959,0.577,1.984,2.16,1.74c0.748-0.116,1.743-0.854,0.379-0.644 c-1.583,0.244-1.721-0.402-0.652-1.419c1.379-1.313,3.14-2.305,4.832-3.153c0.714-0.358,3.339-1.929,3.998-0.847 c0.742,1.219-0.621,2.246-1.564,2.718c-0.467,0.233-0.966,0.412-1.465,0.563c-0.094,0.029-0.907,0.235-0.482,0.138 C173.132,29.843,172.126,30.63,173.477,30.321L173.477,30.321z"/>
<path d="M181.934,24.871c-1.346,0.588-7.232,2.956-6.258,5.064c0.75,1.624,3.709,0.868,4.923,0.462 c1.649-0.551,3.246-1.407,4.683-2.387c1.085-0.74-0.555-1.15-1.23-0.689c-0.868,0.592-1.792,1.101-2.742,1.549 c-0.421,0.199-4.043,1.58-3.746,0.194c0.2-0.936,2.218-1.796,2.956-2.193c0.722-0.388,1.463-0.749,2.214-1.077 C183.959,25.258,182.849,24.471,181.934,24.871L181.934,24.871z"/>
<path d="M192.142,25.861c0.37-0.121,0.749-0.211,1.136-0.26c1.072-0.135,0.042,1.222-0.261,1.573 c-1.084,1.255-3.242,2.036-4.563,2.247c-0.379,0.06-0.996,0.237-1.089,0.687c-0.091,0.438,0.564,0.515,0.849,0.469 c2.694-0.43,5.736-1.667,7.17-4.114c1.451-2.478-2.189-2.097-3.524-1.659C190.723,25.177,190.984,26.241,192.142,25.861 L192.142,25.861z"/>
<path d="M202.368,24.592c-0.038-0.262-0.014,0.041-0.035,0.173c-0.051,0.314-0.199,0.606-0.342,0.888 c-0.867,1.71-2.508,3.063-3.964,4.244c-1.02,0.828,0.535,1.477,1.279,0.874c1.683-1.365,3.357-2.857,4.451-4.755 c0.32-0.556,0.637-1.279,0.542-1.941C204.172,23.187,202.235,23.67,202.368,24.592L202.368,24.592z"/>
<path d="M219.628,25.532c1.483-4.777-10.969-1.2-11.969,2.021c-1.313,4.231,13.357-2.03,14.595-2.643 c-0.451-0.123-0.902-0.245-1.354-0.367c-8.104,7.73-16.619,15.181-25.711,21.728c-2.704,1.947-5.529,3.804-8.553,5.222 c-1.322,0.619-2.654,1.073-4.135,0.957c-3.312-0.259,1.27-3.256,2.011-3.711c7.951-4.883,24.341-10.23,32.356-3.249 c6.467,5.633-1.378,18.15-6.696,21.558c-6.794,4.353-16.822,4.809-24.335,2.281c-7.98-2.687-7.615-9.552-2.882-15.449 c4.004-4.99,11.396-7.647,17.657-8.042c0.648-0.041,2.067-1.091,0.773-1.01c-4.913,0.309-9.791,1.844-14.113,4.155 c-5.189,2.773-12.222,10.056-9.268,16.47c2.431,5.278,10.634,6.151,15.599,6.319c6.718,0.229,13.868-1.425,19.386-5.345 c5.416-3.848,10.346-14.016,6.782-20.3c-3.843-6.776-15.835-4.741-21.833-3.451c-4.425,0.951-8.724,2.59-12.777,4.58 c-1.813,0.889-5.33,2.5-5.845,4.768c-0.792,3.496,8.92-0.239,9.605-0.583c12.49-6.257,23.476-17.08,33.509-26.651 c0.821-0.784-1.001-0.542-1.354-0.367c-1.577,0.781-3.194,1.477-4.822,2.144c-0.938,0.378-1.887,0.723-2.85,1.034 c-1.268,0.723-1.926,0.112-1.974-1.834c0.76-0.504,7.271-3.187,6.271,0.035C217.515,26.409,219.441,26.137,219.628,25.532 L219.628,25.532z"/>
<path d="M238.268,23.845c-2.313-0.55-6.009,0.268-8.078,1.229c-0.386,0.18-5.932,3.61-3.294,4.137 c3.351,0.669,8.059-2.005,11.188-3.084c2.561-0.883,4.822-2.491,7.176-3.813c1.919-1.078,3.859-2.117,5.82-3.117 c1.015-0.518,2.041-0.988,3.09-1.43c1.474-0.622,0.673-1.04-0.079-0.634c-2.747,1.48-5.594,2.773-8.346,4.25 c-1.324,0.711-11.161,5.871-5.681,7.106c0.556,0.125,2.27-0.736,1.203-0.977c-3.365-0.759,6.583-6.146,7.803-6.78 c2.155-1.12,5.448-2.019,7.182-3.781c0.088-0.089,0.119-0.271,0.008-0.359c-2.17-1.705-11.364,4.782-13.093,5.752 c-1.919,1.078-3.744,2.368-5.82,3.087c-2.483,0.86-4.975,1.7-7.479,2.5c2.835-0.905,3.851-3.906,7.196-3.11 C237.62,24.954,239.333,24.098,238.268,23.845L238.268,23.845z"/>
<path d="M262.247,23.35c-2.465-1.461-5.957-0.321-8.391,0.56c-1.743,0.63-6.581,2.976-2.655,4.109 c2.451,0.707,5.215-1.187,7.171-2.323c2.789-1.622,6.195-2.037,9.291-2.859c1.555-0.413,2.23-0.281,1.481,1.276 c-0.295,0.559-0.637,1.087-1.024,1.585c-0.908,0.411-1.345,1.06-1.311,1.948c0.736-0.125,1.747-0.857,0.383-0.626 c-1.042,0.176-2.143,0.331-3.038,0.929c-0.063,0.039-0.096,0.093-0.098,0.164c0.475,0.882,3.493-0.676,3.968-1.002 c0.856-0.586,5.427-5.351,2.504-5.335c-1.279,0.007-2.565,0.438-3.788,0.763c-2.362,0.627-4.764,0.969-7.062,1.817 c-1.674,0.618-3.186,1.606-4.729,2.483c-1.443,0.932-2.583,0.71-3.418-0.666c1.717-1.744,3.884-2.656,6.5-2.736 c0.755-0.043,1.718,0.15,2.389,0.547C260.877,24.254,262.423,23.454,262.247,23.35L262.247,23.35z"/>
<path d="M275.073,22.604c7.445-1.971-0.345,3.944,1.563,5.2c1.064,0.701,2.276,0.592,3.496,0.496 c3.388-0.266,6.741-1.142,9.94-2.253c11.135-3.87,18.312-12.744,18.895-24.639c0.012-0.241-1.905-0.022-1.932,0.518 c-0.612,12.487-8.449,21.238-20.303,24.584c-1.601,0.452-3.245,0.763-4.894,0.973c-0.542,0.069-1.088,0.118-1.634,0.139 c-3.094,0.123-0.573-3.638-0.253-4.466c0.94-2.434-4.112-1.334-5.023-1.093C273.805,22.359,273.952,22.901,275.073,22.604 L275.073,22.604z"/>
<path d="M304.456,85.789c10.828-2.448,23.392-9.547,24.847-21.568c2.076-17.145-19.269-20.953-31.81-21.075 c-12.162-0.118-24.329,2.477-35.946,5.866c-10.446,3.048-22.247,6.645-30.789,13.693c-3.104,2.561-5.048,6.507-1.124,9.232 c4.107,2.854,10.252,2.748,14.986,2.334c9.711-0.849,33.504-12.432,18.404-23.088c-8.068-5.694-20.119-6.012-29.606-5.911 c-11.731,0.125-23.461,2.242-34.726,5.421c-10.739,3.03-21.15,7.424-30.354,13.772c-2.895,1.997-13.503,9.538-8.964,14.265 c3.489,3.635,11.359-0.188,14.705-1.875c5.991-3.021,14.24-9.514,10.801-17.086c-3.03-6.67-12.556-8.978-19.121-9.493 c-9.118-0.716-18.295,0.367-27.26,2.001c-9.202,1.677-18.27,4.176-27.043,7.414c-6.273,2.316-13.02,5.097-18.063,9.619 c-3.205,2.875-4.814,7.308-0.514,9.883c4.693,2.809,11.637,1.203,16.293-0.737c6.321-2.635,12.046-8.703,13.16-15.605 c0.83-5.139-3.703-8.182-7.901-9.737c-13.12-4.861-29.829-2.774-43.311-0.638c-8.032,1.273-15.903,3.808-22.867,8.064 c-4.657,2.846-11.646,11.48-3.707,15.172c5.188,2.413,12.587-1.533,16.814-4.246c4.885-3.134,10.946-8.91,9.221-15.335 c-3.165-11.792-16.233-2.179-10.589,4.573c2.395,2.866,8.323,2.712,11.581,2.985c16.843,1.419,33.922,0.994,50.802,0.949 c30.069-0.081,60.12-0.723,90.174-1.631c22.459-0.68,44.953-1.631,67.426-1.216c12.242,0.226,24.602,0.844,36.397,4.374 c7.449,2.229,15.979,6.072,19.734,13.318c3.358,6.48-1.004,12.904-5.876,17.044c-0.838,0.712,1.09,0.659,1.539,0.277 c5.354-4.55,9.364-10.796,6.269-17.839c-3.51-7.988-14.13-12.093-21.838-14.22c-15.502-4.277-31.996-4.138-47.952-4.085 c-53.825,0.178-107.586,3.144-161.434,2.923c-12.965-0.053-26.397,0.44-39.27-1.48c-3.116-0.465-6.231-1.213-7.02-4.645 c-0.628-2.732,2.191-7.782,5.583-5.007c1.974,1.615,2.984,4.547,2.849,7.036c-0.234,4.321-4.162,7.941-7.312,10.409 c-3.682,2.884-8.527,5.272-13.273,5.329c-2.362,0.027-3.883-1.13-4.917-3.147c-1.685-3.287,0.702-6.594,2.988-8.771 c7.05-6.714,18.169-8.978,27.559-10.289c8.148-1.138,16.424-1.623,24.647-1.294c6.482,0.259,15.352,0.794,20.111,5.865 c5.989,6.382-3.613,16.425-8.854,19.401c-3.653,2.074-19.725,5.377-17.665-3.439c1.53-6.549,12.651-10.229,17.94-12.345 c9.767-3.909,20.106-6.545,30.456-8.348c9.371-1.632,19.29-2.648,28.719-0.928c4.74,0.864,9.073,3.087,12.39,6.621 c4.565,4.866,0.73,10.659-3.331,14.16c-3.687,3.179-9.088,6.132-14.049,6.258c-4.942,0.126-4.415-4.168-2.335-7.15 c7.136-10.232,22.658-15.738,34.024-19.355c12.701-4.041,26.134-6.203,39.464-6.158c8.741,0.03,27.101,0.721,30.225,11.248 c2.783,9.375-13.486,14.738-20.022,15.611c-4.354,0.581-14.601,0.979-16.386-4.517c-0.899-2.768,2.531-5.383,4.35-6.771 c5.658-4.317,12.879-6.784,19.5-9.16c13.915-4.993,28.708-8.431,43.543-8.527c8.99-0.058,19.461,1.322,26.263,7.783 c7.149,6.792,4.886,17.838-1.587,24.153c-4.517,4.407-11.063,7.365-17.192,8.75C303.039,85.144,303.299,86.049,304.456,85.789 L304.456,85.789z"/>
</svg>