<?xml version="1.0" encoding="UTF-8"?>
<svg version="1.0" xmlns="http://www.w3.org/2000/svg" width="259" height="100" >
<path fill="#231F20" d="M46.923,13.809c-1.102,0.007-2.144-0.306-3.116-0.815c-4.213-2.206,0.666-5.286,2.776-6.021 c1.863-0.649,3.872-1.038,5.827-1.281c-0.277-0.265-0.554-0.529-0.832-0.794C48.192,14.479,39.838,21.214,34.457,29.6 c-6.242,9.728-11.63,20.867-14.525,32.093c-1.51,5.854-1.796,11.57-4.464,17.167c-1.216,2.55-6.978,9.002-8.626,3.234 c-0.923-3.231,2.05-7.323,3.8-9.699c5.271-7.158,13.953-12.09,20.624-17.9C38,48.627,44.627,42.709,51.97,37.594 c1.078-0.75-0.511-1.385-1.273-0.854c-8.788,6.121-16.565,13.418-24.703,20.343C19.199,62.865,11.431,67.41,6.758,75.249 c-1.441,2.42-3.795,8.698,0.34,10.072c4.32,1.436,7.516-1.77,9.627-5.178c3.673-5.928,3.703-12.955,5.388-19.49 c1.932-7.493,5.404-14.715,8.911-21.576c3.733-7.303,8.196-13.684,13.532-19.871c3.52-4.081,7.049-8.968,8.864-14.104 c0.193-0.546-0.328-0.856-0.832-0.794c-3.859,0.479-9.333,1.293-11.759,4.694c-2.666,3.737,3.112,6.205,5.913,6.188 C47.835,15.185,48.237,13.801,46.923,13.809L46.923,13.809 M55.078,8.872c1.486-0.767,10.247-5.491,11.29-3.113c0.524,1.195,0.033,2.634,0.952,3.739 c3.682,4.428,15.427-1.896,18.872-3.358c0.304-0.13,1.019-0.706,0.252-0.765C77.032,4.65,71.128,15.468,67.411,22.38 c-3.227,5.998-5.925,12.328-8.234,18.732c-1.474,4.085-2.69,8.334-5.033,12.033c-2.093,3.307-1.921-3.53-1.945-3.293 c0.073-0.728,0.242-1.459,0.426-2.166c0.148-0.565-1.771-0.271-1.918,0.293c-0.4,1.528-1.585,6.953,1.183,7.146 c3.36,0.233,4.75-3.026,5.981-5.663c6.264-13.411,9.095-30.563,20.983-40.583c1.473-1.241,3.321-2.131,5.208-2.502 c2.76-0.544-1.472,0.355-1.932,0.543c-3.32,1.354-7.269,3.078-10.943,2.896c-2.477-0.122-2.56-2.397-2.835-4.281 C67.723,1.22,55.74,7.524,53.922,8.462C52.773,9.055,54.54,9.149,55.078,8.872L55.078,8.872 M63.227,51.95c0.389,0.167,0.778,0.333,1.167,0.5c0.417,0.179,0.993,0.023,1.365-0.193 c0.241-0.14,0.604-0.525,0.182-0.707c-0.389-0.167-0.778-0.333-1.167-0.5c-0.417-0.179-0.993-0.023-1.365,0.193 C63.168,51.383,62.804,51.769,63.227,51.95L63.227,51.95 M92.364,13.57c-2.892,2.807-1.005,5.407,2.652,5.389c4.175-0.02,9.922-3.867,12.062-7.316 c2.072-3.338-0.13-4.779-3.446-4.317c-5.895,0.821-11.744,5.111-15.404,9.595c-3.438,4.211-6.247,9.243-9.127,13.839 c-3.141,5.01-6.285,10.239-8.043,15.919c-0.99,3.197-0.708,6.507,3.151,7.104c4.825,0.748,9.428-1.357,12.594-5.02 c0.806-0.931-1.052-1.115-1.604-0.525c-2.511,2.678-4.752,5.602-6.782,8.656c-3.525,5.305-3.343,11.214-5.889,16.867 c-1.048-0.087-2.097-0.173-3.146-0.26c-0.671-2.775,0.164-4.754,2.504-5.937c1.281-1.003,2.714-1.78,3.912-2.896 c1.604-1.497,3.105-2.299,5.003-3.335c3.076-1.678,5.545-5.031,7.669-7.737c0.752-0.958-1.087-1.186-1.605-0.525 c-1.361,1.734-2.822,3.385-4.355,4.968c-1.967,2.03-4.508,2.437-6.471,4.266c-3.76,3.505-13.891,8.498-6.475,13.82 c4.353,3.124,6.398-6.86,6.834-8.845c1.616-7.355,5.269-13.037,10.405-18.517c-0.535-0.175-1.07-0.351-1.604-0.525 c-2.744,3.172-7.539,5.796-11.714,3.668c-2.125-1.083-0.533-5.297-0.008-6.805c2.223-6.391,6.222-12.29,9.871-17.933 c4.155-6.424,7.871-12.668,14.794-16.47c1.487-0.816,3.083-1.418,4.712-1.88c3.989-1.131,3.047,1.982,1.31,3.875 c-1.587,1.729-3.773,2.994-5.856,4.003c-0.986,0.474-2.02,0.777-3.103,0.909c-4.929,0.69-1.877-2.886-1.234-3.51 C94.829,13.261,92.95,13.001,92.364,13.57L92.364,13.57 M84.013,51.286c5.595-0.929,13.05-1.921,17.412-5.854c0.797-0.719-1.125-0.541-1.517-0.197 c-1.81,1.585-6.278,5.055-5.279,7.83c0.63,1.75,4.723-0.092,5.625-0.425c10.711-3.96,20.994-10.23,30.532-16.424 c3.436-2.23,7.846-4.837,9.828-8.604c1.521-2.887,0.645-5.622-3.005-4.614c-6.552,1.81-11.707,7.588-15.315,13.056 c-1.905,2.888-3.372,6.059-4.79,9.204c-1.042,2.313-1.976,5.739-4.097,7.312c-0.873,0.646,1.017,0.467,1.338,0.312 c2.856-1.382,5.744-2.699,8.655-3.961c1.939-0.841,3.903-1.661,5.925-2.284c1.682-0.519-0.587,2.9-0.438,3.822 c0.034,0.085,0.096,0.14,0.186,0.166c1.945,0.625,11.224-3.841,11.461-3.031c0.438,1.494-0.575,3.02,1.318,3.31 c1.179,0.181,2.314-0.945,3.227-1.508c2.288-1.412,4.878-2.465,7.427-3.297c3.9-1.273,1.523,2.608,4.186,3.585 c2.716,0.995,6.776-1.514,9.055-2.636c1.159-0.57-0.612-0.695-1.16-0.426c-1.953,0.962-6.773,3.57-7.552,0.23 c-0.274-1.175,0.231-1.778-1.029-2.072c-2.13-0.496-4.85,0.863-6.761,1.617c-1.591,0.628-3.136,1.389-4.646,2.188 c-2.025,1.071-2.133,1.115-2.133-1.509c0-1.749-3.41-0.553-4.087-0.287c-2.183,0.858-4.289,1.892-6.471,2.754 c-1.833,0.726,0.461-3.197,0.224-3.633c-0.499-0.914-2.292-0.266-3.02-0.07c-5.363,1.437-10.542,4.204-15.526,6.616 c0.446,0.104,0.892,0.208,1.338,0.312c2.098-1.556,3.034-4.505,4.051-6.789c2.321-5.211,4.861-10.195,8.531-14.606 c1.604-1.93,8.47-9.171,11.594-7.317c1.801,1.068-0.941,4.644-1.53,5.411c-1.923,2.501-4.927,4.299-7.507,6.031 c-7.352,4.934-15.19,9.24-23.11,13.182c-2.984,1.485-6.061,3.029-9.277,3.954c-2.82,0.811,0.374-3.757,0.848-4.317 c0.875-1.034,1.882-1.99,2.9-2.882c-0.505-0.065-1.011-0.132-1.517-0.197C96.09,48.678,89.264,49.56,84.32,50.38 C83.469,50.521,82.667,51.509,84.013,51.286L84.013,51.286 M178.298,46.208c3.197-8.396-11.281-1.93-13.441,1.033c-1.65,2.264-0.109,3.874,2.429,3.3 c3.432-0.776,6.616-2.779,9.478-4.766c-0.521-0.05-1.041-0.101-1.562-0.15c-0.694,4.249,0.999,5.736,4.829,4.187 c3.174-1.285,6.294-2.697,9.482-3.949c0.897-0.352,5.033-2.468,3.355,0.247c-0.527,0.853-1.995,2.535-1.726,3.692 c0.113,0.491,1.068,0.229,1.344,0.126c2.743-1.032,12.286-9.371,12.061-2.638c-0.12,3.593,3.334,2.611,6.41,2.571 c12.554-0.166,28.252-5.037,39.938,1.267c0.543,0.293,2.326-0.498,1.541-0.922c-11.812-6.371-28.045-1.857-40.722-1.419 c-3.133,0.108-5.004,0.694-5.217-2.494c-0.114-1.712-0.529-3.049-2.453-3.08c-4.838-0.077-8.147,4.377-12.315,5.945 c0.448,0.042,0.896,0.084,1.345,0.126c-0.25-1.074,3.932-5.004,2.356-5.729c-1.191-0.549-3.094,0.26-4.187,0.636 c-3.321,1.14-6.543,2.548-9.771,3.926c-1.09,0.465-2.181,0.929-3.286,1.356c-1.548,0.6-1.147-3.536-1.056-4.098 c0.114-0.699-1.295-0.335-1.562-0.15c-1.069,0.743-9.859,6.021-9.541,3.077c0.385-3.547,12.843-8.418,10.34-1.844 C176.132,47.078,178.059,46.838,178.298,46.208L178.298,46.208 M107.307,24.679c1.25-0.584,2.5-1.167,3.75-1.75c0.248-0.116,0.813-0.477,0.504-0.815 c-0.292-0.322-0.946-0.199-1.285-0.042c-1.25,0.584-2.5,1.167-3.75,1.75c-0.248,0.116-0.813,0.477-0.504,0.815 C106.314,24.959,106.968,24.836,107.307,24.679L107.307,24.679z"/>
</svg>