<?xml version="1.0" standalone="no"?>
<!DOCTYPE svg PUBLIC "-//W3C//DTD SVG 20010904//EN"
 "http://www.w3.org/TR/2001/REC-SVG-20010904/DTD/svg10.dtd">
<svg version="1.0" xmlns="http://www.w3.org/2000/svg"
 width="468pt" height="154pt" viewBox="0 0 468 154"
 preserveAspectRatio="xMidYMid meet">
<metadata>
Created by POTRACE VERSION, written by Peter Selinger 2001-2007
</metadata>
<g transform="translate(0,154) scale(0.061498,-0.061498)"
fill="#000000" stroke="none">
<path d="M5580 2386 c-14 -14 -38 -38 -55 -54 -16 -16 -41 -43 -55 -62 -14
-18 -33 -40 -42 -49 -10 -8 -18 -20 -18 -26 0 -7 -11 -22 -25 -35 -14 -13 -25
-29 -25 -35 0 -6 -11 -22 -25 -35 -14 -13 -25 -27 -25 -31 0 -4 -25 -48 -55
-97 -30 -50 -55 -93 -55 -97 0 -3 -11 -21 -25 -39 -14 -18 -25 -36 -25 -40 0
-3 -16 -29 -35 -56 -19 -27 -35 -51 -35 -53 0 -2 -46 -52 -103 -110 -57 -59
-108 -107 -113 -107 -6 0 -21 -11 -33 -24 -13 -13 -55 -41 -95 -61 -42 -21
-83 -35 -97 -33 -20 2 -24 9 -25 42 -1 24 13 72 35 125 30 71 47 96 101 148
35 35 68 63 72 63 5 0 8 6 8 13 0 7 16 29 36 48 20 18 42 47 50 62 8 15 23 36
32 45 9 10 37 49 62 87 25 39 51 79 58 90 6 11 27 52 45 90 18 39 38 84 44
102 6 17 8 43 6 57 -3 14 -11 26 -17 26 -7 0 -21 -8 -32 -19 -10 -10 -41 -44
-69 -76 -27 -32 -80 -101 -117 -154 -37 -53 -75 -112 -85 -131 -10 -19 -25
-42 -35 -52 -10 -10 -18 -22 -18 -27 0 -5 -20 -42 -43 -83 -24 -40 -59 -95
-78 -123 -18 -27 -41 -56 -51 -63 -10 -7 -18 -20 -18 -27 0 -8 -17 -25 -37
-39 -21 -13 -70 -53 -109 -90 -40 -36 -76 -66 -81 -66 -5 0 -20 -11 -33 -25
-13 -14 -28 -25 -33 -25 -6 0 -18 -7 -27 -15 -9 -8 -31 -16 -50 -17 l-35 -3 3
44 c3 30 15 59 38 91 19 26 34 51 34 55 0 4 14 23 30 42 17 19 28 38 25 44 -4
5 -13 5 -25 -1 -10 -5 -37 -27 -59 -47 -23 -21 -57 -50 -75 -65 -19 -16 -38
-28 -44 -28 -5 0 -17 -11 -26 -25 -9 -14 -22 -25 -30 -25 -7 0 -21 -9 -32 -21
-10 -12 -31 -27 -46 -35 -15 -8 -40 -14 -55 -14 -15 0 -39 -9 -53 -20 -14 -10
-21 -22 -17 -27 5 -4 34 -7 65 -7 48 1 65 7 112 38 30 21 65 47 77 59 13 11
26 18 29 15 3 -4 1 -15 -5 -26 -6 -12 -11 -36 -11 -56 0 -27 6 -39 28 -55 25
-17 35 -19 66 -10 20 6 59 21 86 35 27 14 56 34 64 45 8 12 28 30 44 42 17 12
55 44 86 71 31 27 59 46 63 43 3 -4 0 -14 -7 -22 -7 -9 -14 -35 -14 -59 -1
-25 7 -58 19 -79 19 -36 21 -37 76 -37 43 0 65 6 93 25 20 14 40 25 44 25 4 0
30 18 57 40 28 22 57 46 65 53 8 6 27 23 43 36 l29 25 -6 -50 c-6 -41 -3 -58
16 -94 13 -25 36 -51 52 -58 23 -12 36 -12 72 -2 24 7 67 30 96 50 29 21 61
46 71 54 9 9 20 16 23 16 4 0 4 -19 1 -42 -4 -27 0 -52 9 -69 13 -26 16 -27
44 -16 16 7 60 35 96 62 37 28 85 63 106 79 22 15 42 25 46 22 3 -4 -4 -27
-16 -51 -12 -25 -22 -54 -22 -65 0 -11 9 -24 21 -30 15 -9 25 -8 39 2 10 7 35
27 56 43 22 17 47 40 57 53 10 12 23 22 29 22 6 0 19 6 27 14 9 8 29 18 45 22
26 6 28 5 21 -12 -4 -10 -7 -35 -6 -54 1 -19 9 -41 18 -47 9 -7 35 -13 57 -13
24 0 55 9 75 21 20 12 37 17 43 11 5 -5 3 -14 -7 -22 -8 -7 -15 -23 -15 -36 0
-13 10 -32 21 -43 16 -14 30 -18 50 -14 21 4 29 2 29 -9 0 -8 -5 -19 -11 -25
-6 -6 -17 -22 -25 -35 -7 -12 -25 -47 -40 -75 -14 -29 -29 -53 -34 -53 -5 0
-12 -9 -15 -20 -3 -11 -11 -20 -17 -20 -6 0 -22 -12 -37 -27 -14 -16 -52 -59
-83 -98 -32 -38 -64 -82 -71 -97 -6 -16 -16 -28 -20 -28 -4 0 -17 -19 -28 -42
-10 -24 -26 -51 -34 -62 -8 -10 -24 -52 -36 -93 -13 -41 -28 -77 -36 -80 -7
-3 -13 -10 -13 -16 0 -6 -7 -18 -15 -27 -9 -10 -31 -43 -50 -75 -19 -32 -35
-68 -35 -80 0 -13 7 -26 16 -29 9 -4 23 -1 30 5 8 6 14 16 14 21 0 5 4 14 10
21 5 7 23 28 40 48 16 20 30 44 30 53 0 9 3 16 8 16 4 0 15 18 25 40 9 23 24
43 32 46 8 4 15 15 15 25 0 10 13 33 29 51 15 18 31 42 35 53 3 11 26 45 51
75 25 30 45 58 45 62 0 3 6 13 14 20 7 8 24 34 37 58 14 25 33 59 44 75 11 17
70 81 132 143 61 62 115 121 118 132 4 11 15 20 26 20 11 0 22 7 25 15 4 8 12
15 20 15 8 0 14 4 14 9 0 5 23 26 52 48 28 21 65 48 82 60 17 12 43 24 57 28
15 3 29 15 32 27 3 12 10 17 17 13 6 -4 15 -18 20 -31 6 -14 20 -28 32 -33 15
-5 39 -3 68 7 25 8 52 22 61 31 9 9 34 30 55 46 21 17 49 41 61 54 22 23 32
25 132 27 l109 2 4 -54 c3 -38 11 -61 28 -79 12 -13 34 -26 49 -29 14 -3 46
-8 70 -11 24 -4 76 -1 115 5 39 7 90 19 114 27 23 9 42 21 42 28 0 7 -16 16
-35 19 -20 4 -41 4 -47 0 -6 -4 -28 -9 -47 -10 -20 -1 -43 -3 -51 -5 -8 -1
-42 -1 -75 -1 -56 2 -62 4 -78 31 -9 16 -17 50 -17 74 0 36 -5 49 -22 61 -12
9 -36 16 -53 16 -17 0 -36 -5 -43 -12 -8 -8 -15 -8 -25 0 -10 8 -17 8 -24 1
-6 -6 -17 -8 -23 -4 -7 4 -18 23 -26 41 -9 20 -21 34 -32 34 -9 0 -28 -17 -42
-38 -13 -20 -51 -63 -84 -94 -33 -32 -65 -58 -72 -58 -6 0 -17 -7 -24 -15 -7
-8 -21 -15 -31 -15 -11 0 -19 7 -19 15 0 8 6 25 12 38 7 12 23 38 36 59 13 20
32 38 43 41 10 3 19 12 19 21 0 9 5 16 10 16 6 0 10 6 10 14 0 8 -4 18 -10 21
-5 3 -25 -1 -44 -10 -20 -9 -52 -38 -72 -63 -21 -26 -47 -56 -58 -67 -11 -11
-30 -27 -42 -35 -12 -8 -48 -33 -80 -56 -33 -22 -81 -56 -109 -74 -27 -19 -72
-53 -100 -77 -27 -24 -53 -43 -57 -43 -5 0 -8 5 -8 10 0 6 7 18 15 28 9 9 45
52 80 95 36 43 65 84 65 92 0 8 -5 17 -11 20 -6 4 -7 19 -4 35 5 22 1 31 -15
43 -20 14 -26 14 -67 -4 -25 -11 -56 -28 -70 -39 -14 -11 -34 -20 -45 -20 -10
0 -31 -8 -46 -17 -15 -10 -33 -23 -40 -30 -7 -7 -21 -13 -31 -13 -10 0 -37
-13 -59 -30 -23 -16 -46 -30 -52 -30 -5 0 -10 11 -10 24 0 13 10 43 22 66 17
31 20 45 12 58 -6 9 -25 18 -42 20 -22 2 -47 -7 -87 -32 -30 -20 -59 -36 -64
-36 -5 0 -26 -16 -47 -35 -22 -19 -42 -35 -46 -35 -5 0 -8 5 -8 10 0 6 9 20
20 32 11 12 20 28 20 35 0 7 -4 13 -10 13 -5 0 -10 6 -10 14 0 8 -7 17 -17 20
-10 4 -31 -4 -55 -21 -22 -15 -51 -36 -66 -45 -15 -10 -38 -23 -52 -30 -14 -7
-40 -25 -58 -40 -18 -15 -39 -28 -47 -28 -8 0 -15 6 -15 14 0 8 5 18 10 21 6
3 10 17 10 31 0 14 7 36 16 49 9 14 14 32 10 40 -3 8 -17 15 -30 15 -17 0 -29
-8 -38 -27 -7 -15 -23 -32 -35 -39 -13 -6 -31 -18 -40 -26 -10 -9 -45 -30 -78
-48 -33 -18 -69 -39 -80 -46 -11 -8 -30 -14 -42 -14 -13 0 -27 9 -34 21 -7 13
-9 40 -5 68 3 25 30 93 58 151 29 57 63 113 76 123 13 11 21 21 18 24 -2 3 29
39 70 81 41 42 74 80 74 84 0 5 29 43 65 86 36 42 65 85 65 94 0 9 10 25 23
35 12 10 34 35 50 55 15 20 27 41 27 47 0 6 5 11 10 11 6 0 10 5 10 10 0 6 19
38 42 70 37 52 41 63 32 87 -5 16 -18 29 -29 31 -11 1 -31 -8 -45 -22z m-16
-108 c-4 -13 -10 -32 -14 -43 -5 -11 -25 -39 -47 -62 -21 -23 -54 -65 -73 -93
-19 -28 -50 -70 -68 -93 -18 -23 -40 -50 -48 -59 -7 -10 -19 -18 -25 -18 -6 0
0 17 12 38 13 20 34 54 48 76 14 21 33 49 41 61 8 12 24 35 35 50 11 15 37 48
58 73 21 25 45 55 54 68 8 13 20 24 25 24 5 0 6 -10 2 -22z m-474 -80 c0 -6
-15 -39 -34 -72 -19 -34 -64 -101 -99 -151 -36 -49 -85 -114 -109 -142 -23
-29 -46 -53 -50 -53 -5 0 -8 5 -8 11 0 7 19 35 43 63 24 28 47 58 51 66 4 8
12 24 19 35 7 11 32 50 56 88 23 37 46 67 51 67 4 0 10 11 14 23 3 13 15 36
27 50 11 15 25 27 30 27 5 0 9 -5 9 -12z m1168 -769 c1 -8 -14 -33 -34 -57
-21 -23 -45 -42 -55 -42 -10 0 -21 -4 -24 -10 -3 -5 -13 -10 -21 -10 -8 0 -14
7 -14 15 0 8 3 15 8 15 4 0 25 22 47 50 21 27 46 51 55 53 8 3 20 4 25 2 6 -1
11 -8 13 -16z"/>
<path d="M1898 2341 c-20 -32 -55 -95 -77 -141 -22 -45 -46 -90 -54 -99 -7 -9
-30 -50 -50 -92 -20 -43 -40 -92 -44 -110 -3 -19 -17 -48 -30 -65 -12 -17 -23
-35 -23 -40 0 -5 -10 -33 -22 -63 -16 -36 -42 -73 -81 -109 -31 -31 -67 -61
-80 -68 -12 -7 -29 -16 -37 -19 -8 -3 -35 -17 -60 -29 -25 -13 -50 -22 -57
-19 -6 2 -14 -1 -18 -6 -3 -6 -20 -11 -37 -11 -29 0 -30 1 -24 36 4 19 10 42
12 49 3 7 -4 18 -15 24 -13 7 -28 8 -45 1 -14 -5 -26 -14 -26 -19 0 -6 -13
-17 -28 -25 -15 -8 -69 -55 -119 -105 -50 -50 -95 -91 -100 -91 -4 0 -35 -26
-68 -58 -33 -32 -73 -72 -88 -90 -16 -18 -33 -32 -38 -32 -5 0 -9 2 -9 5 0 3
16 43 36 88 20 45 47 105 59 133 13 28 29 71 36 95 7 24 19 53 26 64 7 11 13
27 13 37 0 9 11 38 25 64 14 26 25 54 25 62 0 9 9 35 21 59 11 24 22 49 23 55
2 7 6 22 10 33 4 11 18 43 31 70 13 28 35 92 49 143 15 51 26 99 26 107 0 8
-11 17 -25 21 -16 4 -34 0 -50 -10 -14 -9 -36 -33 -49 -54 -13 -20 -38 -53
-56 -72 -17 -19 -38 -47 -46 -62 -8 -16 -19 -28 -24 -28 -6 0 -10 -4 -10 -9 0
-6 -13 -29 -30 -53 -16 -24 -43 -61 -60 -83 -16 -22 -42 -64 -56 -93 -19 -39
-28 -79 -35 -155 -5 -56 -10 -155 -10 -221 -1 -65 3 -121 8 -125 5 -3 9 -17 8
-31 -1 -14 -5 -44 -10 -68 -4 -23 -23 -68 -41 -98 -19 -31 -34 -59 -34 -63 0
-3 -16 -24 -36 -46 -20 -22 -51 -63 -69 -91 -18 -29 -38 -55 -44 -58 -6 -4
-11 -16 -11 -26 0 -10 -7 -25 -15 -33 -8 -8 -34 -55 -59 -103 -24 -49 -58
-120 -74 -159 -16 -38 -35 -88 -40 -110 -6 -22 -16 -76 -22 -120 -6 -44 -13
-89 -15 -99 -2 -11 1 -26 7 -33 6 -7 16 -13 22 -13 6 1 23 20 39 44 15 24 27
48 27 54 0 6 10 23 23 39 12 15 28 39 35 51 7 13 39 76 71 140 32 64 70 142
84 172 14 30 33 73 42 95 9 22 39 102 65 179 27 76 62 157 78 180 17 22 46 55
64 73 18 17 57 53 86 80 30 26 102 94 160 150 60 57 111 98 116 93 5 -5 2 -28
-7 -54 -8 -25 -13 -55 -10 -68 3 -13 10 -29 16 -35 5 -7 17 -13 27 -13 11 0
22 12 29 31 6 18 11 49 11 69 0 21 6 43 14 49 9 8 28 8 66 1 45 -9 56 -8 72 7
10 9 21 13 25 10 3 -4 29 6 57 21 28 15 53 29 56 32 3 3 18 13 33 23 15 10 32
15 37 12 6 -3 10 -15 10 -26 0 -11 -7 -22 -15 -25 -8 -4 -15 -17 -15 -31 0
-13 -5 -34 -11 -46 -7 -12 -15 -24 -19 -27 -4 -3 -17 -27 -29 -54 -11 -27 -21
-56 -21 -66 0 -10 6 -20 14 -23 8 -3 33 15 61 44 26 27 50 49 54 49 4 0 25 16
46 36 22 19 57 44 79 55 22 10 44 19 49 19 5 0 6 -8 2 -17 -4 -10 -8 -48 -9
-86 -2 -61 0 -69 22 -83 18 -12 30 -13 56 -4 18 5 61 39 97 75 35 35 90 78
122 95 31 16 68 30 82 30 14 0 25 -4 25 -10 0 -5 -16 -25 -35 -45 -20 -19 -40
-47 -45 -61 -6 -15 -8 -35 -5 -45 5 -14 16 -19 41 -19 24 0 37 5 41 18 3 9 17
29 31 45 14 15 31 27 38 27 6 0 19 11 27 24 9 12 32 31 51 40 20 9 36 21 36
26 0 6 8 10 19 10 10 0 24 7 31 15 7 8 19 15 27 15 12 0 14 -9 10 -42 -4 -24
-9 -72 -13 -108 l-6 -66 41 -37 c23 -20 51 -37 64 -37 12 0 52 6 88 14 36 7
77 20 90 27 13 7 40 19 59 26 19 7 42 13 51 13 8 0 28 14 44 30 16 17 34 30
41 30 6 0 14 6 17 13 3 8 2 19 -2 26 -6 9 -26 3 -77 -23 -38 -19 -82 -38 -99
-41 -16 -4 -50 -15 -75 -25 -25 -9 -59 -20 -76 -23 -24 -5 -38 0 -63 21 -24
21 -31 35 -32 62 0 19 2 61 4 93 4 50 1 62 -16 78 -12 10 -26 19 -32 19 -5 0
-33 -8 -60 -19 -28 -10 -62 -24 -78 -30 -15 -6 -30 -18 -33 -26 -4 -8 -14 -15
-23 -15 -9 0 -24 14 -33 30 -13 24 -24 30 -50 30 -18 0 -53 -8 -78 -17 -25 -9
-47 -20 -50 -23 -3 -4 -21 -15 -40 -26 -19 -10 -60 -40 -89 -66 -30 -27 -63
-48 -73 -48 -11 0 -18 7 -18 19 0 11 5 23 11 27 6 3 8 20 5 38 -3 19 0 38 9
50 12 16 12 22 -2 43 -13 19 -22 23 -42 18 -14 -4 -33 -13 -42 -21 -8 -8 -23
-14 -32 -14 -8 0 -32 -16 -53 -35 -20 -19 -43 -35 -51 -35 -11 0 -13 5 -8 18
4 9 10 28 12 42 3 14 11 39 18 55 7 17 17 43 21 58 3 16 21 56 38 90 17 33 37
72 45 86 8 14 20 31 26 36 7 6 29 42 50 80 20 39 45 79 55 90 10 11 21 31 25
45 3 14 19 40 35 59 17 18 30 39 30 45 0 6 19 47 41 90 22 44 43 101 46 127 5
40 3 48 -18 63 -13 9 -26 16 -29 16 -3 0 -22 -27 -42 -59z m32 -81 c0 -11 -11
-38 -25 -60 -14 -22 -25 -46 -25 -53 0 -8 -8 -21 -18 -30 -10 -9 -29 -39 -42
-66 -14 -28 -28 -51 -32 -51 -5 0 -8 8 -7 18 0 9 13 40 30 67 16 28 33 60 39
73 5 13 10 32 10 43 0 10 6 19 14 19 8 0 17 14 21 30 4 17 13 30 21 30 8 0 14
-9 14 -20z m-974 -263 c-19 -57 -39 -113 -44 -123 -5 -11 -17 -36 -26 -57 -9
-21 -25 -66 -36 -100 -12 -34 -25 -71 -29 -82 -5 -11 -16 -38 -24 -60 -8 -22
-16 -44 -17 -50 -2 -5 -6 -19 -11 -30 -4 -11 -21 -51 -37 -90 -17 -38 -33 -80
-37 -92 -3 -13 -10 -23 -14 -23 -5 0 -11 18 -15 40 -3 21 -4 92 -1 157 3 65 8
131 11 147 4 16 19 57 35 90 16 34 40 79 54 101 13 22 32 51 42 64 10 13 35
47 56 75 20 28 47 66 58 84 12 17 25 32 30 32 5 0 9 6 9 14 0 8 6 16 13 19 6
2 13 1 15 -4 2 -4 -13 -54 -32 -112z m-408 -1094 c-2 -5 -10 -21 -17 -38 -8
-16 -20 -44 -27 -62 -8 -17 -14 -37 -14 -45 0 -8 -4 -18 -9 -23 -5 -6 -21 -39
-36 -75 -15 -36 -40 -94 -56 -130 -16 -36 -41 -87 -55 -115 -15 -27 -39 -75
-54 -105 -15 -30 -30 -63 -34 -72 -3 -10 -10 -18 -16 -18 -5 0 -10 10 -10 23
0 12 7 49 14 82 8 33 20 76 28 95 7 19 18 42 23 50 5 8 10 20 10 25 1 6 5 19
10 30 5 11 14 24 22 28 7 4 13 13 13 20 0 7 10 30 21 52 12 22 52 90 90 151
38 61 69 116 69 122 0 7 7 12 16 12 9 0 14 -3 12 -7z"/>
<path d="M4142 2285 c-37 -17 -79 -52 -145 -119 -50 -53 -107 -115 -125 -138
-19 -24 -53 -70 -76 -103 -23 -33 -55 -82 -71 -110 -16 -27 -38 -67 -48 -87
-11 -21 -23 -38 -28 -38 -5 0 -9 -5 -9 -12 0 -6 -14 -41 -31 -77 -21 -43 -33
-88 -37 -128 -3 -44 -1 -63 7 -63 6 0 11 -6 11 -12 -1 -7 -28 -26 -61 -43 -32
-16 -68 -29 -80 -28 -11 1 -27 7 -35 14 -8 6 -14 26 -14 43 0 22 8 40 25 56
14 13 25 31 25 41 0 9 3 19 8 21 4 2 21 21 38 43 16 22 35 52 42 68 6 15 16
27 22 27 5 0 10 5 10 11 0 5 18 48 40 94 22 46 40 89 40 96 0 7 6 20 14 28 7
9 21 42 31 75 10 32 19 88 19 124 1 60 -1 67 -23 78 -22 11 -32 9 -80 -18 -31
-17 -68 -40 -82 -51 -15 -10 -32 -30 -37 -43 -6 -13 -7 -26 -3 -29 5 -2 14 2
21 10 7 8 17 15 22 15 5 0 24 11 41 24 18 14 44 29 59 35 23 9 27 7 33 -16 4
-17 -2 -46 -16 -82 -12 -31 -26 -61 -31 -67 -4 -6 -16 -38 -27 -71 -11 -33
-31 -83 -45 -111 -14 -28 -30 -53 -35 -56 -5 -4 -17 -20 -25 -38 -9 -17 -16
-36 -16 -42 0 -6 -13 -27 -29 -46 -15 -19 -31 -46 -36 -58 -5 -19 -12 -22 -32
-17 -13 3 -39 0 -57 -6 -18 -6 -42 -26 -53 -43 -12 -17 -32 -61 -45 -98 -21
-62 -21 -69 -7 -83 15 -15 19 -15 47 2 17 11 41 31 52 46 12 15 26 27 31 27 5
0 14 -11 19 -24 5 -14 18 -29 28 -35 11 -6 45 -9 76 -7 34 2 63 9 74 20 10 9
24 16 30 16 7 0 34 23 61 50 27 28 54 50 60 50 6 0 11 4 11 9 0 5 17 28 39 51
21 23 44 53 52 68 8 14 32 45 53 67 21 22 51 58 65 80 14 22 33 47 42 55 9 8
37 42 61 75 25 33 58 84 74 114 16 29 35 65 43 80 8 14 18 28 23 29 4 2 8 14
8 27 0 13 5 27 10 30 6 4 17 23 26 43 8 20 22 62 30 92 8 30 11 62 8 72 -3 10
-13 18 -22 17 -9 0 -41 -11 -70 -24z m52 -42 c-4 -16 -13 -44 -21 -63 -8 -19
-32 -71 -54 -115 -22 -44 -55 -100 -74 -125 -20 -25 -45 -60 -56 -77 -12 -18
-24 -33 -27 -33 -4 0 -20 -20 -36 -45 -15 -25 -35 -51 -45 -58 -9 -7 -20 -20
-26 -29 -5 -8 -43 -56 -84 -104 -41 -49 -91 -106 -113 -126 -21 -21 -41 -38
-43 -38 -3 0 -5 13 -5 30 0 16 5 42 11 57 6 15 32 71 57 123 25 52 55 109 67
125 11 17 25 37 30 46 6 9 23 36 39 60 16 24 32 46 35 49 4 3 24 32 46 64 22
32 54 73 70 90 17 18 47 51 68 73 21 23 46 45 57 48 10 3 22 15 25 26 4 11 21
26 38 33 18 8 35 15 40 15 4 1 4 -11 1 -26z m-864 -825 c0 -7 -7 -21 -14 -30
-7 -10 -18 -18 -25 -18 -6 0 -11 3 -11 8 0 4 7 18 16 30 8 12 19 22 25 22 5 0
9 -6 9 -12z"/>
<path d="M4423 1953 c-13 -8 -23 -21 -23 -29 0 -7 10 -20 22 -28 12 -9 32 -16
45 -16 13 0 24 8 28 20 4 13 0 31 -9 45 -9 14 -22 25 -29 24 -6 0 -22 -7 -34
-16z"/>
<path d="M5527 1710 c-22 -23 -33 -41 -27 -45 5 -3 20 -3 33 0 12 3 39 14 59
23 21 9 38 20 38 24 0 4 -10 14 -22 22 -12 9 -27 16 -33 15 -5 0 -27 -18 -48
-39z"/>
</g>
</svg>
