<?xml version="1.0" encoding="UTF-8"?>
<svg version="1.0" id="Layer_1" xmlns="http://www.w3.org/2000/svg" xmlns:xlink="http://www.w3.org/1999/xlink" x="0px" y="0px" width="176" height="48px">
<path fill="none" stroke="#000000" stroke-width="1.5" stroke-miterlimit="10" d="M173.947,10.076  c-5.332,4.118-8.491,7.079-10.34,8.451c-0.68,0.502-3.481,2.118-4.138,2.451c-1.057,0.538,7.475,7.517,6.043,10.444  c-2.538,5.195-36.733,6.142-43.67,5.945L55.963,35.5C36.648,34.954,7.145,46.902,1.756,46.299 M128.247,12.361  c-6.567,2.106-14.747,5.452-19.579,10.284c-5.328,5.328-1.039,7.456,3.24,4.722c3.232-2.066,9.398-12.279,6.922-7.323  c-2.105,4.212,3.878,2.429,6.566,1.393c3.313-1.275,9.047-2.013,11.648-4.614c2.479-2.479,5.576-0.619,2.602,2.354  c-2.105,2.105-4.287,4.208-7.063,5.771c-1.352,0.761-7.762,2.882-6.443-1.312c0.615-1.955,2.743-3.313,4.213-3.857l5.807-2.154  c0.707-0.262-0.684,4.449-1.038,5.199c-0.759,1.603,2.795,0.699,4.03,0.317c3.968-1.228,11.063-0.882,13.441-4.561  c18.984-29.352-6.371,2.536,0.243,5.069c2.079,0.796,12.802-4.981,12.538-7.176c-0.307-2.55-5.552-0.643-6.089,1.462  c-2.941,11.527,15.701-2.679,4.796-2.679 M67.53,24.761c3.083,4.04,12.565,4.287,16.293,3.072  c5.101-1.662,12.537-10.049,19.38-13.258c3.368-1.578,8.163-4.047,8.466-6.857c0.953-8.851-34.626,14.367-33.03,19.401  c1.859,5.865,19.301-9.183,20.006-9.757c2.311-1.88-8.81,6.358-0.871,6.358c4.219,0,9.57-2.977,13.045-2.977 M76.199,5.14  c0.084-7.291-8.464,0.779-11.513,2.909c-5.845,4.082-8.96,7.313-13.561,12.448c-14.99,16.73-2.568,8.78,7.115,2.041  c3.644-2.535,9.091-7.278,8.358-6.011c-0.469,0.81-1.334,1.475-1.201,2.486c0.059,0.445,0.079-1.23,1.078-2.605  c1.131-1.559,4.326-4.11,4.926-4.496c8.209-5.278-4.667,10.897-5.667,7.432c-0.446-1.548,0.281-0.811-0.388,0.084  c-2.009,2.686-8.59,18.271-2.015,10.28l11.867-14.423c3.79-4.606,11.165-13.646,18.361-13.646 M54.356,8.834  c-0.168,4.172-16.422,10.917-20.593,10.917c-4.841,0,8.638-14.906,17.49-14.016c10.562,1.061,11.962-6.49,6.355-3.102  c-1.79,1.082-6.095,5.19-9.455,7.441c-6.23,4.175-25.879,15.373-19.743,19.164c1.702,1.05,9.075-2.789,21.232-10.232 M26.474,17.471  c1.24-8.436,8.276-17.849,14.178-15.007c1.725,0.832-7.854,11.637-11.354,13.317c-2.703,1.297-20.566,11.57-16.458,12.523  c6.616,1.535,12.488-10.586,20.676-12.429"/>
</svg>