<?xml version="1.0" encoding="UTF-8"?>
<svg version="1.1" xmlns="http://www.w3.org/2000/svg" width="481" height="86" >
<path d="M26.996,34.741c1.992-1.623,5.838-4.521,8.287-2.531c1.89,1.536,1.581,5.675,1.333,7.649 c0.542,0.033,1.084,0.066,1.626,0.1c-0.288-0.467-0.487-0.969-0.597-1.505c-0.435-1.512-0.243-3.147,0.011-4.667 c1.206-7.19,12.72-13.207,18.092-16.952c3.274-2.283,6.603-4.489,9.985-6.609c1.362-0.854,2.745-1.676,4.143-2.47 c0.611-0.347,1.231-0.677,1.86-0.991c1.494-0.745,0.541-0.205,0.586-0.868c-0.066,0.958-1.97,2.582-2.572,3.297 c-1.576,1.872-3.155,3.742-4.735,5.61c-10.202,12.063-20.472,24.069-30.873,35.96C25.487,60.66,16.989,71.36,7.028,80.003 c-0.411,0.357-0.832,0.699-1.296,0.983c1.574-0.963,1.999,1.49,1.174-1.021c-0.416-1.266-0.558-2.586-0.69-3.903 c-0.435-4.339,1.59-7.86,4.759-10.456c5.473-4.483,11.567-8.289,17.602-11.958c7.815-4.751,15.933-9.081,24.434-12.477 c5.816-2.324,14.68-5.854,20.671-2.301c2.677,1.588,5.674,3.873,7.259,6.647c0.982,1.72,0.22,2.115-1.219,0.852 c-3.713-3.262-0.645-9.899,1.136-13.263c3.172-5.991,8.286-10.784,13.791-14.603c3.057-2.121,6.359-3.875,9.777-5.332 c0.533-0.227,8.01-2.669,6.612-0.153c-1.73,3.115-4.728,5.853-7.071,8.489c-4.879,5.489-9.896,10.858-14.947,16.189 C78.364,48.942,67.548,60.183,55.87,70.38c-1.857,1.623-3.755,3.216-5.762,4.653c-0.658,0.472-1.34,0.908-2.045,1.307 c-0.893,0.505-0.208,0.476-0.616-0.673c-1.414-3.979,4.095-8.76,6.555-10.947c4.993-4.439,11.109-7.483,17.218-10.053 c17.277-7.266,34.648-14.32,51.412-22.733c7.266-3.646,14.552-7.51,21.021-12.47c2.969-2.277,5.2-5.139,7.633-7.96 c2.207-2.56,5.914-5.513,7.056-8.808c0.893-2.575-8.23,0.855-9.277,1.454c-5.587,3.196-10.571,7.713-15.333,11.989 c-6.226,5.588-12.111,11.607-17.39,18.101c-3.742,4.603-8.205,10.292-8.924,16.399c-0.669,5.684,5.555,7.961,10.246,7.864 c7.043-0.146,13.719-4.825,18.229-9.883c2.502-2.806,6.753-11.07,0.108-11.969c-5.487-0.743-10.608,5.79-13.669,9.39 c-1.477,1.737-2.88,3.555-4.18,5.429c-0.763,1.099,2.159,0.843,2.699,0.064c2.188-3.151,9.684-14.637,14.164-13.147 c3.771,1.254,0.553,6.952-0.673,8.72c-2.925,4.217-7.68,7.57-12.522,9.152c-3.666,1.199-9.378,0.718-11.168-3.324 c-1.027-2.319,0.11-5.227,1.027-7.381c3.136-7.367,9.227-13.786,14.655-19.501c5.646-5.943,11.742-11.51,18.183-16.581 c2.158-1.699,4.388-3.334,6.775-4.7c1.137-0.65,2.406-1.003,3.655-1.371c1.142-0.336,0.6-0.457,0.297,0.106 c-0.432,0.803-1.113,1.516-1.69,2.212c-5.959,7.202-11.536,13.301-19.528,18.165c-8.701,5.295-17.992,9.64-27.244,13.869 c-8.959,4.094-18.033,7.936-27.124,11.726c-8.418,3.51-16.917,6.727-24.442,11.995c-3.207,2.245-14.49,10.977-10.059,16.261 c1.495,1.783,5.089-0.704,6.376-1.574c10.918-7.375,20.229-17.842,29.403-27.185c9.932-10.115,19.75-20.407,29.012-31.144 c0.813-0.943,5.431-5.215,3.938-6.868c-1.332-1.476-4.06-0.977-5.744-0.564c-5.532,1.356-10.557,4.142-15.292,7.236 c-8.002,5.229-16.36,13.915-17.635,23.821c-0.485,3.769,3.268,10.051,7.72,7.006c5.24-3.585-6.118-10.936-8.972-11.936 c-5.397-1.892-11.92-0.012-17.112,1.647c-15.445,4.937-30.083,13.88-43.237,23.217c-4.351,3.088-8.221,5.652-9.904,10.938 c-0.928,2.917-1.213,12.604,4,9.414c3.318-2.031,6.062-5.456,8.708-8.237c4.901-5.152,9.637-10.464,14.355-15.783 C41.775,45.32,52.563,32.722,63.297,20.083c3.315-3.903,6.622-7.813,9.918-11.732c1.465-1.741,3.317-4.72-0.655-3.586 c-7.242,2.068-14.288,8.163-20.33,12.407c-6.597,4.634-17.061,10.185-17.735,19.126c-0.146,1.936,0.255,6.029,3.132,5.258 c3.345-0.896,2.095-6.795,1.313-9.003c-2.187-6.172-11.323-0.693-14.269,1.706C23.377,35.313,26.272,35.33,26.996,34.741 L26.996,34.741z"/>
<path d="M154.822,46.763c2.089-1.776,4.224-3.499,6.38-5.191c1.555-1.221,3.141-2.401,4.764-3.529 c0.788-0.547,1.598-1.057,2.449-1.499c-1.007,0.524-0.709,0.227-1.309,1.459c-1.909,3.925-4.297,7.627-6.416,11.44 c-0.525,0.945-3.146,4.604-0.384,4.151c3.224-0.529,5.693-4.868,7.664-6.973c2.568-2.743,6.572-5.371,8.443-8.688 c-0.948,1.68-2.704-0.454-1.504,0.771c0.463,0.473,0.893,0.978,1.356,1.452c1.214,1.238,2.666,2.06,4.297,2.604 c3.911,1.305,8.388-0.543,11.79-2.335c-0.725-0.062-1.45-0.124-2.174-0.187c-1.141,1.12-10.998,11.318-6.104,11.736 c4.974,0.424,10.776-1.611,15.75-2.107c6.854-0.684,14.398-1.41,21.162,0.234c0.726,0.176,3.294-0.973,2.36-1.2 c-9.329-2.267-19.919-0.795-29.289,0.489c-2.228,0.305-4.442,0.7-6.642,1.169c-3.755,0.8-0.881-3.166-0.136-4.211 c1.606-2.255,3.568-4.313,5.542-6.25c0.8-0.785-1.882-0.34-2.174-0.187c-5.356,2.822-9.065,2.128-12.735-1.924 c-1.065-1.176-2.006-1.25-3.474-0.583c-1.387,0.63-2.958,3.249-4.094,4.334c-1.712,1.637-3.38,3.313-5.019,5.024 c-1.331,1.391-3.501,5.135-5.291,5.821c0.627-0.037,1.254-0.074,1.88-0.111c-0.406-0.207,5.988-11.119,6.474-11.982 c0.582-1.034,4.01-5.911,0.483-5.183c-6.186,1.278-12.03,7.631-16.695,11.597C151.477,47.5,154.256,47.244,154.822,46.763 L154.822,46.763z"/>
<path d="M224.477,45.028c5.733-2.956,11.39-6.064,16.973-9.292c3.704-2.142,7.366-4.371,10.888-6.802 c1.559-1.076,5.101-3.019,5.458-5.128c0.05-0.293-0.123-0.569-0.353-0.731c-1.427-1.017-3.725,0.647-4.879,1.366 c-4.496,2.798-8.547,6.201-12.389,9.832c-2.438,2.305-10.723,9.495-6.848,13.848c3.189,3.584,10.356,0.526,13.724-0.982 c11.106-4.975,20.333-14.296,28.329-23.205c1.158-1.29-1.315-1.839-2.177-1.101c-6.044,5.187-12.686,10.979-16.603,17.997 c-1.419,2.543-1.461,5.443,1.792,6.238c9.26,2.261,19.728-4.247,28.605-0.584c1.231,0.508,3.378-1.259,1.67-1.964 c-6.112-2.521-13.372-0.335-19.648,0.389c-2.173,0.25-9.729,1.81-10.47-0.961c-0.405-1.513,1.369-3.766,2.143-4.88 c3.9-5.613,9.27-10.465,14.437-14.898c-0.726-0.367-1.451-0.734-2.177-1.101c-8.346,9.298-18.484,19.793-30.75,23.735 c-1.798,0.578-5.856,1.67-6.767-0.828c-1.075-2.953,3.26-6.797,4.862-8.52c4.322-4.644,9.541-9.144,15.142-12.208 c1.242-0.68-0.692-1.104-1.521-0.354c-0.86,0.778-1.801,1.468-2.734,2.155c-1.993,1.468-4.102,2.782-6.202,4.088 c-7.058,4.389-14.408,8.361-21.793,12.169C221.433,44.212,223.012,45.784,224.477,45.028L224.477,45.028z"/>
<path d="M220.882,15.654c0.827-1.37,8.617-1.901,10.817-2.116c3.065-0.3,6.169-0.337,9.246-0.412 c9.433-0.229,18.882-0.14,28.311,0.237c6.145,0.246,14.984-0.417,20.651,2.458c0.845,0.429-6.7,6.712-7.867,7.681 c-2.892,2.403-5.843,4.74-8.829,7.023c-1.565,1.197,0.792,2.139,1.912,1.282c2.563-1.96,19.905-13.754,17.929-16.82 c-1.12-1.737-4.342-1.977-6.147-2.291c-4.799-0.834-9.723-1.063-14.578-1.307c-11.171-0.56-22.398-0.604-33.578-0.273 c-4.848,0.144-9.655,0.488-14.426,1.415c-1.875,0.364-5.086,0.964-6.204,2.815C217.291,16.716,220.243,16.713,220.882,15.654 L220.882,15.654z"/>
<path d="M297.956,41.59c1.963-1.367,6.2-4.014,5.66-6.812c-0.375-1.943-4.85,0.803-5.35,1.255 c-2.552,2.309-5.756,6.668-2.46,9.645c3.402,3.073,10.151,0.843,13.661-0.712c1.87-0.828,18.781-9.6,16.392-3.322 c-0.487,1.279-6.766,8.329-1.449,7.448c1.571-0.26,2.939-1.037,4.261-1.883c3.622-2.318,6.397-4.285,10.918-4.628 c2.954-0.225,1.321,1.968,3.601,2.312c3.568,0.539,7.061-0.375,10.284,1.784c0.72,0.482,3.229-0.682,2.721-1.023 c-1.549-1.038-3.07-1.477-4.902-1.755c-1.232-0.187-6.468,0.535-6.676-1.121c-0.289-2.296-4.732-1.419-6.159-1.224 c-3.636,0.497-7.535,1.884-10.412,4.188c0.044-0.036-2.721,2.324-2.966,1.88c-0.52-0.944,2.434-4.564,2.409-4.531 c0.849-1.159,1.76-2.374,1.543-3.877c-0.627-4.368-13.406,1.113-15.048,2.036c-4.012,2.254-8.552,5.177-13.449,4.325 c-3.774-0.657-3.645-3.88-2.305-6.498c0.516-1.007,1.306-1.846,2.081-2.652c2.368-2.461-0.215,1.098-0.402,1.347 c-1.1,1.455-2.71,2.602-4.196,3.637C294.477,42.27,297.395,41.982,297.956,41.59L297.956,41.59z"/>
<path d="M382.633,31.714c-4.476,2.035-11.193,5.878-10.531,11.61c0.694,6.015,8.791,2.511,11.39,0.486 c6.287-4.9,10.208-16.621,6.646-24.008c-2.278-4.726-8.695-2.651-11.713-0.051c-6.459,5.567-1.925,13.697,3.625,17.857 c8.183,6.133,20.383,4.811,29.49,1.961c1.469-0.459,4.372-1.24,5.059-2.891c0.492-1.186-2.582-0.422-2.86-0.318 c-1.547,0.579-2.608,2.173-2.539,3.829c0.173,4.114,2.51,6.765,6.502,7.344c3.66,0.531,7.62-1.327,10.759-2.943 c2.324-1.197,10.05-7.357,11.466-3.904c0.672,1.636-2.102,3.025-1.933,4.675c0.655,6.405,14.38-6.098,15.058-4.805 c1.505,2.872,1.579,5.731,5.457,6.048c3.844,0.314,8.335-3.258,11.251-5.304c3.071-2.154,4.566-5.343,3.581-8.996 c-1.117-4.145-5.887-5.483-9.591-5.819c-0.744-0.067-3.372,1.225-1.83,1.364c4.919,0.446,9.387,3.075,8.81,8.539 c-0.36,3.41-4.221,5.412-6.828,6.901c-4.267,2.436-6.475,1.273-7.743-2.733c-1.454-4.592-8.56,0.823-10.687,2.323 c-0.535,0.386-1.063,0.782-1.582,1.188c-0.218,0.174-0.437,0.348-0.654,0.521c-0.889,1.027-1.357,0.427-1.405-1.799 c0.433-0.689,1.074-1.472,1.025-2.346c-0.122-2.155-2.46-2.21-4.14-2.077c-2.724,0.218-5.573,1.579-7.83,3.026 c-3.779,2.424-8.311,5.838-13.105,4.388c-2.684-0.812-3.869-4.391-3.625-6.897c0.077-0.486,0.253-0.935,0.527-1.347 c0.124-0.194-4.884,1.328-4.77,1.292c-3.263,1.021-6.661,1.486-10.063,1.651c-6.212,0.302-12.378-1.462-17.097-5.547 c-3.06-2.649-5.275-6.672-4.458-10.755c0.7-3.498,4.824-7.628,8.186-4.622c3.113,2.785,1.894,9.253,1.204,12.612 c-0.943,4.595-3.455,9.034-7.167,11.926c-5.131,3.999-6.521-2.84-4.119-6.145c1.693-2.328,4.806-4.194,7.304-5.33 C385.556,31.776,383.817,31.175,382.633,31.714L382.633,31.714z"/>
</svg>