<?xml version="1.0" encoding="UTF-8"?>
<svg version="1.0" xmlns="http://www.w3.org/2000/svg" width="159" height="77" >
<path fill="#231F20" d="M49.926,31.233c-3.699,0.448-7.459,0.511-11.169,0.191c-2.811-0.241-6.643-0.862-8.057-3.641 c-1.756-3.451,2.692-7.442,4.911-9.297C43.252,12.101,54.594,8.373,64.311,6.92c7.241-1.083-1.28,6.075-3.012,7.577 c-3.612,3.131-7.397,6.014-10.812,9.371c-3.696,3.634-6.61,7.895-10.392,11.491c-4.809,4.574-9.802,8.957-14.711,13.424 C16.61,56.768,5.625,65.351,0.063,76.09c-0.436,0.843,1.504,0.641,1.805,0.061c3.375-6.518,9.107-11.841,14.285-16.918 c6.587-6.457,13.516-12.558,20.339-18.76c4.389-3.988,8.84-7.923,12.396-12.69c3.796-5.088,9.156-8.89,13.966-12.941 c1.593-1.341,6.813-4.902,6.611-7.606c-0.325-4.35-14.932,0.928-16.413,1.394c-8.181,2.574-17.916,6.623-23.111,13.815 c-8.019,11.098,14.357,10.547,19.73,9.896C50.623,32.225,51.263,31.071,49.926,31.233L49.926,31.233z"/>
<path fill="#231F20" d="M51.048,31.384c-0.779,0.508-1.541,1.049-2.265,1.633c-0.263,0.211-2.069,1.7-0.855,1.788 c1.205,0.087,2.143-0.846,2.95-1.601c0.62-0.579,1.218-1.182,1.803-1.795c0.313-0.328-0.27-0.405-0.477-0.395 c-0.43,0.021-0.979,0.159-1.287,0.482c-0.385,0.403-0.777,0.798-1.174,1.189c-0.322,0.318-0.65,0.63-0.986,0.935 c-0.117,0.106-0.237,0.209-0.359,0.31c-0.061,0.049-0.432,0.302-0.263,0.206c1-0.467,1.431-0.484,1.293-0.051 c0.006-0.058,0.042-0.115,0.069-0.164c0.078-0.143,0.236-0.27,0.352-0.382c0.335-0.328,0.716-0.611,1.09-0.892 c0.523-0.393,1.063-0.768,1.611-1.125c0.324-0.212,0.23-0.47-0.136-0.504C51.947,30.975,51.437,31.131,51.048,31.384z"/>
<path fill="#231F20" d="M82.758,4.195c-9.23,10.527-21.229,17.989-30.333,28.667c-0.436,0.511,1.372,0.129,1.613-0.049 c1.821-1.35,3.703-2.616,5.629-3.813c2.283-1.418,4.555-1.394,1.883,1.153c-0.869,0.829-1.85,1.574-2.823,2.275 c-0.579,0.417,0.23,0.446,0.559,0.378c0.729-0.15,6.726-1.8,7.215-0.761c0.222,0.471,2.083-0.197,1.932-0.518 c-0.87-1.847-5.635-0.041-7.146,0.244c-2.143,0.404-0.77,0.506,0.634-0.597c0.91-0.716,3.332-2.357,3.411-3.726 c0.201-3.483-11.921,4.683-12.771,5.313c0.538-0.017,1.075-0.033,1.613-0.049c9.104-10.678,21.103-18.14,30.333-28.667 C84.899,3.596,83.06,3.851,82.758,4.195L82.758,4.195z"/>
<path fill="#231F20" d="M74.6,22.87c5.756-4.25,11.968-7.924,18.304-11.228c5.383-2.807,11.043-5.157,16.854-6.913 c0.415-0.125,5.896-1.271,5.609-0.523c-0.539,1.401-2.721,2.465-3.927,3.331c-11.179,8.032-22.158,16.323-33.107,24.666 C77.286,33,78.863,33.598,79.6,33.037c8.485-6.464,16.969-12.934,25.577-19.232c3.304-2.417,10.669-5.868,12.165-9.76 c1.53-3.981-16.585,2.507-17.464,2.865c-9.349,3.813-18.421,9.125-26.546,15.126C72.274,22.817,73.858,23.418,74.6,22.87 L74.6,22.87z"/>
<path fill="#231F20" d="M79.616,25.465c-0.486,0.067,0.123-0.009,0.232-0.02c0.351-0.034,0.701-0.047,1.054-0.045 c0.609,0.003,1.604,0.019,1.931,0.646c0.242,0.465,2.079-0.235,1.932-0.518c-0.428-0.82-1.64-0.862-2.444-0.895 c-0.779-0.032-1.566,0.035-2.339,0.143c-0.319,0.045-0.964,0.195-1.135,0.518C78.686,25.599,79.537,25.476,79.616,25.465 L79.616,25.465z"/>
<path fill="#231F20" d="M83.064,30.926c-0.25,0.348-0.447,0.766-0.542,1.183c-0.194,0.859,0.413,1.365,1.188,1.546 c0.448,0.105,1.027-0.059,1.366-0.366c0.308-0.279,0.208-0.609-0.188-0.702c-0.813-0.19-0.339-1.162-0.021-1.605 c0.273-0.381-0.23-0.578-0.528-0.587C83.892,30.38,83.336,30.548,83.064,30.926L83.064,30.926z"/>
<path fill="#231F20" d="M110.685,18.438c-5.449,5.348-14.814,8.874-18.818,15.612c-0.11,0.186-0.086,0.431,0.14,0.521 c1.319,0.529,3.439-1.284,4.502-1.866c4.391-2.405,8.808-4.761,13.207-7.148c9.046-4.908,17.819-10.128,26.614-15.443 c4.809-2.907,9.979-5.323,15.187-7.424c0.737-0.297,6.464-2.45,4.896-0.623c-1.675,1.951-3.992,3.536-6.046,5.042 c-11.32,8.301-22.697,15.642-32.848,25.497c-0.824,0.8,1.078,0.834,1.563,0.364c7.423-7.207,15.392-13.619,23.96-19.409 c5.145-3.478,11.201-6.78,15.296-11.551c2.078-2.42-1.481-2.124-2.943-1.776c-5.917,1.409-11.659,4.571-16.989,7.399 c-4.831,2.564-9.304,5.768-14.045,8.5c-6.824,3.935-13.767,7.669-20.696,11.414c-2.598,1.404-5.198,2.803-7.792,4.214 c-0.802,0.436-1.603,0.875-2.398,1.321c-1.862,1.043,0.632,0.32,0.323,0.84c1.938-3.261,6.763-6.287,9.778-8.319 c3.046-2.052,6.044-4.219,8.674-6.799C113.067,17.997,111.167,17.965,110.685,18.438L110.685,18.438z"/>
<path fill="#231F20" d="M98.391,32.958c2.475,1.866,5.162,1.454,7.805,0.317c-0.51,0.035-1.02,0.069-1.529,0.104 c0.563,0.896,1.584,1.691,2.703,1.622c1.292-0.08,3.445-1.389,3.786-1.319c2.24,0.465,4.544,0.765,6.805,0.325 c2.063-0.4,4.327,0.642,6.274-0.421c-0.48-0.032-0.962-0.065-1.442-0.098c-3.123,3.004-6.735,5.6-9.997,8.458 c-7.142,6.259-13.99,12.879-20.208,20.063c-0.428,0.494,1.441,0.252,1.758-0.113c5.924-6.845,12.43-13.129,19.179-19.152 c3.58-3.196,7.572-6.046,11.025-9.369c0.514-0.494-1.245-0.206-1.442-0.098c-0.725,0.396-2.621-0.412-3.56-0.254 c-2.548,0.429-4.899,0.275-7.407-0.245c-1.899-0.394-4.208,2.205-5.542,0.083c-0.264-0.42-1.206-0.035-1.529,0.104 c-1.936,0.832-3.515,0.333-4.861-0.683C99.76,31.946,98.061,32.708,98.391,32.958L98.391,32.958z"/>
</svg>