<?xml version="1.0" encoding="UTF-8" standalone="no"?>
<svg xmlns="http://www.w3.org/2000/svg" version="1.1" width="200" height="78">
<path fill="#231f20" d="m 44.978834,15.218047 c -1.041646,1.416356 -13.067709,11.757404 -12.546886,2.380232 0.12726,-2.297748 2.731375,-4.998487 4.081744,-6.542102 C 38.153931,9.1802707 47.040916,3.9743967 47.198812,1.9971547 46.630856,9.1189977 38.113868,18.602219 34.265433,24.185159 29.988086,30.392615 16.941586,51.847697 7.1873487,47.021246 c -9.655258,-4.774604 0.230953,-17.012767 5.6607103,-19.718219 12.148609,-6.05663 7.234962,5.571157 5.630073,9.004819 -2.255329,4.824094 -5.65364,9.254625 -8.9294053,13.399999 -1.298522,1.642596 1.9748863,1.772212 2.7879353,0.744706 2.413226,-3.056595 19.034786,-23.69627 8.952972,-26.387582 C 12.296599,21.66117 2.3444007,30.232362 0.27760572,38.365215 -1.5158173,45.432854 5.7050057,52.3261 12.591182,49.816252 21.68084,46.50278 28.284217,36.821599 33.855373,29.426383 39.83659,21.489134 46.989069,12.239222 50.297827,2.7277207 c 2.062082,-5.9223 -7.225535,-0.433626 -8.630108,0.546747 -4.029898,2.813858 -15.888638,11.7621163 -11.88702,17.7504033 4.513014,6.754203 15.591698,-1.774569 18.412626,-5.606507 1.001583,-1.357439 -2.474498,-1.206613 -3.214491,-0.200317 l 0,0 m -5.861027,14.743299 c 0.98273,-0.612733 3.454872,-1.543616 3.280478,-1.751003 0.737637,0.87668 -2.024375,4.913648 -2.465072,5.630074 -3.221561,5.220014 -7.150122,10.029968 -10.993843,14.790432 1.029862,0.26866 2.059725,0.53732 3.089588,0.805979 1.642596,-2.712521 3.803658,-5.87988 5.792683,-8.620681 0.874323,-1.206613 10.145444,-11.618361 10.550791,-10.557861 1.109989,2.896342 -3.176785,8.948258 -4.489448,11.30021 -1.623742,2.915195 -3.377101,5.769117 -5.224727,8.547625 -1.220752,1.835843 1.958389,2.535772 2.891629,1.1312 2.326028,-3.499648 14.813998,-20.472352 8.757368,-23.491241 -4.442314,-2.217622 -10.383467,5.630074 -12.558669,8.271896 -3.332325,4.048751 -6.294654,8.455715 -9.009532,12.940449 -0.999226,1.652023 2.269469,1.816989 3.089588,0.80598 4.491804,-5.564087 9.132078,-11.213014 12.589306,-17.502954 0.80598,-1.468202 2.467429,-4.513014 0.747063,-5.96472 -2.055012,-1.734506 -5.729053,0.315793 -7.607315,1.484699 -1.948963,1.213683 -0.153184,3.245128 1.560112,2.179916 l 0,0 M 78.297368,9.1048577 c 1.437566,-0.857826 6.2051,-4.274991 3.942701,-6.400703 -1.878262,-1.767499 -3.723531,-1.225466 -5.832746,-0.0094 -7.322159,4.220761 -13.38586,12.7589593 -18.207597,19.4966653 -2.934048,4.102954 -6.982799,11.79511 1.923039,8.250685 4.956067,-1.970172 8.771509,-7.112416 12.122687,-11.02448 2.891628,-3.374745 9.320611,-6.016567 6.683503,-11.3355603 -0.61509,-1.239606 -3.949771,-0.16261 -3.414808,0.916743 2.144565,4.3197673 -2.995322,6.6740763 -5.564087,9.2310583 -2.069152,2.059725 -3.829581,4.439957 -5.886951,6.525606 -0.893176,0.904959 -7.072352,6.278156 -6.157966,3.450158 0.59388,-1.840556 1.908899,-3.563278 2.978825,-5.1446 3.160288,-4.666198 6.872036,-8.993035 10.741681,-13.0794933 1.626099,-1.718009 3.334681,-3.358248 5.146957,-4.878297 0.69286,-0.582096 1.456419,-1.152409 2.271825,-1.555399 0.329933,1.421069 -0.0872,2.509849 -1.246676,3.268695 -0.461906,0.440696 -1.084066,0.824833 -1.644952,1.159479 -1.989026,1.192473 0.980373,1.824059 2.144565,1.128843 M 60.561105,20.035071 C 69.83694,25.559095 84.695715,14.282451 91.270811,9.4465737 90.443622,9.1213537 89.618789,8.7984907 88.793956,8.4732717 77.284002,22.391737 62.84707,36.446889 53.898812,52.187057 c -0.772986,1.357439 1.694442,1.183046 2.309532,0.912029 1.948962,-0.855469 3.506718,-3.638691 4.819381,-5.177593 4.45174,-5.220014 8.997748,-10.359901 13.857192,-15.207562 1.892402,-1.887689 3.897924,-3.659901 6.101407,-5.175237 1.088779,-0.747063 -2.809146,8.210622 -3.384172,9.103798 -3.115511,4.835878 -6.624586,9.787231 -10.447097,14.102286 0.999226,0.153183 1.998452,0.308723 2.997678,0.459549 3.440731,-6.480829 8.719662,-12.520963 13.784136,-17.733906 2.139852,-2.203483 8.238902,-3.400669 7.732218,0.883749 -0.131973,1.107633 -0.110763,1.30795 0.188534,2.285966 0.27573,0.902602 2.012592,0.996869 2.754941,0.796553 15.381958,-4.168941 18.516318,-19.06071 37.767918,-17.392191 10.49187,0.909673 17.38748,-0.200317 26.6421,-5.59001 1.99845,-1.164193 -0.95209,-1.927752 -2.17284,-1.218396 -10.41646,6.061343 -18.36078,4.772247 -29.5031,4.251424 -3.57506,-0.167323 -7.66387,0.610376 -10.82416,2.335455 -6.16739,3.367675 -10.90665,8.406226 -16.48959,12.617587 -6.93095,5.224727 -3.591555,-1.23725 -6.03306,-4.232571 -6.83433,-8.392086 -24.85575,18.655363 -27.059232,22.805451 -0.836616,1.574252 2.363735,1.173619 2.997678,0.459549 2.111573,-2.384945 20.993175,-27.697888 12.78491,-26.611465 -5.460394,0.725853 -10.001688,6.43134 -13.557896,10.098311 -3.730601,3.848435 -10.659197,14.875272 -14.370945,16.506084 0.770629,0.30401 1.538902,0.60802 2.309532,0.91203 C 65.950798,36.814529 80.163847,22.995043 91.570108,9.2014807 92.856847,7.6460817 89.958148,7.5918787 89.093252,8.2281777 83.724769,12.173236 70.770179,22.745236 63.24299,18.260502 c -1.074639,-0.638656 -4.185438,0.879036 -2.681885,1.774569 l 0,0 m 28.525077,8.538199 c -4.421104,8.158776 -8.519345,17.274357 -14.297888,24.563523 -0.71407,0.902603 2.582905,0.433626 3.099015,-0.221527 5.882236,-7.423495 10.067674,-16.62156 14.571261,-24.926449 0.287514,-0.527893 -2.893985,-0.29694 -3.372388,0.584453 l 0,0 M 110.11235,9.1449207 C 103.19318,16.42466 96.651078,24.463245 91.848194,33.300741 c -0.725853,1.331516 2.672459,0.862539 3.153218,-0.02357 4.805241,-8.837495 11.347348,-16.876081 18.264158,-24.1558203 0.93088,-0.980372 -2.46507,-0.702286 -3.15322,0.02357 l 0,0 m 36.75927,-1.614316 c -12.68358,6.4172003 -23.265,20.8612023 -33.06638,30.5565233 -4.31505,4.270278 -8.80921,8.882272 -14.16591,11.87288 -3.728245,2.083292 -5.234154,-2.014949 -4.324481,-4.798171 0.822476,-2.519275 3.994548,-5.03855 5.830391,-6.596306 9.7236,-8.250685 23.19901,-13.376433 35.6045,-15.589341 2.17049,-0.386493 1.4847,-2.731375 -0.63159,-2.354309 -13.63095,2.429722 -29.14723,8.368519 -39.297392,18.14161 -2.915195,2.806789 -9.605768,12.589306 -1.286739,14.175342 8.776221,1.673232 18.457401,-11.191804 23.693911,-16.369397 8.73616,-8.641892 17.92951,-21.330179 29.15666,-27.0097423 2.08094,-1.055786 0.21682,-2.905768 -1.51297,-2.029089 l 0,0 m 5.53109,10.0134713 c -6.07784,5.19409 -12.41256,10.107738 -19.03243,14.587759 -2.13278,1.439922 -4.36926,2.712522 -6.67408,3.855504 -0.99922,-5.514597 -0.45719,-6.933309 1.6261,-4.260851 0.1414,1.192473 -0.10133,2.316602 -0.72585,3.374745 -2.79029,6.688216 -9.26405,12.539816 -14.08579,17.764543 -1.43521,1.5554 1.59546,1.812276 2.53106,1.175976 3.77066,-2.552268 7.59318,-5.022053 11.45104,-7.437635 2.63711,-1.649666 5.3237,-3.212135 8.10928,-4.595498 -2.00788,0.994513 -4.37868,6.89089 -5.89166,8.795075 -1.26317,1.590749 1.56482,1.991382 2.53106,1.175976 3.92856,-3.311115 8.0268,-6.407773 12.28058,-9.287618 8.18706,-5.545233 5.75262,0.65044 1.97489,5.149314 -1.47292,1.753359 -3.08252,3.412451 -4.70862,5.026767 0.94266,0.30401 1.88769,0.60802 2.83035,0.91203 2.67011,-3.643405 5.6018,-7.0535 8.79508,-10.246781 8.81393,-8.802145 2.60883,5.026767 3.10608,6.577453 0.25924,0.813049 1.33388,0.801266 2.00317,0.643369 6.50675,-1.520049 41.61635,-34.298907 38.68466,-37.664225 -0.57031,-0.655153 -1.59782,-0.506683 -2.30717,-0.207387 -5.38263,2.271825 -10.25621,10.025254 -13.95146,14.231902 -5.286,6.018924 -12.0897,12.683573 -15.30419,20.165986 -1.98431,4.611994 5.95058,1.348012 7.11949,0.732923 4.27499,-2.248259 8.14935,-5.321351 12.14861,-8.007949 3.93092,-2.641822 -0.90496,0.565599 -2.43679,2.926978 -0.71407,1.098206 -1.84763,2.406155 -1.38572,3.773021 0.26866,0.789483 1.33151,0.83426 2.00552,0.64337 1.39515,-0.386493 2.53106,-0.952093 3.76359,-1.788709 2.16578,-1.442279 4.30563,-2.924622 6.42192,-4.444671 1.90418,-1.338586 4.14301,-5.905803 0.94266,-1.503552 -3.95448,5.44154 -7.55311,11.125817 -11.5618,16.534364 -2.46507,3.322898 -5.1281,6.480829 -7.87126,9.575131 -1.85234,2.045585 -3.82722,3.968624 -5.92701,5.762047 -0.54675,0.480759 -8.17763,5.538163 -6.88854,2.064438 3.60335,-9.718887 17.61843,-17.15181 25.85969,-21.933484 2.01024,-1.164193 0.16733,-2.837425 -1.47763,-1.882975 -9.98754,5.792683 -20.47942,12.365423 -26.95318,22.21157 -1.99374,3.030672 -1.76985,6.096694 2.21527,6.05663 7.75107,-0.07777 15.76845,-10.956137 20.04344,-16.055961 5.67956,-6.775413 14.25311,-16.31755 17.51945,-24.681356 0.28987,-0.739993 -0.25452,-1.310306 -1.01808,-1.343299 -2.62297,-0.122547 -5.16581,2.401442 -7.11949,3.754168 -3.0943,2.146922 -8.46514,8.420365 -4.04168,1.609602 0.61273,-0.942666 1.96546,-2.469785 1.96075,-3.813084 -0.002,-0.645726 -0.50197,-0.98273 -1.11942,-1.034576 -3.48079,-0.287513 -7.41878,3.652831 -9.99462,5.432113 -1.25374,0.86961 -8.36145,4.352761 -8.65367,5.031481 1.24432,-2.896342 3.55621,-5.443897 5.46275,-7.911326 4.52244,-5.84453 9.43609,-11.40626 14.40865,-16.869011 1.98667,-2.179915 4.01811,-4.319767 6.13676,-6.370066 2.32367,-2.250615 -2.06916,-0.285156 -3.04717,1.003939 -1.29381,1.699156 -2.79736,3.252199 -4.242,4.819381 -7.23261,7.847696 -15.29004,15.044952 -23.38048,21.987688 -1.41635,1.216039 -2.86335,2.389659 -4.32448,3.549138 -2.31896,1.838199 0.46427,-0.32522 0.91674,-1.373936 0.88611,-2.062082 1.57426,-4.077031 0.9191,-6.278156 -2.52398,-8.467499 -19.29637,12.09912 -20.2626,13.416495 -1.32681,1.809919 1.87119,1.864123 2.83035,0.91203 1.91126,-1.892402 15.71896,-15.198135 8.06922,-16.777101 -7.20432,-1.484699 -17.84231,9.462012 -22.67819,13.539043 0.84369,0.391206 1.68737,0.784769 2.53106,1.175976 1.80992,-2.278896 8.09043,-8.816285 6.61516,-11.842244 -0.21446,-0.440696 -0.58917,-0.711712 -1.10056,-0.725852 -7.82649,-0.24038 -18.12747,9.308828 -24.24773,13.454202 0.84368,0.391206 1.68737,0.784769 2.53106,1.175976 2.34724,-2.542842 19.62159,-18.30422 14.98132,-23.870664 -3.89557,-4.67798 -10.02761,-0.589166 -12.46441,3.344109 -4.77931,7.713366 8.43215,5.055047 10.93022,3.817798 9.04724,-4.472951 17.21073,-11.557087 24.84396,-18.080337 1.77457,-1.515336 -0.98037,-2.512205 -2.22233,-1.451706 l 0,0 m -2.10922,11.295497 c 1.60725,-0.39592 3.33469,-0.68579 4.98671,-0.51611 0.81069,0.08484 1.84291,-0.256876 2.22469,-1.036932 0.37235,-0.758847 -0.32758,-1.333873 -1.03222,-1.40693 -2.25533,-0.23331 -4.60257,0.122547 -6.79662,0.662223 -0.65751,0.16261 -1.61667,0.794197 -1.39986,1.607246 0.22388,0.829546 1.35744,0.853113 2.0173,0.690503 l 0,0 z" />
</svg>
