<?xml version="1.0" standalone="no"?>
<!DOCTYPE svg PUBLIC "-//W3C//DTD SVG 20010904//EN"
 "http://www.w3.org/TR/2001/REC-SVG-20010904/DTD/svg10.dtd">
<svg version="1.0" xmlns="http://www.w3.org/2000/svg"
 width="468pt" height="91pt" viewBox="0 0 468 91"
 preserveAspectRatio="xMidYMid meet">
<metadata>
Created by POTRACE VERSION, written by Peter Selinger 2001-2007
</metadata>
<g transform="translate(0,91) scale(0.050053,-0.050053)"
fill="#000000" stroke="none">
<path d="M7030 1734 c-41 -20 -104 -57 -140 -83 -36 -25 -90 -68 -122 -96 -31
-27 -80 -68 -109 -90 -28 -22 -68 -56 -88 -76 -20 -19 -87 -88 -149 -153 -62
-65 -127 -136 -143 -159 -16 -22 -46 -55 -67 -72 -20 -18 -55 -42 -77 -54 -22
-12 -51 -28 -65 -36 -14 -8 -44 -23 -68 -34 -23 -12 -50 -21 -59 -21 -9 0 -36
-11 -60 -25 -24 -14 -62 -33 -85 -41 -22 -8 -43 -12 -45 -10 -3 2 4 17 14 33
10 15 31 39 46 52 17 15 27 31 25 44 -2 11 -8 22 -14 24 -6 2 -30 -16 -54 -39
-24 -24 -60 -70 -82 -103 -25 -39 -52 -68 -76 -80 -20 -11 -48 -26 -62 -35
-14 -9 -55 -29 -93 -45 -37 -15 -71 -33 -77 -40 -6 -8 -5 -17 3 -29 11 -15 18
-13 80 29 37 25 72 45 78 45 5 0 23 7 38 15 25 12 31 13 41 0 6 -8 9 -23 5
-35 -3 -11 -3 -29 0 -40 3 -11 16 -25 28 -32 12 -6 37 -15 56 -19 30 -7 45 -2
100 28 36 20 108 73 161 118 52 46 116 105 141 131 26 27 74 79 108 115 36 38
80 74 104 85 23 10 85 42 137 71 52 29 102 58 110 63 8 5 47 28 85 51 39 23
81 49 94 58 13 9 48 32 77 51 29 19 88 62 131 95 43 33 117 101 165 150 48 50
88 95 88 102 0 6 7 19 16 27 14 15 13 19 -8 45 -13 16 -33 34 -46 40 -13 6
-33 11 -45 11 -12 0 -56 -17 -97 -36z m138 -42 c2 -12 -6 -37 -17 -55 -11 -17
-50 -62 -88 -99 -37 -37 -80 -78 -96 -92 -15 -14 -71 -56 -125 -94 -53 -38
-137 -94 -187 -124 -49 -31 -124 -73 -165 -95 -41 -22 -83 -43 -94 -46 -16 -6
-17 -4 -12 18 4 14 50 76 103 138 52 62 117 132 142 157 26 25 93 82 148 127
55 45 118 92 140 106 21 13 65 39 98 56 46 25 69 31 105 29 38 -3 45 -6 48
-26z m-1080 -819 c-2 -5 -12 -21 -22 -38 -10 -16 -43 -50 -73 -75 -30 -25 -64
-54 -76 -66 -12 -11 -49 -41 -82 -66 -33 -25 -72 -48 -88 -52 -15 -4 -37 -2
-48 5 -18 9 -20 16 -14 62 4 29 14 60 23 70 9 10 41 30 72 45 30 14 109 47
175 73 66 26 124 48 128 48 5 1 7 -2 5 -6z"/>
<path d="M1635 1417 c-17 -7 -43 -22 -59 -34 -15 -12 -36 -25 -47 -28 -10 -3
-33 -19 -51 -34 -18 -16 -70 -61 -115 -100 -45 -39 -84 -71 -88 -71 -3 0 -36
-31 -73 -69 -37 -38 -87 -91 -112 -118 -25 -28 -60 -69 -77 -91 -18 -22 -33
-48 -33 -56 0 -10 6 -13 15 -10 8 4 15 12 15 19 0 7 60 73 133 148 73 74 162
155 197 181 35 26 70 56 77 66 7 10 34 34 60 53 27 19 70 47 96 62 26 14 56
25 65 23 12 -2 -9 -28 -71 -91 -49 -48 -92 -87 -97 -87 -5 0 -49 -34 -97 -76
-48 -42 -97 -86 -108 -98 -11 -12 -36 -32 -55 -46 -19 -13 -69 -51 -110 -85
-41 -33 -90 -71 -107 -83 -18 -13 -65 -34 -105 -48 -40 -14 -102 -38 -138 -53
-36 -16 -85 -37 -110 -47 -25 -10 -64 -33 -87 -51 -23 -18 -45 -33 -49 -33 -4
0 -42 -23 -83 -52 -42 -28 -98 -72 -125 -97 -26 -25 -58 -55 -70 -66 -11 -12
-48 -50 -81 -85 -33 -36 -70 -78 -82 -94 -13 -17 -23 -42 -23 -57 0 -15 3 -34
6 -43 4 -10 11 -12 22 -7 10 5 40 19 67 32 28 12 124 72 215 133 91 61 181
124 200 141 19 16 55 50 79 73 25 24 58 50 73 58 15 8 28 21 28 29 0 7 8 16
18 19 9 4 35 23 57 44 22 20 58 50 79 66 21 16 59 48 83 71 39 35 60 45 147
69 55 15 133 37 171 48 39 11 104 31 145 43 41 13 104 31 140 40 36 9 76 21
89 27 14 5 43 13 65 18 23 5 67 15 99 23 31 8 57 12 57 8 0 -3 -13 -20 -28
-37 -15 -17 -65 -66 -112 -110 -47 -43 -112 -102 -145 -131 -33 -29 -82 -66
-109 -83 -27 -17 -55 -38 -63 -46 -8 -8 -34 -26 -59 -40 -24 -14 -67 -35 -95
-45 -46 -18 -54 -18 -95 -4 -24 8 -81 17 -127 21 -58 4 -89 1 -107 -8 -15 -8
-26 -24 -28 -40 -2 -20 5 -31 29 -49 31 -22 35 -22 138 -12 58 6 111 8 117 6
6 -2 21 -23 34 -46 12 -23 43 -64 69 -90 25 -26 71 -61 101 -76 30 -15 102
-38 160 -50 81 -16 113 -19 140 -11 19 5 46 10 61 10 14 0 34 6 45 14 13 11
16 18 8 26 -7 7 -21 6 -50 -6 -30 -13 -58 -15 -127 -11 -50 3 -98 12 -110 20
-12 8 -40 20 -62 27 -22 7 -48 20 -59 29 -10 9 -31 34 -46 56 -15 22 -37 57
-49 78 -11 21 -21 44 -21 52 0 8 33 33 73 56 39 24 95 59 122 78 28 19 88 69
135 110 47 42 109 99 138 128 30 29 59 53 66 53 6 0 41 30 76 66 36 36 99 89
140 116 41 28 96 65 122 82 26 17 48 36 48 42 0 6 13 14 28 17 16 3 48 22 72
42 23 19 51 47 62 61 11 13 17 31 14 39 -3 10 -19 15 -45 15 -25 0 -41 -5 -45
-15 -3 -8 -11 -15 -18 -15 -7 0 -49 -32 -93 -70 -44 -38 -115 -99 -158 -135
-44 -36 -87 -65 -96 -65 -9 0 -21 -4 -26 -9 -6 -5 -55 -19 -110 -31 -55 -12
-147 -35 -205 -52 -58 -17 -132 -36 -165 -44 -33 -8 -71 -19 -85 -25 -14 -7
-52 -18 -85 -26 -33 -8 -72 -17 -87 -20 -20 -4 -28 -1 -28 8 1 8 26 34 57 59
31 25 67 55 79 67 13 11 48 41 79 66 30 25 92 79 137 119 45 40 117 107 161
150 53 51 78 82 75 95 -2 12 -13 18 -33 20 -17 0 -44 -4 -60 -10z m655 -152
c0 -2 -10 -14 -22 -25 -13 -12 -32 -26 -43 -31 -11 -6 -2 6 20 25 22 20 41 36
43 36 1 0 2 -2 2 -5z m-1410 -564 c0 -6 -17 -23 -37 -40 -21 -17 -76 -61 -124
-98 -47 -37 -98 -78 -115 -90 -16 -13 -69 -51 -119 -85 -49 -34 -94 -65 -100
-70 -5 -4 -30 -22 -55 -40 -25 -18 -73 -50 -107 -71 -33 -20 -69 -37 -78 -37
-16 0 -16 2 -1 22 9 13 19 28 22 35 3 6 40 47 83 90 42 43 86 85 98 94 11 9
49 38 84 65 35 27 107 75 160 107 53 32 122 67 153 78 32 12 70 27 84 35 15 8
33 14 40 14 6 0 12 -4 12 -9z m201 -221 c10 -6 19 -15 19 -20 0 -6 -20 -10
-44 -10 -25 0 -48 5 -51 10 -3 6 -3 15 0 20 3 6 17 10 31 10 14 0 34 -5 45
-10z"/>
<path d="M8940 1397 c-20 -12 -69 -47 -110 -78 -41 -31 -85 -61 -97 -68 -12
-6 -62 -43 -110 -82 -48 -39 -99 -76 -113 -81 -14 -6 -43 -12 -65 -13 -22 -2
-66 -7 -97 -10 -46 -6 -58 -4 -58 7 0 8 13 26 28 41 15 15 33 27 39 27 6 0 26
14 44 31 19 18 45 39 59 48 14 8 44 31 68 49 23 19 42 41 42 48 0 9 -11 14
-29 14 -17 0 -32 -4 -36 -10 -3 -5 -43 -35 -88 -67 -45 -31 -86 -61 -92 -65
-5 -4 -24 -19 -40 -32 -17 -13 -53 -38 -80 -55 -28 -17 -68 -40 -91 -51 -23
-11 -74 -22 -122 -26 -51 -4 -83 -11 -86 -20 -4 -10 10 -11 60 -7 42 3 64 1
64 -6 0 -6 -4 -11 -8 -11 -5 0 -51 -23 -103 -51 -52 -29 -125 -70 -164 -93
-38 -22 -124 -69 -190 -103 -66 -35 -148 -77 -182 -94 -34 -17 -67 -28 -73
-24 -5 3 -10 12 -10 20 0 8 9 30 21 49 11 19 18 40 14 46 -3 5 -14 10 -23 10
-10 0 -54 -26 -97 -58 -44 -32 -104 -73 -134 -91 -30 -18 -69 -35 -88 -38 -23
-4 -33 -2 -33 7 0 7 16 42 36 77 19 35 46 70 60 79 13 9 24 20 24 25 0 5 -18
9 -40 9 -30 0 -56 -10 -98 -37 -31 -21 -66 -43 -77 -49 -11 -7 -44 -24 -74
-38 -30 -15 -65 -29 -78 -32 -18 -5 -23 -2 -23 14 0 12 21 51 46 89 26 37 57
76 70 86 13 10 24 25 24 33 0 8 -7 17 -15 20 -9 4 -30 1 -48 -6 -17 -7 -69
-35 -113 -62 -45 -26 -84 -48 -86 -48 -3 0 -36 -20 -74 -45 -37 -25 -74 -45
-81 -45 -7 0 -13 7 -13 15 0 8 31 48 68 90 38 41 81 84 95 95 15 12 27 28 27
35 0 8 -8 16 -17 19 -10 3 -34 2 -53 -3 -19 -5 -60 -21 -90 -35 -30 -15 -71
-36 -90 -48 -19 -12 -63 -43 -97 -70 -34 -27 -85 -78 -112 -113 -28 -36 -51
-69 -51 -75 0 -5 7 -10 15 -10 8 0 15 4 15 9 0 5 18 30 41 55 22 25 53 59 67
75 15 16 47 43 72 61 25 17 68 47 97 65 29 19 59 35 68 35 8 0 15 -4 15 -8 0
-5 -28 -40 -62 -79 -35 -39 -77 -88 -94 -110 -17 -21 -36 -48 -43 -61 -7 -13
-10 -30 -7 -38 3 -8 18 -14 33 -14 17 0 62 23 115 58 48 31 128 83 178 115 50
33 94 56 97 54 3 -3 -11 -32 -31 -64 -24 -38 -36 -71 -36 -94 0 -19 5 -40 12
-47 7 -7 23 -12 38 -12 14 0 45 12 70 26 25 14 68 39 97 55 29 16 56 29 60 29
4 0 7 -20 5 -46 -3 -33 1 -50 13 -65 13 -14 31 -19 65 -19 40 0 59 8 130 55
47 31 91 54 100 53 8 -2 16 -12 18 -23 2 -11 14 -28 25 -37 12 -10 31 -17 42
-17 11 0 41 12 66 27 25 15 73 46 107 70 33 23 70 42 81 42 11 0 22 4 25 9 3
5 37 25 76 45 38 20 95 52 127 71 32 19 64 35 71 35 6 0 12 -4 12 -9 0 -5 -15
-22 -34 -38 -18 -15 -61 -60 -94 -99 -33 -39 -64 -82 -67 -96 -5 -21 -2 -29
15 -38 17 -9 30 -7 73 16 29 15 68 34 87 43 19 9 72 35 117 58 46 24 104 59
129 78 25 19 67 47 92 62 26 15 49 30 52 33 3 3 12 10 21 15 9 6 28 18 42 28
15 11 32 17 39 15 8 -3 5 -11 -9 -24 -12 -10 -34 -31 -50 -45 -15 -14 -35 -30
-45 -35 -9 -5 -33 -25 -54 -44 -22 -19 -52 -45 -69 -57 -16 -12 -54 -36 -82
-55 -35 -22 -53 -40 -53 -53 0 -11 4 -26 9 -34 6 -9 18 -11 32 -8 13 4 56 31
95 61 39 30 102 68 140 84 38 16 81 32 97 36 20 5 29 2 34 -9 3 -9 0 -28 -6
-42 -6 -14 -9 -40 -5 -59 4 -22 17 -42 35 -55 16 -11 44 -21 62 -21 17 -1 47
2 66 5 18 3 35 8 38 11 3 3 3 13 -1 22 -5 13 -15 15 -56 9 -34 -5 -55 -3 -65
5 -8 7 -15 23 -15 35 0 13 9 42 20 66 11 24 20 50 20 57 0 7 -14 19 -32 26
-18 8 -44 13 -58 11 -15 -2 -52 -16 -84 -31 -31 -14 -60 -24 -63 -20 -4 4 3
14 16 22 12 9 37 30 55 48 18 17 43 40 57 51 13 11 58 45 99 75 41 31 92 63
114 73 27 12 64 18 125 18 47 0 131 6 186 14 72 10 133 12 220 6 66 -5 132
-14 147 -21 15 -7 34 -10 42 -7 9 4 16 13 16 21 0 9 -10 22 -22 30 -19 11 -64
13 -238 10 -118 -2 -252 -5 -297 -8 -50 -3 -85 0 -89 6 -4 5 -1 20 6 33 7 13
22 26 34 29 12 3 36 17 54 32 17 15 32 33 32 40 0 7 6 11 14 8 8 -3 25 6 38
19 14 14 39 32 57 42 18 9 50 32 72 52 24 22 39 44 39 59 0 16 -6 24 -17 24
-10 0 -34 -11 -53 -23z m-547 -379 c-2 -5 -3 -15 -3 -23 0 -8 -8 -15 -19 -15
-10 0 -30 -9 -44 -20 -14 -11 -29 -20 -34 -20 -4 0 -35 -21 -68 -45 -33 -25
-96 -67 -140 -92 -44 -25 -90 -54 -103 -64 -12 -9 -57 -32 -100 -49 -42 -18
-85 -39 -94 -48 -16 -14 -18 -13 -18 2 0 10 15 34 33 53 17 19 43 45 56 57 13
11 47 42 75 67 28 25 78 66 111 90 33 24 82 59 110 77 42 28 57 33 90 28 22
-2 56 -1 75 3 19 4 44 7 55 7 11 -1 19 -4 18 -8z"/>
<path d="M7591 1087 c-13 -6 -29 -19 -34 -29 -8 -12 -7 -21 3 -33 12 -14 16
-13 42 11 15 15 28 36 28 46 0 10 -3 18 -7 18 -5 0 -19 -6 -32 -13z"/>
<path d="M2300 907 c-36 -19 -102 -59 -148 -90 -45 -32 -85 -57 -88 -57 -4 0
-24 -15 -45 -32 -22 -18 -74 -64 -117 -102 -58 -52 -77 -76 -77 -95 0 -19 7
-28 28 -35 19 -7 38 -6 65 4 20 7 64 30 98 51 34 22 64 39 67 39 3 0 26 14 50
30 25 17 50 30 57 30 8 0 10 -9 5 -27 -3 -14 -15 -38 -26 -51 -10 -14 -19 -35
-19 -47 0 -12 6 -28 14 -34 11 -9 32 -9 93 4 43 9 98 23 123 32 25 10 56 24
70 33 14 10 50 33 80 54 30 20 59 36 64 36 4 0 21 9 37 21 16 11 34 19 40 17
6 -2 -1 -16 -16 -32 -14 -15 -44 -52 -66 -81 -22 -30 -39 -62 -37 -72 2 -10
18 -21 36 -27 30 -8 35 -6 66 27 18 20 46 39 62 43 16 4 55 20 87 35 33 16 63
26 68 23 5 -3 9 -16 9 -29 0 -14 9 -31 23 -39 12 -8 34 -18 50 -21 18 -5 27
-3 27 5 0 6 -5 20 -11 32 -8 14 -7 28 2 51 7 18 21 41 31 53 11 12 16 28 12
38 -4 12 -13 15 -28 10 -11 -4 -32 -14 -46 -24 -14 -9 -50 -27 -80 -40 -30
-12 -64 -29 -75 -36 -11 -8 -28 -14 -38 -14 -10 0 -36 -9 -57 -19 -23 -11 -42
-15 -46 -10 -3 5 17 35 45 65 28 31 51 60 51 65 0 5 24 27 53 50 28 23 52 47
52 53 0 6 -11 12 -24 14 -14 2 -37 -7 -61 -26 -20 -17 -66 -46 -101 -65 -35
-18 -104 -59 -154 -89 -49 -30 -106 -63 -125 -71 -19 -9 -57 -21 -83 -27 -27
-6 -53 -8 -58 -5 -5 4 -9 16 -9 28 0 12 11 39 25 59 14 20 36 49 50 64 14 15
25 31 25 37 0 5 15 28 34 51 18 23 42 64 52 93 15 43 16 54 5 67 -7 9 -23 16
-35 16 -12 0 -51 -15 -86 -33z m96 -1 c3 -8 1 -24 -5 -35 -6 -11 -33 -47 -60
-79 -30 -36 -72 -72 -108 -92 -32 -18 -65 -39 -74 -47 -9 -7 -69 -41 -134 -73
-65 -33 -124 -60 -132 -60 -9 0 -13 8 -11 22 2 12 38 52 84 92 45 39 94 81
109 94 15 13 46 32 69 44 22 11 59 36 81 54 22 19 67 48 100 64 33 17 64 30
68 30 4 0 10 -6 13 -14z"/>
<path d="M4984 793 c-20 -21 -45 -56 -56 -77 -11 -22 -26 -58 -32 -80 -11 -39
-15 -42 -94 -74 -65 -26 -89 -31 -110 -24 -19 6 -28 16 -30 36 -2 16 -1 38 2
50 3 11 20 28 38 38 18 9 50 19 71 22 22 3 45 10 53 17 8 6 14 17 14 25 0 7
-8 18 -18 23 -11 6 -33 6 -55 1 -21 -4 -76 -38 -129 -78 -51 -39 -124 -86
-163 -104 -38 -18 -74 -34 -79 -37 -5 -2 -6 22 -2 57 5 48 4 63 -9 76 -9 9
-31 16 -49 16 -18 0 -59 -13 -91 -30 -32 -16 -62 -30 -67 -30 -4 0 -8 4 -8 9
0 6 20 31 45 58 25 26 45 53 45 60 0 7 -7 13 -16 13 -9 0 -44 -20 -78 -43 -33
-24 -88 -58 -121 -76 -33 -18 -66 -37 -72 -43 -7 -6 -44 -26 -83 -44 -38 -19
-78 -34 -88 -34 -11 0 -24 6 -30 13 -6 7 -9 23 -5 35 3 12 8 22 12 22 3 0 41
26 84 59 43 32 92 75 109 95 17 20 27 43 24 51 -3 8 -16 15 -30 15 -13 0 -31
3 -39 6 -9 3 -39 -15 -74 -44 -36 -31 -75 -75 -99 -116 -32 -54 -48 -70 -90
-91 -28 -14 -57 -25 -64 -25 -6 0 -43 -7 -81 -17 -56 -13 -71 -14 -84 -3 -8 7
-15 26 -15 43 0 16 12 55 27 85 17 36 43 67 74 91 26 20 48 43 48 52 1 9 -6
20 -14 23 -9 3 -34 -5 -55 -19 -22 -14 -43 -25 -48 -25 -5 0 -17 -9 -28 -21
-10 -11 -44 -33 -76 -48 -34 -17 -76 -49 -106 -82 -27 -30 -51 -62 -55 -71 -5
-13 -1 -18 12 -18 11 0 26 -3 34 -6 11 -4 21 6 32 30 10 20 31 47 47 61 16 14
33 25 38 25 5 0 4 -15 -1 -32 -5 -18 -9 -44 -9 -59 0 -14 11 -36 24 -48 23
-22 30 -23 108 -16 45 4 107 16 138 26 30 10 67 19 81 19 15 0 37 -12 55 -31
24 -25 34 -29 58 -25 16 4 37 13 45 20 9 8 45 29 80 47 36 18 80 43 99 56 19
12 39 23 43 23 5 0 9 -6 9 -13 0 -8 -11 -24 -25 -37 -15 -14 -25 -35 -25 -52
0 -23 4 -28 24 -28 13 0 29 7 37 16 7 8 44 36 83 62 39 26 86 52 105 59 18 7
37 10 42 7 5 -3 9 -36 9 -74 0 -64 2 -68 24 -74 17 -4 43 4 83 25 32 16 76 37
98 44 22 8 47 15 55 15 8 0 26 -16 38 -36 23 -35 26 -36 65 -29 23 3 62 10 87
15 25 4 59 13 76 21 28 11 34 10 59 -9 20 -16 41 -22 79 -22 29 0 61 6 72 14
10 8 16 17 13 20 -3 3 -20 1 -37 -5 -17 -6 -43 -9 -58 -7 -15 2 -33 13 -41 25
-14 20 -10 25 61 94 53 51 76 80 76 97 0 13 -5 32 -10 42 -6 11 -20 24 -31 30
-17 10 -25 6 -55 -27z m-1044 -34 c-6 -11 -29 -33 -52 -49 -23 -17 -47 -30
-55 -30 -11 0 -9 7 7 28 11 15 38 39 58 54 20 14 40 24 45 21 4 -2 2 -13 -3
-24z m1090 0 c0 -7 -12 -31 -27 -55 -16 -24 -34 -44 -40 -44 -7 0 -13 6 -13
13 0 7 14 32 32 55 18 23 36 42 40 42 4 0 8 -5 8 -11z"/>
</g>
</svg>
