<?xml version="1.0" standalone="no"?>
<!DOCTYPE svg PUBLIC "-//W3C//DTD SVG 20010904//EN"
 "http://www.w3.org/TR/2001/REC-SVG-20010904/DTD/svg10.dtd">
<svg version="1.0" xmlns="http://www.w3.org/2000/svg"
 width="468pt" height="97pt" viewBox="0 0 468 97"
 preserveAspectRatio="xMidYMid meet">
<metadata>
Created by POTRACE VERSION, written by Peter Selinger 2001-2007
</metadata>
<g transform="translate(0,97) scale(0.011945,-0.011945)"
fill="#000000" stroke="none">
<path d="M4748 8001 c-47 -15 -102 -38 -122 -50 -19 -12 -47 -36 -60 -52 -14
-17 -47 -47 -73 -68 -30 -24 -63 -64 -87 -107 -22 -38 -61 -109 -87 -158 -27
-50 -60 -101 -73 -115 -14 -15 -37 -57 -51 -96 -15 -38 -41 -86 -59 -106 -19
-20 -43 -62 -55 -93 -11 -31 -32 -73 -45 -94 -14 -20 -41 -88 -60 -149 -20
-62 -41 -143 -47 -180 -6 -38 -24 -106 -39 -153 -16 -47 -33 -119 -39 -160 -6
-41 -18 -122 -26 -180 -8 -58 -21 -127 -29 -155 -8 -27 -33 -138 -54 -246 -33
-166 -43 -201 -69 -236 -26 -37 -31 -53 -36 -135 -5 -66 -15 -119 -38 -183
-31 -88 -32 -96 -40 -335 -5 -135 -13 -269 -19 -299 -5 -29 -24 -94 -41 -143
-26 -77 -32 -111 -39 -251 -6 -89 -16 -189 -23 -222 -8 -33 -37 -120 -66 -193
-28 -72 -58 -158 -66 -190 -9 -31 -19 -94 -24 -139 -7 -64 -14 -90 -33 -115
-14 -18 -31 -51 -38 -73 -7 -22 -38 -87 -68 -145 -31 -58 -77 -128 -102 -157
-31 -34 -58 -79 -80 -134 -19 -45 -48 -101 -66 -124 -17 -23 -38 -53 -44 -66
-7 -13 -27 -40 -45 -60 -18 -20 -43 -64 -56 -98 -14 -37 -44 -86 -73 -119 -27
-31 -66 -93 -88 -137 -22 -45 -62 -109 -89 -143 -28 -33 -67 -94 -88 -134 -21
-40 -55 -102 -77 -137 -21 -36 -62 -90 -89 -120 -28 -31 -68 -79 -88 -107 -20
-28 -57 -68 -81 -88 -35 -28 -50 -51 -71 -107 -22 -56 -36 -77 -68 -100 -22
-16 -53 -51 -68 -77 -15 -27 -43 -59 -62 -72 -18 -13 -44 -38 -57 -57 -13 -19
-58 -66 -99 -104 -42 -38 -116 -118 -166 -177 -81 -96 -98 -111 -165 -144 -41
-20 -105 -44 -142 -52 -37 -9 -93 -16 -125 -16 -32 0 -98 5 -146 10 -49 6
-104 17 -124 25 -19 8 -69 40 -110 71 -57 43 -79 67 -94 101 -10 25 -19 49
-19 54 0 5 -15 49 -34 97 -21 53 -38 122 -45 177 -8 62 -9 111 -2 158 7 48 25
98 62 173 37 74 64 115 91 137 21 18 51 52 67 77 16 25 34 69 40 98 6 29 20
70 31 92 11 21 24 69 29 105 5 36 19 86 31 110 12 25 45 64 73 88 29 24 68 54
87 67 19 13 67 54 107 92 39 38 92 78 118 89 34 15 57 19 84 14 20 -3 85 -20
145 -37 90 -25 120 -30 172 -25 35 4 86 16 113 27 27 12 60 33 74 48 14 15 37
55 51 89 14 34 26 80 26 101 0 21 -11 60 -25 88 -20 39 -45 65 -132 130 -59
45 -124 89 -143 99 -22 11 -56 18 -90 18 -30 -1 -118 -17 -195 -37 -94 -24
-156 -46 -190 -68 -27 -17 -81 -49 -119 -70 -39 -21 -86 -51 -105 -65 -20 -15
-56 -48 -81 -73 -25 -25 -59 -58 -77 -72 -18 -15 -42 -47 -54 -70 -12 -24 -36
-64 -55 -90 -18 -25 -43 -66 -55 -89 -12 -24 -49 -70 -83 -104 -33 -33 -79
-92 -100 -130 -22 -39 -54 -97 -72 -130 -18 -33 -41 -94 -50 -135 -9 -41 -26
-95 -36 -120 -11 -25 -30 -89 -43 -142 -13 -54 -39 -146 -59 -205 -19 -59 -47
-177 -62 -261 -24 -135 -26 -168 -21 -290 4 -75 11 -157 17 -182 6 -25 31 -86
55 -137 33 -67 56 -101 86 -125 22 -18 54 -50 70 -72 15 -22 57 -69 92 -106
36 -37 82 -75 102 -85 36 -16 43 -17 109 -2 39 9 109 23 156 31 47 8 126 20
175 26 50 6 106 14 125 19 19 5 77 20 128 34 52 15 100 31 107 37 7 6 16 30
19 54 5 28 16 52 34 68 15 14 45 31 67 38 22 7 57 21 79 32 21 11 70 26 108
34 39 8 83 21 99 30 16 8 40 31 54 52 13 20 34 64 45 96 11 33 36 80 55 105
24 31 57 57 103 81 62 32 70 40 103 103 22 43 55 85 88 114 36 31 63 68 87
117 26 51 57 92 113 146 42 41 106 118 141 170 35 52 104 137 152 187 48 51
101 114 117 139 15 25 50 62 77 83 27 20 70 63 97 96 26 33 77 117 112 186 35
69 89 161 120 204 31 43 81 126 110 185 43 85 64 116 104 149 28 23 63 65 79
94 16 29 50 87 76 130 26 42 67 93 91 113 24 19 58 57 75 83 16 27 37 69 46
94 11 31 29 57 55 78 26 20 56 64 93 132 30 56 62 129 71 162 9 33 28 96 42
140 14 44 45 118 68 165 24 47 53 94 65 105 12 11 34 43 47 70 14 28 34 62 44
76 10 14 28 66 40 115 20 79 28 95 70 139 34 36 69 95 127 215 44 91 86 188
93 215 6 28 24 75 39 105 15 30 52 132 83 225 31 94 60 197 66 230 6 33 10 92
8 130 -2 56 2 75 17 95 11 14 43 44 72 68 48 38 56 50 78 120 14 42 37 109 51
149 17 48 28 110 34 185 6 62 16 131 24 154 8 22 26 63 40 90 13 27 27 63 31
79 3 17 10 84 15 150 8 97 17 139 46 218 l35 99 0 369 c0 221 -4 395 -10 432
-6 34 -21 82 -34 107 -19 37 -34 51 -90 80 -51 26 -82 35 -129 37 -48 3 -82
-3 -149 -26z m-288 -1286 c0 -51 -11 -116 -35 -212 -19 -76 -35 -157 -35 -180
0 -23 -7 -73 -15 -111 -8 -38 -29 -123 -48 -190 -19 -66 -43 -135 -54 -154
-10 -18 -26 -34 -35 -36 -8 -2 -19 5 -23 15 -3 10 -13 49 -20 86 -11 57 -11
78 1 130 8 34 25 102 38 150 19 70 31 97 59 125 34 36 35 38 39 140 5 93 8
109 41 175 20 39 43 89 52 110 8 21 19 36 25 32 5 -3 10 -39 10 -80z m-240
-1008 c11 -48 10 -56 -14 -110 -14 -32 -46 -92 -72 -133 -25 -41 -50 -74 -54
-74 -5 0 -13 31 -20 70 -6 38 -9 77 -6 87 3 10 21 28 40 40 26 17 36 32 45 71
7 27 21 63 32 81 11 18 23 29 28 26 6 -3 15 -29 21 -58z"/>
<path d="M23815 7808 c-22 -5 -69 -16 -105 -24 -36 -8 -94 -33 -130 -54 -36
-21 -78 -42 -95 -46 -16 -4 -86 -36 -155 -71 -69 -35 -138 -76 -155 -91 -16
-15 -45 -46 -63 -69 -18 -23 -47 -51 -65 -62 -18 -11 -68 -30 -112 -42 -44
-11 -92 -28 -107 -37 -15 -9 -39 -38 -54 -65 -18 -35 -40 -57 -73 -76 -25 -14
-66 -47 -91 -72 -25 -25 -57 -54 -72 -63 -16 -10 -28 -26 -28 -35 0 -9 5 -22
12 -29 7 -7 30 -12 51 -12 35 0 46 6 91 54 28 29 68 63 89 76 21 12 44 34 52
50 8 15 28 39 45 54 17 14 64 35 103 47 40 11 86 27 102 34 17 8 42 24 57 36
15 13 62 30 110 40 46 10 96 18 111 18 15 1 42 -6 60 -15 21 -11 53 -16 94
-15 55 1 65 -1 93 -26 19 -17 35 -44 40 -68 5 -22 10 -90 10 -151 0 -94 -4
-122 -24 -176 -14 -36 -35 -107 -47 -159 -15 -65 -38 -125 -74 -194 -35 -65
-64 -140 -85 -214 -17 -63 -41 -128 -52 -144 -12 -16 -70 -127 -130 -246 -60
-119 -116 -238 -125 -266 -8 -27 -23 -59 -33 -70 -10 -11 -28 -41 -38 -66 -11
-25 -33 -61 -50 -80 -16 -19 -44 -63 -62 -99 -18 -36 -55 -96 -84 -135 -29
-38 -65 -92 -81 -120 -16 -27 -41 -68 -57 -89 -16 -22 -31 -58 -35 -80 -4 -30
-17 -51 -44 -78 -22 -20 -50 -62 -64 -93 -13 -31 -33 -68 -43 -83 -11 -15 -27
-48 -36 -73 -10 -25 -36 -69 -59 -97 -23 -28 -67 -95 -96 -149 -30 -54 -69
-127 -88 -163 -18 -36 -50 -85 -71 -110 -21 -25 -49 -63 -62 -85 -13 -22 -51
-78 -85 -125 -33 -47 -73 -106 -88 -133 -21 -35 -57 -69 -137 -128 -70 -52
-113 -91 -123 -112 -8 -18 -18 -42 -22 -55 -3 -12 -21 -32 -38 -45 -18 -13
-45 -30 -61 -37 -16 -8 -77 -58 -136 -110 -58 -52 -128 -120 -154 -150 -25
-30 -71 -84 -101 -120 -30 -36 -68 -82 -85 -102 -17 -20 -44 -39 -61 -43 -16
-4 -43 -18 -60 -32 -16 -14 -41 -46 -54 -72 -14 -28 -96 -120 -212 -237 -103
-105 -208 -205 -231 -224 -33 -25 -53 -52 -78 -107 -24 -54 -41 -78 -65 -91
-17 -9 -44 -27 -59 -40 -16 -12 -40 -42 -54 -66 -14 -24 -36 -51 -50 -60 -14
-9 -42 -42 -62 -74 -20 -31 -58 -82 -84 -112 -26 -30 -59 -78 -74 -107 -14
-29 -51 -92 -83 -140 -31 -48 -67 -110 -79 -138 -13 -27 -34 -90 -48 -139 -16
-54 -26 -113 -26 -152 0 -36 6 -80 14 -98 8 -18 24 -41 37 -50 13 -9 43 -16
67 -16 27 0 70 12 112 30 38 17 85 30 104 30 20 0 56 9 80 21 24 11 52 29 62
41 11 11 30 41 44 66 18 32 40 55 77 76 29 17 60 42 69 56 10 14 43 53 75 86
41 43 72 90 104 158 38 78 54 101 89 125 24 17 70 42 102 56 32 14 79 45 102
68 24 23 59 71 77 107 18 36 52 88 74 116 27 33 60 59 91 73 30 13 69 44 96
74 28 31 66 94 95 157 44 93 59 114 129 181 66 63 81 83 91 123 7 27 28 67 48
91 20 24 43 54 52 67 9 13 49 41 89 63 58 32 89 58 146 125 40 47 96 104 124
128 27 24 57 58 66 75 9 18 34 58 55 90 22 31 50 81 63 110 12 28 31 58 40 66
10 8 26 31 36 52 11 20 36 57 57 82 21 24 60 74 86 111 27 37 62 77 79 89 16
12 46 45 66 72 20 28 42 53 48 57 6 4 26 30 43 57 18 27 44 53 59 59 15 6 41
13 57 17 21 4 57 35 115 98 47 51 123 130 170 177 47 47 107 113 134 148 26
35 61 71 78 80 17 9 49 32 70 51 22 19 53 54 69 77 22 33 40 46 80 59 38 13
72 37 128 90 42 40 94 82 117 93 22 11 62 46 88 76 37 44 68 67 145 106 55 28
124 74 157 104 32 29 78 63 101 75 23 11 77 53 120 91 43 39 103 87 133 108
30 20 78 53 105 73 28 20 70 47 93 59 24 11 77 28 118 36 41 7 88 21 104 29
16 8 53 20 82 26 29 6 83 20 121 31 41 12 78 17 95 13 15 -3 49 -20 75 -37 26
-17 55 -44 63 -61 12 -22 14 -44 9 -86 -4 -31 -19 -118 -35 -193 -19 -93 -41
-166 -68 -225 -22 -49 -43 -99 -47 -113 -4 -14 -19 -41 -34 -60 -16 -19 -34
-53 -41 -75 -6 -22 -24 -62 -40 -90 -15 -27 -39 -88 -55 -134 -15 -46 -44
-120 -65 -165 -21 -44 -52 -98 -69 -120 -17 -21 -35 -55 -41 -75 -5 -20 -10
-40 -10 -45 0 -5 -19 -39 -41 -75 -23 -36 -62 -88 -87 -116 -24 -27 -73 -97
-108 -155 -35 -58 -82 -143 -104 -190 -23 -47 -53 -97 -67 -111 -13 -15 -40
-49 -59 -75 -18 -27 -47 -69 -63 -94 -16 -25 -41 -63 -54 -85 -14 -22 -35 -66
-47 -98 -12 -31 -37 -75 -56 -98 -18 -22 -43 -61 -54 -86 -11 -25 -49 -76 -85
-114 -49 -53 -68 -81 -80 -122 -10 -33 -27 -65 -47 -83 -17 -16 -39 -47 -49
-70 -10 -22 -39 -71 -64 -108 -25 -37 -45 -73 -45 -79 0 -6 -31 -52 -69 -101
-38 -50 -78 -110 -89 -133 -12 -22 -39 -62 -61 -87 -22 -25 -45 -63 -50 -83
-6 -20 -30 -57 -54 -82 -24 -25 -87 -91 -139 -146 -52 -55 -106 -120 -121
-145 -14 -25 -38 -76 -52 -115 -15 -38 -33 -86 -40 -105 -8 -19 -14 -60 -14
-90 0 -34 8 -76 22 -110 17 -44 30 -59 59 -73 23 -11 71 -20 126 -24 l88 -6
50 36 c27 20 80 62 117 94 37 32 79 76 92 98 13 22 33 65 44 95 11 30 39 77
62 105 22 27 52 71 65 96 13 26 46 66 74 90 28 23 59 62 71 88 13 25 38 63 56
84 19 21 39 50 46 65 6 15 38 66 71 114 47 68 69 92 103 108 31 15 54 37 86
85 25 36 82 100 128 142 46 41 104 89 129 106 25 17 65 47 89 66 24 20 66 57
95 82 28 25 67 56 86 69 19 13 51 38 70 56 19 18 55 40 80 49 25 9 61 28 80
44 19 15 57 44 83 64 32 24 81 47 148 67 74 23 121 45 179 85 44 30 106 67
138 83 31 16 84 50 117 75 33 26 74 59 92 73 17 14 58 32 90 39 32 8 69 14 83
15 14 0 50 16 80 35 30 19 66 35 81 35 15 0 37 -8 50 -19 19 -16 23 -27 23
-82 0 -35 -8 -98 -18 -139 -10 -43 -46 -133 -84 -210 -36 -74 -80 -155 -97
-180 -18 -25 -40 -65 -49 -90 -10 -25 -32 -61 -51 -80 -18 -19 -44 -57 -58
-85 -14 -27 -46 -77 -72 -110 -26 -33 -60 -86 -76 -117 -16 -31 -42 -78 -59
-105 -17 -26 -35 -64 -40 -84 -6 -21 -15 -72 -20 -114 -9 -71 -8 -84 15 -148
13 -38 35 -82 49 -96 14 -15 77 -53 139 -85 93 -48 123 -59 177 -63 48 -4 89
1 155 17 64 16 124 23 210 25 66 1 140 7 165 14 25 7 104 38 175 68 72 30 160
72 197 94 37 23 88 47 115 55 38 11 59 12 100 4 29 -6 74 -8 100 -4 27 4 82
24 123 44 42 21 145 59 230 85 85 26 164 53 176 60 12 8 43 32 69 55 27 23 81
57 119 76 39 19 86 45 105 59 22 16 47 25 71 25 20 0 44 -6 54 -13 10 -7 22
-35 27 -62 6 -31 6 -69 -1 -103 -5 -29 -22 -79 -38 -110 -16 -31 -48 -91 -72
-132 -24 -41 -60 -102 -81 -135 -21 -34 -48 -88 -59 -120 -11 -33 -33 -78 -49
-100 -15 -22 -35 -54 -44 -71 -9 -16 -25 -79 -36 -138 l-21 -109 25 -66 c14
-36 31 -76 37 -88 6 -12 18 -25 27 -28 9 -4 160 -6 336 -5 176 0 345 5 375 10
30 6 89 16 131 24 43 8 128 36 191 63 62 27 149 74 193 103 44 30 113 67 155
83 41 16 100 37 130 48 30 11 75 31 100 44 25 13 97 45 160 70 63 26 144 62
180 80 36 18 94 40 129 49 44 11 76 27 101 50 25 22 55 38 89 45 28 6 73 22
99 35 26 13 102 66 170 117 68 52 139 102 158 112 19 9 62 24 96 32 34 8 80
27 102 43 23 16 67 38 99 48 38 12 84 39 135 79 42 33 116 84 163 112 47 29
114 66 150 83 35 16 76 30 90 30 15 0 39 10 54 21 15 12 41 52 58 88 20 41 41
70 57 78 14 7 72 33 130 59 58 26 147 62 198 80 51 18 118 51 150 72 31 22 80
51 109 65 28 15 69 47 90 72 26 31 66 61 128 94 49 26 108 54 130 61 22 6 69
29 105 50 36 21 101 49 145 61 44 13 96 33 115 46 19 13 42 23 50 23 9 0 21
-5 28 -12 7 -7 12 -31 12 -55 0 -24 -6 -58 -14 -76 -7 -18 -37 -54 -65 -81
-29 -27 -63 -71 -77 -98 -13 -26 -50 -78 -80 -114 -31 -36 -67 -90 -80 -120
-13 -30 -39 -76 -57 -103 -18 -26 -49 -85 -68 -131 -25 -61 -50 -101 -93 -149
-35 -38 -72 -94 -92 -135 -18 -39 -46 -88 -62 -109 -18 -22 -35 -60 -42 -90
-6 -28 -22 -70 -35 -94 -22 -36 -25 -54 -25 -137 0 -77 5 -111 25 -168 14 -40
35 -86 46 -103 12 -17 42 -45 68 -63 25 -18 67 -48 92 -67 30 -23 66 -39 100
-45 39 -8 80 -7 144 1 70 9 111 9 186 -1 53 -7 114 -10 135 -7 22 3 104 17
184 31 94 16 179 38 240 62 77 30 114 38 195 44 81 5 109 12 149 33 27 15 57
27 67 27 10 0 83 20 161 44 79 24 170 52 203 61 38 10 107 46 184 96 114 73
129 79 176 79 29 0 92 7 140 15 49 9 120 28 159 44 39 16 97 36 128 45 31 9
78 32 103 52 26 19 63 42 83 52 20 9 91 46 157 83 98 55 136 71 205 84 47 10
108 26 135 37 28 11 73 27 100 34 28 8 82 14 122 14 51 0 76 -4 87 -15 8 -8
18 -35 21 -59 6 -35 1 -57 -24 -117 -17 -41 -45 -101 -61 -134 -17 -33 -34
-82 -40 -110 -5 -27 -27 -104 -50 -170 -23 -66 -45 -146 -51 -177 -8 -47 -6
-76 11 -154 11 -54 20 -116 20 -138 0 -23 10 -61 21 -86 11 -25 31 -56 44 -70
13 -14 37 -50 53 -80 17 -32 46 -67 68 -83 21 -15 70 -48 108 -73 38 -24 94
-59 125 -76 30 -18 89 -56 131 -86 41 -30 95 -64 120 -77 25 -12 70 -30 100
-40 30 -10 62 -23 70 -30 8 -7 29 -19 45 -28 17 -8 54 -20 83 -26 29 -6 97
-29 150 -52 53 -23 125 -59 159 -80 34 -21 96 -50 137 -64 41 -14 88 -25 103
-25 16 0 52 -6 79 -14 27 -8 72 -18 99 -22 28 -3 106 -26 174 -50 68 -24 169
-53 225 -63 56 -11 137 -24 181 -30 44 -6 107 -11 140 -11 33 0 104 7 158 15
55 8 120 21 146 29 26 8 70 25 98 40 36 18 78 56 140 124 81 91 91 107 121
193 32 92 32 96 23 187 -6 57 -17 106 -28 125 -12 20 -28 33 -44 35 -20 2 -39
-12 -96 -75 -49 -55 -100 -97 -169 -140 -84 -54 -105 -63 -145 -63 -33 0 -55
7 -80 25 -19 13 -60 38 -91 55 -32 16 -79 35 -106 40 -26 6 -77 26 -113 45
-35 20 -89 47 -119 61 -30 14 -95 45 -145 69 -58 28 -116 67 -163 109 -40 35
-108 87 -150 115 -43 28 -110 62 -150 75 -40 14 -85 34 -100 44 -15 11 -52 32
-82 47 -30 15 -63 34 -72 43 -10 8 -21 31 -24 51 -4 20 -11 45 -17 55 -5 11
-35 51 -67 90 -31 39 -76 107 -99 151 -24 44 -53 91 -66 105 -13 14 -31 42
-39 62 -11 26 -16 71 -16 151 0 62 5 140 11 172 6 32 28 93 49 134 20 42 63
136 94 209 31 72 56 139 56 147 0 9 7 32 15 51 8 20 33 58 54 86 26 32 49 78
66 130 15 45 35 99 46 119 10 21 48 82 83 136 35 54 83 116 106 138 23 22 53
64 67 93 14 29 40 64 58 78 17 13 47 29 66 36 19 6 59 27 89 46 30 19 77 51
104 71 26 20 69 65 95 101 25 37 84 110 131 164 47 54 115 130 151 170 36 39
73 84 83 99 9 15 42 39 72 54 31 14 58 32 61 40 3 7 33 35 68 62 43 34 80 76
118 135 31 47 70 100 88 118 17 18 50 60 72 93 22 33 57 81 78 106 21 25 64
97 96 160 33 63 69 139 81 170 16 37 42 75 83 115 55 54 62 67 89 153 19 61
41 107 63 135 19 22 44 61 57 86 13 25 40 70 61 100 26 38 45 81 59 140 15 57
20 98 15 127 -3 24 -18 56 -31 73 -15 17 -43 34 -66 41 -23 6 -63 8 -92 4 -28
-4 -78 -18 -112 -30 -33 -13 -110 -49 -170 -81 -60 -32 -151 -88 -203 -124
-52 -36 -131 -100 -176 -142 -48 -45 -102 -86 -130 -98 -26 -11 -84 -55 -133
-100 -47 -44 -109 -91 -138 -104 -32 -15 -68 -44 -95 -76 -24 -29 -61 -73 -82
-97 -21 -25 -57 -61 -80 -80 -23 -19 -61 -63 -83 -96 -23 -34 -59 -76 -81 -94
-22 -17 -86 -89 -142 -160 -56 -70 -122 -150 -146 -178 -25 -27 -63 -79 -86
-115 -22 -36 -61 -85 -85 -110 -24 -25 -50 -65 -58 -88 -9 -24 -27 -58 -41
-74 -14 -17 -35 -49 -47 -72 -11 -22 -41 -70 -66 -106 -25 -36 -74 -94 -108
-130 -40 -41 -73 -87 -90 -125 -14 -33 -42 -82 -60 -110 -20 -29 -38 -73 -44
-105 -7 -39 -20 -64 -44 -90 -18 -19 -48 -62 -66 -95 -18 -33 -50 -91 -71
-130 -21 -38 -54 -89 -74 -112 -20 -24 -60 -53 -93 -69 -31 -15 -95 -53 -142
-84 -47 -32 -100 -65 -119 -75 -18 -9 -58 -36 -87 -60 -29 -24 -70 -49 -91
-54 -21 -6 -46 -11 -55 -11 -10 0 -57 -18 -105 -39 -49 -21 -99 -42 -113 -46
-14 -4 -45 -18 -70 -31 -25 -12 -70 -43 -100 -69 -30 -25 -74 -54 -96 -65 -23
-12 -70 -25 -105 -31 -44 -8 -91 -26 -149 -59 -47 -27 -97 -53 -111 -58 -14
-6 -72 -17 -130 -26 -77 -12 -136 -29 -228 -66 -69 -28 -143 -64 -165 -81 -30
-21 -51 -29 -83 -29 -24 0 -103 -12 -175 -26 -73 -14 -187 -43 -253 -64 -66
-21 -144 -44 -173 -50 -32 -8 -78 -10 -116 -5 -46 4 -79 2 -117 -9 -29 -9 -72
-16 -95 -16 -24 0 -73 6 -111 14 -37 8 -112 17 -166 21 -80 6 -102 11 -117 27
-10 11 -24 42 -30 69 -7 27 -12 64 -12 82 0 17 7 59 15 92 8 33 18 78 22 100
4 21 13 52 22 68 8 16 29 48 48 72 18 25 36 59 40 76 4 17 28 64 53 103 25 39
67 99 93 132 26 34 59 85 74 113 14 29 63 93 108 144 45 51 98 112 118 137 20
25 50 72 67 105 16 33 40 69 52 80 12 11 28 31 35 45 7 14 15 41 19 61 4 20
24 63 44 95 21 33 75 93 119 134 45 41 122 122 173 178 68 78 94 115 103 150
8 31 22 53 46 71 19 14 53 42 75 62 23 21 67 49 99 64 36 17 92 60 147 111 49
46 111 94 139 108 27 14 64 44 82 65 17 22 49 52 70 67 21 14 57 50 79 80 22
29 66 72 96 95 43 32 62 54 81 98 17 36 53 84 103 136 43 44 98 105 122 135
24 30 67 73 95 96 28 23 75 68 104 100 29 32 74 75 100 95 25 21 60 60 77 88
17 27 43 58 57 67 14 9 39 36 55 60 17 23 45 52 64 63 19 12 48 43 65 69 16
26 51 67 76 91 25 24 59 69 77 100 18 31 58 96 90 144 32 49 63 107 70 130 8
26 30 59 59 87 41 39 50 56 69 125 12 44 29 98 39 120 10 22 41 66 69 97 27
31 58 78 67 105 9 26 32 80 50 118 18 39 41 93 51 120 14 40 38 70 125 155 83
80 114 118 134 163 17 37 28 82 32 130 3 41 0 90 -6 114 -6 23 -24 56 -38 74
-15 17 -42 38 -60 45 -18 8 -58 14 -90 14 -46 0 -73 -7 -133 -36 -41 -20 -102
-56 -136 -79 -33 -24 -128 -109 -210 -190 -82 -80 -187 -183 -234 -228 -47
-45 -96 -90 -110 -99 -14 -8 -89 -78 -165 -155 -77 -76 -158 -164 -179 -196
-22 -32 -54 -70 -72 -85 -17 -15 -57 -58 -87 -97 -30 -38 -68 -93 -85 -120
-17 -28 -45 -61 -62 -74 -17 -12 -56 -61 -86 -107 -30 -46 -58 -84 -63 -84 -5
0 -54 -53 -108 -117 -55 -65 -120 -149 -146 -188 -25 -38 -73 -101 -106 -140
-34 -38 -79 -97 -102 -130 -23 -33 -57 -77 -76 -98 -19 -21 -47 -59 -63 -85
-16 -26 -45 -62 -64 -80 -19 -18 -57 -70 -85 -115 -27 -45 -74 -109 -103 -142
-30 -33 -69 -87 -87 -121 -18 -34 -46 -71 -63 -84 -16 -12 -39 -43 -50 -69
-12 -25 -38 -71 -58 -101 -21 -30 -71 -85 -113 -122 -66 -59 -77 -75 -98 -134
-16 -45 -40 -85 -74 -124 -27 -31 -57 -71 -66 -87 -11 -20 -30 -35 -55 -43
-22 -7 -68 -33 -104 -59 -36 -25 -90 -63 -120 -83 -30 -20 -84 -58 -120 -84
-36 -26 -130 -89 -210 -139 -80 -51 -161 -100 -180 -110 -19 -10 -57 -39 -85
-64 -27 -26 -79 -64 -115 -85 -36 -21 -88 -59 -115 -86 -32 -30 -69 -53 -103
-64 -34 -12 -69 -34 -103 -67 -28 -27 -56 -49 -63 -49 -7 0 -30 -18 -51 -40
-26 -27 -55 -45 -83 -52 -24 -6 -77 -32 -117 -59 -41 -26 -88 -55 -104 -64
-17 -8 -63 -27 -103 -41 -40 -15 -104 -48 -143 -73 -38 -26 -95 -64 -126 -84
-31 -21 -65 -47 -75 -58 -9 -11 -42 -27 -71 -35 -30 -9 -69 -28 -86 -44 -18
-15 -71 -46 -117 -67 -47 -22 -99 -51 -115 -65 -17 -14 -55 -40 -85 -58 -30
-18 -84 -44 -120 -57 -36 -14 -83 -36 -105 -50 -22 -13 -87 -53 -145 -89 -58
-35 -109 -64 -114 -64 -5 0 -80 -38 -165 -85 -86 -46 -182 -91 -213 -99 -32
-8 -64 -18 -72 -23 -8 -4 -33 -29 -55 -54 -32 -37 -49 -48 -78 -51 -21 -3 -78
-15 -128 -28 -49 -12 -124 -31 -167 -42 -51 -13 -112 -40 -185 -83 -59 -34
-130 -83 -157 -108 -40 -38 -57 -47 -100 -52 -28 -4 -93 -25 -145 -47 -51 -22
-127 -48 -169 -59 -42 -10 -119 -22 -172 -25 -85 -6 -100 -4 -137 14 -23 12
-51 33 -62 48 -16 20 -21 41 -21 85 0 33 9 91 20 131 11 39 26 78 34 87 8 9
24 39 36 66 12 28 36 66 55 85 19 19 68 99 109 177 41 78 80 160 86 183 6 22
15 80 21 128 10 87 10 87 58 132 27 25 54 60 60 79 6 19 11 64 11 101 0 56 -4
73 -30 113 -16 26 -41 52 -56 57 -14 6 -49 10 -78 10 -47 0 -62 -6 -142 -58
-49 -31 -109 -72 -133 -90 -35 -25 -54 -32 -91 -32 -27 0 -78 -9 -114 -20 -36
-12 -96 -41 -133 -67 -37 -25 -101 -57 -143 -70 -41 -14 -95 -37 -120 -52 -24
-14 -69 -36 -100 -47 -30 -12 -90 -35 -132 -52 -42 -16 -108 -46 -145 -67 -37
-21 -92 -44 -122 -52 -33 -8 -79 -32 -115 -59 -34 -25 -72 -48 -85 -51 -13 -3
-38 -1 -56 6 -17 6 -39 11 -47 11 -9 0 -35 -15 -57 -34 -34 -29 -51 -35 -103
-40 -35 -3 -119 -11 -188 -17 -69 -6 -159 -13 -201 -16 -42 -3 -103 0 -135 7
-47 10 -67 21 -101 54 -27 27 -44 54 -48 79 -5 27 0 60 17 120 14 45 30 100
36 122 6 22 34 72 63 110 28 39 67 99 86 135 20 36 60 101 89 145 29 44 69
118 88 165 19 47 53 157 76 245 23 88 44 189 47 226 4 46 1 82 -11 122 -10 36
-30 73 -52 97 -23 26 -51 44 -78 51 -26 7 -80 9 -149 5 -79 -5 -119 -12 -148
-26 -21 -11 -74 -27 -117 -34 -43 -8 -123 -33 -177 -56 -55 -23 -152 -61 -215
-84 -63 -22 -142 -57 -175 -77 -33 -19 -93 -48 -132 -63 -46 -17 -81 -38 -95
-56 -13 -16 -30 -39 -40 -53 -11 -16 -40 -30 -94 -46 -57 -16 -90 -33 -122
-61 -24 -22 -69 -49 -101 -61 -31 -12 -83 -24 -116 -28 -33 -4 -74 -15 -92
-24 -18 -9 -39 -17 -47 -17 -8 0 -20 9 -26 20 -7 13 -8 39 -4 67 5 35 16 57
44 85 20 22 43 58 49 81 9 29 30 59 70 97 31 30 85 91 118 135 33 44 73 104
87 133 15 29 42 74 60 100 19 26 43 68 54 94 11 26 34 64 50 85 16 21 56 75
90 120 47 64 66 102 86 166 15 48 35 92 47 103 12 10 42 51 67 89 25 39 57 84
72 102 16 17 38 58 50 90 12 32 32 105 45 163 13 58 35 131 49 163 13 31 43
121 64 199 22 79 43 163 47 188 4 25 13 68 21 96 9 30 15 105 17 185 1 108 -2
146 -17 194 -17 53 -31 72 -119 159 l-99 98 -45 -6 c-25 -3 -65 -15 -90 -26
-25 -11 -67 -20 -92 -20 -26 0 -71 -6 -101 -14 -30 -8 -91 -33 -134 -55 -44
-22 -103 -48 -130 -57 -28 -9 -76 -31 -106 -49 -30 -18 -109 -58 -175 -90 -66
-31 -169 -82 -230 -113 -60 -31 -145 -82 -188 -114 -43 -32 -84 -58 -91 -58
-7 0 -39 -23 -70 -50 -38 -33 -73 -54 -103 -62 -32 -8 -57 -23 -82 -51 -20
-21 -72 -63 -117 -92 -44 -29 -104 -65 -131 -79 -28 -14 -85 -35 -127 -46 -42
-11 -89 -20 -106 -20 -19 0 -40 9 -55 25 -14 13 -25 32 -25 42 0 10 5 34 10
54 6 20 33 73 60 119 28 46 50 88 50 94 0 5 30 71 67 145 42 85 90 165 129
213 45 56 69 97 84 145 13 38 40 94 61 127 21 32 46 81 54 109 8 28 15 56 15
64 0 7 20 75 44 151 25 76 61 170 81 208 22 44 43 105 56 169 11 55 25 118 30
140 6 22 24 87 41 145 24 86 30 131 35 247 5 121 3 150 -11 188 -10 25 -37 71
-61 103 -24 33 -55 63 -71 69 -16 6 -52 18 -81 27 -28 9 -82 16 -120 15 -37
-1 -86 -5 -108 -11z"/>
<path d="M15242 7540 c-34 -16 -80 -35 -102 -41 -22 -7 -72 -40 -112 -73 -40
-34 -108 -95 -151 -136 -44 -41 -111 -118 -150 -170 -39 -52 -84 -106 -100
-119 -16 -13 -43 -43 -60 -66 -18 -23 -52 -66 -76 -96 -23 -30 -60 -63 -81
-74 -20 -11 -105 -85 -187 -165 -90 -86 -158 -160 -168 -183 -10 -21 -29 -46
-44 -55 -14 -9 -50 -42 -79 -72 -30 -30 -74 -85 -97 -121 -41 -63 -47 -67
-111 -90 -41 -15 -85 -39 -113 -64 -25 -23 -75 -63 -111 -90 -36 -27 -97 -78
-136 -114 -39 -36 -108 -100 -155 -142 -46 -41 -104 -85 -129 -97 -35 -16 -53
-34 -76 -74 -23 -42 -41 -59 -84 -81 -29 -15 -72 -44 -94 -64 -23 -20 -75 -74
-116 -119 -41 -45 -110 -112 -153 -150 -43 -37 -96 -92 -118 -121 -25 -33 -57
-62 -88 -77 -26 -14 -60 -41 -75 -60 -18 -24 -40 -39 -68 -47 -23 -6 -51 -17
-64 -26 -13 -8 -44 -40 -70 -71 -25 -31 -72 -78 -103 -104 -31 -26 -81 -67
-112 -92 -31 -25 -108 -70 -172 -102 -87 -42 -123 -65 -143 -93 -15 -20 -53
-61 -86 -92 -40 -39 -76 -63 -115 -77 -48 -17 -68 -33 -113 -86 -30 -36 -80
-80 -110 -98 -30 -18 -97 -75 -149 -127 l-94 -94 23 -19 c12 -10 32 -18 44
-18 12 0 54 25 92 56 38 31 87 65 110 75 22 10 65 24 95 30 30 6 66 18 82 26
15 7 39 33 54 56 14 23 42 62 61 87 20 25 44 53 54 62 17 15 22 15 55 1 22 -9
53 -13 74 -10 20 3 60 17 89 31 29 14 75 46 104 69 28 24 67 54 86 67 19 13
58 42 85 64 28 23 85 74 128 114 43 40 99 82 124 93 26 11 63 35 84 54 21 19
51 41 68 49 16 9 62 59 100 111 57 77 80 99 123 121 29 15 72 40 96 56 30 21
52 28 74 26 23 -2 37 -11 46 -28 8 -15 11 -46 9 -78 -3 -47 -9 -58 -50 -100
-25 -26 -69 -91 -98 -146 -33 -63 -81 -131 -133 -191 -64 -73 -90 -113 -124
-188 -23 -52 -54 -140 -68 -194 -14 -54 -44 -130 -65 -170 -22 -39 -67 -102
-100 -139 -34 -37 -68 -83 -76 -103 -9 -20 -22 -63 -30 -96 -7 -32 -21 -68
-30 -78 -10 -10 -36 -53 -60 -95 -24 -42 -59 -110 -78 -150 -19 -40 -53 -96
-74 -125 -22 -29 -52 -79 -67 -112 -15 -33 -69 -130 -120 -215 -68 -115 -98
-175 -114 -234 -13 -45 -36 -98 -55 -125 -18 -25 -44 -69 -59 -98 -14 -28 -48
-81 -76 -118 -27 -36 -56 -78 -64 -93 -7 -15 -21 -54 -31 -87 -14 -51 -28 -72
-89 -135 -47 -49 -88 -103 -116 -156 -23 -45 -73 -123 -111 -174 -37 -51 -83
-104 -103 -118 -20 -14 -45 -45 -57 -71 -12 -25 -49 -73 -83 -107 -33 -33 -69
-73 -80 -88 -10 -16 -37 -36 -60 -46 -22 -10 -68 -21 -101 -25 -33 -4 -79 -13
-101 -20 -31 -10 -51 -11 -78 -4 -20 5 -43 21 -52 34 -11 17 -14 36 -10 59 4
20 -1 68 -12 117 -10 46 -26 98 -35 114 -8 17 -35 49 -59 72 -24 23 -55 46
-69 52 -19 7 -49 5 -110 -9 -46 -10 -111 -28 -144 -40 -33 -13 -75 -34 -94
-48 -22 -16 -47 -52 -70 -101 -34 -72 -36 -81 -36 -181 0 -93 3 -112 27 -162
15 -32 52 -93 82 -135 37 -51 74 -90 108 -112 29 -19 73 -48 98 -65 45 -31 46
-31 189 -33 l145 -2 110 41 c61 22 131 51 156 64 25 13 94 46 154 74 60 28
123 61 140 73 17 13 55 40 83 60 29 21 113 97 186 170 74 72 149 144 168 158
26 20 60 77 143 240 60 118 122 235 137 260 16 25 34 72 39 105 6 32 15 69 20
81 5 12 41 42 80 67 47 31 80 61 100 92 16 26 41 82 55 125 15 43 37 94 49
112 13 19 42 65 64 103 22 38 52 80 67 94 15 14 37 48 50 76 17 38 36 60 71
85 27 18 54 39 60 47 6 8 27 60 47 116 20 56 45 133 56 171 11 39 35 92 53
119 18 26 47 70 64 97 18 27 35 66 39 87 4 20 23 66 43 102 19 36 58 85 85
109 37 34 60 67 92 135 23 50 51 99 63 110 12 10 31 47 42 81 13 40 40 86 72
126 28 35 68 100 88 145 24 52 49 89 68 102 16 12 39 44 52 74 12 29 35 73 50
98 15 25 38 77 50 115 13 39 37 93 55 120 18 28 49 66 69 85 21 19 46 54 56
77 10 24 36 60 57 81 21 21 54 58 73 82 19 24 52 69 72 99 21 31 45 79 54 106
9 28 27 66 41 86 13 20 46 48 74 63 27 15 62 44 77 64 15 20 46 55 68 77 28
26 55 69 80 125 21 47 45 93 53 103 8 10 43 38 76 62 46 32 69 58 93 102 17
32 59 89 93 127 34 39 82 102 107 140 24 39 66 98 91 131 26 33 55 72 64 88
10 15 36 39 58 54 24 16 50 45 64 73 13 25 45 66 73 90 27 25 69 61 93 81 24
20 69 52 100 73 33 22 65 53 78 76 12 22 54 65 92 96 38 30 75 67 83 82 8 15
24 36 36 47 11 10 42 52 67 92 38 62 54 77 97 98 28 13 72 45 98 70 29 28 52
63 62 92 9 26 16 67 16 92 0 25 -9 65 -20 89 -12 26 -29 46 -45 52 -15 6 -52
10 -83 10 -42 0 -73 -8 -120 -30z"/>
<path d="M10736 3661 c-15 -10 -37 -32 -47 -47 -10 -16 -19 -35 -19 -41 0 -9
17 -13 50 -13 41 0 56 5 75 25 17 16 25 35 25 60 0 32 -3 35 -27 35 -16 0 -41
-9 -57 -19z"/>
<path d="M10564 3529 c-32 -17 -72 -44 -87 -61 -17 -18 -27 -38 -25 -51 3 -19
9 -22 38 -19 19 2 53 8 75 14 22 5 48 17 57 25 10 9 20 32 24 52 3 20 8 44 11
54 3 12 -1 17 -15 17 -11 0 -46 -14 -78 -31z"/>
<path d="M10371 3374 c-24 -7 -50 -19 -58 -25 -8 -7 -13 -24 -11 -38 3 -22 8
-26 33 -24 16 1 41 11 55 21 14 11 33 33 43 51 18 30 18 31 0 30 -10 -1 -38
-7 -62 -15z"/>
<path d="M10128 3203 c-9 -10 -23 -34 -31 -54 -9 -22 -33 -49 -60 -68 -32 -22
-50 -44 -62 -75 -11 -29 -15 -57 -11 -78 3 -19 13 -44 22 -56 9 -14 26 -22 43
-22 20 0 31 7 39 25 6 14 18 55 27 91 13 57 23 75 70 126 33 35 55 68 55 82 0
12 -5 27 -12 34 -7 7 -24 12 -38 12 -15 0 -34 -8 -42 -17z"/>
<path d="M14289 1367 c-18 -12 -39 -34 -45 -47 -7 -14 -19 -42 -28 -63 -9 -22
-30 -46 -50 -58 -24 -14 -40 -35 -56 -75 -13 -30 -45 -83 -72 -117 -28 -34
-58 -78 -68 -97 -10 -19 -32 -84 -50 -143 -24 -80 -30 -118 -25 -144 3 -20 22
-60 41 -90 19 -29 44 -58 57 -62 12 -5 56 -15 98 -21 55 -8 83 -8 104 0 16 6
52 33 81 60 34 32 63 50 85 54 19 3 52 7 74 9 24 3 71 24 116 51 44 26 81 56
87 71 7 14 12 43 12 64 0 26 -7 44 -22 58 -13 12 -54 34 -93 50 -48 20 -77 39
-91 61 -12 17 -24 51 -27 76 -4 25 -2 68 3 95 5 27 21 66 35 86 14 21 25 46
25 57 0 10 -6 33 -14 51 -7 18 -30 47 -50 65 -23 20 -47 32 -65 32 -15 0 -43
-10 -62 -23z"/>
<path d="M4949 1260 c-27 -27 -49 -40 -67 -40 -15 0 -44 -5 -64 -10 -21 -6
-42 -19 -48 -30 -5 -10 -15 -42 -21 -72 -6 -29 -23 -75 -37 -103 -13 -27 -38
-67 -54 -88 -17 -21 -56 -55 -87 -76 -31 -21 -75 -58 -97 -83 -23 -25 -46 -60
-52 -79 -6 -19 -13 -61 -16 -94 -4 -40 -2 -68 7 -85 7 -15 28 -30 52 -38 25
-9 58 -11 89 -7 27 3 63 13 80 22 17 9 48 30 70 47 21 17 66 67 100 111 33 44
98 117 143 163 55 54 91 82 105 82 13 0 50 15 83 33 50 27 65 42 87 86 15 29
30 73 34 97 4 27 2 56 -6 74 -8 19 -27 36 -54 49 -22 11 -71 33 -108 50 -37
17 -74 31 -83 31 -9 0 -34 -18 -56 -40z"/>
</g>
</svg>
