<?xml version="1.0" encoding="UTF-8"?>
<svg version="1.0" xmlns="http://www.w3.org/2000/svg" width="301" height="118" >
<path fill="#231F20" d="M68.455,44.84c3.481-4.926,7.528-9.842,12.406-13.427c1.371-1.086,3.015-1.411,4.933-0.978 c0.452,0.761-0.673,2.552-0.992,3.175c-1.086,2.122-2.616,4.064-3.986,6.007c-2.016,2.859-4.025,5.696-6.176,8.457 c-11.18,14.353-23.398,27.673-39.705,36.1c-5.219,2.697-24.82,13.891-27.577,3.671c-1.247-4.621,3.916-10.28,6.641-13.27 C27.669,59.582,49.219,52.332,69.13,53.42c0.444,0.024,2.227-0.786,1.239-0.84c-19.784-1.081-39.649,5.5-54.57,18.623 c-4.337,3.813-9.604,9.248-10.435,15.265c-0.899,6.507,7.039,6.73,11.378,5.749c21.011-4.751,37.645-18.572,51.458-34.337 c5.55-6.333,10.581-12.987,15.426-19.86c1.021-1.449,6.197-7.376,3.235-8.915c-1.603-0.833-4.491,0.394-5.887,1.202 c-5.917,3.428-10.534,9.34-14.431,14.854C66.37,45.408,68.117,45.318,68.455,44.84L68.455,44.84 M74.121,66.804c-4.108,3.373-8.114,6.876-12.039,10.461c-4.336,3.959-10.714,8.775-12.876,14.462 c-1.456,3.829,5.164,0.98,6.165,0.412c6.155-3.496,11.553-8.859,16.443-13.899c0.297-0.306,6.394-6.759,4.893-7.182 c-0.91-0.257-2.3,0.407-1.593,1.41c3.049,4.326,15.05-7.837,16.464-9.164c5.572-5.228,10.725-10.906,15.802-16.607 c0.444-0.499-1.436-0.235-1.759,0.107C93.482,59.648,81.169,72.479,69.918,86.115c-0.934,1.131-3.616,3.577-3.637,5.225 c-0.017,1.351,3.494-0.886,3.698-1.021c10.134-6.721,19.832-14.166,29.517-21.514c-0.542,0-1.084-0.001-1.626-0.001 c-4.324,4.228-8.567,8.541-12.706,12.949c-0.661,0.704-9.49,10.691-7.571,10.833c4.137,0.305,9.526-5.47,12.397-7.72 c4.717-3.695,9.335-7.526,13.889-11.42c-0.586,0.036-1.172,0.071-1.759,0.107c-2.225,2.007-17.966,16.19-12.439,18.539 c3.439,1.462,8.643-3.376,10.837-5.175c3.354-2.751,6.428-5.854,9.501-8.909c1.385-1.375,4.356-5.143,5.62-5.63 c-0.437,0.001-0.873,0.002-1.31,0.003c0.132,0.548-2.309,2.897-2.645,3.303c-1.634,1.975-3.273,3.945-4.883,5.939 c-1.446,1.79-5.803,5.882-5.64,8.467c0.112,1.78,6.851-2.735,6.985-2.832c4.313-3.109,8.33-6.708,12.232-10.313 c0.453-0.418-1.4-0.224-1.759,0.107c-3.085,2.849-6.264,5.603-9.537,8.231c-0.437,0.351-5.942,4.369-5.989,4.288 c-0.344-0.592,1.262-2.519,1.543-2.929c2.394-3.5,5.214-6.734,7.918-9.994c0.563-0.679,3.948-3.786,3.707-4.786 c-0.093-0.386-1.115-0.072-1.31,0.003c-3.448,1.33-21.268,23.479-24.512,18.823c-2.556-3.667,10.908-14.962,13.438-17.244 c0.464-0.418-1.405-0.195-1.759,0.107c-3.474,2.97-6.998,5.884-10.552,8.756c-2.465,1.991-4.959,3.946-7.5,5.839 c-1.039,0.774-2.098,1.521-3.171,2.246c-0.749,0.506-2.045,1.728-1.917,1.049c0.341-1.79,2.475-3.673,3.607-5 c2.26-2.647,4.668-5.172,7.075-7.686c3.265-3.409,6.592-6.762,9.967-10.062c0.49-0.479-1.348-0.213-1.626-0.001 c-8.348,6.333-16.757,12.598-25.324,18.631c-1.757,1.237-3.523,2.662-5.427,3.666c1.219-0.643,1.053-0.563,1.991-1.877 c1.954-2.738,4.225-5.271,6.426-7.811c10.245-11.818,20.968-23.242,31.71-34.608c-0.586,0.036-1.172,0.071-1.759,0.107 c-5.777,6.487-11.671,12.902-18.114,18.74c-2.475,2.242-6.118,6.041-9.621,6.697c-0.486,0.091-1.193-0.408-1.051-0.92 c-1.177,4.208-2-0.471-1.812,0.598c0.078,0.441-0.365,0.984-0.582,1.325c-1.347,2.116-3.271,3.953-5.007,5.742 c-4.308,4.439-8.99,8.695-14.127,12.156c-0.931,0.628-4.98,3.216-4.19,0.264c0.56-2.095,2.53-3.978,3.923-5.549 c6.229-7.025,13.594-13.211,20.839-19.161C76.334,66.323,74.496,66.496,74.121,66.804L74.121,66.804 M164.798,59.174c-5.097,7.729-10.547,15.258-16.343,22.476c-3.748,4.67-7.778,9.698-12.76,13.124 c-5.052,3.475-6.064-3.663-5.074-7.018c1.484-5.026,5.214-9.577,8.331-13.68c0.115-0.152-1.561-0.104-1.904,0.348 c-3.631,4.779-7.701,9.954-8.899,15.972c-0.494,2.482,0.907,6.032,3.861,6.16c4.299,0.188,8.075-3.879,10.81-6.636 c9.14-9.217,16.754-20.283,23.883-31.094C166.828,58.635,165.106,58.706,164.798,59.174L164.798,59.174 M156.897,70.375c-3.056-5.189,1.916-11.835,5.437-15.288c10.157-9.963,26.278-16.207,40.215-17.746 c7.37-0.814,14.805,0.117,21.964,1.888c6.002,1.485,11.606,4.067,17.661,5.395c9.557,2.094,19.586,2.243,29.288,1.281 c7.584-0.752,32.685-4.769,25.48-17.678c-7.392-13.244-26.529-19.44-40.182-22.632c-23.628-5.524-48.525-2.907-71.518,4.145 c-20.108,6.166-39.767,16.213-55.417,30.397c-5.921,5.365-18.823,17.834-13.224,26.988c4.699,7.685,15.631,9.646,23.772,10.549 c12.33,1.367,24.986,0.101,37.24-1.398c0.929-0.113,1.609-1.215,0.27-1.051c-14.253,1.743-29.098,3.182-43.304,0.349 c-7.008-1.397-18.192-5.741-17.188-14.622c0.764-6.758,6.401-12.928,10.907-17.554c7.396-7.592,16.292-13.688,25.439-18.958 c24.975-14.389,54.511-22.107,83.338-20.457c18.922,1.083,41.942,6.644,55.286,21.211c2.884,3.147,5.52,7.342,2.648,11.331 c-3.97,5.519-13.59,6.93-19.726,7.88c-8.916,1.38-18.118,1.269-27.041,0.044c-9.521-1.306-18.166-5.521-27.557-7.368 c-18.359-3.611-36.167,2.171-51.785,11.642c-6.075,3.684-19.032,13.521-13.801,22.403 C155.418,71.661,157.301,71.059,156.897,70.375L156.897,70.375 M160.616,88.35c4.253-3.319,8.522-6.966,11.684-11.366c3.413-4.753-0.784-6.228-4.93-4.612 c-6.262,2.44-11.875,9.232-10.913,16.127c1.035,7.423,10.354,1.727,13.205-0.68c0.712-0.601,11.212-11.755,7.913-11.991 c-2.231-0.16-4.081,2.862-5.237,4.269c-1.752,2.129-3.426,4.423-4.072,7.146c-0.802,3.376,2.275,4.592,5.082,3.881 c8.357-2.118,15.234-10.049,20.69-16.162c0.802-0.898-1.079-0.91-1.576-0.42c-1.416,1.396-15.375,16.594-8.527,16.552 c4.519-0.027,8.886-3.671,12.275-6.242c4.096-3.106,8.825-6.777,11.449-11.292c0.535-0.921-1.439-0.597-1.818-0.115 c-11.068,14.093-22.535,28.178-32.25,43.25c0.627-0.015,1.254-0.029,1.88-0.044c0.839-3.109,2.867-6.036,4.661-8.646 c6.395-9.31,15.302-16.897,24.234-23.652c1.047-0.792-0.567-1.202-1.232-0.699c-9.02,6.821-17.623,14.353-24.319,23.529 c-2.087,2.859-4.348,6.194-5.285,9.672c-0.236,0.874,1.605,0.382,1.88-0.044c9.715-15.073,21.182-29.158,32.25-43.25 c-0.606-0.038-1.212-0.077-1.818-0.115c-1.821,3.134-4.86,5.654-7.555,8.009c-3.603,3.146-7.895,6.729-12.51,8.248 c-4.964,1.634,2.312-8.237,2.894-8.936c1.685-2.021,3.495-3.955,5.368-5.804c-0.525-0.14-1.051-0.28-1.576-0.42 c-1.731,1.939-19.299,20.832-22.19,14.438c-1.032-2.283,1.398-5.483,2.638-7.17c1.086-1.479,2.264-2.854,3.531-4.172 c0.206-0.213,0.079-0.734-0.64,0.794c-0.981,2.085-2.551,3.931-4.089,5.61c-1.877,2.049-4.07,3.813-6.386,5.336 c-4.902,3.227-7.518,0.241-7.016-4.627c0.549-5.326,6.327-10.448,11.194-11.902c4.229-1.264,1.119,3.823,0.482,4.71 c-1.277,1.777-2.927,3.326-4.501,4.835c-1.936,1.854-3.989,3.61-6.103,5.259C158.35,88.458,159.956,88.864,160.616,88.35 L160.616,88.35 M201.367,89.603c8.158-5.046,16.271-10.354,23.707-16.426c1.452-1.186,6.47-4.667,5.552-7.164 c-0.805-2.187-5.542,1.479-6.2,1.964c-4.543,3.354-8.618,7.479-12.349,11.698c-1.946,2.201-5.907,5.958-4.828,9.259 c0.872,2.671,4.723,2.054,6.701,1.493c7.142-2.023,13.111-8.676,17.839-13.965c0.757-0.847-0.916-0.949-1.406-0.564 c-2.603,2.046-16.28,11.926-12.902,15.907c1.723,2.03,6.336-1.363,7.619-2.294c4.897-3.554,8.527-8.901,10.372-14.611 c0.251-0.777-1.704-0.513-1.943,0.201c-2.621,7.834,6.822,5.591,10.873,3.87c-0.34-0.274-0.679-0.549-1.019-0.823 c-2.07,1.461-5.885,4.405-5.597,7.331c0.396,4.019,5.289,4.211,8.375,3.563c2.354-0.494,8.69-1.894,9.47-4.803 c0.791-2.956-4.39-1.404-5.532-0.959c-1.249,0.488-0.122,1.302,0.803,0.941c0.355-0.144,0.721-0.264,1.093-0.359 c0.273,0.447,0.546,0.895,0.818,1.341c-0.664,0.462-1.366,0.856-2.107,1.185c-2.276,1.12-4.872,1.736-7.406,1.688 c-7.298-0.142-1.314-7.365,1.318-9.222c1.009-0.712-0.354-1.105-1.019-0.823c-3.85,1.636-10.105,2.782-8.127-3.13 c-0.647,0.067-1.296,0.134-1.943,0.201c-1.462,4.527-3.98,8.305-7.319,11.674c-1.408,1.421-9.69,6.916-6.403,1.344 c2.678-4.542,7.712-8.295,11.812-11.516c-0.469-0.188-0.938-0.377-1.406-0.564c-4.411,4.935-9.233,9.979-15.33,12.801 c-2.555,1.183-7.271,1.119-5.501-2.854c3.051-6.857,10.963-13.379,16.866-17.736c0.42-0.31,2.642-2.075,2.485-1.103 c-0.209,1.305-1.882,2.599-2.773,3.454c-3.089,2.966-6.663,5.462-10.146,7.937c-5.104,3.626-10.354,7.068-15.68,10.361 C199.019,89.587,200.673,90.031,201.367,89.603L201.367,89.603 M217.044,102.878c-39.655-13.644-82.865-10.604-123.786-6.634c-12.402,1.203-24.822,2.579-37.093,4.772 c-5.756,1.029-12.86,1.922-17.801,5.352c-2.887,2.004-0.458,4.259,1.96,5.124c4.175,1.493,9.219,1.229,13.566,1.204 c26.909-0.158,53.981-4.273,80.655-7.401c37.391-4.384,74.769-8.968,112.285-12.16c0.496-0.043,2.111-0.877,0.84-0.77 c-52.682,4.483-105.029,11.985-157.634,17.181c-14.723,1.454-31.045,4.214-45.803,1.767c-4.104-0.681-7.682-3.63-2.244-6.068 c9.535-4.275,21.588-4.906,31.802-6.188c46.268-5.81,96.59-10.942,141.665,4.566 C215.887,103.771,217.609,103.072,217.044,102.878L217.044,102.878z"/>
</svg>