<?xml version="1.0" encoding="UTF-8"?>
<svg version="1.1" xmlns="http://www.w3.org/2000/svg" width="309px" height="32px">
<path fill="#231F20" d="M33.729,14.797c-3.184-1.377,5.671-8.325,6.592-8.968c2.067-1.442,4.32-2.635,6.558-3.781 c0.211-0.108,3.923-1.303,2.637-0.277c-5.289,4.215-10.371,8.683-15.685,12.869C25.183,21.45,15.867,27.397,4.243,25.302 c-1.632-0.294-3.765-1.166-3.087-3.134c1.117-3.245,7.53-4.167,10.083-4.46c2.669-0.307,12.854-0.862,14.679,2.134 c0.15,0.246,1.05-0.121,0.966-0.258c-1.2-1.971-6.155-1.959-8.151-2.192c-4.61-0.537-9.289-0.176-13.65,1.429 c-1.928,0.709-4.959,2.159-5.08,4.533c-0.157,3.091,8.268,2.887,9.662,2.817c9.229-0.457,16.267-4.983,23.467-10.382 c3.876-2.907,7.582-6.051,11.305-9.148c2.022-1.682,6.088-3.925,7.237-6.387c0.031-0.065-0.033-0.089-0.081-0.107 c-2.821-1.021-8.635,3.528-10.863,4.895c-1.199,0.735-11.454,8.554-7.91,10.086C33.085,15.244,33.842,14.846,33.729,14.797 L33.729,14.797z
M35.003,24.01c0.036-0.069,0.076-0.136,0.117-0.202c0.039-0.061,0.081-0.118,0.125-0.173 c0.199-0.257,0.141-0.005-0.114-0.097c0.235,0.084,1.109-0.284,0.787-0.4c-0.787-0.282-1.538,0.378-1.872,1.028 C33.953,24.349,34.87,24.27,35.003,24.01L35.003,24.01z
M45.368,22.811c5.268-1.922,10.499-3.948,15.702-6.037c7.92-3.181,16.758-6.332,23.523-11.679 c3.142-2.483-2.988-0.777-3.787-0.433c-6.02,2.598-11.892,6.485-17.013,10.537c-1.58,1.25-7.972,6.413-4.514,8.802 c4.757,3.286,12.16-0.101,16.638-2.383c1.177-0.601,7.012-3.872,3.046-4.586c-5.209-0.939-13.504,2.484-16.471,6.777 c-0.354,0.511,0.55,0.692,0.814,0.309c2.98-4.311,10.225-6.654,15.331-6.354c1.874,0.109-3.545,3.45-4.001,3.683 c-2.423,1.235-5.016,2.111-7.662,2.718c-2.17,0.497-6.63,1.009-7.579-1.727c-0.66-1.905,2.45-4.488,3.6-5.543 c3.704-3.4,8.165-6.076,12.492-8.587c1.407-0.816,2.838-1.589,4.285-2.332c0.868-0.446,4.4-1.563,4.173-1.351 c-3.974,3.712-10.2,5.966-15.137,8.133c-7.751,3.402-15.674,6.457-23.626,9.358C44.608,22.325,44.78,23.026,45.368,22.811 L45.368,22.811z
M78.915,24.427c0.333-0.292,0.667-0.584,1-0.875c0.158-0.138,0.101-0.315-0.096-0.36 c-0.231-0.053-0.507,0.028-0.683,0.183c-0.333,0.292-0.667,0.584-1,0.875c-0.158,0.138-0.101,0.315,0.096,0.36 C78.463,24.663,78.738,24.582,78.915,24.427L78.915,24.427z
M82.085,24.315c14.551-4.091,29.556-7.847,43.413-13.96c2.126-0.938,4.878-1.976,6.376-3.854 c0.562-0.706-0.156-1.192-0.825-1.084c-6.559,1.053-13.365,4.867-19.16,7.96c-2.807,1.498-6.549,3.799-7.96,6.739 c-1.54,3.208,1.464,4.002,4.1,4.514c3.93,0.762,8.09-0.146,11.849-1.265c2.151-0.64,8.841-2.554,9.783-5.183 c0.616-1.72-2.609-1.346-3.436-1.296c-5.22,0.31-10.698,2.4-15.337,4.666c-5.783,2.824-8.436,8.68-0.431,10.025 c5.986,1.007,14.027-0.691,19.114-4.109c0.542-0.364-0.301-0.455-0.592-0.26c-5.22,3.507-13.015,4.691-19.057,3.676 c-6.322-1.063-3.388-5.952,0.172-8.298c4.63-3.05,11.21-4.91,16.719-5.237c0.091,0.759,0.183,1.517,0.274,2.275 c-1.323,0.797-2.7,1.49-4.131,2.079c-2.826,1.286-5.856,2.052-8.918,2.486c-3.063,0.436-12.344,0.212-8.453-5.136 c3.818-5.246,11.654-7.903,17.381-10.322c2.186-0.924,4.403-1.802,6.669-2.51c2.047-0.64,1.064,0.693-0.001,1.424 c-1.395,0.956-2.983,1.636-4.51,2.342c-5.518,2.555-11.346,4.372-17.136,6.189c-8.629,2.709-17.318,5.237-26.024,7.685 C81.391,24.024,81.509,24.476,82.085,24.315L82.085,24.315z
M147.658,17.849c-2.318-1.091-13.973,2.209-12.824,4.851c0.67,1.54,3.483,0.904,4.701,0.667 c2.249-0.438,4.447-1.029,6.639-1.695c0.894-0.271,1.209-1,0.129-0.196c-0.643,0.478-0.871,0.8-1.309,1.425 c-0.799,1.14,1.489,0.893,1.77,0.862c4.463-0.483,8.94-2.043,13.231-3.271c11.323-3.242,23.225-6.549,33.819-11.801 c0.308-0.152,4.786-3.055,2.129-2.763c-5.225,0.575-10.854,3.494-15.655,5.42c-5.808,2.33-12.39,4.726-17.28,8.758 c-2.495,2.057-0.655,3.298,1.858,3.12c8.565-0.604,17.247-4.037,25.285-6.812c7.161-2.471,15.387-4.609,21.927-8.548 c0.569-0.342-0.288-0.48-0.604-0.305c-7.104,3.938-14.222,7.901-21.094,12.234c-0.241,0.151-4.114,2.377-3.552,2.984 c0.352,0.382,1.277,0.147,1.652,0.011c0.874-0.32,1.696-0.704,2.519-1.144c0.551-0.293,2.839-1.937,1.523-0.765 c-0.074,0.065-0.145,0.19-0.058,0.278c1.145,1.164,3.317,1.016,4.816,1.058c5.414,0.155,10.891-0.857,16.181-1.852 c0.463-0.087,0.79-0.681,0.127-0.557c-5.257,0.988-10.572,1.861-15.937,1.842c-1.711-0.006-3.875,0.321-3.519-1.496 c0.023-0.116-0.085-0.197-0.189-0.213c-1.24-0.177-5.921,1.88-6.194,2.479c0.896-1.964,5.791-3.909,7.537-4.953 c5.482-3.278,11.053-6.415,16.638-9.518c0.204-0.113-1.576,0.191-2.046,0.406c-1.032,0.472-2.085,0.901-3.136,1.332 c-3.397,1.395-6.842,2.679-10.291,3.939c-7.991,2.922-16.09,5.677-24.346,7.759c-2.653,0.669-5.729,1.594-8.496,1.235 c-3.151-0.409,3.096-4.338,3.766-4.724c6.839-3.93,14.46-6.746,21.872-9.385c0.608-0.217,6.508-1.726,6.566-1.842 c-1.213,2.383-7.399,3.824-9.626,4.682c-12.357,4.759-25.613,9.401-38.692,11.761c-2.16,0.39-1.492-0.774,0.332-1.999 c0.428-0.287-0.041-0.513-0.37-0.405c-2.28,0.747-4.581,1.396-6.92,1.93c-4.065,0.927-2.061-2.443,0.057-3.343 c1.128-0.479,4.628-1.756,6.298-0.97C147.188,18.466,148.071,18.043,147.658,17.849L147.658,17.849z
M225.436,18.133c-0.736,0.132-7.936,1.469-6.744,3.369c2.004,3.194,8.659-0.641,10.443-2.353 c1.036-0.994-0.136-1.68,0.601-0.695c0.529,0.707,1.458,1.081,2.249,1.392c2.162,0.848,4.64,0.957,6.924,1.065 c3.857,0.184,9.428-0.328,11.563-1.074c-0.653,0.229-6.936,2.747-3.75,3.71c4.767,1.439,11.862-0.333,16.549-1.551 c1.61-0.419,0.89-1.119-0.609-0.033c-0.544,0.394-1.158,0.971-0.767,1.646c0.72,1.243,5.205,0.18,5.963,0.082 c2.744-0.354,5.478-0.754,8.23-1.046c1.22-0.129,6.14-0.211,2.599,1.409c-0.538,0.246-0.167,0.711,0.303,0.614 c2.027-0.418,4.063-0.801,6.105-1.138c1.95-0.322,2.449-0.836,1.803,0.738c-0.054,0.131-0.024,0.249,0.089,0.334 c1.903,1.423,6.252,0.746,8.362,0.332c5.425-1.064,9.845-3.644,13.456-7.829c0.399-0.464-0.523-0.615-0.809-0.285 c-3.885,4.503-8.773,7.043-14.659,7.688c-1.416,0.155-2.854,0.117-4.27-0.021c-1.682-0.165-0.389-0.956-0.08-1.47 c0.071-0.118,0.012-0.258-0.09-0.333c-1.356-1.011-5.164,0.379-6.697,0.659c-0.798,0.146-1.593,0.304-2.388,0.461 c-1.996,0.395,0.622,0.202,1.321-0.169c0.523-0.277,1.082-0.631,1.159-1.247c0.161-1.303-5.874-0.472-6.119-0.45 c-3.752,0.337-7.46,1.044-11.21,1.377c-2.975,0.265-1.523-1.131-0.225-1.818c0.603-0.319,0.061-0.75-0.428-0.568 c-3.634,1.355-7.697,1.669-11.534,1.977c-1.691,0.136-3.402,0.196-5.094,0.05c-1.861-0.162,3.147-2.525,3.556-2.662 c0.452-0.151,0.544-0.743-0.046-0.683c-2.482,0.252-20.021,2.873-20.81-2.026c-0.062-0.382-0.733-0.217-0.888-0.014 c-1.031,1.357-2.341,2.182-3.827,2.996c-0.364,0.168-0.728,0.335-1.092,0.503c-2.138,1.623-3.392,1.302-3.761-0.964 c1.431-0.725,3.223-1.029,4.798-1.313C226.227,18.684,226.034,18.026,225.436,18.133L225.436,18.133z"/>
</svg>