<?xml version="1.0" standalone="no"?>
<!DOCTYPE svg PUBLIC "-//W3C//DTD SVG 20010904//EN"
 "http://www.w3.org/TR/2001/REC-SVG-20010904/DTD/svg10.dtd">
<svg version="1.0" xmlns="http://www.w3.org/2000/svg"
 width="468pt" height="147pt" viewBox="0 0 468 147"
 preserveAspectRatio="xMidYMid meet">
<metadata>
Created by POTRACE VERSION, written by Peter Selinger 2001-2007
</metadata>
<g transform="translate(0,147) scale(0.011854,-0.011854)"
fill="#000000" stroke="none">
<path d="M9900 12375 c-31 -9 -72 -12 -93 -9 -24 4 -45 1 -60 -8 -12 -8 -44
-23 -72 -33 -31 -11 -81 -19 -131 -21 -59 -1 -92 -8 -122 -23 -23 -12 -49 -21
-59 -21 -10 0 -38 -14 -63 -30 -25 -16 -52 -30 -60 -30 -8 0 -32 -9 -53 -20
-20 -11 -45 -20 -55 -20 -10 0 -29 -11 -42 -25 -14 -14 -50 -39 -81 -55 -31
-16 -77 -34 -100 -40 -24 -7 -62 -21 -84 -32 -22 -11 -49 -29 -60 -39 -12 -10
-36 -24 -55 -32 -19 -7 -50 -21 -69 -32 -18 -11 -54 -37 -78 -58 -25 -20 -57
-43 -71 -51 -15 -7 -44 -16 -64 -20 -26 -5 -52 -21 -85 -54 -27 -26 -74 -60
-105 -75 -38 -19 -63 -39 -77 -62 -11 -19 -34 -40 -51 -47 -17 -7 -61 -40 -97
-73 -37 -33 -124 -116 -193 -185 -69 -69 -142 -140 -162 -158 -21 -17 -45 -47
-54 -65 -9 -17 -35 -56 -58 -85 -22 -30 -60 -73 -83 -97 -24 -24 -43 -48 -43
-53 0 -6 -18 -32 -40 -57 -22 -25 -40 -50 -40 -55 0 -4 -20 -30 -45 -58 -24
-27 -54 -71 -66 -98 -11 -27 -32 -64 -45 -82 -14 -18 -35 -54 -46 -80 -12 -26
-36 -67 -55 -91 -18 -24 -33 -49 -33 -56 0 -6 -9 -20 -20 -30 -11 -10 -20 -23
-20 -29 0 -6 -21 -52 -46 -101 -25 -50 -56 -103 -68 -120 -12 -16 -41 -73 -64
-125 -23 -52 -54 -133 -69 -179 -20 -65 -36 -93 -64 -121 -23 -22 -46 -59 -58
-91 -10 -30 -27 -90 -36 -134 -11 -51 -39 -126 -77 -205 -34 -69 -67 -132 -75
-141 -8 -10 -21 -41 -29 -70 -9 -30 -20 -79 -25 -109 -5 -30 -24 -86 -43 -125
-18 -38 -41 -92 -49 -120 -9 -27 -21 -86 -28 -130 -7 -52 -22 -98 -40 -130
-15 -28 -40 -95 -54 -150 -14 -54 -37 -119 -52 -144 -14 -24 -30 -61 -34 -80
-5 -20 -14 -69 -19 -110 -7 -49 -19 -90 -39 -125 -16 -28 -36 -80 -45 -116 -8
-36 -20 -92 -26 -125 -7 -33 -23 -96 -36 -140 -12 -44 -35 -111 -49 -150 -14
-38 -36 -110 -50 -160 -13 -49 -38 -127 -54 -173 -17 -46 -35 -122 -41 -170
-6 -48 -16 -125 -22 -172 -7 -47 -24 -116 -40 -155 -16 -38 -33 -78 -39 -88
-5 -10 -20 -52 -34 -95 -13 -42 -35 -120 -49 -172 -13 -52 -34 -145 -45 -206
-12 -61 -27 -129 -35 -150 l-14 -39 -12 30 c-7 17 -14 46 -17 66 -3 19 2 71
11 115 8 43 20 156 25 249 5 94 14 181 19 195 6 14 15 83 21 154 7 70 9 146 6
169 -4 28 3 86 20 171 14 71 24 139 21 151 -3 12 -1 59 4 106 6 46 15 127 20
179 5 52 10 259 11 460 1 352 0 367 -21 425 -12 33 -25 78 -30 100 -4 22 -13
65 -19 95 -7 30 -16 102 -21 159 -8 84 -14 111 -34 140 -15 22 -30 70 -41 126
-10 50 -21 98 -27 108 -5 9 -18 52 -29 94 -14 58 -28 86 -53 113 -19 19 -42
51 -51 70 -10 19 -33 48 -52 63 -18 16 -40 44 -47 62 -8 18 -26 41 -41 51 -14
9 -32 31 -39 49 -8 17 -33 48 -57 67 -24 20 -58 39 -75 42 -17 4 -42 19 -56
34 -14 15 -34 41 -44 57 -10 17 -23 33 -29 37 -5 4 -28 8 -49 8 -22 0 -65 5
-96 12 -46 9 -80 8 -190 -7 -74 -9 -144 -22 -155 -28 -11 -5 -37 -25 -58 -43
-21 -17 -58 -37 -82 -43 -24 -6 -56 -11 -70 -11 -18 0 -31 -9 -42 -28 -10 -17
-39 -39 -72 -55 -31 -14 -77 -35 -102 -45 -27 -11 -60 -36 -78 -59 -17 -22
-49 -47 -70 -56 -21 -10 -65 -45 -97 -78 -33 -33 -84 -74 -114 -91 -30 -17
-66 -40 -80 -51 -14 -10 -46 -49 -72 -85 -26 -37 -60 -85 -74 -107 -15 -22
-37 -55 -50 -74 -12 -19 -39 -43 -60 -55 -23 -13 -52 -45 -75 -81 -21 -33 -45
-74 -53 -92 -8 -18 -24 -38 -36 -45 -12 -7 -42 -44 -67 -83 -26 -38 -70 -97
-98 -130 -28 -33 -78 -100 -110 -150 -33 -49 -71 -117 -86 -150 -15 -33 -50
-98 -79 -145 -29 -47 -63 -96 -76 -110 -12 -14 -34 -50 -48 -81 -13 -30 -44
-84 -69 -120 -24 -35 -59 -91 -76 -124 -18 -32 -39 -68 -49 -78 -9 -10 -28
-41 -42 -67 -14 -27 -74 -147 -134 -267 -60 -120 -119 -229 -132 -243 -12 -14
-34 -61 -49 -105 -21 -66 -31 -84 -58 -100 -23 -14 -37 -34 -49 -70 -9 -28
-32 -76 -51 -108 -20 -32 -38 -76 -42 -97 -4 -22 -17 -54 -29 -72 -12 -18 -36
-58 -53 -88 -17 -30 -34 -68 -37 -84 -4 -16 -16 -41 -27 -54 -10 -14 -19 -31
-19 -38 0 -8 -18 -52 -39 -99 -22 -47 -49 -97 -60 -111 -11 -14 -32 -61 -46
-105 -15 -44 -37 -92 -50 -107 -12 -15 -30 -43 -40 -62 -10 -19 -38 -89 -61
-155 -23 -66 -56 -160 -74 -210 -18 -49 -38 -97 -45 -105 -7 -8 -22 -34 -34
-57 -12 -23 -26 -65 -32 -93 -7 -31 -23 -65 -40 -85 -16 -18 -29 -37 -29 -41
0 -5 -9 -26 -19 -45 -11 -20 -27 -61 -35 -90 -8 -30 -39 -131 -69 -225 -30
-94 -70 -199 -90 -235 -19 -35 -40 -89 -46 -119 -5 -30 -13 -79 -17 -109 -5
-46 -13 -62 -49 -99 -27 -30 -46 -42 -55 -37 -8 5 -11 21 -7 49 3 22 11 67 18
99 12 52 12 60 -6 90 -18 28 -20 49 -19 184 1 83 7 180 13 215 10 48 10 105 2
235 -6 95 -11 223 -11 286 0 70 6 132 15 163 8 27 28 119 46 204 19 97 35 215
42 315 6 88 11 246 11 350 1 105 5 235 10 290 6 66 15 112 28 135 10 19 29 51
41 71 12 20 55 71 95 114 l72 79 68 4 c44 3 76 11 93 23 15 10 29 31 32 47 3
15 31 53 64 86 32 32 81 69 109 81 28 13 54 31 58 41 4 10 4 56 1 103 -4 47
-11 109 -17 136 -6 28 -22 75 -35 105 -14 30 -39 102 -55 160 -17 58 -38 116
-48 130 -9 14 -22 40 -28 59 -7 19 -12 49 -12 66 0 18 -11 61 -24 96 -13 35
-31 100 -40 145 -13 65 -15 107 -9 225 5 80 5 197 0 260 -4 63 -11 197 -16
299 -5 102 -14 205 -19 230 -6 25 -15 56 -20 70 -5 14 -13 55 -16 92 -6 49
-15 79 -38 115 -21 31 -31 60 -31 83 0 19 5 69 12 111 8 52 8 102 2 160 -6 46
-19 140 -29 209 -11 69 -23 202 -26 295 -5 140 -3 193 14 303 15 102 18 160
13 250 -5 101 -11 129 -41 207 l-35 90 -3 215 c-1 118 -7 286 -11 373 l-9 157
-48 93 c-27 50 -54 98 -60 105 -7 7 -28 15 -48 18 -23 4 -48 0 -70 -10 -18 -9
-42 -29 -51 -45 -9 -16 -32 -47 -50 -70 -17 -22 -39 -50 -48 -63 -13 -19 -29
-23 -94 -29 -65 -5 -82 -10 -97 -28 -10 -13 -23 -41 -28 -62 -6 -22 -13 -124
-16 -227 -3 -103 -5 -196 -6 -207 0 -11 4 -81 10 -155 6 -81 16 -150 26 -172
13 -30 16 -76 16 -247 0 -129 -5 -230 -12 -263 -8 -35 -12 -133 -11 -288 1
-129 3 -329 3 -445 1 -115 -4 -345 -9 -510 -6 -165 -16 -487 -22 -715 -6 -228
-15 -453 -21 -500 -6 -47 -14 -227 -18 -400 -4 -173 -12 -333 -18 -354 -6 -22
-11 -144 -11 -280 0 -133 -3 -288 -7 -346 -3 -58 -12 -125 -19 -150 -7 -25
-20 -94 -29 -155 -9 -60 -16 -171 -16 -245 0 -74 -5 -153 -10 -175 -6 -22 -13
-164 -15 -315 -3 -151 -12 -329 -20 -395 -10 -75 -16 -228 -18 -410 -1 -168 3
-351 10 -435 7 -80 18 -192 23 -250 6 -58 12 -260 12 -450 1 -190 2 -511 2
-715 -1 -203 -1 -392 -1 -420 0 -27 -2 -77 -4 -110 -2 -33 -3 -80 -2 -105 1
-25 1 -117 -1 -205 -2 -88 -9 -261 -15 -385 -6 -124 -15 -301 -20 -395 -6 -93
-16 -213 -24 -265 -8 -52 -22 -120 -30 -150 -8 -30 -18 -91 -22 -135 -3 -44
-1 -136 5 -205 6 -69 16 -143 21 -164 6 -22 26 -55 44 -73 30 -30 38 -33 94
-33 35 0 81 8 110 19 27 10 75 36 107 59 33 22 68 43 79 46 11 4 33 28 49 54
15 25 37 69 48 97 11 27 27 88 35 135 9 51 15 141 15 225 -1 77 6 226 14 330
8 105 19 213 24 240 6 28 24 109 39 180 16 72 32 168 36 215 3 47 13 119 21
160 9 41 32 107 50 145 32 64 35 82 44 205 6 74 7 162 4 196 -5 50 -3 69 15
105 11 24 35 67 52 94 18 28 38 70 45 94 8 24 14 65 14 92 0 26 9 93 21 150
11 57 25 110 32 117 6 8 17 48 24 90 7 42 22 142 34 222 11 80 29 164 40 187
10 23 19 45 19 49 0 4 6 15 14 23 7 9 28 50 46 91 18 41 52 104 76 140 23 36
55 79 69 97 14 18 30 47 36 65 5 18 14 60 19 93 6 33 15 102 20 153 7 64 18
108 35 142 14 27 36 86 49 132 13 46 29 96 36 113 6 16 26 50 43 75 18 25 50
83 72 130 21 47 52 109 67 139 15 29 28 62 28 73 0 11 13 44 29 72 16 28 34
71 40 96 5 25 13 61 16 82 3 20 30 73 59 117 30 44 68 116 85 158 18 43 59
132 91 198 33 66 69 147 81 180 12 33 28 74 35 90 8 17 27 55 44 85 16 30 32
72 35 93 4 21 17 48 30 60 13 12 33 46 45 76 11 30 27 79 35 110 8 31 22 85
32 120 17 61 22 67 78 105 49 34 65 52 90 103 17 34 40 72 51 85 12 13 43 59
69 103 32 54 57 113 76 183 20 75 35 110 53 127 14 13 26 29 26 34 0 6 13 25
29 43 16 18 47 69 69 113 22 44 45 103 51 131 7 28 21 65 31 82 11 18 24 32
30 32 5 0 19 19 31 43 12 23 37 59 55 80 19 20 34 41 34 47 0 5 20 37 45 69
25 33 59 70 74 83 16 13 38 41 49 64 11 22 28 47 38 55 9 8 25 30 34 49 9 19
42 60 74 90 31 30 95 93 142 140 52 52 88 98 95 120 6 19 18 45 25 58 9 13 24
22 40 22 17 0 44 18 82 53 31 29 76 68 99 85 23 18 60 61 83 95 31 47 54 69
93 89 29 15 69 27 90 28 31 0 45 -6 68 -31 16 -17 29 -35 29 -39 0 -4 26 -19
58 -33 41 -17 69 -38 92 -69 18 -23 48 -58 66 -76 18 -18 39 -54 48 -79 9 -25
22 -53 29 -62 8 -9 26 -52 41 -96 15 -44 41 -101 57 -126 16 -25 29 -52 29
-60 0 -9 7 -24 15 -35 8 -10 15 -37 15 -59 0 -23 7 -67 15 -98 8 -32 18 -83
21 -115 4 -31 12 -64 19 -72 7 -8 16 -51 19 -95 4 -44 11 -125 17 -180 6 -55
20 -143 31 -195 20 -89 21 -102 9 -225 -8 -71 -12 -191 -10 -265 2 -74 3 -180
2 -235 -2 -55 -7 -118 -12 -140 -5 -22 -19 -87 -30 -145 -11 -58 -27 -170 -36
-250 -8 -80 -15 -194 -15 -255 0 -60 -6 -173 -14 -250 -8 -77 -20 -196 -27
-265 -7 -69 -16 -210 -20 -315 -4 -104 -12 -221 -18 -260 -5 -38 -14 -135 -20
-215 -6 -80 -16 -200 -21 -267 -6 -67 -13 -268 -16 -445 -2 -178 -9 -393 -15
-478 -6 -85 -8 -193 -4 -241 5 -61 2 -109 -8 -165 -9 -43 -18 -149 -21 -235
-3 -85 -11 -180 -17 -210 -6 -30 -17 -83 -26 -119 -8 -36 -28 -88 -44 -116
-17 -31 -35 -85 -45 -135 -11 -57 -15 -115 -11 -179 2 -52 12 -120 21 -151 9
-31 26 -66 37 -78 17 -18 31 -22 72 -21 29 1 77 -2 108 -6 34 -4 76 -2 107 5
29 8 60 23 75 39 14 15 31 50 38 77 6 28 22 68 34 90 13 22 32 72 44 110 11
39 30 120 42 180 14 72 33 133 54 175 21 40 42 106 55 170 12 58 31 128 42
155 11 28 32 77 45 110 14 33 38 75 54 93 16 18 31 42 33 55 3 12 12 66 21
119 8 53 31 138 50 188 22 58 44 144 59 233 15 89 34 164 50 202 15 33 36 107
47 165 10 58 19 119 19 135 0 17 20 67 44 112 24 45 52 108 61 140 9 32 27 87
39 123 13 36 31 90 39 120 9 30 23 100 32 154 9 55 18 103 21 108 3 4 9 47 14
94 7 66 16 98 40 140 17 30 37 78 44 108 8 30 30 85 50 122 19 38 40 92 47
119 7 28 12 111 11 185 0 98 4 142 14 162 8 15 21 65 30 110 8 46 24 106 36
133 15 37 21 73 22 136 1 47 6 92 12 100 6 8 29 55 52 104 22 50 43 104 46
120 3 17 10 79 16 139 9 93 16 118 45 174 19 36 35 71 35 79 0 8 6 35 14 61 7
26 19 70 25 97 7 28 29 88 50 135 21 47 44 119 52 160 7 41 13 113 13 160 1
73 4 90 24 114 12 16 22 36 22 45 0 9 17 43 37 76 29 47 37 70 36 105 0 25 -2
68 -3 95 -2 37 8 85 40 185 24 74 49 142 56 150 7 8 29 53 49 99 19 46 41 118
49 160 7 42 20 90 28 106 9 17 26 39 38 50 12 11 26 28 31 37 5 9 18 60 29
112 11 53 24 103 30 113 5 10 28 63 49 118 22 55 45 131 51 168 6 38 17 87 26
110 8 23 23 65 33 92 11 28 28 71 39 96 11 25 33 56 48 68 15 12 35 34 44 49
9 15 35 45 58 67 24 25 44 57 51 82 6 23 24 68 40 100 16 32 32 69 36 83 3 14
20 52 37 84 17 33 42 75 55 94 12 19 23 42 23 50 0 9 14 44 31 79 17 36 38 67
46 70 8 3 39 44 70 90 30 47 60 104 65 126 5 23 25 69 45 103 27 46 49 69 94
97 32 20 75 59 96 85 21 27 54 58 75 70 20 12 44 38 55 59 12 26 35 48 73 70
30 18 81 55 112 83 31 28 70 69 85 91 22 32 40 45 83 59 42 14 66 31 105 74
27 30 69 64 93 76 23 11 42 24 42 29 0 5 13 22 28 39 16 17 46 56 67 87 22 31
47 61 57 66 9 5 36 9 60 9 29 0 60 10 96 30 28 17 52 35 52 41 0 5 16 17 35
25 19 7 60 14 92 14 36 0 75 8 102 20 24 11 50 20 57 20 8 0 28 10 44 22 24
18 44 22 107 22 43 0 123 -4 178 -8 63 -5 125 -5 167 2 53 8 79 7 125 -4 32
-8 72 -21 88 -29 17 -7 66 -19 110 -25 44 -6 109 -16 145 -22 36 -6 70 -14 75
-18 6 -5 28 -13 50 -19 23 -6 64 -28 92 -49 29 -21 69 -46 90 -54 21 -9 50
-19 65 -22 18 -4 38 -21 55 -47 15 -23 59 -63 98 -89 38 -26 82 -61 96 -76 15
-16 38 -47 51 -69 14 -22 50 -67 81 -100 30 -33 85 -100 121 -149 36 -49 66
-94 66 -102 0 -7 11 -25 24 -41 13 -15 36 -59 51 -98 15 -38 42 -90 60 -115
18 -25 38 -63 44 -86 6 -22 20 -49 31 -59 11 -10 20 -26 20 -37 0 -10 4 -26 9
-36 6 -9 25 -55 44 -102 19 -47 42 -105 50 -130 9 -25 18 -61 22 -81 3 -20 24
-82 46 -139 22 -57 45 -129 50 -162 5 -32 20 -88 33 -126 14 -37 29 -85 35
-108 6 -22 19 -90 30 -150 10 -60 28 -147 39 -194 12 -47 26 -138 32 -202 7
-65 13 -155 15 -200 1 -46 5 -135 10 -199 7 -100 5 -123 -10 -165 -10 -27 -21
-96 -25 -154 -4 -58 -13 -148 -19 -200 -10 -78 -20 -112 -57 -190 -25 -52 -50
-117 -55 -145 -5 -27 -18 -61 -29 -75 -11 -14 -27 -34 -34 -45 -8 -11 -21 -42
-28 -70 -7 -27 -26 -66 -43 -87 -16 -20 -44 -56 -61 -80 -18 -23 -39 -57 -48
-75 -9 -18 -31 -44 -50 -58 -19 -14 -41 -44 -50 -66 -12 -29 -26 -44 -50 -54
-19 -8 -45 -29 -58 -46 -12 -17 -59 -66 -102 -108 -43 -42 -96 -93 -117 -113
-21 -21 -45 -38 -53 -38 -9 0 -23 -12 -33 -27 -10 -16 -25 -34 -33 -41 -8 -7
-29 -18 -46 -26 -16 -7 -46 -31 -65 -53 -19 -22 -49 -48 -67 -57 -18 -10 -45
-16 -59 -14 -21 2 -33 16 -60 68 -19 36 -45 92 -58 125 -12 33 -35 92 -50 132
-18 49 -37 82 -61 103 -19 16 -39 30 -43 30 -5 0 -18 15 -28 33 -14 23 -43 45
-94 71 -41 21 -98 51 -128 67 -36 19 -69 29 -97 29 -24 0 -57 -8 -76 -19 -18
-11 -68 -31 -110 -45 -42 -14 -92 -26 -112 -26 -28 0 -40 -6 -58 -31 -13 -17
-44 -41 -70 -54 -27 -14 -71 -31 -98 -39 -27 -8 -70 -27 -95 -42 -26 -15 -57
-44 -71 -65 -15 -24 -35 -41 -52 -45 -15 -4 -46 -24 -69 -45 -24 -22 -47 -39
-53 -39 -6 0 -57 -45 -113 -99 -56 -55 -135 -133 -174 -173 -40 -40 -73 -78
-73 -83 0 -6 -18 -35 -40 -65 -22 -30 -60 -80 -85 -112 -24 -31 -47 -69 -51
-85 -4 -15 -15 -37 -24 -48 -10 -11 -30 -53 -44 -93 -16 -46 -29 -114 -35
-185 -7 -70 -7 -157 -2 -234 5 -66 14 -130 20 -141 6 -10 26 -33 46 -51 20
-17 39 -31 43 -31 4 0 20 9 37 20 16 10 53 22 81 26 46 5 62 2 122 -26 69 -32
71 -32 238 -33 154 -2 173 0 209 19 31 17 52 20 96 16 52 -4 65 0 164 47 58
28 118 51 132 51 14 0 40 9 57 20 18 10 38 30 45 44 8 14 27 30 43 37 26 11
32 10 50 -9 17 -17 22 -39 29 -134 4 -62 15 -135 24 -163 8 -27 24 -95 35
-150 10 -55 22 -129 25 -165 4 -36 13 -90 20 -120 7 -30 17 -66 22 -80 6 -14
10 -45 11 -70 0 -25 5 -98 12 -163 9 -90 18 -135 40 -186 16 -38 34 -102 40
-142 6 -41 16 -99 22 -129 6 -30 21 -80 35 -110 13 -30 32 -86 43 -125 10 -38
28 -97 38 -130 11 -33 25 -79 32 -103 6 -24 29 -81 51 -127 21 -46 39 -93 39
-104 0 -12 9 -55 21 -97 11 -41 31 -91 44 -110 13 -19 31 -58 41 -87 9 -29 20
-57 25 -63 5 -6 15 -28 23 -50 7 -22 27 -60 45 -86 17 -25 31 -49 31 -52 0 -4
11 -23 24 -44 13 -20 29 -62 35 -93 7 -31 28 -83 48 -115 20 -33 47 -79 60
-104 13 -25 29 -49 36 -55 7 -5 27 -35 44 -65 18 -31 44 -66 58 -80 14 -13 34
-43 44 -65 10 -22 44 -71 76 -110 32 -38 89 -95 127 -125 37 -30 106 -79 154
-107 47 -29 103 -55 123 -59 20 -3 48 -10 62 -15 15 -6 31 -21 37 -34 6 -13
22 -25 39 -28 15 -3 50 -9 76 -12 27 -4 67 -13 89 -21 22 -8 59 -14 81 -14 22
0 56 5 76 11 31 9 48 7 101 -10 35 -12 80 -21 100 -21 22 0 61 13 96 31 32 17
66 37 74 44 8 7 31 16 50 20 19 4 51 16 70 26 19 11 49 19 65 19 17 0 87 -18
156 -41 l124 -41 51 16 c28 9 71 16 95 16 24 0 69 7 99 15 48 12 64 23 123 87
38 40 80 90 95 111 15 23 53 54 96 80 39 22 87 55 106 71 19 17 58 46 86 63
28 18 65 36 83 39 24 5 37 2 54 -13 12 -11 42 -30 67 -42 25 -12 72 -51 105
-87 52 -55 66 -64 95 -64 19 0 49 -8 67 -18 17 -9 45 -25 63 -35 21 -12 61
-20 128 -24 54 -3 114 -1 134 5 31 9 41 6 83 -20 27 -17 67 -37 89 -45 23 -8
93 -19 156 -23 63 -4 125 -4 138 1 12 5 43 29 67 55 41 42 49 46 83 41 20 -2
87 -1 147 4 61 5 137 17 170 28 33 11 76 25 95 32 19 7 67 27 105 46 39 19 97
38 130 42 33 5 80 14 105 21 34 8 68 32 139 95 51 46 107 89 124 96 25 11 37
10 71 -3 23 -9 80 -32 128 -52 48 -20 98 -36 112 -36 13 0 43 -7 66 -15 34
-12 55 -13 105 -5 42 7 80 7 115 0 34 -6 73 -7 109 -1 31 5 72 16 91 24 25 11
55 14 101 10 52 -4 71 -2 92 12 25 16 29 16 70 0 41 -16 49 -16 107 -1 34 9
87 16 119 16 44 0 72 8 131 36 65 31 86 36 161 39 47 1 96 8 110 15 13 7 29
19 34 26 6 7 37 22 70 33 33 10 82 22 108 26 26 3 63 13 82 21 19 8 45 14 57
14 13 0 52 19 88 42 63 40 68 42 175 49 61 4 137 15 170 24 33 9 97 36 141 61
64 34 84 51 94 76 7 18 20 41 28 50 8 10 22 18 30 18 7 0 27 14 43 31 28 30
32 31 82 25 49 -6 56 -5 91 24 25 19 50 30 70 30 17 0 46 4 64 9 18 6 49 24
69 41 21 19 44 30 56 28 16 -2 30 -23 55 -83 19 -44 45 -120 58 -169 14 -49
34 -103 46 -120 12 -17 37 -48 57 -69 20 -21 56 -49 81 -62 25 -13 55 -37 67
-53 13 -17 44 -40 69 -52 26 -11 64 -20 86 -20 35 0 46 -7 99 -61 l59 -62 51
6 c46 6 55 3 82 -19 24 -20 38 -25 66 -21 20 2 51 10 69 18 28 12 39 11 80 -3
26 -9 96 -22 155 -29 87 -10 120 -10 170 0 34 7 82 21 106 32 24 10 59 19 78
19 18 0 68 7 111 16 42 9 88 22 103 29 21 11 33 12 56 3 26 -10 41 -7 109 20
44 17 106 40 138 51 39 14 72 19 96 15 26 -4 55 1 102 20 36 14 89 33 118 42
30 9 63 22 75 30 12 8 44 17 71 20 27 4 65 15 84 25 19 9 57 33 85 53 27 20
59 36 71 36 11 0 33 13 48 29 15 16 42 32 59 36 18 3 64 10 102 14 49 5 83 15
112 34 29 18 51 44 69 80 15 28 45 72 66 97 22 24 51 52 65 61 14 9 42 19 62
23 20 3 52 17 70 30 19 14 42 39 53 56 10 17 35 38 56 47 20 8 54 30 74 49 21
18 50 36 65 40 16 3 52 15 81 26 31 12 61 32 73 49 11 16 29 29 39 29 10 0 31
6 47 14 15 8 53 21 83 30 42 12 74 33 134 85 43 38 91 87 105 110 14 22 45 54
69 71 23 17 58 55 77 84 25 40 42 55 65 60 16 3 43 9 60 12 26 5 31 2 41 -22
6 -16 30 -67 51 -114 l40 -85 4 -269 c2 -148 9 -314 16 -370 6 -55 12 -155 13
-221 1 -66 7 -142 14 -170 7 -27 20 -72 28 -100 9 -27 23 -59 32 -69 9 -10 34
-27 56 -37 22 -10 54 -19 72 -19 23 0 38 8 56 29 14 17 40 39 58 50 19 12 43
21 54 21 11 0 33 7 48 15 15 8 44 17 63 21 23 4 43 18 61 41 14 19 40 41 57
50 16 8 69 54 117 102 56 55 90 97 95 116 3 17 24 53 44 80 21 28 44 64 51 80
7 17 30 52 51 79 21 27 38 58 38 69 0 11 14 44 31 73 16 29 46 67 65 82 27 22
39 43 50 88 9 32 18 73 21 91 3 17 14 39 24 49 10 9 19 24 19 33 0 9 10 32 21
51 12 19 31 46 44 60 13 14 41 62 64 106 24 48 58 97 81 118 22 20 44 36 49
36 5 0 25 25 45 55 20 30 51 87 68 127 17 40 39 84 49 97 11 13 19 32 19 42 0
9 16 38 35 63 19 25 50 76 69 113 19 38 48 81 65 97 17 17 31 35 31 42 0 6 17
33 38 60 21 27 50 83 65 124 16 41 34 86 42 100 8 14 22 40 31 59 9 19 28 51
42 70 15 20 60 74 100 121 41 47 97 110 124 140 28 30 67 89 88 131 21 42 50
83 63 92 14 9 35 37 47 63 13 25 36 58 52 72 15 14 40 46 54 71 15 25 46 66
69 91 24 25 46 55 50 67 3 12 19 32 36 43 16 12 29 27 29 33 0 7 14 39 31 72
17 33 44 74 60 90 18 19 32 50 40 85 6 30 17 66 24 80 7 14 23 34 35 45 12 11
33 41 46 67 13 26 34 54 46 62 12 9 32 16 44 16 12 0 32 8 45 18 13 10 44 29
69 41 25 12 55 30 66 40 12 10 36 42 53 72 18 30 40 65 51 79 11 14 26 57 34
97 8 39 21 84 30 100 8 15 46 60 83 98 51 53 79 74 113 84 25 7 68 21 95 30
44 14 53 22 72 62 14 30 32 50 51 58 18 8 36 28 50 55 11 24 24 61 27 82 4 22
14 49 21 61 11 18 24 23 55 23 22 0 56 7 76 15 19 8 47 15 61 15 17 0 38 14
64 43 22 23 69 65 105 92 59 44 72 61 116 145 27 52 56 103 64 113 9 9 21 17
27 17 7 0 32 21 56 46 45 46 45 46 100 40 30 -4 87 -9 126 -12 48 -4 93 -1
140 9 38 9 104 19 147 23 l79 7 53 55 53 56 55 -14 c43 -10 75 -10 149 -2 51
6 143 11 203 11 80 -1 126 -6 169 -20 33 -11 105 -22 160 -25 56 -4 112 -12
126 -19 14 -7 46 -12 72 -13 30 0 73 -12 125 -35 43 -19 98 -39 123 -45 25 -6
75 -13 112 -16 36 -3 83 -12 104 -21 20 -8 64 -44 96 -80 33 -36 66 -65 75
-65 8 0 40 -24 71 -53 31 -30 71 -59 89 -66 17 -7 59 -45 93 -84 34 -39 72
-79 85 -89 13 -10 48 -55 79 -101 31 -46 56 -89 56 -95 0 -6 14 -27 30 -45 17
-19 30 -40 30 -46 0 -6 12 -40 26 -74 14 -34 37 -86 50 -115 13 -29 24 -58 24
-65 0 -7 7 -37 15 -67 8 -30 26 -98 40 -150 13 -52 29 -133 35 -180 6 -47 16
-123 22 -170 8 -62 7 -116 -1 -200 -7 -63 -14 -137 -18 -165 -3 -27 -9 -75
-13 -105 -4 -30 -15 -91 -24 -135 -11 -54 -24 -88 -40 -105 -13 -14 -27 -40
-31 -57 -3 -18 -11 -35 -16 -38 -5 -4 -9 -20 -9 -36 0 -17 -16 -58 -35 -90
-19 -33 -35 -64 -35 -69 0 -5 -26 -38 -58 -72 -32 -35 -67 -78 -78 -96 -11
-17 -63 -78 -115 -135 -51 -56 -115 -122 -140 -147 -25 -25 -49 -55 -53 -68
-4 -12 -28 -46 -52 -74 -25 -29 -54 -70 -65 -90 -11 -21 -26 -38 -34 -38 -9 0
-34 -17 -58 -39 -23 -21 -52 -43 -64 -50 -12 -6 -34 -11 -49 -11 -14 0 -52
-14 -83 -32 -31 -17 -86 -59 -123 -92 -37 -34 -89 -81 -115 -106 -26 -25 -79
-81 -118 -124 -38 -43 -78 -94 -89 -114 -10 -21 -36 -56 -57 -79 -22 -24 -39
-50 -39 -59 0 -9 -25 -43 -55 -76 -30 -33 -60 -77 -66 -97 -6 -20 -23 -55 -36
-78 -13 -23 -28 -56 -34 -75 -5 -18 -19 -67 -31 -108 -11 -41 -27 -102 -34
-135 -8 -33 -19 -104 -24 -159 -7 -75 -15 -108 -34 -141 -14 -24 -39 -54 -56
-68 -17 -15 -54 -30 -87 -37 -32 -7 -71 -17 -87 -23 -16 -6 -52 -28 -80 -49
-28 -21 -56 -38 -63 -38 -6 0 -44 7 -84 15 -70 15 -73 15 -113 -6 -30 -16 -58
-22 -104 -21 -34 0 -77 -4 -95 -10 -17 -5 -69 -13 -114 -18 -44 -4 -121 -20
-170 -35 -48 -15 -104 -34 -123 -41 -19 -7 -96 -16 -170 -19 -74 -4 -148 -6
-165 -6 -16 0 -104 2 -195 4 -91 2 -181 7 -200 12 -19 4 -72 29 -118 55 -62
36 -98 50 -142 55 -46 5 -69 14 -101 40 -23 18 -63 57 -88 87 -25 30 -57 71
-71 91 -14 20 -34 40 -45 43 -11 4 -30 16 -42 27 -13 11 -32 45 -44 76 -11 31
-33 81 -49 111 -16 30 -42 87 -59 127 -17 39 -31 76 -31 81 0 6 -6 17 -14 24
-7 8 -37 64 -65 124 -42 92 -54 128 -65 213 -8 57 -21 112 -29 124 -8 12 -24
51 -35 87 -12 36 -27 90 -33 120 -6 30 -22 82 -36 115 -14 33 -43 96 -64 140
-22 44 -46 91 -54 105 -8 14 -15 33 -15 43 0 10 -7 29 -16 42 -9 13 -31 29
-49 35 -26 8 -40 8 -57 -1 -13 -6 -33 -23 -45 -38 -12 -14 -22 -32 -23 -40 0
-7 -17 -32 -37 -55 -21 -24 -66 -56 -107 -76 -53 -26 -73 -42 -81 -63 -6 -18
-5 -51 3 -99 7 -39 17 -78 23 -85 6 -7 18 -45 25 -85 8 -40 16 -111 19 -158 2
-47 9 -123 15 -170 7 -47 18 -121 25 -165 8 -44 24 -109 36 -145 12 -36 32
-81 43 -100 12 -19 28 -48 35 -65 7 -16 17 -67 21 -112 5 -47 18 -101 29 -125
12 -24 27 -54 35 -68 8 -14 28 -55 46 -92 17 -37 38 -69 46 -72 7 -3 27 -35
43 -71 16 -36 51 -89 78 -117 26 -28 77 -80 113 -115 36 -35 94 -80 130 -100
36 -21 85 -58 110 -84 25 -25 54 -51 65 -56 11 -6 43 -16 70 -22 28 -6 104
-13 171 -15 107 -2 124 -5 149 -24 15 -12 36 -22 47 -22 10 0 46 -14 80 -31
52 -26 69 -30 107 -25 25 4 91 9 146 12 55 4 132 15 170 26 48 13 105 20 180
20 61 1 142 -2 181 -6 63 -7 76 -5 115 15 24 12 59 34 78 48 30 23 44 26 110
26 66 0 83 4 124 29 44 26 53 28 110 21 34 -4 85 -7 112 -7 28 0 116 2 197 4
135 3 149 5 175 26 15 12 64 40 108 62 l80 39 26 -28 c15 -16 33 -51 42 -77 8
-27 29 -96 47 -154 22 -69 43 -115 61 -135 15 -16 35 -50 45 -74 10 -24 43
-75 73 -112 31 -37 63 -81 73 -97 13 -24 28 -34 77 -47 33 -10 68 -26 77 -36
9 -11 26 -19 37 -19 10 0 44 -7 75 -16 32 -9 79 -30 106 -47 40 -25 65 -33
126 -38 42 -4 109 -19 151 -34 59 -21 85 -26 127 -22 34 4 66 1 85 -7 18 -8
56 -21 85 -31 33 -11 65 -15 85 -11 17 4 51 16 74 27 37 18 47 19 80 8 25 -8
70 -10 137 -6 59 3 128 15 166 27 36 11 79 27 97 35 17 8 38 15 46 15 8 0 32
-14 53 -31 35 -28 44 -30 94 -26 30 2 74 10 98 16 24 6 102 16 175 21 73 5
160 13 193 18 52 6 68 14 104 46 42 38 43 38 99 30 31 -5 72 -8 91 -7 19 1 64
6 100 13 36 6 79 13 96 16 17 2 57 20 90 40 38 23 81 39 119 45 33 6 91 24
129 42 58 26 74 40 102 83 28 43 40 53 76 62 35 9 54 8 93 -4 45 -13 54 -13
97 3 31 11 59 30 78 55 17 21 38 38 46 38 8 0 29 7 47 16 18 9 57 40 88 69 31
30 73 60 93 69 21 9 47 27 57 40 11 14 34 30 53 36 20 6 54 34 85 69 31 37 76
73 117 96 54 30 69 44 84 80 10 24 28 49 39 55 12 6 32 32 45 58 14 28 49 69
83 98 32 27 59 52 61 56 2 4 19 12 38 18 31 11 38 10 57 -8 12 -10 54 -35 93
-55 38 -19 104 -45 145 -57 67 -20 80 -21 137 -10 53 10 68 10 102 -4 22 -9
59 -16 83 -16 23 0 65 -6 92 -14 28 -7 75 -27 107 -45 31 -17 71 -36 90 -42
18 -5 94 -14 168 -19 74 -5 173 -15 220 -21 47 -6 95 -17 107 -25 12 -8 30
-14 40 -14 10 0 42 -9 71 -20 29 -11 84 -25 122 -30 46 -7 78 -6 96 0 23 9 38
5 103 -29 42 -22 105 -45 141 -52 36 -6 90 -21 120 -31 30 -11 60 -24 66 -29
7 -5 40 -21 75 -34 34 -14 77 -25 94 -25 17 0 46 -11 65 -25 19 -14 41 -25 49
-25 8 0 25 -9 37 -21 14 -13 44 -24 81 -29 32 -4 85 -19 118 -34 38 -16 79
-26 111 -26 28 0 66 -3 83 -6 17 -4 51 -25 76 -47 33 -28 65 -45 113 -58 37
-10 101 -28 142 -39 41 -12 86 -32 100 -45 14 -12 36 -26 50 -30 14 -4 32 -13
40 -20 8 -7 42 -22 75 -33 33 -11 74 -23 91 -26 17 -4 44 -20 59 -36 16 -16
56 -43 91 -60 35 -16 71 -30 81 -30 10 0 35 -10 55 -23 20 -12 46 -34 58 -50
12 -15 34 -34 48 -41 15 -8 46 -17 70 -21 29 -5 48 -15 60 -32 9 -13 28 -38
41 -54 13 -17 41 -37 61 -45 21 -8 42 -26 49 -40 6 -14 11 -32 11 -42 0 -9
-40 -55 -90 -103 l-90 -86 0 -54 c0 -30 5 -71 9 -93 5 -21 23 -53 40 -70 18
-18 51 -37 78 -45 37 -11 62 -28 109 -78 l62 -65 74 -8 c41 -5 92 -5 113 0 20
5 52 22 69 38 17 16 56 41 87 55 33 16 73 27 97 27 23 0 71 12 107 26 36 14
65 29 65 34 0 4 28 40 61 80 38 45 67 91 75 118 8 25 14 71 14 102 0 31 -5 72
-12 91 -6 19 -22 50 -34 69 -12 19 -28 54 -34 78 -7 28 -28 60 -60 94 -28 29
-50 59 -50 67 0 8 -57 70 -127 138 -71 69 -144 133 -163 143 -19 10 -47 32
-61 47 -17 18 -51 37 -89 48 -34 11 -72 29 -83 41 -12 11 -47 29 -77 38 -30
10 -95 37 -145 60 -52 25 -105 59 -124 80 -19 20 -42 36 -51 36 -8 0 -24 6
-35 14 -11 7 -45 22 -75 34 -30 11 -86 36 -125 57 -53 27 -90 38 -150 46 -44
5 -90 11 -102 14 -12 3 -50 29 -85 58 -55 46 -72 55 -133 66 -38 7 -97 24
-131 37 -33 13 -68 24 -76 24 -9 0 -25 11 -35 24 -13 17 -44 31 -113 50 -52
15 -111 31 -130 36 -19 5 -68 12 -108 15 -41 3 -86 12 -100 19 -15 8 -38 26
-52 41 -14 15 -39 34 -57 41 -18 8 -45 14 -60 14 -15 0 -68 9 -118 20 -49 11
-126 25 -170 32 -54 9 -84 19 -95 31 -8 11 -35 28 -60 39 -25 11 -76 26 -115
33 -38 8 -115 16 -170 20 -57 4 -139 17 -190 31 -49 14 -103 32 -120 41 -16 8
-66 24 -109 34 -44 11 -130 24 -190 30 -61 6 -147 14 -192 18 -70 5 -86 10
-117 36 -20 17 -49 40 -65 52 -16 12 -55 28 -88 36 -32 9 -97 18 -144 22 -47
4 -94 12 -105 19 -11 7 -33 16 -49 20 -15 4 -45 20 -65 36 -20 15 -75 45 -123
66 -49 21 -88 43 -88 49 0 5 -13 24 -28 41 -16 16 -44 42 -64 57 -21 16 -48
27 -67 27 -17 0 -49 -9 -71 -20 -22 -11 -49 -20 -60 -20 -12 0 -31 -11 -43
-24 -12 -13 -43 -35 -68 -50 -26 -14 -66 -28 -90 -32 -24 -3 -54 -13 -66 -20
-13 -8 -30 -28 -39 -45 -10 -21 -16 -57 -16 -103 0 -39 -9 -118 -19 -176 -10
-58 -19 -128 -19 -157 0 -29 -7 -69 -16 -90 -9 -21 -23 -51 -32 -68 -9 -16
-30 -57 -47 -90 -16 -33 -53 -83 -81 -112 -28 -28 -67 -59 -85 -67 -19 -9 -46
-24 -61 -33 -15 -10 -37 -30 -49 -46 -11 -15 -35 -34 -52 -41 -18 -7 -54 -32
-82 -55 -27 -22 -64 -48 -81 -56 -18 -8 -42 -15 -53 -15 -12 0 -39 -9 -61 -20
-22 -11 -44 -20 -50 -20 -6 0 -46 -16 -88 -36 -53 -25 -94 -37 -132 -39 -30
-1 -93 -10 -140 -18 -47 -9 -117 -19 -157 -22 -53 -5 -80 -13 -105 -31 -33
-25 -34 -25 -193 -18 -122 5 -167 3 -190 -7 -19 -8 -85 -14 -180 -17 -82 -1
-175 -3 -205 -3 -30 -1 -91 -1 -135 -1 -44 0 -134 0 -200 0 -66 0 -167 1 -224
1 -93 1 -112 4 -170 31 -36 16 -100 34 -141 41 -41 6 -115 26 -164 45 -48 19
-106 37 -128 40 -33 6 -47 17 -91 72 -29 35 -68 83 -88 106 -20 22 -42 51 -48
64 -7 13 -17 51 -22 85 -5 34 -19 86 -29 115 -11 29 -20 65 -20 81 0 15 8 35
18 43 9 9 31 19 48 22 17 4 44 20 59 36 16 17 35 30 42 30 7 0 39 23 70 50 32
28 66 58 75 67 10 9 24 37 33 63 9 26 28 58 43 72 15 14 41 33 57 42 17 8 42
26 56 39 14 13 39 46 54 73 16 27 41 60 56 74 15 14 44 56 63 95 20 38 44 77
53 87 9 10 21 18 27 18 7 0 32 21 58 48 25 26 51 57 57 69 6 13 14 59 18 102
3 44 9 84 12 89 3 5 19 15 35 23 18 8 39 32 52 59 21 42 23 62 29 310 l6 265
37 35 c20 20 44 50 54 67 9 17 36 46 60 63 23 17 51 47 61 66 9 18 30 42 45
51 15 10 32 25 39 33 7 8 13 23 13 32 0 9 20 37 45 62 24 25 52 60 61 78 9 18
41 59 70 90 30 31 54 63 54 72 0 8 13 24 29 35 19 14 35 39 46 70 8 26 28 68
43 92 16 24 31 52 35 63 4 10 14 53 23 95 9 42 22 91 29 108 8 18 39 63 69
101 33 41 60 85 67 112 6 25 15 129 19 232 5 103 16 223 25 266 9 44 17 138
18 209 2 118 0 134 -25 198 -14 39 -31 95 -37 125 -6 30 -13 91 -16 135 -3 44
-10 98 -16 120 -5 22 -18 58 -29 80 -10 22 -30 69 -43 105 -13 36 -43 117 -68
180 -24 63 -52 129 -64 145 -11 17 -48 60 -83 97 -34 36 -68 79 -75 95 -6 16
-23 44 -37 63 -14 18 -63 71 -110 117 -47 47 -90 90 -97 96 -7 7 -27 28 -45
48 -21 22 -50 41 -73 48 -22 5 -52 13 -67 16 -14 3 -44 23 -65 45 -28 30 -57
47 -112 65 -49 17 -93 41 -129 70 -30 25 -70 49 -91 54 -20 5 -72 12 -116 16
-44 3 -123 20 -175 36 -88 27 -105 29 -230 27 -91 -2 -150 1 -181 10 -42 13
-50 12 -73 -3 -22 -15 -40 -17 -111 -11 -62 5 -99 3 -143 -9 -39 -10 -68 -12
-83 -7 -13 5 -39 5 -59 1 -19 -5 -62 -9 -95 -9 -33 0 -87 -5 -120 -11 -33 -6
-75 -10 -93 -10 -17 1 -42 -4 -55 -10 -12 -6 -34 -23 -49 -37 -24 -22 -37 -26
-97 -26 -57 -1 -75 -5 -101 -25 -30 -22 -39 -23 -107 -17 -62 6 -79 4 -101
-11 -15 -9 -52 -30 -82 -46 -30 -15 -98 -39 -150 -53 -55 -14 -100 -32 -108
-42 -7 -9 -19 -25 -27 -34 -8 -10 -23 -18 -34 -18 -11 0 -48 -7 -83 -16 -42
-10 -90 -34 -144 -70 -44 -29 -97 -60 -117 -69 -19 -8 -38 -19 -42 -25 -4 -6
-22 -17 -42 -25 -19 -8 -50 -28 -68 -44 -19 -16 -47 -32 -64 -36 -19 -4 -43
-22 -63 -47 -19 -25 -52 -50 -82 -63 -28 -13 -80 -46 -116 -75 -35 -29 -74
-57 -87 -63 -12 -5 -25 -18 -28 -28 -3 -9 -15 -29 -26 -42 -10 -14 -33 -28
-49 -32 -17 -4 -36 -15 -43 -25 -7 -10 -25 -24 -39 -31 -15 -6 -60 -50 -100
-97 -40 -47 -81 -99 -91 -115 -9 -15 -31 -33 -48 -39 -19 -6 -37 -24 -49 -48
-14 -27 -30 -42 -55 -50 -24 -8 -44 -25 -62 -53 -15 -23 -49 -66 -77 -96 -28
-29 -68 -71 -89 -92 -21 -22 -45 -59 -53 -82 -11 -32 -33 -58 -90 -107 -60
-52 -84 -82 -121 -150 -26 -47 -57 -105 -71 -130 -13 -25 -35 -59 -48 -77 -13
-17 -34 -35 -46 -39 -12 -3 -42 -27 -67 -53 -26 -25 -60 -73 -77 -106 -17 -33
-39 -85 -49 -115 -13 -40 -34 -72 -76 -115 -31 -33 -71 -87 -87 -120 -17 -33
-51 -80 -76 -104 -25 -25 -51 -61 -57 -80 -7 -20 -34 -58 -62 -86 -27 -27 -57
-69 -67 -92 -10 -22 -32 -60 -49 -83 -17 -23 -33 -57 -37 -76 -3 -18 -15 -41
-26 -51 -11 -10 -31 -39 -44 -64 -13 -26 -37 -67 -53 -90 -16 -24 -46 -60 -65
-78 -20 -19 -36 -41 -36 -48 0 -8 -16 -29 -35 -49 -19 -19 -35 -38 -35 -43 0
-4 -21 -34 -46 -67 -26 -32 -57 -83 -70 -113 -13 -29 -24 -59 -24 -66 0 -7
-14 -30 -31 -51 -17 -22 -39 -55 -49 -74 -10 -19 -45 -69 -79 -110 -34 -41
-61 -82 -61 -91 0 -9 -14 -34 -31 -55 -17 -22 -60 -88 -95 -148 -35 -60 -66
-123 -70 -140 -4 -17 -33 -66 -65 -108 -31 -43 -73 -108 -92 -145 -18 -37 -45
-93 -60 -124 -14 -31 -40 -73 -57 -93 -18 -20 -38 -36 -45 -36 -8 0 -21 10
-29 22 -9 12 -16 34 -16 48 0 14 -7 35 -15 46 -8 12 -21 52 -29 90 -11 46 -17
130 -18 249 -1 99 1 239 4 310 4 72 11 168 17 215 6 46 11 110 11 141 0 31 9
82 21 115 16 46 24 106 34 269 9 146 19 235 34 293 12 46 39 121 60 167 22 46
42 99 46 117 4 18 11 38 15 43 4 6 11 21 15 33 4 13 20 45 36 70 16 26 35 76
43 112 8 36 20 94 26 130 6 36 15 70 20 75 4 6 19 45 34 87 14 42 26 85 26 96
0 10 11 52 24 93 13 41 31 88 39 104 9 17 25 68 37 115 12 47 39 119 61 160
21 41 52 107 70 146 18 42 43 80 59 92 15 12 31 33 35 49 3 15 22 61 41 101
19 40 42 103 51 140 8 37 24 103 35 147 11 44 30 105 43 135 13 30 28 84 35
120 6 36 16 88 22 115 6 28 23 77 38 110 16 33 35 94 44 135 8 41 20 131 27
200 6 69 14 175 18 235 5 61 15 137 23 170 9 33 21 87 27 121 6 33 8 74 5 90
-4 20 4 54 26 109 27 68 33 97 37 190 3 78 1 122 -9 150 -11 34 -19 41 -51 49
-26 7 -53 6 -88 -3 -43 -11 -53 -11 -75 4 -15 9 -33 14 -42 10 -9 -4 -46 -13
-82 -21 -36 -8 -80 -14 -97 -14 -28 0 -36 -6 -54 -42 -12 -23 -32 -71 -46
-107 -14 -36 -30 -73 -37 -81 -7 -8 -24 -35 -38 -60 -14 -25 -29 -61 -33 -80
-4 -19 -25 -73 -47 -120 -22 -47 -44 -98 -49 -115 -5 -16 -16 -61 -24 -99 -8
-38 -30 -103 -49 -145 -18 -42 -41 -98 -50 -126 -9 -27 -16 -55 -16 -62 0 -6
-13 -33 -29 -60 -19 -31 -39 -90 -57 -168 -14 -66 -34 -133 -42 -150 -8 -16
-23 -59 -33 -95 -10 -36 -34 -126 -54 -200 -20 -74 -45 -155 -55 -180 -11 -25
-26 -70 -34 -100 -8 -30 -17 -77 -21 -105 -3 -27 -15 -81 -26 -120 -12 -38
-29 -90 -39 -115 -10 -25 -25 -79 -33 -120 -9 -41 -19 -97 -22 -125 -4 -27
-23 -93 -42 -145 -19 -52 -50 -169 -69 -260 -18 -91 -47 -201 -63 -245 -17
-47 -34 -122 -41 -180 -7 -55 -23 -137 -36 -183 -13 -46 -26 -87 -29 -92 -3
-4 -10 -43 -16 -86 -6 -44 -20 -110 -31 -148 -12 -38 -27 -81 -34 -95 -8 -14
-14 -31 -14 -37 0 -6 -9 -23 -20 -36 -10 -14 -28 -49 -39 -79 -12 -30 -37 -79
-57 -109 -20 -30 -46 -82 -58 -115 -13 -33 -46 -93 -74 -134 -29 -41 -52 -79
-52 -85 0 -5 -13 -24 -28 -41 -16 -16 -37 -52 -47 -78 -12 -33 -29 -57 -54
-75 -27 -19 -41 -39 -48 -67 -6 -22 -17 -57 -25 -78 -8 -21 -35 -57 -59 -80
-24 -24 -80 -84 -124 -135 -44 -51 -98 -113 -121 -138 -23 -24 -44 -44 -47
-44 -3 0 -30 -24 -60 -53 -30 -28 -67 -71 -81 -94 -19 -28 -44 -49 -80 -66
-29 -14 -64 -41 -79 -61 -16 -20 -40 -39 -55 -42 -15 -4 -40 -14 -57 -22 -16
-8 -56 -39 -88 -69 -45 -41 -72 -57 -118 -70 -44 -12 -72 -28 -109 -63 -35
-33 -75 -57 -130 -78 -43 -17 -101 -47 -128 -66 -34 -24 -70 -38 -113 -46 -35
-6 -89 -22 -119 -34 -30 -13 -72 -31 -93 -40 -21 -9 -47 -16 -59 -16 -12 0
-44 -6 -72 -14 -28 -8 -85 -19 -126 -24 -47 -6 -99 -21 -140 -40 -36 -17 -97
-36 -135 -42 -39 -5 -88 -14 -110 -20 -22 -5 -71 -10 -108 -10 -47 0 -84 -7
-117 -21 -43 -18 -56 -20 -97 -11 -26 6 -118 14 -203 17 -85 4 -180 13 -210
21 -30 9 -84 23 -120 33 -36 10 -81 24 -100 31 -19 7 -42 16 -50 20 -8 4 -23
24 -34 46 -10 21 -33 56 -52 78 -25 29 -38 58 -50 114 -12 54 -15 95 -10 149
4 41 11 85 16 98 5 12 49 64 98 114 49 50 116 128 148 173 32 45 80 103 105
128 25 25 63 61 85 81 22 20 44 38 50 40 6 2 26 27 44 54 19 28 60 74 91 103
32 29 69 72 82 95 13 23 27 57 31 76 3 19 19 55 35 80 16 25 32 62 36 81 4 19
15 59 26 88 10 29 25 63 33 75 8 12 19 45 25 73 5 28 15 119 21 202 8 109 7
164 -1 199 -6 26 -17 64 -24 83 -8 19 -20 64 -29 100 -8 36 -17 81 -21 100 -3
19 -16 53 -28 76 -12 23 -37 66 -55 97 -19 31 -47 68 -63 81 -16 14 -46 30
-67 36 -20 5 -52 10 -71 10 -22 0 -48 -10 -75 -30 -23 -17 -66 -48 -96 -70
-42 -31 -63 -40 -95 -40 -33 0 -47 -6 -71 -31 -16 -17 -44 -38 -62 -45 -17 -8
-47 -34 -65 -57 -17 -24 -57 -77 -87 -117 -30 -40 -73 -102 -95 -136 -22 -35
-61 -94 -88 -132 -29 -42 -50 -83 -53 -107 -4 -27 -16 -48 -36 -67 -25 -22
-36 -47 -60 -135 -16 -59 -33 -123 -38 -141 -4 -19 -14 -41 -22 -50 -8 -9 -24
-39 -35 -67 -12 -27 -27 -68 -34 -90 -6 -22 -27 -69 -45 -104 -19 -35 -34 -74
-34 -86 0 -12 -6 -41 -14 -66 -8 -24 -23 -84 -35 -134 -11 -49 -23 -115 -27
-145 -3 -30 -18 -93 -32 -139 -23 -74 -33 -92 -83 -143 -31 -32 -64 -58 -72
-58 -9 0 -38 -26 -66 -58 l-51 -58 -147 -49 c-82 -26 -173 -56 -203 -67 -30
-11 -68 -28 -85 -38 -16 -10 -46 -21 -65 -25 -19 -4 -64 -22 -99 -41 -40 -22
-92 -40 -145 -50 -44 -8 -119 -22 -166 -30 -48 -10 -127 -35 -183 -60 l-99
-44 -116 2 c-105 1 -125 -1 -192 -26 -41 -16 -93 -33 -114 -39 -29 -7 -55 -7
-96 1 -31 7 -74 12 -97 12 -22 0 -59 -7 -82 -15 -24 -8 -59 -14 -79 -14 -20 0
-134 2 -253 3 l-215 3 -42 28 c-23 15 -45 38 -48 51 -4 13 -3 35 0 48 3 13 26
48 51 77 27 32 52 74 61 104 8 27 19 88 25 135 5 47 14 117 20 157 7 52 7 111
-2 213 -10 105 -10 158 -2 208 6 39 8 94 3 134 -4 40 -16 80 -29 102 -13 20
-61 70 -107 111 -78 70 -87 75 -129 75 -41 0 -51 -5 -103 -53 -41 -38 -76 -59
-122 -75 -36 -13 -99 -40 -140 -61 -65 -33 -79 -45 -106 -92 -18 -30 -47 -71
-65 -93 -19 -21 -53 -75 -77 -120 -23 -44 -54 -105 -68 -134 -13 -30 -29 -75
-35 -100 -6 -26 -15 -60 -21 -77 -6 -16 -14 -59 -18 -95 -3 -36 -3 -178 1
-315 8 -226 7 -258 -10 -327 -10 -42 -26 -89 -35 -103 -9 -14 -29 -31 -44 -37
-15 -6 -75 -14 -134 -19 -85 -6 -123 -15 -180 -38 -66 -28 -82 -31 -237 -37
-149 -5 -174 -3 -245 15 -45 12 -110 21 -151 21 -63 0 -76 3 -111 29 -22 17
-62 38 -89 48 -39 15 -57 30 -92 78 -23 33 -50 70 -59 82 -9 13 -23 66 -30
119 -8 53 -19 105 -24 115 -6 10 -10 35 -10 56 1 21 7 65 15 98 8 33 15 83 15
110 0 28 9 82 19 120 10 39 35 110 55 160 21 49 49 108 62 131 13 22 24 49 24
58 0 10 9 29 20 43 16 20 20 41 20 98 0 53 -7 91 -25 139 -14 37 -25 77 -25
89 0 13 -12 47 -26 75 -14 29 -41 64 -60 79 -20 15 -52 28 -77 30 -41 5 -47 2
-96 -41 -28 -25 -60 -46 -69 -46 -10 0 -50 -16 -89 -35 -39 -19 -78 -35 -86
-35 -8 0 -19 -6 -25 -12 -5 -7 -20 -42 -33 -78 -13 -36 -38 -81 -56 -101 -19
-21 -37 -55 -44 -85 -6 -27 -15 -56 -20 -64 -5 -8 -23 -43 -40 -78 -17 -35
-36 -98 -44 -140 -7 -42 -18 -111 -24 -152 -6 -41 -16 -99 -21 -128 -5 -29
-20 -81 -34 -115 -17 -43 -27 -93 -32 -157 -4 -52 -15 -121 -25 -154 -11 -32
-32 -73 -48 -92 -16 -18 -37 -49 -47 -69 -9 -20 -28 -44 -41 -52 -13 -9 -32
-32 -43 -52 -10 -20 -35 -52 -55 -71 -20 -19 -52 -58 -70 -86 -20 -31 -46 -57
-68 -67 -19 -9 -46 -17 -59 -17 -13 0 -44 -11 -70 -25 -30 -16 -63 -25 -91
-25 -25 0 -64 -7 -88 -15 -35 -13 -76 -14 -218 -10 -97 3 -218 10 -270 15 -52
5 -104 13 -115 16 -12 4 -35 17 -51 30 -17 12 -75 41 -130 63 -54 23 -113 54
-129 69 -17 16 -54 45 -82 65 -31 22 -59 52 -69 75 -10 20 -35 53 -56 72 -23
22 -47 58 -62 95 -13 33 -39 83 -58 112 -19 28 -44 69 -57 90 -13 21 -34 66
-48 98 -13 33 -24 68 -24 79 0 10 -16 34 -35 52 -26 24 -38 46 -44 81 -5 26
-23 77 -39 113 -16 36 -41 103 -57 150 -15 47 -37 103 -48 125 -11 22 -30 82
-43 134 -13 52 -33 112 -44 133 -11 22 -27 65 -35 96 -7 32 -19 73 -26 92 -6
19 -16 42 -20 50 -5 8 -15 27 -24 41 -8 15 -19 65 -24 110 -6 58 -20 111 -45
170 -29 69 -39 111 -51 216 -11 90 -24 155 -46 214 -25 67 -33 113 -44 229
-11 129 -16 153 -45 215 -32 68 -33 75 -42 250 -4 99 -13 196 -18 216 -6 20
-10 53 -10 73 0 20 6 49 14 64 8 15 36 48 63 73 26 25 63 52 81 59 17 7 32 16
32 21 0 5 24 24 53 43 28 18 78 42 111 52 47 15 66 28 102 69 24 28 55 57 69
65 14 7 43 37 65 66 30 38 55 58 98 76 31 14 65 28 74 31 10 3 30 24 46 46 16
22 43 51 60 66 17 14 41 43 53 63 12 20 34 51 49 67 15 17 39 48 54 70 14 22
41 51 60 65 18 14 57 44 87 68 31 26 71 73 97 115 24 40 55 82 68 95 13 12 28
39 33 60 6 21 24 53 40 71 17 18 33 47 37 65 4 17 15 42 25 55 11 13 19 28 19
34 0 6 14 31 30 57 17 26 43 86 59 133 16 47 40 100 52 119 13 18 32 42 42 54
11 13 21 48 26 97 6 51 19 98 39 139 16 35 37 87 46 117 11 38 16 95 16 186 0
73 5 157 10 186 6 30 14 180 17 334 4 154 6 306 5 339 0 32 -8 82 -17 111 -8
29 -15 73 -15 97 0 23 -7 86 -15 138 -8 52 -15 124 -15 160 0 36 -7 106 -15
155 -7 50 -27 122 -43 160 -16 39 -35 102 -42 140 -6 39 -18 88 -25 110 -7 22
-23 65 -35 95 -12 30 -26 73 -30 95 -5 23 -29 83 -54 135 -25 51 -46 99 -46
106 0 8 -7 30 -16 51 -9 21 -27 61 -40 88 -13 28 -33 70 -44 95 -11 25 -31 63
-45 85 -14 22 -33 60 -42 85 -10 25 -46 95 -82 155 -35 61 -71 118 -80 129 -9
10 -32 25 -51 32 -28 11 -41 27 -64 75 -16 33 -46 81 -66 107 -21 26 -45 62
-54 80 -9 18 -29 37 -44 43 -15 6 -46 29 -68 52 -23 23 -59 56 -80 72 -21 17
-53 51 -72 77 -22 32 -49 55 -79 68 -25 11 -51 20 -59 20 -7 0 -25 11 -41 23
-15 13 -41 31 -58 40 -16 9 -39 20 -50 26 -11 5 -51 19 -90 31 -38 11 -104 27
-145 34 -41 7 -93 22 -115 33 -22 11 -81 25 -130 32 -50 7 -175 11 -280 10
-105 -1 -226 0 -270 4 -56 4 -97 2 -135 -8z m21 -5746 c11 -11 28 -37 36 -57
8 -21 21 -44 29 -52 7 -9 18 -56 24 -105 5 -50 7 -112 4 -140 -3 -27 -17 -66
-29 -86 -18 -28 -33 -38 -62 -43 -21 -4 -78 -27 -128 -52 -49 -24 -125 -53
-167 -63 -42 -10 -107 -33 -145 -50 -38 -18 -77 -33 -88 -33 -11 -1 -32 1 -47
5 -18 5 -30 16 -34 32 -3 14 -1 47 6 73 6 26 22 65 34 87 12 22 38 80 57 129
27 71 41 95 74 121 22 18 56 40 75 50 19 10 50 31 68 46 18 16 42 29 53 29 11
0 36 7 57 15 20 9 58 38 84 65 26 28 54 50 63 50 8 0 24 -9 36 -21z"/>
<path d="M35490 10849 c-67 -4 -137 -16 -192 -32 -48 -15 -109 -35 -135 -46
-26 -11 -69 -25 -95 -31 -25 -5 -79 -25 -120 -45 -40 -19 -92 -45 -114 -58
-23 -13 -51 -27 -63 -30 -12 -3 -28 -20 -36 -40 -8 -20 -19 -39 -25 -42 -6 -4
-25 -34 -42 -68 -32 -61 -32 -63 -32 -214 -1 -146 0 -152 23 -177 13 -14 39
-30 57 -36 25 -9 43 -9 68 0 19 6 49 25 68 41 18 16 63 45 100 64 37 19 75 35
84 35 9 0 43 21 75 47 32 26 71 63 86 82 15 18 40 47 55 62 24 27 32 29 100
29 49 0 96 7 142 22 l68 22 65 -34 65 -35 146 0 c81 0 181 4 222 8 41 5 89 13
105 18 19 5 47 31 74 65 24 31 53 79 64 107 13 33 20 78 21 124 1 63 -2 74
-24 98 -14 15 -43 37 -65 48 -38 21 -53 22 -340 22 -165 0 -347 -3 -405 -6z"/>
</g>
</svg>
