<?xml version="1.0" encoding="UTF-8" standalone="no"?>
<!-- Created with Inkscape (http://www.inkscape.org/) -->
<svg
   xmlns:svg="http://www.w3.org/2000/svg"
   xmlns="http://www.w3.org/2000/svg"
   version="1.0"
   width="403.44257"
   height="92.919312"
   id="svg2">
  <defs
     id="defs5" />
  <path
     d="M 72.473641,92.14804 C 72.473641,90.30171 98.784634,79.80415 110.39067,77.01991 C 113.1863,76.34925 115.47364,75.27021 115.47364,74.62205 C 115.47364,73.97389 117.04864,70.15711 118.97364,66.14031 C 123.47035,56.75725 123.57003,51.40614 119.18143,54.98493 C 112.33196,60.5705 111.59223,61.0009 110.86478,59.82386 C 110.37821,59.03658 111.6967,57.33068 114.53981,55.06901 C 124.89095,46.83475 143.28922,26.20643 147.39689,18.22934 C 148.67589,15.74552 148.10742,14 146.01952,14 C 144.27405,14 136.30576,21.759 134.60582,25.11391 C 133.87736,26.55156 132.19962,28.89442 130.8775,30.32026 C 129.55538,31.74611 128.47364,33.15233 128.47364,33.44519 C 128.47364,34.56146 119.13939,46.19104 117.84467,46.68787 C 117.09692,46.97481 116.69284,47.54565 116.9467,47.95642 C 117.20057,48.36718 114.9234,51.35753 111.88632,54.60163 C 108.84925,57.84574 105.25831,62.1875 103.90646,64.25 C 102.55461,66.3125 101.05668,68 100.57773,68 C 100.09877,68 99.434664,68.7875 99.101924,69.75 C 97.877231,73.29263 94.764913,77.50909 93.142728,77.82333 C 90.576189,78.3205 91.047014,73.94471 93.934433,70.46531 C 95.287869,68.83439 100.26731,62.775 104.99987,57 C 109.73242,51.225 115.13707,44.7 117.01019,42.5 C 118.88332,40.3 120.43164,37.375 120.45092,36 C 120.47019,34.625 121.1315,32.2625 121.9205,30.75 C 123.91347,26.92949 122.6567,27.34061 118.04788,32.01683 C 115.88872,34.20758 113.47112,36 112.67544,36 C 111.44285,36 111.43187,35.75308 112.6012,34.33157 C 114.73263,31.74045 123.41706,23.67591 129.26345,18.85865 C 132.17285,16.4614 137.09157,12.1375 140.19395,9.25 C 143.29634,6.3625 146.15528,4 146.54715,4 C 147.61026,4 148.57127,7.03301 147.86848,8.17016 C 147.53207,8.71448 148.14952,9.78511 149.2406,10.54933 C 152.28266,12.68007 152.4783,15.45349 149.94019,20.4669 C 147.19781,25.88379 141.66186,32.71311 131.72076,42.94296 C 125.96086,48.87016 124.60705,50.82782 125.14397,52.45325 C 126.22506,55.72611 125.67751,58.59559 122.89715,64.22789 C 121.46574,67.12755 119.90511,70.77647 119.42909,72.3366 L 118.56358,75.1732 L 124.76861,74.87074 C 135.73297,74.33631 141.6631,77.03318 143.01022,83.16654 C 144.28625,88.97626 138.15759,91.6432 127.48176,89.92391 C 122.24343,89.0803 120.53579,88.30976 118.26307,85.76415 C 116.72888,84.04575 115.47364,82.13584 115.47364,81.5199 C 115.47364,80.90395 114.98668,79.91304 114.39151,79.31787 C 113.30326,78.22962 112.18162,78.45508 103.47364,81.51248 C 101.54864,82.18835 97.498641,83.54655 94.473641,84.5307 C 91.448641,85.51485 85.731948,87.82305 81.769879,89.66003 C 74.324794,93.11189 72.473641,93.60733 72.473641,92.14804 z M 138.97846,84.25352 C 139.06669,83.01795 138.4267,81.39387 137.55626,80.64445 C 135.50135,78.87525 128.05349,77.27906 122.97364,77.51918 C 117.99552,77.75448 117.25351,79.96472 120.99007,83.42765 C 123.66594,85.90757 127.56933,86.79928 134.89584,86.60435 C 138.21261,86.51611 138.8428,86.15324 138.97846,84.25352 z M 126.83565,29.5 L 128.59234,26.5 L 126.53299,28.86079 C 125.40035,30.15922 124.47364,31.69672 124.47364,32.27745 C 124.47364,33.50717 124.52359,33.44843 126.83565,29.5 z M 0.35782475,83.64516 C -1.8306286,78.84203 6.1954212,68.10785 19.61133,57.89519 C 23.935601,54.6034 27.482274,51.59285 27.492825,51.20506 C 27.503376,50.81728 29.09748,48.7 31.035278,46.5 C 33.783259,43.38019 34.518447,41.72984 34.376317,39 C 34.031315,32.37374 34.491937,31.10399 40.428828,22.31554 C 47.270743,12.18737 59.179473,0 62.234169,0 C 65.891343,0 63.989458,4.01858 51.973641,21.67994 C 44.079774,33.28268 43.110769,35.1577 44.548996,36.04658 C 46.303489,37.13091 42.947629,41.5472 38.91508,43.46077 C 37.022289,44.35896 35.473641,45.26092 35.473641,45.46513 C 35.473641,45.66935 35.2117,46.51904 34.89155,47.35333 C 34.398658,48.63779 35.050136,48.5888 39.142878,47.03369 C 41.801259,46.02358 46.2257,44.89692 48.97497,44.53 C 51.724239,44.16308 54.890904,43.41865 56.012002,42.87572 C 57.372975,42.21662 58.971493,42.23879 60.822177,42.94242 C 64.114978,44.19434 63.631565,45.51842 59.586317,46.32747 C 57.33842,46.77705 56.385458,47.73717 55.487955,50.45663 C 54.000649,54.96321 52.473641,55.01704 52.473641,50.56287 C 52.473641,47.16307 52.432915,47.13153 48.723641,47.65829 C 46.661141,47.95119 43.555633,48.82289 41.822512,49.59542 C 40.089391,50.36794 38.030332,51 37.246826,51 C 36.46332,51 34.765386,52.125 33.473641,53.5 C 32.181896,54.875 30.636356,56 30.039109,56 C 28.716683,56 25.375991,59.31511 19.694557,66.26532 C 7.3665298,81.34643 3.2896278,86 2.4053875,86 C 1.8693441,86 0.94794085,84.94032 0.35782475,83.64516 z M 10.420171,73.25 L 14.606991,67.5 L 10.060883,72.5 C 6.0149252,76.94992 4.6879243,79 5.8534955,79 C 6.0624155,79 8.1174187,76.4125 10.420171,73.25 z M 47.890068,22.23043 C 53.180583,14.38217 56.601189,8.52791 55.491414,9.22098 C 54.381639,9.91404 53.473091,10.71035 53.47242,10.99055 C 53.47133,11.44498 50.832001,14.82387 47.243288,18.96514 C 42.923711,23.94981 33.565629,41.47417 37.372295,37.45 C 37.866555,36.9275 42.599552,30.0787 47.890068,22.23043 z M 288.14031,85.33334 C 285.17791,82.37094 293.83812,68.26708 309.8361,50 C 313.93038,45.325 317.21126,41.45084 317.12694,41.39074 C 317.04263,41.33065 314.47601,41.56947 311.42336,41.92145 C 308.3707,42.27344 304.3934,42.2588 302.58491,41.88892 C 299.30175,41.21745 297.37137,42.35338 290.50053,49 C 286.6773,52.69847 279.66085,58 278.58926,58 C 276.75242,58 276.19754,55.38441 277.51297,52.92651 C 278.58063,50.93158 278.50975,50.77744 276.83997,51.46294 C 269.41714,54.51029 263.17146,56.28942 258.3236,56.73746 C 253.02281,57.22737 252.58998,57.10014 251.32147,54.67911 L 249.96939,52.09856 L 245.5999,54.05484 C 240.40305,56.38154 231.57368,57.49868 229.48936,56.09323 C 228.56569,55.4704 228.0437,53.61949 228.10733,51.19273 C 228.18872,48.08887 229.2755,45.93672 233.43289,40.64654 C 236.30571,36.99094 238.27763,34.00473 237.81492,34.01051 C 237.35222,34.01629 231.61187,35.11454 225.05859,36.45108 C 212.4812,39.01622 210.94769,39.92771 207.31092,47 C 206.60385,48.375 204.74606,51.01249 203.1825,52.86109 C 201.61894,54.70969 199.90132,57.37513 199.36556,58.78428 C 198.46184,61.16124 198.27267,61.22761 196.74777,59.70271 C 194.69456,57.6495 195.71076,55.35499 202.70576,46.25 C 205.34665,42.8125 207.04979,40 206.49051,40 C 204.48747,40 205.51923,37.0261 207.72364,36.44571 C 210.68541,35.66591 219.12987,23.96157 216.69142,24.01603 C 215.90801,24.03353 197.37132,37.81089 194.65275,40.39622 C 193.72924,41.27448 190.94864,43.47089 188.47364,45.27714 C 174.30757,55.61552 165.73833,60 159.69858,60 C 155.33725,60 151.9829,57.72124 152.88474,55.37106 C 153.68672,53.28115 152.10171,53.72739 148.87918,56.49878 C 147.28113,57.87311 145.46624,58.99811 144.84608,58.99878 C 144.22593,58.99945 143.15833,59.675 142.47364,60.5 C 140.96845,62.31365 136.47214,62.50111 136.47738,60.75 C 136.47943,60.0625 137.41261,57.97207 138.55111,56.10459 C 140.05306,53.64094 140.29812,52.50956 139.44413,51.98176 C 138.60919,51.46574 138.56302,50.70152 139.28524,49.35203 C 140.82868,46.46808 153.62175,34.97351 154.60898,35.58365 C 155.93648,36.40409 155.63488,39.80284 154.15494,40.70031 C 153.42965,41.14014 151.38266,43.63805 149.60606,46.25123 C 147.82946,48.8644 145.27287,52.19261 143.92476,53.64725 C 141.3321,56.44477 140.62024,58.64072 142.72364,57.35245 C 145.57457,55.60635 155.22676,48.0024 156.42506,46.55854 C 157.13647,45.70134 158.31187,45 159.03707,45 C 161.62946,45 161.61053,47.1438 158.99674,49.56617 C 155.26728,53.02252 155.86206,56.36683 160.26893,56.71942 C 166.18077,57.19242 175.07202,51.95402 195.26401,36.10159 C 201.14761,31.48247 209.5642,25.21086 213.96755,22.16468 C 218.3709,19.11849 224.09186,14.68528 226.6808,12.31308 C 231.34505,8.03932 234.6874,6.91882 236.07487,9.16379 C 236.496,9.8452 235.58784,11.28129 233.88388,12.62847 C 232.28325,13.89396 229.54653,16.08367 227.80228,17.49448 C 226.05803,18.9053 223.1847,22.63369 221.4171,25.7798 C 219.6495,28.92591 217.71465,31.81304 217.11742,32.19563 C 212.75687,34.9891 227.7679,32.99048 238.9132,29.29367 C 244.34355,27.49247 248.19949,25.46282 250.93994,22.96317 C 257.953,16.56633 262.47364,15.1741 262.47364,19.41111 C 262.47364,22.11208 258.41736,25.98381 252.79001,28.65416 C 244.66877,32.50794 229.69287,49.61923 232.22506,52.15142 C 232.93808,52.86444 234.99707,52.82554 238.847,52.02629 C 246.25699,50.48799 250.14255,48.52462 255.02439,43.85191 C 260.88622,38.24119 267.47364,36.76547 267.47364,41.06301 C 267.47364,42.29272 265.97961,43.70924 263.22364,45.09253 C 258.73071,47.34764 254.47364,50.79308 254.47364,52.17432 C 254.47364,53.64058 260.57551,53.05425 267.86583,50.88745 C 274.52457,48.90837 279.94398,46.35883 286.18647,42.2686 C 287.64172,41.31508 289.76416,40.64267 290.90301,40.77435 C 294.81772,41.22701 295.77186,39.7274 294.4264,35.23668 C 292.84178,29.94768 293.80331,25.26892 297.36215,20.95142 C 301.50247,15.9285 308.36162,15.92098 309.95384,20.93761 C 310.64978,23.13035 306.87025,31.21009 303.46177,34.81612 C 300.68391,37.75498 301.43017,38.45383 307.27755,38.38946 C 317.39742,38.27805 322.76859,36.03358 332.735,27.75145 C 337.56707,23.73598 340.52445,23.33837 340.41703,26.71862 C 340.36777,28.2684 331.89797,35.45225 326.45312,38.56241 C 323.94083,39.99746 313.27871,51.27032 311.10102,54.7939 C 310.68948,55.45978 313.81115,54.42856 318.03805,52.5023 C 322.26495,50.57604 325.96715,49 326.26515,49 C 326.56315,49 326.52492,48.71795 326.18019,48.37322 C 325.83546,48.02849 326.22018,46.45704 327.03512,44.88111 C 328.91938,41.23735 337.91534,36.02172 342.33714,36.00939 C 345.50709,36.00054 345.6753,36.17264 345.26033,39 C 344.75221,42.46206 344.71396,42.44159 348.2733,40.61184 C 351.54866,38.92806 368.18684,34.42943 378.47364,32.44626 C 388.51235,30.51091 398.3988,30.55885 401.25113,32.55671 C 403.4972,34.12991 404.12485,37.42541 402.62779,39.78483 C 400.39648,43.30143 378.26489,53.1038 369.47364,54.46923 C 368.64864,54.59737 366.33053,55.03596 364.32229,55.44389 C 351.61376,58.02532 340.4755,58.43317 334.01072,56.55381 L 328.49839,54.95133 L 323.14487,59.22567 C 320.20043,61.57655 313.5096,67.1 308.27635,71.5 C 303.0431,75.9 297.74454,80.175 296.50176,81 C 295.25899,81.825 293.21077,83.2875 291.95018,84.25 C 289.39523,86.20078 289.09353,86.28656 288.14031,85.33334 z M 310.97364,64.32973 C 314.82364,61.09687 319.46205,57.40107 321.28122,56.11682 C 323.10038,54.83257 324.41579,53.60882 324.20434,53.39737 C 323.9929,53.18593 320.95666,54.13502 317.45715,55.50646 C 313.95765,56.87791 310.35854,58 309.45914,58 C 308.1307,58 296.9957,71.93415 295.59473,75.34969 C 295.02769,76.73212 303.0467,70.98599 310.97364,64.32973 z M 369.47364,49.7848 C 374.14864,48.67818 380.22364,46.93322 382.97364,45.90711 C 390.90678,42.947 399.47364,38.21236 399.47364,36.78805 C 399.47364,33.72401 377.8412,34.76795 365.14647,38.44462 C 347.99219,43.41287 344.67619,44.47133 341.02038,46.14559 C 335.84118,48.51753 332.92102,50.78072 333.8461,51.7058 C 335.04175,52.90144 350.5973,53.5641 355.97364,52.64842 C 358.72364,52.18005 364.79864,50.89142 369.47364,49.7848 z M 334.97364,45 C 335.96913,43.9 336.37637,43.01432 335.87863,43.03181 C 334.71613,43.07266 331.47364,45.52271 331.47364,46.36025 C 331.47364,47.63019 333.20083,46.95893 334.97364,45 z M 301.05287,31.73762 C 302.19644,29.95693 303.90009,27.31685 304.83875,25.87076 C 306.3412,23.55612 306.36323,23.17161 305.02286,22.65726 C 302.37706,21.64197 298.40686,26.07898 297.78014,30.75157 C 297.1004,35.8194 298.21571,36.15543 301.05287,31.73762 z M 57.473641,62.68522 C 57.473641,61.02432 58.46234,59.89895 60.973641,58.70139 C 64.056981,57.23105 64.473641,57.21469 64.473641,58.56393 C 64.473641,60.1464 59.838776,65 58.327618,65 C 57.857931,65 57.473641,63.95835 57.473641,62.68522 z"
     id="path2384"
     style="fill:#000000" />
</svg>
