<?xml version="1.0" standalone="no"?>
<!DOCTYPE svg PUBLIC "-//W3C//DTD SVG 20010904//EN"
 "http://www.w3.org/TR/2001/REC-SVG-20010904/DTD/svg10.dtd">
<svg version="1.0" xmlns="http://www.w3.org/2000/svg"
 width="468pt" height="123pt" viewBox="0 0 468 123"
 preserveAspectRatio="xMidYMid meet">
<metadata>
Created by POTRACE VERSION, written by Peter Selinger 2001-2007
</metadata>
<g transform="translate(0,123) scale(0.036764,-0.036764)"
fill="#000000" stroke="none">
<path d="M2231 3194 c-13 -7 -33 -26 -43 -43 -11 -17 -32 -34 -47 -38 -14 -3
-53 -19 -85 -35 -33 -17 -66 -36 -73 -44 -8 -8 -18 -14 -22 -14 -4 0 -25 -16
-46 -35 -22 -19 -55 -49 -73 -67 -18 -18 -42 -49 -52 -69 -10 -19 -26 -41 -34
-48 -9 -8 -16 -18 -16 -23 0 -6 -8 -26 -17 -46 -9 -21 -25 -48 -35 -61 -10
-13 -18 -36 -18 -50 0 -15 -5 -32 -11 -38 -6 -6 -13 -26 -16 -44 -3 -19 -9
-42 -14 -52 -6 -9 -12 -49 -15 -87 -4 -55 -2 -73 10 -86 9 -8 16 -21 16 -28 0
-8 -7 -29 -15 -47 -9 -19 -29 -56 -45 -84 -16 -27 -29 -60 -30 -71 0 -12 -6
-24 -13 -27 -7 -2 -34 -39 -60 -82 -26 -43 -47 -82 -47 -88 0 -6 -6 -18 -14
-26 -8 -9 -26 -38 -41 -66 -15 -27 -38 -70 -50 -95 -13 -25 -30 -61 -38 -81
-9 -19 -43 -57 -75 -85 -33 -27 -72 -58 -88 -69 -15 -11 -33 -26 -40 -32 -7
-7 -15 -13 -18 -13 -3 0 -16 -8 -28 -17 -12 -10 -36 -31 -54 -48 -17 -16 -85
-79 -149 -140 -65 -60 -149 -141 -187 -180 -38 -38 -102 -104 -143 -145 -41
-42 -75 -78 -75 -81 0 -4 -19 -27 -42 -51 -24 -25 -49 -53 -57 -63 -8 -9 -29
-37 -47 -61 -19 -24 -34 -49 -34 -54 0 -6 -6 -10 -13 -10 -8 0 -28 -28 -46
-62 -18 -35 -42 -81 -55 -103 -12 -22 -28 -59 -36 -83 -11 -35 -11 -47 0 -66
7 -13 22 -27 34 -30 11 -3 57 4 101 16 44 12 82 25 83 30 2 4 14 8 27 8 13 0
30 6 37 13 7 7 21 16 31 20 10 4 15 11 12 17 -4 6 6 10 24 10 20 0 35 7 43 20
7 11 31 25 53 31 29 8 58 30 102 76 35 36 63 69 63 73 0 4 11 11 25 14 14 4
25 10 25 15 0 4 8 17 17 29 10 11 29 34 43 52 14 17 33 40 43 51 9 10 17 25
17 32 0 8 11 24 24 36 14 13 34 47 46 76 12 30 27 56 34 58 7 3 21 31 31 63
11 33 27 68 36 79 10 11 43 71 73 132 31 62 56 115 56 119 0 3 20 38 43 77 24
40 50 90 57 111 7 22 24 50 39 63 14 13 42 33 61 45 19 12 37 25 40 28 3 3 25
22 50 41 25 20 59 42 75 50 17 8 51 30 78 49 31 22 44 37 37 44 -6 6 -17 3
-30 -9 -11 -10 -30 -24 -43 -31 -12 -7 -50 -27 -84 -44 -34 -16 -68 -30 -77
-30 -11 0 -16 9 -16 28 0 16 15 48 38 79 21 28 49 77 62 109 13 33 27 61 30
64 4 3 14 20 23 39 9 19 17 40 17 47 0 7 14 28 30 46 17 18 30 44 30 58 0 15
11 37 24 49 14 13 26 33 28 45 2 13 12 22 26 24 12 2 29 16 37 32 8 16 15 35
15 43 0 8 13 29 29 48 16 18 32 45 35 60 3 16 13 29 27 32 15 4 20 11 16 22
-4 9 9 41 32 78 21 34 50 80 64 101 15 21 27 47 27 56 0 10 6 20 14 23 8 3 33
33 55 66 23 33 41 66 41 73 0 7 9 19 20 26 12 7 18 16 16 21 -3 5 4 17 15 27
12 11 35 38 51 62 16 23 27 42 24 42 -3 0 4 21 14 46 11 25 17 51 13 58 -6 10
-13 10 -32 0z m-74 -111 c-2 -5 -13 -26 -23 -48 -10 -22 -21 -42 -25 -45 -3
-3 -23 -31 -43 -62 -20 -31 -36 -60 -36 -63 0 -4 -29 -51 -65 -105 -36 -54
-69 -109 -74 -122 -5 -13 -18 -32 -30 -42 -11 -11 -21 -25 -21 -32 0 -6 -11
-22 -25 -35 -13 -13 -25 -32 -25 -41 0 -10 -4 -18 -8 -18 -4 0 -16 -13 -25
-30 -14 -23 -25 -30 -48 -30 -25 0 -29 4 -29 28 1 15 8 45 16 67 9 22 17 49
18 60 1 11 8 40 15 65 8 25 20 59 27 77 8 17 14 38 14 46 0 8 9 17 20 20 11 3
20 9 19 14 -1 4 3 19 8 33 6 14 18 32 27 39 9 7 16 20 16 27 0 8 5 14 11 14 6
0 9 7 6 14 -4 9 2 17 14 21 10 4 19 10 19 15 0 5 9 12 20 15 11 3 20 13 20 20
0 8 19 23 43 34 23 11 67 31 97 45 30 14 59 26 63 26 5 0 6 -3 4 -7z m-967
-1637 c0 -1 -11 -23 -24 -47 -12 -24 -37 -65 -55 -90 -17 -26 -31 -57 -31 -68
0 -12 -7 -24 -15 -27 -9 -4 -31 -39 -50 -79 -19 -40 -35 -79 -35 -87 0 -9 -8
-26 -18 -39 -11 -13 -40 -66 -65 -117 -26 -50 -47 -97 -47 -102 0 -6 -21 -36
-46 -68 -25 -31 -60 -75 -77 -96 -18 -22 -59 -66 -91 -99 -33 -32 -76 -71 -96
-85 -19 -15 -37 -30 -40 -33 -3 -3 -44 -25 -93 -49 -48 -23 -111 -48 -140 -56
-28 -7 -55 -14 -59 -14 -3 0 -11 14 -17 31 -10 29 -6 41 46 140 32 60 67 119
78 132 12 12 25 29 31 38 5 9 25 35 44 58 19 23 52 59 73 81 20 22 37 45 37
50 0 6 28 36 62 68 34 31 101 96 150 143 48 47 88 90 88 95 0 6 26 29 58 52
31 23 66 55 77 72 11 16 25 30 30 30 6 1 20 9 33 19 12 11 22 22 22 25 0 3 8
14 18 24 10 9 34 29 54 45 20 15 42 27 48 27 6 0 13 7 16 15 4 8 12 15 20 15
8 0 14 -2 14 -4z"/>
<path d="M5147 3114 c-1 -2 -34 -5 -72 -7 -39 -3 -83 -11 -100 -18 -16 -6 -34
-13 -40 -13 -5 -1 -37 -10 -69 -20 -32 -10 -84 -32 -115 -49 -31 -16 -74 -43
-95 -58 -22 -16 -46 -29 -52 -29 -7 0 -27 -20 -44 -45 -17 -25 -35 -45 -40
-45 -4 0 -18 -20 -30 -45 -12 -25 -22 -60 -22 -78 0 -17 9 -50 19 -72 10 -22
27 -53 38 -70 11 -16 47 -56 80 -87 33 -32 68 -60 78 -64 10 -3 44 -23 75 -43
31 -21 82 -45 114 -55 36 -11 69 -15 92 -11 20 4 36 11 36 15 0 4 -7 11 -16
14 -9 3 -22 6 -30 6 -8 0 -41 18 -73 40 -32 22 -61 40 -65 40 -3 0 -42 36 -86
80 -44 45 -80 87 -80 94 0 7 -9 21 -19 30 -11 10 -17 24 -14 32 3 8 1 14 -4
14 -5 0 -10 10 -10 23 -1 12 -4 34 -6 50 -2 15 -1 30 3 32 4 3 11 16 14 30 4
14 14 35 24 47 9 12 31 35 49 52 18 17 39 37 47 44 8 6 24 12 34 12 11 0 33 7
48 15 16 8 36 15 45 15 9 0 22 7 29 15 7 8 22 15 34 15 12 0 27 5 34 12 6 6
35 13 64 15 29 2 91 4 138 5 47 1 117 0 157 -4 56 -4 78 -11 105 -32 19 -14
40 -26 46 -26 7 0 12 -4 12 -10 0 -5 6 -10 14 -10 8 0 28 -17 45 -38 16 -21
41 -71 54 -111 19 -55 23 -81 17 -108 -5 -21 -26 -55 -52 -81 -24 -25 -73 -76
-110 -113 -36 -37 -64 -70 -60 -73 3 -3 -1 -6 -9 -6 -9 0 -28 -13 -44 -30 -16
-16 -31 -30 -35 -30 -3 0 -32 -25 -65 -55 -32 -30 -65 -55 -72 -55 -7 0 -13
-4 -13 -10 0 -5 -5 -10 -11 -10 -6 0 -24 -10 -41 -22 -16 -13 -41 -33 -54 -45
-14 -13 -37 -29 -53 -37 -15 -8 -39 -29 -52 -45 -13 -17 -27 -31 -31 -31 -5 0
-36 -21 -70 -47 -35 -27 -69 -56 -76 -65 -7 -10 -19 -18 -26 -18 -6 0 -27 -15
-45 -34 -30 -31 -36 -33 -62 -24 -24 8 -38 6 -74 -11 -25 -12 -50 -21 -57 -21
-6 0 -45 -34 -85 -76 -40 -42 -73 -78 -73 -81 0 -4 -18 -30 -39 -58 -30 -39
-37 -55 -28 -64 6 -6 25 -11 42 -11 16 0 42 8 57 18 14 9 47 39 72 65 26 26
52 47 59 47 8 0 24 12 38 26 13 14 36 32 51 40 15 8 43 16 63 19 29 3 40 -1
58 -21 12 -14 36 -34 53 -45 22 -13 49 -19 90 -19 33 0 85 4 116 10 36 5 74
20 102 39 25 17 49 31 55 31 6 0 32 13 59 29 26 17 63 50 81 75 19 25 46 50
61 56 15 6 37 29 49 51 12 21 31 44 42 49 10 6 19 15 19 20 0 5 17 34 39 64
21 31 41 74 45 96 3 22 10 40 14 40 4 0 13 15 21 33 8 17 19 39 26 47 7 8 16
29 20 45 4 17 9 46 11 65 2 19 10 51 18 70 7 19 22 61 32 93 10 31 22 57 26
57 4 0 8 8 8 18 0 9 10 26 23 38 12 11 30 23 40 27 9 3 17 15 17 26 0 11 8 24
17 30 10 5 15 13 11 17 -4 4 -22 7 -39 6 -17 0 -37 -6 -46 -14 -13 -10 -20 -7
-44 20 -16 18 -29 39 -29 48 0 8 -7 29 -16 47 -9 18 -38 53 -65 80 -27 26 -56
47 -65 47 -8 0 -25 7 -37 15 -13 8 -36 16 -53 19 -16 2 -36 6 -44 9 -8 3 -33
9 -55 13 -22 4 -68 8 -103 9 -34 0 -64 0 -65 -1z m441 -618 c3 -3 1 -6 -5 -6
-5 0 -10 -6 -11 -12 0 -7 -2 -22 -4 -33 -2 -11 -5 -22 -8 -25 -3 -3 -13 -20
-23 -38 -10 -18 -20 -43 -23 -56 -2 -13 -11 -37 -19 -52 -8 -16 -15 -35 -15
-41 0 -7 -4 -13 -9 -13 -5 0 -13 -10 -16 -22 -4 -13 -17 -34 -30 -48 -12 -14
-33 -47 -46 -75 -12 -27 -37 -61 -53 -75 -17 -14 -49 -44 -72 -67 -22 -24 -74
-68 -115 -98 -41 -30 -96 -62 -122 -71 -33 -11 -69 -15 -109 -12 -50 4 -65 9
-80 29 -11 13 -29 35 -42 49 -12 14 -26 31 -30 38 -4 7 2 25 14 42 12 17 27
30 34 30 7 0 39 25 71 55 33 30 63 55 67 55 4 0 29 21 55 46 27 25 75 65 108
88 33 23 73 48 88 56 16 8 39 27 52 42 13 15 27 28 32 28 4 1 26 19 48 40 22
22 45 40 51 40 6 0 26 16 43 37 17 20 31 41 31 46 0 6 3 8 6 4 3 -3 20 3 37
14 20 12 43 17 60 15 16 -3 31 -7 35 -10z"/>
<path d="M7405 2991 c-27 -16 -67 -44 -89 -64 -21 -19 -35 -40 -32 -46 4 -6 1
-9 -7 -5 -8 3 -31 -12 -53 -33 -22 -21 -82 -76 -133 -123 -52 -47 -167 -158
-257 -247 -109 -107 -173 -163 -192 -167 -15 -3 -49 -8 -77 -11 -27 -3 -54
-10 -58 -14 -4 -4 17 -8 48 -9 31 0 59 -3 63 -6 3 -4 1 -15 -6 -24 -7 -9 -25
-37 -40 -61 -15 -25 -48 -65 -73 -90 -25 -25 -71 -64 -102 -86 -31 -22 -57
-46 -57 -52 0 -7 4 -13 9 -13 5 0 16 7 25 15 8 8 17 15 20 15 4 0 3 -12 0 -27
-4 -15 -16 -36 -26 -47 -10 -11 -18 -24 -18 -29 0 -5 -15 -27 -33 -50 -19 -23
-36 -49 -40 -58 -4 -13 11 -21 69 -39 74 -22 74 -22 151 -4 43 10 92 26 108
36 17 10 37 18 46 18 9 0 19 7 23 15 3 8 18 15 33 15 14 0 37 10 49 21 13 12
30 19 38 16 14 -5 14 -9 1 -34 -8 -15 -15 -38 -15 -49 0 -14 10 -26 28 -33 16
-7 48 -13 73 -15 24 -1 61 4 81 12 21 8 36 18 33 22 -3 5 4 6 15 3 11 -3 27 0
35 7 8 7 15 9 15 6 0 -4 10 -1 23 6 12 6 29 13 37 15 8 2 28 6 44 8 16 2 36
11 46 20 9 8 23 15 31 15 8 0 31 11 51 25 20 14 43 25 50 25 8 0 23 7 35 15
13 9 24 11 28 6 3 -6 -16 -30 -42 -55 -26 -25 -51 -46 -55 -46 -5 0 -16 -16
-25 -35 -16 -34 -16 -36 3 -56 11 -11 29 -20 40 -20 10 0 42 5 69 11 28 7 61
23 76 36 14 13 30 24 37 24 6 0 17 9 24 20 7 11 18 20 25 20 7 0 13 4 13 9 0
5 9 13 20 16 11 3 20 12 20 19 0 7 11 23 24 35 17 16 40 24 81 27 31 2 65 9
74 14 10 5 23 5 31 0 8 -5 52 -7 99 -5 47 3 95 6 106 7 13 2 20 -3 20 -13 0
-8 -13 -33 -30 -55 -16 -21 -48 -56 -70 -78 -22 -21 -51 -48 -65 -60 -14 -12
-37 -28 -52 -34 -16 -6 -28 -16 -28 -21 0 -5 3 -11 8 -14 4 -2 2 -3 -4 -1 -6
1 -17 -1 -24 -6 -7 -4 -10 -12 -6 -18 3 -6 20 -9 38 -7 17 3 62 24 100 47 39
24 97 58 131 76 37 20 63 29 67 22 3 -5 0 -48 -6 -95 l-13 -85 27 -29 c15 -16
38 -30 52 -31 14 -1 27 -1 30 0 3 1 39 3 80 5 41 2 91 7 110 10 19 4 43 11 52
16 9 5 25 9 36 9 10 0 32 6 48 14 16 8 47 22 69 32 22 10 47 24 55 31 8 7 28
25 43 38 15 14 24 25 20 25 -4 0 6 9 22 20 17 11 30 23 30 28 0 5 8 16 18 26
9 10 17 26 17 37 0 10 5 19 11 19 6 0 9 6 7 13 -3 6 -11 12 -19 12 -8 0 -14
-7 -15 -15 0 -8 -4 -27 -8 -42 -5 -16 -15 -28 -24 -28 -8 0 -13 -3 -10 -6 3
-3 -4 -16 -17 -30 -12 -13 -28 -24 -35 -24 -7 0 -23 -11 -36 -25 -13 -14 -27
-25 -31 -25 -5 0 -24 -8 -43 -19 -19 -10 -69 -29 -110 -42 -55 -17 -99 -23
-167 -24 -84 0 -93 2 -112 24 -12 13 -21 31 -21 39 0 8 8 51 17 96 9 45 14 90
10 99 -4 12 -18 17 -47 17 -32 0 -40 4 -40 18 0 10 4 22 9 27 5 6 12 25 14 43
5 28 2 34 -19 43 -14 5 -64 7 -112 6 -48 -2 -126 -1 -175 3 -48 3 -92 11 -99
18 -9 9 -8 16 3 29 8 10 20 30 26 45 10 21 9 29 -5 42 -16 14 -22 13 -69 -14
-28 -16 -58 -38 -65 -47 -7 -10 -70 -46 -139 -81 -69 -34 -129 -62 -132 -62
-4 0 -41 -16 -84 -36 -43 -20 -97 -45 -120 -56 -24 -11 -81 -27 -128 -37 -46
-9 -87 -20 -90 -23 -3 -3 -19 -1 -36 5 -22 9 -29 18 -29 39 0 15 4 28 10 28 5
0 13 18 16 39 5 33 12 43 43 57 20 9 42 25 49 35 7 10 28 26 46 34 18 9 43 25
54 35 12 11 25 20 30 20 4 0 37 29 72 64 36 36 70 69 75 75 6 5 42 40 80 77
39 37 73 68 77 68 3 1 9 4 13 8 4 4 13 4 20 2 7 -3 51 1 97 9 46 7 98 14 117
15 18 1 39 6 45 11 8 7 16 7 22 1 6 -6 24 -4 49 5 22 7 50 11 63 8 12 -3 29 0
37 7 8 6 19 9 24 6 5 -4 28 0 50 7 28 10 43 11 50 4 8 -8 11 -8 11 0 0 6 10
14 23 18 l22 8 -24 4 c-13 3 -26 1 -30 -4 -3 -4 -40 -9 -81 -10 -41 -1 -90 -2
-107 -2 -18 0 -33 -4 -33 -8 0 -4 -26 -9 -58 -10 -31 -1 -103 -2 -160 -3 -57
-1 -105 0 -108 2 -2 3 5 16 16 29 10 13 27 32 37 42 12 13 14 20 6 28 -7 7
-23 9 -38 5 -14 -4 -35 -21 -45 -39 -11 -18 -42 -47 -69 -65 -44 -31 -57 -34
-137 -38 -49 -2 -130 -6 -180 -8 -50 -2 -98 0 -105 5 -11 6 -11 9 -1 9 7 0 17
11 24 24 6 14 23 30 38 36 15 6 67 50 117 98 49 48 122 124 161 168 40 45 72
85 72 89 0 4 9 17 20 29 11 12 37 38 57 60 20 21 42 49 49 61 6 13 9 35 7 49
-3 14 -10 26 -17 25 -6 0 -33 -13 -61 -28z m-215 -762 c-57 -55 -130 -120
-162 -145 -32 -24 -62 -44 -67 -44 -5 0 -13 -6 -20 -13 -6 -8 -36 -26 -67 -42
-39 -20 -60 -38 -69 -59 -8 -17 -16 -39 -19 -48 -3 -10 -38 -33 -78 -52 -40
-19 -99 -45 -131 -57 -42 -16 -68 -20 -98 -15 -23 4 -57 13 -76 21 -33 14 -35
17 -21 33 8 9 21 33 29 52 7 19 13 38 11 43 -1 4 7 7 17 7 12 0 23 11 29 29 6
16 18 39 29 52 10 13 42 47 72 76 30 29 58 53 63 53 4 0 16 7 26 15 9 9 42 38
72 66 30 28 77 61 103 75 26 14 52 22 56 19 5 -3 44 2 88 9 43 8 127 17 187
20 60 3 111 8 114 11 3 3 8 2 11 -1 3 -3 -41 -50 -99 -105z m398 -305 c1 -11
-16 -38 -43 -67 -25 -26 -45 -52 -45 -57 0 -5 -19 -19 -42 -30 -23 -11 -54
-20 -70 -20 -16 0 -28 5 -28 13 0 6 14 26 31 42 17 17 48 47 70 69 21 21 39
44 39 52 0 7 14 14 33 17 17 2 37 3 42 2 6 -1 11 -10 13 -21z"/>
<path d="M3180 2780 c-19 -10 -64 -55 -100 -102 -36 -45 -148 -165 -250 -265
-102 -101 -192 -190 -201 -198 -8 -8 -67 -48 -130 -89 -63 -41 -120 -80 -128
-87 -8 -7 -45 -13 -83 -15 -38 -1 -75 -7 -81 -14 -9 -9 -6 -16 12 -31 13 -10
31 -19 40 -19 10 0 26 8 37 18 10 10 42 29 69 43 28 13 52 26 55 29 3 3 11 5
18 6 6 1 19 2 27 3 8 0 15 8 15 16 0 8 9 15 19 15 11 0 23 5 26 10 3 6 16 10
27 10 11 0 36 16 55 36 19 20 37 34 40 31 3 -4 0 -20 -7 -37 -7 -16 -16 -30
-20 -30 -5 0 -11 -13 -15 -29 -3 -15 -15 -38 -25 -49 -11 -11 -34 -51 -51 -89
-18 -37 -48 -95 -68 -128 -19 -33 -38 -61 -43 -63 -4 -2 -8 -12 -8 -22 0 -10
9 -20 20 -23 10 -3 41 6 67 20 26 14 59 35 73 48 14 12 51 33 82 45 32 13 60
22 62 19 2 -2 5 -15 7 -29 1 -14 -5 -42 -14 -64 -9 -21 -17 -42 -17 -47 0 -5
12 -12 26 -15 14 -4 37 -1 50 5 14 6 39 11 57 11 18 0 59 14 92 30 33 16 66
30 73 30 7 0 41 15 75 33 34 18 79 34 100 35 36 3 37 2 37 -34 0 -30 -7 -44
-40 -74 -22 -20 -40 -40 -40 -44 0 -4 14 -5 31 -2 16 2 41 11 54 20 13 9 35
27 48 40 13 13 46 35 73 49 27 13 66 27 87 31 36 7 38 6 32 -13 -4 -13 3 -28
22 -48 16 -16 49 -35 73 -41 25 -7 70 -12 100 -13 30 0 88 0 129 0 40 1 80 6
87 12 7 6 22 8 33 4 12 -3 39 4 70 20 28 15 58 28 68 30 10 2 20 4 23 4 3 1
-2 5 -9 10 -9 6 -22 6 -34 0 -10 -6 -57 -13 -105 -16 -48 -3 -100 -5 -117 -5
-16 -1 -58 2 -93 5 -36 3 -83 15 -110 29 -40 20 -48 28 -52 58 -5 35 -5 35
-55 34 -32 0 -69 -9 -103 -26 -39 -19 -56 -23 -63 -14 -5 6 -16 20 -23 30 -11
16 -26 20 -68 20 -39 1 -69 -6 -109 -25 -30 -15 -78 -37 -106 -50 -29 -12 -53
-26 -53 -30 0 -4 -30 -14 -67 -23 -38 -8 -71 -12 -76 -7 -4 4 -4 32 1 63 5 33
5 63 -1 76 -6 13 -21 25 -34 28 -15 4 -48 -4 -89 -21 -43 -18 -69 -24 -75 -18
-7 7 2 35 25 83 20 40 40 78 46 85 6 7 33 50 60 95 28 46 50 85 50 87 0 2 10
17 22 33 12 17 26 30 31 30 5 0 45 37 88 83 43 45 79 86 79 91 0 5 41 49 91
98 49 48 94 88 99 88 4 0 10 10 14 23 3 13 15 34 26 47 11 13 20 27 20 32 0 5
-8 12 -17 15 -10 4 -20 10 -23 14 -3 4 -21 -1 -40 -11z"/>
<path d="M12379 2722 c-10 -1 -20 -13 -23 -25 -3 -13 0 -25 9 -30 8 -4 15 -14
15 -22 0 -8 -17 -40 -37 -70 -21 -30 -41 -55 -45 -55 -4 0 -8 -5 -8 -11 0 -6
-10 -23 -22 -36 -13 -14 -41 -43 -63 -65 -22 -22 -39 -44 -37 -49 1 -6 -2 -7
-8 -4 -7 4 -21 -2 -33 -12 -12 -11 -30 -23 -39 -26 -10 -4 -18 -12 -18 -18 0
-7 9 -9 28 -4 15 4 33 8 40 8 6 0 12 6 12 14 0 9 8 11 25 7 21 -5 25 -3 26 17
0 13 3 19 5 13 3 -6 43 27 89 73 47 47 85 92 85 100 0 8 9 26 20 40 11 14 20
32 20 39 0 8 3 14 8 14 4 0 13 14 21 31 11 26 11 32 -4 49 -9 10 -24 20 -33
22 -9 2 -24 2 -33 0z"/>
<path d="M12283 2682 c-12 -2 -28 -13 -36 -26 -15 -22 -14 -23 11 -18 15 2 32
10 37 17 6 7 19 14 30 17 20 4 20 4 0 9 -11 2 -30 3 -42 1z"/>
<path d="M10348 2603 c-10 -2 -18 -7 -18 -10 0 -3 9 -16 20 -30 11 -14 20 -32
20 -39 0 -8 -6 -14 -12 -14 -7 0 -32 -8 -55 -17 -24 -10 -41 -22 -40 -28 2 -5
19 -11 37 -12 19 -1 52 8 74 19 23 11 49 27 59 36 9 8 17 23 17 32 0 10 -9 29
-21 44 -12 15 -30 26 -42 25 -12 -1 -30 -3 -39 -6z"/>
<path d="M12166 2595 c-11 -8 -16 -15 -11 -15 4 0 -13 -21 -39 -47 -41 -40
-45 -48 -33 -60 13 -13 15 -11 21 12 4 15 9 25 12 22 4 -3 19 9 35 26 16 18
35 40 44 50 8 9 15 19 15 22 0 3 -6 5 -12 5 -7 0 -22 -7 -32 -15z"/>
<path d="M10223 2548 c-18 -13 -33 -27 -33 -32 0 -4 11 -5 25 -2 13 3 36 11
50 16 14 5 25 16 25 25 0 8 -8 15 -18 15 -9 0 -32 -10 -49 -22z"/>
<path d="M8795 2530 c-3 -5 -2 -10 4 -10 5 0 13 5 16 10 3 6 2 10 -4 10 -5 0
-13 -4 -16 -10z"/>
<path d="M8657 2508 c-7 -4 1 -8 18 -8 17 0 37 5 45 10 11 7 6 9 -18 7 -19 -1
-39 -5 -45 -9z"/>
<path d="M10122 2494 c-13 -9 -44 -13 -88 -12 -38 1 -100 -2 -139 -6 -38 -4
-85 -8 -103 -9 -18 -1 -37 -8 -41 -16 -6 -9 -11 -10 -15 -2 -4 6 -15 11 -25
11 -9 0 -26 -8 -37 -17 -10 -10 -25 -18 -31 -19 -7 -1 -17 -2 -23 -2 -5 -1
-10 -9 -10 -18 0 -12 7 -15 28 -11 15 3 43 10 62 16 19 5 53 14 75 20 22 5 85
11 141 12 56 1 107 -2 114 -6 8 -5 4 -15 -14 -34 -13 -14 -39 -53 -56 -85 -17
-33 -40 -66 -50 -73 -11 -8 -20 -23 -20 -34 0 -11 -7 -22 -15 -25 -8 -4 -15
-14 -15 -23 0 -9 -5 -22 -12 -29 -7 -7 -9 -12 -4 -12 4 0 23 12 43 27 20 15
43 43 51 63 8 19 28 53 46 75 17 22 34 42 38 43 5 2 8 10 8 18 0 8 6 14 14 14
8 0 17 9 21 19 3 11 13 22 21 25 8 3 13 9 11 13 -3 5 20 9 52 11 39 2 60 8 69
20 11 14 10 18 -5 21 -10 2 -22 9 -28 16 -5 7 -17 15 -26 18 -9 3 -26 -1 -37
-9z"/>
<path d="M8496 2483 c-6 -14 -5 -15 5 -6 7 7 10 15 7 18 -3 3 -9 -2 -12 -12z"/>
<path d="M8520 2491 c0 -5 11 -8 25 -8 14 0 24 1 22 4 -2 2 -14 5 -26 8 -11 2
-21 0 -21 -4z"/>
<path d="M8322 2473 c-6 -2 -10 -8 -8 -12 3 -4 19 -6 36 -3 16 2 30 8 30 13 0
5 -10 9 -22 8 -13 0 -29 -3 -36 -6z"/>
<path d="M8123 2462 c-17 -2 -34 -10 -37 -19 -6 -13 0 -15 36 -8 24 4 54 9 68
10 14 1 45 3 69 4 24 0 41 4 38 8 -4 3 -38 7 -75 7 -37 1 -81 0 -99 -2z"/>
<path d="M12036 2445 c-9 -14 -14 -25 -11 -25 3 0 14 9 25 20 10 10 15 22 11
25 -5 2 -16 -6 -25 -20z"/>
<path d="M11992 2394 c-7 -8 -9 -14 -5 -14 4 0 3 -4 -2 -8 -6 -4 -21 -20 -33
-36 -12 -16 -22 -33 -22 -37 0 -5 9 -9 20 -9 11 0 21 6 21 13 1 6 1 15 0 20 0
4 4 7 9 7 6 0 10 6 10 14 0 8 7 16 15 20 8 3 15 12 15 20 0 8 -3 17 -7 19 -5
3 -14 -1 -21 -9z"/>
<path d="M9517 2352 c-8 -9 -29 -46 -45 -82 -16 -36 -35 -80 -42 -97 -7 -18
-9 -44 -6 -58 4 -14 11 -25 16 -25 6 0 10 -11 10 -25 0 -18 7 -28 26 -35 15
-6 45 -7 72 -2 25 4 47 12 49 18 2 6 -6 11 -19 10 -13 -1 -36 2 -51 7 -15 5
-26 12 -23 14 3 3 1 15 -4 28 -5 14 -5 51 2 92 6 37 17 75 25 84 8 9 22 32 31
51 18 33 17 34 -4 36 -12 1 -28 -6 -37 -16z"/>
<path d="M10849 2272 c-14 -9 -35 -26 -46 -37 -12 -11 -35 -32 -52 -47 -17
-16 -38 -28 -47 -28 -9 0 -28 -6 -42 -14 -15 -8 -41 -20 -59 -26 -17 -7 -40
-22 -50 -33 l-18 -22 24 20 c13 11 25 19 27 18 2 -2 13 -3 25 -3 11 0 18 3 16
8 -3 4 8 8 24 9 23 2 29 -2 29 -18 0 -10 -5 -29 -12 -42 -6 -12 -14 -29 -18
-37 -4 -8 -31 -24 -61 -35 -30 -11 -61 -24 -70 -30 -9 -5 -20 -18 -26 -29 -7
-13 -7 -28 1 -48 9 -25 8 -31 -17 -52 -15 -13 -27 -28 -27 -34 0 -7 10 -5 28
3 15 8 42 28 60 45 29 26 38 29 64 22 17 -4 36 -15 41 -23 7 -11 6 -26 -4 -47
-8 -18 -17 -32 -21 -32 -3 0 -25 -18 -47 -39 -23 -22 -41 -45 -41 -51 0 -6 7
-24 15 -41 13 -24 20 -28 43 -24 15 4 46 11 70 17 23 6 42 16 42 23 0 10 -9
11 -37 4 -30 -7 -40 -5 -50 7 -9 13 -9 21 0 35 6 10 17 19 24 19 7 0 13 3 13
8 0 4 16 24 35 45 19 21 37 51 40 68 3 16 1 38 -4 48 -8 14 -6 22 7 33 9 8 25
18 35 21 9 4 17 11 17 17 0 6 11 15 24 19 13 5 26 19 29 30 3 12 1 21 -4 21
-5 0 -16 -11 -25 -25 -9 -14 -22 -25 -29 -25 -7 0 -24 -11 -40 -25 -26 -25
-28 -25 -52 -10 -13 9 -27 23 -30 31 -3 8 7 32 22 54 15 22 31 40 35 40 4 0
28 20 54 45 36 34 54 44 72 41 13 -3 29 -8 35 -11 6 -4 8 -23 5 -46 -5 -34 -3
-39 14 -39 13 0 25 14 39 46 13 28 18 56 15 70 -3 13 -14 24 -23 24 -9 0 -24
7 -34 14 -15 12 -16 18 -8 35 6 11 11 27 11 35 0 9 -3 16 -7 16 -5 0 -19 -8
-34 -18z"/>
<path d="M6395 2260 c-3 -5 1 -10 10 -10 9 0 13 5 10 10 -3 6 -8 10 -10 10 -2
0 -7 -4 -10 -10z"/>
<path d="M12040 2261 c0 -7 -5 -9 -10 -6 -6 3 -13 -1 -16 -9 -3 -8 -15 -18
-25 -21 -16 -5 -18 -10 -9 -20 10 -12 15 -11 32 5 12 11 25 17 30 14 4 -3 11
2 14 11 4 9 2 21 -5 28 -8 8 -11 8 -11 -2z"/>
<path d="M11871 2224 c-19 -14 -22 -23 -17 -53 3 -20 2 -31 -2 -25 -4 7 -20
-5 -42 -32 -19 -23 -51 -51 -70 -61 -23 -13 -35 -26 -35 -41 0 -11 -11 -32
-23 -45 -18 -19 -19 -26 -9 -36 10 -11 9 -13 -2 -9 -8 2 -26 -9 -40 -25 -14
-16 -39 -42 -55 -57 -16 -16 -37 -31 -47 -33 -15 -4 -17 0 -13 22 4 17 0 32
-9 39 -10 8 -38 11 -78 9 l-64 -3 2 -45 c0 -24 4 -54 8 -66 4 -14 15 -23 27
-23 11 0 29 -5 40 -11 14 -8 23 -8 31 0 6 6 19 11 29 11 10 0 18 4 18 9 0 5
16 15 35 21 19 6 35 16 35 21 0 5 8 9 18 9 10 0 31 18 48 39 16 22 39 45 52
52 12 7 22 16 22 20 0 4 11 20 25 35 14 15 25 35 25 46 0 10 7 21 15 24 8 4
15 12 15 20 0 8 7 14 16 14 11 0 14 5 10 17 -5 11 3 26 24 44 16 15 30 31 30
34 0 3 -4 3 -10 0 -6 -3 -7 1 -4 9 3 9 11 16 16 16 6 0 4 8 -3 17 -8 9 -9 14
-3 10 8 -4 11 2 10 18 0 14 -1 25 -1 25 0 0 -11 -7 -24 -16z m-424 -394 c14 0
19 -7 19 -25 0 -19 -5 -25 -21 -25 -12 0 -29 8 -37 18 -8 9 -15 25 -15 34 0
13 4 15 18 7 10 -5 26 -9 36 -9z"/>
<path d="M11951 2183 c-6 -10 -11 -14 -11 -10 0 4 -9 3 -20 -3 -11 -6 -18 -15
-14 -21 4 -7 10 -6 18 0 7 6 15 9 18 6 3 -3 10 6 16 20 6 14 10 25 7 25 -2 0
-9 -8 -14 -17z"/>
<path d="M2136 2130 c-19 -12 -45 -52 -80 -122 -28 -57 -66 -125 -83 -151 -18
-26 -33 -51 -33 -55 0 -4 -16 -16 -35 -26 -29 -16 -40 -17 -60 -8 -14 6 -25
16 -25 21 0 6 14 26 30 44 17 19 30 38 30 41 0 4 14 20 30 36 17 16 30 34 30
39 0 5 9 13 20 16 11 3 27 13 35 21 8 9 15 19 15 23 0 5 -11 6 -24 4 -13 -3
-60 -39 -103 -81 -44 -43 -93 -88 -109 -101 -16 -13 -37 -35 -46 -49 -15 -23
-15 -29 -2 -53 10 -20 27 -32 55 -39 22 -6 50 -8 62 -4 12 3 53 27 90 51 45
30 75 59 90 85 12 22 28 52 36 67 8 14 19 29 25 33 6 4 8 8 3 8 -4 0 5 24 21
52 16 32 35 54 47 56 11 2 28 11 38 20 9 8 17 22 17 31 0 9 -7 27 -16 39 -8
12 -18 22 -22 21 -4 0 -20 -9 -36 -19z"/>
<path d="M9804 2072 c-6 -4 -15 -18 -19 -31 -5 -16 -4 -21 4 -17 6 4 11 13 11
21 0 8 8 12 23 9 12 -2 16 -2 9 2 -6 3 -10 10 -6 15 3 5 2 9 -3 9 -4 0 -13 -4
-19 -8z"/>
<path d="M10474 2042 c-10 -10 -22 -18 -26 -18 -4 1 -21 -10 -38 -24 -18 -14
-53 -44 -78 -68 -26 -23 -62 -57 -80 -75 -18 -18 -37 -50 -43 -74 -6 -23 -17
-48 -25 -54 -8 -6 -14 -29 -14 -51 0 -26 5 -41 16 -45 9 -3 19 -1 23 5 3 6 18
13 33 17 18 5 26 13 25 26 -1 10 -7 21 -14 23 -7 3 -13 14 -13 24 0 10 8 34
17 53 9 19 28 45 42 58 14 14 24 26 21 28 -3 2 4 17 15 33 11 17 25 30 30 30
6 0 26 18 45 40 19 22 40 40 46 40 6 0 19 9 29 20 10 11 22 17 26 14 5 -3 9 0
9 5 0 6 -6 11 -13 11 -7 0 -22 -8 -33 -18z"/>
<path d="M5735 2029 c-22 -11 -52 -35 -67 -52 -15 -18 -28 -38 -28 -46 0 -8
-3 -12 -6 -8 -4 3 -26 -17 -50 -45 -24 -29 -44 -55 -44 -59 0 -5 -21 -28 -47
-53 l-48 -46 67 0 c37 0 70 4 73 10 3 5 30 17 60 26 30 8 57 20 60 25 4 5 17
9 30 9 19 0 28 -9 39 -34 11 -26 21 -35 47 -39 19 -3 63 -4 99 -2 36 2 77 10
92 18 15 8 25 17 21 21 -4 4 -1 4 8 1 8 -3 25 3 37 13 12 11 22 22 22 25 0 3
-6 4 -12 3 -7 -1 -31 -10 -52 -19 -21 -10 -62 -20 -90 -23 -44 -5 -54 -3 -70
15 -19 21 -19 22 0 57 10 20 25 38 32 41 6 3 12 14 12 24 0 12 -9 21 -27 25
-16 3 -34 7 -40 10 -7 2 -13 15 -13 29 0 17 -4 24 -11 19 -7 -4 -9 0 -5 13 4
12 -1 28 -13 41 -10 12 -22 22 -27 22 -5 0 -27 -9 -49 -21z m32 -57 c7 -5 16
-29 19 -54 6 -40 4 -47 -17 -62 -13 -9 -57 -30 -97 -47 -50 -20 -78 -27 -84
-21 -7 7 -3 20 11 40 11 17 21 34 21 39 1 4 19 20 40 35 22 15 40 35 40 43 0
9 10 20 23 25 12 5 24 9 27 9 3 0 11 -3 17 -7z"/>
<path d="M9746 1995 c-10 -20 -21 -33 -26 -30 -5 3 -15 -2 -23 -10 -9 -8 -23
-15 -31 -15 -9 0 -16 -5 -16 -10 0 -6 -11 -16 -25 -22 -14 -6 -28 -22 -31 -34
-3 -13 -13 -25 -22 -28 -10 -2 -31 -7 -48 -11 -17 -3 -45 -20 -62 -36 -17 -17
-38 -43 -45 -59 -8 -15 -12 -32 -8 -38 3 -5 17 -13 31 -18 14 -4 32 -7 40 -5
7 2 33 16 56 32 34 23 47 27 67 20 13 -5 32 -9 43 -8 10 1 22 6 25 11 4 5 18
9 33 9 14 0 26 3 26 8 0 5 4 8 9 7 6 -2 34 16 64 40 47 37 56 49 61 86 4 26 2
54 -5 70 -7 14 -20 26 -30 26 -9 0 -24 3 -33 6 -9 3 -14 10 -11 14 3 4 -1 13
-9 19 -11 9 -17 4 -30 -24z m38 -95 c8 -5 12 -20 11 -33 -1 -12 -3 -25 -4 -29
0 -4 -16 -21 -33 -37 -18 -17 -45 -33 -61 -37 -15 -3 -43 -7 -62 -8 -19 -2
-35 0 -35 3 0 4 13 22 30 41 16 19 29 41 30 48 0 7 12 17 26 22 14 6 28 19 31
30 4 15 12 19 30 15 14 -2 30 -9 37 -15z"/>
<path d="M11448 1973 c7 -3 16 -2 19 1 4 3 -2 6 -13 5 -11 0 -14 -3 -6 -6z"/>
<path d="M6180 1845 c-19 -14 -39 -25 -46 -25 -7 0 -16 -5 -19 -11 -4 -5 10
-3 31 6 21 9 41 19 44 24 3 4 14 13 25 19 11 6 15 12 9 12 -5 0 -25 -11 -44
-25z"/>
<path d="M1666 1821 c-3 -4 -3 -11 1 -15 3 -3 10 -6 15 -6 4 0 8 7 8 15 0 8
-4 15 -9 15 -6 0 -12 -4 -15 -9z"/>
<path d="M11762 1808 c-5 -7 -13 -23 -16 -35 -4 -13 -12 -23 -17 -23 -5 0 -14
-11 -19 -25 -5 -14 -14 -25 -20 -25 -5 0 -10 -9 -10 -20 0 -15 6 -19 25 -18
14 1 25 6 25 10 0 5 11 18 25 30 13 11 22 26 18 31 -3 6 -1 7 5 4 5 -4 17 -4
25 -1 9 3 18 12 21 19 2 7 -6 25 -19 39 -13 14 -26 26 -28 26 -3 0 -9 -6 -15
-12z"/>
<path d="M10032 1720 c-21 -13 -32 -27 -30 -38 2 -12 15 -18 44 -20 29 -2 48
3 67 18 15 12 25 26 21 31 -3 5 -11 9 -17 8 -7 -1 -18 -1 -25 0 -7 0 -10 6 -7
11 3 6 0 10 -7 10 -7 0 -28 -9 -46 -20z"/>
<path d="M10354 1725 c-16 -12 -16 -14 -3 -15 9 0 22 7 29 15 7 8 8 15 3 15
-5 0 -18 -7 -29 -15z"/>
<path d="M10835 1720 c-3 -5 1 -10 9 -10 9 0 16 5 16 10 0 6 -4 10 -9 10 -6 0
-13 -4 -16 -10z"/>
<path d="M10800 1700 c0 -5 5 -10 10 -10 6 0 10 5 10 10 0 6 -4 10 -10 10 -5
0 -10 -4 -10 -10z"/>
<path d="M10760 1680 c0 -5 4 -10 9 -10 6 0 13 5 16 10 3 6 -1 10 -9 10 -9 0
-16 -4 -16 -10z"/>
<path d="M11011 1634 c0 -11 3 -14 6 -6 3 7 2 16 -1 19 -3 4 -6 -2 -5 -13z"/>
<path d="M10956 1609 c4 -7 1 -10 -7 -7 -8 3 -19 -1 -26 -8 -7 -7 -13 -15 -13
-17 0 -3 10 -3 23 1 12 3 26 11 30 19 5 7 12 11 17 8 5 -3 11 -1 15 5 4 6 -5
10 -20 10 -17 0 -24 -4 -19 -11z"/>
<path d="M8885 1493 c-4 -10 -7 -30 -6 -45 2 -16 -3 -28 -9 -28 -6 0 -10 -8
-8 -17 1 -10 -1 -24 -5 -30 -5 -7 -4 -13 1 -13 5 0 17 9 27 20 10 11 21 39 25
63 3 24 4 49 2 55 -2 7 -7 12 -12 12 -4 0 -11 -8 -15 -17z"/>
<path d="M8821 1316 c-8 -13 -10 -29 -7 -35 4 -7 1 -9 -8 -5 -10 4 -18 -1 -23
-12 -3 -11 -15 -31 -25 -46 -18 -26 -18 -26 2 -21 11 3 20 9 20 14 0 4 11 20
25 35 13 14 23 30 20 34 -3 4 2 13 10 20 8 7 15 19 15 26 0 8 -4 14 -8 14 -5
0 -14 -11 -21 -24z"/>
<path d="M8730 1172 c0 -7 -6 -12 -13 -12 -7 0 -18 -9 -25 -21 -12 -18 -11
-19 6 -10 10 5 25 17 32 26 7 8 10 18 6 22 -3 3 -6 1 -6 -5z"/>
<path d="M8622 1070 c-7 -11 -17 -19 -23 -17 -6 1 -14 -4 -17 -12 -3 -10 4 -9
27 5 17 10 31 24 31 31 0 7 -1 13 -3 13 -1 0 -8 -9 -15 -20z"/>
<path d="M10356 1075 c-17 -9 -47 -34 -68 -55 -20 -22 -41 -40 -45 -40 -5 0
-16 -12 -25 -27 -9 -16 -35 -48 -57 -72 -23 -24 -41 -50 -41 -57 0 -7 5 -16
10 -19 6 -3 11 0 11 7 1 7 1 16 0 21 0 4 4 7 9 7 6 0 10 6 10 13 0 7 15 19 34
25 23 9 36 20 38 35 2 13 13 24 28 27 14 4 24 12 22 19 -1 7 2 10 7 7 5 -4 12
-2 16 4 3 5 13 10 22 10 9 0 29 13 44 30 16 16 29 37 29 45 0 8 5 15 10 15 6
0 10 5 10 10 0 6 -8 10 -17 10 -10 0 -31 -7 -47 -15z"/>
<path d="M11748 1072 c-16 -9 -28 -22 -28 -29 0 -7 -4 -13 -10 -13 -5 0 -10
-6 -10 -13 0 -8 -12 -24 -26 -38 -14 -13 -34 -42 -45 -63 -10 -22 -19 -49 -19
-59 0 -20 0 -20 21 -1 11 10 30 38 41 62 11 25 28 46 38 49 11 3 35 26 55 51
19 25 34 50 32 56 -2 5 -7 11 -13 13 -5 1 -21 -5 -36 -15z"/>
<path d="M5915 1022 c-3 -3 -49 -6 -102 -8 -54 -1 -114 -2 -133 -2 -19 0 -48
0 -65 0 -16 0 -98 -2 -182 -4 -134 -3 -154 -5 -174 -23 -12 -11 -19 -15 -16
-8 4 6 4 14 -1 17 -5 3 -26 6 -48 7 -21 1 -106 -2 -189 -5 -82 -4 -159 -10
-170 -13 -11 -3 -92 -6 -181 -5 -88 0 -205 -4 -260 -9 -54 -5 -157 -12 -228
-14 -89 -4 -132 -9 -138 -17 -6 -10 -8 -10 -8 0 0 8 -7 11 -18 8 -9 -3 -58 -8
-107 -11 -50 -3 -133 -7 -185 -10 -52 -3 -135 -9 -185 -15 -49 -5 -144 -12
-210 -16 -66 -4 -136 -9 -155 -10 -19 -2 -62 -6 -95 -10 -33 -3 -94 -7 -135
-9 -41 -2 -113 -6 -160 -10 -47 -3 -101 -8 -120 -11 -19 -2 -105 -7 -190 -10
-85 -4 -162 -10 -171 -14 -8 -5 -22 -4 -30 1 -8 5 -94 9 -194 8 -99 -1 -186
-4 -192 -7 -7 -2 -13 -10 -13 -18 0 -8 3 -15 8 -15 4 -1 52 -4 107 -6 55 -2
197 -5 315 -7 150 -2 224 0 245 8 17 7 71 12 125 11 52 -1 102 1 110 5 8 4 65
11 125 14 61 3 139 11 175 17 36 5 128 12 205 15 77 3 160 7 185 10 25 2 74 7
110 10 36 2 76 8 90 11 14 4 59 8 100 9 41 1 122 5 180 8 58 3 137 7 175 10
39 3 104 7 145 10 41 3 138 8 215 12 77 4 185 8 240 10 55 1 170 5 255 8 85 4
211 9 280 11 69 3 172 8 230 12 58 4 150 7 205 7 60 0 103 4 107 10 5 7 8 6 8
-2 0 -11 19 -12 93 -7 50 3 220 6 377 5 157 0 395 -2 530 -4 135 -3 295 -7
355 -11 61 -4 151 -8 200 -10 50 -2 135 -6 190 -9 55 -3 120 -10 145 -16 25
-5 74 -12 110 -15 36 -3 85 -5 110 -6 25 0 61 -5 80 -9 19 -5 72 -11 118 -13
45 -3 82 -2 82 2 0 3 -4 11 -8 18 -4 7 -26 16 -49 21 -23 5 -44 7 -47 5 -2 -3
-20 0 -38 6 -18 6 -69 14 -113 18 -44 4 -113 7 -152 6 -41 -1 -71 3 -67 8 3 5
-10 10 -28 11 -18 1 -62 3 -98 4 -36 1 -67 3 -70 4 -3 2 -47 3 -97 4 -54 1
-98 7 -104 13 -8 8 -19 9 -37 2 -13 -5 -27 -7 -30 -4 -3 2 -12 -1 -20 -8 -13
-9 -14 -9 -8 1 5 8 0 12 -16 13 -13 1 -47 3 -77 5 -31 2 -60 -1 -68 -7 -9 -8
-13 -8 -13 -1 0 6 -37 11 -97 12 -54 0 -129 1 -168 0 -38 0 -77 0 -85 0 -8 0
-98 2 -200 5 -102 2 -193 1 -203 -1 -9 -3 -15 -10 -11 -15 3 -5 -11 -1 -32 8
-28 14 -38 15 -41 5 -3 -6 -9 -10 -13 -7 -5 3 -44 7 -86 9 -70 4 -77 3 -82
-16 -3 -12 -7 -15 -11 -9 -4 6 -28 15 -54 20 -25 4 -49 6 -52 3z"/>
<path d="M8430 940 c-8 -5 -12 -12 -9 -15 4 -3 12 1 19 10 7 8 11 15 9 15 -2
0 -11 -4 -19 -10z"/>
<path d="M9886 935 c-8 -8 -19 -15 -24 -15 -5 0 -26 -15 -46 -33 -26 -23 -35
-37 -31 -50 4 -9 11 -17 16 -17 5 0 15 11 21 25 6 13 19 27 29 30 11 4 23 4
28 0 6 -3 9 -32 9 -63 -1 -36 5 -71 15 -92 10 -18 15 -41 12 -51 -5 -16 -2
-17 30 -8 19 6 40 7 45 4 6 -4 50 -8 98 -10 58 -2 101 1 131 11 24 8 46 13 48
10 3 -3 -4 -18 -16 -34 -11 -16 -25 -41 -31 -56 -5 -14 -6 -26 -2 -27 4 0 105
-2 225 -3 120 -1 223 2 229 5 6 4 3 9 -8 12 -11 3 -34 5 -53 5 -19 1 -38 7
-42 14 -7 11 -9 10 -9 -1 0 -10 -3 -11 -13 -2 -8 6 -58 14 -113 17 -54 4 -109
11 -121 15 -22 8 -22 9 12 46 19 21 33 43 31 48 -2 6 10 21 25 35 16 13 29 32
29 42 0 10 -7 18 -15 18 -8 0 -29 -13 -47 -29 -18 -15 -49 -36 -68 -46 -19
-10 -48 -21 -65 -25 -16 -4 -39 -11 -49 -16 -13 -5 -17 -4 -13 3 4 6 1 11 -6
10 -6 0 -24 1 -38 1 -14 1 -33 8 -43 15 -16 12 -16 14 2 35 11 12 24 22 31 22
6 0 11 9 11 21 0 18 -6 16 -57 -21 -42 -30 -59 -37 -64 -28 -5 7 -12 13 -16
12 -4 0 -13 4 -18 9 -6 6 -8 36 -5 74 4 46 2 71 -8 84 -7 10 -19 19 -27 19 -7
0 -20 -7 -29 -15z"/>
<path d="M8204 899 c0 -12 12 -19 41 -24 22 -5 51 -10 65 -12 14 -2 36 -6 50
-10 14 -3 34 -7 45 -9 11 -2 43 -6 70 -9 28 -3 66 -8 85 -10 19 -3 51 -8 70
-11 19 -3 42 -8 50 -12 8 -3 26 -7 40 -7 14 -1 46 -5 73 -10 26 -4 47 -11 47
-15 0 -4 16 -6 35 -3 28 4 34 2 29 -11 -5 -12 1 -14 30 -9 29 4 36 2 36 -11 0
-12 10 -16 38 -18 20 -1 44 -2 53 -3 9 0 28 -9 44 -19 15 -10 38 -19 51 -20
13 0 24 -5 24 -10 0 -4 6 -6 14 -3 8 3 16 2 18 -2 2 -4 19 -11 38 -14 21 -4
30 -4 21 2 -11 7 -11 9 0 14 8 3 1 6 -14 6 -16 1 -26 5 -23 10 3 5 0 13 -7 19
-6 6 -39 19 -73 31 -33 11 -72 22 -87 25 -15 2 -32 8 -38 12 -7 4 -53 17 -103
29 -62 15 -99 19 -114 13 -13 -4 -28 -5 -34 -2 -7 4 -6 9 2 14 8 5 -6 12 -36
19 -27 7 -64 13 -81 13 -18 1 -33 5 -33 9 0 4 -18 7 -40 6 -22 -1 -40 -5 -40
-9 0 -4 -4 -8 -10 -8 -5 0 -10 7 -10 15 0 8 -6 16 -12 16 -7 1 -26 3 -43 5
-16 2 -46 5 -65 7 -20 2 -40 6 -45 9 -6 3 -35 5 -67 4 -31 0 -51 2 -45 7 7 4
-2 6 -18 5 -22 -1 -31 -7 -31 -19z"/>
<path d="M11560 825 c-7 -8 -10 -15 -7 -15 3 0 -6 -12 -20 -27 -14 -16 -29
-27 -34 -25 -5 1 -9 -5 -9 -13 0 -8 6 -15 14 -15 8 0 22 7 30 16 9 8 16 20 16
25 0 5 9 19 20 31 11 12 20 25 20 30 0 4 -4 8 -9 8 -5 0 -14 -7 -21 -15z"/>
<path d="M9738 796 c-15 -19 -39 -55 -53 -80 -14 -25 -26 -63 -27 -83 0 -21
-4 -43 -9 -48 -4 -6 -7 -21 -6 -33 1 -18 7 -22 33 -22 17 0 45 5 63 11 20 7
31 18 31 30 0 13 -7 19 -24 19 -16 0 -26 7 -31 23 -4 12 -6 33 -5 47 1 14 14
41 29 60 15 19 32 48 39 63 7 16 10 33 7 38 -4 5 -9 9 -13 9 -4 0 -19 -15 -34
-34z"/>
<path d="M11410 815 c-7 -8 -19 -15 -26 -15 -10 0 -13 -10 -10 -32 2 -17 -3
-43 -11 -57 -7 -14 -16 -43 -19 -63 -4 -20 -13 -39 -20 -42 -8 -3 -14 -11 -14
-17 0 -7 9 -9 25 -5 14 4 35 2 46 -5 11 -6 29 -19 40 -30 11 -11 24 -17 29
-14 5 3 11 1 15 -5 3 -5 23 -10 43 -10 20 0 44 4 52 10 9 6 17 5 22 -3 5 -9
10 -9 20 1 6 6 29 12 49 12 21 0 41 5 44 10 3 6 17 10 31 10 22 0 24 -3 18
-27 -4 -16 -23 -44 -41 -63 -19 -19 -41 -48 -49 -63 -9 -16 -14 -33 -12 -39 2
-6 13 -13 24 -14 10 -2 46 -8 79 -14 33 -6 70 -8 82 -5 14 3 23 13 23 24 0 13
-13 24 -40 35 -22 9 -47 16 -55 16 -7 0 -16 9 -20 19 -3 11 0 30 7 42 7 12 22
33 33 46 11 14 28 34 38 45 10 11 19 28 20 39 1 10 5 19 9 19 4 0 8 7 8 16 0
12 -6 15 -22 11 -13 -3 -64 -21 -115 -40 -51 -20 -106 -38 -123 -40 -16 -3
-32 -1 -36 4 -3 5 -13 9 -23 9 -10 0 -34 14 -54 31 -23 20 -37 40 -37 55 0 13
-4 24 -10 24 -5 0 -10 8 -10 18 0 11 9 30 20 43 12 13 20 34 18 48 -2 14 -10
27 -19 29 -9 2 -22 -4 -29 -13z"/>
<path d="M11340 765 c-7 -9 -11 -18 -8 -20 2 -3 13 1 23 9 11 8 14 15 8 19 -6
4 -16 0 -23 -8z"/>
<path d="M11242 697 c-38 -29 -49 -43 -40 -49 11 -6 11 -8 0 -8 -7 0 -32 -15
-55 -32 -23 -18 -44 -37 -46 -41 -1 -4 -18 -25 -37 -45 -19 -20 -41 -52 -50
-70 -9 -19 -14 -35 -12 -37 2 -2 23 1 47 6 25 6 56 22 73 39 27 27 28 30 9 30
-12 0 -21 6 -21 13 0 6 14 26 30 44 17 18 30 35 30 39 0 3 26 33 57 65 31 33
62 59 68 59 7 0 12 7 12 15 0 8 -3 15 -6 14 -3 0 -30 -19 -59 -42z"/>
<path d="M11457 713 c-4 -3 -7 -13 -7 -22 1 -13 3 -13 11 2 6 10 9 20 7 23 -3
2 -8 1 -11 -3z"/>
<path d="M11915 661 c-12 -5 -26 -15 -32 -22 -6 -8 -13 -37 -17 -66 -4 -36 -2
-54 7 -60 6 -4 27 -9 45 -10 26 -1 35 3 47 28 9 16 11 29 6 29 -5 0 -13 10
-16 21 -4 13 -2 25 5 29 6 4 10 18 8 31 -1 13 -10 25 -18 26 -8 1 -24 -2 -35
-6z"/>
<path d="M9316 642 c-4 -6 4 -20 16 -32 20 -18 24 -19 34 -6 9 14 13 13 33 -1
18 -12 20 -18 10 -24 -9 -5 -4 -13 21 -26 18 -10 41 -26 52 -35 10 -10 23 -18
28 -18 6 0 10 -4 10 -9 0 -5 6 -16 14 -23 7 -8 25 -39 40 -70 14 -31 24 -63
20 -71 -3 -9 -12 -18 -20 -21 -8 -3 -14 -12 -14 -19 0 -8 -11 -26 -25 -41 -21
-23 -22 -26 -6 -26 11 0 33 16 49 35 17 19 35 50 40 68 5 19 7 46 5 61 -3 14
-9 23 -14 20 -5 -3 -9 4 -9 15 0 12 -4 21 -10 21 -5 0 -7 6 -4 13 2 7 -5 26
-17 41 -15 19 -24 24 -29 16 -5 -8 -10 -2 -14 14 -3 14 -13 26 -22 26 -8 0
-25 11 -38 25 -13 14 -27 25 -32 25 -4 0 -17 9 -29 20 -11 11 -35 22 -52 26
-17 3 -33 1 -37 -4z"/>
<path d="M9825 600 c3 -5 8 -10 11 -10 2 0 4 5 4 10 0 6 -5 10 -11 10 -5 0 -7
-4 -4 -10z"/>
<path d="M9780 580 c0 -5 7 -7 15 -4 8 4 15 8 15 10 0 2 -7 4 -15 4 -8 0 -15
-4 -15 -10z"/>
<path d="M11286 571 c-5 -7 -17 -16 -29 -20 -15 -6 -17 -9 -6 -13 8 -3 23 0
33 7 10 8 16 19 14 26 -4 11 -6 11 -12 0z"/>
<path d="M11176 504 c-9 -8 -16 -18 -16 -21 0 -3 9 2 20 12 11 10 20 20 20 22
0 1 -2 3 -4 3 -3 0 -12 -7 -20 -16z"/>
<path d="M10860 499 c0 -5 5 -7 10 -4 6 3 10 8 10 11 0 2 -4 4 -10 4 -5 0 -10
-5 -10 -11z"/>
<path d="M10810 492 c0 -5 -14 -7 -32 -6 -18 1 -45 -4 -61 -13 -21 -10 -26
-18 -19 -25 8 -8 25 -6 59 6 26 9 54 18 61 19 7 2 18 9 24 15 9 9 7 12 -10 12
-12 0 -22 -4 -22 -8z"/>
<path d="M12213 310 c-3 -11 -13 -20 -22 -21 -11 0 -12 -2 -3 -6 7 -3 24 2 38
11 13 10 22 21 19 26 -4 6 -11 10 -17 10 -5 0 -12 -9 -15 -20z"/>
<path d="M12093 283 c-24 -13 -43 -29 -43 -35 0 -6 8 -7 18 -3 9 3 31 9 47 12
17 4 35 13 42 22 6 9 9 19 7 23 -3 5 -11 8 -17 7 -7 -1 -31 -12 -54 -26z"/>
</g>
</svg>
