<?xml version="1.0" encoding="UTF-8"?>
<svg version="1.1" xmlns="http://www.w3.org/2000/svg" width="393" height="118" >
<path fill="#231F20" d="M10.036,79.461c-0.256,5.085,2.031,11.474,8.304,9.333c5.21-1.778,7.954-5.768,10.888-10.19 c9.342-14.078,16.746-29.568,24.259-44.666c3.264-6.56,6.466-13.15,9.675-19.737c0.482-0.989,4.678-7.468,2.376-7.951 c-4.421-0.926-10.659,3.986-14.02,6.142c-4.611,2.957-11.764,7.023-13.752,12.47c-2.075,5.686,8.56,11.326,12.46,13.26 c0.541,0.268,2.321-0.525,1.544-0.91c-4.493-2.228-11.143-5.893-12.176-11.251c-1.024-5.312,11.383-11.968,14.791-14.103 c2.751-1.723,5.672-3.479,8.784-4.461c2.377-0.75,0.415,2.279-0.044,3.202c-2.276,4.583-4.487,9.199-6.735,13.795 c-7.013,14.339-14.132,28.65-21.959,42.566c-3.011,5.353-6.119,10.719-9.806,15.642c-1.7,2.271-3.29,3.83-5.909,5.062 c-5.62,2.644-6.933-4.85-6.752-8.457C12.002,78.443,10.067,78.848,10.036,79.461L10.036,79.461 M51.977,38.952c8.965,0.479,8.076,16.812,7.562,22.092c-0.689,7.084-3.286,13.96-7.365,19.772 c-1.643,2.341-3.721,4.44-6.107,6.018c-1.126,0.744-4.004,1.936-3.625-0.402c0.509-3.145,2.89-6.345,4.514-8.991 c2.684-4.374,5.626-8.591,8.59-12.777c3.897-5.502,7.911-10.931,12.032-16.269c-0.607-0.041-1.214-0.082-1.821-0.123 c-2.426,4.529-5.473,10.208-5.232,15.475c0.193,4.226,5.485,1.984,7.56,1.081c14.788-6.436,28.676-16.736,41.134-26.814 c5.885-4.762,11.68-9.877,16.253-15.947c1.435-1.904,6.909-10.315,2.415-11.516c-5.083-1.358-12.463,6.568-15.655,9.424 c-8.636,7.729-15.362,16.814-22.13,26.134C80.06,59.934,69.548,73.438,58.877,86.784c-0.708,0.885,0.904,0.975,1.408,0.574 c2.999-2.385,6.149-4.68,9.54-6.474c5.654-2.99,0.366,6.398,1.457,8.366c1.377,2.486,6.115-0.953,7.486-1.755 c1.2-0.702,7.325-3.699,7.594-5.062c-0.359,1.821-2.074,3.615-1.952,5.556c0.219,3.467,6.168-0.076,7.343-0.647 c0.895-0.435,11.445-5.729,10.942-2.574c-0.27,1.692-1.833,5.068-0.448,6.708c1.909,2.26,7.256-2.333,8.718-3.101 c4.145-2.179,8.459-4.075,12.771-5.897c1.233-0.521,0.121-1.344-0.806-0.952c-4.319,1.825-8.593,3.769-12.771,5.897 c-1.802,0.918-6.546,4.787-6.352,1.142c0.1-1.887,1.726-4.33,0.508-6.047c-1.747-2.462-9.417,1.978-10.88,2.667 c-1.62,0.764-3.223,1.566-4.838,2.34c-3.716,1.782-1.226-2.975-0.958-3.596c0.25-0.581,1.304-2.29,0.441-2.787 c-2.331-1.343-7.811,3.896-9.38,4.914c-0.38,0.247-5.701,3.821-5.602,1.669c0.045-0.976,0.443-1.991,0.716-2.918 c0.474-1.605,1.146-3.335,0.732-5.018c-1.101-4.477-14.152,5.785-15.498,6.855c0.469,0.191,0.939,0.383,1.408,0.574 c10.754-13.449,21.313-27.075,31.465-40.985c7.257-9.944,14.517-19.418,23.845-27.551c1.198-1.044,9.517-8.669,11.535-6.652 c1.87,1.868-2.064,7.638-3.207,9.299c-4.873,7.086-12.087,12.813-18.763,18.09c-7.354,5.814-15.104,11.142-23.046,16.118 c-5.452,3.417-11.26,7.303-17.438,9.29c-5.527,1.778,1.517-14.114,2.608-16.203c0.04-0.076,0.08-0.151,0.121-0.227 c0.515-0.96-1.444-0.611-1.821-0.123c-5.737,7.432-11.291,15.023-16.56,22.794c-1.34,1.978-13.184,17.439-6.506,18.039 c3.859,0.347,7.68-3.778,9.892-6.347c5.236-6.083,7.875-14.077,8.9-21.913c0.835-6.385,1.076-22.603-8.792-23.131 C51.862,37.671,50.666,38.882,51.977,38.952L51.977,38.952 M130.368,88.259c3.235,14.178,19.566-4.569,23.479-8.368c15.24-14.796,30.643-30.986,41.438-49.4 c-0.634,0.118-1.269,0.236-1.902,0.354c-3.297,8.892-6.684,17.752-10.138,26.584c-2.612,6.676-5.271,13.336-8.088,19.928 c-1.556,3.641-2.993,8.449-5.666,11.477c1.072-1.214,1.238,0.557,1.078-1.646c-0.156-2.147-0.813-4.274-1.441-6.32 c-1.446-4.718-3.618-9.263-6.119-13.506c-1.432-2.431-5.26-8.468-8.923-5.522c-1.556,1.251,0.807,2.446,1.847,2.817 c3.787,1.351,8.656,0.174,12.531,0.061c7.734-0.226,15.523,0.118,23.24,0.661c0.389,0.027,2.207-0.688,1.262-0.754 c-6.848-0.481-13.722-0.722-20.586-0.701c-4.804,0.015-10.831,1.441-15.355-0.173c-1.346-0.48-2.194-2.388-0.159-1.158 c1.568,0.948,2.655,2.871,3.639,4.364c2.463,3.738,4.304,7.922,5.887,12.093c1.254,3.303,1.374,6.782,2.396,10.05 c0.481,1.541,3-1.132,3.278-1.575c5.917-9.423,9.393-21.018,13.423-31.319c3.341-8.542,6.609-17.113,9.798-25.713 c0.13-0.352-1.676-0.034-1.902,0.354c-9.206,15.704-21.87,29.457-34.504,42.445c-4.914,5.051-9.962,9.986-15.225,14.674 c-1.508,1.344-3.044,2.665-4.666,3.871c-3.677,2.735-6.007-1.106-6.688-4.093C132.211,87.354,130.271,87.836,130.368,88.259 L130.368,88.259 M184.885,92.299c1-1,2-2,3-3c0.327-0.327-0.281-0.427-0.484-0.419c-0.446,0.017-0.962,0.165-1.286,0.488 c-1,1-2,2-3,3c-0.327,0.327,0.281,0.427,0.484,0.419C184.045,92.77,184.562,92.622,184.885,92.299L184.885,92.299 M263.141,55.944c7.804-7.931,12.972-20.771,2.97-28.98c-9.102-7.471-21.242-4.103-26.841,5.606 c-4.567,7.923-5.326,18.443-6.555,27.317c-1.18,8.53-2.018,17.989-8.055,24.655c-3.202,3.534-9.099,6.463-13.896,6.317 c-1.607-0.049-2.421-1.128-1.791-2.569c0.885-2.025,3.737-2.656,5.664-2.88c4.79-0.558,10.345,1.454,15.089,2.171 c2.419,0.366,7.786,0.282,9.057,2.841c0.374,0.755,2.218,0.058,1.77-0.845c-0.75-1.512-2.575-2.009-4.104-2.343 c-4.448-0.973-9.006-1.459-13.489-2.241c-5.183-0.904-12.484-2.405-15.829,3.087c-2.329,3.824,3.724,4.438,5.958,3.963 c7.684-1.632,13.955-6.093,17.317-13.22c3.756-7.964,3.964-17.587,5.292-26.15c1.551-9.992,3.524-24.744,14.992-28.032 c6.967-1.999,15.415,2.526,18.346,8.951c3.4,7.456-2.384,16.592-7.507,21.797C260.679,56.253,262.546,56.548,263.141,55.944 L263.141,55.944 M262.101,78.169c-3.051,1.419-5.915,3.409-8.225,5.854c-1.548,1.639-4.97,9.346-0.295,9.572 c3.496,0.169,6.23-2.802,8.177-5.344c1.438-1.879,2.165-3.785,2.64-6.086c0.17-0.825,0.308-3.452,1.651-3.406 c1.37,0.047,2.829,0.324,4.163,0.638c0.479,0.113,2.187-0.648,1.576-0.792c-2.268-0.533-5.56-1.48-7.675-0.027 c-1.221,0.839-1.363,2.583-1.628,3.905c-0.509,2.546-1.364,4.403-2.954,6.479c-1.086,1.419-4.219,5.317-5.806,2.783 c-1.45-2.314-0.02-5.35,1.413-7.239c1.988-2.623,5.135-4.629,8.095-6.006C264.397,77.957,262.595,77.939,262.101,78.169 L262.101,78.169 M295.966,78.408c-1.062-7.5-11.073-1.811-13.967,0.998c-1.564,1.519-4.278,5.117-1.789,6.946 c2.833,2.081,8.843-0.717,11.476-1.734c-0.412-0.082-0.823-0.164-1.235-0.246c-8.754,9.138-17.452,18.335-26,27.667 c-0.467,0.51,1.421,0.3,1.768-0.078c8.548-9.332,17.245-18.528,26-27.666c0.52-0.543-1.075-0.307-1.235-0.246 c-2.05,0.792-8.339,3.772-9.755,0.665c-0.599-1.314,0.792-3.235,1.486-4.184c2.354-3.22,10.468-7.625,11.32-1.604 C294.103,79.413,296.049,78.99,295.966,78.408L295.966,78.408 M327.633,70.408c-1.015-2.794-5.165-2.051-7.291-1.577c-3.869,0.862-7.643,3.266-10.918,5.377 c-1.063,0.686-4.644,2.876-4.386,4.662c0.542,3.756,11.881,1.887,14.412,1.532c6.43-0.901,10.796-5.025,13.844-10.543 c0.308-0.557-1.524-0.118-1.72,0.038c-1.431,1.138-9.817,8.201-5.687,9.865c5.307,2.137,13.135-2.04,17.703-4.412 c0.876-0.455,1.721-0.977,2.503-1.58c2.47-1.903,0.183,4.177,0.125,4.404c-0.463,1.837,1.269,2.33,2.734,1.996 c7.096-1.616,14.143-6.046,20.628-9.285c-0.49-0.067-0.979-0.133-1.47-0.2c-1.879,2.051-7.23,8.408-1.748,9.145 c6.539,0.878,15.158-3.53,20.885-6.278c1.165-0.559-0.607-0.705-1.162-0.438c-4.897,2.35-10.098,4.303-15.419,5.406 c-8.392,1.74-3.368-5.043-0.778-7.872c0.573-0.625-1.273-0.298-1.47-0.2c-5.092,2.542-10.219,5.023-15.413,7.349 c-9.789,4.383-0.209-6.553-4.479-6.006c-1.764,0.226-2.955,1.003-4.354,2.083c-2.937,2.263-7.072,3.573-10.574,4.63 c-4.058,1.224-8.773,0.728-5.188-3.903c1.315-1.699,3.008-3.162,4.684-4.496c-0.573,0.013-1.146,0.025-1.72,0.038 c-2.649,4.794-6.027,8.269-11.62,9.341c-2.955,0.566-9.792,1.282-12.46-0.308c-2.652-1.582,10.01-8.292,10.726-8.625 c1.869-0.872,6.636-2.504,7.682,0.376C325.915,71.514,327.825,70.938,327.633,70.408L327.633,70.408z"/>
</svg>