<?xml version="1.0" encoding="UTF-8"?>
<svg version="1.0" xmlns="http://www.w3.org/2000/svg" width="204" height="43" >
<path fill="#231F20" d="M17.618,19.123c-0.675,0.553-1.4,1.032-2.178,1.441c0.504-0.058,1.008-0.114,1.512-0.171 c-0.104-1.776,9.022-8.26,5.867-2.255c-1.98,3.769-4.845,7.168-7.488,10.478c-2.985,3.737-6.108,7.4-9.467,10.809 c-1.654,1.679-4.778,3.07-3.534-0.875c1.709-5.42,12.002-8.788,15.896-8.91c0.362-0.012,2.178-0.753,1.27-0.725 c-4.733,0.149-8.918,1.559-12.964,3.991c-2.502,1.505-8.157,5.61-6.084,9.215c2.183,3.794,11.092-7.118,11.99-8.143 c3.231-3.686,6.312-7.515,9.195-11.478c1.396-1.918,3.911-4.719,3.99-7.246c0.063-2.01-10.777,2.673-10.604,5.656 c0.02,0.339,1.383-0.116,1.512-0.171c1.052-0.443,1.931-1.102,2.822-1.809C19.72,18.643,17.961,18.852,17.618,19.123 L17.618,19.123 M30.257,24.143c-1.98-3.202-10.348,3.722-9.236,6.894c0.227,0.646,1.413,0.215,1.745-0.082 c0.929-0.828,2.648-0.234,3.681-1.102c1.197-1.005,3.828-3.247,3.352-5.072c-0.087-0.331-0.586-0.323-0.841-0.301 c-0.392,0.034-1.626,0.528-1.079,1.124c0.894,0.974,3.434-0.445,4.166-0.774c8.357-3.758,15.31-11.033,22.548-16.492 c-0.462-0.162-0.924-0.324-1.385-0.486c-5.372,4.672-9.192,10.486-13.526,16.06c-1.059,1.361-2.191,2.662-3.427,3.864 c0.059,1.159,0.448,1.365,1.171,0.62c1.221-0.702,2.455-1.38,3.673-2.09c5.134-2.989,1.167-0.636,1.849,2.176 c0.122,0.504,1.056,0.296,1.354,0.164c1.884-0.836,3.571-2.203,5.444-3.118c0.381-0.186,4.523-1.775,4.523-1.76 c-0.015,1.251-1.214,2.566-1.388,3.864c-0.073,0.544,0.792,0.486,1.104,0.395c1.833-0.538,7.299-5.863,8.006-3.154 c1.009,3.864,5.489,3.938,8.751,3.852c0.744-0.02,2.043-1.176,0.74-1.141c-3.01,0.08-6.518,0.108-7.559-3.229 c-0.232-0.742-0.252-1.65-1.188-1.764c-3.62-0.436-5.954,3.516-9.023,4.417c0.368,0.132,0.736,0.264,1.104,0.396 c0.29-2.166,3.063-5.336-0.749-4.638c-4.003,0.732-6.974,3.452-10.544,5.035c0.452,0.054,0.903,0.108,1.354,0.163 c-0.197-0.816,2.554-5.132-0.048-4.823c-3.168,0.374-7.135,3.531-9.721,5.312c-0.548,0.377-0.392,0.807,0.235,0.88 c2.449,0.286,4.901-3.818,6.142-5.354c4.359-5.395,7.99-11.173,13.279-15.773c0.823-0.715-0.927-0.831-1.385-0.486 c-5.757,4.343-11.224,9.057-17.107,13.232c-1.604,1.138-3.259,2.129-5.006,3.034c-1.505,0.568-2.806,1.473-3.903,2.713 c-0.568,1.145-1.457,1.99-2.666,2.537c-1.33-0.335-2.575,0.549-3.491,1.366c0.582-0.027,1.163-0.055,1.745-0.082 c-0.74-2.114,4.783-6.788,5.514-5.606C28.82,25.484,30.696,24.854,30.257,24.143L30.257,24.143 M82.566,26.294c-2.108,1.96,1.122,2.924,2.614,3.663c2.528,1.251,5.539-1.286,7.326-2.682 c6.558-5.117,13.061-10.305,19.65-15.381c2.765-2.129,5.527-4.279,8.409-6.248c1.661-1.135-0.413-0.783-1.311,0.323 c-1.313,1.619-2.61,3.249-3.912,4.876c-3.088,3.861-6.169,7.73-9.29,11.565c-0.889,1.093-1.775,2.191-2.715,3.241 c-0.681,0.76,1.475,0.243,1.858-0.354c0.563-0.876,1.207-1.707,1.834-2.538c0.723-0.96-1.117-1.093-1.59-0.467 c-0.908,1.206-1.941,2.413-2.607,3.772c-0.209,0.428,0.181,0.671,0.563,0.713c1.126,0.121,1.758-0.908,2.397-1.661 c2.152-2.537,4.213-5.156,6.295-7.751c2.43-3.029,4.85-6.067,7.279-9.097c0.792-0.988,2.687-2.529,2.939-3.833 c0.035-0.178-0.071-0.341-0.219-0.428c-1.108-0.655-2.789,0.89-3.585,1.446c-3.683,2.572-7.212,5.379-10.76,8.132 c-4.13,3.203-8.235,6.439-12.342,9.675c-1.38,1.087-2.76,2.176-4.143,3.259c-1.206,0.943-3.376,2.985-5.059,2.152 c-0.311-0.153-2.649-1.352-2.045-1.913C85.019,25.959,83.123,25.777,82.566,26.294L82.566,26.294 M101.771,17.036c0.227,1.336,2.685,1.483,3.63,1.566c1.831,0.162,3.665,0.122,5.497,0.343 c1.23,0.148,2.453,0.362,3.696,0.317c0.632-0.022,2.081-1.018,0.785-0.971c-2.124,0.076-4.259-0.49-6.383-0.578 c-1.038-0.042-5.02,0.423-5.294-1.195C103.607,15.958,101.664,16.409,101.771,17.036L101.771,17.036 M121.635,20.165c2.163,0.118,4.432-0.322,6.025-1.861c1.345-1.299,1.169-4.854-1.187-4.784 c-3.521,0.105-6.396,4.432-7.914,7.133c-0.895,1.591-1.309,4.655,1.482,4.004c7.123-1.665,11.626-11.932,9.092-18.506 c-1.971-5.11-9.585,1.465-7.662,4.782c0.385,0.665,2.247-0.003,1.779-0.811c-0.608-1.049,1.069-3.054,1.666-3.748 c1.399-1.628,2.208-0.096,2.61,1.254c0.997,3.347-0.093,7.327-1.65,10.3c-1.152,2.2-3.183,4.102-5.334,5.292 c-1.442,0.799-0.557-1.519-0.475-1.745c0.509-1.391,1.565-2.659,2.472-3.78c0.735-0.91,1.579-1.721,2.505-2.435 c1.913-1.475,1.379,1.868,1.224,2.273c-0.501,1.302-2.762,1.421-3.931,1.356C121.484,18.844,120.324,20.093,121.635,20.165 L121.635,20.165 M135.146,17.536c0.678,2.731,5.641-1.806,6.223-2.588c2.403-3.233-5.308-0.469-5.973-0.012 c-1.736,1.192-6.711,7.382-1.273,6.778c1.342-0.149,11.426-3.179,10.168-5.645c-0.253-0.494-1.427-0.101-1.722,0.169 c-2.451,2.232-2.217,5.053,1.153,5.674c4.912,0.905,10.98-2.323,14.771-5.045c-0.504-0.061-1.008-0.121-1.512-0.182 c-2.751,2.017-3.89,4.571,0.09,5.324c5.345,1.013,11.505-3.133,15.672-5.768c-0.571,0.019-1.143,0.037-1.715,0.056 c-0.124,0.728-2.689,3.699-0.861,4.343c2.772,0.976,5.772-0.429,8.215-1.694c3.584-1.857,6.938-4.441,9.927-7.134 c1.289-1.162,3.097-0.137,4.621,0.255c3.025,0.778,6.082,1.213,9.198,1.416c0.495,0.032,2.243-0.847,1.219-0.914 c-4.36-0.283-8.415-1.392-12.664-2.27c-1.119-0.231-2.295-0.071-3.201,0.636c-2.469,1.927-4.714,4.038-7.326,5.821 c-0.949,0.639-1.925,1.232-2.928,1.782c-0.62,0.354-7.834,1.98-5.484-0.047c0.78-0.674,1.033-1.487,1.203-2.487 c0.118-0.698-1.494-0.084-1.715,0.056c-3.573,2.26-7.638,4.865-11.986,5.099c-3.445,0.184-3.123-2.554-0.752-4.292 c0.842-0.617-1.109-0.471-1.512-0.182c-2.457,1.764-5.048,2.982-7.951,3.848c-2.801,1.422-4.868,0.833-6.203-1.768 c0.064-0.814,0.66-1.805,1.254-2.347c-0.573,0.057-1.147,0.112-1.722,0.169c0.921,1.804-8.099,4.591-8.818,3.499 c-0.159-1.028,0.116-1.941,0.828-2.741c0.494-0.501,0.989-1.002,1.483-1.503c3.897-0.785,4.307-0.394,1.226,1.175 C136.941,16.47,135.006,16.974,135.146,17.536L135.146,17.536 M172.315,0.821c0.146-0.036-0.303,0.064-0.091,0.021c0.055-0.012,0.381-0.061,0.261-0.046 c0.139-0.017,0.341-0.063,0.41,0.115c0.178,0.458,2.073-0.155,1.932-0.518c-0.182-0.468-0.912-0.396-1.308-0.382 c-0.455,0.016-0.92,0.114-1.362,0.222c-0.16,0.04-0.965,0.263-0.887,0.553C171.35,1.08,172.154,0.86,172.315,0.821L172.315,0.821 z"/>
</svg>