<?xml version="1.0" standalone="no"?>
<!DOCTYPE svg PUBLIC "-//W3C//DTD SVG 20010904//EN"
 "http://www.w3.org/TR/2001/REC-SVG-20010904/DTD/svg10.dtd">
<svg version="1.0" xmlns="http://www.w3.org/2000/svg"
 width="468pt" height="75pt" viewBox="0 0 468 75"
 preserveAspectRatio="xMidYMid meet">
<metadata>
Created by POTRACE VERSION, written by Peter Selinger 2001-2007
</metadata>
<g transform="translate(0,75) scale(0.086188,-0.086188)"
fill="#000000" stroke="none">
<path d="M659 763 c-29 -28 -56 -65 -63 -88 -8 -21 -11 -45 -8 -53 3 -9 10 -2
19 19 8 19 24 44 35 56 12 13 30 23 41 23 14 0 17 -5 13 -16 -4 -9 -54 -87
-112 -173 -59 -86 -117 -167 -130 -180 -21 -22 -35 -26 -122 -31 -79 -5 -109
-11 -155 -34 -31 -15 -72 -46 -92 -68 -28 -33 -35 -50 -35 -83 0 -22 7 -51 16
-63 12 -17 25 -22 57 -22 23 0 62 9 86 20 26 12 85 61 141 115 l96 95 85 0 86
0 -34 -66 c-18 -37 -33 -75 -33 -85 0 -11 11 -24 24 -30 18 -9 32 -7 60 6 27
13 51 40 88 96 l51 79 71 0 c53 0 84 6 121 24 28 12 64 39 80 58 17 19 56 71
89 116 32 45 82 108 111 139 l53 58 11 -28 c6 -16 11 -41 11 -56 0 -15 -24
-67 -53 -117 -29 -49 -92 -147 -139 -219 -47 -72 -102 -146 -122 -164 -20 -19
-36 -39 -36 -45 0 -5 54 43 119 107 107 105 123 117 155 117 26 0 36 -4 36
-15 0 -9 -12 -39 -26 -68 -15 -29 -35 -65 -46 -80 -11 -16 -18 -31 -15 -33 3
-3 15 0 27 6 12 7 60 47 107 91 47 44 96 82 108 85 12 3 36 4 51 2 23 -2 30
-8 32 -32 2 -19 -8 -47 -33 -88 -20 -32 -35 -62 -31 -65 3 -3 15 -3 28 1 13 3
55 31 93 62 39 31 97 74 129 95 33 22 63 39 68 39 5 0 0 -17 -11 -38 -11 -21
-22 -54 -26 -74 -6 -31 -3 -38 20 -57 15 -11 36 -21 46 -21 10 0 38 8 61 17
24 9 70 33 103 52 32 19 79 53 104 75 24 23 57 59 73 80 15 21 28 45 28 53 0
7 -8 13 -19 13 -13 0 -20 -10 -25 -32 -4 -23 -27 -52 -69 -93 -36 -34 -95 -76
-136 -97 -51 -27 -86 -38 -116 -38 l-43 0 14 58 c8 31 17 72 20 90 6 30 5 32
-24 32 -24 0 -57 -21 -144 -89 -62 -49 -114 -88 -115 -86 -2 1 7 29 20 63 17
48 19 66 11 79 -6 10 -27 22 -48 27 -27 7 -44 6 -69 -6 -17 -9 -58 -40 -90
-68 -32 -29 -60 -50 -63 -47 -3 3 2 19 10 36 9 16 16 41 16 55 0 14 -8 30 -19
35 -11 6 -30 7 -48 2 -17 -5 -40 -14 -52 -20 -11 -7 -21 -9 -21 -6 0 3 29 51
65 106 36 56 77 124 91 152 20 39 25 60 21 95 -3 24 -12 51 -21 60 -15 15 -20
12 -71 -38 -31 -30 -81 -91 -113 -134 -31 -44 -77 -101 -100 -127 -26 -28 -62
-55 -87 -65 -29 -10 -60 -14 -92 -11 -26 3 -69 11 -95 18 -43 12 -47 16 -41
38 5 19 3 22 -8 16 -8 -4 -29 -19 -47 -32 -18 -14 -49 -29 -69 -35 -19 -5 -57
-7 -83 -3 l-49 7 35 45 c19 25 46 66 61 91 14 26 49 83 77 127 28 43 72 104
99 134 26 30 47 59 47 66 0 6 -5 16 -12 23 -7 7 -23 12 -36 12 -14 0 -42 -18
-73 -47z m61 -463 c8 -15 5 -30 -14 -67 -13 -27 -37 -60 -53 -75 -15 -15 -41
-30 -56 -34 l-29 -7 20 39 c11 22 41 63 66 92 25 30 46 58 46 63 0 5 2 9 5 9
2 0 9 -9 15 -20z m-305 -8 c-5 -4 -41 -42 -79 -85 -37 -42 -88 -89 -112 -103
-24 -14 -60 -26 -79 -27 -24 -1 -43 6 -57 20 -15 15 -19 28 -14 47 3 14 20 42
38 61 17 20 50 46 72 57 23 12 55 25 71 29 17 4 62 7 100 8 39 0 66 -3 60 -7z"/>
<path d="M3185 715 c-55 -7 -115 -20 -133 -29 -25 -13 -45 -15 -79 -10 -33 5
-44 4 -39 -5 4 -6 14 -11 22 -11 8 0 -25 -44 -72 -97 -48 -54 -111 -131 -141
-171 -29 -39 -78 -111 -108 -159 -30 -48 -58 -102 -61 -120 -4 -20 -2 -39 6
-48 7 -8 27 -15 44 -15 26 0 45 14 117 88 48 49 110 122 139 163 28 41 63 96
77 124 14 27 33 88 43 135 16 77 20 87 49 104 19 11 75 24 138 32 59 8 115 12
125 8 10 -3 18 -13 18 -23 0 -10 -6 -37 -14 -59 -8 -23 -25 -55 -37 -71 -12
-16 -51 -53 -86 -82 -35 -28 -61 -54 -59 -57 3 -2 17 3 30 12 14 9 34 16 45
16 11 0 29 -12 41 -27 15 -20 20 -36 16 -56 -4 -19 -34 -57 -85 -106 -43 -42
-91 -95 -106 -119 -24 -36 -26 -45 -14 -53 8 -5 17 -9 22 -9 4 0 36 30 72 67
35 38 79 91 97 118 23 35 49 59 86 78 l52 28 0 -33 c0 -21 -19 -70 -50 -130
-27 -53 -50 -103 -50 -112 0 -9 6 -16 14 -16 7 0 31 12 52 26 21 15 58 44 82
66 23 21 53 43 66 48 17 6 40 4 75 -8 50 -16 51 -17 45 -49 -5 -28 -1 -36 27
-62 24 -22 37 -28 49 -21 9 5 36 28 59 52 23 24 49 57 58 73 8 17 22 38 31 48
11 12 30 17 71 17 31 0 73 4 94 9 33 8 38 7 32 -7 -3 -9 -9 -36 -12 -59 -4
-34 -2 -48 12 -63 10 -11 26 -20 35 -20 9 0 37 7 63 16 42 14 48 14 62 1 8 -9
24 -19 35 -22 13 -4 37 2 63 15 23 12 55 34 70 48 16 15 37 43 46 62 10 19 21
46 24 60 6 24 12 26 99 38 51 7 98 12 104 12 7 0 15 -7 18 -16 3 -8 0 -30 -8
-48 -7 -18 -37 -65 -65 -105 -29 -40 -55 -79 -58 -87 -4 -10 3 -14 21 -14 15
0 42 7 61 15 20 8 70 47 113 88 42 40 99 88 126 107 39 26 48 29 42 14 -4 -10
-16 -57 -27 -103 -15 -63 -17 -87 -8 -97 6 -8 19 -14 28 -14 8 0 45 11 82 25
36 14 100 47 142 73 42 26 117 83 166 127 48 44 96 92 105 108 10 15 14 32 11
37 -3 6 -18 10 -33 9 -15 0 -47 -9 -72 -20 l-45 -19 57 3 57 4 -17 -30 c-9
-16 -52 -59 -94 -96 -42 -37 -120 -91 -173 -121 -53 -29 -114 -59 -137 -67
-22 -7 -43 -12 -45 -9 -3 2 5 43 17 90 12 47 20 102 18 122 l-3 35 -60 -42
c-33 -23 -90 -71 -127 -106 -38 -34 -86 -72 -108 -83 -22 -11 -40 -18 -40 -14
0 3 21 34 46 70 25 35 50 80 55 100 8 28 7 41 -6 61 -16 23 -21 25 -69 19 -28
-4 -77 -9 -108 -13 -52 -5 -60 -3 -88 21 -18 14 -38 26 -45 26 -9 0 -12 -6 -8
-17 3 -10 13 -26 21 -35 8 -10 21 -18 28 -18 7 0 12 -6 10 -12 -3 -7 -7 -25
-10 -41 -4 -15 -23 -46 -43 -68 -20 -22 -54 -49 -75 -60 -24 -12 -47 -17 -60
-13 -11 3 -17 9 -12 13 5 3 17 23 27 45 10 21 15 41 12 44 -3 3 -22 -11 -43
-31 -20 -20 -57 -43 -81 -52 -24 -8 -52 -15 -62 -15 -12 0 -19 7 -19 18 0 11
6 40 14 65 8 26 31 69 51 97 21 28 35 54 31 57 -4 4 -25 -12 -49 -34 -24 -24
-59 -46 -82 -52 -22 -6 -63 -11 -91 -11 -39 0 -59 6 -85 25 -19 13 -45 30 -57
37 -19 10 -29 9 -50 -3 -15 -8 -46 -42 -68 -76 l-41 -61 -54 19 c-29 11 -61
17 -70 14 -10 -3 -53 -35 -96 -70 -43 -35 -80 -60 -81 -54 -2 5 10 31 27 57
16 26 37 64 46 84 8 21 15 48 15 62 0 13 -8 34 -19 47 l-18 23 -46 -27 c-25
-15 -47 -27 -49 -27 -2 0 -3 18 -3 40 -1 30 -8 47 -30 70 l-29 30 41 43 c22
23 50 61 62 84 12 23 21 55 21 71 0 16 -8 36 -18 45 -10 10 -25 16 -33 16 -8
-1 -59 -7 -114 -14z m-220 -220 c-9 -31 -45 -98 -84 -157 -38 -57 -102 -138
-143 -180 -43 -44 -85 -79 -102 -84 -19 -4 -31 -2 -36 6 -4 7 -4 26 1 42 4 16
20 51 35 76 15 26 52 83 83 127 30 44 77 107 105 140 27 33 72 84 100 113 l51
53 3 -41 c2 -22 -4 -65 -13 -95z m1445 -130 c7 -8 8 -15 2 -15 -5 0 -15 7 -22
15 -7 8 -8 15 -2 15 5 0 15 -7 22 -15z m-630 -46 c0 -5 -20 -31 -44 -57 -25
-26 -48 -44 -51 -40 -4 4 12 30 35 57 24 28 47 51 52 51 4 0 8 -5 8 -11z m30
-73 c0 -21 -11 -48 -30 -74 -16 -23 -41 -49 -54 -57 -14 -9 -33 -15 -43 -13
-11 2 -19 14 -21 32 -3 25 7 39 63 93 36 35 71 61 76 58 5 -4 9 -21 9 -39z
m-600 -14 c0 -4 -27 -38 -61 -75 -33 -37 -65 -67 -71 -67 -6 0 2 17 17 38 16
20 44 54 64 75 19 20 39 37 43 37 4 0 8 -3 8 -8z"/>
</g>
</svg>
