<?xml version="1.0" standalone="no"?>
<!DOCTYPE svg PUBLIC "-//W3C//DTD SVG 20010904//EN"
 "http://www.w3.org/TR/2001/REC-SVG-20010904/DTD/svg10.dtd">
<svg version="1.0" xmlns="http://www.w3.org/2000/svg"
 width="468pt" height="150pt" viewBox="0 0 468 150"
 preserveAspectRatio="xMidYMid meet">
<metadata>
Created by POTRACE VERSION, written by Peter Selinger 2001-2007
</metadata>
<g transform="translate(0,150) scale(0.058500,-0.058500)"
fill="#000000" stroke="none">
<path d="M1191 2523 c-20 -21 -43 -48 -51 -61 -9 -13 -50 -36 -105 -58 -49
-20 -104 -47 -121 -60 -18 -13 -42 -44 -54 -69 -21 -43 -24 -45 -65 -45 -38 0
-48 -5 -86 -45 -24 -25 -63 -55 -86 -66 -24 -12 -71 -48 -104 -82 -45 -45 -62
-70 -66 -96 -3 -20 -13 -44 -21 -53 -8 -10 -23 -18 -33 -18 -10 0 -33 -16 -50
-35 -18 -19 -43 -52 -55 -73 -13 -20 -24 -44 -24 -53 0 -9 -11 -36 -24 -60
-14 -24 -32 -70 -41 -101 -13 -45 -14 -65 -5 -97 6 -22 7 -53 3 -68 -4 -15 -6
-36 -4 -45 1 -9 -9 -24 -23 -33 -13 -9 -27 -23 -30 -31 -3 -8 3 -33 14 -54 11
-21 27 -60 36 -86 9 -28 13 -60 9 -80 -5 -28 -1 -39 30 -72 23 -27 35 -49 35
-69 0 -21 12 -42 43 -74 23 -24 55 -63 70 -85 28 -41 28 -44 18 -110 -6 -38
-15 -91 -20 -119 -5 -27 -15 -63 -22 -80 -6 -16 -15 -48 -18 -70 -5 -31 -11
-41 -27 -43 -15 -2 -34 9 -56 32 -28 28 -43 36 -71 36 -20 0 -53 -9 -74 -20
-21 -12 -52 -37 -70 -56 -26 -30 -32 -46 -38 -104 -4 -38 -4 -82 0 -99 3 -16
18 -42 33 -56 15 -15 39 -33 53 -41 24 -12 32 -12 63 1 19 8 48 15 63 15 16 0
36 -9 46 -21 13 -14 27 -19 49 -17 24 2 38 13 65 52 27 40 33 57 33 102 0 43
7 64 35 110 26 45 36 73 41 127 5 48 13 76 26 89 10 10 25 36 34 58 11 27 14
54 10 83 -6 39 -4 45 29 77 24 23 37 47 42 73 5 33 13 43 63 75 39 25 63 49
74 73 11 24 28 40 55 52 21 10 50 34 65 56 19 27 29 57 33 97 3 33 14 71 24
86 11 14 19 33 19 40 0 8 -9 23 -20 33 -11 10 -37 18 -62 19 -24 0 -53 -3 -65
-7 -17 -6 -23 -5 -23 5 0 8 11 29 25 48 17 23 25 47 25 73 0 22 9 54 19 71 11
17 23 47 26 66 3 19 19 49 35 65 20 21 30 45 35 80 5 30 16 60 30 75 13 14 26
35 30 48 4 13 1 36 -5 52 -9 22 -9 37 0 65 7 20 22 45 33 56 12 11 41 29 65
39 33 15 42 24 42 44 0 13 3 32 6 41 4 8 20 23 36 31 21 11 40 37 66 92 19 42
44 90 55 106 19 27 19 30 3 56 -9 16 -13 35 -10 44 3 9 10 16 15 16 5 0 9 10
9 23 0 14 -12 30 -33 45 -18 12 -41 22 -51 22 -10 0 -35 -17 -55 -37z m-257
-448 c3 -8 -1 -30 -9 -49 -8 -20 -23 -40 -33 -45 -10 -5 -24 -31 -31 -58 -7
-26 -18 -84 -25 -128 -6 -44 -17 -91 -25 -105 -7 -14 -23 -35 -34 -47 -19 -21
-19 -27 -7 -100 l12 -77 -26 -21 c-14 -11 -39 -30 -56 -43 -20 -16 -30 -32
-30 -50 0 -15 -9 -54 -19 -86 -18 -58 -20 -60 -65 -73 -37 -11 -47 -19 -52
-41 -4 -15 -17 -46 -31 -69 -17 -31 -30 -43 -47 -43 -12 0 -40 13 -60 28 -23
17 -44 44 -52 68 -12 31 -12 51 -3 102 6 34 9 76 5 93 -4 20 1 43 14 69 11 22
20 49 20 61 0 12 9 36 19 53 11 17 29 60 42 96 16 48 37 82 78 127 31 34 69
77 85 95 16 18 35 48 42 66 8 17 20 32 28 32 8 0 46 16 84 36 51 26 74 44 83
66 6 16 21 35 33 43 11 8 28 15 37 15 9 0 19 -7 23 -15z"/>
<path d="M6989 2363 c-40 -12 -52 -21 -80 -69 -27 -43 -41 -56 -69 -64 -20 -5
-46 -19 -58 -30 -12 -12 -22 -29 -22 -39 0 -9 -11 -27 -25 -39 -16 -14 -25
-32 -25 -52 0 -20 -8 -35 -25 -46 -19 -12 -25 -25 -25 -50 0 -29 -6 -38 -35
-55 -20 -12 -47 -43 -65 -74 -16 -29 -30 -65 -30 -80 0 -16 -12 -58 -26 -94
-14 -35 -35 -77 -46 -92 -15 -20 -23 -52 -29 -119 -5 -51 -14 -99 -20 -106 -6
-8 -17 -14 -25 -14 -7 0 -22 -10 -34 -22 -11 -12 -20 -31 -20 -43 0 -12 -11
-31 -24 -42 -21 -19 -24 -30 -24 -88 0 -61 3 -69 29 -93 16 -14 29 -34 29 -45
0 -10 8 -32 17 -48 14 -24 15 -33 5 -49 -6 -11 -12 -44 -12 -75 0 -30 7 -70
17 -89 15 -32 15 -37 0 -60 -10 -14 -17 -45 -17 -70 0 -40 -4 -48 -39 -75 -21
-17 -43 -31 -49 -31 -5 0 -20 -9 -34 -19 -13 -11 -42 -21 -64 -23 -34 -3 -40
-7 -50 -36 -6 -19 -24 -41 -43 -53 -18 -11 -39 -35 -47 -55 -11 -26 -12 -44
-4 -72 5 -21 19 -48 30 -60 12 -13 33 -22 50 -22 16 0 32 5 35 10 3 6 16 10
29 10 12 0 27 -5 33 -11 6 -6 21 -9 34 -7 19 2 23 8 21 29 -1 15 5 33 16 42
10 9 38 27 63 40 41 22 44 27 45 65 1 22 7 55 14 72 10 24 10 36 0 60 -10 24
-10 33 0 45 7 8 20 15 30 15 10 0 23 7 30 16 8 9 15 53 17 112 2 53 9 107 15
120 9 17 9 31 -1 57 -10 28 -9 39 3 63 9 17 13 44 10 68 -3 21 -1 44 3 49 4 6
30 27 56 49 27 21 52 49 57 61 6 17 24 26 74 39 36 9 74 16 85 16 11 0 28 -11
37 -25 15 -23 15 -27 -5 -58 -12 -19 -21 -44 -21 -56 0 -12 -6 -34 -14 -49 -8
-15 -17 -58 -21 -97 -4 -38 -16 -95 -27 -125 -11 -30 -24 -76 -30 -102 -6 -26
-8 -58 -4 -72 3 -14 16 -30 27 -37 12 -6 49 -15 82 -19 55 -8 67 -6 120 17 51
23 60 32 78 74 11 26 32 57 45 70 20 19 24 32 24 83 0 34 -4 66 -8 72 -4 5
-18 18 -32 27 -13 9 -36 17 -51 17 -19 0 -28 -6 -33 -22 -3 -13 -6 -38 -6 -57
0 -21 -10 -47 -25 -67 -14 -19 -38 -35 -56 -39 -22 -5 -36 -3 -46 8 -13 13
-11 19 17 50 24 27 34 51 39 92 4 30 15 63 24 73 10 11 17 35 17 60 0 34 7 49
37 83 20 22 54 49 75 60 25 13 45 34 59 62 12 23 39 58 61 79 34 32 43 35 79
31 31 -5 47 -1 67 14 15 11 36 23 47 27 11 3 37 21 58 40 20 19 37 40 37 46 0
6 -11 31 -25 55 -14 24 -32 48 -40 55 -10 9 -25 5 -64 -15 -31 -15 -95 -33
-159 -44 -97 -17 -109 -18 -124 -3 -10 8 -18 21 -18 28 0 7 8 19 18 26 10 7
21 21 25 32 4 10 2 36 -5 57 -10 36 -9 41 13 65 20 22 24 37 27 107 2 45 10
96 18 114 8 17 15 57 15 90 1 33 9 77 20 102 13 30 19 67 19 117 0 67 -3 76
-27 103 -16 16 -39 31 -53 34 -14 2 -46 -2 -71 -10z m-39 -318 c10 -12 8 -21
-8 -47 -12 -18 -37 -49 -56 -67 -20 -19 -36 -44 -36 -55 0 -12 7 -50 14 -86
12 -55 12 -69 0 -95 -7 -16 -15 -60 -16 -97 -3 -58 0 -69 20 -88 12 -11 22
-24 22 -29 0 -5 -22 -29 -49 -54 -27 -26 -61 -49 -74 -52 -17 -5 -35 0 -54 13
-15 11 -59 26 -98 33 -38 7 -74 16 -79 20 -6 5 -3 16 8 27 10 12 16 33 14 55
-1 27 4 40 27 59 24 21 29 34 33 86 3 47 0 68 -12 87 -9 14 -14 30 -11 35 3 6
24 13 46 16 23 4 44 14 49 25 6 9 7 24 4 33 -3 9 3 19 18 27 13 6 42 32 66 58
23 25 42 53 42 63 0 9 10 24 22 32 12 9 39 16 59 16 20 0 42 -7 49 -15z"/>
<path d="M3264 2204 c-27 -14 -56 -33 -64 -42 -8 -10 -28 -25 -43 -35 -15 -10
-27 -26 -26 -35 1 -9 1 -22 0 -28 -1 -8 -12 -8 -41 -1 -33 9 -42 8 -59 -7 -11
-10 -23 -27 -26 -36 -3 -10 -23 -25 -45 -34 -29 -11 -44 -25 -54 -50 -10 -23
-24 -38 -41 -42 -14 -3 -32 -18 -40 -33 -8 -14 -29 -41 -48 -59 -29 -27 -37
-45 -47 -100 -7 -37 -23 -83 -35 -102 -13 -19 -26 -55 -30 -80 -4 -25 -14 -61
-23 -80 -8 -19 -18 -60 -22 -90 -4 -30 -3 -68 3 -83 8 -23 5 -35 -17 -67 -14
-22 -26 -43 -26 -47 0 -5 12 -21 27 -37 14 -16 45 -37 69 -47 23 -11 64 -24
91 -30 26 -5 82 -13 124 -18 42 -4 81 -11 88 -15 7 -5 45 -15 84 -23 40 -8 95
-28 124 -44 29 -17 55 -38 58 -49 3 -10 -1 -35 -10 -55 -8 -21 -15 -57 -15
-81 0 -25 -9 -60 -20 -81 -11 -21 -20 -45 -20 -53 0 -8 -18 -42 -40 -75 -22
-33 -40 -65 -40 -70 0 -6 -24 -36 -52 -67 -29 -31 -76 -68 -105 -82 -29 -14
-67 -26 -85 -26 -18 0 -49 -4 -68 -10 -27 -8 -41 -6 -69 8 -26 12 -38 26 -44
52 -5 19 -13 41 -19 48 -6 6 -32 12 -58 12 -33 0 -64 -9 -103 -30 -31 -17 -63
-30 -71 -30 -7 0 -30 -18 -50 -40 -31 -34 -36 -47 -36 -88 1 -39 5 -50 26 -65
14 -11 41 -19 62 -18 20 0 60 -5 87 -11 28 -5 76 -19 107 -30 32 -12 70 -18
85 -15 16 3 48 10 73 17 25 6 57 23 72 37 l27 26 36 -32 c20 -17 37 -31 39
-31 2 0 27 11 55 24 29 13 61 32 71 41 11 10 20 24 20 31 0 7 11 26 25 41 14
15 39 44 55 64 17 20 30 45 30 55 0 11 12 37 26 58 22 33 25 42 15 63 -6 14
-9 33 -6 43 3 9 17 23 30 30 14 8 45 44 70 80 24 37 47 84 50 104 4 20 19 51
34 70 24 30 27 43 26 103 0 49 -6 76 -19 96 -11 16 -44 45 -75 66 -31 21 -69
41 -86 45 -16 4 -49 25 -72 47 l-44 40 -87 -7 c-48 -3 -102 -13 -121 -20 -18
-8 -45 -14 -60 -14 -20 0 -43 17 -89 64 -34 36 -62 68 -62 73 0 5 11 24 24 44
19 28 26 53 30 120 3 46 7 100 8 119 2 19 13 51 25 70 12 19 36 46 54 60 17
14 43 35 58 46 14 12 36 24 48 28 12 4 50 34 85 66 35 33 75 65 90 71 17 7 31
24 38 44 9 27 19 35 58 46 27 8 80 13 127 11 53 -2 89 -8 110 -20 21 -13 31
-27 33 -49 2 -17 -8 -56 -23 -89 -14 -32 -38 -71 -53 -87 -25 -26 -25 -30 -14
-72 6 -24 9 -51 6 -60 -3 -8 -18 -15 -31 -15 -18 0 -38 -14 -67 -46 -22 -26
-60 -55 -83 -65 -31 -13 -43 -24 -43 -39 0 -12 7 -28 16 -37 14 -14 12 -17
-13 -34 -15 -10 -35 -23 -43 -28 -8 -5 -23 -12 -33 -15 -9 -3 -20 -13 -24 -22
-3 -8 2 -23 11 -32 15 -15 18 -15 45 1 16 9 42 17 59 17 22 0 31 6 35 21 3 11
4 31 1 44 -3 17 7 35 40 69 25 25 59 49 78 54 24 6 35 16 42 38 5 16 10 35 12
42 2 6 17 12 33 12 20 0 36 8 49 25 17 21 18 30 9 54 -9 23 -7 34 6 55 10 14
35 35 57 46 22 11 46 30 55 43 8 12 15 46 16 73 1 34 -4 59 -14 75 -10 13 -17
43 -17 67 0 24 -8 55 -17 70 -10 15 -29 39 -42 54 -13 15 -38 32 -55 37 -17 5
-72 12 -122 15 -83 5 -94 4 -140 -20z"/>
<path d="M5660 2171 c-14 -3 -32 -10 -41 -16 -8 -5 -25 -24 -37 -42 -12 -17
-22 -44 -22 -60 0 -15 -4 -43 -9 -61 -6 -18 -8 -39 -5 -46 3 -7 28 -23 55 -36
31 -13 69 -22 95 -22 25 1 49 4 54 7 5 3 23 26 39 51 17 25 31 58 31 73 0 16
-6 34 -14 40 -8 7 -18 25 -21 41 -3 15 -14 35 -24 44 -10 9 -31 20 -47 24 -16
5 -40 6 -54 3z"/>
<path d="M5586 1311 c-25 -20 -54 -32 -84 -36 -26 -3 -80 -14 -119 -25 -40
-11 -81 -20 -92 -20 -10 0 -35 -7 -54 -15 -21 -9 -67 -15 -108 -15 -61 0 -77
-4 -105 -25 -18 -14 -37 -39 -42 -57 -6 -18 -13 -54 -17 -80 -3 -26 -17 -68
-31 -93 -13 -25 -24 -54 -24 -65 0 -10 -11 -27 -24 -37 -13 -10 -52 -53 -86
-95 -35 -43 -70 -78 -79 -78 -9 0 -57 -20 -106 -45 l-89 -44 -33 20 c-18 11
-40 30 -48 42 -8 12 -15 30 -15 40 0 11 14 35 30 54 26 29 30 41 30 92 0 52 3
61 25 75 18 12 25 26 25 49 0 17 12 55 25 82 14 28 25 60 25 72 0 13 -11 29
-25 39 -17 11 -37 14 -62 11 -21 -3 -56 -9 -79 -14 -22 -6 -53 -18 -70 -27
-16 -10 -39 -32 -51 -49 -13 -18 -31 -45 -40 -61 -10 -15 -35 -47 -55 -69 -30
-32 -38 -49 -38 -79 0 -33 -4 -39 -32 -52 -18 -8 -49 -35 -68 -61 -19 -26 -52
-63 -72 -83 -21 -19 -38 -41 -38 -48 0 -7 -11 -25 -23 -40 -17 -19 -29 -25
-42 -21 -14 6 -16 14 -10 40 4 17 6 47 6 66 -1 22 5 42 20 57 16 17 20 31 17
56 -3 18 -2 42 3 53 4 11 23 37 41 57 24 26 38 54 47 99 l14 62 -34 65 c-19
35 -43 70 -53 77 -14 10 -24 11 -38 4 -11 -6 -18 -21 -18 -39 0 -18 -9 -38
-25 -53 -15 -13 -32 -46 -40 -76 -7 -29 -21 -61 -30 -71 -11 -12 -18 -41 -21
-86 -3 -55 0 -71 16 -92 11 -13 20 -35 20 -48 0 -12 -13 -37 -29 -54 -18 -20
-35 -56 -46 -98 -9 -37 -25 -78 -34 -92 -10 -14 -25 -45 -34 -70 -10 -25 -17
-63 -16 -85 0 -22 -2 -54 -6 -71 -6 -27 -4 -32 22 -41 15 -6 51 -12 79 -12 30
-1 68 6 95 17 24 11 62 37 85 58 22 22 46 53 53 69 6 17 27 40 46 53 19 12 35
28 35 36 0 7 6 19 14 25 8 7 17 26 20 44 4 19 21 48 41 67 19 19 35 38 35 43
0 5 14 25 30 44 17 18 30 39 30 44 0 6 14 29 31 50 23 29 38 39 59 39 16 0 31
-4 34 -8 2 -4 -10 -30 -27 -57 -31 -49 -32 -52 -32 -167 0 -112 2 -119 25
-143 21 -20 41 -27 109 -35 45 -6 126 -9 178 -7 l95 4 37 39 c21 21 62 56 90
78 36 26 54 47 58 68 4 22 23 42 67 75 35 26 69 61 81 83 11 22 37 68 58 103
20 35 37 73 37 85 0 11 7 28 16 36 8 9 24 16 35 16 11 0 44 23 73 50 l54 51
88 -3 c77 -3 89 -5 92 -21 2 -11 -5 -25 -17 -33 -13 -9 -21 -26 -21 -42 0 -15
-12 -45 -26 -66 -21 -31 -27 -52 -30 -117 -2 -43 -10 -91 -18 -106 -7 -15 -15
-39 -16 -53 -1 -14 -2 -37 -1 -51 1 -19 9 -30 29 -37 15 -6 84 -11 155 -10
l129 1 68 58 c37 33 75 59 84 59 9 0 33 9 53 20 21 11 42 20 48 20 6 0 25 16
43 35 21 22 46 37 70 41 20 4 43 11 50 17 6 5 12 20 12 33 0 13 6 27 14 31 8
4 15 19 16 33 1 14 2 31 1 38 -1 6 -13 12 -28 12 -16 0 -37 -7 -47 -15 -12 -9
-42 -15 -74 -15 -45 0 -62 -6 -106 -35 -29 -19 -57 -35 -62 -35 -4 0 -43 -16
-85 -36 -55 -26 -85 -35 -103 -30 -14 3 -30 15 -36 26 -9 16 -6 30 14 68 13
26 35 68 48 95 13 26 31 50 40 53 10 3 22 20 27 37 5 18 21 59 35 92 14 33 26
77 26 99 0 31 -7 45 -39 77 -32 32 -46 39 -78 39 -29 0 -50 -8 -77 -29z"/>
<path d="M1332 1170 c-13 -6 -38 -21 -57 -35 -18 -14 -36 -33 -39 -42 -4 -9 0
-40 9 -69 9 -31 24 -58 35 -64 10 -5 30 -10 44 -10 17 0 47 19 88 56 35 31 67
63 72 71 5 9 3 25 -5 41 -8 14 -27 34 -44 44 -16 10 -41 18 -55 17 -14 0 -35
-4 -48 -9z"/>
<path d="M7821 1086 c-6 -8 -25 -19 -41 -26 -28 -12 -30 -16 -30 -68 0 -45 -5
-61 -24 -81 -13 -15 -26 -44 -29 -66 -4 -22 -3 -45 1 -51 4 -6 33 -24 65 -38
50 -24 61 -26 91 -16 19 6 46 26 61 45 14 19 39 67 55 107 17 40 30 82 30 94
0 11 -6 27 -12 36 -7 9 -33 30 -57 47 -24 17 -56 31 -71 31 -15 0 -33 -6 -39
-14z"/>
<path d="M1017 508 c-9 -7 -28 -28 -41 -47 -18 -24 -23 -41 -20 -60 4 -20 -3
-41 -25 -76 -23 -37 -31 -61 -31 -95 0 -32 5 -51 18 -62 9 -8 36 -22 58 -32
23 -10 50 -16 59 -14 10 1 23 12 29 23 6 10 29 37 50 58 38 37 39 40 28 71 -7
18 -12 42 -12 55 0 12 12 33 26 48 22 22 24 31 19 65 -5 30 -15 44 -39 59 -17
10 -47 19 -67 19 -19 0 -43 -6 -52 -12z"/>
</g>
</svg>
