<?xml version="1.0" encoding="UTF-8"?>
<svg version="1.0" xmlns="http://www.w3.org/2000/svg" width="504px" height="120px">
<path fill="#231F20" d="M69.182,75.049c-7.756-11.806-8.001-27.901-3.463-40.823c3.78-10.763,11.728-21.39,21.005-28.105 c4.427-3.205,5.155-0.487,4.311,3.88c-1.378,7.132-4.738,13.986-7.938,20.439c-4.694,9.466-10.226,18.517-16.142,27.263 c-7.112,10.513-15.035,20.473-23.648,29.794c-8.432,9.125-17.768,18.385-28.588,24.644c-2.363,1.366-8.953,4.946-10.646,0.84 c-1.631-3.956,1.171-9.696,2.799-13.174C13.889,84.813,26.5,72.785,39.738,63.265c16.029-11.529,34-20.372,52.45-27.29 c6.045-2.267,12.19-4.279,18.405-6.031c2.572-0.725,5.477-1.827,8.172-1.973c1.347-0.073,1.354-2.173,0-2.1 c-3.957,0.214-8.147,1.854-11.902,2.963c-9.046,2.673-17.898,5.975-26.583,9.646C57.634,48.053,34.84,60.942,18.282,79.43 c-5.775,6.447-10.904,13.75-14.306,21.735c-1.652,3.878-3.6,9.281-1.483,13.356c6.026,11.605,32.744-15.86,35.971-19.02 c16.644-16.294,30.714-35.509,42.1-55.792c4.053-7.22,7.756-14.707,10.568-22.504c1.318-3.655,3.313-8.768,2.061-12.712 C90.006-5.545,69.96,21.358,69.207,22.519c-9.614,14.795-11.23,33.428-4.01,49.504c0.628,1.398,1.328,2.803,2.172,4.087 C68.109,77.235,69.928,76.185,69.182,75.049L69.182,75.049z
M90.904,52.772c-3.733,1.089-7.643,2.785-10.683,5.224c-1.117,0.896-6.979,6.154-4.071,8.006 c2.996,1.908,9.944-3.261,12.293-4.523c4.196-2.257,8.343-4.981,13.041-6.015c2.028-0.446,4.297-0.231,6.162,0.673 c4.589,2.225-3.179,5.741-4.587,6.266c0.341,0.585,0.681,1.17,1.022,1.755c2.701-2.281,6.717-5.104,10.406-4.548 c3.334,0.503,2.729,5.491,6.974,4.795c5.827-0.954,11.103-6.696,14.877-10.891c-0.585-0.34-1.17-0.681-1.755-1.021 c-0.666,2.361-0.989,5.741,0.738,7.737c4.841,5.599,16.224-3.436,19.972-6.045c1.103-0.768,0.055-2.589-1.06-1.813 c-2.621,1.824-14.254,10.978-17.475,6.276c-1.016-1.483-0.608-3.971-0.149-5.598c0.277-0.983-1.039-1.818-1.755-1.021 c-1.824,2.026-3.806,3.912-5.862,5.699c-1.733,1.507-3.592,2.84-5.631,3.897c-3.049,1.582-3.954-0.188-5.645-2.378 c-3.788-4.908-11.824,0.641-15.12,3.425c-0.79,0.667,0.049,2.117,1.022,1.755c2.721-1.014,9.035-3.64,7.217-7.763 c-1.82-4.128-7.574-3.739-11.184-2.945c-7.908,1.739-14.225,9.546-22.26,10.556c0.711-0.089,2.614-3.339,3.402-4.062 c1.349-1.238,3.039-2.14,4.644-2.995c1.901-1.013,3.958-1.818,6.027-2.421C92.76,54.42,92.208,52.393,90.904,52.772 L90.904,52.772z
M181.815,39.193c-13.362,9.724-26.642,19.565-39.831,29.522c-8.913,6.728-17.556,13.87-26.612,20.4 c-1.256,0.905-0.509,2.824,0.469,1.823c0.673-0.688,1.403-1.326,2.117-1.972c1.731-1.565,3.496-3.094,5.263-4.617 c6.249-5.389,15.303-11.299,22.699-16.339c6.191-4.219,12.487-8.31,19.023-11.975c3.317-1.86,9.473-6.14,13.559-5.046 c2.162,0.578-0.957,8.579-4.052,8.086c-2.117-0.338-4.083-2.41-5.388-4.006c-0.424,0.55-0.849,1.1-1.272,1.648 c4.621,2.003,10.564,1.559,15.375,0.851c18.325-2.698,35.029-12.962,49.731-23.659c1.071-0.78,0.135-2.508-1.061-1.813 c-6.24,3.629-12.331,7.536-18.295,11.601c-7.44,5.071-16.577,10.803-21.351,18.68c-0.626,1.033,0.804,2.104,1.649,1.272 c2.252-2.216,4.64-4.329,7.208-6.171c1.756-1.26,3.898-2.737,3.044,0.6c-0.426,1.662-1.627,3.799-1.158,5.597 c1.373,5.255,9.774-4.68,11.008-6.107c0.88-1.02-0.599-2.512-1.485-1.484c-1.989,2.303-4.114,4.646-6.588,6.433 c-2.217,1.602,0.161-3.54,0.469-4.743c0.28-1.094,0.424-2.626-0.455-3.505c-3.181-3.181-11.533,5.935-13.529,7.897 c0.55,0.424,1.1,0.848,1.649,1.272c4.959-8.183,14.74-13.977,22.471-19.198c5.355-3.617,10.834-7.081,16.422-10.33 c-0.354-0.604-0.707-1.209-1.061-1.813c-14.025,10.205-29.602,19.77-46.879,23.066c-4.752,0.907-12.235,1.421-16.108-0.257 c-1.103-0.479-2.051,0.696-1.272,1.648c2.11,2.581,5.661,5.64,9.21,4.342c3.117-1.14,5.86-8.091,3.727-10.928 c-3.968-5.278-19.185,5.677-22.504,7.694c-10.86,6.602-21.25,14.009-31.47,21.553c-1.613,1.19-3.283,2.339-4.804,3.648 c-2.425,2.088-6.567,4.552-8.075,7.419c-0.236,0.449-0.153,0.893,0.164,1.272c0.008,0.009,0.016,0.019,0.024,0.028 c0.229,0.273,0.691,0.373,1.022,0.27c1.575-0.489,3.063-2.023,4.337-2.988c3.537-2.676,7.005-5.442,10.509-8.161 c7.863-6.099,15.819-12.078,23.791-18.034c9.745-7.279,19.53-14.506,29.365-21.664C183.958,40.218,182.912,38.395,181.815,39.193 L181.815,39.193z
M252.002,58.383c1.354,0,1.354-2.1,0-2.1S250.647,58.383,252.002,58.383L252.002,58.383z
M254.774,56.995c-0.831-0.225-1.662-0.449-2.493-0.675c-1.31-0.354-1.864,1.672-0.559,2.025 c0.831,0.225,1.662,0.449,2.493,0.675C255.525,59.375,256.08,57.349,254.774,56.995L254.774,56.995z
M231.552,59.427c5.511-4.995,11.374-9.633,17.431-13.942c4.743-3.374,9.746-6.544,15.142-8.766 c2.943-1.212,6.091-2.114,9.277-2.29c6.437-0.355-2.712,6.419-3.853,7.13c-0.522,0.326-0.618,0.904-0.376,1.437 c0.939,2.071,4.046,2.856,6.02,3.121c10.504,1.407,21.89-3.496,31.318-7.37c1.231-0.506,0.703-2.532-0.559-2.025 c-12.766,5.125-31.089,14.46-34.393,29.117c-0.297,1.319,1.728,1.879,2.025,0.559c3.117-13.831,20.813-22.787,32.926-27.65 c-0.187-0.675-0.372-1.35-0.559-2.025c-9.008,3.702-19.116,7.871-29.065,7.466c-1.651-0.067-5.078-0.438-5.901-2.25 c-0.125,0.479-0.251,0.958-0.376,1.437c1.57-0.979,10.895-6.748,6.913-9.843c-4.317-3.357-12.144,0.317-16.304,2.168 c-11.456,5.098-21.91,13.867-31.151,22.245C229.062,58.854,230.552,60.334,231.552,59.427L231.552,59.427z
M333.129,33.45c-16.611,7.252-32.344,17.332-47.997,26.356c-0.983,0.566-0.442,1.842,0.53,1.956 c13.247,1.555,27.619-3.826,39.177-9.605c1.054-0.527,0.294-2.374-0.81-1.919c-2.856,1.179-17.612,9.008-8.823,12.478 c7.385,2.915,18.284-5.193,23.969-9.206c-0.354-0.604-0.707-1.208-1.061-1.813c-2.392,1.831-6.786,4.991-6.866,8.328 c-0.187,7.831,24.188-1.015,26.375-1.679c-0.27-0.64-0.539-1.279-0.81-1.919c-1.384,1.032-3.972,3.136-2.768,5.09 c1.036,1.682,4.12,1.191,5.674,1.032c6.899-0.705,13.73-2.921,20.344-4.879c-0.341-0.585-0.682-1.17-1.021-1.755 c-1.035,1.303-2.437,3.696-1.011,5.208c1.165,1.234,3.151,1.104,4.682,0.869c5.881-0.9,11.5-3.457,16.926-5.78 c-0.479-0.479-0.958-0.957-1.437-1.437c-1.771,2.36-4.84,6.521-3.708,9.646c2.61,7.205,23.396-6.839,25.714-8.21 c-0.515-0.395-1.028-0.79-1.543-1.186c-0.79,2.629-1.001,6.146,1.127,8.201c1.795,1.734,4.692,1.26,6.85,0.696 c7.01-1.83,13.418-6.896,19.122-11.092c0.901-0.663,0.407-2.296-0.81-1.919c-3.934,1.22-10.297,3.393-11.938,7.594 c-1.161,2.972,1.09,6.795,4.378,6.959c3.428,0.17,7.519-3.822,10.147-5.514c9.478-6.097,19.807-10.634,30.386-14.446 c-0.187-0.675-0.372-1.35-0.559-2.025c-5.72,2.137-22.43,8.097-19.944,16.526c1.647,5.59,9.625,5.009,13.871,3.982 c5.288-1.277,10.506-4.055,14.985-7.103c-0.354-0.604-0.707-1.208-1.061-1.813c-9.792,7.399-19.442,14.994-28.993,22.703 c-13.174,10.635-28.08,21.429-38.538,34.905c0.55,0.424,1.099,0.848,1.648,1.272c3.761-7.68,7.106-15.824,8.972-24.181 c0.781-3.5,1.629-8.251-0.712-11.351c-0.327-0.434-0.725-0.729-1.155-1.048c-0.004-0.003-0.768,0.782,0.244,0.521 c1.357-0.351,2.864-0.3,4.255-0.316c11.301-0.132,22.798,1.796,33.834,4.027c12.28,2.483,25.679,5.735,36.028,13.125 c1.105,0.789,2.152-1.033,1.061-1.813c-10.521-7.512-24.08-10.748-36.531-13.338c-11.391-2.368-23.315-4.231-34.983-4.095 c-1.509,0.018-4.975-0.231-5.919,1.382c-0.331,0.564-0.199,1.271,0.237,1.74c1.548,1.659,2.205,2.553,2.288,4.994 c0.329,9.727-5.244,20.742-9.431,29.291c-0.491,1.003,0.876,2.269,1.648,1.272c10.241-13.195,24.785-23.753,37.662-34.194 c9.686-7.854,19.496-15.567,29.445-23.086c1.052-0.795,0.08-2.589-1.061-1.813c-5.603,3.811-20.277,12.525-25.608,4.683 c-3.756-5.525,14.764-12.925,18.315-14.251c1.253-0.468,0.723-2.487-0.559-2.025c-13.069,4.71-24.811,10.868-36.467,18.312 c-2.371,1.514-4.028,2.32-5.843-0.277c-2.767-3.959,7.985-7.811,10.454-8.576c-0.27-0.64-0.54-1.279-0.81-1.919 c-4.733,3.482-9.569,6.854-14.865,9.434c-2.084,1.015-6.336,3.044-8.562,1.289c-1.646-1.298-1.109-4.418-0.586-6.157 c0.267-0.889-0.761-1.648-1.543-1.186c-1.473,0.87-23.021,13.025-22.747,8.446c0.146-2.43,2.197-5.12,3.614-7.01 c0.715-0.953-0.604-1.793-1.437-1.437c-4.713,2.018-13.162,6.86-18.661,5.507c-1.092-0.269,0.566-2.452,0.609-2.507 c0.608-0.765,0.078-2.08-1.021-1.755c-5.228,1.549-10.477,3.032-15.816,4.144c-2.352,0.489-5.381,1.311-7.782,0.617 c-0.321-0.093,1.602-1.893,1.968-2.166c0.896-0.668,0.413-2.29-0.81-1.919c-6.149,1.868-12.428,3.809-18.838,4.535 c-1.074,0.122-5.433,0.771-4.733-1.302c0.79-2.339,4.142-4.865,5.682-6.045c1.047-0.802,0.063-2.606-1.061-1.813 c-4.924,3.476-10.31,6.681-16.026,8.629c-1.831,0.624-3.823,1.052-5.736,0.597c-3.752-0.895,0.089-4.058,1.348-4.972 c2.083-1.512,4.512-2.707,6.889-3.688c-0.27-0.64-0.539-1.279-0.81-1.919c-11.212,5.606-25.251,10.828-38.116,9.318 c0.177,0.652,0.354,1.305,0.53,1.956c15.652-9.023,31.385-19.103,47.997-26.355C335.428,34.723,334.357,32.914,333.129,33.45 L333.129,33.45z"/>
</svg>