<?xml version="1.0" encoding="UTF-8" standalone="no"?>
<!-- Created with Inkscape (http://www.inkscape.org/) -->

<svg
   xmlns:dc="http://purl.org/dc/elements/1.1/"
   xmlns:cc="http://creativecommons.org/ns#"
   xmlns:rdf="http://www.w3.org/1999/02/22-rdf-syntax-ns#"
   xmlns:svg="http://www.w3.org/2000/svg"
   xmlns="http://www.w3.org/2000/svg"
   xmlns:sodipodi="http://sodipodi.sourceforge.net/DTD/sodipodi-0.dtd"
   xmlns:inkscape="http://www.inkscape.org/namespaces/inkscape"
   width="258.30063"
   height="80.850616"
   id="svg2"
   version="1.1"
   inkscape:version="0.47pre4 r22446"
   sodipodi:docname="Nouveau document 1">
  <defs
     id="defs4">
    <inkscape:perspective
       sodipodi:type="inkscape:persp3d"
       inkscape:vp_x="0 : 526.18109 : 1"
       inkscape:vp_y="0 : 1000 : 0"
       inkscape:vp_z="744.09448 : 526.18109 : 1"
       inkscape:persp3d-origin="372.04724 : 350.78739 : 1"
       id="perspective10" />
    <inkscape:perspective
       id="perspective3384"
       inkscape:persp3d-origin="0.5 : 0.33333333 : 1"
       inkscape:vp_z="1 : 0.5 : 1"
       inkscape:vp_y="0 : 1000 : 0"
       inkscape:vp_x="0 : 0.5 : 1"
       sodipodi:type="inkscape:persp3d" />
  </defs>
  <sodipodi:namedview
     id="base"
     pagecolor="#ffffff"
     bordercolor="#666666"
     borderopacity="1.0"
     inkscape:pageopacity="0.0"
     inkscape:pageshadow="2"
     inkscape:zoom="1.4"
     inkscape:cx="246.52238"
     inkscape:cy="15.485059"
     inkscape:document-units="px"
     inkscape:current-layer="layer1"
     showgrid="false"
     inkscape:window-width="1024"
     inkscape:window-height="715"
     inkscape:window-x="0"
     inkscape:window-y="27"
     inkscape:window-maximized="1" />
  <metadata
     id="metadata7">
    <rdf:RDF>
      <cc:Work
         rdf:about="">
        <dc:format>image/svg+xml</dc:format>
        <dc:type
           rdf:resource="http://purl.org/dc/dcmitype/StillImage" />
        <dc:title></dc:title>
      </cc:Work>
    </rdf:RDF>
  </metadata>
  <g
     inkscape:label="Calque 1"
     inkscape:groupmode="layer"
     id="layer1"
     transform="translate(-97.644381,-493.81243)">
    <g
       id="g4212">
      <path
         id="path3418"
         d="m 334.15625,493.8125 c -1.52829,0.0101 -3.2495,1.062 -5.25,3.0625 -1.95396,1.95396 -3.86704,5.27988 -4.5625,7.84375 -1.479,5.45245 -0.66593,16.6263 1.9375,26.65625 l 1.875,7.21875 -2.8125,-1.46875 c -2.82687,-1.46182 -11.42387,-2.50613 -13.75,-1.6875 -0.6875,0.24195 -1.25,1.01144 -1.25,1.71875 0,1.54753 0.303,1.67 10.71875,4.09375 l 8.25,1.90625 2.03125,4.9375 2.0625,4.9375 -2.78125,2.25 c -1.52608,1.23405 -5.09122,3.40579 -7.9375,4.8125 -9.69428,4.7912 -16.10803,5.75846 -41.09375,6.28125 -22.14834,0.46342 -23.2277,0.39254 -23.25,-1.375 -0.0129,-1.02051 -2.09137,-6.79375 -4.59375,-12.84375 -12.76502,-30.8619 -11.52652,-48.19489 3.5625,-50.21875 2.5332,-0.33978 4.59806,-0.0817 5.5625,0.71875 0.84355,0.70009 1.85166,0.96084 2.25,0.5625 1.36331,-1.3633 -3.14817,-3.5625 -7.3125,-3.5625 -5.34748,0 -10.33955,3.25894 -12.96875,8.5 -4.25699,8.48588 -1.8275,25.13355 6.5,44.5 1.77374,4.125 3.60147,8.9625 4.03125,10.75 0.77781,3.2351 0.7641,3.25 -3.03125,3.25 -2.0971,0 -4.53627,0.2599 -5.40625,0.59375 -2.66352,1.02209 -1.79855,4.04691 1.65625,5.75 5.16408,2.5457 8.741,2.15926 9.96875,-1.09375 l 1.03125,-2.75 17,0.0625 c 28.36349,0.13168 43.55202,-3.00021 54.40625,-11.25 l 3.125,-2.375 2.625,4.4375 c 2.96647,5.0619 6.96762,8.625 9.75,8.625 2.58622,0 1.99703,-4.75231 -1.5,-11.9375 -3.1134,-6.39697 -2.64943,-7.0398 5.0625,-7.0625 2.85504,-0.008 5.46546,-0.46972 5.8125,-1.03125 0.72371,-1.17097 -4.27721,-3.46824 -9.78125,-4.5 -2.0625,-0.38662 -3.7071,-0.99246 -3.6875,-1.34375 0.0196,-0.35129 0.67193,-3.325 1.46875,-6.625 2.06768,-8.56326 1.8163,-14.8978 -1,-26 -2.87114,-11.31838 -5.35652,-16.36591 -8.71875,-16.34375 z m -0.75,2.15625 c 0.46729,0.0142 0.96619,0.45102 1.75,1.34375 3.14736,3.58472 4.13475,6.18667 6.25,16.53125 2.26899,11.09644 2.06507,17.99569 -0.75,25.03125 -0.8292,2.07236 -1.80347,3.7371 -2.15625,3.6875 -0.35278,-0.0496 -2.10574,-0.51985 -3.875,-1.03125 -3.33912,-0.96515 -3.35686,-1.03397 -6.25,-12.875 -3.71342,-15.19829 -2.51647,-25.29824 3.78125,-31.875 0.41876,-0.43731 0.74195,-0.71139 1.0625,-0.78125 0.0668,-0.0145 0.12074,-0.0333 0.1875,-0.0312 z m -19.8125,40.9375 c 1.20786,-0.19653 8.05178,0.94502 10.25,1.8125 2,0.78929 2,0.7871 0,0.75 -2.51512,-0.0466 -9.67896,-1.67897 -10.375,-2.375 -0.088,-0.088 -0.0476,-0.15942 0.125,-0.1875 z m 19.3125,7.125 c 0.17232,-0.0212 0.66067,0.39667 1.5,1.15625 1.07631,0.97404 1.9375,2.38524 1.9375,3.125 0,2.41016 -1.51512,1.40753 -2.71875,-1.78125 -0.64859,-1.7183 -0.9403,-2.47279 -0.71875,-2.5 z m 9.25,1.875 c 2.44416,0.0751 6.1875,1.01784 6.1875,1.84375 0,0.48879 -2.025,0.90625 -4.5,0.90625 -4.2136,0 -5.7495,-1.10973 -3.5,-2.5 0.33668,-0.20808 0.99778,-0.27503 1.8125,-0.25 z m -4.03125,4.8125 c 0.3373,-0.006 0.71807,0.10419 1.15625,0.375 1.86915,1.1552 5.24548,8.6643 4.625,10.28125 -0.32287,0.84139 -0.0643,2.15096 0.5625,2.90625 0.62685,0.75529 0.8872,1.375 0.59375,1.375 -0.98426,0 -5.94666,-6.42707 -7.53125,-9.75 -1.32156,-2.77133 -0.86789,-5.15997 0.59375,-5.1875 z M 253.59375,569.125 c 2.29341,-0.14776 3.4276,1.2599 1.875,2.8125 -1.59921,1.59921 -3.46266,1.65439 -5.46875,0.1875 -1.92429,-1.40708 -1.522,-1.87604 2.53125,-2.84375 0.37,-0.0883 0.73487,-0.13514 1.0625,-0.15625 z"
         style="fill:#000000" />
      <path
         id="path3404"
         d="m 137.78125,518.84375 c -0.4906,0.004 -1.01901,0.0851 -1.53125,0.1875 -8.22776,1.64555 -12.2516,8.54648 -12.125,20.78125 0.0729,7.0471 -0.0893,7.68115 -2.09375,8.21875 -3.80673,1.02099 -6.4768,0.67301 -9.875,-1.3125 -6.05882,-3.54004 -13.643228,-6.10959 -14.40625,-4.875 -0.384623,0.62233 0.314059,1.95783 1.5625,2.96875 2.82937,2.29106 4.75024,2.41872 2.90625,0.1875 -1.22852,-1.4865 -1.16527,-1.5549 0.625,-0.59375 1.1,0.59056 4.7,2.32325 8,3.84375 3.3,1.5205 7.19604,3.62043 8.65625,4.6875 1.46021,1.06707 3.1773,1.61133 3.8125,1.21875 0.80566,-0.49792 0.62983,-1.1137 -0.625,-2.03125 -0.98935,-0.72343 -2.14394,-1.10244 -2.5625,-0.84375 -0.41857,0.25869 -0.78125,0.02 -0.78125,-0.5625 0,-0.58246 0.3375,-1.08675 0.75,-1.09375 0.4125,-0.008 1.7625,-0.26211 3,-0.59375 1.66713,-0.44677 2.25,-0.18996 2.25,1.03125 0,0.9065 0.95709,4.40712 2.09375,7.78125 1.17963,3.50168 1.78552,7.17586 1.4375,8.5625 -0.33535,1.33612 -0.0785,3.07136 0.5625,3.84375 0.64103,0.77239 2.01049,1.40625 3.0625,1.40625 1.58119,0 1.762,-0.33852 0.90625,-1.9375 -2.16372,-4.04295 -1.17848,-7.04502 4.1875,-12.71875 4.84214,-5.11984 5.2766,-5.37009 6.125,-3.46875 1.14458,2.5651 6.51485,4.40572 10.28125,3.53125 1.56788,-0.36403 6.21875,-2.15012 10.34375,-3.96875 8.20839,-3.61895 15,-5.25938 15,-3.65625 0,0.54849 1.64578,2.54634 3.625,4.46875 1.97922,1.92242 4.10398,4.57219 4.75,5.875 0.71886,1.4497 2.2374,2.49385 3.90625,2.6875 3.0014,0.34829 3.55973,-0.8956 1.25,-2.8125 -2.02846,-1.68348 -1.07705,-2.8371 4.1875,-5.09375 6.3358,-2.71584 7.20436,-2.52814 6.65625,1.34375 -0.25303,1.7875 -0.64328,3.8125 -0.875,4.5 -1.38617,4.1127 2.96906,5.60664 6.09375,2.09375 1.89538,-2.13085 1.91215,-2.12822 -0.28125,-0.78125 -3.11854,1.9151 -3.80855,0.63278 -2.5625,-4.8125 0.59553,-2.60262 0.88554,-5.07842 0.625,-5.5 -0.90362,-1.46208 -5.56484,-0.74322 -12.03125,1.84375 l -6.5,2.59375 -2.5,-2.34375 c -4.75538,-4.44743 -5.25141,-8.105 -1.25,-9.375 1.04919,-0.333 1.90625,-1.08369 1.90625,-1.65625 0,-1.23889 -4.83296,-0.20006 -6.84375,1.46875 -0.74713,0.62006 -4.29301,2.38186 -7.90625,3.90625 -4.78128,2.01719 -6.94366,2.46044 -7.875,1.6875 -1.26775,-1.05214 -3.30915,-0.72545 -8.625,1.3125 -2.98846,1.14569 -3.69066,2.8125 -1.1875,2.8125 0.85748,0 1.27742,0.45 0.9375,1 -1.40026,2.26566 -9.5,0.34627 -9.5,-2.25 0,-0.64496 1.68213,-2.88306 3.71875,-4.96875 2.03662,-2.08569 3.15422,-3.78125 2.5,-3.78125 -1.42038,0 -13.69597,10.19345 -17.09375,14.1875 -1.31726,1.54844 -2.76276,2.8125 -3.1875,2.8125 -1.15001,0 -3.96192,-8.15169 -3.71875,-10.78125 0.15467,-1.6726 1.63154,-2.98234 5.5,-4.875 10.09949,-4.94123 14.74143,-12.39027 12.3125,-19.75 -1.34677,-4.08075 -4.15952,-6.4361 -7.59375,-6.40625 z m 0.6875,2.75 c 2.22275,0.008 3.94228,0.88958 4.71875,2.59375 3.14808,6.90928 -0.52356,13.95731 -10.1875,19.5 -6.18749,3.54879 -6.23985,3.55527 -7,0.71875 -2.14601,-8.00778 1.10756,-18.48188 6.59375,-21.21875 2.135,-1.06508 4.14619,-1.5996 5.875,-1.59375 z m 18.96875,30.1875 c 0.3474,-0.0143 0.73281,0.0431 1.09375,0.1875 0.79773,0.31923 0.5712,0.54575 -0.59375,0.59375 -1.05416,0.0434 -1.64479,-0.19896 -1.3125,-0.53125 0.16615,-0.16612 0.4651,-0.2357 0.8125,-0.25 z"
         style="fill:#000000" />
      <path
         id="path3400"
         d="m 162.54467,550.96479 c -0.72188,-0.28888 -1.58438,-0.25335 -1.91667,0.0789 -0.33229,0.33229 0.25834,0.56864 1.3125,0.52522 1.16495,-0.048 1.4019,-0.28494 0.60417,-0.60417 z"
         style="fill:#000000" />
      <path
         id="path3396"
         d="m 264.35717,553.96715 c 0,-3.17247 8.05094,-11.64602 10.25,-10.78805 0.9625,0.37553 1.75,1.13278 1.75,1.68278 0,0.55 -0.62063,0.76184 -1.37919,0.47075 -1.37479,-0.52755 -5.83481,3.5934 -8.96969,8.28778 -1.57494,2.35842 -1.65112,2.37442 -1.65112,0.34674 z"
         style="fill:#000000" />
      <path
         id="path3394"
         d="m 104.85717,547.6479 c -0.33992,-0.55 -0.14148,-1 0.44098,-1 0.58246,0 1.05902,0.45 1.05902,1 0,0.55 -0.19844,1 -0.44098,1 -0.24254,0 -0.7191,-0.45 -1.05902,-1 z"
         style="fill:#000000" />
      <path
         id="path3390"
         d="m 217.02384,523.98123 c -1.28121,-1.2812 -0.65125,-3.86187 1.22941,-5.03636 1.56116,-0.97496 2.20774,-0.83973 3.66053,0.76559 1.8571,2.05207 1.2088,4.10285 -0.69513,2.19892 -1.66705,-1.66705 -4.23008,-0.41054 -2.76456,1.3553 1.13436,1.36682 -0.14102,2.00578 -1.43025,0.71655 z"
         style="fill:#000000" />
    </g>
  </g>
</svg>
