<?xml version="1.0" encoding="UTF-8"?>
<svg version="1.1" xmlns="http://www.w3.org/2000/svg" width="284" height="103" >
<path d="M169.949,0.417c-32.674,30.582-58.635,67.255-89.25,99.75c0.854,0.354,1.707,0.707,2.561,1.061 c0.013-2.443-2.506-4.197-4.429-5.143c-8.865-4.36-20.935-2.482-30.299-1.791c-8.133,0.601-16.132,1.818-24.183,3.045 c-3.122,0.476-6.3,0.518-9.445,0.736c-2.466,0.172-4.932,0.329-7.403,0.409c-1.024,0.033-2.045,0.014-3.069-0.023 c-2.489-0.091-0.753-0.581-1.444,0.757c1.937-3.753,7.602-6.463,11.064-8.388c9.332-5.189,19.767-8.265,30.162-10.459 c13.726-2.896,27.892-3.517,41.864-4.26c34.447-1.834,68.962-2.635,103.45-3.209c15.445-0.258,30.893-0.438,46.34-0.425 c8.496,0.007,17.147-0.256,25.618,0.558c1.798,0.173,1.424-2.444,0.625-2.254c-1.882,0.447-1.084,3.34,0.797,2.893 c1.834-0.436,2.544-2.587,0.483-3.343c-1.844-0.677-4.324-0.481-6.247-0.56c-10.892-0.444-21.818-0.322-32.715-0.268 c-34.656,0.174-69.319,0.937-103.954,2.141c-30.851,1.072-64.182,0.254-93.704,10.368c-7.29,2.497-14.475,5.797-20.739,10.321 c-2.046,1.479-5.709,3.837-6.023,6.644c-0.644,5.754,32.733-0.01,37.643-0.621c11.296-1.407,23.542-2.966,34.843-1.065 c2.09,0.352,7.773,1.995,7.764,3.937c-0.006,1.282,1.656,2.021,2.561,1.061c30.615-32.494,56.576-69.167,89.25-99.75 C173.485,1.214,171.359-0.903,169.949,0.417L169.949,0.417z"/>
<path d="M153.464,29.971c-5.491,7.493-10.913,15.191-15.351,23.362c-1.133,2.086-3.603,5.959-2.149,8.401 c0.9,1.513,2.748,1.627,4.242,1.183c1.044-0.311,1.928-1.099,2.77-1.754c0.44-0.367,0.872-0.745,1.294-1.132 c0.804-0.72-0.33-2.599-0.141-0.304c0.444,5.376,3.419,6.486,8.043,4.014c2.561-1.369,15.73-2.776,10.647-9.324 c-3.202-4.125-8.957,0.828-10.186,4.28c-0.611,1.716,0.187,4.195,1.46,5.395c1.929,1.817,5.241-0.334,6.922-1.319 c-0.734-0.564-1.469-1.129-2.203-1.693c-0.935,3.301,1.639,5.06,4.672,4.077c4.817-1.561,6.136-8.648,5.221-12.828 c-0.914,0.385-1.827,0.771-2.741,1.156c2.576,4.474,8.597,4.766,12.959,6.189c2.554,0.834,0.559,2.302-0.476,3.539 c-1.105,1.321-2.205,2.646-3.301,3.976c-2.248,2.728-4.453,5.49-6.568,8.321c-0.898,1.202-5.669,6.841-1.988,7.854 c3.289,0.904,7.441-6.618,8.115-8.987c0.531-1.864-2.364-2.654-2.893-0.797c-0.623,2.187-2.479,4.276-3.948,5.923 c-0.945,1.059-0.097,2.826,0.884,1.07c0.535-0.958,1.2-1.852,1.834-2.745c3.246-4.575,6.941-8.853,10.538-13.153 c7.913-9.461-9.472-7.33-12.566-12.703c-0.875-1.52-3.098-0.474-2.741,1.156c0.537,2.453,0.132,4.411-0.965,6.637 c0.796-1.615-4.08,5.425-3.143,2.112c0.36-1.271-1.072-2.356-2.203-1.693c-1.242,1.249-2.573,1.181-3.993-0.205 c0.375-0.776,0.75-1.552,1.125-2.328c1.228-1.691,2.091-1.366,2.591,0.974c-1.73,1.183-4.626,0.776-6.563,1.595 c-1.904,0.804-5.239,3.065-5.533-0.49c-0.076-0.922-0.093-1.935-0.575-2.757c-0.781-1.333-2.393-0.77-3.328,0.008 c-1.156,0.962-2.211,2.003-3.47,2.839c-2.222,1.475-0.728-1.49-0.398-2.256c4.011-9.328,10.719-17.921,16.695-26.077 C157.2,29.922,154.595,28.428,153.464,29.971L153.464,29.971z"/>
<path d="M202.706,35.377c1.096-2.976,2.188-6.055,3.849-8.768c-0.635-0.124-1.271-0.248-1.905-0.371 c-0.111,0.482-0.251,0.957-0.418,1.423c-0.549,1.705-1.406,3.314-2.218,4.904c-1.829,3.583-4.087,6.941-6.405,10.22 c-2.941,4.16-8.563,8.981-9.9,14.041c-0.667,2.521,1.32,4.694,4.056,3.759c2.051-0.701,5.985-2.425,6.135,1.098 c0.048,1.106,1.091,2.169,2.141,2.423c3.387,0.818,5.587-0.664,8.191-2.791c8.332-6.803,15.146-17.498,18.976-27.437 c0.614-1.594-1.979-2.659-2.741-1.156c-2.94,5.803-5.988,11.564-9.273,17.18c-1.804,3.082-9.446,10.487-1.246,10.327 c0.776-0.016,6.898-1.865,6.898-1.865c0.354,0.926,0.768,1.827,1.668,2.354c2.692,1.577,2.22,3.023,0.793,5.187 c-1.425,2.161-2.858,4.313-4.009,6.637c-0.791,1.596-1.255,4.567,1.408,4.567c2.897,0,5.429-4.316,6.851-6.373 c1.104-1.596-1.498-3.094-2.59-1.514c-1.021,1.476-2.143,2.847-3.401,4.124c0.019,1.531,0.268,1.482,0.745-0.145 c0.497-1.003,1.121-1.952,1.71-2.901c1.388-2.235,4.306-5.188,4.306-7.997c0-3.545-3.699-2.433-4.588-4.737 c-0.812-2.104-2.138-2.482-4.276-2.037c-1.013,0.378-2.024,0.757-3.036,1.137c-0.02,0.007-3.77,1.69-2.856,0.914 c0.608-0.518,1.084-1.292,1.546-1.932c1.763-2.444,3.215-5.136,4.689-7.758c2.526-4.49,4.924-9.058,7.252-13.654 c-0.914-0.385-1.827-0.771-2.741-1.156c-3.827,9.934-11.077,21.362-20,27.459c-1.347,0.921-3.508,1.525-3.276-0.765 c0.154-1.517-1.146-2.45-2.271-3.091c-1.836-1.046-4.077-0.47-5.874,0.255c-4.328,1.744,0.167-3.189,1.118-4.457 c4.488-5.979,9.032-11.798,12.593-18.402c1.075-1.994,4.266-7.016,2.839-9.451c-2.679-4.573-7.111,8.544-7.629,9.951 C199.143,36.399,202.043,37.176,202.706,35.377L202.706,35.377z"/>
<path d="M255.464,39.721c-1.443,2.516-2.954,4.993-4.504,7.444c-1.796,2.842-4.617,5.405-6.19,8.269 c-0.609,1.108,0.394,2.616,1.693,2.203c3.683-1.168,7.29-4.635,10.729-6.453c3.063-1.619,6.382-3.008,9.848-3.416 c1.712-0.201,4.683-0.294,1.934,1.595c-1.778,1.223-3.779,2.148-5.722,3.069c-4.248,2.014-6.648,5.811-1.44,8.311 c2.378,1.142,5.134,1.392,7.721,1.664c3.261,0.344,9.009-0.335,11.666,1.881c1.475,1.23,3.608-0.881,2.121-2.121 c-4.75-3.963-13.527-2.15-19.209-3.751c-4.064-1.146,0.181-3.168,1.876-3.972c1.885-0.894,3.688-1.932,5.406-3.113 c1.354-0.931,3.168-2.497,2.653-4.368c-1.364-4.96-12.057-1.185-14.803-0.047c-2.935,1.215-5.708,2.79-8.419,4.434 c-1.476,0.896-3.875,2.986-5.158,3.393c0.564,0.734,1.129,1.469,1.693,2.203c1.156-2.103,4.033-4.955,5.58-7.316 c1.794-2.74,3.485-5.555,5.114-8.396C259.018,39.554,256.426,38.043,255.464,39.721L255.464,39.721z"/>
</svg>