<?xml version="1.0" encoding="utf-8"?>
<!-- Generator: Adobe Illustrator 15.1.0, SVG Export Plug-In . SVG Version: 6.00 Build 0)  -->
<!DOCTYPE svg PUBLIC "-//W3C//DTD SVG 1.1//EN" "http://www.w3.org/Graphics/SVG/1.1/DTD/svg11.dtd">
<svg version="1.1" id="Layer_1" xmlns="http://www.w3.org/2000/svg" xmlns:xlink="http://www.w3.org/1999/xlink" x="0px" y="0px"
	 width="412.766px" height="172.786px" viewBox="0 0 412.766 172.786" enable-background="new 0 0 412.766 172.786"
	 xml:space="preserve">
<g>
	<g>
		<path fill-rule="evenodd" clip-rule="evenodd" d="M256.08,41.28c0.872,4.968,0.766,10.915,1.2,16.32l-2.04-0.12l-1.561,1.32
			c-0.278-0.201-0.643-0.316-1.199-0.24l-0.993-1.32l-1.647,0.12c0.47-5.354,0.39-11.195,0.48-16.32l2.87,0.36L256.08,41.28z"/>
		<path fill-rule="evenodd" clip-rule="evenodd" d="M246.016,80.734l1.664-0.094c-0.689,3.47-1.288,7.031-4.56,7.919
			c-3.266-0.015-4.127-2.433-4.32-5.52l2.72,0.08l1.12-2.48c1.125,0.245,1.365-0.395,1.92-0.72L246.016,80.734z"/>
		<path fill-rule="evenodd" clip-rule="evenodd" d="M236.338,68.942L234.72,70.8c-0.278-0.201-0.644-0.316-1.2-0.24L232.2,68.7
			l-2.28-0.06c1.195-5.364,0.979-12.142,1.68-18l2.78,1.08l2.98-0.12c0.639,5.601,0.763,11.716,1.439,17.28L236.338,68.942z"/>
		<path fill-rule="evenodd" clip-rule="evenodd" d="M309.12,54.24c1,0.727,0.854,3.032,0.24,4.08
			c-1.259,0.604-2.755,0.056-3.36-0.72C305.787,55.227,306.648,53.928,309.12,54.24z"/>
		<path fill-rule="evenodd" clip-rule="evenodd" d="M190.32,72.48c2.679,1.721,5.197,3.604,5.52,7.68l-2.492,0.431l-1.588,1.969
			c-0.24,0-0.48,0-0.72,0l-1.86-2.28l-2.94,0.12c0.027-2.107,0.04-4.2-0.24-6l2.603,0.037L190.32,72.48z"/>
		<path fill-rule="evenodd" clip-rule="evenodd" d="M287.04,66.72c0.753-1.647,1.543-3.257,3.12-4.08c0.56,0,1.12,0,1.68,0
			c1.452,1.03,2.764,3.474,1.92,6l-2.52-1.046l0.12,2.726c-0.24,0-0.48,0-0.721,0l-1.128-2.472L287.04,66.72z"/>
		<path fill-rule="evenodd" clip-rule="evenodd" d="M291.821,74.963l1.459,0.637c-0.297,1.285-1.078,2.885-0.48,4.32l-2.52,1.585
			l0.12,2.975c-0.641,0-1.28,0-1.92,0l0.119-2.972l-2.76-1.108c0.735-1.638-0.606-2.783-0.479-4.56l2.931,0.038l1.629-2.438
			c0.279-0.039,0.428,0.053,0.48,0.24c0.43,0.03,0.506-0.294,0.96-0.24L291.821,74.963z"/>
		<path fill-rule="evenodd" clip-rule="evenodd" d="M297.48,82.44l-1.08-2.28c0.298-0.502,0.697-0.902,1.199-1.2l2.28,1.56
			l2.76-0.12c0.187,0.214,0.259,0.542,0.24,0.96l-2.324,1.866l-1.275,2.694c-0.888-0.472-1.908-0.812-2.88-1.2L297.48,82.44z"/>
		<path fill-rule="evenodd" clip-rule="evenodd" d="M305.889,84.138L304.32,81.6c0.526-0.433,0.983-0.937,1.68-1.2l1.992,2.232
			L310.8,81.6c0.214,0.106,0.43,0.21,0.48,0.48l-0.819,2.801L312,87.36c-1.574,1.514-4.439,0.786-6-0.24L305.889,84.138z"/>
		<path fill-rule="evenodd" clip-rule="evenodd" d="M315.72,83.469l-2.04-2.109c0.474-0.647,1.092-1.148,1.92-1.44l1.213,2.599
			l2.867,0.041c0,0.08,0,0.16,0,0.24l-3.179,0.458L315.84,86.4c-0.08,0-0.16,0-0.24,0L315.72,83.469z"/>
		<path fill-rule="evenodd" clip-rule="evenodd" d="M323.56,87.16l-0.76-2.68c1.787-1.253,2.925-3.155,5.04-4.08l1.825,2.04
			l2.735-0.12c0.235,0.388,0.64,0.553,0.96,0.24l1.816,2.057l2.743,0.103c0.225,0.176,0.363,0.436,0.48,0.72l-1.98,1.74l0.54,2.58
			c-3.732,1.681-11.856,2.859-14.88-0.24L323.56,87.16z"/>
		<path fill-rule="evenodd" clip-rule="evenodd" d="M275.537,86.143L274.8,88.56c-1.687-0.362-2.722-0.014-4.56,0l-0.12-2.879
			L270,82.8c0.878,0.158,0.921-0.519,1.68-0.48l2.4,1.11l2.4-1.11c0.381,0.659,0.518,1.562,0.96,2.16L275.537,86.143z"/>
		<path fill-rule="evenodd" clip-rule="evenodd" d="M272.28,74.76l-1.561-2.52c2.889-1.705,7.622-0.266,8.16,2.64
			c-0.18,1.661-0.816,2.864-1.68,3.84l-2.521-1.56l-2.76,1.08c-0.346-0.135-0.586-0.375-0.72-0.72L272.28,74.76z"/>
		<path fill-rule="evenodd" clip-rule="evenodd" d="M162.24,78.72c0.52,1.959-0.104,5.063,1.2,6.24l-2.19,1.95l-0.69,2.85
			c-0.48,0-0.96,0-1.44,0l-0.39-2.707L156,86.88c0.684-2.61-0.551-4.714-0.96-6.96l1.74-0.57l-0.06-1.83
			c0.176-0.224,0.436-0.364,0.72-0.48l1.934,2.173L162.24,78.72z"/>
		<path fill-rule="evenodd" clip-rule="evenodd" d="M162.75,87.81l0.69-2.85c0.916,0.116,1.532-0.068,1.92-0.48l1.92,2.16l2.88-0.24
			c0.499,0.701,0.089,2.311,0.48,3.12l-2.246,1.425L168.24,93.6c-3.514-0.326-6.289-1.391-7.68-3.84L162.75,87.81z"/>
		<path fill-rule="evenodd" clip-rule="evenodd" d="M147.45,89.7l-0.81,2.22c-1.51-0.65-3.511-0.81-5.76-0.72l-1.08-2.76
			l-1.56-2.521c1.065-0.454,0.797-2.242,1.2-3.36l2.932,0.12l2.108-2.04c0.586,0.134,0.511,0.929,1.44,0.72l1.36,1.813l2.24,0.347
			c-0.501,1.46-0.728,3.638,0,5.04L147.45,89.7z"/>
		<path fill-rule="evenodd" clip-rule="evenodd" d="M138.618,88.955l1.542,2.485c-2.56,2.863-7.857,0.938-7.2-3.601l2.462-0.062
			l1.618-1.857c0.193,0.127,0.39,0.25,0.72,0.24L138.618,88.955z"/>
		<path fill-rule="evenodd" clip-rule="evenodd" d="M321.6,117.84c0.641,0,1.28,0,1.92,0l-0.036,2.604l1.957,1.717
			c-0.28,0.439-0.628,0.812-0.96,1.2l-2.433-1.517l-2.848,0.316c-0.326-0.074-0.199-0.601-0.24-0.96l2.76-0.549L321.6,117.84z"/>
		<path fill-rule="evenodd" clip-rule="evenodd" d="M322.2,151.5l2.04,1.38c-1.374,1.826-1.887,4.514-5.28,4.32
			c-2.972-0.549-3.058-3.983-3.84-6.72l2.796-0.532l2.484-1.389c0.388,0.412,1.004,0.597,1.92,0.48L322.2,151.5z"/>
		<path fill-rule="evenodd" clip-rule="evenodd" d="M317.203,148.069l-2.803,0.971c-1.369-1.831-2.04-4.36-2.881-6.72l2.28-0.84
			l0.84-2.28c0.32,0,0.641,0,0.96,0l0.931,2.76l2.91-0.12c0.088,2.152,0.472,4.008,0.72,6L317.203,148.069z"/>
		<path fill-rule="evenodd" clip-rule="evenodd" d="M303.971,128.27l-1.811,2.051c-3.65-3.261-3.774-12.517,0.24-15.36l1.775,2.016
			l2.544,0.864c0.254,2.387,0.745,4.535,1.92,6l-1.56,2.28l0.12,2.76c-0.315,0.085-0.378,0.423-0.72,0.48L303.971,128.27z"/>
		<path fill-rule="evenodd" clip-rule="evenodd" d="M317.64,130.611l-0.12-2.932c0.431,0.031,0.507-0.293,0.961-0.239l1.397,2.598
			L322.08,132c-0.309,0.571-0.615,1.145-0.96,1.68l-2.438-0.641l-2.122,1.361c-0.379-0.501-0.782-0.979-0.96-1.681L317.64,130.611z"
			/>
		<g>
			<path fill-rule="evenodd" clip-rule="evenodd" fill="none" stroke="#000000" stroke-width="3.2664" stroke-linecap="round" d="
				M62.64,40.455c14.41-5.845,27.655-14.878,42.597-19.331c1.107,0.249,2.043,0.984,2.786,1.819
				c4.822,7.992,6.061,17.348,7.949,26.31c0.025,0.077,0.062,0.158,0.101,0.239c2.954,16.963,11.106,32.87,11.962,50.123
				c-2.201,15.613-17.073,25.157-30.662,30.274c-12.589,4.524-27.165,3.689-40.055,0.624c-0.925-0.331-1.917-0.423-2.891-0.486
				c-0.077-0.024-0.16-0.062-0.243-0.101c-1.221-0.069-2.417-0.269-3.614-0.468c-3.581-1.325-7.279-2.249-11.069-2.731
				c-8.985-4.041-19.83-6.024-26.44-13.789c-0.04-0.119-0.041-0.22-0.041-0.318"/>
			<path fill-rule="evenodd" clip-rule="evenodd" fill="none" stroke="#000000" stroke-width="2.9017" stroke-linecap="round" d="
				M275.64,118.68c-15.138-16.446-18.32-39.887-20.399-61.2"/>
			<path fill-rule="evenodd" clip-rule="evenodd" fill="none" stroke="#000000" stroke-width="3.7317" stroke-linecap="round" d="
				M241.52,83.12c-3.488-3.996-3.206-9.525-5.182-14.178"/>
			<path fill-rule="evenodd" clip-rule="evenodd" fill="none" stroke="#000000" stroke-width="3.3865" stroke-linecap="round" d="
				M225.591,91.32c3.865-7.046,4.364-15.142,6.609-22.62"/>
			<path fill-rule="evenodd" clip-rule="evenodd" fill="none" stroke="#000000" stroke-width="5.3895" stroke-linecap="round" d="
				M234.38,51.72c0.086-1.521-0.037-3.068-0.31-4.573"/>
			<path fill-rule="evenodd" clip-rule="evenodd" fill="none" stroke="#000000" stroke-width="2.2863" stroke-linecap="round" d="
				M246.016,80.734c2.909-7.597,2.353-15.93,5.472-23.494"/>
			<path fill-rule="evenodd" clip-rule="evenodd" fill="none" stroke="#000000" stroke-width="5.119" stroke-linecap="round" d="
				M253.19,41.4c-0.089-1.42-0.072-2.853-0.197-4.276"/>
			<path fill-rule="evenodd" clip-rule="evenodd" fill="none" stroke="#000000" stroke-width="4.7185" stroke-linecap="round" d="
				M205.475,93.805c-0.076-0.012-0.143-0.023-0.209-0.035c-9.885,3.562-8.853-7.031-11.918-13.179"/>
			<path fill-rule="evenodd" clip-rule="evenodd" fill="none" stroke="#000000" stroke-width="5.0963" stroke-linecap="round" d="
				M185.64,94.26c0.549-4.793,1.559-9.552,3.54-13.98"/>
			<path fill-rule="evenodd" clip-rule="evenodd" fill="none" stroke="#000000" stroke-width="3.9849" stroke-linecap="round" d="
				M166.954,72.188c-0.021-0.087-0.026-0.128-0.03-0.167c2.074-3.719,3.204-8.671,7.112-10.84
				c8.196-1.59,12.874,6.501,14.566,13.255"/>
			<path fill-rule="evenodd" clip-rule="evenodd" fill="none" stroke="#000000" stroke-width="4.5681" stroke-linecap="round" d="
				M299.88,80.52c0.167-0.719,0.336-1.454,0.765-2.071"/>
			<path fill-rule="evenodd" clip-rule="evenodd" fill="none" stroke="#000000" stroke-width="4.3057" stroke-linecap="round" d="
				M309.6,78.12c-0.822,1.378-1.135,2.992-1.607,4.512"/>
			<path fill-rule="evenodd" clip-rule="evenodd" fill="none" stroke="#000000" stroke-width="4.9053" stroke-linecap="round" d="
				M310.461,84.881c1.76-0.434,3.555-0.79,5.259-1.412"/>
			<path fill-rule="evenodd" clip-rule="evenodd" fill="none" stroke="#000000" stroke-width="4.1622" stroke-linecap="round" d="
				M316.812,82.519c0.568-1.127,1.16-2.256,1.603-3.439"/>
			<path fill-rule="evenodd" clip-rule="evenodd" fill="none" stroke="#000000" stroke-width="4.3836" stroke-linecap="round" d="
				M329.665,82.44c1.228-4.375,8.292-1.92,5.512,2.177"/>
			<path fill-rule="evenodd" clip-rule="evenodd" fill="none" stroke="#000000" stroke-width="3.8692" stroke-linecap="round" d="
				M399.144,89.973c-9.285-0.539-18.631-0.36-27.83-1.808c-11.593-1.145-23.375-0.468-34.894-0.985"/>
			<path fill-rule="evenodd" clip-rule="evenodd" fill="none" stroke="#000000" stroke-width="4.6283" stroke-linecap="round" d="
				M323.56,87.16c-2.966,0.174-5.347-1.667-7.059-3.903"/>
			<path fill-rule="evenodd" clip-rule="evenodd" fill="none" stroke="#000000" stroke-width="5.5979" stroke-linecap="round" d="
				M305.889,84.138c-1.805,0.424-3.887,0.427-5.333-0.912"/>
			<path fill-rule="evenodd" clip-rule="evenodd" fill="none" stroke="#000000" stroke-width="4.459" stroke-linecap="round" d="
				M297.48,82.44c-2.438,0.148-5.06,0.539-7.2-0.935"/>
			<path fill-rule="evenodd" clip-rule="evenodd" fill="none" stroke="#000000" stroke-width="4.0433" stroke-linecap="round" d="
				M288.6,81.508c-3.636,2.797-8.14,7.992-13.062,4.635"/>
			<path fill-rule="evenodd" clip-rule="evenodd" fill="none" stroke="#000000" stroke-width="4.5583" stroke-linecap="round" d="
				M270.12,85.68c-6.357-1.135-4.371-12.054,2.16-10.92"/>
			<path fill-rule="evenodd" clip-rule="evenodd" fill="none" stroke="#000000" stroke-width="4.652" stroke-linecap="round" d="
				M288.291,75.878c-1.692-2.518-0.94-6.03,1.221-8.03"/>
			<path fill-rule="evenodd" clip-rule="evenodd" fill="none" stroke="#000000" stroke-width="2.278" stroke-linecap="round" d="
				M291.821,74.963c1.856-2.039,1.247-5.493-0.581-7.369"/>
			<path fill-rule="evenodd" clip-rule="evenodd" fill="none" stroke="#000000" stroke-width="4.5122" stroke-linecap="round" d="
				M274.08,83.43c0.26-2.085,0.35-4.18,0.6-6.27"/>
			<path fill-rule="evenodd" clip-rule="evenodd" fill="none" stroke="#000000" stroke-width="5.5977" stroke-linecap="round" d="
				M161.25,86.91c0.5,0.3,1,0.6,1.5,0.899"/>
			<path fill-rule="evenodd" clip-rule="evenodd" fill="none" stroke="#000000" stroke-width="4.6079" stroke-linecap="round" d="
				M167.28,86.64c0.242-0.52,0.401-1.066,0.54-1.62"/>
			<path fill-rule="evenodd" clip-rule="evenodd" fill="none" stroke="#000000" stroke-width="4.2813" stroke-linecap="round" d="
				M170.55,92.25c-0.733-0.41-1.429-0.884-2.156-1.306"/>
			<path fill-rule="evenodd" clip-rule="evenodd" fill="none" stroke="#000000" stroke-width="3.6625" stroke-linecap="round" d="
				M135.422,87.777c-2.157-3.365-1.452-7.354-1.681-11.083"/>
			<path fill-rule="evenodd" clip-rule="evenodd" fill="none" stroke="#000000" stroke-width="5.8493" stroke-linecap="round" d="
				M138.618,88.955c0.533-0.235,0.736-0.312,1.182-0.515"/>
			<path fill-rule="evenodd" clip-rule="evenodd" fill="none" stroke="#000000" stroke-width="5.1166" stroke-linecap="round" d="
				M142.372,82.68c-0.155-0.381-0.315-0.759-0.455-1.146"/>
			<path fill-rule="evenodd" clip-rule="evenodd" fill="none" stroke="#000000" stroke-width="3.5719" stroke-linecap="round" d="
				M147.28,83.173c1.351-3.914,5.794-6.776,9.5-3.823"/>
			<path fill-rule="evenodd" clip-rule="evenodd" fill="none" stroke="#000000" stroke-width="4.413" stroke-linecap="round" d="
				M159.374,79.213c0.804-2.578,1.398-5.374,1.307-8.053"/>
			<path fill-rule="evenodd" clip-rule="evenodd" fill="none" stroke="#000000" stroke-width="3.7387" stroke-linecap="round" d="
				M147.45,89.7c3.599,4.978,8.959,1.424,11.28-2.647"/>
			<path fill-rule="evenodd" clip-rule="evenodd" fill="none" stroke="#000000" stroke-width="5.7249" stroke-linecap="round" d="
				M317.916,149.948c-0.219-0.634-0.507-1.241-0.713-1.879"/>
			<path fill-rule="evenodd" clip-rule="evenodd" fill="none" stroke="#000000" stroke-width="3.6989" stroke-linecap="round" d="
				M313.8,141.48c-3.553-4.104-7.951-8.062-9.829-13.211"/>
			<path fill-rule="evenodd" clip-rule="evenodd" fill="none" stroke="#000000" stroke-width="4.2886" stroke-linecap="round" d="
				M304.176,116.976c4.774-6.632,13.763-1.348,17.544,3.676"/>
			<path fill-rule="evenodd" clip-rule="evenodd" fill="none" stroke="#000000" stroke-width="4.8398" stroke-linecap="round" d="
				M320.903,129.216c0.734-2.408,0.345-4.974,1.145-7.372"/>
			<path fill-rule="evenodd" clip-rule="evenodd" fill="none" stroke="#000000" stroke-width="3.2407" stroke-linecap="round" d="
				M320.903,129.216c1.778,0.488,3.409,1.441,5.184,1.903c1.318-0.683,2.719-1.19,4.033-1.879"/>
			<path fill-rule="evenodd" clip-rule="evenodd" fill="none" stroke="#000000" stroke-width="5.8886" stroke-linecap="round" d="
				M320.903,129.216c-0.32,0.298-0.69,0.54-1.025,0.822"/>
			<path fill-rule="evenodd" clip-rule="evenodd" fill="none" stroke="#000000" stroke-width="3.5614" stroke-linecap="round" d="
				M322.2,151.5c0.078-0.04,0.156-0.08,0.234-0.12c7.535-7.81,17.2-18.648,12.862-30.254c-2.945-3.802-7.926-3.544-11.487-0.821
				c-0.113,0.047-0.22,0.093-0.326,0.139"/>
			<path fill-rule="evenodd" clip-rule="evenodd" fill="none" stroke="#000000" stroke-width="3.9124" stroke-linecap="round" d="
				M316.53,141.96c2.056-2.45,2.437-5.848,2.151-8.921"/>
			<path fill-rule="evenodd" clip-rule="evenodd" fill="none" stroke="#000000" stroke-width="4.6517" stroke-linecap="round" d="
				M317.64,130.611c-3.775-0.875-6.956-3.197-10.56-4.491"/>
		</g>
	</g>
</g>
</svg>
