<?xml version="1.0" encoding="UTF-8" standalone="no"?>
<!-- Created with Inkscape (http://www.inkscape.org/) -->

<svg
   xmlns:dc="http://purl.org/dc/elements/1.1/"
   xmlns:cc="http://creativecommons.org/ns#"
   xmlns:rdf="http://www.w3.org/1999/02/22-rdf-syntax-ns#"
   xmlns:svg="http://www.w3.org/2000/svg"
   xmlns="http://www.w3.org/2000/svg"
   xmlns:sodipodi="http://sodipodi.sourceforge.net/DTD/sodipodi-0.dtd"
   xmlns:inkscape="http://www.inkscape.org/namespaces/inkscape"
   width="315"
   height="91"
   id="svg2"
   version="1.1"
   inkscape:version="0.48.0 r9654"
   sodipodi:docname="Kamehameha_V_1870_signature.svg"
   style="display:inline">
  <defs
     id="defs4" />
  <sodipodi:namedview
     id="base"
     pagecolor="#ffffff"
     bordercolor="#666666"
     borderopacity="1.0"
     inkscape:pageopacity="0.0"
     inkscape:pageshadow="2"
     inkscape:zoom="1.6920635"
     inkscape:cx="54.422024"
     inkscape:cy="59.515477"
     inkscape:document-units="px"
     inkscape:current-layer="layer4"
     showgrid="false"
     fit-margin-top="0"
     fit-margin-left="0"
     fit-margin-right="0"
     fit-margin-bottom="0"
     inkscape:window-width="1440"
     inkscape:window-height="820"
     inkscape:window-x="-8"
     inkscape:window-y="-8"
     inkscape:window-maximized="1" />
  <metadata
     id="metadata7">
    <rdf:RDF>
      <cc:Work
         rdf:about="">
        <dc:format>image/svg+xml</dc:format>
        <dc:type
           rdf:resource="http://purl.org/dc/dcmitype/StillImage" />
        <dc:title></dc:title>
      </cc:Work>
    </rdf:RDF>
  </metadata>
  <g
     inkscape:groupmode="layer"
     id="layer4"
     inkscape:label="Warstwa">
    <path
       style="font-size:medium;font-style:normal;font-variant:normal;font-weight:normal;font-stretch:normal;text-indent:0;text-align:start;text-decoration:none;line-height:normal;letter-spacing:normal;word-spacing:normal;text-transform:none;direction:ltr;block-progression:tb;writing-mode:lr-tb;text-anchor:start;baseline-shift:baseline;color:#000000;fill:#000000;fill-opacity:1;stroke:none;stroke-width:1.50000000000000000;marker:none;visibility:visible;display:inline;overflow:visible;enable-background:accumulate;font-family:Sans;-inkscape-font-specification:Sans"
       d="M 294.75 12.78125 C 292.52116 12.71144 289.98497 13.832514 287.34375 15.5625 C 283.82212 17.869148 280.01547 21.35361 276.28125 25.25 C 271.26524 30.483852 266.51129 36.321156 262.875 40.9375 C 260.53165 42.370899 257.9748 43.820188 255.71875 44.875 C 254.37585 45.502869 253.14957 45.993813 252.15625 46.25 C 251.16293 46.506187 250.43885 46.463504 250.1875 46.34375 C 250.06182 46.28387 250.0172 46.25629 249.96875 46.125 C 249.92025 45.993708 249.90035 45.718624 249.96875 45.3125 C 250.10547 44.500253 250.61398 43.177186 251.6875 41.34375 A 0.750075 0.750075 0 1 0 250.40625 40.59375 C 249.28623 42.506604 248.66232 43.912493 248.46875 45.0625 C 248.37195 45.637503 248.3892 46.155217 248.5625 46.625 C 248.73586 47.094783 249.10073 47.482383 249.53125 47.6875 C 250.39228 48.097733 251.39007 47.981821 252.53125 47.6875 C 253.67243 47.393179 254.98185 46.870114 256.375 46.21875 C 257.64741 45.623839 258.99921 44.909957 260.34375 44.15625 C 259.67585 45.021348 258.93501 45.978255 258.4375 46.625 A 0.750075 0.750075 0 1 0 259.625 47.53125 C 260.66339 46.181368 262.19944 44.230435 263.90625 42.0625 C 267.06876 40.119747 269.79005 38.252355 270.875 37.46875 C 272.7885 36.086721 274.98443 35.06629 277.125 33.75 C 274.47779 39.088057 273.06031 45.43859 272.4375 50.875 C 272.3677 51.483989 272.20051 53.160788 272.03125 54.78125 C 271.94665 55.591481 271.8711 56.400131 271.78125 57 C 271.73635 57.299935 271.69535 57.545867 271.65625 57.71875 C 271.6367 57.805191 271.60791 57.902464 271.59375 57.9375 C 270.58091 59.178933 268.05656 59.997862 266.25 60.84375 C 259.39316 64.054342 246.39903 62.145928 230.6875 60.09375 C 214.97592 58.041572 196.48197 55.962767 178.21875 59.375 A 0.750075 0.750075 0 0 0 178 59.46875 C 177.45892 59.793413 177.16112 60.281719 176.875 60.84375 C 176.58888 61.405781 176.35626 62.054 176.09375 62.71875 C 175.56873 64.048249 174.97489 65.438384 174.53125 65.9375 C 173.29656 67.326584 170.42333 68.579502 168.46875 69.3125 C 168.52715 69.2906 168.11713 69.40034 167.6875 69.46875 C 167.25787 69.53716 166.73618 69.61956 166.21875 69.6875 C 165.24757 69.815018 164.45262 69.924976 164.34375 69.9375 C 164.34375 69.9375 164.21905 69.937517 164.21875 69.9375 C 163.9959 69.92461 80.160222 65.071724 41.09375 66.75 C 41.05669 66.7516 41.00573 66.7484 40.96875 66.75 C 37.953023 66.3814 32.434225 66.855318 26.96875 67.75 C 21.44693 68.653905 16.157492 69.905424 13.71875 71.40625 C 11.789423 72.593576 11.19373 74.344302 10.78125 75.90625 C 10.36877 77.468198 10.069068 78.837134 8.90625 80 C 8.7060847 80.200173 8.1532474 80.702921 7.65625 81.125 C 7.64938 81.1308 7.631864 81.1192 7.625 81.125 A 0.750075 0.750075 0 0 0 6.65625 81.34375 C 6.444728 81.633213 6.2914969 81.85498 6.1875 82.0625 C 6.135502 82.16626 6.089007 82.253168 6.0625 82.4375 C 6.049247 82.52967 6.038464 82.644274 6.09375 82.8125 C 6.149036 82.980726 6.3236616 83.190954 6.5 83.28125 C 6.8526768 83.461842 7.0357536 83.35202 7.15625 83.3125 C 7.2767464 83.27298 7.3540443 83.23495 7.4375 83.1875 C 7.6044114 83.0926 7.7581581 82.978541 7.9375 82.84375 C 8.6548677 82.304587 9.5797535 81.451512 9.96875 81.0625 C 11.473499 79.557689 11.824291 77.77496 12.21875 76.28125 C 12.613209 74.78754 12.983424 73.620815 14.5 72.6875 C 16.378491 71.531458 21.775523 70.10979 27.21875 69.21875 C 32.661977 68.32771 38.336595 67.883564 40.90625 68.21875 A 0.750075 0.750075 0 0 0 41.03125 68.21875 C 79.882736 66.533688 164.25 71.40625 164.25 71.40625 A 0.750075 0.750075 0 0 0 164.375 71.40625 C 164.375 71.40625 165.35602 71.294148 166.40625 71.15625 C 166.93137 71.0873 167.48406 71.009698 167.9375 70.9375 C 168.39094 70.8653 168.67183 70.84182 169 70.71875 C 171.00124 69.968252 174.00016 68.80068 175.65625 66.9375 C 176.47575 66.015529 176.94852 64.598606 177.46875 63.28125 C 177.72886 62.622572 177.9801 62.000026 178.21875 61.53125 C 178.43547 61.105556 178.62744 60.870855 178.6875 60.8125 C 196.60231 57.503302 214.86494 59.520311 230.5 61.5625 C 246.18985 63.611845 259.18796 65.786817 266.875 62.1875 C 268.51564 61.4193 271.37485 60.708606 272.84375 58.75 C 273.08441 58.429111 273.07189 58.297416 273.125 58.0625 C 273.1781 57.827584 273.2019 57.539646 273.25 57.21875 C 273.3461 56.576959 273.44547 55.758759 273.53125 54.9375 C 273.70281 53.294983 273.84726 51.577438 273.90625 51.0625 C 274.54714 45.468289 276.01017 38.783584 278.78125 33.5625 C 279.93878 33.053765 281.68308 32.066309 283.8125 30.65625 C 286.27263 29.027204 289.10936 26.928426 291.65625 24.78125 C 294.20314 22.634074 296.43122 20.453558 297.65625 18.46875 C 298.26876 17.476346 298.66156 16.523449 298.59375 15.5625 C 298.52595 14.601551 297.89642 13.71661 296.875 13.25 C 296.2047 12.943789 295.49295 12.804521 294.75 12.78125 z M 294.65625 14.28125 C 295.24126 14.287964 295.78006 14.410321 296.25 14.625 C 296.92973 14.935518 297.06217 15.208667 297.09375 15.65625 C 297.12535 16.103833 296.93137 16.836694 296.40625 17.6875 C 295.35601 19.389111 293.17557 21.558656 290.6875 23.65625 C 288.19943 25.753844 285.3854 27.805991 282.96875 29.40625 C 281.96367 30.071795 281.03737 30.616008 280.21875 31.09375 C 280.23768 31.060595 280.26593 31.035874 280.28125 31 C 280.46648 30.56634 280.62483 30.079651 280.75 29.625 C 280.87517 29.170349 280.95221 28.774427 281 28.4375 C 281.0239 28.269037 281.04245 28.118305 281.03125 27.9375 C 281.02525 27.8471 281.04865 27.765387 280.90625 27.53125 C 280.83505 27.414182 280.67936 27.216242 280.4375 27.15625 C 280.19564 27.09626 279.959 27.18414 279.84375 27.25 C 279.40501 27.500717 279.187 27.903281 279.0625 28.28125 C 278.938 28.659219 278.90976 29.046182 278.875 29.40625 C 278.8402 29.766318 278.81545 30.111052 278.78125 30.375 C 278.74705 30.638948 278.67687 30.828826 278.6875 30.8125 C 278.6491 30.87132 278.56535 31.028686 278.5625 31.03125 C 276.10327 33.244644 272.91678 34.143354 270 36.25 C 269.41409 36.673172 268.18532 37.52195 266.75 38.46875 C 269.89752 34.588083 273.56734 30.252914 277.34375 26.3125 C 281.03517 22.460768 284.804 19.008211 288.15625 16.8125 C 290.67044 15.165717 292.90123 14.261108 294.65625 14.28125 z M 93.0625 20.125 C 90.689417 20.0811 88.434971 21.102451 86.28125 22.15625 C 83.409621 23.561316 80.665834 24.998985 78 24.59375 A 0.750075 0.750075 0 1 0 77.78125 26.0625 C 81.08916 26.565337 84.102821 24.886986 86.9375 23.5 C 89.772179 22.113014 92.36338 21.021304 94.96875 21.96875 C 96.429546 22.49997 96.844288 23.296256 96.875 24.5 C 96.90571 25.703744 96.353302 27.322265 95.46875 28.96875 C 93.699645 32.261719 90.628662 35.689612 89.28125 36.8125 C 85.284191 40.143518 81.947051 43.604508 77.40625 45.875 C 75.346663 46.904836 69.328392 49.940848 63.4375 52.625 C 60.492054 53.967076 57.591422 55.231332 55.25 56.09375 C 54.079289 56.524959 53.021597 56.865634 52.21875 57.0625 C 51.415903 57.259366 50.815874 57.274282 50.71875 57.25 C 49.651335 56.983135 49.089371 56.606935 48.84375 56.28125 C 48.598129 55.955565 48.537441 55.624669 48.6875 55.09375 C 48.987618 54.031911 50.296111 52.434352 51.9375 50.9375 C 53.578889 49.440648 55.548946 48.009591 57.09375 46.9375 C 57.866152 46.401454 58.520963 45.934585 59 45.625 C 59.239518 45.470208 59.429594 45.364846 59.5625 45.28125 C 59.62895 45.23945 59.682907 45.2098 59.71875 45.1875 C 59.75459 45.1652 59.72585 45.16061 59.78125 45.125 A 0.750075 0.750075 0 1 0 58.96875 43.875 C 59.01823 43.84319 58.97495 43.8829 58.9375 43.90625 C 58.90002 43.92957 58.85001 43.95675 58.78125 44 C 58.64374 44.08649 58.432717 44.216525 58.1875 44.375 C 57.697067 44.69195 57.007481 45.140122 56.21875 45.6875 C 54.641288 46.782256 52.660109 48.27283 50.9375 49.84375 C 49.214891 51.41467 47.72239 53.01615 47.25 54.6875 C 47.013805 55.523175 47.109023 56.461894 47.65625 57.1875 C 48.203477 57.913106 49.085062 58.372815 50.34375 58.6875 C 51.008119 58.853599 51.700523 58.71903 52.59375 58.5 C 53.486977 58.280972 54.547568 57.942893 55.75 57.5 C 58.154864 56.614215 61.09847 55.350543 64.0625 54 C 69.990559 51.298913 76.042285 48.244524 78.09375 47.21875 C 81.223806 45.653659 83.751409 43.580145 86.21875 41.4375 C 85.208655 43.310415 84.346759 45.649137 83.65625 48.6875 C 83.16643 50.842794 81.619581 53.54613 82.5625 56.375 C 82.748893 56.934201 82.985498 57.345572 83.3125 57.65625 C 83.639502 57.966928 84.041702 58.125722 84.375 58.1875 C 85.041596 58.311057 85.470822 58.2354 85.875 58.4375 C 87.481361 59.240713 89.193979 59.128374 90.78125 58.53125 C 92.368521 57.934126 93.872168 56.871646 95.21875 55.65625 C 95.56643 55.342441 95.891596 55.015684 96.21875 54.6875 C 97.118054 55.452932 98.378088 55.529393 99.59375 55.28125 C 100.88617 55.017439 102.26617 54.400411 103.59375 53.65625 C 104.88715 52.931245 106.11418 52.091393 107.15625 51.3125 C 106.8772 51.870696 106.52985 52.496772 106.3125 52.96875 C 106.07473 53.485085 105.87987 53.94641 105.75 54.3125 C 105.6851 54.495545 105.658 54.646107 105.625 54.8125 C 105.592 54.978893 105.45276 55.120439 105.6875 55.53125 C 106.11668 56.28234 107.00867 56.655336 107.8125 56.59375 C 108.61633 56.53216 109.40324 56.181668 110.28125 55.6875 C 112.03727 54.699164 114.04717 53.065275 116 51.34375 C 117.95283 49.622225 119.85564 47.831686 121.28125 46.5625 C 121.67294 46.213788 121.90959 46.034171 122.21875 45.78125 C 122.17375 45.87241 122.1759 45.934669 122.125 46.03125 C 121.64341 46.943714 120.92611 48.078752 120.1875 49.1875 C 119.44889 50.296248 118.69805 51.366718 118.15625 52.21875 C 117.88535 52.644766 117.6523 52.995592 117.5 53.3125 C 117.4239 53.470954 117.38432 53.623512 117.34375 53.8125 C 117.32345 53.90699 117.2899 54.026894 117.3125 54.1875 C 117.3351 54.348106 117.42143 54.597314 117.625 54.75 C 117.6256 54.750451 117.93654 54.874805 117.9375 54.875 C 117.93846 54.875195 118.07855 54.8771 118.125 54.875 C 118.2179 54.8708 118.27457 54.85434 118.3125 54.84375 C 118.3884 54.82256 118.4044 54.82764 118.4375 54.8125 C 118.5037 54.78222 118.56703 54.75188 118.625 54.71875 C 118.74095 54.65249 118.88666 54.549441 119.0625 54.4375 C 119.41418 54.213618 119.88828 53.920402 120.46875 53.53125 C 121.62969 52.752946 123.16117 51.679695 124.75 50.59375 C 126.33883 49.507805 127.97988 48.401071 129.3125 47.5 C 129.3942 47.44478 129.3892 47.42868 129.46875 47.375 C 129.29314 47.609651 129.20977 47.754138 129.03125 48 C 128.231 49.102142 127.43453 50.246115 127 51.3125 C 126.78273 51.845693 126.63976 52.380963 126.71875 52.9375 C 126.79775 53.494037 127.25578 54.042353 127.84375 54.21875 C 128.74139 54.488053 129.67498 54.24366 130.59375 53.84375 C 131.51252 53.443839 132.44828 52.853855 133.34375 52.1875 C 134.9387 51.000636 136.24631 49.711664 137.125 48.84375 C 136.90863 49.560968 136.66609 50.29259 136.625 50.9375 C 136.5956 51.399606 136.62 51.835551 136.75 52.25 C 136.88022 52.664449 137.15489 53.093062 137.59375 53.3125 C 138.66196 53.846628 139.82382 53.813195 140.875 53.46875 C 141.92618 53.124305 142.90663 52.499909 143.84375 51.75 C 145.08088 50.760012 146.03478 49.738913 147.0625 48.71875 C 147.0117 48.853441 146.91878 49.028084 146.875 49.15625 C 146.71609 49.621499 146.60261 50.04524 146.5625 50.4375 C 146.5424 50.63363 146.54825 50.816677 146.59375 51.03125 C 146.63925 51.245823 146.75321 51.533652 147 51.71875 C 147.4352 52.045167 147.97605 52.165141 148.46875 52.0625 C 148.96145 51.959859 149.37984 51.674762 149.75 51.34375 C 150.49033 50.681726 151.12109 49.728779 151.6875 48.6875 C 152.25391 47.646221 152.7582 46.535819 153.125 45.59375 C 153.4918 44.651681 153.69794 43.95823 153.78125 43.5 A 0.750075 0.750075 0 1 0 152.3125 43.21875 C 152.2869 43.359775 152.06692 44.137031 151.71875 45.03125 C 151.37058 45.925469 150.89918 47.005117 150.375 47.96875 C 149.85082 48.932383 149.24551 49.775646 148.75 50.21875 C 148.50224 50.440302 148.30583 50.569099 148.1875 50.59375 C 148.1408 50.60345 148.0942 50.56478 148.0625 50.5625 C 148.0854 50.366619 148.1475 50.047807 148.28125 49.65625 C 148.55746 48.847571 149.04194 47.757941 149.59375 46.6875 C 149.90675 46.080325 150.23471 45.562501 150.5625 45 C 150.8767 44.594567 151.3527 44.174407 151.59375 43.8125 C 151.93169 43.305133 152.19685 42.882605 152.375 42.5625 C 152.4641 42.402448 152.54586 42.252518 152.59375 42.15625 C 152.61775 42.10812 152.63745 42.07464 152.65625 42.03125 C 152.66525 42.00956 152.6691 41.99646 152.6875 41.9375 C 152.6925 41.92276 152.6805 41.90426 152.6875 41.875 C 152.6945 41.84574 152.71875 41.719261 152.71875 41.71875 C 152.71875 41.718495 152.6875 41.531416 152.6875 41.53125 C 152.68746 41.531084 152.46884 41.156327 152.46875 41.15625 C 152.46866 41.156173 151.87514 40.968737 151.875 40.96875 C 151.87486 40.968763 151.59393 41.0624 151.59375 41.0625 C 151.2469 41.260706 151.08606 41.473919 150.84375 41.78125 C 150.60144 42.088581 150.34618 42.46737 150.0625 42.90625 C 149.83333 43.260784 149.5864 43.742495 149.34375 44.15625 C 148.83675 44.800005 148.39973 45.443065 147.75 46 C 146.29043 47.251112 144.62398 49.187924 142.90625 50.5625 C 142.04739 51.249788 141.18795 51.806356 140.40625 52.0625 C 139.62455 52.318644 138.93798 52.312751 138.25 51.96875 C 138.2353 51.96145 138.20365 51.96335 138.15625 51.8125 C 138.10885 51.661644 138.1031 51.374016 138.125 51.03125 C 138.1687 50.345719 138.39972 49.40824 138.75 48.46875 C 139.01228 47.765283 139.37891 47.141344 139.71875 46.53125 C 140.04381 46.245469 140.2706 46.015544 140.5625 45.75 C 141.07081 45.287593 141.48003 44.935486 141.75 44.5625 C 141.8175 44.46925 141.87964 44.371971 141.9375 44.1875 C 141.9664 44.09526 142.00025 43.964071 141.96875 43.78125 C 141.93725 43.598429 141.79091 43.395044 141.625 43.28125 C 141.29319 43.053662 141.11087 43.132112 140.96875 43.15625 C 140.82663 43.18039 140.6951 43.20027 140.5625 43.25 C 139.77328 43.54597 139.28369 44.231445 138.75 45.0625 C 138.64513 45.225795 138.57018 45.448602 138.46875 45.625 C 137.75337 46.250405 136.9835 46.922732 136.53125 47.375 C 135.73399 48.172288 134.11589 49.751045 132.4375 51 C 131.59831 51.624478 130.75073 52.141981 130 52.46875 C 129.24927 52.795519 128.63477 52.887311 128.28125 52.78125 C 128.11724 52.73204 128.2014 52.81686 128.1875 52.71875 C 128.1736 52.62064 128.2089 52.313929 128.375 51.90625 C 128.70724 51.090892 129.47486 49.942552 130.25 48.875 C 131.02514 47.807448 131.82339 46.791457 132.3125 46.09375 C 132.43478 45.919323 132.53929 45.774231 132.625 45.625 C 132.7107 45.475769 132.78052 45.376093 132.8125 45.0625 C 132.8285 44.905704 132.8175 44.598831 132.5625 44.375 C 132.30705 44.151169 132.01864 44.135635 131.875 44.15625 C 131.58773 44.19748 131.46274 44.302537 131.28125 44.40625 C 130.80579 44.677954 129.80703 45.345102 128.46875 46.25 C 127.13047 47.154898 125.49461 48.258128 123.90625 49.34375 C 122.5168 50.293418 121.24466 51.172675 120.15625 51.90625 C 120.56909 51.289034 120.96674 50.706664 121.4375 50 C 122.18538 48.877341 122.93699 47.726286 123.46875 46.71875 C 123.73463 46.214982 123.92943 45.748082 124.0625 45.3125 C 124.19557 44.876918 124.31615 44.444813 124.0625 43.9375 C 123.95008 43.712654 123.67311 43.514044 123.4375 43.46875 C 123.20189 43.42346 123.01541 43.45533 122.875 43.5 C 122.59419 43.58934 122.37981 43.730789 122.125 43.90625 C 121.61537 44.257172 121.01119 44.787651 120.28125 45.4375 C 118.82136 46.737198 116.92341 48.523166 115 50.21875 C 113.07659 51.914334 111.11887 53.49903 109.5625 54.375 C 108.78431 54.812985 108.10743 55.061577 107.6875 55.09375 C 107.36271 55.11863 107.27594 55.02005 107.15625 54.875 C 107.16625 54.84536 107.1757 54.84599 107.1875 54.8125 C 107.28932 54.525459 107.46002 54.087741 107.6875 53.59375 C 108.14247 52.605767 108.79315 51.314372 109.46875 50.03125 C 109.81596 49.371809 110.13224 48.836781 110.46875 48.21875 C 110.51995 48.1552 110.53915 48.13016 110.59375 48.0625 C 111.01183 47.544291 111.50823 46.956623 111.96875 46.40625 C 112.37185 45.924502 112.72608 45.521443 113 45.25 C 113.14471 45.26139 113.33073 45.28675 113.5625 45.125 C 113.82172 44.944098 113.9375 44.579375 113.9375 44.375 C 113.9375 44.206362 113.9168 43.930579 113.625 43.6875 C 113.33322 43.444421 112.95245 43.504014 112.78125 43.5625 C 112.73235 43.57921 112.7283 43.60699 112.6875 43.625 C 112.5655 43.58033 112.45324 43.5612 112.28125 43.53125 C 112.25185 43.52615 112.19095 43.56602 112.15625 43.5625 C 111.02397 41.871741 109.10087 41.202855 107.09375 41.375 C 104.90873 41.562404 102.54108 42.554012 100.46875 43.9375 C 98.396424 45.320988 96.607826 47.102749 95.625 48.96875 C 95.133587 49.90175 94.83892 50.875875 94.875 51.84375 C 94.896257 52.413995 95.042189 52.974972 95.3125 53.5 C 94.95885 53.862154 94.594793 54.223091 94.21875 54.5625 C 92.958308 55.700148 91.567613 56.660571 90.25 57.15625 C 88.932387 57.651929 87.720059 57.688178 86.53125 57.09375 C 85.709562 56.682889 84.977356 56.778269 84.65625 56.71875 C 84.495697 56.68899 84.431865 56.64622 84.34375 56.5625 C 84.255635 56.478784 84.137194 56.2866 84 55.875 C 83.315687 53.82198 84.561292 51.51166 85.125 49.03125 C 86.110358 44.695497 87.381354 41.911222 88.90625 40 C 90.431146 38.088778 92.219444 37.021177 94.3125 36.09375 C 98.498613 34.238896 103.96449 33.098126 110.03125 27.53125 A 0.750075 0.750075 0 0 0 109.40625 26.21875 A 0.750075 0.750075 0 0 0 109.03125 26.4375 C 103.21933 31.770528 98.100563 32.763335 93.6875 34.71875 C 93.507876 34.798341 93.333365 34.885524 93.15625 34.96875 C 94.441548 33.443544 95.790081 31.590607 96.8125 29.6875 C 97.762214 27.919724 98.417407 26.099624 98.375 24.4375 C 98.33259 22.775376 97.377598 21.256655 95.46875 20.5625 C 94.656136 20.266992 93.853528 20.139635 93.0625 20.125 z M 242.0625 28.25 C 242.06243 28.250013 241.90634 28.31246 241.90625 28.3125 C 241.90608 28.312572 241.75023 28.37484 241.75 28.375 C 241.74954 28.37533 241.67415 28.45035 241.65625 28.46875 C 241.63825 28.48715 241.6336 28.48983 241.625 28.5 C 241.5905 28.54068 241.5748 28.5765 241.5625 28.59375 C 241.538 28.62826 241.5256 28.64846 241.5 28.6875 C 241.4487 28.76558 241.3785 28.863834 241.3125 28.96875 C 241.1805 29.178582 241.07974 29.353808 241 29.5 C 240.25303 30.869506 239.08615 32.168539 237.8125 33.1875 C 237.24382 33.642461 236.00267 34.770002 234.34375 36.25 C 232.68483 37.729998 230.65333 39.530771 228.625 41.21875 C 226.59667 42.906729 224.55634 44.483727 222.96875 45.5 C 222.17496 46.008136 221.47343 46.396665 221 46.5625 C 220.77846 46.6401 220.64658 46.65295 220.5625 46.65625 C 220.19957 46.261722 220.06608 45.690338 220.25 44.84375 C 220.42998 44.015322 220.93116 43.026029 221.5 42.125 C 222.02819 41.746435 222.72826 41.302136 223.15625 40.96875 C 223.78169 40.481558 224.30158 40.049536 224.65625 39.6875 C 224.83358 39.506482 224.97329 39.362563 225.09375 39.15625 C 225.15395 39.053094 225.22369 38.912609 225.25 38.71875 C 225.2763 38.524891 225.2 38.200034 225 38 C 224.793 37.792991 224.49715 37.692553 224.25 37.6875 C 224.00285 37.6824 223.78438 37.73333 223.59375 37.8125 C 223.2125 37.970847 222.8664 38.243876 222.5 38.5625 C 221.79138 39.17872 221.04225 40.056692 220.375 41.0625 C 219.43945 41.726111 218.61303 42.352055 217.5 43.0625 C 215.66525 44.233615 213.70811 45.402985 212.03125 46.25 C 210.45749 47.044938 209.16252 47.442267 208.625 47.5 C 208.631 47.182043 208.73555 46.624567 208.90625 46.03125 C 209.08397 45.413543 209.31109 44.770702 209.5 44.21875 C 209.5944 43.942774 209.68515 43.68582 209.75 43.46875 C 209.8149 43.25168 209.875 43.13785 209.875 42.84375 C 209.875 42.584419 209.77074 42.188313 209.46875 41.96875 C 209.16676 41.749187 208.84955 41.774022 208.625 41.8125 C 208.17589 41.88945 207.81659 42.077448 207.375 42.34375 C 206.49182 42.876354 205.38696 43.733356 204.25 44.59375 C 203.11304 45.454144 201.96741 46.324722 201.0625 46.90625 C 200.90474 47.007632 200.8271 47.044219 200.6875 47.125 C 200.911 46.646218 201.1678 46.101775 201.46875 45.53125 C 201.83606 44.83494 202.2159 44.152502 202.5 43.625 C 202.64205 43.361249 202.75794 43.139317 202.84375 42.96875 C 202.88665 42.88347 202.9061 42.824428 202.9375 42.75 C 202.9532 42.71279 202.9804 42.66328 203 42.59375 C 203.01 42.55899 203.02495 42.52971 203.03125 42.4375 C 203.03425 42.39139 203.0189 42.314657 203 42.21875 C 202.991 42.1708 202.9377 42.062988 202.9375 42.0625 C 202.93727 42.062012 202.81283 41.844077 202.8125 41.84375 C 202.35809 41.389321 201.65854 41.289485 201.09375 41.40625 C 200.52896 41.523015 200.01036 41.798526 199.4375 42.15625 C 198.29179 42.871697 197.02526 43.949486 195.84375 45.0625 C 195.03407 45.825234 194.3861 46.485108 193.71875 47.15625 C 193.76375 47.07824 193.7668 47.013172 193.8125 46.9375 C 194.10373 46.455781 194.40765 46.037064 194.625 45.6875 C 194.73367 45.512718 194.83072 45.347138 194.90625 45.1875 C 194.94405 45.10768 194.9714 45.04315 195 44.90625 C 195.0287 44.76935 195.081 44.45598 194.78125 44.15625 C 194.47252 43.847503 194.18746 43.910871 194.0625 43.9375 C 193.93754 43.96413 193.84844 43.9995 193.78125 44.03125 C 193.64686 44.09475 193.54818 44.15939 193.40625 44.25 C 193.1224 44.43122 192.76891 44.699447 192.34375 45 C 191.49342 45.601105 190.35781 46.370131 189.21875 47.09375 C 188.07969 47.817369 186.90674 48.471901 186 48.78125 C 185.54663 48.935924 185.16863 49.014347 184.9375 49 C 184.70637 48.98565 184.65843 48.93431 184.59375 48.84375 C 184.18058 48.265291 184.10358 47.670658 184.21875 46.96875 C 184.24754 46.793273 184.28562 46.621801 184.34375 46.4375 C 184.5722 46.266099 184.81014 46.12082 185.03125 45.9375 C 186.01971 45.11799 186.93047 44.184109 187.4375 43.09375 C 187.58086 42.78545 187.65714 42.460473 187.71875 42.125 C 188.24177 41.719616 188.76566 41.384884 189.21875 41.15625 A 0.750075 0.750075 0 1 0 188.53125 39.84375 C 188.24117 39.990125 187.92872 40.180842 187.625 40.375 C 187.52945 40.093326 187.39847 39.800836 187.21875 39.53125 C 187.06134 39.29512 186.78657 39.12427 186.53125 39.0625 C 186.27593 39.00073 186.0545 39.0163 185.84375 39.0625 C 185.42225 39.15489 185.01695 39.369099 184.59375 39.625 C 183.74734 40.136802 182.78804 40.89807 181.84375 41.71875 C 180.89946 42.53943 179.98424 43.412957 179.28125 44.09375 C 178.92975 44.434146 178.62539 44.720309 178.40625 44.9375 C 178.18711 45.154691 178.0081 45.333641 178.03125 45.3125 A 0.750075 0.750075 0 0 0 177.9375 45.4375 C 177.9162 45.45477 177.86455 45.45215 177.84375 45.46875 C 177.67188 45.605564 177.50573 45.757963 177.34375 45.9375 C 177.01978 46.296573 176.69131 46.759938 176.34375 47.21875 C 175.99619 47.677562 175.63991 48.157219 175.34375 48.53125 C 175.04759 48.905281 174.75688 49.182682 174.75 49.1875 C 174.60566 49.288542 173.83324 49.378861 173.1875 49.15625 C 172.86463 49.044944 172.57226 48.872953 172.40625 48.71875 C 172.24024 48.564547 172.1875 48.481895 172.1875 48.40625 C 172.1875 48.37232 172.1965 48.33354 172.1875 48.28125 C 172.1785 48.22896 172.1255 48.063501 172.125 48.0625 C 172.12454 48.0615 171.93818 47.813094 171.9375 47.8125 C 171.93682 47.811906 171.59464 47.656449 171.59375 47.65625 C 171.5933 47.65615 171.438 47.625 171.4375 47.625 C 171.437 47.624997 171.3504 47.64995 171.3125 47.65625 C 171.2368 47.66886 171.19957 47.66906 171.15625 47.6875 C 171.06965 47.72437 171.00314 47.7555 170.96875 47.78125 C 170.8312 47.884249 170.81934 47.921942 170.78125 47.96875 C 170.70505 48.06237 170.66244 48.150465 170.59375 48.25 C 170.52505 48.34954 170.45809 48.45505 170.40625 48.53125 C 170.39025 48.5547 170.3868 48.57666 170.375 48.59375 C 170.368 48.60443 170.34865 48.618 170.34375 48.625 C 169.08761 49.877309 168.35338 50.40625 166.59375 50.40625 C 166.51545 50.40625 166.51865 50.39635 166.53125 50.40625 C 166.54385 50.41615 166.5272 50.42013 166.5 50.34375 C 166.4455 50.190995 166.418 49.8173 166.4375 49.40625 C 166.457 48.9952 166.52895 48.553145 166.53125 48.15625 C 166.53225 47.957803 166.51715 47.775789 166.40625 47.5 C 166.35075 47.362106 166.24068 47.191554 166.03125 47.0625 C 165.82182 46.933446 165.55642 46.898622 165.375 46.9375 C 164.22655 47.183606 163.11534 48.075968 162 48.96875 C 162.33744 48.52601 162.58248 48.081158 162.96875 47.65625 C 165.40278 44.978704 168.61323 42.309278 171.15625 39.28125 C 172.59784 38.069939 174.23767 36.765242 175.375 35.71875 C 176.46659 34.714341 177.37444 33.793486 178.03125 33.03125 C 178.35965 32.650132 178.6123 32.329314 178.8125 32 C 179.0127 31.670686 179.1875 31.366499 179.1875 30.9375 C 179.1875 30.692779 178.91465 30.302802 178.6875 30.21875 C 178.46035 30.1347 178.33015 30.14291 178.25 30.15625 C 178.0897 30.18294 178.02226 30.24327 177.9375 30.28125 C 177.76798 30.35721 177.59393 30.45781 177.375 30.59375 C 176.93715 30.86563 176.36484 31.261617 175.71875 31.78125 C 174.42656 32.820516 172.88233 34.300905 171.78125 36.03125 C 171.1784 36.97863 170.23268 37.848101 169.4375 38.75 C 168.3484 39.656059 167.49674 40.445201 166.34375 41.375 C 163.3635 43.778346 160.29329 46.175318 157.8125 48.125 C 155.33171 50.074682 153.4801 51.555231 152.75 52.25 A 0.750075 0.750075 0 1 0 153.78125 53.3125 C 154.33175 52.788637 156.27141 51.260455 158.75 49.3125 C 159.55619 48.678902 160.62313 47.839205 161.53125 47.125 C 160.44668 48.401673 159.52116 49.710796 158.75 50.8125 C 158.7875 50.75897 158.56234 50.997395 158.375 51.1875 C 158.2813 51.28255 158.18634 51.353049 158.0625 51.625 C 158.0315 51.69299 158.0082 51.762305 158 51.90625 C 157.992 52.050195 158.0327 52.274853 158.15625 52.4375 C 158.40342 52.762793 158.67363 52.75 158.8125 52.75 C 159.52545 52.75 159.96456 52.396839 160.53125 52 C 161.09794 51.603161 161.69874 51.106603 162.34375 50.59375 C 163.35673 49.788317 164.25019 49.242999 164.96875 48.875 C 164.95595 49.044543 164.9464 49.154349 164.9375 49.34375 C 164.9147 49.82403 164.9062 50.318429 165.09375 50.84375 C 165.18755 51.106411 165.35977 51.385308 165.625 51.59375 C 165.89023 51.802192 166.24742 51.90625 166.59375 51.90625 C 168.69567 51.90625 170.00903 51.034824 171.34375 49.71875 C 171.36645 49.74156 171.3518 49.79085 171.375 49.8125 C 171.74747 50.158482 172.20767 50.397083 172.6875 50.5625 C 173.64717 50.893333 174.72135 51.048203 175.59375 50.4375 C 175.95729 50.183012 176.21104 49.841902 176.53125 49.4375 C 176.54825 49.41603 176.57655 49.39684 176.59375 49.375 C 176.67065 49.513756 176.65915 49.689706 176.78125 49.78125 C 177.12368 50.038082 177.52243 50.167025 177.90625 50.15625 C 178.29007 50.14547 178.61419 50.023797 178.875 49.875 C 179.39662 49.577406 179.77275 49.207379 180.0625 49.0625 C 180.4254 48.881041 181.46491 48.331999 182.65625 47.59375 C 182.68053 48.326342 182.90582 49.061759 183.375 49.71875 C 183.72135 50.203661 184.30334 50.466456 184.84375 50.5 C 185.38416 50.53354 185.93643 50.41102 186.5 50.21875 C 187.62714 49.834207 188.84565 49.128182 190.03125 48.375 C 190.80551 47.883131 191.43091 47.433682 192.09375 46.96875 C 191.62226 47.824155 191.1875 48.761349 191.1875 49.75 C 191.1875 49.84237 191.19455 49.963412 191.28125 50.125 C 191.36775 50.286588 191.57068 50.477292 191.75 50.53125 C 192.10864 50.639165 192.27365 50.51692 192.375 50.46875 C 192.5777 50.37241 192.67722 50.270977 192.8125 50.15625 C 193.08306 49.926796 193.40259 49.595937 193.8125 49.1875 C 194.63232 48.370625 195.725 47.239572 196.875 46.15625 C 198.025 45.072928 199.24254 44.047103 200.21875 43.4375 C 200.5771 43.213726 200.837 43.123737 201.09375 43.03125 C 200.82003 43.538252 200.47563 44.179054 200.125 44.84375 C 199.75053 45.553632 199.38562 46.28175 199.125 46.875 C 198.99469 47.171625 198.88182 47.409656 198.8125 47.65625 C 198.7778 47.779547 198.7575 47.907557 198.75 48.0625 C 198.742 48.217443 198.7219 48.471936 199 48.75 C 199.24651 48.996517 199.59512 49.071707 199.84375 49.0625 C 200.09238 49.0533 200.28748 48.98718 200.5 48.90625 C 200.92504 48.744399 201.3793 48.506057 201.875 48.1875 C 202.86641 47.550387 204.02128 46.64014 205.15625 45.78125 C 206.26432 44.942715 207.33919 44.18114 208.09375 43.71875 C 207.90776 44.26217 207.66302 44.949735 207.46875 45.625 C 207.27448 46.300265 207.11919 46.974742 207.125 47.59375 C 207.128 47.903254 207.1691 48.208342 207.375 48.53125 C 207.58093 48.854158 208.01743 49.09375 208.40625 49.09375 C 209.56254 49.09375 210.9742 48.443707 212.71875 47.5625 C 214.4633 46.681293 216.44542 45.535505 218.3125 44.34375 C 218.62503 44.144262 218.82123 43.980625 219.125 43.78125 C 219.0393 44.037224 218.83688 44.275205 218.78125 44.53125 C 218.53137 45.681448 218.64182 46.923036 219.5 47.78125 C 219.78347 48.064736 220.19347 48.155168 220.53125 48.15625 C 220.86903 48.15735 221.16275 48.08688 221.5 47.96875 C 222.1745 47.732483 222.93516 47.322865 223.78125 46.78125 C 225.20863 45.867533 226.93447 44.466122 228.65625 43.0625 C 227.92421 43.977548 227.32843 44.870215 227.03125 45.6875 C 226.94125 45.935102 226.80756 46.193982 226.6875 46.40625 C 226.56744 46.618518 226.46179 46.747043 226.375 46.90625 C 226.3533 46.94605 226.32775 46.92635 226.28125 47.15625 C 226.27525 47.18499 226.28425 47.23395 226.28125 47.28125 C 226.27825 47.32855 226.28113 47.468124 226.28125 47.46875 C 226.28137 47.469376 226.40596 47.749584 226.40625 47.75 C 226.40654 47.750416 226.71828 47.999796 226.71875 48 C 226.71922 48.000204 227.0306 48.06251 227.03125 48.0625 C 227.0319 48.06249 227.17254 48.0439 227.21875 48.03125 C 227.31115 48.00594 227.37124 47.98819 227.40625 47.96875 C 227.54628 47.89097 227.55688 47.87671 227.59375 47.84375 C 227.63065 47.81079 227.6463 47.75886 227.6875 47.71875 C 227.85229 47.558313 228.11371 47.29256 228.5625 46.84375 A 0.750075 0.750075 0 0 0 228.6875 45.90625 C 229.08617 45.036132 229.93037 43.809679 231.21875 42.40625 C 232.62639 40.87292 234.38257 39.161267 236.09375 37.5 C 237.80493 35.838733 239.45503 34.206116 240.71875 32.78125 C 241.35061 32.068817 241.89027 31.426203 242.28125 30.8125 C 242.55797 30.37815 242.64332 29.959533 242.75 29.53125 C 242.757 29.52445 242.745 29.50498 242.75 29.5 C 242.7624 29.48113 242.77395 29.4796 242.78125 29.46875 C 242.80865 29.43644 242.78225 29.43601 242.78125 29.4375 C 242.81175 29.290467 242.9375 29.155099 242.9375 29 C 242.9375 28.999893 242.93751 28.875083 242.9375 28.875 C 242.93749 28.874917 242.875 28.656309 242.875 28.65625 C 242.87497 28.656191 242.65629 28.406285 242.65625 28.40625 C 242.65621 28.406215 242.34381 28.250011 242.34375 28.25 C 242.34369 28.249989 242.06257 28.249987 242.0625 28.25 z M 186.03125 40.59375 C 186.17162 40.852873 186.24584 41.10117 186.28125 41.34375 C 185.42807 42.060162 184.62143 42.927719 183.96875 43.875 C 183.60384 44.40462 183.32387 44.98195 183.09375 45.5625 C 181.53841 46.659032 179.91266 47.465534 179.40625 47.71875 C 178.82745 48.008162 178.4049 48.402812 178.125 48.5625 C 178.02148 48.62156 177.9845 48.61494 177.9375 48.625 C 178.0722 48.397699 178.29105 48.072308 178.5625 47.75 C 178.86238 47.393934 179.18536 47.091626 179.40625 46.71875 C 179.50905 46.545218 179.64122 46.315837 179.5625 45.90625 C 179.77028 45.700612 180.00525 45.453797 180.3125 45.15625 C 181.00381 44.486769 181.93113 43.636906 182.84375 42.84375 C 183.75637 42.050594 184.6763 41.328739 185.375 40.90625 C 185.66802 40.729069 185.88037 40.643332 186.03125 40.59375 z M 235.5 40.78125 A 0.750075 0.750075 0 0 0 235.21875 40.90625 C 233.76768 41.83828 231.78574 42.816864 230.6875 44.28125 C 230.46211 44.581792 230.37821 45.039174 230.46875 45.375 C 230.55925 45.710826 230.73516 45.914473 230.90625 46.09375 C 231.24843 46.452304 231.61943 46.713178 231.75 46.84375 C 231.96823 47.061988 232.04329 47.324676 232.125 47.75 C 232.2067 48.175324 232.26438 48.747499 232.5625 49.34375 C 232.69066 49.600082 232.97296 49.828938 233.25 49.90625 C 233.52704 49.98356 233.76995 49.96068 233.96875 49.90625 C 234.36636 49.797385 234.66035 49.588143 234.96875 49.375 C 235.27715 49.161857 235.58584 48.934772 235.8125 48.75 C 235.92583 48.65761 236.02331 48.555333 236.09375 48.5 C 236.11135 48.486168 236.11136 48.47798 236.125 48.46875 C 236.37997 48.34126 237.18715 48.204352 238.03125 48.125 C 238.87535 48.04565 239.78419 47.991098 240.59375 47.6875 C 240.80587 47.60795 241.10681 47.389379 241.34375 47.25 C 241.43085 47.36124 241.41715 47.541102 241.53125 47.625 C 241.93875 47.924655 242.42917 47.982142 242.875 47.9375 C 243.76667 47.84822 244.64552 47.387964 245.5 46.8125 C 246.35448 46.237036 247.16585 45.533588 247.75 44.84375 C 248.04208 44.498831 248.27468 44.171118 248.4375 43.8125 C 248.60032 43.453882 248.73979 43.010848 248.5 42.53125 C 248.35959 42.250408 248.03555 42.067579 247.8125 42.03125 C 247.58945 41.99492 247.40755 42.02575 247.25 42.0625 C 246.93489 42.13593 246.65637 42.266092 246.3125 42.4375 C 245.62477 42.780316 244.78939 43.298719 243.9375 43.84375 C 243.09326 44.383886 242.24351 44.97586 241.53125 45.4375 C 241.52525 45.4417 241.5064 45.4333 241.5 45.4375 C 241.47 45.4569 241.4672 45.4497 241.4375 45.46875 A 0.750075 0.750075 0 0 0 240.96875 45.75 C 240.59178 45.976849 240.1022 46.266363 240.0625 46.28125 C 239.57294 46.464841 238.72398 46.57644 237.875 46.65625 C 237.02602 46.73606 236.19526 46.761729 235.46875 47.125 C 235.29688 47.21093 235.24812 47.27158 235.15625 47.34375 C 235.06435 47.41592 234.95446 47.472248 234.84375 47.5625 C 234.62232 47.743004 234.37009 47.955617 234.125 48.125 C 233.99205 48.21688 233.91797 48.226077 233.8125 48.28125 C 233.7434 48.035126 233.69174 47.816133 233.625 47.46875 C 233.5273 46.960344 233.33709 46.305863 232.8125 45.78125 C 232.49329 45.462018 232.16312 45.233427 232 45.0625 C 232.78164 44.124023 234.54833 43.108736 236.03125 42.15625 A 0.750075 0.750075 0 0 0 235.5625 40.78125 A 0.750075 0.750075 0 0 0 235.5 40.78125 z M 107.8125 42.84375 C 109.16834 42.857285 110.1791 43.36846 110.875 44.4375 C 110.8538 44.47305 110.8353 44.49253 110.8125 44.53125 C 110.62464 44.849772 110.3733 45.251897 110.09375 45.75 C 109.83145 46.217375 109.49646 46.870641 109.1875 47.4375 C 108.92565 47.755664 108.63096 48.119034 108.5625 48.1875 C 107.81932 48.930707 105.34043 50.94426 102.84375 52.34375 C 101.59541 53.043495 100.34937 53.600853 99.3125 53.8125 C 98.386231 54.001571 97.722326 53.920805 97.28125 53.59375 C 98.97597 51.721613 100.25723 49.879816 100.84375 49 A 0.75405803 0.75405803 0 1 0 99.59375 48.15625 C 99.068832 48.943657 97.902098 50.572349 96.4375 52.25 C 96.406842 52.103317 96.38081 51.937117 96.375 51.78125 C 96.35176 51.157781 96.564598 50.423577 96.96875 49.65625 C 97.777055 48.121597 99.403867 46.461707 101.3125 45.1875 C 103.22113 43.913293 105.40594 43.03048 107.21875 42.875 C 107.42704 42.857135 107.61881 42.841816 107.8125 42.84375 z M 246.15625 44.25 C 245.71248 44.702337 245.23128 45.206491 244.65625 45.59375 C 243.91672 46.0918 243.13665 46.426905 242.71875 46.46875 C 242.67855 46.47275 242.68715 46.468534 242.65625 46.46875 C 243.31343 46.039685 244.03185 45.553216 244.75 45.09375 C 245.28116 44.75392 245.69638 44.515272 246.15625 44.25 z M 170.71875 48.5 C 170.72875 48.653918 170.85918 48.735647 170.90625 48.875 C 170.85115 48.80136 170.78093 48.718055 170.78125 48.71875 C 170.78171 48.71975 170.72695 48.549445 170.71875 48.5 z "
       id="path3131" />
  </g>
</svg>
