<?xml version="1.0" standalone="no"?>
<!DOCTYPE svg PUBLIC "-//W3C//DTD SVG 20010904//EN"
 "http://www.w3.org/TR/2001/REC-SVG-20010904/DTD/svg10.dtd">
<svg version="1.0" xmlns="http://www.w3.org/2000/svg"
 width="620.000000pt" height="444.000000pt" viewBox="0 0 620.000000 444.000000"
 preserveAspectRatio="xMidYMid meet">
<metadata>
Created by potrace 1.13, written by Peter Selinger 2001-2015
</metadata>
<g transform="translate(0.000000,444.000000) scale(0.100000,-0.100000)"
fill="#000000" stroke="none">
<path d="M3152 4128 c-5 -7 -13 -29 -16 -48 -10 -59 -25 -273 -20 -281 3 -5
-2 -22 -11 -38 -8 -17 -15 -39 -15 -50 0 -14 -8 -22 -27 -27 -16 -3 -39 -10
-53 -16 -14 -6 -31 -10 -39 -9 -7 1 -20 -1 -30 -5 -9 -4 -18 -8 -21 -9 -3 -1
-12 -4 -20 -8 -8 -3 -26 -8 -40 -10 -14 -3 -59 -14 -100 -26 -41 -11 -88 -21
-104 -21 -16 0 -26 -3 -23 -7 8 -7 -26 -26 -80 -43 -21 -7 -55 -24 -75 -37
-21 -12 -43 -23 -48 -23 -6 0 -30 -12 -53 -27 -23 -16 -59 -37 -79 -47 -21
-10 -45 -30 -53 -42 -9 -13 -22 -24 -29 -24 -8 0 -16 -4 -18 -9 -1 -4 -24 -27
-50 -49 -87 -75 -147 -156 -172 -235 -23 -69 -41 -188 -38 -252 1 -39 21 -165
27 -175 3 -4 14 -52 24 -106 20 -102 36 -158 77 -278 28 -82 29 -94 9 -116
-14 -16 -14 -17 9 -13 21 4 26 1 31 -23 4 -16 12 -45 18 -64 6 -19 11 -42 12
-50 0 -9 4 -20 7 -26 8 -13 57 -200 63 -239 22 -155 27 -217 22 -292 -10 -151
-24 -198 -61 -213 -13 -5 -27 -13 -30 -19 -3 -5 -19 -12 -35 -16 -16 -3 -37
-15 -47 -26 -9 -10 -22 -19 -27 -19 -6 0 -18 -6 -26 -13 -9 -8 -56 -35 -106
-62 -49 -26 -92 -51 -95 -54 -3 -4 -34 -22 -70 -40 -36 -18 -67 -36 -70 -40
-5 -6 -13 -11 -99 -59 -25 -14 -59 -33 -76 -43 -16 -10 -61 -36 -100 -59 -63
-36 -101 -63 -264 -181 -52 -38 -98 -47 -256 -54 -119 -5 -237 6 -355 32 -71
16 -77 19 -137 82 -35 36 -63 60 -63 53 0 -22 20 -53 30 -47 6 3 7 0 4 -8 -3
-10 9 -26 33 -43 21 -16 40 -32 43 -35 29 -33 197 -67 344 -68 43 0 96 -3 117
-6 21 -3 40 -1 44 5 3 5 11 10 16 10 6 0 7 -4 4 -10 -3 -5 1 -10 9 -10 9 0 16
-4 16 -10 0 -16 -111 -120 -134 -126 -11 -3 -33 -26 -48 -52 -16 -26 -34 -55
-40 -65 -11 -14 -10 -19 2 -27 11 -7 21 -4 37 15 12 14 27 25 34 25 6 0 31 20
55 45 23 25 46 45 50 45 4 0 17 10 29 22 31 31 36 34 140 99 79 50 101 58 184
73 52 10 120 26 150 36 120 40 368 157 390 184 8 9 32 25 55 35 44 20 133 97
129 111 -2 5 4 7 12 4 9 -4 15 0 15 9 0 35 -24 25 -91 -37 -39 -36 -95 -78
-126 -93 -30 -15 -63 -36 -74 -46 -11 -11 -26 -20 -33 -21 -7 -1 -25 -10 -40
-20 -15 -9 -36 -18 -47 -19 -10 -1 -19 -4 -19 -8 0 -12 -42 -24 -88 -27 -13
-1 -21 -5 -19 -10 3 -4 -7 -8 -21 -9 -39 -2 -136 -26 -142 -34 -3 -5 -11 -4
-18 0 -10 6 5 23 50 59 35 28 78 63 96 79 18 15 39 33 45 38 38 32 223 145
238 145 19 0 58 32 53 44 -6 16 40 41 60 33 10 -4 13 -1 10 8 -4 8 7 20 28 31
18 9 51 29 73 44 98 67 216 120 203 93 -2 -5 -14 -32 -27 -60 -13 -29 -29 -53
-35 -53 -15 0 -87 -101 -80 -112 3 -4 11 -8 17 -8 20 0 96 96 129 162 17 35
35 69 41 77 6 7 12 20 13 28 3 18 33 53 46 53 5 0 24 10 41 23 18 13 50 32 72
43 22 10 48 27 59 36 11 10 38 27 60 39 23 12 60 34 84 50 24 16 48 29 53 29
6 0 7 5 4 10 -3 6 3 10 14 10 12 0 21 4 21 8 0 5 28 25 63 46 74 44 107 70
107 86 0 6 5 8 10 5 12 -8 62 30 52 39 -3 4 2 4 11 0 13 -5 29 5 57 35 22 23
45 39 50 36 6 -3 10 1 10 9 0 9 6 13 13 10 8 -3 37 18 66 45 29 27 58 48 66
45 7 -3 27 12 45 35 18 22 37 38 42 35 4 -3 27 10 50 28 23 18 51 32 62 31 16
-1 17 0 4 3 -10 3 -18 8 -18 10 0 11 30 34 44 34 10 0 13 6 10 15 -4 10 -2 14
7 10 8 -3 21 -1 29 5 13 8 13 11 1 22 -11 11 -13 11 -6 -1 6 -10 4 -13 -7 -9
-9 4 -38 -11 -71 -38 -31 -24 -61 -44 -67 -44 -13 0 -13 -17 0 -23 6 -3 5 -4
-2 -3 -7 1 -43 -22 -81 -51 -38 -29 -73 -53 -77 -53 -4 0 -29 -20 -54 -43 -25
-24 -48 -42 -50 -39 -3 2 -23 -10 -44 -27 -22 -17 -43 -31 -46 -31 -4 0 -12
-4 -19 -10 -31 -25 -116 -86 -154 -110 -23 -15 -39 -30 -36 -34 4 -4 0 -4 -10
0 -9 3 -17 2 -17 -3 0 -4 -16 -17 -35 -27 -19 -11 -35 -22 -35 -26 0 -5 -11
-11 -25 -14 -14 -4 -25 -11 -25 -16 0 -6 -7 -10 -15 -10 -9 0 -18 -7 -21 -15
-4 -8 -14 -15 -23 -15 -10 0 -35 -13 -57 -30 -21 -16 -42 -30 -46 -30 -4 0
-27 -13 -51 -30 -24 -16 -55 -34 -68 -40 -13 -5 -32 -15 -41 -22 -9 -7 -20 -9
-24 -5 -4 3 -1 48 6 99 15 115 -4 380 -30 413 -4 6 -10 28 -13 50 -6 42 -20
96 -73 284 -5 17 -2 26 10 33 19 10 22 30 4 23 -7 -3 -18 -1 -25 3 -21 13 -70
166 -107 333 -20 90 -41 181 -46 202 -4 22 -7 91 -6 155 3 103 7 126 33 194
17 43 40 88 51 100 12 13 42 46 67 73 26 28 51 60 56 73 4 12 15 22 23 22 8 0
16 3 18 8 5 12 110 77 171 105 31 15 81 38 110 51 74 35 286 106 314 106 14 0
31 7 39 15 9 8 26 15 40 15 13 0 32 4 42 10 19 10 115 31 120 25 2 -2 0 -35
-5 -74 -5 -39 -6 -71 -2 -71 7 0 21 31 24 55 1 6 3 15 5 20 1 6 3 15 4 20 12
64 12 64 108 79 15 3 33 8 40 12 7 5 29 9 48 10 38 2 110 11 150 19 119 22
459 22 590 1 97 -16 223 -43 250 -54 8 -3 20 -6 26 -7 19 -1 181 -94 196 -112
7 -9 8 -14 2 -10 -6 3 -11 0 -11 -7 0 -8 5 -12 12 -10 6 3 24 -9 39 -25 33
-34 50 -111 40 -175 -4 -27 -3 -36 5 -32 6 4 11 16 11 27 0 11 8 32 18 46 13
21 14 25 2 18 -13 -7 -13 -6 -2 7 13 16 11 29 -18 93 -17 39 -43 69 -105 120
-30 25 -122 73 -153 79 -9 1 -24 5 -32 8 -77 27 -155 48 -205 57 -131 23 -344
30 -510 17 -143 -12 -171 -15 -234 -21 -35 -4 -96 -15 -137 -25 -40 -9 -78
-14 -85 -9 -8 5 -10 19 -5 45 4 22 9 55 11 74 1 19 8 71 14 115 12 92 17 192
9 200 -3 3 -10 0 -16 -7z"/>
<path d="M3311 3181 c-9 -6 -11 -15 -6 -27 4 -11 8 -39 9 -64 2 -36 14 -65 60
-140 32 -52 64 -102 71 -110 25 -30 27 -58 6 -70 -17 -8 -32 -5 -78 16 -32 15
-71 41 -86 58 -23 24 -30 27 -38 15 -12 -19 -11 -32 1 -24 5 3 7 0 4 -9 -9
-24 -35 -27 -88 -10 -81 27 -96 40 -94 83 1 39 -34 101 -58 101 -18 0 -35 -26
-28 -44 3 -9 1 -16 -5 -16 -6 0 -8 -14 -5 -38 l5 -39 -68 -18 c-78 -20 -113
-39 -113 -60 0 -8 -4 -15 -9 -15 -5 0 -14 -13 -19 -30 -6 -16 -26 -51 -44 -76
-39 -55 -45 -63 -81 -129 -34 -62 -57 -78 -122 -85 -44 -4 -52 -2 -71 20 -12
14 -24 34 -27 45 -3 11 -5 0 -4 -24 3 -60 33 -82 118 -86 81 -3 106 13 156
103 20 37 51 88 69 114 17 26 41 67 53 91 12 24 29 51 39 59 16 14 113 46 160
53 22 3 78 -22 113 -52 20 -17 116 -15 134 4 18 17 30 17 46 -3 21 -26 106
-64 143 -64 25 0 38 6 51 26 24 37 13 73 -66 204 -44 74 -73 135 -80 170 -14
63 -28 83 -48 71z"/>
<path d="M2375 2998 c-50 -25 -106 -78 -98 -91 3 -6 1 -7 -5 -3 -14 9 -52 -72
-52 -111 0 -16 5 -34 12 -41 16 -16 111 -15 151 1 18 8 38 12 45 10 7 -3 10 1
6 10 -3 10 4 18 23 25 15 5 39 19 53 31 28 25 25 24 -45 -9 -27 -13 -57 -25
-65 -26 -123 -17 -130 -17 -135 -1 -16 40 86 161 162 192 18 8 33 18 33 22 0
16 -45 12 -85 -9z"/>
<path d="M1475 1824 c-49 -25 -89 -49 -87 -55 1 -5 -6 -9 -16 -9 -22 0 -145
-65 -162 -85 -7 -8 -20 -15 -30 -15 -10 0 -23 -6 -29 -14 -7 -8 -23 -17 -36
-20 -14 -4 -25 -11 -25 -16 0 -6 -6 -10 -14 -10 -8 0 -21 -6 -28 -12 -21 -20
-108 -78 -116 -78 -4 0 -39 -23 -77 -51 -70 -51 -76 -56 -128 -103 -15 -14
-32 -26 -36 -26 -17 0 -231 -227 -231 -245 0 -4 -16 -30 -35 -59 -19 -29 -35
-58 -35 -63 0 -6 -7 -16 -15 -23 -8 -7 -13 -16 -10 -20 3 -5 1 -10 -5 -12 -6
-2 -12 -14 -15 -28 -14 -71 -16 -98 -7 -103 5 -4 9 6 10 21 0 64 2 73 14 66 7
-5 9 0 6 14 -3 12 -2 22 2 24 4 2 25 35 46 74 42 77 91 139 195 243 65 64 140
134 149 138 3 1 13 5 24 9 10 4 35 22 55 40 20 19 42 34 49 34 6 0 12 5 12 10
0 6 12 15 27 21 15 6 34 17 43 25 8 8 38 29 65 47 28 17 55 36 61 42 6 5 28
19 50 30 21 11 41 22 44 26 6 6 73 44 195 109 44 24 82 47 83 52 2 4 9 8 15 8
18 0 107 44 107 52 0 15 -25 6 -115 -38z"/>
</g>
</svg>
