<?xml version="1.0" encoding="UTF-8" standalone="no"?>
<!-- Created with Inkscape (http://www.inkscape.org/) -->
<svg
   xmlns:dc="http://purl.org/dc/elements/1.1/"
   xmlns:cc="http://creativecommons.org/ns#"
   xmlns:rdf="http://www.w3.org/1999/02/22-rdf-syntax-ns#"
   xmlns:svg="http://www.w3.org/2000/svg"
   xmlns="http://www.w3.org/2000/svg"
   xmlns:sodipodi="http://sodipodi.sourceforge.net/DTD/sodipodi-0.dtd"
   xmlns:inkscape="http://www.inkscape.org/namespaces/inkscape"
   id="svg2439"
   sodipodi:version="0.32"
   inkscape:version="0.46"
   width="400"
   height="121"
   version="1.0"
   sodipodi:docname="Katzir, Ephraim signature.svg"
   inkscape:output_extension="org.inkscape.output.svg.inkscape">
  <metadata
     id="metadata2444">
    <rdf:RDF>
      <cc:Work
         rdf:about="">
        <dc:format>image/svg+xml</dc:format>
        <dc:type
           rdf:resource="http://purl.org/dc/dcmitype/StillImage" />
      </cc:Work>
    </rdf:RDF>
  </metadata>
  <defs
     id="defs2442">
    <inkscape:perspective
       sodipodi:type="inkscape:persp3d"
       inkscape:vp_x="0 : 526.18109 : 1"
       inkscape:vp_y="0 : 1000 : 0"
       inkscape:vp_z="744.09448 : 526.18109 : 1"
       inkscape:persp3d-origin="372.04724 : 350.78739 : 1"
       id="perspective2446" />
  </defs>
  <sodipodi:namedview
     inkscape:window-height="751"
     inkscape:window-width="1280"
     inkscape:pageshadow="2"
     inkscape:pageopacity="0.0"
     guidetolerance="10.0"
     gridtolerance="10.0"
     objecttolerance="10.0"
     borderopacity="1.0"
     bordercolor="#666666"
     pagecolor="#ffffff"
     id="base"
     showgrid="false"
     inkscape:zoom="1.0005561"
     inkscape:cx="608.77589"
     inkscape:cy="137.62027"
     inkscape:window-x="-4"
     inkscape:window-y="-4"
     inkscape:current-layer="svg2439" />
  <path
     style="fill:#000000"
     d="M 45.229187,108.82919 C 43.574468,107.17447 43.679445,103.01144 45.484849,98.690505 C 47.368206,94.182996 49,93.111333 49,96.381966 C 49,99.451683 50.802556,100.79822 51.585502,98.313382 C 51.899759,97.316022 52.775186,95.341787 53.530895,93.926193 C 54.286604,92.5106 54.63394,90.316189 54.302752,89.049724 C 53.893826,87.485987 54.229983,86.450799 55.350296,85.82384 C 56.257633,85.316069 57,84.502275 57,84.01541 C 57,83.528544 57.519145,81.863404 58.153656,80.3151 C 58.788168,78.766795 60.470282,77.05 60.596047,76.5 C 60.721811,75.95 61.396696,73.029034 63.391433,70.008965 C 65.38617,66.988896 67.269451,63.726396 67.576501,62.758965 C 68.273413,60.563192 69.622185,60.502464 70.803671,62.613663 C 71.527064,63.906294 72.120708,64.005767 73.787619,63.113663 C 78.339684,60.677472 83.446751,62.934786 85.301478,68.202766 C 86.026784,70.262855 80.838933,75 77.857533,75 C 76.763574,75 74.927842,75.503434 73.778128,76.118743 C 72.030965,77.053796 71.411416,76.871156 70.004823,75.006394 L 68.321907,72.775302 L 66.160954,75.52251 C 64.972429,77.033474 64,78.91604 64,79.70599 C 64,80.495939 62.008331,85.047753 59.574069,89.821131 C 57.139807,94.594509 54.880819,99.175 54.554095,100 C 52.886802,104.21003 49.319387,109.50739 47.977478,109.76582 C 47.141971,109.92672 45.90524,109.50524 45.229187,108.82919 z M 48.5,102 C 48.160081,101.45 47.683524,101 47.440983,101 C 47.198442,101 47,101.45 47,102 C 47,102.55 47.476558,103 48.059017,103 C 48.641476,103 48.839919,102.55 48.5,102 z M 79.802484,69.530849 C 80.750287,68.583047 77.784033,65.19187 75.650434,64.784006 C 73.80086,64.430438 72.849981,64.98395 71.562379,67.163688 C 70.639547,68.725917 70.132851,70.40594 70.436387,70.897073 C 70.921657,71.682255 78.800334,70.532999 79.802484,69.530849 z M 50,91.5 C 50,90.675 50.45,90 51,90 C 51.55,90 52,90.675 52,91.5 C 52,92.325 51.55,93 51,93 C 50.45,93 50,92.325 50,91.5 z M 285.74524,89.25 C 283.42268,86.652448 284.50449,83.38349 285.54683,81 L 288.87424,75.750973 L 290.23727,76.553104 L 287.81369,81.305826 C 286.31467,85.354906 289.43624,86.498165 294.98395,85.004323 C 297.34099,84.369638 301.03672,83.22052 304.00547,80.777585 C 307.11516,78.218669 309.46365,74.325176 310.28797,71.960541 C 310.8556,70.332243 311.05956,62.725314 311.89951,62.725314 C 314.4867,62.725314 312.38313,74.934172 308.18925,79.882221 C 304.08493,84.724613 304.12912,84.694059 295.81193,88.438917 C 289.08312,91.468595 287.81996,91.570369 285.74524,89.25 z M 48.34995,79.25905 C 43.654811,76.160191 50.137454,65.190088 62.806996,54.794447 C 66.031102,52.148995 66.067316,52.03237 64.437166,49.544447 C 63.005883,47.360034 62.036315,47 57.58499,47 C 52.445992,47 50,45.806832 50,43.3 C 50,42.375949 51.757396,42 56.076923,42 C 62.591705,42 63.641244,41.319645 69.838899,33.078915 C 72.761877,29.192368 80.054823,25.724672 83.491591,26.587245 C 87.014181,27.471359 87.666941,27.780897 83.758325,27.859926 C 79.746104,27.94105 70.096141,34.626551 70.039,37.377808 C 70.005057,39.012135 70.917673,40.32741 74,38.615991 C 92.416223,28.390644 87.693477,31.949598 75.75,40.576499 C 73.379025,42.28908 67,45.921842 67,47.128476 C 67,47.618581 67.9,48.790179 69,49.732028 C 71.80006,52.129515 71.490996,54.627628 68.25,55.794146 C 64.080169,57.294976 57.122968,63.768935 53.362375,69.647689 C 49.394647,75.850246 49.260903,76.75593 52.25,77.180449 C 53.4875,77.356202 54.5,77.95 54.5,78.5 C 54.5,79.733168 49.924,80.297946 48.34995,79.25905 z M 288.87507,75.769519 C 288.87507,74.407809 305.10524,60.872792 306.64243,60.872792 C 307.03089,60.872792 301.38436,67.282288 294.05531,72.25 C 292.02738,73.624552 289.8828,76.836944 289.88026,77.249444 C 289.87771,77.661944 290.17521,76.812604 289.62521,76.812604 C 289.07521,76.812604 288.87507,76.566529 288.87507,75.769519 z M 98.528423,74.045989 C 98.204136,73.521282 98.226362,71.946282 98.577814,70.545989 C 99.266728,67.801136 97.668361,67.000471 96.29969,69.404817 C 95.859861,70.177466 94.619952,70.964966 93.544338,71.154817 C 90.515618,71.6894 90.661548,63.525157 93.732723,60.615385 C 94.960721,59.451923 95.973221,57.8025 95.982723,56.95 C 95.992226,56.0975 96.424127,54.9725 96.942504,54.45 C 97.460881,53.9275 99.641988,50.139321 101.78941,46.031823 C 105.48255,38.967725 112.156,31.822663 113.6579,33.324571 C 114.7308,34.397469 112.18726,39 110.52144,39 C 109.68465,39 109,39.8449 109,40.877555 C 109,41.910211 108.325,43.315311 107.5,44 C 106.675,44.684689 106,46.063232 106,47.063428 C 106,48.063624 105.56223,49.152524 105.02717,49.483205 C 103.03703,50.71318 99.666869,60.545083 100.93002,63.594607 C 102.28505,66.865933 105.57945,64.690565 108.10544,62.404581 C 109.72087,60.942634 110.10759,60.950482 112.72799,62.498394 C 115.5474,64.163858 115.63627,64.142151 119.04382,60.95566 C 120.94472,59.17808 123.53949,57.041425 124.80998,56.207539 C 126.8762,54.851374 127.28145,54.85288 128.65038,56.221812 C 130.39382,57.965245 130.33182,58.042871 123.17307,63.079647 C 120.79325,64.754044 118.23175,67.594426 117.48084,69.391609 C 114.75309,75.920045 111.47847,76.469732 110.82695,70.508551 C 110.34291,66.07982 107.78297,66.262673 104.52882,70.958417 C 101.79567,74.902356 99.718317,75.971279 98.528423,74.045989 z M 127.25,71.383565 C 126.5625,71.080938 126,69.951841 126,68.87446 C 126,66.640603 126.96984,65.249346 132.29211,59.848262 C 135.21093,56.886219 136.86502,56 139.47472,56 C 143.28309,56 144.53336,58.026755 143.43199,62.414958 C 142.52163,66.042105 143.53335,65.663701 148.55189,60.5 C 153.52587,55.382149 155,54.924922 155,58.5 C 155,60.429025 155.51604,61 157.25945,61 C 158.50215,61 160.08097,60.1 160.76793,59 C 162.01342,57.005648 165.00357,56.336902 166.40577,57.739099 C 167.82111,59.15444 177.43581,58.807326 179.18699,57.277666 C 181.61446,55.157261 181.58657,58.29808 181.58657,62.825801 C 181.58657,67.114534 184.25673,66.029416 187.55887,63.531803 C 190.27783,61.475282 193.22897,61.572542 192.81827,63.705137 C 192.46583,65.535185 185.34768,70.911819 183.20455,70.966779 C 182.49205,70.98505 180.78409,69.875 179.40909,68.5 C 176.68315,65.774058 173.59253,64.333965 173.28713,67.112868 C 173.08101,68.988378 170.35336,66.747019 170.35336,64.734269 C 170.35336,62.416777 168.70914,63.750808 165.42243,67.66554 C 162.06792,71.661022 159.57447,71.543626 160.60474,67.438715 C 161.38372,64.33501 159.19437,62.593699 154.88421,65.777057 C 152.03915,67.878334 151.82607,69.974138 148.62626,69.435038 C 146.0503,69.001042 144.50272,69.18658 144.00689,69.988851 C 143.33764,71.071718 141.61332,71.312133 137,70.96579 C 136.175,70.903854 133.925,71.096318 132,71.393488 C 130.075,71.690658 127.9375,71.686193 127.25,71.383565 z M 136.70239,63.803833 C 140.10116,60.509614 140.79902,59 138.92308,59 C 137.52351,59 132,64.52351 132,65.923077 C 132,67.717025 133.24294,67.156863 136.70239,63.803833 z M 308,61 C 306.9,59.9 306,58.591903 306,58.093118 C 306,57.594333 308.62694,56.696117 311.40576,54.369558 C 314.58517,51.707601 316.31707,47.664672 316.6774,45.863012 C 317.29938,42.753107 320.35059,41.86527 321.36163,44.5 C 322.25554,46.829503 321.03922,49.163064 316.71456,53.415628 C 313.02383,57.044821 312.8629,57.426582 314.51465,58.634372 C 315.98431,59.709015 316.07396,60.205961 315.02594,61.468744 C 313.27511,63.578368 310.38559,63.38559 308,61 z M 238,57.610009 C 238,56.482228 244.26919,47.200876 248.16481,42.561301 C 248.65493,41.977585 251.50428,38.177221 254.49671,34.116047 C 259.56061,27.243559 264,22.83509 264,24.678943 C 264,26.201832 258.66559,36 257.83648,36 C 257.37642,36 257,36.675 257,37.5 C 257,39.406103 256.6116,39.499731 263.01979,36.048849 C 272.55076,30.916318 277.35109,28.920747 278.81504,29.482518 C 279.89757,29.897923 279.67243,30.453982 277.86746,31.822939 C 273.84946,34.870329 267.96705,38 266.25729,38 C 265.36168,38 263.6048,38.962095 262.35312,40.137989 C 260.54441,41.837186 260.2883,42.670168 261.10524,44.196641 C 261.67059,45.253005 261.84235,47.441282 261.48694,49.059477 C 260.44775,53.790856 263.48045,54.088895 267.43487,49.644011 C 269.21792,47.639805 271.13179,46 271.68791,46 C 272.24403,46 274.67925,44.658189 277.09952,43.018197 C 279.51978,41.378206 282.0625,40.028206 282.75,40.018197 C 285.00962,39.985302 284.0545,43.028781 281.50046,43.999825 C 280.12571,44.522503 278.1118,46.412183 277.02511,48.199115 C 275.29197,51.049031 275.23693,51.553089 276.577,52.303032 C 278.67814,53.478888 285.96492,51.194979 283.94224,45.837379 C 280.76562,37.423241 286.23628,39.879583 286.69301,45.633803 C 286.86726,47.829228 289.49171,50.865631 289.92934,51.312514 C 290.36697,51.759397 292.3619,50.581262 294.36251,48.694437 C 297.02489,46.183491 298,44.433326 298,42.165721 C 298,40.057475 299.0811,37.858639 301.38364,35.283798 C 303.24465,33.202709 306.09639,29.96567 307.72086,28.090378 C 309.45696,26.086212 311.15374,24.976981 311.83722,25.399395 C 313.53809,26.450591 313.25667,30.678633 311.28561,33.686856 C 309.63026,36.213241 309.64748,36.353977 311.78561,37.773644 C 315.34248,40.135321 314.57057,42 310.03605,42 C 306.95333,42 305.62316,41.977099 303.41112,45.232413 C 302.01629,47.285086 301,50.723932 301,52.263519 C 301,55.125932 297.98532,57.455948 297.22664,55.17991 C 296.72804,53.684108 293.34142,53.638548 292.4287,55.115364 C 292.01519,55.784432 290.04155,56.039359 287.49625,55.752467 C 285.06713,55.47867 282.74191,55.357144 280.01176,56.637103 C 275.62346,58.694441 274.65475,58.382019 271.65381,55.381086 L 269.0349,52.762173 L 265.48265,55.881086 C 261.36099,59.499952 261.2036,59.531337 258.09529,57.35419 C 255.96092,55.859223 255.79932,55.194112 256.33204,50.097287 C 256.83716,45.264625 255.90467,40.56554 254.73096,42.02896 C 251.44861,46.121508 245.02791,55.027651 244.11813,56.75 C 242.78878,59.266657 238,59.939803 238,57.610009 z M 327.44686,57.72212 C 327.17716,57.019287 328.70252,54.113216 330.37847,50.653416 C 332.60129,46.06467 333.51741,43.952055 334.77543,44.191789 C 335.72394,44.372542 336.63927,45.493787 336.80949,46.683443 C 337.13446,48.95466 333.52811,56.975303 331.61567,58.234687 C 329.89371,59.368629 327.98881,59.134416 327.44686,57.72212 z M 339,58.033179 C 339,57.428362 340.16598,54.632561 341.59107,51.820287 C 343.43984,48.171915 345.13469,47.699784 344.86691,44.891826 C 344.49895,41.033446 343.48755,38.847511 346.2946,39.408919 C 348.39191,39.828383 350.00699,39.333712 352.33326,37.559379 C 357.12658,33.903338 360.45215,32.878916 362.5493,34.412389 C 364.86294,36.104167 363.58347,38 360.12807,38 C 356.5068,38 352.12807,40.905027 347.12292,50.293286 C 343.90446,56.330213 343.67883,58.561727 341.59226,58.816422 C 340.16652,58.990455 339,58.637995 339,58.033179 z M 157.00897,42.516765 C 155.43101,39.568321 156.6304,37.589592 159.64378,38.169915 C 160.95561,38.42255 161.5,39.399196 161.5,41.5 C 161.5,45.346171 158.84493,45.947277 157.00897,42.516765 z"
     id="path2468"
     sodipodi:nodetypes="csssssssssssssssscccssssccsssccsssccsssccccccssssssccsssssssssssssssssccssssccsssssssssssssssssssssssccssssssssssssssssssssssssccssccsssssssccsssssssssssssssssssssssssssssssssssscccssssccssssccssssssssccssc" />
</svg>
