<?xml version="1.0" encoding="utf-8"?>
<!-- Generator: Adobe Illustrator 14.0.0, SVG Export Plug-In . SVG Version: 6.00 Build 43363)  -->
<!DOCTYPE svg PUBLIC "-//W3C//DTD SVG 1.1//EN" "http://www.w3.org/Graphics/SVG/1.1/DTD/svg11.dtd">
<svg version="1.1" id="Layer_1" xmlns="http://www.w3.org/2000/svg" xmlns:xlink="http://www.w3.org/1999/xlink" x="0px" y="0px"
	 width="555px" height="104px" viewBox="0 0 555 104" xml:space="preserve">
<g>
	<path fill-rule="evenodd" clip-rule="evenodd" fill="#FFFFFF" d="M242.308,21.931c3.921,2.341,2.386,7.207,0.898,12.05
		C241.226,30.742,240.44,26.95,242.308,21.931z"/>
	<path fill-rule="evenodd" clip-rule="evenodd" d="M194.358,27.748c-14.533-15.171-40.945-5.176-55.708,0.835
		c18.29,9.566,46.308,0.439,53.846,18.724c-9.802,7.262-26.538,16.219-38.218,8.328c9.253-7.288,23.398-1.521,32.932-11.336
		c-12.58-5.994-28.16-3.787-39.959-7.228c-8.298-2.42-14.083-5.568-12.948-11.151c1.8-8.86,34.735-13.526,46.858-11.544
		C189.277,15.701,195.781,19.89,194.358,27.748z"/>
	<path fill-rule="evenodd" clip-rule="evenodd" d="M85.182,49.417c0.484,1.594-0.396,3.819,1.436,4.79
		c7.576-3.407,16.105-18.451,23.449-11.625c-0.997,5.706-5.684,3.433-7.204,8.007c5.582,2.5,12.771-6.059,18.315-9.25
		c2.737,2.11,3.218,5.264,0.65,9.827c6.079,2.474,9.63-0.515,14.272-1.147c4.587,10.246-17.635,10.584-17.433,1.051
		c-5.336,1.376-8.902,6.582-15.058,6.186c-3.507-0.715-3.555-3.03-4.597-4.886c-4.753,0.392-7.037,6.122-10.71,8.849
		c1.523,14.358,7.328,26.735,5.664,42.567C72.083,101.019,71.98,75.431,83.61,59.493c-0.132-3.315-1.381-6.113-1.934-9.234
		c-7.36,1.718-16.079,4.868-24.348-0.425c-2.627,2.735-8.424,1.84-7.798,6.723c-14.291-3.175-35.93-2.783-41.893-16.461
		c-1.008,9.036,1.092,16.635,4.02,23.851c4.132,1.35,7.39,0.728,6.474,5.575C-8.977,59.171,9.43,21.115,0,0
		c10.992,7.381,7.111,21.642,7.83,33.774c5.279-5.757,12.502-11.06,19.446-15.227c6.259-3.755,14.229-11.249,21.725-6.932
		c-10.697,12.247-27.34,11.635-35.98,28.328c4.281,9.478,21.027,7.61,30.036,11.039c0.031-5.86-3.246-13.9,0.578-18.965
		c5.782,3.039,2.818,10.123,2.679,15.9c7.133,1.946,8.284-9.042,13.028-12.258c4.928,1.801,5.186,7.505,1.244,11.111
		c3.845,0.14,17.414,1.833,20-2.239c2.765-4.354-4.767-17.012-0.859-23.754c4.812-8.3,16.544-2.304,18.179,5.615
		C100.008,36.58,93.038,42.568,85.182,49.417z M84.436,42.75c5.169-1.617,10.877-12.735,9.121-19.021
		C80.499,16.31,81.714,38.759,84.436,42.75z M90.309,99.244c0.298-12.083-1.598-23.152-5.953-33.084
		C78.443,80.84,75.247,94.265,90.309,99.244z"/>
	<path fill-rule="evenodd" clip-rule="evenodd" d="M61.989,11.063c1.927,2.225,4.502,4.15,3.562,7.701
		c-1.976,0.22-3.349,1.744-6.322-0.192C58.046,16.04,60.602,12.99,61.989,11.063z"/>
	<path fill-rule="evenodd" clip-rule="evenodd" d="M526.452,51.78c8.744,11.537,20.008,21.909,28.078,33.758
		c-0.648,3.674-0.641,7.068-4.043,8.103c-2.209-2.142-1.689-4.988,0.537-7.26c-11.086-10.714-19.596-22.619-30.301-33.509
		c-28.688,2.873-53.922-6.977-82.678-6.947c-28.27,0.03-54.608,8.436-84.154-0.031c-9.321,3.43-17.953,8.349-30.518,4.766
		c-3.539-1.479-2.867-4.907-4.846-7.108c-15.526,6.565-29.848,5.321-50.324,0.682c-2.256-0.386-1.75,5.198-4.541,3.658
		c-9.965-6.427-1.625-24.087,5.407-32.105c-8.844-0.032-17.492,0.361-25.976,1.107c4.386,5.762,6.477,12.586,2.487,22.222
		c-0.482,5.676,7.854,7.274,5.592,13.774c-1.903-2.496-5.165-4.363-7.068-6.859c-8.104,19.012-29.325,4.343-42.663,8.825
		c-4.129-3.544-4.795-8.69-5.592-13.774c4.648-3.805,3.047,6.236,5.439,8.391c2.775-0.176,5.425-0.623,7.95-1.34
		c-0.516-4.643,2.706-9.319,6.017-10.573c2.58,2.962,4.023,6.449,0.899,12.049c9.872,2.253,19.166,3.258,23.602-6.242
		c-6.564-10.468-31.146-12.603-29.555-26.842c18.856-9.543,44.134-2.032,65.382-6.868c7.193-1.637,19.125-11.51,25.977-1.107
		c-3.012,6.455-12.517,3.707-19.158,5.744c-11.063,3.394-17.477,13.003-20.77,27.525c6.003-0.714,1.625-5.651,5.672-9.635
		c4.056,1.5,2.081,5.79,4.5,8.046c5.476,0.609,10.65,0.568,16.398,1.765c0.292-10.249,17.211-12.643,13.582,0.73
		c6.023-1.014,10.535-5.296,16.936-5.496c3.447,1.781,1.963,5.844,4.5,8.046c10.221,2.447,18.119-0.129,25.728-3.329
		c-8.45-13.132,6.897-38.389,19.927-31.031c10.5,5.929-2.828,25.501-10.1,30.381c26.344,6.655,51.342-0.423,76.895-0.506
		c25.671-0.083,51.906,7.683,79.518,6.851c-5.463-11.756-16.145-21.099-6.699-39.75c18.793-14.288,57.387,7.148,39.535,31.575
		C543.122,46.174,534.208,47.706,526.452,51.78z M550.632,26.574c2.02-16.675-36.637-24.795-42.775-8.263
		c-4.383,11.799,7.641,18.638,13.998,28.583C531.319,42.993,548.771,41.928,550.632,26.574z M351.268,38.537
		c8.247-1.953,17.204-10.911,18.7-21.893C358.187,12.7,344.766,27.957,351.268,38.537z M236.772,16.701
		c-6.991,2.852-16.791-0.368-22.318,5.648c10.368,4.04,19.45,12.811,27.373,15.387C236.75,32.292,239.637,23.167,236.772,16.701z
		 M243.207,33.981c1.487-4.843,3.023-9.708-0.898-12.05C240.44,26.95,241.226,30.742,243.207,33.981z"/>
</g>
</svg>
