<?xml version="1.0" encoding="UTF-8" standalone="no"?>
<!-- Created with Inkscape (http://www.inkscape.org/) -->
<svg
   xmlns:dc="http://purl.org/dc/elements/1.1/"
   xmlns:cc="http://creativecommons.org/ns#"
   xmlns:rdf="http://www.w3.org/1999/02/22-rdf-syntax-ns#"
   xmlns:svg="http://www.w3.org/2000/svg"
   xmlns="http://www.w3.org/2000/svg"
   xmlns:sodipodi="http://sodipodi.sourceforge.net/DTD/sodipodi-0.dtd"
   xmlns:inkscape="http://www.inkscape.org/namespaces/inkscape"
   width="490.27252"
   height="188.40648"
   id="svg3529"
   sodipodi:version="0.32"
   inkscape:version="0.46"
   sodipodi:docname="SIGNATURE.svg"
   inkscape:output_extension="org.inkscape.output.svg.inkscape"
   version="1.0">
  <defs
     id="defs3531">
    <inkscape:perspective
       sodipodi:type="inkscape:persp3d"
       inkscape:vp_x="0 : 526.18109 : 1"
       inkscape:vp_y="0 : 1000 : 0"
       inkscape:vp_z="744.09448 : 526.18109 : 1"
       inkscape:persp3d-origin="372.04724 : 350.78739 : 1"
       id="perspective3537" />
    <inkscape:perspective
       id="perspective3546"
       inkscape:persp3d-origin="372.04724 : 350.78739 : 1"
       inkscape:vp_z="744.09448 : 526.18109 : 1"
       inkscape:vp_y="0 : 1000 : 0"
       inkscape:vp_x="0 : 526.18109 : 1"
       sodipodi:type="inkscape:persp3d" />
  </defs>
  <sodipodi:namedview
     id="base"
     pagecolor="#ffffff"
     bordercolor="#666666"
     borderopacity="1.0"
     gridtolerance="10000"
     guidetolerance="10"
     objecttolerance="10"
     inkscape:pageopacity="0.0"
     inkscape:pageshadow="2"
     inkscape:zoom="0.49497475"
     inkscape:cx="475.29797"
     inkscape:cy="405.31235"
     inkscape:document-units="px"
     inkscape:current-layer="layer1"
     showgrid="false"
     inkscape:window-width="1024"
     inkscape:window-height="718"
     inkscape:window-x="-8"
     inkscape:window-y="-8" />
  <metadata
     id="metadata3534">
    <rdf:RDF>
      <cc:Work
         rdf:about="">
        <dc:format>image/svg+xml</dc:format>
        <dc:type
           rdf:resource="http://purl.org/dc/dcmitype/StillImage" />
      </cc:Work>
    </rdf:RDF>
  </metadata>
  <g
     inkscape:label="Layer 1"
     inkscape:groupmode="layer"
     id="layer1"
     transform="translate(-26.071297,-317.62306)">
    <path
       style="opacity:0.87168124;fill:#000000"
       d="M 265.518,343.23931 C 255.92251,343.0901 247.02392,346.70605 238.98122,351.64158 C 232.5655,355.75374 224.37988,362.96629 222.80255,371.43463 C 222.49397,375.21486 222.45702,378.80265 223.80394,382.3873 C 227.46642,388.46374 232.07836,388.53857 236.5247,390.63311 C 232.84057,395.23651 223.31505,405.64465 216.52824,405.48181 C 210.01337,404.27845 217.28841,393.28039 218.68748,390.52358 C 220.40384,387.98748 221.47888,385.62549 221.03448,384.90642 C 220.58799,384.18399 220.0592,384.35804 218.03032,385.9704 C 216.97498,386.80907 215.42939,387.83247 214.58805,388.23916 C 213.74669,388.64586 211.13952,390.52333 208.79877,392.41682 C 205.10235,395.40697 204.51753,395.72708 204.37077,394.84206 C 205.25085,391.32267 208.57251,388.59371 208.68925,384.60914 C 206.94055,382.31033 204.85505,384.36569 202.88433,385.95475 C 198.74273,389.68486 197.48682,390.02526 192.27588,396.42238 C 188.38236,401.48115 176.35664,408.20573 181.52661,399.83335 C 183.56642,395.15532 187.79308,390.91592 188.17645,385.67311 C 187.97916,382.646 187.08359,382.06167 184.4056,382.90364 C 180.7592,384.24054 177.28039,388.34085 176.94213,388.63033 C 176.7711,388.82843 175.55337,388.95891 175.06453,388.95891 C 173.37745,388.95891 169.13665,386.58775 168.79021,386.06427 C 168.95907,382.8396 170.48198,379.76918 172.52977,377.41166 C 174.84123,375.1899 175.91357,373.15061 175.53394,371.63804 C 175.15507,370.12853 173.28035,370.01742 171.99778,371.43463 C 169.58552,374.20709 169.24174,374.71813 167.24119,379.53961 C 163.99574,385.58304 158.17496,391.28644 149.60738,397.47071 C 149.4447,396.75543 149.49791,396.64763 149.5135,395.34276 C 149.7911,394.2195 149.1186,386.08326 150.7183,377.6933 C 151.6728,375.12492 153.53792,369.47362 152.00132,368.75904 C 150.12385,368.23405 149.20263,369.90638 148.32435,373.04623 C 147.57228,375.73491 147.36088,376.87535 143.55212,380.57229 C 141.47115,382.76139 141.3874,382.69494 136.96486,386.23639 C 135.29665,387.80385 134.78981,387.27829 134.39881,387.12825 C 133.06918,386.61802 131.13863,387.0335 130.37761,388.50516 C 129.63845,389.93453 129.62527,390.69464 131.06607,391.6032 C 131.64121,391.96588 132.61516,392.41516 132.5212,392.69847 C 132.28928,393.39779 125.92822,396.61506 120.42632,398.81632 C 116.40431,400.4255 115.41081,401.00748 111.1009,401.05379 C 107.01034,401.09777 106.0993,400.57871 105.2021,399.77077 C 103.92158,398.61763 103.86304,396.99693 104.98305,393.87197 C 106.76775,391.46712 103.32975,390.28639 103.90343,389.06843 C 104.98622,388.12958 110.46881,387.17568 113.80777,387.75411 C 116.31109,388.18779 116.56442,387.97949 117.57863,386.69014 C 119.08459,384.77561 119.05347,381.81435 117.51603,380.80699 C 116.4944,380.13759 116.24654,380.23181 114.8874,380.82264 C 113.34702,381.49225 112.96655,382.04241 112.96285,383.04446 C 112.95955,383.939 113.10652,384.74525 111.08525,384.78125 C 110.1029,384.79931 107.92492,385.45749 106.1409,386.31462 C 101.79142,388.40432 96.064815,390.25842 92.27794,390.80522 C 92.27794,390.80522 89.96509,391.02268 89.680594,391.18074 C 88.428936,391.8761 88.943169,393.17594 89.054726,393.57468 C 89.319526,393.89394 89.651431,393.89261 90.259519,393.73115 C 94.037895,392.72791 97.641593,392.96447 99.944819,392.0726 C 101.4408,391.49331 102.07562,393.24033 101.35301,394.87335 C 100.70095,396.68769 99.949945,398.38092 99.506713,400.22452 L 96.017503,400.05241 C 91.932757,399.67136 88.972242,400.3335 89.633651,400.99121 C 89.867411,401.22365 92.17984,401.7762 95.078698,401.64837 C 97.661965,401.53445 99.914566,402.08781 100.08564,402.35247 C 100.97869,403.73416 103.53082,404.34318 107.90898,404.21442 C 112.20401,404.0881 115.95083,404.13861 120.17597,406.06073 C 124.60659,407.76937 128.28941,409.45101 131.62934,412.36634 C 144.07712,424.67189 129.16768,437.26755 121.41206,442.59574 C 109.10161,450.62795 94.851231,455.0944 80.621165,457.27232 C 67.425801,458.86009 46.298124,458.2063 35.715191,453.04771 C 29.999842,450.20485 27.997451,444.01785 28.470779,438.91876 C 28.571688,436.07479 30.496923,430.80722 31.944341,428.85795 C 35.180835,423.41166 42.092972,415.58246 47.121622,411.3806 C 53.44338,405.87942 58.83887,402.31989 67.227606,396.0938 L 91.417378,380.19677 C 98.890297,376.37894 96.827174,376.46535 94.233777,380.3063 C 93.112396,381.96712 91.58038,384.26716 90.885386,385.39147 C 88.558733,388.98297 84.805441,393.9664 78.039463,400.06805 C 77.475221,400.06806 75.845428,399.50167 75.442114,398.92585 C 73.840357,397.0911 70.408477,398.04819 68.901802,399.59866 C 67.469466,401.87347 72.367929,405.62452 76.114922,405.12194 C 77.91491,404.8805 78.226117,404.6093 79.072144,402.6967 C 79.593797,401.51741 80.611051,400.17616 81.325266,399.70818 C 85.254456,395.56478 88.680144,391.03365 92.152772,386.54932 C 95.069117,381.88264 98.860233,377.97473 102.3544,373.78163 C 103.42939,372.45811 104.33954,371.62279 105.85926,370.63665 C 114.01437,364.95814 118.79727,362.33719 123.85294,357.79073 C 126.75076,355.10689 127.41957,353.34626 126.07478,352.00145 C 119.95732,348.94483 108.28867,362.24183 103.43403,368.75904 C 101.5719,371.20173 98.759626,372.70746 96.43996,374.68914 L 67.665714,393.40256 C 51.459216,404.68991 32.048152,418.06318 26.608823,436.16495 C 25.43688,443.39371 26.298174,446.18441 28.063964,448.57276 C 33.980501,460.85305 69.341432,460.88635 84.532836,458.05465 C 89.29488,457.03601 94.656165,456.08465 97.394407,455.03484 C 112.97242,449.66608 130.7855,442.56369 137.68461,426.40141 C 139.88419,417.76128 136.7808,412.80672 130.42455,408.36079 C 124.90988,405.42974 122.01143,404.55079 117.29698,402.99398 C 126.09936,398.56718 128.77599,397.79185 134.07023,393.95021 C 134.41446,393.66009 134.73235,392.89041 134.6961,392.22906 C 134.63288,391.07587 135.48448,390.36357 137.2778,388.86503 C 138.69669,387.67938 141.30954,385.3932 143.08272,383.77986 C 145.08249,381.96036 145.90178,381.04998 146.99438,380.47841 C 147.25185,381.27326 147.29268,385.39859 147.35426,389.83513 C 147.57014,398.41759 147.37969,398.79207 143.70859,403.65115 C 142.88244,404.59207 142.20651,405.72471 142.20651,406.17026 C 142.20651,407.85216 143.98738,406.85851 147.71414,403.10351 C 151.89172,398.8943 160.30308,391.95517 161.9839,390.49229 C 165.10061,387.23377 163.96463,386.51703 168.28952,388.99021 C 169.72189,389.83475 171.72314,390.41484 172.67058,390.63311 C 173.63668,390.85566 174.53686,391.16864 174.53255,391.30592 C 174.52402,391.57693 174.53061,392.39328 173.87539,393.33998 C 170.46836,398.2626 169.60762,403.48665 172.02908,404.58994 C 174.50924,405.74587 175.92025,403.2719 177.25507,401.97695 C 177.54844,401.64766 177.61285,401.7838 177.69318,402.02389 C 178.09777,403.23305 177.58347,405.94483 178.0061,406.06073 C 180.97313,406.71695 184.02113,405.20433 185.98591,404.19878 C 189.98036,401.50734 191.80234,399.80349 194.02831,396.51626 C 197.98284,391.84321 198.02771,391.89786 200.30262,389.9603 C 201.11962,389.62189 201.78906,389.17232 201.78906,388.97456 C 201.78906,388.6554 203.976,387.45683 204.55853,387.45683 C 205.06605,387.45683 204.99435,387.78553 204.04219,391.14945 C 202.91571,394.84187 201.39286,397.45325 199.5203,400.22452 C 198.02268,402.33944 197.74794,403.33191 198.47196,403.93279 C 200.20043,404.20978 201.62206,401.72701 202.41493,400.36534 C 203.85412,398.62566 211.59808,391.30234 217.09152,388.06705 C 217.33959,388.31513 215.69771,393.30408 214.88534,394.76383 C 212.33346,399.34924 211.60866,403.96996 213.10161,406.24849 C 213.76041,407.25394 214.32308,407.4846 216.13706,407.48458 C 221.00287,407.55043 227.7074,401.52448 231.15788,398.34692 C 234.64242,395.138 235.67873,393.45697 238.46488,391.41544 C 239.99742,389.90881 240.9852,390.14361 242.92418,390.14806 C 246.34212,390.22526 246.85788,390.71152 245.83447,392.88623 C 243.07077,398.75898 242.09447,400.0773 240.62412,399.86465 C 239.89022,399.7585 239.61591,399.39957 239.70097,398.59727 C 239.95525,396.19885 236.91919,397.70358 236.10223,400.38099 C 235.71317,401.65605 236.94412,403.52425 238.19889,403.47903 C 239.95348,403.41581 242.46154,402.71474 243.34665,400.45922 C 243.4323,400.24096 244.10908,398.72468 245.03649,397.12648 C 245.9639,395.52828 246.9877,393.3714 247.3209,392.33859 C 247.73254,391.06268 248.27172,390.39107 249.01075,390.25758 C 253.69477,389.41154 259.1473,388.30945 259.69743,388.09834 C 260.5366,387.77632 260.59636,390.35791 259.8226,393.96585 C 258.72178,402.83891 269.61524,403.97577 276.00127,402.86881 C 279.90796,401.70299 281.47736,401.88122 281.5089,399.78642 C 281.26716,399.637 279.9537,399.8671 278.59862,400.28711 C 273.34813,401.33095 266.681,401.67759 263.09276,397.01695 C 262.02461,395.39884 261.96164,394.99066 262.43559,392.96446 C 263.39784,388.85076 264.3876,387.48238 267.58335,385.86087 C 270.77686,383.96591 273.15261,382.57635 274.93729,381.44851 C 275.45859,381.44851 275.89175,381.22319 275.89174,380.94781 C 275.89174,380.36383 274.04177,380.26787 273.79508,380.83828 C 273.49875,381.52353 266.90008,384.06404 266.1595,383.77986 C 266.09745,381.72211 266.15523,380.43009 266.03434,378.44435 C 265.49165,377.00661 265.92571,375.94088 267.06701,375.94088 C 276.56917,372.54907 285.59755,364.61156 285.12328,353.72258 C 284.12721,349.72175 282.88088,347.58015 277.44076,344.89786 C 273.84623,343.21696 269.59447,343.28104 265.518,343.23931 z M 263.31181,346.29042 C 265.41513,346.29697 267.57228,346.47954 269.88342,346.8224 C 290.86113,353.26729 279.73471,371.63238 259.99471,376.50415 C 258.8257,376.87919 257.8235,377.41792 257.77288,377.6933 C 257.62799,378.48171 259.38298,378.60093 260.69882,377.8967 C 261.43549,377.50245 262.07231,377.43784 262.35737,377.72459 C 263.78896,379.16467 263.0658,385.27978 261.40292,385.79828 C 260.97317,385.93228 260.16996,386.21971 259.61919,386.4398 C 259.06843,386.65989 257.71656,387.0759 256.61503,387.36295 C 255.51351,387.64999 253.54203,388.0359 252.23396,388.22351 C 250.27034,388.50518 249.85567,388.44369 249.85567,387.80106 C 255.12693,376.3432 263.48653,366.53368 270.97868,356.4764 C 273.15483,354.10727 273.37515,353.67817 272.73111,353.03413 C 271.58753,351.89054 269.8101,352.76662 266.84796,356.16347 C 261.5475,366.13276 251.7184,374.64918 241.15611,385.59487 L 239.21592,387.95753 C 230.44599,387.87038 228.55863,384.55101 226.52647,381.98049 C 224.21027,377.99085 224.86358,371.13609 226.8394,366.78757 C 231.74728,357.20498 237.9985,354.85918 243.53441,351.20347 C 251.21665,347.81464 257.00183,346.27072 263.31181,346.29042 z M 386.67024,347.46392 C 380.32878,347.89739 369.22122,362.54638 366.03227,366.42769 C 362.04935,370.61959 358.9585,375.75172 355.54899,380.44712 C 350.59341,384.18917 339.83524,392.39201 338.97916,391.46238 C 338.22568,391.46238 338.67792,388.45803 339.76149,386.25203 C 341.71558,382.27381 338.71931,379.58316 336.69475,383.49822 C 336.28719,384.28633 335.33509,385.26431 334.58244,385.65746 C 330.52189,388.50118 319.36345,398.66706 315.94724,398.12787 C 315.72473,397.88523 317.51518,395.95608 321.18889,390.461 C 321.9211,388.77574 323.80894,387.61694 323.05084,385.7044 C 322.4619,384.41184 321.09588,384.09784 319.54598,384.89077 C 318.22477,385.37325 316.31947,386.55406 315.74384,384.70301 C 315.57157,384.01667 315.13356,383.45128 314.77374,383.45128 C 313.81645,383.45128 312.09567,385.4473 311.19066,387.6133 C 310.05428,390.33305 303.36047,396.61859 299.65905,398.4408 C 297.29235,399.60592 295.61198,400.02768 292.3677,400.27147 C 288.52408,400.5603 288.03794,400.4878 286.78183,399.48913 C 281.65517,395.04266 292.93556,391.3052 295.4188,387.36295 C 298.55075,383.33948 299.52443,381.63372 296.15419,378.35046 C 293.37764,377.6361 292.67873,377.95061 287.6111,385.84522 C 285.7955,388.81524 285.58347,389.51127 283.66814,393.54339 C 279.56766,401.60688 286.79789,403.38846 292.61804,402.54023 C 298.09253,401.31119 301.63017,399.34488 305.3075,395.74957 C 306.48049,394.48992 307.67196,393.46517 307.95179,393.46516 C 308.50904,393.46516 307.35275,395.9575 306.29324,397.04824 C 305.39612,397.97182 303.4299,400.81335 303.4299,401.17897 C 303.4299,401.34299 303.87446,401.47627 304.41564,401.47626 C 305.61266,401.47626 308.73117,398.82248 309.67293,397.00131 C 311.18105,394.52931 313.41062,392.62743 315.19621,390.36711 C 316.34909,388.81668 318.67305,388.02554 319.06093,389.05279 C 319.19864,389.4175 318.44829,391.06184 317.38674,392.71411 C 316.32519,394.3664 315.30609,396.11259 315.13361,396.59449 C 314.22619,398.01418 312.49489,398.16513 311.94169,400.05241 C 311.94169,402.74554 318.88377,400.41017 322.50321,397.2673 C 331.70491,390.58932 334.52368,387.08278 336.47569,388.97456 C 337.53198,395.18818 331.61477,396.86633 329.46597,401.60143 C 331.21467,407.52363 336.47553,399.74567 337.47707,397.12648 C 337.47707,396.52588 338.69056,395.25689 340.74723,393.74679 C 344.04449,391.32578 345.51329,390.99732 343.65752,393.08963 C 339.72877,398.96557 335.66467,404.63268 331.12452,410.09758 C 325.21206,418.39994 323.82717,419.20454 313.94447,436.77517 C 313.94447,437.57012 312.72707,440.02231 311.39406,441.90727 C 310.3555,443.37589 309.15136,443.72353 300.05022,445.27132 C 292.27223,446.36061 269.37557,450.02557 255.50412,456.41175 C 254.74928,456.90634 254.36192,457.65614 254.36191,458.60229 C 254.36191,459.76973 254.68848,460.18797 256.09869,460.77718 C 270.13712,462.51179 283.57595,457.13928 297.18688,454.81579 C 297.74793,454.73398 299.59605,454.26176 301.30195,453.78311 C 304.17868,452.97593 304.49484,452.97814 305.65173,453.73617 C 306.84546,454.51833 306.94113,454.50538 307.70145,453.345 C 308.61593,451.94931 309.53328,451.48761 310.36138,451.99939 C 310.75697,452.24387 310.06172,453.25536 308.8593,455.58248 C 305.91967,461.27172 305.71693,460.21146 306.07419,458.305 C 306.22901,457.47885 306.5552,456.42273 306.70006,455.92671 C 307.97616,451.55689 306.58937,452.51128 306.24183,453.49477 C 303.94804,455.92462 300.73371,471.14327 301.88088,471.72985 C 302.28432,472.13329 302.6222,472.09008 303.13261,471.55774 C 306.80297,465.06651 308.76705,457.48157 313.75671,451.7021 C 315.54438,449.77527 316.03758,449.54895 319.95279,448.80747 C 322.39133,448.34565 323.98118,448.03585 325.1162,447.88431 C 326.72708,448.10095 328.25755,448.66731 329.74762,449.43334 C 329.78989,449.46597 329.81327,449.49354 329.85715,449.52721 C 331.92092,450.98525 334.04223,452.26101 336.2097,453.40759 C 345.67673,458.87488 356.92408,460.56344 367.64388,461.70033 C 398.07598,462.68007 428.47622,462.27851 458.83274,465.33036 C 466.13431,466.274 462.73076,467.01108 459.80283,468.42841 C 452.98736,470.43568 446.01367,471.83194 439.08662,473.3884 C 438.84731,473.43932 438.72608,473.46047 438.4764,473.51357 C 435.41008,474.16571 433.70036,474.58448 432.74971,475.07824 C 431.79908,475.57201 431.6075,476.14076 431.60751,477.08102 C 432.47348,481.88907 455.519,482.49626 460.30352,483.13628 C 464.61321,484.23845 466.6799,485.08649 464.37166,488.2058 C 461.71066,492.72529 443.91827,499.64852 446.73785,505.11987 C 447.18419,505.83457 447.44765,506.10514 448.5998,506.01173 C 450.95393,505.97974 455.08263,506.0565 456.36056,503.64908 C 456.21977,502.5647 446.2236,505.40056 451.11892,501.55242 C 456.68334,497.74011 462.42762,494.57771 466.93771,489.48884 C 467.91295,488.48485 468.63829,487.61565 468.95613,487.00101 C 470.14847,479.13865 458.84124,480.86792 441.18998,478.13158 C 438.78708,477.29333 434.13399,476.66987 441.02681,474.85919 C 449.179,472.52982 455.84027,472.41645 465.70163,468.88215 C 465.74292,468.8705 465.78552,468.86256 465.8268,468.85086 C 470.21249,467.27395 472.32823,466.25805 467.92345,464.59497 C 457.49126,462.32483 451.61469,461.54446 435.8947,460.35471 C 434.56418,460.06426 424.39723,460.88803 424.46145,459.41368 C 442.27087,455.64273 460.12511,451.8827 477.62439,446.83598 C 478.89049,446.20355 480.54405,445.53189 481.30137,445.34955 C 481.76496,445.23794 482.17808,445.05279 482.42792,444.8645 C 482.43317,444.86055 482.43847,444.85281 482.44357,444.84885 C 483.67036,444.3668 484.84111,443.8351 485.83891,443.19031 C 485.96967,443.12799 486.10151,443.06813 486.23007,443.00255 C 488.15978,442.01808 489.68798,439.73679 489.68799,437.8235 C 486.99874,431.93145 464.60635,430.57082 458.56674,428.96748 C 456.60291,428.32818 455.30932,427.54573 455.96939,426.51094 C 459.29522,426.14831 469.67954,424.83514 467.40711,419.20394 C 467.02381,418.60839 465.78701,417.91976 464.55942,417.62363 C 464.3953,417.58404 464.11206,417.51383 463.9179,417.46717 C 461.32523,416.39501 458.35055,416.0635 455.37482,415.8712 C 455.34886,415.86953 455.32255,415.87286 455.29658,415.8712 C 453.74492,415.69973 452.04302,415.52622 450.38353,415.4018 C 448.97369,415.29611 447.95596,415.20621 447.03514,415.12016 C 445.80936,414.87817 444.66663,414.53785 443.65546,414.02489 C 443.77365,413.9501 443.88973,413.87644 444.01533,413.80584 C 444.02572,413.79999 444.03617,413.79601 444.04662,413.7902 C 444.39011,413.67354 444.75493,413.55537 445.12624,413.44597 C 446.85067,412.86052 448.57365,412.28581 450.30529,411.72483 C 452.75193,411.13843 455.18158,410.58981 456.79866,409.67512 C 464.19159,407.35674 471.60579,405.091 478.92307,402.50894 C 483.4607,400.33554 491.78891,397.46463 494.44457,397.15777 C 495.27072,397.06231 496.50993,396.83147 497.19839,396.64143 C 505.19481,395.37324 506.91314,394.84718 511.84369,393.16787 C 515.6188,392.03612 519.45244,387.97017 512.42261,389.97595 C 510.52188,390.54491 507.72547,391.3782 506.21088,391.82226 C 504.69628,392.26631 503.23174,392.77974 502.95637,392.96446 C 502.68099,393.14917 500.87849,393.67964 498.95082,394.15361 C 497.02315,394.62757 493.75611,395.45379 491.69076,395.98427 C 485.60196,397.54813 465.53296,398.26585 456.93948,397.22036 C 454.37794,396.90872 451.31254,395.58332 449.91412,394.1849 C 448.27532,389.6564 455.705,384.67758 451.4475,380.16548 C 450.41831,379.90717 449.87409,380.17177 448.69369,381.46415 C 447.19032,383.11012 446.12762,383.11476 446.12763,381.4798 C 443.80339,375.63709 437.02486,383.52447 435.23754,386.11122 C 431.71066,392.44028 423.36773,400.77547 422.75149,394.37266 C 424.75354,389.11063 431.4476,383.32999 429.77684,380.07159 C 425.75527,374.00623 423.22626,378.86399 423.00184,384.13974 C 423.00047,386.59143 422.76167,387.42845 421.56234,389.08408 C 419.13394,392.11014 411.397,398.85189 408.38783,393.65292 C 407.11504,390.86204 410.21035,388.32556 411.70493,386.03298 C 413.12905,383.89436 413.37121,382.68397 412.62808,381.51109 C 402.35073,376.49491 390.10027,400.63721 401.56588,396.40673 C 404.33451,395.16717 404.63114,395.20467 406.32248,396.97001 C 408.61299,399.3608 412.42622,398.88954 416.25811,395.74957 C 419.05575,393.45712 420.09154,393.42373 420.09155,395.60875 C 420.09155,397.98488 421.31397,399.47916 423.25218,399.47348 C 430.38797,398.18905 434.17085,392.39099 437.64713,387.20648 C 439.24427,384.52872 441.46261,382.41606 442.32549,382.74717 C 444.80411,383.69833 442.52437,389.43181 436.5988,397.17342 C 434.77638,399.55437 434.61074,401.11305 436.20763,400.88168 C 436.88334,400.78378 438.29215,399.419 439.83767,397.36118 C 445.13743,390.65373 442.35978,397.24127 447.41065,397.47071 C 455.4438,402.38295 476.67723,398.84278 481.80206,399.33266 C 468.27627,404.10492 462.83386,406.001 457.31501,407.90704 C 457.24261,407.93403 457.16838,407.95831 457.09595,407.98528 C 454.44937,408.8989 451.74545,409.83166 448.1304,411.06767 C 446.77514,411.53056 445.59014,411.94251 444.50038,412.30376 C 444.4821,412.30982 444.456,412.31337 444.43778,412.31941 C 428.03207,416.86116 410.78626,415.36347 393.94594,417.16988 C 384.07679,417.86826 357.27708,419.39309 335.08313,432.08116 C 335.04883,432.11696 335.00971,432.15482 334.9736,432.19069 C 334.94932,432.20438 334.93564,432.20811 334.91102,432.22198 C 334.16554,432.64208 332.33026,433.91486 330.45171,435.30438 C 328.59873,436.41339 326.67257,437.56006 325.33526,438.74665 C 322.47035,439.92763 319.28872,440.12381 316.07242,440.74942 C 313.42984,441.1195 314.10156,440.32612 315.44655,437.44798 C 320.26273,429.03379 325.04199,420.61179 330.76465,412.74186 C 337.20854,406.56287 341.97126,396.51972 348.24199,390.33582 C 351.7682,387.51211 354.56858,383.47543 358.60009,381.32333 C 359.04517,381.15254 360.84421,380.02531 362.59,378.81986 C 373.89198,372.53564 380.54138,364.52942 387.67163,355.24031 C 389.08666,353.20716 390.94311,349.97692 388.76689,347.9959 C 388.15535,347.57416 387.44902,347.41068 386.67024,347.46392 z M 385.10557,350.98442 C 385.80842,350.92677 386.37454,351.18418 386.54507,352.03274 C 387.05999,354.5276 374.42178,368.44205 366.26697,374.42314 C 363.46862,376.17764 360.81222,378.60077 357.77082,379.94643 C 364.55954,369.11413 373.02174,360.84234 381.6946,352.58037 C 382.38768,352.04752 383.93416,351.08051 385.10557,350.98442 z M 405.82178,353.15931 C 402.29259,353.88171 393.96214,370.92295 389.67441,376.00346 C 384.43028,381.42959 377.57885,385.77668 368.81738,390.24194 L 366.86155,390.60182 C 367.12666,388.45221 368.44062,385.94753 367.69082,383.95198 C 367.12734,383.95198 365.81471,385.45069 365.37511,386.59626 C 363.48515,389.0344 363.62881,382.19857 366.45473,382.60636 C 368.17232,382.94988 368.85438,382.53 369.27113,380.86958 C 369.67101,379.20216 368.19433,377.98673 366.78331,377.44296 C 365.75963,377.44296 363.55994,379.95623 362.49612,382.32472 C 361.44245,384.6706 361.37017,387.62349 362.29271,390.78958 C 360.96792,396.58656 350.61853,395.27697 355.72111,388.58339 C 356.42355,387.74859 357.00413,386.70121 357.00414,386.26768 C 355.75318,385.0917 353.88233,387.82857 352.02849,390.461 C 349.48226,393.87918 346.79836,397.42149 344.43985,401.05379 C 337.17948,412.95108 319.90774,437.32677 320.95418,438.26161 C 322.80472,439.92237 335.23471,418.32764 338.47846,413.80584 C 341.62938,409.14284 344.40173,405.12077 347.02156,400.60004 C 347.90706,399.0166 348.95312,397.45115 349.35291,397.12648 C 352.70264,395.63237 357.26721,398.59121 360.08653,395.87474 C 362.01782,393.8223 363.60891,393.06826 366.76766,392.69847 C 373.11699,391.66965 378.87779,388.09766 384.02595,384.35879 L 385.18381,383.27917 C 385.56363,383.68784 384.77893,387.26429 383.97901,389.11538 C 380.10242,396.59313 379.85915,396.97003 378.79996,396.97001 C 377.20811,396.97001 375.79634,398.15823 376.18697,399.17619 C 376.47048,399.91501 377.0023,399.99672 380.14557,399.72382 C 387.19852,399.11146 390.53135,398.1697 389.79957,396.98566 C 389.55004,396.58191 388.33498,396.4321 386.1226,396.54755 C 383.23783,396.69809 382.78888,396.60798 382.63339,395.81216 C 384.94374,389.87625 389.08294,384.26653 392.0527,378.49128 C 396.86383,370.29653 407.42342,364.92049 407.98102,354.55186 C 407.83581,353.28751 407.63531,353.15931 405.82178,353.15931 z M 119.14329,356.91451 C 119.98793,356.91451 120.49293,356.84509 120.67666,357.35262 C 120.9015,357.97366 118.29063,359.57162 115.38809,361.53028 C 113.8139,362.32704 109.78036,365.71163 108.62872,365.6923 C 108.98,364.66019 114.96791,358.1393 119.14329,356.91451 z M 253.54828,375.86264 C 253.07212,380.09232 248.99242,384.85057 248.35359,386.97179 C 248.13006,388.16876 247.99121,387.99378 247.5556,388.16093 C 247.12001,388.32809 245.61971,388.48258 244.22286,388.45822 C 241.65963,388.41351 241.72493,388.41068 242.51738,387.53506 C 246.26896,381.8129 249.41602,379.82637 253.54828,375.86264 z M 293.49426,382.93494 C 293.57859,382.92369 293.65284,382.93237 293.72896,382.95059 C 295.80638,384.86222 294.27552,385.02212 291.28807,388.45822 C 287.92493,391.136 286.99545,391.16661 288.8472,388.53645 C 290.09156,386.44599 292.22926,383.10368 293.49426,382.93494 z M 405.10203,385.07853 C 405.34706,385.08373 405.46549,385.35168 405.33673,386.07992 C 404.60237,388.79508 404.06919,393.64293 400.5332,393.96585 C 397.29723,391.99854 401.92576,388.01594 403.49043,386.28333 C 403.94539,385.78637 404.69364,385.06988 405.10203,385.07853 z M 183.99878,385.4697 C 184.91673,385.48401 184.87792,385.60388 183.60762,386.72143 C 182.18813,387.97025 180.75992,388.35674 180.75992,387.48812 C 180.75992,386.76268 182.86077,385.45197 183.99878,385.4697 z M 181.63613,389.45961 C 183.63097,389.84753 181.61037,393.3474 180.94768,395.09241 C 179.37291,398.22501 180.01354,399.87334 176.50402,399.97418 C 175.2997,399.97418 174.46313,399.78923 174.2509,400.97556 C 174.03765,402.16764 172.06931,402.51815 172.24813,401.55449 C 172.86151,398.10881 174.67943,394.82854 176.75437,392.02566 C 177.8652,390.56332 179.86292,389.78826 181.63613,389.45961 z M 129.34493,399.12926 C 127.46656,399.11064 126.04553,401.01107 127.68638,402.33682 C 128.73849,403.18688 128.8246,403.16053 130.39326,401.52319 L 130.69054,399.47348 C 130.24233,399.23361 129.7784,399.13355 129.34493,399.12926 z M 437.86618,417.59234 C 440.58147,417.80125 443.8476,417.81433 447.12901,417.93657 C 450.71555,418.18962 454.13316,418.57265 456.84561,419.03183 C 456.86105,419.03575 456.87713,419.04353 456.89254,419.04748 C 468.21759,422.00968 459.47655,422.53066 448.27122,425.50956 C 430.12149,428.55843 412.03896,432.13012 394.08677,436.18059 C 392.13621,436.93078 391.0513,438.07949 391.05131,439.48204 C 392.93788,448.42075 414.77515,439.87807 453.3251,446.49176 C 421.60451,457.56242 389.32453,462.48564 355.90887,458.19547 C 347.22012,456.24047 338.47021,453.34369 331.26534,447.96255 C 328.48296,446.40313 329.72823,446.35556 331.23405,446.05365 C 332.61042,445.63312 333.99769,445.21742 335.39607,444.80192 C 335.43404,444.8038 335.46712,444.79965 335.5056,444.80192 C 353.05523,439.49644 370.47251,434.01339 388.79819,432.30022 C 390.2029,433.1836 404.65687,431.3278 397.2161,429.65593 C 394.83433,429.14107 394.84751,429.10716 397.35693,428.24772 C 397.38746,428.24598 397.40356,428.24935 397.43516,428.24772 C 405.67088,425.24942 414.08308,422.79059 422.43855,420.15839 C 427.36176,418.11654 432.6038,417.70598 437.86618,417.59234 z M 417.54114,417.65492 C 418.92907,417.64806 419.9362,417.71623 420.51401,417.85833 C 420.96619,418.06417 421.19387,418.34811 421.10858,418.60938 C 414.35091,420.31516 407.90384,423.03476 401.31554,425.27486 C 400.38555,425.55333 399.20758,425.96601 398.10796,426.40141 C 398.09697,426.40504 398.08766,426.41345 398.07667,426.41706 C 395.26306,427.34332 392.4306,428.18895 389.56488,428.90488 C 382.15549,430.41406 374.64514,431.30841 367.15883,432.33151 C 360.32623,433.22839 353.4938,434.18563 346.69297,435.30438 C 341.88606,436.07143 337.09029,436.9062 332.31367,437.85479 C 333.05822,436.68496 333.96518,435.68413 334.9736,434.80369 C 356.66388,420.55969 385.03935,420.02537 410.04638,418.04609 C 412.54307,417.91474 415.04596,417.78699 417.54114,417.65492 z M 450.88422,427.24634 C 458.43725,428.36885 442.52051,428.95066 450.60258,427.26199 L 450.88422,427.24634 z M 447.58277,430.07838 C 475.58985,435.37914 490.00492,435.48689 485.13481,440.67119 C 484.66575,441.26346 484.14622,441.75495 483.80484,441.87598 C 483.32449,442.04628 482.59064,442.44716 482.17758,442.76785 C 482.01971,442.89041 481.79746,443.01762 481.55171,443.15901 C 481.5243,443.16678 481.5012,443.18273 481.47348,443.19031 C 463.32353,450.12099 448.67107,453.21842 425.28625,457.55396 C 421.25172,458.04164 417.21732,458.53991 413.16008,458.79005 C 428.68754,454.39302 443.48608,452.69474 456.09456,448.49453 C 459.94512,447.0895 460.00662,445.00172 456.97078,444.3951 C 456.96624,444.39437 456.95968,444.39582 456.95513,444.3951 C 438.08594,438.67871 389.78982,444.43439 399.06241,437.3228 C 415.03551,433.85771 431.10928,429.25516 447.58277,430.07838 z M 364.51454,434.85063 C 353.78006,437.77259 343.0351,440.58968 332.51708,444.23863 C 328.26971,444.98001 329.25278,442.09827 331.60957,440.26438 C 331.82182,440.18464 332.04671,440.10162 332.21979,440.02968 C 332.77056,439.80072 334.53469,439.47487 336.14711,439.30993 C 337.50626,438.9772 338.87426,438.69836 340.24654,438.43372 C 348.31687,437.11194 356.42118,436.01892 364.51454,434.85063 z M 323.77058,442.32974 C 323.81673,442.45161 323.87261,442.56691 323.9427,442.68961 C 325.61279,442.80956 326.42831,443.11724 326.68087,443.51889 C 326.168,447.1128 320.49388,447.378 317.73097,447.54008 C 316.54731,447.54008 316.50865,447.44742 317.05816,446.24141 C 317.68694,444.86139 321.04948,442.91599 323.77058,442.32974 z M 315.49349,444.05087 C 315.59304,444.04638 315.68874,444.04521 315.77513,444.05087 C 316.1898,444.07807 316.44794,444.22055 316.44794,444.48898 C 316.44794,445.4828 314.66056,447.99399 313.45942,448.68229 C 311.72909,449.67383 309.43823,450.18322 309.43822,449.57415 C 309.43822,448.14302 311.24657,445.57579 312.77097,444.84885 C 313.7994,444.35843 314.79666,444.0823 315.49349,444.05087 z M 309.07835,445.44343 L 308.74977,447.05503 C 306.4411,451.11007 307.25584,451.31802 306.05854,451.20141 C 296.69359,451.78106 269.43564,460.23587 258.66474,458.039 C 265.90833,452.21344 298.34573,447.11017 306.12113,445.8033 L 309.07835,445.44343 z"
       id="path4151"
       sodipodi:nodetypes="cccccccssssccccccccsccsccccccsccsssssssccssssssscscsscccssssccccccccccsccccsscccccccccccccccccssscccssccsssccsccccsscccccsscsccsssssssssscccccsccsscccccccccsssssssccscccccccccccssccccccsssscccccccssssccssccccccscccsccsccsssssssccccsccccccccsscccccccccccccccccssscsccccscsssccssccccscccsssssccsccccccccccsssccssscccccsscccssccccccccccccccccccccccccccsccccccccccccccssssscccccscccccsscccccccccccccssccccsccccsccccccccccccccccccccccccccssccccccccccccssscccccccccccscccccccsccsssssccccccc" />
    <path
       style="fill:#000000;fill-opacity:1;fill-rule:evenodd;stroke:none;stroke-width:5.0999999;stroke-linecap:round;stroke-linejoin:miter;stroke-miterlimit:4;stroke-dasharray:none;stroke-opacity:1"
       d="M 250.05907,317.6257 C 249.72823,317.6494 249.4196,317.80091 249.19851,318.04815 C 249.19851,318.04815 216.44676,354.91325 201.31419,375.63049 C 200.07629,376.73092 201.40902,377.96768 202.16717,376.08397 C 217.07621,355.67278 251.07611,319.76929 251.07611,319.76929 C 251.43207,319.38631 251.51858,318.82501 251.29447,318.35263 C 251.07033,317.88024 250.58086,317.59221 250.05907,317.6257 z"
       id="path4245"
       sodipodi:nodetypes="cccccsc" />
  </g>
</svg>
