<?xml version="1.0" encoding="UTF-8" standalone="no"?>
<!-- Created with Inkscape (http://www.inkscape.org/) -->

<svg
   xmlns:dc="http://purl.org/dc/elements/1.1/"
   xmlns:cc="http://creativecommons.org/ns#"
   xmlns:rdf="http://www.w3.org/1999/02/22-rdf-syntax-ns#"
   xmlns:svg="http://www.w3.org/2000/svg"
   xmlns="http://www.w3.org/2000/svg"
   xmlns:sodipodi="http://sodipodi.sourceforge.net/DTD/sodipodi-0.dtd"
   xmlns:inkscape="http://www.inkscape.org/namespaces/inkscape"
   width="198.42683"
   height="78.397812"
   id="svg3231"
   version="1.1"
   inkscape:version="0.91 r13725"
   sodipodi:docname="Kim_Young-Sam_signature.svg">
  <defs
     id="defs3233" />
  <sodipodi:namedview
     id="base"
     pagecolor="#ffffff"
     bordercolor="#666666"
     borderopacity="1.0"
     inkscape:pageopacity="0.0"
     inkscape:pageshadow="2"
     inkscape:zoom="2.8284271"
     inkscape:cx="203.85034"
     inkscape:cy="19.59739"
     inkscape:document-units="px"
     inkscape:current-layer="layer1"
     showgrid="false"
     inkscape:window-width="1366"
     inkscape:window-height="715"
     inkscape:window-x="-8"
     inkscape:window-y="-8"
     inkscape:window-maximized="1"
     fit-margin-top="0"
     fit-margin-left="0"
     fit-margin-right="0"
     fit-margin-bottom="0" />
  <metadata
     id="metadata3236">
    <rdf:RDF>
      <cc:Work
         rdf:about="">
        <dc:format>image/svg+xml</dc:format>
        <dc:type
           rdf:resource="http://purl.org/dc/dcmitype/StillImage" />
        <dc:title></dc:title>
      </cc:Work>
    </rdf:RDF>
  </metadata>
  <g
     inkscape:label="Layer 1"
     inkscape:groupmode="layer"
     id="layer1"
     transform="translate(1.2663399,-949.69096)">
    <path
       style="fill:#000000"
       d="m 14.813851,1027.2236 c -1.474446,-1.5551 -1.123191,-4.385 1.19914,-9.6584 1.26726,-2.8776 2.780651,-5.9294 3.363213,-6.7817 0.582612,-0.8525 2.576417,-4.1106 4.430891,-7.2403 1.854378,-3.1297 4.189483,-7.03149 5.18907,-8.67083 2.317484,-3.80024 7.415362,-14.10616 8.794384,-17.77834 1.227154,-3.26806 0.374423,-3.94391 -2.874363,-2.27838 -1.101379,0.56463 -2.744774,1.38077 -3.652018,1.81373 -1.638146,0.78157 -11.259794,7.45555 -15.17032,10.52262 -9.7565955,7.65255 -14.1894717,10.53743 -15.63493444,10.17508 -1.73788446,-0.43567 -2.31634926,-2.45297 -1.02013213,-3.55785 0.46174598,-0.39363 3.98121497,-2.97975 7.82110307,-5.747 3.8397935,-2.76726 8.4402515,-6.12777 10.2230155,-7.46779 3.915493,-2.94293 17.018653,-10.86596 19.760563,-11.94861 2.631896,-1.03915 3.567333,-0.71006 5.05912,1.77989 1.403063,2.34186 0.959545,5.29714 -1.598353,10.65103 -0.822435,1.72139 -2.59467,5.46851 -3.938227,8.3268 -2.437322,5.18527 -3.905198,7.81332 -11.028969,19.74665 -3.065088,5.1345 -3.878864,7.0707 -4.348985,10.3471 -0.40075,2.7935 -0.817244,3.9705 -1.357071,3.8352 -0.428323,-0.1074 -0.938035,0.4399 -1.132637,1.2162 -0.398956,1.5914 -2.179236,3.7688 -2.916705,3.567 -0.266158,-0.077 -0.792618,-0.4565 -1.167785,-0.8521 z m 32.109512,-8.7768 c -2.808187,-2.086 -5.036887,-19.01351 -3.375849,-25.63948 0.705776,-2.81539 3.329418,-5.62917 4.885153,-5.23917 1.760488,0.44133 1.774798,1.857 0.05031,4.96578 -1.539315,2.77509 -2.307842,9.83197 -1.436009,13.18707 0.376756,1.4499 0.497194,1.3969 1.551266,-0.6832 0.628579,-1.2403 1.610975,-4.2967 2.183083,-6.79217 0.572268,-2.49535 1.345506,-4.83402 1.718646,-5.19698 2.035349,-1.9799 6.027949,2.38155 7.160283,7.82185 1.17143,5.6278 1.749132,5.8779 5.556964,2.4056 5.726328,-5.22184 6.44642,-5.84113 8.392699,-7.21789 1.042219,-0.73709 2.876816,-2.3666 4.076857,-3.62094 2.098913,-2.19377 2.166079,-2.39667 1.766744,-5.33708 -0.832541,-6.12995 2.759872,-19.01549 5.960834,-21.38084 1.883687,-1.39188 4.522885,-1.27406 5.943049,0.26534 1.241557,1.34576 1.493001,1.331 4.322611,-0.25366 1.652423,-0.92546 3.130158,-2.18428 3.283907,-2.79759 0.36411,-1.45246 3.311659,-0.75246 4.144379,0.9846 0.50612,1.05545 0.19416,2.11148 -1.74755,5.9159 -3.788582,7.42301 -4.813612,10.1894 -3.863686,10.42753 1.19001,0.29832 3.579666,-1.54358 8.886326,-6.84951 5.86776,-5.86687 6.2061,-6.37872 5.87164,-8.8823 -0.38204,-2.85959 1.39638,-11.62463 2.75346,-13.57069 1.25732,-1.803 3.38361,-1.66178 4.31793,0.28685 0.42405,0.88441 0.12692,2.5556 -1.0277,5.78012 -1.35407,3.78165 -1.57099,5.50803 -1.30409,10.37894 0.17609,3.21354 0.20006,7.19148 0.0533,8.84004 -0.21341,2.3966 0.12849,3.40365 1.70616,5.02546 2.66806,2.74271 2.17257,5.0508 -0.85249,3.97111 -2.77795,-0.99141 -3.66445,0.61205 -1.88434,3.40828 1.94373,3.05346 2.85511,8.02944 2.24626,12.26463 -0.55241,3.8427 -4.30131,11.9243 -6.17959,13.3215 -2.67978,1.9934 -6.39081,-2.5261 -7.16383,-8.7247 -0.40761,-3.268 -0.16084,-5.8487 1.04431,-10.92203 0.86787,-3.65365 1.41123,-6.92145 1.20736,-7.26164 -0.84066,-1.40317 0.47926,-3.84434 2.25523,-4.171 2.4605,-0.45259 3.8554,-2.39288 3.81226,-5.3027 -0.0193,-1.30292 -0.27479,-2.42903 -0.56773,-2.50247 -0.29296,-0.0734 -1.65482,0.81067 -3.02629,1.96456 -1.3715,1.15389 -4.22147,3.55316 -6.33326,5.33163 -4.280073,3.6045 -6.204503,3.97124 -8.804264,1.67787 l -1.764512,-1.55657 -2.769204,4.74366 c -2.495865,4.27544 -4.635284,6.4506 -6.613384,6.72401 -0.997085,0.13788 -9.944219,7.66178 -15.388797,12.94098 -4.562078,4.4235 -6.801399,5.3798 -8.993877,3.8408 -0.498853,-0.3502 -1.556736,-3.51 -2.350845,-7.0217 -1.419005,-6.2752 -1.462706,-6.35224 -2.541823,-4.4817 -0.603888,1.0468 -1.96156,6.0166 -3.01701,11.044 -1.055476,5.0274 -2.144366,9.0635 -2.419794,8.9692 -0.275548,-0.094 -1.051697,-0.5808 -1.725097,-1.0811 z m 65.842507,-13.5281 c 2.24781,-4.8835 2.85268,-10.86833 1.37313,-13.58691 -0.86274,-1.58521 -0.98272,-1.62615 -2.09056,-0.71203 -2.04735,1.68928 -4.02139,10.35884 -3.47033,15.24084 0.58515,5.1839 1.4585,4.9875 4.18776,-0.9419 z M 86.307135,984.40188 c 1.845744,-3.23401 3.58572,-11.44277 2.728705,-12.87327 -0.951067,-1.58745 -2.698642,1.07781 -4.680819,7.13874 -1.213874,3.71164 -1.675138,6.13024 -1.387693,7.27622 0.569878,2.27181 1.375617,1.89985 3.339807,-1.54169 z m 63.495965,38.40872 c -0.4119,-0.6874 -0.71363,-2.8053 -0.67051,-4.7066 0.0998,-4.3997 3.18262,-17.8248 5.50033,-23.95256 l 1.78026,-4.70681 -2.28078,-0.2286 c -2.14674,-0.21519 -2.28903,-0.0916 -2.42117,2.10178 -0.16302,2.70555 -1.52342,3.24515 -3.93744,1.56175 -1.68406,-1.17444 -6.78903,-9.28089 -6.52009,-10.35373 0.0954,-0.38067 -0.28766,-0.8078 -0.85133,-0.9491 -0.7727,-0.19371 -1.23307,0.57362 -1.87115,3.11898 -0.46544,1.85667 -0.60593,3.62291 -0.31216,3.92483 0.8375,0.86099 -1.65486,9.32544 -2.92522,9.93455 -1.60797,0.77104 -2.69984,-1.0824 -2.76264,-4.68942 -0.0828,-4.75267 5.42541,-22.8846 8.8277,-29.05933 5.11889,-9.29005 6.70515,-10.57093 8.6275,-6.96635 0.81011,1.51905 0.73747,1.93556 -0.75832,4.34853 -0.90985,1.46773 -2.1839,3.18934 -2.83125,3.82587 -0.64734,0.63643 -1.83858,2.883 -2.64717,4.99228 -1.13686,2.96553 -1.30437,4.15828 -0.73882,5.26109 0.40226,0.78436 0.99497,2.63591 1.31715,4.11456 0.32218,1.47865 1.15554,3.7159 1.85193,4.97163 1.03098,1.85918 1.54563,2.21316 2.77089,1.90575 1.1611,-0.29122 1.50226,-0.82046 1.49387,-2.31744 -0.006,-1.06708 0.0547,-2.74056 0.13481,-3.71902 0.0801,-0.97834 0.16615,-2.42734 0.19118,-3.21977 0.0662,-2.09576 5.23666,-15.187 6.58477,-16.67232 0.63087,-0.69504 1.45587,-2.49564 1.83333,-4.00135 0.87889,-3.50594 1.91427,-3.79772 3.58443,-1.00995 1.04852,1.7501 1.1349,2.59418 0.40444,3.9529 -5.36349,9.97656 -9.33916,20.30989 -8.41047,21.86007 0.64955,1.08407 2.65018,-1.29532 5.13877,-6.11184 2.71458,-5.25381 3.75796,-6.06467 11.6218,-9.03191 5.78821,-2.18407 8.43206,-2.19526 10.41661,-0.0442 1.25166,1.35674 1.32367,1.93306 0.48496,3.8814 -1.19132,2.76743 -2.63203,3.92416 -4.35096,3.49325 -0.91286,-0.22884 -1.15933,-0.81421 -0.85464,-2.02967 0.23552,-0.9395 0.18226,-1.76975 -0.11834,-1.84511 -0.71304,-0.17874 -9.86094,3.52102 -11.17982,4.52155 -0.55956,0.42453 -1.69294,2.16331 -2.51867,3.86412 -1.33484,2.74943 -1.3777,3.20448 -0.38651,4.10411 1.31536,1.19389 0.83342,3.77275 -1.13274,6.06127 -1.65184,1.92262 -7.11309,16.59051 -6.97989,18.74661 0.0909,1.4703 0.13717,1.4746 1.82446,0.1688 0.95216,-0.737 1.82986,-1.7538 1.95044,-2.2597 0.746,-3.1297 11.03837,-11.64181 13.36992,-11.05732 1.526,0.38255 2.84645,3.54241 2.61565,6.25922 -0.11958,1.4079 -1.12613,5.3847 -2.23671,8.8373 -1.36297,4.2371 -1.78366,6.3366 -1.29435,6.4592 0.39873,0.1 3.31693,-1.724 6.48486,-4.0532 6.16908,-4.5358 13.68032,-8.5673 16.20983,-8.7003 4.41242,-0.232 4.44903,3.5463 0.0443,4.5764 -1.59099,0.372 -5.64669,2.5373 -9.01264,4.8119 -12.2158,8.2546 -13.86376,9.1402 -16.00875,8.6024 -3.38972,-0.8497 -3.53972,-2.8578 -0.93969,-12.5805 1.94255,-7.2642 2.09646,-8.3659 1.05145,-7.5427 -0.67287,0.5302 -1.49963,0.906 -1.8372,0.8351 -1.29171,-0.2716 -11.56081,14.1625 -13.23332,18.6004 -1.47509,3.9141 -2.64981,4.52 -4.09291,2.1112 z M 50.965148,987.29526 c 0.560213,-2.41115 0.42429,-10.29087 -0.323175,-18.67702 -0.870371,-9.76679 -0.796607,-11.53901 0.497824,-11.9507 1.083405,-0.34457 3.211902,1.73144 2.92963,2.85744 -0.128689,0.51334 0.01084,5.19341 0.31002,10.4002 0.551969,9.60505 0.325726,15.64194 -0.663007,17.69669 -0.617659,1.28343 -3.058341,0.99365 -2.751292,-0.32661 z"
       id="path3250"
       inkscape:connector-curvature="0" />
  </g>
</svg>
