<?xml version="1.0" encoding="utf-8"?>
<!-- Generator: Adobe Illustrator 16.2.0, SVG Export Plug-In . SVG Version: 6.00 Build 0)  -->
<!DOCTYPE svg PUBLIC "-//W3C//DTD SVG 1.1//EN" "http://www.w3.org/Graphics/SVG/1.1/DTD/svg11.dtd">
<svg version="1.1" id="Layer_1" xmlns="http://www.w3.org/2000/svg" xmlns:xlink="http://www.w3.org/1999/xlink" x="0px" y="0px"
	 width="105px" height="120px" viewBox="0 0 105 120" enable-background="new 0 0 105 120" xml:space="preserve">
<g id="g3">
	<path id="path7" fill="#010101" d="M16.151,41.794c-0.738,0.824-1.502,1.357-1.813,2.083c-0.971,2.282-1.845,4.612-2.617,6.97
		c-0.808,2.466-0.513,5.047-0.453,7.583c0.022,1.022,0.323,2.049,0.569,3.056c0.388,1.586,0.937,3.138,1.235,4.735
		c0.73,3.896,2.642,6.738,6.623,7.863c0.957,0.271,1.938,0.466,2.891,0.765c0.661,0.205,1.348,0.439,1.902,0.83
		c0.342,0.238,0.697,0.86,0.609,1.193c-0.092,0.342-0.713,0.752-1.109,0.761c-1.141,0.027-2.285-0.13-3.43-0.223
		c-2.433-0.198-4.861-0.493-7.3-0.578c-2.682-0.095-5.848,1.386-6.544,4.978c-0.566,2.926-0.931,5.813,1.309,8.346
		c1.32,1.492,1.896,3.203,1.059,5.224c-0.2,0.481-0.087,1.222,0.139,1.728c0.752,1.679,1.608,3.311,2.45,4.944
		c0.228,0.441,0.502,0.875,0.833,1.242c1.139,1.26,2.273,2.528,3.484,3.718c1.098,1.077,2.386,1.736,4.021,1.701
		c0.76-0.016,1.547,0.318,2.288,0.589c2.164,0.786,3.708,0.226,4.39-1.948c0.697-2.225,1.346-4.514,1.588-6.817
		c0.332-3.173,0.42-6.392,0.314-9.579c-0.068-2.078-0.283-4.126-0.167-6.234c0.124-2.253,0.285-4.475,0.729-6.683
		c0.107-0.536,0.173-1.091,0.175-1.636c0.017-5.746-0.005-11.49,0.034-17.235c0.01-1.462-0.517-2.606-1.576-3.564
		c-1.037-0.936-2.18-1.792-3.055-2.863c-2.494-3.053-4.875-6.197-7.301-9.306C17.073,42.966,16.71,42.504,16.151,41.794z
		 M69.171,81.469c0.235-0.348,0.337-0.462,0.399-0.595c1.119-2.389,2.242-4.773,3.339-7.173c0.161-0.354,0.237-0.771,0.249-1.163
		c0.059-2.094,0.136-4.188,0.105-6.28c-0.055-3.891-0.182-7.779-0.269-11.669c-0.031-1.396-0.084-2.794-0.039-4.188
		c0.132-4.138,0.356-8.273-0.09-12.406c-0.187-1.706-0.958-2.329-2.589-1.913c-1.107,0.283-2.201,0.65-3.266,1.075
		c-0.434,0.172-0.802,0.558-1.144,0.902c-1.241,1.252-2.251,2.638-2.661,4.413c-0.063,0.278-0.71,0.662-0.977,0.589
		c-0.314-0.085-0.563-0.589-0.732-0.961c-0.084-0.186,0.025-0.499,0.121-0.723c0.664-1.557,0.395-3.142,0.146-4.721
		c-0.252-1.63-0.812-2.113-2.305-1.572c-1.625,0.589-3.266,1.311-4.658,2.309c-1.046,0.749-1.672,2.063-2.561,3.058
		c-0.761,0.851-1.042,1.791-0.902,2.895c0.175,1.383,0.444,2.764,0.496,4.151c0.194,5.233,0.36,10.471,0.448,15.709
		c0.039,2.396,0.139,4.686,2.235,6.354c1.051,0.836,1.974,1.83,2.988,2.709c0.866,0.748,1.775,1.447,2.684,2.146
		c0.947,0.729,1.935,1.41,2.871,2.152C65.053,78.137,67.016,79.733,69.171,81.469z M30.481,38.113
		c0.256-0.182,0.377-0.221,0.408-0.297c0.112-0.272,0.193-0.557,0.287-0.836c0.676-2.015,1.412-4.118,3.621-4.827
		c2.268-0.729,2.373-2.344,2.305-4.196c-0.014-0.35,0.012-0.713-0.076-1.044c-0.444-1.67,0.229-3.246,0.414-4.857
		c0.063-0.557,0.41-1.143,0.776-1.593c2.073-2.545,4.79-3.423,7.987-2.926c1.695,0.264,3.23,0.749,3.459,2.827
		c0.01,0.094,0.076,0.184,0.122,0.271c1.021,1.954,0.81,3.833-0.291,5.689c-0.638,1.07-1.222,2.174-1.789,3.282
		c-0.463,0.9-0.203,1.299,0.833,1.287c0.598-0.007,1.191-0.124,1.792-0.145c2.024-0.069,3.511,1.005,4.051,2.904
		c0.262,0.922,0.76,1.182,1.706,0.756c1.503-0.676,2.999-1.373,4.449-2.153c1.212-0.652,1.938-1.687,2.021-3.125
		c0.039-0.693,0.104-1.403,0.299-2.063c0.816-2.771,1.729-5.512,2.527-8.286c0.797-2.766-0.42-4.418-3.261-4.673
		c-2.642-0.237-5.274-0.613-7.837,0.45c-0.131,0.055-0.303,0.002-0.444,0.04c-0.696,0.185-1.402,0.346-2.082,0.58
		c-1.833,0.634-3.63,1.379-5.486,1.924c-1.084,0.317-2.021-0.189-2.127-1.08c-0.168-1.42-0.233-2.87-0.144-4.296
		c0.056-0.867,0.463-1.72,0.753-2.564c0.288-0.84,0.414-1.658-0.137-2.435c-0.578-0.814-1.178-0.759-1.666,0.1
		c-0.469,0.818-0.864,1.722-1.497,2.396c-1.556,1.657-2.813,3.454-3.683,5.574c-1.119,2.732-2.025,5.511-2.321,8.448
		c-0.171,1.686-0.082,3.396-0.204,5.088c-0.038,0.53-0.383,1.039-0.586,1.557c-0.539-0.222-1.108-0.391-1.604-0.686
		c-0.273-0.164-0.521-0.511-0.609-0.824c-0.314-1.084-0.331-2.275-1.266-3.118c-0.092-0.083,0.01-0.375,0.016-0.57
		c0.022-0.843,0.175-1.705,0.043-2.522c-0.364-2.243-0.742-4.495-1.313-6.691c-0.579-2.236-2.208-3.433-4.077-2.911
		c-1.525,0.425-3.354,0.27-4.461,1.823c-0.137,0.192-0.537,0.254-0.822,0.274c-2.873,0.206-4.025,2.402-4.916,4.588
		c-0.758,1.861-1.072,3.917-1.461,5.91c-0.518,2.662-1.375,5.353,0.102,8.001c0.047,0.083,0.045,0.194,0.066,0.291
		c0.332,1.347,0.607,2.71,1.012,4.036c0.354,1.167,1.002,1.231,1.811,0.319c0.346-0.391,0.764-0.934,1.202-0.988
		c1.513-0.191,3.048-0.199,4.575-0.272c0.6-0.028,1.208,0.017,1.794-0.081c1.166-0.192,1.476-0.759,0.86-1.766
		c-1.219-1.997-2.525-3.938-3.805-5.897c-0.105-0.165-0.271-0.292-0.396-0.446c-0.935-1.157-1.88-2.305-2.781-3.484
		c-0.233-0.307-0.342-0.716-0.481-1.089c-0.347-0.927-0.771-1.838-0.985-2.796c-0.165-0.741-0.175-1.569-0.017-2.307
		c0.078-0.358,0.686-0.797,1.088-0.837c0.381-0.038,0.959,0.302,1.186,0.648c0.398,0.614,0.605,1.356,0.882,2.05
		c0.386,0.966,1.026,1.354,1.998,1.056c0.562-0.172,1.108-0.468,1.583-0.814c1.203-0.88,2.344-1.849,3.547-2.729
		c0.793-0.582,1.465-0.42,1.752,0.507c0.291,0.94,0.457,1.951,0.481,2.937c0.063,2.597-0.013,5.198,0.03,7.796
		c0.017,0.879,0.233,1.753,0.322,2.634c0.033,0.325,0.028,0.683-0.072,0.987c-0.493,1.497-0.711,2.988-0.021,4.479
		C30.038,37.638,30.262,37.836,30.481,38.113z M50.696,39.634c-0.726-0.366-1.105-0.711-1.506-0.731
		c-1.188-0.063-2.396,0.103-3.576-0.018c-0.922-0.093-1.375,0.252-2,0.89c-2.35,2.395-4.771,4.712-8.609,4.22
		c-1.499-0.192-1.788,0.364-1.189,1.759c0.139,0.319,0.334,0.611,0.504,0.917c0.399,0.729,0.867,1.432,1.19,2.194
		c0.972,2.293,1.769,4.663,3.586,6.505c0.378,0.384,0.552,1.065,0.624,1.636c0.164,1.284,0.148,2.59,0.311,3.874
		c0.232,1.85,1.471,3.076,3.011,3.814c1.553,0.742,3.276,1.132,4.928,1.67c1.104,0.357,1.55,0.035,1.625-1.164
		c0.066-1.042,0.148-2.084,0.197-3.127c0.104-2.236,0.301-4.476,0.257-6.708c-0.04-2.037-0.439-4.065-0.509-6.104
		c-0.078-2.284-0.632-4.313-2.302-5.959c-0.539-0.533-0.461-1.116,0.138-1.524c0.522-0.358,1.151-0.56,1.694-0.895
		C49.541,40.59,49.958,40.207,50.696,39.634z M75.227,65.983c0.162,0.035,0.325,0.071,0.488,0.108
		c0.412-1.249,0.919-2.478,1.207-3.754c0.248-1.103,0.155-2.277,0.37-3.391c1.075-5.576,2.209-11.143,3.308-16.713
		c0.297-1.513,0.375-3.089,0.846-4.541c1.014-3.129,1.279-6.343,1.449-9.583c0.063-1.208-0.483-2.111-1.47-2.775
		c-0.33-0.223-0.683-0.424-0.979-0.685c-1.114-0.98-2.316-1.05-3.608-0.409c-1.474,0.729-2.969,1.414-4.415,2.192
		c-1.979,1.066-4.002,2.081-5.838,3.358c-0.969,0.673-1.777,1.767-2.277,2.847c-0.285,0.619,0.104,1.63,0.408,2.375
		c0.063,0.148,1.2,0.05,1.699-0.209c2.02-1.049,4.154-1.307,6.382-1.287c1.188,0.012,1.892,0.596,2.256,1.61
		c0.196,0.547,0.244,1.17,0.247,1.759c0.021,3.537-0.288,7.059-0.482,10.584c-0.289,5.211,0.108,10.462,0.229,15.695
		C75.066,64.108,75.163,65.045,75.227,65.983z M49.513,112.907c-0.06-0.069-0.099-0.791,0.042-1.01l0.063-0.09
		c0.25-0.777,0.486-1.258,0.55-1.759c0.282-2.228,0.535-4.458,0.757-6.69c0.094-0.939,0.209-1.904,0.098-2.832
		c-0.446-3.698-0.51-7.426-1.554-11.078c-0.813-2.85-1.795-5.592-3.002-8.274c-2.411-5.36-4.827-10.72-7.241-16.079
		c-0.267-0.592-0.488-1.207-0.808-1.771c-0.74-1.314-1.751-2.362-3.05-3.095c-0.113,0.08-0.229,0.158-0.34,0.237
		c0.488,2.836,0.957,5.676,1.48,8.504c0.145,0.774,0.463,1.516,0.686,2.276c0.48,1.663,1.391,3.214,1.244,5.045
		c-0.037,0.479,0.141,0.983,0.256,1.468c0.558,2.317,1.117,4.635,1.701,6.945c0.098,0.379,0.312,0.729,0.48,1.089
		c0.854,1.796,1.686,3.603,2.58,5.379c0.415,0.825,0.833,1.705,1.464,2.354c0.933,0.957,2.042,1.748,3.104,2.574
		c0.526,0.411,1.439,0.563,1.252,1.459c-0.196,0.946-1.137,0.543-1.748,0.758c-0.899,0.313-2.35,0.045-2.527,1.152
		c-0.129,0.799,0.555,1.848,1.105,2.617c1.309,1.829,2.291,3.766,2.168,6.045c0.187,0.703-0.017,1.234,0.03,1.813l-0.375,1.109
		c-1.51,1.419-2.885,2.198-4.759,2.401c-2.229,0.243-3.844-1.05-3.977-3.272c-0.101-1.688-0.068-3.39-0.072-5.084
		c-0.002-0.699,0.181-1.334,1.041-1.365c0.688-0.023,1.332,0.764,1.229,1.588c-0.111,0.885-0.437,1.74-0.541,2.623
		c-0.246,2.063,0.153,2.58,1.948,2.736c1.787,0.153,3.169-0.857,3.257-2.467c0.032-0.583,0.02-1.266-0.25-1.751
		c-0.816-1.474-1.779-2.864-2.658-4.304c-0.307-0.501-0.57-1.036-0.783-1.584c-0.159-0.414-0.11-0.928-0.319-1.305
		c-0.722-1.305-0.528-2.381,0.698-3.24c-0.626-1.479-1.092-2.971-1.855-4.291c-1.242-2.147-2.004-4.418-2.558-6.825
		c-0.726-3.151-1.688-6.247-2.519-9.376c-0.201-0.766-0.24-1.569-0.416-2.342c-0.262-1.155-0.578-2.299-0.873-3.444
		c-0.135-0.528-0.326-1.049-0.398-1.586c-0.355-2.659-0.684-5.323-1.014-7.986c-0.105-0.845-0.275-1.617-1.615-1.472
		c-0.067,0.579-0.202,1.194-0.199,1.812c0.036,8.495,0.083,16.991,0.146,25.486c0.019,2.34,0.156,4.679,0.134,7.017
		c-0.015,1.392-0.206,2.78-0.371,4.164c-0.22,1.836-0.404,3.683-0.769,5.489c-0.34,1.69-0.891,3.341-1.357,5.005
		c-0.067,0.238-0.268,0.454-0.284,0.688c-0.204,2.842-1.937,4.163-4.538,4.729c-1.252,0.273-2.385,0.445-3.59-0.293
		c-1.775-1.088-3.755-1.859-5.463-3.035c-3.325-2.287-5.818-5.254-6.872-9.293c-0.25-0.934-0.921-1.757-1.406-2.623
		c-0.192-0.345-0.526-0.646-0.604-1.013c-0.389-1.782-0.705-3.579-1.061-5.368c-0.097-0.486-0.15-1.008-0.361-1.443
		c-1.381-2.857-0.987-5.713-0.056-8.575c0.046-0.144,0.144-0.274,0.161-0.419c0.43-3.313,2.889-4.813,5.529-6.102
		c0.551-0.27,1.257-0.24,1.896-0.307c1.231-0.124,1.609-0.604,1.034-1.636c-0.571-1.026-1.37-1.925-2.03-2.902
		c-0.299-0.438-0.646-0.92-0.729-1.421c-0.301-1.859-0.451-3.745-0.758-5.604c-0.119-0.724-0.666-1.383-0.742-2.101
		c-0.335-3.176-0.628-6.353,0.521-9.467c0.758-2.053,1.44-4.139,2.037-6.245c0.48-1.702,1.047-3.324,2.416-4.627
		c-0.662-0.776-1.479-1.41-1.271-2.58c0.047-0.268-0.379-0.69-0.676-0.933c-0.869-0.705-1.071-1.611-1.049-2.671
		c0.047-2.145,0.008-4.29,0.051-6.435c0.011-0.535,0.146-1.082,0.309-1.597c0.449-1.423,1.01-2.814,1.4-4.251
		c0.455-1.675,0.689-3.412,1.195-5.069c0.211-0.698,0.805-1.325,1.34-1.869c1.035-1.051,2.155-2.02,3.239-3.023
		c0.108-0.101,0.195-0.242,0.322-0.301c3.017-1.396,5.985-2.971,9.508-2.354c0.997,0.175,1.634,0.523,2.073,1.599
		c0.99,2.424,1.729,4.86,1.943,7.484c0.08,0.98,0.619,1.922,0.949,2.882c0.104-0.016,0.207-0.03,0.313-0.047
		c0.064-0.313,0.21-0.636,0.182-0.941c-0.14-1.522,0.381-2.825,1.133-4.112c0.516-0.881,1.123-1.794,0.772-2.946
		c-0.056-0.184,0.075-0.521,0.233-0.66c1.889-1.676,2.783-3.985,3.951-6.121c0.336-0.612,0.654-1.235,0.985-1.853
		c0.711-1.33,1.813-1.966,3.324-1.803c1.397,0.151,2.645,0.55,3.17,2.075c0.319,0.928,1.063,1.397,1.96,1.706
		c1.24,0.429,2.32,1.019,3.113,2.19c0.597,0.879,1.521,1.558,2.38,2.224c0.357,0.278,0.922,0.399,1.396,0.407
		c1.691,0.028,3.431,0.211,5.066-0.103c1.991-0.384,3.099,0.678,4.271,1.862c1.86,1.879,1.918,6.313,0.836,8.315
		c-1.102,2.036-1.552,4.355-2.139,6.593c0.102,0.076,0.201,0.152,0.301,0.229c0.645-0.331,1.387-0.549,1.913-1.011
		c3.197-2.799,7.058-4.293,10.99-5.61c1.063-0.356,2.258-0.332,3.394-0.462c0.188-0.022,0.453-0.009,0.574,0.104
		c1.086,1.009,2.495,1.872,3.117,3.123c0.594,1.195,0.521,2.809,0.45,4.224c-0.089,1.777-0.394,3.557-0.748,5.305
		c-0.718,3.516-1.527,7.013-2.31,10.516c-0.195,0.876-0.496,1.734-0.621,2.619c-0.385,2.709-0.697,5.428-1.06,8.141
		c-0.06,0.439-0.214,0.866-0.334,1.295c-0.466,1.668-0.928,3.338-1.405,5.003c-0.479,1.666-0.716,3.477-1.537,4.955
		c-0.961,1.729-1.246,3.586-1.641,5.408c-0.434,2.016-0.302,4.104,0.197,6.145c0.08,0.328-0.243,0.736-0.243,1.107
		c0,0.373,0.126,0.77,0.295,1.106c0.049,0.096,0.569,0.114,0.644,0.01c0.205-0.296,0.414-0.681,0.401-1.022
		c-0.065-1.938-0.194-3.873-0.308-5.811c-0.106-1.854,0.654-3.279,2.107-4.387c0.872-0.666,1.695-1.404,2.602-2.023
		c1.05-0.719,2.158-1.867,3.255-1.884c1.521-0.021,2.725-0.854,4.169-0.927c2.305-0.115,4.131-1.264,5.704-2.92
		c0.567-0.599,1.288-1.188,2.051-1.431c1.476-0.472,2.159-1.693,3.069-2.722c0.193-0.219,0.345-0.573,0.578-0.637
		c0.334-0.094,0.727,0.022,1.095,0.05c-0.058,0.32-0.013,0.721-0.188,0.947c-1.227,1.568-2.328,3.294-3.8,4.598
		c-1.778,1.577-3.59,3.174-6.206,3.549c-2.541,0.364-5.021,1.177-7.513,1.854c-0.503,0.137-0.964,0.509-1.388,0.844
		c-0.547,0.434-1.028,0.945-1.555,1.408c-2.545,2.244-3.08,4.468-1.875,7.65c0.254,0.664,0.625,0.817,1.27,0.568
		c1.383-0.533,2.775-1.036,4.166-1.549c2.519-0.932,6.156,1.005,6.045,3.646c-0.09,2.103,0.408,4.735-2.004,6.25
		c-0.322,0.202-0.539,0.584-0.782,0.901c-1.488,1.938-3.838,2.13-5.513,0.371c-1.029-1.084-2.014-2.229-2.887-3.439
		c-0.474-0.656-0.673-1.514-0.994-2.281l-1.302,2.107c-0.313,0.746-0.352,1.547,0.099,2.121c1.113,1.428,1.992,3.128,4.031,3.598
		c0.549,0.127,1.133,0.674,1.435,1.187c0.64,1.082,1.522,1.497,2.721,1.517c1.901,0.031,3.797,0.151,5.575,0.941
		c0.318,0.142,0.673,0.224,0.964,0.406c0.646,0.408,1.013,1.008,0.782,1.778c-0.215,0.718-0.822,1.024-1.522,0.962
		c-1.184-0.104-2.36-0.281-3.534-0.465c-0.539-0.083-1.061-0.341-1.596-0.361c-0.843-0.033-1.355,0.365-1.54,1.285
		c-0.312,1.557-0.771,3.082-1.123,4.631c-0.317,1.408-0.553,2.838-0.866,4.248c-0.442,1.994-0.901,3.985-1.41,5.965
		c-0.119,0.461-0.459,0.865-0.701,1.293c-0.486,0.861-0.973,1.727-1.463,2.586c-0.197,0.347-0.327,0.83-0.629,0.994
		c-0.48,0.262-1.114,0.494-1.617,0.396c-0.653-0.129-0.76-0.772-0.704-1.45c0.288-3.479,0.722-6.964,0.729-10.447
		c0.006-2.51,0.168-5.109-0.887-7.537c-0.17-0.393-0.12-0.883-0.154-1.326c-0.175-2.24-0.285-4.486-0.546-6.717
		c-0.094-0.813-0.432-1.646-0.852-2.354c-0.349-0.586-0.962-0.862-1.604-0.155c-1.309,1.439-2.71,2.791-3.445,4.67
		c-0.444,1.135-0.598,2.197,0.008,3.309c1.238,2.275,2.462,4.563,3.693,6.845c0.916,1.692,1.666,3.406,1.205,5.422
		c-0.142,0.622-0.017,1.302-0.104,1.941c-0.167,1.222-0.296,2.461-0.624,3.643c-0.581,2.093-1.038,2.427-3.213,2.239
		c-1.115-0.096-2.253-0.396-3.29-0.823c-1.407-0.577-2.131-1.749-2.188-3.3c-0.072-1.945-0.228-3.893-0.215-5.836
		c0.006-0.821,0.44-1.632,0.518-2.463c0.134-1.491,0.22-2.995,0.188-4.492c-0.055-2.775,0.395-5.445,1.256-8.085
		c0.473-1.442,0.62-2.985,0.971-4.474c0.123-0.521,0.377-1.021,0.625-1.506c0.398-0.787,0.274-1.422-0.418-1.979
		c-1.322-1.063-2.573-2.224-3.953-3.206c-2.232-1.591-4.568-3.034-6.813-4.609c-1.057-0.742-1.994-1.651-2.998-2.474
		c-0.176-0.146-0.411-0.224-0.896-0.478c-0.072,1.365-0.185,2.449-0.18,3.533c0.021,4.598,0.051,9.192,0.129,13.787
		c0.026,1.549,0.226,3.051,1.188,4.407c0.495,0.698,0.539,1.698,0.916,2.502c0.666,1.417,1.467,2.771,2.136,4.187
		c0.272,0.574,0.409,1.233,0.499,1.871c0.207,1.463,1.008,2.443,2.301,3.074c0.752,0.366,1.277,1.791,1.014,2.561
		c-0.428,1.231-0.7,2.496,0.031,3.717c0.338,0.566,0.121,0.91-0.315,1.271c-0.527,0.437-1.019,0.914-1.629,1.472
		c-1.195-0.597-1.323-1.858-1.646-3.021c-0.263-0.942-0.47-1.932-0.916-2.788c-0.494-0.947-1.205-0.924-1.754,0.026
		c-0.639,1.104-1.14,2.293-1.702,3.444c-0.176,0.356-0.311,0.748-0.545,1.063C51.323,113.737,50.261,113.769,49.513,112.907
		 M40.946,20.767c-1.344,0.76-1.735,1.802-1.695,3.083c0.043,1.39,0.1,2.778,0.104,4.168c0.002,0.841-0.115,1.682-0.121,2.521
		c-0.012,2.104,0.193,4.181,0.873,6.19c0.063,0.187,0.14,0.428,0.071,0.586c-0.192,0.463-0.457,0.897-0.692,1.345
		c-0.414-0.277-0.955-0.47-1.213-0.853c-0.412-0.61-0.576-1.384-0.951-2.025c-0.701-1.197-1.938-1.16-2.641,0.033
		c-0.101,0.171-0.156,0.426-0.308,0.502c-1.362,0.699-1.194,1.958-1.131,3.139c0.091,1.711,0.6,2.158,2.333,2.183
		c0.699,0.011,1.412,0.082,2.094-0.027c0.617-0.1,1.301-0.275,1.779-0.646c1.867-1.44,2.925-3.229,2.791-5.767
		c-0.19-3.637-0.1-7.288-0.119-10.934C42.114,23.03,41.659,21.962,40.946,20.767z M67.094,95.56
		c-0.203,0.059-0.408,0.114-0.611,0.174c-0.045,1.977-0.096,3.951-0.135,5.929c-0.06,2.933-0.156,5.866-0.138,8.798
		c0.006,0.846,0.114,1.895,0.608,2.49c0.938,1.135,2.416,1.197,3.74,0.771c1.084-0.348,1.142-1.521,1.375-2.477
		c0.023-0.096,0.021-0.198,0.023-0.299c0.052-1.442,0.082-2.889,0.156-4.329c0.072-1.416-0.498-2.603-1.184-3.782
		c-0.939-1.627-1.826-3.287-2.712-4.945C67.814,97.128,67.468,96.337,67.094,95.56z M41.69,66.198
		c2.84,6.591,5.52,12.809,8.199,19.023c0.105-0.023,0.213-0.049,0.319-0.072c0-1.23,0.002-2.463,0-3.691
		c-0.007-3.29-0.024-6.58-0.022-9.87c0.002-1.305-0.373-2.323-1.707-2.851c-0.922-0.361-1.767-0.93-2.693-1.272
		C44.547,67.007,43.261,66.677,41.69,66.198z M27.659,53.345c0.144-0.059,0.287-0.118,0.43-0.177
		c-0.238-1.252-0.468-2.506-0.719-3.755c-0.174-0.857-0.49-1.701-0.542-2.563c-0.109-1.837-0.074-3.682-0.123-5.522
		c-0.027-1.001-0.56-1.548-1.573-1.637c-0.495-0.044-0.982-0.215-1.475-0.218c-1.484-0.008-2.993-0.119-4.447,0.106
		c-1.587,0.246-1.844,1.197-0.836,2.425c0.693,0.846,1.443,1.647,2.123,2.503c1.079,1.358,2.262,2.662,3.141,4.145
		C24.724,50.483,26.317,51.785,27.659,53.345z M76.877,90.005c-0.107,0.061-0.214,0.119-0.32,0.18
		c0.205,2.31,0.09,4.705,0.697,6.901c0.777,2.81,0.834,5.612,0.861,8.442c0.021,2.496-0.159,4.994-0.252,7.49
		c0.638-0.686,1.141-1.438,1.356-2.266c0.314-1.198,0.369-2.463,0.63-3.68c0.75-3.512,1.553-7.014,2.326-10.521
		c0.37-1.677,0.197-1.991-1.17-3.036c-0.984-0.755-1.878-1.631-2.818-2.44C77.761,90.709,77.314,90.362,76.877,90.005z
		 M48.336,32.923c-0.017,0.078-0.033,0.156-0.049,0.234c-0.351,0-0.699-0.006-1.048,0.001c-0.819,0.017-1.68,0.017-2.082-0.846
		c-0.449-0.961-0.295-1.94,0.226-2.859c0.731-1.293,1.563-2.542,2.17-3.891c0.712-1.578,0.935-3.265,0.269-4.946
		c-0.424-1.072-2.043-1.657-3.34-1.252c-0.976,0.305-1.426,1.057-0.967,2.302c0.975,2.632,0.596,5.293,0.596,7.98
		c0,1.688,0.418,3.492,1.117,5.032c0.771,1.705,4.85,2.336,6.479,1.287c0.94-0.604,0.958-1.788-0.095-2.229
		C50.587,33.308,49.435,33.182,48.336,32.923z M33.638,50.208c-0.33-0.585-0.689-1.155-0.979-1.759
		c-0.208-0.434-0.311-0.915-0.479-1.367c-0.503-1.344-0.986-2.697-1.546-4.019c-0.123-0.289-0.524-0.461-1.069-0.911
		c-0.095,0.87-0.191,1.388-0.196,1.906c-0.013,1.396,0.01,2.793,0.032,4.189c0.009,0.544-0.01,1.1,0.093,1.629
		c0.291,1.508,0.677,2.999,0.942,4.51c0.153,0.864,0.529,1.482,1.321,1.854c0.769,0.359,1.341,0.286,1.634-0.624
		c0.273-0.854,0.594-1.695,0.889-2.543C34.821,51.515,34.767,51.344,33.638,50.208z M88.115,81.496
		c-0.314-2.347-1.117-3.038-3.201-2.483c-1.196,0.318-2.371,0.754-3.508,1.245c-1.264,0.547-1.348,0.952-0.731,2.193
		c0.636,1.278,1.651,2.19,2.736,3.089c1.352,1.115,2.411,1.131,3.267-0.371C87.322,84.039,87.648,82.728,88.115,81.496z
		 M27.198,28.389c-0.028-0.001-0.059-0.003-0.086-0.005c0.06-1.089,0.125-2.177,0.176-3.267c0.029-0.646,0.085-1.296,0.041-1.939
		c-0.061-0.876-0.538-1.162-1.146-0.618c-1.058,0.947-2.041,1.989-2.965,3.068c-0.227,0.264-0.275,0.915-0.111,1.239
		c0.778,1.544,1.631,3.054,2.526,4.533c0.192,0.315,0.685,0.45,1.038,0.669c0.175-0.332,0.475-0.654,0.502-0.999
		C27.246,30.183,27.198,29.284,27.198,28.389z M46.539,9.044c-0.271,1.452-0.614,2.677-0.696,3.92
		c-0.086,1.314,0.598,1.908,1.854,1.613c1.293-0.305,2.572-0.764,3.779-1.32c1.125-0.518,1.123-1.198,0.035-1.781
		C49.989,10.659,48.408,9.951,46.539,9.044z M73.336,76.733c-0.118-0.013-0.236-0.022-0.354-0.035
		c-0.563,1.816-1.196,3.619-1.654,5.463c-0.206,0.826,0.52,1.578,1.215,1.564c0.701-0.015,1.46-0.8,1.432-1.637
		c-0.056-1.541-0.185-3.08-0.314-4.617C73.636,77.22,73.447,76.981,73.336,76.733z M35.716,54.424
		c-0.242,0.723-0.537,1.38-0.668,2.067c-0.085,0.443-0.113,1.128,0.146,1.369c0.844,0.781,1.832,1.408,2.845,2.154
		C38.565,56.754,38.278,56.05,35.716,54.424z M53.523,104.616c1.713-1.146,1.394-4.309-0.577-6.523
		C52.974,100.372,53.166,102.442,53.523,104.616z"/>
</g>
</svg>
