<?xml version="1.0" encoding="UTF-8" standalone="no"?>
<!-- Created with Inkscape (http://www.inkscape.org/) -->

<svg
   xmlns:dc="http://purl.org/dc/elements/1.1/"
   xmlns:cc="http://creativecommons.org/ns#"
   xmlns:rdf="http://www.w3.org/1999/02/22-rdf-syntax-ns#"
   xmlns:svg="http://www.w3.org/2000/svg"
   xmlns="http://www.w3.org/2000/svg"
   xmlns:sodipodi="http://sodipodi.sourceforge.net/DTD/sodipodi-0.dtd"
   xmlns:inkscape="http://www.inkscape.org/namespaces/inkscape"
   id="svg2816"
   version="1.1"
   inkscape:version="0.47 r22583"
   width="291"
   height="185"
   sodipodi:docname="Klee_autograph.png">
  <metadata
     id="metadata2822">
    <rdf:RDF>
      <cc:Work
         rdf:about="">
        <dc:format>image/svg+xml</dc:format>
        <dc:type
           rdf:resource="http://purl.org/dc/dcmitype/StillImage" />
        <dc:title></dc:title>
      </cc:Work>
    </rdf:RDF>
  </metadata>
  <defs
     id="defs2820">
    <inkscape:perspective
       sodipodi:type="inkscape:persp3d"
       inkscape:vp_x="0 : 0.5 : 1"
       inkscape:vp_y="0 : 1000 : 0"
       inkscape:vp_z="1 : 0.5 : 1"
       inkscape:persp3d-origin="0.5 : 0.33333333 : 1"
       id="perspective2824" />
  </defs>
  <sodipodi:namedview
     pagecolor="#ffffff"
     bordercolor="#666666"
     borderopacity="1"
     objecttolerance="10"
     gridtolerance="10"
     guidetolerance="10"
     inkscape:pageopacity="0"
     inkscape:pageshadow="2"
     inkscape:window-width="640"
     inkscape:window-height="483"
     id="namedview2818"
     showgrid="false"
     inkscape:zoom="1.2756757"
     inkscape:cx="145.5"
     inkscape:cy="92.5"
     inkscape:window-x="0"
     inkscape:window-y="0"
     inkscape:window-maximized="0"
     inkscape:current-layer="svg2816" />
  <path
     style="fill:#000000"
     d="m 17.403425,166.05894 c -1.574805,-2.94256 -0.594976,-12.75607 2.38889,-23.92582 3.715924,-13.91011 3.71575,-13.77622 0.02059,-15.68709 -1.804382,-0.93308 -3.4903,-2.31958 -3.746491,-3.08111 -0.629039,-1.86987 0.301236,-5.19728 1.45306,-5.19728 0.511511,0 3.566609,-1.20601 6.789116,-2.68002 5.215826,-2.38576 6.063125,-3.25287 7.71731,-7.89771 1.022019,-2.86974 3.505605,-9.629533 5.519087,-15.021771 2.013482,-5.392233 6.175611,-16.912004 9.249173,-25.599491 3.073562,-8.687488 6.273275,-17.511142 7.110475,-19.608122 0.837202,-2.09698 3.363797,-8.959822 5.614655,-15.250761 4.919843,-13.750496 6.205649,-15.948466 9.723176,-16.620884 3.508215,-0.670637 3.830005,0.03377 2.120116,4.640995 C 66.24666,33.9145 59.957803,51.258256 54.971304,65.334637 51.787678,74.321693 48.13968,84.370855 46.86464,87.666109 c -1.275029,3.295254 -3.08354,8.197284 -4.018891,10.893398 -0.935362,2.696123 -2.137035,5.730143 -2.670387,6.742273 -1.644838,3.12133 0.834696,3.30166 6.904194,0.50213 3.161789,-1.45836 10.160535,-4.49818 15.552769,-6.755153 12.763857,-5.342406 23.558078,-12.32321 31.210298,-20.184221 7.407407,-7.609516 19.086897,-22.502767 23.138417,-29.50523 1.61718,-2.795061 3.66247,-5.68126 4.54509,-6.413773 0.88263,-0.732514 2.33089,-2.862018 3.21836,-4.732229 1.76847,-3.726766 5.44078,-6.560171 7.14078,-5.50952 0.64702,0.399883 0.1107,2.272214 -1.33673,4.6666 -4.72577,7.817535 -18.24135,27.998868 -20.18693,30.142934 -1.08735,1.198274 -3.30837,4.139492 -4.93561,6.53604 -6.342978,9.341811 -18.899969,20.509264 -30.266264,26.917062 -4.889099,2.75625 -27.232466,12.36116 -35.298027,15.17382 -3.103933,1.08243 -4.657311,2.4515 -5.753688,5.07104 -1.552124,3.7084 -1.174526,5.67108 1.091061,5.67108 0.718137,0 6.68076,1.72376 13.250287,3.83059 8.046734,2.58056 16.575588,4.36517 26.13585,5.46874 7.805198,0.90099 17.066089,2.1502 20.57976,2.77602 3.513673,0.62582 13.317731,1.19358 21.786801,1.2617 17.74199,0.14268 20.06706,-0.67769 29.0546,-10.2517 7.63546,-8.13369 9.01438,-6.70168 2.54679,2.64486 -8.71929,12.60055 -12.7627,14.61833 -31.45384,15.69644 -16.55242,0.95476 -47.940611,-4.43422 -74.960204,-12.86978 -5.879015,-1.83543 -10.959774,-3.06651 -11.290563,-2.73572 -1.169809,1.16982 -7.846963,25.56048 -8.284115,30.2607 -0.502742,5.40534 -3.093072,6.95861 -5.160967,3.09473 z m 160.579435,-5.3497 c -4.19813,-1.00258 -6.72518,-2.77247 -11.0706,-7.75358 -6.4489,-7.39231 -9.72949,-20.50677 -10.74598,-42.95807 -1.44452,-31.905173 3.90215,-56.656367 16.00148,-74.075135 4.2129,-6.065099 10.88651,-13.073709 13.97744,-14.679064 3.18368,-1.653538 10.71816,-0.63837 13.42182,1.808408 6.07115,5.49431 1.87117,21.27481 -10.95006,41.142558 -5.83939,9.048702 -18.66511,24.518499 -22.02812,26.56932 -2.33446,1.423595 -2.37906,1.825154 -1.63363,14.706103 1.61732,27.94689 5.96819,47.04845 11.20017,49.17208 6.28924,2.55276 8.23502,2.63493 12.37546,0.52263 4.93017,-2.51519 5.36691,-2.5777 5.36691,-0.76836 0,1.5183 -9.13006,7.40968 -11.21014,7.23361 -0.7245,-0.0613 -2.84164,-0.47556 -4.70475,-0.9205 z m -8.2677,-78.762166 c 1.90867,-2.546333 6.18324,-7.816015 9.49904,-11.710406 10.37154,-12.181345 19.04091,-30.244432 19.04091,-39.672741 0,-5.211206 -1.45411,-7.168883 -5.32483,-7.168883 -8.39721,0 -20.32327,16.887207 -25.12839,35.581572 -2.05152,7.981493 -4.33509,21.364734 -4.38408,25.693808 -0.037,3.274001 2.68391,2.097288 6.29735,-2.72335 z m 40.93202,50.329276 c -3.93113,-1.18733 -4.93045,-2.32474 -6.65326,-7.57267 -3.49271,-10.63927 -4.00869,-16.89706 -2.1649,-26.255893 0.98115,-4.980234 1.56156,-9.277333 1.2898,-9.549105 -0.27177,-0.271772 -3.31555,0.150121 -6.76395,0.93754 -8.66082,1.97764 -8.44849,2.017368 -8.44849,-1.580838 0,-3.062531 0.32622,-3.291232 6.53604,-4.582162 3.59482,-0.747311 8.01136,-1.380137 9.81454,-1.40628 2.38811,-0.03462 4.86755,-1.523821 9.12948,-5.483345 4.91787,-4.568921 5.63327,-5.698135 4.48583,-7.08071 -0.75084,-0.904695 -2.77574,-1.644899 -4.49978,-1.644899 -1.72405,0 -3.13464,-0.414228 -3.13464,-0.920506 0,-1.317519 3.74432,-4.526195 5.28178,-4.526195 1.96496,0 9.96898,5.312881 9.96898,6.617164 0,0.628722 1.28016,3.849167 2.8448,7.15654 3.42377,7.237277 3.87783,12.141619 1.27984,13.823907 -1.50755,0.976201 -2.46471,0.635842 -4.97485,-1.769018 -4.25082,-4.072541 -9.44704,-3.222941 -11.03917,1.804944 -4.02301,12.704406 -5.0672,30.102416 -2.14456,35.731986 2.5754,4.96069 13.68573,3.20621 22.64694,-3.57628 5.17595,-3.91753 7.7271,-4.5918 7.7271,-2.04225 0,1.25495 -9.16492,7.61794 -14.38846,9.98956 -5.25676,2.3867 -12.51592,3.22034 -16.79307,1.92851 z m 50.2256,-0.9116 c -7.58763,-3.30361 -12.99943,-14.21075 -12.36537,-24.92166 0.30184,-5.09873 0.26711,-5.15778 -2.91428,-4.95448 -1.77086,0.11316 -4.69036,0.49486 -6.48777,0.84822 -3.54376,0.69669 -6.68475,-0.68478 -5.58879,-2.458063 0.37493,-0.60665 4.32742,-2.23469 8.78334,-3.617877 5.36424,-1.665146 8.48846,-3.26597 9.24647,-4.737824 0.62966,-1.222621 2.22718,-3.57005 3.55007,-5.216509 2.30821,-2.872802 2.325,-3.052237 0.41603,-4.448109 -1.9089,-1.395817 -1.91129,-1.573463 -0.0595,-4.399714 1.06137,-1.619841 2.2822,-2.804512 2.71296,-2.632601 0.43077,0.171911 3.79395,3.816065 7.47374,8.09812 5.87944,6.841712 6.69053,8.336078 6.69053,12.326691 0,4.637093 -1.50506,8.755266 -3.19978,8.755266 -0.51944,0 -1.4571,-1.47061 -2.08369,-3.26802 -0.97591,-2.799493 -1.691,-3.268023 -4.98784,-3.268023 -3.26915,0 -3.97473,0.45103 -4.68636,2.995693 -1.55198,5.54964 -0.89155,17.99403 1.17983,22.23097 3.25562,6.65932 8.86981,7.6954 19.49688,3.59809 3.23333,-1.24662 2.22026,2.27303 -1.08934,3.78464 -3.86648,1.76597 -13.25944,2.51637 -16.08715,1.28519 z"
     id="path2828" />
</svg>
