<?xml version="1.0" standalone="no"?>
<!DOCTYPE svg PUBLIC "-//W3C//DTD SVG 20010904//EN"
 "http://www.w3.org/TR/2001/REC-SVG-20010904/DTD/svg10.dtd">
<svg version="1.0" xmlns="http://www.w3.org/2000/svg"
 width="300.000000pt" height="79.000000pt" viewBox="0 0 300.000000 79.000000"
 preserveAspectRatio="xMidYMid meet">
<metadata>
Created by potrace 1.10, written by Peter Selinger 2001-2011
</metadata>
<g transform="translate(0.000000,79.000000) scale(0.100000,-0.100000)"
fill="#000000" stroke="none">
<path d="M1517 683 c-29 -66 -57 -154 -82 -263 -10 -41 -26 -97 -36 -123 -23
-57 -25 -77 -5 -57 7 8 18 33 24 55 79 312 93 355 112 355 10 0 5 -150 -10
-305 -18 -190 -22 -301 -11 -290 6 6 15 40 20 77 5 36 15 77 22 89 8 13 25 53
39 88 27 71 50 90 50 44 1 -15 2 -87 3 -160 1 -72 5 -134 9 -138 12 -12 59 28
80 69 19 38 21 39 29 19 4 -12 11 -41 14 -65 4 -24 8 -44 9 -46 5 -5 56 40 56
49 0 6 9 29 19 52 10 23 24 67 30 98 7 31 17 64 24 73 10 13 12 -4 14 -90 1
-59 6 -111 11 -116 19 -19 50 43 88 182 28 97 35 92 28 -22 -6 -110 5 -168 33
-168 19 0 74 117 89 189 9 46 17 51 43 30 23 -19 24 -21 12 -89 -15 -91 -14
-113 2 -103 6 4 20 8 31 8 10 0 24 8 30 17 9 14 6 21 -11 33 -22 15 -22 21
-16 107 5 81 4 91 -9 85 -22 -8 -52 27 -45 53 3 14 1 20 -6 17 -14 -4 -42 -77
-50 -127 -8 -55 -41 -143 -54 -147 -16 -6 -27 58 -19 115 16 113 19 192 7 192
-15 0 -65 -109 -82 -176 -7 -27 -20 -66 -29 -87 l-17 -38 -6 53 c-3 29 -3 83
0 120 11 135 -22 126 -63 -18 -14 -49 -29 -105 -33 -124 -14 -55 -35 -100 -45
-97 -5 2 -15 28 -23 57 -12 43 -12 64 -4 98 13 52 14 129 2 137 -17 10 -39
-58 -45 -137 -6 -84 -31 -147 -58 -148 -15 0 -18 11 -20 73 0 39 0 109 1 154
2 68 0 84 -13 89 -25 10 -43 -12 -78 -97 -17 -43 -34 -77 -36 -74 -3 3 1 89 8
192 19 269 19 293 1 293 -4 0 -19 -26 -34 -57z"/>
<path d="M2608 583 c-14 -22 -37 -80 -51 -129 -14 -49 -34 -118 -45 -154 l-20
-65 -1 68 c-1 66 -11 83 -29 50 -8 -13 -11 -11 -17 16 -6 27 -10 31 -28 26
-27 -8 -57 -42 -57 -64 0 -9 -7 -36 -16 -61 -35 -102 -26 -214 17 -203 26 7
71 62 62 76 -4 7 1 6 10 -2 9 -7 15 -17 12 -21 -3 -5 -1 -11 4 -14 12 -8 32
18 49 63 13 33 23 66 82 271 12 41 25 77 28 80 11 10 -8 -152 -21 -178 -25
-49 -42 -143 -29 -151 9 -5 11 -25 7 -62 -5 -58 8 -96 24 -70 8 13 16 53 26
133 7 47 26 112 50 163 13 28 28 61 34 75 9 20 10 13 6 -40 -3 -36 -10 -91
-16 -122 -16 -93 -19 -137 -8 -144 18 -11 38 30 39 79 0 26 7 61 15 77 9 17
15 32 14 36 -2 16 11 13 20 -4 6 -12 7 -45 3 -90 -8 -70 4 -122 27 -122 12 0
63 53 100 106 42 57 18 57 -29 0 -48 -59 -60 -47 -58 53 1 68 -1 80 -21 100
-12 12 -29 20 -36 17 -10 -4 -12 3 -8 29 8 51 -6 167 -20 162 -12 -4 -57 -104
-76 -167 -8 -28 -9 -12 -6 75 2 61 0 118 -4 129 -6 15 -11 13 -33 -21z m-181
-239 c0 -15 -8 -35 -20 -47 -19 -19 -20 -19 -13 -1 5 10 9 28 11 39 4 34 5 35
13 35 4 0 8 -12 9 -26z m-8 -106 c-22 -67 -32 -88 -40 -82 -15 9 -11 84 5 84
8 0 16 7 20 15 11 31 25 15 15 -17z m38 -35 c-4 -3 -7 0 -7 7 0 7 3 10 7 7 3
-4 3 -10 0 -14z"/>
<path d="M341 513 c-17 -21 -31 -41 -31 -45 0 -5 -5 -8 -11 -8 -5 0 -7 5 -3
11 3 6 1 21 -6 34 -29 54 -107 -19 -128 -120 -15 -66 -26 -275 -17 -313 10
-50 32 -48 87 8 54 55 74 61 87 28 l9 -23 10 25 c11 30 -4 70 -27 70 -8 0 -36
-21 -62 -46 -26 -26 -52 -43 -58 -40 -7 4 -11 42 -11 96 0 86 1 88 25 94 18 5
32 20 47 54 27 60 26 60 71 120 41 54 54 62 63 37 9 -23 24 -7 24 26 0 42 -31
38 -69 -8z m-106 -150 c-4 -24 -11 -33 -26 -33 -28 0 -34 25 -19 73 22 68 33
76 43 31 4 -22 5 -54 2 -71z"/>
<path d="M692 404 c-10 -22 -22 -55 -26 -74 -29 -144 -33 -171 -24 -162 6 6
19 53 30 104 30 145 43 143 37 -7 -5 -144 -2 -182 17 -189 9 -4 22 -2 28 3 14
12 33 80 41 146 7 60 12 65 48 58 25 -5 27 -8 28 -62 1 -88 6 -138 16 -155 8
-15 12 -14 30 6 26 28 42 111 31 156 -8 31 6 81 19 68 4 -3 15 1 25 11 10 9
21 13 26 9 4 -4 7 -69 8 -144 1 -163 1 -165 14 -157 6 3 10 22 10 41 0 19 4
42 9 52 5 9 19 55 31 102 12 47 25 94 28 105 10 32 21 -71 15 -147 -3 -43 0
-74 8 -90 7 -13 14 -29 15 -36 6 -36 41 -25 49 15 5 28 25 92 40 128 8 18 7
18 -8 6 -9 -7 -17 -17 -17 -21 0 -4 -7 -24 -16 -45 l-15 -38 -15 28 c-10 19
-14 63 -14 149 0 135 -9 166 -33 120 -8 -16 -25 -63 -38 -104 -23 -78 -37 -78
-38 0 -1 19 -6 53 -12 75 l-11 40 -24 -30 c-13 -17 -24 -26 -24 -21 0 5 -9 1
-20 -9 -23 -21 -22 -21 -45 24 -13 26 -19 31 -26 20 -5 -8 -9 -22 -9 -32 0
-10 -7 -20 -15 -23 -21 -9 -65 23 -65 46 0 11 -4 20 -9 20 -16 0 -28 -54 -19
-85 10 -33 1 -130 -14 -158 -20 -39 -28 -1 -27 134 2 157 -7 186 -39 123z
m227 -226 c1 -27 -3 -48 -8 -48 -10 0 -18 71 -12 115 4 30 4 30 11 5 5 -14 8
-46 9 -72z"/>
<path d="M475 234 c-31 -71 -39 -100 -30 -114 11 -18 35 9 35 39 0 14 7 48 15
75 21 69 11 69 -20 0z"/>
</g>
</svg>
