<?xml version="1.0" encoding="UTF-8" standalone="no"?>
<!-- Created with Inkscape (http://www.inkscape.org/) -->

<svg
   xmlns:dc="http://purl.org/dc/elements/1.1/"
   xmlns:cc="http://creativecommons.org/ns#"
   xmlns:rdf="http://www.w3.org/1999/02/22-rdf-syntax-ns#"
   xmlns:svg="http://www.w3.org/2000/svg"
   xmlns="http://www.w3.org/2000/svg"
   xmlns:sodipodi="http://sodipodi.sourceforge.net/DTD/sodipodi-0.dtd"
   xmlns:inkscape="http://www.inkscape.org/namespaces/inkscape"
   width="215.21567"
   height="86.089523"
   id="svg2"
   version="1.1"
   inkscape:version="0.48.2 r9819"
   sodipodi:docname="Nouveau document 1">
  <defs
     id="defs4" />
  <sodipodi:namedview
     id="base"
     pagecolor="#ffffff"
     bordercolor="#666666"
     borderopacity="1.0"
     inkscape:pageopacity="0.0"
     inkscape:pageshadow="2"
     inkscape:zoom="0.35"
     inkscape:cx="68.323606"
     inkscape:cy="58.759047"
     inkscape:document-units="px"
     inkscape:current-layer="layer1"
     showgrid="false"
     inkscape:window-width="1366"
     inkscape:window-height="706"
     inkscape:window-x="-8"
     inkscape:window-y="-8"
     inkscape:window-maximized="1"
     fit-margin-top="0"
     fit-margin-left="0"
     fit-margin-right="0"
     fit-margin-bottom="0" />
  <metadata
     id="metadata7">
    <rdf:RDF>
      <cc:Work
         rdf:about="">
        <dc:format>image/svg+xml</dc:format>
        <dc:type
           rdf:resource="http://purl.org/dc/dcmitype/StillImage" />
        <dc:title></dc:title>
      </cc:Work>
    </rdf:RDF>
  </metadata>
  <g
     inkscape:label="Calque 1"
     inkscape:groupmode="layer"
     id="layer1"
     transform="translate(-306.67639,-505.03171)">
    <g
       transform="matrix(0.91570497,0,0,-0.91570497,283.78515,599.19366)"
       inkscape:label="ink_ext_XXXXXX"
       id="g2993">
      <g
         transform="scale(0.1,0.1)"
         id="g2995">
        <path
           id="path2997"
           style="fill:#000000;fill-opacity:1;fill-rule:nonzero;stroke:none"
           d="m 2299,1015.39 c -79,-28.675 -100.82,-44.613 -93.64,-68.39 3.62,-12 14.82,-29.273 24.64,-38 16.95,-15.066 11.5,-19.906 -93.5,-83 -61,-36.656 -122.82,-69.391 -136.5,-72.273 -28,-5.911 -64.83,-48.395 -55.25,-63.727 3.46,-5.531 27.25,4.746 53.25,23 26.11,18.332 87,56.777 137,86.5 50,29.723 97.33,59.723 106.5,67.5 13.26,11.246 28,11.938 75,3.5 32.41,-5.816 91.5,-13.844 132.5,-18 l 74,-7.5 -163,-58.5 C 2270,754.199 2145.05,703.305 2081,672.863 1939,605.367 1808.22,548.777 1804,553 c -1.65,1.652 7.98,43 21.44,92 25.54,93 31.36,155 14.56,155 -4.96,0 -50.5,-26.918 -101.5,-60 -51,-33.082 -96.09,-60 -100.5,-60 -4.48,0 -8,11 -8,25 0,23 -23.18,36.348 -31.26,18 -4.4,-10 -74.85,-63 -83.74,-63 -3.92,0 -3.9,22 0.04,50 8.59,61 -6.46,66.727 -44.68,17 C 1456.33,708.746 1424,674.859 1398,651.16 1349.42,606.875 1339.25,610 1359.46,663 c 7.25,19 5.94,26.371 -5.46,30.715 -18.23,6.945 -27.43,-14.715 -28.32,-66.715 -0.42,-25 4.38,-41.687 12.82,-44.5 7.63,-2.543 42.41,25.5 80,64.5 l 66.5,69 0,-40 c 0,-53 23.38,-58.383 75,-17.266 30,23.895 39.14,27.317 43.4,16.266 11.07,-28.668 56.6,-15.199 136.6,40.398 44,30.582 80,49.75 80,42.602 0,-14.613 -35.3,-144 -53.47,-196 C 1756.15,532.301 1745,525.047 1655,489.484 1495.69,426.527 1267,341.992 1103,285.426 1019,256.453 954.133,229.422 958,225 c 4.082,-4.668 2,-5.082 -5,-1 -6.652,3.879 -49,-4.277 -95,-18.297 C 622,133.773 536.547,110 514,110 c -13,0 -24,-4.582 -24,-10 0,-17.8477 50,-15.3789 130,6.414 180,49.035 677.4,215.496 829,277.438 35,14.3 68.3,26.148 73.5,26.148 5.34,0 23.5,6.207 41.5,14.188 58,25.714 184.21,75.812 191,75.812 3.8,0 4.09,-16 0.64,-35 -7.64,-42 0.88,-75 19.36,-75 8.93,0 13.16,15.5 13.5,49.5 0.27,27 5.05,58.137 10.5,68.5 5.45,10.363 50,36.273 98,57 48,20.727 115.27,50.586 148,65.691 155,71.539 186.67,85.075 290,123.938 61,22.941 144.75,52.199 188,65.684 81,25.246 102.18,48.902 45,50.273 -131,3.137 -268,18.684 -268,30.414 0,5.668 13,21.023 30,35.434 42,35.609 54.62,61.277 39.11,79.566 -14.02,16.54 -23.11,16.46 -70.11,-0.61 z M 2319,954 c -47,-47 -59.65,-49.25 -78.72,-14 -8.72,16.121 -5.28,21.285 22.72,34.074 33,15.074 60.19,22.828 87,24.817 8.15,0.601 -6,-19.891 -31,-44.891"
           inkscape:connector-curvature="0" />
        <path
           id="path2999"
           style="fill:#000000;fill-opacity:1;fill-rule:nonzero;stroke:none"
           d="m 497,914 c -3.871,-3.871 -7,-17.5 -7,-30.5 0,-13 -4.02,-23.5 -9,-23.5 -5.25,0 -10.984,-5 -13.762,-12 -39.683,-100 -44.207,-115.719 -36.84,-128 9.93,-16.547 18.852,-10 24.54,18 2.261,11.145 17.57,51 34.562,90 16.992,39 30.5,74.871 30.5,81 0,12 -13.145,14.855 -23,5"
           inkscape:connector-curvature="0" />
        <path
           id="path3001"
           style="fill:#000000;fill-opacity:1;fill-rule:nonzero;stroke:none"
           d="M 593.625,862 C 574.25,831 540.895,779.914 520.5,750 500,719.934 463.281,661 439.5,620 415.719,579 390.559,538.199 384,530 c -6.547,-8.184 -15.184,-27.5 -19,-42.5 -5.344,-21 -3.219,-27.5 9,-27.5 9,0 16,3.5 16,8 0,12 151.02,163.98 157,158 2.77,-2.77 -6.941,-38 -21.781,-79 C 496.266,467 494.531,407.355 521,402.148 530.656,400.25 554.25,422 580.5,457 654.75,556 785.023,717.977 788,715 789.656,713.344 779.242,686 764.77,654 732.207,582 725.957,507.695 752,502.164 771.871,497.941 790.152,513 810.078,550 c 7,13 17.047,28.813 21.922,34.5 5.039,5.879 24.621,32.5 44.5,60.5 l 35.5,50 -7.777,-35 c -8.223,-37 -7.485,-87.301 1.5,-102 11.64,-19.047 35.011,-5 98.167,59 52.29,53 66.11,62.613 66.11,46 0,-12 6,-25.895 14,-32.422 17.48,-14.265 43,-3.16 94,40.906 18,15.555 37.55,28.516 43,28.516 22.15,0 -8.23,-110 -78.99,-286 -34.17,-85 -0.23,-98.238 35.9,-14 56.18,131 90.48,307.324 63.09,324.391 -4.91,3.058 -39,-14.391 -75,-38.391 -36,-24 -68.5,-39.91 -71.5,-35 -3.3,5.398 -3.27,12.602 0.08,18 6.2,10 -4.07,41 -13.58,41 -3.4,0 -19,-11.918 -36,-27.5 -16.53,-15.152 -52,-45.461 -79,-67.5 l -49,-40 6.898,40 c 10.86,63 36.411,136.199 63.872,183 15.84,27 21.69,46.535 15.73,52.5 C 997.613,856.387 971.645,825 935.234,768 872.633,670 832.074,614.363 787.246,565 764.539,540 760.582,538.332 763.5,555 c 1.926,11 5.977,26.75 9,35 3.078,8.398 13.258,37 23.129,65 26.094,74 56.609,137.34 76.601,159 20.309,22 22.426,31.734 8.77,40.332 C 876.105,857.414 852.48,834 829.207,803 755.637,705 576.051,485.953 555,468.543 544,459.445 533.199,453.801 531,456 c -2.199,2.199 8.324,40 23.383,84 44.16,129 21.668,142.559 -79.383,47.855 L 409,526 l 32,54.5 c 17.41,29.656 52.781,85.5 77.582,122.5 45.582,68 84.746,130.543 97.055,155 10.965,21.781 26.066,13 18.918,-11 -4.469,-15 -3.371,-18.816 3.445,-12 5.406,5.406 12.953,27 16.422,47 9.949,57.293 -18.297,48 -60.797,-20"
           inkscape:connector-curvature="0" />
        <path
           id="path3003"
           style="fill:#000000;fill-opacity:1;fill-rule:nonzero;stroke:none"
           d="m 371,615.5 c -23.453,-57 -43.684,-115.637 -44.5,-129 -0.797,-13 -5.02,-22.387 -9,-20 -4.375,2.625 -7.5,-0.5 -7.5,-7.5 0,-6.645 -12.434,-37 -27.852,-68 C 253.801,334 240.16,260 258,260 c 10.938,0 42,71 42,96 0,8.184 5.453,25 12,37 6.547,12 12.453,26.547 13,32 0.551,5.5 4.668,19 9.152,30 59.907,147 95.047,249.801 87.848,257 -4.516,4.516 -26.723,-37.5 -51,-96.5"
           inkscape:connector-curvature="0" />
      </g>
    </g>
  </g>
</svg>
