<?xml version="1.0" encoding="UTF-8" standalone="no"?>
<!-- Created with Inkscape (http://www.inkscape.org/) -->

<svg
   xmlns:dc="http://purl.org/dc/elements/1.1/"
   xmlns:cc="http://creativecommons.org/ns#"
   xmlns:rdf="http://www.w3.org/1999/02/22-rdf-syntax-ns#"
   xmlns:svg="http://www.w3.org/2000/svg"
   xmlns="http://www.w3.org/2000/svg"
   xmlns:sodipodi="http://sodipodi.sourceforge.net/DTD/sodipodi-0.dtd"
   xmlns:inkscape="http://www.inkscape.org/namespaces/inkscape"
   width="508.83893"
   height="124.36196"
   id="svg2"
   version="1.1"
   inkscape:version="0.48.2 r9819"
   sodipodi:docname="kostas-karyotakis-signature.svg">
  <defs
     id="defs4" />
  <sodipodi:namedview
     id="base"
     pagecolor="#ffffff"
     bordercolor="#666666"
     borderopacity="1.0"
     inkscape:pageopacity="0.0"
     inkscape:pageshadow="2"
     inkscape:zoom="0.35"
     inkscape:cx="202.66481"
     inkscape:cy="129.22254"
     inkscape:document-units="px"
     inkscape:current-layer="layer1"
     showgrid="false"
     fit-margin-top="0"
     fit-margin-left="0"
     fit-margin-right="0"
     fit-margin-bottom="0"
     inkscape:window-width="1366"
     inkscape:window-height="706"
     inkscape:window-x="-8"
     inkscape:window-y="-8"
     inkscape:window-maximized="1" />
  <metadata
     id="metadata7">
    <rdf:RDF>
      <cc:Work
         rdf:about="">
        <dc:format>image/svg+xml</dc:format>
        <dc:type
           rdf:resource="http://purl.org/dc/dcmitype/StillImage" />
        <dc:title></dc:title>
      </cc:Work>
    </rdf:RDF>
  </metadata>
  <g
     inkscape:label="Calque 1"
     inkscape:groupmode="layer"
     id="layer1"
     transform="translate(-172.33518,-537.22276)">
    <g
       transform="matrix(1.25,0,0,-1.25,139.51944,697.2556)"
       inkscape:label="ink_ext_XXXXXX"
       id="g3105">
      <g
         transform="scale(0.1,0.1)"
         id="g3107">
        <path
           id="path3109"
           style="fill:#000000;fill-opacity:1;fill-rule:nonzero;stroke:none"
           d="m 1562.38,1264 c -62.78,-10.11 -152.67,-29.46 -199.76,-43.02 -91.32,-26.28 -206.89,-86.64 -206.89,-108.05 0,-25.68 30.42,-31.22 54.22,-9.86 23.6,21.17 111.3,54 195.48,73.2 22.78,5.19 168.36,21.61 323.89,36.53 212.59,20.41 293.46,23.33 326.74,11.81 51.37,-17.79 87.69,4.67 57.08,35.28 -24.94,24.94 -403.8,27.77 -550.76,4.11"
           inkscape:connector-curvature="0" />
        <path
           id="path3111"
           style="fill:#000000;fill-opacity:1;fill-rule:nonzero;stroke:none"
           d="M 979.52,1239.91 C 958.656,1223.38 892.402,1154.3 831.715,1085.82 671.152,904.609 642.074,869.168 642.074,854.672 c 0,-8.027 -9.988,-12.359 -22.828,-9.906 -23.152,4.425 -76.027,136.894 -76.859,192.534 -0.926,61.97 -48.703,131.64 -111.485,162.56 -72.769,35.84 -87.39,32.1 -138.918,-35.57 -51.07,-67.06 -30.691,-98 22.551,-34.24 35.746,42.81 42.949,45.8 79.27,32.91 61.996,-22 109.965,-121.37 144.683,-299.73 9.164,-47.082 44,-107.011 62.207,-107.011 18.762,0 97.02,87.039 147.539,164.086 69.231,105.585 219.121,261.925 281.936,294.075 54.22,27.75 60.64,55.5 12.84,55.5 -14.53,0 -42.09,-13 -63.49,-29.97"
           inkscape:connector-curvature="0" />
        <path
           id="path3113"
           style="fill:#000000;fill-opacity:1;fill-rule:nonzero;stroke:none"
           d="m 3452.93,1088.14 c -52.79,-9.68 -120,-60.68 -102.73,-77.94 9.3,-9.31 25.68,-6.47 47.08,8.16 48.8,33.35 152.67,28.48 266.82,-12.51 109.86,-39.459 319.24,-53.092 349.57,-22.764 11.78,11.769 -14.26,15.695 -104.15,15.695 -115.58,0 -194.17,17.419 -283.95,62.919 -46.16,23.4 -124.13,35.34 -172.64,26.44"
           inkscape:connector-curvature="0" />
        <path
           id="path3115"
           style="fill:#000000;fill-opacity:1;fill-rule:nonzero;stroke:none"
           d="m 1522.08,1074.4 c -14.7,-24.25 -42.44,-228.97 -34.03,-251.119 15.16,-39.914 64.34,-27.304 129.97,33.324 l 62.78,57.993 26.4,-54.219 c 16.68,-34.246 37.96,-55.945 57.79,-58.906 41.68,-6.219 40.53,18.953 -3.26,71.746 -30.5,36.765 -35.13,53.508 -27.42,99.164 5.06,29.967 4.74,54.937 -0.71,54.937 -5.49,0 -48.51,-38.527 -95.6,-85.613 -119.43,-119.426 -126.79,-108.437 -73.62,109.863 5.55,22.83 1.26,32.82 -14.13,32.82 -12.84,0 -24.65,-4.19 -28.17,-9.99"
           inkscape:connector-curvature="0" />
        <path
           id="path3117"
           style="fill:#000000;fill-opacity:1;fill-rule:nonzero;stroke:none"
           d="m 2389.94,1004.2 c -31.57,-21.149 -87.04,-65.876 -124.14,-100.095 -69.91,-64.488 -110.56,-76.335 -140.23,-40.875 -12.7,15.184 -25.28,16.704 -52.39,6.34 -39.95,-15.277 -61.35,-7.035 -61.35,23.625 0,13.7 15.7,19.977 49.94,19.977 27.11,0 49.94,6.523 49.94,14.269 0,7.942 -30.68,14.266 -69.2,14.266 -58.5,0 -72.03,-5.293 -87.47,-34.242 -27.71,-51.957 5.42,-94.172 73.91,-94.172 28.54,0 69.18,-7.531 88.46,-16.391 53.85,-24.738 98.46,-4.925 194.05,86.172 88.47,84.301 126.74,106.817 151.25,88.985 14.79,-10.754 76.29,-134.508 121.45,-244.375 38.12,-92.746 51.2,-109.868 69.74,-91.317 20.62,20.613 -90.25,318.184 -141.94,380.963 -27.91,33.91 -56.39,30.85 -122.02,-13.13"
           inkscape:connector-curvature="0" />
        <path
           id="path3119"
           style="fill:#000000;fill-opacity:1;fill-rule:nonzero;stroke:none"
           d="m 4086.26,1021.61 c -10.44,-27.11 4.46,-51.364 31.57,-51.364 13.62,0 19.74,11.414 16.83,31.384 -5.41,37.1 -36.8,50.06 -48.4,19.98"
           inkscape:connector-curvature="0" />
        <path
           id="path3121"
           style="fill:#000000;fill-opacity:1;fill-rule:nonzero;stroke:none"
           d="m 822.711,927.441 c -24.543,-122.711 55.102,-321.25 124.703,-310.875 34.246,5.106 49.168,39.778 17.125,39.778 -12.906,0 -31.473,14.265 -42.707,32.816 -19.453,32.121 -48.676,154.098 -55.031,229.719 -4.801,57.074 -33.281,62.601 -44.09,8.562"
           inkscape:connector-curvature="0" />
        <path
           id="path3123"
           style="fill:#000000;fill-opacity:1;fill-rule:nonzero;stroke:none"
           d="m 2784.57,908.891 c -16.58,-17.672 -30.79,-49.938 -30.79,-69.914 0,-29.68 9.99,-40.524 49.94,-54.219 27.11,-9.297 69.18,-12.883 92.03,-7.848 28.54,6.285 53.58,1.742 77.77,-14.109 44.23,-28.996 99.32,-23.485 105.33,10.543 3.31,18.765 -5.46,25.679 -32.57,25.679 -37.27,0 -113.02,68.489 -129.4,117 -13.04,38.582 -93.49,34.247 -132.31,-7.132 z m 103.29,-32.817 c 12.39,-32.344 -1.38,-48.511 -41.33,-48.511 -41.38,0 -57.36,36.878 -24.26,55.972 35.67,20.582 55.71,18.301 65.59,-7.461"
           inkscape:connector-curvature="0" />
        <path
           id="path3125"
           style="fill:#000000;fill-opacity:1;fill-rule:nonzero;stroke:none"
           d="m 3238.91,901.758 c 0,-50.106 115.57,-131.27 186.91,-131.27 58.22,0 48.51,30.836 -15.69,49.844 -27.11,8.027 -69.92,34.523 -97.03,60.055 -55.65,52.41 -74.19,57.754 -74.19,21.371"
           inkscape:connector-curvature="0" />
        <path
           id="path3127"
           style="fill:#000000;fill-opacity:1;fill-rule:nonzero;stroke:none"
           d="m 3601.32,845.242 c -8.5,-5.715 -23.87,-26.242 -33.53,-44.789 -15.61,-29.965 -13.65,-37.543 15.69,-60.64 18.55,-14.602 41.82,-26.399 52.08,-26.399 9.94,0 37.1,-13.578 58.5,-29.25 l 39.96,-29.25 55.64,30.68 c 29.97,16.515 62.23,36.926 69.91,44.222 44.76,42.485 105.18,-17.828 110.79,-110.57 3.28,-54.223 2.08,-55.836 -46.58,-62.918 -66.85,-9.73 -64.21,-34.773 4.28,-40.453 69.92,-5.793 95.6,16.227 95.6,81.969 0,161.23 -88.55,245.961 -181.21,173.383 -42.8,-33.532 -75.62,-37.567 -75.62,-9.301 0,10.304 -13.31,35.672 -29.96,57.074 -28.85,37.098 -99.14,50.703 -135.55,26.242 z m 81.33,-46.914 c 32.1,-17.226 22.83,-42.109 -15.7,-42.109 -31.39,0 -49.16,21.402 -35.54,42.804 11.3,17.758 17,17.68 51.24,-0.695"
           inkscape:connector-curvature="0" />
        <path
           id="path3129"
           style="fill:#000000;fill-opacity:1;fill-rule:nonzero;stroke:none"
           d="m 2401.36,770.488 c -3.93,-15.695 -12.27,-28.535 -18.56,-28.535 -36.54,0 -101.95,-189.769 -124.42,-360.988 -7.68,-58.5 12.92,-95.598 53.08,-95.598 34.25,0 46.95,36.738 21.41,61.93 -24.31,23.98 -28.09,92.168 -8.74,157.801 39.95,135.55 51.33,163.039 88.66,214.023 38.64,52.793 42.02,79.902 9.97,79.902 -7.85,0 -17.48,-12.839 -21.4,-28.535"
           inkscape:connector-curvature="0" />
        <path
           id="path3131"
           style="fill:#000000;fill-opacity:1;fill-rule:nonzero;stroke:none"
           d="m 3225.7,757.648 c -25.45,-47.195 -18.55,-168.367 13.08,-229.722 36.04,-69.914 78.88,-99.692 142.81,-99.258 98.45,0.664 240.8,92.457 202.61,130.648 -13.05,13.047 -23.71,9.989 -44.78,-12.839 -44.78,-48.512 -142.83,-80.633 -190.65,-62.457 -70.83,26.925 -111.85,165.187 -79.91,269.347 9.62,31.391 -26.61,34.985 -43.16,4.281"
           inkscape:connector-curvature="0" />
        <path
           id="path3133"
           style="fill:#000000;fill-opacity:1;fill-rule:nonzero;stroke:none"
           d="m 4266.34,670.609 c -21.64,-39.949 -9.14,-71.339 28.42,-71.339 42.8,0 51.9,39.414 17.12,74.195 l -28.54,28.535 -17,-31.391"
           inkscape:connector-curvature="0" />
        <path
           id="path3135"
           style="fill:#000000;fill-opacity:1;fill-rule:nonzero;stroke:none"
           d="m 1441.1,609.414 c -39.95,-20.34 -48.26,-57.617 -14.27,-64.043 28.54,-5.394 102.99,51.192 91.56,69.594 -11.12,17.918 -34.49,16.238 -77.29,-5.551"
           inkscape:connector-curvature="0" />
      </g>
    </g>
  </g>
</svg>
