<?xml version="1.0" encoding="UTF-8" standalone="no"?>
<!-- Created with Inkscape (http://www.inkscape.org/) -->

<svg
   xmlns:dc="http://purl.org/dc/elements/1.1/"
   xmlns:cc="http://creativecommons.org/ns#"
   xmlns:rdf="http://www.w3.org/1999/02/22-rdf-syntax-ns#"
   xmlns:svg="http://www.w3.org/2000/svg"
   xmlns="http://www.w3.org/2000/svg"
   xmlns:sodipodi="http://sodipodi.sourceforge.net/DTD/sodipodi-0.dtd"
   xmlns:inkscape="http://www.inkscape.org/namespaces/inkscape"
   id="svg2816"
   version="1.1"
   inkscape:version="0.47 r22583"
   width="457"
   height="189"
   sodipodi:docname="Kristen Stewart.png">
  <metadata
     id="metadata2822">
    <rdf:RDF>
      <cc:Work
         rdf:about="">
        <dc:format>image/svg+xml</dc:format>
        <dc:type
           rdf:resource="http://purl.org/dc/dcmitype/StillImage" />
        <dc:title></dc:title>
      </cc:Work>
    </rdf:RDF>
  </metadata>
  <defs
     id="defs2820">
    <inkscape:perspective
       sodipodi:type="inkscape:persp3d"
       inkscape:vp_x="0 : 0.5 : 1"
       inkscape:vp_y="0 : 1000 : 0"
       inkscape:vp_z="1 : 0.5 : 1"
       inkscape:persp3d-origin="0.5 : 0.33333333 : 1"
       id="perspective2824" />
    <inkscape:perspective
       id="perspective2838"
       inkscape:persp3d-origin="0.5 : 0.33333333 : 1"
       inkscape:vp_z="1 : 0.5 : 1"
       inkscape:vp_y="0 : 1000 : 0"
       inkscape:vp_x="0 : 0.5 : 1"
       sodipodi:type="inkscape:persp3d" />
  </defs>
  <sodipodi:namedview
     pagecolor="#ffffff"
     bordercolor="#666666"
     borderopacity="1"
     objecttolerance="10"
     gridtolerance="10"
     guidetolerance="10"
     inkscape:pageopacity="0"
     inkscape:pageshadow="2"
     inkscape:window-width="1366"
     inkscape:window-height="706"
     id="namedview2818"
     showgrid="false"
     inkscape:zoom="1.1816193"
     inkscape:cx="228.5"
     inkscape:cy="94.5"
     inkscape:window-x="0"
     inkscape:window-y="0"
     inkscape:window-maximized="1"
     inkscape:current-layer="svg2816" />
  <path
     style="fill:#000000"
     d="m 240.19457,184.1851 c -1.4399,-1.59005 -2.0445,-4.21461 -2.47641,-10.75 -0.54554,-8.25487 -0.91585,-9.34815 -8.17876,-24.14635 -9.78332,-19.93356 -12.84936,-24.44488 -29.27914,-43.08089 -15.70078,-17.809131 -21.01319,-25.980248 -23.16348,-35.628152 -1.76619,-7.924518 -3.14847,-9.798605 -6.59011,-8.934809 -3.08559,0.774435 -11.22534,8.954316 -13.77677,13.844691 l -1.93082,3.700848 3.10738,11.799152 c 2.92958,11.12404 3.11527,12.91489 3.24525,31.29916 0.0758,10.725 -0.25847,22.5053 -0.74289,26.17844 l -0.88077,6.67843 4.77565,3.32157 c 8.70618,6.05532 9.11218,6.49571 7.84438,8.50891 -1.58218,2.51244 -4.99266,1.88502 -10.27092,-1.88952 l -4.41241,-3.15538 -3.89996,2.24453 c -2.75057,1.58303 -4.74572,2.05877 -6.76972,1.61423 -4.89938,-1.07609 -13.08779,-11.38597 -15.48841,-19.50121 -2.0721,-7.00467 -3.73374,-8.93814 -11.20589,-13.03909 -8.37078,-4.59415 -25.114444,-10.96091 -28.825621,-10.96091 -3.320724,0 -4.142288,2.07145 -4.957656,12.5 -2.607316,33.34753 -4.011604,39.5 -9.015783,39.5 -4.071749,0 -4.925289,-3.05277 -3.610089,-12.91186 0.63011,-4.72348 1.836865,-15.55968 2.681675,-24.08045 l 1.53602,-15.49231 -2.170652,-1.75769 c -2.925438,-2.36888 -6.06588,-2.2174 -16.02286,0.77285 -16.538579,4.96681 -38.426205,7.06379 -47.622607,4.56257 -5.0512594,-1.37383 -8.7260942,-5.43519 -7.310778,-8.07973 2.5100868,-4.69014 16.223744,-7.21578 41.00716,-7.55228 18.213822,-0.24731 18.603311,-0.29808 25.178533,-3.28226 3.673194,-1.66708 7.330756,-4.07682 8.127917,-5.35496 2.003779,-3.212787 3.907197,-27.485718 4.204515,-53.617172 0.133248,-11.711307 0.501836,-21.55285 0.819082,-21.870097 1.230056,-1.230055 5.729693,0.824798 7.407303,3.3827 1.509492,2.301567 1.76265,5.135854 1.76265,19.734123 0,9.375607 -0.225,22.883899 -0.5,30.018427 -0.591784,15.353096 -0.296911,15.703344 8.028331,9.535968 7.79427,-5.774021 25.53472,-22.107606 26.78605,-24.661836 0.83497,-1.704347 0.68711,-2.487169 -0.7083,-3.75 -0.96996,-0.877801 -2.22994,-1.596001 -2.79996,-1.596001 -1.95385,0 -6.30612,-4.144578 -6.30612,-6.005192 0,-3.059062 3.43866,-3.239049 10.10796,-0.529072 3.44952,1.401669 7.05319,2.300504 8.00815,1.997412 1.57211,-0.498968 10.91324,-11.379616 21.38389,-24.908181 2.2,-2.842502 7.34203,-9.080211 11.42673,-13.861576 5.93348,-6.9454694 7.96976,-8.6933916 10.12755,-8.6933916 1.48546,0 3.26218,0.6763855 3.94828,1.5030789 2.61769,3.1541347 1.36417,6.2689147 -5.71402,14.1983037 -3.8288,4.28924 -9.87275,11.398618 -13.43099,15.798618 -3.55825,4.4 -8.58747,10.611916 -11.17605,13.804258 -6.58618,8.122359 -7.81424,10.186258 -7.12687,11.977518 1.35081,3.520158 3.64673,2.626413 10.90769,-4.246112 8.13428,-7.699115 10.85011,-8.857848 16.67243,-7.113437 2.17446,0.651484 4.7212,0.911142 5.65941,0.577017 0.93821,-0.334125 3.69383,-3.71122 6.12359,-7.504655 7.26922,-11.348963 18.15951,-21.642796 29.6167,-27.994589 5.4564,-3.025 11.95582,-6.252624 14.44314,-7.172497 5.82955,-2.1559094 14.41639,-2.2533334 20.35189,-0.2309066 5.96619,2.0328856 13.93504,9.5253296 13.48655,12.6802726 -0.52419,3.687461 -4.21702,3.375027 -7.25977,-0.614217 -5.07315,-6.651247 -11.79412,-7.109945 -24.77105,-1.690594 -12.8132,5.350974 -23.29638,13.617362 -31.73965,25.027942 -7.68606,10.38726 -10.45246,16.509356 -10.88012,24.077958 -0.54618,9.66603 1.71828,13.392449 22.2011,36.5343 9.62175,10.87081 21.06002,27.89382 26.67066,39.69261 5.82793,12.25573 6.49202,11.9928 14.66123,-5.80486 11.227,-24.45945 18.30157,-41.207867 18.30157,-43.32733 0,-1.130054 -0.46299,-2.34079 -1.02888,-2.690525 -0.56588,-0.349734 -7.07473,0.398631 -14.4641,1.663035 l -13.43523,2.298915 -2.72284,-2.032897 c -6.34225,-4.735175 -4.37817,-5.83991 16.56067,-9.314861 12.1978,-2.024311 18.9965,-3.606401 20.20756,-4.702388 1.0038,-0.908428 3.07558,-5.24673 4.60395,-9.64067 3.48078,-10.006924 5.80811,-12.000152 10.84461,-9.287818 3.29708,1.775598 5.3434,5.565311 6.86723,12.717881 0.77952,3.658913 3.15576,4.164363 13.35006,2.839685 4.79434,-0.62299 16.36697,-2.029298 25.71697,-3.12513 43.18251,-5.061046 60.46145,-6.858037 66.12756,-6.877191 3.65966,-0.01237 6.54443,-0.524155 7.16263,-1.270714 2.54108,-3.068717 11.31584,-29.274883 18.7605,-56.028957 2.06754,-7.4301833 5.09635,-9.8375587 9.08714,-7.2226925 l 2.63783,1.7283711 -0.61317,10.1366394 c -0.59357,9.812726 -1.20408,16.565671 -3.65609,40.441053 -1.29558,12.615124 -1.00596,13.605868 4.3127,14.753218 9.19489,1.983535 14.83618,6.393219 11.39648,8.908392 -1.10201,0.805805 -3.54991,0.846229 -8.64013,0.142681 -4.65895,-0.643939 -7.44136,-0.642792 -8.08749,0.0033 -1.81935,1.819348 -3.24487,37.103873 -2.64549,65.481323 0.60255,28.52768 0.11043,34.0587 -3.18739,35.82364 -4.74779,2.54094 -14.41243,-6.02739 -23.58449,-20.90915 -6.09996,-9.89727 -4.11757,-10.40961 4.36993,-1.12939 5.05285,5.52479 7.17564,7.16632 9.24209,7.14684 1.88227,-0.0177 2.9044,-0.69658 3.42601,-2.2753 0.40886,-1.2375 0.69667,-21.15 0.63956,-44.24999 l -0.10383,-42.000013 -2.40777,-0.300558 c -3.18585,-0.397684 -3.92112,0.623016 -11.20404,15.553264 -9.81806,20.127407 -20.0515,35.632397 -26.59109,40.288987 -3.53235,2.51526 -8.75822,2.92951 -12.396,0.98264 -3.23614,-1.73194 -7.59124,-8.68939 -10.55722,-16.8656 -1.26519,-3.4877 -2.90859,-6.57468 -3.65201,-6.85995 -1.84966,-0.70977 -4.40315,1.11233 -14.55118,10.3834 -17.565,16.04706 -27.16043,17.58978 -37.88316,6.0907 -6.13665,-6.58094 -12.90188,-22.4837 -12.90188,-30.327959 0,-1.174203 -0.92634,-2.973241 -2.05854,-3.997863 -3.04906,-2.759366 -4.91266,-1.022954 -8.74459,8.147782 -1.81672,4.34786 -4.36665,10.3802 -5.66652,13.4052 -1.29986,3.025 -4.03632,9.55 -6.08103,14.5 -2.04471,4.95 -4.73685,11.25 -5.98255,14 -10.16251,22.43475 -13.64556,31.24535 -14.15922,35.81667 -0.32033,2.85083 -1.02568,5.74583 -1.56743,6.43333 -1.47772,1.87527 -4.19556,1.50904 -6.33513,-0.85365 z m -93.86605,-30.95936 c 0.7937,-1.28423 -2.30929,-4.93699 -4.19393,-4.93699 -0.73975,0 -1.34501,0.81 -1.34501,1.8 0,3.31994 4.01909,5.59616 5.53894,3.13699 z m 4.67745,-12.68699 c 1.42116,-3.34922 1.49669,-40.27765 0.0915,-44.750008 -0.58583,-1.864603 -1.72475,-3.115189 -3.00929,-3.304357 -1.71502,-0.252561 -2.58271,0.938699 -5.09863,6.999997 -5.82493,14.033258 -8.6286,30.222808 -6.07073,35.054878 1.76564,3.33548 8.59264,8.74949 11.03299,8.74949 1.10926,0 2.36827,-1.13363 3.05413,-2.75 z m -23.38339,-15 c 0.49685,-0.9625 1.21011,-5.67463 1.58503,-10.4714 0.78753,-10.07596 3.58314,-19.009662 9.61433,-30.723779 3.5405,-6.876548 4.11252,-8.742605 3.34864,-10.924018 -1.61555,-4.613535 -4.51708,-3.843169 -10.99105,2.918163 -8.26936,8.636419 -19.93802,18.337322 -31.23837,25.970444 -7.536388,5.09067 -9.7179,7.08649 -9.954194,9.1069 -0.333806,2.85419 0.720329,3.47484 10.802614,6.36036 3.025,0.86575 9.1,3.32213 13.5,5.45863 8.94817,4.34495 12.00688,4.87366 13.333,2.3047 z m 192.68181,-2.37937 c 3.20639,-1.71325 13.83171,-10.67104 23.43785,-19.75954 3.14739,-2.9778 7.92133,-4.222117 11.99256,-3.12585 5.5727,1.50057 9.41884,6.41713 12.10904,15.4791 2.40431,8.09897 4.47478,10.39326 7.78199,8.6233 4.88307,-2.61334 13.80026,-15.15295 22.96979,-32.30081 5.36299,-10.02926 6.20913,-13.183303 3.78615,-14.113088 -1.50814,-0.578726 -12.20657,0.33523 -33.09219,2.82703 -10.96678,1.308414 -36.13442,4.230953 -61,7.083496 -3.3,0.378571 -6.5625,1.132079 -7.25,1.674462 -2.90186,2.289338 -0.44724,17.47172 4.35781,26.95402 4.63729,9.15126 7.68938,10.51441 14.907,6.65788 z M 426.45242,66.724972 c 0.70283,-1.831531 -1.16855,-6.43623 -2.61572,-6.43623 -0.54767,0 -1.68231,1.327642 -2.52143,2.950317 -1.39927,2.70589 -1.38068,3.034761 0.22432,3.969591 2.52781,1.472312 4.22642,1.30508 4.91283,-0.483678 z"
     id="path2828" />
</svg>
