<?xml version="1.0" encoding="UTF-8" standalone="no"?>
<!-- Created with Inkscape (http://www.inkscape.org/) -->

<svg
   xmlns:dc="http://purl.org/dc/elements/1.1/"
   xmlns:cc="http://creativecommons.org/ns#"
   xmlns:rdf="http://www.w3.org/1999/02/22-rdf-syntax-ns#"
   xmlns:svg="http://www.w3.org/2000/svg"
   xmlns="http://www.w3.org/2000/svg"
   xmlns:sodipodi="http://sodipodi.sourceforge.net/DTD/sodipodi-0.dtd"
   xmlns:inkscape="http://www.inkscape.org/namespaces/inkscape"
   id="svg2"
   version="1.1"
   inkscape:version="0.48.1 "
   width="227"
   height="91"
   sodipodi:docname="Potpis_na_Misirkov.PNG">
  <metadata
     id="metadata8">
    <rdf:RDF>
      <cc:Work
         rdf:about="">
        <dc:format>image/svg+xml</dc:format>
        <dc:type
           rdf:resource="http://purl.org/dc/dcmitype/StillImage" />
        <dc:title></dc:title>
      </cc:Work>
    </rdf:RDF>
  </metadata>
  <defs
     id="defs6" />
  <sodipodi:namedview
     pagecolor="#ffffff"
     bordercolor="#666666"
     borderopacity="1"
     objecttolerance="10"
     gridtolerance="10"
     guidetolerance="10"
     inkscape:pageopacity="0"
     inkscape:pageshadow="2"
     inkscape:window-width="1280"
     inkscape:window-height="738"
     id="namedview4"
     showgrid="false"
     inkscape:zoom="1.9539622"
     inkscape:cx="44.522448"
     inkscape:cy="80.297463"
     inkscape:window-x="-8"
     inkscape:window-y="-8"
     inkscape:window-maximized="1"
     inkscape:current-layer="svg2" />
  <path
     inkscape:connector-curvature="0"
     id="path2999"
     d="m 2.1018519,393.56667 0,-45.5 113.4999981,0 113.5,0 0,45.5 0,45.5 -113.5,0 -113.4999981,0 0,-45.5 z"
     style="fill:#fefefe" />
  <path
     inkscape:connector-curvature="0"
     id="path2997"
     d="m 138.83714,84.506285 c -0.24869,-0.95097 -0.1636,-2.01759 0.18908,-2.37027 0.35268,-0.35268 0.67895,-0.94124 0.72503,-1.3079 0.13984,-1.11253 2.35251,-6.55451 3.41664,-8.4031 0.54976,-0.95504 0.99957,-2.61598 0.99957,-3.69098 0,-1.07501 0.45,-2.23267 1,-2.57259 1.6189,-1.00054 1.15473,-7.12669 -0.65369,-8.62755 -0.90954,-0.75485 -1.92204,-1.1749 -2.25,-0.93345 -2.24214,1.65068 -5.56248,2.81935 -6.73347,2.36999 -0.76357,-0.29301 -1.94508,-0.0977 -2.62557,0.43404 -0.6805,0.53173 -2.64856,1.44082 -4.37347,2.02019 -4.08378,1.37168 -9.49139,-1.50439 -8.87235,-4.71881 0.52647,-2.73374 -0.28549,-2.57597 -2.72885,0.53027 -2.95213,3.75302 -8.23074,5.81886 -10.51261,4.11423 -0.81219,-0.60674 -1.25,-0.54067 -1.25,0.18864 0,2.04274 -3.66024,1.16388 -4.69602,-1.12755 -1.594374,-3.52722 0.17922,-11.08271 3.52303,-15.0081 1.39823,-1.64141 1.61958,-1.64772 3.3353,-0.095 1.36471,1.23504 1.8377,3.09711 1.8377,7.23464 l 0,5.57155 7.75,-7.5637 c 5.12462,-5.00143 8.34697,-7.42384 9.51224,-7.15086 3.5459,-0.10273 5.19735,7.6879 1.05626,8.61721 -0.76615,0 -2.58293,1.46828 -2.58293,2.29328 0,0.825 0.82693,3.33668 1.51443,3.31919 1.9126,-0.0487 4.75,-2.51477 4.75,-4.12844 0,-0.79187 0.48795,-1.92771 1.08433,-2.52409 1.50019,-1.50019 4.91135,-0.46798 4.23948,1.28287 -0.32374,0.84365 0.10183,1.40146 1.0692,1.40146 0.88385,0 1.60699,-0.45 1.60699,-1 0,-0.55 1.09844,-1 2.44098,-1 1.34254,0 2.7191,0.45 3.05902,1 1.33435,2.15903 3.38203,0.90931 3.68664,-2.25 0.26191,-2.71644 0.72379,-3.25 2.81336,-3.25 1.99108,0 2.50681,0.50892 2.53346,2.5 0.0184,1.375 -0.36251,2.77839 -0.84647,3.11864 -0.48396,0.34025 -0.97161,3.1108 -1.08365,6.15678 -0.11205,3.04598 -0.65875,6.14259 -1.21488,6.88136 -0.55614,0.73877 -0.9685,2.01822 -0.91635,2.84322 0.0521,0.825 -0.21339,1.725 -0.59008,2 -0.37669,0.275 -0.91044,1.85 -1.18612,3.5 -0.27567,1.65 -0.81221,3.9 -1.1923,5 -2.39963,6.94459 -2.75593,7.45671 -5.05551,7.26639 -1.27945,-0.10589 -2.52974,-0.97059 -2.77842,-1.92156 z M 8.4887757,73.423775 c -0.519217,-0.69428 -0.889102,-2.83733 -0.821967,-4.76233 0.06714,-1.925 -0.214741,-4.46811 -0.626391,-5.65135 -0.521416,-1.49876 -0.214143,-2.6349 1.01295,-3.74541 1.625141,-1.47073 1.923498,-1.40762 3.8566903,0.81574 1.347281,1.91495 2.03408,3.38815 3.831469,4.248 1.586403,1.12683 4.815424,1.9843 5.925923,1.33302 10.149604,-0.59315 12.843929,-3.70239 16.928509,-8.04263 3.3674,-3.44482 5.737421,-6.66777 8.071491,-10.95737 4.244391,-11.15498 9.110205,-23.45652 12.925204,-34 C 62.67756,4.2357726 66.254062,2.7689416 65.657089,8.7832018 64.382564,17.545825 55.002107,30.032585 55.090811,36.602235 c 0.203327,2.28968 2.303692,5.3949 4.143124,5.51812 2.231581,-2.05612 2.838113,-1.83805 4.53049,-4.56013 2.500652,-3.13652 4.439913,-6.32908 5.832811,-10.09661 2.89396,-6.7248 5.710804,-18.1670942 7.954205,-21.7058934 3.000777,-2.49043 3.067312,1.78376 0.166428,10.6913634 -1.523942,4.6795 -2.911787,9.22912 -3.0841,10.11027 -0.172313,0.88115 -0.403977,1.71459 -0.514808,1.85209 -0.110831,0.1375 -0.272702,0.5875 -0.359714,1 -0.34853,1.65229 -5.961319,10.61372 -8.393682,12.86431 -1.441518,1.5162 -1.750992,0.97092 -6.242324,3.85837 -1.022627,-0.63202 -2.185065,1.18178 -2.519805,3.93176 -0.140294,1.15256 -0.483248,3.29039 -0.762119,4.75074 -0.375525,1.9665 -0.04921,2.77491 1.258076,3.11677 0.970812,0.25387 2.016147,1.42154 2.322965,2.59482 0.48829,1.86722 0.135958,2.13323 -2.825475,2.13323 -2.512334,0 -3.808291,-0.64858 -5.03408,-2.51937 -1.57791,-2.40819 -1.577931,-3.98512 -1.48e-4,-11.23063 0.735421,-3.37721 -1.242564,-2.65752 -3.380291,1.09679 -1.015833,1.78402 -2.251322,3.37821 -2.303228,3.65321 -0.05191,0.275 -1.10919,1.59443 -2.34952,2.93207 -4.207096,7.02793 -11.720716,10.43126 -12.371304,10.57894 -1.440508,1.73571 -15.463366,2.15151 -16.490862,0.48899 -1.373954,-2.22311 -3.297735,-0.95613 -3.090623,2.03544 0.240378,3.47207 -1.6092333,5.70432 -3.0880513,3.72689 z m 57.3232173,-8.60261 c -0.994828,-1.09927 -1.673209,-3.04741 -1.507514,-4.3292 -0.533041,-3.87443 0.34153,-8.07498 4.499664,-5.56339 0.625181,0.39098 1.692782,0.0408 2.372445,-0.77812 3.814498,-7.80318 7.793706,-14.23903 11.001193,-21.86144 0.0057,-0.62015 1.107735,-3.15255 2.449008,-5.62755 3.182675,-5.87286 4.161965,-9.00114 4.857315,-10.88632 1.455,-3.944714 2.48751,-5.519177 3.62042,-4.652573 0.93854,-0.779195 1.77108,1.28963 1.02762,4.665033 -1.34668,6.11406 -5.58505,23.95768 -7.65792,32.80216 -0.66243,1.33556 -0.963071,2.81881 -0.668092,3.29609 1.517682,-1.09172 6.991392,-12.47929 7.004252,-13.2483 0.66693,-1.00834 1.95252,-3.97999 2.10707,-4.39217 2.439032,-4.74748 7.392596,-21.43796 9.562536,-22.583923 2.74614,0 3.65409,2.163863 2.13807,5.095523 -3.29682,14.52022 -11.675046,24.36522 -12.749526,35.89321 -2.22781,3.81938 0.91554,9.26987 -1.16326,10.97991 -1.75102,1.45322 -3.79688,-1.15174 -3.93267,-5.00738 -0.0912,-2.59074 -0.26533,-2.76643 -1.31905,-1.33115 -0.66766,0.90943 -1.397309,2.1522 -1.62143,2.7617 -0.29813,0.81077 -0.911666,0.81056 -2.286063,-8e-4 -1.365797,-0.80628 -1.895317,-2.30755 -1.939922,-5.5 -0.03375,-2.41505 0.240434,-4.84101 0.609286,-5.39101 0.368851,-0.55 0.952948,-2.35 1.297993,-4 0.345045,-1.65 1.035976,-4.6875 1.535402,-6.75 0.499427,-2.0625 0.743627,-3.75 0.542669,-3.75 -4.848578,10.46123 -9.696,21.31268 -16.447339,30.19084 -1.513886,1.95535 -1.534563,1.95515 -3.332117,-0.0311 z m 138.112927,-2.51602 c 6.16983,-7.27323 3.12175,-4.65245 -0.82142,-0.8937 -1.83796,1.752 -3.21848,1.56716 -5.64516,-0.69363 -2.82822,-2.63489 -2.04454,-8.0891 2.01741,-14.04066 1.6951,-2.48364 2.43168,-3.99148 1.63685,-3.35075 -0.79483,0.64073 -1.67014,1.21594 -1.94514,1.27825 -4.43731,1.00531 -5,1.45769 -5,4.01978 0,5.24438 -5.69318,13.47633 -8.84095,12.78343 -0.91248,-0.20086 -1.54655,-0.90098 -1.40905,-1.55581 0.15345,-0.73079 -0.76004,-2.77717 -2.78557,-2.77717 -1.815,0 -4.12317,1.02782 -4.80607,0.34492 -0.79421,-0.79421 -1.4969,-0.88372 -1.95,-0.24841 -1.28504,1.80184 -6.04484,3.76677 -7.6409,3.15431 -2.33196,-0.89486 -1.89839,-4.00474 0.9286,-6.66056 1.37283,-1.2897 2.26078,-2.58019 1.97322,-2.86775 -0.28756,-0.28756 -3.09828,-0.55752 -6.24606,-0.59992 -6.23007,-0.0839 -8.22322,-0.84619 -8.22322,-3.14491 0,-1.22916 1.67104,-1.4597 9.51984,-1.3134 5.23591,0.0976 9.83316,0.53298 10.05901,1.04987 0.51003,1.16729 0.0394,3.78636 3.14882,0.55649 0.88642,-0.92077 2.46672,-1.56123 3.61039,-3.06066 1.4165,-1.85712 2.29491,-3.65712 1.95203,-4 -0.34288,-0.34288 0.57658,-0.62342 2.04324,-0.62342 2.15326,0 2.66667,0.46528 2.66667,2.41667 0,1.32916 -0.3375,2.57428 -0.75,2.76693 -0.4125,0.19265 -2.55,2.27757 -4.75,4.63316 l -4,4.2829 4.69171,0.22258 1.15642,1.99945 c 1.57623,2.72529 4.0874,-3.56629 4.24594,-4.44411 0.13684,-0.75767 0.47571,-2.50258 0.75305,-3.87758 0.27734,-1.375 0.5377,-3.05094 0.57857,-3.72432 0.0716,-1.17973 4.51827,-3.985 6.57431,-4.14753 4.01099,-0.31709 6.74856,-1.8058 10.43667,-5.67555 2.33616,-2.45122 4.65612,-4.20427 5.15545,-3.89567 1.59818,0.98773 0.97328,4.99575 -1.13108,7.25451 -1.12142,1.20371 -1.81791,2.18856 -1.54774,2.18856 0.27016,0 -0.61678,1.19553 -1.97098,2.65674 -1.3542,1.4612 -2.27994,2.83898 -2.0572,3.06172 0.22274,0.22274 -0.59006,1.47864 -1.80622,2.7909 -2.8298,3.05341 -4.95524,9.49064 -3.13361,9.49064 0.69194,0 2.5838,-1.26693 4.20412,-2.81539 4.29573,-4.10523 7.90015,-5.5134 10.04115,-3.92285 1.41641,1.05225 0.71217,3.45684 -1.84872,6.31243 -1.02307,1.1408 -1.55602,2.3783 -1.18432,2.75 0.3717,0.37169 0.0737,0.67581 -0.66211,0.67581 -0.73586,0 -2.18245,0.76428 -3.21464,1.6984 -2.79013,2.52503 -5.72283,1.94875 -4.02331,-0.0547 z M 59.843732,49.531545 c 0.269845,-7.68868 8.046941,0.32357 5.055666,1.58431 -2.566173,0.78694 -4.60244,0.14883 -5.055666,-1.58431 z"
     style="fill:#333333;stroke:none"
     sodipodi:nodetypes="sscsssssscssssssssscsccscssssssssssssscsssssssssccccccccccccssssccsssssssscccssscccccsscsccccccccssssssssccccssssscssssssssssssssssssssccssssssssssssssssssssccc" />
</svg>
