<?xml version="1.0" encoding="UTF-8"?>
<svg version="1.0" xmlns="http://www.w3.org/2000/svg" width="294px" height="63px">
<path fill="none" stroke="#000000" 
d="M12,12.667c0,0-7,11.333,7.333,9S34.667,16,31,8s-12,3.333-12.667,9.667S17,45.667,8,39 s0.667-17.667,11-2.333c0,0,3,2.333,6.667,0.667c0,0,6-5.667,7.333-2c0,0-5.667-2.666-5.667,2.667s5-1.333,5-1.333 S40.667,40.333,46,36.333c0,0-1.667,4.667,2.333,2.333s4-13-1.667-11.667s0,9.667,7.333,10c0,0,7,0.333,10.667-1.667 s-2.333,0.333,0,3s5-0.667,5-0.667s5.667-1.667,7.667,2S88.667,57.666,71,55s-3.333-14-3.333-14
M89,21.333c0,0-3,5,2,3.333s8,9.667,3.667,12s0-14.667,2-18.333s10.333-5,10.333-5 s4.667,1.334-2.333,4.667S102,21.667,106,23.667s7.333,15.667-4.667,10.333s7.667-2.334,11.333-1.667c0,0,5.667,6,9-2.667 c0,0,1.333,11.667,8,1.333c0,0,7,0.333,7.333,3.667c0,0,4,6.333,12-2c0,0-4,7,1,3.667s4.333-14.667-2.667-13s3.333,13.667,19,9
M 137.667,17 L 138.33,19.333
M192.667,36.667c0,0,17.333,7.667-0.333,3C174.667,35,162,17,172,15.667 s27.334,18.667,24,34.667s-25.667,6.333-14.333-5c11.333-11.333,18-15,18-15s-3,3.667,0.667,5.667c0,0,5.333-1.667,1-5 c0,0,12.333,5.667,25.333-5.333s-9.332-6.333-8.666,8c0,0,3.666-6.333,5.333-1c0,0,7.001,5.667,9.667-3.333 c0,0,0.333,8.667,10.333,1.667c0,0,0.999,5.667,10.333,0c0,0,6.334-3.667,4.667,1.667s-8.667-0.333,5-1.667c0,0,1.666,5,5.333,2 S266,29.667,266,29.667S272,27,275.667,31s10.667,7,13.667,1.333"/>
</svg>