<?xml version="1.0" encoding="UTF-8" standalone="no"?>
<!-- Created with Inkscape (http://www.inkscape.org/) -->

<svg
   xmlns:svg="http://www.w3.org/2000/svg"
   xmlns="http://www.w3.org/2000/svg"
   version="1.1"
   width="165.8679"
   height="35.928822"
   id="svg3303">
  <defs
     id="defs3305" />
  <g
     transform="translate(-282.78031,-377.25491)"
     id="layer1">
    <path
       d="m 283.23776,395.59842 c 6.2125,-0.2525 11.34876,-2.8475 16.93376,-5.26125 2.875,-1.24375 5.8625,-2.2175 8.76125,-3.40125 2.265,-0.92375 5.7475,-2.09 7.25875,-4.16 1.995,-2.73125 -1.53375,-4.3875 -3.75,-5.04375 -3.3075,-0.98 -7.77,-0.5 -10.37625,1.89875 -3.215,2.95875 0.74,7.17125 2.72125,9.40875 3.93,4.4375 8.18875,12.70125 3.41625,17.94875 -1.61,1.77 -4.44125,3.1925 -6.82875,3.405 -2.09375,0.18625 -1.235,-1.935 -0.64375,-2.54 0.45875,-0.46875 1.04125,-0.815 1.59,-1.165 0.835,-0.53125 1.7275,-0.97625 2.5925,-1.455 2.55,-1.41 5.055,-2.76875 7.74125,-3.91625 3.0125,-1.2875 6.2175,-2.0725 9.05875,-3.745 -0.15875,-0.2625 -0.3175,-0.52625 -0.47625,-0.78875 -1.0475,0.725 -3.36375,2.16125 -3.025,3.7825 0.24375,1.17375 1.51375,1.47875 2.5475,1.5825 2.91,0.29 6.1375,-1.77 4.44625,-4.87 -0.2825,-0.5175 -1.155,-0.0687 -0.88,0.475 1.4675,2.8975 4.50125,4.65125 7.62875,3.32 1.2775,-0.54375 2.19,-1.685 2.595,-2.97625 0.11,-0.35375 -0.205,-1.75375 0.18625,-1.8725 1.805,-0.55 2.97,0.15375 3.30625,2.09 0.37375,2.14625 2.76125,3.4375 4.68125,2.1275 0.8,-0.54625 1.2575,-1.54625 1.75,-2.345 0.87,-1.4125 1.40625,-1.335 3.23375,-1.13875 0.97125,0.105 1.615,-0.0612 2.56375,-0.31 1.61,-0.4225 0.96875,1.50125 0.9075,2.07375 -0.0738,0.70125 0.25125,1.26625 0.6575,1.79125 0.475,0.61375 1.51875,0.6225 2.16875,0.355 1.7075,-0.69875 3.0375,-2.17625 4.44625,-3.33125 1.555,-1.275 1.46875,-0.58 2.42875,0.5775 0.56875,0.68625 1.37125,1.18625 2.09625,1.6925 1.10625,0.77125 2.21375,1.57125 3.05875,2.64125 1.0625,1.34375 0.645,3.40625 0.32125,4.91375 -0.18375,0.84875 -0.43,1.67125 -0.72625,2.4875 -0.19875,0.54375 -0.4575,1.0575 -0.77625,1.53875 -0.625,0.7225 -1.72875,0.73 -1.56375,0.41625 0.15,-0.35625 0.33875,-0.68875 0.56625,-0.9975 1.29,-1.935 3.4,-3.18875 5.33375,-4.375 1.725,-1.0575 3.84625,-3.01125 5.8725,-3.41125 0.63125,-0.125 0.4,-1.01125 -0.225,-0.8875 -1.7075,0.3375 -3.29,1.735 -4.72875,2.65375 -2.09875,1.3425 -4.2275,2.515 -6.025,4.26625 -0.89625,0.875 -3.1825,3.77375 -0.71375,4.10875 3.04,0.41 3.9025,-5.13875 4.23625,-7.1 0.925,-5.44 -5.065,-6.36875 -7.1375,-10.37375 -0.12,-0.2325 -0.4675,-0.28 -0.6775,-0.1575 -1.66375,0.965 -3.05625,2.25 -4.54625,3.455 -0.345,0.3575 -0.74125,0.65 -1.1875,0.8775 -1.26625,0.49875 -2.08625,-0.67625 -1.825,-1.66 0.05,-0.46625 0.3025,-1.10875 0.0487,-1.56125 -0.47,-0.83625 -1.32875,-1.03375 -2.235,-0.88 -1.62625,0.275 -3.41625,-0.36125 -4.93625,0.33 -0.88,0.4 -1.43375,1.4575 -1.90125,2.2375 -1.41625,2.36625 -3.8025,1.9775 -4.2925,-0.84375 -0.4825,-2.7775 -3.35,-2.6625 -5.39,-1.7925 -0.17125,0.0738 -0.3225,0.33375 -0.24875,0.51875 0.98125,2.455 -1.12375,4.2675 -3.4025,4.4775 -2.07125,0.19125 -3.845,-1.78375 -4.66875,-3.41125 -0.29375,0.15875 -0.58625,0.31625 -0.88,0.475 1.2475,2.28625 -0.95,3.38375 -2.95875,3.48625 -0.63875,0.0325 -1.84625,-0.0263 -2.14375,-0.74125 -0.44125,-1.06 1.88,-2.505 2.49,-2.92625 0.52375,-0.3625 0.0725,-1.1125 -0.47625,-0.78875 -2.57375,1.51375 -5.45125,2.27625 -8.2,3.3875 -2.8425,1.15 -5.71125,2.435 -8.29625,4.0975 -1.71625,1.10375 -6.375,2.63375 -5.6475,5.41375 0.91,3.47625 6.16875,0.545 7.86375,-0.49625 3.02375,-1.855 4.69,-5.15 4.2825,-8.68625 -0.7225,-6.27375 -4.62,-10.2425 -8.2,-15.05125 -4.75,-6.3775 5.54625,-7.88 9.64625,-6.66625 1.0875,0.3225 2.25625,0.88375 2.945,1.815 1.29625,1.7525 -2.91875,3.535 -3.99625,4.0975 -3.0175,1.5775 -6.28125,2.65375 -9.4575,3.86 -6.325,2.40375 -11.94751,5.84125 -18.89626,6.1225 -0.62125,0.025 -0.695,0.9475 -0.0425,0.92125"
       id="path224"
       style="fill:#231f20;fill-opacity:1;fill-rule:nonzero;stroke:none" />
    <path
       d="m 392.69027,384.55592 c -0.0662,-0.0413 -0.13125,-0.0825 -0.1975,-0.12375 -0.135,-0.49375 -1.03625,-0.40375 -0.98625,0.125 0.45375,4.77875 0.23375,9.5675 0.3125,14.35875 0.3325,-0.001 0.6675,-0.002 1,-0.002 -0.0763,-3.6825 0.47125,-7.09125 1.0275,-10.71 0.6675,-4.3375 2.1375,-7.76125 7,-8.07625 3.1175,-0.20125 7.6525,0.7425 9.63375,3.24625 1.54375,1.9525 -0.89375,4.19375 -2.26125,5.50625 -1.8425,1.76875 -4.75875,2.3375 -6.7075,0.48125 -0.42375,-0.40375 -1.185,0.22625 -0.7275,0.66125 3.67,3.49625 7.4875,0.0137 10.1575,-2.73 1.2925,-1.32625 1.3725,-2.8275 0.4175,-4.3925 -1.2075,-1.9825 -3.50625,-2.54625 -5.5775,-3.10375 -3.81625,-1.025 -8.3625,-1.0325 -11.02,2.2925 -1.44625,1.81125 -1.68,4.59625 -2.01875,6.8025 -0.525,3.40625 -0.995,6.555 -0.92375,10.025 0.0125,0.61125 1.01,0.58375 1,-0.002 -0.08,-4.79125 0.14,-9.58 -0.31375,-14.36 -0.32875,0.0425 -0.6575,0.0837 -0.98625,0.12625 0.115,0.42125 0.2425,0.46125 0.64125,0.67875 0.52,0.28125 1.09625,-0.495 0.53,-0.8025"
       id="path226"
       style="fill:#231f20;fill-opacity:1;fill-rule:nonzero;stroke:none" />
    <path
       d="m 415.70027,394.59717 c -0.4575,-4.425 -6.96,-0.20375 -6.87625,2.62375 0.0413,1.40625 1.22125,2.98375 2.8225,2.02125 2.345,-1.40875 3.13375,-2.61375 3.6375,-5.335 -0.3325,10e-4 -0.66625,0.002 -0.99875,0.004 -0.08,1.57375 -0.56625,2.8725 0.15,4.33875 0.555,1.14 1.7875,1.6475 2.9625,1.60375 1.26125,-0.0488 2.73,-0.98 3.79875,-1.54625 2.85375,-1.5125 5.47875,-2.5625 8.68125,-1.4125 0.0987,-0.29625 0.1975,-0.59375 0.29625,-0.89 -1.81,-0.63625 -4.705,0.72375 -4.66,2.875 0.0187,0.9075 1.065,1.20625 1.77,1.3225 0.6225,0.1025 1.15,-0.004 1.73375,-0.20875 0.9175,-0.32125 3.58125,-2.47625 3.585,0.17625 0.004,3.11625 -1.53625,12.80875 -6.3525,10.895 -1.66875,-0.66375 1.40625,-4.3725 1.95375,-4.97625 1.87125,-2.0525 4.595,-3.555 6.95375,-4.9725 3.325,-1.99875 6.9,-2.66625 10.395,-4.2275 0.86125,-0.38625 4.48125,-3.18375 1.6625,-3.9275 -2.87625,-0.75875 -5.3825,1.88375 -5.455,4.575 -0.095,3.5375 4.36875,3.84125 6.635,2.60625 0.57125,-0.3125 0.0712,-1.0875 -0.47625,-0.78875 -1.27375,0.69375 -2.51625,0.86875 -3.83875,0.24 -2.11125,-1.0025 -1.45375,-4.32875 0.355,-5.23875 0.34375,-0.16875 0.7,-0.31 1.06625,-0.425 0.69875,-0.33375 1.935,0.26375 1.2675,1.135 -0.55125,0.5825 -1.43625,0.91875 -2.15,1.23875 -2.5175,1.125 -5.24,1.54 -7.705,2.7875 -3.31125,1.67625 -7.13875,3.88 -9.665,6.65375 -1.005,1.10375 -3.06,3.605 -2.28375,5.28125 0.77375,1.67125 3.53875,1.3575 4.78,0.4375 2.47375,-1.835 2.69,-5.21125 3.3725,-7.97625 0.31875,-1.29375 1.35875,-5.12875 -0.7325,-5.64375 -1.065,-0.26125 -2.34,0.6425 -3.22375,1.0875 -0.86625,0.43625 -3.37,0.59375 -2.3275,-0.99625 0.635,-0.96625 1.98375,-1.41125 3.04375,-1.04 0.575,0.2025 0.90375,-0.67125 0.29625,-0.89 -2.5825,-0.92875 -4.78875,-0.6275 -7.2775,0.4225 -1.39875,0.59 -2.715,1.38 -4.09125,2.01875 -1.84,0.8525 -3.94375,0.17125 -3.78125,-2.32625 0.0487,-0.7425 0.2225,-1.46375 0.26,-2.2125 0.0325,-0.63375 -0.8975,-0.54875 -0.99875,0.004 -0.185,0.995 -0.365,1.855 -0.825,2.7625 -0.22125,0.2675 -0.4425,0.535 -0.66375,0.8025 -1.09875,1.11625 -3.0875,0.8725 -2.595,-1.17125 0.21625,-0.9025 4.20375,-4.5625 4.52375,-1.46 0.0613,0.5875 1.03625,0.34 0.975,-0.2475"
       id="path228"
       style="fill:#231f20;fill-opacity:1;fill-rule:nonzero;stroke:none" />
  </g>
</svg>
