<?xml version="1.0" encoding="UTF-8" standalone="no"?>
<!-- Created with Inkscape (http://www.inkscape.org/) -->
<svg
   xmlns:svg="http://www.w3.org/2000/svg"
   xmlns="http://www.w3.org/2000/svg"
   version="1.0"
   width="1147"
   height="355"
   id="svg14469">
  <defs
     id="defs14471" />
  <g
     transform="translate(133.5,-540.57648)"
     id="layer1">
    <path
       d="M 625.83069,891.5072 C 614.86383,886.16921 609.84834,880.6575 596.89976,873.73314 C 583.82859,865.44572 560.94893,867.67445 550.4467,857.82648 C 526.72517,850.76773 500.98789,846.62061 478.69812,842.52062 C 459.74445,837.0649 439.46412,838.51204 418.51174,836.06922 C 404.08616,836.35894 384.45596,829.93854 371.5,830.57648 C 359.71116,830.64527 334.18982,830.65754 325.52562,816.63379 C 326.24618,797.13802 348.92421,790.93214 357.08999,777.62932 C 364.14434,774.53641 396.01576,746.80167 395.22049,745.37741 C 402.98601,738.71565 422.6413,725.12676 430.98839,716.10527 C 445.27924,705.73496 461.42298,692.9916 475.24256,683.17157 C 470.12705,672.07916 444.34466,676.12459 438.18146,664.57648 C 430.62978,659.54015 426.65773,663.77459 420.50745,664.20389 C 406.26227,665.19824 407.26817,661.72651 379.64071,679.16344 C 368.41507,684.22829 357.7219,691.98341 360.53475,694.31006 C 365.29942,698.25116 367.23391,688.26558 378.39637,692.00322 C 381.43754,699.12439 370.50974,700.77192 363.61675,703.49266 C 352.1182,708.03127 337.58598,711.03441 332.22297,720.26286 C 312.49878,725.61695 307.25602,740.26324 288.45601,745.61874 C 272.58153,755.54554 255.92055,778.14555 235.02414,776.60316 C 242.65097,757.8373 269.54892,751.64434 280.87529,732.61756 C 274.52603,730.8465 258.82237,736.04408 247,739.2614 C 226.52596,746.52285 208.90694,751.05657 188.75,756.57386 C 160.16058,766.34372 132.34071,766.34882 102.1409,771.26892 C 78.645739,774.86199 50.974706,768.44859 29.47839,781.30315 C 18.28357,764.75617 50.352402,755.55527 57.8476,768.11302 C 73.805088,763.72044 98.049657,767.3957 117.78503,760.85561 C 128.18814,751.69559 144.94924,761.74854 154.9996,758.90682 C 176.43404,753.76806 201.06284,749.31885 222.47588,739.31101 C 238.81329,741.1856 256.64707,728.57994 273,725.43831 C 292.10474,720.45292 311.85375,712.12871 325.51874,701.0539 C 344.40007,691.59857 362.71411,676.56858 381.78293,669.81037 C 399.69596,664.86464 410.60734,646.5273 430.18818,645.95079 C 440.60334,639.71117 454.18973,632.12073 468.61331,628.14651 C 480.36782,620.82144 494.52549,615.99633 504.6107,614.1449 C 522.25358,595.89817 574.06591,598.69503 529.28316,621.57648 C 511.27944,635.62842 489.21826,647.32952 469.00954,653.59191 C 453.05651,657.38958 460.43989,669.77868 474.19718,670.43963 C 488.88636,671.2841 503.94255,663.44584 516.25037,652.99351 C 539.47038,638.06493 561.87639,623.971 589.5393,619.25121 C 608.47334,614.2273 632.32018,615.58825 622.62345,623.7025 C 611.37619,636.07879 594.96099,649.41769 575.5533,657.82648 C 572.03723,656.46168 558.06832,665.45194 551.20533,664.85663 C 538.3221,674.536 530.64414,669.55985 513.51973,673.55237 C 486.88527,674.01118 467.63698,699.9599 449.78048,714.13062 C 429.69441,724.59274 411.95637,746.56377 395.94562,755.76476 C 387.13396,764.41473 370.65931,775.02247 365.19196,778.44892 C 352.42002,790.12602 326.18915,819.28585 357.62922,818.99662 C 380.3569,822.65429 400.85075,824.90765 422.99971,827.08113 C 445.96437,827.87562 464.6805,830.63318 489.69234,833.19535 C 506.87111,837.1072 526.98279,843.87262 539.15271,843.24357 C 559.07426,850.45836 580.87835,854.56599 600.05,863.26934 C 614.55124,868.70274 625.68532,871.39874 634.78284,881.90167 C 637.91774,887.38282 631.39437,894.51716 625.83069,891.5072 z M 531.06635,662.49554 C 558.43341,659.72764 585.85748,648.77449 606.44013,629.40979 C 582.61357,619.48094 545.54682,645.88488 523.5,662.57648 L 524.55713,663.50006 L 531.06634,662.49557 L 531.06635,662.49554 z M 469.60651,644.44489 C 484.40455,638.41623 547.37454,606.24993 498.09653,622.70618 C 487.50293,629.61748 425.1361,653.3488 469.60651,644.44489 z "
       style="fill:#000000"
       id="path14517" />
    <path
       d="M -131.37418,873.22809 C -119.89074,856.02974 -99.089446,841.37802 -84.8125,827.27411 C -65.844358,812.14711 -44.452298,795.87973 -26.386681,781.7763 C -10.671047,768.99675 11.816338,749.98486 26.99879,739.4434 C 44.784005,723.00534 60.149458,706.36923 79.3308,691.07648 C 103.13361,668.5998 130.51498,648.22825 153.5,624.47525 C 167.52892,608.58211 187.17873,601.85615 198.73374,586.06656 C 203.95104,579.25111 246.81043,552.74505 220,559.0921 C 202.02538,565.9715 183.31166,571.84092 165.5,581.5508 C 150.29505,588.03638 133.0617,597.70408 117.00708,608.58793 C 95.816971,626.02681 70.557118,637.12175 51.4527,654.88173 C 34.298634,664.92062 30.299436,675.8209 8.2957189,692.6593 C -4.8290413,706.12524 -13.213076,714.60231 -18.7468,731.72968 C -23.184202,759.1685 -39.44165,753.41378 -29.9708,731.9562 C -26.064212,723.10526 -24.791197,710.71647 -16.449018,705.45009 C -7.5604651,690.16758 9.7617359,678.08567 23.67451,664.17648 C 39.310887,648.69335 58.063198,642.46405 74.47861,627.57648 C 90.935136,617.43512 113.97487,601.33564 130.05547,592.95939 C 147.87728,578.34946 163.66241,578.69928 183.46223,567.12199 C 197.99892,560.01362 214.02691,553.84483 226.47115,550.70935 C 240.94588,543.92275 253.58153,547.17472 233.53943,562.12399 C 224.41615,576.36955 199.95193,591.83009 192.35356,602.41643 C 173.03984,615.65491 153.45593,634.6815 135.40451,651.06904 C 122.86313,662.78898 101.64837,680.98222 87.10503,695.74642 C 68.951583,708.03827 50.056861,724.83586 33.007471,741.30044 C 21.612051,755.15464 10.828705,767.01242 -6.98043,777.60815 C -29.05891,790.60365 -46.442431,804.87842 -64.5,820.1468 C -79.826788,836.83156 -96.55688,849.34553 -116.38435,864.57648 C -121.20837,865.79504 -126.3876,878.58086 -131.37418,873.22809 z "
       style="fill:#000000"
       id="path14511" />
    <path
       d="M -115.93571,850.86963 C -117.18684,846.49282 -112.4632,855.54477 -115.93571,850.86963 z "
       style="fill:#000000"
       id="path14509" />
    <path
       d="M 974.12,783.1001 C 953.42971,776.73183 929.70798,783.14003 909.5,779.57648 C 896.86581,780.85961 887.88991,777.81781 881.5315,779.057 C 864.71219,780.96992 847.68835,774.60237 836.21083,776.28513 C 816.99865,778.884 805.9464,771.6324 787.10931,772.50396 C 771.41062,771.37296 759.90667,758.24038 754.5,754.81047 C 742.13558,754.55118 729.55599,756.77747 723.36247,759.67491 C 710.54693,758.02835 688.60139,766.34487 670.5,763.56292 C 665.87552,766.64073 662.96387,766.1532 653.37269,763.87582 C 643.11374,761.43989 632.87002,760.96499 622.96797,764.92582 C 610.10134,768.1823 592.13319,766.59051 580.58561,765.30798 C 561.41559,759.83661 539.22368,767.25066 522.0364,761.51759 C 503.4554,763.98622 496.96853,761.02496 478.5,762.39616 C 469.30615,760.42847 435.09864,766.75022 423.07888,764.15778 C 413.04048,771.75002 414.39837,753.05253 422.26181,755.72765 C 423.42186,754.63151 424.90093,753.41265 426.73144,752.05926 C 435.44516,747.32663 453.41477,743.74118 464.12509,742.887 C 474.39301,741.62848 451.04843,770.61382 478.38333,755.57648 C 490.67449,748.98212 495.35865,744.90564 507.0896,746.43151 C 516.60976,759.47249 549.04018,729.02119 542.28571,756.44016 C 552.61511,758.50048 564.24741,757.18931 568.60097,751.65164 C 579.50634,752.91934 595.40535,740.88723 602.68912,744.99915 C 615.51958,751.60855 581.21151,762.38382 610,760.02163 C 631.2482,764.31376 645.11794,740.13081 664.96067,744.64011 C 675.01957,744.06299 666.71675,769.34786 688.06571,754.02512 C 703.61502,751.00574 719.12118,751.79358 736.96929,746.52679 C 752.21388,738.71921 764.96946,746.08702 774.34686,738.21507 C 783.13157,728.75724 798.07029,722.1238 813.49913,717.4805 C 821.89918,713.51178 832.05983,707.57015 841.39223,702.17451 C 849.55275,697.45641 857.13941,692.73969 861.57852,695.60794 C 870.70283,704.60828 858.02442,713.72576 842.07524,720.11305 C 832.67047,723.87944 824.52176,724.20381 815.39329,729.01053 C 809.04278,729.96568 790.63577,739.90703 785.25327,752.74885 C 794.79841,765.61084 804.3377,764.65455 818.20532,768.29634 C 834.16217,767.63334 849.98674,771.92143 868.88496,769.71517 C 889.34093,772.15763 913.21992,768.70136 932.2419,772.37572 C 947.97919,772.99507 966.10748,771.38718 981.83254,773.29044 C 990.78466,770.69647 1016.4443,775.59718 1007.9481,780.34692 C 999.99409,781.00886 984.41747,785.99574 977.47581,785.46807 L 974.12,783.10011 L 974.12,783.1001 z "
       style="fill:#000000"
       id="path14507" />
    <path
       d="M 329.72638,781.51581 C 318.11715,778.76848 276.86404,770.92199 305.71874,761.24797 C 314.31503,767.48345 352.11742,777.01439 329.79894,782.29494 L 329.72639,781.51583 L 329.72638,781.51581 z "
       style="fill:#000000"
       id="path14487" />
  </g>
</svg>
