<?xml version="1.0" encoding="UTF-8"?>
<svg version="1.1" xmlns="http://www.w3.org/2000/svg" width="246" height="167" >
<path fill="#231F20" d="M2.756,122.137c-2.713,0.563,0.145-2.331,0.77-3.072c2.067-2.454,4.255-4.808,6.456-7.141 c7.47-7.918,15.413-15.388,23.541-22.624c21.582-19.211,45.561-35.499,64.037-58.009c5.19-6.323,10.272-13.348,12.696-21.255 c0.863-2.816,2.134-9.985-2.556-10.036c-2.185-0.023-4.329,1.933-5.887,3.22c-3.784,3.126-6.991,7.11-9.963,10.988 c-8.419,10.986-15.294,22.896-21.29,35.351c-7.249,15.06-13.644,30.655-19.16,46.436c0.482,0.133,0.964,0.266,1.446,0.398 c1.096-6.55,1.434-13.577-0.074-20.076c-0.687-2.964-2.298-6.439-5.284-7.691c-3.116-1.307-8.32-0.906-10.438,2.102 c-5.466,7.759,6.565,16.312,13.239,16.883c5.618,0.481,12.239,0.315,16.898-3.37c2.348-1.857,6.054-6.314,4.633-9.592 c-0.102-0.234-0.408-0.371-0.647-0.372c-3.488-0.005-9.457,13.293-4.845,15.331c3.205,1.416,5.867,0.299,7.938-2.375 c0.368-0.476,0.693-0.986,1.027-1.486c1.785-2.679,3.137-0.912,5.01,0.576c1.521,1.209,2.932,1.545,4.82,1.621 c0.968,0.039,0.964-1.461,0-1.5c-3.448-0.139-4.687-2.593-7.49-3.793c-0.771-0.331-1.503,0.001-2.123,0.464 c-1.196,0.894-1.927,2.57-2.817,3.721c-1.015,1.311-6.185,4.979-6.499-0.667c-0.105-1.898,1.098-4.056,1.887-5.683 c1.089-2.245,3.388-5.295,1.294-0.961c-1.279,2.646-3.949,4.325-6.559,5.415c-6.593,2.752-15.422,1.939-21.004-2.551 c-4.144-3.333-7.115-10.608-0.25-12.645c5.812-1.724,8.813,2.87,9.955,7.796c1.36,5.864,0.87,12.549-0.118,18.455 c-0.158,0.947,1.124,1.322,1.446,0.398C59.821,76.437,67.999,56.56,78.12,37.992c6.139-11.263,13.452-22.49,22.508-31.636 c1.458-1.473,7.538-7.612,8.764-3.186c0.977,3.525-0.927,7.95-2.347,11.068c-4.42,9.709-11.94,18.076-19.171,25.762 c-10.16,10.798-21.48,20.502-33.116,29.663c-17.991,14.165-35.531,29.377-50.744,46.55c-1.548,1.748-7.68,8.782-0.86,7.37 C4.102,123.388,3.7,121.941,2.756,122.137L2.756,122.137 M126.103,76.739c2.314-4.009,6.865-6.572,10.58-9.063c4.361-2.925,8.57-6.089,12.779-9.227 c7.712-5.749,16.232-11.37,23.023-18.226c0.689-0.695-0.335-1.685-1.061-1.061c-9.625,8.28-19.372,16.426-29.277,24.368 c-5.653,4.532-11.34,9.24-17.538,13.022c-0.538,0.328-3.932,2.293-4.01,0.738c-0.088-1.762,1.546-3.897,2.47-5.291 c1.132-1.708,5.69-7.826,8.442-6.49c0.788,0.382,1.171,1.247,2.095,1.569c2.617,0.912,5.704,0.482,8.371,0.096 c10.37-1.5,20.239-4.668,29.813-8.873c19.376-8.509,40.194-22.274,49.377-42.091c1.751-3.781,2.656-8.708-1.391-11.271 c-4.754-3.01-12.44-0.831-17.351,0.471c-20.97,5.56-39.959,18.242-55.74,32.765c-8.736,8.04-17.154,16.695-23.858,26.534 c-3.359,4.93-6.944,11.117-6.549,17.318c0.786,12.329,23.575,3.179,29.724,1.368c1.048-0.309,2.149-0.707,3.244-0.807 c-1.029,0.095,0.013-1.325-0.975-0.166c-0.381,0.447-0.76,0.896-1.14,1.345c-2.86,3.381-5.714,6.766-8.577,10.145 c-8.798,10.383-17.653,20.718-26.644,30.935c-8.996,10.224-18.217,20.243-27.833,29.888c-1.046,1.049-6.614,4.976-4.002,6.771 c0.799,0.55,1.548-0.751,0.757-1.295c0.135,0.093,8.494-8.657,9.459-9.648c8.111-8.336,15.91-16.962,23.593-25.691 c12.001-13.638,23.687-27.544,35.448-41.388c2.171-2.555-0.405-2.456-2.569-1.866c-7.056,1.922-14.004,4.492-21.363,4.975 c-3.192,0.209-6.648-0.145-7.494-3.711c-0.766-3.226,0.593-6.846,1.861-9.753c4.216-9.663,11.95-17.876,19.184-25.345 c17.086-17.642,37.192-32.362,60.751-40.001c4.931-1.599,16.848-5.688,20.803-0.186c2.019,2.808-0.326,7.308-1.601,9.858 c-2.74,5.482-6.654,10.318-10.862,14.731c-15.639,16.4-38.407,27.874-60.461,32.505c-4.06,0.852-9.067,2.168-13.225,1.065 c-1.056-0.28-1.434-1.395-2.424-1.692c-4.559-1.366-9.306,5.71-11.175,8.777c-2.368,3.886-2.014,8.377,3.405,5.685 c6.001-2.981,11.362-7.849,16.586-11.976c10.782-8.518,21.32-17.364,31.736-26.325c-0.354-0.354-0.707-0.707-1.061-1.061 c-7.25,7.319-16.351,13.262-24.59,19.383c-3.93,2.919-7.874,5.841-11.963,8.535c-3.579,2.358-7.853,5.067-10.064,8.9 C124.324,76.821,125.62,77.576,126.103,76.739L126.103,76.739 M172.758,73.497c-4.668,4.096-9.293,8.535-12.844,13.651c-1.105,1.594-3.36,7.711,0.888,5.885 c4.903-2.107,9.103-8.182,12.616-11.979c1.794-1.939,3.562-3.913,5.45-5.761c0.952-0.931,0.384-1.861-0.228-0.645 c-1.242,2.471-2.662,4.861-3.566,7.484c-0.545,1.58,0.036,3.133,1.654,3.705c2.92,1.033,5.863-1.257,8.246-2.704 c1.918-1.164,3.813-2.343,5.816-3.354c1.668-0.841,3.125-1.292,5.015-0.487c3.388,1.443,0.46,4.669-1.729,5.752 c-1.16,0.574-6.35,2.265-5.348,4.638c0.674,1.598,2.954,1.942,4.418,2.389c6.638,2.024,11.025,6.867,14.667,12.576 c6.863,10.761,11.113,21.07,7.355,33.745c-4.786,16.141-18.477,29.297-36.248,26.73c-16.305-2.354-25.544-22.122-20.367-36.868 c6.09-17.347,26.318-24.502,43.068-24.664c13.362-0.129,30.459,2.763,35.442,17.134c0.315,0.908,1.765,0.518,1.447-0.398 c-5.685-16.392-25.378-18.637-40.351-18.167c-17.908,0.562-38.672,11.195-42.288,30.258 c-3.329,17.546,10.747,34.561,28.299,34.561c18.222,0,30.526-16.775,33.684-33.229c1.894-9.868-1.866-18.534-6.856-26.828 c-4.888-8.123-10.015-14.036-19.203-16.823c-2.734-0.829,0.292-2.445,1.514-3.067c1.706-0.869,4.127-1.521,5.26-3.24 c1.237-1.877,0.975-4.032-1.105-5.261c-2.729-1.612-4.588-1.317-7.43-0.045c-3.311,1.481-8.419,6.681-12.214,6.151 c-3.563-0.498,2.285-9.038,2.655-10.515c0.181-0.724-0.476-1.335-1.175-1.054c-1.33,0.536-2.453,2.117-3.403,3.117 c-2.161,2.273-4.263,4.603-6.408,6.89c-2.001,2.132-4.037,4.235-6.193,6.212c-0.908,0.833-1.858,1.625-2.911,2.271 c-1.827,1.122,0.06-2.403,0.375-2.949c3.108-5.388,8.417-9.979,13.059-14.051C174.547,73.918,173.482,72.862,172.758,73.497 L172.758,73.497 M243.679,99.328c0.057,0.414,0.007-0.008,0.002-0.107c-0.004-0.084-0.003-0.168-0.002-0.252 c0.001-0.052,0.025-0.346,0.012-0.25c0.035-0.25,0.093-0.428,0.187-0.588c0.066-0.113,0.177-0.18,0.411-0.187 c0.965-0.031,0.968-1.531,0-1.5c-1.77,0.057-2.261,1.799-2.057,3.283c0.057,0.406,0.568,0.622,0.923,0.524 C243.587,100.131,243.735,99.732,243.679,99.328L243.679,99.328z"/>
</svg>