<?xml version="1.0" encoding="UTF-8"?>
<svg version="1.0" xmlns="http://www.w3.org/2000/svg" width="384" height="87" >
<path fill="#231F20" d="M25.586,49.099c0.8-3.845,3.338-6.215,4.975-9.555c1.544-3.15,1.347-7.34,1.207-10.726 c-0.389-9.351-3.57-17.638-10.733-23.741C19.589,3.847,8.506-3.908,7.906,2.518c-0.385,4.118,2.507,8.392,4.571,11.711 c3.368,5.417,7.858,10.269,12.539,14.572c4.662,4.286,9.611,8.188,14.814,11.794c5.643,3.912,11.437,7.144,15.052,13.234 C62.39,66.48,42.34,69.424,34.216,70.66c-9.059,1.378-20.973,2.832-29.37-1.744c-7.958-4.336,4.043-9.192,7.705-10.448 c8.858-3.039,29.828-7.721,35.422,3.13c0.391,0.758,2.233,0.052,1.77-0.848c-5.906-11.455-27.308-6.761-36.701-3.868 c-4.276,1.317-10.273,3.293-12.586,7.505c-2.511,4.573,6.056,7.154,8.83,7.792c8.746,2.01,18.377,0.939,27.118-0.488 c6.628-1.083,16.137-2.346,20.545-8.06c5.962-7.727-5.265-17.362-10.846-21.012C34.784,35.218,24.076,26.885,15.975,15.92 c-2.322-3.143-4.307-6.607-5.655-10.276c-2.108-5.738,3.302-3.523,6.191-1.706c6.449,4.056,10.221,9.787,12.117,17.055 c1.386,5.312,1.757,11.211,0.638,16.604c-0.517,2.491-2.439,4.101-3.683,6.239c-0.947,1.629-1.57,3.567-1.954,5.414 C23.432,50.198,25.409,49.952,25.586,49.099L25.586,49.099z"/>
<path fill="#231F20" d="M69.993,57.252c-4.125-5.505-8.037-0.927-8.048,4.458c-0.004,1.992,1.541,3.585,3.554,3.046 c2.936-0.787,3.697-4.018,3.586-6.661c-0.648,0.112-1.296,0.225-1.943,0.337c0.38,2.946,1.429,7.517,5.237,6.769 c3.742-0.734,6.188-8.188,4.944-11.287c-0.32-0.796-1.815-0.438-1.943,0.337c-0.753,4.55-0.28,10.661,5.699,8.122 c4.874-2.07,2.718-13.438-0.165-11.11c-3.334,2.692,0.888,9.669,4.354,10.099c7.555,0.936,12.672-5.831,4.585-10.237 c-0.436,0.396-0.872,0.792-1.307,1.189c3.567,1.041,5.429,3.424,5.309,7.193c-0.046,1.465,1.383,2.594,2.703,2.839 c5.331,0.987,9.335-3.005,10.026-8c0.139-1.001-1.759-0.632-1.955,0.156c-0.929,3.746-0.006,7.704,4.392,7.906 c4.341,0.199,6.033-4.779,7.811-7.721c-0.633-0.008-1.266-0.017-1.898-0.024c-1.192,4.905,0.392,8.614,6.063,7.445 c2.237-0.461,3.784-2.911,4.335-4.927c0.276-1.007,1.512-4.323,0.488-5.194c-0.395-0.335-1.269-0.111-1.552,0.276 c-1.154,1.577-0.755,5.118,0.145,6.689c2.219,3.874,7.132,2.194,10.368,0.776c1.215-0.533,0.132-1.537-0.847-1.107 c-3.21,1.407-7.185,2.385-8.166-1.875c-0.18-0.779-0.442-3.18,0.111-3.935c-0.518,0.092-1.035,0.184-1.552,0.276 c0.325,0.276-1.333,5.208-1.643,5.848c-4.422,2.046-6.538,1.58-6.349-1.4c0.02-0.492,0.077-0.979,0.17-1.462 c0.083-0.532,0.257-1.043,0.384-1.565c0.239-0.984-1.592-0.532-1.899-0.024c-1.079,1.786-1.715,3.583-3.133,5.209 c-4.616,5.291-5.666-1.801-5.559-3.633c0.033-0.572,0.149-1.156,0.287-1.713c-0.652,0.052-1.303,0.104-1.955,0.156 c-0.428,3.092-4.623,9.685-8.467,5.708c-0.904-0.936-0.095-3.763-0.89-5.054c-1.269-2.062-3.286-3.444-5.605-4.122 c-0.581-0.169-2.27,0.665-1.307,1.189c1.905,1.038,3.907,2.201,4.037,4.683c0.256,4.902-7.265,3.197-8.809,1.581 c-1.407-1.473-1.8-4.041-1.539-5.974c-0.209,1.55,0.287,2.855,0.307,4.699c0.036,3.195-4.543,5.947-5.244,1.812 c-0.266-1.569-0.038-3.36,0.222-4.927c-0.648,0.112-1.296,0.225-1.943,0.337c1.091,2.716-0.626,6.114-2.183,8.324 c-2.495,3.542-3.979-3.631-4.136-4.841c-0.105-0.814-1.975-0.422-1.943,0.337c0.063,1.483-0.003,2.507-0.62,3.913 c-0.823,0.038-1.646,0.076-2.468,0.114c-0.211-1.067-0.196-2.128,0.043-3.183c0.672-4.93,3.044-2.46,4.137-1 C68.737,58.782,70.581,58.037,69.993,57.252L69.993,57.252z"/>
<path fill="#231F20" d="M142.022,54.788c2.443-0.496,4.518-4.193,0.949-4.533c-3.647-0.347-6.622,4.461-6.4,7.585 c0.267,3.754,6.46,2.688,8.554,1.98c5.026-1.699,7.571-6.378,7.458-11.483c-0.02-0.917-1.617-0.639-1.892,0 c-0.968,2.243-2.812,6.884-0.919,9.071c1.873,2.166,4.523,1.571,6.416-0.25c7.356-7.082,12.369-20.731,12.396-30.821 c0.005-1.974,0.026-8.565-2.623-9.333c-2.716-0.786-3.137,2.884-3.34,4.684c-0.985,8.737,1.079,18.168,3.249,26.566 c1.461,5.652,3.177,12.228,6.601,17.082c0.592-0.275,1.184-0.551,1.775-0.826c-9.608-10.538-22.381-16.636-30.71-28.599 c-4.205-6.038-9.289-18.051-1.951-23.761c5.89-4.584,16.085-2.807,22.798-1.616c7.513,1.333,15.073,3.691,21.904,7.105 c2.867,1.433,5.269,3.175,7.237,5.749c5.131,6.709-3.73,11.381-9.073,12.943c-3.174,0.928-6.525,1.268-9.813,1.501 c-1.504,0.106-6.233-0.861-6.874-0.667c4.673-1.417,10.27-0.554,14.829,0.825c4.035,1.219,7.945,3.489,10.233,7.106 c3.562,5.631-2.091,11.636-6.019,15.074c-0.888,0.777,1.009,1.02,1.6,0.503c5.708-4.997,11.028-13.142,3.728-19.363 c-6.41-5.462-15.425-6.847-23.538-5.612c-0.647,0.099-3.797,0.597-3.43,1.97c0.482,1.8,5.338,1.554,6.476,1.548 c7.798-0.039,21.602-1.206,24.976-9.945c2.441-6.324-5.656-11.19-10.268-13.405c-7.015-3.368-14.684-5.487-22.323-6.842 c-12.457-2.21-30.212-1.547-27.618,15.544c2.949,19.432,24.271,27.836,36.061,40.766c0.527,0.578,2.339-0.027,1.775-0.826 c-4.883-6.921-6.761-17.002-8.326-25.124c-1.128-5.849-1.757-11.919-1.349-17.871c0.057-0.821-0.044-4.144,0.861-2.221 c0.725,1.54,0.892,3.384,1.077,5.049c0.942,8.461-2.862,17.463-6.66,24.802c-1.477,2.854-3.408,6.651-6.345,8.26 c-3.918,2.146-1.352-8.032-0.979-8.896c-0.631,0-1.261,0-1.892,0c0.105,4.767-1.942,8.764-6.669,10.362 c-1.969,0.666-4.603,0.704-5.461-1.55c-0.076-1.514,0.384-2.821,1.379-3.923c2.354-3.169,0.964,0.333,1.811,0.161 C140.482,53.805,140.835,55.029,142.022,54.788L142.022,54.788z"/>
<path fill="#231F20" d="M213.074,49.915c-3.546-6.854-11.538-0.256-11.252,5.472c0.135,2.721,5.129,2.873,6.765,2.044 c2.489-1.262,4.876-5.742,2.962-8.387c-0.277-0.384-0.944-0.229-1.298-0.091c-3.527,1.372-2.836,8.991,0.038,10.635 c3.8,2.173,8.976-0.953,11.256-3.888c3.373-4.343,2.927-13.813-1.665-17.212c-1.02-0.754-2.397-0.207-3.146,0.599 c-1.891,2.034-0.063,6.904,0.649,8.953c3.216,9.242,11.136,15.958,13.728,25.574c0.746,2.771,0.584,5.726,0.488,8.565 c-0.032,0.94-0.143,1.864-0.297,2.79c-0.024,0.145,0.874,0.982,0.257-0.615c-1.052-2.724-1.141-5.808-1.007-8.681 c0.482-10.351,1.175-20.567,1.016-30.954c-0.083-5.399-0.29-10.798-0.573-16.19c-0.102-1.94,0.382-5.586-0.636-7.322 c-0.264-0.449-1.205-0.213-1.514,0.03c-1.179,0.929-0.608,4.282-0.606,5.537c0.006,4.449,0.304,8.907,0.886,13.316 c0.604,4.575,3.995,18.332,11.482,13.741c2.669-1.636,3.791-9.078,2.408-11.569c-1.038-1.869-3.502-1.521-4.52,0.307 c-1.803,3.238-1.498,7.86,2.363,9.445c4.672,1.918,9.252,0.176,12.794-3.108c0.863-0.8-1.033-0.977-1.588-0.463 c-3.599,3.336-10.816,5.015-12.641-0.991c-0.004-0.708-0.009-1.417-0.013-2.125c-0.098-1.234,0.56-1.741,1.975-1.521 c0.489,1.902-0.252,4.564-0.68,6.453c-1.241,5.479-6.272,0.781-7.559-2.041c-0.824-1.809-1.232-3.821-1.621-5.758 c-0.881-4.391-1.157-8.928-1.3-13.396c-0.055-1.723-0.057-3.448-0.015-5.172c0.018-0.717,0.466-2.365-0.12-1.904 c-0.505,0.01-1.009,0.02-1.513,0.03c0.879,1.5,0.388,5.328,0.483,7.029c0.297,5.282,0.455,10.571,0.559,15.86 c0.185,9.478-0.046,18.915-0.83,28.36c-0.342,4.12-0.613,8.721,1.246,12.557c0.989,2.042,2.834,0.427,3.211-1.042 c1.826-7.119-0.641-14.653-4.126-20.768c-4.115-7.218-11.628-14.612-11.032-23.535c0.104-1.557,2.706,3.055,2.809,3.364 c0.842,2.525,0.926,5.3,0.51,7.904c-0.664,4.144-4.908,7.972-9.225,6.944c-2.181-0.52-2.304-3.152-2.212-4.894 c0.068-0.655,0.188-1.3,0.36-1.936c0.769-3.369-0.472,0.01-0.51,0.836c-0.213,4.695-7.731,5.05-5.524-0.36 c1.09-2.672,5.293-4.903,6.845-1.904C211.536,51.193,213.427,50.598,213.074,49.915L213.074,49.915z"/>
<path fill="#231F20" d="M251.362,17.12c-6.5,4.18-2.336,16.632-0.922,22.222c0.564,2.232,3.542,18.053,7.954,15.422 c0.11-0.066,0.227-0.174,0.22-0.313c-0.163-2.956-2.797-5.942-3.249-9.031c-0.214-1.466,0.252-3.91,2.7-3.41 c1.349,0.275,2.273,1.933,2.886,2.979c1.054,1.801,1.654,3.821,2.815,5.565c3.575,5.374,9.331-6.071,10.047-8.292 c-0.641,0.14-1.28,0.28-1.921,0.419c0.196,2.805,1.091,9.202,5.306,8.077c2.438-0.651,3.98-1.91,5.428-3.965 c0.511-0.724,2.384-4.667,0.796-5.315c-0.467-0.19-1.484,0.119-1.744,0.553c-1.714,2.862,0.862,8.421,4.271,8.312 c2.231-0.072,4.442-1.802,6.083-3.081c1.31-1.021,2.513-2.187,3.752-3.29c2.563-2.281,2.538,0.455,2.851,2.581 c0.593,4.034,2.294,7.272,6.002,3.585c2.91-2.892,3.762-7.422,4.852-10.625c-0.64,0.14-1.28,0.279-1.921,0.419 c0.837,1.23,2.91,1.748,4.209,2.166c7.364,2.368,15.56,2.649,23.205,3.04c12.255,0.626,24.533,0.639,36.783,1.432 c2.981,0.193,6.188,0.253,9.076,1.094c1.624,0.473-1.833,1.057-2.104,1.115c-1.969,0.419-3.967,0.707-5.957,1.003 c-0.808,0.12-1.696,0.987-0.34,0.784c0.297-0.044,11.979-2.408,10.744-3.314c-1.372-1.007-3.851-0.964-5.448-1.136 c-5.493-0.59-11.042-0.758-16.56-0.982c-14.132-0.573-28.516-0.142-42.497-2.572c-2.306-0.4-7.703-0.977-9.18-3.147 c-0.296-0.435-1.763-0.045-1.921,0.419c-0.673,1.976-0.969,4.134-1.964,6.171c-0.74,1.517-1.66,2.943-2.735,4.242 c-1.423,1.718-1.81-1.308-2.005-2.217c-0.282-1.316-0.092-5.14-1.446-5.95c-2.19-1.31-4.796,1.461-6.245,2.751 c-2.518,2.242-7.282,7.077-9.202,1.931c-0.437-1.17-1.093-3.88-0.392-5.052c-0.581,0.184-1.162,0.369-1.744,0.553 c1.587,0.648-3.776,12.679-7.017,4.961c-0.652-1.554-0.886-3.388-1.003-5.061c-0.032-0.463-1.795,0.028-1.921,0.419 c-0.558,1.728-3.789,9.535-5.893,7.808c-2.188-1.795-2.689-5.719-4.527-7.945c-2.877-3.486-8.231-0.486-8.05,3.49 c0.138,3.019,2.014,5.829,3.143,8.547c0.31,0.745,1.626,0.028,0.851-1.184c-0.439-0.685-0.751-1.468-1.08-2.208 c-0.974-2.184-1.693-4.489-2.413-6.766c-1.874-5.92-8.1-22.585-1.079-27.1C253.685,16.694,251.735,16.88,251.362,17.12 L251.362,17.12z"/>
<path fill="#231F20" d="M293.98,19.984c-4.969,4.959-1.844,12.139-0.242,17.827c2.824,10.032,5.091,20.368,4.555,30.847 c-0.095,1.847-0.232,3.741-0.728,5.53c-0.359,1.303,1.003,0.317,0.902,0.144c-0.352-0.605-0.454-1.404-0.592-2.076 c-1.739-8.515-1.418-17.708-1.552-26.34c-0.006-0.363-1.94-0.06-1.932,0.518c0.138,8.906-0.475,18.898,1.847,27.611 c0.598,2.245,2.821,1.315,3.316-0.477c1.992-7.211,0.603-15.765-0.68-22.886c-1.101-6.107-2.82-12.091-4.536-18.047 c-1.23-4.271-2.106-9.274,1.396-12.771C296.17,19.43,294.32,19.646,293.98,19.984L293.98,19.984z"/>
</svg>