<?xml version="1.0" standalone="no"?>
<!DOCTYPE svg PUBLIC "-//W3C//DTD SVG 20010904//EN"
 "http://www.w3.org/TR/2001/REC-SVG-20010904/DTD/svg10.dtd">
<svg version="1.0" xmlns="http://www.w3.org/2000/svg"
 width="468pt" height="95pt" viewBox="0 0 468 95"
 preserveAspectRatio="xMidYMid meet">
<metadata>
Created by POTRACE VERSION, written by Peter Selinger 2001-2007
</metadata>
<g transform="translate(0,95) scale(0.017162,-0.017162)"
fill="#000000" stroke="none">
<path d="M13386 5422 c-2 -1 -136 -7 -297 -13 -162 -5 -330 -13 -374 -18 -44
-5 -163 -14 -265 -20 -102 -7 -266 -22 -365 -36 -99 -13 -232 -26 -295 -29
-71 -4 -153 -16 -215 -31 -55 -14 -127 -25 -160 -25 -33 0 -103 -10 -155 -21
-52 -11 -134 -24 -181 -29 -55 -5 -101 -15 -129 -30 -29 -15 -74 -25 -134 -31
-50 -4 -109 -13 -131 -19 -22 -6 -51 -15 -65 -20 -14 -5 -62 -14 -108 -20 -46
-5 -118 -20 -160 -34 -42 -13 -117 -29 -167 -36 -49 -6 -123 -19 -165 -29 -42
-10 -110 -28 -151 -40 -40 -12 -101 -31 -134 -41 -33 -10 -103 -26 -155 -35
-52 -9 -121 -28 -152 -41 -32 -13 -63 -24 -70 -24 -7 0 -35 -11 -63 -24 -27
-12 -66 -29 -85 -36 -19 -7 -71 -25 -115 -40 -44 -16 -100 -40 -125 -54 -25
-14 -52 -26 -61 -26 -8 0 -30 -11 -49 -25 -19 -14 -42 -25 -53 -25 -10 0 -51
-14 -90 -31 -40 -17 -90 -48 -112 -69 -24 -23 -62 -45 -95 -55 -31 -10 -66
-30 -80 -45 -14 -16 -45 -33 -72 -40 -31 -8 -67 -29 -102 -60 -30 -26 -69 -58
-87 -71 -19 -13 -50 -38 -69 -57 -19 -18 -52 -42 -72 -53 -21 -10 -45 -33 -53
-49 -9 -17 -31 -38 -50 -47 -19 -9 -35 -20 -35 -25 0 -4 -26 -36 -58 -72 -41
-44 -67 -85 -87 -137 -23 -56 -30 -90 -30 -139 0 -36 8 -98 17 -138 10 -40 27
-92 40 -114 13 -23 34 -49 48 -59 14 -9 53 -20 88 -24 l62 -6 0 29 c0 16 -8
40 -19 53 -10 13 -27 42 -38 64 -12 22 -30 71 -42 109 -14 47 -19 81 -15 105
4 20 22 69 42 109 28 58 47 82 92 118 31 24 63 56 70 69 7 14 16 25 20 25 4 0
50 37 102 83 53 45 125 105 161 134 36 28 83 61 104 72 22 11 46 27 54 37 8 9
43 30 79 46 36 16 76 40 90 53 14 13 57 36 95 50 39 14 95 37 125 51 30 14 73
35 95 46 22 12 83 34 135 50 52 16 131 38 175 49 44 11 96 28 115 38 19 10 68
26 107 35 40 9 94 25 120 35 27 10 92 26 145 35 53 9 127 25 164 37 36 11 101
24 144 28 43 5 82 11 87 14 5 3 43 13 84 21 41 8 99 18 129 21 30 4 75 16 100
27 25 11 81 23 125 28 44 5 114 18 155 29 41 11 122 27 180 36 58 8 152 23
210 34 58 10 132 26 165 34 33 8 107 18 165 21 59 3 151 17 210 32 79 19 130
26 205 25 56 0 125 6 156 14 31 8 168 22 305 30 137 9 332 18 434 20 102 3
246 9 320 14 74 5 325 10 558 10 269 1 429 -2 441 -9 11 -6 195 -14 443 -19
324 -7 444 -13 513 -26 72 -14 125 -16 269 -12 140 5 215 2 340 -13 89 -10
249 -26 356 -35 107 -8 215 -16 240 -17 25 0 128 -7 230 -14 102 -8 238 -18
303 -23 64 -5 127 -7 138 -4 12 4 94 1 183 -6 88 -6 193 -16 231 -23 39 -6
113 -14 165 -18 52 -5 181 -13 285 -20 128 -8 347 -10 670 -6 264 3 541 7 615
8 112 3 141 6 164 21 25 17 26 20 13 40 -8 12 -29 27 -48 33 -19 7 -99 15
-179 18 -80 4 -309 11 -510 17 -201 5 -417 12 -480 14 -63 2 -243 14 -400 25
-157 11 -309 25 -339 30 -30 6 -86 10 -125 10 -39 0 -138 6 -221 14 -82 8
-204 15 -270 15 -66 1 -178 6 -250 11 -71 5 -170 16 -220 24 -49 9 -146 18
-215 22 -81 4 -133 11 -148 21 -18 11 -84 15 -310 18 -158 2 -294 6 -302 9 -8
4 -74 11 -145 16 -72 6 -184 15 -250 20 -66 5 -221 15 -345 21 -124 7 -429 13
-678 13 -249 1 -454 0 -456 -2z"/>
<path d="M11825 4334 c-44 -35 -89 -68 -100 -73 -12 -5 -51 -23 -88 -39 -46
-21 -70 -38 -76 -55 -5 -13 -31 -39 -58 -58 -26 -19 -62 -41 -80 -48 -18 -7
-35 -22 -38 -32 -4 -11 -48 -52 -98 -93 -51 -40 -122 -104 -160 -141 -37 -36
-74 -80 -82 -96 -9 -16 -31 -36 -51 -44 -26 -11 -40 -25 -51 -54 -8 -21 -23
-43 -32 -47 -10 -5 -48 -42 -84 -82 -37 -41 -67 -78 -67 -84 0 -6 -33 -48 -73
-93 -55 -61 -77 -94 -85 -128 -8 -31 -19 -48 -32 -52 -11 -3 -23 -17 -26 -30
-3 -12 -24 -37 -46 -55 -22 -18 -48 -51 -59 -74 -11 -22 -33 -63 -50 -91 -17
-27 -45 -66 -64 -85 -18 -19 -37 -48 -43 -65 -5 -16 -31 -52 -57 -80 -25 -27
-55 -66 -65 -85 -10 -19 -57 -68 -105 -108 -52 -45 -92 -87 -101 -108 -8 -18
-14 -55 -14 -82 0 -34 -6 -57 -19 -74 -11 -14 -31 -54 -45 -90 -13 -36 -35
-83 -48 -104 -13 -22 -32 -61 -42 -87 -10 -26 -33 -70 -51 -97 -19 -28 -56
-98 -83 -157 -28 -60 -66 -135 -86 -167 -20 -33 -36 -66 -36 -73 0 -8 -14 -41
-31 -74 -16 -34 -44 -100 -60 -147 -17 -48 -43 -107 -59 -132 -15 -25 -33 -69
-39 -98 -6 -29 -17 -63 -25 -75 -8 -12 -22 -65 -31 -117 -12 -69 -14 -102 -7
-121 7 -16 28 -35 54 -48 25 -11 49 -21 55 -21 6 0 41 20 77 45 37 25 71 45
75 45 4 0 16 15 26 34 10 18 31 41 46 50 15 9 51 40 81 69 29 29 66 71 82 94
19 27 44 48 70 58 23 9 59 34 81 56 22 22 91 88 154 147 63 59 130 123 150
142 20 20 56 50 81 68 25 17 56 49 69 71 15 23 41 47 67 59 30 15 50 34 63 60
11 21 25 43 33 49 7 6 27 15 43 20 23 7 39 25 65 74 28 51 41 65 64 69 20 3
35 16 48 40 11 19 27 41 36 48 9 6 28 12 44 12 20 0 28 -5 28 -17 0 -10 -5
-36 -10 -57 -5 -22 -20 -49 -33 -60 -14 -12 -39 -49 -57 -83 -18 -34 -47 -80
-66 -101 -18 -21 -36 -52 -40 -68 -4 -16 -14 -37 -22 -46 -8 -10 -21 -18 -27
-18 -7 0 -16 -7 -19 -16 -3 -9 -6 -22 -6 -29 0 -8 -10 -25 -22 -38 -13 -13
-41 -49 -63 -81 -22 -31 -58 -101 -81 -155 -22 -54 -50 -111 -62 -128 -12 -17
-29 -58 -37 -90 -8 -33 -16 -99 -18 -147 l-2 -87 37 -34 c20 -19 55 -39 78
-46 36 -11 49 -10 113 10 40 13 81 31 92 41 11 10 39 27 62 39 23 12 70 46
104 76 34 30 65 55 70 55 4 0 34 22 66 50 32 27 61 53 65 57 4 5 15 16 25 26
10 10 36 32 58 48 22 17 68 56 103 87 35 31 80 75 100 96 20 22 67 70 104 108
37 37 72 68 78 68 6 0 35 24 63 53 29 30 66 61 84 70 17 9 41 30 53 47 12 17
36 38 53 46 18 9 50 33 73 53 22 20 60 52 83 71 23 19 64 56 92 81 27 26 49
51 49 57 0 5 21 17 46 27 26 10 63 34 83 55 20 20 46 42 58 48 12 7 24 8 27 3
3 -5 -3 -29 -14 -52 -11 -24 -20 -51 -20 -60 0 -9 -13 -34 -28 -55 -15 -21
-40 -67 -55 -100 -15 -34 -27 -64 -27 -68 0 -3 -22 -45 -49 -94 -26 -48 -52
-103 -56 -122 -4 -19 -27 -75 -51 -125 -25 -49 -48 -113 -53 -141 -4 -28 -4
-84 0 -124 5 -40 10 -79 13 -87 3 -7 29 -24 58 -38 29 -13 65 -34 80 -46 18
-15 46 -24 81 -27 30 -2 72 1 93 8 22 7 55 24 74 37 19 13 53 28 75 34 26 7
66 34 113 76 49 45 72 72 72 88 0 12 -6 28 -14 34 -7 6 -20 9 -27 7 -8 -3 -33
-10 -56 -16 -24 -6 -52 -20 -62 -32 -11 -11 -44 -29 -73 -40 -29 -11 -65 -22
-80 -25 -16 -3 -44 -2 -64 1 -28 6 -38 14 -50 42 -10 23 -12 51 -8 89 4 35 17
72 35 101 16 24 29 55 29 69 0 13 13 45 30 72 16 26 58 123 93 215 36 92 78
183 95 205 16 21 33 49 37 63 5 14 35 77 67 140 33 63 68 124 77 135 9 11 29
39 44 63 16 23 39 48 52 54 20 9 25 19 25 50 0 29 8 47 34 75 18 21 40 52 49
68 8 17 38 55 67 85 28 30 60 71 70 91 10 19 68 91 129 160 61 68 139 153 172
189 34 36 67 78 75 92 8 15 23 30 34 33 11 4 31 23 45 42 13 20 67 80 120 134
52 54 120 134 150 178 31 45 58 95 62 111 3 18 0 36 -7 45 -7 8 -22 15 -34 15
-12 0 -32 -7 -44 -16 -12 -8 -44 -23 -71 -32 -39 -14 -66 -35 -132 -107 -46
-50 -109 -118 -139 -152 -31 -34 -67 -67 -81 -73 -14 -6 -34 -26 -44 -43 -10
-18 -37 -54 -59 -80 -23 -27 -74 -85 -114 -129 -41 -44 -86 -100 -101 -124
-17 -27 -43 -52 -71 -66 -37 -19 -51 -36 -78 -88 -18 -36 -48 -81 -66 -100
-19 -19 -43 -54 -55 -77 -12 -23 -30 -47 -42 -53 -11 -6 -36 -36 -55 -65 -19
-30 -47 -61 -63 -69 -15 -8 -35 -26 -44 -40 -9 -13 -36 -31 -59 -40 -26 -10
-50 -28 -60 -46 -9 -16 -36 -41 -60 -55 -23 -15 -61 -44 -83 -65 -22 -20 -57
-47 -77 -59 -21 -13 -38 -27 -38 -31 0 -5 -25 -38 -56 -72 -31 -35 -62 -65
-69 -68 -8 -3 -42 -33 -77 -68 -35 -34 -73 -72 -86 -85 -13 -12 -44 -43 -70
-69 -26 -25 -64 -53 -84 -62 -21 -8 -38 -20 -38 -25 0 -6 -27 -29 -60 -51 -33
-23 -72 -58 -86 -80 -14 -21 -40 -44 -57 -51 -18 -8 -76 -53 -130 -101 -54
-49 -104 -88 -112 -88 -7 0 -28 -18 -45 -40 -17 -22 -39 -40 -49 -40 -9 0 -52
-36 -95 -80 -44 -45 -95 -88 -115 -96 -20 -8 -47 -26 -61 -39 -14 -13 -38 -27
-53 -31 -18 -4 -38 -21 -52 -44 -13 -21 -33 -41 -45 -45 -11 -3 -29 -3 -40 0
-16 5 -20 15 -20 51 0 27 9 63 24 92 13 26 31 72 39 102 9 31 32 78 52 105 19
28 35 55 35 61 0 6 11 27 25 47 13 20 29 54 35 76 6 25 22 48 45 65 19 15 35
35 35 46 0 10 13 28 29 39 16 12 35 38 42 59 7 20 22 53 35 73 12 20 29 53 38
72 8 19 26 43 40 52 14 10 26 22 26 28 0 5 16 34 35 63 20 29 40 56 45 59 6 4
21 27 34 53 13 26 34 56 46 67 12 11 35 45 50 75 16 30 37 60 48 67 12 7 27
36 37 69 11 40 28 69 56 96 21 21 39 43 39 47 0 5 24 34 53 63 28 30 59 67 67
84 8 16 36 61 63 101 26 39 56 74 66 78 10 3 31 25 46 48 15 23 37 53 50 67
12 14 34 46 48 71 15 27 60 75 104 112 43 36 93 85 111 109 18 24 47 62 65 85
18 22 76 92 130 155 55 62 112 121 128 131 15 10 37 33 48 51 11 17 34 44 50
59 17 15 39 44 51 66 11 22 25 43 31 46 6 4 30 37 55 74 24 36 56 82 70 101
14 19 36 46 49 60 12 14 35 43 49 64 15 23 26 53 26 73 0 19 -4 43 -10 53 -5
10 -23 21 -40 25 -16 4 -43 4 -60 0 -21 -5 -52 -33 -107 -97 -43 -51 -148
-167 -233 -260 -85 -93 -164 -184 -175 -203 -11 -18 -49 -62 -85 -97 -36 -35
-72 -78 -80 -94 -8 -16 -42 -58 -76 -94 -33 -36 -65 -76 -69 -90 -4 -14 -22
-39 -39 -55 -17 -17 -65 -77 -106 -135 -41 -57 -100 -134 -131 -170 -31 -36
-60 -76 -64 -90 -4 -14 -19 -36 -32 -50 -13 -14 -43 -47 -67 -75 -24 -27 -55
-69 -69 -91 -14 -23 -39 -52 -56 -65 -18 -13 -53 -42 -79 -63 -25 -21 -61 -45
-78 -52 -23 -10 -34 -22 -39 -44 -4 -19 -17 -36 -35 -45 -16 -8 -37 -28 -46
-45 -10 -16 -32 -36 -50 -45 -18 -8 -37 -15 -43 -15 -6 0 -20 -22 -32 -49 -14
-34 -29 -53 -50 -61 -15 -7 -37 -27 -48 -46 -11 -18 -38 -42 -60 -54 -23 -11
-41 -26 -41 -33 0 -6 -20 -33 -44 -58 -24 -26 -53 -50 -65 -54 -12 -3 -32 -22
-45 -42 -13 -19 -46 -49 -72 -66 -27 -18 -61 -51 -77 -75 -17 -25 -58 -62 -99
-89 -55 -36 -75 -56 -90 -90 -13 -29 -31 -49 -56 -63 -20 -11 -73 -46 -117
-78 -47 -34 -89 -73 -101 -95 -11 -21 -47 -58 -80 -82 -32 -25 -80 -62 -105
-82 -25 -21 -59 -51 -75 -66 -16 -16 -53 -48 -82 -73 -29 -24 -59 -44 -67 -44
-8 0 -17 11 -21 25 -4 16 0 33 10 48 9 12 34 48 55 80 22 32 43 77 46 100 4
23 22 76 41 118 19 42 34 83 34 90 0 8 9 28 20 44 11 17 20 37 20 46 0 9 12
34 27 55 14 21 32 58 39 81 7 23 31 72 53 109 24 39 41 80 41 98 0 16 9 39 20
51 11 12 41 62 66 111 25 49 65 118 89 154 24 36 55 91 69 124 14 32 26 65 26
73 0 8 13 27 28 41 15 15 34 43 42 62 7 19 29 48 47 63 18 16 41 43 50 60 9
18 36 54 59 82 24 27 44 56 44 64 0 7 17 33 38 56 20 24 48 59 62 80 14 20 33
46 44 57 13 15 21 17 29 9 6 -6 14 -11 18 -11 4 0 7 18 7 41 0 27 7 51 21 70
11 15 21 37 21 48 0 14 13 27 38 40 20 11 46 33 57 50 11 17 26 33 33 36 7 2
18 -6 24 -20 6 -14 19 -27 30 -30 10 -4 26 -4 36 0 11 3 24 16 30 29 6 14 30
33 55 44 30 13 47 29 56 51 8 17 17 31 22 31 4 0 35 33 68 73 33 40 78 83 99
95 22 12 57 43 78 69 21 27 47 55 57 63 10 8 37 47 60 85 27 45 57 79 85 98
24 17 48 41 54 56 5 14 36 48 68 74 32 27 71 67 86 90 16 23 45 61 66 84 21
24 38 48 38 54 0 6 12 24 28 39 15 16 48 52 73 82 26 29 65 73 86 98 22 25 43
53 46 63 4 10 -2 35 -13 58 -18 34 -25 39 -53 38 -24 0 -52 -17 -112 -65z
m-205 -314 c-11 -22 -24 -40 -29 -40 -5 0 -29 -19 -53 -41 -24 -23 -48 -56
-54 -73 -7 -20 -23 -37 -47 -48 -26 -13 -44 -32 -61 -67 -14 -27 -51 -75 -81
-107 -31 -33 -63 -71 -70 -85 -8 -14 -25 -33 -39 -42 -14 -10 -43 -43 -65 -75
-21 -32 -57 -71 -80 -86 -22 -16 -43 -37 -46 -47 -4 -11 -18 -33 -32 -49 -14
-17 -38 -37 -54 -46 -17 -8 -31 -26 -35 -42 -4 -15 -13 -37 -20 -49 -10 -16
-24 -23 -44 -23 -23 0 -30 5 -30 19 0 11 12 34 27 51 14 17 39 59 55 93 16 34
50 84 76 112 26 27 70 82 97 120 28 39 79 99 115 135 36 36 83 89 105 118 22
29 43 52 47 52 4 0 33 27 65 60 31 33 66 63 77 66 12 4 39 27 61 52 21 25 53
53 70 63 16 11 38 19 48 19 16 0 16 -3 -3 -40z m-652 -2052 c2 -10 -8 -29 -22
-43 -14 -14 -32 -25 -41 -25 -9 0 -15 9 -15 26 0 14 5 34 11 45 7 14 19 19 37
17 16 -2 28 -10 30 -20z"/>
<path d="M25714 4170 c-35 -20 -60 -44 -79 -75 -14 -25 -40 -83 -56 -127 -27
-74 -29 -92 -29 -215 0 -102 5 -150 20 -204 10 -39 31 -90 44 -114 14 -23 58
-70 98 -104 40 -34 106 -78 146 -98 l73 -37 77 13 c42 7 93 20 112 28 19 8 42
18 50 22 8 5 16 20 18 34 3 21 -4 31 -30 47 -19 11 -51 20 -75 20 -23 0 -66 5
-94 11 -39 9 -64 22 -99 55 -25 24 -58 67 -72 96 -15 29 -29 67 -33 85 -3 18
-1 112 5 209 10 155 15 184 36 226 13 26 24 62 24 80 0 19 -7 44 -16 56 -9 13
-25 22 -42 22 -15 0 -50 -13 -78 -30z"/>
<path d="M6684 3715 c-22 -7 -60 -23 -84 -35 -23 -12 -64 -43 -89 -70 -25 -26
-57 -53 -71 -60 -14 -7 -38 -26 -55 -42 -16 -15 -48 -46 -70 -67 -22 -22 -61
-61 -86 -88 -25 -26 -79 -81 -120 -120 -41 -40 -92 -94 -114 -119 -22 -25 -64
-69 -92 -98 -29 -29 -53 -58 -53 -63 0 -6 -40 -52 -88 -101 -48 -50 -98 -108
-110 -129 -12 -21 -29 -53 -38 -72 -8 -18 -43 -61 -78 -95 -49 -48 -65 -71
-74 -108 -7 -26 -25 -62 -41 -80 -15 -18 -34 -50 -40 -70 -7 -20 -19 -42 -27
-49 -9 -7 -25 -31 -36 -53 -11 -22 -36 -62 -54 -89 -19 -27 -34 -57 -34 -66 0
-9 -16 -41 -35 -71 -20 -30 -40 -73 -46 -95 -6 -22 -26 -74 -45 -115 -18 -41
-42 -101 -54 -134 -11 -32 -29 -74 -41 -93 -12 -20 -68 -70 -123 -113 -56 -43
-112 -89 -126 -103 -14 -13 -61 -51 -105 -84 -44 -33 -99 -70 -122 -81 -22
-12 -51 -34 -63 -49 -12 -15 -34 -35 -49 -43 -15 -8 -54 -34 -86 -58 -33 -23
-82 -61 -110 -83 -27 -22 -84 -58 -125 -81 -41 -23 -95 -45 -120 -49 -25 -4
-61 -10 -80 -14 -24 -4 -41 -2 -54 8 -15 11 -21 30 -24 79 -3 51 0 76 17 113
12 26 21 64 21 84 0 20 5 54 11 76 6 22 27 57 46 78 19 22 39 52 45 68 7 20
25 37 52 51 22 11 58 36 79 54 20 19 42 34 48 34 6 0 53 43 104 96 74 76 104
100 151 119 37 15 82 46 126 87 37 35 87 79 110 100 24 20 72 62 108 94 36 31
98 91 137 133 47 48 79 92 90 121 9 25 33 59 54 78 21 18 43 49 49 68 7 20 10
55 8 78 -3 22 -16 68 -29 101 -21 52 -30 63 -69 83 -24 12 -63 22 -85 22 -27
0 -67 -13 -116 -36 -41 -20 -83 -45 -94 -55 -11 -10 -46 -30 -77 -44 -31 -14
-59 -34 -62 -43 -4 -9 -35 -42 -71 -72 -36 -30 -92 -81 -125 -113 -33 -32 -60
-62 -60 -66 0 -4 -11 -13 -23 -20 -13 -7 -42 -40 -65 -74 -22 -34 -66 -91 -96
-127 -31 -36 -67 -87 -81 -115 -14 -27 -36 -67 -48 -87 -13 -20 -30 -45 -39
-55 -9 -10 -21 -38 -28 -63 -7 -25 -32 -88 -57 -140 -25 -52 -57 -119 -72
-148 -15 -31 -48 -72 -81 -101 -30 -26 -66 -52 -80 -56 -14 -4 -36 -16 -49
-26 -13 -11 -34 -19 -47 -19 -12 0 -43 -16 -68 -35 -25 -19 -76 -51 -113 -70
-38 -20 -95 -51 -128 -70 -33 -20 -76 -42 -95 -50 -19 -9 -42 -20 -50 -25 -8
-5 -52 -28 -96 -49 -45 -22 -94 -43 -110 -46 -16 -4 -56 -16 -88 -26 -37 -13
-70 -18 -90 -14 -17 4 -48 18 -68 31 -21 13 -45 39 -55 56 -13 26 -17 60 -17
158 0 72 5 144 13 168 7 24 28 76 46 115 19 40 45 101 58 137 14 36 36 91 50
123 13 32 41 75 60 95 20 21 45 63 57 97 12 33 31 89 42 125 11 36 31 79 44
97 13 17 24 36 24 41 0 5 20 39 45 75 25 37 45 78 45 92 0 17 11 36 30 53 17
15 30 32 30 38 0 7 15 34 33 60 19 27 39 64 45 82 6 18 21 47 34 64 12 18 46
58 74 90 29 33 56 72 59 88 4 17 11 32 16 36 5 3 19 23 30 46 11 22 37 59 58
81 21 23 46 58 56 77 10 19 37 59 61 88 23 29 46 62 50 75 4 12 26 44 50 71
33 39 53 76 84 165 23 64 42 134 43 156 1 22 -5 53 -13 69 -9 17 -26 33 -41
37 -15 4 -39 4 -53 2 -14 -3 -39 -22 -56 -43 -20 -25 -34 -60 -44 -109 -11
-52 -24 -83 -49 -114 -19 -23 -39 -52 -46 -64 -6 -12 -11 -30 -11 -41 0 -10
-14 -41 -32 -68 -17 -27 -64 -83 -103 -124 -40 -41 -78 -86 -84 -99 -7 -13
-27 -42 -45 -65 -17 -22 -44 -53 -59 -68 -15 -15 -27 -31 -27 -37 0 -5 -22
-25 -49 -44 -32 -23 -60 -56 -84 -98 -19 -35 -53 -80 -74 -100 -21 -20 -55
-48 -75 -63 -21 -16 -63 -64 -95 -107 -32 -43 -61 -79 -65 -79 -5 0 -17 -14
-27 -31 -10 -16 -52 -69 -92 -116 -41 -48 -108 -122 -149 -164 -41 -43 -82
-85 -90 -93 -8 -9 -54 -53 -101 -99 -48 -45 -101 -103 -118 -129 -17 -26 -84
-95 -148 -153 -64 -58 -123 -118 -130 -133 -7 -15 -26 -36 -42 -47 -16 -11
-61 -46 -100 -78 -39 -32 -75 -66 -80 -76 -6 -10 -52 -56 -104 -102 -52 -46
-133 -115 -180 -153 -48 -39 -88 -75 -91 -82 -3 -7 -33 -28 -68 -48 -35 -19
-74 -49 -86 -66 -12 -16 -45 -42 -73 -57 -28 -16 -67 -37 -88 -49 -21 -11 -52
-30 -68 -42 -17 -12 -36 -22 -42 -22 -6 0 -25 -13 -43 -29 -18 -16 -53 -34
-76 -41 -24 -6 -58 -20 -75 -31 -18 -10 -49 -19 -70 -19 -21 0 -50 6 -65 14
-15 8 -36 24 -46 35 -18 19 -18 26 -7 56 9 27 9 39 0 56 -8 16 -9 43 -4 88 4
36 9 91 10 122 3 46 13 75 60 163 39 73 66 111 85 121 15 8 33 28 40 45 7 17
30 44 52 61 21 17 47 48 57 68 11 20 29 45 41 56 12 11 29 33 37 48 8 16 33
45 55 65 22 20 54 51 71 67 16 17 36 44 43 62 8 18 14 57 14 86 0 41 -5 58
-19 71 -13 12 -27 15 -42 11 -12 -4 -42 -26 -67 -49 -25 -22 -60 -65 -79 -94
-19 -29 -49 -62 -68 -75 -19 -12 -37 -30 -41 -39 -3 -10 -30 -41 -61 -70 -30
-29 -66 -71 -79 -93 -13 -22 -37 -54 -54 -70 -17 -17 -41 -47 -53 -68 -11 -20
-42 -51 -69 -68 -36 -24 -50 -40 -58 -68 -6 -24 -25 -49 -54 -74 -31 -25 -49
-50 -55 -75 -5 -20 -13 -54 -16 -74 -7 -34 -5 -38 19 -44 15 -3 30 -14 35 -23
5 -9 12 -38 15 -66 4 -27 7 -72 8 -100 0 -27 9 -84 20 -125 11 -40 27 -84 35
-97 8 -12 42 -36 76 -53 46 -23 74 -30 118 -30 39 0 83 9 136 29 43 16 108 43
144 59 37 17 70 35 73 40 4 6 32 20 64 32 31 12 70 34 86 48 16 15 48 45 70
68 23 22 61 50 86 62 25 12 71 42 103 68 32 25 68 61 79 79 10 19 28 37 39 40
11 4 27 17 35 31 9 13 31 31 49 39 18 9 39 31 48 50 10 21 29 40 49 48 18 8
44 26 58 41 13 15 44 36 69 47 24 10 64 40 89 67 24 26 87 93 138 149 52 55
94 105 94 110 0 4 19 26 43 49 23 23 57 49 74 58 18 9 47 34 65 57 18 23 45
47 59 54 14 8 48 38 76 67 28 29 66 71 85 93 18 22 38 49 44 59 6 11 29 26 52
34 22 7 44 22 47 32 3 10 23 30 45 45 22 15 50 46 63 68 12 22 34 49 49 60 15
12 30 18 33 16 2 -3 -5 -29 -16 -58 -11 -30 -30 -68 -43 -85 -13 -17 -27 -42
-31 -56 -3 -14 -20 -54 -37 -90 -17 -36 -41 -77 -53 -91 -12 -15 -32 -53 -45
-85 -13 -33 -29 -68 -36 -79 -7 -11 -24 -56 -38 -100 -14 -44 -42 -138 -62
-210 -19 -71 -38 -161 -41 -200 -4 -57 -1 -81 18 -130 15 -41 40 -78 78 -118
31 -33 67 -65 81 -72 14 -7 50 -18 81 -25 48 -11 71 -10 150 4 52 10 117 28
144 41 28 13 88 41 135 61 47 20 101 48 120 61 19 12 41 23 49 23 8 0 47 22
87 50 40 27 88 57 106 66 18 9 51 32 73 51 21 18 57 39 80 45 22 6 44 15 50
20 5 4 17 8 26 8 10 0 20 -9 24 -20 3 -11 3 -25 0 -30 -4 -6 -11 -35 -15 -63
-5 -29 -12 -64 -16 -79 -3 -16 1 -50 11 -83 10 -30 29 -66 42 -79 13 -14 50
-34 81 -45 31 -11 76 -27 98 -35 39 -14 45 -14 95 6 30 11 77 31 105 44 28 13
57 24 64 24 7 0 27 13 46 29 18 17 50 34 70 40 19 5 57 29 84 53 27 24 67 58
90 76 23 17 52 32 64 32 13 0 41 17 63 38 21 20 76 69 121 107 46 39 113 96
150 127 37 31 77 57 90 58 21 0 22 -3 22 -87 0 -49 -5 -117 -11 -153 -7 -46
-7 -89 1 -149 8 -60 21 -103 46 -152 33 -66 36 -69 69 -69 20 0 75 15 123 34
48 18 97 37 109 40 12 4 32 23 43 42 12 19 46 50 75 69 29 20 60 47 69 60 9
13 31 28 49 33 27 7 37 19 65 78 18 38 36 76 40 84 5 8 33 27 63 41 31 16 58
23 64 18 7 -5 10 -57 8 -139 -2 -116 0 -135 18 -168 12 -20 28 -45 37 -55 9
-10 32 -25 51 -33 18 -8 50 -14 71 -14 25 0 49 9 76 29 21 16 55 44 74 63 19
19 46 47 60 63 14 17 43 44 64 60 22 17 60 52 85 80 26 27 60 64 76 81 17 17
37 35 46 40 8 5 31 29 50 53 19 24 51 50 72 58 26 11 44 27 58 55 14 28 28 40
50 45 17 3 40 19 52 35 12 16 42 42 67 58 25 16 56 44 70 62 14 18 43 60 65
92 22 32 57 72 77 89 20 16 46 49 58 74 16 34 27 45 51 50 21 4 35 16 49 42
10 20 28 42 39 48 11 7 30 31 41 53 14 27 32 45 55 55 20 8 50 29 68 47 18 18
50 47 70 64 25 21 37 40 37 57 0 14 7 33 16 42 11 11 30 15 58 13 l41 -3 3
-53 c2 -32 -4 -76 -17 -115 -10 -34 -29 -102 -41 -152 -11 -49 -32 -116 -46
-150 -14 -33 -30 -78 -35 -100 -5 -22 -19 -53 -30 -68 -11 -15 -26 -45 -34
-66 -7 -21 -29 -60 -49 -86 -20 -25 -36 -50 -36 -54 0 -5 -15 -28 -32 -52 -18
-24 -40 -61 -48 -81 -8 -21 -55 -83 -105 -139 -49 -55 -109 -128 -132 -161
-24 -32 -43 -66 -43 -74 0 -8 7 -28 15 -44 9 -18 26 -31 45 -35 21 -5 39 -2
56 10 14 9 34 32 45 50 11 18 31 40 44 49 13 8 29 32 36 53 6 21 56 90 109
154 53 64 109 132 123 150 14 19 31 54 38 79 8 25 27 59 44 76 16 17 61 93 98
170 38 76 73 147 78 156 5 10 9 37 9 59 0 29 9 56 29 88 19 30 35 76 46 131 9
47 20 148 25 225 6 106 5 148 -5 171 -8 19 -27 37 -50 48 -23 11 -48 16 -66
12 -19 -4 -60 -36 -114 -91 -47 -46 -90 -96 -95 -109 -5 -14 -27 -34 -48 -45
-22 -11 -68 -52 -103 -90 -35 -38 -76 -74 -90 -80 -20 -7 -31 -23 -44 -60 -9
-28 -25 -56 -36 -61 -10 -6 -28 -28 -38 -49 -16 -29 -35 -46 -88 -73 -54 -27
-72 -42 -87 -74 -11 -21 -26 -43 -34 -48 -9 -5 -43 -34 -76 -64 -34 -31 -69
-68 -78 -84 -9 -15 -30 -34 -45 -42 -15 -8 -50 -42 -78 -74 -27 -33 -61 -66
-73 -73 -13 -7 -30 -26 -38 -41 -8 -15 -33 -37 -57 -49 -23 -12 -70 -49 -104
-82 -35 -33 -72 -65 -82 -71 -11 -6 -62 -50 -113 -98 -52 -48 -105 -89 -118
-93 -14 -3 -33 0 -43 7 -17 13 -17 19 2 153 11 77 25 156 31 175 6 19 12 62
14 96 1 38 10 75 24 102 12 23 28 68 37 102 9 33 29 81 45 107 17 26 30 52 30
58 0 7 16 28 35 48 19 20 35 42 35 50 0 7 12 24 26 38 14 13 38 49 54 79 15
30 30 77 34 103 5 35 15 55 36 73 16 14 38 48 50 76 11 27 24 71 27 98 3 26 3
59 -1 73 -3 14 -18 29 -35 37 -18 7 -46 9 -69 5 -22 -3 -72 -18 -112 -33 -40
-15 -76 -34 -81 -42 -4 -8 -18 -40 -32 -70 -14 -30 -43 -93 -66 -140 -23 -47
-41 -97 -41 -113 0 -15 -11 -60 -25 -99 -15 -44 -25 -93 -25 -128 0 -31 -7
-81 -16 -111 -9 -30 -29 -79 -44 -109 -16 -31 -52 -80 -80 -110 -35 -37 -55
-67 -59 -90 -5 -30 -14 -38 -62 -61 -51 -25 -58 -33 -78 -83 -19 -46 -29 -57
-57 -66 -27 -9 -40 -24 -66 -73 -21 -39 -43 -67 -60 -75 -16 -7 -31 -24 -34
-37 -3 -13 -12 -29 -19 -35 -10 -8 -19 -8 -34 0 -18 9 -26 5 -59 -27 -21 -21
-58 -50 -82 -64 -24 -15 -49 -25 -56 -22 -7 3 -16 14 -20 26 -4 11 -6 77 -5
145 1 115 4 133 36 226 19 56 35 118 35 137 0 21 8 47 19 61 11 13 22 42 26
64 4 21 9 47 12 57 2 9 29 33 58 52 30 19 61 48 69 64 9 16 25 32 36 36 11 3
36 26 56 51 20 24 43 44 51 44 7 0 33 19 56 43 24 23 92 87 151 142 59 55 114
113 122 128 10 18 33 36 64 49 41 17 55 30 79 72 16 29 45 67 65 84 20 18 42
32 49 32 7 0 24 15 38 32 13 18 32 45 41 60 10 15 36 45 58 67 22 21 45 52 51
69 5 16 21 35 36 43 14 7 38 32 53 54 15 22 42 54 60 70 17 17 41 48 52 70 11
22 35 58 52 80 17 22 40 48 52 57 12 10 31 41 44 70 12 29 32 67 45 83 12 17
50 90 84 163 33 73 61 134 61 137 0 2 14 26 30 52 25 40 31 62 35 123 2 41 -1
92 -7 113 -6 21 -21 45 -32 53 -11 8 -34 14 -51 13 -16 -1 -48 -7 -71 -14z
m-26 -278 c-3 -56 -9 -71 -61 -148 -31 -47 -64 -103 -72 -123 -9 -21 -31 -60
-48 -86 -18 -26 -40 -60 -50 -76 -9 -16 -27 -44 -40 -62 -12 -18 -39 -53 -59
-77 -20 -25 -40 -55 -43 -67 -4 -13 -32 -47 -61 -76 -30 -29 -54 -59 -54 -67
0 -7 -48 -62 -107 -122 -60 -61 -121 -129 -137 -152 -16 -23 -38 -47 -48 -52
-10 -5 -27 -28 -38 -49 -11 -22 -25 -40 -30 -40 -5 0 -72 -62 -148 -137 -75
-76 -165 -162 -199 -191 -34 -29 -66 -66 -72 -81 -7 -15 -25 -35 -40 -44 -16
-9 -31 -17 -34 -17 -3 0 -7 9 -10 21 -3 12 -2 31 3 43 6 11 23 44 40 71 17 28
42 73 56 100 15 28 36 63 47 80 12 16 33 64 48 108 16 46 35 84 48 93 12 9 28
30 37 47 9 18 27 45 40 60 13 16 24 38 24 49 0 11 18 41 40 66 22 26 66 79 98
117 32 39 73 93 92 120 18 28 58 77 88 110 30 33 78 85 106 115 29 30 60 67
69 82 10 15 34 36 55 47 21 11 44 32 51 47 7 15 35 56 63 91 27 35 71 78 97
95 25 17 64 48 86 69 22 21 58 51 80 68 22 16 51 30 64 30 23 1 23 -1 19 -62z
m-1747 -1017 c10 -6 19 -18 19 -26 0 -8 -15 -42 -32 -75 -18 -34 -41 -65 -50
-70 -10 -5 -33 -33 -52 -62 -18 -29 -82 -102 -142 -163 -60 -61 -117 -123
-127 -137 -10 -15 -32 -34 -50 -43 -18 -9 -48 -30 -67 -46 -19 -16 -53 -44
-74 -61 -22 -18 -68 -60 -102 -94 -34 -34 -84 -73 -112 -87 -32 -16 -53 -22
-57 -16 -4 6 14 52 38 103 25 51 57 103 71 116 14 14 26 30 26 37 0 7 13 28
28 46 15 18 43 58 62 88 19 30 56 82 82 115 27 33 67 79 91 103 23 24 56 50
72 59 17 9 51 34 76 57 26 22 68 57 95 76 26 19 71 47 98 62 28 15 59 27 69
28 10 0 27 -5 38 -10z m1309 -331 c0 -27 -8 -44 -30 -67 -16 -18 -30 -36 -30
-42 0 -5 -4 -10 -10 -10 -5 0 -10 8 -10 18 1 9 9 35 20 57 11 22 19 43 20 47
0 4 5 19 11 35 8 22 12 24 19 13 6 -8 10 -31 10 -51z"/>
<path d="M22888 3208 c-21 -12 -44 -36 -53 -54 -9 -18 -20 -36 -25 -39 -6 -4
-34 -36 -63 -73 -29 -37 -72 -98 -97 -137 -24 -38 -59 -89 -77 -112 -19 -23
-40 -61 -48 -85 -8 -24 -47 -106 -85 -183 -46 -90 -76 -164 -84 -206 -8 -41
-22 -75 -35 -88 -12 -12 -21 -27 -21 -34 0 -8 -13 -33 -29 -58 -16 -24 -33
-57 -37 -74 -3 -16 -17 -45 -31 -62 -13 -18 -33 -52 -43 -75 -11 -24 -20 -60
-20 -80 0 -27 -7 -42 -25 -56 -14 -11 -34 -45 -44 -75 -11 -30 -26 -66 -35
-79 -8 -13 -22 -43 -31 -68 -9 -24 -24 -54 -35 -65 -10 -11 -23 -40 -29 -65
-6 -25 -11 -64 -11 -88 0 -24 6 -55 14 -70 8 -15 23 -36 35 -46 17 -15 26 -17
48 -8 16 5 47 15 70 21 22 6 60 26 84 44 23 17 60 51 83 73 23 23 59 51 81 62
22 11 51 32 64 46 14 14 30 26 38 26 7 0 24 17 37 38 13 20 49 62 79 93 30 31
64 60 76 64 13 4 28 1 38 -6 13 -11 14 -28 10 -87 -5 -70 -4 -76 20 -98 14
-13 41 -28 60 -35 19 -6 59 -9 88 -7 33 3 68 14 96 32 24 15 67 41 95 59 28
18 92 70 142 116 50 46 108 92 129 101 22 9 46 28 55 42 9 13 43 38 76 56 35
19 73 49 93 74 18 24 78 78 133 121 60 46 110 77 124 77 17 0 27 9 38 36 10
24 20 34 32 32 9 -2 18 -11 20 -20 2 -10 -7 -28 -21 -40 -13 -13 -30 -40 -36
-61 -7 -21 -28 -61 -48 -89 -19 -29 -50 -69 -69 -90 -20 -23 -34 -48 -34 -64
0 -15 -24 -65 -54 -113 -30 -47 -57 -102 -60 -122 -4 -20 -20 -57 -37 -83 -24
-35 -31 -58 -32 -95 -1 -31 6 -59 17 -76 17 -26 19 -27 107 -23 79 3 92 6 107
25 9 13 41 30 70 39 33 9 70 30 95 53 23 21 63 52 89 69 26 18 69 42 95 53 26
12 68 27 93 35 38 11 50 22 78 67 17 29 32 63 32 75 0 15 -9 26 -26 32 -14 6
-34 10 -44 10 -11 0 -35 -14 -54 -30 -19 -17 -54 -37 -79 -46 -24 -8 -61 -33
-82 -54 -22 -22 -43 -40 -48 -40 -5 0 -39 -13 -75 -29 -37 -16 -77 -32 -88
-35 -15 -5 -24 -2 -28 9 -3 9 5 38 18 65 13 27 38 68 56 89 17 22 43 69 57
103 13 35 40 88 59 119 19 32 41 59 49 63 8 3 33 42 56 88 22 46 52 94 65 108
13 14 32 55 44 92 11 36 34 83 51 105 16 21 52 69 79 108 31 43 50 80 50 97 0
20 8 31 30 43 17 9 30 20 30 25 0 6 45 55 100 110 64 65 107 117 120 147 12
27 20 63 18 83 -3 35 -4 35 -54 38 -43 2 -56 -1 -83 -24 -17 -14 -38 -39 -46
-53 -7 -15 -61 -76 -119 -135 -58 -59 -108 -118 -112 -129 -4 -12 -33 -52 -66
-89 -33 -37 -83 -84 -111 -104 -29 -21 -72 -58 -97 -83 -25 -25 -72 -64 -105
-85 -33 -22 -80 -56 -104 -75 -25 -20 -63 -54 -85 -77 -23 -22 -57 -51 -76
-64 -19 -13 -53 -39 -75 -58 -22 -18 -68 -47 -101 -63 -34 -17 -76 -46 -95
-65 -20 -20 -47 -36 -68 -40 -20 -4 -46 -16 -58 -27 -13 -11 -23 -29 -23 -39
0 -11 -13 -26 -32 -36 -17 -9 -43 -28 -57 -41 -14 -13 -45 -30 -70 -38 -24 -7
-46 -11 -48 -9 -2 2 0 26 5 52 6 27 20 87 32 133 12 46 41 123 66 170 27 52
48 109 54 144 5 32 21 80 36 105 14 26 35 71 45 101 10 29 34 75 54 102 19 26
42 65 50 86 9 21 24 47 35 58 10 11 27 43 38 70 10 28 38 70 62 94 23 25 52
65 62 89 14 30 18 55 14 77 -4 18 -16 45 -27 59 -12 15 -30 26 -45 26 -13 0
-41 -11 -62 -24 -20 -13 -51 -39 -69 -57 -17 -19 -42 -59 -56 -90 -13 -30 -37
-66 -53 -78 -16 -12 -37 -35 -46 -49 -10 -15 -18 -41 -18 -57 0 -18 -15 -53
-36 -85 -20 -30 -51 -87 -69 -125 -18 -39 -40 -76 -48 -84 -9 -7 -23 -38 -32
-69 -9 -31 -30 -83 -47 -116 -17 -34 -45 -78 -64 -98 -18 -20 -38 -55 -45 -78
-9 -29 -27 -54 -60 -82 -26 -22 -59 -56 -72 -77 -14 -20 -69 -80 -122 -133
-68 -68 -105 -98 -121 -98 -17 0 -31 -12 -49 -40 -14 -22 -43 -52 -65 -66 -21
-14 -46 -37 -55 -50 -8 -13 -22 -24 -29 -24 -7 0 -19 6 -25 14 -9 11 -3 34 29
105 22 51 40 100 40 111 0 10 19 51 41 91 23 41 48 89 56 109 8 19 37 71 63
115 27 44 51 97 55 118 4 22 23 64 41 95 19 31 43 81 54 111 11 31 31 76 44
101 13 25 38 86 54 135 17 50 52 131 77 180 26 50 60 106 74 125 15 19 38 53
53 75 14 22 32 53 39 69 10 21 27 34 55 43 26 9 45 23 53 39 6 14 11 33 11 44
0 10 -10 26 -22 34 -12 9 -36 16 -53 16 -16 0 -47 -10 -67 -22z"/>
<path d="M17396 3043 c-26 -20 -56 -54 -67 -75 -10 -20 -19 -42 -19 -49 0 -6
-17 -39 -37 -72 -21 -34 -50 -77 -65 -95 -15 -18 -28 -39 -28 -48 0 -8 -11
-20 -25 -26 -15 -7 -30 -27 -39 -52 -9 -23 -24 -65 -35 -93 -10 -29 -45 -91
-77 -139 -33 -47 -68 -100 -79 -118 -11 -18 -29 -47 -40 -65 -11 -18 -34 -56
-52 -84 -18 -29 -47 -73 -65 -100 -18 -26 -50 -70 -70 -97 -20 -27 -39 -65
-43 -82 -4 -18 -15 -42 -25 -53 -10 -11 -36 -63 -59 -115 -22 -52 -41 -107
-41 -121 0 -14 5 -51 11 -82 8 -38 19 -61 33 -70 12 -8 53 -25 93 -37 l71 -23
60 26 c33 15 67 27 75 27 9 0 25 13 36 29 12 16 21 36 21 45 0 9 -12 21 -26
26 -14 6 -50 10 -80 10 -31 0 -54 -4 -54 -11 0 -6 -12 -9 -27 -7 -27 3 -28 6
-28 55 1 42 6 58 27 80 14 16 31 44 37 64 7 20 21 45 31 54 11 10 20 28 20 40
0 13 15 45 34 71 19 27 45 67 57 89 12 22 46 71 76 110 29 38 56 81 60 95 3
14 20 41 38 60 18 19 50 60 73 90 22 30 61 95 87 143 25 49 63 114 84 145 21
32 42 68 46 82 4 14 21 50 37 80 16 30 39 71 51 90 12 19 37 55 55 79 19 26
32 56 32 73 0 19 -10 40 -29 59 -19 19 -40 29 -59 29 -18 0 -46 -14 -76 -37z"/>
<path d="M19224 3038 c-14 -4 -31 -11 -37 -16 -7 -6 -40 -17 -74 -26 -35 -8
-80 -27 -101 -41 -21 -14 -48 -39 -61 -55 -12 -17 -29 -30 -38 -30 -9 0 -51
-23 -92 -52 -42 -28 -94 -68 -116 -87 -21 -20 -63 -61 -92 -91 -29 -30 -71
-73 -93 -95 -21 -22 -50 -65 -64 -97 -16 -36 -41 -69 -70 -94 -31 -26 -55 -60
-81 -113 -20 -42 -45 -92 -57 -111 -12 -19 -55 -85 -95 -147 -44 -68 -73 -122
-73 -138 0 -16 -12 -38 -30 -57 -17 -17 -41 -51 -54 -77 -13 -25 -27 -62 -31
-81 -4 -19 -21 -69 -38 -110 -24 -61 -31 -94 -35 -176 -3 -79 -1 -107 12 -131
10 -21 26 -34 47 -38 17 -4 51 -4 76 0 25 4 74 20 109 37 35 17 88 52 118 78
30 26 67 56 82 67 16 11 40 24 54 28 14 4 47 28 74 52 28 24 63 52 80 60 17 9
51 33 76 55 25 21 62 49 82 61 20 12 68 43 105 68 37 26 77 56 87 68 11 11 27
21 37 21 10 0 26 11 35 25 9 14 22 25 29 25 6 0 20 10 31 21 10 12 36 32 56
45 21 13 44 37 53 54 8 16 30 37 48 46 17 10 67 52 110 96 43 43 83 78 88 78
6 0 17 16 25 35 11 28 20 35 43 35 15 0 34 8 42 18 8 9 22 34 32 54 14 32 24
39 72 53 38 11 62 26 76 45 12 15 50 45 85 65 35 21 69 44 75 51 6 8 15 11 20
8 5 -3 9 -18 9 -34 0 -19 -7 -33 -20 -40 -11 -6 -23 -23 -26 -38 -4 -15 -26
-61 -50 -103 -25 -42 -62 -90 -85 -108 -22 -19 -49 -47 -60 -64 -10 -18 -61
-74 -113 -127 -52 -52 -125 -119 -161 -149 -54 -44 -65 -59 -61 -76 4 -14 -1
-28 -12 -37 -9 -9 -29 -18 -44 -22 -14 -3 -40 -23 -57 -45 -17 -21 -53 -56
-80 -76 -27 -20 -79 -76 -117 -123 -38 -47 -82 -97 -99 -111 -16 -14 -46 -42
-67 -62 -30 -29 -38 -44 -38 -71 0 -21 9 -46 21 -62 16 -20 29 -26 57 -26 20
1 56 11 78 23 23 12 60 36 82 52 22 17 47 41 54 54 7 13 30 35 50 48 21 13 38
27 38 31 0 4 17 24 38 44 20 20 100 100 177 178 77 77 163 167 192 198 29 31
63 69 76 84 14 15 45 53 70 85 24 32 68 83 96 113 28 30 65 71 81 92 17 20 30
47 30 58 0 12 19 44 43 72 23 27 66 73 95 101 30 29 73 66 97 82 23 17 70 54
104 83 34 28 71 52 81 52 11 0 44 25 74 55 31 30 66 57 79 60 16 4 30 1 41
-10 9 -9 16 -28 16 -43 0 -15 -11 -62 -25 -105 -14 -43 -25 -87 -25 -98 0 -11
-7 -34 -15 -52 -8 -18 -26 -47 -40 -66 -14 -19 -25 -48 -25 -66 0 -19 -8 -39
-19 -49 -11 -10 -23 -32 -26 -48 -4 -17 -25 -64 -48 -106 -22 -41 -66 -103
-99 -137 -38 -41 -58 -71 -58 -87 0 -14 -14 -40 -32 -60 -18 -20 -55 -66 -83
-102 -27 -37 -72 -88 -98 -113 -27 -25 -57 -60 -66 -77 -11 -19 -31 -35 -52
-42 -27 -9 -37 -20 -49 -53 -8 -23 -25 -48 -37 -57 -13 -8 -23 -24 -23 -34 0
-11 14 -35 31 -55 18 -20 40 -35 53 -35 11 0 39 11 61 23 27 15 58 49 95 103
30 45 72 97 92 117 20 20 45 53 54 73 9 20 33 46 51 57 19 12 45 43 58 69 14
25 59 79 101 120 42 40 138 135 215 211 116 116 139 143 139 168 0 18 6 32 16
36 10 4 22 -1 30 -11 7 -10 17 -15 23 -11 6 3 11 15 11 26 0 14 10 25 30 32
17 6 33 20 36 31 4 11 34 49 68 86 33 37 93 102 131 146 39 43 97 104 130 136
33 32 63 58 67 58 4 0 14 13 23 30 9 17 27 32 43 36 15 4 38 14 51 23 l24 15
-6 -39 c-4 -22 -17 -60 -30 -85 -13 -25 -41 -71 -63 -104 -21 -32 -44 -68 -51
-80 -7 -11 -26 -50 -43 -86 -17 -36 -46 -90 -65 -120 -19 -30 -39 -64 -44 -75
-5 -11 -12 -32 -15 -47 -4 -15 -17 -38 -31 -50 -13 -13 -42 -59 -64 -103 -23
-44 -50 -96 -61 -115 -11 -19 -20 -42 -20 -52 0 -10 -10 -37 -22 -60 -12 -23
-37 -64 -55 -91 -18 -27 -33 -55 -33 -62 0 -7 -7 -18 -15 -25 -8 -7 -20 -30
-27 -51 -6 -22 -26 -56 -44 -77 -20 -24 -38 -61 -48 -99 -9 -34 -16 -89 -16
-122 0 -34 6 -74 14 -89 8 -15 26 -38 40 -51 26 -24 26 -24 113 -11 49 7 99
17 112 22 13 5 42 29 63 53 31 35 49 47 80 52 23 3 49 14 60 25 10 10 18 27
18 38 0 13 13 28 35 41 19 12 35 24 35 28 0 4 12 13 27 20 15 7 33 21 41 32 7
10 26 26 42 34 16 8 43 35 59 59 17 24 41 46 55 50 14 3 32 19 40 34 8 16 32
40 53 55 21 14 43 35 50 46 7 10 25 22 42 26 16 3 37 17 45 30 9 13 35 33 58
44 24 11 79 50 123 88 60 51 88 83 110 128 19 37 43 68 65 83 19 12 50 39 68
59 18 19 32 43 30 52 -2 9 -14 17 -27 19 -12 2 -36 -2 -52 -8 -17 -8 -39 -32
-57 -64 -20 -34 -44 -59 -73 -76 -23 -14 -75 -57 -114 -96 -38 -39 -88 -79
-109 -89 -23 -11 -44 -31 -54 -51 -9 -20 -27 -37 -44 -43 -16 -6 -43 -21 -59
-33 -17 -13 -41 -32 -54 -44 -13 -12 -39 -31 -59 -43 -19 -12 -47 -36 -62 -54
-14 -18 -39 -39 -54 -47 -15 -8 -41 -26 -59 -40 -17 -14 -50 -40 -74 -59 -23
-19 -63 -44 -88 -56 -26 -11 -79 -49 -118 -83 -54 -46 -80 -62 -102 -62 -17 0
-32 6 -35 15 -4 9 4 39 16 68 12 28 33 68 46 87 13 20 31 59 39 88 9 29 26 69
37 90 12 20 30 48 41 62 10 14 25 39 33 55 8 17 30 57 49 90 19 33 43 80 55
105 12 25 35 72 52 105 17 33 40 71 50 84 10 13 18 32 18 43 0 10 8 31 17 46
9 15 29 41 44 57 16 17 35 49 43 72 8 23 26 59 40 80 15 21 26 41 26 45 0 4
16 33 35 65 19 32 35 67 35 79 0 11 16 35 35 54 27 27 43 56 66 130 21 64 31
117 32 163 1 47 -3 72 -13 82 -13 12 -26 10 -100 -16 -61 -21 -96 -41 -125
-69 -23 -22 -57 -43 -80 -49 -28 -7 -46 -20 -58 -41 -10 -16 -23 -30 -29 -30
-6 0 -38 -29 -72 -64 -34 -35 -81 -87 -106 -115 -25 -28 -61 -60 -80 -72 -19
-12 -38 -26 -42 -33 -3 -6 -29 -40 -57 -76 -28 -36 -61 -79 -75 -96 -14 -17
-30 -42 -35 -56 -6 -15 -21 -28 -36 -32 -15 -4 -33 -2 -40 4 -9 7 -10 21 -5
43 4 18 17 68 29 111 12 43 27 88 33 99 5 11 15 54 20 95 8 69 7 81 -18 149
-20 54 -34 77 -50 83 -12 5 -60 12 -106 15 l-83 7 -86 -66 c-48 -35 -95 -76
-106 -90 -11 -14 -36 -33 -56 -42 -19 -9 -43 -32 -53 -50 -10 -18 -29 -37 -42
-44 -13 -6 -33 -8 -43 -5 -10 3 -21 15 -24 26 -4 11 -4 32 0 48 4 17 0 44 -9
64 -8 20 -23 40 -34 46 -12 6 -37 11 -58 11 -32 0 -45 -8 -97 -60 -40 -40 -69
-60 -85 -60 -16 0 -59 -32 -135 -102 -62 -56 -121 -116 -132 -135 -11 -19 -38
-42 -62 -53 -24 -11 -43 -25 -43 -30 0 -6 -24 -34 -52 -63 -29 -29 -69 -63
-89 -75 -19 -12 -41 -33 -47 -46 -6 -14 -29 -36 -51 -50 -21 -14 -49 -39 -61
-56 -12 -16 -36 -38 -53 -47 -18 -8 -57 -37 -87 -63 -30 -25 -71 -53 -90 -60
-19 -8 -45 -20 -57 -28 -12 -7 -25 -22 -28 -33 -4 -11 -20 -26 -36 -35 -16 -8
-62 -47 -102 -86 -40 -38 -86 -76 -104 -84 -17 -8 -34 -18 -37 -23 -4 -5 -23
-15 -43 -22 -20 -6 -68 -37 -107 -69 -39 -31 -102 -77 -141 -103 -38 -25 -83
-46 -100 -48 -16 -1 -38 -1 -47 -1 -10 1 -18 9 -18 17 0 9 7 26 15 39 9 13 20
49 25 81 5 32 16 65 24 74 8 9 27 45 41 81 15 36 31 75 36 88 6 15 17 22 37
22 15 0 38 -7 51 -16 18 -13 38 -15 86 -12 52 5 70 11 105 39 38 31 41 36 35
70 -6 37 -5 39 119 161 68 68 150 143 182 168 31 25 93 83 138 130 44 47 106
108 136 137 30 28 62 59 70 68 8 9 55 56 103 104 62 62 86 92 81 104 -4 12 4
20 30 31 19 8 48 30 65 48 16 18 37 50 47 70 11 25 14 48 10 72 -4 22 -22 52
-44 76 l-38 39 -77 -2 c-42 -1 -89 -5 -103 -9z m100 -126 c3 -5 1 -24 -5 -43
-5 -19 -23 -52 -39 -74 -17 -22 -38 -53 -48 -69 -9 -16 -43 -54 -75 -85 -33
-31 -91 -89 -130 -128 -40 -40 -97 -100 -127 -133 -34 -37 -68 -63 -89 -69
-18 -6 -50 -27 -71 -48 -21 -21 -63 -58 -95 -83 -31 -25 -79 -63 -106 -85 -27
-22 -65 -53 -85 -70 -21 -16 -45 -36 -56 -43 -15 -11 -19 -11 -24 1 -3 9 7 41
21 74 15 32 40 86 57 120 17 34 58 94 92 132 33 38 77 89 97 113 19 24 48 67
64 96 16 29 49 70 74 93 25 22 83 71 127 110 49 41 91 69 104 69 13 0 42 17
65 39 26 24 62 45 96 55 30 9 61 20 69 26 8 5 29 10 47 10 17 0 34 -4 37 -8z"/>
<path d="M14727 2906 c-32 -14 -73 -37 -90 -51 -18 -14 -54 -44 -80 -65 -27
-22 -52 -40 -57 -40 -5 0 -17 -15 -26 -32 -9 -18 -43 -61 -75 -95 -33 -34 -59
-68 -59 -75 0 -8 -14 -27 -31 -44 -17 -16 -46 -52 -64 -80 -19 -28 -50 -63
-69 -78 -24 -18 -37 -38 -42 -62 -4 -23 -18 -44 -41 -62 -19 -15 -44 -45 -55
-67 -11 -22 -46 -66 -77 -99 -31 -32 -89 -91 -130 -130 -40 -39 -77 -81 -82
-94 -5 -13 -23 -31 -41 -40 -17 -9 -49 -32 -70 -51 -22 -19 -45 -46 -52 -60
-7 -14 -16 -52 -19 -83 -4 -46 -13 -67 -46 -111 -24 -34 -62 -111 -98 -203
-39 -101 -57 -162 -57 -190 1 -26 11 -59 28 -88 16 -28 36 -48 51 -52 14 -3
59 -4 101 -2 l76 3 61 66 c34 36 84 80 110 98 27 18 116 100 197 182 82 82
154 149 160 149 6 0 32 -15 58 -34 26 -19 60 -45 75 -57 21 -16 47 -23 95 -27
37 -2 83 0 102 6 19 6 66 22 103 35 38 14 78 33 90 44 12 10 47 35 78 55 30
20 80 48 110 63 30 15 68 39 84 52 17 13 49 39 73 58 23 19 52 37 63 40 13 5
27 1 37 -9 13 -13 14 -24 4 -75 -9 -53 -8 -68 9 -115 10 -31 19 -63 19 -71 0
-9 9 -33 19 -53 11 -22 35 -46 59 -60 31 -17 56 -22 114 -22 72 0 75 1 105 35
18 19 41 35 53 35 11 0 38 11 58 25 20 14 40 25 45 25 4 0 68 36 142 81 95 58
137 89 144 108 6 14 17 35 25 46 9 11 12 26 8 32 -6 10 -29 4 -90 -22 -44 -19
-116 -54 -159 -79 -43 -24 -114 -59 -158 -76 -44 -17 -94 -40 -112 -51 -21
-13 -40 -18 -58 -13 -14 3 -33 17 -42 30 -10 17 -13 35 -9 61 4 21 10 70 15
108 4 39 15 86 24 105 9 19 30 69 48 110 18 41 48 94 67 118 19 23 43 42 52
42 10 0 32 12 50 26 17 15 37 38 44 53 7 14 16 60 20 101 4 41 14 86 23 100 9
14 32 45 52 69 20 24 61 69 91 100 30 31 60 64 65 74 9 17 14 17 56 6 33 -9
57 -10 80 -3 20 6 43 23 56 43 13 19 23 48 23 66 0 18 -9 44 -21 59 -14 18
-30 26 -52 26 -18 0 -51 -11 -74 -24 -23 -13 -55 -27 -70 -30 -16 -4 -53 -24
-83 -46 -30 -21 -79 -55 -108 -75 -29 -20 -66 -56 -82 -78 -16 -23 -38 -54
-49 -68 -10 -14 -34 -54 -52 -90 -18 -35 -45 -78 -60 -96 -15 -18 -40 -54 -55
-80 -15 -26 -35 -57 -44 -68 -10 -11 -32 -49 -51 -83 -18 -35 -42 -70 -53 -78
-12 -8 -48 -34 -81 -57 -33 -24 -75 -49 -92 -56 -18 -8 -33 -20 -33 -28 0 -7
-19 -22 -43 -32 -23 -10 -48 -25 -54 -33 -7 -8 -54 -34 -105 -57 -51 -23 -104
-48 -118 -55 -14 -7 -49 -28 -79 -47 -44 -28 -65 -34 -121 -37 -59 -4 -71 -1
-89 17 -13 13 -21 34 -21 56 0 20 11 64 25 98 14 34 35 80 47 102 11 22 29 49
39 60 10 11 27 40 37 65 12 27 57 84 112 140 51 52 101 113 112 135 11 22 35
63 54 90 23 34 38 70 44 109 5 32 20 77 33 100 13 22 32 65 42 95 14 42 15 58
6 77 -6 14 -11 71 -11 128 0 95 -2 104 -24 125 -13 13 -41 25 -63 27 -26 3
-56 -4 -96 -20z m-87 -270 c0 -7 -12 -30 -27 -51 -16 -21 -46 -57 -68 -79 -23
-23 -56 -60 -74 -83 -18 -24 -37 -43 -42 -43 -5 0 -9 7 -9 15 0 8 19 39 43 69
23 29 50 66 60 82 9 16 29 45 43 64 14 19 33 38 42 41 9 4 20 5 25 2 4 -2 7
-10 7 -17z m-290 -538 c0 -18 -12 -58 -26 -88 -14 -30 -43 -98 -64 -150 -21
-52 -51 -124 -65 -160 -18 -42 -41 -76 -68 -100 -22 -19 -60 -54 -84 -78 -23
-23 -63 -51 -88 -62 -32 -14 -50 -29 -62 -54 -10 -21 -27 -39 -44 -45 -15 -5
-54 -36 -86 -68 -32 -32 -67 -70 -76 -85 -9 -15 -31 -35 -48 -43 -24 -13 -34
-14 -45 -4 -8 6 -14 24 -14 39 0 15 5 42 11 61 7 19 18 42 26 51 8 9 22 30 31
46 10 16 26 44 37 62 11 19 39 52 61 75 30 29 46 57 58 99 15 50 30 72 95 140
43 45 117 120 165 169 48 48 104 96 124 106 21 11 44 31 52 46 8 15 27 38 43
51 16 13 37 24 48 24 15 0 19 -7 19 -32z"/>
<path d="M14530 2524 c0 -8 5 -12 10 -9 6 3 10 10 10 16 0 5 -4 9 -10 9 -5 0
-10 -7 -10 -16z"/>
<path d="M25255 2786 c-29 -13 -56 -34 -65 -50 -8 -15 -27 -34 -42 -42 -15 -8
-40 -33 -57 -57 -16 -24 -37 -49 -46 -57 -9 -8 -28 -37 -42 -64 -14 -28 -42
-69 -64 -91 -21 -22 -56 -71 -78 -110 -22 -38 -53 -98 -70 -132 -16 -34 -45
-83 -65 -109 -20 -26 -36 -53 -36 -61 0 -8 -12 -49 -26 -91 -14 -43 -33 -90
-42 -106 -11 -22 -16 -61 -16 -150 -1 -112 1 -125 27 -180 15 -32 42 -75 61
-96 18 -20 35 -43 38 -51 3 -9 28 -15 83 -17 43 -3 94 1 114 7 20 6 54 28 75
50 22 23 36 46 33 54 -4 10 -28 16 -82 19 -61 4 -81 9 -98 27 -20 20 -22 33
-24 144 -1 119 -1 124 33 198 19 42 34 85 34 96 0 11 11 52 25 92 13 40 38 94
55 120 17 25 45 75 62 111 17 36 41 74 54 85 12 11 46 63 73 116 28 52 63 106
77 120 14 13 30 34 35 46 4 12 26 34 48 48 22 13 47 38 56 54 8 17 15 37 15
46 0 8 -9 24 -20 35 -11 11 -32 20 -47 20 -16 0 -50 -11 -78 -24z"/>
<path d="M9820 2284 c0 -17 -8 -38 -18 -47 -10 -10 -24 -17 -30 -17 -6 0 -26
-13 -44 -29 -18 -15 -50 -36 -71 -46 -21 -10 -59 -38 -83 -63 -25 -25 -59 -73
-75 -107 -16 -34 -37 -69 -46 -77 -10 -9 -34 -21 -54 -27 -19 -6 -51 -27 -69
-46 -19 -19 -41 -35 -50 -35 -10 0 -31 -5 -47 -11 -21 -7 -35 -21 -45 -48 -12
-31 -23 -41 -54 -51 -23 -8 -67 -39 -109 -79 -38 -36 -80 -82 -92 -101 -13
-19 -23 -41 -23 -49 0 -10 11 -12 48 -6 26 3 61 16 78 28 18 12 58 41 91 64
32 22 71 60 86 82 15 23 32 41 39 41 6 0 26 11 44 25 18 14 44 25 58 25 18 0
29 9 43 37 13 25 28 39 52 47 25 8 41 22 55 50 15 29 31 43 59 52 22 8 54 27
73 44 19 16 40 30 46 30 7 0 29 12 50 26 34 24 38 32 38 68 0 22 3 51 6 63 4
14 19 26 41 34 l35 11 -7 62 c-4 33 -11 65 -16 71 -5 5 -9 -3 -9 -21z"/>
<path d="M26997 2236 c-20 -8 -44 -20 -53 -27 -9 -7 -29 -36 -45 -64 -19 -33
-29 -64 -29 -91 0 -23 -7 -77 -15 -120 -8 -44 -22 -110 -31 -149 -13 -56 -14
-78 -5 -111 6 -23 20 -53 32 -68 11 -14 31 -26 43 -26 12 0 45 7 73 15 33 10
61 26 77 45 14 17 28 47 32 68 3 20 16 80 29 132 13 52 33 149 45 216 12 67
18 132 14 147 -3 15 -14 32 -24 37 -10 6 -38 10 -62 10 -24 -1 -60 -7 -81 -14z"/>
<path d="M8714 1386 c-17 -8 -50 -17 -73 -21 -28 -5 -47 -15 -58 -31 -11 -17
-13 -35 -8 -61 4 -21 14 -46 22 -55 14 -16 18 -16 52 2 21 10 53 36 73 58 19
21 37 44 39 50 2 7 26 16 52 21 27 5 53 13 59 19 6 6 7 15 4 21 -4 6 -35 11
-69 11 -34 -1 -76 -7 -93 -14z"/>
</g>
</svg>
