<?xml version="1.0" encoding="UTF-8"?>
<svg version="1.1" xmlns="http://www.w3.org/2000/svg" width="100" height="69" >
<path d="M16.452,24.974c-1.907-0.1-2.953,2.784-3.539,4.085c-1.154,2.565-2.121,5.136-3.543,7.58 c-0.495,0.853-1.044,1.673-1.664,2.438c-0.676,0.836,0.078,0.342,0.028,0.087c-0.103-0.521,0.075-1.195,0.159-1.707 c0.092-0.562-1.368-0.307-1.448,0.184c-0.123,0.746-0.624,2.621,0.65,2.647c1.114,0.023,1.89-1.064,2.478-1.851 c1.432-1.917,2.496-4.145,3.473-6.317c0.725-1.612,1.265-3.284,2.097-4.85c0.197-0.371,0.433-0.717,0.677-1.057 c0.383-0.533,0.672-0.391,0.066-0.423C16.433,25.819,17.432,25.026,16.452,24.974L16.452,24.974 M17.455,24.178c-3.074,6.914-5.838,13.737-8.259,20.913c-1.125,3.335-2.373,6.628-3.72,9.879 c-0.337,0.813-3.298,8.26-4.211,8.134c-0.341-0.047-1.578,0.505-1.191,0.559c4.311,0.596,6.641-8.445,7.726-11.141 c3.837-9.527,6.901-19.193,11.084-28.6C18.987,23.689,17.619,23.81,17.455,24.178L17.455,24.178 M25.075,21.38c-1.953,1.633-3.492,3.817-4.842,5.95c-2.139,3.38-5.013,8.971-4.588,13.113 c0.515,5.019,8.84-5.468,9.42-6.246c1.919-2.576,3.992-5.394,5.121-8.43c0.419-1.127,1.546-5.538-1.068-5.211 c-3.875,0.485-6.549,6.454-8.064,9.365c-1.101,2.116-2.628,5.321-2.109,7.822c0.124,0.593,1.576,0.223,1.449-0.389 c-0.25-1.204,0.209-2.615,0.542-3.75c1.146-3.911,4.08-10.014,7.728-12.044c0.927-0.516,0.524,2.708,0.474,2.965 c-0.229,1.159-0.752,2.208-1.306,3.237c-1.191,2.218-2.65,4.303-4.135,6.331c-1.432,1.958-2.98,3.86-4.731,5.544 c-3.063,2.943-1.45-2.379-1.016-3.952c1.384-5.027,4.234-10.556,8.314-13.968C26.931,21.161,25.498,21.027,25.075,21.38 L25.075,21.38 M18.725,57.12c2.259-4.528,4.417-9.11,6.464-13.738c2.732-6.176,4.25-13.506,7.985-19.161 c0.357-0.541-1.096-0.384-1.344-0.009c-3.537,5.356-5.063,12.263-7.555,18.139c-2.149,5.064-4.54,10.04-6.996,14.963 C17.083,57.708,18.504,57.564,18.725,57.12L18.725,57.12 M35.423,22.358c0.262-0.273,1.813-1.843,2.121-1.262c0.412,0.782-0.033,2.132-0.219,2.925 c-0.719,3.067-2.563,7.467-5.5,9.022c-0.602,0.319-0.083-1.614-0.095-1.576c0.202-0.681,0.639-1.331,1-1.936 c0.625-1.047,1.331-2.045,1.979-3.078c0.585-0.933,1.849-2.767,0.533-3.605c-0.432-0.275-1.76,0.342-1.145,0.734 c1.109,0.707-1.435,3.883-1.874,4.551c-0.923,1.406-2.194,3.072-2.173,4.836c0.011,0.912,0.908,1.057,1.626,0.96 c1.629-0.221,2.897-1.833,3.838-3.016c1.816-2.283,4.349-7.163,3.478-10.206c-0.631-2.203-4.091,0.684-4.743,1.366 C33.647,22.702,35.064,22.733,35.423,22.358L35.423,22.358 M40.412,27c2.307-0.69,4.628-2.129,5.648-4.38c0.376-0.831,0.861-3.291-0.511-3.447c-1.373-0.156-2.47,1.342-3.202,2.252 c-1.21,1.504-5.928,7.444-2.125,8.557c2.551,0.747,4.79-1.62,5.332-3.877c0.101-0.42-1.338-0.191-1.438,0.224 c-0.098,0.409-0.256,0.799-0.427,1.182c-0.558,1.244-2.652,2.896-3.319,0.872c-0.699-2.125,1.635-4.81,2.78-6.328 c0.338-0.447,0.686-0.884,1.045-1.313c0.161-0.189,0.329-0.372,0.502-0.549c0.498-0.307,0.502-0.412,0.012-0.315 c0.969,0.591-0.126,3.174-0.557,3.838c-0.837,1.293-2.631,2.34-3.894,2.718C39.417,26.684,39.56,27.255,40.412,27L40.412,27 M49.111,19.41c0.18,0.418-0.024,1.042-0.114,1.452c-0.578,2.63-2.18,5.139-3.525,7.421 c-0.429,0.728,1.048,0.766,1.395,0.199c1.403-2.296,2.89-4.548,4.48-6.719c0.491-0.669,1.009-1.317,1.553-1.943 c0.994-1.146,0.892-0.799,0.792,0.511c-0.128,1.679-0.845,3.924-1.901,5.279c0.408,0.158,0.816,0.316,1.225,0.474 c1.819-2.584,3.944-5.157,6.284-7.279c0.589-0.535,2.152-0.806,2.468-1.523c0.275-0.628-0.559-0.874-1.021-0.844 c-3.128,0.206-5.037,4.292-4.478,7.094c0.588,2.944,3.758-0.304,4.679-1.244c0.645-0.658-0.743-0.966-1.225-0.475 c-0.599,0.61-1.177,1.272-1.908,1.729c-0.133,0.083,0.083-2.325,0.09-2.371c0.163-1.062,0.563-1.946,1.208-2.782 c0.153-0.199,2.618-2.201,0.837-1.405c-0.609,0.272-1.12,0.673-1.627,1.103c-2.477,2.1-4.667,4.873-6.532,7.523 c-0.543,0.771,0.796,1.024,1.225,0.474c1.33-1.705,2.027-4.259,2.19-6.382c0.104-1.361-0.892-2.426-2.175-1.595 c-3.296,2.135-5.554,6.895-7.559,10.177c0.465,0.066,0.93,0.133,1.395,0.199c1.361-2.311,2.824-4.739,3.51-7.36 c0.154-0.586,0.446-1.49,0.184-2.101C50.268,18.343,48.829,18.753,49.111,19.41L49.111,19.41 M65.913,14.599c-2.423,1.369-3.059,5.334-3.46,7.738c-0.065,0.388,1.37,0.13,1.432-0.242 c0.329-1.969,0.788-3.929,1.719-5.709c0.248-0.473,0.552-0.916,0.914-1.308c0.073-0.079,0.5-0.392,0.241-0.246 C67.6,14.357,66.272,14.396,65.913,14.599L65.913,14.599 M65.084,20.67c0.69-0.758,6.235-6.703,5.32-7.237c-0.339-0.198-0.885,0.012-1.158,0.231 c-0.777,0.626-1.143,2.406-1.479,3.286c-0.434,1.13-1.278,2.71-1.155,3.96c0.048,0.484,1.504,0.166,1.449-0.389 c-0.105-1.064,0.699-2.535,1.061-3.501c0.281-0.753,0.815-2.733,1.288-3.113c-0.386,0.077-0.771,0.154-1.157,0.23 c-0.262-0.153-0.146-0.071-0.336,0.25c-0.165,0.28-0.362,0.542-0.555,0.803c-0.577,0.785-1.209,1.532-1.838,2.276 c-0.849,1.003-1.718,1.99-2.602,2.962C63.346,21.061,64.759,21.028,65.084,20.67L65.084,20.67 M73.464,17.306c1.17-0.933,2.258-1.965,3.194-3.134c0.509-0.636,1.735-3.534-0.264-2.938 c-0.838,0.25-1.344,0.946-1.877,1.6c-0.828,1.017-1.795,1.976-2.485,3.095c-1.213,1.966,0.739,3.103,2.369,3.714 c0.511,0.191,1.697-0.545,0.869-0.855c-1.505-0.564-2.731-1.394-1.728-3.021c0.438-0.709,1.086-1.31,1.612-1.953 c0.268-0.325,0.528-0.655,0.794-0.981c0.146-0.18,0.299-0.355,0.455-0.526c0.357-0.272,0.245-0.327-0.338-0.164 c0.395,0.997-1.093,2.356-1.675,2.961c-0.378,0.393-0.782,0.762-1.189,1.125c-0.145,0.129-0.746,0.632-0.66,0.563 C71.773,17.406,72.978,17.693,73.464,17.306L73.464,17.306 M79.507,13.217c1.235-1.284,2.814-1.797,4.071-2.984c1.614-1.524,2.906-3.465,4.134-5.299 c0.583-0.871,3.654-5.708,0.369-4.828c-2.986,0.8-5.932,5.85-6.135,8.708c-0.34,4.785,4.445,2.146,6.133,0.668 c-0.416-0.034-0.831-0.068-1.247-0.102c-2.403,2.698-3.103,8.122,1.78,5.693c-0.389-0.031-0.777-0.062-1.166-0.093 c-1.122,3.041,3.275,1.694,2.087,4.605c-2.049,5.017-3.205,10.33-5.305,15.347C78.921,47.615,71.155,58.771,60.76,67.783 c-0.621,0.539,0.822,0.485,1.152,0.199c9.831-8.523,17.053-18.828,22.571-30.57c2.541-5.405,4.028-11.036,5.973-16.65 c0.298-0.86,1.467-2.682,1.214-3.628c-0.333-1.243-3.729,0.225-2.778-2.35c0.187-0.506-1.034-0.159-1.166-0.093 c-3.192,1.588-0.438-4.312,0.448-5.307c0.421-0.472-1.003-0.314-1.247-0.102c-3.679,3.223-3.7-0.494-3.299-2.026 c0.396-1.511,1.451-2.876,2.357-4.122c3.328-4.575,1.05,0.803-0.188,2.652c-2.228,3.327-4.998,4.689-7.632,7.428 C77.759,13.637,79.205,13.531,79.507,13.217L79.507,13.217 M27.317,18.954c2.438-1.09,4.921-2.154,7.479-2.932c0.877-0.266,0.632-1.216-0.254-0.946 c-2.686,0.816-5.294,1.924-7.855,3.068C25.778,18.551,26.591,19.279,27.317,18.954L27.317,18.954 M91.792,10.524c1.694-0.688,3.856-0.18,5.678-0.558c0.689-0.144,2.524-0.709,1.924-1.778 c-0.281-0.5-1.68-0.021-1.449,0.389c0.526,0.936-3.433,0.755-4.096,0.806c-0.872,0.067-1.816,0.193-2.635,0.525 C90.277,10.288,91.132,10.792,91.792,10.524L91.792,10.524z"/>
</svg>