<?xml version="1.0" encoding="UTF-8"?>
<svg version="1.1" xmlns="http://www.w3.org/2000/svg" width="112" height="60" >
<path fill="#231F20" d="M34.927,4.6c-3.101,4.222-6.656,8.164-10.611,11.598c-4.596,3.99-9.16,4.418-14.73,2.265 c-1.771-0.684-3.382-1.685-4.816-2.915c-5.025-4.312,5.29-6.33,9.054-5.82c7.621,1.032,9.672,7.557,12.267,13.522 c1.308,3.008,3.855,2.803,5.502,0.199c0.107-0.169-1.608-0.104-1.9,0.358c-0.743,1.174-0.594,0.839-1.324-0.379 c-0.431-0.719-0.715-1.551-1.023-2.326c-0.805-2.022-1.458-4.084-2.492-6.007c-1.564-2.909-5.293-4.846-8.278-5.817 c-2.65-0.862-19.271,0.761-14.23,6.255c4.728,5.154,13.13,6.812,19.284,3.627C27.738,16,32.813,9.709,36.828,4.242 C36.923,4.112,35.257,4.151,34.927,4.6L34.927,4.6 M36.164,21.656c0.662,0.073,1.323,0.146,1.985,0.219c0.447,0.049,0.999-0.111,1.366-0.366 c0.318-0.22,0.238-0.449-0.131-0.49c-0.662-0.073-1.323-0.146-1.985-0.219c-0.447-0.049-0.999,0.111-1.366,0.366 C35.714,21.386,35.794,21.615,36.164,21.656L36.164,21.656 M52.855,8.085c0.164,0.201-0.339,2.218-0.49,2.783c-1.45,5.436-3.917,10.659-6.201,15.772 c-0.403,0.903,1.532,0.713,1.812,0.088c2.388-5.348,4.917-10.791,6.431-16.468c0.173-0.647,0.771-2.3,0.235-2.955 C54.187,6.748,52.331,7.445,52.855,8.085L52.855,8.085 M41.563,7.723c2.989-0.181,5.983-0.28,8.978-0.335c2.262-0.042,11.012-1.088,12.612,1.163 c0.49,0.689,2.337-0.043,1.772-0.838c-1.717-2.415-8.139-1.694-10.574-1.707c-4.202-0.021-8.409,0.099-12.604,0.352 C40.674,6.422,40.242,7.802,41.563,7.723L41.563,7.723 M54.399,20.397c1.483-0.984,4.407-2.347,4.332,0.778c-0.024,0.985,0.084,1.532,0.792,2.191 c0.745,0.694,2.605,0.305,3.385,0.186c2.079-0.315,0.946,1.052,2.19,1.448c4.122,1.311,6.31-5.916,1.278-4.699 c-0.988,0.239-1.021,1.577,0.115,1.457c3.675-0.389,7.647-1.533,10.736-3.597c1.961-1.31,8.173-7.299,5.735-10.247 c-0.255-0.307-0.699-0.382-1.071-0.269c-1.992,0.607-2.895,4.83-3.541,6.451c-1.296,3.252-2.508,6.54-3.689,9.835 c-0.367,1.025,1.299,1.09,1.747,0.45c2.555-3.652,8.057-1.53,9.861-6.295c-0.637-0.024-1.274-0.048-1.911-0.072 c-0.09,0.876-0.199,1.75-0.313,2.624c-0.165,1.266-1.976,7.193,0.735,3.498c0.815-1.112,2.956-2.338,4.065-3.263 c2.736-2.281,1.782,1.202,0.798,3.059c-0.519,0.979,1.294,1.021,1.746,0.45c1.488-1.879,4.733-4.783,5.052-7.237 c0.123-0.956-1.423-0.748-1.799-0.255c-0.793,1.039-3.351,6.002-1.607,7.092c0.871,0.544,1.726,0.448,2.672,0.041 c0.752-0.323,5.844-3.031,4.922-0.844c-0.257,0.609-0.156,1.255,0.222,1.783c1.732,2.418,5.148,1.522,6.413,4.971 c1.489,4.062-4.112,9.699-6.475,12.625c-3.066,3.798-9.275,8.947-9.934,14.091c-0.133,1.036,1.845,0.805,1.963-0.123 c0.422-3.289,4.163-6.723,6.168-9.165c2.932-3.57,5.992-7.065,8.47-10.976c1.758-2.773,2.646-5.894,0.852-8.815 c-0.504-0.821-1.556-1.556-2.39-1.96c-2.382-1.158-2.966-2.167-2.517-4.622c0.057-0.307-0.202-0.499-0.433-0.621 c-1.452-0.769-3.425,0.425-4.771,0.977c-2.151,0.882-4.092,1.559-3.084-1.315c0.284-0.81,0.635-1.813,1.163-2.505 c-0.6-0.085-1.199-0.17-1.799-0.255c-0.262,2.021-3.461,4.889-4.721,6.48c0.582,0.15,1.164,0.3,1.746,0.45 c7.73-14.588-12.987,0.939-8.47,2.598c0.387,0.142,0.883,0.065,1.2-0.203c2.005-1.694,1.844-6.309,2.087-8.701 c0.103-1.003-1.64-0.789-1.911-0.072c-1.282,3.388-7.327,2.629-9.635,5.929c0.582,0.15,1.165,0.3,1.747,0.45 c1.717-4.791,3.417-9.638,5.557-14.259c0.848-1.83-0.807-1.44-1.025-0.021c-0.545,3.529-2.797,5.911-5.764,7.649 c-2.544,1.491-5.713,2.381-8.648,2.691c0.039,0.485,0.077,0.971,0.115,1.457c-3.115,0.753,1.378,2.129-0.68,0.617 c-0.348-0.255-0.77-0.455-1.207-0.449c-0.903,0.013-4.136,1.052-4.175-0.831c-0.02-0.948,0.33-2.416-0.287-3.276 c-1.586-2.215-5.856,0.698-7.31,1.663C52.008,20.162,53.574,20.945,54.399,20.397L54.399,20.397 M92.255,10.374c0.035-0.024,0.073-0.045,0.11-0.065c-0.271,0.147-0.115,0.06-0.046,0.032 c-0.338,0.135,0.111,0.02-0.233,0.068c-0.206,0.029-0.338-0.103-0.17,0.078c0.168,0.182,0.191,0.511,0.221,0.741 c0.081,0.637,2.023,0.199,1.932-0.518c-0.105-0.83-0.502-1.301-1.348-1.372c-0.543-0.045-1.211,0.175-1.661,0.478 c-0.24,0.163-0.601,0.542-0.172,0.742C91.287,10.744,91.902,10.611,92.255,10.374L92.255,10.374z"/>
</svg>