<?xml version="1.0" encoding="UTF-8"?>
<svg version="1.0" xmlns="http://www.w3.org/2000/svg" width="708" height="171" >
<path d="M97.782,24.403c0.412,4.459,0.713,8.937,0.811,13.414c0.027,1.256,0.014,2.513-0.047,3.768 c-0.021,0.446-0.062,0.889-0.137,1.329c-0.244,1.422-0.131-1.762,1.975,0.059c-2.087-1.806-2.339-7.026-3.358-9.543 c-4.508-11.134-15.721-8.837-23.861-3.163c-17.44,12.158-28.971,33.562-38.241,52.041c-9.619,19.176-18.11,39.61-22.858,60.599 c-0.321,1.42-0.609,2.848-0.898,4.274c-0.078,0.387-0.158,0.773-0.248,1.158c-0.331,1.414,3.274,1.132,3.03,0.312 c-0.723-2.426-0.855-5.135-1.363-7.616c-1.672-8.169-2.592-15.359,1.758-22.944c3.165-5.518,10.972-11.498,17.113-6.648 c5.446,4.3,4.019,12.748,9.749,17.066c4.564,3.439,10.341,3.275,15.694,2.193c6.443-1.302,12.615-4.376,18.254-7.657 c3.534-2.056,7.827-4.458,10.47-7.676c-0.916-0.707-1.832-1.414-2.749-2.121c-2.898,5.378-6.897,13.821-4.403,19.934 c1.957,4.795,7.434,4.668,11.734,3.722c13.19-2.903,25.627-12.14,36.551-19.536c-0.798-0.798-1.596-1.596-2.395-2.395 c-3.833,6.383-13.049,20.919-6.97,28.003c0.667,0.777,1.781,0.564,2.475,0c5.364-4.361,7.551-11.973,8.415-18.491 c-1.146,0.155-2.292,0.311-3.438,0.465c0.873,4.583,3.676,9.783,8.518,10.962c4.604,1.12,9.067-2.068,12.35-4.872 c8.496-7.259,14.533-17.782,20.096-27.279c3.047-5.202,7.698-11.654,8.6-17.812c0.496-3.389-2.637-3.55-4.625-1.693 c-7.742,7.226-12.732,20.628-13.982,30.842c-0.78,6.37-0.073,12.873,3.645,18.266c2.282,3.31,3.958,6.375,8.213,7.61 c8.332,2.417,17.05-6.606,21.595-12.29c1.702-2.128,3.967-7.854-1.172-6.805c-3.856,0.788-7.101,5.604-7.574,9.237 c-0.889,6.823,5.684,11.732,11.391,13.798c12.211,4.42,15.56-13.154,16.033-21.41c0.014-0.248,0.025-0.496,0.031-0.745 c0.059-2.313-3.237-2.175-3.5,0c-0.756,6.251-1.696,14.247,0.933,20.151c5.854,13.153,21.089-15.454,22.743-18.405 c1.104-1.971-1.919-3.734-3.022-1.766c-3.654,6.52-7.439,13.948-13.201,18.905c-2.772,2.386-3.568-0.217-4.076-2.796 c-1.016-5.16-0.504-10.897,0.124-16.09c-1.167,0-2.333,0-3.5,0c-0.111,4.328-0.883,8.711-2.356,12.78 c-1.01,2.791-2.77,5.581-5.792,6.355c-4.172,1.069-9.629-3.32-11.62-6.568c-1.544-2.521-0.634-5.505,1.102-7.636 c0.648-0.796,1.435-1.465,2.298-2.014c1.428-0.907,0.168-1.925-0.444-0.783c-3.416,6.368-15.436,17.576-22.556,10.637 c-8.889-8.662-6.39-23.228-1.849-33.929c2.094-4.934,4.744-10.01,8.27-14.088c0.356-0.413,0.753-0.871,1.202-1.179 c-0.573,0.394-1.47-2.005-1.868-0.425c-0.741,2.948-2.39,5.755-3.787,8.424c-5.161,9.863-11.037,19.637-18.108,28.252 c-3.202,3.901-8.017,9.714-13.542,10.028c-4.292,0.244-6.527-5.096-7.193-8.594c-0.404-2.124-3.202-1.311-3.438,0.465 c-0.75,5.651-2.757,12.249-7.39,16.017c0.825,0,1.65,0,2.475,0c-2.958-3.446,1.449-11.787,2.948-15.076 c1.354-2.97,2.888-5.886,4.569-8.686c0.873-1.453-0.911-3.399-2.395-2.395c-3.457,2.341-40.571,28.726-43.526,16.718 c-1.238-5.028,2.096-11.709,4.434-16.048c0.906-1.682-1.44-3.713-2.749-2.121c-3.587,4.366-9.842,7.352-14.76,9.85 c-6.593,3.35-16.167,7.4-23.469,4.004c-4.187-1.947-5.042-6.372-6.316-10.333c-1.135-3.531-3.254-6.623-6.348-8.68 c-5.606-3.728-12.643-0.455-16.988,3.575c-6.354,5.892-8.631,15.205-7.553,23.553c0.599,4.64,1.939,9.231,2.693,13.866 c0.367,2.252,3.058,3.477,3.846,0.695c1.088-3.841,1.671-7.852,2.694-11.72c6.074-22.969,15.977-45.35,27.563-66.024 c5.666-10.11,12.112-19.887,19.813-28.569c4.766-5.373,10.459-10.955,17.311-13.527c4.273-1.604,8.486-0.95,11.072,3.019 c2.035,3.123,2.178,12.373,6.29,13.504c5.316,1.462,2.54-18.945,2.285-21.702C101.076,22.175,97.574,22.155,97.782,24.403 L97.782,24.403z"/>
<path d="M168.483,71.031c-3.549-1.415-9.09-3.232-11.419-6.409c0.175,0.238,2.964-0.376,4.294-0.473 c2.726-0.199,5.468-0.021,8.196,0c5.372,0.039,10.75-0.531,16.078-1.149c25.969-3.014,51.716-8.5,77.981-5.562 c9.39,1.05,21.507,2.635,28.014,10.309c4.095,4.829,4.684,11.752,4.271,17.792c-0.742,10.885-5.331,23.828-12.665,32.087 c-0.513,0.578-1.183,1.381-1.925,1.676c0.195-0.078,0.385,0.711,0.283-0.48c-0.446-5.199,2.041-11.23,3.667-15.973 C290.382,87.907,300,71.483,314.172,63.51c3.804-2.14,9.029-3.637,12.664-0.417c5.061,4.485,4.316,13.553,1.744,19.042 c-3.771,8.05-12.498,14.156-20.523,17.543c0.588,1.008,1.178,2.015,1.766,3.022c6.822-5.022,13.89-10.034,21.453-13.878 c1.316-0.668,2.979-1.61,4.488-1.587c-0.74-0.012-0.525-1.117-0.766-0.232c-0.275,1.011-0.91,1.948-1.451,2.832 c-6.967,11.388-17.395,21.208-26.501,30.823c-1.551,1.637,0.92,4.116,2.475,2.475c9.515-10.046,20.5-20.354,27.574-32.404 c2.105-3.585,1.768-8.12-3.449-6.666c-9.193,2.563-18.002,10.031-25.587,15.616c-1.842,1.356-0.306,3.896,1.766,3.022 c10.781-4.55,22.14-13.759,24.009-25.892c0.955-6.198-0.846-13.975-6.352-17.595c-4.861-3.198-11.309-0.843-15.846,1.709 c-17.286,9.724-27.893,31.658-32.456,50.069c-0.772,3.118-2.291,8.183,0.029,11.012c1.931,2.354,5.139-0.436,6.501-1.902 c7.286-7.843,11.478-19.923,13.178-30.271c1.946-11.854-0.653-24.515-12.214-30.293c-10.196-5.095-23.248-6.022-34.449-6.432 c-13.484-0.494-26.992,0.997-40.336,2.779c-11.747,1.568-23.452,3.609-35.279,4.494c-5.088,0.38-10.162,0.054-15.25,0.271 c-2.064,0.088-6.333,0.189-7.45,2.47c-2.722,5.557,10.09,9.87,13.645,11.287C169.651,75.242,170.553,71.856,168.483,71.031 L168.483,71.031z"/>
<path d="M381.666,89.507c-1.861,6.004-3.697,12.016-5.514,18.034c-1.236,4.099-2.459,8.202-3.641,12.317 c-0.48,1.67-1.98,4.59-1.455,6.4c1.096,3.764,4.045-0.628,4.75-1.908c2.51-4.568,4.814-9.255,7.188-13.896 c7.518-14.702,15.109-29.389,23.523-43.604c3.65-6.165,7.445-12.34,11.928-17.941c2.682-3.35,5.59-6.304,9.914-7.257 c6.059-1.334,1.77,9.708,0.932,11.875c-5.936,15.347-16.801,29.235-26.762,42.109c-1.363,1.761,1.094,4.258,2.475,2.475 c7.824-10.111,15.371-20.476,21.744-31.574c3.387-5.896,6.84-12.396,8.006-19.174c1.533-8.907-5.191-10.832-12.115-7.215 c-4.01,2.095-6.961,6.518-9.551,10.062c-4.461,6.102-8.332,12.644-12.111,19.181c-8.1,14.011-15.455,28.442-22.82,42.849 c-1.709,3.344-3.404,6.698-5.188,10.004c-0.416,0.771-0.836,1.543-1.309,2.279c-0.113,0.174,2.846,1.281,2.844,1.287 c0.268-1.123,0.596-2.234,0.906-3.346c2.998-10.734,6.33-21.381,9.631-32.026C385.71,88.276,382.332,87.359,381.666,89.507 L381.666,89.507z"/>
<path d="M398.962,115.875c6.09,10.295,22.818,7.034,31.74,4.159c5.016-1.617,9.893-3.866,14.555-6.314 c1.648-0.866,4.02-1.941,5.055-3.607c2.018-3.248-2.586-3.41-4.473-2.807c-3.107,0.994-6.313,3.004-7.502,6.167 c-1.811,4.823,4.691,8.133,8.039,9.583c7.848,3.396,17.855,5.987,26.27,3.188c5.309-1.766,8.494-6.182,12.359-9.893 c1.777-1.708,3.871-2.827,6.344-3.06c-0.295-1.087-0.588-2.174-0.883-3.261c-5.693,2.618-17.494,9.362-12.48,17.06 c5.645,8.669,12.77-5.495,14.393-9.907c0.682-1.854-2.414-3.166-3.199-1.349c-1.617,3.742-3.4,9.464-0.549,13.013 c2.359,2.937,6.674,2.147,9.799,1.202c9.51-2.875,18.16-9.539,26.07-15.271c-0.857-0.659-1.715-1.318-2.57-1.977 c-1.113,5.459-0.434,12.063,3.66,16.153c3.746,3.744,9.482,3.766,14.357,3.046c12.146-1.793,23.771-9.122,33.941-15.498 c-0.857-0.349-1.715-0.697-2.57-1.046c0.48,2.936,0.631,5.952,0.527,8.921c-0.068,1.939-0.326,3.986-1.324,5.684 c-1.604,2.724-6.242-1.466-7.475-2.503c-0.566,0.975-1.135,1.95-1.701,2.925c17.346,5.237,38.594,3.983,53.371-7.079 c1.539-1.15,0.691-3.689-1.348-3.198c-4.336,1.045-9.021,3.04-11.939,6.511c-3.74,4.448-1.115,11.454,3.947,13.589 c8.346,3.52,13.527-17.343,14.754-22.261c-1.125,0-2.25,0-3.375,0c1.492,4.33,4.275,8.6,8.445,10.705 c3.215,1.622,6.484,0.694,9.617-0.562c7.508-3.011,6.727,3.89,4.986,8.771c1.125,0.31,2.25,0.62,3.375,0.93 c1.049-2.947,2.904-5.963,5.521-7.729c3.494-2.356,7.152,0.595,9.59,3.01c3.039,3.008,5.766,6.167,9.041,8.954 c8.701,7.405,18.885,13.577,29.25,18.378c2.033,0.942,3.813-2.074,1.766-3.021c-13.324-6.173-26.799-14.513-36.523-25.609 c-4.02-4.587-9.764-8.19-15.5-4.32c-3.131,2.111-5.277,5.915-6.52,9.408c-0.76,2.132,2.623,3.04,3.375,0.93 c2.145-6.014,2.523-14.981-6.328-13.837c-5.266,0.681-8.545,3.929-13.059-0.686c-1.635-1.671-2.9-4.043-3.662-6.252 c-0.539-1.563-2.932-1.772-3.375,0c-1.58,6.332-3.598,14.298-8.303,19.036c-1.771,1.783-3.188,0.185-4.311-1.425 c-1.912-2.74-0.869-5.207,1.396-7.191c2.338-2.05,5.771-3.231,8.76-3.952c-0.449-1.066-0.898-2.133-1.348-3.198 c-14.08,10.539-34.139,11.719-50.676,6.726c-1.613-0.487-3.068,1.775-1.703,2.925c4.701,3.958,11.52,7.066,14.043-0.654 c1.496-4.584,0.842-10.173,0.078-14.853c-0.182-1.111-1.686-1.602-2.57-1.046c-9.293,5.825-19.051,11.582-29.729,14.434 c-4.523,1.209-10.547,2.026-14.33-1.435c-3.303-3.022-3.527-8.991-2.76-12.748c0.275-1.349-1.217-2.958-2.57-1.977 c-7.232,5.241-14.738,10.676-23.037,14.123c-1.857,0.771-6.881,2.963-8.48,0.608c-1.033-1.519-0.455-3.953-0.064-5.587 c0.197-0.823,0.453-1.633,0.73-2.432c0.086-0.245,0.645-1.618,0.318-0.867c-1.064-0.45-2.131-0.899-3.197-1.349 c-0.643,1.746-1.453,3.422-2.33,5.061c-1.094,2.042-6.043,8.149-6.432,2.012c-0.289-4.567,8.549-8.688,11.99-10.272 c1.559-0.716,0.82-3.421-0.883-3.261c-9.139,0.86-12.168,10.594-20.377,13.324c-7.467,2.483-16.887-0.512-23.764-3.487 c-2.857-1.237-7.633-3.722-4.209-6.869c0.859-0.79,2.006-1.385,3.08-1.826c0.531-0.218,1.082-0.384,1.637-0.525 c2.133-0.54-2.768,0.78-0.289-2.25c-1.098,1.343-3.221,2.163-4.705,2.943c-4.639,2.436-9.5,4.445-14.482,6.051 c-6.908,2.227-21.508,4.982-26.256-3.044C400.837,112.168,397.81,113.928,398.962,115.875L398.962,115.875z"/>
</svg>