<?xml version="1.0" encoding="UTF-8"?>
<svg version="1.0" xmlns="http://www.w3.org/2000/svg" width="302" height="169" >
<path fill="#231F20" d="M49.739,17.207c-1.196,1.185-3.64,4.673-0.89,5.8c2.468,1.011,5.033,0.002,7.131-1.425 c6.771-4.605-2.115-10.384-7.394-9.023C40.285,14.7,34.413,25.543,30.037,32.061c-3.13,4.663-18.345,22.68-24.072,15.685 c-0.223,0.052-0.446,0.104-0.669,0.156c0.536,0.04,1.07,0.098,1.602,0.175c1.109,0.139,2.211,0.333,3.317,0.497 c3.155,0.468,6.308,0.838,9.489,1.075c5.778,0.43,11.786-0.069,17.464-1.161c2.576-0.496,16.379-2.839,11.652-8.099 c-8.771-9.761-22.484,10.762-8.284,12.7c9.625,1.314,20.736-5.327,28.656-9.762c1.542-0.864-0.507-1.74-1.519-1.201 c-3.008,1.602-6.639,3.827-7.608,7.298c-0.424,1.519,1.147,3.511,2.661,3.598c2.87,0.164,4.999-1.4,7.232-3.052 c1.583-1.171,6.234-5.832,8.537-3.723c0.999,0.914,0.749,2.97,0.616,4.18c-0.064,0.579-0.419,1.494,0.095,1.964 c0.649,0.594,1.776,0.36,2.556,0.265c3.478-0.425,6.936-0.61,10.443-0.635c1.189-0.009,3.043-1.824,1.083-1.81 c-4.024,0.029-7.962,0.347-11.959,0.742c1.782-0.176,0.558-5.236-0.762-6.445c-2.234-2.046-6.21,0.078-8.252,1.261 c-1.497,0.868-2.839,2.116-4.2,3.175c-2.558,1.989-6.696,1.073-3.686-2.237c1.189-1.308,2.875-2.373,4.437-3.204 c-0.506-0.4-1.012-0.801-1.519-1.201c-7.282,4.078-17.95,10.628-26.765,8.795c-7.399-1.54-1.567-15.675,5.558-9.522 c3.094,2.672-5.19,4.354-6.72,4.722c-5.564,1.34-11.429,1.746-17.134,1.617c-4.805-0.108-9.563-0.963-14.309-1.646 c-1.387-0.199-3.571-0.568-4.724,0.549c-2.35,2.279,3.326,4.786,5.147,4.568c5.732-0.686,10.641-4.86,14.813-8.536 c5.597-4.93,9.519-10.797,13.791-16.82c2.83-3.988,5.954-7.983,10.001-10.8c2.866-1.995,8.392-1.227,8.413,3.229 c0.02,4.245-6.368,2.378-3.322-0.638C53.342,16.588,50.5,16.454,49.739,17.207L49.739,17.207z M94.188,35.485c0.103-1.713,0.206-3.426,0.309-5.139c0.062-1.023-2.831-0.402-2.881,0.426 c-0.103,1.713-0.206,3.426-0.309,5.139C91.246,36.934,94.139,36.313,94.188,35.485L94.188,35.485 M117.124,27.403c-0.121-1.195-0.723-3.382-0.185-4.491c-0.958,0.217-1.917,0.435-2.875,0.652 c2.426,3.978,8.221,5.076,11.067,8.851c1.801,2.39,2.126,6.309,6.202,5.844c5.537-0.631,9.06-5.028,12.248-9.221 c0.762-1.002,8.626-12.446,4.552-13.165c-7.965-1.406-16.002,10.859-20.039,16.012c-3.6,4.595-6.98,9.367-10.228,14.217 c-0.895,1.335-4.584,5.42-4.288,7.208c0.042,0.257,0.676,0.176,0.813,0.167c1.434-0.094,2.191-0.813,3.048-1.844 c2.667-3.208,5.171-6.557,7.717-9.861c2.963-3.845,5.918-7.696,8.908-11.521c1.801-2.306,3.81-5.907,6.265-7.58 c1.179-0.803-1.72-0.371-2.207-0.039c-2.523,1.719-4.438,5.001-6.288,7.351c-4.099,5.206-8.108,10.483-12.162,15.726 c-1.555,2.011-3.115,4.018-4.712,5.995c-1.938,2.398,1.341,0.98,2.189-0.506c2.373-4.157,5.198-8.091,7.964-11.99 c3.852-5.428,7.9-10.755,12.384-15.679c1.712-1.879,3.54-3.733,5.62-5.208c5.149-3.648,2.359,3.283,1.326,5.369 c-2.172,4.385-5.43,8.529-8.996,11.833c-3.94,3.651-6.135-0.441-7.168-3.378c-1.633-4.647-8.871-5.349-11.317-9.359 c-0.375-0.616-2.611,0.107-2.875,0.652c-0.595,1.225,0.008,3.424,0.141,4.739C114.277,28.683,117.198,28.137,117.124,27.403 L117.124,27.403 M140.052,46.775c-0.036-0.108-0.062-0.22-0.086-0.331c-0.023-0.104-0.04-0.21-0.055-0.315 c-0.007-0.049-0.026-0.296-0.011-0.032c-0.005-0.08-0.004-0.159-0.002-0.238c0.003-0.137,0.021-0.271,0.047-0.406 c0.051-0.268-0.088,0.204,0.011-0.05c0.03-0.078,0.072-0.149,0.115-0.22c-0.097,0.136-0.103,0.154-0.018,0.053 c-0.25,0.275,0.154-0.038-0.203,0.149c0.258-0.135-0.191,0.042-0.241,0.051c0.133-0.023,0.269-0.025,0.403-0.028 c0.616-0.014,1.511-0.455,1.605-1.137c0.102-0.74-0.789-0.903-1.324-0.891c-1.48,0.033-2.928,0.809-3.277,2.319 c-0.135,0.58-0.049,1.288,0.137,1.852C137.573,48.826,140.462,48.023,140.052,46.775L140.052,46.775 M180.814,22.005c-8.205,8.265-14.579,18.419-23.184,26.193c-0.863,0.78-1.786,1.489-2.76,2.124 c1.327,0.259,2.262-0.234,2.803-1.479c0.505-0.54,1.021-1.068,1.551-1.583c1.606-1.59,3.351-3.043,5.085-4.49 c4.598-3.834,9.426-7.4,14.299-10.874c3.774-2.69,7.61-5.338,11.622-7.666c0.519-0.301,1.048-0.577,1.592-0.827 c0.92-0.423-0.562-1.128-1.264-0.57c-1.43,1.136-2.887,2.224-4.281,3.405c-3.808,3.222-7.025,7.046-9.043,11.627 c-1.638,3.718-4.896,12.316-8.008,13.717c0.644,0.218,1.287,0.437,1.93,0.656c1.448-2.183,4.502-4.032,6.472-5.729 c3.686-3.176,7.362-6.362,11.001-9.592c3.027-2.687,6.029-5.409,8.894-8.27c0.676-0.675,3.736-3.247,3.397-4.369 c-0.258-0.853-1.878-0.365-2.353-0.059c-3.35,2.161-19.461,24.531-16.546,25.97c3.412,1.685,10.839-4.435,13.438-6.057 c2.886-1.802,5.74-3.653,8.619-5.464c1.226-0.771,2.461-1.524,3.714-2.249c1.82-1.052,0.278-1.37-0.602-0.272 c-3.395,4.23-7.976,8.225-9.997,13.361c-1.808,4.594,7.198,1.178,8.351,0.602c2.797-1.396,5.038-3.618,6.961-6.036 c1.211-1.521,1.974-3.315,2.626-5.125c0.38-1.055,1.51-5.229,0.691-6.06c1.353,1.374,2.719,4.52,3.271,6.285 c1.445,4.619-3.76,8.625-6.563,11.547c-0.581,0.605-0.108,1.057,0.606,1.091c1.527,0.074,2.571-1.391,3.557-2.323 c3.167-2.993,6.471-5.829,9.815-8.62c6.52-5.439,13.138-10.838,18.967-17.029c0.669-0.71,7.495-8.507,4.491-9.157 c-3.888-0.841-8.2,8.023-9.725,10.233c-5.515,7.991-11.092,16.109-15.985,24.5c-1.632,2.798,1.866,1.691,3.174,0.697 c4.706-3.583,9.448-6.886,13.952-10.761c0.505-0.433,1.013-0.861,1.526-1.284c0.227-0.183,0.453-0.365,0.68-0.548 c1.27-0.664,1.184-0.879-0.258-0.647c-0.347,1.733-1.704,3.591-2.563,5.129c-1.293,2.316-3.506,4.89-4.128,7.508 c-0.034,0.151,0.002,0.283,0.105,0.396c0.025,0.019,0.05,0.038,0.074,0.058c0.627,0.488,1.622,0.26,2.248-0.125 c3.059-1.882,5.098-6.022,7.124-8.852c0.946-1.321,1.948-2.572,3.059-3.763c1.797-1.928,4.221-0.602,4.125,1.874 c-0.132,3.383-2.865,6.226-4.355,9.092c-0.9,1.73,0.471,2.296,1.983,1.891c2.34-0.627,3.798-2.738,5.117-4.586 c1.037-1.452,2.158-2.844,3.298-4.216c0.725-0.872,1.495-1.688,2.294-2.49c0.765-0.766,0.294-0.971,0.343-0.067 c0.21,3.85-0.539,7.75,0.646,11.505c1.794,5.684,12.527-0.094,13.062-4.427c0.146-1.185-2.776-0.653-2.9,0.353 c-0.283,2.301-5.687,6.587-7.263,3.298c-0.904-1.887-0.709-4.603-0.703-6.609c0.004-1.186,0.929-6.167-0.831-6.618 c-4.216-1.081-8.694,6.526-10.647,9.189c-0.688,0.938-1.275,1.854-2.148,2.645c2.013-1.823,3.234-4.297,4.33-6.781 c1.411-3.199,0.897-6.396-2.711-7.172c-7.498-1.614-10.811,11.876-15.628,14.84c0.749-0.042,1.499-0.083,2.248-0.125 c0.014,0.011,6.173-10.804,6.724-12.298c1.017-2.759-3.711-0.471-4.361,0.026c-4.699,3.595-8.986,7.542-13.875,10.901 c-1.094,0.752-2.109,1.609-3.194,2.372c1.088,0.806,1.74,0.823,1.957,0.051c0.149-0.284,0.308-0.563,0.474-0.838 c0.781-1.339,1.648-2.632,2.487-3.936c5.091-7.907,10.177-15.83,15.608-23.51c0.84-1.188,1.709-2.356,2.596-3.51 c0.396-0.513,0.811-1.013,1.241-1.499c0.831-0.677,0.359-0.786-1.415-0.325c-0.271,2.639-2.944,5.252-4.604,7.083 c-4.906,5.41-10.669,10.089-16.256,14.768c-2.39,2.001-4.791,3.987-7.154,6.019c-1.54,1.325-3.038,2.698-4.53,4.076 c-0.517,0.48-1.031,0.963-1.543,1.449c-1.323,1.251-1.049,0.407,0.594,0.487c0.202,0.364,0.404,0.728,0.606,1.091 c3.771-3.93,9.121-8.384,6.563-14.367c-0.984-2.304-2.798-7.004-6.017-5.88c-1.807,0.63-2.137,2.383-2.469,4.089 c-1.106,5.698-2.766,9.779-7.727,13.288c-0.732,0.518-5.838,3.623-5.118,0.799c0.359-1.41,1.539-2.779,2.371-3.931 c1.804-2.499,3.871-4.814,5.874-7.152c1.015-1.184,4.229-4.97,0.214-3.784c-4.565,1.349-8.956,5.181-12.914,7.695 c-2.768,1.757-5.549,3.494-8.403,5.107c-1.382,0.78-3.54,2.483-2.069-0.264c0.995-1.86,2.213-3.618,3.297-5.428 c1.905-3.182,3.616-6.303,5.866-9.275c1.68-2.22,3.672-5.479,6.046-7.01c-0.784-0.02-1.568-0.04-2.353-0.06 c0.159,0.528-4.07,4.314-4.863,5.077c-3.146,3.026-6.43,5.911-9.706,8.793c-3.217,2.83-6.466,5.623-9.712,8.419 c-1.688,1.456-4.044,2.937-5.288,4.812c-0.71,1.069,1.501,0.849,1.929,0.656c6.047-2.722,8.034-12.123,10.73-17.332 c2.064-3.988,5.561-7.178,8.991-9.984c0.832-0.681,3.767-2.137,3.729-3.447c-0.01-0.35-0.657-0.454-0.89-0.451 c-2.057,0.027-4.085,1.465-5.776,2.476c-4.622,2.762-9.019,5.93-13.374,9.089c-4.601,3.337-9.117,6.802-13.453,10.478 c-1.641,1.392-7.472,5.416-7.037,7.871c0.042,0.233,0.362,0.387,0.565,0.413c4.744,0.608,10.092-7.057,12.583-10.056 c5.463-6.577,10.656-13.279,16.696-19.363C184.352,21.295,181.504,21.311,180.814,22.005L180.814,22.005 M206.504,10.787c19.972,1.494,39.661,3.783,59.374,7.196c7.969,1.38,16.311,2.782,22.421,8.546 c10.272,9.692,6.563,26.813,3.156,38.617c-0.282,0.979,2.621,0.556,2.893-0.386c3.435-11.905,6.576-27.199-1.922-37.795 c-5.355-6.679-14.455-8.708-22.45-10.103c-20.696-3.611-41.354-6.079-62.325-7.648C206.594,9.136,204.55,10.641,206.504,10.787 L206.504,10.787 M27.218,95.198c-2.343,5.55,26.322,5.369,27.69,5.376c47.222,0.282,94.292-8.693,141.525-4.472 c18.772,1.678,38.543,5.728,53.757,17.517c15.327,11.878,21.193,30.752,22.029,49.471c0.07,1.583,3.005,1.182,2.943-0.189 c-0.739-16.566-5.038-32.954-16.566-45.353c-10.655-11.459-25.779-17.285-40.738-20.604c-20.081-4.455-41.097-4.539-61.557-3.946 c-26.221,0.759-52.319,3.638-78.519,4.818c-14.008,0.631-28.805,1.674-42.719-0.749c-1.581-0.275-3.574-0.65-4.758-1.513 c-0.413-0.301-0.114-0.41-0.302,0.035C30.669,94.013,27.748,93.941,27.218,95.198L27.218,95.198z"/>
</svg>