<?xml version="1.0" encoding="UTF-8"?>
<svg version="1.0" xmlns="http://www.w3.org/2000/svg" width="148" height="22" >
<path fill="#231F20" d="M10.202,9.63c7.486-2.075,16.544-2.123,23.549-5.755c2.181-1.131,2.848-3.779-0.285-3.234 c-2.231,0.388-4.002,1.34-5.748,2.781c-4.018,3.32-5.953,8.331-9.725,11.844c-2.851,2.654-6.699,2.946-10.397,2.907 c-1.178-0.012-2.356-0.218-3.269-0.989c-0.554-0.469-2.714-0.419-0.974-0.302c4.923,0.332,9.588,1.391,14.572,1.079 c3.472-0.218,6.972-1.382,10.215-2.545c2.13-0.765,5.386-1.501,6.993-3.243c0.478-0.519-2.151-0.02-2.335,0.029 c-2.478,0.664-4.687,1.892-6.457,3.779c-2.24,2.389,3.811,1.229,4.634,1.066c3.153-0.624,6.233-1.809,9.178-3.066 c2.842-1.214-1.464-0.027-2.387,1.029c-0.222,0.255-2.201,2.411-1.212,2.722c3.856,1.214,10.441-2.403,13.881-3.836 c-0.905,0.22-1.812,0.438-2.718,0.658c-4.324,4.999,2.583,3.104,5.188,1.604c-0.476,0.274-2.05,0.241-2.813,0.68 c-2.39,1.374,0.154-2.636,0.522-3.062c-0.264,0.306-2.208,0.445-2.718,0.658c-2.339,0.975-5.552,2.58-8.011,2.654 c-2.041,0.062,1.514-3.603,1.685-3.764c-0.197,0.186-2.112,0.34-2.675,0.609c-2.67,1.275-7.247,3.579-9.947,2.635 c-1.076-0.376,2.769-3.89,3.175-3.908c0.231-0.012-4.246,2.447-4.721,2.63c-5.28,2.02-10.309,2.187-15.796,1.532 c-2.917-0.349-5.757-1.2-8.652-0.424c-3.435,0.92-0.24,2.415,1.864,2.591c8.727,0.728,16.032-2.888,20.618-10.269 c1.588-2.556,3.682-4.813,5.994-6.724c1.082-0.894,1.097-0.538,1.556,0.496C34.115,5.036,24.973,6.103,23,6.466 c-4.323,0.798-8.631,1.729-12.869,2.902C8.492,9.823,8.56,10.085,10.202,9.63L10.202,9.63 M60.782,9.277c-0.074-0.213-0.18-0.413-0.313-0.596c-0.31-0.426-0.833-0.246-1.269-0.157 c-0.66,0.135-1.351,0.306-1.97,0.578c-0.53,0.233,0.48,0.057,0.567,0.039c0.029-0.006,0.058-0.012,0.087-0.018 c-0.229,0.033-0.458,0.066-0.688,0.101c0.369,0.018,0.582,0.527,0.686,0.83C57.973,10.31,60.826,9.406,60.782,9.277L60.782,9.277 M73.833,10.033c6.772-1.137,14.165-0.813,20.697-2.938c1.954-0.636,6.681-2.289,6.064-4.985 c-0.429-1.876-4.618-0.282-5.603,0.033c-3.399,1.086-6.275,3.887-8.621,6.453c-1.438,1.575-2.615,3.272-4.199,4.744 c-1.025,0.952-2.173,1.764-3.311,2.572c-1.109,0.758-2.273,1.421-3.492,1.99c-4.162,0.474-4.637,0.364-1.424-0.328 c5.267-0.214,15.207,1.676,19.171-3.298c-0.333,0.418-2.261,0.289-2.855,0.729c-0.819,0.604-3.351,2.114-3.146,3.334 c0.021,0.007,0.041,0.014,0.062,0.021c2.052,0.681,5.813-0.982,7.743-1.346c0.829-0.356,1.595-0.328,2.299,0.084 c-0.248-0.217-2.53,4.141,1.181,1.098c1.133-0.93,7.467-2.615,7.255-1.669c-0.532,2.384,0.826,2.063,2.747,1.497 c2.943-0.867,5.7-2.461,8.083-4.349c-0.952,0.242-1.903,0.485-2.855,0.728c-2.023,2.588-2.342,3.965,1.575,3.284 c1.341-0.233,2.721-0.599,4.014-1.021c1.089-0.356,2.162-0.732,3.23-1.147c1.22-0.475,3.186-2.002-1.271,0.017 c-3.756,1.701,1.633,1.625,3.13,1.224c3.865-1.036,7.487-2.856,11.297-4.092c1.886-0.611,5.054-4.278,1.5-3.524 c-3.196,0.679-5.431,2.459-7.847,4.631c-1.384,1.244-2.687,2.577-3.996,3.898c-1.723,1.736,1.194,1.283,2.173,1.228 c2.055-0.118,4.861-0.983,6.016-2.79c-0.966,0.259-1.933,0.519-2.898,0.777c-0.098,3.248,3.498,0.531,5,1.167 c1.781,0.753,1.949,1.744,4.271,1.489c1.695-0.186,3.335-0.756,4.94-1.294c1.753-0.589-1.063,0.012-1.523,0.166 c-3.193,1.071-3.949-1.896-6.35-1.402c-1.496,0.308-3.512,1.492-3.439-0.903c-0.001,0.025-2.652,0.393-2.898,0.777 c-0.333,0.521-3.046,2.708-2.963,0.706c0.021-0.526,1.923-2.046,2.316-2.437c0.968-0.96,5.462-5.315,5.813-5.103 c2.423,1.464-3.817,3.26-4.88,3.648c-1.115,0.408-2.188,0.876-3.269,1.371c-1.218,0.622-2.501,1.071-3.849,1.35 c-2.427,0.021-0.377-1.259,0.215-1.527c0.225-0.102-1.992,0.297-2.537,0.539c-1.514,0.673-6.49,3.196-6.668,0.854 c-0.069-0.915,1.302-2.031,1.796-2.663c-0.335,0.428-2.266,0.26-2.855,0.728c-1.19,0.944-6.059,5.215-5.389,1.923 c0.329-1.619-0.595-1.028-2.271-0.826c-3.706,0.447-7.601,1.107-10.585,3.555c0.354-0.291,2.147-0.172,2.813-0.68 c3.555-2.713,0.361-2.361-2.229-1.874c-0.696,0.131-5.916,1.595-6.043,0.838c-0.139-0.826,2.452-2.48,3.106-2.964 c-0.951,0.243-1.903,0.485-2.855,0.729c-4.464,5.602-16.096-1.644-21.285,3.531c-0.015,0.017-0.028,0.032-0.043,0.049 c0.623,1.691,6.371-0.249,7.599-0.699c5.845-2.145,9.384-6.393,13.409-10.799c1.224-1.339,5.175-5.698,7.32-4.749 c1.525,0.674-0.138,2.433-0.653,2.925c-1.804,1.724-4.566,2.06-6.987,2.189c-4.596,0.247-9.208,1.036-13.744,1.797 C75.452,9.363,72.678,10.227,73.833,10.033L73.833,10.033 M92.384,11.722c0.056,0.222,0.111,0.443,0.167,0.666c0.046,0.182,2.951-0.564,2.898-0.777 c-0.056-0.222-0.111-0.443-0.167-0.666C95.236,10.763,92.331,11.509,92.384,11.722L92.384,11.722z"/>
</svg>