<?xml version="1.0" encoding="UTF-8"?>
<svg version="1.1" xmlns="http://www.w3.org/2000/svg" width="240" height="66" >
<path d="M76.477,5.637c-5.608,4.09-2.841,7.732,2.507,9.352c9.808,2.971,20.976-0.044,29.727-4.651 c1.87-0.984,11.176-6.561,6.468-9.446c-5.448-3.339-15.728,3.583-19.9,6.25C76.473,19.168,63.94,38.658,41.145,44.079 c-7.069,1.682-14.366,1.65-21.581,1.411c-4.969-0.165-10.147-0.363-14.973-1.66c-5.601-1.505,0.045-3.804,2.681-4.381 c14.083-3.086,26.787,3.053,40.243,6.279c9.446,2.264,21.534,3.8,28.353-4.938c1.349-1.728,1.269-4.25-1.12-4.883 c-2.266-0.6-5.188,1.04-7.114,1.976c-4.042,1.963-7.837,4.463-11.619,6.874c-3.007,1.917-7.198,5.783-10.809,6.375 c-0.983,0.161-1.542,1.449-0.22,1.232c5.537-0.908,11.255-6.28,15.87-9.164c3.456-2.16,7.021-4.448,10.897-5.779 c3.798-1.304,3.18,2.413,1.221,4.433c-3.358,3.463-8.75,4.657-13.363,4.485c-18.877-0.702-36.849-14.327-55.901-7.04 c-1.446,0.553-4.987,2.293-3.232,4.262c1.126,1.264,3.465,1.6,4.995,1.917c4.928,1.021,10.072,1.145,15.082,1.311 c11.13,0.368,21.943-0.83,32.195-5.377c8.613-3.82,15.909-10.003,22.874-16.221c5.854-5.228,11.607-10.537,17.897-15.248 c1.38-1.034,21.344-12.865,20.939-6.567c-0.194,3.021-5.594,5.5-7.767,6.644c-5.203,2.739-10.917,4.274-16.759,4.73 c-3.603,0.281-21.524-1.607-12.219-8.392C78.776,5.583,77.159,5.14,76.477,5.637L76.477,5.637z"/>
<path d="M83.272,42.907c5.625-1.914,13.378-3.8,17.564-8.22c1.142-1.205,0.261-2.903-1.24-3.083 c-3.778-0.452-8.122,3.004-11.053,4.886c-0.942,0.604-9.893,5.432-9.011,7.5c0.805,1.888,4.774,1.498,6.411,1.496 c11.296-0.013,23.759-6.19,32.543-12.8c1.078-0.811-0.518-1.37-1.28-0.879c-2.573,1.659-5.094,3.401-7.57,5.202 c-1.963,1.427-6.607,4.077-7.171,6.749c-0.956,4.524,17.567-1.998,19.522-3.571c1.025-0.826-0.529-1.47-1.28-0.879 c-1.094,0.86-3.502,2.788-3.104,4.439c0.719,2.975,5.423,2.339,7.664,2.081c5.315-0.612,17.33-3.759,17.305-10.713 c-0.018-4.828-10.181-7.772-10.779-2.471c-0.606,5.371,15.455,1.843,17.948,1.25c10.037-2.385,20.101-5.662,29.136-10.7 c3.145-1.754,6.685-3.941,8.883-6.863c0.77-1.023,0.002-1.901-1.173-1.747c-4.931,0.648-10.223,3.758-14.021,6.864 c-7.643,6.249-15.439,11.64-23.726,16.939c-2.185,1.398-5.54,3.276-4.808,6.333c0.653,2.726,5.761,3.28,7.889,3.403 c4.825,0.279,13.439-2.053,15.436-7.107c1.105-2.799-3.139-2.487-4.581-2.162c-7.958,1.795-14.976,9.113-20.486,14.611 c-0.858,0.856,1.01,1.173,1.616,0.567c5.156-5.144,12.342-12.771,20.019-14.02c2.896-0.471,0.851,1.985-0.114,2.861 c-2.381,2.16-5.786,3.194-8.877,3.696c-1.193,0.16-2.392,0.187-3.595,0.081c-1.96-0.113-8.264-1.764-3.593-5.773 c2.81-2.411,6.526-3.83,9.618-5.89c3.073-2.047,5.996-4.332,8.909-6.598c4.38-3.406,8.387-7.228,13.363-9.738 c1.242-0.627,5.554-1.619,6.211-2.492c-2.393,3.18-6.844,5.418-10.252,7.218c-7.635,4.034-16.076,6.611-24.411,8.754 c-3.479,0.895-6.958,1.573-10.55,1.827c-2.046,0.145-4.158,0.114-6.141-0.459c1.704-2.378,3.375-2.552,5.014-0.523 c1.389,1.325,1.424,3.421,0.404,4.933c-2.223,3.295-7.66,4.847-11.225,5.845c-2.273,0.636-4.646,0.974-7.004,0.796 c-4.324-0.324-0.296-3.887,0.305-4.36c-0.427-0.293-0.854-0.586-1.28-0.879c-2.918,2.349-6.876,3.321-10.462,4.131 c-0.114,0.025-6.437,1.105-5.597-0.16c0.691-1.042,1.792-1.865,2.731-2.658c3.465-2.926,7.3-5.479,11.108-7.935 c-0.427-0.293-0.854-0.586-1.28-0.879c-6.596,4.964-14.062,8.416-21.979,10.685c-2.967,0.85-6.024,1.445-9.111,1.584 c-1.288,0.058-2.614-0.143-3.886-0.324c-1.061-0.151,3.111-3.317,3.119-3.323c3.801-2.69,7.741-5.625,12.174-7.178 c2.216-0.776,1.86,0.888,0.535,1.837c-1.097,0.786-2.384,1.354-3.595,1.937c-3.72,1.789-7.639,3.234-11.543,4.562 C81.764,41.98,82.094,43.308,83.272,42.907L83.272,42.907z"/>
<path d="M184.503,42.095c2.813-8.438-13.587,1.588-12.988,2.076c-0.209,0.299-0.418,0.598-0.627,0.897 c-1.593,0.619,0.961,0.616,1.899,0.798c1.477,0.287,2.967,0.329,4.464,0.266c2.492-0.105,4.673-1.088,6.52-2.714 c-0.667-0.061-1.334-0.122-2-0.182c-2.254,2.398,3.242,2.045,4.152,1.941c5.771-0.66,11.196-3.437,16.333-5.959 c12.819-6.294,26.691-13.541,37.265-23.3c1.016-0.938-1.336-0.739-1.85-0.343c-12.253,9.468-24.123,19.278-35.283,30.02 c-6.047,5.821-12.021,12.315-19.311,16.6c-0.9,0.529-1.807,1.046-2.727,1.542c-1.633,0.881,0.209,0.451,0.91-0.264 c2.936-2.993,6.304-5.617,9.51-8.306c1.013-0.85-1.302-0.802-1.85-0.343c-3.384,2.838-7.058,5.595-10.051,8.865 c-0.696,0.76-1.309,1.836,0.277,1.708c4.665-0.376,10.259-5.783,13.509-8.603c9.031-7.836,17.174-16.625,26.308-24.357 c6.707-5.678,13.603-11.147,20.557-16.521c-0.616-0.114-1.233-0.229-1.85-0.343c-8.128,7.503-18.358,13.068-27.987,18.378 c-4.855,2.677-9.802,5.208-14.89,7.414c-1.734,0.752-3.502,1.442-5.324,1.95c-0.118,0.033-6.92,1.4-5.549-0.06 c0.687-0.73-1.586-0.546-2-0.182c-5.019,4.419-7.679-0.563-11.936,1.091c-0.218,0.084-1.034,0.565-0.627,0.897 c0.946,0.771,2.355,0.313,3.331-0.175c1.673-0.835,3.191-1.928,4.739-2.969c0.96-0.645,5.969-3.148,4.76,0.479 C181.935,43.161,184.252,42.848,184.503,42.095L184.503,42.095z"/>
<path d="M208.027,42.95c2.092-1.026,4.21-2.002,6.341-2.946c1.714-0.76,3.45-1.473,5.215-2.107 c0.55-0.198,2.747-1.202,1.812,0.075c-1.688,2.305-4.405,4.074-6.711,5.689c-0.845,0.591-6.771,4.875-6.44,2.148 c0.082-0.679-2.222-0.226-2.295,0.377c-0.413,3.405,4.815,0.988,6.193,0.29c4.013-2.033,8.213-4.994,11.188-8.398 c2.578-2.951-3.522-1.183-4.579-0.819c-4.143,1.424-8.157,3.359-12.087,5.286C205.278,43.224,207.429,43.244,208.027,42.95 L208.027,42.95z"/>
<path d="M225.704,45.069c0.042-0.027,0.084-0.053,0.127-0.079c0.202-0.122-0.091,0.033,0.17-0.088 c0.269-0.125,0.03-0.019-0.137-0.016c-0.284,0.005-0.251-0.176-0.234,0.119c0.038,0.685,1.976,0.271,1.932-0.518 c-0.083-1.471-2.41-0.5-3.074-0.063c-0.274,0.181-0.57,0.591-0.154,0.811C224.74,45.45,225.34,45.309,225.704,45.069 L225.704,45.069z"/>
</svg>