<?xml version="1.0" encoding="UTF-8"?>
<svg width="416" height="199" version="1.1" xmlns="http://www.w3.org/2000/svg">
<path d="M 67.44 12.39 C 68.74 10.00 70.64 7.93 72.99 6.53 C 68.95 13.11 64.68 19.66 62.07 26.99 C 60.77 30.80 58.39 34.16 57.49 38.11 C 55.67 39.26 55.27 41.49 55.14 43.47 C 52.27 45.95 51.65 49.83 50.01 53.08 C 41.83 70.53 38.30 89.60 32.72 107.94 C 30.77 115.01 28.92 122.15 25.86 128.84 C 24.01 131.49 24.70 135.94 21.18 137.16 C 18.88 136.25 19.74 133.00 19.57 131.02 C 21.11 115.96 25.34 101.32 30.08 86.99 C 32.97 78.23 37.03 69.93 40.31 61.32 C 40.99 60.15 41.80 58.31 43.45 58.52 C 43.59 59.31 43.86 60.88 44.00 61.66 L 42.43 61.73 C 42.84 62.57 43.25 63.42 43.67 64.26 C 48.08 53.10 53.03 42.17 58.31 31.40 C 58.07 31.17 57.57 30.71 57.33 30.48 C 58.66 30.23 59.64 29.18 60.03 27.91 C 62.19 22.60 64.64 17.40 67.44 12.39 M 39.26 70.22 C 37.34 70.44 38.26 72.43 38.27 73.70 C 37.14 75.01 35.55 76.01 35.26 77.89 C 28.52 96.39 22.42 115.47 21.22 135.25 C 21.94 134.31 22.64 133.36 23.32 132.40 C 23.63 130.85 24.37 129.46 25.19 128.14 C 27.22 121.40 29.11 114.62 31.10 107.88 C 35.62 93.77 38.64 79.23 43.39 65.19 C 41.04 65.72 39.38 67.85 39.26 70.22 Z
M 192.90 82.22 C 192.19 80.17 194.61 78.67 195.79 77.28 C 198.04 78.89 197.17 83.65 194.79 84.35 C 194.79 83.85 194.79 82.85 194.80 82.34 C 194.32 82.31 193.38 82.25 192.90 82.22 Z
M 91.79 109.50 C 93.10 108.12 95.27 104.74 97.62 106.19 C 97.56 108.37 94.62 111.65 98.10 112.39 C 97.70 113.42 96.91 115.48 96.52 116.51 C 99.99 114.08 102.93 110.96 106.54 108.71 C 107.29 107.99 109.24 107.96 108.54 109.45 C 105.82 115.43 103.06 121.53 102.25 128.11 C 101.52 131.57 101.65 135.48 99.68 138.53 C 99.32 138.61 98.60 138.78 98.24 138.86 C 99.27 134.09 99.74 129.23 100.58 124.43 C 101.34 119.84 103.94 115.88 105.48 111.56 C 101.56 113.70 98.97 117.67 94.82 119.40 C 94.73 118.50 94.55 116.72 94.47 115.82 C 92.12 118.86 90.68 122.66 87.66 125.10 C 87.59 124.61 87.46 123.63 87.40 123.13 C 86.79 123.09 85.58 123.01 84.98 122.96 C 84.76 118.44 88.99 115.31 90.71 111.44 C 91.63 111.10 92.56 110.77 93.49 110.44 C 91.15 113.35 89.31 116.64 87.91 120.10 C 92.07 117.87 93.70 113.32 95.04 109.10 C 94.23 109.20 92.61 109.40 91.79 109.50 Z
M 170.68 49.82 C 171.63 47.63 172.84 45.54 174.91 44.24 C 176.28 46.53 174.53 48.96 174.09 51.26 C 172.96 54.01 171.58 56.64 170.06 59.19 C 167.82 62.97 167.02 67.34 165.76 71.50 C 162.29 82.86 158.05 93.98 154.31 105.23 C 155.64 109.16 156.48 113.23 157.36 117.28 C 157.87 114.63 158.57 111.90 157.61 109.27 C 157.97 109.04 158.68 108.57 159.04 108.33 C 160.08 102.65 162.21 97.26 163.86 91.74 C 165.39 86.62 167.93 81.74 168.38 76.34 C 172.28 70.11 173.72 62.70 177.52 56.41 C 178.95 54.23 179.36 51.56 180.84 49.41 C 181.74 48.43 183.07 48.05 184.25 48.74 C 179.27 58.29 173.94 67.75 170.55 78.03 C 166.48 90.47 161.55 102.76 159.62 115.78 C 161.07 114.71 163.26 114.07 163.65 112.04 C 165.20 107.21 167.41 102.54 170.60 98.56 C 171.74 97.04 173.64 96.29 174.67 94.65 C 175.94 92.67 178.47 93.28 180.43 93.31 C 183.46 100.04 180.87 107.87 176.44 113.33 C 175.55 114.73 171.80 116.45 174.06 118.11 C 175.11 114.12 181.25 114.33 181.99 110.13 C 183.82 102.94 186.47 95.99 189.25 89.13 C 190.34 87.13 191.10 84.68 192.77 83.13 C 192.96 84.76 192.41 86.36 191.89 87.88 C 189.86 93.68 186.90 99.29 185.87 105.36 C 190.18 99.40 192.01 92.03 194.18 85.18 C 194.54 85.27 195.27 85.44 195.64 85.53 C 195.00 87.60 194.28 89.65 193.53 91.69 C 193.98 92.43 194.44 93.16 194.91 93.90 C 195.45 89.62 199.68 90.79 202.62 90.75 L 202.36 89.51 C 210.15 86.13 218.64 84.65 226.93 82.93 C 242.20 80.12 257.59 78.00 273.05 76.57 C 272.80 76.01 272.28 74.88 272.02 74.32 L 273.69 74.80 C 273.15 72.46 274.62 70.48 275.62 68.51 C 277.04 66.04 278.29 63.42 280.20 61.27 C 280.59 61.30 281.36 61.34 281.74 61.37 C 280.80 63.84 279.35 66.06 277.91 68.26 C 277.15 71.22 275.96 74.04 274.43 76.68 C 305.25 74.57 336.16 74.35 367.03 75.29 C 379.39 75.40 391.72 76.67 404.08 76.28 C 403.82 77.32 403.17 77.82 402.13 77.78 C 392.77 78.28 383.40 77.51 374.05 77.19 C 340.69 76.43 307.24 76.02 273.98 78.94 C 270.68 83.47 268.97 89.06 266.29 94.01 C 298.14 91.99 330.05 90.58 361.97 90.41 C 372.54 90.73 383.39 90.26 393.59 93.50 C 395.40 93.70 395.99 95.92 397.69 96.18 C 400.12 96.08 402.20 98.64 401.75 101.00 C 400.10 103.20 398.02 105.15 395.61 106.49 C 389.19 110.01 382.44 112.89 375.58 115.46 C 362.65 120.80 349.66 126.03 337.03 132.05 C 330.74 135.66 323.80 138.15 317.83 142.30 C 323.94 144.02 330.03 146.10 335.42 149.52 C 337.46 150.80 338.88 152.77 339.74 155.00 C 338.41 159.93 333.45 162.29 329.16 164.16 C 320.76 167.52 311.98 169.87 303.15 171.80 C 296.10 172.70 289.06 174.32 281.91 173.61 C 279.29 173.61 277.39 171.56 275.28 170.33 C 275.24 169.82 275.18 168.80 275.14 168.29 L 276.67 168.92 L 276.45 167.33 C 286.79 157.21 299.67 150.30 311.97 142.92 C 303.16 140.69 294.45 138.03 285.86 135.07 C 280.34 132.54 272.97 131.26 270.37 125.01 C 270.40 123.05 272.64 121.94 273.68 120.44 C 273.97 120.48 274.53 120.55 274.81 120.59 C 275.55 118.79 277.52 118.26 279.02 117.31 C 277.35 115.19 276.93 112.60 277.25 109.97 C 273.13 111.66 270.62 116.14 266.12 117.20 C 263.94 117.91 260.99 117.75 259.61 115.66 C 257.64 112.28 259.15 108.42 259.96 104.94 C 260.65 101.72 262.41 98.89 263.55 95.83 C 262.80 95.90 261.29 96.04 260.54 96.11 C 257.71 104.37 253.71 113.24 245.57 117.45 C 243.37 118.57 241.18 117.11 240.06 115.23 C 237.83 116.89 235.35 119.34 232.32 118.61 C 229.97 117.21 230.88 114.22 230.86 111.99 C 228.96 113.42 227.25 115.28 224.85 115.84 C 223.65 118.65 220.27 120.53 217.29 119.63 C 216.86 118.75 216.44 117.86 216.03 116.98 C 212.87 118.72 210.12 121.11 206.98 122.90 C 205.03 124.08 202.31 124.07 200.80 122.19 C 201.04 119.52 201.22 116.83 201.87 114.22 C 204.32 111.14 207.77 108.23 207.78 103.95 C 208.05 101.88 207.20 99.94 206.35 98.11 C 205.01 99.21 203.63 100.27 202.05 100.98 C 200.99 102.14 199.84 103.34 199.65 104.98 C 199.03 108.15 195.63 110.06 195.55 113.43 C 194.17 114.21 194.22 116.92 195.68 117.46 C 197.41 116.76 198.98 115.67 200.80 115.21 C 201.08 116.22 200.71 117.05 199.69 117.69 C 196.83 119.87 194.51 122.95 190.66 123.37 C 188.95 122.22 189.01 120.15 189.17 118.31 C 187.22 119.77 183.71 123.58 181.69 120.37 C 180.80 118.30 181.28 115.97 181.19 113.79 C 177.19 116.64 173.05 120.09 168.03 120.70 C 165.74 121.27 164.44 118.78 162.36 118.57 C 163.33 117.75 163.67 116.66 163.39 115.30 C 161.50 116.39 159.47 117.55 158.80 119.79 C 158.66 121.63 158.38 123.46 158.11 125.29 C 157.68 125.35 156.83 125.48 156.41 125.54 C 156.39 124.86 156.36 123.51 156.34 122.84 C 156.08 122.18 155.56 120.85 155.30 120.19 C 152.94 121.35 150.40 122.02 147.88 122.70 C 143.53 137.12 138.05 151.23 134.99 166.01 C 134.17 170.44 132.02 174.83 132.25 179.31 C 130.83 182.44 130.71 185.93 129.87 189.22 C 128.57 188.79 127.66 187.92 127.15 186.60 L 128.49 186.43 C 128.92 184.13 129.36 181.82 129.46 179.49 C 132.02 170.06 133.83 160.43 136.54 151.04 C 139.77 141.20 142.93 131.33 146.00 121.44 C 142.00 117.45 144.42 111.55 146.15 107.09 C 147.12 104.34 149.27 100.64 152.81 102.52 C 156.92 91.06 161.62 79.73 164.60 67.91 C 163.80 68.66 163.06 69.48 162.39 70.36 C 161.51 68.34 163.02 67.76 164.38 67.38 C 164.47 66.76 164.65 65.52 164.74 64.89 C 167.36 61.11 168.36 56.49 169.75 52.17 C 170.20 51.96 171.12 51.56 171.57 51.35 L 171.33 54.37 C 172.07 52.75 172.78 51.11 173.17 49.37 L 171.95 51.59 C 171.52 51.01 171.09 50.42 170.68 49.82 M 216.12 87.22 C 211.35 88.77 206.16 89.48 201.90 92.23 C 201.30 92.21 200.10 92.19 199.50 92.18 L 199.69 93.68 C 199.16 93.65 198.10 93.60 197.57 93.57 L 197.44 94.70 C 200.59 95.24 203.73 96.14 206.95 96.08 C 224.30 96.25 241.62 95.14 258.94 94.38 C 260.76 94.06 262.90 94.61 264.52 93.65 C 266.73 88.69 269.06 83.79 271.52 78.95 C 252.88 80.36 234.40 83.41 216.12 87.22 M 332.07 92.65 C 309.98 93.40 287.87 94.09 265.83 95.82 C 263.30 100.90 261.01 106.31 260.64 112.03 C 260.27 114.48 262.63 116.37 264.95 115.90 C 269.56 115.37 272.35 111.36 276.21 109.27 C 276.73 107.83 277.73 106.89 279.35 106.84 C 278.11 110.72 278.72 115.06 282.13 117.62 C 279.26 119.81 275.70 120.91 273.01 123.34 C 271.86 124.50 272.31 126.52 273.70 127.30 C 277.86 130.78 283.29 131.89 288.20 133.87 C 295.09 136.03 301.99 138.20 309.00 139.96 C 311.62 140.48 314.59 142.25 317.03 140.31 C 338.49 128.42 361.30 119.34 383.93 110.02 C 388.84 107.70 394.15 105.87 398.22 102.15 C 399.39 101.38 400.79 98.88 398.53 98.44 C 397.53 97.48 394.83 97.31 395.65 95.30 C 394.39 95.35 393.15 95.23 391.95 94.92 C 382.86 92.33 373.33 92.51 363.98 92.20 C 353.34 91.88 342.71 92.64 332.07 92.65 M 193.03 93.03 C 191.51 98.65 189.01 103.97 185.55 108.64 C 183.07 111.84 183.02 116.05 183.41 119.88 C 184.55 119.33 185.68 118.77 186.81 118.20 C 189.10 115.74 191.69 113.50 193.25 110.46 C 195.98 105.42 199.48 100.76 204.04 97.24 C 200.12 97.47 194.92 97.07 193.03 93.03 M 166.20 109.98 C 167.97 110.07 168.92 108.52 169.96 107.37 C 170.53 107.65 171.70 107.63 171.36 108.57 C 170.41 111.45 168.66 114.11 168.65 117.25 C 169.86 116.61 171.07 115.98 172.31 115.39 C 174.12 113.79 175.10 111.35 177.30 110.18 C 179.20 105.07 181.96 99.20 179.29 93.88 C 172.21 96.36 169.09 103.68 166.20 109.98 M 207.24 97.81 C 208.86 99.46 209.60 101.67 209.38 103.97 C 210.42 102.99 211.52 102.02 213.05 102.09 C 210.17 108.85 203.18 113.79 202.86 121.62 C 207.91 122.25 210.51 117.30 214.87 115.93 C 216.76 114.06 217.83 111.55 219.37 109.40 C 221.16 106.86 222.45 103.27 225.99 102.87 C 225.81 109.06 218.10 111.76 218.45 118.04 C 219.93 117.46 221.41 116.88 222.87 116.26 C 224.85 113.38 228.62 112.77 230.74 110.01 C 233.58 107.84 235.08 104.34 238.06 102.37 L 239.70 102.76 C 236.75 106.91 231.71 110.84 233.29 116.63 C 234.63 116.23 235.97 115.83 237.32 115.43 C 238.47 114.20 239.39 112.53 241.17 112.14 C 242.68 111.89 244.45 109.12 245.29 111.69 C 244.03 112.53 242.78 113.37 241.54 114.22 C 242.46 115.55 244.12 116.82 245.72 115.66 C 252.57 111.05 256.12 103.39 259.98 96.40 C 242.41 96.48 224.84 98.38 207.24 97.81 M 147.60 107.73 C 147.32 111.45 144.34 115.58 147.04 118.95 C 148.42 114.32 150.48 109.91 151.83 105.27 C 150.24 102.92 148.83 106.83 147.60 107.73 M 152.66 108.96 C 151.51 112.81 150.12 116.59 148.77 120.37 C 150.73 120.24 152.60 119.48 154.57 119.47 C 155.78 117.47 155.86 115.19 155.10 113.02 C 154.54 111.58 154.61 109.19 152.66 108.96 M 166.71 111.67 C 164.57 114.10 164.23 119.33 168.58 119.39 C 166.13 117.10 167.28 113.71 168.63 111.18 C 168.15 111.30 167.19 111.55 166.71 111.67 M 190.62 121.38 C 192.22 120.96 193.82 120.52 195.43 120.14 C 194.34 118.92 193.33 117.63 192.45 116.26 C 191.80 117.95 191.19 119.66 190.62 121.38 M 282.51 163.76 C 280.79 165.90 278.87 167.86 277.26 170.09 C 283.19 173.65 290.46 171.77 296.88 170.82 C 304.50 170.29 311.78 167.75 319.10 165.75 C 323.59 165.01 327.42 162.43 331.69 161.03 C 334.04 159.52 336.15 157.59 337.50 155.12 C 336.49 153.62 335.51 152.02 333.90 151.10 C 328.09 147.52 321.53 145.41 314.96 143.73 C 303.50 149.31 292.95 156.52 282.51 163.76 Z
M 72.84 73.96 C 74.68 73.91 77.02 72.99 78.33 74.85 C 78.71 76.25 78.42 77.73 77.92 79.07 C 77.29 91.74 71.72 103.89 62.78 112.86 C 60.55 115.43 56.52 117.52 57.39 121.53 C 60.39 121.57 63.00 120.22 64.81 117.88 C 66.13 115.97 68.76 115.72 69.96 113.73 C 72.38 113.09 74.21 111.32 76.19 109.90 C 78.14 110.96 80.03 112.90 79.52 115.32 C 80.50 113.59 81.42 111.81 82.01 109.91 C 85.21 100.07 87.29 89.85 91.33 80.29 C 91.67 78.99 91.87 77.65 92.09 76.31 C 93.22 75.19 94.46 72.83 95.85 75.16 C 94.71 77.32 94.35 79.75 93.86 82.11 C 92.26 90.37 89.73 98.46 86.10 106.06 C 84.27 109.71 83.08 113.63 82.05 117.57 C 82.72 117.52 84.06 117.43 84.72 117.38 C 83.81 117.88 82.88 118.37 81.95 118.85 C 80.44 126.39 78.59 134.04 78.89 141.76 C 78.47 141.81 77.63 141.92 77.21 141.97 C 76.55 133.23 78.85 124.69 80.19 116.12 C 76.70 118.51 73.12 121.30 68.92 122.14 C 68.42 121.86 67.44 121.31 66.95 121.04 C 67.61 119.69 68.25 118.33 68.92 116.99 C 68.33 117.12 67.15 117.38 66.56 117.51 C 64.11 120.82 60.57 124.36 56.07 122.77 C 55.87 122.11 55.47 120.79 55.27 120.13 C 53.25 121.99 50.48 124.48 47.54 123.05 C 44.34 123.69 41.42 125.57 38.03 124.88 C 36.63 122.27 37.11 119.06 38.55 116.57 C 42.00 110.39 45.02 103.79 50.25 98.86 C 50.96 96.50 53.21 94.71 55.58 94.27 C 55.94 101.19 51.85 107.39 51.12 114.20 C 52.01 112.55 52.53 110.16 54.85 110.18 C 52.83 114.25 50.07 117.95 48.51 122.25 C 50.05 121.78 51.57 121.22 53.06 120.62 C 53.83 119.60 54.61 118.60 55.40 117.61 C 56.37 110.02 58.43 102.56 61.40 95.51 C 64.07 90.01 66.36 84.16 70.46 79.52 C 72.05 78.09 72.21 75.88 72.84 73.96 M 73.02 77.35 C 65.58 89.14 59.55 102.12 57.64 116.06 C 62.01 111.84 66.13 107.28 69.36 102.12 C 74.32 94.71 76.73 85.69 76.76 76.84 C 76.72 73.65 74.09 76.72 73.02 77.35 M 91.17 87.19 C 91.56 86.40 91.56 86.40 91.17 87.19 M 89.98 89.67 C 91.30 89.40 91.69 88.58 91.17 87.19 C 89.88 87.55 89.48 88.38 89.98 89.67 M 87.91 97.44 C 87.30 97.63 87.30 97.63 87.91 97.44 C 89.16 95.03 89.79 92.37 89.98 89.67 C 89.19 92.23 88.46 94.81 87.91 97.44 M 50.01 100.34 C 46.13 105.95 42.76 111.89 39.70 117.99 C 38.86 119.66 38.85 121.58 38.65 123.41 C 40.13 123.47 41.60 123.31 43.02 122.88 C 43.86 122.21 44.75 121.61 45.68 121.07 C 47.05 119.42 48.35 117.64 48.67 115.45 C 50.13 109.27 53.57 103.50 53.69 97.07 C 52.23 97.87 50.83 98.84 50.01 100.34 M 73.20 112.87 C 71.78 114.37 69.12 116.68 71.03 118.82 C 74.41 119.00 77.14 116.28 78.45 113.39 C 76.77 113.07 74.86 111.65 73.20 112.87 M 69.41 119.00 C 67.54 121.82 72.79 119.32 69.41 119.00 Z
M 327.37 117.21 C 328.96 116.51 329.08 118.28 329.57 119.33 C 328.84 122.82 328.64 127.64 324.34 128.57 C 326.44 125.13 326.82 121.10 327.37 117.21 Z"/>
</svg>