<?xml version="1.0" encoding="UTF-8"?>
<svg version="1.1" xmlns="http://www.w3.org/2000/svg" width="161" height="80" >
<path d="M48.869,24.602c-4.258-8.676,3.532-16.518,9.354-22.052c0.404-0.379,0.816-0.748,1.237-1.107 c1.029-0.549,0.864-0.776-0.497-0.68c-0.334,0.719-1.064,1.416-1.539,2.044c-1.891,2.508-3.754,5.037-5.617,7.565 c-3.13,4.247-6.517,8.441-9.285,12.939c-1.042,1.694,3.909-0.683,4.01-0.74c2.142-1.222,4.22-2.558,6.313-3.858 c1.012-0.629,2.026-1.252,3.051-1.86c1.294-0.766,0.431-1.187-0.269-0.499c-3.273,3.226-6.58,6.419-9.849,9.65 c-8.78,8.678-18.905,17.443-25.757,27.807c-0.461,0.698,1.088,0.474,1.354,0.292c6.679-4.568,13.246-9.304,19.741-14.13 c4.728-3.512,9.39-7.113,13.952-10.838c2.723-2.223,7.41-5.004,9.094-8.204c0.066-0.126,0.104-0.249-0.004-0.368 c-0.013-0.013-0.024-0.026-0.036-0.039c-0.205-0.227-0.67-0.186-0.926-0.104c-2.568,0.832-4.973,3.513-6.952,5.202 c-4.579,3.906-8.913,8.129-12.789,12.736c-3.619,4.301-7.542,8.608-10.836,13.167c-0.905,1.252-0.317,1.848,1.045,1.978 c1.968,0.187,4.535-1.828,6.073-2.744c4.591-2.736,8.979-5.835,13.32-8.946c4.23-3.032,8.391-6.176,12.382-9.517 c0.655-0.549,5.354-3.96,4.916-5.034c-0.176-0.43-0.901-0.27-1.216-0.136c-1.633,0.697-3.095,2.652-4.337,3.843 c-3.229,3.097-6.399,6.258-9.546,9.439c-0.8,0.809-11.938,12.705-11.114,13.018c1.496,0.569,3.5-1.233,4.581-1.979 c4.126-2.844,8.001-6.081,11.833-9.303c1.821-1.532,22.45-18.925,19.896-21.519c-0.221-0.225-0.655-0.183-0.926-0.104 c-1.635,0.48-2.928,1.975-4.129,3.093c-3.173,2.954-6.066,6.208-8.935,9.452c-4.286,4.847-9.962,10.317-12.289,16.49 c-3.397,9.012,18.37,5.826,22.534,3.377c1.015-0.597-0.511-0.873-1.084-0.536c-3.175,1.867-21.822,4.428-20.001-2.28 c0.942-3.471,3.919-6.727,6.087-9.481c2.809-3.569,5.852-6.962,8.887-10.337c2.66-2.958,5.445-5.883,8.506-8.432 c-1.992,1.66-3.793,4.707-5.739,6.809c-4.646,5.018-9.88,9.526-15.105,13.922c-4.002,3.366-8.09,6.846-12.558,9.586 c-0.613,0.376-0.1,0.648,0.253,0.108c0.372-0.568,0.834-1.084,1.271-1.602c1.442-1.708,2.999-3.326,4.539-4.946 c3.648-3.839,7.397-7.585,11.173-11.299c1.825-1.794,4.729-5.658,6.896-6.583c-0.405-0.045-0.811-0.09-1.216-0.135 c0.365,0.894-8.21,7.221-9.335,8.099c-5.377,4.195-10.961,8.144-16.658,11.891c-1.945,1.279-3.922,2.512-5.95,3.655 c-1.685,0.95-3.58,1.646-1.811-0.624c4.534-5.815,9.344-11.714,14.447-17.025c4.219-4.391,8.863-8.762,13.889-12.23 c0.798-0.55-0.961-0.203-1.467,0.304c-0.915,0.916-1.902,1.764-2.87,2.624c-3.128,2.779-6.385,5.409-9.665,8.005 c-9.353,7.404-19.061,14.406-28.906,21.14c0.451,0.098,0.902,0.195,1.354,0.292c5.419-8.199,13.194-15.18,20.081-22.118 c3.565-3.592,7.171-7.145,10.789-10.684c1.588-1.553,4.071-3.239,5.214-5.18c0.068-0.117,0.104-0.259-0.005-0.368 c-0.975-0.979-3.945,1.423-4.62,1.836c-1.901,1.161-3.784,2.352-5.686,3.514c-0.842,0.514-1.691,1.014-2.548,1.503 c-1.139,0.649-0.888,1.231-0.393,0.472c2.583-3.956,5.502-7.719,8.297-11.525c2.459-3.348,6.153-6.925,7.905-10.704 c0.092-0.197,0.08-0.333-0.12-0.451c-2.259-1.318-7.723,6.146-8.736,7.289c-4.343,4.898-7.899,11.088-4.692,17.624 C47.431,25.68,49.127,25.127,48.869,24.602L48.869,24.602z"/>
<path d="M6.011,30.009c14.753-2.579,29.136,0.619,43.833,1.394c14.866,0.784,30.757-1.257,44.506-7.157 c3.159-1.355,6.19-2.891,9.135-4.663c1.94-1.167,1.178-1.757-0.289-0.588c-3.69,2.939-7.331,5.939-10.939,8.977 c-8.436,7.102-18.87,14.732-24.614,24.344c-0.202,0.338,1.422,0.022,1.648-0.203c4.328-4.32,8.849-8.458,13.466-12.467 c3.864-3.355,7.855-6.575,12.072-9.478c1.817-1.25,3.71-2.388,5.696-3.348c0.559-0.27,4.661-2.149,3.118-0.748 c-5.659,5.138-11.273,10.326-16.818,15.586c-2.953,2.801-5.886,5.628-8.716,8.554c-0.84,0.868-3.316,2.793-3.311,4.188 c0.002,0.446,1.505-0.143,1.659-0.288c7.244-6.827,16.238-12.098,25.151-16.366c1.979-0.947,4.005-1.789,6.037-2.611 c-0.274,0.111,4.043-2.25,2.147-1.448c-1.709,0.724-3.364,1.563-5,2.44c-5.456,2.922-10.508,6.691-14.508,11.433 c-0.441,0.523-6.651,7.459-3.557,6.63c1.666-0.447,3.124-1.968,4.403-3.033c5.413-4.505,10.521-9.4,15.658-14.212 c-0.526,0.037-1.054,0.074-1.58,0.11c-4.089,4.23-8.231,8.558-11.748,13.282c-2.05,2.754-3.454,5.971,1.096,3.863 c6.434-2.981,12.053-8.107,17.919-12.036c0.983-0.658,2.442-1.945,2.975-2.337c-0.649,0.478-1.295,0.961-1.939,1.445 c-2.934,2.2-5.828,4.455-8.669,6.774c-0.569,0.465-9.57,8.148-5.55,7.456c5.735-0.988,11.365-6.127,16.36-8.85 c0.405-0.221,2.943-1.799,1.838-1.165c-1.254,0.719-2.439,1.543-3.597,2.407c-1.912,1.429-5.063,4.01-3.597,6.672 c1.531,2.778,9.542-2.502,10.816-3.265c8.467-5.073,16.858-11.535,23.676-18.69c0.437-0.458-1.237-0.137-1.46,0.016 c-4.362,2.988-8.599,6.172-12.715,9.49c-3.079,2.483-11.566,8.069-11.099,12.851c0.493,5.039,12.679-0.993,14.144-1.764 c3.397-1.787,6.594-3.987,9.542-6.439c0.136-0.112,3.538-2.996,2.072-3.083c-3.914-0.232-9.016,5.019-11.396,7.538 c-4.358,4.611-0.563,6.792,4.32,5.516c4.813-1.258,8.549-3.979,13.626-2.193c1.988,0.7,4.02,0.881,6.068,1.314 c3.095,0.654-0.594,5.071-1.432,6.374c-2.85,4.435-6.029,8.656-9.861,12.29c-7.196,6.823-14.286,3.702-20.986-1.274 c-8.252-6.13-15.14-13.966-23.308-20.258c-12.338-9.503-26.33-16.887-41.427-20.836c-0.416-0.108-1.954,0.556-1.424,0.694 c19.805,5.18,37.717,16.37,52.574,30.312c6.696,6.285,14.177,15.04,23.766,16.469c7.284,1.086,13.561-5.918,17.577-10.913 c2.457-3.057,4.578-6.376,6.653-9.697c2.505-4.006-1.559-3.979-4.593-4.519c-3.559-0.632-4.739-2.104-8.399-1.32 c-3.015,0.646-11.971,5.608-13.506,2.01c-1.142-2.674,4.685-6.719,6.329-7.963c1.29-0.975,2.659-1.869,4.093-2.617 c-1.474,0.769-3.188,2.997-4.567,4.038c-4.073,3.076-11.082,8.226-16.488,7.267c-4.152-0.737,0.574-5.854,1.658-7.025 c5.789-6.259,13.105-11.38,20.118-16.184c-0.487,0.005-0.974,0.01-1.46,0.016c-6.107,6.411-13.4,11.885-20.743,16.789 c-1.74,1.162-10.15,7.202-10.881,3.36c-0.565-2.975,5.299-6.218,7.42-7.405c0.187-0.104,0.562-0.33,0.206-0.479 c-1.716-0.715-4.66,1.441-5.97,2.177c-4.174,2.345-8.145,5.074-12.448,7.185c-2.518,1.235,0.979-2.348,1.472-2.816 c1.81-1.721,3.77-3.291,5.711-4.858c2.896-2.337,5.861-4.596,8.86-6.801c0.255-0.188,0.246-0.397-0.11-0.409 c-2.236-0.071-4.548,1.924-6.27,3.077c-4.756,3.185-9.307,6.667-14.119,9.77c-1.438,0.928-4.422,2.998-2.77,0.06 c1.329-2.366,3.276-4.449,5.036-6.499c2.628-3.062,5.381-6.027,8.186-8.928c0.399-0.414-1.287-0.164-1.58,0.11 c-4.954,4.642-9.909,9.294-15.066,13.713c-1.163,0.996-2.338,2.009-3.632,2.834c0.896-0.571,0.782-0.261,1.546-1.373 c5.598-8.152,13.737-14.661,22.915-18.347c1.153-0.463,0.061-0.68-0.611-0.434c-12.703,4.653-25.553,11.414-35.484,20.772 c0.554-0.096,1.106-0.192,1.659-0.288c-0.006-1.587,3.714-4.418,4.702-5.418c3.274-3.314,6.668-6.512,10.062-9.704 c4.785-4.503,9.619-8.956,14.49-13.366c0.221-0.2-0.059-0.297-0.23-0.314c-6.979-0.672-14.601,6.602-19.52,10.55 c-6.407,5.144-12.514,10.736-18.33,16.541c0.55-0.067,1.1-0.135,1.648-0.203c4.828-8.078,13.317-14.536,20.327-20.616 c5.276-4.576,10.662-9.043,16.151-13.363c0.722-0.568-1.04-0.281-1.34-0.079C87.945,29.129,66.459,31.943,46.912,30.397 c-13.624-1.077-26.92-3.459-40.589-1.07C5.615,29.451,4.791,30.222,6.011,30.009L6.011,30.009z"/>
<path d="M0.499,33.845c20.969-0.565,42.025-1.461,63-1c0.677,0.015,1.846-0.994,0.668-1.02c-20.976-0.461-42.032,0.435-63,1 C0.502,32.843-0.674,33.876,0.499,33.845L0.499,33.845z"/>
<path d="M10.504,52.835c4.473-2.029,9.412-3.223,14.147-4.434c16.835-4.305,34.166-6.559,51.414-8.421 c17.989-1.942,36.084-3.502,54.181-3.893c3.881-0.083,7.944-0.294,11.797,0.313c1.358,0.214-0.582,1.641-1.04,2.82 c-0.987,2.54-0.265,5.904-0.039,8.513c0.046,0.537,1.793,0.17,1.738-0.466c-0.282-3.275-1.427-8.166,1.602-10.563 c0.42-0.333,0.258-0.687-0.128-0.921c-2.105-1.28-6.413-0.671-8.692-0.683c-17.207-0.091-34.501,1.518-51.606,3.188 c-19.029,1.857-38.078,4.215-56.708,8.619c-5.789,1.369-11.888,2.787-17.339,5.26C8.724,52.67,9.745,53.18,10.504,52.835 L10.504,52.835z"/>
<path d="M37.182,25.615c-3.352,4.342-6.819,8.599-10.37,12.778c-2.432,2.861-4.93,5.672-7.59,8.323 c-1.031,1.027-2.109,2.013-3.3,2.853c-2.752,1.941-1.702-4.226-1.271-5.182c0.377-0.835-1.369-0.698-1.637-0.105 c-0.821,1.817-1.812,7.043,1.762,6.814c2.744-0.176,5.304-3.41,7.037-5.18c6.144-6.269,11.646-13.252,17.005-20.196 C39.34,25.045,37.569,25.112,37.182,25.615L37.182,25.615z"/>
</svg>