<?xml version="1.0" encoding="UTF-8"?>
<svg version="1.0" xmlns="http://www.w3.org/2000/svg" width="219" height="42" >
<path fill="#231F20" d="M10.323,4.268C8.188,16.661,2.18,28.399,3.292,41.167c0.097,1.115,1.848,1.125,1.75,0 C3.947,28.602,9.907,16.946,12.011,4.732C12.201,3.629,10.515,3.157,10.323,4.268L10.323,4.268 M28.059,5.078c-3.649,2.331-4.433,6.667-6.64,10.093c-0.914,1.417-2.054,2.623-3.239,3.804 c-0.937,0.943-2.018,1.666-3.244,2.168c-0.441,1.076-0.353,1.38,0.263,0.914c1.638-0.871,3.775-1.26,5.588-0.898 c3.024,0.604,1.222,5.967,1.654,8.006c0.367,1.731,0.961,3.082,2.136,4.407c1.292,1.456,3.93,2.432,5.823,1.771 c1.059-0.37,0.604-2.061-0.465-1.688c-3.5,1.222-5.633-3.224-5.887-5.894c-0.203-2.134,1.129-5.418-0.855-7.164 c-2.568-2.258-6.52-1.306-9.274,0.159c-2.794,1.485,0.542,2.47,2.362,1.704c2.818-1.186,4.923-4.012,6.65-6.407 c2.188-3.036,2.691-7.344,6.012-9.465C29.889,5.984,29.013,4.469,28.059,5.078L28.059,5.078 M34.333,30.042c3.804,0.144,11.744-0.728,11.708-6.042c-0.032-4.769-6.349-1.156-8.121,0.245 c-2.423,1.917-7.262,7.516-1.987,9.432c6.158,2.237,14.153-4.504,18.577-7.867c4.156-3.159,11.586-7.974,12.95-13.426 c1.207-4.82-4.537-9.171-7.27-3.845c-2.362,4.605-2.412,13.23-0.299,17.9c3.121,6.896,9.558,1.331,12.893-2.321 c-0.458-0.354-0.916-0.707-1.374-1.06c-2.166,2.942-5.506,9.467,0.755,9.316c3.731-0.09,11.995-7.339,7.785-11.16 c-0.206,0.498-0.413,0.996-0.619,1.494c5.341,0.259,10.706-1.034,15.441-3.453c-0.428-0.329-0.857-0.659-1.285-0.988 c-0.736,2.25-3.642,11.061,1.383,10.217c2.821-0.474,5.771-4.484,7.682-6.302c1.438-1.369,2.916-2.704,4.634-3.712 c2.553-1.497,2.563,2.512,2.359,4.114c-0.152,1.199-0.72,10.594,2.529,6.434c0.947-1.212,1.55-2.798,2.122-4.206 c0.358-0.879,2.954-8.169,3.623-4.976c0.667,3.182,0.389,6.775,0.136,9.997c-0.088,1.126,1.662,1.117,1.75,0 c0.161-2.053,1.488-13.292-2.214-13.292c-2.44,0-3.652,4.562-4.339,6.227c-0.649,1.576-1.277,3.081-2.071,4.577 c-0.77,1.45-0.035,1.085-0.102,0.277c-0.112-1.367,0.072-2.784,0.212-4.142c0.487-4.753-1.069-9.187-6.168-5.708 c-3.167,2.161-5.681,5.227-8.584,7.709c-4.182,3.577-1.912-4.774-1.266-6.749c0.253-0.775-0.643-1.316-1.285-0.988 c-4.468,2.283-9.525,3.458-14.559,3.214c-0.751-0.037-1.175,0.989-0.619,1.494c1.169,1.062-0.578,3.87-1.097,4.721 c-0.497,0.815-8.002,5.937-7.385,1.893c0.275-1.803,1.622-3.671,2.69-5.124c0.594-0.806-0.712-1.785-1.374-1.06 c-2.681,2.935-8.058,8.354-10.303,2.208c-1.231-3.371-0.954-7.403-0.578-10.905c0.195-1.815,2.072-9.058,4.58-5.001 c1.465,2.37-0.061,4.445-1.567,6.109c-2.561,2.829-5.508,5.334-8.456,7.744c-3.348,2.736-6.92,5.226-10.738,7.259 c-2.084,1.11-12.011,4.102-8.361-1.791c0.964-1.557,2.636-2.781,4.131-3.767c0.968-0.638,5.13-2.986,3.652,0.489 c-1.268,2.98-6.875,3.166-9.575,3.064C33.205,28.25,33.208,30,34.333,30.042L34.333,30.042 M94.323,10.566c0.111,0.278,0.222,0.556,0.333,0.833c0.177,0.443,0.578,0.749,1.076,0.611 c0.421-0.116,0.789-0.633,0.611-1.076c-0.111-0.278-0.222-0.556-0.333-0.833c-0.177-0.443-0.578-0.749-1.076-0.611 C94.513,9.605,94.146,10.123,94.323,10.566L94.323,10.566 M142.715,11.881c-0.752,0.915-1.188,2.162-1.679,3.219c-2.665,5.739-5.009,11.637-7.38,17.501 c-0.423,1.047,1.271,1.497,1.688,0.465c2.315-5.727,4.626-11.466,7.203-17.083c0.296-0.643,1.401-2.859,1.406-2.865 C144.663,12.255,143.433,11.009,142.715,11.881L142.715,11.881 M134.256,17.441c1.252-1.747,3.068-3.183,4.799-4.409c2.105-1.491,4.453-2.595,6.873-3.464 c1.339-0.481,3.612-1.417,4.932-0.359c1.843,1.479-0.162,4.985-1.127,6.346c-2.162,3.051-5.904,4.343-9.5,3.601 c-1.102-0.227-1.57,1.459-0.465,1.688c4.257,0.878,8.26-0.53,11.056-3.86c1.796-2.14,3.393-5.744,1.784-8.405 c-2.238-3.701-8.742-0.202-11.293,1.064c-3.198,1.586-6.466,3.979-8.57,6.917C132.086,17.478,133.604,18.35,134.256,17.441 L134.256,17.441 M158.881,27.048c-1.664,1.869-4.287,5.709-0.768,7.099c3.078,1.216,6.255-2.858,7.838-4.758 c4.283-5.137,7.021-11.53,11.941-16.133c2.879-2.694,2.574,0.914,2.174,3.175c-0.757,4.282-2.39,8.451-3.91,12.503 c-0.379,1.009,1.054,1.396,1.6,0.674c2.649-3.507,5.406-6.938,8.234-10.303c2.043-2.431,4.152-4.815,6.42-7.04 c1.461-1.434,3.912-4.263,3.08-0.665c-0.254,1.098,1.434,1.564,1.688,0.465c1.759-7.604-5.179-1.93-7.518,0.488 c-4.857,5.02-9.208,10.602-13.416,16.172c0.533,0.225,1.066,0.449,1.6,0.674c0.406-1.083,8.53-24.006-0.112-18.247 c-3.982,2.653-6.559,7.708-9.098,11.569c-2.035,3.096-4.207,6.233-7.014,8.685c-3.311,2.892-3.644-0.714-1.501-3.121 C160.866,27.446,159.633,26.204,158.881,27.048L158.881,27.048 M204.411,10.892c-2.097,3.59-13.825,22.176-7.353,25.031c1.022,0.451,1.914-1.056,0.883-1.511 c-4.282-1.889,6.248-19.669,7.981-22.636C206.493,10.799,204.98,9.918,204.411,10.892L204.411,10.892 M198.953,13.786c2.893-2.312,15.392-10.84,17.031-4.548c1.798,6.896-5.605,12.858-11.817,12.387 c-1.126-0.085-1.118,1.665,0,1.75c7.807,0.592,15.031-6.608,13.505-14.602c-1.695-8.885-16.578,1.075-19.957,3.775 C196.834,13.253,198.08,14.483,198.953,13.786L198.953,13.786z"/>
</svg>