<?xml version="1.0" encoding="UTF-8" standalone="no"?>
<!-- Created with Inkscape (http://www.inkscape.org/) -->

<svg
   xmlns:dc="http://purl.org/dc/elements/1.1/"
   xmlns:cc="http://creativecommons.org/ns#"
   xmlns:rdf="http://www.w3.org/1999/02/22-rdf-syntax-ns#"
   xmlns:svg="http://www.w3.org/2000/svg"
   xmlns="http://www.w3.org/2000/svg"
   xmlns:sodipodi="http://sodipodi.sourceforge.net/DTD/sodipodi-0.dtd"
   xmlns:inkscape="http://www.inkscape.org/namespaces/inkscape"
   width="580"
   height="400"
   id="svg2"
   version="1.1"
   inkscape:version="0.48.1 r9760"
   sodipodi:docname="Loretta_Swit_-_signature.svg">
  <defs
     id="defs4" />
  <sodipodi:namedview
     id="base"
     pagecolor="#ffffff"
     bordercolor="#666666"
     borderopacity="1.0"
     inkscape:pageopacity="0.0"
     inkscape:pageshadow="2"
     inkscape:zoom="1.3364318"
     inkscape:cx="431.28526"
     inkscape:cy="214.78737"
     inkscape:document-units="px"
     inkscape:current-layer="layer1"
     showgrid="false"
     fit-margin-top="0"
     fit-margin-left="0"
     fit-margin-right="0"
     fit-margin-bottom="0"
     inkscape:window-width="1680"
     inkscape:window-height="973"
     inkscape:window-x="0"
     inkscape:window-y="0"
     inkscape:window-maximized="1" />
  <metadata
     id="metadata7">
    <rdf:RDF>
      <cc:Work
         rdf:about="">
        <dc:format>image/svg+xml</dc:format>
        <dc:type
           rdf:resource="http://purl.org/dc/dcmitype/StillImage" />
        <dc:title></dc:title>
      </cc:Work>
    </rdf:RDF>
  </metadata>
  <g
     inkscape:label="Layer 1"
     inkscape:groupmode="layer"
     id="layer1"
     transform="translate(-101.42857,-432.36221)">
    <path
       style="font-size:medium;font-style:normal;font-variant:normal;font-weight:normal;font-stretch:normal;text-indent:0;text-align:start;text-decoration:none;line-height:normal;letter-spacing:normal;word-spacing:normal;text-transform:none;direction:ltr;block-progression:tb;writing-mode:lr-tb;text-anchor:start;baseline-shift:baseline;color:#000000;fill:#000000;fill-opacity:1;stroke:none;stroke-width:2;marker:none;visibility:visible;display:inline;overflow:visible;enable-background:accumulate;font-family:Sans;-inkscape-font-specification:Sans"
       d="m 539.74107,443.23721 c -34.92437,4.62917 -69.55788,15.52894 -94.3125,27.90625 l -0.0312,0.0312 c -15.43663,8.57697 -29.58143,17.83679 -41.90625,28.625 0.62723,-7.32305 -0.55477,-14.27245 -4.96875,-19.90625 -8.83032,-11.2706 -23.20873,-15.16078 -39.25,-14 -16.04127,1.16078 -33.85832,7.33672 -50.03125,16.375 -14.92817,8.34264 -28.36347,19.14384 -38.40625,30.21875 -27.03063,30.18516 -32.61031,67.97782 -22.0517,103.17588 3.87658,12.92293 9.56313,24.95793 13.8955,36.88744 -10.62374,2.40526 -21.89152,5.26098 -31.88955,8.18365 -33.23767,9.7162 -69.134,29.06652 -93.63974,54.41336 -11.71492,12.117 -20.76706,25.70416 -25.75196,37.74587 -4.9849,12.04171 -5.51651,23.91315 0.25,34.4375 3.47338,6.3392 6.03245,11.80017 11.8125,17.5625 10.79243,10.75936 26.65361,22.17988 47,19.59375 14.32216,-1.82041 35.6728,-9.64262 56.4375,-23.09375 18.53541,-12.00701 36.5705,-28.53981 48.59375,-49.3125 3.13227,1.73126 6.28475,2.3688 9.3125,1.9375 4.6274,-0.65917 8.87698,-3.41864 12.65625,-7.0625 7.55854,-7.28772 13.3026,-18.12857 15.75,-23.84375 4.07239,-9.50991 0.9335,-21.339 -3.125,-30.78125 -2.02925,-4.72113 -4.30743,-8.83644 -6.125,-11.8125 -0.772,-1.26406 -1.3871,-2.19789 -1.9375,-3 9.56019,1.39822 19.67428,-0.99378 27.90625,-4.09375 4.45935,-1.67929 8.35285,-3.50747 11.3125,-5 1.47982,-0.74626 2.7371,-1.40506 3.6875,-1.90625 0.9504,-0.50119 1.6455,-0.85862 1.84375,-0.9375 2.31041,-0.91933 3.57782,-0.77773 4.34375,-0.15625 0.53689,0.43563 0.87126,1.41642 1.09375,2.625 -0.80553,2.34749 -1.73049,4.76545 -2.84375,7.15625 -5.26223,11.30096 -10.74289,22.94283 -14.0625,31.4375 -1.6598,4.24733 -2.78077,7.65071 -3.0625,10.03125 -0.14087,1.19027 -0.17227,2.20631 0.5,3.03125 0.33613,0.41247 0.88227,0.66386 1.40625,0.6875 0.52398,0.0236 1.01043,-0.11449 1.53125,-0.34375 0.34999,-0.15406 0.53273,-0.32845 0.71875,-0.53125 0.18602,-0.2028 0.36296,-0.43693 0.5625,-0.71875 0.39909,-0.56364 0.85665,-1.30993 1.375,-2.21875 1.03669,-1.81765 2.31229,-4.30753 3.6875,-7.21875 2.75041,-5.82244 5.89058,-13.35542 8.34375,-20.625 2.45317,-7.26958 4.22852,-14.21638 4.09375,-19.125 -0.0126,-0.45878 -0.13942,-0.8218 -0.1875,-1.25 1.32805,-3.89033 2.11423,-7.5221 2.625,-10.875 0.43373,2.55861 0.90781,5.31374 1.0625,7.09375 0.18562,2.13593 1.72801,3.61248 3.5625,4.3125 0.0779,0.0297 0.17086,0.0349 0.25,0.0625 -0.1565,0.33296 -0.3494,0.56183 -0.5,0.90625 -3.91651,8.95712 -5.62664,21.79731 1.28125,30.3125 0.29694,0.36603 0.79743,0.62559 1.25,0.65625 0.45257,0.0307 0.84385,-0.0805 1.21875,-0.25 0.74979,-0.33894 1.47088,-0.93144 2.28125,-1.6875 1.62075,-1.51211 3.53058,-3.75871 5.5,-6.28125 2.44413,-3.13057 4.26003,-5.79933 6.34375,-8.71875 1.45256,2.79839 2.85008,5.62022 4.40625,8.375 15.86082,23.53925 31.97008,43.47154 47.25,64.9375 -2.56963,1.6408 -4.97683,3.13414 -7.75,5 -9.48707,6.38315 -19.50909,13.91946 -25.28125,21.78125 -7.12929,9.71023 -8.24269,22.47132 -0.46875,36.09375 3.41377,5.98201 8.82365,7.74457 14,7.375 5.17635,-0.36957 10.21192,-2.69369 13.59375,-4.71875 15.30745,-9.1662 22.90189,-28.67358 17.1875,-48.84375 -1.56923,-5.53893 -4.70989,-10.77561 -8.4375,-16.15625 5.41313,-3.43033 10.21794,-6.44347 12.6875,-8.4375 0.74,-0.5975 2.09828,-1.98857 3.90625,-3.84375 1.80797,-1.85518 3.99858,-4.11872 6.1875,-6.34375 2.18892,-2.22503 4.35994,-4.41066 6.09375,-6 0.5334,-0.48896 0.91064,-0.79347 1.34375,-1.15625 -0.21821,0.80466 -0.41743,1.59129 -0.71875,2.71875 -0.83817,3.13623 -1.93573,7.32655 -2.78125,11.53125 -0.84552,4.2047 -1.4651,8.40615 -1.375,11.6875 0.0451,1.64068 0.25474,3.05151 0.8125,4.1875 0.55776,1.13599 1.67257,2 3,2 0.91122,0 1.70333,-0.43645 2.5625,-1.0625 0.85917,-0.62605 1.76955,-1.48433 2.71875,-2.5625 1.8984,-2.15635 3.94339,-5.16686 5.75,-8.6875 2.63335,-5.13176 5.0307,-11.13177 6.96875,-16.25 1.93805,-5.11823 3.47532,-9.45064 4.15625,-10.8125 0.22886,-0.45774 1.04795,-1.52001 1.75,-2.21875 0.008,10.37866 0.0705,18.5897 0.34375,23.5625 0.14389,2.61833 0.32446,4.43532 0.625,5.59375 0.0751,0.28961 0.159,0.53738 0.28125,0.78125 0.12225,0.24387 0.25488,0.51814 0.65625,0.71875 0.40137,0.20061 0.99424,0.0798 1.28125,-0.125 0.28701,-0.20482 0.42395,-0.4198 0.5625,-0.65625 0.58759,-1.00278 0.80211,-2.33888 1.03125,-4.09375 0.22914,-1.75487 0.43746,-3.88658 0.6875,-6.28125 0.50008,-4.78934 1.24406,-10.57591 3.09375,-16.03125 2.07446,-6.11825 6.46731,-11.08919 10.625,-14 2.07885,-1.4554 4.0992,-2.38293 5.65625,-2.71875 0.77852,-0.16791 1.44005,-0.18872 1.90625,-0.0937 0.4662,0.095 0.71685,0.27244 0.90625,0.53125 1.18733,1.62251 1.37136,3.85916 0.96875,6.53125 -0.40261,2.67209 -1.37476,5.69694 -2.28125,8.65625 -0.90649,2.95931 -1.7487,5.84206 -1.78125,8.4375 -0.0325,2.59544 0.93655,5.0464 3.46875,6.3125 1.30271,0.65136 2.84382,0.4395 4.375,-0.28125 1.53118,-0.72075 3.12266,-1.97629 4.75,-3.6875 3.25469,-3.42242 6.61923,-8.7192 9.21875,-15.5 0.22307,-0.58186 0.43442,-1.30714 0.65625,-1.90625 0.17451,5.06891 1.06835,9.21842 3.125,12.125 1.44812,2.04656 3.50211,3.44601 6.09375,3.96875 2.59164,0.52274 5.69285,0.237 9.375,-0.90625 14.72861,-4.57299 39.34337,-22.59943 79.90625,-60.46875 0.49105,-0.31569 0.58843,-1.09774 0.18978,-1.52421 -0.39865,-0.42646 -1.18549,-0.38197 -1.53353,0.0867 -40.4971,37.80791 -65.26137,55.68587 -79.15625,60 -3.47372,1.07853 -6.23911,1.30581 -8.375,0.875 -2.13589,-0.43081 -3.68434,-1.47354 -4.875,-3.15625 -2.33835,-3.30469 -3.11474,-9.31492 -2.65625,-17.09375 5.11159,-15.23593 9.80852,-33.97769 13.40625,-50.21875 2.11966,-9.5687 3.85914,-18.18599 5.09375,-24.5 0.61731,-3.157 1.12347,-5.72205 1.46875,-7.5625 0.34528,-1.84045 0.54307,-3.032 0.5625,-3.125 3.54865,-16.98585 3.64144,-30.21412 3,-38.40625 -0.32072,-4.09607 -0.81743,-6.94054 -1.15625,-8.375 -0.0847,-0.35862 -0.17851,-0.60057 -0.25,-0.8125 -0.0357,-0.10596 -0.0472,-0.20119 -0.125,-0.34375 -0.0389,-0.0713 -0.0432,-0.14644 -0.3125,-0.34375 -0.0673,-0.0493 -0.14711,-0.11368 -0.28125,-0.15625 -0.13414,-0.0426 -0.49867,-0.0315 -0.5,-0.0312 -10e-4,2.6e-4 -0.35767,0.12326 -0.46875,0.21875 -0.11108,0.0955 -0.17529,0.20545 -0.21875,0.28125 -0.17386,0.30321 -0.15092,0.38613 -0.15625,0.46875 -0.005,0.0826 -0.003,0.13139 0,0.1875 0.006,0.11221 0.0436,0.21565 0.0625,0.34375 0.031,0.20974 0.0878,0.51921 0.15625,0.84375 0.84631,18.79941 -4.16603,43.47076 -9.6875,67.4375 -5.52147,23.96674 -11.54188,47.21427 -12.59375,63.5625 -0.004,0.0659 0.004,0.12185 0,0.1875 -0.86971,2.58202 -1.73603,5.30614 -2.625,7.625 -2.51766,6.56725 -5.76632,11.67344 -8.78125,14.84375 -1.50747,1.58515 -2.95372,2.68395 -4.15625,3.25 -1.20253,0.56605 -2.05456,0.59772 -2.625,0.3125 -1.86085,-0.93042 -2.40215,-2.33523 -2.375,-4.5 0.0272,-2.16477 0.789,-4.97304 1.6875,-7.90625 0.8985,-2.93321 1.93483,-6.01614 2.375,-8.9375 0.44017,-2.92136 0.29581,-5.75951 -1.34375,-8 -0.51238,-0.70018 -1.28637,-1.14165 -2.125,-1.3125 -0.83863,-0.17085 -1.74822,-0.11557 -2.71875,0.0937 -1.94106,0.41864 -4.163,1.492 -6.40625,3.0625 -4.4865,3.14101 -9.10143,8.35545 -11.34375,14.96875 -1.93335,5.7021 -2.71417,11.63626 -3.21875,16.46875 -0.25229,2.41624 -0.43655,4.56748 -0.65625,6.25 -0.047,0.36036 -0.10206,0.4019 -0.15625,0.71875 -0.10502,-0.90649 -0.23634,-1.42661 -0.3125,-2.8125 -0.28255,-5.14137 -0.375,-13.47708 -0.375,-24.6875 0,-0.35078 -0.0805,-0.81536 -0.53125,-1.15625 -0.45075,-0.34089 -0.98098,-0.26071 -1.28125,-0.15625 -0.60054,0.20892 -0.98489,0.56961 -1.4375,1 -0.90523,0.86079 -1.78606,1.97835 -2.25,2.90625 -0.87586,1.75171 -2.32192,5.87683 -4.25,10.96875 -1.92808,5.09192 -4.30644,11.05698 -6.875,16.0625 -1.73695,3.38491 -3.70912,6.25127 -5.46875,8.25 -0.87982,0.99936 -1.71938,1.78075 -2.40625,2.28125 -0.68687,0.5005 -1.23088,0.6875 -1.375,0.6875 -0.60998,0 -0.84951,-0.18662 -1.1875,-0.875 -0.33799,-0.68838 -0.58418,-1.88818 -0.625,-3.375 -0.0816,-2.97363 0.51219,-7.11472 1.34375,-11.25 0.83156,-4.13528 1.91651,-8.2875 2.75,-11.40625 0.41675,-1.55938 0.7545,-2.86121 1,-3.78125 0.12275,-0.46002 0.21908,-0.7929 0.28125,-1.0625 0.0311,-0.1348 0.0452,-0.25485 0.0625,-0.375 0.009,-0.0601 0.0359,-0.11457 0.0312,-0.25 -0.002,-0.0677 0.0153,-0.14626 -0.0625,-0.34375 -0.0389,-0.0987 -0.28012,-0.37399 -0.28125,-0.375 -0.001,-0.001 -0.65478,-0.28125 -0.65625,-0.28125 -0.47619,0 -0.7427,0.15207 -1.03125,0.3125 -0.28855,0.16043 -0.57511,0.37507 -0.90625,0.625 -0.66229,0.49987 -1.4511,1.18173 -2.34375,2 -1.78531,1.63654 -3.98847,3.82719 -6.1875,6.0625 -2.19903,2.23531 -4.38632,4.5268 -6.1875,6.375 -1.80118,1.8482 -3.27601,3.29876 -3.71875,3.65625 -2.25465,1.82051 -7.08935,4.86635 -12.5625,8.34375 -15.38226,-23.40934 -35.38693,-44.33062 -47.25,-64.8125 -1.70186,-3.01267 -3.20615,-6.09332 -4.78125,-9.15625 0.68361,-0.9568 1.80752,-2.50209 2.3125,-3.1875 2.67516,5.2741 6.54155,9.28057 11.96875,11 3.0492,0.96604 6.37012,-0.77128 9.65625,-3.5625 3.28613,-2.79122 6.64527,-6.77237 9.78125,-11.03125 2.1165,-2.87436 3.84191,-5.66609 5.625,-8.46875 1.92645,2.16637 4.25822,3.933 6.9375,5.21875 8.78072,4.21374 20.76396,4.00462 31.8125,0.9375 11.04854,-3.06712 21.21079,-9.00271 26.15625,-16.75 2.47273,-3.87365 3.60752,-8.24312 2.78125,-12.8125 -0.82627,-4.56938 -3.57855,-9.26795 -8.6875,-13.9375 -7.19289,-6.57426 -19.34222,-12.0506 -33.90625,-16.21875 6.70807,-17.24746 13.20494,-34.50473 21.5,-52.1875 11.68683,-3.46848 24.40331,-7.38538 35.15625,-10.53125 20.91972,-6.12026 85.52801,-28.27485 120.6875,-52.71875 11.1786,-7.77169 19.02937,-16.19283 21.9375,-24.15625 1.45407,-3.98171 1.64554,-7.90554 0.28125,-11.4375 -1.36429,-3.53196 -4.26063,-6.62479 -8.71875,-9.09375 l -0.0312,0 c -24.04314,-12.90058 -62.84428,-14.24328 -96.0001,-9.93744 z m 95.06255,11.6875 c 0.0145,0.008 0.0168,0.0232 0.0312,0.0312 4.1365,2.30029 6.62067,5.02666 7.78125,8.03125 1.16463,3.01507 1.04958,6.387 -0.28125,10.03125 -2.66166,7.28851 -10.23986,15.55466 -21.21875,23.1875 -34.67893,24.10979 -99.36035,46.37174 -120.09375,52.4375 -10.22751,2.99215 -22.35362,6.71349 -33.4375,10 9.93714,-27.32314 17.96507,-50.84907 25.65429,-75.81511 1.07076,-3.52859 1.759,-8.17286 2.0472,-11.18489 0.2882,-3.01203 -0.5596,-5.60811 -2.13899,-7.1875 -0.44551,-0.44551 -1.10946,-0.63298 -1.6875,-0.59375 -0.57804,0.0392 -1.12135,0.24283 -1.6875,0.53125 -1.1323,0.57684 -2.38632,1.5584 -3.78125,2.8125 -12.09764,10.30838 -21.90905,22.62838 -30.125,36.0625 -2.56241,4.17448 -5.86274,9.89549 -9.5625,16.6875 -7.39952,13.58402 -16.3648,31.50168 -23.96875,50.21875 -0.3071,0.75593 -0.57248,1.52303 -0.875,2.28125 -1.88066,0.57531 -3.5563,1.04679 -5.4375,1.625 0.53628,-3.98643 0.88483,-7.71036 0.8125,-10.71875 -0.0974,-4.05301 -0.72121,-7.15871 -2.53125,-8.96875 l -0.0312,-0.0312 c -0.46948,-0.43975 -1.30111,-0.53077 -1.84375,-0.3125 -0.55417,0.22291 -0.94129,0.61458 -1.375,1.09375 -0.86743,0.95834 -1.80505,2.37003 -2.8125,4.1875 -2.0149,3.63493 -4.3547,8.8005 -6.65625,14.1875 -0.86078,2.01474 -1.5476,3.80107 -2.375,5.8125 -14.0009,4.37287 -27.65304,8.72347 -40.9375,13.09375 0.34562,-6.15788 0.99541,-12.27313 2.3125,-18.25 7.46273,-7.69087 14.49032,-15.74609 20.5,-24.3125 4.36217,-6.218 12.5948,-18.56777 17.84375,-31.90625 1.95597,-4.97045 3.4868,-10.11236 4.25,-15.125 12.56633,-11.2908 27.09002,-20.97797 43.15625,-29.90625 0.008,-0.004 0.0231,0.004 0.0312,0 24.50522,-12.24836 58.97872,-23.1223 93.65625,-27.71875 30.84237,-3.85402 68.57252,-2.4528 94.7813,9.71875 z m -143.21875,10.9375 c 0.16395,-0.0111 0.1401,-0.0161 0.15625,0 0.7571,0.7571 1.14143,2.80924 0.875,5.59375 -0.26643,2.78451 -1.07673,6.23303 -2.125,9.6875 -7.7487,26.44182 -17.05412,54.52176 -25.5,78.28125 -13.69319,4.06572 -26.90532,7.97133 -41.125,12.3125 0.10879,-0.26951 0.20313,-0.54329 0.3125,-0.8125 7.56552,-18.62248 16.50501,-36.50143 23.875,-50.03125 3.685,-6.76491 6.96073,-12.42573 9.5,-16.5625 8.54636,-13.5914 18.30194,-25.36892 29.78125,-35.65625 1.32859,-1.19445 2.50516,-2.07279 3.34375,-2.5 0.4193,-0.21361 0.7423,-0.30137 0.90625,-0.3125 z m -132.15625,2 c 15.63653,-1.13149 29.17996,2.63068 37.5,13.25 4.46648,5.70081 5.42677,13.03442 4.34375,20.84375 -19.38974,17.61429 -34.14665,39.21707 -41.9375,68.53125 -0.22683,0.89862 -0.38991,1.81549 -0.59375,2.71875 -10.74224,11.01512 -22.50974,21.18413 -34.125,30.5625 -0.0789,0.0277 -0.17112,0.066 -0.25,0.0937 -5.95509,2.0947 -15.2335,4.79437 -24.25,7.78125 -9.0165,2.98688 -17.74535,6.22236 -22.8125,9.5 -0.14211,0.0919 -0.36843,0.2842 -0.4375,0.65625 -0.0691,0.37205 0.10257,0.70102 0.21875,0.84375 0.23236,0.28545 0.33988,0.29913 0.4375,0.34375 0.19525,0.0892 0.33857,0.10469 0.53125,0.15625 0.38537,0.10312 0.86241,0.21421 1.375,0.3125 0.51259,0.0983 1.04564,0.18245 1.46875,0.25 0.21156,0.0338 0.41376,0.0735 0.5625,0.0937 0.14874,0.0203 0.17976,0.0312 0.40625,0.0312 7.81953,-0.008 14.38985,-1.00704 21.1875,-2.46875 0.0649,0.7174 1.06496,1.14051 1.625,0.6875 0.54279,-0.42075 1.13969,-0.91916 1.6875,-1.34375 8.31431,-1.97724 17.32646,-4.69409 29.6875,-7.75 6.63237,-1.63966 13.45943,-2.90477 20.375,-3.8125 1.20956,16.96902 5.36419,34.17465 11.90625,51.03125 -2.0054,1.27788 -3.85968,3.89995 -5.53125,6.96875 -0.17595,-0.0508 -0.40091,-0.0633 -0.5625,-0.125 -1.37849,-0.52601 -2.1647,-1.25264 -2.28125,-2.59375 -0.22765,-2.61957 -0.89024,-6.61336 -1.5,-9.96875 -0.30488,-1.67769 -0.59877,-3.18972 -0.8125,-4.28125 -0.10687,-0.54577 -0.18925,-0.97958 -0.25,-1.28125 -0.0304,-0.15084 -0.0464,-0.26536 -0.0625,-0.34375 -0.006,-0.0274 -0.0274,-0.044 -0.0312,-0.0625 -0.002,-0.008 10e-4,-0.0248 0,-0.0312 -0.002,-0.0108 0.003,-0.0197 0,-0.0312 -0.001,-0.006 0.008,-8e-4 0,-0.0312 -0.004,-0.0152 -0.28123,-0.46873 -0.28125,-0.46875 -2e-5,-2e-5 -1.69057,0.82226 -1.6875,0.84375 0.004,0.0255 -0.004,0.068 0,0.0937 0.4973,3.61915 -0.28473,9.56384 -2.21875,16.15625 -0.25174,-0.37509 -0.39707,-0.83863 -0.75,-1.125 -1.49317,-1.21157 -3.69661,-1.24081 -6.34375,-0.1875 -0.46812,0.18627 -1.07861,0.52888 -2.03125,1.03125 -0.95264,0.50237 -2.19631,1.13877 -3.65625,1.875 -2.91988,1.47247 -6.75774,3.29289 -11.125,4.9375 -8.73452,3.28922 -19.55141,5.86589 -29.15625,3.75 -0.021,-0.004 -0.008,0.004 -0.0312,0 l -0.1875,0.96875 -0.21875,0.96875 c -0.27465,-0.0707 -0.34931,-0.16544 -0.375,-0.1875 -0.03,-0.0257 -0.0422,-0.0118 -0.0312,0 0.0219,0.0235 0.0801,0.0915 0.15625,0.1875 0.15228,0.19201 0.37705,0.50904 0.65625,0.90625 0.55841,0.79442 1.3307,1.95216 2.21875,3.40625 1.77611,2.90817 4.01849,6.9837 6,11.59375 3.96302,9.22011 6.80881,20.55377 3.125,29.15625 -2.36116,5.51382 -8.07871,16.27428 -15.28125,23.21875 -3.60127,3.47223 -7.55046,5.95974 -11.5625,6.53125 -2.63584,0.37547 -5.34364,-0.15317 -8.125,-1.71875 9.27392,-12.08408 13.19701,-24.11396 11.40451,-37.85883 -0.42448,-3.00073 -0.73864,-6.08963 -1.46993,-8.9774 5.48873,-10.43656 11.99869,-22.1827 15.38305,-33.06638 1.26248,-4.18385 2.11524,-7.66317 1.6083,-10.8292 -0.50694,-3.16603 -3.15647,-6.10775 -6.23843,-7.51819 -11.68925,-3.24924 -22.27994,-2.32998 -32.10681,-0.0218 -4.3401,-11.92313 -9.86012,-24.60334 -12.77117,-37.75942 -10.01021,-33.63637 -5.14769,-72.12006 20.09668,-100.46875 9.88181,-10.8974 23.1754,-21.58013 37.90625,-29.8125 15.96478,-8.92196 33.58222,-15.02476 49.21875,-16.15625 z m 41.21875,37.40625 c -0.81446,3.95316 -1.99738,7.99152 -3.5625,11.96875 -5.1415,13.06542 -13.29883,25.30208 -17.625,31.46875 -5.33601,7.60614 -11.4712,14.84797 -18.03125,21.78125 7.45356,-27.67179 21.17356,-48.27787 39.21875,-65.21875 z m 12.375,50.8125 c 1.02207,1.1874 1.72437,3.67838 1.8125,7.34375 0.0737,3.06622 -0.29729,6.99363 -0.90625,11.28125 -4.14709,1.27708 -8.08674,2.52523 -12.21875,3.8125 0.60907,-1.46794 1.09598,-2.76109 1.71875,-4.21875 2.28961,-5.35905 4.61783,-10.46051 6.5625,-13.96875 0.97233,-1.75412 1.876,-3.11982 2.53125,-3.84375 0.24411,-0.2697 0.38193,-0.32739 0.5,-0.40625 z m 50.8125,5.78125 c -8.00593,17.2755 -14.32092,34.10484 -20.84375,50.875 -7.40942,-2.0204 -15.22046,-3.80588 -23.71875,-5.03125 -2.31154,-0.3333 -4.78693,-0.45139 -7.15625,-0.71875 2.7096,-10.67333 6.46898,-21.82438 10.84375,-32.875 14.13274,-4.31998 27.22951,-8.19461 40.875,-12.25 z m -43.28125,12.96875 c -4.20242,10.74296 -7.81446,21.56019 -10.4375,31.96875 -0.4586,-0.0478 -0.91457,-0.111 -1.375,-0.15625 2.81413,-10.1557 5.31978,-20.05823 6.71875,-28.40625 0.11771,-0.70243 0.17714,-1.28754 0.28125,-1.96875 1.66408,-0.51187 3.14849,-0.92782 4.8125,-1.4375 z m -62.59375,2.03125 c -1.01955,5.34551 -1.44606,10.78073 -1.71875,16.25 -9.07328,2.99491 -18.02491,5.98401 -26.4375,8.90625 9.579,-7.85714 19.17014,-16.15258 28.15625,-25.15625 z m 55.65625,0.0312 c -0.0564,0.35259 -0.0649,0.64164 -0.125,1 -1.39551,8.32741 -3.90847,18.3334 -6.75,28.5625 -5.33623,-0.47872 -10.71177,-0.75537 -16.21875,-0.875 0.93234,-2.22964 1.79427,-4.58854 2.8125,-6.625 0.61355,-1.22711 1.93697,-4.61926 3.75,-9.15625 1.03467,-2.58921 2.37914,-5.80223 3.625,-8.84375 4.35621,-1.35927 8.53066,-2.71396 12.90625,-4.0625 z m -15.40625,4.84375 c -1.00871,2.47936 -2.14599,5.17538 -3,7.3125 -1.814,4.53942 -3.20267,8.09283 -3.65625,9 -1.15654,2.31308 -2.14326,4.95682 -3.1875,7.5 -9.98881,-0.12744 -20.08146,0.16278 -30.09375,1.375 -0.23366,-4.14352 -0.25135,-8.25127 -0.0937,-12.34375 12.99702,-4.28061 26.3196,-8.5543 40.03125,-12.84375 z m -42.0625,13.5 c -0.12986,3.94872 -0.0711,7.91656 0.15625,11.90625 -7.02631,0.91885 -13.967,2.17457 -20.71875,3.84375 -10.56398,2.61164 -18.03868,4.79855 -25.28125,6.65625 5.02704,-3.90442 10.06925,-7.8666 15.3125,-12.09375 9.55275,-3.35569 20.05397,-6.85014 30.53125,-10.3125 z m 201.46875,1.71875 c -0.0109,7.67254 -0.71169,17.52434 -3.1875,29.375 -0.0592,0.28331 -0.24915,1.31941 -0.59375,3.15625 -0.3446,1.83684 -0.85263,4.41157 -1.46875,7.5625 -1.23223,6.30185 -2.94752,14.88992 -5.0625,24.4375 -2.83255,12.78683 -6.37773,27.15735 -10.21875,40.125 2.20379,-14.9882 6.80858,-33.7107 11.28125,-53.125 4.05949,-17.62083 7.84969,-35.58776 9.25,-51.53125 z m -252.09375,21.875 c -9.22799,0.7849 -17.13611,2.09789 -24.9375,2.7813 4.9249,-2.67957 12.67932,-4.0872 20.48694,-6.67361 7.20785,-2.38773 11.44552,-3.9653 17.21643,-5.85136 1.71912,-1.33564 -12.46355,9.90431 -12.76587,9.74367 z m 72.3125,-11.40625 c 3.25807,-0.10496 6.45178,0.0951 9.6875,0.125 -5.36265,13.7607 -9.0555,29.99459 -9.4375,44.59375 -0.23661,9.04254 0.75004,17.38573 3.375,24.0625 0.0825,0.20978 0.19538,0.38727 0.28125,0.59375 -0.0612,0.0937 -0.22954,0.52407 -0.28125,0.59375 -0.42903,0.57811 -1.4369,1.9648 -2,2.75 -2.12476,-4.22178 -4.08095,-8.48776 -5.9375,-12.78125 0.65458,-0.45369 1.25835,-0.93953 1.625,-1.59375 0.40936,-0.73044 0.54192,-1.6425 0.25,-2.5 -0.64894,-1.90624 -1.63216,-3.21831 -2.96875,-3.75 -0.72819,-0.28967 -1.49113,-0.29917 -2.25,-0.125 -6.47633,-16.71006 -10.59391,-33.7216 -11.78125,-50.46875 6.44379,-0.78272 12.94987,-1.291 19.4375,-1.5 z m 11.84375,0.15625 c 5.61021,0.10268 11.09598,0.33377 16.53125,0.8125 -0.86816,3.07471 -1.62738,6.06034 -2.5625,9.15625 -4.25642,14.0917 -9.09061,28.08767 -13.21875,39.0625 -2.06407,5.48742 -3.93769,10.2061 -5.5,13.8125 -0.88073,2.03307 -1.30099,2.69749 -1.9375,3.9375 -2.1858,-6.14256 -3.12532,-13.8152 -2.90625,-22.1875 0.38121,-14.56901 4.16724,-30.90692 9.59375,-44.59375 z m 18.53125,1.03125 c 0.46985,0.0454 0.93831,0.0769 1.40625,0.125 -1.35861,5.64554 -2.50779,11.18373 -3.125,16.40625 -1.98144,16.76588 0.29316,30.98334 10.1875,38.6875 0.47501,0.36987 0.936,0.49835 1.40625,0.78125 0.13684,0.20889 0.23106,0.454 0.375,0.65625 -1.84038,2.91492 -3.64512,5.88909 -5.84375,8.875 -3.08452,4.18901 -6.39071,8.10427 -9.46875,10.71875 -3.07804,2.61448 -5.84914,3.76838 -7.78125,3.15625 -5.27378,-1.67083 -8.91627,-5.66658 -11.40625,-11.25 0.80157,-1.39187 1.58823,-2.80855 2.78125,-5.5625 1.58176,-3.6513 3.49001,-8.39645 5.5625,-13.90625 4.14498,-11.01961 8.97887,-25.0471 13.25,-39.1875 0.9691,-3.20839 1.75862,-6.31399 2.65625,-9.5 z m 3.40625,0.34375 c 2.44113,0.27233 4.99623,0.37576 7.375,0.71875 8.3314,1.20131 15.99211,2.95802 23.25,4.9375 -1.84043,4.71059 -3.63984,9.41054 -5.59375,14.125 -0.061,-1.17944 0.008,-2.54011 -0.125,-3.59375 -0.33783,-2.68442 -0.8761,-4.92319 -1.78125,-6.5 -0.45258,-0.78841 -1.00813,-1.42621 -1.75,-1.8125 -0.74187,-0.38629 -1.66474,-0.43023 -2.5,-0.125 -5.79053,2.11607 -9.13505,6.5201 -11.21875,11.65625 -2.0837,5.13615 -2.98154,11.02379 -4,16.5 -1.15907,6.23228 -0.74239,11.4089 0.8125,15.65625 -7.47313,-7.38538 -9.42504,-19.89401 -7.625,-35.125 0.6148,-5.20213 1.78231,-10.76794 3.15625,-16.4375 z m 32.5625,6.25 c 14.48056,4.14623 26.45007,9.53759 33.28125,15.78125 4.88084,4.46106 7.36365,8.77497 8.09375,12.8125 0.7301,4.03753 -0.24012,7.86605 -2.5,11.40625 -4.51975,7.08039 -14.29406,12.90298 -25,15.875 -10.70594,2.97202 -22.29875,3.07817 -30.40625,-0.8125 -2.29774,-1.10265 -4.27467,-2.55575 -5.9375,-4.3125 0.71702,0.0935 1.44248,0.2775 2.125,0.15625 2.22798,-0.39582 4.10076,-1.85211 5.65625,-3.90625 3.11098,-4.10827 5.15497,-10.69075 6.3125,-17.59375 0.63211,-3.76959 0.91026,-7.55243 1,-11.15625 2.58966,-6.09927 5.00173,-12.17548 7.375,-18.25 z m -13,3.375 c 0.4045,-0.14782 0.60586,-0.10889 0.875,0.0312 0.26914,0.14014 0.60714,0.45574 0.9375,1.03125 0.66073,1.15101 1.24267,3.20867 1.5625,5.75 0.27787,2.20795 0.30454,4.88355 0.25,7.65625 -2.90349,6.82633 -5.96007,13.67015 -9.40625,20.5625 -0.73623,1.47247 -2.8996,5.2556 -5.625,9.6875 -0.0677,-0.034 -0.15025,-0.0571 -0.21875,-0.0937 -0.37605,-0.60248 -0.75273,-1.18016 -1.0625,-1.84375 -1.9006,-4.07149 -2.50514,-9.37617 -1.25,-16.125 1.02643,-5.51905 1.91851,-11.30239 3.875,-16.125 1.95649,-4.82261 4.86736,-8.63276 10.0625,-10.53125 z m 3.15625,20.625 c -0.17133,1.70067 -0.21637,3.37109 -0.5,5.0625 -1.12757,6.72428 -3.20625,13.11193 -5.9375,16.71875 -1.36563,1.80341 -2.83195,2.87656 -4.40625,3.15625 -0.54705,0.0972 -1.17186,-0.0222 -1.78125,-0.125 2.63951,-4.30977 4.69814,-7.99003 5.46875,-9.53125 2.56399,-5.12798 4.91448,-10.20331 7.15625,-15.28125 z m -150.5,12.65625 c 4.91832,-0.053 9.15995,0.5456 12.40625,2.03125 2.53328,1.15934 3.75975,3.01604 4.1875,5.6875 0.42775,2.67146 -0.066,6.16017 -1.28125,10.1875 -4.10818,10.39055 -9.67963,22.73651 -13.49702,30.15327 -2.06289,-7.23705 -4.26387,-11.96464 -6.73545,-17.81101 -4.00127,-9.46472 -8.96739,-17.49288 -13.08582,-27.91204 0.68664,-0.14591 0.9513,-0.26417 1.63079,-0.39897 5.85553,-1.16165 11.45668,-1.88448 16.375,-1.9375 z m -20.40625,2.9375 c 4.03665,10.9038 8.31191,20.88417 12.25,28.8125 2.43411,4.90045 5.36597,12.10659 7.4375,20 -4.53428,8.45728 -8.97376,16.85565 -11.84375,24.15625 -1.7428,4.43329 -2.94699,8.4987 -3.21875,12 -0.27176,3.5013 0.39573,6.55198 2.5,8.65625 1.06234,1.06234 2.14077,1.90298 3.21875,2.65625 -11.8234,20.43059 -32.06292,35.15602 -50.4006,47.03495 -20.53576,13.30282 -39.12135,21.00489 -52.97483,22.76573 -19.48655,2.47683 -32.18611,-6.35823 -42.78712,-16.92677 -5.54303,-5.52605 -8.43031,-11.72367 -11.93642,-18.12261 -5.43954,-9.92761 -6.23086,-20.24686 -1.40342,-31.9082 4.82744,-11.66134 13.0568,-24.03618 25.09614,-35.56185 24.07867,-23.05134 59.30603,-43.76729 92.3125,-54.53125 9.99167,-3.25845 21.14959,-6.65105 31.75,-9.03125 z m 107.4375,6.5 c 0.29292,-0.0293 0.57389,-0.0324 0.8125,0.0625 0.58681,0.23343 1.26997,0.93759 1.8125,2.53125 0.11535,0.33882 0.0898,0.57867 -0.0937,0.90625 -0.11637,0.20764 -0.44362,0.44972 -0.71875,0.6875 -0.58948,-1.39727 -1.25373,-2.7846 -1.8125,-4.1875 z m -1.8125,0.90625 c 0.57405,1.43727 1.26923,2.85031 1.875,4.28125 -1.03615,0.434 -2.20681,0.80615 -3.5,0.96875 -0.85381,0.10735 -1.71051,0.10938 -2.53125,0.0625 1.39665,-2.39109 2.82586,-4.3438 4.15625,-5.3125 z m 2.6875,6.09375 c 1.98921,4.58962 4.08574,9.15318 6.375,13.65625 -2.17863,3.05321 -4.29106,6.08783 -6.90625,9.4375 -1.94007,2.48494 -3.82042,4.66833 -5.28125,6.03125 -0.73042,0.68146 -1.34762,1.14473 -1.71875,1.3125 -0.12371,0.0559 -0.1503,0.0557 -0.1875,0.0625 -6.05626,-7.61451 -4.60355,-19.6692 -0.90625,-28.125 0.21542,-0.49267 0.48886,-0.81581 0.71875,-1.28125 1.25163,0.16378 2.5498,0.19395 3.84375,0.0312 1.46916,-0.18473 2.82008,-0.59671 4.0625,-1.125 z m -19.5,5.125 c -0.54025,4.10961 -1.94288,9.33239 -3.75,14.6875 -2.42042,7.17251 -5.56263,14.6511 -8.28125,20.40625 -1.35931,2.87757 -2.62818,5.31475 -3.625,7.0625 -0.49841,0.87387 -0.91381,1.5877 -1.25,2.0625 -0.16809,0.2374 -0.33953,0.42445 -0.4375,0.53125 -0.098,0.1068 -0.15851,0.10102 0,0.0312 -0.33103,0.14571 -0.54807,0.18744 -0.625,0.1875 4e-4,-0.0124 -0.1761,-0.5089 -0.0625,-1.46875 0.23202,-1.96048 1.33214,-5.37452 2.96875,-9.5625 3.27322,-8.37595 8.7354,-20.00645 14,-31.3125 0.41162,-0.88399 0.69096,-1.74358 1.0625,-2.625 z m -68.04067,35.3039 c 0.47787,2.10831 0.54938,2.11107 0.85317,4.2586 1.57573,16.53506 -3.70776,24.37614 -10.34375,36.3125 -3.82307,-2.23282 -3.52779,-5.56269 -3.25326,-8.8138 0.24588,-3.16796 1.35936,-7.07386 3.0625,-11.40625 2.57743,-6.55639 5.54932,-12.60896 9.68134,-20.35105 z m 147.72817,50.1336 c 3.68127,5.31251 6.93423,10.36821 8.40582,15.5625 5.49625,19.40021 -1.98337,37.92007 -16.46832,46.59375 -3.20499,1.91916 -8.05621,4.10461 -12.71875,4.4375 -4.66254,0.33289 -9.06407,-1.01128 -12.125,-6.375 -7.47168,-13.09277 -6.32779,-24.77692 0.375,-33.90625 5.47713,-7.45995 15.36227,-14.97516 24.78125,-21.3125 2.77307,-1.8658 5.18269,-3.36509 7.75,-5 z"
       id="path2996"
       inkscape:connector-curvature="0"
       sodipodi:nodetypes="ccccssscscssssssscssssscssscscsssscsssssssccsccssccsscccsssssscsssscsscssssssccscsscssssssccsscsssscssscscssscssssscccccccccsccsccsssscsssscsssccsssssssssssscssscccccsssssssccccssscsssssccsssscccccssssccsscsccsscccscsssscccsscccccccscccssccsccscccccsccccscccccccsccccssscccccsscccssssscccccccssssssccccsccccscccsscccsccssscccsccccccsccccccccccsscccsscccccccscccccssscscccsccscsccsccsssccsccssscscccssccssscsssccscccssssscsccssssscsssccscsscsccsssscssccscsssccacsscscssscsssssssccccccccccsccccssccscccccsssccccsssccccccsccssssssc" />
    <path
       style="font-size:medium;font-style:normal;font-variant:normal;font-weight:normal;font-stretch:normal;text-indent:0;text-align:start;text-decoration:none;line-height:normal;letter-spacing:normal;word-spacing:normal;text-transform:none;direction:ltr;block-progression:tb;writing-mode:lr-tb;text-anchor:start;baseline-shift:baseline;color:#000000;fill:#000000;fill-opacity:1;stroke:none;stroke-width:2;marker:none;visibility:visible;display:inline;overflow:visible;enable-background:accumulate;font-family:Sans;-inkscape-font-specification:Sans"
       d="m 672.64732,596.76846 c -0.15536,0.0169 -0.30656,0.0709 -0.4375,0.15625 -7.00179,3.03739 -20.29081,6.38344 -30.34524,10.62715 -54.70291,23.08869 -104.64346,49.88478 -131.18601,64.9041 -0.49062,0.21041 -0.73777,0.85725 -0.51248,1.34121 0.22529,0.48396 0.87937,0.71125 1.35623,0.47129 34.99551,-15.66918 78.05062,-42.95633 131.69114,-62.98975 10.19708,-3.80836 23.10799,-8.31048 30.02761,-12.63525 0.40823,-0.21763 0.62262,-0.74342 0.48296,-1.18445 -0.13966,-0.44103 -0.61763,-0.74757 -1.07671,-0.69055 z"
       id="path2998"
       inkscape:connector-curvature="0"
       sodipodi:nodetypes="ccscscscsc" />
    <path
       style="font-size:medium;font-style:normal;font-variant:normal;font-weight:normal;font-stretch:normal;text-indent:0;text-align:start;text-decoration:none;line-height:normal;letter-spacing:normal;word-spacing:normal;text-transform:none;direction:ltr;block-progression:tb;writing-mode:lr-tb;text-anchor:start;baseline-shift:baseline;color:#000000;fill:#000000;fill-opacity:1;stroke:none;stroke-width:2;marker:none;visibility:visible;display:inline;overflow:visible;enable-background:accumulate;font-family:Sans;-inkscape-font-specification:Sans"
       d="m 524.83482,681.70596 c -0.22577,0.0324 -0.43925,0.14472 -0.59375,0.3125 -1.96092,1.96092 -3.88675,3.37339 -7.28125,3.8125 -0.5236,0.0654 -0.94045,0.6014 -0.875,1.125 0.0654,0.5236 0.6014,0.94045 1.125,0.875 3.8718,-0.50085 7.4004,-0.82285 9.4957,-2.91815 0.60772,-0.57491 -1.04071,-3.31158 -1.8707,-3.20685 z"
       id="path3000"
       inkscape:connector-curvature="0"
       sodipodi:nodetypes="cccsccc" />
  </g>
</svg>
