<?xml version="1.0" encoding="UTF-8"?>
<svg version="1.0" xmlns="http://www.w3.org/2000/svg" width="385" height="99" >
<path d="M31.815,7.481c-4.56,4.132-6.509,10.491-7.762,16.288c-1.712,7.919-4.125,15.718-6.575,23.433 c-2.782,8.758-5.77,17.567-9.852,25.816c-0.963,1.946-2.051,4.021-3.586,5.589c-0.94,0.96,1.752,0.024,2.032-0.185 c1.108-0.829,2.451-1.349,3.75-1.787c8.674-2.933,18.496-0.445,27.309,0.611c9.446,1.132,18.937,1.91,28.456,1.887 c15.631-0.037,33.25-2.483,44.631-14.263c0.819-0.848-1.065-0.97-1.581-0.436c-16.468,17.045-45.491,14.298-66.92,12.012 c-9.816-1.048-19.82-3.44-29.668-1.6c-0.854,0.159-9.743,2.627-8.55,4.692c0.183,0.316,0.77,0.221,1.043,0.166 c2.542-0.507,4.431-5.602,5.346-7.451c3.572-7.217,6.16-14.98,8.68-22.611c2.568-7.774,4.898-15.647,6.854-23.599 c1.571-6.385,2.848-13.481,7.975-18.127C34.26,7.134,32.356,6.991,31.815,7.481L31.815,7.481z"/>
<path d="M119.688,59.507c-2.365,0.386-4.625,1.285-6.667,2.52c-1.6,0.966-6.039,6.178-3.297,8.073 c1.573,1.087,3.777-0.156,5.131-1.062c4.006-2.679,6.51-7.795,6.945-12.463c0.028-0.301-1.75,0.108-1.917,0.438 c-1.604,3.177-4.967,10.663,0.153,12.18c3.923,1.162,8.361-3.931,10.458-6.33c0.921-1.055,1.81-2.139,2.752-3.175 c0.745-0.819-0.938-0.106-1.147,0.674c-0.212,0.793-0.505,1.562-0.716,2.356c-0.462,1.741-0.785,4.14,0.649,5.492 c3.225,3.042,9.9-5.744,11.087-7.222c-0.634,0.119-1.268,0.238-1.901,0.357c-1.14,2.561-3.907,9.294,1.368,6.793 c2.61-1.237,4.86-3.667,7.267-5.262c1.986-1.316,2.697-0.998,1.954,1.423c-0.906,2.954-2.72,5.73-4.256,8.379 c-0.127,0.219,1.617,0.058,1.901-0.357c1.935-2.823,4.013-5.586,6.362-8.078c1.969-2.088,1.987-1.49,2.177,1.316 c0.163,2.403,0.425,4.831,0.878,7.199c0.644-0.173,1.288-0.345,1.932-0.518c-1.366-6.068,6.473-8.912,10.847-9.747 c0.74-0.142,1.734-0.913,0.375-0.654c-4.968,0.948-14.744,3.854-13.153,10.919c0.083,0.372,2.013-0.093,1.932-0.518 c-0.599-3.138-0.11-7.02-1.225-9.938c-0.359-0.941-2.15-0.313-2.729-0.053c-3.928,1.767-6.954,7.012-9.296,10.429 c0.634-0.119,1.268-0.238,1.901-0.357c1.328-2.29,8.674-14.226,0.698-10.477c-2.596,1.221-4.897,3.229-7.156,4.962 c-3.558,2.728-0.583-4.227,0.125-5.818c0.151-0.34-1.65,0.045-1.901,0.357c-1.229,1.53-7.647,9.783-8.249,3.946 c-0.22-2.139,1.55-4.375,1.19-6.336c-0.036-0.063-0.092-0.097-0.168-0.1c-2.391-0.785-5.507,4.5-6.553,5.627 c-2.557,2.753-8.242,6.055-8.135-0.035c0.046-2.616,1.313-5.476,2.483-7.793c-0.639,0.146-1.278,0.292-1.917,0.438 c-0.245,2.627-1.042,4.774-2.304,7.057c-0.552,0.999-4.824,7.191-6.246,4.918c-2.707-4.331,4.979-8.414,7.994-8.906 C120.062,60.039,121.051,59.284,119.688,59.507L119.688,59.507z"/>
<path d="M172.466,47.241c-1.937-8.151,7.289-9.166,13.247-10.017c5.55-0.793,11.128-1.428,16.706-1.989 c0.147-0.015,1.732-0.399,1.324-0.734c-7.436-6.112-13.58,6.043-16.527,10.903c-3.509,5.786-6.981,11.595-10.452,17.404 c-1.314,2.201-2.627,4.402-3.94,6.604c-0.463,0.776-1.574,3.13-1.974,3.406c0.565-0.042,1.131-0.085,1.696-0.127 c1.139-3.179,3.667-6.374,5.7-9.007c0.603-0.78,1.266-1.506,1.96-2.205c1.875-1.889,2.351,0.014,2.923,1.637 c0.642,1.821-0.398,6.729,0.834,7.966c0.25,0.251,0.987-0.012,1.247-0.1c1.957-0.655,3.594-2.741,5.077-4.078 c2.26-2.036,4.509-4.084,6.755-6.135c-0.609,0.077-1.22,0.154-1.83,0.231c-0.598,1.275-4.722,9.744-1.715,9.901 c2.094,0.108,4.16-1.678,5.624-2.859c3.219-2.599,6.224-5.468,8.921-8.607c0.431-0.501-1.45-0.164-1.752,0.131 c-1.841,1.794-7.795,8.868-1.539,8.67c5.403-0.172,9.007-4.364,10.702-9.234c0.139-0.399-1.72-0.155-1.908,0.332 c-0.979,2.53-2.915,8.383,0.829,9.549c1.501,0.467,2.24,1.556,1.627,3.083c-1.637,4.076-9.446,4.918-12.992,5.498 c-0.785,0.129-1.709,0.965-0.352,0.742c4.193-0.687,14.278-1.949,15.511-7.395c0.265-1.174-0.722-2.229-1.771-2.556 c-3.796-1.182-1.982-6.57-0.944-9.254c-0.636,0.11-1.272,0.222-1.908,0.332c-0.223,0.641-0.502,1.255-0.787,1.869 c-0.787,1.699-6.241,10.039-8.928,5.187c-1.099-1.984,2.988-5.761,4.212-6.954c-0.584,0.044-1.168,0.087-1.752,0.131 c-1.302,1.514-11.437,11.226-11.883,9.953c-0.821-2.343,1.726-6.745,2.713-8.851c0.216-0.461-1.616,0.035-1.83,0.231 c-1.54,1.404-9.89,7.399-9.698,8.934c-0.289-2.308,0.932-10.985-3.454-10.232c-5.013,0.86-9.931,9.04-11.501,13.422 c-0.184,0.515,1.525-0.009,1.696-0.127c1.217-0.843,2.074-3.276,2.805-4.502c2.387-4.002,4.776-8.004,7.17-12.002 c2.63-4.392,5.268-8.779,7.926-13.154c2.26-3.72,6.455-12.374,11.688-8.071c0.441-0.245,0.883-0.49,1.324-0.734 c-7.746,0.78-15.504,1.673-23.18,2.98c-5.445,0.927-11.093,3.788-9.535,10.347C170.64,48.204,172.578,47.712,172.466,47.241 L172.466,47.241z"/>
<path d="M267.465,31.041c1.629-3.864,5.017-9.093,5.203-13.296c0.007-0.156-0.032-0.27-0.193-0.333 c-0.014-0.005-0.026-0.011-0.04-0.016c-0.454-0.178-1.196-0.044-1.542,0.312c-2.636,2.71-3.927,7.903-5.145,11.344 c-2.636,7.45-4.811,15.059-7.308,22.555c-2.159,6.479-4.335,13.589-8.491,19.107c-2.09,2.774-5.651,3.214-5.057-0.947 c0.664-4.645,5.713-6.991,9.732-7.804c1.184-0.239,0.907-1.164-0.25-0.93c-4.369,0.883-8.434,2.83-10.659,6.866 c-1.067,1.935-1.545,5.242,0.893,6.321c6.743,2.986,11.859-12.157,13.275-15.849c4.525-11.797,7.203-24.305,12.242-35.902 c0.522-1.203,1.139-2.365,1.754-3.521c0.737-1.387-1.075-1.15-1.193-0.631c-0.315,1.385-0.975,2.747-1.493,4.063 c-1.176,2.988-2.411,5.953-3.658,8.911C265.287,31.881,267.204,31.658,267.465,31.041L267.465,31.041z"/>
<path d="M231.148,55.105c-0.217-3.56,3.975-6.324,6.625-7.698c5.523-2.865,12.063-3.752,18.168-4.334 c11.7-1.115,23.573-0.307,35.235,0.837c0.998,0.098,1.951-1.358,0.646-1.486c-17.212-1.688-38.728-4.23-54.93,3.753 c-3.117,1.536-7.959,4.95-7.708,9.051C229.25,56.291,231.205,56.029,231.148,55.105L231.148,55.105z"/>
<path d="M272.48,64.963c1.26-0.793,2.574-1.497,3.895-2.184c1.47-0.765,2.991-1.418,4.55-1.979 c0.901-0.323,6.967-1.708,4.724,1.648c-2.067,3.093-7.17,5.145-7.795,9.117c-0.149,0.949,1.433,0.693,1.794,0.236 c2.818-3.565,5.912-7.097,9.554-9.836c5.259-3.955,1.822,4.615,0.564,6.513c-1.019,1.538-2.188,3.004-3.412,4.385 c0.542,0.202,1.085,0.403,1.627,0.605c2.084-2.393,4.303-4.677,6.624-6.84c1.607-1.497,3.319-2.942,5.255-3.997 c3.122-1.702,1.651,3.624,0.534,4.938c-0.587,0.69-1.433,1.304-2.206,1.8c-1.029,0.659,0.322,1.4,1.081,1.057 c2.333-1.057,17.613-6.539,16.831-9.458c-0.455-1.696-3.265-0.715-4.168-0.173c-3.49,2.099-3.338,7.149-3.063,10.629 c0.072,0.916,2.008,0.443,1.932-0.518c-0.226-2.859-0.488-7.427,2.436-9.185c1.576-0.948-0.366,0.49-0.716,0.688 c-1.032,0.584-2.099,1.11-3.157,1.644c-3.608,1.819-7.282,3.518-10.963,5.186c0.36,0.352,0.721,0.704,1.081,1.057 c1.938-1.241,4.745-3.68,4.519-6.26c-0.235-2.682-1.647-3.794-4.174-2.949c-5.262,1.759-9.936,7.716-13.472,11.776 c-0.813,0.933,1.029,1.279,1.627,0.605c1.51-1.703,10.713-13.247,4.392-14.093c-5.37-0.72-11.531,8.253-14.352,11.82 c0.598,0.078,1.196,0.157,1.794,0.236c0.32-2.038,11.913-10.081,7.238-12.269c-4.843-2.266-11.907,2.382-15.865,4.872 C270.082,64.732,271.666,65.476,272.48,64.963L272.48,64.963z"/>
<path d="M314.223,62.284c4.458,0.383,9.013,0.561,13.461,0.014c1.191-0.147,6.857-1.934,3.688-3.556 c-4.742-2.426-13.334,4.723-11.215,9.906c1.468,3.587,5.668,1.905,7.638-0.18c2.753-2.912,4.121-7.229,5.312-10.942 c2.913-9.092,4.214-18.731,5.352-28.176c0.075-0.621-1.8-0.222-1.916,0.299c-0.82,3.65-7.14,29.269-1.63,29.97 c4.889,0.623-3.793,6.771-2.866,9.437c0.652,1.878,15.358-8.153,16.876-9.138c-0.547-0.018-1.094-0.034-1.64-0.051 c-2.516,3.251-5.021,6.52-7.667,9.666c-0.48,0.57,1.437,0.293,1.77-0.066c1.794-1.935,3.751-3.717,5.828-5.341 c2.569-2.009,5.188-3.215,6.54,0.473c0.576,1.573,0.449,4.221,1.656,5.464c0.213,0.22,0.764,0.096,1.006,0.027 c1.139-0.32,1.626-0.947,2.243-2.019c1.652-2.864,3.226-6.093,5.736-8.335c1.91-1.707,8.856-8.747,9.474-2.978 c0.644-0.173,1.288-0.345,1.932-0.518c-1.871-9.986-16.928,8.384-12.716,9.202c1.183,0.229,2.653-0.441,3.768-0.732 c3.957-1.033-0.631,6.367-1.196,7.333c-2.112,3.61-12.979,22.978-19.251,17.773c-0.453-0.377-2.209,0.367-1.809,0.699 c9.227,7.656,22.734-17.707,25.092-22.719c1.878-3.992-0.421-4.57-3.805-3.636c-3.917,1.082,0.326-3.912,1.263-5.21 c1.529-2.119,5.823-6.99,6.723-2.193c0.098,0.52,1.994,0.067,1.932-0.518c-1.066-9.979-15.573,6.287-17.383,9.219 c-0.704,1.255-1.439,2.491-2.208,3.709c0.702-1.061,0.491-1.022,0.184-2.438c-0.388-1.78-0.764-3.854-2.01-5.249 c-0.891-0.997-2.969-0.591-4.015-0.198c-4.203,1.579-7.743,5.003-10.753,8.249c0.59-0.022,1.18-0.044,1.77-0.066 c2.646-3.146,5.152-6.414,7.667-9.666c0.521-0.673-1.405-0.202-1.64-0.051c-3.795,2.461-7.631,4.859-11.49,7.218 c-1.405,0.858-2.407,2.146-1.71,0.618c0.568-1.248,1.437-2.386,2.174-3.538c1.089-1.702,4.008-5.979-0.06-5.313 c-3.34,0.546,1.468-26.426,2.132-29.384c-0.639,0.1-1.277,0.199-1.916,0.299c-1.217,10.091-2.688,20.303-5.941,29.971 c-0.644,1.914-3.58,10.955-6.775,10.202c-1.85-0.436-2.345-3.017-2.022-4.575c0.215-1.037,1.007-2.021,1.595-2.784 c0.514-0.47,1.026-0.94,1.54-1.41c5.253-2.458,6.274-2.332,3.064,0.38c-1.17,0.198-2.384,0.217-3.568,0.259 c-2.989,0.106-6.008-0.051-8.988-0.308C314.957,61.342,313.2,62.195,314.223,62.284L314.223,62.284z"/>
<path d="M366.809,35.612c2.556-1.556,5.111-3.111,7.667-4.667c1.115-0.679-0.484-1.375-1.283-0.89 c-2.556,1.556-5.111,3.111-7.667,4.667C364.41,35.401,366.01,36.098,366.809,35.612L366.809,35.612z"/>
</svg>