<?xml version="1.0" encoding="UTF-8"?>
<svg version="1.1" xmlns="http://www.w3.org/2000/svg" width="271" height="34" >
<path d="M24.852,8.45c-2.864,3.875,2.867,5.479,3.498,0.775c0.274-2.042-0.502-3.933-2.679-4.187 c-2.455-0.287-5.067,2.954-6.404,4.494c-3.415,3.932-5.344,8.739-7.986,13.154c-1.344,2.246-3.682,4.446-6.341,2.975 c-2.745-1.519,1.385-1.212,2.686-0.259c2.764,2.026,5.289,2.415,8.308,0.697c2.174-1.236,3.765-3.753,5.438-5.562 c1.38-1.492,0.699,0.251,0.514,1.166c-0.31,1.527-2.241,4.873-3.875,2.874c-0.715-0.874-1.945,0.372-1.237,1.238 c1.523,1.861,3.421,2.028,5.121,0.319c1.141-1.147,3.399-6.804,1.795-8.228c-1.861-1.65-4.458,2.372-5.396,3.426 c-1.652,1.855-3.086,3.867-5.885,4.227c-1.975,0.253-3.938-1.674-5.229-2.846c-1.12-1.016-2.089-1.332-3.515-1.093 c-4.473,0.753,0.141,6.956,3.666,6.3c4.17-0.776,6.149-5.405,7.822-8.774c1.644-3.312,3.683-6.453,6.106-9.244 c0.772-0.889,1.658-1.673,2.608-2.366c0.538-0.391,1.14-0.641,1.806-0.749c-0.205,2.725,0.026,3.573,0.692,2.545 C27.034,8.424,25.514,7.553,24.852,8.45L24.852,8.45z"/>
<path d="M25.551,23.804c1.145-0.419,9.091-4.198,6.243-6.441c-0.412-0.324-0.825-0.321-1.237,0 c-1.848,1.439-4.555,9.027-1.102,10.152c3.434,1.12,8.036-4.516,8.827-7.425c0.209-0.77-0.616-1.336-1.285-0.988 c-2.006,1.04-2.052,7.42-0.064,8.585c3.353,1.964,6.033-2.847,7.511-4.877c-0.458,0.06-0.916,0.118-1.375,0.178 c1.059,1.181-0.675,5.159,2.409,5.561c1.799,0.233,3.208-1.032,4.502-2.123c1.152-0.973,2.074-2.257,2.996-3.438 c0.362-0.479,0.738-0.947,1.128-1.404c1.629,1.795,0.816,2.759-2.439,2.893c-0.565-0.977-2.078-0.096-1.511,0.883 c4.275,7.384,9.286-3.692,5.056-6.031c-1.916-1.06-4.771,4.06-5.619,5.016c-2.214,2.496-4.59,2.754-4.86-0.787 c-0.048-0.626,0.019-1.312-0.423-1.806c-0.407-0.454-1.062-0.252-1.375,0.178c-0.554,0.761-0.663,1.439-1.357,2.318 c-1.037,1.486-2.423,1.313-4.159-0.517c0.082-1.051,0.236-2.089,0.463-3.116c-0.429-0.329-0.857-0.658-1.286-0.988 c-0.315,1.159-1.312,2.217-2.04,3.101c-0.448,0.523-0.919,1.024-1.416,1.503c-1.953,1.976-3.637,0.015-3.06-2.234 c0.497-1.933,3.361-5.129-1.505-1.601c-1.029,0.746-2.3,1.289-3.487,1.724C24.036,22.501,24.489,24.193,25.551,23.804 L25.551,23.804z"/>
<path d="M67.05,20.841c-0.96-1.425-2.56-2.447-4.164-1.37c-1.917,1.289-2.423,4.955-1.67,6.972 c0.828,2.217,3.063,1.114,4.106-0.246c1.486-1.936,2.714-4.401,2.364-6.917c-0.131-0.942-1.429-0.719-1.688,0 c-1.076,2.983-0.552,6.866,2.335,8.615c2.438,1.477,4.723-1.665,5.543-3.562c0.443-1.024-1.064-1.916-1.511-0.883 c-0.598,1.381-2.018,3.955-3.729,2.523c-1.729-1.446-1.652-4.286-0.952-6.229c-0.563,0-1.125,0-1.688,0 c0.24,1.728-1.104,4.338-2.449,5.835c-1.17,1.302-0.626-2.853-0.522-3.191c0.456-1.486,1.671-1.909,2.51-0.664 C66.166,22.655,67.683,21.78,67.05,20.841L67.05,20.841z"/>
<path d="M102.72,7.955c-1.301,0.478-3.473,2.924-1.513,4.072c2.186,1.28,4.114-1.977,4.597-3.6 c0.755-2.532-0.956-4.576-3.355-4.771c-4.096-0.332-7.736,4.389-9.646,7.332c-2.267,3.494-4.123,8.249-2.957,12.422 c0.598,2.14,3.032,3.624,5.135,2.692c3.733-1.654,6.167-9.036,0.072-6.414c-1.034,0.445-0.142,1.952,0.883,1.512 c3.087-1.328,0.009,2.225-0.852,2.877c-4.323,3.274-3.717-5.17-3.181-7.052c0.922-3.237,2.907-6.317,5.205-8.735 c1.173-1.234,2.635-2.157,4.238-2.71c2.357-0.813,4.147,3.214,1.838,4.062C104.235,9.257,103.781,7.565,102.72,7.955 L102.72,7.955z"/>
<path d="M107.632,19.537c-2.853-5.039-8.75,1.874-6.842,5.311c2.967,5.345,7.587-2.395,7.433-5.707 c-0.038-0.82-1.211-1.258-1.63-0.441c-1.733,3.368-2.169,10.46,3.394,6.898c3.945-2.526,6.303-7.774,8.486-11.665 c2.372-4.229-0.113,2.408-0.733,3.648c-0.797,1.594-1.496,3.175-1.969,4.896c-0.364,1.324-0.591,3.178,0.788,3.965 c2.065,1.179,5.257-2.773,6.301-3.859c3.386-3.525,6.461-7.773,8.198-12.371c0.536-1.419,2.252-5.162,0.786-6.627 c-3.085-3.084-8.728,15.481-9.137,16.698c-0.288,0.857-2.806,10.055,1.104,6.259c0.553-0.537,3.193-3.576,3.214-3.249 c0.077,1.205-0.146,2.064,0.384,3.166c1.11,2.307,4.798,0.854,6.014-0.359c0.982-0.98,5.371-5.515,3.341-7.222 c-1.765-1.483-3.444,0.684-4.291,2.149c-1.103,1.908-1.522,6.169,1.311,6.968c3.065,0.864,5.77-0.925,7.489-3.364 c0.416-0.591,0.626-1.416,0.83-2.089c1.868-1.596,2.551-1.27,2.049,0.979c-0.035,0.393-0.021,0.781,0.04,1.166 c0.361,1.018,0.817,1.818,1.951,2.13c1.435,0.395,2.79-0.249,3.982-0.975c1.513-0.922,2.172-4.271,3.37-4.806 c-0.428-0.175-0.856-0.349-1.285-0.523c0.756,2.461,0.328,5.38,3.651,6.024c1.113,0.217,2.339-0.737,2.842-1.655 c0.332-0.606,2.337-4.604,2.436-4.476c1.025,1.332,1.023,3.882,0.706,5.397c-0.204,0.974,1.051,1.522,1.6,0.674 c1.258-1.944,3.839-6.204,4.408-1.781c0.172,1.333,1.277,2.937,2.809,2.836c3.458-0.228,10.379-4.645,7.832-8.94 c-2.372-4.004-4.387,0.656-4.487,3.176c-0.212,5.314,4.228,6.919,8.696,5.765c1.092-0.282,0.629-1.97-0.465-1.688 c-4.782,1.234-7.387-1.715-6.159-6.259c0.753-1.907,0.681-0.774-0.218,3.398c-0.796,0.733-1.69,1.341-2.603,1.918 c-3.166,2.005-3.242-1.753-4.27-3.508c-2.012-3.435-6.068,2.675-7.056,4.2c0.533,0.225,1.066,0.449,1.6,0.674 c0.319-1.524,0.407-8.241-2.456-7.938c-1.157,0.122-1.838,0.782-2.272,1.91c-0.971,2.524-4.214,6.165-4.704,1.716 c-0.071-0.65-0.009-1.279-0.202-1.908c-0.179-0.583-0.765-0.756-1.285-0.523c-0.498,0.223-0.616,0.559-0.906,1.042 c-0.457,1.141-1.063,2.198-1.818,3.173c-1.869,2.345-4.035,1.127-3.945-1.329c0.042-1.165-0.61-3.43-1.949-3.833 c-1.612-0.486-2.392,0.531-3.086,1.886c-0.857,1.675-0.838,3.132-2.225,4.594c-0.921,0.845-2.01,1.329-3.267,1.453 c-5.562,0.647-0.068-6.38-0.131-6.016c-0.401,2.355-6.776,7.624-6.527,3.563c0.044-0.714,0.105-1.771-0.281-2.431 c-0.617-1.055-1.555-0.83-2.452-0.302c-0.863,0.509-1.593,1.652-2.163,2.406c-0.312,0.426-0.64,0.839-0.984,1.239 c-0.951,1.133-0.011-0.142,0.133,1.067c-0.325-2.73,1.86-6.728,2.732-9.192c0.781-2.207,1.599-4.4,2.444-6.583 c0.369-0.955,2.391-4.484,2.375-5.004c0.106,3.408-2.348,7.157-4.056,9.917c-1.383,2.235-3.134,4.22-4.885,6.169 c-0.304,0.339-4.264,4.084-4.367,3.133c-0.323-2.958,2.255-6.061,3.232-8.672c0.355-0.948,2.362-8.189-1.272-5.716 c-2.713,1.847-4.103,6.375-5.814,9.047c-1.302,2.033-2.877,4.04-4.933,5.356c-2.707,1.733-0.349-4.94-0.365-4.911 c-0.543-0.147-1.087-0.294-1.63-0.441c0.067,1.433-0.491,2.559-1.146,3.81c-1.155,2.376-1.887,1.827-2.196-1.646 c1.485-1.658,2.481-1.953,2.99-0.884C106.677,21.402,108.189,20.52,107.632,19.537L107.632,19.537z"/>
<path d="M113.785,14.424c7.975,0.359,16.184,0.612,24.095-0.59c1.113-0.169,0.639-1.855-0.465-1.688 c-7.744,1.177-15.824,0.879-23.63,0.527C112.656,12.624,112.661,14.374,113.785,14.424L113.785,14.424z"/>
<path d="M196.863,20.562c-2.829,4.021-0.054,6.692,3.543,3.342c2.594-2.416,3.912-6.132,5.859-9.06 c2.104-3.166,4.459-6.194,7.043-8.983c0.813-0.876,1.683-1.753,2.711-2.371c-0.376,0.226-1.503,4.699-2.025,5.711 c-1.979,3.839-5.096,6.856-6.678,10.942c-0.679,1.752-0.52,4.716,1.584,5.466c3.275,1.168,6.305-1.651,8.413-3.8 c0.79-0.807-0.446-2.044-1.238-1.238c-0.955,0.974-7.133,6.708-7.364,1.511c-0.092-2.074,1.639-4.335,2.733-5.995 c1.764-2.677,3.961-5.121,5.089-8.173c0.299-0.808,2.591-7.761-1.101-6.07c-3.649,1.671-6.43,6.251-8.736,9.361 c-1.507,2.032-2.933,4.14-4.162,6.353c-1.011,1.822-1.946,3.551-3.365,5.109c-2.034,2.233-1.996,0.486-0.794-1.222 C199.025,20.52,197.507,19.647,196.863,20.562L196.863,20.562z"/>
<path d="M205.546,12.561c2.651-0.178,5.3-0.405,7.944-0.661c1.965-0.19,3.925-0.425,5.88-0.696 c1.157-0.159,2.297-0.38,3.461-0.502c1.123-0.117,0.354-0.77,0.249-0.703c-0.947,0.606-0.07,2.121,0.883,1.511 c2.597-1.661-0.204-2.655-2.013-2.466c-5.478,0.573-10.898,1.398-16.404,1.767C204.426,10.886,204.419,12.636,205.546,12.561 L205.546,12.561z"/>
<path d="M223.043,18.893c-0.68-0.842-1.846-1.813-2.992-1.807c-2.049,0.01-2.933,1.797-3.555,3.51 c-1.462,4.025,1.232,6.885,5.218,5.351c0.394-0.151,0.607-0.42,0.643-0.844c0.276-3.329,1.165-7.186,3.434-9.723 c-0.458-0.354-0.917-0.707-1.375-1.061c-1.82,3.11-3.396,6.735-3.552,10.37c-0.2,4.659,5.323,2.102,7.203,0.287 c0.813-0.785-0.426-2.021-1.238-1.238c-1.161,1.122-2.608,2.264-4.303,1.74c-0.208-0.064,0.408-3.109,0.577-3.748 c0.599-2.275,1.637-4.499,2.824-6.528c0.494-0.845-0.701-1.813-1.375-1.061c-2.608,2.919-3.628,7.137-3.945,10.961 c0.214-0.281,0.429-0.563,0.643-0.844c-0.996,0.384-2.41,0.952-3.153-0.169c-0.553-0.834-0.158-2.178,0.088-3.029 c0.655-2.262,2.236-2.646,3.621-0.93C222.514,21.009,223.745,19.763,223.043,18.893L223.043,18.893z"/>
<path d="M234.424,18.334c-4.081-4.107-8.216,3.924-7.111,7.505c0.39,1.263,1.794,1.462,2.85,1.014 c3.03-1.288,4.187-4.059,4.518-7.154c0.107-1-1.474-1.165-1.719-0.232c-0.514,1.95-1.742,6.542,1.083,7.319 c1.646,0.452,2.746-0.871,3.498-2.053c0.187-0.437,0.361-0.877,0.524-1.322c0.235-2.362,1.194-2.319,2.879,0.128 c0.137,1.088-0.023,2.186,0.157,3.267c0.079,0.468,0.653,0.732,1.076,0.611c1.191-0.342,1.786-2.363,2.272-3.27 c2.424-4.521,1.649,2.207,2.253,3.391c1.576,3.089,4.11-0.905,4.891-2.459c0.233-0.465,2.96-4.616,2.922-1.746 c-0.018,1.315-0.089,2.427,0.165,3.711c0.232,1.175,1.168,1.594,2.198,1.698c3.172,0.322,7.904-6.477,8.462-9.276 c-0.533,0.07-1.066,0.14-1.6,0.209c0.39,0.814,0.724,1.65,1.045,2.492c0.229,0.623,0.429,1.255,0.599,1.896 c0.807,1.444,0.373,2.179-1.301,2.205c-0.417-1.032-2.11-0.582-1.688,0.465c0.926,2.29,3.106,2.944,4.713,0.85 c1.597-2.083-0.931-6.855-1.856-8.791c-0.321-0.671-1.456-0.513-1.6,0.209c-0.535,2.687-2.961,4.631-4.8,6.508 c-2.792,2.852-2.618-3.731-2.832-4.472c-0.412-1.428-2.023-1.022-2.958-0.582c-1.042,0.49-1.788,1.752-2.416,2.662 c-0.818,1.185-2.548,5.73-2.388,1.613c0.06-1.527,0.558-4.607-1.509-5.176c-2.148-0.591-3.994,4.048-4.582,5.146 c-0.875,0.946-0.677,1.247,0.593,0.902c-0.009-1.148-0.09-2.248-0.232-3.389c-0.115-0.921-0.431-1.994-1.115-2.679 c-1.197-1.197-2.674-0.388-3.69,0.527c-0.779,0.701-1.056,1.933-1.346,2.882c-0.77,0.227-1.539,0.452-2.309,0.679 c0.016-0.808,0.109-1.605,0.279-2.396c0.077-0.435,0.187-0.868,0.299-1.296c-0.573-0.077-1.146-0.155-1.719-0.232 c-0.266,2.485-0.983,4.142-3.058,5.392c-1.333,0.802-0.245-9.102,3.313-5.518C233.983,20.374,235.219,19.136,234.424,18.334 L234.424,18.334z"/>
<path d="M48.76,8.959c0.314-0.497,0.628-0.993,0.942-1.49c0.605-0.957-0.91-1.834-1.511-0.883 c-0.314,0.497-0.628,0.993-0.942,1.49C46.644,9.033,48.159,9.911,48.76,8.959L48.76,8.959z"/>
</svg>