<?xml version="1.0" encoding="UTF-8"?>
<svg version="1.0" xmlns="http://www.w3.org/2000/svg" width="244" height="22" >
<path d="M15.582,7.058c2.371,5.444,9.701,1.986,13.112-0.025c1.643-0.969,4.447-2.72,4.326-4.934 c-0.1-1.833-3.469-0.958-4.252-0.649c-3.378,1.331-6.202,4.159-8.812,6.582c-3.693,3.428-7.43,6.807-11.721,9.481 c-0.556,0.347-7.452,3.735-6.906,0.78c0.341-1.843,2.909-2.011,3.596-0.491c0.526,1.164,1.042,2.102,2.167,2.773 c1.937,1.157,4.823-0.642,6.4-1.551c0.844-0.486-0.462-0.558-0.87-0.322c-7.402,4.268-4.737-5.54-10.624-2.415 c-3.665,1.946-1.82,4.629,1.777,3.775c6.546-1.554,11.928-6.878,16.706-11.309c1.299-1.205,2.605-2.396,3.954-3.546 c0.682-0.571,1.383-1.119,2.104-1.642c0.95-0.716,6.698-3.168,4.614,0.327c-2.18,3.655-11.906,7.862-14.121,2.775 C16.84,6.23,15.423,6.693,15.582,7.058L15.582,7.058z"/>
<path d="M18.859,19.262c-0.208,0.424-0.227,0.902-0.016,1.324c0.541,1.081,2.532,0.539,3.356,0.311 c0.302-0.084,0.679-0.364,0.582-0.728c-0.096-0.358-0.565-0.423-0.868-0.339c-0.462,0.128-1,0.282-1.462,0.242 c0,0-0.238-0.047-0.111-0.011c-0.02-0.006-0.19-0.087-0.065-0.016c-0.026-0.015-0.138-0.119-0.038-0.014 c-0.031-0.032-0.103-0.185-0.044-0.044c-0.015-0.037-0.023-0.077-0.032-0.116c-0.028-0.133,0,0.125-0.001-0.009 c-0.001-0.086,0.014-0.173,0.032-0.257c-0.04,0.18,0.029-0.077,0.061-0.142C20.631,18.699,19.163,18.644,18.859,19.262 L18.859,19.262z"/>
<path d="M56.243,7.921c1.476-2.591,3.713-3.864,6.372-4.928c-0.302-0.187-0.604-0.373-0.905-0.559 c-4.188,3.809-8.37,7.627-12.5,11.5c-2.142,2.009-4.403,3.796-6.97,5.229c-3.148,0.659-4.015,0.344-2.601-0.946 c0.699-0.752,1.67-1.332,2.521-1.897c3.208-2.135,6.887-3.765,10.526-5.002C58.82,9.23,65.17,9.646,71.051,6.381 c0.753-0.418,5.913-4.616,2.444-4.495c-3.243,0.113-7.212,3.522-9.488,5.611c-3.362,3.086-10.515,7.147-11.828,11.986 c-1.762,6.493,15.188-1.983,5.141-2.104c-0.64-0.008-1.505,0.956-0.524,0.969c5.779,0.069-5.222,5.412-2.841,0.365 c1.114-2.363,3.456-4.361,5.558-5.823c4.11-2.859,7.08-6.693,11.579-9.079c4.4-2.331-1.378,2.244-2.906,2.96 c-3.452,1.619-7.46,2.261-11.203,2.743c-4.242,0.547-8.038,2.097-11.856,4.006c-2.625,1.313-5.732,2.859-7.47,5.313 c-1.217,1.718,1.865,2.268,2.939,1.942c4.94-1.496,8.681-5.446,12.366-8.867c3.295-3.06,6.617-6.091,9.944-9.116 c0.618-0.563-0.563-0.695-0.905-0.559c-3.137,1.255-5.414,2.563-7.128,5.572C54.488,8.478,55.958,8.42,56.243,7.921L56.243,7.921 z"/>
<path d="M48.333,19.456c-0.167,0.417-0.333,0.834-0.5,1.25c-0.125,0.312,0.479,0.318,0.623,0.3 c0.305-0.039,0.701-0.176,0.825-0.485c0.167-0.417,0.333-0.834,0.5-1.25c0.125-0.312-0.479-0.318-0.623-0.3 C48.853,19.01,48.457,19.146,48.333,19.456L48.333,19.456z"/>
<path d="M67.582,20.308c0.248,0.921,1.376,1.209,2.196,1.229c0.327,0.008,0.763-0.109,0.955-0.4 c0.191-0.289-0.16-0.44-0.398-0.445c-0.523-0.013-1.157-0.225-1.304-0.771C68.89,19.394,67.441,19.782,67.582,20.308 L67.582,20.308z"/>
<path d="M94.874,7.61c5.792,3.766,11.741,1.665,16.894-1.944c1.293-0.905,4.78-3.415,3.222-5.3 c-0.763-0.923-3.108,0.142-3.815,0.528c-3.984,2.182-7.355,5.463-10.816,8.36c-2.2,1.843-4.476,3.525-6.896,5.069 c-1.409,0.898-2.832,1.77-4.266,2.629c-1.094,0.663-2.22,1.265-3.379,1.804c-3.379-0.207-3.665-0.393-0.856-0.557 c0.866,0.501,1.172,1.657,2.146,2.034c1.533,0.594,2.98,0.363,4.564,0.147c2.491-0.341,5.492-0.919,7.689-2.247 c0.613-0.37-0.849-0.201-1.109-0.043c-3.28,1.983-8.807,3.093-11.475,0.015c-0.993-1.146-2.738-1.325-4.095-0.834 c-1.315,0.476-1.382,1.876-0.164,2.559c1.084,0.608,3.193-0.489,4.135-0.882c7.457-3.109,13.743-8.781,19.869-13.878 c1.614-1.343,3.269-2.632,5.051-3.745c3.973-2.48,1.547,2.118,0.564,3.084c-4.215,4.143-10.658,6.113-15.898,2.706 C95.894,6.892,94.674,7.479,94.874,7.61L94.874,7.61z"/>
<path d="M118.281,10.919c0.257-2.858-1.734-3.282-3.9-2.183c-3.067,1.557-4.441,4.965-7.5,6.75 c-0.963,0.562-2.966,1.245-2.924,2.634c0.066,2.197,6.477-0.78,6.913-1.038c1.978-1.166,3.798-2.625,5.575-4.07 c1.019-0.828-1.408,0.19-1.763,0.525c-0.861,0.811-1.831,1.74-2.425,2.774c-1.094,1.904-0.029,3.019,1.866,2.042 c3.601-1.855,6.635-5.125,9.688-7.723c1.795-1.526,5.701-5.593,8.281-5.446c2.442,0.14,4.686,0.229,7.134-0.058 c2.413-0.283,10.133-1.68,10.793-4.748c0.034-0.156-0.13-0.194-0.254-0.204c-3.167-0.226-7.716,4.017-10.006,5.63 c-3.913,2.756-7.362,6.077-11.208,8.918c-1.398,1.032-3.739,1.991-4.708,3.502c-0.021,0.056-0.01,0.103,0.037,0.139 c0.663,0.484,2.069-0.087,2.745-0.239c0.864-0.194,0.712-0.714-0.141-0.521c-1.052,0.236,1.955-1.909,2.095-2.007 c1.692-1.173,3.309-2.438,4.903-3.738c3.599-2.933,7.072-5.824,10.954-8.383c1.382-0.911,2.804-1.762,4.274-2.521 c-3.006,1.551-5.694,2.992-9.235,3.566c-2.529,0.411-5.476-0.589-7.881,0.128c-3.819,1.138-6.954,4.224-9.92,6.747 c-2.346,1.995-4.622,4.084-7.105,5.909c-1.961,1.439-0.38-1.895,0.208-2.581c0.661-0.772,1.426-1.476,2.188-2.146 c0.359-0.316-0.981-0.214-1.223-0.011c-0.748,0.627-1.517,1.229-2.287,1.829c-0.861,0.669-1.754,1.294-2.65,1.914 c-2.09,1.442-4.287,0.139-1.594-1.434c1.434-0.837,8.104-8.978,7.618-3.568C116.81,11.564,118.239,11.39,118.281,10.919 L118.281,10.919z"/>
<path d="M124.747,13.419c1.463-0.156,2.93-0.275,4.397-0.376c2.065-0.141,4.557-0.521,6.569,0.109 c0.342,0.107,1.636-0.438,1.186-0.578c-1.91-0.599-4.212-0.304-6.175-0.201c-1.789,0.094-3.577,0.244-5.358,0.435 C124.979,12.849,123.794,13.521,124.747,13.419L124.747,13.419z"/>
<path d="M138.381,9.135c1.624,1.222-0.756,2.713-1.685,3.367c-1.055,0.743-2.125,1.471-1.364,2.806 c0.256,0.449,1.641-0.053,1.449-0.389c-0.344-0.603-0.436-1.016,0.111-1.52c0.842-0.774,1.958-1.236,2.738-2.078 c0.736-0.795,1.111-1.971,0.102-2.729C139.352,8.306,138.037,8.876,138.381,9.135L138.381,9.135z"/>
<path d="M147.081,9.7c-1.669,4.297-7.926,3.69-9.813,7.27c-0.802,1.521-0.024,3.105,1.765,3.356 c2.361,0.331,8.469-5.009,7.986-7.334c-0.107-0.522-1.56-0.157-1.448,0.388c1.003,4.923,15.435-1.544,17.025-2.203 c0.938-0.39,0.081-0.889-0.58-0.627c-3.568,1.413-8.922,3.209-9.722,7.633c-0.046,0.257,0.258,0.326,0.447,0.338 c1.182,0.071,2.349-0.849,3.357-1.354c1.311-0.655,2.63-1.293,3.956-1.914c1.383-0.647,2.378-1.801,0.526-0.296 c-3.963,3.22,0.869,3.508,3.629,2.697c5.514-1.62,10.719-5.472,15.445-8.594c3.206-2.118,8.184-4.632,10.488-7.852 c0.156-0.218-0.042-0.369-0.235-0.428c-1.742-0.524-5.397,3.702-6.425,4.591c-2.896,2.504-8.28,6.308-9.155,10.334 c-0.579,2.668,5.531,0.536,6.205,0.295c2.56-0.917,5.056-1.994,7.563-3.043c1.981-0.829,6.826-3.137,3.376,0.525 c0.42,0.051,0.841,0.102,1.261,0.153c0.32-0.505,1.559-2.533,0.349-2.784c-2.926-0.607-6.658,3.051-8.609,4.737 c-1.671,1.444-2.079,3.268,0.545,3.212c4.882-0.104,9.843-4.444,13.123-7.559c0.641-0.607-0.819-0.546-1.168-0.26 c-1.021,0.834-7.896,7.155-2.944,7.055c3.006-0.062,5.774-1.268,8.467-2.511c1.634-0.754,3.216-1.63,4.782-2.512 c0.55-0.311,1.092-0.635,1.634-0.96c0.716-0.43-0.486-0.722-0.897-0.43c-1.136,0.806-9.68,6.934-5.691,7.733 c4.037,0.811,10.179-4.404,13.188-6.518c0.83-0.583-0.443-0.717-0.906-0.457c-0.513,0.287-7.188,4.881-4.267,5.584 c3.195,0.769,7.484-2.476,10.074-3.966c0.688-0.396,1.369-0.809,2.047-1.224c0.55-0.265,0.267-0.412-0.852-0.442 c-0.452,0.403-0.875,0.835-1.301,1.267c-1.007,1.022-2.421,2.415-2.108,3.96c0.561,2.775,10.038-1.048,11.155-2.074 c1.833-1.684-1.924-1.655-3.017-0.609c-0.999,0.956-0.223,3.128,0.79,3.771c1.542,0.978,3.467,1.107,5.254,0.943 c2.534-0.233,9.995-1.151,10.652-4.567c0.844-4.388-8.557-5.401-11.285-5.817c-0.476-0.073-1.711,0.683-0.881,0.809 c2.604,0.397,5.155,0.948,7.633,1.858c1.452,0.534,4.458,1.92,2.504,4.103c-1.248,1.394-3.779,1.943-5.489,2.365 c-1.535,0.379-3.122,0.464-4.693,0.407c-1.648,0.058-2.769-0.695-3.361-2.259c0.608-1.367,0.107-1.4-1.505-0.099 c-2.029,1.116-4.019,0.889-5.97-0.683c0.432-0.666,0.928-1.282,1.489-1.847c0.442-0.484,0.929-0.935,1.417-1.371 c0.636-0.567-0.716-0.56-1.037-0.358c-2.272,1.418-4.61,2.738-7.02,3.911c-0.521,0.249-1.052,0.481-1.589,0.696 c-2.958,1.236-0.497-2.082,0.393-2.732c0.546-0.398,1.137-0.741,1.719-1.082c-0.4,0.234-0.719-0.563-1.448-0.062 c-3.094,2.125-6.414,4.392-10.01,5.536c-2.405,0.767,0.188-2.375,0.322-2.512c0.629-0.637,1.336-1.201,2.023-1.771 c0.969-0.803,1.984-1.555,3.016-2.277c0.817-0.573-0.437-0.748-0.906-0.457c-2.413,1.494-4.928,2.818-7.504,4.008 c-1.299,0.6-8.66,3.193-6.666-0.152c0.771-1.294,2.069-2.349,3.187-3.345c2.265-2.018-5.418,3.204-5.405,3.195 c-1.073,0.711-2.194,1.337-3.365,1.876c-1.229,0.597-5.437,1.444-2.96-1.116c0.728-0.752,8.356-6.38,5.74-2.261 c-0.383,0.603,1.01,0.42,1.261,0.153c3.763-3.993,0.407-3.582-3.045-2.257c-3.614,1.387-7.098,3.106-10.801,4.261 c-6.073,1.894-0.127-4.474,1.388-5.992c2.466-2.474,5.135-4.76,7.849-6.956c0.446-0.361,0.899-0.715,1.359-1.059 c0.853-0.636-0.479-0.676-0.918-0.257c-1.347,1.283-2.924,2.361-4.422,3.452c-4.218,3.07-8.612,5.918-13.115,8.552 c-2.088,1.222-4.229,2.356-6.479,3.251c-1.296,0.516-4.603,0.146-2.708-1.521c0.428-0.376,1.062-0.729,1.376-1.246 c0.081-0.134,0.068-0.32-0.103-0.382c-1.298-0.468-3.238,0.892-4.318,1.397c-1.521,0.712-3.02,1.469-4.519,2.223 c-1.3,0.653-0.538,0.729-0.046-0.292c0.635-1.317,1.597-2.401,2.828-3.17c1.677-1.047,3.636-1.77,5.467-2.508 c-0.724,0.013-1.447,0.024-2.172,0.037c-1.413,0.572-2.845,1.094-4.297,1.563c-1.36,0.453-2.762,0.791-4.171,1.054 c-0.949,0.177-4.442,0.731-4.775-0.902c-0.482,0.129-0.966,0.259-1.448,0.388c0.227,1.093-1.928,2.85-2.54,3.489 c-0.779,0.813-2.998,3.081-4.258,2.032c-2.271-1.89,3.554-3.967,4.505-4.503c2.015-1.137,4.368-2.591,5.254-4.872 C148.725,9.03,147.272,9.207,147.081,9.7L147.081,9.7z"/>
<path d="M163.217,9.663c4.678,0.859,9.5,1.524,14.178,0.457c8.396-1.916,17.185-1.27,25.699-0.685 c0.344,0.023,1.676-0.593,0.926-0.645c-7.74-0.532-15.696-1.075-23.406,0.12c-5.645,0.875-10.371,1.228-16.217,0.152 C164.032,8.997,162.765,9.58,163.217,9.663L163.217,9.663z"/>
</svg>