<?xml version="1.0" encoding="UTF-8" standalone="no"?>
<svg xmlns="http://www.w3.org/2000/svg" version="1.0" width="591" height="377">
<path d="M45.038,343.957c6.909,2.46,13.975,1.548,21.998,1 c-5.761,2.814-18.324,3.45-24.997,1c2.047-10.618,12.588-12.742,19.998-17.998c2.557-0.044,1.219,0.743,1,2 C55.212,332.801,48.058,336.312,45.038,343.957z
M385.996,233.971c20.502-20.159,38.706-42.617,53.993-67.991 c-12.688,8.133-24.455,23.042-36.996,32.996c-11.067,8.785-26.229,16.672-38.995,25.996 c-16.797,12.271-28.534,28.161-50.993,27.997c2.394-12.159,12.544-20.371,20.997-27.997c8.914-8.041,17.842-15.773,25.997-24.997 c15.833-17.908,28.767-38.168,43.994-56.993c16.601-20.521,35.916-38.941,49.994-60.992 c-63.123,38.238-105.021,102.779-163.979,146.982c-12.712,9.529-22.728,21.909-41.995,24.996 c15.83-11.832,29.6-25.726,42.995-39.994c26.27-43.056,57.769-80.88,86.989-120.985c-8.257,1.076-10.314,8.35-17.998,9.999 c-3.121,6.878-10.941,9.056-14.998,14.998c-1.23,1.117-2.054,0.871-2-1c-39.9,45.444-89.125,90.168-132.983,134.983 c-4.137,0.861-7.316,2.683-11.999,2.999c15.676-30.524,44.667-49.731,64.992-76.99c10.831-14.526,17.548-31.419,29.997-45.994 c-0.023-2.355,1.722-2.944,1-5.999c9.331-7,13.699-18.963,21.997-26.997c-9.551,4.448-18.13,9.867-28.997,12.998 c-39.063,43.26-73.226,91.42-120.985,125.985c-1.442,2.225-4.43,2.902-5,5.999c-10.424,2.265-16.057,13.446-29.997,8.999 c6.375-21.265,24.888-34.201,37.996-49.994c14.432-17.389,26.711-36.407,40.995-53.993c13.999-17.235,30.388-32.665,41.995-51.994 c-14.755,1.248-26.988,19.001-37.996,23.997c-3.495,4.837-6.296,10.368-12.998,11.999c-25.569,33.27-59.588,58.477-92.989,84.989 c-16.495,13.094-29.284,29.614-46.994,40.995c-0.834-6.726,13.348-12.808,19.998-19.998c1.528-1.652,3.09-3.926,3-5.999 c10.932-8.066,21.151-16.845,28.997-27.996c13.11-7.678,22.563-21.674,33.996-33.996c10.527-11.346,23.142-22.309,32.996-34.996 c0.654-0.842-0.609-3.117,0-4c1.121-1.624,3.752-1.438,5-3c3.618-4.532,5.306-10.702,8.999-14.998 c17.14-19.941,36.549-42.017,57.993-58.993c12.078-9.561,26.099-20.189,38.995-25.997c16.91-7.615,54.607-14.53,48.993,14.998 c-1.745,9.182-9.861,21.477-18.997,27.997c-14.761,10.534-42.228,19.383-55.993,12.998c-5.63-12.649,14.842-36.885,25.997-22.997 c-0.683,2.651-5.547,1.119-5,5c-3.954-1.067,0.254-3.033,0-6c-13.118-0.616-20.958,16.741-12.999,24.997 c35.41-2.745,64.269-22.171,61.992-55.993c-9.955-10.113-31.726-2.59-42.995,1c-72.546,39.773-109.04,115.599-166.979,169.979 c13.746-8.808,25.968-20.821,37.995-32.996c12.253-12.403,26.903-25.815,39.995-38.995c11.108-11.183,23.793-23.198,34.996-29.996 c6.432-3.903,11.708-4.82,19.998-7c-1.38,9.958-11.203,20.122-18.998,26.997c-13.184,18.479-28.534,34.792-42.995,51.993 c-15.36,26.992-43.909,49.396-59.993,78.99c7.192,3.331,14.876-3.439,19.998-6.999c13.377-9.3,27.216-21.996,38.995-31.996 c30.827-31.499,59.241-65.411,87.989-98.988c1.651-9.014,6.101-15.229,15.998-15.998c-1.245,5.087-6.323,6.343-7.999,10.999 c10.537,0.815,22.421-16.169,32.996-11.999c4.541,0.259-3.6,2.317-4,4c-27.445,38.879-52.562,80.087-82.99,115.985 c-13.45,8.214-22.283,21.045-30.996,33.996c55.251-49.069,102.917-105.725,158.98-153.98c4.893-0.774,8.166-3.166,10.999-6 c3,0,5.999,0,8.999,0c-11.45,22.055-29.243,39.557-43.995,58.993c-14.806,19.508-26.762,41.325-43.994,58.993 c-7.99,16.673-21.69,27.637-34.996,38.995c49.025-27.633,85.437-76.543,127.984-113.986c-1.934-2.159,8.058-9.275,13.998-14.998 c4.601-4.431,10.078-8.859,14.998-12.999c12.947-10.891,23.652-23.222,41.995-24.997c-8.242,16.371-22.885,27.978-33.996,41.995 c-21.727,27.41-43.186,55.883-66.991,82.99c-14.862,16.923-33.621,26.794-41.995,47.994 c50.592-27.065,91.594-63.722,132.983-99.988c12.838-18.492,23.405-39.254,41.995-51.994c9.032-11.79,21.466-30.313,38.995-26.997 c-13.627,19.44-41.475,39.979-59.992,60.993c-1.479,1.158-2.521,1.158-4,0c2.692,2.6-1.223,3.016-1,5.999 c-11.669,9.98-23.644,27.523-32.996,41.995c-6.831,10.572-14.846,23.615-22.997,32.996 C404.443,222.511,396.151,231.417,385.996,233.971z M469.985,130.983c18.183-18.479,39.009-34.315,54.993-54.993 C501.146,88.82,486.294,110.63,469.985,130.983z
M67.036,326.959c77.206-36.157,200.952-71.066,317.96-57.992 c24.564,2.744,48.846,5.765,68.991,13.998c13.867,5.667,32.042,16.74,21.997,34.995c-1.415,2.572-6.467,8.921-7.999,6 c3.25-0.921,8.037-7.781,6.999-15.998c-1.754-13.896-28.27-23.894-42.994-27.997c-16.583-4.621-37.906-7.064-57.993-8.999 C262.777,260.257,152.572,291.976,67.036,326.959z" />
</svg>