<?xml version="1.0" encoding="UTF-8" standalone="no"?>
<!-- Created with Inkscape (http://www.inkscape.org/) -->
<svg
   xmlns:svg="http://www.w3.org/2000/svg"
   xmlns="http://www.w3.org/2000/svg"
   version="1.0"
   width="214"
   height="135"
   id="svg2">
  <defs
     id="defs5" />
  <path
     d="M 7.4595586,122.26274 C 7.4595586,120.46616 6.8372286,118.99254 5.9317786,118.64509 C 1.4081196,116.9092 2.7746066,110.10891 8.9988966,103.38165 C 15.505765,96.348989 24.959287,92.703599 45.818527,89.183569 L 53.677495,87.857359 L 57.010316,82.647319 C 60.707667,76.867429 72.509434,66.572959 79.459561,63.065259 C 81.934561,61.816129 85.395011,59.594119 87.149451,58.127449 C 88.903891,56.660779 91.150141,55.007029 92.141121,54.452449 C 94.265231,53.263739 93.915841,52.804889 90.209561,51.915739 C 88.245831,51.444639 87.459561,51.640499 87.459561,52.600749 C 87.459561,54.212559 81.726089,58.294119 80.087009,58.294119 C 79.245749,58.294119 80.785231,57.567739 81.512291,55.655429 C 82.064061,54.204149 82.311841,52.813059 82.062901,52.564129 C 81.320321,51.821549 77.844075,53.222579 74.063622,55.788059 C 71.691861,57.397579 69.160129,59.570769 68.704631,58.833759 C 69.720795,56.92903 72.559694,54.111935 73.364046,52.433879 C 73.364046,50.824899 67.505946,51.009659 66.879557,52.642009 C 66.595079,53.383339 64.973123,55.016969 63.275209,56.272289 L 60.188092,58.554699 L 60.869139,54.924409 C 61.788365,50.024509 59.888898,50.117789 53.340343,55.294119 C 46.855413,60.420159 44.856527,63.513175 47.338965,58.874695 C 48.76411,56.211785 49.258871,51.993579 45.983349,52.815679 C 43.393414,53.465709 38.459559,56.899749 38.459559,60.329169 C 38.459559,61.396699 41.159559,64.945089 44.459559,68.214489 C 47.759559,71.483889 50.459559,74.907319 50.459559,75.822119 C 50.459559,78.766809 40.74097,84.646495 38.162257,84.646495 C 35.991534,84.646495 41.60485,83.042169 42.48431,80.729019 C 43.903247,76.996929 43.701832,75.597739 41.44268,73.493019 C 37.724381,70.028899 34.895902,69.78148 32.209559,69.986569 C 28.516668,70.268503 21.555061,74.193542 21.122039,73.760522 C 20.580385,73.218862 31.651552,67.258989 33.209559,67.278479 C 34.909121,67.299739 34.784194,65.808429 32.959559,64.294119 C 29.122684,61.109799 32.687864,54.732339 40.524967,50.760969 C 45.677566,48.149959 50.353777,47.588339 52.132355,49.366919 C 52.884314,50.118869 54.364695,50.131829 57.082355,49.410229 C 59.214817,48.844019 65.234559,48.433569 70.459559,48.498129 C 76.536411,48.573219 80.957081,48.136429 82.727901,47.285939 C 85.223811,46.087219 85.695101,46.169819 87.516861,48.125249 C 89.886561,50.668829 91.731361,50.876469 93.459561,48.794119 C 95.116811,46.797249 98.365321,46.884949 99.156961,48.947929 C 99.595991,50.092029 98.584661,51.628549 95.875571,53.933369 C 93.721761,55.765759 89.934561,59.052799 87.459561,61.237899 C 84.984561,63.422989 80.709561,66.689129 77.959559,68.495989 C 70.469511,73.417229 62.206892,81.740219 62.626587,83.940979 C 63.102305,86.435499 66.596814,86.783169 70.641874,84.738409 C 78.629111,80.700909 84.248651,75.319289 91.056861,65.187759 C 101.57459,49.535939 106.7687,44.444439 119.75275,37.058769 C 125.9165,33.552669 133.43456,29.656299 136.45956,28.400169 C 142.94798,25.705869 148.46143,22.256159 153.19744,17.927449 C 159.27136,12.375889 170.45956,7.3549192 170.45956,10.180659 C 170.45956,10.668257 167.28912,13.661038 163.41413,16.831285 C 157.48379,21.683079 154.45978,24.940939 154.4595,26.478379 C 154.45947,26.652039 158.66458,26.794119 163.80418,26.794119 C 174.14033,26.794119 176.48313,27.791469 176.42412,32.166559 C 176.35439,37.337679 174.26473,39.519269 159.53508,49.798619 C 151.38745,55.484589 150.00019,58.163579 156.89858,54.890079 C 158.74836,54.012299 161.39635,53.294119 162.78299,53.294119 C 164.64231,53.294119 166.83405,51.545439 171.13186,46.632989 C 184.66113,31.168889 187.57363,29.108499 193.43159,29.114021 C 198.44357,29.118746 198.1352,28.821983 202.08687,28.386854 C 204.83075,28.084718 198.14139,38.599111 193.17661,43.985259 C 188.2595,49.319691 185.53953,51.240504 179.18466,51.812629 C 176.16489,52.084497 174.53766,51.45913 173.00859,52.506453 C 171.19353,53.749674 169.44592,57.957859 168.78083,59.012609 C 167.76273,60.627175 170.22478,59.420959 173.70956,58.834509 C 176.04706,58.441139 185.27206,57.354449 194.20956,56.419649 C 209.4203,54.828709 210.45956,54.827459 210.45956,56.400079 C 210.45956,58.886139 208.98947,59.154389 191.73597,59.816579 C 170.48993,60.632019 167.29137,61.398309 163.47554,66.587029 C 161.81675,68.842629 160.34644,71.501958 160.34644,71.943608 C 160.34644,72.385258 165.56482,71.954752 171.80457,71.954752 C 181.39503,71.954752 183.39771,72.568299 184.75398,74.066959 C 186.74222,76.263939 186.48113,75.461493 178.84644,80.894799 C 171.24931,86.301372 166.8159,89.827214 158.62879,92.678959 C 150.44416,95.529841 148.20919,94.720969 145.68615,92.035309 C 143.60111,89.815889 144.50028,89.593777 146.25833,85.672187 C 147.24242,83.477027 148.7939,81.176519 149.70606,80.421669 C 150.61822,79.666829 151.25142,78.428085 151.25142,77.945425 C 151.25142,76.289715 141.59829,77.295619 132.38112,79.762289 C 124.76932,81.799339 122.66773,82.803719 120.3496,85.512289 C 116.9973,89.429199 116.76725,91.380669 119.45956,93.062049 C 120.55956,93.749009 120.78119,95.198679 120.78119,96.283539 C 120.78119,98.710349 125.05153,99.780848 130.04883,98.843349 C 134.87487,97.937979 138.45956,100.25612 138.45956,104.28238 C 138.45956,109.48037 129.66123,117.39255 124.05592,117.23531 C 122.00988,117.17792 122.00629,117.14791 123.90607,115.98531 C 127.42238,113.83345 132.45956,108.62102 132.45956,107.13423 C 132.45956,104.15031 129.82547,102.27783 124.16771,101.23986 C 120.98219,100.65544 116.81969,99.259119 114.91771,98.136929 C 110.58552,95.580869 110.2962,91.830139 114.08399,87.328609 C 115.52743,85.613179 116.44766,83.948879 116.12895,83.630169 C 115.81023,83.311459 112.58392,83.610249 108.95936,84.294159 C 103.88898,85.250869 101.97611,86.108849 100.66441,88.014689 C 99.726741,89.377069 97.562001,92.134779 95.853881,94.142939 C 94.145751,96.151089 92.241651,98.761329 91.622551,99.943478 C 90.542531,102.00573 75.732268,110.90016 74.849054,110.01695 C 74.613284,109.78118 76.004197,107.85915 77.93997,105.74578 C 83.586301,99.581419 82.509931,97.294119 73.962722,97.294119 C 71.137798,97.294119 68.816703,97.970989 67.29451,99.238689 C 66.010287,100.30821 63.626355,103.14572 61.209559,104.34229 C 55.190751,107.32223 56.919339,106.40111 60.47854,101.87632 C 61.641243,100.39818 61.49728,98.998509 61.264707,98.765929 C 61.032133,98.533359 58.516669,98.618459 55.674786,98.955029 C 51.802587,99.413639 50.356443,100.04365 49.904038,101.46905 C 48.983024,104.37091 42.446705,108.19708 37.176359,108.91946 C 34.582119,109.27504 32.459559,109.29733 32.459559,108.969 C 32.459559,105.50396 56.140212,94.294119 63.460051,94.294119 C 66.457103,94.294119 76.218017,90.875529 77.892892,89.239269 C 79.793131,87.382839 77.513011,87.238099 70.82712,88.790729 C 62.209703,90.791909 40.428222,95.256639 34.459559,96.245289 C 28.872763,97.170689 20.002759,100.72168 16.608173,103.39186 C 12.164562,106.88721 9.1540826,112.98228 9.8185906,117.13818 C 10.463358,121.17061 7.5679653,128.00905 6.1936063,128.00905 C 5.7077533,128.00905 7.4595586,123.93 7.4595586,122.26274 z M 91.840861,91.294119 C 94.139221,87.821069 94.255531,87.300329 92.723751,87.341299 C 91.753441,87.367239 88.516801,88.652989 85.531221,90.198519 L 80.102871,93.008559 L 83.031221,94.072389 C 87.894951,95.839329 89.080381,95.465479 91.840861,91.294119 z M 164.45956,88.109509 C 171.87076,84.212719 178.60132,79.332509 177.97099,78.312619 C 177.12183,76.938649 159.27665,75.999299 156.24663,77.169069 C 153.49086,78.232969 148.45956,85.048439 148.45956,87.717539 C 148.45956,88.522289 149.42495,89.856899 150.60488,90.683349 C 153.34974,92.605919 157.30566,91.871019 164.45956,88.109509 z M 92.816481,82.617139 C 96.745171,81.694789 101.19412,80.091239 102.70304,79.053689 C 105.08891,77.413119 112.52021,68.544559 123.03107,54.794119 C 133.55,41.033109 136.87331,36.945169 140.95905,32.741249 C 143.47493,30.152599 145.35956,27.860779 145.1471,27.648329 C 144.66479,27.166019 124.2823,38.589829 115.18898,44.439019 C 108.34764,48.839629 102.19407,55.640699 97.079261,64.454289 C 94.544001,68.822909 84.314931,79.676299 80.967081,81.549849 C 78.474431,82.944809 79.260831,84.294119 82.566481,84.294119 C 84.275281,84.294119 88.887781,83.539479 92.816481,82.617139 z M 120.00057,79.851631 C 122.02195,76.998234 125.62754,71.936653 122.5804,73.294119 C 121.59192,73.734476 115.86407,75.370481 112.87786,76.423832 C 109.62885,77.569882 109.79556,77.08581 108.56456,78.600263 C 107.57547,79.817099 104.78864,82.600581 107.77687,82.115661 C 109.73547,81.797821 118.09812,81.027401 120.00057,79.851631 z M 133.89992,76.316799 C 135.31372,75.779269 140.51768,74.820439 145.46425,74.186069 C 154.13731,73.073789 154.53345,72.910629 156.57286,69.610789 C 157.73602,67.728759 158.46114,65.962369 158.18424,65.685469 C 157.90735,65.408569 153.58213,66.613259 148.57265,68.362569 C 141.14894,70.954909 139.18664,71.312509 137.96203,70.296169 C 137.13567,69.610349 136.45956,68.429329 136.45956,67.671669 C 136.45956,66.914019 137.05645,66.890845 136.32732,66.890845 C 135.19147,66.890845 129.72983,69.944579 127.98333,71.874082 C 126.23683,73.803585 127.45956,74.758039 127.45956,76.228379 C 127.45956,77.560359 130.51863,77.602359 133.89992,76.316799 z M 125.90019,67.373682 C 130.81781,63.434834 138.01618,53.613809 144.03448,41.794119 C 146.5549,36.844119 149.03162,32.366619 149.53831,31.844119 C 151.02524,30.310779 150.60434,29.294119 148.48261,29.294119 C 147.39529,29.294119 145.71917,30.531619 144.7579,32.044119 C 143.05498,34.723559 128.04461,54.495539 118.18682,67.044119 C 113.59341,72.891339 109.4698,75.304146 111.67751,74.172925 C 112.83258,73.581069 123.96041,68.482449 125.90019,67.373682 z M 152.95956,64.069349 C 156.80956,62.455629 160.21745,62.657387 160.83039,62.007965 C 162.23205,60.522878 165.17656,55.790908 165.43112,54.801126 C 165.55114,54.334448 161.95759,54.841094 159.29889,55.785384 C 156.64019,56.729664 153.36149,58.294119 151.73638,58.294119 C 147.80135,58.294119 141.54382,63.071049 141.496,66.111509 C 141.45371,68.801019 141.83132,68.733749 152.95956,64.069349 z M 143.96024,56.741739 C 146.51986,54.787929 151.76249,51.230069 155.61051,48.835369 C 168.48595,40.822749 172.3045,35.990239 168.81088,32.129829 C 165.8599,28.869029 163.66118,28.141339 158.91167,28.853569 C 155.14469,29.418459 154.345,29.939429 153.83762,32.159139 C 153.1184,35.305559 146.52506,46.743379 141.2466,54.001419 C 135.67424,61.663589 136.46548,62.462609 143.96024,56.741739 z M 185.81966,46.977739 C 189.1996,44.763119 195.13793,35.801942 194.45956,33.743989 C 193.85923,31.922762 194.6178,31.294119 192.74388,31.294119 C 191.02194,31.294119 187.67649,33.507089 182.56551,39.176599 C 174.22353,48.430179 173.62334,50.361349 179.41878,49.301579 C 181.59635,48.903379 184.47674,47.857659 185.81966,46.977739 z"
     id="path2384"
     style="fill:#000000" />
</svg>
