<?xml version="1.0" encoding="UTF-8"?>
<svg version="1.1" xmlns="http://www.w3.org/2000/svg" width="189" height="61" >
<path d="M9.679,4.472c-1.055,8.249-2.864,16.434-4.49,24.581c-0.357,1.79-3.583,10.726-1.311,12.569 c0.271,0.22,0.588,0.292,0.909,0.117c3.784-2.069-2.446-11.364-3.302-13.8c-0.457,0.192-0.914,0.385-1.371,0.578 c1.871,4.386,5.166,10.954,10.448,11.678c7.908,1.083,8.486-12.369,7.949-17.057c-0.108-0.941-1.58-0.975-1.5,0 c0.289,3.512,0.297,15.859,4.928,16.462c4.212,0.549,4.778-14.315,2.352-16.492c-0.717-0.644-1.782,0.413-1.061,1.061 c1.855,1.665,0.957,6.229,0.649,8.335c-0.24,1.643-1.47,7.881-3.092,3.803c-1.612-4.052-1.922-8.859-2.277-13.169 c-0.5,0-1,0-1.5,0c0.584,5.104-1.361,20.99-9.719,13.79c-2.662-2.293-4.517-5.964-5.884-9.168 c-0.333-0.782-1.651-0.219-1.371,0.578c1.342,3.817,4.558,8.398,4.771,11.663c-0.168-2.574,0.799-5.414,1.296-7.9 c1.83-9.162,3.886-18.353,5.073-27.629C11.302,3.514,9.8,3.526,9.679,4.472L9.679,4.472z"/>
<path d="M24.115,33.35c0.653,1.422,4.83,9.866,6.801,5.46c2.041-4.561,1.086-13.046-1.172-17.384 c-0.401-0.771-1.578-0.229-1.371,0.578c1.083,4.228,6.825,15.5,11.636,8.279c3.821-5.734-3.031-14.333-8.317-8.3 c-4.317,4.928-0.614,17.56,6.404,18.072c7.252,0.53,9.434-8.783,9.917-14.417c-0.491,0.066-0.982,0.133-1.474,0.199 c0.992,2.549,3.539,11.949,6.609,11.949c2.717,0,3.11-10.432,4.748-9.759c0.895,0.368,1.28-1.084,0.398-1.446 c-2.429-0.999-3.24,3.241-3.65,4.72c-0.418,1.502-0.801,6.256-2.414,3.438c-1.685-2.942-3.018-6.146-4.244-9.3 c-0.31-0.795-1.399-0.666-1.474,0.199c-0.274,3.193-1.096,6.429-2.544,9.288c-3.95,7.799-10.799,1.419-12.153-4.316 c-0.628-2.658-0.46-5.972,1.405-8.102c3.567-4.07,6.718,1.926,6.2,5.097c-0.854,5.229-5.563,2.688-7.433-0.455 c-1.001-1.682-1.683-3.648-2.169-5.545c-0.457,0.192-0.914,0.385-1.371,0.578c1.888,3.626,1.815,8.337,1.667,12.325 c-0.109,2.93-0.365,5.289-2.704,1.818c-0.784-1.163-1.416-2.459-2.001-3.733C25.006,31.715,23.714,32.478,24.115,33.35 L24.115,33.35z"/>
<path d="M66.319,27.504c0.563-3.294-0.885-5.837-4.024-6.881c-5.317-1.767-7.039,5.686-7.239,9.228 c-0.811,14.309,16.647,0.314,12.165-4.169c-1.593-1.592-3.604-0.813-3.733,1.282c-0.222,3.597,1.602,8.272,4.867,10.006 c7.369,3.912,7.092-12.606,6.866-15.874c-0.055-0.794-1.324-1.08-1.474-0.199c-0.625,3.691-0.754,9.822,2.886,12.175 c3.797,2.456,3.358-8.365,3.338-9.101c-0.5,0-1,0-1.5,0c0.139,2.046,1.181,13.825,5.318,9.972 c2.479-2.309,3.676-6.667,4.87-9.735c1.21-3.11,3.035-6.891,3.065-10.3c0.003-0.315-0.229-0.659-0.551-0.723 c-0.016-0.003-0.032-0.006-0.048-0.01c-0.383-0.076-0.832,0.104-0.923,0.524c-0.483,2.241-0.298,4.578,0.169,6.8 c0.308,1.46,1.104,2.856,1.537,4.286c0.323,1.149,0.532,2.319,0.627,3.512c0.252,2.431-3.424,4.839-5.535,2.644 c-0.672-0.698-1.73,0.364-1.061,1.061c1.877,1.952,6.559,3.102,7.653-0.356c0.771-2.434,0.355-4.829-0.238-7.258 c-0.361-1.478-1.025-2.861-1.537-4.287c-0.264-1.077-0.393-2.167-0.386-3.27c0.008-0.349,0.015-0.698,0.022-1.046 c0.347-0.941-0.064-1.42-1.234-1.438c-0.041,4.676-3.41,10.852-5.339,14.94c-1.089,2.31-2.657,5.441-3.9,1.321 c-0.642-2.127-0.86-4.427-1.011-6.637c-0.064-0.956-1.527-0.975-1.5,0c0.025,0.907,0.016,9.821-2.074,6.745 c-1.764-2.595-1.709-6.435-1.202-9.421c-0.491-0.066-0.982-0.133-1.474-0.199c0.21,3.041,0.293,18.633-5.805,13.814 c-1.509-1.193-2.126-3.434-2.585-5.2c-0.166-0.7-0.274-1.408-0.327-2.126c-0.005-0.207-0.011-0.414-0.017-0.621 c0.554,2.367-0.027,4.185-1.743,5.454c-2.02,2.638-4.235,2.281-6.648-1.071c-0.239-1.834,0.109-3.715,0.55-5.488 c1.275-5.129,8.516-3.356,7.727,1.248C64.711,28.052,66.156,28.457,66.319,27.504L66.319,27.504z"/>
<path d="M100.372,9.272c-1.723,5.203-0.812,11.154-0.167,16.466c0.898,7.403,2.071,14.784,2.565,22.23 c0.219,3.296,0.229,6.938-2.029,9.601c-3.96,4.669-7.708-11.063-7.905-13.139c-0.907-9.581,4.262-18.346,13.709-20.861 c0.934-0.249,0.537-1.695-0.398-1.446c-9.411,2.505-14.413,10.285-14.871,19.757c-0.164,3.396,2.681,21.442,9.309,17.629 c6.352-3.655,3.416-15.453,2.745-21.065c-1.048-8.761-4.371-20.134-1.51-28.773C102.124,8.75,100.675,8.358,100.372,9.272 L100.372,9.272z"/>
<path d="M108.872,21.772c-0.187,0.44-0.395,0.87-0.623,1.291c-0.162,0.276-0.325,0.551-0.488,0.827 c-3.269-0.175-4.626-1.707-4.071-4.596c0.976-3.408,2.599-4.097,4.871-2.068c1.313,1.126,1.456,3.101,1.686,4.666 c0.243,1.658,1.109,4.267,2.736,5.118c4.945,2.583,5.743-7.535,5.988-10.038c-0.5,0-1,0-1.5,0 c-0.058,1.991,2.4,15.206,6.438,11.169c2.086-2.086,1.63-7.534,2.265-10.252c1.387-5.943,3.923-12.045,8.453-16.262 c0.709-0.66-0.354-1.719-1.061-1.061c-4.78,4.45-7.236,10.72-8.839,16.923c-0.718,2.778-0.834,5.591-1.377,8.394 c-0.639,3.293-3.929-4.178-4.055-4.737c-0.298-1.33-0.363-2.805-0.324-4.175c0.028-0.982-1.407-0.943-1.5,0 c-0.082,0.837-1.43,12.178-4.583,7.807c-1.459-2.023-0.882-4.656-2.027-6.76c-1.225-2.25-4.68-5.021-7.213-2.614 c-2.369,2.251-2.133,9.111,0.887,10.869c2.983,1.737,4.762-1.646,5.785-4.103C110.69,21.278,109.238,20.893,108.872,21.772 L108.872,21.772z"/>
<path d="M132.126,25.502c1.693-1.625,1.429-2.623,0.845-4.625c-0.77-2.642,0.021-6.1-1.433-8.56 c-2.982-5.043-4.549,5.23-4.695,6.777c-0.146,1.531-0.884,7.713,1.062,8.681c3.076,1.53,5.007-9.877,5.29-10.979 c-0.491-0.066-0.982-0.133-1.474-0.199c-0.152,1.631,0.112,13.332,4.174,10.953c1.809-1.06,2.479-6.518,3.34-8.307 c-0.631,1.313,1.422,7.638,3.226,8.134c1.511,0.416,1.924-1.582,2.038-2.595c0.656-5.808,2.577,1.531,3.416,3.616 c0.268,0.664,0.86,1.312,1.599,0.833c1.612-1.043,0.934-6.257,0.958-7.635c0.017-0.968-1.483-0.966-1.5,0 c-0.03,1.71-0.072,3.415-0.2,5.121c-0.132,1.749,0.492,1.112,0.189,0.119c-0.564-1.849-0.778-4.196-2.214-5.632 c-0.593-0.593-1.971-1.298-2.729-0.541c-0.679,0.679-1.333,5-1.619,4.558c-0.172-0.266-1.665-11.543-4.112-7.333 c-1.256,2.16-2.006,4.61-2.664,7.007c-1.465,0.525-2.172-0.106-2.121-1.894c-0.23-1.037-0.356-2.085-0.379-3.145 c-0.06-1.081-0.002-2.185,0.099-3.262c0.08-0.856-1.267-1.003-1.474-0.199c-0.562,2.186-1.147,4.358-1.829,6.51 c-0.326,1.027-1.377,3.144-1.242,3.47c-0.532-1.283-0.435-2.957-0.453-4.322c-0.02-1.326,0.09-2.646,0.215-3.963 c0.049-0.504,1.301-7.159,2.176-3.765c0.428,1.659,1.936,8.691,0.452,10.115C130.366,25.112,131.429,26.172,132.126,25.502 L132.126,25.502z"/>
<path d="M153.743,28.718c-1.117-2.547-2.121-5.144-3.063-7.761c-1.646-4.581-4.392-10.747,2.005-12.903 c9.486-3.198,9.267,8.902,7.751,14.38c-1.101,3.976-4.118,5.919-1.613,9.791c0.99,1.53,3.872,3.947,5.945,2.92 c2.534-1.254,2.688-4.247,3.152-6.75c1.679-9.057,2.926-18.453,2.8-27.673c-0.5,0-1,0-1.5,0 c0.788,6.062-2.666,12.132-3.755,17.978c-0.507,2.72-1.959,9.563,1.261,11.291c2.268,1.216,16.017-9.931,15.388-2.472 c-0.372,4.412,1.386,6.132,5.657,7.302c0.935,0.256,1.33-1.191,0.398-1.446c-3.547-0.972-4.964-2.428-4.556-5.855 c0.097-0.818,0.147-2.021-0.495-2.673c-2.687-2.724-7.435-0.666-10.215,0.807c-3.117,1.652-6.449,4.193-6.498-1.43 c-0.031-3.626,0.827-7.28,1.845-10.738c1.196-4.067,3.036-8.402,2.47-12.762c-0.12-0.927-1.514-0.996-1.5,0 c0.136,9.893-1.231,20.026-3.219,29.704c-0.357,1.745-1.028,5.247-5.028,1.983c-3.104-2.533-1.166-4.86-0.072-6.993 c0.943-1.841,1.381-3.937,1.751-5.953c0.665-3.629,0.521-7.625-1.754-10.656c-3.133-4.177-13.854-3.119-13.878,3.099 c-0.023,5.938,3.081,12.22,5.428,17.568C152.836,30.359,154.128,29.595,153.743,28.718L153.743,28.718z"/>
<path d="M142.846,18.472c14.761,1.528,29.912,3.022,44.75,2.125c0.961-0.058,0.967-1.559,0-1.5 c-14.838,0.897-29.989-0.597-44.75-2.125C141.884,16.872,141.894,18.373,142.846,18.472L142.846,18.472z"/>
</svg>