<?xml version="1.0" standalone="no"?>
<!DOCTYPE svg PUBLIC "-//W3C//DTD SVG 20010904//EN"
 "http://www.w3.org/TR/2001/REC-SVG-20010904/DTD/svg10.dtd">
<svg version="1.0" xmlns="http://www.w3.org/2000/svg"
 width="468pt" height="95pt" viewBox="0 0 468 95"
 preserveAspectRatio="xMidYMid meet">
<metadata>
Created by POTRACE VERSION, written by Peter Selinger 2001-2007
</metadata>
<g transform="translate(0,95) scale(0.012037,-0.012037)"
fill="#000000" stroke="none">
<path d="M26037 7834 c-70 -18 -148 -42 -173 -53 -24 -11 -64 -35 -87 -54 -23
-18 -63 -41 -89 -51 -33 -12 -60 -33 -89 -67 -32 -38 -51 -52 -86 -60 -27 -7
-51 -21 -61 -36 -9 -14 -28 -38 -42 -54 -14 -16 -43 -34 -65 -41 -33 -11 -42
-20 -56 -58 -9 -24 -30 -56 -46 -70 -17 -14 -43 -45 -58 -70 -16 -24 -38 -53
-51 -62 -12 -10 -30 -41 -39 -69 -13 -38 -26 -56 -56 -74 -21 -14 -46 -37 -56
-52 -9 -16 -35 -48 -57 -73 -23 -24 -64 -67 -92 -95 -27 -27 -70 -77 -95 -110
-24 -33 -57 -82 -73 -108 -15 -26 -57 -79 -94 -117 -37 -37 -88 -91 -114 -118
-27 -28 -48 -56 -48 -63 0 -7 -19 -32 -42 -54 -24 -23 -74 -76 -113 -119 -38
-42 -77 -90 -85 -105 -8 -15 -40 -57 -70 -92 -30 -35 -78 -86 -107 -114 -29
-27 -61 -71 -72 -96 -10 -26 -28 -53 -40 -61 -11 -8 -30 -36 -41 -63 -12 -27
-38 -65 -58 -84 -20 -20 -45 -49 -55 -66 -9 -16 -28 -46 -42 -65 -14 -19 -66
-78 -115 -131 -83 -90 -92 -97 -137 -104 -26 -3 -65 -18 -86 -32 -21 -14 -60
-30 -88 -34 -27 -4 -73 -22 -100 -39 -27 -16 -69 -35 -92 -40 -23 -6 -109 -26
-192 -46 -139 -34 -165 -37 -369 -44 -120 -4 -244 -4 -275 0 -31 4 -105 15
-165 25 -86 14 -115 16 -141 6 -17 -6 -39 -11 -48 -11 -9 0 -34 16 -56 35 -21
20 -49 35 -62 35 -14 0 -35 7 -47 16 -12 8 -40 41 -61 72 -21 32 -44 76 -50
97 -6 22 -11 76 -11 120 0 44 7 105 16 135 8 30 19 91 23 135 5 46 19 106 34
142 14 34 36 77 50 95 14 18 32 49 39 68 8 19 18 52 22 73 5 28 3 45 -9 63 -8
13 -22 24 -30 24 -8 0 -33 -24 -56 -52 -22 -29 -55 -64 -71 -77 -18 -14 -46
-56 -65 -98 -19 -41 -56 -98 -83 -128 -39 -44 -50 -64 -59 -112 -7 -32 -24
-94 -39 -138 -24 -72 -27 -94 -27 -225 0 -137 1 -148 26 -195 14 -27 29 -63
33 -80 4 -16 12 -35 17 -41 4 -6 82 -47 171 -92 143 -72 172 -83 233 -88 45
-4 95 -17 140 -37 67 -30 77 -31 231 -35 88 -2 200 1 248 7 60 7 102 18 130
34 28 17 64 26 111 30 39 3 135 22 214 42 80 20 175 39 212 42 65 6 69 5 77
-18 5 -13 7 -41 4 -62 -3 -29 -13 -45 -44 -70 -22 -18 -53 -57 -70 -87 -16
-30 -42 -77 -57 -104 -16 -27 -43 -60 -60 -73 -21 -17 -36 -41 -47 -79 -8 -30
-19 -54 -24 -54 -5 0 -36 -25 -70 -57 -34 -31 -68 -70 -77 -87 -8 -17 -25 -41
-36 -54 -11 -12 -30 -37 -41 -56 -12 -18 -43 -65 -69 -105 -26 -39 -52 -71
-58 -71 -5 0 -20 -25 -34 -56 -14 -31 -40 -74 -59 -94 -19 -21 -37 -48 -41
-60 -4 -13 -27 -49 -52 -81 -24 -32 -50 -62 -57 -66 -7 -5 -24 -28 -36 -53
-13 -25 -51 -76 -85 -115 -35 -38 -78 -89 -96 -112 -19 -23 -59 -73 -90 -110
-31 -38 -63 -82 -71 -98 -9 -17 -33 -55 -53 -85 -20 -30 -50 -69 -66 -86 -18
-18 -36 -53 -44 -84 -10 -38 -23 -61 -44 -77 -16 -13 -32 -36 -36 -51 -3 -15
-14 -42 -25 -60 -11 -18 -24 -32 -30 -32 -5 0 -14 9 -20 19 -5 11 -14 50 -19
87 -6 42 -17 74 -28 84 -11 10 -58 24 -118 34 -55 9 -109 16 -121 16 -11 0
-36 -16 -55 -36 -18 -20 -58 -51 -87 -70 -29 -19 -71 -53 -95 -77 -23 -23 -63
-59 -89 -80 -26 -20 -100 -95 -165 -165 -65 -71 -144 -159 -176 -195 -32 -37
-65 -84 -74 -104 -8 -21 -28 -54 -43 -73 -15 -19 -35 -59 -44 -88 -12 -36 -28
-60 -51 -78 -25 -19 -40 -43 -55 -89 -12 -35 -30 -75 -40 -88 -11 -13 -22 -43
-26 -66 -4 -23 -20 -62 -37 -87 -17 -26 -35 -73 -43 -112 -8 -37 -29 -96 -47
-131 -32 -64 -32 -67 -31 -202 1 -128 2 -140 28 -193 15 -30 44 -69 64 -86 22
-18 48 -30 67 -30 16 -1 48 -7 70 -15 22 -8 57 -15 78 -15 21 0 54 7 73 15 20
8 51 28 69 44 18 16 55 41 82 56 26 15 65 48 86 74 22 25 66 88 99 139 46 72
68 97 95 108 19 8 49 14 66 12 27 -3 35 -11 57 -56 22 -46 35 -58 110 -103 47
-28 97 -57 113 -65 15 -8 78 -19 140 -25 61 -5 150 -19 196 -31 69 -17 90 -19
125 -10 22 6 77 20 121 31 44 11 115 24 158 29 62 8 88 16 120 39 23 17 68 40
100 52 32 11 66 21 76 21 9 0 28 11 40 24 13 14 37 30 54 37 18 7 46 22 62 34
17 12 52 30 78 39 26 10 55 28 63 41 9 13 30 27 47 30 18 4 64 23 103 42 44
23 78 34 89 29 14 -5 16 -13 11 -39 -4 -17 -10 -47 -13 -65 -3 -20 1 -51 12
-78 12 -33 28 -52 59 -71 22 -14 52 -36 66 -49 14 -12 39 -28 55 -35 17 -7 71
-13 120 -14 50 -1 119 -5 155 -9 61 -8 71 -6 135 22 39 17 90 35 114 42 24 6
61 22 82 36 21 13 69 30 107 38 39 8 85 22 103 31 18 10 53 36 78 60 25 23 64
52 86 63 22 11 52 33 66 49 15 16 43 37 63 48 l38 20 19 -24 c15 -18 19 -39
19 -93 0 -42 6 -80 15 -98 8 -16 25 -34 36 -41 11 -6 38 -26 58 -44 28 -26 55
-38 111 -51 54 -12 99 -15 165 -11 49 3 104 11 120 17 17 6 40 20 52 32 12 11
31 46 43 78 12 32 20 68 18 81 -2 13 -14 29 -28 37 -18 9 -54 12 -125 9 -55
-2 -114 0 -132 5 -18 5 -37 17 -43 28 -5 10 -11 103 -12 207 l-3 188 31 55
c18 30 37 71 43 91 6 19 27 59 46 89 24 37 35 66 35 91 0 20 -5 51 -11 68 -7
19 -22 36 -36 42 -13 5 -34 9 -47 9 -12 0 -45 -12 -73 -26 -45 -22 -56 -34
-84 -90 -18 -35 -43 -71 -55 -79 -13 -8 -32 -41 -44 -74 -16 -43 -40 -78 -86
-127 -36 -38 -82 -87 -103 -109 -21 -22 -46 -53 -56 -69 -10 -15 -38 -36 -60
-46 -23 -10 -57 -31 -76 -47 -19 -17 -65 -49 -103 -71 -38 -23 -94 -51 -125
-62 -30 -12 -83 -27 -117 -34 -34 -7 -75 -22 -90 -33 -16 -12 -47 -26 -69 -32
-22 -6 -80 -14 -130 -17 -68 -5 -94 -3 -108 8 -10 7 -23 34 -28 58 -6 24 -7
62 -4 85 3 22 13 69 22 105 8 37 27 80 43 100 15 19 34 49 43 65 8 17 29 44
47 60 17 17 45 56 62 88 18 33 44 65 63 77 18 11 45 32 60 47 15 16 36 47 47
70 10 24 39 60 64 80 29 25 56 61 77 103 17 36 45 84 61 107 23 34 27 47 22
76 -4 19 -17 50 -29 68 -13 19 -31 35 -41 37 -10 2 -34 1 -53 -3 -26 -5 -60
-29 -122 -86 -47 -44 -123 -115 -168 -157 -48 -45 -91 -96 -103 -121 -12 -25
-49 -80 -83 -124 -34 -43 -75 -99 -92 -123 -25 -36 -39 -47 -83 -60 -38 -11
-59 -25 -79 -50 -15 -20 -53 -49 -87 -66 -34 -16 -81 -52 -107 -79 -31 -33
-54 -49 -71 -49 -14 0 -40 -11 -59 -25 -19 -14 -47 -33 -62 -42 -15 -10 -51
-35 -79 -55 -27 -21 -55 -38 -62 -38 -7 0 -35 -7 -62 -15 -28 -8 -70 -30 -95
-49 -24 -19 -75 -44 -114 -56 -38 -13 -103 -33 -143 -47 -47 -15 -108 -26
-170 -30 -53 -3 -144 0 -202 6 -94 10 -112 16 -179 54 -46 26 -77 51 -83 67
-5 13 -8 36 -7 50 1 14 -1 69 -6 122 -4 54 -4 119 0 145 5 34 15 55 37 75 17
16 39 52 48 81 10 29 48 95 85 147 38 52 84 112 103 134 18 21 40 54 48 72 8
19 43 68 78 108 35 40 76 96 90 124 14 28 30 53 36 57 6 3 19 24 31 46 11 22
36 50 55 61 21 12 44 39 59 69 14 26 30 51 36 55 6 3 22 30 35 58 14 28 35 66
47 85 12 19 43 55 68 80 26 25 70 81 98 125 28 43 51 82 51 85 0 4 13 14 29
24 21 12 32 31 45 76 13 45 25 65 50 85 20 15 45 50 60 82 14 30 46 75 70 99
30 29 47 55 52 80 4 25 22 52 53 83 26 26 53 56 61 67 8 12 32 34 52 49 21 15
48 45 60 67 13 21 45 71 72 111 27 40 62 87 78 104 16 17 42 57 59 90 16 32
39 74 52 93 12 19 43 55 70 82 26 26 47 54 47 61 0 8 18 40 40 71 22 30 40 60
40 65 0 5 22 43 49 83 26 41 60 85 76 99 15 14 36 43 47 65 11 22 30 51 43 65
12 14 47 63 78 110 31 47 67 96 81 110 15 14 43 41 64 61 20 20 60 52 89 72
28 19 68 38 88 41 20 4 59 26 89 50 29 24 61 48 72 53 10 6 39 13 64 17 38 6
54 16 99 62 29 30 75 66 102 79 26 14 53 34 59 44 5 11 17 27 26 35 9 9 32 16
54 16 21 0 50 4 65 10 14 5 61 39 105 75 44 35 97 73 118 84 21 11 44 27 52
36 7 9 43 35 79 59 36 23 93 67 126 98 33 30 70 58 83 62 12 4 34 25 47 46 15
23 48 52 82 73 33 19 113 88 183 158 77 77 141 131 167 143 30 13 51 32 69 63
17 29 47 58 87 84 52 34 67 50 95 105 26 52 41 69 70 82 22 10 116 96 231 211
l194 193 48 110 c26 60 59 124 72 141 13 18 41 65 61 104 24 49 36 86 36 115
0 32 -9 56 -41 105 -23 34 -56 72 -73 83 -18 11 -56 47 -85 80 -29 33 -66 67
-81 75 -17 9 -53 15 -87 14 -32 -1 -116 -16 -186 -35z m256 -243 c42 -23 79
-47 83 -53 4 -6 10 -27 15 -47 5 -24 3 -55 -7 -96 -9 -32 -22 -73 -31 -90 -8
-16 -33 -48 -55 -71 -35 -36 -41 -50 -53 -123 -8 -46 -18 -87 -21 -93 -3 -5
-26 -18 -50 -28 -35 -15 -47 -28 -60 -60 -9 -22 -25 -45 -35 -51 -11 -5 -30
-27 -43 -47 -13 -21 -58 -71 -99 -111 -42 -41 -96 -83 -119 -93 -23 -10 -57
-30 -75 -44 -18 -14 -42 -43 -54 -65 -11 -23 -31 -44 -47 -50 -15 -6 -41 -21
-58 -34 -18 -13 -44 -44 -60 -69 -18 -28 -42 -51 -67 -62 -21 -10 -54 -32 -73
-50 -19 -19 -60 -50 -90 -70 -30 -20 -71 -57 -92 -82 -20 -25 -53 -52 -72 -60
-19 -8 -54 -31 -76 -51 -23 -20 -70 -54 -104 -75 -34 -22 -73 -55 -88 -74 -14
-19 -54 -48 -91 -67 -36 -18 -104 -58 -151 -88 -47 -31 -107 -72 -135 -91 -27
-20 -59 -36 -70 -36 -11 0 -39 -9 -62 -19 -29 -14 -48 -31 -61 -58 -11 -21
-29 -46 -41 -57 -15 -14 -29 -17 -53 -12 -17 3 -40 14 -50 23 -10 9 -18 29
-18 46 0 17 11 44 28 64 15 19 45 54 67 77 22 24 64 76 94 115 30 39 63 79 73
88 10 9 29 40 42 69 14 30 33 55 45 59 11 3 41 38 67 76 26 39 62 80 81 92 22
14 49 48 75 95 23 41 58 87 80 105 22 18 50 52 63 77 13 25 57 79 99 120 42
41 92 91 111 110 19 19 42 56 51 82 11 34 25 52 49 67 19 11 41 35 49 54 7 19
27 44 44 55 16 12 45 45 63 74 18 29 52 75 76 102 24 26 43 52 43 56 0 5 16
18 35 30 20 12 46 43 62 73 21 38 40 59 74 77 25 14 68 48 95 75 27 28 75 70
107 93 31 24 57 46 57 51 0 4 10 13 23 19 12 6 47 22 77 37 30 14 71 35 90 46
28 16 48 19 101 16 55 -3 80 -12 142 -46z m-5083 -5355 c0 -67 -4 -88 -19
-108 -11 -14 -25 -55 -32 -93 -10 -58 -17 -74 -49 -105 -26 -25 -43 -55 -54
-92 -9 -31 -23 -59 -32 -62 -9 -3 -28 -6 -43 -6 -21 0 -32 -8 -48 -38 -12 -20
-33 -47 -46 -59 -22 -18 -24 -27 -20 -67 5 -38 2 -51 -14 -69 -11 -12 -49 -65
-84 -117 -35 -52 -86 -119 -114 -147 -37 -38 -59 -53 -78 -53 -20 0 -31 7 -39
26 -10 22 -8 41 11 113 12 47 38 111 57 142 19 31 46 83 61 115 14 31 46 86
71 122 25 35 69 88 97 116 42 41 54 61 60 96 4 25 11 53 17 63 5 9 26 28 47
41 26 17 41 35 49 64 7 22 23 47 36 55 12 9 29 30 36 47 8 19 28 39 52 51 21
11 41 26 45 34 3 8 11 15 19 15 11 0 14 -19 14 -84z"/>
<path d="M7943 6540 c-23 -5 -72 -22 -110 -38 -37 -16 -92 -37 -121 -47 -43
-14 -70 -34 -157 -121 -58 -57 -110 -104 -115 -104 -5 0 -27 -15 -47 -34 -21
-18 -54 -41 -73 -51 -19 -10 -53 -33 -75 -53 -22 -19 -74 -67 -115 -107 -42
-40 -90 -80 -108 -89 -19 -10 -42 -32 -53 -51 -11 -18 -26 -35 -32 -38 -7 -3
-44 -28 -82 -57 -39 -29 -104 -85 -145 -124 -41 -40 -92 -84 -112 -99 -20 -15
-69 -73 -109 -129 -39 -57 -78 -122 -86 -145 -8 -24 -28 -55 -43 -70 -16 -16
-56 -55 -90 -88 -38 -37 -72 -82 -88 -116 -17 -35 -64 -98 -122 -162 -52 -57
-134 -158 -182 -223 -48 -65 -116 -144 -151 -175 -48 -43 -66 -67 -76 -100 -7
-24 -20 -51 -28 -61 -8 -9 -28 -22 -44 -29 -23 -9 -37 -28 -60 -77 -16 -36
-50 -90 -75 -121 -25 -31 -55 -73 -65 -93 -11 -21 -32 -47 -48 -59 -16 -11
-43 -50 -61 -85 -23 -46 -45 -73 -81 -99 -46 -33 -49 -38 -49 -80 0 -42 -3
-46 -38 -64 -24 -12 -44 -33 -55 -57 -10 -21 -37 -54 -61 -75 -23 -20 -55 -61
-70 -90 -16 -30 -38 -65 -50 -77 -12 -13 -33 -30 -48 -38 -18 -9 -33 -31 -48
-71 -14 -39 -39 -76 -74 -113 -37 -38 -56 -66 -60 -91 -3 -20 -21 -53 -39 -75
-18 -21 -46 -57 -62 -78 -17 -22 -46 -68 -65 -102 -19 -35 -54 -94 -78 -133
-36 -60 -54 -78 -125 -124 -45 -29 -111 -80 -146 -113 -35 -32 -85 -81 -112
-109 -26 -27 -61 -62 -76 -77 -15 -15 -67 -64 -114 -109 -47 -45 -106 -91
-130 -103 -24 -13 -61 -28 -82 -35 -21 -7 -58 -31 -83 -52 -25 -22 -60 -47
-77 -55 -18 -9 -60 -47 -95 -85 -52 -57 -73 -72 -115 -84 -29 -8 -75 -31 -102
-50 -28 -20 -68 -55 -90 -78 -22 -23 -62 -58 -88 -78 -26 -20 -62 -40 -80 -43
-19 -3 -51 -21 -73 -39 -21 -18 -64 -48 -94 -67 -30 -19 -78 -56 -107 -81 -31
-27 -78 -55 -111 -67 -32 -12 -96 -49 -142 -84 -57 -41 -106 -68 -147 -80 -48
-14 -76 -32 -127 -77 -56 -51 -76 -63 -149 -85 -59 -18 -101 -39 -135 -66 -28
-21 -53 -44 -57 -50 -4 -6 -39 -27 -78 -46 -39 -20 -94 -43 -122 -51 -27 -8
-61 -23 -75 -33 -14 -10 -48 -29 -76 -43 -35 -18 -82 -30 -145 -38 -77 -9
-104 -17 -150 -45 -31 -18 -85 -40 -120 -49 -35 -8 -81 -15 -101 -15 -20 0
-59 -5 -86 -12 -46 -10 -54 -9 -88 11 -20 12 -62 29 -93 36 -30 8 -79 15 -109
15 -29 0 -62 4 -72 10 -12 6 -23 34 -35 86 -13 60 -16 109 -13 223 4 134 7
153 36 229 19 48 36 118 41 165 5 45 15 95 21 111 6 16 22 43 37 60 14 17 34
49 44 71 10 22 19 60 19 84 0 31 7 54 23 75 13 17 29 48 36 68 7 20 19 42 27
49 9 7 21 24 29 38 7 14 18 53 25 86 6 33 22 76 34 95 12 19 47 87 78 150 30
63 61 129 68 147 7 18 19 38 27 45 9 7 24 33 35 58 11 25 33 59 49 76 19 19
36 54 48 97 10 36 24 75 32 85 8 10 34 46 59 80 25 34 70 102 100 153 36 60
68 100 92 116 25 17 43 40 54 70 10 25 38 69 62 97 24 28 55 71 70 96 14 25
40 62 58 82 18 20 40 52 50 70 9 18 24 41 33 51 8 10 31 25 51 33 19 8 45 25
57 36 13 12 28 39 33 60 6 21 27 55 48 76 20 21 48 51 62 68 14 16 53 50 87
76 44 33 73 67 104 118 30 51 59 84 98 113 31 22 75 59 99 81 23 23 66 52 94
66 36 17 54 33 59 50 4 14 10 37 13 52 5 20 19 34 49 49 23 12 65 41 92 65 28
25 70 64 95 88 25 24 71 62 103 84 32 22 103 80 157 128 54 48 121 113 150
146 33 38 73 69 111 89 50 25 63 37 82 76 19 41 28 49 62 57 22 5 52 17 67 27
14 11 30 19 35 19 6 0 22 13 36 30 18 20 40 32 69 36 28 5 51 17 68 35 14 16
50 37 81 48 30 10 73 28 95 39 21 11 59 25 84 32 24 7 71 25 104 42 43 22 83
33 150 40 50 6 170 11 266 13 136 2 193 -2 257 -15 70 -15 90 -24 130 -60 27
-23 65 -51 86 -61 21 -11 42 -31 47 -45 6 -14 10 -41 10 -61 0 -20 5 -64 12
-99 9 -53 9 -77 -5 -147 -9 -46 -30 -117 -46 -157 -17 -40 -43 -89 -59 -109
-16 -20 -41 -55 -56 -79 -15 -24 -48 -66 -74 -93 -26 -27 -58 -73 -72 -102
-19 -38 -39 -61 -75 -84 -28 -18 -60 -39 -72 -48 -12 -8 -39 -47 -60 -87 -32
-61 -46 -77 -98 -109 -38 -25 -72 -39 -93 -39 -19 0 -35 6 -38 14 -3 8 6 31
20 53 13 21 29 57 35 79 9 32 8 50 -3 82 -11 31 -12 44 -3 55 7 7 33 26 59 40
36 21 50 36 62 69 8 24 20 60 26 80 6 20 17 41 23 47 7 5 35 15 62 21 28 6 60
21 73 33 13 12 30 36 38 53 9 18 29 38 45 44 16 7 41 26 54 42 19 22 25 41 25
77 0 35 -5 53 -20 66 -13 12 -27 15 -45 11 -17 -4 -35 -24 -56 -61 -17 -31
-39 -60 -49 -65 -10 -6 -32 -10 -48 -10 -16 0 -44 -3 -61 -6 -20 -4 -37 -16
-46 -33 -7 -14 -49 -62 -92 -106 -43 -44 -113 -109 -155 -145 -63 -53 -81 -75
-99 -120 -12 -30 -35 -72 -51 -92 -16 -21 -35 -55 -42 -76 -8 -22 -19 -98 -26
-169 -11 -116 -10 -137 5 -189 10 -36 28 -69 48 -89 27 -27 42 -33 94 -38 35
-4 74 -3 87 3 13 5 27 13 30 19 4 6 53 25 109 42 56 17 114 35 128 41 14 5 84
71 155 148 71 76 156 171 189 212 33 40 73 98 89 128 16 30 39 66 52 80 13 14
35 52 49 85 15 33 48 96 73 140 28 48 76 109 118 150 l71 71 7 83 c4 45 14
100 21 121 10 27 11 49 4 82 -6 28 -6 60 0 87 6 26 6 54 0 74 -5 18 -12 75
-16 127 -5 86 -9 101 -42 154 -20 34 -62 81 -96 109 -33 27 -77 66 -97 88 -26
28 -46 39 -66 39 -16 0 -65 11 -110 24 -70 21 -90 24 -139 16 -32 -5 -121 -14
-198 -19 -77 -6 -181 -10 -230 -9 -83 2 -95 -1 -156 -30 -49 -24 -87 -34 -156
-41 -78 -8 -105 -17 -189 -57 -55 -27 -117 -65 -140 -86 -30 -28 -59 -42 -120
-59 -43 -12 -91 -32 -106 -44 -15 -13 -53 -33 -83 -44 -31 -12 -60 -21 -64
-21 -5 0 -28 -23 -51 -51 -24 -27 -65 -61 -91 -75 -27 -13 -59 -40 -71 -58
-12 -19 -36 -41 -53 -50 -16 -9 -40 -32 -52 -51 -14 -21 -34 -37 -50 -40 -16
-3 -39 -9 -53 -13 -13 -4 -31 -21 -39 -37 -8 -17 -17 -37 -21 -45 -4 -8 -23
-24 -42 -35 -20 -10 -43 -32 -52 -47 -9 -15 -40 -42 -69 -59 -29 -18 -70 -55
-92 -83 -23 -28 -61 -61 -86 -74 -32 -17 -51 -36 -69 -70 -20 -38 -36 -52 -81
-74 -31 -15 -66 -39 -78 -54 -11 -15 -21 -39 -21 -53 0 -15 -7 -37 -16 -49 -8
-12 -33 -31 -54 -42 -21 -11 -52 -39 -69 -63 -16 -24 -59 -69 -96 -101 -39
-35 -76 -78 -90 -106 -14 -28 -54 -74 -95 -112 -39 -34 -96 -96 -126 -136 -30
-39 -67 -78 -82 -86 -15 -8 -37 -25 -48 -38 -12 -12 -31 -42 -43 -65 -11 -23
-58 -86 -103 -140 -46 -54 -109 -132 -140 -173 -32 -41 -76 -97 -98 -125 -23
-27 -50 -68 -62 -90 -11 -22 -33 -56 -48 -75 -15 -19 -45 -66 -66 -105 -21
-38 -48 -83 -60 -100 -12 -16 -31 -48 -42 -71 -11 -22 -37 -60 -58 -85 -20
-24 -55 -82 -76 -129 -21 -46 -55 -103 -74 -126 -19 -24 -36 -55 -39 -71 -2
-15 -7 -45 -10 -66 -4 -23 -19 -53 -39 -75 -18 -20 -38 -52 -45 -71 -6 -19
-24 -55 -40 -80 -16 -25 -50 -98 -74 -161 -24 -63 -50 -132 -57 -153 -6 -21
-25 -51 -41 -68 -15 -16 -31 -46 -35 -66 -4 -21 -20 -64 -36 -96 -16 -32 -36
-92 -44 -135 -9 -42 -31 -108 -50 -147 -21 -44 -38 -97 -44 -145 -6 -41 -20
-100 -31 -130 -12 -30 -28 -98 -37 -150 -9 -52 -16 -120 -16 -150 0 -30 10
-84 22 -120 12 -36 40 -100 62 -142 31 -59 50 -82 79 -99 22 -12 49 -35 60
-50 16 -22 30 -29 54 -29 21 0 48 -11 75 -31 38 -28 53 -32 155 -41 61 -5 142
-7 179 -5 37 3 76 10 86 16 11 6 91 21 178 35 106 16 181 33 224 51 36 15 104
40 152 55 48 15 111 44 140 63 29 19 70 42 92 51 21 9 54 29 72 46 25 22 45
30 72 30 20 0 64 13 97 29 33 15 86 49 117 75 32 26 89 60 128 75 39 16 96 49
126 73 30 23 81 60 112 80 31 21 74 43 95 50 21 6 57 28 80 48 23 20 63 49 89
64 25 15 52 34 59 42 7 9 54 36 105 60 82 39 96 49 127 97 20 30 47 61 60 70
13 8 43 21 68 28 30 9 60 30 94 65 28 28 64 60 80 70 17 10 50 35 75 55 25 20
65 47 89 60 25 13 58 44 76 69 18 26 51 56 78 71 26 14 64 42 85 62 20 20 50
41 66 47 16 6 35 8 43 6 7 -3 18 -17 23 -31 6 -15 6 -34 0 -49 -4 -13 -25 -34
-45 -46 -23 -14 -45 -40 -60 -72 -13 -27 -41 -69 -61 -91 -20 -23 -51 -67 -70
-97 -18 -30 -46 -77 -61 -104 -15 -26 -70 -112 -122 -190 -52 -77 -103 -162
-113 -189 -11 -28 -18 -73 -18 -110 0 -39 7 -77 19 -103 10 -23 34 -54 53 -69
19 -15 60 -38 90 -51 53 -22 59 -23 109 -10 45 12 64 24 114 78 33 35 72 71
88 81 15 10 38 35 52 57 14 22 43 49 65 60 31 16 40 26 40 47 0 17 14 39 43
67 24 22 79 75 123 117 65 63 89 79 135 93 31 8 62 22 68 30 7 8 22 34 34 58
18 36 28 44 61 50 22 5 55 23 76 42 21 19 55 42 75 52 20 9 54 40 76 69 21 28
71 76 111 106 39 29 91 72 113 95 23 22 62 55 88 73 26 18 66 57 89 87 22 30
49 59 59 64 10 6 26 10 37 10 11 0 22 -6 25 -14 3 -8 2 -28 -2 -44 -5 -16 -14
-40 -21 -53 -7 -13 -27 -36 -45 -51 -26 -22 -33 -37 -38 -78 -4 -35 -15 -61
-37 -89 -28 -34 -32 -49 -41 -141 -6 -57 -15 -113 -20 -124 -5 -12 -21 -36
-34 -55 -23 -32 -25 -42 -25 -161 0 -124 1 -127 31 -173 16 -25 45 -59 63 -75
32 -28 37 -29 177 -35 l144 -7 64 31 c35 18 98 38 139 45 53 9 87 22 116 42
23 16 59 37 81 46 22 10 54 30 70 46 17 16 50 36 74 45 24 8 54 15 67 15 14 0
32 11 45 30 12 16 63 56 114 89 50 32 110 75 134 95 24 20 82 58 128 84 56 31
99 63 126 95 28 34 46 47 61 45 11 -2 26 -14 32 -27 7 -13 10 -30 7 -37 -3 -7
-19 -22 -37 -32 -25 -15 -36 -30 -45 -66 -6 -27 -26 -62 -46 -85 -23 -25 -38
-55 -45 -87 -9 -43 -7 -58 14 -118 13 -38 30 -74 38 -81 7 -7 37 -20 67 -29
30 -9 67 -16 82 -16 15 0 69 14 121 31 55 18 104 41 120 56 25 23 32 25 83 20
47 -5 63 -2 103 19 l48 25 57 -22 56 -21 88 21 c48 12 99 27 113 33 14 6 77
21 140 34 70 15 143 38 188 59 40 20 94 38 120 42 26 3 65 16 87 29 22 12 75
36 119 53 43 17 106 48 140 70 33 22 93 49 132 61 62 18 73 25 87 55 9 18 32
46 53 62 20 15 53 42 73 59 20 17 62 44 94 59 34 16 84 53 125 93 38 37 93 80
123 96 30 16 90 64 134 106 44 42 92 85 107 94 15 10 40 38 55 62 15 25 47 56
70 70 29 17 48 38 61 67 14 32 29 47 60 61 22 10 48 16 56 13 11 -4 16 -19 16
-46 0 -33 -8 -49 -44 -89 -24 -27 -46 -61 -50 -76 -4 -15 -26 -52 -50 -84 -23
-31 -68 -91 -98 -132 -31 -41 -70 -88 -87 -104 -21 -20 -31 -39 -31 -58 0 -21
-14 -44 -49 -82 -28 -29 -63 -80 -79 -116 -16 -36 -39 -94 -53 -130 -18 -51
-23 -86 -24 -161 l0 -96 57 -86 c42 -62 66 -89 85 -94 16 -5 91 -7 168 -7 108
1 158 6 220 23 44 12 91 30 105 41 14 11 41 27 60 36 19 9 62 29 95 46 33 17
92 47 130 67 39 20 85 47 102 59 17 12 49 29 70 36 21 7 76 32 121 55 45 23
111 61 147 85 41 29 85 49 122 57 50 11 68 22 128 80 43 40 86 71 110 79 24 7
59 32 86 60 32 32 62 53 98 65 29 9 66 32 84 49 18 18 59 50 92 71 33 20 69
48 80 61 11 12 29 24 39 26 13 2 24 -6 31 -20 7 -12 15 -94 19 -181 4 -87 13
-180 20 -208 7 -27 36 -88 63 -134 39 -66 60 -90 98 -114 41 -25 58 -30 109
-29 34 0 104 4 156 8 73 6 113 16 175 42 44 18 125 42 179 53 77 16 108 27
137 50 20 17 66 41 102 55 35 13 82 35 103 49 22 13 45 31 53 40 7 9 52 35 99
58 48 23 105 48 127 54 31 9 47 23 73 61 17 27 37 51 42 52 6 2 17 -1 25 -8 8
-6 19 -37 25 -68 6 -31 17 -86 25 -120 8 -35 24 -76 35 -92 11 -15 41 -36 67
-48 26 -11 84 -27 128 -35 44 -9 128 -23 187 -32 91 -14 123 -15 200 -5 51 6
165 27 253 46 88 18 185 38 215 44 30 6 70 21 90 34 32 22 44 24 153 23 114
-2 120 -3 139 -27 10 -14 49 -65 85 -115 36 -49 79 -119 96 -153 22 -47 39
-67 61 -77 17 -8 43 -16 57 -19 15 -3 53 -24 85 -46 33 -22 70 -50 84 -61 14
-11 68 -31 120 -45 52 -13 130 -33 173 -44 43 -11 87 -25 97 -30 10 -5 45 -17
77 -26 32 -8 132 -19 223 -24 101 -5 219 -18 303 -34 76 -14 154 -26 174 -26
23 0 45 9 64 24 16 14 48 27 72 31 23 3 119 9 212 14 114 6 198 16 255 31 47
11 105 27 130 35 25 8 90 19 145 25 55 6 123 17 150 25 28 8 75 23 106 34 30
11 96 28 145 37 49 9 150 36 224 60 74 24 188 55 253 68 78 16 135 35 170 55
28 16 78 34 109 40 32 6 91 25 131 44 40 19 84 37 99 40 14 4 58 11 99 17 43
6 99 23 134 40 34 17 97 39 141 50 43 11 99 28 124 39 25 10 82 24 127 29 51
7 101 21 134 38 31 15 90 32 143 41 50 8 105 23 121 33 17 11 41 25 55 31 14
7 50 23 80 36 30 13 62 31 72 40 10 9 18 30 18 48 0 18 -8 39 -18 48 -10 10
-24 17 -31 17 -6 0 -24 -9 -39 -20 -15 -11 -54 -25 -87 -31 -33 -6 -87 -25
-120 -43 -33 -18 -91 -40 -130 -50 -38 -9 -99 -30 -135 -45 -43 -19 -103 -34
-178 -44 -99 -13 -119 -19 -159 -47 -42 -31 -52 -33 -157 -40 -99 -7 -120 -12
-167 -38 -30 -17 -76 -33 -104 -37 -27 -3 -75 -11 -105 -17 -30 -5 -90 -25
-132 -44 -51 -23 -105 -38 -160 -45 -46 -6 -130 -25 -188 -41 -58 -16 -141
-40 -185 -53 -44 -13 -120 -31 -170 -41 -49 -9 -144 -32 -210 -51 -66 -18
-156 -38 -200 -43 -44 -5 -118 -14 -164 -20 -46 -6 -120 -20 -165 -30 -51 -12
-158 -24 -277 -31 -107 -7 -252 -11 -324 -10 -71 1 -159 7 -194 12 -34 5 -85
21 -111 34 -28 14 -80 28 -129 34 -45 6 -110 22 -144 37 -34 14 -89 35 -122
46 -33 10 -75 26 -93 34 -23 10 -34 22 -39 44 -3 17 -15 37 -26 45 -14 10 -37
13 -76 9 -36 -3 -65 0 -81 8 -14 7 -33 31 -44 52 -10 21 -34 47 -53 58 -18 11
-39 30 -45 41 -6 12 -13 62 -16 113 -3 54 0 105 7 125 8 24 29 48 70 78 33 23
77 62 98 84 21 23 60 58 87 77 26 19 80 64 119 98 39 35 81 71 94 79 12 8 39
40 59 71 21 32 54 71 74 89 28 24 40 46 54 94 9 35 53 133 96 219 71 139 80
164 89 238 8 64 16 90 37 117 23 31 26 41 20 85 -4 27 -13 68 -22 92 -8 24
-29 58 -47 76 -18 19 -44 40 -59 48 -15 8 -41 14 -58 14 -17 0 -47 -8 -68 -19
-20 -10 -50 -21 -67 -25 -16 -4 -53 -31 -81 -61 -29 -30 -70 -63 -91 -74 -21
-11 -47 -28 -59 -38 -11 -10 -42 -48 -67 -85 -26 -36 -60 -77 -76 -90 -16 -13
-39 -47 -51 -76 -13 -29 -35 -63 -51 -76 -16 -13 -37 -48 -48 -77 -11 -29 -32
-64 -45 -78 -14 -15 -32 -45 -40 -69 -8 -23 -28 -59 -44 -80 -17 -20 -35 -53
-41 -73 -7 -20 -20 -44 -31 -54 -11 -10 -29 -46 -40 -80 -12 -35 -28 -69 -36
-76 -9 -7 -21 -24 -29 -38 -7 -15 -16 -49 -20 -76 -4 -28 -11 -64 -16 -82 -6
-18 -24 -44 -40 -57 -17 -14 -52 -32 -79 -40 -27 -8 -70 -30 -95 -50 -27 -20
-63 -37 -88 -41 -23 -4 -59 -16 -79 -26 -21 -11 -61 -24 -90 -30 -29 -6 -74
-22 -100 -35 -30 -15 -78 -27 -135 -33 -48 -5 -144 -10 -213 -11 -69 0 -160 1
-204 3 -63 3 -82 7 -92 22 -8 10 -14 33 -14 51 0 17 -7 51 -15 75 -14 38 -14
47 1 91 9 28 13 60 10 74 -4 15 -2 42 5 63 6 20 20 48 31 63 10 15 25 46 33
70 10 29 38 66 88 114 39 40 95 98 123 130 28 33 89 111 134 174 46 63 90 133
98 155 9 26 12 58 8 90 -4 28 -11 65 -17 83 -6 17 -19 37 -29 42 -10 6 -36 10
-57 10 -21 -1 -48 -6 -60 -13 -12 -7 -67 -52 -122 -101 -55 -48 -116 -109
-134 -135 -19 -25 -53 -82 -77 -126 -23 -44 -60 -99 -81 -122 -21 -22 -47 -60
-59 -82 -12 -24 -42 -57 -69 -76 -35 -25 -53 -47 -66 -80 -12 -34 -26 -50 -53
-64 -21 -11 -55 -38 -77 -61 -22 -23 -62 -56 -90 -74 -27 -18 -56 -40 -64 -49
-8 -10 -28 -17 -51 -17 -30 0 -46 -8 -78 -38 -22 -20 -61 -54 -88 -74 -27 -21
-69 -53 -92 -73 -32 -25 -54 -35 -80 -35 -21 -1 -54 -7 -75 -15 -21 -7 -81
-39 -134 -71 -76 -46 -111 -61 -181 -75 -48 -10 -98 -19 -113 -19 -14 0 -49
12 -77 26 -29 14 -57 34 -62 45 -6 10 -11 90 -12 176 -1 87 1 208 5 268 5 61
10 125 13 143 3 20 17 44 36 60 16 15 38 43 48 62 10 19 36 50 59 68 22 18 55
54 73 80 18 26 46 61 63 79 16 17 45 50 64 73 19 23 55 53 80 68 25 14 50 33
55 42 5 8 42 49 81 90 40 41 85 97 100 123 15 26 47 61 71 78 24 16 58 51 76
77 17 26 70 83 117 128 53 50 101 107 124 146 21 36 52 78 68 94 17 16 40 45
52 64 12 19 48 67 81 105 33 39 82 93 110 120 28 28 67 79 86 114 19 36 71
104 116 152 68 73 90 106 138 205 31 66 63 130 71 144 8 14 26 50 40 80 14 30
31 65 38 77 7 12 34 59 61 105 29 48 62 123 79 178 16 52 36 122 44 155 7 33
23 97 34 143 10 45 19 118 19 160 0 47 -5 85 -12 95 -7 9 -39 28 -71 42 -32
14 -74 25 -94 25 -20 0 -80 -14 -134 -30 -83 -26 -102 -36 -126 -66 -15 -20
-56 -66 -90 -103 -34 -36 -81 -85 -105 -108 -24 -24 -56 -56 -73 -72 -16 -16
-66 -68 -110 -115 -44 -48 -96 -113 -115 -144 -19 -32 -60 -90 -90 -130 -30
-40 -70 -94 -88 -120 -18 -26 -47 -64 -63 -85 -17 -20 -36 -52 -44 -70 -8 -19
-33 -54 -57 -80 -25 -27 -53 -70 -66 -106 -18 -47 -36 -71 -73 -103 -29 -24
-64 -68 -85 -107 -20 -36 -52 -82 -71 -102 -19 -20 -56 -74 -84 -120 -27 -46
-49 -89 -49 -96 0 -6 -14 -23 -31 -37 -17 -14 -36 -26 -43 -26 -7 0 -21 -9
-30 -19 -10 -11 -30 -51 -46 -90 -16 -39 -43 -88 -60 -109 -18 -23 -39 -70
-53 -118 -17 -57 -36 -96 -65 -133 -23 -29 -46 -71 -53 -93 -6 -22 -21 -57
-34 -77 -13 -20 -26 -52 -30 -71 -4 -19 -15 -51 -25 -70 -9 -19 -25 -60 -35
-90 -9 -30 -30 -75 -45 -100 -15 -25 -35 -77 -45 -116 -12 -53 -24 -79 -47
-100 -16 -16 -39 -46 -51 -67 -13 -24 -30 -39 -47 -43 -14 -2 -36 -8 -50 -12
-14 -4 -34 -23 -45 -41 -11 -19 -39 -53 -62 -75 -23 -23 -64 -60 -90 -82 -26
-23 -61 -48 -78 -57 -16 -8 -41 -27 -55 -42 -13 -14 -62 -44 -108 -65 -46 -22
-100 -53 -121 -69 -21 -17 -69 -45 -107 -62 -38 -16 -84 -42 -103 -57 -20 -15
-56 -39 -81 -54 -25 -15 -74 -41 -110 -59 -36 -17 -79 -45 -97 -61 -23 -22
-47 -33 -83 -39 -38 -6 -62 -17 -92 -45 -22 -20 -59 -44 -82 -55 -22 -10 -57
-19 -77 -19 -28 0 -49 -10 -84 -39 -41 -34 -56 -40 -114 -46 -39 -4 -86 -16
-113 -31 -27 -13 -65 -24 -87 -24 -23 0 -44 6 -52 16 -11 13 -9 23 11 62 14
26 42 64 62 85 21 21 40 50 44 65 3 15 12 51 20 79 13 48 19 55 62 77 36 18
60 42 95 93 26 37 70 97 96 133 27 36 54 82 61 103 6 20 31 60 55 88 l45 50 0
105 c0 79 5 118 20 161 11 32 20 67 20 79 0 11 -8 36 -17 55 -9 19 -19 59 -21
89 -3 43 2 67 22 113 14 32 26 69 26 84 0 14 -14 50 -31 79 -20 36 -39 56 -56
60 -13 4 -59 -1 -101 -11 -43 -10 -84 -22 -93 -26 -10 -5 -27 -41 -39 -81 -19
-62 -30 -80 -75 -123 -29 -27 -68 -72 -86 -98 -19 -27 -45 -55 -59 -62 -14 -7
-85 -69 -157 -137 -72 -68 -176 -162 -231 -210 -55 -48 -121 -97 -147 -109
-27 -13 -66 -45 -93 -76 -26 -30 -65 -63 -86 -75 -22 -11 -67 -39 -100 -61
-34 -23 -81 -59 -106 -80 -25 -22 -74 -53 -110 -69 -36 -16 -87 -40 -115 -53
-27 -14 -81 -45 -119 -70 -59 -38 -77 -44 -118 -43 -26 0 -55 -5 -64 -12 -8
-8 -22 -27 -30 -43 -9 -16 -31 -35 -51 -44 -20 -8 -59 -14 -87 -13 -28 2 -58
2 -67 1 -9 0 -40 -17 -68 -36 -40 -27 -60 -35 -96 -35 -31 0 -47 5 -51 15 -4
8 6 47 20 86 15 39 42 90 61 112 19 22 35 45 35 51 0 6 15 26 34 46 19 20 41
58 51 90 9 30 28 75 42 100 17 31 28 77 39 155 8 60 21 148 29 194 12 68 21
92 50 129 19 25 37 60 41 78 3 19 3 49 0 67 -3 18 -19 48 -34 67 l-29 34 -79
-23 c-43 -13 -91 -30 -107 -38 -15 -7 -38 -31 -52 -53 -16 -25 -48 -53 -94
-79 -43 -26 -78 -54 -91 -76 -12 -20 -49 -54 -81 -76 -37 -25 -66 -54 -79 -79
-15 -29 -47 -57 -132 -115 -62 -41 -149 -101 -193 -131 -44 -31 -98 -65 -120
-76 -22 -12 -53 -32 -70 -46 -16 -14 -54 -36 -83 -49 -29 -13 -78 -42 -109
-66 -31 -23 -65 -48 -77 -56 -11 -8 -46 -31 -77 -51 -31 -20 -77 -42 -102 -49
-32 -9 -54 -24 -77 -52 -19 -24 -56 -52 -93 -70 -34 -16 -88 -44 -119 -62 -32
-18 -70 -44 -85 -58 -16 -14 -49 -38 -75 -53 -27 -15 -81 -35 -122 -46 -41
-10 -97 -34 -125 -52 -28 -18 -66 -43 -86 -55 -20 -13 -43 -23 -51 -23 -9 0
-37 7 -64 16 -27 9 -56 24 -65 34 -15 16 -15 24 4 96 10 44 22 104 26 134 4
35 18 72 37 102 16 26 34 63 39 83 6 19 23 51 40 69 16 19 36 56 44 83 8 27
28 69 45 95 16 25 48 65 69 89 21 25 46 66 55 92 9 26 16 54 16 62 0 8 20 37
45 65 24 28 51 63 58 78 8 15 17 40 21 55 4 15 30 52 59 82 29 30 73 78 99
107 26 29 57 66 69 81 11 15 45 43 74 62 30 19 62 46 71 60 14 21 16 41 12
109 -3 45 -12 92 -19 104 -8 12 -29 29 -48 38 -19 9 -50 18 -70 21 -31 4 -43
0 -79 -30 -23 -19 -59 -45 -79 -57 -21 -12 -74 -59 -119 -104 -44 -44 -120
-115 -170 -157 -50 -42 -118 -89 -155 -106 -56 -26 -72 -39 -105 -89 -21 -32
-55 -68 -74 -79 -19 -11 -59 -45 -90 -76 -30 -30 -72 -69 -93 -85 -21 -16 -60
-45 -86 -64 -27 -19 -83 -64 -126 -98 -44 -35 -90 -68 -104 -74 -14 -5 -41
-21 -59 -34 -18 -14 -50 -49 -72 -79 -27 -36 -51 -57 -74 -65 -23 -7 -45 -26
-64 -53 -15 -23 -39 -46 -54 -51 -18 -6 -36 -5 -57 4 -19 8 -34 22 -38 38 -4
16 1 37 12 58 9 18 35 47 56 64 29 23 43 44 54 85 9 29 25 65 36 79 11 14 29
26 40 26 12 0 34 13 50 29 16 16 29 36 29 44 0 9 20 39 45 68 37 43 45 60 45
92 0 21 5 47 10 58 6 10 27 28 48 38 20 11 50 33 65 49 16 16 43 50 60 75 18
24 65 83 106 131 41 47 93 98 115 112 22 15 61 46 86 70 25 23 65 54 88 67 23
13 94 74 157 135 100 96 122 114 169 127 30 9 59 21 64 28 5 7 15 29 22 51 7
22 30 54 53 75 22 20 73 68 112 106 39 39 98 92 131 119 32 27 82 64 110 82
29 18 61 48 72 66 11 18 39 44 62 58 23 14 52 33 65 43 13 9 26 30 30 45 3 16
20 48 38 73 18 25 55 72 82 104 28 32 95 104 151 159 56 56 111 120 123 143
12 24 40 55 66 73 24 17 58 50 74 74 17 24 49 58 72 74 23 17 66 68 97 114 30
46 102 137 159 202 58 65 112 135 121 155 9 20 51 74 93 121 41 47 95 112 119
145 24 33 76 94 116 135 39 41 95 113 124 160 28 46 64 100 79 120 15 19 44
63 65 98 21 34 58 86 82 115 25 28 57 72 71 97 14 25 42 63 62 85 20 22 51 67
69 100 19 33 61 109 94 168 l60 108 6 107 c4 88 2 114 -12 140 -9 17 -25 36
-35 42 -11 5 -32 10 -48 9 -15 -1 -47 -5 -70 -9z m-73 -284 c0 -2 -11 -28 -24
-57 -13 -30 -39 -67 -56 -84 -18 -16 -42 -50 -52 -75 -11 -25 -44 -70 -73
-100 -29 -30 -68 -86 -87 -123 -25 -50 -47 -78 -83 -105 -27 -21 -60 -53 -72
-72 -12 -19 -43 -65 -69 -101 -27 -38 -63 -76 -84 -88 -26 -15 -46 -38 -66
-77 -16 -31 -45 -75 -65 -98 -20 -22 -49 -61 -64 -86 -16 -25 -44 -65 -64 -89
-20 -24 -74 -83 -121 -131 -47 -48 -117 -123 -157 -168 -39 -44 -81 -97 -91
-119 -11 -21 -88 -107 -171 -192 -122 -125 -153 -163 -166 -201 -13 -39 -24
-52 -63 -73 -28 -16 -75 -59 -117 -108 -38 -45 -95 -110 -125 -143 -31 -34
-72 -82 -93 -107 -20 -26 -60 -60 -89 -76 -41 -24 -65 -49 -113 -119 -41 -59
-74 -96 -100 -111 -21 -12 -44 -35 -51 -51 -7 -17 -30 -42 -51 -55 -21 -14
-60 -48 -88 -76 -27 -28 -57 -51 -67 -51 -14 0 -18 8 -18 35 0 22 7 42 19 53
11 9 31 25 45 35 14 10 33 32 42 50 9 18 37 55 63 84 25 28 60 71 78 95 18 23
52 81 77 128 32 60 66 106 115 153 52 51 81 92 120 165 28 53 84 142 124 196
39 54 120 151 179 216 62 68 116 136 127 162 10 25 33 61 49 79 17 19 60 77
97 129 36 52 78 114 93 138 15 24 50 80 79 125 28 45 66 102 85 127 18 24 67
76 108 116 41 39 98 89 125 111 28 22 63 59 79 82 17 23 46 51 67 61 20 11 48
32 62 47 13 15 42 47 62 71 25 27 54 48 87 60 34 12 61 31 89 64 21 26 57 57
79 69 22 13 54 45 75 75 19 30 48 60 65 69 17 9 41 33 55 54 20 33 35 43 97
64 40 13 79 25 86 26 6 0 12 -1 12 -3z m5311 -1264 c6 -15 7 -43 4 -62 -4 -19
-19 -51 -35 -71 -19 -24 -35 -64 -49 -124 -12 -48 -30 -100 -41 -116 -12 -15
-32 -54 -46 -86 -14 -32 -50 -85 -78 -118 -29 -33 -58 -70 -64 -82 -7 -12 -12
-34 -12 -49 0 -19 -12 -39 -42 -66 -23 -21 -54 -60 -69 -86 -15 -26 -39 -67
-52 -92 -14 -25 -54 -75 -89 -111 -36 -36 -79 -91 -97 -122 -18 -31 -44 -66
-59 -77 -15 -12 -42 -31 -61 -43 -24 -15 -39 -36 -50 -68 -9 -26 -33 -66 -54
-90 -20 -24 -53 -62 -72 -84 -19 -22 -73 -85 -120 -139 -47 -54 -85 -103 -85
-107 0 -5 -25 -27 -56 -50 -31 -22 -70 -61 -87 -86 -18 -25 -54 -60 -81 -79
-27 -18 -58 -49 -70 -70 -12 -20 -33 -46 -48 -57 -14 -11 -34 -17 -42 -14 -11
5 -16 20 -16 52 0 34 12 69 46 138 25 50 55 102 67 115 11 12 27 22 34 22 8 0
25 11 38 25 21 20 25 34 25 86 0 57 3 64 35 96 20 20 40 44 45 54 6 10 10 26
10 36 0 10 18 41 40 68 22 28 40 55 40 62 0 7 26 38 59 70 53 53 59 63 66 113
6 45 14 61 45 90 20 19 52 44 70 55 28 16 37 31 53 83 10 35 34 88 54 119 19
30 48 62 64 72 16 9 33 27 39 41 6 14 34 51 63 81 29 30 66 77 81 105 16 27
61 81 100 120 39 39 86 97 105 128 19 32 38 80 42 109 6 38 15 58 35 73 14 12
44 27 65 33 31 9 47 24 76 67 30 45 44 57 82 68 30 9 52 10 64 4 10 -5 23 -21
28 -36z m1825 -2237 c3 -19 3 -52 -1 -72 -3 -20 -19 -62 -35 -92 -15 -31 -51
-85 -80 -120 -28 -35 -62 -85 -75 -112 -14 -26 -41 -60 -60 -75 -20 -15 -43
-40 -50 -55 -8 -14 -36 -49 -62 -77 -27 -29 -67 -58 -91 -68 -35 -14 -46 -14
-52 -4 -4 7 -4 25 0 39 4 15 14 40 22 57 9 16 18 42 22 59 4 16 23 46 42 68
19 21 50 71 68 111 19 40 49 91 68 112 18 22 45 55 60 74 14 19 60 70 102 113
43 43 85 77 96 77 14 0 21 -9 26 -35z m-8047 -1104 c7 -12 7 -30 0 -54 -6 -22
-26 -50 -50 -71 -23 -19 -60 -64 -82 -99 -23 -36 -61 -90 -84 -120 -24 -31
-48 -59 -54 -62 -6 -4 -15 -3 -21 3 -6 6 -7 27 -3 50 3 23 21 60 39 84 18 24
43 70 56 103 12 33 30 68 38 78 8 9 20 17 27 17 6 0 22 11 35 25 13 14 28 25
34 25 6 0 17 9 24 20 7 11 16 20 22 20 5 0 14 -8 19 -19z"/>
<path d="M14099 4380 c-19 -10 -41 -26 -49 -35 -7 -8 -12 -30 -12 -48 1 -18
-4 -56 -10 -84 -9 -41 -8 -66 1 -109 7 -31 21 -64 32 -75 16 -16 34 -19 109
-19 88 0 91 1 126 33 22 20 38 47 44 72 6 22 14 78 20 125 8 69 7 88 -5 106
-9 14 -36 29 -69 38 -30 9 -76 16 -103 16 -27 -1 -63 -9 -84 -20z"/>
<path d="M29514 3776 c-17 -8 -35 -26 -42 -42 -6 -16 -18 -51 -26 -79 -9 -27
-20 -56 -25 -64 -6 -9 -4 -28 4 -50 8 -20 18 -74 24 -121 8 -69 14 -88 31
-100 12 -8 36 -27 55 -43 18 -15 48 -50 65 -78 18 -27 45 -56 61 -64 15 -8 50
-15 77 -15 35 0 57 6 76 21 14 11 33 34 41 49 8 16 15 40 15 53 0 14 -7 30
-16 38 -8 7 -23 26 -32 43 -13 24 -17 60 -18 156 -1 69 -6 156 -10 194 -8 59
-13 72 -37 90 -23 17 -45 21 -120 24 -62 1 -102 -2 -123 -12z"/>
<path d="M26231 2310 c-35 -17 -105 -41 -156 -54 -51 -13 -106 -32 -122 -43
-15 -11 -71 -44 -123 -73 -52 -29 -110 -63 -128 -77 -18 -14 -56 -54 -84 -89
-28 -36 -77 -83 -109 -105 -32 -21 -90 -77 -129 -123 -38 -47 -75 -88 -80 -91
-6 -3 -36 -45 -67 -93 -31 -48 -71 -109 -89 -137 -18 -27 -38 -63 -44 -80 -8
-21 -9 -75 -4 -174 l7 -145 49 -97 c42 -82 56 -102 92 -123 23 -13 71 -32 106
-41 35 -9 84 -27 109 -40 25 -12 96 -43 157 -68 81 -34 130 -48 185 -53 41 -3
123 -1 184 6 61 6 144 18 185 25 41 8 120 23 175 35 55 11 143 38 196 60 78
32 116 41 202 49 73 7 125 18 167 36 33 14 90 32 127 41 36 8 82 23 102 33 20
10 59 26 86 35 28 9 75 34 104 56 34 26 64 40 82 40 18 0 39 -9 53 -23 20 -20
23 -31 19 -73 -4 -39 0 -60 17 -95 13 -24 36 -64 53 -89 17 -24 47 -62 66 -84
20 -21 55 -47 79 -57 23 -10 61 -33 83 -51 41 -33 42 -33 164 -37 113 -3 125
-1 143 17 12 12 24 37 28 56 3 20 3 52 0 71 -4 19 -18 47 -31 63 -14 16 -39
32 -56 36 -20 4 -51 26 -86 62 -30 31 -60 69 -68 84 -8 16 -27 37 -41 48 -23
16 -28 28 -32 78 -4 57 -2 62 32 103 20 23 36 46 36 51 0 4 20 30 43 56 24 27
56 68 70 90 14 23 40 54 58 70 17 16 51 48 74 72 23 24 58 53 78 65 19 12 75
54 123 92 48 39 118 99 156 135 44 41 88 96 121 150 28 47 61 98 74 114 13 16
33 46 43 67 11 21 20 49 20 63 0 15 -11 33 -27 46 -25 19 -37 22 -104 18 -66
-4 -90 -11 -190 -58 -84 -40 -137 -73 -199 -126 -47 -39 -110 -98 -140 -131
-30 -33 -82 -93 -114 -133 -33 -40 -68 -90 -78 -111 -10 -21 -28 -44 -40 -50
-11 -6 -52 -42 -89 -80 -52 -52 -82 -73 -127 -89 -41 -15 -76 -38 -119 -79
-46 -44 -75 -63 -123 -79 -34 -12 -77 -32 -94 -45 -17 -13 -56 -32 -86 -42
-30 -9 -72 -28 -92 -42 -20 -14 -74 -33 -120 -43 -46 -10 -110 -32 -143 -49
-44 -22 -84 -33 -149 -40 -77 -9 -96 -15 -142 -47 -51 -35 -56 -36 -181 -46
-92 -6 -149 -16 -202 -35 -50 -17 -96 -25 -145 -26 -39 0 -136 0 -216 2 -80 1
-152 4 -161 7 -9 2 -30 26 -48 54 -17 27 -54 65 -81 85 -41 30 -52 46 -65 88
-8 28 -15 88 -15 134 0 46 5 103 11 126 5 23 25 61 42 84 18 23 57 74 88 115
31 40 85 102 120 139 35 36 87 80 114 98 28 19 77 61 111 95 33 33 73 73 90
87 16 14 52 42 79 61 28 20 73 43 101 52 32 10 62 29 82 51 19 22 39 35 55 35
14 0 32 -3 41 -6 9 -3 16 -16 16 -28 0 -11 -12 -52 -25 -91 -14 -38 -25 -90
-25 -115 0 -27 8 -58 20 -77 10 -18 33 -39 49 -48 17 -8 55 -15 86 -15 31 0
65 5 77 11 11 6 28 29 38 52 10 23 23 85 30 137 7 53 10 114 6 135 -6 31 -21
52 -64 94 -32 29 -77 66 -101 82 -39 25 -55 29 -115 29 -58 0 -83 -6 -135 -30z"/>
<path d="M30620 2143 c-19 -2 -42 -6 -50 -10 -8 -3 -30 -7 -49 -9 -18 -2 -38
-7 -45 -13 -6 -5 -45 -12 -86 -16 -41 -3 -91 -11 -111 -16 -20 -5 -61 -32 -96
-63 -50 -46 -72 -58 -133 -75 -59 -16 -81 -27 -119 -64 -25 -25 -82 -64 -126
-87 -44 -23 -96 -54 -115 -69 -19 -15 -64 -50 -100 -77 -36 -26 -92 -72 -125
-100 -33 -28 -88 -77 -122 -110 -34 -32 -78 -86 -99 -119 -20 -33 -53 -78 -73
-100 -20 -22 -42 -56 -50 -75 -7 -19 -26 -64 -42 -100 -16 -36 -33 -85 -39
-110 -5 -25 -10 -72 -10 -106 0 -33 7 -85 16 -114 12 -42 28 -66 74 -109 32
-31 62 -69 65 -84 5 -17 19 -34 37 -43 17 -9 54 -23 82 -31 28 -8 82 -32 121
-52 l70 -36 225 0 225 0 68 38 c38 20 74 37 82 37 7 0 55 13 107 29 51 16 123
32 158 36 63 6 66 6 94 -24 16 -17 51 -38 78 -47 27 -9 72 -31 100 -50 l50
-34 197 6 c167 5 206 10 266 29 39 13 124 36 190 50 66 15 133 32 150 39 17 7
52 32 78 55 27 23 61 48 77 56 16 8 52 20 80 26 37 8 61 21 88 48 29 29 48 39
84 44 26 4 78 22 116 42 38 19 74 35 80 35 6 0 36 9 66 21 43 16 62 30 90 69
19 27 49 56 66 65 22 11 35 13 49 6 10 -6 22 -22 25 -36 4 -14 11 -69 16 -121
5 -56 15 -105 24 -119 9 -14 50 -47 91 -75 42 -28 95 -58 118 -66 24 -9 94
-18 163 -21 71 -3 161 -1 222 7 77 9 111 18 137 36 19 13 54 28 77 34 24 7 88
32 143 57 61 28 129 69 174 105 41 33 86 64 100 70 14 5 49 27 77 49 28 21 62
39 76 39 14 0 32 -8 40 -17 8 -10 18 -26 21 -35 4 -10 -1 -54 -10 -98 -14 -69
-14 -94 -4 -168 7 -48 20 -107 30 -132 13 -35 32 -56 86 -97 39 -29 86 -58
105 -63 19 -6 96 -15 170 -20 85 -5 151 -15 177 -25 28 -11 59 -15 90 -12 27
2 82 11 123 20 41 8 117 20 168 25 61 7 112 20 150 37 31 15 90 33 131 41 41
8 88 23 105 33 17 10 60 26 96 35 36 9 88 28 115 41 28 14 68 38 90 54 22 16
86 43 142 60 58 18 115 43 132 57 17 14 63 34 103 45 40 11 97 34 127 50 32
19 75 33 106 36 38 4 55 2 61 -8 5 -8 9 -72 10 -144 0 -73 6 -149 13 -174 8
-27 33 -67 64 -103 47 -52 55 -58 92 -58 22 0 59 -9 83 -20 23 -11 81 -24 128
-31 83 -11 86 -11 122 14 20 14 62 30 92 36 30 5 75 17 99 25 24 9 58 16 75
16 19 0 54 14 88 35 31 19 58 42 62 50 3 8 31 27 63 44 32 16 68 40 81 54 13
13 37 60 53 103 17 44 39 104 49 134 10 31 20 106 24 173 4 65 11 129 16 143
6 16 27 33 56 46 35 15 57 18 87 14 23 -4 143 -2 267 4 124 6 248 15 275 20
28 5 93 19 145 30 74 17 150 23 350 29 208 6 261 10 286 24 17 9 34 24 38 32
3 9 6 27 6 40 0 13 -11 32 -26 44 -14 11 -69 35 -122 53 -91 31 -104 33 -217
31 -66 -2 -158 -9 -205 -18 -54 -9 -218 -19 -453 -26 l-369 -12 -76 23 c-42
12 -106 32 -141 43 -40 14 -70 30 -80 46 -9 13 -27 35 -39 49 -23 23 -28 24
-98 19 -41 -4 -89 -13 -108 -21 -19 -8 -40 -24 -46 -36 -8 -16 -9 -39 0 -92 6
-39 15 -78 20 -87 5 -10 40 -44 79 -76 61 -51 73 -67 101 -134 18 -42 41 -100
52 -130 11 -30 20 -82 20 -120 1 -44 -4 -77 -15 -98 -9 -18 -17 -48 -17 -66 0
-28 -8 -42 -36 -66 -20 -18 -61 -48 -92 -69 -32 -20 -69 -47 -85 -61 -24 -22
-43 -27 -150 -37 -67 -7 -155 -13 -195 -13 -47 -1 -83 4 -102 14 -16 9 -37 30
-47 48 -10 18 -17 53 -16 82 0 28 8 79 17 114 12 48 28 78 67 124 28 33 64 88
81 121 17 33 45 78 62 99 17 22 50 58 74 80 28 27 42 48 42 66 0 14 -4 31 -8
37 -4 6 -14 13 -22 16 -8 2 -52 -13 -98 -34 -45 -21 -99 -49 -120 -62 -20 -13
-54 -29 -75 -36 -22 -7 -64 -38 -104 -77 -37 -35 -78 -70 -92 -78 -14 -7 -59
-18 -99 -25 -49 -8 -111 -30 -187 -66 -66 -31 -156 -63 -217 -78 -56 -14 -150
-46 -208 -71 -57 -25 -112 -53 -121 -61 -10 -9 -35 -22 -56 -30 -21 -7 -60
-13 -88 -14 -27 0 -72 -9 -100 -19 -27 -10 -84 -30 -125 -45 -41 -15 -118 -33
-170 -41 -52 -7 -131 -23 -174 -34 -55 -15 -110 -21 -180 -21 -56 0 -147 7
-204 15 -56 8 -115 21 -131 30 -16 8 -39 27 -50 41 -12 15 -26 45 -32 67 -8
31 -7 50 6 89 9 29 13 62 10 82 -4 21 -1 47 10 72 10 21 21 82 25 135 5 53 14
115 20 138 6 23 27 60 46 81 23 26 47 71 69 132 18 51 41 110 49 130 15 36 15
39 -4 58 -13 13 -33 20 -59 20 -21 0 -52 -5 -70 -11 -22 -8 -38 -24 -53 -52
-11 -23 -70 -90 -131 -150 -61 -59 -128 -117 -149 -128 -21 -11 -42 -27 -45
-35 -3 -8 -31 -28 -63 -44 -31 -16 -70 -40 -86 -53 -16 -13 -74 -53 -130 -89
-55 -36 -129 -76 -163 -88 -34 -13 -79 -36 -99 -53 -20 -16 -53 -36 -72 -45
-25 -11 -85 -16 -212 -20 -97 -2 -188 -2 -202 2 -15 4 -35 15 -46 26 -16 16
-20 33 -19 93 0 39 3 102 7 138 6 47 16 78 34 105 15 22 32 62 38 89 6 28 16
64 22 80 6 17 26 50 44 75 17 25 39 62 47 82 9 21 31 56 49 79 26 33 33 50 32
84 0 25 -10 57 -23 79 -13 20 -32 41 -43 47 -10 6 -33 11 -49 11 -24 1 -42
-11 -84 -52 -30 -29 -84 -97 -120 -149 -37 -53 -87 -126 -113 -163 -26 -37
-58 -79 -72 -94 -14 -15 -50 -42 -80 -62 -30 -19 -71 -49 -90 -67 -19 -18 -84
-58 -144 -89 -60 -31 -117 -56 -126 -56 -10 0 -44 -14 -76 -31 -33 -17 -81
-40 -109 -51 -27 -10 -60 -30 -72 -42 -13 -14 -48 -30 -88 -40 -37 -9 -84 -25
-104 -35 -20 -10 -61 -26 -91 -36 -30 -9 -84 -33 -119 -53 -57 -31 -76 -36
-157 -41 -74 -5 -97 -10 -116 -27 -13 -12 -30 -24 -39 -27 -9 -3 -82 12 -162
33 -81 21 -151 41 -157 45 -5 3 -10 18 -10 32 0 14 14 45 30 70 17 25 44 71
60 103 16 32 48 73 71 93 34 27 48 50 71 113 16 44 39 108 50 144 12 36 29 77
40 92 11 15 26 74 38 145 16 90 28 129 50 166 23 37 30 60 30 100 0 35 -7 62
-20 82 -11 17 -32 56 -47 88 -18 39 -33 59 -47 61 -12 2 -45 9 -74 15 -30 6
-62 11 -73 11 -12 0 -24 -12 -33 -35 -8 -19 -44 -63 -79 -97 -54 -54 -66 -72
-77 -117 -9 -40 -25 -67 -60 -106 -30 -33 -50 -65 -54 -88 -5 -25 -18 -45 -45
-66 -30 -24 -40 -40 -45 -73 -5 -34 -15 -51 -47 -78 -36 -31 -43 -46 -65 -125
-13 -50 -33 -128 -43 -175 -11 -47 -23 -106 -26 -132 -3 -26 -13 -55 -21 -63
-9 -8 -27 -15 -40 -15 -20 0 -28 -8 -40 -37 -8 -21 -20 -49 -27 -62 -7 -14
-35 -32 -70 -47 -32 -13 -68 -35 -79 -49 -11 -14 -34 -33 -51 -43 -28 -15 -63
-17 -257 -17 -194 0 -234 3 -289 19 -45 14 -76 31 -101 56 -21 21 -54 70 -74
110 -20 40 -36 87 -36 105 0 17 8 56 19 86 10 30 42 92 71 139 28 46 81 121
115 166 38 47 86 96 117 117 29 19 64 47 78 62 13 14 40 36 60 47 19 12 46 31
60 44 14 12 51 32 83 44 45 17 76 39 131 94 40 39 94 86 122 104 27 18 74 44
104 58 30 14 84 46 119 71 50 35 70 43 90 38 14 -3 34 -8 43 -11 11 -3 27 5
42 19 13 13 39 33 58 44 19 11 52 26 74 33 21 8 48 13 59 12 11 -1 30 6 43 14
17 11 22 23 20 42 -3 26 -5 27 -68 28 -36 0 -81 -1 -100 -3z"/>
</g>
</svg>
