<?xml version="1.0" encoding="UTF-8" standalone="no"?>
<!-- Created with Inkscape (http://www.inkscape.org/) -->

<svg
   xmlns:dc="http://purl.org/dc/elements/1.1/"
   xmlns:cc="http://creativecommons.org/ns#"
   xmlns:rdf="http://www.w3.org/1999/02/22-rdf-syntax-ns#"
   xmlns:svg="http://www.w3.org/2000/svg"
   xmlns="http://www.w3.org/2000/svg"
   version="1.1"
   width="900"
   height="220"
   viewBox="0 0 720 176"
   id="svg3261">
  <metadata
     id="metadata3305">
    <rdf:RDF>
      <cc:Work
         rdf:about="">
        <dc:format>image/svg+xml</dc:format>
        <dc:type
           rdf:resource="http://purl.org/dc/dcmitype/StillImage" />
        <dc:title></dc:title>
      </cc:Work>
    </rdf:RDF>
  </metadata>
  <defs
     id="defs3303" />
  <g
     transform="matrix(0.3279769,0,0,0.3279769,1559.0936,-5.04325)"
     id="#fefefeff">
    <path
       d="m 0,0 2320,0 0,552 L 0,552 0,0 m 175.91,26.42 c -5.07,1.85 -10.51,1.78 -15.79,2.31 -4.87,1.33 -8.8,4.75 -13.41,6.69 -8.79,3.66 -16.37,9.56 -23.71,15.51 -10.15,7.75 -20.01,16 -28.21,25.84 -5.86,5.91 -10.44,12.88 -16.04,19 -4.27,5.28 -8.27,10.94 -10.71,17.32 -1.72,4.94 -3.83,9.75 -5.29,14.77 -1.9,7.29 2.85,13.93 6.83,19.55 2.26,3.41 6.67,3.61 10.33,2.99 1.55,-0.95 2.3,-2.66 3.16,-4.17 -3.59,-4.24 -7.92,-8.68 -8.48,-14.47 2.28,-14.35 8.6,-28.75 20.11,-38.06 5.31,-4.53 8,-11.2 12.86,-16.14 5.62,-6.83 13.46,-11.17 19.98,-17.02 7.19,-6.56 15.52,-11.9 24.5,-15.65 3.33,-1.49 6.31,-3.67 9.66,-5.13 3.86,-1.71 8.19,-1.05 12.27,-1.72 5.67,-0.67 11.39,-2.34 17.12,-1.26 6.08,1.61 8.83,8.05 10.68,13.47 2.33,6.8 -1.52,13.4 -3.83,19.62 -1.87,4.59 -0.87,9.83 -3.09,14.3 -5.96,10.9 -11.47,22.16 -15.06,34.08 -1.5,4.4 -5.03,7.72 -6.58,12.09 -1.1,2.93 -1.84,6.01 -3.39,8.76 -6.92,11.34 -10.9,24.3 -18.65,35.17 -8.77,14.41 -19.29,27.66 -28.11,42.04 -3.21,5.24 -7.85,9.38 -11.4,14.38 -3.37,4.98 -7.1,9.69 -10.62,14.57 -7.94,10.55 -12.38,23.2 -19.79,34.09 -4.4,6.09 -7.24,13.16 -12.04,18.98 -2.43,3.57 -6.39,6.97 -5.89,11.7 1.56,4.02 7.12,2.8 10.41,2.08 5.55,-4.34 8.18,-11.22 11.35,-17.3 2.27,-4.8 6.62,-8.2 8.99,-12.94 3.25,-6.2 6.54,-12.43 10.9,-17.93 5.22,-6.67 9.25,-14.15 13.95,-21.18 6.23,-8.17 11.82,-16.8 17.72,-25.21 5.3,-6.9 8.72,-15.04 14.18,-21.84 5.42,-6.69 9.57,-14.29 14.95,-21 6.62,-8.28 13.39,-16.51 21.33,-23.56 6.5,-5.88 13.94,-10.64 20.01,-17 5.25,-5.5 11.75,-9.51 17.64,-14.24 4.35,-3.37 8.51,-7.18 13.74,-9.13 3.94,-1.46 7.66,-3.79 11.88,-4.3 3.18,2.06 2.06,6.35 2.23,9.54 0.16,3.95 -2.54,7.07 -4.45,10.26 -3.09,4.81 -4.25,10.6 -7.68,15.22 -3.19,4.37 -5.38,9.32 -8.08,13.97 -3.62,6.63 -8.5,12.51 -11.68,19.39 -3.15,6.57 -6.87,12.85 -11.13,18.76 -7.01,10.45 -12.82,21.65 -19.78,32.12 -3.65,6.16 -6.01,13.06 -10.25,18.87 -2.49,3.25 -5.24,6.33 -7.17,9.97 -4.72,8.79 -11.24,16.51 -15.49,25.57 -4.02,8.56 -10.05,15.94 -14.67,24.16 -3.1,5.84 -7.64,10.78 -10.37,16.83 -2.85,6.25 -9.03,11.47 -8.46,18.87 -0.19,2.29 2.16,3.44 3.93,4.22 3.39,1.36 5.66,-2.31 7.47,-4.56 8.9,-13.34 15.76,-27.92 24.77,-41.19 6.18,-7.37 10.42,-16.07 14.53,-24.7 1.92,-4.13 4.7,-7.77 7.32,-11.46 11.27,-17.15 21.93,-34.7 33.08,-51.92 3.35,-6.1 7.51,-11.68 12.03,-16.95 7.22,-9.02 15.06,-17.57 23.9,-25.03 5.67,-5.72 12.74,-9.85 18.15,-15.85 1.46,-1.54 2.89,-3.11 4.39,-4.62 4.28,-4.53 10.31,-6.81 14.68,-11.25 6.29,-6.08 13.19,-11.44 20.03,-16.89 2.88,-2.07 6.65,-1.11 9.96,-1.29 0.53,2.54 1.28,5.23 0.55,7.81 -1.22,3.76 -3.53,7.01 -5.58,10.34 -2.47,3.88 -4.49,8.04 -7.25,11.73 -4.24,5.83 -9.67,10.84 -12.73,17.47 -2.62,5.99 -7.84,10.2 -11.07,15.79 -2.04,3.4 -3.65,7.04 -5.62,10.48 -2.36,4.15 -5.47,7.79 -8.22,11.69 -6.64,9.1 -12.21,18.93 -18.98,27.95 -4.02,5.4 -6.63,11.76 -11.27,16.71 -4.6,4.95 -7.9,10.86 -11.58,16.48 -7.01,9.63 -11.82,20.59 -16.87,31.32 -2.4,4.94 -3.91,10.28 -4.47,15.75 -0.44,4.83 -1.91,9.46 -2.89,14.18 -0.9,4.39 1.21,8.97 4.43,11.9 2.91,1.52 7.44,0.5 8.35,-3.01 0.82,-4.53 -0.41,-9.08 -0.46,-13.61 0.91,-6.49 4.79,-12.01 6.46,-18.28 1.25,-4.71 2.33,-9.6 5.29,-13.59 3.65,-4.88 4.15,-11.3 7.73,-16.21 3.99,-5.75 9.35,-10.6 12.08,-17.17 2.68,-6.44 7.84,-11.29 11.99,-16.76 5.58,-6.98 9.38,-15.18 14.71,-22.34 5.79,-7.76 10.81,-16.04 15.79,-24.33 6.55,-9.41 12.24,-19.43 19.41,-28.41 5.06,-6.68 9.55,-13.77 14.63,-20.43 4.16,-5.3 5.39,-12.07 8.09,-18.1 2.48,-6.23 5.29,-12.87 4.21,-19.71 -1.39,-4 -6.23,-5.72 -10.06,-4.33 -5.47,2.01 -10.28,5.46 -15.83,7.31 -9.81,3.32 -17.01,11.04 -25.1,17.11 -7.53,5.77 -14.35,12.37 -20.92,19.2 -4.16,4.49 -9.42,7.76 -14.86,10.49 -0.44,-4.37 0.59,-8.75 3.2,-12.31 6.08,-8.72 11.78,-17.85 15.2,-27.98 1.06,-4.14 0.64,-8.49 0.58,-12.72 0.08,-3.29 -1.76,-6.47 -4.58,-8.14 -2.96,-1.97 -6.69,-1.47 -10.05,-1.44 -3.1,-0.09 -5.79,1.58 -8.32,3.14 -5.58,3.61 -12.26,5.25 -17.39,9.6 -11.25,7.16 -21.41,15.98 -30.38,25.82 -3.07,3.39 -7.46,5.1 -11.85,5.97 -1.01,-7.66 4.77,-13.71 8.07,-20.04 4.38,-6.83 5.85,-14.98 9.86,-21.99 3.06,-5.53 4.13,-11.84 6.64,-17.6 2.42,-5.82 5.28,-11.75 5.08,-18.21 -0.2,-6.53 0.94,-13.41 -1.75,-19.59 -1.69,-4.11 -3.98,-8.24 -7.77,-10.77 -3.64,-2.52 -7.33,-5.09 -11.38,-6.91 -5.94,-1.92 -11.41,1.86 -16.84,3.64 m 1242.97,27.31 c -10.62,6.03 -18.85,15.22 -27.46,23.69 -10.71,10.95 -22.93,20.76 -30.8,34.12 -4.42,6.15 -9.31,13.59 -17.42,14.78 -7.58,1.13 -14.49,4.64 -21.96,6.13 -6.58,1.43 -13.53,1.31 -19.76,4.1 -6.32,2.81 -13.03,5.19 -20.05,4.99 -10.19,-0.08 -19.58,4.26 -29.28,6.68 -7.49,2.01 -15.27,1.11 -22.91,1.31 -8.6,0.15 -17.21,-0.32 -25.79,0.11 -3.96,0.46 -3.18,5.23 -2.97,8.07 0.21,3.29 4.16,4.25 6.89,3.71 13.11,-2.17 26.48,0.28 39.62,-1.64 6.8,-0.31 13.6,-1.08 20.2,-2.82 6.56,-1.66 12.79,-4.67 19.6,-5.34 5.52,-0.4 11.08,-0.72 16.56,-1.57 8.91,-2.21 16.94,-8.65 26.55,-7.48 1.51,0.94 2.21,2.68 3.07,4.18 -5.27,6.41 -8.96,13.87 -13.14,20.98 -4.41,7.6 -8.31,15.49 -12.94,22.97 -5.53,10.38 -10.93,20.86 -17.54,30.6 -2.68,4.14 -5.62,9.16 -10.92,10.05 -4.77,0.49 -9.84,0.5 -14.25,-1.62 -3.73,-1.78 -6.4,-5.13 -10.02,-7.05 -3.46,-1.33 -6.65,1.34 -8.38,4.1 -5.71,8.72 -8.7,18.95 -10.16,29.2 -0.8,6.63 1.27,13.09 2.78,19.47 0.89,3.23 1.58,6.71 3.76,9.36 1.95,1.91 4.92,3.29 7.67,2.36 6.11,-1.96 11.31,-6.09 15.55,-10.82 3.61,-4.03 7.92,-7.43 11.18,-11.79 4.89,-6.5 7.86,-14.16 12,-21.12 1.65,-3.06 5.28,-3.71 8.33,-4.6 4.3,-1.08 8.32,-2.97 12.58,-4.18 5.07,-1.44 10.62,-1.31 15.3,-3.99 3.04,-1.72 6.25,-3.26 9.79,-3.62 1.67,3.41 2.1,7.25 1.22,10.95 -1.41,6.88 1.86,14.9 8.56,17.69 7.4,3.43 15.74,1.36 23.41,0.11 5.64,-0.83 10.11,-4.7 15.5,-6.28 3.46,-1.07 7.13,-1.91 10.06,-4.21 2.93,-2.28 6.23,-4 9.63,-5.48 3.63,-1.54 5.79,-5.1 9.11,-7.1 1.56,0 3.1,0.32 4.68,0.53 1.78,6.19 -1.38,12.48 0.15,18.68 1.23,4.57 4.38,8.25 7.23,11.92 2.29,3.15 5.67,5.86 9.8,5.64 9.68,1.21 18.72,-3.69 26.05,-9.52 4.29,-3.36 7.1,-8.34 11.71,-11.31 5.5,-1.19 10.67,1.98 16.14,1.9 6.51,-0.01 12.8,-2.28 19.34,-2.07 4.08,-0.22 8.87,0.91 12.17,-2.21 2.6,-2.45 5.68,-4.4 9.41,-4.2 3.17,5.34 -0.38,11.21 0.19,16.82 0.44,3.88 4.64,5.31 8,5.51 5.09,0.24 10.2,0.15 15.31,0.09 5.38,0.08 9.82,-3.3 14.2,-5.98 7.68,-4.62 14.51,-10.83 23.07,-13.85 1.93,-0.78 3.93,0.14 4.76,2.04 1.5,6.86 -2.08,13.38 -2.29,20.17 0.21,4.14 5.2,6.55 8.83,5.21 3.87,-1.99 6.62,-5.57 10.48,-7.61 3.88,-2.06 7.54,-4.53 11.18,-7.01 2.69,-1.95 6.08,-2.13 9.3,-2.31 2.77,5.59 0.06,11.59 0.69,17.45 0.04,3.55 2.15,7.29 5.8,8.14 8.22,2.39 16.88,1.63 25.33,1.75 9.05,-0.59 18.06,-1.93 27.15,-1.97 8.62,0.14 16.83,-3.44 25.48,-3.05 10.07,0.31 18.74,-7.87 28.91,-5.71 2.18,1.95 1.5,5.16 1.31,7.74 -1.39,7.25 -4.89,13.85 -7.01,20.88 -1.98,6.43 -2.15,13.2 -3.33,19.78 -1.2,5.98 -4.14,11.45 -7.37,16.56 -3.61,5.67 -9.65,8.98 -14.22,13.73 -6.97,7.39 -15.08,13.72 -20.99,22.07 -3.21,4.41 -5.5,9.61 -9.95,13 -7.03,5.71 -13.09,12.64 -17.46,20.58 -3.24,6.04 -7.41,11.49 -10.8,17.44 -4.14,7.27 -11.32,12.46 -14.33,20.42 -2.92,7.65 -7.63,14.57 -9.33,22.67 -1.87,8.27 -6.41,15.61 -8.16,23.91 -2.15,9.03 -5.5,18.08 -4.84,27.49 1.18,8.38 3.81,16.73 8.47,23.85 2.28,3.64 7.55,4.93 11.14,2.44 5.16,-3.39 9.48,-7.89 13.98,-12.09 7.38,-7.13 13.1,-15.67 19.15,-23.88 6.55,-7.41 10.67,-16.5 16.73,-24.28 3.78,-5.04 7.07,-10.45 9.75,-16.16 2.45,-5.38 6.2,-10.07 8.39,-15.59 2.43,-6.16 6.27,-11.73 7.9,-18.22 1.26,-4.96 3.48,-9.59 5.82,-14.13 3.59,-6.85 2.52,-15.08 6.16,-21.91 1.92,-3.67 3.82,-7.45 4.27,-11.63 0.55,-4.55 1.88,-8.97 3.98,-13.05 2.63,-5.13 3.93,-10.85 4.16,-16.59 0.37,-9.97 5.68,-19.66 14,-25.2 7.62,-4.96 15.39,-9.81 22.34,-15.71 6.8,-6.23 14.12,-11.86 21.08,-17.9 6.53,-4.85 11.97,-10.94 18.24,-16.1 2.11,1.23 3.84,3.04 4.33,5.53 1.76,6.59 4.87,12.69 6.97,19.17 0.82,2.49 2.03,5.37 4.92,5.96 6.31,1.8 12.98,0.71 19.46,0.95 6.32,-0.33 13.43,1.35 18.91,-2.74 6.37,-4.66 12.59,-9.59 19.58,-13.34 9.58,-4.98 16.89,-13.11 24.78,-20.28 1.93,-1.99 4.65,-2.77 7.35,-3.04 1.57,5.34 0.75,10.93 1.06,16.4 0.07,2.5 1.68,4.91 4.11,5.71 5.51,1.87 11.54,1.59 17.22,0.66 3.29,-0.46 6.22,-2.15 8.77,-4.23 4.5,-3.79 10.26,-5.48 15.18,-8.62 2.35,-1.2 5.29,-3.63 7.9,-1.64 4.25,3.11 6.43,8.5 11.3,10.92 4.41,2.47 9.8,1.35 14.07,-0.89 5.75,-3.1 12.41,-2.87 18.63,-4.28 4.16,-1 6.62,-5.05 10.55,-6.5 4.22,-1.03 6.83,3.15 9.7,5.43 1.95,2.29 5.23,1.72 7.9,1.38 4.06,-2.22 6.28,-6.97 10.81,-8.5 3.07,-1.25 7.22,0.52 7.94,3.89 1.31,4.84 0.85,10.28 3.76,14.61 2.97,4.25 7.2,7.68 12.02,9.63 7.33,2.1 15.13,-1.08 20.43,-6.22 2.95,-2.9 6.73,-6.26 5.84,-10.87 0.12,-3.86 -4.01,-4.93 -7.08,-5.02 -2.92,3.85 -5.21,8.4 -9.31,11.16 -2.24,1.52 -5.54,2.02 -7.71,0.16 -5.38,-4.47 -7.31,-11.64 -7.84,-18.35 -0.38,-4.59 -1.27,-10.25 -5.83,-12.54 -4.54,-0.51 -8.45,2.58 -12.86,2.97 -4.23,-0.66 -7.6,-4.34 -12.01,-4.05 -3.28,1.21 -5.79,3.86 -9.09,5 -3.51,1.14 -7.27,1.28 -10.7,2.64 -3.87,1.54 -7.12,4.31 -11.1,5.58 -4.15,1.31 -8.39,2.31 -12.52,3.63 -3.23,0.95 -7,2.12 -10.01,-0.01 -3,-1.45 -4.39,-5.9 -1.81,-8.36 4.06,-4.27 8.76,-8.16 14.38,-10.19 5.14,-1.73 8.28,-6.68 13.41,-8.44 5.95,-2.13 10.94,-6.19 16.88,-8.39 3.55,-1.38 7.35,-3.83 8.08,-7.87 0.56,-2.96 -1.28,-5.76 -3.6,-7.4 -5.35,-0.72 -10.89,0.07 -15.68,2.59 -5.56,2.94 -10.99,6.27 -15.55,10.64 -7.47,7.28 -16.29,12.91 -24.3,19.53 -6.43,5.39 -14.5,7.99 -21.45,12.51 -4.2,2.62 -9.6,2.5 -13.49,5.66 -2.9,2.13 -5.65,5.33 -9.58,5.05 -4.63,0.73 -8.7,-4.5 -6.93,-8.8 2.06,-5.26 5.52,-9.84 8.21,-14.8 3.56,-5.35 6.23,-11.31 10.56,-16.13 5.31,-6.33 11.57,-11.77 17.11,-17.88 7.06,-7.82 13.97,-15.96 22.49,-22.23 5.66,-2.48 12.11,-0.51 17.89,0.69 4.6,1.38 9.45,1.52 14.2,0.88 5.67,-0.82 10.91,2.32 16.54,2.35 6.03,0.14 12.02,1.03 17.94,2.19 16.25,2.51 32.74,1.69 49.12,1.96 5.97,0.81 11.99,1 18.03,0.87 5.46,-0.29 10.04,3.06 14.96,4.86 4.1,1.67 8.61,0.89 12.92,1.48 6.63,0.93 13.35,0.61 20.04,0.66 6.37,-0.04 12.79,0.29 19.13,-0.61 5.16,-0.71 10.41,0.02 15.59,-0.7 3.38,-0.42 6.7,-1.67 10.16,-1.46 5.02,0.8 10,2.41 15.17,1.81 2.67,0.05 4.63,-2.5 5.55,-4.76 0.88,-5.32 -4.92,-9.27 -9.71,-9.33 -10.12,-0.44 -20.1,-2.23 -30.12,-3.46 -3.68,3.37 -6.58,8.57 -12.05,9.08 -5.9,0.56 -11.84,0.02 -17.75,0.16 -6.89,-0.22 -13.91,0.7 -20.64,-1.15 -5.13,-1.25 -9.8,-3.87 -14.91,-5.1 -13.34,-2.39 -26.94,-1.53 -40.42,-1.62 -6.37,0.22 -12.62,-1.42 -18.98,-1.1 -5.73,0.26 -11.39,-0.73 -16.92,-2.12 -6.58,-1.7 -13.42,-0.48 -20.1,-0.98 -5.41,-0.48 -10.48,-2.88 -15.93,-2.91 -4.53,-0.24 -9.1,0.48 -13.56,-0.29 -3.06,-0.46 -5.45,-4.78 -2.46,-6.9 5.94,-5.22 10.07,-12 15.1,-18.01 2.37,-3.15 5.22,-6.79 4.26,-10.99 -0.9,-2.14 -3.08,-3.81 -5.43,-3.73 -3.44,-0.46 -5.67,2.61 -7.7,4.84 -5.05,6.28 -11.25,11.58 -15.74,18.3 -3.4,4.79 -6.97,9.87 -12.3,12.64 -4.42,1.45 -8.64,-1.32 -12.67,-2.72 -8.38,-3.68 -17.71,-0.83 -26.41,-2.82 -6.13,-1.29 -13.25,-2.15 -18.41,2.19 -1.89,1.04 -1.27,3.31 -1.2,5.06 3.57,2.8 8.33,2.45 12.6,2.82 9.51,1.23 19.42,0.28 28.58,3.61 2.93,0.98 3.78,4.26 5.13,6.69 -2.53,3.38 -5.44,6.46 -8.62,9.21 -5.19,4.49 -9.7,9.66 -14.28,14.74 -6.5,7.16 -14.01,13.3 -20.89,20.07 -6.96,6.98 -15.91,11.39 -23.61,17.44 -6.21,3.98 -10.94,9.78 -16.95,13.96 -7.28,3.88 -13.38,9.49 -20.5,13.62 -4.85,3.71 -11.02,5.06 -17,5.22 -3.26,0.01 -5.95,-2.09 -7.09,-5.05 7.99,-4.04 15.15,-9.54 21.39,-15.94 4.6,-4.81 6.9,-11.2 9.87,-17.04 2.7,-5.18 1.64,-11.78 -2.72,-15.71 -4.75,-6.27 -13.71,-4.5 -20.03,-2.02 -7.36,3.54 -15.13,6.35 -21.87,11.04 -9.41,6.16 -19.79,11.12 -27.77,19.21 -7.42,6.66 -14.8,13.43 -23,19.12 -6.02,4.23 -10.04,10.64 -15.95,14.99 -3.4,2.42 -7.27,5.39 -11.69,3.99 0.23,-7.6 5.22,-14.06 5.32,-21.7 0.03,-8.8 6.11,-15.82 7.64,-24.26 1.15,-6.33 6.11,-10.95 7.95,-17.01 1.16,-3.54 1.55,-7.26 1.58,-10.97 -2.86,-1.96 -5.81,-3.84 -8.22,-6.34 -2.09,-2.06 -3.93,-4.48 -6.54,-5.91 -8.01,-0.1 -16.13,1.85 -23.08,5.89 -7.07,3.24 -12.31,9.24 -16.88,15.33 -2.89,3.77 -3.83,9.27 -8.31,11.62 -5.7,2.96 -12.04,4.32 -18.23,5.83 -8.32,2.19 -16.97,0.49 -25.42,1.4 -4.95,0.61 -10.03,1.28 -14.97,0.33 -2.58,-0.58 -5.72,-2.27 -5.55,-5.32 -0.93,-7.69 5.12,-13.72 6.17,-20.99 0.7,-3.63 -2,-7.6 -5.62,-8.09 -12.79,1.86 -22.51,11.44 -34.52,15.39 -1.8,-4.26 -2.03,-8.89 -2.04,-13.45 0.06,-6.47 -7.52,-10.34 -13.22,-8.81 -6.34,1.27 -10.61,6.67 -16.66,8.59 -5.26,1.55 -9,5.74 -13.76,8.19 -4.03,1.86 -7.5,4.63 -11.21,7 -3.27,2.17 -7.08,-0.05 -10.32,-1.09 0.23,-4.87 1.11,-9.78 3.23,-14.19 2.13,-4.29 6.18,-7.15 8.82,-11.09 1.6,-2.19 1.47,-5.07 1.17,-7.63 -0.93,-4.37 -7.39,-5.8 -10.21,-2.41 -3.68,3.7 -7.19,7.62 -11.5,10.6 -4.49,3.27 -10.36,3.25 -15.18,5.8 -4.28,2.17 -8.68,4.41 -13.55,4.74 -5.69,0.32 -11.4,0.18 -17.09,0.3 -2.62,0.16 -5.03,-0.89 -7.39,-1.83 -0.18,-4.13 0.13,-8.67 -2.05,-12.33 -4,-4.46 -12.87,-1.64 -13.7,4.35 -1.53,5.66 -0.05,13.54 -6.23,16.7 -6.98,3.69 -12.75,11.39 -21.46,10.1 -3.75,0.31 -6.18,-3.32 -7.22,-6.45 -2.01,-8.29 1.9,-16.28 3.21,-24.34 0.9,-4.26 -1,-9.49 -5.2,-11.23 -4.49,-0.91 -9.01,1.03 -11.92,4.43 -3.71,4.5 -9.76,5.37 -14.41,8.5 -5.04,3.39 -10.54,6.02 -15.5,9.52 -5.31,3.93 -12.27,3.46 -18.2,5.85 -3.78,1.29 -7.08,3.83 -11.02,4.6 -4.54,0.23 -8.41,-3.64 -9.7,-7.75 -1.45,-3.05 0.69,-6.06 1.71,-8.87 2.34,-5 3.34,-10.72 6.94,-15.06 2.73,-3.61 6.36,-6.58 8.4,-10.69 2.32,-5.56 -5.92,-11.58 -10.41,-7.39 -5.81,5.46 -10.49,12.3 -17.43,16.47 -4.43,2.04 -9.36,2.91 -13.49,5.6 -5.78,3.59 -12.82,5.92 -19.54,3.67 0.13,-2.85 -0.12,-6.03 1.88,-8.35 5.12,-6.43 9.66,-13.33 13.31,-20.7 3.29,-7.21 7.9,-13.7 11.26,-20.88 7.63,-11.44 12.15,-24.94 21.86,-34.97 3.56,-3.36 8.37,-4.83 12.49,-7.35 3.33,-2.04 7.1,-3.14 10.92,-3.87 6.88,-1.25 12.66,-5.38 18.87,-8.32 8.33,-4.8 16.97,-9.38 23.88,-16.19 5.68,-5.7 12.28,-10.4 17.75,-16.31 3.5,-3.69 5.63,-8.39 8.61,-12.46 1.54,-2.28 3.39,-4.46 4.26,-7.11 0.44,-3.3 0.47,-6.98 -1.46,-9.85 -1.75,-2.69 -4.99,-3.73 -7.87,-4.67 -7.02,-2.2 -14.74,-0.97 -21.22,2.28 m -831.05,52.18 c -5.51,1.92 -9.21,6.72 -13.13,10.79 -5.11,5.35 -9.15,11.57 -13.47,17.54 -3,4.25 -4.69,9.23 -7.35,13.68 -3.37,5.52 -5.24,11.79 -8.59,17.32 -3.6,5.96 -4.61,13.02 -7.93,19.11 -2.22,4.04 -3.48,8.52 -3.96,13.1 -0.62,6.23 -4.27,11.47 -7.18,16.82 -5.3,9.43 -14.39,15.68 -22.6,22.33 -13,10.25 -24.83,21.85 -37.69,32.26 -7.14,5.21 -14.35,10.31 -21.4,15.64 -5.17,3.84 -9.95,8.4 -16.04,10.77 -6.43,2.46 -11.03,7.76 -16.4,11.82 -4.17,3.33 -9.22,5.3 -13.5,8.49 -6.5,4.82 -14.19,7.62 -21,11.94 -3.73,2.15 -6.85,5.19 -10.6,7.29 -4.84,2.72 -10.9,0.66 -15.66,3.55 -4.52,2.97 -5.9,11.5 -0.13,13.89 3.66,1.35 6.61,-1.8 9.45,-3.56 4.18,-3.13 9.68,-3.26 14.11,-5.88 10.13,-6.56 20.76,-12.3 30.68,-19.19 6.39,-3.54 12.07,-8.21 18.5,-11.68 7.19,-4.25 13.62,-9.64 20.58,-14.25 3.41,-2.22 6.31,-5.09 9.49,-7.61 2.93,-2.53 7.04,-1.46 10.57,-1.64 2.12,4.66 3.28,9.74 5.76,14.24 4.58,7.3 12.91,10.48 19.64,15.33 4.9,3.77 11.37,2.36 17.09,2.5 7.24,0.32 12.46,-5.71 19.34,-6.78 4.01,-0.75 8.18,-1.36 11.72,-3.54 5.81,-3.51 11.94,-6.52 17.31,-10.71 7.27,-5.3 13.6,-11.83 19.13,-18.91 6.25,-8.48 13.05,-16.55 18.96,-25.28 1.39,0.13 2.74,0.51 4.01,1.12 0.67,11.29 -2.87,22.37 -1.96,33.66 0.65,6.67 5.28,12.72 11.72,14.79 9.08,3.93 18.82,-0.01 28.23,0.57 3.75,4.94 5.91,11.64 11.66,14.69 6.77,2.44 11.61,-4.21 17.3,-6.56 5.26,-2.12 7.95,-7.87 13.28,-9.76 8.35,-1.64 16.75,1.95 25.12,0.19 7.16,-0.64 13.26,-4.63 19.71,-7.4 4.73,-2.03 8.43,-6 13.49,-7.35 4,-1.17 7.84,-2.81 11.75,-4.27 2.57,-0.93 6.11,-1.09 7.55,1.75 1.03,5.26 -2.89,10.14 -1.7,15.39 2.33,2.41 5.99,3.08 9.13,2.05 3.83,-2.94 5.74,-7.81 9.97,-10.33 5.81,-3.61 11.52,-8.25 18.63,-8.71 1.56,4.22 2.46,9.43 6.76,11.82 5.46,3.39 11.98,0.69 17.83,0.1 5.51,-1.13 11.6,0.71 16.65,-2.36 4.13,-2.38 8.37,-4.6 12.96,-5.98 7.4,-2.27 13.28,-7.53 20.11,-10.96 1.79,-0.75 4.05,-2.1 5.85,-0.57 4.06,2.09 2.58,7.21 3.08,10.88 -0.01,3.49 2.17,6.41 4.83,8.46 3.95,3.14 8.38,6.23 13.5,6.92 7.31,-0.67 13.65,-5.33 20.97,-5.9 3.27,0.98 4.54,4.66 6.38,7.23 3.22,5.88 10.44,7.94 16.75,7.86 6.72,0.35 12.93,-2.62 19.37,-4.08 7.13,-1.89 14.39,-3.25 21.68,-4.41 7.77,-1.25 13.75,-7.97 21.91,-7.67 5.29,-0.33 7.55,5.47 11.65,7.72 3.62,1.68 7.73,1.3 11.62,1.4 5.82,0.17 11.61,-1.99 17.4,-0.46 -0.21,2.72 0.2,5.75 -1.5,8.09 -2.49,3.82 -6.11,7.06 -7.23,11.64 -1.17,4.37 -2,8.9 -4.33,12.84 -2.37,4.05 -4.08,8.44 -5.04,13.04 -1.4,6.92 -5.55,12.84 -7.21,19.67 -1.09,4.47 -3.16,8.59 -5.49,12.53 -3.64,6.15 -3.53,13.55 -5.88,20.17 -2.15,6.16 -4.42,12.29 -6.27,18.55 -2.11,7.13 -5.91,13.74 -6.89,21.2 -0.7,5.17 -1.52,10.43 -3.93,15.13 -4.96,9.5 -4.19,20.96 -9.73,30.23 -1.28,2.16 -4.12,2.12 -6.26,2.72 -3.58,-4.69 -6.97,-9.56 -11.11,-13.78 -3.51,-3.55 -8.85,-5.43 -13.76,-4.26 -6.85,1.47 -12.41,6.59 -15.9,12.48 -1.75,2.57 -0.21,5.8 1.93,7.59 2.26,2.05 5.53,1.48 8.34,1.7 1.86,-3.06 3.58,-6.22 5.36,-9.33 2.47,0.19 5.28,-0.24 7.35,1.47 3.63,2.69 6.18,6.5 9.29,9.74 2.78,2.91 5.1,6.26 6.63,10.01 1.35,2.63 2.31,6.02 5.32,7.24 3.07,1.68 7.81,-0.22 8.47,-3.76 1.39,-4.97 1.4,-10.44 4.33,-14.87 2.29,-3.59 4.52,-7.3 5.39,-11.53 2.17,-10.06 6.86,-19.41 8.36,-29.64 0.74,-5.28 2.74,-10.22 4.87,-15.07 2.5,-5.71 2.13,-12.34 5.33,-17.79 1.62,-3.04 3.97,-5.91 4.26,-9.47 0.3,-4.04 0.48,-8.1 1.38,-12.07 1.3,-5.63 5.45,-10.01 7.17,-15.49 1.44,-4.49 2.61,-9.1 4.81,-13.3 2.14,-4 3.22,-8.43 4.23,-12.82 1.28,-5.77 4.75,-10.68 6.58,-16.24 3.26,-10.11 7.58,-19.92 13.19,-28.95 3.03,-4.87 3.94,-10.82 7.69,-15.28 3.33,-4.8 8.11,-8.5 10.96,-13.63 1.21,-4.46 -3.39,-8.11 -7.42,-8.37 -4.85,0.78 -8.25,4.68 -11.7,7.82 -4.42,4.38 -10.78,5.64 -15.76,9.2 -4.8,3.6 -12.09,4.53 -17.08,0.87 -0.12,-3.91 3.63,-6.51 5.03,-9.93 2.11,-2.91 -0.05,-6.67 -2.44,-8.64 -2.1,-0.92 -4.53,-0.37 -6.41,0.81 -5.65,3.32 -11.02,7.19 -17.02,9.9 -5.26,2.4 -11.27,1.6 -16.64,3.59 -4.55,1.65 -8.67,4.35 -13.38,5.57 -5.37,1.59 -11.08,0.13 -16.48,1.46 -5.69,1.13 -11.18,4.09 -17.12,3.25 -4.7,-0.79 -4.92,-8.31 -0.59,-9.77 4.44,-1.79 9.13,-3.15 13.03,-6.09 12.46,-7.16 20,-19.97 26.98,-32.06 2.49,-4.11 3.34,-10 -0.27,-13.74 -1.03,-1.57 -3.07,-1.44 -4.68,-1.16 -10.07,2.39 -19.77,7.37 -26.65,15.23 -3.81,4.53 -7.7,8.98 -11.57,13.44 -4,4.53 -4.37,11.08 -8.42,15.56 -2.61,2.94 -5.92,5.48 -9.84,6.28 -2.97,0.57 -6,0.35 -8.99,0.67 -4.34,0.41 -8.78,1.35 -13.1,0.4 -4.01,-1.72 -3.54,-6.57 -3.52,-10.14 0.23,-3.79 -0.59,-7.9 1.26,-11.39 6.52,-10.82 16.41,-18.99 26.5,-26.35 10.7,-7.06 20.62,-15.4 28.98,-25.14 4.83,-5.48 10.29,-10.4 14.92,-16.07 5.25,-6.43 10.3,-13.03 15.29,-19.67 3.97,-6.32 7.8,-12.76 12.47,-18.61 2.03,-2.36 2.83,-5.4 3.13,-8.43 -2.52,-1.54 -5.15,-3.03 -8.02,-3.75 -5.21,-0.49 -10.21,1.97 -14.31,4.97 -5.29,3.99 -10.91,7.68 -15.36,12.65 -3.13,3.54 -6.54,6.83 -9.49,10.53 -5.77,7.5 -12.47,14.19 -18.8,21.2 -8.91,8.61 -15.05,19.51 -23.3,28.69 -7.5,9.55 -13.45,20.33 -21.81,29.2 -4.44,4.96 -11.24,6.5 -16.14,10.85 -4.58,4.24 -10.95,5.45 -15.96,9.04 -5.8,4.17 -13.21,4.45 -19.56,7.41 -4.95,2.15 -10.02,5.15 -15.63,4.32 -2.02,-0.09 -3.74,-1.52 -3.98,-3.55 -0.89,-4.01 3.25,-6.29 5.41,-8.98 4.08,-3.43 3.82,-12.04 -2.04,-13.38 -5.39,0 -10.51,2.41 -14.72,5.65 -4.07,3.09 -8.84,5.06 -12.98,8.03 -2.48,1.68 -5.09,3.7 -8.27,3.4 -4.85,0.48 -6.9,-4.89 -10.64,-6.92 -3.49,-0.6 -7.06,-0.36 -10.58,-0.2 -4.83,0.23 -9.03,2.81 -13.29,4.8 -3.65,1.75 -7.65,2.5 -11.44,3.84 -4.11,1.42 -7.13,4.81 -11.14,6.43 -3.48,1.38 -7.21,2.08 -10.56,3.79 -2.41,1.09 -4.67,2.65 -7.3,3.14 -3.74,-0.77 -6.01,-4.63 -5.64,-8.28 -0.19,-3.17 2,-5.7 3.86,-8 6.06,-6.99 11.47,-14.51 17.44,-21.57 4.73,-4.27 5.59,-12.61 0.4,-16.85 -8.35,-1.13 -17.55,-0.42 -24.68,4.5 -11.34,7.05 -20.33,17.04 -29.94,26.17 -3.76,3.45 -6.26,7.92 -8.81,12.28 -2.77,4.79 -8.32,6.51 -12.87,9.09 -7.4,4.22 -16.77,6.35 -24.93,3.17 -5.02,-1.96 -9.09,-7.38 -7.82,-12.91 1.01,-5.57 1.42,-11.19 1.58,-16.84 1.14,-7.43 5.27,-14.05 6.04,-21.59 0.66,-6.51 4.73,-11.78 7.74,-17.36 2.98,-5.49 6.99,-10.3 10.57,-15.4 4.19,-5.73 8.37,-11.55 13.57,-16.43 1.43,-1.46 3.4,-2.2 5.45,-2.07 26.01,0.25 52.03,0.1 78.05,0.06 7.14,0.18 13.81,-2.58 20.5,-4.66 7.48,-2.45 15.44,-0.53 23.06,-2.06 7.19,-1.25 14.5,-1.1 21.72,-2.08 5.54,-0.64 11.4,0.67 16.7,-1.54 3.36,-1.37 5.62,-4.63 6.4,-8.09 -0.93,-3.49 -4.61,-6.45 -8.3,-5.43 -4,1.09 -7.51,3.5 -11.57,4.37 -7.14,1.23 -14.39,1.41 -21.6,1.77 -6.97,1.07 -14.02,0.46 -21.02,0.68 -4.95,0.01 -9.21,2.81 -13.79,4.24 -2.63,0.92 -5.45,0.68 -8.17,0.79 -5.4,-0.04 -10.53,2.13 -15.93,2 -18.04,0.04 -36.08,-0.11 -54.12,0.11 -2.82,0.16 -5.5,-0.79 -8.01,-1.95 1.65,-5.1 5.69,-8.72 9.18,-12.58 4.45,-4.76 6.83,-11 11.17,-15.85 3.62,-4.52 8.63,-8.06 10.93,-13.53 0.94,-2.17 -0.22,-4.53 -1.58,-6.22 -1.13,-1.22 -2.6,-3 -4.31,-1.63 -8.47,3.81 -12.71,12.56 -18.02,19.62 -4.93,7.29 -11.22,13.55 -16,20.96 -2.65,4.13 -6,8.25 -10.83,9.85 -1.89,0.68 -3.54,-0.88 -5.1,-1.68 -5.31,-3.69 -11.45,-6.07 -17.74,-7.4 -2.65,-0.7 -5.59,0.65 -6.5,3.29 -1.9,3.06 0.73,6.67 3.54,7.99 5.37,2.11 11.51,1.58 16.67,4.32 3.35,1.99 1.87,6.51 2.24,9.73 -3.84,3.23 -7.37,6.84 -10.11,11.07 -3.68,5.55 -8.49,10.21 -12.23,15.72 -4.08,6.11 -9.5,11.12 -14.18,16.75 -5.67,6.97 -12.02,13.37 -17.34,20.62 -6.01,8.53 -12.03,17.17 -19.59,24.42 -5.09,4.37 -10.56,8.43 -16.74,11.13 -4.85,2.14 -8.94,6.11 -14.39,6.73 -4.66,0.64 -9.3,1.49 -13.66,3.29 -3.43,1.45 -7.19,1.38 -10.84,1.3 -0.51,-2.52 -1.61,-5.24 -0.69,-7.78 2.47,-4.66 7.18,-7.78 9.09,-12.79 1.75,-4.53 3.1,-9.26 5.72,-13.4 3.86,-6.13 4.98,-13.43 8.17,-19.87 2.73,-5.64 3.22,-12.12 6.41,-17.56 1.83,-3.2 3.56,-6.46 5.48,-9.6 3.14,-5.06 7.91,-8.74 12.42,-12.49 6,-4.97 11.25,-10.74 16.94,-16.04 6.05,-5.66 11.65,-11.76 16.62,-18.4 6.6,-7.23 12.28,-15.26 17.17,-23.73 3.42,-6.99 7.59,-13.61 10.36,-20.91 1.97,-5.11 6.39,-9.38 6.45,-15.11 0.05,-3.84 0.46,-8.15 -2.07,-11.37 -2.79,-3.8 -7.63,-6.73 -12.47,-5.7 -4.13,0.8 -8.25,1.77 -12.25,3.11 m 961.52,61.57 c -3.11,0.26 -3.68,4.01 -4.5,6.39 -1.03,4.59 -3.12,9 -3.36,13.73 0.87,5.29 9.93,5.66 11.75,0.79 2.04,-4.54 3.94,-9.34 4.33,-14.34 0.55,-4.35 -4.24,-7.57 -8.22,-6.57 m -80.98,5.72 c -4.82,2.33 -4.23,11.64 1.65,12.22 2.7,0.23 5.88,0.67 8.18,-1.14 4.1,-2.88 3.02,-10.85 -2.23,-11.71 -2.53,-0.22 -5.28,-0.51 -7.6,0.63 M 284.68,326.33 c 2.87,4.84 8.68,6.67 14.04,6.44 1.57,-3.21 2.85,-7.1 1.04,-10.5 -2.09,-3.9 -5.44,-7.48 -9.76,-8.79 C 283.92,313.76 281.72,321.76 284.68,326.33 Z"
       id="path3264"
       style="fill:#fefefe" />
    <path
       d="m 1421.12,64.2 c 4.31,-3.36 10.17,-3.08 15.3,-2.44 2.8,0.81 1.77,4.3 2.13,6.48 -6.57,5.9 -11.38,13.49 -18.47,18.82 -11.11,10.91 -24.06,19.88 -37.99,26.8 -3.06,1.68 -6.59,1.68 -9.96,1.64 1.52,-3.53 3.11,-7.07 5.39,-10.18 2.52,-3.46 6.52,-5.31 9.78,-7.97 7.75,-6.32 12.53,-15.46 20.14,-21.91 C 1411.82,71.48 1416.43,67.78 1421.12,64.2 Z"
       id="path3266"
       style="fill:#fefefe" />
    <path
       d="m 585.16,122.17 c 3.41,-5.27 11.99,-5.32 15.74,-0.41 -2.61,9.23 -8.64,16.79 -12.7,25.34 -2.48,4.73 -5.68,9.03 -8.49,13.56 -5.64,8.85 -13.14,16.29 -19.05,24.94 -2.32,3.78 -6.07,6.26 -10.15,7.8 -2.55,-5.96 -0.02,-12.32 3.78,-17.07 4.06,-5.03 5.93,-11.3 9.05,-16.88 3.12,-5.7 4.91,-12.05 8.44,-17.54 C 575.63,134.93 580.35,128.5 585.16,122.17 Z"
       id="path3268"
       style="fill:#fefefe" />
    <path
       d="m 955.61,177.59 c 1.39,-1.3 3.46,-0.97 5.22,-1.24 -0.42,6.2 -6.2,9.41 -9.5,13.99 -3.6,4.96 -7.19,10.01 -11.84,14.04 -2.6,2.44 -5.72,4.21 -8.49,6.43 2.58,-5.48 5.05,-11.15 9.14,-15.71 3.68,-4.3 8.34,-7.73 11.56,-12.44 C 952.96,180.94 954.07,179.1 955.61,177.59 Z"
       id="path3270"
       style="fill:#fefefe" />
    <path
       d="m 1252.53,240.44 c 1.74,-1.46 4.15,-0.78 6.21,-0.57 3.68,0.75 7.71,1.23 10.76,3.63 2.59,2.03 2.44,5.73 1.81,8.63 -2,3.3 -5.29,5.51 -7.74,8.43 -2.95,3.16 -4.94,7.14 -8.23,9.97 -2.17,2.22 -6.31,0.68 -6.67,-2.34 -0.56,-5.05 -0.01,-10.15 -0.17,-15.22 C 1248.52,248.61 1248.84,243.38 1252.53,240.44 Z"
       id="path3272"
       style="fill:#fefefe" />
    <path
       d="m 481.97,269.98 c 7.94,-7.15 16.57,-13.65 23.33,-22 2.19,1.06 5.09,2.17 5.16,5.06 -0.99,6.9 -6.95,11.57 -9.11,18.03 -2.33,6.64 -6.34,12.46 -9.48,18.71 -1.31,2.16 -2.82,5.32 -5.86,4.85 -2.99,0.43 -5.11,-2.25 -5.99,-4.77 -1.56,-4.21 -2.32,-8.66 -3.61,-12.95 C 478.09,274.46 479.83,272.04 481.97,269.98 Z"
       id="path3274"
       style="fill:#fefefe" />
    <path
       d="m 1730.02,251.7 c 2.42,-1.64 5.1,-2.84 7.86,-3.84 1.07,1.1 2.17,2.21 3.29,3.32 -1.82,3.1 -4.59,5.51 -8.28,5.88 C 1731.89,255.28 1730.93,253.5 1730.02,251.7 Z"
       id="path3276"
       style="fill:#fefefe" />
    <path
       d="m 689.08,257.94 c 1.74,-2.12 4.6,-1.26 6.96,-1.28 -0.41,2.07 -0.49,4.51 -2.31,5.92 -3.44,3.03 -7.26,5.66 -10.15,9.28 -2.01,-0.74 -3.97,-1.63 -5.88,-2.58 C 681.51,265.51 685.19,261.62 689.08,257.94 Z"
       id="path3278"
       style="fill:#fefefe" />
    <path
       d="m 943.42,266.36 c 3.89,-3.9 8.03,-7.87 13.47,-9.45 -0.26,5.17 -3.57,9.46 -7.13,12.94 -1.66,1.64 -4.12,1.6 -6.25,1.99 C 943.47,270.01 943.44,268.18 943.42,266.36 Z"
       id="path3280"
       style="fill:#fefefe" />
    <path
       d="m 1852.44,261.19 c 1.36,-0.64 3,-1.38 4.06,0.25 1.75,1.61 1.1,4.4 0.96,6.52 -1.1,3.36 -4.12,5.55 -6.35,8.14 -3.72,3.79 -6.42,8.79 -11.24,11.33 -4.53,1.35 -8.08,-2.32 -11.06,-5.12 -1.76,-1.88 -4.57,-4.26 -3.09,-7.1 C 1833.92,269.28 1842.97,264.73 1852.44,261.19 Z"
       id="path3282"
       style="fill:#fefefe" />
    <path
       d="m 667.51,289.24 c 2.47,-1.8 4.99,0.73 7.17,1.8 -3.72,4.17 -8.26,7.49 -12.28,11.35 -2.11,1.85 -5.14,4.34 -8,2.45 -2.8,-1.46 -2.53,-5.79 0.13,-7.28 C 658.75,294.64 663.13,291.92 667.51,289.24 Z"
       id="path3284"
       style="fill:#fefefe" />
    <path
       d="m 1717.61,362.48 c 1.75,-1.54 4.13,-0.57 6.18,-0.32 0.22,6.66 -2.66,12.79 -4.69,18.97 -2.2,6.56 -6.23,12.6 -6.53,19.7 -0.13,6.94 -5.03,12.35 -6.81,18.82 -1.21,4.21 -2.89,8.27 -5.03,12.08 -3.04,5.43 -4,11.7 -6.76,17.25 -3.17,6.15 -5.72,12.63 -9.56,18.41 -2.44,3.69 -4.09,7.84 -6.53,11.51 -2.15,3.13 -4.82,5.84 -7.27,8.72 -5.12,5.73 -8.14,12.97 -13.39,18.6 -5.81,6.35 -10.12,13.84 -15.47,20.55 -1.53,2.21 -4.22,2.84 -6.69,3.27 -1.99,-5.45 -1.91,-11.36 -2.24,-17.07 0.81,-7 0.61,-14.12 2.15,-21.03 1.21,-5.51 5.36,-9.81 6.59,-15.33 1.13,-4.69 1.85,-9.58 4.27,-13.84 4.35,-7.5 6.1,-16.36 12.03,-22.94 7.4,-8.3 11.94,-18.56 18.64,-27.38 4.44,-5.89 7.49,-12.87 13.11,-17.83 7.93,-7.19 13.9,-16.12 20.68,-24.32 C 1712.56,367.55 1714.69,364.59 1717.61,362.48 Z"
       id="path3286"
       style="fill:#fefefe" />
  </g>
  <path
     d="m 41.901507,3.6219017 c 1.780915,-0.5837989 3.574949,-1.8235516 5.523131,-1.1938359 1.328307,0.5969179 2.538542,1.4398186 3.732378,2.2663204 1.243032,0.8297815 1.994099,2.1843261 2.54838,3.5323112 0.882258,2.0268976 0.508364,4.2833786 0.57396,6.4250676 0.0656,2.118731 -0.872419,4.063634 -1.666123,5.972459 -0.823222,1.889147 -1.174157,3.958681 -2.177767,5.772394 -1.315187,2.299118 -1.797313,4.972129 -3.233852,7.212212 -1.082324,2.076093 -2.97803,4.060354 -2.646773,6.572657 1.439818,-0.28534 2.879637,-0.846181 3.886526,-1.958022 2.941953,-3.227293 6.274198,-6.120049 9.963938,-8.468364 1.682522,-1.426699 3.873407,-1.964582 5.703518,-3.148578 0.829782,-0.511644 1.71204,-1.059366 2.728768,-1.029848 1.102003,-0.0098 2.325356,-0.173827 3.296168,0.472287 0.924895,0.547722 1.528372,1.590688 1.502134,2.669732 0.01968,1.387342 0.157429,2.814042 -0.190226,4.171866 -1.121681,3.322406 -2.99115,6.316835 -4.985249,9.176794 -0.85602,1.167598 -1.193836,2.604137 -1.049526,4.037396 1.784194,-0.895377 3.509353,-1.967862 4.873736,-3.440478 2.154809,-2.240082 4.391611,-4.40473 6.861277,-6.297157 2.653333,-1.990819 5.014767,-4.522801 8.23222,-5.611684 1.820272,-0.606758 3.397841,-1.738278 5.191875,-2.397512 1.256151,-0.455887 2.843559,0.108233 3.299447,1.42014 0.354215,2.243362 -0.5674,4.421129 -1.380782,6.464425 -0.885538,1.977701 -1.28895,4.198104 -2.653334,5.936382 -1.666122,2.184326 -3.138739,4.509682 -4.798302,6.700568 -2.351594,2.945233 -4.217783,6.231561 -6.366031,9.317824 -1.633325,2.718928 -3.279769,5.434577 -5.178756,7.979678 -1.748116,2.348314 -2.994429,5.037725 -4.82454,7.327004 -1.361104,1.794033 -3.053465,3.384721 -3.932443,5.496893 -0.895377,2.154808 -2.653333,3.745496 -3.961961,5.631363 -1.174157,1.610367 -1.338145,3.715978 -2.535261,5.316506 -0.970812,1.308627 -1.325027,2.912434 -1.734998,4.457206 -0.547721,2.056415 -1.820272,3.866847 -2.118731,5.995422 0.0164,1.48573 0.419811,2.97803 0.15087,4.46376 -0.298459,1.1512 -1.784195,1.48574 -2.738607,0.98721 -1.056086,-0.96097 -1.748117,-2.46311 -1.452938,-3.90292 0.321417,-1.54805 0.803543,-3.066588 0.947853,-4.650716 0.183667,-1.794034 0.678912,-3.54543 1.466057,-5.165636 1.656283,-3.519192 3.233852,-7.113819 5.53297,-10.272237 1.206955,-1.84323 2.289279,-3.781573 3.797973,-5.405059 1.521812,-1.623486 2.377832,-3.709419 3.696299,-5.480494 2.220404,-2.958352 4.047235,-6.182365 6.225002,-9.166954 0.901936,-1.27911 1.921945,-2.472946 2.69597,-3.83405 0.646115,-1.128241 1.174157,-2.322077 1.84323,-3.437198 1.059366,-1.833391 2.771405,-3.214174 3.630704,-5.178756 1.00361,-2.174486 2.784524,-3.817651 4.175146,-5.729756 0.905217,-1.210235 1.56773,-2.574619 2.377833,-3.847169 0.672353,-1.092163 1.429979,-2.158088 1.830111,-3.391281 0.239423,-0.846181 -0.0066,-1.728438 -0.180387,-2.5615 -1.085604,0.05904 -2.322077,-0.255822 -3.26665,0.42309 -2.243362,1.787474 -4.506403,3.545431 -6.569377,5.53953 -1.43326,1.456218 -3.41096,2.204005 -4.814701,3.68974 -0.491966,0.495245 -0.960973,1.010169 -1.439819,1.515254 -1.774355,1.967861 -4.093152,3.322406 -5.952781,5.198433 -2.899315,2.446708 -5.470654,5.250911 -7.838648,8.209262 -1.482455,1.728439 -2.846839,3.55855 -3.945562,5.559209 -3.656942,5.647762 -7.153176,11.403757 -10.849476,17.02856 -0.859299,1.210235 -1.771075,2.404071 -2.40079,3.758616 -1.347986,2.83044 -2.738608,5.683839 -4.765505,8.101029 -2.955072,4.352254 -5.204993,9.134153 -8.123988,13.509373 -0.593638,0.73794 -1.338145,1.94162 -2.449987,1.49557 -0.580519,-0.25582 -1.351265,-0.633 -1.288949,-1.38406 -0.186947,-2.42703 1.83995,-4.13907 2.774684,-6.18893 0.895377,-1.984257 2.384392,-3.604462 3.401121,-5.519848 1.515253,-2.69597 3.492954,-5.116439 4.811421,-7.923921 1.393902,-2.971471 3.532311,-5.503453 5.080362,-8.38637 0.632995,-1.193836 1.534932,-2.204005 2.351594,-3.269929 1.390622,-1.905546 2.164648,-4.168587 3.361764,-6.188925 2.282719,-3.433918 4.188265,-7.107259 6.487383,-10.534618 1.397181,-1.938343 2.617255,-3.998038 3.650383,-6.152846 1.042966,-2.256481 2.643493,-4.184986 3.83077,-6.359472 0.885537,-1.525093 1.603807,-3.148579 2.650053,-4.581838 1.124961,-1.515253 1.505414,-3.414239 2.518863,-4.991808 0.626436,-1.046246 1.511973,-2.069534 1.459497,-3.365043 -0.05576,-1.046246 0.311578,-2.453267 -0.731389,-3.1289 -1.384062,0.167269 -2.604136,0.931455 -3.896365,1.410301 -1.715319,0.639555 -3.079703,1.889147 -4.506403,2.994429 -1.931784,1.551331 -4.063634,2.866518 -5.785512,4.670391 -1.99082,2.085933 -4.430968,3.647103 -6.562818,5.575607 -2.604137,2.312238 -4.82454,5.011487 -6.995747,7.727136 -1.764516,2.200725 -3.12562,4.69335 -4.903255,6.887515 -1.790754,2.230243 -2.912435,4.899975 -4.650712,7.163016 -1.935064,2.758285 -3.768455,5.588726 -5.811751,8.268297 -1.541491,2.305678 -2.863238,4.758945 -4.575278,6.946551 -1.429979,1.803873 -2.509023,3.847169 -3.574948,5.880626 -0.777305,1.55461 -2.204005,2.669732 -2.948512,4.244021 -1.039687,1.994099 -1.902266,4.250581 -3.7225382,5.674 -1.079044,0.236144 -2.9025955,0.636275 -3.4142395,-0.682192 -0.1639884,-1.55133 1.1348001,-2.666452 1.9317839,-3.837329 1.5742892,-1.908826 2.5057436,-4.227623 3.9488418,-6.225002 2.430309,-3.571668 3.886526,-7.720576 6.490663,-11.180733 1.154479,-1.600527 2.377833,-3.145298 3.483115,-4.778623 1.164318,-1.639884 2.68613,-2.997709 3.738936,-4.716308 2.892757,-4.716308 6.343074,-9.062002 9.219431,-13.788149 2.541821,-3.565109 3.847169,-7.815689 6.116769,-11.534947 0.508364,-0.901937 0.751067,-1.912106 1.111842,-2.873078 0.508364,-1.433259 1.666123,-2.522142 2.158088,-3.965241 1.177437,-3.909484 2.98459,-7.602504 4.939332,-11.177452 0.728109,-1.466057 0.400132,-3.184656 1.013449,-4.69007 0.757626,-2.040016 2.020337,-4.204664 1.256151,-6.434907 -0.606757,-1.7776346 -1.508694,-3.8898058 -3.502793,-4.4178486 -1.879308,-0.3542151 -3.755336,0.1935064 -5.614965,0.4132509 -1.338145,0.2197445 -2.758285,0.00328 -4.024276,0.5641202 -1.098723,0.4788463 -2.076094,1.193836 -3.168257,1.6825215 -2.945233,1.229913 -5.67728,2.98131 -8.035434,5.132839 -2.13841,1.918664 -4.709748,3.342084 -6.552979,5.582166 -1.593967,1.620206 -2.476225,3.807812 -4.217783,5.293548 -3.775014,3.053464 -5.8478277,7.776332 -6.595615,12.4828 0.183667,1.898987 1.603807,3.355204 2.781244,4.745826 -0.28206,0.495245 -0.528043,1.056086 -1.036407,1.367664 C 9.2153296,44.487823 7.7689515,44.422228 7.0277237,43.303827 5.7223756,41.460597 4.1644854,39.28283 4.7876415,36.891878 5.2664877,35.245434 5.958519,33.667866 6.5226393,32.04766 7.3229029,29.955167 8.6348105,28.098818 10.035272,26.3671 c 1.836671,-2.007219 3.338805,-4.293218 5.260749,-6.231561 2.689411,-3.227293 5.923263,-5.933103 9.252229,-8.474923 C 26.9556,9.709153 29.441665,7.7740893 32.324582,6.5736938 33.836556,5.9374186 35.125505,4.8157376 36.722752,4.3795283 38.45447,4.2057006 40.238665,4.228659 41.901507,3.6219017 Z"
     id="path3289"
     style="fill:#0c0c0c" />
  <path
     d="m 449.56695,12.578951 c 2.1253,-1.065925 4.65728,-1.469337 6.95967,-0.747787 0.94458,0.308298 2.00722,0.649394 2.58118,1.531652 0.633,0.941293 0.62316,2.148248 0.47885,3.230572 -0.28534,0.869139 -0.8921,1.584129 -1.39718,2.331916 -0.97737,1.334866 -1.67596,2.876357 -2.82388,4.086592 -1.79404,1.938344 -3.95868,3.479835 -5.82159,5.349303 -2.26632,2.233523 -5.10004,3.735657 -7.83209,5.309946 -2.03674,0.964252 -3.93244,2.318797 -6.18893,2.728768 -1.25287,0.239423 -2.48934,0.600198 -3.5815,1.269271 -1.35127,0.826501 -2.92884,1.308628 -4.09644,2.41063 -3.18465,3.289608 -4.66711,7.717296 -7.16957,11.469352 -1.102,2.354874 -2.61398,4.483444 -3.69302,6.848158 -1.19712,2.41719 -2.68613,4.68023 -4.36537,6.789122 -0.65596,0.760906 -0.57396,1.803873 -0.6166,2.738607 2.20401,0.737948 4.51296,-0.02624 6.40867,-1.203676 1.35454,-0.882257 2.97147,-1.167597 4.42441,-1.83667 2.27616,-1.367664 3.81109,-3.611026 5.71664,-5.40178 1.47261,-1.374223 4.17514,0.600198 3.41423,2.42375 -0.66907,1.347985 -1.85962,2.322076 -2.755,3.506073 -1.18072,1.423419 -1.5087,3.299447 -2.27616,4.939332 -0.33454,0.921615 -1.03641,1.908825 -0.56084,2.909155 0.42309,1.347985 1.69236,2.617256 3.18137,2.541821 1.29223,-0.252542 2.37456,-1.085604 3.61431,-1.508694 1.9449,-0.783865 4.22762,-0.629716 5.96918,-1.918665 1.62676,-1.147919 3.43064,-2.010498 5.08364,-3.12234 1.52509,-1.026568 3.50935,-1.311907 4.72615,-2.787803 0.95441,-1.115122 2.43687,-1.751397 3.90948,-1.452938 1.37751,0.57068 2.00066,2.285999 1.70548,3.68318 -0.42965,2.643494 -1.71204,5.26403 -1.0528,7.982958 0.34109,1.026568 1.13808,2.217124 2.36799,2.115451 2.85668,0.42309 4.74911,-2.102332 7.03838,-3.312567 2.0269,-1.036407 1.5415,-3.620864 2.0433,-5.477214 0.27222,-1.964581 3.18138,-2.889476 4.49328,-1.426699 0.71499,1.200395 0.61332,2.68941 0.67236,4.043955 0.77402,0.308298 1.56445,0.652674 2.42375,0.600198 1.86618,-0.03936 3.73893,0.0066 5.60512,-0.09839 1.59725,-0.108233 3.04035,-0.842901 4.44409,-1.554611 1.58085,-0.836341 3.50607,-0.829781 4.97869,-1.902266 1.41358,-0.977371 2.56478,-2.263041 3.77173,-3.476555 0.9249,-1.111842 3.04363,-0.642835 3.34865,0.790424 0.0984,0.839621 0.14103,1.784195 -0.38374,2.502464 -0.86586,1.292229 -2.19416,2.230243 -2.89275,3.637264 -0.69531,1.446378 -0.98393,3.056745 -1.05937,4.653992 1.06265,0.341096 2.31224,1.069205 3.38472,0.357495 1.2168,-0.777305 2.35488,-1.685801 3.67662,-2.295838 1.56117,-0.803544 2.78781,-2.177767 4.51297,-2.686131 1.98426,-0.629716 3.38472,-2.400791 5.46409,-2.817322 1.86947,-0.501804 4.35553,0.767466 4.33586,2.889477 0.003,1.495574 0.0787,3.014107 0.66907,4.411289 3.939,-1.295509 7.12694,-4.437528 11.32176,-5.047565 1.18728,0.160709 2.07282,1.462777 1.84323,2.653334 -0.34437,2.384392 -2.32863,4.362092 -2.02362,6.884235 -0.0557,1.000329 0.9741,1.55461 1.82028,1.744837 1.6202,0.311578 3.28632,0.09183 4.90981,-0.108233 2.77141,-0.298459 5.60841,0.259102 8.33717,-0.459167 2.03018,-0.495245 4.10955,-0.941294 5.97902,-1.912106 1.46934,-0.770745 1.77764,-2.574618 2.72549,-3.811091 1.49885,-1.997379 3.21745,-3.965241 5.53625,-5.027886 2.27944,-1.325027 4.94261,-1.964582 7.56971,-1.931784 0.85602,0.469007 1.45949,1.262711 2.14497,1.938344 0.79042,0.819942 1.75795,1.436538 2.69597,2.079373 -0.01,1.216794 -0.13775,2.436868 -0.51821,3.597907 -0.60347,1.98754 -2.23024,3.502793 -2.60741,5.578887 -0.50181,2.768125 -2.49591,5.070523 -2.50575,7.956719 -0.0328,2.505744 -1.6694,4.624475 -1.74483,7.117099 1.44965,0.459168 2.71892,-0.514924 3.83405,-1.308628 1.93834,-1.426699 3.25681,-3.529031 5.23123,-4.916373 2.68941,-1.866189 5.10988,-4.086593 7.54347,-6.270919 2.61725,-2.653333 6.02165,-4.280098 9.10791,-6.300436 2.21057,-1.538212 4.75895,-2.459827 7.17286,-3.620865 2.07281,-0.813383 5.01149,-1.393902 6.56938,0.662513 1.42998,1.28895 1.77763,3.453597 0.89209,5.152517 -0.97409,1.915385 -1.72843,4.011158 -3.23713,5.588727 -2.04657,2.099052 -4.39489,3.902925 -7.01542,5.227952 0.37389,0.970811 1.25615,1.659563 2.32535,1.656283 1.9613,-0.05248 3.98492,-0.495245 5.57561,-1.71204 2.33519,-1.354544 4.33585,-3.194495 6.72353,-4.467045 1.97114,-1.370943 3.52247,-3.273209 5.5592,-4.578557 2.52543,-1.984261 5.46082,-3.430639 7.74354,-5.719918 2.25648,-2.220403 4.71959,-4.234181 6.85144,-6.582496 1.50213,-1.666123 2.98131,-3.361763 4.68351,-4.834379 1.04296,-0.901937 1.99738,-1.912106 2.82716,-3.020668 -0.44277,-0.796984 -0.72155,-1.872748 -1.68252,-2.194165 -3.00427,-1.092163 -6.25452,-0.780585 -9.37358,-1.183997 -1.40047,-0.121351 -2.96164,-0.0066 -4.13251,-0.924895 -0.023,-0.573959 -0.22631,-1.318467 0.39357,-1.659563 1.69236,-1.423419 4.02756,-1.141359 6.03805,-0.718269 2.8534,0.652674 5.91343,-0.28206 8.66187,0.924895 1.32175,0.459167 2.70581,1.367663 4.15547,0.892097 1.74812,-0.908496 2.919,-2.574619 4.03412,-4.145628 1.47261,-2.204005 3.50607,-3.942282 5.16235,-6.001977 0.6658,-0.731389 1.39719,-1.738278 2.52543,-1.587409 0.77074,-0.02624 1.48573,0.521484 1.78091,1.223354 0.31486,1.377503 -0.61988,2.571339 -1.39718,3.604466 -1.64973,1.971142 -3.00427,4.194825 -4.95245,5.906864 -0.98065,0.695311 -0.19679,2.112172 0.80682,2.263041 1.46278,0.252542 2.96163,0.0164 4.44737,0.09511 1.78747,0.0098 3.45031,0.796984 5.22467,0.954413 2.19089,0.163988 4.43425,-0.236143 6.59234,0.321417 1.81371,0.455888 3.67006,0.780585 5.54936,0.695311 2.08594,-0.104952 4.13579,0.43293 6.22501,0.360775 4.42112,0.02952 8.88161,-0.252542 13.25682,0.531323 1.67596,0.403411 3.20762,1.262711 4.89014,1.672682 2.20728,0.606757 4.50968,0.305018 6.76944,0.377173 1.93834,-0.04592 3.88653,0.131191 5.82159,-0.05248 1.79403,-0.167268 2.74517,-1.872748 3.95212,-2.97803 3.28633,0.403411 6.55954,0.99049 9.87867,1.1348 1.57101,0.01968 3.47327,1.315187 3.18465,3.060024 -0.30174,0.741228 -0.94457,1.577569 -1.82027,1.56117 -1.69564,0.196786 -3.32896,-0.331256 -4.97541,-0.593638 -1.1348,-0.06888 -2.22368,0.341096 -3.33224,0.478846 -1.69892,0.236144 -3.4208,-0.0033 -5.11316,0.229584 -2.07938,0.295179 -4.18499,0.186947 -6.2742,0.200066 -2.19417,-0.0164 -4.39817,0.08855 -6.57266,-0.216465 -1.41358,-0.193506 -2.89276,0.06232 -4.23746,-0.485405 -1.61365,-0.590359 -3.11578,-1.689082 -4.90654,-1.593968 -1.98098,0.04264 -3.9554,-0.01968 -5.91342,-0.28534 -5.37226,-0.08855 -10.7806,0.180387 -16.11022,-0.642835 -1.94163,-0.380453 -3.90621,-0.672353 -5.88391,-0.718269 -1.84651,-0.0098 -3.56511,-1.039687 -5.42474,-0.770746 -1.55789,0.209905 -3.14858,0.163988 -4.65727,-0.28862 -1.89571,-0.393572 -4.01116,-1.039686 -5.86751,-0.226304 -2.79436,2.056415 -5.06068,4.726147 -7.3762,7.290927 -1.81699,2.003939 -3.87012,3.788133 -5.61168,5.864227 -1.42014,1.580848 -2.29584,3.535591 -3.46344,5.290267 -0.88226,1.626766 -2.01706,3.1289 -2.69269,4.854058 -0.58052,1.410301 0.75435,3.12562 2.27288,2.886197 1.28895,0.09183 2.19089,-0.957693 3.14202,-1.656283 1.27583,-1.036407 3.04691,-0.99705 4.42441,-1.85635 2.27944,-1.482455 4.92621,-2.335195 7.0351,-4.102991 2.6271,-2.171207 5.51985,-4.017717 7.96984,-6.405388 1.49558,-1.43326 3.27649,-2.525423 5.10004,-3.489675 1.57101,-0.826501 3.388,-1.085603 5.14268,-0.84946 0.76091,0.537882 1.36438,1.456218 1.18072,2.427029 -0.23943,1.325027 -1.48574,2.12857 -2.65006,2.581178 -1.94818,0.72155 -3.58478,2.053136 -5.53625,2.751727 -1.68252,0.577239 -2.71236,2.200725 -4.39817,2.768125 -1.84323,0.665793 -3.38472,1.941623 -4.7163,3.342084 -0.84618,0.806823 -0.3903,2.266321 0.59363,2.741887 0.98721,0.698591 2.22369,0.314858 3.28305,0.0033 1.35455,-0.43293 2.74517,-0.760907 4.10627,-1.190556 1.30535,-0.416531 2.37128,-1.325027 3.64055,-1.830111 1.12496,-0.446049 2.35815,-0.491966 3.50935,-0.865859 1.08232,-0.373894 1.90555,-1.243033 2.98131,-1.639885 1.44638,-0.09511 2.55166,1.111842 3.939,1.328307 1.44638,-0.127911 2.72877,-1.14136 4.21779,-0.974092 1.49557,0.751067 1.78747,2.607417 1.9121,4.11283 0.17383,2.200725 0.80682,4.55232 2.57134,6.018377 0.71171,0.610037 1.79403,0.446048 2.5287,-0.05248 1.34471,-0.905216 2.09577,-2.397511 3.05347,-3.660222 1.00689,0.02952 2.36143,0.380453 2.32207,1.646444 0.2919,1.511974 -0.94785,2.613976 -1.91538,3.565109 -1.73828,1.685801 -4.2965,2.728768 -6.70057,2.040016 -1.58085,-0.639555 -2.96819,-1.764515 -3.94228,-3.158417 -0.95441,-1.42014 -0.80355,-3.204335 -1.2332,-4.791743 -0.23614,-1.105282 -1.59724,-1.685801 -2.60413,-1.27583 -1.48574,0.501805 -2.21385,2.059695 -3.54543,2.787804 -0.8757,0.111512 -1.95146,0.298459 -2.59102,-0.452608 -0.94129,-0.747788 -1.79731,-2.118731 -3.18138,-1.780915 -1.28894,0.475567 -2.09577,1.803873 -3.46015,2.13185 -2.04002,0.462447 -4.22434,0.387013 -6.11021,1.403741 -1.40046,0.734668 -3.16826,1.102002 -4.61464,0.2919 -1.59724,-0.793705 -2.31223,-2.5615 -3.70614,-3.581508 -0.85602,-0.652674 -1.82027,0.14431 -2.59101,0.537882 -1.61365,1.029847 -3.5028,1.584128 -4.97869,2.827161 -0.83634,0.682192 -1.79732,1.236473 -2.87636,1.387342 -1.86291,0.305019 -3.84061,0.396852 -5.64776,-0.216465 -0.79699,-0.262381 -1.32503,-1.052806 -1.34799,-1.872748 -0.10167,-1.794033 0.16727,-3.627424 -0.34765,-5.378821 -0.88554,0.08855 -1.77764,0.344376 -2.41063,0.99705 -2.58774,2.351594 -4.98525,5.018046 -8.12727,6.651371 -2.29256,1.229914 -4.33258,2.84684 -6.42179,4.375212 -1.79731,1.341426 -4.12923,0.790425 -6.20204,0.898657 -2.12529,-0.07872 -4.3129,0.27878 -6.38243,-0.311578 -0.94785,-0.193507 -1.34471,-1.13808 -1.61365,-1.954742 -0.68875,-2.125291 -1.70876,-4.12595 -2.286,-6.287318 -0.16071,-0.816662 -0.72811,-1.4103 -1.42014,-1.813712 -2.05641,1.692361 -3.84061,3.68974 -5.9823,5.280428 -2.28271,1.980981 -4.68351,3.827491 -6.91375,5.870787 -2.27944,1.935062 -4.82782,3.525752 -7.327,5.152512 -2.72877,1.81699 -4.47033,4.99509 -4.59168,8.26502 -0.0754,1.88259 -0.5018,3.75861 -1.36438,5.44114 -0.68875,1.33814 -1.12496,2.7878 -1.30535,4.2801 -0.14759,1.37094 -0.77075,2.61069 -1.40046,3.81437 -1.19384,2.24008 -0.8429,4.93933 -2.02034,7.18597 -0.76747,1.48902 -1.49557,3.00755 -1.90883,4.63431 -0.5346,2.12857 -1.79403,3.95541 -2.59101,5.97574 -0.71827,1.81044 -1.94819,3.34865 -2.75173,5.11316 -0.87898,1.87275 -1.95802,3.64711 -3.19777,5.30011 -1.98754,2.55166 -3.33881,5.53297 -5.48706,7.96328 -1.98426,2.69269 -3.86029,5.49361 -6.28076,7.83209 -1.47589,1.3775 -2.89275,2.8534 -4.58511,3.96524 -1.17744,0.81666 -2.90588,0.39357 -3.65367,-0.80027 -1.52837,-2.33519 -2.39095,-5.0738 -2.77796,-7.82224 -0.21646,-3.08627 0.88226,-6.05446 1.58741,-9.01609 0.57396,-2.72221 2.06297,-5.12956 2.67629,-7.84193 0.55756,-2.65661 2.10233,-4.92621 3.06002,-7.43523 0.98722,-2.6107 3.34209,-4.3129 4.69991,-6.69729 1.11185,-1.95146 2.47951,-3.73894 3.54215,-5.71992 1.43326,-2.60414 3.4208,-4.87702 5.72648,-6.74976 1.4595,-1.11185 2.21057,-2.81733 3.26337,-4.2637 1.93834,-2.73861 4.59824,-4.8147 6.88424,-7.23845 1.49885,-1.55789 3.47983,-2.6435 4.66383,-4.50313 1.05936,-1.67596 2.02362,-3.46999 2.41719,-5.431291 0.38701,-2.158088 0.44277,-4.378492 1.09216,-6.487383 0.69531,-2.305678 1.84323,-4.470325 2.29912,-6.848158 0.0623,-0.84618 0.28534,-1.898986 -0.42965,-2.538541 -3.33553,-0.70843 -6.17909,1.974421 -9.48181,1.872748 -2.837,-0.127911 -5.52969,1.046246 -8.35685,1.00033 -2.98131,0.01312 -5.93639,0.452608 -8.90458,0.646114 -2.7714,-0.03936 -5.61168,0.209905 -8.30765,-0.57396 -1.19712,-0.27878 -1.88915,-1.505414 -1.90227,-2.669732 -0.20662,-1.921944 0.68219,-3.889806 -0.2263,-5.723196 -1.05609,0.05903 -2.16793,0.118071 -3.05019,0.757626 -1.19383,0.813383 -2.39423,1.623486 -3.66678,2.299118 -1.26599,0.669073 -2.16793,1.84323 -3.4372,2.495904 -1.19055,0.43949 -2.82716,-0.350935 -2.89603,-1.708759 0.0689,-2.226963 1.24303,-4.365373 0.75106,-6.615294 -0.27222,-0.623156 -0.92817,-0.924895 -1.56117,-0.669073 -2.80748,0.99049 -5.04756,3.027227 -7.56642,4.54248 -1.43654,0.878978 -2.89276,1.98754 -4.65728,1.961302 -1.67596,0.01968 -3.35192,0.0492 -5.02132,-0.02952 -1.102,-0.0656 -2.47951,-0.534602 -2.62382,-1.807153 -0.18694,-1.83995 0.97737,-3.765175 -0.0623,-5.516571 -1.22336,-0.0656 -2.23353,0.573959 -3.08627,1.377503 -1.08232,1.023288 -2.65333,0.652674 -3.99147,0.724829 -2.14497,-0.06888 -4.20795,0.675632 -6.34308,0.678912 -1.79403,0.02624 -3.48967,-1.013449 -5.29354,-0.623156 -1.51198,0.974091 -2.43359,2.607416 -3.84061,3.709418 -2.40407,1.912106 -5.36899,3.519193 -8.5438,3.122341 -1.35455,0.07215 -2.46311,-0.816663 -3.21418,-1.84979 -0.93473,-1.203675 -1.96786,-2.41063 -2.37127,-3.909485 -0.5018,-2.033457 0.5346,-4.096431 -0.0492,-6.126608 -0.5182,-0.06888 -1.02328,-0.173828 -1.53493,-0.173828 -1.08888,0.655954 -1.79731,1.823552 -2.98787,2.328636 -1.11512,0.485406 -2.19744,1.049526 -3.15841,1.797313 -0.96098,0.754347 -2.16465,1.029848 -3.29945,1.380783 -1.7678,0.518204 -3.23385,1.787474 -5.08364,2.059695 -2.51559,0.409971 -5.25091,1.088883 -7.67794,-0.03608 -2.19745,-0.915056 -3.26993,-3.545431 -2.80749,-5.801912 0.28862,-1.213514 0.14759,-2.472946 -0.40013,-3.591347 -1.16104,0.118072 -2.21384,0.623156 -3.21089,1.187277 -1.53493,0.878978 -3.3552,0.836341 -5.01805,1.308627 -1.39718,0.396852 -2.71565,1.016729 -4.12595,1.370944 -1.00033,0.291899 -2.19088,0.505084 -2.73204,1.508694 -1.35783,2.282719 -2.33192,4.795022 -3.93573,6.926872 -1.0692,1.429979 -2.48278,2.5451 -3.66678,3.866847 -1.39062,1.551331 -3.0961,2.905876 -5.10004,3.54871 -0.90194,0.305019 -1.87603,-0.147589 -2.51558,-0.774025 -0.71499,-0.869139 -0.9413,-2.010499 -1.2332,-3.069864 -0.49524,-2.092493 -1.17415,-4.211223 -0.91177,-6.38571 0.47884,-3.361763 1.4595,-6.716967 3.33224,-9.576926 0.5674,-0.905216 1.61365,-1.780914 2.74845,-1.344705 1.18728,0.629716 2.06297,1.728438 3.28633,2.312237 1.44638,0.695311 3.10922,0.692031 4.67367,0.531323 1.73828,-0.2919 2.70253,-1.938344 3.58151,-3.296168 2.16792,-3.194495 3.939,-6.631693 5.75271,-10.036093 1.51853,-2.453267 2.79764,-5.041005 4.24402,-7.53363 1.37095,-2.331915 2.58118,-4.778623 4.30962,-6.880955 -0.28206,-0.491965 -0.51164,-1.062645 -1.00689,-1.370943 -3.15186,-0.383733 -5.78551,1.728438 -8.70779,2.453267 -1.79731,0.27878 -3.62086,0.383733 -5.43129,0.514924 -2.23353,0.219744 -4.27682,1.206955 -6.42835,1.751396 -2.16465,0.57068 -4.39489,0.823222 -6.62513,0.924895 -4.30962,0.629716 -8.69467,-0.173828 -12.99445,0.537882 -0.89538,0.177108 -2.19088,-0.13775 -2.25976,-1.216794 -0.0689,-0.931454 -0.3247,-2.495904 0.97409,-2.646774 2.81404,-0.14103 5.63792,0.01312 8.45853,-0.03608 2.50574,-0.0656 5.0574,0.229584 7.51395,-0.42965 3.18137,-0.793704 6.26108,-2.217124 9.60316,-2.190886 2.3024,0.0656 4.50312,-0.714989 6.57594,-1.636604 2.04329,-0.915056 4.32273,-0.875699 6.48082,-1.344706 2.44999,-0.488685 4.71631,-1.639884 7.20237,-2.010498 2.6599,-0.390293 4.2637,-2.830441 5.71336,-4.847499 2.58118,-4.381771 6.58906,-7.599224 10.10169,-11.190571 2.82388,-2.777965 5.52313,-5.792072 9.00624,-7.769773 m 0.73467,3.433918 c -1.53821,1.174157 -3.05018,2.387672 -4.48672,3.68646 -2.49591,2.115451 -4.06363,5.11316 -6.60546,7.185974 -1.0692,0.872419 -2.38111,1.479176 -3.20761,2.613976 -0.74779,1.020008 -1.26927,2.181046 -1.7678,3.338805 1.10529,0.01312 2.26305,0.01312 3.26665,-0.537882 4.56872,-2.2696 8.81602,-5.211553 12.45985,-8.789781 2.32535,-1.748117 3.90292,-4.237462 6.05773,-6.172525 -0.11807,-0.71499 0.21975,-1.859629 -0.69859,-2.125291 -1.68252,-0.209905 -3.60447,-0.301738 -5.01805,0.800264 M 395.008,73.815518 c -1.21024,0.964252 -1.31519,2.679571 -1.32175,4.10955 0.0525,1.662843 -0.12791,3.335525 0.0558,4.991809 0.11807,0.99049 1.47589,1.495574 2.1876,0.767466 1.07905,-0.928175 1.73172,-2.233523 2.69925,-3.26993 0.80355,-0.957692 1.88259,-1.682521 2.53854,-2.764845 0.20663,-0.951133 0.25583,-2.164648 -0.59363,-2.830441 -1.00033,-0.787144 -2.32208,-0.944573 -3.52904,-1.190556 -0.67563,-0.06887 -1.46605,-0.291899 -2.03673,0.186947 m 156.60569,3.69302 c 0.29846,0.590358 0.61331,1.174157 0.94129,1.757956 1.21024,-0.121352 2.11873,-0.911776 2.71565,-1.928504 -0.36733,-0.364055 -0.72811,-0.728109 -1.07904,-1.088884 -0.90522,0.327977 -1.7842,0.72155 -2.5779,1.259432 m 40.15093,3.112501 c -3.10594,1.161038 -6.07413,2.653333 -8.76354,4.598236 -0.48541,0.931454 0.43621,1.712039 1.01345,2.328636 0.97737,0.918335 2.14168,2.12201 3.62742,1.679241 1.58085,-0.833061 2.46639,-2.472945 3.68646,-3.715978 0.73139,-0.84946 1.72188,-1.567729 2.08265,-2.669732 0.0459,-0.695311 0.25911,-1.610366 -0.31485,-2.138409 -0.34766,-0.534603 -0.88554,-0.2919 -1.33159,-0.08199 m -44.22113,33.220777 c -0.95769,0.69203 -1.65628,1.66284 -2.40079,2.56478 -2.22368,2.68941 -4.1817,5.61824 -6.78256,7.9764 -1.84323,1.62676 -2.84356,3.91604 -4.29978,5.84782 -2.19744,2.89276 -3.68646,6.2578 -6.11349,8.98001 -1.9449,2.15809 -2.51886,5.06397 -3.94556,7.52379 -0.7937,1.39718 -1.02985,3.00099 -1.40046,4.5392 -0.40341,1.81043 -1.76451,3.22074 -2.16137,5.02789 -0.50508,2.26632 -0.43949,4.60151 -0.70515,6.89735 0.10824,1.87275 0.082,3.81109 0.73467,5.59857 0.8101,-0.14103 1.69236,-0.34766 2.19417,-1.07249 1.75467,-2.20072 3.16825,-4.65727 5.0738,-6.73992 1.72188,-1.84651 2.71237,-4.22106 4.39161,-6.10037 0.80354,-0.94458 1.67924,-1.83339 2.38439,-2.85996 0.80027,-1.20368 1.34143,-2.56478 2.14169,-3.77501 1.25943,-1.89571 2.09577,-4.021 3.13546,-6.03806 0.90522,-1.82027 1.22007,-3.87669 2.21712,-5.6576 0.70187,-1.24959 1.25288,-2.58118 1.64973,-3.96196 0.5838,-2.12201 2.19088,-3.89637 2.23352,-6.17253 0.0984,-2.32863 1.42014,-4.30961 2.14169,-6.46114 0.66579,-2.0269 1.61037,-4.0374 1.53821,-6.22172 C 548.89804,113.65487 548.11745,113.33673 547.54349,113.84182 Z"
     id="path3291"
     style="fill:#0c0c0c" />
  <path
     d="m 177.00175,29.692785 c 1.31191,-0.439489 2.66317,-0.757626 4.01772,-1.020008 1.58741,-0.337816 3.17482,0.623156 4.08987,1.869469 0.82978,1.056085 0.69531,2.469666 0.67891,3.729097 -0.0197,1.879308 -1.46933,3.279769 -2.11545,4.955731 -0.90849,2.394231 -2.27616,4.565438 -3.39784,6.857997 -1.60381,2.777964 -3.46671,5.411619 -5.63136,7.782892 -1.63005,2.177766 -3.46672,4.178425 -5.45098,6.034775 -1.86619,1.738277 -3.58807,3.630704 -5.55593,5.260749 -1.47917,1.229914 -3.04362,2.436869 -4.07347,4.096432 -0.62972,1.029847 -1.19712,2.099052 -1.79731,3.148578 -1.04625,1.784194 -1.20696,3.909485 -2.10233,5.759274 -1.04625,2.112172 -1.41359,4.506403 -2.67958,6.516901 -0.8593,1.357825 -1.30206,2.909155 -1.87602,4.394891 -0.62644,1.643164 -2.17121,2.666452 -2.98131,4.194824 -0.30174,0.833062 0.059,1.725159 0.2263,2.551661 1.19712,0.02624 2.43031,0.0492 3.55527,-0.42637 1.42998,-0.590359 2.95179,-0.869139 4.48016,-1.079044 1.78748,-0.203346 3.1289,-1.505414 4.71959,-2.207285 2.0269,-0.885538 3.82093,-2.217124 5.49033,-3.650383 2.47951,-2.377832 4.45393,-5.211553 6.42507,-8.009196 1.74484,-2.377832 3.82749,-4.476884 5.68712,-6.762883 1.53493,-1.84651 3.31257,-3.489675 4.65071,-5.493613 1.22664,-1.807153 2.80421,-3.335526 4.01116,-5.155797 0.89866,-1.387343 2.05642,-2.571339 3.31585,-3.630705 -0.12135,-1.056085 0.36405,-2.538541 -0.73467,-3.191215 -1.69236,-0.898657 -3.70614,-0.724829 -5.46738,-1.41686 -0.92161,-0.43293 -1.78419,-1.616926 -1.16103,-2.620535 0.29846,-0.86586 1.26271,-1.308628 2.13185,-1.079044 2.06297,0.436209 4.07675,1.216794 5.81831,2.427029 0.51164,0.262381 1.0528,0.774025 1.67268,0.551001 1.58413,-0.524763 2.68285,-1.876028 3.55199,-3.230573 1.56773,-2.430309 3.6307,-4.483444 5.24763,-6.874396 1.74156,-2.315516 3.13218,-5.185314 5.91014,-6.434906 0.56084,-0.449329 1.04297,0.13447 1.41358,0.534602 0.44605,0.554281 0.82651,1.328306 0.51821,2.040016 -0.75435,1.794034 -2.39751,2.955072 -3.58479,4.437528 -1.42342,1.590688 -2.20401,3.637264 -3.6635,5.198434 -1.14464,1.265991 -2.46967,2.453267 -3.01083,4.125949 0.82322,0.380453 1.7022,0.692031 2.62709,0.639555 5.91671,-0.07215 11.83341,-0.02296 17.75011,-0.03608 1.77108,0.04264 3.4536,-0.669073 5.22468,-0.655954 0.89209,-0.03608 1.81699,0.04264 2.67957,-0.259102 1.50213,-0.469007 2.89931,-1.387342 4.5228,-1.390622 2.29584,-0.07215 4.60807,0.127911 6.89407,-0.223024 2.36472,-0.118072 4.74255,-0.177108 7.0843,-0.580519 1.33159,-0.28534 2.48279,-1.075765 3.7947,-1.433259 1.21023,-0.334537 2.41719,0.636275 2.72221,1.780914 -0.25583,1.1348 -0.99705,2.204005 -2.09906,2.653333 -1.73827,0.724829 -3.66022,0.295179 -5.47721,0.505085 -2.36799,0.321417 -4.76551,0.27222 -7.12366,0.682192 -2.49918,0.501804 -5.10988,-0.127911 -7.56315,0.675632 -2.19416,0.682192 -4.38177,1.587408 -6.72352,1.528372 -8.53396,0.01312 -17.06792,0.06232 -25.5986,-0.01968 -0.67235,-0.04264 -1.31847,0.200066 -1.78747,0.678912 -1.70548,1.600527 -3.07643,3.509353 -4.45065,5.38866 -1.17416,1.672683 -2.48935,3.250251 -3.46672,5.050845 -0.98721,1.830111 -2.32207,3.558549 -2.53854,5.693679 -0.25254,2.472945 -1.60708,4.644153 -1.98098,7.081021 -0.0525,1.853069 -0.18694,3.6963 -0.5182,5.523131 -0.41653,1.813712 0.91833,3.591347 2.56478,4.234182 2.67629,1.042966 5.74943,0.344375 8.17646,-1.039687 1.4923,-0.84618 3.31257,-1.410301 4.22106,-2.98131 0.83635,-1.429979 1.65629,-2.896036 2.88948,-4.027556 3.15186,-2.99443 6.10037,-6.270919 9.81963,-8.583156 2.33847,-1.613646 5.35586,-1.84651 8.09447,-1.475896 1.7022,1.390622 1.42014,4.125949 -0.13119,5.526411 -1.95802,2.315517 -3.73238,4.781903 -5.71992,7.074462 -0.61004,0.754346 -1.32831,1.584128 -1.26599,2.623815 -0.12135,1.197115 0.62316,2.463106 1.84979,2.715648 0.86258,-0.160708 1.60381,-0.672352 2.39423,-1.029847 1.09872,-0.560841 2.32208,-0.790424 3.46344,-1.243032 1.31519,-0.531323 2.30568,-1.643165 3.65366,-2.108892 1.24303,-0.439489 2.55494,-0.685472 3.75206,-1.259431 1.39718,-0.652674 2.77468,-1.498855 4.35881,-1.574289 1.15448,-0.05248 2.32536,-0.131191 3.46999,0.0656 1.22664,0.665793 1.89899,2.427029 3.48968,2.2696 1.04297,0.09839 1.89899,-0.56412 2.71237,-1.115121 1.35782,-0.974092 2.92227,-1.620206 4.25714,-2.633655 1.38078,-1.062645 3.06002,-1.853069 4.82782,-1.853069 1.92194,0.439489 2.00722,3.26337 0.66907,4.388331 -0.70843,0.882258 -2.06625,1.630045 -1.77435,2.945232 0.0787,0.665793 0.64283,1.1348 1.30534,1.164318 1.83995,0.272221 3.5028,-0.71171 5.12628,-1.41686 2.08266,-0.970812 4.51297,-1.062645 6.41523,-2.430309 1.64317,-1.177437 3.73238,-1.574289 5.23451,-2.964911 1.60709,-1.4267 3.83733,-1.931784 5.29355,-3.558549 2.74189,-2.909155 4.69335,-6.444746 7.15318,-9.576926 2.70581,-3.010828 4.71958,-6.585776 7.64186,-9.409657 2.07609,-2.299118 4.27354,-4.493284 6.16596,-6.95311 0.96754,-1.213515 2.08594,-2.292559 3.1125,-3.453597 1.4595,-1.630045 3.30273,-2.84028 5.03773,-4.148908 1.3447,-0.983931 2.98459,-1.790754 4.69335,-1.630045 0.94129,0.236143 1.80387,0.724829 2.63037,1.229913 -0.0984,0.99377 -0.36077,1.99082 -1.02656,2.764846 -1.53166,1.918664 -2.78781,4.030836 -4.08988,6.10365 -1.6366,2.177766 -3.29288,4.342414 -5.01476,6.451305 -1.51854,1.859629 -3.30929,3.473276 -4.89342,5.270589 -2.74189,3.194495 -5.99542,5.929822 -9.50477,8.245339 -3.30929,2.41391 -6.55298,5.093482 -8.69139,8.642192 -0.60675,1.144639 -0.33781,2.492624 -0.41325,3.735657 -0.007,1.170877 -0.16071,2.761565 1.15448,3.325685 1.41686,0.311578 2.87308,0.0033 4.2965,-0.13119 0.98065,-0.104953 1.97442,-0.0328 2.94851,-0.219745 1.28567,-0.262382 2.37127,-1.095443 3.22729,-2.059695 1.32831,-1.469336 1.44966,-3.617585 2.76157,-5.103321 1.26927,-1.462776 2.5451,-2.922274 3.79469,-4.408009 2.25648,-2.577898 5.43786,-4.211223 8.74059,-4.995088 0.52804,-0.09183 1.19711,-0.134471 1.53493,0.380453 1.18399,1.226634 0.90521,3.158418 0.0885,4.506403 -2.28928,3.96524 -4.76222,8.166624 -8.84882,10.514939 -1.27911,0.964252 -2.81732,1.410301 -4.27353,1.997379 -1.42014,0.478847 -1.34799,2.945233 0.1935,3.204335 1.94819,0.2755 3.74878,-0.695311 5.61497,-1.065925 1.77107,-0.43621 3.64382,0.04264 5.40506,-0.478847 1.54477,-0.400131 2.89603,-1.285669 4.38833,-1.826831 1.76123,-0.652674 3.73237,-0.390292 5.45753,-1.177437 1.96786,-0.888817 3.7291,-2.158088 5.58217,-3.246971 0.6166,-0.387013 1.41358,-0.5674 2.10233,-0.265662 0.78387,0.646115 1.4923,1.879308 0.80027,2.833721 -0.45917,1.121681 -1.68909,1.974421 -1.64973,3.25681 1.63661,1.200396 4.02756,0.895377 5.60185,-0.285339 1.63332,-1.167598 3.71925,-1.580849 5.16891,-3.017388 1.13152,-1.029847 2.24664,-2.308957 3.83733,-2.564779 1.32175,0.08527 2.83044,1.282389 2.43359,2.745166 -0.93473,1.682522 -2.50246,2.896036 -3.59463,4.470326 -1.22991,1.462776 -1.52837,3.414239 -2.52214,5.011487 -1.83995,2.961633 -3.25681,6.179083 -4.32601,9.494933 -0.6002,1.82355 -1.73828,3.43392 -2.15809,5.32634 -0.33126,1.43982 -0.68547,2.89276 -1.38734,4.20467 -0.72155,1.3775 -1.10529,2.88947 -1.57757,4.36209 -0.56412,1.79731 -1.92523,3.23385 -2.3516,5.08036 -0.29518,1.30207 -0.35421,2.63366 -0.45261,3.95868 -0.0951,1.1676 -0.86585,2.10889 -1.39718,3.10594 -1.04952,1.78748 -0.92817,3.96196 -1.74811,5.83471 -0.69859,1.59069 -1.35455,3.2109 -1.59725,4.94261 -0.49197,3.35521 -2.03018,6.42179 -2.74189,9.72124 -0.28534,1.38734 -1.01673,2.60414 -1.76779,3.78157 -0.96098,1.45294 -0.96426,3.24698 -1.42014,4.87702 -0.21647,1.16104 -1.77108,1.78419 -2.77797,1.23319 -0.98721,-0.40013 -1.30207,-1.51197 -1.74483,-2.37455 -0.50181,-1.22991 -1.26272,-2.32864 -2.17449,-3.28305 -1.02001,-1.06264 -1.85635,-2.31224 -3.04691,-3.19449 -0.67891,-0.56084 -1.60052,-0.41981 -2.41063,-0.48213 -0.5838,1.02001 -1.14792,2.05642 -1.75795,3.06003 -0.92162,-0.0722 -1.9941,0.11479 -2.73533,-0.55757 -0.70187,-0.58707 -1.20696,-1.64644 -0.633,-2.48934 1.14464,-1.93178 2.96819,-3.61103 5.21484,-4.09315 1.61036,-0.38373 3.36176,0.23286 4.51296,1.39718 1.35782,1.38406 2.46966,2.98131 3.64382,4.51952 0.70187,-0.19678 1.63333,-0.18367 2.05314,-0.8921 1.81699,-3.04034 1.56445,-6.79896 3.19121,-9.91474 0.79043,-1.54149 1.05937,-3.26665 1.28895,-4.96229 0.32142,-2.44671 1.56773,-4.61463 2.25976,-6.95311 0.60676,-2.05313 1.35127,-4.06363 2.05642,-6.08397 0.77074,-2.17121 0.73467,-4.59824 1.9285,-6.61529 0.76419,-1.29223 1.4431,-2.6435 1.8006,-4.10955 0.54444,-2.24009 1.90554,-4.18171 2.36471,-6.45131 0.31486,-1.50869 0.8757,-2.94851 1.653,-4.27682 0.76419,-1.29223 1.03641,-2.77796 1.42014,-4.21122 0.36734,-1.502136 1.55461,-2.564781 2.37128,-3.817653 0.55756,-0.767466 0.42309,-1.761236 0.49196,-2.653333 -1.89899,-0.501805 -3.79797,0.206625 -5.7068,0.150869 -1.27583,-0.0328 -2.62381,0.09183 -3.81109,-0.459168 -1.3447,-0.737948 -2.08593,-2.640214 -3.82093,-2.531981 -2.67629,-0.09839 -4.63759,2.105611 -7.18597,2.515583 -2.39096,0.380453 -4.77207,0.826501 -7.11054,1.446378 -2.11217,0.478846 -4.14891,1.452937 -6.35292,1.338145 -2.06953,0.02624 -4.43752,-0.649394 -5.49361,-2.577898 -0.60348,-0.842901 -1.02001,-2.049856 -2.09249,-2.371273 -2.40079,0.186947 -4.48017,1.715319 -6.87768,1.935064 -1.67924,-0.226304 -3.13218,-1.239753 -4.42769,-2.2696 -0.87241,-0.672353 -1.5874,-1.630046 -1.58412,-2.774685 -0.16399,-1.203675 0.32141,-2.882917 -1.01017,-3.568389 -0.59036,-0.501804 -1.33159,-0.05904 -1.91867,0.186947 -2.24008,1.124961 -4.16858,2.850119 -6.59561,3.594627 -1.50542,0.452608 -2.89604,1.180717 -4.25058,1.961302 -1.65629,1.006889 -3.65367,0.403411 -5.46082,0.774025 -1.91866,0.193507 -4.05707,1.079044 -5.84783,-0.0328 -1.4103,-0.783865 -1.70548,-2.492625 -2.21712,-3.876687 -2.33192,0.150869 -4.20466,1.672682 -6.11021,2.856679 -1.38734,0.826501 -2.01378,2.423749 -3.26993,3.388001 -1.02985,0.337816 -2.23024,0.118072 -2.99443,-0.672353 -0.39029,-1.721878 0.89538,-3.322406 0.55756,-5.047564 -0.47229,-0.931455 -1.63332,-0.878978 -2.47622,-0.57396 -1.28239,0.478846 -2.54183,1.016729 -3.85373,1.400462 -1.65957,0.442768 -2.87308,1.744837 -4.42441,2.41063 -2.11545,0.908496 -4.11611,2.217124 -6.46443,2.427029 -2.74516,0.577239 -5.50017,-0.600198 -8.23878,-0.06232 -1.74811,0.619877 -2.63037,2.505744 -4.35553,3.201055 -1.86619,0.770745 -3.4536,2.951788 -5.674,2.151528 -1.88587,-1.000329 -2.5943,-3.197775 -3.82421,-4.81798 -3.08626,-0.190227 -6.28076,1.102002 -9.25879,-0.186947 -2.11217,-0.678912 -3.6307,-2.663173 -3.84389,-4.850779 -0.29846,-3.702859 0.86258,-7.336843 0.64284,-11.039702 -0.41653,-0.200066 -0.8593,-0.324697 -1.31519,-0.367334 -1.93834,2.863238 -4.16859,5.510012 -6.21844,8.291256 -1.81371,2.322076 -3.88981,4.463765 -6.2742,6.202043 -1.76124,1.374223 -3.77173,2.361434 -5.67728,3.512633 -1.16104,0.714989 -2.5287,0.915055 -3.84389,1.161038 -2.25648,0.350935 -3.96852,2.328632 -6.34307,2.223682 -1.87603,-0.0459 -3.99804,0.41653 -5.60513,-0.819941 -2.20728,-1.590688 -4.93933,-2.633655 -6.44146,-5.027886 -0.81339,-1.475896 -1.19384,-3.142019 -1.88915,-4.670391 -1.15776,0.05904 -2.50574,-0.291899 -3.46672,0.537882 -1.04296,0.826502 -1.9941,1.767796 -3.1125,2.495904 -2.28272,1.511974 -4.39161,3.279769 -6.74976,4.673671 -2.10889,1.13808 -3.9718,2.669732 -6.06757,3.830771 -3.25354,2.25976 -6.73993,4.14234 -10.06234,6.29387 -1.45293,0.8593 -3.25681,0.90194 -4.62775,1.92851 -0.93145,0.57724 -1.89899,1.61036 -3.099382,1.1676 -1.892426,-0.78387 -1.439818,-3.58151 0.04264,-4.5556 1.561172,-0.94786 3.548712,-0.27222 5.136112,-1.16432 1.22992,-0.68875 2.2532,-1.6858 3.47656,-2.39095 2.23352,-1.41686 4.75566,-2.3352 6.88751,-3.916045 1.40374,-1.046246 3.06003,-1.692361 4.42769,-2.784524 1.76124,-1.331586 3.26993,-3.069864 5.37882,-3.876687 1.99738,-0.777305 3.56511,-2.27288 5.26075,-3.532311 2.31224,-1.748117 4.67695,-3.420799 7.01871,-5.129559 4.21778,-3.414239 8.09775,-7.218771 12.36145,-10.580534 2.69269,-2.181047 5.674,-4.230902 7.41228,-7.323725 0.95441,-1.754676 2.15152,-3.473275 2.35487,-5.516571 0.15743,-1.502134 0.57068,-2.971471 1.29879,-4.296497 1.08888,-1.99738 1.42014,-4.312897 2.60085,-6.267639 1.09873,-1.813712 1.71204,-3.870127 2.81733,-5.68056 0.87241,-1.459497 1.4267,-3.092822 2.41063,-4.486724 1.41686,-1.958022 2.74188,-3.998038 4.41785,-5.752715 1.28566,-1.334866 2.49918,-2.909155 4.30633,-3.538871 m -0.8757,5.332905 c -1.57757,2.076094 -3.12562,4.184985 -4.38833,6.474264 -1.15776,1.800593 -1.74483,3.883246 -2.76812,5.752715 -1.02329,1.830111 -1.63661,3.886526 -2.96819,5.53625 -1.24632,1.55789 -2.0761,3.643823 -1.23976,5.598565 1.33815,-0.505084 2.56806,-1.318467 3.32897,-2.558219 1.93834,-2.837001 4.39817,-5.277149 6.24796,-8.179744 0.92161,-1.485736 1.97114,-2.896036 2.78452,-4.447367 1.33159,-2.804203 3.30929,-5.283708 4.16531,-8.310935 -1.22991,-1.610366 -4.04395,-1.593967 -5.16236,0.134471 M 297.6251,53.20217 c -0.50509,0.495245 -0.86914,1.098722 -1.28239,1.662843 -1.05609,1.544771 -2.58446,2.669732 -3.79142,4.080032 -1.34142,1.495575 -2.15152,3.355204 -2.99771,5.152517 0.9085,-0.728108 1.93179,-1.308628 2.78453,-2.108891 1.52509,-1.321747 2.70253,-2.97803 3.88325,-4.604796 1.08232,-1.502134 2.97803,-2.55494 3.11578,-4.588397 -0.57724,0.08855 -1.25616,-0.01968 -1.71204,0.406692 M 142.28212,83.503955 c -0.70187,0.675633 -1.27255,1.469337 -1.82355,2.27288 0.42309,1.407021 0.67235,2.866518 1.18399,4.247301 0.28862,0.826502 0.98393,1.70548 1.96458,1.56445 0.99705,0.154149 1.4923,-0.882258 1.92195,-1.590688 1.02985,-2.049856 2.34503,-3.958681 3.10922,-6.136448 0.70843,-2.11873 2.66317,-3.650383 2.98787,-5.913423 -0.023,-0.947853 -0.97409,-1.311908 -1.69236,-1.659563 -2.21713,2.738607 -5.04757,4.870457 -7.6517,7.215491 m 67.92729,-3.948841 c -1.27583,1.206955 -2.48278,2.482785 -3.73237,3.719258 0.62643,0.311578 1.26927,0.603477 1.9285,0.84618 0.94785,-1.187276 2.20073,-2.049856 3.32897,-3.043626 0.59691,-0.462447 0.62315,-1.262711 0.75762,-1.941623 -0.77402,0.0066 -1.71204,-0.2755 -2.28272,0.419811 m 83.41765,2.761565 c 0.007,0.596918 0.0164,1.197116 0.0295,1.797313 0.69859,-0.12791 1.50541,-0.114791 2.04985,-0.652674 1.1676,-1.141359 2.2532,-2.54838 2.33848,-4.244021 -1.7842,0.518204 -3.14202,1.820272 -4.41785,3.099382 m -90.49211,7.504112 c -1.43654,0.878978 -2.87308,1.771075 -4.25714,2.728767 -0.87242,0.488686 -0.96097,1.908826 -0.0426,2.387672 0.93802,0.619877 1.93179,-0.196786 2.62382,-0.803543 1.31847,-1.265991 2.80748,-2.354874 4.02756,-3.722538 C 204.77156,90.060214 203.94505,89.230432 203.13495,89.820791 Z"
     id="path3293"
     style="fill:#0c0c0c" />
  <path
     d="m 492.3581,49.886323 c 1.30535,-0.327977 2.87636,0.728109 2.69597,2.154808 -0.12791,1.639885 -0.75107,3.214174 -1.42014,4.703189 -0.59692,1.597248 -3.56839,1.475896 -3.85373,-0.259102 0.0787,-1.55133 0.76419,-2.997708 1.102,-4.503122 C 491.15115,51.201511 491.33809,49.971597 492.3581,49.886323 Z"
     id="path3295"
     style="fill:#0c0c0c" />
  <path
     d="m 465.79853,51.762351 c 0.76091,-0.373894 1.66284,-0.27878 2.49263,-0.206625 1.72187,0.28206 2.07609,2.896036 0.73138,3.840609 -0.75434,0.593638 -1.79731,0.449328 -2.68285,0.373894 C 464.41119,55.580002 464.21768,52.526537 465.79853,51.762351 Z"
     id="path3297"
     style="fill:#0c0c0c" />
  <path
     d="m 77.575555,101.98545 c -0.970812,-1.49885 -0.249263,-4.122666 1.744837,-4.214499 1.41686,0.429649 2.515583,1.603807 3.201055,2.882919 0.593638,1.11512 0.173827,2.39095 -0.341096,3.44376 C 80.422394,104.17306 78.516849,103.57286 77.575555,101.98545 Z"
     id="path3299"
     style="fill:#0c0c0c" />
</svg>
