<?xml version="1.0" encoding="UTF-8"?>
<svg version="1.0" xmlns="http://www.w3.org/2000/svg" width="153" height="65" >
<path fill="#231F20" d="M19.315,4.21c-6.227,2.783-12.988,6.16-17.65,11.24c-2.952,3.215-1.693,5.594,1.535,7.784 c3.246,2.202,6.993,4.815,10.89,5.713c0.463,0.107,2.139-0.722,1.372-0.948c-8.579-2.527-19.26,6.44-13.514,15.315 c1.98,3.059,5.802,0.415,7.026-1.676c2.224-3.797,2.549-10.817-1.136-13.809c-0.506-0.411-2.286,0.341-1.799,0.736 c3.844,3.12,2.967,9.958,0.721,13.794c-2.083,3.556-3.784-1.339-3.993-2.192c-0.443-1.802,0.005-3.741,0.475-5.485 c1.221-4.538,6.255-7.088,10.674-5.786c0.457-0.316,0.915-0.632,1.372-0.948c-2.714-0.625-5.329-2.379-7.674-3.782 c-4.691-2.805-7.833-5.104-3.255-9.65c4.247-4.217,10.279-7.157,15.703-9.581C21.294,4.383,20.153,3.835,19.315,4.21L19.315,4.21 M14.392,43.907c1.417-3.201,2.566-6.503,3.5-9.875c-0.64,0.142-1.28,0.283-1.92,0.424 c0.115,1.411,0.156,9.525,1.76,9.576c0.438,0.014,1.352-0.116,1.577-0.572c1.434-2.908,1.618-7.295,2.286-10.455 c0.993-4.689,2.029-9.503,2.059-14.317c-0.644,0.172-1.288,0.345-1.932,0.518c0.283,4.303,0.598,8.604,0.941,12.902 c0.222,2.771,0.462,5.54,0.758,8.304c0.099,0.928-0.016,3.15,0.713,3.877c0.331,0.329,1.352-0.098,1.652-0.293 c0.672-0.438,0.611-1.935,0.762-2.62c0.552-2.517,1.275-5,2.058-7.454c0.321-1.008,0.691-1.996,1.109-2.967 c0.389-0.905-0.783-0.277-0.744,1c0.104,3.416-0.336,7.891,1.055,11.109c0.159,0.368,1.066,0.059,1.305-0.022 c1.566-0.529,1.186-3.801,1.415-4.83c0.577-2.6,1.857-5.14,2.547-7.714c-0.64,0.141-1.28,0.283-1.92,0.424 c1.37,2.03,0.281,13.074,2.967,13.442c0.488,0.066,1.278-0.164,1.577-0.572c0.733-1.002,0.624-3.205,0.856-4.385 c0.531-2.695,1.355-5.49,2.742-7.875c0.161-0.277-1.622-0.161-1.908,0.331c-1.117,1.92-1.731,4.019-2.329,6.147 c-0.466,1.66-0.271,4.748-1.27,6.112c0.526-0.19,1.051-0.382,1.577-0.572c-1.322-0.181-1.185-11.52-2.281-13.145 c-0.272-0.403-1.799-0.028-1.92,0.424c-0.397,1.48-0.575,2.769-1.196,4.188c-0.14,0.32-2.408,7.848-1.537,7.553 c0.435-0.008,0.87-0.016,1.305-0.022c-1.608-3.723-0.65-8.46-1.143-12.379c-0.12-0.955-1.396-0.531-1.945-0.265 c-1.527,0.741-2.017,3.863-2.463,5.261c-0.428,1.343-1.417,8.3-2.106,8.749c0.55-0.098,1.101-0.195,1.652-0.293 c-0.72-0.717-0.576-3.508-0.674-4.425c-0.303-2.833-0.529-5.676-0.756-8.517c-0.319-3.994-0.605-7.992-0.869-11.99 c-0.025-0.386-1.928-0.027-1.932,0.518c-0.03,4.756-1.076,9.49-2.035,14.13C19.034,36.489,18.83,40.89,17.4,43.79 c0.525-0.19,1.051-0.382,1.577-0.572c-0.362-0.012-0.99-8.246-1.074-9.279c-0.035-0.425-1.811,0.032-1.92,0.424 c-0.934,3.372-2.083,6.674-3.5,9.875C12.33,44.586,14.168,44.412,14.392,43.907L14.392,43.907 M44.229,44.544c0.103-0.102,0.21-0.198,0.318-0.294c0.074-0.065,0.114-0.094,0.222-0.173 c0.055-0.039,0.11-0.077,0.167-0.112c-0.186,0.12-0.55,0.099-0.699,0.07c0.476,0.089,1.015-0.007,1.366-0.366 c0.279-0.285,0.217-0.729-0.217-0.81c-1.088-0.204-2.011,0.517-2.741,1.241c-0.306,0.304-0.191,0.695,0.217,0.81 C43.322,45.039,43.893,44.878,44.229,44.544L44.229,44.544 M50.553,33.123c1.042,1.48,1.029,3.816,1.222,5.541c0.135,1.209,0.087,4.301,1.507,4.886 c1.821,0.75,2.812-1.784,3.198-3.042c0.327-1.063,0.362-2.194,0.275-3.296c-0.056-0.71-0.735-3.252,0.347-3.431 c1.052-0.174,1.479-1.632,0.171-1.416c-1.469,0.243-2.581,0.875-2.686,2.476c-0.068,1.041,0.195,2.123,0.246,3.161 c0.072,1.47-0.275,2.856-0.976,4.145c0.21,0.02,0.421,0.04,0.632,0.061c-0.088-0.182-0.158-0.37-0.21-0.564 c-0.146-0.457-0.217-0.941-0.298-1.413c-0.187-1.089-0.285-2.195-0.408-3.293c-0.167-1.493-0.348-3.382-1.25-4.664 C51.815,31.553,49.975,32.302,50.553,33.123L50.553,33.123 M61.589,44.736c-0.15,0.14-0.582,0.125-0.116,0.241c0.443,0.11,1.031-0.064,1.366-0.366 c0.313-0.281,0.205-0.597-0.187-0.694c-0.843-0.21-1.946-0.135-2.616,0.491c-0.296,0.276-0.22,0.608,0.187,0.694 C60.669,45.197,61.252,45.051,61.589,44.736L61.589,44.736 M67.771,6.236c-3.325,4.959,1.427,5.219,4.945,3.883c6.775-2.572,13.068-6.381,19.886-8.809 c1.136-0.404,0.838-1.642-0.328-1.227c-4.201,1.496-8.198,3.62-12.241,5.488c-2.435,1.125-4.885,2.219-7.378,3.21 c-2.459,0.978-5.402,1.134-3.05-2.374C70.174,5.558,68.204,5.59,67.771,6.236L67.771,6.236 M69.972,24.206c0.33,4.466,0.599,8.988,0.344,13.463c-0.034,0.577-0.107,1.148-0.219,1.716 c-0.268,0.579-0.094,0.586,0.522,0.021c-2.19-1.026-2.29-4.779-2.34-6.718c-0.063-2.473,0.476-5.073,0.811-7.512 c0.42-3.066,0.929-6.128,1.654-9.138c0.218-0.906,0.481-1.811,0.912-2.64c-0.99,0.022-1.301,0.333-0.934,0.932 c0.565,1.633,0.838,3.42,1.194,5.106c0.415,1.966,0.71,4.045,1.95,5.678c0.7,0.922,1.662,1.27,2.273,2.515 c1.763,3.592,2.461,8.717,1.597,12.617c-0.089,0.401,1.763,0.092,1.902-0.351c0.545-1.733,1.177-3.438,1.896-5.106 c0.449-1.042,1.043-1.706,0.715-2.147c0.987,1.328,0.589,4.323,0.597,5.813c0.001,0.287,1.935,0.013,1.932-0.518 c-0.011-2.27,0.5-8-3.235-5.782c-2.178,1.293-3.098,5.836-3.807,8.091c0.634-0.117,1.268-0.234,1.902-0.351 c0.995-4.488,0.087-10.38-2.397-14.276c-0.249-0.39-0.512-0.54-0.893-0.747c-1.571-0.854-1.796-2.876-2.173-4.425 c-0.43-1.763-0.458-6.195-1.882-7.411c-3.303-2.819-4.677,9.597-4.847,10.681c-0.428,2.722-3.125,19.589,3.732,16.447 c1.717-0.787,1.153-4.963,1.157-6.358c0.009-3.373-0.184-6.757-0.432-10.12C71.879,23.364,69.935,23.702,69.972,24.206 L69.972,24.206 M88.587,30.03c0.001,3.08-0.809,7.5,0.221,10.415c0.25,0.709,1.667,0.464,1.884-0.166 c1.969-5.704,4.064-11.454,5.097-17.415c-0.65,0.055-1.301,0.111-1.951,0.166c0.098,2.743,0.235,5.484,0.402,8.223 c0.086,1.409-0.311,6.435,1.134,7.324c0.492,0.303,1.164,0.094,1.551-0.28c0.411-0.397,0.486-1.172,0.609-1.664 c0.152-0.727,0.285-1.458,0.397-2.192c0.055-0.35,0.109-0.699,0.164-1.048c0.477-1.03,0.055-1.399-1.267-1.108 c0.479,1.759-0.338,7.62,1.603,8.532c0.595,0.279,1.294,0.096,1.668-0.447c2.972-4.315,1.949-11.346,3.192-16.267 c-0.65,0.056-1.302,0.111-1.952,0.167c0.131,2.637,0.219,5.275,0.368,7.911c0.09,1.591-0.335,5.732,0.88,6.998 c0.386,0.402,1.104,0.307,1.52-0.006c1.892-1.428,6.173-13.379,4.563-15.299c-0.435-0.517-1.803-0.237-1.863,0.5 c-0.236,2.91-0.02,5.921,0.039,8.835c0.031,1.522-0.552,5.969,0.578,7.251c0.359,0.409,1.129,0.307,1.519-0.006 c1.554-1.247,3.4-6.658,3.478-8.746c-0.647,0.114-1.294,0.228-1.941,0.342c0.426,1.587-0.365,8.212,1.542,8.714 c0.518,0.136,1.211-0.029,1.482-0.533c1.396-2.592,3.442-4.97,4.421-7.759c-0.494,0.178-0.988,0.356-1.482,0.534 c0.278,0.068-1.32,7.396,0.096,8.403c0.459,0.326,1.445,0.087,1.668-0.447c1.098-2.637,2.807-2.483,4.406-4.327 c2.879-3.317,3.637-9.006,3.803-13.148c0.039-0.972-1.897-0.659-1.951,0.166c-0.727,10.973-1.547,22-3.162,32.881 c-0.315,2.128-0.586,4.42-1.405,6.426c-0.123,0.302,0.902,0.192-0.123-0.455c-0.719-0.454-1.399-0.955-2.078-1.465 c-2.231-1.677-4.084-3.938-4.165-6.842c-0.09-3.238,3.702-5.784,5.772-7.73c2.529-2.379,4.947-4.875,7.299-7.428 c1.408-1.528,5.266-4.886,5.184-7.323c-0.033-1.004-1.779-0.62-1.951,0.167c-0.383,1.742-1.222,8.662,0.355,9.853 c0.448,0.34,1.201,0.071,1.551-0.279c1.785-1.794,2.712-5.081,4.032-7.251c1.278-2.101-0.606,0.179-0.653,1.109 c-0.056,1.104-0.1,2.207-0.133,3.312c-0.024,0.822-0.179,1.993,0.283,2.736c0.328,0.527,1.378,0.224,1.688-0.156 c0.533-0.651,0.7-1.563,0.963-2.341c0.206-0.611,1.379-4.631,1.226-2.543c-0.12,1.624-0.934,3.867-0.38,5.452 c0.197,0.565,0.961,0.438,1.385,0.276c1.745-0.664,3.068-4.771,4.077-6.275c2.018-3.006,4.805-7.702,7.969-9.67 c1.111-0.692-0.507-1.292-1.266-0.82c-2.238,1.393-3.964,4.19-5.553,6.217c-1.281,1.633-2.478,3.329-3.634,5.051 c-0.426,0.635-1.869,4.213-2.432,4.427c0.462,0.092,0.924,0.185,1.385,0.276c-0.787-2.253,0.915-5.03,0.307-7.41 c-0.071-0.278-0.375-0.376-0.623-0.413c-3.356-0.485-3.662,5.584-5.027,7.253c0.563-0.052,1.126-0.104,1.688-0.156 c-1.312-2.109,1.431-6.256-0.115-8.181c-0.229-0.284-0.732-0.326-1.055-0.21c-3.312,1.19-3.494,6.544-5.736,8.797 c0.517-0.094,1.034-0.187,1.551-0.28c-0.883-0.667-0.174-7.701,0.098-8.94c-0.65,0.056-1.301,0.111-1.951,0.167 c0.062,1.849-2.745,4.255-3.859,5.545c-2.588,2.996-5.426,5.778-8.275,8.52c-3.024,2.909-8.047,6.768-5.471,11.601 c1.172,2.199,7.879,10.312,9.755,4.935c2.344-6.721,2.399-14.71,3.055-21.729c0.537-5.749,0.996-11.507,1.377-17.268 c-0.65,0.055-1.301,0.111-1.951,0.166c-0.149,3.711-0.724,12.238-5.275,13.402c-2.17,0.555-2.043,1.854-2.82,3.722 c0.557-0.149,1.112-0.299,1.668-0.447c-0.665-0.474,0.273-6.771-0.012-8.196c-0.036-0.179-0.235-0.327-0.402-0.367 c-0.017-0.004-0.034-0.008-0.052-0.013c-0.455-0.111-1.295-0.001-1.482,0.533c-0.979,2.789-3.025,5.167-4.421,7.759 c0.494-0.178,0.988-0.355,1.482-0.533c-0.403-0.106-0.397-6.709-0.738-7.98c-0.212-0.789-1.915-0.402-1.942,0.342 c-0.053,1.447-2.162,7.255-2.79,7.759c0.507-0.002,1.013-0.004,1.52-0.006c-1.136-1.289-0.401-6.576-0.431-8.243 c-0.04-2.369-0.2-4.813-0.008-7.179c-0.621,0.167-1.242,0.333-1.862,0.499c1.143,1.362-2.627,12.569-4.054,13.646 c0.506-0.002,1.013-0.004,1.519-0.006c-1.092-1.138-0.675-5.864-0.754-7.262c-0.132-2.326-0.2-4.655-0.315-6.982 c-0.051-1.014-1.757-0.608-1.952,0.167c-1.207,4.778-0.204,11.742-3.078,15.915c0.557-0.149,1.112-0.298,1.668-0.447 c-1.284-0.604-0.932-7.101-1.303-8.461c-0.075-0.276-0.371-0.378-0.623-0.413c-0.043-0.006-0.086-0.012-0.129-0.017 c-0.398-0.054-1.11,0.146-1.262,0.579c-0.551,1.58-0.146,5.243-1.292,6.351c0.518-0.093,1.034-0.187,1.552-0.28 c-0.797-0.49-0.636-5.771-0.701-6.763c-0.171-2.621-0.288-5.247-0.383-7.872c-0.035-0.99-1.812-0.64-1.951,0.166 c-1.014,5.846-3.052,11.471-4.982,17.063c0.628-0.055,1.256-0.111,1.885-0.166c-0.982-2.784-0.199-7.106-0.201-10.063 C90.538,28.887,88.586,29.21,88.587,30.03L88.587,30.03z"/>
</svg>