<?xml version="1.0" encoding="UTF-8" standalone="no"?>
<!-- Created with Inkscape (http://www.inkscape.org/) -->

<svg
   xmlns:dc="http://purl.org/dc/elements/1.1/"
   xmlns:cc="http://creativecommons.org/ns#"
   xmlns:rdf="http://www.w3.org/1999/02/22-rdf-syntax-ns#"
   xmlns:svg="http://www.w3.org/2000/svg"
   xmlns="http://www.w3.org/2000/svg"
   xmlns:sodipodi="http://sodipodi.sourceforge.net/DTD/sodipodi-0.dtd"
   xmlns:inkscape="http://www.inkscape.org/namespaces/inkscape"
   width="331.16629"
   height="96.871231"
   id="svg2"
   version="1.1"
   inkscape:version="0.48.2 r9819"
   sodipodi:docname="Nouveau document 1">
  <defs
     id="defs4" />
  <sodipodi:namedview
     id="base"
     pagecolor="#ffffff"
     bordercolor="#666666"
     borderopacity="1.0"
     inkscape:pageopacity="0.0"
     inkscape:pageshadow="2"
     inkscape:zoom="1.979899"
     inkscape:cx="28.838186"
     inkscape:cy="88.435612"
     inkscape:document-units="px"
     inkscape:current-layer="layer1"
     showgrid="false"
     fit-margin-top="0"
     fit-margin-left="0"
     fit-margin-right="0"
     fit-margin-bottom="0"
     inkscape:window-width="1366"
     inkscape:window-height="706"
     inkscape:window-x="-8"
     inkscape:window-y="-8"
     inkscape:window-maximized="1" />
  <metadata
     id="metadata7">
    <rdf:RDF>
      <cc:Work
         rdf:about="">
        <dc:format>image/svg+xml</dc:format>
        <dc:type
           rdf:resource="http://purl.org/dc/dcmitype/StillImage" />
        <dc:title></dc:title>
      </cc:Work>
    </rdf:RDF>
  </metadata>
  <g
     inkscape:label="Calque 1"
     inkscape:groupmode="layer"
     id="layer1"
     transform="translate(-346.16181,-523.92657)">
    <g
       transform="matrix(0.68461692,0,0,-0.68461692,337.18515,633.34813)"
       inkscape:label="ink_ext_XXXXXX"
       id="g2993">
      <g
         transform="scale(0.1,0.1)"
         id="g2995">
        <path
           id="path2997"
           style="fill:#000000;fill-opacity:1;fill-rule:nonzero;stroke:none"
           d="M 944.039,1448 C 836.477,1285 806.824,1237.36 741.758,1123 638.777,942 618.457,909.965 610,915.25 596.484,923.699 654.133,1101 759.48,1375 c 41.907,109 46.668,137.95 25.52,155.16 -14.781,12.04 -19.477,10.84 -36,-9.16 -10.293,-12.46 -19,-34 -19,-47 0,-27.53 -57.992,-140 -123.234,-239 C 362.277,864 233.164,692.836 213,713 c -13.961,13.961 88,228.871 122,257.145 32.813,27.289 6,69.855 -44,69.855 -17.5,0 -21,-6 -21,-36 0,-20 -8.316,-48 -18.711,-63 -20.922,-30.195 -93.648,-198 -111.379,-257 -27.949,-93 14.27,-124.266 76.965,-57 95.039,101.973 217.434,263 337.469,444 41.781,63 65.656,89.55 65.656,73 0,-6.7 -14.672,-56 -89.875,-302 -21.094,-69 -18.375,-92 10.875,-92 26.391,0 112.309,122 207.758,295 42.484,77 86.469,155.75 97.742,175 11.273,19.25 31.023,53 43.883,75 33.91,58 109.39,155 120.617,155 4.74,0 9,-9 9,-19 0,-30.42 -75.148,-237 -161.152,-443 -27.137,-65 -46.075,-124.109 -42.61,-133 10.711,-27.461 47.387,-14 54.492,20 3.485,16.668 15.485,50 27,75 40.54,88 131.18,326.42 150.16,395 49.01,177 53.81,248.02 17.11,253.18 -15.82,2.23 -41.12,-29.18 -120.961,-150.18"
           inkscape:connector-curvature="0" />
        <path
           id="path2999"
           style="fill:#000000;fill-opacity:1;fill-rule:nonzero;stroke:none"
           d="m 1881.55,1552 c -9.22,-17.7 -22.38,-79 -41.22,-192 -14.83,-89 -48.94,-187.23 -82.29,-237 -43.56,-65 -184.99,-172.559 -208.04,-158.219 -5.5,3.422 -10,24.219 -10,46.219 0,49 -14.81,79 -39,79 -20.55,0 -99.23,-48 -119.67,-73 -19.52,-23.883 -39.83,-20 -47.08,9 -3.5,14 -14.61,29.4 -25.25,35 -11.54,6.07 -19,21 -19,38 0,30 -32.1,67.2 -49,56.79 -6.05,-3.74 -11,-24.79 -11,-46.79 0,-50 -24.36,-109 -45,-109 -8.49,0 -27.5,7.51 -40.5,16 -21.58,14.09 -29.5,14.41 -66.5,2.63 -74,-23.567 -107.465,-101.11 -72.77,-168.63 18.49,-36 43.41,-50.355 69.77,-40.199 26.82,10.336 101.14,83.199 145.05,142.199 55.07,74 72.57,64 82.27,-47 4.33,-49.664 31.72,-44 62.85,13 32.23,59 91.69,107.22 111.83,90.68 7.22,-5.93 13,-22.68 13,-37.68 0,-15 5.33,-32.332 12,-39 15.16,-15.164 73,-14.984 98,0.305 30.42,18.605 34.95,1.695 9.18,-34.305 -45.09,-63 -22.06,-228 31.82,-228 11,0 21.52,5.852 23.38,13 23.09,89 101.03,303.617 121.29,334 16.87,25.31 58.33,29.93 108.33,12.07 27.38,-9.78 40,-6.75 108,25.93 42,20.18 81.55,34.05 87,30.5 5.43,-3.52 7.48,-20 4.5,-36 -4.85,-26 -2.54,-29.5 19.5,-29.5 18.12,0 30.64,9.5 45.5,34.5 15.31,25.77 31,37.28 62,45.5 23,6.1 43.51,8.99 46,6.5 2.45,-2.45 -4.82,-32 -16,-65 -11.18,-33 -20.5,-70.273 -20.5,-82 0,-12.07 -8.77,-34 -20,-50 -11.11,-15.832 -27.04,-56.5 -35.84,-91.5 -21.37,-85 -9.26,-131.77 50.25,-194 56.53,-59.117 72.48,-55 65.86,17 -10.03,109 -5.64,285.441 7.69,310 7.11,13.09 43.04,46.27 79.04,72.99 76.85,57.05 69,72.51 -13,25.61 l -57,-32.6 6.5,34 c 3.51,18.38 17.96,51 31.45,71 29,43 30.35,51.26 11.05,67.43 -11.84,9.93 -23,8.15 -53,-8.43 -21.16,-11.69 -59.5,-29.87 -86.5,-41 -44,-18.14 -50.45,-18.62 -69.5,-5.2 -33.18,23.4 -55,19.2 -128,-24.6 -73,-43.8 -92.79,-47.86 -123,-25.2 -10.71,8.04 -33,15 -48,15 -15,0 -28,2.55 -28,5.5 0,3 16.59,35.5 36.5,71.5 19.91,36 44.96,93.73 55.11,127 21.06,69 34.38,200.05 24.39,240 -7.5,30 -40.45,34.84 -54.45,8 z M 1140,942 c 0,-18 -59.32,-82 -76,-82 -6.75,0 -14.68,7 -18.13,16 -11.5,30 -5.73,55.137 18.13,79 21.57,21.57 28.5,23.422 50.5,13.5 14,-6.312 25.5,-18.266 25.5,-26.5 z m 528.04,-101 c -27.56,-72 -54.04,-83.523 -43.67,-19 7.72,48 58.15,124.309 63.45,96 1.75,-9.352 -7.15,-44 -19.78,-77"
           inkscape:connector-curvature="0" />
        <path
           id="path3001"
           style="fill:#000000;fill-opacity:1;fill-rule:nonzero;stroke:none"
           d="m 2949,1267.5 c -16.78,-23 -39.33,-58.56 -49.16,-77.5 -32.18,-62 -141.2,-150 -185.84,-150 -28.34,0 -29.02,6 -7.89,70 26.07,79 4.66,120.67 -51.11,99.43 -26,-9.91 -32.86,-37.57 -14,-56.43 8.14,-8.14 7.88,-24 -1,-61 -8.88,-37 -9.07,-55.46 -0.75,-71 40.98,-76.492 212.61,4 304.9,143 20.58,31 44.46,59.51 52.35,62.5 8.04,3.05 51.5,-19.02 97.5,-49.5 46,-30.48 100.39,-63.78 122,-74.69 67.55,-34.11 293,-82.31 385,-82.31 26.16,0 68.5,-4.21 95.5,-9.5 26.68,-5.23 111.5,-14.66 188.5,-20.969 232,-19.011 401.62,-43.992 548,-80.707 C 4630,859.41 4860.87,762.996 4899.53,714 4960.91,636.195 4892,590.59 4609,521.73 4324,452.387 4113.98,411.508 3935,390.543 c -50,-5.855 -105.55,-12.988 -125,-16.043 -19.25,-3.023 -80,-9.551 -135,-14.5 -55.15,-4.965 -174,-15.727 -265,-24 -91,-8.273 -227.79,-20.156 -305,-26.5 -77.24,-6.344 -205,-18 -285,-26 -80,-8 -189.83,-18.758 -245,-24 -55,-5.227 -129.25,-13.773 -165,-19 -35.99,-5.262 -119,-14.41 -186,-20.5 -67,-6.09 -133.94,-14.57 -150,-19 -24.8,-6.84 -19,-9.145 40,-15.898 63.99,-7.325 243,7.972 526,44.945 91.83,11.996 380,37.961 555,50.004 72,4.957 174.62,13.41 230,18.949 55,5.5 124.75,12.477 155,15.5 30.5,3.051 104,10.285 165,16.242 344,33.598 785.85,117.934 1097,209.383 20.65,6.07 56,25.234 80,43.375 35,26.453 43.56,39.57 46,70.5 1.82,23 -3.2,47.473 -12.71,62 -50.95,77.805 -322.29,189.121 -590.29,242.16 -128.74,25.477 -214,38.309 -345,51.93 -58,6.02 -140.81,15.16 -185,20.41 -44.31,5.26 -138,14.41 -210,20.5 -72,6.09 -140.26,15.02 -153,20 -12.38,4.85 -35,9 -49,9 -83.32,0 -264,92.19 -365,186.23 -26,24.22 -53.93,43.77 -62.5,43.77 -8.39,0 -29.72,-19.5 -46.5,-42.5"
           inkscape:connector-curvature="0" />
      </g>
    </g>
  </g>
</svg>
