<?xml version="1.0" encoding="UTF-8" standalone="no"?>
<!-- Created with Inkscape (http://www.inkscape.org/) -->

<svg
   xmlns:dc="http://purl.org/dc/elements/1.1/"
   xmlns:cc="http://creativecommons.org/ns#"
   xmlns:rdf="http://www.w3.org/1999/02/22-rdf-syntax-ns#"
   xmlns:svg="http://www.w3.org/2000/svg"
   xmlns="http://www.w3.org/2000/svg"
   xmlns:sodipodi="http://sodipodi.sourceforge.net/DTD/sodipodi-0.dtd"
   xmlns:inkscape="http://www.inkscape.org/namespaces/inkscape"
   id="svg2"
   version="1.1"
   inkscape:version="0.91 r13725"
   width="39.756802"
   height="36.341038"
   viewBox="0 0 39.756801 36.341038"
   sodipodi:docname="Manuel Fraga (f).svg">
  <metadata
     id="metadata8">
    <rdf:RDF>
      <cc:Work
         rdf:about="">
        <dc:format>image/svg+xml</dc:format>
        <dc:type
           rdf:resource="http://purl.org/dc/dcmitype/StillImage" />
        <dc:title></dc:title>
      </cc:Work>
    </rdf:RDF>
  </metadata>
  <defs
     id="defs6" />
  <sodipodi:namedview
     pagecolor="#ffffff"
     bordercolor="#666666"
     borderopacity="1"
     objecttolerance="10"
     gridtolerance="10"
     guidetolerance="10"
     inkscape:pageopacity="0"
     inkscape:pageshadow="2"
     inkscape:window-width="1366"
     inkscape:window-height="705"
     id="namedview4"
     showgrid="false"
     fit-margin-top="0"
     fit-margin-left="0"
     fit-margin-right="0"
     fit-margin-bottom="0"
     inkscape:zoom="3.4745802"
     inkscape:cx="28.760753"
     inkscape:cy="38.140924"
     inkscape:window-x="-4"
     inkscape:window-y="-4"
     inkscape:window-maximized="1"
     inkscape:current-layer="svg2" />
  <path
     style="fill:#000000"
     d="m 17.926166,36.120487 c -0.075,-0.23629 0.0262,-0.57835 0.17118,-0.57835 0.0527,0 0.33842,-0.25762 0.63484,-0.5725 0.29642,-0.31487 0.75785,-0.74248 1.02539,-0.95024 0.26754,-0.20776 0.7279,-0.5956 1.02303,-0.86188 0.85626,-0.77252 1.68447,-1.46862 1.9733,-1.65851 0.53448,-0.35138 1.69451,-1.28228 1.7822,-1.43015 0.0495,-0.0834 0.15916,-0.15172 0.24375,-0.15172 0.0846,0 0.17066,-0.038 0.19128,-0.0844 0.0206,-0.0464 0.34125,-0.3088 0.7125,-0.5831 0.37125,-0.2743 0.70031,-0.52993 0.73125,-0.56806 0.11087,-0.13663 2.20285,-1.87929 2.64375,-2.20228 0.2475,-0.18131 0.47531,-0.36085 0.50625,-0.39898 0.0309,-0.0381 0.20813,-0.15375 0.39375,-0.25694 0.18563,-0.1032 0.61594,-0.39266 0.95625,-0.64324 0.34031,-0.25059 0.96047,-0.6869 1.37813,-0.96958 0.41765,-0.28268 0.75937,-0.56015 0.75937,-0.61659 0,-0.0564 0.0455,-0.0745 0.10118,-0.0401 0.0556,0.0344 0.47634,-0.20664 0.93488,-0.53562 0.45854,-0.32899 0.9066,-0.63456 0.9957,-0.67905 0.28848,-0.14407 0.61637,-0.35004 0.78487,-0.49303 0.0905,-0.0768 0.4304,-0.34379 0.75525,-0.59324 0.32484,-0.24945 0.59062,-0.52301 0.59062,-0.60792 0,-0.20372 0.91569,-0.6572 1.05193,-0.52096 0.146,0.146 0.005,0.44623 -0.25436,0.54265 -0.12095,0.0449 -0.43848,0.27385 -0.70562,0.50873 -0.88619,0.77919 -1.42991,1.17829 -1.94495,1.42762 -0.28022,0.13565 -0.5095,0.294 -0.5095,0.35189 0,0.0579 -0.12134,0.15138 -0.26964,0.20777 -0.31521,0.11984 -1.63955,1.01275 -1.99961,1.3482 -0.13649,0.12716 -0.29363,0.23121 -0.3492,0.23121 -0.11998,0 -1.02715,0.62538 -1.42792,0.98438 -0.15542,0.13922 -0.34216,0.25312 -0.41498,0.25312 -0.0728,0 -0.14927,0.038 -0.1699,0.0844 -0.0542,0.12187 -0.84873,0.70312 -0.96117,0.70312 -0.0522,0 -0.25993,0.15071 -0.4616,0.3349 -0.20167,0.18419 -0.55467,0.475 -0.78445,0.64623 -0.22978,0.17124 -0.44309,0.34148 -0.47403,0.37832 -0.12809,0.15252 -1.22135,1.0719 -1.4603,1.22805 -0.14203,0.0928 -0.37552,0.28266 -0.51886,0.42188 -0.14333,0.13922 -0.2942,0.25312 -0.33525,0.25312 -0.041,0 -0.23706,0.13922 -0.43559,0.30938 -0.45912,0.39352 -1.06999,0.87091 -1.79669,1.40411 -0.5847,0.42901 -1.34289,1.0686 -1.80291,1.52089 -0.1416,0.13922 -0.29829,0.25312 -0.34821,0.25312 -0.0947,0 -0.71045,0.63668 -1.42851,1.4771 -1.25548,1.46942 -1.35465,1.54451 -1.4874,1.12625 z m 5.09454,-9.18642 c -0.83562,-0.1664 -1.21404,-0.33187 -1.22693,-0.53651 -0.005,-0.0752 -0.0265,-0.23138 -0.0483,-0.34715 -0.0609,-0.32329 0.17783,-0.79902 0.7319,-1.45819 0.45089,-0.53641 2.16468,-2.21258 2.26224,-2.21258 0.049,0 0.12957,-0.0686 0.17905,-0.15238 0.0495,-0.0838 0.31778,-0.294 0.59621,-0.4671 0.27844,-0.1731 0.61774,-0.4336 0.75401,-0.57888 0.13626,-0.14527 0.29295,-0.26414 0.34819,-0.26414 0.0552,0 0.19206,-0.10125 0.30405,-0.225 0.112,-0.12375 0.25906,-0.22506 0.32682,-0.22514 0.0678,-7e-5 0.27506,-0.13221 0.46068,-0.29363 0.71611,-0.62275 1.2541,-1.0193 1.66925,-1.23042 0.23746,-0.12076 0.62519,-0.38409 0.86163,-0.58518 0.23644,-0.2011 0.46059,-0.36563 0.49811,-0.36563 0.1469,0 1.64695,-1.15532 1.58303,-1.21924 -0.0374,-0.0374 -0.10322,-0.0118 -0.14626,0.0569 -0.043,0.0687 -0.25544,0.15087 -0.47201,0.18261 -0.21656,0.0317 -0.60472,0.0938 -0.86257,0.13787 -0.58772,0.10048 -0.91635,-0.10473 -1.12099,-0.69998 -0.11367,-0.33066 -0.11778,-0.52663 -0.0184,-0.8764 0.12333,-0.43393 0.81114,-1.53585 1.00682,-1.613 0.0523,-0.0206 0.0951,-0.10472 0.0951,-0.18687 0,-0.0822 0.16449,-0.28778 0.36553,-0.45695 0.20104,-0.16916 0.44808,-0.43944 0.54898,-0.60062 0.1009,-0.16118 0.5186,-0.63142 0.92823,-1.04497 0.40962,-0.41355 0.74476,-0.783 0.74476,-0.821 0,-0.038 0.12657,-0.18638 0.28125,-0.32974 0.15469,-0.14336 0.28125,-0.31813 0.28125,-0.38837 0,-0.0703 0.038,-0.12773 0.0844,-0.12773 0.0464,-10e-6 0.23021,-0.1827698 0.40845,-0.4061598 0.24752,-0.31022 0.28948,-0.42752 0.17764,-0.49664 -0.18378,-0.11359 0.0505,-0.49626 0.77031,-1.25834 0.27528,-0.29144 0.5797,-0.64582 0.67648,-0.7875 0.0968,-0.14169 0.20449,-0.28292 0.23937,-0.31386 0.0349,-0.0309 0.21232,-0.25875 0.39432,-0.50625 0.182,-0.2475 0.37393,-0.47976 0.42649,-0.51614 0.0526,-0.0364 0.18181,-0.22289 0.2872,-0.41447 0.10539,-0.19158 0.38146,-0.65813 0.61349,-1.03676 0.23204,-0.37864 0.42188,-0.75546 0.42188,-0.83738 0,-0.0819 0.0759,-0.21197 0.16875,-0.289 0.0928,-0.077 0.16875,-0.23221 0.16875,-0.34484 0,-0.11264 0.10931,-0.39007 0.24291,-0.61651 0.17301,-0.29323 0.24585,-0.61072 0.25313,-1.1033 0.009,-0.62036004 -0.0141,-0.69507004 -0.22562,-0.72528004 -0.14025,-0.02 -0.43661,0.12972 -0.73125,0.36951 -0.27248,0.22176 -0.61059,0.49004004 -0.75136,0.59619004 -0.14077,0.10614 -0.319,0.24827 -0.39607,0.31584 -0.2251,0.19735 -0.65626,0.40637 -0.71568,0.34695 -0.0697,-0.0697 0.31689,-0.52606 0.44563,-0.52606 0.0928,0 1.0264,-0.71465004 1.25956,-0.96412004 0.45912,-0.49124000232 1.31296,-0.6579 1.50758,-0.29426 0.0601,0.11227 0.0925,0.56519 0.0719,1.00650004 -0.0316,0.67974 -0.11767,0.97094 -0.56314,1.90525 -0.82371,1.7276 -2.34481,3.84719 -3.93068,5.47723 -0.24467,0.25148 -0.38174,0.47072 -0.30938,0.49484 0.0715,0.0238 0.12875,0.10237 0.12731,0.17456 -0.003,0.13005 -0.10517,0.25274 -1.55555,1.8604998 -0.41145,0.45608 -0.76496,0.87374 -0.78559,0.92812 -0.0206,0.0544 -0.10921,0.0989 -0.19687,0.0989 -0.0877,0 -0.15938,0.0775 -0.15938,0.17228 0,0.0948 -0.0759,0.20142 -0.16875,0.23704 -0.0928,0.0356 -0.16875,0.13527 -0.16875,0.22147 0,0.0862 -0.0439,0.15671 -0.0975,0.15671 -0.0537,0 -0.22631,0.18984 -0.38368,0.42188 -0.15738,0.23203 -0.41723,0.55888 -0.57745,0.72634 -0.16023,0.16745 -0.29132,0.34138 -0.29132,0.38649 0,0.0451 -0.0935,0.18655 -0.20788,0.31429 -0.11433,0.12774 -0.29347,0.45331 -0.39809,0.7235 -0.1732,0.44733 -0.1745,0.51522 -0.0145,0.75937 0.14122,0.21553 0.27318,0.26813 0.6727,0.26813 0.27336,0 0.52831,-0.0506 0.56655,-0.1125 0.0382,-0.0619 0.23446,-0.1125 0.43605,-0.1125 0.20158,0 0.66349,-0.15187 1.02645,-0.3375 0.36296,-0.18562 0.7266,-0.3375 0.80809,-0.3375 0.0815,0 0.14816,-0.0591 0.14816,-0.13125 0,-0.0722 0.0263,-0.10498 0.0584,-0.0729 0.0321,0.0321 0.44326,-0.13269 0.91366,-0.36623 0.88895,-0.44133 1.16545,-0.46091 1.16545,-0.0825 0,0.24746 -0.32981,0.56935 -0.84375,0.8235 -0.6345,0.31377 -1.45398,0.82004 -1.68334,1.03996 -0.12604,0.12085 -0.43166,0.32318 -0.67916,0.44963 -0.2475,0.12645 -0.6468,0.38681 -0.88734,0.57859 -0.24054,0.19178 -0.48845,0.34869 -0.55092,0.34869 -0.0625,0 -0.32128,0.16994 -0.57515,0.37764 -0.25387,0.2077 -0.57549,0.41361 -0.71471,0.45758 -0.13922,0.044 -0.25313,0.12375 -0.25313,0.17728 0,0.0535 -0.0886,0.12576 -0.19687,0.16049 -0.10828,0.0347 -0.332,0.17737 -0.49714,0.31696 -0.47174,0.39874 -0.87234,0.68903 -1.21204,0.87829 -0.17226,0.096 -0.43438,0.29846 -0.5825,0.45 -0.14812,0.15153 -0.35086,0.32614 -0.45053,0.38801 -0.83948,0.52115 -3.20879,2.63652 -3.92588,3.50512 -0.59439,0.71997 -0.72436,1.189 -0.36743,1.32597 0.24322,0.0933 1.92284,0.0968 2.35289,0.005 0.82372,-0.17613 1.80656,-0.42344 2.01075,-0.50595 0.12375,-0.05 0.47813,-0.2016 0.7875,-0.33688 0.64419,-0.28168 1.05701,-0.45996 1.6671,-0.71995 0.23628,-0.10069 0.47675,-0.15394 0.53438,-0.11832 0.0576,0.0356 0.10477,0.0111 0.10477,-0.0544 0,-0.0655 0.0759,-0.11914 0.16875,-0.11914 0.0928,0 0.16915,-0.038 0.16963,-0.0844 0.001,-0.10103 0.54583,-0.36563 0.7528,-0.36563 0.0805,0 0.14632,-0.0506 0.14632,-0.1125 0,-0.0619 0.10125,-0.1125 0.225,-0.1125 0.12375,0 0.225,-0.0506 0.225,-0.1125 0,-0.0619 0.0777,-0.1125 0.17271,-0.1125 0.14021,0 0.14908,0.0442 0.0471,0.23464 -0.0691,0.12905 -0.15401,0.2062 -0.18876,0.17145 -0.0347,-0.0348 -0.38465,0.11347 -0.77755,0.32938 -0.39291,0.2159 -0.74053,0.39091 -0.7725,0.38891 -0.032,-0.002 -0.68395,0.30106 -1.44886,0.67349 -0.7649,0.37242 -1.47319,0.67713 -1.57396,0.67713 -0.10077,0 -0.18321,0.0387 -0.18321,0.086 0,0.13921 -0.78065,0.43539 -1.6875,0.64025 -0.46407,0.10483 -0.93166,0.23745 -1.0391,0.2947 -0.22686,0.12088 -0.1553,0.12514 -1.11758,-0.0665 z m -8.203286,-0.51417 c -0.225539,-0.22047 -0.365478,-0.47717 -0.383307,-0.70313 -0.02576,-0.32646 -0.06181,-0.35684 -0.436079,-0.3675 -0.280773,-0.008 -0.489369,-0.0994 -0.668948,-0.29318 -0.260948,-0.28157 -0.260948,-0.28157 -0.673142,0.0491 -0.333472,0.26752 -0.477749,0.31628 -0.755438,0.25529 -0.188784,-0.0415 -0.424347,-0.19917 -0.523475,-0.35046 -0.160114,-0.24436 -0.200524,-0.25671 -0.362019,-0.11055 -0.512278,0.4636 -0.969918,0.42048 -1.4411945,-0.13579 -0.228337,-0.26951 -0.262874,-0.27827 -0.45,-0.11405 -0.661016,0.58012 -1.406596,0.65932 -1.894219,0.20122 -0.224761,-0.21115 -0.265585,-0.21459 -0.648671,-0.0545 -0.224848,0.0939 -0.600284,0.17053 -0.834302,0.17018 -0.499841,-7.3e-4 -1.269239,-0.19662 -1.269239,-0.32315 0,-0.0485 -0.117991,-0.15135 -0.262202,-0.22852 -0.294225,-0.15747 -0.610312,-0.63681 -0.684424,-1.03792 -0.02703,-0.14631 -0.05708,-0.26603 -0.06677,-0.26603 -0.163617,0 -0.204073,-2.44804 -0.06597,-3.99204 0.08538,-0.95454 0.08538,-0.95454 -0.20082,-0.64573 -0.745433,0.80434 -1.487931,0.52982 -1.802861,-0.66654 -0.167224,-0.63526 -0.173043,-1.39059 -0.01071,-1.38991 0.06187,2.2e-4 0.115652,0.0384 0.119505,0.0848 0.04674,0.56306 0.332356,1.39349 0.549401,1.5974 0.236709,0.22237 0.295621,0.23314 0.544044,0.0994 0.153225,-0.0825 0.403222,-0.30182 0.555549,-0.48745 0.330927,-0.40327 0.923861,-1.40625 0.831333,-1.40625 -0.03591,0 0.03946,-0.26578 0.167504,-0.59062 0.128042,-0.32485 0.225519,-0.60374 0.216617,-0.61977 -0.05191,-0.0934 0.152562,-1.05276 0.235278,-1.10388 0.05474,-0.0338 0.09952,-0.23161 0.09952,-0.4395 0,-0.2079 0.08447,-0.54663 0.187712,-0.75274 0.103241,-0.20611 0.222665,-0.45068 0.265386,-0.54349 0.04272,-0.0928 0.148094,-0.16875 0.234163,-0.16875 0.197985,0 0.162655,0.45364 -0.135806,1.74375 -0.21216,0.91708 -0.272964,1.1004 -0.615664,1.85625 -0.08416,0.18563 -0.187063,0.48938 -0.228669,0.675 -0.04161,0.18563 -0.112494,0.38813 -0.15753,0.45 -0.04504,0.0619 -0.114819,0.44156 -0.155073,0.84375 -0.04025,0.40219 -0.144065,0.93375 -0.230691,1.18125 -0.242981,0.69423 -0.187124,3.62031 0.0768,4.02297 0.108281,0.1652 0.196875,0.37808 0.196875,0.47307 0,0.095 0.05063,0.17271 0.1125,0.17271 0.06188,0 0.1125,0.0701 0.1125,0.15581 0,0.26532 0.564103,0.542 1.194282,0.58577 1.053959,0.0732 1.339223,-0.15459 1.432629,-1.14404 0.05707,-0.60454 0.442951,-1.68252 0.707461,-1.97634 0.238895,-0.26535 0.72809,-0.33295 1.025003,-0.14162 0.553942,0.35695 0.142181,1.76372 -0.811138,2.77123 -0.251648,0.26595 -0.271537,0.33748 -0.148577,0.53437 0.07808,0.12503 0.215247,0.22732 0.304816,0.22732 0.312249,0 0.871257,-0.48765 1.060957,-0.92552 0.105095,-0.24258 0.238667,-0.42467 0.296829,-0.40464 0.05816,0.02 0.246539,0.31485 0.418618,0.65516 0.3754695,0.74255 0.6952805,0.86094 1.0062875,0.37252 0.195869,-0.3076 0.370573,-0.47979 0.490376,-0.4833 0.03234,-9e-4 0.154214,0.17547 0.27084,0.39203 0.116627,0.21656 0.257689,0.39375 0.313472,0.39375 0.05578,0 0.07306,0.0459 0.03838,0.10201 -0.03467,0.0561 0.03882,0.0754 0.163319,0.0428 0.124501,-0.0325 0.502703,-0.33553 0.840451,-0.67328 0.655804,-0.6558 0.911055,-0.70818 0.697795,-0.14319 -0.196374,0.52025 -0.0057,0.7279 0.668465,0.7279 0.548485,0 0.548485,0 0.561211,0.53663 0.016,0.67439 0.268298,0.98212 0.805226,0.98212 0.335405,0 0.494244,-0.10959 1.14683,-0.79128 0.41662,-0.43521 0.82842,-0.9288 0.91511,-1.09688 0.0867,-0.16807 0.22207,-0.37367 0.30086,-0.45687 0.0788,-0.0832 0.2193,-0.29836 0.31226,-0.47813 0.093,-0.17976 0.21802,-0.32684 0.27792,-0.32684 0.13564,0 0.0852,0.37604 -0.0777,0.57965 -0.0667,0.0834 -0.21127,0.32849 -0.32122,0.54469 -0.18941,0.37246 -0.962,1.46264 -1.26009,1.77807 -0.076,0.0804 -0.20253,0.23226 -0.281248,0.3375 -0.220265,0.29446 -0.814967,0.58509 -1.197235,0.58509 -0.233078,0 -0.459203,-0.11223 -0.699614,-0.34724 z m -6.7253825,-3.7803 c 0.37253,-0.54146 0.462689,-0.89643 0.28747,-1.13183 -0.252239,-0.33889 -0.447021,-0.0946 -0.817098,1.02478 -0.145437,0.4399 -0.106186,0.79663 0.07531,0.68445 0.05459,-0.0337 0.259034,-0.29357 0.454318,-0.5774 z m -8.05208799,3.57526 c -0.114721,-0.18563 0.03492,-2.50153 0.229638,-3.55397 0.03434,-0.18562 0.08502,-0.46453 0.112608,-0.61979 0.02759,-0.15527 0.09754,-0.4337 0.155438,-0.61875 0.153174,-0.48955 0.0326,1.04027 -0.155257,1.96979 -0.08128,0.40219 -0.131565,1.00969 -0.111744,1.35 0.06448,1.10701 0.07194,1.29169 0.058,1.43438 -0.01597,0.16343 -0.19655,0.18741 -0.288681,0.0383 z M 18.821766,22.603947 c 0.11233,-0.12413 0.22745,-0.20248 0.25582,-0.17411 0.0609,0.0609 -0.25975,0.3998 -0.37835,0.3998 -0.045,0 0.0102,-0.10156 0.12253,-0.22569 z m 14.90562,-0.0919 c 0,-0.0868 0.89601,-0.58244 1.05295,-0.58244 0.19304,0 0.0319,0.23144 -0.30685,0.44083 -0.38726,0.23933 -0.7461,0.30744 -0.7461,0.14161 z m 2.1375,-1.14494 c 0,-0.0619 0.0789,-0.1125 0.17539,-0.1125 0.0965,0 0.1441,0.0506 0.10586,0.1125 -0.0382,0.0619 -0.11717,0.1125 -0.17539,0.1125 -0.0582,0 -0.10586,-0.0506 -0.10586,-0.1125 z m -12.4171,-1.21513 c -0.11768,-0.41957 -0.18236,-0.91018 -0.24281,-1.84182 -0.0348,-0.53664 -0.11617,-1.14414 -0.18076,-1.35 -0.0646,-0.20587 -0.14367,-0.60211 -0.17573,-0.88055 -0.0321,-0.27844 -0.0988,-0.55687 -0.14837,-0.61875 -0.0496,-0.0619 -0.12714,-0.31071 -0.17242,-0.55297 -0.0864,-0.46244 -0.55603,-1.26117 -0.65107,-1.10739 -0.0305,0.0493 -0.11565,0.62019 -0.18933,1.26872 -0.1211,1.06581 -0.22953,1.59111 -0.58013,2.81039 -0.0623,0.21656 -0.13935,0.55828 -0.1713,0.75938 -0.0319,0.20109 -0.10318,0.36562 -0.15829,0.36562 -0.0551,0 -0.0902,0.038 -0.0779,0.0844 0.041,0.15507 -0.14856,0.59062 -0.25701,0.59062 -0.11962,0 -0.0674,-0.28097 0.24992,-1.34465 0.39132,-1.31174 0.66126,-2.85642 0.68905,-3.94289 0.0205,-0.8004 0.0764,-1.13804 0.22263,-1.34485 0.1953,-0.27615 0.1953,-0.27615 0.50113,-0.0478 0.16821,0.12559 0.3883,0.37641 0.4891,0.55739 0.25386,0.45584 0.67439,1.72165 0.70732,2.12906 0.015,0.18563 0.087,0.51469 0.16003,0.73125 0.073,0.21656 0.18248,0.89313 0.24325,1.50347 0.0608,0.61035 0.13354,1.13277 0.16171,1.16094 0.0282,0.0282 0.28914,-0.42058 0.57994,-0.99722 1.07838,-2.13838 1.64774,-3.18695 1.75027,-3.22344 0.058,-0.0206 0.10537,-0.0977 0.10537,-0.17131 0,-0.0736 0.18274,-0.4111 0.40609,-0.75 0.22334,-0.33891 0.55314,-0.90728 0.73287,-1.26306 0.17973,-0.35579 0.37668,-0.64688 0.43766,-0.64688 0.061,0 0.0982,-0.0414 0.0828,-0.092 -0.0155,-0.0506 0.3136,-0.58521 0.73125,-1.18806 0.41766,-0.60285 0.75938,-1.1411398 0.75938,-1.1961998 0,-0.0551 0.0886,-0.14995 0.19687,-0.21088 0.17713,-0.0997 0.16867,-0.12168 -0.0844,-0.21933 -0.24361,-0.094 -0.2549,-0.11918 -0.0844,-0.18809 0.10828,-0.0438 0.19688,-0.12347 0.19688,-0.17714 0,-0.1841 1.4974,-1.9598 2.48257,-2.94396 0.54196,-0.54141 0.96645,-0.98438 0.94331,-0.98438 -0.1672,0 2.39274,-2.29232 2.61857,-2.34483 0.29909,-0.0695 0.0109,0.26494 -0.98195,1.1396 -0.52594,0.46334 -1.38656,1.30865 -1.9125,1.87848 -0.52594,0.56982 -1.19672,1.28803 -1.49063,1.59601 -0.2939,0.30798 -0.53437,0.60261 -0.53437,0.65473 0,0.0521 -0.0448,0.11164 -0.0996,0.13226 -0.10524,0.0396 -0.91286,1.06895 -0.91286,1.16347 0,0.0304 0.0748,0.0553 0.16634,0.0553 0.13877,0 0.14425,0.0513 0.0331,0.30938 -0.0733,0.17015 -0.2663,0.48656 -0.4289,0.7031198 -0.16259,0.21656 -0.33133,0.46969 -0.37498,0.5625 -0.17701,0.37644 -0.75489,1.26622 -0.9133,1.40625 -0.07,0.0619 -0.29762,0.46688 -0.50584,0.9 -0.20822,0.43313 -0.489,0.93938 -0.62396,1.125 -0.13497,0.18563 -0.32026,0.48938 -0.41178,0.675 -0.28373,0.5755 -0.66875,1.22934 -0.83331,1.41511 -0.0865,0.0977 -0.15733,0.25602 -0.15733,0.35185 0,0.0958 -0.0759,0.23726 -0.16875,0.31429 -0.0928,0.077 -0.16875,0.18094 -0.16875,0.23093 0,0.12344 -0.60141,1.46292 -1.05366,2.34675 -0.38263,0.74776 -0.79809,1.07388 -0.90094,0.70719 z"
     id="path4171"
     inkscape:connector-curvature="0" />
</svg>
