<?xml version="1.0" encoding="UTF-8" standalone="no"?>
<!-- Created with Inkscape (http://www.inkscape.org/) -->
<svg
   xmlns:svg="http://www.w3.org/2000/svg"
   xmlns="http://www.w3.org/2000/svg"
   version="1.0"
   width="413.14502"
   height="230.18803"
   id="svg2">
  <defs
     id="defs5" />
  <path
     d="M 174.86377,228.97329 C 160.8927,225.22517 146.86946,215.70755 135.42522,228.88269 C 118.26262,233.45593 100.19496,222.37054 92.654961,209.00068 C 86.471041,198.0354 93.766211,184.12701 90.404981,184.7211 C 76.143801,177.79445 48.338182,160.04231 35.189116,151.41773 C 20.316349,143.03176 18.904343,125.15492 6.0593827,115.16669 C -3.6832703,104.87887 0.85628969,87.478863 2.4813097,77.244703 C 3.6654447,69.787173 11.358001,67.575883 18.479201,59.861007 C 29.689507,47.716122 44.244094,37.418508 62.702332,36.969361 C 74.538621,29.060906 86.288181,30.69983 97.582891,36.276277 C 113.1314,31.365689 129.17867,27.386246 144.92962,22.924997 C 164.26505,15.463544 185.05225,8.5833505 204.21424,4.1342545 C 219.34532,0.62106748 237.68963,5.2862995 254.4839,6.2686765 C 271.20569,10.874136 293.52511,2.7333755 308.11362,13.472138 C 319.7684,23.200233 336.37951,24.903927 341.86377,41.093467 C 345.70385,58.490809 357.45023,49.382749 363.13199,38.551806 C 371.86602,25.512486 381.18616,20.507306 392.22446,11.767953 C 395.22974,4.3174935 422.74905,-7.5023825 409.61377,6.5487775 C 394.63819,17.130694 386.14187,33.893482 373.07565,46.505871 C 362.39849,58.219206 348.24333,72.718453 364.72253,86.608733 C 379.0856,97.641733 372.22823,121.68597 358.1357,129.47307 C 341.08795,137.07973 319.24612,143.38317 302.95849,130.58335 C 284.20119,118.18883 305.2599,99.864343 317.21848,91.776093 C 332.14643,82.747523 334.05454,66.472043 329.72608,49.985997 C 325.09476,32.346405 308.28439,22.424641 292.54875,22.372987 C 276.67054,20.850467 262.94798,4.1246155 246.64908,13.398428 C 218.90112,19.360169 190.49229,21.567402 162.62388,26.482043 C 146.31924,28.767109 132.10065,36.630915 117.06311,42.281465 C 94.936161,45.274177 73.178065,49.623791 51.726156,55.610827 C 30.622083,54.89232 24.921219,75.246853 16.496035,89.986443 C 11.347991,108.01465 29.706326,116.08372 31.958603,130.92168 C 40.721738,145.39967 78.776841,165.84883 93.216111,174.71783 C 93.467531,175.3625 98.798791,166.948 103.23104,158.43564 C 116.3689,144.89329 135.7203,138.87189 147.38378,123.7115 C 139.43116,114.17801 134.70088,101.75635 122.15843,96.945983 C 110.11735,88.370123 93.350731,74.472263 78.245561,81.629963 C 71.822299,97.822953 89.408121,111.54512 97.881981,123.56716 C 107.24823,139.23418 87.296251,124.81134 84.755581,117.72708 C 71.959868,106.06168 61.566546,88.896603 64.270579,71.139733 C 75.949441,52.655894 93.107731,72.034823 106.93558,74.824183 C 119.32897,77.324193 126.74656,87.408023 137.69714,99.080473 C 147.85108,112.35589 155.33589,121.72502 156.43689,122.00847 C 174.46695,113.10148 208.27911,94.726173 220.65292,77.068303 C 233.80751,58.296224 252.22817,41.464313 273.64306,31.57257 C 287.01827,27.596102 315.10389,32.247567 305.36321,52.070392 C 298.34333,68.021683 278.77972,70.510243 266.84909,81.515563 C 255.4603,90.072683 230.16781,92.746643 232.21242,110.60205 C 235.25503,125.11235 246.58709,132.75253 261.61508,132.9487 C 274.96741,133.123 297.42607,142.85729 295.47355,154.54179 C 293.08204,168.85334 265.06224,174.30452 248.95087,167.10912 C 228.6205,165.55709 212.25302,149.83219 191.98932,148.53901 C 185.18344,152.5889 204.84191,158.97244 212.07138,170.78388 C 220.74544,180.59311 218.2688,201.21053 200.23084,196.29259 C 179.11494,195.58534 151.80668,185.50132 148.97431,164.89088 C 147.74024,155.91084 161.89965,137.73772 154.91215,135.79431 C 140.25595,144.51715 116.64861,168.31115 106.73326,182.90044 C 102.57383,185.9296 132.37779,194.24235 144.00082,201.25351 C 157.63368,209.47702 177.22758,210.08347 189.48106,220.24602 C 194.41947,229.04257 180.60938,232.1513 174.86377,228.97329 z M 130.92127,214.99832 C 138.55668,201.15451 162.74778,226.19722 166.64678,215.60496 C 147.23445,206.92607 122.21335,199.44129 103.61733,189.84882 C 88.631041,204.98493 112.75951,223.50696 128.54329,218.37177 L 129.69773,217.14423 L 130.92127,214.99832 L 130.92127,214.99832 z M 203.72892,186.42575 C 209.74628,171.08307 188.28862,153.21609 175.63358,150.55745 C 158.54558,146.96751 157.26712,176.45281 174.59618,180.13587 C 183.16964,183.92001 194.3895,191.84207 203.72892,186.42575 z M 269.44016,157.22581 C 286.25466,141.02006 251.46675,145.06028 242.29768,147.46631 C 223.34649,149.4791 218.76724,118.94284 216.94654,104.09971 C 202.97199,105.47386 175.51699,119.49025 166.01053,130.87137 C 176.59829,144.39498 200.9419,138.10003 215.2294,148.40197 C 230.96098,157.03049 249.55473,161.68161 267.3668,158.41197 L 269.44017,157.22581 L 269.44016,157.22581 z M 341.2049,122.67149 C 351.44676,116.87165 359.59021,89.597853 343.62668,86.519193 C 331.68284,94.676613 314.39925,106.21453 313.15882,121.20905 C 318.21111,130.56468 333.56287,125.07966 341.2049,122.67149 z M 252.29377,74.447033 C 262.28335,65.439813 290.65751,53.387037 292.74249,41.019907 C 275.22464,37.212564 259.23453,52.95461 247.79394,64.846435 C 243.15034,69.724643 222.40293,92.803193 228.56389,88.671443 C 234.26802,85.168763 246.69698,78.118073 252.29377,74.447033 z"
     id="path2384"
     style="fill:#000000" />
</svg>
