<?xml version="1.0" encoding="UTF-8" standalone="no"?>
<!-- Created with Inkscape (http://www.inkscape.org/) -->

<svg
   xmlns:dc="http://purl.org/dc/elements/1.1/"
   xmlns:cc="http://creativecommons.org/ns#"
   xmlns:rdf="http://www.w3.org/1999/02/22-rdf-syntax-ns#"
   xmlns:svg="http://www.w3.org/2000/svg"
   xmlns="http://www.w3.org/2000/svg"
   version="1.1"
   width="199.02747"
   height="104"
   id="svg2">
  <defs
     id="defs4" />
  <metadata
     id="metadata7">
    <rdf:RDF>
      <cc:Work
         rdf:about="">
        <dc:format>image/svg+xml</dc:format>
        <dc:type
           rdf:resource="http://purl.org/dc/dcmitype/StillImage" />
        <dc:title></dc:title>
      </cc:Work>
    </rdf:RDF>
  </metadata>
  <g
     transform="translate(-117.22558,-448.05572)"
     id="layer1">
    <path
       d="m 202.31123,450.05572 c -1.51293,0 -1.77821,1.05035 -2.27935,9.30118 l -0.38601,6.58068 -2.00362,0 c -4.27906,0 -6.85405,3.42359 -6.8564,9.11736 -0.002,4.39313 1.53186,7.94099 4.88955,11.28641 l 2.48154,2.44478 -0.58821,6.37848 c -0.33406,3.71453 -0.34142,6.6256 -0.0368,7.00346 0.34843,0.43215 1.49421,0.4939 3.45578,0.18381 4.69004,-0.74139 8.02144,-5.34855 8.63943,-11.96654 0.35033,-3.75153 2.32595,-7.36984 3.60283,-6.58067 0.29802,0.18418 0.67504,2.27988 0.82718,4.65059 0.36613,5.70491 2.4671,10.48574 5.11014,11.58052 3.37643,1.39857 7.23939,-0.58998 10.05483,-5.16528 0.56061,-0.91103 0.70484,-0.87686 1.56245,0.33087 1.96565,2.76813 6.57125,0.91001 9.65044,-3.89694 l 0.9007,-1.41539 0.8088,2.59183 c 1.16844,3.7418 3.60341,7.44919 5.36748,8.17989 1.82439,0.75568 4.35591,0.21763 6.52553,-1.37863 1.10981,-0.81652 2.4383,-1.13106 4.50354,-1.08453 2.69509,0.0607 3.08217,-0.11994 4.99984,-2.24258 1.14576,-1.26821 2.52394,-3.13433 3.05138,-4.15428 0.52743,-1.01995 1.03993,-1.7653 1.13967,-1.65436 0.36915,0.41078 0.69517,13.19324 0.36764,14.4297 -0.18679,0.70511 -1.68107,2.69034 -3.30872,4.41163 -3.36265,3.55607 -6.95609,7.99328 -7.53653,9.30118 -0.21537,0.48528 -0.90586,1.67641 -1.52569,2.64697 -0.54236,0.84924 -0.99761,1.86004 -1.10291,2.4264 -1.63555,4.1886 -2.12114,8.88493 -2.13229,12.86724 0.022,5.5476 0.22156,6.87189 1.39702,9.2828 0.75405,1.54657 1.91307,3.20093 2.59183,3.67636 1.9916,1.39497 4.67229,1.08034 6.41524,-0.75365 3.22177,-3.39006 6.94017,-21.68933 7.70197,-37.94 0.004,-0.0938 -0.002,-0.15226 0,-0.23896 0.19989,-1.42048 0.53884,-3.44038 0.68012,-4.26457 0.0971,-0.11375 0.19245,-0.20295 0.29411,-0.33088 1.72221,-2.16711 1.8428,-3.64139 0.25735,-3.03299 -1.18161,0.45343 -1.57258,-2.54722 -1.34187,-10.38571 0.21135,-7.18087 0.79641,-8.73357 3.5293,-9.44823 1.12733,-0.2948 1.18389,-0.0547 1.08452,4.79764 -0.15513,7.5753 -0.091,8.34533 0.8088,8.34533 1.34172,0 2.06069,-1.35396 2.33449,-4.43001 0.35916,-4.03497 1.82366,-6.56329 4.98146,-8.56591 1.47931,-0.93815 2.88096,-1.7095 3.10652,-1.7095 0.89176,0 1.30048,2.37401 1.65436,9.54014 0.22619,4.58047 0.65056,7.74592 1.08453,8.17989 1.18574,1.18574 3.25658,-0.22867 6.2498,-4.28295 5.20503,-7.05013 7.71893,-9.98333 9.30118,-10.82687 1.46647,-0.78181 1.6537,-0.74861 2.49992,0.45955 0.50316,0.71834 1.49336,3.11313 2.18744,5.31233 0.69408,2.19921 1.30411,3.1259 1.56245,3.69474 0.30936,1.1484 0.46504,1.96179 0.68012,2.88594 0.574,1.50971 2.00319,2.00888 2.66536,0.93747 0.19351,-0.3131 -0.46975,-3.21228 -1.47054,-6.43363 -1.93126,-6.2163 -4.58796,-10.64305 -6.37848,-10.64305 -1.67553,0 -5.56429,3.0984 -8.86002,7.05861 -1.64304,1.97431 -2.99623,3.77808 -2.99623,4.00723 0,0.6479 -2.91521,3.63959 -3.54768,3.63959 -0.3249,0 -0.56983,-2.64257 -0.56983,-6.23143 0,-6.61153 -0.99312,-10.23865 -2.81242,-10.23865 0,0 -0.5766,-0.0194 -0.86394,0 -0.32039,0.0217 -0.95585,0.12868 -0.95585,0.12868 -0.95426,-0.0674 -4.88796,1.90062 -6.19466,3.34548 -0.85928,0.95013 -1.26241,1.08281 -1.6176,0.51469 -0.62252,-0.99571 0.0523,-6.82686 1.011,-8.73135 2.66982,-5.30331 4.40627,-18.69589 2.68374,-20.77141 -2.18066,-2.62753 -3.86106,0.41281 -4.7425,8.58429 -0.33887,3.14156 -0.62498,7.06135 -0.62498,8.71297 0,1.65161 -0.31509,3.5763 -0.69851,4.28295 -0.38342,0.70665 -0.84281,2.21317 -1.02938,3.34549 -0.27823,1.68862 -0.62309,2.09304 -1.9117,2.24257 -1.87292,0.21734 -2.60722,-0.88468 -3.41902,-5.16528 -0.76452,-4.03131 -2.06988,-5.90055 -4.1359,-5.90055 -4.01562,0 -8.05526,6.51671 -10.05483,16.21273 -0.72394,3.51039 -1.08524,6.91517 -0.90071,8.52915 0.28339,2.4787 0.17666,2.76848 -1.36025,3.67635 -3.54922,2.09658 -6.08429,0.70499 -7.83064,-4.30133 -1.16758,-3.34713 -1.55222,-5.67541 -2.16905,-13.38194 -0.37221,-4.65039 -0.77904,-6.58562 -1.63598,-7.73873 -1.74668,-2.35037 -3.77233,-2.27527 -6.26818,0.22058 -3.06128,3.06128 -4.87145,7.06938 -6.01084,13.32679 -1.24304,6.82657 -2.02818,8.77582 -4.35649,10.73496 -2.38437,2.00632 -4.29167,1.98394 -5.73511,-0.0735 -2.3192,-3.30578 -2.66478,-5.73067 -2.24258,-15.60614 l 0.38602,-9.33794 -1.34187,0.2022 c -1.18558,0.16819 -1.35266,0.52988 -1.43378,3.19843 -0.10169,3.34581 -0.78038,5.01106 -3.03299,7.42624 -1.9324,2.07185 -2.27825,2.03481 -2.77565,-0.29411 -0.63839,-2.98904 -3.04237,-8.3941 -4.96308,-11.15774 -1.90738,-2.74446 -1.91494,-2.68991 -0.29411,-16.78256 0.39521,-3.4363 0.35738,-3.67636 -0.75365,-3.67636 z m -58.63788,5.88217 c -0.94709,0 -1.23896,0.79777 -1.80142,4.92632 -0.2151,1.57887 -0.59589,3.43175 -0.86394,4.11751 -0.26806,0.68576 -0.93344,2.83815 -1.47054,4.77927 -1.34708,4.8684 -5.57216,15.67169 -6.5623,16.80094 -0.44783,0.51076 -0.8088,1.13542 -0.8088,1.37864 0,0.82804 -4.32433,7.10444 -8.63943,12.53637 -2.36711,2.97975 -4.30134,5.9576 -4.30134,6.61744 0,1.47554 1.43861,1.56191 2.68374,0.16544 0.5048,-0.56616 2.47279,-3.14696 4.37486,-5.73512 1.90207,-2.58815 3.80389,-5.13061 4.22781,-5.6432 2.7103,-3.27721 8.39942,-15.30485 10.88202,-23.03237 0.93417,-2.90781 1.2901,0.11148 1.34187,11.17612 0.0578,12.33944 0.28819,16.79114 0.91909,17.81194 0.83101,1.34462 2.63275,0.34259 5.18366,-2.90432 1.50356,-1.91379 2.73888,-3.63031 2.73888,-3.80503 0,-0.17471 0.68903,-1.3275 1.52569,-2.55506 1.53248,-2.24851 4.38639,-8.08989 6.47039,-13.25327 0.61974,-1.5355 1.27622,-2.79285 1.47054,-2.79403 0.19432,-0.001 0.51592,4.16899 0.69851,9.26442 0.34719,9.68899 0.57363,11.01618 1.94847,11.54376 1.02158,0.39201 5.73976,-3.64231 8.51076,-7.27919 1.10923,-1.45583 2.1632,-2.77932 2.33449,-2.94108 1.38574,-1.30863 5.86378,-10.08625 5.86378,-11.48862 0,-0.43713 0.29588,-0.98005 0.64337,-1.19481 0.43984,-0.27184 0.50976,0.76153 0.23896,3.36386 -0.21394,2.05591 -0.39014,6.31549 -0.38602,9.46662 0.008,6.30238 0.8844,8.42402 4.11752,10.07322 2.18039,1.1122 11.26803,1.2934 11.26803,0.22058 0,-1.45039 -1.38264,-2.20229 -4.08075,-2.20582 -3.19959,-0.004 -6.73183,-0.9124 -7.59168,-1.94846 -1.47338,-1.77532 -1.81218,-10.33468 -0.68012,-16.87448 1.91234,-11.04742 1.96412,-11.82221 0.99261,-12.79372 -0.76762,-0.76761 -1.08665,-0.78914 -1.83818,-0.16543 -0.50152,0.41622 -0.91909,1.10069 -0.91909,1.52569 0,1.448 -6.06288,15.24681 -7.99607,18.19796 -2.38444,3.63999 -7.60787,9.11736 -8.69458,9.11736 -1.22119,0 -1.54407,-2.7536 -1.54407,-13.23488 0,-7.30183 -0.18471,-9.71758 -0.79042,-10.22027 -1.08083,-0.89702 -2.34387,0.6001 -3.54768,4.19104 -0.51387,1.53287 -1.17962,3.25341 -1.47054,3.82341 -0.29092,0.57002 -0.77479,1.69113 -1.08453,2.49993 -1.83392,4.78875 -5.84867,12.12935 -8.21665,15.03629 -2.66945,3.27703 -2.75757,3.33799 -3.29034,1.96685 -0.3012,-0.77516 -0.63375,-10.01807 -0.73527,-20.53244 -0.10152,-10.51438 -0.19429,-19.31558 -0.22059,-19.55822 -0.0263,-0.24264 -0.43723,-0.44116 -0.9007,-0.44116 z m 53.30716,13.10621 c 0.26864,-0.008 0.53045,0.0221 0.8088,0.0919 l 1.58083,0.38601 -0.42278,6.54392 c -0.23316,3.59757 -0.60335,7.04174 -0.82718,7.64682 -0.38455,1.03951 -0.48468,1.01595 -1.65436,-0.25735 -2.32259,-2.52834 -3.80593,-6.7332 -3.38225,-9.55852 0.43366,-2.89188 2.01647,-4.79673 3.89694,-4.85279 z m 67.4979,2.97785 c 0.2821,-0.0147 0.55593,0.0429 0.82718,0.14705 1.0853,0.41648 1.52306,1.46356 2.15066,5.25719 0.87436,5.28521 -1.20814,12.06781 -4.90793,16.01053 -3.28956,3.50554 -4.51055,2.21291 -5.42263,-5.73512 -0.304,-2.64919 -0.10249,-3.95773 1.13967,-7.24242 2.02302,-5.34949 4.2383,-8.33484 6.21305,-8.43723 z m -62.90246,0.6985 c 0.0287,-0.002 0.0636,-0.003 0.0919,0 0.85027,0.0896 2.96233,3.80456 3.82341,6.83803 1.65589,5.83347 1.66125,5.70749 -0.0551,6.36009 -2.05759,0.78231 -4.28217,0.76755 -4.77927,-0.0368 -0.48706,-0.78808 0.28575,-12.79699 0.84557,-13.14297 0.0223,-0.0138 0.0448,-0.0165 0.0735,-0.0184 z m 36.50622,0.18382 c 1.62686,-0.16511 2.48767,2.411 2.16905,7.51815 -0.31587,5.06308 -1.12743,7.07856 -4.20943,10.40409 -1.77531,1.91559 -2.92862,1.99935 -4.1359,0.27572 -1.65729,-2.3661 -0.64152,-9.85458 1.89332,-13.95177 1.69866,-2.74561 3.16985,-4.13322 4.28296,-4.24619 z m -31.59828,15.42231 c 0.91401,-0.058 0.97423,0.26658 0.97423,1.37864 0,2.04534 -1.49358,5.56467 -3.06975,7.24242 -2.77461,2.95343 -5.02285,0.2879 -4.28296,-5.09175 0.34667,-2.52062 0.59649,-2.97256 1.67274,-2.97785 0.69756,-0.004 2.26096,-0.18549 3.47416,-0.38602 0.522,-0.0863 0.92691,-0.14609 1.23158,-0.16544 z m 62.16718,19.66851 -0.31249,5.88217 c -0.45003,8.4879 -3.5652,25.84905 -5.25719,29.26379 -0.69004,1.39265 -1.06426,2.55141 -0.90071,2.75727 -0.25491,0.28971 -0.50917,0.57188 -0.77203,0.82718 -0.11084,-0.0592 -0.53086,0.0109 -1.36025,0.16544 -1.54788,0.28835 -2.01798,0.0726 -3.05138,-1.37864 -1.91001,-2.68236 -2.68002,-6.75152 -2.29772,-12.16874 0.58347,-8.26788 3.64004,-14.59599 10.53276,-21.78241 l 3.41901,-3.56606 z m 41.7634,-40.88108 c -1.56759,0 -1.99562,1.12212 -1.21319,3.18005 0.44932,1.18182 1.01567,1.55236 1.47054,1.23158 0.38489,-0.27143 0.68747,-1.04281 0.79041,-2.26096 0.15701,-1.85797 0.0104,-2.15067 -1.04776,-2.15067 z m -30.34832,-9.96292 c 0.19902,-0.0961 0.22643,0.95585 0.0735,3.06975 -0.15856,2.19213 -0.51459,4.37829 -0.79041,4.87118 -0.66611,1.19025 -0.14041,-6.13477 0.55145,-7.68359 0.0643,-0.14399 0.11951,-0.23517 0.16543,-0.25734 z"
       id="path3920"
       style="fill:#000000" />
  </g>
</svg>
