<?xml version="1.0" encoding="UTF-8"?>
<svg version="1.1" xmlns="http://www.w3.org/2000/svg" width="383" height="83" >
<path d="M2.141,61.26c4.38-6.395,8.894-12.701,13.491-18.941c3.597-4.883,7.272-9.71,11.13-14.391 c2.561-3.107,5.326-6.873,8.808-9.018c0.66-0.406,0.242-0.405,0.249-0.262c0.033,0.688-0.247,1.421-0.441,2.067 c-0.628,2.091-1.582,4.091-2.496,6.066c-2.755,5.961-5.864,11.762-8.865,17.6C18.094,55.905,11.005,68.074,8.379,80.9 c-0.292,1.425,1.694,1.97,2.17,0.598c1.938-5.586,4.434-10.993,7.106-16.259c5.433-10.704,12.902-19.174,20.533-28.306 c0.887-1.062,3.461-5.449,5.037-5.627c0.364-0.041,1.598,1.832,1.609,1.849c2.058,2.922-1.451,7.55-3.002,9.903 C35.059,53.339,26.266,62.005,23.931,74.59c-0.219,1.18,1.457,2.082,2.056,0.866c10.621-21.51,21.644-43.637,41.087-58.462 c2.75-2.097,5.655-4.002,8.723-5.599c2.757-1.435,5.063-1.987,3.947,1.676c-2.198,7.214-7.064,14.059-10.76,20.553 c-4.892,8.596-9.899,17.18-13.901,26.237c-2.114,4.785-4.486,10.543-3.159,15.852c0.352,1.407,2.522,0.811,2.17-0.598 c-1.942-7.768,4.314-17.43,7.721-23.954c5.311-10.17,11.362-19.934,16.729-30.072c1.35-2.551,5.399-8.65,3.585-11.783 c-2.123-3.666-8.203,0.479-10.454,1.816c-23.465,13.954-35.974,39.588-47.63,63.199c0.685,0.288,1.371,0.577,2.056,0.866 c1.509-8.133,5.857-15.046,10.661-21.632c3.84-5.266,9.091-10.402,10.674-16.912c0.921-3.788-2.82-9.934-6.644-6.242 c-3.676,3.548-6.695,7.958-10.096,11.77c-4.423,4.959-8.269,10.142-11.662,15.864C14.772,65.224,11.122,72.995,8.379,80.9 c0.723,0.199,1.447,0.398,2.17,0.598c3.033-14.814,11.707-28.77,18.548-42.076c0.998-1.94,12.84-21.861,7.44-22.966 c-2.619-0.536-5.663,3.445-7.134,5.014c-4.375,4.666-8.261,9.813-12.122,14.903C11.39,44.14,5.707,52.081,0.198,60.125 C-0.625,61.326,1.327,62.45,2.141,61.26L2.141,61.26z"/>
<path d="M87.741,56.413c-4.403-0.488-14.18,1.358-13.996,7.514c0.06,2.004,1.073,3.23,3.139,3.268 c2.766,0.05,3.346-3.455,3.169-5.449c-0.737,0.1-1.473,0.199-2.21,0.299c0.887,2.577,3.58,8.169,7.259,6.874 c1.432-0.505,2.619-1.269,3.854-2.159c1.881-1.357,3.064-1.588,5.353-1.813c2.209-0.216,4.384-1.581,6.23-2.697 c15.814-9.563,21.576-27.565,26.563-44.314c0.362-1.216,3.795-8.986,0.231-9.066c-4.084-0.092-7.949,6.819-9.792,9.614 c-8.924,13.537-13.25,31.357-13.817,47.469c-0.047,1.338,1.796,1.438,2.21,0.299c2.692-7.416,6.61-14.509,11.208-20.899 c1.73-2.405,10.945-14.313,12.86-7.019c1.432,5.453-2.625,11.753-6.322,15.255c-1.747,1.653-4.024,2.755-6.205,1.414 c-0.549-0.338-0.994-0.805-1.666-0.867c-1.632-0.151-1.663,1.907-1.708,3.012c-0.399,9.563,8.246,13.898,16.667,14.137 c1.452,0.041,1.448-2.209,0-2.25c-7.381-0.209-14.501-3.574-14.417-11.887c0.011-1.077-0.96-0.855-0.646-0.647 c0.487,0.321,0.94,0.643,1.464,0.907c0.939,0.476,2.167,0.665,3.198,0.441c7.964-1.73,13.016-12.621,11.805-20.113 c-1.722-10.652-13.67,2.251-15.908,5.075c-5.338,6.737-9.565,14.761-12.5,22.844c0.737,0.1,1.473,0.199,2.21,0.299 c0.406-11.514,3.176-23.138,7.217-33.878c2.499-6.642,6.104-13.241,10.907-18.504c0.53-0.58,1.111-1.105,1.704-1.62 c1.087-0.945,0.97-1.357,0.771-0.455c-0.521,2.362-1.3,4.699-1.99,7.016c-4.266,14.33-9.041,28.717-20.789,38.627 c-2.099,1.771-4.416,3.29-6.85,4.556c-1.956,1.016-3.154,0.607-5.155,0.998c-2.57,0.5-6.649,5.295-9.127,3.287 c-1.278-1.036-2.125-3.011-2.648-4.532c-0.391-1.137-2.328-1.032-2.21,0.299c0.032,0.36,0.064,0.721,0.096,1.082 c-0.942-1.2-0.569-2.056,1.12-2.567c1.149-0.802,2.572-1.117,3.909-1.418c1.526-0.342,3.254-0.352,4.813-0.179 C89.182,58.823,89.167,56.571,87.741,56.413L87.741,56.413z"/>
<path d="M179.546,28.013c3.025-1.428,1.324,7.827,1.02,9.06c-1.299,5.26-3.834,10.255-6.355,15.017 c-1.799,3.398-3.736,6.909-6.189,9.889c-0.88,1.069,0.741,1.688,0.583,0.09c-0.129-1.313-0.253-2.621-0.328-3.938 c-1.366-24.094,18.68-48.753,41.659-54.728c5.195-1.351,15.955-0.171,8.477,6.035c-5.866,4.867-13.111,8.316-19.72,12.033 c-6.045,3.4-12.434,6.696-17.717,11.245c-4.385,3.775-2.178,6.025,0.021,10.512c4.244,8.659,8.019,20.947,17.113,25.8 c1.279,0.683,2.416-1.26,1.136-1.943c-8.567-4.57-12.352-16.753-16.306-24.992c-1.118-2.328-3.523-4.379-1.549-6.641 c2.065-2.366,4.997-4.065,7.623-5.724c6.905-4.36,14.184-8.112,21.228-12.239c4.254-2.492,10.494-5.442,12.982-9.987 c2.105-3.845-2.548-6.587-5.717-6.936c-8.938-0.985-17.952,3.895-24.988,8.846c-16.736,11.775-28.276,30.978-26.256,51.75 c0.136,1.398,0.45,5.262,2.766,3.02c4.154-4.021,6.86-10.221,9.347-15.323c2.682-5.502,6.673-13.563,5.154-19.874 c-0.604-2.51-2.578-4.11-5.119-2.911C177.099,26.689,178.242,28.628,179.546,28.013L179.546,28.013z"/>
<path d="M202.394,65.951c0-0.123,0.008-0.245,0.018-0.367c0.004-0.053,0.009-0.105,0.015-0.158 c0.02-0.192-0.05,0.313,0.001,0.007c0.023-0.141,0.058-0.279,0.1-0.415c0.083-0.267-0.135,0.202,0.052-0.081 c-0.169,0.257-0.405,0.381-0.789,0.31c0.205,0.038-0.25-0.134-0.041-0.014c0.095,0.064,0.084,0.055-0.032-0.029 c0.05,0.043,0.098,0.088,0.144,0.135c0.209,0.204,0.343,0.408,0.509,0.655c0.34,0.509,0.986,0.729,1.539,0.404 c0.505-0.296,0.745-1.029,0.404-1.539c-0.474-0.708-0.996-1.428-1.815-1.745c-0.746-0.288-1.423,0.104-1.862,0.688 c-0.421,0.56-0.491,1.476-0.493,2.15C200.14,67.402,202.39,67.402,202.394,65.951L202.394,65.951z"/>
<path d="M228.161,49.167c5.634-7.337,11.166-14.754,16.605-22.236c3.808-5.236,7.568-10.516,11.109-15.937 c1.216-1.862,2.396-3.752,3.442-5.715c0.384-0.719,1.261-3.515,1.119-3.354c-0.627-0.166-1.254-0.331-1.881-0.497 c0.896,3.15-1.621,9.231-2.469,12.221c-1.809,6.381-5.221,12.018-7.454,18.221c-3.055,8.479-6.063,20.322-3.783,29.345 c1.628,6.441,6.92-0.512,8.405-2.96c3.563-5.875,6.235-12.422,8.714-18.82c-0.736-0.1-1.474-0.199-2.21-0.299 c0.541,4.675,2.608,16.841,9.377,16.374c5.404-0.373,11.078-8.656,13.95-12.403c8.365-10.911,21.818-35.001,1.424-41.336 c-1.39-0.432-1.979,1.741-0.598,2.17c17.497,5.435,5.73,26.265-1.121,35.833c-3.333,4.654-7.368,9.744-12.281,12.833 c-5.483,3.447-8.095-9.962-8.501-13.471c-0.147-1.274-1.738-1.516-2.21-0.299c-1.968,5.08-4.169,10.085-6.646,14.938 c-1.315,2.577-2.842,6.033-5.273,7.755c-1.192,0.845-1.166-9.725-1.102-10.491c0.897-10.643,4.61-19.676,8.822-29.313 c1.938-4.438,3.24-9.147,4.247-13.874c0.401-1.885,1.438-5.057,0.878-7.022c-0.221-0.775-1.306-1.145-1.881-0.496 c-0.677,0.764-0.633,2.045-1.054,2.973c-0.827,1.827-1.945,3.538-3.011,5.23c-3.541,5.625-7.45,11.026-11.343,16.41 c-5.623,7.779-11.374,15.472-17.221,23.086C225.333,49.182,227.29,50.3,228.161,49.167L228.161,49.167z"/>
<path d="M303.151,37.288c-5.068-4.572-12.651,3.475-12.508,8.693c0.055,1.981,1.354,4.979,3.75,4.917 c4.421-0.113,6.85-5.778,8.416-9.093c-0.686-0.089-1.371-0.179-2.057-0.269c0.445,2.722,2.521,12.848,7.334,10.581 c4.516-2.128,6.449-9.886,7.795-14.262c-0.724,0-1.446,0-2.17,0c2.011,5.412,3.911,11.251,4.107,17.053 c0.036,1.081,1.54,1.585,2.097,0.567c0.811-1.48,1.693-2.918,2.605-4.339c1.074-1.673,4.358-6.981,4.632-2.738 c0.295,4.582,3.688,6.171,7.861,6.583c5.559,0.549,10.946-2.529,13.695-7.251c0.95-1.633,2.482-7.842-1.044-7.931 c-2.861-0.071-4.674,3.514-5.072,5.904c-0.673,4.026,3.13,5.438,6.418,5.597c9.57,0.463,19.648-9.063,25.679-15.577 c0.907-0.98-0.225-2.286-1.363-1.768c-7.483,3.411-4.528,14.176-3.995,20.199c0.236,2.665,0.021,6.068,2.045,8.126 c2.516,2.559,8.074-0.08,10.592-1.03c1.345-0.508,0.762-2.684-0.598-2.17c-2.204,0.832-7.968,3.783-9.151,0.317 c-0.879-2.573-0.646-5.752-0.972-8.435c-0.551-4.541-2.319-12.542,3.214-15.064c-0.454-0.589-0.908-1.178-1.363-1.768 c-4.646,5.021-10.113,9.509-16.175,12.69c-2.727,1.431-13.784,4.917-11.869-1.813c0.522-1.836,3.003-4.247,2.494-0.621 c-0.373,2.658-2.488,4.846-4.563,6.328c-4.12,2.942-13.2,3.621-13.623-2.955c-0.108-1.674-0.081-3.224-1.825-3.928 c-3.624-1.462-8.362,8.313-9.564,10.508c0.699,0.188,1.397,0.378,2.097,0.567c-0.204-6.023-2.102-12.034-4.188-17.65 c-0.38-1.023-1.826-1.117-2.17,0c-1.074,3.494-2.402,6.938-4.19,10.131c-3.634,6.486-6.036-3.011-6.599-6.45 c-0.154-0.943-1.656-1.115-2.057-0.269c-1.177,2.491-2.388,4.892-4.302,6.912c-2.28,2.408-3.628-0.074-3.689-2.278 c-0.086-3.126,5.688-9.129,8.685-6.425C302.633,39.848,304.23,38.262,303.151,37.288L303.151,37.288z"/>
</svg>