<?xml version="1.0" encoding="UTF-8" standalone="no"?>
<!-- Created with Inkscape (http://www.inkscape.org/) -->
<svg
   xmlns:svg="http://www.w3.org/2000/svg"
   xmlns="http://www.w3.org/2000/svg"
   version="1.0"
   width="460"
   height="231"
   id="svg2">
  <defs
     id="defs5" />
  <path
     d="M 16.665581,221.55946 C 15.534264,220.8429 15.403791,217.21412 15.93804,201.32477 C 16.656818,179.94727 17.554381,163.00623 18.125274,160.04182 C 18.329414,158.98181 18.752242,153.13049 19.064893,147.03888 C 19.933815,130.10903 22.27354,110.2086 27.00987,79.463234 C 27.814782,74.238234 28.738504,68.163234 29.062585,65.963234 C 29.712362,61.552274 34.57705,34.390444 37.403924,19.389624 C 38.396195,14.124144 39.535225,9.2866435 39.935102,8.6396235 C 40.33498,7.9926135 41.924141,7.4632335 43.466571,7.4632335 C 45.921414,7.4632335 46.599329,8.1948735 48.905027,13.332644 C 52.470526,21.277634 53.717839,34.523454 52.966489,56.463234 C 52.352482,74.392534 52.196406,77.397764 51.07087,92.963234 C 50.273831,103.98579 49.809365,135.08344 50.393406,138.32179 C 50.723883,140.15419 51.31813,139.26186 53.0572,134.32179 C 54.288333,130.82458 56.46407,124.65856 57.892171,120.61952 C 61.573815,110.20687 65.540906,102.46323 67.193693,102.46323 C 69.153435,102.46323 70.436907,106.43991 69.451267,109.45805 C 69.001299,110.8359 68.425097,113.98823 68.170817,116.46323 C 67.916537,118.93823 66.977302,125.68823 66.083627,131.46323 C 65.189953,137.23823 64.365469,147.47273 64.251441,154.20656 C 64.072713,164.76125 63.819641,166.4508 62.416563,166.45656 C 58.198793,166.47385 57.695719,159.88381 60.12692,136.46323 C 60.985344,128.19374 59.340917,129.44662 57.501879,138.46323 C 55.91451,146.24594 52.037717,151.06422 48.301356,149.89813 C 44.180945,148.61219 44.305965,149.52365 44.538265,122.46323 C 44.69416,104.30318 45.038901,95.251464 46.17595,79.463234 C 47.433915,61.996054 47.129936,26.540574 45.679737,21.586034 C 44.975071,19.178574 44.03169,17.603574 43.583336,18.086034 C 42.649557,19.090844 38.455977,39.950934 36.069257,55.463234 C 35.180717,61.238234 34.265655,67.088234 34.035785,68.463234 C 33.805915,69.838234 32.934936,76.504654 32.100276,83.277504 C 31.265616,90.050354 30.283002,96.076714 29.916689,96.669424 C 29.550375,97.262124 28.902931,100.9457 28.477924,104.85515 C 28.052917,108.76459 27.245123,115.56323 26.682827,119.96323 C 25.329141,130.5559 24.674576,137.88738 24.004382,149.96323 C 23.251857,163.52256 22.676245,171.99599 22.102304,177.96323 C 21.837803,180.71323 21.394737,190.38823 21.117712,199.46323 C 20.621955,215.70361 19.900261,222.47808 18.669118,222.44792 C 18.325368,222.4395 17.423777,222.03969 16.665581,221.55946 z M 403.31871,212.21323 C 402.17939,211.32739 401.3954,207.96573 400.62758,200.67401 C 398.9159,184.41882 399.13772,177.31088 402.09312,153.71323 C 402.52858,150.23626 402.38864,148.46323 401.67876,148.46323 C 401.08508,148.46323 400.88739,149.24394 401.23563,150.21323 C 401.71307,151.54209 401.16405,151.3616 398.95425,149.46323 C 397.35368,148.08823 395.87859,146.8727 395.67627,146.76205 C 395.47395,146.6514 397.33039,144.72072 399.80168,142.47164 C 403.96395,138.68364 404.34215,137.925 404.93601,132.17282 C 405.57348,125.9981 406.37045,120.50426 408.92362,104.68437 C 409.65849,100.131 409.94923,96.213604 409.56971,95.979054 C 408.90676,95.569324 401.54412,102.97877 401.54412,104.05567 C 401.54412,104.34433 400.11881,106.35412 398.37676,108.52187 C 394.89775,112.85103 391.6182,113.60427 387.82282,110.94588 C 385.7117,109.4672 385.55074,109.64503 381.50512,117.92587 C 377.59716,125.92495 372.08393,132.46818 369.25932,132.45949 C 366.68397,132.45157 361.37087,128.28081 360.10701,125.27497 L 358.783,122.12609 L 355.14017,127.19665 C 353.13662,129.98545 350.79606,132.53631 349.93894,132.86522 C 345.10729,134.7193 341.45511,132.53652 340.06385,126.96323 C 339.54064,124.86732 339.12346,124.41528 338.67954,125.46323 C 333.78142,137.02598 322.62241,136.46308 322.5211,124.64813 C 322.50448,122.70997 321.42271,124.32625 318.63163,130.45943 C 316.50509,135.13235 313.65083,139.78763 312.28884,140.8045 C 309.97374,142.53298 309.6095,142.5484 306.69523,141.04137 C 304.98074,140.15477 302.92193,138.16072 302.12009,136.61015 C 300.26939,133.03128 298.1497,117.35991 298.8709,112.58814 L 299.41877,108.96323 L 297.63757,112.96323 C 296.65791,115.16323 294.36161,120.77628 292.53469,125.43667 C 290.70776,130.09706 288.36067,135.3547 287.31894,137.12031 C 281.98734,146.1567 269.36099,138.36154 273.90269,128.83748 C 275.62788,125.21973 276.98568,124.79604 280.99707,126.62375 C 284.27694,128.11815 284.30568,130.46323 281.04412,130.46323 C 279.06024,130.46323 278.54412,130.96716 278.54412,132.90421 C 278.54412,136.15393 280.33056,137.10577 282.12727,134.81337 C 286.30517,129.48286 300.79115,91.214164 301.94355,82.463234 C 303.10948,73.609464 303.67341,69.790954 305.63561,57.463234 C 306.72991,50.588234 307.71949,43.211414 307.83468,41.070294 C 308.11155,35.924004 310.66448,34.139154 313.57933,37.054004 C 314.71398,38.188654 315.6953,39.982414 315.76003,41.040124 C 315.95254,44.186014 314.46656,57.779724 313.81488,58.834154 C 313.48347,59.370374 312.83179,61.643784 312.3667,63.886174 C 310.67978,72.019394 310.43013,73.074574 308.56301,79.963234 C 304.81607,93.787354 303.78664,119.73691 306.50672,131.7974 C 307.50908,136.24176 307.74861,136.59525 309.12318,135.65886 C 310.73183,134.56301 322.30881,110.35167 323.08347,106.46323 C 324.12125,101.25402 325.35669,99.463234 327.91264,99.463234 C 331.29213,99.463234 331.63865,100.31661 329.89294,104.34025 C 328.24022,108.14953 327.48973,119.52699 328.4996,125.46323 L 329.09502,128.96323 L 335.06957,120.72218 C 339.48546,114.63107 341.56588,112.54401 343.04412,112.72218 C 344.82712,112.93708 345.05604,113.75273 345.15402,120.2398 C 345.21446,124.24191 345.48143,127.73388 345.74728,127.99973 C 346.44252,128.69497 350.48778,124.47611 354.53776,118.83201 C 356.45926,116.15418 358.26965,113.73823 358.56085,113.46323 C 358.85206,113.18823 359.8778,111.72573 360.84027,110.21323 C 362.70478,107.28321 364.44345,106.76256 366.26859,108.5877 C 367.10121,109.42032 366.98943,110.55858 365.8379,112.97336 C 364.05546,116.71117 364.7373,124.54874 367.00893,126.43402 C 368.61202,127.76447 371.55241,123.81575 378.52545,110.96821 C 382.38897,103.84984 382.96018,101.9353 383.73489,93.507784 C 384.21345,88.301804 385.5165,80.649564 386.63057,76.502804 C 387.74463,72.356044 389.35597,66.038234 390.21131,62.463234 C 392.38648,53.371924 393.26771,51.240894 396.12733,48.156924 C 398.54144,45.553414 398.73871,45.512504 401.64086,47.013264 C 404.51186,48.497914 404.62094,48.786364 404.00559,53.266474 C 403.17245,59.332134 399.06879,73.856984 395.40708,83.700754 C 389.99038,98.262494 389.35714,100.653 390.00364,104.09913 C 390.35075,105.94939 390.95186,107.45862 391.33943,107.45298 C 391.72701,107.44734 394.51912,104.32962 397.54412,100.52471 C 403.20461,93.404824 409.19644,89.008854 411.85172,90.027784 C 415.47742,91.419094 416.29289,99.013934 413.99222,109.96323 C 412.98657,114.74932 410.77449,130.93152 411.07763,131.28461 C 411.22938,131.46137 414.58671,129.77387 418.53836,127.53461 C 422.49002,125.29535 426.0954,123.46323 426.55032,123.46323 C 427.00524,123.46323 427.53562,122.98872 427.72894,122.40877 C 427.92226,121.82882 428.74726,121.25367 429.56227,121.13065 C 430.37729,121.00764 431.5934,120.56375 432.26475,120.14424 C 433.95825,119.08601 439.26741,122.01604 440.03423,124.43208 C 440.38175,125.52702 440.2545,127.15834 439.75145,128.05724 C 438.9433,129.50132 438.55783,129.39805 436.44047,127.17021 L 434.04412,124.64882 L 424.92094,130.30602 C 411.37182,138.70772 409.66179,140.41907 408.57013,146.66946 C 405.30139,165.38495 404.73077,179.29226 407.08422,182.88408 C 408.83823,185.56105 409.3182,193.87258 408.26898,203.40036 C 407.14434,213.61305 406.52869,214.70906 403.31871,212.21323 z M 393.91121,77.035094 C 394.80931,74.324624 395.54412,71.032534 395.54412,69.719354 C 395.54412,68.406174 396.02558,66.432134 396.61404,65.332594 C 397.65151,63.394064 397.93176,62.307004 399.02952,55.963234 C 399.60674,52.627594 399.87818,52.205174 395.90319,60.828474 C 395.17677,62.404354 394.28221,66.004354 393.91526,68.828474 C 393.54832,71.652594 392.6397,75.707314 391.89611,77.838964 C 391.15251,79.970614 390.54412,82.198114 390.54412,82.788964 C 390.54412,84.912074 392.28945,81.929554 393.91121,77.035094 z M 89.631987,161.06911 C 88.995626,160.30234 88.201229,157.36369 87.86666,154.53878 L 87.258352,149.40257 L 85.194935,153.46563 C 83.151775,157.48879 80.556728,158.99377 76.873213,158.29174 C 75.3741,158.00603 74.990408,156.81741 74.746401,151.70319 L 74.448683,145.46323 L 77.437384,145.46323 C 79.081169,145.46323 80.704199,145.91323 81.044118,146.46323 C 81.855728,147.77644 83.544118,147.7491 83.544118,146.42274 C 83.544118,144.43977 87.928472,139.46323 89.675473,139.46323 C 90.640853,139.46323 92.131228,140.46336 92.987418,141.68574 C 93.843598,142.90811 94.544118,143.41174 94.544118,142.8049 C 94.544118,142.19806 95.457218,135.68543 96.573228,128.33239 C 98.736288,114.08064 100.92837,95.197514 102.59455,76.463234 C 106.54505,32.044534 112.75677,19.809434 124.55347,33.211194 C 126.7353,35.689884 128.97325,39.348104 129.5267,41.340564 C 131.54747,48.615534 131.09809,52.808064 124.6902,86.463234 C 123.06706,94.988234 121.4193,103.98823 121.02851,106.46323 C 120.63772,108.93823 119.97929,111.41323 119.56531,111.96323 C 117.84748,114.24552 115.98542,148.47476 117.33493,152.96323 L 118.23691,155.96323 L 118.97753,151.71847 C 119.38487,149.38385 120.11553,147.22811 120.60123,146.92794 C 121.08692,146.62776 121.4623,141.1129 121.4354,134.6727 C 121.37464,120.12852 122.26607,111.96777 124.39767,107.55412 C 128.03403,100.02475 132.97361,100.94539 129.73214,108.54836 C 128.6969,110.97654 127.60879,115.88823 127.31412,119.46323 C 127.01945,123.03823 126.98815,125.40073 127.24457,124.71323 C 127.50099,124.02573 128.34829,123.46323 129.12745,123.46323 C 131.03032,123.46323 130.97144,128.63369 128.98005,136.40685 C 127.33217,142.83917 127.36232,148.14906 129.04412,147.69068 C 129.59412,147.54078 131.16912,145.41626 132.54412,142.96953 C 133.91912,140.5228 135.83162,137.60281 136.79412,136.48065 C 137.83508,135.26702 138.56747,132.72304 138.60175,130.2018 C 138.71424,121.92816 139.87605,117.99109 142.30758,117.64368 C 144.87756,117.27649 144.79169,116.82992 144.5535,129.32368 L 144.37505,138.68412 L 149.77737,132.32368 C 154.14271,127.18412 155.74252,125.96323 158.1119,125.96323 C 159.9808,125.96323 160.94812,126.43255 160.77938,127.25744 C 159.13929,135.2753 159.02882,143.63187 160.52594,146.42925 C 162.15095,149.46562 163.126,148.40373 169.49988,136.65605 C 179.25251,118.68102 183.51289,117.08525 182.76365,131.688 C 182.33939,139.9567 184.3604,151.31468 186.77602,154.2374 C 188.49425,156.31632 186.63859,157.02648 183.73742,155.40027 C 180.32282,153.48626 178.80136,150.29527 177.23573,141.7642 L 175.98761,134.96323 L 172.87326,141.15804 C 166.67892,153.4793 164.58199,155.08553 158.67724,152.03207 C 155.77698,150.53228 153.77754,145.8968 153.30025,139.56605 L 153.04412,136.16887 L 150.54412,139.98476 C 147.08969,145.25746 145.31351,146.19212 141.49035,144.74904 C 138.55317,143.64037 138.29559,143.74271 136.71491,146.64642 C 134.60998,150.51318 130.82515,154.46796 129.24867,154.44792 C 128.58617,154.4395 127.37189,154.00762 126.55028,153.4882 C 125.40257,152.76262 124.70672,153.28447 123.54706,155.74044 C 120.96618,161.20636 114.37541,160.69704 111.92929,154.84264 C 110.27556,150.88471 110.18099,137.98938 111.73217,127.96323 C 112.24273,124.66323 112.68841,121.28823 112.72259,120.46323 C 112.82303,118.03822 118.18094,89.963234 118.54329,89.963234 C 118.62699,89.963234 118.83928,88.388234 119.01504,86.463234 C 119.1908,84.538234 120.32664,78.238234 121.53912,72.463234 C 125.55968,53.313484 124.44917,39.307224 118.48212,33.907134 C 116.62793,32.229104 116.49545,32.320764 114.63907,36.566214 C 111.77951,43.105894 108.23129,61.457004 107.02159,75.963234 C 106.70053,79.813234 106.23411,83.952134 105.98509,85.160784 C 105.73608,86.369434 105.2844,90.644434 104.98135,94.660784 C 103.59114,113.08564 99.661698,146.37866 98.690288,147.96323 C 98.353108,148.51323 97.962218,151.12109 97.821638,153.75848 C 97.681068,156.39587 97.095278,159.43337 96.519898,160.50848 C 95.305348,162.7779 91.319408,163.10232 89.631987,161.06911 z M 258.79888,159.21323 C 257.11136,157.08279 254.64598,148.31106 253.52902,140.46323 C 252.07095,130.21875 251.30354,128.69632 247.21062,127.92849 C 239.68253,126.51621 223.835,132.90919 220.60681,138.66061 C 219.24832,141.08092 219.3227,141.7204 221.50443,146.3785 C 222.81279,149.1719 223.68074,151.65995 223.4332,151.90748 C 222.34585,152.99483 216.57773,147.09511 215.48194,143.77481 C 213.14558,136.6956 219.11356,130.44019 232.5365,125.89889 C 240.24708,123.29022 244.87721,122.87897 248.97902,124.43848 C 251.41949,125.36635 252.02237,124.90021 251.70239,122.33277 C 251.53604,120.99803 253.4105,102.83643 253.95954,100.46323 C 254.27765,99.088234 255.00428,94.138234 255.57429,89.463234 C 256.14429,84.788234 257.07713,79.511204 257.64726,77.736494 C 258.2174,75.961784 258.85578,73.261784 259.06588,71.736494 C 259.27599,70.211204 259.9442,66.713234 260.55079,63.963234 C 262.36324,55.746394 263.63581,48.221594 263.27412,47.859894 C 263.08757,47.673354 260.05612,50.943724 256.53756,55.127394 C 249.91573,63.000934 246.04717,65.463234 240.29874,65.463234 C 236.45459,65.463234 231.88344,62.723914 233.32389,61.283464 C 233.84546,60.761894 236.6197,60.227314 239.48887,60.095504 C 244.49207,59.865664 244.93753,59.603604 250.37483,53.691444 C 256.16181,47.399044 257.80525,44.849884 264.89702,31.165814 C 268.4863,24.240044 269.22343,23.401644 271.49108,23.665814 C 273.37737,23.885564 273.98278,24.485554 273.80924,25.963234 C 273.68005,27.063234 273.45505,30.506644 273.30924,33.615254 C 273.16342,36.723864 272.77095,39.099574 272.43709,38.894594 C 272.10322,38.689624 271.32512,41.321214 270.70799,44.742574 C 270.09086,48.163934 268.8793,53.888234 268.01564,57.463234 C 267.15197,61.038234 265.36743,69.363234 264.04997,75.963234 C 262.73252,82.563234 261.21067,89.313234 260.66808,90.963234 C 259.81742,93.550084 257.8835,108.96015 257.65616,114.96323 C 257.2692,125.18058 257.84237,133.99657 259.01286,135.83079 C 261.35684,139.50396 263.54412,148.58561 263.54412,154.64473 C 263.54412,159.67008 263.28818,160.46323 261.66656,160.46323 C 260.63391,160.46323 259.34345,159.90073 258.79888,159.21323 z M 168.79412,80.172584 C 167.55662,79.614344 166.54412,78.828854 166.54412,78.427054 C 166.54412,77.126014 170.90114,76.514654 172.24208,77.627534 C 175.07202,79.976164 172.52552,81.855814 168.79412,80.172584 z"
     id="path2384"
     style="fill:#000000" />
</svg>
