<?xml version="1.0" encoding="UTF-8" standalone="no"?>
<!-- Created with Inkscape (http://www.inkscape.org/) -->

<svg
   xmlns:dc="http://purl.org/dc/elements/1.1/"
   xmlns:cc="http://creativecommons.org/ns#"
   xmlns:rdf="http://www.w3.org/1999/02/22-rdf-syntax-ns#"
   xmlns:svg="http://www.w3.org/2000/svg"
   xmlns="http://www.w3.org/2000/svg"
   xmlns:sodipodi="http://sodipodi.sourceforge.net/DTD/sodipodi-0.dtd"
   xmlns:inkscape="http://www.inkscape.org/namespaces/inkscape"
   id="svg2"
   version="1.1"
   inkscape:version="0.48.4 r9939"
   width="392.16528"
   height="86.596809"
   sodipodi:docname="Mary C. Dickerson signature.svg">
  <metadata
     id="metadata8">
    <rdf:RDF>
      <cc:Work
         rdf:about="">
        <dc:format>image/svg+xml</dc:format>
        <dc:type
           rdf:resource="http://purl.org/dc/dcmitype/StillImage" />
      </cc:Work>
    </rdf:RDF>
  </metadata>
  <defs
     id="defs6" />
  <sodipodi:namedview
     pagecolor="#ffffff"
     bordercolor="#666666"
     borderopacity="1"
     objecttolerance="10"
     gridtolerance="10"
     guidetolerance="10"
     inkscape:pageopacity="0"
     inkscape:pageshadow="2"
     inkscape:window-width="1366"
     inkscape:window-height="716"
     id="namedview4"
     showgrid="false"
     fit-margin-top="5"
     fit-margin-left="5"
     fit-margin-bottom="5"
     fit-margin-right="5"
     inkscape:zoom="1.3986928"
     inkscape:cx="416.62061"
     inkscape:cy="14.6774"
     inkscape:window-x="-8"
     inkscape:window-y="-8"
     inkscape:window-maximized="1"
     inkscape:current-layer="svg2" />
  <path
     style="fill:#000000"
     d="m 106.83194,81.142536 c -1.11562,-1.11562 -0.76266,-4.98558 1.41184,-15.47919 0.72634,-3.50514 2.65942,-7.94745 2.64205,-10.55258 -0.003,-0.47545 -1.57621,-0.29309 -1.83513,-0.55883 -0.55527,-0.5699 -0.0523,-1.27072 -0.14175,-1.36013 -0.57391,-0.57392 -7.40354,1.27045 -14.712469,1.90355 -1.78237,0.15439 -2.56326,-0.34224 -2.80855,-1.78615 -0.76836,-4.52301 -1.07793,-4.73648 -3.96853,-2.73672 -3.39369,2.34781 -10.64976,5.23672 -13.15305,5.23672 -1.10843,0 -2.343836,-1.17186 -3.061206,-2.90374 l -1.20277,-2.90374 -5.520095,2.90374 c -6.21778,3.27074 -8.31701,3.61251 -8.31701,1.35408 0,-4.46845 8.81009,-14.236111 15.262875,-16.921811 3.684236,-1.5334 3.785536,-1.51639 4.847356,0.81406 0.83208,1.8262 0.73703,3.0525 -0.40838,5.2688 -2.5922,5.015731 -2.56318,10.388611 0.0561,10.388611 2.15738,0 10.99218,-4.55292 13.79904,-7.11118 2.53664,-2.311981 4.443,-0.891251 4.443,3.31118 0,2.57669 0.29907,2.7965 3.75,2.7561 2.0625,-0.0241 5.535409,-0.67977 7.717579,-1.45696 2.18217,-0.77719 4.4705,-1.15169 4.5,-0.63316 0.13332,2.34308 1.29777,1.94539 2.39173,1.46752 1.05878,-0.46251 1.52629,1.51268 1.30337,3.68306 -0.19666,1.91466 -0.91128,4.65305 -2.1607,8.45362 -2.00976,6.11342 -2.85323,14.1947 -1.56467,14.99107 0.60242,0.37232 1.59474,0.52711 1.2783,1.03911 -0.66825,1.08126 -3.58169,1.80023 -4.54893,0.83297 z M 66.501105,49.197146 c 6.845416,-4.788001 8.965536,-7.598641 7.366186,-9.765341 -1.07965,-1.46263 -1.55833,-1.32294 -4.702016,1.37215 -1.925,1.65031 -3.821275,3.00161 -4.213945,3.0029 -0.81766,0.003 -5.78606,7.073521 -5.78606,8.234481 0,1.56653 2.31061,0.67068 7.335835,-2.84419 z M 5.7991896,66.109786 c -2.97096,-2.97096 2.61217,-12.96468 12.2576304,-21.940981 8.65563,-8.05514 11.3814,-16.70322 7.39285,-23.45531 -1.8005,-3.04799 -5.2844,-3.97382 -5.2844,-1.40429 0,0.825 -0.45,1.5 -1,1.5 -1.14108,0 -1.27102,-1.13015 -0.39301,-3.41822 0.78041,-2.03369 6.20371,-2.03863 8.89301,-0.008 1.65912,1.25271 2,2.68011 2,8.37477 0,7.72911 0.005,7.73035 6.66432,1.48512 2.38463,-2.23653 5.62774,-4.91153 7.20692,-5.94444 2.81003,-1.83799 2.90062,-1.83783 4.25,0.008 1.70109,2.32638 1.70313,2.1604 -0.11226,9.13016 -0.82006,3.14844 -1.31641,5.89905 -1.103,6.11247 0.21342,0.21341 2.10468,-1.66563 4.20279,-4.17565 7.80227,-9.334 8.5691,-3.05239 1.45526,11.92098 -5.19944,10.943901 -5.97817,14.373741 -3.65002,16.076131 1.59544,1.16661 1.5604,1.31257 -0.46984,1.95694 -5.24497,1.66469 -4.86411,-5.39314 0.92451,-17.132261 2.1386,-4.33704 4.1749,-9.2355 4.52511,-10.8855 l 0.63675,-3 -2.05548,2.5 c -1.13052,1.375 -3.86221,4.63732 -6.07042,7.24961 -2.20821,2.61228 -5.1481,7.224781 -6.53309,10.250001 -2.48284,5.42325 -4.37155,7.08255 -4.37155,3.84058 0,-0.91289 1.99,-5.75039 4.42223,-10.750001 4.22352,-8.68175 7.56875,-19.93255 6.30295,-21.19835 -0.79825,-0.79825 -3.59651,1.24249 -11.80352,8.60819 -5.0915,4.56958 -7.81108,8.02156 -10.50411,13.33297 C 18.41025,55.344466 7.6821796,67.993276 5.7991896,66.110286 z m 7.8819004,-8.97911 c 4.26129,-5.23118 8.48418,-12.194451 8.48418,-13.989841 0,-1.4402 -9.27582,8.210371 -12.12433,12.614151 -5.5912004,8.644 -3.0598604,9.60065 3.64015,1.37569 z m 241.48418,7.10966 c 0,-1.72108 4.30545,-15.04992 5.22679,-16.18113 1.29687,-1.59228 1.08599,-1.57592 -4.58232,0.35547 -3.14944,1.07313 -6.09261,1.8613 -8.42814,0.88913 -4.3734,-1.82044 -3.65319,-1.59393 -5.61539,-1.22052 -1.4844,0.28249 -3.0499,0.58564 -4.46356,0.60891 l -6.36263,0.10474 0.64745,-4.317481 c 0.59403,-3.96126 0.43442,-4.41455 -1.93443,-5.49387 -4.86236,-2.21544 -6.1998,-1.58241 -6.92889,3.27956 -1.59073,10.607741 -8.142,17.475141 -15.62307,16.376941 -1.55616,-0.22844 -2.62867,-1.41 -3.4184,-3.76596 -1.69684,-5.06209 -3.78475,-5.98472 -7.43544,-3.28565 -6.06186,4.48173 -7.01189,1.54479 -1.41869,-4.38573 3.56684,-3.781951 3.64956,-3.812391 3.14184,-1.156421 -0.46702,2.443071 -0.28057,2.667331 1.78639,2.148551 2.33945,-0.58716 4.82246,1.36557 8.47635,6.66614 1.54536,2.24178 1.61165,2.24858 4.61745,0.47301 5.82975,-3.44372 10.02312,-17.659871 5.56469,-18.865131 -0.9625,-0.2602 -5.91554,-1.46663 -11.00675,-2.68097 -10.22053,-2.43776 -16.78216,-6.29539 -17.83356,-10.48451 -0.92376,-3.68055 1.24335,-5.8142 5.24571,-5.16471 6.13005,0.99477 20.33583,8.436 24.85388,13.01888 3.39704,3.44579 5.3117,4.54564 8.83223,5.07358 5.57618,0.8362 7.09064,2.52561 6.35083,7.0845 -0.68785,4.238721 -0.0283,4.326661 7.203,0.96044 5.40716,-2.51707 8.22109,-2.48964 4.75295,0.0463 -2.54038,1.85757 -1.21162,3.484781 2.84563,3.484781 6.88974,0 11.15885,-3.091661 17.37084,-12.579851 3.13864,-4.79396 7.76624,-10.42015 8.57068,-10.42015 1.67434,0 0.12857,4.02624 -2.88364,7.51093 -1.89651,2.19399 -3.65382,4.77443 -3.90514,5.73431 -1.10695,4.22793 11.1849,-1.89398 16.67051,-8.30268 2.09827,-2.45136 3.75191,-3.6398 4.15563,-2.98658 1.41475,2.28912 -7.3349,10.26207 -14.4728,13.18807 l -2.5,1.02481 3.78058,1.95514 c 5.08393,2.62919 10.71942,1.7527 10.71942,-1.6672 0,-4.57056 10.15081,-8.83334 11.66128,-4.8971 0.36067,0.93989 -0.49119,2.6971 -2.14364,4.42189 l -2.74216,2.86219 4.86226,0.62851 c 2.67424,0.34567 5.52502,0.98465 6.33506,1.41993 0.92842,0.4989 3.61547,-0.3052 7.26964,-2.17544 3.18825,-1.63179 7.82929,-3.19597 10.31343,-3.47597 4.32364,-0.48734 4.56714,-0.37519 5.6996,2.62505 1.33704,3.542211 2.3151,3.758231 7.39877,1.63414 1.97451,-0.825 4.85849,-1.5 6.40887,-1.5 1.55037,0 3.09697,-0.45 3.43689,-1 0.82024,-1.32718 6.20569,-1.28522 7.03387,0.0548 0.43384,0.70196 4.71865,0.84887 12.80902,0.43917 l 12.15711,-0.61564 -2.9375,2.4979 -2.93748,2.497891 7.68748,-0.581411 c 6.5951,-0.49878 7.6875,-0.35611 7.6875,1.003921 0,0.87193 -0.4806,1.88233 -1.0679,2.24533 -0.5874,0.36301 -0.9296,2.26613 -0.7604,4.22916 0.4142,4.80776 -1.602,5.23162 -3.7141,0.7808 -1.4291,-3.01165 -1.4825,-3.81696 -0.3442,-5.18851 1.2044,-1.45122 1.031,-1.56013 -1.633,-1.02615 -4.5229,0.90656 -13.34563,1.13083 -14.1176,0.35886 -0.37613,-0.37613 0.0883,-1.53715 1.03214,-2.580051 1.671,-1.84643 1.55061,-1.88313 -4.58946,-1.39904 -3.46801,0.27342 -7.43048,1.10445 -8.80548,1.846741 -6.92249,3.73708 -11.45739,5.42582 -13.13796,4.89243 -2.30155,-0.73048 -2.36902,-2.23852 -0.20705,-4.62747 1.54509,-1.707311 1.53545,-1.828741 -0.14507,-1.828741 -0.99003,0 -5.149,1.610771 -9.24215,3.579501 -7.61104,3.66076 -9.87715,3.85632 -6.92831,0.59789 1.8716,-2.06809 2.17127,-5.266661 0.63716,-6.800771 -4.45095,-2.420332 -15.31151,4.223441 -17.18495,8.657521 -0.39997,1.08122 -1.40547,1.96586 -2.23445,1.96586 -1.12973,0 -1.36199,-0.72616 -0.92735,-2.89933 0.73799,-3.68997 -0.55817,-4.142151 -11.71105,-4.085581 -14.89124,0.0755 -16.22953,-0.0589 -20.82725,-2.09274 l -4.52363,-2.00101 -1.56575,2.07575 c -2.39058,3.169271 -6.20597,13.401321 -6.39442,17.148481 -0.11448,2.27619 -0.71523,3.44402 -1.88784,3.66985 -0.94596,0.18217 -1.71993,0.009 -1.71993,-0.38429 z m 92.33691,-17.00232 c 1.74979,-1.180111 1.73445,-1.271391 -0.32344,-1.924541 -2.00453,-0.63621 -4.88415,1.510831 -4.98167,3.714341 -0.0383,0.8664 2.77297,-0.0821 5.30511,-1.7898 z m -53.55942,-6.985521 c 2.68512,-1.88073 2.87685,-3.44329 0.42251,-3.44329 -2.10574,0 -4.2,1.84494 -4.2,3.7 0,1.71352 1.06825,1.64092 3.77749,-0.25671 z m -77.80897,-8.9768 c -2.44543,-2.60305 -16.31517,-9.79691 -21.21852,-11.00549 -5.68135,-1.40034 -2.46067,5.10573 4.25,8.58539 2.83042,1.46764 14.50601,4.72645 17.42431,4.86334 1.76774,0.0829 1.73065,-0.11588 -0.45579,-2.44324 z m -58.33621,22.006601 c -2.01143,-1.4708 -2.09929,-3.07992 -0.20778,-3.80576 1.15083,-0.44161 4.57547,3.02445 4.57547,4.63082 0,0.82654 -2.8436,0.28938 -4.36769,-0.82506 z m -19.06159,-4.19694 c -4.41413,-1.12534 -6.3896,-5.809191 -4.20756,-9.976171 2.02019,-3.85793 7.43995,-8.76689 11.63684,-10.54013 8.08931,-3.41783 9.27618,-3.75985 13.04705,-3.75985 3.10388,0 3.94966,0.37589 3.93764,1.75 -0.0227,2.59224 -1.06694,3.7766 -5.33763,6.05379 -3.72263,1.98496 -7.26099,1.99858 -6.04017,0.0233 0.32748,-0.52986 1.24956,-0.71237 2.04907,-0.40557 1.5652,0.60063 7.15806,-3.94078 6.12519,-4.97365 -1.20785,-1.20786 -12.32889,1.75949 -16.03551,4.27864 -4.14329,2.81591 -7.74564,7.92557 -7.74564,10.98658 0,2.53488 3.0341,5.286961 5.82874,5.286961 1.19419,0 2.17126,0.45 2.17126,1 0,1.03115 -2.05733,1.13579 -5.42928,0.27615 z M 242.16527,13.919985 c 0,-3.32693 0.61157,-5.6435698 1.91392,-7.2499998 2.52328,-3.11241 3.84588,-1.62987 2.16552,2.42738 -0.73162,1.7665098 -1.54803,4.6743398 -1.81424,6.4618398 -0.74008,4.96938 -2.2652,3.86572 -2.2652,-1.63922 z"
     id="path2991"
     inkscape:connector-curvature="0"
     sodipodi:nodetypes="sssssssssscsssssssscsssssscsssscsscssssscscscscsssssscssssssssccsssscssssscsssssssssssssssssssssssssssscsssscsssssssssscccsscccssscsssssssccsssscssccccsccssssssscssssscssssssssssssccsssss" />
</svg>
