<?xml version="1.0" encoding="UTF-8"?>
<svg version="1.0" xmlns="http://www.w3.org/2000/svg" width="292" height="126" >
<path fill="#231F20" d="M4.5,85.75c-0.054,2.715-0.392,5.656,0.051,8.343c0.056,0.337,0.416,0.533,0.723,0.551 c0.014,0,0.027,0.001,0.041,0.002c0.321,0.018,0.65-0.241,0.723-0.551c2.918-12.353,5.45-24.759,8.91-37.018 c1.448-5.133,2.583-11.234,5.338-15.875c-0.049,0.083-0.568-0.363-0.363,0.997c0.151,1.002,0.316,2.003,0.481,3.003 c0.544,3.303,1.132,6.6,1.731,9.893c1.39,7.637,2.873,15.265,4.651,22.822c0.61,2.592,1.243,9.402,3.908,10.971 c2.51,1.478,2.356-7.573,2.392-8.126c0.567-8.804,0.941-17.619,1.449-26.426c0.209-3.63,0.438-7.26,0.754-10.882 c0.113-1.297,0.245-2.595,0.44-3.882c0.21-1.383-0.739-1.696-0.511-0.693c2.065,9.083,2.464,18.673,4.257,27.848 c0.165,0.841,2.292,13.673,4.97,11.81c2.017-1.403,1.899-6.367,2.184-8.477c1.836-13.635,3.182-27.331,5.05-40.962 c0.815-5.945,1.659-11.917,3.001-17.77c0.36-1.57,0.735-3.229,1.477-4.67c0.579-1.124,0.857,1.288,1.101,2.368 c4.116,18.248,1.615,37.717,3.963,56.227c0.773,6.098,1.908,13.184,6.21,17.902c3.789,4.156,9.475,2.9,13.946,0.74 c0.871-0.42,0.11-1.714-0.757-1.295C61.989,91.605,62.01,60.667,61.495,49.776c-0.466-9.851-0.554-19.718-1.311-29.554 C59.867,16.1,60.161,8.974,57.54,5.363c-2.958-4.076-6.076,14.999-6.236,16.014c-2.192,13.911-3.63,27.936-5.319,41.914 c-0.517,4.276-0.856,8.679-1.854,12.878c-0.275,1.157-0.059,1.218-0.605,0.113c-0.727-1.465-1.069-3.192-1.467-4.767 c-1.253-4.955-2.07-10.032-2.882-15.074C38.336,51.228,37.622,45.994,37,40.75c-0.115-0.974-0.04-3.094-1.051-3.687 c-2.087-1.223-2.239,7.308-2.29,7.918c-0.709,8.583-1.053,17.199-1.507,25.798c-0.206,3.899-0.418,7.799-0.678,11.695 c-0.095,1.418-0.152,2.856-0.371,4.262c-0.188,1.206,0.297,0.99-0.181,0.013c-2.639-5.395-3.417-12.216-4.625-18.031 c-1.517-7.299-2.868-14.635-4.122-21.982c-0.104-0.607-0.845-9.726-3.057-6.477c-3.406,5.002-4.53,12.53-6.128,18.239 c-2.483,8.869-4.769,17.802-6.819,26.78c-0.528,2.316-1.082,4.645-1.397,7.002c-0.161,1.206,1.218,1.739,1.179,0.571 c-0.031-0.941-0.015-1.885-0.011-2.826C5.948,88.601,5.972,87.175,6,85.75C6.019,84.782,4.519,84.784,4.5,85.75L4.5,85.75 M86.973,76.051c-0.653-2.51-2.443-4.729-4.675-5.999c-3.27-1.859-8.782-1.542-10.912,1.878 c-1.81,2.907-0.238,6.789,1.872,9.038c3.093,3.296,7.777,3.167,11.62,1.429c0.88-0.398,0.117-1.69-0.757-1.295 c-3.367,1.523-7.052,1.481-9.803-1.195c-1.826-1.776-2.885-4.85-1.637-7.22c1.686-3.2,7.108-2.499,9.599-0.892 c1.554,1.002,2.781,2.868,3.246,4.653C85.771,77.385,87.217,76.988,86.973,76.051L86.973,76.051 M84.353,73.872c-1.363,2.647-2.86,8.326,1.198,9.602C91.738,85.417,93.808,76.39,94,72c-0.5,0-1,0-1.5,0 c-0.038,1.266-0.176,4.596,1.299,5.288c1.035,0.485,1.541,0.23,2.659-0.223c1.903-0.77,2.168,2.171,3.317,2.874 c5.227,3.195,9.493-2.351,9.474-7.188c-0.004-0.972-1.455-0.961-1.5,0c-0.478,10.109,3.419,19.741,5.466,29.445 c1.403,6.653,0.612,16.203-7.744,17.188c-4.03,0.476-5.687-1.818-6.778-5.307c-5.698-18.214,6.253-41.504,25.505-44.353 c0.954-0.141,0.547-1.586-0.398-1.446c-11.776,1.742-20.071,9.666-24.46,20.454c-3.258,8.008-5.025,19.317-1.451,27.544 c3.266,7.519,13.777,5.184,16.283-1.951c2.851-8.117-0.638-16.323-2.6-24.203c-1.384-5.562-2.595-11.596-2.323-17.37 c-0.5,0-1,0-1.5,0c0.014,3.514-1.503,6.375-5.25,6.509c-2.45,0.088-2.229-2.303-3.779-3.305c-0.945-0.611-1.56-0.597-2.661-0.336 C93.724,76.172,93.944,73.899,94,72c0.029-0.97-1.458-0.962-1.5,0c-0.143,3.275-0.898,6.416-2.948,9.048 c-1.714-0.782-3.428-1.564-5.142-2.346c0.087-0.856,0.274-1.687,0.563-2.494c0.167-0.536,0.415-1.075,0.674-1.58 C86.089,73.77,84.795,73.011,84.353,73.872L84.353,73.872 M135.474,77.449c1.436-6.544,2.807-13.106,4.009-19.697c0.49-2.691,0.999-5.399,1.026-8.14 c0.01-0.268,0.02-0.535,0.028-0.803c0.232-0.785,0.101-0.907-0.396-0.365c0.416,1.292,0.624,2.679,0.885,4.005 c0.555,2.816,1.004,5.653,1.52,8.477c0.295,1.614,0.416,6.215,2.122,7.214c1.588,0.93,1.692-2.451,1.755-3.107 c0.509-5.354,1.073-10.559,2.425-15.784c0.15-0.582,2.023-5.198,2.166-4.848c1.036,2.532,0.875,5.932,1.268,8.657 c0.206,1.432,2.634,19.454,5.808,17.594c2.3-1.347,2.113-10.411,2.391-12.599c0.916-7.216,1.753-14.468,3.134-21.614 c0.207-1.071,0.448-2.134,0.74-3.185c0.106-0.381,0.232-0.76,0.396-1.121c0.207-0.457-0.457-0.179-0.315,0.3 c1.095,3.701,0.903,8.043,1.301,11.863c0.998,9.593,1.578,21.539,6.945,29.877c5.195,8.073,11.796-3.534,13.967-7.796 c0.438-0.86-0.855-1.619-1.295-0.757c-1.47,2.884-4.649,10.484-8.919,9.807c-3.402-0.54-4.848-7.048-5.587-9.631 c-2.708-9.461-3.512-19.53-4.347-29.298c-0.043-0.503-0.742-8.325-2.818-5.483c-2.543,3.479-2.451,10.324-3.033,14.392 c-0.966,6.749-1.725,13.524-2.663,20.276c-0.12,0.865-0.249,1.729-0.404,2.588c-0.243,1.353-1.313-2.829-1.466-3.386 c-1.694-6.216-2.445-12.662-3.262-19.034c-0.861-6.714-4.155-1.3-5.157,1.951c-1.355,4.396-2.054,9.029-2.527,13.595 c-0.125,1.207-0.173,2.423-0.246,3.634c-0.177,2.928,0.32,1.189,0.127,0.515c-0.696-2.432-1.056-4.985-1.5-7.471 c-0.374-2.095-0.637-11.238-3.088-11.912c-1.978-0.544-1.451,4.415-1.509,5.197c-0.637,8.589-3.084,17.29-4.927,25.689 C133.82,77.993,135.266,78.394,135.474,77.449L135.474,77.449 M187.897,36.622c-1.185-2.099-2.796-4.355-5.004-5.443c-3-1.479-4.739,2.091-5.336,4.427 c-0.589,2.306-0.606,5.753,1.576,7.251c2.934,2.014,6.422-3.771,7.514-5.479c-0.457-0.192-0.914-0.385-1.371-0.578 c-0.656,2.415-2.036,7.614,0.773,9.156c1.953,1.073,4.653-1.267,5.944-2.458c0.782-0.721,1.42-1.628,1.913-2.565 c0.14-0.264,0.815-1.572,0.379-1.075c-0.418-0.11-0.836-0.221-1.254-0.331c0.481,1.85,0.556,4.993,0.994,7.171 c0.191,0.948,1.637,0.546,1.447-0.398c-0.469-2.323-0.405-4.908-0.995-7.171c-0.136-0.522-0.878-0.759-1.254-0.331 c-0.377,0.429-0.503,1.17-0.768,1.673c-0.966,1.837-3.25,4.002-5.383,4.204c-2.146,0.204-0.652-6.367-0.351-7.477 c0.228-0.839-0.918-1.286-1.371-0.578c-0.661,1.033-4.157,6.825-5.924,4.5c-1.119-1.473-0.702-4.03-0.287-5.656 c1.513-5.926,5.789-1.048,7.461,1.913C187.078,38.221,188.374,37.465,187.897,36.622L187.897,36.622 M199.551,68.973c9.758,4.089,11.297-14.496,11.608-19.731c0.649-10.902-11.354-4.827-13.961,1.385 c-1.974,4.703-1.488,10.581-0.108,15.361c0.743,2.572,2.848,7.125,6.27,6.527C211.522,71.087,212.709,56.4,213,50 c0.033-0.724-1.074-1.056-1.397-0.378c-2.577,5.396-4.924,14.001-0.633,19.159c3.176,3.817,8.601,4.669,11.689,0.154 c2.28-3.332,2.893-7.26,3.111-11.217c0.164-2.952,0.522-9.927-2.075-12.258c-4.077-3.658-5.823,6.913-6.019,8.857 c-0.7,7.003,2.343,14.699,10.051,15.635c6.575,0.798,12.968-7.985,12.016-14.052c-0.764-4.862-5.814-2.1-7.485,0.587 c-3.301,5.308,2.455,12.426,8.218,10.787c2.846-0.81,13.931-10.53,9.281-13.744c-1.69-1.168-3.702-0.896-5.346,0.206 c-2.549,1.708-1.82,5.262-0.991,7.65c5.814,16.731,29.078-11.587,15.273-13.51c-0.956-0.133-2.307,0.348-2.316,1.508 c-0.022,2.589,2.911,4.477,4.719,5.866c1.743,1.339,3.581,2.538,5.149,4.091c2.959,2.93-8.486,5.494-8.553,4.198 c0.03,0.593-1.429,0.426,0.43,0.582c1.671,0.14,3.429,0.056,5.077-0.241c2.915-0.524,17.196-6.219,13.144-11.21 c-1.878-2.313-8.4-1.279-8.982,1.928c-0.563,3.111,3.069,5.394,5.336,6.772c4.355,2.648,9.871,2.899,14.433,0.778 c0.876-0.407,0.113-1.7-0.758-1.295c-5.385,2.504-11.443,0.902-15.798-2.86c-3.971-3.431,1.115-6.195,4.27-4.709 c1.749,0.823-1.747,4.072-2.196,4.529c-2.075,2.114-4.904,3.357-7.691,4.174c-2.397,0.703-5.262,0.929-7.756,0.54 c-0.428-0.067-0.773,0.104-0.923,0.524c-1.095,3.083,4.431,2.07,5.593,1.824c4.99-1.059,9.04-3.521,4.192-7.749 c-2.604-2.272-5.935-3.832-7.914-6.754c0.171-1.015,0.624-1.257,1.361-0.725c0.955,0.408,1.582,1.3,1.951,2.239 c1.328,3.38-2.73,7.251-4.721,9.272c-2.334,2.371-5.907,4.548-9.265,3.009c-3.031-1.39-4.824-7.448-1.746-9.512 c0.807-0.422,1.635-0.515,2.486-0.277c2.6,0.559-0.609,4.407-1.063,5.028c-2.132,2.921-5.069,6.439-8.943,6.78 c-6.539,0.575-6.534-9.471-1.985-11.388c2.949-1.243,1.798,3.669,1.488,4.771c-0.931,3.306-2.953,6.292-5.924,8.042 c-5.287,3.114-10.553-1.741-12.121-6.516c-1.348-4.105-0.682-9.746,1.278-13.562c1.547-3.013,2.655,1.402,2.893,2.609 c0.578,2.939,0.517,6.074,0.352,9.05c-0.231,4.172-1.785,10.754-6.801,11.411c-5.388,0.705-7.263-6.45-7.146-10.377 c0.099-3.305,1.233-6.87,2.654-9.846c-0.466-0.126-0.932-0.252-1.397-0.378c-0.259,5.68-1.241,11.708-3.812,16.819 c-2.176,4.327-5.918,5.546-8.325,0.91c-1.769-3.405-2.037-7.635-1.842-11.389c0.196-3.771,1.496-7.876,4.857-9.943 c1.585-0.975,3.525-1.849,5.417-1.927c2.468-0.102,1.885,4.412,1.802,5.798c-0.26,4.369-1.648,20.61-9.648,17.258 C199.058,67.153,198.672,68.605,199.551,68.973L199.551,68.973z"/>
</svg>