<?xml version="1.0" encoding="UTF-8" standalone="no"?>
<!-- Created with Inkscape (http://www.inkscape.org/) -->
<svg
   xmlns:svg="http://www.w3.org/2000/svg"
   xmlns="http://www.w3.org/2000/svg"
   version="1.0"
   width="600"
   height="250"
   id="svg2">
  <defs
     id="defs4" />
  <g
     id="layer1">
    <path
       d="M 71.85613,227.70491 C 71.037873,222.99486 67.075226,211.40893 63.050242,201.9584 C 56.760582,187.19043 54.874368,178.90613 57.999307,179.77458 C 58.460128,179.9026 63.195552,183.83482 68.522464,188.51284 C 73.849372,193.19085 75.77716,195.73436 72.806409,194.16528 C 69.835668,192.5961 67.260901,191.83104 67.084711,192.46503 C 66.352543,195.09975 78.201472,228.67441 80.451569,230.34083 C 83.781243,232.80681 94.005788,232.19818 136.29647,227.01654 C 156.16298,224.58241 174.0369,223.53285 176.01629,224.68418 C 180.78225,227.45638 187.23174,226.91221 184.50951,223.96755 C 181.88763,221.13147 205.80196,217.87198 209.44369,220.56911 C 212.84195,223.08589 221.8307,221.32297 220.95643,218.31112 C 220.60605,217.10406 223.64874,216.08318 227.71795,216.04256 C 231.78718,216.00192 237.12107,215.73674 239.57102,215.45327 C 242.70713,215.09038 243.37684,215.53757 241.83382,216.964 C 238.96078,219.61999 241.62735,220.12582 249.09783,218.34189 C 252.41506,217.54978 255.02774,216.08631 254.90379,215.08984 C 254.48561,211.72806 322.3883,206.99016 352.69403,208.26655 C 358.52641,208.51221 360.24033,204.74712 356.64965,199.57685 C 355.26413,197.58181 353.45572,192.64739 352.63099,188.61147 C 351.80625,184.57555 349.23017,176.76085 346.90641,171.24543 C 344.58262,165.73002 339.96131,146.70786 336.63682,128.97401 L 330.5923,96.730578 L 326.1247,116.88713 C 323.66753,127.97325 321.69267,142.05216 321.73614,148.17356 C 321.83149,161.60295 322.3471,159.87376 317.41661,162.6599 C 313.12084,165.0873 309.71892,163.97239 290.04678,153.69 C 280.35543,148.62447 276.61172,144.84182 279.61184,143.14656 C 280.30274,142.75616 285.19729,145.70418 290.48863,149.69767 C 300.14915,156.98873 316.25772,163.09105 317.17077,159.80549 C 317.43957,158.83824 317.50213,153.02749 317.30985,146.89264 C 317.11752,140.75784 318.66793,127.34409 320.75519,117.08432 C 322.84243,106.82451 323.79279,98.219708 322.8671,97.962448 C 321.94142,97.705188 318.4846,97.920618 315.18528,98.441088 C 310.60142,99.164218 305.7804,97.782918 294.74554,92.584734 C 263.91086,78.059387 243.87331,63.722541 238.00244,51.985062 C 235.28016,46.542493 235.37756,46.13454 240.70433,40.667192 C 243.74363,37.547695 249.27862,33.862528 253.00429,32.47795 C 254.68433,31.853592 255.9744,31.459443 256.82627,31.084728 C 265.49674,27.270683 272.69722,26.44739 284.89532,25.490831 C 297.14735,24.530112 289.03487,27.335146 285.27289,27.690867 C 273.80441,28.775264 268.72789,29.680847 255.62972,33.548195 C 252.81034,34.380629 250.53969,36.699769 249.68953,37.082944 C 248.83938,37.466127 246.44059,39.586866 244.35886,41.795759 C 234.99515,51.731478 248.71279,66.243301 284.19547,83.938761 C 306.36556,94.995208 315.70689,97.058878 323.54244,92.631186 L 330.08944,88.931686 L 327.77275,80.292206 C 325.28227,71.004674 325.31188,70.986222 336.71538,74.724295 C 342.81257,76.722922 345.30546,76.344353 349.34124,72.806831 C 366.90065,57.41537 331.234,30.406888 290.18271,28.009133 C 276.39512,27.203804 283.74191,24.823567 299.68519,24.930449 C 312.67221,25.017531 316.08768,25.811214 326.49712,31.161016 C 350.76234,43.631964 361.57463,56.756566 358.04543,69.456369 C 356.22007,76.02483 345.76069,81.800152 339.0617,79.938504 C 336.91673,79.342459 335.057,79.231815 334.92894,79.692625 C 334.71571,80.459923 336.3675,90.923676 344.34639,139.35065 C 345.89186,148.73064 351.05085,167.2058 355.81079,180.40669 C 363.60968,202.0353 365.01768,204.42379 370.05264,204.56556 C 373.12567,204.65215 381.63362,205.03932 388.95919,205.42599 C 396.28475,205.8127 407.52238,205.4957 413.9317,204.72155 C 438.21306,201.7888 498.10195,198.64417 509.85955,199.68458 C 516.59877,200.28099 527.03528,199.46446 533.05176,197.87021 C 547.09346,194.14933 549.96202,197.2609 544.64523,210.44597 C 541.36635,218.57734 541.41669,219.91833 545.08072,222.04964 C 549.59272,224.6741 549.36628,230.73091 544.80352,229.46298 C 540.8529,228.3651 537.39999,220.65387 537.5931,213.36026 C 537.68301,209.96675 537.01789,206.39124 536.11518,205.4147 C 534.51415,203.68284 514.84672,202.59158 494.34444,203.097 C 478.25826,203.49357 406.58006,208.18313 397.76162,209.41595 C 393.37901,210.02866 387.00502,210.84935 383.59717,211.23975 C 380.18934,211.63013 376.24672,213.71772 374.83582,215.87882 C 371.92033,220.3445 369.6801,220.20054 365.15237,215.25667 C 362.63309,212.50588 357.18988,211.95064 338.35037,212.52285 C 301.65026,213.63741 296.22408,214.10552 262.8743,219.03412 C 245.69427,221.57315 226.79777,223.91863 220.8821,224.24636 C 214.96641,224.57408 201.84041,226.47254 191.7132,228.46508 C 181.58597,230.45771 170.55387,231.32485 167.19743,230.39213 C 161.39296,228.77909 155.81767,229.23726 109.28064,235.15161 C 98.36501,236.53888 85.813756,237.3577 81.388953,236.97124 C 73.757145,236.30469 73.267454,235.82866 71.85613,227.70491 z M 237.96048,219.00087 C 236.59172,218.07885 234.20141,218.04235 232.6487,218.91971 C 230.66588,220.04017 231.40661,220.53914 235.13736,220.59616 C 238.17022,220.64252 239.38144,219.95806 237.96048,219.00087 z M 34.387858,174.35978 C 27.274425,168.59491 27.431989,165.08586 34.713407,167.10931 C 37.588471,167.90828 39.611755,169.74606 39.209601,171.1932 C 38.106053,175.16426 46.591229,179.21961 50.904217,176.78248 C 53.441856,175.34849 57.525227,166.28365 63.727289,148.31591 C 68.732177,133.81646 73.794561,120.66297 74.977042,119.08595 C 76.516379,117.03303 74.821412,114.18293 69.009102,109.05102 C 64.544249,105.10885 57.531161,99.152208 54.031034,93.631298 C 50.530907,88.110405 50.501845,85.370648 48.989517,82.680195 C 37.816358,69.636537 31.355963,-12.311685 80.750789,20.71799 C 87.228925,24.264158 102.49245,38.503669 108.01826,48.282603 C 117.33759,64.774869 120.91296,99.313648 115.83,123.74564 C 114.24375,131.37016 113.08103,133.24519 110.08954,133.00298 C 106.81309,132.73766 102.24267,122.66102 101.54629,114.16721 C 101.44235,112.8995 98.560408,113.87242 95.141976,116.32925 C 91.723542,118.78604 87.089785,120.28575 84.844737,119.66184 C 79.101994,118.06597 75.840954,123.53703 66.609335,150.25542 C 62.183638,163.06439 56.893916,175.53131 54.854392,177.9597 C 50.550738,183.08388 43.656362,181.87122 34.387858,174.35978 z M 111.8297,116.4618 C 113.68034,99.974428 111.98456,77.002849 110.68776,70.476361 C 108.32191,58.569606 95.621592,37.857453 91.822696,34.550943 C 77.482965,10.896904 21.299122,2.9971291 54.234644,82.859868 C 57.723221,91.216692 64.972476,101.4774 71.900488,107.86425 C 79.234134,114.62515 78.946751,114.61256 82.519111,108.32914 C 90.14531,94.915348 99.655081,96.851218 105.41736,112.99053 C 107.62698,119.17935 109.76682,124.33515 110.17256,124.4479 C 110.5783,124.56065 111.32401,120.96695 111.8297,116.4618 z M 93.778245,112.95867 C 97.734215,108.81691 98.004934,101.99402 94.169122,103.10745 C 92.802475,103.5042 89.487585,106.19483 86.802706,109.08662 C 82.19161,114.05317 82.151733,114.40861 86.083129,115.50113 C 88.372246,116.13726 91.835049,114.99315 93.778245,112.95867 z M 98.901136,176.30483 C 93.816609,172.28424 93.393717,170.74059 95.399396,163.52323 C 98.459315,152.51221 103.79837,150.06526 109.80691,156.92005 C 115.46444,163.37451 117.28024,162.29795 115.29894,153.66394 C 114.43707,149.90808 113.35194,148.05638 112.88755,149.549 C 111.53994,153.88034 108.45939,148.94843 109.70738,144.45757 C 111.11426,139.39495 115.71306,140.47161 118.77396,146.58023 C 120.68,150.38416 121.32121,166.53284 119.8126,172.73855 C 119.02166,175.99212 115.22152,172.93937 109.86218,164.74506 L 104.33283,156.2909 L 101.47509,161.31738 C 95.452324,171.91091 104.87165,178.28855 121.53416,174.89893 C 133.3469,172.49589 137.79717,167.85269 139.70515,155.93998 C 141.40085,145.35272 145.29133,142.5419 148.12737,149.85517 C 149.293,152.86102 148.83707,157.1964 146.90905,161.43958 C 143.78315,168.3191 144.22879,176.70822 147.77246,177.69299 C 151.63895,178.76745 157.28769,170.12873 159.99004,159.00854 C 163.40146,144.97038 168.05097,145.95928 166.57239,160.40853 C 165.30473,172.79674 166.99138,175.6523 174.57324,173.95415 L 180.52461,172.62118 L 177.85378,166.22318 C 175.50988,160.60849 175.68543,159.38778 179.28773,156.25207 C 185.51672,150.82983 196.69126,153.79447 204.43576,162.92386 C 212.75009,172.72493 215.79301,173.38047 217.89325,165.82275 C 221.08066,154.35293 234.84017,146.81133 235.72374,156.04991 C 235.95887,158.50823 235.01814,159.12017 232.69104,158.02265 C 228.2226,155.91516 220.69543,164.49797 220.50891,171.9132 C 220.33911,178.66196 226.96674,183.2343 234.47974,181.55157 C 238.61816,180.62462 239.73193,179.10812 240.01134,174.0196 C 240.66482,162.11787 254.87154,153.77785 259.75886,162.42687 C 261.74646,165.94428 261.44613,167.7029 258.07048,172.31349 C 253.47586,178.58904 254.11559,179.21921 262.83664,177.00852 C 269.74186,175.25814 272.26887,175.48812 271.62411,177.80829 C 271.37775,178.69483 266.08143,180.42837 259.85452,181.66064 C 253.6276,182.89287 244.63098,184.67935 239.86206,185.63057 C 229.36166,187.72502 219.30016,185.26294 216.95005,180.02391 C 215.99778,177.90097 214.34303,175.92076 213.27279,175.62333 C 212.20258,175.32593 208.51889,171.76824 205.08681,167.7174 C 197.92627,159.26589 186.23134,154.92232 182.86707,159.46487 C 179.38633,164.16474 184.23318,170.76837 190.18503,169.43531 C 195.80694,168.17611 201.32184,171.41911 200.2314,175.34304 C 199.04679,179.60583 192.34645,181.56455 188.20285,178.85933 C 185.97421,177.40434 181.75432,177.2067 178.06444,178.38455 C 174.04202,179.66855 169.69887,179.36749 166.12009,177.55651 C 161.55484,175.24641 159.7136,175.53054 156.33653,179.06627 C 151.86416,183.74872 142.5614,182.81963 139.4897,177.38369 C 138.25077,175.19113 135.42087,175.35729 128.78476,178.01202 C 116.89741,182.76753 106.30888,182.16262 98.901136,176.30483 z M 193.65903,174.6776 C 193.97861,173.52758 193.82516,172.47134 193.31803,172.33042 C 192.81089,172.18949 191.55293,172.85349 190.5226,173.80603 C 189.49224,174.75854 189.6457,175.81477 190.86359,176.1532 C 192.08149,176.49167 193.33944,175.82763 193.65903,174.6776 z M 256.86146,166.08879 C 257.30544,164.49117 256.91594,162.97484 255.99592,162.71915 C 252.61125,161.7786 247.87136,166.02558 246.49815,171.22931 L 245.08598,176.5806 L 250.57011,172.78706 C 253.58637,170.70064 256.41749,167.68646 256.86146,166.08879 z M 192.86031,141.03176 C 189.89284,135.78033 199.99302,136.15993 204.80185,141.48062 C 206.45268,143.30718 205.16315,143.80858 200.36823,143.20442 C 196.64937,142.73591 193.27081,141.75821 192.86031,141.03176 z M 359.98066,159.24287 C 356.16062,155.73509 356.02099,153.99443 358.87592,145.469 C 360.67324,140.10168 364.35538,133.32824 367.05845,130.41686 C 372.12499,124.95972 377.63302,124.55487 377.99656,129.61279 C 378.26962,133.41157 369.50701,142.93834 367.61869,140.89572 C 364.66071,137.69604 360.19758,149.45116 362.69374,153.86712 C 364.81963,157.62804 365.43538,157.82393 367.95626,155.54113 C 369.52647,154.11923 371.66938,149.92353 372.71829,146.21736 C 375.14184,137.65398 384.67008,133.74654 390.21459,139.04223 C 394.90935,143.52637 395.9789,143.69188 396.98008,140.08914 C 397.4406,138.43199 398.64503,136.83338 399.6566,136.53674 C 401.57105,135.97529 394.90661,158.12482 390.83913,165.84192 C 388.23243,170.78762 382.93534,170.46296 382.44416,165.32745 C 382.26855,163.49134 383.87867,159.13088 386.02217,155.63752 C 391.58054,146.57885 391.88386,144.17106 387.61608,142.98507 C 381.76382,141.35877 377.63902,144.84496 375.25189,153.43494 C 372.57068,163.08321 366.6253,165.34434 359.98066,159.24287 z M 374.16142,132.91895 C 374.98058,129.86418 374.71138,129.72993 372.21345,131.94747 C 368.42919,135.30693 367.65996,138.07496 370.76079,137.17481 C 372.10833,136.78366 373.6386,134.86853 374.16142,132.91895 z M 413.85361,158.50545 C 408.5351,148.35574 406.91646,131.02138 411.06814,128.67535 C 415.53479,126.15141 419.48631,109.99619 416.79987,105.24208 C 413.81372,99.957538 417.0458,88.095405 421.16029,89.238799 C 424.37393,90.131878 425.03664,101.8229 422.84286,118.92092 C 421.68011,127.98319 422.11021,128.95497 429.17825,133.23605 C 433.34883,135.7621 436.82246,139.0382 436.89746,140.51617 C 437.06525,143.82363 434.32825,143.16258 427.71945,138.29961 C 424.93857,136.25328 422.10634,134.89379 421.42561,135.27845 C 420.74489,135.66306 420.44579,141.16951 420.76095,147.51484 C 421.0761,153.86026 420.53567,160.61754 419.55998,162.53092 C 418.04344,165.50515 417.21539,164.92102 413.85361,158.50545 z M 436.87025,154.274 C 435.58801,149.85673 441.98928,139.29688 449.02448,134.22374 C 454.98258,129.92729 456.20858,129.81849 460.26538,133.22562 C 462.84764,135.39437 464.75012,139.7805 464.66011,143.35758 C 464.49557,149.89885 466.58643,153.5747 471.24134,154.92752 C 473.17534,155.48961 474.56123,152.82236 476.08346,145.60858 C 478.09772,136.06308 478.53427,135.55218 483.9498,136.40312 C 488.45834,137.11156 490.63663,139.52176 494.14376,147.68261 C 498.84983,158.6332 504.08556,161.85869 512.19528,158.80324 C 515.40738,157.59305 516.2186,156.39425 514.83682,154.89952 C 511.4945,151.2841 515.23417,143.01937 522.34027,138.3169 C 528.31355,134.36404 529.47706,134.3058 532.74049,137.79656 C 536.28764,141.5909 536.44406,141.43926 537.25522,133.42016 C 537.71732,128.85135 538.2528,119.43585 538.44511,112.49688 C 538.86399,97.386518 539.3984,95.067518 542.27744,95.867598 C 545.77505,96.839568 546.85192,112.43986 544.81383,132.61133 C 543.75715,143.06914 544.08174,156.24934 545.55415,162.67301 C 546.99621,168.96446 547.29034,174.61256 546.20777,175.22428 C 545.12515,175.83605 543.78587,174.69857 543.23157,172.69662 C 540.18474,161.69196 540.17017,161.67789 534.68795,164.42491 C 531.67503,165.9346 527.0876,166.09757 523.74334,164.81373 C 520.57669,163.59813 514.36935,163.38857 509.94926,164.34818 C 499.66153,166.58153 492.28171,161.37696 488.81826,149.44562 C 486.0254,139.82439 480.02034,136.42919 479.94656,144.42966 C 479.92093,147.20993 479.69908,150.25739 479.45356,151.20176 C 479.20805,152.14614 481.13872,152.84144 483.74398,152.74688 C 487.7332,152.60211 488.15642,153.31798 486.42544,157.28205 C 484.62956,161.39482 483.06288,161.70149 474.01548,159.71093 C 468.32044,158.45801 462.66348,155.99664 461.44446,154.24134 C 459.70636,151.73863 457.96593,151.97632 453.38003,155.34268 C 447.41864,159.71868 438.27902,159.12712 436.87025,154.274 z M 455.59067,147.59521 C 459.90297,141.1523 460.70706,134.01513 457.22952,133.04876 C 454.15391,132.19408 441.26916,148.07662 441.66661,152.23254 C 442.22235,158.04293 450.42668,155.31055 455.59067,147.59521 z M 533.43915,159.81334 C 536.06703,157.98833 536.88601,155.50273 536.66871,150.01178 C 536.39117,142.99958 536.29611,142.90967 534.63734,148.09006 C 533.6802,151.0792 531.16015,154.30396 529.03726,155.25626 C 526.91437,156.20852 524.94803,157.81336 524.66755,158.8226 C 523.83892,161.80443 529.63026,162.45853 533.43915,159.81334 z M 528.29948,150.28753 C 531.89292,146.41714 532.99568,143.85776 531.90312,141.92422 C 529.45857,137.59816 522.66146,141.7256 520.71897,148.71558 C 518.5325,156.58355 521.82091,157.26547 528.29948,150.28753 z M 565.8408,177.68793 C 565.34098,172.46207 565.60979,172.16531 568.74223,174.4853 C 570.28333,175.62659 571.17995,177.87115 570.73477,179.47316 C 569.63389,183.43458 566.27316,182.20867 565.8408,177.68793 z"
       id="path2455"
       style="fill:#000000" />
  </g>
</svg>
