<svg xmlns:svg="http://www.w3.org/2000/svg" xmlns="http://www.w3.org/2000/svg" version="1.1" width="400" height="99.1" viewBox="0 0 400 99.1"><style>.s0{fill:#1a1919;}</style><g transform="matrix(0.43775311,0,0,0.43775311,-9.2316375,-4.9450112)"><g transform="translate(5.4794522,0)" fill="#1a1919"><path d="m734.7 11.3c-0.5 0-1.1 0-1.7 0-5.3 0.1-15.7 1.7-28.3 4.5-2.5 0.5-7.6 1.4-11.5 1.9-3.8 0.5-9.5 1.4-12.5 1.9-11.6 2.1-24.8 4.2-31.5 5.1-7.2 0.9-10.5 1.7-21 4.5-3.3 0.9-7.1 1.8-8.5 2.1-13.5 2.5-21.8 4.8-34 9.4-4.1 1.6-8.6 3.2-9.9 3.5-3.1 0.9-17.5 7.7-22.5 10.7-7.4 4.4-6.9 11.6 1.8 25.7 2.2 3.6 4.6 6.9 5.3 7.3 0.7 0.4 2.4 3 3.8 5.6 1.3 2.7 3 5.4 3.8 6.2 3.2 3.3 11 14.3 15.2 21.5 5.6 9.5 5.9 12.6 1.3 14.8-1.8 0.9-6.4 3.9-10.2 6.8-3.8 2.9-8.8 6.3-11 7.6-2.2 1.3-6.6 4.6-9.7 7.3-3.1 2.7-5.9 4.9-6.3 4.9-1.4 0-15.4 11.7-21.3 17.9-9.4 9.8-8.2 11.7 3.7 5.5 6.3-3.3 13.7-8.6 18.6-13.3 1.1-1.1 4.4-3.6 7.4-5.5 3-2 6.8-4.7 8.5-6.1 8.6-7 11.9-9.4 12.7-9.4 0.5 0 2.4-1.4 4.3-3 4.9-4.3 10.1-6.4 11.6-4.6 2.4 2.9 4.2 13.2 4.1 24.1-0.1 11.5-1.2 16.8-5.2 24.4-4.7 8.8-5.4 9.9-9.6 14.2-10.4 10.8-12.5 12.5-20.7 16.5-7.6 3.7-8.5 3.9-17.5 3.9-9 0-9.9-0.2-16.5-3.6-5.5-2.8-7.1-4.2-7.7-6.5-1.2-4.3 0.1-9.1 3.3-12.5 2.9-3.1 3.7-6.2 1.9-7.4-0.7-0.4-0.7-1.2 0-2.5 1.3-2.4 0-3.3-3.5-2.4-1.6 0.4-2.5 0.2-2.5-0.5 0-0.6-0.6-1.1-1.4-1.1-1.5 0-6.6 6.9-6.6 8.9 0 0.7-0.7 2.8-1.6 4.7-1.1 2.2-1.4 4.7-1 7.2 0.3 2.1 0.8 5.3 1 7.1 0.2 1.9 1.7 4.9 3.3 6.8 3.1 3.9 13.6 10.2 17 10.2 1.2 0 2.5 0.5 2.9 1.1 0.4 0.7 4.7 1 12.3 0.8 11.3-0.3 11.9-0.5 20.1-4.5 15.4-7.5 23.8-15.4 35.5-33.6 7.3-11.4 10.5-34.6 6.7-48.7-1.1-4.1-2.3-9.3-2.7-11.5-0.6-4-0.6-4.1 4.6-7.6 2.9-2 6-3.9 6.8-4.2 0.8-0.3 2.2-1 3-1.5 4.2-2.4 16.3-7.7 19.5-8.5 2.1-0.5 7.5-2.4 11-3.8 6.1-2.4 25.3-6.9 32.4-7.6l5.4-0.5-5 4.4c-2.8 2.4-5.9 5.1-6.9 6-1 0.9-2.8 2.7-4 4-2.3 2.7-6.2 5.9-7 5.9-1.1 0-21.9 10.5-23.8 12-9.2 7.3-11.6 10.6-11.6 16.3 0 2.8 0.8 4 4.3 6.9 2.3 1.9 6.3 4.4 8.8 5.5 5.4 2.5 10.5 8 11.4 12.2 0.4 2.2 0 4.2-1.5 6.9-2 3.5-2.1 4.1-0.8 8.4 2.1 7 6.9 7.8 6.9 1.2 0-2.7 0.7-3.8 3.3-5.6 4.2-2.9 4.7-3.7 4.7-7.4 0.1-8.5-7.7-19.5-18.3-25.8-4.7-2.8-4.7-2.8-3-5.2 1-1.3 3-3.2 4.6-4.2 1.6-1 3.9-2.5 5.2-3.3 1.3-0.8 5.6-3.5 9.6-5.9 6.9-4.2 9-5.7 17.6-12.6 2.1-1.7 5.9-4.1 8.5-5.4 5-2.5 7.5-5.9 9.6-12.8 1-3.5 1-4.7-0.3-7.1-1.8-3.4-3.3-3.8-14.6-3.6-6.2 0.1-11 0.9-17.5 2.9-4.9 1.5-10.5 3.1-12.4 3.6-6.9 1.7-24.9 8.1-28.2 10-1 0.5-2.4 1-3.1 1-0.8 0-3 1.1-5.1 2.5-2 1.4-4.1 2.5-4.6 2.5-0.5 0-3.7 1.8-7.1 3.9-6.7 4.2-8.4 4.3-9.3 0.5-0.3-1.3-2.2-4.9-4.1-7.9-1.9-3-3.8-6.3-4.1-7.2-0.3-1-2.7-4.2-5.3-7.2-2.6-3-6.4-8.4-8.5-12-2.1-3.6-4.9-7.5-6.1-8.7-1.2-1.2-3.2-4.2-4.3-6.5-1.1-2.3-2.7-5.2-3.6-6.4-1.5-2.1-1.4-2.2 5.7-6.1 11.1-6.1 43.5-17.4 53.3-18.7 5.1-0.7 19-4 23.5-5.6 1.4-0.5 9.5-1.8 18-2.9 20.7-2.7 33.5-4.7 39-6.1 2.5-0.7 7.4-1.4 11-1.6 3.6-0.2 8-1.1 9.8-2 3.6-1.7 5.9-0.9 2.7 0.9-1.1 0.6-3.4 2.5-5.1 4.3-1.8 1.8-6 4.9-9.3 6.9-3.4 2-6.1 4.2-6.1 4.8 0 0.6-1.9 2.8-4.2 4.9-5.6 5.1-4.1 7 2.7 3.4 2.6-1.4 5.3-2.6 5.9-2.6 0.6 0 2.8-1.5 4.8-3.2 6.4-5.6 18.6-14.8 24.2-18.1 5.9-3.5 7.2-7.5 3.7-11.8-1.4-1.8-2.5-2.2-6-2.3zM249.6 40.7c-2 0-4.1 1.4-7.8 5.3-7.7 8-10.2 11.4-10.2 13.5 0 1.1-1.5 3.3-3.2 5.1-1.8 1.7-3.9 3.8-4.7 4.7-0.8 0.9-4.4 4.4-8 7.8-3.6 3.5-8.1 8.4-10 11-1.9 2.6-5.9 7.3-8.8 10.4-2.9 3.1-7.2 8.1-9.5 11.2-10.3 13.5-13.7 17.2-20.7 23-4.1 3.4-9.2 7.8-11.2 9.8-2.1 2-4 3.3-4.3 3-0.3-0.3 1-2.8 2.9-5.6 4.2-6.2 5.5-12.3 3.3-15.6-1.9-3-6.9-4-10.5-2.2-1.5 0.8-3.8 1.4-5.2 1.4-4.3 0-23.3 12-26.4 16.8-0.9 1.4-2.5 2.5-3.5 2.5-1.7 0-1.8-0.3-0.9-3 0.6-1.6 1.4-3 1.8-3 0.4 0 2.7-3 4.9-6.6 3.6-5.8 8.7-12.5 14.3-18.8 1-1.1 1.8-2.4 1.8-2.9 0-0.5 1.3-2.4 2.8-4.1 6.1-6.9 15.1-27.8 15.2-35 0-4-3.3-9.3-6.4-10.1-3.6-0.9-12.3 0-18.6 2-3 0.9-7.1 2.1-9.1 2.5-2 0.4-10.6 4.2-19.1 8.4-8.5 4.2-16.2 7.7-17.1 7.7-0.9 0-1.8 0.4-2.1 0.9-0.3 0.5-1.7 1.2-3.2 1.6-1.5 0.4-4.3 1.8-6.2 3.1-2 1.3-4.4 2.4-5.4 2.4-1 0-4.7 2-8.3 4.5-3.6 2.5-7 4.5-7.5 4.5-0.5 0-3.3 1.6-6.1 3.5-2.8 1.9-7.6 4.2-10.7 5.1-6.9 2-16.1 9.4-16.1 12.9 0 2.2 4.7 7.7 6 6.9 0.3-0.2 3.7-0.6 7.6-1 10.3-0.9 21.3-4.4 20.1-6.4-0.2-0.4-3.1-0.8-6.3-1-3.2-0.2-6-0.5-6.2-0.7-0.8-0.8 2.2-3.5 4-3.5 1 0 4.2-1.6 7-3.5 2.8-1.9 6.7-4.3 8.7-5.2 2-0.9 3.8-1.9 4.1-2.2 1.4-1.5 12.5-7.1 19.5-9.7 6.8-2.6 8.9-3.5 12-5.1 9.8-5.2 25.2-12.6 27.9-13.4 3.1-0.9 17.4-3.9 18.9-3.9 1.5 0 0.7 5.8-1.2 8.2-1.1 1.4-2.9 4.9-4 7.8-1.1 2.9-4.5 8.8-7.5 13.2-3 4.3-5.5 8.2-5.5 8.7 0 0.4-2.3 3-5.1 5.7-2.8 2.7-5.9 6.6-6.9 8.5-1 2-2.6 4.2-3.6 5-1 0.8-2.4 2.8-3.1 4.4-0.8 1.7-2.8 5.3-4.5 8-3.1 5-4.1 7.8-6 16.8-0.8 3.9-0.7 5.3 0.6 7.3 2.1 3.2 8.4 3.4 11.1 0.3 1-1.2 4.5-4.1 7.7-6.5 9.2-6.8 11.7-9.1 11.7-10.8 0-0.9 1.1-2 2.5-2.6 4.6-1.8 7-3 12.5-6.5 6-3.8 8.3-4.5 5.7-1.6-0.9 1-1.7 2.5-1.7 3.3 0 0.8-0.9 2.3-1.9 3.2-1.1 1-1.7 2.5-1.4 3.6 0.3 1.1-0.8 3.9-2.6 6.8-3.7 5.8-4 9.5-0.9 11.6 3.1 2.2 5.4 1.9 9.1-0.8 1.8-1.3 4.8-3.2 6.7-4.1 1.9-1 5.3-3.4 7.5-5.3 3.8-3.4 4-3.5 4.3-1.4 0.2 1.2-1.3 5.7-3.2 10-6.8 15.1-9.8 31.4-7.2 39 1.6 4.8 3.3 6.8 6.1 7.5 1.1 0.3 2.7 0.5 3.6 0.6 2.6 0.2 16.1-3.4 20.3-5.4 3.1-1.5 3.5-2 2.2-2.7-0.9-0.5-3.7-0.6-6.3-0.3-13.2 1.8-14.2 1.8-14.9 0-0.4-1-0.1-5.8 0.5-10.7 0.9-6.9 2.4-11.7 6.3-20.6 2.8-6.4 6.4-15.1 7.9-19.3 2.6-7.2 5.4-12.6 7.1-13.8 0.4-0.3 1.4-2.1 2.2-4 0.8-1.9 2.5-4.4 3.8-5.5 1.3-1.1 5.9-6.1 10.3-11 4.4-4.9 10.3-11.4 13.1-14.4 8.2-8.9 22.3-26.1 26-31.8 1.9-2.9 3.8-5.2 4.3-5.2 1.9 0 11-15.4 11-18.6 0-2.7-3-5.4-6-5.4zm113.2 6.9c-2.3 0.1-4.8 0.7-7.9 2.2-2.3 1-5 1.9-6 1.9-2.9 0-6 2.7-6.6 5.8-0.4 1.8-1.6 3.3-3.2 4-3.8 1.7-5.1 1.5-3.2-0.6 4.1-4.6 0.6-4.2-9.1 1-4.3 2.3-8.6 4.9-9.7 5.8-1.1 0.9-3.8 2.9-6 4.4-11.8 8-21.4 16.8-27.2 25.2-4.5 6.5-12.1 21.2-12.7 24.8-0.2 1.2-1.1 5.6-2 9.7-0.9 4.1-1.9 9.7-2.3 12.4-0.7 4.5-1.2 5.2-5.3 7.7-5.7 3.5-6.2 3.5-5 0.3 2.6-6.9-0.2-11.8-7-11.9-2.5-0.1-4.8-0.9-6.2-2.2-3-2.7-9.8-6.3-12-6.3-2.6 0-16.2 3.9-19.7 5.6-1.7 0.8-4.8 3.6-7 6.1-8.7 9.9-5.6 17.2 9.2 21 5.7 1.5 7.5 1.5 16.5 0.3 9.8-1.3 10.1-1.3 12.4 0.8 3.4 3.2 8.6 2.8 17.2-1.4 7.4-3.5 9.7-4.2 9.7-2.7 0 0.4 1.1 2 2.4 3.6 2.1 2.4 2.3 3.2 1.4 5.7-2.1 6 2.1 12.6 9.5 15 4.4 1.4 12.3 0.2 21.1-3.3 3-1.2 7.8-2 12-2.2 10-0.3 30.6-2.4 33.5-3.5 1.4-0.5 4.1-1.2 6-1.6 1.9-0.4 6.8-2.2 10.8-4.2 4-1.9 7.6-3.2 8-2.8 0.4 0.4 0.6 13.7 0.4 29.6-0.2 28.3-0.2 28.9 1.7 27.9 2.7-1.4 4-6.1 5-17.6 0.5-5.5 2-18.2 3.5-28.4 1.4-10.2 2.6-18.6 2.6-18.8 0-0.2 1.3-0.9 3-1.5 1.6-0.7 4.4-2.5 6.3-4 1.8-1.5 6.7-5.5 10.8-8.9 12.8-10.4 39.4-38.6 49.2-52 2-2.8 4.4-5.6 5.2-6.2 0.8-0.6 2.5-4 3.7-7.5 1.8-5.4 2-6.9 1.1-10.1-1.5-5.1-3.3-6.3-11-7.7-10.9-1.9-12.9-1.7-15.9 1.7-2.2 2.5-7.9 5.9-9.9 5.9-0.3 0 0.7-1.1 2.2-2.6 1.5-1.4 2.5-2.8 2.2-3.1-1-1-6.7 0.8-9.5 3-1.5 1.2-4 2.8-5.6 3.6-3.1 1.6-17.6 17.1-17.6 18.8 0 0.6-1.5 3.1-3.4 5.5-1.9 2.4-3.7 5.5-4.1 6.8-0.4 1.3-1.9 4.6-3.4 7.4-1.5 2.8-3.5 7.3-4.5 10-1 2.8-2.2 5.5-2.6 6-2 2.6-5.1 13.1-5.9 20-0.5 4.2-1 7.8-1.2 7.9-3.7 2.7-27.8 12.6-30.6 12.6-0.7 0-1.3-1.2-1.3-2.9 0-3.5-3.5-6.1-8.2-6.1-2.8 0-4 1-8.2 6.1-5.1 6.3-8.4 7.5-7.9 2.9 0.1-1.3-0.4-3.9-1.3-5.6-2.1-4.3-9.8-11-13.6-11.8-6.7-1.3-16 1.7-20.8 6.8-3.1 3.4-5.1 3.3-5.1-0.2 0-2.1 0.8-3.2 3.4-4.7 13.4-7.9 43.5-32.8 59.5-49.3 8.7-9 22.1-26.1 22.1-28.2 0-0.7 1.6-4 3.5-7.5 2.5-4.5 3.5-7.5 3.5-10.7 0-5.4-0.6-6.4-4.5-7.4-1.5-0.4-2.9-0.6-4.3-0.6zm119.5 10.3c-1 0-1.9 0.6-2.8 1.8-2.2 2.7-2.3 6.5-0.3 10.4 0.8 1.6 1.5 3.3 1.5 3.9 0 0.6 1.8 3.9 4 7.4 5.8 9.2 6.2 10.5 4 14.7-1 2-3.3 5-5.1 6.8-3.6 3.7-14 19.5-14 21.4 0 0.7-1.1 2.5-2.4 4.1-1.3 1.6-3.4 4.8-4.6 7.3-1.2 2.5-3.2 5.7-4.3 7.2-1.9 2.6-2.2 2.7-4.3 1.3-7-4.6-11.7 0.9-8 9.2 1.8 4.1 1.8 4.1-0.8 10.6-3 7.6-3.2 9-1 11.1 3.2 3.2 7.2 1 10.8-6.2 1.3-2.5 2.3-3.2 4.4-3.2 1.5 0 3.2 0.4 3.7 0.9 0.5 0.5 7.1 2.5 14.6 4.5 22.4 5.9 31.5 4.8 41.4-5.1 2.4-2.4 4.6-5.6 5-7.1 1.6-7.6 2.3-17.5 1.4-21-2.2-8.6-2.6-9.9-3.6-11.8-0.6-1.1-1.6-4.2-2.3-6.8-0.7-2.6-2.1-5.9-3.2-7.3-1.1-1.4-3-4.4-4.2-6.7-5.2-9.7-8.9-16.3-10.1-17.7-2.1-2.6-5.4-9-5.4-10.6 0-3.9-9.7-17.9-13.3-19-0.4-0.1-0.7-0.2-1.1-0.2zM354.9 61.7c1.4 0 2.7 0.6 2.7 1.4 0 0.8-0.4 1.7-0.9 2-0.5 0.3-1.2 2.1-1.5 4-0.4 1.9-1 3.6-1.5 3.8-0.5 0.2-3.7 3.9-7.1 8.3-7.5 9.6-31.5 33.3-38.5 38.1-2.7 1.9-7.7 5.7-11 8.4-3.3 2.7-8.4 6.5-11.3 8.5-2.9 1.9-5.5 3.5-5.7 3.5-1.1 0-0.3-5.3 1.9-12.1 2.9-9.1 8.6-19.9 13.2-25.3 9.1-10.8 11.8-13.5 13-13.5 0.7 0 1.7-0.6 2.1-1.3 1-1.6 16.5-12.6 20.8-14.7 1.7-0.8 5-2.7 7.5-4.2 2.5-1.5 6.4-3.2 8.7-3.8 2.3-0.6 4.5-1.6 4.8-2.1 0.4-0.6 1.2-0.9 2.2-1 0.2 0 0.4 0 0.6 0zm95.5 11.4c0.8 0 1.6 0 2.3 0 1.9 0.1 3.2 0.2 3.4 0.6 0.9 1.5-2.7 8.6-7.5 14.5-2.2 2.8-5.9 7.4-8.1 10.4-6.4 8.4-38.7 40-45.6 44.6-0.9 0.6-2.6 1.5-3.6 1.8-1.6 0.6-1.8 0.3-1.2-2.1 1-4.3 4.6-12.7 10.3-24.1 2.9-5.7 5.3-11 5.3-11.7 0-0.7 0.7-1.9 1.6-2.6 0.9-0.7 2.5-3.1 3.6-5.3 2.3-4.5 19.1-22.2 22.8-24.1 2.2-1.1 10.8-2.1 16.7-2.2zm453.5 14.6-2 3.3c-1.7 2.8-2.7 3.4-6.7 4-2.6 0.4-5.7 0.7-6.8 0.7-1.9 0-2-0.1-0.2-2 1.6-1.8 1.7-2 0.1-2.6-1.8-0.7-23 1-31.6 2.6-3 0.5-8.9 1.5-13 2.1-8.4 1.2-19 3.4-26.5 5.4-2.7 0.7-7.6 1.9-10.8 2.5-13.7 2.7-30.1 15-32.8 24.6-1.2 4.2-1.1 5.1 1.2 10.8l2.5 6.2-8.4 4.2-8.4 4.2 0.6-2.7c0.3-1.5 0.9-3.6 1.2-4.7 0.7-2.6-2.8-6.5-5.8-6.5-3.5 0.1-10.4 4.4-21.9 13.8-4.7 3.8-7.3 5.3-8 4.7-0.3-0.3-0.1-2.8 0.3-5.7 0.6-4 0.5-5.7-0.7-7.5-1.7-2.5-3.2-2.7-13.8-1.3-5.8 0.8-7.3 1.4-9.7 4-1.5 1.7-3.4 3.1-4.2 3.1-0.8 0-2.2 1-3.3 2.3-3.1 3.6-7.4 9.5-7.4 10.1 0 0.3-1.1 2.2-2.5 4.2-1.4 2-2.5 4.8-2.5 6.2 0 2.8 2.6 6.2 4.8 6.2 2.4 0 6.9-3.4 18.5-13.9 7.1-6.5 8.5-7.3 6.8-4.2-0.6 1.1-1.3 4.9-1.5 8.5-0.4 5.6-0.2 6.9 1.5 8.6 1.1 1.1 2.8 2 3.8 2 1 0 4.7-2.9 8.2-6.5 3.5-3.6 6.8-6.5 7.3-6.5 1.1 0 9-6.1 10-7.7 0.4-0.7 1.7-1.7 2.7-2.3 1.6-0.9 1.4-0.1-1.2 5.2-2.8 5.7-3 6.4-1.7 8.8 2.5 4.5 6.1 3.9 12-2 8.7-8.7 18.8-13.8 18.8-9.5 0 3.6 5.7 13.3 10.4 17.8 5.5 5.2 7.5 5.9 9.3 2.9 0.7-1 2.9-2.5 5-3.1 2.1-0.7 7.8-2.9 12.8-4.9 9.8-4 9.3-4.1 18.1 0.1 3.4 1.6 6.7 2.9 7.4 2.9 1.1 0 5.2 2.7 12.8 8.6 1.5 1.1 5.5 3.8 8.9 5.9 3.4 2.1 6.8 4.4 7.4 5.2 1.4 1.7 3.2 1.2 3.7-1.1 0.7-3.6-3.9-10.3-13.1-19.1-5.2-4.9-10.4-9.8-11.6-10.7-3.4-2.7-2.7-5.4 2.6-9.2 2.6-1.9 5.9-3.7 7.2-4.1 1.4-0.3 3.1-1.1 3.7-1.7 0.7-0.6 5.6-3.3 11-6.1 5.4-2.8 12.7-6.6 16.3-8.5 3.6-1.9 8.3-4.4 10.6-5.6 2.2-1.2 6.3-3.8 9.1-5.9 2.8-2.1 5.4-3.7 5.7-3.7 1 0 11.9-8.9 13.9-11.4 2.9-3.5 4.4-6.9 5.2-11.4 0.6-3.7 0.4-4.5-1.8-6.7-2.4-2.4-3.1-2.5-13-2.5l-10.4 0zm-672.6 7c-2.1 0-4.8 0.7-6.7 2.1-4.1 2.9-3.6 6.7 1.2 9.2 2.8 1.5 4.9 1.7 11 1.2 4.1-0.3 12.6-0.7 18.7-0.7l11.2-0.1-2.4-2.3c-3.8-3.5-13.2-6.6-21.5-7.1-4.1-0.2-7.9-0.9-8.4-1.4-0.6-0.6-1.7-0.9-3-0.9zm683.6 3.1c1.9 0 2.8 0.3 2.8 0.8 0 1.7-6.2 7.4-12.9 11.9-3 2-6.8 4.6-8.5 5.8-1.7 1.2-3.9 2.2-4.8 2.3-0.9 0-1.8 0.4-2 0.8-0.5 1.2-9.4 6.9-12 7.7-1.3 0.4-4.4 1.9-6.8 3.3-5.3 3-22.9 12.2-39 20.4-6.3 3.2-12.2 5.8-13 5.7-3.3-0.3-15.6-2-17.7-2.4-5-1-15.4-16.2-15.3-22.3 0.1-4.4 10.4-14.1 15-14.1 1 0 3.1-0.7 4.6-1.5 3.7-1.9 28.1-8.5 31.5-8.5 1.5 0 3.7-0.4 5-1 1.3-0.5 7-1.4 12.8-2 5.8-0.5 13.4-1.5 17-2.1 3.6-0.6 8.8-1.3 11.6-1.5 2.8-0.2 8.7-0.9 13-1.5 9.4-1.3 15.4-1.9 18.6-1.8zm-413.3 9.8 2.9 4.3c4 6 4.8 7.8 8.8 20.2 2.2 6.9 3.4 11.9 3 13.5-2.7 12-5.5 16.1-12.1 18-2.2 0.6-5.1 1-6.4 1-2.8-0.1-16.7-3.1-19-4.1-0.8-0.4-4.2-1.5-7.5-2.6-3.3-1.1-6.1-2.4-6.3-2.9-0.2-0.5 0.7-2.2 2-3.8 1.3-1.6 3.4-4.7 4.7-6.9 1.3-2.2 3.8-6.2 5.6-9 1.8-2.7 5.4-8.5 8-12.7 3.1-5.1 5.5-7.9 7.1-8.3 1.3-0.3 3.9-2 5.8-3.6l3.4-3zm-271.9 37.3c2 0 3.6 0.5 6 1.9 4.6 2.6 4.9 4.7 0.9 6.7-4.5 2.2-14 2.7-16.3 0.9-1.1-0.9-3.1-1.6-4.4-1.6-2 0-2.2-0.2-1.1-1.6 1.9-2.3 8.2-5.3 12.8-6 0.8-0.1 1.5-0.2 2.1-0.2zm556.7 13.3 3.1 3.3c2 2.1 4 3.3 5.8 3.3 1.5 0 2.5 0.3 2.1 0.7-1.5 1.5-8.7 4.2-9.2 3.4-0.3-0.5-0.8-3-1.2-5.7l-0.7-4.8zm-483.1 1c0.2 0 0.4 0 0.5 0.1 1.7 0.5 1.9 1.4 1.7 5.8-0.3 4.9-0.4 5.2-3.3 5.4-2.8 0.2-9.5-3-9.5-4.7 0-2.1 7.5-6.7 10.6-6.6zm-15 13.6c1 0 2.3 0.4 4.1 1 2.2 0.8 2.5 1.2 1.3 2-0.8 0.5-2.1 0.9-3 0.9-2.3 0-5.1-2-4.5-3 0.4-0.6 1-0.9 2.1-0.9z" fill="#1a1919"/></g></g><path d="" fill="#1a1919"/></svg>