<?xml version="1.0" encoding="utf-8"?>
<!-- Generator: Adobe Illustrator 13.0.2, SVG Export Plug-In . SVG Version: 6.00 Build 14948)  -->
<!DOCTYPE svg PUBLIC "-//W3C//DTD SVG 1.0//EN" "http://www.w3.org/TR/2001/REC-SVG-20010904/DTD/svg10.dtd">
<svg version="1.0"
	 id="Layer_1" xmlns:cc="http://creativecommons.org/ns#" xmlns:rdf="http://www.w3.org/1999/02/22-rdf-syntax-ns#" xmlns:svg="http://www.w3.org/2000/svg" xmlns:sodipodi="http://sodipodi.sourceforge.net/DTD/sodipodi-0.dtd" xmlns:inkscape="http://www.inkscape.org/namespaces/inkscape" xmlns:dc="http://purl.org/dc/elements/1.1/" inkscape:output_extension="org.inkscape.output.svg.inkscape" sodipodi:version="0.32" sodipodi:docname="Michelle Obama Signatrue.svg" inkscape:version="0.46"
	 xmlns="http://www.w3.org/2000/svg" xmlns:xlink="http://www.w3.org/1999/xlink" x="0px" y="0px" width="600.969px"
	 height="116.984px" viewBox="0 0 600.969 116.984" enable-background="new 0 0 600.969 116.984" xml:space="preserve">
<defs>
	
	
		<inkscape:perspective  id="perspective261" sodipodi:type="inkscape:persp3d" inkscape:vp_z="600.96899 : 58.4925 : 1" inkscape:vp_y="0 : 1000 : 0" inkscape:vp_x="0 : 58.4925 : 1" inkscape:persp3d-origin="300.4845 : 38.995 : 1">
		</inkscape:perspective>
</defs>
<sodipodi:namedview  id="base" borderopacity="1.0" bordercolor="#666666" pagecolor="#ffffff" showgrid="false" inkscape:zoom="0.90520477" inkscape:cx="300.4845" inkscape:cy="58.4925" gridtolerance="10.0" objecttolerance="10.0" guidetolerance="10.0" inkscape:current-layer="g238" inkscape:window-y="184" inkscape:window-x="184" inkscape:pageopacity="0.0" inkscape:pageshadow="2" inkscape:window-width="640" inkscape:window-height="669">
	</sodipodi:namedview>
<g id="g236">
	<g id="g238">
		<path id="path240" d="M44.039,11.999c-2.517,9.147-14.352,8.979-15.998,18.998c10.144,5.989,28.656-8.168,37.995,0
			c-3.275,21.389-15.58,33.747-22.997,50.994c10.863-6.806,16.875-27.118,34.996-29.997c4.885,8.654-4.62,17.258-6.999,24.997
			c11.923-7.41,18.654-28.672,37.995-31.996c3.74,9.698-13.426,18.446-8.999,31.996c5.908-0.104,9.04-11.614,13.999-15.998
			c5.561,2.979,0.663,10.271,4,14.998c13.137,2.139,8.452-13.546,19.998-12.998c5.24,5.771-3.362,8.246-3,14.998
			c13.238-4.481,29.573-12.768,38.995-24.997c4.551-5.906,5.614-17.343,14.999-15.998c-0.725,12.664-13.258,22.028-17.998,33.996
			c2.866,4.392,7.907,6.382,13.999,4.999c0.646-2.844,1.168-12.242,7.999-11.998c2.835,1.867,5.676,7.81,3,11.998
			c19.058,0.727,10.602-26.061,26.997-27.996c7.157,7.941-1.729,19.224-6,24.997c5.141,6.342,13.808-5.815,17.998-9.999
			c-1.454-13.025,2.915-26.438,15.998-27.997c6.46,9.553-2.306,23.329-7.999,29.997c1.957,3.519,5.017,0.731,8.999,1
			c2.27-3.396-0.79-12.122,5.999-10.999c4.034,0.632,2.715,6.616,3,10.999c2.686,2.731,5.536,4.46,8.999,4.999
			c15.73,2.447,30.613-9.818,40.995-14.998c1.646,14.218-27.922,24.326-47.994,19.997c-3.866-0.135-3.944-4.056-7-4.999
			c-3.227,2.695-14.906,3.299-17.998,0c-6.237,3.84-19.74,18.816-26.997,5.999c-9.395,6.662-29.043,8.426-40.995,3
			c-3.45,1.216-3.344,5.987-8.999,4.999c-2.782-5.462,2.48-10.6,4-14.998c-8.246,1.827-26.168,24.53-36.996,10.999
			c-5.313,2.038-15.771,4.13-15.998-4c-5.883,1.781-6.734,8.597-14.998,7.999c-5.882-4.326-4.135-17.853-1-23.997
			c-12.101,6.565-17.831,28.16-35.995,31.996c-2.453-11.549,7.806-18.786,9.999-28.996C55.642,70.598,50.287,94.901,31.04,99.987
			c2.764-23.918,20.624-41.354,27.997-63.991c-9.762-1.896-22.611,6.45-34.996,2C17.68,24.356,32.168,10.6,44.039,11.999z
			 M242.014,56.993c0.781-3.915,5.121-9.503,3-12.998C244.308,47.986,240.118,53.724,242.014,56.993z"/>
		<path id="path242" d="M481.983,67.991c10.005-5.84,24.468-16.808,33.995-3.999c8.47,0.47,7.012-8.987,15.998-7.999
			c8.719,15.921,38.892,14.819,57.992,11.998c-3.052,9.611-20.466,10.426-31.995,8.999c-9.762-1.208-18.947-6.451-23.997-8.999
			c-2.638,3.027-5.235,6.096-9.999,6.999c-5.146-3.9-8.167-3.784-14.997-5.999c-4.455,0.878-4.174,6.492-10,5.999
			c-2.516-0.817-2.104-4.562-2-7.999c-8.276,6.01-22.196,10.731-34.994,8.999c-1.378-1.288-0.989-4.344-1-6.999
			c-4.661,0.327-7.887-0.78-10.999-2c-4.399,6.831-8.27,18.742-18.997,15.998c-3.209-10.015,3.219-18.676,4.999-26.996
			c-7.179,2.486-13.297,6.033-19.997,8.999c-9.99,11.179-31.519,34.235-47.994,19.997c-1.338-29.002,14.202-41.124,24.997-57.993
			c7.776,1.15,11.916-6.745,19.997-5c10.867,2.347,10.763,21.239,6.999,32.996c6.329-0.017,14.446-6.875,20.998-9.999
			c5.037-8.96,6.587-21.409,18.997-22.997c5.635,12.04-6.237,21.894-13.998,26.997c-2.854,8.145-6.255,15.742-8.999,23.998
			c4.776,1.09,4.676-11.308,7.999-14.999c8.403,0.401,7.252,5.087,12.998,5c9.408-0.146,11.974-12.59,19.998-10.999
			c3.888,0.771,4.062,4.573,6.999,7.999C485.826,64.502,482.645,64.985,481.983,67.991z M409.993,28.997
			c-12.085-2.725-19.435,22.417-17.998,34.996c5.975,1.652,12.749-2.779,18.997-4C415.469,52.363,420.09,31.272,409.993,28.997z
			 M375.997,83.99c11.175-1.828,22.654-8.669,25.997-14.998c-16.423,10.075-19.184-11.501-15.998-21.997
			C381.521,57.139,369.87,69.805,375.997,83.99z M467.985,69.991c2.991-0.009,4.202-1.798,4.999-3.999
			C469.725,65.731,468.173,67.179,467.985,69.991z"/>
		<path id="path246" d="M167.023,37.995c-1.778,0.888-2.541,2.792-5.999,2C156.356,33.878,167.604,29.751,167.023,37.995z"/>
		<path id="path248" fill="#FFFFFF" d="M245.013,43.995c2.122,3.495-2.218,9.083-3,12.998
			C240.118,53.724,244.308,47.986,245.013,43.995z"/>
	</g>
</g>
</svg>
