<?xml version="1.0" encoding="UTF-8" standalone="no"?>
<!-- Created with Inkscape (http://www.inkscape.org/) -->

<svg
   xmlns:dc="http://purl.org/dc/elements/1.1/"
   xmlns:cc="http://creativecommons.org/ns#"
   xmlns:rdf="http://www.w3.org/1999/02/22-rdf-syntax-ns#"
   xmlns:svg="http://www.w3.org/2000/svg"
   xmlns="http://www.w3.org/2000/svg"
   version="1.1"
   width="300.00009"
   height="39.119377"
   viewBox="0 0 300.00009 39.119378"
   id="svg8041">
  <defs
     id="defs8043">
    <clipPath
       id="clipPath7755">
      <path
         d="m 381.338,561.047 0,-18.9 144.9,0 0,18.9"
         id="path7757" />
    </clipPath>
  </defs>
  <metadata
     id="metadata8046">
    <rdf:RDF>
      <cc:Work
         rdf:about="">
        <dc:format>image/svg+xml</dc:format>
        <dc:type
           rdf:resource="http://purl.org/dc/dcmitype/StillImage" />
        <dc:title></dc:title>
      </cc:Work>
    </rdf:RDF>
  </metadata>
  <g
     transform="translate(-487.14283,-621.37393)"
     id="layer1">
    <g
       transform="matrix(1.6558005,0,0,1.6558005,-361.26792,-188.57984)"
       id="g8012">
      <g
         transform="matrix(1.25,0,0,-1.25,35.771807,1190.4702)"
         id="g7751"
         style="fill:#000000">
        <g
           clip-path="url(#clipPath7755)"
           id="g7753"
           style="fill:#000000">
          <path
             d="m 514.643,560.088 c 0,-0.148 -0.282,-0.222 -0.421,-0.222 -0.422,0.295 -1.123,-0.074 -1.266,0.591 -0.069,0.147 -0.14,0.369 0,0.59 0.281,0.296 0.633,0 0.914,-0.074 0.351,-0.221 0.703,-0.443 0.773,-0.885"
             id="path7759"
             style="fill:#000000;fill-opacity:1;fill-rule:nonzero;stroke:none" />
        </g>
      </g>
      <path
         d="m 663.04688,490.37695 c -0.6603,0.007 -1.31946,0.0299 -1.97852,0.0762 -2.98625,0.275 -5.97328,0.64555 -8.51953,2.0293 -0.61375,0.55375 -1.05469,1.3861 -1.05469,2.3086 0,0.36875 -0.088,0.82867 0.17578,1.01367 0.7025,2.30625 3.16321,2.76851 5.0957,3.41601 -0.17749,0.18375 -0.52921,0.18289 -0.79296,0.36914 -0.70125,0.18375 -1.22789,0.45954 -1.93164,0.64454 -0.78875,0.18374 -1.49157,0.55523 -2.19532,0.74023 -2.5475,0.82875 -5.09523,1.65953 -7.55273,2.58203 -1.23125,0.55625 -2.54906,1.29305 -3.60156,2.2168 -0.52875,0.735 -1.05594,1.75258 -0.61719,2.76758 0.61625,1.10875 2.02047,0.83078 3.07422,0.73828 1.84375,-0.18375 3.60187,-0.73602 5.35937,-1.29102 l 1.49414,-0.64648 c 0.4375,-0.2775 0.9643,-0.27719 1.4043,-0.55469 l 0.61523,0.64648 c 0.61625,0.18375 1.31954,0.3686 2.01954,0.1836 0.70375,-0.18375 1.5807,-0.0909 2.2832,-0.46094 1.055,-0.0913 1.93453,-0.55224 2.98828,-0.46094 0.43875,-0.18375 0.43828,0.27719 0.61328,0.46094 0.61625,1.2 2.02195,1.38427 3.25195,1.29297 l 3.16211,-0.55469 3.16211,-0.27734 0.70313,0.18554 c 0.2638,0.185 0.17461,0.46149 0.34961,0.64649 1.31875,-0.0925 2.63672,0 4.04297,0 1.0525,0.185 2.36843,-0.36945 3.33593,0.0918 l 1.84375,0.27734 6.15039,0.55273 c 0.2625,0.0937 0.43977,0.4611 0.79102,0.27735 1.67,0.83 3.51398,1.19836 5.27148,1.56836 0.61375,0 1.31438,0.002 1.57813,-0.64453 l -0.0859,-0.0937 c -1.3175,-0.1825 -2.45898,-0.83008 -3.86523,-0.83008 -0.96625,-0.73875 -2.1075,-1.10727 -3.25,-1.29102 l -5.71094,-0.2793 c -0.7025,-0.0912 -1.31734,-0.27578 -1.93359,-0.64453 l 0.0898,-0.83007 -0.52734,-0.4629 c -0.52625,-0.18499 -0.9668,0.18735 -1.4043,0.3711 l -0.26563,0.36719 c -0.17375,0.4625 -0.70148,0.46289 -1.05273,0.46289 l -3.51367,-0.36914 -2.90039,-0.36914 c -1.05375,-0.185 -2.01938,-0.092 -2.98438,0.0918 -0.52625,0 -0.96633,0.5536 -1.58008,0.27735 -0.17625,-0.36875 -0.002,-0.82922 -0.26562,-1.19922 -2.02,-0.73875 -4.30336,-0.27766 -6.41211,0.0898 l -2.01953,0.46289 c -0.96875,0.0925 -2.02203,0.18375 -2.98828,0 -0.0875,-0.275 -0.0874,-0.64562 -0.26367,-0.92187 -0.61375,-0.185 -1.14047,0.27544 -1.66797,0.36914 l -0.17578,0.18359 c -0.52625,0.0937 -0.96508,0.55469 -1.58008,0.55469 -0.79125,0.46125 -1.58235,0.73812 -2.3711,1.01562 l -1.05468,0.36719 c -0.87875,0.27625 -1.75672,0.37039 -2.63672,0.46289 -0.7025,0.0925 -1.49203,0.27711 -2.01953,-0.36914 -0.35,-0.92375 0.3514,-1.57125 0.8789,-2.125 0.615,-0.55375 1.23196,-0.73601 1.84571,-1.19726 l 6.14843,-2.30664 1.14063,-0.3711 c 0.26375,-0.2775 0.70219,-0.0916 1.05469,-0.36914 1.22875,-0.36875 2.45914,-0.73617 3.77539,-1.01367 1.49625,-0.37 3.07625,-0.64828 4.65625,-0.83203 l 0.43945,-0.1836 c 0.0888,-0.27875 0.17625,-0.46148 0,-0.64648 -1.1425,-0.37 -2.4582,-0.46274 -3.68945,-0.74024 -1.58,-0.27624 -3.50993,-0.73718 -4.38868,-2.39843 -0.35495,0.001 -0.26515,-0.36703 -0.4414,-0.64453 0,-0.55375 0.17461,-1.01532 0.34961,-1.47657 0.2625,-0.6475 0.87914,-0.92242 1.49414,-1.10742 1.49375,-0.5525 3.16203,-0.83117 4.83203,-1.10742 0.61375,-0.0913 1.31859,-0.0911 1.93359,-0.27734 2.63375,-0.0913 5.44399,9.3e-4 7.99024,0.55468 0.52625,0.0925 1.055,0.27454 1.40625,0.64453 0.09,0.18375 0.35234,0.36969 0.0898,0.55469 -4.12875,2.02875 -9.13641,1.19836 -13.87891,1.56836 l -0.17578,0.0918 c 0,0.27625 0.26125,0.36969 0.4375,0.55469 4.655,0.27625 9.66344,0.36882 14.05469,-1.10743 0.35125,-0.2775 0.70352,-0.64546 0.79102,-1.19921 0.0875,-0.37 -0.17461,-0.64563 -0.34961,-1.01563 -0.52875,-0.83125 -1.58219,-0.92422 -2.46094,-1.29297 -2.04187,-0.0685 -4.03475,-0.1897 -6.01562,-0.16797 z m -0.84571,16.09766 c 0.29641,0.0116 0.58071,0.0813 0.79883,0.2207 l 0.0898,0 c -0.5275,0.2775 -1.22836,0.18571 -1.75586,-0.0918 0.26375,-0.0931 0.57079,-0.14047 0.86719,-0.12891 z"
         transform="translate(-7.3563764e-6,0)"
         id="path7761"
         style="fill:#231f20;fill-opacity:1;fill-rule:nonzero;stroke:none" />
      <path
         d="m 562.51306,493.8677 c -0.0875,0.83125 -1.14125,0.6475 -1.405,1.38375 l 0,0.55375 -0.9675,-0.0925 c -0.175,-0.18375 -0.43875,-0.55375 -0.26375,-0.83 0.5275,-0.9225 1.58125,-1.1075 2.63625,-1.015"
         id="path7771"
         style="fill:#000000;fill-opacity:1;fill-rule:nonzero;stroke:none" />
      <path
         d="m 553.81641,493.86719 c -2.89875,-0.0925 -5.62133,0.73945 -8.08008,1.8457 l -0.61524,0.0918 c -0.3525,0.18625 -0.70382,0.46469 -1.14257,0.64843 -2.02125,1.01375 -3.955,2.30532 -6.0625,3.32032 l -0.87891,-0.55274 c -1.75625,-0.6475 -3.68742,0.0909 -5.35742,0.46094 l -0.17578,-0.0918 1.23047,-1.57031 c 0.35249,-0.645 0.43945,-1.28984 0.43945,-2.12109 -0.26375,-0.555 -0.8768,-0.92172 -1.4043,-1.19922 -1.405,-0.74 -3.24992,-0.37039 -4.91992,-0.46289 -2.10875,0.0925 -4.21719,0.46258 -6.14844,0.92383 -0.79,0.27625 -1.4064,0.64453 -2.28515,0.64453 l -0.78907,0.46289 c -1.49375,0.55375 -2.81265,1.38484 -4.1289,2.21484 -0.26495,0.0925 -0.44037,0.36899 -0.35157,0.55274 0,0.1862 0.17532,0.27734 0.35157,0.27734 l 1.23047,-0.73828 c 0.79,-0.55375 1.66617,-0.82977 2.54492,-1.29102 1.1425,-0.5525 2.46031,-0.83101 3.60156,-1.38476 l 1.49414,-0.18555 c 1.845,-0.36875 3.6918,-0.64453 5.62305,-0.64453 1.22875,0.0913 2.63297,-0.18672 3.51172,0.64453 0.44,0 0.52812,0.64813 0.70312,1.01563 0,0.64625 -0.43781,1.10586 -0.78906,1.4746 -0.79125,0.73875 -1.40445,1.66305 -2.2832,2.2168 -0.17625,0.0937 -0.35326,0.0936 -0.43946,0.27735 -0.35375,0 -0.44172,0.46093 -0.79297,0.46093 -1.75625,1.2925 -3.7757,2.67625 -5.5332,3.96875 -0.35,0.18375 -0.61523,0.64578 -1.05273,0.73828 -0.09,0.2775 -0.44115,0.18344 -0.52735,0.46094 -0.43875,0.185 -0.87765,0.64633 -1.3164,0.83008 -0.003,0.0913 -0.004,0.18555 -0.0899,0.18555 -0.61375,0.46125 -1.14047,0.73742 -1.66797,1.10742 l -0.0879,0.18555 c -0.3525,0.0913 -0.61554,0.46078 -0.96679,0.64453 -0.35125,0.001 -0.52719,0.55659 -1.05469,0.46289 -0.70125,0.555 -1.49352,0.92086 -2.19727,1.47461 -0.2625,0.27625 -0.70234,0.55383 -0.96484,0.83008 -0.17625,0.36999 0.087,0.74023 0.43945,0.74023 0.70125,-0.36875 1.31703,-0.83102 2.01953,-1.38477 l 2.3711,-1.66015 c 0.44125,0 0.70539,-0.1861 1.05664,-0.3711 0.7025,-0.46125 1.31508,-0.92156 2.01758,-1.38281 0.70375,-0.37 1.23109,-0.92297 1.93359,-1.29297 l 0.0879,-0.18359 c 0.3525,0 0.43977,-0.46219 0.79102,-0.55469 0,-0.0925 0.17487,-0.18364 0.26367,-0.27734 1.58125,-1.2 3.42609,-2.58141 5.18359,-3.59766 0.175,-0.27875 0.61281,-0.27914 0.78906,-0.46289 0.175,-0.18375 0.52688,-0.18414 0.70313,-0.36914 0.5275,-0.18375 0.96789,-0.46078 1.49414,-0.64453 l 0.87695,-0.27735 1.66797,-0.37109 c 0.70375,-0.18375 1.76,-0.2764 2.375,0.27735 -0.0888,0.27749 -0.26359,0.55453 -0.52734,0.83203 -0.26375,0 -0.35149,0.36843 -0.61524,0.46093 -1.3175,0.9225 -2.7239,2.02868 -4.1289,3.04493 l -0.87891,0.55468 -0.0879,0.1836 c -0.3525,0.001 -0.43781,0.46289 -0.78906,0.46289 -0.3525,0.27625 -0.61625,0.55453 -0.96875,0.73828 l -0.0879,0.18359 -0.87696,0.46094 0,0.18555 -0.79101,0.46093 -0.0879,0.18555 -0.43945,0.27539 c -0.615,0.4625 -1.31751,0.83172 -1.84376,1.29297 l -0.43945,0.18555 c -0.43875,0.1825 -0.96679,0.55226 -0.96679,1.19726 0.0887,0.37 0.44062,0.36914 0.70312,0.36914 0.44,-0.275 0.79133,-0.64437 1.14258,-0.92187 l 0.96484,-0.64453 c 0.265,0 0.52688,-0.0936 0.70313,-0.27735 0.7025,-0.46125 1.23078,-1.01531 2.01953,-1.47656 l 0.17773,-0.0937 0.52539,-0.36719 c 0.0888,-0.18505 0.35316,-0.093 0.43946,-0.27929 l 0.43945,-0.36914 0.43945,-0.1836 c 10e-4,-0.3675 0.3511,-0.18469 0.52735,-0.46093 l 0.35156,-0.27735 c 0,-0.18375 0.17531,-0.18359 0.35156,-0.18359 0.4375,-0.46375 0.9643,-0.64617 1.4043,-1.10742 1.23,-0.9225 2.54859,-1.94008 3.77734,-2.86133 0.265,-0.0925 0.26485,-0.36914 0.52735,-0.36914 0.17625,-0.27625 0.52687,-0.27649 0.70312,-0.55274 1.75625,-1.20125 3.77688,-2.49336 5.79688,-3.59961 0.88,-0.55375 1.93265,-0.73976 2.72265,-1.38476 l 1.05469,-0.18555 1.75586,-0.55273 c 0.9675,-0.0913 1.93414,-0.4611 2.90039,-0.27735 -0.17625,0.36875 -0.61641,0.55313 -0.87891,0.92188 -0.3525,-0.0925 -0.52687,0.18414 -0.70312,0.36914 -1.58125,1.2925 -3.16133,2.39961 -4.83008,3.59961 -0.7025,0.36875 -1.31813,1.01601 -2.10938,1.38476 l -0.0879,0.18555 c -2.02,1.3825 -4.21593,2.86094 -6.14843,4.42969 -0.265,0.27625 -0.61641,0.46203 -0.87891,0.73828 -0.0875,0.27625 -0.43789,0.18344 -0.52539,0.46094 -0.35125,0.0913 -0.44133,0.36828 -0.70508,0.64453 -0.35125,0.0925 -0.34992,0.46148 -0.70117,0.64648 -0.0875,0.185 -0.35156,0.1861 -0.35156,0.3711 -0.43875,0.185 -0.61555,0.73742 -0.9668,1.10742 -0.0875,0.275 -0.26375,0.73617 0,1.01367 0.2625,0.37 0.70313,0.55344 1.14063,0.46094 1.055,-0.185 2.02203,-0.73993 2.98828,-1.20118 0.35125,-0.09 0.61468,-0.45968 1.05468,-0.36718 0.87875,-0.2775 1.5811,-0.73742 2.3711,-1.01367 l 0.34961,-0.18555 c 0.26375,0 0.61797,-0.18445 0.79297,0.18555 1.055,0.18375 2.37117,0.0925 3.51367,0 1.40375,-0.36875 2.89648,-0.82993 4.30273,-1.10743 l 0.35156,0.36719 c 0.2625,0.27625 0.61555,0.55519 0.9668,0.64649 0.265,0.0937 0.70266,0.18625 0.87891,0 l 1.22851,-0.36914 c 0.3525,-0.185 0.79008,-0.0936 1.14258,-0.27735 0.35125,-0.185 0.79008,-0.18344 1.14258,-0.36719 0.35125,-0.185 0.87688,-0.0936 1.14062,-0.37109 0.79,0 1.31743,-0.55094 2.10743,-0.46094 0.3525,-0.37 0.88031,-0.27664 1.32031,-0.36914 l 0.52539,0.55274 c 0.43875,-0.0913 0.96625,-0.18344 1.40625,-0.36719 l 2.01953,-0.27734 c 1.7575,-0.185 3.60188,-0.185 5.35938,0 0.7025,-0.0925 1.05257,0.73742 1.58007,1.01367 0.965,-0.18375 2.10797,-0.18375 3.07422,0 1.31875,0.1862 2.72352,0.2775 4.04102,0.0937 L 578.5,507.15625 c 0.175,-10e-4 0.43734,-0.0919 0.52734,0.18555 1.14125,0.55375 2.28336,1.01492 3.59961,1.10742 0.61625,0 1.14282,0.27805 1.75782,0.18555 l 3.51367,-0.2793 c 0.79,0.0925 1.31617,-0.36719 2.10742,-0.36719 0.175,-0.1838 0.43937,-0.18364 0.70312,-0.27734 0.44,-0.185 1.0554,-0.36919 1.49414,-0.46289 0.35,-0.1825 0.87727,-0.18289 1.22852,-0.27539 -0.35125,0.83 -0.78937,1.75398 -1.14062,2.58398 -0.26375,0.09 -0.26516,0.45883 -0.44141,0.73633 0.17625,0.0925 0.0887,0.3718 0.26367,0.2793 0.26375,-0.27625 0.52836,-0.74008 0.88086,-0.92383 0.34875,-0.55375 0.52445,-1.19891 0.87695,-1.66016 0.003,-0.2775 0.17738,-0.55453 0.26368,-0.83203 l 0.70312,-0.92187 c 0.2625,-0.185 0.35063,-0.46094 0.70313,-0.46094 0.26375,-0.2775 0.61515,-0.36969 0.8789,-0.55469 2.1075,-1.20125 4.30352,-2.6768 6.32227,-4.06055 0.265,0 0.26484,-0.36914 0.52734,-0.36914 0.35125,-0.27625 0.70383,-0.64633 1.14258,-0.92383 1.40625,-1.01375 2.63523,-2.11961 3.86523,-3.41211 0.2625,-0.18624 0.34993,-0.64843 0.70118,-0.64843 0.26375,-0.3675 0.79257,-0.55172 0.70507,-1.10547 0.0863,-0.37 -0.17609,-0.64649 -0.52734,-0.64649 -1.75625,-0.18625 -3.07672,0.82891 -4.48047,1.66016 l -0.34961,0.0918 c -1.58125,1.29125 -3.25164,2.30711 -4.74414,3.59961 -1.40625,1.20125 -2.46101,2.30695 -3.60351,3.7832 -0.61375,0.73875 -0.96375,1.75555 -1.84375,2.2168 -0.35125,0.18375 -0.79219,0.36898 -1.05469,0.55273 -0.6125,0.0925 -1.05422,0.55469 -1.66797,0.55469 -0.26375,0.27625 -0.79133,0.18344 -1.14258,0.46094 -0.44,0.1825 -0.9675,-8.6e-4 -1.40625,0.36914 -2.10875,0.2763 -4.47914,0.46125 -6.58789,-0.0937 l -0.61328,-0.1836 c -0.52625,-0.0913 -0.9675,-0.27648 -1.40625,-0.55273 -0.265,-0.0937 -0.52602,-0.0941 -0.79102,-0.36914 -2.28375,0.09 -4.74359,0.1825 -7.02734,0 l -0.70117,-0.0918 c -0.265,-0.27625 -0.0898,-0.74073 -0.52735,-0.83203 l -4.91992,-0.18359 c -0.8775,0 -1.75687,-1.6e-4 -2.54687,0.18359 -0.17625,0 -0.43899,0.185 -0.61524,0 2.02125,-1.38375 4.13164,-3.04469 6.15039,-4.42969 2.01875,-1.47625 4.03969,-3.04469 6.14844,-4.42968 l 0.35156,-0.64649 c 0,-0.275 -0.0874,-0.36898 -0.26367,-0.55273 -0.7025,-0.2775 -0.96773,0.64453 -1.58398,0.64453 -1.84375,1.57 -3.86078,2.95344 -5.70703,4.42969 -0.17625,0.27749 -0.4418,0.18539 -0.5293,0.46289 -2.195,1.57 -4.56703,3.32093 -7.11328,4.42968 -0.2625,0.2775 -0.70235,0.18344 -0.96485,0.46094 l -0.70312,0.27734 c -0.26375,0.2787 -0.79133,0.0917 -1.14258,0.36915 -0.43875,0.27379 -0.87961,0.18289 -1.31836,0.36914 -1.23,0.0913 -2.28406,0.55223 -3.60156,0.46093 10e-4,-0.0913 -0.0864,-0.27664 0.0898,-0.36914 -0.0888,-0.2775 -0.0885,-0.55083 -0.35351,-0.64453 -0.70125,0.0937 -1.31617,0.46094 -2.10742,0.46094 -0.52625,0.27625 -1.23047,0.18344 -1.66797,0.46094 -0.5275,0.1825 -1.23118,-8.6e-4 -1.66993,0.27539 l -2.89843,0.46289 -0.43946,-0.0937 c -0.0875,-0.27625 0.26368,-0.18344 0.26368,-0.46094 0.52625,0 0.96718,-0.46094 1.49218,-0.46094 0,-0.1838 0.17738,-0.27734 0.26368,-0.27734 0,-0.1825 0.26289,-0.36774 0.0879,-0.55274 -0.43875,-0.73755 -1.22875,-0.18549 -1.84375,-0.0918 -0.0888,0.27625 -0.35274,0.27734 -0.61524,0.27734 -0.3525,0 -0.52726,0.36719 -0.79101,0.36719 -0.35125,0.2775 -0.78938,0.55453 -1.14063,0.73828 -0.0888,0.36875 -0.52773,0.18469 -0.61523,0.46094 -0.5275,0.2775 -1.05453,0.55578 -1.58203,0.83203 l -0.26368,0.18555 c -1.055,0.37 -2.02086,1.10742 -3.16211,1.10742 -0.52625,-0.0925 -0.87796,0.27429 -1.23046,0.0918 -0.0875,-0.185 0.0887,-0.093 0.26367,-0.18554 0.70375,-0.73875 1.40367,-1.38235 2.10742,-2.1211 0.35375,-0.2775 0.61789,-0.55453 1.05664,-0.83203 0,-0.37 0.43909,-0.27773 0.52539,-0.55273 0.265,0.001 0.26484,-0.36914 0.52734,-0.36914 0.17625,-0.2775 0.44094,-0.46274 0.61719,-0.64649 1.6675,-1.10875 3.33516,-2.40156 5.00391,-3.50781 0.44125,-0.185 0.70344,-0.55203 1.05469,-0.64453 0.2625,-0.185 0.52851,-0.37039 0.79101,-0.55664 1.93375,-1.29 3.95383,-2.5811 5.79883,-3.96485 0.35,-0.18624 0.4382,-0.74023 0.87695,-0.74023 0.44,-0.37 0.61693,-0.92281 0.70313,-1.47656 l -0.17578,-0.36914 z m 54.11132,1.66211 c -0.0888,0.18375 -0.2639,0.27539 -0.4414,0.27539 -0.61375,0.9225 -1.49391,1.47734 -2.28516,2.21484 -1.055,0.9225 -2.10875,1.75344 -3.25,2.49219 -0.35125,0.37 -0.87851,0.64562 -1.22851,0.92187 -1.3175,0.8325 -2.54493,1.6611 -3.95118,2.21485 2.28375,-3.3225 5.44438,-5.72157 9.04688,-7.38282 0.35125,-0.36999 0.96664,-0.46023 1.49414,-0.55273 0.175,-0.0925 0.35148,-0.18359 0.61523,-0.18359 z"
         transform="translate(-7.3563764e-6,0)"
         id="path7773"
         style="fill:#231f20;fill-opacity:1;fill-rule:nonzero;stroke:none" />
      <path
         d="m 627.19531,494.81445 c -0.62593,-0.0233 -1.26219,0.11508 -1.78906,0.34571 -0.4375,0.36875 -1.05586,0.55172 -1.31836,1.10546 -1.66875,1.94 -4.04016,2.8636 -5.97266,4.33985 -1.75625,1.29125 -4.5664,2.95 -4.1289,5.71875 0.175,0.36875 0.43937,0.55523 0.70312,0.74023 0.52875,0.2775 1.23032,0.3693 1.75782,0.0918 0.87875,-10e-4 1.58023,-0.46153 2.45898,-0.55273 l 0.52539,-0.18555 c 0.44,0 0.70578,-0.45969 1.14453,-0.36719 0.17375,-0.18375 0.26164,-0.27734 0.52539,-0.27734 2.19625,-1.01625 4.30313,-2.58469 5.79688,-4.42969 1.22875,-1.47875 3.2514,-3.32406 2.28515,-5.53906 l -0.26367,-0.36719 c -0.48437,-0.415 -1.09867,-0.59977 -1.72461,-0.62305 z m -0.0137,1.18946 c 0.55606,0.043 1.09906,0.42453 1.29688,0.91015 -0.35125,1.38375 -1.22922,2.67641 -2.10547,3.69141 l -1.66993,1.56836 c -1.93249,1.7525 -4.12789,3.04461 -6.58789,3.59961 -0.175,0 -0.35195,0.0923 -0.43945,0.18359 l -2.01953,0.27735 c -0.26375,-0.0913 -0.61398,-0.18469 -0.61523,-0.55469 0.2625,-1.56875 1.5814,-2.58461 2.72265,-3.59961 l 0.35156,-0.27539 c 0.17625,-0.37 0.52602,-0.27719 0.79102,-0.46094 0.0863,-0.18625 0.35195,-0.18609 0.43945,-0.27734 0.175,-0.18375 0.43703,-0.27664 0.61328,-0.36914 0.0888,-0.2775 0.43969,-0.1854 0.61719,-0.46289 1.14125,-0.645 2.28219,-1.38376 3.33594,-2.03126 0.35125,0 0.88039,0.555 1.05664,0 -0.17625,-0.27624 -0.17609,-0.64617 -0.0898,-1.01367 0.35125,-0.7375 1.14211,-0.83117 1.75586,-1.10742 0.17593,-0.0694 0.36152,-0.0925 0.54687,-0.0781 z"
         transform="translate(-7.3563764e-6,0)"
         id="path7775"
         style="fill:#231f20;fill-opacity:1;fill-rule:nonzero;stroke:none" />
      <path
         d="m 604.06056,501.06645 c 0,0.0913 -0.0875,0 -0.0875,0 -0.0875,0 -0.0875,-0.0925 0,-0.0925 l 0.0875,0.0925"
         id="path7781"
         style="fill:#ffffff;fill-opacity:1;fill-rule:nonzero;stroke:none" />
    </g>
  </g>
</svg>
