<?xml version="1.0" encoding="UTF-8"?>
<svg version="1.1" xmlns="http://www.w3.org/2000/svg" width="415" height="115" >
<path d="M1.125,84.083c-0.216,3.532,8.709-0.987,9.363-1.297c8.856-4.197,17.19-9.604,25.435-14.866 c11.899-7.595,23.35-15.807,33.961-25.13c1.539-1.352,27.021-25.026,18.566-27.537c-5.564-1.651-13.833,4.627-18.063,7.339 c-9.095,5.83-17.476,12.854-25.544,20.011c-3.149,2.793-24.544,21.668-12.652,25.695c2.784,0.943,6.379-0.422,8.949-1.338 c6.414-2.284,12.339-6.044,18.291-9.292c4.875-2.66,9.745-5.332,14.688-7.864c1.619-0.829,3.254-1.641,4.94-2.325 c1.889-0.766,0.89-0.909-0.376,0.41c-7.561,7.88-16.932,13.671-21.505,24.037c-1.373,3.113-2.31,9.322,2.915,8.739 c3.574-0.398,6.937-3.542,9.823-5.413c0.624-0.404,1.253-0.793,1.901-1.156c-0.377,0.212-0.26-1.095-1.118,0.584 c-0.87,1.702-2.225,3.474-2.483,5.413c-0.243,1.824,0.469,3.781,2.659,3.771c3.657-0.016,6.069-2.312,8.257-4.976 c3.314-4.037,6.544-8.316,9.124-12.864c0.477-0.841-0.72-1.843-1.374-1.061c-3.29,3.939-6.933,8.206-8.829,13.017 c-1.922,4.878,4.7,2.607,6.756,1.932c8.207-2.696,16.191-6.269,23.924-10.094c7.394-3.656,15.615-7.805,21.135-14.116 c1.717-1.963,2.616-5.128-1.104-4.466c-5.815,1.037-11.751,5.756-16.277,9.24c-4.043,3.114-10.201,7.962-10.799,13.516 c-0.674,6.256,5.606,7.056,10.367,6.437c5.748-0.749,13.334-2.865,18.136-6.34c0.739-0.535,0.31-2.005-0.674-1.6 c-2.154,0.888-11.531,5.95-7.339,9.495c3.736,3.159,10.785-4.015,12.577-6.96c0.516-0.847-0.691-1.789-1.374-1.061 c-4.43,4.728-6.153,11.013,2.619,9.994c1.107-0.129,1.12-1.88,0-1.75c-3.668,0.426-5.945-0.363-3.71-4.032 c0.652-1.07,1.472-2.061,2.329-2.974c-0.458-0.354-0.916-0.707-1.374-1.061c-1.612,2.649-4.596,4.817-7.25,6.294 c-1.792,1.186-2.346,0.283-1.664-2.706c0.777-0.908,1.871-1.534,2.876-2.153c0.875-0.538,1.825-1.008,2.775-1.399 c-0.225-0.533-0.449-1.066-0.674-1.6c-3.589,2.597-8.658,3.947-12.854,5.135c-5.037,1.425-16.499,2.5-12.082-6.191 c2.753-5.418,8.706-9.55,13.596-12.844c2.318-1.562,4.742-2.969,7.243-4.214c0.831-0.414,4.598-1.798,4.481-1.532 c-2.383,5.432-10.545,9.243-15.383,11.975c-7.152,4.039-14.697,7.431-22.314,10.488c-2.747,1.103-5.525,2.132-8.337,3.056 c-1.679,0.552-4.901,2.056-3.509-0.956c1.898-4.107,5.085-7.84,7.968-11.291c-0.458-0.354-0.916-0.707-1.374-1.061 c-2.712,4.781-6.155,9.227-9.635,13.465c-0.597,0.728-6.841,6.048-7.26,2.354c-0.24-2.113,2.267-4.795,3.019-6.767 c0.311-0.817,0.22-2.279-1.076-1.944c-3.658,0.946-6.887,4.447-10.229,6.148c-5.762,2.933-3.179-5.063-2.021-7.417 c3.064-6.229,8.392-11.313,13.576-15.779c0.566-0.488,11.452-8.689,7.74-9.873c-1.428-0.455-3.874,1.138-5.065,1.698 c-4.891,2.299-9.617,4.978-14.363,7.558c-3.501,1.904-28.44,18.037-30.578,10.134c-1.677-6.198,7.243-13.551,11.042-17.08 c8.222-7.64,16.881-14.881,26.078-21.32c5.338-3.737,11.215-7.611,17.581-9.293c4.835-1.276,1.893,3.729,0.581,5.789 c-8.484,13.317-22.902,23.918-35.434,33.039c-12.728,9.262-26.354,18.14-40.495,25.13c-2.155,1.065-4.436,2.189-6.82,2.637 c-1.098,0.205-0.471-0.209-0.512,0.463C2.944,82.955,1.193,82.962,1.125,84.083L1.125,84.083z"/>
<path d="M83.156,59.315c0.083,0.334,0.167,0.667,0.25,1c0.273,1.095,1.961,0.63,1.688-0.465c-0.083-0.334-0.167-0.667-0.25-1 C84.57,57.756,82.882,58.221,83.156,59.315L83.156,59.315z"/>
<path d="M149.482,75.489c-4.255-1.159-7.998,0.493-9.576,4.611c-0.851,2.22,1.334,3.666,3.257,3.796 c4.932,0.332,9.952-2.076,14.247-4.204c9.447-4.682,17.811-11.574,25.459-18.74c0.824-0.773-0.415-2.009-1.238-1.238 c-8.971,8.407-19.017,16.516-30.646,20.907c-2.542,0.96-5.681,2.003-8.421,1.411c-2.506-0.541,0.3-3.777,1.078-4.36 c1.413-1.058,3.755-0.937,5.376-0.495C150.108,77.474,150.57,75.785,149.482,75.489L149.482,75.489z"/>
<path d="M170.059,75.827c-1.534,0.86-11.503,6.347-12.45,3.875c-1.351-3.521,6.503-10.947,8.505-13.093 c4.33-4.639,9.306-8.686,14.324-12.547c7.869-6.057,16.245-11.414,24.256-17.274c2.031-1.485,6.18-3.997,8.844-2.859 c2.409,1.028-11.129,10.39-11.979,10.898c-0.967,0.579-0.088,2.092,0.883,1.512c4.259-2.549,11.285-6.044,13.043-11.206 c0.818-2.405-1.875-3.216-3.673-3.124c-4.522,0.23-8.276,3.531-11.764,6.019c-6.415,4.574-12.99,8.903-19.304,13.621 c-6.72,5.022-13.185,10.464-18.662,16.841c-2.201,2.563-7.509,8.165-6.031,12.018c1.742,4.544,12.499-1.826,14.891-3.168 C171.926,76.786,171.044,75.274,170.059,75.827L170.059,75.827z"/>
<path d="M215.191,46.589c1.697-1.292,13.74-10.122,8.572-12.044c-3.567-1.326-9.334,2.532-12.108,4.275 c-5.684,3.569-10.859,8.013-15.858,12.465c-5.34,4.758-10.44,9.802-15.275,15.071c-2.514,2.74-5.94,5.96-7.365,9.494 c-1.361,3.377-0.269,6.451,3.183,7.771c5.986,2.288,13.494-3.338,17.78-6.669c0.89-0.692-0.358-1.922-1.238-1.238 c-4.14,3.219-11.507,8.731-17.084,5.756c-3.744-1.997-0.086-6.675,1.516-8.712c5.556-7.066,12.201-13.392,18.829-19.431 c6.646-6.055,14.101-13.014,22.638-16.274c0.58-0.222,4.642-1.113,4.548-0.689c-0.321,1.459-2.346,2.991-3.374,3.969 c-1.777,1.689-3.693,3.261-5.645,4.745C213.423,45.751,214.293,47.272,215.191,46.589L215.191,46.589z"/>
<path d="M194.232,74.927c3.014-0.521,7.602-1.114,9.729-3.539c0.934-1.063,0.431-2.398-0.646-3.105 c-1.479-0.969-3.724,0.049-5.098,0.701c-2.994,1.423-8.831,5.543-8.079,9.539c0.908,4.834,7.211,2.618,9.803,0.816 c0.92-0.64,0.046-2.157-0.883-1.512c-1.429,0.993-7.829,3.787-7.183-0.197c0.491-3.021,4.396-5.595,6.828-6.932 c0.93-0.511,2.632-1.398,3.728-0.904c1.079,0.486-2.008,1.719-2.287,1.824c-2.043,0.765-4.229,1.25-6.377,1.621 C192.657,73.431,193.129,75.117,194.232,74.927L194.232,74.927z"/>
<path d="M153.018,54.677c1.25,0.25,2.5,0.5,3.75,0.75c1.102,0.221,1.571-1.466,0.465-1.688c-1.25-0.25-2.5-0.5-3.75-0.75 C152.381,52.769,151.911,54.455,153.018,54.677L153.018,54.677z"/>
<path d="M165.131,52.952c1.132,1.369,2.954,2.911,4.852,2.475c1.1-0.253,0.634-1.94-0.465-1.688 c-1.152,0.266-2.492-1.23-3.148-2.025C165.649,50.844,164.419,52.089,165.131,52.952L165.131,52.952z"/>
<path d="M274.844,43.851c-3.439-9.198-13.21,2.458-16.449,5.95c-9.102,9.814-18.267,19.572-27.48,29.281 c-7.417,7.815-14.713,15.896-22.664,23.18c-2.649,2.427-6.431,3.231-9.946,3.077c-10.13-0.444-2.325-13.014,0.452-17.064 c0.64-0.934-0.878-1.808-1.512-0.883c-2.603,3.797-7.949,11.116-5.267,16.175c1.721,3.246,5.512,3.747,8.851,3.468 c7.794-0.654,12.55-7.234,17.629-12.44c10.116-10.369,20.032-20.936,29.937-31.506c4.074-4.348,8.139-8.705,12.189-13.075 c2.448-2.642,10.177-12.106,12.573-5.697C273.548,45.362,275.24,44.909,274.844,43.851L274.844,43.851z"/>
<path d="M247.059,49.827c-5.015,3.593-9.939,7.642-13.828,12.447c-2.916,3.603-3.3,6.576-1.206,10.552 c1.743,3.309,5.669,4.294,9.063,4.886c9.664,1.684,19.89,0.967,29.63,0.634c40.339-1.379,81.673-5.549,121.887-0.485 c4.867,0.613,9.758,1.488,14.414,3.066c1.071,0.363,1.527-1.327,0.465-1.688c-15.616-5.295-33.602-4.896-49.869-5.078 c-21.937-0.243-43.878,0.655-65.79,1.579c-8.826,0.372-17.652,0.776-26.483,1.021c-8.92,0.246-19.432,1.225-28.039-1.788 c-13.861-4.852,5.39-19.873,10.641-23.634C248.851,50.688,247.978,49.169,247.059,49.827L247.059,49.827z"/>
</svg>