<?xml version="1.0" encoding="UTF-8"?>
<svg version="1.0" xmlns="http://www.w3.org/2000/svg" width="463" height="162" >
<path fill="#231F20" d="M8.197,75.751c9.06-6.61,18.378-13.031,28.146-18.553c2.506-1.417,5.08-2.802,7.799-3.765 c1.235-0.437,3.245-1.319,2.74,0.539c-0.912,3.354-3.774,6.544-5.841,9.216c-4.817,6.224-10.152,12.059-15.478,17.846 c-0.939,1.021,0.443,2.306,1.485,1.484c7.374-5.81,14.854-11.496,22.461-16.998c4.336-3.137,8.72-6.371,13.445-8.908 c0.604-0.324,1.221-0.62,1.883-0.805c-0.702,0.196-0.017-1.251-0.925,0.257c-2.083,3.459-5.143,6.391-7.593,9.587 c-1.887,2.462-3.878,4.963-5.247,7.766c-0.158,0.323-0.692,1.889-0.523,1.685c-0.257,0.311-0.72,0.515-1.051,0.728 c1.703-1.091,0.594,1.931,1.723-0.314c0.883-1.755,1.994-3.405,3.103-5.021c2.288-3.333,5.531-8.335,9.533-9.789 c4.365-1.586,0.138,18.84-0.157,20.163c-0.16,0.723,0.493,1.579,1.292,1.292c3.763-1.352,10.766-3.704,11.464-8.296 c-0.64,0.083-1.28,0.167-1.919,0.251c6.446,9.067,19.903,4.135,27.417-0.254c-0.514-0.395-1.028-0.79-1.542-1.186 c-1.107,3.112-2.587,9.284,1.58,10.751c4.25,1.495,10.165-3.561,13.133-5.776c12.25-9.146,22.904-20.609,33.357-31.684 c0.928-0.983-0.544-2.463-1.485-1.484c-5.498,5.718-11.006,11.426-16.523,17.126c-3.953,4.084-7.912,8.163-11.89,12.225 c-1.426,1.455-2.856,2.907-4.296,4.349c-0.509,0.509-1.021,1.015-1.538,1.516c-1.006,0.977-0.496,0.074,0.409,0.594 c0.071,0.55,0.142,1.1,0.213,1.649c2.667-2.861,6.521-5.177,9.948-6.976c2.385-1.253,6.208-2.736,6.516,1.22 c0.177,2.272-0.844,4.951,0.731,6.959c5.069,6.458,19.417-8.973,22.032-12.81c0.593-0.87-0.572-2.001-1.437-1.437 c-2.655,1.729-7.063,4.84-5.429,8.463c2.247,4.984,6.846-1.12,7.536-3.496c-0.675,0-1.35,0-2.025,0 c0.954,2.395,2.495,4.732,4.868,5.884c4.548,2.204,8.229-3.776,10.042-6.895c-0.64-0.271-1.279-0.54-1.919-0.81 c-0.584,3.111-0.054,7.245,3.736,7.701c4.169,0.501,8.797-3.657,11.727-5.996c10.486-8.369,19.393-18.908,28.088-29.044 c0.876-1.021-0.595-2.511-1.484-1.484c-6.423,7.402-12.539,15.087-18.451,22.9c-8.059,10.649-18.148,22.906-21.357,36.175 c-0.318,1.316,1.707,1.874,2.025,0.559c3.161-13.072,13.235-25.155,21.146-35.674c5.78-7.685,11.819-15.21,18.122-22.476 c-0.495-0.495-0.989-0.989-1.484-1.484c-7.605,8.864-15.385,17.656-24.018,25.544c-3.637,3.322-8.067,7.602-13.039,8.793 c-3.243,0.777-3.335-3.091-2.985-4.955c0.212-1.133-1.292-1.888-1.919-0.81c-1.817,3.127-5.177,8.663-9.047,4.779 c-0.867-0.869-1.57-2.125-2.025-3.267c-0.368-0.924-1.714-1.071-2.025,0c-0.152,0.526-0.344,1.013-0.566,1.521 c-0.65,1.488-3.891,1.01-2.078-1.126c1.001-1.178,2.334-2.151,3.622-2.991c-0.479-0.479-0.958-0.957-1.437-1.437 c-3.134,4.599-8.181,8.632-12.872,11.496c-2.89,1.765-6.222,2.81-6.155-1.771c0.032-2.174,0.542-4.317-0.871-6.188 c-3.996-5.293-16.112,4.544-19,7.644c-0.457,0.49-0.391,1.303,0.212,1.649c0.003,0.002,0.006,0.004,0.009,0.006 c0.308,0.177,0.755,0.209,1.06,0c1.972-1.357,3.616-3.455,5.283-5.146c4.058-4.117,8.08-8.269,12.103-12.42 c5.988-6.181,11.963-12.373,17.928-18.577c-0.495-0.495-0.99-0.989-1.485-1.484c-9.476,10.038-19.121,20.053-29.775,28.86 c-3.483,2.879-9.154,8.265-14.141,8.159c-3.205-0.068-1.234-6.608-0.644-8.268c0.318-0.896-0.79-1.626-1.542-1.186 c-6.28,3.667-18.885,8.968-24.544,1.006c-0.459-0.646-1.768-0.744-1.919,0.251c-0.545,3.588-7.013,5.758-9.998,6.829 c0.431,0.431,0.861,0.861,1.292,1.292c1.284-5.779,4.566-15.647,1.393-21.408c-1.685-3.059-5.321-0.801-7.169,0.709 c-1.578,1.29-14.292,16.743-10.222,17.152c1.608,0.161,2.572-1.671,2.949-2.883c2.084-6.704,8.927-11.885,12.822-17.524 c1.164-1.685,1.411-4.424-1.455-3.624c-4.177,1.166-8.187,4.637-11.667,7.064c-9.161,6.391-18.042,13.21-26.814,20.122 c0.495,0.495,0.99,0.989,1.485,1.484c5.592-6.076,11.196-12.207,16.204-18.784c2.161-2.839,4.776-5.971,5.733-9.492 c1.45-5.333-5.787-2.761-8.002-1.785C28.906,57.779,17.76,66.188,7.137,73.938C6.055,74.728,7.101,76.551,8.197,75.751 L8.197,75.751z M118.656,47.497c1.13,0.21,2.259,0.42,3.389,0.63c1.324,0.246,1.889-1.778,0.559-2.025 c-1.13-0.21-2.259-0.42-3.389-0.63C117.891,45.226,117.326,47.25,118.656,47.497L118.656,47.497 M230.025,39.438c-4.962,5.322-9.851,10.713-14.685,16.15c-3.593,4.04-7.142,8.121-10.572,12.3 c-2.091,2.546-4.629,5.269-5.971,8.316c-0.552,1.252,0.991,2.136,1.813,1.061c6.837-8.949,14.104-17.703,22.059-25.68 c1.244-1.249,10.399-10.759,12.328-7.832c2.249,3.411-0.56,9.869-3.115,12.293c-2.701,2.561-8.464,3.216-10.938-0.01 c-0.429-0.56-1.435-0.793-1.813,0c-3.612,7.574-11.774,26.681-0.754,31.688c1.224,0.556,2.292-1.254,1.061-1.813 c-9.463-4.299-1.646-22.203,1.506-28.814c-0.604,0-1.208,0-1.813,0c5.195,6.772,14.847,2.009,17.496-4.499 c2.181-5.355,1.22-14.167-6.026-10.297c-7.806,4.17-14.085,12.485-19.742,19.058c-4.158,4.83-8.191,9.781-12.061,14.846 c0.604,0.354,1.208,0.707,1.813,1.061c1.282-2.912,3.66-5.455,5.643-7.893c3.411-4.193,6.987-8.255,10.572-12.3 c4.826-5.444,9.724-10.828,14.685-16.15C232.432,39.934,230.95,38.445,230.025,39.438L230.025,39.438 M271.658,33.979c-4.329,6.918-8.604,13.87-12.836,20.848c-3.024,4.989-6.022,9.996-8.92,15.061 c-1.525,2.664-3.445,5.488-4.331,8.46c-0.334,1.12,1.434,1.913,1.919,0.81c4.818-10.944,11.441-21.865,20.142-30.117 c3.645-3.456,8.03-6.002,12.874-7.34c1.518-0.419,8.619-1.289,6.781,2.792c-1.27,2.817-5.764,4.44-8.298,5.505 c-1.701,0.714-11.978,5.365-13.591,3.309c-0.738-0.942-1.875,0.135-1.755,1.021c0.924,6.825,1.212,15.499-0.237,22.764 c-1.042,5.229-3.392,9.535-9.25,9.295c-3.504-0.144,1.866-4.299,2.824-5.089c2.707-2.231,5.668-4.175,8.579-6.122 c9.223-6.169,17.112-13.124,24.951-21.006c6.514-6.55,13.936-13.299,19.107-21.02c0.677-1.01-0.821-2.104-1.648-1.272 c-8.103,8.136-16.059,16.64-22.885,25.885c-1.678,2.271-6.671,8.149-4.751,11.393c2.421,4.091,11.016-0.96,13.658-2.226 c-0.425-0.549-0.849-1.099-1.272-1.648c-3.729,2.9-7.571,6.182-10.085,10.225c-2.104,3.387,0.297,6.579,4.149,5.43 c4.522-1.35,7.726-7.748,9.709-11.591c-0.169,0.326-0.827,0.274,1.048,0.193c1.669-0.072,3.32-0.283,4.957-0.61 c2.36-0.471,3.122-1.669,4.297-3.636c0.604-1.011-0.848-2.179-1.648-1.272c-2.751,3.113-5.871,7.199-5.79,11.539 c0.073,3.911,5.047,5.14,7.109,2.02c1.396-2.111,2.076-4.559,2.631-7.005c0.227-0.999,0.394-2.013,0.545-3.025 c0.227-1.513-0.481,0.056-0.153-0.136c7.209-4.201,5.252,7.249,4.425,10.937c-0.261,1.165,1.274,1.83,1.919,0.81 c1.115-1.765,7.427-11.352,9.378-5.923c0.395,1.097,2.214,6.963,4.614,4.018c1.198-1.471,1.818-3.185,2.461-4.954 c0.936-2.58,1.81-8.56,4.435-3.651c0.445,0.832,1.171,1.569,2.123,1.755c3.287,0.643,6.713-4.315,8.428-6.326 c7.819-9.168,14.659-19.243,21.653-29.035c0.694-0.973-0.871-2.168-1.648-1.272c-7.34,8.448-15.576,18.013-19.388,28.653 c-1.071,2.991-0.971,12.155,4.412,10.647c2.269-0.635,3.461-2.376,4.143-4.546c0.671-2.133,0.69-2.086,2.252-0.052 c0.604,0.786,1.138,1.638,1.639,2.492c0.258,0.44,0.712,0.556,1.186,0.482c6.959-1.086,10.624-6.095,13.644-11.884 c-0.837,1.604-1.264-1.308-1.061,0.654c0.052,0.496,0.075,0.996,0.105,1.493c0.076,1.229,0.142,2.456,0.243,3.682 c0.183,2.184,0.428,4.597,1.644,6.478c4.348,6.725,12.739-12.56,15.92-1.214c0.553,1.971-0.541,7.114,2.271,7.888 c3.155,0.868,6.045-4.115,7.628-5.964c3.203-3.739,4.551,2.599,6.087,3.498c1.096,0.642,2.206,0.319,3.295-0.103 c4.116-1.597,5.524-6.824,9.579-8.263c4.138-1.468-2.311,9.677-3.066,10.786c-1.453,2.135-2.902,4.272-4.355,6.407 c-9.301,13.666-18.716,27.261-28.515,40.576c-4.887,6.642-9.876,13.223-15.204,19.52c-2.646,3.126-6.14,8.205-10.157,9.707 c-0.843,0.315-0.263-0.853-0.011-1.552c0.726-2.01,2.025-3.875,3.189-5.647c3.885-5.915,8.414-11.421,12.9-16.882 c21.898-26.654,46.291-51.116,68.487-77.492c5.047-5.997,9.841-12.437,13.228-19.535c2.093-4.389,4.48-10.827,1.103-15.207 c-4.137-5.366-13.364-3.797-19.013-2.813c-18.5,3.218-36.376,11.573-53.333,19.286c-1.231,0.56-0.163,2.369,1.061,1.813 c12.432-5.654,25.025-11.024,38.03-15.231c7.204-2.331,14.793-4.479,22.413-4.651c3.434-0.078,7.875,0.364,9.72,3.712 c1.575,2.856,0.3,6.765-0.74,9.565c-3.371,9.08-10.047,17.158-16.342,24.359c-10.853,12.417-22.068,24.52-33.088,36.788 c-12.487,13.903-24.971,27.855-36.675,42.431c-3.812,4.748-7.612,9.576-10.817,14.763c-1.153,1.866-3.47,5.192-2.271,7.508 c2.802,5.416,16.472-12.641,17.619-14.063c10.735-13.309,20.554-27.375,30.294-41.418c3.98-5.739,7.919-11.508,11.845-17.284 c2.784-4.096,9.171-10.753,7.171-15.974c-2.267-5.916-9.683,3.366-10.968,4.681c-1.635,1.672-4.255,3.034-5.266,0.136 c-0.181-0.518-0.468-1.076-0.87-1.45c-1.033-0.959-1.788-1.307-3.177-1.389s-2.682,1.118-3.637,1.934 c-1.098,0.937-5.823,8.115-5.968,2.129c-0.166-6.872-5.099-10.586-10.979-5.832c-3.133,2.532-5.617,5.691-6.651,0.245 c-0.489-2.576-0.4-5.23-0.671-7.831c-0.685-6.579-5.534,3.856-5.99,4.43c-2.172,2.733-5.727,4.563-9.136,5.176 c0.959-0.173,1.367,0.891,0.64-0.283c-0.364-0.588-0.763-1.152-1.165-1.715c-0.783-1.098-1.665-2.116-2.826-2.817 c-3.064-1.851-3.578,4.675-4.612,5.794c-3.488,3.776-3.657-5.803-3.157-7.408c0.805-2.581,2.252-4.995,3.623-7.307 c4.314-7.271,9.686-14.045,15.225-20.421c-0.55-0.424-1.1-0.848-1.648-1.272c-7.039,9.854-13.938,19.95-21.807,29.174 c-1.027,1.206-5.304,7.178-6.881,4.229c-0.812-1.518-3.356-5.736-5.328-2.754c-1.412,2.137-2.018,4.707-2.836,7.11 c-1.908,5.604-2.48,0.922-4.267-1.605c-3.445-4.875-10.502,5.633-11.974,7.963c0.64,0.27,1.279,0.54,1.919,0.81 c1.288-5.75,2.221-18.408-7.33-13.408c-1.913,1.001-1.815,5.867-2.392,7.729c-0.398,1.288-0.953,2.542-1.821,3.584 c-2.021,0.699-3.006,0.027-2.953-2.016c-0.023-1.253,0.702-2.563,1.242-3.649c1.01-2.034,2.446-3.944,3.946-5.643 c-0.55-0.424-1.1-0.848-1.648-1.272c-2.018,3.376-5.721,3.238-9.26,3.262c-0.351,0.002-0.745,0.193-0.906,0.52 c-0.725,1.462-1.554,2.869-2.413,4.255c-0.97,1.563-2.073,3.024-3.298,4.396c-0.387,0.434-6.115,4.724-5.115,0.864 c1.085-4.188,6.938-8.214,10.214-10.763c1-0.777-0.271-2.129-1.272-1.648c-1.476,0.706-12.2,6.342-10.497,1.144 c1.583-4.83,5.751-9.268,8.909-13.099c5.683-6.893,11.807-13.47,18.11-19.8c-0.55-0.424-1.099-0.848-1.648-1.272 c-2.727,4.07-6.435,7.645-9.757,11.215c-5.397,5.802-10.965,11.453-16.714,16.905c-4.648,4.409-9.437,8.291-14.79,11.801 c-5.164,3.386-11.801,6.955-15.366,12.179c-2.473,3.622,2.63,4.365,5.006,4.311c4.401-0.1,6.926-3.843,8.333-7.559 c3.125-8.249,2.313-18.582,1.151-27.172c-0.585,0.341-1.17,0.682-1.755,1.021c2.933,3.741,14.898-2.46,17.402-3.511 c2.758-1.158,8.381-3.816,8.399-7.627c0.016-3.302-3.032-4.279-5.854-4.458c-10.924-0.691-20.45,10.35-26.228,18.178 c-4.706,6.374-8.763,13.468-11.957,20.725c0.64,0.27,1.279,0.54,1.919,0.81c0.906-3.042,2.975-5.959,4.536-8.688 c2.93-5.121,5.981-10.173,9.04-15.217c4.053-6.683,8.153-13.337,12.298-19.962C274.191,33.887,272.374,32.834,271.658,33.979 L271.658,33.979z"/>
</svg>