<?xml version="1.0" standalone="no"?>
<!DOCTYPE svg PUBLIC "-//W3C//DTD SVG 20010904//EN"
 "http://www.w3.org/TR/2001/REC-SVG-20010904/DTD/svg10.dtd">
<svg version="1.0" xmlns="http://www.w3.org/2000/svg"
 width="468pt" height="109pt" viewBox="0 0 468 109"
 preserveAspectRatio="xMidYMid meet">
<metadata>
Created by POTRACE VERSION, written by Peter Selinger 2001-2007
</metadata>
<g transform="translate(0,109) scale(0.012127,-0.012127)"
fill="#000000" stroke="none">
<path d="M30950 8885 c-19 -7 -77 -29 -128 -48 -51 -19 -102 -43 -114 -54 -11
-10 -31 -40 -45 -68 -14 -27 -47 -88 -74 -135 -26 -47 -60 -121 -73 -165 -15
-47 -46 -110 -73 -152 -27 -39 -69 -104 -95 -145 -26 -40 -59 -100 -73 -133
-15 -33 -40 -87 -57 -121 -26 -54 -30 -76 -38 -195 -5 -74 -14 -186 -21 -249
-10 -91 -10 -137 0 -227 12 -111 12 -114 -11 -161 -13 -28 -60 -83 -113 -135
-69 -68 -107 -97 -165 -124 -41 -20 -95 -55 -120 -79 -27 -26 -68 -51 -104
-65 -39 -14 -81 -41 -122 -78 -34 -31 -84 -74 -111 -97 -26 -22 -67 -53 -91
-68 -24 -15 -57 -47 -75 -72 -17 -24 -63 -70 -102 -101 -38 -30 -80 -60 -93
-66 -12 -6 -40 -34 -62 -64 -33 -43 -58 -62 -128 -98 -48 -25 -101 -54 -118
-65 -16 -11 -82 -33 -145 -49 -64 -16 -148 -43 -189 -61 -64 -28 -82 -32 -140
-28 -58 3 -74 9 -122 41 -32 22 -93 50 -144 66 -49 16 -116 42 -149 59 -33 16
-78 44 -100 62 -22 17 -88 61 -147 96 -59 36 -110 69 -113 75 -4 5 -23 18 -44
28 -20 11 -87 29 -149 41 -62 11 -123 18 -139 14 -15 -4 -43 -18 -61 -31 -17
-13 -38 -36 -46 -51 -7 -15 -17 -46 -21 -69 -3 -23 -20 -60 -36 -83 -16 -22
-37 -61 -47 -88 -10 -26 -40 -75 -65 -107 -33 -42 -62 -67 -99 -85 -33 -16
-61 -38 -73 -58 -11 -18 -39 -58 -62 -88 -23 -30 -54 -85 -69 -122 -15 -37
-48 -103 -73 -147 -25 -43 -63 -97 -84 -118 -21 -21 -67 -51 -100 -67 -34 -15
-82 -35 -106 -46 -24 -10 -64 -38 -90 -62 -25 -24 -73 -60 -106 -79 -33 -19
-72 -46 -87 -58 -17 -14 -47 -26 -76 -29 -26 -4 -67 -11 -91 -16 -24 -6 -66
-28 -93 -50 -34 -26 -66 -42 -104 -50 -30 -6 -105 -26 -167 -45 -62 -18 -130
-40 -152 -49 -22 -10 -139 -43 -260 -76 -121 -32 -242 -67 -268 -79 -27 -12
-79 -25 -115 -31 -37 -5 -129 -14 -206 -21 -76 -6 -173 -8 -215 -4 -42 3 -119
10 -171 15 -52 5 -137 12 -189 15 -52 4 -108 13 -125 21 -17 8 -74 40 -128 72
-69 41 -108 71 -136 108 -22 28 -81 88 -132 135 -54 49 -101 103 -115 129 -12
25 -33 54 -45 65 -12 11 -29 33 -37 49 -9 16 -51 131 -95 255 -43 124 -95 269
-115 321 -31 82 -36 107 -37 185 0 81 2 96 29 145 25 49 29 66 31 155 1 55 7
120 14 145 6 25 29 74 50 110 25 40 49 103 66 165 14 55 33 114 42 130 8 17
28 45 44 64 16 18 34 45 40 60 6 14 17 53 25 86 9 40 24 70 44 91 16 17 43 63
59 103 16 39 41 86 54 104 14 18 32 58 40 89 8 31 20 67 26 79 7 12 29 40 49
63 21 23 54 71 74 107 28 50 49 75 85 98 33 21 58 48 76 80 15 29 42 59 63 73
21 12 76 56 123 96 57 50 114 89 175 118 50 24 111 60 136 81 25 21 72 47 103
58 41 13 77 36 121 76 48 44 78 62 131 79 38 12 91 36 119 54 49 31 51 31 176
30 83 -1 147 -8 190 -19 35 -10 107 -21 159 -25 64 -5 108 -14 135 -27 22 -12
48 -30 58 -41 11 -12 21 -43 24 -75 3 -30 3 -66 -1 -80 -4 -18 -22 -32 -63
-52 -32 -15 -85 -46 -118 -69 -33 -23 -86 -53 -117 -65 -32 -13 -77 -40 -100
-61 -24 -20 -59 -45 -78 -55 -22 -11 -71 -20 -136 -25 -56 -4 -108 -11 -115
-16 -8 -4 -30 -20 -49 -35 -19 -15 -69 -37 -110 -49 -41 -12 -109 -41 -150
-65 -42 -25 -105 -51 -140 -60 -36 -8 -93 -23 -127 -31 -34 -9 -84 -30 -110
-48 -46 -30 -53 -31 -157 -33 -60 -1 -119 -7 -130 -13 -12 -6 -37 -32 -56 -58
-19 -26 -57 -68 -85 -93 l-49 -46 -4 -75 c-3 -51 1 -85 11 -110 13 -32 23 -39
69 -53 29 -9 87 -19 128 -22 41 -3 109 0 150 6 41 7 91 20 110 29 21 10 42 31
52 52 9 19 26 65 37 101 12 36 21 82 21 101 0 26 4 36 15 34 8 -1 25 -11 37
-23 13 -11 33 -26 46 -32 14 -7 36 -10 55 -5 18 3 46 13 62 22 17 8 56 34 87
57 32 24 88 53 125 65 38 13 82 29 98 38 17 8 45 27 62 43 18 15 49 33 70 38
21 6 54 11 73 11 20 0 66 8 102 19 37 10 91 34 120 54 29 20 78 45 109 57 32
11 85 39 118 60 34 22 83 51 109 64 27 14 106 72 178 131 71 58 142 123 158
143 27 35 28 41 22 112 -3 41 -12 100 -21 130 -8 30 -23 66 -33 80 -13 17 -51
36 -118 61 -55 20 -136 57 -180 82 -48 28 -113 55 -159 67 -61 16 -111 20
-229 20 -83 0 -203 -5 -266 -10 -63 -5 -148 -19 -188 -30 -40 -11 -109 -38
-152 -60 -43 -22 -110 -48 -147 -59 -38 -10 -87 -28 -109 -39 -21 -11 -50 -32
-64 -47 -14 -15 -61 -57 -105 -92 -43 -36 -100 -75 -125 -88 -25 -13 -82 -48
-125 -78 -44 -30 -90 -69 -103 -86 -12 -17 -63 -65 -112 -107 -49 -42 -104
-99 -122 -127 -18 -29 -57 -86 -86 -127 -30 -41 -69 -91 -87 -112 -21 -23 -40
-59 -50 -95 -9 -32 -23 -77 -31 -101 -9 -23 -31 -61 -51 -84 -19 -23 -50 -73
-69 -111 -20 -38 -48 -86 -63 -108 -16 -21 -33 -58 -39 -82 -6 -24 -22 -57
-34 -74 -13 -17 -37 -50 -55 -73 -18 -24 -45 -81 -62 -135 -17 -52 -46 -118
-65 -147 -22 -35 -40 -79 -50 -128 -9 -41 -20 -136 -25 -210 -7 -129 -9 -137
-41 -187 l-32 -52 4 -128 c4 -116 9 -144 52 -293 26 -91 61 -187 76 -215 16
-27 39 -69 50 -92 11 -23 28 -81 36 -128 12 -65 25 -99 51 -137 18 -28 49 -79
68 -113 19 -33 46 -72 61 -86 14 -13 41 -49 59 -80 19 -30 65 -82 102 -115 37
-33 86 -71 108 -84 22 -12 60 -42 85 -65 25 -23 79 -65 121 -93 41 -29 103
-63 138 -77 35 -14 100 -30 144 -35 45 -5 134 -14 197 -21 63 -6 167 -12 230
-12 83 0 153 7 250 26 74 14 162 29 195 33 33 3 76 13 95 21 19 8 44 23 56 34
17 16 48 24 131 35 59 7 155 23 213 35 58 11 142 36 188 54 45 19 121 43 168
55 47 11 121 27 164 34 55 10 92 23 122 44 24 16 95 48 158 72 63 23 158 58
210 76 84 29 100 39 145 87 36 39 60 56 86 61 21 4 52 1 74 -6 34 -11 44 -24
84 -97 31 -56 62 -97 95 -125 26 -22 76 -66 110 -97 33 -31 77 -67 97 -80 20
-13 52 -36 70 -51 21 -16 104 -50 217 -88 152 -50 199 -62 275 -67 74 -4 121
0 242 21 83 15 166 29 185 32 26 4 56 27 125 93 49 48 111 104 137 124 38 30
51 50 74 109 21 57 40 86 85 131 50 50 59 65 64 105 3 26 15 81 27 122 15 49
23 104 23 160 1 47 6 104 12 128 10 39 9 47 -19 98 -16 31 -28 67 -26 81 2 14
15 35 30 46 20 15 51 21 140 28 62 4 116 8 120 8 4 1 31 22 61 49 30 26 86 60
123 76 38 16 105 49 149 73 44 24 96 59 115 77 19 18 64 50 100 72 39 22 106
79 165 140 55 56 125 117 155 137 30 20 89 68 129 107 41 39 104 89 140 110
41 24 77 54 97 82 27 39 42 48 150 91 65 26 129 47 140 47 14 0 26 -10 34 -29
7 -19 11 -73 10 -148 -2 -65 -2 -167 -1 -228 2 -103 -1 -122 -49 -309 -28
-109 -62 -221 -76 -248 -14 -27 -40 -65 -58 -86 -18 -20 -39 -48 -46 -61 -7
-14 -19 -100 -26 -192 -10 -128 -17 -178 -33 -211 -11 -24 -31 -56 -43 -71
-20 -25 -23 -40 -23 -121 0 -70 4 -98 17 -118 11 -16 39 -35 73 -47 31 -12 71
-21 90 -21 26 0 45 9 76 38 23 20 48 51 56 69 7 18 13 44 13 59 0 14 14 83 31
153 17 69 38 144 47 166 9 22 35 68 58 102 24 34 52 93 63 130 11 37 32 114
45 171 15 63 39 128 60 167 20 34 52 82 72 106 19 23 44 59 54 79 12 24 35 45
69 63 33 18 58 41 72 67 15 27 37 46 68 61 25 12 63 36 83 55 24 22 61 40 110
54 40 12 123 45 183 73 102 47 116 51 185 52 55 0 83 -5 105 -18 17 -10 71
-42 120 -71 68 -40 94 -62 108 -89 12 -23 20 -69 24 -135 4 -64 1 -123 -6
-164 -8 -36 -31 -97 -56 -143 -24 -44 -60 -134 -79 -199 -20 -66 -40 -144 -45
-175 -6 -35 -6 -123 1 -239 10 -163 10 -191 -6 -257 -14 -57 -15 -82 -7 -112
6 -21 24 -51 40 -67 16 -15 44 -31 64 -35 23 -6 47 -4 71 5 20 8 52 20 72 28
26 9 47 11 73 4 20 -5 92 -22 161 -37 69 -16 163 -35 210 -42 53 -7 132 -10
215 -6 98 5 159 14 250 37 66 17 148 40 183 51 40 13 75 19 94 15 17 -3 56
-30 89 -61 33 -30 78 -67 102 -83 23 -16 56 -34 72 -40 17 -7 111 -33 210 -58
99 -26 207 -52 240 -60 33 -7 94 -14 136 -14 56 0 103 8 175 29 55 16 133 36
174 44 41 8 106 18 145 22 38 4 92 16 120 26 36 14 70 39 122 93 40 41 101 91
135 112 35 21 81 54 103 74 22 20 55 45 72 55 18 10 43 40 58 66 14 26 41 61
60 78 20 17 40 31 44 31 5 0 29 28 54 63 25 34 60 76 79 94 18 18 58 43 89 57
31 13 84 43 119 65 40 26 105 54 179 77 64 20 134 49 156 64 22 16 75 43 118
61 43 18 97 49 121 70 24 21 67 47 96 59 28 11 82 36 119 55 37 19 79 35 93
35 15 0 33 -6 41 -14 8 -8 35 -51 61 -95 34 -57 53 -107 71 -178 13 -54 26
-124 30 -156 4 -39 1 -86 -11 -144 -12 -63 -15 -115 -12 -201 4 -80 1 -137 -9
-185 -8 -38 -25 -94 -39 -124 -13 -31 -24 -71 -24 -90 0 -18 6 -48 14 -66 7
-18 23 -42 35 -54 12 -12 39 -28 61 -34 30 -9 46 -9 69 1 17 7 55 43 85 80 30
37 74 109 99 161 38 81 56 107 134 184 57 58 100 111 118 145 16 34 56 84 103
130 42 41 94 94 114 117 21 23 56 52 77 63 23 11 69 55 109 102 38 46 78 90
88 99 11 9 42 29 69 44 28 15 64 40 81 55 17 15 65 41 107 59 42 17 80 31 86
31 6 0 35 11 65 24 30 13 82 43 115 65 52 36 67 41 116 41 31 0 70 -6 88 -14
18 -7 42 -24 54 -37 11 -13 26 -42 32 -64 6 -22 11 -58 11 -80 0 -22 -7 -74
-15 -115 -8 -41 -26 -221 -39 -400 -20 -259 -30 -344 -50 -420 -13 -53 -30
-109 -36 -125 -7 -17 -23 -68 -36 -115 -13 -47 -24 -102 -24 -123 0 -21 11
-59 24 -85 13 -26 33 -55 44 -65 16 -15 28 -17 54 -12 18 4 56 18 83 30 28 12
70 42 94 66 24 24 50 58 57 74 7 17 17 66 23 110 6 44 16 186 21 315 6 129 14
267 19 305 5 39 21 111 36 160 17 59 29 131 35 210 4 66 16 158 25 205 11 54
14 103 10 137 -3 28 -16 69 -28 92 -12 22 -41 66 -64 99 -23 32 -52 65 -65 73
-13 9 -69 34 -125 57 -88 36 -112 42 -176 42 -60 0 -82 -5 -118 -25 -24 -14
-71 -38 -104 -54 -33 -16 -71 -41 -85 -56 -14 -15 -37 -33 -51 -40 -14 -8 -63
-23 -110 -35 -65 -17 -96 -31 -139 -64 -30 -24 -74 -53 -98 -65 -24 -12 -76
-52 -116 -89 -41 -37 -103 -89 -139 -117 -46 -35 -75 -66 -96 -106 -18 -33
-45 -65 -68 -80 -20 -13 -55 -51 -78 -84 -23 -35 -57 -69 -80 -82 -22 -13 -53
-22 -69 -21 -18 2 -37 13 -49 30 -17 23 -22 51 -29 161 -4 73 -14 152 -23 176
-8 23 -23 55 -34 70 -11 15 -41 69 -67 120 -34 69 -55 98 -82 116 -21 13 -64
31 -97 41 -33 9 -85 29 -115 45 -33 18 -71 29 -94 29 -24 0 -67 -13 -110 -34
-39 -19 -86 -37 -104 -41 -22 -4 -50 -25 -79 -55 -36 -38 -57 -51 -92 -59 -26
-5 -58 -14 -71 -19 -14 -5 -47 -28 -75 -51 -27 -22 -70 -48 -95 -56 -25 -8
-82 -22 -127 -29 -45 -8 -103 -26 -130 -39 -26 -14 -83 -39 -126 -57 -69 -29
-90 -44 -175 -130 -53 -54 -126 -130 -160 -169 -44 -49 -71 -91 -89 -136 -24
-63 -27 -66 -92 -100 -46 -25 -78 -50 -102 -83 -20 -26 -67 -68 -105 -94 -62
-42 -85 -51 -235 -87 -91 -22 -214 -48 -273 -57 l-108 -16 -82 25 c-44 14
-128 35 -186 47 -58 12 -119 28 -137 35 -17 7 -39 24 -47 38 -13 19 -14 30 -4
58 6 19 20 45 30 58 10 14 37 35 60 48 22 13 48 33 58 46 10 12 26 32 36 45
11 12 52 36 93 53 63 25 86 42 150 108 68 70 79 87 105 162 16 46 40 106 53
133 21 41 26 72 35 210 6 88 12 206 15 261 3 79 0 114 -16 165 -10 36 -31 94
-46 130 -14 36 -34 82 -43 104 -9 21 -24 49 -34 62 -10 12 -32 25 -48 29 -20
4 -70 -5 -157 -31 -70 -20 -140 -43 -155 -50 -15 -8 -56 -39 -90 -70 -34 -31
-108 -92 -164 -136 -62 -48 -108 -92 -117 -111 -8 -18 -22 -56 -32 -84 -12
-38 -27 -61 -56 -83 -21 -17 -51 -50 -66 -72 -16 -23 -48 -56 -73 -73 -28 -20
-59 -55 -83 -96 -21 -35 -51 -91 -67 -124 -18 -36 -32 -85 -36 -120 -3 -37 1
-99 10 -160 9 -55 23 -127 30 -160 8 -33 20 -81 27 -107 10 -36 10 -50 1 -61
-8 -9 -47 -17 -114 -23 -57 -5 -175 -9 -263 -9 -146 0 -168 3 -255 29 -52 15
-122 30 -155 33 -33 2 -70 6 -82 9 -13 2 -39 19 -60 37 -20 18 -50 61 -67 97
-27 58 -31 75 -31 160 0 91 1 97 34 147 21 33 44 92 63 160 20 76 40 125 68
166 28 41 42 76 50 125 8 44 11 123 7 223 -3 110 -9 168 -22 202 -9 26 -31 61
-48 78 -16 17 -55 42 -85 55 -31 13 -78 46 -106 72 -32 29 -87 64 -146 92 -94
44 -96 45 -200 45 -91 0 -119 -4 -210 -33 -58 -19 -145 -48 -194 -65 -66 -23
-97 -39 -120 -65 -17 -19 -41 -44 -53 -57 -12 -12 -50 -30 -84 -40 -51 -16
-68 -27 -103 -68 -22 -27 -53 -63 -67 -80 -20 -23 -30 -28 -48 -22 -13 4 -29
22 -37 41 -10 24 -13 69 -12 161 3 109 0 140 -20 208 l-23 80 45 139 c42 128
49 143 93 187 26 26 69 69 94 96 25 26 62 73 81 103 19 30 43 62 52 69 10 8
37 53 61 100 24 48 60 102 80 121 21 20 52 68 72 110 19 41 51 95 72 120 21
25 54 70 74 100 20 30 41 77 48 103 9 36 26 64 65 107 29 31 67 85 83 119 16
35 31 87 35 124 5 41 2 90 -9 142 -8 44 -15 96 -15 116 0 20 -7 56 -15 79 -8
24 -41 75 -73 113 -31 39 -83 92 -115 119 -32 26 -64 48 -72 48 -7 0 -19 2
-27 5 -7 2 -29 -2 -48 -10z m71 -364 c23 -19 24 -24 24 -163 -1 -112 -5 -155
-19 -197 -14 -41 -28 -60 -62 -84 -26 -18 -48 -43 -53 -61 -6 -17 -13 -48 -17
-69 -4 -24 -23 -57 -50 -89 -23 -28 -59 -80 -79 -117 -20 -36 -47 -81 -60 -99
-13 -18 -35 -68 -50 -111 -14 -43 -34 -86 -44 -95 -10 -9 -38 -23 -64 -32 -34
-12 -51 -13 -66 -5 -11 6 -25 28 -31 49 -5 20 -10 61 -10 91 0 40 9 73 36 132
19 44 39 105 45 137 5 31 11 83 15 114 4 45 15 71 49 123 24 37 52 90 64 118
11 29 27 83 36 120 12 53 25 80 58 119 23 29 55 64 70 79 16 16 49 35 75 43
26 7 61 14 78 15 18 1 42 -8 55 -18z m2688 -2502 c18 -6 38 -24 46 -40 8 -15
15 -35 15 -44 0 -8 -13 -40 -30 -71 -29 -55 -29 -56 -23 -182 5 -117 4 -130
-16 -170 -12 -23 -44 -64 -71 -91 -27 -27 -68 -61 -92 -76 -24 -15 -59 -49
-78 -76 -19 -26 -58 -66 -86 -88 -28 -22 -79 -49 -115 -61 -35 -12 -89 -24
-119 -27 -50 -5 -59 -3 -87 21 -21 18 -42 53 -62 106 -17 44 -31 96 -31 117 0
21 4 54 10 73 5 19 35 71 66 117 31 46 85 110 121 143 35 33 83 70 106 81 23
12 72 44 109 71 37 28 79 65 93 84 14 18 42 46 61 61 20 14 59 35 87 44 29 10
55 18 58 19 3 0 20 -5 38 -11z m-6041 -300 c34 -16 73 -45 88 -62 15 -18 36
-52 47 -76 17 -39 18 -50 8 -97 -10 -42 -10 -58 1 -76 7 -13 29 -45 48 -71 19
-26 56 -75 82 -108 26 -33 50 -73 53 -90 4 -16 4 -48 0 -70 -5 -28 -21 -56
-52 -91 -44 -50 -45 -52 -38 -102 3 -28 9 -67 12 -88 4 -26 -2 -53 -23 -98
-17 -38 -39 -69 -58 -82 -17 -12 -50 -39 -72 -60 -25 -24 -57 -43 -80 -48 -22
-5 -104 -12 -184 -16 -102 -4 -158 -3 -190 6 -25 6 -71 29 -102 50 -32 21 -93
50 -135 64 -58 19 -93 39 -137 77 -32 27 -76 59 -97 69 -21 11 -50 37 -66 57
-15 21 -40 53 -55 71 -15 18 -28 44 -28 58 0 13 11 47 25 73 21 43 33 53 89
80 35 16 95 58 132 91 38 34 98 78 134 99 36 20 83 46 105 56 22 11 49 35 60
55 11 19 45 59 76 90 31 30 71 77 90 104 19 27 47 67 62 90 16 23 39 49 50 58
12 10 38 18 58 18 20 0 62 -13 97 -31z m-524 15 c9 -4 16 -18 16 -35 0 -16 -9
-37 -20 -47 -12 -11 -39 -27 -60 -37 -32 -15 -42 -15 -55 -5 -8 7 -15 29 -15
50 0 21 6 43 14 49 8 7 27 16 43 21 15 4 36 9 45 9 9 1 23 -2 32 -5z"/>
<path d="M15140 8291 c-31 -9 -89 -34 -130 -54 -44 -21 -97 -57 -127 -87 -48
-46 -53 -55 -53 -93 1 -23 7 -78 15 -122 8 -44 15 -98 15 -120 0 -22 -9 -72
-20 -110 -11 -39 -29 -121 -40 -182 -11 -62 -29 -135 -40 -162 -10 -27 -32
-68 -49 -92 -21 -30 -34 -67 -43 -114 -8 -47 -12 -207 -13 -490 -1 -231 -4
-449 -9 -485 -4 -36 -9 -79 -12 -97 -3 -19 -24 -54 -49 -84 -36 -42 -47 -66
-62 -128 -18 -75 -18 -77 -116 -176 -54 -55 -110 -120 -124 -145 -15 -25 -56
-74 -92 -108 -36 -35 -85 -73 -109 -84 -23 -11 -52 -34 -64 -52 -12 -17 -50
-62 -85 -101 -34 -38 -79 -81 -100 -93 -21 -13 -51 -43 -67 -67 -16 -23 -42
-50 -57 -59 -16 -9 -45 -37 -65 -62 -21 -25 -56 -55 -78 -66 -23 -11 -57 -35
-76 -53 -19 -18 -70 -47 -112 -65 -42 -17 -96 -48 -120 -69 -24 -20 -65 -50
-91 -65 -26 -15 -72 -47 -102 -72 -30 -24 -78 -58 -107 -76 -29 -17 -64 -41
-78 -54 -14 -12 -59 -39 -100 -59 -41 -20 -89 -48 -107 -61 -17 -13 -55 -33
-85 -44 -29 -12 -75 -37 -103 -56 -45 -31 -60 -35 -160 -45 -60 -6 -141 -9
-180 -6 -38 3 -122 18 -185 32 -63 14 -132 33 -153 42 -20 9 -57 40 -82 69
-27 31 -64 61 -93 74 -26 12 -56 26 -68 32 -12 5 -28 25 -37 43 -9 19 -24 62
-33 97 -8 35 -31 95 -50 133 -24 50 -36 94 -43 155 -7 52 -7 109 -2 146 5 34
14 70 21 80 7 11 29 30 49 44 22 14 56 25 87 28 42 3 55 0 78 -19 15 -14 36
-51 49 -88 14 -42 32 -71 50 -85 18 -14 42 -20 70 -20 23 1 63 5 89 9 40 6 55
4 95 -18 26 -13 76 -32 110 -42 39 -11 79 -16 105 -12 36 5 52 15 100 66 32
34 67 79 78 100 10 21 33 50 50 62 17 13 44 35 61 49 20 17 35 45 49 90 10 36
30 98 45 138 19 54 24 82 19 110 -4 20 -19 64 -34 97 -15 33 -39 70 -53 83
-14 13 -70 38 -124 57 -55 18 -119 45 -144 60 -24 15 -68 50 -97 79 -49 48
-55 51 -100 49 -26 -1 -110 -1 -187 0 -77 1 -210 2 -296 2 l-155 0 -105 -52
c-57 -29 -120 -59 -140 -66 -20 -8 -62 -38 -93 -66 -31 -28 -83 -64 -117 -81
-33 -17 -76 -47 -95 -66 -19 -19 -58 -46 -87 -60 -29 -15 -65 -36 -80 -47 -16
-11 -53 -53 -83 -93 -40 -53 -68 -81 -102 -98 -26 -13 -57 -38 -70 -55 -12
-17 -46 -46 -76 -65 -34 -22 -70 -58 -99 -98 -24 -35 -52 -79 -62 -98 -9 -19
-36 -53 -58 -75 -23 -22 -64 -69 -92 -105 -27 -36 -62 -86 -78 -112 -15 -26
-51 -66 -80 -89 -28 -23 -81 -55 -116 -71 -35 -16 -81 -44 -102 -63 -21 -19
-51 -41 -68 -49 -16 -9 -54 -21 -83 -27 -29 -6 -95 -24 -146 -40 -64 -20 -113
-29 -160 -29 -37 0 -122 11 -188 24 -67 13 -135 32 -151 41 -17 10 -45 41 -63
69 -19 28 -49 71 -68 95 -18 24 -44 66 -58 92 -13 27 -24 59 -24 73 0 13 8 44
18 68 11 24 27 76 37 116 9 40 28 85 40 100 12 15 28 38 35 51 6 13 20 65 31
115 12 58 32 117 58 166 21 41 49 107 61 145 13 43 24 109 27 170 4 75 1 116
-11 165 -9 36 -25 76 -35 90 -10 14 -27 26 -37 28 -12 2 -50 -22 -96 -58 -58
-46 -81 -72 -96 -108 -12 -26 -28 -103 -37 -171 -9 -68 -26 -151 -39 -184 -13
-34 -47 -115 -74 -180 -28 -65 -64 -133 -81 -152 -17 -19 -40 -57 -51 -84 -12
-26 -31 -53 -43 -59 -12 -6 -38 -18 -58 -25 -20 -8 -55 -37 -78 -64 -23 -28
-65 -63 -94 -78 -29 -15 -63 -38 -77 -51 -14 -13 -55 -38 -90 -55 -36 -17 -94
-51 -130 -74 -36 -24 -90 -53 -121 -64 -30 -12 -82 -37 -115 -57 -32 -20 -70
-41 -84 -46 -14 -5 -77 -15 -140 -21 -69 -7 -203 -10 -335 -7 -211 5 -222 6
-267 30 -26 14 -79 51 -117 84 -52 43 -73 68 -81 95 -5 20 -10 63 -10 96 0 33
5 89 11 125 5 36 23 106 38 155 16 50 32 106 36 125 4 19 20 60 35 90 16 30
40 78 54 105 21 41 29 78 41 185 8 74 21 180 30 235 8 55 15 134 15 175 0 41
-6 118 -14 170 -8 52 -20 142 -25 200 -6 58 -17 128 -25 155 -9 28 -44 94 -80
148 -35 54 -81 130 -101 170 -21 40 -63 99 -95 132 -32 33 -71 82 -87 109 -15
27 -41 58 -56 70 -26 19 -41 21 -170 20 -134 -1 -147 -3 -232 -34 -49 -18
-130 -53 -180 -77 -49 -25 -112 -66 -140 -92 -33 -32 -77 -58 -130 -80 -44
-18 -107 -49 -140 -68 -33 -19 -89 -57 -125 -83 -36 -26 -92 -61 -125 -78 -33
-16 -69 -41 -81 -53 -11 -13 -42 -54 -68 -92 -26 -37 -63 -105 -83 -152 -26
-62 -41 -85 -52 -83 -9 2 -24 26 -34 58 -11 33 -22 110 -28 200 -5 80 -12 157
-15 172 -3 15 -18 38 -34 52 -16 13 -62 37 -102 54 -40 17 -98 44 -128 60 -53
29 -63 30 -251 41 -147 9 -215 9 -270 0 -41 -6 -92 -20 -114 -31 -22 -11 -53
-30 -70 -43 -16 -12 -58 -36 -91 -53 -34 -17 -96 -59 -139 -94 -42 -35 -93
-76 -113 -91 -21 -16 -50 -40 -65 -55 -16 -15 -40 -46 -54 -70 -15 -26 -46
-56 -79 -77 -29 -19 -60 -47 -67 -62 -8 -15 -20 -48 -27 -73 -6 -25 -18 -55
-27 -68 -8 -13 -44 -37 -79 -53 -60 -26 -67 -33 -89 -83 -13 -30 -40 -77 -58
-103 -19 -26 -45 -68 -57 -93 -13 -25 -36 -64 -52 -88 -16 -24 -38 -69 -49
-100 -11 -31 -30 -75 -42 -97 -14 -24 -31 -41 -45 -43 -13 -2 -32 7 -47 22
-20 20 -25 35 -25 76 0 27 7 92 16 142 11 60 14 118 10 163 -3 39 -17 116 -31
173 -18 75 -25 131 -25 201 0 65 -8 138 -24 217 -14 66 -32 142 -40 169 -8 28
-30 73 -47 100 -18 28 -45 84 -60 125 -16 41 -36 81 -46 88 -10 7 -33 23 -52
35 -19 12 -46 42 -61 67 -22 38 -40 53 -115 93 -50 26 -109 56 -133 68 -23 11
-73 26 -110 34 -37 8 -137 21 -222 29 -85 8 -214 20 -287 27 -85 8 -192 10
-300 5 -92 -3 -203 -13 -245 -20 -43 -8 -100 -22 -127 -31 -28 -9 -79 -37
-114 -63 -37 -28 -94 -57 -137 -72 -47 -16 -84 -36 -102 -55 -16 -16 -58 -70
-94 -120 -36 -49 -75 -107 -86 -128 -10 -21 -26 -72 -33 -113 -8 -41 -26 -120
-41 -177 -23 -92 -26 -116 -22 -242 4 -128 7 -145 31 -195 15 -30 39 -74 53
-97 13 -23 51 -64 83 -92 32 -28 87 -64 123 -80 36 -16 88 -50 117 -75 28 -25
84 -62 124 -82 46 -23 90 -55 122 -89 43 -45 58 -55 107 -65 54 -12 65 -11
200 23 79 19 168 39 198 42 30 4 67 13 82 21 14 8 43 41 63 73 25 43 56 75
105 110 38 28 76 64 85 80 8 17 15 46 15 65 0 19 -5 47 -11 63 -6 15 -20 38
-31 50 -12 13 -36 26 -55 29 -18 3 -49 3 -69 -1 -32 -6 -39 -13 -64 -68 -15
-34 -39 -72 -52 -83 -12 -12 -41 -31 -63 -42 -22 -11 -69 -32 -104 -46 -36
-14 -84 -26 -108 -26 -24 0 -61 9 -83 20 -21 11 -52 39 -68 62 -16 24 -38 50
-48 59 -11 8 -77 40 -149 71 -71 30 -164 63 -205 73 -41 10 -87 24 -102 31
-15 8 -32 23 -38 33 -6 13 -6 54 1 127 7 79 7 128 -2 182 -9 55 -9 92 0 155 6
45 16 98 21 118 6 20 19 44 29 53 13 12 46 20 103 25 55 5 103 17 139 33 39
18 72 44 109 88 30 34 72 71 92 81 20 10 57 19 82 19 25 0 70 -6 100 -14 39
-10 117 -15 273 -15 120 0 250 0 288 1 50 0 87 -6 130 -22 33 -12 96 -31 140
-42 59 -15 100 -33 160 -73 44 -29 88 -61 97 -71 9 -11 26 -44 38 -74 12 -30
37 -81 55 -115 19 -33 46 -94 61 -135 14 -41 37 -96 50 -122 20 -39 24 -63 24
-137 0 -49 4 -101 10 -115 5 -14 10 -47 11 -73 1 -27 -1 -220 -5 -431 -5 -345
-8 -388 -25 -426 -10 -23 -21 -72 -25 -108 -6 -50 -19 -88 -58 -164 -28 -54
-59 -115 -69 -134 -10 -19 -30 -91 -44 -160 -20 -100 -34 -145 -74 -225 -40
-80 -53 -119 -65 -194 -12 -75 -22 -104 -49 -145 -18 -28 -41 -73 -51 -101 -9
-27 -23 -90 -31 -138 -10 -67 -20 -98 -42 -128 -15 -22 -41 -61 -57 -87 -15
-25 -48 -91 -72 -145 -25 -54 -51 -124 -59 -155 -8 -31 -15 -82 -15 -113 0
-32 4 -69 10 -83 5 -14 21 -33 35 -42 16 -11 54 -19 99 -22 70 -4 74 -3 103
24 23 21 38 53 58 119 15 50 36 106 46 126 10 21 31 47 46 59 15 12 49 34 75
50 26 16 54 40 64 55 9 14 23 51 30 83 8 31 14 86 14 121 0 40 12 108 31 180
17 64 39 132 49 151 10 19 30 46 45 60 15 14 31 33 36 42 5 10 16 75 24 145 8
71 22 160 30 200 11 47 29 92 55 132 22 33 68 118 104 188 35 71 71 153 80
184 10 35 31 75 55 104 22 26 47 68 56 94 10 25 35 70 57 99 22 30 55 84 73
120 18 37 47 85 65 107 18 22 52 78 77 125 24 47 70 122 101 167 31 45 67 90
80 100 13 10 40 52 60 93 27 55 48 81 77 101 27 18 49 45 64 78 18 37 34 55
60 67 20 9 81 61 136 115 55 54 129 119 163 144 35 25 82 56 104 67 31 16 69
23 166 29 70 4 161 13 202 18 49 6 90 7 119 0 23 -5 61 -19 83 -30 29 -15 45
-33 61 -67 19 -41 22 -64 22 -177 -1 -79 -8 -169 -19 -230 -10 -55 -31 -172
-48 -260 -16 -88 -45 -239 -64 -335 -20 -96 -37 -206 -40 -245 -4 -52 -14 -88
-39 -140 -28 -57 -36 -89 -45 -174 -6 -58 -19 -143 -30 -190 -12 -48 -39 -144
-61 -216 -23 -71 -61 -178 -85 -237 -37 -91 -44 -117 -44 -175 1 -38 8 -90 18
-119 10 -29 33 -76 51 -106 19 -31 47 -63 63 -73 17 -9 39 -14 51 -11 12 3 49
26 81 50 33 25 68 59 79 77 18 27 20 49 21 168 1 120 4 141 24 182 14 30 42
61 74 85 29 22 66 58 83 82 30 43 30 45 36 205 3 96 12 188 22 227 9 36 21
112 27 170 6 58 18 141 26 185 9 44 34 130 56 190 22 61 58 145 79 188 22 42
52 117 68 165 15 48 55 141 88 207 33 66 66 136 73 155 7 19 30 53 50 75 19
22 51 67 69 99 19 32 53 78 75 101 25 27 56 47 81 54 22 6 53 11 68 11 15 0
44 7 65 16 20 8 51 28 67 43 17 16 50 41 75 56 25 16 64 43 87 60 24 18 80 47
125 65 46 18 109 53 140 77 31 24 73 50 92 58 20 8 52 15 73 15 21 0 56 -9 79
-19 23 -10 51 -32 62 -49 12 -16 22 -33 22 -37 0 -3 22 -41 49 -83 27 -42 63
-113 80 -157 17 -45 45 -103 62 -130 18 -28 39 -70 47 -95 11 -34 16 -110 20
-302 2 -170 0 -281 -8 -326 -8 -51 -24 -90 -59 -151 -31 -52 -53 -104 -60
-141 -7 -33 -16 -102 -20 -154 -6 -74 -13 -103 -34 -138 -14 -25 -35 -80 -47
-124 -17 -61 -22 -116 -25 -239 -2 -88 -7 -196 -10 -240 -5 -52 -3 -96 5 -125
7 -25 21 -57 31 -71 10 -15 28 -29 38 -32 11 -3 36 4 56 14 19 10 48 19 65 19
21 0 44 -13 79 -44 27 -24 62 -47 78 -50 15 -3 78 -13 140 -21 62 -9 134 -22
160 -30 26 -8 66 -15 88 -15 22 0 78 9 125 21 47 11 132 24 190 29 58 5 126
15 152 23 26 8 64 28 85 45 21 16 52 36 68 45 17 8 62 24 101 36 39 12 89 35
110 52 22 17 64 44 95 59 30 16 77 45 104 65 26 21 76 50 109 65 34 15 82 43
107 63 26 19 56 40 67 46 11 6 32 11 46 11 18 0 30 -8 40 -27 7 -16 17 -48 21
-73 3 -25 11 -62 16 -82 7 -28 21 -45 55 -69 37 -25 52 -46 83 -114 33 -71 45
-87 83 -109 25 -14 87 -37 139 -50 52 -13 121 -39 154 -57 l60 -34 145 0 c136
0 148 2 195 26 28 14 70 37 95 52 25 15 79 33 120 42 69 14 79 20 125 68 28
29 81 70 119 92 48 27 126 94 250 213 100 95 213 211 251 258 39 46 86 95 106
108 20 14 48 45 63 69 14 25 40 57 58 72 18 15 48 48 66 74 18 25 58 67 88 92
31 26 76 57 101 70 25 13 61 43 81 67 19 24 67 61 106 84 39 22 88 60 110 85
21 24 59 55 85 68 25 14 58 35 73 47 20 15 54 25 118 34 80 11 96 17 135 48
24 20 50 36 58 36 8 0 20 -7 27 -15 6 -8 14 -31 17 -52 4 -29 1 -42 -14 -55
-10 -9 -50 -25 -88 -37 -39 -11 -77 -26 -86 -33 -8 -7 -28 -30 -43 -51 -15
-20 -55 -55 -88 -76 -46 -29 -71 -55 -104 -106 -41 -64 -44 -73 -44 -139 0
-39 -7 -93 -16 -121 -10 -31 -18 -106 -21 -200 -3 -93 -1 -173 6 -210 6 -33
19 -75 29 -95 10 -19 51 -88 91 -152 56 -92 84 -126 124 -155 29 -20 95 -75
147 -121 52 -46 107 -90 123 -99 17 -8 111 -31 211 -50 168 -32 190 -34 306
-28 69 3 166 9 215 14 59 6 109 17 145 33 30 14 77 31 103 38 32 9 66 29 100
60 29 26 85 67 125 91 41 24 99 59 130 77 31 18 75 48 97 66 22 18 76 51 120
74 44 22 94 54 110 72 17 17 62 50 100 73 39 22 95 59 125 83 30 23 88 60 129
81 57 29 88 54 129 102 30 35 75 79 101 97 25 18 76 54 113 79 44 30 81 66
107 103 22 31 68 86 103 122 35 36 112 112 171 169 90 88 109 102 122 91 8 -7
20 -30 26 -52 6 -22 8 -59 4 -82 -4 -22 -11 -57 -17 -76 -6 -19 -26 -61 -45
-92 -28 -44 -36 -71 -40 -121 -5 -53 -1 -79 22 -146 l28 -82 -32 -92 c-18 -51
-41 -123 -51 -162 -11 -38 -20 -88 -20 -110 0 -22 9 -59 19 -82 12 -26 32 -48
52 -59 24 -12 48 -15 94 -12 33 3 75 13 93 22 17 9 44 37 59 63 23 39 28 62
33 149 7 98 9 105 58 197 29 53 58 124 66 159 8 35 22 107 31 161 8 54 22 113
29 132 8 18 38 60 68 92 36 39 67 88 96 153 35 76 53 102 90 133 26 21 75 52
110 69 49 24 82 33 155 39 50 4 112 15 136 23 24 9 55 16 70 16 14 0 46 -9 70
-20 24 -11 52 -20 62 -20 11 0 42 12 70 26 49 26 50 26 93 10 25 -9 56 -28 70
-42 16 -16 29 -46 36 -81 7 -31 9 -79 5 -108 -3 -29 -14 -66 -23 -83 -9 -18
-48 -53 -87 -79 -62 -43 -74 -56 -105 -120 -20 -39 -44 -81 -54 -92 -11 -12
-50 -30 -88 -42 -38 -11 -98 -33 -132 -49 -53 -25 -71 -28 -113 -23 -48 5 -52
3 -91 -32 -23 -20 -51 -52 -62 -70 -14 -22 -19 -42 -14 -59 3 -13 24 -43 47
-66 24 -24 58 -45 82 -51 22 -6 58 -9 80 -6 22 2 58 16 79 31 21 14 51 26 65
26 15 0 36 -7 48 -15 12 -8 26 -30 32 -48 6 -18 12 -80 14 -138 l2 -105 60
-67 c34 -37 101 -96 149 -132 49 -36 100 -69 115 -73 14 -4 85 -7 156 -7 72 0
143 4 158 8 15 4 55 32 87 62 43 40 68 55 88 55 16 0 44 -10 63 -23 18 -12 47
-41 64 -63 16 -22 44 -61 62 -87 17 -25 42 -53 55 -61 13 -9 60 -21 103 -27
44 -6 134 -12 200 -13 112 -1 124 1 175 27 30 15 75 38 100 52 32 18 71 28
135 34 50 5 107 17 129 26 21 9 57 28 80 42 22 15 86 46 141 70 55 24 113 57
130 73 16 16 52 38 78 49 27 12 65 24 85 27 29 4 43 1 65 -16 15 -12 34 -34
41 -48 8 -15 17 -47 21 -72 4 -25 12 -54 18 -65 6 -11 17 -25 26 -32 9 -7 35
-22 58 -33 28 -13 63 -20 100 -20 32 0 97 -5 144 -11 68 -8 112 -7 214 6 104
13 144 22 206 50 42 19 83 35 90 35 8 0 34 9 58 21 25 11 74 44 111 74 37 30
83 62 104 70 20 8 63 18 96 22 46 4 65 2 85 -11 18 -12 25 -25 25 -50 0 -19
-12 -50 -29 -77 -27 -40 -32 -63 -51 -207 -11 -90 -28 -197 -36 -240 -9 -42
-35 -120 -59 -173 -24 -53 -53 -129 -64 -170 -11 -41 -43 -168 -71 -284 -40
-161 -63 -234 -101 -316 -38 -82 -52 -125 -59 -185 -5 -44 -14 -124 -20 -178
-8 -78 -19 -119 -49 -190 -21 -50 -43 -109 -49 -131 -6 -22 -13 -64 -17 -94
-3 -29 -20 -81 -37 -115 -17 -33 -46 -108 -63 -166 -18 -58 -40 -139 -49 -181
-10 -42 -26 -90 -36 -107 -11 -17 -33 -38 -49 -47 -19 -9 -41 -13 -56 -9 -15
4 -32 16 -40 28 -8 11 -28 62 -45 111 -18 50 -47 113 -65 140 -19 28 -43 84
-55 125 -18 61 -30 81 -65 115 -24 22 -53 60 -65 85 -13 25 -43 65 -69 90 -25
25 -61 72 -79 105 -18 33 -53 89 -78 125 -25 36 -63 83 -84 105 -22 22 -51 67
-66 100 -15 33 -53 101 -86 150 -34 52 -76 102 -99 118 -22 16 -48 46 -59 67
-15 30 -33 45 -83 68 -35 17 -68 36 -74 44 -6 7 -13 24 -14 38 -1 14 -1 38 -1
53 1 15 14 40 28 54 25 25 29 26 112 20 48 -4 116 -16 152 -27 48 -16 78 -20
114 -15 26 3 77 17 112 30 51 19 91 25 197 30 72 3 164 11 202 16 39 6 88 17
111 25 33 12 51 29 89 84 45 65 47 72 43 122 -2 29 -12 69 -22 89 -9 20 -29
42 -44 49 -15 7 -52 14 -82 16 -44 4 -72 -2 -140 -26 -47 -17 -119 -42 -160
-56 -41 -14 -127 -32 -190 -40 -63 -8 -131 -17 -150 -20 -19 -3 -71 -16 -115
-27 -70 -19 -106 -22 -280 -21 -138 0 -228 5 -290 17 -49 8 -118 19 -152 23
-34 3 -78 3 -98 0 -21 -4 -54 -23 -76 -43 -22 -20 -47 -50 -56 -67 -11 -20
-14 -44 -10 -77 3 -26 13 -61 21 -77 9 -17 53 -65 100 -107 82 -74 85 -79 110
-158 18 -60 34 -91 58 -114 18 -17 47 -37 63 -43 17 -6 84 -16 150 -21 65 -5
131 -15 145 -22 14 -7 38 -36 53 -65 16 -29 43 -63 60 -77 18 -14 67 -52 110
-85 71 -56 81 -68 116 -144 21 -45 63 -118 94 -162 30 -43 68 -89 85 -101 16
-12 40 -45 54 -75 14 -29 42 -77 62 -107 20 -29 36 -58 36 -65 0 -6 11 -33 24
-61 12 -27 43 -74 69 -103 26 -31 55 -80 68 -115 12 -34 39 -97 60 -139 26
-54 40 -102 48 -160 6 -46 15 -129 20 -184 7 -90 13 -112 49 -185 22 -46 46
-112 52 -146 7 -35 10 -86 8 -115 -3 -32 -20 -84 -42 -131 -20 -42 -41 -100
-46 -128 -6 -31 -6 -75 -1 -115 5 -36 18 -79 28 -97 10 -18 38 -42 63 -54 24
-13 56 -23 70 -23 14 0 40 8 57 18 18 9 53 37 79 61 25 24 52 59 60 76 7 18
29 102 48 186 20 85 42 179 51 209 8 30 22 111 31 179 8 69 18 129 21 134 3 4
11 55 19 112 10 81 22 121 54 191 22 48 47 113 54 143 8 31 22 99 31 151 9 52
24 122 34 155 10 33 22 87 26 120 3 33 22 96 42 140 19 44 47 109 63 145 15
36 31 75 34 87 4 11 13 77 21 145 8 67 21 146 29 174 9 28 31 70 49 95 19 24
40 60 46 79 7 19 16 86 22 149 8 103 14 126 64 251 30 76 66 186 80 245 14 58
39 139 57 178 17 40 40 104 50 142 10 39 23 113 29 165 6 52 24 138 39 190 16
52 35 120 44 151 8 30 27 71 40 90 14 19 37 55 51 82 14 26 36 88 50 139 17
63 36 108 63 147 22 31 49 74 60 96 11 22 55 85 97 140 42 55 102 120 133 145
35 28 69 68 89 104 18 32 44 71 57 87 14 16 28 48 31 72 3 23 -1 87 -9 142 -9
55 -23 121 -31 147 -9 26 -28 58 -42 72 -15 15 -45 29 -79 36 -44 9 -64 9
-108 -4 -30 -9 -69 -28 -86 -42 -17 -15 -38 -43 -46 -63 -9 -20 -16 -58 -16
-86 -1 -27 2 -77 7 -111 6 -48 4 -67 -9 -92 -9 -17 -31 -46 -49 -64 -18 -18
-46 -51 -62 -73 -16 -22 -49 -62 -75 -90 -25 -27 -62 -74 -80 -103 -21 -32
-58 -69 -95 -94 -33 -23 -85 -58 -115 -79 -30 -20 -84 -47 -120 -59 -35 -12
-77 -28 -92 -36 -16 -8 -45 -33 -66 -55 -20 -22 -49 -47 -64 -55 -15 -8 -60
-21 -100 -29 -40 -9 -90 -22 -112 -31 -21 -8 -57 -28 -80 -43 -22 -15 -57 -33
-77 -40 -20 -6 -107 -13 -195 -14 -134 -2 -164 1 -190 15 -19 10 -37 31 -43
49 -6 18 -11 56 -11 85 0 50 3 57 49 107 40 45 51 66 66 125 13 54 26 81 52
109 20 21 45 58 56 83 14 31 23 79 28 155 4 61 13 128 18 150 6 22 11 65 11
95 0 38 -7 70 -22 100 -16 29 -36 50 -61 63 -37 19 -40 19 -110 2 -40 -9 -85
-24 -100 -32 -16 -8 -46 -30 -68 -50 -22 -20 -49 -53 -58 -72 -10 -20 -26 -68
-35 -107 -12 -53 -13 -84 -6 -127 5 -34 5 -69 0 -88 -5 -17 -21 -47 -36 -66
-21 -27 -29 -52 -34 -107 -4 -45 -16 -89 -33 -122 -14 -28 -40 -63 -56 -77
-17 -14 -59 -35 -95 -47 -36 -11 -83 -35 -106 -51 -23 -17 -85 -52 -138 -78
-54 -26 -141 -72 -196 -101 -98 -53 -98 -53 -168 -47 -61 5 -86 1 -191 -29
-100 -29 -135 -35 -191 -32 -66 4 -69 5 -112 50 -28 30 -44 56 -44 72 0 14 9
35 20 46 10 10 58 31 106 46 70 21 96 35 134 70 26 24 76 57 112 73 36 17 80
42 97 57 18 15 43 48 56 75 14 26 47 66 74 89 35 29 56 57 67 89 9 25 25 66
36 90 10 24 33 60 52 81 22 25 38 55 45 89 6 29 11 67 11 84 0 18 -10 52 -22
75 -13 23 -49 81 -82 128 -32 46 -70 91 -85 98 -14 8 -62 25 -106 39 -44 14
-108 37 -142 52 -40 16 -83 26 -117 26 -49 1 -61 -4 -128 -49 -57 -38 -88 -70
-135 -134 -33 -45 -81 -124 -106 -174 -35 -70 -66 -113 -135 -185 l-89 -95 -6
-70 c-4 -43 -19 -104 -42 -164 -20 -52 -43 -115 -50 -140 -7 -25 -18 -72 -24
-104 -6 -36 -19 -69 -33 -83 -12 -13 -51 -32 -86 -43 -35 -11 -87 -20 -116
-20 -29 0 -66 8 -85 18 -19 9 -43 29 -54 43 -11 15 -30 71 -43 125 -13 55 -24
115 -24 134 0 19 11 58 24 85 13 28 47 75 76 105 28 30 63 77 77 103 13 27 42
68 64 91 21 24 46 61 55 82 12 28 17 64 16 129 -1 50 -11 131 -21 182 -11 51
-37 131 -58 179 -21 47 -51 101 -68 119 -24 26 -54 40 -142 69 -72 23 -132 36
-165 36 -29 0 -69 -4 -88 -10 -19 -5 -111 -21 -205 -36 -93 -15 -218 -28 -276
-29 -96 -2 -112 -5 -152 -28 -25 -15 -58 -46 -74 -68 -15 -23 -41 -56 -57 -75
-16 -20 -37 -34 -50 -34 -13 0 -32 10 -44 23 -11 12 -24 40 -27 62 -4 22 1
103 10 180 9 77 21 160 26 185 6 25 37 101 70 170 33 69 85 175 116 235 32 61
78 145 104 188 26 42 52 98 58 125 5 26 15 73 21 105 9 43 21 69 46 97 19 21
45 66 58 99 13 33 29 84 35 113 8 33 9 92 5 159 -4 58 -4 126 0 151 4 25 22
69 41 99 20 31 35 66 35 84 0 16 -4 45 -10 64 -5 19 -21 51 -35 72 -15 20 -39
70 -55 110 -15 41 -45 114 -65 164 -20 49 -46 102 -57 118 -11 15 -32 34 -48
42 -16 8 -37 15 -47 14 -10 0 -43 -8 -73 -18z m96 -409 c6 -4 17 -18 25 -32 9
-17 15 -75 17 -184 2 -90 -1 -200 -8 -255 -8 -62 -21 -113 -36 -143 -13 -26
-31 -77 -39 -113 -9 -35 -20 -76 -25 -89 -5 -14 -26 -43 -46 -66 -29 -32 -43
-60 -60 -127 -13 -47 -30 -96 -39 -109 -8 -13 -22 -24 -30 -24 -8 0 -21 10
-29 23 -8 12 -20 49 -26 82 -7 32 -10 80 -7 105 4 25 24 99 46 165 26 81 48
175 65 289 14 93 26 210 26 261 0 51 5 107 11 126 7 19 18 41 26 51 8 9 29 23
46 32 18 8 41 16 52 16 11 0 25 -4 31 -8z m-3144 -2423 c33 -7 62 -22 80 -39
23 -24 28 -37 28 -78 0 -43 -5 -55 -32 -83 -18 -18 -55 -43 -83 -55 -27 -13
-63 -24 -80 -24 -16 0 -46 5 -66 10 -19 5 -48 23 -64 40 -23 23 -28 38 -28 73
1 24 10 62 21 84 11 22 27 45 36 52 8 7 27 16 43 21 15 4 42 9 60 9 18 1 56
-4 85 -10z m5274 -179 c27 -12 57 -30 68 -39 10 -9 22 -26 27 -39 6 -16 4 -44
-6 -83 -9 -33 -21 -71 -27 -84 -6 -14 -35 -38 -64 -55 -29 -16 -63 -43 -75
-59 -12 -17 -53 -46 -90 -66 -48 -25 -78 -49 -104 -84 -22 -31 -53 -58 -80
-71 -25 -12 -63 -24 -85 -27 -33 -5 -42 -1 -64 22 -14 15 -28 43 -32 62 -4 20
-1 46 5 61 7 15 23 43 37 62 13 20 29 63 35 95 6 33 20 72 30 87 11 15 42 39
69 54 27 14 74 56 106 91 32 37 76 74 98 85 24 11 54 17 72 14 17 -2 53 -14
80 -26z"/>
<path d="M9630 7771 c-14 -4 -43 -17 -65 -28 -22 -12 -49 -31 -60 -43 -11 -12
-33 -29 -50 -37 -17 -9 -64 -17 -115 -19 -47 -2 -137 -14 -200 -26 l-115 -22
-70 -66 c-38 -36 -106 -95 -150 -132 -67 -55 -87 -79 -123 -146 -23 -44 -49
-85 -58 -93 -8 -7 -27 -32 -41 -56 -25 -42 -25 -47 -21 -186 4 -96 10 -156 21
-185 9 -23 49 -81 88 -128 40 -47 88 -93 108 -103 20 -10 88 -31 151 -46 89
-21 129 -26 180 -22 36 3 106 18 155 33 58 18 119 29 170 31 44 2 90 6 103 9
13 2 42 22 65 44 24 21 76 57 118 79 60 33 92 59 162 138 48 54 110 132 137
173 28 41 57 96 64 122 8 25 18 97 21 160 5 76 3 128 -5 158 -6 25 -41 105
-77 178 -45 91 -75 140 -97 156 -17 13 -49 32 -71 41 -22 9 -76 19 -120 21
-44 2 -91 0 -105 -5z m113 -288 c52 -14 65 -23 104 -72 25 -31 53 -74 64 -96
10 -22 19 -57 19 -78 0 -26 -14 -63 -44 -118 -24 -44 -76 -116 -116 -160 -42
-46 -91 -90 -118 -104 -26 -13 -59 -38 -73 -57 -14 -18 -61 -55 -103 -82 -75
-47 -79 -48 -129 -41 -29 5 -86 9 -128 11 -52 2 -89 9 -115 22 -22 11 -78 32
-125 46 -47 15 -94 35 -103 45 -10 11 -24 40 -32 67 -8 26 -14 63 -14 83 0 20
11 59 24 86 12 28 39 62 58 77 22 17 53 62 88 127 29 57 68 115 88 132 l35 31
171 -6 c94 -2 184 -6 201 -8 27 -3 32 2 54 43 13 26 33 52 45 57 11 6 36 11
55 11 19 1 61 -6 94 -16z"/>
</g>
</svg>
