<?xml version="1.0" encoding="utf-8"?>
<!-- Generator: Adobe Illustrator 13.0.0, SVG Export Plug-In . SVG Version: 6.00 Build 14948)  -->
<!DOCTYPE svg PUBLIC "-//W3C//DTD SVG 1.1//EN" "http://www.w3.org/Graphics/SVG/1.1/DTD/svg11.dtd">
<svg version="1.1" id="Layer_1" xmlns="http://www.w3.org/2000/svg" xmlns:xlink="http://www.w3.org/1999/xlink" x="0px" y="0px"
	 width="500px" height="121.639px" viewBox="0 0 500 121.639" enable-background="new 0 0 500 121.639" xml:space="preserve">
<g>
	<g>
		<path fill-rule="evenodd" clip-rule="evenodd" d="M328.425,27.529c1.051,4.259-3.434,6.125-6.401,8.323
			c-2.864,2.121-7.199,4.027-9.604,6.402c-2.164,2.139-6.206,8.181-5.762,12.164c1.089,9.776,20.882,5.728,17.926,19.207
			c-0.463,2.11-4.404,6.134-6.402,7.682c-3.308,2.562-8.333,4.828-12.804,7.043c-12.156,6.021-28.782,12.466-39.693,19.846
			c6.92-0.268,12.82-3.986,19.207-6.401c3.309-1.252,6.718-1.879,10.243-3.201c2.995-1.124,5.848-3.396,8.963-4.481
			c2.803-0.977,6.092-0.991,8.963-1.921c4.314-1.397,8.317-2.868,14.084-4.481c2.246-0.628,4.272-1.297,6.402-1.921
			c8.699-2.549,15.662-4.95,24.968-7.042c2.331-0.523,4.751-0.722,7.042-1.28c9.966-2.427,23.217-4.3,34.571-7.683
			c4.031,1.7,8.198-0.739,12.164-1.28c4.55-0.621,9.337,0.027,14.084-0.641c3.429-0.481,8.002-0.89,13.444-1.28
			c2.753-0.196,5.157-1.255,7.683-1.28c1.793-0.018,3.402,0.723,5.122,0.641c2.314-0.111,4.494-1.112,7.042-1.28
			c6.234-0.41,14.792,0.079,21.767,1.28c1.748,0.301,4.989-0.051,5.122,2.561c-3.87,0.866-7.849-1.169-11.523-1.28
			c-2.762-0.085-5.682,1.205-8.963,1.28c-13.014,0.298-27.575-0.19-40.974,1.28c-1.672,0.184-2.798,0.997-4.481,1.28
			c-3.722,0.627-7.757,0.006-11.523,0.641c-17.018,2.867-37.644,6.952-55.058,10.883c-22.673,5.119-46.027,13.072-67.222,21.127
			c-1.505,0.572-3.107,0.687-4.481,1.28c-3.383,1.464-9.498,3.453-14.084,5.122c-2.881,1.049-6.617,3.8-9.604,0.641
			c-0.791-6.449,5.442-6.581,9.604-8.323c1.389-0.581,2.914-1.882,4.481-2.561c1.565-0.679,3.526-0.565,5.121-1.28
			c0.818-0.367,2.697-1.69,4.481-2.562c10.038-4.901,23.735-10.655,32.65-17.285c2.534-1.884,6.673-5.064,6.402-8.322
			c-0.532-6.423-14.789-6.998-17.285-13.445c-0.813-2.101,0.027-4.769-0.641-8.963c-4.751,1.865-9.092,4.139-14.085,5.762
			c-1.468-1.812-2.177-2.96-1.28-5.762c-4.6,0.095-4.93,4.459-9.603,4.481c-0.422-4.436,5.674-8.921,8.322-12.804
			c0.718-2.501,1.969-7.825,4.481-6.402c2.966,0.947-0.044,3.71-0.64,5.122c-0.915,2.165-2.149,4.04-2.562,5.762
			c5.569-1.047,5.879-7.353,10.884-8.963c0.823,5.806-6.287,9.021-7.683,14.725c7.925,0.083,13.484-5.115,17.926-10.243
			c0.768-0.885,1.677-1.485,2.561-2.561c2.713-3.299,9.919-7.777,14.726-10.243C327.02,27.228,327.544,27.556,328.425,27.529z"/>
		<path fill-rule="evenodd" clip-rule="evenodd" d="M145.967,33.931c-0.091,5.671-3.589,7.935-5.762,11.524
			c-2.209-0.472,0.425-2.9,1.28-4.481c0.93-1.721,3.114-3.377,2.561-5.762c-6.369,1.526-10.672,5.12-10.243,13.444
			c1.736,1.746,1.594-1.656,3.841-1.281c-2.5,5.014,3.266,4.565,5.122,7.042c0.694,5.973-0.764,7.079-4.481,10.244
			c-4.005,3.409-10.371,7.528-17.286,8.322c-0.099-3.853,3.901-5.644,6.402-7.042c2.725-1.523,6.186-2.756,8.963-3.842
			c1.228-2.186,2.989-3.84,3.201-7.042c-5.609-6.182-10.78,4.378-14.725,8.322c-1.422,1.422-3.4,2.246-5.122,3.842
			c-3.537,3.278-9.242,10.073-15.365,10.243c-2.533-2.975-0.801-8.729,0.64-11.523c-3.336-0.627-5.001,5.559-8.323,7.042
			c1.397-7.3,8.411-10.726,12.804-16.005c2.295-2.757,3.98-6.479,6.402-8.963c2.11-2.164,5.208-4.295,7.683-6.402
			c2.579-2.196,5.367-5.093,8.963-5.122c0.717,4.658-6.604,6.553-8.323,10.883c-9.77,5.183-18.38,14.892-18.566,27.529
			c5.796-1.559,11.027-6.272,15.365-10.243c4.319-3.954,8.053-8.631,12.164-12.805C130.041,43.54,135.557,30.726,145.967,33.931z"/>
		<path fill-rule="evenodd" clip-rule="evenodd" d="M76.185,40.973c0.258,5.622-4.019,9.681-7.042,12.804
			c-1.234,1.274-3.272,2.002-4.481,3.201c-2.781,2.759-4.836,6.557-6.402,10.244c-1.544,3.635-3.144,7.901-3.841,12.804
			c1.809,2.179,3.804-4.249,5.122-2.561c-1.612,3.937-4.24,6.856-6.402,10.243c-4.675-3.986,1.622-13.24,1.92-18.565
			c-8.419,3.527-12.5,12.049-19.206,17.285c-3.024,2.362-6.836,3.856-10.884,5.121c-3.909-3.833-0.711-9.15,1.281-12.804
			c0.914-1.676,2.121-4.132,3.201-5.762c1.135-1.713,2.404-4.193,4.481-3.841c2.702,2.172-0.987,4.738,0,8.963
			c-3.908,1.854-6.62,4.903-7.042,10.243c6.572-2.751,11.619-7.679,16.645-12.164c5.049-4.506,9.532-9.712,14.725-14.085
			c2.884-9.493,9.498-15.256,16.005-21.126C74.904,40.973,75.544,40.973,76.185,40.973z M65.941,54.417
			c0.42-2.346,8.195-5.525,4.481-7.683C69.736,49.69,64.889,51.852,65.941,54.417z"/>
		<path fill-rule="evenodd" clip-rule="evenodd" d="M81.306,51.216c-1.687,6.08-6.958,9.365-10.244,14.084
			c-1.52,2.184-2.532,5.242-3.841,7.683c-1.331,2.479-3.188,4.64-3.201,7.683c0.969,1.936,2.81-0.531,4.481,0
			c0.318,3.093-2.293,3.255-5.122,3.201c-2.456-1.599-0.168-7.941-2.561-9.604c6.837-7.035,11.816-15.926,17.926-23.688
			C80.083,50.305,80.44,51.015,81.306,51.216z"/>
		<path fill-rule="evenodd" clip-rule="evenodd" d="M81.946,72.983c-0.844,3.211-2.973,5.136-4.481,7.683
			c-3.318-1.688,0.873-6.172,1.28-8.323C80.229,72.139,81.203,72.445,81.946,72.983z"/>
		<path fill-rule="evenodd" clip-rule="evenodd" d="M236.876,39.693c-0.852,7.898-8.187,9.312-8.963,17.285
			c7.341-1.195,5.667-11.405,12.804-12.804c0.467,5.802-4.714,5.956-4.481,11.523c6.409-2.597,12.464-7.173,16.646-12.164
			c1.59-1.898,2.04-6.606,5.762-5.122c-0.243,3.385-1.754,5.502-3.201,7.683c2.575,1.484,3.219-4.446,6.402-4.481
			c1.815,4.524-3.846,6.715-3.841,11.524c4.94-0.608,6.783-4.313,9.603-7.042c-3.609-1.34-2.428-6.94-1.28-10.243
			c7.046,0.21,9.336,5.175,9.604,12.164c-2.641,2.268-5.167,4.65-8.323,6.402c-0.368-1.125,0.774-3.761-0.64-3.841
			c-5.126,1.49-6.598,6.633-12.805,7.042c0-1.494,0-2.988,0-4.481c-2.911-1.196-3.71,4.663-8.322,3.841
			c-0.514-2.221,0.953-2.46,0.64-4.481c-3.587,1.535-6.522,3.721-9.603,5.762c-2.417,0.283-3.005-1.262-4.481-1.921
			c-3.121,0.72-3.664,4.019-7.042,4.481c-1.816-1.373-1.062-3.41-0.64-5.762c-4.231,0.677-5.797,4.02-8.963,5.762
			c-4.699-3.608-6.727,3.608-11.523,3.842c-0.369-1.339-1.588-1.828-1.281-3.842c-4.076,0.619-5.628,3.762-10.883,3.201
			c-1.839-1.361-0.688-5.714-1.921-7.683c-5.406,2.063-6.55,8.389-12.164,10.243c-2.437-1.952,1.233-5.513-0.64-8.962
			c1.763-1.224,3.358-2.617,5.122-3.841c0.894-3.471,4.579-5.509,7.042-8.323c1.89-2.158,2.729-6.747,5.762-5.122
			c-2.961,8.562-11.283,11.765-14.085,20.486c4.397-2.002,6.494-6.313,9.604-9.603c3.111-3.291,7.042-5.762,10.243-8.963
			c1.697-1.697,2.507-5.281,5.762-5.122c0.894,2.307-1.569,3.942-3.201,5.762c-2.127,2.374-6.336,5.275-8.963,7.683
			c-0.442,3.826-1.495,7.041-1.28,11.523c12.111-1.119,15.199-11.262,23.047-16.645c2.256,2.029,2.97,0.371,5.762,0
			c0.636,4.163-4.593,7.701-6.402,11.523c1.657,1.601,3.242,0.014,4.481-0.64c3.266-1.723,7.951-6.727,10.243-9.603
			C232.405,44.312,232.839,39.641,236.876,39.693z M206.146,60.819c5.11,0.545,8.144-6.306,10.243-10.883
			C211.322,51.911,208.166,55.797,206.146,60.819z"/>
		<path fill-rule="evenodd" clip-rule="evenodd" d="M170.935,48.015c1.15,6.263-6.296,8.92-7.042,15.365
			c3.135,4.187,8.399-2.799,10.243-1.92c-2.417,3.131-6.386,4.71-10.243,6.402c-1.784-0.563-1.519-3.175-3.841-3.2
			c-4.38,2.448-5.707,7.951-12.164,8.322c-2.81-4.434,1.031-9.553,3.201-13.444c2-3.586,4.127-9.647,8.963-9.603
			c0,1.494,0,2.988,0,4.481c-0.743,0.537-1.716,0.844-3.201,0.64c-2.187,4.911-8.105,9.318-7.042,15.365
			c2.843-0.162,4.574-2.923,6.402-4.481c2.068-1.764,4.267-2.71,5.762-5.122c1.13-1.823,1.882-5.53,3.201-7.682
			C166.472,51.017,167.224,47.829,170.935,48.015z"/>
	</g>
</g>
</svg>
