<?xml version="1.0" encoding="UTF-8" standalone="no"?>
<svg
   xmlns:dc="http://purl.org/dc/elements/1.1/"
   xmlns:cc="http://creativecommons.org/ns#"
   xmlns:rdf="http://www.w3.org/1999/02/22-rdf-syntax-ns#"
   xmlns:svg="http://www.w3.org/2000/svg"
   xmlns="http://www.w3.org/2000/svg"
   version="1.1"
   id="svg2"
   viewBox="0 0 236.78889 70.20933"
   height="19.814634mm"
   width="66.827087mm">
  <defs
     id="defs4" />
  <metadata
     id="metadata7">
    <rdf:RDF>
      <cc:Work
         rdf:about="">
        <dc:format>image/svg+xml</dc:format>
        <dc:type
           rdf:resource="http://purl.org/dc/dcmitype/StillImage" />
        <dc:title></dc:title>
      </cc:Work>
    </rdf:RDF>
  </metadata>
  <g
     transform="translate(-16.621946,-11.054984)"
     id="layer1">
    <path
       id="path3366"
       d="m 28.67368,77.69879 c -0.0619,-0.025 -0.26031,-0.14636 -0.44097,-0.26965 -0.30112,-0.20551 -0.38542,-0.22508 -1.0125,-0.23511 -1.80271,-0.0288 -3.3415,-1.3979 -3.46295,-3.08098 l -0.0487,-0.675 0.27591,-0.31875 c 0.15175,-0.17531 0.32322,-0.31875 0.38104,-0.31875 0.35304,0 0.67079,-0.22914 0.68445,-0.49359 0.0237,-0.45866 0.6634,-0.87637 1.09863,-0.71739 0.26788,0.0979 0.48117,0.0197 0.85243,-0.31244 0.22147,-0.19812 0.37731,-0.26682 0.69767,-0.30754 0.6085,-0.0773 0.7403,-0.12062 0.7848,-0.25775 0.0509,-0.15684 1.01299,-0.48315 1.25192,-0.4246 0.0968,0.0237 0.63062,-0.0756 1.18828,-0.22111 0.55687,-0.1453 1.14982,-0.2645 1.31765,-0.26488 0.22127,-5e-4 0.43775,-0.081 0.7875,-0.29284 0.36867,-0.2233 0.51395,-0.27534 0.61645,-0.22084 0.3205,0.17043 1.45511,-0.21365 1.9284,-0.65278 0.22247,-0.20642 0.53679,-0.28355 1.8375,-0.45092 0.83581,-0.10755 1.02853,-0.15861 1.35,-0.35765 0.32795,-0.20306 0.45028,-0.2342 0.975,-0.24821 0.33,-0.009 0.75187,-0.0515 0.9375,-0.0949 0.18562,-0.0434 0.45656,-0.0797 0.60207,-0.0807 0.15795,-0.001 0.50097,-0.12273 0.85119,-0.30183 0.45578,-0.23309 0.67119,-0.3 0.9658,-0.3 0.22927,0 0.70284,-0.10463 1.19785,-0.26466 0.97679,-0.31578 1.3106,-0.36617 1.85809,-0.28051 0.32838,0.0514 0.47367,0.0384 0.7125,-0.0636 0.165,-0.0705 0.56801,-0.16814 0.89558,-0.21698 0.32757,-0.0489 0.68194,-0.1217 0.7875,-0.1619 0.10555,-0.0402 0.46319,-0.10396 0.79475,-0.14169 0.33157,-0.0378 0.87157,-0.13946 1.2,-0.22606 0.42391,-0.11177 0.90006,-0.16608 1.64119,-0.18718 0.97707,-0.0278 2.08116,-0.19833 2.62624,-0.40557 0.27053,-0.10285 0.84543,-0.0978 0.91083,0.008 0.0702,0.11358 0.93211,0.0324 1.21629,-0.11454 0.15841,-0.0819 0.35929,-0.0997 0.77233,-0.0685 0.45709,0.0346 0.6259,0.0145 0.93176,-0.11108 0.20544,-0.0843 0.61772,-0.17316 0.91618,-0.19744 0.29846,-0.0243 0.83846,-0.11555 1.2,-0.20283 0.45464,-0.10975 0.96957,-0.16631 1.66985,-0.18343 0.55687,-0.0136 1.31625,-0.0608 1.6875,-0.10477 0.37125,-0.044 1.35,-0.11084 2.175,-0.14849 1.17648,-0.0537 1.59859,-0.10148 1.95713,-0.22159 0.25142,-0.0842 0.65642,-0.17414 0.9,-0.1998 0.24357,-0.0256 0.63874,-0.099 0.87814,-0.16303 0.36631,-0.0979 0.4972,-0.10153 0.82606,-0.0227 0.33019,0.0792 0.50107,0.0741 1.10222,-0.033 0.3913,-0.0697 0.89707,-0.13685 1.12395,-0.1492 0.22687,-0.0123 0.86812,-0.0652 1.425,-0.11743 0.55687,-0.0522 1.40062,-0.10071 1.875,-0.10771 0.54085,-0.008 0.92986,-0.0491 1.04313,-0.11006 0.0994,-0.0535 0.38623,-0.10906 0.6375,-0.12341 0.25128,-0.0144 0.8394,-0.0635 1.30694,-0.1091 0.46754,-0.0456 0.89477,-0.0658 0.9494,-0.0449 0.0546,0.0209 0.2796,-0.01 0.49993,-0.0685 0.22033,-0.0587 0.55247,-0.10756 0.7381,-0.10869 0.18562,-10e-4 0.81,-0.0745 1.3875,-0.163 0.66328,-0.10167 1.31835,-0.15406 1.77861,-0.14226 0.62621,0.016 0.77555,-0.005 1.06245,-0.14803 0.26457,-0.13213 0.41684,-0.15866 0.73389,-0.12786 0.22002,0.0214 0.7038,-0.007 1.07505,-0.0635 0.82596,-0.12526 1.58395,-0.13335 1.90808,-0.0203 0.18955,0.0661 0.38573,0.0588 0.89244,-0.0333 0.35721,-0.0649 1.13885,-0.13896 1.73698,-0.16458 0.59812,-0.0256 1.2225,-0.0906 1.3875,-0.14445 0.165,-0.0538 0.64473,-0.12059 1.06608,-0.14837 0.42134,-0.0278 0.94172,-0.10266 1.15638,-0.16641 0.21786,-0.0647 0.49242,-0.0957 0.62142,-0.0702 0.42062,0.0831 0.89295,0.0363 1.2697,-0.12573 0.35669,-0.15344 0.41477,-0.15646 1.42911,-0.0742 0.91625,0.0743 1.12734,0.0695 1.58231,-0.0356 0.4794,-0.11082 1.33661,-0.13762 2.9625,-0.0926 0.64593,0.0178 1.71418,-0.0681 1.86784,-0.15035 0.091,-0.0487 0.47158,-0.0756 0.92466,-0.0653 0.4235,0.01 1.20875,-0.025 1.745,-0.0769 1.24952,-0.12099 3.52224,-0.25164 3.8625,-0.22203 0.75708,0.0659 2.10382,0.006 2.62098,-0.11608 0.52545,-0.12427 0.60188,-0.12479 1.29254,-0.009 0.72694,0.12206 0.73898,0.1216 1.24152,-0.0474 0.47566,-0.16003 0.65078,-0.17232 2.79496,-0.19611 2.97836,-0.0331 3.3712,-0.0524 4.0875,-0.20133 1.09215,-0.22711 3.40548,-0.34057 4.69353,-0.23021 0.43577,0.0374 0.66347,0.0186 0.975,-0.0802 0.35548,-0.11271 0.82512,-0.13083 3.74397,-0.14446 1.83562,-0.009 3.41124,-0.0396 3.50138,-0.0688 0.0926,-0.0301 0.34941,5e-4 0.59035,0.0707 0.3657,0.10631 0.49197,0.1108 0.88611,0.0315 0.25281,-0.0509 1.20216,-0.10532 2.10966,-0.12102 0.9075,-0.0157 1.8525,-0.0615 2.1,-0.10181 0.2475,-0.0403 0.83475,-0.0903 1.30502,-0.11122 0.47026,-0.0209 1.0572,-0.0947 1.30432,-0.16404 0.38673,-0.10851 0.52396,-0.11352 0.98544,-0.036 0.36552,0.0614 0.93367,0.0738 1.78534,0.0389 0.84717,-0.0347 1.46171,-0.0216 1.90953,0.0409 0.60908,0.085 0.69719,0.0801 1.13503,-0.0623 0.42285,-0.13754 0.54979,-0.14649 1.1625,-0.0819 0.9133,0.0962 1.88682,0.0938 2.38383,-0.006 0.22429,-0.0451 1.09344,-0.0764 1.95405,-0.0704 0.863,0.006 1.67746,-0.0234 1.8375,-0.0664 0.2674,-0.0717 0.55537,-0.0614 2.94184,0.10554 0.18117,0.0127 0.48493,-0.0214 0.675,-0.0758 0.43608,-0.12466 1.69809,-0.20789 3.0081,-0.1984 0.77073,0.006 1.0981,-0.0228 1.37095,-0.11863 0.27656,-0.0972 0.40632,-0.10792 0.56788,-0.047 0.15547,0.0587 0.36255,0.0495 0.80403,-0.0359 0.67431,-0.13038 1.05594,-0.14036 2.02294,-0.0529 0.53932,0.0487 0.78022,0.0357 1.17568,-0.0634 0.31459,-0.0789 0.7957,-0.12406 1.3092,-0.12291 2.47041,0.006 3.72536,-0.0298 3.84932,-0.10862 0.10238,-0.0651 1.19618,-0.13105 3.6375,-0.21947 0.78484,-0.0284 0.94319,-0.0566 1.2375,-0.2204 0.4548,-0.25309 0.79052,-0.30331 1.31904,-0.19732 0.94894,0.19028 1.1392,0.20577 1.75596,0.14293 1.71916,-0.17515 2.72981,-0.2372 4.3022,-0.26413 0.94308,-0.0161 1.84066,-0.0633 1.99462,-0.10476 0.15397,-0.0414 0.52985,-0.0949 0.83531,-0.1188 0.30546,-0.0239 0.6007,-0.0579 0.6561,-0.0756 0.0554,-0.0177 0.31946,0.003 0.5868,0.0455 0.39912,0.0638 0.56616,0.0552 0.93394,-0.048 0.36431,-0.10222 0.50135,-0.10965 0.73441,-0.0399 0.44519,0.13338 1.13087,0.10751 1.43273,-0.0541 0.16247,-0.087 0.35138,-0.12664 0.49919,-0.10486 0.13078,0.0193 0.75516,-0.008 1.3875,-0.0606 0.63234,-0.0526 1.47033,-0.10194 1.8622,-0.10958 2.72982,-0.0532 4.56947,-0.13642 4.80698,-0.21743 0.1659,-0.0566 0.51184,-0.0793 0.9,-0.0591 0.38549,0.0201 0.76168,-0.005 0.96802,-0.0628 0.18563,-0.0526 0.56215,-0.0871 0.83671,-0.0768 0.28281,0.0107 0.57224,-0.0203 0.66768,-0.0713 0.10841,-0.058 0.63897,-0.097 1.48829,-0.1092 1.62952,-0.0235 2.97703,-0.15767 3.56982,-0.35543 0.55869,-0.18638 1.14827,-0.25225 1.25977,-0.14074 0.20675,0.20675 1.57487,10e-4 2.24224,-0.33713 0.32973,-0.16708 0.44499,-0.18894 0.76797,-0.1456 0.93148,0.12498 0.96956,0.12237 1.61752,-0.11076 0.35063,-0.12616 0.71079,-0.24173 0.80038,-0.25683 0.46652,-0.0786 0.66845,-0.14823 0.74879,-0.25805 0.0682,-0.0932 0.22533,-0.12249 0.67607,-0.12605 0.323,-0.003 0.76258,-0.0507 0.97686,-0.10687 0.30456,-0.0799 0.45219,-0.0835 0.67636,-0.0163 0.33077,0.0991 0.852,-0.008 1.29654,-0.26676 0.14438,-0.084 0.465,-0.20829 0.7125,-0.2762 0.2475,-0.06792 0.60187,-0.186707 0.7875,-0.263977 0.18563,-0.07728 0.64125,-0.17451 1.0125,-0.216085 0.37125,-0.04155 0.92532,-0.166055 1.23126,-0.276625 0.4418,-0.159675 0.6306,-0.191175 0.9176,-0.153105 0.51496,0.06831 1.10286,-0.11211 2.71198,-0.832285 0.32221,-0.14421 0.86221,-0.33865 1.2,-0.432085 0.33778,-0.09344 0.89184,-0.30999 1.23124,-0.481225 0.3394,-0.171235 0.66497,-0.311335 0.7235,-0.311335 0.0585,0 0.33771,-0.177375 0.62042,-0.394165 0.2827,-0.21679 0.59914,-0.43195 0.70321,-0.47813 0.55023,-0.24416 1.42329,-1.174705 1.42329,-1.516995 0,-0.08423 0.15975,-0.280495 0.375,-0.46071 0.58845,-0.49268 0.44158,-0.78004 -0.55598,-1.087825 -1.13089,-0.34892 -2.1615,-1.071035 -2.46905,-1.73 -0.74185,-1.589465 -0.82538,-1.898565 -0.78904,-2.919675 0.0272,-0.766075 0.0466,-0.85511 0.27171,-1.24663 0.28932,-0.503335 0.29721,-0.636285 0.0653,-1.09961 -0.0974,-0.19457 -0.25168,-0.573135 -0.34282,-0.84126 -0.19214,-0.56526 -0.45542,-0.87183 -1.1033,-1.2847 -0.8493,-0.54123 -1.2245,-1.054245 -1.40534,-1.921525 -0.0602,-0.28885 -0.19897,-0.701755 -0.30833,-0.91756 -0.18895,-0.372875 -0.276,-1.073335 -0.15727,-1.26545 0.0229,-0.037 -0.01,-0.239395 -0.072,-0.449795 -0.10762,-0.362385 -0.10533,-0.39877 0.0434,-0.690355 0.64552,-1.265335 -1.02045,-2.44352 -2.21474,-1.56627 -0.28875,0.2121 -0.69375,0.47069 -0.9,0.574655 -0.20625,0.10396 -0.59609,0.36662 -0.86632,0.583685 -0.27023,0.217065 -0.65835,0.480135 -0.8625,0.584605 -0.20415,0.104465 -0.41536,0.263055 -0.46937,0.352415 -0.10527,0.1742 -0.82025,0.525295 -1.06972,0.525295 -0.20967,0 -1.52018,0.493565 -2.01959,0.760615 -0.22687,0.12132 -0.66562,0.27243 -0.975,0.33581 -0.30937,0.06337 -0.91687,0.27009 -1.35,0.45936 -0.68027,0.297275 -0.88451,0.351565 -1.5,0.398715 -0.72603,0.05562 -1.75663,0.37134 -2.775,0.850105 -0.32968,0.154995 -0.52687,0.19408 -0.98212,0.194665 -0.53795,5e-4 -0.5958,0.01765 -1.04027,0.304925 -0.42041,0.271725 -0.51572,0.302815 -0.89288,0.29125 -0.23222,-0.0072 -0.54013,0.02475 -0.68423,0.0708 -0.14411,0.04605 -0.4006,0.08375 -0.57,0.08375 -0.63122,0 -2.2055,1.542365 -2.2055,2.160785 0,0.20289 -0.36197,0.914215 -0.46522,0.914215 -0.0365,0 -0.36021,0.29804 -0.71933,0.66231 -0.40335,0.409135 -0.79429,0.72956 -1.02271,0.83823 -0.20336,0.09676 -0.59148,0.344375 -0.8625,0.55027 -0.271,0.205895 -0.61086,0.39922 -0.75524,0.42961 -0.14437,0.0304 -0.44812,0.112035 -0.675,0.181435 -1.05538,0.322845 -2.84699,0.30904 -3.50572,-0.027 -1.18635,-0.605235 -1.48275,-0.96281 -1.22974,-1.48357 0.16347,-0.33648 0.16422,-0.35162 0.0422,-0.853475 -0.13693,-0.56338 -0.16019,-0.438175 0.42923,-2.31123 0.26059,-0.82811 0.0465,-0.948405 -0.68602,-0.3855 -0.3546,0.272485 -0.90479,0.486665 -1.5375,0.59851 -0.28875,0.05105 -0.62511,0.123435 -0.74746,0.160865 -0.14409,0.0441 -0.36116,0.037 -0.61614,-0.02005 -0.57061,-0.127695 -0.83715,0.208845 -0.50901,0.642685 0.19271,0.25479 0.13613,0.73147 -0.14608,1.23075 -0.1409,0.249285 -0.27975,0.530965 -0.30855,0.625955 -0.18463,0.608985 -0.85941,1.390955 -1.3002,1.50674 -0.25589,0.06722 -0.45421,0.199625 -0.75944,0.50708 -0.47622,0.47967 -1.70111,0.88033 -2.46,0.804665 -0.50142,-0.05 -1.89498,-0.733625 -2.20758,-1.082965 -0.13505,-0.15092 -0.38054,-0.412415 -0.54554,-0.581105 -0.28654,-0.29294 -0.3,-0.32815 -0.3,-0.784725 0,-0.739675 -0.3456,-0.774435 -1.2951,-0.130265 -0.19519,0.132425 -0.50677,0.28412 -0.6924,0.337105 -0.18562,0.05299 -0.57458,0.222985 -0.86434,0.377785 -2.09847,1.121035 -4.22378,1.43995 -4.8992,0.735155 -0.75347,-0.786235 -0.71038,-0.70338 -0.66255,-1.27397 0.082,-0.97816 -0.41884,-1.225165 -0.99484,-0.490625 -0.21585,0.275255 -1.67337,1.23926 -2.01523,1.332865 -0.15199,0.0416 -0.42821,0.17718 -0.61384,0.30125 -0.53071,0.354725 -2.33158,0.307555 -2.73522,-0.07164 -0.19843,-0.186405 -0.19486,-0.523005 0.008,-0.758045 0.1573,-0.18223 0.12237,-0.44377 -0.10383,-0.77756 -0.34945,-0.515645 -0.43912,-0.52866 -0.99721,-0.14477 -0.21729,0.149475 -0.51355,0.30448 -0.65835,0.34446 -0.1448,0.04 -0.38424,0.188675 -0.53209,0.33043 -0.71581,0.6863 -1.32347,0.92687 -2.34385,0.92791 -0.77585,10e-4 -1.4868,-0.46363 -1.37451,-0.89789 0.0269,-0.104045 0.0773,-0.501105 0.11198,-0.882355 0.0347,-0.38125 0.10195,-0.811035 0.14949,-0.955075 0.18023,-0.546105 -0.12308,-0.78185 -0.5898,-0.458415 -0.1541,0.106795 -0.31939,0.19417 -0.3673,0.19417 -0.0479,0 -0.19797,0.09542 -0.33346,0.212045 -0.1355,0.116625 -0.41511,0.32576 -0.62136,0.46474 -0.46002,0.30999 -0.55706,0.428855 -0.56012,0.68615 -0.003,0.2327 -0.28174,0.35414 -0.79548,0.346285 -0.20467,-0.003 -0.45235,0.0729 -0.75,0.230225 -0.48717,0.257495 -1.15724,0.561025 -1.6819,0.761865 -0.33547,0.12841 -0.44562,0.267485 -0.66728,0.84244 -0.1036,0.268755 -0.40863,0.276305 -0.75772,0.01875 -0.32232,-0.2378 -0.49381,-0.236 -0.85431,0.0089 -0.26985,0.18337 -0.30975,0.190255 -0.59865,0.1033 -0.95955,-0.28881 -1.03247,-0.321245 -1.15315,-0.512985 -0.069,-0.1096 -0.26543,-0.3849 -0.43654,-0.611775 -0.17111,-0.226875 -0.40162,-0.604265 -0.51226,-0.838645 -0.6257,-1.325535 -1.85854,-1.450365 -2.25501,-0.228335 -0.11043,0.34039 -0.19489,0.44494 -0.60591,0.75 -0.29549,0.21932 -0.53883,0.4727 -0.6382,0.664535 -0.40898,0.78953 -1.16555,1.0093 -2.15027,0.624615 -1.10115,-0.430165 -1.1958,-0.726265 -0.58026,-1.815295 0.19254,-0.34066 0.4287,-0.85819 0.5248,-1.15007 0.0961,-0.291885 0.28014,-0.70028 0.40899,-0.907555 0.15605,-0.251035 0.2447,-0.50241 0.26552,-0.752905 0.0172,-0.20683 0.0667,-0.46945 0.11016,-0.583605 0.19619,-0.51603 -0.10247,-0.649775 -0.75824,-0.339545 -0.59491,0.281435 -0.77651,0.281395 -1.14878,-3e-4 -0.51048,-0.386245 -0.75626,-0.29788 -1.0941,0.39335 -0.0951,0.19457 -0.26751,0.44441 -0.38315,0.555195 -0.14579,0.13968 -0.28204,0.428035 -0.44449,0.94068 -0.18566,0.58592 -0.29512,0.802605 -0.5277,1.044675 -0.1614,0.167985 -0.29345,0.33827 -0.29345,0.37842 0,0.902165 -2.74223,2.90379 -4.02697,2.93939 -0.36812,0.0102 -0.49562,0.0463 -0.61458,0.174015 -0.26941,0.2892 -0.84883,0.31071 -1.18891,0.04415 -0.40777,-0.319625 -0.57433,-0.39273 -0.89587,-0.3932 -0.48615,-5e-4 -0.84764,-0.1371 -0.92874,-0.35042 -0.0401,-0.1055 -0.13587,-0.271825 -0.21279,-0.36961 -0.22594,-0.28724 -0.27066,-0.811605 -0.0938,-1.100285 0.0815,-0.13297 0.22418,-0.49489 0.31718,-0.804265 0.093,-0.309375 0.25093,-0.686805 0.35095,-0.838735 0.42838,-0.65068 -0.0406,-0.790475 -0.52296,-0.155875 -0.30462,0.400765 -0.93449,0.95647 -2.30847,2.036645 -0.78343,0.6159 -0.9,0.738185 -0.9,0.94413 0,0.239315 -0.26372,0.413835 -0.62535,0.413835 -0.24633,0 -0.33612,0.0483 -0.57423,0.30878 -0.17914,0.19597 -0.36109,0.317955 -0.49803,0.3339 -0.11868,0.0138 -0.4392,0.12643 -0.71228,0.250245 -0.43675,0.198035 -0.53038,0.215765 -0.77809,0.14737 -0.15649,-0.0432 -0.47313,-0.05552 -0.7127,-0.0277 l -0.4311,0.05004 -0.22996,-0.400055 c -0.12648,-0.220035 -0.38725,-0.565825 -0.57948,-0.768425 -0.55453,-0.584455 -0.68057,-0.953315 -0.48283,-1.41298 0.21686,-0.50411 0.18161,-0.910505 -0.0816,-0.941125 -0.16161,-0.0188 -0.21529,0.02655 -0.32846,0.27754 -0.17964,0.39837 -0.38381,0.60743 -0.5932,0.60743 -0.19846,0 -0.49765,0.28696 -0.49765,0.47731 0,0.391355 -0.28078,0.64769 -0.70945,0.64769 -0.25072,0 -0.32998,0.07741 -1.08706,1.061695 -0.11713,0.15228 -0.24598,0.211755 -0.5471,0.25254 -0.32423,0.0439 -0.45634,0.11149 -0.74693,0.38206 -0.41438,0.38582 -0.48654,0.39565 -0.89928,0.122455 -0.25683,-0.17 -0.40485,-0.20902 -0.84213,-0.22201 -0.61384,-0.01825 -0.82968,-0.18047 -0.90242,-0.678285 -0.0226,-0.154525 -0.0711,-0.449705 -0.10789,-0.655955 -0.11757,-0.65957 0.1759,-1.843775 0.48645,-1.962945 0.27482,-0.10546 0.44865,-0.863285 0.21831,-0.951675 -0.16167,-0.06203 -0.32456,0.0182 -0.37785,0.18607 -0.0253,0.0798 -0.17825,0.29784 -0.33983,0.48453 -0.16159,0.1867 -0.32904,0.40532 -0.37213,0.48583 -0.0431,0.08051 -0.27272,0.244505 -0.5103,0.36443 -0.33783,0.170545 -0.5175,0.33311 -0.82466,0.74617 -0.45208,0.607955 -0.7117,0.83509 -0.95452,0.83509 -0.0944,0 -0.30786,0.10969 -0.47447,0.24375 -0.1666,0.134065 -0.42825,0.345 -0.58144,0.46875 -0.23988,0.19379 -0.34172,0.225335 -0.73416,0.227395 -0.2506,0.0015 -0.71456,0.04965 -1.03101,0.10739 -0.86646,0.15811 -1.45933,-0.106895 -1.74372,-0.779415 -0.30145,-0.712885 -0.70202,-0.78596 -1.46841,-0.26788 -1.23325,0.833665 -2.12259,1.170295 -3.27326,1.23897 -1.65165,0.09858 -2.65174,-0.214155 -2.65174,-0.829215 0,-0.06629 -0.0921,-0.277675 -0.20465,-0.469735 -0.17912,-0.30565 -0.20326,-0.421515 -0.19354,-0.929055 0.0117,-0.61163 0.0553,-0.73102 0.53262,-1.45767 0.67376,-1.025775 -0.0994,-1.256095 -0.89458,-0.2665 -0.2213,0.275395 -0.42767,0.511965 -0.4586,0.525715 -0.0309,0.01375 -0.0563,0.07329 -0.0563,0.132315 0,0.05902 -0.20418,0.29901 -0.45374,0.53331 -0.38371,0.36025 -0.47268,0.494145 -0.5765,0.86758 -0.0938,0.33752 -0.19017,0.49927 -0.40877,0.686385 -0.15729,0.13464 -0.28599,0.26557 -0.28599,0.29096 0,0.0254 -0.18465,0.31732 -0.41032,0.64874 -0.22567,0.33142 -0.46273,0.782885 -0.52679,1.003255 -0.0641,0.22037 -0.20271,0.515825 -0.30811,0.656565 -0.1054,0.14074 -0.26967,0.407835 -0.36505,0.593545 -0.1597,0.310955 -0.4292,0.58579 -1.35751,1.384365 -0.1899,0.16336 -0.40705,0.416485 -0.48256,0.5625 -0.0755,0.146015 -0.27587,0.44982 -0.44523,0.675125 -0.16937,0.2253 -0.34373,0.545925 -0.38748,0.7125 -0.10643,0.40522 -0.26126,0.71655 -0.48702,0.97929 -0.10271,0.119525 -0.2484,0.35671 -0.32376,0.52708 -0.0754,0.170375 -0.25833,0.486115 -0.4066,0.701655 -0.27727,0.40309 -0.39704,0.78962 -0.31994,1.032545 0.0271,0.08542 -0.0562,0.304295 -0.21788,0.572777 -0.22222,0.3689 -0.26175,0.503 -0.26175,0.88794 0,0.52219 -0.14034,0.77816 -0.57337,1.04579 -0.29589,0.18287 -0.50293,0.57215 -0.58989,1.10913 -0.0434,0.26776 -0.14983,0.4326 -0.57694,0.89323 -0.45952,0.49559 -0.51843,0.59155 -0.48028,0.78231 0.0498,0.24929 -0.21717,0.58361 -0.46615,0.58361 -0.13113,0 -0.35896,0.26805 -0.69311,0.8155 -0.3154,0.51672 -1.19949,0.79717 -1.69645,0.53814 -0.17824,-0.0929 -0.49044,-0.17234 -0.73458,-0.1869 -0.3125,-0.0186 -0.47766,-0.0714 -0.62566,-0.20011 -0.37585,-0.32672 -0.93023,-0.92775 -1.28704,-1.39534 l -0.35575,-0.4662 0.20823,-0.7186 c 0.15137,-0.52237 0.28972,-0.82514 0.50666,-1.10879 0.45366,-0.59317 0.76419,-1.11485 0.76556,-1.28613 5e-4,-0.0847 0.0845,-0.28907 0.18629,-0.45407 0.10178,-0.165 0.27619,-0.48562 0.38759,-0.7125 0.22913,-0.466687 0.76409,-1.184102 1.35204,-1.813182 0.30379,-0.32504 0.39785,-0.48078 0.39785,-0.65874 0,-0.332555 0.32038,-0.92202 0.87811,-1.61558 0.26537,-0.33 0.61784,-0.825955 0.78329,-1.102125 0.16543,-0.27617 0.34698,-0.540465 0.40344,-0.58732 0.0565,-0.04685 0.17087,-0.226105 0.25424,-0.39833 0.0834,-0.172225 0.35506,-0.54236 0.60375,-0.822515 0.27326,-0.307835 0.45217,-0.577405 0.45217,-0.68131 0,-0.21217 0.31027,-0.77771 0.72563,-1.32261 0.17222,-0.225935 0.3835,-0.59929 0.46951,-0.829685 0.086,-0.230395 0.24381,-0.500395 0.35064,-0.6 0.10684,-0.0996 0.29252,-0.374995 0.41262,-0.611975 0.14265,-0.28147 0.31558,-0.49318 0.49873,-0.61057 0.40954,-0.2625 0.70616,-0.6036 1.14878,-1.32106 0.2163,-0.350625 0.51815,-0.8401 0.67075,-1.087725 0.15261,-0.24762 0.37973,-0.65262 0.50471,-0.9 0.12497,-0.247375 0.30129,-0.51667 0.39182,-0.59843 0.0905,-0.08177 0.28501,-0.318015 0.43219,-0.525 0.14718,-0.20699 0.41228,-0.51426 0.5891,-0.68282 0.7435,-0.708765 0.42168,-1.290525 -0.40864,-0.73873 -0.23284,0.154735 -0.53083,0.35311 -0.6622,0.44083 -0.36837,0.245975 -1.11961,1.10209 -1.25727,1.43278 -0.0679,0.163125 -0.25164,0.431595 -0.40827,0.596595 -0.15664,0.165 -0.36484,0.418125 -0.46266,0.5625 -0.27122,0.400265 -2.79282,2.862155 -3.14959,3.075 -0.17285,0.103125 -0.55482,0.42589 -0.84881,0.717255 -0.54846,0.54355 -1.59654,1.18675 -2.09517,1.28579 -0.25113,0.0499 -0.90102,0.33346 -1.11425,0.4862 -0.10061,0.07206 -0.22489,0.05022 -0.63936,-0.112395 -0.59888,-0.234965 -0.76854,-0.246715 -1.12433,-0.07788 -0.44223,0.209855 -0.92147,0.0492 -1.49443,-0.500985 -0.59985,-0.57601 -0.88944,-0.52786 -1.942,0.322915 -0.3627,0.29316 -0.57574,0.3793 -0.9908,0.400605 -0.21493,0.01105 -0.45118,0.05121 -0.525,0.08929 -0.58234,0.3004 -1.99157,0.27096 -2.33382,-0.04875 -0.37676,-0.351945 -0.60358,-1.99046 -0.38581,-2.787035 0.0507,-0.185625 0.0881,-0.47375 0.083,-0.64028 -0.0101,-0.332345 0.0161,-0.376425 0.83565,-1.40877 0.27956,-0.352105 0.54655,-0.752305 0.59332,-0.88932 0.10323,-0.302435 0.42778,-0.87216 0.77583,-1.361935 0.1418,-0.199545 0.29494,-0.503295 0.3403,-0.675 0.0454,-0.171705 0.17478,-0.413445 0.28761,-0.537195 0.26185,-0.28718 0.45717,-0.60256 0.45717,-0.738175 0,-0.05827 0.0506,-0.14797 0.1125,-0.199325 0.14602,-0.121185 0.14496,-0.42149 -0.001,-0.477765 -0.13174,-0.05055 -0.61504,0.389285 -0.91037,0.8285 -0.22776,0.338715 -0.45941,0.598695 -0.94421,1.059665 -0.2081,0.19787 -0.35625,0.40537 -0.35625,0.49895 0,0.15902 -0.39024,0.57945 -0.75,0.80802 -0.10312,0.06552 -0.46679,0.37529 -0.80815,0.68838 -0.34136,0.313085 -0.66642,0.56925 -0.72235,0.56925 -0.0559,0 -0.18863,0.113985 -0.29489,0.2533 -0.4281,0.56126 -1.145,1.20003 -1.54569,1.377235 -0.54196,0.23968 -0.8242,0.4473 -0.90812,0.668015 -0.0431,0.11335 -0.19976,0.23706 -0.41948,0.331245 -0.19288,0.08268 -0.50552,0.262145 -0.69475,0.398815 -0.18924,0.136665 -0.51888,0.342085 -0.73253,0.456485 -0.21366,0.114395 -0.49091,0.335475 -0.61612,0.49128 -0.20388,0.253695 -0.27477,0.288755 -0.67862,0.33563 -0.38862,0.0451 -0.49006,0.09168 -0.73388,0.336955 -0.80244,0.807255 -1.20967,1.105325 -1.5648,1.14535 -0.19382,0.02185 -0.43525,0.11016 -0.54544,0.19951 -0.47438,0.38471 -0.68282,0.420905 -1.10634,0.192115 -0.2788,-0.15061 -0.43871,-0.19344 -0.58507,-0.15671 -0.32664,0.08199 -0.62984,-0.182625 -0.65831,-0.57452 -0.0194,-0.267025 -0.0579,-0.332665 -0.24796,-0.42294 -0.36997,-0.17571 -0.42283,-0.29157 -0.37945,-0.831765 0.0325,-0.405625 0.01,-0.55048 -0.13479,-0.8625 -0.3247,-0.700065 -0.0719,-1.75267 0.55756,-2.32133 0.89489,-0.80848 2.38778,-0.94398 2.19297,-0.199035 -0.0385,0.14723 0.12567,0.521225 0.36182,0.82423 0.0909,0.116615 0.13939,0.301995 0.13939,0.53266 0,0.56665 0.59802,1.19036 1.14948,1.198865 0.1528,0.0025 1.03503,-0.57064 1.65066,-1.07208 0.24516,-0.19968 0.54251,-0.362625 0.76312,-0.418175 0.32931,-0.08292 1.10251,-0.526115 1.20381,-0.690015 0.023,-0.03715 0.0882,-0.06761 0.14492,-0.06761 0.16388,0 1.34438,-0.91836 2.55481,-1.9875 0.37361,-0.33 0.94736,-0.829245 1.275,-1.10943 0.32764,-0.28019 0.89946,-0.837065 1.27071,-1.2375 0.37125,-0.40044 1.0667,-1.13307 1.54545,-1.62807 1.55347,-1.606205 1.84878,-1.95497 2.13273,-2.51883 0.15192,-0.301655 0.41584,-0.688485 0.58651,-0.85962 0.17067,-0.171135 0.46941,-0.510365 0.66386,-0.75385 0.19446,-0.243485 0.5404,-0.64218 0.76875,-0.88599 0.22836,-0.24381 0.4152,-0.490925 0.4152,-0.549145 0,-0.21562 0.41073,-0.79589 0.90741,-1.28194 0.28136,-0.275345 0.59852,-0.61875 0.70479,-0.763125 0.25239,-0.342855 1.00598,-1.116075 1.1769,-1.20755 0.34539,-0.184845 1.20675,0.51071 1.38292,1.116715 l 0.11595,0.398845 -0.31677,0.802245 c -0.17422,0.441235 -0.40869,0.98787 -0.52105,1.214745 -0.11235,0.226875 -0.26288,0.591405 -0.33451,0.81006 -0.0716,0.21866 -0.24345,0.54589 -0.38184,0.727185 -0.13838,0.181295 -0.31933,0.462375 -0.4021,0.62462 -0.0828,0.16224 -0.37023,0.65735 -0.6388,1.100235 -0.26857,0.44289 -0.51084,0.877285 -0.53838,0.965325 -0.0275,0.08804 -0.14057,0.295075 -0.25117,0.460075 -0.1106,0.165 -0.32601,0.56645 -0.47869,0.892115 -0.15267,0.32566 -0.42226,0.815035 -0.59908,1.0875 -0.17681,0.27246 -0.41608,0.643655 -0.5317,0.824875 -0.11563,0.18122 -0.35279,0.468095 -0.52703,0.6375 -0.23689,0.23032 -0.32955,0.387835 -0.36735,0.624485 -0.0349,0.218145 -0.15923,0.4499 -0.40035,0.74593 -0.19239,0.236205 -0.40586,0.57714 -0.47437,0.75764 -0.0685,0.1805 -0.3334,0.57842 -0.58863,0.88426 -0.71513,0.85693 -0.7837,1.191775 -0.34381,1.678685 0.84998,0.94082 1.69415,0.327105 1.90232,-1.38299 0.031,-0.25522 0.15767,-0.661005 0.2925,-0.9375 0.13074,-0.268125 0.23774,-0.547315 0.23778,-0.620425 3e-5,-0.07311 0.1357,-0.28008 0.30148,-0.45993 0.19046,-0.20663 0.3452,-0.474415 0.42034,-0.727435 0.0848,-0.285515 0.22966,-0.51775 0.50482,-0.80923 0.7888,-0.83558 1.29614,-1.29685 1.66092,-1.510085 0.44389,-0.25949 0.74286,-0.513085 0.80604,-0.68371 0.0588,-0.15881 0.4896,-0.479005 0.73146,-0.543655 0.36328,-0.09712 1.60342,-0.27053 1.93461,-0.27053 0.93696,0 1.76465,1.42649 1.29182,2.226385 -0.093,0.157365 -0.21331,0.43799 -0.26729,0.623615 -0.35348,1.21546 -0.54132,1.510135 -1.27809,2.005035 -0.25999,0.174645 -0.56741,0.44267 -0.68313,0.595615 -0.49332,0.65194 -1.12581,1.247975 -1.55436,1.464755 -0.24417,0.123515 -0.61077,0.339325 -0.81467,0.47958 -0.2039,0.14026 -0.40152,0.255015 -0.43917,0.255015 -0.35848,0 -0.0974,1.001415 0.28607,1.097385 0.11644,0.02915 0.35852,0.11785 0.53796,0.19713 0.60195,0.26595 1.52658,-0.0054 2.32733,-0.68289 0.23178,-0.196115 0.52745,-0.43927 0.65704,-0.54035 1.82046,-1.41985 2.71293,-2.27553 3.47712,-3.333775 0.17872,-0.2475 0.54345,-0.669375 0.81049,-0.9375 0.26705,-0.268125 0.67961,-0.740625 0.91679,-1.05 1.20979,-1.577965 1.81605,-1.947105 3.20112,-1.94911 0.79458,-0.001 1.44636,0.53585 1.44636,1.191655 0,0.492295 -0.70374,1.980445 -1.11018,2.347645 -0.19283,0.174205 -0.34092,0.39969 -0.42114,0.6412 -0.068,0.20488 -0.23563,0.503815 -0.3724,0.66431 -0.13678,0.16049 -0.28975,0.417195 -0.33994,0.570455 -0.0502,0.15326 -0.23318,0.440135 -0.40663,0.6375 -0.5527,0.628905 -0.94971,1.193005 -0.94971,1.34941 0,0.203145 -0.25626,0.517435 -0.59755,0.73289 -0.16263,0.10266 -0.318,0.28035 -0.37276,0.42629 -0.21999,0.586355 -0.35208,0.857445 -0.50829,1.043145 -0.0914,0.1086 -0.34273,0.615715 -0.55864,1.126925 -0.26773,0.63395 -0.48112,1.021655 -0.67116,1.219425 -0.35436,0.368785 -0.99128,1.40814 -1.19253,1.946005 -0.0852,0.22765 -0.252,0.536145 -0.37073,0.685545 -0.11873,0.149405 -0.32784,0.44772 -0.46468,0.662925 -0.13685,0.21521 -0.27617,0.425035 -0.30961,0.466285 -0.0334,0.04125 -0.29465,0.39563 -0.58047,0.787505 -0.61882,0.84842 -1.48871,2.02272 -1.80002,2.429897 -0.12297,0.16082 -0.22356,0.34096 -0.22356,0.40032 0,0.0594 -0.15271,0.2484 -0.33936,0.4201 -0.57191,0.52613 -0.67862,1.51277 -0.25064,2.31754 0.21622,0.40659 1.19,0.0178 1.19,-0.47506 0,-0.11492 0.0372,-0.23195 0.0827,-0.26006 0.0455,-0.0281 0.15705,-0.21158 0.24791,-0.4077 0.0909,-0.19612 0.22,-0.41138 0.28699,-0.47836 0.067,-0.067 0.1776,-0.3138 0.24582,-0.5485 0.0682,-0.2347 0.23619,-0.64938 0.37323,-0.92153 0.13705,-0.27214 0.33637,-0.709372 0.44293,-0.971622 0.10657,-0.26225 0.29162,-0.632225 0.41124,-0.822175 0.11962,-0.189945 0.24018,-0.505665 0.26792,-0.7016 0.034,-0.239745 0.0863,-0.35625 0.1602,-0.35625 0.0604,0 0.14269,-0.09282 0.18294,-0.20625 0.0402,-0.11344 0.10176,-0.25688 0.13671,-0.318755 0.035,-0.06188 0.20843,-0.3825 0.38552,-0.7125 0.17709,-0.33 0.34592,-0.616875 0.37518,-0.6375 0.0551,-0.0388 0.80476,-1.147625 1.1522,-1.70411 0.10872,-0.17414 0.29756,-0.368265 0.41963,-0.43139 0.12208,-0.06313 0.27807,-0.23303 0.34665,-0.377555 0.0686,-0.14452 0.33952,-0.50235 0.60209,-0.795165 0.26257,-0.29282 0.50917,-0.6475 0.54802,-0.788185 0.086,-0.311615 0.34874,-0.63291 0.83226,-1.0179 0.27034,-0.215245 0.44456,-0.44824 0.67321,-0.90033 0.16967,-0.335465 0.40038,-0.730965 0.51269,-0.8789 0.1123,-0.14793 0.33642,-0.466185 0.49804,-0.70724 0.16162,-0.24105 0.3932,-0.54463 0.51464,-0.674625 0.12143,-0.129995 0.36537,-0.422145 0.54208,-0.649225 0.59711,-0.7673 2.72478,-2.625375 3.00629,-2.625375 0.0375,0 0.19369,-0.08536 0.34722,-0.189685 0.2586,-0.175725 0.35787,-0.19222 1.34892,-0.22417 1.56852,-0.05057 1.73211,0.08413 1.44426,1.18926 -0.0619,0.23755 -0.1125,0.54316 -0.1125,0.67913 0,0.162445 -0.10647,0.411925 -0.31049,0.72759 -0.51505,0.79687 -0.70294,1.555715 -0.55357,2.235765 0.0244,0.1112 -0.005,0.31794 -0.0638,0.459425 -0.37981,0.903285 1.21674,0.9832 2.19691,0.109965 0.14763,-0.13152 0.51696,-0.36867 0.82074,-0.527 0.49236,-0.256625 0.62526,-0.37797 1.22417,-1.117825 1.25949,-1.555895 2.35147,-2.07778 3.02633,-1.446355 l 0.258,0.2414 -0.0853,0.55768 c -0.0654,0.42754 -0.13997,0.629315 -0.3196,0.864645 -0.29309,0.383965 -0.49498,1.245075 -0.33665,1.435855 0.14898,0.179505 0.58899,0.07738 1.21735,-0.28256 0.2961,-0.169615 0.69024,-0.389 0.87587,-0.487525 0.30626,-0.162555 2.53777,-2.382485 3.11677,-3.100595 0.11641,-0.144375 0.48369,-0.55163 0.81619,-0.90501 0.3325,-0.353385 0.70579,-0.787555 0.82954,-0.964825 0.12375,-0.17727 0.33327,-0.39654 0.4656,-0.487265 0.13232,-0.09072 0.38544,-0.34333 0.5625,-0.56135 0.61647,-0.75915 0.94073,-0.7285 1.90449,0.18002 0.60954,0.5746 0.61328,0.665185 0.0674,1.634145 -0.22688,0.40272 -0.4125,0.814615 -0.4125,0.91533 0,0.104915 -0.14037,0.35545 -0.32867,0.586635 -0.18077,0.221935 -0.35429,0.48481 -0.38561,0.58417 -0.0313,0.09936 -0.20405,0.37215 -0.38384,0.606205 -0.17979,0.234055 -0.32688,0.463235 -0.32688,0.509285 0,0.04605 -0.07,0.17844 -0.1556,0.294185 -0.5034,0.68089 -0.13229,1.33047 0.48146,0.842725 0.14931,-0.118665 0.46614,-0.293175 0.70406,-0.3878 0.60567,-0.24089 0.7951,-0.37777 1.52008,-1.09834 0.35062,-0.34849 0.7824,-0.774695 0.9595,-0.947115 0.1771,-0.17242 0.37217,-0.40659 0.4335,-0.520375 0.0613,-0.11378 0.29769,-0.311955 0.52526,-0.440385 0.39889,-0.225125 0.78174,-0.658055 0.78174,-0.88402 0,-0.186745 0.56243,-1.22033 1.01347,-1.862465 0.46767,-0.66581 1.82909,0.555375 1.51487,1.35883 -0.0879,0.22477 -0.15864,0.60589 -0.17,0.916015 -0.0236,0.64297 -0.24361,1.414705 -0.58895,2.065465 -0.58431,1.101065 -0.1133,2.313605 0.72989,1.87902 0.56873,-0.293125 1.32,-0.75144 1.60632,-0.97995 0.15504,-0.123735 0.38315,-0.27618 0.5069,-0.338765 0.29934,-0.151385 1.81541,-1.51952 2.8875,-2.605725 1.89107,-1.915985 2.40429,-2.299655 3.15201,-2.356335 0.25489,-0.0193 0.6152,-0.06914 0.80069,-0.11071 0.42557,-0.09538 0.82822,-0.02485 0.88533,0.15509 0.16789,0.528965 0.55413,0.64383 1.14985,0.341955 0.53996,-0.273615 0.79235,-0.292715 1.61412,-0.122135 0.97811,0.203025 1.40604,0.20182 1.59262,-0.0045 0.21132,-0.233665 0.69812,-0.460105 0.88715,-0.41266 0.0996,0.025 0.35208,-0.0475 0.64062,-0.183945 0.72051,-0.340745 1.44566,-0.4197 2.00237,-0.21801 0.75625,0.27398 1.12999,0.362155 1.8823,0.44409 1.308,0.14246 1.49969,0.20269 1.88541,0.5924 0.50668,0.51193 0.71763,0.97663 0.57099,1.25782 -0.0619,0.11868 -0.11275,0.270715 -0.113,0.33785 0,0.06713 -0.0527,0.165435 -0.11659,0.218435 -0.37758,0.313375 0.14103,0.663915 1.07144,0.724195 0.91092,0.05902 1.26464,-0.155255 2.12025,-1.284335 0.62646,-0.826705 1.48634,-1.17165 2.0692,-0.83007 0.64786,0.379675 0.76754,0.7672 0.40524,1.31221 -0.19245,0.2895 -0.2244,0.40814 -0.22468,0.834215 0,0.341205 -0.0497,0.608335 -0.15803,0.853245 -0.62216,1.40648 1.82626,0.953505 3.24969,-0.601215 0.23621,-0.258005 0.51897,-0.49156 0.62835,-0.51901 0.40894,-0.10264 2.17794,-1.3713 3.00591,-2.15573 0.49047,-0.464685 0.97223,-0.732135 1.32369,-0.73486 0.11683,-0.001 0.44311,-0.102895 0.72507,-0.226645 1.34473,-0.59021 2.13856,0.13553 1.78457,1.6315 l -0.16422,0.694 0.16216,0.333775 c 0.4102,0.844315 1.14885,0.6213 2.11004,-0.63707 0.099,-0.129645 0.26777,-0.27397 0.375,-0.320715 0.24877,-0.108465 0.76318,-0.49703 0.89878,-0.67892 0.16149,-0.216605 1.30197,-0.148785 1.66342,0.09891 0.82904,0.56813 1.05665,0.940725 0.90267,1.477625 -0.0527,0.18388 -0.0366,0.28661 0.0736,0.46781 0.10641,0.174975 0.13017,0.31266 0.0964,0.558795 -0.0814,0.59394 0.2025,0.546505 1.21644,-0.20324 1.61103,-1.191255 2.52024,-1.230015 3.28627,-0.14009 0.21259,0.30248 0.22125,0.34636 0.20685,1.047905 -0.0185,0.89997 -0.0154,0.904695 0.6885,1.0464 0.70803,0.14254 0.80747,0.11788 1.33916,-0.33209 0.23496,-0.19885 0.55559,-0.407075 0.7125,-0.462725 0.15691,-0.05565 0.52799,-0.262365 0.82462,-0.459365 0.3329,-0.22109 0.6914,-0.390795 0.93665,-0.443395 0.21854,-0.04685 0.63752,-0.21703 0.93107,-0.37814 0.3116,-0.17102 0.69031,-0.3137 0.90999,-0.34284 0.54475,-0.07227 0.58209,-0.11195 0.58741,-0.62429 0.006,-0.58158 0.0392,-0.614625 1.14191,-1.138165 1.3206,-0.626985 1.33828,-0.628195 1.86973,-0.127965 0.51806,0.48761 0.58531,0.516305 0.99459,0.42434 0.25665,-0.05766 0.40533,-0.0412 0.78465,0.08694 0.40254,0.135975 0.52638,0.14729 0.88547,0.08091 0.28743,-0.05313 0.57386,-0.05283 0.91948,0.001 0.71434,0.111215 2.30427,-0.284975 3.52473,-0.878315 0.28875,-0.14038 0.77065,-0.33845 1.07089,-0.44016 1.31578,-0.445725 2.35936,-1.282225 3.37451,-2.7049 0.35321,-0.495 0.73097,-1.003085 0.83947,-1.12907 0.19817,-0.230125 0.33059,-0.510085 0.40604,-0.85843 0.0224,-0.103125 0.34571,-0.570475 0.7186,-1.038555 0.37289,-0.46808 0.67799,-0.89798 0.67799,-0.955325 0,-0.05735 0.1714,-0.264995 0.3809,-0.461445 0.45117,-0.423065 0.53471,-0.558595 0.58999,-0.957175 0.0346,-0.249045 0.0859,-0.322085 0.30216,-0.43003 0.17376,-0.08672 0.35455,-0.286555 0.54281,-0.6 0.15525,-0.258485 0.47899,-0.70622 0.71941,-0.99497 0.24044,-0.28875 0.56067,-0.746165 0.71163,-1.01648 0.15097,-0.270315 0.36355,-0.574065 0.47241,-0.675 0.10885,-0.100935 0.36765,-0.436645 0.57512,-0.74602 0.20746,-0.309375 0.46052,-0.63155 0.56236,-0.71595 0.10184,-0.0844 0.25728,-0.30314 0.34543,-0.4861 0.11414,-0.236895 0.28841,-0.419405 0.60541,-0.63405 0.24481,-0.16577 0.59919,-0.5039 0.7875,-0.7514 0.6582,-0.86512 1.02604,-1.13258 1.80487,-1.31235 0.22687,-0.05236 0.63406,-0.208825 0.90487,-0.34768 0.60634,-0.310905 0.74087,-0.3128 1.30763,-0.0184 0.92031,0.47805 1.20005,0.778175 2.04375,2.19267 0.41379,0.69375 0.41182,0.881985 -0.0182,1.738895 -0.3791,0.75536 -0.63801,1.49509 -0.63801,1.82283 0,0.41909 -1.07384,2.25832 -1.50437,2.57662 -0.12335,0.09119 -0.3583,0.414285 -0.5221,0.71798 -0.50139,0.92954 -1.84132,2.33834 -2.65545,2.791935 -0.25914,0.144375 -0.58578,0.35024 -0.72587,0.45748 -0.14009,0.107235 -0.49365,0.330075 -0.78568,0.495195 -0.29202,0.16512 -0.66327,0.42481 -0.825,0.57709 -0.16172,0.15228 -0.50049,0.40194 -0.75284,0.5548 -1.86827,1.131755 -1.87949,1.14702 -1.38825,1.888655 0.47768,0.72115 0.57371,0.75562 2.02677,0.727525 1.23115,-0.0238 1.24997,-0.0267 1.65779,-0.254855 0.43182,-0.24159 1.44443,-0.571145 2.5875,-0.84211 0.37125,-0.088 0.945,-0.29193 1.275,-0.45317 0.33,-0.161235 0.8025,-0.344415 1.05,-0.40707 0.48363,-0.122435 1.34971,-0.445975 1.48949,-0.556425 0.0471,-0.03715 0.21002,-0.107655 0.3622,-0.156655 0.15219,-0.049 0.50085,-0.23631 0.77481,-0.41625 0.27396,-0.179935 0.67225,-0.36893 0.88509,-0.41999 0.21284,-0.05106 0.55605,-0.17157 0.76269,-0.267795 0.20664,-0.09623 0.43923,-0.17529 0.51687,-0.175695 0.1628,-0.001 0.59859,-0.24774 0.87135,-0.49366 0.10312,-0.09297 0.46154,-0.31542 0.79648,-0.49431 0.33494,-0.178895 0.86331,-0.53202 1.17416,-0.784725 0.47448,-0.38574 0.68363,-0.498155 1.30351,-0.700635 0.62549,-0.20431 1.00699,-0.383405 1.75085,-0.82194 0.0619,-0.0365 0.42134,-0.10557 0.79882,-0.15353 0.66369,-0.08433 0.87425,-0.07513 2.57257,0.11247 1.00676,0.111205 1.3065,0.53674 1.47787,2.0981 0.0226,0.20625 0.0757,0.41737 0.11796,0.469155 0.0931,0.11414 0.0156,0.66914 -0.1231,0.88106 -0.0541,0.08262 -0.12288,0.445335 -0.15293,0.806035 -0.0301,0.3607 -0.0974,0.839975 -0.14976,1.065065 -0.21362,0.918975 0.27872,2.04882 1.39546,3.202385 0.62328,0.64382 0.91335,0.982005 1.45557,1.696965 0.38807,0.511695 0.57296,1.292415 0.55882,2.35956 -0.0333,2.51465 0.0206,2.67759 1.04283,3.153705 0.35386,0.164805 0.73453,0.363515 0.84594,0.44158 0.1114,0.07806 0.35929,0.189105 0.55084,0.24676 0.19156,0.05765 0.40416,0.15322 0.47245,0.212375 0.0683,0.05916 0.25629,0.127785 0.4178,0.1525 0.52149,0.07981 1.31886,1.08063 1.31886,1.655365 0,0.391535 -0.36958,1.28668 -0.63576,1.53984 -0.80081,0.761665 -1.32318,1.205155 -1.4195,1.205155 -0.0611,0 -0.30804,0.18224 -0.54862,0.40498 -0.24059,0.22274 -0.65595,0.532405 -0.92303,0.688145 -0.52006,0.303255 -1.07446,0.69581 -1.69896,1.20296 -0.2136,0.173465 -0.46672,0.3397 -0.5625,0.369405 -0.0958,0.0297 -0.42726,0.231185 -0.73663,0.447725 -1.11727,0.782005 -3.19864,1.859417 -3.76007,1.946387 -0.50918,0.0789 -1.052,0.2647 -1.34103,0.45907 -0.29542,0.19866 -1.06297,0.48133 -1.30699,0.48133 -0.0878,0 -0.34974,0.0668 -0.5821,0.14849 -0.23237,0.0817 -0.70589,0.1807 -1.05227,0.22006 -0.34638,0.0393 -0.7626,0.12327 -0.92491,0.18648 -0.46214,0.17994 -1.74425,0.43837 -2.29501,0.46257 -0.35344,0.0156 -0.62583,0.0816 -0.9298,0.22536 -0.40855,0.19328 -0.46922,0.20116 -1.22032,0.15863 -0.8795,-0.0498 -2.2656,0.22623 -2.90329,0.57817 -0.29106,0.16065 -0.36719,0.16649 -1.8901,0.1451 -1.54921,-0.0217 -2.54061,0.0613 -3.24362,0.27172 -0.1441,0.0431 -0.41638,0.0784 -0.60507,0.0784 -0.18869,0 -0.59391,0.0661 -0.90049,0.14692 -0.41638,0.10974 -0.69028,0.13602 -1.08243,0.10383 -0.41909,-0.0344 -0.63666,-0.009 -1.07851,0.12585 -0.50123,0.15298 -0.60039,0.16068 -1.05,0.0815 -0.4019,-0.0708 -0.57509,-0.0673 -0.90899,0.0182 -0.77106,0.19742 -1.64391,0.29583 -2.08637,0.23523 -0.62659,-0.0858 -1.02549,-0.0602 -1.3039,0.0839 -0.35413,0.18326 -2.9265,0.31277 -3.78087,0.19035 -0.54973,-0.0788 -0.6563,-0.0725 -1.10129,0.065 -0.93799,0.28972 -3.10729,0.39545 -4.26669,0.20796 -0.41377,-0.0669 -0.57796,-0.0599 -0.9375,0.04 -0.30499,0.0848 -0.70616,0.11767 -1.33588,0.10959 -0.61894,-0.008 -1.10328,0.0309 -1.55091,0.12425 -0.51717,0.10789 -0.70053,0.11849 -0.89244,0.0516 -0.36933,-0.12875 -0.66808,-0.1007 -1.10785,0.10403 -0.35162,0.16368 -0.50455,0.18685 -1.2375,0.18742 -0.45997,3.8e-4 -1.30082,0.0341 -1.86857,0.0751 -0.66063,0.0476 -1.14727,0.0486 -1.35173,0.003 -0.53683,-0.1203 -2.78447,-0.0726 -3.04073,0.0646 -0.1021,0.0546 -0.3462,0.054 -0.80573,-0.002 -0.47058,-0.0576 -0.77877,-0.0575 -1.07689,1.5e-4 -0.22971,0.0444 -1.0133,0.0953 -1.74132,0.11317 -0.89654,0.022 -1.38056,0.0641 -1.5,0.1306 -0.12354,0.0688 -0.59885,0.10451 -1.58764,0.11927 -0.79885,0.0119 -1.47517,0.0552 -1.55848,0.0998 -0.0854,0.0457 -0.86792,0.091 -1.86489,0.10789 -1.42775,0.0242 -1.75918,0.0506 -1.96337,0.15616 -0.1357,0.0702 -0.46528,0.13723 -0.7363,0.14981 -0.26986,0.0126 -0.71003,0.0428 -0.97815,0.0672 -0.75681,0.069 -2.99945,0.14092 -5.0625,0.16233 -2.68056,0.0278 -3.99341,0.0749 -5.05403,0.18112 -0.67518,0.0677 -1.11577,0.0723 -1.6125,0.017 -0.37591,-0.0418 -1.05472,-0.0597 -1.50847,-0.0396 -1.07667,0.0476 -1.1267,0.0461 -1.61924,-0.0485 -0.2938,-0.0564 -0.60796,-0.0574 -1.05,-0.003 -1.49104,0.18295 -5.30495,0.30797 -8.85262,0.2902 -0.57345,-0.003 -1.16584,0.034 -1.35,0.0841 -0.19069,0.0519 -1.00356,0.0987 -1.94064,0.11196 -0.88688,0.0125 -2.09742,0.0631 -2.69008,0.11257 -0.84403,0.0704 -1.08977,0.0701 -1.13385,-10e-4 -0.0399,-0.0645 -0.19579,-0.0771 -0.53492,-0.0433 -0.26326,0.0263 -0.96803,0.0563 -1.56615,0.0667 -0.60823,0.0106 -1.23401,0.0617 -1.41993,0.11596 -0.18283,0.0534 -0.46971,0.0811 -0.6375,0.0617 -0.16779,-0.0194 -0.61785,0.001 -1.00012,0.0463 -0.59714,0.0701 -0.76345,0.0633 -1.1806,-0.0478 -0.40996,-0.10924 -0.56448,-0.11637 -0.99245,-0.0458 -0.61529,0.10143 -0.93206,0.11014 -1.34995,0.0371 -0.23146,-0.0405 -0.41181,-0.0198 -0.6625,0.076 -0.2859,0.10919 -0.40396,0.11776 -0.69445,0.0504 -0.44662,-0.10354 -2.85354,-0.0695 -3.64353,0.0515 -0.46093,0.0706 -0.69551,0.071 -1.05,0.002 -0.38443,-0.0751 -0.54525,-0.0694 -1.01897,0.0361 -0.69018,0.15384 -2.28297,0.24364 -2.41748,0.1363 -0.17352,-0.13848 -2.15291,-0.0717 -2.47162,0.0834 -0.27936,0.13594 -0.77706,0.13795 -1.61231,0.007 -0.17265,-0.0271 -0.42577,-0.0131 -0.5625,0.0313 -0.42423,0.13772 -1.55643,0.26316 -2.53609,0.28097 -0.82439,0.015 -1.41673,0.0628 -2.79567,0.2256 -0.26337,0.0311 -0.40862,0.009 -0.54876,-0.0826 -0.20172,-0.13217 -0.91101,-0.0251 -1.37292,0.20718 -0.0989,0.0498 -0.40266,0.0857 -0.675,0.0799 -1.94401,-0.0415 -2.00896,-0.0389 -2.30216,0.0915 -0.22709,0.10093 -0.55447,0.13574 -1.45549,0.15472 -2.15297,0.0453 -2.64579,0.0837 -3.225,0.25118 -0.78955,0.22823 -1.24001,0.29862 -2.4,0.37505 -1.07813,0.071 -1.91469,0.20609 -2.49241,0.40237 -0.26169,0.0889 -0.40639,0.10101 -0.55091,0.0461 -0.13373,-0.0508 -0.28466,-0.048 -0.47506,0.009 -0.15924,0.0477 -0.47012,0.064 -0.72409,0.0379 -1.28895,-0.13232 -1.55856,-0.1179 -1.73016,0.0925 l -0.16013,0.19637 -0.48733,-0.20013 -0.48734,-0.20014 -0.77754,0.13693 c -0.42764,0.0753 -1.14878,0.14381 -1.60253,0.15221 -0.45375,0.008 -1.1625,0.0477 -1.575,0.0874 -0.4125,0.0397 -0.92337,0.08 -1.13526,0.0896 -0.28283,0.0128 -0.48825,0.0815 -0.77268,0.25827 -0.38525,0.23948 -0.39292,0.24082 -1.35844,0.23703 -0.53405,-0.002 -1.00912,0.0198 -1.05572,0.0486 -0.0466,0.0288 -0.49381,0.06 -0.99381,0.0695 -0.5329,0.01 -1.12634,0.0692 -1.43409,0.14308 -0.28875,0.0693 -1.07376,0.15857 -1.74447,0.1984 -0.67823,0.0403 -1.34398,0.11909 -1.5,0.17758 -0.15429,0.0578 -0.53956,0.12429 -0.85614,0.14767 -0.52935,0.0391 -1.52002,0.22466 -2.2869,0.42836 -0.2658,0.0706 -0.38114,0.0593 -0.77186,-0.076 -0.36834,-0.12747 -0.49128,-0.14189 -0.62046,-0.0727 -0.34646,0.18542 -1.19444,0.21856 -1.52779,0.0597 -0.32154,-0.15322 -0.99023,-0.0723 -1.41738,0.17148 -0.0825,0.0471 -0.6225,0.11032 -1.2,0.14052 -0.5775,0.0302 -1.13544,0.0882 -1.23987,0.12887 -0.10442,0.0407 -0.52823,0.0596 -0.9418,0.0421 -0.53844,-0.0229 -0.88914,0.003 -1.23514,0.0904 -0.26576,0.0673 -0.77007,0.14905 -1.12069,0.18177 -0.64462,0.0602 -1.59699,0.23664 -2.12603,0.39396 -0.21765,0.0647 -0.50737,0.0639 -1.17955,-0.004 -0.74161,-0.0742 -0.94478,-0.0714 -1.21148,0.0164 -0.17625,0.058 -0.46503,0.12853 -0.64175,0.15671 -0.17672,0.0282 -0.42654,0.10372 -0.55516,0.16788 -0.12861,0.0642 -0.55777,0.16231 -0.95369,0.21809 -1.51654,0.21368 -1.71807,0.24941 -2.51984,0.44674 -0.49704,0.12233 -0.98899,0.19646 -1.2375,0.18648 -1.31102,-0.0526 -1.48277,-0.0373 -1.87888,0.16826 -0.28743,0.14913 -0.49522,0.19973 -0.82015,0.19973 -0.23934,0 -0.66654,0.072 -0.94932,0.16 -0.45782,0.14246 -0.5618,0.15027 -0.9491,0.0713 -0.41172,-0.084 -0.4569,-0.078 -0.84571,0.11226 -0.32288,0.15797 -0.50961,0.19873 -0.87283,0.19052 -0.3708,-0.008 -0.51484,0.0244 -0.72929,0.16602 -0.35873,0.2369 -0.79918,0.37472 -1.04269,0.32627 -0.10974,-0.0218 -0.28391,0.007 -0.38703,0.0643 -0.10313,0.0572 -0.30563,0.10564 -0.45,0.10764 -0.14438,0.002 -0.46726,0.0678 -0.71753,0.1463 -0.25026,0.0785 -0.73964,0.16513 -1.0875,0.19257 -0.34786,0.0275 -0.79564,0.10145 -0.99507,0.16448 -0.19943,0.063 -0.66893,0.13998 -1.04335,0.171 -0.50212,0.0416 -0.70477,0.0892 -0.77228,0.18157 -0.0602,0.0823 -0.31929,0.16245 -0.75666,0.23401 -0.36581,0.0599 -0.78301,0.14324 -0.92712,0.18529 -0.1441,0.042 -0.37359,0.0765 -0.50997,0.0765 -0.13639,0 -0.35056,0.0531 -0.47594,0.11788 -0.12538,0.0648 -0.49591,0.16843 -0.8234,0.23019 -0.32749,0.0618 -0.83664,0.19435 -1.13144,0.29462 -0.29481,0.10027 -0.60604,0.18271 -0.69163,0.18321 -0.0856,5e-4 -0.29295,0.0795 -0.4608,0.17545 -0.16785,0.096 -0.46239,0.19609 -0.65454,0.22243 -0.19215,0.0264 -0.56107,0.1378 -0.81982,0.2477 -0.30105,0.12787 -0.69669,0.221 -1.09875,0.25864 -0.96639,0.0904 -2.5592,0.91592 -2.5592,1.32628 0,0.0762 -0.0364,0.17497 -0.0809,0.21945 -0.26698,0.26699 -0.054,0.49163 0.70776,0.74653 0.40667,0.13608 0.89604,0.34745 1.0875,0.4697 0.51987,0.33197 0.66491,0.34558 1.23785,0.11622 0.42354,-0.16955 0.57102,-0.19387 0.93172,-0.15362 1.06895,0.11927 1.59552,0.12456 2.30354,0.0232 0.4611,-0.0661 0.81688,-0.0825 0.92363,-0.0427 0.30765,0.11478 0.68265,0.0695 1.06059,-0.12815 0.41151,-0.21517 0.4352,-0.21658 3.08185,-0.18312 l 1.46608,0.0185 0.44744,-0.22587 c 0.43332,-0.21874 0.47937,-0.22574 1.459,-0.22178 0.58163,0.002 1.18265,-0.0369 1.41412,-0.0925 0.26312,-0.0631 0.56183,-0.0776 0.86242,-0.0417 0.25293,0.0302 1.40621,0.0517 2.56285,0.0478 1.15664,-0.004 2.20289,0.0209 2.325,0.0551 0.15466,0.0433 0.48369,0.006 1.08452,-0.12351 1.00787,-0.217 1.00614,-0.21691 2.00548,-0.10381 0.55402,0.0627 1.08057,0.0659 1.88997,0.0116 0.69419,-0.0466 1.23892,-0.0491 1.42866,-0.006 0.21005,0.0472 0.4416,0.0389 0.73502,-0.0263 0.93386,-0.20756 1.96157,-0.29013 2.37542,-0.19084 0.33503,0.0804 0.45245,0.0756 0.82847,-0.0337 0.27999,-0.0814 0.53491,-0.10906 0.7063,-0.0766 0.14749,0.0279 0.54164,0.0471 0.87588,0.0426 0.38946,-0.005 0.70508,0.0326 0.87884,0.10516 0.35623,0.14884 0.99962,0.14372 1.58637,-0.0126 0.41914,-0.11168 0.5448,-0.11467 1.1121,-0.0264 0.40746,0.0634 0.77119,0.0775 1.00227,0.039 0.19949,-0.0333 0.48084,-0.0529 0.62522,-0.0435 0.68079,0.0439 1.36475,0.0136 1.6239,-0.0719 0.15689,-0.0518 0.4885,-0.11967 0.73692,-0.15086 0.24842,-0.0312 0.61223,-0.1145 0.80846,-0.18512 0.29545,-0.10632 0.46307,-0.11714 0.975,-0.063 0.6463,0.0684 1.84563,0.0205 3.05572,-0.12202 0.65946,-0.0777 1.49739,-0.11088 4.2375,-0.16796 0.9614,-0.02 1.11328,-0.0431 1.8,-0.27392 0.65221,-0.21918 0.86245,-0.25453 1.6125,-0.2711 0.47437,-0.0105 1.19593,-0.0754 1.60345,-0.14425 0.49876,-0.0843 0.90597,-0.10895 1.24578,-0.0755 0.48202,0.0475 1.43807,-0.0263 2.73827,-0.2113 0.33,-0.0469 1.30875,-0.0885 2.175,-0.0923 0.86625,-0.004 1.71294,-0.0348 1.88154,-0.0687 0.23655,-0.0476 0.36496,-0.0315 0.56239,0.0706 0.30012,0.1552 0.73717,0.15512 1.0375,-2.3e-4 0.17066,-0.0883 0.74914,-0.11902 2.90335,-0.15444 1.47962,-0.0243 2.82522,-0.0769 2.99022,-0.11684 1.06538,-0.25785 1.89183,-0.34056 2.85,-0.28524 0.61158,0.0353 1.06567,0.028 1.21827,-0.0195 0.15027,-0.0469 1.00614,-0.0632 2.23872,-0.0429 1.39843,0.0232 2.1447,0.005 2.49423,-0.0599 0.27433,-0.0511 0.98815,-0.11669 1.58628,-0.14573 0.76959,-0.0373 1.30674,-0.10813 1.8375,-0.24205 0.48833,-0.12321 0.85499,-0.17485 1.05092,-0.148 0.16551,0.0227 0.43551,0.008 0.6,-0.0318 0.16449,-0.0402 0.83333,-0.0893 1.4863,-0.10919 0.65298,-0.0199 1.25359,-0.0716 1.3347,-0.11501 0.088,-0.0471 0.57708,-0.0722 1.21278,-0.0622 0.97605,0.0153 1.09158,0.002 1.37903,-0.15047 0.2889,-0.15395 0.44622,-0.17058 1.9875,-0.21006 1.47685,-0.0379 1.70906,-0.0607 1.97377,-0.19416 0.29565,-0.14909 0.61272,-0.18176 1.35,-0.1391 0.37014,0.0214 1.50439,0.0309 1.65,0.0137 0.6203,-0.0729 2.04028,-0.13597 2.33802,-0.10378 0.26039,0.0281 0.51036,0.001 0.75989,-0.0816 0.30043,-0.0998 0.76681,-0.12809 2.4284,-0.14736 1.46507,-0.017 2.1071,-0.0509 2.23231,-0.11791 0.11509,-0.0616 0.30786,-0.0773 0.55856,-0.0456 1.05202,0.13319 1.16123,0.13446 1.48243,0.0172 0.23347,-0.0852 0.70672,-0.12899 1.67539,-0.1549 1.72532,-0.0461 2.4316,-0.11397 2.6478,-0.25425 0.14438,-0.0937 0.25547,-0.0984 0.675,-0.0289 1.37724,0.22822 3.58893,0.16091 4.22766,-0.12866 0.39672,-0.17985 0.70672,-0.19026 4.18704,-0.14055 1.09312,0.0156 2.16415,-1.5e-4 2.38006,-0.0351 0.21591,-0.0349 0.92466,-0.095 1.575,-0.13357 0.65034,-0.0386 1.36806,-0.10196 1.59494,-0.14094 0.58257,-0.10008 1.22874,-0.0971 1.47636,0.007 0.1447,0.0607 1.06068,0.097 2.91114,0.11523 1.485,0.0147 2.88562,0.0288 3.1125,0.0314 0.62225,0.007 1.89744,-0.0615 2.025,-0.10924 0.27954,-0.10453 4.56777,-0.21767 5.18377,-0.13677 0.74393,0.0977 1.98343,0.11669 4.19123,0.0642 1.81931,-0.0433 8.24373,-0.0511 10.8,-0.0132 7.63605,0.11309 8.40189,0.13427 13.86998,0.38367 3.47338,0.15841 4.44987,0.18185 4.70733,0.11299 0.45205,-0.1209 0.71854,-0.1083 1.41019,0.0667 0.53745,0.13598 0.90882,0.15551 3.5625,0.18728 1.62937,0.0195 3.26625,0.0696 3.6375,0.11133 0.61023,0.0686 1.33899,0.0854 2.625,0.0605 0.2475,-0.005 0.70312,0.0283 1.0125,0.0735 0.76535,0.1119 2.26785,0.11165 2.51383,-4.5e-4 0.15448,-0.0704 0.27017,-0.0676 0.54728,0.0133 0.55573,0.16222 1.44786,0.22617 4.10139,0.29398 5.30151,0.1355 6.20925,0.13362 6.43385,-0.0133 0.21964,-0.14368 0.55468,-0.11663 1.69063,0.13648 0.60639,0.13512 2.54675,0.33148 3.28854,0.33281 0.29592,5e-4 0.70092,0.0356 0.9,0.0779 0.47217,0.10041 6.4922,0.59832 7.23204,0.59815 0.31353,-7e-5 0.6679,0.0323 0.7875,0.0721 0.11958,0.0397 0.81317,0.13858 1.54128,0.2197 1.46919,0.16368 1.61579,0.21419 2.34621,0.80848 0.57128,0.46479 1.39245,1.40532 1.39245,1.59482 0,0.42043 -0.93603,0.89818 -1.87368,0.95633 l -0.56382,0.0349 -0.825,-0.46982 c -1.31103,-0.7466 -1.44933,-0.80293 -2.10318,-0.85663 -0.32825,-0.0269 -0.98088,-0.11337 -1.45029,-0.19203 -0.46941,-0.0786 -0.94708,-0.14296 -1.06149,-0.14296 -0.11442,0 -0.54036,-0.0715 -0.94654,-0.1588 -0.45053,-0.0969 -1.08945,-0.1678 -1.6385,-0.1819 -0.495,-0.0127 -1.13625,-0.0635 -1.425,-0.11289 -0.28875,-0.0494 -1.065,-0.0985 -1.725,-0.10912 -0.66,-0.0106 -1.45313,-0.0399 -1.7625,-0.065 -0.30938,-0.0251 -1.59188,-0.0821 -2.85,-0.12664 -1.86555,-0.066 -2.37957,-0.10767 -2.78664,-0.22579 -0.52342,-0.15187 -1.05529,-0.17625 -1.66363,-0.0763 -0.20453,0.0336 -0.51533,0.0281 -0.7125,-0.0128 -0.19235,-0.0399 -0.58598,-0.0669 -0.87473,-0.0603 -0.28875,0.007 -0.75394,-0.0412 -1.03375,-0.1064 -0.40081,-0.0934 -0.57345,-0.10114 -0.81365,-0.0365 -0.32727,0.0881 -4.22298,-0.0405 -8.9526,-0.29561 -1.99351,-0.10753 -7.33611,-0.24289 -10.4625,-0.26509 -1.85094,-0.0132 -2.91373,-0.0513 -3.28164,-0.11779 -0.44745,-0.0809 -0.67485,-0.081 -1.27957,-0.001 -0.46304,0.0613 -0.92819,0.0764 -1.25586,0.0409 -0.28624,-0.031 -1.14481,-0.0651 -1.90793,-0.0758 -0.76313,-0.0107 -1.9275,-0.0612 -2.5875,-0.11229 -0.66,-0.0511 -2.03044,-0.10091 -3.04542,-0.11078 -1.01499,-0.01 -1.88136,-0.0401 -1.92528,-0.0673 -0.1956,-0.12088 -6.72856,-0.21959 -7.93138,-0.11984 -0.74691,0.0619 -0.96623,0.0554 -1.275,-0.0383 -0.47669,-0.14459 -1.05444,-0.14548 -1.46042,-0.002 -0.34173,0.12057 -0.87753,0.13824 -1.42925,0.0471 -0.18796,-0.031 -0.61698,-0.0244 -0.95338,0.0148 -0.53384,0.0622 -0.67639,0.0516 -1.12076,-0.0832 -0.58364,-0.17702 -1.94965,-0.21879 -2.45911,-0.0752 -0.50451,0.1422 -2.24673,0.077 -2.74708,-0.10279 l -0.42207,-0.15166 -0.48162,0.23228 c -0.47846,0.23075 -0.48393,0.23149 -0.83235,0.11277 -0.32181,-0.10965 -0.3951,-0.10941 -0.88888,0.003 -0.29598,0.0673 -0.62671,0.10295 -0.73496,0.0792 -0.40605,-0.0892 -0.82948,-0.11147 -2.13216,-0.11221 -1.39905,-0.001 -1.59124,0.014 -2.54151,0.19659 -0.31934,0.0613 -0.61526,0.0901 -0.65759,0.064 -0.0895,-0.0553 -1.90258,-0.2057 -2.39928,-0.19901 -0.91542,0.0123 -2.23719,0.0977 -2.4375,0.15744 -0.48744,0.14538 -1.83378,0.17421 -2.0332,0.0435 -0.27116,-0.17767 -1.28167,-0.14469 -1.8668,0.0609 -0.42612,0.14974 -0.61122,0.15892 -3.4875,0.17294 -2.65233,0.013 -3.075,0.0307 -3.33326,0.14053 -0.31879,0.1355 -0.43912,0.14544 -2.70424,0.22328 -0.825,0.0284 -1.61502,0.0867 -1.7556,0.12964 -0.14757,0.0451 -1.24106,0.0858 -2.5875,0.0962 -1.78589,0.0139 -2.46361,0.0459 -2.8944,0.13698 -0.49297,0.1042 -3.12448,0.23077 -4.25625,0.20471 -1.05819,-0.0243 -1.31432,-0.0101 -1.85625,0.10347 -0.33,0.0691 -1.19063,0.1575 -1.9125,0.19636 -0.72188,0.0388 -1.75125,0.10226 -2.2875,0.14091 -0.53625,0.0386 -1.27875,0.0894 -1.65,0.11286 -0.37125,0.0234 -0.95708,0.0802 -1.30184,0.12628 -0.34476,0.0461 -0.85631,0.0611 -1.13679,0.0335 -0.34888,-0.0344 -0.64838,-0.0159 -0.94816,0.0586 -0.29543,0.0734 -1.09803,0.12495 -2.46321,0.15821 -1.11375,0.0271 -2.32875,0.0804 -2.7,0.11832 -1.96749,0.20107 -2.43251,0.23933 -2.775,0.22831 -0.20625,-0.007 -0.59546,0.0343 -0.8649,0.0909 -0.29463,0.0619 -0.74303,0.0897 -1.125,0.0698 -0.42679,-0.0223 -0.8565,0.0103 -1.3101,0.0994 -0.37125,0.0729 -1.2825,0.16026 -2.025,0.19412 -0.7425,0.0338 -1.53282,0.0828 -1.75628,0.10876 -0.28834,0.0335 -0.53334,0.009 -0.84403,-0.0853 -0.39053,-0.11824 -0.49641,-0.12194 -0.98123,-0.0343 -0.2989,0.0541 -0.79659,0.0962 -1.10596,0.0936 -0.30938,-0.002 -0.7197,0.0446 -0.91183,0.10488 -0.19213,0.0603 -0.479,0.12099 -0.6375,0.13496 -0.1585,0.014 -0.49137,0.0624 -0.73972,0.10764 -0.48635,0.0886 -1.24104,0.0109 -1.43173,-0.14737 -0.12424,-0.10311 -0.66581,-0.035 -0.89172,0.11215 -0.32204,0.20976 -3.34408,0.29971 -4.01348,0.11946 -0.25209,-0.0679 -0.35708,-0.0524 -0.76392,0.11295 -0.52389,0.21288 -2.36046,0.3899 -3.10976,0.29974 -0.25789,-0.031 -0.68361,0.008 -1.275,0.1158 -0.68836,0.12589 -1.0283,0.1512 -1.51299,0.11264 -0.52463,-0.0418 -0.65724,-0.0287 -0.82465,0.081 -0.24507,0.16058 -1.34356,0.28544 -2.34588,0.26665 -0.68257,-0.0128 -0.75148,5e-4 -1.30305,0.25556 -0.53849,0.2488 -0.60656,0.26297 -0.90372,0.18815 -0.23524,-0.0592 -0.42873,-0.0574 -0.72196,0.007 -0.23426,0.0513 -1.13241,0.0914 -2.16309,0.0966 -1.48798,0.008 -1.80594,0.0288 -2.04134,0.13668 -0.32542,0.14909 -1.04433,0.16929 -1.28234,0.0361 -0.0901,-0.0504 -0.40007,-0.097 -0.68882,-0.10349 -0.28875,-0.007 -1.12087,-0.0335 -1.84915,-0.06 -1.23885,-0.0451 -1.34997,-0.0379 -1.725,0.11154 -0.22047,0.0879 -0.5696,0.17228 -0.77585,0.18758 -0.20625,0.0153 -0.53346,0.0682 -0.72713,0.11757 -0.29993,0.0764 -0.41822,0.0697 -0.79797,-0.0452 l -0.44583,-0.13499 -0.40204,0.18928 c -0.44191,0.20806 -1.00086,0.19262 -2.30039,-0.0635 -0.5416,-0.10677 -0.55452,-0.1056 -1.05,0.0951 -0.54395,0.22034 -0.53702,0.21993 -2.30164,0.13491 -0.87364,-0.0421 -1.31219,-0.0324 -1.6125,0.0357 -0.29557,0.0671 -1.63087,0.10094 -4.71059,0.11951 -2.96168,0.0178 -4.47747,0.055 -4.875,0.11959 -0.3173,0.0515 -0.96504,0.098 -1.43941,0.10331 -0.47438,0.005 -0.96375,0.0329 -1.0875,0.0613 -0.22801,0.0523 -0.52286,0.004 -1.3675,-0.2215 -0.43894,-0.11747 -0.51912,-0.11708 -1.3125,0.006 -0.86809,0.13507 -2.2358,0.2288 -4.4075,0.30203 -0.68063,0.023 -1.55813,0.0743 -1.95,0.11405 -0.39188,0.0398 -0.78,0.0737 -0.8625,0.0754 -0.0825,10e-4 -0.362,0.0522 -0.6211,0.1121 -0.27015,0.0625 -0.846,0.1088 -1.35,0.10857 -0.4834,-2.2e-4 -1.09828,0.0391 -1.3664,0.0875 -0.26813,0.0483 -0.94313,0.0971 -1.5,0.10847 -0.55688,0.0114 -1.11375,0.0383 -1.2375,0.0599 -0.12375,0.0216 -0.27563,0.0189 -0.3375,-0.006 z M 144.4243,41.313803 c 0.37674,-0.20187 0.64938,-0.480975 0.64938,-0.66478 0,-0.05846 0.23625,-0.3559 0.525,-0.66097 0.28875,-0.305075 0.525,-0.60272 0.525,-0.661445 0,-0.38128 -1.1057,-1.073245 -1.84611,-1.155335 -0.29652,-0.03285 -0.32274,-0.01785 -0.66993,0.38432 -0.19874,0.23019 -0.49253,0.509445 -0.65287,0.62056 -0.43022,0.29814 -0.50411,0.492305 -0.45386,1.19264 0.0853,1.188895 0.80673,1.543355 1.92339,0.94501 z m 48.66961,-0.07622 c 0.29693,-0.19579 0.8522,-0.86696 0.91096,-1.101105 0.0275,-0.10929 0.12625,-0.271775 0.21961,-0.36107 0.0934,-0.08929 0.25788,-0.31536 0.36561,-0.502365 l 0.19587,-0.34001 -0.19989,-0.42413 c -0.43658,-0.92633 -1.25159,-1.159995 -1.39422,-0.399725 -0.027,0.14426 -0.0917,0.288525 -0.14368,0.320585 -0.052,0.03205 -0.18479,0.21479 -0.29518,0.406065 -0.11039,0.19128 -0.31965,0.417955 -0.46502,0.503725 -0.51367,0.303075 -0.5639,0.588275 -0.22112,1.255445 0.40429,0.786895 0.61155,0.91657 1.02706,0.642585 z m 11.8982,-0.995355 c 1.00925,-0.445155 1.2888,-0.63647 1.55825,-1.066405 0.10781,-0.172025 0.45829,-0.58277 0.77886,-0.91277 0.87913,-0.905 1.31803,-2.196315 0.94171,-2.77065 -0.30512,-0.465665 -1.3506,-0.745225 -1.84455,-0.493235 -0.16022,0.08174 -0.55543,0.23726 -0.87825,0.3456 -0.85628,0.287365 -1.06011,0.41351 -1.58576,0.981405 -0.48792,0.527135 -0.93946,1.372895 -0.93396,1.74938 0.0301,2.063025 0.0336,2.085075 0.38358,2.380875 0.30161,0.254965 0.61173,0.212925 1.58012,-0.2142 z m -112.38093,0.0083 c 0.0747,-0.0825 0.19211,-0.15 0.261,-0.15 0.14091,0 0.16534,-0.02385 0.90006,-0.878305 0.29123,-0.338695 0.67105,-0.72682 0.84405,-0.8625 0.57498,-0.45095 1.10739,-1.025055 1.10739,-1.194105 0,-0.09285 0.16152,-0.33388 0.375,-0.559605 0.7294,-0.77124 0.0698,-1.502885 -0.74286,-0.823955 -0.16887,0.14109 -0.41626,0.280515 -0.54974,0.309835 -0.33961,0.07459 -0.56032,0.23545 -0.61344,0.447095 -0.0249,0.09931 -0.17842,0.287525 -0.3411,0.418255 -0.35279,0.283505 -0.67786,0.752055 -0.67786,0.97703 0,0.10083 -0.16892,0.32082 -0.44756,0.58286 -0.43397,0.40813 -0.55462,0.629505 -0.70684,1.29694 -0.11132,0.4881 0.28241,0.77843 0.5919,0.436455 z m 115.5321,-8.279465 c 0.29142,-0.153135 0.72103,-0.344205 0.95471,-0.4246 0.82777,-0.284795 2.96278,-1.829165 3.62935,-2.625315 0.16818,-0.200875 0.5213,-0.536715 0.7847,-0.74631 0.34963,-0.27821 0.53461,-0.49491 0.68521,-0.802745 0.19319,-0.394845 0.59536,-0.88665 0.85143,-1.041175 0.25224,-0.152225 0.57783,-0.67739 0.62331,-1.00539 0.0258,-0.185625 0.0918,-0.54 0.14671,-0.7875 0.40429,-1.820815 -1.19699,-2.589005 -2.53701,-1.21709 -0.29122,0.29815 -0.64369,0.60959 -0.78326,0.69209 -0.13958,0.0825 -0.37836,0.33023 -0.53064,0.55051 -0.15228,0.22028 -0.39528,0.52403 -0.54001,0.675 -0.14472,0.15097 -0.4132,0.51074 -0.59662,0.79949 -0.18342,0.28875 -0.5702,0.811875 -0.8595,1.1625 -0.28929,0.350625 -0.54981,0.71257 -0.57893,0.80432 -0.0291,0.09175 -0.22052,0.313415 -0.42534,0.49259 -0.2508,0.21939 -0.46384,0.507785 -0.65244,0.88318 -0.15401,0.306575 -0.36934,0.675535 -0.47851,0.81991 -0.30048,0.39738 -1.13117,1.93454 -1.08543,2.008545 0.10422,0.168625 0.8664,0.03835 1.39227,-0.23801 z M 42.3827,47.000713 c -0.45856,-0.287975 -0.57926,-0.48381 -0.70518,-1.1441 -0.18414,-0.96553 -0.0451,-1.70681 0.42694,-2.275535 0.1186,-0.14289 0.025,-0.46064 -0.15221,-0.51689 -0.20507,-0.06509 -0.99513,0.369575 -1.50357,0.82721 -0.10313,0.09282 -0.5925,0.381165 -1.0875,0.640765 -0.5546,0.290855 -1.10674,0.65111 -1.4387,0.9387 -1.33626,1.157655 -3.47204,1.85918 -4.2238,1.387355 -0.89643,-0.562615 -1.50055,-1.50818 -1.22868,-1.92311 0.10149,-0.154895 0.10763,-0.239595 0.0375,-0.518075 -0.29122,-1.15655 0.35946,-3.112995 1.03673,-3.11721 0.0643,-3.75e-4 0.26227,-0.11626 0.43988,-0.25746 0.17762,-0.141205 0.43074,-0.27845 0.5625,-0.30499 0.13176,-0.02655 0.38154,-0.10034 0.55507,-0.16399 0.59216,-0.21721 0.9376,0.05285 0.72598,0.567575 -0.15052,0.366105 -0.14005,0.402445 0.2547,0.884285 0.19727,0.240795 0.45174,0.582565 0.5655,0.759485 0.38592,0.60024 0.82222,0.74687 1.255,0.421785 0.14207,-0.10672 0.44332,-0.3138 0.66943,-0.46017 0.22611,-0.146375 0.56578,-0.39656 0.75482,-0.555965 0.18905,-0.159405 0.40998,-0.289825 0.49096,-0.289825 0.18059,0 0.41044,-0.151825 0.87115,-0.57541 0.23338,-0.214585 0.4213,-0.32459 0.55446,-0.32459 0.2179,0 0.73184,-0.47901 1.08,-1.006605 0.32979,-0.49975 0.702,-0.886095 1.09916,-1.14088 0.21266,-0.13643 0.56365,-0.45155 0.77997,-0.70026 0.25874,-0.297475 0.53652,-0.522275 0.81183,-0.656965 0.23018,-0.112615 0.52745,-0.323565 0.6606,-0.468775 0.13315,-0.14521 0.44602,-0.48626 0.69527,-0.757885 0.24924,-0.27163 0.45317,-0.526635 0.45317,-0.56668 0,-0.17783 0.41913,-0.612335 0.85702,-0.888465 1.1307,-0.712995 2.24461,-1.755335 2.36882,-2.21662 0.10059,-0.373565 1.07097,-1.24102 1.47254,-1.316355 0.29489,-0.05532 0.51953,-0.30781 0.62615,-0.703765 0.15016,-0.557685 1.81661,-2.004275 2.46482,-2.13963 0.55873,-0.11668 1.13637,0.406745 1.13517,1.028645 -10e-4,0.42575 -0.82827,1.94801 -1.46105,2.687885 -0.30533,0.357 -0.67675,0.8566 -0.8254,1.11022 -0.14864,0.253625 -0.30197,0.461135 -0.34072,0.461135 -0.0387,0 -0.18788,0.233135 -0.33137,0.51808 -0.14616,0.290235 -0.3609,0.58929 -0.48827,0.67998 -0.12504,0.08904 -0.24706,0.25247 -0.27113,0.363165 -0.0982,0.45167 -0.22069,0.624445 -0.75115,1.059815 -0.32084,0.26333 -0.55543,0.513635 -0.55543,0.592635 0,0.191 -0.52669,0.96102 -0.73328,1.07205 -0.0939,0.05048 -0.19187,0.17841 -0.21766,0.28428 -0.0591,0.242535 -0.32887,0.56972 -0.68548,0.83127 -0.42353,0.31063 -0.74876,1.244135 -0.54535,1.565335 0.15441,0.243835 1.40527,0.09213 1.93718,-0.23495 0.23764,-0.14613 0.56383,-0.320355 0.72484,-0.38716 0.80856,-0.33547 1.8931,-1.067345 2.4649,-1.663375 0.35428,-0.369285 0.78053,-0.721495 1.0875,-0.89859 0.27767,-0.160185 0.84235,-0.60712 1.25485,-0.993195 0.80959,-0.75772 0.829,-0.77712 1.27111,-1.270445 0.5633,-0.62856 1.02924,-0.692825 1.46066,-0.201465 0.43201,0.49204 0.37785,0.67111 -0.63367,2.09507 -0.38093,0.53625 -0.71505,1.079375 -0.74247,1.20695 -0.0274,0.12758 -0.18098,0.456315 -0.34122,0.730525 -0.16024,0.274215 -0.31553,0.574835 -0.34509,0.668045 -0.0659,0.20783 -0.3666,0.6944 -0.6096,0.98642 -0.39581,0.47564 -0.54722,0.901255 -0.54722,1.53818 0,0.32869 -0.0358,0.691795 -0.0796,0.8069 -0.19807,0.52099 -0.11828,1.37608 0.18003,1.929085 0.50155,0.92979 0.13082,1.30992 -1.73267,1.776635 l -0.99471,0.249125 -0.66312,-0.164685 c -0.36472,-0.09058 -0.735,-0.16468 -0.82285,-0.16468 -0.0879,0 -0.26465,-0.09374 -0.39287,-0.208305 l -0.23313,-0.208305 0.12798,-0.440235 c 0.25508,-0.877445 -0.28345,-2.062345 -1.01169,-2.22597 -0.35458,-0.07967 -0.42218,-0.05261 -0.9423,0.37719 -0.20248,0.167315 -0.48726,0.3599 -0.63287,0.42796 -0.1456,0.06807 -0.3491,0.181825 -0.45222,0.2528 -0.10313,0.07097 -0.3225,0.172175 -0.4875,0.2249 -0.165,0.05272 -0.53123,0.29085 -0.81384,0.52918 -0.28261,0.238335 -0.60259,0.455605 -0.71107,0.482835 -0.10848,0.02725 -0.40038,0.192755 -0.64866,0.36784 -1.3705,0.96645 -2.13007,1.159775 -2.82991,0.72027 z m 21.41041,-0.574605 c -0.89007,-0.3151 -1.18053,-0.935355 -0.84009,-1.79391 0.13697,-0.34542 0.244,-0.76355 0.25567,-0.99881 0.0222,-0.447255 0.1223,-0.57083 0.67749,-0.836165 0.66274,-0.316745 1.03951,-0.1463 1.77021,0.800825 l 0.32347,0.419275 -0.16559,0.287725 c -0.0911,0.158245 -0.16559,0.39265 -0.16559,0.5209 0,1.158275 -0.90333,1.93727 -1.85557,1.60016 z"
       style="fill:#000000" />
  </g>
</svg>
