<?xml version="1.0" encoding="UTF-8"?>
<svg version="1.1" xmlns="http://www.w3.org/2000/svg" width="306" height="70" >
<path d="M78.046,39.451c3.641-7.126,9.184-13.131,15.03-18.498c3.158-2.9,6.476-5.598,9.165-8.96 c1.514-1.893,2.573-3.882,4.33-5.596c1.751-1.708,3.762-3.179,5.936-4.298c4.592-2.365,1.475,4.2,0.63,5.909 c-3.018,6.107-6.451,12.055-9.682,18.053C96.637,38.72,89.866,52.338,80.29,63.186c-1.404,1.59-2.971,3.111-4.864,4.098 c-2.138,1.114-5.394-0.05-3.712-2.693c4.402-6.922,16.451-10.626,23.551-13.127c0.906-0.319,0.516-1.769-0.398-1.446 c-8.263,2.911-18.938,6.504-24.448,13.817c-2.397,3.182,0.903,6.04,4.302,5.252c5.255-1.218,9.117-7.663,11.986-11.725 c5.864-8.299,10.799-17.276,15.675-26.176c4.456-8.133,9.344-16.288,13.153-24.747c1.442-3.203,1.634-8.085-3.222-5.888 c-6.8,3.076-9.604,9.286-14.667,14.246c-7.652,7.496-15.917,14.157-20.893,23.898C76.312,39.554,77.606,40.313,78.046,39.451 L78.046,39.451z"/>
<path d="M94.931,61.683c-3.01-0.748,5.676-5.406,6.645-5.892c1.633-0.818,5.212-1.514,5.879-3.519 c0.307-0.92-1.142-1.312-1.446-0.398c-0.328,0.984-3.277,1.724-4.096,2.099c-2.851,1.307-5.871,2.808-8.181,4.959 c-1.562,1.455-1.419,3.646,0.801,4.198C95.472,63.363,95.87,61.916,94.931,61.683L94.931,61.683z"/>
<path d="M135.046,15.451c1.381-2.592,2.675-5.23,3.841-7.927c0.484-1.12,1.071-2.374,1.205-3.603 c-0.153,1.409,0.736,2.796,0.411,4.717c-0.186,1.098-0.816,2.373-1.263,3.394c-4.271,9.774-9.896,19.179-16.119,27.821 c-2.333,3.241-12.293,12.157-9.388,17.304c3.062,5.425,12.738-4.246,14.862-6.221c0.71-0.66-0.354-1.718-1.061-1.061 c-0.859,0.798-13.438,11.52-12.536,4.904c0.62-4.548,4.866-8.306,7.557-11.704c6.467-8.165,11.707-17.438,16.32-26.751 c1.058-2.136,6.659-13.968,1.145-14.374c-1.618-0.119-1.466,2.131-1.807,3.199c-1.056,3.303-2.835,6.488-4.463,9.544 C133.296,15.547,134.591,16.305,135.046,15.451L135.046,15.451z"/>
<path d="M136.868,52.603c9.687,8.061,22.353-10.466,26.178-16.485c0.483-0.761-0.559-1.432-1.178-0.909 c-4.08,3.451-13.623,14.105-2.58,15.067c7.279,0.634,14.745-1.095,21.649-3.247c5.461-1.701,12.273-4.092,15.775-8.912 c0.432-0.594-0.432-1.474-1.026-1.026c-1.821,1.372-8.179,7.162-2.567,8.079c5.901,0.965,13.174-1.185,19.007-1.998 c26.007-3.624,52.068-7.08,78.391-5.961c3.87,0.164,7.794,0.4,11.604,1.129c0.439,0.084,0.871,0.198,1.301,0.322 c0.64,0.185,0.824-0.651,0.233-0.466c-1.366,0.426-2.959,0.376-4.374,0.435c-5.289,0.217-10.614,0.014-15.904-0.073 c-18.265-0.299-36.525-0.797-54.788-1.22c-29.427-0.681-58.648-0.414-88.07,0.4c-18.455,0.511-36.914,1.035-55.359,1.834 c-13.151,0.57-26.211,1.495-39.39,1.438c-9.134-0.039-18.283-0.308-27.387-1.075c-2.833-0.239-15.588-0.268-16.904-3.943 c-1.745-4.875,48.9-13.071,52.333-13.614c29.107-4.607,58.449-7.684,87.666-11.498c29.408-3.84,59.164-7.446,88.865-5.554 c5.422,0.346,10.823,0.969,16.191,1.801c0.945,0.147,1.353-1.298,0.398-1.446c-28.337-4.394-57.238-2.026-85.564,1.227 c-28.764,3.304-57.546,6.988-86.239,10.857c-22.433,3.025-46.306,5.426-67.792,12.946c-2.247,0.787-7.798,2.401-7.304,5.679 c0.478,3.175,7.997,3.751,10.127,4.09c29.473,4.685,59.906,1.086,89.534,0.023c31.225-1.121,62.597-2.661,93.849-2.343 c33.564,0.342,67.115,1.898,100.682,2.021c2.492,0.009,9.23,1.055,10.886-1.148c1.692-2.253-7.221-2.797-7.929-2.869 c-24.805-2.503-50.159,0.742-74.726,4.073c-7.663,1.039-15.312,2.221-22.995,3.103c-1.813,0.208-3.643,0.406-5.471,0.399 c-3.604-0.015,1.479-4.618,2.456-5.354c-0.343-0.342-0.685-0.684-1.026-1.026c-3.029,4.167-9.009,6.188-13.641,7.813 c-5.557,1.95-11.434,3.208-17.302,3.66c-2.29,0.177-4.611,0.118-6.86-0.359c-3.882-0.823-1.563-4.573-0.202-6.479 c1.521-2.13,3.521-4.038,5.516-5.726c-0.393-0.303-0.785-0.606-1.178-0.909c-4.137,6.508-9.403,14.462-17.199,16.916 c-2.015,0.634-5.013,0.606-6.623-0.734C137.191,50.929,136.124,51.984,136.868,52.603L136.868,52.603z"/>
</svg>