<?xml version="1.0" encoding="utf-8"?>
<!-- Generator: Adobe Illustrator 15.1.0, SVG Export Plug-In . SVG Version: 6.00 Build 0)  -->
<!DOCTYPE svg PUBLIC "-//W3C//DTD SVG 1.1//EN" "http://www.w3.org/Graphics/SVG/1.1/DTD/svg11.dtd">
<svg version="1.1" xmlns="http://www.w3.org/2000/svg" xmlns:xlink="http://www.w3.org/1999/xlink" x="0px" y="0px" width="499px"
	 height="132px" viewBox="0 0 499 132" enable-background="new 0 0 499 132" xml:space="preserve">
<g id="Layer_1">
	<g id="R2ZD4g_1_">
		
			<image overflow="visible" width="666" height="216" id="R2ZD4g_2_" xlink:href="B1AA0DA1.jpg"  transform="matrix(0.8211 0 0 0.8211 -26.2085 216.5547)">
		</image>
	</g>
</g>
<g id="Layer_2">
	<path fill="none" stroke="#000000" stroke-width="5" stroke-linecap="round" stroke-linejoin="round" stroke-miterlimit="10" d="
		M38,113c0,0,21-42,22-52s1-38-6-41S27,30,22,43s-7,37,20,45c20,5,33,3,44-20c-2,15-1,39,21,8c0,13,9,30,28-14c3-7,1-23-6-1
		c-6,21-4,46,18,20c11-10,17-21,18-25c-4,9-14,49,7,29"/>
	<path fill="none" stroke="#000000" stroke-width="5" stroke-linecap="round" stroke-linejoin="round" stroke-miterlimit="10" d="
		M60,61c0,0,12-14,14-11c4,7-7,47-7,47c5-6,19-29,19-29"/>
	<path fill="none" stroke="#000000" stroke-width="5" stroke-linecap="round" stroke-linejoin="round" stroke-miterlimit="10" d="
		M135,57c0,0,48-30,83-20c17,10,15,28,8,42c-7,13-13,16-18,15c-2-6,8-34,29-33c9,3,13,18,3,27c2-9,8-18,16-17c7,1,6,16,21-1
		c1,10,2,16,18,6c1,4,2,23,21-21c-13,7-16,42,53,18c22,6,62,29,114,18"/>
	<path fill="none" stroke="#000000" stroke-width="5" stroke-linecap="round" stroke-linejoin="round" stroke-miterlimit="10" d="
		M356,16c0,0,4,7,15,9"/>
</g>
</svg>
