<svg xmlns="http://www.w3.org/2000/svg" height="371" width="450"> <path d="m231.64,203.237c-36.482,35.796-48.278,30.779-48.091,22.023,0.10676-4.9771,32.796-30.935,30.273-29.138-16.362,11.653-35.825,32.797-46.369,24.005-37.09-30.92-138.54-81.25-154.29-97.5-40.678-41.95,154.11-144.61,232.5-103.98,80.51,41.73-96.46,169.27-161.23,165.91m180.17,48.433c-14.509-27.064,15.279-11.886-4.6002,1.4513-8.6399,5.7968-30.918,1.1685-21.563-3.5764,8.5964-4.3602-10.255,38.252-23.476,18.234m114.29,97.15c-0.31405-6.9893-2.7973-16.376,0.53086-16.816,4.0802-0.54,9.2808,11.796,23.214,18.611,30.831,12.068,57.571,9.1183,90.047,10.598-40.383-2.9293-160.62,28.342-142.47-39.724-10.847,29.467-32.217,31.647-30.377-5.8418,3.6244,32.105-31.446,66.728-63.091,45.566-27.372-18.305-45.939-54.487-45.377-87.627,0.98754-58.277,33.72-91.225,52.897-96.193" stroke="#000" stroke-linejoin="round" stroke-linecap="round" stroke-miterlimit="4" stroke-width="5" fill="none"/></svg>