<?xml version="1.0" standalone="no"?>
<!DOCTYPE svg PUBLIC "-//W3C//DTD SVG 20010904//EN"
 "http://www.w3.org/TR/2001/REC-SVG-20010904/DTD/svg10.dtd">
<svg version="1.0" xmlns="http://www.w3.org/2000/svg"
 width="326.000000pt" height="130.000000pt" viewBox="0 0 326.000000 130.000000"
 preserveAspectRatio="xMidYMid meet">
<metadata>
Created by potrace 1.13, written by Peter Selinger 2001-2015
</metadata>
<g transform="translate(0.000000,130.000000) scale(0.100000,-0.100000)"
fill="#000000" stroke="none">
<path d="M787 1219 c-157 -42 -260 -86 -409 -175 -147 -88 -208 -138 -190
-156 13 -13 40 0 193 94 121 74 268 141 414 188 140 46 176 61 169 71 -9 15
-65 9 -177 -22z"/>
<path d="M2698 1244 c-15 -14 -8 -22 50 -59 115 -76 151 -129 137 -203 -10
-56 -54 -130 -104 -174 -45 -39 -46 -39 -107 -33 -51 6 -62 4 -67 -9 -4 -9
-28 -26 -54 -37 -51 -21 -103 -65 -103 -85 0 -16 67 -74 85 -74 25 0 17 -15
-26 -49 -31 -26 -39 -39 -37 -59 3 -24 7 -27 43 -26 23 0 74 16 122 38 78 37
85 38 172 35 94 -4 101 -1 101 39 0 9 7 30 15 46 8 15 15 35 15 42 0 22 -42
16 -82 -11 -43 -29 -48 -30 -48 -10 0 9 -16 25 -35 36 -19 12 -35 27 -35 34 0
6 26 33 59 58 99 78 148 175 138 278 -8 87 -39 144 -102 186 -51 33 -122 53
-137 37z"/>
<path d="M125 846 c-34 -34 -73 -120 -81 -179 -17 -124 35 -187 201 -238 35
-11 67 -23 69 -28 3 -5 -17 -11 -44 -15 -70 -9 -80 -15 -80 -43 l0 -25 193 2
c105 1 251 2 322 1 72 -1 202 4 290 11 249 20 1053 6 1560 -27 230 -15 255
-12 235 25 -6 10 -18 21 -27 24 -47 14 -287 27 -683 36 -460 10 -568 19 -608
51 -14 10 -30 19 -37 19 -6 0 -20 9 -30 20 -14 16 -17 30 -12 71 10 85 34 121
96 145 57 23 80 50 81 97 0 46 -30 38 -177 -49 -18 -10 -33 -24 -33 -29 0 -55
-33 -253 -44 -270 -20 -30 -72 -39 -123 -21 -33 11 -68 12 -189 5 -171 -11
-379 -4 -540 17 -133 17 -199 36 -276 76 -45 24 -62 40 -79 75 -26 55 -21 89
28 184 27 51 34 72 26 80 -8 8 -18 4 -38 -15z"/>
</g>
</svg>
