<?xml version="1.0" encoding="UTF-8" standalone="no"?>
<!-- Created with Inkscape (http://www.inkscape.org/) -->

<svg
   xmlns:dc="http://purl.org/dc/elements/1.1/"
   xmlns:cc="http://creativecommons.org/ns#"
   xmlns:rdf="http://www.w3.org/1999/02/22-rdf-syntax-ns#"
   xmlns:svg="http://www.w3.org/2000/svg"
   xmlns="http://www.w3.org/2000/svg"
   xmlns:sodipodi="http://sodipodi.sourceforge.net/DTD/sodipodi-0.dtd"
   xmlns:inkscape="http://www.inkscape.org/namespaces/inkscape"
   width="456.09"
   height="380"
   id="svg2"
   version="1.1"
   inkscape:version="0.47 r22583"
   sodipodi:docname="New document 1">
  <title
     id="title4373">Mohammad Khatami's signature</title>
  <defs
     id="defs4">
    <inkscape:perspective
       sodipodi:type="inkscape:persp3d"
       inkscape:vp_x="0 : 526.18109 : 1"
       inkscape:vp_y="0 : 1000 : 0"
       inkscape:vp_z="744.09448 : 526.18109 : 1"
       inkscape:persp3d-origin="372.04724 : 350.78739 : 1"
       id="perspective10" />
    <inkscape:perspective
       id="perspective2824"
       inkscape:persp3d-origin="0.5 : 0.33333333 : 1"
       inkscape:vp_z="1 : 0.5 : 1"
       inkscape:vp_y="0 : 1000 : 0"
       inkscape:vp_x="0 : 0.5 : 1"
       sodipodi:type="inkscape:persp3d" />
    <inkscape:perspective
       id="perspective4367"
       inkscape:persp3d-origin="0.5 : 0.33333333 : 1"
       inkscape:vp_z="1 : 0.5 : 1"
       inkscape:vp_y="0 : 1000 : 0"
       inkscape:vp_x="0 : 0.5 : 1"
       sodipodi:type="inkscape:persp3d" />
  </defs>
  <sodipodi:namedview
     id="base"
     pagecolor="#ffffff"
     bordercolor="#666666"
     borderopacity="1.0"
     inkscape:pageopacity="0.0"
     inkscape:pageshadow="2"
     inkscape:zoom="0.68702583"
     inkscape:cx="345.84735"
     inkscape:cy="526.18109"
     inkscape:document-units="px"
     inkscape:current-layer="layer1"
     showgrid="false"
     inkscape:window-width="1280"
     inkscape:window-height="968"
     inkscape:window-x="-4"
     inkscape:window-y="-4"
     inkscape:window-maximized="1" />
  <metadata
     id="metadata7">
    <rdf:RDF>
      <cc:Work
         rdf:about="">
        <dc:format>image/svg+xml</dc:format>
        <dc:type
           rdf:resource="http://purl.org/dc/dcmitype/StillImage" />
        <dc:title>Mohammad Khatami's signature</dc:title>
      </cc:Work>
    </rdf:RDF>
  </metadata>
  <g
     inkscape:label="Layer 1"
     inkscape:groupmode="layer"
     id="layer1"
     transform="translate(0,-672.36107)">
    <path
       id="path2852"
       style="fill:none;stroke:#000000;stroke-width:5;stroke-linecap:round;stroke-linejoin:round;stroke-miterlimit:4;stroke-dasharray:none"
       d="m 235.37452,727.86257 c 0,1.35982 -1.0411,2.46218 -2.32538,2.46218 -1.28427,0 -2.32539,-1.10236 -2.32539,-2.46218 0,-1.35982 1.04112,-2.46218 2.32539,-2.46218 1.28428,0 2.32538,1.10236 2.32538,2.46218 z M 99.45556,760.35313 c 0.47866,200.94362 104.81069,219.37744 218.06508,174.19384 42.39848,-16.91516 88.6214,-29.65238 131.98432,-45.7291 M 186.45814,679.46793 c -31.02666,2.27858 -55.68978,13.97024 -71.36929,40.10276 m 70.68957,48.93894 c -6.402,11.09588 -13.61281,26.1594 -0.6797,32.62596 3.52352,1.76176 16.60128,5.04626 12.23474,0.67972 -12.57104,3.07734 -12.01586,-1.0306 -15.60168,7.88498 -26.88816,66.85318 -51.56974,189.229 -112.18334,230.01261 -21.04538,10.5227 -49.060479,11.8462 -62.5330986,-6.1173 M 328.51703,762.39227 c -8.8706,-7.19092 -40.51752,-46.80612 -25.953,-44.57022 29.08292,4.46474 -9.64864,48.85794 -21.48552,56.77958 21.69886,-3.121 14.631,29.3546 10.72584,39.33276 -4.02679,-9.86394 -14.69853,-19.88712 -17.12472,-15.28934 -6.86257,13.0049 -4.97433,35.18064 -19.57102,56.18744 -1.24862,-7.54086 -25.02508,-52.90256 -25.02508,-65.2604 0,-10.5408 11.33432,-14.9107 15.50918,-5.40382 10.54438,24.01142 -46.7568,44.8482 -37.38392,3.37318 m 145.45742,41.46216 c 0,0 -23.78976,17.6724 -39.42304,18.3521 m 71.3693,-74.08812 c -0.60258,1.50644 6.7502,-23.69452 -9.51592,-6.11738 -23.98528,25.91846 -48.72862,35.79772 -56.15909,27.6029 -16.13436,-24.74598 -2.99195,7.38654 -9.09284,15.89838" />
  </g>
</svg>
