<?xml version="1.0" encoding="UTF-8" standalone="no"?>
<!-- Created with Inkscape (http://www.inkscape.org/) -->
<svg
   xmlns:dc="http://purl.org/dc/elements/1.1/"
   xmlns:cc="http://creativecommons.org/ns#"
   xmlns:rdf="http://www.w3.org/1999/02/22-rdf-syntax-ns#"
   xmlns:svg="http://www.w3.org/2000/svg"
   xmlns="http://www.w3.org/2000/svg"
   xmlns:sodipodi="http://sodipodi.sourceforge.net/DTD/sodipodi-0.dtd"
   xmlns:inkscape="http://www.inkscape.org/namespaces/inkscape"
   width="230.09"
   height="71.360001"
   id="svg2"
   sodipodi:version="0.32"
   inkscape:version="0.46"
   version="1.0"
   sodipodi:docname="Hatta signature.svg"
   inkscape:output_extension="org.inkscape.output.svg.inkscape">
  <defs
     id="defs4">
    <inkscape:perspective
       sodipodi:type="inkscape:persp3d"
       inkscape:vp_x="0 : 526.18109 : 1"
       inkscape:vp_y="0 : 1000 : 0"
       inkscape:vp_z="744.09448 : 526.18109 : 1"
       inkscape:persp3d-origin="372.04724 : 350.78739 : 1"
       id="perspective10" />
    <inkscape:perspective
       id="perspective2413"
       inkscape:persp3d-origin="372.04724 : 350.78739 : 1"
       inkscape:vp_z="744.09448 : 526.18109 : 1"
       inkscape:vp_y="0 : 1000 : 0"
       inkscape:vp_x="0 : 526.18109 : 1"
       sodipodi:type="inkscape:persp3d" />
  </defs>
  <sodipodi:namedview
     id="base"
     pagecolor="#ffffff"
     bordercolor="#666666"
     borderopacity="1.0"
     gridtolerance="10000"
     guidetolerance="10"
     objecttolerance="10"
     inkscape:pageopacity="0.0"
     inkscape:pageshadow="2"
     inkscape:zoom="1.4142136"
     inkscape:cx="152.13376"
     inkscape:cy="29.733964"
     inkscape:document-units="px"
     inkscape:current-layer="layer1"
     showgrid="false"
     inkscape:window-width="640"
     inkscape:window-height="675"
     inkscape:window-x="110"
     inkscape:window-y="59" />
  <metadata
     id="metadata7">
    <rdf:RDF>
      <cc:Work
         rdf:about="">
        <dc:format>image/svg+xml</dc:format>
        <dc:type
           rdf:resource="http://purl.org/dc/dcmitype/StillImage" />
      </cc:Work>
    </rdf:RDF>
  </metadata>
  <g
     inkscape:label="Layer 1"
     inkscape:groupmode="layer"
     id="layer1">
    <path
       style="fill:#000000"
       d="M 1.8813383,68.25384 C 1.8813383,66.5216 10.067628,62.026 14.241388,61.46618 C 16.553098,61.15612 19.145098,59.98912 20.325218,58.72705 C 23.350058,55.49217 28.293068,53.2413 32.372168,53.2413 C 35.365268,53.2413 40.363638,50.85221 42.881338,48.2182 C 43.156338,47.9305 44.603008,46.918 46.096158,45.9682 C 49.255398,43.9586 51.997058,43.75702 53.652658,45.41262 C 54.547748,46.30771 55.306598,45.97039 56.870498,43.98222 C 57.996078,42.55127 62.283988,39.78232 66.399178,37.82901 C 70.514368,35.87569 73.915768,33.93187 73.957848,33.50941 C 73.999928,33.08695 74.221038,31.8413 74.449198,30.7413 C 74.677358,29.6413 75.158968,25.4788 75.519428,21.4913 C 75.888798,17.40525 76.656278,14.18498 77.278078,14.11225 C 77.884868,14.04128 80.406338,14.07164 82.881338,14.17972 C 87.166848,14.36688 93.345328,13.31339 97.131338,11.74998 C 98.353148,11.24544 98.881338,11.49201 98.881338,12.56692 C 98.881338,13.4137 98.093838,14.33676 97.131338,14.61816 C 92.522608,15.96558 84.048188,16.97252 81.131338,16.51929 L 77.881338,16.0143 L 77.762918,23.3778 C 77.697788,27.42772 77.703858,31.09703 77.776418,31.53181 C 78.126228,33.6279 75.373908,36.41502 71.102498,38.29014 C 62.811148,41.92997 59.881338,43.66453 59.881338,44.93352 C 59.881338,46.90091 56.029458,48.43274 52.842478,47.73276 C 50.763008,47.27604 48.762288,47.74227 45.901128,49.35033 C 43.690248,50.59292 41.881338,51.96757 41.881338,52.40512 C 41.881338,53.66196 33.832888,57.43668 32.358978,56.87109 C 30.636858,56.21025 23.881338,58.07145 23.881338,59.20674 C 23.881338,60.75291 17.233718,64.24093 14.263308,64.25334 C 12.678218,64.25997 9.4229083,65.38497 7.0292683,66.75334 C 2.1243183,69.55736 1.8813383,69.62818 1.8813383,68.25384 z M 70.986098,58.3272 C 69.981808,57.69129 69.751998,56.22448 70.165948,53.09252 C 70.658728,49.36419 71.657608,47.87055 77.143728,42.6586 C 80.665208,39.31312 85.493378,35.48812 87.872998,34.1586 C 90.252618,32.82909 92.555128,31.0663 92.989698,30.2413 C 96.491378,23.59352 100.86665,12.6454 100.45273,11.56674 C 100.17299,10.83775 100.49249,10.23783 101.16272,10.2336 C 101.83296,10.22936 103.41503,8.4159002 104.67842,6.2036802 C 108.79918,-1.0118398 108.97776,3.1441302 104.87398,10.75495 C 102.67803,14.82753 100.88134,18.85302 100.88134,19.70048 C 100.88134,20.54793 100.43134,21.2413 99.881338,21.2413 C 99.331338,21.2413 98.881338,22.04117 98.881338,23.01879 C 98.881338,23.99641 98.180818,25.79641 97.324638,27.01879 C 95.394068,29.77506 96.061618,29.79886 101.27181,27.15953 C 104.69137,25.42729 111.88134,17.71189 111.88134,15.77468 C 111.88134,15.18612 115.90525,10.44417 119.67679,6.5881602 C 122.04023,4.1718002 125.30504,3.4998202 126.36319,5.2119302 C 126.69313,5.7457802 126.30898,7.4474502 125.50953,8.9934102 C 124.16315,11.59701 121.49458,14.21289 109.48341,24.70303 C 106.96573,26.90189 104.67586,29.90038 104.33735,31.44157 C 104.00192,32.9688 103.31209,34.47508 102.8044,34.78885 C 101.78665,35.41785 101.56411,46.45636 102.4989,49.94264 C 102.99517,51.79346 103.90857,52.19191 108.23525,52.44494 L 113.38134,52.7459 L 109.65554,53.90631 C 104.63269,55.47069 102.31442,54.67372 100.44824,50.74103 C 97.951518,45.47959 98.464658,40.16408 102.3553,30.986 C 103.05704,29.33058 102.85512,29.33445 98.806528,31.05389 C 96.445458,32.05664 94.180778,33.52152 93.773908,34.30918 C 93.367048,35.09685 91.443788,39.0022 89.500008,42.98775 C 85.563778,51.05864 84.130368,52.8345 78.491788,56.62593 C 74.308208,59.43902 73.154818,59.70045 70.986098,58.3272 z M 78.496478,54.01893 C 80.083148,52.79662 82.056338,50.91316 82.881338,49.83345 C 84.686978,47.47035 89.784338,36.88106 89.346658,36.40235 C 88.657178,35.64822 77.955988,44.35924 75.023648,48.06162 C 69.544888,54.97911 71.932788,59.07532 78.496478,54.01893 z M 116.79265,15.66247 C 120.13485,12.8502 124.34871,7.3753402 123.68325,6.7098802 C 123.4543,6.4809302 120.60679,8.9818302 117.35546,12.26745 C 111.4239,18.26156 111.05432,20.49096 116.79265,15.66247 z M 111.63134,46.1612 C 110.62481,45.57495 109.88134,43.95378 109.88134,42.34525 C 109.88134,35.82181 116.10564,29.09559 122.61681,28.58281 C 125.66933,28.34241 125.93242,28.52853 125.36805,30.52915 C 125.02483,31.74583 123.98741,34.23561 123.06268,36.062 C 121.44949,39.24809 121.46241,39.44315 123.38134,40.87409 C 126.09438,42.8972 130.20235,41.94713 134.92927,38.20334 C 138.47215,35.39733 142.45781,29.48444 141.47132,28.49795 C 141.24104,28.26767 140.14368,28.56572 139.03273,29.16028 C 136.27984,30.63358 132.61391,30.54358 133.12337,29.01521 C 133.34815,28.34086 135.82037,27.10336 138.61719,26.26521 C 141.41401,25.42706 144.68026,23.6163 145.87553,22.2413 C 147.36621,20.52647 147.87441,20.2932 147.49365,21.49854 C 147.00449,23.04703 147.42853,23.17743 151.06309,22.59625 C 155.86593,21.82824 155.72239,23.67803 150.8969,24.73788 C 147.10464,25.5708 143.32426,30.06681 142.43629,34.80008 C 141.48196,39.88712 142.84757,40.95974 147.47989,38.76156 C 152.03743,36.59886 162.88705,25.80452 162.86603,23.4538 C 162.85589,22.3197 162.59919,22.13671 162.10601,22.91202 C 161.163,24.39448 155.88134,25.77152 155.88134,24.53492 C 155.88134,23.45651 162.27184,20.2413 164.41527,20.2413 C 165.22161,20.2413 165.88134,19.63604 165.88134,18.89629 C 165.88134,17.20237 169.66854,13.69517 170.54801,14.57463 C 170.90793,14.93456 170.38543,16.1318 169.38689,17.23517 C 168.38835,18.33854 168.06455,19.2413 168.66734,19.2413 C 169.27012,19.2413 170.00489,18.85041 170.30016,18.37265 C 170.59543,17.8949 172.60925,17.22061 174.77531,16.87424 C 176.94138,16.52788 178.86385,15.80396 179.04748,15.26554 C 179.47364,14.01595 185.89001,12.69722 185.85554,13.8663 C 185.84135,14.34755 184.15385,15.45194 182.10554,16.3205 C 180.05723,17.18906 176.67857,18.65156 174.59741,19.5705 C 172.51625,20.48944 170.037,21.2413 169.08796,21.2413 C 165.06699,21.2413 159.61079,34.30207 163.13134,35.49995 C 165.07623,36.16171 170.82965,34.29902 175.02914,31.648 C 177.12599,30.32431 179.2684,29.2413 179.79004,29.2413 C 180.31168,29.2413 181.33618,28.6788 182.0667,27.9913 C 184.51336,25.68873 194.34552,19.55054 197.6634,18.25432 C 201.81563,16.63215 203.12354,17.81175 199.98968,20.35238 C 198.67426,21.41879 197.8339,22.5272 198.12221,22.81551 C 199.09256,23.78585 218.33433,24.49944 226.13134,23.85424 C 227.64384,23.72908 228.88134,23.98997 228.88134,24.43399 C 228.88134,24.87801 227.59849,25.2413 226.03056,25.2413 C 224.46264,25.2413 221.71531,25.75182 219.9254,26.37579 C 217.44293,27.24118 215.41116,27.20804 211.35956,26.23607 C 207.19866,25.23789 205.03363,25.21732 201.36484,26.14114 C 195.81452,27.53872 193.22362,26.33877 194.92549,23.1588 C 195.71223,21.68877 195.61964,21.40449 194.49473,21.83616 C 193.70664,22.13858 192.79563,23.36595 192.47027,24.56366 C 191.67424,27.49396 187.49339,30.35875 183.55715,30.67108 C 181.78805,30.81145 178.46922,32.10765 176.18197,33.55152 C 170.53341,37.1173 163.37889,38.89912 161.37789,37.23844 C 160.55479,36.55532 159.88134,34.85977 159.88134,33.47054 L 159.88134,30.94467 L 156.88963,34.07521 C 149.60328,41.69967 141.65091,44.20959 139.36901,39.60505 C 138.31465,37.4775 138.29718,37.48056 135.08006,40.35505 C 133.30341,41.94249 131.18189,43.2413 130.36556,43.2413 C 129.54924,43.2413 128.88134,43.6913 128.88134,44.2413 C 128.88134,45.89219 124.36603,45.36924 122.38555,43.48898 C 120.62017,41.81292 120.42004,41.85645 117.78751,44.48898 C 114.76525,47.51124 114.20875,47.6624 111.63134,46.1612 z M 117.32464,42.01879 C 118.18082,40.79641 118.88134,38.97407 118.88134,37.96913 C 118.88134,36.9642 119.6075,34.73775 120.49502,33.02146 L 122.10871,29.90094 L 118.74502,31.99789 C 114.86298,34.418 112.91707,37.5764 112.89608,41.4913 C 112.87795,44.87387 115.13644,45.14288 117.32464,42.01879 z M 189.60847,26.2413 C 191.00689,25.1413 191.70923,24.2413 191.16921,24.2413 C 190.62919,24.2413 189.14965,25.1413 187.88134,26.2413 C 186.61303,27.3413 185.9107,28.2413 186.3206,28.2413 C 186.73051,28.2413 188.21005,27.3413 189.60847,26.2413 z"
       id="path2425" />
    <path
       style="opacity:1;fill:#000000;fill-opacity:1;fill-rule:nonzero;stroke:#000000;stroke-width:0.27900001;stroke-linecap:butt;stroke-linejoin:miter;stroke-miterlimit:25;stroke-dasharray:none;stroke-opacity:0"
       id="path2433"
       d="M 97.468838,12.17496 C 97.590438,12.10586 97.718128,12.04978 97.847418,11.99659 C 98.089948,11.90001 98.337298,11.81693 98.584088,11.73222 C 98.877018,11.62411 99.174338,11.52882 99.466148,11.41769 C 99.748318,11.30484 100.01485,11.15975 100.27744,11.00783 C 100.31673,10.98582 100.3557,10.9632 100.39533,10.94178 C 100.48587,10.89284 100.48741,10.8967 100.55806,10.85463 C 100.56598,10.84992 100.53461,10.85854 100.53373,10.8677 C 100.51346,11.07896 100.41528,11.3069 100.49581,11.50325 C 100.5419,11.61562 100.72631,11.5799 100.84155,11.61822 C 100.55224,11.69705 100.27131,11.80389 99.989908,11.90675 C 99.661598,12.02063 99.344388,12.16582 99.040988,12.33491 C 98.813738,12.47241 98.569428,12.57679 98.317938,12.6603 C 98.142468,12.72494 97.960198,12.77341 97.786938,12.84387 C 97.767788,12.85157 97.748758,12.85953 97.729508,12.86696 C 97.414538,12.98847 98.028838,12.79157 97.879288,12.4755 C 97.783098,12.27219 97.490438,12.24939 97.296008,12.13633 C 97.532398,12.02986 97.765388,11.91776 97.994608,11.79631 C 98.291398,11.63528 98.572888,11.44826 98.871718,11.2908 C 99.029368,11.20773 99.190018,11.13046 99.348768,11.04951 C 99.705438,10.86317 100.06114,10.6749 100.4141,10.48162 C 100.50809,10.4295 100.60456,10.38169 100.69865,10.32979 C 100.98097,10.1741 100.41566,9.8122202 101.19277,11.01878 C 101.02539,11.13459 100.85655,11.24893 100.68245,11.35448 C 100.46822,11.48053 100.24304,11.58448 100.01458,11.68133 C 99.851518,11.74729 99.683788,11.79948 99.514968,11.84834 C 99.341828,11.89629 99.171678,11.95403 99.001698,12.01201 C 98.840678,12.06279 98.680678,12.11557 98.517868,12.16045 C 98.381468,12.20985 98.239908,12.24128 98.099978,12.27851 C 98.042148,12.30458 98.047038,12.3129 97.964958,12.36428 C 97.911318,12.40306 97.852608,12.43982 97.796988,12.47679 C 97.754558,12.50048 97.714738,12.52824 97.686098,12.56095 C 97.769288,12.58668 97.629098,12.59232 97.638158,12.6145 C 97.641018,12.62152 97.661168,12.57974 97.658048,12.59197 C 97.647258,12.63422 97.618158,12.66954 97.596698,12.70749 C 97.590458,12.71791 97.584228,12.72833 97.577988,12.73875 C 97.577148,12.74127 97.574348,12.74873 97.575478,12.74632 C 97.634028,12.62123 97.619558,12.56151 97.562818,12.43998 C 97.538408,12.41397 97.514008,12.38796 97.489608,12.36195 C 97.472208,12.351 97.452818,12.34272 97.437418,12.32911 C 97.434278,12.32633 97.445568,12.32664 97.449758,12.32672 C 97.470028,12.32707 97.490208,12.32947 97.510448,12.3304 C 97.609198,12.3349 97.644638,12.33475 97.749808,12.33673 C 98.220138,12.22255 98.676888,12.05847 99.134518,11.9024 C 99.650858,11.72051 100.17199,11.55238 100.68866,11.37159 C 100.98344,11.26733 100.70042,11.36682 100.96012,11.2771 C 100.98667,11.26793 101.01328,11.25888 101.03962,11.24912 C 101.05083,11.24497 101.08212,11.22797 101.07275,11.2354 C 101.063,11.24314 101.04986,11.24519 101.03841,11.25009 C 101.03534,11.49157 101.03228,11.73306 101.02921,11.97455 C 101.13099,11.99228 101.23402,12.0039 101.33454,12.02775 C 101.34574,12.03041 101.31275,12.03516 101.30201,12.03928 C 101.28143,12.04716 101.26111,12.05572 101.24059,12.06374 C 101.09014,12.1225 100.93931,12.17972 100.78772,12.23549 C 100.25056,12.4317 99.710048,12.61808 99.166308,12.7952 C 98.681968,12.94758 98.204938,13.11969 97.736918,13.31629 C 97.494498,13.44089 97.639548,13.40622 97.420048,12.57681 C 97.414658,12.55645 97.460078,12.56369 97.480018,12.55689 C 97.651628,12.49833 97.677698,12.48832 97.869918,12.42019 C 98.466438,12.21336 99.062438,12.00511 99.659568,11.80007 C 99.883368,11.74216 100.09505,11.63934 100.3192,11.58301 C 100.35133,11.57494 100.39478,11.53928 100.41676,11.56407 C 100.58432,11.75315 100.70705,11.97765 100.8522,12.18444 C 100.78869,12.24832 100.72884,12.31607 100.66167,12.37608 C 100.63767,12.39753 100.60739,12.41068 100.58002,12.42761 C 100.5373,12.45404 100.4942,12.47987 100.45139,12.50615 C 100.25671,12.62565 100.06342,12.7474 99.869378,12.86792 C 99.372988,13.1798 98.874348,13.48866 98.356738,13.76427 C 98.224458,13.83294 98.094678,13.90676 97.967518,13.98452 C 97.948638,13.99607 97.919778,14.04134 97.911838,14.02068 C 97.903828,13.99982 97.966248,14.00415 97.966468,13.9818 C 97.968508,13.77491 97.934368,13.56925 97.918308,13.36298 C 97.894238,13.3455 97.848548,13.34018 97.846078,13.31053 C 97.844118,13.28692 97.888858,13.28955 97.911658,13.28313 C 97.988898,13.26138 98.068208,13.24754 98.145568,13.2262 C 98.510858,13.12542 98.870138,13.00012 99.229818,12.88148 C 99.905098,12.65505 100.58314,12.43614 101.25439,12.19787 C 101.27839,12.1892 101.45106,12.12749 101.50036,12.10775 C 101.50332,12.10657 101.49063,12.10616 101.49092,12.10934 C 101.51471,12.37114 101.49122,12.64358 101.57179,12.8938 C 101.59384,12.96227 101.89981,12.85465 101.65763,12.93084 C 101.21508,13.06615 100.77883,13.2221 100.34127,13.37276 C 99.879658,13.53684 99.414978,13.69142 98.947998,13.8394 L 98.692218,13.03221 C 99.152548,12.88635 99.610588,12.73392 100.06561,12.57214 C 100.51035,12.41903 100.95383,12.26077 101.40359,12.1231 C 101.48723,12.0968 101.74233,12.00902 101.77339,12.07141 C 102.1626,12.85334 101.97253,12.83698 101.53743,12.99591 C 100.86014,13.23595 100.17638,13.4575 99.495018,13.68563 C 99.112738,13.81168 98.730688,13.94575 98.341618,14.04993 C 98.197458,14.08853 97.893148,14.1631 97.740488,14.15067 C 97.641858,14.14263 97.549778,14.09778 97.454418,14.07134 C 97.416858,13.85098 97.341868,13.6338 97.341718,13.41026 C 97.341688,13.35975 97.414358,13.33982 97.453928,13.30844 C 97.479678,13.28801 97.508998,13.27252 97.537028,13.25537 C 97.674948,13.17101 97.816018,13.0915 97.959278,13.0166 C 98.460528,12.75061 98.941898,12.44968 99.422638,12.14861 C 99.618588,12.02692 99.813748,11.90396 100.01036,11.78333 C 100.0496,11.75926 100.08911,11.73563 100.12828,11.71144 C 100.15304,11.69614 100.21169,11.63738 100.20214,11.66488 C 100.18333,11.71909 100.13212,11.75581 100.0971,11.80128 C 100.24568,12.00131 100.38915,12.20525 100.54284,12.40137 C 100.547,12.40668 100.56833,12.39257 100.56179,12.39426 C 100.34904,12.44937 100.14714,12.54465 99.934558,12.60092 C 99.340018,12.80507 98.746608,13.01242 98.152668,13.21834 C 98.069728,13.2477 97.796578,13.34602 97.700758,13.37435 C 97.645358,13.39073 97.566298,13.46293 97.532538,13.41605 C 97.040478,12.73298 96.997808,12.73637 97.409058,12.53559 C 97.898648,12.33003 98.397538,12.14962 98.904108,11.99007 C 99.437838,11.81629 99.968348,11.63329 100.49561,11.44073 C 100.64204,11.38697 100.78738,11.33102 100.93289,11.27488 C 100.93792,11.27294 101.09084,11.21229 101.105,11.21272 C 101.22632,11.21636 101.34649,11.2375 101.46723,11.2499 C 101.46732,11.49329 101.49233,11.73795 101.46748,11.98007 C 101.46444,12.00973 101.41514,12.00875 101.38806,12.02125 C 101.25313,12.08354 101.10445,12.11263 100.96798,12.17094 C 100.44916,12.352 99.926288,12.52155 99.407838,12.70382 C 99.114568,12.80383 98.821888,12.9052 98.526038,12.99741 C 98.387708,13.04052 98.138278,13.11864 97.994538,13.1472 C 97.908328,13.16433 97.820398,13.17127 97.733318,13.18331 C 97.506648,13.17876 97.229158,13.19851 97.027948,13.07177 C 96.975128,13.0385 96.933528,12.99008 96.886328,12.94924 C 96.859128,12.9027 96.824808,12.85965 96.804738,12.80962 C 96.731138,12.62624 96.769128,12.42809 96.873618,12.26688 C 96.867398,12.29196 96.871478,12.27299 96.889318,12.23696 C 96.929128,12.15655 96.972528,12.08769 97.031958,12.02049 C 97.038368,12.01324 97.045418,12.00659 97.052148,11.99963 C 97.135708,11.91023 97.226168,11.83089 97.332188,11.76902 C 97.398938,11.72652 97.464218,11.68218 97.529838,11.63789 C 97.639818,11.56544 97.751318,11.49195 97.882258,11.46024 C 98.019858,11.42363 98.158788,11.3926 98.292978,11.34411 C 98.439518,11.30376 98.583408,11.25604 98.728428,11.21058 C 98.911358,11.14822 99.094588,11.08648 99.280838,11.03461 C 99.417128,10.99569 99.552318,10.95398 99.684158,10.90171 C 99.876478,10.82022 100.06652,10.73403 100.2471,10.62822 C 100.40286,10.53641 100.55117,10.43184 100.70039,10.32991 C 100.86725,10.55746 101.04643,10.77648 101.20097,11.01258 C 101.20918,11.02512 101.17607,11.0293 101.16329,11.03713 C 101.05231,11.1052 100.93436,11.16115 100.82064,11.2244 C 100.46035,11.4215 100.09749,11.61387 99.733408,11.80384 C 99.582808,11.88063 99.430348,11.95376 99.280638,12.03226 C 98.977198,12.19137 98.692818,12.38342 98.390608,12.54475 C 98.153088,12.67026 97.911938,12.78694 97.667278,12.89734 C 97.457858,12.7916 97.150448,12.78656 97.039028,12.58011 C 96.866898,12.26114 97.298058,12.12689 97.478098,12.05545 C 97.667378,11.98277 97.861558,11.92299 98.052918,11.8561 C 98.254388,11.79039 98.449088,11.7055 98.630168,11.5945 C 98.972708,11.40512 99.329148,11.2399 99.699208,11.11147 C 100.01548,10.99587 100.33145,10.87573 100.65792,10.79162 C 100.79842,10.82433 101.01179,10.76233 101.07942,10.88975 C 101.38522,11.46598 101.015,11.5642 100.70135,11.74082 C 100.39944,11.91536 100.09187,12.08041 99.767138,12.20914 C 99.466488,12.32333 99.160558,12.42219 98.858748,12.53318 C 98.627618,12.61237 98.396058,12.69009 98.168758,12.77999 C 98.114778,12.80205 98.060108,12.82352 98.007228,12.84818 C 97.986088,12.85804 97.917108,12.89573 97.910018,12.89866 C 97.899438,12.90304 97.929028,12.88589 97.938528,12.8795 L 97.468838,12.17496 z" />
    <path
       style="opacity:1;fill:#000000;fill-opacity:1;fill-rule:nonzero;stroke:#000000;stroke-width:0.27900001;stroke-linecap:butt;stroke-linejoin:miter;stroke-miterlimit:25;stroke-dasharray:none;stroke-opacity:0"
       id="path2445"
       d="M 96.812188,13.82441 C 96.806658,13.826 96.790448,13.83175 96.795598,13.82917 C 96.892518,13.78059 96.991908,13.73685 97.093178,13.69808 C 97.343178,13.61106 97.593758,13.52593 97.845588,13.4442 C 98.145228,13.34624 98.446608,13.25398 98.746318,13.15625 C 99.048428,13.05284 99.350998,12.95063 99.650678,12.84034 C 99.888838,12.76441 100.12368,12.67853 100.36111,12.60042 C 100.44247,12.5682 100.53847,12.53241 100.60895,12.50143 C 100.62044,12.49543 100.63194,12.48943 100.64343,12.48343 L 101.03526,13.23406 C 101.02326,13.24032 101.01126,13.24659 100.99927,13.25285 C 100.87784,13.31174 100.75106,13.3571 100.62495,13.40501 C 100.39694,13.4795 100.17189,13.56298 99.943048,13.63501 C 99.633378,13.7489 99.320808,13.85469 99.008598,13.96135 C 98.708538,14.05902 98.406948,14.15166 98.106978,14.24959 C 97.865148,14.32807 97.624398,14.40943 97.384398,14.49317 C 97.278518,14.52726 97.185188,14.59112 97.079958,14.6277 L 96.812188,13.82441 z" />
  </g>
</svg>
