<?xml version="1.0" encoding="UTF-8" standalone="no"?>
<!-- Created with Inkscape (http://www.inkscape.org/) -->
<svg
   xmlns:dc="http://purl.org/dc/elements/1.1/"
   xmlns:cc="http://creativecommons.org/ns#"
   xmlns:rdf="http://www.w3.org/1999/02/22-rdf-syntax-ns#"
   xmlns:svg="http://www.w3.org/2000/svg"
   xmlns="http://www.w3.org/2000/svg"
   xmlns:sodipodi="http://sodipodi.sourceforge.net/DTD/sodipodi-0.dtd"
   xmlns:inkscape="http://www.inkscape.org/namespaces/inkscape"
   id="svg2"
   sodipodi:version="0.32"
   inkscape:version="0.46"
   width="195"
   height="82"
   version="1.0"
   sodipodi:docname="Morgansign.svg"
   inkscape:output_extension="org.inkscape.output.svg.inkscape">
  <metadata
     id="metadata7">
    <rdf:RDF>
      <cc:Work
         rdf:about="">
        <dc:format>image/svg+xml</dc:format>
        <dc:type
           rdf:resource="http://purl.org/dc/dcmitype/StillImage" />
      </cc:Work>
    </rdf:RDF>
  </metadata>
  <defs
     id="defs5">
    <inkscape:perspective
       sodipodi:type="inkscape:persp3d"
       inkscape:vp_x="0 : 526.18109 : 1"
       inkscape:vp_y="0 : 1000 : 0"
       inkscape:vp_z="744.09448 : 526.18109 : 1"
       inkscape:persp3d-origin="372.04724 : 350.78739 : 1"
       id="perspective9" />
  </defs>
  <sodipodi:namedview
     inkscape:window-height="658"
     inkscape:window-width="699"
     inkscape:pageshadow="2"
     inkscape:pageopacity="0.0"
     guidetolerance="10.0"
     gridtolerance="10.0"
     objecttolerance="10.0"
     borderopacity="1.0"
     bordercolor="#666666"
     pagecolor="#ffffff"
     id="base"
     showgrid="false"
     inkscape:zoom="0.98632331"
     inkscape:cx="91.76653"
     inkscape:cy="29.121817"
     inkscape:window-x="573"
     inkscape:window-y="0"
     inkscape:current-layer="svg2" />
  <path
     style="fill:#000000"
     d="M 91,41.5 C 93.555428,39.22845 97.161262,36.692155 97.996483,37.20835 C 98.831704,37.724545 98.530711,39.984217 95.902733,41.185767 C 92.177404,42.88904 87.042183,45.018151 91,41.5 z M 97.375,35 C 96.687582,35 90.946388,38.928612 87.9375,41.9375 C 85.78364,45.6682 82.059213,43.608688 81,40.34375 C 81,38.206724 79.319558,38.783951 77.25,41.625 C 75.409613,44.151445 75.243364,44.18695 72.34375,42.6875 L 69.34375,41.125 L 60.5,49.53125 C 55.941877,53.963998 51.485937,58.278652 47.625,63.3125 C 46.815516,64.136429 45.976248,64.940376 45.15625,65.75 C 45.062956,65.702277 44.981764,65.647496 44.875,65.625 C 47.9078,59.035557 52.534904,53.407189 56.75,47.5625 C 58.534701,44.96551 59.868511,42.881856 60.75,41.34375 C 61.631491,39.805644 63.146925,37 63.34375,37 C 63.540575,37 65.434495,34.209507 67.53125,30.8125 C 69.628003,27.415491 73.669802,21.413459 76.5,17.46875 C 81.733303,10.174614 84.697509,4.3850076 83.71875,3.40625 C 83.549856,3.2373557 83.310172,3.1658221 83,3.1875 C 80.828796,3.3392456 75.167368,8.1775199 65.46875,18.15625 C 58.869355,24.946247 51.933985,32.4125 50.0625,34.75 C 47.485206,37.969059 45.98227,39 43.8125,39 C 41.574926,39 39.154287,40.751248 32.8125,47 C 28.34699,51.4 24.500716,55 24.25,55 C 23.999284,55 27.735081,48.163347 28.081515,47.260552 C 28.614084,45.8727 28.494099,45.822264 27.175265,46.916802 C 22.682706,54.79782 18.255752,62.690854 12.5625,69.8125 C 10.62284,71.959471 9.2824251,73.969922 9.59375,74.28125 C 10.352778,75.040278 16.550891,68.874464 22.4375,61.5 C 25.071699,58.2 30.158873,52.4625 33.75,48.75 C 39.727079,42.570908 42,40.883716 42,42.65625 C 42,43.917098 32.56336,58.52618 27.28125,65.4375 C 24.371199,69.245125 22,72.732623 22,73.1875 C 22,74.905604 23.843051,73.898011 25.5625,71.25 C 26.544621,69.7375 29.028851,66.475 31.09375,64 C 33.158649,61.525 37.522686,55.45 40.78125,50.5 C 50.116415,36.319193 78.577089,5.2172879 80.46875,7.125 C 80.674156,7.3321492 76.808673,13.562037 71.90625,20.96875 C 67.813832,27.151686 65.233027,31.289983 63.9375,33.8125 C 56.962304,45.329606 47.658763,56.015382 42,68.125 C 42,69.330581 44.738444,69.232223 45.5,68 C 45.772648,67.251927 46.310842,66.738563 46.84375,66.15625 C 50.001486,62.863174 52.56898,59.371177 56.125,56.4375 C 58.98664,53.74271 59.195632,53.674036 58.5625,55.75 C 58.061684,57.392113 58.329119,58.202218 59.59375,58.6875 C 61.603089,59.458555 67.236719,53.577911 69.59375,48.25 C 70.384527,46.4625 71.458586,45 71.96875,45 C 73.751685,45 74.183834,47.13954 72.75,48.8125 C 70.404451,51.549223 69.909457,52.833383 70.9375,53.46875 C 71.469478,53.797531 73.503728,51.540572 75.46875,48.46875 L 79.0625,42.875 L 81.96875,45.1875 C 83.568092,46.456044 85.355808,45.917036 85.659716,46.626784 C 85.797783,46.949226 85.328923,48.29696 86.15612,49.301887 C 87.267887,50.652525 82.000008,53.973016 80.15625,55.78125 C 72.844227,62.952389 67.184248,73.914191 68.875,77.625 C 69.472096,78.935482 70.628501,80 71.4375,80 C 72.671983,80 79.978003,70.830095 83.5,64.875 C 86.686523,59.487137 95.5847,47.745119 97.09375,46.9375 C 99.514724,45.641834 100.03719,45.762052 99.40625,47.40625 C 99.111016,48.175618 99.322732,49.064932 99.875,49.40625 C 101.44728,50.377972 109.32913,48.29196 110.59375,46.5625 C 111.7859,44.932131 113.07763,44.466686 112.875,45.75 C 112.50466,48.095463 113.28441,48.080937 115.75,45.71875 C 118.21088,43.361078 119.93338,42.92368 131.5,41.53125 C 154.65811,38.743399 168.69513,33.24117 177.5,30.5 C 182.76267,28.861604 192.05366,17.931307 190.21507,16.390625 C 189.37607,15.687559 186.21743,20.813834 183.8125,23.21875 C 181.40759,25.623664 177.42941,28.567809 174.96875,29.75 C 169.20641,32.518442 140.96708,38.657246 130.125,39.5 C 125.51824,39.858084 121.01824,40.388667 120.125,40.6875 C 119.23176,40.986334 119.5599,40.456326 120.84375,39.5 C 122.40655,38.335885 122.82861,37.422365 122.15625,36.75 C 121.48388,36.077635 119.16433,37.305262 115.09375,40.4375 C 111.74975,43.010648 111.02773,44.630659 111.02773,44.03125 C 109.54743,41.210507 114.12653,39.76861 113.4375,35.90625 C 113.12475,35.400207 111.44119,36.072098 109.6875,37.375 C 104.5359,41.202395 97,45.256701 97,44.21875 C 97,43.691488 98.544437,42.301296 99.71875,40.53125 C 100.4682,39.401601 101.63627,37.009873 99.77085,35.64585 C 98.713725,34.872858 98.062418,35 97.375,35 z M 105.125,43.09375 C 105.30533,43.094521 105.46088,43.117136 105.5625,43.21875 C 105.77774,43.433994 105.24978,44.608182 104.40625,45.8125 C 102.64526,48.326663 101,48.672214 101,46.53125 C 101,45.304579 103.86268,43.088355 105.125,43.09375 z M 67.75,46.375 C 67.937958,46.387218 68,46.668454 68,47.25 C 68,48.754082 61.10114,57.07604 61.03125,55.65625 C 60.986516,54.747512 64.613516,49.35594 66.71875,47.1875 C 67.249831,46.640475 67.562042,46.362782 67.75,46.375 z M 89.774267,45.668433 C 91.663465,45.5417 93.795716,44.499018 93.979048,44.682351 C 94.169772,44.873076 92.642935,46.975215 90.665658,47.489206 C 88.841626,47.96336 89.872684,48 88.253467,48.253466 C 87.842361,46.036598 88.638131,45.948509 89.774267,45.668433 z M 92.699582,48.656301 C 87.97273,55.176191 82.74852,62.742985 78,69.34375 C 74.975,73.505379 71.906093,76.909566 71.1875,76.9375 C 70.084997,75.866708 71.892725,72.221258 72.450668,70.307404 C 75.141765,65.170553 78.014959,60.576578 82.21875,56.46875 C 86.153894,52.8255 91.736558,48.708849 92.699582,48.656301 z"
     id="path2384"
     sodipodi:nodetypes="cssscccscccccccssssscssssssccssssssssssscccccsssssscccssssssssssssssssssssssccssssscsssccsssccsscccccccc" />
</svg>
