<?xml version="1.0" encoding="UTF-8" standalone="no"?>
<!-- Created with Inkscape (http://www.inkscape.org/) -->
<svg
   xmlns:dc="http://purl.org/dc/elements/1.1/"
   xmlns:cc="http://creativecommons.org/ns#"
   xmlns:rdf="http://www.w3.org/1999/02/22-rdf-syntax-ns#"
   xmlns:svg="http://www.w3.org/2000/svg"
   xmlns="http://www.w3.org/2000/svg"
   xmlns:sodipodi="http://sodipodi.sourceforge.net/DTD/sodipodi-0.dtd"
   xmlns:inkscape="http://www.inkscape.org/namespaces/inkscape"
   id="svg2439"
   sodipodi:version="0.32"
   inkscape:version="0.46"
   width="400"
   height="254"
   version="1.0"
   sodipodi:docname="moshe sharett signature.svg"
   inkscape:output_extension="org.inkscape.output.svg.inkscape">
  <metadata
     id="metadata2444">
    <rdf:RDF>
      <cc:Work
         rdf:about="">
        <dc:format>image/svg+xml</dc:format>
        <dc:type
           rdf:resource="http://purl.org/dc/dcmitype/StillImage" />
      </cc:Work>
    </rdf:RDF>
  </metadata>
  <defs
     id="defs2442">
    <inkscape:perspective
       sodipodi:type="inkscape:persp3d"
       inkscape:vp_x="0 : 526.18109 : 1"
       inkscape:vp_y="0 : 1000 : 0"
       inkscape:vp_z="744.09448 : 526.18109 : 1"
       inkscape:persp3d-origin="372.04724 : 350.78739 : 1"
       id="perspective2446" />
  </defs>
  <sodipodi:namedview
     inkscape:window-height="751"
     inkscape:window-width="1280"
     inkscape:pageshadow="2"
     inkscape:pageopacity="0.0"
     guidetolerance="10.0"
     gridtolerance="10.0"
     objecttolerance="10.0"
     borderopacity="1.0"
     bordercolor="#666666"
     pagecolor="#ffffff"
     id="base"
     showgrid="false"
     inkscape:zoom="0.7075"
     inkscape:cx="745.02091"
     inkscape:cy="16.199816"
     inkscape:window-x="-4"
     inkscape:window-y="-4"
     inkscape:current-layer="svg2439" />
  <path
     style="fill:#000000"
     d="M 35.374145,237.3062 C 27.598265,233.12367 26.895185,227.52742 32.422165,213.80964 C 38.460295,198.82317 47.131745,185.40059 62.337465,167.50357 C 66.776735,162.27857 72.167375,155.65897 74.316665,152.79335 C 76.465945,149.92772 78.807995,147.3592 79.521215,147.08551 C 80.234445,146.81182 82.093405,144.53874 83.652255,142.03423 C 85.211105,139.52972 90.061235,134.41306 94.430335,130.66387 C 98.799425,126.91467 105.06819,121.25187 108.36091,118.07987 C 111.65362,114.90786 117.00328,110.21806 120.24903,107.65808 C 123.49479,105.0981 128.90075,100.73 132.26228,97.951189 C 139.32944,92.109119 148.85386,85.338729 156.22692,80.916029 C 171.8676,71.534039 182.14608,65.885869 192.64415,60.904241 C 199.09565,57.842825 205.50867,54.735669 206.8953,53.999451 C 211.4583,51.57677 231.19536,43.302868 240.87415,39.755297 C 255.99707,34.21229 275.6833,27.503571 276.82593,27.503571 C 279.21635,27.503571 277.63663,29.396828 274.70984,30.039659 C 272.96948,30.421908 268.58198,32.072569 264.95984,33.707795 C 261.33771,35.343021 254.99915,37.716429 250.87415,38.982036 C 233.95913,44.171797 200.58631,58.822705 179.37415,70.371049 C 156.97783,82.564089 132.78622,99.481619 112.37415,117.2251 C 100.06384,127.92601 80.146125,147.88809 75.150535,154.53163 C 72.887505,157.5412 68.535865,163.15357 65.480235,167.00357 C 52.695465,183.11197 50.635075,185.90516 48.623065,189.85614 C 47.461445,192.13723 45.284215,195.82435 43.784785,198.04974 C 39.450435,204.4826 33.777885,217.49998 32.615755,223.68047 C 31.298825,230.68428 32.966035,234.05498 38.236205,235.04367 C 47.915035,236.85943 60.236655,224.05537 75.324175,196.50357 C 82.577605,183.25786 93.132295,167.40463 97.032295,163.89781 C 101.73043,159.67333 105.62614,158.02994 108.51923,159.05211 C 113.65375,160.8662 123.7723,178.00542 121.21723,180.56049 C 120.55474,181.22298 118.77836,179.11647 115.9214,174.28046 C 107.93627,160.76398 104.23495,159.5632 97.343955,168.25357 C 92.297415,174.61787 80.574905,193.65351 79.402725,197.3875 C 76.000245,208.2261 57.176065,231.78395 48.374145,236.21876 C 45.155955,237.84024 37.549845,238.47648 35.374145,237.3062 z M 181.85794,175.83647 C 180.11462,174.36957 177.61918,171.47582 176.3125,169.40592 C 174.65956,166.78748 173.09053,165.54109 171.15544,165.3093 L 163.51549,164.71113 L 171.48346,163.28693 C 174.33244,161.73915 174.63971,161.07049 175.15344,155.30064 C 175.9692,146.13849 178.52212,138.85469 182.38458,134.66931 L 185.76749,131.00357 L 187.89629,133.10682 C 190.64016,135.81775 191.43882,141.98127 189.88534,148.45691 C 188.98216,152.22181 187.35876,155.00047 183.76512,158.93248 C 181.07509,161.87581 178.87583,165.12089 178.87789,166.14378 C 178.8847,169.53225 182.57173,174.27824 185.73751,174.97356 C 189.73041,175.85055 193.01298,174.00701 196.81273,168.75357 C 198.65783,166.20257 200.68372,164.50357 201.88042,164.50357 C 204.64092,164.50357 204.38975,165.65588 200.62415,170.26725 C 193.64213,178.81746 187.54946,180.62557 181.85794,175.83647 z M 182.68515,156.47607 C 187.82699,150.95695 188.26216,135.92693 183.18854,139.0899 C 179.26918,141.53328 175.90082,158.50357 179.33519,158.50357 C 180.13877,158.50357 181.64625,157.59119 182.68515,156.47607 z M 146.37415,173.50357 C 145.53711,172.14921 146.66658,170.50357 148.43317,170.50357 C 149.22571,170.50357 149.87415,171.40357 149.87415,172.50357 C 149.87415,174.57388 147.46164,175.26317 146.37415,173.50357 z M 158.4387,171.25357 C 157.22346,167.17756 156.74949,166.40052 155.14683,165.85671 C 144.00712,162.07687 138.88581,157.39259 138.87789,150.97608 C 138.87156,145.85472 141.29674,143.50357 146.58569,143.50357 C 150.65283,143.50357 151.62526,143.96761 155.00639,147.52192 C 157.49227,150.13513 159.38681,153.45926 160.42431,157.0281 C 161.55267,160.90955 162.74855,162.89784 164.50973,163.82061 L 173.89025,164.06522 L 164.46456,166.28042 C 163.07018,166.91574 161.64313,168.57586 161.29333,169.96956 C 160.62053,172.6502 159.06386,173.35039 158.4387,171.25357 z M 156.62554,157.04517 C 155.09746,152.06624 149.46572,146.2768 146.55822,146.69594 C 143.56438,147.12752 141.81129,151.02481 143.03367,154.53133 C 144.29201,158.14099 146.83544,160.37728 151.55795,162.02621 C 156.8565,163.87627 158.28971,162.46754 156.62554,157.04517 z M 218.87415,157.14592 C 218.87415,151.26013 219.86594,149.58382 221.89895,152.03345 C 223.41453,153.85961 222.06854,161.61262 220.12415,162.25638 C 219.22505,162.55406 218.87415,161.11943 218.87415,157.14592 z M 236.33199,160.25429 C 236.03322,159.47572 236.24698,156.8508 236.80702,154.42114 C 238.46932,147.20934 238.13883,142.05308 235.88346,140.01199 C 234.16193,138.45403 234.09276,138.06125 235.37186,137.10701 C 238.98172,134.41398 232.67846,121.8254 228.14983,122.68349 C 224.9097,123.29743 225.32598,128.80964 228.92174,132.90499 C 230.25323,134.42148 235.49956,138.22028 235.56946,138.77865 C 235.70749,139.88118 229.06316,136.31716 226.06399,133.38491 C 220.49173,127.937 222.17869,119.17024 228.79927,119.17024 C 233.50517,119.17024 238.42224,124.48977 240.19948,131.50357 L 241.59313,137.00357 L 246.6141,137.30168 C 254.3616,137.76168 254.85782,136.82209 257.86199,116.00357 C 259.62277,103.80161 259.71805,103.50357 261.85802,103.50357 C 264.88679,103.50357 266.26367,107.30505 266.12779,115.29213 C 265.98779,123.52151 264.68164,128.30782 261.09309,133.74141 C 257.62923,138.98619 258.229,147.17697 262.39535,151.5257 C 267.15753,156.49635 270.9077,155.27846 274.89276,147.46709 C 277.19262,142.95899 278.62775,141.85717 280.17909,143.40851 C 281.45391,144.68333 279.10712,149.83801 275.03526,154.70688 C 269.16268,161.72892 258.89932,155.68 255.17794,143.00357 C 254.33923,140.1466 254.04321,140.0059 248.96927,140.05254 C 242.53134,140.11171 240.90064,141.7903 240.81652,148.4447 C 240.78482,150.95208 240.4457,154.76661 240.06291,156.92144 C 239.3485,160.943 237.29887,162.77395 236.33199,160.25429 z M 261.87415,121.44455 C 261.87415,119.35826 260.403,118.83885 259.34455,120.55146 C 258.43746,122.01917 259.64593,124.76265 260.86709,124.00794 C 261.42097,123.66562 261.87415,122.51209 261.87415,121.44455 z M 291.43069,154.59505 C 291.12186,154.09536 291.9953,148.478 293.37167,142.11203 C 297.14786,124.64637 296.7446,122.30581 289.48363,119.54519 C 286.0486,118.2392 286.6254,117.30845 291.10687,116.92586 C 292.90388,116.77245 295.44614,116.50217 296.75635,116.32525 C 298.79612,116.04981 299.73047,117.0704 303.25635,123.42524 C 309.83358,135.27964 310.23372,134.64414 309.26993,113.87441 C 308.81382,104.04545 308.53078,94.276949 308.64095,92.166629 C 308.94375,86.366159 312.5074,75.389229 315.32959,71.563969 C 319.45203,65.976316 334.42667,57.494847 340.14439,57.509148 C 344.36041,57.519693 349.98556,59.631372 352.94714,62.315292 C 354.69122,63.895857 356.99999,67.887939 358.55024,72.003569 C 360.96301,78.409029 361.19491,80.320059 361.28056,94.503569 C 361.35673,107.11941 361.03357,110.98046 359.54378,115.25357 C 357.89187,119.99171 356.25138,121.54747 354.62355,119.91964 C 354.30239,119.59848 354.97053,116.78598 356.10831,113.66964 C 357.80919,109.01099 358.19264,105.51438 358.26496,94.003569 C 358.34166,81.795519 358.06504,79.236479 356.10379,74.010489 C 352.92183,65.531814 348.47832,61.364126 341.95184,60.737014 C 334.81273,60.051036 329.40112,62.389725 322.56939,69.113359 C 315.26623,76.300959 313.87762,80.639989 313.16369,98.503569 C 312.61568,112.21554 314.09377,136.29573 315.86186,142.46073 C 316.84682,145.89506 315.6383,149.09387 313.7879,147.95026 C 313.3151,147.65806 311.09249,143.6614 308.84877,139.06881 C 304.2544,129.66475 301.75942,126.69955 300.14809,128.72834 C 299.59103,129.42972 298.40327,134.41001 297.50861,139.79567 C 296.09886,148.28212 293.7537,155.50357 292.40749,155.50357 C 292.17907,155.50357 291.73951,155.09473 291.43069,154.59505 z M 348.56165,44.857738 C 348.18352,44.479613 347.87415,42.699533 347.87415,40.902004 C 347.87415,36.123288 346.43208,33.064171 341.82151,28.062294 C 336.51298,22.303211 333.70031,21.344416 320.12415,20.665982 C 318.33665,20.576656 316.87415,20.053571 316.87415,19.503571 C 316.87415,18.919598 320.22813,18.503571 324.93608,18.503571 C 338.72505,18.503571 347.64399,24.466579 350.8196,35.808728 C 351.49729,38.22922 351.89931,41.253014 351.71296,42.528269 C 351.36512,44.908736 349.78252,46.078604 348.56165,44.857738 z M 280.62415,26.84129 C 281.31165,26.563878 282.43665,26.563878 283.12415,26.84129 C 283.81165,27.118703 283.24915,27.345676 281.87415,27.345676 C 280.49915,27.345676 279.93665,27.118703 280.62415,26.84129 z M 288.87415,24.59018 C 289.69915,24.009389 291.36009,23.527306 292.56513,23.518884 C 293.77017,23.510462 295.03423,23.053571 295.37415,22.503571 C 295.71407,21.953571 297.65313,21.521185 299.68317,21.542713 L 303.37415,21.581855 L 300.1722,22.974234 C 296.0457,24.76866 286.72744,26.101438 288.87415,24.59018 z"
     id="path2517"
     sodipodi:nodetypes="csssssssssssssssssssssssssssssssssccscccscccsssssssccssccssccssssscccsccsssccssccsssssssscccssssssssssssccssccssssssssssssssssssssssssssccsssssssccssccsscccc" />
</svg>
