<?xml version="1.0" encoding="UTF-8" standalone="no"?>
<!-- Created with Inkscape (http://www.inkscape.org/) -->

<svg
   xmlns:dc="http://purl.org/dc/elements/1.1/"
   xmlns:cc="http://creativecommons.org/ns#"
   xmlns:rdf="http://www.w3.org/1999/02/22-rdf-syntax-ns#"
   xmlns:svg="http://www.w3.org/2000/svg"
   xmlns="http://www.w3.org/2000/svg"
   xmlns:sodipodi="http://sodipodi.sourceforge.net/DTD/sodipodi-0.dtd"
   xmlns:inkscape="http://www.inkscape.org/namespaces/inkscape"
   id="svg2"
   version="1.1"
   inkscape:version="0.91 r13725"
   width="360.02426"
   height="75.47123"
   viewBox="0 0 360.02426 75.47123"
   sodipodi:docname="Mother-Teresa-signature.svg">
  <metadata
     id="metadata8">
    <rdf:RDF>
      <cc:Work
         rdf:about="">
        <dc:format>image/svg+xml</dc:format>
        <dc:type
           rdf:resource="http://purl.org/dc/dcmitype/StillImage" />
        <dc:title></dc:title>
      </cc:Work>
    </rdf:RDF>
  </metadata>
  <defs
     id="defs6" />
  <sodipodi:namedview
     pagecolor="#ffffff"
     bordercolor="#666666"
     borderopacity="1"
     objecttolerance="10"
     gridtolerance="10"
     guidetolerance="10"
     inkscape:pageopacity="0"
     inkscape:pageshadow="2"
     inkscape:window-width="1312"
     inkscape:window-height="747"
     id="namedview4"
     showgrid="false"
     fit-margin-top="2"
     fit-margin-right="2"
     fit-margin-bottom="2"
     fit-margin-left="2"
     inkscape:zoom="2.2323693"
     inkscape:cx="159.73089"
     inkscape:cy="21.558726"
     inkscape:window-x="1200"
     inkscape:window-y="21"
     inkscape:window-maximized="1"
     inkscape:current-layer="svg2" />
  <path
     style="fill:#000000"
     d="m 332.30183,69.580148 c -0.0815,-2.23437 -0.0665,-4.7232 0.0331,-5.53074 0.0996,-0.80753 -0.39617,-1.8251 -1.10191,-2.26127 -0.70568,-0.43616 -1.28309,-0.19733 -1.28309,0.53074 0,0.72808 -0.5625,1.32377 -1.25,1.32377 -0.6875,0 -1.2795,-2.39062 -1.31556,-5.3125 -0.0641,-5.19368 -0.1095,-5.24959 -2.02747,-2.5 -5.05272,7.24338 -6.45931,2.93559 -2.52017,-7.71823 3.11117,-8.41448 6.66546,-11.29536 5.31115,-4.30488 -0.75009,3.8717 -0.66679,4.02447 1.03499,1.89794 2.65014,-3.31161 4.56258,-1.57955 3.26222,2.95453 -1.3156,4.58726 -0.54752,4.69422 3.36823,0.46904 4.30372,-4.64378 4.91961,-2.87534 1.81973,5.22513 -4.58778,11.98863 -3.4308,18.11562 2.52123,13.35147 8.20262,-6.56558 11.08545,-11.5625 6.67065,-11.5625 -1.03125,0 -1.875,-0.5625 -1.875,-1.25 0,-0.6875 0.71145,-1.25 1.58101,-1.25 0.86955,0 3.61419,-1.08971 6.09918,-2.42158 4.51815,-2.42159 4.51815,-2.42159 5.25906,2.1441 0.89154,5.49389 -2.73294,10.25785 -7.84464,10.3109 -1.97811,0.0205 -5.30944,1.94857 -8.63917,5 -6.67653,6.11849 -8.90538,6.33984 -9.10354,0.90408 z m 23.2731,-10.9375 c 0.4249,-0.6875 -0.10438,-1.25 -1.17623,-1.25 -1.07182,0 -1.94877,0.5625 -1.94877,1.25 0,0.6875 0.5293,1.25 1.17623,1.25 0.64692,0 1.52387,-0.5625 1.94877,-1.25 z M 2.3348666,68.571538 c -2.20708232,-1.36405 7.0813605,-9.83743 10.7400704,-9.79762 2.363219,0.0257 2.35312,0.0865 -0.184591,1.11037 -3.1374679,1.2659 -5.0168033,3.75836 -2.833826,3.75836 0.827268,0 9.786212,-4.29662 19.908762,-9.54804 17.266183,-8.95743 18.571235,-9.89096 21.097937,-15.09167 C 60.403902,19.776997 87.147786,-3.37105 92.528759,3.1126275 96.915468,8.3982895 81.807067,26.126158 62.85601,37.929978 c -5.37959,3.35073 -10.484197,6.95809 -11.343572,8.01636 -1.692437,2.08415 -2.10666,12.40568 -0.593338,14.78471 3.328505,5.23259 21.530838,-0.45556 21.530838,-6.7283 0,-6.02752 10.850749,-19.1101 15.849999,-19.1101 3.319686,0 0.177611,8.63953 -5.960765,16.38986 -5.131489,6.47903 -3.477255,9.18261 5.062258,8.27346 9.005668,-0.95879 12.548504,-2.82977 12.548504,-6.62691 0,-3.86893 4.404386,-10.53641 6.960116,-10.53641 2.51408,0 2.32458,7.43035 -0.28451,11.15534 -3.29854,4.70933 1.24159,7.12264 12.07439,6.41817 1.74949,-0.11378 4.91317,-2.09232 7.1875,-4.49501 4.69697,-4.96206 5.14717,-4.50363 1.45077,1.47727 -4.49297,7.26979 -14.04489,9.10452 -22.03529,4.23255 -3.98716,-2.43108 -4.06841,-2.43128 -9.374992,-0.0228 -6.749306,3.06331 -13.038713,3.12388 -17.85298,0.17193 -3.722485,-2.28251 -3.800444,-2.27373 -10.625,1.1961 -13.97011,7.10287 -21.330401,4.03468 -20.715934,-8.6356 0.328434,-6.77227 0.6965,-6.85449 -18.712177,4.18003 C 10.414386,68.081078 5.0738517,70.264298 2.3348666,68.571518 Z M 80.825842,49.580148 c 3.260049,-3.57923 5.787369,-8.44089 4.866623,-9.36163 -1.018922,-1.01893 -9.492527,8.25416 -9.492527,10.38814 0,2.57493 1.686496,2.20069 4.625904,-1.02651 z m 25.374088,-0.46004 c 0,-1.03125 -0.5625,-1.52735 -1.25,-1.10246 -0.6875,0.4249 -1.25,1.6163 -1.25,2.64755 0,1.03125 0.5625,1.52735 1.25,1.10245 0.6875,-0.42489 1.25,-1.61629 1.25,-2.64754 z M 63.570861,35.603458 C 82.212385,23.210602 97.316618,4.8926535 88.893733,4.8926535 c -6.76076,0 -24.883216,16.3946155 -32.127051,29.0639745 -5.136859,8.98429 -4.47419,9.14468 6.804179,1.64683 z m 76.998889,29.28083 c -1.4174,-2.29341 14.60374,-35.29624 18.842,-38.81369 3.59107,-2.980319 3.09045,-0.15108 -1.29823,7.33707 -5.01733,8.56076 -13.49259,27.73498 -12.25924,27.73498 0.44524,0 2.1114,-1.22305 3.70259,-2.71789 4.16852,-3.91612 3.55907,-1.87764 -0.98643,3.2994 -3.90082,4.44279 -6.55905,5.49274 -8.00069,3.16013 z m 151.19878,-5.55882 c -1.80384,-4.31719 -1.80384,-4.31719 -7.12372,-1.90246 -15.16563,6.8838 -30.50368,-1.36853 -19.59854,-10.5446 9.40933,-7.91744 22.19426,-4.42325 18.58171,5.07848 -0.69849,1.83717 -0.65999,2.93576 0.10289,2.93576 1.51158,0 5.71661,-4.11763 6.44908,-6.31506 0.84792,-2.54375 3.51998,-0.12791 3.51998,3.18246 0,4.98865 2.32704,9.71645 4.39238,8.9239 1.02168,-0.39206 1.85762,-0.22817 1.85762,0.3642 0,1.09853 -2.97869,2.5945 -5.16601,2.5945 -0.66637,0 -2.02328,-1.94273 -3.01539,-4.31718 z m -13.80468,-4.89651 c -0.36167,-0.94254 0.21848,-2.04988 1.28924,-2.46077 3.14859,-1.20823 2.37659,-5.67005 -1.13347,-6.55102 -6.5818,-1.65192 -16.57913,6.54615 -11.73018,9.61906 2.92856,1.85592 12.33034,1.36263 11.57441,-0.60727 z m -85.35541,5.62221 c -1.46217,-1.46218 -2.65851,-3.50227 -2.65851,-4.53352 0,-2.32003 0.028,-2.32096 -4.95326,0.16404 -15.59121,7.77793 -30.4563,-8.65566 -16.26077,-17.97654 7.45263,-4.89343 10.33988,-5.10031 12.26338,-0.87868 3.07216,6.74266 1.02441,10.96812 -6.5828,13.58336 -4.72126,1.62309 -4.78693,1.72341 -2.07738,3.17351 9.97694,5.3395 23.14909,-8.34235 17.74787,-18.43463 -1.6673,-3.11539 0.16887,-4.77476 2.36088,-2.13356 0.84215,1.01474 4.84339,3.05267 8.89164,4.52873 4.04824,1.47606 7.36044,3.07283 7.36044,3.54837 0,1.29315 -5.084,5.6302 -9.6891,8.26556 -7.72564,4.42114 -6.84664,9.28484 1.67802,9.28484 8.93525,0 14.26108,-2.80775 14.26108,-7.51839 0,-10.30145 16.87316,-20.0808 20.08256,-11.63945 2.89573,7.61632 -2.7206,14.01612 -11.49272,13.09598 -5.15672,-0.54091 -5.60509,2.11969 -0.70244,4.16815 7.43909,3.10825 13.82942,0.25835 26.24524,-11.70456 6.82078,-6.57199 8.73777,-7.83341 9.66836,-6.36201 1.4929,2.36051 1.56612,20.33472 0.0791,19.41569 -0.61595,-0.38068 -2.72532,0.14516 -4.6875,1.16853 -4.58672,2.39219 -10.30337,2.38953 -12.95042,-0.006 -1.85559,-1.67929 -2.5379,-1.6535 -6.33218,0.23933 -5.34001,2.66395 -11.11831,2.54673 -15.48453,-0.31413 -3.2159,-2.10714 -3.55364,-2.10874 -7.06669,-0.0335 -6.14436,3.62957 -16.49721,4.10198 -19.70026,0.89894 z m 59.9595,-3.32097 c 3.31775,-1.05301 1.73683,-3.09183 -2.37929,-3.0684 -4.13575,0.0235 -7.08643,1.75247 -5.99758,3.51427 0.78735,1.27395 3.39558,1.13513 8.37687,-0.44587 z m -50.11801,-14.44266 c 0,-0.73527 -5.67623,-2.69032 -7.42566,-2.55761 -0.30288,0.023 -1.17775,2.51147 -1.94418,5.52998 -1.39351,5.4882 -1.39351,5.4882 3.98816,1.69485 2.95993,-2.08635 5.38168,-4.1866 5.38168,-4.66722 z m 53.75,4.48011 c 0,-5.33561 -1.18829,-5.51327 -4.74045,-0.70873 -2.9637,4.00862 -3.25528,3.6319 3.80295,4.91351 0.51562,0.0936 0.9375,-1.79853 0.9375,-4.20478 z m -36.25,1.17623 c 0,-1.07182 -0.5625,-1.60112 -1.25,-1.17623 -0.6875,0.4249 -1.25,1.30185 -1.25,1.94878 0,0.64692 0.5625,1.17622 1.25,1.17622 0.6875,0 1.25,-0.87694 1.25,-1.94877 z m 10.08217,0.65479 c 2.56095,-1.37057 3.41863,-7.93995 1.21447,-9.30219 -1.33483,-0.82497 -7.57481,8.17041 -6.7001,9.65867 0.76065,1.2942 2.62807,1.17285 5.48563,-0.35648 z m -51.64467,-2.76206 c 1.90321,-1.52265 2.06334,-6.73688 0.24145,-7.86286 -2.35069,-1.45281 -7.34161,0.62358 -9.5312,3.96529 -3.6218,5.52759 3.51153,8.52042 9.28975,3.89757 z m -50.9375,-21.40147 c 0,-3.221182 16.83459,-8.127004 45.25382,-13.18756 21.9661,-3.9114585 23.24395,-3.5623175 15.09615,4.124661 -4.71895,4.452055 -7.47965,5.195528 -3.67291,0.989138 1.14311,-1.263131 1.79675,-2.578245 1.45251,-2.922476 -0.84257,-0.84258 -25.64082,3.153489 -35.00457,5.640751 -12.39704,3.292985 -13.125,3.558241 -13.125,4.782556 0,0.64789 0.5625,0.83034 1.25,0.40544 0.6875,-0.42489 1.25,-0.17684 1.25,0.55123 0,0.7552 -2.68446,1.32377 -6.25,1.32377 -4.44975,0 -6.25,-0.49183 -6.25,-1.70751 z"
     id="path3356"
     inkscape:connector-curvature="0" />
</svg>
