<?xml version="1.0" encoding="UTF-8" standalone="no"?>
<svg
   xmlns:dc="http://purl.org/dc/elements/1.1/"
   xmlns:cc="http://creativecommons.org/ns#"
   xmlns:rdf="http://www.w3.org/1999/02/22-rdf-syntax-ns#"
   xmlns:svg="http://www.w3.org/2000/svg"
   xmlns="http://www.w3.org/2000/svg"
   xmlns:sodipodi="http://sodipodi.sourceforge.net/DTD/sodipodi-0.dtd"
   xmlns:inkscape="http://www.inkscape.org/namespaces/inkscape"
   version="1.1"
   width="170.94926"
   height="162.60204"
   id="svg2"
   sodipodi:version="0.32"
   inkscape:version="0.48.0 r9654"
   sodipodi:docname="Muammar_al-Gaddafi_Signature.svg"
   inkscape:output_extension="org.inkscape.output.svg.inkscape">
  <metadata
     id="metadata25">
    <rdf:RDF>
      <cc:Work
         rdf:about="">
        <dc:format>image/svg+xml</dc:format>
        <dc:type
           rdf:resource="http://purl.org/dc/dcmitype/StillImage" />
      </cc:Work>
    </rdf:RDF>
  </metadata>
  <defs
     id="defs23">
    <inkscape:perspective
       sodipodi:type="inkscape:persp3d"
       inkscape:vp_x="0 : 113.5 : 1"
       inkscape:vp_y="0 : 1000 : 0"
       inkscape:vp_z="171 : 113.5 : 1"
       inkscape:persp3d-origin="85.5 : 75.666667 : 1"
       id="perspective27" />
  </defs>
  <sodipodi:namedview
     inkscape:window-height="854"
     inkscape:window-width="914"
     inkscape:pageshadow="2"
     inkscape:pageopacity="0.0"
     guidetolerance="10.0"
     gridtolerance="10.0"
     objecttolerance="10.0"
     borderopacity="1.0"
     bordercolor="#666666"
     pagecolor="#ffffff"
     id="base"
     showgrid="false"
     inkscape:zoom="2.0352423"
     inkscape:cx="85.499961"
     inkscape:cy="116.60773"
     inkscape:window-x="138"
     inkscape:window-y="88"
     inkscape:current-layer="svg2"
     fit-margin-top="0"
     fit-margin-left="0"
     fit-margin-right="0"
     fit-margin-bottom="0"
     inkscape:window-maximized="0" />
  <path
     d="m 166.56496,0.52234618 c -12.16,8.24400002 -23.857,18.20799982 -32.577,30.07599982 -2.294,3.124 2.916,6.111 5.182,3.028 8.074,-10.991 19.168,-20.293 30.423,-27.9239998 3.182,-2.157 0.184,-7.358 -3.028,-5.18000002 l 0,0 z"
     id="path16"
     inkscape:connector-curvature="0" />
  <path
     d="m 152.57896,15.612346 c -0.292,-4.577 -4.183,-6.8669998 -8.411,-7.1189998 -7.409,-0.442 -15.43,5.1569998 -21.304,9.0099998 -14.309,9.385 -30.821999,22.235 -37.427999,38.562 -1.387,3.426 3.624,4.773 5.483,2.312 3.744,-4.957 7.215,-10.131 10.497999,-15.402 4.377,-7.029 9.51,-15.257 10.212,-23.714 0.554,-6.665 -6.762,-6.098 -10.852,-4.26 -8.438999,3.792 -15.898999,9.944 -23.133999,15.605 -14.976,11.718 -29.815,24.079 -43.172,37.626 -15.357,15.579 -30.3170001,34.720004 -33.64800013,56.952004 -1.687,11.26 -1.664,27.554 8.82700003,34.853 3.8940001,2.71 9.7630001,3.254 14.2270001,1.719 3.637,-1.25 2.074,-7.047 -1.595,-5.785 -9.415,3.236 -14.6880001,-5.956 -15.7680001,-14.463 -3.088,-24.331 11.0480001,-45.822004 26.5850001,-63.081004 12.83,-14.251 27.799,-26.54 42.623,-38.642 7.943,-6.484 16.077,-13.065 25.045999,-18.095 1.373,-0.771 2.782,-1.446 4.281,-1.932 1.856,-0.602 0.738,0.313 0.576,-1.034 0.455,3.773 -2.478,8.667 -4.078,11.871 -4.355999,8.717 -9.938999,16.984 -15.807999,24.754 1.828,0.771 3.655,1.541 5.483,2.312 5.271,-13.027 18.622999,-23.427 29.613999,-31.466 4.913,-3.593 10.076,-6.96 15.566,-9.606 2.571,-1.239 5.829,-2.495 8.713,-2.009 1.188,0.201 1.495,1.528 1.464,1.033 0.245,3.841 6.247,3.864 6,-10e-4 l 0,0 z"
     id="path18"
     inkscape:connector-curvature="0" />
  <path
     d="m 31.418961,137.87635 c 3.452,-4.864 7.51,-9.353 11.764,-13.52 5.875,-5.754 16.216,-14.863 25.132,-10.653 3.478,1.642 6.525,-3.53 3.028,-5.182 -17.581,-8.301 -36.136,13.688 -45.104,26.327 -2.245,3.164 2.962,6.156 5.18,3.028 l 0,0 z"
     id="path20"
     inkscape:connector-curvature="0" />
</svg>
