<?xml version="1.0" encoding="UTF-8" standalone="no"?>
<svg
   xmlns:dc="http://purl.org/dc/elements/1.1/"
   xmlns:cc="http://creativecommons.org/ns#"
   xmlns:rdf="http://www.w3.org/1999/02/22-rdf-syntax-ns#"
   xmlns:svg="http://www.w3.org/2000/svg"
   xmlns="http://www.w3.org/2000/svg"
   version="1.1"
   id="svg2"
   viewBox="0 0 960.70108 559.5657"
   height="157.92188mm"
   width="271.1312mm">
  <defs
     id="defs4" />
  <metadata
     id="metadata7">
    <rdf:RDF>
      <cc:Work
         rdf:about="">
        <dc:format>image/svg+xml</dc:format>
        <dc:type
           rdf:resource="http://purl.org/dc/dcmitype/StillImage" />
        <dc:title></dc:title>
      </cc:Work>
    </rdf:RDF>
  </metadata>
  <g
     transform="translate(149.74436,-117.79984)"
     id="layer1">
    <path
       id="path4169"
       d="m -42.428579,675.99827 c -4.4,-0.7523 -10.7,-1.7761 -14,-2.2751 -12.12205,-1.8333 -30.92852,-13.07 -36.6958,-21.9254 -1.33296,-2.0467 -3.46524,-7.275 -4.73841,-11.6185 -4.373211,-14.9193 -1.76179,-32.1929 7.81142,-51.6696 5.88842,-11.98 11.84049,-21.964 17.62279,-29.5603 2.75,-3.6127 6.35,-8.473 8,-10.8006 1.65,-2.3276 6.0375,-7.1295 9.75,-10.6708 5.96765,-5.6926 6.75,-6.8696 6.75,-10.1555 0,-2.1657 -1.24233,-6.1224 -2.97696,-9.4814 -6.0661,-11.7464 -7.75296,-39.8025 -3.98415,-66.2646 2.86517,-20.1174 5.80715,-36.4646 7.44408,-41.3633 0.76026,-2.2752 2.3191,-8.4117 3.46408,-13.6367 1.14499,-5.225 3.17082,-14.225 4.50184,-20 2.6291,-11.4071 3.71407,-20.78123 2.4926,-21.53614 -1.19739,-0.74003 -4.76673,5.67703 -7.34611,13.20705 -1.28661,3.75599 -4.15249,11.55409 -6.36863,17.32909 -2.21613,5.775 -4.69216,12.525 -5.50227,15 -2.82425,8.6284 -7.64639,21.56 -11.17285,29.9623 -1.9534,4.6542 -3.55163,9.2079 -3.55163,10.1192 0,0.9113 -2.16163,5.8783 -4.80362,11.0377 -2.64198,5.1595 -6.94621,14.3308 -9.56495,20.3808 -2.61873,6.05 -12.04461,25.625 -20.946381,43.5 l -16.18505,32.5 -4.90293,2.3406 c -7.18324,3.4292 -12.59699,2.4227 -18.45004,-3.4304 -3.91632,-3.9163 -4.32831,-4.7566 -3.75319,-7.6547 1.24009,-6.2491 10.52044,-33.3642 16.17353,-47.2555 3.13353,-7.7 6.92559,-17.375 8.42679,-21.5 3.04544,-8.3682 10.61417,-26.3327 14.95675,-35.5 2.85242,-6.0215 8.04909,-21.461 8.04909,-23.9141 0,-0.721 1.32384,-2.9767 2.941871,-5.0127 1.61803,-2.0361 3.68275,-5.8104 4.58826,-8.3875 0.90551,-2.5771 4.31233,-10.3107 7.57071,-17.1857 3.25837,-6.875 5.91865,-12.92098 5.91174,-13.43553 -0.007,-0.51455 0.85078,-1.86455 1.906,-3 2.92792,-3.15053 18.66077,-37.07815 21.12905,-45.56445 10.49243,-36.07438 13.95237,-53.91487 13.95237,-71.94252 0,-14.43896 3.28979,-20.04265 11.77234,-20.05251 3.63499,-0.004 4.96473,0.62905 8.91354,4.24503 2.55266,2.3375 6.3676,6.90727 8.47766,10.15504 3.74924,5.77079 3.83646,6.11614 3.83646,15.19098 0,10.0692 -0.078,9.91903 6.4464704,12.41289 4.13650003,1.58111 9.6384,7.70327 14.8406396,16.5137 2.71056,4.59056 2.84102,4.67141 4.75,2.94381 1.07959,-0.97702 1.96289,-2.23235 1.96289,-2.78964 0,-1.20155 18.18251,-37.38974 21.39508,-42.58211 1.22324,-1.97707 3.70774,-6.51967 5.52111,-10.09467 5.31401,-10.47642 24.11008,-37.90374 30.11234,-43.94008 3.04069,-3.05796 6.73669,-7.35992 8.21333,-9.55992 13.8108,-20.57619 51.930659,-49.2553 77.218319,-58.09447 9.20696,-3.21825 22.03317,-4.13374 29.53982,-2.10845 14.44831,3.89814 21.30675,8.75421 31.86942,22.56491 15.34792,20.06743 21.0285,40.803 18.11872,66.13801 -1.32106,11.50228 -4.83356,29.77328 -6.23482,32.43174 -0.56002,1.06245 -1.5972,4.21245 -2.30485,7 -2.94125,11.58611 -12.62127,34.57175 -24.2439,57.56826 -6.81037,13.475 -13.19394,25.4 -14.18569,26.5 -0.99176,1.1 -3.98922,5.99957 -6.66104,10.88794 -9.48112,17.34672 -19.09624,33.04704 -25.78052,42.09654 -2.85004,3.8586 -5.83336,7.9764 -6.62961,9.1508 -2.16062,3.1869 -15.23973,20.1916 -19.62098,25.5101 -14.03116,17.0328 -16.32673,20.1789 -16.32673,22.3757 0,1.3146 1.79051,4.9462 3.97892,8.0702 7.99747,11.4168 9.56229,21.1381 6.90695,42.9087 -1.19844,9.8258 -1.53553,29.1837 -0.52577,30.1935 0.34729,0.3473 1.69446,0.1471 2.99369,-0.4449 3.70522,-1.6882 20.02596,-17.6855 26.38556,-25.8626 5.74568,-7.3878 18.54708,-24.2839 24.17315,-31.9054 1.6319,-2.2107 4.59202,-7.6107 6.57803,-12 10.39774,-22.9802 15.13929,-29.6996 25.83598,-36.6132 9.6922,-6.2644 15.76896,-8.1116 26.67349,-8.1083 9.11799,0 9.78148,0.1565 16.5,3.823 8.45609,4.6147 18.42604,14.6442 21.94475,22.0758 2.74739,5.8026 5.54669,16.6842 5.57056,21.6542 0.008,1.7533 0.44066,3.8607 0.96052,4.6831 0.81047,1.282 1.15524,1.2107 2.41875,-0.5 0.81045,-1.0974 1.98548,-4.0202 2.61117,-6.4952 1.96997,-7.7925 10.59945,-24.226 16.36985,-31.1739 9.64299,-11.6107 17.20286,-15.5326 27.76113,-14.4019 8.77773,0.94 15.44697,4.8649 21.81238,12.8367 7.19103,9.0058 8.438,13.3575 6.99064,24.3964 -0.68752,5.2437 -2.1914,11.0421 -3.69501,14.2466 -3.29741,7.0275 -17.63211,21.4798 -25.74474,25.9561 -18.58906,10.2566 -19.04917,10.6836 -20.03731,18.5923 -1.24781,9.9872 5.12834,23.2588 11.36404,23.6537 7.04885,0.4464 16.71308,-3.119 28.69256,-10.5855 8.63711,-5.3833 10.48071,-7.5967 10.48071,-12.583 0,-5.5357 3.36563,-17.4213 7.86153,-27.7627 10.16523,-23.3819 32.78336,-48.5746 48.21106,-53.6989 3.68116,-1.2227 7.58821,-1.5706 14.80557,-1.3184 9.27527,0.324 10.12361,0.5406 15.70956,4.0106 4.11669,2.5573 6.26689,3.3676 7.10047,2.6757 0.6576,-0.5457 3.0813,-6.6963 5.38599,-13.668 2.30469,-6.9717 4.79174,-13.8008 5.52678,-15.1758 0.73503,-1.375 2.51786,-5.425 3.96183,-9 8.09999,-20.054 20.69089,-39.857 33.91288,-53.33826 10.56502,-10.77219 17.53325,-14.58661 23.38653,-12.80183 6.54305,1.99511 9.74342,4.7446 13.72169,11.78852 3.71401,6.57604 3.86307,7.19344 3.70618,15.35159 -0.0899,4.675 -0.82054,11.00385 -1.62363,14.06412 -0.80309,3.06027 -1.24015,6.71502 -0.97126,8.12166 0.2689,1.4067 -0.26007,4.0059 -1.17549,5.7762 -0.91542,1.7702 -3.03072,7.5654 -4.70067,12.8783 -1.66994,5.3128 -5.01238,13.6006 -7.42764,18.4173 -2.41526,4.8167 -4.39138,9.2605 -4.39138,9.8751 0,1.8148 -9.99291,22.276 -11.41628,23.3757 -0.71785,0.5547 -2.50179,3.3698 -3.96432,6.256 -1.46252,2.8862 -4.48805,7.6074 -6.72339,10.4916 -2.23533,2.8842 -6.4847,8.46 -9.44304,12.3907 -2.95834,3.9306 -6.88883,8.4306 -8.73442,10 -7.81072,6.6416 -9.99868,13.8132 -5.17792,16.9719 3.48348,2.2825 13.77181,1.3566 24.09506,-2.1684 7.96674,-2.7203 23.32055,-10.4824 25.17319,-12.7262 0.55583,-0.6732 2.90272,-6.399 5.21529,-12.724 11.94771,-32.6775 27.02008,-54.3253 45.27692,-65.0292 4.67434,-2.7406 10.56805,-2.234 18.38051,1.5799 6.15572,3.005 10.27321,7.4359 14.27266,15.3587 2.92616,5.7967 7.04574,23.1612 7.04574,29.6987 0,4.5206 2.42062,4.4882 5.10911,-0.068 1.12291,-1.9032 4.14523,-5.0554 6.71627,-7.0049 2.57104,-1.9495 6.59536,-5.097 8.94293,-6.9943 2.34757,-1.8974 6.77499,-4.24 9.8387,-5.2057 l 5.5704,-1.7559 5.28836,2.7688 c 2.90859,1.5228 8.00882,5.3655 11.33384,8.5392 6.77966,6.4713 8.2879,10.54 6.32978,17.0756 -0.62117,2.0733 -1.12939,5.0997 -1.12939,6.7254 0,4.7331 -2.9762,12.413 -6.90278,17.8121 -1.99996,2.75 -4.9455,7.025 -6.54564,9.5 -4.01669,6.2128 -15.05469,19.4327 -18.9983,22.7537 -1.79366,1.5105 -4.05067,3.9793 -5.01557,5.4861 -1.61082,2.5157 -1.62024,2.7913 -0.11519,3.3689 0.90155,0.3459 3.08781,0.3408 4.85834,-0.011 3.88614,-0.7731 19.23111,-7.2586 22.71914,-9.6022 1.375,-0.9239 4.975,-3.2617 8,-5.1953 11.01927,-7.0434 21.71793,-16.9845 27.22787,-25.2998 7.75398,-11.7019 14.50558,-29.1285 16.62721,-42.9165 0.91293,-5.933 1.59657,-7.4617 4.80754,-10.75 6.29099,-6.4426 11.26631,-4.7655 20.7746,7.0027 12.22329,15.1286 19.46153,18.845 49.06278,25.1913 13.09082,2.8065 14.92118,3.728 15.30991,7.7075 0.48399,4.9546 -1.23356,6.8622 -8.87961,9.862 -7.82998,3.072 -4.99497,3.1249 -32.04509,-0.5978 -3.78924,-0.5215 -10.79358,-2.7028 -16.3976,-5.1066 -7.19131,-3.0846 -10.2073,-3.9375 -11.38521,-3.2198 -1.62311,0.989 -4.07718,5.344 -8.637,15.3272 -7.02178,15.3734 -24.75467,35.3975 -41.4654,46.8229 -18.19854,12.4426 -20.75466,13.965 -28.5,16.9745 -10.64891,4.1377 -18.97047,5.5932 -28.3159,4.9527 -8.52948,-0.5846 -13.77189,-2.384 -18.47463,-6.3411 -4.09572,-3.4463 -8.92046,-2.8542 -16.57022,2.0336 -30.73281,19.6366 -51.02433,20.6368 -65.21321,3.2145 -7.82065,-9.6029 -10.92287,-16.918 -10.94135,-25.8001 -0.008,-4.0463 -0.38411,-7.9383 -0.83486,-8.6488 -0.64078,-1.01 -2.96606,-0.5148 -10.65989,2.2702 -7.90117,2.8601 -11.82571,3.6754 -19.91514,4.1368 -9.62062,0.5489 -10.40335,0.4371 -17.36277,-2.4791 -4.00838,-1.6797 -8.57784,-3.9724 -10.15437,-5.095 -1.57652,-1.1226 -3.33216,-2.0411 -3.90142,-2.0411 -0.56927,0 -4.5498,3.4877 -8.84563,7.7504 -4.29584,4.2628 -10.51061,9.542 -13.81061,11.7318 -3.3,2.1897 -7.575,5.171 -9.5,6.6252 -3.96248,2.9932 -15.23378,7.7317 -20.37618,8.5662 -4.2367,0.6876 -15.69202,-2.8946 -20.62382,-6.4491 -1.925,-1.3874 -5.65551,-4.593 -8.29002,-7.1235 l -4.79003,-4.601 -4.20997,2.4142 c -12.33948,7.076 -21.6979,11.5606 -25.70998,12.3203 -10.28519,1.9475 -16.16344,2.0317 -22.35167,0.3199 -10.06879,-2.7851 -14.71787,-5.5971 -23.21237,-14.0396 -6.15494,-6.1174 -8.82341,-9.672 -11.27163,-15.0148 -1.76418,-3.85 -3.59584,-7.675 -4.07036,-8.5 -1.25175,-2.1763 -8.24736,-1.7567 -9.56955,0.5739 -0.56343,0.9932 -2.20653,2.9579 -3.65134,4.366 -1.4448,1.4081 -6.58047,6.8245 -11.4126,12.0366 -12.87734,13.8898 -17.62526,17.0074 -29.70049,19.5016 -10.94419,2.2606 -19.57733,2.1663 -24.34041,-0.2658 -8.84485,-4.5163 -19.55501,-19.1596 -21.8639,-29.8932 -1.58458,-7.3664 -4.59282,-6.0344 -16.21722,7.1809 -9.24754,10.5132 -14.88126,15.6057 -23.08692,20.869 -18.15923,11.648 -33.06391,9.8379 -43.57228,-5.2916 -3.165549,-4.5576 -3.178299,-4.627 -2.956429,-16.0774 0.13365,-6.8971 0.86064,-13.7014 1.81636,-17 2.005959,-6.9235 3.183769,-39.1359 1.581389,-43.25 -2.214199,-5.685 -6.461409,-3.0238 -26.620579,16.6795 -32.62511,31.8872 -41.76104,40.0922 -54.86138,49.2707 -10.2469396,7.1794 -11.0226596,7.9693 -13.7124496,13.9644 -1.99497,4.4464 -2.87704,8.0782 -2.93756,12.095 -0.21956,14.5733 1.04875,53.7082 2.02229,62.3993 1.93002,17.23 -1.87864,39.9623 -7.7163,46.0555 -4.75036,4.9583 -11.7771904,8.7811 -18.9243204,10.2953 -8.13591,1.7237 -10.32775,1.7145 -20.87028,-0.088 z m 10.61514,-19.2392 c 1.31167,-0.9996 3.81483,-2.3907 5.56257,-3.0914 7.27719,-2.9174 8.49569,-7.1097 6.73349,-23.1672 -0.74991,-6.8332 -1.84216,-18.949 -2.42723,-26.924 -0.58507,-7.975 -1.75042,-20.35 -2.58967,-27.5 -0.83925,-7.15 -1.65741,-14.6769 -1.81812,-16.7264 -0.29719,-3.79 -1.99161,-6.7736 -3.84684,-6.7736 -1.42123,0 -10.6579,9.9986 -17.55223,19 -18.3534,23.9628 -28.11236,44.3288 -28.16233,58.772 -0.009,2.5859 1.10895,6.7503 2.83236,10.5512 4.92337,10.8582 12.80788,15.3735 29.15286,16.695 4.675,0.378 8.77681,0.7535 9.11514,0.8345 0.33833,0.081 1.68833,-0.6705 3,-1.6701 z M 562.07142,540.04367 c 5.24543,-1.0222 18.25122,-7.7591 29.5,-15.2806 9.96742,-6.6648 10.00265,-6.7029 10.81303,-11.6866 0.44716,-2.75 1.45966,-7.5807 2.25,-10.7349 0.79033,-3.1542 1.43697,-7.4997 1.43697,-9.6568 0,-2.1736 1.29069,-6.7986 2.89544,-10.3752 3.56623,-7.9485 3.00044,-9.6177 -2.68286,-7.9149 -6.73294,2.0172 -16.73643,1.5142 -21.2421,-1.0682 -4.68809,-2.6869 -6.36501,-2.02 -9.67047,3.8459 -1.20999,2.1473 -4.35999,6.346 -7,9.3306 -2.64,2.9845 -5.70001,7.1349 -6.80001,9.2229 -1.1,2.0881 -3.50507,6.606 -5.34461,10.0397 -3.01006,5.6186 -3.45488,7.5349 -4.44702,19.1583 l -1.10241,12.9151 2.33639,1.8919 c 1.28502,1.0406 3.06118,1.6901 3.94703,1.4434 0.88584,-0.2466 3.18562,-0.7554 5.11062,-1.1306 z m -335.43018,-19.5152 c 4.93156,-3.393 5.78104,-6.4634 2.18018,-7.8801 -1.2375,-0.4868 -4.6463,-1.8542 -7.57511,-3.0386 -4.17352,-1.6878 -5.63325,-1.8978 -6.75,-0.9709 -1.87848,1.559 -1.82206,8.2689 0.10079,11.9873 2.05643,3.9767 6.17072,3.9433 12.04414,-0.098 z m 185.2677,-15.6396 c 7.188,-3.9785 24.97852,-15.8168 29.34932,-19.5299 3.87957,-3.2957 4.6919,-6.3222 5.38372,-20.058 0.7277,-14.4482 -0.10763,-16.4503 -7.26416,-17.4102 -4.74081,-0.6359 -7.57049,0.7561 -18.07023,8.8892 -3.44511,2.6686 -7.27011,5.3282 -8.5,5.9103 -2.8495,1.3486 -9.60007,9.6402 -10.41041,12.7869 -0.37677,1.4631 0.0804,3.6981 1.17057,5.7224 2.03245,3.774 1.71473,9.8654 -0.9074,17.3968 -0.8579,2.4641 -1.56637,5.7176 -1.57438,7.2301 -0.0203,3.8375 2.60688,3.6099 10.82297,-0.9376 z m -163.44322,-14.1807 c 6.30379,-1.3758 8.76587,-9.3996 8.70545,-28.3707 -0.0454,-14.2684 -1.58163,-23.9821 -4.16198,-26.3173 -1.77374,-1.6052 -2.24555,-1.6035 -8.16018,0.03 -3.45267,0.9533 -7.93557,1.9563 -9.962,2.2288 -4.69829,0.6319 -6.05193,2.2028 -9.30449,10.798 -8.63646,22.8225 -9.36457,26.8967 -5.9887,33.5107 3.15361,6.1786 18.27883,10.4329 28.8719,8.121 z M 8.9756614,476.82647 c 2.8365196,-2.0625 11.1059596,-8.2194 18.3765296,-13.682 24.59705,-18.4804 38.79066,-26.9132 50.71923,-30.1335 6.07243,-1.6393 7.07831,-2.3527 15.29153,-10.8446 14.992169,-15.5009 38.346899,-45.9826 60.012259,-78.32553 11.9863,-17.89365 18.56402,-28.36647 19.95041,-31.76435 0.67323,-1.65 4.67004,-9.975 8.88181,-18.5 9.3335,-18.89186 15.77748,-33.19641 19.14559,-42.5 1.39379,-3.85 3.40344,-9.025 4.46589,-11.5 2.3882,-5.56339 5.66103,-18.44304 7.87737,-31 3.08464,-17.47642 1.46846,-43.12386 -3.11293,-49.39968 -0.84329,-1.15518 -2.68345,-3.8264 -4.08925,-5.93604 -5.71425,-8.57523 -18.71975,-9.91176 -34.92268,-3.58888 -4.4,1.71702 -9.76485,3.7769 -11.92188,4.57752 -2.15704,0.80062 -5.17713,2.34948 -6.71133,3.44193 -1.53419,1.09244 -5.35152,2.86774 -8.48295,3.94511 -7.31173,2.5156 -10.49567,4.97934 -23.88384,18.48133 -22.419239,22.60985 -38.672529,42.67129 -45.314179,55.9313 -1.39048,2.77608 -4.19224,7.52241 -6.22613,10.54741 -8.56553,12.73946 -25.43059,46.89468 -32.58928,66 -4.9347,13.16987 -12.20109,34.80434 -15.28213,45.5 -1.7428,6.05 -3.65142,12.35 -4.24138,13.99998 -6.9557896,19.4537 -16.41934957,73.4873 -16.99665957,97.045 -0.31863,13.002 0.64333,13.8206 9.05399997,7.705 z M 329.15821,454.73217 c 4.3144,-4.3144 8.30986,-9.0687 8.87879,-10.5651 1.39194,-3.6611 1.30818,-8.9168 -0.16558,-10.3906 -3.63464,-3.6346 -10.06668,1.9993 -16.10823,14.1094 -8.32832,16.6938 -5.27723,19.5185 7.39502,6.8463 z m 162.69978,-22.1557 c 12.0733,-18.2446 25.45333,-49.9237 23.82541,-56.4098 -0.92626,-3.6905 -2.86515,-3.2172 -6.79988,1.6598 -7.97277,9.8822 -11.396,17.0614 -22.29174,46.75 -7.39296,20.1443 -5.08765,23.6463 5.26621,8 z"
       style="fill:#000000" />
  </g>
</svg>
