<?xml version="1.0" encoding="utf-8"?>
<!-- Generator: Adobe Illustrator 15.0.0, SVG Export Plug-In  -->
<!DOCTYPE svg PUBLIC "-//W3C//DTD SVG 1.1//EN" "http://www.w3.org/Graphics/SVG/1.1/DTD/svg11.dtd" [
	<!ENTITY ns_flows "http://ns.adobe.com/Flows/1.0/">
]>
<svg version="1.1"
	 xmlns="http://www.w3.org/2000/svg" xmlns:xlink="http://www.w3.org/1999/xlink" xmlns:a="http://ns.adobe.com/AdobeSVGViewerExtensions/3.0/"
	 x="0px" y="0px" width="142px" height="57px" viewBox="-0.251 -0.248 142 57" enable-background="new -0.251 -0.248 142 57"
	 xml:space="preserve">
<defs>
</defs>
<path d="M94.591,35.921c4.845,1.858,9.11-4.045,10.517-8.044c0.088-0.26,0.27-0.421,0.623-0.413
	c0.148-0.633-0.358-0.608-0.205-1.239c2.479-1.386,0.716-4.859,1.854-6.804c0.903-1.543,1.965-2.3,2.479-4.125
	c0.266-0.949-0.297-2.038,1.029-2.477c0.469-0.056,0.776,0.051,0.824,0.415c-0.021,1.398-0.943,2.611-0.619,3.712
	c2.672-0.493,0.979-4.146,2.268-5.981c-0.303-2.883,0.312-5.154-0.821-7.425c-1.21-0.219-1.222-2.943-2.681-1.65
	c0.223,0.049,0.492,0.338,0.203,0.413c-1.049,0.111-0.004-0.732-0.826-0.619c-3.625,0.827-5.564,1.821-7.836,4.538
	c-0.325-0.019-0.16-0.526-0.618-0.413c0,0.345,0,0.687,0,1.031c-1.978,0.633-2.095,3.131-4.125,3.71
	c0.169,1.786-2.222,2.001-1.441,3.715c-0.276,0-0.553,0-0.827,0c0.037,1.146-0.343,1.475,0,2.063
	c-2.339,1.483-1.445,5.148-2.888,6.806c-0.256,0.668,0.668,0.157,0.412,0.825C90.635,28.196,92.532,33.219,94.591,35.921z
	 M74.792,51.391c1.361-1.253,3.816-1.412,5.364-2.477c1.209,0.048,2.19-0.055,2.061-0.825c2.207,0.751,4.828-1.155,7.22-0.618
	c0.297-0.048,0.071-0.613,0.412-0.619c4.349-0.023,7.377-0.017,11.551,0.414c0.104,0.305,0.305,0.52,0.412,0.823
	c1.106-0.728,1.944,0.5,3.094,0.619c0.988,0.103,0.656,0.085,1.445,0.412c3.162,1.306,8.571,2.298,11.549,2.474
	c1.85,0.111,4.094,0.137,5.567-0.203c2.444-0.568,3.735-2.408,6.188-3.51c3.068-7.107,7.896-14.425,8.25-22.892
	c-2.281,2.362-3.094,5.857-5.569,8.248c-0.672,0.649-1.647,0.701-1.854,1.856c-3.715,0.862-3.651-2.832-3.51-6.805
	c-1.328,1.764-2.711,3.474-4.535,4.741c-1.492-0.084-2.513-0.646-3.299-1.44c0.006-1.471-0.438-3.44,0.205-5.159
	c-1.951,1.959-4.767,5.056-8.66,3.714c-0.822,0.275-1.369,0.83-1.651,1.649c-3.745,0.458-2.804-4.777-0.412-5.159
	c0.887-0.06,0.806,0.846,1.442,1.034c0.832-2.521,1.47-5.134,1.443-7.633c-0.759,1.377-1.414,2.848-3.094,3.302
	c-0.473,3.234-2.84,5.459-3.303,8.043c-1.104,1.576-2.787,2.57-3.504,4.538c-0.551,0.052-1.519-0.479-1.443,1.028
	c-1.721,0.207-3.6,0.254-5.568,0.207c-0.091-0.396-0.59-0.371-0.412-1.029c-2.393-0.939-3.951-3.688-4.125-6.6
	c-0.271-4.479,0.271-10.246,1.647-13.819c0.282-0.728,0.612-1.58,1.448-1.858c0.097-0.959,0.06-1.139,0.203-2.267
	c0.762-0.035,1.021-1.304,1.652-0.825c0.143-1.697,1.899-2.403,2.883-3.508c1.715-1.914,3.381-4.325,5.779-5.567
	c0.352-0.184,0.703-0.024,1.029-0.206c4.418-2.465,11.6-2.31,10.931,4.125c0.099,0.646-0.557,0.544-0.618,1.031
	c-0.143,0.555,0.43,0.396,0.618,0.617c-0.639,1.691-0.676,3.137-1.03,5.569c-0.263,1.796-1.383,3.455-1.649,5.362
	c-0.578,4.117-0.063,7.532-1.856,9.902c0.2,1.302,2.313,1.122,3.506,0.823c2.487-2.009,6.274-3.728,5.979-7.835
	c2.493-4.713,2.651-11.457,4.952-15.881c0.021-1.025-0.2-1.015,0-1.856c0.24,0.033,0.175,0.373,0.205,0.617
	c0.412-1.236,1.121-2.18,1.859-3.094c1-0.035,1.76,0.165,2.471,0.415c0.104,1.439-0.438,3.564-1.237,4.742
	c0.396,6.692-4.548,9.169-4.742,15.264c-0.245,0.235-0.729,0.231-1.235,0.207c-0.865,2.844-2.832,6.074-1.033,9.485
	c0.75,0.065,1.346-0.032,1.854-0.204c0.771-1.502,2.413-2.127,2.685-4.127c0.891,0,1.789,0,2.679,0
	c-0.19,2.711-0.334,4.042,0.621,6.395c3.378,0.236,4.342-4.785,6.188-7.629c0.604-0.928,3.034-4.185,3.918-1.856
	c1.18,3.108-1.633,5.702-1.238,8.662c-1.426,0.638-0.969,3.153-2.061,4.125c-0.749,4.685-3.447,7.415-4.951,11.344
	c-0.994,0.378-1.75,0.998-2.062,2.062c-2.83,2.119-6.949,2.859-10.726,3.508c-2.763-1.037-7.541-0.239-9.695-2.27
	c-0.596,0.92-2.84-0.834-3.504-1.031c-0.389-0.114-0.975,0.043-1.448,0c-1.955-0.176-3.468-1.03-5.565-1.236
	c-0.897-0.089-1.728-0.271-2.685-0.414c-0.21-0.031-0.146,0.46-0.41,0.414c-1.155-0.212-2.274-1.229-3.507-0.414
	c-0.107-0.425-0.973-0.048-0.412-0.617c-1.406,0.819-3.717,0.471-5.568,1.237c0.104-0.306,0.305-0.521,0.412-0.825
	c-0.126,0.059-0.794,0.514-0.826,0c-0.395,0.021,0.321,0.768-0.205,1.031c-0.703-0.579-1.771-0.255-2.475-0.412
	c0.049,0.363,0.354,0.469,0.824,0.412C81.487,49.934,77.544,51.115,74.792,51.391z M127.385,9.727
	c0.069-2.595,2.576-6.161,1.031-8.25c-0.902,1.949-1.85,3.24-1.855,6.394c-0.435-0.202-0.35-0.322-0.621,0.207
	c-0.979,1.916-2.094,7.792-2.474,10.519c0.857-2.856,2.636-4.787,2.888-8.25C126.739,10.179,127.188,10.078,127.385,9.727z
	 M111.295,17.975c-0.273,0-0.551,0-0.822,0c-0.045,1.194-0.816,1.658-1.031,2.683c1.172-0.204,1.521-1.233,2.063-2.063
	C111.497,18.332,111.241,18.311,111.295,17.975z M108.411,30.557c0.844-0.402,0.304-2.323-0.616-2.268
	C107.405,29.109,107.766,30.173,108.411,30.557z"/>
<path d="M74.17,51.391c0.896,0.299-0.214,0.459,0,1.234c-2.454,0.777-3.702,2.76-6.392,3.302
	C69.405,53.904,72.057,52.918,74.17,51.391z"/>
<path d="M62.83,19.627c0.095,1.104-0.897,0.823-1.031,2.061c-0.413,0-0.825,0-1.238,0C58.707,19.037,62.595,16.882,62.83,19.627z"/>
<path d="M60.561,22.306c0.631,0.15,0.606-0.357,1.238-0.206c-0.099,0.862-0.324,1.603-0.619,2.269c-0.413,0-0.823,0-1.238,0
	C59.996,23.529,60.33,22.97,60.561,22.306z"/>
<path d="M52.724,20.658c2.261-1.961,3.424-5.561,3.919-8.663C53.976,13.858,54.312,18.113,52.724,20.658z M33.542,34.271
	c1.235-1.035,2.496-2.043,3.712-3.097c0.479-4.772,1.982-8.345,2.475-12.167c0.064-0.281,0.516-0.173,0.825-0.207
	c-0.072-2.402,1.693-4.032,2.683-5.983c1.093,0.128,2.168-0.608,2.886-0.207c-0.027,2.962-0.992,5.695-2.063,9.281
	c-0.093,0.324-0.592,1.613-0.823,1.033c-0.012,1.496-2.396,3.333-2.271,4.95c-1.704,1.107-1.86,3.643-0.619,5.154
	c0.326,0.017,0.786-0.098,0.825,0.205c4.076-1.078,6.344-3.965,8.869-6.6c0.895-4.89,2.436-8.768,4.125-15.054
	c1.186-0.596,2.929-2.682,4.127-0.825c-1.021,5.261-3.663,10.543-6.394,14.231c-0.388,2.851-0.887,4.354,0.41,6.807
	c4.849,0.104,4.529-4.96,7.84-6.394c-0.499,2.077-2.188,7.592,2.269,6.806c1.421-0.254,2.694-2.483,3.71-2.888
	c0.116-2.153,0.122-4.417,2.063-4.747c-0.237-0.854,0.433-0.802,0.413-1.441c0.775-0.167,1.46-0.65,2.269-0.207
	c-0.132,2.224-1.586,3.577-2.887,5.566c-0.262,1.993,0.903,4.088,2.475,5.366c1.336,0.291,1.942-0.795,3.3-1.033
	c0.221-1.704,0.903-2.945,2.475-3.299c0.154,0.189,0.377,0.312,0.619,0.41c-0.252,1.262-0.852,2.174-1.236,3.301
	c-1.434,0.149-2.539,1.486-3.51,2.684c-0.687-0.059-1.482-0.818-1.854,0c-0.87,0.035,0.004-0.32,0-0.621
	c-2.26,0.316-4.358-1.984-3.918-4.331c-1.832,0.86-3.657,3.485-7.219,3.302c-0.862-0.445-1.063-1.551-1.65-2.269
	c-0.066-0.823-0.01-1.524,0.413-1.856c-2.199,1.01-3.45,4.297-6.806,2.887c-0.619-1.305-1.374-2.477-1.031-4.742
	c-1.306,1.331-2.947,2.925-4.331,4.947c-2.038,0.625-4.018,0.402-5.981,1.652c-0.866-0.646-1.912-1.113-2.063-2.478
	c-2.143,1.296-3.288,3.589-5.981,4.334c-1.372-0.483-2.865-0.849-3.506-2.065c-1.458,0.691-3.323,3.985-5.156,2.27
	c1.638-1.041,3.399-1.961,4.331-3.713c-0.379-4.383,1.176-8.199,4.744-9.278c3.073,0.928,0.833,5.819-0.825,7.632
	c-0.386,0.423-1.656,0.907-1.65,1.234C29.647,33.953,31.563,34.316,33.542,34.271z M29.417,31.796
	c1.475-1.478,4.243-4.521,2.063-6.6C29.629,26.099,28.704,30.266,29.417,31.796z M39.316,28.493
	c2.254-4.411,5.278-8.93,4.744-14.022C41.054,18.938,40.168,23.723,39.316,28.493z"/>
<path d="M6.937,29.938c-1.889,2.847-5.047,5.071-5.156,9.078c4.123-0.519,6.319-4.211,8.663-7.22c0.351-0.45,0.946-0.614,1.237-1.03
	c0.301-0.431,0.285-1.199,0.619-1.652c0.411-0.557,1.262-0.862,1.65-1.441c0.425-0.638,0.571-1.735,1.031-2.475
	c1.582-2.558,3.659-5.93,5.363-8.663c1.297-2.081,2.496-4.154,3.918-5.983c0.524-0.501-0.435-0.437-0.206-1.237
	c0.39-0.299,1.015-0.986,1.65-0.411c-0.46-1.551,1.549-4.562,3.3-4.537c0.511,1.324-0.749,2.091-1.238,3.091
	c-1.293,2.648-2.411,5.517-3.506,8.457c-0.688,1.848-2.153,3.675-2.887,5.571c-0.976,2.512-2.054,5.226-2.888,7.628
	c-0.417,1.203-0.188,2.529-1.237,3.097c-1.068,4.032-2.803,8.995-1.65,13.2c0.41,1.492,2.221,1.568,2.269,3.3
	c-2.077-0.562-4.02-1.608-4.331-3.715c-0.757-5.106,1.65-10.487,3.506-15.261c1.648-4.233,3.211-9.753,5.156-13.82
	c-6.975,9.104-10.537,21.848-21.656,25.781c-1.605-1.4,0.86-4.943,0.825-6.601c1.102-1.091,2.712-3.424,2.681-4.329
	c1.341-1.08,2.448-2.25,3.506-3.921c1.77-2.791,3.828-5.748,5.775-8.869c0.262-0.419,0.805-0.642,1.031-1.029
	c0.943-1.615,1.572-3.853,2.269-5.569c0.287-0.703,1.258-1.514,0.825-3.094c-0.887-0.806-2.378-1.134-4.125-0.619
	c-0.858,0.251-1.427,1.176-2.269,1.444C7.192,10.33,3.215,8.346,5.081,5.19c1.98-0.606,3.09,1.207,4.95,1.444
	c3.17,0.404,7.204-3.028,9.694,0.206c-0.077,4.146-3.294,7.959-4.332,11.136c-0.091,0.301-0.181-0.021-0.413,0
	c-1.008,1.436-1.619,2.776-2.681,4.331c-1.027,1.508-2.584,2.836-3.712,4.331C7.871,27.59,7.666,28.84,6.937,29.938z"/>
</svg>
