<?xml version="1.0" encoding="UTF-8"?>
<svg version="1.0" xmlns="http://www.w3.org/2000/svg" width="150" height="60" >
<path fill="#231F20" d="M4.717,44.667c0.495-7.568,0.949-15.14,1.361-22.713C6.343,17.087,6.6,12.218,6.723,7.346 c0.025-1,0.639-4.229-0.849-4.638C5.547,2.619,5.076,2.693,4.853,2.979c-0.868,1.11-0.772,3.165-0.94,4.491 c-0.52,4.1-0.903,8.218-1.271,12.333c-0.86,9.627-1.718,19.382-1.447,29.057c0.098,3.488,1.798,10.245,4.795,3.88 c2.533-5.379,2.428-12.234,2.78-18.037c0.365-5.997-0.266-15.33,4.306-19.96c0.952-0.964-0.533-2.45-1.485-1.485 c-4.555,4.614-4.377,12.956-4.769,18.955c-0.307,4.705-0.492,9.421-1.225,14.085c-0.258,1.642-0.671,3.244-1.203,4.816 c-0.269,0.796-0.669,1.568-1.131,2.271c-0.3,0.456,0.838,0.582,0.576,0.106c-1.659-2.995-0.593-9.023-0.494-12.255 c0.195-6.311,0.656-12.614,1.178-18.905c0.425-5.12,0.903-10.24,1.549-15.337C6.156,6.341,6.25,5.69,6.355,5.041 c0.037-0.225,0.08-0.447,0.126-0.669C6.744,3.118,5.94,7.243,4.626,4.054C5.111,5.23,4.606,8.092,4.56,9.512 C4.175,21.238,3.381,32.959,2.617,44.667C2.529,46.019,4.629,46.011,4.717,44.667L4.717,44.667 M5.76,47.53c1.547,2.707,1.034,6.838,3.5,8.967c2.074,1.789,4.261-0.41,5.429-2.051 c3.145-4.415,3.651-11.087,4.428-16.268c0.725-4.833,0.732-13.695,5.079-16.938c-0.514-0.396-1.028-0.791-1.542-1.186 c-2.038,5.756-3.141,11.88-3.608,17.954c-0.335,4.364-0.852,14.824,3.868,17.596c7.124,4.182,10.253-31.515,10.469-34.271 c0.107-1.358-1.971-1.33-2.1,0c-0.455,4.69-0.751,9.398-0.947,14.106c-0.226,5.438-1.258,13.141,1.215,18.249 c2.291,4.732,6.455-0.741,7.858-3.165c5.248-9.064,6.741-20.923,5.973-31.19c-0.1-1.335-2.088-1.369-2.1,0 c-0.062,7.518,0.026,15.044,0.352,22.555c0.055,1.268,0.118,16.633,4.107,13.521c1.067-0.832-0.431-2.307-1.485-1.485 c0.938-0.731,0.575-0.667,0.289-2.277c-0.266-1.497-0.376-3.025-0.5-4.539c-0.322-3.938-0.434-7.895-0.533-11.843 c-0.133-5.309-0.173-10.623-0.129-15.933c-0.7,0-1.4,0-2.1,0c0.665,8.899-0.659,17.745-3.807,26.089 c-1.003,2.661-2.5,6.273-4.984,7.909c-1.504,0.991-2.004-5.784-2.034-6.189c-0.635-8.535,0.101-17.305,0.924-25.809 c-0.7,0-1.4,0-2.1,0c-0.613,7.809-1.515,15.602-3.333,23.231c-0.371,1.556-2.983,11.746-5.025,7.88 c-4.68-8.861-1.418-22.874,1.754-31.833c0.292-0.828-0.808-1.734-1.542-1.186c-5.425,4.048-5.347,13.543-6.25,19.57 c-0.737,4.915-1.567,9.996-4.01,14.39c-2.742,4.933-3.103-1.141-3.345-2.036c-0.466-1.725-1.07-3.328-1.958-4.88 C6.902,45.295,5.087,46.353,5.76,47.53L5.76,47.53 M58,42.05c5.656-0.177,5.618-6.88,0.965-8.863c-5.813-2.479-10.548,7.973-10.989,12.26 c-0.362,3.524,1.069,9.377,5.222,10.071c6.817,1.141,9.287-12.997,10.148-16.905c0.291-1.319-1.73-1.88-2.025-0.559 c-1.018,4.564-3.999,14.962,0.544,18.329c2.586,1.917,5.526-2.192,6.499-3.964c2.359-4.299,3.245-9.892,3.353-14.752 c0.03-1.362-2.021-1.341-2.1,0c-0.241,4.097-1.235,13.055,2.3,16.106c5.399,4.661,8.348-7.597,8.799-10.64 c0.262-1.769,0.823-5.039-0.677-6.475c-1.459-1.396-2.529,1.272-2.804,2.231c-1.174,4.09,0.028,15.889,6.616,14.6 c5.125-1.003,10.633-7.991,11.099-13.105c0.123-1.348-0.353-3.31-2.104-3.296c-2.554,0.02-3.282,2.962-3.709,4.999 c-0.596,2.838-0.528,16.234,5.601,13.377c7.441-3.469,8.915-15.795,7.608-22.743c-0.173-0.92-1.387-6.278-3.616-4.776 c-2.281,1.536-2.123,5.947-2.195,8.326c-0.122,4.052,1.215,7.601,2.956,11.208c2.035,4.218,5.79,3.289,9.039,1.095 c1.115-0.753,0.065-2.573-1.061-1.813c-4.827,3.259-6.235-0.23-7.708-4.023c-0.835-2.153-1.121-4.152-1.126-6.466 c-0.005-2.08,0.105-4.506,1.041-6.403c-0.392,0.795,0.457,2.661,0.645,3.412c0.65,2.595,0.509,5.332,0.144,7.95 c-0.514,3.684-6.799,18.326-9.212,8.451c-0.691-2.831-0.437-6.059,0.349-8.83c0.355-1.254,1.492-1.767,1.163-0.133 c-0.242,1.2-0.87,2.314-1.449,3.377c-2.056,3.777-7.555,10.659-11.066,4.765c-1.598-2.682-1.603-6.451-0.989-9.412 c0.162-0.783-0.655-2.121-0.441-0.199c0.158,1.425-0.074,2.967-0.281,4.365c-0.391,2.637-1.206,5.262-2.589,7.543 c-2.598,4.283-3.855-2.412-4.061-4.058c-0.387-3.104-0.354-6.314-0.171-9.433c-0.7,0-1.399,0-2.1,0 c-0.073,3.325-0.704,6.591-1.586,9.789c-0.461,1.672-1.13,3.265-1.964,4.784c-1.499,2.731-3.845,2.364-4.147-0.645 c-0.429-4.26,0.5-8.832,1.426-12.981c-0.675-0.186-1.35-0.373-2.025-0.559c-1.057,4.802-2.146,10.426-5.491,14.24 c-2.235,2.549-4.3,0.158-5.16-2.127c-0.95-2.523-0.84-5.514,0.237-7.971c1.143-2.608,2.815-5.241,5.251-6.794 c3.311-2.112,5.862,4.421,1.842,4.548C56.649,39.992,56.645,42.093,58,42.05L58,42.05 M112.197,44.907c1.719-0.751,4.275-2.625,3.815-4.853c-0.402-1.948-2.348-1.548-3.623-0.696 c-4.125,2.756-4.165,12.004,0.841,13.945c5.949,2.306,10.516-6.171,12.149-10.441c2.101-5.493,3.312-11.321,3.843-17.172 c0.137-1.506,0.59-5.62-1.485-6.326c-5.87-1.998-14.745,31.816,0.255,32.917c6.541,0.48,11.382-10.29,12.342-15.453 c0.205-1.107,0.273-3.604-1.427-3.604c-2.005,0-2.481,4.59-2.728,5.792c-0.458,2.238-1.297,17.993,4.722,12.293 c2.306-2.185,3.936-17.67,0.827-15.85c-2.497,1.463-1.779,9.41-1.492,11.681c0.761,6.025,4.946,2.678,7.004-0.608 c0.722-1.151-1.096-2.204-1.813-1.06c-0.514,0.82-2.354,4.38-2.957,2.275c-0.405-1.41-0.322-3.007-0.286-4.457 c0.038-1.54,0.195-3.083,0.447-4.602c0.081-0.484,0.19-0.962,0.323-1.434c-0.134,0.473-1.498-1.193-1.362,0.817 c0.253,3.769-0.007,8.052-1.916,11.4c-1.306,2.291-2.091-3.817-2.088-3.724c-0.063-2.063,0.259-4.152,0.616-6.174 c0.208-1.175,0.515-2.328,0.869-3.465c0.65-1.031,0.404-1.158-0.739-0.384c-0.048,0.834-0.201,1.647-0.462,2.438 c-1.056,3.897-3.674,7.784-6.489,10.61c-2.175,2.184-4.511,1.514-6.538-0.43c-2.866-2.748-3.115-7.323-2.942-11.009 c0.212-4.544,1.848-9.372,3.707-13.497c2.147-4.764,1.601,0.877,1.399,3.089c-0.697,7.681-2.773,19.111-9.633,23.868 c-2.377,1.649-4.47,0.374-5.364-2.072c-0.902-2.467-0.567-5.215,1.116-7.229c1.825-2.183-0.966,1.152-1.992,1.601 C109.898,43.635,110.969,45.443,112.197,44.907L112.197,44.907z"/>
</svg>