<?xml version="1.0" encoding="UTF-8"?>
<svg version="1.0" xmlns="http://www.w3.org/2000/svg" width="262" height="47" >
<path fill="#231F20" d="M24.99,20.833c-3.871-5.687-4.2-13.058-1.127-19.141c0.984-1.948-0.753,0.111-0.833-0.405 c0.13,0.84-0.373,1.972-0.613,2.748c-0.999,3.229-2.576,6.295-4.133,9.281c-4.366,8.37-9.755,16.279-14.449,24.481 c-0.584,1.021-1.175,2.037-1.779,3.046c-0.273,0.46-0.563,0.91-0.87,1.349c-0.572,0.837,0.981,0.636,0.909,0.071 c-0.26-2.041,0.875-4.67,1.553-6.529c2.514-6.89,6.687-13.395,11.548-18.849c3.034-3.403,8.191-8.104,13.005-5.221 c2.575,1.543,2.698,5.497,2.724,8.098c0.072,7.366-2.615,14.496-2.828,21.848c-0.098,3.403,0.487,5.698,4.086,4.138 c1.249-0.541,0.081-0.947-0.712-0.604c-2.62,1.135-0.765-10.194-0.496-11.812c0.72-4.321,1.578-8.604,1.85-12.984 c0.409-6.605-2.473-11.743-9.585-10.209c-7.301,1.574-12.764,9.885-16.388,15.691c-2.179,3.492-4.031,7.21-5.442,11.076 c-0.333,0.912-2.123,5.453-1.092,6.329c2.261,1.922,6.162-7.004,6.552-7.688C12.702,25.344,20.007,15.587,24.08,4.486 c0.562-1.531,1.096-6.776-1.625-3.343c-4.454,5.617-3.032,14.872,0.728,20.393C23.482,21.978,25.354,21.368,24.99,20.833 L24.99,20.833 M40.955,28.276c0.438-1.16,1.255-3.944-0.478-4.507c-2.975-0.965-6.213,1.962-7.758,4.163 c-1.365,1.945-1.954,5.251,0.827,6.079c1.108,0.331,2.595,0.189,3.171,1.429c0.948,2.039-2.237,5.602-3.288,7.025 c-0.451,0.611,0.751,0.675,1.052,0.586c3.028-0.892,5.726-3.509,7.603-5.911c0.4-0.514,4.547-6.394,4.964-4.806 c0.718,2.734-1.729,7.079-2.74,9.33c-0.408,0.912,1.526,0.73,1.814,0.098c0.972-2.144,1.998-4.313,3.335-6.256 c0.637-0.575,0.422-0.665-0.646-0.268c0.06,0.631,0.048,1.261-0.033,1.892c-0.052,0.862-0.193,1.716-0.29,2.574 c-0.104,0.934,0.68,1.14,1.406,1.438c0.633,0.26,2.381-0.639,1.521-0.99c-1.879-0.771-0.468-3.679-0.673-5.431 c-0.109-0.93-1.332-0.744-1.902-0.469c-2.269,1.098-3.558,5.265-4.532,7.412c0.604,0.033,1.21,0.064,1.814,0.098 c0.741-1.653,5.907-12.368,0.398-11.13c-1.821,0.409-3.221,2.354-4.271,3.73c-2.053,2.691-4.537,6.575-8.057,7.612 c0.351,0.195,0.701,0.391,1.052,0.586c1.828-2.478,6.045-7.825,1.121-9.342c-0.949-0.292-2.158-0.121-2.709-1.212 c-0.829-1.639,0.771-3.961,1.75-5.115c1.308-1.541,4.484-3.314,4.084-0.146c-0.075,0.591-0.265,1.188-0.475,1.743 C38.746,29.203,40.694,28.967,40.955,28.276L40.955,28.276 M58.059,35.718c-0.679,1.3-4.264,8.122-0.682,8.097c2.35-0.017,4.179-2.938,5.436-4.52 c5.579-7.022,10.367-14.77,15.092-22.383c-0.617,0.048-1.235,0.095-1.854,0.143c-2.036,3.786-4.004,7.611-5.91,11.464 c-0.894,1.806-5.81,9.445-4.489,11.526c1.923,3.032,13.072-14.749,14.136-16.468c-0.594,0.005-1.189,0.009-1.783,0.014 c-1.473,2.58-2.852,5.215-4.168,7.878c-1.463,2.959-3.925,7.03-3.536,10.475c0.524,4.652,12.366-5.755,13.125-6.508 c-0.553-0.037-1.104-0.075-1.657-0.113c-2.61,3.271-5.111,8.313,1.261,5.937c1.273-0.475,0.096-1-0.736-0.689 c-3.768,1.405,0.34-4.108,1.261-5.261c0.516-0.647-1.347-0.422-1.657-0.113c-1.602,1.59-3.305,3.073-5.075,4.474 c-0.829,0.656-4.728,3.793-4.621,0.975c0.044-1.145,0.529-2.321,0.902-3.386c1.665-4.754,4.195-9.315,6.686-13.681 c0.427-0.747-1.49-0.461-1.783,0.014c-1.791,2.893-3.654,5.741-5.57,8.553c-1.385,2.03-2.823,4.028-4.404,5.91 c-1.764,2.1-0.43,0.318,0.169-1.302c2.55-6.904,6.297-13.496,9.776-19.969c0.264-0.49-1.577-0.303-1.854,0.143 c-3.136,5.051-6.379,10.038-9.727,14.95c-2.125,3.117-4.301,6.223-6.734,9.107c-1.962,2.325-2.175,1.223-1.469-1.333 c0.401-1.453,1.095-2.87,1.791-4.204C60.233,34.969,58.356,35.148,58.059,35.718L58.059,35.718 M70.794,18.402c-0.671-1.036-1.198-2.179-1.603-3.342c-0.244-0.702-2.163-0.147-1.932,0.518 c0.436,1.253,1.021,2.476,1.743,3.59C69.368,19.73,71.242,19.092,70.794,18.402L70.794,18.402 M126.887,14.93c-0.601,1.947-2.043,5.115-1.438,7.161c0.085,0.285,0.608,0.221,0.813,0.193 c2.845-0.381,1.58-6.253,0.747-7.777c-2.633-4.822-10.545,1.418-12.747,3.389c-4.978,4.454-10.764,12.066-10.954,19.06 c-0.146,5.337,7.156,2.58,9.656,1.414c7.063-3.294,13.39-8.887,18.982-14.204c3.997-3.799,10.581-9.069,11.908-14.765 c0.907-3.89-4.68-0.52-5.534,0.304c-7.938,7.646-13.501,18.226-18.546,27.888c-0.24,0.46,1.586,0.256,1.848-0.166 c0.454-0.731,3.789-4.669,3.563-5.126c1.058,2.149-0.587,4.206,1.689,6.156c4.607,3.947,13.427-3.168,16.583-5.709 c-0.573,0.015-1.146,0.03-1.719,0.045c-2.477,5.5,0.322,6.304,4.807,4.465c5.359-2.196,10.496-5.064,15.561-7.861 c-0.488-0.063-0.978-0.127-1.467-0.19c-1.068,1.724-5.931,8.144-4.409,9.932c1.674,1.967,7.296-4.594,8.067-5.444 c-0.616,0.056-1.231,0.11-1.848,0.166c-1.941,8.196,8.14,2.02,11.37,0.336c-0.513-0.023-1.025-0.046-1.539-0.069 c-3.161,7.282,2.737,5.14,6.63,2.772c7.457-4.535,15.872-10.752,20.186-18.522c0.279-0.504-1.584-0.137-1.848,0.166 c-4.851,5.577-10.526,11.6-13.535,18.421c-0.965,2.188,0.555,3.287,2.714,2.438c3.091-1.215,4.703-5.066,5.766-7.962 c0.191-0.522-1.711-0.282-1.92,0.287c-0.445,1.213-4.534,8.17-4.992,6.456c-0.558-2.09,2.771-5.747,3.833-7.258 c3.041-4.328,6.44-8.438,9.91-12.428c-0.616,0.056-1.231,0.11-1.848,0.166c-3.268,5.888-8.979,10.344-14.286,14.303 c-2.332,1.74-4.765,3.358-7.308,4.773c-3.064,1.706-2.133-2.171-1.382-3.9c0.256-0.59-1.392-0.146-1.539-0.069 c-1.637,0.853-3.299,1.65-4.984,2.399c-2.854,1.269-4.068,0.614-3.308-2.597c0.168-0.708-1.622-0.082-1.848,0.166 c-0.913,1.009-5.332,5.85-4.064,2.663c1.007-2.529,2.528-4.934,3.957-7.24c0.444-0.718-1.224-0.324-1.467-0.19 c-3.043,1.68-6.119,3.299-9.219,4.87c-2.174,1.102-4.372,2.16-6.628,3.085c-3.31,1.357-2.27-2.583-1.442-4.42 c0.27-0.599-1.528-0.107-1.719,0.045c-3.042,2.45-11.943,9.669-14.562,3.384c-0.436-1.043,0.542-4.606-1.031-4.811 c-2.938-0.38-5.288,4.394-6.501,6.348c0.616-0.056,1.231-0.11,1.848-0.166c4.04-7.739,8.465-15.288,13.716-22.274 c1.534-2.041,3.188-4.037,5.102-5.734c2.025-1.797,1.247,1.137,0.783,2.077c-1.965,3.988-5.636,7.409-8.724,10.514 c-4.452,4.478-9.311,8.592-14.458,12.247c-2.395,1.7-12.345,8.718-12.874,2.304c-0.433-5.251,4.402-11.32,7.452-15.063 c2.942-3.61,12.666-11.918,13.26-2.956c0.056,0.848-0.036,1.701-0.161,2.538c-0.375,2.52,0.781-2.116,1.558,0.503 c-0.54-1.821,0.913-5.05,1.459-6.816C128.978,14.088,127.064,14.357,126.887,14.93L126.887,14.93 M197.813,28.824c-2.075,3.162-3.357,6.746,1.504,4.736c-0.502,0.021-1.003,0.042-1.504,0.063 c-1.991,2.637-1.757,5.118,1.962,3.906c4.213-1.374,7.96-4.333,11.367-7.095c-0.612,0.113-1.226,0.227-1.838,0.34 c0.065,1.344,0.132,2.687,0.197,4.03c0.064,1.318-1.419,2.2-0.647,3.594c0.508,0.916,3.484-0.407,4.004-0.613 c9.289-3.691,17.289-10.985,23.468-18.642c0.125-0.154-1.506-0.115-1.823,0.256c-4.344,5.078-10.551,10.968-12.797,17.353 c-0.739,2.102,3.155,0.686,3.852,0.414c3.566-1.393,6.821-3.897,9.852-6.198c-0.581,0.054-1.163,0.108-1.744,0.162 c-0.666,0.644-6.806,6.652-4.606,7.098c2.513,0.509,4.955-3.098,6.221-4.688c-0.639,0.145-1.278,0.289-1.917,0.434 c0.606,4.257,3.428,4.342,5.473,0.899c0.127-0.213-1.621-0.124-1.902,0.35c-1.189,2.002-1.54-1.075-1.639-1.767 c-0.068-0.483-1.736,0.207-1.917,0.434c-0.586,0.735-4.102,4.598-2.146,1.674c1.132-1.692,2.713-3.183,4.178-4.596 c0.428-0.412-1.443-0.066-1.744,0.162c-2.131,1.619-4.348,3.12-6.64,4.5c-5.559,3.346-2.521-1.231-0.858-3.644 c3.066-4.451,6.568-8.645,10.08-12.749c-0.607,0.085-1.216,0.17-1.823,0.256c-5.618,6.96-12.437,12.981-20.439,17.059 c-2.497,1.271-4.3,1.635-2.663-1.738c0.556-1.145-0.023-3.296-0.085-4.557c-0.021-0.449-1.669,0.203-1.838,0.34 c-1.706,1.383-3.482,2.674-5.3,3.905c-0.46,0.312-6.204,3.789-5.76,1.213c0.148-0.861,0.861-1.758,1.377-2.441 c0.245-0.323-1.393,0.017-1.504,0.063c-1.349,0.558,1.145-4.313,1.504-4.861C199.837,28.289,198.119,28.358,197.813,28.824 L197.813,28.824 M244.107,29.998c-1.153,1.313-6.638,9.184-1.408,8.451c4.282-0.599,8.292-4.29,11.427-7.026 c-0.574,0.011-1.147,0.022-1.722,0.033c-0.417,0.859-2.194,3.64-1.405,4.484c0.218,0.233,0.758,0.122,1.013,0.053 c1.295-0.354,1.718-1.185,2.698-0.212c1.063,1.054,4.908,1.6,4.598,3.407c-0.11,0.646,1.822,0.298,1.922-0.281 c0.252-1.467-1.021-1.973-2.195-2.49c-0.893-0.392-2.198-0.628-2.611-1.628c-0.205-0.496-0.333-0.724-0.916-0.807 c-1.178-0.166-2.399,0.559-3.397,1.067c1.168-0.595,1.536-2.473,2.217-3.875c0.285-0.587-1.52-0.144-1.722,0.033 c-2.252,1.965-4.644,3.819-7.218,5.342c-2.934,1.735-3.488-0.154-2.304-2.626c0.687-1.431,1.759-2.768,2.804-3.957 C246.387,29.396,244.471,29.584,244.107,29.998L244.107,29.998 M253.896,19.672c0.349-0.711,0.698-1.422,1.047-2.133c0.143-0.29-0.68-0.158-0.761-0.143 c-0.3,0.057-0.982,0.183-1.14,0.502c-0.349,0.711-0.698,1.422-1.047,2.133c-0.143,0.29,0.68,0.158,0.761,0.143 C253.056,20.117,253.739,19.991,253.896,19.672L253.896,19.672z"/>
</svg>