<?xml version="1.0" standalone="no"?>
<!DOCTYPE svg PUBLIC "-//W3C//DTD SVG 20010904//EN"
 "http://www.w3.org/TR/2001/REC-SVG-20010904/DTD/svg10.dtd">
<svg version="1.0" xmlns="http://www.w3.org/2000/svg"
 width="468pt" height="227pt" viewBox="0 0 468 227"
 preserveAspectRatio="xMidYMid meet">
<metadata>
Created by POTRACE VERSION, written by Peter Selinger 2001-2007
</metadata>
<g transform="translate(0,227) scale(0.012006,-0.012006)"
fill="#000000" stroke="none">
<path d="M5141 18859 c-9 0 -42 -8 -74 -19 -32 -10 -68 -27 -79 -37 -11 -10
-29 -35 -39 -55 -10 -20 -28 -76 -39 -124 -11 -48 -33 -116 -49 -153 -16 -36
-34 -100 -40 -141 -5 -41 -17 -93 -24 -115 -8 -22 -33 -69 -55 -103 -22 -35
-54 -99 -71 -143 -17 -44 -44 -128 -61 -187 -16 -59 -39 -137 -50 -174 -12
-37 -36 -89 -54 -115 -18 -26 -40 -62 -49 -79 -8 -16 -25 -65 -35 -108 -11
-43 -32 -95 -46 -116 -13 -21 -31 -62 -40 -91 -8 -30 -22 -89 -31 -133 -15
-71 -22 -84 -70 -136 -35 -38 -58 -74 -66 -102 -6 -24 -14 -81 -18 -128 -6
-73 -14 -99 -53 -180 -25 -52 -51 -113 -57 -135 -6 -22 -11 -66 -11 -97 0 -47
-6 -67 -31 -108 -20 -33 -42 -94 -63 -182 -18 -73 -47 -161 -64 -195 -20 -39
-36 -90 -42 -135 -7 -51 -19 -86 -40 -118 -16 -25 -44 -70 -63 -100 -18 -30
-52 -86 -75 -125 -36 -61 -44 -88 -67 -210 -14 -77 -30 -156 -36 -175 -7 -19
-28 -71 -49 -115 -20 -44 -49 -125 -65 -179 -20 -69 -43 -121 -75 -170 -25
-39 -60 -96 -78 -127 -17 -31 -43 -86 -57 -123 -14 -37 -35 -86 -46 -107 -11
-22 -35 -57 -54 -78 -19 -20 -39 -50 -45 -65 -5 -15 -10 -53 -10 -84 0 -31 -5
-87 -10 -124 -5 -36 -17 -87 -26 -113 -8 -26 -29 -69 -46 -96 -16 -27 -45 -85
-63 -128 -18 -43 -46 -96 -63 -117 -17 -22 -55 -95 -85 -164 -30 -69 -62 -150
-72 -180 -10 -30 -24 -68 -33 -85 -8 -16 -37 -53 -63 -82 -27 -29 -54 -64 -59
-78 -5 -14 -14 -67 -20 -118 -8 -80 -16 -104 -56 -182 -26 -49 -59 -119 -74
-155 -15 -36 -30 -94 -34 -130 -4 -36 -14 -92 -23 -124 -13 -47 -28 -72 -73
-120 -32 -34 -67 -80 -79 -104 -12 -24 -26 -69 -32 -100 -5 -31 -12 -73 -15
-92 -4 -27 -24 -53 -88 -115 -70 -69 -87 -91 -111 -152 -15 -39 -47 -95 -72
-125 -24 -29 -52 -66 -61 -83 -12 -23 -16 -53 -14 -125 1 -52 -3 -120 -8 -150
-7 -37 -19 -64 -39 -85 -16 -16 -34 -41 -42 -55 -7 -14 -15 -73 -17 -135 -3
-71 -10 -121 -20 -140 -8 -16 -37 -54 -63 -83 -31 -34 -56 -75 -71 -115 -13
-38 -39 -80 -64 -107 -23 -25 -67 -90 -98 -145 -44 -79 -59 -118 -72 -185 -8
-47 -22 -116 -30 -155 -10 -46 -24 -82 -43 -105 -15 -19 -35 -48 -43 -65 -9
-16 -28 -97 -42 -180 -15 -82 -31 -170 -37 -194 -5 -23 -27 -77 -48 -120 -22
-42 -60 -98 -86 -125 -25 -27 -55 -66 -65 -86 -10 -20 -26 -74 -35 -119 -10
-46 -37 -140 -62 -210 -24 -69 -57 -142 -72 -161 -15 -19 -33 -45 -39 -57 -7
-12 -12 -48 -12 -80 -1 -32 -7 -74 -14 -93 -8 -19 -25 -62 -40 -95 -14 -33
-48 -122 -76 -199 -28 -76 -69 -171 -91 -211 -34 -62 -41 -85 -48 -166 -6 -52
-17 -116 -27 -144 -9 -27 -42 -95 -72 -152 -35 -65 -68 -112 -89 -129 -18 -14
-42 -43 -53 -64 -11 -22 -20 -55 -20 -74 0 -19 5 -57 11 -84 10 -41 8 -73 -9
-188 -12 -77 -24 -162 -27 -190 -4 -28 -14 -62 -23 -76 -9 -14 -25 -37 -35
-51 -10 -14 -29 -78 -42 -143 -14 -65 -25 -136 -25 -157 0 -21 9 -56 20 -77
11 -22 40 -62 65 -90 25 -28 53 -67 64 -88 10 -20 22 -48 26 -62 4 -14 18 -39
30 -56 14 -18 39 -35 63 -42 22 -7 75 -12 119 -12 47 0 99 7 127 16 28 10 66
35 94 63 38 36 52 59 65 108 10 34 26 126 37 205 10 79 22 168 25 198 4 30 18
91 32 135 14 44 38 119 54 168 16 48 57 142 90 210 33 67 71 133 83 147 13 14
29 36 36 50 8 14 21 66 31 115 15 72 35 123 100 255 45 91 93 181 106 200 13
19 34 71 48 115 13 44 42 107 63 140 21 33 57 101 78 150 22 50 69 135 104
190 35 54 74 126 87 159 12 33 41 89 62 125 21 37 59 109 84 161 25 52 65 122
89 155 25 33 77 112 118 175 40 63 87 133 105 155 18 22 42 59 54 82 11 23 30
66 41 96 11 29 38 78 61 108 22 29 52 79 66 109 15 30 35 66 46 80 10 13 33
57 51 96 18 39 49 88 68 110 19 21 52 72 73 111 26 51 43 73 56 73 12 0 21
-10 25 -26 4 -14 3 -73 0 -131 -4 -58 -12 -117 -17 -132 -6 -14 -35 -50 -66
-79 l-56 -53 8 -52 c5 -29 9 -70 9 -92 0 -22 -15 -77 -33 -125 -19 -47 -34
-103 -34 -125 0 -22 3 -65 8 -95 5 -40 3 -71 -9 -115 -10 -35 -22 -139 -28
-249 -10 -163 -9 -210 6 -350 10 -88 21 -228 25 -311 6 -113 13 -162 29 -200
11 -28 29 -95 40 -150 12 -55 27 -150 33 -211 11 -98 10 -124 -6 -224 -12 -76
-16 -136 -12 -185 4 -40 20 -110 36 -156 16 -46 43 -123 60 -172 17 -48 36
-120 41 -159 6 -40 22 -108 35 -151 14 -43 25 -89 25 -103 0 -14 15 -71 34
-127 19 -56 37 -120 41 -142 4 -22 34 -91 67 -153 34 -62 76 -130 95 -151 18
-22 56 -51 85 -65 43 -22 66 -26 133 -26 45 0 106 7 136 16 30 9 77 33 104 54
28 21 71 56 97 77 26 21 75 62 108 90 50 44 68 53 99 53 28 0 44 -7 66 -30 24
-26 30 -40 33 -94 3 -46 -1 -73 -13 -100 -10 -20 -44 -66 -76 -101 -32 -36
-68 -83 -79 -104 -11 -22 -37 -54 -59 -71 -21 -17 -51 -55 -66 -83 -16 -29
-45 -77 -66 -107 -20 -31 -84 -97 -143 -148 -88 -78 -107 -100 -117 -135 -6
-23 -8 -57 -5 -76 3 -18 15 -44 27 -57 12 -13 43 -27 71 -33 27 -6 74 -11 104
-11 30 0 70 6 88 14 18 7 43 28 55 45 13 17 35 38 50 45 15 8 56 20 91 26 36
7 78 19 93 28 20 12 42 45 73 108 39 82 51 98 121 157 43 36 105 91 138 123
34 33 79 84 101 114 23 30 49 61 58 69 10 8 25 31 35 50 10 20 26 67 35 105 9
37 28 90 41 116 13 26 29 78 36 115 7 39 9 95 5 134 -5 47 -19 93 -51 161 -24
52 -52 126 -61 163 -11 47 -28 81 -51 109 -18 22 -52 71 -73 109 -22 37 -52
77 -66 88 -14 11 -51 25 -82 32 -31 6 -90 9 -132 7 -53 -3 -92 -12 -133 -31
-41 -18 -78 -48 -129 -102 -40 -43 -89 -85 -110 -96 -20 -10 -49 -19 -63 -19
-14 0 -39 7 -55 15 -16 8 -34 24 -40 34 -5 11 -10 37 -10 58 0 21 -8 74 -19
118 -11 44 -24 109 -29 145 -5 36 -28 108 -51 161 -25 60 -43 120 -47 158 -4
34 -1 100 6 150 10 72 10 95 0 123 -8 19 -16 113 -21 223 -4 105 -12 246 -18
315 -5 69 -14 149 -20 179 -6 30 -22 89 -36 133 -21 67 -25 98 -25 208 0 72
-7 162 -15 207 -8 43 -15 110 -15 148 0 39 -5 88 -10 110 -6 22 -10 78 -11
125 -1 63 4 99 19 138 11 29 32 69 47 88 14 19 33 50 41 69 9 23 16 80 18 163
3 116 6 132 32 184 l28 58 -18 70 c-14 52 -17 88 -12 132 4 41 16 79 36 115
19 34 34 78 40 124 6 39 15 92 21 117 6 26 18 64 26 84 9 21 26 44 39 53 13 8
30 25 38 38 8 12 20 69 26 127 6 58 16 123 21 145 6 22 24 60 40 85 15 25 35
65 44 89 8 23 21 82 29 131 8 48 21 103 30 121 9 19 47 72 84 118 56 70 80 91
142 125 70 38 77 45 107 106 18 36 42 90 53 120 12 30 24 90 27 136 4 63 1
100 -13 154 l-18 72 33 92 c18 50 46 132 62 183 15 51 47 127 70 169 24 43 62
99 84 124 24 27 56 81 75 126 18 43 52 107 76 141 23 35 56 98 73 141 16 42
55 125 86 183 30 59 64 133 75 165 15 43 36 74 74 114 30 30 61 69 69 85 8 17
22 55 32 85 10 30 29 77 42 103 13 27 39 69 58 95 18 26 49 85 68 132 19 47
60 144 90 216 31 71 60 157 66 191 8 44 8 74 0 112 -6 28 -22 65 -36 82 -14
16 -38 36 -54 44 -15 8 -51 15 -79 15 -28 0 -66 -7 -85 -15 -20 -8 -60 -38
-91 -67 -36 -34 -70 -80 -95 -128 -22 -41 -55 -102 -74 -135 -19 -33 -42 -82
-51 -110 -9 -27 -34 -86 -56 -130 -22 -44 -57 -120 -78 -170 -21 -49 -53 -116
-72 -147 -20 -32 -40 -84 -47 -117 -7 -34 -23 -73 -39 -94 -15 -20 -63 -78
-106 -128 -70 -81 -82 -102 -103 -171 -15 -47 -42 -105 -68 -143 -24 -35 -52
-81 -63 -102 -10 -21 -27 -69 -36 -108 -14 -56 -35 -97 -104 -203 -48 -74
-106 -158 -130 -188 -24 -30 -57 -85 -74 -122 -16 -37 -45 -88 -63 -114 -19
-25 -42 -63 -53 -85 -11 -21 -27 -63 -35 -93 -9 -31 -34 -81 -56 -112 -22 -31
-56 -90 -76 -133 -19 -42 -54 -99 -78 -125 -28 -31 -49 -67 -57 -97 -10 -35
-29 -64 -68 -104 -30 -31 -69 -82 -86 -112 -17 -31 -59 -96 -92 -145 -37 -53
-77 -129 -99 -185 -24 -64 -53 -116 -86 -157 -27 -34 -59 -81 -70 -104 -12
-22 -39 -62 -60 -88 -22 -26 -53 -77 -69 -113 -16 -37 -45 -85 -64 -108 -19
-23 -40 -58 -49 -77 -8 -20 -36 -61 -63 -92 -34 -38 -58 -80 -77 -132 -16 -43
-41 -92 -56 -109 -16 -18 -35 -45 -43 -62 -9 -16 -26 -61 -38 -99 -19 -57 -33
-80 -79 -125 -31 -31 -71 -68 -88 -84 -21 -18 -39 -49 -54 -95 -12 -37 -28
-79 -36 -94 -7 -15 -32 -37 -54 -48 -22 -12 -52 -20 -67 -18 -20 2 -29 11 -35
34 -7 26 -1 54 32 151 23 66 41 125 41 132 0 7 23 60 51 118 45 92 53 119 65
212 8 58 17 113 20 121 3 8 10 53 15 99 5 46 14 92 20 104 6 11 26 34 43 52
20 19 43 61 59 106 15 41 33 106 41 144 8 39 22 87 31 108 8 21 26 84 40 140
13 56 40 136 59 177 19 41 39 102 45 135 6 33 18 109 26 168 11 84 21 121 44
160 16 29 38 80 49 114 11 33 26 71 32 84 7 12 31 45 54 73 23 28 52 76 65
106 12 30 40 93 61 140 21 47 45 119 53 160 8 41 18 91 21 111 4 20 22 54 40
75 19 22 39 58 44 79 6 22 18 74 27 115 9 41 36 118 60 170 23 52 57 138 74
190 18 52 59 154 92 227 32 73 79 162 103 197 24 35 49 81 56 103 7 21 28 63
46 93 23 38 40 84 53 150 11 52 25 108 31 125 6 16 28 52 49 80 21 27 53 86
71 130 17 44 45 100 61 125 15 25 35 73 43 105 8 33 20 86 26 118 10 47 21 69
58 111 26 28 68 94 95 146 26 52 59 136 73 185 14 50 43 123 65 163 21 40 48
110 60 155 11 45 29 100 40 122 10 22 34 59 53 82 22 27 45 76 64 135 17 51
42 122 56 158 15 36 40 99 55 140 16 41 36 98 45 126 8 28 33 82 56 120 22 38
40 72 40 76 0 3 16 34 36 67 19 33 44 95 55 138 10 43 42 125 70 183 28 58 64
140 79 182 16 43 43 97 60 122 26 35 34 59 40 119 5 41 16 100 25 131 9 30 32
78 50 105 19 27 41 65 49 85 8 20 23 75 32 123 9 49 23 100 31 115 7 15 22 32
34 38 11 6 33 9 48 5 16 -3 38 -16 50 -29 12 -13 26 -38 32 -57 6 -19 15 -106
19 -194 5 -88 13 -263 19 -388 6 -145 16 -248 25 -281 8 -28 25 -62 37 -74 11
-13 28 -22 36 -20 9 2 25 16 37 31 20 27 21 39 18 190 -2 89 2 217 9 284 9 94
9 136 0 185 -11 54 -10 74 5 138 13 59 15 101 11 195 -4 66 -16 172 -28 235
-15 83 -20 137 -16 195 3 44 21 146 41 227 20 81 40 187 46 235 5 48 21 123
35 166 13 42 30 119 36 171 8 70 8 108 -1 150 -8 37 -22 69 -42 91 -16 19 -61
50 -100 70 -39 19 -78 35 -87 34z"/>
<path d="M31153 15539 c-37 0 -81 -6 -98 -12 -16 -7 -104 -56 -195 -111 -91
-54 -173 -106 -184 -115 -10 -9 -33 -45 -51 -81 -18 -36 -40 -88 -49 -116 -11
-35 -40 -79 -89 -135 -39 -46 -105 -117 -147 -157 -41 -40 -104 -93 -139 -117
-35 -24 -72 -56 -83 -72 -11 -15 -41 -74 -68 -130 -27 -57 -70 -131 -97 -165
-26 -35 -77 -94 -113 -133 -36 -38 -74 -83 -84 -99 -10 -16 -36 -48 -56 -70
-21 -23 -59 -77 -85 -121 -26 -44 -60 -94 -76 -112 -15 -18 -36 -49 -45 -69
-10 -20 -45 -65 -79 -98 -33 -34 -77 -91 -96 -126 -26 -47 -56 -82 -109 -127
-52 -43 -84 -80 -109 -126 -20 -35 -49 -86 -66 -112 -16 -27 -60 -80 -97 -119
-46 -49 -76 -93 -98 -141 -24 -54 -50 -89 -115 -155 -70 -71 -89 -97 -114
-158 -19 -46 -49 -94 -78 -126 -27 -29 -56 -75 -67 -102 -10 -27 -38 -74 -62
-106 -24 -31 -53 -76 -63 -101 -10 -24 -32 -59 -49 -78 -16 -19 -69 -99 -116
-179 -48 -80 -107 -164 -131 -188 -24 -24 -60 -73 -81 -110 -20 -37 -58 -98
-86 -135 -27 -37 -64 -96 -83 -130 -19 -34 -48 -101 -65 -148 -21 -58 -45
-103 -74 -137 -23 -27 -53 -77 -66 -111 -14 -38 -35 -71 -54 -88 -17 -14 -39
-37 -48 -52 -10 -14 -25 -59 -34 -99 -13 -59 -24 -83 -59 -124 -24 -28 -60
-81 -79 -118 -20 -37 -42 -94 -49 -127 -8 -33 -20 -70 -27 -84 -7 -13 -18 -31
-25 -39 -7 -8 -43 -67 -80 -130 -37 -63 -88 -142 -113 -175 -24 -33 -55 -83
-67 -110 -13 -28 -43 -75 -68 -104 -28 -32 -56 -80 -71 -123 -15 -39 -65 -133
-112 -209 -47 -77 -93 -163 -104 -193 -10 -30 -24 -65 -31 -78 -6 -12 -34 -47
-61 -77 -27 -30 -62 -80 -78 -112 -16 -32 -52 -114 -80 -184 -28 -69 -72 -159
-99 -198 -27 -40 -72 -117 -99 -172 -42 -82 -55 -120 -71 -212 -11 -62 -27
-123 -35 -135 -9 -13 -31 -35 -50 -51 -19 -15 -58 -64 -86 -110 -32 -52 -64
-122 -86 -192 -20 -60 -53 -142 -74 -181 -31 -55 -43 -92 -55 -169 -9 -55 -32
-142 -52 -195 -19 -52 -46 -122 -60 -155 -14 -33 -40 -94 -59 -136 -19 -42
-45 -120 -59 -175 -15 -54 -46 -139 -71 -189 l-45 -91 2 -130 c1 -104 -3 -144
-19 -195 -11 -35 -23 -91 -27 -124 -3 -34 -2 -115 5 -180 6 -65 22 -163 35
-216 14 -54 25 -122 25 -151 0 -37 -15 -96 -51 -198 -28 -80 -85 -248 -128
-375 -43 -126 -88 -255 -101 -285 -13 -30 -38 -78 -56 -107 -18 -28 -47 -86
-65 -128 -26 -63 -40 -83 -80 -113 -33 -24 -63 -61 -96 -116 -26 -44 -57 -108
-70 -143 -13 -36 -30 -78 -39 -94 -8 -17 -54 -88 -101 -157 -47 -70 -104 -156
-126 -192 -22 -36 -59 -87 -82 -115 -23 -27 -52 -69 -64 -93 -12 -24 -37 -60
-55 -80 -18 -20 -46 -62 -61 -92 -15 -30 -47 -77 -72 -104 -24 -27 -62 -85
-85 -130 -29 -54 -69 -108 -123 -166 -52 -55 -92 -109 -114 -153 -25 -50 -51
-84 -98 -125 -36 -31 -75 -75 -88 -97 -13 -22 -33 -66 -45 -98 -17 -44 -42
-79 -101 -142 -43 -47 -100 -117 -125 -157 -26 -40 -69 -96 -96 -124 -27 -28
-62 -71 -76 -96 -15 -24 -63 -91 -107 -149 -44 -57 -110 -135 -146 -174 -37
-38 -79 -95 -94 -125 -15 -30 -49 -77 -76 -105 -26 -27 -74 -77 -106 -110 -32
-34 -70 -77 -85 -97 -20 -27 -43 -41 -89 -57 -35 -11 -64 -19 -67 -16 -2 2 3
39 11 82 8 43 27 130 41 194 14 64 35 138 46 165 12 27 26 74 31 104 6 30 18
82 29 115 10 33 21 98 25 144 3 47 10 105 16 130 5 26 28 84 49 131 30 65 41
107 49 175 6 50 13 104 16 122 3 17 22 55 42 84 20 29 51 86 70 127 18 41 49
93 67 116 18 22 40 55 49 71 8 17 44 98 80 181 35 82 72 176 81 209 10 33 30
80 46 105 16 25 38 71 50 103 12 31 39 79 60 106 21 26 50 71 64 99 14 27 43
71 65 96 24 28 51 76 70 128 17 46 40 101 52 123 12 22 59 112 104 201 52 101
89 188 100 234 10 41 29 100 41 131 13 32 33 108 44 171 11 62 23 156 27 208
4 71 1 111 -11 160 -10 39 -32 87 -55 120 -21 30 -52 83 -69 117 -18 34 -46
73 -64 86 -18 13 -60 41 -94 61 -52 32 -82 41 -205 63 -102 18 -184 26 -284
28 l-140 1 -110 55 -110 54 -32 65 c-31 62 -33 70 -33 185 0 66 -5 136 -10
156 -6 19 -21 46 -34 58 -13 12 -59 35 -102 51 -44 17 -85 30 -93 30 -8 0 -80
-23 -160 -51 -79 -28 -195 -75 -257 -105 -62 -30 -131 -61 -154 -69 -24 -8
-54 -15 -69 -15 -14 0 -53 13 -86 28 -34 16 -75 46 -94 68 -18 21 -62 64 -98
95 -35 31 -76 59 -90 62 -14 3 -55 -2 -92 -9 -36 -8 -123 -19 -192 -24 -69 -5
-172 -16 -230 -26 -77 -12 -111 -13 -131 -6 -15 7 -38 31 -54 59 -15 26 -38
65 -51 86 -15 24 -41 46 -66 58 -34 15 -66 19 -162 19 -66 0 -160 -5 -209 -10
-68 -7 -106 -17 -162 -44 -40 -19 -109 -62 -152 -96 -65 -50 -96 -66 -172 -90
-50 -16 -108 -39 -128 -53 -21 -13 -53 -29 -72 -35 -19 -6 -67 -16 -107 -21
-39 -6 -90 -11 -113 -11 -22 0 -89 -16 -149 -35 -59 -19 -120 -35 -134 -35
-15 0 -33 10 -45 25 -11 14 -23 44 -27 66 -6 32 -2 51 19 93 14 29 26 65 26
79 0 14 -13 54 -29 89 -15 34 -37 71 -48 81 -11 10 -45 26 -76 37 -34 12 -82
20 -119 20 -35 0 -80 -4 -101 -9 -21 -5 -69 -28 -108 -52 -49 -29 -85 -43
-119 -47 -41 -4 -52 -1 -73 20 -20 20 -25 38 -30 103 -4 46 -23 137 -46 214
-21 73 -48 145 -58 160 -11 14 -37 32 -58 40 -30 12 -48 12 -90 4 -29 -7 -77
-27 -107 -47 -29 -19 -86 -44 -127 -56 -54 -16 -85 -32 -120 -63 -25 -23 -75
-69 -111 -102 -53 -50 -78 -65 -138 -84 -58 -19 -75 -21 -87 -11 -9 8 -15 30
-15 57 0 25 7 72 16 106 8 33 27 83 40 110 21 40 27 73 35 173 5 68 15 152 23
186 8 35 17 90 21 123 3 33 26 128 50 210 24 83 57 200 73 260 16 61 44 157
61 214 18 57 40 120 50 140 11 20 29 45 41 56 13 11 29 34 36 52 8 17 20 73
28 123 9 50 22 104 30 118 8 15 43 81 78 147 36 66 81 147 101 179 20 32 43
82 51 110 8 28 22 87 30 131 10 51 30 108 54 155 22 41 45 99 52 127 6 29 25
69 40 88 16 20 40 67 55 104 17 45 45 90 80 131 37 43 63 85 81 134 14 39 47
109 72 156 25 47 60 108 77 135 18 28 42 81 54 118 13 37 38 89 57 115 18 26
49 79 67 117 19 39 55 100 80 137 25 37 59 93 75 125 16 32 39 91 51 132 20
67 29 81 98 150 46 46 85 96 99 126 13 28 28 83 34 122 5 39 19 95 30 123 11
28 29 68 39 88 11 20 42 64 71 96 29 33 67 92 85 132 19 40 47 93 63 117 17
23 42 72 56 106 14 35 46 98 70 140 25 42 56 106 69 142 14 36 34 84 46 108
12 23 31 70 41 104 13 41 34 80 63 113 30 36 53 78 75 140 19 53 58 130 96
189 36 55 80 120 99 145 19 25 41 59 49 75 8 17 23 62 32 100 9 39 28 90 41
115 14 25 45 86 71 135 26 50 55 102 65 116 10 14 28 66 40 115 12 49 32 110
45 135 13 25 34 59 47 75 13 16 31 43 40 61 9 17 26 66 38 110 12 43 41 128
64 188 24 61 49 131 55 157 7 26 9 59 6 73 -4 14 -21 34 -39 45 -17 11 -45 20
-62 20 -16 0 -46 -8 -65 -18 -19 -9 -45 -32 -57 -50 -12 -18 -36 -75 -53 -127
-17 -52 -42 -109 -55 -127 -13 -18 -38 -55 -54 -82 -16 -27 -44 -101 -61 -165
-18 -63 -47 -145 -65 -181 -18 -36 -39 -92 -46 -125 -9 -39 -28 -82 -56 -122
-23 -34 -52 -80 -63 -104 -12 -23 -40 -65 -62 -93 -22 -27 -59 -89 -83 -136
-23 -47 -55 -123 -70 -170 -15 -47 -52 -136 -82 -199 -30 -63 -65 -143 -78
-178 -13 -35 -38 -82 -54 -106 -16 -23 -57 -76 -90 -117 -48 -60 -70 -100
-110 -200 -27 -69 -60 -164 -75 -211 -19 -63 -43 -112 -91 -183 -35 -53 -70
-116 -76 -138 -6 -23 -8 -56 -5 -74 4 -18 1 -49 -7 -71 -7 -21 -35 -67 -62
-103 -26 -36 -68 -84 -91 -107 -24 -24 -55 -63 -70 -89 -19 -33 -29 -67 -35
-125 -7 -73 -11 -84 -63 -161 -31 -46 -69 -101 -86 -123 -21 -28 -39 -75 -61
-160 -28 -110 -34 -124 -74 -165 -28 -28 -52 -68 -67 -107 -15 -40 -46 -88
-88 -139 -36 -42 -88 -100 -116 -128 -46 -48 -55 -66 -113 -221 -34 -94 -78
-210 -98 -260 -20 -49 -51 -119 -68 -155 -18 -36 -38 -83 -45 -105 -7 -22 -28
-83 -47 -135 -19 -52 -40 -104 -46 -115 -5 -11 -29 -45 -52 -75 -24 -30 -48
-65 -54 -78 -7 -12 -22 -64 -35 -115 -18 -75 -31 -104 -64 -146 -23 -28 -62
-95 -87 -149 -26 -53 -57 -127 -70 -163 -12 -36 -65 -153 -118 -260 -52 -107
-102 -219 -112 -249 -10 -30 -26 -72 -37 -93 -10 -21 -45 -58 -78 -84 -47 -36
-67 -61 -101 -127 -23 -44 -52 -94 -65 -111 -12 -16 -32 -53 -43 -82 -11 -28
-42 -91 -69 -140 -28 -48 -62 -121 -77 -161 -28 -72 -28 -72 -12 -140 11 -48
13 -82 7 -122 -4 -30 -22 -89 -38 -130 -16 -41 -35 -107 -42 -147 -8 -53 -23
-90 -52 -139 -22 -36 -49 -93 -60 -125 -11 -32 -33 -78 -49 -101 -17 -24 -42
-61 -57 -82 -21 -30 -27 -52 -27 -90 0 -49 4 -57 90 -171 68 -89 101 -125 130
-139 22 -10 59 -21 81 -24 23 -2 58 1 78 8 21 7 65 41 108 84 63 63 90 81 200
135 95 45 144 76 190 119 35 32 82 72 105 90 22 18 55 35 71 38 23 5 32 2 41
-13 7 -15 4 -32 -15 -72 -18 -40 -24 -70 -24 -120 0 -56 6 -79 36 -141 19 -41
49 -89 66 -107 20 -20 54 -39 99 -53 53 -17 81 -21 123 -16 35 5 102 30 192
73 77 36 160 72 186 81 37 12 53 13 72 4 14 -6 38 -37 56 -71 19 -36 63 -89
110 -135 48 -47 98 -85 131 -101 30 -13 86 -29 126 -36 60 -10 94 -9 205 6
105 13 149 24 208 51 42 18 109 41 150 50 41 9 98 23 126 30 28 8 68 27 88 43
21 17 45 32 54 35 10 3 60 17 112 31 70 20 108 37 146 65 27 22 67 46 87 55
22 9 48 13 65 9 15 -4 43 -15 62 -24 19 -10 55 -40 80 -67 35 -38 64 -57 125
-83 67 -28 100 -34 205 -43 104 -8 137 -7 200 6 41 9 118 25 170 36 52 12 130
21 173 21 43 0 88 -5 100 -11 12 -6 38 -26 57 -45 19 -18 64 -46 100 -62 36
-17 98 -40 139 -52 60 -19 88 -22 155 -17 54 4 124 20 211 47 72 23 151 44
177 47 36 4 54 1 75 -12 15 -10 47 -40 71 -66 23 -26 71 -65 105 -87 34 -22
69 -47 77 -57 7 -9 34 -31 59 -47 25 -17 64 -50 86 -72 26 -26 60 -48 95 -60
30 -10 89 -34 130 -53 60 -28 94 -36 175 -44 55 -5 145 -14 199 -20 55 -6 123
-19 152 -30 31 -12 65 -34 83 -54 16 -19 34 -50 40 -69 7 -28 3 -59 -19 -152
-16 -65 -49 -165 -74 -223 -24 -58 -50 -121 -57 -139 -6 -18 -24 -48 -39 -67
-15 -19 -32 -47 -38 -62 -6 -15 -20 -61 -31 -100 -13 -43 -33 -87 -50 -105
-15 -18 -35 -47 -44 -63 -8 -17 -23 -57 -32 -90 -9 -33 -35 -90 -57 -127 -22
-37 -53 -102 -70 -145 -16 -42 -40 -92 -53 -111 -13 -19 -49 -57 -80 -85 -32
-28 -63 -65 -70 -81 -7 -17 -25 -82 -40 -143 -21 -88 -35 -125 -66 -170 -21
-32 -51 -89 -66 -128 -14 -38 -43 -104 -64 -145 -20 -42 -42 -94 -48 -115 -6
-22 -17 -87 -25 -145 -8 -58 -19 -117 -24 -130 -5 -14 -28 -47 -51 -75 -23
-28 -49 -75 -60 -110 -11 -33 -27 -89 -36 -125 -9 -36 -35 -123 -57 -195 -22
-71 -56 -160 -74 -197 -23 -46 -40 -101 -54 -179 -11 -62 -20 -147 -20 -189 0
-42 -7 -99 -15 -126 -9 -27 -20 -87 -24 -132 -8 -76 -12 -89 -50 -143 -23 -33
-49 -78 -57 -101 -7 -22 -14 -53 -14 -69 0 -16 15 -85 34 -154 l34 -126 68
-66 c66 -64 68 -66 130 -71 36 -3 76 0 96 7 18 7 56 17 83 22 28 6 73 14 100
18 28 5 69 18 90 30 22 11 45 21 52 21 7 0 35 21 63 48 28 26 135 130 238 232
l188 185 80 150 c74 140 84 153 156 215 43 36 91 82 108 104 16 21 40 65 51
98 15 39 38 75 69 106 25 26 63 75 83 110 20 35 67 93 105 130 47 46 80 92
110 148 23 45 59 102 80 127 21 26 63 66 95 89 31 24 65 57 75 73 10 17 26 53
36 80 11 28 34 69 52 91 18 23 49 75 67 116 19 41 51 96 71 123 21 26 51 74
67 106 18 37 60 89 118 146 84 84 90 92 114 168 13 44 28 94 31 111 4 17 30
60 59 94 29 35 75 88 104 119 38 42 63 83 96 161 24 58 48 116 52 130 4 14 16
41 26 61 11 23 38 49 67 67 45 27 55 42 109 149 33 65 68 141 77 169 9 29 34
80 55 115 21 35 46 85 56 111 9 26 32 64 50 85 18 21 39 52 48 68 8 17 31 77
51 133 20 57 50 123 67 148 17 25 39 71 50 102 11 32 42 96 69 142 27 46 54
107 60 134 5 28 12 96 15 151 5 88 9 108 40 170 18 39 39 83 45 100 6 16 32
99 58 185 l46 155 6 235 c4 200 8 241 24 275 14 30 22 88 32 231 8 104 20 210
28 235 8 24 35 94 60 154 26 61 62 142 81 180 26 52 38 94 46 160 6 50 15 100
20 113 5 12 27 46 49 76 26 34 57 98 87 177 25 68 69 192 98 274 31 89 80 203
122 281 38 72 79 143 91 158 11 15 33 64 48 109 15 45 40 109 57 142 16 32 51
116 77 185 26 69 71 172 100 230 29 58 68 129 86 157 19 29 40 68 47 85 8 18
31 55 51 81 21 27 41 59 46 70 5 12 13 45 19 72 5 28 23 80 39 115 16 36 48
87 71 115 22 27 41 54 41 60 0 5 25 55 55 110 31 55 67 133 82 173 14 39 43
99 64 131 21 33 48 83 59 111 11 28 39 85 61 126 22 40 55 109 73 153 19 43
45 94 59 113 15 19 46 83 70 144 25 60 52 134 60 164 12 40 31 71 72 115 46
51 59 73 81 145 15 47 33 97 40 112 8 15 36 52 64 84 27 31 68 81 91 110 24
31 55 92 75 146 19 51 47 109 63 128 16 20 37 53 49 75 11 22 40 63 65 92 34
39 49 68 62 120 10 37 26 84 36 103 9 19 34 51 54 70 21 19 71 87 112 150 42
63 90 133 108 155 18 22 51 82 73 132 35 81 51 103 123 175 45 46 90 101 99
123 9 22 25 62 35 90 10 27 37 70 60 95 23 25 50 60 61 78 10 19 40 48 65 67
28 20 58 55 77 88 18 31 40 61 51 66 11 6 39 44 64 84 24 40 61 95 81 122 21
27 47 68 57 91 14 28 52 70 115 124 52 45 106 100 121 123 14 23 51 69 81 102
30 32 74 90 98 127 24 37 59 84 77 105 18 21 49 61 67 88 18 28 85 102 148
165 93 93 121 129 148 186 27 57 46 81 95 120 34 27 76 59 93 72 17 12 63 32
101 44 39 11 117 45 173 74 75 39 108 51 120 45 10 -5 45 -38 78 -73 53 -55
63 -72 73 -118 6 -30 12 -125 13 -210 2 -108 -2 -167 -11 -195 -7 -22 -27 -61
-43 -88 -27 -42 -31 -60 -39 -164 -5 -64 -16 -141 -25 -171 -8 -30 -35 -89
-59 -131 -25 -42 -62 -123 -83 -181 -22 -58 -51 -127 -65 -155 -14 -27 -48
-81 -75 -118 -28 -37 -62 -98 -77 -136 -14 -38 -39 -80 -56 -97 -17 -16 -59
-85 -93 -154 -34 -69 -92 -170 -129 -225 -36 -55 -85 -127 -109 -160 -23 -33
-74 -101 -113 -150 -40 -50 -78 -101 -84 -114 -7 -12 -19 -44 -27 -71 -8 -26
-34 -74 -59 -107 -24 -32 -74 -94 -110 -138 -36 -44 -85 -110 -110 -146 -29
-43 -60 -76 -88 -92 -24 -14 -64 -50 -89 -79 -24 -29 -57 -77 -73 -106 -16
-30 -45 -67 -66 -82 -20 -17 -52 -60 -73 -100 -28 -53 -50 -80 -91 -110 -29
-22 -91 -84 -138 -138 -46 -53 -101 -109 -120 -122 -20 -14 -96 -96 -169 -184
-103 -122 -154 -174 -224 -227 -50 -37 -125 -84 -166 -102 -64 -29 -82 -44
-117 -90 -28 -39 -71 -76 -141 -124 -56 -37 -146 -96 -201 -129 -55 -34 -119
-77 -142 -95 -23 -19 -78 -68 -122 -109 -44 -42 -107 -97 -140 -122 -33 -26
-88 -59 -122 -73 -34 -15 -68 -37 -76 -49 -8 -11 -24 -52 -37 -89 -15 -48 -36
-85 -68 -120 -25 -28 -61 -85 -80 -127 -34 -72 -35 -77 -24 -130 7 -30 15 -89
18 -130 6 -63 12 -79 35 -102 15 -16 38 -28 51 -28 15 0 40 17 68 45 24 25 63
52 86 61 30 12 65 41 120 101 42 46 102 103 133 125 31 23 99 83 151 134 52
51 147 129 210 173 63 45 148 112 188 149 41 37 95 87 120 112 26 25 83 69
127 99 44 30 116 69 160 88 44 18 95 47 115 63 19 17 55 44 79 60 25 17 55 30
66 30 12 0 29 -8 37 -17 8 -10 18 -26 21 -36 4 -10 7 -109 8 -220 0 -172 -2
-212 -19 -272 -11 -38 -29 -95 -40 -125 -11 -30 -34 -101 -52 -158 -27 -89
-30 -112 -25 -175 6 -63 4 -77 -17 -114 -13 -23 -36 -62 -51 -87 -15 -24 -39
-83 -52 -131 -14 -53 -38 -109 -60 -142 -26 -40 -41 -79 -56 -145 -10 -51 -19
-92 -19 -93 0 -1 -14 -20 -31 -41 -17 -22 -47 -70 -66 -109 -20 -38 -55 -91
-79 -117 -24 -25 -46 -57 -48 -70 -3 -12 -12 -56 -20 -95 -10 -48 -26 -89 -46
-119 -18 -25 -44 -81 -60 -124 -15 -45 -45 -103 -68 -132 -24 -32 -52 -88 -71
-140 -17 -48 -37 -101 -46 -117 -8 -16 -41 -60 -73 -98 -33 -37 -66 -81 -74
-98 -8 -16 -28 -68 -43 -115 -15 -47 -32 -91 -38 -97 -5 -7 -18 -13 -28 -13
-13 0 -30 23 -58 79 -27 52 -56 92 -87 120 -26 22 -65 46 -86 52 -28 7 -59 7
-106 0 -37 -6 -100 -20 -141 -30 -41 -11 -94 -30 -120 -43 -25 -13 -53 -37
-63 -53 -9 -17 -26 -84 -37 -151 -12 -67 -21 -148 -21 -181 0 -54 5 -67 46
-131 25 -39 61 -109 80 -154 19 -46 67 -130 106 -189 41 -59 91 -119 115 -138
24 -17 53 -47 65 -65 12 -19 31 -40 42 -46 12 -7 61 -15 111 -18 49 -2 116 1
148 7 40 7 72 21 100 43 l41 33 186 1 c102 0 208 5 235 11 28 6 88 14 135 18
47 4 110 13 141 21 31 8 84 14 116 14 44 0 64 -5 76 -17 8 -10 27 -44 42 -76
19 -38 38 -63 57 -73 16 -9 59 -21 94 -29 47 -10 82 -11 130 -4 36 5 94 16
128 25 35 9 75 23 89 32 14 10 40 29 59 44 22 18 59 32 109 43 42 8 125 34
185 56 89 34 116 40 152 35 25 -3 77 -23 116 -45 39 -21 112 -52 162 -70 50
-17 124 -35 165 -41 41 -6 110 -18 154 -27 44 -9 121 -15 171 -15 55 0 105 6
125 15 19 8 60 38 92 67 31 28 67 66 80 84 21 29 22 41 22 191 0 88 4 207 9
265 l9 105 -42 53 c-23 29 -58 60 -77 69 -31 15 -40 15 -82 3 -26 -8 -77 -16
-114 -18 -64 -3 -71 -2 -129 35 l-62 38 -176 3 c-130 2 -196 -1 -249 -12 -41
-8 -113 -33 -160 -55 -48 -22 -107 -45 -131 -51 -24 -6 -55 -9 -70 -5 -14 4
-55 37 -91 75 -63 65 -69 69 -167 100 -88 28 -108 31 -140 22 -21 -6 -89 -24
-150 -41 -62 -17 -162 -54 -222 -81 -60 -28 -147 -59 -193 -70 -45 -11 -122
-32 -170 -45 -48 -14 -100 -25 -117 -25 -16 0 -50 9 -74 19 -25 11 -50 29 -56
40 -6 11 -11 37 -11 58 0 21 9 52 19 69 10 17 53 67 94 112 52 55 91 109 122
169 25 48 57 106 70 128 14 22 37 71 52 110 15 41 43 87 66 112 31 34 46 62
64 126 13 45 40 109 60 142 19 33 51 100 69 148 19 48 48 109 65 134 18 25 47
85 66 132 18 47 49 111 67 141 19 30 39 73 45 95 6 22 11 55 11 73 0 18 6 48
14 67 8 19 32 52 53 73 21 20 59 66 84 102 26 36 59 90 74 120 22 44 29 75 35
158 7 96 11 110 55 198 l47 94 8 182 c5 105 17 232 29 298 12 63 21 133 21
155 0 22 -9 99 -19 170 -11 72 -25 166 -31 210 -7 44 -16 104 -22 133 -7 38
-26 78 -69 141 -44 66 -59 96 -59 123 0 20 10 50 23 69 12 18 41 46 64 62 23
15 55 45 70 67 16 21 55 54 90 74 34 20 88 61 122 91 33 31 75 79 94 108 18
29 44 77 56 107 14 33 46 78 80 114 31 32 77 78 102 102 33 32 54 64 74 115
22 57 36 78 76 109 28 22 72 63 99 93 26 29 60 79 75 110 18 38 39 64 62 78
19 12 45 39 59 60 13 21 40 53 59 70 19 17 41 50 49 73 8 22 20 63 27 90 8 31
23 59 43 77 17 15 63 55 103 89 48 40 79 76 94 108 12 26 42 81 65 122 24 41
55 108 69 149 15 40 46 101 69 136 30 43 49 85 61 136 18 72 20 76 101 153 46
43 93 93 104 112 12 18 32 88 46 156 20 96 34 139 67 198 23 42 53 119 68 175
15 55 39 132 52 170 15 41 35 138 48 232 20 148 21 179 13 366 l-9 204 -69
134 c-41 80 -87 154 -114 184 -25 28 -63 62 -84 77 -21 14 -90 42 -152 62 -87
27 -130 36 -183 35z"/>
<path d="M33570 10930 c-8 0 -24 -6 -35 -12 -11 -6 -34 -26 -51 -44 -18 -20
-47 -37 -75 -44 -24 -6 -57 -16 -72 -22 -18 -7 -60 -53 -114 -124 -47 -63
-106 -131 -132 -151 -26 -21 -75 -68 -108 -104 -41 -43 -73 -90 -96 -140 -23
-51 -45 -83 -71 -103 -26 -20 -48 -51 -72 -104 -19 -41 -49 -94 -68 -116 -18
-23 -47 -69 -64 -103 -17 -33 -61 -96 -98 -139 -36 -43 -79 -97 -95 -120 -15
-23 -39 -75 -53 -115 -14 -41 -29 -111 -35 -156 -6 -46 -17 -96 -25 -111 -8
-16 -22 -35 -32 -43 -10 -8 -32 -46 -49 -84 -18 -39 -40 -77 -49 -84 -10 -8
-22 -23 -28 -34 -6 -11 -23 -72 -39 -135 -21 -84 -37 -128 -61 -161 -17 -24
-46 -84 -63 -132 -18 -48 -48 -110 -69 -137 -29 -40 -43 -77 -72 -189 -21 -82
-39 -181 -45 -243 -5 -65 -19 -144 -38 -208 -18 -59 -35 -151 -42 -215 -6 -62
-19 -134 -29 -162 -10 -27 -31 -79 -45 -114 -15 -35 -31 -96 -36 -135 -6 -39
-24 -118 -41 -175 -25 -86 -30 -114 -24 -163 3 -34 25 -107 50 -171 25 -62 56
-132 70 -157 13 -25 32 -75 40 -113 9 -37 24 -84 35 -105 10 -20 40 -63 66
-94 25 -31 69 -72 98 -91 31 -21 98 -49 168 -71 93 -29 124 -43 161 -76 25
-22 58 -44 72 -50 15 -5 60 -10 99 -9 40 0 97 4 127 9 31 4 111 3 182 -2 107
-9 138 -8 200 6 41 9 101 29 133 45 33 15 84 36 114 46 29 9 81 36 115 59 33
23 90 58 126 78 36 20 81 53 100 73 19 20 58 52 86 70 28 18 61 49 73 68 12
19 33 43 47 52 15 9 41 17 60 18 20 1 42 -7 54 -18 12 -10 35 -45 52 -77 17
-31 55 -85 85 -118 31 -33 67 -67 82 -75 15 -7 50 -35 77 -60 27 -26 81 -65
119 -86 39 -22 105 -50 148 -64 51 -16 125 -29 205 -36 70 -6 163 -8 207 -5
44 4 107 13 140 21 33 7 92 28 130 45 39 18 87 38 108 46 21 7 89 21 153 29
103 15 120 15 175 1 33 -9 82 -16 107 -16 26 0 78 7 116 15 37 8 127 42 199
75 81 38 152 79 188 110 33 26 73 53 91 58 18 5 59 15 91 22 42 8 69 22 102
50 25 22 62 44 83 50 20 5 45 10 54 10 9 0 48 11 86 25 38 14 82 25 97 25 16
0 47 -11 70 -25 25 -14 48 -37 55 -55 11 -25 11 -41 0 -84 -10 -44 -10 -66 1
-120 10 -54 10 -78 1 -126 -7 -32 -22 -80 -34 -107 -17 -37 -23 -74 -26 -162
-3 -68 0 -135 7 -166 9 -39 26 -69 66 -118 31 -37 67 -75 82 -84 21 -14 46
-18 115 -16 49 1 113 9 142 17 33 10 63 26 74 41 11 13 29 63 41 111 14 57 33
105 57 141 20 30 50 89 67 131 17 42 41 94 54 115 14 21 39 71 58 112 20 45
45 82 63 95 17 13 44 48 61 79 18 33 65 90 117 141 47 47 102 109 121 139 19
30 70 91 112 135 43 45 103 118 135 163 32 46 71 92 87 104 16 11 48 44 69 72
22 29 58 76 81 105 31 40 55 59 98 78 47 20 65 36 102 86 24 34 76 94 116 134
39 39 76 80 81 90 5 11 15 53 21 94 7 46 22 90 37 115 14 22 38 58 54 80 18
24 38 72 50 120 12 47 18 92 14 109 -3 16 -27 50 -53 75 -28 28 -62 51 -87 59
-23 6 -56 12 -73 12 -18 0 -80 -16 -138 -36 -78 -26 -136 -38 -217 -45 -61 -5
-127 -12 -146 -15 -19 -4 -84 -27 -144 -51 -102 -42 -119 -45 -240 -54 -72 -5
-154 -16 -182 -24 -29 -8 -76 -31 -105 -51 -30 -20 -62 -40 -71 -45 -10 -6
-67 -14 -128 -19 -64 -6 -132 -19 -165 -31 -42 -15 -64 -31 -86 -61 -18 -26
-29 -53 -29 -74 0 -23 8 -39 30 -57 16 -14 49 -32 72 -40 24 -8 93 -21 153
-29 90 -12 122 -12 175 -2 36 7 97 15 135 19 39 3 103 15 144 25 40 11 95 22
121 26 29 4 63 1 86 -6 22 -7 51 -21 67 -32 18 -13 27 -28 27 -45 0 -20 -18
-44 -68 -92 -38 -36 -110 -102 -161 -146 -61 -52 -101 -96 -116 -126 -13 -25
-35 -54 -50 -63 -14 -9 -42 -39 -62 -67 -19 -27 -55 -63 -79 -80 -24 -16 -50
-42 -58 -58 -8 -15 -31 -48 -52 -72 -20 -24 -46 -49 -58 -56 -11 -7 -31 -12
-44 -13 -17 0 -27 9 -36 33 -7 17 -16 58 -20 89 -3 32 -15 82 -26 111 -14 37
-33 64 -60 86 -23 18 -52 51 -66 73 -14 22 -40 46 -59 54 -21 8 -75 14 -147
15 -101 1 -120 -2 -179 -25 -43 -18 -81 -42 -109 -71 -25 -26 -53 -45 -66 -45
-11 0 -28 8 -37 18 -10 10 -17 34 -17 53 0 21 11 51 30 79 16 25 37 70 46 100
9 32 16 91 16 145 0 49 -6 113 -12 140 -6 28 -31 82 -56 121 -31 50 -54 76
-76 85 -22 9 -74 14 -154 14 l-122 0 -53 -36 c-30 -21 -74 -47 -99 -59 -25
-12 -74 -42 -108 -67 -35 -24 -87 -55 -115 -69 -29 -14 -105 -56 -171 -92 -95
-54 -124 -76 -149 -112 -17 -25 -48 -65 -70 -90 -21 -25 -48 -62 -59 -83 -12
-24 -21 -69 -25 -120 -3 -45 0 -137 6 -205 11 -106 10 -130 -3 -176 -11 -36
-29 -66 -55 -93 -22 -21 -61 -51 -88 -65 -26 -14 -79 -33 -118 -41 -38 -9
-117 -21 -173 -27 -66 -8 -149 -10 -228 -5 l-124 7 -56 42 c-32 22 -71 55 -88
72 -17 17 -50 64 -73 106 -34 58 -43 86 -43 121 0 32 9 65 30 104 19 39 34 90
44 153 9 53 22 115 31 139 8 24 30 60 49 81 18 21 39 55 46 76 7 22 23 59 35
84 13 25 37 59 55 75 17 17 63 77 102 135 39 58 86 122 106 144 19 21 50 73
69 115 19 42 49 96 67 121 18 25 56 91 84 146 28 55 74 125 102 156 38 43 63
61 103 75 39 13 76 17 152 15 55 -1 154 5 220 13 66 8 143 21 170 29 28 8 91
17 140 21 50 3 153 17 230 31 77 13 163 29 191 33 28 5 96 29 150 54 75 34
116 46 169 51 39 3 131 17 205 32 74 14 168 39 210 54 41 16 147 52 234 81
148 47 163 54 207 97 26 26 50 57 54 69 4 16 -1 30 -19 48 -23 23 -33 25 -108
25 -46 -1 -118 -7 -161 -15 -43 -7 -115 -29 -160 -49 -45 -19 -121 -42 -170
-51 -54 -10 -142 -16 -230 -17 -93 0 -181 -7 -255 -19 -63 -11 -141 -32 -175
-46 -58 -26 -69 -27 -187 -24 -69 2 -141 4 -160 4 -19 1 -112 -3 -206 -7
l-170 -9 -22 27 c-11 15 -24 48 -28 73 -5 32 -2 55 9 78 9 18 36 48 61 66 33
23 76 77 153 191 60 88 140 207 180 265 49 72 75 121 82 154 6 28 18 64 27 82
10 18 32 50 49 72 18 22 50 74 70 115 29 58 63 101 154 195 81 83 126 138 145
178 24 47 28 66 23 105 -3 27 -11 60 -18 75 -7 15 -26 36 -44 47 -17 10 -49
22 -71 26 -23 3 -66 1 -97 -5 -52 -11 -60 -17 -134 -99 -43 -48 -96 -109 -117
-137 -22 -27 -80 -90 -130 -138 -50 -48 -117 -106 -149 -128 -47 -33 -64 -53
-98 -117 -22 -42 -60 -108 -84 -147 -25 -38 -64 -88 -88 -110 -24 -22 -70 -71
-102 -110 -32 -38 -91 -104 -130 -145 -54 -56 -77 -90 -94 -134 -12 -33 -35
-75 -52 -93 -16 -19 -45 -66 -64 -106 -19 -40 -63 -105 -98 -146 -35 -41 -79
-83 -98 -93 -21 -11 -55 -18 -88 -18 -36 0 -71 8 -105 24 -29 14 -104 33 -176
45 -69 12 -235 27 -370 35 -171 10 -271 20 -330 35 -47 11 -107 25 -135 30
-27 5 -75 18 -105 29 -30 11 -120 30 -199 41 -107 16 -167 30 -235 57 -50 20
-107 45 -126 54 -19 10 -44 27 -54 39 -19 20 -19 23 -1 84 9 34 23 81 31 105
7 24 29 64 48 90 19 26 47 78 62 116 15 38 43 89 62 114 19 25 48 73 63 107
16 33 44 79 63 103 19 24 46 78 60 120 19 57 36 86 64 112 27 26 43 54 59 106
16 49 37 86 70 126 27 31 58 83 71 115 12 32 46 88 76 125 37 46 56 80 61 107
4 26 1 60 -10 96 -12 43 -23 60 -48 75 -18 11 -39 20 -47 20z m-805 -2317 c28
-3 85 -13 127 -24 43 -10 92 -19 110 -19 18 0 71 -9 117 -20 46 -11 152 -27
237 -34 84 -8 157 -17 162 -19 4 -3 80 -15 167 -26 88 -11 187 -23 220 -26 33
-4 89 -13 125 -20 36 -8 124 -16 195 -20 72 -3 146 -8 165 -11 19 -4 45 -12
56 -20 12 -7 24 -24 28 -37 3 -14 0 -45 -8 -71 -8 -25 -28 -63 -44 -84 -17
-21 -42 -63 -55 -94 -14 -31 -43 -81 -65 -110 -22 -29 -52 -78 -66 -108 -14
-30 -43 -84 -65 -120 -22 -36 -54 -87 -71 -115 -17 -27 -51 -75 -75 -105 -25
-30 -63 -76 -85 -102 -22 -26 -52 -73 -66 -105 -14 -32 -31 -72 -39 -90 -8
-17 -31 -44 -52 -59 -21 -15 -55 -44 -75 -63 -26 -24 -44 -54 -59 -100 -19
-56 -33 -76 -108 -151 -54 -55 -108 -99 -146 -119 -34 -17 -101 -63 -150 -102
-50 -39 -102 -77 -117 -85 -14 -7 -95 -37 -180 -65 l-153 -51 -105 5 c-91 5
-123 12 -235 51 -88 31 -137 53 -151 70 -12 14 -39 76 -60 138 -20 62 -48 136
-61 163 -12 28 -23 68 -23 90 0 21 14 102 30 180 17 77 42 185 56 240 14 55
41 132 61 170 20 39 42 88 50 110 8 22 18 99 23 170 6 72 21 187 34 257 21
106 31 136 61 181 32 48 38 66 45 139 4 45 12 95 18 109 6 14 24 37 41 52 17
14 45 30 63 35 18 6 42 13 53 15 11 3 43 3 70 0z"/>
<path d="M8530 8787 c-56 2 -98 -2 -124 -11 -21 -8 -42 -18 -46 -23 -4 -4 -28
-33 -53 -64 -24 -31 -50 -65 -56 -77 -6 -12 -20 -63 -30 -115 -11 -52 -27
-109 -36 -128 -10 -19 -28 -49 -42 -67 -13 -17 -30 -47 -38 -65 -9 -23 -11
-47 -5 -85 6 -37 5 -66 -5 -100 -8 -27 -34 -75 -57 -108 -24 -32 -71 -113
-104 -180 -46 -89 -66 -143 -79 -205 -9 -46 -21 -100 -27 -119 -6 -19 -23 -55
-38 -80 -16 -25 -36 -70 -45 -100 -10 -30 -44 -115 -77 -188 -43 -96 -66 -164
-84 -250 -14 -64 -33 -131 -42 -149 -9 -17 -37 -66 -62 -108 -25 -43 -64 -103
-87 -134 -23 -31 -54 -87 -69 -124 -20 -50 -43 -83 -82 -120 -29 -29 -85 -96
-123 -149 -42 -59 -83 -105 -102 -115 -18 -9 -103 -40 -190 -69 -111 -37 -190
-57 -260 -66 -56 -7 -119 -12 -140 -12 -25 0 -45 7 -58 21 -19 19 -21 34 -24
156 l-2 136 -47 93 c-25 51 -50 116 -55 144 -6 29 -8 183 -5 360 l6 309 30 65
c28 58 32 79 38 200 5 97 13 151 28 190 11 30 36 93 56 140 27 63 36 100 36
142 0 31 -4 68 -10 83 -5 14 -17 28 -26 32 -9 3 -26 0 -38 -7 -11 -8 -43 -25
-71 -38 -27 -13 -58 -31 -69 -41 -10 -9 -33 -45 -51 -81 -18 -36 -40 -92 -49
-125 -10 -33 -39 -100 -66 -150 -26 -49 -53 -115 -59 -146 -9 -41 -9 -69 0
-108 10 -50 10 -55 -23 -118 -22 -44 -64 -97 -126 -162 -51 -53 -102 -113
-113 -133 -10 -20 -25 -76 -34 -124 -8 -47 -15 -100 -15 -117 0 -17 -10 -65
-21 -106 -16 -56 -20 -91 -15 -133 3 -31 17 -90 31 -130 14 -40 32 -102 40
-138 7 -36 15 -105 16 -155 2 -49 -1 -149 -5 -221 -5 -72 -6 -143 -2 -157 3
-15 25 -49 49 -76 23 -26 55 -65 70 -85 16 -20 60 -58 99 -84 63 -42 77 -47
138 -50 52 -3 85 1 136 18 50 17 80 21 120 17 35 -4 86 1 146 14 51 11 156 24
233 28 109 6 151 12 187 29 26 11 63 32 81 46 18 14 64 33 102 41 38 9 77 21
87 26 11 6 53 44 94 86 41 41 81 88 89 104 9 16 24 33 34 39 11 5 37 10 59 10
27 0 47 -7 65 -24 14 -13 28 -39 31 -57 3 -19 10 -70 17 -114 6 -44 20 -113
31 -155 11 -41 26 -90 35 -107 8 -18 38 -49 65 -70 30 -21 73 -41 106 -49 32
-8 71 -14 87 -14 17 0 86 17 155 39 69 22 152 47 184 56 44 13 72 29 110 65
33 31 85 64 150 94 55 26 127 53 160 62 33 9 77 24 98 35 20 10 57 19 80 19
25 0 56 -8 74 -19 17 -11 42 -39 55 -62 13 -24 39 -54 58 -66 19 -13 65 -33
102 -44 58 -18 75 -19 130 -9 35 6 105 22 154 36 50 14 122 43 161 65 49 27
84 39 111 39 29 0 52 -9 83 -31 24 -17 66 -42 94 -55 28 -13 65 -24 81 -24 17
0 64 7 105 14 41 8 171 47 288 85 167 56 225 80 271 112 53 37 67 42 145 50
47 5 101 15 119 23 18 7 49 27 68 43 19 16 74 60 122 96 76 58 93 67 130 67
24 0 48 -5 55 -12 7 -7 12 -23 12 -37 0 -15 -12 -68 -26 -118 -15 -54 -24
-103 -20 -118 3 -13 34 -57 69 -97 34 -39 83 -93 108 -118 25 -26 67 -57 95
-70 33 -16 65 -24 99 -24 28 1 65 9 83 18 17 9 47 30 65 46 19 16 65 43 102
60 37 17 84 44 103 62 20 17 58 41 86 54 28 13 62 24 76 24 14 0 42 -8 64 -18
23 -10 55 -39 80 -71 33 -44 58 -63 136 -103 52 -26 119 -53 149 -58 37 -7 74
-7 118 1 36 6 77 21 96 35 17 13 47 31 65 39 18 9 75 24 127 35 54 10 133 36
183 58 48 22 98 43 112 47 14 4 50 20 80 35 30 15 64 38 75 50 11 12 32 28 47
36 18 9 63 14 135 14 59 1 128 5 153 11 25 5 67 13 93 16 41 5 51 2 72 -17 13
-13 34 -52 46 -88 14 -43 34 -77 59 -102 28 -28 52 -41 89 -49 29 -6 72 -11
97 -11 25 0 55 5 67 11 12 7 40 29 63 49 22 21 63 45 90 54 30 10 84 44 136
86 48 39 93 80 99 92 7 13 13 77 14 157 1 75 7 158 15 184 7 26 10 64 8 85 -3
21 -16 61 -28 90 -18 41 -32 58 -61 73 -23 11 -79 23 -141 30 -57 6 -155 9
-218 6 -63 -2 -176 -15 -250 -27 -115 -18 -151 -29 -244 -72 -87 -40 -133 -54
-225 -70 -64 -11 -154 -33 -201 -49 -47 -15 -130 -38 -185 -50 -69 -14 -122
-33 -171 -60 -47 -25 -84 -39 -108 -39 -30 0 -46 9 -87 47 -30 28 -65 75 -85
114 -18 37 -47 81 -65 98 -17 18 -50 41 -72 53 -36 18 -54 20 -142 16 -81 -4
-112 -10 -157 -30 -34 -16 -87 -55 -135 -101 -43 -41 -88 -79 -100 -86 -12 -6
-39 -11 -60 -11 -26 0 -47 7 -62 21 -12 11 -26 32 -32 46 -5 13 -9 56 -9 95 0
39 5 89 12 112 8 30 32 61 85 112 40 39 102 115 138 169 45 68 72 122 90 179
16 52 38 97 61 126 20 25 43 61 51 80 8 19 26 66 40 105 14 38 54 123 88 190
35 66 86 161 114 210 28 50 51 95 51 101 0 6 13 29 29 51 16 22 36 54 45 72
11 21 20 78 27 173 8 116 16 160 43 242 18 56 36 128 39 162 4 33 16 82 27
108 11 27 25 79 32 117 8 53 8 79 -1 109 -7 22 -25 56 -42 75 -16 18 -46 39
-66 46 -20 6 -55 9 -80 5 -25 -3 -76 -22 -115 -43 -41 -21 -80 -51 -96 -72
-15 -20 -50 -63 -79 -95 -33 -37 -60 -80 -73 -115 -11 -31 -43 -101 -72 -156
-28 -55 -71 -122 -96 -150 -24 -27 -56 -74 -72 -105 -15 -30 -42 -73 -60 -95
-18 -22 -50 -76 -72 -120 -22 -44 -52 -93 -65 -109 -13 -16 -36 -52 -50 -80
-14 -28 -45 -76 -69 -106 -23 -30 -53 -82 -65 -115 -12 -33 -39 -83 -61 -112
-24 -31 -65 -114 -104 -210 -36 -87 -79 -205 -95 -263 -16 -57 -44 -129 -62
-159 -17 -30 -58 -83 -90 -117 -40 -43 -80 -74 -128 -98 -39 -20 -90 -52 -113
-71 -23 -19 -73 -48 -112 -66 -38 -17 -133 -63 -211 -101 -79 -39 -150 -79
-159 -89 -10 -11 -30 -19 -47 -19 -18 0 -56 18 -101 47 -39 26 -88 61 -108 79
-20 18 -54 37 -75 43 -21 6 -58 11 -83 11 -25 0 -65 -5 -90 -11 -25 -5 -76
-29 -115 -52 -38 -23 -92 -62 -118 -86 -44 -41 -54 -45 -108 -49 -48 -4 -64
-1 -80 14 -20 18 -21 26 -14 115 3 53 3 112 0 132 -4 21 -22 50 -43 73 -21 20
-65 50 -100 66 -54 26 -72 30 -130 26 -44 -2 -82 -11 -110 -26 -24 -12 -76
-51 -117 -86 -45 -38 -97 -72 -130 -84 -31 -12 -75 -35 -98 -51 -23 -16 -73
-59 -112 -95 -47 -45 -93 -78 -140 -100 -39 -18 -86 -47 -105 -63 -19 -17 -55
-40 -80 -53 -24 -12 -69 -31 -99 -41 -30 -11 -64 -19 -77 -19 -13 0 -35 10
-49 23 -18 15 -30 38 -36 70 -5 27 -5 75 1 115 4 37 15 110 23 162 9 52 20
142 26 200 7 76 20 132 45 203 20 54 36 108 36 120 0 12 5 39 11 60 5 21 30
60 54 87 25 28 47 60 50 73 3 12 12 84 20 160 12 113 23 162 60 270 25 72 55
177 66 232 11 55 39 143 61 195 22 52 53 133 69 180 16 47 34 114 40 150 5 35
19 84 29 108 11 24 27 80 36 124 12 59 15 119 12 231 -3 138 -5 157 -28 202
-19 37 -35 55 -65 70 -28 13 -66 20 -125 22z"/>
<path d="M4754 8579 c-16 0 -77 -13 -136 -28 -60 -15 -116 -35 -128 -46 -12
-11 -40 -51 -61 -90 -21 -38 -48 -99 -60 -134 -19 -57 -32 -75 -106 -146 -68
-65 -87 -90 -99 -130 -8 -28 -18 -93 -21 -145 -3 -57 -1 -118 6 -152 7 -34 22
-67 37 -83 22 -24 31 -27 70 -22 27 3 56 15 77 31 17 15 59 45 91 66 40 27 70
40 93 40 19 0 52 -9 74 -20 21 -11 72 -25 112 -30 39 -5 103 -10 140 -10 43 0
82 6 103 16 18 9 51 36 74 60 24 26 40 53 40 68 0 14 -16 44 -39 70 -22 25
-45 62 -52 83 -7 21 -12 89 -13 153 0 63 4 145 8 181 7 50 5 78 -8 120 -8 31
-24 63 -33 71 -10 9 -46 30 -79 47 -34 17 -74 31 -90 30z"/>
</g>
</svg>
