<?xml version="1.0" encoding="UTF-8" standalone="no"?>
<!-- Created with Inkscape (http://www.inkscape.org/) -->

<svg
   xmlns:dc="http://purl.org/dc/elements/1.1/"
   xmlns:cc="http://creativecommons.org/ns#"
   xmlns:rdf="http://www.w3.org/1999/02/22-rdf-syntax-ns#"
   xmlns:svg="http://www.w3.org/2000/svg"
   xmlns="http://www.w3.org/2000/svg"
   xmlns:sodipodi="http://sodipodi.sourceforge.net/DTD/sodipodi-0.dtd"
   xmlns:inkscape="http://www.inkscape.org/namespaces/inkscape"
   width="285.83112"
   height="34.067253"
   id="svg2"
   version="1.1"
   inkscape:version="0.48.4 r9939"
   sodipodi:docname="Nouveau document 1">
  <defs
     id="defs4" />
  <sodipodi:namedview
     id="base"
     pagecolor="#ffffff"
     bordercolor="#666666"
     borderopacity="1.0"
     inkscape:pageopacity="0.0"
     inkscape:pageshadow="2"
     inkscape:zoom="1"
     inkscape:cx="203.5"
     inkscape:cy="125.35334"
     inkscape:document-units="px"
     inkscape:current-layer="layer1"
     showgrid="false"
     inkscape:window-width="1366"
     inkscape:window-height="716"
     inkscape:window-x="-8"
     inkscape:window-y="-8"
     inkscape:window-maximized="1"
     fit-margin-top="0"
     fit-margin-left="0"
     fit-margin-right="0"
     fit-margin-bottom="0" />
  <metadata
     id="metadata7">
    <rdf:RDF>
      <cc:Work
         rdf:about="">
        <dc:format>image/svg+xml</dc:format>
        <dc:type
           rdf:resource="http://purl.org/dc/dcmitype/StillImage" />
        <dc:title></dc:title>
      </cc:Work>
    </rdf:RDF>
  </metadata>
  <g
     inkscape:label="Calque 1"
     inkscape:groupmode="layer"
     id="layer1"
     transform="translate(-171.5,-463.64826)">
    <path
       style="fill:#000000"
       d="m 171.5,485.33893 c 0,-6.97379 0.12908,-12.67961 0.28685,-12.67961 1.61485,0 13.77071,6.51421 20.57119,11.0239 9.70346,6.43478 12.60799,7.80868 13.86045,6.55623 0.97433,-0.97434 1.11483,-11.51532 0.20119,-15.09518 -0.75449,-2.95626 0.69066,-3.42798 2.928,-0.95575 1.05643,1.16734 1.12971,1.53006 0.30965,1.53286 -0.84554,0.003 -1.09258,1.64329 -1.16033,7.70477 -0.10596,9.47994 -0.76217,10.55208 -5.31419,8.68252 -3.47285,-1.42634 -8.99697,-4.79279 -14.47932,-8.82384 -3.82491,-2.81237 -9.97157,-6.14081 -13.16808,-7.13056 -1.69424,-0.5246 -1.69968,-0.49512 -1.9115,10.35149 -0.15361,7.86661 -0.47697,10.96551 -1.16816,11.19518 C 171.7168,497.94649 171.5,495.14226 171.5,485.33893 z m 68.48889,9.14761 c -0.66218,-3.52971 0.33468,-23.27211 1.20215,-23.80823 1.59281,-0.98441 1.8325,0.82079 0.94259,7.09929 -1.83564,12.95097 -0.955,17.27209 1.55503,7.63013 1.65473,-6.35646 2.2938,-14.92158 1.36447,-18.28732 -0.78113,-2.82903 -0.0613,-4.56371 1.11747,-2.69301 0.33556,0.53252 1.21271,3.32509 1.94921,6.2057 2.31569,9.0571 5.87695,13.19627 9.37938,10.90139 4.59978,-3.01389 7.97122,-7.40019 8.38189,-10.90498 0.1402,-1.19652 0.29414,-2.30363 0.34209,-2.46026 0.26914,-0.87915 2.38098,1.85709 2.38098,3.08495 0,2.31109 2.64446,6.87653 5.80913,10.02898 5.42001,5.39908 14.6356,6.43001 24.4969,2.74042 4.02455,-1.50577 4.10095,-1.59167 4.10095,-4.611 0,-1.69215 0.58446,-4.06605 1.29879,-5.27532 3.69676,-6.25811 11.8657,-4.51227 8.5247,1.82185 -0.98045,1.85883 -3.75267,4.62579 -5.8053,5.79429 -1.06328,0.60531 -1.16766,1.05048 -0.50244,2.14291 2.63111,4.32085 9.69249,4.08508 18.7477,-0.62597 6.27311,-3.26363 11.37893,-8.02587 11.37893,-10.61324 0,-0.8476 0.51029,-1.527 1.1469,-1.527 0.80682,0 1.1469,0.81521 1.1469,2.74928 0,6.27905 4.83293,9.95178 12.2147,9.28243 8.29787,-0.75243 16.07549,-6.39517 16.07549,-11.66295 0,-3.55968 1.26837,-4.00227 2.56645,-0.89554 2.50708,6.00031 8.85253,8.19795 24.57683,8.51179 11.24642,0.22446 52.25664,-0.69071 59.48271,-1.32739 3.02909,-0.26689 3.62666,-0.11386 3.43531,0.87974 -0.19958,1.03634 -2.18874,1.22175 -14.37134,1.3395 -7.77684,0.0752 -23.94569,0.25579 -35.93079,0.40138 -24.04956,0.29215 -28.58308,-0.21744 -34.45428,-3.87278 l -3.35932,-2.09148 -3.48659,3.57955 c -4.71769,4.84347 -10.77876,7.16257 -17.38263,6.65098 -5.41949,-0.41984 -8.06092,-1.83574 -10.20544,-5.47044 l -1.48552,-2.51777 -2.85194,2.63169 c -1.56856,1.44743 -5.77653,4.05845 -9.35103,5.80227 -5.44858,2.65809 -7.26311,3.17404 -11.22568,3.19192 -4.18479,0.0189 -4.99127,-0.23206 -7.03569,-2.18907 l -2.3091,-2.21038 -5.58021,1.82808 c -7.48488,2.45206 -15.60609,2.48104 -20.56131,0.0734 -3.39886,-1.65144 -7.03599,-5.38818 -9.08324,-9.33198 -0.54575,-1.05133 -1.06036,-1.99752 -1.14358,-2.10265 -0.0832,-0.10513 -2.38775,2.0453 -5.12119,4.77875 -2.8554,2.85539 -5.63086,4.96989 -6.52342,4.96989 -2.19305,0 -5.16593,-2.5472 -6.66853,-5.71369 -1.59936,-3.37041 -2.73877,-3.45881 -2.73213,-0.21195 0.006,3.16993 -3.72346,16.6854 -4.97704,18.03439 -0.77374,0.83264 -1.04617,0.5082 -1.46991,-1.75052 z m 67.9043,-15.01334 c 2.32826,-1.8314 4.24291,-5.21983 3.74221,-6.62273 -1.10888,-3.10697 -7.09507,2.11472 -7.09507,6.18897 0,2.44807 0.68022,2.53607 3.35286,0.43376 z"
       id="path2996"
       inkscape:connector-curvature="0" />
  </g>
</svg>
