<?xml version="1.0" encoding="UTF-8"?>
<svg version="1.1" xmlns="http://www.w3.org/2000/svg" width="107" height="28" >
<path fill="#231F20" d="M4.485,22.652c3.26-3.63,6.625-7.178,10.145-10.558c0.952-0.914,1.934-1.792,2.944-2.641 c1.45-1.219,2.776-2.728,2.205,0.277c-0.97,5.102-3.51,8.531-5.792,13.021c-0.104,0.205-0.068,0.504,0.162,0.615 c0.025,0.012,0.05,0.024,0.075,0.037c0.199,0.096,0.377,0.067,0.545-0.071c3.953-3.237,7.461-7.217,11.1-10.807 c2.172-2.143,4.399-4.243,6.858-6.056c2.229-1.644,3.89-1.178,6.321-0.368c0.552,0.184,0.787-0.686,0.239-0.868 c-2.183-0.728-3.471-1.435-5.558-0.453c-3.593,1.69-6.618,5.254-9.384,7.983c-3.283,3.239-6.561,6.48-9.892,9.669 c0.167,0.132,0.334,0.264,0.501,0.395c0.406-0.655,0.829-1.299,1.268-1.933c0.809-1.207,1.536-2.431,2.215-3.714 c1.185-2.235,1.71-4.756,2.208-7.211c1.021-5.038-2.548-2.182-4.824-0.197c-4.288,3.74-8.174,8.015-11.973,12.243 C3.462,22.446,4.096,23.084,4.485,22.652L4.485,22.652 M21.394,22.222c2.337-1.654,5.051-3.252,7.028-5.346c0.341-0.362-0.105-0.998-0.545-0.707 c-1.015,0.672-5.395,4.665-4.221,6.156c2.054,2.61,9.178-2.909,10.567-4.764c0.31-0.414-0.362-0.912-0.707-0.545 c-1.078,1.148-3.726,3.353-3.726,5.095c0,2.045,5.25-1.884,5.407-1.994c2.322-1.628,4.485-3.5,6.616-5.366 c1.017-0.891,1.998-1.82,2.977-2.751c0.57-0.542,3.554-3.794,1.994-1.285c-2.762,4.444-6.677,8.351-10.268,12.134 c-0.4,0.421,0.215,1.037,0.637,0.637c0.956-0.909,1.955-1.757,3.004-2.558c0.696-0.53,1.52-0.924,2.389-0.498 c-0.382-0.187-1.808,3.133-1.672,3.003c2.212-2.115,4.446-4.207,6.69-6.288c3.109-2.882,6.211-5.9,9.676-8.356 c1.849-1.311,4.015-2.391,6.189-3.008c1.648-0.468-1.421,2.617-1.642,2.851c-0.963,1.023-1.867,2.106-2.78,3.174 c-1.778,2.081-3.508,4.198-5.345,6.228c-1.386,1.532-5.136,3.729-1.967,0.716c4.437-4.219,10.117-8.706,15.271-11.985 c0.944-0.307,1.889-0.614,2.834-0.921c1.47,2.054,1.022,3.408-1.344,4.063c-1.025,0.664-1.508,1.066-2.442,1.807 c-0.766,0.607-1.632,1.628-1.632,2.675c0,3.141-1.161,3.764-3.801,5.132c-2.014,1.044-4.186,1.741-6.224,2.725 c-0.46,0.222-0.134,0.985,0.347,0.823c2.729-0.921,5.426-1.103,8.253-1.529c2.651-0.4,3.611-1.036,5.867-2.309 c0.359-0.203,2.5-0.315,1.078-0.822c-0.633-0.226-1.063-0.122-1.701,0.068c-1.651,0.493-4.23,2.729-4.833,4.386 c-0.074,0.202,0.052,0.395,0.207,0.508c1.161,0.856,8.668-4.219,10.269-4.806c5.834-2.137,11.89-8.409,16.143-12.747 c0.406-0.415-0.226-1.048-0.637-0.637c-5.184,5.188-10.934,10.339-15.281,16.263c-0.431,0.587-1.18,2.548,0.397,1.72 c2.29-1.203,4.293-3.073,6.325-4.64c0.877-0.677,2.812-1.664,3.35-2.714c0.216-0.422-0.208-0.8-0.616-0.616 c-2.268,1.029-3.418,3.662-4.745,5.578c-0.306,0.442,0.343,0.867,0.707,0.545c0.524-0.463,1.067-0.879,1.632-1.302 c0.55-0.399,1.121-0.767,1.712-1.102c1.568-1.353,2.832-0.972,3.791,1.143c-0.88,0.993-2.227,2.28-0.46,1.085 c4.387-2.969,12.114-1.94,17.007-1.692c0.581,0.029,0.578-0.871,0-0.9c-3.146-0.159-16.77-1.845-18.601,2.998 c-0.15,0.398,0.343,0.671,0.661,0.508c1.242-0.635,4.856-3.457,1.893-4.656c-2.038-0.824-3.884,0.216-5.641,1.281 c-0.761,0.461-1.458,1.034-2.15,1.59c-0.581,0.298-0.462,0.555,0.356,0.771c0.457-0.66,0.914-1.32,1.371-1.98 c0.725-1.047,1.194-1.911,2.204-2.62c1.497-1.052-0.497-0.591-1.429,0.144c-2.449,1.929-4.885,4.047-7.562,5.667 c-0.603,0.365,0.006,0.463,0.355-0.052c0.532-0.784,1.191-1.496,1.811-2.209c3.012-3.467,6.251-6.746,9.459-10.029 c1.152-1.18,2.311-2.353,3.473-3.523c0.197-0.198,0.394-0.396,0.591-0.593c-0.721-0.415-1.271-0.29-1.65,0.373 c-0.677,0.66-1.387,1.287-2.09,1.918c-4.174,3.744-8.769,8.176-14.132,9.967c-1.969,0.658-3.808,2.018-5.575,3.076 c-0.817,0.489-1.64,1.014-2.52,1.386c1.552-0.655,4.124-4.451,5.933-3.005c0.22,0.175,0.552,0.183,0.707-0.091 c0.212-0.376,0.142-0.738,0.033-1.136c-0.04-0.145-0.164-0.282-0.314-0.314c-1.572-0.335-3.229,1.141-4.422,1.982 c-2.44,1.719-7.075,0.855-10.044,1.732c-1.688,0.498-0.993,1.26,0.491,0.633c2.35-0.994,4.677-1.991,6.879-3.285 c1.084-0.637,2.862-2.026,2.348-3.54c-1.507-4.438,5.774-4.402,6.484-7.78c0.29-1.378-0.16-2.184-1.445-2.72 c-2.725-1.138-6.493,2.584-8.211,4.03c-3.937,3.313-8.312,6.137-12.046,9.688c-2.179,2.072-0.592,4.038,1.735,2.022 c3.537-3.063,6.324-6.983,9.391-10.495c0.633-0.726,4.303-3.588,3.459-5.029C62.322,0.741,42.136,20.98,40.182,22.849 c-0.424,0.406,0.201,1.01,0.637,0.637c0.175-0.151,4.125-2.888,2.439-3.707c-2.187-1.063-3.221,0.046-5.105,1.599 c-1.118,0.921-1.652,2.805-0.285,1.348c1.724-1.836,3.407-3.711,5.062-5.61c1.249-1.432,6.615-6.632,5.766-8.739 c-0.092-0.228-0.296-0.384-0.554-0.314c-1.242,0.339-2.255,1.616-3.126,2.454c-2.304,2.22-4.659,4.356-7.125,6.396 c-1.343,1.111-2.733,2.137-4.157,3.135c-0.361,0.253-2.692,1.28-2.832,1.558c0.716-1.425,2.081-2.693,3.164-3.861 c0.334-0.36-1.469,0.285-1.734,0.542c-1.406,1.358-3.239,2.217-5.016,2.949c-4.303,1.77-1.445-1.814-0.151-3.16 c0.337-0.351,0.689-0.686,1.044-1.018c-0.247-0.821-0.563-0.929-0.948-0.324c-0.668,0.56-1.353,1.099-2.056,1.615 c-1.399,1.062-2.831,2.083-4.265,3.098C20.47,21.777,20.919,22.558,21.394,22.222L21.394,22.222 M30.714,11.101c0.389,0.055,0.778,0.111,1.167,0.167c0.567,0.081,0.812-0.786,0.239-0.868 c-0.389-0.055-0.778-0.111-1.167-0.167C30.386,10.152,30.141,11.019,30.714,11.101L30.714,11.101 M94.714,22.101c0.333,0.055,0.667,0.111,1,0.167c0.567,0.094,0.811-0.773,0.239-0.868 c-0.333-0.055-0.667-0.111-1-0.167C94.386,21.139,94.143,22.006,94.714,22.101L94.714,22.101z"/>
</svg>