<?xml version="1.0" encoding="UTF-8" standalone="no"?>
<!-- Created with Inkscape (http://www.inkscape.org/) -->

<svg
   xmlns:dc="http://purl.org/dc/elements/1.1/"
   xmlns:cc="http://creativecommons.org/ns#"
   xmlns:rdf="http://www.w3.org/1999/02/22-rdf-syntax-ns#"
   xmlns:svg="http://www.w3.org/2000/svg"
   xmlns="http://www.w3.org/2000/svg"
   version="1.1"
   width="189.62033"
   height="280.85333"
   id="svg3020">
  <metadata
     id="metadata3026">
    <rdf:RDF>
      <cc:Work
         rdf:about="">
        <dc:format>image/svg+xml</dc:format>
        <dc:type
           rdf:resource="http://purl.org/dc/dcmitype/StillImage" />
        <dc:title></dc:title>
      </cc:Work>
    </rdf:RDF>
  </metadata>
  <defs
     id="defs3024" />
  <path
     d="m 109.89367,269.02631 c -5.94379,-11.10607 2.80173,-48.09572 19.02105,-80.45054 7.63466,-15.22986 7.85853,-15.8756 6.44892,-18.6015 -1.99229,-3.85265 -5.7433,-6.10719 -12.96316,-7.79147 -7.87822,-1.83786 -10.59938,-3.64844 -10.59938,-7.05251 0,-1.51463 -0.36016,-2.26447 -0.82949,-1.72695 -1.45548,1.66695 -3.34957,14.00867 -3.00413,19.57463 0.2989,4.81595 0.11637,5.40641 -1.75389,5.67363 -3.05023,0.43581 -4.12222,-1.46769 -5.23649,-9.29826 -0.54784,-3.85 -1.432527,-8.125 -1.965977,-9.5 -0.83128,-2.14269 -1.05467,-1.57098 -1.56296,4 -0.32618,3.575 -0.49271,7.625 -0.37006,9 0.19273,2.16067 -0.1842,2.5 -2.777,2.5 -2.70071,0 -3.03205,-0.34918 -3.3213,-3.5 -0.17671,-1.925 -0.786619,-3.95 -1.35535,-4.5 -0.708973,-0.68562 -0.822165,0.006 -0.360053,2.2008 0.908201,4.313 -0.360841,12.2992 -1.954396,12.2992 -0.695206,0 -1.860737,0.71901 -2.590068,1.5978 -0.927084,1.11707 -2.317846,1.43686 -4.622445,1.06287 -2.87997,-0.46735 -3.300864,-0.25864 -3.331823,1.6522 -0.09737,6.00978 -10.683043,16.36166 -20.476846,20.0246 -2.193245,0.82029 -7.045689,2.65493 -10.783208,4.07698 -9.886739,3.76171 -25.704511,3.47964 -25.704511,-0.45837 0,-0.58682 2.097197,-0.72707 5.279446,-0.35306 6.405457,0.75284 20.387813,-2.4843 28.762049,-6.65886 8.490159,-4.23236 14.661573,-11.05226 17.284003,-19.1002 0.979611,-3.00632 -6.832831,-7.84396 -12.66743,-7.84396 -2.84415,0 -3.551018,0.43734 -4.073862,2.52052 -0.347936,1.38629 -0.251473,3.29879 0.214361,4.25 1.202284,2.45501 -0.01899,7.64825 -1.883025,8.00723 -1.533341,0.29529 -2.883991,-2.81102 -4.419325,-10.16386 l -0.602644,-2.88611 -2.751505,2.63611 c -2.757155,2.64152 -8.395682,3.65281 -9.590205,1.72003 -1.324234,-2.14266 1.558292,-6.12545 5.915629,-8.17364 3.695273,-1.73699 4.532508,-2.61853 4.532508,-4.77239 0,-2.97012 -3.723816,-23.19504 -4.394085,-23.86531 -0.616823,-0.61682 -5.566117,2.58769 -9.212894,5.96506 l -3.106979,2.87745 1.861299,11.19246 c 1.023714,6.15585 2.540122,14.34245 3.369796,18.19245 0.829674,3.85 1.50273,8.31457 1.49568,9.92126 -0.007,1.60669 0.706266,3.71584 1.585144,4.68699 2.033203,2.24666 1.068769,3.87634 -1.848957,3.12434 -2.957656,-0.7623 -4.677935,-3.10265 -4.717201,-6.41749 -0.01749,-1.4767 -0.494536,-3.90198 -1.060098,-5.38952 -0.919711,-2.41902 -1.811386,-8.58528 -3.640532,-25.17558 -0.318358,-2.8875 -0.942467,-5.25 -1.386909,-5.25 -1.051997,0 -4.117823,4.38323 -6.87288,9.8262 -1.684226,3.32741 -1.92537,4.64481 -1.044495,5.7062 1.443383,1.73917 0.433077,3.4676 -2.026889,3.4676 -3.032029,0 -3.095164,-1.30824 -0.443713,-9.19429 2.244943,-6.67699 3.431524,-8.42686 11.279371,-16.63385 4.823773,-5.04452 9.386179,-9.17186 10.138679,-9.17186 0.7525,0 2.116351,-0.67708 3.030781,-1.50463 1.375015,-1.24437 1.52875,-2.49842 0.888782,-7.25 -0.4256,-3.15995 -0.967225,-8.22037 -1.203613,-11.24537 -0.397247,-5.08349 -1.460443,-11.66285 -3.716703,-23.000004 -0.492562,-2.475 -1.189971,-7.0875 -1.549799,-10.25 -0.359827,-3.1625 -1.052381,-5.75 -1.539008,-5.75 -2.002674,0 -1.582663,22.610364 0.703126,37.851264 1.427634,9.51901 1.482644,11.48711 0.340803,12.1928 -1.68856,1.04359 -3.793109,-0.59407 -5.144208,-4.00296 -0.553933,-1.39761 -1.354495,-6.8161 -1.779026,-12.0411 -1.209211,-14.88259 -3.337844,-28.052725 -4.477802,-27.704767 -3.708225,1.13189 -7.983984,19.382637 -7.123516,30.406167 0.588966,7.5453 -0.243729,9.50656 -3.048066,7.17916 -2.2800762,-1.89229 -0.937807,-25.22277 1.828025,-31.773581 4.040058,-9.568782 3.844102,-9.363908 8.458806,-8.843764 3.608956,0.406782 4.288617,0.17764 4.880155,-1.645309 0.377989,-1.16485 0.614637,-2.887735 0.525885,-3.828633 -0.312573,-3.313713 1.914527,-5.9289 4.768299,-5.599209 2.282102,0.263647 2.942947,1.122299 4.425113,5.749662 0.958303,2.991852 3.849753,17.054352 6.425443,31.250004 l 4.683072,25.81027 4.40148,0 c 3.576169,0 4.975128,0.57365 7.460812,3.05933 2.911261,2.91126 3.029552,3.34425 2.444041,8.94612 -0.409789,3.92065 -1.791266,8.10348 -4.136255,12.52372 -1.93653,3.65032 -3.520964,6.98744 -3.520964,7.41583 0,0.62547 9.504568,3.055 11.951457,3.055 0.339842,0 0.522494,-3.58809 0.405894,-7.97353 l -0.212001,-7.97353 3.96043,-3.13672 c 3.959579,-3.13604 4.660793,-3.22297 10.802151,-1.33902 2.102288,0.6449 2.337845,0.47065 1.855774,-1.37279 -0.858228,-3.28187 1.299376,-5.47767 4.574646,-4.65563 1.995968,0.50096 2.919347,1.48971 3.335798,3.57196 0.695011,3.47505 2.325851,3.82684 2.325851,0.5017 0,-3.12054 2.20481,-4.8444 5.68478,-4.4447 2.213847,0.25428 2.912197,0.93771 3.310467,3.23976 0.67034,3.87461 2.59792,4.36531 3.44129,0.87605 1.45817,-6.03289 10.06534,-21.61779 12.89082,-23.34125 2.64254,-1.61187 6.14494,-1.61516 7.13902,-0.007 0.62197,1.00636 -2.43438,12.29241 -3.76617,13.90719 -0.61364,0.74403 -1.84305,4.24214 -2.73202,7.77357 -1.89697,7.53573 -1.52353,8.15446 5.74065,9.51156 6.31977,1.18066 13.06131,4.56253 13.81238,6.92894 0.89173,2.8096 1.84431,2.40156 4.24151,-1.81686 4.99366,-8.78749 13.21272,-20.61519 13.2245,-19.03079 0.0144,1.94496 -3.97717,10.10447 -5.19241,10.61412 -0.43715,0.18334 -0.79482,0.75964 -0.79482,1.28068 0,0.52103 -1.77771,4.08448 -3.95046,7.91877 l -3.95045,6.97143 0.31874,10.28505 c 0.34359,11.08693 -0.45053,17.88851 -3.48292,29.83103 -1.0642,4.19116 -1.93491,8.71366 -1.93491,10.05 0,1.33634 -0.38458,2.85721 -0.85463,3.37971 -0.47005,0.5225 -2.08826,4.775 -3.59603,9.45 -1.50776,4.675 -3.31653,9.85 -4.01948,11.5 -1.25212,2.93902 -3.17943,7.88419 -5.50893,14.13505 -1.61531,4.33471 -7.35824,10.36525 -9.87062,10.36525 -1.14397,0 -2.51995,-0.82216 -3.05774,-1.82703 z m 12.46389,-16.39527 c 7.96422,-18.3159 15.22742,-47.57649 15.45887,-62.2777 0.16935,-10.75695 0.23652,-10.60424 -2.41932,-5.5 -1.2878,2.475 -3.52373,6.71377 -4.96873,9.41948 -1.445,2.70571 -2.62728,5.94165 -2.62728,7.19098 0,1.24933 -0.40916,2.52438 -0.90924,2.83345 -0.86139,0.53236 -6.08514,16.43445 -8.23081,25.05609 -0.54751,2.2 -1.38986,5.35 -1.8719,7 -1.45389,4.97663 -2.98308,21.75577 -2.3425,25.70319 0.51815,3.193 0.79248,3.50163 2.02072,2.27339 0.78165,-0.78165 3.43224,-6.04614 5.89019,-11.69888 z m -39.756457,-71.9777 c 1.483769,-1.48377 1.661356,-20.39683 0.2,-21.3 -0.55,-0.33992 -1,0.28616 -1,1.39129 0,1.10513 -0.586779,2.36919 -1.303954,2.80902 -0.717175,0.43983 -2.088287,2.48719 -3.046917,4.54969 -0.95863,2.0625 -2.425644,3.75 -3.260031,3.75 -1.231083,0 -1.080856,0.80117 0.796917,4.25 3.218561,5.9114 5.117695,7.04629 7.613985,4.55 z m -8.3,-16.8 c 0.853248,-1.65 1.989804,-3 2.52568,-3 1.234727,0 1.230594,-2.04784 -0.0081,-4 -1.482983,-2.33721 -5.213528,1.95839 -5.566734,6.40991 -0.347075,4.37459 0.961186,4.62777 3.049154,0.59009 z m -21.5,-2.91667 c 0,-1.05416 0.406304,-2.06666 0.902898,-2.25 1.50815,-0.55678 2.946211,-12.67757 1.689683,-14.24159 -1.320523,-1.64368 -6.425027,-2.67186 -7.182225,-1.44669 -0.298051,0.48225 0.211222,4.26201 1.131718,8.39946 0.920495,4.13746 1.442224,8.40753 1.159397,9.48907 -0.331289,1.26684 -0.0139,1.96642 0.892149,1.96642 0.773509,0 1.40638,-0.8625 1.40638,-1.91667 z m -2.275627,-41.31985 c -2.036711,-1.51842 -4.704471,-9.90144 -4.698236,-14.76348 0.01131,-8.819469 4.795308,-7.670519 6.661732,1.59992 2.480619,12.3211 1.922788,16.06088 -1.963496,13.16356 z m 7.442725,-6.42938 c -0.512755,-0.91624 -0.700865,-3.39124 -0.418021,-5.5 0.324532,-2.41957 0.111213,-3.8341 -0.578204,-3.8341 -0.600856,0 -1.650142,-2.7 -2.331746,-6.000004 -0.681604,-3.3 -1.536843,-6 -1.900532,-6 -0.363688,0 -0.446194,-1.125 -0.183346,-2.5 0.299397,-1.566194 0.02035,-2.5 -0.74708,-2.5 -0.812397,0 -1.010305,-0.855355 -0.587592,-2.539575 0.397557,-1.583994 0.06207,-3.360959 -0.891592,-4.722506 -0.840942,-1.200612 -1.528985,-3.6908 -1.528985,-5.533749 0,-2.65004 0.365989,-3.281948 1.75,-3.021508 1.750746,0.32945 6.240073,11.620425 7.687049,19.333474 0.359468,1.916125 0.993517,3.483864 1.408998,3.483864 0.415482,0 1.75175,-2.050744 2.969485,-4.55721 1.557718,-3.206252 3.211081,-4.973789 5.577319,-5.962467 l 3.363256,-1.405258 -1.723049,-5.287533 c -0.947677,-2.908142 -2.016046,-6.797503 -2.374152,-8.643024 -0.542451,-2.795547 -0.387794,-3.25445 0.926783,-2.75 0.867837,0.333021 1.985043,0.605492 2.482678,0.605492 1.247383,0 4.108506,7.096692 3.500213,8.68188 -0.271757,0.708186 0.342003,1.735081 1.36391,2.28199 1.123509,0.601284 2.346869,3.078041 3.094635,6.265254 0.680142,2.898982 1.431493,5.612675 1.66967,6.030429 0.238176,0.417755 2.698987,-1.719745 5.468469,-4.75 4.787297,-5.238066 8.769776,-7.04171 10.252166,-4.643152 0.29451,0.47652 -1.01499,3.96402 -2.91,7.75 l -3.445463,6.883599 2.621763,2.159362 c 1.44197,1.18765 4.69053,2.450782 7.21902,2.806961 6.145347,0.865671 8.097247,1.488081 8.097247,2.582011 0,1.9938 -4.98846,1.97681 -10.967387,-0.0373 -7.067663,-2.380922 -8.730814,-2.168107 -9.205046,1.17787 -0.236675,1.66988 -1.084177,2.39833 -3.054401,2.62534 -2.128817,0.24528 -2.67709,0.79355 -2.5,2.5 0.198192,1.90979 -0.327173,2.22549 -4.160342,2.50001 -3.495527,0.25034 -5.389003,-0.30857 -9.316445,-2.75 -2.711097,-1.68531 -5.29634,-3.0642 -5.744984,-3.0642 -0.448644,0 -0.213495,1.6875 0.522553,3.75 0.736048,2.0625 1.358021,4.3125 1.382162,5 0.06655,1.89533 -5.693038,1.5425 -6.789009,-0.4159 z m 19.840218,-8.35176 c 1.09994,-2.6555 0.950221,-3.70566 -1.247467,-8.750007 -1.373584,-3.152786 -2.778292,-6.548359 -3.121574,-7.545719 -0.827202,-2.403323 -1.920863,-1.586505 -5.069499,3.786237 -3.199477,5.459494 -2.72912,8.301169 2.071721,12.516359 4.31383,3.7876 5.795671,3.78621 7.366819,-0.007 z m 30.389921,-9.170158 c -1.9652,-3.787787 -8.397237,-19.915552 -8.397237,-21.055309 0,-0.416282 1.114627,-0.756877 2.476947,-0.756877 3.07707,0 5.0613,2.89697 6.50685,9.5 0.60203,2.75 1.70939,5.468475 2.46078,6.041055 0.7514,0.572581 1.51917,2.81682 1.70616,4.987199 0.45618,5.294915 -2.28796,6.03611 -4.7535,1.283932 z M 42.830063,79.892396 c -0.809071,-0.511673 -1.180484,-1.22087 -0.82536,-1.575993 0.874348,-0.874349 4.7964,0.437516 4.7964,1.604321 0,1.189884 -2.068096,1.175131 -3.97104,-0.02833 z M 140.10873,62.12342 c -5.33516,-6.358642 -9.21792,-10.223519 -18.12215,-18.038686 -3.30154,-2.897731 -6.47196,-6.614437 -7.04538,-8.259346 -0.95622,-2.743008 -0.72662,-3.313081 2.7717,-6.882067 2.95053,-3.010136 5.06515,-4.151004 9.33818,-5.038081 7.12083,-1.478278 10.15829,-0.643634 14.89475,4.09283 2.1204,2.120396 3.85527,3.505604 3.85527,3.078239 0,-0.866205 8.59376,-9.627781 14,-14.273386 4.74326,-4.075901 11.36114,-7.1587238 14.5327,-6.769796 3.26513,0.400402 5.99634,4.627641 5.12134,7.926567 -0.34919,1.316503 -3.7784,6.668642 -7.62046,11.893642 -8.04819,10.945097 -16.12413,22.450572 -17.44128,24.847904 -0.49923,0.908653 -1.28999,2.327096 -1.75725,3.152096 -0.46726,0.825 -1.38331,2.625 -2.03567,4 -1.46203,3.081587 -3.84382,6 -4.89674,6 -0.43306,0 -2.95081,-2.578462 -5.59501,-5.729916 z m 7.03919,-4.871176 c 2.35432,-4.93707 12.00559,-19.621745 17.67887,-26.898908 5.87613,-7.537361 10.39683,-14.410817 9.84257,-14.965069 -0.23342,-0.233428 -2.13739,-0.03807 -4.23103,0.434119 -2.62032,0.590979 -5.26052,2.392533 -8.47193,5.780874 -2.56591,2.707289 -5.4528,5.20696 -6.4153,5.554825 -0.9625,0.347865 -1.75,1.157503 -1.75,1.799195 0,2.088607 -5.42872,6.338729 -8.30944,6.505427 -2.27263,0.13151 -3.29362,-0.604422 -5.34348,-3.851618 -2.52723,-4.003392 -2.54768,-4.012577 -7.59843,-3.414391 -6.14018,0.727214 -12.74865,4.763192 -12.74865,7.785956 0,2.161419 5.37573,7.749905 10.25969,10.665747 1.51783,0.906181 5.33392,4.473001 8.48019,7.926268 3.14627,3.453267 5.98356,6.278667 6.30509,6.278667 0.32153,0 1.35736,-1.620492 2.30185,-3.601092 z m -48.637967,7.976608 c -1.48578,-1.485775 -0.59642,-2.375516 2.374477,-2.375516 2.01956,0 2.94131,0.431262 2.67168,1.25 -0.46695,1.417866 -3.972017,2.199652 -5.046157,1.125516 z"
     id="path3030"
     style="fill:#000000" />
</svg>
