<?xml version="1.0" encoding="UTF-8" standalone="no"?>
<!-- Created with Inkscape (http://www.inkscape.org/) -->

<svg
   xmlns:dc="http://purl.org/dc/elements/1.1/"
   xmlns:cc="http://creativecommons.org/ns#"
   xmlns:rdf="http://www.w3.org/1999/02/22-rdf-syntax-ns#"
   xmlns:svg="http://www.w3.org/2000/svg"
   xmlns="http://www.w3.org/2000/svg"
   xmlns:sodipodi="http://sodipodi.sourceforge.net/DTD/sodipodi-0.dtd"
   xmlns:inkscape="http://www.inkscape.org/namespaces/inkscape"
   width="222.93484"
   height="86.704124"
   id="svg2"
   version="1.1"
   inkscape:version="0.48.2 r9819"
   sodipodi:docname="Nouveau document 1">
  <defs
     id="defs4" />
  <sodipodi:namedview
     id="base"
     pagecolor="#ffffff"
     bordercolor="#666666"
     borderopacity="1.0"
     inkscape:pageopacity="0.0"
     inkscape:pageshadow="2"
     inkscape:zoom="0.98994949"
     inkscape:cx="106.99112"
     inkscape:cy="-33.167947"
     inkscape:document-units="px"
     inkscape:current-layer="layer1"
     showgrid="false"
     fit-margin-top="0"
     fit-margin-left="0"
     fit-margin-right="0"
     fit-margin-bottom="0"
     inkscape:window-width="1366"
     inkscape:window-height="706"
     inkscape:window-x="-8"
     inkscape:window-y="-8"
     inkscape:window-maximized="1" />
  <metadata
     id="metadata7">
    <rdf:RDF>
      <cc:Work
         rdf:about="">
        <dc:format>image/svg+xml</dc:format>
        <dc:type
           rdf:resource="http://purl.org/dc/dcmitype/StillImage" />
        <dc:title></dc:title>
      </cc:Work>
    </rdf:RDF>
  </metadata>
  <g
     inkscape:label="Calque 1"
     inkscape:groupmode="layer"
     id="layer1"
     transform="translate(-268.00888,-169.01012)">
    <g
       transform="matrix(0.51022016,0,0,-0.51022016,268.00888,259.2745)"
       inkscape:label="ink_ext_XXXXXX"
       id="g2993">
      <g
         transform="scale(0.1,0.1)"
         id="g2995">
        <path
           id="path2997"
           style="fill:#000000;fill-opacity:1;fill-rule:nonzero;stroke:none"
           d="M 1846,1616.09 C 1714,1484.86 1690.04,1464.97 1684.5,1482 c -4.84,14.88 -12,18.46 -28,14 -12.04,-3.36 -43.5,-10.8 -71.5,-16.92 -70.04,-15.3 -318,-76.58 -450,-111.22 -60.87,-15.97 -177,-44.34 -260,-63.52 -198,-45.76 -348.641,-82.04 -410,-98.73 -27.469,-7.48 -143.5,-26 -257.5,-41.11 C 23.5,1140.11 0,1134.96 0,1119 c 0,-24.37 19,-24.22 195,1.52 223.379,32.66 409,76 1075,250.96 146,38.36 290.69,69.58 335,72.3 15.88,0.97 20.62,-5.78 23,-32.78 1.68,-19 -1.85,-38.85 -8,-45 -14.77,-14.77 -13,-36 3,-36 7.2,0 20.14,14.5 29,32.5 8.89,18.05 32.68,52.5 53.52,77.5 56.7,68 274.44,283.04 280.48,277 12.82,-12.82 -57.34,-215 -158.59,-457 -152.59,-364.68 -188.47,-485 -256.44,-860 -21.39,-118 -43.91,-227.633 -49.93,-243 -18,-46 -14.72,-87 6.96,-87 20.09,0 14.25,-23 101.62,400 41.11,199 79.02,355.887 111.17,460 34.58,112 184.25,480 195.21,480 5.51,0 41,-24.71 79,-55 60,-47.82 74.68,-55 112.5,-55 24,0 53.81,6.95 66.5,15.5 12.59,8.49 42,18.77 65,22.72 46,7.91 52.91,28.14 8,23.44 -37.88,-3.97 -34,8.48 13,41.69 37,26.15 50.62,46.65 31,46.65 -4.42,0 -25,-13.5 -46,-30.16 -42,-33.34 -62.57,-37.62 -71.39,-14.84 -8.65,22.35 -24.61,18.53 -62.61,-15 -19,-16.77 -36.21,-30 -39,-30 -10,0 -102,62.23 -102,69 0,3.28 31.5,33.2 69.5,66 43,37.12 63.97,61.34 55,63.5 -8.02,1.93 -42,-21.54 -76,-52.5 -34,-30.96 -65.52,-56 -70.5,-56 -19.79,0 -18.26,34 4.81,107 36.97,117 57.19,188.07 57.19,201 0,31.64 -42,-0.75 -184,-141.91 z M 2180,1340 c 0,-14.87 -27,-23.2 -48,-14.8 -15.3,6.12 -15,7.63 3,15.11 28,11.63 45,11.51 45,-0.31"
           inkscape:connector-curvature="0" />
        <path
           id="path2999"
           style="fill:#000000;fill-opacity:1;fill-rule:nonzero;stroke:none"
           d="m 3283.75,1638 c -48.05,-76.88 -118.03,-164 -200.81,-250 -38.5,-40 -52.94,-46.55 -52.94,-24 0,28.09 12,45.38 46,66.31 53.56,32.96 43,41.8 -43,35.97 -43,-2.91 -89.89,-5.5 -104.5,-5.78 -14.55,-0.27 -49.5,-16.06 -77.5,-35 -28,-18.94 -51.45,-31.34 -52,-27.5 -0.55,3.89 -0.27,19 0.64,34 2.75,45.43 -17.76,41 -55.57,-12 -32.81,-46 -76.62,-80 -103.07,-80 -16.91,0 -12.47,25 9.41,53 29.18,37.36 25.59,42.56 -27.41,39.64 -26,-1.43 -59.92,-2.64 -74,-2.64 -28,0 -89,-58.95 -89,-86 0,-24.31 40,-32.91 87,-18.7 36,10.89 43.8,10.56 54.6,-2.3 17.12,-20.38 62.4,-9.05 108.4,27.12 21,16.51 40.46,29.88 43.5,29.88 2.98,0 2.76,-16 -0.5,-35 -5.14,-30 -3.29,-35 13,-35 11.21,0 29.02,16 43.42,39 32.44,51.81 67.58,70.32 147.58,77.77 l 67,6.23 -17.03,-26 c -45.18,-69 1.65,-112.88 67.03,-62.8 19.35,14.81 72.12,71.3 118,126.3 45.88,55 84.34,95.25 86,90 1.66,-5.24 -38.78,-91.5 -90.24,-192.5 C 3087.39,1171 3040,1069.02 3040,1050 c 0,-6.67 -6.49,-24 -14.61,-39 -28.14,-52 -58.3,-162.09 -47.39,-173 22.09,-22.094 39.64,4 66.6,99 31.15,109.83 83.84,232 186.72,433 103.91,203 135.9,310 92.68,310 -7.67,0 -25.87,-19 -40.25,-42 z m -686.38,-260 c -5.09,-15.5 -77.37,-40.46 -96.37,-33.29 -11.9,4.5 -11.29,8.29 4.07,25.29 20.78,23 99.47,29.82 92.3,8"
           inkscape:connector-curvature="0" />
        <path
           id="path3001"
           style="fill:#000000;fill-opacity:1;fill-rule:nonzero;stroke:none"
           d="m 3491.3,1649 c -5.84,-17 -19.54,-43 -31.62,-60 -19.9,-28 -19.98,-53.84 -0.11,-33 37.2,39 88.05,109.3 83.91,116 -11.97,19.33 -42.22,6 -52.18,-23"
           inkscape:connector-curvature="0" />
        <path
           id="path3003"
           style="fill:#000000;fill-opacity:1;fill-rule:nonzero;stroke:none"
           d="m 2454,1631.18 c -34,-20.81 -64,-57.93 -64,-79.18 0,-7.06 17.59,5.5 38.5,27.5 20.91,22 45.81,40.5 54.5,40.5 23.63,0 6.91,-47 -54.75,-154 -69.79,-121.12 -89.32,-163 -138.45,-297 -23.1,-63 -49.96,-136.37 -60.05,-164 -22.64,-62 -41.58,-153.957 -34.19,-166 18.42,-30.035 43.99,16 68.33,123 18.98,83.49 138.4,374 209.63,510 60.24,115 68.2,150.54 37.48,167.39 -23.68,12.98 -22,13.22 -57,-8.21"
           inkscape:connector-curvature="0" />
        <path
           id="path3005"
           style="fill:#000000;fill-opacity:1;fill-rule:nonzero;stroke:none"
           d="m 4253.5,1532 c -56,-53.52 -119.88,-107.31 -142.5,-120 l -41,-23 0,25 c 0,31.79 -22,33.63 -68,5.68 -36,-21.88 -55.71,-17.55 -47,10.32 10.32,33.03 -14,31.75 -78,-4.13 -35,-19.62 -67.4,-35.87 -71.5,-35.87 -4.12,0 -4.39,18 -0.59,40 7.77,45 -9.53,56.45 -31.71,21 -13.77,-22 -100.93,-76.27 -109.2,-68 -3.29,3.29 1.24,27.5 10,53.5 9.09,27 12.33,51.17 7.5,56 -4.83,4.83 -27.5,-9.2 -52.5,-32.5 -24,-22.36 -62.18,-49.64 -84,-60 -35,-16.62 -41.81,-17.19 -54.5,-4.5 -11,11 -11.6,17.4 -2.5,26.5 22.38,22.38 14,40.77 -16,35.1 -15,-2.83 -34.11,-1.32 -43,3.4 -10.8,5.74 -28.5,2.17 -54.5,-11 -21,-10.64 -46.23,-19.5 -55.5,-19.5 -21,0 -42.67,-35 -34.67,-56 6.49,-17.02 50.67,-18 112.67,-2.5 35,8.75 50.3,8.83 64,0.33 28.06,-17.42 60,-13.48 107,13.2 24,13.62 45.59,24.97 47.5,24.97 1.95,0 2.61,-12 1.5,-27 -2.76,-37.24 23,-41.3 83,-13.1 45,21.16 48.13,21.38 73.5,5.1 25.5,-16.36 28.5,-16.02 79.5,9.04 63,30.96 63,30.96 69.78,5.96 5.95,-21.93 31.22,-25.5 71.22,-10.05 21,8.12 29.85,6.2 46,-9.95 26.71,-26.71 55,-15.68 132,51.52 32,27.92 61.14,49.19 63.67,46.48 5.12,-5.49 -28.44,-70 -74.4,-143 -92.54,-147 -193.11,-352.715 -240.04,-491 -45.14,-133 -47.8,-148.926 -26.23,-157.145 18.57,-7.074 16.67,-10.855 59.49,118.145 20.24,61 57.72,152.316 84.14,205 62.16,124 177.92,335.71 207.78,380 12.8,19 23.59,38.2 23.59,42 0,3.86 22.39,46 49.96,94 47.09,82 59.15,114.55 42.04,113.45 -3.86,-0.25 -52.5,-43.93 -108.5,-97.45 z m -848.87,-121 c 4.44,-7.11 -64.63,-31 -89.63,-31 -18.4,0 20,29.36 43,32.87 15,2.29 30.11,4.8 34,5.63 4.2,0.9 9.25,-2.1 12.63,-7.5"
           inkscape:connector-curvature="0" />
      </g>
    </g>
  </g>
</svg>
