<?xml version="1.0" encoding="UTF-8" standalone="no"?>
<!-- Created with Inkscape (http://www.inkscape.org/) -->

<svg
   xmlns:dc="http://purl.org/dc/elements/1.1/"
   xmlns:cc="http://creativecommons.org/ns#"
   xmlns:rdf="http://www.w3.org/1999/02/22-rdf-syntax-ns#"
   xmlns:svg="http://www.w3.org/2000/svg"
   xmlns="http://www.w3.org/2000/svg"
   xmlns:sodipodi="http://sodipodi.sourceforge.net/DTD/sodipodi-0.dtd"
   xmlns:inkscape="http://www.inkscape.org/namespaces/inkscape"
   id="svg4168"
   version="1.1"
   inkscape:version="0.91 r13725"
   width="678.75"
   height="148.125"
   viewBox="0 0 678.75 148.125"
   sodipodi:docname="Octave Uzanne signature.svg">
  <metadata
     id="metadata4174">
    <rdf:RDF>
      <cc:Work
         rdf:about="">
        <dc:format>image/svg+xml</dc:format>
        <dc:type
           rdf:resource="http://purl.org/dc/dcmitype/StillImage" />
        <dc:title></dc:title>
      </cc:Work>
    </rdf:RDF>
  </metadata>
  <defs
     id="defs4172" />
  <sodipodi:namedview
     pagecolor="#ffffff"
     bordercolor="#666666"
     borderopacity="1"
     objecttolerance="10"
     gridtolerance="10"
     guidetolerance="10"
     inkscape:pageopacity="0"
     inkscape:pageshadow="2"
     inkscape:window-width="1366"
     inkscape:window-height="700"
     id="namedview4170"
     showgrid="false"
     inkscape:zoom="1.2655617"
     inkscape:cx="339.375"
     inkscape:cy="74.0625"
     inkscape:window-x="-4"
     inkscape:window-y="-4"
     inkscape:window-maximized="1"
     inkscape:current-layer="svg4168" />
  <path
     style="fill:#000000"
     d="m 6.796875,141.46079 c -3.6426915,-3.76366 1.7439457,-7.20459 13.948978,-8.91048 5.167669,-0.72228 12.422492,-1.91976 16.121829,-2.66108 3.699337,-0.74132 8.835443,-1.62624 11.413568,-1.96647 2.578125,-0.34024 9.117187,-1.63906 14.53125,-2.88628 21.24103,-4.89317 26.226922,-5.9616 38.4375,-8.23673 17.41252,-3.2444 22.64768,-4.10597 31.875,-5.2458 4.38281,-0.5414 11.55469,-1.55371 15.9375,-2.24959 4.38281,-0.69587 14.92969,-2.35672 23.4375,-3.69079 8.50781,-1.33407 19.05469,-3.07573 23.4375,-3.87036 4.38281,-0.79463 11.13281,-1.90981 15,-2.478169 3.86719,-0.56836 15.67969,-2.651447 26.25,-4.629094 21.34991,-3.99444 49.09335,-8.452268 75.46875,-12.126352 3.09375,-0.430958 14.69531,-2.130987 25.78125,-3.777841 38.66694,-5.744106 44.61565,-6.497363 52.5,-6.647836 3.35156,-0.06396 6.5898,-0.514381 7.19607,-1.000927 0.60628,-0.486546 1.66097,-0.774428 2.34375,-0.639736 0.68279,0.134691 2.71799,-0.04297 4.52268,-0.394791 1.80469,-0.351826 4.96875,-0.963691 7.03125,-1.359699 2.0625,-0.396008 6.34118,-0.671187 9.50818,-0.611508 l 5.75817,0.108506 -4.11754,-4.117552 c -2.26466,-2.264654 -4.16381,-4.422857 -4.22034,-4.796007 -1.15459,-7.621799 -1.3973,-13.160115 -0.72663,-16.580034 0.50026,-2.550962 -2.5584,-3.013552 -5.1136,-0.773376 -1.32116,1.158277 -3.70884,1.854647 -6.86483,2.002137 -4.02883,0.188279 -5.07394,-0.109133 -6.24159,-1.776192 -1.36442,-1.947975 -1.49373,-1.959047 -4.76269,-0.407822 -5.28283,2.506866 -7.97894,0.364436 -4.81144,-3.823358 1.7809,-2.354568 1.79167,-3.303673 0.0298,-2.627583 -2.45033,0.940279 -1.51988,-1.099357 1.53022,-3.354398 l 2.93649,-2.171032 -0.46014,2.697852 c -0.25308,1.483819 -0.77588,3.436133 -1.16178,4.338477 -1.10928,2.593786 2.94097,2.08248 5.40094,-0.681818 1.13672,-1.277344 2.88415,-3.254883 3.88318,-4.394532 2.34412,-2.674085 3.04704,-0.763497 0.91579,2.489195 -1.94093,2.962242 -1.20494,3.794629 4.05512,4.586213 3.27501,0.492855 4.31904,0.253958 5.92988,-1.356876 1.58264,-1.582644 2.64193,-1.838996 5.56111,-1.345805 3.80743,0.643263 5.06624,2.115377 3.68056,4.304264 -2.17084,3.429182 0.83067,14.185556 4.33349,15.529713 0.75014,0.287857 1.36389,1.067349 1.36389,1.732206 0,1.712212 6.13026,6.883856 9.01937,7.608978 2.43919,0.612195 7.41097,0.270821 23.79313,-1.633691 4.89844,-0.569469 10.42441,-1.140892 12.27995,-1.269829 2.83021,-0.196665 9.96718,-1.212665 13.5013,-1.922009 0.51562,-0.103492 3.46875,-0.484696 6.5625,-0.84712 17.57504,-2.058861 44.81204,-7.867101 49.36722,-10.527466 3.59342,-2.098674 5.12933,-4.951922 1.66863,-3.09981 -1.41653,0.758108 -4.31525,0.969021 -8.4982,0.618337 -6.45085,-0.540816 -10.08487,-1.822062 -11.38183,-4.012888 -0.5838,-0.986142 -1.32821,-0.960377 -3.95427,0.136861 -1.77929,0.743436 -6.12112,1.351702 -9.6485,1.351702 -6.96714,0 -10.30212,-1.464657 -9.29729,-4.08318 0.66277,-1.727167 -1.15106,-2.067562 -3.81536,-0.716014 -3.73801,1.896225 -10.31387,4.799194 -10.87121,4.799194 -0.33024,0 -0.60044,-0.849412 -0.60044,-1.887581 0,-1.818023 -0.12955,-1.833311 -3.51563,-0.414856 -1.93359,0.809999 -6.15234,1.720415 -9.375,2.023148 -5.53717,0.520155 -5.85937,0.439863 -5.85937,-1.460144 0,-2.432581 -0.21519,-2.446764 -5.94769,-0.392 -4.33209,1.552804 -4.5976,1.551028 -5.75992,-0.03855 -1.16362,-1.591329 -1.46051,-1.581328 -6.59142,0.222042 -4.0304,1.416569 -5.82874,1.644484 -7.19714,0.912137 -1.27081,-0.680114 -2.69974,-0.671087 -4.71017,0.02976 -4.0537,1.413124 -4.48116,1.295926 -4.48116,-1.228614 0,-2.358629 6.51872,-9.0778 8.67457,-8.941326 0.93102,0.05894 0.93046,0.170337 -0.003,0.546875 -0.64453,0.260074 -1.17187,0.897426 -1.17187,1.416338 0,0.518911 -0.94922,1.735344 -2.10938,2.703185 l -2.10937,1.759709 2.01677,0.03119 c 1.32947,0.02056 2.67654,-1.087037 3.95276,-3.25006 2.75745,-4.67354 5.42776,-4.185795 2.90374,0.530382 -0.8833,1.650647 -0.63789,1.813368 2.73488,1.813368 2.03789,0 5.68968,-0.850619 8.11507,-1.890264 l 4.40981,-1.890264 -0.49432,1.890264 c -0.39585,1.513711 -0.0389,1.890264 1.79178,1.890264 1.25735,0 3.80063,-0.632813 5.65172,-1.40625 4.49572,-1.878429 4.82736,-1.802324 4.29443,0.985506 -0.45551,2.382844 -0.43844,2.389413 4.58312,1.763226 2.7722,-0.345691 7.26376,-1.359395 9.98126,-2.252676 4.77828,-1.570691 4.92277,-1.567012 4.38995,0.111774 -0.69241,2.181575 -0.8838,2.199424 7.03147,-0.655771 6.65131,-2.399259 8.8238,-2.403892 7.90781,-0.01687 -0.72934,1.900635 0.71792,2.418836 8.12315,2.908555 5.34753,0.35364 7.55519,0.06422 10.94384,-1.434746 5.1403,-2.273804 5.02743,-2.26756 4.28698,-0.237128 -0.53712,1.47287 -0.39032,1.458013 1.43567,-0.145301 2.94697,-2.587587 2.66939,-4.493312 -0.54416,-3.735896 -1.71874,0.4051 -2.26562,0.29515 -1.64062,-0.32985 0.51562,-0.515625 2.10692,-1.213268 3.53621,-1.550317 3.72857,-0.879257 4.27546,1.514315 1.25177,5.478589 l -2.45122,3.213715 4.2077,0.630983 c 3.87454,0.581024 5.55393,0.450363 14.31491,-1.113728 2.96354,-0.529077 3.04688,-0.453676 3.04688,2.756524 0,2.534587 -0.66935,3.863698 -2.88443,5.727568 -1.58643,1.3349 -3.50977,2.427089 -4.27408,2.427089 -0.7643,0 -1.15341,0.382233 -0.86469,0.849406 0.47916,0.775286 -8.2489,2.590353 -10.12236,2.105021 -0.44099,-0.114243 -1.36875,0.262808 -2.06168,0.83789 -0.69294,0.575082 -8.13681,2.049216 -16.54194,3.275855 -8.40514,1.226637 -18.44613,2.837576 -22.31332,3.579863 -3.86719,0.742287 -9.98438,1.646194 -13.59375,2.008681 -7.68886,0.772188 -27.61643,3.845688 -32.34375,4.988492 l -3.28125,0.793224 3.5944,1.547111 c 1.97692,0.850911 5.30229,2.006998 7.38971,2.569081 2.08741,0.562084 4.47775,1.391083 5.31185,1.842219 3.08943,1.670976 13.85128,6.306935 18.39154,7.922657 2.57812,0.917466 5.95312,2.208346 7.5,2.86862 1.54687,0.660276 5.34375,1.909941 8.4375,2.777033 11.27747,3.160761 21.70975,6.299285 28.125,8.461338 3.60937,1.216415 8.25,2.489279 10.3125,2.828569 2.0625,0.33929 5.83048,1.2082 8.37328,1.93092 2.54281,0.72271 6.23422,1.31402 8.20313,1.31402 1.96892,0 3.57984,0.40223 3.57984,0.89385 0,0.49161 1.79297,0.88037 3.98437,0.8639 2.19141,-0.0165 6.9375,0.24727 10.54688,0.5861 3.60937,0.33883 11.625,0.80473 17.8125,1.03533 15.54648,0.5794 24.81003,1.05802 34.6875,1.79221 11.51095,0.8556 17.26423,0.85912 34.31467,0.021 10.8244,-0.5321 15.17679,-0.42488 16.74127,0.41241 3.16859,1.69577 1.23899,2.76158 -6.10137,3.37007 -21.23365,1.76021 -33.49226,2.10168 -64.64207,1.80068 -34.8475,-0.33673 -54.79271,-1.71685 -67.5,-4.67072 -3.09375,-0.71915 -8.76612,-2.01303 -12.60527,-2.87526 -3.83915,-0.86224 -7.63602,-1.91285 -8.4375,-2.33468 -1.41919,-0.74693 -4.46235,-1.57497 -15.05098,-4.09533 -11.02988,-2.625373 -33.31887,-11.587514 -53.27928,-21.422963 l -13.50726,-6.65567 -16.05986,1.099259 c -9.75915,0.667991 -27.09403,2.904109 -44.18485,5.699641 -15.46875,2.530211 -30.23438,4.872512 -32.8125,5.205117 -2.57813,0.332603 -7.85156,1.184331 -11.71875,1.892729 -3.86719,0.708397 -11.67188,1.996366 -17.34375,2.862152 -5.67188,0.865786 -13.57853,2.193768 -17.57033,2.951072 -3.99181,0.757304 -7.70171,1.102594 -8.2442,0.767314 -0.5425,-0.335281 -1.52021,-0.166539 -2.1727,0.374981 -0.6525,0.541517 -5.35017,1.722355 -10.43927,2.62408 -7.31437,1.296009 -9.33581,1.390847 -9.64853,0.452681 -0.28469,-0.854091 -0.72613,-0.734765 -1.57464,0.425634 -0.64847,0.886838 -2.01283,1.739682 -3.03191,1.895204 -3.42261,0.522328 -16.58082,3.044419 -31.22467,5.984969 -7.99219,1.60487 -17.90625,3.28789 -22.03125,3.74004 -12.74841,1.3974 -15.76267,1.86571 -21.09375,3.27721 -2.83594,0.75087 -11.0625,2.4349 -18.28125,3.74229 -14.38391,2.60508 -26.49318,4.82922 -33.75,6.19894 -2.57813,0.48663 -13.54688,2.33509 -24.375,4.1077 -17.70725,2.89876 -24.00447,4.03221 -46.875,8.43713 -10.851323,2.09 -33.586909,6.27187 -36.09375,6.63891 -9.149046,1.33958 -13.6707726,1.43154 -14.765625,0.30034 z M 131.25,119.0625 c 0,-0.51562 -0.63281,-0.9375 -1.40625,-0.9375 -0.77344,0 -1.40625,0.42188 -1.40625,0.9375 0,0.51563 0.63281,0.9375 1.40625,0.9375 0.77344,0 1.40625,-0.42187 1.40625,-0.9375 z m 10.9961,-1.50391 c -0.31153,-0.31152 -1.12013,-0.34482 -1.79688,-0.074 -0.74787,0.29927 -0.52573,0.52142 0.56641,0.5664 0.98827,0.0407 1.54199,-0.18086 1.23047,-0.49239 z m -3.97149,-4.11036 c 0.32845,-0.53143 -0.0479,-0.68859 -0.88217,-0.36844 -1.62414,0.62324 -1.9213,1.29521 -0.57277,1.29521 0.48519,0 1.13992,-0.41705 1.45494,-0.92677 z m 63.28789,-7.15132 c 0,-0.19767 -0.84375,-0.35941 -1.875,-0.35941 -1.03125,0 -1.875,0.38238 -1.875,0.84973 0,0.46735 0.84375,0.62909 1.875,0.35941 1.03125,-0.26968 1.875,-0.65206 1.875,-0.84973 z M 215.625,105 c 0,-0.51562 -0.44678,-0.9375 -0.99283,-0.9375 -0.54606,0 -0.7321,0.42188 -0.41342,0.9375 0.31868,0.51563 0.76545,0.9375 0.99283,0.9375 0.22738,0 0.41342,-0.42187 0.41342,-0.9375 z m 311.71875,-3.75 c -0.31867,-0.51562 -1.00128,-0.9375 -1.5169,-0.9375 -0.51563,0 -0.67677,0.42188 -0.3581,0.9375 0.31867,0.51563 1.00128,0.9375 1.5169,0.9375 0.51563,0 0.67677,-0.42187 0.3581,-0.9375 z m -22.32833,-6.738281 c -0.29927,-0.747872 -0.52142,-0.525731 -0.5664,0.566409 -0.0407,0.988275 0.18087,1.541991 0.49239,1.230469 0.31152,-0.311531 0.34482,-1.120125 0.074,-1.796878 z M 257.8125,93.906253 c 0,-0.429691 -0.61426,-0.781253 -1.36501,-0.781253 -0.75076,0 -1.14773,0.351562 -0.88217,0.781253 0.26556,0.429684 0.87982,0.781247 1.36501,0.781247 0.48519,0 0.88217,-0.351563 0.88217,-0.781247 z m -1.32561,-50.527161 c -0.85795,-2.703184 8.64031,-18.457557 11.74866,-19.486999 2.40998,-0.798152 6.378,1.169889 7.55146,3.745334 1.2567,2.758171 5.78557,3.265713 8.79943,0.986138 1.84056,-1.392123 6.03856,-1.958925 6.03856,-0.815307 0,0.341418 -1.05383,2.418993 -2.34186,4.616835 l -2.34185,3.996076 3.19825,-0.297247 c 4.35169,-0.404446 10.88663,-5.098047 15.72701,-11.295644 4.083,-5.227849 6.0128,-6.26003 6.98197,-3.734415 0.44375,1.156378 2.0633,1.324972 9.11121,0.948471 4.71434,-0.251841 18.90746,-0.691257 31.54027,-0.976481 12.63281,-0.285224 27.1875,-0.681787 32.34375,-0.881249 5.15625,-0.199464 16.54688,-0.597266 25.3125,-0.884006 8.76563,-0.28674 21.63281,-0.741037 28.59375,-1.009551 6.96094,-0.268513 23.1822,-0.724323 36.04725,-1.012909 12.86504,-0.288587 23.65883,-0.690237 23.98619,-0.892556 0.32736,-0.202318 12.58266,-0.599378 27.234,-0.882354 14.65134,-0.282976 30.01381,-0.768828 34.13881,-1.07967 8.73758,-0.658426 7.71195,-0.658515 15.40756,0.0013 3.31791,0.284484 6.48906,0.138382 7.04701,-0.324675 1.05716,-0.877369 18.21155,-2.529396 17.38918,-1.674638 -0.25781,0.267963 -3.84375,0.784261 -7.96875,1.14733 -4.125,0.363068 -7.71094,0.888749 -7.96875,1.168179 -0.46278,0.501581 9.7523,-0.103824 23.4375,-1.38904 6.91053,-0.648988 6.95882,-0.67147 2.8125,-1.309483 -2.4598,-0.378502 -0.805,-0.468374 3.96898,-0.215555 7.44274,0.39415 8.13167,0.287515 7.57162,-1.171957 -0.47907,-1.2484082 -0.25003,-1.4650833 1.02957,-0.9740526 0.90513,0.3473416 2.05795,0.6315206 2.56183,0.6315206 0.50389,0 0.65542,0.421875 0.33675,0.9375 -0.31867,0.515625 -0.11939,0.9375 0.44285,0.9375 0.56223,0 1.2381,-0.5625 1.50192,-1.25 0.26381,-0.6875 0.98885,-1.27693 1.6112,-1.3098437 6.0931,-0.3222482 12.58786,-1.670946 13.49103,-2.8015373 1.11554,-1.3964422 3.55627,-0.807868 2.66047,0.6415645 -0.73065,1.182226 -7.06484,4.2207285 -11.26997,5.4061915 -3.16952,0.893517 -10.35715,1.908033 -25.3125,3.572798 -1.54688,0.172192 -9.14063,0.775338 -16.875,1.340326 -7.73438,0.564988 -15.96094,1.200236 -18.28125,1.411663 -18.29184,1.666754 -36.80465,2.565689 -77.34375,3.755619 -9.79688,0.287564 -21.60938,0.71801 -26.25,0.956548 -26.00441,1.336681 -52.62278,1.995263 -112.96875,2.795034 -26.03906,0.345099 -47.87109,0.79234 -48.51563,0.993871 -0.64453,0.201531 -1.17187,1.474724 -1.17187,2.829319 0,1.354594 -0.73828,3.716224 -1.64063,5.248067 -1.30043,2.207645 -2.12661,2.688969 -3.98437,2.321242 -1.36778,-0.27074 -4.2957,0.446027 -7.03125,1.721277 -6.54249,3.049957 -10.35662,3.596066 -12.20514,1.747539 -0.86566,-0.865656 -1.23129,-2.137046 -0.86742,-3.016183 1.3614,-3.289153 1.52693,-4.800995 0.52565,-4.800995 -0.57577,0 -1.04696,0.316406 -1.04711,0.703125 -1.6e-4,0.386719 -1.44061,0.703125 -3.20101,0.703125 -1.7604,0 -3.51809,-0.316406 -3.90597,-0.703125 -1.19394,-1.19034 -1.76416,-0.80677 -3.02067,2.031873 -1.57805,3.565066 -6.50567,7.271376 -10.71813,8.061638 -2.79246,0.523867 -3.44163,0.330368 -3.91706,-1.167544 z m 9.95588,-8.20968 c 3.90338,-4.077523 5.42117,-7.981912 3.10286,-7.981912 -0.62473,0 -1.88562,1.662651 -2.80198,3.694779 -0.91636,2.03213 -2.24606,3.917326 -2.95488,4.189328 -0.70882,0.272001 -1.28877,1.105444 -1.28877,1.852095 0,0.746651 -0.52734,1.570336 -1.17188,1.83041 -0.86865,0.350506 -0.87941,0.492013 -0.0416,0.546875 0.62165,0.04071 2.94196,-1.818501 5.15625,-4.131575 z m 34.83376,-0.01316 c 0.29679,-0.773438 0.18264,-1.40625 -0.25366,-1.40625 -0.4363,0 -1.31847,0.632812 -1.96037,1.40625 -0.95009,1.144788 -0.90293,1.40625 0.25366,1.40625 0.78141,0 1.66356,-0.632813 1.96037,-1.40625 z M 462.1875,22.086578 c 0,-0.227382 -0.42188,-0.674154 -0.9375,-0.992828 -0.51563,-0.318674 -0.9375,-0.132634 -0.9375,0.413422 0,0.546055 0.42187,0.992828 0.9375,0.992828 0.51562,0 0.9375,-0.186039 0.9375,-0.413422 z m -115.3125,19.037586 -2.34375,-0.946092 2.30259,-1.880141 c 1.38299,-1.129258 3.17657,-1.71307 4.49097,-1.461809 1.70117,0.325201 2.93558,-0.493543 5.54471,-3.677644 1.84599,-2.252787 3.93834,-4.095978 4.64966,-4.095978 2.12826,0 1.46355,3.480006 -1.04099,5.450082 l -2.33432,1.836171 2.09995,0.562822 c 1.15496,0.309552 4.52571,0.568583 7.49055,0.575623 5.53395,0.01314 7.0853,1.300533 3.28125,2.722951 -4.18168,1.56362 -12.92877,2.175278 -14.34145,1.002855 -1.25611,-1.042483 -2.46905,-0.974156 -6.04917,0.340762 -0.77344,0.28407 -2.46094,0.09075 -3.75,-0.429602 z M 314.0625,39.75 c 0,-1.741082 6.34667,-8.403328 7.19609,-7.553905 0.31411,0.314102 0.029,1.224296 -0.63359,2.022655 -0.66258,0.798359 -0.99401,1.662234 -0.73653,1.919723 0.70868,0.708674 3.54903,-0.586435 3.54903,-1.618239 0,-1.216338 2.43264,-3.582734 3.68303,-3.582734 1.23098,0 1.23671,0.204603 0.0902,3.220219 -0.85295,2.243448 -0.72935,2.404781 1.84238,2.404781 1.76862,0 4.00858,-1.092069 6.24949,-3.046875 1.92105,-1.675781 3.24183,-2.414063 2.93506,-1.640625 -0.30677,0.773437 -0.8543,2.144531 -1.21674,3.046875 -1.04428,2.599841 2.71174,2.063055 4.77332,-0.682172 2.18589,-2.91076 4.01195,-3.640782 5.66837,-2.266085 1.95915,1.625969 1.54437,2.713882 -1.03474,2.713882 -1.42332,0 -2.89875,0.880026 -3.81186,2.273603 -0.81934,1.250482 -2.82885,2.740427 -4.46556,3.31099 -2.5002,0.871572 -3.16225,0.782479 -4.14199,-0.557397 -1.08965,-1.490181 -1.27956,-1.492131 -2.89549,-0.02974 -2.32348,2.102725 -7.67546,2.112134 -7.67546,0.01349 0,-1.443734 -0.11914,-1.443734 -1.71444,0 -2.27386,2.057813 -7.66056,2.094063 -7.66056,0.05155 z"
     id="path4178"
     inkscape:connector-curvature="0" />
</svg>
