<?xml version="1.0" encoding="UTF-8"?>
<svg version="1.0" xmlns="http://www.w3.org/2000/svg" width="199" height="36" >
<path fill="#231F20" d="M15.194,0.195C9.275,6.862,4.536,14.827,1.503,23.196c-0.754,2.08-4.12,15.076,2.648,11.177 c2.895-1.667,4.601-4.457,6.722-6.941c3.405-3.986,6.913-7.477,9.35-12.201c0.787-1.525,6.277-16.092-0.033-12.132 c-3.862,2.424-6.459,7.851-8.602,11.624c-1.618,2.849-4.786,7.724-4.266,11.184c0.845,5.626,12.679-6.507,13.269-7.057 c2.083-1.94,4.291-3.879,6.064-6.121c1.095-1.383-0.211-1.256-0.618,0.251c-1.043,3.867-2.372,7.68-3.83,11.408 c-0.659,1.685-5.583,8.379-3.55,10.098c2.959,2.503,8.015-4.334,9.648-6.005c6.004-6.145,12.903-13.946,14.49-22.667 c0.058-0.318-0.537-0.206-0.675-0.143c-3.28,1.515-5.837,4.579-7.96,7.388c-0.905,1.197-9.273,14.096-5.339,15.121 c2.597,0.677,5.593-1.83,7.5-3.237c2.22-1.638,4.363-3.414,6.503-5.154c1.105-0.899,4.189-2.878,4.311-4.583 c0.027-0.373-0.623-0.175-0.783-0.087c-1.949,1.058-3.167,7.216-3.826,9.119c-0.223,0.645-2.736,7.11-0.614,6.906 c3.403-0.327,7.216-4.673,9.531-6.75c6.355-5.7,12.104-12.224,16.817-19.342c0.253-0.382-0.603-0.263-0.75-0.158 c-7.535,5.337-13.292,13.144-15.522,22.115c-2.281,9.171,5.219,2.545,7.799-0.345c1.881-2.107,3.915-4.085,5.993-5.995 c1.814-1.668,2.295-2.491,1.272,0.227c-1.153,3.063-3.912,7.891-3.22,11.251c0.264,1.283,2.604-0.421,2.912-0.691 c3.356-2.955,3.809-8.805,3.716-12.877c-0.008-0.362-0.828-0.025-0.933,0.117c-1.222,1.653-6.9,10.197-1.112,8.579 c7.826-2.188,14.313-9.863,20.764-14.417c1.717-1.212,3.701-1.944,2.665,0.683c-0.665,1.685-1.319,3.373-2.004,5.049 c-1.213,2.969-5.329,14.845-10.345,13.077c-8.026-2.827,7.657-11.969,9.82-13.106c3.172-1.668,6.411-3.212,9.667-4.71 c0.872-0.401,1.75-0.789,2.628-1.176c1.181-0.52,0.843-0.914,0.726-0.787c-1.483,1.604-12.514,16.719-9.489,17.868 c0.77,0.292,1.835-0.531,2.425-0.916c3.099-2.021,6.094-4.209,9.144-6.304c1.417-0.973,2.843-1.932,4.288-2.863 c1.021-0.657,1.595-1.576,1.182-0.085c-0.853,3.079-2.588,6.635-2.5,9.873c0.024,0.872,0.505,1.345,1.365,0.817 c2.523-1.55,3.699-5.996,4.365-8.613c0.361-1.418,0.379-2.817,0.18-4.254c-0.05-0.36-0.818-0.042-0.933,0.118 c-1.894,2.635-4.084,7.123,1.016,5.924c3.525-0.829,6.872-3.549,9.752-5.576c2.093-1.473,4.138-3.013,6.233-4.484 c0.426-0.299,3.965-3.004,2.536-2.144c-2.517,1.516-4.487,3.778-6.15,6.158c-1.621,2.32-4.875,8.029-3.832,10.878 c0.514,1.403,6.071-7.092,6.14-8.529c0.008-0.161-0.152-0.223-0.296-0.218c-0.49,0.018-1.155,0.48-0.66,1.045 c2.072,2.362,12.328-3.73,10.895,1.018c-0.327,1.082-3.241,7.75,0.269,6.592c3.275-1.081,5.775-7.32,5.841-10.397 c0.062-2.905-7.153,3.122-4.667,4.282c3.081,1.438,8.494-2.4,11.266-3.293c2.601-0.837-1.779,6.488-2.058,7.015 c-0.484,0.91-0.967,1.82-1.451,2.73c-0.22,0.414,0.593,0.253,0.75,0.158c4.184-2.524,8.396-5.009,12.667-7.383 c1.206-0.671,2.423-1.325,3.674-1.909c0.99-0.463-0.572,2.193-0.828,2.692c-1.099,2.142-2.346,4.218-3.597,6.274 c-0.245,0.402,0.604,0.247,0.75,0.158c4.262-2.601,8.558-5.168,12.972-7.502c0.614-0.324,3.061-2.05,2.16-0.234 c-0.599,1.208-1.469,2.313-2.25,3.404c-1.264,1.767-2.605,3.481-3.966,5.174c-0.293,0.364,0.675,0.232,0.838,0.094 c1.73-1.473,3.507-2.891,5.309-4.273c1.491-1.145,3.026-2.224,4.65-3.17c2.538-1.479,1.567,2.245,1.44,3.255 c-0.492,3.935,1.803,2.796,3.955,0.868c2.85-2.554,5.238-5.617,7.967-8.299c0.915-0.898,4.25-3.619,3.723-0.799 c-0.197,1.054-0.644,2.077-1.041,3.066c-1.181,2.943-2.733,5.757-4.322,8.496c-0.595,1.024-3.598,5.028-3.586,5.144 c-0.033-0.325-1.003-0.112-0.966,0.26c0.246,2.451,4.111-3.192,4.169-3.282c2.517-3.87,6.984-10.208,6.829-15.079 c-0.109-3.413-8.736,5.296-8.802,5.366c-1.561,1.678-3.096,3.373-4.747,4.963c-2.687,2.59-2.262-0.371-2.034-2.28 c0.119-0.99,0.349-2.946-1.2-2.754c-2.144,0.265-4.233,2.184-5.887,3.39c-1.361,0.993-2.678,2.047-3.989,3.104 c-0.545,0.439-1.083,0.888-1.621,1.335c-0.856,0.713,0.118,0.739,0.276,0.543c0.811-1.007,7.305-10.053,6.176-10.046 c-1.521,0.01-3.124,1.167-4.418,1.852c-3.301,1.745-6.51,3.674-9.714,5.59c-0.823,0.491-1.643,0.987-2.462,1.486 c1.111-0.678,1.499-1.142,2.396-2.68c0.796-1.364,3.676-5.016,3.161-6.767c-0.023-0.078-0.113-0.126-0.188-0.136 c-2.113-0.27-5.375,2.367-7.043,3.305c-3.704,2.082-7.358,4.255-10.997,6.447c1.104-0.665,0.432,0.688,0.877-0.149 c0.423-0.797,0.846-1.593,1.27-2.39c1.149-2.164,2.539-4.317,3.421-6.612c0.901-2.343-3.8-0.441-4.355-0.24 c-2.178,0.793-4.256,1.824-6.461,2.551c-3.888,1.281-1.095-2.251-0.612-2.787c0.902-1.001,1.695-0.736,1.428,0.725 c-0.417,2.273-1.733,4.403-3.005,6.289c-4.346,6.44-0.413-5.807-0.604-6.282c-0.466-1.155-1.382-1.026-2.507-0.87 c-1.098,0.152-2.205,0.621-3.249,0.97c-0.467,0.156-6.727,1.48-5.715,0.369c-0.522-0.236-0.812-0.16-0.871,0.229 c-0.265,0.607-0.552,1.204-0.862,1.79c-0.491,0.973-3.362,4.562-3.371,5.332c0.066-5.895,5.16-13.388,10.329-16.098 c0.536-0.281-0.187-0.479-0.492-0.349c-4.08,1.753-7.604,4.995-11.208,7.531c-0.755,0.532-10.544,6.681-10.384,3.576 c0.076-1.469,1.341-3.114,2.167-4.298c-1.315,1.887-1.232,5.172-2.103,7.503c-0.313,0.837-3.293,7.266-2.57,2.832 c0.346-2.122,1.052-4.211,1.663-6.268c0.238-0.8,1.175-2.612,0.944-3.471c-0.241-0.9-11.316,6.764-12.159,7.35 c-1.283,0.891-2.566,1.782-3.86,2.659c-1.353,0.917-1.997,1.356-1.379-0.753c1.672-5.71,5.45-11.196,9.469-15.545 c0.354-0.383-0.362-0.375-0.58-0.284c-6.892,2.894-13.912,6.129-20.206,10.168c-2.102,1.349-9.171,7.372-4.404,9.915 c8.271,4.413,13.261-14.532,15.264-19.495c1.547-3.832-3.643-0.396-4.695,0.306c-5.96,3.984-11.017,9.042-17.225,12.725 c-1.269,0.752-5.09,2.966-4.534-0.118c0.313-1.734,1.577-3.436,2.523-4.898c1.962-3.032,0.147,0.706,0.015,2.381 c-0.188,2.385-0.938,4.714-2.043,6.821c-0.803,1.531-2.884,2.925-2.346,0.33c0.319-1.537,0.88-3.039,1.39-4.52 c0.688-1.998,2.408-4.72,2.438-6.85c0.001-0.116-0.068-0.189-0.188-0.205c-1.346-0.181-2.749,1.519-3.604,2.275 c-3.454,3.054-6.191,6.839-9.628,9.871c-3.697,3.261-2.448-3.383-2.067-4.915c0.827-3.324,2.362-6.36,4.194-9.23 c2.576-4.036,6.11-7.541,9.865-10.49c1.221-0.959,0.058-0.812-0.85,0.56c-0.859,1.298-1.802,2.539-2.738,3.78 c-2.17,2.877-4.583,5.573-7.044,8.201c-3.794,4.052-7.925,7.982-12.482,11.172c-3.954,2.769-1.054-4.489-0.459-6.206 c0.576-1.664,1.225-3.304,1.889-4.935c0.401-0.984,1.916-4.755-0.024-2.035c-2.272,3.187-6.344,5.455-9.349,7.908 c-1.059,0.864-2.197,1.626-3.362,2.339c-0.746,0.456-3.454,2.089-4.022,0.312c-0.4-1.25,0.538-3.184,0.949-4.305 c2.008-5.476,5.527-10.823,9.951-14.638c0.795-0.686,1.687-1.334,2.634-1.801c-1.482,0.73-2.706,5.923-3.461,7.334 c-4.13,7.71-10.797,15.643-17.935,20.768c-1.975,1.418-1.674-2.105-1.551-2.662c0.246-1.113,1.458-2.645,2.104-3.797 c0.79-1.411,1.361-2.97,1.948-4.47c1.445-3.695,2.73-7.528,3.693-11.38c0.042-0.141,0.066-0.284,0.075-0.43 c0.035-0.367-0.629-0.179-0.784-0.086c-0.386,0.23-0.533,0.976-0.794,1.334c-2.91,3.993-7.333,7.347-10.985,10.593 c-1.411,1.254-7.011,5.848-6.377,1.117c0.388-2.898,2.069-5.819,3.377-8.348c1.767-3.415,3.849-6.675,6.181-9.729 c-0.217,0.284,3.655-4.891,4.385-2.538c0.501,1.615-0.439,4.098-0.842,5.633c-1.7,6.49-5.535,11.442-9.982,16.265 C9.994,27.343,8.6,29.065,7.237,30.84c-0.865,1.126-1.914,2.073-3.07,2.886c-3.418,2.4-3.5-1.606-3.436-3.306 C1.133,19.738,9.168,8.021,16.095,0.219C16.376-0.099,15.402-0.039,15.194,0.195L15.194,0.195 M166.434,6.39c7.492-1.104,14.987-2.215,22.5-3.167c0.531-0.067,0.746-0.782,0.088-0.699 c-7.513,0.952-15.008,2.063-22.5,3.167C165.995,5.768,165.777,6.486,166.434,6.39L166.434,6.39z"/>
</svg>