<?xml version="1.0" encoding="UTF-8" standalone="no"?>
<!-- Created with Inkscape (http://www.inkscape.org/) -->

<svg
   xmlns:dc="http://purl.org/dc/elements/1.1/"
   xmlns:cc="http://creativecommons.org/ns#"
   xmlns:rdf="http://www.w3.org/1999/02/22-rdf-syntax-ns#"
   xmlns:svg="http://www.w3.org/2000/svg"
   xmlns="http://www.w3.org/2000/svg"
   xmlns:sodipodi="http://sodipodi.sourceforge.net/DTD/sodipodi-0.dtd"
   xmlns:inkscape="http://www.inkscape.org/namespaces/inkscape"
   id="svg2"
   version="1.1"
   inkscape:version="0.91 r13725"
   width="236.72156"
   height="71.344749"
   viewBox="0 0 236.72156 71.344749"
   sodipodi:docname="Olavo Bilac signature.svg">
  <metadata
     id="metadata8">
    <rdf:RDF>
      <cc:Work
         rdf:about="">
        <dc:format>image/svg+xml</dc:format>
        <dc:type
           rdf:resource="http://purl.org/dc/dcmitype/StillImage" />
        <dc:title></dc:title>
      </cc:Work>
    </rdf:RDF>
  </metadata>
  <defs
     id="defs6" />
  <sodipodi:namedview
     pagecolor="#ffffff"
     bordercolor="#666666"
     borderopacity="1"
     objecttolerance="10"
     gridtolerance="10"
     guidetolerance="10"
     inkscape:pageopacity="0"
     inkscape:pageshadow="2"
     inkscape:window-width="1920"
     inkscape:window-height="1017"
     id="namedview4"
     showgrid="false"
     inkscape:zoom="3.0041841"
     inkscape:cx="145.84864"
     inkscape:cy="7.0917602"
     inkscape:window-x="-8"
     inkscape:window-y="-8"
     inkscape:window-maximized="1"
     inkscape:current-layer="svg2"
     fit-margin-top="0"
     fit-margin-left="0"
     fit-margin-right="0"
     fit-margin-bottom="0" />
  <path
     style="fill:#000000"
     d="m 68.723784,70.718616 c 0.04758,-0.547938 0.984982,-1.197832 2.083107,-1.444207 1.098125,-0.246378 3.050994,-1.863544 4.339709,-3.593702 3.607025,-4.842596 18.926169,-30.16037 18.532663,-30.62872 -0.734683,-0.874416 -7.995294,2.455661 -8.662797,3.97319 -0.76789,1.745744 -5.227766,2.852294 -6.794004,1.685676 -0.539856,-0.402113 -0.677086,-1.585307 -0.304955,-2.629319 0.598752,-1.679801 0.306074,-1.85091 -2.543756,-1.487162 -2.98474,0.380966 -4.285261,1.216332 -5.264636,3.381642 -0.58655,1.296809 -13.1075,1.693279 -14.153635,0.448168 -0.491813,-0.585359 -1.608729,-0.745895 -2.539739,-0.365043 -0.914017,0.373902 -4.073165,1.029151 -7.020327,1.456112 -4.234723,0.613493 -5.645168,0.493048 -6.725529,-0.574322 -1.881748,-1.859119 -1.547146,-3.761143 1.877116,-10.670382 l 2.9521,-5.956541 -3.883278,-0.337232 C 36.913265,23.655236 36.6144,23.859513 34.193813,28.36632 31.194406,33.950813 30.037562,34.905814 21.998821,38.433563 17.95026,40.210246 13.993233,41.112759 10.222282,41.119539 5.0828703,41.12878 4.3375463,40.866499 2.3809104,38.36016 -5.9320537,27.711729 8.8964652,7.7889204 25.64733,7.1006401 c 3.743387,-0.1538138 5.408734,0.2263077 6.809997,1.554402 1.761215,1.6692529 1.721784,1.6868639 -0.781069,0.3488344 C 22.320703,4.0023805 4.2050525,16.125748 3.1666501,28.083096 c -0.398009,4.583128 1.7240553,9.500183 4.5319889,10.501112 2.735124,0.974974 9.404836,0.464068 13.2136,-1.012174 8.007936,-3.103805 14.335011,-11.403186 11.5276,-15.121039 -2.182331,-2.890059 -2.383157,-6.676968 -0.464576,-8.760341 1.691984,-1.837313 1.727215,-1.834938 3.03827,0.204758 0.72954,1.134994 1.214946,3.347442 1.078681,4.91655 -0.241482,2.780704 -0.127702,2.855605 4.494532,2.958816 l 4.742286,0.10589 5.122365,-7.491189 C 56.015319,6.2485344 62.597431,-0.21215172 65.101808,0.00533388 c 4.667461,0.4053326 5.434727,7.04252052 1.601139,13.85057012 -1.990718,3.535306 -3.23944,4.353107 -11.151716,7.303381 -4.900488,1.827259 -8.920618,3.444818 -8.933623,3.594577 -0.013,0.149757 -1.133301,2.647484 -2.489546,5.550503 -3.180873,6.808605 -3.45935,9.737219 -0.946649,9.955428 2.816335,0.244576 5.223975,-0.631409 4.683274,-1.703941 -0.64313,-1.27571 2.877206,-6.052122 5.414191,-7.346005 1.433534,-0.731115 2.410855,-0.704761 3.211858,0.08661 0.800018,0.790397 1.534446,0.815608 2.406849,0.08262 2.129919,-1.789544 2.427099,0.06969 0.498602,3.119371 -2.257465,3.569904 -2.260345,3.606072 -0.360626,4.530856 1.025149,0.499044 2.790779,-0.388417 5.23346,-2.630504 4.05838,-3.725104 5.991218,-3.405823 2.930489,0.48408 -1.842311,2.341407 -1.848499,2.452631 -0.126471,2.27354 0.99583,-0.103567 2.182935,-1.282832 2.638013,-2.620588 0.702655,-2.06554 1.325466,-2.347343 4.130565,-1.868951 2.27565,0.388097 4.545648,-0.147066 7.297454,-1.720409 3.963668,-2.266226 6.722244,-1.939988 5.463323,0.646107 -1.9387,3.982546 6.569001,-0.01236 10.988047,-5.159586 5.031779,-5.860916 7.202239,-5.317928 3.314989,0.829309 -1.017567,1.609148 -1.339103,2.845154 -0.75338,2.896019 0.562,0.04881 0.9682,0.706313 0.90265,1.461128 -0.33561,3.864578 7.47765,5.242971 11.33732,2.000099 2.30832,-1.939427 2.20094,-2.540146 -1.15104,-6.43949 -2.44651,-2.846017 -2.68354,-3.569737 -1.38844,-4.239363 0.85894,-0.444109 2.23616,-0.771824 3.06049,-0.728255 0.82431,0.04357 2.63726,-0.428219 4.02873,-1.04842 2.34668,-1.045945 2.39477,-1.180926 0.66368,-1.863199 -1.02644,-0.404558 -4.32761,-0.765636 -7.33591,-0.802394 -18.59911,-0.227257 -33.863807,-1.320264 -34.441475,-2.466126 -0.938947,-1.862493 0.400846,-2.446194 4.996977,-2.17701 2.301861,0.134815 11.881502,0.550847 21.288088,0.924519 19.03276,0.756064 22.36231,1.433162 22.09654,4.493549 -0.12967,1.493171 -1.53298,2.459231 -5.31583,3.65948 l -5.13963,1.630749 1.84024,3.125362 c 2.3354,3.966312 0.93472,6.881622 -4.23034,8.804802 -5.42548,2.020151 -9.31517,1.34491 -11.504217,-1.997104 -1.017105,-1.552783 -2.015121,-2.655764 -2.21782,-2.451068 -0.2027,0.204694 -4.89001,7.891639 -10.416248,17.082098 -5.526239,9.190459 -10.933998,17.362512 -12.017242,18.160121 -2.509295,1.847628 -6.599356,2.750066 -6.484789,1.430815 z M 54.117475,36.556345 c 1.20604,-1.013308 1.474495,-1.841082 0.841437,-2.594549 -1.118064,-1.330722 -4.161708,0.455825 -4.343532,2.54955 -0.160017,1.842615 1.339634,1.861885 3.502095,0.04499 z m 28.523392,1.048374 c 0.09798,-1.128213 -0.294234,-1.813157 -0.871581,-1.522097 -0.577346,0.291061 -1.105821,1.175212 -1.17439,1.96478 -0.06857,0.78957 0.323644,1.474512 0.871582,1.522097 0.547938,0.04759 1.076414,-0.836567 1.174389,-1.96478 z M 59.481018,18.395674 C 64.819123,15.258693 68.908351,5.9103996 66.139201,3.1745489 63.783965,0.84763588 60.570886,3.3691068 54.471884,12.330502 c -3.00588,4.416604 -5.487959,8.291838 -5.515731,8.61163 -0.09149,1.053567 7.541358,-0.793177 10.524865,-2.546458 z m 59.378502,18.303167 c 0.0263,-0.326203 1.00176,-1.317375 2.16867,-2.202516 1.16692,-0.88514 2.4602,-2.423764 2.87399,-3.419162 0.41376,-0.995398 1.38347,-1.755003 2.1549,-1.68801 1.09392,0.095 1.13992,0.665597 0.20906,2.59291 -1.86611,3.863679 -1.63564,4.591921 1.30383,4.119725 4.91759,-0.789966 7.73822,-3.333553 12.96135,-11.688258 5.03944,-8.060931 8.60776,-11.306027 9.80994,-8.921368 1.03243,2.047903 -1.01248,5.745081 -6.59905,11.931063 -6.11601,6.772237 -6.76787,8.434339 -3.73225,9.516367 2.47421,0.881909 5.10044,0.260369 4.4395,-1.050673 -0.26378,-0.523238 1.02956,-2.219329 2.87409,-3.769092 2.34792,-1.972713 3.96212,-2.600878 5.38248,-2.0946 1.11584,0.397732 2.89809,0.279802 3.96057,-0.262073 2.79322,-1.42456 3.47446,0.103343 1.28611,2.88452 -2.24089,2.847962 -1.19491,3.763925 4.24179,3.71457 2.50096,-0.02271 3.74608,-0.698058 4.89797,-2.656665 1.95861,-3.330298 4.99535,-3.384704 3.85026,-0.06898 -1.03912,3.008854 1.6752,4.544986 12.20417,6.906791 8.11718,1.820803 33.15948,2.731018 43.64298,1.586296 6.77893,-0.740209 10.06546,-0.320416 9.92751,1.268061 -0.0812,0.935463 -1.41213,1.282638 -4.15104,1.082824 -2.21729,-0.161759 -7.53693,-0.02095 -11.8214,0.312912 -11.52209,0.897847 -43.40158,-2.170509 -48.98398,-4.714638 -2.38973,-1.089102 -7.16162,-2.182947 -10.60418,-2.430766 -3.44257,-0.247818 -6.48708,-0.721795 -6.7656,-1.053279 -0.27851,-0.331485 -2.44893,0.08354 -4.82315,0.92227 -5.11517,1.807019 -12.12734,1.463461 -13.93037,-0.682514 -1.1055,-1.31577 -1.87636,-1.322447 -5.54517,-0.04803 -3.91875,1.361241 -11.34322,1.303285 -11.23298,-0.08769 z m 32.00311,-2.6894 c 1.13759,-2.336877 0.0711,-2.665367 -2.10125,-0.647223 -1.80894,1.680507 -1.83537,1.854294 -0.30223,1.987435 0.92402,0.08024 2.0056,-0.522852 2.40348,-1.340212 z m -3.41847,-14.61645 c 0.11295,-1.452952 -0.0204,-1.491024 -0.96448,-0.275459 -1.43029,1.841534 -1.54482,3.16038 -0.21629,2.490626 0.57734,-0.29106 1.10869,-1.287885 1.18077,-2.215167 z"
     id="path4138"
     inkscape:connector-curvature="0"
     sodipodi:nodetypes="sssssssssssssscsssssssssssssssscsssssssssssssssssssssssssssssssssssscssssssssssssssssssssscsssssssssssssssssssssssscssscssssssss" />
</svg>
