<?xml version="1.0" encoding="UTF-8"?>
<svg version="1.0" xmlns="http://www.w3.org/2000/svg" width="235" height="30" >
<path d="M25.254,9.799c-4.339-0.725-9.51,2.699-12.909,4.811C10.848,15.539-4.852,26.397,1.51,27.888 c2.378,0.557,5.331-0.783,7.449-1.663c4.97-2.065,10.117-5.282,13.928-9.107c1.042-1.046,2.45-3.415,0.202-4.074 c-2.199-0.644-4.085,0.117-6.044,1.156c-1.709,0.907-11.427,7.886-8.726,10.644c1.291,1.318,3.559,0.709,5.138,0.385 c4.996-1.025,10.014-3.36,14.476-5.792c2.072-1.129,4.232-3.386,6.608-3.787c-0.975,0.165,0.651-1.271-0.423-0.571 c-0.404,0.264-0.808,0.529-1.211,0.794c-1.586,1.043-3.162,2.103-4.731,3.171c-0.954,0.649-11.374,7.466-9.682,8.584 c1.317,0.87,3.426-0.017,4.722-0.46c6.617-2.263,12.904-6.04,19.045-9.311c1.051-0.56-0.364-0.978-0.979-0.679 c-1.595,0.774-16.017,8.326-11.906,10.489c2.306,1.213,6.907-1.317,8.913-2.15c5.268-2.188,10.3-5.255,15.753-6.964 c-0.17-0.292-0.34-0.583-0.51-0.875c-1.016,0.443-11.987,6.593-8.194,7.926c2.324,0.817,5.031-0.063,7.315-0.643 c4.73-1.201,9.34-3.001,13.891-4.744c-0.326-0.227-0.653-0.452-0.979-0.679c-1.554,0.799-4.168,2.052-4.911,3.766 c-0.676,1.561,0.487,2.128,1.917,1.767c1.969-0.499,11.596-5.35,7.39-7.601c-0.438-0.234-1.204-0.013-1.543,0.31 c-0.074,0.07-0.148,0.141-0.223,0.211c-0.104,0.098-0.243,0.253-0.191,0.415c1.457,4.598,6.273,3.471,9.893,2.843 c4.08-0.707,10.554-1.743,13.622-4.88c0.301-0.308,0.213-0.555-0.183-0.679c-2.797-0.882-13.277,7.786-8.423,8.591 c4.316,0.716,9.847-2.075,13.74-3.585c1.152-0.447,8.716-2.721,8.695-4.478c-0.006-0.507-1.146-0.206-1.347-0.135 c-2.364,0.829-13.646,8.75-5.706,8.479c4.184-0.143,8.481-2.888,11.958-4.954c1.438-0.854,7.764-4.038,7.549-6.282 c-0.029-0.31-0.64-0.311-0.833-0.272c-2.118,0.41-3.608,2.85-3.717,4.867c-0.186,3.468,5.441,3.574,7.631,3.491 c2.126-0.081,21.113-3.453,19.996-7.098c-1.657-5.409-13.44,3.109-14.584,6.627c-0.518,1.592,0.741,2.535,2.243,2.334 c4.679-0.629,8.886-4.471,12.399-7.296c0.868-0.698-0.964-0.682-1.373-0.44c-1.482,0.876-5.558,3.259-5.099,5.433 c0.566,2.677,3.757,1.777,5.695,1.358c6.352-1.373,12.428-4.661,18.096-7.718c7.07-3.813,13.851-8.466,19.681-14.008 c0.831-0.79-1.098-0.702-1.549-0.313C171.527,4.489,166.7,8.729,161.9,13c-5.288,4.704-11.594,9.365-15.888,15.053 c-0.524,0.694,1.423,0.535,1.799,0.037c4.415-5.849,10.983-10.638,16.424-15.478c4.538-4.036,9.105-8.039,13.701-12.01 c-0.517-0.104-1.032-0.208-1.549-0.313c-7.089,6.738-15.494,11.951-24.222,16.291c-3.922,1.95-8.022,3.674-12.264,4.787 c-3.362,0.883-3.32-2.051-1.315-3.77c0.656-0.563,1.426-1.052,2.174-1.493c-0.458-0.147-0.915-0.294-1.373-0.44 c-0.766,0.615-10.439,8.437-11.237,5.928c-0.9-2.829,5.149-6.138,6.287-6.699c4.222-0.575,5.37-0.328,3.445,0.74 c-0.576,0.332-1.17,0.63-1.779,0.896c-1.733,0.803-3.563,1.4-5.383,1.967c-3.895,1.213-8.273,2.286-12.365,1.699 c-2.085-0.299-3.54-1.769-2.941-3.924c0.317-0.751,0.766-1.41,1.346-1.979c0.157-0.166-1.502,0.32-1.865,0.652 c-2.543,2.333-5.742,4.109-8.754,5.755c-1.932,1.056-3.958,1.95-6.076,2.558c-3.62,1.039-2.66-1.427-1.064-2.791 c1.573-1.346,3.771-2.897,5.762-3.597c-0.449-0.045-0.898-0.09-1.348-0.135c0.012,0.984-12.214,4.885-13.54,5.304 c-1.529,0.484-8.833,2.305-5.53-1.034c1.563-1.58,3.627-2.75,5.548-3.841c1.439-0.816,0.009-1.04-0.025-1.005 c-0.956,0.978-2.662,1.456-3.913,1.941c-3.5,1.355-7.316,2.123-11.032,2.561c-1.6,0.188-5.121-2.35-6.088-0.795 c-0.765,1.229-2.334,2.131-3.508,2.883c-2.68,1.718-2.603-0.126-0.452-1.563c0.6-0.401,1.245-0.75,1.888-1.08 c1.094-0.563-0.396-0.902-0.979-0.679c-4.754,1.821-9.537,3.596-14.477,4.85c-0.422,0.107-4.713,1.29-4.659-0.389 c0.037-1.146,2.374-2.555,3.129-3.053c1.415-0.934,2.967-1.692,4.519-2.369c1.04-0.454,0.377-1.152-0.51-0.875 c-6.267,1.965-12.029,5.465-18.124,7.896c-0.363,0.146-5.29,2.234-5.102,0.416c0.179-1.727,3.466-3.382,4.726-4.195 c2.157-1.393,4.45-2.622,6.759-3.742c-0.326-0.227-0.653-0.452-0.979-0.679c-5.092,2.712-10.192,5.429-15.453,7.803 c-0.575,0.26-5.693,1.933-5.366,1.448c1.957-2.895,6.312-4.998,9.128-6.928c2.11-1.446,4.241-2.863,6.388-4.255 c0.719-0.466,0.179-0.876-0.466-0.816c-4.088,0.381-7.617,3.944-11.191,5.681c-1.974,0.96-14.972,6.438-13.97,2.608 c0.771-2.949,4.41-5.585,6.76-7.227c0.548-0.383,7.343-3.354,4.938,0.593c-1.789,2.934-5.818,4.895-8.639,6.598 c-2.413,1.457-4.924,2.76-7.615,3.618c-3.041,0.97-4.633,0.006-2.576-2.712c3.702-4.892,10.142-8.743,15.633-11.347 c1.475-0.699,3.731-1.792,5.436-1.508C24.679,10.945,26.35,9.981,25.254,9.799L25.254,9.799z"/>
<path d="M156.321,14.08c1.661,4.384,7.249,6.246,11.51,6.286c7.658,0.072,15.376-1.276,22.973-2.106 c10.917-1.193,41.049-7.337,41.632,10.892c0.031,0.993,1.98,0.673,1.953-0.16c-0.475-14.872-19.014-14.063-29.37-13.396 c-9.019,0.581-17.989,1.769-26.972,2.732c-6.07,0.651-17.018,2.56-19.794-4.766C157.931,12.712,156.01,13.26,156.321,14.08 L156.321,14.08z"/>
</svg>