<?xml version="1.0" encoding="UTF-8" standalone="no"?>
<!-- Created with Inkscape (http://www.inkscape.org/) -->

<svg
   xmlns:dc="http://purl.org/dc/elements/1.1/"
   xmlns:cc="http://creativecommons.org/ns#"
   xmlns:rdf="http://www.w3.org/1999/02/22-rdf-syntax-ns#"
   xmlns:svg="http://www.w3.org/2000/svg"
   xmlns="http://www.w3.org/2000/svg"
   xmlns:sodipodi="http://sodipodi.sourceforge.net/DTD/sodipodi-0.dtd"
   xmlns:inkscape="http://www.inkscape.org/namespaces/inkscape"
   width="389.6106"
   height="122.76641"
   id="svg2"
   version="1.1"
   inkscape:version="0.48.1 "
   sodipodi:docname="Nouveau document 1">
  <defs
     id="defs4" />
  <sodipodi:namedview
     id="base"
     pagecolor="#ffffff"
     bordercolor="#666666"
     borderopacity="1.0"
     inkscape:pageopacity="0.0"
     inkscape:pageshadow="2"
     inkscape:zoom="0.7"
     inkscape:cx="314.99982"
     inkscape:cy="104.0046"
     inkscape:document-units="px"
     inkscape:current-layer="layer1"
     showgrid="false"
     fit-margin-top="0"
     fit-margin-left="0"
     fit-margin-right="0"
     fit-margin-bottom="0"
     inkscape:window-width="1920"
     inkscape:window-height="1138"
     inkscape:window-x="-8"
     inkscape:window-y="-8"
     inkscape:window-maximized="1" />
  <metadata
     id="metadata7">
    <rdf:RDF>
      <cc:Work
         rdf:about="">
        <dc:format>image/svg+xml</dc:format>
        <dc:type
           rdf:resource="http://purl.org/dc/dcmitype/StillImage" />
        <dc:title></dc:title>
      </cc:Work>
    </rdf:RDF>
  </metadata>
  <g
     inkscape:label="Calque 1"
     inkscape:groupmode="layer"
     id="layer1"
     transform="translate(-106.22266,-509.59695)">
    <path
       style="fill:#000000"
       d="m 390.67857,632.21773 c -2.23153,-0.80474 0.51811,-7.90112 1.96057,-11.51909 2.23886,-5.6155 6.91274,-10.73502 10.09279,-15.06825 7.28818,-9.89021 7.43603,-10.16285 4.72418,-8.71151 -2.74474,1.46894 -7.02754,0.5111 -7.02754,-1.5717 0,-1.14339 -0.58845,-1.36794 -2.25,-0.85856 -1.2375,0.37938 -2.7,1.02265 -3.25,1.4295 -3.93751,2.91267 -10.5,1.5835 -10.5,-2.12667 0,-1.58544 -0.41082,-1.8999 -1.75,-1.33954 -1.68461,0.70491 -6.87076,2.01986 -12.38158,3.13936 -1.44737,0.29402 -2.93642,0.0413 -3.30902,-0.56153 -0.37259,-0.60287 -2.67588,-1.09612 -5.11842,-1.09612 -5.36117,0 -6.02737,-2.10025 -1.28879,-4.06304 1.73371,-0.71812 5.1333,-3.02032 7.55466,-5.11599 6.41515,-5.55227 12.47414,-6.53173 13.10514,-2.11849 0.22711,1.5885 -0.52093,2.61277 -2.75,3.76547 -1.6841,0.87087 -3.06199,1.75473 -3.06199,1.96411 0,0.60812 4.21636,-0.6622 6.97281,-2.1008 4.31736,-2.25323 7.91078,-1.70215 9.25111,1.41874 0.64957,1.5125 1.24188,2.86445 1.31623,3.00434 0.0744,0.13988 1.44574,-0.38943 3.04752,-1.17625 1.60178,-0.78683 4.59983,-1.73886 6.66233,-2.11563 3.56125,-0.65056 3.75,-0.55183 3.75,1.96143 0,2.34347 0.23079,2.52296 2.01569,1.56771 1.10863,-0.59332 4.21483,-3.03191 6.90266,-5.41909 l 4.88698,-4.34032 -2.90267,-2.14603 c -1.59646,-1.18032 -2.90266,-2.73782 -2.90266,-3.46111 0,-3.23687 6.65365,-6.04645 13.73502,-5.79977 2.64768,0.0922 3.67368,-0.53285 5.65109,-3.44286 2.8211,-4.15162 6.19655,-6.75838 7.61564,-5.88134 2.0477,1.26555 0.87752,5.01338 -3.00175,9.61397 -3.79604,4.50188 -4.75223,6.79938 -3.39477,8.15684 0.33287,0.33288 3.31096,-2.06712 6.61798,-5.33333 3.30701,-3.26621 6.63466,-5.93856 7.39477,-5.93856 2.56132,0 1.49379,5.61309 -2.0463,10.75947 -2.54546,3.70046 -3.13775,5.27446 -2.3,6.11221 0.62058,0.62058 1.70295,1.12832 2.40527,1.12832 0.70232,0 2.01407,1.125 2.91501,2.5 2.02623,3.09242 3.81029,3.15764 6.83906,0.25 1.69776,-1.62986 2.47299,-3.70597 2.81269,-7.53254 0.39238,-4.41998 1.01168,-5.76707 3.79273,-8.25 3.84325,-3.43124 4.25645,-3.5244 6.04948,-1.36393 1.91643,2.30915 1.35813,8.96412 -1.03383,12.32332 -4.06385,5.70715 -2.49816,8.5256 9.59,17.2632 2.27814,1.6467 4.93459,4.46559 5.9032,6.2642 1.57256,2.92006 1.60238,3.49683 0.27853,5.38689 -3.4421,4.9143 -18.21268,12.35772 -27.17184,13.69286 -4.38548,0.65356 -4.81389,0.54526 -4.49029,-1.13509 0.20029,-1.04002 1.67383,-2.24291 3.34803,-2.73308 4.08224,-1.1952 18.51216,-8.45537 21.31275,-10.72316 2.19843,-1.78018 2.21436,-1.90584 0.46359,-3.65661 -0.99719,-0.99719 -3.382,-2.91032 -5.29957,-4.25139 -1.91757,-1.34107 -3.71149,-2.73491 -3.98649,-3.09741 -0.275,-0.36251 -1.98253,-2.33517 -3.79452,-4.38368 -2.60999,-2.9507 -3.58204,-3.48595 -4.67833,-2.57611 -0.7611,0.63165 -3.32856,1.36017 -5.70548,1.61892 -3.75938,0.40925 -4.75256,0.0758 -7.63339,-2.56296 -4.6837,-4.29012 -7.51558,-4.01506 -9.95138,0.96657 -1.59939,3.27104 -3.34023,5.93829 -5.43713,8.33055 -0.93512,1.06685 -1.98906,3.25478 -2.34208,4.86207 -0.48945,2.22848 -1.12997,2.84934 -2.69764,2.61486 -3.51929,-0.52637 -4.93967,-3.66087 -2.45451,-7.00445 4.39186,-5.90889 1.73805,-3.10721 -2.25,1.0203 -4.5494,6.13944 -9.91724,11.13473 -14.55554,16.58989 -8.23462,9.72304 -13.47319,13.87227 -16.25,12.87089 z m 8.32248,-11.03411 c 1.36234,-1.5125 3.97323,-4.325 5.80198,-6.25 1.82875,-1.925 5.48556,-6.2 8.12625,-9.5 2.64069,-3.3 5.79696,-6.93415 7.01392,-8.07588 2.90545,-2.72584 9.66474,-12.57808 9.05069,-13.19213 -1.04898,-1.04898 -3.60689,0.86605 -5.97093,4.47024 -1.37005,2.08877 -4.80639,6.27277 -7.63631,9.29777 -2.82991,3.025 -6.33646,7.3 -7.79233,9.5 -1.45587,2.2 -2.8788,4.225 -3.16208,4.5 -0.28327,0.275 -2.43956,3.0875 -4.79175,6.25 -4.49626,6.04519 -4.84159,7.66531 -0.63944,3 z m -291.25633,-1.89024 c -2.12328,-3.24054 -2.01348,-9.33598 0.25669,-14.25 9.50906,-20.58338 10.81373,-22.3965 20.24061,-28.12853 7.99774,-4.17796 18.32686,-4.57525 24.4039,0.89799 1.95172,1.77603 4.38875,3.84947 5.41562,4.60764 1.41217,1.04266 1.58645,1.6633 0.71534,2.54751 -0.87791,0.89111 -1.82877,0.79682 -4,-0.39666 -8.04503,-4.42219 -9.64583,-4.83884 -15.98351,-4.16013 -4.50834,0.4828 -7.50953,1.50778 -10.80363,3.6897 -7.20906,4.72257 -15.11063,22.17902 -15.56117,28.98194 0,2.50573 5.43484,2.38485 9.5,-0.2113 1.65,-1.05374 3.675,-2.20713 4.5,-2.56309 4.17208,-1.80008 25.92964,-17.72907 32.02415,-23.44528 0.83829,-0.78625 3.98829,-3.42702 7,-5.86838 3.01172,-2.44136 6.15085,-5.02034 6.97585,-5.73106 5.45951,-4.70329 7.18719,-6.15649 10.4979,-8.83011 2.04318,-1.65 4.9045,-4.15712 6.35849,-5.57138 1.45398,-1.41426 6.01861,-5.45342 10.14361,-8.9759 4.125,-3.52249 9.36397,-8.21537 11.64215,-10.42862 11.05201,-10.73702 15.44069,-14.75066 22.35785,-20.44722 14.5387,-11.9732 15.20447,-12.37907 17.52389,-10.68307 1.40773,1.02935 1.6153,2.06644 1.04002,5.19611 -6.50689,22.61648 -19.55097,34.7161 -30.507,50.91008 -1.89371,2.75 -4.41895,5.93331 -5.61165,7.07403 -3.23253,3.09163 -5.87805,7.42597 -4.53254,7.42597 0.62851,0 4.32963,-1.575 8.22471,-3.5 4.06257,-1.31616 11.96623,-7.21642 14.97795,-3.86097 2.46315,2.96791 0.21022,10.13103 -4.90664,15.60054 -4.51241,4.8234 -2.35941,4.70991 12.43992,-0.65575 2.28176,-0.82728 5.82684,-2.44673 7.87797,-3.59878 2.05113,-1.15205 4.68423,-1.99402 5.85134,-1.87104 1.85603,0.19556 6.07165,-1.31035 11.85846,-4.23608 0.95504,-0.48286 3.56403,-0.87792 5.79775,-0.87792 5.55082,0 9.39808,3.94885 8.60553,8.83277 -0.46384,2.85832 -0.29555,3.2444 1.15882,2.65841 6.5566,-2.64177 11.66718,-3.60002 13.86328,-2.59941 1.286,0.58594 2.33819,1.75 2.33819,2.58679 0,1.9917 2.08744,1.92425 6.56766,-0.21222 3.58096,-1.70764 3.66358,-1.69899 5.50597,0.57626 1.31551,1.62459 2.47214,2.11896 3.89841,1.66627 4.17446,-3.58045 11.35442,-6.75779 13.45099,-12.26636 0.36228,-1.14144 1.92012,-2.51508 3.46186,-3.05254 1.54175,-0.53745 4.33586,-2.30907 6.20914,-3.93693 7.10392,-6.17321 8.57102,-6.14943 9.85192,0.15967 0.61264,3.01753 0.80277,3.10989 8.41461,4.08729 5.65958,0.72672 8.0544,1.47824 8.76332,2.75 0.85835,1.53985 0.45916,1.7655 -3.32419,1.87905 -2.36483,0.071 -6.32469,0.0587 -8.79969,-0.0272 -5.26485,-0.18276 -6.16457,0.31211 -8.36047,4.59846 -2.04536,3.99251 -2.05206,5.18634 -0.0416,7.40791 2.15719,2.38366 0.98084,3.89175 -3.03566,3.89175 -2.74478,0 -3.53458,-0.51887 -4.56075,-2.99626 -1.01558,-2.45183 -0.97301,-3.81055 0.23427,-7.47774 0.81145,-2.46481 1.28832,-4.66853 1.05971,-4.89713 -0.72217,-0.72218 -5.66772,2.17245 -9.10725,5.33047 -6.08674,3.49732 -11.60087,12.62956 -18.93387,13.04066 -1.10524,0 -2.57584,-0.68238 -3.26802,-1.51639 -0.95454,-1.15016 -2.40576,-1.36421 -6.0087,-0.88626 -4.07124,0.54007 -5.06961,0.31073 -6.98484,-1.6045 l -2.23464,-2.23464 -7.41254,1.74562 c -7.08538,1.66858 -7.49934,1.66708 -9.37911,-0.0341 -2.15868,-1.95358 -2.49285,-4.9553 -0.99131,-8.90464 0.72522,-1.90736 0.65407,-2.56506 -0.27746,-2.56506 -2.44488,0 -5.69776,3.13866 -5.69776,5.49769 0,1.31135 -0.5625,2.74469 -1.25,3.1852 -3.0028,1.924 -8.55615,3.60427 -12.25,3.70645 -3.24711,0.0898 -4.1858,-0.31284 -4.98713,-2.13934 -1.22113,-2.78338 -1.25104,-2.78282 -7.87463,0.14644 -5.56199,1.24438 -11.47585,5.56618 -16.67158,5.60356 -3.26797,0 -4.14486,-0.45467 -5.30377,-2.75 -1.67095,-3.30945 -1.33293,-4.45434 2.99487,-10.1438 3.72461,-4.89648 4.4504,-7.71638 1.59224,-6.18632 -0.9625,0.51526 -4,1.897 -6.75,3.07055 -2.75,1.17354 -6.40341,2.81982 -8.11869,3.6584 -1.71529,0.83858 -4.19029,1.37314 -5.5,1.18793 -1.97431,-0.2792 -2.4358,-1.00196 -2.70014,-4.22877 -0.2763,-3.37287 0.2043,-4.43998 3.60307,-8 2.15705,-2.2594 6.63274,-7.70799 9.94598,-12.10799 8.3201,-11.33433 28.85486,-36.76587 29.84828,-47.25484 -0.65275,-0.65275 -13.71663,10.19405 -21.51609,17.86458 -3.69646,3.63535 -7.19122,6.78535 -7.76614,7 -0.57491,0.21464 -6.32171,5.34026 -12.77065,11.39026 -7.68613,7.53296 -16.62797,14.7542 -23.96521,22.04754 -7.73822,7.19469 -14.58521,13.46119 -22.55498,19.34095 -13.63826,10.06174 -32.22439,26.46283 -43.01317,27.11151 -3.16164,0 -4.29008,-0.52489 -5.67611,-2.64024 z m 151.68385,-29.85976 c 0,-0.825 -0.45,-1.5 -1,-1.5 -0.55,0 -1,0.675 -1,1.5 0,0.825 0.45,1.5 1,1.5 0.55,0 1,-0.675 1,-1.5 z m 230.2,13.3 c -1.83864,-1.83864 -1.44335,-3.33181 1.26591,-4.78176 1.97723,-1.05818 2.76436,-1.07202 3.97191,-0.0698 1.33489,1.10785 1.31036,1.51908 -0.21591,3.61931 -1.93588,2.66387 -3.26434,2.98986 -5.02191,1.23229 z"
       id="path2996"
       inkscape:connector-curvature="0"
       sodipodi:nodetypes="sacssssssscsssssssscssssscsscssscsssssssssssssssssssscsssssssssccssssssssscssssccssssccsssssssssssccssccssssssssssssccssssscssssssccccsscsscsssssccssssssssccssccacsssssscscscc" />
  </g>
</svg>
