<?xml version="1.0" encoding="UTF-8" standalone="no"?>
<!-- Created with Inkscape (http://www.inkscape.org/) -->
<svg xmlns:rdf="http://www.w3.org/1999/02/22-rdf-syntax-ns#" xmlns="http://www.w3.org/2000/svg" version="1.1" xmlns:cc="http://creativecommons.org/ns#" xmlns:dc="http://purl.org/dc/elements/1.1/" viewBox="0 0 219.7 75.01">
 <metadata>
  <rdf:RDF>
   <cc:Work rdf:about="">
    <dc:format>image/svg+xml</dc:format>
    <dc:type rdf:resource="http://purl.org/dc/dcmitype/StillImage"/>
    <dc:title/>
   </cc:Work>
  </rdf:RDF>
 </metadata>
 <g fill-rule="evenodd" transform="matrix(0.95796093,0,0,0.95796093,4.6176784,1.5767586)">
  <path d="m1.736,24.5-0.7197,0.1588c0.1304-1.179,0.05615-2.289-0.2227-3.331,5.875-7.701,13.15-13.26,20.85-17.61,7.15-1.9,10.02,1.205,11.99,5.71,5.5-0.7638,11-0.905,16.5,0.3175,8.443-3.319,17.02-3.295,24.8,1.994,9.131-10.36,14.8-11.56,16.31,1.259l-0.6211,17.88c6.33-9.514,10.99-19.74,14.9-30.3,2.14-0.4912,2.677,0.42,1.614,2.732-0.685,1.772-1.502,3.055-1.701,4.665-1.091,8.835,0.5864,18.95,6.668,29.48,4.143-1.632,8.543-2.309,11.71-3.666,29.63-12.71,31.62,14.49,6.914,26.02,7.242-1.945,14.32-3.229,21.23-3.849,4.429-2.608,8.401-5.215,12.17-7.822,3.726-1.739,4.968-0.663,3.726,3.228-3.395,4.594-5.132,10.02-5.215,16.27,1.076,1.035,2.606,0.7031,4.345-0.2486,4.449-3.58,7.76-8.298,10.55-13.53,1.945-0.8281,1.655,0.8271,1.862,1.862-1.945,1.738-3.311,3.725-4.594,6.457-0.6425,3.56,1.634,5.546,4.594,2.855,4.724-5.99,10.86-10.69,16.51-15.77,2.815-2.442,4.635-2.069,5.464,1.118l-0.745,7.698c3.27-3.849,4.884-3.725,4.842,0.3721l0.04,5.891c1.118,2.4,2.235,2.263,3.684-0.3032,1.698-1.738,3.062-3.477,4.099-5.214-0.7188-0.665-0.42-1.244-0.2488-1.738,0.4925-0.753,1.091-0.9131,1.922-0.9882,0.9638,0.3651,1.481,0.8149,1.43,1.857-2.065,1.856-3.601,3.922-3.974,6.456,0.1138,1.471,0.7338,1.925,1.862,1.366,0.8875-0.7979,1.686-1.64,2.235-2.607,0.6262-0.4454,0.8488-0.3427,0.6325,0.4301-0.2788,1.457-0.155,3.155,0.15,4.963,0.56,1,1.061,0.9502,1.504-0.1504,0.2825-1.814,0.3838-3.901,0.4325-6.065l0.32,0.04387c0.2525,2.512,0.1025,5.024-0.4125,7.419-0.4125,0.5669-1.091,0.5669-1.862,0.3086-0.52-0.4039-0.8062-0.9244-0.8588-1.562l-0.4525-0.9409c-1.43,1.202-2.691,0.9664-3.782-0.7075l-0.5375-2.739c-0.6975,1.101-1.485,2.11-2.475,2.919-1.828,1.873-3.035,1.004-4.278-0.6348-1.314-2.313-1.321-4.927-0.735-7.678-0.2062-1.566-0.7775-1.672-1.714-0.3169-3.336,2.316-4.219,6.741-5.639,10.66l-0.3888-0.0634c0.6962-5.939,1.742-11.72,3.755-17.08,0.3025-2.458-0.355-3.836-3.121-1.745-6.175,5.005-10.42,11.3-13.96,18.06l-1.249,0.1055c-0.2812-0.9165,0.1975-2.024-0.845-2.75-3.569,3.733-6.978,3.46-7.752-2.295-7.464,11.6-14.8,8.312-12.45-1.724,1.458-3.971,3.498-7.359,5.938-10.35,0.5875-0.9301,0.35-2.26-1.84-1.288-3.006,1.871-6.236,3.817-9.242,5.688,3.412,0.4032,4.966,1.72,4.174,4.927-4.2,7.953-9.702,13.07-17.11,14.41-3.572-0.2656-4.892-1.91-4.14-4.601,2.509-6.777,5.834-9.254,10.95-12.15-6.451,0.1025-12.9,1.206-19.35,3.312-4.468,1.302-8.934,1.685-13.4,1.152l0.1962-1.082c10.13-0.2236,18.72-6.036,26.75-13.87,4.561-7.594,3.765-12.45-0.905-14.54-5.688-2.957-12.61-1.244-18.18,2.047,5.239,9.274-10.06,21.23-14.96,26.93,3.158,3.159,7.329,4.631,11.96,5.336v1.104c-7.471,0.5386-14.19,0.3242-18.22-2.576-9.44,5.2-17.51,5.679-24.21,1.438-15.58,3.983-21.93-2.918-16.11-13.59,1.921-2.854,4.139-5.51,7.012-7.729-7.035-6.181-6.084-13.35-1.783-21.04-3.786-1.495-7.896-2.829-12.48-3.924-1.085-1.346-0.5482-2.329,1.171-3.675,5.43-0.5388,10.51-2.186,15.34-3.726-7.187-6.148-14.78-6.354-22.97-0.2862-0.31,0.1625-1.004,0.545-1.491,0.07625-2.175-2.094-7.534,1.28-14.07,3.21l-0.8014,0.2375c-0.4765,0.3262-0.5722,0.7088-0.2861,1.146,16.68,1.279,25.49,4.932,29.76,10.62,2.19,3.472,1.764,6.589-0.4506,9.461-6.003,7.243-14.87,9.181-25.08,9.611v-0.7505c8.818-0.748,16.69-2.932,22.9-8.485,4.092-4.23,2.716-7.986-2.403-11.41-7.888-4.092-16.57-6.746-26.66-6.834-10.8,17.86-21.55,22.1-29.98,14.7l0.2192-1.646c9.842,7.532,18.96-0.8169,27.88-13.61-2.337-2.342-0.4916-3.136,1.903-4.412l0.08637-3.241c-7.092,2.009-12.37,1.834-15.94-1.841-6.036,3.241-10.9,8.315-13.13,14.09zm19.02-17.27c0.8491,1.205,2.059,2.265,4.062,3.01l1.522-0.065c2.007-0.0275,3.669-0.5738,5.503-0.86-2.598-4.538-6.148-5.745-11.09-2.085zm13,7.886c3.023-1.212,7.389-2.502,10.66-3.225-2.66-0.4275-5.234-1.138-7.894-0.875-1.077-0.06875-2.64,0.5388-2.764,1.324-0.1841,1.018,0,1.851,0,2.776zm29.14,2.995,7.608-1.07c1.698-0.3,2.476,0.04375,1.967,1.215l-2.4,3.658-7.294-1.664c-3.272-0.7125-3.232-1.426,0.1188-2.139zm9.359,4.412c6.38,1.781,12.06,4.395,17.11,7.699,4.267-25.6-3.369-33.97-17.11-7.699zm-1.157,3.076c9.904,0.4362,16.87,4.208,19.66,12.01-1.363,0.7256-3.17,2.176-5.041,3.876-3.328,0.04687-6.657-0.2065-9.985,1.593-1.15-0.01125-2.298,0.3452-3.447,1.07-6.582-3.921-5.845-11.67-1.188-18.54zm-7.397,37.77c4.383,3.764,9.155,4.103,15.3,2.537-3.328-4.901-2.463-11.7,4.997-21.89-6.584,0.07563-24.9,11.64-20.44,19.2,0.037,0.0635,0.08637,0.1152,0.1386,0.1596zm28.45-30.33c-0.4189,1.453-0.5092,2.717,0.1104,4.17,5.364-3.411,10.92-4.164,16.28-3.419-3.407-6.817-4.135-14.92-4.422-22.44-3.724,7.361-7.553,14.67-11.97,21.68zm8.576,2.996c7.394-1.968,11.14-1.08,6.854,6.092-2.435,3.526-5.148,6.913-8.091,10.19-2.903-1.904-5.98-2.412-9.138-2.285l-0.0952,0.3809c3.149,0.2774,5.989,1.086,8.376,3.141-3.299,3.966-7.234,7.044-11.8,9.233-5.734,3.45-8.002,1.625-7.9-3.808,3.839-11.71,11.1-19.35,21.8-22.94zm-0.3878,18.29c1.028,0.271,1.962,0.292,2.991,0.5679-1.237,3.425-1.146,6.989,0.0805,10.19-6.728,2.69-13.13,4.049-18.29,2.484l-1.892-1.012c6.212-2.845,12.02-6.697,17.11-12.23zm6.003,11.02,2.999-2.284,5.425,3.426c0.5882,0.4009,0.3982,1.105-0.2421,1.059-2.829,0.5376-5.571-0.562-8.182-2.201zm-1.282-1.177,3.014-2.062c-1.659-1.301-2.941-3.287-3.965-5.012-0.5746,2.134-0.376,4.94,0.9518,7.074zm8.404-21.67c7.142,9.221,4.459,13.12-7.792,10.91,1.836-4.398,4.433-8.034,7.792-10.91zm-12.03,10.42,1.985,0.523,1.794-3.044c1.272-0.874,0.0298-0.9721-0.29-0.7812l-3.488,3.302zm4.139-4.159c-0.0118,0.4434,0.269,0.602,0.7134,0.4755,2.095-2.85,4.377-5.34,6.934-7.728l-1.534-1.918c-1.586,3.238-3.742,6.196-6.114,9.171zm7.958-10.44,1.303,1.996c1.327-1.528,2.884-2.826,4.672-3.893-2.051,0.4531-4.044,1.086-5.975,1.897zm5.586,12.94c10.89-12.28,6.954-22.09-3.496-9.92,2.68,2.965,3.608,6.446,3.496,9.92zm-13.95,3.46c3.551,0.937,7.429,1.16,10.85,0.3979-2.121,2.099-4.277,4.163-6.528,6.131-1.858-1.309-3.39-3.142-4.593-5.498l0.27-1.031zm53.79,6.429c-3.415,5.431-7.669,9.881-13.77,12.18-3.302,0.3564-4.589-0.7422-3.86-3.297,3.384-7.487,7.096-10.07,12.51-12.53,4.785-1.282,6.38,0.0059,5.12,3.652" fill="#bdbcbc"/>
  <path d="m1.021,24.05-0.7197,0.1575c0.1299-1.179,0.05566-2.289-0.2231-3.331,5.875-7.701,13.15-13.26,20.85-17.61,7.15-1.899,10.02,1.206,11.99,5.71,5.5-0.7625,11-0.905,16.5,0.3188,8.444-3.32,17.02-3.296,24.8,1.993,9.131-10.36,14.8-11.56,16.31,1.259l-0.6211,17.88c6.331-9.514,10.99-19.74,14.9-30.3,2.14-0.49,2.678,0.42,1.614,2.732-0.6851,1.772-1.502,3.055-1.701,4.665-1.091,8.835,0.5865,18.95,6.668,29.48,4.144-1.632,8.544-2.309,11.71-3.666,29.63-12.71,31.62,14.49,6.914,26.02,7.242-1.945,14.32-3.229,21.23-3.849,4.429-2.608,8.401-5.215,12.17-7.822,3.725-1.739,4.966-0.6631,3.725,3.228-3.394,4.594-5.132,10.02-5.215,16.27,1.076,1.035,2.608,0.7031,4.346-0.2485,4.449-3.58,7.76-8.298,10.55-13.53,1.945-0.8281,1.655,0.8271,1.862,1.862-1.946,1.738-3.311,3.725-4.595,6.456-0.6412,3.56,1.635,5.546,4.595,2.855,4.722-5.99,10.86-10.69,16.51-15.77,2.815-2.442,4.636-2.069,5.464,1.118l-0.745,7.698c3.27-3.85,4.884-3.725,4.842,0.372l0.04,5.891c1.118,2.4,2.236,2.262,3.685-0.3031,1.696-1.738,3.062-3.477,4.098-5.215-0.7175-0.6646-0.42-1.244-0.2488-1.738,0.4925-0.7529,1.091-0.913,1.924-0.9882,0.9625,0.3652,1.481,0.815,1.429,1.858-2.065,1.855-3.601,3.923-3.974,6.456,0.1138,1.471,0.735,1.925,1.864,1.366,0.8875-0.7984,1.685-1.641,2.235-2.608,0.625-0.4452,0.8475-0.3428,0.6312,0.4302-0.2775,1.457-0.155,3.155,0.1512,4.963,0.5588,1,1.061,0.9501,1.504-0.1504,0.2825-1.814,0.3825-3.901,0.4325-6.066l0.3188,0.044c0.2525,2.512,0.1038,5.024-0.4125,7.419-0.4112,0.567-1.091,0.567-1.862,0.3086-0.52-0.4038-0.805-0.9242-0.8575-1.562l-0.4525-0.9409c-1.431,1.202-2.691,0.9662-3.784-0.7075l-0.5375-2.739c-0.6962,1.101-1.485,2.11-2.474,2.919-1.829,1.872-3.035,1.003-4.278-0.6342-1.315-2.314-1.322-4.928-0.7362-7.679-0.205-1.566-0.7762-1.672-1.712-0.3169-3.336,2.316-4.22,6.741-5.639,10.66l-0.39-0.0635c0.6962-5.939,1.742-11.72,3.755-17.08,0.3025-2.458-0.355-3.836-3.12-1.745-6.175,5.005-10.42,11.3-13.96,18.06l-1.248,0.1055c-0.2825-0.9165,0.1975-2.023-0.8462-2.75-3.568,3.733-6.978,3.46-7.752-2.295-7.462,11.6-14.8,8.312-12.45-1.725,1.458-3.971,3.499-7.36,5.938-10.35,0.5888-0.9298,0.3512-2.26-1.84-1.288-3.005,1.871-6.236,3.816-9.242,5.688,3.414,0.4034,4.968,1.72,4.175,4.927-4.201,7.953-9.704,13.07-17.11,14.41-3.571-0.2656-4.892-1.91-4.14-4.601,2.51-6.777,5.834-9.254,10.95-12.15-6.451,0.1021-12.9,1.206-19.36,3.312-4.466,1.302-8.932,1.686-13.4,1.152l0.1975-1.082c10.13-0.2231,18.72-6.036,26.75-13.87,4.561-7.594,3.765-12.45-0.9038-14.54-5.688-2.958-12.61-1.244-18.18,2.047,5.24,9.274-10.06,21.23-14.96,26.93,3.159,3.159,7.329,4.631,11.96,5.336v1.104c-7.471,0.5381-14.19,0.3238-18.22-2.577-9.44,5.2-17.51,5.679-24.21,1.438-15.58,3.983-21.93-2.918-16.11-13.59,1.921-2.854,4.139-5.51,7.011-7.729-7.035-6.182-6.084-13.35-1.783-21.04-3.786-1.495-7.896-2.829-12.48-3.922-1.084-1.348-0.5482-2.329,1.171-3.676,5.431-0.5388,10.51-2.186,15.34-3.726-7.187-6.148-14.78-6.353-22.97-0.285-0.3105,0.1612-1.005,0.5438-1.491,0.075-2.175-2.094-7.533,1.28-14.07,3.21l-0.8012,0.2375c-0.4771,0.3275-0.5727,0.7088-0.2861,1.146,16.68,1.28,25.49,4.932,29.76,10.62,2.19,3.472,1.764,6.589-0.4501,9.462-6.003,7.243-14.87,9.182-25.08,9.612v-0.7509c8.818-0.7481,16.69-2.932,22.9-8.485,4.092-4.23,2.716-7.984-2.403-11.41-7.888-4.092-16.57-6.745-26.66-6.834-10.91,17.87-21.67,22.1-30.09,14.71l0.2197-1.646c9.842,7.532,18.96-0.8159,27.88-13.61-2.338-2.342-0.4918-3.135,1.903-4.412l0.0865-3.241c-7.09,2-12.36,1.83-15.94-1.846-6.032,3.236-10.9,8.316-13.13,14.1zm19.02-17.28c0.8491,1.205,2.059,2.266,4.062,3.01l1.523-0.065c2.007-0.0275,3.668-0.5738,5.504-0.86-2.599-4.538-6.148-5.745-11.09-2.085zm13,7.886c3.023-1.212,7.388-2.501,10.66-3.225-2.66-0.4275-5.234-1.136-7.894-0.875-1.077-0.06875-2.64,0.5388-2.764,1.324-0.1846,1.018,0,1.851,0,2.776zm29.14,2.995,7.608-1.07c1.699-0.3,2.477,0.04375,1.967,1.216l-2.4,3.656-7.294-1.662c-3.272-0.7138-3.232-1.428,0.1186-2.14zm9.36,4.412c6.38,1.781,12.06,4.395,17.11,7.699,4.267-25.6-3.37-33.97-17.11-7.699zm-1.157,3.076c9.905,0.4362,16.87,4.209,19.66,12.01-1.364,0.7255-3.171,2.176-5.041,3.876-3.328,0.04687-6.657-0.2066-9.985,1.593-1.15-0.01125-2.299,0.3452-3.447,1.07-6.582-3.921-5.845-11.67-1.189-18.54zm-7.397,37.77c4.384,3.764,9.155,4.103,15.3,2.537-3.329-4.901-2.463-11.7,4.997-21.89-6.584,0.07575-24.9,11.64-20.44,19.2,0.03713,0.0634,0.08638,0.1151,0.1386,0.1596zm28.45-30.32c-0.4189,1.453-0.5092,2.716,0.1104,4.17,5.364-3.411,10.92-4.164,16.28-3.419-3.407-6.817-4.136-14.92-4.423-22.43-3.723,7.36-7.552,14.67-11.97,21.68zm8.576,2.996c7.394-1.968,11.14-1.08,6.853,6.092-2.435,3.526-5.148,6.912-8.091,10.18-2.903-1.904-5.98-2.412-9.137-2.285l-0.0953,0.3809c3.149,0.2772,5.989,1.087,8.376,3.141-3.3,3.966-7.234,7.044-11.8,9.233-5.734,3.45-8.003,1.625-7.9-3.808,3.839-11.71,11.1-19.35,21.8-22.94zm-0.3882,18.29c1.029,0.271,1.962,0.292,2.992,0.5679-1.237,3.424-1.146,6.989,0.0801,10.19-6.728,2.689-13.13,4.049-18.29,2.484l-1.892-1.012c6.212-2.845,12.02-6.697,17.11-12.23zm6.004,11.02,2.998-2.284,5.425,3.427c0.5874,0.4004,0.398,1.105-0.2421,1.059-2.829,0.5371-5.571-0.5625-8.182-2.202zm-1.282-1.177,3.014-2.062c-1.66-1.301-2.941-3.287-3.965-5.012-0.5746,2.134-0.3764,4.94,0.9518,7.074zm8.403-21.67c7.144,9.221,4.46,13.12-7.792,10.91,1.836-4.398,4.434-8.034,7.792-10.91zm-12.03,10.42,1.985,0.5229,1.793-3.044c1.273-0.874,0.0302-0.9722-0.29-0.7812l-3.488,3.302zm4.139-4.159c-0.0122,0.4434,0.2685,0.6021,0.7129,0.4756,2.095-2.85,4.378-5.339,6.935-7.728l-1.534-1.918c-1.585,3.238-3.742,6.196-6.113,9.171zm7.958-10.44,1.303,1.996c1.326-1.528,2.884-2.826,4.672-3.893-2.051,0.4531-4.043,1.086-5.975,1.897zm5.586,12.94c10.89-12.27,6.955-22.1-3.497-9.92,2.68,2.965,3.608,6.446,3.497,9.92zm-13.95,3.46c3.551,0.9371,7.429,1.16,10.85,0.398-2.121,2.099-4.277,4.163-6.528,6.131-1.858-1.309-3.39-3.142-4.593-5.498l0.2705-1.031zm53.79,6.429c-3.416,5.431-7.67,9.881-13.77,12.18-3.301,0.3565-4.588-0.7421-3.859-3.297,3.384-7.487,7.095-10.07,12.51-12.53,4.786-1.282,6.38,0.0059,5.121,3.652" fill="#231f20"/>
 </g>
</svg>
