<?xml version="1.0" encoding="UTF-8"?>
<svg version="1.0" xmlns="http://www.w3.org/2000/svg" width="280" height="93" >
<path fill="#231F20" d="M57.721,14.684c-6.743,10.471-13.069,21.281-18.669,32.405c-1.732,3.44-14.493,27.838-2.489,26.231 c1.322-0.177,1.339-2.279,0-2.1c-5.061,0.677-2.574-6.412-1.73-9.072c2.179-6.87,5.624-13.383,9-19.724 c4.845-9.101,10.119-18.013,15.702-26.681C60.27,14.602,58.451,13.55,57.721,14.684L57.721,14.684 M11.396,21.25c-1.685-0.831-7.013-3.558-2.455-4.117c1.228-0.151,2.449-0.354,3.671-0.548 c4.678-0.744,9.35-1.533,14.025-2.297c14.409-2.354,28.841-4.601,43.329-6.416c11.696-1.466,24.052-3.405,35.861-2.271 c1.695,0.162,5.867,0.457,3.73,2.81c-4.786,5.271-13.25,8.386-19.43,11.566c-17.191,8.849-35.181,16.096-52.252,25.174 c-4.101,2.181-18.722,10.753-6.62,13.038c1.323,0.25,1.888-1.774,0.559-2.025c-1.228-0.231-4.174-0.532-3.046-2.29 c1.37-2.136,4.33-3.57,6.435-4.823c7.576-4.506,15.729-8.101,23.707-11.821c10.015-4.672,20.057-9.286,29.934-14.247 c7.108-3.569,14.871-7.075,21.111-12.084c6.048-4.854-0.882-7.184-5.511-7.513C92.161,2.514,79.429,4.557,67.282,6.112 c-15.566,1.993-31.066,4.479-46.55,7.028c-3.976,0.654-7.954,1.421-11.954,1.912c-7.922,0.974-2.631,5.946,1.559,8.01 C11.547,23.659,12.611,21.848,11.396,21.25L11.396,21.25 M71.012,43.453c-2.581,2.199-20.294,16.668-15.379,20.57c5.902,4.686,17.373-12.772,18.811-17.436 c0.37-1.202-1.267-1.738-1.919-0.81c-2.826,4.021-5.532,8.284-7.313,12.88c-1.011,2.609-0.384,7.247,3.503,5.187 c5.147-2.729,8.708-9.374,11.688-14.095c3.627-5.746,7.314-11.857,9.682-18.258c0.475-1.285-1.529-1.787-2.025-0.559 c-4.135,10.24-8.726,21.728-8.975,32.884c-0.024,1.055,1.437,1.42,1.957,0.53c1.102-1.89,2.298-3.724,3.537-5.525 c1.063-1.547,6.636-9.755,7.392-4.688c0.311,2.083,0.925,6.917,4.172,6.464c4.449-0.621,7.516-7.125,9.478-10.438 c-0.64-0.271-1.279-0.54-1.919-0.81c-0.29,1.869-0.341,4.602,1.391,5.827c4.514,3.196,12.016-6.016,14.33-8.429 c-0.585-0.34-1.17-0.681-1.755-1.021c-1.174,3.889-2.211,12.484,4.48,9.996c3.088-1.147,5.718-3.845,8.239-5.848 c3.109-2.471,6.422-4.653,9.635-6.98c3.065-2.22,4.611-4.555,4.846-8.359c0.065-1.06-1.459-1.411-1.957-0.53 c-5.325,9.428-9.162,19.847-12.396,30.138c-0.417,1.329,1.519,1.765,2.025,0.559c0.64-1.525,1.614-3.39,2.533-4.942 c0.798-1.348,1.732-2.722,3.047-3.613c2.237-1.519,3.139,5.785,3.288,6.744c0.208,1.335,2.231,0.766,2.025-0.559 c-0.489-3.139-1.965-10.99-6.822-7.695c-2.984,2.025-4.749,6.294-6.097,9.507c0.675,0.187,1.35,0.372,2.025,0.559 c3.184-10.136,6.941-20.354,12.184-29.636c-0.652-0.177-1.305-0.354-1.957-0.53c-0.212,3.43-1.807,5.099-4.49,7.041 c-3.615,2.618-7.27,5.14-10.767,7.919c-2.101,1.67-8.833,7.914-8.715,1.668c0.031-1.634,0.426-3.316,0.897-4.878 c0.303-1.006-1.032-1.776-1.755-1.021c-1.934,2.017-13.603,13.629-12.21,4.645c0.174-1.123-1.273-1.9-1.919-0.81 c-1.734,2.932-3.502,5.819-5.902,8.263c-3.546,3.611-3.625-3.794-4.396-5.746c-0.712-1.801-2.391-1.949-3.964-1.25 c-4.513,2.005-7.947,8.861-10.315,12.922c0.652,0.177,1.305,0.354,1.957,0.53c0.245-10.926,4.848-22.287,8.901-32.325 c-0.675-0.187-1.35-0.372-2.025-0.559c-3.522,9.523-9.601,19.214-15.991,27.047c-1.223,1.498-2.729,3.379-4.58,4.109 c-1.678,0.662,1.194-6.055,1.43-6.507c1.576-3.034,3.454-5.948,5.42-8.744c-0.64-0.271-1.279-0.54-1.919-0.81 c-0.979,3.179-3.732,6.193-5.73,8.771c-1.408,1.816-2.928,3.54-4.561,5.155c-0.94,0.931-6.315,4.603-4.642,0.929 c2.841-6.237,9.881-11.574,15.013-15.947C73.53,44.059,72.037,42.58,71.012,43.453L71.012,43.453 M115.23,39.806c1.66-1.532,5.438-4.261,7.289-1.723c0.79,1.082,2.613,0.036,1.813-1.061 c-2.861-3.924-7.753-1.318-10.587,1.299C112.749,39.241,114.237,40.723,115.23,39.806L115.23,39.806 M135.436,24.729c-23.152,0.058-48.61,6.447-67.283,20.37c-1.072,0.799-0.027,2.623,1.06,1.813 c18.38-13.704,43.424-20.026,66.224-20.083C136.79,26.826,136.79,24.726,135.436,24.729L135.436,24.729 M171.533,20.647c-0.12,16.283,25.856,8.57,33.652,6.177c6.504-1.996,14.228-4.813,18.694-10.266 c1.686-2.059,0.172-4.23-1.964-5.022c-4.593-1.703-10.311,2.019-13.754,4.548c-9.628,7.073-16.321,17.862-22.58,27.804 c-2.15,3.415-8.189,10.83-6.959,15.453c0.73,2.748,4.583,0.507,5.901-0.282c4.543-2.719,7.939-5.181,13.547-5.364 c10.311-0.339,16.377,7.691,18.188,17.044c0.257,1.328,2.281,0.765,2.025-0.559c-1.518-7.841-5.403-14.537-13.112-17.47 c-5.525-2.102-12.525-1.327-17.549,1.718c-1.089,0.66-7.021,4.74-7.016,3.917c0.016-2.624,2.276-5.724,3.497-7.902 c3.346-5.977,7.185-11.731,11.124-17.328c5.326-7.566,12.757-16.957,22.174-19.499c1.325-0.357,3.941-0.742,4.952,0.572 c1.002,1.306-3.269,3.967-3.963,4.448c-7.145,4.947-44.885,19.622-44.756,2.012C173.643,19.293,171.542,19.294,171.533,20.647 L171.533,20.647 M196.786,60.937c4.584-3.559,9.092-7.219,13.539-10.948c4.75-3.985,11.709-8.608,14.557-14.319 c2.447-4.909-5.032-4.245-7.436-3.429c-6.657,2.26-14.435,9.899-15.398,17.066c-0.669,4.979,5.409,4.353,8.475,3.547 c8.12-2.134,15.66-7.631,21.67-13.308c3.613-3.412,10.108-10.211,10.038-15.699c-0.048-3.726-4.808,1.972-5.147,2.404 c-3.583,4.563-6.757,9.494-9.643,14.521c-1.478,2.574-5.085,7.671-3.706,10.865c1.832,4.242,9.596-4.378,10.492-5.415 c3.076-3.562,9.644-10.964,8.636-16.194c-0.178-0.92-1.486-0.99-1.919-0.251c-1.282,2.192-12.974,22.325-7.968,22.325 c2.009,0,4.136-2.519,5.429-3.705c3.97-3.639,7.493-7.787,10.885-11.957c5.056-6.214,12.034-14.056,13.684-22.156 c0.273-1.346-1.539-1.809-2.025-0.559c-2.326,5.985-4.699,11.953-7.108,17.906c-1.898,4.692-3.825,9.374-5.868,14.006 c-0.545,1.234-1.972,3.222-1.75,4.707c0.065,0.439,0.59,0.791,1.012,0.771c1.298-0.062,2.309-2.287,2.937-3.177 c1.822-2.587,3.673-5.556,6.22-7.498c1.441-1.1,1.007,1.741,0.967,2.563c-0.126,2.625-0.618,5.218-0.145,7.834 c0.408,2.255,2.632,1.468,3.547,0.109c0.843-1.251,2.625-7.47,3.784-7.885c1.611-0.577,3.805-0.032,5.303,0.616 c3.381,1.463,2.244,4.745,0.709,7.197c-4.231,6.761-10.952,11.789-15.226,18.64c-3.583,5.743-4.195,12.102-1.922,18.432 c0.454,1.265,2.484,0.72,2.025-0.559c-4.911-13.674,6.861-23.788,15.091-33.092c3.305-3.735,5.91-9.478,0.383-12.431 c-2.038-1.089-7.723-2.317-8.646,0.828c-0.685,2.334-1.757,4.65-3.005,6.732c-0.513,0.854-0.018,1.423-0.149-0.229 c-0.095-1.195,0.041-2.431,0.119-3.621c0.114-1.74,0.398-3.433,0.169-5.174c-1.076-8.179-11.344,6.965-12.533,8.57 c-0.646,0.869,1.155,1.71,1.615,0.62c0.676-1.601,1.433-3.17,2.127-4.764c1.823-4.184,3.545-8.411,5.262-12.64 c2.416-5.949,4.782-11.92,7.108-17.905c-0.675-0.187-1.351-0.372-2.025-0.559c-1.275,6.266-6.301,12.232-10.019,17.222 c-4.789,6.428-10.11,12.748-16.246,17.939c-0.401,0.341-0.828,0.646-1.28,0.912c-0.608,0.136-0.592,0.288,0.051,0.457 c-0.062-0.782,0.373-1.705,0.623-2.424c0.883-2.535,2.16-4.956,3.378-7.342c1.668-3.268,3.45-6.485,5.301-9.652 c-0.64-0.084-1.279-0.168-1.919-0.251c0.537,2.786-3.021,7.14-4.438,9.282c-2.347,3.552-5.16,7.206-8.672,9.684 c-3.142,2.216-2.123-0.233-1.248-2.305c1.189-2.816,2.776-5.479,4.349-8.093c2.889-4.797,5.998-9.856,9.867-13.938 c0.861-0.909-0.39-1.777-0.708-0.736c-0.37,1.209-1,2.356-1.558,3.485c-2.434,4.926-6.307,8.973-10.419,12.535 c-5.204,4.509-15.108,12.031-22.588,10.837c-4.422-0.707,3.42-10.272,4.287-11.25c2.938-3.314,7.553-6.604,12.176-6.562 c3.33,0.03-2.451,5.483-3.147,6.169c-3.145,3.097-6.525,5.963-9.897,8.808c-4.434,3.742-8.955,7.391-13.539,10.949 C194.232,60.281,195.73,61.757,196.786,60.937L196.786,60.937z"/>
</svg>