<?xml version="1.0" encoding="UTF-8"?>
<svg version="1.1" xmlns="http://www.w3.org/2000/svg" width="512" height="78" >
<path fill="#231F20" d="M2.48,31.573c-3.192,2.824-2.42,6.913,1.492,8.533c5.541,2.294,12.588,1.603,18.39,1.274 c16.435-0.931,32.809-3.896,48.967-6.882c-0.568-0.975-1.135-1.95-1.703-2.925C58.005,43.354,46.383,55.135,34.762,66.917 c0.825,0.825,1.65,1.65,2.475,2.475c15.401-16.694,32.309-32.975,51.118-45.764c5.085-3.457,10.494-6.689,16.348-8.651 c1.717-0.575,13.718-2.521,11.69,1.497c-2.75,5.448-12.475,6.853-17.694,7.188c-11.714,0.753-22.843-4.362-31.764-11.588 c-1.737-1.407-4.229,1.054-2.475,2.475c13.729,11.122,37.46,19.215,52.874,6.185c3.19-2.697,4.092-7.307-0.217-9.339 c-5.156-2.431-11.789-0.612-16.716,1.478c-15.576,6.605-29.009,18.749-41.36,30.024c-8.384,7.654-16.519,15.64-24.233,23.972 c-0.016,0.017-0.031,0.033-0.046,0.05c-1.525,1.653,0.883,4.089,2.475,2.475C48.858,57.61,60.48,45.829,72.101,34.047 c1.304-1.321-0.042-3.231-1.703-2.925c-14.666,2.71-29.417,5.244-44.291,6.492c-6.242,0.523-13.054,1.165-19.233-0.25 c-1.049-0.241-2.285-0.68-2.873-1.275c-0.191-0.193-0.158-0.324-0.097-0.557c0.145-0.554,0.345-0.86,1.051-1.484 C6.649,32.549,4.164,30.083,2.48,31.573L2.48,31.573 M108.775,43.31c-5.135-2.137-11.305-2.195-16.726-1.688c-8.871,0.831-21.17,4.484-26.759,12.044 c-2.726,3.688-2.672,8.712,2.167,10.528c8.598,3.228,19.098-2.459,26.24-6.718c-0.707-0.917-1.414-1.833-2.121-2.749 c-3.052,3.376-6.068,7.223-7.644,11.529c-2.939,8.033,6.971,7.057,11.624,5.772c8.491-2.344,16.703-6.45,24.617-10.239 c7.274-3.482,14.373-7.394,20.937-12.092c8.575-6.139,16.055-14.271,17.955-24.955c0.393-2.207-2.98-3.15-3.375-0.931 c-1.572,8.842-7.114,15.468-13.916,21.013c-10.674,8.702-23.885,14.468-36.437,19.843c-5.017,2.148-10.609,4.729-16.156,5.025 c-2.719,0.145-2.411-1.401-1.512-3.407c1.496-3.336,3.941-6.385,6.381-9.085c1.306-1.444-0.359-3.799-2.121-2.749 c-6.266,3.736-14.565,8.346-22.2,6.805c-7.175-1.449,1.025-8.233,3.536-9.805c9.354-5.856,23.904-9.21,34.577-4.77 C109.928,47.552,110.828,44.164,108.775,43.31L108.775,43.31 M133.046,50.668c-4.197,3.947-11.113,10.382-10.93,16.625c0.435,14.892,48.716-7.449,52.514-9.03 c2.052-0.854,1.153-4.242-0.931-3.375c-12.421,5.17-25.189,10.574-38.446,13.219c-1.933,0.386-9.919,2.201-9.618-1.534 c0.395-4.887,6.521-10.266,9.885-13.43C137.168,51.594,134.688,49.124,133.046,50.668L133.046,50.668 M129.402,31.311c17.001-1.438,34.113-2.207,51.173-2.197c10.863,0.006,22.075,0.085,32.743,2.361 c2.785,0.594,6.299,1.329,8.341,3.49c1.596,1.689-1.032,4.102-2.209,5.2c-6.92,6.452-16.973,10.231-25.509,13.886 c0.589,1.008,1.178,2.015,1.767,3.022c10.53-4.687,21.505-8.698,32.652-11.624c6.108-1.603,13.45-3.562,19.739-1.889 c7.391,1.966,1.284,11.883-0.98,15.586c-0.753,1.23,0.505,3.135,1.976,2.571c10.42-3.996,21.189-7.513,32.129-9.747 c2-0.409,13.989-3.125,14.213,0.878c0.13,2.309-1.42,4.199-0.681,6.628c0.601,1.973,2.598,2.67,4.462,2.724 c5.735,0.163,12.173-4.194,16.892-6.963c1.925-1.129,3.817-2.317,5.681-3.545c1-0.66-0.728-0.103-0.193-0.045 c0.719,0.077,1.438,0.147,2.159,0.216c15.932,1.532,32.403,2.543,48.315,0.419c5.456-0.729,10.327-2.089,15.061-4.9 c4.514-2.68,10.016-3.953,15.134-2.545c3.229,0.888,3.614,2.292,4.047,5.212c0.329,2.226,3.702,1.276,3.375-0.931 c-0.373-2.52-0.292-4.013-2.537-5.67c-3.151-2.327-7.061-2.885-10.886-2.649c-5.087,0.314-9.286,2.829-13.651,5.16 c-3.445,1.84-7.72,2.446-11.537,2.956c-15.692,2.095-32.053,0.916-47.758-0.594c-3.256-0.313-4.9,1.426-7.696,3.129 c-4.188,2.552-12.101,8.417-17.309,7.139c-0.974-0.239,0.659-5.099,0.601-6.147c-0.102-1.819-1.276-3.236-2.845-4.046 c-4.523-2.336-11.1-0.712-15.776,0.199c-10.938,2.13-21.733,5.761-32.128,9.747c0.658,0.857,1.317,1.714,1.976,2.571 c3.008-4.917,8.067-13.657,2.641-18.751c-4.742-4.452-13.744-2.544-19.354-1.466c-13.553,2.604-26.899,7.754-39.485,13.355 c-2.07,0.921-0.274,3.896,1.767,3.022c7.166-3.069,14.34-6.3,20.938-10.484c3.078-1.952,6.62-4.364,8.307-7.722 c3.117-6.204-4.68-9.256-9.293-10.438c-10.105-2.589-21.007-2.667-31.37-2.792c-11.879-0.145-23.766,0.27-35.627,0.896 c-6.424,0.339-12.85,0.735-19.261,1.277C127.17,28,127.152,31.501,129.402,31.311L129.402,31.311 M374.737,51.975c2.059,2.865,5.431,4.601,8.753,5.527c3.323,0.926,6.83,0.694,10.188,0.141 c2.597-0.427,5.092-1.354,7.517-2.343c1.113-0.454,2.189-0.982,3.27-1.506c1.075-0.522,4.521-3.396,5.393-3.389 c11.668,0.101,23.336,0.202,35.004,0.303c1.02,0.009,1.483-0.653,2.137-1.285c1.722-1.666,3.786-2.936,5.891-4.054 c9.816-5.217,21.693-4.587,32.182-2.178c6.376,1.464,13.184,2.766,18.308-2.354c3.955-3.951,4.565-10.374,4.557-15.647 c-0.012-6.974-1.376-14.223-3.455-20.876c-0.671-2.146-4.05-1.23-3.375,0.931c2.777,8.887,4.977,19.78,2.188,28.866 c-2.783,9.065-11.867,6.951-19.012,5.31c-9.766-2.243-20.305-2.255-29.73,1.376c-3.88,1.495-7.886,3.74-10.719,6.855 c0.548-0.603,1.75-0.438,0.296-0.451c-1.012-0.009-2.024-0.017-3.037-0.026c-3.731-0.033-7.462-0.065-11.193-0.097 c-6.502-0.056-13.004-0.113-19.505-0.169c-0.494-0.004-1.014-0.046-1.454,0.234c-3.22,2.048-6.493,3.893-10.032,5.336 c-4.558,1.859-9.64,2.772-14.485,1.647c-2.382-0.553-5.741-2.639-6.661-3.918C376.455,48.393,373.417,50.138,374.737,51.975 L374.737,51.975 M404.875,3.591c-3.118-4.289-10.921,0.405-13.935,2.248c-8.345,5.1-15.625,12.074-22.561,18.891 c-14.59,14.342-27.869,30.033-40.823,45.844c-1.418,1.73,1.043,4.222,2.475,2.475c12.044-14.699,24.402-29.183,37.728-42.745 c6.992-7.116,14.306-14.177,22.535-19.867c2.904-2.008,6.975-4.599,10.179-4.93c0.908-0.094,1.582,0.124,1.401,0.042 c0.5,0.224,0.213,0.131-0.021-0.19C403.166,7.164,406.205,5.42,404.875,3.591L404.875,3.591z M342.728,9.368c0.753,0.813,1.507,1.625,2.26,2.438c0.648,0.7,1.819,0.655,2.475,0 c0.693-0.693,0.648-1.776,0-2.475c-0.753-0.813-1.507-1.625-2.26-2.438c-0.648-0.7-1.819-0.655-2.475,0 C342.035,7.586,342.08,8.669,342.728,9.368L342.728,9.368z"/>
</svg>