<?xml version="1.0" encoding="UTF-8" standalone="no"?>
<svg xmlns:rdf="http://www.w3.org/1999/02/22-rdf-syntax-ns#" xmlns="http://www.w3.org/2000/svg" height="100.04" viewBox="0 0 291.19317 100.03941" width="291.19" version="1.1" xmlns:cc="http://creativecommons.org/ns#" xmlns:dc="http://purl.org/dc/elements/1.1/">
 <path d="m66.031 0.20703c-1.41 0.04956-3.775 0.27256-5.16 0.51367-1.671 0.291-3.914 0.9457-5.682 1.6582-0.722 0.2913-1.378 0.5293-1.459 0.5293-0.263 0-7.134 3.3481-8 3.8984-0.33 0.21-0.735 0.4687-0.9 0.5743s-0.497 0.307-0.736 0.4492c-0.24 0.1421-0.653 0.4448-0.92 0.6719s-0.56 0.4121-0.651 0.4121c-0.09 0-0.274 0.1705-0.41 0.3769-0.135 0.2065-0.312 0.375-0.392 0.375-0.183 0-0.707 0.398-2.19 1.664-0.637 0.544-1.275 1.052-1.416 1.129-0.472 0.257-4.8 4.62-6.092 6.141-0.701 0.825-1.419 1.635-1.597 1.8-0.178 0.166-0.491 0.555-0.694 0.864s-0.418 0.562-0.478 0.562c-0.061 0.001-0.276 0.323-0.479 0.715-0.202 0.392-0.624 1.027-0.939 1.41-0.559 0.68-0.76 0.982-1.566 2.379-0.216 0.373-0.553 0.926-0.75 1.229-0.198 0.303-0.563 0.902-0.811 1.332-0.248 0.429-0.636 1.001-0.863 1.271-0.228 0.27-0.585 0.854-0.793 1.297-0.209 0.443-0.717 1.413-1.127 2.156-1.657 3-3.935 7.767-5.201 10.885-0.453 1.115-1.157 2.804-1.565 3.754-0.407 0.95-0.74 1.805-0.738 1.9 0.001 0.096-0.156 0.501-0.35 0.901-0.96 1.982-2.804 6.594-2.802 7.009 0 0.153-0.134 0.451-0.299 0.661s-0.301 0.549-0.301 0.755c0 0.207-0.141 0.605-0.315 0.885-0.173 0.28-0.4019 0.829-0.5073 1.219-0.1654 0.612-1.173 3.26-1.584 4.162-0.0753 0.165-0.407 1.113-0.7364 2.104-0.8035 2.417-0.9278 2.771-1.1621 3.324-0.1103 0.26-0.1992 0.549-0.1992 0.64 0 0.092-0.0583 0.285-0.1289 0.428-0.2592 0.527-1.1848 3.359-2.416 7.393-0.5168 1.693-1.0372 3.382-1.1563 3.754-0.2073 0.647-0.5665 2.175-1.0429 4.429-0.3576 1.692-0.49853 3.09-0.4043 4.028 0.0731 0.727 0.1539 0.918 0.4785 1.125 0.2147 0.137 0.478 0.367 0.5859 0.513 0.2468 0.334 1.5615 0.364 2.3008 0.053 1.751-0.737 5.4254-4.176 7.6912-7.199 0.318-0.424 0.639-0.795 0.713-0.822 0.075-0.028 0.135-0.13 0.135-0.229 0-0.098 0.197-0.393 0.437-0.656 0.505-0.553 2.116-2.861 2.116-3.031 0-0.064 0.135-0.238 0.3-0.387 0.166-0.15 0.301-0.396 0.301-0.545s0.126-0.339 0.281-0.422c0.156-0.083 0.395-0.407 0.532-0.719 0.136-0.312 0.412-0.837 0.613-1.168 0.201-0.33 0.539-0.938 0.752-1.351 0.212-0.413 0.44-0.853 0.506-0.977s0.309-0.596 0.541-1.051c0.231-0.454 0.514-0.932 0.627-1.064 0.189-0.22 0.578-0.919 1.369-2.463 0.268-0.524 1.089-2.229 3.148-6.533 0.297-0.619 0.62-1.226 0.719-1.35s0.218-0.479 0.266-0.789c0.047-0.31 0.294-0.971 0.547-1.469 0.252-0.497 0.459-0.995 0.459-1.105s0.236-0.652 0.525-1.207 0.525-1.095 0.525-1.203 0.094-0.273 0.207-0.367 0.325-0.492 0.471-0.883 0.358-0.817 0.471-0.947c0.113-0.131 0.163-0.279 0.113-0.329-0.05-0.049 0.018-0.244 0.15-0.433 0.133-0.189 0.241-0.437 0.241-0.551s0.265-0.756 0.59-1.43c0.884-1.835 1.07-2.475 0.917-3.15-0.261-1.159-1.165-1.54-1.755-0.74-0.31 0.418-0.953 1.772-0.953 2.004 0 0.069-0.164 0.484-0.364 0.922-0.2 0.437-0.509 1.166-0.687 1.619-0.375 0.954-0.58 1.417-1.373 3.109-0.319 0.68-0.58 1.327-0.58 1.436s-0.059 0.261-0.131 0.339c-0.073 0.079-0.243 0.488-0.379 0.909-0.137 0.42-0.415 0.991-0.619 1.267-0.204 0.277-0.371 0.562-0.371 0.633 0 0.139-0.519 1.369-0.758 1.799-0.08 0.143-0.145 0.354-0.145 0.469 0 0.324-1.541 3.524-2.174 4.511-0.312 0.488-0.693 1.245-0.847 1.682s-0.482 1.116-0.731 1.508c-0.248 0.391-0.451 0.779-0.451 0.859 0 0.081-0.097 0.253-0.215 0.383s-0.568 0.912-1.002 1.738c-2.005 3.82-2.577 4.799-3.088 5.299-0.193 0.189-0.349 0.453-0.349 0.586 0 0.066-0.057 0.196-0.147 0.352-0.089 0.155-0.213 0.336-0.349 0.505-0.272 0.339-0.815 1.071-1.207 1.627-0.392 0.557-0.985 1.334-1.319 1.727-0.333 0.393-0.7868 0.93-1.0075 1.191s-0.8072 0.929-1.3027 1.485-1.0554 1.238-1.2441 1.515c-0.0069 0.01-0.0146 0.016-0.0215 0.026-0.1766 0.178-0.3419 0.336-0.5098 0.496-0.1117 0.025-0.4959 0.289-0.9023 0.627-0.7517 0.625-1.3781 1.063-1.7754 1.267-0.1136 0.031-0.2326 0.071-0.3282 0.071-0.0382 0-0.0737-0.008-0.1054-0.022-0.2088-0.449 0.2014-3.854 0.5918-4.736 0.1744-0.394 0.3178-0.895 0.3183-1.111 0.0005-0.217 0.1013-0.586 0.2246-0.823 0.1234-0.236 0.2247-0.556 0.2247-0.711 0-0.58 1.427-5.678 1.9628-7.011 0.0763-0.19 0.1387-0.548 0.1387-0.793 0-0.09 0.0463-0.23 0.0879-0.366 0.0195-0.062 0.0371-0.124 0.0566-0.187 0.071-0.18 0.1589-0.369 0.2598-0.527 0.2218-0.35 0.3905-0.799 0.375-0.996-0.0154-0.198 0.0372-0.439 0.1172-0.536 0.08-0.096 0.2432-0.576 0.3633-1.066s0.4978-1.668 0.8398-2.617c0.3421-0.95 0.8461-2.37 1.1194-3.155 0.273-0.784 0.748-2.067 1.054-2.851 0.307-0.785 0.713-1.837 0.903-2.338 0.189-0.501 0.45-1.116 0.578-1.363 0.128-0.248 0.579-1.479 1.002-2.737 0.423-1.257 0.968-2.67 1.211-3.138 0.243-0.469 0.441-1.006 0.441-1.196 0-0.173 0.053-0.406 0.117-0.556 0.014-0.034 0.027-0.068 0.041-0.102 0.603-1.18 0.888-1.805 1.045-2.31 0.103-0.331 0.474-1.208 0.827-1.951 0.352-0.744 0.729-1.621 0.837-1.952 0.109-0.33 0.275-0.702 0.368-0.826s0.322-0.593 0.509-1.041c0.282-0.672 1.801-3.832 2.243-4.664 0.065-0.124 0.287-0.564 0.492-0.976 0.205-0.413 0.549-1.09 0.767-1.502 0.218-0.413 0.567-1.122 0.774-1.577 0.207-0.454 0.65-1.245 0.984-1.757 0.334-0.513 0.607-0.986 0.608-1.051 0-0.066 0.237-0.417 0.525-0.779 0.288-0.363 0.523-0.739 0.523-0.836 0-0.098 0.34-0.67 0.754-1.272 0.415-0.601 1.025-1.543 1.356-2.092 0.743-1.231 1.628-2.46 1.881-2.611 0.104-0.062 0.388-0.434 0.63-0.826 0.557-0.901 1.969-2.636 3.331-4.092 0.579-0.619 1.439-1.548 1.912-2.064 0.472-0.517 0.921-0.938 0.996-0.938s0.652-0.524 1.283-1.164 1.586-1.536 2.123-1.99 1.009-0.861 1.051-0.905c0.041-0.043 0.271-0.211 0.51-0.375 0.584-0.399 1.086-0.768 2.136-1.572 0.486-0.371 0.999-0.743 1.141-0.826 0.461-0.2683 1.339-0.8959 1.592-1.1289 0.568-0.351 1.152-0.6801 1.736-1.0078 2.134-1.0798 5.776-2.7265 7.375-3.2734 1.321-0.452 2.592-0.9233 2.826-1.0469 0.234-0.1237 0.585-0.2246 0.779-0.2246 0.195 0 0.543-0.0725 0.776-0.1621 0.215-0.0828 1.13-0.265 2.08-0.42 0.835-0.0911 1.738-0.1636 2.873-0.2109 1.179-0.0492 2.18-0.0613 3.082-0.0234 1.378 0.1232 2.676 0.3662 3.799 0.7441 1.401 0.4715 3.302 1.2984 3.603 1.5664 0.166 0.1468 0.526 0.3417 0.801 0.4336 0.515 0.1723 2.352 1.5413 2.699 2.0117 0.108 0.146 0.251 0.2637 0.319 0.2637 0.033 0 0.104 0.0478 0.183 0.1074 0.857 0.8238 1.676 1.7159 2.387 2.6091 0.171 0.234 0.293 0.425 0.293 0.496 0 0.052 0.296 0.516 0.656 1.032 1.499 2.145 2.45 5.503 2.412 8.519-0.018 1.518-0.331 4.4-0.533 4.914-0.09 0.229-0.296 0.889-0.459 1.467-0.316 1.126-1.939 4.538-2.459 5.172-0.173 0.211-0.542 0.722-0.82 1.135-0.938 1.392-2.852 3.416-4.746 5.129-0.748 0.659-1.543 1.321-2.383 1.986-0.021 0.015-0.045 0.035-0.066 0.051-0.542 0.392-1.053 0.765-1.135 0.828-0.723 0.55-1.685 1.226-2.629 1.847-0.619 0.408-1.396 0.937-1.727 1.176-0.33 0.239-1.444 0.924-2.476 1.522-1.033 0.597-2.148 1.259-2.479 1.47-0.33 0.212-1.444 0.819-2.476 1.35-1.033 0.531-1.945 1.018-2.028 1.082-0.415 0.322-5.239 2.769-10.134 5.137-1.363 0.659-2.597 1.259-2.741 1.334-1.672 0.874-3.783 1.865-4.617 2.166-0.289 0.104-1.101 0.459-1.803 0.791-1.998 0.943-4.032 1.78-5.179 2.131-1.631 0.498-2.102 0.768-2.102 1.203 0 0.499 0.539 0.742 1.746 0.787 0.792 0.029 1.201-0.06 2.383-0.514 0.785-0.301 1.61-0.587 1.834-0.636 0.224-0.05 1.001-0.366 1.727-0.704 0.726-0.337 1.758-0.813 2.295-1.06 0.536-0.247 1.313-0.608 1.726-0.803 1.935-0.912 3.105-1.424 3.258-1.424 0.092 0 1.288-0.585 2.658-1.301 1.371-0.715 3.033-1.559 3.694-1.878 0.66-0.319 1.472-0.725 1.802-0.899 0.331-0.174 0.871-0.444 1.201-0.601 0.331-0.157 0.703-0.352 0.827-0.432 0.242-0.157 3.242-1.702 4.353-2.242 0.372-0.181 0.777-0.388 0.9-0.461 0.827-0.487 2-1.158 2.715-1.555 0.461-0.255 1.341-0.797 1.953-1.203 1.079-0.714 2.152-1.41 4.192-2.721 0.537-0.344 1.172-0.755 1.412-0.912 0.24-0.156 0.657-0.419 0.928-0.584 0.791-0.483 3.361-2.632 3.707-3.099 0.174-0.236 0.399-0.43 0.502-0.43 0.102 0 0.32-0.169 0.482-0.375 0.163-0.207 0.341-0.375 0.399-0.375 0.328 0 4.732-4.84 4.732-5.201 0-0.054 0.252-0.477 0.561-0.94 1.539-2.311 2.577-4.908 2.888-7.222 0.094-0.702 0.241-1.716 0.326-2.252 0.322-2.018-0.101-6.254-0.847-8.485-0.519-1.548-1.709-3.624-3.274-5.7048-0.757-1.0076-3.992-3.9657-4.631-4.2343-0.235-0.0993-0.427-0.2546-0.427-0.3438s-0.119-0.2056-0.264-0.2598c-0.145-0.0541-0.725-0.393-1.291-0.7539-2.352-1.5007-5.056-2.4948-7.906-2.9043-0.702-0.10081-1.547-0.22377-1.877-0.2734-0.186-0.02796-0.55-0.03019-1.02-0.01367zm89.509 7.6563c-0.96 0-1.09 0.0377-1.49 0.4394-0.52 0.5241-0.54 0.6827-0.11 1.0274 0.17 0.1437 0.45 0.3893 0.62 0.5469 0.19 0.183 0.5 0.281 0.84 0.269 1.03-0.033 6.27 1.26 7.26 1.793 0.16 0.084 0.6 0.241 0.99 0.35 0.44 0.124 0.89 0.276 1.32 0.434 0.96 0.416 1.87 0.852 2.67 1.295 0.04 0.038 0.08 0.073 0.12 0.121 0.1 0.148 0.5 0.426 0.87 0.617 0.55 0.283 1.12 0.643 1.67 1.031 0.64 0.503 1.31 1.071 1.99 1.688 0.52 0.538 1.05 1.077 1.18 1.199 1.17 1.085 1.83 1.796 2.91 3.154 2.35 2.97 2.79 3.53 3.36 4.318 0.65 0.888 1.5 2.948 1.5 3.625 0 0.246 0.07 0.489 0.15 0.54s0.15 0.249 0.15 0.441c0 0.191 0.11 0.61 0.25 0.93 0.03 0.074 0.05 0.167 0.07 0.257 0.06 0.445 0.12 0.89 0.14 1.332 0.09 1.784-0.16 3.528-0.73 5.098-0.17 0.445-0.37 0.89-0.59 1.336-0.07 0.124-0.13 0.249-0.2 0.375-0.09 0.182-0.19 0.364-0.3 0.547-0.02 0.034-0.04 0.069-0.06 0.103-0.64 1.105-1.45 2.241-2.47 3.469-0.17 0.207-0.52 0.646-0.77 0.977-0.75 0.972-2.63 2.684-3.99 3.762-0.65 0.409-1.41 0.842-2.33 1.308v0.002c-0.82 0.326-2.08 0.852-3.68 1.553-0.26 0.113-0.52 0.207-0.57 0.207s-0.6 0.236-1.22 0.525-1.21 0.526-1.31 0.528c-0.1 0.001-0.47 0.163-0.81 0.361-0.35 0.198-0.85 0.408-1.13 0.467-0.57 0.123-1.71 0.478-2.15 0.67-0.16 0.072-1.07 0.382-2.02 0.689s-1.83 0.647-1.96 0.754-0.52 0.243-0.88 0.301c-0.41 0.065-0.77 0.238-0.96 0.457-0.17 0.194-0.38 0.353-0.47 0.353s-0.45 0.262-0.8 0.582c-0.67 0.612-0.78 0.991-0.49 1.743 0.2 0.524 0.93 1.429 1.16 1.429 0.1 0 0.4 0.225 0.67 0.5 0.75 0.755 3.14 1.309 5.9 1.369 0.83 0.018 1.97 0.043 2.53 0.057 0.41 0.01 0.76 0.051 0.9 0.102-0.01 0.059-0.13 0.237-0.3 0.474-0.24 0.292-0.57 0.679-1.23 1.381-1.95 2.074-2.38 2.933-1.97 3.988 0.37 0.98 2.01 1.852 3.11 1.649 0.48-0.092 1.91-0.627 2.97-1.116 0.16-0.076 0.71-0.28 1.2-0.453 1.27-0.441 2.07-0.772 2.33-0.966 0.28-0.206 1.72-0.777 2.33-0.922 0.24-0.059 0.76-0.265 1.14-0.457 0.39-0.193 0.75-0.352 0.82-0.352 0.04 0 0.35-0.139 0.62-0.258 1.4-0.478 2.35-0.749 2.44-0.658 0.02 0.021 0.02 0.06 0.02 0.096-0.42 0.538-2.72 2.805-4.22 4.185-0.6 0.485-1.22 0.949-1.83 1.391-0.36 0.203-0.68 0.385-1.1 0.617-2.75 1.529-4.62 2.764-6.3 4.156-0.66 0.547-1.31 1.081-1.43 1.186-0.13 0.105-0.61 0.477-1.06 0.826-1.07 0.833-2.11 1.737-2.97 2.584-0.39 0.377-1.24 1.189-1.9 1.803s-1.38 1.351-1.59 1.64-0.89 1.038-1.51 1.663c-0.61 0.624-1.94 2.075-2.94 3.226-1.01 1.151-2.13 2.431-2.49 2.844-1.22 1.383-2.82 3.674-3.28 4.695-0.81 1.782-0.88 1.954-0.87 2.16 0.01 0.399 0.98 1.354 1.51 1.477 0.28 0.067 0.55 0.129 0.6 0.137 0.18 0.032 1.16-0.532 1.72-0.993 1.38-1.125 2.27-1.785 2.62-1.947 0.44-0.202 3.97-3.488 4.47-4.154 0.18-0.25 0.7-0.764 1.15-1.141 0.44-0.377 1.31-1.217 1.91-1.869 0.61-0.652 1.27-1.328 1.48-1.502 0.72-0.613 1.44-1.405 2.89-3.178 2.43-2.987 2.89-3.508 5.11-5.826 1.17-1.227 2.27-2.379 2.43-2.558 0.17-0.179 0.45-0.424 0.62-0.545 0.17-0.122 0.43-0.447 0.57-0.723 0.04-0.065 0.1-0.133 0.15-0.201 0.21-0.201 0.43-0.423 0.63-0.608 0.27-0.174 0.84-0.646 1.36-1.128 1.04-0.979 3.18-2.229 4.41-2.582 1.2-0.346 3.55-1.171 4.28-1.504 0.16-0.076 0.47-0.184 0.67-0.241 0.21-0.056 0.72-0.257 1.13-0.447s1.39-0.594 2.17-0.896c0.79-0.302 1.57-0.639 1.75-0.75 0.17-0.112 0.55-0.247 0.84-0.301 0.5-0.094 0.54-0.068 1.01 0.67 0.75 1.158 1.64 1.505 3.12 1.207 1.62-0.326 2.94-0.896 4.06-1.748 0.29-0.217 0.9-0.594 1.37-0.84 0.46-0.246 1.01-0.601 1.22-0.791 0.27-0.247 0.77-0.511 1.12-0.637 0.1 0.04 0.15 0.135 0.15 0.281-0.12 0.13-0.35 0.43-0.6 0.805-0.47 0.707-0.52 0.884-0.43 1.383 0.14 0.778 0.44 1.195 0.99 1.387 0.77 0.268 1.22 0.186 2.08-0.379 0.45-0.297 1.49-0.873 2.32-1.281 0.66-0.328 1.06-0.558 1.32-0.713 0.22-0.103 0.43-0.202 0.67-0.307 0.02-0.003 0.04-0.012 0.07-0.012 0.25 0 2.59-0.971 3.42-1.422 0.21-0.111 0.65-0.251 0.98-0.31 0.33-0.06 0.66-0.159 0.75-0.219 0.21-0.158 3.51-1.308 4.09-1.426 0.26-0.055 0.52-0.162 0.57-0.238 0.04-0.076 0.19-0.139 0.32-0.139 0.17 0 0.21 0.097 0.15 0.338-0.46 1.843-0.46 1.713 0 2.289 0.6 0.761 1.32 1.155 1.9 1.047 0.26-0.048 0.78-0.11 1.15-0.137 1.54-0.11 6.49-1.312 8.71-2.115 0.5-0.183 1.04-0.3 3.15-0.678 0.54-0.096 1.31-0.236 1.73-0.312 2.35-0.432 5.76-0.654 6.02-0.393 0.06 0.063-0.03 0.314-0.21 0.557-0.59 0.791-0.35 2.248 0.49 2.982 1.09 0.959 2.52 1.088 6.01 0.547 3.05-0.472 3.46-0.542 3.68-0.629 0.12-0.049 0.39-0.109 0.6-0.13 0.21-0.022 1.39-0.246 2.63-0.5s2.45-0.463 2.69-0.463c0.24-0.001 0.65-0.064 0.9-0.143 0.63-0.194 2.22-0.53 4.29-0.904 0.95-0.172 1.93-0.377 2.18-0.455 0.24-0.078 0.75-0.175 1.12-0.217 0.66-0.074 1.88-0.264 3.38-0.527 0.42-0.073 1.22-0.207 1.78-0.297 0.57-0.091 1.1-0.202 1.17-0.248 0.13-0.077 1.29-0.282 3.81-0.664 0.49-0.076 1.17-0.207 1.5-0.293 0.33-0.087 1.37-0.289 2.3-0.452 0.94-0.162 1.79-0.358 1.88-0.435 0.1-0.077 0.65-0.189 1.22-0.248 0.58-0.059 1.28-0.202 1.56-0.317 0.28-0.114 0.65-0.206 0.83-0.207 0.17 0 0.51-0.103 0.75-0.226 0.23-0.123 0.66-0.223 0.94-0.223 0.6 0 2.55-0.654 2.91-0.976 0.13-0.124 0.38-0.225 0.55-0.225s0.39-0.103 0.5-0.226c0.1-0.124 0.29-0.224 0.43-0.223 0.3 0.002 2.11-0.789 2.12-0.924 0-0.061-0.08-0.106-0.2-0.143l0.03-0.017-0.07 0.01c-0.29-0.079-0.82-0.09-1.31 0.007-0.43 0.084-1.28 0.191-1.89 0.239-0.61 0.047-1.16 0.118-1.23 0.158-0.11 0.068-2.36 0.419-3.96 0.617-0.42 0.051-0.85 0.144-0.98 0.207-0.12 0.063-0.89 0.196-1.71 0.293-0.81 0.098-1.62 0.205-1.8 0.24-0.17 0.036-0.72 0.132-1.22 0.213-0.49 0.081-1.27 0.22-1.73 0.307-0.45 0.087-1.23 0.22-1.72 0.295-1.52 0.228-5.91 0.952-7.28 1.201-0.46 0.082-1.51 0.253-2.33 0.379-0.83 0.126-1.91 0.324-2.4 0.441-0.5 0.117-1.28 0.257-1.73 0.313-0.46 0.055-0.96 0.127-1.13 0.16-0.33 0.065-2.57 0.462-3.75 0.664-1.86 0.317-4.2 0.801-5.36 1.107-0.46 0.125-1.48 0.302-2.25 0.395-0.77 0.092-1.72 0.268-2.11 0.391-0.19 0.06-0.39 0.103-0.57 0.127-0.01 0-0.02 0.003-0.03 0.003-0.18 0.022-0.33 0.024-0.41-0.002-0.16-0.052-0.68-0.022-1.15 0.065-0.08 0.014-0.11 0.01-0.17 0.021-0.6-0.067-0.9-0.149-1-0.48v-0.01c-0.02-0.25-0.01-0.59 0.02-1.074l0.08-1.385-0.66-0.435c-0.56-0.373-0.86-0.453-2.07-0.545-0.78-0.059-1.56-0.085-1.73-0.059s-0.98 0.091-1.81 0.147c-1.78 0.118-4.87 0.559-6.68 0.951-0.37 0.08-1.49 0.319-2.48 0.529-2.63 0.559-4.41 0.946-5.18 1.129-0.29 0.07-0.51 0.112-0.69 0.135-0.19-0.017-0.31-0.213-0.38-0.563 0.05-0.129 0.09-0.249 0.18-0.433 0.27-0.56 0.29-0.737 0.15-1.493-0.22-1.177-0.55-1.423-1.74-1.312-0.49 0.046-1.34 0.244-1.87 0.439-0.54 0.196-1.28 0.442-1.65 0.547-0.38 0.106-1.24 0.384-1.93 0.619-0.69 0.236-1.41 0.428-1.61 0.428-0.19 0-0.39 0.066-0.44 0.147-0.05 0.08-0.41 0.242-0.8 0.361s-1.38 0.502-2.21 0.85c-0.82 0.347-1.7 0.709-1.95 0.804-0.25 0.096-0.61 0.263-0.8 0.371-0.02 0.011-0.03 0.008-0.05 0.018-0.23-0.024-0.38-0.143-0.49-0.359 0.01-0.14 0.04-0.305 0.09-0.512 0.13-0.593 0.13-0.866 0-1.16-0.1-0.212-0.18-0.542-0.18-0.735 0-0.277-0.18-0.441-0.86-0.779-0.82-0.406-0.95-0.424-2.66-0.391-0.98 0.02-2 0.098-2.25 0.176s-0.83 0.243-1.28 0.365c-0.46 0.123-1.4 0.432-2.11 0.688-1.17 0.427-1.88 0.737-3.97 1.732-1.82 0.863-4.46 1.855-7.74 2.912-0.45 0.147-0.96 0.342-1.12 0.436-0.4 0.222-0.99 0.455-1.57 0.65-0.36 0.113-0.65 0.201-0.89 0.266-0.13 0.03-0.28 0.075-0.37 0.092-0.02 0.002-0.03 0.005-0.04 0.008-0.1 0.015-0.17 0.02-0.23 0.019-0.01-0.002-0.03 0.002-0.03-0.002-0.03-0.033-0.01-0.122 0.05-0.236 0.16-0.21 0.5-0.589 0.99-1.07 1.43-1.412 1.62-1.771 1.5-2.729-0.18-1.294-0.27-1.415-1.17-1.523-0.83-0.1-2.44 0.198-4.47 0.832-0.96 0.295-4.43 1.601-5.33 2-0.25 0.109-0.83 0.345-1.28 0.523-0.46 0.178-1.03 0.417-1.28 0.531-0.82 0.379-2.3 0.967-3.41 1.383-0.72 0.238-1.27 0.4-1.36 0.371-0.07-0.024-0.02-0.162 0.07-0.345 0.65-0.84 2.78-3.039 3.07-3.147 0.7-0.267 1.05-1.875 0.54-2.484-0.74-0.884-0.72-0.879-6.45-0.832-0.96 0.007-1.67-0.002-2.3-0.016-0.7-0.042-1.29-0.095-1.76-0.158-0.16-0.06-0.34-0.108-0.48-0.108-0.31 0-0.92-0.275-1.12-0.472-0.01-0.084 0.04-0.178 0.13-0.278 0.47-0.337 1.9-1.052 2.17-1.052 0.15 0 0.39-0.1 0.55-0.221s0.44-0.222 0.63-0.225c0.18-0.002 0.55-0.1 0.82-0.216 0.27-0.117 1.2-0.431 2.06-0.698 0.86-0.266 1.74-0.576 1.95-0.687 0.21-0.112 0.48-0.205 0.58-0.205 0.11-0.001 0.65-0.272 1.2-0.602 0.54-0.33 1.05-0.599 1.13-0.599 0.07 0 0.31-0.136 0.52-0.301 0.07-0.058 0.15-0.103 0.23-0.149 0.08-0.036 0.16-0.078 0.24-0.115 0.04-0.011 0.09-0.037 0.11-0.037 0.12 0 0.85-0.304 1.63-0.676 0.77-0.371 1.55-0.674 1.71-0.674s0.49-0.097 0.72-0.216c0.23-0.12 1.08-0.528 1.88-0.907 0.85-0.405 1.55-0.842 1.69-1.06 0.13-0.204 0.33-0.369 0.45-0.369 0.28 0 2.16-1.883 2.71-2.705 0.24-0.371 0.7-0.96 1.01-1.309s0.57-0.692 0.57-0.762c0-0.164 1.24-1.887 2.12-2.937 0.41-0.486 1.03-1.573 1.03-1.791 0-0.068 0.14-0.42 0.3-0.782 1.16-2.551 1.1-6.466-0.16-10.347-0.16-0.489-0.29-1.014-0.29-1.166 0-0.6-1.63-3.532-2.24-4.028-0.2-0.163-1.48-1.743-1.61-1.998-0.08-0.148-0.48-0.647-0.89-1.107-0.4-0.46-1.1-1.25-1.54-1.756-1.22-1.4-3.07-3.237-3.36-3.33-0.14-0.046-0.29-0.202-0.34-0.348-0.1-0.336-1.55-1.595-2-1.736-0.18-0.058-0.4-0.237-0.49-0.396-0.08-0.16-0.24-0.289-0.34-0.289-0.11 0-0.43-0.175-0.71-0.389s-0.85-0.55-1.27-0.748c-0.41-0.198-1.19-0.608-1.72-0.91-0.54-0.303-1.49-0.737-2.11-0.967-0.62-0.231-1.49-0.5598-1.95-0.7306-0.45-0.1708-1-0.3106-1.23-0.3106-0.22 0-0.44-0.0678-0.5-0.1503-0.05-0.0826-0.22-0.1504-0.38-0.1504s-0.41-0.0589-0.55-0.1329c-0.58-0.2985-2.58-0.8057-2.88-0.7285-0.17 0.0454-0.35 0.0221-0.4-0.0527-0.04-0.0748-0.56-0.1367-1.14-0.1367zm-38.32 17.709c-2.17 0.046-7.39 2.206-12.86 5.315-0.2 0.117-1.12 0.617-2.02 1.111-0.91 0.495-1.99 1.112-2.399 1.371-0.408 0.259-0.809 0.471-0.89 0.471-0.082 0-0.29 0.132-0.463 0.295-0.173 0.162-0.587 0.45-0.922 0.638-1.069 0.603-3.464 2.213-4.514 3.038-0.426 0.334-1.135 0.862-1.576 1.173-0.441 0.312-0.969 0.703-1.176 0.87-0.206 0.166-0.914 0.723-1.572 1.236-0.657 0.513-1.467 1.209-1.801 1.547-0.333 0.338-1.08 1.04-1.658 1.56-0.578 0.521-1.491 1.359-2.031 1.864-0.54 0.504-1.148 1.06-1.352 1.236-0.731 0.633-3.099 3.202-4.422 4.799-2.831 3.417-5.17 6.871-6.916 10.215-0.436 0.835-0.863 1.647-0.949 1.802s-0.253 0.518-0.371 0.807-0.358 0.847-0.533 1.238c-0.175 0.392-0.316 0.773-0.316 0.846s-0.115 0.395-0.254 0.715c-0.488 1.117-0.801 2.963-0.895 5.275l-0.094 2.293-0.543 0.422c-0.988 0.765-3.877 2.577-4.978 3.121-0.375 0.185-0.813 0.483-0.975 0.662s-0.566 0.461-0.896 0.627c-0.331 0.166-0.735 0.42-0.901 0.567-0.165 0.146-0.469 0.317-0.675 0.378-0.207 0.062-1.065 0.44-1.907 0.84s-1.983 0.842-2.537 0.981c-0.68 0.171-0.899 0.213-1.041 0.135-0.075-0.115-0.139-0.348-0.185-0.668 0.202-0.342 0.159-1.66-0.088-2.338-0.188-0.513-0.302-0.618-0.797-0.723-0.87-0.185-1.325-0.033-2.324 0.775-0.501 0.406-1.332 0.944-1.848 1.196-0.516 0.251-1.145 0.63-1.396 0.842-0.252 0.211-0.544 0.384-0.647 0.384s-0.532 0.228-0.953 0.506c-1.146 0.757-3.583 1.983-4.508 2.317-0.137-0.059-0.18-0.196-0.133-0.409 0.195-0.337 0.424-0.701 0.502-0.761 0.195-0.149 0.444-0.738 0.444-1.049 0-0.629-0.414-1.15-1.131-1.424l-0.698-0.266-0.556 0.543c-0.306 0.299-0.611 0.543-0.678 0.543s-0.46 0.304-0.873 0.676-0.85 0.676-0.973 0.676c-0.122 0-0.571 0.304-0.996 0.676-0.425 0.371-0.887 0.675-1.029 0.675s-0.428 0.169-0.635 0.375c-0.035 0.036-0.07 0.059-0.107 0.092-0.29 0.101-0.491 0.122-0.549 0.016 0.201-0.568 1.561-1.922 2.789-2.641 0.636-0.372 1.308-0.785 1.494-0.918 0.385-0.275 0.441-0.707 0.123-0.97-0.119-0.099-0.238-0.327-0.263-0.506-0.041-0.289-0.127-0.322-0.723-0.284-1.12 0.072-2.42 0.842-3.91 2.315-1.429 1.412-2.303 2.507-2.838 3.557-0.323 0.633-0.326 0.675-0.084 1.31 0.138 0.361 0.497 0.863 0.801 1.117 0.487 0.409 0.638 0.456 1.302 0.403 0.413-0.034 1.14-0.243 1.618-0.463 0.477-0.221 0.929-0.401 1.005-0.401s0.196-0.1 0.264-0.222c0.148-0.265 1.794-1.278 2.074-1.278 0.108 0 0.491 0.336 0.852 0.748 0.563 0.644 0.755 0.765 1.363 0.848 0.492 0.067 0.971 0.014 1.57-0.172 0.859-0.266 2.707-1.193 3.565-1.789 0.578-0.401 1.734-1.044 2.771-1.543 0.45-0.216 1.05-0.551 1.334-0.744 0.285-0.193 0.634-0.352 0.778-0.352 0.143 0 0.346-0.1 0.449-0.224 0.348-0.419 0.818-0.262 1.353 0.453 0.958 1.278 2.555 1.828 4.01 1.379 2.753-0.849 3.39-1.073 3.686-1.295 0.183-0.138 0.673-0.416 1.086-0.619s1.22-0.667 1.793-1.031 1.586-0.898 2.252-1.186c0.665-0.288 1.487-0.75 1.826-1.027 0.887-0.725 2.654-1.865 2.81-1.813 0.073 0.025 0.383 0.515 0.688 1.09 0.934 1.761 2.757 3.938 4.369 5.217 1.033 0.819 3.728 2.111 5.33 2.553 3.512 0.969 5.039 1.158 10.135 1.255 4.274 0.082 5.643 0.002 7.758-0.455 0.178-0.038 0.819-0.112 1.425-0.162 2.361-0.195 5.78-0.529 6.28-0.615 0.29-0.05 0.77-0.201 1.05-0.336 0.29-0.135 0.97-0.289 1.51-0.344 1.91-0.194 2.91-0.442 3.3-0.812 0.21-0.197 0.54-0.432 0.75-0.524 1.93-0.863 1.93-1.433-0.02-0.994-0.59 0.133-1.35 0.242-1.69 0.242-0.49 0.002-3.02 0.297-5.8 0.678-0.21 0.028-1.25 0.124-2.32 0.211-1.078 0.087-2.194 0.193-2.483 0.234-0.823 0.117-2.341 0.235-3.979 0.311-0.826 0.038-2.312 0.111-3.303 0.16-0.131 0.007-0.282 0.003-0.418 0.008-0.535 0.009-1.091 0.026-1.599 0.025-4.477-0.045-9.996-0.827-11.83-1.757-0.267-0.136-1.005-0.511-1.641-0.834-0.636-0.324-1.428-0.865-1.764-1.202-0.335-0.336-0.874-0.834-1.197-1.105-0.322-0.271-0.887-0.966-1.258-1.545-0.568-0.889-0.684-1.197-0.74-1.984-0.028-0.397-0.065-0.624 0.018-0.827v-0.002c0.195-0.207 0.495-0.469 0.851-0.759 0.297-0.197 0.663-0.429 1.184-0.762 0.619-0.396 1.526-0.982 2.014-1.303 0.487-0.321 1.196-0.781 1.576-1.023 0.379-0.242 1.725-1.223 2.992-2.178 1.266-0.955 2.414-1.804 2.549-1.887 0.135-0.082 1.044-0.778 2.019-1.545 0.976-0.766 1.957-1.509 2.182-1.652 0.224-0.142 0.577-0.41 0.783-0.594 0.207-0.183 1.057-0.893 1.891-1.576 2.404-1.968 3.656-3.038 4.873-4.17 0.623-0.579 1.299-1.165 1.502-1.302 0.202-0.138 0.793-0.645 1.312-1.125 0.519-0.481 1.011-0.874 1.094-0.874 0.173 0 1.895-1.613 3.122-2.927 0.97-1.034 1.39-1.44 3.42-3.301 0.82-0.742 1.88-1.786 2.38-2.32 1.17-1.263 2.31-2.409 2.78-2.803 0.37-0.311 2.27-2.461 5.78-6.543 1.38-1.604 1.68-1.998 1.95-2.52 0.15-0.285 0.34-0.598 0.43-0.695 0.24-0.251 1.21-1.633 1.88-2.689 0.32-0.496 0.77-1.467 0.99-2.157 0.37-1.122 0.4-1.337 0.26-2.043-0.19-0.94-0.96-2.142-1.51-2.359-0.22-0.085-0.86-0.145-1.43-0.133zm45.98 1.573c-0.13 0.015-0.29 0.096-0.57 0.251-0.43 0.242-0.65 0.495-0.77 0.877-0.1 0.296-0.29 0.739-0.44 0.987-0.14 0.248-0.45 0.788-0.68 1.201s-0.88 1.587-1.44 2.607c-0.57 1.021-1.03 1.882-1.03 1.914 0 0.083-0.44 0.958-2.55 5.088-2.85 5.581-3.57 7.028-3.69 7.434-0.06 0.206-0.19 0.476-0.3 0.6-0.11 0.123-0.57 0.943-1.02 1.82s-0.89 1.722-0.98 1.877-0.36 0.688-0.6 1.183c-1.35 2.77-3.87 7.692-4.07 7.957-0.06 0.083-0.52 0.928-1.02 1.877-0.49 0.95-1.22 2.302-1.61 3.004-0.4 0.702-1.17 2.155-1.73 3.229-1.34 2.604-2.1 3.982-2.41 4.387-0.14 0.183-0.41 0.724-0.59 1.201-0.19 0.477-0.47 1.142-0.62 1.478-0.48 1.043-0.32 1.483 0.69 1.836 0.25 0.087 0.52 0.164 0.61 0.17 0.22 0.018 1.12-0.84 1.12-1.076 0-0.269 1.44-3.061 1.89-3.67 0.2-0.263 0.36-0.546 0.36-0.627 0-0.261 1.36-3.025 2.4-4.893 0.56-0.995 1.34-2.418 1.73-3.162 0.38-0.743 0.88-1.688 1.11-2.101 1.19-2.172 1.37-2.541 1.37-2.776 0-0.14 0.13-0.378 0.3-0.527 0.16-0.149 0.3-0.381 0.3-0.514s0.17-0.545 0.37-0.916c0.21-0.37 0.56-1.045 0.78-1.5 0.21-0.454 0.51-0.96 0.65-1.125 0.25-0.284 1.47-2.573 1.8-3.379 0.08-0.206 0.21-0.475 0.28-0.599 0.49-0.856 0.72-1.301 1.38-2.664 0.41-0.845 1.15-2.351 1.64-3.348 0.48-0.997 0.93-2.013 0.98-2.256 0.06-0.243 0.22-0.525 0.36-0.629 0.15-0.103 0.44-0.526 0.65-0.939 0.2-0.413 0.51-0.991 0.68-1.285 0.16-0.295 0.35-0.77 0.41-1.053s0.24-0.687 0.39-0.898c0.15-0.212 0.31-0.562 0.37-0.776 0.05-0.214 0.26-0.543 0.46-0.73 0.2-0.188 0.36-0.42 0.36-0.52 0-0.245 0.36-1.039 0.89-1.945 0.25-0.413 0.65-1.169 0.91-1.68s0.57-1.01 0.69-1.107c0.12-0.098 0.21-0.243 0.21-0.323 0-0.079 0.21-0.427 0.46-0.775 0.25-0.347 0.48-0.844 0.51-1.101 0.09-0.717-0.21-1.686-0.61-1.944-0.16-0.105-0.26-0.156-0.38-0.14zm-46.14 0.841c0.09-0.001 0.28 0.082 0.42 0.186 0.24 0.178 0.24 0.236-0.03 1.014-0.34 0.987-1.61 3.182-2.56 4.425-0.38 0.494-0.92 1.238-1.2 1.653-0.28 0.414-0.82 1.094-1.2 1.511-0.38 0.418-1.7 1.906-2.94 3.305-2.3 2.597-3.76 4.102-7.24 7.424-3.703 3.543-5.68 5.382-6.58 6.121-0.495 0.407-1.138 0.962-1.427 1.234-0.676 0.636-2.87 2.594-3.073 2.743-0.863 0.631-4.061 3.243-5.591 4.564-0.431 0.372-0.983 0.822-1.227 1.002s-0.972 0.727-1.619 1.217c-0.647 0.489-1.955 1.463-2.904 2.164-0.95 0.701-1.828 1.369-1.951 1.484-0.124 0.115-1.004 0.781-1.954 1.481-0.949 0.699-1.961 1.455-2.248 1.679-0.287 0.225-0.727 0.498-0.976 0.606-0.25 0.108-0.622 0.357-0.828 0.555-0.207 0.197-0.701 0.531-1.098 0.742-0.156 0.083-0.257 0.131-0.369 0.185-0.001 0.001-0.003 0-0.004 0-0.287 0.084-0.486 0.063-0.613-0.06-0.009-0.068-0.018-0.128-0.018-0.229 0.001-1.534 0.871-4.629 2.061-7.32 0.525-1.188 2.569-4.785 3.529-6.207 1.187-1.76 3.597-5.001 4.498-6.057 0.056-0.067 0.111-0.134 0.168-0.201 0.37-0.424 0.924-1.062 1.285-1.482 0.383-0.446 0.815-0.917 0.959-1.047 0.074-0.067 0.14-0.15 0.188-0.229 0.329-0.357 0.659-0.714 0.998-1.07 0.412-0.372 0.934-0.862 1.539-1.463 0.999-0.993 2.712-2.583 3.806-3.533 1.095-0.95 1.989-1.783 1.989-1.85 0-0.066 0.456-0.425 1.013-0.799 1.566-1.048 1.714-1.155 2.516-1.818 0.413-0.341 1.236-0.902 1.828-1.246s1.266-0.781 1.5-0.973c0.47-0.384 1.922-1.302 2.453-1.549 0.12-0.057 0.54-0.329 0.92-0.605s0.73-0.502 0.78-0.502c0.02 0 0.28-0.171 0.42-0.256 0.88-0.508 1.74-0.981 2.61-1.461 0.1-0.049 0.21-0.109 0.3-0.154 0.83-0.398 1.6-0.781 1.73-0.852 0.52-0.297 2.65-1.3 2.96-1.396 0.19-0.058 0.34-0.153 0.34-0.211s0.29-0.254 0.64-0.436c0.57-0.296 1.17-0.546 3.79-1.572 0.8-0.314 2.15-0.714 2.41-0.717zm76.54 36.94l0.33 0.006-0.36 0.295c-0.26 0.223-0.69 0.327-0.92 0.275-0.03-0.027-0.07-0.052-0.09-0.09-0.02-0.031-0.02-0.051-0.03-0.08 0.07-0.183 0.65-0.413 1.07-0.406zm-1.99 0.748c0.15 0.001 0.29 0.045 0.29 0.131 0 0.154-0.54 0.323-0.66 0.205-0.05-0.044-0.05-0.138 0-0.209 0.05-0.085 0.22-0.128 0.37-0.127zm-29.72 14.535c0.19 0.033 0.2 0.2-0.05 0.586-0.19 0.173-0.87 0.911-1.63 1.783-0.81 0.917-1.69 1.891-1.97 2.164-0.27 0.274-0.68 0.739-0.92 1.035-0.09 0.113-0.34 0.366-0.48 0.528-0.35 0.367-0.57 0.597-0.97 1.007-0.94 0.971-1.58 1.618-2.29 2.338-1.46 1.42-2.97 2.836-3.85 3.559-0.27 0.224-0.46 0.358-0.62 0.443-0.09-0.002-0.12-0.076-0.14-0.179 0.11-0.172 0.43-0.584 0.96-1.215 0.62-0.734 1.13-1.38 1.13-1.434s0.83-0.931 1.84-1.949c1.02-1.018 2.12-2.171 2.44-2.563 0.83-0.984 1.41-1.563 3.31-3.298 1.66-1.519 2.83-2.525 3.24-2.805z"/>
</svg>
