<?xml version="1.0" encoding="UTF-8" standalone="no"?>
<!-- Created with Inkscape (http://www.inkscape.org/) -->
<svg
   xmlns:dc="http://purl.org/dc/elements/1.1/"
   xmlns:cc="http://creativecommons.org/ns#"
   xmlns:rdf="http://www.w3.org/1999/02/22-rdf-syntax-ns#"
   xmlns:svg="http://www.w3.org/2000/svg"
   xmlns="http://www.w3.org/2000/svg"
   xmlns:sodipodi="http://sodipodi.sourceforge.net/DTD/sodipodi-0.dtd"
   xmlns:inkscape="http://www.inkscape.org/namespaces/inkscape"
   id="svg2457"
   sodipodi:version="0.32"
   inkscape:version="0.46"
   width="406.72"
   height="77.705322"
   version="1.0"
   sodipodi:docname="Paul von Hindenburg signature.svg"
   inkscape:output_extension="org.inkscape.output.svg.inkscape">
  <metadata
     id="metadata2462">
    <rdf:RDF>
      <cc:Work
         rdf:about="">
        <dc:format>image/svg+xml</dc:format>
        <dc:type
           rdf:resource="http://purl.org/dc/dcmitype/StillImage" />
      </cc:Work>
    </rdf:RDF>
  </metadata>
  <defs
     id="defs2460">
    <inkscape:perspective
       sodipodi:type="inkscape:persp3d"
       inkscape:vp_x="0 : 526.18109 : 1"
       inkscape:vp_y="0 : 1000 : 0"
       inkscape:vp_z="744.09448 : 526.18109 : 1"
       inkscape:persp3d-origin="372.04724 : 350.78739 : 1"
       id="perspective2464" />
    <inkscape:perspective
       id="perspective3385"
       inkscape:persp3d-origin="372.04724 : 350.78739 : 1"
       inkscape:vp_z="744.09448 : 526.18109 : 1"
       inkscape:vp_y="0 : 1000 : 0"
       inkscape:vp_x="0 : 526.18109 : 1"
       sodipodi:type="inkscape:persp3d" />
  </defs>
  <sodipodi:namedview
     inkscape:window-height="750"
     inkscape:window-width="1280"
     inkscape:pageshadow="2"
     inkscape:pageopacity="0.0"
     guidetolerance="10.0"
     gridtolerance="10.0"
     objecttolerance="10.0"
     borderopacity="1.0"
     bordercolor="#666666"
     pagecolor="#ffffff"
     id="base"
     showgrid="false"
     inkscape:zoom="2.0712593"
     inkscape:cx="204.31307"
     inkscape:cy="38.852661"
     inkscape:window-x="-8"
     inkscape:window-y="-8"
     inkscape:current-layer="svg2457" />
  <path
     style="fill:none;fill-opacity:0.65174124000000000;fill-rule:evenodd;stroke:#000000;stroke-width:2.53875947000000000;stroke-linecap:round;stroke-linejoin:round;marker:none;marker-start:none;marker-mid:none;marker-end:none;stroke-miterlimit:4;stroke-dasharray:none;stroke-dashoffset:0;stroke-opacity:1;visibility:visible;display:inline;overflow:visible;enable-background:accumulate"
     d="M 2.450448,39.745394 C 2.450448,39.745394 7.369121,37.637392 10.531131,37.637392 C 13.69313,37.637392 17.909139,34.826723 17.909139,34.826723 C 17.909139,34.826723 9.125794,44.312734 8.774458,49.934071 C 8.42312,55.555412 20.01714,41.502062 23.530476,34.124054 C 23.530476,34.124054 24.23314,41.150729 29.503148,38.691392 C 34.773158,36.232056 36.178485,36.232056 36.178485,36.232056 C 36.178485,36.232056 31.259811,37.988725 30.205812,43.258732 C 29.151812,48.528738 31.962486,46.420735 34.421821,43.961399 C 36.881158,41.502062 38.286496,38.691392 37.583822,36.583391 C 36.881158,34.475389 39.340494,35.880724 40.043159,34.826723 C 40.745832,33.77272 38.637821,37.988725 43.907831,36.232056 C 49.177841,34.475389 51.637168,35.880724 49.177841,39.745394 C 46.718505,43.610064 42.853831,44.312734 42.853831,46.420735 C 42.853831,48.528738 48.12383,40.096728 52.339841,38.340059 C 56.555839,36.583391 64.98786,33.421387 61.474523,39.042728 C 57.961185,44.664066 61.825851,49.231405 69.555194,42.20473"
     id="path3391"
     sodipodi:nodetypes="cscssscssssssssss" />
  <path
     style="fill:none;fill-opacity:0.65174124000000000;fill-rule:evenodd;stroke:#000000;stroke-width:2.53875947000000000;stroke-linecap:round;stroke-linejoin:round;marker:none;marker-start:none;marker-mid:none;marker-end:none;stroke-miterlimit:4;stroke-dasharray:none;stroke-dashoffset:0;stroke-opacity:1;visibility:visible;display:inline;overflow:visible;enable-background:accumulate"
     d="M 140.17329,41.853396 C 140.17329,41.853396 147.16742,25.309184 160.55063,14.449367 C 173.49138,3.9485804 191.11666,-2.0633178 200.60269,6.0173579 C 210.08869,14.098035 185.32833,21.093852 179.17132,22.881375 C 157.38863,29.205383 107.98899,19.76947 85.365213,25.34071 C 60.390186,31.490961 68.941003,44.247275 75.527868,48.528738 C 82.554541,53.096075 106.23806,55.496458 125.41725,46.0694 C 146.14595,35.880724 123.30925,31.664718 108.2019,39.042728 C 93.09455,46.420735 93.09455,52.393409 114.87724,33.421387 C 136.65995,14.449367 139.47061,6.3686905 139.47061,6.3686905"
     id="path3393"
     sodipodi:nodetypes="cssssssssc" />
  <path
     style="fill:none;fill-opacity:0.65174124000000000;fill-rule:evenodd;stroke:#000000;stroke-width:2.53875947000000000;stroke-linecap:round;stroke-linejoin:round;marker:none;marker-start:none;marker-mid:none;marker-end:none;stroke-miterlimit:4;stroke-dasharray:none;stroke-dashoffset:0;stroke-opacity:1;visibility:visible;display:inline;overflow:visible;enable-background:accumulate"
     d="M 147.55128,15.15203 C 147.55128,15.15203 148.95662,17.260033 142.63262,23.232706 C 136.3086,29.205383 131.74126,32.01605 131.74126,35.880724"
     id="path3395"
     sodipodi:nodetypes="css" />
  <path
     style="fill:none;fill-opacity:0.65174124000000000;fill-rule:evenodd;stroke:#000000;stroke-width:2.53875947000000000;stroke-linecap:round;stroke-linejoin:round;marker:none;marker-start:none;marker-mid:none;marker-end:none;stroke-miterlimit:4;stroke-dasharray:none;stroke-dashoffset:0;stroke-opacity:1;visibility:visible;display:inline;overflow:visible;enable-background:accumulate"
     d="M 121.20126,69.960096 C 121.20126,69.960096 127.87659,54.852745 140.87594,47.123402 C 153.87528,39.39406 155.63197,39.042728 149.65929,51.339407"
     id="path3397"
     sodipodi:nodetypes="css" />
  <path
     style="fill:none;fill-opacity:0.65174124000000000;fill-rule:evenodd;stroke:#000000;stroke-width:2.53875947000000000;stroke-linecap:round;stroke-linejoin:round;marker:none;marker-start:none;marker-mid:none;marker-end:none;stroke-miterlimit:4;stroke-dasharray:none;stroke-dashoffset:0;stroke-opacity:1;visibility:visible;display:inline;overflow:visible;enable-background:accumulate"
     d="M 159.49662,30.610718 C 159.49662,30.610718 156.68596,31.313384 158.44263,32.71872 C 160.1993,34.124054 159.84796,30.962051 159.49662,30.610718 z"
     id="path3401" />
  <path
     style="fill:none;fill-opacity:0.65174124000000000;fill-rule:evenodd;stroke:#000000;stroke-width:2.53875947000000000;stroke-linecap:round;stroke-linejoin:round;marker:none;marker-start:none;marker-mid:none;marker-end:none;stroke-miterlimit:4;stroke-dasharray:none;stroke-dashoffset:0;stroke-opacity:1;visibility:visible;display:inline;overflow:visible;enable-background:accumulate"
     d="M 156.68596,46.420735 C 156.68596,46.420735 189.36,29.908049 180.22531,39.745394 C 171.09064,49.582738 166.97945,52.969251 181.63066,45.718067 C 202.60877,35.33557 209.94565,33.013585 198.49467,42.556064 C 192.17067,47.826069 192.60252,54.271281 204.81868,46.0694 C 216.79181,38.030695 229.41204,37.988725 229.41204,37.988725 C 229.41204,37.988725 219.22337,46.420735 219.92603,53.447409 C 220.43022,58.489273 251.54606,3.5580164 249.43806,3.2066847 C 247.33007,2.8553531 232.92537,20.773372 235.03339,27.097381 C 237.14138,33.421387 252.60007,27.448714 252.60007,27.448714"
     id="path3403"
     sodipodi:nodetypes="csssscsssc" />
  <path
     style="fill:none;fill-opacity:0.65174124000000000;fill-rule:evenodd;stroke:#000000;stroke-width:2.53875947000000000;stroke-linecap:round;stroke-linejoin:round;marker:none;marker-start:none;marker-mid:none;marker-end:none;stroke-miterlimit:4;stroke-dasharray:none;stroke-dashoffset:0;stroke-opacity:1;visibility:visible;display:inline;overflow:visible;enable-background:accumulate"
     d="M 232.22272,46.772068 C 232.22272,46.772068 245.22207,46.772068 247.6814,39.745394 C 250.14073,32.71872 236.43872,44.664066 235.73604,48.528738 C 235.03339,52.393409 243.11406,49.582738 250.84341,45.718067 C 258.57274,41.853396 263.49142,40.448061 258.22141,46.0694 C 252.95141,51.690741 251.54606,54.501411 255.0594,52.042073 C 258.57274,49.582738 278.9501,38.340059 275.08543,45.0154 C 271.22077,51.690741 267.35608,56.960746 276.49076,54.852745 C 285.62545,52.744742 319.70482,24.28671 319.00214,20.773372 C 318.29947,17.260033 291.24677,46.0694 290.54411,52.744742 C 289.84144,59.420083 306.70548,41.853396 306.35413,39.042728 C 306.00279,36.232056 301.78679,39.042728 306.35413,43.610064 C 310.92147,48.177403 319.35349,41.150729 319.35349,41.150729 C 319.35349,41.150729 310.92147,49.231405 313.73214,53.096075 C 316.54281,56.960746 339.3795,44.664066 339.3795,40.799396 C 339.3795,36.934724 331.29882,48.528738 331.29882,51.339407 C 331.29882,54.150077 339.3795,54.852745 345.70351,49.231405 C 352.02751,43.610064 359.75684,31.664718 359.40552,34.826723 C 359.05419,37.988725 357.29751,42.907397 361.1622,41.853396 C 365.02685,40.799396 354.13552,45.366733 353.08151,49.231405 C 352.02751,53.096075 356.59486,55.204078 360.45952,54.501411 C 364.3242,53.798743 388.2149,35.529389 388.56622,39.745394 C 388.91754,43.961399 388.91754,45.0154 388.91754,45.0154"
     id="path3405" />
  <path
     style="fill:none;fill-opacity:0.65174124000000000;fill-rule:evenodd;stroke:#000000;stroke-width:2.53875947000000000;stroke-linecap:round;stroke-linejoin:round;marker:none;marker-start:none;marker-mid:none;marker-end:none;stroke-miterlimit:4;stroke-dasharray:none;stroke-dashoffset:0;stroke-opacity:1;visibility:visible;display:inline;overflow:visible;enable-background:accumulate"
     d="M 373.8102,46.0694 C 373.8102,46.0694 361.1622,67.852092 393.83624,41.150729 C 393.83624,41.150729 357.29751,74.176098 356.59486,75.581432"
     id="path3407"
     sodipodi:nodetypes="css" />
  <path
     style="fill:none;fill-opacity:0.65174124000000000;fill-rule:evenodd;stroke:#000000;stroke-width:2.53875947000000000;stroke-linecap:round;stroke-linejoin:round;marker:none;marker-start:none;marker-mid:none;marker-end:none;stroke-miterlimit:4;stroke-dasharray:none;stroke-dashoffset:0;stroke-opacity:1;visibility:visible;display:inline;overflow:visible;enable-background:accumulate"
     d="M 372.05353,60.474084 C 372.05353,60.474084 393.13356,52.393409 396.29557,55.555412 C 399.45757,58.717416 389.10345,67.978895 375.56688,56.960746 C 360.45952,44.664066 348.16284,24.989378 338.3255,22.178704 C 328.48816,19.368037 334.46083,29.908049 345.00084,30.259383 C 355.54085,30.610718 361.86486,27.448714 356.24351,22.178704 C 350.62217,16.908702 342.89285,25.692048 346.05485,29.556716"
     id="path3409"
     sodipodi:nodetypes="cssssss" />
  <path
     style="fill:none;fill-opacity:0.65174124000000000;fill-rule:evenodd;stroke:#000000;stroke-width:2.53875947000000000;stroke-linecap:round;stroke-linejoin:round;marker:none;marker-start:none;marker-mid:none;marker-end:none;stroke-miterlimit:4;stroke-dasharray:none;stroke-dashoffset:0;stroke-opacity:1;visibility:visible;display:inline;overflow:visible;enable-background:accumulate"
     d="M 388.91754,60.474084 C 388.91754,60.474084 385.74636,65.420964 392.43089,65.392758 C 397.42702,65.370188 397.7009,58.717416 395.59289,52.393409"
     id="path3411"
     sodipodi:nodetypes="css" />
  <path
     style="fill:none;fill-opacity:0.65174124000000000;fill-rule:evenodd;stroke:#000000;stroke-width:2.53875947000000000;stroke-linecap:round;stroke-linejoin:round;marker:none;marker-start:none;marker-mid:none;marker-end:none;stroke-miterlimit:4;stroke-dasharray:none;stroke-dashoffset:0;stroke-opacity:1;visibility:visible;display:inline;overflow:visible;enable-background:accumulate"
     d="M 404.02491,44.664066 C 404.02491,44.664066 405.78159,40.799396 403.67357,42.556064 C 401.56557,44.312734 404.37623,45.366733 404.02491,44.664066 z"
     id="path3413" />
</svg>
