<?xml version="1.0" encoding="UTF-8" standalone="no"?>
<!-- Created with Inkscape (http://www.inkscape.org/) -->

<svg
   xmlns:dc="http://purl.org/dc/elements/1.1/"
   xmlns:cc="http://creativecommons.org/ns#"
   xmlns:rdf="http://www.w3.org/1999/02/22-rdf-syntax-ns#"
   xmlns:svg="http://www.w3.org/2000/svg"
   xmlns="http://www.w3.org/2000/svg"
   xmlns:sodipodi="http://sodipodi.sourceforge.net/DTD/sodipodi-0.dtd"
   xmlns:inkscape="http://www.inkscape.org/namespaces/inkscape"
   id="svg2"
   version="1.1"
   inkscape:version="0.48.4 r9939"
   width="775.07269"
   height="508.6814"
   sodipodi:docname="Автограф_Павел_Бажов.jpg">
  <metadata
     id="metadata8">
    <rdf:RDF>
      <cc:Work
         rdf:about="">
        <dc:format>image/svg+xml</dc:format>
        <dc:type
           rdf:resource="http://purl.org/dc/dcmitype/StillImage" />
        <dc:title></dc:title>
      </cc:Work>
    </rdf:RDF>
  </metadata>
  <defs
     id="defs6" />
  <sodipodi:namedview
     pagecolor="#ffffff"
     bordercolor="#666666"
     borderopacity="1"
     objecttolerance="10"
     gridtolerance="10"
     guidetolerance="10"
     inkscape:pageopacity="0"
     inkscape:pageshadow="2"
     inkscape:window-width="1280"
     inkscape:window-height="962"
     id="namedview4"
     showgrid="false"
     fit-margin-top="0"
     fit-margin-left="0"
     fit-margin-right="0"
     fit-margin-bottom="0"
     inkscape:zoom="1.464571"
     inkscape:cx="387.75873"
     inkscape:cy="254.34069"
     inkscape:window-x="-8"
     inkscape:window-y="-8"
     inkscape:window-maximized="1"
     inkscape:current-layer="svg2" />
  <path
     style="fill:#000000"
     d="m 666.59193,507.68139 c 0,-0.55 0.45,-1 1,-1 0.55,0 1,0.45 1,1 0,0.55 -0.45,1 -1,1 -0.55,0 -1,-0.45 -1,-1 z m -158.8249,-8.2249 c -1.81825,-1.81825 -1.4258,-4.7751 0.63377,-4.7751 25.1011,-6.38017 47.33786,-11.68532 67.19113,-19.34303 7.425,-3.00583 19.13196,-7.7251 26.01548,-10.48726 6.88351,-2.76217 14.75851,-6.11594 17.5,-7.45282 26.66363,-12.15677 53.13318,-24.9478 75.42442,-44.18205 36.12318,-26.75816 55.23102,-50.25219 62.56914,-81.03484 2.70082,-11.4063 0.98633,-29.50021 -4.09727,-43.24048 -6.22604,-16.82813 -28.06914,-32.82378 -55.41177,-40.57789 -9.28862,-2.63417 -25.95521,-5.68163 -31.07288,-5.68163 -3.77827,0 -5.08662,-0.42952 -5.89194,-1.93426 -1.51122,-2.82375 -1.26478,-7.6303 0.46482,-9.06574 0.825,-0.68469 1.50168,-1.97729 1.50374,-2.87244 0.008,-3.32042 4.0842,-8.11781 12.55917,-14.77986 4.79112,-3.76624 10.17137,-8.0852 11.95612,-9.5977 9.17203,-4.58513 8.81192,-18.12412 6.91499,-26.70242 -2.13159,-9.13729 -8.9278,-23.05583 -11.25211,-23.04415 -0.94354,0.005 -24.35942,36.18332 -31.77069,49.08712 -0.59883,1.04262 -1.74812,2.68628 -2.55398,3.65256 -0.80586,0.96629 -3.01591,4.90689 -4.91122,8.75689 -3.24966,6.60112 -3.443,7.56983 -3.39297,17 0.0499,9.40454 -0.73088,12.5 -3.15288,12.5 -0.40848,0 -1.45312,0.61583 -2.32143,1.36851 -0.86831,0.75268 -3.44964,1.60428 -5.7363,1.89244 -4.16006,0.52425 -6.34244,-0.4793 -6.34244,-2.91654 0,-1.2648 -2.02529,-4.48959 -7.44113,-11.84823 -4.94111,-6.71362 -8.87913,-10.57882 -12.87698,-12.63888 -4.61446,-2.37779 -7.94875,-1.58299 -15.68554,3.73898 -5.48767,3.77486 -5.63696,3.77694 -16.74635,0.23392 -8.08511,-2.57852 -8.22895,-4.32275 -1.14052,-13.8302 4.34117,-5.82266 11.03076,-17.25877 12.50379,-21.37573 2.02255,-5.65276 1.78649,-12.90902 -0.51229,-15.7479 -1.8045,-2.22845 -2.13195,-2.2829 -6.57818,-1.09371 -6.9368,1.85531 -10.99645,5.09924 -16.67885,13.32749 -7.07139,10.23955 -13.83804,21.49114 -13.87411,23.06988 -0.0166,0.72598 -1.70408,4.65449 -3.75,8.73001 -3.18848,6.35156 -4.62884,8.04232 -10.08339,11.83645 -7.24262,5.03787 -9.54796,4.71822 -7.28747,-1.01046 0.70231,-1.77981 2.12607,-6.38603 3.16393,-10.23603 1.03786,-3.85 2.5474,-8.35 3.35452,-10 3.58034,-7.31924 8.61359,-21.91898 7.82755,-22.70502 -1.38294,-1.38294 -3.47081,-0.008 -6.91047,4.5498 -6.57629,8.71463 -19.76715,21.30081 -25.28451,24.12545 -7.96895,4.07974 -12.89334,3.42515 -17.668,-2.34859 l -2.168,-2.62164 -2.832,2.55676 c -6.97238,6.29474 -16.50141,12.86989 -23.332,16.09936 -11.50909,5.44144 -12.84576,5.67983 -20.44721,3.64676 -4.26804,-1.14153 -4.67508,-1.058 -8.76435,1.79859 -2.35864,1.64764 -7.05143,4.43635 -10.42842,6.19712 -5.34514,2.78698 -7.12927,3.20141 -13.78212,3.20141 -12.11789,0 -16.62177,-2.77137 -18.5601,-11.42057 -1.89968,-8.47675 0.67908,-17.06716 9.32975,-31.07943 1.69775,-2.75 3.34758,-5.225 3.66628,-5.5 0.31871,-0.275 2.64518,-3.2 5.16995,-6.5 2.52477,-3.3 5.82544,-6.9815 7.33482,-8.18112 1.50938,-1.19962 4.82267,-4.15916 7.36286,-6.57677 2.5402,-2.4176 7.76854,-7.03492 11.61854,-10.26071 3.85,-3.22579 7.225,-6.12787 7.5,-6.44907 0.275,-0.32121 2.525,-2.14091 5,-4.04379 2.475,-1.90287 5.07887,-4.01298 5.78639,-4.68912 0.70751,-0.67613 2.62001,-2.01713 4.25,-2.97999 4.20343,-3.69401 9.37329,-4.75045 13.70172,-5.66112 3.07104,-0.63785 7.26189,2.82879 7.26189,6.00699 0,1.65225 -1.8997,4.61937 -5.51632,8.61586 -9.14182,10.10204 -9.75545,16.71715 -1.97375,21.27753 2.46954,1.44724 4.49007,3.32584 4.49007,4.17467 0,0.84882 -3.8066,5.36707 -8.4591,10.04055 -9.73922,9.78313 -16.99908,21.95523 -15.47519,25.94617 1.67502,4.38676 10.45828,4.22704 16.55102,-0.30097 4.68561,-3.48225 13.04893,-10.22123 15.84933,-12.77105 1.11867,-1.01857 3.49644,-2.98448 5.28394,-4.36869 1.7875,-1.38421 3.25,-3.14728 3.25,-3.91793 0,-0.77065 1.02375,-3.07974 2.27501,-5.13131 1.25125,-2.05157 4.06282,-7.31597 6.24793,-11.69866 8.33952,-16.72664 16.43649,-20.24576 21.96851,-9.548 1.40753,2.72187 1.23873,3.10663 -6.53945,14.90517 -4.39135,6.66116 -8.74673,13.79873 -9.67862,15.86127 -0.93189,2.06255 -2.25187,4.43537 -2.93327,5.27293 -0.68141,0.83756 -0.92114,2.03703 -0.53273,2.66549 2.55911,4.14073 24.98445,-14.93879 33.71916,-28.68833 1.5723,-2.475 3.35872,-4.95 3.96983,-5.5 4.6545,-4.18907 17.50363,-26.39827 17.50363,-30.25431 0,-1.79998 2.80276,-2.18828 4.14256,-0.57392 0.99636,1.20055 2.46155,1.41506 6.45746,0.94542 5.01974,-0.58997 5.18364,-0.52922 5.68779,2.10805 0.37268,1.94957 -0.17878,3.5449 -1.95509,5.65593 -2.22187,2.64054 -11.33272,20.28358 -11.33272,21.94566 0,0.37024 0.675,0.67317 1.5,0.67317 7.7939,-3.7354 16.65191,-11.33094 25.90753,-12 9.39628,0 14.58274,5.65089 14.58873,15.89507 0.003,5.298 -0.62006,7.69968 -3.63254,14 -1.99996,4.18271 -4.47496,8.7994 -5.5,10.2593 -1.02505,1.4599 -1.86372,3.42249 -1.86372,4.36129 0,1.45889 0.5449,1.58177 3.75,0.84563 2.0625,-0.47371 8.2764,-0.80879 13.80866,-0.74462 8.82831,0.1024 10.54076,0.41713 14,2.57306 2.16774,1.35101 4.67717,2.72706 5.57653,3.05788 1.60028,0.58866 4.66392,-2.06216 7.92789,-6.85963 0.79031,-1.16162 4.25781,-5.66162 7.70556,-10 7.3559,-9.25612 6.98223,-8.77064 10.68944,-13.88798 1.59377,-2.2 4.0552,-5.125 5.46984,-6.5 4.76397,-4.63046 19.07208,-22.20695 19.07208,-23.42867 0,-0.66586 1.125,-2.18883 2.5,-3.38438 1.375,-1.19555 2.5,-3.24512 2.5,-4.55461 0,-4.56565 5.54587,-17.48682 11.7321,-27.3343 3.61578,-5.91089 11.60578,-21.159199 16.71407,-22.302864 0.57961,-0.003 4.31633,1.18263 8.30383,2.63395 6.89506,2.50958 8.94172,4.507724 5.83737,5.698974 -0.77695,0.29814 -3.99404,4.05879 -7.14908,8.35699 -3.15504,4.2982 -7.69435,9.93313 -10.08736,12.52207 -2.39301,2.58894 -4.35093,5.07523 -4.35093,5.52509 0,2.22042 6.43766,26.91643 9.19347,35.26775 6.09807,18.47989 3.6427,29.8181 -9.03338,41.71361 -7.62212,7.15276 -13.49387,11.66564 -20.00968,15.37896 -9.48417,5.40496 -7.65281,8.54764 5.14019,8.82073 4.35594,0.093 9.78503,0.81898 12.06465,1.61333 2.27961,0.79434 5.04475,1.45082 6.14475,1.45882 3.30578,0.0241 19.7964,5.75148 26.10425,9.06635 11.44314,6.01355 23.84376,17.35671 30.7113,28.09241 4.28998,6.70631 9.17065,19.23152 10.65968,27.35579 2.7915,16.49379 1.92472,34.504 -4.49216,49.12031 -2.6895,5.693 -14.39012,25.15627 -18.02569,29.98465 -5.18324,6.88382 -22.79912,25.11294 -27.43982,28.39504 -2.72184,1.925 -9.51351,7.2492 -15.0926,11.83156 -11.77166,9.6686 -21.11922,16.22343 -28.32353,19.8614 -2.80578,1.41685 -6.99294,3.87273 -9.30479,5.45751 -5.12082,3.51036 -36.69204,19.84953 -38.35407,19.84953 -0.65486,0 -4.84733,1.85283 -9.31661,4.11741 -4.46928,2.26457 -17.07864,7.21357 -28.0208,10.99776 -10.94216,3.7842 -20.39216,7.27269 -21,7.7522 -19.08264,5.46484 -35.74756,12.76386 -54.2243,14.65305 -3.78447,0.33161 -7.81456,0.78897 -8.95576,1.01636 -1.14119,0.22738 -2.60369,-0.11537 -3.25,-0.76168 z m -84.89298,-274.1202 c 4.40601,-1.84174 5.40741,-3.26851 10.35707,-14.75655 4.74328,-11.00904 8.79182,-17.27479 14.86081,-22.99943 l 4,-3.77304 -1.86018,-3.47512 c -3.29952,-6.16405 -8.57444,-6.18657 -21.10645,-0.0901 -7.9283,3.85689 -10.34951,5.64917 -15.69035,11.61468 -7.96672,8.89852 -8.45544,9.61317 -10.31048,15.07707 -5.15561,15.55331 11.54677,21.36093 19.74958,18.40249 z M 279.6038,246.46657 c -0.0186,-4.25797 2.85621,-5.14419 8.10233,-2.49768 5.56129,2.41932 4.8311,6.93756 7.98069,10.7125 2.65352,3.63405 6.06094,7.62258 10.67399,8.61642 7.81495,1.46609 17.71123,-2.48428 26.02608,-10.38903 4.01139,-3.81354 16.57708,-19.18342 18.2871,-22.3681 0.77987,-1.45239 3.2746,-5.72739 5.54385,-9.5 11.56561,-19.2277 14.64893,-28.89054 13.19736,-41.35929 -1.56421,-13.43636 -4.51399,-18.91297 -14.04343,-26.07325 -4.63109,-3.47973 -5.86372,-3.92675 -10.82778,-3.92675 -9.44965,0 -24.53961,6.18997 -35.87176,14.71476 -2.43083,1.82863 -5.00631,4.16229 -5.72328,5.18591 -1.4225,2.03091 -5.44681,12.32755 -8.29991,21.23624 -1.75605,5.48318 -6.09838,14.53008 -14.33369,29.86309 -6.36566,11.85197 -6.14731,11.51033 -11.75532,18.39274 -1.39255,1.70899 -3.79387,4.81563 -5.33627,6.90365 -1.54241,2.08801 -5.57805,6.60875 -8.9681,10.0461 -3.39005,3.43734 -6.94847,7.72312 -7.9076,9.52396 -1.30623,2.45256 -2.3087,3.19386 -3.99461,2.9539 -2.58352,-0.36772 -6.17301,-6.71599 -4.67629,-8.27035 0.50312,-0.5225 0.91477,-2.1844 0.91477,-3.6931 0,-2.81636 4.29461,-16.70057 8.46193,-27.3569 2.59762,-10.11778 9.12129,-19.11825 13.61419,-27.30652 2.78144,-5.20924 17.47995,-24.0557 26.63126,-34.14666 5.48272,-8.9674 4.66044,-19.10787 5.87103,-27.58833 2.82835,-19.57702 3.27148,-24.12379 3.55326,-36.45849 0.3243,-14.195674 1.12706,-13.202664 -8.98679,-11.116494 -6.26827,1.29295 -7.53372,0.80187 -6.68168,-2.59292 0.93331,-3.71857 4.02025,-7.43306 8.96759,-10.79059 4.40293,-2.98806 5.76396,-5.59402 4.62197,-8.84959 -0.51053,-1.45543 -1.06125,-1.22021 -3.67289,1.56872 -1.68977,1.80448 -4.36656,5.08087 -5.94844,7.28087 -1.58188,2.2 -5.36358,6.71282 -8.40379,10.02849 -3.0402,3.31567 -7.81603,9.39067 -10.61296,13.500004 -9.24713,13.58616 -13.58448,19.66513 -16.74628,23.47061 -0.45738,0.5505 -4.59747,6.8509 -9.2002,14.0009 -4.60273,7.15 -10.41685,15.7 -12.92026,19 -19.3676,25.53039 -25.82191,35.4052 -33.00749,50.5 -1.43999,3.025 -3.3298,6.85 -4.19958,8.5 -0.86978,1.65 -2.43406,5.45263 -3.47619,8.45028 -1.04212,2.99766 -2.30404,5.70323 -2.80426,6.01238 -0.50022,0.30915 -2.03075,3.8918 -3.40119,7.96144 -1.37043,4.06965 -3.20943,8.2376 -4.08665,9.26212 -3.25553,5.13291 -7.43106,12.23957 -7.57258,17.91825 0,4.46704 -3.4298,8.89553 -6.88945,8.89553 -3.55702,0 -6.92471,-1.8391 -7.6705,-4.18888 -0.40209,-1.26689 -1.4531,-2.84026 -2.33557,-3.49638 -1.29811,-0.96514 -1.37886,-1.56295 -0.42289,-3.13073 0.64988,-1.06579 1.48839,-3.57316 1.86336,-5.57195 2.03027,-4.83732 2.88976,-10.41761 4.57197,-14.82504 1.1643,-2.90786 2.7169,-7.76202 3.45022,-10.78702 0.73331,-3.025 3.52349,-9.55 6.2004,-14.5 4.61327,-8.53061 6.17236,-11.28665 11.03115,-19.5 1.13878,-1.925 3.05979,-6.2 4.26891,-9.5 1.20913,-3.3 2.54146,-6.45 2.96074,-7 0.41928,-0.55 1.72395,-4.15 2.89927,-8 1.17531,-3.85 3.64927,-11.05 5.49769,-16 12.1718,-32.59565 18.84003,-59.03013 21.61588,-85.690624 2.71973,-26.12132 1.58109,-38.16445 -3.17511,-33.5827 -0.75134,0.72378 -2.71607,2.344 -4.36607,3.60048 -6.19886,4.72047 -31.91774,30.90946 -36.08487,36.74446 -2.38486,3.3394 -6.19359,10.0894 -8.46385,15 -11.85293,25.638144 -37.47238,76.941484 -39.85763,79.815544 -0.58201,0.70127 -3.91299,6.86355 -7.40218,13.69394 -3.48919,6.8304 -7.47315,14.2189 -8.85325,16.4189 -1.38009,2.2 -4.45779,7.6 -6.83931,12 -5.588705,10.32544 -5.271275,9.7052 -9.621715,18.80035 -2.984153,4.3429 -4.674559,10.92764 -7.40587,14.46324 -1.39016,1.7673 -1.70491,2.90282 -1,3.60773 3.27242,3.27242 -2.53761,7.13945 -8.32556,5.54131 -4.47706,-1.23617 -6.30868,-4.16227 -4.74864,-7.58618 0.60658,-1.3313 1.10288,-3.18998 1.10288,-4.13038 0,-2.49401 6.00231,-17.17428 11.73294,-28.69607 2.73555,-5.5 5.80403,-11.8 6.81885,-14 1.01482,-2.2 4.17012,-7.6 7.01176,-12 7.084635,-10.96983 14.186585,-22.82785 17.967455,-30 6.00177,-11.38509 11.78153,-22.01759 15.03279,-27.65446 4.96176,-8.60243 13.70152,-28.99407 17.9348,-41.845544 2.08346,-6.325 4.11057,-12.4 4.50468,-13.5 3.90799,-10.9076 7.00456,-26.93932 6.97278,-36.09978 -0.0211,-6.0902 -0.52004,-7.88964 -4.25,-15.32871 -5.26214,-10.49485 -6.33887,-11.246008 -11.96266,-8.34551 -2.34487,1.20938 -6.3951,3.08791 -9.00052,4.17451 -3.79305,1.58191 -18.59621,10.92337 -20.76288,13.10232 -0.275,0.27656 -3.12465,2.21832 -6.33255,4.31502 -22.127376,19.401788 -60.828483,51.602041 -72.176125,73.682154 -5.064936,7.06778 -8.479819,15.84369 -12.29145,22.5 -2.07563,3.51947 -7.24203,17.58063 -8.59177,23.38386 -0.71842,3.08888 -1.11593,7.6397 -0.88336,10.11294 0.5478,5.8254 5.6904,18.15686 8.23458,19.74572 4.80879,3.00314 6.32391,12.11767 2.53681,15.26069 -2.06002,1.70967 -12.37478,1.41658 -14.3919603,-0.40894 -0.89827,-0.81292 -2.22357,-3.64169 -2.94511,-6.28616 -0.72153,-2.64446 -1.93335,-6.85912 -2.69292,-9.36592 -1.7198,-5.67582 -2.32406,-10.07424 -2.90729,-21.16231 -0.41561,-7.90155 -0.13681,-9.71314 2.97007,-19.29866 3.63139,-11.20379 14.3772103,-31.68859 21.7595203,-41.48028 2.28105,-3.02552 7.77797,-9.55094 12.21538,-14.500944 15.302786,-18.731901 34.457673,-36.568569 48.49618,-47.99017 4.675,-3.7923 8.725,-7.14591 9,-7.45246 0.64092,-0.71446 3.55578,-2.74612 20.023955,-13.95674 7.41182,-5.04556 16.62604,-11.399328 20.47604,-14.119482 9.76279,-6.8977372 20.9645,-12.33236617 23.90036,-11.59551317 1.2881,0.323294 3.62329,2.28128197 5.18931,4.35108597 1.56602,2.069803 3.89972,4.888279 5.18601,6.2632792 7.32353,7.828635 12.22432,22.47328 12.22432,36.52895 0,3.49416 0.44624,6.6288 0.99163,6.96588 1.05639,0.65288 6.23568,-3.15534 14.27329,-10.49483 2.71042,-2.475 5.67212,-4.90133 6.58156,-5.39184 0.90943,-0.49052 4.57852,-2.78889 8.15352,-5.1075 6.03239,-3.91237 13.14398,-6.50066 17.86126,-6.50066 7.50555,0 8.97162,24.39854 3.06452,51 -1.16026,5.225 -2.77012,11.3855 -3.57746,13.68999 -0.80735,2.30449 -2.3551,7.92949 -3.43946,12.500004 -1.79653,7.57228 -4.42258,16.89325 -8.53942,30.31001 -3.03624,9.89511 -4.4072,15.79554 -3.80873,16.39231 0.33519,0.33423 1.72672,-0.74231 3.0923,-2.39231 1.36557,-1.65 4.86629,-5.475 7.77938,-8.5 8.70063,-11.30663 15.88935,-18.67259 23.88903,-29.75 7.72798,-11.104379 17.79518,-21.6762 25.52284,-31.250004 4.17132,-5.225 8.16962,-10.10145 8.88511,-10.83656 0.71549,-0.73511 2.50509,-2.98511 3.97689,-5 4.64244,-6.35551 8.61957,-10.16344 10.61504,-10.16344 1.06094,0 3.97008,-2.25 6.46477,-5 4.5999,-5.07065 7.07791,-6.07374 9.0712,-3.67198 1.27867,1.5407 3.0941,13.05965 3.12292,19.81499 0.0122,2.87174 0.51579,4.83334 1.3199,5.1419 1.93551,0.74273 9.2443,-0.2139 17.69991,-2.31669 10.56929,-2.62843 20.20987,-4.54325 37.5,-7.44828 14.97741,-2.51646 53.55858,-10.83132 57.87846,-12.47373 19.36295,-4.484043 36.45408,-9.612915 54.12154,-13.58284 6.6,-1.47632 13.8,-3.2519 16,-3.94573 2.2,-0.69383 6.7,-2.03898 10,-2.98924 3.3,-0.95025 6.78139,-2.13288 7.73643,-2.62806 0.95504,-0.49519 2.64254,-0.90034 3.75,-0.90034 1.83432,0 2.01223,0.6454 1.99851,7.25 -0.0228,10.9787 -3.27887,18.73343 -7.0242,16.72899 -2.83533,-1.51742 -6.00856,-1.1837 -13.73607,1.4446 -3.9191,1.33297 -12.21042,3.62374 -18.42515,5.09061 -47.16352,10.542763 -97.06084,20.691383 -130.29952,27.89487 -10.54456,2.2841 -24.22201,4.80996 -33.25314,6.14096 -4.98246,0.73431 -4.65274,-0.22842 -6.14756,17.949974 -0.97215,11.82229 -3.2837,29.38375 -4.65644,35.37628 -0.47312,2.06532 -0.24328,2.30759 1.75639,1.8514 3.02721,-0.6906 17.48264,-5.62381 21.30075,-7.26931 4.08416,-1.76016 17.54852,-4.45837 22.24774,-4.45837 13.18617,0 31.97813,10.18735 33.69845,18.26834 4.10646,19.28962 3.3924,25.56052 -5.80296,50.96225 -1.34005,3.70182 -3.36557,8.20182 -4.50116,10 -1.13558,1.79818 -3.04569,5.06941 -4.24467,7.26941 -1.19899,2.2 -3.93853,6.65263 -6.08785,9.89473 -2.14933,3.2421 -4.54194,7.0671 -5.31691,8.5 -0.77497,1.4329 -2.83159,4.18027 -4.57027,6.10527 -1.73868,1.925 -4.795,5.50195 -6.79181,7.94877 -1.99681,2.44683 -5.39227,6.04683 -7.54548,8 -2.1532,1.95318 -5.65794,5.40402 -7.7883,7.66853 -2.13037,2.26452 -6.55303,5.52193 -9.82815,7.2387 -3.27511,1.71677 -7.82539,4.47648 -10.11173,6.1327 -19.45144,10.86996 -36.19152,-17.66903 -36.84503,-32.20352 z"
     id="path2995"
     inkscape:connector-curvature="0"
     sodipodi:nodetypes="ssssssccscccssssscscccssssssssssssssssscsssssscsscsssssssscsssscssccssssssssssssssssssssssssscccssssssssssssssccsssssssssscssccssssssssccsscsscsssccccccsssssssssssssssssccccsssssssssssssssssccssssccssssssssssssssssccsssssssssssssssscccssssssssssccssssssscscsssssssscccssssscsssccsssssssccssssssssssssssssscc" />
</svg>
