<?xml version="1.0" standalone="no"?>
<!DOCTYPE svg PUBLIC "-//W3C//DTD SVG 20010904//EN"
 "http://www.w3.org/TR/2001/REC-SVG-20010904/DTD/svg10.dtd">
<svg version="1.0" xmlns="http://www.w3.org/2000/svg"
 width="468pt" height="286pt" viewBox="0 0 468 286"
 preserveAspectRatio="xMidYMid meet">
<metadata>
Created by POTRACE VERSION, written by Peter Selinger 2001-2007
</metadata>
<g transform="translate(0,286) scale(0.014648,-0.014648)"
fill="#000000" stroke="none">
<path d="M8936 19479 c-17 -1 -87 -9 -156 -19 -69 -9 -141 -20 -160 -24 -19
-4 -109 -25 -200 -47 -91 -22 -212 -52 -270 -65 -58 -14 -122 -32 -143 -40
-21 -8 -93 -45 -160 -82 -67 -38 -136 -74 -152 -80 -17 -7 -64 -14 -105 -16
-41 -1 -86 -8 -100 -16 -14 -7 -46 -27 -71 -45 -26 -18 -61 -41 -79 -50 -17
-9 -84 -34 -148 -56 -64 -22 -145 -58 -181 -79 -38 -22 -101 -48 -149 -60 -46
-11 -106 -30 -134 -41 -33 -13 -79 -46 -132 -96 -44 -41 -98 -87 -120 -101
-29 -20 -49 -26 -84 -24 -33 1 -71 -9 -146 -41 -77 -32 -111 -53 -146 -88 -25
-25 -56 -60 -69 -78 -12 -17 -41 -41 -63 -52 -30 -15 -50 -18 -82 -14 -34 6
-58 0 -130 -29 -56 -23 -116 -57 -165 -94 -42 -33 -107 -77 -146 -98 -38 -22
-95 -50 -125 -63 -30 -13 -100 -48 -155 -78 -55 -31 -119 -68 -142 -84 -23
-16 -50 -39 -60 -52 -10 -12 -44 -43 -75 -69 -36 -29 -82 -55 -123 -68 -36
-12 -87 -36 -113 -54 -26 -18 -69 -47 -97 -66 -27 -18 -70 -52 -95 -75 -25
-23 -74 -58 -110 -77 -36 -19 -83 -41 -104 -48 -22 -7 -82 -36 -134 -64 -72
-38 -108 -65 -146 -109 -29 -34 -72 -69 -101 -84 -27 -14 -81 -56 -120 -93
-53 -51 -83 -71 -125 -85 -30 -10 -72 -26 -93 -37 -21 -10 -79 -56 -130 -101
-51 -45 -116 -102 -145 -126 -29 -24 -78 -61 -110 -82 -31 -21 -78 -53 -103
-71 -25 -18 -90 -73 -144 -123 -54 -50 -123 -125 -154 -170 -30 -43 -82 -107
-114 -141 -33 -36 -74 -69 -98 -78 -22 -9 -86 -52 -142 -95 -56 -44 -111 -94
-121 -113 -11 -18 -66 -80 -122 -138 -56 -58 -161 -166 -233 -240 -72 -75
-131 -140 -131 -146 0 -5 -21 -34 -46 -64 -25 -30 -63 -89 -84 -130 -21 -41
-52 -88 -70 -105 -18 -16 -50 -57 -73 -89 -22 -33 -116 -134 -208 -225 -149
-147 -171 -174 -199 -235 -16 -38 -43 -85 -58 -105 -16 -20 -51 -74 -79 -121
-27 -47 -72 -125 -100 -175 -28 -49 -60 -108 -71 -130 -11 -22 -41 -69 -67
-105 -27 -35 -74 -112 -106 -170 -32 -58 -72 -125 -89 -150 -17 -25 -51 -76
-75 -114 -25 -38 -50 -86 -56 -105 -6 -20 -60 -133 -119 -252 -59 -120 -116
-243 -125 -275 -9 -33 -22 -68 -30 -79 -7 -12 -27 -75 -45 -140 -25 -95 -34
-152 -41 -273 -5 -84 -11 -157 -14 -162 -3 -5 -6 -49 -6 -97 -1 -51 6 -114 15
-149 9 -34 31 -95 51 -137 19 -43 43 -113 54 -156 11 -44 30 -106 43 -138 19
-46 36 -68 92 -115 38 -32 76 -58 86 -58 9 0 21 5 28 12 7 7 12 21 12 32 0 11
-11 47 -25 82 -14 34 -36 104 -50 156 -19 68 -28 136 -35 253 -5 88 -9 219
-10 291 0 94 6 161 21 235 11 57 43 172 70 254 28 84 68 180 91 219 22 37 57
119 78 182 21 63 56 142 77 177 22 34 57 92 77 130 20 37 50 77 67 89 17 13
37 43 49 76 11 30 42 91 69 136 27 44 75 125 107 180 33 54 74 123 93 154 19
31 49 98 68 151 30 85 40 101 101 165 38 39 75 82 82 96 7 14 34 52 60 85 26
33 71 96 100 140 29 44 78 107 110 140 31 33 79 96 105 140 27 44 74 105 103
135 30 30 77 84 104 120 26 36 79 92 116 125 37 33 110 111 162 173 52 63 108
123 123 134 16 11 53 53 81 92 29 39 136 155 237 257 101 102 202 196 224 209
22 13 72 49 110 81 39 31 117 107 174 168 68 73 124 123 164 147 33 19 110 73
171 119 61 46 146 115 189 154 68 63 82 71 116 71 31 0 44 -6 63 -29 16 -18
30 -57 42 -112 11 -55 18 -144 21 -259 1 -96 8 -362 13 -590 6 -254 7 -543 2
-746 -5 -182 -14 -351 -19 -375 -5 -24 -13 -136 -17 -249 -4 -113 -7 -236 -6
-275 1 -38 -3 -155 -8 -260 -6 -104 -17 -247 -25 -316 -8 -69 -11 -150 -8
-180 3 -30 -2 -115 -10 -189 -9 -74 -18 -216 -21 -315 -3 -99 -10 -211 -15
-250 -6 -38 -12 -198 -15 -355 -3 -157 -10 -427 -15 -600 -5 -173 -14 -376
-20 -450 -5 -74 -13 -267 -16 -428 -4 -161 -13 -333 -20 -383 -10 -66 -11
-120 -5 -207 5 -64 9 -362 9 -662 0 -417 4 -580 16 -695 8 -82 15 -184 15
-225 0 -41 -6 -124 -14 -185 -8 -60 -14 -195 -14 -300 -1 -126 4 -219 14 -275
10 -58 13 -114 8 -175 -3 -49 -1 -144 5 -210 7 -66 17 -244 23 -395 6 -151 11
-295 10 -320 0 -25 -1 -110 -2 -190 -1 -80 3 -183 9 -229 8 -60 18 -96 35
-122 15 -21 44 -46 72 -59 38 -19 53 -21 82 -14 26 6 42 19 57 44 16 29 20 52
20 135 0 55 -6 170 -14 255 -7 85 -15 229 -16 320 -1 103 -8 197 -18 250 -11
53 -21 187 -27 360 -6 151 -15 340 -21 420 -5 80 -14 174 -18 210 -5 36 -4
108 1 160 6 57 6 134 0 195 -5 55 -8 388 -6 740 2 352 3 723 3 825 0 102 5
340 11 530 7 190 14 417 16 505 2 88 8 288 15 445 6 157 14 422 19 590 4 168
13 334 20 370 8 41 14 173 15 355 1 160 5 353 9 430 3 77 15 228 27 335 13
122 18 219 14 260 -4 36 -2 110 4 165 6 55 15 140 21 189 6 50 13 191 15 315
2 125 11 282 20 351 8 69 15 190 15 270 0 80 4 217 10 305 5 88 12 349 15 581
4 339 3 441 -9 525 -8 57 -26 151 -40 207 -21 86 -24 112 -16 154 6 27 17 65
27 85 9 19 35 48 57 64 23 16 70 50 106 76 36 26 83 64 105 84 22 20 77 53
123 73 45 19 110 56 145 82 34 25 132 87 217 137 85 51 183 114 217 140 34 26
80 54 101 61 21 8 58 24 82 36 24 12 77 49 119 82 42 33 121 83 176 110 55 28
121 57 147 64 26 8 60 25 75 37 15 13 62 43 103 68 41 25 113 65 160 88 47 24
108 51 137 61 29 10 96 44 150 76 54 32 134 77 178 101 44 23 110 58 147 78
36 19 106 51 155 71 48 20 118 51 154 70 36 18 95 42 130 54 35 12 78 30 94
40 17 10 67 34 112 53 46 19 105 52 133 72 28 20 76 45 108 55 31 10 79 27
105 39 26 11 91 28 145 36 71 12 122 27 192 60 52 24 149 60 215 79 66 19 143
37 170 41 28 4 71 16 97 26 28 11 126 28 241 41 l194 22 88 -30 c49 -16 102
-38 119 -49 16 -11 46 -45 67 -75 31 -44 43 -74 59 -153 11 -54 25 -128 30
-164 8 -46 7 -88 -1 -146 -6 -45 -12 -154 -13 -242 -1 -128 -6 -179 -25 -255
-12 -52 -27 -115 -33 -140 -5 -25 -25 -111 -43 -191 -19 -80 -43 -177 -54
-215 -12 -38 -27 -115 -35 -171 -10 -72 -21 -112 -36 -133 -12 -17 -33 -72
-46 -123 -14 -50 -36 -117 -50 -147 -14 -30 -36 -82 -49 -115 -12 -33 -45
-102 -73 -153 -28 -51 -64 -108 -80 -127 -17 -18 -38 -57 -48 -87 -9 -29 -39
-89 -65 -133 -26 -44 -54 -104 -64 -132 -9 -29 -50 -103 -91 -165 -40 -62 -86
-131 -102 -153 -16 -22 -59 -98 -97 -168 -57 -107 -78 -136 -131 -183 -42 -36
-71 -72 -87 -107 -14 -29 -37 -82 -52 -118 -15 -37 -38 -77 -51 -90 -13 -13
-80 -84 -149 -158 -69 -73 -153 -174 -187 -225 -41 -62 -97 -126 -175 -200
-77 -73 -122 -125 -140 -160 -14 -28 -55 -92 -92 -142 -56 -78 -82 -103 -168
-164 -60 -43 -129 -103 -167 -147 -36 -40 -87 -92 -112 -114 -26 -23 -62 -48
-80 -57 -18 -8 -47 -34 -63 -58 -17 -23 -52 -54 -78 -69 -27 -15 -80 -59 -119
-96 -56 -53 -92 -78 -166 -113 -53 -24 -133 -68 -179 -98 -46 -31 -95 -61
-107 -68 -13 -6 -49 -20 -79 -31 -30 -10 -87 -25 -126 -33 -40 -8 -121 -20
-181 -26 -60 -6 -143 -20 -184 -32 -55 -15 -89 -18 -126 -13 -28 3 -79 20
-113 36 -36 17 -76 46 -96 70 -19 22 -49 76 -66 120 -18 44 -37 105 -43 135
-7 37 -8 68 -1 101 6 27 29 118 51 203 25 98 64 212 106 309 42 99 81 173 109
210 24 31 50 67 57 81 6 14 31 43 54 65 22 22 84 97 136 165 52 69 115 147
140 174 25 27 70 65 100 86 30 20 82 51 115 67 33 17 83 37 110 46 28 9 109
25 180 36 128 20 131 20 223 2 77 -16 99 -25 134 -55 23 -20 45 -36 50 -36 5
0 22 -28 38 -62 17 -35 30 -69 30 -75 0 -7 11 -45 24 -85 20 -59 26 -102 31
-228 5 -132 9 -162 28 -200 12 -25 34 -52 49 -60 25 -14 29 -13 48 6 12 12 24
43 30 79 5 33 10 103 10 155 0 52 -4 111 -10 130 -5 19 -14 75 -20 123 -6 52
-23 119 -41 165 -17 42 -55 108 -84 147 -29 38 -70 86 -92 106 -21 19 -61 51
-88 71 -29 20 -95 49 -155 69 -91 29 -118 34 -205 34 -55 0 -145 -8 -200 -18
-76 -14 -114 -27 -160 -55 -33 -20 -95 -70 -139 -111 -43 -42 -169 -173 -280
-291 -111 -118 -218 -236 -239 -261 -20 -25 -43 -62 -52 -82 -8 -20 -28 -51
-44 -69 -15 -18 -34 -51 -41 -73 -7 -22 -31 -71 -55 -110 -23 -38 -47 -83 -54
-100 -6 -16 -22 -68 -35 -115 -13 -47 -41 -130 -61 -185 -32 -89 -35 -107 -30
-165 3 -36 22 -130 41 -210 33 -133 41 -153 96 -240 34 -52 90 -127 125 -166
41 -46 82 -80 116 -97 33 -16 94 -32 167 -44 63 -10 153 -17 200 -16 47 0 123
10 170 22 47 11 114 21 150 21 53 0 88 8 190 47 68 25 163 69 210 97 47 27
109 62 139 78 30 15 60 28 67 28 6 0 32 21 56 46 23 25 63 55 88 66 25 10 70
43 100 72 30 29 80 70 110 91 30 21 82 64 115 94 34 31 82 73 108 94 26 21 56
55 66 75 11 20 50 64 87 97 36 33 86 76 109 95 24 19 58 55 77 80 18 25 45 64
60 87 15 23 64 77 108 119 44 42 94 100 111 128 18 28 57 89 87 135 31 46 69
99 84 117 16 18 45 43 63 54 19 12 48 44 66 73 17 29 55 84 84 122 29 39 74
106 100 150 26 44 56 91 67 105 10 14 52 69 93 122 40 53 96 130 123 170 27
40 62 84 77 98 15 14 53 64 85 111 32 47 68 106 80 130 13 24 42 71 65 104 24
33 57 89 75 125 18 36 66 124 108 195 41 72 85 142 97 157 13 15 29 44 35 65
7 21 35 83 63 138 27 55 58 111 68 125 10 14 28 60 39 102 11 42 32 104 45
137 14 33 32 99 40 148 9 54 24 101 39 123 12 19 28 51 34 70 7 19 20 76 30
125 11 50 31 133 46 185 15 52 39 133 54 180 23 75 26 103 28 248 1 89 7 192
13 230 5 37 13 112 16 167 3 55 1 161 -5 235 -5 74 -16 158 -24 185 -7 28 -25
78 -39 113 -14 35 -41 84 -60 110 -19 26 -42 68 -52 94 -12 33 -34 61 -69 91
-28 24 -69 56 -91 70 -22 15 -76 36 -119 47 -44 11 -93 20 -110 19z"/>
<path d="M24675 13739 c-16 -1 -41 -4 -55 -6 -14 -3 -54 -15 -90 -28 -36 -12
-101 -30 -145 -39 -44 -9 -143 -37 -220 -62 -77 -25 -153 -56 -170 -68 -16
-13 -53 -35 -81 -49 -28 -14 -86 -37 -130 -51 -58 -19 -103 -44 -169 -91 -50
-36 -125 -87 -169 -112 -43 -26 -102 -70 -130 -98 -28 -29 -67 -60 -86 -70
-19 -9 -55 -34 -80 -54 -25 -21 -80 -63 -122 -94 -47 -34 -97 -83 -130 -126
-29 -39 -93 -115 -143 -169 -49 -55 -113 -126 -141 -158 -28 -33 -68 -86 -89
-119 -21 -33 -57 -85 -81 -115 -23 -30 -54 -82 -69 -115 -15 -33 -49 -118 -77
-190 -27 -71 -61 -164 -75 -205 -14 -41 -52 -131 -84 -200 -32 -69 -67 -152
-78 -185 -11 -33 -43 -116 -71 -185 -28 -69 -57 -150 -65 -180 -8 -30 -20
-131 -25 -225 -6 -93 -17 -219 -25 -280 -8 -60 -15 -132 -15 -160 0 -27 7 -76
14 -109 8 -32 23 -67 34 -78 16 -16 24 -18 40 -9 11 6 27 28 35 49 9 21 21
103 27 183 7 79 19 166 26 194 8 27 19 79 24 115 6 36 29 121 52 190 22 69 55
161 73 205 18 44 36 98 40 120 3 22 18 59 31 83 14 23 39 75 55 115 17 39 64
155 104 257 40 102 76 197 80 210 4 14 25 48 46 76 22 28 39 54 39 59 0 4 27
55 60 114 34 58 78 122 99 141 20 19 61 64 89 100 28 36 102 115 165 175 62
61 140 133 172 160 33 28 86 72 119 98 32 26 84 61 115 78 31 16 85 54 121 84
36 29 124 94 195 143 72 48 182 114 245 145 63 31 147 69 185 85 39 16 113 41
165 56 52 16 142 43 200 61 95 30 118 33 237 34 72 1 144 -4 160 -10 15 -5 40
-22 56 -37 15 -14 34 -49 42 -76 8 -27 15 -75 15 -105 0 -31 -9 -110 -20 -176
-11 -66 -24 -133 -28 -150 -5 -16 -25 -68 -44 -115 -20 -47 -39 -96 -43 -109
-4 -13 -46 -87 -93 -165 -47 -78 -105 -177 -130 -221 -24 -43 -54 -93 -67
-110 -13 -16 -43 -71 -68 -121 -25 -50 -58 -102 -74 -115 -15 -14 -62 -65
-104 -114 -41 -50 -108 -139 -148 -199 -40 -60 -97 -135 -126 -166 -30 -32
-60 -71 -68 -87 -8 -15 -32 -53 -52 -83 -20 -30 -54 -74 -76 -97 -21 -23 -39
-47 -39 -52 0 -6 -32 -45 -71 -88 -39 -43 -90 -107 -114 -143 -24 -36 -66 -89
-93 -117 -37 -41 -55 -53 -78 -53 -17 0 -38 6 -48 13 -11 8 -20 31 -23 58 -3
30 2 72 17 125 12 43 26 129 30 189 5 61 14 139 20 175 7 36 13 146 14 245 1
164 -1 185 -21 240 -14 36 -37 73 -58 93 -19 17 -44 32 -54 32 -11 0 -31 -5
-45 -12 -14 -6 -34 -30 -45 -52 -11 -23 -25 -70 -31 -106 -6 -36 -15 -90 -21
-120 -5 -30 -17 -111 -25 -180 -9 -69 -19 -170 -24 -225 -4 -55 -13 -152 -20
-215 -6 -63 -23 -171 -37 -240 -14 -69 -32 -163 -39 -210 -7 -46 -24 -125 -37
-175 -14 -49 -29 -126 -35 -170 -6 -46 -30 -133 -56 -205 -25 -69 -65 -214
-91 -323 -25 -109 -62 -242 -82 -295 -20 -53 -53 -149 -75 -212 -21 -63 -59
-178 -83 -255 -24 -77 -55 -167 -69 -201 -14 -34 -36 -110 -50 -170 -14 -60
-37 -143 -51 -184 -14 -41 -37 -137 -50 -212 -16 -87 -29 -209 -35 -330 -5
-106 -10 -245 -10 -308 0 -90 4 -124 19 -155 10 -23 32 -53 49 -67 17 -14 45
-29 62 -33 21 -5 39 -2 55 9 14 9 34 34 45 57 17 32 24 79 36 222 8 100 21
229 29 287 9 58 24 182 35 275 11 94 30 224 42 290 12 69 46 195 80 295 32 96
77 236 98 312 22 75 40 145 40 156 0 10 25 70 56 133 36 74 61 140 70 188 8
40 26 112 40 160 14 47 34 111 45 142 12 31 34 70 50 85 25 24 39 29 98 32 48
3 105 -4 197 -24 110 -23 158 -28 324 -31 107 -2 220 -3 250 -3 30 0 134 9
230 21 96 11 179 24 185 27 5 3 79 9 163 13 120 5 185 3 293 -11 115 -14 150
-23 204 -49 36 -18 77 -47 91 -64 13 -18 43 -72 65 -120 23 -49 45 -115 50
-150 5 -34 16 -107 25 -162 9 -55 23 -134 30 -175 9 -54 12 -131 8 -270 -3
-107 -10 -250 -15 -318 -8 -83 -23 -168 -48 -262 -21 -77 -49 -156 -63 -177
-13 -21 -47 -76 -74 -122 -27 -46 -78 -115 -113 -153 -35 -38 -81 -78 -102
-89 -22 -11 -58 -22 -81 -25 -24 -3 -106 2 -183 11 -77 8 -158 21 -180 26 -22
6 -56 19 -75 29 -19 10 -78 25 -130 33 -52 9 -135 30 -185 47 -58 20 -132 36
-210 46 -66 7 -140 16 -165 20 -37 5 -50 2 -70 -14 -20 -17 -23 -24 -14 -39 6
-10 38 -35 72 -56 45 -29 78 -41 128 -48 45 -6 78 -17 100 -34 17 -13 61 -35
96 -48 35 -14 89 -38 119 -55 30 -17 98 -42 151 -56 54 -14 151 -50 215 -80
l118 -55 136 -3 135 -3 75 38 c41 21 114 70 162 110 48 40 109 99 135 132 26
33 66 89 88 125 23 36 57 102 77 147 20 45 43 106 51 135 8 29 24 126 35 214
11 89 25 172 30 186 5 13 12 98 16 189 3 90 2 245 -4 344 -9 175 -11 186 -65
380 -38 136 -72 232 -105 300 -27 56 -77 135 -112 179 -45 56 -86 94 -138 128
-40 26 -97 55 -125 64 -41 13 -108 17 -350 20 -183 2 -316 0 -345 -7 -25 -5
-67 -24 -93 -40 -25 -17 -62 -33 -81 -36 -23 -3 -58 2 -99 16 -57 19 -83 21
-234 19 -161 -2 -173 -1 -251 25 -51 17 -88 36 -98 50 -8 12 -15 37 -15 57 0
22 12 54 33 87 17 28 58 90 90 137 32 48 71 101 86 119 16 17 38 51 49 73 12
23 51 86 88 140 36 55 96 131 133 169 36 39 86 103 111 144 25 40 57 87 71
105 14 17 43 56 64 86 21 30 78 98 126 150 48 52 120 140 159 195 38 55 78
113 88 129 9 16 50 79 91 140 41 61 116 172 166 246 49 74 114 166 143 204 33
43 59 91 69 125 8 31 26 83 39 116 13 33 44 136 70 229 36 132 47 191 51 270
4 82 1 116 -16 183 -12 46 -37 117 -56 158 -24 53 -52 93 -92 134 -32 32 -73
65 -90 74 -17 9 -66 26 -109 37 -44 12 -104 28 -134 36 -30 8 -68 13 -85 13z"/>
<path d="M17681 13079 c-14 -1 -48 -5 -74 -9 -27 -5 -72 -20 -100 -34 -29 -14
-88 -60 -133 -103 -45 -43 -93 -98 -109 -123 -15 -25 -40 -58 -55 -75 -15 -16
-47 -68 -72 -115 -31 -57 -51 -112 -62 -165 -14 -68 -15 -108 -7 -275 7 -135
18 -237 37 -330 14 -74 44 -187 66 -250 21 -63 49 -146 60 -185 11 -38 28 -95
38 -125 10 -30 36 -102 57 -160 22 -58 62 -159 88 -225 26 -66 67 -165 90
-220 24 -55 65 -147 92 -205 28 -58 58 -130 67 -160 10 -30 34 -86 53 -124 19
-38 63 -153 98 -255 35 -102 70 -202 78 -221 8 -19 25 -82 37 -140 12 -58 35
-148 52 -200 16 -52 41 -126 54 -165 13 -38 24 -83 24 -100 0 -16 6 -52 14
-80 7 -27 27 -84 44 -125 17 -41 35 -100 42 -130 6 -30 25 -102 42 -160 17
-58 34 -123 38 -145 5 -22 13 -89 19 -150 6 -67 7 -125 2 -148 -5 -21 -22 -56
-37 -78 -15 -22 -57 -61 -93 -86 -36 -26 -88 -55 -116 -66 -27 -10 -57 -25
-65 -32 -8 -7 -64 -36 -125 -65 -60 -28 -163 -67 -228 -86 -65 -19 -146 -41
-180 -49 -34 -8 -114 -19 -177 -25 -63 -6 -144 -20 -179 -30 -36 -12 -92 -20
-131 -20 -40 0 -107 -10 -164 -25 -60 -16 -126 -25 -174 -26 -42 0 -102 -4
-132 -8 -30 -5 -116 -5 -191 -1 -108 6 -153 13 -219 35 -52 17 -96 40 -119 60
-20 18 -47 38 -60 44 -13 8 -37 10 -55 7 -18 -4 -43 -17 -56 -31 -17 -18 -25
-40 -28 -79 -3 -37 1 -69 13 -100 10 -26 35 -62 58 -82 22 -20 64 -47 93 -60
29 -13 93 -30 141 -38 49 -8 145 -22 215 -32 85 -11 152 -15 200 -10 40 3 129
11 198 16 69 6 177 19 240 30 63 10 142 22 175 25 33 4 101 15 150 25 50 10
122 21 160 24 45 3 106 18 170 41 55 20 147 55 205 77 58 22 154 53 214 69 61
17 126 39 145 51 20 12 83 53 141 91 58 38 120 84 138 101 19 17 40 42 47 56
7 14 25 68 39 120 17 64 26 120 26 171 0 49 -9 111 -24 170 -13 52 -30 130
-36 174 -7 44 -27 118 -44 165 -18 47 -38 108 -45 135 -7 28 -30 109 -52 180
-22 72 -63 200 -90 285 -27 85 -59 200 -70 255 -12 55 -41 156 -66 225 -25 68
-54 156 -65 195 -11 38 -25 79 -33 91 -7 11 -25 58 -40 105 -14 46 -41 125
-60 174 -18 50 -38 117 -45 150 -7 33 -30 91 -52 130 -22 38 -48 79 -58 90 -9
11 -23 30 -29 42 -6 13 -20 52 -31 87 -11 35 -40 108 -65 161 -25 54 -55 132
-67 174 -11 42 -29 105 -38 141 -10 36 -29 103 -43 150 -14 47 -30 124 -35
171 -6 47 -25 128 -42 180 -26 78 -33 120 -41 249 -7 112 -7 171 1 214 6 32
30 101 53 153 37 84 53 106 137 193 52 54 111 106 130 116 20 10 67 19 112 22
59 3 92 0 146 -17 38 -11 76 -28 83 -37 8 -9 26 -38 41 -63 15 -25 48 -89 73
-141 25 -52 51 -117 57 -145 5 -27 14 -70 20 -95 5 -25 25 -80 44 -122 22 -49
38 -104 44 -150 5 -40 14 -89 20 -108 8 -27 7 -81 -5 -225 -11 -119 -26 -227
-42 -290 -13 -55 -38 -125 -55 -155 -17 -30 -62 -95 -100 -145 -38 -49 -86
-112 -107 -138 -23 -30 -48 -80 -66 -132 -21 -65 -26 -96 -23 -136 5 -43 11
-58 37 -81 26 -23 41 -28 82 -28 44 0 55 4 83 33 22 22 42 58 60 114 15 45 39
97 54 117 15 19 65 76 111 126 48 54 93 114 106 144 12 28 29 71 38 96 8 25
23 99 33 165 14 88 19 172 18 315 -1 179 -3 200 -23 250 -13 30 -36 98 -52
150 -16 52 -48 140 -70 195 -23 55 -56 123 -74 150 -19 28 -39 69 -44 91 -6
23 -21 54 -32 69 -12 14 -36 54 -54 88 -17 34 -49 91 -71 127 -21 35 -73 97
-114 137 -43 41 -99 84 -130 99 -30 15 -75 33 -99 40 -24 8 -56 13 -70 13z"/>
<path d="M30508 12390 c-2 0 -17 -9 -34 -19 -21 -13 -37 -35 -47 -63 -9 -23
-19 -92 -22 -153 -4 -60 -6 -240 -6 -400 0 -190 -5 -328 -14 -400 -8 -60 -17
-144 -20 -185 -4 -41 -15 -130 -26 -198 -10 -67 -24 -208 -29 -312 -5 -104
-16 -233 -24 -287 -8 -54 -17 -127 -21 -163 -4 -36 -15 -115 -25 -175 -11 -61
-24 -131 -29 -155 -6 -25 -18 -130 -27 -235 -8 -104 -22 -219 -30 -255 -7 -36
-20 -83 -28 -105 -8 -22 -15 -65 -16 -95 0 -30 -5 -84 -11 -120 -6 -36 -14
-117 -18 -180 -5 -63 -13 -146 -19 -185 -6 -38 -16 -104 -22 -145 -7 -41 -18
-124 -25 -185 -8 -60 -26 -168 -41 -240 -24 -111 -28 -156 -29 -305 -1 -98 -7
-187 -13 -201 -6 -14 -20 -95 -32 -180 -18 -134 -20 -171 -11 -289 6 -87 6
-180 -1 -260 -5 -69 -7 -165 -3 -215 3 -49 10 -117 15 -150 5 -33 14 -134 20
-225 6 -91 16 -189 20 -218 5 -29 25 -83 43 -120 25 -49 36 -86 41 -141 3 -41
13 -105 22 -143 9 -38 26 -95 39 -126 13 -31 40 -120 60 -197 20 -77 45 -165
55 -195 10 -30 21 -100 25 -155 4 -55 16 -138 26 -185 11 -47 29 -104 40 -128
12 -24 34 -49 50 -57 15 -8 37 -15 48 -15 11 0 27 3 36 6 8 4 22 19 30 35 8
15 15 51 15 79 0 28 -4 81 -9 118 -5 37 -15 108 -21 157 -7 50 -25 145 -41
212 -16 68 -50 193 -75 279 -25 87 -49 164 -53 173 -5 9 -20 59 -34 111 -14
52 -28 122 -32 155 -3 33 -15 96 -25 140 -10 44 -28 152 -40 239 -14 109 -19
185 -15 240 3 45 7 268 9 497 l4 415 30 70 c16 38 37 99 47 137 10 37 21 67
25 67 4 0 11 -11 14 -25 3 -13 11 -113 16 -220 5 -108 15 -226 20 -262 6 -36
19 -102 30 -147 10 -44 51 -168 89 -275 39 -107 80 -213 91 -237 12 -25 60
-80 113 -130 51 -48 106 -107 124 -130 20 -26 59 -56 105 -82 40 -22 106 -49
145 -61 40 -12 103 -35 140 -51 38 -15 124 -40 193 -54 89 -19 156 -26 235
-26 77 0 132 -6 184 -20 41 -11 83 -20 94 -20 10 0 34 7 52 15 18 9 37 27 44
41 6 14 11 36 11 50 0 14 -7 39 -16 57 -9 18 -26 43 -38 55 -11 13 -39 33 -61
44 -28 15 -70 23 -145 29 -58 4 -145 17 -195 29 -49 12 -143 39 -207 60 -64
22 -171 66 -238 100 -67 34 -149 83 -183 110 -34 27 -73 66 -87 85 -14 20 -39
56 -57 80 -17 24 -39 57 -47 74 -9 16 -22 56 -30 88 -8 32 -28 112 -45 178
-16 66 -35 158 -40 205 -6 46 -11 123 -11 171 0 47 6 124 14 170 8 46 17 113
21 149 3 36 22 112 40 170 18 58 40 133 49 167 9 35 38 120 66 190 28 70 61
172 75 228 13 55 47 151 75 214 28 63 57 123 65 135 7 12 20 45 30 74 9 29 42
90 72 135 30 45 65 93 77 107 12 14 35 45 50 69 16 24 74 90 130 147 55 57
119 115 141 130 22 15 59 40 81 56 23 15 75 41 115 58 41 16 84 41 97 55 14
17 22 39 22 64 0 22 -13 63 -30 99 -25 50 -39 64 -75 82 -37 18 -50 20 -83 11
-21 -6 -57 -25 -78 -41 -21 -17 -77 -56 -124 -87 -47 -31 -128 -91 -180 -133
-52 -43 -127 -111 -166 -151 -39 -41 -102 -121 -139 -179 -38 -58 -84 -132
-103 -165 -19 -33 -43 -91 -53 -128 -11 -38 -35 -99 -54 -137 -19 -38 -44
-104 -56 -147 -12 -43 -37 -116 -57 -163 -19 -47 -44 -97 -54 -112 -10 -15
-47 -114 -82 -220 -35 -106 -80 -226 -100 -265 -20 -40 -36 -76 -36 -81 0 -5
-8 -16 -18 -25 -10 -10 -21 -17 -24 -17 -3 0 -11 14 -18 31 -10 23 -11 72 -7
192 4 89 16 216 27 282 10 66 31 224 45 350 14 127 34 262 45 300 10 39 23
104 29 145 6 41 15 127 21 190 5 63 16 162 25 220 8 58 21 128 30 155 9 28 22
115 31 195 8 80 22 190 30 245 9 55 19 134 24 175 5 41 16 149 25 240 9 91 25
206 35 255 11 50 29 178 41 285 17 164 21 259 22 595 0 365 -1 404 -18 445
-10 25 -29 60 -42 78 -13 17 -37 39 -53 47 -16 8 -30 15 -32 15z"/>
<path d="M12571 9299 c-25 -1 -107 -6 -181 -11 -126 -8 -140 -11 -228 -50 -52
-23 -116 -56 -141 -73 -26 -18 -65 -42 -86 -53 -27 -13 -51 -38 -72 -74 -18
-29 -40 -71 -49 -93 -9 -21 -27 -95 -40 -164 -13 -69 -24 -138 -24 -155 0 -16
-7 -52 -15 -80 -7 -28 -21 -91 -30 -141 -8 -49 -20 -159 -25 -244 -8 -131 -14
-162 -36 -212 -15 -32 -36 -64 -48 -72 -11 -7 -43 -21 -71 -31 -27 -10 -88
-36 -135 -56 -47 -21 -107 -46 -135 -55 -27 -9 -72 -23 -100 -32 -27 -8 -72
-24 -100 -35 -27 -12 -81 -31 -120 -44 -38 -12 -123 -36 -187 -54 -65 -17
-175 -39 -245 -50 -70 -11 -146 -25 -169 -31 -22 -7 -52 -9 -65 -6 -14 4 -38
16 -54 28 -15 13 -34 38 -42 57 -8 19 -18 80 -23 137 -4 59 -14 115 -24 133
-9 17 -26 37 -38 43 -12 7 -34 12 -49 11 -14 0 -40 -9 -57 -19 -16 -10 -57
-55 -90 -100 -34 -45 -85 -99 -114 -121 -29 -22 -71 -49 -94 -60 -22 -11 -98
-43 -170 -72 -71 -28 -146 -58 -167 -67 -21 -9 -61 -32 -90 -50 -37 -24 -63
-33 -94 -33 -23 0 -53 4 -67 10 -14 5 -32 23 -41 39 -10 21 -15 59 -15 125 0
71 -5 109 -20 150 -12 30 -45 85 -75 123 -30 37 -78 113 -107 167 -29 55 -71
119 -94 143 -30 32 -48 43 -70 43 -16 0 -79 -17 -139 -38 -61 -21 -121 -45
-134 -52 -14 -7 -63 -41 -110 -76 -47 -35 -102 -75 -121 -89 -19 -14 -80 -75
-136 -137 -87 -98 -111 -118 -183 -156 -45 -24 -110 -50 -144 -58 -34 -7 -107
-21 -162 -29 -55 -9 -140 -27 -190 -40 -49 -13 -139 -31 -200 -41 -78 -12
-173 -17 -326 -18 l-215 0 -60 29 c-45 23 -63 39 -77 68 -17 33 -17 44 -7 87
8 32 28 70 54 103 24 28 61 79 84 112 34 50 45 77 62 160 11 55 27 125 36 155
9 30 16 80 16 110 0 31 -8 79 -20 110 -11 30 -23 73 -27 95 -3 22 -18 73 -32
113 -20 57 -36 81 -70 112 -25 21 -67 46 -95 56 -43 14 -57 15 -92 4 -22 -7
-62 -23 -87 -35 -25 -13 -70 -50 -100 -83 -30 -32 -69 -80 -86 -105 -17 -26
-58 -121 -92 -212 -58 -157 -62 -173 -82 -343 -11 -97 -23 -191 -25 -208 -2
-18 -15 -47 -27 -65 -12 -19 -40 -44 -62 -56 -22 -13 -57 -23 -78 -23 -21 0
-95 18 -165 41 -70 23 -158 55 -197 71 -38 17 -87 31 -108 32 -32 1 -44 -5
-68 -32 -16 -18 -29 -44 -29 -57 0 -14 11 -48 25 -75 14 -27 39 -66 57 -86 17
-20 64 -58 104 -85 40 -27 90 -55 111 -63 21 -8 57 -20 80 -26 23 -6 99 -15
170 -21 70 -6 180 -12 244 -14 72 -2 138 -9 174 -20 33 -9 88 -34 124 -56 36
-22 84 -44 106 -50 22 -5 65 -18 95 -29 30 -10 97 -24 148 -30 57 -8 130 -10
190 -6 53 3 147 10 207 15 61 5 130 14 155 20 25 5 92 18 150 27 58 8 174 29
258 45 85 16 169 29 187 29 22 0 53 -13 91 -39 37 -25 72 -60 94 -93 19 -29
50 -70 70 -91 19 -21 53 -48 75 -59 30 -16 64 -22 140 -26 93 -3 108 -1 210
31 67 21 143 38 195 42 61 5 116 2 192 -10 100 -15 112 -15 190 0 45 10 157
44 248 77 91 33 199 78 240 101 41 22 102 57 135 78 33 21 90 47 127 59 45 15
78 20 101 16 18 -3 63 -26 98 -51 35 -25 87 -56 114 -70 28 -13 82 -30 122
-37 55 -9 91 -9 155 -1 46 6 140 25 208 41 69 16 190 44 270 62 80 18 178 46
217 61 40 16 96 42 125 58 29 17 106 48 170 71 78 26 135 40 169 40 46 0 55
-4 89 -38 21 -21 43 -55 49 -77 6 -22 11 -56 11 -77 0 -20 9 -88 20 -151 10
-63 33 -164 50 -223 17 -60 51 -174 76 -254 25 -80 53 -170 63 -200 11 -30 37
-102 58 -160 22 -58 47 -118 55 -135 9 -16 25 -73 36 -125 12 -52 32 -138 46
-190 14 -52 26 -110 26 -128 0 -18 15 -72 34 -120 20 -52 36 -116 40 -160 4
-44 22 -113 43 -170 19 -53 47 -131 60 -172 14 -41 40 -113 59 -160 18 -47 41
-114 49 -150 9 -36 32 -112 50 -170 19 -58 60 -179 93 -271 33 -91 65 -196 71
-235 7 -38 23 -109 36 -159 13 -49 29 -121 35 -160 6 -38 15 -113 20 -165 4
-52 17 -140 29 -195 11 -55 31 -181 42 -280 15 -125 24 -263 27 -450 3 -148 5
-304 6 -345 1 -41 -7 -176 -16 -300 -9 -124 -22 -304 -28 -400 -6 -96 -13
-227 -15 -290 -3 -78 -12 -146 -29 -210 -13 -52 -27 -120 -30 -150 -4 -30 -16
-95 -28 -145 -11 -49 -36 -125 -55 -168 -19 -42 -42 -114 -52 -160 -11 -45
-31 -111 -45 -147 -14 -36 -39 -90 -55 -120 -15 -30 -34 -72 -40 -92 -9 -28
-9 -47 -1 -79 7 -26 27 -58 50 -81 31 -31 45 -38 77 -38 26 0 54 10 84 29 24
15 65 47 90 69 26 23 56 62 68 87 12 26 28 92 36 148 8 56 19 120 24 142 6 22
17 96 26 165 8 69 27 175 41 235 14 61 30 144 34 185 5 41 14 118 21 170 6 52
16 172 21 265 5 94 11 226 13 295 1 74 11 171 24 240 19 102 21 136 15 305 -3
105 -12 232 -20 282 -8 51 -14 123 -14 160 0 38 -7 151 -15 253 -8 102 -22
223 -30 270 -8 47 -26 148 -40 225 -13 77 -25 160 -25 185 0 25 -9 91 -19 147
-11 56 -29 131 -40 167 -11 35 -25 101 -31 147 -6 45 -22 119 -36 163 -13 45
-29 95 -35 111 -6 17 -27 71 -46 120 -19 50 -43 119 -54 155 -10 36 -25 97
-34 135 -8 39 -38 118 -65 176 -28 58 -61 148 -74 200 -13 52 -37 132 -54 179
-16 47 -42 112 -57 145 -14 33 -31 96 -37 140 -6 44 -24 128 -40 186 -16 59
-46 160 -68 225 -21 66 -53 178 -70 249 -18 72 -37 141 -42 155 -5 14 -18 74
-29 134 -11 60 -36 150 -55 200 -20 50 -53 160 -75 245 -35 140 -39 170 -45
330 -6 151 -5 181 9 208 9 17 37 49 62 71 29 25 71 49 110 62 34 11 89 37 121
57 33 19 80 48 105 63 25 15 73 48 107 73 34 25 97 62 139 82 42 20 96 50 119
67 23 16 84 77 135 136 52 58 109 121 127 141 18 20 55 72 81 116 29 47 57
112 70 158 11 42 21 99 21 125 0 26 -9 67 -20 91 -12 25 -25 76 -30 115 -6 39
-22 95 -36 123 -14 29 -39 66 -55 83 -18 18 -55 37 -94 49 -35 11 -101 27
-146 36 -44 8 -102 14 -128 14z m152 -244 c75 -2 97 -7 153 -35 35 -17 72 -43
81 -56 11 -17 14 -36 10 -61 -4 -21 -27 -78 -51 -128 -39 -79 -60 -105 -169
-215 -68 -69 -151 -148 -184 -177 -33 -28 -78 -62 -99 -74 -21 -12 -57 -34
-79 -49 -22 -15 -71 -43 -110 -62 -38 -19 -102 -52 -141 -74 -69 -37 -73 -38
-113 -25 -29 8 -48 22 -61 44 -11 18 -20 50 -20 72 0 22 5 69 11 105 5 36 23
124 40 195 16 72 34 149 40 172 7 24 31 76 55 117 23 40 61 92 83 114 23 23
60 52 84 66 23 14 63 33 87 42 27 10 95 20 170 24 69 5 164 7 213 5z m-6313
-685 c10 0 28 -8 39 -17 12 -10 26 -38 32 -62 5 -24 7 -65 4 -90 -4 -25 -11
-62 -17 -80 -6 -19 -30 -64 -54 -100 -24 -37 -51 -76 -59 -88 -9 -12 -34 -28
-57 -35 -38 -11 -42 -11 -60 13 -17 20 -20 35 -15 92 3 48 12 82 32 120 16 28
38 86 50 127 18 61 28 79 55 98 18 12 41 22 50 22z m1895 -920 c18 0 46 -5 64
-11 18 -6 38 -24 46 -40 8 -15 15 -39 15 -52 0 -13 -10 -33 -22 -44 -13 -11
-33 -26 -45 -32 -12 -6 -37 -11 -56 -11 -19 0 -49 10 -68 23 -19 12 -35 33
-37 46 -2 13 2 36 9 52 6 16 23 39 37 49 13 11 39 20 57 20z"/>
<path d="M28288 8979 c-18 0 -43 -4 -55 -9 -12 -5 -37 -30 -56 -56 -19 -25
-48 -80 -66 -120 -18 -43 -34 -100 -37 -137 -3 -34 -12 -83 -19 -109 -8 -26
-17 -100 -20 -165 -7 -111 -6 -122 19 -186 14 -38 37 -108 50 -156 13 -48 32
-103 41 -122 10 -19 35 -57 56 -85 20 -28 58 -69 84 -92 26 -23 68 -56 94 -73
42 -28 52 -30 111 -27 48 4 89 15 159 46 51 22 119 58 150 80 31 22 79 51 106
64 28 14 66 30 85 37 20 6 65 35 100 64 36 28 101 87 144 130 44 43 98 91 121
107 23 16 50 45 59 64 9 19 16 55 16 80 0 39 -5 51 -38 86 -25 25 -48 40 -63
40 -14 0 -36 -8 -49 -17 -14 -9 -48 -38 -76 -64 -28 -26 -82 -67 -120 -92 -38
-24 -109 -76 -158 -115 -60 -47 -104 -74 -134 -82 -26 -6 -71 -27 -102 -45
-30 -19 -75 -39 -100 -44 -25 -6 -64 -11 -87 -11 -24 0 -61 7 -83 16 -26 10
-54 34 -76 62 -19 25 -42 70 -50 100 -12 40 -15 82 -12 156 3 77 10 113 27
153 13 28 32 60 43 70 15 14 36 18 89 18 50 0 73 4 85 16 9 10 18 37 21 61 3
24 0 62 -6 85 -7 24 -28 62 -49 86 -20 24 -55 69 -76 100 -22 30 -52 62 -67
71 -15 9 -42 16 -61 15z"/>
<path d="M26477 8470 c-8 0 -29 -16 -47 -37 -18 -20 -52 -66 -75 -104 -24 -37
-52 -84 -63 -105 -11 -22 -25 -62 -31 -91 -7 -28 -28 -75 -47 -105 -19 -29
-44 -78 -57 -108 -17 -42 -22 -75 -21 -140 0 -65 7 -105 28 -168 16 -50 39
-97 59 -119 17 -20 46 -42 64 -49 18 -8 55 -14 82 -14 27 0 78 9 114 20 36 11
91 32 123 46 32 14 79 33 104 41 25 8 88 44 141 78 53 35 123 88 155 117 32
30 81 69 108 88 27 18 84 50 126 71 66 32 87 49 136 110 58 71 59 73 63 146 2
53 -2 87 -14 118 -9 24 -32 58 -51 75 -20 17 -46 30 -61 30 -14 0 -41 -9 -59
-21 -18 -11 -42 -35 -54 -53 -11 -19 -43 -62 -71 -97 -28 -35 -72 -82 -97
-105 -26 -22 -74 -59 -107 -81 -33 -23 -76 -58 -95 -78 -19 -20 -78 -58 -132
-86 -53 -26 -117 -53 -142 -60 -25 -6 -57 -9 -70 -5 -14 3 -32 13 -40 22 -10
9 -16 33 -16 59 0 38 6 51 45 95 24 27 62 87 84 133 21 45 44 100 50 122 8 30
7 54 -3 97 -7 32 -24 73 -37 92 -13 19 -35 41 -50 50 -15 9 -34 16 -42 16z"/>
<path d="M19478 8040 c-12 0 -32 -6 -43 -12 -11 -6 -33 -22 -48 -37 -16 -14
-45 -57 -66 -96 -21 -38 -53 -119 -71 -178 -26 -87 -31 -117 -25 -155 4 -26
16 -67 26 -92 11 -25 30 -55 41 -67 12 -13 32 -23 44 -23 13 0 35 5 49 12 15
7 35 28 45 47 9 20 23 60 29 89 6 29 22 74 35 100 13 26 41 74 61 107 34 55
36 65 31 115 -3 30 -10 72 -16 92 -6 20 -23 50 -39 67 -17 18 -39 31 -53 31z"/>
</g>
</svg>
