<?xml version="1.0" encoding="UTF-8" ?>
<!DOCTYPE svg PUBLIC "-//W3C//DTD SVG 1.1//EN" "http://www.w3.org/Graphics/SVG/1.1/DTD/svg11.dtd">
<svg width="509pt" height="198pt" viewBox="0 0 509 198" version="1.1" xmlns="http://www.w3.org/2000/svg">
<g id="#ffffffff">
</g>
<g id="#000000ff">
<path fill="#000000" opacity="1.00" d=" M 173.82 10.61 C 184.32 9.53 194.96 9.94 205.34 11.78 C 211.40 12.63 215.44 19.14 214.69 25.02 C 214.84 29.62 215.05 34.26 214.54 38.85 C 213.69 44.23 208.84 47.67 205.59 51.60 C 192.11 64.58 181.92 80.49 168.74 93.74 C 160.81 100.22 151.75 105.12 142.63 109.70 C 146.58 111.88 150.83 113.43 154.93 115.29 C 152.51 123.23 146.25 128.88 141.11 135.05 C 139.90 136.16 140.65 137.79 140.94 139.13 C 142.20 143.33 143.68 147.47 145.02 151.65 C 154.27 154.77 162.23 148.96 170.65 146.48 C 171.53 148.07 172.42 149.67 173.33 151.25 C 168.32 156.62 163.79 164.19 155.63 164.57 C 144.24 165.06 134.63 158.42 125.89 152.03 C 123.64 150.67 121.54 147.60 122.93 144.97 C 126.73 137.49 132.91 131.72 137.61 124.87 C 128.99 127.57 120.33 130.40 111.35 131.65 C 104.87 131.75 98.32 131.03 92.03 129.42 C 79.11 147.77 63.05 164.41 43.39 175.47 C 35.34 180.05 27.56 186.38 17.95 186.94 C 11.74 187.15 6.05 180.22 9.07 174.11 C 9.98 169.07 15.70 167.68 19.93 166.33 C 26.91 164.59 32.53 159.57 39.51 157.81 C 45.45 156.04 52.06 155.00 57.04 151.07 C 60.93 145.88 63.44 139.73 67.77 134.82 C 80.83 119.58 86.61 99.74 99.15 84.16 C 101.11 81.53 102.87 78.77 104.68 76.04 C 99.81 73.59 94.84 70.41 89.07 71.35 C 83.64 71.61 77.65 76.09 72.72 72.30 C 68.91 69.71 72.27 64.07 75.72 62.89 C 86.69 59.38 97.78 56.08 109.12 54.01 C 113.09 53.19 117.09 54.17 121.04 54.67 C 121.15 51.73 120.26 48.04 122.81 45.88 C 131.43 38.79 141.63 33.57 148.81 24.81 C 156.30 18.91 163.71 11.19 173.82 10.61 M 170.44 30.49 C 168.43 32.84 167.74 35.97 166.36 38.68 C 163.24 44.85 157.59 49.02 152.52 53.47 C 146.56 58.28 140.75 63.41 133.89 66.91 C 123.58 72.34 117.67 82.91 111.26 92.16 C 106.17 103.03 97.49 112.12 94.47 123.95 C 115.10 115.42 137.34 108.52 154.12 93.17 C 159.12 88.90 165.52 85.87 168.97 80.04 C 174.75 70.03 185.81 64.63 191.79 54.74 C 197.86 47.01 201.91 37.23 199.88 27.28 C 190.11 24.15 179.13 24.95 170.44 30.49 Z" />
<path fill="#000000" opacity="1.00" d=" M 301.87 35.88 C 312.86 32.87 323.18 27.73 334.38 25.46 C 334.87 27.83 335.65 30.21 335.50 32.66 C 332.16 36.88 328.21 40.63 323.82 43.73 C 314.64 49.72 307.36 58.11 298.28 64.25 C 282.81 75.00 267.12 85.51 250.62 94.63 C 243.91 98.69 238.71 105.08 235.85 112.36 C 245.23 112.94 254.70 112.68 264.03 114.04 C 268.72 114.81 272.28 118.27 275.98 120.97 C 290.22 115.43 305.92 119.05 320.40 121.66 C 325.29 122.43 326.49 127.78 328.45 131.50 C 334.69 131.19 340.23 128.32 346.00 126.33 C 354.02 124.47 362.12 122.95 370.20 121.37 C 373.87 120.33 376.15 124.42 378.75 126.21 C 382.59 130.83 380.07 137.12 381.47 142.41 C 382.26 146.47 387.54 145.49 390.69 146.85 C 398.52 149.47 406.64 151.63 414.97 151.49 C 420.00 151.18 424.88 149.56 429.93 149.46 C 434.21 149.55 437.28 152.90 439.89 155.89 C 437.01 158.97 434.13 162.63 429.82 163.64 C 426.15 163.84 422.49 163.85 418.84 163.68 C 412.25 163.62 406.63 159.21 399.97 159.44 C 386.61 158.84 373.53 156.02 360.29 154.49 C 355.94 149.64 359.38 141.92 354.79 137.21 C 351.83 134.08 347.05 135.40 343.35 136.31 C 337.67 138.21 331.65 139.98 327.16 144.16 C 323.68 147.38 320.22 150.60 316.70 153.77 C 313.53 156.63 312.13 161.16 308.34 163.34 C 302.61 165.57 295.25 161.45 295.01 155.12 C 297.68 150.33 302.49 147.16 305.65 142.72 C 307.70 139.10 307.68 134.79 308.43 130.80 C 303.22 129.71 297.78 128.89 292.51 129.71 C 285.94 132.66 280.16 137.47 272.90 138.80 C 269.93 138.60 267.69 136.31 265.40 134.65 C 266.73 133.04 268.08 131.44 269.38 129.80 C 263.92 130.62 256.84 130.36 253.18 135.35 C 252.10 140.24 254.45 144.63 256.84 148.61 C 261.33 148.14 265.73 147.13 270.14 146.23 C 273.07 145.53 275.49 147.95 277.96 149.08 C 276.19 151.91 274.22 154.97 270.73 155.80 C 262.56 158.45 253.73 160.68 245.15 158.80 C 241.18 157.01 238.32 152.45 239.03 148.00 C 239.57 136.27 248.79 128.12 255.69 119.62 C 246.63 119.69 237.56 121.61 229.38 125.58 C 222.27 132.31 219.41 142.02 213.62 149.68 C 209.93 154.50 203.92 154.76 198.47 155.42 C 198.72 152.08 198.65 148.64 199.61 145.42 C 202.42 139.89 206.59 135.19 209.69 129.83 C 212.43 125.42 213.09 120.21 214.74 115.38 C 215.69 111.97 219.29 110.59 221.81 108.55 C 221.14 106.79 220.46 105.03 219.81 103.26 C 225.77 100.34 231.69 97.15 236.78 92.87 C 243.29 84.15 249.67 75.01 258.66 68.63 C 263.84 64.85 268.32 60.21 273.61 56.57 C 282.90 49.55 290.99 40.50 301.87 35.88 Z" />
<path fill="#000000" opacity="1.00" d=" M 166.01 109.96 C 166.68 106.64 170.39 104.09 173.67 105.28 C 177.67 107.85 178.84 113.68 176.85 117.86 C 174.60 122.38 171.64 126.52 168.54 130.49 C 164.69 136.89 156.43 137.24 150.07 139.32 C 148.98 131.78 157.94 130.33 161.83 125.87 C 164.28 120.91 163.64 115.00 166.01 109.96 Z" />
<path fill="#000000" opacity="1.00" d=" M 469.56 154.87 C 478.73 156.10 487.71 158.46 496.63 160.91 C 495.78 165.85 495.40 171.26 492.50 175.54 C 488.52 178.41 483.57 180.34 478.58 179.54 C 475.23 179.62 469.99 178.32 469.69 174.17 C 468.73 169.79 470.37 165.56 472.46 161.83 C 471.45 159.53 470.46 157.21 469.56 154.87 Z" />
</g>
</svg>
