<?xml version="1.0" encoding="UTF-8" standalone="no"?>
<svg xmlns="http://www.w3.org/2000/svg" version="1.1" width="137" height="37">
<path d="m 78.933623,27.423494 c 0,0 -8.081318,3.222587 -0.580395,-2.611774 4.460855,-3.469737 9.141211,-5.07845 9.141211,-5.07845 C 88.187971,19.594564 69.55182,36.032428 67.906132,36.274507 67.180639,36.129408 78.20813,27.713691 81.690496,27.278396 85.172861,26.8431 105.05137,9.7214686 105.05137,9.7214686 c 0,0 -26.698141,19.7334054 -22.490283,19.4432084 4.207859,-0.290197 13.639266,-7.690224 13.639266,-7.690224 0,0 -10.737294,7.254928 -6.239239,6.964731 4.498056,-0.290197 11.898086,-6.09414 11.898086,-6.09414 0,0 -12.768677,7.400027 -7.109833,7.254929 5.658843,-0.145099 10.011803,-2.466676 24.956953,-14.945153 -7.25493,6.529436 -17.41183,15.815744 -17.41183,15.815744 0,0 15.23535,-11.027491 13.20397,-8.12552 -2.03138,2.901972 -11.02749,10.737295 -5.36864,11.898083 5.65884,1.160789 13.80571,-6.214927 14.80005,-7.10983 1.45099,-1.305887 1.01569,-3.192168 -2.75687,-2.611774 m -55.862953,3.772563 c 9.740115,-9.24005 17.985208,-11.476514 2.611774,2.466675 M 76.466947,14.65482 c 0,0 9.721604,-3.917661 7.835323,-5.5137457 -1.886281,-1.5960843 -5.223548,0.8705917 -11.027491,4.7882537 -5.803943,3.917661 -11.607886,8.415716 -6.964732,7.109829 4.643154,-1.305887 5.368647,-1.741183 5.368647,-1.741183 0,0 -19.443208,11.317689 -16.396138,12.478477 3.04707,1.160789 7.980421,-2.321577 7.980421,-2.321577 M 54.557063,9.4312714 54.411964,10.737159 m -0.145098,-1.160789 0,0 z M 50.059007,6.3842014 24.521659,29.599973 c 0,0 6.964731,-6.09414 10.447097,-7.980422 3.482365,-1.886281 5.513745,-4.06276 -0.290197,1.886282 -5.803943,5.949041 -6.09414,6.09414 -3.482366,6.239238 2.611774,0.145099 13.784364,-9.866702 13.784364,-9.866702 0,0 -12.043181,8.851012 -8.270618,9.14121 3.772562,0.290197 17.26673,-6.964732 22.635377,-11.898083 C 64.713963,12.188144 68.05123,5.51361 58.184527,14.364623 48.317824,23.215636 45.125656,26.407804 43.094276,28.87448 42.510897,29.582868 42.65898,30.615663 42.65898,30.615663 M 8.5608157,18.71758 C 18.273168,17.669095 27.670909,12.216046 37.000136,5.8038071 L 5.8039429,35.113719 c 0,0 16.8314341,-16.25104 22.9255741,-20.749096 C 34.823657,9.8665671 47.447233,1.0155543 43.239374,7.8351871 39.031516,14.65482 30.035405,20.168566 26.117743,21.909749 c -1.875144,0.833397 -4.352957,0.435295 -4.352957,-0.435296 0,-0.870592 0.145098,-1.01569 0.145098,-1.01569"
style="fill:none;stroke:#000;stroke-width:1px;stroke-linecap:round;stroke-linejoin:round" />
</svg>
