<?xml version="1.0" encoding="UTF-8" standalone="no"?>
<!-- Created with Inkscape (http://www.inkscape.org/) -->

<svg
   xmlns:svg="http://www.w3.org/2000/svg"
   xmlns="http://www.w3.org/2000/svg"
   version="1.1"
   width="410"
   height="317.64999"
   id="svg2816">
  <defs
     id="defs2820" />
  <path
     d="m 260.93661,312.4328 c -7.52435,-1.0074 -17.85566,-5.15884 -27.34976,-10.98999 -15.81274,-9.71197 -17.11643,-10.729 -27.06353,-21.11255 -10.52749,-10.98942 -19.89924,-26.02785 -25.17744,-40.40115 -0.68147,-1.85575 -1.4476,-3.67776 -1.7025,-4.04891 -0.2549,-0.37115 -1.1773,-3.40784 -2.04977,-6.74819 -1.34744,-5.15883 -1.5904,-7.75003 -1.6135,-17.20788 -0.0356,-14.59342 0.45338,-16.30419 7.90866,-27.66758 1.33927,-2.04132 4.30474,-5.68534 6.58993,-8.09782 2.28518,-2.41248 4.60781,-5.05463 5.16138,-5.87145 1.22474,-1.80713 13.75979,-11.52402 22.99513,-17.8253 2.31969,-1.58272 4.21762,-3.21864 4.21762,-3.63536 0,-0.41673 -0.83509,-2.40878 -1.85576,-4.42679 -1.75257,-3.46509 -1.85277,-4.15685 -1.80228,-12.44174 0.0512,-8.39456 0.19495,-9.26705 3.33582,-20.24456 2.53068,-8.84485 4.27456,-13.403587 7.61516,-19.907156 8.8581,-17.24515 12.63179,-22.5578 19.93538,-28.06527 3.21045,-2.42092 4.47661,-2.97639 6.78452,-2.97639 2.33732,0 3.22684,0.40176 5.04674,2.27942 3.54645,3.65901 4.29437,9.22916 2.33128,17.36247 -0.85107,3.52614 -1.40506,4.65158 -2.28967,4.65158 -1.72956,0 -1.92065,-1.19294 -1.21691,-7.59732 0.51673,-4.70254 0.44672,-6.26232 -0.36868,-8.21383 -0.84361,-2.01906 -1.34123,-2.40895 -3.07456,-2.40895 -3.67653,0 -7.96922,3.34226 -12.16896,9.47465 -1.40823,2.05627 -3.06258,4.15544 -3.67632,4.6648 -1.75791,1.45894 -10.81845,20.713286 -13.05605,27.745106 -3.07495,9.66329 -3.74418,13.69505 -3.80078,22.89804 -0.0423,6.87544 0.16969,8.84079 1.14638,10.6284 0.65904,1.20624 1.57004,2.18473 2.02445,2.17442 1.17153,-0.0266 4.15164,-3.26981 5.56342,-6.05463 4.05219,-7.99317 10.67619,-15.52083 13.65764,-15.52083 1.36096,0 3.73789,2.26438 4.42724,4.21762 0.80826,2.29015 1.80878,1.14208 1.80878,-2.07554 0,-3.72314 1.23446,-5.23079 5.73596,-7.00536 4.23306,-1.66875 16.75881,-3.24865 25.69746,-3.24127 7.32931,0.006 8.48542,0.17544 11.45375,1.6782 2.00024,1.01265 3.54533,1.42773 3.91998,1.05308 0.34013,-0.34012 0.72113,-8.00074 0.84668,-17.02361 0.28547,-20.513966 1.29682,-39.455076 2.23901,-41.933236 0.39522,-1.03949 0.71858,-2.76694 0.71858,-3.83876 0,-2.3976 1.21425,-5.19002 2.46562,-5.67022 0.5509,-0.2114 2.54462,1.29384 4.86677,3.67438 2.16347,2.21786 4.2778,4.03247 4.69852,4.03247 0.932,0 1.13358,-0.87748 2.55794,-11.13451 1.87301,-13.48797 1.86766,-13.46396 3.04863,-13.69097 0.66524,-0.12788 1.63746,0.67365 2.44486,2.0156 1.56299,2.59782 1.89166,6.52887 3.00733,35.96885 0.99225,26.183009 0.98031,33.258846 -0.0763,45.212856 -0.49208,5.56726 -1.0399,15.91902 -1.21736,23.00392 -0.36201,14.45222 -0.32218,14.59435 4.32009,15.4126 3.65083,0.6435 15.22343,4.26145 20.7838,6.49765 2.59805,1.04486 5.4829,2.10725 6.41078,2.36087 1.74179,0.4761 4.92999,2.3116 11.00209,6.3341 1.92858,1.27761 5.30804,3.34221 7.50991,4.58802 5.28374,2.98952 8.07219,5.29068 15.91264,13.13186 7.72629,7.72699 10.76202,13.10855 12.43231,22.03924 1.3256,7.08768 1.33387,12.54798 0.0312,20.64296 -1.84676,11.47652 -4.25563,19.7654 -7.36385,25.33887 -0.51746,0.92788 -1.28611,2.44622 -1.7081,3.3741 -2.06852,4.54819 -5.01701,8.68401 -10.07433,14.13115 -4.70593,5.06866 -6.47949,6.45109 -11.69883,9.11881 -5.79487,2.96189 -6.49066,3.152 -11.98591,3.27491 -5.27755,0.11803 -6.08706,-0.0375 -8.48835,-1.6303 -6.88106,-4.56442 -9.3284,-7.57095 -14.32839,-17.60226 -5.07331,-10.17842 -7.41308,-16.88177 -10.90708,-31.24838 -1.17344,-4.82495 -2.5704,-10.44282 -3.10436,-12.48415 -2.01004,-7.68444 -4.2819,-35.79026 -4.31898,-53.43119 -0.0278,-13.25265 -0.2726,-14.05069 -4.30943,-14.05069 -1.18994,0 -2.85251,-0.48259 -3.6946,-1.07242 -3.4113,-2.38937 -3.49555,-1.91619 -3.46084,19.44005 0.0177,10.8678 0.42258,25.68117 0.89979,32.9186 0.47723,7.23743 0.63695,14.18862 0.35495,15.44708 -0.59678,2.66319 -2.14733,4.45542 -3.42769,3.96195 -1.10733,-0.42679 -4.27709,-16.25599 -5.23791,-26.15722 -1.0702,-11.0284 -2.23257,-40.21855 -1.74322,-43.77658 0.35976,-2.61578 0.19547,-3.49999 -0.90085,-4.84833 -1.14439,-1.40747 -1.20553,-1.7996 -0.41729,-2.67629 0.50796,-0.56495 1.13287,-3.07022 1.3887,-5.56725 0.53096,-5.18249 -0.26307,-5.88355 -3.14641,-2.77803 -0.89978,0.96911 -3.30614,3.05361 -5.34747,4.63222 -4.09062,3.16336 -12.1025,5.98551 -19.23234,6.77448 -5.00537,0.5539 -9.11005,1.56252 -9.11005,2.23858 0,0.2801 0.73563,3.07733 1.63473,6.21606 0.8991,3.13873 2.29261,8.89531 3.09669,12.79239 0.80406,3.89708 2.0176,9.21127 2.69673,11.80933 0.67913,2.59805 1.43973,6.24207 1.6902,8.09782 0.25048,1.85575 0.69066,3.67777 0.97817,4.04892 0.50348,0.64993 1.56541,6.14581 2.41224,12.48414 0.22313,1.67018 0.80334,4.4032 1.28935,6.07337 0.486,1.67018 1.24604,5.16237 1.68895,7.76042 0.44293,2.59805 1.07448,6.24207 1.40346,8.09783 0.32898,1.85575 0.94585,5.80344 1.37084,8.77264 0.42499,2.9692 1.18149,6.61323 1.68112,8.09783 0.49964,1.4846 1.21029,4.82495 1.57922,7.42301 0.36894,2.59805 1.03574,7.2735 1.48177,10.38989 0.9057,6.32812 0.49875,19.77027 -0.77844,25.71291 -0.93551,4.35284 -5.50053,14.35284 -7.80344,17.09397 -3.46549,4.12494 -9.46165,6.03147 -16.15212,5.13572 z m 8.92261,-7.50912 c 5.07965,-2.5369 8.07773,-8.11437 10.11473,-18.81685 1.44749,-7.60517 0.76078,-20.72523 -1.81651,-34.7058 -0.34211,-1.85575 -1.26242,-7.77729 -2.04514,-13.15897 -0.78271,-5.38168 -2.11373,-12.21422 -2.95783,-15.18342 -1.7365,-6.10837 -2.21305,-8.36002 -5.07017,-23.95607 -2.78104,-15.18075 -4.01274,-20.72048 -5.40141,-24.29348 -0.64912,-1.67018 -2.15089,-7.28804 -3.33726,-12.48415 -2.35951,-10.33423 -6.44187,-21.64949 -8.03076,-22.2592 -0.56483,-0.21675 -3.75362,1.25236 -7.25969,3.34462 -3.43883,2.05214 -6.50453,3.73116 -6.81266,3.73116 -0.30812,0 -2.05513,1.06284 -3.88224,2.36186 -1.8271,1.29903 -3.5953,2.36187 -3.92931,2.36187 -0.334,0 -2.38317,1.36651 -4.55369,3.03668 -2.17052,1.67018 -4.22666,3.03669 -4.56922,3.03669 -0.34255,0 -1.35254,0.64773 -2.24442,1.4394 -0.89188,0.79167 -3.29177,2.51564 -5.3331,3.83104 -9.11085,5.87089 -28.34239,24.57448 -28.34239,27.56432 0,0.45523 -1.18252,3.35062 -2.62781,6.43419 -2.29507,4.89657 -2.67632,6.41827 -3.01085,12.01728 -0.38868,6.50501 0.17674,12.85927 1.47114,16.53306 0.3923,1.11345 1.966,5.97215 3.49709,10.79711 1.5311,4.82495 3.64993,10.29098 4.70853,12.14673 1.05859,1.85576 3.02219,5.34794 4.36355,7.76042 2.71787,4.88817 3.81642,6.41392 11.34942,15.76282 2.88334,3.57841 5.55862,6.5062 5.94505,6.5062 0.38643,0 2.27869,1.46175 4.20501,3.24832 5.26291,4.88111 14.7559,11.94672 17.19194,12.79593 1.18409,0.41278 3.44704,1.6229 5.02878,2.68915 5.06088,3.41157 15.07555,7.39636 20.97736,8.34682 2.27336,0.36612 4.29291,0.82658 4.48788,1.02325 0.6482,0.65386 4.72886,-0.33525 7.88398,-1.91098 z m 98.9714,-27.98093 c 5.64106,-2.64164 8.0018,-4.39328 13.49017,-10.0096 6.43987,-6.58999 8.87664,-9.98684 11.62779,-16.20913 0.98408,-2.2257 2.085,-4.22985 2.44646,-4.45368 1.55252,-0.96133 4.68331,-15.84072 5.23897,-24.89875 0.55018,-8.9686 0.5278,-9.20821 -1.44186,-15.43161 -3.32085,-10.49271 -10.89972,-18.91766 -24.47255,-27.20458 -6.39534,-3.90468 -17.33249,-10.164 -19.92746,-11.40446 -7.40823,-3.5413 -10.00083,-4.66859 -10.73712,-4.66859 -0.73756,0 -4.00835,-1.23689 -9.84486,-3.72298 -1.11345,-0.47428 -3.59516,-1.07056 -5.51492,-1.32507 -3.23914,-0.42943 -3.5715,-0.33908 -4.61583,1.25477 -0.90009,1.37371 -0.9869,2.16166 -0.43365,3.93633 0.66022,2.1178 1.14733,12.86848 0.94137,20.77634 -0.0532,2.04132 0.20667,5.53351 0.57742,7.76041 0.37074,2.2269 1.10639,8.30027 1.63477,13.49638 1.75644,17.27299 3.76472,26.41655 9.33765,42.51359 3.89193,11.24163 4.70377,12.97823 9.30632,19.90715 4.50703,6.78516 6.92227,9.21407 10.4537,10.5129 3.01974,1.11063 8.62232,0.72124 11.93363,-0.82942 z M 320.03944,136.28959 c 0.19256,-7.94958 0.0963,-14.75745 -0.21382,-15.1286 -0.352,-0.4212 -1.26041,0.10036 -2.41707,1.38773 -1.01921,1.13441 -2.95606,2.90382 -4.30411,3.93202 -1.9919,1.51929 -2.57478,2.52336 -3.11191,5.36046 -1.21252,6.40457 -1.50778,14.94654 -0.56138,16.24081 0.77454,1.05925 7.86665,3.12574 9.58336,2.7924 0.41161,-0.0799 0.81138,-5.76877 1.02493,-14.58482 z m -45.10122,6.72589 c 0.62511,-0.32873 1.80792,-0.59769 2.62847,-0.59769 2.36359,0 11.41838,-4.62494 11.41838,-5.83221 0,-0.86443 -0.52414,-0.9763 -2.86798,-0.6121 -6.51226,1.01191 -11.94831,1.1312 -17.8274,0.39119 -6.95889,-0.87592 -8.69676,-0.43784 -9.40144,2.36985 -0.92334,3.67886 3.34521,5.89672 10.18967,5.29437 2.59805,-0.22864 5.23519,-0.68468 5.8603,-1.01341 z m -29.75214,-7.53832 c 2.56691,-1.72983 3.29484,-3.64565 1.62821,-4.28519 -0.7228,-0.27737 -1.91029,0.35435 -3.42397,1.82146 -3.8603,3.74156 -2.62181,5.44073 1.79576,2.46373 z m 42.27097,-5.28945 c 1.76829,-0.41699 4.73341,-1.25571 6.58916,-1.86383 3.01197,-0.98701 3.3741,-1.31427 3.3741,-3.04923 0,-2.49896 -2.34492,-4.23024 -6.52756,-4.81938 -3.1102,-0.43808 -3.17654,-0.40765 -4.83393,2.21782 -1.01824,1.61301 -2.56775,2.99037 -3.93212,3.49529 -5.0117,1.85469 -8.03491,3.48025 -7.64521,4.11081 0.55886,0.90423 9.0056,0.84469 12.97556,-0.0915 z m -22.73564,-4.8091 c 3.3139,-1.89225 3.56282,-3.33728 0.4763,-2.76502 -3.27511,0.60724 -6.57949,2.28869 -6.57949,3.34802 0,1.42851 3.09885,1.13249 6.10319,-0.583 z m 52.08244,-10.12228 c 3.54434,-4.34731 3.90129,-5.36012 4.39762,-12.47778 0.88737,-12.725296 -0.11567,-27.108456 -1.9704,-28.254746 -1.07025,-0.66145 -1.66312,0.76797 -2.51103,6.05413 -0.42502,2.64971 -1.08981,6.63967 -1.4773,8.86658 -0.38749,2.2269 -0.99569,6.326419 -1.35155,9.110049 -0.35586,2.783627 -0.94295,6.749597 -1.30465,8.813267 -0.75734,4.32107 -0.86476,9.64959 -0.20775,10.3066 0.98282,0.98282 2.19026,0.32301 4.42506,-2.4181 z m -7.95511,-10.29099 c 3.32167,-21.771726 5.29803,-33.492576 6.15632,-36.510336 0.28857,-1.01464 -0.40631,-2.50302 -2.43521,-5.21602 -1.56146,-2.08794 -3.06196,-3.65847 -3.33446,-3.49006 -1.61012,0.99511 -2.17335,7.74168 -2.62485,31.44107 -0.26454,13.885996 -0.31914,25.550936 -0.12133,25.922086 0.36541,0.6856 0.53461,-0.18547 2.35953,-12.14674 z m -134.98276,55.8094 c -3.99536,-1.66233 -7.0217,-4.18458 -10.40535,-8.67214 -1.63761,-2.17187 -3.67043,-4.55619 -4.51739,-5.29849 -2.83963,-2.48876 -9.83894,-19.32177 -12.0211,-28.9102 -0.49341,-2.16805 -1.05159,-4.09639 -1.2404,-4.28519 -0.7804,-0.7804 -1.68467,0.68556 -3.088,5.00613 -0.8165,2.51383 -2.14742,5.83729 -2.95761,7.38546 -7.07375,13.5171 -8.99444,16.11938 -12.61744,17.09495 -5.57486,1.50115 -10.43924,-1.97556 -15.39322,-11.00197 -3.03197,-5.52439 -4.43217,-6.36277 -5.57924,-3.34059 -0.3874,1.02067 -1.51863,3.14581 -2.51386,4.72253 -1.5,2.37641 -2.17106,2.86698 -3.923225,2.86798 -1.74741,6.7e-4 -2.79774,-0.7589 -6.06105,-4.38512 -2.17104,-2.41247 -4.1168,-4.38632 -4.32391,-4.38632 -0.20712,0 -1.52614,2.71483 -2.93117,6.03296 -3.06929,7.24843 -4.12062,8.3886 -5.81063,6.30152 -1.71481,-2.11769 -5.23995,-13.831 -6.04759,-20.0949 -0.38284,-2.9692 -0.85822,-13.74943 -1.05638,-23.956057 -0.19817,-10.206639 -0.66855,-25.194699 -1.04528,-33.306819 -0.376742,-8.11211 -0.502501,-15.32423 -0.279467,-16.02694 0.608297,-1.91658 2.835857,-1.5548 3.973607,0.64535 1.0802,2.08889 2.03024,17.74742 2.74932,45.31431 0.38724,14.845146 1.38545,30.541296 2.13507,33.572236 0.44377,1.7943 1.57238,2.03325 1.59366,0.33741 0.02,-1.59232 2.5529,-7.08982 3.56214,-7.73137 2.29462,-1.45864 5.24777,0.73993 9.05866,6.744 2.13016,3.35605 4.49494,4.31969 5.935835,2.41882 0.52646,-0.69451 1.98096,-3.69209 3.23224,-6.6613 2.90742,-6.89912 4.32258,-7.40101 6.84314,-2.42691 0.94601,1.86685 1.72298,3.78395 1.72661,4.26023 0.0251,3.30098 5.7954,11.39911 9.55671,13.4121 1.6793,0.89874 4.15638,-0.27475 7.0372,-3.33378 3.01077,-3.19702 10.29775,-19.50844 12.47522,-27.92491 1.55014,-5.991727 1.55127,-5.152757 -0.0416,-30.886636 -0.72386,-11.69417 -0.91512,-39.79646 -0.28207,-41.44616 0.78742,-2.052 3.41484,-1.21387 5.62775,1.79521 2.90759,3.95371 4.03716,8.18452 4.88382,18.2922 0.59928,7.15442 0.5258,10.7536 -0.4202,20.58196 -0.63057,6.55122 -1.45636,13.78597 -1.8351,16.07723 -1.54349,9.337889 3.043,35.801886 7.71615,44.522016 5.16095,9.63037 7.01128,12.01756 14.74066,19.01742 2.45734,2.22541 4.10108,3.05843 7.76042,3.93281 5.45439,1.30331 5.93905,1.61728 4.81394,3.11851 -1.27458,1.70067 -7.58371,2.05669 -11.03082,0.62246 z M 148.82862,71.174804 c 0.32069,-1.45733 0.43392,-6.7492 0.25162,-11.75973 -0.32177,-8.84364 -1.30152,-13.88851 -2.54768,-13.11834 -1.27898,0.79045 -0.29816,28.19812 0.99369,27.7675 0.39561,-0.13186 0.98168,-1.43211 1.30237,-2.88943 z M 20.945438,140.56203 c -2.014146,-2.33066 -4.615194,-16.61238 -5.622719,-30.87296 -0.60733,-8.59624 -0.930258,-9.24329 -4.340894,-8.69791 -2.2319365,0.3569 -2.8856745,0.15974 -4.3605245,-1.315107 -2.845225,-2.84523 -2.018862,-4.32094 3.060209,-5.464849 l 3.6062125,-0.81218 -0.196501,-21.54701 c -0.168198,-18.4436 0.0014,-23.11863 1.175076,-32.45896 3.079691,-24.50133 6.108291,-32.5150796 12.861723,-34.0324796 3.501405,-0.7867103 4.506042,-0.5014503 10.314012,2.92865 7.502016,4.4305596 13.015631,10.4339596 17.872573,19.4601996 6.658349,12.37403 9.592522,23.62197 9.616013,36.86228 0.01687,9.52775 -0.731315,13.74404 -3.244745,18.28465 -2.733678,4.93851 -4.224818,6.5277 -8.263771,8.80714 -4.684384,2.64371 -18.125042,6.176249 -23.499441,6.176249 -2.229386,0 -4.826892,0.35241 -5.772232,0.78314 -1.617028,0.73677 -1.718797,1.07956 -1.718797,5.789647 0,2.75358 0.288114,7.79128 0.640254,11.1949 2.146248,20.74445 2.195591,21.84955 1.072578,24.02122 -1.233158,2.38466 -1.778634,2.53699 -3.199026,0.89338 z m 9.58402,-48.757366 c 10.083042,-1.53175 17.761847,-4.25454 23.045848,-8.17173 4.810028,-3.56582 5.203825,-4.25385 6.666927,-11.64797 1.529099,-7.72767 -1.389317,-28.16068 -4.626916,-32.39496 -0.318312,-0.4163 -1.051219,-1.97593 -1.628695,-3.46586 -1.962144,-5.06247 -7.590722,-13.4736 -11.630977,-17.38088 -4.384271,-4.23998 -9.633411,-7.24033 -12.667011,-7.24033 -1.567605,0 -5.907365,1.62548 -5.907365,2.21264 0,0.0844 -0.613208,2.27823 -1.362688,4.8751 -1.974932,6.84294 -3.319738,17.35772 -3.797233,29.68989 -0.406187,10.49066 -0.373188,10.87252 1.162868,13.45465 1.478677,2.48565 1.595501,3.46771 1.806247,15.18342 0.123931,6.88923 0.369673,13.20913 0.546104,14.04422 0.370671,1.75449 1.583901,1.87618 8.392891,0.84181 z m 78.409282,-16.39265 c -1.62827,-1.73321 -3.50439,-5.90627 -3.50439,-7.79482 0,-1.93286 1.65421,-3.04921 3.25156,-2.19432 1.65435,0.88537 2.09171,2.038 2.59293,6.83345 0.4596,4.39722 -0.26092,5.36887 -2.3401,3.15569 z"
     id="path2838"
     style="fill:#000000" />
</svg>
