<?xml version="1.0" encoding="UTF-8"?>
<svg version="1.0" xmlns="http://www.w3.org/2000/svg" width="569" height="297" >
<path d="M96.017,83.627c-1.437-3.748-3.963-8.291-7.856-9.893c-6.93-2.853-11.877,5.392-14.503,10.45 c-3.919,7.549-7.467,15.303-11.042,23.019c-12.708,27.428-24.761,55.189-35.858,83.309c-5.558,14.084-10.864,28.286-15.451,42.72 c-3.198,10.063-6.389,20.486-7.297,31.059c-0.378,4.399-0.422,11.687,5.334,12.392c6.774,0.829,14.047-7.742,17.875-12.126 c8.799-10.075,15.723-21.827,22.218-33.463c8.549-15.314,16.135-31.166,23.355-47.142c14.664-32.448,27.716-65.673,39.478-99.277 c4.113-11.751,8.097-23.57,11.503-35.548c1.298-4.565,6.288-18.505,1.34-21.856c-4.062-2.75-11.897,12.458-13.13,14.348 c-5.011,7.684-10.319,15.118-15.749,22.505c-8.757,11.915-17.22,24.054-25.075,36.585c-8.07,12.874-16.056,26.443-20.559,41.044 c-2.447,7.934-4.29,19.778,4.958,24.048c5.633,2.603,12.356,1.327,18.191,0.309c10.736-1.874,21.286-4.851,31.359-9.016 c5.037-2.082,9.767-4.887,14.816-6.908c3.205-1.284,1.452,3.888,1.176,5.9c-1.237,9.042-3.194,17.222-7.315,25.444 c-3.979,7.938-9.101,15.262-14.289,22.443c-1.149,1.59-6.857,7.425-5.201,9.81c2.125,3.059,10.31-4.305,11.792-5.346 c5.445-3.828,11.31-9.509,17.874-11.461c2.67-0.794,0.914,3.145,0.344,4.774c-3.547,10.136-9.57,19.451-14.17,29.127 c-2.174,4.573-10.716,22.463,1.571,19.805c1.765-0.381,1.016-3.08-0.744-2.699c-7.692,1.663,1.587-15.715,2.753-18.104 c4.542-9.312,10.276-18.361,13.578-28.223c0.708-2.115,1.652-5.421-0.464-7.052c-2.34-1.805-6.257,0.657-8.287,1.813 c-7.301,4.157-13.637,9.856-20.794,14.26c-0.523,0.322-1.374,0.996-2.002,1.068c1.934-0.224,0.661,1.935,1.297,0.704 c0.188-0.364,0.415-0.709,0.633-1.056c1.61-2.56,3.489-4.965,5.255-7.416c5.312-7.371,10.336-14.954,14.312-23.141 c3.742-7.708,5.372-15.592,6.559-24.006c0.339-2.405,1.677-7.246-0.52-9.211c-2.073-1.854-5.764,0.555-7.688,1.502 c-6.648,3.272-13.315,6.308-20.345,8.691c-9.969,3.38-21.202,6.611-31.789,6.678c-13.477,0.085-13.102-12.053-10.158-21.994 c4.443-15.006,13.071-28.947,21.354-42.089c7.752-12.3,16.139-24.195,24.755-35.901c5.797-7.876,11.34-15.884,16.688-24.077 c1.873-2.868,4.697-9.209,8.055-10.617c-0.501,0.21-0.093,3.452-0.138,4.811c-0.029,0.867-0.09,1.721-0.224,2.576 c-1.309,8.385-4.262,16.664-6.83,24.719c-10.039,31.491-21.886,62.465-34.597,92.964c-13.283,31.871-27.431,64.189-46.375,93.174 c-5.686,8.698-12.276,18.563-21.361,24.066c-5.694,3.449-7.98,0.786-7.944-5.26c0.061-10.052,3.471-20.341,6.377-29.851 c4.355-14.253,9.57-28.246,14.976-42.129c10.45-26.841,21.913-53.297,33.881-79.493c3.897-8.53,7.846-17.04,11.98-25.457 c2.121-4.317,4.187-8.82,7.657-12.231c5.16-5.074,10.044,2.185,11.763,6.667C93.957,86.04,96.665,85.316,96.017,83.627 L96.017,83.627z"/>
<path d="M69.458,249.292c-1.359,2.143-1.7,4.88-1.225,7.329c1.305,6.717,9.741,9.387,15.395,10.728 c1.756,0.417,2.501-2.283,0.744-2.699c-5.712-1.355-17.575-5.94-12.496-13.943C72.846,249.176,70.422,247.773,69.458,249.292 L69.458,249.292z"/>
<path d="M141.657,240.343c-2.252-2.338-6.219-1.32-8.758-0.219c-4.454,1.933-8.146,5.759-11.357,9.268 c-6.772,7.4-12.245,16.016-17.417,24.567c-0.937,1.55,1.485,2.956,2.418,1.414c6.75-11.164,14.488-24.892,26.006-31.908 c1.952-1.188,5.853-2.466,7.129-1.142C140.932,243.625,142.909,241.644,141.657,240.343L141.657,240.343z"/>
<path d="M251.677,6.323c7.158,6.8,9.874,18.521,10.815,27.864c1.848,18.346-3.334,36.796-10.591,53.492 c-11.75,27.029-26.802,52.961-42.979,77.556c-6.796,10.332-13.896,20.707-22.358,29.766c-1.623,1.737-10.177,11.326-12.054,5.702 c-1.276-3.824-0.387-8.619,0.188-12.478c1.178-7.902,3.229-15.685,5.355-23.375c5.358-19.377,11.855-38.488,19.966-56.892 c10.343-23.469,23.482-48.715,43.173-65.796c4.519-3.92,10.725-8.579,17.088-7.952c5.772,0.568,7.73,7.408,8.488,12.145 c1.791,11.188-0.616,23.215-3.007,34.112c-4.181,19.064-10.69,37.618-17.726,55.791c-16.933,43.738-37.797,86.492-60.799,127.374 c-4.728,8.403-9.539,17.007-15.498,24.622c-1.237,1.58-2.583,3.313-4.25,4.47c-0.505,0.351-0.909,0.46-0.881,0.458 c-0.093,0.007,0.154,0.182,0.015-0.069c-1.088-1.96,0.26-7.32,0.846-9.993c1.349-6.146,3.28-12.17,5.364-18.101 c4.437-12.628,9.673-25.613,17.308-36.688c1.688-2.447,4.766-6.894,7.727-7.102c2.98-0.209,4.073,6.019,4.515,8.616 c1.606,9.45,1.034,19.397,0.536,28.913c-0.248,4.745-0.731,9.447,0.29,14.146c1.112,5.119,4.951,6.634,9.023,3.18 c3.991-3.385,6.788-8.476,9.383-12.917c6.201-10.614,11.287-21.902,16.263-33.126c-0.87-0.236-1.739-0.472-2.609-0.707 c0.253,7.529,1.374,17.582,6.974,23.143c4.058,4.029,9.557,2.132,13.579-0.864c11.42-8.509,18.793-23.418,25.39-35.571 c-0.87-0.236-1.739-0.472-2.609-0.707c0.262,7.11,1.228,16.398,6.269,21.831c11.984,12.915,30.134-25.588,33.008-31.124 c-0.87-0.236-1.739-0.472-2.609-0.707c-0.642,6.053-0.951,13.411,1.868,18.969c6.162,12.145,21.468-10.064,24.36-14.106 c6.264-8.755,12.321-18.09,17.17-27.726c0.513-1.02,2.829-7.23-0.947-5.333c-2.8,1.406-4.897,5.86-6.426,8.372 c-3.14,5.159-5.798,10.73-7.45,16.549c-1.461,5.146-1.854,10.781,1.573,15.207c3.309,4.271,8.321,1.177,11.208-1.756 c8.117-8.245,13.137-20.531,17.394-31.138c-0.899-0.248-1.8-0.496-2.699-0.744c-2.423,9.561-5.247,20.889-3.382,30.729 c0.958,5.057,4.887,6.547,9.22,4.033c3.892-2.258,7.014-6.003,9.882-9.376c5.947-6.993,11.119-14.66,16.172-22.307 c-0.87-0.236-1.739-0.472-2.609-0.707c-0.161,7.143,0.545,16.081,4.981,21.953c10.493,13.889,29.298-12.564,34.295-19.246 c-0.854-0.36-1.706-0.72-2.559-1.079c-0.96,5.335-1.005,11.514,1.499,16.431c6.08,11.939,23.274,0.038,29.797-4.66 c10.851-7.817,21.073-16.227,32.397-23.411c9.863-6.258,20.111-11.906,30.562-17.121c10.621-5.301,21.56-10.316,32.8-14.182 c1.697-0.584,0.968-3.289-0.744-2.7c-29.355,10.098-57.641,25.868-82.529,44.239c-8.482,6.262-16.286,13.577-25.93,18.07 c-4.079,1.9-9.776,3.498-13.154-0.42c-3.256-3.776-2.825-10.902-1.998-15.501c0.29-1.611-1.604-2.355-2.559-1.079 c-4.323,5.781-22.801,31.806-30.799,17.156c-2.913-5.336-3.395-12.463-3.259-18.449c0.032-1.459-1.873-1.821-2.609-0.707 c-6.771,10.249-13.968,22.768-24.161,30.1c-4.589,3.301-6.028,0.063-6.306-4.453c-0.541-8.792,1.541-18.078,3.692-26.567 c0.455-1.793-2.043-2.38-2.699-0.744c-4.131,10.289-9.056,21.715-16.674,29.902c-1.346,1.445-3.784,3.834-5.977,2.84 c-2.525-1.146-3.098-4.836-3.122-7.242c-0.063-6.185,2.942-12.506,5.721-17.865c2.041-3.935,4.38-8.381,7.589-11.514 c0.587-0.573-1.342-1.863-1.694-0.755c-0.289,0.906-0.763,1.765-1.188,2.611c-1.976,3.928-4.314,7.684-6.616,11.425 c-6.223,10.111-12.613,21.211-21.672,29.093c-3.714,3.23-7.36,3.919-8.934-1.312c-1.458-4.844-1.212-10.487-0.683-15.478 c0.148-1.399-1.993-1.895-2.609-0.707c-2.304,4.439-20.775,42.393-29.644,29.25c-3.436-5.092-4.193-12.53-4.414-18.543 c-0.05-1.34-1.919-1.979-2.609-0.707c-2.977,5.485-24.157,47.973-35.349,35.034c-4.355-5.034-5.159-13.918-5.375-20.327 c-0.043-1.277-2.008-2.061-2.609-0.707c-4.983,11.24-10.129,22.459-16.263,33.127c-2.545,4.427-5.456,10.015-9.787,12.999 c-3.858,2.658-3.986-5.616-4.042-7.766c-0.214-8.236,0.855-16.49,0.734-24.749c-0.095-6.491-0.16-13.898-2.966-19.909 c-4.504-9.648-13.228,1.247-16.319,5.936c-7.473,11.336-12.667,24.434-17.101,37.205c-2.025,5.833-3.862,11.767-5.142,17.812 c-0.665,3.146-1.859,7.563-0.6,10.718c3.509,8.793,17.67-15.334,18.687-16.992c7.803-12.725,14.767-25.972,21.611-39.228 c12.151-23.539,23.772-47.375,34.404-71.64c9.189-20.972,17.648-42.334,24.312-64.253c4.211-13.854,7.826-28.15,8.867-42.638 c0.759-10.562-0.415-30.872-16.067-27.506c-7.043,1.515-13.187,6.903-18.192,11.77c-8.31,8.079-15.157,17.688-21.313,27.461 c-18.98,30.128-31.445,64.443-40.439,98.74c-1.799,6.858-3.389,13.801-4.264,20.844c-0.447,3.594-0.847,7.656,0.324,11.163 c1.99,5.964,7.959,2.937,11.388,0.229c7.967-6.293,14.126-15.303,19.969-23.481c8.667-12.134,16.566-24.823,24.115-37.676 c14.36-24.449,29.675-50.586,35.866-78.542c3.16-14.268,3.624-29.665-1.27-43.597c-1.762-5.016-4.382-10.576-8.312-14.309 C252.349,3.101,250.366,5.077,251.677,6.323L251.677,6.323z"/>
</svg>