<?xml version="1.0" encoding="UTF-8" standalone="no"?>
<!-- Created with Inkscape (http://www.inkscape.org/) -->
<svg
   xmlns:dc="http://purl.org/dc/elements/1.1/"
   xmlns:cc="http://creativecommons.org/ns#"
   xmlns:rdf="http://www.w3.org/1999/02/22-rdf-syntax-ns#"
   xmlns:svg="http://www.w3.org/2000/svg"
   xmlns="http://www.w3.org/2000/svg"
   xmlns:sodipodi="http://sodipodi.sourceforge.net/DTD/sodipodi-0.dtd"
   xmlns:inkscape="http://www.inkscape.org/namespaces/inkscape"
   width="600"
   height="120"
   id="svg2"
   sodipodi:version="0.32"
   inkscape:version="0.46"
   version="1.0"
   sodipodi:docname="Pier Paolo Pasolini signature.svg"
   inkscape:output_extension="org.inkscape.output.svg.inkscape">
  <defs
     id="defs4">
    <inkscape:perspective
       sodipodi:type="inkscape:persp3d"
       inkscape:vp_x="0 : 526.18109 : 1"
       inkscape:vp_y="0 : 1000 : 0"
       inkscape:vp_z="744.09448 : 526.18109 : 1"
       inkscape:persp3d-origin="372.04724 : 350.78739 : 1"
       id="perspective10" />
    <inkscape:perspective
       id="perspective2447"
       inkscape:persp3d-origin="372.04724 : 350.78739 : 1"
       inkscape:vp_z="744.09448 : 526.18109 : 1"
       inkscape:vp_y="0 : 1000 : 0"
       inkscape:vp_x="0 : 526.18109 : 1"
       sodipodi:type="inkscape:persp3d" />
  </defs>
  <sodipodi:namedview
     id="base"
     pagecolor="#ffffff"
     bordercolor="#666666"
     borderopacity="1.0"
     gridtolerance="10000"
     guidetolerance="10"
     objecttolerance="10"
     inkscape:pageopacity="0.0"
     inkscape:pageshadow="2"
     inkscape:zoom="1"
     inkscape:cx="249.5"
     inkscape:cy="156.45089"
     inkscape:document-units="px"
     inkscape:current-layer="layer1"
     showgrid="false"
     inkscape:window-width="1202"
     inkscape:window-height="701"
     inkscape:window-x="0"
     inkscape:window-y="22" />
  <metadata
     id="metadata7">
    <rdf:RDF>
      <cc:Work
         rdf:about="">
        <dc:format>image/svg+xml</dc:format>
        <dc:type
           rdf:resource="http://purl.org/dc/dcmitype/StillImage" />
      </cc:Work>
    </rdf:RDF>
  </metadata>
  <g
     inkscape:label="Layer 1"
     inkscape:groupmode="layer"
     id="layer1">
    <path
       style="fill:#000000"
       d="M 13.706523,95.305582 C 10.369954,91.969024 11.675384,89.340574 26.185699,70.179095 C 34.069479,59.768241 41.365203,48.12002 42.398424,44.294172 C 43.638588,39.702093 46.246583,37.338068 50.072409,37.338068 C 53.259871,37.338068 56.815666,36.398992 57.974167,35.251238 C 65.202955,28.089529 67.178171,39.543478 60.386509,49.239945 C 55.507229,56.206088 49.356883,57.648053 51.811946,51.250276 C 55.603475,41.369687 50.384067,48.292732 43.945436,61.684426 C 37.55961,74.966286 20.742177,97.160548 17.063822,97.160548 C 16.237533,97.160548 14.726752,96.325812 13.706523,95.305582 z M 123.1492,95.336352 C 123.1492,92.105339 137.9481,73.867003 151.01939,60.988812 C 158.00918,54.102275 165.76467,45.224414 168.25377,41.260239 C 172.01201,35.274854 174.94111,34.019975 185.52727,33.859933 C 202.51059,33.603192 202.07736,37.424175 182.73798,58.460578 C 174.19256,67.755863 167.82484,75.985068 168.58748,76.747716 C 171.02697,79.187212 182.761,71.68856 189.43385,63.425799 C 196.12267,55.143269 207.92275,52.570499 210.18247,58.901982 C 210.8652,60.814906 209.68528,65.823303 207.56044,70.031746 C 201.34109,82.349742 208.42912,79.461268 226.33701,62.38004 C 244.11625,45.421505 253.92394,42.5189 253.92394,54.215637 C 253.92394,58.142098 252.62778,63.776541 251.0436,66.736617 C 247.45171,73.448153 251.49267,73.784014 257.21193,67.249303 C 282.6233,38.214863 297.65151,27.913058 302.69379,36.071623 C 304.36962,38.783218 289.93505,54.232752 272.28741,68.61593 C 267.95986,72.142967 265.04292,76.963836 265.57251,79.713741 C 267.35014,88.944235 274.99853,86.367175 284.31083,73.400036 C 297.95287,54.403828 312.3552,50.913719 312.3552,66.60404 C 312.3552,78.096786 299.54568,87.686602 281.11914,89.988856 C 264.60458,92.052213 256.70638,90.225264 256.70638,84.341874 C 256.70638,78.645858 248.86991,79.634809 232.08373,87.449188 C 212.07636,96.763115 207.33969,96.327901 209.07538,85.335171 C 209.65375,81.672206 198.31243,83.095607 191.53452,87.536667 C 185.72566,91.342779 184.52181,91.357075 180.82855,87.663815 C 178.53991,85.375173 173.07873,83.758461 168.6926,84.071103 C 155.5583,85.007337 157.21917,75.696982 173.18252,58.901982 C 181.30799,50.353181 185.35209,44.294172 182.93251,44.294172 C 177.81328,44.294172 169.9752,51.973763 161.02014,65.763421 C 150.23353,82.373447 135.08518,97.160548 128.85594,97.160548 C 125.71724,97.160548 123.1492,96.339666 123.1492,95.336352 z M 224.96067,81.181998 C 223.03105,79.25239 217.7522,83.172958 217.7522,86.535697 C 217.7522,88.380713 219.34872,88.169624 221.99311,85.974983 C 224.3256,84.039183 225.661,81.882344 224.96067,81.181998 z M 156.52467,62.920488 C 156.51708,61.092897 153.43185,63.353888 149.66864,67.944916 C 140.73613,78.842352 140.73761,84.203835 149.67032,74.050252 C 153.44782,69.756475 156.53228,64.748079 156.52467,62.920488 z M 301.70196,75.860993 C 304.50057,73.328302 306.79032,70.198057 306.79032,68.904889 C 306.79032,64.254686 301.7765,66.689462 297.30766,73.509804 C 292.08937,81.473898 294.23261,82.620657 301.70196,75.860993 z M 202.15299,70.494855 C 203.19285,67.784996 202.57101,66.512957 200.53774,67.190704 C 196.37845,68.577144 194.08834,74.90102 197.74556,74.90102 C 199.2397,74.90102 201.22304,72.918242 202.15299,70.494855 z M 241.24518,68.717029 C 243.62747,65.315825 245.47777,60.620457 245.35695,58.282879 C 245.16437,54.556649 244.9492,54.547218 243.61158,58.206369 C 242.77244,60.501888 239.52278,65.197256 236.39013,68.64053 C 233.25746,72.083793 232.09373,74.90102 233.80406,74.90102 C 235.51438,74.90102 238.86289,72.118223 241.24518,68.717029 z M 285.92201,49.859048 C 290.32049,45.26802 292.74593,41.551542 291.31186,41.600213 C 288.09995,41.709229 281.6206,46.856792 276.53839,53.337106 C 270.17382,61.45254 277.37024,58.785183 285.92201,49.859048 z M 324.9287,94.463062 C 322.88647,91.158678 325.95923,86.697253 342.65042,68.732309 C 347.93542,63.043999 355.53252,52.401159 359.53284,45.081554 C 364.61936,35.774504 368.40845,31.917268 372.1354,32.252398 C 375.06645,32.515972 380.90824,30.950849 385.11712,28.774352 C 394.605,23.867984 394.87075,23.872926 396.83535,28.992583 C 397.76557,31.416733 394.79271,37.319427 389.74752,43.065573 L 381.05741,52.963068 L 388.417,51.115929 C 397.40489,48.860113 400.88477,55.176162 396.25388,65.339917 C 392.20818,74.219271 395.62424,74.103444 411.45769,64.824423 C 418.30331,60.81264 424.61655,58.242578 425.48715,59.113182 C 426.35775,59.983796 424.30631,65.457336 420.92837,71.27662 L 414.78667,81.857124 L 421.8475,73.509804 C 436.95966,55.644146 440.1795,52.78967 447.21039,51.025035 C 455.00955,49.067576 465.38948,55.7973 465.38948,62.811284 C 465.38948,68.553472 470.38237,67.256622 473.95166,60.587343 C 479.80521,49.64985 499.4182,30.381964 504.69802,30.381964 C 514.33846,30.381964 510.07606,39.37091 491.82266,57.534758 C 471.58502,77.673115 467.69133,85.864595 485.11,71.656773 C 505.14202,55.317308 507.07542,54.260283 510.55865,57.743514 C 512.93249,60.117358 512.19978,62.544205 507.64574,67.391787 C 496.74416,78.995981 501.23118,78.292993 515.64579,66.138421 C 527.00791,56.557748 530.21014,55.038377 532.21236,58.278069 C 533.91771,61.037372 532.77544,64.406867 528.56194,69.04619 C 521.45143,76.875285 526.43626,74.558438 540.91578,63.304344 C 546.49221,58.970112 551.81362,55.423936 552.74115,55.423936 C 556.1031,55.423936 554.30397,61.694587 548.67325,69.602227 C 541.44191,79.75769 545.70858,80.060679 561.94625,70.544786 C 578.88305,60.619153 583.9735,62.567004 573.33066,74.90102 C 568.55302,80.437858 564.39802,83.243896 563.70038,81.404751 C 562.80093,79.033562 560.47074,79.214699 554.97243,82.083217 C 545.1708,87.196782 537.95838,87.073403 535.9184,81.757274 C 534.44368,77.914222 533.62152,77.914222 527.75628,81.757274 C 520.27384,86.659949 509.90853,87.434273 509.90853,83.090566 C 509.90853,81.442553 507.19072,82.053983 503.72453,84.481793 C 495.2897,90.389772 490.98668,89.918393 489.92935,82.970581 L 489.04022,77.127946 L 481.64524,82.970581 C 471.53847,90.955782 465.38948,90.5346 465.38948,81.857124 C 465.38948,73.033815 462.40124,73.092192 451.66611,82.125198 C 441.02152,91.082024 421.87894,94.497149 420.44247,87.695636 C 419.61426,83.774216 418.03683,84.118026 409.19264,90.147614 C 392.39031,101.60275 383.78345,98.65345 397.2087,86.041089 C 401.02852,82.452556 403.65461,79.017264 403.04445,78.407117 C 401.26472,76.627367 378.14221,83.878777 373.56891,87.650912 C 369.37555,91.109676 364.03045,92.537711 357.56987,91.925341 C 349.05365,91.118113 359.12576,64.780573 373.12503,51.250276 C 383.49208,41.230486 384.54528,36.878387 375.10629,43.063041 C 371.36082,45.517165 364.53766,53.371646 359.94371,60.517445 C 348.59687,78.167182 327.49853,98.621155 324.9287,94.463062 z M 369.21506,86.322342 C 370.06176,84.952354 368.92366,83.128898 366.68593,82.270202 C 362.33789,80.601703 358.62453,84.071136 361.5873,87.03391 C 364.10266,89.549264 367.41149,89.240602 369.21506,86.322342 z M 436.17384,83.24834 C 435.22803,81.718001 433.27598,80.465897 431.83596,80.465897 C 430.39593,80.465897 429.21774,81.718001 429.21774,83.24834 C 429.21774,84.778691 431.16978,86.030784 433.55562,86.030784 C 435.94145,86.030784 437.11964,84.778691 436.17384,83.24834 z M 386.46995,67.724573 C 392.57758,58.525976 387.18162,54.809321 376.84524,61.095241 C 366.33701,67.485678 362.7754,74.451986 368.27782,77.852671 C 372.69258,80.581138 381.00694,75.952296 386.46995,67.724573 z M 453.5641,71.345955 C 458.81623,67.282019 457.85142,58.199293 452.17288,58.24898 C 446.48582,58.298745 436.95501,63.661521 442.43433,63.728645 C 444.34726,63.752084 445.91238,65.649408 445.91238,67.944916 C 445.91238,70.240436 444.66029,72.118576 443.12995,72.118576 C 441.5996,72.118576 440.3475,73.331376 440.3475,74.813697 C 440.3475,77.71346 447.89377,75.73349 453.5641,71.345955 z M 495.99632,46.395221 C 495.99632,44.8431 494.15084,45.144387 491.82266,47.076605 C 489.52714,48.981712 487.649,51.792537 487.649,53.322876 C 487.649,54.874997 489.49448,54.573709 491.82266,52.641492 C 494.11817,50.736385 495.99632,47.92556 495.99632,46.395221 z M 46.720881,86.174473 C 43.754227,81.374335 60.661493,58.206369 67.131148,58.206369 C 72.200576,58.206369 70.794157,62.320855 63.326728,69.336133 C 59.500869,72.930338 56.370624,77.615323 56.370624,79.747208 C 56.370624,85.292084 67.815462,81.203149 72.999246,73.806248 C 79.352135,64.741113 90.168759,55.423936 94.339877,55.423936 C 99.471643,55.423936 99.078762,60.868331 93.502332,67.03022 C 86.971026,74.247222 92.247286,73.331995 104.26982,65.162473 C 109.90007,61.336625 115.19913,58.206369 116.04548,58.206369 C 119.6065,58.206369 117.05146,64.934313 109.10332,76.48652 C 100.26868,89.32724 93.630984,92.80846 96.118388,83.296613 C 97.401086,78.391571 96.897245,78.144472 91.57363,81.06763 C 88.28058,82.875828 81.829964,84.726726 77.238935,85.180757 C 72.647907,85.634777 64.344127,86.757544 58.786094,87.675789 C 52.513254,88.712128 47.937329,88.142723 46.720881,86.174473 z M 583.64322,44.294172 C 584.58903,42.763822 585.91503,41.511728 586.58988,41.511728 C 587.26473,41.511728 587.81688,42.763822 587.81688,44.294172 C 587.81688,45.824511 586.49089,47.076605 584.87023,47.076605 C 583.24957,47.076605 582.69741,45.824511 583.64322,44.294172 z M 125.97426,32.900038 C 126.05065,25.890189 130.96285,20.387991 134.22885,23.653987 C 136.32596,25.751088 135.54602,28.108447 131.56227,31.713686 C 127.30124,35.569872 125.94201,35.858445 125.97426,32.900038 z M 525.60006,31.233794 C 522.46652,28.100254 523.6916,24.817077 527.9944,24.817077 C 530.28991,24.817077 532.16806,25.99528 532.16806,27.435311 C 532.16806,30.943906 527.82303,33.456772 525.60006,31.233794 z"
       id="path2453" />
  </g>
</svg>
