<?xml version="1.0" encoding="UTF-8" standalone="no"?>
<!-- Created with Inkscape (http://www.inkscape.org/) -->

<svg
   xmlns:dc="http://purl.org/dc/elements/1.1/"
   xmlns:cc="http://creativecommons.org/ns#"
   xmlns:rdf="http://www.w3.org/1999/02/22-rdf-syntax-ns#"
   xmlns:svg="http://www.w3.org/2000/svg"
   xmlns="http://www.w3.org/2000/svg"
   xmlns:sodipodi="http://sodipodi.sourceforge.net/DTD/sodipodi-0.dtd"
   xmlns:inkscape="http://www.inkscape.org/namespaces/inkscape"
   width="1630.0698"
   height="383.67273"
   id="svg2"
   version="1.1"
   inkscape:version="0.48.0 r9654"
   sodipodi:docname="Nowy dokument 1">
  <defs
     id="defs4" />
  <sodipodi:namedview
     id="base"
     pagecolor="#ffffff"
     bordercolor="#666666"
     borderopacity="1.0"
     inkscape:pageopacity="0.0"
     inkscape:pageshadow="2"
     inkscape:zoom="0.35"
     inkscape:cx="990.35594"
     inkscape:cy="82.210794"
     inkscape:document-units="px"
     inkscape:current-layer="layer1"
     showgrid="false"
     fit-margin-top="0"
     fit-margin-left="0"
     fit-margin-right="0"
     fit-margin-bottom="0"
     inkscape:window-width="1366"
     inkscape:window-height="706"
     inkscape:window-x="-8"
     inkscape:window-y="-8"
     inkscape:window-maximized="1" />
  <metadata
     id="metadata7">
    <rdf:RDF>
      <cc:Work
         rdf:about="">
        <dc:format>image/svg+xml</dc:format>
        <dc:type
           rdf:resource="http://purl.org/dc/dcmitype/StillImage" />
        <dc:title></dc:title>
      </cc:Work>
    </rdf:RDF>
  </metadata>
  <g
     inkscape:label="Layer 1"
     inkscape:groupmode="layer"
     id="layer1"
     transform="translate(615.73361,-230.09271)">
    <path
       style="fill:#000000"
       d="m -251.21429,613.25906 c -1.1,-0.2434 -2.675,-0.71484 -3.5,-1.04763 -0.825,-0.3328 -1.74851,-0.64395 -2.05224,-0.69145 -0.70852,-0.11081 -8.94776,-8.75592 -8.94776,-9.38854 0,-0.26215 -1.35,-2.67066 -3,-5.35225 -1.65,-2.6816 -3,-5.74231 -3,-6.80159 0,-1.05927 -0.45,-2.20407 -1,-2.54399 -0.55,-0.33992 -0.99963,-4.52898 -0.99919,-9.30902 10e-4,-11.85592 2.04816,-17.00531 10.72599,-26.98142 1.77474,-2.04026 3.23724,-4.27206 3.25,-4.95956 0.0128,-0.6875 0.6982,-1.25 1.5232,-1.25 0.825,0 1.5,-0.34049 1.5,-0.75665 0,-0.41616 1.99153,-2.98828 4.42563,-5.71582 2.4341,-2.72754 4.22676,-5.28096 3.98369,-5.67425 -0.24307,-0.3933 0.0849,-1.04071 0.72888,-1.43869 0.76956,-0.47562 0.93374,-0.24227 0.47904,0.6809 -0.38048,0.77248 -0.11251,0.54773 0.59549,-0.49945 0.708,-1.04718 3.18016,-4.07762 5.49369,-6.73431 2.31353,-2.65669 4.74599,-5.84991 5.40546,-7.09604 0.65948,-1.24613 2.70748,-4.11618 4.55112,-6.37788 l 3.35207,-4.11219 1.00611,-18.38781 c 0.55336,-10.1133 1.45664,-24.46281 2.00727,-31.88781 2.12093,-28.59926 2.32655,-35 1.12434,-35 -0.63404,0 -1.15279,0.44126 -1.15279,0.98058 0,0.53932 -1.575,3.44271 -3.5,6.45197 -1.925,3.00926 -3.50116,5.83049 -3.50257,6.26941 -0.001,0.43892 -1.57641,3.40808 -3.5,6.59812 -1.92359,3.19004 -3.49743,6.35226 -3.49743,7.02714 0,0.67488 -1.2375,2.65876 -2.75,4.40861 -1.5125,1.74985 -4.28779,5.38053 -6.16732,8.06818 -4.16218,5.95174 -8.21353,8.78826 -13.84212,9.69147 -3.5328,0.5669 -5.00568,0.24617 -8.63384,-1.88007 -5.18951,-3.04126 -5.58826,-4.38877 -6.4954,-21.95002 l -0.61132,-11.83461 -4.5,6.33461 c -2.475,3.48404 -5.11871,7.57211 -5.8749,9.08461 -0.7562,1.5125 -1.71398,2.75 -2.12839,2.75 -0.41442,0 -2.70641,2.53134 -5.0933,5.6252 -6.05784,7.85209 -10.69881,10.55565 -19.15906,11.16098 -6.06844,0.43419 -7.08741,0.24016 -9.20983,-1.75375 -1.40584,-1.32072 -2.89128,-1.92997 -3.615,-1.48269 -0.78758,0.48675 -0.97243,0.3449 -0.51501,-0.39523 0.39244,-0.63498 0.25594,-1.15451 -0.30334,-1.15451 -1.56939,0 -5.72879,-7.8825 -7.38746,-14 -2.54611,-9.39058 -2.80685,-11.86933 -3.64352,-34.63782 -0.44742,-12.1758 -1.16415,-22.70519 -1.59273,-23.39864 -0.42857,-0.69346 -0.96595,-4.26425 -1.19417,-7.93511 -0.53623,-8.62528 0.83936,-10.17875 6.68078,-7.54463 2.15497,0.97175 4.17329,2.43177 4.48516,3.24449 2.19276,5.71425 3.82104,18.54315 4.54023,35.77171 1.06453,25.50139 4.49234,41.39136 9.12132,42.28282 2.74014,0.5277 11.43549,-5.63078 13.74023,-9.73152 1.18735,-2.1126 2.8783,-4.11718 3.75766,-4.45463 0.90477,-0.34719 1.35237,-1.25582 1.03107,-2.0931 -0.31227,-0.81377 -0.12255,-1.37248 0.42159,-1.24157 0.54415,0.1309 1.76545,-1.112 2.71401,-2.762 0.94856,-1.65 1.96522,-3.225 2.25924,-3.5 0.29401,-0.275 2.15919,-2.975 4.14484,-6 1.98564,-3.025 5.51601,-7.66042 7.84525,-10.30094 3.81283,-4.32237 4.54601,-4.73646 7.35516,-4.15403 3.7994,0.78774 7.87209,4.54631 8.30008,7.65991 0.17352,1.26229 0.73673,9.42777 1.25158,18.14552 0.51486,8.71776 1.2079,16.12226 1.5401,16.45446 0.68109,0.68109 8.52841,-7.32092 8.52841,-8.69653 0,-0.48815 1.57856,-2.62474 3.50791,-4.74797 2.04853,-2.25438 3.33541,-4.58904 3.09326,-5.6118 -0.22806,-0.96326 -0.0198,-1.50735 0.46277,-1.2091 0.48259,0.29825 1.16362,-0.59802 1.51342,-1.99171 0.34979,-1.39369 1.03798,-2.28554 1.52931,-1.98188 0.49133,0.30366 0.89333,-0.3479 0.89333,-1.4479 0,-1.1 0.42531,-2.26285 0.94513,-2.58412 0.51982,-0.32126 3.07456,-4.62282 5.6772,-9.55901 2.60264,-4.9362 5.10233,-8.9749 5.55487,-8.9749 0.45254,0 0.8228,-0.44486 0.8228,-0.98857 0,-1.99174 6.67305,-9.01143 8.56644,-9.01143 3.13694,0 8.59522,3.27669 9.62534,5.77825 1.52293,3.69829 1.22816,27.0101 -0.65399,51.72175 -0.83781,11 -1.50355,20.9 -1.47943,22 0.0241,1.1 2.30005,-2.43691 5.0576,-7.8598 2.75756,-5.4229 4.76472,-10.50877 4.46035,-11.30194 -0.30827,-0.80334 -0.11553,-1.17151 0.43514,-0.83118 0.5437,0.33602 1.0448,0.1344 1.11355,-0.44806 0.35415,-3.00042 1.95466,-6.12782 2.85216,-5.57313 0.42218,0.26092 1.01801,-1.06868 1.32406,-2.95466 0.30605,-1.88597 1.25371,-4.91454 2.10591,-6.73014 0.85219,-1.8156 2.67271,-6.41742 4.04559,-10.22627 1.37288,-3.80885 2.97427,-7.22068 3.55865,-7.58185 0.72531,-0.44827 1.00157,-12.69006 0.87052,-38.57481 -0.202,-39.89683 0.61776,-66.56452 2.30297,-74.91816 0.55476,-2.75 1.38356,-7.925 1.84176,-11.5 1.29552,-10.10798 3.86761,-25.0145 4.90352,-28.41829 0.85322,-2.80353 2.91968,-10.33569 4.96074,-18.08171 0.83481,-3.16821 5.73068,-13.65903 9.06837,-19.43163 1.59295,-2.75504 1.74328,-3.72385 0.76245,-4.91372 -1.07104,-1.29932 -0.9134,-1.314 1.2783,-0.11907 1.375,0.74967 3.4816,1.24519 4.68133,1.10116 1.39036,-0.16692 2.60069,0.52171 3.33783,1.89907 1.19435,2.23165 1.35452,19.2328 0.43775,46.46419 -0.25923,7.7 -0.46808,14.81406 -0.46412,15.80902 0.004,0.99496 -0.39564,1.56004 -0.88801,1.25574 -0.49236,-0.3043 -1.15117,0.11374 -1.46401,0.92899 -0.32784,0.85434 -0.0545,1.38144 0.64522,1.24425 0.76979,-0.15091 1.13795,0.85974 1.00614,2.762 -0.11434,1.65 -0.22701,6.12355 -0.2504,9.94123 -0.027,4.40698 -0.4957,7.22131 -1.28377,7.70836 -0.98827,0.61078 -0.98819,1.02018 4e-4,2.00877 1.74063,1.74063 1.54519,2.83898 -0.50836,2.85695 -1.02507,0.009 -1.31902,0.31965 -0.70961,0.75 1.2974,0.91618 1.65492,12.23469 0.38646,12.23469 -0.50977,0 -0.93657,2.5875 -0.94845,5.75 -0.0187,4.9811 -0.94902,12.07632 -3.44187,26.25 -2.53969,14.44006 -8.95983,39.60019 -10.61316,41.59234 -3.36604,4.05582 -3.31652,87.40766 0.0519,87.40766 1.35282,0 6.02471,-4.56651 6.02471,-5.88883 0,-0.80776 0.62912,-1.08373 1.61134,-0.70682 1.16844,0.44837 1.44699,0.19004 1.01342,-0.93983 -0.36952,-0.96295 0.54294,-2.67339 2.38866,-4.47764 1.64262,-1.60571 2.98658,-3.4112 2.98658,-4.01219 0,-0.601 0.44485,-0.81779 0.98855,-0.48177 0.55423,0.34253 0.74156,-0.0327 0.42639,-0.85398 -0.58585,-1.5267 6.65121,-15.61902 9.03861,-17.60039 2.05847,-1.70837 2.89476,0.47689 1.2182,3.1832 -0.77626,1.25304 -1.99602,5.20325 -2.71059,8.77825 -0.71457,3.575 -1.96207,7.53107 -2.77223,8.79126 -0.81016,1.26019 -1.58955,3.35289 -1.73199,4.65044 -0.61867,5.63594 -5.9219,15.07002 -10.85388,19.3083 -4.46653,3.83829 -17.733,2.56669 -19.12959,-1.83358 -0.33453,-1.05403 -0.95574,-1.91642 -1.38046,-1.91642 -2.11038,0 -3.38585,-14.50672 -2.8113,-31.97451 0.34005,-10.33835 0.2125,-18.02549 -0.29909,-18.02549 -0.4906,0 -1.1884,1.57997 -1.55067,3.51105 -0.36227,1.93107 -1.01604,3.73191 -1.45282,4.00185 -0.43679,0.26995 -1.59518,3.07748 -2.5742,6.23896 -0.97903,3.16148 -2.07439,5.97314 -2.43413,6.24814 -0.35974,0.275 -3.04264,5.3375 -5.96199,11.25 -2.91935,5.9125 -5.69061,10.75 -6.15836,10.75 -0.46775,0 -0.85045,0.45894 -0.85045,1.01987 0,0.56093 -1.06893,2.71317 -2.3754,4.78275 -3.15323,4.99504 -3.46848,7.68153 -4.13029,35.19738 -0.6794,28.24767 -1.87963,41.82324 -4.64158,52.5 -2.54012,9.81925 -3.2046,11.14506 -7.66803,15.29988 -7.10536,6.61406 -14.98718,9.22883 -22.6847,7.52557 z m 8.8828,-11.14457 c 3.92484,-1.90908 7.59943,-6.46254 7.61061,-9.43088 0.004,-0.9625 0.37825,-1.75 0.83251,-1.75 1.71655,0 4.25216,-20.08577 4.73397,-37.5 0.27391,-9.9 0.69525,-19.22005 0.93631,-20.71123 0.70311,-4.34936 -1.1376,-4.16369 -4.36844,0.44065 -1.64815,2.34882 -4.14143,5.56677 -5.54061,7.151 -1.39919,1.58423 -2.25916,3.34126 -1.91106,3.90451 0.34811,0.56325 0.16738,0.73636 -0.40163,0.3847 -0.569,-0.35167 -3.54145,2.1663 -6.60543,5.59549 -14.02242,15.6938 -16.15724,19.72475 -16.16428,30.52135 -0.003,5.11592 0.40578,7.5402 1.37337,8.1382 0.75796,0.46845 1.0689,1.35203 0.69098,1.96353 -0.37792,0.61149 -0.32043,1.1118 0.12777,1.1118 0.4482,0 1.36732,1.24798 2.04249,2.77329 1.39939,3.16146 8.80379,9.22671 11.26386,9.22671 0.90181,0 3.32262,-0.81861 5.37958,-1.81912 z m 51.80053,-166.39755 c -0.71756,-0.71756 -1.18333,-0.7766 -1.18333,-0.15 0,1.33478 1.18261,2.51739 1.85,1.85 0.28417,-0.28416 -0.0158,-1.04916 -0.66667,-1.7 z m 17.55033,-52.39629 c -0.25599,-1.33912 -0.0758,-2.67559 0.40045,-2.96992 0.47624,-0.29434 0.86589,-0.98515 0.86589,-1.53515 0,-0.55 -0.45,-0.72189 -1,-0.38197 -0.55,0.33992 -1,-0.0997 -1,-0.97698 0,-2.33514 4.93139,-30.603 5.49898,-31.52136 0.26546,-0.42953 0.76262,-3.62855 1.10479,-7.10893 0.34217,-3.48038 0.79474,-7.91754 1.00571,-9.86035 0.21097,-1.94281 0.49764,-4.68893 0.63705,-6.1025 0.13941,-1.41356 1.04097,-3.3582 2.00347,-4.32142 1.19866,-1.19957 1.75,-3.32265 1.75,-6.73891 0,-2.74317 -0.3375,-4.77987 -0.75,-4.526 -0.4125,0.25387 -0.84438,-0.84457 -0.95974,-2.44098 -0.14262,-1.97361 0.25744,-2.90257 1.25,-2.90257 0.80286,0 1.45974,-0.45 1.45974,-1 0,-0.55 -0.57439,-1 -1.27643,-1 -0.89229,0 -1.15817,-1.24003 -0.88347,-4.12048 0.2845,-2.98324 0.65744,-3.74223 1.35125,-2.75 0.63028,0.90138 0.697,10e-4 0.19493,-2.62952 -1.01082,-5.2967 -0.51201,-15.80426 0.7884,-16.60796 0.70129,-0.43342 0.67408,-1.30611 -0.0849,-2.72435 -0.65636,-1.22641 -0.89887,-4.47384 -0.58825,-7.87717 l 0.52847,-5.79052 -1.92478,4 c -2.98341,6.2 -5.05163,16.58078 -9.66292,48.5 -2.00109,13.85151 -3.71972,48.62448 -3.08902,62.5 0.3,6.6 0.57956,13.125 0.62124,14.5 0.0687,2.26498 0.17679,2.32711 1.15018,0.66091 0.59092,-1.0115 0.86495,-2.93474 0.60896,-4.27387 z m 9.34529,-72.80371 c -0.0434,-1.05416 0.19293,-1.64479 0.52522,-1.3125 0.33229,0.3323 0.36781,1.19479 0.0789,1.91667 -0.31922,0.79773 -0.55618,0.56078 -0.60416,-0.60417 z m 0.90574,19.72569 c 0.008,-1.20504 -0.43469,-2.4691 -0.98469,-2.80902 -0.60835,-0.37598 -0.994,1.0696 -0.98469,3.69098 0.0112,3.15059 0.27592,3.90576 0.98469,2.80902 0.53316,-0.825 0.97627,-2.48594 0.98469,-3.69098 z m 314.31431,263.35808 c -3.41056,-1.19191 -7.16901,-3.21011 -8.35213,-4.4849 -1.18311,-1.27479 -2.80353,-2.06745 -3.60093,-1.76146 -0.7974,0.306 -1.18914,0.13456 -0.87053,-0.38095 0.31861,-0.51552 -1.96514,-3.54787 -5.075,-6.73855 -3.10986,-3.19068 -7.89215,-8.72624 -10.62731,-12.30124 -2.73516,-3.575 -5.36185,-6.3929 -5.83707,-6.262 -0.47523,0.13091 -0.57712,-0.50972 -0.22643,-1.4236 0.46841,-1.22067 0.22352,-1.50271 -0.92281,-1.06283 -1.1445,0.43919 -1.43267,0.11029 -1.08115,-1.23393 0.27683,-1.05862 -0.44157,-2.75357 -1.70083,-4.01283 -1.19906,-1.19906 -2.8217,-3.71567 -3.60588,-5.59246 -0.78417,-1.87679 -1.86973,-3.41235 -2.41235,-3.41235 -0.54262,0 -0.98658,-0.72254 -0.98658,-1.60564 0,-2.34469 -4.32595,-7.10392 -6.0353,-6.6398 -1.15163,0.3127 -1.18516,0.20087 -0.15685,-0.5232 1.06017,-0.7465 0.98162,-1.60499 -0.41479,-4.5333 -0.94745,-1.98682 -2.10377,-3.37685 -2.56959,-3.08896 -0.46583,0.2879 -1.12292,-0.85637 -1.46021,-2.54282 -0.3373,-1.68646 -1.00701,-3.06628 -1.48826,-3.06628 -0.48125,0 -0.875,-0.65264 -0.875,-1.45031 0,-0.79767 -0.78375,-1.88892 -1.74167,-2.425 -0.95792,-0.53608 -1.42705,-1.2893 -1.04252,-1.67383 0.38453,-0.38453 -0.29422,-1.57756 -1.50833,-2.65119 -1.21412,-1.07362 -1.64498,-1.6662 -0.95748,-1.31684 0.6875,0.34936 1.25,0.14452 1.25,-0.4552 0,-0.59972 -0.675,-1.34942 -1.5,-1.666 -0.825,-0.31659 -1.5,-1.39066 -1.5,-2.38683 0,-0.99617 -0.27755,-2.53451 -0.61678,-3.41854 -0.51123,-1.33222 -0.89631,-1.389 -2.25,-0.33178 -1.41264,1.10325 -1.46844,1.06397 -0.41314,-0.2909 1.31775,-1.6918 -0.0246,-8.93358 -1.65597,-8.93358 -0.46304,0 -0.79605,-0.5625 -0.74003,-1.25 0.056,-0.6875 -0.61346,-3.725 -1.48774,-6.75 -7.01183,-24.26096 -7.61924,-54.59356 -1.63203,-81.5 1.10147,-4.95 2.0686,-10.2375 2.14918,-11.75 0.0806,-1.5125 0.48401,-2.80625 0.89651,-2.875 0.4125,-0.0687 1.2,-0.2375 1.75,-0.375 0.55,-0.1375 1.3375,-0.31993 1.75,-0.40541 0.4125,-0.0855 -0.047,-0.61938 -1.02103,-1.18646 -0.97407,-0.56708 -1.50548,-1.46073 -1.1809,-1.9859 0.32457,-0.52517 1.12153,-0.63613 1.77103,-0.24658 0.88621,0.53152 0.90183,0.34843 0.0626,-0.73369 -0.84994,-1.09594 -0.48817,-3.3617 1.50757,-9.44196 1.44422,-4.4 2.98651,-8.5625 3.42731,-9.25 0.44079,-0.6875 0.52333,-1.7 0.18341,-2.25 -0.33992,-0.55 -0.20982,-1 0.28911,-1 1.41855,0 4.52637,-7.68053 3.66908,-9.06764 -0.4945,-0.80012 -0.35683,-0.98775 0.3873,-0.52785 0.7299,0.4511 1.15451,-0.0438 1.15451,-1.34549 0,-1.13246 0.36978,-2.05902 0.82174,-2.05902 0.45196,0 1.81353,-2.19448 3.02571,-4.87663 1.21217,-2.68214 3.14428,-5.94464 4.29356,-7.25 1.14929,-1.30535 2.76448,-3.38587 3.58931,-4.62337 0.82483,-1.2375 2.14267,-2.25 2.92853,-2.25 0.78585,0 1.35578,-0.5625 1.2665,-1.25 -0.28923,-2.22737 0.0571,-3.75276 0.82465,-3.63158 2.70016,0.42634 4.40617,-0.26905 3.89948,-1.58948 -0.31048,-0.80909 0.12352,-2.15908 0.96444,-3 0.84091,-0.84092 1.15929,-1.55746 0.70751,-1.59233 -0.67386,-0.052 2.87561,-1.87705 4.67857,-2.4056 0.275,-0.0806 3.39556,-2.9083 6.93458,-6.28373 3.53902,-3.37544 6.80152,-5.91038 7.25,-5.6332 0.44848,0.27717 0.81542,0.0274 0.81542,-0.55506 0,-0.58246 0.3375,-0.98764 0.75,-0.90041 0.74146,0.15681 9.22059,-3.53346 16.51482,-7.18754 2.07064,-1.0373 5.36907,-2.18696 7.32983,-2.55481 1.96077,-0.36784 3.80224,-1.28698 4.09218,-2.04253 0.28994,-0.75555 0.95557,-1.37373 1.47919,-1.37373 0.52361,0 0.67391,0.45 0.33399,1 -0.9054,1.46496 1.07086,1.222 2.32194,-0.28546 1.39679,-1.68302 6.10233,-1.44566 7.24878,0.36564 0.87882,1.38848 1.04986,1.21405 1.30428,-1.33018 0.20556,-2.05557 20.43678,-2.18418 27.96507,-0.17778 3.38796,0.90295 6.70264,1.66858 7.36594,1.70142 0.66331,0.0328 1.04098,0.32671 0.83928,0.65307 -0.2017,0.32636 1.62006,1.47809 4.04835,2.5594 2.4283,1.08131 4.63694,2.65179 4.90811,3.48995 0.27116,0.83817 1.80057,2.91535 3.39867,4.61595 3.44899,3.67021 6.61294,10.29212 8.13775,17.0317 1.08577,4.79908 1.0039,23.40005 -0.10729,24.37629 -0.31302,0.275 -1.34581,4.55 -2.29511,9.5 -0.94929,4.95 -2.15885,10.35 -2.68791,12 -0.52905,1.65 -1.87134,5.83566 -2.98286,9.30147 -1.11151,3.4658 -3.15552,9.3158 -4.54225,13 -1.38673,3.68419 -2.46751,6.69853 -2.40174,6.69853 0.32232,0 -2.42353,6.58017 -4.67255,11.19732 -1.4362,2.94847 -2.20627,5.76098 -1.77971,6.5 0.41355,0.71647 0.38145,0.96687 -0.0713,0.55644 -0.93898,-0.85117 -10.94757,13.95874 -10.97927,16.24624 -0.0114,0.825 -0.47019,1.50689 -1.01947,1.51531 -1.85809,0.0285 -3.53528,1.61645 -2.86048,2.7083 0.43109,0.69753 0.19752,0.79289 -0.65363,0.26685 -0.96971,-0.59931 -1.14808,-0.35895 -0.66596,0.89743 0.40635,1.05895 0.2632,1.47169 -0.37387,1.07796 -1.37449,-0.84948 -4.0978,1.47748 -3.27922,2.80197 0.35392,0.57266 0.23171,0.7867 -0.27159,0.47564 -0.5033,-0.31106 -2.71033,0.73609 -4.90451,2.327 -2.19418,1.5909 -5.46594,3.6659 -7.27058,4.61112 -1.80464,0.94521 -3.51403,2.64636 -3.79864,3.78033 -0.2846,1.13397 0.40442,8.97131 1.53117,17.4163 1.12675,8.44499 2.04863,17.11629 2.04863,19.26955 0,2.65487 0.51142,4.11126 1.5889,4.52473 0.87389,0.33534 3.01139,2.02214 4.75,3.74843 1.7386,1.72629 4.7361,4.31178 6.6611,5.74552 1.925,1.43374 4.59872,3.57288 5.9416,4.75365 1.34287,1.18076 3.05375,1.91194 3.80193,1.62483 0.74819,-0.28711 1.0917,-0.0873 0.76335,0.44396 -0.32835,0.53128 1.11077,2.12539 3.19806,3.54248 7.63279,5.18199 12.75589,8.34114 13.04987,8.04716 0.16563,-0.16563 -0.16144,-1.51785 -0.72683,-3.00493 -2.10788,-5.54414 -0.0609,-18.34818 3.62137,-22.65233 0.74286,-0.86831 1.35884,-1.99331 1.36885,-2.5 0.0262,-1.32567 4.74122,-7.17958 10.12833,-12.57473 2.55559,-2.55941 4.35559,-5.03441 4,-5.5 -0.35559,-0.46559 -0.25224,-0.54224 0.22966,-0.17034 0.48191,0.37191 3.56428,-0.73287 6.84973,-2.45505 5.32657,-2.79212 6.91042,-3.13537 14.62381,-3.16925 7.10275,-0.0312 9.50558,0.38192 13.43126,2.30926 5.04652,2.47763 14.71901,11.30802 14.71901,13.43754 0,0.69096 0.77718,2.36587 1.72706,3.72202 1.8985,2.71049 1.91099,2.75494 3.30166,11.75199 0.95353,6.16888 0.16431,13.00263 -1.96435,17.00904 -0.50211,0.94504 -1.45309,3.84721 -2.11329,6.44926 -0.6602,2.60205 -1.81927,5.24465 -2.57572,5.87244 -0.75645,0.6278 -1.37536,1.66197 -1.37536,2.29816 0,2.57777 -7.20364,8.40892 -13.22507,10.70532 -5.29656,2.01996 -7.99002,2.38336 -17.27493,2.33071 -9.48854,-0.0538 -12.03054,-0.44597 -18.5,-2.85416 -6.93739,-2.58237 -22.8485,-10.31917 -24,-11.67004 -1.42261,-1.6689 -9.77367,-5.80643 -10.41834,-5.16176 -0.41158,0.41158 -0.59833,0.11012 -0.41499,-0.66992 0.18333,-0.78003 -0.57372,-1.90503 -1.68234,-2.5 -2.54227,-1.36436 -9.77463,-6.77997 -10.62253,-7.95418 -0.351,-0.48609 -1.20803,-0.53162 -1.90451,-0.10118 -0.72969,0.45098 -1.01636,0.3782 -0.67648,-0.17173 0.3244,-0.5249 -0.28107,-1.49824 -1.34549,-2.16298 -2.34287,-1.46315 -2.29891,-3.77986 -0.48971,25.80832 1.66849,27.28713 0.93536,37.67469 -3.2007,45.34999 -2.86367,5.3141 -7.80321,9.40469 -12.49491,10.34743 -1.5125,0.30392 -2.75222,0.83383 -2.75494,1.17758 -0.0119,1.51225 -9.0345,0.77067 -14.69606,-1.2079 z m 13.41436,-11.19341 c 3.58174,-1.85823 4.83012,-4.10892 6.81282,-12.28272 2.0647,-8.5119 1.74189,-24.64674 -1.08395,-54.17775 -1.4339,-14.98481 -1.9486,-17.67959 -3.59734,-18.83441 -1.80315,-1.26298 -3.12609,-2.41955 -8.99219,-7.86132 -1.29399,-1.20039 -3.92385,-4.01289 -5.84415,-6.25 -3.20257,-3.73095 -6.10102,-5.64416 -4.41306,-2.91298 0.44563,0.72104 0.27393,0.88282 -0.45729,0.4309 -0.64395,-0.39798 -0.91341,-1.14011 -0.59879,-1.64918 0.31462,-0.50906 -4.30736,-5.89864 -10.27108,-11.97684 -5.96371,-6.0782 -10.72396,-11.17043 -10.57833,-11.31605 0.14563,-0.14563 0.43235,-1.13746 0.63716,-2.20406 0.94551,-4.92406 1.33889,-5.11508 10.66644,-5.17957 10.72754,-0.0742 22.47841,-1.91859 24.01437,-3.76931 0.82499,-0.99405 0.81551,-3.39916 -0.0361,-9.16896 -0.63497,-4.30179 -1.52071,-10.97144 -1.96831,-14.82144 -0.99459,-8.55486 -3.95471,-26.44569 -4.71545,-28.5 -0.30551,-0.825 -0.7398,-3.075 -0.9651,-5 -0.22529,-1.925 -1.5148,-7.55 -2.86558,-12.5 -2.04606,-7.49791 -3.45563,-19.8652 -1.79511,-15.75 0.27741,0.6875 0.94344,1.25 1.48007,1.25 0.53663,0 0.65811,-0.5625 0.26996,-1.25 -0.56457,-1 -0.43638,-1 0.64099,0 0.74068,0.6875 2.10495,1.25 3.03169,1.25 3.4529,0 8.24055,9.72352 11.07851,22.5 2.49357,11.22604 6.48956,36.43622 7.42405,46.83735 0.45187,5.02941 1.17738,8.01895 2.02502,8.34422 1.13697,0.4363 3.98936,-1.52146 12.60833,-8.65381 0.9785,-0.80973 1.7791,-2.02487 1.7791,-2.70031 0,-0.67544 0.56516,-1.58793 1.25591,-2.02776 2.44669,-1.55791 6.84448,-8.32824 6.14496,-9.46008 -0.39044,-0.63175 -0.27787,-0.88162 0.25016,-0.55529 0.52802,0.32634 1.83397,-1.06663 2.9021,-3.09549 1.06812,-2.02886 2.50496,-4.2828 3.19296,-5.00876 0.688,-0.72596 1.53641,-2.52596 1.88536,-4 0.34895,-1.47404 1.66423,-4.93007 2.92285,-7.68007 4.43181,-9.68322 11.70023,-34.01114 13.59398,-45.5 1.38758,-8.41812 1.27435,-25.92827 -0.19924,-30.80899 -1.2752,-4.22366 -3.90865,-6.82247 -5.47788,-5.40583 -0.4355,0.39315 -0.46357,0.14498 -0.0624,-0.55149 0.40119,-0.69647 1.14833,-1.00742 1.66033,-0.69098 1.85348,1.14551 0.86632,-0.53982 -2.08405,-3.55801 -1.6904,-1.72925 -3.5156,-2.77484 -4.15451,-2.37997 -0.62676,0.38736 -0.87068,0.26923 -0.54204,-0.26251 1.18541,-1.91803 -10.42077,-4.84402 -18.7885,-4.73669 -13.06942,0.16763 -14.65866,0.34195 -22.57289,2.47599 -12.60634,3.39925 -20.44043,6.58242 -20.30179,8.24908 0.0808,0.97086 -0.55262,1.37598 -1.78132,1.13936 -1.94403,-0.37439 -9.18735,3.85336 -8.23446,4.80625 0.28809,0.28808 -0.29371,0.45629 -1.29287,0.37379 -1.03105,-0.0851 -1.69784,0.42271 -1.54189,1.17433 0.15112,0.72838 -0.14621,1.06415 -0.66073,0.74615 -0.51453,-0.31799 -2.15816,0.43606 -3.65251,1.67567 -3.56983,2.96129 -13.58075,12.75385 -13.03826,12.75385 0.23257,0 -0.93693,1.35978 -2.59888,3.02173 -1.82928,1.82927 -2.79001,3.62559 -2.43454,4.55194 0.32296,0.84161 0.22893,1.30878 -0.20896,1.03815 -0.73908,-0.45678 -4.64871,3.93265 -4.70692,5.28456 -0.0143,0.33199 -0.84896,1.83412 -1.85482,3.33807 -1.00585,1.50394 -1.89416,3.82326 -1.97401,5.15404 -0.0798,1.33077 -0.46352,2.22306 -0.85259,1.98285 -0.38908,-0.2402 -1.45773,1.01421 -2.37477,2.78758 -2.36107,4.5658 -7.51462,19.07761 -6.96883,19.62341 0.25068,0.25067 -0.15944,1.07098 -0.91138,1.82291 -1.19834,1.19834 -2.28422,5.4374 -6.50513,25.39476 -2.65167,12.53766 -3.97013,32.89127 -3.17409,49 0.76307,15.44183 5.29239,34.53985 7.9497,33.52015 1.18237,-0.45372 1.23793,-0.28053 0.28022,0.87344 -0.95339,1.14877 -0.46084,3.02095 2.43961,9.27289 5.16703,11.13756 9.44838,19.3615 11.87626,22.81278 2.45695,3.4926 3.14419,4.6507 6.95397,11.71843 1.57198,2.91627 3.65325,6.20231 4.62504,7.30231 0.97178,1.1 2.32383,3.125 3.00455,4.5 2.72818,5.51074 7.58127,11.93436 8.71133,11.53044 0.70872,-0.25332 0.97337,0.15961 0.64715,1.00972 -0.32868,0.85651 1.2088,3.19479 3.80092,5.78066 2.39407,2.38829 5.07546,5.20564 5.95863,6.26077 0.88317,1.05512 2.86996,2.81841 4.41508,3.91841 1.54512,1.1 3.41003,2.59464 4.14423,3.32143 0.73421,0.72678 1.34181,0.95178 1.35023,0.5 0.008,-0.45179 0.34592,-0.32434 0.75,0.28321 1.1687,1.7572 6.38045,4.14536 9.04656,4.14536 1.34276,0 3.54843,-0.57434 4.90149,-1.27631 z m 102.7583,-51.85135 c 5.14881,-2.75137 8.52834,-5.64521 8.52834,-7.30268 0,-0.72581 0.39752,-1.31966 0.88337,-1.31966 0.48585,0 1.18147,-1.0125 1.54582,-2.25 3.12503,-10.61415 3.62898,-13.64361 3.01547,-18.12736 -0.873,-6.38015 -4.67842,-14.77725 -7.45327,-16.44646 -1.82599,-1.09844 -2.0851,-1.09844 -1.52188,0 0.37334,0.7281 0.0187,0.51634 -0.78806,-0.47058 -2.25907,-2.76349 -15.66523,-2.73302 -21.68145,0.0493 -6.50172,3.00683 -17.86835,16.53986 -16.62141,19.78934 0.32918,0.85781 0.22047,1.32602 -0.24157,1.04046 -0.46204,-0.28555 -1.38339,1.29425 -2.04744,3.51067 -1.06246,3.54618 -0.96025,4.54036 0.85161,8.28317 2.01304,4.15838 8.96801,9.41366 10.88793,8.22709 0.46065,-0.2847 0.83755,0.16753 0.83755,1.00496 0,1.09072 -0.65427,1.35837 -2.3067,0.94364 -1.62819,-0.40865 -2.16178,-0.2013 -1.81402,0.70494 2.13502,5.56378 19.22917,7.01036 27.92571,2.36319 z m -102.4107,-62.49269 c -0.86635,-6.03746 -1.90948,-11.3115 -2.31807,-11.72009 -0.40859,-0.40859 -0.74298,-0.33039 -0.74308,0.17377 -1.1e-4,0.50417 -2.3333,1.05693 -5.18488,1.22837 -3.35105,0.20146 -5.67601,0.90879 -6.57396,2 -0.76411,0.92856 -1.12119,1.15303 -0.79351,0.49882 0.36895,-0.73663 -0.15448,-1.13296 -1.37487,-1.04104 -1.61785,0.12187 -1.75599,0.42099 -0.77161,1.67089 3.79138,4.81407 7.08477,7.93926 7.86101,7.45951 0.48816,-0.30169 0.76391,-0.14207 0.61279,0.35473 -0.32918,1.08208 9.4062,11.25157 10.26384,10.72152 0.32863,-0.2031 -0.11132,-5.30902 -0.97766,-11.34648 z m -61.6794,-125.68159 c 0.34149,-0.88992 0.17385,-1.29132 -0.39301,-0.94098 -0.5437,0.33602 -0.98855,1.0344 -0.98855,1.55194 0,1.43843 0.71677,1.12146 1.38156,-0.61096 z m 349.89864,204.58201 c -0.4291,-0.34671 -3.4802,-1.68741 -6.7802,-2.97932 -3.3,-1.29191 -6.7104,-2.95684 -7.5787,-3.69984 -1.9815,-1.69553 -3.2699,-1.75157 -2.32,-0.10091 0.4179,0.72624 0.3379,0.90083 -0.191,0.41667 -0.5007,-0.45834 -0.9103,-1.13334 -0.9103,-1.5 0,-1.0338 -4.3811,-5.16667 -5.4769,-5.16667 -0.5374,0 -1.7551,-1.2375 -2.7061,-2.75 -0.951,-1.5125 -2.9836,-4.22501 -4.5169,-6.0278 -1.5333,-1.8028 -3.7212,-5.10735 -4.862,-7.34345 -1.9948,-3.91018 -2.1471,-3.99961 -3.9825,-2.33855 -1.0496,0.9499 -1.6245,2.18648 -1.2775,2.74796 0.347,0.56147 0.1701,0.73604 -0.3932,0.38793 -0.5632,-0.3481 -2.3203,0.50106 -3.9045,1.88704 -3.6674,3.20847 -17.055,11.42897 -17.6476,10.83634 -0.2463,-0.24629 -1.017,0.23807 -1.7127,1.07636 -0.6958,0.8383 -2.1257,1.52417 -3.1777,1.52417 -1.052,0 -2.9094,0.62329 -4.1276,1.38508 -4.5937,2.87277 -22.1573,4.09756 -30.0452,2.09518 -5.7566,-1.46133 -16.6696,-7.77003 -16.6696,-9.63651 0,-0.52898 -0.45,-0.68367 -1,-0.34375 -0.55,0.33992 -1,-0.005 -1,-0.76667 0,-0.76159 -1.0125,-2.33838 -2.25,-3.504 -1.2375,-1.16561 -3.1457,-3.83155 -4.2404,-5.92431 -1.0948,-2.09276 -2.2198,-4.03002 -2.5,-4.30502 -1.9389,-1.90243 -2.015,-22.60016 -0.1108,-30.13852 2.0092,-7.95434 9.1382,-19.18095 13.478,-21.22486 6.01,-2.83058 10.0094,-2.96176 17.2768,-0.56669 3.7655,1.24098 7.5568,2.85792 8.4251,3.5932 1.9389,1.64184 3.2935,1.74805 2.3258,0.18236 -0.4456,-0.72104 -0.2739,-0.88282 0.4573,-0.4309 0.644,0.39798 0.9719,1.04549 0.7287,1.43891 -0.2431,0.39341 0.5371,1.49219 1.7337,2.44172 8.8184,6.99718 13.1658,11.00555 16.3012,15.02987 1.9895,2.55363 3.9377,4.44495 4.3293,4.20293 0.3916,-0.24202 0.7297,0.10266 0.7514,0.76597 0.022,0.6633 0.15,1.65601 0.2851,2.20601 0.1351,0.55 0.1924,2.28564 0.1272,3.85699 -0.085,2.04462 -0.5265,2.70037 -1.5538,2.30618 -0.7895,-0.30295 -1.5915,-0.0824 -1.7824,0.49015 -0.2371,0.71141 -1.6917,0.67885 -4.5948,-0.10285 -2.5252,-0.67997 -3.9833,-1.57174 -3.5956,-2.19908 0.8231,-1.33181 -12.5942,-14.96793 -13.9209,-14.14797 -0.539,0.33308 -0.7031,0.15763 -0.3647,-0.38988 0.3384,-0.54752 -0.7813,-2.02801 -2.4882,-3.28999 -1.7069,-1.26197 -2.7829,-1.77585 -2.3912,-1.14195 0.3918,0.6339 -0.9568,0.0199 -2.9968,-1.36453 -2.04,-1.38439 -4.7163,-2.51707 -5.9474,-2.51707 -5.4173,0 -12.8021,5.19743 -10.6974,7.52884 0.3931,0.4355 0.1896,0.49117 -0.4523,0.12373 -1.9055,-1.09085 -4.3099,8.03308 -4.4792,16.99719 -0.1225,6.49044 0.2622,8.93368 1.8896,12 1.1238,2.11763 2.5748,3.72659 3.2243,3.57546 0.6496,-0.15112 0.8801,0.21215 0.5123,0.80729 -0.606,0.98059 2.9302,4.90283 8.1675,9.05921 6.4774,5.14045 23.5829,5.30447 31.1252,0.29845 1.5001,-0.99565 3.6274,-1.95376 4.7274,-2.12914 1.1,-0.17538 2.15,-0.75585 2.3333,-1.28995 0.1834,-0.53409 0.728,-0.97108 1.2102,-0.97108 1.3988,0 15.7558,-10.10301 19.4355,-13.67673 2.3495,-2.28176 3.1926,-3.86325 2.8197,-5.28915 -0.2926,-1.11877 -0.9154,-2.03412 -1.3839,-2.03412 -0.4686,0 -0.593,-0.675 -0.2764,-1.5 0.3166,-0.825 0.1756,-1.5 -0.3133,-1.5 -0.4889,0 -0.984,-1.14885 -1.1002,-2.55301 -0.1162,-1.40415 -0.6643,-3.39957 -1.2181,-4.43426 -0.5537,-1.03468 -1.0068,-2.81083 -1.0068,-3.94699 0,-1.13616 -0.4766,-2.06574 -1.059,-2.06574 -0.5825,0 -0.848,-0.3414 -0.5902,-0.75866 0.2579,-0.41726 0.052,-2.77976 -0.4575,-5.25 -0.5096,-2.47024 -1.3206,-6.74134 -1.8024,-9.49134 -0.4817,-2.75 -1.359,-7.475 -1.9495,-10.5 -3.1641,-16.20939 -6.1363,-69.26706 -3.9558,-70.6147 0.3805,-0.23515 0.6998,-4.08849 0.7096,-8.56298 0.01,-4.47449 0.4875,-8.60499 1.0614,-9.17888 0.5739,-0.57389 1.0499,-3.09094 1.058,-5.59344 0.01,-2.5025 0.6697,-6.43055 1.4706,-8.72901 0.8008,-2.29845 1.5818,-5.96739 1.7354,-8.15319 0.1537,-2.1858 0.5959,-3.77917 0.9827,-3.54082 0.3869,0.23835 1.1924,-1.49271 1.7901,-3.84681 2.1913,-8.63069 7.3489,-16.86783 15.6725,-25.03017 1.5423,-1.5125 3.2082,-2.75 3.7019,-2.75 0.4937,0 1.6464,-0.86332 2.5615,-1.91849 1.154,-1.33058 3.948,-2.23556 9.1173,-2.95315 8.1332,-1.12903 13.3566,-0.40464 17.726,2.45828 1.5001,0.98289 2.7274,1.62599 2.7274,1.42911 0,-0.19688 2.1886,1.73901 4.8635,4.30198 2.675,2.56297 5.375,4.36783 6,4.01079 0.6251,-0.35705 0.8261,-0.30407 0.4466,0.11771 -0.7033,0.78184 -0.043,1.79626 3.9399,6.05646 1.2375,1.32352 2.25,2.72892 2.25,3.12312 0,0.39419 0.6036,1.42714 1.3412,2.29545 2.0047,2.35971 10.6588,22.41088 10.6588,24.69603 0,1.09049 0.4457,2.42839 0.9904,2.97311 0.5447,0.54472 1.2579,3.22222 1.5849,5.95 0.327,2.72778 0.8282,5.6346 1.1137,6.4596 1.316,3.80312 2.3865,32.16579 1.186,31.42311 -0.3437,-0.21265 -0.6587,0.61766 -0.6999,1.84513 -0.1375,4.09716 -0.8658,9.42203 -1.4132,10.33201 -0.2977,0.49486 -1.3081,3.82475 -2.2454,7.39975 -0.9372,3.575 -2.1649,7.46959 -2.7282,8.65465 -0.5633,1.18505 -0.6766,2.71708 -0.2517,3.40451 0.4996,0.8084 0.3646,0.99784 -0.3821,0.53633 -0.635,-0.39244 -1.2107,-0.23697 -1.2795,0.34549 -0.2323,1.96844 -0.4426,2.55317 -1.7989,5.00194 -0.7441,1.34361 -2.8899,5.39361 -4.7683,9 -1.8785,3.60639 -3.8412,6.98458 -4.3616,7.50708 -1.4961,1.50216 -1.1054,2.4747 0.8038,2.00065 20.4491,-5.07737 33.5484,-5.72537 48.4844,-2.39844 5.0673,1.12872 11.1947,2.92872 13.6165,4 2.4219,1.07129 5.0211,1.94779 5.7762,1.94779 0.7551,0 1.3729,0.472 1.3729,1.04889 0,0.57689 1.7493,1.83206 3.8872,2.78926 4.1533,1.85948 7.7997,5.64975 10.4978,10.91185 0.9165,1.7875 2.1048,3.25 2.6407,3.25 0.5359,0 0.8986,0.3375 0.806,0.75 -0.093,0.4125 0.1767,2.40668 0.5984,4.43151 0.5782,2.77628 0.2236,5.1122 -1.4424,9.5 -1.215,3.20017 -2.2557,6.57295 -2.3127,7.49507 -0.057,0.92212 -0.5336,1.4108 -1.0592,1.08596 -0.5498,-0.33975 -0.676,0.13825 -0.2972,1.12535 0.3622,0.94379 0.2481,1.46232 -0.2536,1.15229 -0.5016,-0.31003 -1.8771,0.7916 -3.0566,2.44806 -1.1795,1.65647 -2.7586,3.01176 -3.5091,3.01176 -0.7505,0 -1.6503,0.90048 -1.9996,2.00106 -0.3493,1.10059 -1.5173,2.47316 -2.5954,3.05017 -1.0782,0.57702 -1.6532,1.54607 -1.2778,2.15345 0.3963,0.64122 0.2273,0.82302 -0.4029,0.43352 -0.597,-0.36895 -1.3726,-0.20614 -1.7236,0.3618 -0.351,0.56794 -1.0345,0.78768 -1.5189,0.4883 -0.4844,-0.29937 -1.4247,0.48079 -2.0896,1.73369 -0.6649,1.25291 -2.045,2.8713 -3.0669,3.59643 -1.0219,0.72513 -1.556,1.80716 -1.1868,2.40451 0.4003,0.6478 0.2061,0.79866 -0.4812,0.37383 -1.1454,-0.70785 -7.1566,2.22993 -7.1566,3.49753 0,0.36469 -1.4625,1.25374 -3.25,1.97567 -1.7875,0.72192 -3.5997,1.88342 -4.0272,2.5811 -0.4274,0.69768 -2.3609,1.56563 -4.2966,1.92877 -1.9357,0.36313 -3.2776,0.90209 -2.982,1.19767 0.8969,0.89694 -8.3355,4.86113 -19.4442,8.34891 -9.3137,2.92419 -11.8806,3.31007 -22.7198,3.41536 -6.7208,0.0653 -12.5708,-0.16498 -13,-0.5117 z m 21.1851,-12.5546 c 10.3499,-1.9805 15.3417,-3.46886 19.0347,-5.67548 1.65,-0.98588 3.675,-1.79475 4.5,-1.79747 0.825,-0.003 2.8223,-1.14212 4.4384,-2.53197 1.6161,-1.38986 4.0911,-2.79837 5.5,-3.13002 1.4089,-0.33165 3.4616,-1.35607 4.5616,-2.27648 1.1,-0.92041 4.2089,-2.76882 6.9086,-4.10757 2.6998,-1.33876 7.2829,-4.68914 10.1848,-7.44529 2.9018,-2.75616 6.6555,-6.28683 8.3413,-7.84596 1.6859,-1.55912 3.0653,-3.40187 3.0653,-4.09501 0,-0.69313 0.9516,-2.11749 2.1148,-3.16523 7.5666,-6.81605 1.3618,-16.38205 -14.4419,-22.26535 -11.3269,-4.2167 -23.475,-6.37974 -32.1729,-5.72856 -20.1194,1.50628 -28.8582,7.15532 -30.1473,19.48822 -0.6039,5.77845 1.2567,22.09999 2.5195,22.10141 0.3453,3.8e-4 0.6878,1.04646 0.7611,2.3246 0.1976,3.44443 5.2181,13.14304 8.5877,16.58949 3.3176,3.39337 2.9069,6.39211 -0.4658,3.40034 -2.0122,-1.78493 -2.0258,-1.77627 -0.8197,0.52051 1.5357,2.92434 0.7275,3.81984 -2.187,2.4232 -1.2367,-0.59262 -3.036,-1.32918 -3.9985,-1.63679 -1.1621,-0.37139 -1.75,-1.5843 -1.75,-3.61023 0,-2.66273 -0.3011,-2.99634 -2.3667,-2.62179 -1.9017,0.34485 -2.7858,-0.31658 -4.5,-3.36659 -1.1733,-2.08767 -2.1333,-4.74699 -2.1333,-5.9096 0,-1.16262 -0.5626,-2.11385 -1.2502,-2.11385 -0.6876,0 -2.0177,-2.5875 -2.9558,-5.75 -2.4487,-8.25517 -2.6862,-9.82089 -2.8818,-19 -0.097,-4.5375 -0.5666,-8.25 -1.044,-8.25 -0.4775,0 -0.8682,0.51536 -0.8682,1.14524 0,1.28431 -18.8147,20.03199 -22.5786,22.49822 -1.3318,0.87261 -2.4214,2.20188 -2.4214,2.95394 0,1.48426 7.8076,14.72862 8.9466,15.17644 0.383,0.15062 3.2058,2.62562 6.2729,5.5 5.6176,5.26476 11.7805,8.63808 11.7805,6.44817 0,-0.60735 0.5625,-0.38122 1.25,0.5025 2.3632,3.03765 8.7974,3.43581 20.2153,1.25096 z m -40.9226,-17.40637 c -0.3164,-0.512 -0.193,-1.1672 0.2743,-1.45601 0.4673,-0.28881 0.8497,0.13009 0.8497,0.9309 0,1.68617 -0.3154,1.83349 -1.124,0.52511 z m -8.4946,-28.53735 c 1.8986,-1.90754 4.2394,-3.48254 5.2019,-3.5 0.9835,-0.0178 1.7549,-0.79826 1.7612,-1.78175 0.01,-0.9625 3.3552,-5.20538 7.4424,-9.42862 4.0871,-4.22325 9.0958,-10.18575 11.1304,-13.25 2.0345,-3.06426 4.3104,-5.57138 5.0576,-5.57138 0.7471,0 1.3584,-0.9 1.3584,-2 0,-1.1 0.3975,-2 0.8834,-2 0.4858,0 1.1478,-0.7875 1.4709,-1.75 0.7281,-2.16821 2.5979,-4.99923 4.8957,-7.41225 0.9625,-1.01076 1.75,-2.68265 1.75,-3.71531 0,-1.03265 0.675,-2.43775 1.5,-3.12244 0.825,-0.68469 1.5,-2.03469 1.5,-3 0,-0.96531 0.6736,-2.31413 1.4968,-2.99738 1.7074,-1.41695 4.7461,-10.80053 3.9269,-12.12603 -0.2979,-0.48212 -0.035,-0.87659 0.5847,-0.87659 0.6548,0 0.8718,-0.80207 0.5183,-1.91584 -0.3344,-1.05372 -0.1324,-2.20981 0.4489,-2.5691 0.5814,-0.35929 0.7981,-1.07216 0.4817,-1.58416 -0.3164,-0.51199 -0.1715,-0.9309 0.322,-0.9309 0.8423,0 2.9473,-15.28058 3.1684,-23 0.055,-1.925 0.3627,-4.34385 0.6834,-5.37523 0.3362,-1.08099 0.1741,-1.62242 -0.3826,-1.27834 -0.5769,0.35655 -1.2428,-3.07185 -1.6536,-8.51427 -0.3783,-5.01115 -1.3499,-10.39149 -2.1591,-11.95632 -0.8092,-1.56482 -1.625,-4.08955 -1.8129,-5.61049 -0.4449,-3.60085 -6.5527,-16.42677 -7.5338,-15.8204 -0.4157,0.25689 -0.7616,-0.0756 -0.7687,-0.73894 -0.034,-3.19219 -7.5733,-11.99954 -16.1634,-18.88248 -2.6242,-2.10268 -8.5681,-2.79314 -14.3946,-1.67212 -5.1406,0.98906 -6.2086,1.65523 -10.2642,6.40237 -8.093,9.47301 -13.7764,24.61466 -17.6209,46.94622 -1.8086,10.50543 -1.8561,53.32585 -0.074,67 2.141,16.43094 5.7851,35.48096 8.1298,42.5 0.4593,1.375 1.417,4.525 2.1282,7 2.1235,7.39007 2.1442,7.39756 6.987,2.53175 z m -23.0481,-80.03175 c 0,-0.825 -0.1769,-1.5 -0.393,-1.5 -0.2162,0 -0.652,0.675 -0.9686,1.5 -0.3166,0.825 -0.1398,1.5 0.393,1.5 0.5327,0 0.9686,-0.675 0.9686,-1.5 z m 536.5,125.37454 c -14.7598,-0.76931 -25.7253,-2.42256 -29.6996,-4.47777 -1.6542,-0.85542 -3.9735,-1.68711 -5.154,-1.84821 -4.1133,-0.56131 -10.1638,-3.79932 -12.6464,-6.76791 -5.1665,-6.17783 -5.5006,-12.48997 -0.9191,-17.36675 1.2462,-1.32652 1.8139,-2.77514 1.3694,-3.49438 -0.497,-0.80413 -0.3448,-0.97238 0.4405,-0.48703 1.5018,0.9282 13.3419,-10.38362 12.6784,-12.11273 -0.257,-0.66985 0.082,-1.00705 0.7537,-0.74934 1.7111,0.65659 8.003,-8.11167 9.9647,-13.88644 0.9609,-2.82876 1.3901,-6.12984 1.0401,-8 -0.6786,-3.6255 -4.7324,-9.52267 -7.1835,-10.45001 -0.9043,-0.34213 -2.2647,-1.23562 -3.0231,-1.98553 -0.7585,-0.7499 -1.9669,-1.13786 -2.6854,-0.86213 -0.7186,0.27574 -1.4493,0.0727 -1.624,-0.45108 -0.5919,-1.77573 -14.4354,-6.70772 -26.2959,-9.36837 -18.0559,-4.05043 -34.6821,-3.64272 -45.3569,1.11224 -2.0124,0.89639 -3.9964,1.56029 -4.4089,1.47534 -0.4125,-0.0849 -0.75,0.24678 -0.75,0.73715 0,0.49038 -1.1929,1.19099 -2.6508,1.55691 -1.458,0.36593 -3.5089,1.75609 -4.5575,3.08924 -1.0487,1.33316 -2.2183,2.32005 -2.5992,2.19309 -1.5822,-0.52739 -21.1925,19.48384 -21.1925,21.62575 0,1.69807 -27.3882,28.69659 -31.7502,31.2985 -2.361,1.40828 -3.9592,3.00611 -3.5955,3.59458 0.3843,0.62181 0.1786,0.7651 -0.498,0.34692 -1.1121,-0.68729 -5.5671,1.65928 -4.7333,2.49311 0.2257,0.22567 -0.5647,0.48737 -1.7563,0.58155 -1.1917,0.0942 -4.2734,0.48674 -6.8483,0.87234 -3.7138,0.55617 -5.5742,0.26831 -9,-1.39254 -4.1257,-2.00023 -5.5566,-3.95193 -7.3253,-9.99163 -1.3365,-4.56414 3.3005,-23.86263 10.7108,-44.57627 2.1807,-6.09573 4.275,-12.87179 4.6539,-15.05791 1.2809,-7.38983 9.1954,-8.83102 12.3354,-2.24623 1.7422,3.65339 1.8231,3.33816 -7.0518,27.47863 -3.134,8.52473 -7.1414,25.24282 -7.1414,29.79231 0,2.21602 0.321,2.4875 2.25,1.90269 3.3793,-1.02451 9.75,-4.70761 9.75,-5.63677 0,-0.44872 0.675,-0.81586 1.5,-0.81586 0.825,0 1.5,-0.45 1.5,-1 0,-0.55 0.45,-1 1,-1 0.55,0 1.7994,-0.7875 2.7765,-1.75 0.9771,-0.9625 3.2719,-2.99616 5.0996,-4.51925 1.9672,-1.6393 3.0992,-3.35267 2.7744,-4.19907 -0.3249,-0.84667 -0.06,-1.24773 0.6504,-0.98334 0.6595,0.24556 2.7741,-1.09094 4.6991,-2.97002 8.7988,-8.58892 14.0947,-14.61614 13.5776,-15.45277 -0.3101,-0.50171 0.5581,-1.19378 1.9293,-1.53793 1.3712,-0.34415 2.4931,-1.00743 2.4931,-1.47397 0,-0.91908 8.8644,-10.06448 13.68,-14.11365 5.3003,-4.45675 14.7097,-10.48975 19.32,-12.38728 2.475,-1.01868 5.4,-2.22332 6.5,-2.67698 1.1,-0.45365 5.825,-1.28837 10.5,-1.85493 17.6261,-2.13607 46.652,3.44821 63.6727,12.24994 2.3558,1.21823 3.2985,1.30009 4.2378,0.36801 0.9414,-0.93422 1.0621,-0.81563 0.5471,0.53734 -0.4756,1.24931 0.01,1.99118 1.7318,2.64583 1.3161,0.50034 2.9919,1.6316 3.7241,2.51389 0.7323,0.8823 1.9654,1.60418 2.7403,1.60418 0.7749,0 1.6995,0.7875 2.0546,1.75 0.3552,0.9625 0.9273,1.975 1.2714,2.25 0.3442,0.275 1.6462,2.17937 2.8934,4.23192 6.5518,10.78275 1.9729,27.90967 -11.019,41.21543 -2.1198,2.17104 -3.8542,4.26813 -3.8542,4.6602 0,0.39207 -1.8286,3.02618 -4.0635,5.85359 -2.2349,2.8274 -3.9174,5.89957 -3.7388,6.82704 0.1977,1.02647 3.0595,2.78823 7.3135,4.50237 7.2955,2.93966 21.1949,5.112 39.4888,6.17175 5.225,0.30268 12.425,0.76514 16,1.02769 3.575,0.26256 14.15,0.75789 23.5,1.10075 19.46839,0.71391 26.21289,1.48338 25.49999,2.90926 -0.2826,0.56528 -3.3065,0.85706 -6.9558,0.6712 -5.1009,-0.2598 -6.7082,0.0164 -7.65859,1.31608 -1.3558,1.85423 -10.3992,2.74064 -14.1262,1.38461 -1.5728,-0.57226 -2.1688,-0.45114 -2,0.40645 0.1594,0.80948 -1.362,1.26933 -4.5094,1.36296 -2.6125,0.0777 -4.75,-0.28634 -4.75,-0.80902 0,-0.52267 -0.4573,-0.66766 -1.0163,-0.3222 -0.559,0.34546 -0.7735,1.02095 -0.4768,1.50109 0.5796,0.93788 -14.5584,0.87706 -34.0069,-0.13663 z m 63.49999,-1.87454 c 0,-0.55 0.675,-1 1.5,-1 0.825,0 1.5,0.45 1.5,1 0,0.55 -0.675,1 -1.5,1 -0.825,0 -1.5,-0.45 -1.5,-1 z m -1586.44112,-6.5318 c -1.06762,-0.80751 -2.97155,-1.4682 -4.23095,-1.4682 -1.68494,0 -2.44931,-0.72643 -2.8936,-2.75 -0.33208,-1.5125 -1.52969,-6.35 -2.66134,-10.75 -1.13166,-4.4 -2.2696,-9.2375 -2.52877,-10.75 -0.25916,-1.5125 -0.89669,-2.75 -1.41673,-2.75 -0.52003,0 -0.67222,-0.44219 -0.3382,-0.98265 0.33402,-0.54046 -0.77427,-5.60296 -2.46287,-11.25 -13.1514,-43.98116 -17.09928,-71.95219 -14.09223,-99.84453 0.67732,-6.28255 1.62324,-13.23324 2.10205,-15.44597 0.47881,-2.21273 0.96823,-5.81273 1.0876,-8 0.11936,-2.18727 0.5276,-4.42685 0.9072,-4.97685 1.95391,-2.83106 6.96897,-20.86521 6.96897,-25.0604 0,-5.58419 2.6569,-16.97473 4.68195,-20.07222 1.29101,-1.9747 4.76843,-3.3166 9.93215,-3.8327 1.60468,-0.16039 1.99826,0.23166 1.63337,1.62701 -0.61685,2.35882 0.24341,2.31608 4.33977,-0.21561 4.08389,-2.52398 10.00487,-3.07852 13.63256,-1.27677 1.4959,0.74295 3.10827,1.23379 3.58305,1.09075 0.47478,-0.14303 2.65808,1.31494 4.85177,3.23994 4.72943,4.15014 8.58773,12.02118 10.29396,21 0.67936,3.575 1.63104,7.625 2.11486,9 0.48381,1.375 1.12011,8.35 1.414,15.5 0.29388,7.15 0.93602,16.375 1.42697,20.5 0.49095,4.125 0.88629,8.4 0.87853,9.5 -0.008,1.1 0.0711,13.00386 0.17511,26.45302 0.16466,21.27943 0.36214,24.06977 1.52162,21.5 4.6865,-10.3867 6.46458,-14.68359 8.46358,-20.45302 1.23867,-3.575 2.63799,-7.4 3.10961,-8.5 2.82181,-6.58155 3.87494,-9.80781 3.43427,-10.52082 -0.27478,-0.4446 -0.14993,-0.95929 0.27743,-1.14377 0.42737,-0.18448 1.89267,-3.21197 3.25623,-6.72776 3.04111,-7.84115 6.11859,-10.50834 10.62803,-9.21112 2.15307,0.61938 3.51964,0.54179 4.32143,-0.24535 0.64493,-0.63315 1.04794,-0.70118 0.89558,-0.15118 -0.15237,0.55 0.48475,2.42906 1.41582,4.17569 3.13364,5.8785 5.21307,22.89218 7.73232,63.26503 0.56424,9.04239 1.91692,20.81308 3.00596,26.15708 1.08904,5.344 1.98007,10.65818 1.98007,11.80928 0,3.43662 2.46789,2.38144 5.04503,-2.15708 1.32731,-2.3375 2.31018,-4.5875 2.18414,-5 -0.12605,-0.4125 0.22083,-0.75 0.77083,-0.75 0.55,0 1,-0.85186 1,-1.89301 0,-2.71599 2.42251,-3.26233 4.37164,-0.98592 1.46899,1.71566 1.5255,2.73883 0.47848,8.66219 -0.653,3.69421 -2.10238,8.51674 -3.22084,10.71674 -1.11846,2.2 -1.9426,4.3375 -1.83142,4.75 0.11118,0.4125 -0.13536,0.66816 -0.54786,0.56813 -0.4125,-0.10002 -2.58944,0.39931 -4.83764,1.10964 -3.52853,1.11486 -4.52017,1.06784 -7.25,-0.34381 -1.7393,-0.89943 -3.16236,-2.24366 -3.16236,-2.9872 0,-0.74353 -0.64246,-1.88507 -1.4277,-2.53675 -3.75899,-3.11969 -7.3575,-26.92775 -10.52978,-69.6659 -1.11054,-14.96166 -2.00335,-21.39411 -2.96944,-21.39411 -0.89179,0 -3.07308,6.11924 -3.07308,8.621 0,1.08845 -0.39452,2.4065 -0.87671,2.929 -0.48219,0.5225 -1.80021,3.65 -2.92893,6.95 -2.50992,7.3382 -6.19271,16.31266 -10.38774,25.31355 -2.82771,6.06717 -8.84797,11.91598 -13.08309,12.71049 -2.7199,0.51026 -4.32981,0.11839 -7.35294,-1.78979 l -3.87059,-2.44308 0.75585,-16.39559 c 1.55234,-33.67254 -0.42647,-80.77624 -4.23859,-100.89558 -2.4427,-12.89194 -6.46962,-20 -11.33058,-20 -2.76471,0 -9.68668,4.59412 -9.68668,6.42906 0,0.74633 -0.63985,1.6025 -1.42189,1.90259 -0.78204,0.3001 -2.67293,2.71074 -4.20198,5.35699 -1.52906,2.64625 -3.25171,5.13412 -3.82812,5.5286 -1.4481,0.99106 -1.22727,46.44259 0.28804,59.28276 1.52763,12.94459 5.85401,46.06747 7.15481,54.77745 0.5567,3.7276 1.48894,12.268 2.07163,18.97866 0.58269,6.71067 1.36951,12.43582 1.74848,12.72255 0.37896,0.28674 0.72904,2.54634 0.77794,5.02134 0.0489,2.475 0.4569,11.15088 0.90666,19.27972 0.79779,14.41907 0.76458,14.82926 -1.36109,16.80962 -1.19835,1.11644 -1.91729,2.45306 -1.59764,2.97027 0.79315,1.28335 0.30949,1.13873 -1.97797,-0.59141 z m -13.51889,-86.4682 c -0.66832,-6.325 -1.6009,-13.75 -2.0724,-16.5 -0.4715,-2.75 -1.11934,-7.925 -1.43964,-11.5 -0.32031,-3.575 -1.13263,-11 -1.80516,-16.5 l -1.22278,-10 -0.5,8.5 c -0.53448,9.08622 0.24799,22.0404 1.87251,31 0.54848,3.025 1.2721,7.75 1.60805,10.5 0.33595,2.75 1.02029,6.575 1.52075,8.5 0.50047,1.925 1.2288,5.3 1.61851,7.5 1.37643,7.7702 1.65389,0.17596 0.42016,-11.5 z m 1250.14632,74.28293 c -1.2025,-1.49438 -2.1863,-3.94282 -2.1863,-5.44098 0,-1.49815 -0.4102,-2.97742 -0.9115,-3.28726 -0.5215,-0.32229 -0.5566,-1.7382 -0.082,-3.30901 1.6507,-5.46473 5.7157,-24.24568 5.2478,-24.24568 -0.2637,0 -3.3983,3.15261 -6.9658,7.0058 -3.5675,3.85318 -7.5368,7.26945 -8.8207,7.59169 -1.4658,0.3679 -2.1351,1.10538 -1.7987,1.982 0.3265,0.85082 -0.6735,2.08438 -2.5603,3.15831 -1.7028,0.96921 -3.0988,2.3247 -3.1023,3.0122 0,0.6875 -0.6116,1.25 -1.3513,1.25 -1.7636,0 -4.8667,3.45492 -3.9377,4.384 0.397,0.39694 0.013,0.44973 -0.8533,0.11732 -0.8662,-0.33242 -3.1025,0.2858 -4.9695,1.37382 -5.0753,2.95775 -9.8734,3.50558 -15.6578,1.78778 -2.7846,-0.82691 -5.3287,-1.23758 -5.6537,-0.91259 -0.325,0.32499 -1.6016,-0.35864 -2.8369,-1.51917 -1.2354,-1.16054 -2.6211,-2.09981 -3.0794,-2.08728 -0.4584,0.0125 -1.1334,-0.31186 -1.5,-0.72087 -0.3667,-0.40901 -0.1042,-0.41996 0.5833,-0.0243 0.6875,0.39564 1.25,0.24279 1.25,-0.33967 0,-0.58246 -0.3987,-1.05902 -0.8861,-1.05902 -2.2622,0 -4.4828,-7.68816 -4.4769,-15.5 0.01,-7.60086 0.4874,-9.93986 5.9964,-29.11911 0.8087,-2.81551 1.1856,-6.25392 0.8375,-7.64091 -0.3602,-1.43511 -0.1601,-2.81403 0.4644,-3.19998 0.6035,-0.37301 0.8416,-1.09195 0.5291,-1.59764 -0.3152,-0.50992 0.2343,-0.63088 1.2337,-0.27158 0.991,0.35634 1.4915,0.30328 1.1121,-0.1179 -1.123,-1.24675 2.5724,-4.47941 5.876,-5.14012 2.4382,-0.48764 3.3753,-0.16305 4.6074,1.59595 0.8506,1.21446 2.009,1.9223 2.5742,1.57299 1.4184,-0.87662 0.9208,0.91975 -4.4091,15.9183 -5.6053,15.77326 -7.5493,25.24724 -6.5204,31.77681 0.8816,5.59436 3.0592,7.64631 8.1625,7.69139 5.085,0.0449 10.5061,-1.93488 8.7456,-3.19395 -1.0086,-0.72133 -0.8974,-0.81787 0.4431,-0.3848 1.9096,0.61689 5.6903,-1.07628 7.0102,-3.13945 0.4398,-0.6875 1.2041,-1.25 1.6985,-1.25 1.4685,0 6.2275,-4.82573 5.6618,-5.74115 -0.2868,-0.46402 0.4532,-0.9171 1.6445,-1.00683 1.1912,-0.0897 2.2979,-0.55926 2.4593,-1.0434 0.3975,-1.19255 6.8641,-8.20862 7.5657,-8.20862 0.3079,0 2.8326,-2.3625 5.6106,-5.25 11.5242,-11.97854 13.288,-13.60404 14.3973,-13.2686 0.6394,0.19336 2.3728,0.61586 3.8519,0.93889 2.2788,0.49769 2.7898,1.25757 3.3478,4.97835 0.6604,4.40436 0.4289,5.54202 -5.9236,29.10136 -1.3347,4.95 -2.2465,9.18474 -2.0262,9.41054 0.6398,0.6559 4.5353,-3.14482 6.5129,-6.35439 1.5263,-2.47725 1.9176,-2.67336 2.4687,-1.23727 0.3602,0.93863 0.1014,2.37346 -0.575,3.18853 -0.6765,0.81506 -0.9844,2.42097 -0.6843,3.56867 0.3002,1.1477 -0.053,4.0751 -0.7841,6.50533 -0.7314,2.43022 -1.0821,4.41859 -0.7793,4.41859 0.3027,0 -0.8622,1.35 -2.5888,3 -4.3365,4.14424 -10.7595,4.27432 -13.9711,0.28293 z m -809.58329,-9.11626 c -0.28327,-0.45834 0.12038,-0.83334 0.89699,-0.83334 0.77661,0 1.18026,0.375 0.89699,0.83334 -0.28326,0.45833 -0.68691,0.83333 -0.89699,0.83333 -0.21008,0 -0.61373,-0.375 -0.89699,-0.83333 z m 786.85589,-0.2332 c -0.3626,-0.58659 -0.4447,-1.281 -0.1826,-1.54313 0.2622,-0.26213 0.7431,0.21781 1.0688,1.06653 0.6762,1.76211 0.1,2.07206 -0.8862,0.4766 z M -126.91505,488.5123 c -8.84383,-4.61384 -11.80917,-12.23259 -11.90063,-30.57594 -0.0514,-10.30819 0.39377,-14.30136 2.53618,-22.74969 2.5139,-9.91322 7.86512,-22.85116 11.78624,-28.49624 1.04799,-1.50874 1.61854,-3.20739 1.26787,-3.77477 -0.35066,-0.56738 -0.26661,-0.91599 0.18677,-0.77469 1.44816,0.45133 5.16854,-3.44977 4.62953,-4.85441 -0.30368,-0.79137 0.14785,-1.35295 1.08781,-1.35295 0.88385,0 1.60699,-0.525 1.60699,-1.16667 0,-0.64166 0.2744,-0.89227 0.60977,-0.55689 0.33538,0.33538 2.24122,-0.26462 4.23519,-1.33333 4.72015,-2.52985 11.19968,-2.47659 19.22512,0.15803 6.37766,2.09368 17.92992,9.29637 17.92992,11.17908 0,0.54474 1.0125,1.97772 2.25,3.1844 5.5416,5.4036 6.14488,6.89197 6.09425,15.03538 -0.0269,4.32443 -0.78315,7.6246 -2.70809,11.81748 -1.46893,3.19962 -2.36846,6.30665 -1.99896,6.90451 0.38967,0.63051 0.20948,0.80129 -0.42906,0.40665 -0.62703,-0.38753 -2.20526,0.94487 -3.66665,3.09549 -1.41117,2.07673 -2.89781,3.71033 -3.30363,3.63023 -0.40582,-0.0801 -2.66974,0.98651 -5.03092,2.37025 -3.7467,2.19572 -5.01937,2.43261 -10,1.86138 -3.13882,-0.35998 -6.4623,-0.73553 -7.38551,-0.83454 -0.92322,-0.099 -1.65743,-0.42109 -1.63158,-0.71574 0.21424,-2.4423 -0.33679,-5.06293 -0.98086,-4.66487 -0.43506,0.26888 -0.61082,-1.05457 -0.39059,-2.94099 0.32551,-2.78827 0.82757,-3.42985 2.68402,-3.42985 1.25598,0 2.56472,0.73259 2.90831,1.62797 0.48157,1.25495 1.45546,1.49315 4.25039,1.0396 4.66685,-0.75733 7.83039,-3.76875 11.43911,-10.88905 4.68111,-9.23622 3.78379,-15.14668 -3.38581,-22.30178 -6.39039,-6.37747 -15.18643,-9.07262 -20.91737,-6.40919 -7.00781,3.25685 -16.5338,22.9367 -19.78733,40.87887 -2.02171,11.14903 -1.28101,31.95731 1.0855,30.49473 0.48503,-0.29976 0.6569,0.0412 0.38194,0.75776 -0.84634,2.20555 5.21145,4.23774 9.40757,3.15593 2.0888,-0.53852 3.49925,-1.47493 3.34049,-2.21778 -0.15112,-0.70715 0.13172,-1.03449 0.62854,-0.72744 1.39647,0.86306 7.25761,-2.4204 6.50224,-3.64261 -0.37384,-0.6049 -0.20038,-0.78887 0.39617,-0.42017 0.94862,0.58627 11.63897,-7.18741 13.48252,-9.80406 0.40408,-0.57353 0.74158,-0.69613 0.75,-0.27246 0.008,0.42368 1.70281,-0.0839 3.76531,-1.12796 5.80813,-2.94013 9.60348,-3.43933 13.56485,-1.78417 1.93711,0.80938 3.85588,1.1724 4.26391,0.8067 0.40804,-0.36569 0.45321,-0.15906 0.10038,0.45917 -0.35282,0.61823 0.47503,1.96254 1.83968,2.98735 1.36465,1.02481 2.48118,2.43148 2.48118,3.12594 0,0.69446 0.45,1.26265 1,1.26265 0.55,0 1,0.64296 1,1.4288 0,2.22558 6.29746,8.35677 9.37737,9.12978 3.27633,0.8223 8.06683,-1.03083 7.02451,-2.71734 -0.44146,-0.71431 -0.26994,-0.87773 0.45256,-0.4312 1.4049,0.86828 5.36864,-0.24008 4.70407,-1.31537 -0.25879,-0.41874 0.10146,-0.76134 0.80056,-0.76134 1.66175,0 12.64093,-6.57222 12.64093,-7.56696 0,-0.4215 0.8632,-0.76637 1.91821,-0.76637 2.70449,0 5.15933,-1.06551 4.58729,-1.99109 -0.26565,-0.42984 0.41193,-1.01556 1.50575,-1.3016 2.0695,-0.54119 2.74345,0.70822 0.97244,1.80277 -0.55897,0.34546 -0.77137,1.02444 -0.47199,1.50885 0.29937,0.4844 -0.35797,1.36361 -1.46077,1.95381 -1.1028,0.59021 -2.53089,2.07528 -3.17352,3.30018 -1.16141,2.21371 -1.15555,2.21564 0.97708,0.32209 1.23198,-1.09386 2.14551,-1.40408 2.14551,-0.72856 0,0.64704 -1.125,1.68901 -2.5,2.3155 -1.375,0.6265 -2.5,1.53487 -2.5,2.01862 0,1.09687 -8.02061,8.79943 -9.16277,8.79943 -0.46048,0 -0.83723,0.675 -0.83723,1.5 0,0.83333 -0.88889,1.5 -2,1.5 -1.1,0 -2,0.37797 -2,0.83994 0,1.43101 -8.26623,3.65958 -13,3.50479 -6.13221,-0.20052 -8,-0.53998 -8,-1.45398 0,-0.42675 -0.91202,-0.60028 -2.02671,-0.38561 -1.11469,0.21467 -1.77328,-0.0197 -1.46353,-0.52094 0.30976,-0.50119 -1.25322,-2.72766 -3.47329,-4.94773 -2.22006,-2.22006 -4.03753,-4.37397 -4.03882,-4.78647 -0.004,-1.41025 -5.55558,-7.25 -6.89172,-7.25 -1.62302,0 -9.10593,4.11447 -9.10593,5.00689 0,0.35123 -2.1375,1.69462 -4.75,2.98532 -2.6125,1.29069 -4.975,2.64321 -5.25,3.00559 -0.48703,0.64178 -4.42159,2.7744 -10.5,5.69124 -1.65,0.79178 -3.78139,1.86066 -4.73643,2.37528 -2.62032,1.41196 -11.90454,1.11067 -14.96433,-0.48563 z m -273.19672,-8.74458 c 0.28353,-0.45876 0.0738,-0.83411 -0.46595,-0.83411 -1.4918,0 -2.90185,-5.66173 -3.48669,-14 -0.28933,-4.125 -1.38181,-9.975 -2.42773,-13 -1.85387,-5.36177 -2.00461,-5.50765 -5.99763,-5.80436 -3.428,-0.25472 -4.29254,0.0714 -5.30134,2 -0.66296,1.2674 -3.87911,4.89186 -7.147,8.05436 -3.26789,3.1625 -5.57356,5.75 -5.12371,5.75 1.36512,0 -6.94597,4.21852 -10.09672,5.12487 -3.4413,0.98992 -13.55575,0.0164 -13.55575,-1.30476 0,-0.85403 -0.84324,-2.04208 -3.75,-5.28339 -0.76379,-0.85169 -1.2423,-4.24169 -1.23019,-8.71529 0.0168,-6.20165 0.45956,-10.35003 2.43588,-22.82143 0.13074,-0.825 0.72008,-2.625 1.30965,-4 1.83392,-4.27707 2.55827,-6.47122 2.39342,-7.25 -0.0873,-0.4125 0.3178,-0.75 0.90026,-0.75 0.58246,0 0.7809,-0.45 0.44098,-1 -0.33992,-0.55 -0.12175,-1 0.48482,-1 0.60657,0 0.97336,-0.56388 0.8151,-1.25308 -0.15827,-0.68919 0.722,-2.67115 1.95616,-4.40437 1.23416,-1.73321 2.24392,-3.59618 2.24392,-4.13993 0,-0.54375 0.675,-1.24766 1.5,-1.56425 0.825,-0.31658 1.5,-1.19498 1.5,-1.952 0,-0.75702 0.88939,-2.18128 1.97642,-3.16503 1.08703,-0.98375 1.6925,-2.24802 1.34549,-2.8095 -0.3667,-0.59333 -0.13583,-0.71487 0.55126,-0.29022 0.68889,0.42575 2.32091,-0.44865 3.91112,-2.0955 7.58597,-7.85616 11.17161,-9.43398 16.67978,-7.33978 1.42684,0.54248 3.90002,1.08583 5.49595,1.20744 1.59593,0.1216 2.8203,0.47394 2.72083,0.78297 -0.0995,0.30903 0.83165,1.65054 2.06915,2.98112 1.2375,1.33059 2.25,2.81096 2.25,3.28971 0,0.47875 0.51953,0.54937 1.15451,0.15693 0.7153,-0.44208 0.88306,-0.27432 0.44098,0.44098 -0.39244,0.63498 -0.37077,1.7091 0.0482,2.38693 0.41892,0.67783 0.83537,1.91533 0.92544,2.75 1.08679,10.07148 3.9812,27.01758 4.61463,27.01758 0.44896,0 0.81629,2.50408 0.81629,5.56462 0,3.22105 0.81486,7.53789 1.93482,10.25 2.1546,5.21761 4.06518,13.75989 4.06518,18.17558 0,3.63987 1.70345,4.77716 3.53473,2.35994 1.71262,-2.26059 1.8776,-3.72301 0.31076,-2.75465 -0.7153,0.44208 -0.88306,0.27432 -0.44098,-0.44098 0.39244,-0.63498 1.24947,-1.15497 1.90451,-1.15553 0.65504,-5.6e-4 2.39596,-2.13806 3.86872,-4.75 1.47275,-2.61194 3.61025,-5.74266 4.75,-6.95717 1.13974,-1.2145 2.07226,-2.8469 2.07226,-3.62755 0,-0.78065 0.69548,-1.99657 1.54551,-2.70203 0.85003,-0.70546 1.27625,-1.98435 0.94715,-2.84196 -0.3291,-0.85762 -0.28158,-1.24252 0.10561,-0.85533 0.81627,0.81626 3.32299,-2.17026 3.36993,-4.01494 0.0175,-0.6875 0.8193,-2.08146 1.7818,-3.09769 0.9625,-1.01623 2.65,-3.11922 3.75,-4.6733 2.20005,-3.10822 6.63265,-7.47901 7.58479,-7.47901 0.33288,0 1.34931,0.82219 2.25873,1.82709 1.54957,1.71226 1.49646,1.97461 -0.84501,4.17431 -1.37423,1.29098 -2.49856,2.94379 -2.49856,3.67291 0,0.72913 -0.45,1.32569 -1,1.32569 -0.55,0 -1,0.675 -1,1.5 0,0.825 -0.47656,1.5 -1.05902,1.5 -0.58246,0 -0.7809,0.45 -0.44098,1 0.33992,0.55 0.1718,1 -0.3736,1 -0.54539,0 -1.30057,1.0125 -1.67816,2.25 -0.3776,1.2375 -1.56413,4.2063 -2.63673,6.59733 -1.0726,2.39104 -1.71541,4.58211 -1.42846,4.86905 0.28694,0.28694 -0.15774,1.20117 -0.98818,2.03161 -0.83044,0.83044 -1.27313,2.12687 -0.98377,2.88095 0.28937,0.75408 0.13427,1.37106 -0.34466,1.37106 -0.47893,0 -1.38062,1.4625 -2.00375,3.25 -1.34564,3.86013 -1.35598,4.25 -0.11269,4.25 0.5225,0 1.48131,0.53131 2.1307,1.1807 0.9076,0.9076 0.86134,1.1324 -0.2,0.97188 -0.75939,-0.11485 -2.02914,-0.61334 -2.82168,-1.10775 -0.86265,-0.53815 -1.57201,-0.52686 -1.76744,0.0281 -0.17956,0.50988 -1.42772,2.72705 -2.77369,4.92705 -1.34598,2.2 -3.20061,5.41873 -4.1214,7.15274 -0.92078,1.73401 -2.84918,3.7131 -4.28532,4.39799 -2.94415,1.40404 -15.30471,2.07144 -14.50865,0.78338 z m -42.24538,-24.33411 c 0.825,-0.825 1.86965,-1.50419 2.32143,-1.50931 1.13563,-0.0129 13.32143,-12.66604 13.32143,-13.83235 0,-0.5194 0.73941,-1.2281 1.64313,-1.57489 0.90372,-0.34679 1.38633,-0.88732 1.07248,-1.20118 -0.74437,-0.74436 6.08346,-6.73551 7.99605,-7.01621 0.80938,-0.1188 1.66906,-0.41345 1.91041,-0.65479 0.24134,-0.24135 0.44429,-5.11261 0.451,-10.82504 0.0154,-13.14863 -2.48482,-22.31645 -6.13875,-22.50921 -1.28216,-0.0676 -2.85705,0.38236 -3.49974,1 -0.6427,0.61764 -2.2409,2.04405 -3.55156,3.1698 -10.36953,8.90659 -18.64064,27.91572 -19.46871,44.74408 -0.58116,11.81051 0.23309,13.91884 3.94283,10.2091 z m 628.97619,-6.95601 c 0,-0.80081 0.38234,-1.21971 0.84965,-0.9309 0.4673,0.28881 0.59075,0.94401 0.27431,1.45601 -0.80862,1.30838 -1.12396,1.16106 -1.12396,-0.52511 z M -87.33487,436.55419 c 0.12615,-0.85948 0.50862,-1.84195 0.84993,-2.18327 0.34132,-0.34131 0.51737,0.0826 0.39123,0.94211 -0.12615,0.85948 -0.50862,1.84195 -0.84993,2.18327 -0.34132,0.34131 -0.51737,-0.0826 -0.39123,-0.94211 z m 772.17558,-20.70963 c 0.202,-0.32673 -1.1602,-2.07443 -3.027,-3.88378 -4.0299,-3.90594 -5.1852,-6.52582 -6.39,-14.49054 -1.183,-7.82018 0.463,-11.74629 8.2705,-19.7268 2.5141,-2.56989 3.3954,-2.88557 6.5,-2.32848 1.9753,0.35446 4.154,1.37717 4.8415,2.27269 2.2306,2.90553 1.1802,9.81594 -1.6275,10.70707 -2.6512,0.84145 -5.4794,7.00429 -4.7919,10.44176 0.8953,4.47674 3.5213,10.30664 4.3984,9.76511 0.4241,-0.26178 0.9031,1.52974 1.0646,3.98115 l 0.2936,4.45711 -4.9496,-0.30062 c -2.7224,-0.16534 -4.7845,-0.56794 -4.5826,-0.89467 z M -407.17158,388.00271 c -0.31644,-0.512 -0.19299,-1.1672 0.27431,-1.45601 0.46731,-0.28881 0.84965,0.13009 0.84965,0.9309 0,1.68617 -0.31534,1.83349 -1.12396,0.52511 z M 227.41683,304.5916 c -0.61257,-0.7381 -0.78017,-1.7098 -0.37244,-2.15933 0.40772,-0.44953 -0.0233,-0.54354 -0.95775,-0.20892 -1.2175,0.43596 -1.53869,0.19046 -1.13322,-0.86619 0.44017,-1.14705 0.87847,-1.21515 1.97324,-0.30657 0.77406,0.64241 1.17541,1.39999 0.89189,1.68351 -0.28352,0.28352 -0.0143,1.1194 0.59828,1.8575 0.61257,0.73811 0.88877,1.34201 0.61377,1.34201 -0.275,0 -1.0012,-0.6039 -1.61377,-1.34201 z"
       id="path2996"
       inkscape:connector-curvature="0" />
  </g>
</svg>
