<?xml version="1.0" encoding="UTF-8" standalone="no"?>
<!-- Created with Inkscape (http://www.inkscape.org/) -->

<svg
   xmlns:dc="http://purl.org/dc/elements/1.1/"
   xmlns:cc="http://creativecommons.org/ns#"
   xmlns:rdf="http://www.w3.org/1999/02/22-rdf-syntax-ns#"
   xmlns:svg="http://www.w3.org/2000/svg"
   xmlns="http://www.w3.org/2000/svg"
   xmlns:sodipodi="http://sodipodi.sourceforge.net/DTD/sodipodi-0.dtd"
   xmlns:inkscape="http://www.inkscape.org/namespaces/inkscape"
   width="607.63287"
   height="163.54843"
   id="svg3263"
   version="1.1"
   inkscape:version="0.48.2 r9819"
   sodipodi:docname="New document 27">
  <defs
     id="defs3265" />
  <sodipodi:namedview
     id="base"
     pagecolor="#ffffff"
     bordercolor="#666666"
     borderopacity="1.0"
     inkscape:pageopacity="0.0"
     inkscape:pageshadow="2"
     inkscape:zoom="0.35"
     inkscape:cx="304.53072"
     inkscape:cy="224.63136"
     inkscape:document-units="px"
     inkscape:current-layer="layer1"
     showgrid="false"
     fit-margin-top="10"
     fit-margin-left="10"
     fit-margin-right="10"
     fit-margin-bottom="10"
     inkscape:window-width="469"
     inkscape:window-height="455"
     inkscape:window-x="75"
     inkscape:window-y="75"
     inkscape:window-maximized="0" />
  <metadata
     id="metadata3268">
    <rdf:RDF>
      <cc:Work
         rdf:about="">
        <dc:format>image/svg+xml</dc:format>
        <dc:type
           rdf:resource="http://purl.org/dc/dcmitype/StillImage" />
        <dc:title></dc:title>
      </cc:Work>
    </rdf:RDF>
  </metadata>
  <g
     inkscape:label="Layer 1"
     inkscape:groupmode="layer"
     id="layer1"
     transform="translate(-70.469276,-593.44512)">
    <g
       transform="matrix(1.25,0,0,-1.25,80.468967,746.99393)"
       inkscape:label="Untitled-14"
       id="g3279">
      <path
         id="path3281"
         style="fill:#000000;fill-opacity:1;fill-rule:nonzero;stroke:none"
         d="m 157.8569,53.9456 c 8.0461,0 27.11,9.6389 27.11,9.6389 0,0 19.652,7.746 22.814,8.9731 2.278,0.8841 14.37,2.882 7.498,-2.221 -4.2619,-3.1651 -14.247,-12.1802 -12.238,-15.186 2.0091,-3.0081 33.6302,7.31 37.9542,10.2418 4.3268,2.9311 15.6568,5.0483 23.9108,5.1353 4.418,0.0459 12.4222,1.4828 13.814,-3.9552 0.8261,-3.2309 -0.9459,-15.4519 3.14,-11.5228 4.089,3.9299 6.1262,10.944 6.1262,10.944 0,0 5.599,7.433 8.4328,5.4229 2.8361,-2.01 6.0262,-1.8071 6.0262,-1.8071 0,0 12.0648,-1.127 17.4739,-1.205 5.4059,-0.0771 17.6981,1.664 19.2761,4.8201 13.4739,8.782 -3.9291,-12.0291 0,-13.8569 3.9269,-1.8272 18.6749,3.6147 18.6749,3.6147 0,0 8.504,3.6482 15.6649,6.0242 37.724,15.1418 51.4241,30.8359 60.6092,37.2609 7.6978,5.381 14.51,-1.9829 -4.581,-13.7659 -4.6401,-2.5991 -27.114,-11.41 -21.6902,-18.675 4.104,-2.802 29.9001,9.192 36.148,15.0611 6.2521,5.868 41.669,6.7669 18.072,-4.2163 -5.7098,-1.2418 -24.7958,-9.6397 -27.1089,-9.6397 -7.848,-2.8602 -11.9259,-4.8351 -9.0371,-13.8572 0,-1.9349 1.8082,-15.0599 1.8082,-15.0599 l 3.011,-18.6769 c 0,0 2.196,-13.843 2.8599,-15.9852 2.347,-7.5778 -4.8351,-16.8808 -5.8709,-7.5089 -1.036,9.369 -7.8321,38.5548 -7.8321,38.5548 0,0 -1.766,27.3152 -6.025,27.1111 -4.2591,-0.2029 -6.1731,-0.8798 -12.0501,-6.025 -5.8709,-5.146 -10.7598,-9.959 -18.6378,-10.1801 -4.515,4.5162 10.929,15.3882 6.7779,16.5833 -6.7881,1.9528 -27.8991,-10.0182 -27.8991,-10.0182 0,0 -25.426,-10.34 -32.535,-6.0239 -7.105,4.314 -0.4629,7.719 -1.8068,10.2418 -1.343,2.5223 -24.097,-3.1439 -24.097,-1.205 -4.085,0 -10.6881,2.1093 -13.2531,-6.0239 -1.3881,-6.2498 -10.243,-8.157 -10.243,-8.437 -11.7139,0 -4.3951,13.627 -9.6389,16.268 -5.243,2.6402 -22.0491,-0.7169 -24.7,-11.446 -2.6532,-10.73 -3.9101,-8.57 -12.0473,-7.2289 -3.3148,5.724 2.1612,9.3651 -0.6049,10.8439 -2.764,1.478 -19.669,-4.6638 -24.7008,-6.6279 -5.0312,-1.963 -12.3072,-2.6181 -13.2531,3.0129 -0.947,5.6322 2.3539,6.982 2.4089,8.4342 -3.7698,-0.102 -23.7348,-9.591 -28.9168,-10.2433 -5.182,-0.65 -16.8012,-4.8878 -21.689,-8.4328 -4.8881,-3.545 -17.1181,-4.4861 -7.6371,5.2438 6.9369,7.1221 20.175,18.9542 22.6979,21.2641 2.5242,2.3111 14.46,12.6511 14.46,12.6511 0,0 14.9641,9.4668 16.8682,16.2669 -16.1731,0.483 -32.1302,-8.873 -38.5572,-11.4469 -6.4258,-2.5741 -53.617,-19.279 -53.617,-19.279 0,0 -21.7259,-7.1331 -27.11,-9.6381 C 68.7311,55.6577 45.6389,45.0266 37.9689,43.1016 30.299,41.1775 15.99,31.2565 4.1139,29.5135 c -14.9828,-2.1989 15.7822,13.4529 15.7822,12.9849 2.3258,0.7773 16.2658,7.2292 16.2658,7.2292 0,0 22.4852,9.6401 28.315,12.6519 5.8291,3.0121 30.122,10.5642 30.122,10.2421 2.221,0 22.8952,8.434 22.8952,8.434 l 27.108,9.64 28.3158,10.3419 c 0,0 45.4731,14.7221 46.9911,13.756 5.7251,-1.4859 1.5531,-6.4309 -6.0251,-9.6401 -7.577,-3.2088 -11.9548,-11.1988 -16.867,-13.8557 -4.913,-2.658 -17.473,-14.4592 -17.473,-14.4592 0,0 -20.5619,-12.5419 -21.687,-22.8929 0.4011,0 0.4121,3.7871 0,0"
         inkscape:connector-curvature="0" />
    </g>
  </g>
</svg>
