<?xml version="1.0" encoding="UTF-8" standalone="no"?>
<!-- Created with Inkscape (http://www.inkscape.org/) -->

<svg
   xmlns:dc="http://purl.org/dc/elements/1.1/"
   xmlns:cc="http://creativecommons.org/ns#"
   xmlns:rdf="http://www.w3.org/1999/02/22-rdf-syntax-ns#"
   xmlns:svg="http://www.w3.org/2000/svg"
   xmlns="http://www.w3.org/2000/svg"
   xmlns:sodipodi="http://sodipodi.sourceforge.net/DTD/sodipodi-0.dtd"
   xmlns:inkscape="http://www.inkscape.org/namespaces/inkscape"
   width="639.44635"
   height="131.23985"
   id="svg3307"
   version="1.1"
   inkscape:version="0.48.2 r9819"
   sodipodi:docname="New document 31">
  <defs
     id="defs3309" />
  <sodipodi:namedview
     id="base"
     pagecolor="#ffffff"
     bordercolor="#666666"
     borderopacity="1.0"
     inkscape:pageopacity="0.0"
     inkscape:pageshadow="2"
     inkscape:zoom="0.53014612"
     inkscape:cx="319.72318"
     inkscape:cy="65.619926"
     inkscape:document-units="px"
     inkscape:current-layer="layer1"
     showgrid="false"
     fit-margin-top="10"
     fit-margin-left="10"
     fit-margin-right="10"
     fit-margin-bottom="10"
     inkscape:window-width="469"
     inkscape:window-height="455"
     inkscape:window-x="175"
     inkscape:window-y="175"
     inkscape:window-maximized="0" />
  <metadata
     id="metadata3312">
    <rdf:RDF>
      <cc:Work
         rdf:about="">
        <dc:format>image/svg+xml</dc:format>
        <dc:type
           rdf:resource="http://purl.org/dc/dcmitype/StillImage" />
        <dc:title></dc:title>
      </cc:Work>
    </rdf:RDF>
  </metadata>
  <g
     inkscape:label="Layer 1"
     inkscape:groupmode="layer"
     id="layer1"
     transform="translate(-385.99111,-581.02797)">
    <g
       transform="matrix(1.25,0,0,-1.25,395.99082,702.268)"
       inkscape:label="Untitled-17"
       id="g3323">
      <path
         id="path3325"
         style="fill:#000000;fill-opacity:1;fill-rule:nonzero;stroke:none"
         d="m 48.1034,69.0106 c 10.214,-0.798 1.781,-14.0448 -1.59,-18.2319 -4.0921,-5.0839 -8.5921,-10.688 -13.394,-14.891 0,-1.6871 -6.025,-7.7451 -7.624,-9.026 -1.306,-1.7799 -5.9582,-6.4531 -5.9582,-8.4989 -1.2719,-1.8791 -2.5838,-4.132 -3.6218,-6.4391 -0.6171,-1.3709 -2.2232,-3.949 -1.1982,-5.478 1.4732,-2.196 6.5081,0.606 8.191,1.205 7.6382,2.7201 14.9063,6.5361 21.9532,10.2739 4.9708,1.658 10.131,5.1701 14.546,7.9741 1.163,0.2909 2.2348,1.457 3.2788,2.0631 2.6912,1.5639 3.8322,-0.841 2.359,-3.0892 -2.6067,-3.981 -6.1109,-7.9988 -7.1067,-12.8089 -1.1631,-5.62 3.1688,-5.6279 7.2518,-4.0411 5.0091,1.391 10.77,4.1111 13.9332,8.4121 1.2047,1.004 3.5319,5.1701 5.0819,5.1701 0,-2.1291 -2.588,-5.4782 -4.0311,-6.923 -3.926,-3.4872 -6.7899,-6.0191 -11.3239,-8.6602 -3.1351,-1.826 -9.8952,-4.642 -13.3021,-2.2748 -4.5309,3.1468 1.332,10.838 1.4839,14.7609 0.1962,5.0519 -10.2458,-2.1161 -11.7329,-3.0371 -0.699,-1.398 -5.8969,-3.077 -7.355,-3.8829 -3.246,-1.7951 -6.717,-3.1521 -9.995,-4.8801 -3.7539,-1.9808 -7.793,-4.4039 -12.054,-5.038 -1.8369,-0.273 -4.407,-0.3759 -5.711,1.2441 -1.7269,2.147 0.502,4.1239 0.502,6.1611 7.875,17.739 22.8019,29.4358 34.441,44.6009 2.4621,3.2091 7.7411,11.446 -0.3059,11.384 -6.2232,-0.048 -13.8892,-4.4059 -19.326,-7.1779 -6.6371,-3.384 -12.6681,-7.4892 -18.3141,-11.6541 -1.1529,-1.226 -2.2289,-2.4001 -3.793,-3.136 -2.3361,-1.1001 -4.593,0.476 -2.6538,2.8919 2.5528,3.1822 6.7419,5.2611 10.1469,7.3531 5.6109,3.4461 11.6691,6.601 17.6811,9.2769 3.4307,1.5251 6.8998,2.9231 10.4439,4.144 1.7578,0.6061 3.5589,1.0752 5.3289,1.6401 0.873,0.2781 3.073,0.0749 3.7681,0.6129 z M 190.9352,10.6517 c 1.027,2.9679 5.6911,9.228 3.7681,12.18 -2.66,0.5629 -6.912,-5.455 -9.2971,-6.8301 -4.4348,-2.556 -9.72,-4.6358 -14.7129,-5.7878 -1.7711,-0.684 -5.0258,-2.1351 -7.0101,-1.4902 -3.4189,1.1132 -0.0298,5.7552 0.9641,7.361 0.8781,2.007 6.904,10.6991 3.2811,12.244 -2.5101,1.0712 -8.4552,-6.4318 -10.279,-7.924 -4.6962,-3.8409 -9.9471,-6.6929 -15.1722,-9.928 -1.9998,-1.2388 -12.8199,-6.713 -13.32,-2.418 -0.2168,1.8561 2.0792,4.3362 3.0682,5.747 1.863,2.6611 4.095,5.0292 6.0821,7.5931 1.2699,1.637 3.0739,3.7511 3.3899,5.889 0.377,2.5481 -2.425,2.842 -3.8611,4.087 -3.7689,3.265 -5.7529,4.7469 -10.987,2.8749 -4.8229,-1.7249 -8.8609,-5.0468 -12.3239,-8.7018 -0.758,0 -3.2792,-2.768 -4.0989,-3.308 -2.215,-1.4582 -4.6001,-1.5681 -7.1181,-0.8972 -6.6671,0.5562 -7.6,4.7242 -11.5512,8.816 -3.816,3.951 -6.2368,-3.539 -6.2368,-6.451 1.652,0.477 2.0398,1.4261 3.9288,0.6471 1.7552,-0.7231 3.1051,-2.1331 4.752,-3.0881 2.4381,-1.4139 10.2303,-1.2418 11.2981,-4.043 1.294,-3.3919 -4.2469,-7.746 0,-10.7779 3.7831,-2.7011 9.932,0.036 13.5059,1.6889 5.6852,2.6291 3.947,-2.0948 6.431,-4.7648 2.9432,-3.164 7.2881,0.885 10.3822,0.885 2.836,1.2589 5.5899,3.1269 8.189,4.794 2.355,1.5108 5.6231,4.3769 8.1969,5.021 1.5769,0.9938 3.157,1.9519 4.381,3.329 2.681,1.9769 6.6061,3.2989 4.382,-1.7521 -1.0159,-2.3049 -5.2971,-8.18 -1.9851,-10.2501 4.0862,-2.5549 11.238,1.1132 15.0752,2.715 3.377,1.4091 7.0399,3.4441 10.495,4.4331 4.2449,1.2161 2.1178,-6.9029 2.8781,-8.903 0.7268,-1.9171 2.0619,-2.9169 3.9509,-3.4991 0.8328,-0.256 3.8888,-0.347 2.2688,1.3402 -3.0279,3.1518 -3.6958,4.426 -2.715,9.1689 z m -65.194,2.8041 c -2.6118,-1.6161 -19.7399,-7.7071 -17.4379,-0.5261 1.3181,4.1099 5.7909,8.8951 9.201,11.3921 3.2051,2.3468 17.0971,12.6788 18.051,3.1539 1.069,-3.9561 -6.7731,-12.138 -9.8141,-14.0199 z m 369.6962,7.5359 c -0.5372,1.5681 -12.0552,-0.5179 -14.4581,0.087 -5.6781,0 -11.355,1.0381 -17.0269,1.351 -5.4541,0.3019 -10.11,3.6969 -6.9831,9.428 1.849,3.388 10.43,12.509 7.4211,16.7321 -2.833,3.975 -9.5261,-2.8531 -12.8279,-3.4991 -5.0931,-0.995 0.3058,6.6869 1.2889,8.2349 0.7758,3.104 4.1819,6.0191 4.994,9.2892 2.621,4.214 7.8271,9.934 8.9519,14.7078 1.2461,5.294 -5.885,1.1231 -5.885,-1.652 -1.234,-0.6168 -3.6539,-4.8059 -4.0301,-6.3088 -0.7849,-0.3932 -4.2939,-5.6962 -4.2939,-6.747 -0.8969,-0.4502 -2.9061,-4.3461 -3.1549,-5.3462 -1.5322,-2.408 -2.7162,-4.873 -4.0751,-7.3179 -2.8868,-5.1939 -4.669,-12.259 -9.1559,-16.3409 -3.693,-4.2182 -11.791,-5.904 -16.96,-7.5452 -3.4481,-1.0939 -32.4451,-8.6029 -29.7,0.504 1.3,4.312 5.925,7.7561 9.8561,9.4952 4.8699,0 10.7759,6.7558 12.8058,10.6038 3.9421,7.4721 -6.0679,5.885 -9.038,1.9262 -4.669,-3.3741 -7.022,-8.568 -11.069,-12.4932 -2.5739,-2.497 -10.645,-6.0519 -13.0519,-1.72 -1.3762,2.476 -0.269,4.8642 0.3371,7.3301 0.862,3.509 -1.8803,2.3899 -3.1173,0.3991 -2.6838,-4.3231 -5.563,-8.386 -9.3759,-11.6541 0,-0.858 -2.478,-2.9129 -2.9789,-3.5929 -2.253,-2.0021 -3.9339,-4.5952 -6.2521,-6.546 -1.029,-0.8672 -3.2661,-2.34 -3.8251,-0.201 -0.4328,1.6548 1.8321,4.117 2.5861,5.313 3.3531,5.3138 6.474,10.584 10.0491,15.76 3.8378,5.5559 7.577,11.0118 11.3748,16.4308 2.6252,1.754 3.3651,6.4842 5.87,8.149 0,0.3141 8.7361,12.4002 3.2242,10.6322 -3.4711,-1.1132 -6.192,-7.7621 -8.0431,-10.544 -6.8241,-10.2592 -13.0229,-20.448 -23.0709,-27.7351 -7.6932,-5.578 -17.5549,-11.7331 -27.2951,-13.085 -7.5208,-1.044 -7.5611,5.2889 -4.2258,9.8881 1.6268,1.2189 3.2598,4.214 3.9129,6.1268 0.8019,2.3471 -0.2761,6.1821 -3.3951,4.0482 -2.152,-1.4721 -3.6819,-3.9172 -4.7871,-6.2181 -1.0947,-2.281 -1.12,-5.2061 -2.6949,-7.249 -1.705,-2.2119 -4.4739,-2.763 -6.88,-3.8061 -3.818,-1.656 -7.6439,-3.2939 -11.4789,-4.9068 -3.374,-0.483 -11.558,-4.557 -14.03,-0.4992 -3.7072,6.0852 3.4888,12.6941 3.4259,18.529 -0.049,4.625 -9.2049,-3.4889 -10.1639,-4.0978 -4.3081,-1.0772 -7.7151,-5.9292 -12.005,-7.3601 -5.3711,-3.3449 -11.0551,-6.2161 -16.7372,-9.0261 -7.4769,-3.1748 0.1622,10.6971 1.1931,12.3491 3.1791,5.0919 6.0151,9.762 9.4371,14.404 5.3209,7.219 10.658,14.0411 16.009,21.179 4.951,3.5181 11.8729,3.0541 16.4231,7.6071 2.3008,2.3029 7.668,15.7989 -0.1242,12.4588 -4.678,-2.0038 -8.8319,-7.0849 -11.7179,-11.1659 -4.2,-5.9369 -11.749,-4.9159 -17.988,-2.7661 -2.0211,0.6962 -11.89,9.1471 -12.788,5.366 -0.64,-2.6929 7.8231,-7.276 9.6319,-7.9699 3.6292,-1.3921 15.0222,-1.491 9.9671,-7.6221 -3.2241,-3.9118 -6.472,-7.702 -9.3761,-11.8428 -3.932,-5.6081 -7.2269,-11.0671 -11.0169,-16.6621 0,-1.023 -3.6252,-6.237 -4.119,-6.4851 -1.686,-2.7218 -6.3901,-12.3579 -2.804,-14.2829 2.969,-1.5919 9.371,1.7841 11.8298,3.5059 0.3232,0.4841 4.4612,4.03 5.521,4.03 3.5201,2.3491 7.0271,4.2151 10.6022,6.484 1.5769,0.3951 2.679,2.16 4.206,2.5421 1.7139,1.095 8.746,5.5539 7.1859,-0.438 -0.8119,-4.3679 -2.81,-11.6779 3.0381,-13.4549 4.9879,-1.514 10.4749,1.3578 15.0568,3.0818 2.2771,0.8572 4.7421,2.1742 7.1411,2.5742 2.842,1.2089 6.5891,3.9588 9.786,2.825 2.2261,-0.7881 3.7199,-3.0711 6.0741,-3.877 2.4148,-0.826 5.106,-0.3121 7.528,0.1568 5.6049,1.0842 11.3451,4.574 16.234,7.361 2.8579,1.6291 5.4368,3.3262 8.2289,5.3192 2.113,1.5089 4.2702,0.9918 2.9951,-2.0412 -1.078,-2.5648 -2.736,-5.0069 -4.0541,-7.4659 -2.8341,-5.288 -5.849,-10.5341 -8.841,-15.7099 -1.0389,-1.7972 -3.823,-4.3951 -3.467,-6.639 0.65,-4.0952 5.559,1.7759 6.438,2.5458 0,0.7571 2.4682,2.895 2.979,3.592 1.8371,2.509 4.3701,4.498 6.222,7.0101 3.651,3.3911 6.9021,7.2301 9.902,11.304 2.8942,2.4809 4.8291,6.846 9.2151,3.475 2.2808,-1.7521 4.3079,-1.7989 7.0478,-2.3329 3.1272,-0.61 2.9931,-4.0612 3.365,-6.662 2.8721,-6.7822 15.1971,-2.7612 20.2411,-2.103 4.0459,1.2039 8.3789,2.6368 12.5311,3.329 3.1,0.9978 7.172,3.018 10.3839,3.1178 3.03,0.0941 5.612,-2.1529 8.2131,0.4711 2.334,2.3551 3.9319,5.3439 6.2799,7.693 2.5461,2.548 7.12,6.9911 10.4371,7.821 7.524,4.7821 3.82,-3.8409 1.497,-6.889 -4.907,-6.4369 -5.411,-13.0901 3.2468,-15.2731 6.516,-1.6438 13.8612,-2.2858 20.5801,-2.2858 1.942,-0.4881 17.216,-1.8372 15.5971,2.8919 z m -94.4612,21.2051 c 0.5071,1.3178 2.4713,2.975 3.5921,3.6808 1.383,0.87 3.8429,0.358 2.6541,-1.6288 -0.8691,-1.4542 -6.668,-6.2631 -6.2462,-2.052 z M 284.6083,78.1237 c 1.825,1.5661 4.089,4.9941 6.7471,3.3301 0.5799,-2.603 -1.6611,-4.3171 -3.7681,-5.4331 -1.8811,-0.995 -4.8229,-0.4431 -2.979,2.103"
         inkscape:connector-curvature="0" />
    </g>
  </g>
</svg>
