<?xml version="1.0" encoding="UTF-8" standalone="no"?>
<!-- Created with Inkscape (http://www.inkscape.org/) -->
<svg
   xmlns:dc="http://purl.org/dc/elements/1.1/"
   xmlns:cc="http://creativecommons.org/ns#"
   xmlns:rdf="http://www.w3.org/1999/02/22-rdf-syntax-ns#"
   xmlns:svg="http://www.w3.org/2000/svg"
   xmlns="http://www.w3.org/2000/svg"
   xmlns:sodipodi="http://sodipodi.sourceforge.net/DTD/sodipodi-0.dtd"
   xmlns:inkscape="http://www.inkscape.org/namespaces/inkscape"
   id="svg2757"
   sodipodi:version="0.32"
   inkscape:version="0.46"
   width="400"
   height="206"
   version="1.0"
   sodipodi:docname="Rachel Cohen-Kagan signature.svg"
   inkscape:output_extension="org.inkscape.output.svg.inkscape">
  <metadata
     id="metadata2762">
    <rdf:RDF>
      <cc:Work
         rdf:about="">
        <dc:format>image/svg+xml</dc:format>
        <dc:type
           rdf:resource="http://purl.org/dc/dcmitype/StillImage" />
      </cc:Work>
    </rdf:RDF>
  </metadata>
  <defs
     id="defs2760">
    <inkscape:perspective
       sodipodi:type="inkscape:persp3d"
       inkscape:vp_x="0 : 526.18109 : 1"
       inkscape:vp_y="0 : 1000 : 0"
       inkscape:vp_z="744.09448 : 526.18109 : 1"
       inkscape:persp3d-origin="372.04724 : 350.78739 : 1"
       id="perspective2764" />
  </defs>
  <sodipodi:namedview
     inkscape:window-height="751"
     inkscape:window-width="1280"
     inkscape:pageshadow="2"
     inkscape:pageopacity="0.0"
     guidetolerance="10.0"
     gridtolerance="10.0"
     objecttolerance="10.0"
     borderopacity="1.0"
     bordercolor="#666666"
     pagecolor="#ffffff"
     id="base"
     showgrid="false"
     inkscape:zoom="1.415"
     inkscape:cx="187.63251"
     inkscape:cy="103"
     inkscape:window-x="-4"
     inkscape:window-y="-4"
     inkscape:current-layer="svg2757" />
  <path
     style="fill:#000000"
     d="M 16.822738,190.25 C 11.108305,184.09086 12.525855,178.35633 22.077552,168.99226 C 26.718426,164.44255 29.005723,161.4303 29.017364,159.8529 C 29.026914,158.5588 29.728334,154.35 30.576074,150.5 C 31.47947,146.39725 32.248244,137.05082 32.433499,127.91822 C 32.61602,118.92046 33.225031,111.44804 33.874789,110.23396 C 34.493655,109.0776 35.019598,105.2894 35.043551,101.81574 C 35.067504,98.342084 35.473087,93.499969 35.944846,91.055486 C 36.434431,88.518641 36.420965,85.607221 35.913473,84.272417 C 35.40923,82.946158 35.398819,81.19065 35.889422,80.216931 C 37.674642,76.673736 38.788812,71.311036 38.947054,65.5 C 39.165161,57.490564 40.635829,52.075496 43.485383,48.789651 C 48.6727,42.808113 54.054748,44.929317 51.941115,52.122273 C 51.39522,53.980023 50.549139,57.975 50.060937,61 C 49.572734,64.025 48.409911,69.425 47.476886,73 C 46.543861,76.575 45.593219,83.1 45.364347,87.5 C 45.135476,91.9 44.718008,98.2 44.436642,101.5 C 44.155275,104.8 43.915321,111.1 43.903411,115.5 C 43.8915,119.9 43.458638,126.875 42.941496,131 C 42.424353,135.125 41.812041,141.94007 41.580802,146.1446 C 41.349563,150.34913 40.502047,155.07413 39.697432,156.6446 C 38.892818,158.21507 37.9226,161.80367 37.541391,164.61927 C 37.160182,167.43487 36.20742,170.97381 35.424142,172.48358 C 34.640864,173.99335 34,176.05062 34,177.05529 C 34,178.05996 33.601013,179.12855 33.113363,179.42994 C 32.625713,179.73132 31.932807,181.54463 31.573572,183.45952 C 29.93819,192.17685 22.000653,195.83087 16.822738,190.25 z M 349.9817,124.33115 C 348.34177,122.95123 347,121.0345 347,120.07174 C 347,118.4214 353.37977,111.68425 357.01095,109.5 C 357.92529,108.95 361.31595,105.36516 364.54574,101.5337 C 369.72414,95.390605 370.49576,93.908589 371.07543,88.992343 C 371.43697,85.926064 372.03197,82.474638 372.39764,81.322508 C 372.86397,79.853242 372.28078,78.298708 370.44462,76.116553 C 368.31679,73.587768 367.32818,73.123615 365.16337,73.637 C 363.69852,73.98439 361.73063,74.936513 360.79029,75.75283 C 357.0606,78.990618 349.2777,74.014024 350.49374,69.168936 C 350.86061,67.707175 351.67159,65.895713 352.2959,65.143465 C 354.43085,62.571003 363.78806,59 368.39382,59 C 372.32137,59 373.41426,59.507706 376.70789,62.862321 C 383.97805,70.267089 384.87708,72.093405 385.5215,80.766461 C 385.90882,85.979214 385.74629,89.038768 385.05952,89.463217 C 384.47678,89.823367 384,90.977619 384,92.028223 C 384,98.60448 363.99043,122.74248 356.11209,125.67004 C 353.29057,126.71851 352.65359,126.57939 349.9817,124.33115 z M 147,104.25407 C 142.8142,102.1563 141.84616,98.687881 144.97859,97.011457 C 146.13357,96.393331 147.85645,96.019376 148.8072,96.180447 C 152.26351,96.76599 159.63102,93.462986 165.30192,88.785526 C 168.49297,86.153487 171.90203,84 172.8776,84 C 174.77081,84 178.32066,80.585201 179.28731,77.834162 C 180.10538,75.505961 171.64259,69 167.79605,69 C 165.14927,69 160.04093,71.22863 155.75,74.255358 C 153.82221,75.615182 151.43775,74.641082 149.61301,71.74827 C 148.39539,69.81794 149.58792,67.255908 154.28736,61.705874 L 157.5,57.911748 L 166.5,57.795924 C 177.70953,57.651665 180.47476,58.383201 185.5,62.822333 C 190.56619,67.29764 191.92026,69.631912 191.96456,73.966567 C 192.00313,77.739474 189.22469,86 187.9171,86 C 187.47095,86 184.13325,88.25 180.5,91 C 176.86675,93.75 173.50061,96 173.01971,96 C 172.5388,96 169.07513,97.621031 165.32266,99.602291 C 161.5702,101.58355 157.375,103.56168 156,103.99814 C 154.625,104.4346 152.825,105.0654 152,105.39992 C 151.175,105.73445 148.925,105.21881 147,104.25407 z M 326.76271,104.43468 C 325.18194,103.57696 323.78791,101.79823 323.46328,100.22472 C 320.79394,87.286283 317.65765,83.526955 315.20089,90.320998 C 314.5404,92.147547 314,94.313356 314,95.133907 C 314,95.954458 312.69223,97.878737 311.09385,99.410084 C 308.8636,101.5468 307.64258,102.027 305.84385,101.47479 C 299.20907,99.437903 299.3212,98.347573 308.11058,79.434276 C 309.14976,77.198127 310,74.566135 310,73.585405 C 310,72.604674 310.61176,70.38425 311.35947,68.651129 C 312.10718,66.918008 313.21687,64.274914 313.82546,62.777588 C 315.06607,59.725285 318.83833,58.303204 321.65686,59.825278 C 325.91487,62.124707 334.57249,80.352715 333.50291,84.766322 C 333.20085,86.012799 333.64954,89.717954 334.5,93 C 336.21301,99.610724 335.70525,103.55219 332.95071,105.02638 C 330.61276,106.27761 330.0622,106.22497 326.76271,104.43468 z M 273.98904,101.75 C 271.57176,97.785381 271.57296,97.83184 273.81174,94.884859 C 277.19602,90.430016 281,83.15153 281,81.130947 C 281,80.023845 281.45,78.839919 282,78.5 C 282.55,78.160081 283,76.810081 283,75.5 C 283,74.189919 283.45,72.839919 284,72.5 C 284.55,72.160081 285,70.648524 285,69.140983 C 285,67.633442 285.43422,65.965777 285.96494,65.435061 C 286.49566,64.904344 287.15247,61.326844 287.42453,57.485061 C 288.77525,38.411397 293.52619,20.496002 298.7702,14.701432 C 301.4132,11.78095 307.10639,9.7411267 309.48085,10.863892 C 310.59138,11.389006 312.1908,12.033218 313.0351,12.295473 C 313.87941,12.557729 315.86753,14.644342 317.45315,16.932391 C 320.12332,20.785448 320.21524,21.213331 318.69864,22.729928 C 317.50503,23.923539 315.58067,24.298795 311.59908,24.114359 C 306.60551,23.883047 305.98096,24.098836 304.31848,26.62988 C 302.59436,29.254764 300.8688,35.618739 299.4731,44.5 C 299.12737,46.7 298.35381,49.511822 297.75408,50.748493 C 297.15434,51.985165 296.9232,53.256537 297.24043,53.573766 C 297.55766,53.890995 297.41437,55.555168 296.92201,57.271929 C 296.42965,58.98869 295.79846,62.442317 295.51937,64.946656 C 294.12766,77.434795 291.90388,86.163777 289.37152,89.078741 C 288.61719,89.947048 288,90.984237 288,91.383605 C 288,91.782973 287.04706,94.222539 285.88236,96.804864 C 281.92865,105.57085 277.45323,107.43169 273.98904,101.75 z M 79.5,97 C 79.160081,96.45 77.858322,96 76.607201,96 C 74.984953,96 73.304054,94.494033 70.747361,90.75 C 67.708637,86.300079 67.009106,84.206293 66.157146,77.010885 C 65.055586,67.707443 65.592945,66 69.622445,66 C 72.008006,66 74.544486,68.027328 76.604369,71.580429 C 77.529725,73.176579 78.673006,73.437571 83.657487,73.190543 C 89.925814,72.879888 90.460906,73.251699 92.377938,79.25 C 93.236541,81.936529 97.583039,81.382958 102.56982,77.951959 C 106.10082,75.522574 107,74.311906 107,71.987143 C 107,68.486389 104.81934,67.066001 97,65.473567 C 92.238041,64.503779 91.45977,64.017403 91.200202,61.849019 C 90.302454,54.349397 99.955555,52.196196 108.85965,57.909938 C 111.63946,59.693738 114.22298,62.131238 114.60081,63.326605 C 114.97864,64.521972 116.27171,66.85 117.4743,68.5 C 120.22209,72.270079 120.44134,75.881444 118.08037,78.483019 C 117.07362,79.592359 115.72419,81.519364 115.08162,82.765252 C 113.72589,85.393887 108.54937,87.989961 98,91.331851 C 93.875,92.638592 88.706664,94.673502 86.514809,95.853872 C 82.110824,98.225531 80.427409,98.500579 79.5,97 z M 323.49411,36.209887 C 322.94735,35.819449 321.4875,34.055722 320.25,32.290493 C 315.79223,25.931711 318.36402,23.310891 324.96967,27.480854 C 328.01151,29.401083 329.04162,30.66268 328.81272,32.187538 C 328.45002,34.603766 324.95084,37.250122 323.49411,36.209887 z"
     id="path2768" />
</svg>
