<?xml version="1.0" encoding="UTF-8"?>
<svg version="1.0" xmlns="http://www.w3.org/2000/svg" width="224" height="100" >
<path d="M14.263,27.652c-1.933-3.593-4.181,3.28-4.43,4.162C4.9,49.22,2.782,67.689,0.021,85.511 c-0.293,1.892,2.597,2.704,2.893,0.797c2.557-16.502,4.995-33.118,8.733-49.406c0.532-2.318,1.066-4.679,1.917-6.906 c0.606-1.588-0.882,1.048-1.892-0.83C12.589,30.87,15.179,29.355,14.263,27.652L14.263,27.652 M3.914,30.308c3.13-10.602,9.959-23.805,21.345-26.983c8.012-2.236,13.491,3.9,15.53,10.952 c2.393,8.28,0.298,17.549-4.231,24.684c-5.366,8.454-16.083,13.542-24.631,18.195c-2.56,1.394-9.317,3.716-9.001,7.605 c0.123,1.515,1.358,2.545,2.308,3.598c2.61,2.895,4.798,6.22,7.017,9.414c4.713,6.788,9.289,13.734,13.422,20.894 c0.967,1.675,3.56,0.165,2.591-1.514c-4.34-7.517-9.176-14.777-14.124-21.903c-2.142-3.085-4.336-6.161-6.785-9.012 c-1.917-2.231-1.164-2.398,1.366-3.899c8.374-4.97,17.147-9.168,24.74-15.382c6.557-5.365,10.064-13.627,11.069-21.86 c1.63-13.35-6.589-29.352-22.023-24.057C11.191,4.922,4.197,18.751,1.021,29.51C0.472,31.371,3.367,32.159,3.914,30.308 L3.914,30.308 M39.528,65.183c-3.283-3.306-13.051,4.709-9.706,8.054c4.336,4.337,11.165-3.564,10.118-8.106 c-0.202-0.877-1.434-1.467-2.204-0.896c-2.506,1.854-0.85,7.916,1.377,9.356c4.024,2.603,11.986-5.686,14.171-8.088 c6.015-6.612,8.58-15.771,7.051-24.543c-1.157-6.637-6.656-4.457-9.405-0.363c-5.369,7.993-4.858,19.265-4.509,28.43 c0.099,2.603,0.718,5.943,4.112,5.33c2.781-0.502,4.405-3.821,5.792-5.967c1.141-1.766-1.288-1.461-1.007-0.689 c0.234,0.643,0.456,1.285,0.707,1.922c0.518,1.312,1.232,2.419,2.117,3.504c2.477,3.037,6.886,2.292,10.255,1.913 c4.656-0.521,10.657-2.363,15.172-0.516c1.791,0.733,2.563-2.17,0.798-2.893c-4.823-1.975-11.025-0.209-15.97,0.408 c-3.289,0.411-6.831,1.078-8.909-2.112c-0.875-1.343-0.966-3.135-1.907-4.408c-1.909-2.585-4.119,1.782-4.94,3.04 c-3.628,5.563-3.242,1.505-3.283-2.267c-0.082-7.563-0.1-15.211,3.088-22.227c0.916-2.015,3.772-6.911,4.996-2.308 c1.101,4.141,0.176,8.965-1.116,12.933c-1.846,5.664-6.139,10.472-10.948,13.835c-0.732,0.512-4.642,3.408-5.318,1.699 c-0.334-0.846-0.32-1.82-0.324-2.714c-0.006-1.2,0.595-1.484-0.485-0.687c-0.734-0.299-1.469-0.598-2.204-0.896 c0.572,2.482-1.737,4.447-3.821,5.104c-2.405,0.756,3.783-4.127,4.181-3.727C38.771,68.678,40.892,66.556,39.528,65.183 L39.528,65.183 M66.735,43.855c1.984,0.753,4.562,0.498,5.959-1.219c0.516-0.633,0.622-1.5,0-2.121c-0.534-0.534-1.604-0.635-2.121,0 c-0.815,1-2.002,0.841-3.041,0.447c-0.766-0.291-1.644,0.315-1.845,1.047C65.455,42.855,65.971,43.566,66.735,43.855 L66.735,43.855 M121.557,32.538c6.053-2.688,7.321-8.082,2.877-12.973c-6.285-6.916-16.07,0.171-21.779,3.96 c-7.15,4.746-16.604,10.227-20.335,18.349c-3.155,6.868,4.111,11.855,9.935,13.215c3.14,0.732,6.728,0.726,9.785-0.352 c2.428-0.857-0.208-2.838-0.681-1.561c-0.472,1.277-1.133,2.505-1.706,3.738c-2.686,5.777-6.238,12.712-5.001,19.261 c1.225,6.492,9.406,5.12,13.663,3.134c6.746-3.147,14.587-8.914,16.933-16.336c0.585-1.85-2.312-2.635-2.893-0.797 c-1.808,5.718-7.731,10.113-12.64,13.052c-5.234,3.133-13.454,4.941-12.136-3.791c0.797-5.281,3.4-10.285,5.626-15.075 c0.539-1.159,2.757-5.295-0.24-5.295c-1.401,0-2.857,1.21-4.343,1.402c-3.116,0.402-6.407-0.203-9.259-1.465 c-9.666-4.28-1.643-12.377,3.26-16.542c5.898-5.011,12.901-9.975,19.835-13.433c3.927-1.958,8.07-1.789,10.835,1.808 c2.544,3.31-0.475,5.878-3.249,7.11C118.278,30.731,119.806,33.316,121.557,32.538L121.557,32.538 M121.521,72.308c0.51,1.432,1.263,5.405,3.261,5.383c0.611-0.006,1.343-0.446,1.446-1.101 c0.23-1.442,0.694-2.806,1.322-4.127c0.213-0.447,0.468-0.911,0.772-1.303c0.492-0.635-0.172-0.284-0.164-0.276 c0.483,0.482,0.762,1.362,1.053,1.967c1.316,2.736,3.322,5.702,6.68,3.854c1.695-0.933,0.182-3.523-1.514-2.59 c-1.757,0.967-3.265-5.967-5.743-6.205c-3.387-0.325-4.965,5.788-5.299,7.883c0.482-0.367,0.965-0.734,1.446-1.102 c1.151-0.012,1.229,0.922,0.788-0.123c-0.169-0.403-0.323-0.813-0.479-1.22c-0.234-0.609-0.458-1.223-0.677-1.837 C123.769,69.701,120.87,70.48,121.521,72.308L121.521,72.308 M144.074,71.304c2.093,2.006,5.058,3.832,7.997,4.09c3.018,0.266,6.015-0.469,9.042-0.536 c4.218-0.095,7.559,1.768,11.541,2.423c9.224,1.516,18.496-9.62,22.775-16.28c4.91-7.641,7.919-17.17,10.099-25.905 c0.798-3.198,3.686-13.399-1.429-14.805c-3.931-1.08-9.031,5.406-11.143,7.743c-5.535,6.124-10.196,13.227-13.559,20.76 c-2.695,6.039-4.864,13.492-2.188,19.904c3.506,8.397,13.479,16.113,22,18.69c9.058,2.74,17.666-1.905,24.15-7.918 c1.422-1.318-0.705-3.435-2.121-2.121c-9.684,8.979-20.729,10.034-31.188,1.753c-6.425-5.088-12.058-11.393-10.784-19.95 c1.846-12.398,11.107-25.364,20.32-33.514c0.351-0.311,3.428-2.874,3.818-2.352c1.5,2.006,0.133,6.739-0.282,8.842 c-1.577,7.991-4.538,15.906-8.053,23.232c-3.777,7.872-11.617,18.156-21.063,19.001c-2.429,0.218-5.199-1.449-7.543-1.981 c-2.269-0.515-4.646-0.537-6.956-0.485c-5.037,0.113-9.27,1.166-13.314-2.711C144.799,67.845,142.674,69.963,144.074,71.304 L144.074,71.304z"/>
</svg>