<?xml version="1.0" encoding="UTF-8"?>
<svg version="1.0" xmlns="http://www.w3.org/2000/svg" width="106" height="60" >
<path fill="#231F20" d="M2.384,35.011c1.71,5.857,2.46,12.063,0.924,18.023c-1.543,5.986-1.572,0.375-1.696-2.438 c-0.126-2.828-0.054-5.665,0.049-8.492c0.477-13.13,2.739-25.287,10.617-36.024c0.381-0.519,4.818-6.405,5.712-3.618 c1.159,3.618-0.572,8.556-1.308,12.111c-1.566,7.565-3.79,15-6.188,22.338c-1.751,5.358-3.621,10.724-5.879,15.893 c-0.626,1.433-0.279,2.779,1.004,1.127c3.118-4.012,7.439,2.073,9.007,4.425c0.534,0.801,1.833,0.05,1.295-0.757 c-2.013-3.02-4.707-6.976-8.848-6.348c-1.423,0.216-3.625,2.118-3.567,3.695c0.014,0.376,0.332,0.792,0.75,0.75 c2.076-0.21,3.737-7.251,4.272-8.667c3.575-9.466,6.571-19.181,8.921-29.022c0.685-2.869,4.87-15.462,0.96-17.669 c-3.327-1.879-7.172,4.587-8.619,6.646C0.846,19.713-0.525,36.246,0.147,51.405c0.08,1.806,1.69,10.643,3.837,4.455 c2.425-6.988,1.9-14.215-0.154-21.247C3.56,33.686,2.112,34.081,2.384,35.011L2.384,35.011 M23.973,35.255c-7.13-2.288-8.579,7.783-8.505,12.416c0.019,1.208,0.688,5.739,3.015,4.767 c3.415-1.427,3.683-6.688,3.874-9.793c0.06-0.974-1.412-0.949-1.5,0c-0.28,2.996-0.758,10.474,3.23,5.455 c5.387-6.779,11.207-15.131,9.702-24.257c-0.35-2.118-0.783-5.053-3.019-5.99c-2.322-0.973-3.438,4.152-3.721,5.252 c-1.938,7.543-1.72,16.446-0.789,24.113c0.279,2.299,1.831,7.608,4.234,3.441c1.848-3.205,2.369-7.314,3.244-10.861 c0.3-1.216,0.611-2.431,0.961-3.634c0.336-1.158-1.021-1.253-1.214,0.115c-0.777,5.514-2.008,10.999-3.213,16.432 c-0.392,1.767-0.667,3.738-1.376,5.416c0.577-1.365,3.732-3.165,4.934-4.639c1.141-1.399,2.159-2.901,3.172-4.394 c5.127-7.547,11.015-16.399,11.057-25.808c0.004-0.927-0.454-12.784-3.63-7.967c-3.399,5.154-4.666,12.273-6.04,18.16 c-1.141,4.888-2.131,10.268-1.523,15.303c0.094,0.784,0.565,3.382,1.984,2.866c0.572-0.208,0.906-0.621,1.139-1.18 c0.243-0.584,0.385-1.17,0.508-1.791c0.01-1.917,1.236-2.513,3.678-1.787c0.381,1.216,0.553,2.467,0.516,3.754 c0.042,0.963,1.542,0.967,1.5,0c-0.098-2.248-0.413-7.224-3.697-7.224c-2.889,0-3.205,4.437-3.81,6.307 c-0.32,0.991-0.439-2.144-0.473-2.953c-0.117-2.811,0.3-5.66,0.74-8.423c1.14-7.164,2.925-15.435,6.479-21.829 c0.884-1.589,0.957,1.938,1.007,2.547c0.134,1.634,0.127,3.282,0.12,4.92c-0.022,4.866-2.043,9.043-4.246,13.308 c-2.405,4.656-5.211,9.138-8.248,13.407c-1.583,2.227-6.042,5.15-5.645,8.061c0.033,0.246,0.297,0.466,0.523,0.523 c2.53,0.647,3.526-9.627,3.846-11.167c0.662-3.192,1.289-6.393,1.848-9.604c0.164-0.939,0.921-3.09,0.208-3.958 c-0.263-0.319-0.789-0.263-1.061,0c-0.723,0.701-0.861,2.384-1.096,3.281c-0.955,3.654-1.682,7.369-2.979,10.924 c-1.642,4.5-2.067-2.452-2.203-4.072c-0.315-3.746-0.263-7.53-0.119-11.282c0.167-4.341,0.372-9.143,2.175-13.15 c1.416-3.146,2.894,5.054,2.885,4.972c0.328,3.011-0.283,5.841-1.298,8.651c-1.737,4.809-4.989,9.17-8.121,13.155 c-1.47,1.87-0.873,1.118-0.874-0.847c0-1.182,0.095-2.371,0.205-3.547c-0.5,0-1,0-1.5,0c-0.167,2.702-0.406,5.814-2.218,7.997 c-1.122,1.351-1.689-4.137-1.693-4.373c-0.029-1.869,0.302-3.729,0.778-5.527c0.685-2.591,3.044-4.94,5.851-4.04 C24.498,36.998,24.891,35.55,23.973,35.255L23.973,35.255 M52.831,55.511c0.875-5.846,2.072-11.652,3.467-17.394c1.675-6.894,3.541-14.807,8.226-20.359 c2.896-3.432,4.248-1.657,3.917,2.215c-0.854,9.959-5.997,20.185-9.98,29.126c-0.385,0.863,0.828,1.625,1.295,0.757 C65.79,38.63,72.978,27.375,77.664,15.511c-0.482-0.133-0.965-0.266-1.447-0.398c-2.031,8.458-5.749,16.314-6.594,25.01 c-0.252,2.595-0.259,15.084,4.465,8.067c0.542-0.805-0.758-1.555-1.295-0.757c-2.391,3.551-1.879-3.831-1.81-5.383 c0.146-3.252,0.604-6.525,1.422-9.675c1.474-5.67,3.876-11.111,5.258-16.864c0.23-0.96-1.099-1.28-1.447-0.398 C71.582,26.848,64.43,37.993,58.46,49.1c0.432,0.252,0.863,0.504,1.295,0.757c4.243-9.525,9.332-19.924,10.235-30.475 c0.221-2.574-0.54-6.329-3.893-4.881c-4.978,2.148-7.334,10.208-8.824,14.649c-2.809,8.376-4.583,17.231-5.889,25.962 C51.243,56.059,52.688,56.465,52.831,55.511L52.831,55.511 M80.062,36.831c-2.748,2.023-6.709,5.293-6.517,9.06c0.083,1.618,1.473,1.938,2.679,1.182 c1.412-0.887,2.372-2.416,2.998-3.907c-0.241,0.184-0.482,0.367-0.724,0.551c0.006,0,0.012-0.001,0.017-0.001 c-0.24-0.184-0.481-0.367-0.723-0.551c0.173,0.868-0.452,2.882,0.575,3.679c0.558,0.434,1.138,0.182,1.589-0.269 c1.171-1.17,2.337-3.578,4.184-3.873c0.953-0.152,0.548-1.597-0.398-1.446c-2.041,0.325-3.688,2.781-4.846,4.258 c0.438,0.391,0.588,0.419,0.451,0.084c-0.033-0.161-0.054-0.323-0.06-0.487c-0.028-0.342-0.022-0.688-0.021-1.03 c0.002-0.434,0.058-0.886-0.028-1.315c-0.061-0.305-0.411-0.576-0.724-0.55c-0.005,0-0.011,0.001-0.017,0.001 c-0.371,0.03-0.582,0.216-0.723,0.55c-0.398,0.95-0.962,1.719-1.683,2.465c-0.442,0.458-1.02,1.209-1.069,0.247 c-0.039-0.77,0.383-1.521,0.749-2.165c1.16-2.038,3.17-3.806,5.047-5.188C81.589,37.559,80.842,36.256,80.062,36.831 L80.062,36.831 M85.551,44.279c-0.322,1.559-0.698-1.301-0.71-1.396c-0.161-1.357-0.226-2.727-0.295-4.091 c-0.202-3.963-0.164-7.941-0.01-11.904c0.132-3.409,0.378-6.87,1.192-10.191c1.426-5.814,5.327,4.913,5.67,6.524 c1.247,5.854-0.279,11.275-3.285,16.292c-0.992,1.655-2.798,5.076-1.66,7.085c2.115,3.735,6.525-0.744,7.881-2.806 c0.904-1.377,2.486-4.751,1.869-6.425c-0.259-0.703-1.047-1.132-1.658-0.454c-1.459,1.619-4.116,7.182-1.687,8.943 c1.249,0.905,2.414,0.47,3.444-0.517c0.757-0.726,1.199-1.858,1.632-2.788c0.926-1.989-0.019-2.014,0.433-0.18 c1.489,6.059,5.667,0.618,7.388-2.183c0.508-0.826-0.79-1.579-1.295-0.757c-1.096,1.782-3.838,5.83-4.813,1.863 c-0.157-0.642-0.206-1.177-0.646-1.67c-0.164-0.184-0.495-0.28-0.729-0.193c-0.768,0.286-1.009,0.992-1.338,1.707 c-0.318,0.691-0.63,1.376-0.978,2.053c-1.072,2.086-2.602,0.652-2.193-1.207c0.189-0.861,0.55-1.708,0.91-2.505 c0.499-1.106,0.135-1.712-0.171-0.279c-0.413,1.938-1.216,3.654-2.441,5.201c-0.511,0.645-4.215,3.88-4.385,0.622 c-0.165-3.178,2.898-6.063,3.981-8.863c1.031-2.664,1.526-5.269,1.651-8.11c0.187-4.237-0.873-9.667-3.578-13.067 c-5.137-6.456-6.248,5.576-6.501,8.635c-0.417,5.036-0.394,10.126-0.183,15.171c0.104,2.51-0.177,5.927,1.652,7.881 c0.176,0.187,0.485,0.272,0.73,0.193c1.064-0.345,1.345-1.105,1.569-2.188C87.193,43.734,85.747,43.332,85.551,44.279 L85.551,44.279z"/>
</svg>