<?xml version="1.0" encoding="UTF-8"?>
<svg version="1.0" xmlns="http://www.w3.org/2000/svg" width="289" height="90" >
<path fill="#231F20" d="M63.356,17.503c-2.572,0.669-4.958,2.92-6.943,4.542c-9.165,7.487-16.262,17.054-24.487,25.476 c-2.439,2.497-5.438,5.923-8.839,7.109c0.919-0.321,3.889-5.545,5.127-6.938c3.978-4.473,7.477-9.281,11.893-13.359 c7.544-6.965,17.016-11.684,26.281-15.888c13.205-5.991,27.085-11.073,41.12-14.752c3.558-0.933,7.349-1.944,11.055-1.852 c1.582,0.04,0.261,0.586-0.587,1.356c-1.978,1.795-4.439,3.147-6.722,4.504c-8.881,5.282-18.287,9.774-27.616,14.193 c-19.727,9.344-40.141,18.367-61.263,24.072c-3.405,0.919-6.874,1.707-10.386,2.069c-3.479,0.358-12.656-0.136-7.69-4.944 c4.17-4.038,10.764-5.813,16.231-7.099c5.443-1.281,11.603-1.986,17.121-0.734c12.49,2.834,8.238,19.151,7.478,28.513 c-0.441,5.432-0.202,11.216,2.653,16.019c5.485,9.223,18.383,9.632,27.802,9.036c10.97-0.695,21.818-3.306,32.379-6.218 c17.297-4.769,34.176-11.044,50.838-17.658c1.332-0.529,0.752-2.706-0.598-2.17c-22.603,8.971-45.784,17.631-69.766,22.111 c-10.29,1.922-23.444,3.994-33.206-1.144c-12.766-6.718-6.485-23.866-6.612-35.006c-0.074-6.559-2.412-12.544-8.747-15.146 c-8.502-3.492-20.67-0.227-28.679,2.943c-2.485,0.984-14.74,6.714-10.19,11.389c4.063,4.174,12.391,2.375,17.422,1.314 c19.881-4.194,39.167-13.039,57.594-21.356c9.798-4.422,19.485-9.109,28.981-14.148c4.229-2.245,8.452-4.544,12.396-7.27 c1.407-0.973,4.095-2.625,4.177-4.607c0.313-7.571-46.117,10.327-49.331,11.641c-16.61,6.789-31.084,14.934-42.488,28.88 c-2.625,3.21-8.663,7.988-8.74,12.518c-0.078,4.602,6.168-0.088,7.375-1.049c9.549-7.6,16.595-18.084,25.421-26.488 c2.767-2.634,6.316-6.474,10.102-7.678c0.014-0.004,0.028-0.008,0.042-0.012C65.357,19.308,64.762,17.138,63.356,17.503 L63.356,17.503z"/>
<path fill="#231F20" d="M84.122,38.065c-3.599,2.011-7.127,4.158-10.55,6.455c-1.729,1.16-7.302,4.206-6.533,7.001 c1.453,5.281,15.747-7.134,17.682-8.769c-0.53-0.53-1.061-1.061-1.591-1.591c-1.638,1.825-3.964,4.358-4.183,6.908 c-0.289,3.371,3.301,3.269,5.67,2.617c7.807-2.147,15.25-8.115,21.674-12.87c-0.454-0.589-0.908-1.178-1.363-1.767 c-5.124,4.484-11.853,9.346-15.253,15.337c-1.244,2.192,0.968,2.837,2.7,2.442c4.773-1.088,7.603-5.904,11.715-8.028 c-0.513-0.135-1.026-0.269-1.539-0.404c-0.576-1.095-1.095,0.635-1.926,1.763c-1.497,2.033-3.046,4.028-4.59,6.024 c-1.993,2.575-4.002,5.139-6.022,7.694c0.589,0.454,1.179,0.909,1.768,1.363c1.823-2.402,3.692-4.77,5.585-7.118 c1.407-1.746,2.847-3.464,4.324-5.15c0.696-0.795,1.419-1.565,2.159-2.32c0.904-0.923,1.085-0.751,0.859-1.426 c2.259,6.751,9.105-1.912,11.756-4.571c1.024-1.028-0.563-2.617-1.592-1.591c-2.223,2.218-7.37,6.521-7.312,9.995 c0.063,3.792,4.938,1.431,6.721,0.613c6.268-2.875,12.169-6.753,17.859-10.617c3.384-2.297,9.032-5.336,10.888-9.217 c0.555-1.16-0.783-2.222-1.768-1.363c-4.06,3.542-8.026,7.195-11.915,10.923c-4.153,3.98-9.852,8.561-12.086,14.038 c-0.457,1.121,1.126,1.783,1.881,1.095c1.562-1.424,3.176-2.789,4.828-4.108c0.231-0.186,3.512-2.17,3.356-2.613 c0.264,0.752,0.956,1.409,1.592,1.849c5.891,4.078,12.534,1.229,16.612-3.892c0.894-1.123-0.688-2.726-1.592-1.591 c-3.36,4.221-8.198,6.818-13.318,3.932c-1.293-0.729-1.339-2.554-3.06-2.384c-3.515,0.348-7.546,4.968-10.011,7.215 c0.627,0.365,1.254,0.729,1.881,1.095c2.274-5.578,8.813-10.488,13.058-14.526c3.385-3.22,6.844-6.371,10.365-9.442 c-0.589-0.454-1.179-0.909-1.768-1.363c-1.459,3.053-5.771,5.38-8.397,7.243c-4.301,3.052-8.783,5.859-13.347,8.499 c-1.051,0.608-9.381,4.109-9.46,4.446c0.709-3.002,4.445-6.102,6.583-8.235c-0.53-0.53-1.062-1.061-1.592-1.591 c-2.206,2.214-4.418,4.565-7.048,6.288c-1.063,0.696-0.679,0.078-1.021-0.948c-0.561-1.675-2.145-1.438-3.275-0.498 c-5.332,4.435-9.517,10.699-13.69,16.198c-0.771,1.016,0.978,2.362,1.768,1.363c2.467-3.121,4.915-6.258,7.346-9.408 c1.074-1.392,6.626-6.745,5.543-8.8c-0.296-0.563-1.014-0.675-1.539-0.403c-2.586,1.336-4.832,3.917-7.206,5.601 c-0.856,0.607-1.755,1.136-2.671,1.646c-1.055,0.587-1.486,1.466-1.255,1.058c0.715-1.259,1.875-2.343,2.859-3.389 c3.705-3.938,7.771-7.574,11.838-11.133c0.954-0.835-0.334-2.529-1.363-1.767c-4.082,3.021-8.316,5.852-12.664,8.474 c-2.881,1.737-5.907,3.463-9.167,4.36c-4.204,1.156,0.522-4.982,1.396-5.956c0.979-1.09-0.489-2.522-1.591-1.591 c-1.982,1.675-4.028,3.275-6.112,4.822c-1.51,1.122-3.068,2.175-4.673,3.156c-0.759,0.463-3.635,2.431-2.497,1.147 c3.908-4.408,10.313-7.432,15.409-10.28C86.523,39.3,85.39,37.356,84.122,38.065L84.122,38.065z"/>
<path fill="#231F20" d="M192.507,23.27c-3.924,3.865-7.95,7.629-12.021,11.337c-6.341,5.775-12.969,12.253-20.639,16.238 c-1.288,0.669-0.15,2.61,1.135,1.942c7.19-3.734,13.42-9.712,19.409-15.067c4.668-4.174,9.245-8.465,13.708-12.859 C195.133,23.841,193.541,22.251,192.507,23.27L192.507,23.27z"/>
<path fill="#231F20" d="M239.279,16.407c-13.624,5.749-27.441,11.086-41.385,16.005c-9.869,3.482-19.828,6.587-30.021,8.968 c-5.524,1.29-11.104,2.587-16.745,3.251c-1.34,0.158-2.768,0.292-4.109,0.077c-1.199-0.191,0.606-1.715,1.081-2.209 c4.963-5.164,15.604-7.447,22.332-5.724c16.437,4.207,1.302,33.07-2.578,40.763c-0.651,1.292,1.29,2.432,1.943,1.136 c4.448-8.822,8.754-18.162,9.896-28.081c0.54-4.682-0.144-9.843-3.646-13.27c-5.828-5.702-16.408-3.237-22.989-0.447 c-3.214,1.362-6.057,3.038-8.136,5.911c-2.823,3.901,2.962,4.351,5.381,4.174c10.334-0.752,20.874-3.789,30.78-6.689 c10.537-3.085,20.883-6.844,31.154-10.709c9.276-3.491,18.507-7.133,27.639-10.987C241.192,18.022,240.615,15.844,239.279,16.407 L239.279,16.407z"/>
<path fill="#231F20" d="M187.1,53.266c8.891-1.584,17.77-3.873,26.199-7.114c4.849-1.864,9.862-4.322,13.441-8.185 c1.712-1.847,0.298-3.444-1.838-3.297c-4.362,0.299-26.125,9.901-16.558,15.658c5.28,3.177,11.235,1.444,16.593-0.591 c3.086-1.172,6.033-2.689,9.005-4.118c0.98-0.472,3.279-0.631,3.998-1.483c0.39-0.46,0.47-1.14,0-1.591 c-2.788-2.681-13.804-2.903-13.657,2.648c0.087,3.319,2.153,6.088,5.629,6.376c6.052,0.502,11.412-3.199,15.434-7.357 c-0.641-0.265-1.281-0.53-1.921-0.795c-0.09,1.966,0.599,5.169,3.08,5.325c3.027,0.19,15.069-5.733,13.788,1.313 c-0.22,1.209,1.385,2.028,2.057,0.867c0.9-1.558,1.949-3.008,3.182-4.322c1.718-1.831,4.503,1.74,6.332,2.595 c5.881,2.749,11.93-0.742,15.934-4.984c0.994-1.054-0.594-2.648-1.592-1.591c-3.736,3.96-8.658,6.758-14.036,4.244 c-1.651-0.772-2.631-3.389-4.496-3.576c-3.313-0.333-5.858,4.062-7.267,6.498c0.686,0.289,1.371,0.578,2.057,0.867 c0.659-3.627-0.702-5.821-4.429-6.286c-3.26-0.406-12.599,4.299-12.359-0.951c0.045-0.986-1.257-1.482-1.921-0.795 c-2.575,2.663-5.376,4.773-8.857,6.089c-3.125,1.181-9.124,1.058-8.289-3.894c0.42-2.492,8.354-2.015,9.742-0.68 c0-0.53,0-1.061,0-1.591c0.612-0.724-0.055-0.21-0.866,0.006c-1.269,0.338-2.494,1.037-3.666,1.6 c-5.132,2.466-10.488,5.335-16.267,5.717c-2.271,0.15-4.764-0.391-6.521-1.884c-3.197-2.716,5.049-6.617,6.74-7.513 c2.453-1.299,5.024-2.375,7.672-3.202c4.1-1.281-0.528,1.16-2.022,2.255c-9.512,6.971-23.484,9.534-34.917,11.571 C185.075,51.351,185.682,53.519,187.1,53.266L187.1,53.266z"/>
<path fill="#231F20" d="M263.703,32.163c0.049-0.058,0.101-0.112,0.153-0.167c0.069-0.071,0.454-0.382,0.222-0.212 c0.066-0.048,0.138-0.089,0.21-0.13c0.113-0.055,0.096-0.048-0.051,0.021c0.124-0.029,0.096-0.028-0.083,0.005 c-0.135,0.008-0.307-0.058-0.404-0.152c-0.184-0.177-0.062-0.06-0.015,0.137c0.339,1.411,2.508,0.813,2.17-0.598 c-0.259-1.081-1.177-1.94-2.339-1.537c-0.563,0.194-1.071,0.589-1.455,1.041c-0.396,0.467-0.46,1.131,0,1.591 C262.519,32.57,263.306,32.631,263.703,32.163L263.703,32.163z"/>
</svg>