<?xml version="1.0" encoding="UTF-8"?>
<svg version="1.0" xmlns="http://www.w3.org/2000/svg" width="246" height="46" >
<path fill="#231F20" d="M36.844,0.653C32.079,7.35,27.17,13.948,22.151,20.456c-3.605,4.675-7.288,9.3-11.208,13.715 c-1.529,1.723-3.111,3.415-4.871,4.904c-1.411,1.192,0.02,1.226-1.5-0.229c-1.135-1.087-1.851-3.174-1.618-4.76 c-0.963,0.2-1.927,0.399-2.89,0.599c0.222,2.389,0.444,4.777,0.667,7.167c0.075,0.806,2.989,0.207,2.897-0.777 c-0.222-2.389-0.444-4.777-0.667-7.167c-0.077-0.828-2.78-0.153-2.89,0.599c-0.602,4.102,2.725,8.166,6.672,6.039 c4.567-2.461,8.192-7.845,11.403-11.732c7.505-9.088,14.537-18.603,21.368-28.205C40.21-0.371,37.328-0.027,36.844,0.653 L36.844,0.653 M22.329,19.049c-2.823,1.509-13.227,7.26-14.642,2.544c-0.865-2.883,2.688-6.238,4.457-7.976 c3.219-3.164,7.237-5.553,11.289-7.476c3.496-1.659,10.033-4.196,13.481-1.23c1.961,1.687-0.37,5.382-1.327,6.936 c-3.275,5.316-9.3,11.538-15.092,14.058c-1.165,0.507-1.066,1.218,0.266,0.991c6.827-1.16,3.437,6.139,2.301,9.538 c-1.114,3.333,0.441,4.166,3.524,4.335c0.676,0.037,3.344-1.194,1.854-1.275c-7.262-0.398,2.095-8.641-0.791-12.314 c-1.465-1.864-4.229-1.847-6.384-1.48c0.088,0.33,0.177,0.66,0.266,0.991C28.86,23.5,36.825,15.866,39.96,8.511 c4.106-9.637-13.579-4.913-17.125-3.351c-5.198,2.29-10.018,5.35-14.077,9.341C7.13,16.1,2.834,21.048,5.326,23.536 c4.126,4.117,14.749-1.879,18.703-3.991C25.733,18.634,23.067,18.654,22.329,19.049L22.329,19.049 M54.914,21.438c-4.596,1.995-9.522,1.152-13.847,3.624c-4.57,2.612-9.005,8.072-8.259,13.578 c0.517,3.815,4.597,3.349,7.2,2.194c4.625-2.051,8.428-6.627,11.01-10.835c0.758-1.235,3.866-7.606,0.549-7.808 c-3.167-0.192-4.756,4.48-5.622,6.75c-1.196,3.136-3.583,8.871,0.297,10.993c3.241,1.773,8.349-1.041,11.026-2.786 c1.649-1.075-0.823-1.701-1.845-1.035c-1.769,1.153-6.95,4.197-8.167,1.047c-0.868-2.247,0.573-5.691,1.319-7.789 c0.466-1.312,1.065-2.574,1.716-3.802c0.266-0.501,0.576-0.972,0.899-1.437c0.814-1.173-1.276-0.511-1.148,0.345 c0.455,3.04-2.392,6.581-4.135,8.765c-2.06,2.579-4.653,5.122-7.7,6.473c-2.246,0.996-2.618-1.969-2.613-3.425 c0.008-2.433,1.632-4.771,3.107-6.565c1.183-1.438,2.66-2.616,4.21-3.628c1.775-1.158,3.816-0.764,5.819-1.027 c2.514-0.331,5.058-1.237,7.38-2.245C57.954,22.024,56.286,20.842,54.914,21.438L54.914,21.438 M70.279,37.774c0.556,0.056,1.111,0.111,1.667,0.167c0.626,0.063,1.542-0.256,1.914-0.786 c0.412-0.589-0.352-0.792-0.781-0.835c-0.556-0.056-1.111-0.111-1.667-0.167c-0.626-0.063-1.542,0.256-1.914,0.786 C69.085,37.528,69.85,37.731,70.279,37.774L70.279,37.774 M114.961,27.742c-0.604-3.755-0.604-7.69,0.41-11.366c0.872-3.161,3.89-4.813,6.123-6.963 c1.693-1.628,3.231-3.527,4.513-5.498c-0.922,0.091-1.844,0.182-2.766,0.272c-3.979,7.116-6.302,14.238-8.281,22.074 c-1.187,4.696-3.359,9.381-6.008,13.424c-1.483,2.265-1.768,2.025-2.198-0.635c-0.328-2.02,0.26-4.365,0.862-6.311 c0.243-0.785-2.617-0.387-2.875,0.447c-0.686,2.214-2.442,9.684,1.337,10.108c3.237,0.364,5.335-3.317,6.723-5.6 c3.492-5.746,4.698-11.803,6.388-18.159c1.462-5.498,4.159-10.845,6.928-15.797c0.346-0.618-2.363-0.346-2.766,0.272 c-2.918,4.487-8.238,7.117-10.509,11.861c-1.745,3.647-1.403,8.762-0.779,12.646C112.187,29.288,115.103,28.628,114.961,27.742 L114.961,27.742 M127.395,25.752c3.655-0.101,8.549-0.203,11.611,2.035c2.884,2.107-6.076,11.413-6.996,14.16 c-1.681,5.02,9.092,3.457,11.135,3.183c3.356-0.449,9.791-1.376,9.816-5.888c0.003-0.539-2.894-0.106-2.898,0.777 c-0.026,4.772-8.802,4.169-11.952,4.154c-3.793-0.018-3.65-2.353-2.229-4.953c1.441-2.637,6.969-7.325,6.751-10.604 c-0.314-4.717-10.801-4.194-14.004-4.106C127.814,24.532,125.466,25.805,127.395,25.752L127.395,25.752 M172.871,24.946c-2.537-2.854-7.441,0.138-9.563,1.853c-2.415,1.95-12.207,11.985-9.99,15.725 c1.842,3.106,9.784-3.229,11.016-4.3c4.546-3.954,8.162-9.505,10.948-14.823c0.307-0.586-2.449-0.276-2.871,0.461 c-2.436,4.253-4.765,8.684-6.328,13.337c-1.594,4.744,0.99,5.569,5.119,3.76c6.801-2.981,8.989-10.663,14.987-14.234 c7.513-4.473,2.765,6.444,1.643,8.696c-1.308,2.624-2.842,5.172-4.476,7.606c0.92-0.098,1.84-0.195,2.76-0.293 c2.489-4.807,5.188-9.555,8.318-13.974c0.694-0.979,1.456-1.901,2.266-2.788c1.757-1.925,1.952-0.29,2.864,1.048 c1.113,1.63,4.086,1.895,5.86,1.934c0.694,0.016,3.338-1.279,1.844-1.313c-2.154-0.049-4.598-0.475-5.527-2.716 c-0.272-0.655-0.408-1.593-1.292-1.669c-2.439-0.21-4.711,1.186-6.397,2.841c-4.661,4.575-7.834,11.359-10.807,17.098 c-0.326,0.63,2.381,0.272,2.76-0.293c2.889-4.304,7.415-10.388,7.452-15.76c0.042-5.975-8.769-1.188-11.014,0.318 c-2.621,1.759-3.788,4.457-5.743,6.834c-1.527,1.858-3.313,3.5-5.224,4.953c-3.592,2.732-3.34,0.615-2.738-1.783 c1.232-4.918,4.039-9.689,6.544-14.063c-0.957,0.153-1.914,0.308-2.871,0.461c-3.248,6.2-7.595,12.504-13.38,16.556 c-6.461,4.526,0.604-6.464,1.511-7.672c1.534-2.045,6.965-9.741,9.613-6.764C170.695,26.59,173.428,25.573,172.871,24.946 L172.871,24.946 M216.008,25.503c-5.136-8.468-12.953,5.62-14.673,9.32c-0.897,1.931-3.285,7.894,0.22,8.879 c2.735,0.77,7.464,0.184,9.07-2.536c3.765-6.372,6.527-13.465,9.512-20.217c1.821-4.121,3.612-8.256,5.319-12.425 c0.611-1.492,2.342-4.307,1.989-6.022c-0.088-0.43-0.577-0.566-0.938-0.633c-2.98-0.548-5.266,6.954-6.093,8.699 c-3.442,7.267-6.608,14.731-9.002,22.413c-1.144,3.67-3.469,10.92,2.412,11.771c5.428,0.785,12.482-1.813,16.973-4.827 c1.635-1.097-0.765-2.022-1.904-1.258c-3.55,2.382-10.184,5.093-14.4,3.924c-4.013-1.113,0.235-11.11,0.935-13.134 c1.894-5.477,4.194-10.82,6.588-16.094c1.024-2.257,2.094-4.494,3.21-6.707c0.344-0.683,0.701-1.358,1.066-2.029 c0.135-0.246,0.274-0.49,0.416-0.731c1.123-1.937-2.643,3.832-2.176-0.662c-0.366,3.527-2.892,7.573-4.264,10.78 c-2.276,5.325-4.637,10.615-7.038,15.885c-1.503,3.3-3.134,6.521-4.72,9.775c-1.188,2.438-6.026,3.252-5.744-0.343 c0.183-2.337,1.512-4.685,2.56-6.735c1.149-2.246,5.403-10.158,8.024-5.838C214.001,27.834,216.776,26.768,216.008,25.503 L216.008,25.503 M243.666,39.054c0.5-0.445,1-0.89,1.5-1.334c0.518-0.461-0.449-0.575-0.707-0.56 c-0.676,0.039-1.42,0.258-1.934,0.714c-0.5,0.445-1,0.89-1.5,1.334c-0.518,0.461,0.449,0.575,0.707,0.56 C242.408,39.729,243.152,39.51,243.666,39.054L243.666,39.054z"/>
</svg>