<?xml version="1.0" encoding="UTF-8"?>
<svg version="1.1" xmlns="http://www.w3.org/2000/svg" width="461" height="106" >
<path d="M81.579,14.982c-7.315-3.115-15.804-4.494-23.658-3.097c-9.301,1.654-15.28,7.24-18.152,15.947 c-2.48,7.519-3.324,15.479-6.098,22.917c-0.809,2.168-2.44,6.115-4.911,6.916c-3.812,1.234-9.269-2.777-12.182-4.682 c-2.319-1.516-9.391,1.792-6.094,3.947c7.194,4.704,15.455,7.804,23.482,3.232c6.114-3.481,8.2-11.69,9.778-17.977 c1.765-7.031,2.488-15.235,6.641-21.371c5.108-7.546,18.072-4.876,25.098-1.885C77.994,19.998,85,16.439,81.579,14.982 L81.579,14.982z"/>
<path d="M14.654,2.263C10.149,0.382-0.129,0.41,0.001,7.325c0.132,6.993,7.269,7.506,12.875,7.783 c11.501,0.568,23.497-0.23,34.771-2.61c5.709-1.206,18.174-3.662,19.056-11.12c-2.484,0.666-4.967,1.331-7.451,1.997 c4.636,4.494,2.116,14.935,2.42,20.613c0.59,11.014,5.041,21.323,12.913,29.054c1.69,1.66,8.909-1.185,7.226-2.838 c-8.134-7.989-11.878-18.329-12.48-29.565c-0.318-5.938,2.052-15.348-2.854-20.102c-1.345-1.303-7.206-0.08-7.451,1.997 c-0.604,5.104-8.556,6.07-12.514,6.837c-7.146,1.385-14.467,1.854-21.73,2.03c-4.4,0.106-12.401,1.273-15.996-2.123 c-0.876-0.827-0.976-2.291-1.046-3.41c0.467-1.535-0.229-1.863-2.091-0.984c0.482,0.045,0.955,0.142,1.416,0.289 C7.522,5.297,7.973,5.466,8.41,5.649C10.402,6.48,17.484,3.444,14.654,2.263L14.654,2.263z"/>
<path d="M89.335,40.245c-9.906-0.726-19.065,10.011-19.616,19.338c-0.244,4.134,6.503,1.597,8.308,0.495 c5.781-3.528,9.735-10.938,13.33-16.419c-2.549,0.42-5.099,0.84-7.648,1.261c-2.122,3.76-7.247,11.422-5.349,15.874 c1.072,2.514,6.134,1.156,7.935,0.672c1.976-0.532,3.852-1.45,5.67-2.369c0.956-0.483,1.892-1.011,2.834-1.521 c3.346-1.809-1.429-1.01,0.577-0.024c14.239,6.998,36.62,3.321,45.793-10.517c4.628-6.982-1.084-11.855-7.858-12.165 c-6.477-0.296-14.462,1.538-19.456,5.859c-5.039,4.36,8.511,11.205,10.97,13.195c1.207,0.977,2.415,2.107,2.512,3.734 c0.043,0.73,0.5,1.086,1.193,1.263c2.961,0.754,6.258-0.951,8.697-2.446c5.049-3.095,9.47-7.652,13.58-11.854 c1.25-1.278,9.241-8.583,8.09-10.809c-0.403-0.779-1.502-0.689-2.234-0.682c-8.867,0.08-22.903,22.815-11.738,26.674 c6.327,2.187,14.904-2.006,20.247-5.01c4.9-2.755,12.722-7.538,13.82-13.642c1.324-7.367-10.397-3.909-13.338-2.008 c-6.095,3.94-11.764,12.14-9.37,19.646c2.139,6.707,12.188,4.708,17.137,3.584c7.502-1.705,15.099-5.258,21.381-9.682 c2.69-1.895,5.85-6.183-0.036-5.78c-5.04,0.346-12.958,3.063-14.486,8.549c-1.952,7.009,9.744,5.443,12.938,4.625 c4.048-1.036,7.899-2.993,11.525-5.022c1.545-0.865,3.053-1.799,4.547-2.749c0.794-0.505,1.571-1.038,2.347-1.57 c0.91-0.625,2.287-0.959-0.028-0.419c-1.173,0.069-2.347,0.139-3.52,0.208c-0.266-0.047,0.323,5.244,0.667,5.992 c1.553,3.377,6.652,2.549,9.51,2.207c5.444-0.65,10.885-2.23,15.967-4.254c2.921-1.163,7.708-3.019,8.8-6.334 c1.535-4.661-11.54-1.02-12.818-0.567c-5.736,2.03-12.988,6.652-13.34,13.426c-0.271,5.216,3.059,9.756,5.63,14.035 c3.377,5.619,7.204,10.976,10.209,16.813c1.398,2.715,3.678,7.619,0.039,9.509c-3.153,1.637-8.057,0.08-10.933-1.405 c-9.567-4.939-10.329-16.876-5.834-25.43c5.873-11.178,18.295-18.86,29.366-23.992c3.077-1.426,6.307-2.563,9.554-3.525 c-1.122-0.543-2.244-1.087-3.365-1.631c-5.615,3.676-11.215,8.137-14.93,13.781c-4.264,6.478,4.591,4.291,7.435,1.488 c1.977-1.949,3.729-4.122,5.688-6.093c0.528-0.532,1.079-1.046,1.665-1.515c2.069-1.655-5.277-1.165-3.284,0.822 c0.829,0.827,1.203,2.024,2.051,2.868c2.362,2.351,7.734,1.688,10.681,1.531c4.713-0.252,9.415-1.355,13.831-2.983 c3.516-1.295,14.104-8.709,5.999-11.826c-5.759-2.214-12.696,3.94-15.577,8.149c-4.544,6.637,3.063,8.189,8.174,6.102 c5.49-2.242,9.995-6.456,13.786-10.94c-2.449,0.275-4.898,0.55-7.348,0.826c-1.095,2.379-1.85,5.301-0.849,7.813 c1.226,3.073,6.141,2.586,8.602,1.9c6.527-1.817,12.108-6.239,16.928-10.872c-2.349,0.13-4.698,0.26-7.047,0.391 c-1.544,2.135-2.917,4.674-2.236,7.364c0.974,3.844,8.134,2.856,10.725,2.196c4.143-1.055,8.466-2.909,11.594-5.913 c0.926-0.89,4.172-4.171,1.927-5.395c-4.217-2.298-10.602,1.979-12.75,5.465c-5.492,8.908-1.527,20.609,1.701,29.546 c1.376,3.807,3.112,7.459,5.123,10.968c0.904,1.577,2.323,3.454,2.126,5.389c-0.177,1.727-1.134,4.315-2.169,5.715 c1.539-2.082,4.993-0.415,2.231-1.34c-1.031-0.346-1.995-0.886-2.952-1.393c-2.902-1.536-5.699-3.364-8.403-5.221 c-13.268-9.104-2.772-25.772,5.772-33.771c9.06-8.481,20.745-14.046,32.22-18.412c-0.923-0.707-1.847-1.413-2.77-2.119 c-3.628,1.537-20.383,8.183-17.24,13.859c1.867,3.374,9.056-0.065,11.244-1.319c3.608-2.069,6.879-4.833,9.904-7.675 c-2.349,0.13-4.698,0.26-7.047,0.391c-1.462,1.773-4.904,5.998-1.198,7.1c2.351,0.699,5.339-0.388,7.514-1.192 c3.749-1.385,5.811-4.58,9.581-1.73c4.271,3.228,10.485,0.658,14.163-2.181c-1.384,1.068,1.604,1.148,2.701,1.385 c1.485,0.319,2.601,0.361,3.97,1.206c2.404,1.482,4.735,1.523,7.457,1.16c4.171-0.555,9.608-0.514,14.281-0.583 c4.142-0.062,9.295,0.44,13.221-1.208c-1.803,0.757-3.974-0.518-1.428,1.213c1.355,0.921,2.297,2.35,3.101,3.738 c1.761,3.039,1.818,6.916,2.743,10.251c0.994,3.586,2.407,7.063,3.712,10.544c0.777,2.072,2.604,5.427,2.158,7.736 c1.818-0.783,3.637-1.565,5.454-2.349c-0.02,0.002-0.04,0.003-0.061,0.005c0.745,0.228,1.489,0.455,2.233,0.683 c-0.769-1.926-0.477-4.689,0.022-6.614c0.385-1.487-5.499,0.715-1.033,0.116c1.57-0.21,3.128-0.564,4.68-0.875 c6.39-1.28,17.384-4.976,23.292-0.899c1.9,1.312,8.636-1.779,7.254-2.732c-7.873-5.432-21.657-1.102-30.129,0.597 c-3.232,0.647-8.006,0.471-10.428,2.997c-2.003,2.09-2.451,6.813-1.385,9.481c0.306,0.767,1.59,0.73,2.233,0.683 c0.021-0.002,0.041-0.003,0.062-0.005c1.245-0.093,5.132-0.678,5.454-2.348c0.816-4.241-2.604-9.89-4.008-13.723 c-2.265-6.18-2.378-13.575-6.701-18.735c-1.092-1.304-2.712-2.335-4.384-2.661c-0.973-0.189-1.978-0.164-2.955-0.003 c-0.531,0.088-4.113,0.851-1.36,0.385c-4.854,0.822-10.202,0.297-15.11,0.395c-2.149,0.043-4.299,0.111-6.443,0.273 c-0.913,0.069-1.827,0.18-2.73,0.327c-1.531,0.25-2.359-0.861-3.729-1.633c-2.124-1.197-5.415-1.276-7.793-1.838 c-2.474-0.584-5.506-0.17-7.767,0.968c-1.245,0.626-2.261,1.33-3.361,2.179c0.677-0.523-2.475-2.413-2.962-2.596 c-2.648-0.995-5.199-0.616-7.89,0.037c-3.115,0.756-5.893,2.631-8.687,4.114c1.609-0.855,2.071-2.565,3.303-4.059 c1.874-2.273-5.831-0.752-7.047,0.391c-1.393,1.309-2.853,2.542-4.352,3.728c-1.2,0.949-2.455,1.872-3.784,2.634 c-1.421,0.668-0.913,0.583,1.522-0.258c-0.295-0.534,0.037-1.116,0.267-1.587c1.774-3.634,9.484-6.478,12.255-7.651 c5.066-2.146,0.292-3.284-2.77-2.119c-17.729,6.746-39.748,17.24-47.576,35.951c-2.156,5.153-2.387,11.139,0.444,16.061 c1.271,2.208,3.142,3.985,5.224,5.414c3.917,2.688,8.354,5.841,13.03,7.062c5.698,1.487,9.986-1.798,11.854-6.782 c1.819-4.855-0.974-7.789-3.169-12.045c-4.821-9.352-9.766-22.209-6.691-32.752c0.436-1.494,1.171-2.928,2.131-4.148 c2.528-3.215-0.592,2.447-2.444-0.777c1.523,2.652-12.067,10.231-9.281,1.227c0.284-0.918,0.831-1.911,1.387-2.678 c1.803-2.492-5.892-0.72-7.047,0.391c-2.427,2.333-5.064,4.434-7.864,6.302c-4.631,3.092-3.28-4.275-2.121-6.795 c0.881-1.915-6.409-0.285-7.348,0.826c-1.443,1.707-3.016,3.301-4.639,4.835c-1.28,1.21-2.68,2.384-4.207,3.276 c1.486-0.868,0.943,0.708,0.296-0.873c-0.257-0.627,0.034-1.378,0.221-1.975c0.438-1.402,1.418-2.616,2.35-3.712 c0.606-0.714,1.31-1.343,2.048-1.916c1.399-1.086-1.556-0.649-0.741,0.872c2.673,4.998-6.958,6.612-9.776,7.027 c-2.408,0.354-5.053,0.412-7.405-0.25c-1.248-0.351-1.663-1.867-2.374-2.777c-1.888-2.418-4.744-1.661-7.342-0.8 c-2.491,0.826-4.527,2.849-6.329,4.663c-1.149,1.156-2.23,2.381-3.324,3.59c-0.46,0.509-0.925,1.014-1.394,1.516 c-1.48,1.583-1.248,0.284,2.521-0.412c0.986,0.081,1.972,0.162,2.958,0.243c-0.95-0.825,6.215-8.042,7.338-9.047 c2.269-2.031,4.771-3.872,7.318-5.541c2.97-1.944-2.237-1.965-3.365-1.631c-11.746,3.483-22.815,8.968-32.456,16.561 c-7.266,5.723-15.5,14.153-16.287,23.921c-1.507,18.724,19.957,25.195,33.778,16.898c8.155-4.896-1.367-16.602-4.58-21.661 c-4.813-7.581-15.057-18.968-6.539-27.311c1.748-1.712,4.56-3.294,7.049-3.473c0.739-0.053-0.39,1.303-0.41,1.326 c-1.971,2.16-6.249,3.02-8.917,3.767c-4.236,1.187-9.665,2.968-9.988-2.846c-0.136-2.446,0.231-4.373-2.949-4.198 c-6.021,0.331-11.69,6.179-16.929,8.729c-2.807,1.366-7.358,3.08-8.021-1.471c-0.217-1.492,1.522-2.82,2.542-3.536 c1.812-1.272,0.697-0.991-0.066-0.09c-3.519,4.155-10.805,6.72-15.813,8.242c-6.958,2.116-12.628-0.359-10.742-8.598 c0.8-3.493,3.021-6.595,5.5-9.092c0.492-0.486,1.023-0.923,1.595-1.311c1.693-1.247-1.655-0.64-0.456,0.223 c1,0.72,0.919,2.108,0.624,3.12c-1.6,5.487-9.217,9.548-13.919,11.806c-5.875,2.82-9.846,0.419-8.006-6.406 c0.8-2.969,2.467-5.726,4.137-8.274c0.798-1.217,1.71-2.362,2.638-3.481c2.459-2.968,2.121-0.562-2.546-0.519 c-0.745-0.228-1.489-0.455-2.234-0.683c0.959,1.856-9.857,11.599-11.51,13.167c-2.466,2.341-5.039,4.586-7.826,6.538 c-2.609,1.828,3.33,1.656,3.199-0.548c-0.072-1.209-1.483-2.477-2.261-3.241c-1.708-1.675-14.451-8.719-11.868-11.46 c3.113-3.303,12.185-3.045,13.87,1.488c2.567,6.908-7.409,12.582-12.359,14.619c-2.816,1.159-3.651,0.816-7.387,0.719 c-3.097-0.081-6.136-0.232-9.135-1.071c-2.069-0.578-3.876-2.004-5.934-2.488c-2.671-0.628-5.613,0.66-7.986,1.744 c-1.555,0.709-3.036,1.605-4.546,2.403c-0.646,0.344-1.307,0.66-1.979,0.948c0.902-0.38,0.573,0.201,0.371-0.904 c-0.77-4.211,3.544-10.596,5.542-14.136c0.813-1.44-6.468-0.539-7.648,1.261c-2.656,4.051-5.394,8.044-8.541,11.733 c-0.706,0.827-1.465,1.678-2.304,2.375c-1.85,1.248-0.3,1.107,4.648-0.423c-0.172-0.328-0.079-0.863-0.031-1.194 c0.427-2.936,2.036-5.913,3.409-8.471c1.091-2.033,2.627-3.884,4.499-5.234c0.683-0.493-0.765-0.022-0.992-0.039 c1.827,0.134,3.955-0.418,5.464-1.464C91.092,41.349,90.85,40.356,89.335,40.245L89.335,40.245z"/>
</svg>