<?xml version="1.0" encoding="UTF-8" standalone="no"?>
<svg xmlns="http://www.w3.org/2000/svg" version="1.0" width="200" height="69">
<path fill="#231f20" d="M 3.9358273,50.139688 C -4.8870547,39.388131 16.569464,12.105067 24.638703,5.8854925 c 3.610189,-2.783614 1.640995,0.6786832 0.658424,3.1685389 -1.616684,4.1024876 -4.04171,7.9395806 -6.322896,11.6915846 -5.02023,8.255623 -10.7211687,16.193178 -16.9630277,23.569552 -0.26337,0.309966 1.728109,1.825354 2.100879,1.412067 1.626813,-1.790914 3.363027,-3.205006 5.654342,-4.11667 1.2175777,-0.484195 3.1401757,4.898675 3.6284227,6.093968 0.269447,0.658424 2.163683,1.316848 2.12519,1.219603 -3.075346,-7.514137 -6.3451807,-12.493848 -13.5088337,-4.606942 0.700968,0.470014 1.39991,0.942053 2.100879,1.412067 C 7.0273803,42.285197 35.702252,4.7084325 26.105469,3.3308075 18.500165,2.2388365 9.9122913,19.592867 6.9463443,24.633356 c -3.677045,6.247937 -10.443618,17.961806 -4.756861,24.894505 0.295785,0.356561 2.485804,1.515388 1.746344,0.611827 l 0,0 M 17.811353,43.681055 c 0.421391,0.08509 0.842782,0.170178 1.2662,0.25324 0.611827,0.123582 1.254044,-0.184358 1.620736,-0.678683 0.273499,-0.366691 0.382898,-1.075763 -0.222852,-1.197318 -0.421391,-0.08509 -0.842782,-0.170178 -1.2662,-0.25324 -0.611827,-0.123582 -1.254044,0.184358 -1.620736,0.678683 -0.273499,0.366691 -0.384924,1.075763 0.222852,1.197318 l 0,0 M 31.233073,30.328217 C 27.0536,30.465979 24.5212,28.577822 22.444632,23.294223 c -1.333056,-1.88208 -0.974468,-2.982154 1.071711,-3.298198 0.617906,1.292537 0.915716,2.781588 1.2662,4.16124 1.620736,6.363414 2.121139,13.091494 2.653956,19.616983 0.411261,5.062774 1.209474,10.941994 0.609801,15.978431 -0.153969,1.294563 -7.33383,-1.280382 -8.593952,-1.501207 -2.864651,-0.508506 -5.137733,2.173812 -6.778729,4.009296 0.682736,0.49635 1.367496,0.990675 2.050232,1.487025 4.355728,-5.056696 6.98132,-11.324893 8.61016,-17.7268 0.141814,-0.56118 -2.040102,-1.523492 -2.050232,-1.487025 -1.626813,6.399881 -4.252406,12.668078 -8.61016,17.7268 -0.174229,0.202592 1.784836,1.784835 2.050232,1.487025 4.487412,-5.02023 7.824103,-3.602086 13.632415,-1.752421 1.454611,0.463936 1.93678,-0.834679 1.880054,-2.017816 -0.334277,-6.957009 -0.601698,-13.893759 -1.296589,-20.830509 -0.565232,-5.656369 -0.494324,-21.424104 -8.774259,-22.528231 -0.02431,0.0061 -0.0466,0.01418 -0.07091,0.02228 -3.253627,7.348012 6.298586,15.445614 13.042873,15.222763 -0.05267,-0.002 -1.237837,-1.557932 -1.904364,-1.535647 l 0,0 m -2.95987,7.560733 c 0.50648,0.168152 1.01296,0.336303 1.51944,0.50648 1.239863,0.413288 2.753226,-1.432325 1.237838,-1.938805 -0.50648,-0.168152 -1.01296,-0.336303 -1.51944,-0.50648 -1.239863,-0.415314 -2.753226,1.432325 -1.237838,1.938805 l 0,0 M 40.193717,22.090826 c 1.535647,-1.268226 3.109787,-2.483778 4.710264,-3.666915 1.158826,-0.85899 2.356145,-1.661254 3.591956,-2.404767 0.619932,-0.372769 1.282408,-0.707046 1.993505,-0.856964 -1.821302,0.382899 -0.715149,-2.431104 -1.628839,0.320095 -2.712707,8.174588 -6.934724,16.174945 -7.226457,24.947179 -0.02229,0.619931 1.859795,1.71798 1.863847,1.582243 0.216773,-6.541695 2.739043,-12.90511 5.016177,-18.96261 0.617906,-1.640996 3.668942,-6.626785 2.252824,-8.326532 -3.178669,-3.818859 -9.83179,3.490661 -12.410786,5.619902 -0.220826,0.188411 1.482973,2.040102 1.837509,1.748369 l 0,0 M 69.527012,1.0475954 c 0.719202,6.4241925 1.671384,12.8179956 2.852496,19.1733066 0.692864,3.723641 1.535647,7.451334 2.972024,10.962253 2.301445,5.617876 -2.913273,2.585074 -6.57411,2.121138 -10.1843,-1.292537 -21.653033,2.283212 -29.558172,8.624342 -3.504842,2.814003 1.014985,4.568449 3.186772,5.265366 5.834649,1.865872 12.040042,-1.377626 16.849576,-4.262536 4.438791,-2.664085 8.362998,-6.239834 12.159572,-9.714286 2.828184,-2.589126 5.328169,-5.407181 8.433905,-7.69647 -0.593595,0.437598 -0.549025,4.827767 -0.630061,5.57128 -1.458663,13.658752 11.709817,3.334664 12.115001,-5.311963 -0.769849,-0.307939 -1.539699,-0.617905 -2.311575,-0.925845 0.875198,6.233756 2.888962,13.958589 10.220767,10.846776 3.097633,-1.314822 4.063993,-3.895845 6.689593,-0.960286 0.48622,0.544972 1.32495,1.0474 2.02794,1.353314 4.10452,1.796991 5.6037,-1.148697 6.9246,-4.995919 -0.77391,-0.338328 -1.54578,-0.678683 -2.31968,-1.017011 -0.19652,1.873976 2.76943,9.185521 5.88732,5.26334 3.23134,-4.059944 2.814,-1.659229 6.56196,0.226903 2.80387,1.412066 3.23134,-1.193267 3.54333,-3.713512 -0.76985,-0.307939 -1.5397,-0.617905 -2.31157,-0.925845 2.11911,9.52385 8.51088,19.043648 7.87475,28.810608 -0.41937,6.422167 -5.44973,-6.260093 -5.44568,-7.945658 0.0162,-3.69933 5.91974,-4.641383 8.43593,-6.57411 0.21273,-0.1641 -1.85979,-1.138567 -2.24674,-1.069686 -0.0689,0.0061 -0.13371,0.02634 -0.19652,0.05673 -0.17422,0.06686 1.55996,1.36547 2.17179,1.124385 0.0628,-0.03242 0.12763,-0.04862 0.19854,-0.0547 -0.74959,-0.356562 -1.49715,-0.715149 -2.24674,-1.069685 -3.7358,2.868702 -8.41973,3.010517 -8.44404,8.638522 -0.0142,3.298198 3.73377,8.365024 6.07574,10.59151 0.37682,0.356562 1.60047,1.116282 2.15152,0.863042 7.48578,-3.450142 -4.81966,-27.114913 -6.02508,-32.532223 -0.1013,-0.447729 -2.27511,-1.22163 -2.31158,-0.925846 -0.72325,5.810339 -2.59115,1.825354 -5.13368,0.07698 -0.3282,-0.224877 -1.56604,-1.023089 -1.99148,-0.727305 -1.78483,1.237837 -4.93919,7.718755 -4.23012,0.907612 0.0527,-0.514583 -2.1961,-1.375599 -2.31968,-1.017012 -2.62559,7.637719 -4.51172,2.155579 -9.12879,1.312797 -2.20218,-0.401133 -7.743071,5.707016 -9.531958,3.275912 -1.730136,-2.350066 -2.183942,-6.154744 -2.578996,-8.982928 -0.07293,-0.512558 -2.301446,-1.140593 -2.311575,-0.925845 -0.222851,4.771041 -2.897066,9.400268 -6.904335,12.044094 -0.597647,0.393028 0.107373,-9.854075 -0.01823,-10.630002 -0.546998,-3.373157 -4.047788,-2.056309 -5.854909,-0.723254 -9.935111,7.321675 -18.032713,20.180189 -31.575988,21.020946 -11.326919,0.702994 2.042127,-7.029942 1.521466,-6.711873 4.033606,-2.457441 8.701326,-3.711485 13.25762,-4.738627 7.127186,-1.606554 12.429019,0.510532 19.195592,1.424222 0.05875,0.0081 0.38695,0.08306 0.425443,-0.04457 C 79.577605,34.59683 77.778589,32.341981 77.105983,30.700986 75.578435,26.971267 74.986867,22.743173 74.25551,18.80681 73.214187,13.209193 72.456493,7.5426951 71.824406,1.8883524 71.765656,1.3231204 69.486494,0.69508542 69.527012,1.0475954 l 0,0 M 111.44127,26.138614 c 2.73094,-0.942053 5.47606,-1.829405 8.23131,-2.694473 1.77066,-0.555102 3.55752,-1.055504 5.35046,-1.543751 3.89179,-1.05753 2.06846,-1.069686 0.14181,0.865068 -0.24918,0.249188 -0.21069,0.445702 -0.075,0.753642 0.72731,1.659228 1.39181,2.01579 2.88694,3.136124 1.46069,1.089945 2.88491,2.218382 4.299,3.367079 5.71917,4.655564 -2.72283,2.052257 -4.23417,0.919768 -0.97447,-0.729332 -2.61952,-0.265396 -1.27836,0.810368 2.83832,2.27916 5.61383,2.83021 9.09841,2.135319 3.35492,-0.670579 13.29408,-10.496291 12.0522,-14.570416 -0.86305,-2.828184 -11.12433,-13.8856556 -12.16768,-6.148667 -0.73541,5.467958 1.25405,20.753524 9.45295,20.405066 1.04942,-0.04457 2.95176,-0.413288 3.38531,-1.36547 1.66328,-3.656786 -2.61546,-6.478893 0.14181,-2.544556 1.85777,2.651929 4.63125,4.412454 7.78156,3.271861 0.20664,-0.07293 0.36264,-0.155996 0.38898,-0.397081 0.29173,-2.508088 6.7848,-1.173007 9.15513,-1.527543 6.62273,-0.984597 4.04171,-3.529153 5.54089,2.246745 2.49796,9.631224 3.8067,19.552154 7.10895,28.976734 2.87478,8.20295 -7.99833,-2.978103 -9.11866,-4.244303 -7.52427,-8.512915 -5.03644,-15.255177 3.77834,-21.547685 8.5899,-6.128408 23.20691,-8.160405 26.08777,-19.566335 0.2188,-0.869119 -2.01377,-2.007686 -2.28321,-0.942052 -3.82697,15.145777 -36.96697,14.511664 -34.89445,32.672011 0.48825,4.270639 13.00236,22.264861 18.67088,20.234889 2.6965,-0.966364 -5.90151,-29.68378 -6.81317,-33.79032 -0.4923,-2.21433 0.5389,-6.634888 -2.11506,-7.732936 -1.34724,-0.557128 -3.23134,0.470013 -4.34155,0.881275 -4.32939,1.594399 -8.16648,0.03647 -12.40065,0.767824 -0.2107,0.03647 -0.36467,0.186384 -0.38898,0.39708 -0.46394,3.695278 -4.93919,-0.583465 -5.9481,-2.538478 -0.29578,-0.573335 -2.42097,-1.543751 -2.14342,-0.29781 -1.15072,5.713094 -2.93556,6.859765 -5.35451,3.43596 -1.68354,-2.662059 -2.30347,-6.491047 -3.04293,-9.497512 -2.11303,-4.386117 -0.64829,-6.529541 4.3922,-6.426219 7.05627,5.411233 -1.02917,11.608522 -4.06805,14.467095 -3.03078,2.848443 -15.70899,1.746343 -10.00399,4.50362 2.15355,1.043349 4.84194,2.311575 7.28723,1.991479 2.44934,-0.316043 1.329,-1.952987 0.22285,-3.314405 -1.52552,-1.876002 -3.72567,-3.344794 -5.60775,-4.81156 -3.5413,-2.755251 -2.13126,-2.674214 -0.36264,-5.763742 0.2107,-0.366691 -0.16207,-0.856964 -0.4457,-1.059556 -4.299,-3.128021 -15.46587,2.826158 -19.87832,4.347624 -1.18112,0.409236 0.6807,2.023894 1.51133,1.738239 l 0,0 m -6.3391,4.25038 c 0.4457,-0.968389 0.0993,-1.920572 -0.58549,-2.662059 -0.87317,-0.950156 -1.93273,-0.832653 -3.07332,-0.619931 -2.260931,0.425443 -2.256879,2.690422 -2.267008,4.665694 -0.0061,1.30064 -0.03039,5.476061 2.040098,5.370714 0.77998,-0.04052 2.26296,-0.04254 2.7978,-0.737435 1.23176,-1.608581 1.18516,-4.098436 1.08792,-6.016983 -0.006,-0.117503 -2.51417,0.1094 -2.49999,0.395055 0.079,1.572114 0.31605,5.425414 -1.48702,6.262118 0.6098,-0.125607 1.21758,-0.247162 1.82333,-0.370743 -0.56726,0.04457 -1.00891,-2.473648 -1.06361,-2.793744 -0.23704,-1.401936 -0.24919,-2.856547 -0.10535,-4.266587 0.0588,-0.585491 0.18841,-1.158826 0.38898,-1.711902 0.0912,-0.243111 0.23095,-0.470014 0.40923,-0.662476 0.0446,-0.03444 0.0912,-0.06888 0.13574,-0.103322 -1.94691,-0.03444 -2.3136,0.186384 -1.10008,0.658424 1.02107,0.591568 1.48906,1.910442 0.99676,2.988232 0.11345,-0.245137 2.24674,0.162073 2.50201,-0.395055 z" />
</svg>
