<?xml version="1.0" standalone="no"?>
<!DOCTYPE svg PUBLIC "-//W3C//DTD SVG 20010904//EN"
 "http://www.w3.org/TR/2001/REC-SVG-20010904/DTD/svg10.dtd">
<svg version="1.0" xmlns="http://www.w3.org/2000/svg"
 width="468pt" height="165pt" viewBox="0 0 468 165"
 preserveAspectRatio="xMidYMid meet">
<metadata>
Created by POTRACE VERSION, written by Peter Selinger 2001-2007
</metadata>
<g transform="translate(0,165) scale(0.064198,-0.064198)"
fill="#000000" stroke="none">
<path d="M4071 2450 c-29 -16 -60 -35 -69 -42 -8 -7 -47 -52 -86 -99 -39 -47
-95 -118 -125 -157 l-54 -70 -96 -27 c-52 -14 -145 -47 -206 -71 -60 -25 -144
-64 -185 -86 -41 -23 -95 -52 -120 -66 -25 -14 -76 -46 -115 -71 -38 -26 -97
-65 -130 -88 -33 -23 -123 -92 -200 -153 -77 -61 -175 -128 -218 -150 -43 -22
-94 -42 -114 -46 -26 -5 -46 -2 -69 11 -18 10 -35 23 -38 30 -2 7 3 21 13 31
9 11 27 35 41 54 13 19 53 69 89 110 36 41 102 113 146 160 44 47 94 103 112
123 27 32 41 39 89 47 31 5 66 12 77 15 12 3 60 18 107 31 47 14 105 35 130
46 25 11 63 27 85 35 22 7 87 39 145 69 58 31 135 79 172 107 38 28 79 68 93
89 14 21 25 46 25 56 0 10 -6 27 -14 38 -11 14 -30 20 -78 24 -34 3 -102 2
-149 -2 -47 -3 -130 -14 -185 -23 -54 -9 -146 -28 -204 -41 -58 -14 -150 -39
-205 -56 -55 -16 -152 -53 -215 -81 -97 -43 -125 -51 -180 -53 -36 -1 -82 -9
-104 -18 -21 -10 -36 -19 -34 -21 2 -3 27 3 55 12 29 9 59 13 69 9 18 -8 18
-8 0 -19 -11 -7 -66 -43 -122 -80 -57 -37 -131 -95 -166 -127 -35 -33 -66 -59
-71 -60 -4 0 -21 -21 -37 -47 -17 -26 -30 -58 -30 -72 0 -15 5 -33 10 -41 8
-12 13 -13 27 -3 10 7 38 23 63 35 25 13 83 46 130 75 47 28 117 83 157 121
43 43 79 89 92 117 12 26 21 58 21 70 0 18 16 30 88 65 48 23 122 55 165 71
43 16 82 29 87 29 6 0 -21 -30 -58 -67 -38 -38 -93 -91 -123 -119 -30 -28 -92
-91 -138 -140 -46 -49 -139 -145 -205 -213 -67 -68 -155 -153 -197 -190 -42
-36 -119 -89 -170 -118 -52 -28 -127 -63 -167 -77 -57 -19 -84 -24 -120 -19
-25 3 -56 15 -69 26 -13 12 -23 28 -23 37 0 9 -5 21 -11 27 -7 7 -25 2 -60
-16 -27 -14 -49 -29 -49 -32 0 -4 12 -27 26 -53 14 -25 32 -46 40 -46 7 0 30
-8 51 -17 21 -10 45 -23 53 -30 13 -10 29 -7 85 13 39 14 106 43 150 66 44 22
104 55 133 73 30 18 65 43 79 55 13 11 38 29 54 39 16 10 27 20 24 23 -3 2 37
45 88 95 50 50 142 144 202 208 61 65 117 126 125 135 8 9 60 63 114 120 55
58 118 125 140 149 23 24 64 59 93 78 34 21 69 35 98 37 24 3 50 8 55 11 6 4
25 8 43 11 18 2 41 6 52 9 11 2 38 9 60 15 22 6 99 17 170 25 72 8 145 12 163
8 19 -3 40 -15 48 -28 11 -17 12 -29 5 -48 -6 -14 -26 -44 -46 -66 -20 -22
-65 -58 -99 -79 -34 -22 -95 -56 -136 -77 -40 -20 -124 -57 -186 -81 -62 -24
-156 -56 -209 -70 -53 -14 -99 -23 -102 -20 -3 2 2 15 11 28 9 12 16 26 16 30
0 5 -9 8 -21 8 -11 0 -40 -13 -63 -30 -28 -19 -45 -39 -49 -57 -3 -18 -36 -58
-87 -108 -45 -44 -132 -134 -192 -200 -61 -66 -123 -142 -138 -169 l-28 -48
25 -29 c14 -16 41 -33 60 -40 19 -6 51 -8 76 -4 23 4 47 11 52 15 6 4 24 10
40 14 17 4 65 28 108 54 42 25 90 58 105 72 15 15 54 46 87 71 33 24 62 46 65
49 3 3 41 32 85 65 44 33 82 63 85 66 3 4 28 18 55 33 28 15 69 40 92 56 23
17 97 59 165 94 67 35 143 70 168 79 25 9 63 23 85 33 22 9 70 25 107 35 37
11 72 19 78 19 5 0 -6 -20 -25 -45 -19 -25 -41 -68 -49 -96 -11 -34 -12 -57
-6 -74 5 -14 16 -25 25 -25 8 0 15 -4 15 -9 0 -4 -35 -46 -77 -92 -43 -46
-114 -120 -158 -165 -44 -44 -105 -99 -136 -122 -30 -23 -86 -57 -123 -77 -52
-27 -79 -35 -120 -35 -43 0 -57 4 -76 25 -23 25 -23 28 -11 86 7 34 10 63 7
66 -2 3 -14 2 -26 -2 -12 -4 -30 -25 -41 -48 -10 -23 -19 -61 -19 -83 0 -32 5
-45 23 -57 12 -8 36 -17 53 -21 17 -4 69 -2 115 3 45 6 87 15 93 21 5 5 26 10
46 10 19 0 48 7 64 15 15 8 33 15 40 15 6 0 40 14 74 30 35 17 71 30 80 30 10
0 61 22 115 50 53 27 123 64 155 84 31 19 120 72 197 118 77 46 151 91 165
101 14 10 45 31 70 47 24 16 46 27 49 25 2 -3 -1 -11 -7 -18 -7 -8 -9 -17 -5
-20 3 -4 18 -7 32 -7 15 0 62 12 106 26 44 14 100 35 125 45 25 11 62 29 83
40 21 11 41 19 43 16 2 -2 -58 -68 -133 -147 -88 -91 -164 -161 -209 -190 -39
-25 -85 -52 -103 -60 -27 -11 -34 -11 -41 0 -5 7 -6 28 -3 47 5 30 4 33 -21
33 -18 0 -30 -7 -38 -25 -6 -14 -15 -25 -20 -25 -5 0 -16 -16 -24 -35 -7 -19
-14 -45 -14 -59 0 -13 7 -27 16 -30 9 -3 32 -6 53 -6 20 0 47 7 59 16 15 10
43 16 80 15 31 0 84 4 117 8 33 5 68 12 78 16 13 5 17 2 17 -13 0 -12 9 -23
20 -27 11 -4 37 -1 58 6 20 7 58 25 84 41 27 17 48 34 48 39 0 5 7 9 15 9 8 0
15 -4 15 -9 0 -5 15 -14 33 -20 17 -5 50 -12 72 -15 22 -3 67 0 100 8 33 8 70
17 81 21 16 5 23 2 27 -14 4 -17 13 -21 44 -21 21 0 63 6 93 14 30 7 79 23
108 35 29 11 55 21 57 21 3 0 5 -13 5 -30 0 -20 7 -33 23 -42 12 -6 33 -11 47
-9 14 1 47 9 74 18 26 8 78 36 115 61 36 25 77 53 90 64 13 10 26 16 29 13 3
-3 -4 -15 -15 -28 -11 -12 -26 -32 -32 -44 -6 -12 -8 -28 -5 -36 4 -10 21 -15
58 -16 40 0 70 8 122 33 38 18 75 40 83 49 7 10 19 17 25 17 6 1 26 14 45 30
19 16 36 28 38 26 2 -1 -4 -18 -13 -37 -10 -19 -32 -56 -51 -83 -28 -38 -32
-51 -21 -58 7 -5 28 -7 47 -4 18 3 75 30 127 60 91 53 94 54 94 31 0 -15 9
-29 22 -36 14 -8 48 -9 103 -5 69 6 83 4 88 -9 4 -9 19 -15 40 -15 19 0 51 7
70 15 20 8 41 15 47 15 6 0 -14 -33 -44 -74 -29 -40 -61 -86 -69 -102 -8 -16
-37 -56 -64 -90 -27 -33 -97 -106 -155 -162 -74 -72 -113 -102 -129 -102 -13
0 -67 9 -119 19 -52 11 -133 29 -180 40 -47 10 -125 24 -175 30 -49 6 -153 11
-230 11 -77 -1 -174 -7 -215 -14 -41 -8 -111 -27 -154 -43 -44 -16 -82 -35
-84 -43 -3 -9 0 -11 14 -5 11 4 54 20 96 35 43 16 97 31 120 35 24 4 57 9 73
12 17 3 98 5 182 5 84 0 167 -5 185 -10 18 -6 61 -13 96 -17 35 -3 73 -10 85
-15 12 -4 56 -15 97 -23 41 -9 101 -21 133 -27 32 -6 61 -17 63 -25 4 -8 29
-12 82 -12 42 0 131 -6 197 -13 92 -9 151 -10 255 -1 74 6 169 20 210 31 41
11 84 24 95 29 11 5 40 19 65 30 25 11 56 31 70 44 14 13 41 42 60 65 19 24
45 68 57 100 13 33 22 80 22 113 1 42 -5 64 -22 90 -14 21 -37 39 -62 47 -26
9 -64 12 -106 9 -36 -3 -111 -20 -165 -38 -55 -18 -160 -64 -234 -101 -74 -37
-136 -68 -138 -68 -1 0 21 35 49 78 29 42 79 113 112 157 33 44 85 106 116
138 46 47 53 59 41 67 -8 5 -29 10 -46 10 -17 0 -64 -11 -105 -25 -41 -14 -98
-42 -127 -62 -29 -20 -62 -49 -73 -64 -11 -16 -36 -33 -57 -39 -20 -5 -58 -10
-84 -10 -27 0 -48 5 -48 10 0 6 9 28 20 49 10 22 27 46 35 55 9 9 13 20 10 26
-3 5 -15 10 -25 10 -11 0 -29 -8 -41 -17 -12 -10 -36 -30 -53 -44 -17 -14 -63
-45 -102 -67 -38 -23 -72 -42 -75 -42 -3 0 15 40 39 89 25 50 42 96 39 105 -4
9 -17 16 -30 16 -13 0 -32 -8 -43 -17 -10 -10 -56 -46 -101 -81 -45 -34 -106
-74 -135 -87 -29 -14 -59 -25 -65 -25 -7 0 -13 4 -13 9 0 5 15 31 33 58 18 27
45 65 60 85 15 19 24 38 20 41 -3 4 -16 7 -27 7 -12 0 -38 -11 -58 -25 -20
-14 -40 -25 -43 -25 -4 0 -44 -27 -90 -60 -45 -33 -104 -70 -131 -84 -27 -13
-59 -27 -71 -31 -18 -5 -23 -2 -23 12 0 10 10 35 23 55 12 20 33 45 47 56 14
10 61 40 105 67 44 26 118 75 165 108 47 34 110 81 140 106 30 25 71 59 90 77
19 17 51 34 70 38 19 3 152 8 295 11 143 3 340 8 438 11 156 5 177 3 177 -10
0 -10 -9 -16 -25 -16 -14 0 -25 -4 -25 -10 0 -5 18 -10 40 -10 30 0 42 5 51
21 9 17 8 25 -4 36 -9 9 -34 16 -59 16 -23 1 -232 -4 -462 -11 -230 -7 -420
-11 -422 -9 -2 2 17 23 41 47 24 25 44 53 45 63 0 13 -8 17 -34 17 -20 0 -63
-15 -101 -35 -37 -19 -90 -51 -118 -71 l-51 -37 -280 6 c-216 3 -297 8 -351
22 -38 9 -84 25 -101 36 -17 10 -36 30 -42 44 -7 14 -12 38 -12 53 0 16 5 33
12 40 9 9 7 12 -10 12 -12 0 -31 -9 -42 -20 -13 -13 -20 -33 -20 -60 0 -30 7
-47 24 -65 13 -13 53 -33 90 -44 36 -11 112 -25 169 -31 56 -6 198 -11 314
-13 180 -2 210 -4 200 -16 -7 -8 -64 -59 -127 -114 -63 -55 -158 -143 -210
-196 -93 -95 -97 -97 -197 -134 -57 -20 -112 -37 -123 -37 -11 0 -20 5 -20 12
0 6 83 92 185 191 101 99 182 184 179 188 -3 5 -12 9 -20 9 -9 0 -57 -34 -108
-75 -51 -41 -138 -119 -192 -173 -81 -81 -110 -103 -159 -122 -33 -13 -85 -25
-115 -27 -30 -2 -61 0 -69 5 -11 8 -7 22 19 73 18 35 42 83 53 105 11 23 33
50 49 60 15 11 28 22 28 25 0 4 -17 9 -37 12 -28 3 -51 -2 -85 -21 -26 -13
-55 -32 -65 -41 -10 -9 -45 -39 -78 -65 -33 -27 -85 -70 -115 -96 -30 -25 -75
-54 -100 -63 -25 -9 -75 -20 -111 -25 -37 -4 -75 -5 -85 -2 -16 6 -14 10 17
31 20 13 64 45 99 72 34 26 95 80 134 120 39 40 98 103 131 142 33 38 87 95
120 127 50 49 56 58 37 58 -13 0 -49 -17 -80 -39 -32 -21 -104 -61 -162 -89
-58 -27 -131 -57 -164 -67 -32 -9 -60 -14 -62 -12 -2 2 13 23 33 46 20 23 46
47 59 52 13 4 36 26 51 48 16 22 33 40 38 41 6 0 33 15 60 33 28 18 75 45 105
61 30 16 85 48 122 73 37 24 76 46 85 50 10 4 20 9 23 12 3 4 30 25 60 48 30
23 81 66 113 97 31 31 57 60 57 65 0 5 -18 12 -40 16 -23 4 -55 2 -77 -6 -21
-6 -60 -23 -88 -37 -27 -13 -86 -50 -130 -80 -44 -31 -118 -87 -165 -126 -47
-38 -133 -120 -192 -182 -89 -92 -134 -129 -255 -210 -82 -54 -164 -107 -183
-119 -19 -12 -70 -43 -113 -69 -43 -25 -80 -46 -83 -46 -3 0 -18 -8 -32 -19
-15 -10 -81 -46 -147 -79 -66 -33 -171 -78 -232 -101 -62 -23 -118 -41 -125
-41 -7 0 14 17 47 37 33 20 87 58 120 84 33 26 96 85 141 131 45 46 109 116
143 156 34 40 76 86 94 103 17 16 79 61 137 99 58 37 122 86 144 108 25 26 37
46 33 56 -5 12 -21 16 -63 16 -53 0 -56 1 -42 18 8 9 45 66 81 125 37 60 67
111 67 114 0 4 6 14 14 22 8 9 18 28 21 44 7 25 5 27 -21 27 -16 0 -53 -14
-83 -30z m39 -24 c0 -2 -15 -28 -33 -57 -18 -30 -61 -97 -95 -149 -60 -92 -64
-95 -112 -106 -28 -7 -52 -8 -55 -4 -3 5 5 21 18 37 12 15 34 46 48 68 15 22
40 54 56 72 16 17 37 43 46 56 9 13 37 38 63 56 26 17 51 31 56 31 4 0 8 -2 8
-4z m865 -62 c-22 -19 -71 -59 -110 -88 -38 -29 -86 -61 -105 -71 -19 -10 -48
-28 -65 -40 -16 -12 -37 -25 -45 -29 -8 -4 -6 0 5 8 11 9 27 22 35 29 9 6 40
30 70 53 30 22 97 70 149 107 52 37 97 67 100 67 3 0 -12 -16 -34 -36z m-376
-227 c-2 -1 -15 -11 -29 -22 l-25 -20 19 23 c11 12 24 22 29 22 6 0 8 -1 6 -3z
m-549 -36 c0 -6 -24 -30 -52 -56 -29 -25 -73 -57 -96 -72 -38 -22 -42 -23 -34
-6 6 10 31 46 56 81 43 58 48 62 86 62 22 0 40 -4 40 -9z m-160 -7 c0 -3 -14
-26 -31 -51 -17 -25 -54 -75 -82 -112 -27 -36 -56 -70 -64 -74 -8 -5 -21 -6
-30 -3 -12 5 -14 15 -9 41 4 20 28 67 53 105 40 60 52 72 87 81 23 5 46 12 51
14 6 2 13 4 18 4 4 1 7 -2 7 -5z m-1545 -27 c-2 -13 -10 -38 -19 -54 -8 -17
-38 -56 -67 -87 -28 -31 -86 -80 -128 -110 -42 -29 -99 -65 -128 -80 -29 -14
-54 -22 -57 -17 -3 5 -3 23 0 39 4 20 28 51 68 89 34 32 75 69 91 83 17 13 50
40 74 58 24 19 65 45 90 59 25 13 50 28 56 34 5 5 12 9 16 9 3 0 5 -11 4 -23z
m3609 -6 c3 -5 -1 -14 -8 -21 -8 -6 -30 -10 -48 -8 l-33 3 30 16 c17 9 35 17
42 18 6 1 14 -3 17 -8z m-75 -87 c-18 -20 -67 -63 -108 -96 -40 -33 -121 -92
-178 -130 -58 -38 -107 -68 -109 -65 -2 2 22 28 53 58 32 30 109 99 170 154
88 78 121 101 150 106 21 3 42 7 47 8 6 0 -6 -15 -25 -35z m745 -347 c-3 -8
-37 -35 -77 -60 -39 -26 -82 -47 -94 -47 -20 0 -22 3 -12 18 6 10 48 37 93 59
44 23 84 42 88 42 4 1 5 -5 2 -12z m-1954 -57 c-8 -5 -39 -27 -69 -49 -30 -23
-59 -41 -63 -41 -5 0 -6 6 -2 13 5 6 19 21 33 32 13 11 43 30 65 42 23 11 43
19 46 16 3 -2 -2 -8 -10 -13z m2423 -131 c12 -15 17 -39 17 -78 0 -32 -7 -80
-16 -107 -10 -27 -26 -62 -37 -79 -11 -16 -36 -47 -56 -68 -20 -21 -63 -54
-96 -72 -33 -19 -94 -43 -135 -55 -41 -11 -128 -26 -192 -32 -92 -9 -148 -9
-259 1 -77 7 -146 14 -153 17 -6 2 44 61 114 132 113 113 138 133 236 187 60
33 125 67 144 76 19 10 78 34 130 54 52 20 113 41 135 45 22 5 65 7 95 5 41
-3 59 -9 73 -26z"/>
<path d="M3625 1258 c-11 -6 -35 -24 -52 -41 -18 -17 -33 -37 -33 -45 0 -9 7
-11 20 -7 11 3 44 22 75 42 30 20 55 42 55 49 0 8 -10 14 -22 14 -13 0 -32 -6
-43 -12z"/>
<path d="M2607 1243 c-10 -3 -22 -16 -27 -29 -6 -15 -6 -34 0 -49 6 -15 17
-25 30 -25 15 0 20 7 20 25 0 14 9 30 20 37 11 7 20 21 20 30 0 12 -7 18 -22
17 -13 -1 -31 -3 -41 -6z"/>
<path d="M3014 1127 c-7 -6 -31 -30 -54 -52 -24 -22 -67 -73 -97 -112 -30 -40
-57 -73 -60 -73 -3 0 -22 4 -42 10 -20 5 -88 21 -151 34 -63 14 -153 32 -200
41 -47 8 -139 22 -205 31 -66 8 -221 18 -345 21 -181 4 -251 2 -360 -12 -74
-9 -166 -23 -205 -30 -38 -8 -71 -12 -73 -10 -2 2 9 15 25 29 15 15 42 34 60
42 18 9 54 22 80 30 l48 14 -45 -6 c-25 -3 -70 -17 -100 -30 -30 -14 -68 -38
-85 -54 -16 -16 -42 -33 -58 -39 -15 -6 -90 -29 -167 -51 -76 -22 -172 -53
-212 -69 -41 -17 -116 -51 -168 -76 -52 -26 -117 -61 -145 -78 -27 -16 -81
-51 -120 -76 -38 -25 -101 -78 -140 -116 -45 -45 -82 -95 -104 -139 -27 -53
-35 -81 -37 -129 -1 -34 2 -72 7 -84 5 -13 13 -23 19 -23 6 0 10 27 10 65 0
39 7 84 18 113 11 27 34 71 52 97 18 27 52 67 75 90 24 23 71 63 105 88 34 26
105 72 157 103 52 31 138 75 191 99 53 24 127 55 164 69 36 14 73 26 80 26 8
0 38 8 68 19 30 10 74 21 98 25 40 6 42 5 42 -18 0 -14 5 -36 11 -50 7 -14 29
-37 50 -52 21 -14 76 -36 121 -48 75 -19 108 -21 348 -20 211 1 332 8 597 33
182 17 337 33 345 35 7 2 38 7 68 11 l54 6 -74 -59 c-41 -32 -88 -67 -105 -77
-16 -11 -67 -46 -112 -78 -46 -33 -83 -65 -83 -73 0 -7 4 -15 9 -18 5 -3 73
37 152 88 79 52 185 124 236 161 91 65 93 66 174 72 78 6 81 5 70 -13 -5 -10
-34 -44 -63 -75 -29 -31 -100 -98 -158 -150 -58 -52 -119 -104 -135 -117 -17
-12 -39 -29 -50 -37 -19 -14 -19 -14 5 -15 14 0 35 7 45 15 11 8 47 35 80 60
33 25 74 56 90 69 17 13 64 52 107 85 42 34 97 82 121 107 44 44 47 46 89 39
24 -4 62 -14 85 -21 22 -8 133 -30 245 -48 111 -19 250 -40 308 -47 58 -7 218
-12 355 -12 138 0 304 6 370 12 80 8 150 23 210 42 52 18 101 41 118 56 15 15
27 37 27 49 0 14 -11 30 -27 41 -16 10 -45 24 -65 31 -20 7 -76 19 -125 28
-48 8 -189 17 -313 21 -134 3 -305 1 -425 -6 -110 -7 -312 -23 -450 -37 -137
-13 -260 -27 -272 -29 -13 -3 -23 -1 -23 4 0 5 8 15 17 22 9 8 43 49 75 92 32
43 58 83 58 88 0 5 -11 9 -24 9 -16 0 -47 -25 -103 -82 -44 -46 -93 -98 -109
-115 -21 -24 -38 -33 -64 -34 -19 -1 -50 1 -67 5 -18 4 -33 9 -33 11 0 2 25
39 55 82 30 43 67 93 83 112 15 19 27 42 27 50 0 9 -9 17 -20 18 -11 2 -25 -3
-31 -10z m-954 -128 c80 -6 206 -22 280 -35 74 -13 189 -35 255 -50 66 -14
135 -28 153 -31 17 -3 32 -10 32 -15 0 -5 -6 -16 -14 -24 -9 -9 -64 -19 -153
-29 -76 -8 -176 -19 -223 -25 -47 -6 -159 -17 -250 -25 -91 -9 -266 -18 -390
-21 -178 -5 -245 -3 -319 9 -51 9 -116 27 -145 41 -30 15 -59 38 -70 56 -10
17 -19 43 -21 56 -2 19 4 28 22 35 13 5 57 16 96 25 40 8 101 20 137 26 36 6
148 13 250 17 102 4 192 6 200 5 8 -2 80 -8 160 -15z m2480 -84 c63 -8 124
-18 135 -21 11 -3 41 -15 68 -26 35 -16 47 -27 47 -43 0 -12 -10 -31 -23 -43
-13 -12 -48 -30 -79 -41 -32 -11 -115 -27 -185 -36 -84 -11 -204 -17 -348 -17
-121 -1 -274 4 -340 11 -66 7 -214 28 -330 47 -115 19 -250 45 -298 58 -65 17
-85 25 -75 33 7 6 31 14 53 18 22 4 83 11 135 15 52 4 160 15 240 24 80 8 195
19 255 24 61 5 227 10 371 10 183 2 294 -2 374 -13z"/>
</g>
</svg>
