<?xml version="1.0" encoding="UTF-8" standalone="no"?>
<!-- Created with Inkscape (http://www.inkscape.org/) -->

<svg
   xmlns:dc="http://purl.org/dc/elements/1.1/"
   xmlns:cc="http://creativecommons.org/ns#"
   xmlns:rdf="http://www.w3.org/1999/02/22-rdf-syntax-ns#"
   xmlns:svg="http://www.w3.org/2000/svg"
   xmlns="http://www.w3.org/2000/svg"
   xmlns:sodipodi="http://sodipodi.sourceforge.net/DTD/sodipodi-0.dtd"
   xmlns:inkscape="http://www.inkscape.org/namespaces/inkscape"
   width="1052.3622"
   height="744.09448"
   id="svg2"
   version="1.1"
   inkscape:version="0.48.1 "
   sodipodi:docname="Aláírás 1.svg">
  <defs
     id="defs4" />
  <sodipodi:namedview
     id="base"
     pagecolor="#ffffff"
     bordercolor="#666666"
     borderopacity="1.0"
     inkscape:pageopacity="0.0"
     inkscape:pageshadow="2"
     inkscape:zoom="0.40673828"
     inkscape:cx="670.11001"
     inkscape:cy="182.98462"
     inkscape:document-units="px"
     inkscape:current-layer="layer1"
     showgrid="false"
     inkscape:window-width="1280"
     inkscape:window-height="774"
     inkscape:window-x="-4"
     inkscape:window-y="-4"
     inkscape:window-maximized="1" />
  <metadata
     id="metadata7">
    <rdf:RDF>
      <cc:Work
         rdf:about="">
        <dc:format>image/svg+xml</dc:format>
        <dc:type
           rdf:resource="http://purl.org/dc/dcmitype/StillImage" />
        <dc:title></dc:title>
      </cc:Work>
    </rdf:RDF>
  </metadata>
  <g
     inkscape:label="Layer 1"
     inkscape:groupmode="layer"
     id="layer1"
     transform="translate(0,-308.2677)">
    <g
       id="g3868"
       transform="matrix(1.1843566,0,0,1.1843566,-41.867576,-153.64542)">
      <g
         style="fill:#000000;fill-opacity:1;stroke:none"
         transform="matrix(2.6507086,0,0,2.6507086,-391.46944,-574.27352)"
         id="g3769">
        <path
           style="fill:#000000;fill-opacity:1;stroke:none"
           d="m 179.61673,392.88162 c 21.57119,-7.50148 42.9321,0.70841 53.88732,8.86162 28.64825,21.32087 48.9473,51.00118 67.1465,85.71293 4.53104,8.64215 30.31353,42.78804 10.21802,70.44687 -1.72694,2.37691 7.18067,-13.85737 1.90146,-32.00793 -9.34087,-32.11501 -49.73608,-89.63634 -61.48056,-101.41124 -34.45132,-34.54057 -67.26571,-38.06697 -82.25593,-21.51919 -10.4372,11.52168 -2.68305,-5.46966 10.58319,-10.08306 z"
           id="path3006"
           inkscape:connector-curvature="0"
           sodipodi:nodetypes="ssssssss" />
        <path
           style="fill:#000000;fill-opacity:1;stroke:none"
           d="m 300.28836,568.93967 c 6.77356,-13.56692 17.04582,-11.50398 25.76157,-3.74762 2.56678,2.28424 4.96377,-25.48869 -1.06607,-42.19442 -7.78347,-21.56419 -15.26177,-42.07149 -20.76342,-63.68448 -2.84843,-11.18994 -7.81559,-31.00591 -4.8089,-43.94132 5.49338,-23.63368 23.35726,-27.79935 36.96902,0.34333 6.89639,23.82963 10.33565,41.93618 6.19761,63.71631 -2.10536,10.32399 -7.22929,15.83046 -12.27054,24.5842 -7.46172,12.95668 -28.56882,26.28035 -34.4356,30.56703 -35.745,26.1178 -29.0919,-16.67364 11.09379,-0.68627 6.66671,2.65226 20.09717,6.59337 29.33585,11.11547 13.58065,6.64739 17.65349,6.81012 23.36166,3.82163 2.65009,-1.38744 -2.77139,8.40729 -3.58543,11.87673 -1.42569,6.07626 0.64293,12.07243 3.36134,9.85993 6.6272,-5.39385 7.05861,-2.91427 3.11006,0.35536 -5.62458,4.80362 -11.01415,6.20993 -11.50544,-2.59625 -0.37556,-6.73167 8.23448,-12.79042 1.31267,-14.52736 -12.43346,-3.12001 -25.98625,-7.59181 -39.0525,-13.72382 -45.10465,-21.1677 -50.13168,19.94188 -11.23165,-12.53308 14.9124,-10.53218 32.04401,-26.86185 37.42291,-46.61057 2.91776,-13.37122 1.1969,-38.32929 -3.38853,-54.03737 -11.53528,-36.87028 -36.31917,-38.01139 -34.25847,2.27274 0.96011,18.76898 4.71481,33.71555 11.17727,51.47024 4.9487,13.59581 13.21195,34.13929 16.6098,48.2495 2.344,10.44441 3.3381,33.12971 -3.00598,42.8395 -4.84218,7.41108 -3.6427,0.29727 -4.38897,-0.48662 -12.15268,-12.7652 -16.09922,-7.68928 -20.0856,-0.52006 -8.46374,15.22142 -10.37039,15.24999 -1.86645,-1.78273 z"
           id="path3776"
           inkscape:connector-curvature="0"
           sodipodi:nodetypes="sssssccssssssscssscccsscssss" />
      </g>
      <path
         sodipodi:nodetypes="ssssssssscccsscss"
         inkscape:connector-curvature="0"
         id="path3086"
         d="m 618.89924,891.55269 c -8.07713,-1.53044 -24.646,-2.49817 -33.29477,1.58934 -8.33995,3.94156 -6.58874,20.98643 -9.75447,38.07935 -4.69616,25.35626 13.91254,29.22982 34.35684,2.92409 3.72292,-4.79029 3.6657,-0.91825 5.26817,2.51132 3.58439,7.67119 3.42587,18.19103 9.71079,11.23834 8.87742,-9.82064 6.99138,-15.56269 18.92142,-19.83434 8.60253,-3.08021 -0.62781,-10.56455 -2.60772,-6.95392 -2.43301,4.43692 -10.89396,16.05216 -13.50412,10.78188 -3.69075,-7.45215 -1.67285,-10.32254 0.46551,-15.12809 4.78862,-7.62492 9.46909,-1.08122 9.56164,-4.3462 -0.20773,-6.02951 -10.58164,-8.31548 -13.90784,0.86924 -5.78518,18.25079 -15.32432,2.00542 -18.56138,18.71956 -0.86395,4.46088 -6.47729,12.97178 -13.35498,10.21997 -7.03509,-2.81479 -7.90859,-22.37127 -6.33023,-34.15497 2.44918,-14.86998 10.1407,-9.38362 20.13263,-9.61438 8.40541,-0.19412 15.97781,-6.31773 12.89851,-6.90119 z"
         style="fill:#000000;fill-opacity:1;stroke:none" />
      <path
         sodipodi:nodetypes="csscscscscsssc"
         transform="translate(0,308.2677)"
         inkscape:connector-curvature="0"
         id="path3856"
         d="m 623.86555,583.05727 c 2.10291,-5.35522 6.73972,-9.63128 11.67827,-5.22449 17.54489,15.65571 15.53161,28.76113 23.35654,43.94718 11.6186,22.54849 21.73021,4.2758 40.2593,-11.06363 13.88989,-12.0861 1.53993,-6.24831 -14.44417,-5.53181 -15.90143,0.71279 -14.52774,-17.27432 -2.15127,-24.58584 6.05056,-3.74082 17.2241,-3.80147 17.82474,-1.84393 1.95273,6.3641 -4.05984,1.45881 -11.37095,3.99519 -10.82551,3.96837 -10.00384,14.41134 -1.84394,15.05883 10.16501,0.80659 18.6903,-3.382 27.96638,-6.14647 27.53746,-8.31491 -3.09722,12.85694 -8.29772,18.43938 -8.19401,8.79582 -19.45026,16.39723 -27.04441,23.97119 -13.52702,13.49105 -23.833,10.39439 -29.81032,-2.45858 -6.3268,-13.60446 -16.23976,-43.2018 -26.12245,-48.55702 z"
         style="fill:#000000;fill-opacity:1;stroke:none" />
      <path
         sodipodi:nodetypes="csscc"
         transform="translate(0,308.2677)"
         inkscape:connector-curvature="0"
         id="path3858"
         d="m 686.55942,633.1509 c 11.58927,-4.79605 25.22967,-6.61542 32.26891,-6.45378 7.0583,0.16208 9.27978,3.44017 7.06843,6.14646 -3.36094,4.11319 -12.18182,7.02397 -10.7563,3.9952 1.86281,-8.24839 -10.99468,-4.69256 -28.58104,-3.68788 z"
         style="fill:#000000;fill-opacity:1;stroke:none" />
      <path
         sodipodi:nodetypes="scssccssscsccsssscssssccccsss"
         transform="translate(0,308.2677)"
         inkscape:connector-curvature="0"
         id="path3860"
         d="m 769.53662,524.97323 c 0.43287,-32.01823 -3.84999,-40.20794 -11.06363,-50.70828 -19.0615,-20.84265 -42.63503,-65.67472 -82.97719,-81.13326 -25.81682,-9.89263 -29.76894,-11.32228 -41.79592,-7.06842 -11.35191,4.0151 -27.74717,16.30058 -31.96158,28.58103 -6.87669,21.34492 11.24158,29.43071 17.5174,36.57144 21.9371,22.05497 81.40607,38.49309 114.93878,68.533 5.3484,4.79131 40.45192,25.28922 40.56662,34.72749 0.28064,23.09307 -0.40601,39.79317 4.60985,57.46939 2.55835,9.01581 -11.79724,17.15319 -19.05402,23.66387 -4.09584,3.38874 -14.73439,14.30539 -14.13686,7.37575 1.14234,-13.24784 1.73722,-21.27997 -3.38055,-28.27371 -2.56295,-3.47829 -5.125,0.72504 -7.06843,2.15126 -1.94343,1.42622 -3.28005,11.26072 -3.99519,5.83913 -0.85844,-6.50793 0.97676,-14.72482 3.68786,-16.59543 7.40127,-5.10672 1.6673,-14.38975 7.37576,-18.7467 14.18864,-10.8294 9.98956,2.96854 6.45378,6.76111 -6.41513,6.88104 -2.44594,6.30621 3.68788,12.60023 6.95355,7.4225 -1.01931,33.07967 10.14165,22.43458 8.68994,-8.28828 8.16928,-11.79828 7.9904,-23.66387 -0.26092,-17.30729 -4.56501,-35.0463 -11.67827,-42.71789 -12.70933,-13.70688 -36.90493,-31.37883 -50.09364,-39.03001 -38.78542,-22.50063 -71.60695,-37.78843 -100.18727,-56.54742 -21.1047,-18.30337 -25.73749,-41.52187 -17.51741,-53.78151 14.91425,-23.85881 31.09326,-34.89743 43.02521,-36.26411 37.3125,-1.76131 64.93029,10.07113 82.36255,29.81033 22.76802,22.67781 31.25868,38.62693 50.09363,64.23049 11.85029,16.10886 10.76333,34.96442 9.52701,58.39135 -2.58209,48.92789 -7.52258,28.98327 -7.06842,-4.60984 z"
         style="fill:#000000;fill-opacity:1;stroke:none" />
      <path
         sodipodi:nodetypes="cscssssssccsscscsscscsscscsscsccssccssc"
         transform="translate(0,308.2677)"
         inkscape:connector-curvature="0"
         id="path3864"
         d="m 779.06363,611.6383 c 6.0575,-5.2802 9.95563,-5.08702 13.80769,-11.67188 3.94356,-6.74128 12.97457,-11.33141 11.39279,-7.83221 -5.5101,11.2848 -5.63768,20.62553 -7.73581,31.86518 -2.46271,13.19267 3.11917,13.2209 8.69506,2.55499 2.78988,-5.33666 2.69001,-7.73951 6.64485,-13.00299 3.81346,-5.07532 1.54566,-13.16497 3.43768,-17.59561 5.05661,-11.8413 7.54941,-7.94858 9.59843,-2.48863 2.51741,6.70806 -2.40193,2.21934 -2.9055,9.78607 0,0 -3.19434,15.42767 -2.62316,20.47613 1.22758,14.08067 2.59182,14.55098 12.54751,4.19707 4.32022,-4.39621 9.67118,-8.07035 12.60024,-13.3049 1.55625,-2.78119 0.78473,-6.47479 2.11095,-10.84523 1.68044,-5.53773 5.54457,-12.03055 8.72632,-17.68043 4.58178,-5.37804 7.93618,-4.71493 6.06549,-1.19466 -4.85661,9.13916 -7.27951,15.83706 -2.40585,24.15122 3.84244,7.08354 9.13682,11.90682 10.89904,19.75868 1.39044,6.19533 10.75086,0.23512 15.478,-1.80665 5.5589,-2.40103 19.00256,-9.09641 17.24737,-14.06869 -9.09555,-11.62732 -30.93689,-2.76139 -36.99061,-3.83064 -7.48189,-1.3215 0.26097,-8.40114 6.22103,-10.68174 7.22522,-2.66855 16.25552,-6.83234 21.97966,-11.54398 3.13954,-2.58422 1.48427,-6.50457 4.82816,-6.83265 6.25744,-0.61394 8.4977,-2.60521 14.619,-6.35834 7.56139,-3.46767 7.28712,2.23212 -4.0764,8.72731 -9.16742,5.23994 -14.91732,10.92463 -23.98187,15.39302 -16.10067,7.6825 14.01666,1.35703 21.43804,7.25937 7.0074,5.5731 6.07391,9.53207 -0.49851,15.59419 -5.86164,5.40653 -20.20193,10.44218 -30.64072,14.9944 -5.62031,2.50284 -11.00521,10.43347 -13.47323,3.91158 -6.65577,-17.58829 -11.10747,-24.26949 -16.08095,-20.86177 -6.77368,7.18452 -14.84187,16.29434 -22.38295,22.60025 -7.33165,6.21595 -13.60066,3.90653 -13.0386,-7.60585 0.62511,-12.80396 -7.66983,3.80577 -9.99627,6.30199 -5.26632,5.65064 -11.46031,8.38545 -12.38668,1.52117 -0.90182,-7.94381 -0.42381,-12.45365 2.1731,-18.68867 9.5021,-22.88911 -5.46754,-9.12423 -14.55977,-1.08655 -3.23301,2.85803 0.21753,-7.45288 3.26647,-10.11058 z"
         style="fill:#000000;fill-opacity:1;stroke:none" />
      <path
         sodipodi:nodetypes="cccsssssc"
         transform="translate(0,308.2677)"
         inkscape:connector-curvature="0"
         id="path3866"
         d="m 891.84076,580.24265 c -9.12959,-0.30653 -20.63533,-5.86907 -29.55417,-12.38668 -7.04743,-6.72027 -10.39768,-18.96991 -2.82503,-26.29453 7.76362,-6.95975 21.07406,-11.47697 31.29265,-10.8655 11.86722,0.71012 12.42185,8.23106 15.42902,-2.60772 1.51988,-5.47811 -23.04107,-1.59707 -27.59838,-0.65194 -16.25387,3.37087 -15.95568,5.10658 -26.51184,16.73288 -13.5678,14.94325 -2.29263,24.50571 6.73661,30.85804 8.52678,5.99883 18.79118,10.80972 33.03114,5.21545 z"
         style="fill:#000000;fill-opacity:1;stroke:none" />
    </g>
  </g>
</svg>
