<?xml version="1.0" encoding="UTF-8"?>
<svg version="1.0" xmlns="http://www.w3.org/2000/svg" width="229" height="35" >
<path fill="#231F20" d="M7.715,20.434c2.533-2.04,5.11-4.024,7.704-5.986c2.222-1.68,4.478-3.314,6.762-4.909 c1.18-0.824,2.381-1.609,3.595-2.382c0.55-0.346,1.107-0.682,1.669-1.007c0.821-0.142,1.027-0.578,0.618-1.308 c-5.736,5.047-11.59,9.986-17.656,14.633c-1.762,1.351-3.561,2.657-5.446,3.83c-0.483,0.301-0.984,0.563-1.494,0.813 c-1.91-0.688-1.937-1.516-0.082-2.481c0.379-0.319,0.756-0.64,1.133-0.961c3.503-2.988,6.563-6.466,10.11-9.429 c2.657-2.219,5.527-4.149,8.611-5.721c2.049-1.045,12.938-3.643,9.341,1.253c-1.57,2.138-8.084,4.617-7.979,6.972 c0.008,0.171,0.21,0.274,0.352,0.308c0.707,0.168,3.113-0.028,2.582,0.843c-1.777,2.911-5.281,5.336-7.771,7.578 c-0.563,0.507,0.565,0.802,0.95,0.455c0.555-0.499,9.571-7.587,8.169-9.058c-0.484-0.507-1.378-0.396-2.009-0.395 c-2.216,0.005,2.664-2.68,3.174-3.048c0.921-0.665,1.764-1.395,2.579-2.186c1.695-1.647,3.75-5.208-0.178-5.446 c-7.208-0.437-13.384,3.656-18.771,7.99C9.242,14.36,4.737,18.538,0.895,22.758c-3.055,3.355,2.555,2.398,4.239,1.481 c8.747-4.763,16.473-12.424,23.915-18.972c0.559-0.492-0.466-0.726-0.833-0.535C20.5,8.76,13.521,14.539,6.765,19.978 C6.178,20.451,7.316,20.755,7.715,20.434L7.715,20.434 M36.06,14.354c-2.002,1.268-4.475,2.895-5.563,5.069c-0.203,0.406,0.6,1.344,0.821,0.901 c1.058-2.115,3.484-3.695,5.437-4.931C37.151,15.142,36.463,14.098,36.06,14.354L36.06,14.354 M46.748,6.041c0.389,0.111,0.777,0.222,1.167,0.333c0.313,0.089,0.641-0.006,0.825-0.29 c0.144-0.221,0.136-0.625-0.173-0.713c-0.389-0.111-0.777-0.223-1.167-0.333c-0.313-0.089-0.641,0.006-0.825,0.29 C46.431,5.549,46.439,5.953,46.748,6.041L46.748,6.041 M45.224,14.863c-1.873,0.448-5.175,2.144-5.427,4.166c0.005,0.044,0.028,0.076,0.069,0.097 c3.809,2.329,9.143-2.983,12.05-4.975c3.49-2.391,7.026-4.73,10.721-6.796c0.423-0.236,3.766-1.894,3.803-1.578 c0.101,0.852-1.574,2.096-2.116,2.609c-4.364,4.13-9.515,7.572-14.456,10.972c0.834-0.574,0.997,0.426,1.887-0.32 c0.637-0.534,1.308-1.024,1.979-1.515c1.098-0.803,7.763-5.083,8.523-2.518c0.484,1.632-5.118,4.29-6.269,4.884 c-0.071,0.037,0.862,0.458,1.171,0.299c1.516-0.783,9.078-4.607,4.917-6.067c-4.212-1.479-9.395,2.728-12.254,5.269 c-0.138,0.123,0.931,0.463,1.171,0.299c3.84-2.635,7.613-5.375,11.266-8.264c0.651-0.515,7.354-5.401,4.594-6.104 c-3.575-0.911-8.941,3.802-11.607,5.524c-2.775,1.793-5.492,3.678-8.203,5.566c-1.509,1.051-2.761,1.907-4.563,2.607 c-0.218-0.388-0.436-0.776-0.654-1.164c0.731-0.648,1.515-1.225,2.352-1.729c0.596-0.393,1.39-0.746,2.079-0.911 C46.542,15.148,45.49,14.799,45.224,14.863L45.224,14.863 M76.912,5.776c-0.786,0.016-1.563,0.358-2.26,0.684c-1.084,0.506-3.154,1.445-3.594,2.675 c-0.285,0.797,0.931,1.1,1.47,1.072c1.586-0.082,3.092-1.034,4.353-1.917c1.564-1.095,2.991-2.553,4.003-4.178 c0.476-0.766,0.857-1.784,0.285-2.596c-0.532-0.752-1.649-0.891-2.489-0.848c-1.973,0.102-3.9,0.882-5.694,1.649 c-0.595,0.254,0.403,0.966,0.845,0.777c1.385-0.593,2.792-1.134,4.272-1.438c0.424-0.087,1.817-0.419,2.099,0.104 c0.306,0.568-0.195,1.393-0.47,1.868c-0.66,1.141-1.662,2.121-2.627,3c-1.088,0.992-2.343,1.809-3.703,2.374 c-0.425,0.177-0.868,0.299-1.325,0.352c-0.378,0.043,0.11,0.331,0.167,0.169c0.054-0.151,0.199-0.272,0.307-0.382 c0.909-0.925,2.232-1.6,3.414-2.116c0.332-0.145,0.675-0.262,1.028-0.342c0.063-0.014,0.419-0.05,0.243-0.047 C78.056,6.619,77.467,5.765,76.912,5.776L76.912,5.776 M70.263,14.674c0.444,0,0.889,0,1.333,0c0.125,0-0.307-0.305-0.328-0.317 c-0.202-0.116-0.476-0.285-0.718-0.285c-0.444,0-0.889,0-1.333,0c-0.125,0,0.307,0.305,0.328,0.317 C69.747,14.505,70.021,14.674,70.263,14.674L70.263,14.674 M78.372,14.755c3.352-2.386,6.764-4.688,10.212-6.931c2.456-1.598,4.95-3.136,7.502-4.575 c1.006-0.568,5.402-2.253,5.428-2.291c-3,4.422-9.865,7.638-14.238,10.455c-4.071,2.622-8.519,6.257-13.043,8.05 c0.226,0.343,0.452,0.686,0.679,1.029c1.791-1.959,5.208-3.347,7.437-4.723c4.534-2.798,9.118-5.518,13.792-8.075 c0.691-0.378,10.719-5.147,10.104-3.266c-0.739,2.265-3.789,4.366-5.48,5.765c-3.706,3.066-7.775,5.707-11.82,8.296 c0.198,0.366,0.397,0.732,0.596,1.099c3.189-2.334,6.464-4.556,9.815-6.65c1.936-1.209,3.926-2.361,6.041-3.226 c2.296-0.938,1.494,1.047,0.528,2.262c-2.065,2.596-5.006,4.557-7.646,6.516c-0.444,0.33,0.177,1.41,0.596,1.099 c2.118-1.571,9.887-6.247,9.364-9.554c-0.253-1.597-1.244-2.049-2.767-1.648C99.568,9.939,93.8,14.935,88.942,18.49 c-0.438,0.32,0.142,1.39,0.596,1.099c4.404-2.819,8.856-5.701,12.823-9.127c1.563-1.35,4.604-3.479,4.897-5.776 c0.384-3.008-3.291-2.085-4.902-1.452c-6.146,2.414-11.903,6.17-17.536,9.565c-3.22,1.94-8.097,3.919-10.67,6.735 c-0.325,0.355,0.22,1.21,0.679,1.028c5.841-2.314,11.581-7.055,16.796-10.496c1.747-1.153,11.81-6.473,11.045-9.427 c-1.01-3.895-22.343,11.201-24.895,13.018C77.326,13.977,77.944,15.06,78.372,14.755L78.372,14.755 M116.573,10.833c-1.561,0.332-10.1,3.831-7.469,5.958c2.722,2.202,5.594-1.699,6.949-3.69 c1.105-1.623,4.84-1.361,6.72-1.719c2.287-0.436,3.595-1.17,5.353-2.38c-0.249,0.171-0.446,0.912-0.588,1.19 c-0.771,1.506-2.519,2.644-3.799,3.641c-1.233,0.96-4.096,2.254-4.881,3.71c-0.073,0.135,0.839,0.801,1.002,0.748 c1.438-0.472,2.868-2.1,4.086-2.952c1.637-1.146,3.348-2.193,5.217-2.908c1.527-0.584-1.181,2.762-1.41,3.386 c-1.045,2.846,7.386-1.314,7.231-1.233c3.646-1.906,7.242-3.909,10.907-5.782c2.893-1.479,6.613-3.814,9.979-3.778 c0.148,0.001-1.809,2.356-1.946,2.48c-1.431,1.298-3.102,2.353-4.722,3.394c-3.684,2.364-7.737,4.564-11.964,5.769 c0.119-0.034,0.679,0.84,1.002,0.748c2.305-0.657,21.012-9.334,18.297-12.265C153.5,1.87,144.78,8.093,142.063,9.518 c-3.842,2.015-7.604,4.199-11.53,6.05c-4.286,2.022,1.707-1.857,0.254-3.301c-3.405-3.384-8.929,4.292-11.928,5.276 c0.334,0.249,0.668,0.498,1.002,0.748c1.747-3.242,9.313-4.345,9.105-8.847c-0.021-0.475-1.115-1.333-1.588-1.24 c-1.006,0.199-2.135,1.497-3.324,1.881c-2.732,0.882-5.911,0.604-8.512,1.791c-0.617,0.282-1.189,1.502-1.534,2.007 c-0.52,0.746-1.146,1.387-1.877,1.922c-0.68,0.662-1.43,0.735-2.251,0.22c0.935-2.347,5.406-3.958,7.695-4.445 C117.429,11.611,116.916,10.759,116.573,10.833L116.573,10.833 M148.86,1.205c12.618-0.07,25.662,0.811,37.903,3.965c0.794,0.205,0.502-0.786-0.047-0.928 C174.288,1.04,161.1,0.136,148.288,0.207C147.654,0.21,148.379,1.208,148.86,1.205L148.86,1.205 M164.643,11.064c-3.34-0.397-12.458-0.737-13.391,3.837c-1.062,5.203,11.459-1.635,11.712-1.797 c-0.297-0.238-0.593-0.477-0.89-0.714c-8.63,6.938-17.188,15.102-26.724,20.751c-0.675,0.4,0.247,1.112,0.779,0.797 c9.622-5.701,18.24-13.918,26.944-20.916c0.531-0.427-0.462-0.988-0.89-0.714c-1.386,0.887-2.761,1.699-4.229,2.44 c-1.162,0.58-2.384,0.959-3.665,1.138c-1.904-0.776-2.106-1.566-0.605-2.369c2.689-1.915,7.62-1.883,10.821-1.502 C165.279,12.106,165.42,11.157,164.643,11.064L164.643,11.064 M179.093,10.413c-2.301-2.343-8.36,1.85-9.68,3.791c-0.827,1.215,0.292,2.224,1.248,2.723 c1.331,0.695,2.729-0.488,3.683-1.268c1.409-1.152,2.534-2.494,4.053-3.543c1.062-0.733,3.603-1.081,4.892-1.61 c1.372-0.563,2.697-1.249,4.026-1.904c0.772-0.381,4.49-1.455,4.714-1.908c-1.163,2.353-5.532,4.188-7.697,5.498 c-1.68,1.016-3.385,1.995-5.104,2.941c0.231,0.271,0.464,0.543,0.695,0.814c3.166-2.018,6.413-3.919,9.754-5.631 c0.591-0.302,6.387-2.095,5.403-1.042c-2.126,2.275-5.023,4.056-7.473,5.947c-0.567,0.438,0.345,1.038,0.815,0.727 c2.522-1.669,5.147-3.189,7.876-4.494c2.292-1.096,4.341-0.973,2.046,1.241c-0.366,0.354-1.178,1.095-0.983,1.692 c1.175,3.613,13.33-3.59,15.062-4.606c0.731-0.429-0.105-1.073-0.695-0.814c-0.979,0.43-9.336,5.02-4.807,6.02 c2.212,0.488,5.643-1.773,7.544-2.659c1.939-0.903,3.867-1.844,5.912-2.489c1.965-0.62-1.493,2.344-1.933,2.607 c-1.081,0.648-2.237,1.169-3.384,1.688c-0.693,0.314,0,1.019,0.55,0.876c1.242-0.322,2.5-0.548,3.771-0.713 c2.494-0.325,0.748,1.388-0.371,1.877c-1.602,0.701-2.072,2.263-1.454,3.812c1.252,3.133,8.647-0.394,10.366-1.204 c0.747-0.353-0.093-1.078-0.695-0.814c-4.071,1.784-8.046,3.786-11.965,5.877c-3.123,1.667-6.155,3.492-9.296,5.126 c-1.743,0.907-4.51,2.826-6.597,2.576c-0.726-0.087-1.069,0.891-0.258,0.988c3.755,0.45,8.979-3.473,11.964-5.129 c5.525-3.067,11.052-6.085,16.847-8.625c-0.231-0.271-0.464-0.543-0.695-0.814c-0.725,0.342-1.467,0.64-2.213,0.932 c-0.58,0.22-1.167,0.42-1.761,0.601c-0.311,0.085-0.621,0.171-0.932,0.257c-1.985,0.911-2.857-0.012-2.616-2.77 c1.18-0.738,3.243-0.674,3.48-2.36c0.378-2.686-6.896-0.836-7.98-0.555c0.183,0.292,0.366,0.584,0.55,0.876 c1.956-0.886,6.591-2.512,7.233-4.987c0.325-1.251-1.664-1.377-2.394-1.206c-3.051,0.717-5.898,2.34-8.728,3.637 c-1.068,0.489-2.134,0.921-3.24,1.305c-2.17,0.752-0.11-1.81,0.462-2.187c1.038-0.684,2.195-1.23,3.333-1.729 c-0.231-0.271-0.464-0.543-0.695-0.814c-3.229,1.895-6.611,3.605-10.17,4.779c-3.34,1.102-1.431-1.12-0.406-2.303 c0.425-0.491,0.617-0.986,0.295-1.554c-1.771-3.121-12.072,4.156-13.719,5.245c0.271,0.242,0.544,0.484,0.815,0.727 c1.185-0.915,12.011-7.191,6.327-8.313c-2.389-0.472-5.767,1.875-7.695,2.899c-2.714,1.44-5.357,3.037-7.947,4.688 c-0.694,0.443,0.103,1.141,0.695,0.814c1.464-0.807,15.387-8.59,13.06-10.178c-1.973-1.347-7.692,2.681-9.297,3.438 c-2.304,1.086-4.77,1.256-6.874,2.709c-0.961,0.664-1.789,1.569-2.625,2.379c-1.018,1.384-1.52,0.837-1.504-1.642 c0.156-0.104,4.58-2.462,5.374-1.654C178.495,11.447,179.611,10.94,179.093,10.413L179.093,10.413z"/>
</svg>