<?xml version="1.0" encoding="UTF-8"?>
<svg version="1.0" xmlns="http://www.w3.org/2000/svg" width="247" height="97" >
<path fill="#231F20" d="M1.341,53.339c8.153-3.539,16.181-7.396,24.076-11.476c5.493-2.839,10.914-5.841,16.105-9.203 c3.682-2.384,7.818-5.105,10.078-8.978c-0.626,0.018-1.252,0.034-1.878,0.051c-4.7,14.584-15.124,26.591-15.25,42.5 c0.645-0.12,1.291-0.241,1.936-0.362c-2.47-10.67-2.17-21.637-2.23-32.508C34.117,22.5,34.202,9.682,28.085,0.235 c-0.356-0.55-2.05-0.056-1.858,0.654c2.425,8.995,12.934,11.241,20.671,12.804c2.519,0.509,13.479,1.861,11.391,6.753 c-1.218,2.852-7.443,2.536-9.821,2.35c-4.204-0.329-7.932-2.394-10.633-5.561c-0.464-0.543-2.247,0.023-1.785,0.791 c7.068,11.744,12.354,24.705,15.641,37.99c1.71,6.913,3.686,13.894,6.638,20.393c0.622,1.369,1.765,4.608,3.749,4.318 c0.976-0.143,1.559-1.388,0.23-1.193c-1.053,0.153-3.929-8.223-4.287-9.203c-2.787-7.639-4.339-15.623-6.744-23.373 c-3.2-10.31-7.871-20.465-13.442-29.723c-0.595,0.264-1.19,0.527-1.785,0.791c4.313,5.055,10.748,6.686,17.182,5.849 c3.162-0.411,8.156-1.993,6.917-6.047c-1.53-5.006-13.39-5.545-17.127-6.268c-5.94-1.149-13.138-4.788-14.863-11.188 c-0.619,0.218-1.239,0.436-1.858,0.654c6.679,10.315,5.961,24.92,5.945,36.678c-0.013,9.598,0.054,19.28,2.231,28.686 c0.164,0.709,1.931,0.29,1.936-0.362c0.125-15.824,10.568-27.974,15.25-42.5c0.26-0.808-1.608-0.413-1.878,0.051 c-2.446,4.189-7.171,6.938-11.161,9.471c-5.458,3.464-11.199,6.483-16.957,9.41c-6.936,3.525-13.984,6.864-21.122,9.963 C-0.685,52.955,0.428,53.736,1.341,53.339L1.341,53.339z"/>
<path fill="#231F20" d="M13.107,74.152c15.16-8.517,31.413-19.668,41.002-34.436c-0.631,0-1.261,0-1.892,0.001 c-0.072,1.786-0.211,6.907,3.007,5.354c1.228-0.593,2.375-1.629,3.394-0.284c0.28,0.37,0.979,0.5,1.404,0.54 c1.837,0.174,3.809-0.769,5.186-1.911c7.021-5.824,14.538-11.833,19.944-19.241c1.354-1.854,2.546-3.879,1.133-5.978 c-0.864-1.282-2.467-1.474-3.84-1.042c-2.53,0.795-4.277,3.393-5.683,5.459c-4.53,6.66-7.297,14.662-9.988,22.181 c-0.368,1.028,1.508,0.874,1.834,0.172c0.316-0.682,0.653-1.354,0.993-2.023c0.363-0.715,0.759-1.409,1.163-2.102 c1.121-1.924,0.424-1.968,0.498,0.292c0.062,1.898-0.396,5.123,2.467,4.967c2.664-0.145,4.078-1.234,5.316-3.571 c1.107-2.091-0.299-2.489-1.283-0.634c-0.575,1.083-0.803,1.852-0.137,2.908c0.203,0.321,0.75,0.268,1.052,0.2 c1.841-0.412,1.721-2.084,2.519-3.437c-0.602,0.109-1.203,0.218-1.805,0.327c0.917,0.852,1.598,2.827,3.038,2.963 c2.004,0.188,2.564-2.029,4.14-0.044c1.776,2.237,5.375-1.278,6.705-2.379c3.946-3.265,7.861-6.567,11.682-9.979 c3.034-2.707,7.496-5.932,9.139-9.803c0.911-2.146-2.846-2.604-4.124-2.544c-4.329,0.201-8.555,2.513-11.044,6.082 c-4.251,6.098-4.736,14.511-6.904,21.499c-0.404,1.304-7.295,20.182-8.332,19.658c-0.695-0.352-2.418,0.603-1.502,1.064 c4.93,2.49,9.558-14.312,10.404-16.721c2.166-6.169,3.718-12.454,5.141-18.824c1.27-5.688,7.021-13.074,13.696-11.193 c2.576,0.727-4.373,6.865-5.208,7.657c-3.862,3.659-7.943,7.089-12.026,10.497c-1.744,1.455-4.519,5.064-6.343,2.767 c-0.568-0.715-2.016-0.432-2.701-0.174c-2.73,1.025-2.004,0.486-3.984-1.353c-0.505-0.469-1.463-0.252-1.805,0.327 c-1.569,2.658,0.05,0.568,1.458-0.367c0.393-0.261,0.51-0.884-0.063-1.015c-1.554-0.356-2.412,0.282-3.188,1.626 c-0.242,0.499-0.496,0.992-0.762,1.479c-1.165,0.271-2.33,0.544-3.495,0.815c-0.096-0.989-0.129-1.981-0.101-2.975 c0.001-0.547,0.167-2.341-0.536-2.784c-2.651-1.675-5.24,5.191-5.903,6.619c0.611,0.058,1.223,0.114,1.834,0.172 c3.006-8.401,6.108-18.56,12.389-25.225c1.152-1.224,2.552-2.146,3.667-0.49c1.492,2.216-1.889,5.512-3.169,7.021 c-4.715,5.562-10.421,10.378-15.991,15.053c-0.562,0.472-1.127,0.938-1.692,1.406c-3.197,2.652-3.438-0.146-5.576-0.394 c-0.842-0.098-1.843,0.572-2.516,0.976c-2.095,1.254-1.601-2.618-1.554-3.771c0.041-1-1.564-0.504-1.892,0.001 c-9.326,14.363-25.235,25.27-39.998,33.564C11.129,73.753,12.178,74.674,13.107,74.152L13.107,74.152z"/>
<path fill="#231F20" d="M59.819,34.567c0.298-0.271,0.619-0.515,0.948-0.746c0.576-0.405,0.979-0.829,1.517-0.356 c0.4,0.352,2.138-0.387,1.817-0.668c-0.963-0.847-2.601-0.24-3.6,0.224c-0.884,0.41-1.715,1.02-2.436,1.674 c-0.334,0.305,0.292,0.353,0.463,0.341C58.964,35.003,59.487,34.869,59.819,34.567L59.819,34.567z"/>
<path fill="#231F20" d="M134.477,21.389c0.408,1.057-0.072,2.496-0.334,3.521c-1.323,5.187-4.703,9.993-7.475,14.493 c-1.273,2.067-2.622,4.108-4.202,5.956c-1.192,1.393-1.577,0.734-0.859-0.642c1.349-2.584,3.536-4.81,5.51-6.91 c4.463-4.751,11.916-12.605,18.959-12.596c6.75,0.01-2.863,9.439-4.665,10.982c-0.868,0.745,0.95,0.775,1.391,0.507 c3.061-1.866,6.171-3.65,9.313-5.375c2.431-1.335,4.902-2.602,7.456-3.685c2.674-1.135,2.622-0.474,1.402,1.743 c-2.33,4.234-5.483,8.091-8.388,11.936c-2.206,2.92-5.232,5.93-6.796,9.271c-0.415,0.886,1.522,0.692,1.809,0.08 c2.103-4.49,6.276-8.546,9.219-12.5c2.042-2.743,7.323-8.009,7.066-11.772c-0.196-2.882-20.472,8.549-22.298,9.662 c0.464,0.169,0.927,0.338,1.391,0.507c2.385-2.045,11.978-10.675,4.962-12.39c-8.249-2.018-18.252,8.858-23.083,14.001 c-2.025,2.156-5.137,5.086-5.71,8.123c-0.401,2.123,2.824,1.12,3.604,0.614c1.724-1.117,3.005-3.313,4.13-4.953 c2.539-3.699,4.812-7.651,6.893-11.621c1.203-2.293,3.699-6.723,2.638-9.47C136.13,20.15,134.218,20.718,134.477,21.389 L134.477,21.389z"/>
<path fill="#231F20" d="M185.451,16.377c-4.03-1.65-8.671,8.063-10.196,10.455c-2.61,4.095-5.162,8.226-7.906,12.232 c-0.545,0.795-1.116,1.571-1.694,2.343c-0.281,0.347-0.563,0.692-0.844,1.039c-0.67,0.44-0.543,0.711,0.383,0.811 c1.279-1.577,3.031-2.886,4.63-4.102c1.669-1.269,3.965-3.284,5.591-0.921c0.997,1.449,1.753,2.777,3.207,3.805 c1.829,1.292,4.716,0.114,6.191-1.163c6.088-5.271,11.134-14.452,12.063-22.459c1.116-9.62-23.982-12.251-28.241-5.327 c-4.535,7.373,8.068,15.329,13.297,17.44c5.115,2.064,14.313,1.458,16.252-5.051c1.033-3.468-1.675-4.966-4.663-5.675 c-0.699-0.165-2.289,0.882-1.156,1.15c5.065,1.2,4.993,4.835,1.314,7.762c-3.816,3.036-8.621,1.62-12.575-0.21 c-4.555-2.107-13.444-8.694-10.934-14.846c1.728-4.23,11.123-2.884,14.477-2.328c3.894,0.646,10.496,2.324,10.288,7.288 c-0.235,5.603-3.709,11.319-6.681,15.891c-1.482,2.281-3.209,4.584-5.406,6.227c-3.463,2.59-5.372-3.916-7.208-5.055 c-3.048-1.892-11.91,5.603-12.714,8.26c-0.02,0.11,0.007,0.209,0.079,0.295c2.09,2.064,6.166-5.068,6.777-5.961 c1.257-1.834,12.676-21.498,14.151-20.895C184.582,17.649,186.324,16.735,185.451,16.377L185.451,16.377z"/>
<path fill="#231F20" d="M205.851,36.292c-1.696-1.356-4.287-3.027-6.587-2.418c-2.381,0.63-3.728,2.389-2.308,4.748 c3.212,5.334,10.421,3.14,11.191-2.404c0.084-0.604-1.617-0.029-1.834,0.219c-3.116,3.567,0.217,5.869,3.961,5.354 c6.152-0.848,10.97-7.439,14.023-12.195c1.06-1.65,7.761-14.014,1.372-13.604c-5.146,0.33-8.969,7.428-9.111,11.874 c-0.161,5.021,2.185,11.818,8.281,10.995c3.158-0.428,7.861-6.901,2.621-7.257c-4.402-0.299-5.603,4.754-3.496,7.894 c2.887,4.304,8.688-0.898,10.606-3.173c0.433-0.513-1.446-0.229-1.758,0.113c-3.357,3.693,0.683,7.477,4.76,7.215 c2.794-0.18,8.712-2.875,9.114-6.059c0.03-0.071,0.015-0.13-0.048-0.176c-1.679-0.982-4.375,2.938-5.12,3.752 c-4.908,5.355-9.667,10.851-14.445,16.322c-11.225,12.852-22.354,25.786-33.511,38.695c-0.427,0.494,1.441,0.253,1.758-0.113 c10.679-12.355,21.336-24.73,32.066-37.041c4.849-5.563,9.702-11.124,14.643-16.605c1.268-1.405,2.534-2.818,3.873-4.157 c0.148-0.148,0.302-0.291,0.458-0.431c-7.248,6.438,4.911-7.777-2.751,1.809c-4.274,5.347-13.586,1.678-9.039-3.324 c-0.586,0.038-1.172,0.075-1.758,0.113c-2.961,3.513-7.332,4.427-8.02-0.41c-0.111-0.779,0.272-4.463,2.459-3.121 c2.933,1.798-2.304,5.819-4.644,4.614c-6.025-3.103-4.367-12.376-1.664-16.882c2.267-3.776,6.074-4.468,5.268,0.677 c-0.556,3.546-2.788,6.988-4.688,9.947c-1.951,3.038-4.476,5.743-7.343,7.928c-1.972,1.502-5.851,3.307-7.283,0.08 c-0.392-0.882,0.647-2.346,1.172-2.946c-0.611,0.072-1.223,0.146-1.834,0.219c-0.692,4.983-5.322,4.93-7.679,1.015 c-1.435-2.382,1.364-2.99,3.187-2.104c0.813,0.396,1.584,0.951,2.289,1.516C204.467,37.314,206.185,36.56,205.851,36.292 L205.851,36.292z"/>
</svg>