<?xml version="1.0" standalone="no"?>
<!DOCTYPE svg PUBLIC "-//W3C//DTD SVG 20010904//EN"
 "http://www.w3.org/TR/2001/REC-SVG-20010904/DTD/svg10.dtd">
<svg version="1.0" xmlns="http://www.w3.org/2000/svg"
 width="468pt" height="139pt" viewBox="0 0 468 139"
 preserveAspectRatio="xMidYMid meet">
<metadata>
Created by POTRACE VERSION, written by Peter Selinger 2001-2007
</metadata>
<g transform="translate(0,139) scale(0.013826,-0.013826)"
fill="#000000" stroke="none">
<path d="M31174 9361 c-17 -4 -36 -11 -42 -15 -6 -3 -28 -34 -48 -69 -21 -34
-54 -83 -74 -109 -21 -26 -48 -75 -60 -110 -13 -35 -34 -79 -48 -98 -14 -19
-39 -46 -55 -59 -16 -14 -45 -58 -63 -98 -28 -62 -40 -76 -69 -89 -32 -13 -40
-12 -93 5 -33 11 -101 26 -153 34 -72 11 -113 24 -177 56 -45 23 -110 48 -145
56 -34 7 -127 19 -207 25 -80 6 -179 15 -220 20 -41 5 -158 8 -260 6 -102 -3
-217 -10 -255 -17 -46 -8 -117 -10 -208 -6 -106 5 -146 3 -171 -7 -24 -10 -38
-25 -49 -55 -10 -23 -17 -64 -17 -92 0 -27 7 -63 15 -79 9 -17 33 -39 54 -50
22 -10 72 -28 112 -40 40 -11 102 -23 136 -26 45 -5 77 -15 109 -36 28 -17 51
-41 60 -63 8 -19 14 -47 14 -62 0 -15 -12 -61 -27 -102 -20 -53 -43 -91 -79
-130 -30 -33 -60 -81 -74 -116 -14 -33 -43 -87 -66 -121 -23 -33 -74 -134
-114 -225 -40 -90 -83 -193 -95 -229 -12 -36 -32 -86 -45 -110 -13 -25 -44
-68 -70 -96 -33 -37 -56 -76 -79 -137 -17 -47 -51 -115 -75 -151 -28 -43 -47
-86 -55 -123 -6 -32 -17 -98 -25 -147 -9 -56 -26 -110 -44 -145 -16 -31 -40
-78 -54 -106 -15 -27 -56 -113 -93 -189 -37 -76 -73 -155 -80 -175 -7 -21 -27
-65 -44 -99 -23 -46 -62 -91 -156 -183 -69 -67 -136 -141 -150 -165 -17 -29
-45 -54 -87 -80 -35 -21 -105 -78 -156 -126 -50 -48 -97 -88 -102 -88 -6 0
-30 -18 -53 -40 -24 -21 -71 -53 -104 -70 -38 -18 -75 -47 -98 -74 -20 -24
-50 -49 -67 -55 -17 -6 -64 -11 -104 -11 -63 0 -76 3 -94 23 -17 17 -20 30
-16 56 3 19 19 51 36 70 16 20 49 63 72 96 23 33 94 113 157 179 64 65 150
144 191 176 41 32 91 74 110 95 19 20 61 52 92 71 32 19 67 48 79 65 11 16 47
48 80 70 33 22 85 67 117 100 31 33 62 70 69 82 7 12 12 36 13 54 0 17 -4 43
-10 57 -5 14 -27 34 -51 46 -23 12 -65 24 -93 27 -43 4 -61 1 -103 -20 -27
-14 -81 -57 -119 -95 -38 -37 -94 -87 -124 -109 -30 -22 -66 -53 -80 -68 -14
-15 -45 -41 -70 -58 -25 -17 -103 -85 -175 -152 -71 -67 -155 -136 -185 -153
-30 -17 -84 -55 -118 -86 -54 -46 -79 -59 -164 -87 -63 -20 -117 -45 -146 -67
-25 -19 -59 -40 -77 -48 -17 -7 -61 -20 -98 -28 -38 -9 -82 -23 -100 -32 -18
-9 -49 -32 -69 -50 -21 -19 -60 -40 -90 -48 -29 -8 -97 -20 -151 -27 -54 -6
-126 -9 -159 -5 -33 3 -81 15 -106 26 -25 12 -54 28 -64 37 -10 9 -18 30 -18
47 0 17 10 51 21 75 11 25 34 63 52 85 18 23 44 59 57 81 13 22 43 61 67 86
25 26 67 77 94 115 27 38 71 112 97 164 27 53 69 126 94 163 33 48 51 87 62
136 9 39 16 111 16 161 0 55 -5 104 -14 124 -8 18 -24 41 -37 50 -14 10 -43
16 -74 16 -28 0 -78 -7 -110 -15 -33 -9 -112 -40 -176 -71 -97 -46 -129 -56
-203 -64 -48 -6 -102 -16 -119 -24 -18 -7 -49 -25 -70 -39 -21 -14 -64 -36
-95 -48 -31 -11 -100 -30 -152 -41 -67 -14 -114 -31 -160 -58 -36 -21 -101
-48 -144 -60 -44 -12 -123 -26 -176 -30 -70 -7 -118 -17 -175 -40 -64 -26
-103 -33 -205 -42 -69 -5 -155 -8 -192 -6 -43 2 -74 9 -83 19 -8 8 -15 26 -16
39 -1 14 4 56 10 94 7 39 26 103 43 143 19 47 41 82 59 95 16 12 38 40 48 62
11 23 24 74 30 114 7 46 23 95 42 130 17 31 43 80 59 107 16 28 39 79 51 115
11 36 77 179 146 318 68 140 145 302 169 360 25 59 66 161 91 226 25 66 56
159 69 208 13 48 35 109 49 135 15 27 37 67 51 90 17 29 27 63 31 110 3 39 0
86 -6 110 -6 23 -18 49 -27 58 -8 8 -27 18 -42 22 -14 3 -53 1 -87 -6 -41 -9
-69 -21 -88 -40 -19 -19 -42 -67 -72 -154 -25 -70 -52 -142 -61 -159 -9 -18
-37 -62 -61 -98 -34 -51 -46 -83 -58 -144 -8 -44 -31 -113 -49 -155 -21 -45
-45 -128 -61 -206 -15 -71 -33 -146 -41 -165 -8 -19 -32 -53 -53 -75 -22 -22
-51 -63 -65 -92 -14 -28 -44 -72 -66 -98 -23 -26 -63 -91 -90 -145 -27 -54
-72 -128 -100 -166 -29 -38 -70 -88 -92 -110 -22 -23 -57 -66 -77 -95 -26 -38
-55 -64 -95 -86 -32 -18 -76 -47 -97 -64 -24 -18 -48 -29 -61 -27 -16 2 -30
17 -45 48 -14 29 -28 88 -37 163 -9 64 -21 127 -27 140 -7 12 -26 39 -42 61
-17 21 -41 67 -53 103 -13 36 -33 80 -46 99 -12 18 -32 38 -43 44 -11 5 -47
19 -79 30 -38 13 -85 20 -133 20 -40 0 -88 -6 -106 -14 -18 -7 -39 -22 -48
-32 -9 -11 -25 -44 -35 -74 -13 -41 -18 -84 -18 -170 0 -63 5 -187 10 -275 9
-138 13 -168 35 -215 14 -30 49 -82 78 -115 29 -33 71 -91 93 -128 21 -37 44
-81 49 -97 8 -23 7 -35 -6 -57 -9 -15 -49 -53 -88 -83 -39 -30 -113 -85 -164
-122 -52 -37 -107 -78 -125 -93 -17 -14 -48 -35 -68 -45 -21 -11 -50 -34 -66
-51 -16 -18 -41 -45 -56 -61 -20 -21 -36 -28 -65 -28 -21 0 -51 8 -68 18 -20
12 -46 50 -77 108 -26 49 -57 99 -70 111 -13 12 -41 26 -63 33 -32 9 -58 9
-130 -4 -59 -10 -113 -27 -155 -49 -40 -21 -94 -38 -139 -46 -41 -6 -111 -27
-154 -46 -44 -19 -104 -53 -133 -76 -35 -27 -85 -52 -141 -71 -48 -16 -102
-38 -118 -48 -17 -11 -40 -29 -51 -41 -10 -11 -30 -27 -44 -34 -14 -7 -66 -20
-115 -29 -50 -8 -116 -24 -148 -35 -35 -12 -82 -40 -118 -70 -33 -28 -77 -55
-97 -61 -20 -5 -63 -17 -95 -26 -39 -10 -74 -30 -109 -60 -29 -24 -68 -49 -87
-54 -20 -5 -58 -10 -86 -10 -28 0 -66 8 -85 18 -19 9 -36 25 -38 35 -2 10 -1
29 2 43 4 13 20 39 36 58 17 18 50 79 74 135 24 56 58 123 75 149 24 37 42 94
77 241 39 160 53 201 81 242 18 27 38 61 43 75 5 13 19 70 30 125 11 55 29
123 40 153 11 29 32 64 46 77 14 13 33 37 41 54 9 16 26 71 39 123 13 51 37
122 53 157 17 35 35 83 40 107 5 24 17 83 26 133 9 49 26 113 37 142 12 33 33
65 57 85 21 18 58 67 83 108 24 41 71 112 104 157 32 45 80 115 106 155 26 41
56 96 67 124 11 27 29 81 41 121 16 57 29 80 60 110 22 20 45 53 50 73 5 19
10 54 10 76 0 23 14 118 31 210 26 143 30 187 27 284 -3 96 -12 148 -53 309
-43 175 -52 198 -83 233 -19 21 -51 43 -72 49 -21 6 -54 9 -74 5 -24 -5 -44
-18 -61 -40 -14 -18 -33 -55 -42 -82 -9 -27 -33 -80 -54 -119 -24 -45 -48
-114 -67 -191 -17 -69 -48 -158 -71 -208 -26 -52 -55 -141 -76 -224 -19 -75
-39 -168 -45 -207 -7 -38 -32 -146 -56 -240 -24 -93 -55 -242 -69 -330 -14
-88 -33 -182 -42 -210 -9 -27 -34 -86 -57 -130 -23 -44 -52 -105 -65 -135 -13
-30 -47 -79 -75 -108 -28 -30 -73 -65 -100 -79 -28 -14 -75 -51 -106 -82 -31
-31 -77 -68 -103 -83 -25 -15 -59 -45 -74 -67 -17 -24 -49 -50 -83 -68 -30
-15 -87 -57 -126 -94 -39 -36 -84 -70 -100 -76 -16 -6 -49 -18 -75 -27 -25 -9
-63 -34 -84 -56 -34 -35 -56 -46 -152 -76 -73 -23 -133 -49 -173 -75 -33 -23
-98 -57 -143 -75 -62 -26 -92 -45 -122 -79 -33 -37 -60 -53 -149 -90 -60 -25
-135 -65 -168 -90 -33 -25 -64 -45 -69 -45 -5 0 -65 -25 -134 -55 -85 -38
-137 -55 -165 -55 -33 0 -47 6 -68 29 -15 16 -41 49 -59 74 -22 31 -50 54 -88
73 -48 23 -62 26 -93 18 -28 -7 -53 -28 -109 -94 -64 -73 -77 -96 -101 -170
-22 -69 -33 -89 -59 -106 -21 -14 -57 -24 -100 -29 -37 -3 -87 -11 -111 -16
-24 -5 -71 -27 -106 -49 -37 -23 -88 -45 -127 -54 -35 -8 -91 -18 -124 -21
-33 -4 -113 -16 -177 -26 -92 -16 -126 -18 -157 -9 -21 5 -42 17 -45 26 -3 9
-6 29 -6 45 0 16 13 58 29 94 16 35 37 90 46 122 9 32 30 87 47 123 16 36 52
133 79 215 27 83 65 177 84 210 19 33 44 78 55 100 10 22 29 85 40 140 16 73
32 117 61 165 21 36 57 108 80 160 30 70 56 111 97 157 32 34 70 78 86 97 15
20 45 48 65 63 21 15 50 44 65 65 15 21 52 56 81 78 29 22 63 56 75 77 12 21
45 56 73 78 31 25 61 60 78 94 16 30 42 68 58 85 16 17 35 45 44 61 8 17 22
62 30 100 9 39 19 99 22 135 4 36 11 81 16 101 5 21 21 44 40 58 17 13 37 37
44 54 7 18 14 77 15 132 2 55 4 152 4 216 1 87 -3 120 -13 133 -8 10 -28 25
-45 34 -20 10 -57 16 -107 16 -67 1 -81 -2 -124 -29 -27 -17 -57 -44 -66 -60
-10 -17 -27 -71 -38 -122 -11 -50 -29 -109 -40 -130 -11 -22 -40 -57 -66 -77
-34 -29 -56 -59 -85 -120 -22 -45 -53 -100 -71 -122 -17 -21 -38 -52 -46 -68
-9 -17 -26 -61 -39 -99 -13 -37 -38 -89 -57 -115 -19 -26 -45 -76 -59 -112
-14 -36 -33 -92 -43 -125 -9 -33 -34 -92 -54 -131 -21 -38 -60 -128 -86 -199
-45 -117 -52 -130 -89 -154 -22 -14 -65 -52 -95 -83 -42 -43 -77 -67 -142 -96
-64 -30 -93 -50 -118 -81 -23 -29 -54 -51 -100 -72 -36 -16 -82 -45 -101 -63
-19 -18 -68 -51 -108 -72 -41 -21 -95 -59 -120 -83 -26 -24 -61 -50 -79 -57
-18 -8 -57 -14 -88 -14 -31 0 -69 7 -85 15 -16 8 -31 24 -35 34 -3 12 4 42 18
73 13 29 27 62 30 73 4 11 13 81 22 155 12 100 14 180 9 310 -3 96 -12 210
-19 252 -8 44 -30 115 -53 165 -21 48 -52 120 -67 158 -20 49 -42 83 -75 115
-26 25 -57 65 -70 90 -12 25 -32 56 -44 68 -11 13 -42 35 -68 48 -26 13 -58
38 -70 55 -13 17 -39 39 -58 49 -19 10 -70 23 -112 30 -51 8 -134 11 -240 7
-121 -4 -184 -10 -242 -26 -55 -15 -94 -33 -130 -60 -28 -21 -67 -47 -86 -56
-19 -10 -57 -34 -85 -53 -27 -20 -81 -63 -119 -97 -38 -33 -109 -98 -158 -145
-68 -65 -99 -103 -129 -160 -21 -41 -64 -101 -94 -133 -33 -35 -58 -73 -65
-95 -5 -21 -13 -83 -17 -137 l-8 -99 -44 -25 c-24 -15 -48 -35 -52 -46 -4 -11
-8 -48 -8 -81 -1 -46 4 -68 17 -84 15 -18 25 -22 46 -16 18 4 32 18 41 39 7
18 16 62 20 98 6 61 11 70 46 104 23 21 55 71 79 121 22 46 40 89 40 94 0 5
19 28 43 50 23 22 58 64 77 92 22 32 53 61 83 77 27 15 64 49 85 76 24 32 56
59 89 76 27 14 72 44 99 66 27 23 72 52 99 66 28 13 68 30 90 37 22 6 89 35
150 63 102 47 115 51 181 50 39 -1 87 -8 107 -17 20 -8 52 -33 73 -55 20 -23
63 -55 95 -72 32 -17 65 -42 74 -55 8 -13 24 -47 35 -77 11 -29 40 -83 64
-120 25 -38 52 -90 61 -116 8 -26 26 -106 38 -177 18 -105 21 -145 15 -219 -5
-49 -15 -162 -24 -249 -9 -87 -24 -204 -35 -260 -10 -56 -21 -111 -24 -122 -3
-12 -20 -44 -39 -71 -18 -27 -44 -69 -56 -93 -12 -25 -31 -55 -43 -67 -11 -12
-35 -27 -54 -34 -26 -8 -55 -8 -119 1 -59 9 -94 19 -117 36 -17 13 -50 33 -72
44 -24 12 -60 20 -90 19 -27 0 -60 -6 -73 -13 -13 -7 -34 -30 -46 -52 -15 -27
-36 -46 -68 -61 -25 -12 -55 -33 -66 -47 -11 -15 -28 -60 -37 -101 -10 -45
-26 -86 -38 -100 -12 -13 -60 -47 -107 -76 -47 -28 -114 -66 -150 -84 -36 -18
-102 -43 -146 -55 -57 -15 -97 -33 -133 -60 -28 -21 -66 -43 -83 -49 -18 -5
-86 -20 -152 -31 -65 -12 -130 -26 -145 -31 -14 -6 -46 -23 -71 -39 -25 -16
-70 -36 -100 -45 -30 -9 -84 -26 -120 -38 -50 -15 -75 -31 -111 -67 -30 -32
-65 -55 -103 -69 -31 -11 -68 -28 -81 -37 -13 -9 -33 -31 -44 -49 -10 -18 -44
-52 -74 -74 -30 -23 -63 -58 -72 -78 -9 -19 -19 -70 -22 -113 -3 -42 -3 -98 1
-123 4 -27 17 -56 31 -72 17 -17 25 -38 25 -61 0 -19 5 -68 10 -107 6 -40 13
-82 16 -94 2 -13 24 -45 49 -73 25 -28 56 -72 69 -98 14 -27 31 -54 39 -60 8
-7 47 -23 86 -37 40 -13 99 -42 132 -64 32 -22 75 -45 96 -52 22 -7 61 -9 102
-6 36 4 111 17 166 31 55 13 139 39 187 56 62 23 102 44 135 74 27 24 69 56
96 73 26 16 95 74 154 129 59 54 127 118 151 142 24 23 70 56 102 72 35 18 73
48 100 80 23 28 62 62 86 76 30 17 59 49 88 93 25 36 71 94 103 129 46 50 67
65 101 73 27 6 65 6 105 -1 34 -5 98 -19 141 -30 58 -15 114 -20 215 -21 75 0
151 -6 168 -12 18 -7 68 -46 110 -88 55 -53 84 -90 98 -125 16 -42 19 -77 21
-249 2 -110 -2 -268 -8 -351 -11 -151 -11 -151 13 -200 13 -26 36 -57 51 -68
23 -16 31 -18 53 -8 14 7 48 33 76 59 28 26 57 59 64 74 8 14 24 89 35 165 12
77 28 173 36 214 8 41 32 111 53 155 21 44 49 112 61 150 14 42 25 112 30 175
4 67 13 117 24 138 9 18 42 52 74 77 37 29 84 54 132 70 41 14 119 34 173 45
74 15 120 32 183 66 75 41 94 46 177 54 51 5 130 21 175 35 45 14 94 36 109
49 15 13 38 28 50 35 12 6 36 11 53 11 17 0 40 -4 50 -10 10 -5 24 -26 30 -46
8 -24 10 -60 6 -102 -4 -36 -18 -97 -32 -136 -20 -56 -26 -90 -26 -163 0 -54
7 -114 16 -145 8 -30 26 -63 38 -75 13 -11 34 -26 47 -33 13 -7 62 -15 107
-18 l84 -5 37 40 c21 22 53 56 72 76 19 20 37 37 42 37 4 0 17 15 28 33 11 19
26 58 32 88 6 30 29 97 51 149 l41 95 1 155 c1 130 4 159 18 181 10 14 35 35
55 46 21 12 65 29 98 38 33 9 74 21 90 28 17 6 51 25 77 43 26 18 69 40 95 50
27 9 66 25 88 34 22 9 69 41 105 70 36 29 97 67 135 85 39 18 85 45 103 60 18
15 73 45 123 66 49 22 94 39 99 39 5 0 30 20 54 44 34 33 70 53 142 81 67 26
111 51 145 81 28 24 75 57 107 73 31 16 73 46 92 66 19 20 49 44 65 52 17 9
80 51 140 93 61 42 121 79 134 83 13 3 34 1 45 -5 12 -6 24 -16 28 -22 4 -6 8
-22 8 -36 0 -14 -11 -55 -24 -92 -13 -37 -42 -96 -64 -131 -22 -35 -52 -103
-67 -150 -14 -47 -41 -111 -59 -140 -21 -36 -40 -89 -55 -158 -13 -57 -35
-135 -48 -174 -14 -38 -40 -95 -59 -125 -18 -30 -42 -89 -53 -130 -12 -41 -28
-100 -36 -132 -9 -34 -29 -73 -51 -100 -20 -23 -48 -67 -62 -96 -13 -29 -33
-57 -44 -63 -10 -6 -31 -9 -46 -7 -20 2 -32 13 -45 39 -9 20 -27 85 -39 145
l-21 109 -61 60 c-34 33 -69 75 -78 93 -11 20 -32 39 -55 49 -25 10 -53 13
-83 10 -25 -3 -83 -18 -129 -32 -71 -23 -91 -34 -132 -76 -32 -33 -67 -87
-108 -171 -33 -68 -68 -150 -76 -183 -9 -33 -19 -97 -22 -142 -5 -75 -4 -86
21 -137 19 -38 45 -69 84 -101 31 -24 77 -52 102 -60 25 -8 79 -19 120 -25 41
-6 137 -13 213 -15 105 -2 144 -7 162 -19 14 -9 28 -28 31 -42 4 -14 2 -64 -5
-111 -6 -48 -21 -109 -35 -140 -14 -29 -28 -70 -32 -91 -3 -20 -19 -95 -36
-167 -16 -71 -38 -158 -48 -192 -10 -34 -31 -85 -46 -115 -15 -29 -52 -125
-82 -213 -30 -88 -65 -191 -78 -230 -12 -38 -41 -139 -64 -224 -25 -94 -58
-190 -85 -245 -33 -68 -49 -120 -65 -206 -11 -63 -30 -148 -41 -188 -10 -40
-32 -99 -48 -130 -16 -31 -36 -82 -45 -112 -9 -30 -23 -113 -32 -185 -8 -71
-22 -152 -30 -179 -9 -28 -29 -69 -45 -93 -17 -24 -37 -59 -45 -79 -8 -20 -29
-102 -45 -183 -23 -110 -39 -161 -65 -207 -18 -34 -40 -87 -48 -118 -8 -31
-25 -134 -36 -229 -14 -111 -29 -186 -41 -212 -11 -22 -33 -60 -49 -85 -23
-34 -32 -65 -41 -127 -8 -61 -8 -100 1 -151 6 -38 19 -82 29 -98 12 -20 32
-34 61 -43 23 -7 66 -12 95 -12 30 0 64 5 77 12 13 6 38 25 57 41 18 16 68 45
110 64 42 19 86 45 99 57 13 12 28 30 33 39 5 10 16 68 24 130 8 61 15 140 15
174 0 55 -3 64 -25 78 -14 9 -38 19 -55 22 -16 4 -37 15 -47 26 -15 17 -18 36
-16 111 1 50 7 131 13 181 6 50 18 115 26 145 9 30 26 75 40 100 13 26 35 100
49 166 15 66 40 183 57 260 19 89 42 164 63 205 18 36 52 122 75 190 24 69 56
159 73 200 16 41 45 137 64 215 24 99 45 160 73 211 23 40 48 107 60 155 11
46 35 131 55 188 19 57 40 110 46 117 6 8 20 14 30 14 10 0 26 -12 36 -27 16
-24 18 -55 17 -292 0 -235 -2 -277 -21 -362 -12 -53 -40 -143 -61 -200 -22
-57 -58 -183 -82 -279 -31 -128 -53 -194 -80 -245 -21 -38 -45 -93 -53 -121
-8 -28 -32 -84 -52 -125 -20 -41 -47 -94 -60 -119 -14 -25 -34 -90 -45 -145
-11 -55 -30 -119 -41 -142 -11 -23 -35 -53 -54 -68 -26 -19 -39 -40 -51 -82
-10 -35 -15 -78 -12 -115 3 -36 11 -65 21 -75 13 -14 21 -14 41 -5 15 7 44 43
71 91 26 43 60 91 76 105 16 14 47 63 70 108 23 46 58 103 79 128 20 25 42 54
48 65 6 12 20 59 32 105 12 46 30 99 40 119 10 20 32 50 50 66 17 17 40 44 51
61 10 17 29 78 43 135 13 57 27 124 30 148 4 24 22 81 41 127 19 45 43 127 54
181 11 54 22 132 26 173 3 41 11 111 16 155 6 44 19 112 31 150 11 39 29 133
39 210 13 98 19 204 19 355 0 118 -5 285 -11 370 -8 113 -8 216 0 380 6 125
19 272 29 331 11 58 27 122 37 142 9 20 35 57 58 83 22 25 58 57 79 70 22 14
79 38 127 54 48 15 116 47 150 69 35 22 70 42 79 45 10 2 56 16 104 30 73 22
94 33 136 74 40 39 69 55 139 80 48 17 121 38 162 47 45 9 95 28 130 50 31 19
94 48 141 65 46 16 101 43 121 60 20 16 56 38 80 49 24 11 70 27 101 37 37 11
75 32 110 62 29 25 71 53 93 63 22 10 57 19 78 19 24 0 44 -7 57 -20 11 -11
20 -31 20 -44 0 -13 -9 -35 -20 -49 -11 -14 -36 -35 -55 -47 -20 -12 -44 -39
-55 -60 -11 -21 -40 -55 -66 -77 -26 -21 -67 -59 -93 -84 -25 -26 -68 -59 -96
-74 -27 -16 -86 -52 -130 -81 -44 -29 -118 -69 -163 -88 -45 -20 -103 -47
-128 -62 -25 -15 -75 -32 -112 -39 -37 -8 -83 -20 -102 -28 -20 -9 -48 -28
-63 -43 -15 -15 -27 -38 -27 -51 0 -15 14 -39 33 -58 20 -20 48 -36 71 -41 23
-4 81 0 145 10 58 10 133 24 167 31 33 8 127 44 208 82 107 48 164 81 206 118
32 27 95 73 141 100 46 28 101 65 123 83 22 19 72 50 111 69 38 20 97 55 130
78 33 24 105 65 160 93 55 27 125 62 155 78 30 16 80 37 110 48 42 14 69 33
115 81 50 51 72 66 130 86 54 19 83 37 134 84 35 33 84 71 110 85 29 16 60 46
86 84 36 51 53 64 130 103 48 24 97 43 108 41 11 -2 28 -14 38 -28 11 -14 24
-59 30 -105 7 -49 9 -136 5 -225 -4 -88 -14 -176 -25 -225 -11 -44 -31 -103
-45 -130 -14 -28 -32 -77 -40 -110 -8 -33 -27 -136 -41 -229 -15 -98 -23 -182
-19 -200 3 -17 15 -48 25 -68 10 -20 29 -44 41 -52 12 -9 36 -16 52 -16 23 0
43 13 87 59 38 38 61 72 68 97 5 22 17 75 25 119 8 44 31 156 50 249 20 94 41
186 47 205 7 19 24 55 38 80 15 26 32 60 39 76 6 17 18 64 26 105 8 41 19 87
25 102 5 15 45 55 88 89 43 33 88 65 99 69 12 5 122 11 245 15 123 3 267 12
319 20 52 7 124 17 159 20 36 4 89 16 119 26 29 10 87 37 128 60 65 35 88 42
173 52 53 6 105 8 114 4 10 -4 22 -17 28 -31 7 -13 9 -36 5 -50 -4 -16 -23
-35 -51 -51 -24 -15 -58 -43 -74 -63 -17 -20 -61 -70 -98 -110 -38 -40 -98
-103 -135 -140 -36 -37 -74 -82 -83 -100 -9 -19 -39 -48 -71 -68 -31 -20 -63
-50 -73 -67 -9 -18 -41 -57 -72 -87 -31 -30 -67 -75 -79 -100 -12 -25 -39 -65
-60 -90 -20 -25 -50 -70 -65 -100 -21 -42 -26 -62 -22 -94 4 -27 15 -49 31
-63 14 -11 50 -31 81 -42 31 -12 77 -21 103 -21 26 0 100 17 173 40 69 22 138
49 153 61 14 11 36 38 46 60 12 23 38 50 63 65 23 15 62 46 87 70 25 24 63 51
85 60 22 9 61 31 86 50 26 19 56 34 68 34 13 0 49 -26 89 -63 37 -34 87 -77
112 -94 25 -17 68 -38 95 -48 28 -9 80 -20 118 -24 37 -4 102 -3 145 1 42 5
93 13 112 20 19 6 56 26 82 43 26 18 87 47 135 64 48 18 105 44 126 58 20 14
37 30 37 34 0 5 18 20 40 34 23 14 69 33 103 42 39 10 75 14 99 9 21 -4 44
-14 53 -22 8 -9 15 -26 15 -39 0 -13 -13 -52 -30 -87 -21 -44 -30 -78 -30
-113 0 -27 5 -67 10 -87 6 -21 22 -50 35 -66 15 -18 42 -34 69 -41 25 -6 87
-11 138 -11 51 0 111 5 133 11 24 7 56 29 84 56 29 30 75 59 137 88 52 24 115
62 142 84 26 22 72 49 102 61 30 12 65 28 78 36 12 8 33 31 46 52 13 20 58 64
100 97 54 42 99 68 153 87 57 20 82 24 95 17 11 -6 23 -21 28 -35 6 -14 10
-83 10 -153 0 -103 5 -147 24 -224 13 -52 31 -108 40 -125 12 -23 41 -44 113
-82 54 -28 111 -53 126 -57 16 -3 54 0 85 6 31 7 100 23 152 37 52 14 127 41
165 59 60 30 80 47 140 121 39 47 74 93 79 102 5 10 20 30 35 45 14 16 44 38
65 49 21 11 57 40 79 64 22 24 62 58 88 75 27 17 59 48 71 70 12 22 45 54 75
74 29 19 69 58 89 85 19 27 44 52 55 55 11 4 33 1 49 -5 18 -7 45 -37 71 -76
23 -36 50 -71 60 -78 10 -7 36 -34 58 -62 26 -33 71 -68 135 -107 58 -35 114
-61 144 -67 30 -5 82 -5 133 0 46 5 130 18 186 29 56 11 119 27 140 35 21 8
63 24 93 36 36 14 77 22 121 22 36 0 83 -5 102 -11 20 -7 83 -37 139 -68 99
-54 104 -55 162 -50 35 3 96 19 141 37 44 18 138 45 210 61 71 16 168 46 215
65 47 19 108 41 135 49 28 8 115 21 195 30 80 9 163 20 185 25 22 4 103 25
180 45 93 24 172 39 236 42 76 4 101 2 127 -11 17 -9 38 -29 45 -44 8 -15 27
-66 42 -114 20 -65 39 -101 76 -148 28 -34 69 -91 93 -128 34 -53 54 -73 97
-96 30 -17 82 -49 116 -72 40 -27 79 -45 108 -49 25 -4 64 -4 88 -1 23 4 67
18 97 32 30 14 63 33 74 42 10 9 27 35 38 56 18 36 19 54 16 225 -4 156 -8
197 -26 251 -15 47 -33 76 -63 105 -22 22 -49 56 -59 75 -9 19 -25 60 -33 90
-9 30 -34 90 -57 133 -22 43 -40 84 -40 92 0 8 -16 59 -37 112 -20 54 -53 123
-74 153 -24 35 -48 90 -65 149 -25 82 -35 101 -80 150 -28 31 -58 70 -66 86
-9 17 -24 59 -34 94 -13 48 -28 75 -57 104 -22 22 -54 72 -73 116 -19 42 -42
90 -51 106 -9 17 -33 49 -54 72 -21 22 -47 60 -59 83 -12 23 -45 65 -74 93
-29 29 -66 75 -81 102 -16 28 -47 73 -69 100 -22 28 -72 83 -111 123 -38 40
-95 109 -125 154 -32 48 -72 94 -95 109 -22 15 -110 96 -194 179 -117 115
-168 159 -207 176 -29 13 -55 28 -59 34 -4 6 -2 17 5 24 6 8 39 19 74 25 34 6
104 11 155 11 65 0 121 -7 189 -24 53 -14 138 -30 187 -36 50 -6 140 -18 200
-26 61 -8 169 -19 240 -24 72 -5 241 -15 378 -21 198 -10 259 -10 304 1 41 9
67 22 90 45 19 19 33 43 33 57 0 13 -12 47 -26 76 -14 28 -39 63 -55 77 -17
14 -63 34 -102 46 -40 11 -90 27 -112 36 -22 8 -57 28 -78 44 -20 17 -53 37
-72 45 -19 7 -49 14 -68 14 -23 0 -41 -8 -58 -26 -13 -14 -46 -38 -74 -52 -47
-26 -57 -27 -190 -26 -77 0 -180 6 -230 13 -49 6 -133 21 -185 32 -52 11 -180
28 -285 39 -104 11 -215 20 -245 20 -30 0 -89 9 -130 20 -47 12 -108 20 -165
20 -49 0 -117 5 -150 10 -33 5 -71 18 -85 28 -17 13 -26 30 -28 56 -2 20 4 60
14 89 9 28 29 72 44 97 14 25 34 65 44 90 9 25 44 92 76 150 37 65 60 116 60
135 0 17 -7 40 -15 52 -9 12 -32 27 -53 33 -20 5 -48 9 -62 9 -14 -1 -39 -4
-56 -8z m-1550 -651 c4 -5 5 -13 2 -18 -3 -6 -19 -13 -35 -17 -16 -3 -48 -1
-70 5 -23 6 -41 15 -41 20 0 5 12 12 28 16 15 3 32 7 37 9 6 2 24 1 40 -2 17
-3 34 -9 39 -13z m-8446 -135 c7 -14 12 -58 12 -98 0 -40 -5 -89 -11 -110 -7
-27 -15 -37 -27 -35 -9 2 -19 14 -23 28 -4 14 -7 62 -8 107 -1 45 4 94 11 108
6 14 17 25 23 25 6 0 17 -11 23 -25z m9273 -273 c21 -24 29 -43 29 -71 0 -27
-11 -55 -41 -102 -23 -35 -54 -78 -69 -96 -16 -17 -36 -58 -45 -90 -9 -32 -21
-70 -26 -85 -6 -15 -33 -61 -59 -103 -30 -47 -61 -116 -81 -178 -20 -62 -48
-123 -74 -161 -22 -34 -55 -91 -72 -127 -17 -36 -56 -102 -86 -147 -44 -64
-63 -106 -92 -198 -20 -65 -49 -140 -65 -168 -15 -28 -33 -76 -40 -106 -6 -30
-27 -102 -46 -160 -18 -58 -41 -139 -49 -180 -9 -41 -26 -98 -39 -126 -13 -29
-32 -78 -41 -110 -9 -32 -28 -80 -42 -108 -14 -27 -47 -72 -73 -100 -26 -28
-63 -76 -83 -106 -19 -30 -47 -66 -62 -80 -15 -14 -40 -52 -56 -84 -19 -40
-54 -84 -103 -132 -41 -40 -102 -87 -137 -105 -41 -22 -70 -46 -88 -73 -14
-23 -50 -75 -79 -116 -30 -41 -64 -80 -75 -87 -12 -6 -40 -15 -61 -19 -22 -3
-65 -15 -95 -25 -31 -11 -80 -36 -110 -57 -49 -33 -61 -37 -117 -37 -48 0 -69
5 -91 21 -15 11 -38 35 -50 53 -12 18 -25 57 -29 87 -3 30 -3 84 1 122 4 37
19 99 34 137 16 39 36 106 46 149 9 44 25 98 35 120 10 23 36 72 59 111 23 38
53 100 67 138 16 42 43 87 73 120 26 28 54 63 63 77 9 14 30 59 47 100 24 56
44 86 81 120 31 28 75 87 115 155 39 65 74 138 86 180 11 38 26 88 34 110 8
22 33 69 55 105 22 36 62 121 90 190 27 69 85 199 129 290 45 91 94 190 111
220 16 30 46 105 66 165 20 61 56 153 80 207 34 72 49 123 63 202 11 69 24
116 38 133 11 16 31 34 44 41 19 10 81 12 284 8 143 -3 289 -2 325 3 36 5 94
8 129 7 58 -2 66 -5 92 -34z m657 -23 c34 -11 83 -38 108 -59 34 -28 66 -43
118 -56 71 -17 71 -17 182 -133 61 -64 134 -144 162 -178 28 -34 94 -95 145
-137 52 -42 102 -88 112 -102 9 -15 61 -73 114 -129 53 -56 135 -145 183 -196
48 -52 100 -112 116 -134 16 -22 39 -48 50 -59 12 -10 35 -53 53 -95 17 -42
43 -98 57 -126 13 -27 40 -68 58 -89 18 -21 45 -69 59 -105 14 -37 44 -89 66
-116 23 -28 59 -88 81 -135 21 -47 55 -108 74 -136 19 -28 57 -98 83 -156 27
-58 60 -121 74 -139 14 -19 43 -92 66 -164 22 -71 45 -149 51 -173 6 -23 24
-57 40 -76 17 -19 37 -50 45 -70 9 -21 18 -83 21 -144 5 -96 3 -110 -15 -139
-12 -20 -29 -33 -41 -33 -12 0 -28 13 -40 33 -11 17 -34 75 -52 127 -25 77
-40 104 -78 145 -26 27 -60 74 -76 104 -16 30 -42 62 -57 71 -15 10 -61 25
-102 35 -65 15 -90 16 -188 7 -61 -6 -159 -14 -217 -17 -59 -4 -173 -21 -261
-40 -86 -18 -178 -44 -205 -58 -27 -14 -83 -32 -124 -42 -41 -9 -124 -32 -185
-51 -60 -19 -129 -47 -153 -63 -24 -17 -73 -37 -112 -45 -38 -9 -95 -16 -127
-16 -36 0 -74 8 -101 20 -23 10 -45 26 -48 35 -4 9 -2 26 4 39 5 12 38 37 73
56 40 21 94 65 151 122 48 48 99 109 115 135 15 27 50 75 77 108 27 33 57 78
67 100 9 22 25 82 35 132 18 92 18 93 -2 120 -12 16 -36 37 -54 47 -24 15 -53
20 -109 20 -59 1 -84 -4 -111 -19 -19 -12 -54 -49 -77 -84 -23 -35 -55 -77
-70 -94 -15 -16 -60 -54 -100 -83 -39 -30 -103 -86 -142 -126 -39 -40 -79 -91
-90 -113 -10 -22 -26 -62 -36 -90 -13 -35 -37 -67 -81 -110 -36 -35 -78 -88
-99 -127 -20 -38 -41 -71 -46 -74 -5 -3 -146 -6 -313 -7 -295 -2 -305 -1 -333
19 -15 12 -41 43 -56 70 -16 27 -42 63 -58 80 -16 17 -34 46 -39 64 -6 22 -6
65 0 122 6 48 19 110 30 138 11 28 27 61 35 73 8 12 28 55 44 96 17 40 51 98
75 129 25 32 75 98 113 147 37 50 87 130 110 178 24 48 57 106 73 128 16 23
49 102 76 182 26 78 62 171 80 207 18 36 42 90 54 120 12 30 44 93 70 140 36
62 59 120 85 215 19 72 55 173 79 225 25 52 61 151 82 220 20 69 41 134 47
145 5 11 26 40 46 65 20 25 45 58 54 73 10 15 32 37 50 47 18 11 46 20 63 20
16 0 58 -9 92 -21z m-10074 -254 c3 -8 0 -32 -7 -53 -7 -20 -17 -37 -22 -37
-6 0 -11 14 -13 32 -2 18 2 41 8 53 6 11 15 20 19 20 5 0 11 -7 15 -15z
m-3229 -115 c4 -16 4 -43 0 -59 -3 -16 -13 -35 -21 -41 -7 -7 -21 -10 -29 -6
-8 3 -15 18 -15 33 0 15 5 45 11 66 7 26 16 37 29 37 12 0 21 -10 25 -30z
m-155 -275 c0 -12 -7 -28 -15 -35 -8 -6 -19 -9 -25 -5 -5 3 -10 19 -10 34 0
15 5 32 12 39 8 8 15 9 25 1 7 -7 13 -22 13 -34z m5398 -661 c17 -20 59 -91
95 -158 36 -66 72 -142 81 -168 8 -25 20 -83 25 -128 8 -63 8 -89 -2 -109 -8
-17 -24 -29 -49 -35 -31 -8 -41 -6 -59 10 -12 10 -32 39 -44 64 -13 25 -31 70
-41 99 -9 30 -32 73 -50 97 -18 23 -40 56 -48 72 -9 17 -20 50 -26 75 -6 31
-6 63 0 98 6 29 22 67 36 86 14 18 31 33 39 33 7 0 27 -16 43 -36z m-6300
-540 c16 -11 22 -25 22 -54 0 -21 -13 -72 -28 -112 -16 -40 -44 -94 -64 -120
-20 -26 -41 -62 -47 -80 -6 -18 -17 -68 -26 -112 -8 -43 -26 -98 -40 -122 -14
-24 -36 -63 -49 -86 -13 -24 -39 -99 -57 -168 -17 -69 -42 -148 -54 -177 -13
-28 -41 -78 -63 -110 -22 -32 -58 -75 -81 -96 -22 -20 -52 -39 -66 -43 -14 -3
-51 -4 -83 -2 -41 4 -83 18 -146 49 -88 43 -90 45 -117 104 -15 33 -32 79 -38
103 -7 24 -22 51 -34 62 -12 10 -35 29 -50 41 -24 21 -30 35 -38 99 -6 50 -6
92 1 126 9 44 20 61 73 112 34 33 80 80 102 105 33 37 52 48 111 66 51 15 88
35 133 71 35 28 91 64 125 79 33 16 75 44 92 62 20 22 67 50 130 78 59 25 115
58 139 81 22 20 49 42 60 48 11 6 31 12 45 12 14 0 36 -7 48 -16z m6890 -176
c7 -7 12 -20 12 -29 0 -9 -7 -22 -15 -29 -8 -6 -23 -9 -34 -5 -11 3 -23 16
-27 27 -4 15 -1 26 12 35 10 7 23 13 29 13 6 0 16 -5 23 -12z m1840 -490 c2
-9 -4 -22 -13 -30 -9 -7 -24 -21 -35 -32 -10 -10 -22 -37 -25 -60 -4 -22 -16
-60 -27 -83 -13 -28 -47 -65 -98 -108 -43 -36 -93 -89 -111 -117 -19 -29 -40
-59 -49 -66 -8 -7 -33 -22 -55 -32 -24 -12 -62 -20 -94 -20 l-54 0 6 47 c4 35
12 53 31 70 15 12 45 27 69 34 23 6 50 18 61 27 10 10 25 34 33 54 8 20 30 49
49 63 24 19 38 40 49 79 9 30 26 65 39 79 13 14 41 30 62 36 22 6 44 11 50 11
6 0 25 16 42 36 19 21 39 34 49 32 10 -2 19 -11 21 -20z m-10184 -134 c9 -3
16 -15 16 -25 0 -11 -8 -36 -19 -57 -10 -20 -22 -56 -26 -80 -4 -23 -18 -56
-31 -72 -14 -16 -37 -31 -53 -35 -17 -3 -43 0 -62 8 -19 8 -43 24 -54 37 -14
15 -20 36 -20 66 0 35 6 49 30 74 17 16 64 43 105 59 41 17 80 30 87 30 6 1
18 -2 27 -5z m-535 -273 c20 -22 59 -65 87 -98 28 -32 57 -69 64 -82 9 -17 11
-48 7 -101 -3 -43 -12 -89 -19 -104 -7 -17 -32 -38 -60 -52 -27 -14 -65 -39
-86 -58 -20 -18 -51 -42 -68 -54 -18 -12 -47 -52 -68 -91 -29 -56 -46 -75 -86
-100 -31 -19 -61 -49 -77 -76 -18 -29 -44 -53 -74 -70 -26 -14 -66 -48 -89
-75 -29 -35 -66 -62 -122 -91 -48 -25 -91 -57 -109 -79 -16 -20 -46 -46 -67
-58 -20 -11 -59 -26 -87 -33 -27 -7 -79 -25 -115 -42 -36 -16 -87 -31 -115
-34 -39 -4 -64 0 -110 19 -33 14 -81 33 -108 42 -31 12 -59 32 -85 63 -20 25
-62 70 -93 101 -42 42 -61 71 -74 112 -10 30 -27 73 -38 94 -15 32 -18 53 -14
100 3 37 14 79 28 105 13 23 46 67 74 97 37 39 81 69 165 114 63 33 123 69
135 80 11 10 38 26 59 35 21 9 91 27 155 39 65 13 135 33 157 44 21 11 48 30
59 42 11 12 33 29 48 37 16 8 69 23 119 34 49 11 106 26 125 34 19 8 52 30 74
48 22 19 63 41 92 50 29 8 86 22 127 30 41 8 92 15 114 16 33 1 44 -5 75 -38z
m885 -4 c17 -17 27 -46 37 -97 11 -62 11 -76 -2 -99 -8 -14 -26 -31 -39 -38
-14 -7 -60 -13 -103 -13 -50 0 -88 5 -107 15 -17 9 -32 28 -39 47 -5 18 -13
50 -16 70 -4 20 -2 52 4 70 6 18 23 41 39 50 20 13 50 18 115 18 79 0 90 -2
111 -23z m3631 -102 c34 -22 62 -49 74 -73 10 -20 30 -74 45 -120 14 -46 26
-105 26 -132 0 -27 -4 -60 -10 -74 -5 -14 -21 -33 -35 -42 -18 -11 -46 -17
-83 -17 -31 1 -84 9 -117 18 -33 10 -79 31 -102 46 -22 16 -55 43 -72 60 -25
25 -31 39 -31 73 0 33 7 52 31 82 17 21 41 61 55 89 13 27 37 67 54 88 27 31
38 37 71 37 27 0 55 -10 94 -35z m5630 -74 c3 -11 -1 -36 -9 -55 -12 -28 -21
-36 -40 -36 -16 0 -32 9 -41 24 -12 17 -13 30 -6 49 5 14 16 27 23 30 7 3 25
6 40 6 18 1 29 -5 33 -18z"/>
<path d="M4566 8574 c-32 -8 -73 -23 -90 -33 -17 -11 -76 -42 -132 -70 -56
-28 -119 -65 -140 -82 -21 -17 -75 -49 -118 -71 -44 -22 -116 -65 -160 -96
-45 -31 -115 -86 -156 -122 -42 -36 -97 -81 -123 -100 -33 -25 -56 -54 -79
-100 -23 -45 -56 -88 -112 -143 -44 -42 -91 -95 -106 -116 -14 -22 -46 -58
-72 -80 -25 -22 -55 -60 -66 -83 -11 -24 -44 -65 -74 -93 -30 -27 -62 -64 -72
-81 -10 -17 -41 -46 -68 -65 -28 -18 -65 -56 -83 -84 -18 -27 -49 -66 -70 -85
-20 -19 -48 -57 -62 -83 -13 -27 -43 -68 -67 -91 -23 -24 -52 -56 -63 -72 -11
-16 -32 -62 -47 -102 -23 -60 -35 -77 -71 -102 -24 -16 -50 -45 -60 -67 -9
-21 -26 -57 -37 -80 -11 -24 -39 -57 -67 -79 -27 -20 -59 -55 -72 -78 -13 -22
-30 -54 -39 -71 -9 -18 -23 -30 -35 -30 -11 0 -25 11 -32 25 -7 14 -13 52 -13
85 0 33 5 76 10 96 6 19 21 46 35 59 19 18 25 34 25 67 0 34 -5 46 -25 59 -23
15 -29 15 -94 -5 -51 -15 -76 -30 -97 -53 -15 -18 -35 -53 -46 -77 -10 -24
-23 -64 -30 -90 -6 -25 -26 -82 -44 -126 -18 -44 -49 -132 -70 -195 -20 -63
-54 -149 -75 -191 -22 -45 -42 -103 -48 -140 -5 -35 -15 -100 -21 -144 -7 -44
-23 -118 -37 -165 -13 -47 -39 -119 -58 -160 -18 -41 -48 -129 -65 -195 -18
-66 -49 -156 -71 -200 -21 -44 -58 -138 -83 -208 -24 -71 -60 -154 -79 -185
-19 -32 -56 -100 -82 -152 -26 -52 -62 -120 -81 -150 -18 -30 -47 -94 -64
-142 -17 -47 -47 -113 -67 -145 -19 -32 -75 -136 -124 -232 -49 -95 -98 -205
-109 -245 -12 -39 -38 -125 -59 -191 -21 -66 -43 -140 -49 -165 -6 -25 -33
-82 -60 -127 -28 -46 -66 -122 -86 -170 -21 -49 -52 -114 -71 -146 -19 -31
-42 -79 -51 -105 -8 -26 -16 -61 -16 -78 0 -17 5 -41 11 -51 6 -11 26 -28 45
-37 19 -9 52 -16 73 -16 26 0 49 8 69 23 16 13 57 50 91 83 47 45 75 85 118
169 32 61 86 172 121 249 35 76 79 159 98 185 18 25 41 71 51 101 10 30 28 76
41 102 13 26 42 75 63 108 22 34 45 78 52 98 6 20 40 98 75 172 34 74 79 190
99 257 19 68 53 158 75 202 23 45 57 143 81 227 26 96 48 157 62 172 12 13 39
33 59 43 21 10 48 19 61 19 13 0 31 -6 40 -12 9 -7 33 -51 52 -98 27 -67 45
-95 84 -130 27 -25 61 -64 76 -88 14 -24 46 -57 70 -74 24 -17 58 -51 75 -75
18 -24 51 -56 73 -71 23 -14 61 -43 84 -64 23 -20 78 -55 123 -78 44 -22 103
-56 129 -75 27 -19 70 -45 97 -57 47 -22 60 -23 284 -22 208 0 244 3 313 22
43 12 115 38 160 57 45 20 97 43 115 52 18 9 50 31 71 50 25 21 50 33 68 33
16 0 34 -5 41 -12 7 -7 12 -32 12 -57 0 -26 -5 -64 -10 -86 -6 -22 -14 -60
-19 -83 -6 -31 -4 -62 6 -105 7 -34 25 -81 39 -104 19 -32 39 -49 89 -74 36
-17 84 -35 107 -39 24 -5 69 -4 101 1 33 6 91 21 131 34 39 13 96 31 128 39
37 11 75 32 114 64 32 26 87 63 123 82 63 33 68 39 113 123 25 48 64 107 86
131 22 24 52 68 66 98 16 34 56 85 109 138 46 47 104 103 128 125 24 23 52 53
62 68 10 15 50 43 88 62 38 20 86 50 107 68 20 18 73 55 116 82 44 27 99 68
122 91 24 23 63 51 87 63 24 12 53 31 64 44 11 12 28 37 37 55 10 19 40 48 71
67 30 19 67 54 83 77 16 24 48 58 71 76 23 18 50 51 62 74 11 22 32 51 47 65
14 13 40 30 57 39 18 8 44 36 65 72 19 31 44 67 57 80 12 12 33 22 47 22 15 0
33 -11 45 -26 15 -18 21 -41 21 -73 0 -25 -14 -89 -30 -141 -17 -52 -44 -114
-60 -136 -16 -23 -40 -80 -54 -127 -14 -47 -30 -122 -36 -168 -6 -45 -20 -100
-31 -120 -10 -21 -23 -41 -29 -44 -6 -3 -19 -23 -29 -43 -10 -20 -22 -57 -26
-82 -3 -25 -18 -92 -31 -150 -14 -58 -30 -118 -36 -134 -6 -16 -22 -41 -35
-57 -13 -15 -32 -47 -43 -71 -10 -24 -30 -87 -44 -140 -14 -54 -35 -114 -46
-135 -11 -21 -36 -57 -55 -81 -19 -24 -39 -60 -44 -80 -5 -20 -15 -69 -21
-109 -8 -49 -22 -90 -45 -127 -19 -31 -41 -80 -49 -110 -9 -30 -16 -75 -16
-100 0 -36 6 -52 24 -71 13 -13 41 -28 62 -34 22 -6 56 -11 76 -11 20 0 49 5
63 12 15 7 35 28 44 47 10 20 26 72 36 116 10 50 33 110 60 160 24 45 51 112
61 150 9 39 24 84 32 100 8 17 30 55 48 85 22 36 40 87 53 147 11 51 25 103
32 115 6 13 23 35 37 51 14 15 36 27 49 27 17 0 54 -29 121 -94 53 -51 111
-101 129 -109 17 -9 66 -26 110 -37 43 -12 118 -35 168 -52 73 -24 100 -29
145 -25 30 3 91 17 135 32 59 20 91 25 121 20 24 -3 63 -21 90 -41 27 -19 78
-44 114 -55 54 -18 92 -21 230 -22 132 -1 175 3 217 17 28 9 80 36 115 58 35
23 105 58 156 79 51 21 121 58 155 82 34 24 89 58 122 75 33 16 79 48 102 71
23 22 61 50 84 61 22 12 60 39 83 61 24 21 67 50 97 63 30 13 66 27 82 30 21
5 33 1 52 -18 14 -14 25 -35 25 -48 0 -13 -11 -41 -25 -63 -13 -22 -29 -51
-35 -64 -6 -14 -14 -59 -17 -101 -6 -75 -5 -78 36 -156 22 -43 58 -118 80
-166 31 -69 47 -93 82 -117 23 -18 68 -39 98 -49 42 -13 88 -17 181 -16 99 1
147 7 230 28 58 14 120 34 138 43 17 9 41 30 52 47 11 18 49 47 92 71 67 37
78 47 133 132 34 51 72 104 85 119 14 14 42 37 62 50 23 15 48 45 69 85 30 56
39 64 95 89 49 22 66 37 84 69 13 22 30 43 38 46 8 3 21 0 29 -7 12 -10 14
-28 11 -83 -3 -45 -15 -93 -32 -133 -14 -34 -33 -94 -41 -133 -8 -39 -15 -93
-15 -120 0 -41 5 -54 26 -74 23 -22 36 -25 98 -25 48 0 83 6 106 18 19 9 40
28 47 42 6 14 23 91 37 172 14 81 34 169 45 195 10 26 29 72 40 101 12 29 26
96 32 150 6 53 17 130 24 169 8 43 33 113 60 170 26 54 65 150 87 213 22 63
55 135 73 160 18 25 51 84 74 132 23 49 52 95 65 103 18 12 46 15 117 13 88
-3 99 -1 161 29 36 17 72 41 78 53 6 12 9 33 6 46 -4 13 -14 28 -24 33 -10 5
-45 12 -77 16 -33 3 -74 11 -91 16 -17 5 -42 21 -55 35 -14 15 -23 37 -23 57
0 17 7 46 16 62 8 17 30 57 47 90 17 33 46 110 65 170 19 61 40 130 46 155 7
25 36 92 66 150 51 98 56 114 74 240 11 74 25 157 32 185 6 27 19 68 29 90 10
22 19 59 19 83 0 35 -6 49 -28 72 -16 16 -48 33 -71 40 -23 6 -52 8 -64 4 -12
-3 -30 -14 -41 -23 -10 -9 -26 -32 -36 -51 -9 -19 -22 -57 -29 -85 -7 -27 -28
-81 -48 -120 -27 -52 -43 -106 -64 -214 -16 -79 -40 -168 -54 -198 -13 -30
-33 -67 -44 -82 -11 -15 -43 -95 -71 -177 -28 -82 -66 -181 -85 -219 -18 -39
-50 -89 -70 -112 -19 -23 -44 -45 -55 -48 -11 -4 -47 6 -87 23 -37 17 -99 35
-136 40 -37 6 -85 19 -105 29 -20 10 -50 37 -67 60 -16 23 -43 61 -60 84 -16
23 -39 57 -51 76 -12 19 -27 60 -34 91 -7 31 -25 86 -41 121 -19 42 -46 80
-79 110 -27 25 -64 73 -82 105 -26 47 -43 65 -79 84 -33 16 -63 23 -102 23
-30 0 -68 -6 -84 -14 -15 -8 -38 -26 -50 -39 -12 -13 -29 -44 -38 -68 -10 -28
-16 -80 -16 -137 -1 -83 2 -98 31 -159 17 -37 40 -90 51 -118 10 -28 38 -82
61 -121 30 -48 72 -94 138 -152 68 -60 121 -97 187 -129 68 -33 97 -53 112
-78 12 -18 21 -40 21 -48 0 -8 18 -50 40 -94 25 -50 49 -120 65 -191 14 -61
25 -134 25 -161 0 -26 -10 -86 -21 -133 -12 -46 -28 -97 -37 -114 -8 -16 -42
-61 -76 -99 -34 -38 -87 -94 -118 -125 -32 -31 -71 -78 -88 -104 -16 -26 -46
-62 -66 -79 -20 -18 -51 -54 -69 -80 -18 -27 -47 -60 -65 -73 -18 -13 -38 -32
-45 -42 -7 -10 -22 -51 -34 -90 -12 -40 -32 -84 -44 -98 -12 -14 -94 -60 -181
-101 -88 -41 -186 -86 -218 -100 -39 -16 -76 -24 -115 -24 -36 0 -79 9 -113
23 -43 17 -59 30 -72 57 -9 19 -25 78 -34 130 -10 60 -14 117 -10 154 3 33 17
83 30 112 13 29 30 79 36 111 7 32 25 83 41 113 15 30 44 104 64 164 19 60 35
117 35 128 0 10 -7 32 -15 48 -8 16 -28 38 -44 49 -16 12 -45 21 -63 21 -25 0
-52 -12 -94 -42 -32 -23 -81 -61 -107 -85 -27 -23 -73 -56 -103 -74 -30 -17
-69 -46 -87 -63 -18 -18 -58 -47 -90 -66 -33 -18 -89 -59 -125 -92 -37 -33
-89 -71 -117 -85 -27 -14 -75 -50 -105 -82 -43 -43 -72 -62 -128 -84 -49 -20
-80 -39 -95 -59 -12 -16 -40 -41 -62 -54 -28 -16 -79 -29 -165 -43 -69 -10
-146 -22 -172 -26 l-48 -6 0 56 c0 31 5 65 10 76 6 10 37 32 69 49 38 18 73
47 98 77 21 26 47 56 58 65 11 10 24 17 28 18 5 0 21 9 37 20 15 10 42 50 59
87 18 37 43 79 56 93 13 14 28 37 34 52 5 14 15 53 21 87 6 34 11 97 11 141 0
53 -5 91 -16 114 -9 19 -32 48 -50 65 -19 17 -42 42 -51 56 -8 13 -36 34 -61
46 -38 18 -56 21 -109 16 -36 -4 -77 -12 -91 -19 -15 -7 -59 -58 -99 -113 -40
-55 -83 -127 -95 -160 -12 -33 -31 -79 -42 -103 -13 -29 -33 -51 -63 -68 -35
-21 -50 -39 -80 -102 -21 -42 -52 -95 -69 -118 -17 -22 -42 -79 -57 -125 -14
-46 -31 -106 -37 -134 -6 -27 -21 -58 -32 -67 -12 -10 -50 -27 -86 -38 -36
-11 -88 -20 -117 -20 -28 0 -99 5 -158 10 -59 6 -120 15 -135 21 -15 5 -53 36
-84 67 -31 31 -76 73 -99 92 l-42 36 -15 114 c-8 63 -15 144 -15 180 0 36 4
133 10 215 6 83 18 182 26 220 9 39 30 97 47 130 17 33 42 80 55 105 14 25 35
95 48 156 12 60 29 121 36 134 7 14 28 42 46 62 18 20 38 56 44 80 6 24 20 77
31 118 11 41 44 125 74 185 29 61 67 155 84 211 23 72 44 117 74 157 31 41 53
89 81 174 21 65 51 143 66 173 15 30 32 75 38 100 6 25 25 127 41 228 24 146
37 199 65 261 20 42 43 106 52 142 11 39 18 105 18 169 1 88 -2 110 -19 139
-11 19 -27 38 -36 44 -9 5 -27 7 -41 4 -14 -4 -48 -26 -77 -49 -29 -24 -61
-59 -71 -79 -10 -19 -28 -85 -40 -145 -11 -60 -28 -134 -36 -164 -9 -30 -31
-84 -49 -120 -18 -36 -43 -96 -54 -135 -11 -38 -32 -131 -47 -205 -16 -86 -35
-149 -50 -175 -13 -22 -44 -83 -69 -135 -25 -52 -58 -118 -73 -147 -15 -29
-79 -128 -144 -220 -64 -92 -144 -195 -178 -228 -34 -33 -75 -85 -90 -116 -17
-33 -47 -71 -71 -90 -26 -20 -50 -52 -64 -83 -13 -28 -31 -58 -41 -67 -11 -9
-40 -26 -66 -38 -37 -17 -54 -34 -74 -71 -16 -30 -42 -59 -69 -75 -25 -16 -54
-47 -71 -77 -19 -32 -46 -60 -76 -79 -26 -16 -64 -51 -83 -78 -20 -27 -57 -62
-83 -77 -26 -15 -78 -56 -117 -92 -38 -35 -86 -87 -105 -116 -20 -28 -50 -58
-67 -67 -17 -9 -43 -23 -57 -33 -15 -9 -40 -35 -56 -58 -17 -23 -45 -51 -63
-63 -17 -12 -54 -27 -82 -33 -38 -8 -57 -7 -82 3 -22 9 -39 26 -48 48 -7 18
-17 61 -20 94 -4 34 -16 75 -26 92 -10 16 -49 50 -86 75 -48 33 -78 46 -103
46 -19 0 -70 -14 -112 -31 -49 -19 -97 -49 -132 -79 -39 -34 -80 -58 -142 -81
-66 -25 -100 -45 -143 -84 -31 -29 -99 -78 -151 -111 -63 -39 -133 -95 -207
-166 -80 -78 -128 -116 -167 -133 -31 -14 -74 -38 -96 -54 -23 -16 -78 -43
-125 -60 -46 -16 -123 -35 -172 -41 -48 -6 -128 -23 -178 -37 -49 -14 -116
-28 -148 -30 -52 -5 -66 -2 -140 32 -45 21 -101 47 -124 58 -23 11 -71 46
-106 77 -35 31 -86 69 -113 84 -27 15 -74 53 -105 84 -30 32 -74 69 -97 84
-30 20 -51 46 -76 95 -18 37 -52 89 -75 115 -23 26 -50 66 -61 90 -10 24 -26
88 -35 142 -8 54 -26 126 -39 160 -14 34 -29 79 -35 101 -6 22 -11 60 -11 84
0 30 13 73 43 140 24 53 52 125 62 161 9 36 24 76 32 90 8 14 29 35 47 46 17
12 60 32 94 44 l62 23 61 -28 c58 -26 68 -27 149 -21 73 6 96 4 148 -13 34
-12 83 -21 109 -21 26 0 87 9 135 20 47 10 104 28 125 38 21 11 48 29 61 40
15 13 50 25 95 32 40 6 110 18 155 27 59 11 93 24 115 42 18 14 36 31 40 38 4
7 36 28 70 47 34 18 87 42 117 51 30 10 84 32 120 50 36 18 98 45 138 60 57
22 83 40 115 76 27 30 66 57 109 78 46 22 79 46 106 79 24 29 60 56 89 70 26
12 65 28 86 36 29 12 42 25 56 58 10 24 26 65 36 92 11 31 35 65 67 94 35 34
55 63 71 107 15 42 37 76 73 113 33 32 70 87 99 145 27 50 62 112 80 137 17
25 45 74 62 110 16 36 49 88 72 115 27 32 55 85 80 150 22 56 60 141 85 190
32 61 51 115 61 168 8 43 15 122 15 175 0 65 -7 120 -20 171 -12 42 -32 94
-45 116 -13 22 -37 62 -52 89 -15 27 -43 66 -60 86 -20 23 -66 53 -120 79 -47
23 -111 49 -142 57 -30 8 -82 14 -116 13 -33 0 -87 -7 -119 -15z m241 -289
c27 -8 58 -25 70 -37 11 -13 28 -43 37 -67 9 -24 20 -71 23 -105 3 -34 -2
-124 -11 -201 -10 -77 -24 -169 -32 -204 -8 -36 -32 -96 -53 -135 -21 -39 -51
-113 -66 -164 -16 -53 -38 -101 -49 -112 -12 -11 -35 -30 -52 -44 -22 -18 -42
-53 -68 -118 -29 -71 -49 -105 -90 -148 -38 -40 -58 -72 -73 -116 -11 -34 -42
-90 -69 -125 -26 -35 -67 -89 -90 -119 -23 -30 -58 -72 -78 -93 -20 -22 -44
-53 -52 -70 -9 -18 -24 -40 -33 -51 -9 -10 -48 -33 -87 -51 -49 -23 -90 -51
-135 -96 -51 -51 -76 -68 -123 -83 -35 -10 -71 -30 -85 -46 -14 -15 -35 -42
-46 -60 -12 -19 -34 -38 -55 -45 -19 -7 -60 -20 -91 -29 -45 -13 -64 -25 -97
-65 -38 -45 -45 -49 -99 -56 -32 -3 -85 -13 -118 -22 -33 -8 -68 -22 -78 -31
-10 -9 -27 -32 -38 -52 -11 -20 -28 -41 -38 -47 -13 -8 -41 -7 -107 4 -60 10
-120 13 -184 8 -52 -3 -123 -13 -157 -22 -62 -17 -63 -17 -142 10 -44 15 -87
27 -96 27 -8 0 -22 11 -31 25 -11 17 -16 50 -17 107 -1 70 2 89 21 123 13 22
38 51 57 64 19 12 46 38 60 57 15 19 39 63 55 97 19 41 42 73 70 96 23 18 58
59 77 90 20 31 48 70 63 86 15 17 48 70 74 118 26 49 68 111 92 139 25 27 56
74 68 103 19 41 35 60 80 89 30 21 65 53 76 72 12 19 42 51 67 71 26 22 56 60
74 95 19 38 44 69 72 89 23 16 57 50 75 75 18 24 51 58 75 75 25 18 59 59 85
102 23 39 60 89 80 111 21 23 59 71 85 108 27 37 63 76 82 88 18 11 48 38 67
60 18 21 43 52 54 67 12 16 55 46 95 68 40 22 97 61 126 87 40 36 69 52 125
69 40 12 91 31 113 42 22 11 55 33 74 49 18 16 45 34 59 39 15 6 52 14 82 19
30 5 83 7 116 4 34 -2 84 -11 111 -19z m5957 -3069 c15 -20 21 -41 20 -75 -1
-28 -14 -73 -32 -113 -23 -51 -37 -69 -55 -73 -14 -4 -34 -2 -45 4 -10 5 -29
34 -42 63 -14 33 -23 74 -24 108 0 38 5 64 19 84 10 16 33 34 49 41 24 10 37
11 60 1 16 -6 39 -24 50 -40z m-2806 -632 c14 -9 22 -26 22 -44 0 -20 -9 -36
-32 -54 -18 -14 -41 -34 -51 -43 -9 -9 -23 -35 -29 -57 -7 -22 -29 -55 -50
-75 -21 -20 -62 -58 -91 -85 -30 -27 -62 -55 -72 -62 -10 -8 -27 -14 -37 -14
-10 0 -27 9 -38 20 -13 13 -20 33 -20 57 0 30 8 43 49 82 36 34 53 60 66 101
9 30 25 67 36 81 10 15 40 37 66 49 27 13 68 31 93 41 25 10 50 18 55 19 6 0
21 -7 33 -16z m-3248 -164 c11 -11 20 -25 20 -30 0 -6 -7 -27 -15 -47 -8 -20
-40 -65 -71 -100 -50 -56 -60 -63 -93 -63 -24 0 -45 7 -59 20 -18 17 -22 31
-21 78 0 31 6 72 13 91 8 22 25 41 46 53 23 12 56 18 97 18 50 0 67 -4 83 -20z
m-427 -384 c29 -20 79 -45 111 -56 32 -11 65 -25 72 -31 8 -6 14 -24 14 -38 0
-15 -10 -56 -21 -92 -12 -35 -31 -74 -42 -86 -11 -12 -52 -35 -91 -50 -43 -17
-84 -42 -106 -64 -19 -20 -48 -44 -63 -54 -19 -12 -47 -18 -87 -18 -41 0 -72
7 -106 24 -41 20 -50 29 -52 54 -2 19 13 64 41 125 24 52 59 133 77 180 18 47
40 92 47 102 8 9 29 24 46 32 20 10 47 15 70 12 21 -2 61 -20 90 -40z"/>
</g>
</svg>
