<?xml version="1.0" encoding="UTF-8" standalone="no"?>
<!-- Created with Inkscape (http://www.inkscape.org/) -->

<svg
   xmlns:dc="http://purl.org/dc/elements/1.1/"
   xmlns:cc="http://creativecommons.org/ns#"
   xmlns:rdf="http://www.w3.org/1999/02/22-rdf-syntax-ns#"
   xmlns:svg="http://www.w3.org/2000/svg"
   xmlns="http://www.w3.org/2000/svg"
   version="1.1"
   width="900"
   height="403"
   id="svg3039">
  <metadata
     id="metadata3045">
    <rdf:RDF>
      <cc:Work
         rdf:about="">
        <dc:format>image/svg+xml</dc:format>
        <dc:type
           rdf:resource="http://purl.org/dc/dcmitype/StillImage" />
        <dc:title></dc:title>
      </cc:Work>
    </rdf:RDF>
  </metadata>
  <defs
     id="defs3043" />
  <path
     d="m 732.87244,328.3401 c -2.85063,-3.4477 -1.59086,-14.03873 3.56932,-30.0077 2.63611,-8.15782 5.86511,-17.36367 7.17558,-20.45745 2.27716,-5.37598 3.08185,-9.87495 1.76623,-9.87495 -1.24257,0 -21.66856,13.11774 -26.20619,16.82983 -2.57256,2.10453 -8.13314,5.56546 -12.35685,7.69095 -6.76261,3.40314 -7.98876,3.7236 -10.27007,2.68416 -4.56426,-2.07961 -5.91442,-9.24417 -2.79891,-14.8522 5.47526,-9.85565 8.96041,-14.85031 13.65713,-19.57235 2.88863,-2.90422 6.53294,-7.53039 8.09846,-10.28039 1.56553,-2.75 6.2623,-8.825 10.43728,-13.5 4.17497,-4.675 8.91638,-10.3 10.53645,-12.5 1.62008,-2.2 8.3717,-9.85 15.00362,-17 6.63191,-7.15 14.09364,-15.475 16.58162,-18.5 13.45603,-16.36046 23.79254,-34.23036 24.65967,-42.63196 0.812,-7.86755 -1.30919,-8.06738 -11.41705,-1.07552 -1.7552,1.21411 -5.0509,3.33143 -7.32379,4.70514 -4.45126,2.69029 -20.45313,17.90228 -23.14481,22.00234 -0.90269,1.375 -5.26771,6.42448 -9.70005,11.22106 -4.43233,4.79658 -8.82055,10.19658 -9.75159,12 -0.93104,1.80342 -4.98495,6.98117 -9.00868,11.50612 -4.02374,4.52496 -8.19273,9.92496 -9.26443,12 -2.0404,3.95068 -15.99773,18.54896 -39.61538,41.4346 C 657.81541,275.36024 650.84447,281 647.7432,281 c -1.30616,0 -4.98446,2.9474 -9.70304,7.77499 -4.17968,4.27625 -9.00556,8.77625 -10.72416,10 -4.09081,2.91291 -8.72001,2.91399 -10.7593,0.002 -2.20736,-3.15145 -1.93416,-5.61997 1.20146,-10.8557 2.99243,-4.99664 26.81644,-28.39261 40.02515,-39.30602 C 666.04885,241.78654 669,237.94763 669,234.02491 c 0,-2.45041 -2.5298,-3.58342 -11.07308,-4.95928 -7.97709,-1.28467 -15.7508,-4.94033 -21.2139,-9.97604 C 634.27285,216.84032 631.62744,215 630.83434,215 c -2.08356,0 -7.25757,5.7739 -9.85713,11 -1.23111,2.475 -3.13703,5.7751 -4.23539,7.33356 -1.09836,1.55846 -3.08294,6.0433 -4.41019,9.96632 -1.32725,3.92302 -3.03767,7.82291 -3.80093,8.66644 -0.76325,0.84352 -2.34884,3.78368 -3.52352,6.53368 -1.17467,2.75 -3.17756,6.125 -4.45085,7.5 -1.27329,1.375 -3.56048,4.525 -5.08265,7 -5.06403,8.23397 -12.10907,15.44769 -19.0518,19.50795 -3.72483,2.17836 -8.99319,6.21772 -11.70747,8.97636 -2.71428,2.75863 -6.12291,5.80022 -7.57473,6.7591 -5.12064,3.382 -15.14049,1.36328 -15.13918,-3.05011 10e-4,-3.70226 10.61868,-28.23309 15.01615,-34.6933 3.62691,-5.3282 7.33874,-14.11595 6.52116,-15.43882 C 563.1771,254.47753 560.24067,254 557.01241,254 550.48747,254 548,252.46226 548,248.42857 c 0,-1.33571 0.95379,-3.38236 2.11954,-4.54811 1.74171,-1.74171 2.88553,-2.01455 6.41652,-1.53057 3.57244,0.48966 5.28061,0.0644 10.13046,-2.5223 9.14209,-4.87589 11.75033,-7.30857 14.21712,-13.26014 1.7271,-4.16695 3.44469,-6.33415 7.10304,-8.96241 2.65381,-1.90658 7.10607,-6.31017 9.89391,-9.78577 2.78784,-3.4756 5.75518,-7.10677 6.5941,-8.06927 1.81754,-2.08528 6.40959,-2.28632 8.99761,-0.39391 1.79239,1.31063 1.77203,1.56233 -0.60732,7.50932 -2.41688,6.04079 -6.57814,12.33022 -20.19024,30.51602 -3.75389,5.01522 -7.73623,10.87603 -8.84964,13.02404 -1.11341,2.14801 -3.81395,6.16944 -6.0012,8.93652 -3.55404,4.4962 -16.8239,29.55958 -16.8239,31.77606 0,0.48507 0.96062,0.88195 2.1347,0.88195 3.08149,0 20.42547,-17.26997 23.60071,-23.5 1.40159,-2.75 3.56882,-6.35 4.81607,-8 1.95338,-2.58415 9.47833,-16.72807 20.74908,-39 1.66997,-3.3 4.0516,-7.35 5.29251,-9 1.2409,-1.65 3.67206,-5.7 5.40256,-9 5.1148,-9.75371 8.59301,-12.13003 14.45957,-9.87882 2.30683,0.88522 4.5448,5.68754 4.5448,9.75243 0,7.87489 11.3197,14.88273 25.62358,15.86314 5.18601,0.35545 9.45486,1.27278 12.02522,2.58408 5.70311,2.90951 6.71954,4.47421 5.96632,9.18459 -0.46132,2.88496 -0.28825,3.99644 0.62306,4.00128 1.76493,0.009 24.0172,-23.30866 28.76689,-30.14467 2.15451,-3.10088 7.19726,-8.98145 11.20611,-13.06793 4.00885,-4.08649 9.10063,-9.4244 11.31506,-11.86204 2.21444,-2.43763 6.96162,-7.14353 10.54929,-10.45755 3.58767,-3.31402 8.44896,-8.48902 10.80287,-11.5 5.65695,-7.23603 18.39319,-18.61349 28.59036,-25.54015 6.60809,-4.4887 8.86952,-5.52048 11.52719,-5.25929 5.36617,0.52737 7.44522,4.31417 7.4734,13.61208 0.022,7.25877 -0.27694,8.33101 -5.07766,18.21285 -2.80557,5.775 -7.35297,13.2 -10.10534,16.5 -2.75237,3.3 -5.76149,7.47637 -6.68694,9.28082 -0.92546,1.80445 -5.38751,7.20445 -9.91569,12 -10.18958,10.79125 -31.90657,37.24407 -43.44941,52.92445 -2.34613,3.1871 -6.55072,8.71973 -9.34353,12.29473 -5.32074,6.81092 -9.38922,13.8349 -8.51812,14.706 0.28171,0.2817 1.7756,-0.36263 3.31976,-1.43184 1.54417,-1.06922 4.83258,-2.9049 7.30758,-4.0793 2.475,-1.17439 7.425,-4.55684 11,-7.51654 C 743.90988,256.30193 756.21786,249 759.74147,249 c 3.72538,0 7.2646,3.32018 7.23683,6.78896 -0.0119,1.49107 -1.63492,7.21104 -3.60663,12.71104 -1.9717,5.5 -4.63604,12.925 -5.92074,16.5 -1.2847,3.575 -3.48672,8.71377 -4.89338,11.41948 -2.97624,5.72484 -3.15109,7.74504 -0.95975,11.08943 1.4908,2.27526 1.45651,2.66714 -0.51209,5.8524 -1.16043,1.87762 -2.81454,3.99868 -3.6758,4.71346 -0.86126,0.71478 -2.63495,3.40921 -3.94153,5.98763 -3.08046,6.079 -7.59848,7.90297 -10.59594,4.2777 z m -67.34987,-69.71484 c 3.40335,-3.36889 8.16554,-7.86875 10.58266,-9.99968 2.81984,-2.48596 3.92599,-4.04582 3.08666,-4.3527 -0.71947,-0.26306 -4.15256,2.15543 -7.62911,5.37442 -3.47655,3.21898 -8.1349,7.49411 -10.35189,9.50029 -2.217,2.00617 -4.55546,4.62773 -5.19659,5.82569 -1.09616,2.0482 -1.0319,2.10651 1.07735,0.97767 1.23366,-0.66024 5.02758,-3.9568 8.43092,-7.32569 z M 80.5,326.26724 c -3.525687,-0.88277 -7.686349,-4.46899 -9.094308,-7.83871 -2.246053,-5.37556 2.787394,-21.0966 13.2195,-41.28865 4.648798,-8.99806 9.559912,-17.99002 10.913584,-19.98213 C 96.892449,255.16564 98,253.03271 98,252.4179 c 0,-0.6148 1.331883,-2.95643 2.95974,-5.20363 1.62786,-2.24719 3.6467,-5.72993 4.48632,-7.73942 0.83962,-2.0095 2.6744,-5.01773 4.07728,-6.68496 1.40289,-1.66723 3.17947,-4.53619 3.94796,-6.37545 0.7685,-1.83926 3.684,-6.09191 6.4789,-9.45033 2.79491,-3.35841 6.02691,-7.98674 7.18223,-10.28516 1.15533,-2.29842 2.72596,-4.89247 3.49029,-5.76455 0.76433,-0.87208 2.69258,-4.24708 4.28499,-7.5 1.59241,-3.25292 4.77301,-7.7144 7.06799,-9.9144 2.29498,-2.2 5.70648,-6.72924 7.58109,-10.06498 1.87462,-3.33573 6.71429,-9.63573 10.75483,-14 4.04054,-4.36426 9.95148,-11.47039 13.13543,-15.79139 3.18396,-4.32101 8.77339,-11.03037 12.42098,-14.90971 8.90756,-9.4735 31.49968,-29.284891 37.11159,-32.543743 2.48621,-1.44375 7.39283,-5.047885 10.90361,-8.009189 6.45817,-5.447402 13.08047,-8.882675 27.61677,-14.32601 4.4,-1.647646 9.35,-3.717317 11,-4.599269 13.89521,-7.427212 15.22439,-8.39986 20.88383,-15.282026 C 299.5599,46.463281 306.13386,41 308.99505,41 311.30515,41 314,44.170644 314,46.888601 c 0,1.312633 -2.10692,4.458879 -5.11798,7.642626 -5.91086,6.24987 -6.13474,9.17521 -0.61662,8.057345 9.46593,-1.917616 14.30394,-1.848924 18.44138,0.261839 2.25729,1.151584 5.02048,3.258688 6.14041,4.682453 2.61337,3.322358 4.54303,12.606747 3.7145,17.871992 -1.75704,11.165897 -15.30264,43.568534 -21.08726,50.443164 -1.33908,1.59141 -3.29973,4.91151 -4.35699,7.378 -1.18497,2.76442 -5.45666,8.08805 -11.13675,13.87926 -5.06795,5.1671 -10.58085,11.80336 -12.25089,14.74725 -1.83212,3.2296 -8.52834,10.75567 -16.88312,18.97544 C 263.23101,198.32058 257,205.19224 257,206.09833 c 0,0.90609 0.91261,3.71055 2.02803,6.23213 5.23622,11.83735 3.09661,27.71232 -6.96396,51.66954 -9.33885,22.23859 -11.5854,30.01235 -10.66923,36.91877 0.78272,5.90045 -0.64174,9.42831 -5.43565,13.46211 -5.17453,4.35409 -13.97049,2.65963 -13.95133,-2.68758 0.008,-2.19539 4.83129,-22.48901 6.85167,-28.82704 0.59018,-1.85144 2.48715,-7.86626 4.21548,-13.36626 1.72833,-5.5 4.2831,-12.7 5.67727,-16 8.00164,-18.93987 8.08628,-25.21693 0.50804,-37.6751 -5.4919,-9.02835 -4.30813,-11.32599 11.46795,-22.25877 7.55914,-5.23846 24.26065,-21.62039 28.10389,-27.56613 0.88878,-1.375 4.59281,-6.1 8.23118,-10.5 13.78322,-16.66853 26.44588,-41.89827 29.95929,-59.692425 2.92584,-14.818357 -3.56887,-26.073726 -14.02594,-24.307016 -6.10451,1.03135 -11.73409,5.330246 -15.71376,11.999441 -1.96919,3.3 -5.24062,8.025 -7.26986,10.5 -2.02923,2.475 -4.93972,6.525 -6.46775,9 -1.52804,2.475 -4.29375,6.08672 -6.14604,8.02604 -1.85228,1.93932 -4.88383,6.43932 -6.73678,10 -7.78001,14.95033 -9.76469,18.45658 -11.5543,20.41253 -1.03736,1.13379 -2.76335,3.90792 -3.83553,6.16474 -1.07219,2.25682 -4.42099,7.20682 -7.44179,11 -3.0208,3.79318 -6.5517,8.69669 -7.84644,10.89669 -1.29474,2.2 -3.36066,5.23014 -4.59093,6.73365 -1.23028,1.5035 -3.25676,4.77578 -4.5033,7.27172 -1.24653,2.49595 -5.45323,8.24776 -9.34822,12.78181 -3.89499,4.53405 -8.579,10.71177 -10.4089,13.72827 -1.8299,3.0165 -5.73855,7.95955 -8.68588,10.98455 -2.94732,3.025 -6.06344,7.19643 -6.9247,9.26984 -0.86126,2.07341 -4.62869,7.02341 -8.37205,11 -3.74337,3.97659 -8.32115,9.48016 -10.17285,12.23016 -1.8517,2.75 -8.12869,9.95 -13.94887,16 -5.82018,6.05 -11.98044,13.4882 -13.68946,16.52934 -3.68201,6.552 -25.91826,27.76978 -31.33928,29.90388 -1.925,0.75781 -5.68844,3.17759 -8.363196,5.37729 C 93.836028,326.081 86.915452,327.87354 80.5,326.26724 z m 14.60921,-15.11243 c 2.414935,-2.11485 6.19079,-4.97766 8.39079,-6.36179 4.99876,-3.14497 36.41248,-34.91106 55.17413,-55.79302 2.22369,-2.475 5.16982,-6.3 6.54694,-8.5 1.37712,-2.2 4.48736,-6.25 6.91163,-9 2.42428,-2.75 6.06,-7.54116 8.07938,-10.64701 2.01937,-3.10586 6.15367,-8.42873 9.18731,-11.8286 3.03365,-3.39987 5.82368,-7.15187 6.20008,-8.33778 0.82751,-2.60726 7.2689,-11.41491 10.37523,-14.18661 1.23281,-1.1 3.3646,-4.21484 4.73732,-6.92186 1.37272,-2.70703 4.70631,-7.80586 7.40799,-11.33074 2.70167,-3.52489 5.63035,-7.83505 6.50817,-9.57814 0.87783,-1.74309 3.26836,-5.19426 5.3123,-7.66926 3.25616,-3.94287 6.05952,-9.56356 6.05952,-12.14922 0,-1.78621 -1.94656,-0.67569 -7.71115,4.39922 -11.71154,10.31037 -18.20023,15.19116 -21.89722,16.47109 -2.07817,0.71948 -6.75186,4.19482 -10.47481,7.78902 -6.59271,6.36473 -8.92176,7.73414 -8.91185,5.23989 0.008,-1.90427 3.35465,-5.44521 16.99503,-17.97933 13.74919,-12.63412 50.97697,-51.64825 56.07971,-58.77067 1.77317,-2.475 4.73063,-6.188796 6.57212,-8.252881 1.84149,-2.064084 3.34817,-4.426584 3.34817,-5.25 0,-2.426421 -4.20238,-1.754634 -9.31793,1.489551 -2.59022,1.642669 -6.41335,3.855917 -8.49585,4.91833 -2.08251,1.062413 -7.759,4.893412 -12.61444,8.51333 -4.85544,3.61992 -9.1739,6.58167 -9.59658,6.58167 -3.60139,0 -36.97724,31.59774 -48.06042,45.5 -3.50778,4.4 -10.3407,12.43893 -15.18427,17.8643 -4.84356,5.42536 -9.75301,11.72536 -10.90989,14 -1.15687,2.27463 -4.08479,6.34413 -6.50649,9.04332 -2.42169,2.69919 -6.00332,7.63801 -7.95916,10.97515 -1.95584,3.33714 -4.66076,7.38036 -6.01092,8.98493 -1.35016,1.60458 -3.60808,5.21576 -5.01759,8.02486 -1.40952,2.80909 -4.00987,6.90744 -5.77856,9.10744 -1.7687,2.2 -4.49167,6.25 -6.05105,9 -1.55939,2.75 -3.44502,5.72249 -4.1903,6.60554 -1.25024,1.48135 -4.81439,8.06567 -10.97244,20.27019 -1.35308,2.68166 -3.262,6.05666 -4.242044,7.5 -4.376884,6.44602 -8.9291,15.02848 -10.408893,19.62427 -5.412834,16.81061 -5.670358,18.64558 -3.126469,22.27749 2.216532,3.16455 4.535909,2.77055 9.552506,-1.62268 z M 478.5,318.80505 c -2.71212,-1.53794 -3.46662,-2.82832 -3.48469,-5.9596 -0.0191,-3.31209 6.83027,-20.50261 10.1947,-25.58661 1.37767,-2.08179 2.84086,-4.90418 3.25155,-6.27196 0.41068,-1.36779 1.30611,-3.38688 1.98984,-4.48688 0.68374,-1.1 4.01285,-8.075 7.39803,-15.5 5.462,-11.98025 11.64719,-24.66957 14.86671,-30.5 2.65818,-4.81387 19.11654,-39.21525 19.73488,-41.25 1.60129,-5.2693 -3.73809,-1.54642 -20.43746,14.25 -22.57021,21.34981 -49.03304,47.51837 -73.04989,72.23755 -23.3493,24.0321 -26.82791,27.23901 -29.55868,27.25 -4.01832,0.0162 -6.60499,-2.88746 -6.60499,-7.41434 0,-2.93938 1.0213,-4.66288 5.95122,-10.04301 3.27316,-3.57209 7.34946,-9.11808 9.05842,-12.32444 1.70897,-3.20635 4.84931,-7.82683 6.97854,-10.26774 2.12923,-2.44091 4.91955,-6.55921 6.20072,-9.15177 1.28117,-2.59256 5.09838,-7.76756 8.48268,-11.5 3.38431,-3.73244 7.68454,-9.03625 9.55607,-11.78625 1.87153,-2.75 6.00594,-7.80115 9.18757,-11.22478 3.18163,-3.42362 5.78478,-6.66937 5.78478,-7.21276 0,-0.5434 3.72732,-5.61725 8.28294,-11.27523 4.55562,-5.65798 10.41633,-13.21223 13.02381,-16.78723 2.60748,-3.575 7.54266,-10.17606 10.96706,-14.66901 3.42441,-4.49296 8.70119,-11.83428 11.72619,-16.31404 3.025,-4.47977 7.57604,-10.94471 10.11342,-14.36654 2.53739,-3.42183 5.33932,-7.62524 6.22653,-9.34091 0.88721,-1.71567 4.22967,-6.42468 7.42769,-10.46445 3.19802,-4.03978 6.39476,-8.7631 7.10388,-10.49627 0.70911,-1.73318 2.42026,-4.20818 3.80255,-5.5 1.38229,-1.29183 4.22681,-5.276449 6.32116,-8.854711 2.09435,-3.578262 4.77367,-7.379936 5.95405,-8.448165 C 557.76676,82.996115 567,64.502833 567,61.409472 567,59.754098 566.43551,59 565.19634,59 561.89626,59 553.56891,63.881743 548,69.081021 c -3.025,2.824215 -7.99313,7.005429 -11.04028,9.291586 -12.82999,9.625825 -46.4167,40.381003 -55.83242,51.125453 -1.44502,1.64893 -4.10464,4.34893 -5.91028,6 -13.37141,12.22675 -32.1483,31.66424 -34.21702,35.42082 -4.85226,8.8112 -13.8747,7.68665 -11.58312,-1.44371 0.32669,-1.30165 3.35964,-4.49476 6.7399,-7.09581 3.38025,-2.60104 13.48159,-11.96296 22.44743,-20.80426 8.96584,-8.84131 18.46023,-18.11213 21.09866,-20.60183 2.63842,-2.4897 8.17213,-8.30035 12.29713,-12.91257 11.92457,-13.333006 11.34299,-12.797215 44,-40.535782 3.575,-3.036573 8.76206,-7.497398 11.52681,-9.912944 2.76475,-2.415547 7.27154,-5.474798 10.01511,-6.798336 2.74356,-1.323538 6.33149,-3.398735 7.97318,-4.61155 1.6417,-1.212814 5.56714,-2.746227 8.72321,-3.407585 5.30776,-1.112247 5.94551,-1.045445 8.5,0.890357 2.37265,1.798009 2.73884,2.742944 2.59945,6.70786 -0.18081,5.143348 -5.51276,16.489697 -12.9734,27.60728 -8.60485,12.822654 -17.53721,25.53584 -19.32165,27.5 -0.99936,1.1 -2.83209,4.025 -4.07276,6.5 -1.24066,2.475 -3.76644,6.2685 -5.61285,8.43 -1.8464,2.1615 -3.3571,4.47449 -3.3571,5.13999 0,0.6655 -1.94064,3.847 -4.31253,7.07 -2.37189,3.22301 -5.62803,8.10567 -7.23587,10.85036 -1.60785,2.74469 -5.5788,7.91969 -8.82435,11.5 -3.24555,3.58031 -8.07197,9.72599 -10.72538,13.65707 -2.65341,3.93109 -7.2263,10.00609 -10.16197,13.5 -2.93568,3.49392 -6.51576,8.37758 -7.95574,10.85258 -1.43997,2.475 -5.16055,7.65 -8.26795,11.5 -6.26771,7.76556 -11.0463,15.30325 -10.22335,16.12619 1.20016,1.20016 5.93545,-2.6588 20.29669,-16.5405 27.09185,-26.18723 37.81416,-36.06592 43.807,-40.3603 3.24311,-2.32397 10.26555,-8.05039 15.60543,-12.72539 13.94339,-12.20727 23.91704,-20.29252 28.956,-23.47347 2.41343,-1.52354 6.4477,-4.68106 8.96504,-7.01671 2.51734,-2.33566 6.15198,-5.03324 8.07698,-5.99462 4.11673,-2.05598 12.28907,-8.00853 20,-14.567543 5.93524,-5.048589 24.30628,-17.54428 30,-20.40553 1.925,-0.967364 5.975,-3.649013 9,-5.95922 3.025,-2.310206 12.25,-7.82323 20.5,-12.251163 11.7611,-6.312408 17.74775,-8.836863 27.72538,-11.691265 C 719.84958,45.456784 724.134,45.134 727,48 c 5.11327,5.113266 0.27134,11.189961 -17.5,21.962764 -3.85,2.333831 -9.025,5.912256 -11.5,7.952055 -6.72563,5.543001 -13.17136,9.702382 -16.16595,10.431762 -1.46628,0.357134 -4.98676,2.630338 -7.8233,5.051566 -5.57557,4.759217 -19.57468,12.371253 -20.6937,11.252233 -1.22135,-1.22134 6.82072,-8.463094 15.10998,-13.606286 C 675.29939,86.780032 695,69.392506 695,67.5911 c 0,-1.925091 -11.50292,2.277999 -16.73406,6.114513 -1.77874,1.304523 -4.93507,2.972008 -7.01407,3.705522 -2.079,0.733514 -5.99927,2.741082 -8.71172,4.461263 C 659.82771,83.592579 657.0276,85 656.31768,85 c -0.70991,0 -4.28874,2.543269 -7.95294,5.65171 -3.6642,3.10844 -9.40776,7.271438 -12.76346,9.251107 -9.408,5.550173 -34.78782,24.629183 -45.48592,34.193573 -5.28845,4.72801 -11.64036,9.86507 -14.11536,11.41569 -6.99568,4.38287 -13.58478,10.36829 -19.54237,17.75194 -4.64601,5.75812 -5.46416,7.39396 -5.50152,11 -0.0241,2.32979 -0.653,5.81098 -1.39747,7.73598 -4.23885,10.96063 -6.39002,15.83496 -12.5778,28.5 -3.76201,7.7 -8.0288,16.925 -9.48177,20.5 -1.45297,3.575 -4.68947,10.75456 -7.19223,15.95457 -2.50276,5.20001 -5.58583,12.17501 -6.85128,15.5 -1.26544,3.32499 -3.68563,9.07305 -5.37818,12.77347 -3.60844,7.8891 -3.81425,9.77196 -1.06814,9.77196 1.33508,0 3.04483,-1.68303 5.09561,-5.01599 3.35747,-5.45658 5.39368,-6.98401 9.31036,-6.98401 1.9135,0 2.71016,0.65133 3.20418,2.61967 0.5668,2.2583 -0.19152,3.46535 -5.49707,8.75 -3.38501,3.37168 -11.5397,11.94384 -18.12153,19.04925 -15.27243,16.48733 -17.66897,18.12609 -22.50079,15.38613 z M 296.90231,286.75 c -5.55341,-5.94748 -7.23289,-10.45981 -5.96358,-16.02257 1.24434,-5.45332 3.50782,-8.38967 7.47688,-9.69958 4.60572,-1.52002 6.59294,-0.38461 10.90802,6.23235 5.37555,8.24312 7.13136,13.83114 5.70442,18.1548 -1.49384,4.5264 -4.41632,6.585 -9.34833,6.585 -3.38577,0 -4.49448,-0.66315 -8.77741,-5.25 z M 801.5,288.85528 c -2.86975,-1.6994 -3.46743,-2.89602 -3.48469,-6.97667 -0.0119,-2.80798 0.82699,-4.53366 3.73469,-7.6829 5.16812,-5.59743 7.51401,-6.08554 11.25724,-2.34232 4.0779,4.0779 4.176,9.80252 0.24276,14.16556 -3.08767,3.42507 -8.5352,4.74005 -11.75,2.83633 z M 621,128.17758 C 621,124.27205 643.04253,108 648.33305,108 c 4.62274,0 -2.46737,8.21168 -8.17191,9.46461 -1.8607,0.40868 -5.05763,2.8963 -8.47642,6.59577 C 627.69247,128.38038 625.48734,130 623.59786,130 621.75105,130 621,129.47313 621,128.17758 z"
     id="path3051"
     style="fill:#000000" />
</svg>
