<?xml version="1.0" encoding="UTF-8"?>
<svg version="1.0" xmlns="http://www.w3.org/2000/svg" width="684" height="392" >
<path fill="#231F20" d="M124.349,150.872c-1.792-0.179-6.5-0.734-5.999-3.36c0.211-1.105,2.202-2.454,3.063-3.293 c2.68-2.612,5.278-5.31,7.885-7.994c9.712-10.001,19.311-20.113,28.898-30.233c22.805-24.07,45.562-48.209,67.791-72.814 c4.716-5.221,9.676-10.382,13.895-16.025c0.954-1.275-2.955-0.332-3.528,0.176c-12.47,11.051-20.939,28.167-27.868,42.897 c-21.033,44.718-29.592,94.75-35.358,143.455c-1.224,10.335-2.687,21.077-2.066,31.515c0.217,3.655,4.564,2.602,4.173-0.563 c-0.543-4.395-3.092-7.097-5.473-10.571c-5.742-8.38-9.292-18.707-12.946-28.096c-12.415-31.907-22.607-65.619-26.965-99.646 c-1.725-13.47-2.945-28.376,1.501-41.466c2.337-6.881,6.911-11.243,13.222-14.792c10.601-5.961,21.729-2.001,29.955,5.826 c21.617,20.567,17.424,51.227,15.262,77.916c-1.053,13.009-2.898,27.534,1.14,40.215c2.802,8.798,12.424,16.963,11.273,27.032 c-0.133,1.167,3.71,0.4,3.827-0.619c0.648-5.671-2.78-11.992-5.334-16.738c-2.302-4.277-5.121-7.838-6.458-12.559 c-1.341-4.733-1.567-9.792-1.675-14.68c-0.499-22.578,5.828-45.706,2.377-68.175c-2.633-17.144-13.74-38.151-31.962-42.402 c-13.302-3.103-29.491,5.346-34.79,17.844c-5.025,11.853-4,26.311-2.757,38.784c1.739,17.444,5.662,34.677,10.209,51.58 c4.439,16.499,9.722,32.787,15.729,48.78c3.905,10.396,7.902,21.148,13.582,30.737c2.3,3.884,5.382,6.627,6.288,11.254 c0.109,0.56,0.184,1.128,0.208,1.697c0.055,1.307,4.042,0.778,3.679-0.645c-0.471-1.848-0.297-3.991-0.283-5.871 c0.122-15.644,2.502-31.364,4.747-46.808c4.073-28.034,9.109-55.938,17.346-83.079c6.789-22.369,15.704-44.443,28.264-64.236 c4.152-6.543,8.82-13.568,14.681-18.763c-1.176,0.059-2.352,0.117-3.528,0.176c-5.464,7.307-11.986,13.942-18.116,20.679 c-10.932,12.015-21.998,23.907-33.09,35.773c-20.659,22.101-41.345,44.205-62.505,65.828c-2.001,2.045-3.975,4.153-6.108,6.064 c-4.786,4.287,0.804,6.481,5.353,6.937C122.822,152.704,126.369,151.074,124.349,150.872L124.349,150.872 M680.285,221.19c-12.838,4.922-25.607,10.049-38.644,14.431c-9.858,3.313-20.734,7.016-31.278,6.393 c-10.876-0.642-11.006-9.346-10.449-18.102c0.293-4.617,1.808-12.056-1.793-15.883c-5.145-5.468-8.967-12.256-7.867-20.039 c0.644-4.551,3.372-8.945,6.938-11.781c3.833-3.049,5.434-0.312,5.571,3.553c0.508,14.178-2.273,29.771-8.571,42.492 c-3.491,7.05-9.121,13.75-17.255,15.136c-5.568,0.948-10.108-0.449-13.389-5c-7.377-10.237-7.112-26.403-7.073-38.354 c0.062-18.455,2.435-36.93,5.722-55.063c3.228-17.8,7.528-35.557,13.759-52.559c5.202-14.197,11.546-27.413,26.212-33.686 c13.962-5.972,32.167-5.158,45.472,2.176c5.183,2.856,9.701,7.249,10.993,13.187c1.575,7.242-3.311,14.108-7.996,19.045 c-13.047,13.746-32.105,21.908-49.511,28.465c-34.13,12.86-71.305,20.601-107.619,23.834c-4.353,0.387-10.09-0.342-13.922,2.02 c-4.509,2.778-2.848,8.099-0.841,11.986c3.756,7.274,9.214,13.63,14.472,19.847c4.852,5.738,10.843,11.314,13.507,18.48 c3.436,9.24,2.806,23.53-5.513,30.095c-12.513,9.875-17.819-12.961-18.143-20.794c-0.346-8.4,2.246-17.244,4.932-25.105 c1.235-3.613,2.702-7.157,4.469-10.544c0.703-1.348,1.499-2.654,2.435-3.854c0.327-0.421,0.701-0.828,1.111-1.17 c0.246-0.206-0.261-0.371,0.335,0.431c2.101,2.826,1.789,8.477,1.833,11.684c0.07,5.132-1.184,10.251-2.97,15.026 c-3.59,9.6-10.057,18.005-17.413,25.023c-11.059,10.55-34.514,24.305-43.311,4.133c-3.973-9.109-2.983-20.016-1.727-29.589 c1.341-10.217,3.854-20.241,6.033-30.298c1.356-6.261,3.203-13.24,1.884-19.668c-0.824-4.017-4.984-2.196-6.715,0.058 c-4.926,6.413-7.787,14.917-11.006,22.238c-5.028,11.441-10.291,22.835-14.807,34.49c-7.536,19.455-13.183,39.675-18.554,59.814 c-4.303,16.136-8.336,32.363-11.931,48.674c1.3-0.114,2.601-0.229,3.9-0.344c2.061-40.853,14.225-81.343,26.852-119.992 c10.756-32.917,22.917-65.555,36.992-97.208c1.494-3.359,3.002-6.724,4.688-9.992c0.246-0.477,0.962-1.694,0.914-1.634 c-1.887,2.336-3.167-1.417-3.418,0.387c-0.107,0.773-0.284,1.538-0.452,2.3c-3.315,15.035-8.425,29.835-13.502,44.342 c-6.603,18.864-13.889,37.905-24.084,55.16c-6.694,11.331-25.356,35.758-38.817,19.179c-6.94-8.547-8.187-21.837-8.713-32.355 c-0.397-7.939,0.664-15.954,1.979-23.764c3.256-19.324,9.087-38.252,15.446-56.751c4.976-14.473,10.411-28.852,16.679-42.819 c0.771-1.721,1.566-3.432,2.416-5.115c0.261-0.516,0.533-1.026,0.821-1.527c1.061-1.843-3.037,1.984-3.055-0.661 c0.028,4.143-2.226,9.255-3.228,13.237c-12.278,48.821-27.356,98.239-52.6,142.076c-4.64,8.058-9.86,16.96-17.317,22.765 c-5.311,4.136-9.091,1.112-11.455-4.37c-7.764-18.01-1.73-42.179,5.496-59.446c0.961-2.296,1.994-4.847,3.599-6.783 c-0.79,0.953-2.119-1.122-2.031,1.393c0.049,1.413-0.04,2.833-0.13,4.242c-0.545,8.512-2.293,16.999-4.552,25.207 c-2.813,10.217-6.968,20.505-13.715,28.783c-3.93,4.822-12.275,12.619-16.013,3.665c-3.629-8.693-1.608-20.107-0.205-29.044 c2.13-13.555,5.449-27.762,12.045-39.883c6.16-11.319,16.156-17.202,28.266-11.76c1.729,0.777,3.639,1.272,5.2,2.378 c1.822,1.292-5.398,4.724-5.975,5.021c-13.891,7.163-28.071,9.991-43.581,7.692c-5.747-0.852-11.379-2.524-16.767-4.673 c-3.411-1.36-7.007-4.557-10.631-5.143c-7.185-1.161-9.817,7.394-11.285,12.75c-3.687,13.449-4.159,27.811-5.719,41.604 c-0.655,5.791-1.443,11.578-2.699,17.273c-0.833,3.777-1.952,8.885-5.218,11.382c-5.812,4.445-8.147-17.15-8.376-19.386 c-1.276-12.436-1.104-25.047-0.856-37.529c0.034-1.71,0.544-5.089-1.023-6.339c-1.688-1.348-3.749,0.767-4.397,2.158 c-3.597,7.719-4.683,17.228-6.242,25.504c-2.132,11.316-4.001,22.802-4.635,34.312c-0.372,6.761-0.123,13.449-1.676,20.099 c-0.459,1.967-1.164,3.89-2.241,5.604c-0.309,0.491-1.202,1.097-0.569,0.784c-2.378,1.174-0.235,3.039,1.664,2.102 c2.854-1.408,4.007-5.185,4.821-7.972c2.544-8.71,1.524-18.104,2.366-27.06c1.527-16.238,4.324-32.781,8.676-48.511 c0.493-1.781,0.973-3.682,1.908-5.293c-1.231,2.122-3.216-0.875-2.795,0.419c0.096,0.293,0.122,0.617,0.161,0.92 c0.214,1.643,0.085,3.363,0.052,5.012c-0.234,11.827-0.2,23.692,0.797,35.487c0.564,6.678,0.873,16.899,6.357,21.727 c3.985,3.508,9.631-0.69,11.751-4.118c5.219-8.438,5.418-20.854,6.459-30.372c1.477-13.505,2.11-27.474,6.025-40.562 c0.665-2.222,1.594-4.503,3.026-6.35c1.586-2.045,3.356-0.408,5.029,0.59c4.034,2.407,8.527,4.096,12.982,5.524 c11.233,3.602,23.752,4.774,35.388,2.666c6.694-1.213,12.791-3.507,18.966-6.306c3.654-1.657,7.927-3.426,10.896-6.232 c3.288-3.108,0.511-5.127-2.657-6.445c-8.41-3.498-16.708-5.748-25.149-0.6c-7.171,4.373-11.609,11.823-14.918,19.325 c-5.362,12.162-8.202,25.888-9.98,39.003c-1.098,8.094-3.89,36.171,12.256,30.663c7.342-2.505,12.783-9.761,16.66-16.094 c5.179-8.461,8.323-18.192,10.686-27.77c1.864-7.554,3.231-15.404,3.466-23.195c0.088-2.931-0.862-7.402-4.646-4.071 c-3.995,3.516-5.832,10.865-7.41,15.668c-3.311,10.079-5.519,20.521-5.983,31.137c-0.388,8.851,0.868,32.912,15.268,29.77 c5.929-1.293,10.635-7.148,14.152-11.632c7.115-9.069,12.617-19.438,17.834-29.67c12.518-24.55,22.144-50.416,30.478-76.647 c6.078-19.134,11.358-38.517,16.166-58.007c0.317-1.287,3.029-7.589,0.801-8.293c-2.762-0.873-4.063,2.632-4.971,4.482 c-5.917,12.05-10.621,24.79-15.211,37.386c-6.56,17.999-12.41,36.328-16.662,55.018c-4.163,18.294-6.253,36.768-1.674,55.224 c1.804,7.27,5.232,15.283,12.085,19.091c5.473,3.042,12.003,1.705,17.306-0.973c15.597-7.877,24.745-26.245,31.803-41.325 c8.516-18.193,15.251-37.251,21.344-56.373c2.277-7.148,4.435-14.341,6.36-21.592c0.452-1.699,2.88-7.392,1.662-9.118 c-2.981-4.227-8.542,10.256-8.922,11.099c-13.7,30.364-25.37,61.785-35.91,93.367c-13.53,40.545-26.713,83.16-28.88,126.124 c-0.101,1.977,3.564,1.185,3.9-0.344c6.852-31.085,14.784-62.119,24.761-92.352c7.19-21.791,16.653-43.098,26.584-63.766 c1.326-2.761,2.667-5.684,4.543-8.126c1.203-1.567-1.055-0.941-0.745-0.048c0.46,1.329,0.446,2.902,0.466,4.282 c0.118,8.049-2.564,16.396-4.296,24.18c-3.812,17.132-10.098,40.207,0.271,56.233c8.653,13.374,27.114,6.007,37.517-0.69 c15.335-9.873,28.652-26.803,31.141-45.209c0.58-4.295,1.624-16.088-3.274-18.629c-4.159-2.156-7.72,3.567-9.35,6.417 c-8.195,14.33-13.122,34.72-7.744,50.69c2.267,6.73,8.131,13.021,15.831,11.296c8.421-1.887,12.849-9.185,14.546-17.147 c1.834-8.607,0.213-18.622-5.109-25.713c-4.552-6.063-9.835-11.589-14.608-17.478c-4.427-5.461-10.191-11.973-11.483-19.112 c-1.027-5.676,7.671-4.419,11.266-4.707c35.281-2.818,71.134-10.575,104.524-22.179c17.673-6.142,35.42-13.806,50.232-25.434 c9.562-7.506,20.857-19.78,13.927-32.574c-6.11-11.279-22.191-14.993-33.854-15.659c-14.618-0.834-30.154,3.34-40.62,13.969 c-9.621,9.772-14.018,25.381-17.965,38.111c-5.521,17.801-9.353,36.158-12.09,54.581c-2.557,17.211-4.225,34.847-3.199,52.255 c0.596,10.121,1.473,24.372,9.712,31.654c9.329,8.246,24.073,1.231,30.699-6.997c9.317-11.57,12.23-28.292,13.231-42.706 c0.244-3.519,1.607-11.808-1.901-14.205c-4.997-3.416-11.266,2.159-14.121,5.89c-5.603,7.319-5.149,15.854-1.151,23.732 c1.803,3.551,6.166,6.446,6.835,10.379c1.393,8.18-2.85,17.377,0.896,25.124c2.746,5.68,9.628,6.617,15.246,6.611 c10.161-0.011,20.488-3.51,30.018-6.658c12.36-4.084,24.46-8.944,36.603-13.625c1.015-0.391,2.029-0.78,3.045-1.169 C684.438,222.337,682.217,220.45,680.285,221.19L680.285,221.19 M205.934,229.349c0.426-0.664,0.926-1.261,1.46-1.841c2.263-2.458,3.468,0.474,4.316,2.664 c0.504,1.302,0.777,2.751,1.163,4.098c0.766,2.67,1.674,5.296,2.685,7.882c3.331,8.524,7.927,16.535,13.182,24.009 c20.127,28.625,50.5,49.067,81.33,64.583c49.732,25.028,104.535,39.952,160.435,37.627c42.38-1.762,85.818-13.057,122.212-35.231 c10.921-6.653,21.933-14.669,29.524-25.12c5.754-7.92,8.361-18.916,11.486-28.057c11.665-34.129,18.565-70.581,13.954-106.659 c-2.753-21.538-10.254-42.205-22.052-60.43c-12.349-19.078-29.818-34.063-47.492-48.047 c-30.657-24.258-65.276-42.863-103.004-53.372C432.124-0.526,386.839-1.709,342.56,1.585 c-45.491,3.385-91.363,10.022-133.866,27.208c-75.477,30.519-135.519,90.59-170.395,163.674 C8.896,254.079-1.991,322.97,0.294,390.837c0.048,1.426,3.918,0.602,3.863-1.035C1.012,296.37,24.109,201.289,82.643,126.959 c25.184-31.98,56.577-58.926,91.941-79.058c37.172-21.16,77.478-32.5,119.585-38.582c49.103-7.092,99.606-10.285,148.789-2.151 c39.403,6.516,76.572,21.379,109.831,43.436c17.581,11.659,34.388,25.057,49.489,39.796 c17.108,16.697,29.634,37.463,36.546,60.324c11.363,37.587,6.457,78.14-4.391,115.224c-3.475,11.878-7.782,23.457-12.091,35.05 c-3.946,10.615-14.438,18.661-23.312,24.99c-34.529,24.629-78.503,36.403-120.303,39.533 c-58.077,4.35-115.345-11.48-166.937-37.445c-30.884-15.542-60.834-36.36-80.666-65.2c-5.518-8.024-10.106-16.73-13.239-25.963 c-1.136-3.348-1.764-7.004-3.362-10.156c-3.039-5.991-9.722-1.524-12.225,2.376C201.25,230.768,205.171,230.539,205.934,229.349 L205.934,229.349z"/>
</svg>