<?xml version="1.0" encoding="UTF-8"?>
<svg version="1.0" xmlns="http://www.w3.org/2000/svg" width="378" height="129" >
<path fill="#231F20" d="M6.901,48.681c-0.815,0.312-1.671,0.505-2.541,0.563c-4.519,0.299,0.713-8.104,1.546-9.51 c2.594-4.373,6.487-8.122,10.069-11.675C24.428,19.675,33.981,11.302,44.66,5.88c2.239-1.137,7.905-3.846,8.102,0.579 c0.111,2.498-1.048,5.15-1.949,7.418c-2.118,5.333-4.576,10.568-7.012,15.763c-3.874,8.261-7.187,15.846-16.076,19.041 c0.284,0.487,0.567,0.975,0.851,1.463c0.627-0.596,2.526-2.267,3.232-1.155c1.155,1.817-0.087,5.548-0.476,7.39 c-0.937,4.438-2.409,8.758-3.424,13.183c-0.893,3.895-3.499,12.663-0.706,16.49c0.658,0.902,2.177,0.03,1.511-0.883 c-1.248-1.711-0.621-5.244-0.461-7.133c0.724-8.567,4.549-16.499,5.447-24.985c0.542-5.122-2.094-8.19-6.359-4.145 c-0.614,0.583,0.014,1.764,0.851,1.463c3.215-1.155,6.041-2.283,8.405-4.854c5.116-5.563,8.078-13.491,11.138-20.252 c2.104-4.646,13.951-27.815-1.407-22.029c-5.897,2.222-11.255,6.292-16.182,10.125c-6.331,4.926-12.349,10.258-17.933,16.019 C7.597,34.136,2.878,39.544,1,46.038c-1.187,4.104,2.072,5.492,5.498,4.61c0.293-0.075,0.585-0.172,0.868-0.28 C8.409,49.969,7.957,48.276,6.901,48.681L6.901,48.681 M31.08,28.828c-1.606,6.948-3.552,13.827-5.65,20.641c-3.417,11.099-7.188,22.984-14.094,32.468 c-0.666,0.914,0.854,1.785,1.511,0.883c6.766-9.29,10.482-20.913,13.917-31.753c2.272-7.169,4.309-14.444,6.003-21.773 C33.021,28.195,31.334,27.729,31.08,28.828L31.08,28.828 M49.277,52.958c-2.552,0.02-5.165,1.063-7.189,2.563c-3.624,2.685-6.246,8.609-4.953,13.082 c1.105,3.824,5.445,0.628,6.987-0.92c3.511-3.523,6.172-8.81,6.03-13.85c-0.032-1.126-1.782-1.129-1.75,0 c0.116,4.11-1.83,8.086-4.323,11.257c-1.219,1.551-5.394,5.952-5.445,1.528c-0.068-5.927,4.43-11.862,10.644-11.91 C50.405,54.699,50.406,52.949,49.277,52.958 M68.265,15.362c-2.65,6.342-5.151,12.749-7.562,19.187c-3.33,8.893-7.339,18.377-8.336,27.901 c-0.072,0.691,0.787,1.049,1.316,0.756c5.84-3.23,11.489-8.127,13.789-14.525c-0.563-0.155-1.125-0.31-1.688-0.465 c-0.808,2.965-2.13,7.25-0.919,10.237c2.079,5.128,9.6-5.736,10.452-6.872c-0.503-0.294-1.007-0.589-1.511-0.883 c-0.938,1.88-6.833,12.56-3.105,13.459c3.815,0.921,10.157-8.871,11.891-10.954c7.643-9.187,15.038-18.867,20.346-29.622 c1.199-2.429,4.87-8.848,2.432-11.493c-2.259-2.45-6.627,4.116-7.498,5.313c-6.273,8.626-10.652,18.946-14.359,28.888 c-2.061,5.527-4.518,12.042-4.222,18.071c0.252,5.145,3.783,0.089,4.457-1.926c4.259-12.73,3.368-27.786,2.598-40.915 c-0.439,0.252-0.878,0.504-1.316,0.756c4.304,2.396,9.545,3.343,14.417,3.127c11.608-0.514,19.369-9.816,23.965-19.598 c0.475-1.011-1.008-1.9-1.512-0.883C111.25,26.448,99.605,48.17,91.568,70.835c0.573,0.077,1.146,0.155,1.719,0.232 c0.068-5.595,3.344-11.378,6.104-16c6.908-11.567,17.484-20.847,26.802-30.444c5.154-5.309,10.114-10.756,14.242-16.916 c0.901-1.346,1.928-2.962,2.092-4.614c0.152-1.529-1.442-1.412-2.277-0.752c-2.001,1.582-3.372,4.374-4.628,6.516 c-9.069,15.467-15.38,32.783-21.612,49.517c-1.742,4.676-3.426,9.373-5.09,14.078c-0.377,1.066,1.313,1.521,1.688,0.465 c6.896-19.496,14.049-39.134,23.48-57.578c1.781-3.483,3.656-6.987,5.973-10.151c0.42-0.573,0.916-1.288,1.532-1.672 c-1.084,0.677-0.439-1.296-1.056,0.373c-1.3,3.52-4.208,6.712-6.504,9.549c-5.351,6.609-11.596,12.514-17.506,18.609 c-8.14,8.396-16.3,16.771-21.504,27.379c-1.714,3.495-3.437,7.671-3.486,11.643c-0.013,1.031,1.399,1.134,1.719,0.232 c7.985-22.517,19.573-44.106,30.155-65.495c-0.504-0.294-1.008-0.589-1.512-0.883c-4.572,9.731-11.846,18.262-23.256,18.767 c-4.236,0.188-8.997-0.846-12.731-2.925c-0.55-0.306-1.356,0.071-1.316,0.756c0.667,11.361,0.823,22.908-1.061,34.171 c-0.435,2.602-1.021,5.216-1.978,7.68c-0.186,0.477-0.496,1.324-0.948,1.641c0.638-0.446,0.425-0.076,0.411-1.374 c-0.073-6.87,3.097-14.233,5.562-20.478c3.767-9.546,8.314-20.469,15.422-28.104c1.75-1.879,2.64-2.052,2.062,0.714 c-0.718,3.434-2.46,6.686-4.085,9.757c-5.862,11.075-13.904,21.128-22.108,30.538c-1.896,2.175-3.959,4.775-6.498,6.243 c-0.387,0.224-0.148-0.069,0-0.85c0.145-0.757,0.396-1.496,0.642-2.224c0.885-2.625,2.066-5.175,3.302-7.652 c0.514-1.029-0.843-1.772-1.511-0.883c-1.844,2.456-3.809,5.335-6.445,7.043c-1.537,0.996-1.079-2.717-1.031-3.257 c0.174-1.951,0.627-3.915,1.142-5.804c0.301-1.103-1.311-1.513-1.688-0.465c-2.136,5.94-7.579,10.488-12.984,13.479 c0.438,0.252,0.877,0.504,1.316,0.756c0.979-9.349,5.027-18.703,8.273-27.437c2.395-6.441,4.912-12.845,7.562-19.187 C70.388,14.786,68.693,14.337,68.265,15.362L68.265,15.362 M166.658,4.206c-11.091,13.087-22.26,26.115-33.218,39.314c-0.715,0.862,0.517,2.107,1.238,1.238 c10.957-13.2,22.126-26.228,33.218-39.314C168.621,4.589,167.389,3.345,166.658,4.206L166.658,4.206 M145.516,29.92c-4.832,3.479-8.821,8.179-11.982,13.184c-1.34,2.122-8.421,15.253-2.067,15.882 c2.906,0.288,5.727-1.668,8.027-3.18c4.538-2.981,8.59-6.841,12.303-10.771c1.069-1.133,4.169-6.195,0.109-4.45 c-3.672,1.577-7.877,6.727-8.033,10.788c-0.119,3.086,2.15,7.407,5.82,5.813c3.56-1.547,5.885-5.608,7.94-8.703 c0.376-0.565,0.751-1.131,1.145-1.683c0.564-0.791-0.721-1.275-1.028,0.069c-0.936,4.101-2.426,8.12-3.711,12.118 c-0.263,0.817,0.884,1.51,1.463,0.852c2.447-2.787,5.067-5.448,7.887-7.857c1.817-1.553,5.525-4.459,4.839,0.069 c-0.377,2.481-1.502,4.788-1.738,7.299c-0.22,2.338,1.901,1.858,3.098,0.841c2.894-2.46,5.112-5.719,7.855-8.351 c0.935-0.897,2.708-2.768,4.182-2.462c1.308,0.271,1.171,3.755,1.129,4.623c-0.059,1.186,0.359,2.454,1.318,3.193 c1.961,1.51,4.814,0.252,6.739-0.65c7.441-3.49,13.848-10.011,19.725-15.554c-0.413-0.413-0.825-0.825-1.238-1.238 c-2.498,2.916-6.206,6.951-6.416,10.964c-0.396,7.588,21.938-6.355,22.846-6.897c0.981-0.586,0.123-1.993-0.883-1.512 c-3.784,1.812-10.405,5.335-10.968,10.063c-0.61,5.135,4.061,5.937,7.788,4.427c6.535-2.646,12.104-8.406,16.676-13.57 c5.05-5.704,9.791-12.54,11.364-20.111c0.514-2.474,0.405-14.811-4.775-12.405c-3.081,1.43-4.848,5.317-6.329,8.137 c-2.405,4.575-4.239,9.478-6.062,14.305c-1.26,3.338-6.396,14.38-1.118,16.787c2.557,1.165,6.126-1.167,8.188-2.348 c3.081-1.764,6.194-3.717,8.923-6.006c-0.458-0.354-0.916-0.707-1.374-1.061c-1.501,2.436-3.25,5.077-2.985,8.532 c0.229,2.997,2.804,3.523,5.252,2.688c6.936-2.364,13.052-9.63,17.88-14.714c0.129-0.136,6.229-6.571,2.977-6.498 c-3.306,0.075-7.414,5.791-9.306,7.88c-6.507,7.182-11.616,15.459-15.706,24.216c-9.579,20.511-13.047,44.817-27.544,62.755 c-0.702,0.869,0.528,2.116,1.238,1.238c9.459-11.705,14.064-26.216,18.934-40.229c5.721-16.462,12.065-32.46,23.521-45.841 c1.597-1.865,3.307-3.634,5.086-5.325c0.799-0.76,1.638-1.484,2.513-2.156c1.499-1.152-0.02-0.333,0.479-1.495 c-0.677,1.578-2.287,2.982-3.429,4.218c-2.875,3.112-5.971,6.036-9.156,8.826c-1.264,1.106-10.617,9.281-11.025,3.945 c-0.227-2.948,1.373-4.868,2.783-7.157c0.552-0.895-0.646-1.67-1.374-1.06c-3.828,3.211-8.85,6.762-13.691,8.013 c-5.683,1.467,0.376-14.09,1.074-15.938c2.439-6.461,4.896-13.972,9.634-19.167c3.22-3.53,3.946,5.635,3.947,7.146 c0.002,2.83-1.08,5.687-2.205,8.234c-4.329,9.799-12.77,18.938-21.705,24.751c-2.688,1.749-12.438,4.767-7.871-2.709 c1.905-3.117,6.022-5.313,9.25-6.857c-0.294-0.504-0.589-1.008-0.883-1.512c-5.294,3.16-10.726,6.521-16.601,8.501 c-2.316,0.78-4.334,0.951-3.122-1.88c1.241-2.898,3.374-5.558,5.414-7.938c0.728-0.85-0.408-2.021-1.238-1.238 c-6.07,5.727-12.793,12.8-20.761,15.88c-1.629,0.631-3.914,0.937-4.033-1.325c-0.102-1.927,0.214-5.012-1.693-6.258 c-2.31-1.51-5.021,1.089-6.604,2.554c-2.811,2.599-5.034,5.771-7.855,8.351c-0.663,0.606-0.21,0.945-0.044-0.146 c0.161-1.06,0.502-2.101,0.808-3.124c0.544-1.819,1.729-4.996,0.711-6.903c-2.802-5.243-13.733,7.742-15.561,9.821 c0.488,0.284,0.976,0.568,1.463,0.852c1.327-4.127,3.694-8.975,3.942-13.378c0.071-1.269-1.12-1.641-1.936-0.758 c-2.102,2.273-9.194,15.72-11.968,7.911c-1.457-4.099,3.56-9.034,6.658-10.938c0.549-0.149,0.494-0.35-0.161-0.6 c-0.315,0.497-0.673,0.964-1.071,1.4c-1.122,1.343-2.413,2.553-3.658,3.776c-3.06,3.006-6.386,5.762-9.97,8.117 c-3.16,2.076-7.651,3.948-6.491-1.768c0.847-4.17,3.135-8.074,5.495-11.555c2.594-3.825,6.061-7.515,9.832-10.229 C147.306,30.778,146.434,29.26,145.516,29.92L145.516,29.92 M167.718,116.523c40.603-18.043,81.728-35.137,123.393-50.567c19.735-7.31,39.759-14.617,60.32-19.269 c4.18-0.945,26.547-6.326,20.35,4.551c-0.56,0.981,0.953,1.863,1.512,0.883c7.811-13.709-17.363-8.243-22.9-6.991 c-26.343,5.959-51.935,16.013-77.081,25.688c-35.853,13.794-71.37,28.595-106.476,44.194 C165.806,115.47,166.697,116.978,167.718,116.523L167.718,116.523z"/>
</svg>