<?xml version="1.0" encoding="UTF-8" standalone="no"?>
<!-- Created with Inkscape (http://www.inkscape.org/) -->

<svg
   xmlns:dc="http://purl.org/dc/elements/1.1/"
   xmlns:cc="http://creativecommons.org/ns#"
   xmlns:rdf="http://www.w3.org/1999/02/22-rdf-syntax-ns#"
   xmlns:svg="http://www.w3.org/2000/svg"
   xmlns="http://www.w3.org/2000/svg"
   xmlns:sodipodi="http://sodipodi.sourceforge.net/DTD/sodipodi-0.dtd"
   xmlns:inkscape="http://www.inkscape.org/namespaces/inkscape"
   width="371"
   height="84"
   id="svg2"
   version="1.1"
   inkscape:version="0.48.0 r9654"
   style="display:inline"
   sodipodi:docname="Robert_W_Wilcox_1899_signature.svg">
  <defs
     id="defs4" />
  <sodipodi:namedview
     id="base"
     pagecolor="#ffffff"
     bordercolor="#666666"
     borderopacity="1.0"
     inkscape:pageopacity="0.0"
     inkscape:pageshadow="2"
     inkscape:zoom="1.4366577"
     inkscape:cx="168.85755"
     inkscape:cy="33.994118"
     inkscape:document-units="px"
     inkscape:current-layer="layer8"
     showgrid="false"
     fit-margin-top="0"
     fit-margin-left="0"
     fit-margin-right="0"
     fit-margin-bottom="0"
     inkscape:window-width="1440"
     inkscape:window-height="820"
     inkscape:window-x="-8"
     inkscape:window-y="-8"
     inkscape:window-maximized="1" />
  <metadata
     id="metadata7">
    <rdf:RDF>
      <cc:Work
         rdf:about="">
        <dc:format>image/svg+xml</dc:format>
        <dc:type
           rdf:resource="http://purl.org/dc/dcmitype/StillImage" />
        <dc:title></dc:title>
      </cc:Work>
    </rdf:RDF>
  </metadata>
  <g
     inkscape:groupmode="layer"
     id="layer8"
     inkscape:label="Warstwa">
    <path
       style="font-size:medium;font-style:normal;font-variant:normal;font-weight:normal;font-stretch:normal;text-indent:0;text-align:start;text-decoration:none;line-height:normal;letter-spacing:normal;word-spacing:normal;text-transform:none;direction:ltr;block-progression:tb;writing-mode:lr-tb;text-anchor:start;baseline-shift:baseline;color:#000000;fill:#000000;fill-opacity:1;stroke:none;stroke-width:1.5;marker:none;visibility:visible;display:inline;overflow:visible;enable-background:accumulate;font-family:Sans;-inkscape-font-specification:Sans"
       d="m 63.3125,11.75 c -1.263023,0.0022 -2.687333,0.155307 -4.21875,0.375 -6.125666,0.878772 -13.966242,3.364722 -19.40625,6.71875 -4.778496,2.946173 -13.087974,11.373486 -19.5625,20.4375 -3.237263,4.532007 -5.99278,9.201028 -7.53125,13.4375 -1.53847,4.236472 -1.933408,8.131023 -0.0625,10.9375 0.698561,1.047884 1.892886,1.48333 3.03125,1.25 1.138364,-0.23333 2.288801,-0.952809 3.5,-1.96875 2.422397,-2.031881 5.132118,-5.342143 7.71875,-8.96875 2.586632,-3.626607 5.034699,-7.558413 6.90625,-10.84375 0.935776,-1.642668 1.728713,-3.14832 2.3125,-4.34375 0.496229,-1.016137 0.760326,-1.673424 0.9375,-2.28125 1.216125,0.516013 2.651664,0.702934 3.53125,0.9375 0.269799,0.07195 0.568219,-0.01231 0.84375,0.03125 -0.179245,0.294147 -0.24958,0.56655 -0.46875,0.875 -0.56788,0.799209 -1.21083,1.627164 -1.5,2.6875 -0.446391,1.636834 -1.661172,6.521187 -2.40625,11.40625 -0.372539,2.442532 -0.6042,4.894662 -0.59375,6.9375 0.01045,2.042838 0.171363,3.702571 1.1875,4.71875 0.549866,0.549888 1.393794,0.602269 2.09375,0.375 0.699956,-0.227269 1.39692,-0.693599 2.15625,-1.28125 1.018929,-0.788556 2.12912,-2.075265 3.21875,-3.28125 2.027363,0.647389 4.037796,0.966181 5.90625,0.40625 1.94589,-0.583137 3.62675,-2.118557 4.78125,-4.8125 0.517979,-1.208667 0.712773,-2.171364 0.71875,-3.03125 1.0421,0.152462 2.19323,0.354707 3.3125,-0.125 2.695968,-1.155462 4.778432,-2.581181 6.6875,-4.21875 -0.753991,2.346151 -1.340735,4.770183 -1.4375,6.90625 -0.05544,1.223812 0.04155,2.362556 0.34375,3.34375 0.302198,0.981194 0.835312,1.832416 1.6875,2.34375 0.427519,0.256522 1.007332,0.317835 1.4375,0.125 0.430168,-0.192835 0.703397,-0.543737 0.9375,-0.90625 0.468206,-0.725027 0.765945,-1.659073 1,-2.625 0.136207,-0.562116 0.200283,-1.042116 0.28125,-1.5625 0.451915,0.108256 0.856178,0.30521 1.375,0.34375 0.954418,0.0709 1.955224,0.03982 2.78125,0 0.413013,-0.01991 0.781428,-0.03716 1.0625,-0.0625 0.281072,-0.02534 0.419695,-0.01512 0.625,-0.0625 2.141276,-0.494161 4.222641,-2.020867 6.28125,-3.34375 1.900143,-1.221051 3.719154,-2.159098 5.25,-2.3125 -0.233527,0.566731 -0.752406,1.480147 -1.3125,2.46875 C 86.144662,53.794553 85.512769,54.911483 85.125,56 c -0.387769,1.088517 -0.608508,2.204645 -0.0625,3.1875 0.404593,0.728298 0.985546,1.225882 1.625,1.46875 0.639454,0.242868 1.316576,0.241034 1.9375,0.09375 1.241848,-0.294568 2.36803,-1.066424 3.28125,-1.71875 0.214564,-0.153265 0.212743,-0.220792 0.28125,-0.3125 0.06851,-0.09171 0.142863,-0.197384 0.21875,-0.3125 0.151774,-0.230232 0.334851,-0.510583 0.5,-0.78125 0.175447,0.292295 0.394329,0.596208 0.8125,0.875 0.656069,0.437397 1.436525,0.558693 2.125,0.375 0.688475,-0.183693 1.286866,-0.626631 1.84375,-1.15625 1.113768,-1.059239 2.082315,-2.607999 2.9375,-4.1875 0.80015,-1.477846 1.44056,-2.927282 1.9375,-4.03125 0.14946,0.28259 0.2755,0.584972 0.5,0.78125 0.65463,0.572325 1.46014,0.694657 2.1875,0.71875 0.72736,0.02409 1.43533,-0.03822 1.96875,0 0.53342,0.03822 0.79944,0.149237 0.96875,0.375 0.21532,0.287105 0.23518,0.725417 0.0625,1.4375 -0.17268,0.712083 -0.51987,1.565724 -0.8125,2.46875 -0.29263,0.903026 -0.55044,1.872651 -0.34375,2.84375 0.20669,0.971099 0.97717,1.83517 2.25,2.3125 0.69222,0.259593 1.33015,0.03335 2.03125,-0.28125 0.7011,-0.314603 1.4884,-0.771694 2.34375,-1.375 1.71069,-1.206612 3.70348,-2.918659 5.6875,-4.71875 3.89886,-3.537422 7.6733,-7.398657 8.84375,-8.6875 0.0522,1.16e-4 0.10407,-3.2e-5 0.15625,0 -0.97604,2.574576 -1.99809,5.194883 -2.96875,7.6875 -1.41225,3.626609 -2.54003,6.747611 -2.40625,8.875 0.0335,0.531847 0.15328,1.018511 0.46875,1.4375 0.31547,0.418989 0.83139,0.701018 1.375,0.75 1.08722,0.09797 2.32669,-0.422548 4.0625,-1.4375 a 0.750075,0.750075 0 1 0 -0.75,-1.28125 c -1.62721,0.951449 -2.75452,1.257764 -3.1875,1.21875 -0.21649,-0.01951 -0.24724,-0.06957 -0.3125,-0.15625 -0.0653,-0.08668 -0.13412,-0.273112 -0.15625,-0.625 -0.0885,-1.40755 0.91335,-4.657038 2.3125,-8.25 1.01871,-2.61601 2.20831,-5.465677 3.25,-8.21875 6.86393,-0.106557 13.37734,-0.84375 16.0625,-0.84375 0.538,0 3.38186,-0.0053 6.125,0 0.86447,0.0017 1.58453,0.0245 2.34375,0.03125 -2.04271,0.748166 -3.28432,2.516563 -4.53125,3.625 -1.39695,1.241784 -2.2863,3.481695 -2.53125,5.71875 -0.12248,1.118528 -0.0734,2.219781 0.25,3.21875 0.32338,0.998969 0.95335,1.914158 1.9375,2.40625 1.21056,0.605305 2.70551,0.588883 4.34375,0.3125 1.63824,-0.276383 3.4392,-0.852229 5.1875,-1.5625 3.4966,-1.420541 6.80946,-3.336314 8.40625,-4.6875 0.16458,-0.139269 0.4694,-0.508588 0.6875,-0.75 0.12499,0.696294 0.24968,1.416763 0.46875,2.09375 0.61465,1.899413 1.54525,3.640423 2.84375,4.75 1.2985,1.109577 3.13452,1.455028 4.8125,0.40625 2.46264,-1.539216 4.42502,-5.351299 5.65625,-9.46875 0.9884,-3.305389 1.42262,-6.751166 0.84375,-9.46875 0.12553,0.03933 0.2511,0.120535 0.375,0.15625 1.36179,0.392543 2.55049,0.601856 3.53125,0.34375 0.6625,-0.174348 2.67125,-0.504772 5.1875,-0.84375 2.51625,-0.338978 5.59091,-0.714758 8.59375,-1.03125 3.00284,-0.316492 5.94034,-0.583159 8.15625,-0.71875 1.10795,-0.0678 2.03209,-0.09972 2.6875,-0.09375 -0.13747,0.180036 -0.28363,0.369332 -0.40625,0.53125 -0.14678,0.193829 -0.24812,0.259348 -0.375,0.53125 -0.85165,1.82503 -3.46473,6.736232 -5.3125,11.6875 -0.92388,2.475634 -1.65372,4.964947 -1.875,7.15625 -0.22128,2.191303 0.0439,4.218029 1.4375,5.4375 0.42136,0.368702 0.83094,0.232574 1.125,0.15625 0.29406,-0.07632 0.56519,-0.204057 0.90625,-0.375 0.68212,-0.341886 1.54718,-0.84285 2.53125,-1.5 1.96814,-1.314299 4.44674,-3.188024 6.9375,-5.125 2.49076,-1.936976 4.99948,-3.94794 6.9375,-5.59375 0.96901,-0.822905 1.77437,-1.542531 2.40625,-2.125 0.40137,-0.369988 0.6072,-0.588323 0.84375,-0.84375 -0.27665,0.567034 -0.5,1.139161 -0.5,1.78125 0,1.095399 -0.15069,4.472719 0.3125,7.40625 0.2316,1.466765 0.58414,2.836869 1.3125,3.84375 0.36418,0.50344 0.86307,0.924464 1.46875,1.125 0.60568,0.200536 1.30598,0.166518 2,-0.09375 3.2772,-1.228999 5.63288,-4.559976 7.4375,-8.78125 1.80462,-4.221274 3.06088,-9.410775 3.90625,-14.625 0.84537,-5.214225 1.28143,-10.441145 1.46875,-14.71875 0.18732,-4.277605 0.12027,-7.563973 -0.0937,-9.0625 a 0.750075,0.750075 0 0 0 -0.9375,-0.625 A 0.750075,0.750075 0 0 0 242.53125,16 c 0.17329,1.213081 0.2476,4.554395 0.0625,8.78125 -0.1851,4.226855 -0.63542,9.391307 -1.46875,14.53125 -0.83333,5.139943 -2.05436,10.241791 -3.78125,14.28125 -1.72689,4.039459 -3.94011,6.973595 -6.59375,7.96875 -0.45217,0.169571 -0.75602,0.143279 -1,0.0625 -0.24398,-0.08078 -0.48601,-0.240757 -0.71875,-0.5625 C 228.56577,60.419014 228.214,59.199111 228,57.84375 c -0.42801,-2.710721 -0.3125,-5.950062 -0.3125,-7.15625 0,-0.187408 0.13776,-0.638743 0.375,-1.125 0.23724,-0.486257 0.53035,-1.020719 0.8125,-1.53125 0.28215,-0.510531 0.57082,-0.949762 0.65625,-1.5 0.0427,-0.275119 0.0212,-0.684271 -0.25,-1 -0.27117,-0.315729 -0.67474,-0.40625 -1,-0.40625 -0.4123,0 -0.79221,0.185513 -1.0625,0.40625 -0.27029,0.220737 -0.43799,0.463863 -0.59375,0.71875 -0.31152,0.509773 -0.53448,1.036079 -0.71875,1.3125 -0.0149,0.02242 -0.45471,0.502236 -1.0625,1.0625 -0.60779,0.560264 -1.41628,1.279584 -2.375,2.09375 -1.91744,1.628333 -4.40164,3.639056 -6.875,5.5625 -2.47336,1.923444 -4.96177,3.784869 -6.875,5.0625 -0.95661,0.638816 -1.76677,1.117061 -2.34375,1.40625 -0.21772,0.109122 -0.34181,0.174319 -0.46875,0.21875 -0.73289,-0.766279 -1.06236,-2.082102 -0.875,-3.9375 0.19881,-1.968816 0.91326,-4.371635 1.8125,-6.78125 1.79849,-4.819229 4.3691,-9.639056 5.28125,-11.59375 -0.0605,0.129655 0.0513,-0.07012 0.1875,-0.25 0.13622,-0.17988 0.32928,-0.430688 0.5,-0.65625 0.17072,-0.225562 0.33758,-0.417906 0.46875,-0.625 0.0656,-0.103547 0.10146,-0.210092 0.15625,-0.34375 0.0274,-0.06683 0.0796,-0.143684 0.0937,-0.28125 0.0142,-0.137566 0.0133,-0.42419 -0.21875,-0.65625 -0.19431,-0.194317 -0.34415,-0.214272 -0.46875,-0.25 -0.1246,-0.03573 -0.24693,-0.04673 -0.375,-0.0625 -0.25614,-0.03155 -0.54616,-0.05922 -0.90625,-0.0625 -0.72019,-0.0066 -1.68527,0.02477 -2.8125,0.09375 -2.25445,0.13795 -5.20179,0.432019 -8.21875,0.75 -3.01696,0.317981 -6.09057,0.658573 -8.625,1 -2.53443,0.341427 -4.47448,0.638012 -5.375,0.875 -0.36223,0.09533 -1.51442,0.01241 -2.75,-0.34375 -0.44486,-0.128233 -0.87936,-0.382542 -1.34375,-0.5625 0.0165,0.03305 -0.18405,-0.588359 -0.375,-1.25 -0.19095,-0.661641 -0.44339,-1.483074 -0.75,-2.25 -0.30661,-0.766926 -0.65025,-1.491476 -1.1875,-2.03125 -0.26862,-0.269887 -0.61126,-0.511613 -1.03125,-0.59375 -0.41999,-0.08214 -0.86861,0.04287 -1.25,0.28125 -0.6915,0.432207 -1.19347,0.925688 -1.4375,1.53125 -0.24403,0.605562 -0.17734,1.284137 0.0625,1.84375 0.47967,1.119226 1.54976,1.965058 2.8125,2.71875 0.59772,0.356758 1.27916,0.55809 1.9375,0.84375 0.86093,2.216803 0.60469,6.118219 -0.5,9.8125 -1.1707,3.915017 -3.27752,7.560126 -5.03125,8.65625 -1.1983,0.74897 -2.06618,0.512157 -3.03125,-0.3125 -0.96507,-0.824657 -1.85121,-2.3473 -2.40625,-4.0625 -0.34074,-1.052971 -0.48685,-2.140257 -0.5625,-3.1875 0.51467,-0.649066 1.02523,-1.335699 1.5,-2.03125 0.62989,-0.922798 1.14135,-1.726994 1.34375,-2.5 0.0506,-0.193252 0.0867,-0.390813 0.0625,-0.625 -0.0242,-0.234187 -0.13433,-0.553528 -0.375,-0.75 -0.24067,-0.196472 -0.51194,-0.223077 -0.75,-0.21875 -0.23806,0.0043 -0.45016,0.04588 -0.6875,0.125 -1.59622,0.532095 -2.40359,2.134675 -2.625,3.90625 -0.0627,0.501994 0.0183,1.056474 0.0312,1.59375 C 168.1309,50.85091 168.05516,50.932963 168,51 c -0.62453,0.759009 -1.20464,1.372673 -1.28125,1.4375 -1.33758,1.131846 -4.6428,3.104842 -8,4.46875 -1.6786,0.681954 -3.39924,1.219779 -4.875,1.46875 -1.47576,0.248971 -2.70881,0.176863 -3.4375,-0.1875 -0.57255,-0.286289 -0.9221,-0.776673 -1.15625,-1.5 -0.23415,-0.723327 -0.29261,-1.665101 -0.1875,-2.625 0.21021,-1.919799 1.11677,-3.937096 2.03125,-4.75 1.44417,-1.283767 2.57624,-2.844174 4.0625,-3.375 0.34128,-0.12189 1.02662,-0.209621 1.6875,-0.40625 0.33044,-0.09831 0.68885,-0.215907 1,-0.46875 0.31115,-0.252843 0.5625,-0.713351 0.5625,-1.1875 0,-6.3e-4 -0.0934,-0.343126 -0.0937,-0.34375 -3.2e-4,-6.24e-4 -0.079,-0.142694 -0.125,-0.1875 -0.0921,-0.08961 -0.17102,-0.133356 -0.21875,-0.15625 -0.0955,-0.04579 -0.11785,-0.05355 -0.15625,-0.0625 -0.0768,-0.01789 -0.13391,-0.02538 -0.1875,-0.03125 -0.10718,-0.01175 -0.22324,0.0073 -0.375,0 -0.30352,-0.01455 -0.71625,-0.02263 -1.21875,-0.03125 -1.00501,-0.01725 -2.37471,-0.0286 -3.75,-0.03125 -2.75058,-0.0053 -5.61539,0 -6.125,0 -2.85348,0 -9.00595,0.662256 -15.5,0.8125 0.17926,-0.499274 0.36938,-1.014667 0.53125,-1.5 0.60129,-1.802866 1.05662,-3.484516 1.28125,-4.96875 0.22463,-1.484234 0.24566,-2.795202 -0.25,-3.84375 -0.048,-0.101488 -0.0994,-0.171735 -0.1875,-0.28125 -0.0881,-0.109515 -0.24142,-0.297194 -0.5625,-0.34375 -0.32108,-0.04656 -0.63411,0.170382 -0.75,0.3125 -0.11589,0.142118 -0.15486,0.249027 -0.1875,0.34375 -0.13055,0.37889 -0.1445,0.72948 -0.1875,1.1875 -0.086,0.91604 -0.19525,2.124819 -0.3125,2.4375 -0.40397,1.077295 -0.65869,2.062294 -0.90625,3 -2.13024,-2.487606 -4.34551,-5.353132 -6.84375,-7.5 -1.45362,-1.24917 -3.02474,-2.237152 -4.75,-2.71875 -1.72526,-0.481598 -3.60422,-0.401796 -5.5625,0.4375 -0.54121,0.231956 -1.31467,0.56128 -2.03125,1.0625 -0.71658,0.50122 -1.41417,1.187872 -1.65625,2.15625 -0.50479,2.019239 -0.42031,3.769253 0.21875,5.25 0.63906,1.480747 1.79349,2.648517 3.25,3.53125 2.91303,1.765466 7.06285,2.509973 11.53125,2.8125 0.953,0.06452 1.93077,0.09977 2.90625,0.125 -1.64416,1.721089 -4.6654,4.766751 -7.78125,7.59375 -1.95908,1.777472 -3.94387,3.452076 -5.5625,4.59375 -0.80931,0.570837 -1.54107,1.033247 -2.09375,1.28125 -0.55268,0.248003 -0.89593,0.2109 -0.875,0.21875 -0.95267,-0.357266 -1.20662,-0.721287 -1.3125,-1.21875 -0.10588,-0.497463 0.0152,-1.241612 0.28125,-2.0625 0.26602,-0.820888 0.65952,-1.705179 0.875,-2.59375 0.21548,-0.888571 0.26498,-1.875823 -0.34375,-2.6875 -0.5262,-0.701626 -1.34495,-0.917334 -2.0625,-0.96875 -0.71755,-0.05142 -1.40716,0.01964 -2,0 -0.59284,-0.01964 -1.03266,-0.126413 -1.28125,-0.34375 -0.24859,-0.217337 -0.46875,-0.646916 -0.46875,-1.6875 0,-0.09703 0.0807,-0.188786 -0.1875,-0.53125 -0.13409,-0.171232 -0.48237,-0.3258 -0.71875,-0.28125 -0.23638,0.04455 -0.34334,0.130394 -0.40625,0.1875 -0.25166,0.228422 -0.23322,0.316939 -0.3125,0.46875 -0.15856,0.303622 -0.34173,0.752292 -0.59375,1.3125 -0.50405,1.120415 -1.21107,2.672655 -2.03125,4.1875 -0.820178,1.514845 -1.76672,2.997771 -2.65625,3.84375 -0.444765,0.42299 -0.887309,0.661568 -1.21875,0.75 -0.331441,0.08843 -0.566617,0.07018 -0.90625,-0.15625 -0.31556,-0.210382 -0.389052,-0.332792 -0.5,-0.5625 -0.110948,-0.229708 -0.217017,-0.623251 -0.59375,-1 -8.3e-5,-8.3e-5 -0.406131,-0.21873 -0.40625,-0.21875 -1.19e-4,-2e-5 -0.343596,0.03121 -0.34375,0.03125 -1.54e-4,4.3e-5 -0.156061,0.06239 -0.15625,0.0625 -1.89e-4,1.06e-4 -0.09353,0.06233 -0.09375,0.0625 -8.93e-4,6.73e-4 -0.106514,0.07252 -0.125,0.09375 -0.03697,0.04245 -0.0191,0.07652 -0.03125,0.09375 -0.0243,0.03446 -0.04199,0.0302 -0.0625,0.0625 -0.04101,0.0646 -0.09658,0.151651 -0.15625,0.25 -0.119334,0.196698 -0.276349,0.454637 -0.4375,0.71875 -0.161151,0.264113 -0.335763,0.548266 -0.46875,0.75 -0.06649,0.100867 -0.117681,0.167119 -0.15625,0.21875 -0.865272,0.61633 -1.882935,1.270494 -2.71875,1.46875 -0.421635,0.100012 -0.777628,0.108196 -1.0625,0 -0.284872,-0.108196 -0.571429,-0.322303 -0.84375,-0.8125 -0.192881,-0.3472 -0.139591,-1.050564 0.1875,-1.96875 0.327091,-0.918186 0.872494,-2.002727 1.4375,-3 0.565006,-0.997273 1.127769,-1.909034 1.4375,-2.6875 0.154865,-0.389233 0.287218,-0.732722 0.1875,-1.21875 -0.04986,-0.243014 -0.195818,-0.525844 -0.4375,-0.6875 -0.241682,-0.161656 -0.517118,-0.21875 -0.75,-0.21875 -2.235804,0 -4.378123,1.344042 -6.46875,2.6875 -2.090627,1.343458 -4.139292,2.73886 -5.8125,3.125 0.07808,-0.01802 -0.148874,0.008 -0.40625,0.03125 -0.257376,0.0232 -0.607742,0.04359 -1,0.0625 -0.784516,0.03782 -1.767967,0.06366 -2.625,0 -0.60015,-0.04458 -0.916018,-0.147722 -1.25,-0.25 0.01714,-0.226107 0.03455,-0.455989 0.03125,-0.625 -0.0024,-0.122693 -0.01154,-0.224454 -0.0625,-0.40625 -0.02548,-0.0909 -0.0049,-0.229815 -0.3125,-0.4375 -0.153778,-0.103843 -0.432603,-0.1742 -0.625,-0.125 -0.192397,0.0492 -0.279031,0.154028 -0.34375,0.21875 -0.380017,0.380032 -0.688055,0.769432 -0.71875,1.28125 -0.01892,0.315386 0.230864,0.512842 0.40625,0.75 -0.07775,0.60069 -0.144195,1.274167 -0.3125,1.96875 -0.213848,0.882537 -0.525849,1.712365 -0.8125,2.15625 -0.143325,0.221942 -0.288729,0.333094 -0.3125,0.34375 -0.02377,0.01066 0.07153,0.03042 -0.03125,-0.03125 -0.468067,-0.280852 -0.803246,-0.759704 -1.03125,-1.5 -0.228004,-0.740296 -0.331478,-1.70372 -0.28125,-2.8125 0.100456,-2.217559 0.759307,-4.981947 1.65625,-7.53125 0.333035,-0.946557 0.771133,-1.511742 1.15625,-2.375 1.027008,-1.090617 2.054915,-2.064017 3.125,-3.3125 0.09449,-0.110238 0.577234,-0.668014 1,-1.21875 0.211383,-0.275368 0.408821,-0.544936 0.5625,-0.8125 0.07684,-0.133782 0.135974,-0.260376 0.1875,-0.4375 0.02576,-0.08856 0.07026,-0.191654 0.0625,-0.34375 -0.0078,-0.152096 -0.07656,-0.389048 -0.25,-0.5625 -0.288737,-0.288748 -0.690736,-0.471517 -1.09375,-0.46875 -0.403014,0.0028 -0.772727,0.140652 -1.09375,0.34375 -0.642045,0.406196 -1.196733,1.064283 -1.78125,1.90625 -0.69407,0.999773 -1.290597,2.60829 -1.9375,4.03125 -2.551555,2.690315 -5.134516,4.995083 -8.9375,6.625 -0.61891,0.265258 -1.512995,0.183944 -2.5625,0.03125 -0.128191,-0.01865 -0.274321,-0.01197 -0.40625,-0.03125 -0.0038,-0.0077 0.0038,-0.02361 0,-0.03125 -0.177887,-0.353532 -0.417165,-0.651675 -0.71875,-0.875 -1.027449,-0.760831 -2.412979,-0.647808 -3.78125,-0.34375 0.0056,-0.01964 0.02588,-0.04297 0.03125,-0.0625 0.219082,-0.796882 0.322508,-1.507871 0.03125,-2.1875 -0.12614,-0.294339 -0.466801,-0.608953 -0.8125,-0.65625 -0.345699,-0.0473 -0.616414,0.07238 -0.84375,0.1875 -0.454672,0.230248 -0.852618,0.585782 -1.3125,1.0625 -0.919765,0.953436 -1.97248,2.364277 -2.90625,3.875 -0.93377,1.510723 -1.741261,3.110713 -2.125,4.5 -0.19187,0.694644 -0.300936,1.31841 -0.1875,1.9375 0.03863,0.210803 0.170117,0.398724 0.28125,0.59375 -1.016431,1.113683 -2.052607,2.346426 -2.9375,3.03125 -0.681024,0.527049 -1.300859,0.895565 -1.71875,1.03125 -0.417891,0.135685 -0.494277,0.09948 -0.5625,0.03125 -0.3691,-0.369115 -0.740243,-1.780169 -0.75,-3.6875 -0.0098,-1.907331 0.228017,-4.289589 0.59375,-6.6875 0.731467,-4.795823 1.918984,-9.692461 2.34375,-11.25 0.18484,-0.677773 0.702218,-1.435095 1.28125,-2.25 0.337773,-0.475367 0.559101,-1.094212 0.84375,-1.65625 4.200696,-0.100274 8.871445,-2.802873 13.1875,-6.53125 5.161764,-4.458934 9.786918,-10.226399 12.25,-14.6875 0.508184,-0.920416 0.657229,-1.87858 0.28125,-2.65625 -0.375979,-0.77767 -1.12418,-1.227323 -2.03125,-1.5 C 65.68668,11.883573 64.575523,11.747803 63.3125,11.75 z m 0,1.53125 c 1.170575,3.03e-4 2.156823,0.106 2.84375,0.3125 0.686927,0.2065 1.011853,0.484719 1.125,0.71875 0.113147,0.234031 0.122828,0.574738 -0.25,1.25 -2.341186,4.240323 -6.927366,9.98455 -11.9375,14.3125 -3.945405,3.408195 -8.094775,5.791095 -11.5625,6.1875 0.417738,-2.233436 0.499455,-4.11858 0.21875,-5.59375 -0.293378,-1.541767 -0.950927,-2.722857 -2,-3.25 -1.049073,-0.527143 -2.320367,-0.189681 -3.40625,0.75 -1.085883,0.939681 -2.130486,2.481824 -3.0625,4.71875 -0.366788,0.880327 -0.363203,1.737534 -0.03125,2.40625 0.103405,0.208309 0.320846,0.275158 0.46875,0.4375 a 0.750075,0.750075 0 0 0 -0.09375,0.25 c -0.06119,0.290499 -0.404801,1.188943 -0.96875,2.34375 -0.563949,1.154807 -1.357701,2.628794 -2.28125,4.25 -1.847099,3.242412 -4.29459,7.14468 -6.84375,10.71875 -2.54916,3.57407 -5.212588,6.821268 -7.4375,8.6875 -1.112456,0.933116 -2.106635,1.511569 -2.8125,1.65625 -0.705865,0.144681 -1.071959,0.01709 -1.5,-0.625 C 12.326478,60.630253 12.537204,57.27809 14,53.25 15.462796,49.22191 18.156982,44.617567 21.34375,40.15625 27.717287,31.233616 36.164458,22.766821 40.5,20.09375 c 5.170314,-3.187748 12.906438,-5.652732 18.8125,-6.5 1.476515,-0.211817 2.829425,-0.312803 4,-0.3125 z m 220.375,5.75 c -0.20499,-0.0095 -0.40034,0.01543 -0.59375,0.0625 -0.38683,0.09414 -0.76044,0.299269 -1.125,0.5 -1.45825,0.802925 -2.86384,2.202273 -3.53125,3.125 -4.97645,6.880252 -10.59712,21.671873 -12.28125,30.25 -0.18936,0.964511 -0.0649,1.74884 0.0625,2.53125 -2.74933,2.408473 -5.54201,4.564686 -8.125,5.96875 -3.10186,1.68611 -5.82047,2.338361 -7.625,1.71875 -0.261,-0.08962 -0.43215,-0.236634 -0.59375,-0.59375 -0.1616,-0.357116 -0.2855,-0.900257 -0.3125,-1.5625 -0.054,-1.324487 0.20284,-3.097833 0.5625,-4.84375 0.35966,-1.745917 0.82734,-3.486608 1.15625,-4.8125 0.16446,-0.662946 0.30091,-1.216299 0.375,-1.65625 0.037,-0.219975 0.0654,-0.392258 0.0625,-0.59375 -0.001,-0.100746 -0.0133,-0.192559 -0.0625,-0.34375 -0.0492,-0.151191 -0.20269,-0.412324 -0.5,-0.53125 -2.6e-4,-1.06e-4 -0.65567,0.06213 -0.65625,0.0625 -5.8e-4,3.67e-4 -0.105,0.04364 -0.125,0.0625 -0.04,0.03771 -0.0503,0.07937 -0.0625,0.09375 -0.0245,0.02877 -0.0473,0.04247 -0.0625,0.0625 -0.0303,0.04006 -0.052,0.06631 -0.0937,0.125 -0.0837,0.117371 -0.19685,0.289107 -0.34375,0.5 -0.2938,0.421785 -0.71494,1.031054 -1.21875,1.75 -1.00762,1.437892 -2.36463,3.360856 -3.78125,5.25 -1.41662,1.889144 -2.89806,3.730689 -4.125,5.0625 -0.61347,0.665906 -1.17621,1.213764 -1.59375,1.53125 -0.20877,0.158743 -0.36968,0.270732 -0.46875,0.3125 a 0.76194908,0.76194908 0 1 0 -0.40625,1.46875 c 0.37661,0.112369 0.68942,0.02402 0.96875,-0.09375 0.27933,-0.11777 0.54094,-0.293514 0.8125,-0.5 0.54312,-0.412971 1.13481,-0.985804 1.78125,-1.6875 1.29288,-1.403392 2.7867,-3.309037 4.21875,-5.21875 1.3386,-1.785095 2.57418,-3.530589 3.5625,-4.9375 -0.29238,1.157605 -0.61666,2.375458 -0.90625,3.78125 -0.37088,1.800418 -0.65742,3.657436 -0.59375,5.21875 0.0318,0.780657 0.15458,1.499783 0.4375,2.125 0.28292,0.625217 0.78379,1.171059 1.46875,1.40625 2.50262,0.859311 5.57211,-0.06535 8.84375,-1.84375 2.56794,-1.395881 5.2518,-3.466259 7.90625,-5.75 0.30943,0.593864 0.57347,1.225322 1.09375,1.625 1.48259,1.138918 3.56062,1.469572 5.8125,1.4375 4.50375,-0.06414 9.83302,-1.721296 12.875,-3.34375 3.30051,-1.760347 4.81496,-3.689171 7.65625,-5.71875 0.0322,-0.02304 0.0328,-0.03927 0.0625,-0.0625 0.0398,0.473102 0.06,1.089181 0.0625,1.78125 0.005,1.432646 -0.0808,3.225215 -0.28125,4.9375 -0.2004,1.712285 -0.54145,3.352095 -0.96875,4.46875 -0.0573,0.149875 -0.12706,0.183955 -0.1875,0.3125 -1.07877,-0.196875 -2.14462,-0.533455 -3.09375,-1.0625 -0.058,-0.09807 -0.12925,-0.148951 -0.1875,-0.25 -0.7534,-1.307064 -1.52386,-2.914182 -3.1875,-3.46875 a 0.750075,0.750075 0 0 0 -0.96875,0.9375 c 0.58806,1.853319 1.86785,3.113325 3.375,4 0.26182,0.418311 0.47121,0.851218 0.8125,1.21875 0.54529,0.587214 1.2854,1.065987 2.1875,1.1875 0.65417,0.08812 1.26918,-0.211437 1.6875,-0.65625 0.0692,-0.07354 0.0934,-0.200841 0.15625,-0.28125 4.08083,0.269511 7.28248,-1.817092 10.375,-3.75 0.16026,-0.100168 0.59846,-0.451352 0.96875,-0.71875 -0.20972,0.610742 -0.58944,1.240716 -0.65625,1.8125 -0.0766,0.655336 -0.0428,1.299226 0.21875,1.875 0.26158,0.575774 0.7952,1.035047 1.46875,1.21875 1.94616,0.530794 3.95478,-0.35947 5.53125,-1.65625 1.57647,-1.29678 2.80744,-3.028423 3.15625,-4.65625 0.41609,-1.941836 0.35297,-4.891144 -0.25,-6.8125 -0.0301,-0.09607 -0.0918,-0.158689 -0.125,-0.25 1.09433,-0.808729 2.25101,-1.714495 3.53125,-2.28125 -0.002,-3.37e-4 0.0278,0.0021 0.0312,0 0.015,-0.0018 0.0353,0.0014 0.0625,0 0.0815,-0.0042 0.21135,-0.0069 0.375,0 0.3273,0.01372 0.78208,0.03476 1.3125,0.09375 1.06085,0.117986 2.44426,0.307289 3.8125,0.53125 1.36824,0.223961 2.7402,0.492063 3.8125,0.71875 0.53615,0.113344 1.00279,0.220881 1.34375,0.3125 0.34096,0.09162 0.59931,0.218321 0.5,0.15625 0.84695,0.529366 1.11092,1.353259 1.03125,2.59375 -0.0797,1.240491 -0.58081,2.776004 -1.15625,4.25 -0.57544,1.473996 -1.22592,2.871372 -1.625,3.96875 -0.19954,0.548689 -0.3674,1.014437 -0.375,1.5 -0.002,0.12802 0.0459,0.289478 0.0937,0.4375 -2.56057,0.296014 -5.26815,1.917852 -7.625,3.65625 -2.62753,1.938051 -4.72941,4.002849 -5.40625,4.78125 a 0.750075,0.750075 0 1 0 1.125,0.96875 c 0.51016,-0.586708 2.63402,-2.670872 5.15625,-4.53125 1.8293,-1.349275 3.91222,-2.569517 5.71875,-3.125 0.0196,0.183215 0.0759,0.40293 0.21875,0.5625 0.35004,0.391102 0.71909,0.314388 1,0.28125 1.19181,-0.140597 2.15935,-0.131291 2.8125,0 0.65315,0.131291 0.91882,0.329065 1.09375,0.6875 1.20597,2.470998 4.32475,4.043337 8.09375,4.78125 3.769,0.737913 8.28102,0.608466 12.5,-0.6875 0.0575,-0.01767 2.75091,-0.82739 5.65625,-2.25 2.90534,-1.42261 6.14568,-3.435444 7.40625,-6.25 a 0.75519037,0.75519037 0 1 0 -1.375,-0.625 c -0.95904,2.141318 -3.90674,4.16964 -6.6875,5.53125 -2.78076,1.36161 -5.26334,2.102751 -5.4375,2.15625 -3.95712,1.21553 -8.26935,1.343828 -11.78125,0.65625 -3.5119,-0.687578 -6.18139,-2.227412 -7.03125,-3.96875 -0.4062,-0.832278 -1.22652,-1.313113 -2.15625,-1.5 -0.50963,-0.102441 -1.14607,-0.07173 -1.78125,-0.03125 a 0.750075,0.750075 0 0 0 0.125,-0.5 c 0.0216,-0.01862 0.0455,-0.04689 0.0625,-0.0625 0.33063,-0.110401 0.6543,-0.156786 1.0625,-0.375 0.6626,-0.354211 1.47392,-0.835613 2.375,-1.40625 1.80216,-1.141274 4.00002,-2.618235 6.15625,-4 1.82269,-1.168026 3.50064,-2.11861 4.96875,-2.875 0.34858,-0.02942 0.66756,-0.05515 1.03125,-0.09375 0.72739,-0.0772 1.44118,-0.161409 2,-0.28125 0.27941,-0.05992 0.51653,-0.113023 0.75,-0.21875 0.11674,-0.05286 0.22886,-0.127334 0.375,-0.28125 0.14614,-0.153916 0.29119,-0.53265 0.1875,-0.84375 -0.12173,-0.365197 -0.43715,-0.705291 -0.78125,-0.84375 -0.3441,-0.138459 -0.69,-0.135156 -1.03125,-0.09375 -0.68251,0.08281 -1.42123,0.35027 -2.28125,0.75 -0.21417,0.09954 -0.52351,0.323026 -0.75,0.4375 -0.20279,0.01584 -0.44709,0.05028 -0.625,0.0625 -0.56897,0.03908 -1.05031,0.0625 -1.03125,0.0625 -0.58969,0 -1.02274,0.215481 -1.65625,0.53125 -0.63351,0.315769 -1.38529,0.762971 -2.21875,1.28125 -1.66693,1.036558 -3.64663,2.392279 -5.46875,3.75 -1.22887,0.915669 -2.11614,1.692288 -3.0625,2.5 0.35726,-0.982386 1.02725,-2.406351 1.625,-3.9375 0.59775,-1.531149 1.12012,-3.183096 1.21875,-4.71875 0.0986,-1.535654 -0.30612,-3.105353 -1.6875,-3.96875 -0.31423,-0.196399 -0.55338,-0.209283 -0.9375,-0.3125 -0.38412,-0.103217 -0.85347,-0.226892 -1.40625,-0.34375 -1.10555,-0.233716 -2.51906,-0.491687 -3.90625,-0.71875 -1.38719,-0.227063 -2.74204,-0.408718 -3.84375,-0.53125 -0.55086,-0.06127 -1.0512,-0.108802 -1.4375,-0.125 -0.19315,-0.0081 -0.344,-0.0081 -0.5,0 -0.156,0.0081 -0.29673,-0.0068 -0.53125,0.09375 -1.5194,0.651199 -2.80898,1.610343 -4,2.5 -0.2948,-0.178117 -0.5825,-0.424809 -0.9375,-0.34375 -0.53446,0.122036 -0.91891,0.478211 -1.28125,0.96875 -0.29073,0.393591 -0.57661,1.013777 -0.875,1.65625 -0.10852,-0.004 -0.23025,-0.08433 -0.3125,-0.0625 -0.2564,0.06805 -0.44211,0.177319 -0.625,0.3125 -0.36579,0.270362 -0.73076,0.652746 -1.125,1.125 -0.70697,0.846878 -1.44117,2.046099 -2.125,3.28125 -0.47487,0.378331 -0.96378,0.785978 -1.375,1.09375 -0.74933,0.560828 -1.38341,0.989626 -1.5,1.0625 -2.90423,1.815219 -5.53929,3.476478 -8.71875,3.53125 0.49214,-1.320251 0.79551,-3.002714 1,-4.75 0.20863,-1.782634 0.31797,-3.597808 0.3125,-5.09375 -0.003,-0.747971 -0.046,-1.428106 -0.0937,-1.96875 -0.0477,-0.540644 -0.0835,-0.894455 -0.25,-1.28125 -0.0696,-0.161608 -0.20108,-0.392541 -0.4375,-0.5 -0.23642,-0.107459 -0.50256,-0.07742 -0.65625,-0.03125 -0.30738,0.09235 -0.40064,0.227638 -0.53125,0.34375 -0.26123,0.232224 -0.51968,0.491733 -0.53125,0.5 -2.99593,2.140039 -4.43789,3.991807 -7.5,5.625 -2.76438,1.474394 -8.01542,3.097275 -12.15625,3.15625 -2.07041,0.02949 -3.8309,-0.322928 -4.875,-1.125 -0.43846,-0.336821 -0.7177,-0.824066 -0.9375,-1.34375 0.36358,-0.326036 0.73396,-0.601806 1.09375,-0.9375 6.64386,-6.198947 12.52948,-13.806394 14.03125,-18.8125 1.32377,-4.412761 2.59375,-10.282832 2.59375,-14.875 0,-0.574151 -0.0517,-1.053317 -0.25,-1.46875 -0.19829,-0.415433 -0.55796,-0.731732 -0.96875,-0.875 -0.2054,-0.07163 -0.42001,-0.115517 -0.625,-0.125 z m 0.125,1.53125 c 0.0406,0.01416 0.0346,0.0011 0.0937,0.125 0.0591,0.123929 0.125,0.382311 0.125,0.8125 0,4.310232 -1.23748,10.124771 -2.53125,14.4375 -1.30152,4.338601 -7.11279,12.080139 -13.625,18.15625 -0.0833,0.07769 -0.1665,0.141572 -0.25,0.21875 0.0139,-0.368776 -0.0878,-0.615096 0,-1.0625 1.62349,-8.269241 7.3475,-23.180686 12.03125,-29.65625 0.46143,-0.637959 1.8939,-2.061268 3.03125,-2.6875 0.56867,-0.313116 1.04378,-0.372078 1.125,-0.34375 z M 40.75,28.46875 c 0.124933,0.01129 0.237015,0.04012 0.34375,0.09375 0.42694,0.21453 0.912881,0.90854 1.15625,2.1875 0.242121,1.272401 0.219721,3.071351 -0.21875,5.28125 C 41.652825,36.000808 41.227415,36.093981 40.875,36 c -1.10611,-0.294974 -2.56711,-0.493689 -3.46875,-0.90625 -0.45082,-0.206281 -0.699157,-0.459171 -0.8125,-0.6875 -0.113343,-0.228329 -0.163883,-0.506657 0.09375,-1.125 0.873941,-2.097544 1.811801,-3.483789 2.625,-4.1875 0.4066,-0.351856 0.744185,-0.521143 1.03125,-0.59375 0.143532,-0.0363 0.281317,-0.04254 0.40625,-0.03125 z m 74.75,2.6875 c 0.55415,0.0107 1.08956,0.100535 1.625,0.25 1.42783,0.398572 2.80526,1.276527 4.15625,2.4375 2.53704,2.180208 4.92399,5.337255 7.3125,8.03125 -0.26095,0.692878 -0.59368,1.361931 -1.09375,2 -1.39167,-0.01212 -2.77377,-0.03352 -4.125,-0.125 -4.35619,-0.29493 -8.31876,-1.094708 -10.84375,-2.625 -1.26249,-0.765146 -2.16354,-1.702096 -2.65625,-2.84375 -0.49271,-1.141654 -0.60064,-2.534851 -0.15625,-4.3125 0.1093,-0.437198 0.5017,-0.888994 1.0625,-1.28125 0.5608,-0.392256 1.2637,-0.684436 1.78125,-0.90625 1.04643,-0.44849 2.01391,-0.642836 2.9375,-0.625 z m 63.25,3.5 c 0.0263,-0.0062 0.0456,-0.0033 0.0625,0 0.0337,0.0066 0.12146,0.02711 0.25,0.15625 0.25708,0.258287 0.6027,0.850143 0.875,1.53125 0.2723,0.681107 0.50046,1.445654 0.6875,2.09375 0.008,0.02845 0.0234,0.03487 0.0312,0.0625 -0.19083,-0.101825 -0.41432,-0.142903 -0.59375,-0.25 -1.12687,-0.672594 -1.97871,-1.471169 -2.21875,-2.03125 -0.12002,-0.280041 -0.11904,-0.469758 -0.0312,-0.6875 0.0877,-0.217742 0.29784,-0.490822 0.8125,-0.8125 0.0654,-0.04086 0.0987,-0.05626 0.125,-0.0625 z m -8.125,12.5625 c -0.20746,0.396903 -0.3096,0.679644 -0.65625,1.1875 0.16082,-0.501299 0.36808,-0.905415 0.65625,-1.1875 z M 50.28125,48.6875 c -0.0093,0.206007 0.05387,0.284136 -0.03125,0.59375 -0.08308,0.302181 -0.31596,0.72511 -0.46875,1.09375 -0.557952,0.222809 -1.007559,0.501505 -1.5,0.78125 0.533498,-0.729628 1.074735,-1.589273 1.53125,-2.0625 0.203776,-0.211236 0.30651,-0.27306 0.46875,-0.40625 z M 53.25,51 c 0.05628,2.65e-4 0.07101,0.02909 0.125,0.03125 -0.07303,0.02199 -0.145821,0.0044 -0.21875,0.03125 -0.686574,0.252958 -1.703532,0.826552 -2.6875,1.375 0.02802,-0.05253 0.09767,-0.104088 0.125,-0.15625 0.153651,-0.293299 0.213572,-0.532043 0.34375,-0.8125 0.13519,-0.0457 0.208965,-0.148065 0.34375,-0.1875 C 51.993543,51.072849 52.676767,50.997299 53.25,51 z m 259.78125,1 c 0.43236,1.516789 0.51309,4.386778 0.1875,5.90625 -0.23328,1.088709 -1.30537,2.701286 -2.65625,3.8125 -1.35088,1.111214 -2.90973,1.714973 -4.15625,1.375 -0.3125,-0.08523 -0.40317,-0.193111 -0.5,-0.40625 -0.0968,-0.213139 -0.15071,-0.575479 -0.0937,-1.0625 0.11381,-0.974042 0.62754,-2.354279 1.3125,-3.65625 0.004,-0.0084 -0.004,-0.02287 0,-0.03125 0.35849,-0.287567 0.70611,-0.507752 1.0625,-0.8125 0.88958,-0.760669 1.6989,-1.530751 2.28125,-2.25 0.29118,-0.359625 0.54658,-0.704578 0.6875,-1.09375 0.0268,-0.07394 0.0134,-0.169365 0.0312,-0.25 0.0514,-0.03647 0.0835,-0.05896 0.125,-0.09375 0.10646,-0.08915 0.25718,-0.217205 0.4375,-0.375 0.30743,-0.269028 0.77121,-0.647126 1.28125,-1.0625 z M 53.9375,52.40625 c 0.305341,-0.01894 0.680822,0.05464 1,0.0625 -0.0041,0.566581 -0.153923,1.338275 -0.625,2.4375 -1.034817,2.414672 -2.31532,3.520081 -3.8125,3.96875 -1.231874,0.369163 -2.71739,0.160905 -4.28125,-0.25 0.113145,-0.137283 0.231664,-0.204493 0.34375,-0.34375 0.880749,-1.094248 1.505825,-2.214195 2.25,-3.34375 0.545059,-0.213063 1.087555,-0.482108 1.65625,-0.78125 1.328516,-0.698819 2.717849,-1.514464 3.1875,-1.6875 0.07952,-0.0293 0.17947,-0.05619 0.28125,-0.0625 z m -5.375,0.25 c -0.188443,0.321796 -0.444841,0.667497 -0.65625,1 -0.388993,0.105305 -0.744884,0.146747 -0.71875,0.15625 -0.07505,-0.02729 -0.06603,-0.01377 -0.09375,-0.03125 0.03021,-0.0588 0.149605,-0.321431 0.5,-0.625 0.204969,-0.177577 0.679767,-0.31528 0.96875,-0.5 z m -2.46875,2.1875 c 0.178921,0.145296 0.340181,0.294153 0.5625,0.375 0.066,0.024 0.122944,-0.04707 0.1875,-0.03125 -0.519184,0.734503 -0.866585,1.446941 -1.4375,2.15625 -0.119552,0.148533 -0.222857,0.228859 -0.34375,0.375 0.0059,-0.258198 -0.01494,-0.512755 0.09375,-0.90625 0.151401,-0.54813 0.617623,-1.294652 0.9375,-1.96875 z M 186.25,58.78125 a 0.750075,0.750075 0 0 0 -0.15625,0.03125 0.750075,0.750075 0 0 0 -0.59375,0.75 l 0,1.625 a 0.750075,0.750075 0 1 0 1.5,0 l 0,-1.625 a 0.750075,0.750075 0 0 0 -0.75,-0.78125 z"
       id="path3433"
       inkscape:connector-curvature="0" />
  </g>
</svg>
