<?xml version="1.0" encoding="UTF-8"?>
<svg version="1.0" xmlns="http://www.w3.org/2000/svg" width="125" height="35" >
<path fill="#231F20" d="M1.42,34.556c2.931-4.485,5.812-9.003,8.64-13.554c1.677-2.697,3.332-5.412,4.865-8.193 c0.526-0.957,0.969-1.945,1.421-2.938c0.573-1.26,1.421-2.438,2.272-3.514c1.703-2.148,2.903,1.145,2.884,2.658 c-0.039,3.084-0.443,6.162-1.661,9.014c-1.365,3.197-4.367,3.925-7.38,4.632c-1.495,0.351-4.268,0.685-4.456,2.721 c-0.267,2.865,0.964,6.104,2.848,8.233c1.875,2.121,2.817-1.662,4.221-1.464c0.945,0.133,1.354-1.312,0.398-1.446 c-0.915-0.129-1.017-0.162-1.81,0.316c-0.324,0.195-0.53,0.544-0.756,0.841c-1.676,2.203-3.428-5.409-3.465-5.802 c-0.172-1.841,6.342-2.68,7.396-3.052c1.134-0.399,2.358-1.341,3.076-2.319c2.817-3.834,3.051-8.662,3.109-13.261 c0.016-1.252-0.353-4.905-2.56-4.215c-4.91,1.535-7.54,10.198-10.011,14.284C7.124,23,3.643,28.415,0.125,33.799 C-0.406,34.612,0.894,35.362,1.42,34.556L1.42,34.556z"/>
<path fill="#231F20" d="M16.496,33.104c-0.99-3.891,1.129-7.462,3.643-10.255c0.537-0.597,1.145-1.109,1.809-1.56 c1.271-0.862,1.392,0.841,1.447,1.71c0.111,1.742-0.269,3.727-1.27,5.176c-0.552,0.798,0.749,1.547,1.295,0.757 c1.288-1.864,3.06-10.924-1.608-9.25c-2.714,0.973-4.878,4.523-6.097,6.926c-1.024,2.019-1.222,4.708-0.666,6.895 C15.287,34.439,16.734,34.042,16.496,33.104L16.496,33.104z"/>
<path fill="#231F20" d="M24.448,24.026c1.364,0.272,4.805,1.1,2.294,3.622c-0.685,0.688,0.356,1.722,1.061,1.061 c0.787-0.739,3.585-3.31,4.246-0.206c0.172,0.806,1.193,0.618,1.447,0c2.771-6.746,6.386-14.004,7.5-21.25 c-0.491-0.066-0.982-0.133-1.474-0.199c-1.01,7.77-1.855,16.853-5.522,23.872c-0.447,0.856,0.847,1.615,1.295,0.757 c3.807-7.286,4.681-16.568,5.728-24.628c0.108-0.836-1.346-1.032-1.474-0.199c-1.113,7.246-4.728,14.504-7.5,21.25 c0.482,0,0.965,0,1.447,0c-0.892-4.183-4.354-2.711-6.754-0.456c0.354,0.354,0.707,0.707,1.061,1.061 c3.064-3.078,0.626-5.414-2.956-6.128C23.902,22.391,23.5,23.837,24.448,24.026L24.448,24.026z"/>
<path fill="#231F20" d="M20.644,16.2c2.634,1.538,6.073,1.463,8.983,1.223c5.283-0.436,9.726-4.316,15.021-3.745 c0.961,0.104,0.951-1.397,0-1.5c-7.826-0.844-15.328,7.35-23.246,2.728C20.563,14.417,19.81,15.713,20.644,16.2L20.644,16.2z"/>
<path fill="#231F20" d="M49.25,12.549c-0.792,1.369-3.359,1.791-4.752,2.389c-1.417,0.609-2.751,1.426-3.638,2.706 c-0.746,1.078-0.016,2.315,0.559,3.249c0.716,1.161,1.585,2.198,2.254,3.393c1.357,2.427-2.39,6.656-4.495,4.362 c-0.655-0.714-1.714,0.35-1.061,1.061c3.134,3.414,8.211-1.558,7.233-5.287c-0.351-1.336-1.401-2.546-2.19-3.642 c-1.688-2.346-0.001-3.558,2.095-4.546c1.901-0.896,4.142-0.942,5.29-2.927C51.03,12.467,49.733,11.712,49.25,12.549 L49.25,12.549z"/>
<path fill="#231F20" d="M46.651,25.075c0.651-0.281,1.971-0.762,2.095-1.573c0.061-0.404-0.096-0.805-0.524-0.922 c-0.358-0.099-0.861,0.119-0.923,0.524c-0.026,0.175,0.225-0.281,0.056-0.109c-0.133,0.134,0.071-0.041-0.111,0.085 c-0.193,0.132-0.402,0.242-0.609,0.35c-0.242,0.126-0.489,0.243-0.74,0.351c-0.375,0.162-0.456,0.706-0.269,1.026 C45.85,25.19,46.275,25.237,46.651,25.075L46.651,25.075z"/>
<path fill="#231F20" d="M54.92,24.806c0.903-1.207,1.798-2.42,2.672-3.648c0.526-0.738,1.004-1.467,1.581-2.172 c0.336-0.397,0.688-0.779,1.058-1.146c0.924-0.959,0.748-1.295,0.77-0.671c0.098,2.828-0.444,7.551-1.907,10.061 c-0.242,0.415-0.022,0.979,0.448,1.102c0.92,0.241,1.998-1.556,2.468-2.086c2.057-2.321,4.102-4.653,6.184-6.952 c0.856-0.945,1.724-1.881,2.612-2.797c0.326-0.336,0.662-0.662,1.01-0.975c-0.042,0.038-0.613-0.586-0.63,0.606 c-0.041,2.918-0.206,7.014-1.56,9.672c-0.438,0.86,0.856,1.619,1.295,0.757c1.438-2.823,1.537-6.784,1.741-9.894 c0.068-1.041-0.042-3.755-1.731-2.349c-2.379,1.981-4.374,4.542-6.424,6.848c-1.189,1.337-2.372,2.683-3.558,4.023 c-0.36,0.408-0.723,0.813-1.086,1.218c-0.689,0.768-0.623,0.298,0.077,0.482c0.149,0.367,0.299,0.734,0.448,1.102 c1.04-1.783,1.242-4.26,1.593-6.25c0.221-1.256,1.321-4.96,0.175-5.996c-2.294-2.074-7.507,6.942-8.53,8.309 C53.045,24.824,54.348,25.571,54.92,24.806L54.92,24.806z"/>
<path fill="#231F20" d="M76.769,17.905c-1.394,0.989-3.846,2.651-3.952,4.54c-0.136,2.401,3.65,2.315,5.206,2.108 c0.944-0.125,0.957-1.627,0-1.5c-0.672,0.089-4.13,0.293-3.623-0.788c0.589-1.252,2.021-2.28,3.127-3.065 C78.308,18.646,77.56,17.344,76.769,17.905L76.769,17.905z"/>
<path fill="#231F20" d="M79.045,21.056c0.886-1.583,1.721-3.191,2.462-4.848c0.752-1.682,0.774-3.313,0.848-0.473 c0.09,3.48,0.077,6.962,0.168,10.442c0.021,0.824,1.287,1.05,1.474,0.199C84.624,23.501,93.475,0.48,95.394,1.45 c0.861,0.435,1.621-0.859,0.758-1.295c-4.609-2.33-12.821,22.249-13.603,25.823c0.491,0.066,0.982,0.133,1.474,0.199 c-0.107-4.125,1.048-10.018-0.661-13.814c-0.134-0.297-0.552-0.434-0.847-0.345c-2.588,0.776-3.53,6.074-4.765,8.28 C77.277,21.145,78.573,21.9,79.045,21.056L79.045,21.056z"/>
<path fill="#231F20" d="M93.492,13.772c-1.35,1.371-2.748,2.703-4.272,3.88c-1.236,0.955,3.396,2.719,4.877,2.249 c1.186-0.376,2.198,1.869,3.541,1.41c2.379-0.813,3.755-1.075,6.283-0.8c1.345,0.146,3.828-2.27,4.244-2.181 c2.189,0.467,1.993,0.455,3.843-0.614c2.94-1.701,6.221-1.804,8.471,0.792c0.914,1.055,2.003,2.656,3.544,2.669 c0.968,0.009,0.967-1.491,0-1.5c-1.823-0.016-3.006-3.64-4.496-4.397c-1.102-0.56-2.28-0.522-3.489-0.299 c-1.856,0.342-3.691,0.807-5.335,1.758c-1.415,0.818-2.318-0.516-3.559,0.042c-2.605,1.171-2.568,2.462-6.075,1.789 c-1.094-0.21-4.498,0.96-5.016,0.328c-0.944-1.154-1.661-0.13-2.815-0.427c-1.855-0.478-3.559-1.311-5.471-0.605 c-0.463,0.17-0.69,0.648-0.448,1.102c0.061,0.113,0.121,0.227,0.182,0.34c0.124,0.233,0.39,0.368,0.647,0.372 c2.319,0.035,4.94-3.356,6.405-4.845C95.231,14.144,94.172,13.082,93.492,13.772L93.492,13.772z"/>
</svg>