<?xml version="1.0" encoding="UTF-8"?>
<svg version="1.1" xmlns="http://www.w3.org/2000/svg" width="301" height="80" >
<path d="M41.288,36.053c2.231-1.609-0.041-1.451-1.036,0.039c-0.386,0.578-0.821,1.128-1.232,1.688 c-1.756,2.392-3.538,4.764-5.33,7.128c-5.065,6.679-10.261,13.265-15.71,19.637c-2.519,2.946-5.125,5.821-7.886,8.543 c-0.913,0.9-4.875,4.404-5.048,4.265c-1.907-1.534-0.966-5.672-0.608-7.619c0.914-4.975,3.082-9.746,5.4-14.196 c6.369-12.224,16.038-21.741,26.648-30.314c10.162-8.21,21.356-16.14,33.542-21.048c2.22-0.894,8.66-3.563,10.346-0.45 c1.487,2.746-2.295,7.395-3.717,9.436c-5.803,8.327-13.354,15.514-20.526,22.644c-3.603,3.581-7.256,7.111-10.854,10.696 c-0.84,0.837-3.068,2.546-2.888,3.967c0.188,1.477,2.688,1.238,3.654,1.173c2.428-0.163-0.466,2.618-1.17,3.426 c-1.604,1.838-3.262,3.629-4.902,5.434c-2.729,3.002-5.457,6.006-8.098,9.087c-1.031,1.202-3.769,3.614-3.665,5.414 c0.19,3.282,14.984-2.032,16.583-3.096c2.181-1.451-1.161-2.011-2.407-1.182c-1.985,1.321-4.411,1.836-6.706,2.368 c-1.14,0.264-2.294,0.421-3.455,0.553c-0.054,0.006-0.099,0.374,0.427-0.412c2.317-3.462,5.403-6.52,8.184-9.598 c1.092-1.209,13.344-13.237,9.147-14.1c-1.949-0.4-4.814,1.036-2.626-1.319c3.555-3.826,7.458-7.36,11.166-11.038 c6.873-6.819,13.749-13.696,19.774-21.291c1.936-2.44,9.665-11.688,4.68-14.691c-5.432-3.272-13.912,0.944-18.858,3.26 C53.038,9.643,42.918,16.978,33.38,24.561C23.153,32.69,14.196,41.767,7.542,53.079c-2.82,4.795-5.122,9.98-6.566,15.356 c-0.737,2.743-1.764,7.21-0.004,9.815C4.054,82.813,10.974,75.9,13.2,73.752c7.18-6.927,13.392-14.956,19.521-22.8 c2.653-3.396,5.259-6.828,7.836-10.28c1.272-1.705,4.292-4.678,4.491-6.854c0.033-0.357-0.098-0.528-0.398-0.708 c-1.794-1.073-4.367,0.751-5.769,1.762C36.757,36.403,40.062,36.938,41.288,36.053L41.288,36.053z"/>
<path d="M67.644,59.457c-2.978,2.544-5.947,5.101-8.906,7.667c-2.299,1.995-4.599,3.987-6.92,5.956 c-1.059,0.898-2.555,1.965-2.487,3.48c0.069,0.19,0.198,0.321,0.389,0.395c5.597,2.687,14.569-5.297,17.856-8.889 c1.599-1.748,4.754-5.319,3.423-8.019c-0.789-1.599-3.755-0.01-4.343,1.041c-2.908,5.202,6.051,2.888,7.99,2.11 c7.513-3.017,14.735-6.901,21.832-10.77c17.813-9.709,36.432-20.887,50.431-35.793c2.133-2.271,1.131-3.585-1.872-2.558 c-3.717,1.271-7.231,4.361-10.378,6.597C119.666,31.325,104.29,42.56,91.25,55.583c-1.5,1.499-17.218,16.194-14.62,18.154 c2.252,1.698,5.625,0.359,7.76-0.794c6.593-3.563,12.052-10.051,17.843-14.728c1.708-1.379-2.159-1.318-3.082-0.572 c-4.879,3.94-9.462,8.219-14.303,12.201c-0.911,0.75-3.502,3.25-4.828,2.25c-0.479-0.36,1.964-2.755,2.088-2.887 c5.442-5.757,10.648-11.796,16.528-17.112c11.32-10.234,23.563-19.573,35.895-28.544c3.709-2.699,7.603-5.987,11.819-7.891 c0.064-0.029-1.608-0.764-2.323,0.138c-0.56,0.707-1.218,1.338-1.855,1.974c-3.448,3.439-7.175,6.591-10.981,9.623 c-16.902,13.46-36.446,24.867-56.24,33.538c-1.087,0.476-2.185,0.925-3.296,1.342c-0.311,0.117-0.616,0.211-0.934,0.302 c0.978-0.279-5.128-4.622-3.443-1.204c1.939,3.933-6.781,9.836-9.185,11.458c-0.939,0.633-6.19,3.513-3.193,0.823 c2.262-2.03,4.627-3.959,6.92-5.956c2.955-2.572,5.928-5.123,8.906-7.668C72.404,58.595,68.553,58.68,67.644,59.457 L67.644,59.457z"/>
<path d="M106.011,67.214c1.284-0.814,13.222-9.015,10.565-10.009c-4.602-1.723-12.352,7.318-15.005,9.844 c-1.917,1.824-9.273,9.106-1.715,6.598c9.022-2.994,17.697-9.439,27.397-9.995c-0.33-0.307-0.66-0.613-0.989-0.92 c-2.691,2.619-5.316,5.62-8.395,7.782c-1.691,1.188,1.934,1.091,2.681,0.642c9.235-5.554,19.733-7.795,29.496-12.373 c13.032-6.11,27.111-12.953,37.715-22.888c1.652-1.547-2.295-0.922-3.038-0.41c-10.593,7.301-21.114,14.963-30.657,23.604 c-2.816,2.551-5.476,5.289-8.104,8.03c-1.029,1.073-3.083,2.78-2.961,4.473c0.146,2.015,6.953,0.487,8.071,0.152 c10.663-3.187,20.869-8.97,30.878-13.736c10.126-4.822,20.441-10.946,31.201-14.25c-0.665-0.256-1.329-0.512-1.994-0.769 c-5.22,5.069-10.542,10.037-15.956,14.897c-3.532,3.17-7.112,6.316-10.921,9.151c-0.655,0.488-1.329,0.949-2.029,1.37 c-0.741,0.445,0.347-1.798,0.487-2.476c0.464-2.236-1.005-3.274-2.815-4.094c-0.997-0.452-4.553,1.059-3.117,1.709 c4.27,1.935,0.124,4.2,2.293,6.447c0.866,0.897,3.017,0.418,3.985,0.011c4.012-1.69,7.441-5.006,10.701-7.795 c7.207-6.163,14.124-12.693,20.926-19.298c1.008-0.979-1.654-0.873-1.994-0.769c-8.299,2.547-16.215,6.958-24.028,10.672 c-10.963,5.212-21.857,10.627-33.037,15.367c-0.784,0.333-7.952,3.724-8.789,2.374c-1.141-1.841,12.246-12.859,13.875-14.255 c8.558-7.33,17.746-14.015,27.021-20.407c-1.013-0.137-2.025-0.273-3.038-0.41c-10.544,9.878-24.581,16.678-37.582,22.692 c-9.658,4.469-19.726,6.581-28.914,12.106c0.894,0.214,1.787,0.428,2.681,0.642c3.253-2.285,6.068-5.504,8.911-8.271 c0.669-0.652-0.568-0.944-0.989-0.92c-5.816,0.333-11.402,2.616-16.73,4.807c-3.05,1.254-6.055,2.621-9.072,3.952 c-1.195,0.527-2.396,1.042-3.612,1.519c-0.814,0.319,0.535,0.439,1.311-0.525c3.496-4.347,8.142-8.141,12.586-11.475 c0.411-0.306,0.832-0.598,1.26-0.878c1.048-0.547,0.529-0.514-1.558,0.101c-0.785,1.223-2.283,2.16-3.417,3.031 c-1.895,1.455-3.893,2.798-5.911,4.076C101.491,67.732,104.929,67.899,106.011,67.214L106.011,67.214z"/>
<path d="M217.74,32.396c-2.421,2.273-2.088,4.604,1.285,4.881c3.83,0.315,7.686-1.918,10.679-4.019 c6.935-4.868,23.994-23.003,8.041-27.717c-7.807-2.307-16.629,4.169-22.208,8.765c-10.112,8.33-16.035,20.932-10.003,33.474 c0.494,1.027,4.219-0.295,3.863-1.035c-7.83-16.28,5.003-32.784,19.939-39.146c3.016-1.285,6-0.758,8.671,1.162 c3.716,2.669,2.628,7.471,0.941,10.946c-2.636,5.428-8.234,10.537-13.123,13.969c-1.26,0.884-3.104,2.161-4.75,1.888 c-1.812-0.3-0.807-2.46,0.181-3.388C222.153,31.333,218.448,31.731,217.74,32.396L217.74,32.396z"/>
<path d="M216.702,61.536c2.222-1.839,4.403-3.729,6.542-5.663c1.125-1.017,5.172-3.885,4.73-5.811 c-0.122-0.53-0.774-0.664-1.218-0.717c-3.194-0.386-7.171,4.597-9.19,6.396c-4.021,3.584-8.268,8.732-13.095,11.222 c-2.055,1.06-0.754,2.481,1.107,2.077c14.198-3.086,28.747-6.988,41.855-13.339c2.405-1.166,0.227-2.757-1.609-1.899 c-6.025,2.813-12.812,5.621-17.967,9.884c-5.337,4.414,3.76,3.515,6.095,3.013c24.093-5.186,48.025-19.213,66.111-35.569 c1.758-1.589-1.892-1.688-2.815-1.144c-11.824,6.973-23.802,14.519-33.972,23.783c-3.702,3.373-9.094,8.655-4.372,13.468 c2.996,3.053,8.58,3.225,12.521,3.354c6.918,0.227,13.898-0.833,20.71-1.906c1.966-0.31,3.092-2.866,0.444-2.449 c-6.068,0.956-12.172,1.789-18.323,1.895c-4.098,0.07-10.821,0.125-13.037-4.125c-2.432-4.667,6.964-11.006,9.782-13.266 c8.975-7.197,18.813-13.487,28.718-19.328c-0.938-0.381-1.877-0.762-2.815-1.144c-16.347,14.783-36.459,25.995-57.501,32.546 c-2.551,0.794-5.157,1.528-7.795,1.971c-0.526,0.088-1.303,0.292-1.824,0.201c0.801,0.14,1.44-0.587,2.521-1.308 c4.716-3.144,10.001-5.582,15.129-7.976c-0.537-0.633-1.073-1.266-1.609-1.899c-12.791,6.198-26.991,9.971-40.85,12.984 c0.369,0.692,0.738,1.385,1.107,2.077c6.253-3.225,11.507-9.5,16.732-14.111c1.099-0.97,2.202-1.939,3.36-2.838 c2.08-1.614-3.627,1.012-2.366-0.6c-0.663,0.847-1.489,1.587-2.259,2.333c-2.547,2.468-5.275,4.766-8.006,7.026 C211.768,62.143,215.599,62.449,216.702,61.536L216.702,61.536z"/>
</svg>