<?xml version="1.0" encoding="UTF-8"?>
<svg version="1.0" xmlns="http://www.w3.org/2000/svg" width="300" height="106" >
<path fill="#231F20" d="M35.016,49.445c-3.343,2.54,0.477,9.928,1.161,13.368c0.761,3.829,1.272,7.714,1.363,11.619 c0.092,3.931-0.138,8.162-4.978,6.521c-10.934-3.708-18.538-14.587-21.79-25.057c-1.405-4.525-2.625-9.138-2.768-13.897 c-0.179-5.983,3.013-8.839,8.447-10.153c8.759-2.12,42.732-9.164,42.335,6.993c-0.244,9.934-10.31,12.704-17.732,15.906 c-6.555,2.828-9.059,6.709-7.534,13.922c1.993,9.426,11.494,4.936,15.608,0.045c-0.589-0.455-1.178-0.909-1.767-1.363 c-1.528,2.258-7.801,11.244-2.636,12.785c5.42,1.616,6.655-13.204,5.942-16.016c-0.627,0.365-1.254,0.729-1.88,1.094 c3.875,3.599,10.396,8.734,15.584,4.972c4.458-3.232,4.303-12.137-2.646-8.867c-3.095,1.456-6.911,12.9-2.083,14.088 c3.021,0.743,7.024-4.963,8.725-6.755c5.227-5.507,10.134-11.342,14.71-17.399c2.925-3.872,7.326-8.944,7.736-14.029 c0.279-3.459-3.646-2.962-5.43-1.453c-4.319,3.654-7.034,9.415-9.281,14.473c-3.917,8.815-10.371,31.369,7.028,28.259 c1.427-0.255,0.82-2.423-0.598-2.17c-14.036,2.509-7.834-16.69-5.059-23.604c1.915-4.769,4.388-9.603,7.694-13.566 c0.38-0.455,2.519-3.038,3.311-2.424c0.825,0.64-1.175,4.008-1.478,4.579C81.628,51.454,73.112,60.545,65.174,68.73 c-1.338,1.379-2.709,2.738-4.18,3.977c-2.058,1.733-0.844-4.6-0.622-5.528c0.221-0.859,0.564-1.663,1.031-2.412 c1.735-3.16,4.348-0.29,2.951,2.158c-1.94,3.398-5.167,2.467-7.927,1.08c-2.204-1.108-4.246-2.71-6.048-4.384 c-0.824-0.765-2.162-0.017-1.88,1.094c0.619,2.44,0.15,4.915-0.431,7.316c-0.307,1.268-0.783,2.497-1.322,3.681 c-0.181,0.398-2.075,3.305-1.566,0.776c0.567-2.816,2.531-5.648,4.125-8.004c0.713-1.054-0.944-2.342-1.767-1.363 c-4.38,5.207-11.117,7.59-12.247-1.398c-0.59-4.696,2.264-6.936,6.151-8.713c6.432-2.941,13.386-4.523,17.424-10.882 c3.014-4.747,3.298-12.018-1.604-15.583c-5.678-4.131-13.726-4.108-20.427-3.856c-7.5,0.281-15.064,1.496-22.338,3.321 c-7.589,1.905-9.484,8.375-8.473,15.564c1.16,8.242,3.597,17.532,8.897,24.112c4.197,5.209,13.47,15.358,21.199,14.079 c4.98-0.824,3.686-10.751,3.388-13.849c-0.356-3.707-1.045-7.388-1.866-11.018c-0.216-0.954-2.563-6.696-1.491-7.511 C37.291,50.522,36.171,48.566,35.016,49.445L35.016,49.445 M122.401,42.195c-5.257-3.254-5.388,6.829-5.611,9.483c-0.559,6.653-0.956,13.323-1.332,19.988 c-0.082,1.45,2.168,1.442,2.25,0c0.219-3.876,0.461-7.751,0.719-11.625c0.206-3.101,0.431-6.201,0.691-9.298 c0.049-0.587,0.446-7.658,2.147-6.606C122.503,44.904,123.632,42.957,122.401,42.195L122.401,42.195 M117.333,69.542c-13.636,1.82-14.978-17.438-15.432-26.735c-0.416-8.515,2.46-15.243,11.084-17.688 c5.03-1.427,20.04-4.766,20.701,3.824c0.543,7.06-7.26,13.9-12.061,18.027c-1.867,1.604-6.307,4.302-5.297,7.368 c1.224,3.715,9.229,4.049,12.241,4.631c4.537,0.875-3.837,6.953-5.097,7.714c-2.002,1.21-4.213,2.176-6.438,2.899 c-1.374,0.447-0.786,2.62,0.598,2.17c5.654-1.838,12.004-5.102,14.585-10.742c0.718-1.568,0.18-2.936-1.307-3.692 c-3.607-1.834-8.157-1.328-11.868-3.245c-1.97-1.018,5.012-6.233,5.761-6.89c3.191-2.795,5.976-5.923,8.224-9.523 c3.227-5.167,4.781-12.385-1.835-15.347c-6.251-2.799-17-0.971-22.847,2.042c-7.176,3.697-8.853,10.902-8.694,18.453 c0.221,10.504,2.647,30.993,17.682,28.985C118.75,71.603,118.768,69.35,117.333,69.542 M145.708,29.167c-1.329,10.175-5.359,19.763-6.657,29.935c-0.167,1.307-0.372,5.955,2.356,5 c1.644-0.575,2.997-2.042,3.942-3.455c1.073-1.605,3.332-8.3,5.484-8.355c-0.266-0.64-0.53-1.28-0.796-1.92 c-1.909,2.442-4.665,5.595-4.758,8.84c-0.028,0.98,0.962,1.924,1.94,1.866c2.749-0.162,3.387-2.129,5.45-3.014 c-0.551-0.224-1.102-0.448-1.652-0.672c0.902,2.322,0.116,9.025,4.723,5.256c3.659-2.994,6.799-6.659,9.908-10.204 c0.998-1.139,1.979-2.304,3.267-3.126c1.266-0.809,2.897-0.376,4.218-1.049c0.678-0.346,0.687-1.255,0.229-1.767 c-2.002-2.233-5.163,0.22-6.832,1.575c-3.982,3.232-6.935,8.846-4.694,13.958c2.639,6.018,12.068-10.84,12.971-12.549 c-0.699-0.189-1.397-0.378-2.097-0.568c-0.063,12.639-0.595,25.531-2.834,37.983c-0.568,3.157-1.268,6.424-2.683,9.323 c-1.88,3.851-3.896,1.732-6.267-0.763c-6.045-6.363-5.262-16.396,3.207-19.959c2.859-1.204,5.84-2.169,8.75-3.25 c1.348-0.5,0.766-2.676-0.598-2.17c-8.195,3.044-19.761,6.54-17.531,17.894c1.094,5.569,9.337,18.783,14.381,9.384 c4.255-7.929,4.353-18.913,4.994-27.661c0.508-6.909,0.796-13.853,0.83-20.781c0.006-1.092-1.565-1.573-2.097-0.568 c-2.124,4.025-4.458,8.227-7.594,11.551c-1.675,1.775-1.771,0.47-1.882-1.517c-0.165-2.945,1.444-5.567,3.413-7.582 c1.001-1.023,2.231-1.803,3.471-2.501c0.955-0.539,0.939-0.833,1.499-0.208c0.076-0.589,0.152-1.178,0.229-1.767 c-1.229,0.626-2.896,0.409-4.219,1.049c-1.818,0.881-3.206,2.89-4.494,4.358c-2.667,3.041-5.426,6.028-8.427,8.744 c-2.289,2.071-1.118-2.26-1.671-3.684c-0.286-0.734-0.94-0.978-1.653-0.672c-1.251,0.537-5.191,4.6-3.118,0.629 c0.881-1.689,2.041-3.289,3.214-4.788c0.561-0.717,0.284-1.948-0.796-1.92c-3.226,0.083-4.375,3.933-5.58,6.353 c-0.635,1.276-4.106,7.182-4.065,4.097c0.029-2.134,0.566-4.292,1.011-6.37c1.79-8.37,4.646-16.436,5.759-24.955 C148.146,27.731,145.894,27.749,145.708,29.167L145.708,29.167 M192.266,44.945c-2.896,1.997-9.319,5.75-9.024,9.828c0.099,1.368,1.741,2.31,2.975,1.775 c2.224-0.964,3.442-3.711,4.339-5.814c-0.686-0.09-1.371-0.179-2.057-0.269c1.188,7.744,17.345-2.691,19.152-3.828 c-0.563-0.324-1.128-0.647-1.692-0.971c1.318,12.118,2.18,25.186-0.3,37.183c-0.568,2.751-1.459,6.264-3.917,7.949 c-4.354,2.986-12.021-3.019-14.189-6.411c-6.982-10.916,14.693-17.564,19.503-25.153c0.779-1.229-1.169-2.357-1.943-1.136 c-5.155,8.135-26.783,13.615-19.975,26.529c3.235,6.138,14.505,13.115,19.939,5.955c4.879-6.427,4.217-17.85,4.2-25.403 c-0.014-6.503-0.365-13.046-1.068-19.513c-0.087-0.798-0.904-1.467-1.692-0.971c-1.13,0.709-15.194,9.433-15.848,5.172 c-0.142-0.925-1.687-1.138-2.057-0.269c-0.375,0.881-0.813,1.726-1.272,2.564c-1.253,2.284-2.242,2.096-0.308-0.035 c1.831-2.017,4.135-3.7,6.369-5.241C194.587,46.07,193.463,44.119,192.266,44.945L192.266,44.945 M212.555,57.984c1.346-2.707,3.171-5.76,3.631-8.781c0.64-4.192-4.398,0.706-4.836,1.321 c-1.671,2.354-6.124,11.031-0.897,12.468c2.06,0.566,4.17-0.759,5.793-1.836c1.204-0.799,2.187-1.87,3.134-2.945 c0.796-0.585,0.521-0.98-0.825-1.186c0.073,0.546-0.147,1.181-0.243,1.716c-0.176,0.98-0.442,5.267,1.948,3.648 c1.695-1.147,2.598-2.872,3.25-4.753c1.051-3.032,0.269-4.403,4.408-5.829c0.557-0.192-0.466,1.731-0.669,2.309 c-1.234,3.512,1.449,6.622,4.884,5.884c1.651-0.355,3.094-2.37,4.113-3.531c2.741-3.118,5.387-5.874,9.637-6.719 c1.425-0.283,0.818-2.443-0.598-2.17c-4.207,0.812-10.549,4.479-7.423,9.653c3.193,5.283,11.908-1.197,14.971-3.339 c9.572-6.695,17.321-15.629,23.815-25.249c2.769-4.1,10.354-12.671,7.276-18.268c-3.463-6.297-9.977-1.939-11.93,2.847 c-3.484,8.537-3.898,18.815-4.688,27.941c-0.272,3.139-2.413,15.422,1.763,17.309c1.769,0.799,3.028-0.322,4.36-1.431 c3.663-3.048,10.177-7.798,15.19-5.658c2.045,0.873,2.682,3.404,3.128,5.328c0.328,1.414,2.497,0.814,2.17-0.598 c-1.075-4.635-4.071-8.29-9.256-7.361c-2.93,0.525-5.526,1.779-8.069,3.291c-1.096,0.651-6.225,5.129-6.77,3.835 c-2.008-4.761-0.524-12.001-0.067-16.946c0.641-6.938,1.257-14.136,2.946-20.9c0.92-3.682,4.042-11.456,8.866-7.023 c1.801,1.655,0.247,4.597-0.58,6.31c-3.884,8.041-9.701,15.759-15.654,22.348c-5.546,6.137-12.034,12.004-19.41,15.84 c-1.162,0.604-2.385,1.034-3.656,1.331c-3.09,0.722-3.441-2.979-1.678-4.792c1.288-1.324,3.516-1.956,5.292-2.299 c-0.199-0.723-0.398-1.447-0.598-2.17c-5.342,1.063-8.396,4.888-11.9,8.715c-1.704,1.86-4.506,1.605-3.966-1.582 c0.141-0.831,0.673-1.679,0.952-2.476c0.318-0.91,0.148-2.037-0.738-2.555c-3.23-1.893-7.115,2.671-7.821,5.277 c-0.139,0.697-0.296,1.39-0.472,2.078c-1.772,1.261-2.119,2.467-1.038,3.618c-0.021-0.796,0.244-1.661,0.376-2.443 c0.147-0.876,0.255-1.687-0.352-2.394c-0.263-0.306-0.724-0.377-1.095-0.289c-1.354,0.321-2.373,2.136-3.304,3.022 c-1.571,1.494-6.22,4.742-5.325-1.498c0.409-2.857,2.574-5.407,4.527-7.343c-1.185,1.174-0.749-1.889-1.513,0.415 c-0.395,1.188-0.938,2.329-1.452,3.468c-0.495,1.095-1.018,2.178-1.553,3.254C209.968,58.144,211.909,59.284,212.555,57.984 L212.555,57.984z"/>
</svg>