<?xml version="1.0" standalone="no"?>
<!DOCTYPE svg PUBLIC "-//W3C//DTD SVG 20010904//EN"
 "http://www.w3.org/TR/2001/REC-SVG-20010904/DTD/svg10.dtd">
<svg version="1.0" xmlns="http://www.w3.org/2000/svg"
 width="468pt" height="88pt" viewBox="0 0 468 88"
 preserveAspectRatio="xMidYMid meet">
<metadata>
Created by POTRACE VERSION, written by Peter Selinger 2001-2007
</metadata>
<g transform="translate(0,88) scale(0.011824,-0.011824)"
fill="#000000" stroke="none">
<path d="M2978 7350 c-120 -6 -143 -10 -190 -33 -29 -15 -77 -31 -105 -37 -29
-5 -71 -19 -94 -31 -23 -11 -65 -28 -93 -36 -28 -8 -60 -20 -71 -27 -11 -7
-42 -20 -69 -29 -26 -9 -71 -36 -100 -60 -28 -25 -64 -53 -81 -64 -16 -10 -50
-37 -74 -58 -24 -22 -55 -53 -70 -68 -14 -15 -54 -56 -88 -90 -34 -34 -69 -78
-79 -97 -9 -19 -25 -46 -35 -60 -10 -14 -23 -47 -29 -73 -6 -27 -22 -76 -36
-110 -14 -34 -42 -94 -61 -134 -32 -67 -35 -79 -35 -165 0 -51 2 -170 4 -264
4 -148 7 -175 25 -210 12 -21 37 -71 56 -110 20 -40 41 -100 47 -134 6 -34 15
-73 21 -86 5 -14 24 -31 44 -40 20 -8 46 -12 60 -8 14 3 34 18 45 32 11 14 28
50 37 81 10 32 16 90 16 136 0 52 -6 94 -17 120 -9 22 -17 65 -17 95 0 30 7
75 15 99 9 24 16 58 16 77 0 18 11 73 24 121 13 48 30 115 39 148 8 33 26 96
40 140 13 44 33 96 45 115 11 19 27 58 35 85 8 28 29 79 47 115 18 36 59 92
90 125 31 33 65 73 75 88 10 16 35 37 55 47 20 10 43 26 51 36 8 9 50 34 93
56 44 21 95 38 113 38 19 0 69 7 111 16 60 12 104 14 197 9 66 -4 153 -16 194
-26 41 -10 98 -30 126 -43 29 -13 87 -51 128 -84 42 -33 90 -76 107 -95 17
-20 51 -48 76 -64 29 -18 57 -48 78 -83 19 -30 50 -92 70 -136 20 -45 36 -86
36 -90 0 -5 14 -26 31 -47 24 -29 33 -52 40 -105 5 -37 15 -89 23 -115 12 -38
14 -91 11 -260 -3 -146 -9 -230 -20 -270 -8 -32 -22 -71 -30 -88 -9 -16 -21
-55 -26 -87 -6 -31 -31 -101 -56 -155 -25 -55 -55 -115 -67 -134 -11 -19 -31
-45 -44 -57 -12 -11 -32 -30 -43 -41 -12 -11 -42 -56 -68 -101 -25 -45 -60
-97 -77 -116 -16 -19 -40 -51 -53 -71 -12 -20 -27 -37 -31 -37 -5 0 -36 -27
-69 -59 -35 -35 -72 -62 -90 -66 -17 -3 -39 -4 -49 -1 -10 4 -25 17 -31 30 -7
13 -25 30 -40 37 -17 9 -80 14 -188 17 -148 3 -165 2 -205 -17 -23 -12 -61
-32 -82 -44 -27 -16 -43 -34 -52 -60 -7 -21 -28 -58 -46 -83 -25 -35 -33 -57
-33 -88 0 -32 9 -56 37 -98 31 -48 46 -60 95 -79 45 -18 79 -23 148 -23 74 -1
98 3 136 21 25 13 72 26 105 29 44 4 64 2 79 -9 18 -14 21 -34 31 -190 9 -141
17 -193 41 -278 17 -57 36 -131 43 -164 6 -33 18 -105 25 -160 8 -54 19 -122
26 -150 6 -27 18 -62 25 -77 8 -14 20 -71 29 -125 8 -54 20 -114 26 -133 6
-19 19 -80 29 -135 10 -55 30 -156 45 -225 14 -69 37 -160 51 -203 13 -43 24
-88 24 -101 0 -12 11 -59 24 -103 13 -44 33 -97 44 -119 10 -21 22 -52 26 -68
4 -16 28 -72 53 -124 26 -53 57 -104 69 -115 13 -11 26 -32 29 -48 4 -15 19
-45 35 -66 16 -21 38 -50 49 -64 17 -22 38 -30 127 -49 58 -12 126 -31 150
-41 24 -11 73 -22 109 -26 36 -3 70 -12 76 -19 7 -9 9 -31 5 -58 -4 -25 -19
-62 -33 -83 -22 -31 -26 -48 -25 -93 1 -30 4 -77 8 -105 3 -27 14 -97 25 -155
12 -64 27 -116 40 -133 11 -15 28 -46 38 -70 11 -23 48 -71 82 -107 35 -36 87
-77 114 -93 28 -15 71 -41 97 -57 26 -16 78 -38 116 -49 38 -12 80 -29 93 -39
13 -11 65 -41 114 -67 50 -27 109 -64 133 -82 23 -18 73 -41 110 -52 37 -10
94 -22 127 -25 33 -4 107 -22 165 -41 68 -22 142 -37 210 -44 58 -6 148 -15
200 -21 52 -6 136 -18 185 -26 50 -8 106 -21 125 -29 19 -7 90 -21 157 -31
108 -15 136 -16 235 -5 62 8 185 17 273 21 88 5 191 15 229 24 37 8 73 20 80
25 6 5 25 11 41 14 17 3 118 22 225 42 107 20 238 49 290 65 52 16 115 34 140
41 24 6 65 22 90 35 25 12 87 64 139 114 52 50 137 121 190 157 53 37 132 96
176 131 44 36 94 81 111 101 17 20 39 52 49 71 10 19 50 83 90 141 41 58 81
123 90 145 9 21 24 48 35 59 10 11 23 38 29 60 6 23 24 54 40 69 16 15 43 56
59 90 16 33 55 115 87 181 31 66 70 149 87 185 17 36 39 82 49 103 11 20 40
90 66 155 25 64 53 133 63 152 10 19 34 96 55 170 21 74 42 143 47 153 5 10
33 29 61 43 29 13 58 24 65 24 8 0 25 9 39 20 17 13 41 20 70 20 24 0 76 5
116 11 40 6 107 24 150 40 43 16 86 29 96 29 10 0 30 10 45 21 22 18 49 23
154 31 85 6 150 17 197 33 39 13 85 27 104 30 19 4 66 21 105 38 39 16 127 47
196 68 69 21 164 52 212 68 48 17 136 56 195 87 59 31 142 74 183 96 41 21 81
45 90 53 8 7 42 25 75 40 43 19 85 51 150 113 49 48 110 102 135 120 25 18 79
57 120 86 41 30 81 60 89 68 7 7 48 51 91 96 52 56 85 83 96 80 10 -2 28 -18
41 -36 12 -19 32 -59 43 -90 12 -31 26 -62 32 -69 6 -7 32 -13 59 -13 26 0 59
-4 74 -10 14 -5 28 -17 31 -25 4 -8 3 -26 0 -39 -3 -14 -24 -46 -46 -71 -22
-26 -47 -60 -56 -77 -10 -18 -20 -80 -26 -157 -5 -69 -18 -166 -29 -216 -10
-49 -19 -104 -19 -121 0 -16 9 -40 20 -51 10 -12 45 -31 76 -42 31 -12 68 -31
83 -42 14 -11 60 -42 101 -70 41 -27 97 -57 125 -66 28 -10 80 -17 120 -17 39
0 98 5 132 11 43 8 116 38 235 98 95 47 184 96 198 109 14 13 42 31 63 41 20
9 37 21 37 25 0 4 61 64 136 133 74 69 148 144 164 166 16 21 38 42 50 46 12
4 37 30 55 59 18 29 56 77 82 107 27 30 70 84 96 121 26 37 56 72 67 78 10 5
29 27 41 47 13 21 45 61 72 88 26 28 62 65 79 82 18 18 46 52 62 76 17 24 84
103 149 175 65 72 125 133 134 136 8 3 25 6 38 6 12 0 27 -6 33 -12 5 -7 21
-42 35 -78 15 -36 31 -86 37 -112 5 -26 20 -67 31 -91 15 -31 20 -53 15 -72
-4 -15 -19 -37 -33 -49 -15 -11 -44 -39 -65 -61 -21 -22 -50 -64 -65 -94 -17
-32 -55 -79 -98 -120 -39 -36 -90 -91 -113 -122 -24 -31 -57 -92 -75 -135 -18
-44 -41 -91 -51 -106 -13 -21 -19 -54 -23 -131 -5 -98 -4 -106 20 -148 13 -24
30 -61 37 -82 9 -27 23 -44 56 -63 24 -14 88 -39 142 -56 53 -16 133 -37 177
-45 67 -14 90 -14 153 -4 44 8 99 10 138 6 45 -5 69 -4 79 5 8 7 15 28 15 46
0 28 -4 35 -27 40 -15 4 -40 1 -57 -6 -17 -7 -45 -15 -62 -17 -26 -4 -41 4
-92 46 -34 29 -72 65 -84 81 -11 16 -41 38 -64 50 -24 11 -51 31 -60 45 -15
22 -15 32 -5 67 7 23 23 57 36 77 12 20 30 43 40 51 10 8 26 33 35 56 10 23
32 51 49 63 17 13 40 40 51 61 11 21 47 60 80 86 33 26 60 51 60 56 0 5 24 20
53 32 28 13 66 39 83 57 17 19 56 50 88 69 32 19 93 65 135 102 42 37 91 86
109 110 18 24 48 66 67 95 21 31 61 70 97 95 33 24 77 52 97 63 19 11 46 35
58 54 16 24 23 49 23 82 0 35 -6 55 -22 74 l-23 26 -100 -11 c-55 -6 -129 -19
-165 -30 -49 -14 -75 -29 -104 -59 -22 -23 -56 -46 -75 -52 -20 -6 -57 -24
-83 -41 -25 -16 -61 -31 -80 -34 -24 -4 -40 -1 -55 13 -12 10 -31 45 -43 78
-11 33 -27 85 -36 115 -8 30 -36 96 -61 145 -25 50 -56 105 -70 123 -13 17
-37 39 -53 47 -16 8 -39 15 -51 15 -11 0 -48 -14 -81 -32 -36 -19 -97 -68
-152 -123 -51 -49 -126 -119 -168 -155 -42 -36 -85 -81 -97 -101 -11 -20 -28
-42 -37 -50 -9 -7 -34 -40 -57 -74 -22 -33 -98 -127 -169 -208 -70 -81 -128
-154 -128 -162 0 -8 -18 -28 -40 -46 -21 -17 -50 -48 -63 -68 -13 -20 -60 -73
-105 -119 -44 -45 -90 -99 -102 -120 -12 -20 -37 -49 -55 -64 -18 -15 -38 -40
-44 -56 -8 -19 -31 -39 -62 -56 -26 -15 -55 -37 -64 -49 -8 -12 -57 -54 -108
-94 -50 -40 -132 -100 -182 -133 -57 -39 -110 -66 -146 -75 -31 -8 -81 -15
-110 -15 -31 0 -71 8 -94 19 -22 10 -50 28 -62 40 -13 12 -29 34 -37 49 -7 15
-17 45 -20 68 -4 24 -1 69 8 113 9 43 41 128 77 205 34 72 78 151 99 176 20
25 45 60 54 78 9 17 21 32 26 32 5 0 49 52 97 116 48 64 105 140 126 168 20
28 42 67 48 86 7 19 18 44 25 55 8 11 14 27 14 36 0 9 -13 31 -29 48 -16 17
-39 31 -52 31 -14 0 -40 -18 -68 -47 -25 -27 -64 -60 -87 -75 -23 -14 -49 -39
-59 -55 -9 -15 -33 -39 -53 -53 -20 -13 -84 -48 -141 -77 -94 -48 -110 -53
-170 -53 -36 0 -83 5 -104 11 -34 9 -42 17 -64 67 -14 31 -25 73 -26 92 0 19
12 69 27 110 15 41 41 100 58 130 18 30 39 65 49 78 10 13 25 45 34 72 9 27
33 68 54 92 21 24 46 59 56 78 10 19 34 55 54 79 20 24 53 62 74 83 21 21 45
54 53 73 13 31 13 39 -1 65 -8 16 -25 36 -37 44 -15 11 -45 16 -88 16 -45 0
-73 -5 -90 -17 -14 -9 -52 -41 -85 -70 -33 -29 -72 -72 -88 -96 -15 -23 -35
-55 -45 -71 -9 -16 -50 -78 -89 -138 -40 -59 -87 -134 -103 -166 -17 -31 -41
-67 -53 -80 -12 -13 -48 -67 -82 -121 -33 -53 -75 -121 -94 -149 -18 -28 -41
-54 -51 -57 -9 -3 -30 -22 -47 -43 -16 -20 -38 -52 -48 -69 -11 -18 -22 -33
-25 -33 -4 0 -29 -19 -57 -43 -29 -23 -85 -61 -127 -85 -41 -23 -105 -72 -141
-108 -37 -35 -81 -72 -99 -81 -17 -9 -58 -34 -91 -57 -33 -22 -105 -64 -160
-92 -55 -28 -118 -61 -140 -72 -22 -12 -64 -26 -93 -32 -28 -5 -65 -16 -82
-25 -16 -8 -60 -22 -97 -29 -38 -8 -104 -29 -148 -46 -44 -17 -91 -36 -105
-41 -14 -6 -101 -33 -195 -59 -93 -27 -188 -51 -210 -55 -22 -4 -74 -17 -115
-30 -41 -13 -122 -33 -180 -45 -58 -12 -134 -28 -170 -36 -36 -9 -80 -20 -97
-27 -21 -7 -36 -8 -42 -2 -6 6 -6 43 -1 93 6 60 18 101 41 150 17 37 43 79 57
94 18 20 32 59 54 153 16 69 54 195 85 278 30 84 64 179 75 212 10 33 30 98
43 145 14 47 36 118 50 158 14 40 30 92 35 115 5 23 22 78 38 122 16 44 36 94
44 110 9 17 23 75 32 131 10 65 12 111 7 130 -5 16 -18 51 -30 77 -12 27 -21
57 -21 66 0 10 10 27 23 39 13 12 33 22 46 22 12 0 32 5 44 11 12 7 25 17 29
23 4 6 8 29 8 52 0 28 -6 46 -19 58 -11 10 -37 20 -59 23 -31 4 -56 -2 -119
-31 -44 -20 -90 -36 -103 -36 -12 0 -54 -11 -93 -25 -68 -23 -75 -24 -131 -11
l-59 14 -146 -53 c-80 -29 -179 -67 -219 -84 -41 -17 -87 -41 -103 -53 -16
-13 -46 -36 -65 -52 -19 -16 -41 -41 -49 -57 -8 -15 -24 -30 -35 -34 -11 -4
-36 -29 -54 -57 -19 -27 -50 -61 -70 -74 -20 -14 -47 -46 -61 -74 -18 -36 -36
-55 -65 -70 -22 -11 -44 -29 -50 -40 -6 -10 -33 -45 -61 -77 -28 -32 -69 -88
-92 -126 -23 -37 -66 -98 -95 -135 -29 -37 -73 -107 -97 -157 -40 -81 -47
-105 -66 -240 -12 -82 -24 -177 -26 -211 -4 -43 1 -85 17 -145 12 -46 29 -97
39 -114 11 -19 33 -36 62 -46 25 -10 90 -23 145 -30 54 -7 110 -12 124 -12 14
1 59 9 100 18 41 9 91 20 110 25 19 5 72 22 118 38 75 26 90 37 153 101 38 40
81 89 94 109 14 20 59 75 100 122 42 47 83 97 93 112 9 15 23 30 31 33 11 5
13 -6 7 -56 -5 -50 -15 -77 -51 -135 -25 -40 -51 -87 -57 -105 -6 -18 -24 -54
-38 -79 -15 -25 -50 -86 -79 -137 -28 -50 -67 -140 -86 -200 -19 -59 -42 -119
-51 -132 -16 -23 -20 -23 -133 -19 -64 3 -172 -1 -241 -8 -69 -7 -150 -14
-180 -14 -30 0 -82 -7 -115 -16 -33 -8 -141 -19 -240 -24 -99 -4 -247 -13
-330 -20 -82 -6 -170 -18 -195 -25 -25 -8 -91 -19 -148 -24 -56 -6 -199 -11
-317 -11 -191 0 -224 -3 -317 -24 -57 -14 -137 -27 -178 -31 -58 -5 -79 -3
-95 9 -18 13 -18 16 -5 30 8 8 56 39 105 69 85 51 93 59 137 133 25 43 64 97
86 120 22 22 47 56 55 75 8 20 28 51 44 70 16 19 46 59 66 89 21 30 37 60 37
66 0 6 14 28 30 49 17 21 30 43 30 50 0 7 21 43 46 80 25 37 62 100 81 141 23
49 38 97 43 142 4 37 21 103 38 147 16 44 41 116 55 160 14 44 30 111 37 149
6 38 22 102 36 142 13 40 24 93 24 119 0 27 11 71 26 108 20 46 25 72 21 106
-4 37 -13 53 -46 83 -22 21 -51 38 -63 38 -13 0 -48 12 -78 26 -35 17 -71 27
-100 26 -25 0 -70 -9 -100 -20 -30 -11 -87 -25 -127 -30 -55 -8 -87 -19 -134
-48 -34 -21 -68 -49 -76 -61 -9 -13 -51 -48 -94 -78 -43 -30 -86 -66 -95 -80
-9 -13 -26 -27 -37 -31 -12 -4 -53 -36 -90 -73 -37 -36 -91 -82 -120 -103 -29
-20 -81 -57 -117 -81 -36 -25 -81 -62 -101 -83 -20 -22 -63 -91 -95 -155 -33
-63 -69 -137 -81 -165 -12 -27 -29 -71 -38 -99 -9 -27 -27 -88 -39 -135 -12
-47 -28 -95 -35 -107 -6 -13 -16 -49 -22 -80 -6 -32 -23 -101 -39 -153 -16
-52 -34 -124 -40 -160 -7 -38 -9 -96 -6 -140 4 -41 14 -97 23 -125 9 -27 25
-63 37 -80 11 -16 46 -60 78 -97 35 -41 55 -74 52 -83 -3 -8 -13 -17 -22 -19
-10 -3 -60 -10 -112 -17 -52 -6 -129 -19 -171 -29 -41 -10 -93 -27 -115 -38
-21 -11 -63 -25 -92 -31 -29 -6 -103 -35 -165 -65 -62 -30 -142 -68 -178 -84
-37 -17 -82 -33 -100 -37 -19 -4 -50 -17 -69 -29 -19 -13 -56 -35 -82 -50 -26
-15 -60 -40 -76 -57 -16 -17 -45 -40 -64 -52 -20 -12 -68 -46 -107 -75 -39
-30 -74 -59 -78 -66 -5 -8 -37 -26 -73 -41 -36 -15 -82 -30 -103 -32 -22 -3
-71 2 -110 12 -38 9 -90 25 -113 36 -33 13 -47 27 -59 55 -8 20 -38 59 -65 87
-27 27 -54 65 -61 85 -6 21 -26 66 -44 102 -18 36 -42 94 -53 130 -11 36 -25
106 -31 155 -7 50 -25 160 -41 245 -16 85 -36 200 -44 255 -9 55 -23 145 -32
200 -9 55 -24 119 -34 142 -10 23 -24 68 -30 100 -7 32 -26 103 -43 158 -16
55 -58 174 -93 265 -34 91 -76 194 -93 230 -17 36 -35 89 -41 118 -6 34 -21
67 -40 90 -16 20 -30 41 -30 46 0 5 -14 31 -31 57 -22 34 -29 57 -27 81 3 29
10 36 55 59 29 15 68 40 87 57 19 16 47 37 63 47 16 9 40 33 53 53 13 21 37
51 54 68 17 17 58 60 90 97 33 37 64 75 70 86 6 10 38 58 70 107 32 49 63 103
69 119 5 17 24 46 42 65 19 20 75 121 128 230 52 107 100 220 107 251 7 31 10
83 7 115 -3 37 3 100 15 169 13 70 18 132 15 170 -3 33 -17 141 -30 240 -17
128 -31 197 -49 240 -14 33 -29 75 -33 94 -4 19 -26 64 -50 100 -23 36 -56 76
-73 88 -17 12 -43 46 -59 75 -23 44 -39 59 -94 89 -36 20 -84 50 -105 67 -21
17 -69 47 -105 66 -36 20 -117 56 -180 81 -63 25 -143 50 -179 55 -36 5 -96 9
-135 8 -38 -1 -132 -4 -207 -8z m6852 -2605 c27 -13 51 -29 54 -34 3 -4 12
-34 20 -65 14 -53 14 -60 -10 -138 -13 -45 -35 -98 -48 -118 -12 -19 -30 -51
-39 -70 -9 -19 -42 -63 -72 -98 -30 -35 -73 -94 -94 -131 -22 -38 -72 -106
-111 -152 -39 -46 -88 -104 -110 -129 -21 -25 -59 -72 -84 -105 -24 -33 -61
-79 -82 -103 -20 -23 -96 -94 -168 -156 -72 -62 -140 -118 -151 -123 -11 -6
-52 -14 -91 -18 -45 -4 -79 -3 -92 4 -13 7 -22 26 -27 63 -5 29 -8 96 -8 148
0 55 8 124 18 163 9 38 38 108 63 155 25 48 63 107 83 130 21 24 43 60 50 80
6 21 21 53 33 72 13 19 32 56 44 83 12 26 28 50 37 53 8 4 34 37 56 75 22 38
43 69 48 69 4 0 16 16 27 36 13 25 36 44 77 65 32 16 74 48 95 70 20 22 56 60
78 84 29 29 63 50 110 68 38 15 87 31 109 36 22 5 62 9 88 10 32 1 63 -7 97
-24z m-2434 -209 c16 -12 19 -26 19 -83 -1 -38 -13 -121 -29 -188 -15 -66 -34
-142 -41 -170 -7 -27 -22 -75 -33 -105 -12 -30 -35 -104 -53 -165 -18 -60 -45
-129 -61 -154 -15 -25 -28 -50 -28 -56 0 -6 -11 -26 -23 -45 -13 -19 -32 -59
-41 -87 -10 -29 -22 -56 -28 -59 -6 -4 -25 -40 -44 -81 -19 -40 -56 -106 -83
-146 -27 -39 -61 -83 -76 -97 -15 -14 -40 -43 -54 -65 -15 -22 -43 -63 -64
-91 -21 -29 -48 -59 -62 -68 -13 -9 -36 -37 -52 -63 -15 -27 -32 -50 -37 -52
-5 -2 -46 -29 -90 -59 -69 -47 -89 -56 -136 -60 -36 -3 -69 1 -93 11 -20 9
-46 31 -57 49 -17 27 -20 44 -17 93 3 33 16 96 30 140 14 44 28 105 32 136 4
40 16 72 40 110 19 29 42 76 51 103 9 28 34 92 56 141 22 50 59 130 84 178 24
48 44 95 44 102 0 8 15 32 33 52 19 21 46 61 62 88 15 28 47 84 70 125 23 41
48 92 54 113 7 21 24 45 37 54 14 9 36 35 50 59 14 24 41 53 59 64 19 12 44
37 56 56 11 19 42 51 68 70 25 20 68 60 94 90 28 31 62 58 80 63 18 5 62 10
98 10 42 1 72 -4 85 -13z m2244 -766 c0 -24 -8 -35 -40 -55 -22 -14 -42 -25
-45 -25 -3 0 -5 13 -5 29 0 21 9 37 33 55 17 14 38 26 45 26 7 0 12 -13 12
-30z m-556 -1146 c11 -4 16 -19 16 -43 0 -20 -7 -49 -16 -66 -9 -16 -36 -75
-61 -130 -25 -55 -53 -109 -63 -120 -10 -11 -32 -42 -49 -70 -17 -27 -54 -97
-81 -154 -33 -67 -66 -119 -93 -146 -23 -23 -56 -64 -74 -92 -17 -28 -37 -69
-44 -92 -7 -23 -26 -58 -44 -79 -17 -20 -42 -53 -55 -72 -13 -19 -37 -51 -54
-72 -17 -20 -47 -62 -66 -93 -21 -34 -49 -63 -70 -75 -19 -10 -87 -70 -150
-134 -63 -64 -138 -130 -166 -145 -30 -18 -87 -69 -142 -130 -51 -56 -92 -106
-92 -112 0 -5 -15 -16 -33 -24 -19 -8 -39 -21 -46 -29 -7 -8 -38 -22 -69 -32
-42 -12 -67 -27 -95 -57 -21 -23 -66 -56 -100 -73 -34 -17 -98 -50 -142 -72
-44 -23 -89 -42 -100 -42 -11 0 -69 -21 -130 -47 l-110 -46 -165 -8 c-96 -4
-188 -14 -220 -23 -48 -14 -85 -15 -280 -6 -124 6 -247 15 -275 20 -27 6 -75
17 -105 25 -30 8 -88 15 -130 15 -41 0 -103 5 -137 10 -35 6 -103 30 -155 54
-51 25 -127 54 -168 66 -41 12 -79 26 -85 30 -5 4 -34 15 -64 24 -30 9 -72 26
-95 40 -23 13 -59 29 -80 36 -22 7 -55 22 -75 33 -20 11 -89 51 -153 90 -65
38 -118 73 -118 77 0 4 -20 30 -43 56 -24 27 -50 60 -57 74 -7 13 -21 56 -31
95 -12 45 -19 106 -19 172 0 73 5 119 20 165 11 34 20 69 20 77 0 8 11 28 24
45 13 17 31 57 40 89 9 32 25 65 36 74 10 9 56 36 102 61 46 24 90 50 98 56 8
7 29 18 46 24 17 5 73 40 123 76 50 36 126 84 168 107 43 22 98 49 123 59 25
10 90 36 145 59 55 23 117 53 137 66 23 15 93 38 180 60 79 19 195 42 258 51
63 8 153 25 200 37 75 19 107 22 277 19 170 -2 198 0 250 17 48 17 103 22 318
31 143 6 343 15 445 20 106 5 226 18 281 29 52 11 153 23 225 26 71 3 194 17
274 30 80 13 231 31 337 40 105 9 207 20 225 26 18 5 53 9 78 10 25 1 56 5 70
9 14 4 35 8 47 9 12 1 28 -2 37 -5z"/>
<path d="M3482 6384 c-7 -3 -24 -23 -37 -45 -14 -21 -40 -46 -57 -55 -18 -9
-55 -39 -83 -67 -27 -27 -68 -62 -92 -77 -24 -15 -65 -49 -92 -76 -26 -27 -84
-80 -128 -119 -44 -38 -90 -86 -101 -105 -11 -19 -39 -53 -62 -75 -23 -22 -50
-56 -60 -76 -12 -23 -29 -39 -45 -43 -16 -4 -38 -26 -59 -59 -19 -28 -45 -63
-59 -75 -14 -13 -31 -36 -37 -52 -6 -15 -22 -33 -36 -41 -14 -7 -42 -35 -62
-62 -20 -27 -46 -61 -57 -77 -11 -15 -32 -50 -47 -77 -16 -26 -46 -77 -68
-113 -21 -36 -51 -86 -65 -112 -14 -27 -29 -48 -34 -48 -4 0 -27 -31 -49 -70
-23 -38 -42 -72 -42 -74 0 -3 -34 -67 -76 -143 -42 -76 -96 -174 -119 -219
-23 -44 -46 -91 -50 -105 -4 -13 -28 -64 -52 -114 -25 -49 -63 -142 -85 -205
-22 -63 -53 -145 -69 -182 -16 -36 -29 -72 -29 -79 0 -7 -12 -28 -26 -47 -15
-18 -38 -64 -51 -100 -14 -37 -33 -95 -43 -129 -10 -35 -22 -68 -28 -75 -6 -7
-40 -71 -77 -143 -37 -71 -80 -150 -95 -175 -16 -25 -34 -65 -40 -90 -7 -24
-29 -78 -51 -120 -21 -41 -68 -115 -103 -165 -35 -49 -86 -128 -111 -175 -26
-47 -59 -101 -74 -120 -14 -19 -37 -53 -51 -77 -14 -23 -38 -63 -55 -89 -16
-26 -44 -61 -62 -78 -17 -17 -52 -48 -77 -68 -25 -20 -74 -52 -107 -70 -43
-22 -80 -54 -122 -103 -34 -38 -75 -82 -93 -96 -18 -14 -59 -51 -91 -83 -32
-31 -77 -75 -101 -98 -24 -24 -59 -75 -79 -115 -21 -43 -36 -88 -37 -112 0
-29 5 -47 20 -62 12 -11 39 -23 60 -26 30 -3 66 5 150 36 101 37 123 42 260
51 82 5 172 13 199 16 44 5 56 12 100 59 28 28 63 60 78 70 15 10 35 32 44 49
8 17 48 65 87 107 39 42 83 89 98 105 15 16 34 36 43 44 8 8 40 51 70 95 30
44 64 96 74 116 11 19 41 61 67 93 25 32 52 76 60 99 7 23 29 80 49 127 20 47
48 111 61 144 14 32 34 71 46 86 14 19 23 52 28 102 4 40 14 87 23 105 9 17
26 58 38 90 12 32 26 63 30 69 5 6 18 35 28 65 10 30 28 74 40 99 11 25 21 56
21 70 0 14 12 52 26 85 14 33 34 92 44 130 10 39 37 119 59 179 22 59 45 132
50 162 6 29 19 70 30 91 10 22 63 169 116 328 53 160 105 304 115 320 10 17
26 58 34 93 9 34 37 101 62 149 26 48 65 117 87 153 23 36 61 92 84 125 24 33
57 87 73 120 17 33 38 74 46 90 9 17 32 55 52 85 20 30 71 93 115 140 43 47
85 92 94 100 9 8 28 28 42 43 14 15 44 47 67 70 23 23 51 61 62 84 12 23 26
44 31 48 6 3 22 28 37 55 19 35 42 58 83 83 31 19 71 42 89 51 18 10 50 33 70
52 20 19 79 74 130 123 86 83 92 91 92 128 0 27 -6 46 -20 58 -10 9 -38 19
-62 21 -24 2 -49 1 -56 -2z"/>
<path d="M30141 6019 c-15 -9 -37 -29 -49 -44 -12 -15 -22 -34 -22 -42 0 -8
-18 -58 -39 -111 -22 -53 -43 -108 -47 -122 -4 -14 -39 -90 -79 -170 -40 -80
-85 -177 -99 -217 -15 -39 -34 -77 -43 -85 -9 -7 -27 -37 -40 -66 -12 -29 -23
-59 -23 -66 0 -8 -16 -38 -36 -67 -20 -29 -61 -113 -90 -187 -30 -74 -54 -140
-54 -146 0 -6 -10 -27 -23 -46 -13 -19 -30 -51 -37 -70 -8 -19 -24 -51 -36
-70 -13 -19 -26 -48 -30 -65 -3 -16 -15 -43 -24 -60 -10 -16 -26 -57 -35 -90
-10 -33 -34 -96 -55 -140 -20 -44 -42 -96 -49 -116 -6 -19 -27 -60 -46 -90
-20 -29 -42 -76 -51 -104 -8 -27 -25 -70 -38 -95 -13 -25 -42 -81 -65 -125
-23 -44 -53 -109 -65 -145 -13 -36 -31 -85 -40 -110 -9 -25 -33 -76 -53 -115
-20 -38 -44 -82 -55 -97 -10 -14 -28 -68 -40 -118 -15 -67 -32 -108 -59 -149
-20 -31 -41 -70 -45 -86 -4 -17 -14 -46 -24 -65 -9 -19 -22 -59 -29 -88 -7
-29 -10 -64 -7 -77 3 -13 15 -29 26 -35 13 -7 54 -8 124 -2 66 6 114 15 129
25 13 9 39 41 56 72 18 32 36 81 41 111 5 31 21 72 38 96 16 24 37 59 47 78
10 19 31 51 47 71 16 20 38 65 49 99 10 34 30 76 44 92 14 16 25 35 25 41 0 7
10 30 21 52 12 22 30 63 40 90 9 28 34 88 54 135 20 47 50 118 66 158 16 41
61 134 100 208 39 74 76 152 84 173 7 21 37 83 67 137 29 54 64 128 77 164 13
36 33 83 46 105 13 22 31 67 40 100 9 33 23 69 30 81 7 11 18 38 24 60 6 21
35 77 66 122 31 46 69 110 85 142 16 32 36 77 43 98 8 22 37 78 65 124 28 46
67 127 86 179 20 52 52 126 72 164 19 39 73 144 120 235 76 147 85 170 81 208
-3 24 -13 52 -23 63 -17 19 -29 20 -167 18 -118 -3 -154 -6 -176 -20z"/>
<path d="M29095 5954 c-58 -30 -108 -65 -142 -99 -45 -47 -55 -65 -79 -142
-15 -48 -49 -135 -75 -192 -27 -57 -49 -110 -49 -116 0 -7 -13 -38 -29 -68
-16 -30 -34 -72 -41 -93 -7 -22 -22 -57 -35 -79 -13 -22 -39 -83 -59 -135 -20
-52 -45 -114 -56 -137 -11 -23 -28 -78 -40 -121 -11 -44 -33 -112 -49 -152
-17 -40 -39 -82 -50 -94 -11 -11 -67 -119 -126 -239 -78 -160 -115 -223 -137
-240 -16 -12 -54 -56 -84 -97 -30 -41 -78 -105 -107 -141 -29 -37 -83 -97
-122 -134 -38 -37 -82 -73 -97 -81 -19 -10 -33 -31 -49 -74 -17 -47 -33 -70
-70 -101 -27 -22 -52 -54 -59 -73 -6 -18 -24 -46 -41 -62 -17 -16 -49 -63 -72
-104 -40 -72 -42 -79 -45 -175 -2 -55 1 -146 6 -203 7 -76 14 -111 29 -130 11
-15 61 -48 112 -75 66 -34 109 -49 150 -53 31 -4 81 -1 109 5 29 6 91 29 139
52 49 22 114 54 146 70 32 17 83 46 113 65 30 19 74 43 97 53 26 11 52 33 68
57 14 22 38 60 53 86 14 26 26 60 26 77 0 20 -8 35 -22 45 -12 9 -37 16 -55
16 -23 0 -45 -11 -78 -40 -25 -22 -50 -40 -56 -40 -5 0 -33 -22 -63 -49 -30
-27 -65 -52 -78 -56 -12 -4 -36 -17 -53 -29 -16 -13 -45 -28 -64 -34 -19 -7
-44 -12 -55 -12 -12 0 -39 -9 -61 -20 -22 -11 -50 -20 -63 -20 -13 0 -39 7
-58 16 -18 9 -45 26 -59 39 -17 17 -25 34 -25 58 0 22 11 49 31 76 17 24 39
63 49 87 14 32 29 49 56 61 24 12 43 32 57 60 12 23 38 52 57 65 19 13 46 41
61 62 14 22 42 47 62 57 20 11 43 29 51 41 9 13 42 52 74 88 31 35 79 85 106
110 27 25 61 57 75 73 14 15 42 44 62 65 20 20 43 57 50 81 9 29 31 62 70 101
35 36 63 76 75 106 10 27 54 119 97 204 43 85 90 184 104 220 13 36 31 94 39
130 9 36 27 94 41 130 14 36 56 126 93 200 38 74 80 157 94 184 14 27 26 56
26 64 0 8 23 72 51 141 28 69 64 151 80 181 15 30 42 85 59 121 16 36 30 71
30 77 0 6 22 33 49 59 44 44 49 53 55 110 5 46 3 70 -8 90 -7 15 -24 37 -36
48 -17 15 -39 20 -93 22 -68 3 -77 1 -162 -43z"/>
<path d="M21331 5868 c-22 -8 -43 -26 -60 -54 -15 -23 -70 -84 -123 -135 -52
-52 -105 -113 -117 -136 -11 -23 -42 -68 -67 -100 -26 -32 -70 -83 -99 -113
-29 -30 -61 -71 -70 -90 -10 -19 -36 -57 -59 -83 -23 -27 -59 -68 -81 -91 -22
-23 -62 -81 -89 -129 -27 -48 -54 -91 -60 -95 -7 -4 -22 -21 -34 -39 -12 -17
-29 -50 -37 -73 -8 -23 -30 -67 -49 -98 -19 -31 -42 -87 -51 -124 -12 -43 -16
-89 -13 -133 3 -56 8 -71 27 -86 13 -11 33 -19 45 -19 12 0 31 7 43 15 13 9
51 59 86 113 35 53 78 120 95 147 17 28 49 79 71 115 21 36 62 92 91 124 28
32 62 82 74 110 13 28 33 60 45 70 12 11 35 43 51 71 16 28 39 60 51 71 12 10
38 43 58 73 20 29 52 79 72 110 20 31 42 56 50 56 7 0 18 -12 23 -27 7 -19 4
-52 -10 -115 -10 -48 -18 -115 -18 -148 0 -33 6 -109 14 -170 9 -73 13 -208
12 -400 -1 -159 -6 -362 -11 -450 -5 -88 -16 -186 -25 -217 -9 -32 -18 -101
-22 -155 -3 -54 -14 -147 -25 -208 -10 -60 -24 -139 -30 -175 -6 -36 -22 -90
-34 -120 -13 -30 -32 -116 -44 -192 -11 -75 -25 -148 -31 -163 -5 -14 -10 -70
-10 -123 0 -77 4 -103 19 -128 10 -17 32 -36 49 -43 26 -11 36 -10 65 4 19 9
39 26 44 38 6 12 33 69 61 127 28 58 60 111 71 118 12 7 34 38 50 70 16 31 54
104 86 162 32 58 68 119 81 135 12 17 25 41 29 55 4 14 20 46 36 71 16 25 29
50 29 54 0 5 17 29 38 54 21 25 56 73 77 106 21 33 51 75 68 94 16 19 42 62
58 95 16 34 47 86 70 116 22 30 49 74 61 97 11 23 37 62 57 85 21 24 51 64 68
89 17 25 39 51 48 59 9 7 26 32 37 54 11 22 42 59 67 82 35 32 51 56 64 98 10
30 29 69 43 85 13 16 36 56 51 88 14 32 49 92 77 133 28 41 58 93 66 115 11
28 21 40 35 40 16 0 21 -9 25 -40 3 -22 2 -83 -1 -136 -5 -64 -14 -112 -28
-144 -11 -26 -27 -86 -36 -133 -8 -48 -20 -103 -25 -122 -6 -19 -15 -148 -20
-285 -5 -138 -14 -282 -20 -320 -6 -39 -17 -90 -25 -115 -8 -25 -19 -88 -25
-140 -5 -52 -13 -120 -16 -150 -3 -30 -17 -113 -30 -185 -14 -71 -36 -184 -50
-250 -14 -66 -30 -134 -35 -152 -6 -17 -23 -48 -39 -68 -16 -20 -38 -63 -49
-97 -12 -34 -21 -71 -21 -83 0 -11 16 -53 35 -93 19 -40 41 -75 50 -78 8 -4
28 -1 44 5 15 7 48 37 72 68 24 31 59 70 77 87 18 17 63 60 100 96 37 36 83
86 103 113 20 26 54 60 75 76 22 15 68 57 104 92 36 35 102 103 147 151 44 47
94 93 110 102 17 8 37 26 47 40 9 14 31 33 48 42 18 9 54 37 81 63 26 25 72
70 100 99 36 35 60 52 78 52 15 0 58 24 107 61 46 33 86 68 90 77 3 9 38 48
76 85 39 38 92 79 117 92 25 13 51 31 59 40 7 9 31 25 52 36 21 11 45 30 54
44 9 14 33 35 54 46 21 12 43 31 50 43 6 11 39 41 71 66 33 25 77 59 98 75 21
17 58 44 81 60 23 17 65 49 95 72 29 22 65 48 81 56 16 8 38 25 49 37 11 12
38 31 60 42 22 11 61 39 86 62 25 22 68 59 96 81 27 22 67 62 87 88 21 27 55
59 75 72 20 12 52 39 71 60 19 20 49 45 67 56 18 11 42 37 53 57 13 23 39 47
66 61 27 15 54 40 68 62 12 21 37 49 56 61 18 13 45 45 60 73 l27 49 189 2
189 1 98 36 c54 20 104 40 110 45 7 5 32 13 57 17 25 4 65 16 90 26 25 11 55
29 67 41 13 12 25 39 29 63 3 26 1 51 -6 65 -6 12 -27 28 -47 36 -28 12 -46
13 -91 4 -32 -6 -75 -17 -97 -25 -22 -7 -75 -23 -117 -35 -66 -18 -81 -19
-107 -8 -16 7 -46 33 -66 58 -20 25 -50 64 -67 87 -25 34 -46 48 -101 69 -54
21 -81 25 -127 22 -38 -3 -66 -11 -79 -22 -10 -10 -22 -30 -26 -44 -3 -15 -22
-67 -42 -117 -20 -49 -52 -109 -72 -133 -20 -23 -77 -84 -127 -135 -50 -51
-119 -115 -152 -142 -34 -28 -62 -54 -62 -58 0 -4 -47 -54 -103 -110 -57 -56
-119 -116 -138 -132 -19 -17 -54 -44 -79 -60 -24 -17 -64 -49 -88 -73 -23 -23
-62 -54 -85 -69 -23 -15 -71 -54 -107 -88 -36 -33 -92 -81 -124 -107 -32 -27
-64 -48 -71 -48 -8 0 -22 -10 -32 -23 -10 -13 -31 -32 -48 -42 -16 -11 -72
-51 -123 -90 -52 -38 -118 -88 -147 -110 -29 -22 -100 -81 -158 -131 -57 -50
-131 -112 -163 -137 -33 -26 -75 -69 -94 -96 -19 -28 -52 -60 -73 -71 -21 -12
-68 -48 -105 -79 -37 -31 -82 -67 -100 -80 -18 -13 -54 -55 -81 -94 -27 -40
-63 -82 -80 -95 -17 -13 -35 -21 -40 -18 -4 3 -4 31 1 62 5 31 13 65 18 74 5
10 19 61 31 113 17 78 19 107 11 163 -4 38 -5 105 -1 149 4 44 12 141 18 215
6 74 15 160 21 190 6 30 15 156 20 280 6 124 14 279 20 345 5 66 12 147 15
180 2 33 10 132 16 220 9 122 9 170 0 203 -9 30 -21 48 -43 62 -17 10 -64 26
-105 35 -40 9 -86 14 -101 10 -16 -3 -56 -34 -94 -73 -37 -37 -73 -84 -82
-106 -9 -22 -60 -84 -121 -146 -64 -65 -112 -124 -124 -151 -10 -24 -35 -60
-55 -79 -20 -19 -48 -54 -61 -77 -14 -23 -40 -54 -58 -70 -19 -15 -49 -50 -68
-76 -19 -27 -63 -92 -99 -145 -39 -57 -83 -110 -110 -130 -25 -18 -62 -49 -82
-68 -21 -21 -43 -55 -53 -83 -8 -25 -30 -64 -48 -85 -17 -21 -50 -73 -72 -115
-34 -65 -44 -76 -69 -79 l-28 -4 4 64 c3 35 13 106 23 158 14 74 16 123 11
225 -3 72 -10 173 -15 225 -5 52 -7 232 -6 400 2 168 6 397 10 510 5 142 4
218 -4 246 -6 22 -22 51 -37 65 -22 21 -36 24 -102 26 -42 1 -92 -3 -111 -9z"/>
<path d="M30888 5411 c-26 -10 -62 -31 -79 -45 -17 -15 -50 -36 -73 -48 -22
-11 -52 -31 -66 -44 -14 -12 -42 -30 -62 -38 -31 -13 -47 -33 -107 -138 l-71
-123 0 -81 c0 -71 4 -91 34 -156 19 -41 42 -78 51 -82 9 -3 41 -6 71 -6 35 0
69 7 93 19 21 11 52 36 70 56 17 20 45 66 61 102 20 43 48 83 84 117 47 46 57
62 75 127 12 41 32 110 46 155 14 44 25 96 25 116 0 20 -8 45 -17 57 -10 12
-34 24 -53 26 -21 3 -54 -2 -82 -14z"/>
<path d="M27320 5405 c-25 -8 -66 -32 -92 -53 -25 -21 -79 -51 -120 -66 -40
-15 -91 -39 -112 -54 -22 -15 -51 -47 -66 -72 -15 -25 -32 -60 -38 -79 -7 -19
-12 -55 -12 -81 0 -33 10 -66 32 -110 17 -35 49 -79 70 -99 22 -20 62 -57 88
-83 27 -26 57 -51 67 -56 10 -6 79 -16 153 -24 74 -7 221 -13 325 -12 162 0
196 3 228 19 21 10 45 31 53 47 8 16 16 47 17 69 1 31 -5 45 -26 67 -22 22
-36 27 -75 27 -26 0 -82 -6 -125 -13 -43 -6 -88 -14 -100 -17 -12 -3 -31 0
-41 8 -18 13 -18 18 -6 63 7 27 17 72 22 99 6 28 10 70 10 95 0 25 -3 77 -7
115 -6 56 -16 84 -49 139 -23 39 -50 72 -64 77 -13 5 -38 9 -55 8 -18 0 -52
-7 -77 -14z"/>
<path d="M26778 4281 c-15 -3 -37 -14 -48 -23 -11 -10 -20 -24 -20 -33 0 -8
-15 -31 -32 -51 -29 -33 -33 -45 -36 -110 l-4 -73 -52 -12 c-28 -6 -62 -18
-76 -25 -14 -7 -41 -28 -62 -47 -20 -19 -46 -53 -57 -76 -12 -22 -54 -74 -95
-114 -53 -52 -86 -97 -121 -162 -26 -49 -67 -110 -89 -135 -23 -25 -55 -63
-72 -85 -17 -22 -38 -54 -47 -72 -9 -17 -30 -41 -47 -53 -17 -12 -49 -49 -72
-83 -22 -34 -56 -91 -74 -127 -18 -36 -49 -108 -69 -160 -21 -52 -48 -144 -62
-205 -24 -105 -25 -121 -20 -345 4 -187 9 -255 26 -330 11 -52 21 -117 21
-145 0 -27 7 -72 16 -100 9 -27 23 -124 31 -215 7 -91 16 -192 19 -225 3 -39
0 -69 -8 -85 -8 -14 -25 -30 -39 -37 -13 -7 -65 -17 -114 -22 -50 -6 -175 -18
-280 -26 -104 -9 -237 -23 -294 -31 -57 -8 -115 -21 -130 -28 -14 -8 -62 -23
-106 -35 -43 -12 -84 -26 -90 -31 -5 -4 -30 -13 -55 -20 -25 -6 -58 -20 -73
-31 -15 -11 -45 -26 -67 -34 -21 -8 -69 -37 -107 -66 -37 -29 -90 -64 -118
-77 -30 -14 -80 -54 -122 -98 -40 -41 -73 -78 -73 -83 0 -4 -39 -27 -87 -50
-65 -32 -104 -44 -153 -48 -55 -5 -69 -2 -89 14 -17 14 -24 30 -24 52 0 17 9
44 20 59 11 15 43 40 72 55 29 16 62 45 76 66 14 20 38 44 54 54 17 10 38 31
48 47 9 16 30 34 45 41 16 6 39 24 52 40 13 15 34 61 46 101 17 56 21 89 17
141 -3 47 -11 77 -24 95 -11 15 -35 36 -54 47 -27 16 -52 20 -124 20 l-90 0
-100 -59 c-55 -32 -109 -64 -120 -71 -11 -7 -65 -54 -121 -104 -90 -82 -106
-102 -148 -184 -38 -75 -49 -108 -57 -176 -5 -46 -7 -96 -4 -112 4 -15 16 -40
27 -54 11 -14 42 -37 69 -51 27 -13 73 -29 101 -34 40 -8 65 -21 109 -60 48
-42 74 -55 156 -81 54 -17 139 -35 188 -40 50 -5 126 -7 170 -3 44 4 110 18
147 30 59 21 86 24 214 24 l147 0 66 37 c36 20 80 47 97 60 17 12 37 23 45 23
8 0 33 9 56 20 30 13 48 30 60 55 9 19 31 44 49 54 18 11 44 38 58 60 15 22
36 43 49 45 12 3 92 7 177 9 136 4 164 7 225 30 39 14 86 28 105 32 19 3 71
26 115 50 44 24 117 62 162 84 51 25 91 52 107 74 14 18 42 69 62 112 20 44
41 93 47 110 6 17 13 223 17 475 6 345 11 462 23 521 9 42 21 128 27 190 7 63
20 159 31 214 11 55 22 141 25 190 4 50 20 142 36 205 17 63 41 136 53 161 13
25 29 74 35 109 6 35 22 85 36 112 13 26 24 53 24 60 0 8 15 45 34 84 19 39
61 107 94 150 45 58 68 100 87 159 20 59 25 92 21 127 l-5 46 39 7 c21 4 45
14 53 23 8 9 22 34 30 54 11 26 27 43 54 55 20 10 43 29 50 43 7 14 13 39 13
56 0 17 -6 36 -12 41 -7 6 -24 12 -38 15 -14 3 -37 2 -52 -1z"/>
<path d="M32137 3996 c-32 -13 -81 -42 -110 -63 -28 -22 -68 -46 -87 -54 -19
-7 -55 -31 -79 -54 -25 -22 -64 -58 -86 -80 -23 -22 -44 -45 -46 -51 -2 -6
-39 -35 -82 -65 -43 -30 -96 -63 -117 -74 -21 -11 -51 -37 -67 -57 -15 -20
-40 -43 -55 -52 -14 -9 -37 -35 -51 -59 -14 -23 -38 -80 -55 -127 -16 -47 -44
-120 -61 -162 -16 -42 -39 -112 -50 -155 -11 -43 -23 -107 -27 -143 -5 -55 -3
-68 12 -87 11 -13 53 -34 94 -48 41 -14 93 -31 115 -36 24 -7 93 -9 176 -6
129 5 143 8 295 57 87 29 173 58 189 66 17 8 50 30 74 50 33 26 52 34 75 32
20 -2 34 -11 42 -27 9 -16 9 -32 3 -49 -5 -14 -7 -70 -3 -131 4 -59 15 -130
26 -160 10 -30 18 -68 18 -85 0 -17 5 -48 11 -69 5 -21 24 -54 42 -74 17 -20
46 -42 64 -49 18 -8 67 -14 110 -14 43 0 96 5 118 10 22 5 82 14 134 20 60 7
107 17 128 30 18 10 56 26 85 35 29 8 83 27 120 41 50 19 78 38 116 78 42 44
51 60 57 105 5 34 3 62 -5 81 -9 22 -23 33 -52 42 -34 10 -44 9 -74 -7 -19
-10 -42 -31 -51 -45 -9 -15 -45 -41 -87 -62 -39 -20 -89 -39 -110 -43 -22 -4
-63 -18 -90 -33 -43 -22 -65 -26 -134 -27 l-83 0 -45 47 c-42 44 -44 50 -44
105 0 45 7 70 30 113 16 30 29 64 30 75 0 12 8 36 18 56 10 19 26 57 36 84 11
28 31 75 46 105 16 30 44 79 64 109 20 29 48 67 61 83 14 16 25 37 25 47 0 9
25 55 55 101 30 47 55 90 55 97 0 7 17 26 39 43 21 17 46 49 56 70 10 22 39
57 66 80 38 32 52 52 65 96 18 54 17 55 -3 75 -20 20 -25 21 -185 11 -91 -5
-175 -15 -187 -21 -12 -7 -33 -30 -46 -51 -19 -29 -32 -40 -50 -40 -18 0 -28
8 -36 27 -6 17 -7 40 -1 63 6 24 4 48 -6 78 -9 27 -29 54 -56 77 -23 19 -68
46 -100 61 -48 22 -76 27 -165 31 -95 4 -112 2 -164 -21z m281 -260 c16 -15
30 -54 48 -128 24 -98 25 -111 14 -179 -9 -52 -19 -79 -36 -96 -13 -13 -24
-31 -24 -40 0 -9 -7 -25 -17 -35 -9 -10 -23 -18 -32 -18 -9 0 -38 -16 -65 -35
-27 -19 -54 -35 -59 -35 -5 0 -41 -27 -80 -61 -39 -34 -89 -73 -111 -87 -23
-14 -54 -34 -69 -44 -15 -11 -46 -26 -68 -33 -22 -8 -52 -23 -67 -34 -15 -10
-46 -24 -70 -30 -23 -7 -59 -21 -78 -33 -27 -16 -54 -22 -103 -22 -63 -1 -66
0 -69 24 -2 16 12 46 40 85 24 33 61 78 84 101 23 23 60 68 83 100 22 32 58
80 79 106 20 26 64 71 97 100 33 30 74 64 91 76 17 11 45 48 62 81 23 42 47
70 85 97 28 20 81 68 117 105 58 61 68 68 95 63 17 -3 40 -16 53 -28z"/>
<path d="M34963 4009 c-19 -5 -43 -25 -59 -48 -16 -21 -51 -50 -81 -65 -39
-21 -55 -36 -63 -61 -7 -21 -21 -37 -38 -43 -15 -6 -35 -13 -45 -16 -10 -3
-25 -18 -34 -34 -9 -15 -34 -41 -55 -57 -22 -17 -51 -49 -65 -72 -14 -24 -43
-55 -66 -71 -32 -21 -51 -48 -89 -122 -26 -52 -48 -102 -48 -110 0 -9 9 -26
20 -38 14 -15 33 -22 56 -22 19 0 48 7 64 15 16 8 31 23 34 32 4 10 45 52 92
93 47 41 105 93 128 115 22 22 61 52 86 67 25 14 72 51 105 82 33 32 71 63 85
70 14 8 68 30 121 50 53 20 104 36 112 36 8 0 44 -13 79 -30 34 -16 68 -30 75
-30 7 0 17 -8 22 -17 5 -10 10 -31 11 -48 1 -16 2 -41 1 -54 -1 -15 -21 -44
-55 -77 -30 -29 -66 -74 -80 -101 -13 -27 -28 -67 -32 -88 -5 -28 -22 -56 -59
-95 -28 -30 -59 -67 -68 -82 -9 -15 -42 -74 -73 -130 -31 -57 -69 -118 -85
-136 -16 -18 -29 -41 -29 -51 0 -11 -25 -50 -55 -87 -30 -38 -79 -105 -110
-148 -31 -44 -63 -93 -72 -110 -9 -17 -28 -47 -44 -66 -15 -19 -41 -62 -57
-95 -17 -33 -51 -111 -76 -173 -25 -62 -46 -122 -46 -133 0 -11 7 -33 15 -48
8 -17 30 -35 55 -45 22 -9 66 -16 98 -16 31 0 94 -5 139 -11 74 -11 84 -10
114 8 25 14 52 52 106 148 40 72 75 145 79 163 3 18 17 45 29 60 12 15 38 64
59 108 20 45 36 86 36 91 0 6 14 29 30 52 17 23 46 76 64 118 19 42 47 90 63
108 16 17 40 58 53 91 13 32 40 82 61 109 21 28 74 87 118 132 44 45 87 95 95
112 9 16 24 32 34 35 9 3 32 19 50 36 18 16 54 36 80 44 26 8 63 21 82 29 20
9 81 21 138 27 91 11 105 10 127 -4 14 -9 25 -22 25 -29 0 -6 -7 -36 -15 -66
-7 -29 -22 -63 -33 -75 -10 -11 -45 -61 -78 -111 -33 -49 -74 -119 -91 -155
-17 -36 -39 -83 -48 -105 -9 -22 -29 -53 -45 -70 -15 -16 -45 -70 -65 -120
-20 -49 -48 -119 -62 -155 -13 -35 -28 -69 -33 -75 -4 -5 -18 -41 -30 -78 -13
-39 -39 -89 -61 -118 -28 -35 -42 -65 -49 -102 -5 -28 -12 -70 -15 -91 -5 -27
-18 -51 -46 -78 -37 -37 -40 -44 -37 -86 l3 -47 50 2 c28 1 77 5 110 8 45 5
70 3 97 -8 26 -11 43 -28 58 -57 11 -22 32 -45 45 -50 14 -5 37 -5 59 1 24 7
41 20 51 39 8 16 15 55 15 87 0 32 5 78 11 103 6 25 23 72 39 105 16 33 38 80
49 105 12 25 31 63 43 86 13 23 29 48 36 56 7 9 28 46 48 84 19 38 46 87 59
109 14 22 35 67 47 99 12 32 31 71 43 85 11 14 31 51 43 81 12 30 29 80 38
110 9 30 31 80 50 111 19 31 44 64 57 72 13 8 38 45 56 81 29 59 36 66 68 72
20 4 63 18 95 30 38 16 78 24 116 24 32 0 63 -5 70 -12 7 -7 12 -26 12 -43 -1
-16 -7 -41 -15 -55 -8 -14 -14 -33 -15 -43 0 -10 -14 -50 -31 -88 -16 -39 -41
-123 -54 -187 -13 -64 -33 -144 -45 -176 -11 -33 -40 -91 -64 -130 -24 -39
-48 -87 -54 -106 -6 -19 -23 -91 -36 -160 -16 -79 -37 -145 -55 -180 -16 -30
-54 -104 -85 -163 -45 -87 -56 -118 -56 -156 0 -37 5 -52 23 -70 15 -13 45
-25 78 -30 30 -5 97 -12 149 -16 76 -6 103 -4 133 8 25 11 41 27 51 49 7 18
23 74 35 123 12 50 33 122 47 160 14 39 44 117 66 175 22 58 48 119 58 135 10
17 30 60 44 96 14 36 33 89 42 118 8 28 24 68 36 89 12 20 33 50 47 65 15 17
47 34 81 43 30 9 71 26 90 38 19 13 58 30 86 40 29 9 59 25 69 36 10 11 47 30
84 44 36 14 95 32 131 41 35 8 100 35 145 60 44 24 102 49 129 56 27 7 70 29
99 53 29 22 77 54 107 70 30 16 82 43 116 60 33 17 94 53 135 80 41 26 110 72
154 101 44 29 92 55 106 59 18 4 31 1 39 -10 11 -12 9 -20 -11 -47 -13 -18
-38 -54 -56 -81 -18 -26 -33 -53 -33 -60 0 -7 -16 -27 -35 -46 -22 -21 -40
-52 -50 -85 -8 -29 -21 -58 -29 -64 -8 -7 -23 -32 -32 -57 -12 -30 -15 -57
-10 -86 4 -24 9 -53 12 -65 4 -15 -4 -32 -29 -60 -26 -28 -39 -55 -48 -100
-11 -54 -11 -64 4 -87 13 -20 27 -26 55 -28 20 0 45 0 55 0 10 1 31 15 47 31
23 23 41 30 92 36 l63 7 35 -43 c19 -24 70 -77 112 -119 42 -41 84 -92 93
-114 9 -21 27 -94 40 -162 15 -73 22 -137 18 -156 -3 -18 -21 -63 -40 -100
-19 -37 -37 -85 -40 -105 -3 -21 -15 -55 -26 -76 -12 -20 -54 -65 -96 -100
-41 -34 -87 -73 -103 -86 -16 -13 -62 -36 -101 -51 -40 -16 -103 -41 -142 -57
-45 -19 -106 -34 -170 -42 -55 -7 -147 -19 -204 -27 -57 -9 -139 -27 -183 -41
-66 -21 -83 -31 -103 -61 -14 -20 -25 -50 -25 -67 0 -16 4 -35 8 -41 4 -6 18
-17 31 -24 18 -9 71 -12 186 -11 138 1 171 -1 226 -19 42 -14 116 -24 218 -31
85 -6 169 -8 187 -4 24 4 44 20 71 53 21 26 45 53 53 60 8 7 56 32 105 56 50
24 127 58 172 76 57 21 91 41 110 64 16 18 44 43 63 56 19 13 41 31 47 40 7 8
18 33 24 55 6 22 24 65 40 95 15 30 39 78 51 105 20 43 23 65 22 155 -1 77 -9
133 -28 210 -19 74 -29 151 -36 260 -5 88 -16 179 -26 210 -9 30 -27 76 -39
101 -13 25 -39 57 -57 71 -18 14 -56 33 -84 42 -28 9 -62 28 -75 42 -13 14
-48 39 -79 56 -30 17 -61 38 -67 46 -8 9 -13 45 -13 86 0 39 6 100 14 136 7
36 26 90 41 120 15 30 53 80 84 110 51 49 61 66 90 150 18 52 36 122 38 156 3
35 0 77 -6 97 -7 20 -25 50 -41 67 -18 20 -38 30 -57 30 -15 0 -61 -12 -101
-27 -64 -23 -76 -31 -93 -64 -10 -21 -32 -46 -47 -56 -15 -9 -46 -34 -68 -54
-23 -20 -68 -47 -101 -59 -33 -12 -84 -40 -113 -62 -29 -22 -75 -53 -100 -69
-26 -16 -71 -43 -101 -59 -30 -17 -101 -53 -159 -81 -58 -28 -113 -55 -123
-60 -9 -5 -54 -23 -99 -39 -45 -16 -109 -48 -143 -70 -34 -22 -107 -58 -161
-78 -55 -21 -134 -62 -178 -90 -43 -29 -95 -57 -115 -63 -20 -6 -48 -9 -61 -7
-22 3 -25 7 -21 38 2 19 3 69 3 110 0 41 -5 102 -12 135 -7 33 -19 77 -27 98
-11 27 -29 45 -62 64 -25 15 -80 50 -121 79 -41 29 -93 57 -115 63 -22 6 -73
11 -113 11 -40 0 -82 -4 -92 -10 -10 -5 -21 -22 -25 -37 -3 -15 -11 -33 -17
-40 -5 -7 -26 -16 -46 -19 -20 -4 -54 -15 -76 -25 -30 -13 -45 -15 -67 -7 -24
8 -32 20 -45 66 -9 32 -22 63 -28 70 -7 7 -37 17 -68 22 -31 5 -79 16 -108 24
-28 8 -84 18 -123 22 -40 3 -106 1 -148 -5 -49 -7 -105 -24 -160 -49 -46 -21
-90 -46 -97 -55 -7 -9 -27 -19 -43 -22 -18 -4 -36 -2 -44 5 -9 7 -15 29 -15
52 0 21 7 55 15 75 14 33 14 45 0 122 -9 47 -25 110 -37 139 -14 36 -27 54
-42 57 -11 2 -88 12 -171 21 -82 10 -233 19 -335 20 -102 2 -199 -1 -217 -7z"/>
<path d="M30039 3752 c-31 -17 -73 -34 -95 -38 -21 -3 -46 -10 -56 -15 -9 -5
-37 -44 -63 -86 -26 -43 -59 -98 -72 -123 -14 -25 -38 -58 -54 -75 -15 -16
-53 -83 -84 -149 -33 -68 -74 -137 -96 -161 -23 -24 -47 -66 -59 -99 -10 -31
-28 -68 -38 -81 -11 -14 -23 -40 -26 -59 -4 -19 -13 -39 -21 -46 -8 -6 -21
-35 -31 -63 -9 -29 -21 -57 -25 -63 -5 -6 -20 -42 -34 -80 -13 -38 -39 -105
-57 -150 -19 -44 -44 -93 -56 -109 -12 -15 -22 -33 -22 -39 0 -6 -23 -33 -50
-59 -28 -27 -50 -55 -50 -62 0 -8 -28 -56 -63 -107 -34 -51 -82 -125 -105
-165 -24 -39 -50 -96 -58 -125 -7 -29 -14 -70 -14 -91 0 -31 7 -46 34 -73 33
-33 37 -34 108 -34 54 0 81 5 105 19 20 13 45 45 68 91 21 39 50 80 66 90 15
11 49 51 75 88 26 37 59 81 74 97 15 17 39 53 55 80 16 28 61 85 100 127 40
42 86 103 103 135 18 32 43 82 57 111 14 29 40 75 59 102 19 28 40 67 47 87 6
21 29 74 50 118 22 44 39 86 39 93 0 7 17 47 39 90 21 42 46 102 55 132 9 30
33 89 52 130 20 41 53 109 74 150 21 41 46 99 55 129 10 30 35 88 56 130 22
41 39 87 39 102 0 15 -8 37 -18 49 -12 15 -32 24 -62 27 -37 4 -55 -1 -101
-25z"/>
</g>
</svg>
