<?xml version="1.0" standalone="no"?>
<!DOCTYPE svg PUBLIC "-//W3C//DTD SVG 20010904//EN"
 "http://www.w3.org/TR/2001/REC-SVG-20010904/DTD/svg10.dtd">
<svg version="1.0" xmlns="http://www.w3.org/2000/svg"
 width="511.000000pt" height="235.000000pt" viewBox="0 0 511.000000 235.000000"
 preserveAspectRatio="xMidYMid meet">
<metadata>
Created by potrace 1.12, written by Peter Selinger 2001-2015
</metadata>
<g transform="translate(0.000000,235.000000) scale(0.100000,-0.100000)"
fill="#000000" stroke="none">
<path d="M811 2120 c-24 -11 -61 -36 -83 -55 -21 -19 -42 -35 -46 -35 -5 0
-37 -27 -72 -60 -35 -32 -66 -57 -68 -55 -2 2 5 19 17 38 26 42 27 57 3 57
-22 0 -246 -189 -236 -199 4 -3 9 0 11 7 3 6 9 12 15 12 6 0 37 23 69 51 33
28 59 45 59 38 0 -7 -6 -20 -14 -28 -7 -9 -36 -48 -62 -87 -27 -39 -75 -100
-108 -135 -32 -35 -70 -82 -85 -104 -14 -22 -34 -49 -44 -60 -17 -19 -17 -20
5 -37 23 -17 50 -16 75 4 7 6 43 58 79 117 132 212 147 229 331 390 110 96
176 141 189 129 10 -10 -5 -44 -37 -85 -47 -59 -179 -193 -191 -193 -20 0 -68
-42 -68 -59 0 -13 13 -22 45 -31 39 -11 45 -17 51 -46 7 -40 -7 -82 -48 -138
-30 -43 -36 -71 -15 -78 6 -3 31 -6 55 -7 41 -2 51 6 33 25 -6 5 1 31 19 69
15 33 31 79 35 102 6 40 4 45 -34 84 -22 23 -37 47 -34 53 4 6 34 36 67 66 82
76 176 196 176 225 0 14 -8 29 -19 35 -24 12 -18 13 -70 -10z"/>
<path d="M2578 2035 c-26 -14 -50 -29 -53 -35 -4 -6 -20 -8 -39 -5 -28 6 -38
1 -73 -32 -53 -50 -123 -137 -156 -193 -14 -25 -60 -80 -102 -123 -41 -43 -73
-83 -69 -88 7 -12 48 -11 76 2 13 6 43 38 67 71 37 51 47 59 67 54 24 -6 34 9
12 16 -31 11 187 265 242 283 11 3 20 10 20 15 0 7 71 40 85 40 23 0 -15 -80
-61 -130 -54 -58 -74 -86 -74 -102 0 -10 5 -18 10 -18 6 0 18 -8 28 -18 27
-27 8 -89 -37 -119 -39 -26 -68 -29 -95 -8 -24 18 -56 19 -56 2 0 -15 43 -41
83 -51 31 -7 67 8 113 50 62 56 70 103 24 131 -43 25 -40 38 30 113 60 63 100
120 100 140 0 38 -74 40 -142 5z"/>
<path d="M1727 1970 c-19 -16 -54 -56 -78 -87 -24 -32 -56 -70 -70 -85 -15
-14 -32 -35 -37 -45 -9 -15 -14 -16 -31 -6 -16 10 -27 8 -63 -9 -24 -12 -61
-30 -83 -41 -51 -25 -120 -90 -152 -145 -42 -71 -12 -92 70 -51 48 25 106 66
124 88 7 8 16 12 20 8 3 -4 -2 -16 -12 -27 -10 -11 -16 -22 -14 -25 13 -12
132 -16 165 -5 32 11 38 10 59 -10 25 -24 145 -44 131 -22 -4 7 -17 12 -30 12
-55 0 -64 65 -14 104 18 14 30 28 26 31 -13 13 -60 -9 -95 -45 -46 -44 -73
-60 -107 -60 -56 0 -17 84 116 245 36 44 148 195 148 200 0 16 -44 1 -73 -25z"/>
<path d="M2823 1794 c-17 -9 -48 -33 -67 -54 -29 -32 -37 -48 -39 -86 l-2 -48
45 -13 c27 -9 65 -12 95 -9 42 5 53 2 64 -13 13 -17 16 -17 55 -3 22 9 48 21
56 27 38 30 42 28 34 -11 l-7 -37 57 6 c34 3 68 14 87 27 23 17 33 20 42 11
17 -17 89 -13 128 8 34 19 36 19 47 1 24 -39 92 -20 190 52 30 22 56 37 59 34
3 -3 -2 -21 -11 -40 -9 -19 -16 -41 -16 -50 0 -21 39 -30 75 -16 30 11 135
112 154 148 17 32 14 62 -7 62 -27 0 -48 -28 -62 -79 -12 -47 -62 -101 -92
-101 -23 0 -23 1 7 61 40 78 10 94 -68 34 -25 -19 -48 -35 -51 -35 -4 0 -25
-13 -48 -30 -39 -28 -78 -39 -78 -22 0 11 45 76 75 108 30 32 22 47 -20 36
-20 -6 -40 -23 -60 -55 -29 -45 -103 -97 -139 -97 -20 0 -21 14 -1 30 26 22
68 101 58 111 -16 16 -42 -1 -73 -46 -33 -48 -142 -125 -177 -125 -21 0 -20 2
12 56 19 31 41 64 50 74 23 25 18 40 -13 40 -15 0 -33 5 -40 12 -9 9 -21 8
-53 -1 -61 -18 -103 -49 -139 -103 -32 -46 -70 -68 -121 -68 -37 0 -47 49 -17
84 27 33 88 121 88 128 0 13 -43 9 -77 -8z"/>
<path d="M4263 1777 c-56 -33 -63 -44 -18 -27 38 15 42 6 17 -39 -27 -47 -27
-63 -3 -85 18 -16 21 -16 57 3 40 22 94 28 94 12 0 -19 32 -41 61 -41 40 0 50
27 19 52 -23 18 -23 19 -5 53 24 43 56 60 114 59 49 -1 216 -30 233 -40 38
-23 -45 -243 -123 -326 -21 -23 -36 -45 -33 -50 3 -4 1 -8 -5 -8 -5 0 -21 -24
-35 -52 -29 -60 -49 -94 -91 -157 -17 -24 -39 -58 -50 -75 -11 -18 -34 -50
-51 -72 -17 -21 -37 -50 -44 -64 -14 -27 -150 -232 -159 -240 -3 -3 -19 -23
-36 -45 -16 -22 -45 -56 -65 -76 -19 -20 -51 -58 -70 -85 -19 -26 -115 -129
-213 -227 -98 -99 -176 -181 -174 -183 2 -2 19 7 37 21 19 14 38 25 43 25 5 0
32 21 61 46 28 26 64 52 79 59 15 6 81 64 146 128 65 64 123 117 130 117 6 0
11 7 11 15 0 8 4 15 9 15 6 0 31 31 57 70 25 38 56 81 69 94 12 13 30 37 41
54 48 76 107 154 120 159 8 3 14 13 14 23 0 10 6 20 14 23 8 3 17 18 20 34 4
15 20 43 36 62 17 18 30 41 30 50 0 9 22 40 48 68 26 28 63 82 82 120 19 37
42 73 50 80 8 7 11 13 7 13 -5 0 -1 12 7 28 30 56 105 228 114 262 5 19 5 49
0 66 -9 36 -35 50 -118 63 -30 5 -66 14 -80 19 -14 5 -64 10 -111 11 -81 2
-86 1 -113 -26 -15 -15 -34 -40 -42 -54 -10 -21 -23 -28 -60 -34 -59 -9 -70 2
-50 50 22 51 21 85 -1 84 -10 0 -42 -15 -70 -32z"/>
<path d="M4038 1768 c-13 -13 -27 -22 -32 -20 -13 4 -46 -29 -73 -76 -19 -33
-23 -46 -14 -56 32 -39 101 -22 140 33 12 16 37 35 56 41 19 6 35 16 35 21 0
12 -7 11 -32 -2 -19 -10 -20 -9 -13 17 13 51 11 59 -17 62 -18 2 -35 -5 -50
-20z"/>
</g>
</svg>
