<?xml version="1.0" encoding="UTF-8"?>
<svg version="1.1" xmlns="http://www.w3.org/2000/svg" width="279" height="91" >
<path d="M11.59,59.43c-0.254,3.254-0.575,6.502-0.929,9.746c-0.495,4.545-0.613,10.049-2.542,14.286 c0.533,0.225,1.066,0.449,1.599,0.674c2.438-12.86,5.467-25.657,9.148-38.217c2.324-7.929,4.834-16.211,9.194-23.293 c2.733-4.44,8.953-9.646,14.585-8.38c8.479,1.905-1.894,18.825-3.779,21.92C31.975,47.478,24.6,57.44,22.533,70.879 c-0.628,4.083-1.495,13.124,2.999,15.802c4.301,2.563,7.297-3.832,8.556-6.842c1.178-2.818,0.711-3.021,3.642-4.009 c1.039-0.35,2.105-0.575,3.202-0.604c3.045-0.081,0.44,4.758-0.1,5.836c-0.453,0.903,0.617,1.717,1.374,1.061 c1.168-1.015,2.396-1.955,3.66-2.848c1.043-0.737,2.149-1.418,3.348-1.871c1.992-0.751,0.169,3.189-0.093,3.867 c-0.317,0.819,0.901,1.488,1.462,0.852c1.398-1.587,2.914-3.224,4.734-4.32c-0.2,0.12-0.514,3.502-0.577,4.163 c-0.075,0.791,0.318,1.533,0.911,2.003c4.093,3.236,12.603-8.177,14.216-10.661c-0.533-0.225-1.066-0.449-1.599-0.674 c-0.465,1.818-0.846,4.151,0.238,5.809c2.256,3.449,8.154-2.662,9.602-3.997c-0.487-0.284-0.975-0.568-1.462-0.852 c-0.471,2.079-1.715,6.274-0.354,8.189c2.604,3.664,7.446-5.186,8.336-6.556c0.617-0.949-0.898-1.825-1.511-0.883 c-1.34,2.062-2.682,4.123-4.405,5.89c-1.445,1.481-1.115-0.652-1.077-1.593c0.063-1.535,0.358-3.085,0.698-4.583 c0.195-0.861-0.809-1.454-1.462-0.852c-0.822,0.759-7.114,6.841-7.287,2.689c-0.039-0.932,0.142-1.896,0.372-2.798 c0.251-0.981-1.063-1.501-1.599-0.674c-2.528,3.892-5.932,7.528-10.056,9.742c-3.154,1.692-1.065-3.042-1.064-4.044 c0.001-0.775-0.054-1.323-0.596-1.894c-1.857-1.956-6.341,3.572-7.296,4.655c0.487,0.284,0.975,0.568,1.462,0.852 c0.617-1.593,2.373-7.18-1.564-6.149c-3.113,0.815-5.885,3.225-8.275,5.298c0.458,0.354,0.916,0.707,1.374,1.061 c2.09-4.169,2.942-9.335-3.333-8.264c-1.722,0.294-3.422,1.016-4.994,1.764c-0.848,0.403-0.959,2.13-1.218,2.884 c-0.773,2.247-1.849,4.52-3.512,6.248c-2.841,2.954-4.552-1.788-5.033-3.98c-1.107-5.044-0.009-10.581,1.27-15.467 c3.635-13.888,13.792-23.985,19.528-36.811c1.826-4.082,4.207-10.789,0.386-14.523c-2.958-2.891-8.012-1.098-11.074,0.546 c-5.317,2.855-8.396,7.837-10.821,13.164c-3.566,7.834-5.958,16.229-8.216,24.514c-2.844,10.437-5.279,21.021-7.294,31.651 c-0.173,0.911,1.163,1.633,1.599,0.674c3.296-7.239,3.098-17.089,3.71-24.915C13.428,58.304,11.678,58.313,11.59,59.43 L11.59,59.43z"/>
<path d="M70.886,41.814c1.064,1.28,2.127,2.559,3.191,3.839c0.722,0.869,1.953-0.376,1.237-1.237 c-1.064-1.28-2.127-2.559-3.191-3.839C71.401,39.708,70.17,40.953,70.886,41.814L70.886,41.814z"/>
<path d="M108.926,29.679c2.15,16.062,25.105-1.251,29.817-5.14c-0.458-0.354-0.917-0.707-1.375-1.06 c-8.453,12.32-16.485,25.554-21.724,39.582c-2.063,5.525-5.074,15.772,0.96,20.151c4.49,3.259,10.442,0.055,14.161-3.009 c0.871-0.719-0.374-1.949-1.238-1.238c-5.552,4.574-13.632,5.996-14.63-3.494c-0.718-6.827,3.288-14.578,6.094-20.517 c5.03-10.645,11.229-20.886,17.89-30.592c0.602-0.877-0.66-1.65-1.375-1.06c-3.837,3.167-25.083,19.42-26.829,6.377 C110.529,28.577,108.777,28.563,108.926,29.679L108.926,29.679z"/>
<path d="M127.985,74.189c2.979-1.092,5.884-2.675,8.196-4.858c0.779-0.735,3.911-5.686,0.542-5.063 c-2.465,0.456-4.573,3.381-5.725,5.377c-1.86,3.229-1.656,6.86,0.922,9.599c0.775,0.822,2.011-0.417,1.238-1.238 c-3.582-3.803-0.572-9.342,3.24-11.732c0.199-0.125,0.4-0.218,0.624-0.286c-0.29-0.556-0.444-0.66-0.462-0.313 c-0.1,0.331-0.241,0.643-0.424,0.936c-0.789,1.467-2.337,2.542-3.69,3.43c-1.522,0.997-3.217,1.836-4.927,2.463 C126.469,72.887,126.923,74.579,127.985,74.189L127.985,74.189z"/>
<path d="M148.849,57.758c-1.313,3.505-2.601,7.022-3.858,10.547c-0.466,1.304-3.7,7.633-2.292,8.902 c0.386,0.348,0.848,0.308,1.237,0c2.369-1.868,3.903-7.446,5.154-10.076c3.043-6.398,5.788-12.969,7.774-19.776 c1.513-5.184,2.883-11.437,0.777-16.641c-0.894-2.21-3.564-5.378-6.127-3.523c-3.15,2.281-2.511,8.642-2.172,11.844 c0.723,6.84,3.653,13.284,7.994,18.563c3.545,4.313,13.488,14.097,5.866,19.442c-1.829,1.283-3.885,1.327-5.637-0.152 c-3.713-3.134-1.745-10.103-0.647-13.867c0.316-1.086-1.372-1.546-1.688-0.465c-1.508,5.17-3.258,13.646,2.786,16.715 c2.873,1.459,6.591-0.301,8.278-2.799c3.315-4.906-0.127-11.051-3.327-15.054c-3.86-4.829-7.728-8.863-9.994-14.726 c-1.643-4.248-2.347-8.924-2.014-13.459c0.104-1.426,0.45-2.883,1.154-4.132c1.358-2.408,3.677,1.675,4.123,2.778 c1.444,3.571,0.548,8.087-0.215,11.687c-1.874,8.835-5.807,17.277-9.73,25.358c-1.097,2.26-2.188,4.54-3.387,6.747 c-0.349,0.643,1.149,1.044,1.523-0.254c0.348-1.211,0.77-2.402,1.177-3.595c1.561-4.562,3.238-9.085,4.93-13.6 C150.933,57.165,149.241,56.711,148.849,57.758L148.849,57.758z"/>
<path d="M191.621,6.607c3.78,5.198-1.72,16.092-3.848,20.628c-4.934,10.514-9.602,20.425-12.784,31.679 c-2.083,7.362-5.136,16.505-4.134,24.29c0.712,5.529,5.195-0.359,6.321-2.219c0.586-0.968-0.928-1.847-1.512-0.883 c-0.99,1.637-3.021,5.58-3.168,1.719c-0.122-3.226,0.551-6.521,1.138-9.674c1.746-9.375,4.516-18.62,7.868-27.539 c3.692-9.82,10.004-18.561,12.24-28.91c0.614-2.84,1.275-7.381-0.61-9.975C192.475,4.821,190.956,5.693,191.621,6.607 L191.621,6.607z"/>
<path d="M180.588,65.049c-3.508,3.545-3.766,7.745,1.583,9.141c5.274,1.377,9.674-3.146,11.049-7.809 c-0.563-0.155-1.125-0.31-1.688-0.465c-0.542,2.138-0.978,5.466,0.685,7.234c4.401,4.682,13.743-4.37,16.735-6.863 c-0.488-0.284-0.976-0.568-1.463-0.852c-0.678,2.694-0.544,7.384,3.2,7.586c3.324,0.179,5.968-1.936,9.09-2.66 c3.754-0.871,7.87-0.527,11.67-0.229c13.906,1.092,27.888,4.54,41.277,8.376c1.087,0.312,1.548-1.377,0.465-1.688 c-10.867-3.113-21.969-5.649-33.138-7.391c-6.27-0.977-13.03-1.979-19.359-0.995c-3.261,0.507-6.056,2.581-9.299,2.874 c-2.939,0.265-2.686-3.553-2.219-5.409c0.226-0.897-0.809-1.396-1.463-0.852c-1.435,1.196-12.547,11.192-14.567,6.274 c-0.604-1.471-0.307-3.441,0.073-4.942c0.277-1.096-1.368-1.546-1.688-0.465c-0.568,1.925-1.676,3.616-3.094,5.02 c-2.254,2.229-10.642,2.159-8.237-2.538c0.4-0.783,1.007-1.487,1.625-2.11C182.621,65.484,181.383,64.246,180.588,65.049 L180.588,65.049z"/>
</svg>