<?xml version="1.0" encoding="UTF-8" standalone="no"?>
<!-- Created with Inkscape (http://www.inkscape.org/) -->
<svg
   xmlns:dc="http://purl.org/dc/elements/1.1/"
   xmlns:cc="http://creativecommons.org/ns#"
   xmlns:rdf="http://www.w3.org/1999/02/22-rdf-syntax-ns#"
   xmlns:svg="http://www.w3.org/2000/svg"
   xmlns="http://www.w3.org/2000/svg"
   xmlns:sodipodi="http://sodipodi.sourceforge.net/DTD/sodipodi-0.dtd"
   xmlns:inkscape="http://www.inkscape.org/namespaces/inkscape"
   width="104.3558"
   height="41.172634"
   id="svg2"
   sodipodi:version="0.32"
   inkscape:version="0.46"
   version="1.0"
   sodipodi:docname="ronpaulsignature.svg"
   inkscape:output_extension="org.inkscape.output.svg.inkscape">
  <defs
     id="defs4">
    <inkscape:perspective
       sodipodi:type="inkscape:persp3d"
       inkscape:vp_x="0 : 526.18109 : 1"
       inkscape:vp_y="0 : 1000 : 0"
       inkscape:vp_z="744.09448 : 526.18109 : 1"
       inkscape:persp3d-origin="372.04724 : 350.78739 : 1"
       id="perspective10" />
    <inkscape:perspective
       id="perspective2390"
       inkscape:persp3d-origin="372.04724 : 350.78739 : 1"
       inkscape:vp_z="744.09448 : 526.18109 : 1"
       inkscape:vp_y="0 : 1000 : 0"
       inkscape:vp_x="0 : 526.18109 : 1"
       sodipodi:type="inkscape:persp3d" />
  </defs>
  <sodipodi:namedview
     id="base"
     pagecolor="#ffffff"
     bordercolor="#666666"
     borderopacity="1.0"
     gridtolerance="10000"
     guidetolerance="10"
     objecttolerance="10"
     inkscape:pageopacity="0.0"
     inkscape:pageshadow="2"
     inkscape:zoom="3.8617883"
     inkscape:cx="65.641004"
     inkscape:cy="33.847236"
     inkscape:document-units="px"
     inkscape:current-layer="layer1"
     showgrid="false"
     inkscape:window-width="1024"
     inkscape:window-height="721"
     inkscape:window-x="-4"
     inkscape:window-y="-4" />
  <metadata
     id="metadata7">
    <rdf:RDF>
      <cc:Work
         rdf:about="">
        <dc:format>image/svg+xml</dc:format>
        <dc:type
           rdf:resource="http://purl.org/dc/dcmitype/StillImage" />
      </cc:Work>
    </rdf:RDF>
  </metadata>
  <g
     inkscape:label="Layer 1"
     inkscape:groupmode="layer"
     id="layer1"
     transform="translate(-242.53423,-557.00842)">
    <path
       style="fill:none;fill-rule:evenodd;stroke:#000000;stroke-width:0.90211147;stroke-linecap:butt;stroke-linejoin:miter;stroke-miterlimit:4;stroke-dasharray:none;stroke-opacity:1"
       d="M 253.8592,573.02488 C 253.34501,586.18598 247.35948,593.69353 246.38812,591.70259 C 241.93181,578.80397 256.80619,559.67484 266.24548,562.40807 C 273.90301,565.09604 263.4077,574.01537 255.72697,575.58078 C 254.17985,591.70597 258.13481,592.34074 266.26512,583.94877 C 266.86705,583.32746 268.38828,581.29705 269.42588,580.43939 C 270.09788,579.88393 270.33875,580.50523 270.76745,580.00444 C 269.8777,582.00608 267.93208,589.16871 269.19459,590.81786 C 269.93957,590.62327 269.75227,591.32398 270.86575,580.39766 L 270.86575,580.39766 C 271.48038,578.03744 272.52938,581.46041 274.24729,584.80045 C 275.06987,586.39975 276.50041,587.60122 277.2555,588.85178 C 277.41374,589.07764 277.37033,587.9582 277.57827,586.75882 C 277.86678,585.09477 278.45727,583.1859 279.11625,583.68986 C 280.42373,584.60839 278.45152,589.32848 282.6622,588.45857 C 285.34536,588.01733 287.30125,587.51785 289.64177,586.29589"
       id="path2396"
       sodipodi:nodetypes="ccccssccccscsccc" />
    <path
       style="fill:none;fill-rule:evenodd;stroke:#000000;stroke-width:0.90211147;stroke-linecap:butt;stroke-linejoin:miter;stroke-miterlimit:4;stroke-dasharray:none;stroke-opacity:1"
       d="M 295.63831,585.41115 C 294.49184,592.81443 293.03092,593.00158 292.8858,591.8992 C 292.61871,592.08504 293.03603,585.41302 294.89201,578.09877 C 296.71353,570.92035 302.90893,561.19764 307.82797,561.03182 C 311.75281,560.34303 320.09534,572.10121 296.91625,578.43159"
       id="path3168"
       sodipodi:nodetypes="ccscc" />
    <path
       style="fill:none;fill-rule:evenodd;stroke:#000000;stroke-width:0.90211147;stroke-linecap:butt;stroke-linejoin:miter;stroke-miterlimit:4;stroke-dasharray:none;stroke-opacity:1"
       d="M 318.54709,579.27135 C 317.6486,578.59458 310.80784,590.41323 309.10592,586.09927 C 308.96242,583.84959 310.24289,581.24391 319.42781,576.66212 C 319.68931,576.53742 319.71421,576.94848 319.57837,577.07662 C 318.32406,579.92182 316.73057,582.49259 318.24817,584.32981 C 317.84323,585.49344 320.74569,581.93221 323.94979,577.94006 C 321.09799,584.31783 323.63466,584.42129 326.60399,577.44855 C 326.80628,577.2054 327.27199,577.28814 327.06236,578.24768 C 326.82636,579.3279 326.88844,580.34277 327.35848,580.4953 C 328.59582,580.89686 331.84087,578.32669 333.78017,577.74346 C 335.47819,575.82578 340.45443,573.28197 342.55152,570.46324 C 343.51288,569.17106 344.34209,567.8575 343.13312,566.45538 C 342.55092,566.04487 341.89606,565.18484 337.8366,570.46231 C 334.37184,575.24541 334.48577,579.55136 332.81642,584.09508 L 332.81642,584.09508"
       id="path3170"
       sodipodi:nodetypes="cccccccsscscccc" />
  </g>
</svg>
