<?xml version="1.0" encoding="UTF-8" standalone="no"?>
<!-- Created with Inkscape (http://www.inkscape.org/) -->
<svg
   xmlns:svg="http://www.w3.org/2000/svg"
   xmlns="http://www.w3.org/2000/svg"
   version="1.0"
   width="404"
   height="393"
   id="svg2">
  <defs
     id="defs5" />
  <path
     d="M 149.21606,373.78882 C 145.97628,372.37706 140.93291,372.32814 118.64935,373.49238 C 115.04805,373.68054 95.697377,371.67388 93.649347,370.89989 C 92.549347,370.48418 90.956707,369.55355 90.110147,368.83183 C 89.263587,368.11011 85.438587,365.88915 81.610147,363.89638 C 77.781707,361.9036 74.289487,359.6375 73.849657,358.8606 C 73.409827,358.0837 72.452427,357.44805 71.722107,357.44805 C 70.991777,357.44805 69.834037,356.77305 69.149347,355.94805 C 68.464657,355.12305 66.929707,354.44805 65.738347,354.44805 C 61.304667,354.44805 53.206427,349.28322 51.475297,345.35148 C 50.550807,343.25178 40.553767,334.67144 37.420507,333.28843 C 36.301797,332.79464 31.149347,325.73982 31.149347,324.70186 C 31.149347,324.21807 29.759177,322.50054 28.060077,320.88514 C 24.422007,317.4263 22.149347,313.39558 22.149347,310.40208 C 22.149347,309.22217 21.319017,307.06232 20.304167,305.60242 C 19.096067,303.86453 18.059527,299.49533 17.302077,292.94805 C 16.272137,284.04547 16.373207,281.57627 18.223047,270.44805 C 21.682977,249.63385 22.115897,246.06399 21.532607,243.15741 C 21.200677,241.50337 21.568897,239.45668 22.436687,238.13228 C 23.241937,236.90331 24.228727,233.07214 24.629557,229.61858 C 25.270697,224.09449 26.038937,222.41393 31.017867,215.64371 C 34.130617,211.4111 37.405937,206.82305 38.296357,205.44805 C 41.169707,201.01101 50.155787,192.44805 51.938707,192.44805 C 53.968247,192.44805 56.329637,190.30262 65.149347,180.44556 C 72.325337,172.42557 79.178657,167.45615 83.095127,167.43287 C 84.499947,167.42452 87.598247,166.83482 89.980217,166.12243 C 93.744067,164.99676 94.105057,164.65618 92.737397,163.52112 C 91.871867,162.8028 90.666777,160.36963 90.059417,158.11408 C 88.406197,151.97448 85.145497,145.2908 82.286157,142.1807 C 76.991477,136.4217 78.585497,122.30162 85.752997,111.47079 C 89.861487,105.26245 96.375877,105.01725 104.31974,110.77197 C 107.49246,113.07035 113.59633,124.90982 115.23713,131.94805 C 115.87823,134.69805 116.56208,142.85846 116.7568,150.0823 C 117.15945,165.02011 118.02143,168.44805 121.37497,168.44805 C 125.06197,168.44805 137.15098,171.20451 138.54767,172.36367 C 139.25535,172.95098 141.9975,173.54773 144.64136,173.68978 L 149.44837,173.94805 L 151.37974,169.30523 L 153.31111,164.6624 L 149.41054,158.80523 C 144.97391,152.14308 137.71597,136.72237 136.26312,130.87136 C 135.72732,128.71354 134.58787,124.47305 133.73101,121.44805 C 131.84463,114.78847 131.65776,103.43391 133.39935,101.2955 C 134.08685,100.45135 137.23003,98.34034 140.3842,96.60437 C 146.58823,93.18983 152.13613,92.52227 154.14935,94.94805 C 154.83404,95.77305 156.35164,96.44973 157.52179,96.45179 C 161.41395,96.45863 165.84927,100.12955 168.59357,105.61541 C 170.06078,108.54836 171.99893,112.13752 172.90057,113.59132 C 174.55298,116.25566 174.11404,119.5328 171.11158,126.94805 C 170.66618,128.04805 170.02042,132.07852 169.67654,135.90465 C 169.33267,139.73078 168.55332,143.46129 167.94466,144.19469 C 167.336,144.92808 166.47479,147.82579 166.03086,150.63405 C 165.58694,153.44231 164.35871,156.68679 163.30147,157.84401 C 160.09164,161.3574 159.78025,164.11476 162.15871,167.9632 C 163.34328,169.87987 164.72577,171.44805 165.23091,171.44805 C 165.73605,171.44805 166.14935,172.78649 166.14935,174.42237 C 166.14935,176.7015 166.83574,177.75163 169.086,178.91529 C 173.70664,181.30472 174.92136,180.14415 175.67678,172.61833 C 176.33173,166.09355 176.4696,165.83405 181.99784,160.72158 C 187.92956,155.23599 191.10313,154.27139 195.46509,156.62825 C 196.66643,157.27736 199.89935,158.36603 202.64935,159.04751 C 208.01528,160.37725 213.26115,162.11669 216.92886,163.78237 C 220.22546,165.2795 221.64184,163.30431 223.62237,154.44805 C 227.34154,137.8171 226.64859,126.33478 221.19359,114.20277 C 219.0433,109.42049 212.81826,102.44805 210.6989,102.44805 C 210.06989,102.44805 207.88892,104.15452 205.8523,106.24021 C 203.00889,109.15212 202.15445,110.83502 202.17131,113.49021 C 202.19163,116.68894 205.3388,125.20458 206.94997,126.42032 C 207.94196,127.16884 209.97121,130.51548 211.21128,133.44805 C 211.79271,134.82305 213.92592,137.65395 215.95176,139.73893 C 219.00146,142.87769 219.37828,143.69217 218.14222,144.47362 C 217.32114,144.99271 216.0768,145.42432 215.37701,145.43274 C 213.8507,145.45111 205.14935,137.60862 205.14935,136.21459 C 205.14935,135.67629 203.78397,133.51193 202.11518,131.4049 C 200.44638,129.29788 197.6912,124.5088 195.99255,120.76252 L 192.9041,113.95108 L 194.68621,108.70823 C 198.05714,98.79109 209.39795,91.85985 216.28498,95.50755 C 222.25829,98.67129 225.07743,101.71887 226.70781,106.77491 C 227.62528,109.62014 228.97743,112.91034 229.71259,114.08647 C 230.44774,115.26259 231.76181,121.37767 232.63274,127.67552 C 234.17353,138.81723 234.16139,139.25415 232.1828,143.87001 C 231.0644,146.47913 230.14935,149.9489 230.14935,151.58062 C 230.14935,153.21233 229.53444,155.76252 228.78288,157.24771 C 228.03132,158.7329 227.11297,162.72532 226.74208,166.11975 C 226.10121,171.98526 226.20571,172.41937 228.84833,174.86975 C 230.37765,176.28782 232.49262,177.44805 233.54826,177.44805 C 235.861,177.44805 245.65727,170.23603 247.16094,167.42639 C 248.3973,165.11623 245.53203,157.54874 241.99574,153.78453 C 240.86498,152.5809 240.24252,151.10632 240.61249,150.50769 C 240.98247,149.90906 240.78571,147.0134 240.17527,144.07288 C 238.96218,138.22947 239.78676,134.92671 243.51451,130.69805 C 246.89302,126.86555 250.62658,127.71181 256.74994,133.69805 C 259.70358,136.58555 262.12675,139.45545 262.13477,140.07561 C 262.14279,140.69576 262.85945,141.79249 263.72736,142.51279 C 265.71603,144.16324 269.85665,152.28419 272.23684,159.20236 C 273.23961,162.11695 274.75515,165.1967 275.6047,166.04626 C 276.45426,166.89582 277.14935,168.45876 277.14935,169.51948 C 277.14935,172.65849 279.64956,171.71909 280.96311,168.08654 C 281.63166,166.23771 283.29767,163.42521 284.66537,161.83654 C 286.03306,160.24787 289.17808,155.51988 291.65429,151.32989 C 294.1305,147.13991 298.44751,140.61491 301.24765,136.82989 C 304.04778,133.04488 307.5018,127.92305 308.92325,125.44805 C 310.3447,122.97305 314.57707,116.80293 318.32853,111.73666 C 322.07998,106.6704 325.14935,102.19841 325.14935,101.7989 C 325.14935,101.39939 327.11229,98.56951 329.51145,95.51029 C 331.9106,92.45106 335.3728,87.47305 337.20522,84.44805 C 339.03764,81.42305 342.47469,76.64954 344.84312,73.84024 C 347.21155,71.03094 349.14935,68.28819 349.14935,67.74523 C 349.14935,67.20227 350.0639,65.93037 351.18168,64.9188 C 353.20015,63.0921 367.9206,42.604227 375.71949,30.767136 C 381.03564,22.698328 386.91602,16.242079 388.59095,16.635168 C 389.4195,16.82962 386.57559,21.300986 381.07764,28.448052 C 376.21207,34.773052 370.88281,42.198052 369.23484,44.948052 C 367.58686,47.698052 365.19632,51.07305 363.92251,52.44805 C 360.91531,55.69415 350.24956,70.99605 349.43979,73.22607 C 349.09587,74.17316 346.93066,77.45403 344.62819,80.51689 C 338.52404,88.63695 320.78953,115.56957 319.81602,118.19805 C 319.35768,119.43555 318.57933,120.44805 318.08634,120.44805 C 317.59335,120.44805 316.22879,122.36055 315.05398,124.69805 C 313.87917,127.03555 311.60368,130.74805 309.99734,132.94805 C 302.93806,142.61624 295.22914,155.55204 290.03346,166.44805 C 288.32875,170.02305 286.08244,173.75308 285.04167,174.73701 C 284.00089,175.72093 283.14935,177.38187 283.14935,178.42799 C 283.14935,179.4741 282.72535,180.59206 282.20713,180.91234 C 280.4043,182.02655 279.879,190.01974 281.40838,193.06634 C 282.20402,194.65128 283.03373,199.54805 283.25217,203.94805 C 283.88235,216.64125 283.24181,237.63172 282.18544,238.90457 C 281.65486,239.54387 280.97426,242.06519 280.673,244.5075 C 280.28115,247.68421 279.41715,249.46986 277.6373,250.78146 C 275.64783,252.24753 275.14935,253.48793 275.14935,256.97244 C 275.14935,259.36911 275.55773,261.58241 276.05686,261.89089 C 276.55599,262.19937 277.72178,265.03843 278.6475,268.19991 C 279.57321,271.36139 280.71871,274.93536 281.19304,276.14208 C 282.3369,279.05207 280.43066,307.53451 278.66282,313.94805 C 277.9048,316.69805 276.98868,320.86609 276.627,323.21036 C 276.0391,327.02086 274.59412,328.8444 262.99524,340.41333 C 255.85945,347.53069 249.15902,353.62759 248.1054,353.962 C 247.05177,354.29641 245.4592,354.1612 244.56636,353.66154 C 242.90989,352.73454 235.60199,354.65551 233.69935,356.51806 C 233.17685,357.02956 231.89628,357.44805 230.85364,357.44805 C 229.1742,357.44805 225.75309,358.91536 221.14935,361.61022 C 216.83261,364.13707 212.17697,365.76531 208.14935,366.15676 C 205.67435,366.39731 202.74935,367.00811 201.64935,367.5141 C 194.29826,370.89552 189.85885,371.69951 176.23597,372.11652 C 166.85352,372.40373 160.61534,373.06216 158.36385,374.00289 C 154.22796,375.73098 153.64153,375.71725 149.21606,373.78882 z M 172.64935,366.87637 C 182.87476,366.61409 187.47484,365.87292 197.14935,362.92893 C 200.17435,362.00841 204.67435,360.87726 207.14935,360.41526 C 215.83454,358.79404 222.42369,356.29177 232.63802,350.73579 C 234.28179,349.84168 238.6772,348.83052 242.40561,348.48878 C 249.98686,347.79388 248.58185,348.83458 262.54655,333.57026 C 267.71898,327.91646 271.5651,322.75405 272.23188,320.57026 C 273.92644,315.02034 276.15489,284.45635 275.12077,280.94805 C 270.5749,265.52589 269.62198,263.19804 267.52887,262.40224 C 264.40637,261.21507 263.55899,259.3529 265.49657,257.9361 C 267.57831,256.4139 267.59149,255.05988 265.54114,253.35824 C 264.18139,252.22975 263.73949,252.28808 262.68089,253.7358 C 260.24092,257.07266 258.14935,255.14409 258.14935,249.55739 C 258.14935,248.0575 257.48866,245.9568 256.68115,244.88918 C 255.69594,243.58661 255.20249,240.43551 255.18115,235.31026 C 255.15222,228.36092 254.85377,227.23421 251.87015,222.81026 C 250.06659,220.13605 248.08896,216.79333 247.47541,215.38201 C 246.86186,213.97069 244.625,210.14569 242.50461,206.88201 C 240.38422,203.61833 238.42156,200.49805 238.14314,199.94805 C 235.68481,195.09168 230.69149,188.44805 229.4998,188.44805 C 228.6869,188.44805 226.66612,189.68555 225.00917,191.19805 C 212.23308,202.86038 213.80397,202.42778 196.1077,199.1571 C 191.44387,198.29511 188.11802,196.90587 184.52159,194.31745 C 177.98493,189.6129 175.14935,188.6604 175.14935,191.16922 C 175.14935,192.96872 178.00756,199.29844 179.92435,201.7438 C 180.44351,202.40614 181.68279,205.19805 182.67829,207.94805 C 183.67379,210.69805 185.01077,213.62305 185.64935,214.44805 C 186.28793,215.27305 187.63519,218.19805 188.64324,220.94805 C 190.59278,226.26642 194.38539,232.85786 196.10883,233.92301 C 196.68112,234.2767 197.14935,235.27981 197.14935,236.15214 C 197.14935,237.02446 198.69356,240.94873 200.58093,244.87273 C 202.4683,248.79673 204.97243,254.5729 206.14567,257.70866 C 207.3189,260.84441 208.67064,263.65219 209.14953,263.94816 C 210.51075,264.78944 215.14935,275.45512 215.14935,277.74371 C 215.14935,283.49434 226.5843,309.63225 233.66453,320.06555 C 235.11632,322.20489 236.14935,325.15312 236.14935,327.15715 C 236.14935,330.08504 235.83921,330.54037 234.03075,330.2676 C 232.53241,330.0416 230.7897,327.75229 228.07823,322.44805 C 225.96957,318.32305 223.40407,314.26661 222.3771,313.43373 C 221.35014,312.60086 219.32535,309.90086 217.87757,307.43373 C 216.4298,304.96661 213.24179,300.98417 210.79312,298.58388 C 206.75663,294.62714 205.98194,294.26626 202.49516,294.71842 C 197.15929,295.41036 189.89646,298.23085 188.39935,300.19247 C 187.71185,301.09328 187.14935,303.0392 187.14935,304.51673 C 187.14935,305.99427 186.51317,307.73115 185.73561,308.37646 C 184.95805,309.02178 184.08728,312.11438 183.80056,315.24891 C 183.26688,321.0833 182.41517,327.20916 181.58482,331.1854 C 181.01448,333.91654 177.00987,336.71549 174.85546,335.88877 C 173.98883,335.55621 171.33792,332.06603 168.96456,328.13281 C 163.15212,318.50024 150.99117,306.44805 147.08411,306.44805 C 146.42483,306.44805 144.36249,305.50683 142.50113,304.35645 C 139.68011,302.61296 138.24578,302.38263 133.8831,302.97258 C 127.01599,303.90118 122.98907,308.07972 123.78774,313.44805 C 124.07412,315.37305 123.78559,318.29805 123.14654,319.94805 C 122.5075,321.59805 121.60062,326.32305 121.13125,330.44805 C 120.66189,334.57305 119.7976,342.22305 119.21061,347.44805 C 118.62362,352.67305 117.65773,358.69865 117.0642,360.83826 C 116.21471,363.90057 116.26855,364.91627 117.3172,365.61088 C 118.04988,366.09621 126.20189,366.40815 135.43277,366.30409 C 147.74395,366.1653 152.54036,366.44756 153.43277,367.36337 C 154.26694,368.21942 155.90667,368.37941 158.64935,367.87236 C 160.84935,367.46565 167.14935,367.01745 172.64935,366.87637 z M 111.23175,366.19805 C 111.27707,366.06055 111.50284,361.22305 111.73346,355.44805 C 111.96408,349.67305 112.59484,342.69805 113.13514,339.94805 C 113.67544,337.19805 114.07036,330.40745 114.01273,324.85783 C 113.95511,319.30821 114.30409,313.90821 114.78825,312.85783 C 115.27241,311.80745 115.59669,308.69805 115.50887,305.94805 C 115.42104,303.19805 115.30422,298.81055 115.24927,296.19805 C 115.19431,293.58555 114.7438,291.44805 114.24813,291.44805 C 113.11806,291.44805 109.79779,297.01283 108.0593,301.82054 C 107.33458,303.82471 105.59587,306.50855 104.19549,307.78463 C 100.89721,310.79015 81.145047,322.16004 77.735337,323.01583 C 74.677367,323.78333 69.452277,321.8871 68.215207,319.5609 C 66.880937,317.05193 68.626117,302.6837 70.519207,300.59186 C 71.415787,299.60115 72.149347,298.36574 72.149347,297.84651 C 72.149347,297.32727 73.724347,294.51093 75.649347,291.58796 C 77.574347,288.665 79.149347,285.94512 79.149347,285.54378 C 79.149347,284.30235 85.035487,273.23135 86.635527,271.46333 C 87.468127,270.54331 88.149347,269.34194 88.149347,268.79362 C 88.149347,268.2453 89.228967,266.78243 90.548497,265.5428 C 91.868017,264.30317 94.144277,260.73723 95.606837,257.61849 C 97.069397,254.49975 100.07206,249.69805 102.27943,246.94805 C 104.48679,244.19805 108.02227,239.69805 110.13604,236.94805 L 113.97925,231.94805 L 114.27226,220.44805 C 114.75762,201.39845 114.2244,195.93834 111.52088,192.27392 C 110.21654,190.50598 109.14935,188.56057 109.14935,187.95077 C 109.14935,186.47607 103.29167,178.52349 100.14935,175.73207 C 98.120427,173.92972 96.424547,173.50635 91.149347,173.48523 C 80.296547,173.44178 78.630547,174.32217 66.070827,186.73792 C 59.789017,192.94772 53.238477,198.60608 51.514087,199.31205 C 48.666047,200.47805 41.010697,208.99741 36.915987,215.55774 C 36.020107,216.99307 34.520017,218.93453 33.582447,219.8721 C 32.605847,220.84869 31.524887,224.21872 31.051567,227.76241 C 29.016637,242.99748 28.134577,247.57593 26.699947,250.35021 C 24.838067,253.95068 23.475787,271.99508 24.163437,283.94805 C 24.289997,286.14805 24.056757,289.20852 23.645117,290.7491 C 23.032307,293.04256 23.481187,294.2775 26.122157,297.56384 C 28.814007,300.91348 29.243817,302.13094 28.720107,304.92257 C 28.147317,307.9758 28.477917,308.58339 32.509597,311.88705 C 35.846367,314.62128 37.203567,316.60629 38.058987,320.00345 C 38.978347,323.65456 39.845727,324.81249 42.670347,326.15945 C 44.583797,327.07191 46.149347,328.15255 46.149347,328.56086 C 46.149347,328.96917 48.769997,330.8952 51.973017,332.84093 C 55.176037,334.78667 58.319407,337.52587 58.958287,338.92807 C 59.597177,340.33026 61.139017,341.94269 62.384627,342.51124 C 63.630227,343.07979 65.603677,345.0031 66.770067,346.78526 C 68.703937,349.74007 69.262237,349.99014 73.106767,349.6235 C 75.425807,349.40234 77.823667,349.72236 78.436047,350.33475 C 79.048367,350.94706 80.522477,351.44805 81.711847,351.44805 C 82.901217,351.44805 85.573097,352.79805 87.649347,354.44805 C 89.725607,356.09805 91.852617,357.44805 92.376047,357.44805 C 92.899477,357.44805 95.295817,359.47305 97.701247,361.94805 C 101.61752,365.9776 102.54909,366.44805 106.61205,366.44805 C 109.10756,366.44805 111.18643,366.33555 111.23175,366.19805 z M 177.79438,320.11478 C 177.87414,317.82308 178.70031,313.92305 179.63031,311.44805 C 181.847,305.54882 181.1252,301.64856 176.41731,294.08648 C 171.06564,285.4903 170.14935,283.70274 170.14935,281.85855 C 170.14935,280.9694 168.12435,277.98962 165.64935,275.23683 C 163.17435,272.48403 161.14935,269.60671 161.14935,268.84278 C 161.14935,268.07885 159.63658,265.76502 157.78765,263.70093 C 155.93871,261.63685 152.75489,256.45551 150.71248,252.18685 C 148.67008,247.91818 145.42394,242.08508 143.49883,239.22438 C 141.57373,236.36369 139.40557,232.65623 138.6807,230.98559 C 137.35498,227.93015 135.86335,225.81493 131.02546,220.13001 L 128.40156,217.04671 L 124.46431,224.99738 L 120.52705,232.94805 L 120.61177,250.63829 C 120.65837,260.36792 121.03089,268.66292 121.43959,269.07162 C 121.84829,269.48032 122.71518,269.28222 123.36602,268.63138 C 124.9838,267.0136 126.14935,267.14621 126.14935,268.94805 C 126.14935,269.77305 125.67639,270.44805 125.09832,270.44805 C 122.75008,270.44805 121.14935,277.46117 121.14935,287.74926 C 121.14935,293.45026 121.4368,298.40217 121.78813,298.7535 C 122.13946,299.10483 123.74899,298.27983 125.36486,296.92017 C 128.43508,294.33675 131.58038,293.71842 132.67143,295.48377 C 133.02349,296.05342 134.96255,296.44837 136.98045,296.36142 C 138.99834,296.27448 142.55256,296.65849 144.87872,297.21477 C 150.26782,298.50353 159.9134,304.87486 162.01256,308.53243 C 162.90017,310.079 164.58337,311.7804 165.753,312.31332 C 168.10928,313.38692 174.45788,320.88145 175.51821,323.84118 C 176.52558,326.65309 177.62972,324.84546 177.79438,320.11478 z M 79.637997,313.10226 C 80.378177,312.36208 83.833537,311.19478 87.316567,310.50826 C 96.112677,308.77452 96.066647,308.79576 97.139607,305.97368 C 97.667737,304.58458 98.477637,303.44805 98.939387,303.44805 C 99.401127,303.44805 100.47757,301.98555 101.33147,300.19805 C 102.18537,298.41055 104.98982,294.36499 107.56358,291.20792 C 114.84549,282.27567 115.38224,280.30022 115.09276,263.49791 C 114.95489,255.49549 114.8209,247.25316 114.79501,245.18162 C 114.76913,243.11008 114.30003,241.56449 113.75259,241.74697 C 113.20514,241.92945 111.24708,244.83081 109.40134,248.19443 C 107.55559,251.55805 104.45533,256.02864 102.51185,258.12908 C 100.56838,260.22951 97.842117,264.19805 96.453497,266.94805 C 95.064877,269.69805 93.153147,272.84805 92.205207,273.94805 C 89.732237,276.8177 83.154647,288.45689 76.525757,301.69315 C 74.154197,306.42856 73.608427,309.87486 74.756337,312.86626 C 75.499197,314.80211 77.825677,314.91458 79.637997,313.10226 z M 195.90085,289.33348 C 199.6078,287.64477 201.63013,287.34672 205.94259,287.85357 L 211.34255,288.48823 L 210.68029,283.21814 C 210.08298,278.46487 209.03914,275.82571 203.84964,265.94805 C 202.98277,264.29805 194.34212,246.86125 184.64819,227.19962 C 174.95426,207.53798 165.8992,190.11578 164.52583,188.48362 C 161.15274,184.47493 156.07983,183.51757 153.24306,186.35434 C 152.09152,187.50588 150.72967,188.44805 150.21674,188.44805 C 149.7038,188.44805 149.03109,189.2453 148.72182,190.21972 C 148.41255,191.19414 146.36087,193.78164 144.16252,195.96972 C 141.96417,198.1578 138.78028,202.0617 137.0872,204.64505 L 134.00888,209.34206 L 135.9166,213.64505 C 136.96584,216.0117 138.57245,218.56565 139.48683,219.32049 C 140.40122,220.07534 141.14935,221.25507 141.14935,221.94213 C 141.14935,223.3187 154.17124,243.74753 155.389,244.28138 C 155.80719,244.46472 156.14935,245.28776 156.14935,246.11036 C 156.14935,247.94686 163.66923,262.19477 166.09166,264.94805 C 167.05947,266.04805 168.12926,267.73555 168.46895,268.69805 C 168.80865,269.66055 169.68743,270.44805 170.4218,270.44805 C 172.26837,270.44805 177.76863,276.4189 178.67174,279.40385 C 179.545,282.2901 188.06059,291.35061 189.95421,291.4083 C 190.67189,291.43016 193.34787,290.49649 195.90085,289.33348 z M 274.61716,243.85684 C 276.07482,241.63217 276.31659,238.34328 276.32629,220.60684 C 276.33251,209.2445 275.91293,198.37305 275.3939,196.44805 L 274.45019,192.94805 L 273.65519,196.94805 C 273.21794,199.14805 271.28787,204.0479 269.36615,207.8366 C 267.13125,212.24276 265.50267,217.28958 264.84693,221.84133 C 263.89822,228.42667 264.02501,229.56788 266.5467,237.13983 C 268.9722,244.42293 270.00599,246.08584 272.28434,246.3691 C 272.63358,246.41252 273.68335,245.282 274.61716,243.85684 z M 124.0064,215.73928 L 127.04883,210.53052 L 122.52987,205.73928 L 118.0109,200.94805 L 118.56912,204.94805 C 118.87614,207.14805 119.13229,212.07555 119.13834,215.89805 C 119.1505,223.57162 119.437,223.56227 124.0064,215.73928 z M 261.24399,210.09659 C 261.82354,207.9443 262.69254,205.4554 263.17509,204.56569 C 267.03132,197.45582 270.4707,187.19675 270.39711,183.02361 C 270.23754,173.97423 263.11188,156.03497 261.42986,160.44805 C 261.11541,161.27305 259.18329,163.52305 257.13625,165.44805 C 255.08921,167.37305 253.11218,169.92029 252.74286,171.10859 C 252.37354,172.29689 250.92683,174.01905 249.52797,174.93563 C 244.23801,178.40174 239.14949,183.73819 239.15461,185.81441 C 239.15751,186.98791 239.94501,189.1133 240.90461,190.5375 C 241.86422,191.9617 244.89188,196.4617 247.63275,200.5375 C 250.37362,204.6133 253.66968,210.19805 254.95734,212.94805 C 257.18011,217.69515 257.37166,217.84845 258.74439,215.97895 C 259.53962,214.89594 260.66444,212.24888 261.24399,210.09659 z M 133.32846,200.19805 C 137.90485,193.93223 141.28794,187.90403 142.58843,183.69805 C 143.19677,181.73058 142.92849,181.44805 140.45193,181.44805 C 138.89422,181.44805 135.94053,180.54805 133.88817,179.44805 C 131.45197,178.14233 128.24608,177.44805 124.65297,177.44805 L 119.14935,177.44805 L 118.9852,180.69805 C 118.71722,186.00367 119.31943,193.91041 120.03245,194.44805 C 121.27045,195.38155 124.14935,200.37172 124.14935,201.58413 C 124.14935,202.88986 127.04783,206.44805 128.11147,206.44805 C 128.47015,206.44805 130.81779,203.63555 133.32846,200.19805 z M 214.31719,192.81607 C 220.29336,189.8662 225.40528,184.99696 224.95009,182.68796 C 224.78468,181.84891 223.90321,180.69258 222.99127,180.11833 C 221.6569,179.27808 219.9115,180.23334 214.0513,185.01115 C 210.04627,188.27644 206.29241,191.2941 205.70939,191.71705 C 205.01849,192.21826 205.32532,193.00179 206.59048,193.96705 C 208.96924,195.78194 208.02305,195.92289 214.31719,192.81607 z M 204.98587,186.23351 C 207.55079,184.46551 211.33,181.45588 213.38413,179.54543 C 216.9485,176.23037 217.04088,175.98567 215.40891,174.18236 C 211.7779,170.17015 190.10212,162.36779 187.34413,164.08024 C 183.07945,166.72819 180.74667,177.65834 183.53724,181.91729 C 185.55704,184.9999 193.64291,189.33841 197.48587,189.40149 C 199.10692,189.4281 202.32074,188.07059 204.98587,186.23351 z M 112.69988,173.79337 C 112.22339,171.89485 111.4481,171.44805 108.6303,171.44805 C 106.71578,171.44805 105.14935,171.75262 105.14935,172.12487 C 105.14935,172.49711 106.83685,175.25962 108.89935,178.26376 L 112.64935,183.72585 L 112.96894,179.93227 C 113.14471,177.84581 113.02364,175.0833 112.69988,173.79337 z M 161.14935,176.895 C 161.14935,176.59082 160.03716,174.70521 158.67781,172.70475 L 156.20628,169.06756 L 154.67781,172.72568 C 153.83716,174.73766 153.14935,176.62327 153.14935,176.91593 C 153.14935,177.2086 154.94935,177.44805 157.14935,177.44805 C 159.34935,177.44805 161.14935,177.19918 161.14935,176.895 z M 110.61945,154.69805 C 109.57323,137.75139 108.59706,132.43588 105.14664,124.89711 C 102.07071,118.17656 98.356167,114.44805 94.736727,114.44805 C 94.048927,114.44805 92.060397,116.64841 90.317767,119.33775 C 85.999387,126.00213 86.056967,131.14327 90.569777,141.84034 C 92.451007,146.29958 94.300847,151.47467 94.680527,153.34055 C 95.061047,155.21056 97.173427,158.6886 99.387457,161.09055 C 102.82218,164.81677 103.97479,165.44805 107.34359,165.44805 L 111.28312,165.44805 L 110.61945,154.69805 z M 256.04843,154.85058 C 257.14034,151.83098 257.73481,151.32681 259.74932,151.71191 C 263.14436,152.36091 262.76746,151.26229 257.71069,145.76946 C 255.26943,143.11769 252.56943,140.16055 251.71069,139.19805 C 249.55829,136.78557 248.44838,136.99924 246.80109,140.1432 C 245.48223,142.66035 245.65603,143.35385 249.43263,150.6432 C 251.65665,154.93587 253.76234,158.44805 254.11194,158.44805 C 254.46154,158.44805 255.33296,156.82919 256.04843,154.85058 z M 157.82615,155.19805 C 160.16368,151.52191 163.14205,142.44047 163.15554,138.94805 C 163.16404,136.74805 163.85656,132.69805 164.69448,129.94805 C 167.9199,119.36231 163.50336,107.7342 154.62483,103.43618 C 149.87816,101.13836 148.19673,101.30752 142.52588,104.6534 C 139.50567,106.43537 139.14935,107.10895 139.14935,111.0363 C 139.14935,113.45119 140.22591,118.24424 141.54171,121.68753 C 142.8575,125.13082 144.70895,130.56595 145.65603,133.7656 C 146.6031,136.96525 148.16175,140.34025 149.11969,141.2656 C 150.07763,142.19095 151.12199,144.29805 151.4405,145.94805 C 152.27459,150.26893 155.01885,156.44805 156.10375,156.44805 C 156.61391,156.44805 157.38899,155.88555 157.82615,155.19805 z"
     id="path2384"
     style="fill:#000000" />
</svg>
