<?xml version="1.0" encoding="UTF-8"?>
<svg version="1.1" xmlns="http://www.w3.org/2000/svg" width="329" height="56" >
<path fill="#231F20" d="M15.781,31.657c6.99,0.19,12.587-7.542,16-12.623c1.569-2.337,5.105-7.605,2.686-10.362 c-1.024-1.167-3.791-0.077-4.884,0.449C22.645,12.462,17.573,21.95,13.46,28.026C9.489,33.893,5.697,39.901,2.098,46.004 c0.275-0.467,2.477-0.063,2.897-0.776c6.022-10.209,12.418-20.384,19.84-29.638c1.86-2.319,3.856-4.668,6.279-6.424 c0.885-0.642-0.937-0.457,0.073,0.002c0.437,0.199,0.685,0.629,0.905,1.024c0.55,0.988,0.151,2.417-0.109,3.417 c-0.902,3.474-3.302,6.674-5.453,9.465c-1.381,1.793-2.934,3.447-4.573,5.004c-0.617,0.586-1.279,1.119-1.947,1.645 c-0.832,0.656-3.047,1.073-1.454,1.116C17.681,30.814,16.316,31.671,15.781,31.657L15.781,31.657 M26.356,25.998c0.771-2.72,2.014-7.458-0.592-9.491c-0.946-0.739-3.956-0.012-4.797,0.655 c-1.355,1.076-1.601,2.908-1.997,4.505c-0.87,3.509-2.006,6.721-3.816,9.864c-1.529,2.655-3.21,4.622-3.215,7.841 c-0.006,4.345,3.849,4.35,7.001,3.268c8.869-3.045,14.693-13.938,19.146-21.382c-0.275,0.46-2.43,0.106-2.897,0.776 c-2.87,4.111-5.526,8.422-7.697,12.944c-1.367,2.846-3.616,8.933,1.661,7.52c4.229-1.133,6.783-5.202,9.149-8.604 c2.861-4.115,5.421-8.482,7.784-12.901c-0.219,0.41-2.428,0.184-2.897,0.776c-2.16,2.726-11.992,17.805-2.479,15.203 c3.448-0.943,5.632-3.893,7.736-6.604c5.644-7.27,10.342-15.337,15.237-23.113c-0.298,0.474-2.423,0.089-2.897,0.776 c-3.098,4.487-5.996,9.127-8.646,13.891c-0.813,1.461-7.338,12.718-2.632,12.799c3.325,0.058,6.008-2.531,7.996-4.842 c4.422-5.14,8.123-10.889,11.825-16.554c1.428-2.185,2.836-4.383,4.303-6.541c0.438-0.644,0.879-1.299,1.394-1.885 c-0.971,1.104-2.155-0.118-2.733,1.603c-1.443,4.289-3.965,8.195-6.086,12.162c-1.621,3.032-3.216,6.079-4.751,9.156 c-0.864,1.732-2.389,3.983-2.535,5.97c-0.031,0.421,2.408-0.362,2.702-0.471c2.242-0.822,4.008-4.622,5.272-6.425 c3.661-5.223,7.026-10.677,10.268-16.168c-0.966,0.259-1.932,0.518-2.897,0.776c1.405,1.245,0.332,4.017-0.165,5.372 c-2.03,5.537-7.196,9.611-8.394,15.523c-1.144,5.643,9.542,1.36,11.385,0.56c3.427-1.487,6.637-3.674,9.055-6.528 c1.001-1.182,2.989-6.599-0.308-6.237c-5.001,0.549-8.109,4.823-9.445,9.414c-2.032,6.985,6.254,5.433,9.797,3.424 c3.474-1.97,5.528-5.695,5.835-9.538c0.158-1.987-1.382-0.015,0.426-0.167c0.851-0.072,1.679-0.274,2.499-0.508 c0.819-0.234-0.386,1.824-0.732,2.449c-1.176,2.121-3.021,3.949-3.401,6.42c-0.41,2.661,5.717,1.467,6.894,1.413 c4.888-0.228,6.923-2.486,9.915-6.424c2.567-3.381,4.861-6.979,7.103-10.58c0.927-1.489,4.001-5.037,3.889-6.881 c-0.021-0.007-0.041-0.014-0.061-0.021c-2.787-0.787-5.206,3.327-6.417,4.94c-5.09,6.781-9.728,14.225-12.804,22.146 c-1.179,3.034-4.142,14.14,2.243,12.429c7.52-2.015,7.521-13.696,6.59-19.701c-0.966,0.259-1.932,0.518-2.897,0.776 c3.396,1.766,7.346,3.425,11.208,2.6c0.944-0.202,2.715-0.508,3.27-1.406c0.91-1.471,2.685-8.955,4.176-9.397 c-0.623,0.122-1.245,0.244-1.868,0.366c1.152,0.671,1.389,0.337,0.126,0.862c-1.026,0.427-1.917,1.068-2.731,1.815 c-2.13,1.953-2.072,8.137,1.244,9.038c5.33,1.448,6.23-5.841,6.171-9.37c-0.06-3.581-7.976-0.712-3.377,2.92 c4.35,3.437,9.868-1.088,12.008-4.59c0.885-1.449,1.625-2.985,2.486-4.448c0.404-0.687,0.882-1.312,1.487-1.833 c-1.541,1.328-1.324,0.194-0.6,1.52c1.315,2.408-2.645,7.586-3.621,9.648c-3.047,6.435,6.346,2.354,8.635,0.911 c2.614-1.649-0.16-0.081-0.214-0.268c0.35,1.221,0.721,1.76,1.643,2.663c0.863,0.847,1.802,0.959,2.896,0.754 c2.078-0.39,2.984-1.143,4.349-2.765c0.898-1.067,6.013-9.107,2.604-9.929c-1.101-0.265-2.97,0.356-3.796,1.104 c-2.339,2.115-1.926,7.281-0.378,9.605c1.14,1.709,3.59,0.85,5.119,0.289c5.647-2.072,10.955-11.991,11.499-17.658 c0.111-1.161-2.381-0.148-2.837,0c-1.925,0.626-3.211,2.489-4.315,4.075c-5.306,7.626-3.982,16.057,5.158,19.414 c0.847,0.311,2.271-1.007,2.898-0.776c-7.499-2.753-10.102-8.624-7.06-15.964c1.012-2.441,2.618-4.863,4.607-6.612 c1.052-0.925-1.671-0.263-1.371,0.39c0.15,0.327-0.075,0.987-0.135,1.298c-0.314,1.628-1.093,3.204-1.781,4.697 c-1.68,3.646-3.905,7.253-6.761,10.09c-0.377,0.358-0.78,0.684-1.209,0.978c0.691-0.513-0.042-0.146-0.915-0.999 c-1.283-1.251-1.242-3.554-1.148-5.177c0.078-1.366,0.527-2.709,1.151-3.913c-0.935,1.803-1.385-0.918-0.778,1.8 c0.231,1.035-0.223,2.231-0.525,3.192c-0.72,2.283-2.441,4.401-4.03,6.134c-0.678,0.739-0.326-0.785-1.178-1.62 c-0.652-0.64-0.66-1.324-0.891-2.128c-0.02-0.007-0.04-0.014-0.061-0.021c-1.245-0.233-2.916,0.55-3.982,1.143 c-1.278,0.71-3.735,3.298-4.912,1.38c-0.666-1.086,0.903-3.484,1.358-4.381c1.07-2.114,4.577-6.772,2.225-8.967 c-0.847-0.79-3.247,0.098-4.071,0.556c-2.425,1.348-3.541,5.113-4.913,7.358c-1.779,2.91-3.328,4.183-6.473,1.698 c-0.572-0.451-0.691-1.166-0.74-1.829c0.029-0.492,0.223-0.917,0.581-1.275c-1.711-0.045-2.271,0.362-1.678,1.221 c0.547,1.16,0.099,3.154-0.046,4.352c-0.107,0.89-0.324,1.756-0.553,2.62c-0.144,0.503-0.33,0.991-0.558,1.462 c-0.545,0.751-0.427,0.78,0.353,0.085c-3.888-2.78-2.269-8.921,1.856-10.301c0.015-0.005,0.727-0.231,0.688-0.305 c-1.468-2.776-5.016,1.621-5.627,2.835c-0.713,1.416-1.276,2.917-1.874,4.383c-0.813,1.996-0.533,2.901-2.777,2.549 c-2.459-0.386-4.916-1.506-7.119-2.652c-0.305-0.159-2.933,0.548-2.897,0.776c0.829,5.349,0.485,10.677-1.84,15.621 c-0.465,0.988-1.118,1.871-1.864,2.664c-0.947,1.006,0.4,0.036-0.151-0.612c-1.199-1.41-0.927-4.224-0.777-5.91 c0.725-8.159,6.376-16.36,10.752-22.995c1.77-2.683,3.645-5.311,5.676-7.802c2.498-3.063-1.597,0.177-1.386-0.532 c-0.411,1.376-1.507,2.759-2.229,3.983c-2.311,3.917-4.794,7.736-7.413,11.454c-1.328,1.885-2.734,3.718-4.279,5.431 c-0.462,0.512-0.968,0.969-1.495,1.411c-1.142,0.958,2.906-0.173,0.223-0.214c-2.105-0.032-7.214,1.496-6.665-2.067 c0.141-0.916,5.316-8.491,3.565-8.234c-0.682,0.101-1.34,0.25-2.007,0.426c-1.01,0.266-1.385-0.335-2.414-0.494 c-1.084-0.167-3,0.562-3.607,1.439c-0.922,1.332-0.632,4.044-1.513,5.682c-1.127,2.099-4.12,5.819-6.989,4.75 c-3.629-1.353-1.052-6.795,0.133-8.879c0.896-1.576,2.117-2.995,3.572-4.07c-0.734,0.542,0.288,1.925,0.195,3.253 c-0.33,4.729-9.827,10.681-13.974,10.388c-7.982-0.563,10.851-19.786,6.379-23.746c-0.293-0.26-2.699,0.44-2.897,0.776 c-1.964,3.327-4.005,6.61-6.083,9.867c-1.575,2.468-3.204,4.901-4.884,7.298c-0.743,1.059-3.649,4.971-3.596,4.954 c0.737-0.157,1.474-0.314,2.21-0.472c-1.154-0.587,10.372-21.161,11.614-23.417c0.838-1.521,3.578-5.726,0.357-4.863 c-2.574,0.69-3.687,3.471-5.063,5.569c-3.263,4.978-6.479,9.985-9.969,14.809c-1.705,2.356-3.492,4.668-5.502,6.773 c-0.607,0.636-1.262,1.217-1.958,1.753c-0.951,0.733-1.033,0.096,0.631,0.125c-0.506-0.009-0.784-0.294-1.049-0.651 c-2.286-3.085,4.028-12.084,5.458-14.563c2.253-3.904,4.691-7.72,7.251-11.429c-0.966,0.259-1.932,0.518-2.897,0.776 c-3.846,6.107-7.668,12.232-11.721,18.206c-2.437,3.593-4.993,7.575-8.489,10.233c-0.896,0.681,0.953,0.456-0.244-0.141 c-0.495-0.247-0.722-0.771-0.933-1.24c-0.73-1.625,0.522-4.061,1.166-5.496c1.379-3.077,3.431-5.966,5.521-8.603 c-0.966,0.259-1.932,0.518-2.897,0.776c-1.598,2.989-3.322,5.913-5.105,8.794c-1.366,2.207-2.815,4.359-4.354,6.45 c-0.837,1.138-1.74,2.221-2.695,3.261c-0.331,0.351-0.675,0.688-1.033,1.01c-0.702,0.658-1.115,0.414-0.535,0.612 c-4.487-1.538,7.056-18.397,8.62-20.638c-0.966,0.259-1.932,0.518-2.897,0.776c-4.22,7.054-8.89,14.996-15.814,19.748 c-2.994,2.056-4.669-1.242-4.514-4.033c0.08-1.435,0.615-2.82,1.267-4.082c2.043-3.957,4.269-7.185,5.445-11.587 c0.43-1.61,0.722-3.234,1.421-4.755c-1.188-0.44-1.047-0.311,0.421,0.386c0.588,0.459,0.714,1.48,0.847,2.14 c0.439,2.188-0.205,4.812-0.803,6.923C23.545,26.469,26.174,26.639,26.356,25.998L26.356,25.998 M51.363,10.498c-1.335,1.399,2.52,1.486,2.995,1.488c11.615,0.046,23.824-3.856,34.966-6.59 c0.922-0.226,2.749-0.96,0.703-0.458c-10.651,2.614-22.481,6.5-33.611,6.22c-0.524-0.013-3.224-0.31-2.241-1.34 C53.901,10.105,51.92,9.914,51.363,10.498L51.363,10.498 M183.149,33.075c2.335-4.017,4.929-7.893,7.65-11.656c2.354-3.256,4.902-6.383,7.754-9.218 c2.879-2.863,5.746-5.48,9.431-2.137c3.214,2.916-2.32,8.328-4.207,9.984c-0.78,0.685-5.374,4.289-0.166,1.311 c1.264-0.722,2.804-1.44,4.269-1.274c3.506,0.399-0.069,7.234-0.776,8.589c-1.036,1.984-2.099,3.951-3.65,3.035 c-1.894-1.118-2.441-4.372-2.893-6.259c-0.042-0.173-2.951,0.554-2.898,0.776c0.979,4.087,2.257,7.627,6.808,6.408 c4.103-1.1,5.985-5.034,7.252-8.797c2.454-7.292-8-4.342-11.09-1.697c0.242-0.207,2.079-0.316,2.676-0.609 c3.796-1.868,11.604-8.587,6.849-12.902c-2.667-2.419-7.094-0.809-9.797,0.617c-5.416,2.856-9.557,8.938-13.048,13.766 c-2.522,3.488-4.896,7.117-7.061,10.84C180.521,33.387,182.734,33.788,183.149,33.075L183.149,33.075 M212.904,30.77c-0.296,0.865-0.704,2.528,0.307,3.068c0.325,0.173,1.17-0.173,1.484-0.258 c0.341-0.091,0.682-0.191,1.014-0.313c-0.045,0.016,0.441-0.184,0.4-0.206c-1.012-0.541-0.603-2.203-0.307-3.068 c0.005-0.014-1.396,0.234-1.484,0.258C214.088,30.313,213.001,30.488,212.904,30.77L212.904,30.77 M236.594,16.354c0.443-2.396,1.388-4.682,2.51-6.831c1.08-2.066,8.735-10.969,9.913-5.111 c0.767,3.812-3.005,9.006-4.916,11.953c-1.782,2.748-3.786,5.347-5.569,8.1c-0.826,1.277-1.659,2.544-2.527,3.793 c-0.256,0.335-0.511,0.671-0.766,1.007c-1.252,1.709-1.674,2.052-1.267,1.029c-0.785-0.366-2.351,1.032-2.898,0.776 c3.583,1.672,6.885-2.234,8.629-4.739c2.945-4.233,5.979-8.521,8.668-12.92c1.745-2.854,4.12-6.912,3.418-10.401 c-0.687-3.416-8.1,0.086-9.633,0.887c-4.64,2.42-7.542,8.282-8.46,13.235C233.737,16.904,236.484,16.94,236.594,16.354 L236.594,16.354 M263.55,7.59c-3.954,5.23-7.705,10.684-10.875,16.427c-1.738,3.15-5.121,11.695,1.72,9.679 c6.882-2.027,7.006-14.223,2.392-18.435c-2.52-2.3-9.322-2.097-11.323,1.083c-4.865,7.733,9.06,12.354,14.391,11.899 c2.414-0.206,4.887-1.095,7.029-2.174c0.643-0.324,6.765-4.91,5.218-6.237c-2.037-1.749-8.429,3.576-9.328,4.647 c-3.816,4.553-1.015,9.395,4.588,7.215c1.303-0.507,10.108-7.826,8.471-9.142c-0.419-0.336-2.429,0.489-2.855,0.728 c-3.098,1.734-1.399,4.668,1.478,5.171c2.368,0.415,5.521-0.431,7.724-1.299c2.672-1.053,5.777-2.621,4.476-5.981 c-0.363-0.939-2.817-0.014-3.389,0.358c-2.035,1.328-0.321,6.268,1.508,6.949c1.23,0.458,3.024,0.124,3.709,1.471 c0.459,0.904-1.782,3.706-2.228,4.445c-1.295,2.148-11.23,17.718-6.833,19.319c3.526,1.284,7.586-4.353,9.153-6.407 c5.959-7.813,11.036-17.212,13.809-26.654c0.366-1.248,3.028-8.955,0.807-9.698c-0.972-0.325-3.066,0.699-3.77,1.341 c-2.475,2.263-4.242,7.079-4.037,10.308c0.273,4.297,6.271,4.061,9.176,3.691c5.154-0.655,9.969-2.937,14.361-5.588 c1.301-0.785,2.565-1.632,3.853-2.441c1.128-0.583,0.932-0.608-0.591-0.075c0.274,0.221-0.433,1.526-0.475,1.622 c-1.769,4.031-3.437,9.994-7.33,12.471c0.445-0.284,2.076-0.211,2.813-0.68c3.212-2.042,4.496-6.049,5.958-9.378 c0.267-0.606,3.167-5.111,1.22-4.935c-4.745,0.428-9.02,4.758-13.108,6.758c-3.725,1.823-11.546,3.343-12.978-2.222 c-0.757-2.939,1.673-6.839,3.176-9.214c0.317-0.495,0.696-0.938,1.139-1.329c-1.553-0.05-2.112,0.334-1.678,1.152 c0.445,1.245-0.093,3.083-0.305,4.309c-0.722,4.196-2.196,8.23-3.874,12.125c-2.916,6.766-6.701,13.28-11.063,19.212 c-0.883,1.202-1.84,2.343-2.854,3.435c-0.325,0.341-0.663,0.667-1.017,0.978c-1.296,1.192-0.814-0.042,0.249,0.345 c-1.83-0.667-0.014-5.188,0.341-6.179c2.015-5.636,5.413-10.812,8.494-15.909c1.749-2.894-2.198-2.671-3.923-3.313 c-1.915-0.712-1.8-5.281-0.846-6.638c-0.945,0.266-1.891,0.532-2.837,0.797c1.04,0.009,0.867,2.158,0.775,2.712 c-0.441,2.666-4.769,3.428-6.829,3.323c-3.034-0.154-4.277-3.445-1.44-5.033c-0.952,0.243-1.903,0.485-2.855,0.728 c0.934,0.75-5.716,8.278-6.549,8.279c-2.359,0.003-2.964-3.135-2.575-4.826c0.485-2.113,2.458-3.815,4.078-5.086 c1.444-1.134,2.123-1.393,1.053,0.471c-2.501,4.354-7.464,5.938-12.188,4.833c-4.34-1.015-12.479-6.803-8.003-11.873 c1.525-1.727,4.495,0.322,5.757,1.474c2.255,2.059,2.404,5.404,2.339,8.213c-0.071,3.033-0.887,6.619-3.258,8.699 c0.496-0.435-0.776-2.914-0.567-4.193c0.768-4.701,4.397-9.409,6.935-13.29c2.055-3.144,4.229-6.222,6.494-9.218 C266.066,7.318,264.082,6.886,263.55,7.59L263.55,7.59z"/>
</svg>