<?xml version="1.0" standalone="no"?>
<!DOCTYPE svg PUBLIC "-//W3C//DTD SVG 20010904//EN"
 "http://www.w3.org/TR/2001/REC-SVG-20010904/DTD/svg10.dtd">
<svg version="1.0" xmlns="http://www.w3.org/2000/svg"
 width="1552.000000pt" height="308.000000pt" viewBox="0 0 1552.000000 308.000000"
 preserveAspectRatio="xMidYMid meet">
<metadata>
Created by potrace 1.11, written by Peter Selinger 2001-2013
</metadata>
<g transform="translate(0.000000,308.000000) scale(0.100000,-0.100000)"
fill="#000000" stroke="none">
<path d="M5892 2850 c-43 -10 -57 -24 -40 -37 18 -14 99 -33 141 -33 85 0 264
-138 323 -250 13 -25 37 -67 54 -95 40 -68 150 -290 150 -304 0 -19 -31 -75
-49 -88 -9 -7 -30 -13 -47 -13 -17 0 -45 -5 -62 -11 -26 -9 -43 -6 -119 24
-157 62 -200 68 -350 43 -91 -14 -137 -40 -198 -107 -19 -22 -39 -39 -44 -39
-8 0 -35 -37 -71 -99 -8 -14 -23 -32 -32 -39 -10 -7 -39 -41 -65 -75 -26 -34
-56 -71 -65 -82 -10 -10 -23 -37 -29 -59 -6 -23 -24 -56 -40 -74 -16 -18 -29
-43 -29 -55 0 -12 -9 -33 -20 -47 -11 -14 -20 -37 -20 -52 0 -14 -11 -39 -24
-55 -32 -39 -46 -68 -46 -95 0 -13 -11 -40 -25 -60 -14 -20 -25 -44 -25 -53 0
-9 -9 -33 -20 -55 -11 -22 -20 -45 -20 -53 0 -7 -9 -32 -20 -55 -12 -23 -20
-61 -20 -89 0 -27 -6 -57 -14 -68 -25 -38 -26 -105 -1 -87 14 10 72 106 80
133 5 13 20 40 35 59 31 40 70 129 70 159 0 11 4 22 9 26 5 3 19 33 30 68 12
34 32 79 46 99 14 20 25 48 25 61 0 13 16 56 35 96 19 39 35 74 35 78 0 4 6
14 14 22 14 16 42 62 96 161 17 30 48 75 70 99 22 25 40 48 40 52 0 4 10 19
23 33 12 13 39 42 59 65 20 22 40 46 45 54 12 22 92 59 148 68 127 22 163 22
192 3 15 -10 41 -20 56 -21 15 -2 50 -12 77 -24 27 -12 59 -21 72 -20 122 3
234 30 274 68 20 19 24 31 24 86 0 67 -31 177 -56 198 -8 6 -14 20 -14 30 0
10 -4 20 -9 24 -6 3 -16 18 -24 33 -72 143 -96 184 -135 230 -24 29 -57 59
-73 68 -16 8 -29 20 -29 28 0 7 -22 32 -49 54 -36 31 -59 42 -83 42 -18 1 -58
9 -88 20 -57 20 -112 23 -168 10z"/>
<path d="M3720 2769 c-25 -5 -54 -13 -65 -18 -11 -6 -49 -20 -85 -32 -74 -24
-146 -57 -174 -79 -10 -8 -38 -31 -61 -51 -24 -20 -59 -46 -79 -58 -20 -13
-36 -27 -36 -32 0 -5 -24 -33 -54 -63 -62 -61 -86 -102 -86 -146 0 -35 15 -33
24 5 3 13 16 35 29 47 12 13 29 32 37 43 8 12 33 34 55 50 22 16 64 51 93 77
28 25 78 58 110 72 31 14 78 37 105 51 26 14 58 25 70 25 13 0 39 7 57 16 26
14 53 16 139 11 122 -6 218 -36 342 -107 72 -42 189 -144 189 -165 0 -6 8 -20
18 -31 10 -11 35 -44 55 -74 20 -30 45 -64 56 -75 10 -11 28 -38 39 -61 11
-22 28 -46 36 -53 9 -8 16 -19 16 -26 0 -7 15 -31 33 -53 43 -54 97 -141 97
-158 0 -24 -24 -29 -140 -30 -63 0 -129 -4 -146 -8 -22 -6 -39 -3 -55 7 -14 9
-62 18 -114 21 -101 8 -178 -9 -210 -44 -10 -11 -22 -20 -26 -20 -33 0 -329
-251 -329 -279 0 -10 -40 -54 -175 -191 -14 -14 -25 -29 -25 -34 0 -5 -17 -32
-39 -61 -21 -28 -56 -87 -78 -131 -22 -43 -47 -92 -55 -109 -9 -16 -28 -56
-42 -88 -40 -88 -31 -158 12 -89 9 16 34 44 55 62 21 18 50 56 64 84 14 28 32
59 41 69 17 19 35 49 53 87 6 14 24 52 40 86 16 33 50 83 76 111 96 102 121
131 152 177 18 25 36 46 40 46 12 0 54 36 139 117 41 40 89 77 107 83 18 6 47
24 66 41 32 29 37 31 89 24 30 -3 114 -9 185 -14 72 -4 140 -13 152 -19 25
-14 84 -17 195 -9 118 7 151 39 120 117 -20 49 -76 133 -144 214 -32 39 -58
73 -58 77 0 7 -79 127 -101 153 -5 6 -27 39 -49 73 -21 34 -48 67 -59 73 -12
6 -27 23 -36 39 -8 16 -25 31 -39 35 -15 4 -28 17 -34 35 -7 19 -30 40 -74 67
-34 21 -65 40 -68 44 -10 11 -86 39 -160 59 -80 21 -206 25 -290 10z"/>
<path d="M11560 2369 c-30 -4 -89 -13 -130 -19 -77 -12 -135 -33 -278 -103
-69 -34 -94 -53 -143 -109 -32 -38 -59 -75 -59 -81 0 -7 -14 -38 -31 -70 -34
-65 -53 -133 -63 -219 -3 -31 -9 -63 -12 -72 -3 -9 -39 -34 -79 -56 -79 -44
-110 -78 -99 -112 6 -19 12 -20 98 -16 112 6 160 25 179 70 12 29 23 36 88 56
91 27 143 28 189 2 19 -10 63 -33 97 -49 33 -17 63 -36 65 -43 3 -7 30 -14 74
-16 77 -4 83 -1 189 92 51 45 62 50 114 54 76 6 130 -19 212 -99 56 -53 67
-60 94 -55 37 7 75 49 75 82 0 14 7 39 16 57 10 17 18 56 19 85 2 44 8 60 32
85 16 18 42 49 57 71 16 21 45 45 65 53 52 23 225 62 303 69 70 7 101 25 80
46 -12 12 -21 12 -172 4 -139 -7 -198 -19 -265 -54 -68 -35 -98 -62 -161 -146
-43 -57 -57 -92 -69 -168 -7 -44 -30 -50 -80 -20 -16 10 -64 30 -105 45 -96
34 -169 30 -215 -14 -102 -95 -145 -123 -174 -114 -10 3 -50 39 -90 80 -97 99
-130 104 -330 53 l-84 -22 -24 30 c-26 31 -26 33 -4 174 7 51 14 68 35 83 14
10 26 27 26 38 0 19 22 45 66 79 10 8 46 26 79 39 33 13 74 34 90 46 55 39
194 67 345 69 39 1 46 -2 58 -26 19 -40 53 -37 86 6 14 19 26 39 26 44 0 16
-69 72 -90 72 -10 0 -24 2 -32 4 -7 2 -38 0 -68 -5z"/>
<path d="M1861 2203 c-19 -2 -44 -11 -55 -19 -11 -8 -29 -14 -38 -14 -24 0
-85 -40 -122 -79 -17 -17 -33 -31 -37 -31 -4 0 -25 -17 -46 -37 -21 -21 -61
-59 -89 -84 -27 -25 -57 -56 -66 -70 -9 -13 -37 -53 -62 -89 -25 -36 -46 -69
-46 -73 0 -4 -9 -18 -21 -30 -12 -12 -31 -44 -44 -72 -12 -27 -46 -77 -74
-110 -74 -86 -71 -83 -97 -130 -19 -37 -54 -85 -125 -172 -20 -26 -136 -3
-212 41 -24 14 -53 26 -65 26 -12 0 -22 6 -22 13 -1 6 -24 30 -52 52 -28 22
-60 48 -71 58 -11 9 -24 17 -28 17 -5 0 -42 16 -83 35 -65 30 -85 35 -149 35
-65 0 -76 -3 -96 -24 -13 -13 -21 -32 -19 -42 3 -16 15 -19 81 -21 67 -2 82
-6 108 -28 17 -14 38 -25 48 -25 9 0 41 -16 71 -35 30 -19 60 -35 66 -35 6 0
38 -18 70 -39 33 -22 73 -43 89 -47 17 -4 41 -15 54 -26 37 -28 126 -51 170
-43 22 3 49 17 62 31 12 13 28 24 35 24 7 0 16 9 19 20 3 11 10 20 15 20 5 0
18 15 29 34 12 18 31 44 44 57 32 33 75 93 87 121 20 44 36 65 78 107 23 23
42 48 42 55 0 7 9 25 20 38 10 14 17 28 14 31 -3 2 11 14 30 26 19 12 39 35
44 50 6 16 20 34 31 40 11 6 33 33 48 59 46 80 176 198 267 243 85 42 114 46
174 27 27 -8 47 -25 68 -55 16 -24 39 -50 51 -58 12 -8 32 -33 44 -55 12 -22
26 -40 31 -40 4 0 8 -11 8 -24 0 -14 11 -38 25 -54 14 -17 25 -39 25 -50 0
-61 81 -195 108 -178 15 9 21 114 10 181 -6 37 -21 78 -39 106 -16 25 -29 50
-29 56 0 5 -9 18 -20 28 -11 10 -20 23 -20 30 0 14 -70 116 -102 149 -59 60
-152 91 -237 79z"/>
<path d="M5475 2200 c-20 -8 -126 -121 -134 -144 -2 -6 -21 -33 -41 -61 -21
-27 -41 -61 -45 -75 -4 -14 -20 -38 -35 -55 -24 -26 -164 -251 -184 -295 -3
-8 -20 -35 -36 -60 -17 -25 -39 -64 -50 -86 -11 -23 -27 -44 -35 -47 -15 -7
-65 -97 -65 -120 0 -8 -19 -30 -42 -50 -49 -40 -87 -102 -71 -118 18 -18 68
14 127 81 32 36 67 84 78 108 11 23 28 47 38 52 51 27 141 136 178 215 11 22
29 49 41 59 11 11 21 25 21 31 0 7 21 46 48 86 63 99 69 109 88 142 26 48 134
197 143 197 4 0 15 6 24 13 22 16 50 114 34 124 -16 10 -59 11 -82 3z"/>
<path d="M3680 2098 c-65 -65 -195 -228 -218 -275 -12 -23 -26 -44 -31 -47 -4
-3 -21 -32 -37 -63 -32 -65 -157 -254 -179 -273 -8 -7 -15 -18 -15 -24 0 -6
-16 -33 -35 -60 -19 -27 -35 -54 -35 -61 0 -6 -12 -22 -27 -36 -16 -14 -35
-35 -43 -48 -41 -65 -59 -78 -122 -91 -93 -18 -96 -19 -103 -39 -3 -10 -1 -30
4 -45 14 -35 62 -35 107 -1 18 14 40 25 49 25 16 0 115 92 115 108 0 5 10 14
23 21 22 12 121 133 144 175 7 13 24 31 37 40 14 9 58 65 97 124 39 59 81 118
94 132 13 14 37 51 54 83 16 31 49 81 73 111 24 29 51 68 60 85 21 38 31 39
64 6 33 -33 44 -32 44 4 0 16 5 42 11 58 22 58 -16 133 -67 133 -12 0 -40 -18
-64 -42z"/>
<path d="M12921 2054 c-108 -24 -171 -89 -150 -156 30 -89 125 -178 191 -178
43 0 96 36 116 78 25 54 65 56 138 6 56 -38 91 -46 125 -29 15 8 38 15 51 15
13 0 50 18 83 40 33 22 69 40 80 40 11 1 31 7 45 15 14 8 40 14 58 15 26 0 36
-6 52 -32 11 -18 20 -40 20 -49 0 -22 34 -50 78 -66 51 -18 76 -16 122 7 21
11 63 29 93 40 30 11 62 29 72 40 31 35 67 25 131 -34 80 -75 97 -83 138 -68
18 7 40 12 50 12 9 0 25 13 34 29 26 46 77 64 105 37 41 -41 104 -51 177 -26
86 28 177 42 220 33 l45 -9 7 -63 c8 -74 19 -92 107 -181 36 -37 72 -75 78
-83 7 -9 19 -19 26 -24 26 -16 87 -106 87 -129 0 -12 4 -34 9 -47 20 -52 -100
-212 -234 -312 -22 -17 -45 -37 -52 -46 -7 -9 -42 -34 -78 -55 -65 -39 -86
-67 -67 -86 12 -12 109 29 131 56 7 9 31 21 54 27 48 13 81 36 161 112 34 32
73 65 89 73 15 8 27 19 27 24 0 5 16 24 35 41 58 53 81 162 50 236 -16 38 -42
69 -194 229 -104 109 -157 194 -141 225 29 54 -19 98 -94 84 -23 -5 -66 -7
-96 -7 -60 2 -173 -18 -208 -37 -40 -21 -65 -13 -101 34 -49 66 -71 61 -184
-37 -59 -52 -92 -61 -103 -26 -12 38 -107 125 -150 137 -56 16 -60 15 -98 -27
-32 -34 -111 -81 -162 -96 -23 -7 -45 11 -101 81 -30 38 -35 41 -102 47 -73 7
-111 -4 -181 -55 -14 -10 -58 -30 -99 -44 -82 -28 -82 -28 -166 37 -62 48 -60
45 -94 93 -20 29 -41 45 -78 58 -59 20 -66 20 -152 1z m78 -85 c35 -12 37 -23
17 -89 -15 -52 -38 -61 -83 -34 -41 26 -63 55 -63 86 0 45 58 62 129 37z"/>
<path d="M9534 1880 c-79 -16 -131 -53 -167 -117 -21 -38 -16 -67 24 -140 16
-29 29 -55 29 -57 0 -3 -26 -12 -57 -21 -44 -13 -95 -17 -213 -17 -187 1 -298
15 -342 42 -18 11 -47 20 -64 20 -18 0 -62 14 -98 31 l-67 31 -40 -26 c-22
-15 -55 -51 -74 -80 -19 -29 -41 -56 -49 -59 -10 -4 -29 7 -51 28 -19 19 -40
35 -48 35 -7 0 -28 11 -46 24 -30 22 -42 25 -111 23 -92 -3 -113 -15 -172 -95
-66 -89 -137 -160 -168 -167 -15 -3 -36 -15 -45 -25 -40 -44 -147 -34 -181 18
-13 20 -18 48 -18 112 l-1 85 -36 9 c-31 8 -41 6 -64 -12 -15 -12 -33 -22 -40
-22 -7 0 -23 -8 -36 -19 -13 -10 -67 -32 -120 -48 -90 -28 -101 -29 -205 -22
-83 5 -120 12 -149 28 -22 12 -46 21 -54 21 -8 0 -36 18 -62 40 -73 61 -119
52 -119 -25 0 -54 -15 -104 -37 -121 -23 -17 -110 -43 -185 -55 -50 -8 -63 -7
-95 11 -30 16 -83 64 -83 76 0 12 25 54 32 54 4 0 8 7 8 15 0 21 49 63 83 70
37 9 56 44 32 61 -20 15 -62 1 -115 -36 -35 -25 -110 -135 -110 -162 0 -40 64
-138 90 -138 8 0 24 -6 35 -14 33 -22 106 -28 139 -11 15 8 41 15 58 15 16 0
43 7 61 16 33 17 44 26 115 94 38 37 47 41 75 35 18 -3 57 -10 87 -15 30 -5
70 -14 89 -21 71 -25 346 16 396 60 37 32 74 51 89 45 17 -7 33 -44 42 -104 9
-63 63 -114 138 -131 53 -12 56 -11 112 21 32 17 80 39 108 47 35 10 65 29 94
59 24 24 48 44 54 44 5 0 34 25 63 55 60 63 85 68 163 35 34 -15 56 -35 82
-72 42 -62 57 -78 75 -78 20 0 45 29 45 52 0 11 18 38 40 60 23 21 45 50 50
63 5 14 21 30 35 37 21 9 34 6 87 -19 109 -53 324 -91 483 -85 161 5 381 40
475 75 50 19 101 7 154 -36 24 -21 49 -37 54 -37 5 0 17 -9 27 -20 24 -26 60
-25 79 2 9 12 16 26 16 30 0 23 -111 122 -167 149 -69 33 -75 46 -47 101 19
36 16 150 -4 170 -15 15 -123 20 -178 8z m84 -114 c3 -27 -53 -117 -85 -134
-26 -15 -64 -1 -75 27 -6 14 -15 36 -20 47 -21 46 10 79 97 101 49 12 79 -2
83 -41z"/>
<path d="M6560 1672 c-30 -9 -50 -36 -50 -64 0 -28 1 -28 59 -28 32 0 73 -5
90 -11 38 -13 55 -2 66 42 10 40 -32 68 -98 67 -29 0 -59 -3 -67 -6z"/>
<path d="M2102 1351 c-5 -3 -14 -22 -21 -41 -13 -38 1 -122 24 -148 11 -13 45
-7 45 8 0 4 16 24 35 44 27 29 35 46 35 75 0 24 -6 44 -17 52 -16 14 -85 20
-101 10z"/>
<path d="M3995 1109 c-39 -11 -55 -34 -55 -79 0 -54 32 -84 79 -75 62 12 71
21 71 73 0 52 -21 92 -48 91 -9 0 -30 -5 -47 -10z"/>
<path d="M14340 950 c-110 -41 -170 -70 -170 -80 0 -6 -10 -10 -22 -10 -29 0
-108 -48 -108 -65 0 -24 64 -23 91 1 16 15 111 50 169 63 19 4 52 15 74 24 21
10 56 17 77 17 26 0 46 8 66 25 27 24 28 25 9 40 -30 23 -102 17 -186 -15z"/>
<path d="M13020 774 c-50 -11 -90 -40 -90 -65 0 -14 36 -18 220 -23 96 -3 252
-11 345 -19 279 -23 395 -14 382 27 -7 23 -121 56 -191 56 -29 0 -58 6 -65 13
-13 13 -29 14 -337 20 -142 2 -228 -1 -264 -9z"/>
<path d="M13718 509 c-10 -5 -18 -20 -18 -32 0 -18 13 -28 63 -50 34 -15 71
-27 82 -27 11 0 30 -7 42 -15 12 -9 35 -14 50 -13 29 2 112 -25 151 -50 19
-13 25 -12 50 4 15 10 36 23 46 29 23 12 29 25 18 42 -8 13 -116 27 -189 24
-23 -1 -44 3 -47 8 -3 5 -25 12 -48 16 -53 9 -105 31 -131 56 -23 21 -43 24
-69 8z"/>
<path d="M14233 465 c-34 -24 -32 -28 38 -113 7 -8 29 -12 62 -10 l52 3 -2 44
c-3 56 -24 78 -83 86 -33 4 -51 2 -67 -10z"/>
<path d="M13584 330 c-27 -11 -64 -70 -64 -102 0 -60 63 -65 133 -9 11 9 17
28 17 56 0 35 -4 44 -25 53 -30 14 -32 14 -61 2z"/>
</g>
</svg>
