<?xml version="1.0" standalone="no"?>
<!DOCTYPE svg PUBLIC "-//W3C//DTD SVG 20010904//EN"
 "http://www.w3.org/TR/2001/REC-SVG-20010904/DTD/svg10.dtd">
<svg version="1.0" xmlns="http://www.w3.org/2000/svg"
 width="149.000000pt" height="112.000000pt" viewBox="0 0 149.000000 112.000000"
 preserveAspectRatio="xMidYMid meet">
<metadata>
Created by potrace 1.13, written by Peter Selinger 2001-2015
</metadata>
<g transform="translate(0.000000,112.000000) scale(0.100000,-0.100000)"
fill="#000000" stroke="none">
<path d="M405 1040 c-15 -29 -18 -30 -64 -24 -44 6 -50 4 -61 -15 -12 -24 -10
-30 37 -82 l24 -26 -21 -54 c-12 -30 -40 -95 -62 -145 l-41 -92 -51 -6 c-82
-11 -97 -17 -106 -42 -7 -17 -18 -24 -37 -25 -25 -2 -26 -2 -4 -6 20 -4 22 -9
17 -34 -5 -25 -3 -30 12 -27 9 1 22 -1 29 -5 14 -9 22 3 25 37 3 35 21 27 29
-13 11 -53 25 -59 43 -17 9 20 23 52 31 71 19 44 32 49 93 40 42 -6 55 -15
122 -86 74 -77 125 -109 174 -109 26 0 97 27 159 61 22 12 82 36 134 54 105
37 114 42 93 55 -9 5 -27 2 -49 -9 -20 -10 -47 -22 -61 -26 -14 -4 -73 -29
-132 -56 -152 -69 -197 -64 -282 28 -30 32 -32 39 -18 45 14 6 14 7 -3 7 -11
1 -37 12 -58 26 -22 15 -58 28 -87 32 -28 3 -50 7 -50 8 0 0 12 26 27 56 14
30 43 94 63 143 20 50 42 92 48 94 17 5 26 -84 15 -155 -11 -74 -1 -84 15 -15
13 58 5 161 -15 184 -13 14 -12 21 7 57 11 23 25 41 30 41 13 0 13 47 0 55 -5
3 -16 -8 -25 -25z"/>
</g>
</svg>
