<?xml version="1.0" encoding="UTF-8" standalone="no"?>
<svg xmlns="http://www.w3.org/2000/svg" version="1.1" width="200" height="56">
<path fill="#231f20" d="m 32.32699,10.884571 c -2.260178,1.233181 -9.527698,5.032871 -8.734378,8.598885 0.917031,4.131549 6.635221,3.084916 9.81832,2.707893 C 41.318607,21.250753 49.004388,17.92627 55.714228,13.773121 58.225754,12.215935 68.368079,4.7795398 66.667546,1.0544688 66.453507,0.58908077 65.986154,0.34558677 65.471675,0.34754977 61.183032,0.36325977 57.363706,4.6401196 54.404464,7.2498291 43.704459,16.679344 36.319119,28.647876 24.431097,36.873665 19.614229,40.207966 7.8754459,47.035626 3.8401159,39.361627 1.0890229,34.130426 10.94858,28.78926 14.310372,27.124073 c 2.633274,-1.305837 5.032871,0.494843 3.571905,3.242009 -1.22729,2.309269 -3.79969,3.324483 -4.985743,4.779558 2.493854,-3.055461 8.714741,-7.171301 12.642069,-7.880183 1.912609,-0.343642 3.024043,-2.878732 0.43397,-2.413344 -6.004885,1.080016 -13.146731,5.724081 -16.9601661,10.393674 -3.381429,4.141367 3.4560491,4.640138 5.9027741,2.751093 C 16.82779,36.522169 27.53565,25.282156 21.976517,23.440239 16.036433,21.46872 7.9618469,27.536442 3.8518979,31.059255 c -4.25918698,3.652415 -6.354417,12.19239 1.089833,13.779031 9.6239181,2.050065 19.1712521,-4.347552 26.4643001,-9.843848 5.885101,-4.43199 10.67055,-9.981304 15.310689,-15.648439 2.71182,-3.312701 5.728007,-6.366198 8.775614,-9.3666769 1.268527,-1.215508 2.568473,-2.3956701 3.899837,-3.5404862 0.973977,-0.7736836 1.947954,-1.5473673 2.921932,-2.3230145 1.769261,-0.9798684 1.769261,-1.1821258 0,-0.6048086 C 57.997969,11.004355 49.15559,15.314597 41.312716,17.987144 c -2.971023,1.01325 -6.071649,1.621986 -9.182093,1.993119 -6.425108,0.763865 -0.883648,-5.771209 1.777116,-7.226284 2.283742,-1.241035 0.192439,-2.8374942 -1.580749,-1.869408 l 0,0 M 39.27836,38.7686 c 0.490916,-0.6539 0.981832,-1.309764 1.472748,-1.963664 0.520371,-0.695137 -0.443788,-0.875794 -0.960231,-0.860085 -0.789393,0.02356 -2.010792,0.286695 -2.521345,0.968087 -0.490916,0.6539 -0.981832,1.309764 -1.472748,1.963664 -0.520371,0.695137 0.443788,0.875794 0.960232,0.860085 0.789393,-0.02356 2.008828,-0.288659 2.521344,-0.968087 l 0,0 M 47.635714,22.517317 C 52.283707,19.662149 66.406379,12.867872 62.131482,23.691588 59.299879,30.860925 54.070641,38.7254 48.161976,43.75238 52.902261,39.71705 56.984719,32.153016 61.799623,27.157455 64.974868,23.862427 68.5723,20.732346 72.68814,18.67639 c 0.822775,1.676969 1.647514,3.355902 2.472253,5.032871 -2.332833,3.232191 -5.655353,4.860068 -9.967559,4.885596 -1.127143,-0.100147 -2.148248,-0.441824 -3.28521,-0.428079 -0.989686,0.0098 -3.155608,1.596459 -1.625913,2.503672 2.605782,1.54344 7.473705,1.030924 10.246398,0.481098 2.544909,-0.504662 14.994539,-6.37209 12.608687,-7.699527 7.721127,4.29257 21.454994,-5.751572 27.410784,-9.028927 2.31712,-1.272455 0.25528,-3.059389 -1.68679,-2.262141 -12.490862,5.117308 -27.516819,15.750549 -30.534971,29.743619 -3.253791,15.096649 9.75941,16.296447 20.930695,11.791802 2.413346,-0.972014 0.276876,-3.055461 -1.686788,-2.262141 -3.766307,1.515949 -8.202224,2.548836 -12.221844,1.590568 -9.070164,-2.165921 -1.152671,-17.089768 1.716242,-21.187935 5.46095,-7.801637 14.743186,-13.832049 23.483456,-17.411809 -0.56161,-0.754047 -1.12518,-1.510057 -1.68679,-2.262141 -7.28912,4.009802 -15.652361,9.991123 -24.009715,8.60674 -1.244963,-0.206185 -2.338724,0.357387 -3.320556,1.064306 -4.471263,3.2263 -12.178644,10.277817 -18.326876,6.633257 -0.540008,0.836521 -1.083943,1.671078 -1.623951,2.503672 7.766292,-0.08444 12.962147,-0.306332 17.747596,-7.630799 C 82.32973,18.745118 79.486345,15.11234 74.433837,15.385289 67.759343,15.748567 61.38529,23.147653 57.147703,27.54626 54.429992,30.364118 43.926353,40.365059 45.3343,45.270292 47.702479,53.51179 64.739228,26.399481 65.762297,24.13734 73.018035,8.1118776 51.386313,16.905165 45.112406,20.757874 c -2.185558,1.34511 0.950413,2.723602 2.523308,1.759443 l 0,0 m 46.845169,15.446181 c 11.075067,-6.978862 27.228167,-15.805532 33.297847,-27.923302 0.4163,-0.8306302 -3.12222,-0.2729496 -3.60725,0.402551 -7.78985,10.857098 -15.39512,24.09023 -25.527629,32.891372 1.15267,-0.06284 2.307309,-0.123711 3.459979,-0.188512 5.80851,-5.068216 11.74467,-10.006831 17.92236,-14.619478 4.79526,-3.581723 5.36865,-3.342156 1.37653,1.767297 -2.67844,3.430521 -5.74765,6.992608 -6.40744,11.422634 -0.78154,5.24691 6.46635,2.409416 8.54979,1.376528 7.0849,-3.509067 14.42508,-11.102556 18.53306,-17.714213 0.057,-0.143347 0.0255,-0.265094 -0.0982,-0.363277 -0.004,-0.002 -0.008,-0.0039 -0.0138,-0.0079 -0.8915,-0.473243 -2.89051,-0.05302 -3.50906,0.767793 -1.73588,2.293559 -14.05395,20.331777 -11.15951,21.193825 7.00047,2.083448 15.89783,-13.806521 18.98471,-18.059818 -1.20176,0.133529 -2.40549,0.269022 -3.60725,0.402551 -1.52773,2.595964 -10.5979,15.811423 -2.84928,14.118745 5.1016,-1.111434 10.47222,-6.167869 14.56646,-9.060346 6.99457,-4.944506 13.74958,-10.124652 21.08582,-14.572351 -1.06823,-0.0098 -2.1345,-0.01964 -3.20077,-0.02945 -2.47422,3.135972 -5.00341,6.222852 -7.55814,9.292058 -2.07363,2.49189 -4.19831,4.936652 -6.36031,7.348031 -0.52037,0.581245 -6.01667,7.558143 -3.61903,6.285689 5.76924,-3.055462 11.48154,-6.213033 17.14279,-9.457006 2.80803,-1.608241 5.5768,-3.281283 8.32004,-4.999489 3.38339,-2.11683 -0.94452,-0.449679 -2.51938,1.2646 -2.08149,2.266068 -14.40151,13.111384 -11.2027,16.687217 1.31565,1.470784 6.61165,-0.282768 7.63472,-0.612664 4.17082,-1.349037 8.00979,-3.183099 12.04708,-4.883632 7.62294,-3.214518 13.37059,10.27389 6.85515,13.502154 -2.26214,1.121252 1.25085,1.152671 2.23269,0.667645 5.40596,-2.680401 4.62443,-7.89982 2.25232,-12.624395 -2.64702,-5.270475 -8.23364,-4.096204 -12.70294,-2.592037 -2.51742,0.848303 -15.8075,6.515437 -14.81585,3.412848 0.919,-2.87284 3.69562,-5.484513 5.63375,-7.715236 2.37604,-2.729493 6.9769,-5.953829 8.28078,-9.407914 0.0569,-0.145311 0.0275,-0.267058 -0.0962,-0.365242 -2.28571,-1.449184 -6.95334,2.676475 -8.36718,3.560123 -7.65043,4.791341 -15.67004,9.068201 -23.65626,13.28026 -1.8478,0.975941 0.28081,1.292091 1.29798,1.017178 4.17672,-1.133034 7.27342,-5.572878 9.99702,-8.610667 4.4045,-4.915051 8.57336,-10.05985 12.65974,-15.239996 0.9838,-1.246927 -2.76877,-0.290623 -3.20077,-0.02946 -8.84631,5.358839 -16.95035,11.740747 -25.4432,17.619957 -2.34068,1.620023 -4.73635,3.155608 -7.21057,4.569446 1.07412,-0.614627 1.93028,-4.355406 2.43494,-5.439349 1.21158,-2.607746 2.65488,-5.131054 4.11192,-7.609198 0.42022,-0.710846 -3.07707,-0.325968 -3.60726,0.402551 -1.59645,2.195376 -3.24593,4.349516 -4.91701,6.487946 -1.60235,2.053992 -3.28128,4.045148 -4.99752,6.002921 -0.60678,0.69121 -2.78252,4.178677 -2.13844,2.254286 2.13254,-6.366199 7.12418,-12.938582 11.14576,-18.256184 -1.17034,0.255276 -2.33872,0.512516 -3.50907,0.767792 0.0432,0.02356 -9.54144,10.19338 -10.5704,11.135939 -0.20422,0.188512 -7.458,7.012244 -8.87772,4.752067 -1.50417,-2.39567 2.39959,-7.432468 3.45408,-8.938599 0.59499,-0.850266 9.47272,-10.403492 4.36326,-10.126615 -4.66174,0.253313 -9.26653,4.74814 -12.68723,7.371595 -5.29993,4.060857 -10.41724,8.394663 -15.446181,12.78738 -0.917032,0.799211 2.731451,0.445752 3.459971,-0.188512 10.13249,-8.801097 17.73776,-22.036193 25.52762,-32.891327 -1.20177,0.133529 -2.40549,0.269022 -3.60725,0.402551 -5.87921,11.73682 -21.66314,20.241449 -32.484897,27.05929 -1.643587,1.044669 2.193413,0.726556 2.94746,0.251349 l 0,0 z" />
</svg>
