<?xml version="1.0" encoding="UTF-8" standalone="no"?>
<!-- Created with Inkscape (http://www.inkscape.org/) -->

<svg
   xmlns:dc="http://purl.org/dc/elements/1.1/"
   xmlns:cc="http://creativecommons.org/ns#"
   xmlns:rdf="http://www.w3.org/1999/02/22-rdf-syntax-ns#"
   xmlns:svg="http://www.w3.org/2000/svg"
   xmlns="http://www.w3.org/2000/svg"
   xmlns:sodipodi="http://sodipodi.sourceforge.net/DTD/sodipodi-0.dtd"
   xmlns:inkscape="http://www.inkscape.org/namespaces/inkscape"
   width="3000"
   height="1881.5839"
   viewBox="0 0 3000 1881.5838"
   id="svg2"
   version="1.1"
   inkscape:version="0.91 r13725"
   sodipodi:docname="sam smith.svg">
  <title
     id="title4172">Sam Smith signature.</title>
  <defs
     id="defs4" />
  <sodipodi:namedview
     id="base"
     pagecolor="#ffffff"
     bordercolor="#666666"
     borderopacity="1.0"
     inkscape:pageopacity="0.0"
     inkscape:pageshadow="2"
     inkscape:zoom="0.29023416"
     inkscape:cx="1500"
     inkscape:cy="940.96416"
     inkscape:document-units="px"
     inkscape:current-layer="layer1"
     showgrid="false"
     inkscape:window-width="1280"
     inkscape:window-height="721"
     inkscape:window-x="-4"
     inkscape:window-y="-4"
     inkscape:window-maximized="1"
     fit-margin-top="20"
     fit-margin-left="20"
     fit-margin-bottom="20"
     fit-margin-right="20"
     units="px" />
  <metadata
     id="metadata7">
    <rdf:RDF>
      <cc:Work
         rdf:about="">
        <dc:format>image/svg+xml</dc:format>
        <dc:type
           rdf:resource="http://purl.org/dc/dcmitype/StillImage" />
        <dc:title>Sam Smith signature.</dc:title>
        <dc:subject>
          <rdf:Bag>
            <rdf:li>Sam Smith</rdf:li>
            <rdf:li>Signature</rdf:li>
            <rdf:li>Autograph</rdf:li>
            <rdf:li>Firma</rdf:li>
            <rdf:li>Autógrafo</rdf:li>
          </rdf:Bag>
        </dc:subject>
      </cc:Work>
    </rdf:RDF>
  </metadata>
  <g
     inkscape:label="Capa 1"
     inkscape:groupmode="layer"
     id="layer1"
     style="display:inline"
     transform="translate(90.866141,738.01103)">
    <path
       inkscape:connector-curvature="0"
       style="display:inline;fill:#000000;fill-opacity:1;fill-rule:evenodd;stroke:none;stroke-width:1px;stroke-linecap:butt;stroke-linejoin:miter;stroke-opacity:1"
       d="m 2311.4412,-717.99202 c -12.3693,-0.0883 -24.7154,0.13142 -37.0439,0.63126 -73.9706,2.99828 -147.0542,15.9752 -217.5494,32.05031 -155.5954,35.48044 -306.473,91.56421 -450.0091,159.25575 -125.4275,59.15164 -249.5103,127.66295 -359.1319,215.96445 -60.034,48.35818 -116.9945,93.6602 -165.6097,176.39602 -14.2324,24.22125 -20.6332,45.898654 -23.5223,78.351504 -36.5975,15.43308 -69.36534,34.568375 -103.57094,53.8052868 C 910.97487,23.224145 859.20863,52.599495 818.93381,94.150676 795.53162,118.29451 768.44869,151.39656 769.15412,201.95759 c 0.37201,26.67884 20.73614,42.48292 42.00908,53.49664 -13.47274,7.90102 -25.88326,15.59186 -39.70869,23.64852 -7.30404,4.25634 -18.5513,10.40142 -26.25742,14.85396 9.70733,-11.20991 17.01064,-27.5134 17.23844,-39.24584 0.44597,-22.96011 -4.5324,-40.98141 -17.11227,-60.41171 -16.71146,-25.81174 -38.79642,-36.70886 -62.38612,-48.36629 -30.35028,-14.99834 -66.67108,-20.74346 -98.18811,-25.95961 -9.73691,-1.61146 -19.36948,-2.43439 -29.02064,-3.39442 162.13362,-125.3393042 347.01193,-267.98004 472.88621,-363.59232 30.2775,-22.99852 88.1541,-59.40443 89.1517,-118.39686 0.5329,-31.51867 -15.5864,-49.45013 -37.7731,-59.26152 -48.0659,-21.25571 -94.15934,-16.29464 -126.11134,-11.96455 -113.53686,15.38655 -213.53352,65.21385 -311.9051,107.16174 -69.7003,29.72185 -137.59658,63.21322 -202.34485,99.33496 -90.65474,50.57447 -174.52488,107.55909 -260.52642,169.481004 -29.2799,21.08177 -66.57754,48.692915 -97.455411,81.479341 -11.73453,12.459789 -34.96113,37.849899 -29.20292,73.694719 4.65692,28.990416 23.6858,44.019536 44.43563,52.879516 49.235631,21.02311 94.134401,20.85053 131.301121,23.52227 20.05892,1.44191 39.43486,4.30317 58.92492,3.92743 -57.22541,39.2992 -101.6655,75.94181 -148.55363,105.52061 -4.6552,2.93675 -28.14085,13.72252 -44.772311,16.80361 -16.63153,3.08108 -38.36215,6.14357 -38.36215,6.14357 -38.699474,3.11857 -36.7484,41.07763 2.73515,44.85641 0,0 24.93373,2.00708 44.323391,-1.58497 19.38959,-3.59212 35.4107,-6.88312 55.25,-19.39849 30.04941,-18.95634 66.46135,-41.10837 101.50909,-64.64774 l -89.0256,79.99255 c -27.38493,24.70528 3.01221,48.50153 24.47612,43.17327 15.67645,-3.89159 42.05826,-12.59861 54.6889,-22.66666 81.38813,-64.87567 162.22487,-135.07974 236.13446,-192.28792 30.96813,0.19533 61.2177,-0.0826 89.85313,4.65678 28.52808,4.72149 56.01311,12.94605 79.45956,24.57429 21.41579,10.76172 41.95846,25.06558 38.37623,51.53299 -4.23831,27.29888 -25.64727,55.1198 -45.24915,71.68892 -50.79813,42.93886 -85.98354,69.36512 -132.12875,100.24665 -264.71919,152.59496 -569.51391,305.14402 -569.51391,305.14402 -28.570948,15.29951 -19.503637,55.09079 12.497491,49.96247 0,0 31.154427,-6.45044 51.504982,-11.22112 20.350546,-4.7714 44.854896,-9.59881 64.633656,-20.68916 C 260.37391,642.66777 396.77584,573.01022 549.2763,482.34536 641.59383,427.46047 729.7617,369.90068 800.39092,328.74219 c 26.77248,-15.60135 51.39116,-30.73317 77.07506,-45.90843 4.08513,0.74767 8.34371,2.20307 12.30115,2.63698 81.82313,8.97129 164.08847,-49.64166 209.27397,-82.40511 43.4396,-31.49763 63.9873,-49.06146 98.255,-79.38937 15.3639,6.83717 54.1239,15.88222 68.9958,18.78132 99.9009,19.47477 179.2208,33.80692 269.3069,50.0602 139.3004,25.13251 248.0525,52.73863 369.273,89.41829 19.9486,6.03619 39.2717,10.37527 58.7331,21.44471 -75.5566,21.37649 -161.3771,55.59042 -229.8972,91.8606 -102.0969,54.0435 -206.157,122.62663 -295.9571,194.44762 -99.0866,79.24876 -174.3807,156.35456 -260.5403,245.49004 -47.524,49.16682 -31.2742,33.22097 -141.4984,161.27605 -29.3133,34.05551 -44.80444,63.07451 -41.08334,91.78851 1.8605,14.3572 8.01624,27.6366 21.32014,32.7239 13.304,5.0874 34.4265,2.1065 50.1865,-3.6331 101.708,-37.0406 177.7937,-72.7969 268.7458,-116.4332 128.1721,-61.49393 255.059,-122.42623 378.1659,-194.56026 84.8141,-49.6961 176.7229,-96.40981 253.9619,-160.01275 54.5588,-44.92681 118.1389,-84.79052 145.3416,-154.37475 14.3993,-36.83321 28.7388,-91.31062 -1.571,-135.74755 -3.6853,-5.40302 -13.9093,-14.63507 -17.4488,-19.83335 10.6061,-0.65207 21.1692,-1.09259 31.5313,-0.51922 2.3063,0.12783 3.026,0.20899 5.0074,0.29444 -1.2232,2.96461 -2.5767,4.85794 -3.2681,11.27729 -0.5502,5.10619 -1.2265,15.13734 7.7144,25.16331 8.9411,10.02598 29.0612,16.24133 44.3236,13.73186 66.0234,-10.85569 120.279,-47.89563 184.7136,-71.84319 46.9283,-17.44125 114.8235,-22.29258 176.0734,-29.49757 64.6227,-7.60172 120.2692,-23.03595 175.6947,-49.03627 47.6519,-22.35376 94.3315,-46.36955 132.3952,-81.5495 16.7818,-15.51035 35.6243,-33.02327 40.4381,-55.362168 3.5791,-16.608981 -1.2943,-35.579461 -10.4497,-49.891938 -10.227,-15.987852 -28.028,-27.031517 -45.698,-33.957947 -19.4404,-7.6204522 -41.4183,-5.8074072 -62.2772,-6.7606802 -28.309,-1.293751 -56.8311,-1.666831 -85,1.430701 -43.2818,4.7594072 -32.1569,26.4928322 -0.4488,30.5494562 24.2854,3.107012 47.1928,6.094523 70.9174,7.658442 20.8971,1.377558 40.7594,1.81283 56.5125,13.016499 6.0955,4.335195 12.2722,11.53402 11.9223,19.005742 -0.4186,8.936321 -9.6803,15.303813 -16.3266,21.292123 -35.0505,31.5805 -76.3121,53.18768 -120.6551,73.98923 -49.1606,23.06143 -106.0236,41.04129 -162.3276,49.20459 -39.1857,5.68138 -106.2709,8.79685 -168.2466,24.29379 -65.2599,16.31812 -96.4521,35.50075 -151.1064,56.33002 -4.6473,1.77111 -15.159,0.92864 -19.1041,-4.72695 -9.7401,-13.96338 -24.55,-18.62052 -34.6872,-20.31019 -10.1396,-1.6901 -18.3196,-1.41282 -22.9472,-1.66913 -30.8939,-1.71107 -61.0864,1.28384 -90.3721,6.59235 -30.7343,-19.24489 -70.433,-35.04128 -99.8819,-43.50987 -158.6548,-45.62389 -259.1636,-65.47224 -400.8886,-91.7046 -97.7536,-18.09354 -184.2689,-33.11153 -273.2204,-60.53796 -4.6016,-1.418853 -10.1559,-3.096987 -14.6607,-5.018904 17.7476,-13.214208 34.379,-25.642154 50.6946,-37.621354 0.05,6.134308 -0.8129,18.323784 5.316,25.808577 6.243,7.624042 15.4598,14.190217 25.2616,15.933991 19.8173,3.525572 40.8409,-1.330807 59.0511,-12.623743 18.2102,-11.292936 39.5225,-29.910803 52.2483,-45.038741 25.4517,-30.25587525 45.8743,-61.276652 66.5694,-74.045392 10.4302,-6.43536 19.685,-18.96919 25.7805,-22.61057 6.0955,-3.64139 8.4519,-3.70516 8.6963,-3.67493 0.3613,0.0431 4.3425,2.23819 12.7921,12.46948 8.4496,10.23129 19.1214,27.01622 41.7566,35.977747 28.1859,11.1590768 58.4137,11.7323058 85.8136,6.339916 52.1923,-10.271792 90.8023,-33.908753 128.2994,-57.816813 32.472,-20.70417 67.8361,-44.165324 96.6559,-74.830834 17.2013,-18.30282 34.4991,-44.94402 47.9844,-50.55121 4.363,-1.81412 12.1958,-2.38023 24.2235,-1.72521 12.0277,0.65496 28.9028,3.94582 47.1288,-0.49121 27.7641,-6.75882 62.7929,-21.67497 87.9595,-33.5792 58.7268,-27.77882 115.919,-60.30643 172.4687,-96.13696 62.8201,-39.80349 134.8625,-78.50396 188.1641,-141.96122 25.0862,-29.86592 58.1861,-68.77724 58.6023,-120.3605 0.2837,-35.16731 -16.4132,-67.81643 -43.2575,-89.16586 -44.5927,-35.46513 -100.8756,-32.89508 -142.6204,-35.37458 -12.3945,-0.73617 -24.7867,-1.13216 -37.1558,-1.22028 z m -0.3929,57.46614 c 11.4125,0.0754 22.7988,0.43449 34.1402,1.10811 44.6079,2.64955 87.151,4.5951 110.2616,22.97526 11.738,9.33532 21.6866,29.62067 21.5726,43.74828 -0.1996,24.77322 -26.9251,61.5943 -54.9274,86.31847 -53.7911,47.49389 -100.1573,86.76573 -165.1328,127.93485 -52.883,33.50716 -110.3549,61.45152 -168.7376,89.06761 -27.8097,13.15454 -47.2937,22.91889 -70.4546,28.3754 -5.9852,1.41009 -21.0473,4.6593 -34.4909,3.92743 -13.4437,-0.73216 -30.7656,-1.70325 -49.401,6.04532 -31.7589,13.20545 -68.7017,51.43654 -84.8738,69.00994 -24.4426,26.56084 -32.4459,33.82466 -65.4332,54.85723 -38.705,24.67835 -70.004,38.447484 -103.0239,50.817644 -17.4693,6.54452 -47.1115,7.79704 -62.2351,1.80945 -2.0018,-0.79255 -8.9841,-7.50374 -18.599,-19.14606 -9.6149,-11.642324 -24.1099,-29.700174 -50.0462,-32.905934 -18.7067,-2.31223 -34.1539,4.78074 -45.1931,11.37538 -11.0391,6.59471 -19.4547,13.40861 -25.2755,17.000024 -24.3721,1.89391 -66.892,63.74996 -66.892,63.74996 4.9782,-7.42727 8.5016,-16.03209 9.2154,-22.23182 0.7117,-6.1822 -1.1832,-17.27478 -4.4463,-22.62458 -6.5263,-10.69952 -12.6486,-13.76919 -18.7393,-17.58912 -12.1816,-7.639844 -42.1408,-19.076484 -81.8581,-17.154264 -42.0997,2.03746 -93.4028,8.61515 -150.5734,23.900944 -14.8275,3.96455 -29.3911,8.72504 -43.9167,13.57759 1.9526,-10.40637 5.0075,-20.10946 9.6501,-28.010724 43.4357,-73.92101 91.8777,-112.24481 152.1024,-160.7566 104.4161,-84.1085 224.4459,-150.66041 347.6022,-208.74086 140.5575,-66.28691 287.6246,-120.85063 438.269,-155.20213 68.6011,-15.64321 138.2865,-27.80598 207.1138,-30.63369 11.4713,-0.47112 22.91,-0.67866 34.3226,-0.60325 z M 988.69536,-388.44175 c 29.91904,-0.17092 64.15414,2.0578 65.37704,15.80774 1.2872,14.47377 -37.9211,55.30379 -64.57764,76.12128 -87.56681,68.38586 -206.75227,159.43399 -323.50486,249.445474 -1.69023,-22.44389 -51.68396,-6.24877 -69.87956,6.99918 0,0 -92.42735,63.292797 -222.58494,154.556956 -48.99009,1.75896 -96.63989,5.16229 -141.52638,1.93563 -43.63648,-3.13681 -81.41736,-1.46194 -106.10972,-15.69556 -8.5501,-4.928607 -12.66582,-17.196362 -12.66582,-17.196362 -1.4037,-8.738183 6.24713,-25.387453 17.26645,-37.155949 27.23784,-29.089525 44.86631,-44.9827252 74.08747,-66.022273 82.44957,-59.364432 168.0582,-114.761936 258.67487,-165.315156 64.39911,-35.92697 133.06626,-73.37736 199.39931,-101.66335 100.62619,-42.90927 193.73995,-83.77814 298.94468,-101.18643 7.628,-0.25422 17.1261,-0.5738 27.0991,-0.63126 z m 311.35804,330.630304 c 7.8935,-0.158 14.0309,3.92334 7.5882,7.77062 -33.2605,19.86199 -50.4999,30.824145 -59.7524,36.356427 -18.0639,10.8007858 -17.4702,9.0195538 -44.646,26.846521 -14.0609,9.223797 -25.0063,15.688167 -38.5306,24.462043 -14.3026,-8.39426 -21.5164,-14.605482 -28.2491,-24.490051 -6.7801,-9.9542292 -7.9295,-20.1724512 -9.538,-30.311098 18.6612,-6.707755 34.8174,-12.396302 53.8193,-17.476872 45.4975,-12.16478 80.0725,-22.37171 119.3086,-23.15759 z M 1066.051,7.2289688 c 2.6627,13.8010792 7.0483,27.5067902 15.6113,37.4505342 9.33,10.834395 16.7583,19.168258 30.8301,26.117095 -83.9133,53.582522 -165.41954,103.868792 -243.86306,150.433172 -6.3104,-2.30304 -12.70583,-4.75029 -17.79953,-7.81269 -12.81089,-7.70218 -12.55653,-18.24637 -11.74013,-22.2459 2.69939,-13.22448 18.59302,-42.11299 41.77065,-65.98019 C 908.89331,96.324019 938.83506,73.469702 983.16886,48.536696 1011.653,32.517603 1036.2471,20.368559 1066.051,7.2289688 Z M 2179.9996,37.17532 c -3.2735,0.09193 -6.5764,0.486907 -9.7904,0.911766 -7.2115,0.953777 -14.1479,3.437433 -21.0676,5.680651 -5.7753,1.87215 -11.5532,3.827534 -17.0141,6.480242 -7.0846,3.441527 -14.3946,6.913145 -20.2681,12.160894 -4.3115,3.852094 -6.2381,9.904246 -10.5338,13.773863 -4.2344,3.814247 -10.9311,4.535415 -14.5875,8.906805 -3.3476,4.002187 -6.8649,9.520034 -5.6807,14.60146 0.9983,4.283059 6.1612,6.342929 9.7343,8.906809 10.0204,7.18992 20.1491,16.54348 32.4151,17.82754 9.2649,0.96986 17.5031,-9.23701 26.7483,-8.09321 6.2535,0.77359 10.1506,7.95855 16.2005,9.72025 9.86,2.87124 22.3926,6.70811 30.8019,0.81352 5.5966,-3.9229 6.7899,-12.62704 6.4803,-19.45458 -0.214,-4.71323 -6.5415,-8.3381 -5.6668,-12.974417 0.7793,-4.129804 6.4366,-5.516986 8.9209,-8.906806 4.5,-6.140125 10.0365,-12.671859 10.5338,-20.268108 0.413,-6.310758 -2.3584,-13.043072 -6.4942,-17.827614 -5.2172,-6.035346 -13.332,-9.397015 -21.0677,-11.347299 -3.1435,-0.792553 -6.3907,-1.003618 -9.6642,-0.911766 z m -155.6369,310.25001 c 11.7405,9.36391 22.001,21.69656 25.4018,35.97768 6.1733,25.92359 -0.9318,51.46914 -11.7261,79.08086 -19.6568,50.28189 -73.5496,93.31095 -118.2706,131.86234 -72.8833,62.82849 -154.5732,108.35761 -240.9596,158.97502 -121.2876,71.06758 -241.568,134.74609 -368.782,195.78037 -79.6756,38.2265 -121.2598,54.0819 -226.8911,99.2787 -5.5886,2.3915 0.5307,-10.0979 6.5082,-17.0417 110.2254,-128.05652 71.1355,-87.31074 119.3507,-137.19212 86.4764,-89.46375 178.3907,-182.83203 273.2904,-258.73132 87.3853,-69.88982 185.9862,-137.2974 284.4134,-189.3983 66.7206,-35.31762 130.3988,-65.23382 202.1343,-85.23843 18.6429,-5.19885 37.0797,-9.23062 55.5306,-13.3531 z"
       id="path4150"
       sodipodi:nodetypes="ccsssscssscscssascssssssssssscssccssccsscsccscccccsscsscssacsscssssssassccccsssssssssssssscsssssssscsssccsasssscsssssssssssssscccsscsssscsssssssscccssssccsssccccsscccsscssssccccssscscsccsccssssccccsscsccscssccsccsccasassccssssc" />
  </g>
  <g
     inkscape:groupmode="layer"
     id="layer2"
     inkscape:label="firma"
     style="display:inline"
     transform="translate(90.866141,738.01103)" />
</svg>
