<?xml version="1.0" standalone="no"?>
<!DOCTYPE svg PUBLIC "-//W3C//DTD SVG 20010904//EN"
 "http://www.w3.org/TR/2001/REC-SVG-20010904/DTD/svg10.dtd">
<svg version="1.0" xmlns="http://www.w3.org/2000/svg"
 width="468pt" height="116pt" viewBox="0 0 468 116"
 preserveAspectRatio="xMidYMid meet">
<metadata>
Created by POTRACE VERSION, written by Peter Selinger 2001-2007
</metadata>
<g transform="translate(0,116) scale(0.075484,-0.075484)"
fill="#000000" stroke="none">
<path d="M1399 1472 c-25 -9 -66 -29 -91 -44 -26 -16 -51 -28 -56 -28 -5 0
-17 -9 -27 -20 -10 -11 -23 -20 -29 -20 -6 0 -42 -27 -81 -60 -38 -33 -75 -60
-81 -60 -6 0 -43 -28 -82 -62 -39 -35 -84 -80 -101 -102 -22 -28 -31 -49 -31
-76 0 -22 7 -43 16 -51 8 -7 30 -12 47 -12 18 0 44 4 60 8 20 5 27 4 27 -6 0
-8 -25 -48 -56 -89 -31 -41 -86 -106 -122 -143 -37 -38 -96 -85 -132 -106 -36
-21 -98 -46 -139 -55 -60 -15 -96 -17 -198 -11 -117 7 -127 9 -171 39 -32 21
-48 39 -50 56 -1 14 8 43 20 64 13 22 37 48 53 58 17 10 37 21 45 24 8 4 47
20 86 35 39 15 128 39 198 53 70 14 147 26 172 26 33 0 46 -5 51 -17 4 -10 -1
-21 -13 -30 -10 -7 -39 -28 -64 -46 -25 -18 -74 -44 -110 -58 -36 -15 -85 -32
-110 -39 -25 -7 -55 -16 -68 -21 -13 -5 -27 -9 -32 -9 -5 0 -12 9 -15 20 -3
11 -14 20 -24 20 -10 0 -25 -8 -33 -17 -8 -10 -15 -30 -16 -44 -1 -15 7 -34
18 -44 16 -14 30 -17 70 -12 27 3 82 20 122 36 40 17 80 31 88 31 9 0 39 16
69 35 29 19 56 35 60 35 4 0 35 25 69 56 40 36 62 63 62 77 0 12 -9 33 -19 46
-14 19 -30 24 -84 28 -37 3 -102 0 -145 -7 -42 -7 -81 -16 -87 -20 -5 -3 -35
-12 -65 -20 -30 -7 -90 -26 -132 -42 -42 -16 -92 -39 -110 -51 -18 -12 -47
-42 -66 -67 -31 -40 -34 -49 -29 -92 3 -26 16 -61 28 -78 15 -19 48 -40 95
-60 65 -27 83 -30 176 -30 67 0 128 7 174 19 39 10 87 27 105 37 19 10 59 34
89 53 30 19 79 60 109 91 29 30 71 80 94 110 22 30 54 79 70 110 16 30 43 72
59 93 19 24 38 37 53 37 13 0 50 17 82 38 32 21 71 44 88 52 16 8 46 32 66 52
21 20 47 41 58 48 12 6 21 17 21 25 0 8 6 15 14 15 7 0 34 22 60 50 27 29 46
58 46 72 0 13 -4 29 -9 37 -8 12 -18 11 -67 -7 -31 -13 -72 -36 -91 -52 -18
-17 -39 -30 -46 -30 -7 0 -31 -18 -52 -40 -21 -22 -44 -40 -50 -40 -5 0 -32
-22 -60 -48 -27 -26 -76 -80 -109 -119 -47 -58 -65 -72 -95 -77 -20 -3 -51 -9
-68 -12 -30 -6 -33 -4 -33 20 0 18 19 45 70 95 38 38 90 84 115 101 25 17 45
35 45 39 0 5 13 14 29 21 16 6 39 22 52 36 12 13 26 24 30 24 5 0 27 13 51 29
24 16 77 45 118 65 50 24 89 36 117 36 36 0 43 3 43 20 0 17 -6 20 -47 19 -27
0 -69 -8 -94 -17z m24 -200 c-26 -25 -94 -78 -151 -118 -56 -41 -107 -74 -112
-74 -6 0 -10 7 -10 16 0 9 10 25 23 35 12 11 64 52 116 92 51 40 107 82 124
94 24 17 34 20 44 11 11 -9 5 -20 -34 -56z"/>
<path d="M2994 1280 c-12 -4 -30 -19 -40 -32 -11 -13 -44 -46 -74 -73 -30 -26
-63 -60 -72 -74 -9 -13 -42 -45 -72 -70 -30 -25 -75 -61 -99 -78 -24 -18 -48
-33 -52 -33 -5 0 -39 -20 -76 -45 -36 -25 -75 -55 -84 -65 -10 -11 -23 -20
-28 -20 -6 0 -33 -18 -61 -39 -28 -22 -85 -59 -126 -83 -41 -25 -115 -63 -164
-86 -49 -23 -97 -42 -107 -42 -12 0 -19 7 -19 19 0 10 9 25 21 32 17 12 19 18
10 42 -6 15 -16 27 -23 27 -7 -1 -36 -11 -64 -23 -28 -12 -70 -39 -94 -59 -23
-21 -49 -38 -56 -38 -7 0 -15 4 -18 9 -4 5 5 23 20 40 15 18 24 40 22 53 -2
13 -11 24 -21 26 -11 2 -29 -6 -43 -18 -13 -13 -34 -29 -46 -36 -13 -7 -29
-16 -36 -20 -7 -4 -18 -2 -24 4 -6 6 4 22 31 47 29 27 41 46 41 66 0 18 -6 30
-18 34 -11 3 -32 -1 -48 -10 -16 -8 -34 -15 -41 -15 -7 0 -32 -11 -57 -24 -25
-13 -58 -33 -74 -45 -17 -11 -33 -21 -36 -21 -4 0 -30 -16 -59 -35 -28 -19
-57 -35 -64 -35 -7 0 -13 6 -13 13 0 7 23 33 52 58 28 24 67 57 85 73 25 22
33 36 31 55 -2 20 -9 27 -31 29 -19 2 -44 -8 -80 -33 -29 -19 -72 -51 -97 -70
-25 -19 -54 -35 -65 -35 -11 0 -31 -7 -43 -16 -12 -8 -22 -21 -22 -29 0 -8
-21 -30 -47 -50 -26 -20 -53 -34 -62 -33 -8 2 -16 8 -18 15 -3 6 44 61 104
121 66 67 139 129 188 160 44 28 91 59 105 69 14 10 51 30 83 45 33 16 76 28
98 28 28 0 42 -5 46 -16 3 -10 1 -31 -6 -48 -7 -17 -15 -39 -18 -50 -4 -13 -2
-17 8 -14 8 2 20 17 28 33 8 16 16 47 18 69 3 26 -1 48 -9 59 -9 13 -27 19
-54 19 -21 0 -61 -5 -89 -12 -27 -7 -61 -20 -75 -30 -14 -9 -74 -45 -133 -79
-60 -33 -112 -61 -117 -61 -4 0 -15 -11 -23 -24 -9 -13 -57 -66 -107 -117 -50
-52 -99 -112 -110 -135 -11 -22 -20 -49 -20 -60 0 -11 5 -25 12 -32 7 -7 21
-12 33 -12 11 0 49 14 85 32 36 17 92 55 124 85 33 29 63 53 68 53 5 0 11 -7
15 -15 3 -11 -11 -31 -43 -61 -41 -37 -47 -47 -38 -62 6 -9 19 -18 28 -20 9
-2 28 5 43 16 16 11 72 43 127 71 54 28 110 60 124 71 13 11 29 20 35 20 6 0
20 9 31 19 12 11 33 23 49 26 21 6 27 4 27 -8 0 -9 -19 -31 -41 -49 -23 -18
-59 -48 -80 -67 -22 -18 -39 -37 -39 -41 0 -4 11 -15 24 -23 22 -15 28 -14 92
20 38 20 77 43 86 51 10 8 24 12 33 8 12 -4 14 -10 5 -25 -5 -11 -10 -27 -10
-36 0 -8 11 -21 25 -27 21 -10 32 -8 68 12 23 12 53 33 68 46 14 13 33 24 42
24 9 0 19 -11 23 -25 3 -14 16 -32 27 -40 12 -8 32 -15 45 -15 13 0 70 22 127
50 57 27 106 54 110 59 3 6 36 28 74 50 37 22 90 57 119 78 28 21 89 66 136
101 46 34 92 62 100 62 9 0 16 -7 16 -15 0 -8 -3 -15 -8 -15 -4 0 -72 -63
-152 -140 -80 -77 -151 -140 -158 -140 -8 0 -16 9 -19 20 -3 11 -11 20 -18 20
-6 0 -18 -8 -26 -17 -8 -10 -20 -28 -26 -40 -7 -12 -10 -29 -7 -37 3 -9 20
-22 37 -31 16 -8 35 -15 42 -15 7 0 77 67 156 148 79 82 160 166 179 187 19
21 40 46 45 55 6 9 53 56 106 106 53 49 123 107 155 129 31 22 75 58 96 80 30
31 38 47 36 70 -2 22 -9 31 -23 32 -11 1 -30 -2 -41 -7z"/>
<path d="M4727 1134 c-34 -34 -47 -55 -47 -76 0 -24 11 -35 77 -78 42 -27 81
-50 85 -50 4 0 8 -7 8 -16 0 -8 -85 -99 -188 -202 -104 -103 -192 -196 -195
-206 -5 -11 -1 -28 8 -42 10 -15 25 -24 42 -24 15 0 43 5 62 12 20 6 61 23 91
37 30 13 67 33 82 43 14 10 31 18 37 18 6 0 11 -15 11 -34 0 -25 7 -40 26 -55
15 -12 37 -21 50 -21 13 0 39 14 58 30 18 17 43 50 55 75 l21 45 64 0 c35 0
80 7 99 15 20 8 43 15 52 15 8 0 15 -7 15 -15 0 -8 -34 -49 -76 -90 -62 -62
-75 -81 -72 -103 2 -17 10 -28 22 -30 10 -2 41 9 70 24 28 15 78 47 110 71 32
23 63 40 68 37 4 -3 5 -16 2 -30 -5 -18 0 -32 17 -50 12 -13 41 -29 63 -35 27
-7 115 -8 280 -3 133 5 268 8 301 9 54 0 60 -2 63 -21 2 -13 -6 -27 -20 -36
-13 -9 -34 -25 -47 -37 -13 -11 -29 -21 -34 -21 -6 0 -24 -10 -41 -23 -17 -12
-50 -32 -73 -45 -23 -13 -68 -32 -100 -43 -32 -12 -96 -35 -143 -51 -47 -16
-118 -36 -158 -44 -41 -8 -99 -14 -129 -14 -39 0 -66 6 -90 22 -33 19 -35 24
-30 60 4 27 2 38 -6 35 -7 -2 -13 -22 -15 -44 -3 -36 1 -44 30 -64 29 -21 44
-24 123 -23 50 0 115 6 145 13 30 7 111 31 180 53 69 22 159 57 200 76 41 20
77 39 80 42 3 3 17 11 33 19 15 8 27 18 27 23 0 4 9 8 20 8 11 0 20 7 20 15 0
7 6 18 13 22 6 4 18 20 26 35 7 15 11 34 8 42 -4 9 -15 16 -25 16 -10 0 -24 6
-31 13 -9 9 -79 11 -294 9 -155 -1 -295 1 -312 6 -22 6 -31 15 -33 33 -2 19 4
29 30 42 18 10 49 29 68 43 19 14 39 32 43 40 5 8 6 22 3 30 -3 8 -16 14 -28
14 -13 0 -38 -9 -56 -20 -18 -11 -44 -20 -58 -20 -13 0 -27 -7 -30 -15 -4 -8
-36 -35 -73 -60 -37 -25 -70 -45 -74 -45 -4 0 -7 6 -7 13 0 7 16 31 35 53 19
21 35 48 35 59 0 11 -4 26 -9 34 -7 10 -22 12 -62 7 -30 -3 -84 -9 -120 -12
-54 -5 -67 -4 -72 9 -3 9 1 21 9 27 8 7 14 23 14 36 0 16 -6 24 -17 24 -10 0
-41 -15 -70 -33 -28 -17 -71 -46 -95 -62 -24 -17 -92 -52 -153 -79 -60 -27
-114 -52 -119 -57 -6 -5 -20 -9 -33 -9 -13 0 -23 6 -23 14 0 7 33 42 73 77 39
35 119 111 175 168 57 57 108 116 114 132 8 24 16 28 61 33 29 3 111 8 182 11
92 5 134 11 145 21 9 9 11 17 4 24 -6 6 -52 6 -130 -1 -96 -7 -144 -6 -229 6
-60 8 -122 23 -139 33 -17 10 -32 27 -34 38 -2 11 6 28 17 38 12 11 49 22 93
28 40 6 90 10 111 9 20 -1 37 2 37 6 0 5 -8 13 -18 19 -10 7 -67 15 -128 19
l-110 7 -47 -48z m256 -508 c3 -8 -12 -37 -35 -66 -22 -28 -47 -54 -56 -59
-10 -4 -23 -6 -29 -4 -7 3 -13 13 -13 22 0 10 22 41 49 69 28 29 56 52 64 52
8 0 17 -6 20 -14z"/>
<path d="M3074 1024 c-52 -52 -106 -111 -120 -130 -15 -19 -33 -34 -40 -34 -7
0 -16 11 -20 25 -5 20 -12 25 -40 25 -18 0 -50 -10 -71 -22 -21 -12 -50 -35
-65 -50 -14 -15 -31 -28 -37 -28 -6 0 -11 -5 -11 -10 0 -6 10 -25 23 -43 12
-17 30 -38 40 -45 9 -7 17 -19 17 -27 0 -8 -15 -25 -34 -37 -18 -13 -52 -47
-75 -76 -27 -34 -41 -61 -39 -75 2 -14 11 -23 25 -25 17 -3 35 15 88 91 l67
95 48 0 c26 0 72 5 102 12 29 6 69 16 88 21 19 6 47 15 63 21 15 6 27 17 27
24 0 8 -7 14 -16 14 -8 0 -65 -12 -125 -27 -80 -19 -113 -23 -121 -15 -8 8 2
23 37 54 26 24 87 84 134 133 47 50 110 113 140 142 35 34 52 57 48 67 -4 9
-14 16 -23 16 -8 0 -58 -43 -110 -96z m-228 -198 c3 -8 -9 -33 -27 -55 -18
-23 -36 -41 -40 -41 -5 0 -13 9 -19 19 -5 11 -7 27 -4 35 3 9 12 16 20 16 7 0
18 9 24 20 6 11 17 20 26 20 8 0 17 -7 20 -14z"/>
<path d="M3355 798 c-33 -17 -90 -50 -127 -75 -37 -24 -99 -76 -138 -116 -57
-59 -70 -78 -70 -104 0 -22 6 -36 19 -43 11 -5 28 -10 39 -10 10 0 45 14 78
31 32 16 75 39 94 51 19 11 60 42 91 69 31 27 61 49 67 49 5 0 15 -6 21 -14 6
-8 24 -16 39 -19 15 -3 47 -1 72 5 25 6 64 19 87 29 24 11 54 19 68 19 14 0
25 -4 25 -9 0 -5 -28 -27 -62 -49 -35 -21 -78 -53 -95 -70 -23 -21 -33 -39
-33 -60 0 -19 6 -32 17 -36 9 -4 37 -4 62 0 25 3 53 12 61 18 8 7 34 18 58 26
23 7 47 19 53 27 6 7 22 13 34 13 12 0 28 -6 34 -14 8 -9 27 -13 54 -11 23 2
78 15 122 29 44 14 84 26 88 26 5 0 20 9 34 20 14 11 34 20 44 20 11 0 19 -7
19 -15 0 -8 -7 -20 -16 -27 -8 -7 -23 -21 -32 -30 -9 -10 -24 -18 -33 -18 -9
0 -35 -8 -58 -18 -23 -11 -52 -35 -66 -56 -14 -21 -25 -46 -23 -55 2 -9 12
-17 24 -19 11 -2 38 11 60 27 21 16 70 54 107 83 37 29 84 72 102 95 19 23 35
50 35 61 0 11 -3 27 -6 36 -3 9 -14 16 -24 16 -10 0 -37 -11 -61 -25 -24 -13
-82 -36 -129 -51 -47 -14 -92 -30 -101 -35 -9 -4 -33 -11 -53 -14 -29 -6 -36
-4 -36 9 0 8 9 20 20 26 11 6 20 17 20 25 0 7 -4 16 -9 19 -5 3 -33 -9 -63
-27 -30 -18 -97 -52 -150 -76 -54 -24 -104 -41 -112 -38 -9 4 -13 12 -11 19 3
7 34 30 68 51 34 21 88 58 120 83 43 34 57 52 55 68 -2 15 -11 22 -31 24 -16
2 -38 -3 -50 -11 -12 -8 -38 -17 -57 -20 -19 -3 -70 -14 -114 -26 -43 -12 -89
-21 -102 -21 -19 0 -24 5 -24 27 0 14 6 34 14 42 7 9 17 26 21 39 4 16 2 24
-10 28 -11 4 -22 -2 -33 -17 -9 -13 -41 -49 -73 -79 -31 -30 -74 -69 -95 -86
-21 -17 -69 -49 -105 -72 -36 -23 -73 -42 -82 -42 -9 0 -19 5 -22 10 -4 6 8
23 26 38 17 15 54 47 82 71 27 23 82 67 121 95 39 29 85 60 101 68 17 9 38 19
48 22 9 3 17 10 17 16 0 5 -12 10 -27 10 -16 -1 -55 -15 -88 -32z"/>
</g>
</svg>
