<?xml version="1.0" encoding="UTF-8" standalone="no"?>
<!-- Created with Inkscape (http://www.inkscape.org/) -->

<svg
   xmlns:dc="http://purl.org/dc/elements/1.1/"
   xmlns:cc="http://creativecommons.org/ns#"
   xmlns:rdf="http://www.w3.org/1999/02/22-rdf-syntax-ns#"
   xmlns:svg="http://www.w3.org/2000/svg"
   xmlns="http://www.w3.org/2000/svg"
   xmlns:sodipodi="http://sodipodi.sourceforge.net/DTD/sodipodi-0.dtd"
   xmlns:inkscape="http://www.inkscape.org/namespaces/inkscape"
   width="525"
   height="220"
   id="svg2"
   version="1.1"
   inkscape:version="0.48.5 r10040"
   sodipodi:docname="New document 1">
  <defs
     id="defs4" />
  <sodipodi:namedview
     id="base"
     pagecolor="#ffffff"
     bordercolor="#666666"
     borderopacity="1.0"
     inkscape:pageopacity="0.0"
     inkscape:pageshadow="2"
     inkscape:zoom="0.77929688"
     inkscape:cx="542.74177"
     inkscape:cy="203.55519"
     inkscape:document-units="px"
     inkscape:current-layer="layer1"
     showgrid="false"
     fit-margin-top="0"
     fit-margin-left="0"
     fit-margin-right="0"
     fit-margin-bottom="0"
     inkscape:window-width="1366"
     inkscape:window-height="715"
     inkscape:window-x="-8"
     inkscape:window-y="-8"
     inkscape:window-maximized="1" />
  <metadata
     id="metadata7">
    <rdf:RDF>
      <cc:Work
         rdf:about="">
        <dc:format>image/svg+xml</dc:format>
        <dc:type
           rdf:resource="http://purl.org/dc/dcmitype/StillImage" />
        <dc:title></dc:title>
      </cc:Work>
    </rdf:RDF>
  </metadata>
  <g
     inkscape:label="Layer 1"
     inkscape:groupmode="layer"
     id="layer1"
     transform="translate(167.74178,-515.91736)">
    <g
       transform="matrix(0.55267567,0,0,-0.55267567,-145.21003,715.91741)"
       inkscape:label="Untitled-1"
       id="g2993"
       style="fill:#000000">
      <path
         id="path2995"
         style="fill:#000000;fill-opacity:1;fill-rule:evenodd;stroke:none"
         d="m 286.566,80.4606 c -3.0008,-0.341 -5.0273,-1.9769 -7.3432,-3.3061 -0.1984,-0.1139 -0.4453,-0.2636 -0.6452,-0.3761 l -8.7621,-5.2135 c -1.3626,-0.7736 -2.562,-1.194 -4.1208,-1.9834 -2.6521,-1.3425 -4.2882,-3.1161 -6.9675,-2.9308 L 234.0366,54.3883 c 1.1024,3.0487 -0.0312,0.8068 1.1369,2.7684 l 7.0765,8.1521 c 1.6523,1.2932 2.2526,1.4094 3.4594,3.2944 3.287,5.1342 6.1126,16.2893 9.9034,12.9646 -0.7674,3.6278 0.6978,2.3281 4.1751,10.9491 8.3506,20.7022 6.7907,8.5637 11.7354,16.1753 0.4734,0.7291 0.7444,1.1702 1.0015,1.556 30.7341,32.7064 94.3308,99.4019 49.4895,110.9367 l -10e-4,-0.003 c -22.2522,6.2567 -51.0582,4.4791 -71.0501,-4.5802 -2.5325,-1.1475 -4.5652,-1.5812 -7.1677,-2.893 -12.5302,-6.3162 -6.2583,-2.0047 -16.086,-9.8504 l -9.3427,-5.8088 c -2.8993,-1.4096 -11.5322,3.1453 -14.3825,4.4368 -26.3514,5.9513 -20.69,6.6232 -52.5333,9.0009 -21.7242,1.6219 -40.5125,-3.462 -61.5405,-3.314 4.4329,5.4221 14.9613,9.5811 21.8818,12.5376 2.4999,1.0681 3.151,1.3436 5.0536,2.0571 4.3285,1.6234 5.9488,2.8117 9.5281,4.5159 12.9305,6.156 12.2669,4.4561 25.8931,12.0492 l 91.5678,43.3466 33.4639,20.461 c 3.306,2.1376 5.9417,2.4826 6.8139,7.2916 1.1401,6.2835 -4.7764,15.6693 -10.1452,15.2421 -18.3991,-1.4641 -62.504,-23.2154 -76.3492,-32.7469 2.9886,-2.0985 6.0755,-2.5988 9.6641,-1.8366 3.0124,0.6401 6.0319,2.6952 9.2135,0.7537 -5.343,-4.373 -12.5558,-7.0474 -19.3518,-10.385 l -63.003,-30.1237 C 125.2653,245.821 104.5327,238.4983 92.6654,231.8233 80.674,225.0785 61.2026,219.5201 51.2274,212.2787 l -34.789,-16.2459 c -2.0242,-1.1002 -25.9965,-7.9433 -12.1587,-18.5108 2.5433,-1.9421 4.9306,-3.1323 6.4358,-6.4993 l 45.781,11.9355 c 3.2992,0.5809 6.0712,1.2351 9.8597,1.8394 2.1201,0.3382 9.1772,1.5772 12.1638,2.4061 12.5146,3.4721 27.1355,2.0463 39.7559,5.1772 5.3711,1.3325 7.2561,0.3138 12.5957,0.5553 l 57.5201,-5.1398 c 4.8889,-0.8716 9.0023,-2.0185 12.5118,-3.6439 -0.9524,-3.4977 -1.527,-4.1729 -5.3356,-7.2442 -5.4584,-4.402 -14.2841,-14.4743 -18.6015,-19.4219 l -16.1663,-21.7976 c -0.1123,-0.1686 -0.2767,-0.4161 -0.3892,-0.5842 l -4.8025,-8.2553 c -6.2988,-7.8112 -5.1355,-11.3843 -8.9637,-16.0285 -2.4256,-2.9427 -1.5502,-1.8083 -3.3857,-5.5333 -1.8759,-3.8072 -8.2916,-22.1865 -8.778,-27.6386 -0.1409,-1.5778 0.8288,-13.9419 1.0692,-14.9542 1.3989,-5.8927 2.8035,-7.5455 5.9661,-12.0311 5.6075,-7.9531 15.4343,-14.2551 17.9175,-17.8194 -1.4692,-3.0793 -8.7744,-9.6783 -11.4307,-11.3695 -6.8222,-4.3441 -9.7739,-5.2892 -7.5005,-15.014 5.0063,-3.2201 -4.6284,2.1484 2.2638,-0.864 l 2.1903,-1.4298 c 0.0604,-0.0691 0.1885,-0.3146 0.2489,-0.3895 2.9301,-3.6473 4.4416,-4.1632 8.5158,-3.5665 5.7943,0.8481 6.8482,3.4815 9.9272,5.5446 l 12.1266,7.9171 c 4.9462,4.2061 4.8765,2.791 11.4412,7.5663 4.9873,3.6277 5.9942,2.1543 13.385,2.6087 8.3599,0.5142 15.8828,2.2592 24.9474,4.4716 13.6227,2.382 24.0001,9.8553 26.8069,10.8505 4.6117,1.6353 8.5584,3.7899 12.7667,6.1537 l 30.2672,16.729 c 4.2123,2.5872 4.7396,4.3183 11.7817,7.3389 5.2775,2.2637 2.378,0.7356 5.794,4.0141 l 12.6377,7.4279 c 3.5314,-13.5876 17.4691,-26.3758 27.6103,-34.4457 3.3089,-2.6334 9.4493,-4.3841 17.1609,-4.1284 6.4647,1.4904 10.1549,2.8363 11.2524,9.4521 l 1.4718,3.5796 c 6.5948,12.6958 -3.3012,10.0239 5.0581,11.7439 0.2597,-3.1065 1.6954,-4.9878 3.6358,-6.9996 6.5709,-6.8122 6.1548,-3.3346 13.3659,-8.5923 3.376,-2.4616 3.056,-2.9169 7.0701,-4.7566 l 13.6993,-6.0278 c 3.058,-0.7008 6.9132,-1.7326 9.1775,-1.9336 1.5239,-0.1352 5.652,-0.2718 8.8716,-0.8302 l 1.4762,-0.3059 c 4.1466,-1.1228 2.2987,-1.1304 6.3236,0.0989 l 0.7169,0 c 4.0209,-1.2529 2.1696,-1.2648 6.201,-0.0093 5.1727,-1.2634 19.1362,-2.554 21.3347,-0.2645 3.8923,4.0538 2.0132,3.5762 6.3289,3.7157 l 37.7839,11.1988 c 5.9779,2.0594 16.0951,4.5961 21.1946,8.3214 l 2.2363,-3.0526 c 0.7721,-5.5559 6.1574,-24.5869 9.4583,-30.1986 1.2657,-2.1518 1.9573,-2.4877 3.3398,-3.9025 2.0358,-2.0829 2.5291,-3.7777 4.9345,-4.9119 2.0404,-0.9618 0.7546,-0.2837 2.0331,-0.5233 0.6831,-0.1281 4.9458,-0.6295 5.3206,-0.6321 5.0715,-0.036 6.8029,1.8275 7.8599,6.6665 1.0074,4.6129 0.972,7.6468 2.4576,11.7754 1.4695,4.0853 2.1969,6.1353 2.6331,10.6161 3.4932,2.3343 0.5539,2.5069 3.0016,8.4158 l 3.4447,13.2097 c 0.144,1.6727 -0.148,1.4508 -0.3078,2.3425 -0.0893,0.4984 -0.2203,3.8965 -0.1843,3.9904 l 6.679,4.6868 c 0.057,-0.1276 0.2268,-0.4734 0.3651,-0.6959 9.3424,0.6979 7.7397,2.715 13.1771,-2.5867 12.1488,-13.1652 23.5506,-17.9112 42.4798,-23.6726 l 19.2308,-4.6971 c 4.0711,-1.0071 2.0741,-1.2089 7.1135,-1.7912 l 24.9987,-3.3862 2.871,4.4487 c -1.4531,-3.4592 -1.0463,-0.5213 -1.3726,-5.4352 6.4877,0.449 14.9749,-3.3979 20.3355,-1.0434 5.2311,0.7137 6.4298,-0.6645 12.9844,-0.4079 7.4687,0.2925 18.4487,-1.1449 24.7291,-1.4465 l 7.0118,-0.281 c 10.4312,-1.6747 44.009,-0.4269 54.7512,1.4939 6.4148,1.1472 20.1838,2.5682 26.7004,1.9834 12.9013,-1.1577 7.6385,-3.3993 13.4725,10.8215 1.3269,3.2344 1.906,0.5494 0.413,4.4008 -0.4955,1.2782 -2.09,3.7077 -2.5175,4.3223 -2.1387,3.0753 -13.1918,10.8025 -17.816,6.9429 -2.8171,-2.3516 -0.8036,-1.6767 -3.4424,-3.4577 -4.5479,-3.0691 -29.8015,-4.1491 -37.2489,-4.405 l -74.2196,-0.2435 -52.2107,5.9581 c -9.7421,1.1744 -10.0052,2.2802 -19.1466,4.3546 -1.7309,0.3926 -3.8288,0.7123 -5.6776,1.1276 -5.5734,1.2515 -4.9393,1.9962 -5.7129,2.698 -18.2894,2.4537 -25.7329,21.7732 -30.0591,25.5782 -2.1737,1.9114 -4.3359,2.1962 -7.189,2.5591 l -12.7525,-2.4183 c -0.2245,-0.1111 -0.5131,-0.2874 -0.7191,-0.3991 l -1.4777,-0.9227 c -0.3739,3.0739 -0.1299,5.0678 -0.8201,7.4203 l -0.7977,2.1515 c -1.5398,5.2432 -2.4624,23.6095 -5.0536,35.0972 -1.6206,7.1849 -9.9263,32.6936 -14.1582,38.5268 -0.8235,1.1352 -1.3053,1.6854 -1.709,2.3091 -0.1658,0.2565 -0.6364,1.0343 -0.7886,1.3073 -0.686,1.23 -0.544,1.2365 -1.0043,2.0883 -4.7772,8.839 -9.201,6.2286 -8.4416,19.201 1.241,8.5609 1.8938,20.0316 2.5863,28.4052 0.8612,10.4099 2.0866,20.3547 2.9124,30.8488 0.9824,12.483 1.7047,32.2368 -1.6901,44.5405 -1.6398,5.9437 -3.3794,7.3098 -5.7585,11.3202 -12.8838,0.1052 -12.7775,-3.4464 -12.2613,-10.8774 0.2041,-2.9409 0.6151,-6.1095 0.705,-9.0255 0.1876,-6.1013 -1.533,-13.0351 -0.2089,-18.828 -2.1643,-3.4126 -2.1195,-14.3623 -2.2799,-18.3044 l -0.4354,-4.0913 c -1.8383,-10.8629 -3.4767,-43.0367 -6.3088,-46.0698 -1.5761,-1.688 -0.1905,-0.8246 -8.7409,1.5951 l -4.9624,2.2022 c -17.0807,6.2283 -17.3942,-0.4456 -26.5158,2.5036 l -11.9033,1.8176 c -5.663,-0.3671 -0.1462,-2.4092 -8.3454,-1.4735 -4.0227,0.4592 -0.9644,-1.5239 -7.8517,-0.0658 1.8793,13.5426 0.322,34.2862 0.6678,48.7143 0.2869,11.9633 -2.7351,35.9728 -14.0233,34.552 -12.5835,-1.5837 -6.7578,-12.8573 -7.0871,-39.5521 -0.1996,-16.1631 -0.6344,-32.4172 -0.7509,-48.541 -8.4779,-5.7104 -6.6048,-3.3939 -13.9524,-6.0676 -10.298,-3.7474 -16.2686,-9.5819 -24.0044,-16.1132 -2.2816,-1.9262 -3.636,-1.8947 -5.8034,-4.2095 -2.152,-2.2983 -0.5456,-1.699 -4.1147,-4.8617 l -5.675,-6.4026 c -2.1223,-2.7805 -2.4075,-2.4531 -4.6363,-5.2806 -4.0318,-5.1154 -21.0515,-34.5717 -19.4709,-42.5189 -2.2094,-7.6314 -3.9858,-7.4673 -3.4266,-17.0773 l -0.1343,-0.3467 c -2.3412,-12.217 0.4702,-17.3157 3.448,-27.4668 -0.008,-2.0988 -0.6431,-1.7711 1.0525,-1.7711 L 375.264,83.952 c 2.4627,-4.7395 4.0326,-3.3608 4.5003,-10.1078 l -5.5026,-4.9759 c -0.1321,-0.1296 -0.3909,-0.3793 -0.5834,-0.572 -7.8265,-1.74 -8.877,-11.2425 -20.988,6.4944 -4.8977,7.1736 -8.0819,14.8204 -10.6699,24.389 -0.9873,3.6502 -0.2219,3.0158 -2.6274,5.4281 -5.6588,5.6749 -10.8859,6.4953 -16.8699,1.3609 l -2.6078,-2.4681 c -0.1599,-0.1367 -0.3926,-0.3192 -0.555,-0.4524 L 301.4889,91.2614 290.3553,84.0835 c -3.4852,-1.8388 -1.8819,-0.4804 -3.7893,-3.6229 z m 274.7882,24.4482 c 0.5689,3.2876 -0.3404,13.4456 -0.4702,17.9756 -0.1942,6.7885 -0.6211,11.6062 -0.6594,18.9865 -0.0603,11.6226 1.0174,24.8301 1.6946,36.508 1.8133,1.8079 -0.5326,0.5298 2.6039,1.2662 l 4.8804,-8.8758 c 0.1284,-0.2798 0.4887,-1.0976 0.6148,-1.3904 l 1.7022,-4.6571 1.5211,3.8923 c 1.2217,-7.38 3.6187,-0.6877 4.3699,-13.9887 6.0766,-2.5234 -1.0568,1.4269 2.6583,0.2188 l 1.6506,-8.0365 c 0.474,-3.8489 0.8348,-7.9078 0.7716,-11.9633 1.9831,-0.5871 -0.7404,-0.6355 1.0715,0.5196 3.1533,2.0103 -2.5838,1.0236 0.6041,0.4804 -1.2416,-6.0545 0.718,-2.3468 0.3492,-8.3364 l -1.4411,-30.5368 -7.7854,-4.1901 c -0.1043,-0.0457 -0.3787,-0.1591 -0.481,-0.1973 -0.1967,-0.0737 -0.733,-0.2206 -0.9292,-0.2696 -0.0913,-0.0227 -0.3631,-0.0672 -0.4567,-0.0867 l -2.8014,-0.5108 c -2.9064,-0.7365 -3.4073,-1.4378 -6.4744,-1.7099 l -1.9947,7.0824 c 0.4541,2.1928 0.7089,1.7971 0.2551,4.7055 -0.7359,4.714 -0.2288,1.6673 -1.2538,3.1141 z M 490.566,64.8456 c -1.3646,-1.1398 -0.9765,-1.5508 -3.9778,-1.4694 l -1.033,0.2211 c -2.186,0.6582 -1.0303,-2.0345 -1.7005,0.9742 -0.0428,0.1916 -0.2732,0.1874 -0.5521,0.2795 l 0.3211,4.9884 0.741,4.6735 -3.693,3.651 c -0.0326,0.0431 -0.1851,0.2472 -0.2103,0.2869 -7.2159,11.3596 -6.1549,97.1649 -6.4897,118.3884 -0.2293,8.9065 5.1843,6.5656 10.9338,6.9321 12.9731,0.8269 12.8339,-0.6752 17.5357,-0.5071 22.1043,0.7892 28.1325,-5.6866 35.7614,-4.6953 0.8824,-1.3283 -1.5412,-1.0536 1.6985,-1.2518 -0.0165,-1.5412 -0.3833,-1.1341 1.203,-1.1162 l -2.9333,-45.2379 c 1.3788,-8.6771 0.3368,-21.3568 0.9737,-30.6748 0.6259,-9.1494 0.9434,-19.6875 2.4174,-28.7674 l 0.2832,-10.0794 c -23.7983,-7.9909 -26.0575,-6.1073 -50.9046,-16.3001 -0.1162,-0.0411 -0.2415,-0.1437 -0.3745,-0.2957 z m -32.0074,-5.7747 c -3.505,-0.6412 -9.2429,-0.8031 -16.9557,-0.5423 -9.4138,0.5729 -12.0498,0.0678 -20.5152,3.7537 -5.1686,2.2504 -10.9278,6.2713 -14.1326,8.9033 -6.6192,5.436 -15.1492,18.4025 -15.234,31.6457 -0.0899,14.0729 5.6823,25.213 9.9547,37.0953 4.8889,13.5964 13.6451,21.2919 16.9784,28.3856 1.8604,0 1.5704,-0.5199 1.294,1.1795 1.8139,-0.2534 1.3008,-0.4405 0.4621,1.243 4.7168,2.569 3.42,2.7595 6.7376,6.6231 2.2479,2.6175 4.4592,4.5556 7.3472,6.6257 5.3821,3.8585 9.8608,7.2712 17.0742,9.6282 1.2189,-8.1992 -0.2693,-18.254 -0.0876,-26.7673 0.1134,-5.3203 -0.1766,-22.5456 1.1832,-26.3645 0.0629,-0.1771 0.1967,-0.4983 0.3469,-0.7174 -1.6523,-7.3491 1.2903,-32.7847 2.2042,-41.1137 1.4103,-12.8497 1.6951,-26.6511 3.3426,-39.5779 z m -191.8031,72.3359 c -4.2004,17.7857 -3.9926,22.8623 -13.4927,36.4425 0.0445,2.2538 0.76,2.1535 -1.0981,1.5483 -1.724,-0.5287 -1.2816,-0.7441 -0.9204,1.0706 -1.4154,0.8793 -1.0344,-1.6047 -1.3164,1.5426 -1.7725,-0.2225 -1.3728,-0.5686 -0.9956,1.2209 -1.7016,-0.5785 -1.1948,-0.7067 -0.8013,1.114 l -0.6752,1.3275 -1.6178,1.4159 -1.5993,0.9958 -0.3883,0.0868 c 0.2684,1.5525 0.6622,1.3127 -0.8666,1.0924 l 0.0865,-0.9181 -0.8668,1.1007 -0.6786,1.3187 -0.0103,0.0141 -0.0102,0.0139 -0.0102,0.0139 -0.01,0.0136 -0.01,0.0136 0,3e-4 -0.0102,0.0136 -0.01,0.0136 -0.01,0.0136 -0.01,0.0133 -0.009,0.0128 -5e-4,9e-4 -0.01,0.0133 -0.01,0.013 -0.01,0.0133 -0.01,0.0131 -0.009,0.0122 -5e-4,8e-4 -0.009,0.0131 -0.009,0.0127 -0.009,0.0128 -0.009,0.013 -0.008,0.0113 -8e-4,10e-4 -0.009,0.0127 -0.009,0.0125 -0.009,0.0125 -0.009,0.0125 -0.008,0.011 -9e-4,0.001 -0.009,0.0122 -0.009,0.0125 -0.009,0.0122 -0.009,0.0119 -0.008,0.0105 -0.001,0.002 -0.009,0.0119 -0.008,0.0119 -0.008,0.0119 -0.009,0.0119 -0.007,0.01 -0.001,0.002 -0.008,0.0119 -0.008,0.0116 -0.008,0.0114 -0.008,0.0116 -0.007,0.009 -0.002,0.002 -0.008,0.0117 -0.008,0.0113 -0.008,0.0113 -0.008,0.0111 -0.006,0.009 -0.002,0.002 -0.008,0.0111 -0.008,0.011 -0.008,0.0111 -0.008,0.0108 -0.006,0.008 -0.002,0.002 -0.008,0.0108 -0.008,0.0108 -0.008,0.0107 -0.008,0.0108 -0.006,0.008 -0.002,0.003 -0.008,0.0108 -0.008,0.0105 -0.008,0.0104 -0.007,0.0105 -0.005,0.007 -0.002,0.003 -0.007,0.0105 -0.007,0.0102 -0.007,0.0102 -0.007,0.0102 0.004,3e-4 3e-4,0 0.005,6e-4 0.005,3e-4 0.004,3e-4 0.005,2e-4 0.004,6e-4 0.005,3e-4 0.005,3e-4 0.005,3e-4 0.005,2e-4 0.005,6e-4 0.005,3e-4 0.004,3e-4 0.003,3e-4 0.002,0 0.005,5e-4 0.005,3e-4 0.005,3e-4 0.005,3e-4 0.005,3e-4 0.005,5e-4 0.005,3e-4 0.005,3e-4 0.005,3e-4 0.005,3e-4 0.005,2e-4 0.005,6e-4 9e-4,0 0.004,3e-4 0.005,3e-4 0.005,3e-4 0.005,2e-4 0.005,3e-4 0.005,6e-4 0.005,3e-4 0.005,3e-4 0.005,2e-4 0.005,3e-4 0.005,3e-4 0.005,3e-4 0.004,3e-4 0.001,0 0.005,3e-4 0.005,2e-4 0.005,3e-4 0.005,6e-4 0.005,3e-4 0.005,3e-4 0.005,2e-4 0.005,3e-4 0.005,3e-4 0.005,3e-4 0.005,3e-4 0.005,3e-4 0.002,0 0.003,3e-4 0.005,2e-4 0.005,3e-4 0.005,3e-4 0.005,3e-4 0.005,3e-4 0.006,3e-4 0.005,0 0.005,2e-4 0.005,3e-4 0.006,3e-4 0.005,3e-4 0.006,3e-4 0.2325,-0.7866 0.3733,-0.6313 0.3053,-0.6874 0.7803,-0.1826 c 0.4269,1.5052 0.5888,1.0327 -1.0856,0.87 l -0.6058,1.4179 c 0.2115,1.4403 0.5151,1.0734 -0.9544,1.0624 l -0.0207,-0.1335 -0.004,-0.0275 -0.0119,0.0164 -0.0117,0.0165 -0.0119,0.0164 -0.0116,0.0164 -0.003,0.004 -0.009,0.013 -0.0119,0.0164 -0.005,0.007 -0.007,0.009 -0.0119,0.0164 -0.008,0.0105 -0.004,0.006 -0.0119,0.0167 -0.0103,0.0139 -0.002,0.002 -0.0121,0.0167 -0.0119,0.0165 -9e-4,0.001 -0.0113,0.0156 -0.0119,0.0167 -0.003,0.005 -0.009,0.0119 -0.0122,0.0167 -0.006,0.008 -0.006,0.008 -0.0125,0.017 -0.009,0.0119 -0.004,0.005 -0.0124,0.017 -0.0114,0.0159 -10e-4,0.001 -0.0125,0.0173 -0.0127,0.0173 -0.002,0.002 -0.0111,0.0151 -0.013,0.0175 -0.005,0.006 -0.008,0.0113 -0.013,0.0176 -0.007,0.0102 -0.006,0.008 -0.0131,0.0179 -0.0105,0.0142 -0.003,0.004 -0.0136,0.0182 -0.0133,0.0184 -3e-4,0 -0.0136,0.0187 -0.0139,0.0184 -0.003,0.004 -0.0111,0.015 -0.0139,0.019 -0.006,0.008 -0.008,0.011 -0.0144,0.0193 -0.009,0.0125 -0.005,0.007 -0.0144,0.0198 -0.0128,0.0167 -0.002,0.003 -0.015,0.0201 -0.015,0.0201 -10e-4,0.001 -0.0141,0.019 -0.0153,0.0204 -0.004,0.006 -0.011,0.0147 -0.0159,0.021 -0.008,0.0105 -0.008,0.0105 -0.0159,0.0212 -0.0116,0.0156 -0.005,0.006 -0.0165,0.0218 -0.0153,0.0204 -0.001,0.002 -0.0167,0.0221 -0.0167,0.0224 -0.003,0.003 -0.0147,0.0193 -0.0173,0.023 -0.006,0.008 -0.0113,0.0147 -0.0179,0.0235 -0.0102,0.0134 -0.008,0.0102 -0.0182,0.0241 -0.0144,0.0189 -0.004,0.005 -0.0187,0.0247 -0.0187,0.0247 c -2.7964,0.4989 -1.4819,-0.8411 -2.6422,2.3215 2.1172,-2.963 0.0627,-0.8761 2.6422,-2.3215 l 0.9295,-1.0616 c -0.925,1.2895 -0.707,1.1177 -1.5004,3.2298 0.8515,1.8303 0.6216,3.4143 4.9422,5.1763 2.2955,0.936 5.0664,1.2807 5.2305,1.3867 1.4448,0.9338 0.559,3.1899 7.0571,5.2543 l 13.5428,4.3858 c 10.1087,1.9964 8.5473,6.0523 13.974,1.7969 -2.5141,0.7316 -0.2231,1.3544 0.7855,1.9122 2.8091,1.5534 1.538,0.5208 1.792,0.5933 0.161,0.046 0.4499,0.0947 0.6186,0.1381 l 10.8235,1.186 c 8.4824,-0.008 12.1184,0.3603 18.4691,-1.8882 l 0.0391,0.0899 c 25.8551,-6.7487 -38.1869,-72.5837 -49.3565,-74.4687 z m -85.6693,-6.1438 c 0.9193,1.5168 0.9604,1.8697 2.0637,3.295 0.1139,0.1474 0.3115,0.3606 0.428,0.5026 0.1148,0.1394 0.3302,0.335 0.4456,0.4714 l 26.644,33.2455 c 3.9308,4.1627 7.3131,6.34 11.4539,11.3809 6.308,-1.3187 11.2555,-8.7713 13.076,-8.7081 0.123,-0.1865 0.276,-0.3722 0.4509,-0.5561 l 3.7078,-4.5706 c 8.9968,-13.3824 13.3276,-50.7039 -7.8806,-64.5355 -1.2966,-0.8456 -0.6733,-0.2427 -1.7601,-1.1435 -2.5866,-2.145 0.1151,-1.6481 -9.2848,-8.623 L 207.0082,75.4299 C 196.505,65.1671 199.292,69.2558 193.9496,64.506 188.8339,59.9576 183.9061,53.2256 174.6079,47.5206 c -6.1585,1.7631 -16.5274,9.6721 -18.3517,14.7464 -3.8957,10.8348 4.1981,21.9259 4.0331,28.3719 l 2.6855,3.7797 c 0.9732,1.7796 1.5092,2.9597 2.5093,4.5618 4.1947,6.721 9.9918,19.0542 14.9641,24.9639 l 0.638,1.3187 z m 72.1766,42.5863 c -2.0681,0 -1.6531,-0.4793 -1.0981,1.5483 0.5828,1.6191 0.8229,1.2101 -0.9204,1.0706 -0.4657,2.4514 0.553,1.4789 -1.3164,1.5426 0.3937,2.0024 0.9,1.7737 -0.9956,1.2209 0.3802,1.4766 0.692,1.1395 -0.8013,1.114 0.3963,1.601 0.8161,1.2966 -0.6752,1.3275 -0.5066,1.7861 1.5593,1.5012 -1.6178,1.4159"
         inkscape:connector-curvature="0" />
    </g>
  </g>
</svg>
