<?xml version="1.0" encoding="UTF-8"?>
<svg version="1.1" xmlns="http://www.w3.org/2000/svg" width="254" height="41" >
<path d="M77.782,16.278c0.637-3.188,0.743-7.673-2.247-9.703c-3.976-2.701-11.752,1.946-14.96,3.817 c-5.736,3.346-11.076,7.345-16.551,11.091c-6.107,4.177-12.736,8.533-20.47,7.44c-8.979-1.269-8.393-10.907-1.481-14.764 c-0.952,0.243-1.903,0.485-2.855,0.729C14.977,21.344,8.576,26.635,1.564,29.77c-0.222,0.1,1.991-0.295,2.537-0.539 c7.168-3.204,13.676-8.516,18.014-15.119c-0.19,0.291-2.36,0.452-2.855,0.729c-4.87,2.717-8.093,10.464-2.265,13.75 c6.258,3.526,15.105,0.446,20.997-2.421c4.995-2.431,9.533-5.817,14.07-8.987c2.758-1.927,5.535-3.821,8.363-5.645 c3.119-2.01,7.33-5.369,11.206-4.604c4.106,0.812,3.863,7.063,3.252,10.122C74.932,16.816,77.663,16.875,77.782,16.278 L77.782,16.278z"/>
<path d="M52.26,27.84c-1.102,0.773-5.577,2.354-2.997-0.073c2.774-2.609,2.855,2.528,3.243,3.714 c0.794,2.422,8.319-1.187,9.37-1.644c3.687-1.604,7.158-2.695,4.198,1.377c0.042-0.057,1.844-0.306,2.071-0.373 c2.434-0.717,7.835-4.027,5.739,1.048c0.081-0.196,2.452-0.441,2.855-0.729c3.059-2.177,8.83-5.625,9.479,0.229 c0.007,0.056,2.937-0.433,2.898-0.777c-0.827-7.46-11.996-1.045-15.189,1.229c0.952-0.243,1.903-0.485,2.855-0.729 c1.259-3.047-0.318-3.443-2.945-2.809c-1.103,0.267-2.178,0.609-3.243,0.998c-0.695,0.253-1.372,0.558-2.048,0.856 c-0.411,0.182-2.627,0.975-0.627,0.473c0.366-0.053,0.732-0.106,1.098-0.159c-0.011-0.009,2.887-2.728,0.765-3.025 c-1.792-0.251-3.667,0.291-5.363,0.843c-2.259,0.734-8.209,4.872-9.272,1.625c-0.646-1.971,0.008-3.965-2.959-3.505 c-1.209,0.188-8.57,2.093-6.003,3.991c1.873,1.386,7.623-2.35,8.89-3.239C54.659,27.451,52.968,27.343,52.26,27.84L52.26,27.84z"/>
<path d="M98.718,32.222c0.278,0.277,0.556,0.556,0.833,0.834c0.072,0.072,0.393-0.012,0.449-0.021 c0.349-0.061,0.693-0.146,1.035-0.236c0.081-0.022,1.438-0.494,1.414-0.52c-0.278-0.277-0.556-0.556-0.833-0.834 c-0.072-0.072-0.393,0.012-0.449,0.021c-0.349,0.061-0.693,0.146-1.035,0.236C100.051,31.725,98.693,32.196,98.718,32.222 L98.718,32.222z"/>
<path d="M103.573,27.16c3.302-1.7,6.555-3.501,9.756-5.383c1.723-1.013,8.844-4.278,8.6-6.879 c-0.146-1.563-6.337,0.965-6.963,1.261c-4.755,2.243-8.876,6.773-8.915,12.229c0.001-0.06,2.895-0.325,2.898-0.777 c0.032-4.587,2.795-8.111,6.395-10.701c0.677-0.486,3.071-2.443,3.688-1.235c0.438,0.857-1.669,2.246-2.169,2.641 c-4.846,3.822-10.629,6.706-16.102,9.524C101.268,27.579,102.787,27.565,103.573,27.16L103.573,27.16z"/>
<path d="M121.116,28.611c-11.336-9.363,22.62-38.189,29.962-14.257c1.524,4.97-0.894,10.066-3.277,14.286 c-0.759,1.344-1.77,3.383-2.973,3.243c-1.959-0.228-3.692-1.504-5.603-1.989c-4.867-1.236-11.195,1.013-15.719,2.734 c-1.286,0.489-5.172,1.805-2.337,2.465c1.516,0.354,3.088-0.129,4.543-0.541c3.135-0.889,5.979-2.672,8.711-4.39 c7.937-4.992,15.39-10.798,22.815-16.503c-0.357,0.274-2.121,0.256-2.813,0.68c-1.711,1.047-3.459,2.033-5.215,3.004 c-4.336,2.398-11.266,6.858-16.324,6.247c-0.852-0.103-2.29,0.877-2.775,0.818c5.668,0.685,12.281-2.854,17.136-5.241 c2.989-1.469,5.904-3.093,8.776-4.779c3.651-2.145-3.403,1.337-4.613,2.262c-2.989,2.284-6.004,4.534-9.04,6.757 c-5.396,3.949-11.204,8.738-17.552,11.115c0.904-0.339-0.467-0.149-1.127-0.307c-0.247-0.059-0.753-0.064-0.9-0.3 c-0.602-0.967,9.794-3.353,9.782-3.351c5.645-0.616,11.218,4.844,16.233-0.01c6.577-6.366,8.656-22.936-2.522-26.071 c-7.158-2.008-15.125,2.068-20.721,6.151c-4.855,3.543-14.224,12.653-7.388,18.719c0.014,0.011,0.027,0.022,0.041,0.034 C118.775,29.849,120.814,28.362,121.116,28.611L121.116,28.611z"/>
<path d="M151.445,33.242c2.446,0.128,14.712-1.411,13.097-5.968c-0.021-0.007-0.04-0.014-0.061-0.021 c-2.423-0.416-4.846,1.624-5.924,3.528c-2.649,4.685,4.345,3.393,6.299,2.817c2.222-0.655,6.577-3.203,8.538-1.843 c1.277,0.887,0.41,2.407,2.461,2.241c3.436-0.277,7.549-4.702,9.362-0.109c0.115,0.289,2.932-0.69,2.898-0.777 c-1.285-3.254-4.116-2.621-6.859-1.571c-1.271,0.486-3.4,2.259-4.285,0.993c-1.058-1.513-0.855-2.148-3.014-2.021 c-3.479,0.204-8.894,4.223-11.966,2.78c-2.489-1.169,0.311-4.697,1.359-5.571c-1.094-0.105-1.675,0.255-1.743,1.08 c-0.393,0.916-0.993,1.688-1.801,2.316c-1.436,1.316-3.75,1.403-5.587,1.307C153.351,32.378,151.968,33.27,151.445,33.242 L151.445,33.242z"/>
<path d="M177.449,35.444c1.61-2.11,3.222-4.222,4.833-6.333c-0.066,0.087-1.318,0.214-1.484,0.258 c-0.354,0.095-1.171,0.201-1.414,0.52c-1.61,2.11-3.222,4.222-4.833,6.333c0.066-0.087,1.318-0.214,1.484-0.258 C176.389,35.869,177.206,35.763,177.449,35.444L177.449,35.444z"/>
<path d="M198.906,27.16c2.939-2.495,5.947-4.925,9.093-7.156c0.815-0.579,1.659-1.134,2.552-1.587 c-2.276,1.156-1.119,0.07-2,1.805c-2.161,4.257-5.459,8.246-9.027,11.363c-1.368,1.196-3.011,2.271-4.923,1.879 c-1.692-0.348,0.25-0.389,0.812-0.438c2.021-0.176,6.337-0.732,7.972,0.862c2.522,2.459,6.498-1.757,8.054-3.251 c-0.952,0.242-1.904,0.485-2.855,0.728c1.407,1.146,1.196,2.655,3.513,2.163c3.114-0.66,7.959-3.079,8.623,1.693 c0.021,0.143,2.617-0.509,2.855-0.729c3.79-3.49,10.554-9.259,15.645-5.771c0.644,0.439,2.51-1.043,2.898-0.777 c-6.47-4.431-16.794,3.026-21.355,7.229c0.951-0.243,1.903-0.485,2.855-0.729c-0.51-3.654-4.055-3.318-6.871-2.768 c-0.971,0.189-1.955,0.512-2.878,0.851c-1.652,0.605-1.513-1.227-2.388-1.938c-0.345-0.28-2.549,0.434-2.855,0.728 c-1.643,1.578-1.189,2.305-2.95,1.366c-1.179-0.629-2.908-0.534-4.194-0.573c-2.733-0.083-5.574,0.147-8.222,0.856 c-1.346,0.36-3.259,0.941-0.813,1.443c2.059,0.422,5.018-0.5,6.822-1.48c5.067-2.754,8.664-7.68,11.617-12.507 c1.39-2.271,1.057-2.656-1.258-2.024c-5.095,1.392-9.603,6.104-13.533,9.442C196.442,27.544,198.265,27.705,198.906,27.16 L198.906,27.16z"/>
<path d="M140.445,24.576c17.532-0.424,35.064-0.878,52.596-1.368c10.744-0.301,21.489-0.604,32.23-1.009 c4.498-0.169,8.989-0.415,13.482-0.666c1.186-0.066,10.094-1.634,10.464,0.855c0.014,0.091,2.944-0.469,2.898-0.777 c-0.303-2.033-4.817-1.181-6.05-1.132c-5.56,0.224-11.111,0.628-16.672,0.85c-10.824,0.432-21.654,0.724-32.481,1.029 c-17.896,0.506-35.794,0.968-53.692,1.399C142.339,23.779,141.005,24.563,140.445,24.576L140.445,24.576z"/>
</svg>