<?xml version="1.0" standalone="no"?>
<!DOCTYPE svg PUBLIC "-//W3C//DTD SVG 20010904//EN"
 "http://www.w3.org/TR/2001/REC-SVG-20010904/DTD/svg10.dtd">
<svg version="1.0" xmlns="http://www.w3.org/2000/svg"
 width="468pt" height="196pt" viewBox="0 0 468 196"
 preserveAspectRatio="xMidYMid meet">
<metadata>
Created by POTRACE VERSION, written by Peter Selinger 2001-2007
</metadata>
<g transform="translate(0,196) scale(0.011863,-0.011863)"
fill="#000000" stroke="none">
<path d="M20313 16457 c-18 -6 -33 -13 -33 -17 0 -4 -21 -3 -46 2 -25 6 -62 7
-82 3 -20 -4 -62 -8 -92 -9 -36 -2 -71 -11 -100 -26 -34 -19 -56 -23 -95 -21
-27 2 -63 3 -80 3 -16 0 -37 -2 -45 -4 -8 -3 -28 -10 -43 -16 -16 -7 -35 -12
-43 -12 -8 0 -22 -9 -32 -21 -9 -11 -28 -25 -42 -31 -14 -5 -32 -11 -40 -13
-8 -2 -22 -5 -30 -7 -8 -1 -30 -14 -48 -27 -19 -13 -50 -26 -70 -28 -21 -3
-41 -9 -46 -14 -6 -5 -17 -9 -26 -9 -9 0 -23 -12 -31 -27 -8 -16 -23 -36 -34
-45 -11 -10 -34 -20 -52 -24 -17 -3 -35 -13 -39 -22 -4 -10 -9 -25 -10 -34 -2
-10 -13 -28 -23 -40 -11 -13 -28 -33 -39 -45 -10 -13 -22 -20 -26 -16 -3 3 -6
1 -6 -5 0 -7 -7 -12 -15 -12 -8 0 -19 -16 -24 -37 -6 -21 -11 -44 -11 -51 0
-8 -5 -10 -12 -6 -8 5 -9 2 -5 -9 3 -10 2 -17 -3 -17 -5 0 -21 -11 -36 -25
-14 -13 -30 -23 -34 -20 -4 2 -16 -4 -26 -14 -10 -10 -30 -31 -44 -48 -14 -16
-31 -39 -37 -51 -7 -12 -13 -28 -13 -37 0 -8 -21 -57 -46 -110 -25 -52 -50
-95 -55 -95 -5 0 -8 -3 -7 -7 1 -5 -7 -26 -17 -48 -10 -22 -21 -49 -25 -60 -4
-11 -17 -52 -29 -91 -11 -39 -21 -76 -21 -84 0 -7 -11 -28 -25 -46 -14 -19
-33 -53 -41 -76 -8 -24 -14 -43 -14 -43 1 0 -2 -9 -5 -20 -4 -11 -13 -36 -21
-55 -8 -19 -15 -44 -17 -55 -1 -11 -5 -24 -9 -30 -3 -5 -9 -26 -13 -45 -4 -19
-16 -53 -26 -75 -10 -22 -26 -60 -35 -85 -9 -25 -24 -70 -34 -100 -10 -30 -26
-89 -35 -130 -9 -41 -23 -88 -30 -105 -7 -16 -18 -64 -23 -105 -6 -41 -16 -88
-23 -105 -6 -16 -14 -39 -16 -50 -2 -11 -5 -32 -7 -47 -2 -14 -18 -51 -34 -81
-17 -31 -33 -71 -36 -89 -3 -18 -8 -43 -10 -55 -3 -12 -9 -30 -14 -40 -5 -10
-10 -43 -11 -73 -2 -30 -7 -75 -12 -100 -5 -25 -11 -49 -13 -55 -2 -5 -6 -19
-10 -30 -4 -11 -12 -29 -18 -40 -6 -11 -15 -36 -20 -55 -5 -19 -14 -53 -20
-75 -5 -22 -11 -44 -12 -50 -2 -5 -6 -27 -11 -47 -4 -21 -11 -38 -15 -38 -4 0
-12 -33 -18 -72 -6 -40 -14 -91 -17 -113 -3 -22 -8 -51 -10 -65 -2 -14 -6 -54
-10 -90 -3 -36 -7 -72 -9 -80 -1 -8 -6 -22 -9 -30 -3 -8 -15 -42 -26 -75 -10
-33 -21 -73 -25 -90 -3 -16 -8 -50 -11 -75 -4 -25 -13 -74 -20 -110 -8 -36
-19 -82 -25 -102 -5 -21 -14 -55 -19 -75 -6 -21 -22 -80 -38 -132 -22 -78 -35
-102 -70 -139 -42 -45 -43 -45 -109 -45 -57 0 -74 -4 -115 -29 l-48 -30 -34
21 c-19 11 -41 21 -50 21 -8 0 -35 -18 -59 -39 -24 -22 -67 -60 -96 -85 -29
-26 -57 -44 -63 -41 -5 4 -9 2 -9 -4 0 -5 -9 -13 -20 -16 -11 -4 -28 -21 -37
-38 -9 -18 -18 -36 -19 -42 -1 -5 -5 -23 -8 -40 -3 -16 -10 -44 -15 -62 -5
-17 -8 -53 -6 -80 2 -26 9 -61 16 -78 7 -16 14 -39 16 -50 2 -11 14 -44 28
-72 16 -34 39 -63 66 -83 23 -16 48 -30 56 -30 7 0 28 -14 46 -31 29 -28 36
-30 77 -24 25 3 76 11 113 16 47 6 75 5 89 -2 16 -9 19 -18 14 -47 -3 -21 -10
-70 -17 -111 -6 -44 -22 -94 -40 -126 -22 -40 -29 -69 -33 -131 -3 -43 -8
-112 -10 -153 -3 -41 -8 -81 -11 -90 -4 -9 -9 -27 -11 -41 -3 -14 -15 -54 -28
-90 -13 -36 -33 -105 -46 -155 -12 -49 -29 -106 -38 -125 -9 -19 -21 -62 -28
-95 -7 -33 -27 -130 -44 -215 -18 -85 -36 -178 -40 -205 -4 -28 -14 -71 -23
-95 -8 -25 -18 -70 -22 -100 -3 -30 -19 -82 -35 -115 -15 -33 -31 -78 -34
-100 -4 -22 -18 -73 -32 -114 -15 -46 -24 -96 -24 -136 0 -44 -5 -66 -16 -75
-8 -8 -20 -23 -26 -34 -6 -12 -18 -48 -25 -81 -8 -33 -18 -80 -23 -104 -6 -24
-14 -49 -19 -55 -5 -6 -12 -35 -15 -64 -3 -30 -20 -82 -36 -117 -17 -35 -30
-78 -30 -96 0 -17 -5 -50 -12 -73 -6 -22 -19 -52 -28 -66 -9 -14 -28 -50 -43
-80 -14 -30 -31 -73 -38 -95 -6 -22 -18 -49 -25 -60 -8 -11 -14 -43 -14 -72 0
-39 -11 -81 -40 -154 -22 -56 -40 -114 -40 -130 0 -20 -13 -42 -43 -74 -24
-25 -44 -51 -45 -58 0 -6 -3 -22 -6 -35 -3 -13 -8 -33 -11 -45 -3 -12 -12 -38
-20 -57 -7 -19 -25 -73 -40 -120 -14 -47 -30 -94 -34 -105 -5 -11 -14 -40 -20
-65 -6 -25 -13 -52 -16 -60 -2 -8 -11 -33 -19 -55 -7 -22 -17 -65 -20 -96 -4
-36 -2 -66 5 -83 7 -14 16 -26 21 -26 5 0 16 -16 24 -35 8 -19 21 -35 29 -35
8 0 15 -4 15 -10 0 -5 15 -10 34 -10 19 0 52 10 73 22 21 12 44 28 51 35 7 7
19 14 25 14 7 1 19 2 27 3 9 0 20 18 26 41 5 22 16 54 23 70 8 17 22 49 33 73
10 24 21 58 25 75 3 18 19 61 36 97 16 36 36 88 43 115 7 28 24 82 37 122 14
39 27 87 30 106 2 19 16 54 31 79 14 25 26 50 26 57 0 7 7 29 16 49 9 21 30
65 46 98 16 34 27 66 26 70 -2 5 8 34 22 64 13 30 23 58 22 63 -1 4 2 7 7 7 5
0 11 10 14 23 3 12 13 47 22 77 9 30 22 87 30 125 8 39 30 104 49 145 19 41
37 93 40 115 2 22 19 69 36 104 18 35 37 80 44 100 7 20 13 56 15 81 1 25 9
68 18 95 8 28 19 55 23 60 5 6 12 28 16 50 4 22 15 58 24 80 11 27 16 62 14
110 -1 38 2 79 6 91 5 11 16 28 24 37 9 9 21 39 26 68 6 29 14 57 19 63 6 7
13 32 16 56 3 25 7 56 9 70 2 14 9 39 16 55 7 17 14 32 15 35 0 3 5 21 9 40 5
19 15 51 23 70 9 19 24 53 34 76 11 22 19 56 19 75 0 19 11 57 24 85 18 37 25
73 30 149 3 55 6 103 6 108 0 4 7 7 16 7 8 0 12 5 9 10 -3 6 -1 10 5 10 6 0
17 6 24 13 6 6 20 39 29 72 10 33 25 83 34 110 9 28 18 86 20 130 2 50 11 95
23 120 10 22 27 60 38 85 12 25 23 72 27 105 3 33 11 76 17 95 6 19 14 37 17
40 3 3 16 28 28 55 12 28 31 84 44 125 12 41 25 80 29 85 4 6 10 37 14 70 3
33 8 69 10 80 2 11 4 33 5 49 1 19 14 40 42 67 22 21 44 38 47 38 4 -1 12 -1
19 0 6 0 19 8 27 17 9 8 28 17 43 20 16 3 44 16 63 29 19 13 65 37 103 54 37
17 67 35 67 39 0 4 16 14 35 20 26 10 44 10 77 1 24 -6 48 -12 53 -13 6 -1 16
-5 23 -10 8 -5 37 -7 65 -6 29 1 72 2 95 3 29 1 46 -3 52 -13 5 -8 18 -26 29
-39 12 -13 21 -21 21 -16 0 4 6 3 13 -2 6 -6 35 -18 62 -27 31 -10 54 -24 60
-38 6 -12 35 -34 65 -49 30 -15 59 -35 66 -43 6 -9 14 -13 17 -9 4 3 7 1 7 -6
0 -7 9 -11 19 -9 11 2 33 -7 50 -20 17 -12 31 -29 31 -37 0 -8 7 -15 15 -15 8
0 15 -5 15 -11 0 -6 14 -28 30 -48 17 -20 34 -40 38 -46 4 -5 32 -41 61 -80
30 -38 59 -74 65 -80 6 -5 19 -23 29 -38 10 -16 26 -37 35 -48 9 -11 17 -23
17 -27 0 -4 11 -25 24 -47 14 -22 26 -43 27 -47 1 -5 3 -10 4 -13 1 -3 3 -14
4 -24 0 -11 4 -23 9 -27 4 -4 7 -18 7 -31 0 -14 4 -32 9 -41 5 -9 11 -30 14
-47 3 -16 8 -40 11 -53 3 -13 8 -32 11 -42 3 -10 8 -27 10 -37 2 -10 8 -38 14
-63 5 -25 18 -63 27 -85 10 -22 17 -61 16 -86 0 -26 5 -91 12 -145 7 -57 9
-109 4 -122 -4 -13 -9 -44 -9 -70 -1 -26 -6 -57 -10 -69 -5 -13 -11 -51 -14
-85 -3 -35 -8 -83 -10 -108 -3 -25 -9 -60 -15 -79 -5 -19 -16 -41 -23 -50 -8
-9 -17 -39 -19 -67 -4 -41 -11 -58 -36 -82 -18 -17 -33 -38 -33 -47 -1 -8 -2
-18 -3 -22 -1 -5 -10 -31 -19 -59 -11 -32 -29 -59 -47 -73 -17 -12 -30 -28
-30 -35 0 -8 -7 -16 -15 -20 -8 -3 -15 -12 -15 -20 0 -9 -17 -24 -37 -35 -33
-16 -62 -19 -228 -20 -104 0 -201 -3 -215 -6 -14 -4 -29 -7 -35 -9 -5 -2 -23
-8 -40 -15 -16 -6 -41 -17 -54 -24 -13 -6 -54 -12 -90 -11 -36 1 -82 3 -101 6
-24 3 -50 -3 -82 -19 -27 -13 -76 -26 -110 -29 -35 -3 -79 -10 -98 -16 -19 -6
-47 -22 -62 -36 -16 -14 -28 -32 -28 -39 0 -7 -4 -13 -9 -13 -5 0 -14 -14 -20
-31 -6 -18 -11 -47 -11 -65 0 -19 5 -34 12 -34 6 0 8 -3 5 -7 -4 -3 -2 -12 4
-20 6 -7 8 -13 4 -13 -5 0 0 -9 10 -20 10 -11 14 -20 10 -20 -4 0 4 -11 18
-24 14 -13 24 -26 21 -29 -3 -2 12 -18 32 -35 20 -17 47 -33 61 -36 13 -4 33
-14 44 -24 12 -9 27 -23 34 -29 8 -7 20 -13 28 -13 7 0 17 -3 21 -7 4 -5 11
-8 14 -9 4 0 21 -4 37 -8 17 -4 50 -13 75 -20 31 -10 92 -13 197 -11 89 2 168
9 190 16 21 7 42 17 48 21 5 4 18 8 30 8 11 0 45 8 75 18 30 9 81 32 112 50
32 17 65 32 73 32 9 0 29 7 46 15 16 9 39 24 49 33 11 9 20 20 20 23 0 4 25
32 55 63 31 31 60 56 65 56 6 0 10 4 10 8 0 4 25 7 55 5 31 -1 68 3 83 9 15 5
43 12 62 13 19 2 51 6 70 10 19 3 46 17 60 29 15 14 44 26 70 30 25 4 47 6 50
5 3 -1 22 6 43 14 20 9 72 19 115 22 51 4 89 13 112 27 29 17 45 19 99 14 39
-3 71 -1 84 6 11 6 30 20 41 31 12 11 40 28 64 39 33 15 55 18 90 13 26 -3 55
-13 64 -22 13 -12 18 -31 18 -69 0 -29 5 -56 10 -59 6 -3 10 -15 10 -27 0 -11
14 -33 31 -49 17 -15 40 -48 52 -71 13 -24 31 -55 41 -70 10 -15 22 -25 27
-22 5 3 9 0 9 -5 0 -6 7 -11 16 -11 9 0 23 -9 32 -20 10 -11 55 -34 102 -52
75 -28 103 -32 240 -40 85 -5 184 -10 220 -13 36 -2 70 1 77 7 7 5 34 11 60
13 26 1 71 8 98 15 28 6 75 15 105 19 30 4 72 15 92 23 20 9 43 15 50 14 7 -2
20 -6 28 -9 8 -4 22 -5 30 -4 9 1 33 13 53 25 21 12 42 22 46 22 5 0 14 6 20
14 6 7 30 16 53 20 28 5 52 18 76 42 19 19 44 35 56 35 11 1 47 -2 78 -6 53
-7 61 -5 105 23 26 16 66 33 88 37 22 3 63 17 90 30 28 13 67 27 88 30 20 3
37 10 37 16 0 6 4 8 8 5 5 -3 18 4 30 14 12 11 25 20 30 20 4 0 17 8 28 18 11
9 34 27 51 40 18 12 43 22 57 22 14 0 28 -5 31 -10 4 -6 24 -19 45 -30 22 -11
54 -36 72 -55 18 -19 43 -46 56 -60 12 -14 32 -25 43 -25 12 0 36 -7 55 -16
19 -9 54 -36 77 -60 41 -42 45 -43 78 -33 19 6 45 12 59 14 14 2 51 -1 83 -8
45 -9 65 -8 95 3 20 7 80 14 132 15 52 2 106 7 120 13 14 5 40 8 57 6 25 -3
39 4 72 36 32 31 48 40 74 39 17 -1 46 -4 62 -8 17 -4 44 -3 60 2 17 6 39 18
50 28 11 10 40 21 65 25 25 3 59 15 75 25 17 9 33 18 38 18 4 1 18 1 30 1 13
0 33 8 45 18 11 10 38 27 58 38 21 10 53 33 71 50 18 16 45 37 60 44 15 8 45
25 65 37 21 13 44 23 52 23 9 0 37 7 63 16 47 16 47 16 69 -9 12 -14 24 -31
26 -37 2 -6 12 -12 23 -14 12 -2 28 -20 42 -48 18 -38 28 -47 56 -52 19 -4 50
-21 69 -40 19 -18 43 -38 54 -44 10 -5 33 -13 49 -16 17 -3 57 -12 90 -21 33
-8 74 -15 91 -15 16 0 39 7 50 15 10 8 27 15 37 15 10 0 30 -9 45 -20 21 -16
42 -20 92 -19 36 1 91 -2 123 -5 31 -3 81 -8 110 -11 28 -2 70 -7 92 -11 30
-4 53 -1 85 14 25 12 71 28 102 37 32 9 64 22 71 29 7 7 35 18 62 24 28 6 66
11 85 11 19 -1 64 1 100 2 37 1 70 8 78 15 7 8 30 18 50 23 20 5 62 8 92 7 42
-2 66 4 109 25 43 22 58 25 69 16 10 -8 13 -25 9 -58 -3 -26 -1 -64 5 -85 5
-21 11 -93 13 -159 1 -66 5 -135 9 -153 3 -17 8 -44 10 -58 3 -14 10 -32 16
-39 7 -8 20 -17 29 -20 10 -3 27 -24 37 -48 10 -23 23 -45 28 -49 6 -4 14 -4
18 -2 4 3 8 1 8 -4 0 -5 15 -13 33 -17 17 -5 46 -7 64 -6 25 2 40 -5 68 -33
20 -20 38 -36 41 -36 3 0 18 7 34 15 17 9 30 19 30 23 0 4 13 13 29 20 16 7
51 17 78 21 26 5 74 15 107 22 44 9 66 21 92 47 19 20 37 45 40 56 3 12 21 32
40 46 20 14 48 36 63 50 15 14 56 61 90 104 34 44 77 93 95 111 21 20 37 49
45 81 7 27 20 57 28 67 9 9 25 17 37 17 11 0 34 -13 51 -30 28 -27 40 -31 160
-46 72 -9 145 -18 164 -21 18 -3 51 0 72 7 30 10 47 10 81 1 24 -6 54 -14 68
-17 14 -3 41 -7 60 -9 23 -2 49 5 75 20 22 12 56 27 75 33 19 6 70 14 112 17
47 4 85 2 97 -4 11 -6 26 -8 35 -5 8 3 24 21 35 40 19 32 24 34 68 33 28 -1
61 5 80 14 18 10 42 17 55 17 13 0 33 6 44 13 12 6 35 20 51 29 17 9 43 19 59
22 16 3 41 8 56 12 16 3 35 0 45 -8 10 -7 20 -22 21 -33 2 -11 11 -28 19 -37
9 -10 21 -18 28 -18 6 0 51 -21 100 -46 83 -43 92 -45 164 -44 42 1 137 -1
211 -3 105 -4 145 -1 180 11 25 8 51 20 57 25 7 5 43 11 80 14 38 2 86 12 108
21 22 8 51 26 65 38 14 12 55 33 92 48 36 14 72 26 78 26 6 0 27 12 46 27 18
16 37 28 41 29 5 0 28 6 53 14 25 7 71 22 103 33 31 11 57 24 57 30 0 6 3 8 6
4 4 -3 24 3 44 13 21 11 59 40 84 65 25 25 46 50 46 56 0 6 6 17 14 25 10 9
36 14 79 14 63 0 64 1 106 45 26 28 51 45 65 45 13 0 29 -7 36 -15 7 -9 13
-40 12 -70 0 -42 6 -63 23 -89 13 -19 26 -45 31 -57 4 -13 8 -44 10 -69 1 -25
2 -57 3 -71 1 -19 13 -34 44 -55 23 -16 44 -32 45 -37 2 -4 9 -13 16 -20 6 -6
22 -33 34 -59 12 -26 31 -49 42 -53 11 -4 41 -22 66 -41 25 -19 58 -40 72 -45
15 -6 38 -12 52 -14 14 -2 43 -10 63 -19 20 -8 37 -19 37 -23 0 -4 16 -21 35
-36 27 -21 49 -29 91 -32 30 -3 61 -10 67 -17 7 -7 22 -26 34 -43 21 -30 22
-30 125 -31 58 0 113 -6 125 -12 12 -7 42 -12 67 -12 25 0 48 5 51 10 3 6 17
10 30 10 14 0 41 -10 62 -21 30 -17 58 -22 133 -24 52 -1 115 -5 139 -9 27 -4
49 -2 57 5 8 6 14 9 14 5 0 -3 12 -1 28 5 15 6 72 15 127 21 55 5 120 11 145
14 24 3 47 8 50 12 3 5 21 15 40 24 19 9 58 24 85 33 28 9 56 18 63 19 7 1 24
14 38 29 13 15 38 34 54 42 17 9 30 19 30 24 0 5 12 12 28 16 15 4 44 7 64 6
33 -2 44 4 92 51 29 29 67 60 83 69 23 12 33 28 42 65 9 33 23 57 47 78 21 18
33 35 29 44 -3 8 0 21 6 28 6 8 9 14 5 14 -4 0 0 14 9 30 9 17 19 30 24 30 4
0 27 36 50 81 22 44 41 88 41 98 0 9 16 50 36 91 19 41 40 78 46 81 6 4 12 22
14 40 2 19 6 48 8 64 2 17 9 81 15 143 6 62 14 118 18 125 4 6 9 61 12 122 2
60 4 146 3 190 0 49 -7 95 -16 118 -9 20 -20 37 -25 37 -5 0 -12 10 -16 23 -4
12 -8 27 -9 32 -1 6 6 22 16 37 10 14 18 39 18 55 0 15 -7 51 -16 78 -9 28
-17 59 -19 70 -1 11 -3 39 -4 63 -1 35 -8 49 -36 77 -19 20 -35 38 -35 40 0 3
0 6 -1 8 0 1 -2 12 -5 25 -2 12 -31 50 -64 82 -34 33 -65 60 -70 60 -6 0 -10
5 -10 11 0 6 -10 19 -22 30 -15 12 -39 18 -70 19 -26 0 -58 5 -71 11 -13 6
-28 24 -35 41 l-11 31 -103 -8 c-57 -4 -109 -8 -115 -8 -7 0 -13 -4 -13 -9 0
-4 -6 -8 -14 -8 -8 0 -17 -14 -21 -32 -3 -18 -12 -44 -18 -58 -7 -14 -16 -28
-21 -31 -5 -4 -9 -25 -9 -48 0 -33 6 -46 34 -72 19 -18 54 -45 78 -60 24 -16
49 -36 56 -46 7 -10 27 -20 45 -21 18 -1 40 -7 50 -12 9 -5 20 -23 23 -39 4
-20 19 -39 44 -55 21 -14 46 -38 55 -54 14 -23 15 -36 6 -75 -8 -41 -7 -53 11
-87 11 -22 23 -51 25 -65 3 -13 8 -30 12 -37 5 -7 10 -60 11 -118 2 -58 5
-114 7 -125 1 -11 6 -40 10 -65 5 -29 2 -74 -8 -125 -8 -44 -18 -96 -21 -115
-4 -19 -8 -73 -10 -119 -3 -53 -10 -90 -18 -100 -8 -9 -24 -34 -34 -56 -11
-22 -28 -63 -37 -91 -9 -29 -26 -60 -37 -70 -12 -11 -30 -37 -41 -59 -12 -22
-30 -51 -40 -65 -11 -14 -23 -25 -27 -25 -4 0 -26 -19 -49 -42 -23 -23 -42
-46 -42 -51 0 -5 -9 -19 -19 -31 -11 -13 -26 -24 -34 -25 -8 -1 -34 -11 -58
-23 -24 -12 -53 -25 -64 -29 -11 -4 -23 -8 -27 -9 -5 -2 -9 -3 -10 -4 -2 -2
-14 -4 -28 -7 -14 -2 -37 -5 -52 -7 -15 -2 -37 -12 -50 -21 -13 -9 -38 -28
-57 -42 -19 -13 -45 -27 -59 -31 -13 -3 -40 2 -61 12 -26 11 -53 15 -84 12
-25 -3 -54 -10 -66 -16 -11 -6 -28 -11 -39 -11 -11 0 -30 9 -44 20 -14 10 -46
22 -72 25 -25 4 -63 8 -84 10 -20 2 -52 -1 -69 -6 -18 -6 -33 -14 -33 -18 0
-4 -8 -7 -17 -6 -10 0 -38 14 -62 30 -31 21 -54 29 -80 27 -20 -1 -49 -4 -66
-6 -19 -2 -47 5 -74 20 -24 13 -48 21 -52 19 -4 -3 -9 1 -12 9 -3 7 -25 22
-49 33 -24 11 -60 28 -80 37 -21 9 -38 23 -38 30 0 7 -15 23 -32 36 -18 14
-38 25 -44 26 -6 1 -21 10 -33 20 -12 10 -33 41 -47 69 -14 27 -32 55 -39 60
-7 6 -21 29 -31 50 -14 33 -17 67 -17 190 0 83 3 170 6 195 2 25 13 64 23 88
10 23 22 42 26 42 5 0 8 8 8 19 0 10 9 47 20 81 12 36 18 79 16 99 -3 20 -5
36 -6 36 -1 0 -3 10 -6 23 -2 13 -9 32 -14 43 -6 10 -22 22 -36 25 -13 4 -59
1 -101 -5 -43 -6 -80 -15 -83 -20 -3 -5 -25 -19 -50 -32 -25 -13 -51 -29 -58
-36 -7 -7 -10 -13 -6 -13 3 0 2 -6 -4 -12 -6 -7 -11 -17 -12 -23 -2 -5 -5 -16
-8 -24 -3 -8 -27 -35 -52 -60 -26 -25 -77 -71 -114 -101 -36 -30 -74 -58 -84
-61 -9 -4 -28 -19 -41 -33 -14 -14 -34 -26 -46 -26 -11 0 -32 -8 -45 -17 -14
-10 -34 -27 -45 -38 -11 -12 -33 -30 -50 -42 -16 -11 -50 -24 -74 -28 -24 -4
-69 -18 -100 -32 -31 -14 -80 -37 -110 -51 -29 -14 -59 -25 -67 -25 -7 0 -15
-6 -18 -14 -3 -7 -11 -13 -19 -13 -7 0 -29 -16 -48 -36 -18 -20 -50 -44 -69
-54 -19 -10 -48 -30 -64 -44 -16 -14 -36 -26 -44 -26 -9 0 -32 -5 -51 -11 -20
-7 -52 -17 -71 -25 -19 -7 -47 -15 -62 -18 -15 -3 -38 -2 -53 4 -14 5 -38 10
-53 11 -15 0 -58 -10 -96 -24 l-70 -26 -49 19 c-28 11 -63 31 -78 46 -24 23
-27 33 -23 68 2 22 6 50 8 61 3 11 5 23 5 27 1 4 10 12 22 18 11 6 29 13 41
15 11 2 35 16 54 30 19 14 34 30 34 34 0 4 12 13 26 19 14 7 22 17 19 22 -3 6
-2 10 3 10 6 0 18 27 28 60 10 33 21 60 25 60 4 0 10 8 14 18 4 9 15 60 25
112 10 52 16 109 15 125 -2 17 -6 57 -11 90 -5 46 -15 71 -41 105 -19 25 -40
48 -46 52 -7 3 -32 7 -57 8 -25 1 -57 1 -72 1 -15 -1 -43 -15 -62 -31 -23 -21
-54 -35 -93 -43 -46 -9 -64 -19 -88 -46 -16 -19 -39 -42 -49 -50 -11 -9 -34
-31 -53 -49 -18 -19 -46 -62 -62 -97 -16 -34 -40 -80 -54 -101 -13 -22 -32
-70 -41 -109 -9 -38 -22 -81 -29 -95 -7 -14 -22 -40 -34 -59 -13 -19 -23 -44
-23 -56 0 -11 -12 -32 -27 -46 -16 -14 -56 -42 -90 -62 -43 -26 -73 -37 -101
-37 -30 0 -43 -6 -58 -25 -10 -14 -24 -25 -31 -25 -7 0 -13 -6 -13 -14 0 -8
-10 -18 -22 -22 -13 -5 -54 -9 -93 -9 -38 -1 -94 -9 -123 -18 -29 -8 -60 -21
-69 -28 -8 -7 -24 -14 -35 -16 -11 -2 -31 6 -44 16 -18 14 -35 18 -62 14 -20
-3 -91 -5 -157 -6 -73 0 -128 4 -141 11 -12 6 -29 27 -38 46 -9 19 -28 45 -44
58 -15 13 -35 41 -44 63 -9 22 -22 58 -29 80 -6 22 -18 59 -26 83 -8 24 -15
58 -15 76 0 18 7 46 15 62 8 16 19 52 25 79 6 28 13 96 16 151 4 60 2 113 -4
130 -6 16 -21 36 -33 45 -12 8 -50 23 -85 33 l-63 17 -64 -29 c-34 -17 -76
-44 -93 -61 -16 -17 -35 -51 -42 -76 -7 -25 -18 -49 -25 -55 -10 -8 -25 -8
-52 -1 -21 5 -54 8 -73 5 -19 -2 -87 -13 -150 -23 -63 -10 -133 -26 -155 -36
-22 -10 -45 -20 -51 -21 -7 -1 -36 -14 -65 -29 -30 -14 -64 -38 -77 -53 -13
-15 -33 -38 -44 -52 -12 -13 -22 -31 -23 -40 -1 -8 -6 -24 -11 -35 -4 -11 -18
-29 -31 -41 -13 -12 -23 -26 -23 -33 0 -6 -5 -11 -11 -11 -5 0 -8 -4 -5 -8 3
-5 -16 -31 -42 -58 -42 -43 -58 -52 -137 -76 -50 -14 -115 -32 -145 -39 -30
-7 -62 -16 -70 -20 -8 -4 -34 -15 -58 -23 -23 -9 -54 -16 -68 -16 -14 0 -44
-9 -67 -21 -23 -11 -69 -23 -102 -26 -33 -3 -73 -11 -90 -19 -16 -7 -66 -23
-110 -35 -44 -12 -116 -23 -160 -25 -44 -1 -146 -3 -227 -4 -94 -1 -155 3
-169 10 -12 7 -42 12 -68 12 -25 0 -63 4 -84 10 -22 5 -58 9 -80 10 -23 0 -59
9 -80 21 -20 11 -44 31 -52 44 -9 13 -20 23 -26 23 -5 0 -17 6 -25 13 -8 6
-24 21 -35 32 -15 15 -19 31 -18 60 2 22 7 50 12 62 6 13 18 25 29 28 10 4 18
11 18 16 0 5 3 8 8 7 4 -1 17 3 28 10 15 8 24 25 28 57 4 25 12 45 18 45 6 0
30 10 54 22 24 12 46 30 50 40 3 10 34 49 70 88 35 39 65 79 65 90 1 11 2 23
3 28 1 4 9 27 16 52 8 25 19 48 25 52 5 4 7 8 2 8 -4 0 5 19 20 43 15 23 32
45 37 48 5 4 11 45 13 90 3 46 5 138 6 204 0 66 -3 134 -8 150 -4 17 -12 33
-17 36 -4 3 -10 39 -12 80 -3 55 -11 86 -30 122 -14 26 -26 54 -26 62 0 7 -13
24 -29 37 -16 14 -34 34 -40 46 -6 12 -26 30 -44 39 -18 9 -35 16 -39 15 -5
-1 -8 3 -8 8 0 6 -7 10 -15 10 -8 0 -23 8 -34 19 -14 14 -33 19 -82 19 -35 0
-71 -4 -79 -8 -9 -5 -63 -13 -122 -18 -58 -6 -114 -15 -124 -20 -11 -6 -45
-23 -77 -38 -32 -16 -70 -42 -84 -59 -14 -16 -32 -44 -39 -62 -8 -17 -27 -46
-44 -65 -17 -18 -41 -53 -53 -78 -12 -25 -25 -46 -29 -48 -5 -2 -8 -12 -8 -23
0 -11 -6 -22 -14 -25 -8 -3 -17 -13 -21 -22 -4 -9 -8 -30 -10 -47 -2 -16 -12
-55 -21 -85 -9 -30 -25 -74 -36 -97 -16 -33 -19 -51 -13 -80 5 -21 8 -63 7
-93 -1 -30 -2 -80 -3 -110 -1 -30 2 -84 6 -120 4 -36 12 -74 17 -84 6 -11 12
-51 14 -89 3 -42 9 -74 17 -81 8 -6 23 -24 34 -41 11 -16 20 -47 22 -69 1 -21
8 -45 16 -53 8 -8 15 -29 15 -47 0 -18 -9 -45 -20 -58 -11 -14 -43 -35 -72
-46 -29 -11 -65 -23 -80 -26 -15 -3 -34 -14 -44 -24 -10 -9 -20 -17 -23 -18
-3 0 -21 -9 -38 -20 -18 -10 -33 -22 -33 -26 0 -5 -15 -8 -34 -8 -19 0 -42 -7
-50 -16 -9 -8 -16 -12 -16 -7 0 4 -4 3 -8 -3 -4 -6 -29 -16 -57 -22 -27 -6
-79 -21 -114 -34 -35 -13 -76 -35 -91 -50 -21 -21 -34 -26 -58 -22 -17 3 -46
-2 -66 -10 -25 -10 -45 -12 -66 -6 -17 5 -86 6 -153 4 -67 -3 -126 -10 -131
-15 -6 -5 -20 -9 -33 -9 -13 0 -40 16 -60 35 -20 19 -43 35 -51 35 -7 0 -24
11 -38 25 -13 13 -25 28 -25 32 -1 5 -6 19 -11 33 -5 14 -11 40 -13 59 -2 19
-1 40 2 47 3 8 29 21 58 30 51 16 56 21 81 75 16 34 37 62 51 68 13 6 21 16
18 21 -3 6 -1 10 5 10 6 0 8 5 5 10 -3 6 -1 10 5 10 6 0 8 5 5 10 -3 6 -2 10
2 10 5 0 18 19 30 43 11 23 20 51 19 62 -1 11 -6 36 -10 55 -5 26 -2 49 12 85
13 33 19 74 19 120 0 43 -5 78 -13 90 -8 11 -14 34 -14 52 0 17 -7 39 -16 47
-8 9 -12 16 -8 16 4 0 -3 11 -16 25 -12 13 -37 29 -54 34 -17 5 -48 12 -70 16
-21 3 -61 1 -90 -5 -28 -7 -77 -19 -110 -28 -32 -9 -79 -32 -105 -51 -25 -19
-65 -55 -88 -79 -24 -25 -43 -53 -43 -63 0 -10 -11 -42 -24 -71 -14 -29 -32
-74 -41 -100 -9 -26 -26 -62 -38 -80 -12 -18 -28 -51 -36 -72 -8 -25 -14 -93
-16 -185 -1 -80 -5 -155 -9 -166 -3 -12 -30 -33 -60 -48 -30 -16 -63 -30 -73
-31 -10 -2 -47 -10 -83 -17 -36 -7 -81 -22 -101 -35 -20 -12 -54 -26 -75 -29
-22 -4 -57 -13 -80 -20 -22 -8 -63 -24 -90 -37 -27 -13 -62 -36 -77 -53 -24
-24 -40 -30 -94 -36 -36 -4 -69 -12 -73 -19 -4 -6 -36 -14 -71 -17 -38 -3 -78
-14 -97 -26 -28 -16 -45 -19 -97 -14 -48 3 -70 1 -87 -11 -13 -9 -25 -19 -28
-22 -3 -4 -15 -12 -26 -18 -12 -6 -53 -14 -92 -16 -39 -3 -92 -11 -117 -17
-38 -10 -49 -9 -71 6 -21 14 -39 16 -80 11 -49 -6 -55 -4 -100 30 -42 32 -54
36 -101 35 -39 -1 -58 4 -71 17 -12 12 -21 41 -25 75 -4 31 -18 77 -32 103
-14 27 -25 64 -25 86 0 23 7 46 16 55 8 9 36 20 60 24 25 5 57 18 71 29 17 13
41 20 72 20 27 0 58 8 77 19 17 10 37 34 44 52 8 19 20 40 26 47 7 6 19 12 27
12 7 0 17 3 21 7 4 5 12 9 17 9 5 1 14 2 19 3 6 0 19 10 30 21 12 12 40 31 63
44 27 15 52 41 71 72 15 27 37 55 47 62 10 7 19 21 19 31 0 9 4 21 8 27 5 5
15 34 22 66 7 31 13 99 14 151 1 77 -3 99 -16 114 -9 10 -35 37 -57 61 -26 28
-48 42 -65 42 -14 0 -35 9 -46 20 -11 11 -28 20 -37 20 -10 0 -40 -8 -68 -19
-27 -10 -57 -16 -65 -13 -8 3 -21 12 -29 20 -9 9 -27 12 -50 9 -20 -3 -54 -10
-76 -15 -22 -6 -62 -13 -89 -16 -27 -3 -56 -12 -66 -21 -9 -8 -22 -15 -28 -15
-7 0 -12 -4 -12 -9 0 -5 -12 -11 -27 -14 -16 -3 -39 -8 -53 -11 -14 -3 -37
-19 -52 -36 -16 -17 -28 -27 -28 -24 0 4 -12 -10 -26 -31 -14 -21 -40 -53 -57
-71 -18 -19 -40 -43 -49 -54 -10 -11 -18 -28 -18 -38 0 -10 -11 -40 -24 -68
-13 -27 -31 -79 -41 -116 -9 -37 -26 -83 -36 -103 -15 -28 -19 -52 -17 -105 2
-37 0 -71 -3 -75 -4 -3 -24 -8 -45 -11 -22 -3 -54 -7 -72 -10 -20 -3 -47 -20
-71 -44 -26 -27 -48 -40 -66 -40 -15 0 -43 -8 -63 -17 -21 -9 -50 -27 -66 -40
-21 -17 -38 -23 -60 -20 -17 2 -50 13 -74 24 -39 18 -49 18 -91 7 -27 -7 -65
-11 -85 -9 -20 2 -50 6 -66 10 -24 5 -30 12 -30 33 0 15 12 50 27 77 21 38 29
69 33 133 4 46 11 87 17 90 5 4 13 21 17 37 4 17 11 55 16 85 5 30 12 69 17
85 5 17 8 66 7 110 -1 44 4 107 11 140 10 45 11 92 5 190 -5 72 -11 150 -14
175 -3 25 -8 59 -10 75 -2 17 -12 57 -21 90 -9 33 -20 74 -25 90 -5 17 -10 57
-11 90 -2 33 -7 76 -12 95 -5 19 -12 42 -15 50 -3 8 -6 17 -6 20 -1 3 -4 10
-7 15 -4 6 -10 25 -14 42 -3 18 -19 46 -34 62 -23 24 -28 38 -24 65 3 32 -2
41 -44 83 -27 26 -67 76 -90 111 -24 36 -43 71 -43 79 0 7 -11 31 -24 52 -14
21 -38 48 -54 60 -17 12 -35 21 -41 21 -6 0 -17 13 -25 29 -9 16 -28 32 -43
37 -15 4 -31 8 -35 8 -3 1 -18 15 -32 31 -14 17 -26 35 -26 41 0 6 -12 16 -27
22 -16 7 -35 11 -43 10 -8 -1 -22 0 -32 0 -11 1 -20 19 -29 53 -8 31 -21 55
-34 61 -11 6 -22 11 -25 11 -3 0 -16 4 -30 10 -14 6 -36 23 -50 39 -15 17 -50
37 -90 51 -36 12 -76 29 -88 39 -16 11 -25 30 -29 57 l-6 41 42 0 c22 0 41 5
41 11 0 5 5 7 10 4 6 -3 10 -2 10 3 0 5 13 25 30 43 16 19 30 40 30 47 0 7 15
21 33 32 17 11 38 20 44 20 7 0 22 8 33 17 11 10 20 23 20 30 0 7 4 13 8 13 5
0 18 18 30 39 14 24 32 42 50 47 15 4 32 8 38 8 6 1 18 9 27 18 9 9 17 21 17
27 0 5 11 22 25 37 14 15 25 23 25 19 0 -4 7 -2 15 5 8 7 15 9 16 4 0 -5 4 1
9 14 5 12 20 26 33 31 12 5 28 15 34 22 6 8 11 16 11 19 -1 3 2 15 6 28 4 12
14 22 22 22 8 0 14 4 14 8 0 4 15 12 33 18 17 5 31 15 30 22 -2 6 2 12 8 12 5
0 7 5 4 10 -3 6 -2 10 3 10 6 0 27 26 48 58 21 31 47 67 58 80 12 13 42 34 68
47 26 14 53 35 59 47 7 13 22 32 34 43 13 11 35 39 50 62 15 23 36 45 46 48
11 4 19 11 19 16 0 5 3 8 8 7 4 -2 17 7 30 20 12 12 19 22 15 22 -3 0 1 8 9
18 9 9 18 35 21 58 3 22 11 53 18 67 7 15 21 29 33 33 12 3 30 16 41 29 11 12
31 36 44 54 13 17 30 31 37 31 8 0 14 4 14 9 0 5 16 26 35 47 19 21 35 42 35
46 0 5 6 16 13 24 6 8 24 27 39 42 14 15 35 43 46 63 11 19 23 54 27 78 6 34
15 48 50 74 35 27 45 41 54 83 7 29 21 60 31 69 11 10 20 24 20 31 0 8 22 35
49 60 27 26 52 56 55 68 3 11 5 23 4 26 0 3 14 28 31 55 17 28 37 64 45 80 8
17 15 57 17 90 3 51 8 64 33 87 26 24 29 33 27 75 -2 26 -3 56 -3 65 0 9 19
35 41 57 34 34 40 47 46 98 4 32 15 76 25 98 10 22 20 58 23 80 3 22 16 63 28
90 19 41 24 69 25 160 1 61 7 139 13 175 8 46 8 114 0 230 -5 91 -14 169 -20
175 -5 5 -9 21 -9 35 0 15 -3 30 -7 33 -3 4 -15 31 -25 59 -10 29 -17 53 -16
53 1 0 -4 16 -12 35 -7 19 -16 37 -20 40 -3 3 -14 24 -24 48 -11 23 -23 42
-28 42 -4 0 -8 16 -8 35 0 23 -7 41 -20 53 -12 9 -24 17 -29 17 -4 0 -15 8
-25 18 -10 9 -20 34 -22 55 -3 20 -7 45 -10 55 -3 9 -10 17 -15 17 -5 0 -19 9
-31 20 -12 10 -24 17 -28 15 -4 -2 -17 7 -28 20 -12 14 -30 26 -39 26 -10 1
-21 1 -25 0 -5 0 -8 4 -8 9 0 6 -6 10 -13 10 -7 0 -18 9 -25 20 -7 11 -18 17
-27 14 -8 -4 -15 -2 -15 3 0 6 -17 15 -37 21 -21 6 -42 12 -48 13 -5 0 -19 6
-30 12 -11 6 -33 12 -50 14 -16 1 -41 4 -56 6 -14 2 -30 7 -37 11 -7 4 -12 4
-12 0 0 -4 -7 1 -15 12 -8 10 -15 15 -15 9 0 -5 -7 0 -15 12 -8 11 -25 22 -37
25 -13 2 -38 0 -55 -5z m-215 -182 c-2 -2 -18 -5 -35 -8 -18 -3 -33 -2 -33 3
0 5 5 10 12 12 7 3 23 2 36 0 12 -2 22 -6 20 -7z m-28 -25 c-8 -5 -22 -9 -30
-9 -10 0 -8 3 5 9 11 5 25 9 30 9 6 0 3 -4 -5 -9z m280 -10 c0 -5 -7 -10 -16
-10 -8 0 -12 5 -9 10 3 6 10 10 16 10 5 0 9 -4 9 -10z m-55 -129 c17 -8 39
-17 50 -22 11 -4 58 -10 105 -13 47 -3 95 -8 108 -12 12 -3 22 -12 22 -18 0
-7 11 -22 23 -33 13 -11 36 -23 51 -27 16 -4 39 -14 52 -23 13 -8 21 -19 18
-24 -3 -5 0 -9 5 -9 6 0 11 -6 11 -13 0 -7 11 -24 24 -38 13 -15 32 -48 41
-75 9 -27 20 -53 24 -59 4 -5 8 -26 10 -45 1 -19 9 -48 17 -64 7 -16 11 -32 9
-36 -3 -5 0 -10 7 -12 8 -3 14 -44 17 -124 3 -65 5 -164 5 -219 -1 -55 -4
-138 -8 -185 -4 -47 -10 -96 -13 -110 -3 -14 -8 -29 -10 -35 -1 -5 -8 -37 -14
-70 -6 -33 -17 -85 -26 -115 -8 -30 -19 -64 -24 -75 -5 -11 -22 -60 -39 -110
-17 -49 -32 -99 -35 -110 -2 -11 -6 -32 -9 -46 -2 -15 -12 -43 -21 -63 -9 -20
-30 -48 -45 -63 -15 -16 -46 -63 -69 -107 -22 -43 -38 -82 -35 -87 3 -5 0 -9
-5 -9 -6 0 -10 -3 -10 -7 1 -5 0 -10 -1 -13 -1 -3 -3 -14 -5 -25 -2 -11 -7
-36 -10 -55 -4 -19 -13 -47 -22 -63 -8 -16 -26 -43 -41 -60 -15 -17 -44 -47
-64 -66 -21 -19 -38 -43 -38 -52 0 -10 -4 -21 -10 -24 -5 -3 -10 -15 -10 -26
0 -10 -3 -19 -7 -19 -5 0 -17 -21 -27 -48 -10 -26 -33 -62 -49 -79 -17 -18
-36 -32 -41 -31 -6 1 -23 -4 -37 -11 -15 -7 -33 -25 -40 -40 -8 -14 -19 -30
-26 -36 -6 -5 -18 -32 -27 -58 -12 -35 -34 -66 -81 -113 -36 -35 -69 -64 -74
-64 -4 0 -25 -25 -47 -56 -21 -30 -57 -74 -80 -97 -22 -23 -51 -58 -64 -77
-14 -19 -30 -41 -36 -47 -7 -7 -17 -13 -22 -13 -5 0 -15 -7 -22 -15 -7 -8 -16
-12 -21 -9 -5 3 -13 -5 -18 -18 -5 -13 -19 -32 -31 -43 -12 -11 -31 -37 -41
-57 -11 -21 -17 -38 -13 -38 3 0 -1 -6 -8 -14 -8 -7 -24 -17 -36 -20 -12 -4
-29 -21 -37 -37 -10 -17 -23 -29 -36 -29 -11 0 -31 -12 -44 -26 -14 -15 -25
-35 -25 -45 0 -11 -7 -19 -15 -19 -8 0 -15 -4 -15 -8 0 -4 -14 -16 -32 -26
-17 -11 -48 -34 -67 -51 -20 -18 -53 -38 -75 -46 -21 -8 -47 -27 -59 -44 -11
-16 -32 -40 -46 -52 -14 -11 -29 -19 -33 -17 -4 2 -13 -5 -21 -16 -7 -11 -16
-17 -19 -14 -3 3 -8 -7 -12 -21 -4 -14 -13 -25 -21 -25 -8 0 -14 -5 -12 -12 1
-6 -13 -15 -31 -18 -17 -4 -53 -26 -80 -49 -26 -22 -57 -50 -70 -60 -12 -11
-30 -25 -41 -30 -10 -6 -24 -24 -31 -40 -7 -17 -23 -33 -38 -38 -15 -5 -67 -8
-115 -7 -50 1 -108 -4 -133 -12 -41 -12 -45 -12 -64 8 -12 14 -20 36 -20 58 0
21 5 52 11 71 6 19 16 45 22 59 7 14 41 53 76 87 62 61 65 63 115 62 28 -1 56
-1 61 0 7 1 10 47 9 129 0 70 -6 154 -13 187 -7 33 -18 71 -25 85 -6 14 -25
29 -41 35 -17 5 -32 12 -35 16 -3 3 -27 7 -53 8 -26 0 -58 -4 -70 -10 -12 -7
-32 -24 -44 -38 -13 -14 -23 -29 -23 -33 0 -5 -15 -8 -34 -8 -18 0 -39 7 -46
15 -9 11 -8 20 6 45 10 16 21 30 25 30 4 0 12 20 18 44 6 25 11 63 11 85 0 22
7 60 14 83 8 24 18 59 21 78 3 19 13 64 21 100 9 36 17 70 18 75 2 6 4 15 6
20 1 6 5 15 10 20 4 6 10 24 14 40 3 17 2 46 -2 65 -5 22 -3 61 6 105 8 38 21
74 28 80 8 5 23 35 34 65 13 36 20 80 20 127 0 52 5 82 19 106 10 18 30 67 44
108 14 40 29 97 33 124 4 28 15 68 24 90 10 23 21 61 26 85 5 25 9 50 9 55 1
6 4 19 8 30 3 11 8 31 11 45 2 14 7 37 11 53 4 15 12 27 18 27 6 0 7 3 4 7 -4
3 -3 11 2 17 5 6 11 25 14 42 3 18 19 75 36 127 17 53 31 117 31 144 0 35 7
58 25 85 14 21 28 52 32 70 3 18 12 40 19 48 7 9 20 32 29 53 8 20 15 48 15
62 0 15 7 33 15 41 8 9 16 27 17 42 0 15 0 35 0 45 -1 10 5 20 13 23 8 4 15
10 15 15 0 5 9 18 20 29 11 11 20 31 20 43 0 14 18 43 45 71 25 27 42 52 39
57 -3 5 0 9 5 9 6 0 10 3 9 8 -1 4 1 21 5 37 4 17 26 50 47 74 22 24 40 49 40
56 0 7 13 27 29 44 16 17 36 31 43 31 8 0 25 9 38 20 13 11 20 20 16 20 -4 0
5 12 19 27 14 15 25 31 25 35 0 5 5 8 11 8 7 0 34 16 60 35 27 19 54 35 59 35
6 0 23 8 38 17 15 10 33 23 40 31 8 7 28 23 45 36 18 13 58 29 91 35 40 7 68
20 92 41 19 16 36 30 37 31 1 0 63 3 137 5 74 3 142 7 150 10 8 3 40 8 70 11
30 3 56 6 58 8 2 1 15 2 30 1 15 -2 41 -8 57 -15z m-2685 -4566 c11 -13 11
-23 0 -55 -7 -21 -19 -41 -26 -44 -8 -3 -20 -3 -28 0 -8 3 -16 19 -18 35 -3
20 2 39 14 55 11 13 25 24 33 24 7 0 18 -7 25 -15z m7945 -1035 c3 -5 15 -10
25 -10 11 0 28 -10 40 -22 11 -12 20 -32 20 -45 0 -13 10 -45 21 -71 17 -37
23 -73 27 -164 3 -85 1 -126 -9 -150 -7 -18 -19 -39 -26 -46 -7 -8 -11 -17 -8
-22 3 -5 1 -11 -4 -14 -5 -4 -12 -24 -16 -46 -4 -22 -10 -40 -15 -40 -4 0 -14
-15 -21 -32 -7 -18 -13 -35 -12 -38 0 -3 -9 -18 -20 -35 -12 -16 -38 -46 -59
-66 -21 -20 -38 -42 -38 -48 0 -7 -12 -28 -27 -47 -14 -19 -34 -39 -44 -44
-10 -6 -24 -7 -32 -4 -8 3 -18 20 -22 37 -4 18 -9 37 -10 42 -2 6 -13 39 -25
75 -13 36 -29 82 -38 102 -10 25 -12 49 -7 75 4 21 9 110 10 198 2 147 4 166
28 227 15 38 32 78 39 90 7 13 20 28 28 35 8 7 22 13 31 13 9 0 29 10 44 22
15 12 44 25 64 29 20 4 39 7 43 8 4 0 10 -3 13 -9z m-4054 -811 c14 -7 19 -19
17 -37 -1 -15 -10 -40 -18 -56 -9 -17 -40 -43 -75 -62 -33 -18 -61 -32 -63
-30 -2 2 -24 -7 -50 -19 -26 -13 -50 -21 -54 -18 -5 2 -8 14 -8 26 0 12 9 38
19 57 10 19 28 54 39 78 15 30 27 42 44 43 13 1 30 1 39 0 8 -1 31 5 50 13 19
9 35 15 37 16 2 0 12 -5 23 -11z m-4082 -175 c6 4 11 1 11 -7 0 -10 -7 -13
-20 -10 -11 3 -20 13 -20 22 0 13 2 13 9 2 5 -7 14 -10 20 -7z m10749 -241 c7
-21 4 -42 -13 -88 -12 -33 -32 -98 -45 -145 -13 -47 -29 -90 -36 -96 -7 -6
-19 -31 -25 -55 -8 -31 -22 -52 -45 -69 -18 -14 -34 -30 -34 -36 0 -6 -7 -25
-16 -42 -8 -18 -19 -32 -24 -32 -5 0 -11 -8 -15 -19 -3 -10 -23 -37 -45 -59
-22 -22 -49 -44 -60 -47 -11 -4 -20 -11 -20 -16 0 -6 -4 -8 -9 -5 -5 3 -26
-13 -46 -36 -29 -32 -46 -42 -74 -44 -20 -1 -43 3 -52 9 -8 7 -21 45 -29 86
-12 66 -12 81 4 150 9 42 21 96 25 121 5 25 16 60 25 78 10 17 32 43 50 57 18
14 37 25 42 25 5 0 27 10 49 21 22 12 52 36 67 53 15 17 28 34 28 39 0 4 15
16 33 27 17 11 46 20 64 20 24 0 41 10 68 37 19 20 35 40 35 44 0 5 17 17 38
28 20 11 40 20 44 21 3 0 11 -12 16 -27z"/>
<path d="M2795 14300 c-27 -11 -71 -19 -96 -20 -26 0 -63 7 -82 15 -20 8 -53
15 -73 15 -21 0 -49 -9 -67 -22 -25 -18 -48 -23 -114 -26 -48 -2 -107 -11
-140 -23 -31 -10 -67 -19 -80 -19 -13 0 -40 -7 -61 -16 -20 -8 -48 -25 -62
-38 -14 -13 -45 -31 -70 -40 -25 -9 -69 -33 -98 -53 -29 -20 -60 -50 -68 -66
-9 -16 -32 -51 -51 -78 -30 -42 -40 -49 -68 -49 -18 0 -47 -3 -65 -6 -23 -5
-42 -21 -68 -56 -21 -28 -56 -70 -79 -94 -24 -24 -43 -52 -43 -62 0 -10 -20
-59 -43 -108 -24 -49 -53 -118 -64 -154 -12 -36 -29 -91 -38 -123 -10 -32 -19
-108 -22 -170 -3 -62 -4 -209 -3 -327 1 -136 6 -237 14 -275 8 -33 21 -107 31
-165 9 -58 23 -125 31 -149 8 -25 14 -63 14 -85 0 -23 12 -72 25 -111 14 -38
25 -76 25 -83 0 -7 18 -49 40 -93 33 -67 40 -92 40 -139 0 -33 8 -94 19 -137
10 -43 32 -105 48 -138 20 -39 34 -89 42 -145 6 -47 34 -157 62 -245 37 -118
53 -186 59 -260 7 -76 15 -106 31 -128 14 -19 29 -72 45 -155 14 -70 31 -156
39 -192 8 -36 18 -85 21 -110 4 -25 15 -54 25 -65 11 -12 22 -48 28 -85 5 -36
14 -78 20 -93 6 -16 11 -50 11 -76 0 -27 6 -66 14 -88 10 -28 12 -69 9 -150
-5 -105 -4 -114 21 -164 22 -45 26 -66 26 -139 0 -52 8 -116 19 -161 12 -48
21 -128 25 -229 3 -86 13 -203 21 -261 13 -85 14 -136 7 -264 -5 -88 -8 -211
-6 -272 3 -105 2 -114 -17 -124 -16 -8 -30 -7 -58 5 -21 8 -48 12 -60 9 -12
-3 -38 -14 -58 -24 -25 -13 -58 -19 -101 -19 -58 0 -65 -3 -91 -31 -25 -27
-31 -30 -51 -19 -12 7 -36 10 -54 7 -17 -3 -76 -14 -131 -26 -55 -12 -111 -26
-125 -31 -14 -5 -79 -12 -145 -14 -66 -2 -133 -9 -148 -15 -16 -6 -54 -11 -85
-11 -31 0 -68 -7 -82 -15 -14 -8 -36 -19 -50 -25 -13 -6 -96 -19 -185 -29
-120 -14 -175 -25 -222 -45 -34 -14 -77 -26 -94 -26 -18 0 -46 -10 -63 -23
-17 -13 -53 -36 -79 -51 -26 -16 -54 -41 -63 -57 -8 -17 -23 -29 -34 -29 -11
0 -26 -12 -35 -30 -9 -18 -15 -56 -15 -100 0 -51 6 -83 22 -116 11 -25 27 -48
33 -51 7 -2 20 -24 30 -49 9 -24 20 -44 24 -44 4 0 13 -12 20 -26 6 -15 9 -35
6 -45 -4 -11 -2 -19 4 -19 5 0 18 -13 28 -30 9 -16 21 -30 26 -30 5 0 15 7 24
15 9 10 23 13 37 9 11 -4 29 -15 39 -25 10 -11 21 -19 25 -19 4 0 48 -40 97
-88 50 -49 98 -100 107 -114 9 -13 50 -44 90 -68 40 -24 81 -54 91 -67 11 -13
38 -33 60 -44 23 -12 49 -27 57 -34 8 -7 40 -20 71 -29 31 -9 62 -22 68 -30 6
-7 24 -16 40 -19 17 -4 41 -22 61 -47 29 -37 35 -40 81 -40 41 0 57 -6 89 -31
32 -26 52 -33 107 -38 37 -4 83 -15 100 -24 18 -10 44 -21 57 -26 18 -7 36 -3
77 17 49 25 64 27 169 27 93 0 121 3 142 18 15 9 36 17 46 17 11 0 32 5 48 10
19 7 37 26 54 57 21 40 34 51 97 80 39 18 76 33 81 33 6 0 11 35 13 78 3 61
10 87 32 127 15 28 39 73 52 100 19 40 29 89 45 225 11 96 20 200 20 231 0 31
7 78 15 105 8 27 15 84 15 126 0 42 -5 99 -11 126 -7 27 -9 61 -5 75 4 18 21
33 60 51 31 15 73 26 95 26 26 0 64 12 108 35 42 21 106 42 168 54 70 15 123
33 177 61 43 23 110 52 150 66 39 13 86 24 103 24 22 0 40 10 65 35 18 19 49
40 67 46 24 8 38 8 47 0 8 -7 13 -42 14 -108 1 -54 -5 -132 -12 -173 -8 -41
-20 -107 -26 -146 -7 -41 -10 -93 -6 -120 4 -27 11 -89 15 -139 5 -49 16 -110
26 -135 9 -25 28 -80 43 -122 20 -60 31 -78 45 -78 16 0 18 -5 12 -46 l-6 -47
43 8 c24 4 54 7 68 6 13 -1 35 -12 50 -25 14 -13 59 -41 100 -63 63 -32 84
-38 135 -37 43 0 72 7 105 24 25 13 65 25 90 27 25 2 84 4 133 6 l87 2 45 43
c24 23 51 42 60 42 9 0 37 11 63 25 26 14 53 25 60 25 7 0 30 9 50 19 20 11
64 32 97 47 33 14 79 36 102 47 24 11 54 33 68 49 14 16 37 33 50 38 13 5 43
33 66 62 23 29 51 59 63 67 11 8 43 30 69 50 33 24 57 53 74 89 16 34 35 58
55 68 19 10 41 13 61 9 18 -4 41 -13 53 -20 11 -7 40 -20 65 -28 24 -9 85 -31
136 -51 l92 -35 52 19 c48 16 57 17 98 4 25 -8 69 -20 98 -26 46 -11 60 -9
120 10 37 12 88 26 113 31 25 5 77 16 115 24 39 7 81 20 94 27 14 7 49 12 78
11 49 -1 57 2 89 34 25 25 44 35 67 35 18 0 51 9 73 19 32 15 45 28 54 55 6
19 19 37 28 40 9 2 36 7 58 11 27 4 56 18 80 41 35 30 45 34 94 34 30 0 60 -4
67 -8 6 -4 23 -24 37 -45 14 -21 26 -40 26 -42 0 -3 17 -21 39 -40 21 -19 44
-48 51 -65 8 -20 23 -33 49 -41 20 -7 46 -20 59 -30 13 -10 40 -23 60 -30 20
-6 52 -23 70 -36 33 -25 34 -25 78 -8 39 15 52 15 89 5 24 -7 61 -10 82 -6 21
3 80 11 132 16 61 7 120 21 168 40 41 17 80 30 87 30 7 0 24 8 37 19 13 10 38
21 55 25 18 4 40 16 50 28 11 11 32 27 48 35 16 8 50 21 76 29 42 12 48 18 59
54 9 30 23 47 54 67 23 14 69 55 103 90 55 56 66 63 101 63 25 0 46 -6 55 -17
9 -10 25 -40 37 -66 12 -26 37 -65 55 -85 18 -20 47 -59 65 -85 18 -27 44 -52
58 -58 13 -5 37 -9 52 -9 16 0 40 -9 53 -20 14 -11 33 -37 41 -58 10 -25 34
-52 71 -80 50 -37 73 -46 208 -78 142 -34 158 -36 252 -30 56 4 128 7 162 6
33 -1 80 6 105 14 24 9 60 16 79 16 19 0 50 9 69 21 19 11 43 32 54 45 16 21
27 25 71 23 28 -1 88 5 133 13 70 13 89 21 129 54 25 21 55 45 67 51 12 7 32
13 45 13 13 0 38 14 55 32 18 17 56 42 85 55 29 12 57 23 63 23 6 0 34 11 62
24 29 13 74 34 101 45 28 12 73 39 100 60 28 21 71 44 96 50 25 7 55 15 68 18
12 3 29 0 37 -7 9 -7 15 -29 15 -55 0 -38 5 -47 53 -92 28 -27 68 -69 88 -94
20 -24 58 -65 83 -92 25 -26 46 -51 46 -56 0 -4 11 -20 25 -35 15 -17 34 -26
54 -26 16 0 36 -6 43 -13 7 -8 23 -19 34 -25 12 -7 26 -7 35 -1 7 5 24 9 36 9
16 0 27 -10 37 -33 12 -29 20 -35 67 -45 30 -6 81 -17 115 -25 33 -8 76 -20
96 -27 28 -10 48 -11 91 -2 30 6 63 9 73 7 11 -2 49 -11 85 -20 52 -12 77 -13
124 -4 32 6 86 8 119 4 34 -3 89 -13 123 -22 60 -15 65 -15 126 5 34 12 85 25
112 28 28 4 61 14 75 23 14 8 45 21 70 27 25 7 50 9 55 5 6 -5 57 -5 115 -1
79 5 121 13 170 33 36 14 85 30 110 36 25 5 74 12 110 16 49 5 85 17 145 49
44 24 101 46 127 49 31 4 64 19 97 42 27 20 52 42 55 50 3 8 23 26 45 39 31
20 42 34 47 62 5 27 2 46 -10 68 -10 17 -31 42 -48 55 -21 17 -47 26 -84 29
-33 3 -71 -2 -101 -11 -26 -9 -70 -23 -98 -31 -27 -8 -66 -17 -85 -21 -19 -4
-47 -14 -62 -21 -15 -8 -65 -19 -110 -25 -47 -6 -94 -18 -108 -28 -14 -10 -34
-21 -44 -25 -11 -4 -41 -1 -67 5 -41 11 -51 10 -73 -4 -15 -10 -46 -17 -76
-17 -28 0 -63 -6 -78 -13 -15 -8 -53 -20 -85 -27 -37 -9 -64 -10 -72 -4 -7 5
-23 16 -36 26 -21 14 -37 15 -119 7 -52 -5 -169 -8 -260 -7 -91 1 -192 7 -225
14 -33 7 -102 16 -152 20 -87 6 -95 9 -126 39 -19 19 -51 38 -71 43 -20 6 -57
29 -82 51 -26 23 -51 41 -57 41 -6 0 -19 8 -29 17 -10 9 -51 35 -91 58 -54 30
-80 53 -104 90 -18 27 -38 73 -44 102 -12 51 -11 57 17 114 16 34 43 74 62 90
18 16 37 29 42 29 6 0 26 22 45 49 19 26 52 60 74 74 22 15 52 49 70 79 20 37
42 59 66 71 20 9 38 23 40 29 2 7 9 31 14 53 6 22 24 55 41 73 16 18 33 45 36
60 4 15 17 46 31 70 13 24 36 73 50 110 13 37 31 89 38 116 8 28 11 68 8 95
-4 38 -1 56 18 92 21 38 24 56 22 134 -1 50 -8 110 -17 135 -8 25 -18 69 -22
98 -4 30 -20 78 -36 107 -15 29 -43 68 -61 85 -17 18 -50 41 -72 51 -22 11
-51 26 -65 34 -17 10 -42 13 -85 9 -33 -3 -78 -11 -100 -16 -22 -6 -67 -14
-100 -19 -41 -6 -97 -27 -183 -70 -114 -57 -126 -66 -157 -115 -22 -34 -42
-54 -57 -56 -16 -2 -25 -13 -33 -39 -5 -19 -28 -57 -50 -83 -22 -27 -57 -67
-78 -90 -23 -25 -44 -61 -53 -94 -9 -29 -26 -65 -39 -81 -14 -15 -29 -40 -35
-55 -5 -15 -10 -56 -10 -91 0 -34 -9 -91 -19 -126 -11 -35 -23 -109 -27 -164
-5 -79 -2 -114 11 -165 10 -36 19 -94 21 -129 3 -45 9 -71 23 -85 10 -12 24
-31 30 -43 6 -12 11 -45 11 -73 0 -38 7 -60 26 -90 21 -32 24 -44 17 -67 -9
-25 -15 -28 -54 -30 -24 -1 -49 -2 -56 -2 -6 -1 -28 -19 -49 -41 -21 -22 -68
-58 -104 -79 -36 -21 -80 -41 -98 -45 -19 -3 -47 -17 -63 -31 -17 -13 -49 -30
-72 -36 -23 -7 -48 -17 -55 -22 -7 -5 -38 -16 -70 -24 -31 -8 -68 -17 -82 -19
-14 -3 -35 -7 -48 -10 -13 -3 -29 -18 -39 -39 -11 -22 -27 -38 -47 -45 -17 -5
-78 -17 -135 -25 -57 -9 -115 -22 -130 -29 -20 -10 -71 -11 -236 -5 -137 4
-226 12 -255 22 -25 8 -69 30 -98 50 -31 21 -71 39 -97 43 -29 4 -49 13 -55
25 -6 10 -10 35 -10 56 -1 21 -6 59 -13 85 -7 25 -20 55 -29 65 -8 10 -24 34
-33 53 -12 22 -21 72 -26 134 -6 71 -4 127 6 195 8 53 15 119 15 146 0 28 -8
65 -18 84 -10 20 -33 43 -55 54 -21 11 -55 20 -75 20 -20 1 -59 -5 -85 -12
-46 -13 -53 -20 -108 -104 -51 -78 -59 -96 -59 -138 0 -35 -6 -55 -23 -76 -13
-15 -36 -52 -52 -81 -17 -31 -70 -93 -129 -151 -56 -55 -109 -111 -119 -125
-10 -14 -32 -33 -50 -42 -18 -9 -51 -34 -74 -55 -24 -22 -51 -39 -60 -39 -10
0 -61 -22 -114 -48 -53 -26 -111 -62 -128 -80 -20 -19 -46 -34 -69 -37 -20 -3
-57 -10 -81 -16 -37 -8 -48 -7 -79 12 -20 11 -64 30 -98 40 -34 10 -73 28 -87
39 -14 11 -37 41 -52 66 -20 34 -27 60 -27 97 0 45 4 55 33 82 19 17 46 49 61
71 14 23 39 46 55 51 15 6 36 14 46 17 13 4 17 16 17 50 0 25 12 80 26 123 18
51 27 101 28 143 0 36 -5 83 -12 105 -6 22 -17 49 -25 58 -8 12 -31 20 -68 24
-40 4 -64 1 -87 -11 -17 -9 -45 -16 -63 -16 -18 0 -56 -8 -86 -17 -41 -13 -59
-25 -80 -56 -15 -22 -32 -47 -38 -57 -5 -10 -23 -40 -39 -66 -16 -27 -39 -60
-51 -74 -12 -14 -33 -45 -47 -70 -14 -25 -33 -68 -42 -96 -10 -31 -31 -64 -54
-86 -20 -20 -81 -57 -134 -83 -54 -26 -103 -54 -109 -61 -6 -8 -28 -14 -48
-14 -20 0 -52 -9 -71 -20 -19 -11 -60 -33 -90 -49 -30 -16 -70 -32 -89 -36
-18 -4 -52 -16 -75 -26 -22 -10 -52 -19 -66 -19 -14 0 -47 -12 -75 -25 -27
-14 -64 -25 -81 -25 -17 0 -53 -6 -80 -14 -27 -8 -68 -17 -90 -21 -28 -4 -54
-1 -79 9 -21 9 -54 16 -74 16 -21 0 -64 5 -97 11 -40 7 -69 19 -89 38 -16 15
-42 35 -57 44 -15 10 -36 34 -47 55 -10 20 -26 58 -35 84 -14 43 -14 55 -1
125 8 43 15 104 15 135 0 37 -9 81 -25 125 -14 37 -41 100 -60 140 -23 46 -35
86 -35 113 0 36 -2 41 -17 34 -10 -4 -54 -11 -98 -14 -44 -4 -96 -13 -115 -20
-19 -7 -42 -19 -51 -27 -9 -8 -31 -43 -48 -77 -17 -35 -38 -83 -46 -107 -13
-36 -15 -73 -9 -209 5 -134 10 -174 27 -210 11 -25 22 -72 24 -105 3 -33 0
-71 -6 -85 -6 -14 -29 -50 -51 -80 -23 -30 -57 -88 -77 -128 -23 -45 -54 -89
-79 -111 -24 -21 -66 -44 -99 -55 -43 -13 -74 -33 -121 -77 -34 -32 -75 -61
-91 -65 -15 -3 -44 -10 -63 -15 -19 -5 -49 -19 -66 -31 -18 -13 -47 -35 -66
-50 -26 -21 -54 -30 -111 -39 -56 -8 -84 -8 -108 0 -18 6 -79 11 -136 11 -71
0 -113 5 -132 15 -16 8 -33 27 -39 42 -6 15 -16 80 -23 143 -7 63 -12 138 -12
165 0 28 4 84 8 125 5 44 15 85 25 100 10 14 25 43 35 65 9 22 17 60 16 84 0
24 5 53 11 65 6 11 21 31 34 42 12 12 31 45 41 75 12 37 33 68 68 102 28 26
82 66 120 87 39 21 92 44 118 50 27 6 60 18 75 28 15 9 46 36 69 60 23 23 54
47 68 52 15 6 51 10 80 10 50 0 56 2 70 29 8 16 41 45 73 65 32 19 67 45 78
57 10 11 42 32 69 46 28 14 64 41 81 59 20 21 41 34 57 34 14 0 34 8 46 18 14
11 23 34 27 67 5 41 13 56 45 86 30 29 39 44 39 70 0 19 -8 56 -19 83 -10 28
-28 57 -39 67 -12 9 -46 20 -77 24 -33 4 -78 2 -112 -6 -32 -7 -94 -13 -138
-13 l-79 -1 -29 -43 c-15 -23 -36 -46 -45 -51 -9 -5 -51 -12 -92 -16 -41 -4
-96 -11 -122 -16 -26 -4 -73 -22 -105 -39 -32 -17 -73 -45 -91 -63 -17 -17
-44 -36 -58 -42 -14 -6 -37 -31 -52 -60 -24 -44 -34 -53 -88 -74 -50 -19 -66
-31 -84 -62 -12 -22 -25 -39 -29 -39 -4 0 -21 -19 -38 -42 -17 -24 -53 -66
-80 -94 -26 -28 -56 -63 -66 -78 -10 -14 -36 -36 -59 -47 -23 -12 -70 -25
-106 -30 -36 -5 -74 -17 -84 -26 -10 -9 -18 -27 -18 -40 0 -13 -5 -33 -10 -44
-6 -10 -14 -19 -19 -19 -4 0 -26 12 -47 26 l-38 26 -29 -32 c-16 -18 -57 -43
-95 -59 -37 -15 -89 -33 -115 -40 -27 -6 -65 -22 -86 -35 -21 -13 -59 -31 -85
-40 -25 -9 -75 -16 -109 -16 -54 0 -69 -4 -103 -29 -21 -15 -55 -33 -74 -39
-19 -6 -79 -11 -133 -10 -93 1 -98 2 -103 24 -3 12 -2 43 4 67 5 27 5 133 -1
283 -5 131 -10 300 -12 374 -1 74 -7 176 -14 225 -6 50 -16 128 -21 175 -4 47
-13 99 -18 116 -5 17 -18 89 -27 160 -10 71 -26 146 -36 166 -16 31 -17 44 -8
93 9 48 7 64 -10 116 -12 32 -21 67 -21 78 0 10 -6 36 -14 58 -11 33 -12 50 0
108 9 48 10 83 4 111 -5 23 -21 79 -36 125 -14 46 -41 112 -60 146 -19 34 -34
75 -34 92 0 18 -7 48 -15 67 -8 19 -19 70 -24 112 -6 42 -17 99 -25 126 -8 27
-29 64 -47 82 -30 31 -32 38 -36 121 -2 48 -3 106 -3 128 0 25 -9 52 -25 77
-18 26 -25 51 -25 84 0 25 -11 73 -25 107 -13 34 -27 91 -30 125 -3 35 -14 81
-25 103 -11 21 -20 46 -20 56 0 10 -12 54 -26 98 -14 44 -34 104 -45 133 -10
30 -19 68 -19 86 0 17 -9 56 -19 86 -11 30 -22 84 -26 120 -4 36 -16 89 -27
118 -17 44 -20 66 -14 125 4 44 1 105 -8 156 -7 47 -11 92 -9 100 2 9 7 68 12
131 5 63 16 151 25 195 10 44 22 97 27 118 6 20 23 52 38 70 16 18 34 51 40
74 6 23 23 56 37 72 14 17 44 40 67 51 23 12 58 30 77 40 19 11 52 32 73 47
22 16 51 41 65 57 15 17 41 43 57 58 17 16 51 35 77 43 26 7 96 17 155 21 83
5 113 11 128 25 11 10 32 22 46 28 15 5 37 7 50 4 13 -4 34 -13 46 -21 20 -12
28 -12 70 2 25 9 59 16 74 16 14 0 53 -12 85 -27 34 -15 88 -29 127 -33 53 -6
74 -13 95 -32 15 -14 50 -38 79 -52 30 -15 69 -26 91 -26 36 0 45 -6 112 -80
40 -44 77 -80 81 -80 5 0 29 -9 52 -20 31 -14 51 -33 67 -63 13 -23 42 -63 64
-88 23 -25 54 -69 69 -98 15 -29 40 -60 56 -68 15 -9 38 -36 51 -60 12 -24 27
-43 31 -43 5 0 17 -17 28 -37 11 -21 33 -51 50 -66 17 -16 31 -35 31 -43 0 -7
17 -25 39 -39 21 -14 43 -37 50 -51 6 -14 11 -47 11 -75 0 -41 5 -54 26 -74
15 -14 30 -25 34 -25 3 0 14 -24 23 -53 11 -36 25 -58 41 -66 13 -7 31 -31 39
-52 10 -24 25 -42 41 -49 14 -5 28 -20 32 -33 3 -14 1 -42 -5 -63 -9 -31 -7
-53 11 -119 12 -44 30 -92 40 -107 10 -15 25 -49 33 -75 8 -26 15 -70 15 -96
0 -26 6 -62 14 -80 7 -18 28 -45 45 -61 30 -29 31 -33 31 -111 0 -49 -8 -114
-21 -164 -18 -72 -19 -89 -9 -127 8 -26 10 -64 6 -91 -5 -39 -1 -56 25 -109
26 -54 29 -70 24 -108 -4 -25 -14 -51 -22 -57 -8 -7 -21 -25 -28 -40 -8 -15
-19 -65 -25 -111 -5 -45 -14 -99 -19 -118 -6 -19 -15 -53 -20 -75 -6 -22 -11
-94 -11 -161 0 -83 -5 -135 -16 -167 -13 -38 -14 -53 -4 -82 6 -20 23 -43 36
-52 24 -15 27 -15 52 4 25 18 27 26 27 89 1 58 7 82 38 150 20 45 37 88 37 96
0 8 14 33 31 57 29 38 33 53 41 144 7 83 14 109 35 141 21 33 24 46 19 85 -5
40 -2 52 28 101 34 55 34 55 35 185 1 72 -4 151 -11 177 -10 40 -9 52 6 87 16
35 17 45 5 90 -10 39 -10 61 0 104 9 41 9 74 0 143 -6 49 -14 116 -18 150 -5
49 -12 68 -39 98 -17 20 -32 44 -32 54 0 9 -9 41 -20 70 -11 29 -20 70 -20 91
0 27 -8 49 -24 68 -13 15 -31 42 -40 60 -9 18 -16 51 -16 75 -1 24 -7 60 -15
81 -7 22 -29 65 -49 97 -20 32 -36 65 -36 73 0 8 -19 51 -41 94 -23 43 -51 92
-64 108 -12 17 -32 49 -44 73 -12 23 -26 42 -32 42 -5 0 -19 20 -30 45 -15 33
-29 49 -54 59 -18 8 -40 25 -48 38 -8 12 -18 40 -21 61 -4 21 -15 57 -25 80
-10 23 -36 60 -57 82 -22 22 -48 57 -57 78 -10 21 -32 53 -48 72 -17 19 -35
50 -40 69 -7 27 -18 37 -49 50 -21 8 -44 24 -49 35 -6 11 -11 31 -11 45 0 20
-5 26 -22 26 -13 0 -49 16 -82 35 -32 20 -80 54 -106 76 -27 22 -54 54 -60 70
-7 16 -18 29 -24 30 -6 1 -28 0 -49 -1 -25 -1 -53 7 -83 25 -42 24 -49 26 -95
16 -27 -6 -64 -11 -82 -11 -24 0 -40 9 -68 40 -25 27 -45 40 -63 40 -15 0 -44
9 -66 20 -22 11 -50 20 -62 19 -13 0 -45 -9 -73 -19z m8994 -4606 c17 -14 35
-42 41 -62 5 -20 10 -60 10 -88 0 -28 -8 -71 -19 -95 -10 -24 -22 -69 -25 -99
-4 -30 -23 -100 -43 -155 -20 -55 -48 -116 -63 -135 -15 -19 -34 -48 -42 -65
-8 -16 -18 -42 -22 -57 -4 -18 -22 -38 -49 -55 -23 -14 -68 -52 -100 -84 -31
-32 -66 -78 -77 -104 -16 -38 -24 -46 -42 -43 -14 2 -31 18 -45 43 -12 22 -25
58 -29 80 -3 22 -13 52 -20 67 -8 15 -14 49 -14 75 0 26 -5 82 -11 123 -10 65
-9 81 6 120 9 25 20 68 25 95 4 28 24 86 43 130 19 44 40 100 47 125 6 25 18
55 26 67 8 13 37 34 64 48 27 14 55 25 62 25 8 0 45 15 83 34 48 24 85 35 117
35 36 1 53 -5 77 -25z m-9777 -2139 c3 -33 11 -75 17 -94 6 -18 8 -54 4 -80
-3 -25 -20 -75 -38 -111 -28 -56 -33 -78 -38 -167 -4 -78 -11 -117 -32 -169
-20 -51 -25 -77 -21 -106 4 -21 2 -47 -4 -58 -5 -10 -27 -24 -47 -30 -21 -7
-48 -19 -60 -26 -18 -11 -55 -14 -159 -11 -126 3 -138 4 -154 25 -14 17 -27
21 -63 20 -34 -2 -54 4 -83 24 -22 14 -51 29 -67 32 -15 4 -44 21 -65 40 -20
18 -46 38 -57 43 -11 6 -38 13 -60 17 -22 4 -51 11 -65 17 -14 5 -36 25 -48
44 -19 27 -33 35 -69 41 -43 6 -46 9 -69 60 -20 45 -31 57 -73 79 -32 16 -61
41 -81 69 -23 34 -47 53 -98 78 -56 28 -67 37 -67 58 0 23 4 25 40 24 22 -1
60 -5 85 -9 37 -5 55 -2 100 19 30 14 64 26 76 26 11 0 47 9 78 20 32 11 80
19 106 19 26 -1 54 2 61 7 8 5 41 11 74 15 39 4 85 18 128 39 66 33 69 34 125
22 51 -10 63 -10 109 8 40 15 73 19 140 17 71 -1 99 3 146 21 32 12 70 22 85
22 15 0 34 5 42 10 8 6 33 9 55 8 l40 -3 7 -60z"/>
<path d="M39194 3882 c-30 -28 -31 -28 -155 -26 -68 1 -140 -2 -160 -7 -20 -5
-44 -18 -54 -29 -16 -18 -26 -19 -109 -13 -50 3 -103 12 -118 19 -15 8 -37 14
-50 14 -13 0 -41 -7 -63 -14 -23 -8 -70 -15 -105 -16 -36 -1 -125 3 -199 9
-108 8 -139 8 -160 -3 -19 -10 -63 -13 -159 -11 -129 3 -134 2 -155 -21 -13
-14 -41 -27 -67 -32 -25 -4 -61 -5 -80 -1 -19 4 -93 5 -165 2 -71 -3 -167 -5
-213 -4 -46 1 -136 -5 -202 -14 -65 -8 -131 -12 -148 -9 -19 4 -55 -2 -94 -14
-35 -11 -90 -24 -123 -28 -33 -4 -98 -8 -145 -9 -47 -1 -136 -7 -198 -13 -97
-11 -116 -10 -142 3 -16 8 -35 15 -43 15 -8 0 -34 -13 -58 -30 -35 -23 -55
-30 -96 -30 -29 0 -72 5 -96 12 -39 10 -50 9 -107 -14 -54 -21 -68 -23 -106
-15 -34 8 -52 7 -81 -5 -21 -9 -77 -22 -125 -28 -48 -7 -145 -11 -215 -9 -114
2 -137 0 -216 -24 -48 -15 -96 -31 -106 -37 -11 -5 -36 -10 -56 -10 -20 0 -65
7 -101 16 -60 15 -72 15 -167 0 -56 -10 -137 -22 -180 -28 -59 -9 -102 -9
-180 1 -57 7 -116 9 -132 5 -17 -4 -61 -23 -100 -42 -48 -24 -93 -37 -145 -44
-41 -5 -102 -11 -135 -12 -33 -2 -103 -8 -155 -15 -53 -7 -134 -9 -185 -6 -58
4 -108 2 -140 -6 -27 -7 -95 -13 -150 -13 -79 -1 -107 -6 -132 -21 -28 -16
-36 -17 -71 -6 -34 11 -47 10 -106 -8 -41 -13 -95 -21 -137 -21 -39 0 -106
-10 -152 -21 -68 -18 -99 -21 -179 -16 -77 5 -106 3 -135 -10 -30 -12 -61 -14
-146 -10 -73 4 -125 1 -160 -8 -29 -7 -86 -16 -128 -19 -43 -4 -87 -2 -102 3
-21 8 -36 5 -83 -20 -49 -27 -63 -30 -105 -24 -30 4 -83 1 -136 -8 -49 -9
-120 -20 -159 -25 -39 -5 -98 -22 -131 -37 l-60 -26 -58 17 c-46 13 -77 15
-143 10 -46 -4 -96 -12 -110 -18 -15 -6 -87 -10 -165 -9 -126 2 -141 0 -177
-20 -38 -21 -42 -22 -73 -7 -32 15 -36 15 -101 -13 -37 -16 -79 -29 -93 -29
-13 0 -34 5 -46 12 -12 6 -49 11 -81 10 -34 -1 -91 -13 -135 -29 -58 -20 -93
-26 -146 -25 -38 1 -86 2 -105 3 -19 0 -52 -3 -72 -6 -21 -4 -52 -2 -69 4 -26
9 -38 8 -68 -9 -20 -11 -56 -27 -81 -36 -25 -8 -56 -18 -69 -21 -15 -4 -40 3
-67 17 l-43 24 -93 -31 c-85 -29 -107 -32 -255 -36 -149 -5 -165 -4 -187 14
-16 12 -40 19 -69 19 -40 0 -45 -2 -50 -27 -4 -16 -11 -35 -16 -43 -8 -11 -27
-15 -71 -13 -34 1 -83 9 -110 19 l-48 17 -53 -34 c-52 -33 -55 -34 -173 -36
-101 -1 -128 2 -165 18 -24 10 -50 19 -58 19 -8 0 -29 -10 -46 -22 -23 -16
-52 -25 -102 -29 -38 -3 -97 -17 -130 -30 -57 -23 -69 -24 -263 -21 -193 2
-204 2 -229 -18 -21 -16 -39 -21 -82 -19 -31 1 -94 -3 -141 -10 -47 -6 -110
-11 -140 -11 -32 0 -78 -9 -110 -21 -44 -17 -83 -22 -195 -25 -77 -2 -165 -4
-196 -3 -31 0 -101 -11 -156 -25 -65 -17 -153 -29 -249 -36 -82 -5 -167 -15
-189 -21 -22 -6 -53 -13 -70 -15 -18 -3 -45 3 -68 15 l-38 19 -49 -25 c-44
-23 -53 -24 -100 -14 -28 6 -78 11 -111 11 -39 0 -71 6 -89 17 -28 16 -28 16
-60 -20 -22 -26 -40 -37 -59 -37 -15 0 -52 -7 -81 -16 -39 -11 -72 -14 -113
-9 -40 4 -73 2 -105 -9 -26 -8 -99 -17 -163 -21 -92 -5 -118 -3 -127 8 -10 11
-24 12 -86 2 -40 -6 -89 -21 -108 -32 -20 -11 -67 -29 -106 -39 -68 -17 -75
-18 -136 -1 -35 9 -89 17 -119 17 -39 0 -61 -6 -80 -20 -14 -11 -37 -20 -52
-20 -14 0 -47 -5 -72 -11 -34 -9 -61 -9 -112 0 -62 11 -77 10 -178 -13 -62
-14 -129 -26 -150 -26 -21 0 -53 4 -71 10 -22 6 -53 5 -90 -1 -31 -6 -73 -19
-93 -30 -20 -10 -48 -19 -63 -19 -14 0 -55 -10 -91 -21 l-65 -22 -96 23 c-69
16 -107 20 -137 15 -23 -4 -62 -7 -87 -6 -25 1 -76 2 -115 3 -52 0 -83 -5
-120 -22 -36 -16 -83 -25 -167 -31 -76 -6 -138 -17 -174 -30 -43 -16 -70 -20
-111 -16 -32 3 -73 0 -101 -8 -26 -7 -96 -16 -156 -19 -70 -5 -126 -3 -155 4
-41 10 -54 9 -121 -15 -41 -14 -91 -30 -110 -35 -19 -5 -60 -9 -90 -9 -30 0
-86 1 -125 2 -38 1 -82 6 -96 10 -19 6 -37 4 -59 -8 -22 -11 -44 -14 -69 -10
-28 5 -50 0 -91 -19 -44 -21 -70 -26 -135 -26 -44 0 -95 -4 -112 -9 -21 -6
-46 -6 -70 1 -27 7 -52 6 -102 -6 -47 -11 -135 -17 -313 -20 -204 -3 -254 -7
-292 -21 -36 -14 -55 -16 -89 -8 -28 6 -55 5 -82 -3 -22 -6 -92 -17 -156 -23
-63 -6 -152 -11 -198 -11 -50 0 -118 -9 -173 -22 -77 -18 -99 -19 -147 -10
-35 6 -75 7 -102 2 -24 -5 -59 -16 -77 -25 -32 -16 -38 -16 -114 3 -72 18 -86
19 -122 7 -26 -8 -81 -13 -148 -12 -88 1 -110 -1 -125 -16 -12 -10 -36 -17
-59 -17 -21 0 -86 -9 -144 -20 -58 -11 -122 -27 -142 -35 -27 -10 -44 -12 -60
-5 -13 6 -30 15 -39 21 -12 9 -28 6 -72 -15 -32 -14 -62 -26 -67 -26 -5 0 -21
12 -34 27 l-26 27 -54 -27 c-49 -25 -62 -27 -115 -21 -44 5 -79 2 -129 -11
-63 -17 -70 -17 -99 -1 -18 9 -45 16 -62 16 -20 0 -44 -13 -76 -40 -25 -22
-56 -40 -68 -40 -13 0 -32 6 -43 14 -15 11 -50 15 -130 14 -87 -1 -117 -5
-148 -21 -33 -16 -52 -18 -115 -13 -42 3 -102 9 -133 12 -51 6 -62 3 -105 -21
-43 -26 -51 -27 -92 -18 -26 6 -61 17 -78 24 -29 12 -37 11 -80 -11 -39 -19
-71 -25 -168 -30 -99 -6 -125 -5 -147 8 -23 13 -35 14 -83 3 -31 -7 -89 -11
-128 -10 -56 2 -78 -1 -99 -15 -19 -13 -36 -15 -63 -10 -24 4 -50 1 -81 -11
-30 -11 -60 -15 -92 -12 -26 3 -62 9 -80 12 -22 5 -40 2 -57 -9 -13 -9 -39
-16 -57 -16 -18 0 -51 5 -73 10 -29 7 -53 5 -90 -5 -34 -11 -69 -13 -113 -9
-62 7 -64 6 -92 -25 -16 -17 -36 -31 -44 -31 -8 0 -41 7 -74 15 -32 9 -104 16
-158 17 -86 2 -105 -1 -144 -21 -42 -22 -48 -23 -108 -11 -38 7 -84 10 -119 5
-32 -4 -66 -9 -78 -11 -11 -3 -60 -8 -110 -13 -49 -4 -101 -14 -115 -21 -16
-8 -91 -16 -210 -22 -102 -5 -206 -13 -232 -19 -26 -6 -66 -8 -87 -4 -29 5
-52 1 -87 -14 -25 -12 -55 -21 -66 -21 -10 0 -30 8 -44 17 -24 16 -30 15 -101
-2 -64 -16 -79 -17 -106 -6 -18 7 -42 15 -55 18 -16 4 -34 -3 -55 -18 -32 -24
-32 -24 -367 -28 -184 -2 -379 -3 -432 -3 -87 1 -98 -1 -103 -19 -4 -10 -14
-23 -24 -29 -13 -6 -43 -1 -105 17 l-88 27 -46 -23 c-26 -13 -73 -36 -104 -52
-31 -16 -63 -29 -71 -29 -8 0 -25 8 -38 18 -13 11 -36 22 -51 26 -17 4 -47 -2
-84 -15 -55 -21 -59 -21 -124 -5 -38 9 -84 16 -103 16 -28 0 -43 -8 -71 -37
l-34 -37 -89 2 c-48 2 -95 5 -104 7 -8 3 -37 -1 -63 -9 -26 -8 -55 -12 -64 -9
-10 3 -25 13 -34 21 -12 10 -27 12 -50 7 -18 -4 -64 -8 -103 -9 -51 -1 -78 -6
-98 -20 -27 -18 -30 -18 -63 -3 -19 10 -59 17 -88 17 -29 0 -72 -7 -96 -15
-23 -8 -55 -26 -72 -40 -16 -14 -38 -25 -49 -25 -10 0 -33 14 -51 30 -18 18
-42 30 -57 30 -14 0 -51 -7 -81 -15 -30 -8 -66 -23 -82 -35 -15 -11 -35 -20
-46 -20 -10 0 -23 5 -28 10 -6 6 -64 13 -130 15 -98 4 -125 1 -149 -12 -20
-11 -56 -17 -110 -18 -44 0 -109 -7 -145 -14 -36 -7 -84 -22 -108 -32 -34 -15
-68 -20 -154 -20 -89 -1 -117 -5 -142 -20 -18 -10 -55 -22 -82 -25 -27 -3 -71
-14 -99 -24 -27 -10 -81 -28 -120 -40 -38 -12 -81 -30 -95 -39 -14 -10 -51
-21 -83 -25 -32 -4 -82 -16 -111 -26 -29 -10 -72 -30 -94 -44 -23 -14 -53 -26
-67 -26 -13 0 -62 -11 -108 -24 -46 -13 -104 -38 -128 -55 -25 -16 -67 -35
-94 -42 -28 -6 -81 -27 -118 -47 -51 -26 -78 -49 -110 -91 -24 -31 -58 -66
-76 -78 -21 -14 -49 -23 -72 -23 -22 0 -39 -5 -39 -10 0 -6 -10 -24 -21 -40
-17 -22 -20 -36 -15 -65 4 -20 14 -51 21 -69 8 -17 17 -52 20 -77 3 -25 21
-72 41 -105 l35 -59 197 1 c108 1 211 6 227 11 17 5 73 8 125 7 52 -2 122 -6
155 -10 55 -6 71 -3 157 30 54 20 107 36 120 36 13 0 37 7 53 16 22 11 45 14
85 10 30 -3 100 1 156 8 56 8 110 18 120 23 10 6 53 14 94 18 41 4 97 7 123 7
34 -1 78 10 155 39 59 22 130 51 157 64 28 13 75 31 105 39 30 8 85 21 122 30
36 9 84 16 106 16 29 0 49 7 70 25 17 14 35 25 41 25 5 0 22 12 35 27 25 26
27 27 71 15 26 -7 51 -9 57 -6 5 3 8 17 5 31 -3 16 2 27 15 34 11 6 22 8 25 5
3 -3 15 -1 26 5 16 9 19 18 14 57 -4 35 -12 52 -33 68 -15 12 -36 21 -46 19
-10 -2 -25 -11 -34 -20 -9 -8 -25 -20 -37 -27 -12 -6 -54 -17 -94 -24 -40 -7
-80 -19 -89 -28 -8 -9 -25 -16 -37 -16 -11 0 -47 5 -79 12 -44 9 -82 9 -156 1
-65 -7 -113 -18 -143 -34 -31 -15 -74 -25 -144 -32 -55 -5 -140 -8 -190 -8
-59 1 -105 -3 -133 -13 -35 -13 -51 -13 -86 -4 -41 11 -47 9 -99 -20 -32 -18
-77 -34 -104 -37 -27 -3 -68 -10 -93 -15 -25 -5 -124 -15 -220 -21 -96 -6
-186 -10 -199 -8 -13 2 -29 12 -35 21 -8 13 -6 22 8 37 13 14 31 21 57 21 21
0 50 5 66 11 15 6 54 15 85 19 31 5 68 14 81 22 13 7 44 24 68 37 40 22 46 23
96 11 47 -12 55 -11 71 3 9 9 31 28 48 42 17 13 43 29 58 35 15 5 44 10 64 10
20 0 57 10 82 21 25 12 65 22 88 24 24 2 53 12 64 22 14 12 33 17 66 16 26 -2
73 -3 104 -3 41 -1 74 6 115 24 32 13 67 27 78 30 11 3 38 -3 59 -13 30 -14
46 -17 65 -9 15 5 49 25 78 45 51 35 53 36 120 28 37 -4 93 -8 123 -8 30 0
116 5 190 11 74 7 151 17 170 22 22 7 79 8 153 4 93 -5 126 -3 160 9 23 8 59
18 79 21 20 4 57 2 82 -5 41 -10 52 -8 126 20 45 17 92 31 105 31 12 0 42 -9
66 -20 24 -11 54 -20 65 -20 12 0 27 7 34 15 10 12 33 15 99 14 47 -1 121 2
164 6 52 5 87 3 106 -5 23 -9 36 -8 66 4 21 9 54 16 75 16 21 0 52 3 69 6 17
4 31 12 31 19 0 7 7 16 16 19 8 3 31 -1 51 -9 19 -8 47 -15 60 -15 14 0 50 7
80 16 34 10 72 14 101 10 26 -3 62 -6 80 -5 19 0 45 7 58 15 15 11 36 14 56
11 18 -3 45 -9 60 -12 18 -5 40 -1 62 9 24 11 59 16 113 15 64 -1 85 3 116 21
34 20 42 21 82 10 24 -7 49 -9 55 -5 6 4 100 9 208 11 108 3 220 4 249 4 34
-1 74 8 116 25 35 14 73 25 86 25 12 0 32 -7 44 -15 18 -12 30 -13 58 -4 18 6
91 13 161 15 70 2 139 9 153 14 15 6 47 9 73 9 26 -1 61 -4 77 -8 22 -5 38 -2
58 12 22 15 37 18 73 12 36 -5 52 -2 80 14 19 12 46 21 60 21 14 0 36 -7 49
-16 23 -15 29 -14 91 6 63 21 68 22 116 6 28 -9 57 -16 65 -16 9 0 31 9 49 21
29 18 39 19 91 10 38 -7 72 -7 98 -1 22 5 101 10 176 10 97 0 165 6 234 20 53
11 118 20 144 20 26 0 69 7 94 16 46 16 49 15 111 -11 60 -26 64 -26 101 -11
20 9 57 16 82 16 24 0 58 7 75 16 23 12 45 15 85 10 30 -3 82 -2 117 4 50 8
73 7 112 -5 27 -8 57 -15 67 -15 9 0 41 16 70 36 43 30 56 34 82 28 16 -5 55
-8 86 -7 31 0 74 6 95 14 22 7 60 11 85 10 31 -2 57 4 78 17 32 19 32 19 97
-4 36 -13 76 -24 89 -24 13 0 48 10 77 22 42 17 75 22 163 23 61 1 127 5 147
9 27 6 50 3 79 -8 22 -9 46 -13 52 -9 7 4 71 11 142 15 72 4 155 11 185 16 30
4 70 16 88 26 30 16 37 16 93 2 53 -14 64 -14 94 -2 22 9 70 15 129 15 53 0
135 5 182 11 48 6 91 13 94 15 4 2 29 -3 56 -12 50 -15 50 -15 110 15 33 16
79 35 103 42 24 6 81 15 127 20 67 7 93 6 129 -7 25 -8 56 -12 68 -8 12 3 92
11 177 16 85 5 187 13 225 18 39 5 102 15 140 22 39 7 140 13 225 14 116 1
170 6 214 20 48 14 78 16 148 11 81 -6 91 -5 116 14 24 19 34 21 102 14 41 -4
102 -7 134 -6 56 0 62 3 90 37 22 25 42 38 67 41 30 5 41 1 71 -25 20 -17 43
-31 52 -31 9 0 30 7 46 15 20 10 59 15 122 15 51 0 104 0 118 0 14 1 42 -2 63
-6 30 -5 45 -1 75 19 31 20 54 25 142 31 58 4 119 3 136 -2 22 -7 41 -5 70 6
26 11 71 17 139 17 55 1 117 5 137 9 26 6 51 3 87 -9 46 -15 54 -15 96 -1 25
9 65 16 89 16 23 0 65 7 92 16 27 8 83 20 124 25 41 5 122 13 179 19 66 6 111
6 122 0 10 -6 42 -10 71 -10 36 0 64 7 87 21 19 11 47 34 63 50 16 16 37 29
46 29 9 0 35 -11 57 -25 22 -13 50 -25 61 -25 12 0 38 7 57 15 20 8 65 15 101
15 36 0 77 5 93 11 15 6 44 15 63 20 19 5 127 12 239 14 159 4 220 9 280 25
42 11 99 26 127 34 31 9 151 18 308 25 192 8 264 15 286 26 19 10 58 15 112
15 46 0 100 -5 121 -11 32 -9 43 -7 71 10 29 18 39 19 96 10 59 -9 66 -8 93
12 25 18 38 21 85 16 37 -4 67 -1 90 9 23 9 87 15 196 18 151 5 167 7 261 39
55 19 113 37 128 41 17 4 40 1 62 -10 27 -13 55 -15 142 -10 59 3 142 9 183
14 41 5 97 19 123 31 33 15 64 22 95 20 26 -1 79 -2 118 -1 58 2 75 6 94 24
19 18 36 23 81 23 51 0 60 -3 98 -38 39 -36 45 -38 87 -31 32 5 50 2 69 -10
13 -9 35 -16 48 -16 13 0 32 9 43 21 10 12 31 27 46 35 15 8 39 14 53 14 14 0
56 9 94 19 38 11 79 24 91 31 14 7 43 9 83 5 49 -5 75 -2 121 14 38 14 84 21
128 21 55 0 75 4 95 20 14 11 36 20 49 20 12 0 30 -3 39 -6 9 -4 21 -18 26
-31 8 -23 13 -24 47 -18 20 4 62 9 92 11 30 3 91 13 135 24 44 10 98 23 121
29 22 6 105 13 185 16 79 3 162 9 184 15 22 5 57 7 78 3 28 -4 52 1 100 23 51
23 74 28 127 26 36 -1 101 -3 145 -3 44 0 131 2 193 4 62 3 118 10 125 16 8 6
42 10 78 9 43 -1 74 4 95 15 18 9 70 19 120 23 87 6 90 6 121 -20 17 -14 35
-26 40 -26 5 0 17 16 27 36 l17 36 58 -6 c46 -5 61 -3 71 9 7 8 23 15 36 15
12 0 35 -5 51 -11 15 -6 48 -11 72 -10 24 1 95 11 159 22 80 14 133 19 172 14
43 -5 65 -3 88 9 17 9 49 16 70 16 21 0 53 5 71 11 29 10 37 8 81 -19 48 -30
49 -30 66 -11 13 14 31 19 72 19 40 0 66 7 102 27 46 26 51 27 98 14 42 -10
62 -10 128 4 44 9 104 21 134 26 30 5 84 13 120 18 45 7 77 7 103 -1 31 -9 44
-8 73 5 19 9 46 17 59 17 14 0 46 5 72 11 27 6 68 20 93 30 25 10 71 25 103
35 50 15 60 15 68 3 5 -8 7 -19 5 -26 -3 -6 1 -19 8 -28 12 -17 18 -16 96 14
59 23 92 30 115 25 19 -3 60 1 96 11 49 13 122 17 309 20 135 2 272 8 305 14
33 5 86 21 118 36 34 16 76 27 98 27 21 0 54 -8 74 -18 35 -16 37 -16 88 11
41 23 65 29 122 30 38 1 100 5 137 9 44 6 77 5 99 -3 21 -7 65 -9 127 -5 84 6
99 10 126 34 17 15 48 33 68 40 32 12 42 11 75 -3 21 -8 61 -18 89 -21 30 -4
77 0 115 8 35 8 93 17 129 20 36 3 79 10 96 15 17 5 58 23 90 40 32 17 71 31
86 31 15 0 48 -11 74 -25 26 -14 55 -25 65 -25 10 0 42 9 71 21 37 14 68 19
101 16 27 -2 88 5 135 15 63 14 141 20 282 23 139 2 214 8 260 20 36 10 83 17
105 16 22 -1 92 -1 155 -1 72 1 136 7 170 16 30 9 79 27 107 42 l53 26 29 -22
c17 -12 36 -22 43 -22 6 0 50 12 96 27 68 21 88 24 103 15 10 -7 28 -17 38
-24 15 -9 22 -8 36 5 9 10 26 22 37 28 13 7 75 10 162 9 77 0 193 3 256 8 63
5 126 12 140 15 14 3 78 9 144 12 65 3 122 7 125 10 4 2 32 6 62 10 30 3 122
8 204 11 124 5 159 10 200 28 28 12 72 28 98 36 37 10 54 10 73 1 14 -6 76
-11 143 -11 109 0 119 2 151 25 19 14 44 25 55 25 12 0 44 -7 71 -16 27 -8 64
-19 83 -24 30 -8 37 -5 75 30 l42 39 114 -3 c63 -2 129 -9 146 -15 27 -10 37
-9 72 9 39 20 42 21 97 5 37 -11 77 -15 118 -12 34 3 100 10 147 16 47 5 119
14 161 19 41 5 85 14 97 21 11 6 33 11 49 11 15 0 50 -7 76 -15 43 -13 52 -13
88 2 27 10 54 14 85 9 42 -5 47 -3 80 29 19 19 40 35 47 35 7 0 25 18 40 40
17 24 37 40 50 41 12 1 30 0 41 -1 10 -1 16 2 14 7 -2 4 -12 26 -21 48 -10 22
-27 60 -40 84 -12 24 -40 57 -61 72 -24 18 -51 29 -70 29 -20 0 -42 -11 -62
-28z"/>
<path d="M33420 2977 c0 -9 4 -18 9 -22 5 -3 12 -1 15 4 3 5 -1 14 -9 21 -12
10 -15 10 -15 -3z"/>
</g>
</svg>
