<?xml version="1.0" encoding="UTF-8"?>
<svg version="1.1" xmlns="http://www.w3.org/2000/svg" width="132" height="52" >
<path d="M13.283,15.384C10.579,23.99,6.867,33.5,6.589,42.583c-0.022,0.725,1.063,1.054,1.397,0.379 c2.545-5.141,5.632-11.631,4.716-17.483c-0.236-1.512-1.803-3.387-3.521-2.883c-2.755,0.808-4.256,3.964-5.396,6.338 C1.687,33.3-2.484,44.585,1.994,48.859c4.31,4.114,10.964-0.991,14.375-4.079c0.719-0.65-0.346-1.708-1.061-1.061 c-2.726,2.468-9.557,7.947-12.655,3.484c-2.747-3.956,0.229-11.886,1.713-15.835c0.862-2.293,2.037-4.61,3.714-6.414 c3.795-4.082,2.966,5.318,2.662,6.607C9.878,35.23,8.36,38.834,6.691,42.204c0.466,0.127,0.932,0.253,1.397,0.379 c0.273-8.924,3.982-18.339,6.64-26.801C15.02,14.857,13.571,14.464,13.283,15.384L13.283,15.384z"/>
<path d="M28.32,24.795c3.503-7.237,7.225-14.429,10.387-21.823c0.369-0.863-0.814-1.626-1.295-0.757 c-3.538,6.396-6.217,13.439-9.28,20.071c-4.249,9.199-8.482,18.405-12.772,27.585c-0.404,0.864,0.847,1.626,1.295,0.758 c2.075-4.019,4.276-7.974,6.551-11.882c1.635-2.807,3.355-5.563,5.19-8.243c1.065-1.556,2.246-2.985,3.485-4.4 c1.052-1.203,3.213-3.577,2.57-0.553c-0.753,3.539-1.619,7.058-2.662,10.522c-0.723,2.398-1.571,4.784-2.818,6.962 c-2.354,4.109-4.193-1.22-4.907-3.484c-0.247-0.784-1.516-0.675-1.473,0.199c0.095,1.958,0.868,4.048,2.663,5.022 c5.279,2.868,12.928-7.115,15.451-9.992c0.635-0.724-0.422-1.789-1.061-1.061c-2.029,2.314-15.053,16.363-15.553,6.03 c-0.491,0.066-0.982,0.133-1.473,0.199c1.271,4.033,4.149,9.284,7.648,3.843c3.251-5.056,4.292-11.839,5.58-17.615 c1.81-8.118-5.49-0.877-7.498,1.845c-5.016,6.802-9.115,14.351-12.987,21.85c0.432,0.253,0.863,0.505,1.295,0.758 c4.291-9.181,8.524-18.387,12.773-27.586c3.063-6.631,5.742-13.675,9.28-20.071c-0.432-0.252-0.864-0.504-1.295-0.757 c-3.162,7.394-6.883,14.585-10.386,21.823C26.605,24.904,27.898,25.666,28.32,24.795L28.32,24.795z"/>
<path d="M52.562,28.282c0.937-3.377-1.36-7.699-5.286-5.827c-4.837,2.306-7.561,11.16-8.23,15.926 c-0.418,2.98,1.48,7.881,5.151,4.863c3.659-3.009,6.746-9.449,7.532-14.128c0.07-0.416-0.104-0.788-0.524-0.923 c-0.021-0.007-0.043-0.014-0.065-0.021c-0.256-0.082-0.542,0.013-0.729,0.193c-2.104,2.022-7.473,12.505-2.838,14.324 c4.803,1.886,11.008-7.497,12.792-10.796c1.745-3.228-0.065-6.792-2.398-2.528c-0.983,1.798-5.297,10.902-0.826,10.866 c6.353-0.052,12.921-8.165,13.401-14.001c0.417-5.058-4.648,2.57-5.047,3.367c-0.965,1.931-4.775,11.34,0.313,11.39 c4.791,0.047,8.175-7.387,9.206-11.166c0.99-3.632-0.885-5.842-4.541-4.962c-0.94,0.226-0.542,1.672,0.398,1.447 c6.719-1.616-0.548,9.947-2.195,11.654c-2.98,3.087-4.249-0.146-3.571-3.109c0.58-2.535,1.807-4.955,3.152-7.163 c0.608-0.999,0.881-1.172,0.822-1.917c0.129,1.657-1.096,3.918-1.771,5.234c-1.813,3.53-5.453,6.321-9.187,7.524 c-2.708,0.873-0.773-3.507-0.359-4.783c0.405-1.245,0.923-2.45,1.5-3.624c1.042-2.121,0.25,0.072-0.192,1.015 c-1.19,2.541-3.176,4.741-5.114,6.73c-2.117,2.173-7.167,5.961-6.305-0.338c0.375-2.739,1.918-5.76,3.639-7.929 c-0.725,0.913-0.696-1.688-1.374,0.39c-0.464,1.426-1.038,2.819-1.628,4.196c-1.064,2.483-2.332,4.951-4.086,7.021 c-4.052,4.783-3.533-3.872-2.96-5.937c0.775-2.795,2.075-5.442,3.577-7.912c0.671-1.103,1.476-2.095,2.393-2.998 c2.032-1.999,4.512,1.336,3.906,3.521C50.856,28.817,52.304,29.213,52.562,28.282L52.562,28.282z"/>
<path d="M75.192,26.704c-1.111,1.77-6.354,8.665-4.225,10.729c0.181,0.175,0.482,0.285,0.729,0.193 c2.526-0.935,3.832-6.704,4.699-9.011c0.298-0.795-1.008-1.343-1.371-0.578c-0.638,1.343-4.975,9.692-2.219,10.269 c2.931,0.612,8.326-5.319,7.698-8.19c-0.05-0.229-0.284-0.488-0.524-0.523c-2.91-0.429-4.149,6.63-2.703,8.426 c2.785,3.461,9.867-5.251,9.987-7.786c0.026-0.565-0.658-0.939-1.129-0.647c-1.635,1.015-3.249,5.516-2.894,7.385 c0.136,0.713,1.19,0.845,1.696,0.502c2.825-1.915,4.45-5.008,7.769-6.329c2.027-0.808-1.054,2.972-1.395,3.768 c-0.333,0.776-0.172,1.688,0.596,2.138c3.326,1.948,7.349-2.755,8.912-5.086c-0.457-0.061-0.914-0.12-1.371-0.18 c0.872,4.633,6.516,1.402,8.603-0.052c0.804-0.56,0.121-1.685-0.758-1.295c-2.078,0.921-3.281,2.426-3.538,4.647 c0.243-2.098-3.698,6.075-2.088,4.997c0.584-0.391,1.284-0.608,1.942-0.831c8.373-2.824,18.214-2.372,26.896-2.249 c0.968,0.014,0.967-1.486,0-1.5c-7.396-0.104-14.823,0.005-22.147,1.134c-2.471,0.381-5.463,0.822-7.601,2.254 c-0.706,0.473-1.022,1.717,0.146,1.812c4.664,0.376,4.063-7.602,7.147-8.969c-0.253-0.432-0.505-0.863-0.758-1.295 c-1.181,0.823-5.803,4.113-6.397,0.948c-0.13-0.688-1.042-0.671-1.371-0.18c-0.735,1.097-1.615,2.045-2.561,2.959 c-0.377,0.365-5.22,2.838-3.823,0.457c0.35-0.596,0.81-1.145,1.218-1.7c0.729-0.991,1.689-2.585,0.137-3.281 c-2.164-0.971-4.87,1.439-6.327,2.71c-0.538,0.47-3.717,4.309-3.101,2.431c0.234-0.716,1.069-3.431,1.825-3.899 c-0.377-0.216-0.753-0.432-1.129-0.647c-0.111,2.339-3.681,5.271-5.443,6.404c-3.821,2.456-1.494-3.788-1.273-4.256 c0.738-1.572,0.507-2.28-0.615-0.309c-0.839,1.474-5.852,7.422-4.517,2.669c0.575-2.048,1.494-4.028,2.404-5.945 c-0.457-0.193-0.914-0.386-1.371-0.578c-0.382,1.017-0.785,2.025-1.195,3.032c-0.433,1.064-0.904,2.106-1.398,3.144 c-0.439,0.925-0.209,1.186-0.273,1.636c0.419-2.909,2.86-6.107,4.405-8.567C77.003,26.64,75.705,25.888,75.192,26.704 L75.192,26.704z"/>
<path d="M44.869,7.28c1.1-1.253,4.705-0.663,6.542-1.2c1.799-0.526,3.577-1.073,5.408-1.484C69.848,1.67,83.737,1.727,97.005,1.5 c0.966-0.017,0.968-1.517,0-1.5C83.553,0.23,69.642,0.297,56.42,3.149c-1.97,0.425-3.87,1.056-5.807,1.599 c-2.104,0.59-5.229-0.324-6.805,1.472C43.173,6.943,44.23,8.009,44.869,7.28L44.869,7.28z"/>
<path d="M80.729,20.949c0.798-2.655,10.306-2.813,12.255-2.947c5.244-0.36,10.727-0.422,15.927,0.443 c1.906,0.317,4.638,1.211,2.05,2.823c-0.818,0.51-0.066,1.808,0.758,1.295c7.166-4.464-6.035-6.041-8.436-6.164 c-6.682-0.341-14.176-0.372-20.62,1.756c-1.136,0.375-2.987,1.086-3.381,2.395C79.002,21.479,80.451,21.873,80.729,20.949 L80.729,20.949z"/>
</svg>