<?xml version="1.0" encoding="UTF-8" standalone="no"?>
<!-- Created with Inkscape (http://www.inkscape.org/) -->

<svg
   xmlns:dc="http://purl.org/dc/elements/1.1/"
   xmlns:cc="http://creativecommons.org/ns#"
   xmlns:rdf="http://www.w3.org/1999/02/22-rdf-syntax-ns#"
   xmlns:svg="http://www.w3.org/2000/svg"
   xmlns="http://www.w3.org/2000/svg"
   xmlns:sodipodi="http://sodipodi.sourceforge.net/DTD/sodipodi-0.dtd"
   xmlns:inkscape="http://www.inkscape.org/namespaces/inkscape"
   id="svg2"
   version="1.1"
   inkscape:version="0.91 r13725"
   width="383"
   height="210"
   viewBox="0 0 383 210"
   sodipodi:docname="sergey yashin2.svg">
  <metadata
     id="metadata8">
    <rdf:RDF>
      <cc:Work
         rdf:about="">
        <dc:format>image/svg+xml</dc:format>
        <dc:type
           rdf:resource="http://purl.org/dc/dcmitype/StillImage" />
        <dc:title></dc:title>
      </cc:Work>
    </rdf:RDF>
  </metadata>
  <defs
     id="defs6" />
  <sodipodi:namedview
     pagecolor="#ffffff"
     bordercolor="#666666"
     borderopacity="1"
     objecttolerance="10"
     gridtolerance="10"
     guidetolerance="10"
     inkscape:pageopacity="0"
     inkscape:pageshadow="2"
     inkscape:window-width="1366"
     inkscape:window-height="705"
     id="namedview4"
     showgrid="false"
     inkscape:zoom="2.552381"
     inkscape:cx="166.22406"
     inkscape:cy="118.19828"
     inkscape:window-x="-8"
     inkscape:window-y="-8"
     inkscape:window-maximized="1"
     inkscape:current-layer="svg2" />
  <path
     style="fill:#000000;fill-opacity:1"
     d="m 149.16016,7.9316406 c -5.4234,-0.099772 -10.39963,2.2888054 -13.15821,8.5312504 -5.2116,12.467617 -2.18672,25.708255 0.0117,38.412109 6.33904,21.982496 8.1252,44.976596 15.21875,66.77344 7.29951,20.12737 17.70446,40.73004 35.36719,53.66601 2.43765,1.24222 4.86896,2.74313 7.58984,3.27539 11.09132,-2.52619 23.00098,-9.66699 24.08789,-21.94336 9.31325,9.14998 26.15319,7.58791 26.86133,-8.67773 2.81373,-10.61842 9.10393,-2.4351 15.53125,-4.16992 14.1556,-3.85182 9.98435,-24.78888 18.125,-29.97266 10.81176,12.10308 20.78839,-8.5196 21.27344,-18.564451 -1.43569,-13.788815 9.18256,-4.355185 16.1543,-8.646485 7.25841,-13.739575 15.13472,7.239786 23.79101,10.371094 13.5421,5.174492 -4.12354,-10.671295 -7.43555,-13.947266 -11.20126,-9.858486 -0.42819,-24.235438 -3.03906,-36.472656 -1.95203,-8.175714 -1.5565,-26.241418 -12.64648,-25.560547 -3.4877,3.232311 -0.25512,12.607026 -1.16797,17.970703 -0.99756,13.446785 4.87879,26.921861 1.61133,39.962891 -6.11836,12.60355 -14.21354,-8.097784 -17.60788,-6.323793 -5.93984,3.660774 -1.04433,18.121123 -5.20658,26.931215 -0.75349,13.793935 -13.63178,11.717605 -16.29611,0.627835 -2.66432,-11.089764 -0.48052,-32.4364 -8.4509,-29.010222 -3.59035,2.791362 3.70776,26.132308 1.94819,40.007392 0.31802,11.23693 -11.48904,37.33774 -22.30274,19.29296 -4.00233,-12.67687 -2.24797,-26.96968 -8.42969,-39.197262 -11.24204,-9.060398 -4.35628,13.554392 -3.79882,19.693362 1.16615,12.75561 8.68147,25.69341 2.30078,38.20703 -6.16054,17.60447 -21.04395,-1.14632 -21.82227,-11.62891 -4.52333,-9.99125 -0.90147,-25.37154 -12.53847,-30.64062 C 204.22256,95.376172 201.24072,83.948831 198.57031,72.78125 193.45675,53.407757 183.76768,34.879357 170.25586,20.060547 165.9651,13.539244 157.08665,8.0774608 149.16016,7.9316406 Z m -1.1836,5.8066404 c 1.16136,-0.06628 2.42593,0.0641 3.79688,0.419922 12.61676,3.674294 20.64838,15.263174 27.84961,25.607422 11.84496,17.227774 17.04709,37.757102 20.41992,58.113281 1.34453,21.598734 2.16412,43.519444 -0.51172,65.019534 -0.81153,2.04325 -1.87779,4.17304 -3.78711,5.40625 -12.6551,3.49771 -21.13007,-17.07827 -16.90625,-26.72852 5.75205,-10.97493 -13.03743,-4.02108 -6.93945,4.82813 -5.53407,-2.27456 -8.86328,-15.48922 -11.89649,-22.58008 -10.6868,-26.087445 -15.56428,-53.907103 -21.30273,-81.357423 -3.60508,-9.174994 -1.94915,-28.087855 9.27734,-28.728516 z m -79.236326,6.525391 c -9.855814,-0.108146 -19.228185,5.99408 -23.162109,20.65039 -7.008522,17.780191 -5.484535,37.044783 -3.966797,55.640626 3.434766,22.636792 6.961288,45.747542 17.400391,66.427732 6.744615,14.02311 23.734819,27.96933 39.730469,20.06446 9.282282,-12.40712 11.287112,4.48376 17.316402,10.29101 2.09723,2.16265 4.03321,5.63496 7.30469,5.9707 9.56795,-9.06251 -10.09572,-16.72905 -10.01562,-27.93359 -2.09053,-14.92144 -0.67348,-31.01484 -8.14844,-44.72266 -5.796702,-10.61256 -15.38517,-3.52831 -9.451173,6.44336 1.553766,11.49956 2.272481,23.07943 7.332033,33.76172 -0.40642,16.236 -17.772599,19.66574 -30.439455,5.19531 C 59.973769,157.5823 54.658411,130.07711 49.472656,108.11328 44.286901,86.149446 45.319973,61.588441 50.302734,43.691173 55.285495,25.793905 68.179388,20.506658 79.714844,27.728516 89.240093,34.559986 91.290237,43.74817 94.046875,55.523438 96.803514,67.298707 104.24332,53.676224 98.619141,46.503906 94.881823,30.808229 81.411996,20.402716 68.740234,20.263672 Z M 320.79507,34.685375 c 0.96294,-0.220144 2.86288,11.985402 2.57602,16.033375 l 0.12696,1.693359 c 0.868,11.857877 -4.21873,-0.08455 -3.00977,-4.958984 -0.34351,-4.100868 -0.19762,-12.652436 0.30679,-12.76775 z M 204.94514,132.22423 c 9.18304,6.12199 7.81779,23.8771 -1.83101,30.95682 1.41647,-10.42004 2.19978,-21.35826 1.83101,-30.95682 z m -102.49202,3.53163 c 0,0 6.4944,33.59951 3.33008,22.91992 -3.13432,-10.57835 -3.33008,-22.91992 -3.33008,-22.91992 z m 39.32032,26.49805 c -3.19169,-0.10584 -7.45404,2.38238 -5.19727,7.03125 1.73549,1.37631 4.19576,0.42919 5.93164,-0.39649 4.06499,-4.4287 2.08183,-6.54138 -0.73437,-6.63476 z"
     id="path3362"
     inkscape:connector-curvature="0"
     sodipodi:nodetypes="sccccccccccccccccccczccccccccccsscccccccccsscccccccccczzzcscsscccsccccscsccs" />
</svg>
