<?xml version="1.0" encoding="UTF-8" standalone="no"?>
<!-- Created with Inkscape (http://www.inkscape.org/) -->

<svg
   xmlns:dc="http://purl.org/dc/elements/1.1/"
   xmlns:cc="http://creativecommons.org/ns#"
   xmlns:rdf="http://www.w3.org/1999/02/22-rdf-syntax-ns#"
   xmlns:svg="http://www.w3.org/2000/svg"
   xmlns="http://www.w3.org/2000/svg"
   xmlns:sodipodi="http://sodipodi.sourceforge.net/DTD/sodipodi-0.dtd"
   xmlns:inkscape="http://www.inkscape.org/namespaces/inkscape"
   id="svg3348"
   version="1.1"
   inkscape:version="0.91 r13725"
   width="420"
   height="322"
   viewBox="0 0 420 322"
   sodipodi:docname="sergey mylnikov2.svg">
  <metadata
     id="metadata3354">
    <rdf:RDF>
      <cc:Work
         rdf:about="">
        <dc:format>image/svg+xml</dc:format>
        <dc:type
           rdf:resource="http://purl.org/dc/dcmitype/StillImage" />
        <dc:title></dc:title>
      </cc:Work>
    </rdf:RDF>
  </metadata>
  <defs
     id="defs3352" />
  <sodipodi:namedview
     pagecolor="#ffffff"
     bordercolor="#666666"
     borderopacity="1"
     objecttolerance="10"
     gridtolerance="10"
     guidetolerance="10"
     inkscape:pageopacity="0"
     inkscape:pageshadow="2"
     inkscape:window-width="1366"
     inkscape:window-height="705"
     id="namedview3350"
     showgrid="false"
     inkscape:zoom="1.6645963"
     inkscape:cx="183.09882"
     inkscape:cy="124.30336"
     inkscape:window-x="-8"
     inkscape:window-y="-8"
     inkscape:window-maximized="1"
     inkscape:current-layer="svg3348" />
  <path
     style="fill:#000000"
     d="M 100.5,297 C 86.358844,297.16696 77.196901,285.3171 73.84665,272.56541 62.067985,228.28581 65.500561,150.8465 102.93463,122.27503 c 5.061,-3.55715 6.74543,-4.17198 11.47942,-5.94735 1.10063,-9.43033 2.66795,-19.025679 3.87323,-26.707683 1.20528,-7.682004 4.52137,-32.399268 11.33257,-19.013918 -2.58362,14.894093 -5.91178,30.814571 -7.10146,45.872281 8.89782,10.24148 12.06945,26.11127 10.30457,41.60871 -1.76488,15.49744 -3.07023,45.6221 -8.07737,46.15089 -15.21445,1.6718 -10.25057,-23.75214 -12.77519,-34.4255 -0.59414,-14.57264 -0.54027,-29.20036 0.92248,-43.71123 -8.97842,1.83043 -11.04099,7.47335 -19.474379,18.51102 -8.433387,11.03767 -29.794283,106.66741 -1.593505,139.97525 35.128724,24.51978 67.676974,-72.96689 79.221444,-66.15713 4.59139,2.6818 -11.47154,28.30158 -19.69458,39.97046 C 142.11158,272.39106 117.26815,301.54477 100.5,297 Z m 23.38865,-118.25 c 4.19553,-13.52177 5.02932,-39.55398 -3.55376,-53.11249 -0.7215,1.30809 -1.04789,18.04875 -1.03889,20.57835 0.0261,7.33433 0.18657,14.08331 -0.006,20.35275 -0.19304,6.26943 0.98458,28.42811 4.59912,12.18139 z m 113.14118,78.80574 C 233.65609,245.43525 245.52634,236.57756 247,225 c 15.45137,-39.82536 33.32982,-85.55503 42.81396,-122.9125 2.61505,-8.513718 10.94979,-23.706799 7.10953,-29.3375 -8.44269,12.06716 -19.21034,33.22724 -28.5959,36.66177 -9.38556,3.43453 -5.51262,-0.39915 -11.05454,-1.31209 -9.41823,7.33488 -10.84485,20.84179 -17.94943,30.49471 -4.38449,7.49462 -15.72148,23.67712 -24.33978,16.06655 -8.59253,-4.10417 -5.33431,-16.29947 -6.16337,-24.37771 -0.90915,-0.6213 -4.2982,16.86574 -6.40684,22.11219 -4.6926,10.99233 -9.574,23.42052 -15.56019,34.32356 -0.55942,8.31089 -17.91938,22.29039 -11.99505,5.73029 3.96054,-9.6065 8.78349,-18.93772 12.36353,-27.86177 6.57439,-11.46765 9.01725,-25.31762 13.70997,-37.81859 2.83291,-7.89798 4.61214,-25.82518 14.62644,-23.1361 9.59217,7.98559 -0.63012,28.01686 6.02598,39.56321 6.99283,6.23416 14.44608,-14.70899 18.04638,-20.39918 6.0084,-9.42282 9.07823,-30.139949 23.38259,-27.616849 10.51841,9.474269 17.03692,-14.535378 24.48528,-20.555494 9.14566,-12.458648 18.76666,-24.88132 25.52861,-38.751194 3.32314,-9.372909 15.08713,-35.31230763 17.83752,-16.133296 -5.85846,20.189525 -17.25523,39.018712 -22.00005,57.844368 -14.02938,55.413385 -39.02478,109.954295 -52.262,159.695875 -1.87709,8.24648 -8.05921,29.71429 -19.57281,20.27549 z m 69.69845,-143.8325 C 302.48017,98.407759 326.22299,95.536735 336.2479,88.603092 346.27281,81.669449 358.47958,75.744152 367.44098,70 c 13.45487,-7.385892 9.93912,9.847734 -1.14423,12.666365 -11.08335,2.818631 -18.92511,13.349797 -29.02879,19.921135 -7.41065,4.0597 -23.57357,17.40499 -30.53968,11.13574 z"
     id="path3358"
     inkscape:connector-curvature="0"
     sodipodi:nodetypes="cccczcczccczccccccszcccccczcccccccccccccccccccczczcc" />
</svg>
