<?xml version="1.0" standalone="no"?>
<!DOCTYPE svg PUBLIC "-//W3C//DTD SVG 20010904//EN"
 "http://www.w3.org/TR/2001/REC-SVG-20010904/DTD/svg10.dtd">
<svg version="1.0" xmlns="http://www.w3.org/2000/svg"
 width="468pt" height="141pt" viewBox="0 0 468 141"
 preserveAspectRatio="xMidYMid meet">
<metadata>
Created by POTRACE VERSION, written by Peter Selinger 2001-2007
</metadata>
<g transform="translate(0,141) scale(0.013047,-0.013047)"
fill="#000000" stroke="none">
<path d="M6442 10760 c-35 -39 -42 -42 -130 -56 -51 -8 -104 -19 -119 -25 -15
-5 -42 -26 -60 -45 -19 -18 -39 -34 -46 -34 -7 0 -29 -5 -50 -11 -21 -6 -56
-26 -77 -45 -21 -19 -59 -42 -84 -50 -31 -11 -52 -26 -66 -49 -13 -21 -36 -39
-63 -50 -23 -9 -60 -33 -82 -54 -22 -21 -60 -49 -85 -63 -25 -14 -54 -36 -65
-48 -11 -12 -40 -32 -65 -45 -25 -13 -53 -37 -63 -54 -10 -17 -31 -38 -48 -46
-16 -9 -40 -33 -54 -55 -13 -21 -38 -46 -54 -56 -16 -10 -38 -33 -48 -52 -11
-21 -34 -41 -60 -54 -23 -11 -45 -28 -48 -38 -3 -10 -25 -34 -49 -54 -24 -19
-49 -48 -55 -64 -8 -18 -27 -36 -50 -47 -21 -9 -45 -30 -55 -46 -10 -16 -35
-41 -56 -54 -22 -14 -47 -39 -56 -57 -9 -18 -28 -41 -41 -51 -13 -11 -36 -38
-50 -61 -15 -22 -47 -65 -71 -93 -25 -29 -53 -55 -62 -58 -9 -3 -49 -36 -89
-75 -40 -38 -81 -86 -92 -106 -10 -21 -35 -51 -54 -67 -20 -16 -46 -50 -59
-76 -13 -25 -36 -57 -50 -70 -14 -14 -31 -42 -36 -63 -8 -30 -19 -42 -50 -58
-23 -12 -47 -34 -57 -54 -10 -19 -59 -79 -109 -133 -50 -54 -100 -116 -112
-138 -11 -22 -32 -51 -47 -65 -15 -14 -35 -42 -46 -62 -10 -20 -32 -45 -48
-54 -16 -10 -37 -35 -47 -56 -9 -21 -31 -47 -48 -57 -17 -11 -39 -34 -50 -51
-10 -19 -35 -39 -60 -50 -23 -9 -54 -33 -69 -53 -21 -27 -38 -37 -79 -47 -29
-6 -61 -14 -71 -17 -11 -3 -25 -20 -33 -39 -11 -26 -22 -35 -51 -43 -21 -5
-52 -12 -69 -16 -17 -3 -48 -23 -69 -45 -21 -22 -50 -42 -65 -45 -15 -3 -37
-15 -48 -25 -11 -11 -25 -27 -29 -35 -5 -9 -45 -29 -89 -45 -50 -19 -86 -39
-97 -55 -11 -14 -36 -29 -60 -35 -23 -6 -60 -17 -82 -25 -25 -9 -48 -27 -58
-44 -14 -24 -28 -32 -75 -41 -31 -6 -67 -14 -80 -17 -12 -3 -34 -20 -48 -38
-14 -18 -37 -38 -52 -44 -15 -5 -53 -17 -85 -25 -34 -8 -71 -26 -91 -44 -19
-17 -49 -33 -68 -37 -18 -3 -46 -9 -62 -12 -16 -3 -47 -24 -70 -47 -33 -33
-52 -44 -96 -53 -30 -6 -72 -14 -92 -18 -28 -4 -42 -13 -53 -34 -8 -16 -22
-32 -32 -35 -10 -4 -56 -12 -103 -17 -63 -7 -90 -15 -107 -31 -12 -12 -25 -29
-28 -39 -3 -10 -16 -21 -28 -25 -12 -4 -42 -6 -66 -5 -25 1 -59 -4 -77 -9 -20
-7 -41 -25 -52 -45 -13 -21 -30 -35 -49 -38 -15 -3 -80 -11 -143 -17 -63 -6
-133 -13 -156 -16 -23 -3 -64 -20 -95 -39 -36 -24 -65 -35 -90 -35 -22 0 -42
7 -52 18 -8 9 -18 34 -22 54 -5 23 -1 54 8 85 10 31 17 100 19 198 l3 150
-106 0 c-105 0 -106 0 -142 -32 -21 -18 -51 -40 -67 -48 -21 -11 -42 -39 -70
-95 -22 -43 -46 -105 -54 -137 -9 -32 -18 -84 -21 -115 -5 -46 -13 -66 -41
-99 -19 -22 -34 -42 -35 -42 0 -1 -5 -74 -12 -162 -6 -88 -11 -266 -10 -395 0
-129 5 -279 10 -334 10 -94 12 -100 45 -130 33 -31 35 -35 42 -126 4 -52 11
-123 15 -157 6 -54 12 -68 43 -100 21 -22 39 -53 43 -73 3 -19 13 -56 21 -81
8 -25 28 -59 45 -75 18 -17 36 -50 45 -82 9 -29 29 -69 45 -87 17 -19 51 -44
76 -56 45 -22 46 -22 121 -4 60 14 84 25 116 56 26 23 59 42 89 50 34 8 59 24
89 55 23 24 57 49 75 55 23 7 39 22 53 49 13 26 30 41 52 49 18 6 52 33 74 59
l42 47 89 0 c82 0 92 -2 126 -27 19 -16 48 -28 63 -28 15 0 42 13 63 31 20 17
60 46 88 65 29 19 60 34 68 34 9 0 34 -14 55 -31 38 -31 40 -31 87 -20 26 7
71 26 99 42 37 21 65 29 100 29 26 0 134 7 239 16 172 14 198 19 277 50 48 19
123 39 165 44 43 6 97 13 120 16 23 3 56 16 75 29 18 14 47 31 63 39 17 8 62
17 100 21 39 4 81 13 95 20 14 7 35 25 47 38 12 14 37 28 55 31 18 3 78 11
133 18 95 12 101 14 120 45 11 17 29 36 40 41 11 5 55 17 98 27 55 13 80 16
88 8 6 -6 15 -28 20 -49 4 -22 9 -62 9 -91 0 -28 3 -58 6 -67 3 -9 32 -23 63
-32 31 -9 81 -32 111 -50 52 -32 64 -35 191 -45 131 -11 140 -10 252 15 64 14
124 26 134 26 9 0 35 12 57 28 35 24 49 27 130 29 50 0 153 5 228 11 89 6 144
14 155 23 10 8 26 24 36 36 10 12 52 33 100 49 45 15 100 40 121 55 22 16 45
29 51 29 6 0 35 7 63 15 29 9 67 29 86 45 18 16 44 34 59 39 14 5 60 17 103
26 65 13 85 22 120 55 23 21 60 43 81 49 21 6 52 24 68 41 16 16 35 30 42 30
7 0 13 -6 13 -13 0 -7 -9 -40 -21 -72 -11 -33 -32 -77 -46 -98 l-26 -38 17
-55 c10 -31 29 -65 43 -77 14 -12 36 -43 49 -70 21 -40 34 -52 89 -79 60 -30
67 -31 98 -19 17 7 44 16 59 18 15 3 38 3 51 -1 13 -3 41 -20 63 -37 35 -27
43 -30 84 -24 24 4 63 17 85 30 30 17 63 24 133 29 51 4 118 11 150 17 33 6
81 25 113 44 44 27 77 38 155 50 55 9 117 21 139 26 22 6 70 24 107 40 40 18
109 36 174 46 99 15 110 19 151 55 35 30 52 38 83 38 21 0 47 -8 59 -17 15
-13 30 -52 51 -141 17 -68 30 -133 30 -144 0 -12 -12 -45 -27 -75 -14 -30 -37
-62 -51 -71 -13 -8 -35 -33 -48 -54 -13 -21 -42 -49 -64 -63 -22 -14 -46 -38
-54 -54 -8 -15 -29 -34 -46 -41 -17 -7 -44 -30 -61 -52 -17 -21 -48 -47 -68
-58 -20 -10 -52 -35 -71 -55 -19 -20 -52 -45 -72 -56 -20 -10 -49 -35 -64 -54
-16 -22 -41 -39 -66 -47 -22 -6 -51 -26 -66 -43 -15 -18 -38 -38 -52 -45 -14
-7 -47 -32 -75 -55 -27 -23 -66 -50 -85 -60 -19 -9 -53 -36 -75 -60 -29 -30
-51 -44 -80 -49 -33 -6 -52 -21 -104 -78 -44 -48 -80 -77 -117 -93 -28 -13
-62 -37 -75 -55 -13 -17 -45 -44 -72 -61 -35 -21 -53 -41 -66 -73 -12 -27 -32
-51 -55 -66 -20 -12 -45 -39 -56 -59 -10 -21 -34 -50 -54 -64 -19 -15 -46 -51
-61 -81 -20 -41 -27 -72 -28 -120 -2 -59 1 -68 26 -93 25 -26 34 -28 120 -31
87 -4 99 -1 185 32 92 35 92 35 136 19 l45 -17 43 30 c24 17 58 36 76 44 18 7
49 26 69 41 26 21 47 29 77 29 22 0 79 9 126 21 74 19 90 27 126 64 28 31 55
48 94 59 29 9 59 16 65 16 6 0 27 11 46 25 19 14 57 33 85 41 28 8 58 22 67
32 8 9 22 32 31 50 16 31 18 32 81 32 35 0 75 4 88 9 16 6 29 23 36 44 7 19
22 39 35 45 13 6 41 14 61 18 22 4 51 21 76 45 22 21 58 43 79 49 26 7 49 23
66 46 15 19 39 41 53 49 14 7 44 31 66 52 34 33 51 42 107 52 38 8 81 23 99
37 18 13 42 24 53 24 12 0 44 -9 73 -20 35 -13 106 -24 225 -34 147 -12 184
-12 248 -1 41 8 95 14 120 14 25 1 61 5 79 11 19 5 46 21 60 34 14 14 38 29
54 35 15 6 80 16 145 22 94 8 130 17 182 41 49 22 89 32 163 39 53 5 120 18
147 29 27 11 74 34 105 51 50 28 67 32 168 38 61 4 123 13 137 20 14 8 39 26
55 42 22 20 53 33 113 47 65 16 91 27 116 52 28 26 47 33 117 45 46 8 94 17
105 20 12 3 40 20 62 39 35 29 53 35 124 45 46 6 103 14 127 18 27 3 55 16 75
34 18 15 58 37 89 49 31 12 78 36 104 54 27 17 67 37 89 44 23 7 65 17 94 22
29 6 69 22 88 36 19 15 61 35 93 45 32 10 89 34 126 53 37 20 93 47 123 60 30
14 71 39 90 56 25 21 53 33 95 40 33 6 70 13 82 15 13 3 38 19 57 35 18 17 52
37 75 45 23 8 66 34 96 59 35 28 79 52 122 66 38 12 88 34 113 48 25 15 61 34
81 43 19 9 50 35 68 57 22 28 45 45 71 52 21 6 45 7 54 4 9 -3 16 -15 16 -25
0 -12 -15 -26 -40 -39 -25 -13 -47 -34 -59 -58 -10 -20 -32 -45 -48 -54 -16
-9 -35 -29 -43 -43 -9 -17 -38 -37 -80 -56 -36 -17 -81 -45 -100 -63 -19 -18
-48 -41 -65 -50 -16 -10 -48 -36 -70 -58 -22 -21 -63 -61 -92 -88 -29 -27 -61
-51 -71 -54 -10 -4 -26 -22 -35 -42 -10 -19 -32 -43 -49 -52 -18 -9 -51 -35
-73 -58 -22 -22 -52 -48 -67 -57 -15 -10 -30 -28 -34 -42 -3 -14 -4 -35 0 -48
3 -13 22 -44 43 -71 20 -26 49 -54 64 -62 16 -8 49 -14 74 -14 42 0 49 4 106
63 34 34 68 73 77 86 9 12 33 34 55 48 21 13 45 39 52 57 8 18 38 50 70 74 31
23 73 51 94 61 21 11 87 67 146 125 85 82 120 109 157 122 26 8 57 13 68 9 11
-4 26 -18 34 -33 7 -15 16 -44 20 -66 4 -21 16 -50 27 -65 10 -14 30 -73 44
-130 14 -58 31 -111 37 -118 6 -7 22 -19 36 -26 15 -6 39 -31 55 -55 16 -24
39 -47 51 -52 11 -4 37 -24 55 -44 19 -20 45 -36 57 -36 12 0 38 13 58 29 20
16 49 32 64 35 15 2 53 8 84 11 37 4 69 15 90 30 18 14 43 32 56 41 15 11 65
21 159 30 87 9 145 19 160 29 13 9 26 22 29 30 3 8 38 34 77 58 40 25 102 58
138 75 58 26 68 35 79 67 7 20 22 40 33 45 12 5 42 14 66 20 31 8 55 25 88 60
25 27 55 52 67 56 11 3 37 21 56 39 19 18 48 39 65 46 16 8 39 31 50 52 11 21
29 44 40 50 11 6 71 62 133 125 81 81 118 126 128 156 8 22 32 59 53 81 21 22
44 51 51 64 7 14 16 55 20 93 6 55 13 74 38 102 16 19 37 57 46 84 9 27 25 57
34 65 10 9 34 23 55 32 20 8 64 15 99 15 35 -1 81 -7 103 -15 22 -8 50 -15 61
-15 12 0 39 8 60 17 33 14 101 18 439 25 220 5 436 10 480 11 44 2 105 7 136
11 38 6 68 4 93 -4 26 -8 36 -17 36 -32 0 -12 -29 -49 -70 -89 -38 -38 -73
-69 -78 -69 -5 0 -17 -20 -27 -45 -11 -30 -27 -51 -45 -60 -16 -8 -41 -31 -56
-50 -16 -22 -41 -39 -65 -47 -27 -7 -45 -22 -58 -44 -13 -21 -40 -43 -78 -62
-32 -16 -75 -35 -95 -41 -24 -8 -52 -31 -83 -69 -45 -54 -47 -59 -43 -109 3
-33 12 -61 24 -74 10 -12 37 -30 59 -40 22 -10 57 -19 79 -19 21 0 66 7 99 16
35 9 83 31 112 52 27 20 53 41 58 47 4 5 12 27 17 47 7 23 23 45 43 59 17 13
36 29 41 37 4 8 16 22 26 32 10 10 42 25 72 34 33 9 65 27 83 46 16 17 51 45
78 62 38 24 55 45 82 97 21 42 43 71 59 79 16 7 29 25 37 52 7 23 24 49 37 58
13 10 32 24 41 33 11 9 23 46 31 91 7 42 11 104 8 139 -3 48 -9 66 -26 79 -12
10 -45 21 -75 24 -29 4 -192 4 -362 1 -170 -4 -329 -11 -355 -16 -25 -6 -148
-15 -275 -20 -126 -5 -257 -12 -290 -14 -33 -2 -80 -8 -105 -12 -25 -5 -67 -6
-94 -3 -27 4 -79 1 -115 -6 -36 -8 -84 -13 -106 -14 -22 0 -50 7 -62 15 -13 9
-29 39 -38 67 -8 28 -15 68 -15 87 0 20 -9 60 -20 89 -15 40 -23 96 -31 235
-6 100 -11 205 -12 232 -1 34 4 60 16 78 9 15 44 40 77 57 33 16 69 43 81 60
12 16 42 38 65 50 24 11 51 32 61 47 10 16 22 31 28 36 5 4 29 12 53 18 26 7
66 32 105 65 34 30 80 71 102 93 22 21 57 46 77 54 26 11 43 27 55 54 16 33
26 41 74 56 47 15 72 32 143 102 47 46 103 93 125 105 22 11 48 33 58 50 10
18 37 39 64 51 25 12 64 42 86 68 22 25 45 57 52 70 8 14 11 40 8 63 -3 22
-13 48 -23 59 -11 13 -30 19 -58 19 -23 0 -88 -14 -145 -30 -57 -17 -110 -30
-117 -30 -8 0 -31 -16 -53 -35 -21 -19 -59 -44 -85 -56 -25 -11 -54 -31 -63
-45 -9 -14 -41 -37 -71 -50 -31 -13 -77 -45 -103 -69 -27 -25 -54 -45 -62 -45
-7 0 -31 -20 -53 -44 -30 -34 -49 -45 -82 -51 -36 -6 -46 -13 -59 -40 -12 -26
-32 -42 -78 -64 -35 -16 -72 -42 -83 -58 -12 -16 -39 -38 -61 -48 -24 -10 -49
-32 -60 -51 -13 -21 -35 -40 -61 -50 -22 -9 -50 -29 -61 -45 -11 -16 -38 -38
-59 -49 -22 -11 -45 -20 -53 -20 -8 0 -21 8 -29 18 -8 9 -20 36 -26 59 -8 26
-20 44 -32 48 -12 4 -27 16 -34 28 -7 12 -19 49 -26 81 -11 55 -18 65 -84 128
-39 37 -91 88 -116 112 -25 24 -61 52 -80 61 -19 10 -46 28 -60 41 -14 12 -41
29 -60 37 -19 8 -67 20 -106 27 -60 11 -99 10 -240 -4 -93 -9 -188 -18 -211
-20 -32 -3 -53 -13 -82 -39 -23 -20 -54 -38 -73 -41 -18 -3 -51 -7 -73 -10
-30 -4 -48 -15 -75 -45 -19 -21 -51 -44 -70 -50 -23 -7 -54 -32 -87 -70 -45
-50 -55 -69 -69 -131 -14 -62 -22 -79 -55 -109 -34 -31 -41 -45 -51 -101 -7
-36 -12 -159 -12 -275 0 -115 3 -232 8 -259 6 -37 17 -59 50 -95 24 -25 51
-61 60 -79 9 -17 33 -43 54 -56 20 -13 44 -31 52 -41 8 -10 58 -46 112 -81 54
-35 115 -68 136 -73 20 -6 46 -17 57 -25 16 -12 18 -19 9 -33 -6 -10 -28 -26
-50 -36 -21 -11 -52 -31 -69 -47 -16 -15 -40 -31 -53 -35 -12 -3 -37 -25 -55
-47 -17 -22 -45 -47 -62 -55 -16 -8 -49 -34 -73 -57 -24 -23 -63 -48 -90 -57
-38 -12 -51 -23 -65 -53 -9 -20 -27 -41 -40 -46 -12 -5 -43 -12 -69 -15 -37
-5 -53 -13 -74 -38 -14 -18 -33 -36 -40 -40 -8 -4 -40 -12 -72 -17 -31 -6 -68
-14 -82 -20 -14 -6 -37 -31 -52 -56 l-27 -44 -70 6 c-66 6 -69 6 -76 -17 -4
-13 -14 -32 -23 -42 -8 -9 -33 -20 -55 -24 -22 -3 -47 -14 -56 -24 -9 -9 -24
-28 -33 -42 -10 -14 -37 -32 -60 -40 -24 -9 -55 -18 -69 -21 -17 -4 -35 -19
-47 -40 -18 -30 -27 -35 -69 -41 -26 -3 -64 -10 -83 -16 -22 -6 -42 -21 -55
-42 -17 -27 -28 -33 -75 -40 -30 -4 -72 -13 -94 -18 -22 -6 -54 -27 -76 -49
-29 -30 -50 -41 -95 -50 -44 -9 -68 -21 -102 -53 -37 -34 -55 -42 -115 -54
-60 -11 -77 -19 -103 -47 -21 -24 -44 -36 -71 -41 -21 -3 -61 -11 -87 -17 -28
-6 -64 -24 -87 -43 -31 -26 -56 -36 -130 -50 -75 -15 -101 -25 -142 -56 -36
-27 -65 -39 -102 -44 -28 -4 -71 -13 -95 -21 -25 -7 -54 -25 -66 -40 -19 -24
-34 -29 -139 -45 -115 -17 -118 -18 -154 -57 -34 -36 -42 -40 -104 -45 -37 -3
-82 -14 -100 -23 -18 -9 -43 -25 -56 -35 -13 -10 -67 -27 -120 -39 -62 -14
-117 -33 -152 -54 -30 -19 -67 -36 -82 -40 -15 -3 -73 -11 -130 -17 -86 -8
-111 -15 -148 -39 -25 -16 -58 -33 -73 -39 -16 -6 -88 -18 -160 -26 -114 -13
-141 -20 -198 -49 -44 -22 -92 -38 -140 -45 -41 -6 -137 -15 -213 -21 -121 -9
-145 -9 -188 6 -35 11 -52 23 -59 41 -5 13 -9 38 -9 54 0 17 4 39 10 49 6 11
26 21 52 25 24 3 51 9 61 11 9 3 26 22 36 42 10 20 38 58 61 84 26 30 65 59
105 78 34 16 66 37 69 46 3 9 6 23 6 32 0 9 5 34 11 55 9 33 18 41 64 61 33
15 56 32 60 45 3 12 24 42 46 67 29 34 39 54 39 81 0 27 -8 43 -35 70 -31 31
-37 33 -57 22 -13 -7 -68 -20 -123 -30 -94 -17 -102 -21 -135 -57 -19 -21 -47
-44 -62 -50 -15 -6 -38 -27 -50 -47 -16 -25 -37 -39 -70 -50 -26 -9 -64 -32
-85 -52 -21 -19 -56 -44 -79 -54 -30 -14 -46 -29 -59 -60 -12 -25 -34 -51 -57
-65 -21 -13 -47 -41 -57 -63 -11 -21 -38 -53 -60 -70 -33 -26 -41 -40 -47 -79
-5 -35 -16 -56 -42 -82 -19 -19 -42 -45 -50 -58 -9 -14 -35 -33 -59 -43 -31
-13 -46 -27 -57 -53 -10 -25 -23 -37 -43 -42 -15 -4 -44 -15 -63 -25 -19 -10
-47 -31 -62 -46 -14 -16 -45 -35 -69 -43 -29 -10 -48 -24 -61 -47 -12 -19 -32
-36 -51 -42 -18 -5 -47 -13 -65 -16 -23 -5 -40 -18 -59 -46 -21 -32 -36 -42
-82 -55 -40 -12 -66 -27 -92 -55 -20 -21 -43 -39 -50 -39 -8 0 -31 -5 -53 -11
-21 -6 -53 -26 -70 -44 -26 -28 -44 -37 -105 -49 -64 -13 -81 -22 -115 -55
-32 -31 -57 -44 -115 -60 -44 -12 -85 -31 -100 -45 -14 -14 -37 -29 -51 -34
-14 -5 -59 -15 -100 -22 -65 -11 -79 -17 -112 -51 -22 -22 -52 -41 -71 -44
-18 -4 -51 -5 -72 -3 -33 2 -40 7 -40 24 0 16 19 35 64 65 51 35 72 57 98 104
18 33 46 70 64 82 17 12 40 35 50 52 12 20 39 40 74 56 30 13 58 31 61 39 3 8
29 25 57 39 29 13 72 40 97 59 25 19 60 43 78 53 18 11 41 34 52 52 10 18 36
41 57 51 24 13 45 34 56 56 12 27 29 42 61 56 25 10 50 28 56 40 6 12 44 36
85 55 52 23 78 42 88 62 8 15 40 52 70 80 30 29 73 60 95 68 26 11 46 28 58
50 11 21 33 41 57 52 27 12 44 28 54 50 7 18 31 44 53 58 23 15 46 40 54 60 9
20 27 40 43 47 15 7 54 39 87 72 l59 59 9 126 c5 69 6 138 4 154 -3 15 -24 53
-46 85 -37 52 -42 66 -47 135 l-6 76 34 32 c19 17 48 42 64 54 17 12 53 30 81
39 27 9 73 31 101 49 28 17 65 40 82 49 17 9 36 29 41 43 6 15 10 57 10 94 0
39 -5 72 -12 79 -8 8 -47 12 -108 12 -94 0 -97 -1 -125 -30 -15 -16 -60 -41
-98 -56 -41 -16 -80 -39 -96 -56 -14 -17 -49 -41 -78 -53 -28 -13 -56 -33 -63
-44 -6 -12 -30 -33 -53 -48 -23 -14 -63 -45 -88 -69 -29 -26 -60 -45 -83 -49
-25 -5 -45 -19 -66 -46 -26 -32 -39 -39 -78 -44 -26 -3 -65 -11 -87 -17 -22
-5 -58 -23 -80 -39 -22 -15 -60 -32 -85 -38 -25 -5 -76 -12 -115 -16 -38 -3
-85 -11 -102 -16 -18 -6 -41 -21 -51 -33 -9 -13 -28 -28 -40 -35 -13 -7 -89
-16 -170 -21 -81 -5 -185 -16 -232 -25 -47 -8 -97 -13 -112 -9 -15 3 -49 28
-77 55 -28 28 -54 61 -57 74 -3 14 -3 35 0 48 3 12 21 31 38 42 27 17 36 32
49 85 13 48 25 72 48 91 17 14 37 43 44 65 10 28 25 45 52 61 23 13 47 37 58
60 11 21 29 49 42 63 12 14 41 52 63 86 25 37 52 65 69 71 15 6 46 17 68 25
30 10 46 24 63 56 13 23 37 49 53 57 17 9 39 36 53 63 13 26 44 66 69 89 24
22 55 47 68 54 13 7 57 42 97 78 58 53 72 71 72 95 0 16 -5 46 -12 67 -6 21
-19 46 -30 56 -14 13 -44 18 -128 21 l-109 5 -33 -38 c-18 -20 -51 -46 -73
-56 -22 -11 -49 -34 -60 -52 -11 -17 -33 -38 -48 -45 -15 -7 -39 -31 -52 -53
-15 -22 -40 -45 -60 -53 -19 -8 -43 -29 -54 -46 -10 -18 -33 -40 -50 -51 -16
-10 -37 -32 -46 -49 -10 -20 -32 -38 -60 -50 -28 -12 -50 -30 -60 -49 -8 -17
-30 -38 -48 -47 -17 -9 -62 -45 -100 -80 -37 -35 -71 -64 -76 -64 -5 0 -28
-16 -51 -35 -22 -19 -56 -37 -75 -41 -24 -4 -45 -19 -68 -48 -24 -28 -50 -47
-86 -60 -34 -12 -61 -30 -81 -56 -17 -21 -48 -45 -72 -55 -24 -9 -57 -30 -74
-46 -24 -24 -48 -33 -113 -46 -72 -14 -86 -21 -107 -49 -14 -17 -37 -37 -52
-42 -15 -6 -53 -16 -85 -22 -43 -9 -69 -21 -103 -51 -25 -21 -48 -39 -52 -39
-4 0 -37 -7 -75 -15 -43 -9 -83 -26 -111 -45 -36 -26 -63 -35 -161 -51 -65
-11 -135 -29 -157 -40 -22 -11 -72 -26 -111 -34 -40 -7 -154 -16 -254 -20
-174 -6 -182 -6 -202 14 -11 11 -23 37 -27 57 -5 26 -1 55 12 93 12 39 31 69
60 96 28 26 46 55 54 83 6 23 24 58 41 76 18 21 49 41 80 51 39 13 56 26 75
56 13 22 40 47 58 56 19 9 40 30 50 49 9 20 30 41 49 50 19 9 42 29 51 44 10
17 31 33 54 41 20 6 43 16 50 22 7 6 19 24 26 41 8 17 36 55 63 83 32 35 60
55 82 59 27 6 36 15 52 51 10 24 26 46 36 50 10 3 26 13 36 21 9 8 22 32 27
54 8 29 20 42 48 57 20 10 46 30 58 43 12 12 35 31 52 40 18 9 38 32 46 52 9
21 30 45 51 57 20 12 43 35 51 51 9 18 32 36 60 48 34 15 49 28 60 57 9 20 27
51 40 68 16 22 24 45 24 72 0 25 -6 45 -17 55 -10 9 -36 18 -58 20 -22 3 -87
-3 -145 -13 -94 -16 -108 -21 -133 -49 -15 -17 -54 -46 -86 -65 -32 -19 -65
-45 -74 -58 -8 -12 -33 -31 -56 -41 -24 -11 -49 -33 -61 -53 -12 -21 -36 -40
-64 -53 -25 -10 -52 -30 -61 -44 -9 -14 -35 -36 -58 -50 -23 -13 -52 -38 -64
-54 -13 -17 -51 -44 -87 -62 -37 -17 -74 -44 -86 -60 -12 -16 -34 -37 -49 -46
-16 -9 -35 -28 -44 -43 -8 -14 -36 -48 -61 -76 -26 -27 -54 -58 -64 -67 -9
-10 -33 -34 -52 -53 -19 -19 -53 -54 -76 -78 -22 -23 -51 -58 -64 -77 -13 -19
-51 -64 -84 -100 -34 -36 -77 -75 -96 -87 -19 -11 -46 -41 -60 -64 -16 -27
-44 -54 -75 -72 -28 -16 -64 -42 -82 -57 -17 -16 -44 -31 -60 -34 -15 -3 -54
-10 -86 -16 -48 -10 -60 -16 -73 -41 -8 -16 -26 -34 -39 -39 -13 -5 -52 -12
-87 -16 -55 -6 -67 -11 -98 -44 -19 -20 -44 -40 -55 -44 -11 -4 -64 -11 -119
-15 -96 -8 -99 -9 -133 -44 -20 -21 -49 -40 -71 -45 -20 -5 -77 -14 -125 -19
-72 -8 -93 -15 -115 -35 -15 -14 -37 -31 -49 -37 -12 -6 -81 -15 -155 -21 -73
-5 -160 -14 -193 -20 -33 -5 -75 -10 -93 -10 -22 0 -46 -10 -73 -32 -35 -28
-48 -32 -136 -39 -54 -4 -157 -8 -230 -9 -73 0 -155 -5 -184 -11 -46 -10 -53
-9 -71 9 -16 16 -18 24 -9 40 6 11 24 25 41 31 17 5 47 28 67 51 20 22 43 40
50 40 8 0 37 23 65 50 28 28 54 50 59 50 5 0 18 18 29 40 11 22 38 51 60 65
22 14 46 38 55 55 8 16 29 36 45 45 16 8 41 31 56 51 15 19 40 42 56 50 15 8
37 32 48 53 11 22 29 43 41 46 12 4 45 30 74 59 29 28 78 73 109 99 31 27 76
74 101 105 24 32 56 80 69 109 22 47 28 52 78 67 30 9 67 25 81 36 14 11 39
49 56 85 22 47 39 69 63 81 18 9 59 39 90 66 39 33 59 59 63 81 4 18 14 45 22
61 8 16 40 62 70 103 30 41 61 77 69 80 8 3 26 27 40 54 13 27 36 55 52 63 15
8 53 39 84 68 42 39 62 68 78 111 12 32 34 73 50 90 15 18 37 51 49 74 12 24
34 50 49 60 15 9 49 40 76 68 28 28 57 70 66 95 14 36 26 49 59 66 24 11 56
35 73 52 16 18 48 42 71 53 23 12 63 41 89 65 26 24 51 44 56 44 5 0 28 18 50
39 32 31 51 41 89 46 26 4 55 9 63 11 9 2 40 38 70 80 32 45 84 100 127 134
39 32 87 61 105 65 18 3 44 11 58 16 14 5 34 26 45 47 16 29 36 45 92 72 40
19 83 45 96 57 13 13 43 30 68 38 25 9 80 45 124 82 44 36 86 74 93 85 7 10
35 29 61 43 26 13 56 36 65 50 10 15 35 34 56 43 22 9 49 33 62 52 13 19 39
43 57 52 19 9 50 33 70 52 20 19 56 42 81 52 25 9 51 22 58 27 7 6 19 25 27
43 8 19 27 40 47 49 18 10 47 31 64 49 17 17 44 39 62 48 17 9 40 35 52 58 11
22 28 44 36 47 8 3 26 27 39 52 15 31 36 54 60 66 21 12 45 36 56 57 10 20 50
62 89 94 56 47 78 73 110 135 28 54 50 83 74 97 22 13 36 30 39 49 3 15 9 50
12 77 5 36 14 55 33 70 14 12 52 48 84 81 33 33 66 74 73 91 8 17 19 78 26
136 11 93 10 114 -4 174 -10 38 -25 75 -34 82 -9 6 -27 12 -40 12 -15 0 -38
-15 -61 -40z m-285 -506 c3 -9 -10 -48 -31 -90 -21 -42 -49 -82 -66 -94 -17
-12 -39 -38 -49 -58 -11 -21 -42 -65 -69 -99 -28 -34 -53 -72 -57 -83 -3 -11
-26 -34 -51 -50 -24 -17 -44 -35 -44 -40 0 -4 -22 -24 -48 -43 -36 -25 -51
-44 -60 -75 -10 -31 -19 -43 -45 -51 -17 -7 -52 -31 -75 -54 -24 -23 -69 -67
-100 -97 -32 -31 -76 -64 -99 -74 -26 -12 -50 -32 -63 -53 -11 -18 -35 -43
-54 -54 -19 -11 -46 -35 -60 -54 -15 -19 -39 -36 -56 -40 -17 -4 -42 -22 -60
-45 -17 -21 -45 -44 -63 -49 -18 -6 -51 -30 -73 -52 -21 -22 -62 -53 -90 -70
-29 -16 -58 -36 -65 -45 -7 -9 -37 -26 -65 -39 -29 -13 -60 -35 -69 -49 -9
-14 -45 -41 -78 -60 -34 -19 -74 -51 -90 -70 -17 -23 -41 -39 -66 -46 -29 -7
-42 -18 -51 -40 -7 -17 -23 -33 -36 -36 -12 -3 -28 -3 -33 1 -6 3 -11 12 -11
20 0 8 16 26 36 41 19 15 42 43 50 63 8 20 37 59 63 86 27 28 57 66 66 85 9
19 34 52 54 72 20 20 60 63 88 95 29 32 72 79 95 104 24 26 50 60 60 77 9 17
35 42 57 56 23 15 41 30 41 35 0 5 28 39 63 77 35 38 73 84 86 102 12 18 48
50 79 71 31 21 65 47 74 57 9 11 27 39 40 64 19 37 34 50 86 75 40 19 70 42
83 62 13 20 37 38 65 49 27 10 50 27 59 43 7 14 51 65 98 113 46 48 90 96 98
108 8 11 38 29 67 39 29 11 65 33 81 50 16 17 39 31 53 31 12 0 52 11 88 24
36 13 82 24 103 25 26 1 40 -4 44 -15z m8397 -1869 c49 -8 96 -17 106 -20 10
-3 46 -40 81 -81 35 -42 80 -89 100 -104 25 -21 43 -47 58 -89 14 -40 34 -70
59 -91 20 -18 52 -51 69 -74 18 -22 33 -51 33 -64 0 -13 -14 -35 -35 -53 -19
-17 -37 -39 -40 -50 -4 -11 -24 -28 -46 -39 -21 -11 -53 -36 -71 -56 -18 -20
-55 -48 -83 -61 -27 -14 -77 -45 -111 -69 -41 -29 -66 -56 -79 -83 -14 -32
-27 -44 -62 -57 -24 -9 -53 -30 -64 -46 -11 -16 -37 -37 -57 -47 -21 -11 -57
-40 -82 -65 -36 -37 -51 -46 -79 -46 -28 0 -43 9 -81 48 -25 26 -89 86 -142
135 -60 54 -104 103 -116 130 -17 34 -21 64 -22 157 -1 63 2 194 8 290 5 96
12 183 16 192 4 9 19 24 32 33 14 9 34 36 46 60 14 29 33 50 54 60 18 8 43 15
57 15 14 0 39 11 55 25 16 13 41 29 56 35 15 5 57 10 94 11 37 1 78 5 92 9 14
4 34 8 45 9 11 0 60 -6 109 -14z m-11409 -835 c4 -6 -3 -25 -14 -43 -11 -17
-59 -66 -106 -107 -63 -55 -94 -91 -116 -134 -17 -32 -44 -70 -60 -84 -16 -13
-37 -38 -46 -56 -9 -17 -34 -50 -57 -73 -23 -23 -67 -70 -99 -105 -32 -35 -80
-88 -106 -119 -27 -31 -54 -73 -61 -93 -8 -26 -22 -42 -50 -56 -27 -14 -42
-30 -50 -55 -8 -24 -25 -44 -50 -60 -20 -13 -40 -35 -44 -48 -3 -14 -24 -40
-46 -57 -22 -18 -47 -45 -55 -60 -8 -16 -29 -37 -45 -47 -17 -10 -39 -32 -50
-50 -10 -18 -35 -42 -54 -55 -20 -13 -39 -32 -42 -42 -4 -11 -40 -52 -82 -93
-41 -40 -83 -75 -93 -78 -10 -3 -21 -15 -25 -27 -3 -11 -40 -55 -83 -97 -42
-42 -88 -82 -104 -89 -15 -6 -32 -23 -37 -37 -5 -14 -24 -34 -42 -43 -18 -9
-51 -36 -73 -58 -22 -23 -51 -47 -63 -54 -13 -6 -30 -27 -38 -46 -9 -22 -27
-41 -50 -52 -22 -10 -43 -31 -55 -54 -12 -23 -29 -40 -44 -44 -14 -3 -57 -4
-96 -2 -67 4 -72 5 -108 44 -31 34 -47 43 -98 53 -34 6 -73 21 -86 32 -14 11
-28 28 -32 38 -3 10 -28 28 -55 39 -35 15 -54 29 -62 49 -6 15 -28 44 -48 63
-30 29 -38 45 -44 89 -4 30 -21 97 -38 150 -28 87 -30 103 -22 166 4 38 8 120
8 180 1 61 5 116 10 124 5 7 23 19 42 27 18 8 53 14 76 14 24 0 61 5 83 11 22
6 77 14 123 18 63 6 90 13 110 30 15 12 46 31 69 41 23 11 75 25 115 30 41 5
80 12 88 15 8 3 27 23 42 45 22 32 34 39 70 44 24 3 70 8 102 12 48 5 65 12
90 36 17 17 45 37 63 44 18 8 60 14 94 14 55 0 71 5 138 44 42 25 88 48 104
51 15 4 37 20 50 35 12 15 27 35 32 45 7 11 30 21 60 26 28 4 73 8 102 8 28 1
63 5 76 10 14 6 28 19 32 31 4 12 21 30 38 41 18 10 42 19 55 19 13 0 40 17
63 39 22 21 57 43 78 50 21 6 50 11 65 11 18 0 39 13 64 38 26 27 53 42 87 51
35 9 64 25 95 55 28 27 68 52 105 65 46 17 66 31 87 62 24 34 33 39 67 39 22
0 43 -5 46 -10z m12045 -85 c9 -11 14 -62 17 -162 1 -81 6 -156 9 -167 4 -12
16 -34 29 -51 12 -16 25 -39 29 -51 3 -11 0 -28 -7 -38 -7 -9 -29 -21 -49 -25
-20 -5 -56 -5 -80 -1 -24 5 -88 13 -142 19 -79 9 -110 18 -151 41 -44 25 -63
30 -121 30 -38 0 -85 5 -104 10 -20 5 -45 17 -55 25 -20 15 -20 15 -1 30 10 8
44 19 74 26 30 6 76 20 101 31 25 12 73 31 106 43 47 18 66 31 88 63 18 27 40
44 65 53 23 7 59 35 97 75 33 35 65 64 71 64 7 0 17 -7 24 -15z m-683 -596
c29 -18 64 -24 204 -35 164 -13 171 -15 253 -54 46 -22 89 -40 96 -40 8 0 28
5 45 11 18 7 44 9 58 5 15 -3 34 -18 43 -31 15 -24 15 -29 -1 -72 -10 -25 -33
-63 -52 -83 -18 -21 -42 -64 -53 -96 -11 -32 -31 -70 -45 -84 -13 -14 -33 -50
-44 -80 -17 -44 -42 -77 -130 -167 -60 -62 -112 -121 -116 -133 -4 -11 -23
-29 -43 -39 -20 -11 -55 -38 -77 -61 -22 -23 -59 -50 -82 -61 -27 -11 -51 -32
-67 -58 -20 -30 -36 -43 -66 -51 -23 -6 -49 -21 -58 -32 -9 -12 -24 -29 -33
-38 -9 -10 -46 -27 -81 -39 -40 -13 -75 -33 -90 -50 -18 -20 -45 -33 -94 -45
-57 -14 -75 -23 -104 -56 -33 -37 -40 -41 -115 -51 -44 -6 -95 -20 -113 -30
-18 -11 -48 -19 -67 -19 -18 0 -41 3 -50 6 -8 4 -23 20 -31 36 -12 24 -14 46
-9 98 6 60 4 70 -13 87 -10 10 -28 25 -39 34 -15 12 -21 34 -27 88 -3 40 -13
85 -20 99 -8 15 -40 52 -71 82 -31 30 -61 63 -66 73 -7 13 -4 28 12 57 15 26
37 46 66 60 34 16 48 30 63 64 10 24 27 50 38 58 11 7 30 30 41 50 12 20 30
39 39 43 9 4 48 11 87 15 56 7 73 13 87 32 9 12 34 45 55 71 21 27 51 60 66
75 15 15 51 50 80 78 29 29 62 57 74 63 12 6 30 24 39 40 10 17 33 38 52 48
18 10 42 34 52 54 11 21 31 41 47 47 15 6 51 13 80 16 29 3 65 12 80 20 15 8
36 15 47 16 10 0 34 -10 53 -21z m-1384 -651 c6 -8 7 -23 4 -32 -4 -9 -15 -16
-26 -16 -10 0 -22 7 -25 16 -3 8 -1 24 5 35 6 11 15 19 21 17 7 -3 16 -11 21
-20z m-12491 -937 c42 -11 80 -30 103 -50 20 -17 41 -31 47 -31 6 0 20 -7 30
-17 10 -9 18 -25 18 -35 0 -13 -14 -25 -45 -38 -24 -10 -50 -29 -57 -40 -7
-12 -34 -33 -60 -46 -26 -13 -59 -24 -72 -24 -16 0 -32 10 -43 26 -10 14 -37
48 -60 75 -24 27 -45 64 -49 84 -3 19 -3 46 0 59 3 14 13 32 22 40 9 10 33 16
57 16 24 0 72 -8 109 -19z"/>
<path d="M34835 9984 c-11 -3 -29 -7 -40 -9 -12 -2 -31 -23 -44 -45 -13 -24
-38 -48 -61 -60 -21 -11 -48 -33 -59 -49 -14 -19 -39 -35 -70 -46 -31 -10 -63
-31 -88 -58 -22 -23 -68 -67 -103 -97 -35 -30 -77 -63 -93 -73 -16 -10 -40
-31 -54 -48 -14 -16 -39 -37 -57 -46 -17 -8 -44 -31 -59 -50 -16 -18 -45 -42
-65 -52 -21 -11 -48 -31 -62 -46 -14 -15 -50 -40 -81 -55 -31 -16 -64 -41 -73
-55 -10 -15 -37 -36 -62 -46 -24 -11 -52 -31 -61 -45 -10 -13 -43 -52 -74 -85
-31 -34 -67 -66 -80 -73 -13 -6 -35 -29 -50 -51 -15 -22 -43 -46 -63 -55 -19
-8 -78 -55 -131 -104 -53 -48 -118 -99 -145 -112 -31 -15 -55 -35 -65 -54 -8
-16 -33 -39 -54 -50 -22 -11 -49 -32 -60 -47 -12 -15 -37 -36 -56 -47 -18 -12
-43 -33 -55 -48 -12 -15 -40 -36 -63 -47 -23 -10 -60 -37 -82 -60 -24 -25 -60
-49 -94 -62 -30 -11 -69 -33 -88 -49 -18 -16 -56 -36 -85 -45 -28 -8 -58 -15
-65 -15 -8 0 -29 -15 -48 -34 -19 -20 -60 -44 -93 -56 -33 -12 -73 -35 -91
-50 -17 -16 -39 -31 -48 -34 -10 -3 -47 -10 -83 -15 -52 -8 -70 -16 -92 -40
-14 -16 -35 -34 -46 -40 -11 -6 -51 -15 -89 -20 -62 -9 -71 -14 -103 -51 -31
-35 -44 -42 -105 -55 -38 -8 -73 -15 -77 -15 -4 0 -27 -17 -52 -39 -33 -29
-57 -40 -93 -45 -26 -4 -64 -12 -83 -18 -19 -6 -52 -24 -72 -40 -26 -20 -59
-33 -110 -43 -40 -8 -90 -17 -111 -20 -25 -4 -44 -15 -59 -35 -12 -16 -35 -34
-52 -39 -17 -6 -66 -15 -109 -21 -43 -5 -88 -15 -100 -21 -12 -6 -36 -25 -53
-41 -27 -26 -43 -31 -110 -39 -44 -4 -95 -11 -116 -14 -20 -4 -44 -16 -55 -27
-10 -11 -30 -26 -45 -34 -15 -8 -76 -19 -135 -25 -60 -6 -123 -18 -140 -26
-18 -9 -33 -19 -33 -24 0 -5 -11 -16 -25 -25 -18 -12 -63 -19 -153 -25 -70 -5
-169 -13 -220 -18 -74 -8 -105 -17 -147 -41 -41 -24 -64 -30 -109 -30 -42 0
-61 5 -75 19 -16 16 -18 26 -11 48 5 15 22 59 37 97 20 50 36 74 58 87 17 10
38 32 49 49 11 19 36 39 61 50 24 10 49 28 55 39 6 12 10 54 8 94 -3 68 -4 72
-28 76 -14 1 -56 -6 -95 -18 -38 -11 -102 -30 -141 -42 -59 -17 -77 -27 -103
-59 -18 -23 -43 -41 -61 -45 -16 -4 -48 -22 -71 -41 -22 -19 -49 -34 -58 -34
-10 0 -42 -8 -72 -19 -30 -10 -76 -21 -102 -25 -37 -6 -51 -13 -59 -31 -6 -13
-22 -28 -37 -34 -14 -6 -53 -15 -85 -21 -33 -5 -61 -10 -62 -10 -2 0 -23 -17
-47 -39 -35 -30 -62 -42 -121 -56 -61 -15 -78 -15 -91 -5 -8 7 -15 21 -15 31
0 10 18 30 39 46 22 15 46 39 53 51 7 13 33 34 59 47 25 13 53 35 63 49 9 14
35 35 59 47 23 12 57 35 75 53 19 17 42 47 52 66 10 19 29 44 42 56 12 11 44
33 70 48 26 15 60 43 75 63 16 19 41 51 57 70 16 19 48 43 70 55 23 11 61 39
86 62 25 23 59 47 75 54 17 7 39 27 48 45 11 20 34 41 60 52 24 12 48 32 55
48 7 15 30 38 50 51 20 13 48 36 62 51 14 15 43 35 65 45 23 10 62 36 89 59
26 22 48 41 49 42 1 0 42 4 90 8 86 8 89 9 131 50 40 39 49 43 117 52 40 5 81
12 91 15 10 3 25 19 34 35 8 16 27 34 41 40 14 5 66 12 115 16 l90 6 15 36 c9
20 20 39 27 43 6 4 35 13 65 19 40 8 63 20 90 48 30 30 49 40 100 50 37 7 69
20 79 32 9 11 26 30 38 43 14 16 41 28 80 36 48 10 65 20 99 55 22 24 58 51
80 60 22 9 51 27 65 39 14 13 45 34 70 46 25 12 65 41 90 64 25 23 59 47 75
54 19 8 39 29 54 57 13 25 39 54 57 66 19 11 34 24 34 27 0 4 30 39 68 78 37
40 80 78 95 86 15 8 40 35 55 61 15 25 43 56 62 69 27 18 39 37 53 79 15 47
17 63 7 98 -7 29 -19 45 -40 56 -15 8 -53 17 -82 21 -42 5 -62 2 -88 -11 -21
-11 -73 -20 -135 -25 -57 -5 -120 -16 -141 -25 -21 -9 -48 -24 -59 -34 -11
-10 -36 -23 -55 -29 -19 -6 -55 -14 -80 -17 -25 -4 -53 -11 -62 -16 -10 -5
-24 -22 -32 -38 -8 -15 -30 -34 -48 -41 -18 -6 -50 -19 -70 -27 -21 -9 -49
-30 -62 -47 -16 -22 -41 -37 -78 -49 -31 -9 -66 -30 -83 -47 -16 -17 -54 -42
-85 -56 -30 -14 -67 -38 -81 -54 -15 -16 -46 -34 -70 -40 -26 -7 -60 -27 -84
-50 -22 -21 -58 -47 -81 -58 -22 -12 -53 -37 -69 -57 -15 -21 -43 -44 -62 -51
-19 -8 -43 -30 -54 -48 -10 -18 -31 -38 -47 -45 -15 -7 -49 -32 -75 -54 -26
-23 -71 -64 -100 -90 -29 -27 -77 -62 -107 -77 -30 -15 -65 -42 -78 -59 -12
-17 -38 -37 -57 -45 -22 -10 -41 -27 -51 -50 -11 -22 -30 -40 -55 -51 -21 -10
-50 -31 -66 -47 -15 -16 -43 -36 -61 -45 -18 -9 -45 -32 -60 -51 -18 -24 -52
-47 -102 -70 -41 -19 -84 -43 -96 -53 -13 -13 -46 -22 -100 -29 -43 -5 -110
-12 -147 -16 -60 -5 -74 -10 -108 -41 -25 -22 -55 -39 -82 -44 -23 -4 -88 -8
-145 -9 -57 0 -136 -5 -175 -10 -40 -6 -110 -19 -157 -30 -47 -11 -118 -27
-158 -35 -71 -14 -76 -14 -123 6 -45 20 -57 21 -128 11 -45 -5 -96 -6 -118 -1
-21 4 -63 15 -93 24 -38 11 -85 15 -152 13 -94 -3 -98 -4 -128 -34 -23 -24
-49 -36 -103 -50 -59 -14 -79 -24 -107 -55 -19 -20 -50 -44 -68 -53 -18 -10
-41 -31 -52 -49 -10 -18 -43 -56 -72 -85 -29 -30 -68 -60 -85 -68 -20 -8 -40
-29 -52 -52 -12 -23 -33 -44 -55 -55 -25 -12 -41 -28 -52 -56 -9 -22 -26 -47
-39 -55 -13 -9 -38 -43 -56 -76 -20 -39 -62 -89 -119 -143 -58 -56 -92 -96
-100 -121 -9 -27 -22 -42 -52 -57 -26 -13 -44 -32 -54 -54 -9 -23 -26 -40 -48
-49 -18 -7 -43 -30 -55 -49 -12 -20 -32 -39 -43 -43 -12 -4 -45 -28 -73 -55
-28 -27 -76 -59 -106 -73 -31 -13 -63 -36 -73 -50 -9 -15 -37 -36 -61 -48 -24
-12 -48 -32 -54 -45 -7 -15 -32 -34 -65 -48 -30 -13 -71 -42 -92 -65 -23 -25
-52 -44 -77 -51 -31 -8 -42 -8 -52 3 -6 7 -17 32 -23 54 -7 23 -20 45 -30 49
-9 4 -33 11 -52 16 -22 5 -84 2 -165 -7 -84 -10 -142 -22 -165 -34 -19 -10
-55 -29 -79 -41 -36 -17 -72 -23 -180 -30 -75 -4 -152 -12 -171 -18 -19 -6
-51 -11 -72 -11 -20 0 -44 7 -52 16 -9 8 -16 27 -16 42 1 21 27 54 114 142 63
63 128 125 144 138 19 14 37 41 47 73 13 38 26 56 55 75 24 16 44 41 54 64 8
22 29 49 45 61 19 14 40 46 56 86 14 35 25 71 25 81 0 9 -13 45 -29 79 -16 34
-38 66 -50 72 -11 6 -59 11 -108 11 -48 0 -105 -5 -126 -11 -20 -5 -45 -18
-55 -29 -9 -10 -30 -23 -45 -29 -16 -6 -45 -11 -65 -11 -20 0 -54 -5 -75 -11
-27 -7 -44 -20 -58 -44 -11 -19 -28 -36 -37 -39 -9 -2 -35 -7 -57 -11 -22 -3
-58 -18 -80 -32 -22 -14 -51 -36 -65 -49 -14 -13 -39 -26 -56 -30 -21 -4 -34
-1 -43 9 -10 12 -9 18 1 27 7 6 28 19 47 28 22 11 39 28 45 48 6 17 41 60 77
96 37 36 76 69 87 73 12 3 31 21 42 40 12 19 36 42 55 51 20 9 38 28 46 47 7
18 33 53 58 78 26 25 75 81 111 123 36 43 77 85 91 93 14 8 37 34 52 57 14 22
43 57 64 78 21 20 57 47 80 60 27 15 63 53 104 108 34 47 79 104 100 126 20
23 49 60 63 83 14 22 44 52 65 66 22 13 47 40 56 58 9 19 27 40 41 48 14 7 34
30 45 51 11 21 37 49 58 63 22 13 47 37 56 52 9 16 30 36 45 45 16 9 40 35 54
57 14 22 39 47 54 55 16 8 41 33 55 55 15 23 32 41 37 41 6 0 26 22 45 48 19
27 46 54 60 62 15 8 33 27 41 42 8 16 73 87 145 158 71 72 134 130 139 130 5
0 18 15 27 34 10 19 36 56 58 82 22 27 74 84 115 127 41 44 107 103 147 133
40 29 77 62 82 73 6 11 11 42 11 69 0 34 -6 57 -19 73 -15 19 -30 24 -83 27
l-65 4 -39 -42 c-21 -23 -53 -48 -70 -55 -18 -7 -40 -27 -50 -43 -9 -17 -36
-39 -58 -49 -22 -10 -63 -40 -91 -68 -29 -28 -59 -66 -69 -86 -10 -22 -30 -42
-52 -52 -23 -11 -40 -30 -50 -53 -11 -25 -26 -41 -56 -54 -24 -10 -62 -42 -89
-75 -27 -31 -56 -68 -65 -83 -9 -15 -30 -36 -47 -47 -18 -11 -41 -34 -52 -52
-11 -17 -36 -39 -56 -48 -23 -10 -42 -30 -53 -51 -10 -23 -29 -40 -51 -50 -26
-11 -40 -25 -52 -55 -12 -31 -25 -45 -52 -56 -20 -8 -60 -40 -88 -70 -29 -29
-53 -60 -53 -68 0 -8 -5 -25 -12 -39 -6 -14 -26 -34 -43 -45 -18 -10 -41 -32
-50 -49 -10 -17 -35 -40 -55 -51 -21 -12 -43 -34 -50 -51 -8 -19 -28 -39 -51
-50 -21 -11 -41 -29 -44 -41 -4 -11 -37 -51 -73 -88 -37 -37 -77 -73 -90 -80
-12 -6 -34 -30 -47 -51 -15 -23 -40 -46 -59 -54 -23 -9 -42 -28 -54 -53 -11
-21 -30 -47 -42 -58 -12 -11 -31 -37 -42 -58 -10 -21 -89 -107 -175 -190 -85
-83 -161 -164 -169 -179 -8 -15 -28 -35 -45 -44 -21 -10 -37 -31 -51 -64 -14
-35 -28 -52 -50 -61 -16 -7 -41 -29 -55 -50 -13 -20 -37 -42 -53 -49 -17 -7
-34 -26 -45 -50 -12 -27 -29 -43 -57 -56 -22 -10 -46 -30 -54 -47 -9 -15 -30
-37 -48 -48 -22 -13 -39 -34 -50 -63 -12 -32 -25 -47 -47 -57 -17 -6 -42 -29
-55 -50 -13 -21 -37 -45 -53 -53 -17 -9 -35 -31 -44 -54 -12 -30 -25 -43 -55
-55 -27 -11 -43 -25 -52 -47 -8 -18 -28 -39 -49 -50 -24 -12 -42 -31 -54 -57
-9 -22 -28 -45 -41 -51 -14 -6 -33 -24 -43 -39 -9 -15 -50 -60 -89 -99 -56
-55 -82 -74 -117 -82 -36 -10 -53 -22 -86 -63 -32 -41 -41 -60 -41 -91 0 -28
7 -45 24 -61 13 -12 43 -39 65 -59 31 -29 50 -38 77 -38 25 0 42 7 59 26 14
15 25 30 25 34 0 3 18 16 40 29 21 12 48 35 60 51 11 16 36 38 55 50 19 11 43
36 54 54 11 18 31 38 45 44 13 6 37 30 52 53 23 34 40 46 83 60 40 13 64 28
89 59 19 22 46 47 61 54 14 8 42 29 61 48 27 27 50 37 99 47 52 10 70 19 101
51 27 27 49 40 81 45 24 4 56 14 71 21 15 8 32 24 39 35 6 11 26 27 44 35 19
8 53 14 76 14 37 0 47 6 94 55 29 30 58 55 64 55 6 0 29 16 50 36 23 20 54 37
73 40 18 3 40 0 48 -5 12 -8 12 -12 -3 -28 -9 -10 -23 -36 -32 -56 -9 -23 -30
-46 -49 -58 -19 -11 -39 -33 -46 -50 -7 -16 -32 -46 -56 -65 -24 -20 -46 -45
-50 -56 -3 -11 -25 -29 -49 -39 -27 -12 -51 -32 -63 -54 -12 -19 -36 -41 -56
-49 -25 -10 -37 -23 -42 -43 -4 -15 -13 -40 -21 -55 -7 -15 -31 -37 -53 -48
-22 -11 -40 -26 -40 -33 0 -8 7 -35 16 -61 13 -36 27 -56 60 -79 24 -17 55
-48 70 -70 14 -21 41 -45 60 -53 22 -9 66 -14 122 -13 48 1 107 -2 132 -6 25
-3 83 -2 130 4 47 6 107 18 134 27 28 10 70 30 95 45 25 17 59 29 77 29 18 0
39 -7 48 -15 13 -14 13 -20 0 -56 -7 -23 -14 -55 -14 -71 0 -22 15 -44 70 -98
61 -60 76 -70 106 -70 19 0 44 5 55 10 10 6 26 26 34 45 8 20 24 39 37 44 13
4 53 14 91 21 47 9 80 22 110 45 23 17 66 40 96 50 38 12 58 26 70 46 9 17 33
35 56 45 22 8 58 35 80 59 28 30 54 47 85 55 25 6 53 19 63 27 9 9 17 21 17
28 0 7 8 19 18 28 9 8 36 20 59 26 27 8 49 22 63 41 11 16 49 45 82 64 42 24
78 55 113 98 37 46 66 71 110 93 46 23 64 39 77 67 10 21 32 48 49 60 17 13
39 39 50 58 11 20 33 44 48 54 15 10 37 33 49 52 12 18 39 42 60 53 21 11 57
45 80 76 23 31 56 83 73 116 20 41 41 67 65 81 19 11 43 37 54 58 11 22 31 42
50 50 19 8 39 28 51 52 13 26 32 44 54 54 19 8 55 34 80 59 24 25 49 45 54 45
5 0 18 20 29 44 12 24 28 46 36 49 9 4 54 11 101 18 62 8 103 8 152 0 43 -7
155 -9 303 -6 129 3 331 6 449 6 192 -1 216 1 240 18 14 10 55 30 91 44 36 15
98 32 138 39 64 11 74 10 88 -4 9 -9 13 -21 9 -28 -4 -6 -30 -21 -58 -34 -29
-13 -64 -37 -79 -54 -15 -17 -51 -43 -80 -58 -29 -14 -73 -47 -98 -73 -25 -25
-78 -71 -118 -100 -41 -30 -80 -67 -88 -82 -8 -15 -27 -36 -44 -46 -16 -9 -33
-26 -36 -38 -4 -11 -46 -57 -93 -103 -47 -45 -107 -102 -133 -127 -25 -25 -52
-45 -60 -45 -8 0 -24 -10 -35 -22 -11 -13 -24 -33 -28 -45 -3 -13 -26 -46 -50
-75 -25 -28 -50 -67 -56 -86 -9 -27 -9 -51 2 -106 7 -39 21 -78 31 -88 10 -10
30 -18 44 -18 14 0 45 -5 69 -11 25 -6 56 -8 70 -5 15 4 32 21 45 46 11 22 28
44 38 49 9 5 58 14 107 20 50 6 111 11 137 11 39 0 50 4 70 29 13 16 37 35 53
44 17 8 49 18 73 22 23 4 94 33 158 66 64 32 122 59 130 59 8 0 17 8 21 18 3
9 13 25 21 35 8 9 27 17 42 17 17 0 30 -7 35 -17 4 -12 -1 -24 -15 -35 -12
-10 -31 -18 -41 -18 -11 0 -23 -10 -28 -22 -5 -13 -5 -48 -1 -78 5 -30 11 -63
15 -73 4 -10 28 -30 54 -45 41 -24 57 -27 156 -30 61 -1 142 -3 180 -4 39 -1
124 2 190 7 90 5 129 12 154 27 28 16 45 18 101 12 62 -6 71 -4 127 25 50 26
84 35 184 47 110 14 131 20 183 51 48 30 75 38 160 50 55 7 116 16 134 19 24
4 39 14 53 38 13 23 30 36 51 40 17 3 49 6 72 6 22 0 61 5 85 11 28 6 60 24
86 48 34 31 54 40 107 50 35 6 80 11 98 11 25 0 43 9 70 35 31 30 48 37 134
54 81 17 105 26 130 50 21 19 55 36 106 49 41 11 87 25 102 31 15 6 39 24 54
40 18 20 48 36 94 50 38 12 78 21 89 21 12 0 31 11 43 25 13 16 32 25 50 25
15 0 28 -5 28 -11 0 -6 -17 -17 -39 -26 -31 -12 -41 -22 -50 -54 -11 -35 -19
-43 -75 -69 -41 -19 -87 -54 -127 -94 -35 -34 -87 -75 -116 -91 -29 -15 -66
-43 -83 -62 -17 -18 -50 -42 -73 -53 -23 -11 -49 -33 -58 -49 -13 -22 -31 -33
-72 -45 -40 -12 -60 -24 -74 -45 -10 -16 -49 -57 -88 -90 -38 -34 -83 -69 -99
-79 -16 -9 -45 -31 -65 -48 -20 -17 -50 -39 -68 -47 -17 -9 -41 -29 -53 -44
-11 -15 -35 -37 -53 -49 -18 -12 -41 -40 -51 -62 -11 -25 -31 -47 -55 -60 -20
-12 -43 -33 -51 -47 -8 -15 -31 -35 -50 -45 -20 -10 -43 -26 -50 -35 -8 -9
-34 -31 -59 -47 -25 -17 -86 -73 -136 -124 -56 -57 -105 -99 -130 -109 -22
-10 -61 -38 -87 -63 -25 -26 -80 -78 -122 -117 -41 -38 -78 -78 -81 -88 -4 -9
-28 -28 -54 -42 -26 -13 -55 -35 -65 -49 -9 -14 -32 -34 -50 -43 -19 -10 -60
-40 -92 -68 -31 -27 -87 -78 -125 -112 -37 -35 -73 -63 -78 -63 -5 0 -18 -14
-28 -31 -10 -17 -39 -42 -65 -55 -25 -13 -56 -37 -68 -54 -12 -17 -38 -39 -58
-49 -21 -11 -48 -31 -62 -46 -14 -15 -42 -36 -62 -46 -21 -11 -60 -39 -88 -64
-35 -31 -63 -47 -90 -51 -22 -4 -47 -12 -56 -18 -12 -9 -18 -35 -21 -102 -4
-59 -2 -98 6 -112 11 -20 20 -22 101 -22 48 0 96 3 105 6 9 4 25 24 36 46 11
22 35 48 54 59 18 11 46 36 60 55 15 20 46 44 69 54 23 10 50 29 59 44 10 14
36 35 58 46 22 12 68 46 102 76 34 30 82 74 107 99 25 24 62 51 82 60 21 8 45
27 54 41 9 14 33 32 53 40 20 8 54 33 76 55 22 21 60 54 85 72 25 18 68 62 97
97 29 36 72 76 100 92 26 15 65 46 85 68 20 22 41 40 46 40 5 0 14 -6 20 -12
5 -7 12 -50 13 -94 3 -64 8 -87 24 -104 11 -13 38 -36 59 -51 24 -18 51 -29
70 -29 17 1 42 7 56 15 14 8 35 14 47 15 12 0 36 -12 54 -27 30 -25 40 -28
167 -35 74 -4 140 -4 146 0 6 4 63 7 126 8 63 1 156 7 205 12 50 6 109 14 133
18 23 4 45 11 48 15 3 5 13 9 24 9 10 0 20 6 23 14 3 8 23 20 44 25 21 6 90
11 153 11 63 0 134 5 158 10 24 6 65 26 92 44 27 19 67 37 87 40 21 4 80 10
131 15 72 6 98 13 115 29 12 11 34 25 48 31 15 5 71 15 124 21 54 6 119 20
144 31 25 11 57 31 71 44 14 13 38 29 53 34 16 6 56 11 90 11 34 0 68 -4 76
-9 8 -5 11 -16 8 -25 -4 -9 -35 -30 -69 -45 -35 -16 -79 -46 -99 -67 -20 -22
-45 -52 -57 -68 -15 -20 -22 -43 -22 -76 0 -32 6 -55 20 -73 12 -15 45 -34 83
-46 42 -14 75 -33 98 -57 19 -20 57 -46 86 -59 43 -19 56 -32 73 -68 11 -24
32 -50 46 -58 14 -7 32 -25 39 -40 8 -14 19 -48 26 -75 6 -27 24 -71 39 -99
16 -27 34 -77 40 -110 9 -42 10 -110 6 -230 -7 -154 -10 -173 -30 -205 -13
-20 -33 -56 -46 -80 -12 -25 -39 -63 -61 -85 -21 -22 -45 -57 -53 -77 -9 -20
-28 -45 -42 -55 -14 -10 -68 -60 -119 -110 -51 -51 -98 -93 -105 -93 -6 0 -32
-20 -58 -44 -26 -24 -69 -55 -97 -69 -27 -14 -65 -43 -83 -66 -18 -23 -40 -41
-49 -41 -8 0 -35 -20 -59 -45 -27 -26 -61 -49 -85 -57 -23 -6 -62 -31 -88 -53
-25 -23 -64 -51 -86 -63 -22 -11 -49 -30 -60 -42 -11 -12 -41 -33 -67 -46 -25
-13 -67 -41 -92 -63 -26 -22 -65 -46 -87 -52 -23 -7 -52 -26 -67 -45 -15 -17
-49 -41 -77 -53 -27 -12 -63 -35 -80 -51 -16 -16 -51 -38 -76 -49 -25 -11 -61
-36 -81 -55 -28 -27 -49 -37 -99 -47 -53 -10 -70 -19 -99 -50 -27 -28 -52 -42
-108 -59 -54 -17 -79 -30 -94 -51 -15 -20 -39 -34 -79 -45 -41 -12 -70 -28
-102 -59 -34 -33 -54 -45 -89 -50 -25 -4 -60 -15 -77 -26 -17 -10 -31 -23 -31
-29 0 -5 -13 -16 -29 -24 -16 -9 -51 -20 -77 -26 -27 -6 -71 -26 -99 -44 -27
-18 -80 -43 -118 -55 -37 -13 -85 -38 -107 -56 -22 -19 -48 -36 -58 -39 -9 -2
-43 -10 -75 -16 -34 -7 -66 -20 -77 -33 -11 -11 -20 -24 -20 -27 0 -4 -11 -12
-25 -18 -14 -7 -37 -12 -50 -12 -13 0 -46 -5 -73 -11 -31 -6 -65 -23 -88 -43
-29 -24 -62 -39 -124 -55 -61 -15 -92 -29 -115 -50 -16 -17 -43 -35 -58 -40
-15 -6 -80 -16 -144 -22 -64 -6 -137 -18 -162 -28 -25 -10 -63 -21 -84 -25
-25 -5 -65 -1 -111 10 -63 15 -83 15 -147 5 -41 -7 -119 -19 -174 -26 -55 -8
-219 -19 -365 -25 -146 -5 -358 -10 -472 -10 -137 0 -231 -5 -280 -14 -40 -8
-93 -22 -117 -30 -24 -9 -63 -16 -87 -16 -23 0 -55 -5 -71 -11 -15 -6 -158
-17 -318 -25 -159 -7 -341 -13 -402 -14 -100 0 -115 -2 -130 -20 -10 -11 -26
-29 -35 -40 -16 -17 -32 -20 -120 -22 -57 -1 -125 -3 -153 -4 -27 -1 -122 -7
-210 -13 -88 -6 -191 -11 -229 -11 -65 0 -72 -2 -103 -32 -33 -32 -36 -33
-156 -39 -67 -4 -188 -12 -269 -18 -126 -9 -155 -14 -198 -36 -27 -14 -85 -32
-127 -41 -43 -9 -161 -19 -263 -24 -153 -6 -195 -12 -245 -30 -33 -12 -89 -32
-125 -45 -44 -15 -109 -26 -200 -33 -114 -10 -154 -18 -260 -53 -120 -40 -132
-42 -286 -48 -158 -7 -161 -7 -235 -43 -41 -19 -92 -39 -114 -43 -22 -4 -93
-13 -159 -20 -92 -10 -125 -18 -145 -34 -14 -11 -39 -28 -54 -36 -19 -11 -76
-19 -185 -25 -87 -5 -180 -14 -207 -20 -28 -6 -67 -22 -87 -35 -28 -19 -65
-28 -150 -40 -62 -8 -139 -19 -170 -24 -39 -7 -70 -19 -95 -40 -21 -16 -56
-34 -78 -40 -22 -6 -69 -11 -105 -11 -36 0 -98 -7 -139 -15 -41 -9 -87 -25
-103 -36 -15 -11 -54 -24 -86 -29 -31 -5 -82 -14 -112 -19 -30 -6 -79 -18
-109 -27 -29 -8 -70 -26 -91 -40 -23 -16 -68 -30 -117 -39 -43 -8 -91 -19
-106 -24 -16 -6 -43 -22 -60 -35 -18 -12 -40 -26 -50 -29 -9 -4 -56 -11 -104
-17 -47 -6 -95 -16 -106 -22 -11 -6 -31 -23 -44 -39 -18 -20 -36 -30 -71 -34
-26 -4 -63 -11 -83 -16 -23 -6 -46 -22 -63 -44 -18 -23 -40 -38 -69 -45 -23
-6 -50 -14 -61 -17 -10 -3 -35 -20 -55 -38 -21 -19 -62 -43 -92 -54 -34 -13
-64 -33 -81 -55 -19 -24 -48 -42 -97 -61 -69 -26 -70 -27 -91 -81 -11 -30 -20
-65 -20 -78 0 -13 9 -35 20 -49 11 -14 34 -29 52 -32 17 -4 49 -26 72 -50 38
-39 47 -43 125 -55 55 -8 117 -10 185 -6 55 4 196 10 311 12 183 4 215 7 248
25 33 17 44 18 77 8 37 -11 41 -10 75 20 20 17 43 32 53 32 9 1 26 1 37 0 11
-1 32 -7 47 -13 21 -8 44 -6 95 5 38 9 106 21 152 27 46 5 117 10 158 10 69 0
75 2 111 35 38 33 42 34 118 34 43 0 124 9 179 20 55 10 136 22 180 26 44 4
96 16 115 25 20 10 51 21 70 24 19 4 118 14 220 23 102 9 224 19 272 22 69 5
92 11 115 28 15 13 42 30 58 40 23 13 68 18 195 23 152 7 172 10 248 39 45 17
124 38 175 47 51 8 160 19 244 22 150 7 152 7 190 39 22 17 57 36 79 42 21 6
69 11 105 11 36 0 92 5 125 11 32 6 82 24 110 40 41 23 76 32 165 44 63 8 136
22 162 31 26 9 62 28 78 42 30 25 32 25 58 9 14 -9 37 -22 49 -29 21 -10 30
-8 70 14 26 14 65 29 87 33 22 4 110 12 197 19 l157 13 39 35 c26 23 54 38 81
43 23 4 91 10 150 14 96 6 117 11 182 43 50 25 100 40 152 47 43 6 101 11 129
11 27 0 77 7 111 16 33 8 81 26 106 38 33 17 85 28 186 40 77 9 153 19 170 21
16 3 44 19 61 36 26 25 44 32 100 40 38 4 109 13 157 18 83 8 91 11 126 45 34
33 44 37 122 46 46 6 114 15 152 20 37 6 108 26 157 45 53 21 117 38 153 41
34 3 76 7 94 10 17 2 45 19 62 36 28 28 40 33 109 40 42 5 116 12 163 17 47 4
92 11 100 16 8 4 37 23 64 41 37 24 76 39 150 54 64 14 117 32 148 50 26 16
64 34 85 39 20 5 71 13 112 16 69 7 78 10 108 43 32 34 38 35 142 47 59 7 115
17 123 21 8 5 26 23 40 40 15 17 44 36 69 44 24 7 93 14 153 15 98 1 116 5
164 29 52 27 57 27 165 21 61 -4 147 -16 191 -27 55 -14 99 -19 141 -15 36 3
86 16 123 33 58 25 67 27 107 16 24 -7 62 -12 84 -12 21 0 61 8 87 19 40 15
81 19 238 21 105 1 343 1 530 0 187 -1 374 -2 415 -2 41 0 487 2 990 5 564 3
953 2 1015 -4 55 -6 163 -15 240 -21 77 -6 195 -10 261 -9 104 2 127 0 160
-17 22 -11 53 -22 69 -25 17 -4 161 -7 320 -8 185 -2 311 -7 347 -15 47 -10
70 -9 130 3 43 8 97 12 132 9 34 -4 67 -13 78 -23 13 -12 15 -19 7 -29 -6 -8
-35 -21 -65 -31 -30 -9 -64 -27 -75 -39 -19 -20 -22 -36 -23 -108 -1 -71 2
-89 20 -113 11 -15 40 -38 64 -50 37 -19 60 -23 140 -23 52 0 105 3 118 6 13
4 25 17 29 32 3 13 1 47 -5 73 -9 36 -9 55 0 73 6 14 24 30 41 36 16 5 42 10
57 10 16 0 37 11 55 29 15 17 52 41 82 55 37 18 57 35 64 53 6 16 21 42 35 60
13 17 24 43 24 56 0 16 -16 39 -48 69 -27 25 -58 49 -70 52 -11 4 -37 0 -57
-9 -21 -8 -50 -15 -65 -15 -15 0 -41 5 -59 11 -24 9 -60 8 -140 0 -107 -12
-109 -12 -170 14 -34 14 -80 28 -104 31 -26 3 -58 0 -85 -10 -41 -15 -48 -14
-100 3 -53 18 -103 20 -707 25 -415 4 -737 11 -890 21 -132 9 -267 20 -300 26
-33 6 -163 13 -290 14 -132 2 -265 -1 -313 -7 -66 -9 -101 -8 -185 4 -56 9
-115 16 -132 16 -16 0 -41 1 -55 1 -14 1 -52 -3 -85 -8 -33 -5 -73 -13 -88
-17 -19 -4 -42 0 -68 12 -36 15 -48 16 -98 6 -31 -7 -111 -12 -177 -12 -65 0
-156 5 -202 12 -64 9 -95 8 -138 -1 -30 -7 -140 -14 -244 -16 -103 -2 -215 -9
-246 -15 -36 -8 -87 -10 -133 -6 -40 4 -115 2 -165 -3 -50 -6 -164 -16 -254
-22 -104 -8 -179 -9 -210 -3 -31 6 -48 15 -50 26 -3 13 14 22 80 42 46 14 99
36 118 50 20 13 60 28 90 34 30 6 79 14 107 17 31 4 66 17 85 31 18 13 56 34
83 48 28 13 66 39 86 58 25 25 58 42 109 57 54 17 83 33 113 62 22 21 56 43
76 49 20 5 41 10 47 10 6 0 26 18 46 39 28 32 45 41 94 51 32 6 66 13 75 16 9
2 32 20 52 39 22 22 55 40 93 51 33 9 76 30 97 47 22 17 68 41 105 54 36 13
82 37 102 53 20 15 61 40 92 53 32 14 66 38 79 56 16 22 37 35 67 43 24 6 66
28 93 50 27 21 69 47 93 57 27 12 50 32 63 54 16 26 33 39 70 51 28 9 63 30
78 46 16 17 53 44 82 60 29 16 60 41 68 54 9 13 35 32 58 41 23 9 58 31 77 50
19 18 55 43 80 55 25 12 61 38 81 56 19 19 57 43 83 52 29 12 78 47 129 94 45
41 96 82 112 91 17 8 50 36 75 62 25 26 62 55 82 66 20 10 40 29 43 41 4 13
16 33 27 45 11 12 33 27 48 33 16 7 34 25 41 43 7 17 34 55 60 83 32 36 56 76
78 135 18 46 43 135 55 197 18 89 21 124 14 160 -5 26 -10 95 -11 153 -3 104
-4 108 -34 142 -21 24 -35 55 -43 94 -7 32 -18 70 -26 84 -7 14 -24 33 -37 42
-14 9 -35 38 -47 66 -13 27 -34 55 -48 62 -14 8 -35 31 -48 51 -17 26 -35 40
-61 47 -21 6 -43 11 -49 11 -7 0 -36 16 -65 36 -30 20 -66 41 -82 46 -15 6
-32 18 -37 27 -5 9 -6 22 -2 27 4 6 21 19 38 29 17 10 39 31 49 47 9 16 36 38
59 48 22 10 57 35 76 55 19 21 58 48 87 61 28 13 62 37 74 53 12 17 38 36 57
42 19 6 51 27 72 45 21 19 69 48 106 65 38 17 80 41 94 54 14 13 56 33 94 44
37 12 82 21 98 21 17 0 45 9 62 19 17 11 65 32 106 47 41 14 117 49 168 77 63
33 100 60 113 81 10 17 19 39 19 49 0 10 -12 30 -26 44 -26 26 -27 26 -142 20
-65 -3 -130 -10 -146 -17 -16 -6 -46 -26 -67 -44 -30 -28 -47 -35 -100 -41
-35 -4 -82 -16 -104 -26 -22 -10 -54 -30 -72 -43 -17 -13 -60 -29 -95 -35 -39
-8 -88 -27 -128 -52 -36 -21 -88 -46 -115 -54 -28 -8 -86 -18 -130 -22 -74 -6
-82 -9 -110 -39 -27 -29 -39 -34 -113 -43 -45 -6 -92 -16 -105 -22 -12 -7 -40
-28 -61 -47 l-39 -35 -139 6 -138 7 -6 -28 c-3 -15 -9 -36 -14 -48 -5 -12 -25
-26 -51 -34 -24 -8 -87 -14 -139 -15 -62 -1 -107 -7 -130 -17 -19 -9 -60 -26
-90 -38 -30 -12 -84 -31 -119 -41 -36 -10 -103 -24 -150 -30 -53 -7 -113 -23
-156 -42 -66 -28 -82 -31 -280 -43 -115 -7 -226 -17 -245 -22 -19 -5 -49 -16
-67 -25 -18 -10 -54 -17 -81 -17 -33 0 -64 8 -95 24 -25 14 -77 34 -116 46
-44 13 -75 28 -81 40 -5 10 -10 49 -10 87 0 37 5 85 10 105 6 20 22 46 35 56
13 11 29 30 34 43 5 13 13 45 16 72 5 39 13 52 46 79 21 17 48 46 59 65 11 18
30 38 43 44 14 6 34 29 46 50 13 23 38 47 59 58 20 11 47 33 60 50 15 21 37
34 68 42 35 9 51 20 69 48 12 20 40 52 61 73 22 20 71 56 109 81 39 25 103 79
144 120 40 41 90 83 111 92 20 9 44 30 54 46 10 16 35 41 56 54 21 13 47 37
58 53 13 17 37 33 64 41 28 9 58 29 88 60 25 26 74 69 109 95 35 27 80 54 100
60 21 8 42 25 51 42 9 16 32 38 51 49 19 11 67 52 107 92 40 40 72 77 72 82 0
6 27 24 59 41 33 16 69 43 81 60 12 17 43 42 70 55 27 13 58 38 69 54 12 16
41 41 66 55 25 15 45 31 45 36 0 5 18 21 40 35 22 14 51 43 65 65 20 32 34 42
70 51 30 7 52 21 65 38 10 15 38 35 62 45 24 10 53 22 65 27 12 4 33 24 45 44
18 27 39 41 92 62 51 20 74 35 85 56 9 16 35 53 58 82 32 39 57 59 99 76 36
15 61 33 69 49 8 15 31 34 53 44 26 12 45 30 55 52 12 25 31 40 69 58 34 15
78 49 123 96 41 42 93 83 126 100 31 16 64 41 74 57 10 15 53 62 95 103 43 41
121 117 174 168 53 51 107 98 119 103 12 6 34 28 50 50 15 22 38 44 50 48 13
5 35 23 49 39 14 17 44 40 66 51 23 12 48 34 57 50 9 19 29 34 57 44 24 9 60
21 81 27 31 10 42 20 54 49 8 20 28 50 45 67 21 23 29 39 26 60 -2 19 -13 34
-35 47 -19 11 -58 20 -100 22 -37 2 -77 2 -88 -1z m-3555 -490 c11 -3 23 -16
26 -30 3 -13 3 -35 0 -49 -3 -13 -20 -31 -36 -40 -16 -8 -42 -31 -57 -51 -15
-19 -50 -47 -76 -60 -27 -14 -68 -43 -91 -64 -23 -21 -59 -46 -81 -55 -23 -9
-49 -30 -60 -48 -14 -21 -36 -37 -70 -50 -28 -10 -68 -36 -91 -58 -25 -25 -59
-46 -89 -55 -27 -8 -61 -26 -76 -40 -14 -14 -59 -38 -99 -55 -40 -16 -89 -42
-109 -58 -20 -16 -65 -41 -100 -55 -35 -14 -86 -40 -113 -57 -31 -20 -63 -32
-86 -33 -31 -1 -37 2 -37 19 0 13 14 27 39 40 22 12 47 34 56 50 10 19 42 44
84 67 37 20 102 69 146 108 43 38 95 77 116 86 22 9 55 31 74 49 19 18 51 38
71 44 25 8 46 25 62 50 18 27 44 48 84 67 32 15 70 40 84 55 15 15 45 32 67
38 22 6 61 29 88 50 27 21 65 46 86 54 20 8 49 30 65 47 15 18 37 36 48 40 11
5 28 7 37 4 10 -2 27 -7 38 -10z m1690 -3414 c0 -5 -7 -10 -15 -10 -8 0 -15 5
-15 10 0 6 7 10 15 10 8 0 15 -4 15 -10z m-4406 -4129 c3 -5 -1 -12 -10 -15
-9 -3 -56 -6 -105 -6 -50 0 -100 -5 -112 -11 -12 -6 -40 -31 -62 -54 -36 -39
-46 -44 -100 -49 -33 -3 -85 -11 -117 -16 -31 -6 -88 -23 -126 -39 -38 -16
-93 -34 -121 -40 -29 -6 -71 -11 -95 -11 -24 0 -58 -3 -76 -6 -17 -4 -46 -22
-64 -40 -18 -18 -44 -38 -60 -43 -15 -6 -58 -11 -96 -11 -37 0 -103 -7 -145
-15 -41 -8 -89 -24 -106 -35 -16 -12 -44 -26 -62 -30 -18 -5 -85 -18 -149 -30
-86 -15 -135 -29 -185 -55 -59 -30 -85 -36 -196 -48 -116 -13 -133 -17 -173
-45 -30 -22 -64 -35 -108 -42 -35 -5 -119 -15 -187 -20 -108 -9 -129 -14 -177
-41 -31 -17 -86 -37 -129 -45 -41 -8 -115 -14 -163 -14 -78 0 -92 -3 -117 -24
-15 -12 -37 -28 -48 -33 -11 -6 -51 -17 -90 -26 -38 -9 -107 -18 -152 -21 -46
-3 -109 -12 -142 -21 -33 -8 -81 -26 -108 -40 -34 -17 -85 -30 -173 -41 -69
-10 -152 -18 -186 -18 -53 -1 -65 -5 -97 -33 -20 -18 -51 -34 -69 -37 -18 -3
-96 -10 -174 -16 -77 -5 -165 -17 -194 -26 -29 -9 -63 -22 -74 -30 -12 -7 -41
-20 -66 -29 -25 -9 -105 -20 -182 -24 -126 -8 -142 -12 -191 -39 -37 -21 -73
-32 -118 -36 -35 -4 -133 -11 -217 -16 -130 -8 -161 -14 -206 -35 -29 -14 -62
-25 -73 -25 -11 0 -42 -10 -69 -21 -37 -17 -78 -23 -179 -29 -74 -4 -156 -14
-190 -25 -33 -9 -88 -26 -122 -36 -34 -11 -101 -24 -150 -30 -48 -6 -159 -14
-246 -18 -153 -8 -159 -9 -209 -40 -28 -18 -73 -36 -100 -41 -27 -5 -124 -12
-216 -15 -92 -3 -186 -8 -209 -11 -26 -3 -63 -19 -95 -41 -50 -34 -57 -36
-172 -45 -67 -5 -247 -11 -401 -13 -154 -2 -323 -9 -375 -15 -52 -7 -114 -19
-137 -27 -23 -8 -55 -13 -70 -11 -24 2 -29 8 -31 36 -2 18 3 43 11 55 8 12 32
28 53 36 21 7 66 31 100 52 33 21 65 39 70 39 5 0 26 5 46 10 25 7 44 22 58
44 12 20 36 40 59 50 22 8 63 18 91 22 38 5 62 15 86 37 19 16 51 33 72 38 20
5 73 9 118 9 45 0 95 5 113 11 17 6 31 14 31 17 0 4 10 20 23 35 22 28 30 30
171 47 146 18 148 18 184 53 21 20 51 41 67 47 18 7 54 9 90 5 33 -3 84 -1
114 5 37 7 65 20 91 44 34 31 44 34 126 40 49 4 134 14 189 23 72 11 108 21
131 38 17 13 50 28 74 35 23 6 95 15 160 19 107 7 121 10 166 38 40 25 70 34
161 47 61 9 133 16 160 16 26 0 66 5 88 11 22 6 59 29 82 50 41 38 42 38 125
38 46 1 134 4 196 9 92 7 117 12 140 30 15 12 40 29 57 38 22 13 72 19 194 25
91 5 179 11 196 15 16 3 62 17 102 30 40 13 116 33 170 45 54 11 153 23 221
26 117 6 125 7 174 40 29 18 64 33 78 33 14 0 90 5 170 10 80 6 188 14 241 19
74 7 107 15 140 34 24 14 58 28 74 31 17 4 102 13 190 21 88 8 216 15 285 15
69 0 168 7 220 14 52 8 115 23 140 35 29 13 66 21 105 21 33 0 92 8 130 16 40
9 159 19 280 23 189 7 222 11 327 39 64 17 139 34 165 37 26 3 190 11 363 17
173 6 371 13 440 17 112 5 129 9 160 31 32 23 46 25 180 31 80 3 184 6 232 7
48 1 89 -2 92 -7z"/>
<path d="M17705 8209 c-16 -5 -70 -31 -120 -58 -66 -35 -93 -56 -100 -75 -6
-18 -5 -45 4 -84 7 -31 17 -93 23 -137 5 -44 26 -136 45 -205 20 -69 40 -134
46 -145 6 -11 23 -32 38 -46 15 -14 32 -44 39 -67 8 -31 21 -49 48 -67 20 -14
52 -37 71 -50 24 -18 47 -25 77 -25 31 0 50 6 65 21 17 17 20 28 14 57 -4 21
-11 63 -15 94 -5 32 -20 88 -35 125 -14 37 -33 84 -42 103 -11 23 -18 72 -21
140 -3 58 -3 130 -2 160 1 30 3 93 4 139 1 79 -1 85 -24 102 -14 10 -38 21
-55 23 -16 3 -43 1 -60 -5z"/>
<path d="M22266 7304 c-16 -9 -65 -19 -110 -24 -44 -4 -89 -11 -98 -15 -9 -4
-24 -17 -32 -30 -8 -13 -30 -28 -48 -33 -18 -6 -59 -16 -91 -22 -43 -9 -62
-18 -74 -36 -9 -14 -28 -31 -42 -38 -14 -8 -52 -19 -84 -26 -45 -9 -66 -20
-95 -49 -31 -32 -49 -40 -106 -51 -56 -10 -73 -19 -98 -46 -17 -18 -45 -38
-62 -43 -17 -5 -50 -15 -73 -21 -30 -7 -47 -19 -60 -40 -12 -21 -35 -37 -77
-53 -32 -12 -71 -35 -85 -51 -14 -16 -43 -46 -65 -67 -21 -21 -54 -68 -72
-104 -19 -36 -34 -77 -34 -91 0 -14 12 -82 26 -152 16 -76 38 -150 55 -185 18
-35 36 -94 46 -155 14 -84 15 -107 4 -155 -7 -31 -23 -71 -36 -89 -14 -18 -33
-51 -44 -73 -11 -22 -23 -53 -26 -69 -3 -15 -24 -44 -45 -64 -22 -19 -40 -41
-40 -48 0 -7 -24 -38 -52 -69 -29 -31 -76 -80 -104 -108 -28 -29 -63 -71 -78
-94 -14 -23 -38 -50 -53 -60 -16 -9 -51 -38 -80 -65 -28 -26 -67 -55 -86 -64
-20 -9 -44 -32 -53 -50 -10 -19 -33 -41 -50 -49 -18 -8 -36 -15 -41 -15 -5 0
-23 -17 -40 -38 -23 -29 -44 -42 -91 -56 -46 -13 -67 -26 -87 -52 -18 -23 -41
-38 -77 -49 -32 -9 -62 -27 -82 -49 -17 -19 -57 -44 -89 -57 -34 -14 -67 -35
-78 -50 -13 -18 -40 -34 -82 -48 -43 -15 -75 -34 -101 -60 -20 -21 -55 -43
-76 -50 -24 -7 -50 -25 -68 -49 -21 -26 -46 -43 -85 -56 -31 -10 -68 -32 -83
-47 -15 -16 -50 -36 -77 -45 -28 -9 -69 -34 -92 -55 -23 -21 -62 -48 -86 -58
-24 -11 -59 -36 -78 -55 -19 -19 -47 -38 -64 -42 -16 -3 -48 -23 -71 -44 -23
-21 -68 -47 -104 -60 -35 -13 -67 -31 -72 -41 -6 -9 -17 -24 -25 -33 -8 -8
-39 -22 -68 -30 -40 -12 -61 -25 -84 -54 -23 -28 -45 -43 -78 -52 -26 -7 -65
-28 -87 -46 -22 -19 -63 -42 -91 -51 -29 -10 -90 -38 -137 -62 -80 -41 -92
-44 -193 -51 l-108 -7 -53 -54 c-30 -30 -71 -68 -92 -85 -22 -17 -56 -37 -77
-44 -21 -6 -47 -21 -57 -33 -12 -12 -20 -35 -20 -54 0 -18 9 -56 19 -84 11
-28 28 -57 38 -65 10 -7 28 -14 40 -14 11 0 40 15 62 34 29 24 59 38 99 46 31
6 65 14 75 16 10 3 37 25 60 48 35 36 52 45 104 55 52 10 67 18 88 46 19 25
38 36 73 44 26 5 62 13 80 16 23 5 40 17 55 41 17 27 34 38 77 50 40 12 66 28
95 59 28 30 54 47 85 55 27 7 60 26 81 47 26 25 56 40 102 52 43 12 87 34 132
67 38 27 87 66 111 87 23 20 62 44 87 53 33 11 52 25 66 49 15 26 31 36 76 49
33 10 71 31 94 52 23 20 61 41 92 50 36 10 68 29 94 55 22 21 61 46 86 54 35
12 51 25 65 51 16 29 29 38 87 57 40 12 80 33 96 49 14 14 47 36 72 46 26 11
56 34 68 50 12 17 41 40 65 52 25 11 64 37 88 56 24 19 61 39 82 45 24 6 52
26 73 49 23 25 55 46 94 61 41 15 68 33 86 56 18 24 39 37 71 45 33 8 58 25
91 58 25 26 64 59 86 73 22 14 66 52 98 84 31 32 87 92 123 133 37 41 79 83
95 93 16 10 42 43 60 73 17 30 42 62 56 72 15 9 37 28 49 42 13 14 42 46 63
73 22 26 45 66 51 88 6 22 26 57 44 77 19 20 38 55 44 77 6 22 18 72 26 110 9
39 16 93 16 121 0 28 -4 75 -10 104 -5 29 -15 105 -21 168 -6 64 -17 132 -25
150 -8 21 -14 68 -14 116 0 45 6 92 13 106 7 14 33 36 58 50 25 14 60 37 79
52 19 14 62 38 95 53 33 14 74 39 90 55 20 20 52 34 100 46 56 14 77 25 105
55 26 27 49 40 90 49 42 10 64 23 95 55 37 37 48 43 114 53 40 7 91 22 114 34
23 12 98 41 166 64 68 23 128 49 132 56 5 7 9 19 9 26 0 7 -28 30 -62 52 -35
22 -72 40 -83 40 -11 -1 -33 -8 -49 -16z"/>
<path d="M20400 7115 c-36 -14 -73 -25 -83 -25 -10 0 -35 -9 -57 -20 -22 -11
-44 -29 -50 -40 -6 -11 -23 -26 -38 -34 -15 -8 -45 -18 -67 -22 -24 -4 -54
-21 -80 -46 -29 -26 -56 -41 -86 -46 -24 -5 -84 -4 -134 1 -49 5 -175 6 -280
3 -104 -3 -229 -9 -276 -14 -68 -7 -98 -15 -142 -40 -41 -23 -81 -35 -152 -46
-90 -13 -99 -17 -145 -58 -28 -23 -74 -64 -103 -90 -28 -25 -77 -57 -107 -71
-30 -13 -68 -38 -84 -55 -16 -18 -52 -39 -80 -48 -34 -12 -68 -34 -103 -68
-28 -28 -67 -65 -85 -82 -18 -16 -44 -52 -57 -78 -23 -47 -23 -48 -6 -109 9
-34 21 -69 26 -79 5 -9 45 -28 90 -43 73 -25 85 -26 125 -15 28 8 61 10 92 5
26 -4 79 -8 117 -9 39 0 91 6 117 14 39 11 55 12 102 0 47 -11 58 -11 72 1 9
7 25 32 34 54 16 36 23 42 76 58 55 16 62 17 107 1 36 -12 54 -26 72 -54 13
-21 32 -41 42 -43 10 -3 33 -8 51 -12 21 -4 43 -20 64 -46 20 -24 38 -38 48
-36 8 3 31 12 50 20 33 14 38 14 89 -10 53 -26 59 -26 329 -30 259 -3 277 -3
331 17 31 12 70 30 87 41 17 10 73 28 124 40 73 17 100 28 128 53 25 24 33 38
28 52 -3 11 -21 29 -38 39 -27 16 -51 20 -133 20 -55 0 -152 -8 -215 -17 -63
-9 -130 -22 -148 -29 -25 -8 -44 -8 -80 1 -26 6 -117 16 -202 20 -152 8 -155
9 -178 36 -21 24 -23 34 -17 78 3 27 11 59 17 70 6 12 25 37 43 56 17 19 39
56 49 81 14 40 23 49 62 64 25 9 54 30 66 46 15 19 42 35 85 50 53 17 68 28
88 59 20 32 34 41 94 59 43 13 77 30 88 45 10 12 28 28 40 34 12 7 45 17 73
23 34 7 65 23 89 44 20 18 60 39 92 48 30 9 63 25 71 34 9 10 21 45 27 78 9
46 8 62 -1 72 -7 6 -31 14 -53 17 -28 3 -60 -3 -105 -19z m-826 -401 c9 -3 16
-11 16 -18 0 -6 -21 -24 -47 -41 -26 -16 -54 -38 -62 -48 -9 -10 -41 -31 -71
-47 -31 -15 -62 -40 -69 -54 -8 -14 -28 -32 -46 -40 -18 -9 -37 -21 -42 -28
-6 -7 -13 -26 -17 -42 -4 -16 -29 -54 -57 -84 -27 -29 -49 -58 -49 -62 0 -5
-9 -14 -20 -20 -15 -8 -29 -6 -59 10 -22 11 -52 20 -66 20 -15 0 -35 -4 -45
-10 -10 -5 -21 -23 -25 -39 -3 -16 -13 -35 -21 -42 -11 -9 -26 -10 -62 -2 -28
6 -72 8 -108 3 -33 -4 -70 -12 -82 -19 -11 -6 -34 -11 -50 -11 -16 0 -36 8
-46 19 -9 10 -14 25 -10 35 3 9 24 27 45 39 21 13 49 38 61 57 13 18 43 48 68
67 25 18 62 44 82 58 21 14 47 43 57 64 16 31 30 42 68 55 26 9 59 28 74 41
21 21 48 29 149 47 77 13 141 29 168 44 25 13 60 24 77 24 18 0 48 7 66 15 19
8 51 14 71 15 20 0 43 -3 52 -6z"/>
</g>
</svg>
