<?xml version="1.0" encoding="UTF-8" standalone="no"?>
<!-- Created with Inkscape (http://www.inkscape.org/) -->

<svg
   xmlns:svg="http://www.w3.org/2000/svg"
   xmlns="http://www.w3.org/2000/svg"
   version="1.1"
   width="165.20534"
   height="52.634609"
   id="svg3267">
  <defs
     id="defs3269" />
  <g
     transform="translate(-85.968784,-8.9020209)"
     id="layer1">
    <path
       d="m 87.034503,44.513733 c -0.15625,-0.05125 -0.31125,-0.1025 -0.46625,-0.155 -0.0175,0.275 -0.035,0.55 -0.05125,0.82375 3.81125,-0.99625 7.3275,-3.7725 10.45,-6.05625 3.662497,-2.6775 7.056247,-5.24125 9.594997,-9.04625 2.71375,-4.07 5.26625,-8.46625 7.60375,-12.76 0.8975,-1.6475 1.4975,-3.2025 2.2275,-4.91875 0.43,-1.00875 1.36875,-2.175 0.905,-3.2825002 -0.0587,-0.14 -0.245,-0.21125 -0.38375,-0.21625 -1.88625,-0.0575 -2.535,5.2700002 -2.82375,6.5262502 -0.425,1.85 -1.0275,3.615 -1.35125,5.49125 -0.36625,2.13 -0.5375,4.2825 -0.895,6.4125 -0.3825,2.285 -0.85875,4.535 -1.09625,6.8425 -0.2575,2.5125 -0.835,4.27 -2.0225,6.48875 -0.60625,1.1325 -1.1325,2.3225 -1.83125,3.39875 -1.90375,2.93375 -5.29875,-1.81125 -6.0725,-3.39125 -0.25125,0.17 -0.50375,0.34125 -0.75625,0.51125 4.1925,3.4375 11.2,0.7825 15.52,-0.975 2.24875,-0.91625 10.2225,-8.18375 5.9,-10.32375 -1.46875,-0.7275 -2.67625,1.46125 -3.0725,2.45875 -0.66125,1.67125 -0.7425,4.6 0.57,6.03 1.3525,1.4725 3.23875,1.2175 4.915,0.4325 2.64875,-1.23875 3.31375,-4.57875 5.2675,-6.4775 -0.23375,-0.17375 -0.4675,-0.34875 -0.70125,-0.5225 -1.64625,2.72875 0.0937,5.12125 3.01125,5.63125 1.5,0.26125 3.225,0.10125 4.61625,-0.51 2.76875,-1.2175 4.60625,-4.8625 8.1575,-3.8725 0.0587,-0.27875 0.1175,-0.5575 0.17625,-0.83625 -2.21875,-0.1425 -3.22875,0.1375 -4.78875,1.94875 -0.92125,1.07125 -2.1375,2.53125 -1.8975,4.04375 0.24,1.51125 3.01875,0.7325 3.79625,0.47375 0.93,-0.30875 1.86375,-0.8675 2.6625,-1.42625 1.445,-1.01 1.58875,-1.95625 2.4525,-3.4625 0.305,-0.5325 -0.43,-0.84375 -0.7775,-0.43625 -1.1775,1.38125 -1.71875,3.20375 -2.39375,4.865 -1.02375,2.52375 -1.9075,5.1625 -2.475,7.825 -0.5575,2.62125 -1.50875,5.34625 -3.44375,7.28375 -2.05875,2.06125 -5,1.56625 -7.0925,-0.0625 -3.21375,-2.5025 3.4275,-4.71 4.91375,-5.40875 2.5225,-1.18625 5.02375,-2.40875 7.5175,-3.65375 2.28375,-1.14125 4.575,-2.31875 6.90125,-3.3725 1.64625,-0.745 3.18,-1.3625 4.38875,-2.7475 1.20625,-1.38125 0.07,-3.7925 -1.78125,-3.58875 -2.04625,0.22875 -3.5575,2.25625 -4.36,3.9825 -0.7775,1.67375 -0.41875,3.47375 1.53875,3.86625 3.495,0.7 7.02625,-3.12375 9.11,-5.3575 0.4075,-0.4375 -0.2225,-1.01125 -0.62375,-0.6075 -1.37625,1.38625 -2.20875,3.345 -2.23375,5.3 -0.025,1.8475 1.68625,2.28625 3.18375,2.4025 0.9675,0.075 2.01125,-0.03125 2.9625,-0.23 1.2225,-0.255 -0.75,2.70875 -0.78875,2.76125 -0.59,0.8275 -1.12625,1.68875 -1.72375,2.51375 -2.4675,3.40875 -4.46875,6.78 -8.07625,9.14125 -1.44125,0.94375 -3.0275,1.62625 -4.67875,2.10375 -0.24625,0.0575 -0.49125,0.115 -0.73625,0.17125 -2.00625,0.33375 -2.69,-1.8125 -1.13875,-3.0875 0.66375,-0.7325 1.565,-1.26125 2.40875,-1.75 3.4875,-2.02 7.17375,-3.61 10.7775,-5.40125 4.08625,-2.03 11.11,-2.70125 12.92,-7.5975 0.2025,-0.54875 -0.6925,-0.745 -0.88125,-0.23625 -1.23375,3.34 -5.19,4.25875 -8.21125,5.2925 -3.80875,1.3025 -7.46375,3.2825 -11.06625,5.06375 -2.75875,1.3625 -6.285,2.825 -7.75875,5.7175 -0.83375,1.63875 0.71875,3.245 2.3925,2.955 3.49125,-0.60375 7.035,-2.34 9.50375,-4.91375 2.75625,-2.8725 4.7725,-6.28 7.04625,-9.53625 0.63,-0.9025 2.875,-4.04 0.33125,-4.0975 -1.42625,-0.03375 -2.71375,0.40375 -4.1825,0.165 -2.99125,-0.48625 -0.4925,-5.055 0.57375,-6.13 -0.2075,-0.2025 -0.415,-0.405 -0.62375,-0.6075 -1.35875,1.45625 -2.7725,2.825 -4.4325,3.93875 -1.28875,0.86625 -5.20125,2.40625 -5.05125,-0.41 0.0625,-1.195 0.9275,-2.38 1.695,-3.2325 0.375,-0.4175 0.82,-0.76125 1.3,-1.04875 1.91375,-1.1375 2.415,1.575 1.09625,2.74875 -1.47375,1.31375 -3.79625,1.91 -5.545,2.7675 -2.055,1.0075 -4.105,2.04125 -6.15375,3.065 -1.99625,0.9975 -4.01125,1.94875 -6.02625,2.90875 -1.65625,0.78875 -3.46375,1.3775 -4.96125,2.4475 -1.875,1.3375 -1.50875,3.52625 0.27625,4.67875 2.24125,1.44875 4.54,1.75125 6.92,0.44 2.52125,-1.38875 4.0275,-5.08875 4.56125,-7.7325 0.4825,-2.3925 1.23125,-4.63875 2.03125,-6.94 0.705,-2.02625 1.46125,-4.57125 2.8675,-6.21875 -0.25875,-0.145 -0.51875,-0.29125 -0.7775,-0.43625 -0.805,1.40375 -1.3025,2.67375 -2.7775,3.57875 -0.38625,0.2425 -0.785,0.46625 -1.19625,0.6675 -1.115,0.58625 -3.79375,0.6425 -2.7825,-1.22625 1.12875,-2.0875 2.81625,-3.46625 5.25125,-3.3075 0.50125,0.0325 0.6875,-0.69375 0.17625,-0.83625 -2.445,-0.68125 -4.3025,0.51375 -6.14125,2.03375 -1.49625,1.2375 -2.84375,2.2 -4.82875,2.37625 -2.57625,0.23 -6.27125,-1.19 -4.33125,-4.40375 0.26875,-0.44625 -0.3425,-0.87125 -0.70125,-0.5225 -1.975,1.91875 -2.62625,4.795 -5.06875,6.345 -2.47125,1.5675 -4.19,-0.21375 -4.525,-2.5125 -0.145,-0.995 0.0975,-2.01625 0.34625,-2.9725 0.6375,-2.165 2.7025,-2.36625 2.10875,0.2725 -0.27125,0.635 -0.59625,1.24 -0.97625,1.81375 -1.96625,3.18375 -4.69625,4.71 -8.13625,5.9375 -3.21,1.145 -8.5875,2.39875 -11.53625,-0.01875 -0.36125,-0.295 -0.991247,0.0325 -0.757497,0.51 0.816247,1.66625 3.304997,5.415 5.618747,4.875 2.33125,-0.545 3.2075,-3.59875 4.2075,-5.46625 0.7075,-1.32 1.31875,-2.4625 1.6175,-3.94875 0.49125,-2.44875 0.5475,-5.005 1.0125,-7.475 0.41375,-2.19875 0.66625,-4.39875 0.9725,-6.61125 0.36,-2.59875 1.14,-5.0375 1.72375,-7.58 0.23375,-1.01625 0.5,-2.00375 0.82875,-2.9925 0.0562,-0.1675 0.795,-2.4625002 0.3625,-1.69625 -0.77,1.37 -1.14125,3.00125 -1.68625,4.46625 -0.76125,2.05 -2.315,4.1275 -3.45625,5.98625 -1.28,2.085 -2.5575,4.15125 -3.76875,6.2775 -1.05625,1.85125 -2.21875,3.605 -3.49875,5.30875 -1.42625,1.9 -3.70875,3.3925 -5.594997,4.805 -1.745,1.30625 -3.5075,2.58875 -5.28875,3.84625 -1.845,1.30375 -4.505,2.8875 -6.72125,3.46625 -0.435,0.11375 -0.49625,0.67625 -0.05125,0.82375 0.155,0.05125 0.31,0.1025 0.46625,0.155 0.535,0.1775 0.865,-0.63 0.29375,-0.82"
       id="path230"
       style="fill:#231f20;fill-opacity:1;fill-rule:nonzero;stroke:none" />
    <path
       d="m 187.14075,16.019983 c -1.11625,0.8125 -0.63,3.0725 -0.7525,4.265 -0.3125,3.03125 -0.4575,6.075 -0.95375,9.0875 -0.56,3.39375 -1.345,6.82375 -2.29375,10.13125 -0.225,0.78625 -0.525,1.54375 -0.83625,2.2975 0.25625,-0.6225 -0.76,2.24625 -0.96,1.42375 -0.4,-1.6375 -0.56375,-3.51375 -0.59375,-5.19375 -0.0575,-3.22875 0.54125,-6.0525 1.28125,-9.18875 0.71625,-3.03625 1.18625,-5.95 2.65375,-8.74125 0.72,-1.36875 1.56,-2.64625 2.61125,-3.78375 1.68125,-1.8175 3.75875,0.46125 4.51625,1.5675 0.80125,1.17 0.4725,2.59625 0.165,3.84875 -0.42,1.71375 -1.2675,3.3625 -2.39,4.71 -0.84125,1.01 -1.875,2.9775 -2.97125,3.65375 0.2,0.19625 0.40125,0.3925 0.6025,0.59 1.10375,-1.37 2.935,-3.30625 4.97125,-1.64125 1.555,1.27125 0.74125,3.68125 0.015,5.0725 -1.36125,2.60375 -4.06125,4.89125 -7.05625,5.095 0.0225,0.28 0.0438,0.56 0.0663,0.84 1.9575,-0.4025 4.53375,0.47625 6.545,0.48 1.99,0.0025 4.20625,0.5875 6.13,-0.12625 1.71,-0.6325 3.21875,-0.99125 4.69,-2.13375 1.50375,-1.16625 2.715,-3.11875 3.5125,-4.80625 0.31625,-1.13875 1.3625,-1.49375 2.7425,-0.83375 0.34125,0.1625 0.0863,1.3025 0.0787,1.9575 0.0125,1.195 0.11875,2.3875 0.2375,3.57625 0.1225,1.24875 0.14375,3.28875 1.66375,3.69875 1.31,0.35125 2.80125,-1.64125 3.52625,-2.38875 0.665,-0.68375 1.365,-1.32 2.0025,-2.03125 0.63125,-0.70375 0.8575,-1.87875 1.5725,-2.47625 -0.2575,-0.10375 -0.51625,-0.20875 -0.775,-0.31375 -0.165,1.52875 -0.845,5.28625 2.11,3.8125 0.525,-0.26125 4.93375,-3.3275 5.04,-1.9475 0.1025,1.32375 -0.5475,2.72875 0.20625,3.95125 0.12875,0.20625 0.4125,0.2775 0.62625,0.15875 0.60625,-0.335 0.95625,-0.7425 1.3775,-1.28875 1.0225,-1.3275 2.6475,-2.39 4.0325,-3.29375 1.74625,-1.13875 3.19875,-0.52875 4.265,1.1625 0.41375,0.655 1.04375,1.18125 1.765,1.465 4.20125,1.6575 10.245,1.88 14.36125,-0.065 0.54625,-0.25875 0.095,-0.9875 -0.42625,-0.74125 -2.67125,1.26125 -5.345,1.04 -8.19875,1.03 -2.9525,-0.01125 -5.765,-0.62875 -7.3875,-3.25125 -2.0525,-3.31625 -5.90625,0.2725 -7.86125,1.93625 -0.49625,0.4225 -0.90875,0.825 -1.32875,1.32125 -0.9625,1.145 -0.55,-1.6775 -0.52375,-1.96375 0.065,-0.69375 0.04,-1.50375 -0.75625,-1.7175 -1.025,-0.27625 -2.29625,0.31375 -3.1075,0.8725 -0.9175,0.63375 -1.77625,1.375 -2.84625,1.74375 -1.17875,0.40625 -0.47125,-2.69375 -0.42,-3.16625 0.045,-0.4225 -0.51,-0.535 -0.775,-0.31375 -0.32125,0.2675 -0.52,0.4575 -0.70125,0.8525 -0.59375,1.305 -1.355,2.19375 -2.3925,3.1875 -0.635,0.60875 -1.2325,1.25 -1.86875,1.855 -1.14875,0.6975 -2.265,-0.23375 -2.1675,-1.4325 -0.1575,-1.11 -0.23375,-2.23 -0.295,-3.35 -0.0813,-1.49 0.23375,-3.01125 -0.77875,-4.21625 -0.46,-0.545 -1.79,-0.6575 -2.3725,-0.295 -1.3125,0.81375 -1.79375,2.81625 -2.5775,4.0875 -1.41375,2.29625 -3.29875,3.70125 -5.90375,4.33125 -2.44625,0.59125 -4.67625,0.3025 -7.18125,0.29875 -2.01,-0.0038 -4.05,-0.86 -6.03125,-0.45375 -0.4925,0.10125 -0.46375,0.87625 0.0675,0.84 4.1875,-0.28375 8.7725,-4.41125 8.9025,-8.76375 0.055,-1.83875 -1.1175,-3.265 -2.82125,-3.73125 -1.88625,-0.51625 -3.69875,1.3975 -4.7325,2.67875 -0.29625,0.3675 0.245,0.81 0.6025,0.58875 1.6375,-1.01125 2.68125,-3.19 3.90625,-4.66 1.4175,-1.70125 2.1325,-4.37 2.31,-6.52625 0.14375,-1.725 -1.35875,-3.4775 -2.71625,-4.32375 -1.4775,-0.92 -2.56375,-0.7325 -3.86875,0.38125 -4.0725,3.47625 -4.625,9.53375 -5.88125,14.33125 -0.695,2.6575 -1.06625,5.22125 -0.96875,7.9725 0.065,1.865 -0.10125,4.765 0.9975,6.345 0.11,0.1575 0.31125,0.265 0.50875,0.20125 1.23125,-0.39375 1.72375,-2.2 2.165,-3.27625 1.18125,-2.87375 1.685,-6.1175 2.33,-9.1425 0.55875,-2.6225 0.93375,-5.24875 1.145,-7.92125 0.105,-1.3125 0.1775,-2.6125 0.34375,-3.9175 0.0925,-0.72125 -0.23875,-3.17375 0.44875,-3.67375 0.49,-0.35625 -0.17375,-0.93625 -0.6225,-0.60875"
       id="path232"
       style="fill:#231f20;fill-opacity:1;fill-rule:nonzero;stroke:none" />
  </g>
</svg>
