<?xml version="1.0" encoding="utf-8"?>
<!-- Generator: Adobe Illustrator 16.0.0, SVG Export Plug-In . SVG Version: 6.00 Build 0)  -->
<!DOCTYPE svg PUBLIC "-//W3C//DTD SVG 1.1//EN" "http://www.w3.org/Graphics/SVG/1.1/DTD/svg11.dtd">
<svg version="1.1" id="Layer_2" xmlns="http://www.w3.org/2000/svg" xmlns:xlink="http://www.w3.org/1999/xlink" x="0px" y="0px"
	 width="470.5px" height="204.703px" viewBox="0 0 470.5 204.703" enable-background="new 0 0 470.5 204.703" xml:space="preserve">
<path fill="none" stroke="#000000" stroke-width="5" stroke-linecap="round" stroke-linejoin="round" stroke-miterlimit="10" d="
	M323.167,16.703c0,0-19.75,34.084-31,34.167c-7.082,0.053,4.157-21.688,12.833-20.834c5.411,0.532,3.746,6.771-2.25,13.084
	c-4.989,5.254-9.293,12.304-12.333,20.333c-11.375,7.125-30.125,50.375-35.11,51.192c0.61-8.942,16.452-49.402,22.485-63.192
	c3.5-8,8.517-10.239,2.25,1.25c-3.75,6.875-12.5,15.25-12.125,6c0.344-8.464-8.625-8.5-15.375,10.25
	c13.875-25.75-112.152,20.628-205.125,56.25c93.729-17.623,306.25-56.5,420.25-51.5c-314,44-481.5,80.5-463.517,113.521
	c23.237,42.668,324.017-24.021,377.017-44.521"/>
<path fill="none" stroke="#000000" stroke-width="5" stroke-linecap="round" stroke-linejoin="round" stroke-miterlimit="10" d="
	M308.729,4.516c0.719,0,1.438,0.75,1.438,1.5"/>
</svg>
