<?xml version="1.0" encoding="UTF-8" standalone="no"?>
<!-- Created with Inkscape (http://www.inkscape.org/) -->

<svg
   xmlns:dc="http://purl.org/dc/elements/1.1/"
   xmlns:cc="http://creativecommons.org/ns#"
   xmlns:rdf="http://www.w3.org/1999/02/22-rdf-syntax-ns#"
   xmlns:svg="http://www.w3.org/2000/svg"
   xmlns="http://www.w3.org/2000/svg"
   version="1.1"
   width="217"
   height="186"
   id="svg2985">
  <metadata
     id="metadata2991">
    <rdf:RDF>
      <cc:Work
         rdf:about="">
        <dc:format>image/svg+xml</dc:format>
        <dc:type
           rdf:resource="http://purl.org/dc/dcmitype/StillImage" />
        <dc:title></dc:title>
      </cc:Work>
    </rdf:RDF>
  </metadata>
  <defs
     id="defs2989" />
  <path
     d="m 78.827864,167.52618 c -0.369674,-0.38708 -2.619674,-1.13666 -5,-1.66572 C 68.84202,164.75227 59,155.93187 59,152.57175 c 0,-1.6078 0.963417,-1.04764 4.94777,2.87681 2.721273,2.68035 6.658773,5.55127 8.75,6.37981 4.697618,1.8612 21.109092,2.76477 22.628023,1.24584 0.590814,-0.59082 2.446707,-1.07458 4.124207,-1.07502 4.04698,-0.001 12.7502,-3.36391 14.03087,-5.42138 0.81438,-1.30835 0.21551,-2.32782 -2.98087,-5.07437 -2.2,-1.89039 -6.025,-4.20449 -8.5,-5.14245 -2.475,-0.93796 -4.969583,-2.05588 -5.543518,-2.48427 -0.573934,-0.42838 -4.84096,-1.97849 -9.482278,-3.44468 -7.335959,-2.31743 -9.421199,-2.57695 -15.956483,-1.9859 -5.377063,0.48631 -8.10557,1.23146 -9.582172,2.61689 C 58.973365,143.37317 58,143.5114 58,141.55089 58,139.09073 64.354428,135 68.175976,135 c 3.070236,0 3.847781,-0.56795 6.50292,-4.75 1.658648,-2.6125 3.299905,-5.425 3.647237,-6.25 0.347332,-0.825 1.748719,-3.3 3.114192,-5.5 1.365474,-2.2 4.187503,-7.375 6.271177,-11.5 C 89.795176,102.875 91.8375,99.35 92.25,99.166667 92.6625,98.983333 93,98.060833 93,97.116667 93,96.1725 93.383659,94.9725 93.852575,94.45 c 0.468916,-0.5225 1.438292,-3.2 2.154169,-5.95 0.715876,-2.75 1.501893,-5.366814 1.746702,-5.815143 0.879319,-1.610327 4.220564,2.663631 4.848864,6.202431 1.52855,8.609357 3.20133,13.628272 4.63688,13.912292 3.49487,0.69144 10.48082,-11.698825 16.23795,-28.79958 1.67621,-4.978967 2.63694,-6.5 4.10557,-6.5 1.67485,0 1.98051,0.948374 2.41729,7.5 0.41387,6.207977 1.02204,8.275214 3.53036,12 2.4224,3.597203 3.69505,4.564266 6.34354,4.820335 2.00387,0.193744 4.00016,-0.301372 5.05156,-1.252881 2.41563,-2.186113 11.62668,-3.712256 20.29103,-3.36194 9.0374,0.365399 9.60659,2.208013 0.78351,2.53644 -3.575,0.133075 -8.75,0.898215 -11.5,1.700311 -2.75,0.802097 -6.575,1.83506 -8.5,2.295473 -2.02307,0.483869 -3.5,1.454295 -3.5,2.299689 0,1.94477 6.72923,2.419607 13.69708,0.966512 15.47311,-3.226805 19.84804,-3.903315 25.55292,-3.951333 3.4375,-0.02893 6.25,0.342294 6.25,0.824949 0,2.043263 -3.55477,3.509425 -9.81344,4.04754 L 171.5,98.5 170.98744,104 c -0.40448,4.3402 -1.40799,6.80913 -4.75884,11.70814 -2.33545,3.41448 -4.65541,7.28427 -5.15547,8.59952 -0.96585,2.54037 -22.43454,23.16464 -30.18354,28.99635 -6.69618,5.03938 -14.89276,8.45471 -29.38959,12.24599 -6.723895,1.75847 -21.638515,3.05848 -22.672136,1.97618 z m 49.241526,-17.61716 c 2.98684,-2.25003 6.39549,-4.47079 7.57479,-4.93501 2.74708,-1.08137 21.28496,-18.7691 22.47777,-21.44694 0.49661,-1.11489 1.75702,-3.43377 2.80091,-5.15308 1.04388,-1.7193 2.57952,-5.7693 3.41254,-9 0.83301,-3.23069 1.77833,-6.54899 2.1007,-7.37399 0.50657,-1.29637 -1.45529,-1.48148 -14.45192,-1.36354 l -15.03806,0.13646 -5.10412,6.74238 c -3.28517,4.33961 -6.12653,9.6336 -7.97306,14.85532 C 121.333,129.54187 121,131.84836 121,142.24178 121,148.7088 121.36873,154 121.81939,154 c 0.45067,0 3.26317,-1.84094 6.25,-4.09098 z M 117.24346,141.25 c 0.28764,-7.45327 0.97848,-11.28115 2.93272,-16.25 4.44189,-11.2939 6.99724,-16.01827 10.96641,-20.27482 4.39756,-4.71596 4.97658,-8.40237 1.77486,-11.29989 C 130.30581,91.061791 128,85.647164 128,81.877876 c 0,-5.064652 -2.01111,-3.118104 -6.58347,6.372124 -7.75699,16.10013 -8.56631,17.20673 -12.84714,17.56621 -4.59623,0.38597 -7.12147,-1.61506 -8.00909,-6.3465 -0.35077,-1.869753 -1.026281,-3.639668 -1.501134,-3.933143 -1.141297,-0.705361 -8.832127,12.022013 -10.566309,17.485943 -0.416998,1.31384 -2.498481,4.93835 -4.625518,8.05446 C 81.740303,124.19308 80,127.44897 80,128.31229 c 0,0.86332 -0.45,1.84779 -1,2.18771 -0.55,0.33992 -1,1.49148 -1,2.55902 0,1.6472 0.718946,1.9428 4.75,1.95303 3.154646,0.008 6.149798,0.81249 8.917753,2.3953 2.292264,1.31079 5.72535,2.89731 7.629081,3.5256 1.903726,0.62829 4.260486,2.0254 5.237236,3.1047 0.97675,1.07929 2.28136,1.96235 2.89914,1.96235 0.61777,0 2.68553,1.10293 4.59501,2.45096 1.90948,1.34803 3.77939,2.47303 4.15537,2.5 0.37597,0.027 0.85291,-4.33846 1.05987,-9.70096 z M 30,114.42857 c 0,-0.97451 2.37086,-3.00632 6.688203,-5.73174 2.279023,-1.43868 4.450217,-3.11178 4.824877,-3.71799 0.374659,-0.60621 1.649986,-1.53409 2.834059,-2.06194 C 52.892369,99.107488 87,67.291865 87,63.130282 c 0,-0.810041 0.729577,-2.278974 1.621281,-3.264296 0.903465,-0.998317 1.341361,-2.520956 0.989046,-3.439074 -0.552848,-1.440698 -1.061966,-1.319807 -4.054559,0.962754 C 83.67349,58.82535 81.723163,60 81.221709,60 c -0.501453,0 -1.70314,0.874494 -2.670414,1.943319 -0.967274,1.068826 -3.074033,2.23222 -4.681688,2.58532 -1.607654,0.3531 -4.823493,1.677114 -7.146308,2.942254 -7.592214,4.13516 -20.063352,7.66773 -25.892087,7.334183 L 35.5,74.5 35.197841,70.887657 C 34.934194,67.735718 35.564157,66.543898 40.140555,61.536589 43.390391,57.98075 47.689487,54.637853 51.442713,52.74824 54.774221,51.070947 59.75,48.535909 62.5,47.114822 c 4.186062,-2.163184 6.627876,-2.640494 15,-2.9321 9.669411,-0.336792 10.080145,-0.262922 12.424314,2.234486 2.765322,2.946092 4.299682,3.222746 6.066525,1.09383 1.016123,-1.224353 0.682457,-2.119103 -1.877555,-5.034796 C 91.16094,39.113708 90.050581,36 91.803833,36 92.245941,36 94.134217,37.575 96,39.5 c 1.865783,1.925 3.752762,3.5 4.19329,3.5 0.44052,0 2.54429,-1.575 4.67503,-3.5 3.66287,-3.30918 6.13626,-4.419151 6.12794,-2.75 -0.003,0.698404 -2.32746,4.478312 -5.19876,8.455666 -1.32418,1.834275 0.0251,7.183711 2.84179,11.26684 C 109.83916,58.21185 110,57.522314 110,50.639173 c 0,-8.348464 1.39007,-9.905728 3.43111,-3.843789 1.61837,4.806605 2.99408,4.278443 3.37411,-1.295384 0.40128,-5.885535 3.1275,-9.630654 5.54814,-7.621701 0.80433,0.667532 2.19997,2.767995 3.10144,4.667697 1.70934,3.602163 3.72646,4.737766 3.02674,1.704004 -1.52406,-6.607872 -3.78687,-13.899518 -4.56183,-14.7 -1.3337,-1.377624 -1.12888,-8.940829 0.28029,-10.35 3.76809,-3.768091 8.10782,0.735719 8.82005,9.153523 l 0.52006,6.146477 2.18044,-4.586472 c 2.42744,-5.106014 4.66148,-7.413487 6.23565,-6.440601 2.50543,1.548447 0.18673,8.096958 -4.87822,13.777073 l -2.45216,2.75 4.03345,0 c 2.2184,0 5.34009,-0.629052 6.93709,-1.397893 1.597,-0.76884 4.02864,-1.722283 5.40364,-2.118761 l 2.5,-0.72087 -2.73323,2.905976 c -1.5565,1.654877 -5.21597,3.718247 -8.5,4.792671 -3.17172,1.037683 -7.20188,3.220164 -8.9559,4.849959 -2.59314,2.409481 -3.76116,2.84886 -6.25,2.351091 C 124.48793,50.147587 124,50.359226 124,51.989816 c 0,3.202593 -7.26809,5.705907 -8.22568,2.833133 C 114.89442,52.183251 113,55.417232 113,59.559017 113,62.001558 112.74542,64 112.43426,64 111.16772,64 108,61.867559 108,61.014948 c 0,-1.514814 -6.14503,-10.133372 -7.63191,-10.703941 -0.760943,-0.292 -2.505057,0.203942 -3.87581,1.102095 C 94.63277,52.631499 94,53.922356 94,56.497376 c 0,2.788119 -1.198092,4.849271 -6.235283,10.726947 -7.633356,8.907027 -28.074829,29.296164 -31.651882,31.570845 -1.437059,0.913839 -5.461482,3.846832 -8.943162,6.517772 -3.48168,2.67093 -7.838408,5.48636 -9.681619,6.2565 -1.84321,0.77014 -3.633621,1.85708 -3.97869,2.41541 C 32.850182,115.05143 30,115.4118 30,114.42857 z M 53.40589,69.589301 C 55.107651,68.84318 58.632596,67.280356 61.239102,66.116359 63.845607,64.952361 66.55798,64 67.266595,64 c 0.708616,0 2.280037,-0.694575 3.492046,-1.543499 1.21201,-0.848925 4.799638,-2.900244 7.972506,-4.558488 7.731303,-4.040628 10.077693,-6.390283 8.649871,-8.66191 -2.485757,-3.954773 -22.688311,-2.185543 -26.422553,2.313944 -0.588454,0.709043 -3.277134,2.082874 -5.974844,3.052957 -6.142814,2.208925 -17.637197,13.251422 -16.60194,15.949258 0.559861,1.458973 1.509793,1.618326 6.294732,1.05595 3.099452,-0.36428 7.027717,-1.27279 8.729477,-2.018911 z M 130,27.622445 c 0,-5.049527 -1.70187,-8.587241 -3.34201,-6.947102 C 125.03402,22.299318 127.24184,33 129.20089,33 129.6404,33 130,30.5801 130,27.622445 z"
     id="path2995"
     style="fill:#2a2a28" />
</svg>
