<?xml version="1.0" encoding="UTF-8" standalone="no"?>
<!-- Created with Inkscape (http://www.inkscape.org/) -->

<svg
   xmlns:dc="http://purl.org/dc/elements/1.1/"
   xmlns:cc="http://creativecommons.org/ns#"
   xmlns:rdf="http://www.w3.org/1999/02/22-rdf-syntax-ns#"
   xmlns:svg="http://www.w3.org/2000/svg"
   xmlns="http://www.w3.org/2000/svg"
   xmlns:sodipodi="http://sodipodi.sourceforge.net/DTD/sodipodi-0.dtd"
   xmlns:inkscape="http://www.inkscape.org/namespaces/inkscape"
   width="380.11206"
   height="183.69789"
   id="svg2"
   version="1.1"
   inkscape:version="0.48.3.1 r9886"
   sodipodi:docname="ShirinEbadi_Signature.svg">
  <defs
     id="defs4" />
  <sodipodi:namedview
     id="base"
     pagecolor="#ffffff"
     bordercolor="#666666"
     borderopacity="1.0"
     inkscape:pageopacity="0.0"
     inkscape:pageshadow="2"
     inkscape:zoom="1.979899"
     inkscape:cx="239.34105"
     inkscape:cy="94.242737"
     inkscape:document-units="px"
     inkscape:current-layer="layer1"
     showgrid="false"
     inkscape:window-width="1600"
     inkscape:window-height="838"
     inkscape:window-x="-8"
     inkscape:window-y="-8"
     inkscape:window-maximized="1"
     fit-margin-top="0"
     fit-margin-left="0"
     fit-margin-right="0"
     fit-margin-bottom="0" />
  <metadata
     id="metadata7">
    <rdf:RDF>
      <cc:Work
         rdf:about="">
        <dc:format>image/svg+xml</dc:format>
        <dc:type
           rdf:resource="http://purl.org/dc/dcmitype/StillImage" />
        <dc:title />
      </cc:Work>
    </rdf:RDF>
  </metadata>
  <g
     inkscape:label="Layer 1"
     inkscape:groupmode="layer"
     id="layer1"
     transform="translate(-181.90208,-441.03267)">
    <path
       style="fill:#000000"
       d="m 355.48563,622.60348 -2.6259,-2.2587 5.07014,-9.75029 C 360.71844,605.23183 363,599.53063 363,597.92515 c 0,-2.78348 -0.24383,-2.94512 -5.25,-3.48015 -5.71196,-0.61047 -42.6631,-2.8935 -46.79876,-2.89147 -1.40182,6.9e-4 -4.92629,1.19541 -7.83216,2.65495 -6.28861,3.15859 -8.11908,3.31927 -8.11908,0.71272 0,-2.26121 -1.57311,-3.55875 -2.49875,-2.06104 -1.30353,2.10916 -8.73638,5.15982 -11.11636,4.56249 -1.31101,-0.32905 -3.51458,-2.38976 -4.89682,-4.57937 -1.38224,-2.1896 -3.08212,-3.9811 -3.77753,-3.9811 -0.6954,0 -3.72725,1.8525 -6.73745,4.11667 -8.63812,6.4973 -9.89504,6.71394 -13.57006,2.33891 l -3.09696,-3.68688 -2.17065,3.51218 c -2.30171,3.72426 -6.10268,6.71912 -8.52766,6.71912 -2.97428,0 -5.4007,-4.65746 -4.87166,-9.35105 0.50826,-4.50931 -1.21508,-7.43254 -2.33593,-3.96233 -1.37832,4.26734 -4.83719,10.37531 -7.0556,12.4594 l -2.39397,2.24902 -2.21139,-2.21138 -2.21138,-2.21139 2.34639,-6.54249 c 1.29052,-3.59837 2.09927,-6.78962 1.79723,-7.09167 -0.30205,-0.30204 -5.86419,-1.61537 -12.36031,-2.91849 -6.49613,-1.30313 -13.36799,-2.82629 -15.27081,-3.3848 -1.90282,-0.55851 -3.79658,-0.67857 -4.20836,-0.26679 -1.71073,1.71073 1.26156,3.34623 8.65059,4.75998 4.31651,0.82589 8.44879,2.00005 9.18282,2.60925 0.73404,0.60919 1.33462,2.87947 1.33462,5.04505 0,3.37259 -0.74457,4.72468 -5.19049,9.42559 -4.04246,4.27431 -5.75471,5.42226 -7.74145,5.19014 -3.91853,-0.45782 -3.62059,-3.2433 0.86773,-8.11255 5.85866,-6.35591 5.50095,-7.68549 -2.06771,-7.68549 -5.73579,0 -6.34951,-0.23071 -9.5,-3.5712 -4.64381,-4.92388 -4.6227,-9.49806 0.0722,-15.6468 3.42919,-4.49108 8.06745,-7.25923 16.05971,-9.58458 5.17081,-1.50445 21.91427,-4.78004 31.5,-6.16248 4.125,-0.5949 11.1,-1.93194 15.5,-2.97121 4.4,-1.03927 13.35581,-2.39442 19.90179,-3.01145 C 281.07577,547.71981 282,547.48268 282,545.42561 c 0,-0.7252 0.72821,-1.9229 1.61825,-2.66157 1.39747,-1.1598 1.92529,-0.95796 3.86883,1.47947 l 2.25058,2.8225 8.88117,-1.05287 c 4.88464,-0.57907 13.83117,-1.31411 19.88117,-1.63341 6.05,-0.3193 20,-1.2379 31,-2.04133 11,-0.80344 21.15149,-1.46427 22.55887,-1.46851 1.40738,-0.004 3.33683,-0.57657 4.28766,-1.27183 2.47965,-1.81316 4.64504,-16.57323 4.64966,-31.69365 l 0.004,-12.45777 -6.87998,-6.54223 c -12.29619,-11.69256 -18.15694,-23.04606 -18.25811,-35.36983 -0.10222,-12.45127 2.92241,-15.94963 7.71416,-8.9224 7.39853,10.85014 22.00716,38.91616 23.09975,44.3791 0.4881,2.44049 2.07041,4.00483 7.71907,7.63141 11.75053,7.54414 28.35277,15.0788 50.429,22.8864 7.15084,2.529 7.41377,2.54967 11.12794,0.87481 5.11523,-2.30665 7.20986,-1.71374 9.3402,2.64387 1.69133,3.4596 2.43087,3.87209 13.16068,7.34046 11.63351,3.7605 16.04853,6.65344 15.38779,10.08282 -0.48671,2.52618 -4.49429,3.33605 -20.17179,4.07644 -12.57171,0.59371 -13.94925,0.84359 -15.12655,2.74394 -7.27714,11.74643 -11.28734,17.09643 -15.90851,21.22352 -4.93487,4.40724 -5.55311,5.428 -6.54178,10.80089 -2.0871,11.34216 -1.38097,11.92789 5.5049,4.56634 5.46809,-5.84583 8.06083,-6.30697 11.24511,-2 1.2199,1.65 2.8494,3 3.62111,3 0.77171,0 3.0508,-2.01078 5.06463,-4.46841 4.25316,-5.19041 11.85486,-10.53159 14.98884,-10.53159 2.64022,0 5.08946,2.54533 6.01404,6.25 0.37747,1.5125 1.05721,2.75 1.51052,2.75 0.45331,0 1.10985,0.9 1.45898,2 1.05772,3.33259 2.88009,2.58684 12.63907,-5.17214 4.87737,-3.87781 8.30248,-4.50294 10.51482,-1.91911 0.98483,1.15019 2.54933,2.09125 3.47668,2.09125 2.49499,0 11.6283,-7.65329 27.36943,-22.93432 7.7,-7.47493 15.25078,-14.23079 16.77951,-15.01301 2.45428,-1.2558 2.96896,-1.23277 4.39855,0.19682 1.38542,1.38542 1.43553,2.06208 0.34726,4.68938 -0.69947,1.68868 -2.67882,4.31403 -4.39855,5.83409 C 552.70106,552.10509 540,566.66267 540,567.69227 c 0,0.4214 -1.56071,2.31952 -3.46825,4.21805 -3.23188,3.21661 -4.65975,6.95186 -2.65748,6.95186 0.48085,0 2.61835,-0.60763 4.75,-1.35028 4.90302,-1.70819 6.37573,-1.18632 6.37573,2.2593 0,3.36641 -3.72507,7.09098 -7.09194,7.09098 -1.35468,0 -3.45576,0.69532 -4.66908,1.54516 -1.21331,0.84984 -4.46037,1.81216 -7.21567,2.13849 -5.00784,0.5931 -5.01019,0.592 -6.5299,-3.04517 -0.83614,-2.00116 -1.88833,-3.63848 -2.33821,-3.63848 -0.44988,0 -4.81952,2.025 -9.71031,4.5 -9.74194,4.92994 -13.23285,5.49677 -15.87464,2.57762 -2.24187,-2.47723 -11.38287,-2.24315 -16.79654,0.43014 -3.31235,1.63565 -4.25657,1.69707 -8.5,0.5529 -2.62554,-0.70793 -7.09852,-1.34869 -9.93996,-1.42391 -2.84143,-0.0752 -5.48598,-0.4563 -5.87678,-0.84687 -1.05221,-1.05158 -6.64978,2.12986 -6.1911,3.51878 0.52392,1.58646 9.12243,2.37148 39.52862,3.60886 27.3876,1.11453 32.70655,1.93503 33.74454,5.20545 1.26304,3.9795 -0.48442,4.26172 -18.24555,2.94668 -9.23642,-0.68386 -17.91848,-1.40769 -19.29348,-1.60851 -1.375,-0.20081 -12.85,-0.84704 -25.5,-1.43606 -12.65,-0.58902 -24.125,-1.36888 -25.5,-1.73302 -1.375,-0.36414 -9.25,-0.72107 -17.5,-0.79319 -8.25,-0.0721 -20.11303,-0.67703 -26.36229,-1.34425 -12.5269,-1.33748 -13.50402,-1.07305 -14.50362,3.92493 -0.81944,4.0972 -7.41245,18.99205 -9.37082,21.17045 -2.0322,2.26052 -2.61821,2.20893 -5.77764,-0.5087 z m 71.48633,-30.6889 c 0.57328,-1.07119 1.15161,-4.78369 1.28518,-8.25 l 0.24286,-6.3024 -5.28584,0 c -3.6039,0 -5.59223,-0.4773 -6.24875,-1.5 -1.94619,-3.03175 -0.56024,-4.47715 5.42853,-5.66135 3.23027,-0.63875 6.74598,-2.03412 7.81269,-3.10083 1.66014,-1.66014 6.63134,-15.75212 7.12908,-20.20895 0.18056,-1.61677 2.04359,-1.59319 -33.0686,-0.41848 -12.28196,0.4109 -19.55962,1.04934 -20.13694,1.76653 -0.49722,0.61769 -1.21374,3.00165 -1.59226,5.29767 -0.9419,5.71335 1.10276,6.84125 9.60645,5.29923 6.90562,-1.25223 8.46598,-0.54173 7.47567,3.40397 -0.54107,2.15579 -1.50578,2.69583 -6.6095,3.69992 -6.35051,1.24939 -8.38723,2.71153 -7.83444,5.62425 0.26437,1.39294 1.57844,1.91069 5.83258,2.29804 5.05742,0.46049 5.49133,0.69754 5.49133,3 0,2.33191 -0.44984,2.55779 -6.69034,3.35949 -6.2458,0.80237 -6.76075,1.06146 -7.75,3.89922 -0.58281,1.67185 -1.05966,3.1772 -1.05966,3.3452 0,1.1686 7.26661,1.29745 10.53161,0.18674 4.57314,-1.55572 7.46839,-1.25969 7.46839,0.76362 0,1.65693 1.86723,2.19066 13.67394,3.90862 12.4204,1.80724 13.1219,1.7871 14.29802,-0.41049 z M 243.5,589.52885 c 0,-2.60655 -1.9609,-2.44297 -2.33415,0.19471 -0.22908,1.61892 0.0853,2.22156 1,1.91667 0.73378,-0.24459 1.33415,-1.19472 1.33415,-2.11138 z m 17,0.33333 c 1.14099,-1.84616 -0.48952,-3.07598 -2.5887,-1.95253 -1.08202,0.57908 -1.70316,1.4803 -1.38029,2.0027 0.77111,1.24769 3.18573,1.21717 3.96899,-0.0502 z m 25.75,-0.5 c -0.37059,-1.48236 -4.51236,-1.21293 -5.02565,0.32694 -0.31365,0.94097 0.38929,1.23184 2.41667,1 1.57244,-0.17982 2.74648,-0.77694 2.60898,-1.32694 z m 80.84705,-4.25 c 2.32655,-6.10762 9.00823,-34.53327 8.45574,-35.97301 -0.51472,-1.34136 -2.51359,-1.44886 -15.22921,-0.81904 -8.05019,0.39874 -15.24126,0.95697 -15.98015,1.2405 -0.73889,0.28354 -1.34343,1.38151 -1.34343,2.43992 0,3.1936 -2.86414,3.36597 -6.00053,0.36113 l -2.88113,-2.7603 -13.30917,1.19911 c -12.58839,1.13418 -20.63643,1.89471 -42.81655,4.04609 -5.22905,0.50719 -12.87905,1.40462 -17,1.99427 -22.93593,3.28183 -25.30118,4.17188 -24.80139,9.33289 0.28115,2.90325 0.58283,3.16108 3.3728,2.88258 2.48413,-0.24797 3.28938,0.18872 4.25467,2.3073 0.65485,1.43724 0.92403,3.6754 0.59818,4.9737 -0.42289,1.68493 -0.0665,2.63158 1.24533,3.30757 2.36235,1.21735 4.06019,0.59858 8.1818,-2.9818 1.83921,-1.5977 3.86421,-2.73653 4.5,-2.53075 0.6358,0.20578 1.94703,2.02918 2.91386,4.05199 0.96683,2.02282 2.1042,3.67785 2.52749,3.67785 1.81733,0 5.08052,-3.1976 6.66003,-6.52616 2.42257,-5.10519 6.79124,-7.46555 13.82605,-7.4701 5.11699,-0.003 5.89494,0.26731 6.86056,2.38661 0.9121,2.00185 0.66482,3.01477 -1.52144,6.23214 -3.47607,5.11549 -3.33704,6.37751 0.70258,6.37751 2.09331,0 5.75493,-1.47271 9.94522,-4 7.60375,-4.58603 8.72804,-4.7775 11.30872,-1.92587 1.18192,1.306 2.62807,1.88288 3.90499,1.55773 15.00732,-3.82147 13.82546,-3.70097 16.0258,-1.63386 2.02412,1.90156 2.10981,1.89057 7.85563,-1.00768 13.22118,-6.6689 18.85002,-4.19006 13.6465,6.00968 -1.1,2.15618 -2,4.13195 -2,4.39061 0,0.72573 3.9642,1.32319 9.77475,1.47321 4.88777,0.12619 5.35161,-0.0656 6.3223,-2.61382 z m -20.59361,-2.25666 c 2.08405,-4.03011 0.26464,-4.68096 -3.99756,-1.43003 -4.08278,3.11409 -4.36316,4.1563 -1.25588,4.66842 2.96828,0.48921 3.49314,0.16567 5.25344,-3.23839 z M 472,583.30316 c 0,-1.65007 -1.58044,-1.92885 -2.5,-0.44098 -0.81551,1.31952 0.38021,3.19207 1.5691,2.45729 0.51199,-0.31643 0.9309,-1.22377 0.9309,-2.01631 z m -146,0.059 c 0.68469,-0.825 0.96479,-1.55625 0.62244,-1.625 -2.37079,-0.47611 -3.33107,-0.40576 -4.90045,0.35896 -0.9779,0.47651 -1.51385,1.29381 -1.19098,1.81621 0.8967,1.45089 4.07348,1.13131 5.46899,-0.55017 z m -45.62613,-4.94785 c 1.0597,-1.61731 1.24699,-2.66844 0.552,-3.09796 -1.27566,-0.78841 -4.92587,2.32451 -4.92587,4.2008 0,2.19841 2.64835,1.53065 4.37387,-1.10284 z m -54.43015,-2.44699 c 0.55775,-1.04217 1.31054,-4.41717 1.67287,-7.5 0.76359,-6.49704 0.90362,-6.43128 -8.91107,-4.18476 -3.41304,0.78122 -8.45552,1.79372 -11.20552,2.25 -4.46782,0.7413 -5.03367,1.12225 -5.31638,3.57911 -0.36016,3.13004 1.40599,4.16218 10.81638,6.32108 8.21473,1.8846 11.75414,1.75733 12.94372,-0.46543 z m 219.00177,-20.07599 c 0.9977,-0.53395 2.54312,-2.79306 3.43426,-5.02023 2.02425,-5.0591 2.02781,-5.00894 -0.35641,-5.00894 -1.33212,0 -2.63643,1.36556 -4,4.18783 -2.99634,6.2017 -2.74352,7.80315 0.92215,5.84134 z M 422,538.78597 c 18.02423,-0.18958 19.76103,-0.58498 22.64635,-5.15563 1.37292,-2.17484 2.28021,-4.51716 2.0162,-5.20515 -0.264,-0.68799 -3.33358,-2.26508 -6.82128,-3.50464 -3.4877,-1.23956 -7.24127,-2.64737 -8.34127,-3.12848 -1.1,-0.4811 -4.33962,-1.77156 -7.19915,-2.86768 -5.93269,-2.27412 -22.26362,-10.48536 -30.05061,-15.10954 -3.86355,-2.2943 -5.36268,-2.76566 -5.67738,-1.78508 -0.23518,0.73283 -0.66201,5.83241 -0.9485,11.33241 -0.28649,5.5 -0.9884,13.31481 -1.5598,17.36624 -0.5714,4.05143 -0.76974,7.80178 -0.44075,8.33409 0.36496,0.59052 5.52577,0.74681 13.23718,0.40088 6.95146,-0.31184 17.36401,-0.61668 23.13901,-0.67742 z m 50.72467,-2.57915 c 0.43895,-1.33845 -6.1869,-3.79503 -7.70512,-2.85672 -1.62284,1.00297 -1.18233,3.32095 0.73045,3.84364 2.85325,0.77969 6.56767,0.2541 6.97467,-0.98692 z m -15.90825,-2.59464 c 0.35446,-3.08057 -0.89074,-3.53283 -3.24499,-1.17857 -2.35739,2.35739 -1.99473,4.62779 0.67857,4.24812 1.61101,-0.2288 2.33986,-1.10054 2.56642,-3.06955 z m -80.83183,-53.5 c -0.0201,-2.28555 -12.41151,-25.55897 -13.8665,-26.04397 -3.49792,-1.16597 1.54212,12.64047 7.94823,21.77301 4.33427,6.17893 5.94531,7.34154 5.91827,4.27096 z m 181.21541,98.55 c -2.97045,-2.97045 0.12029,-7.43892 3.31273,-4.78943 2.15563,1.78901 1.93631,5.98943 -0.31273,5.98943 -0.99,0 -2.34,-0.54 -3,-1.2 z"
       id="path2996"
       inkscape:connector-curvature="0" />
  </g>
</svg>
