<?xml version="1.0" encoding="UTF-8" standalone="no"?>
<!-- Created with Inkscape (http://www.inkscape.org/) -->
<svg
   xmlns:dc="http://purl.org/dc/elements/1.1/"
   xmlns:cc="http://creativecommons.org/ns#"
   xmlns:rdf="http://www.w3.org/1999/02/22-rdf-syntax-ns#"
   xmlns:svg="http://www.w3.org/2000/svg"
   xmlns="http://www.w3.org/2000/svg"
   xmlns:sodipodi="http://sodipodi.sourceforge.net/DTD/sodipodi-0.dtd"
   xmlns:inkscape="http://www.inkscape.org/namespaces/inkscape"
   width="540.0755"
   height="83.848541"
   id="svg2"
   sodipodi:version="0.32"
   inkscape:version="0.46"
   version="1.0"
   sodipodi:docname="Signature of Friedrich Seyler 1642-1708.svg"
   inkscape:output_extension="org.inkscape.output.svg.inkscape">
  <defs
     id="defs4">
    <inkscape:perspective
       sodipodi:type="inkscape:persp3d"
       inkscape:vp_x="0 : 526.18109 : 1"
       inkscape:vp_y="0 : 1000 : 0"
       inkscape:vp_z="744.09448 : 526.18109 : 1"
       inkscape:persp3d-origin="372.04724 : 350.78739 : 1"
       id="perspective10" />
    <inkscape:perspective
       id="perspective2447"
       inkscape:persp3d-origin="372.04724 : 350.78739 : 1"
       inkscape:vp_z="744.09448 : 526.18109 : 1"
       inkscape:vp_y="0 : 1000 : 0"
       inkscape:vp_x="0 : 526.18109 : 1"
       sodipodi:type="inkscape:persp3d" />
  </defs>
  <sodipodi:namedview
     id="base"
     pagecolor="#ffffff"
     bordercolor="#666666"
     borderopacity="1.0"
     gridtolerance="10000"
     guidetolerance="10"
     objecttolerance="10"
     inkscape:pageopacity="0.0"
     inkscape:pageshadow="2"
     inkscape:zoom="0.615"
     inkscape:cx="342.66538"
     inkscape:cy="-123.10065"
     inkscape:document-units="px"
     inkscape:current-layer="layer1"
     showgrid="false"
     inkscape:window-width="1124"
     inkscape:window-height="713"
     inkscape:window-x="0"
     inkscape:window-y="0" />
  <metadata
     id="metadata7">
    <rdf:RDF>
      <cc:Work
         rdf:about="">
        <dc:format>image/svg+xml</dc:format>
        <dc:type
           rdf:resource="http://purl.org/dc/dcmitype/StillImage" />
      </cc:Work>
    </rdf:RDF>
  </metadata>
  <g
     inkscape:label="Layer 1"
     inkscape:groupmode="layer"
     id="layer1"
     transform="translate(-1003.33,-744.59175)">
    <path
       style="fill:#000000"
       d="M 1355.7673,827.20002 C 1354.3868,824.99907 1355.4993,822.33178 1359.1461,819.0993 C 1364.1501,814.66382 1365.4217,814.05575 1369.8105,813.99961 C 1373.0692,813.95793 1373.9465,813.47062 1375.3105,810.94439 C 1376.203,809.29129 1377.9458,806.92879 1379.1833,805.69439 C 1380.4208,804.45998 1381.4333,802.92295 1381.4333,802.27876 C 1381.4333,801.63457 1382.1806,800.28181 1383.0939,799.27263 C 1384.0071,798.26345 1384.5696,797.29278 1384.3439,797.11558 C 1376.9993,791.35183 1376.7232,791.2507 1371.2326,792.31438 C 1361.6149,794.17756 1355.0813,793.067 1353.9078,789.36958 C 1351.9758,783.28236 1368.0818,765.45002 1375.5118,765.45002 C 1377.0537,765.45002 1378.5934,765.00002 1378.9333,764.45002 C 1380.4089,762.0624 1381.6687,763.61188 1381.1002,767.1152 C 1380.5643,770.41772 1375.162,777.61621 1373.535,777.19561 C 1372.1918,776.84836 1365.5095,779.65324 1364.3492,781.05136 C 1363.344,782.26251 1363.4077,782.85302 1364.6809,784.12616 C 1365.9523,785.39762 1367.5123,785.56746 1372.7587,785.00563 C 1378.9131,784.34654 1379.3988,784.10058 1381.8451,780.40396 C 1385.6636,774.63378 1388.2853,773.19043 1392.2378,774.68233 C 1393.9953,775.34572 1395.4333,776.28405 1395.4333,776.76751 C 1395.4333,777.25098 1393.7458,779.15435 1391.6833,780.99723 C 1388.0933,784.20496 1388.0088,784.42406 1389.7021,786.13202 C 1390.961,787.40183 1391.883,787.63274 1392.9005,786.93307 C 1393.6869,786.39239 1396.1138,784.6788 1398.2936,783.12509 C 1400.7834,781.35049 1403.2111,780.42098 1404.8232,780.62509 L 1407.3893,780.95002 L 1405.1613,785.32936 C 1403.6596,788.28111 1401.0667,790.97733 1397.2073,793.60036 C 1394.0579,795.74078 1390.949,798.48652 1390.2984,799.70202 C 1389.6479,800.91752 1388.1164,802.69804 1386.8951,803.65874 C 1385.6738,804.61943 1383.7701,807.32946 1382.6648,809.68103 C 1381.5594,812.0326 1379.0301,815.73057 1377.0442,817.89873 C 1375.0582,820.0669 1373.4333,822.22362 1373.4333,822.69144 C 1373.4333,824.11161 1363.1494,828.42982 1359.7423,828.44025 C 1357.9873,828.44562 1356.1985,827.88752 1355.7673,827.20002 z M 1504.2284,823.04021 C 1502.2173,820.27183 1502.7558,819.45002 1506.5809,819.45002 C 1508.8397,819.45002 1509.513,818.9072 1509.9921,816.70002 C 1510.7146,813.3707 1512.4205,809.48203 1514.0498,807.45002 C 1514.7113,806.62502 1516.02,803.58752 1516.958,800.70002 C 1517.896,797.81252 1519.0617,795.45002 1519.5484,795.45002 C 1520.0351,795.45002 1520.4333,794.82316 1520.4333,794.05701 C 1520.4333,792.51201 1518.4524,791.50682 1513.9333,790.75867 C 1512.2833,790.48551 1510.3545,789.78571 1509.6472,789.20357 C 1508.6996,788.42374 1507.6466,788.79241 1505.6472,790.60408 C 1502.6759,793.29629 1492.4435,798.45002 1490.0695,798.45002 C 1488.4228,798.45002 1485.4333,793.19241 1485.4333,790.29638 C 1485.4333,789.28088 1485.0958,788.47163 1484.6833,788.49805 C 1482.5393,788.63536 1476.7511,792.71934 1469.5153,799.20002 C 1458.2389,809.29971 1455.8091,809.00326 1459.9388,798.0316 C 1464.5499,785.78117 1462.5215,781.81879 1455.5459,789.45002 C 1453.5349,791.65002 1451.3369,793.45002 1450.6614,793.45002 C 1449.986,793.45002 1449.4333,793.89398 1449.4333,794.4366 C 1449.4333,794.97922 1447.854,796.08307 1445.9237,796.8896 C 1442.164,798.46048 1436.5954,798.19271 1433.5565,796.2949 C 1432.0425,795.34938 1431.0278,795.53754 1428.1932,797.28938 C 1425.8134,798.76019 1423.0776,799.45002 1419.6243,799.45002 C 1414.8159,799.45002 1412.0087,797.97705 1414.1704,796.58822 C 1414.7168,796.23721 1415.5127,794.83372 1415.9391,793.46936 C 1416.8212,790.64751 1420.0914,785.73335 1422.6833,783.33483 C 1423.6458,782.44416 1424.4333,781.22098 1424.4333,780.61665 C 1424.4333,780.01232 1425.1707,777.81511 1426.0719,775.73395 C 1426.9732,773.65279 1428.0412,771.05002 1428.4452,769.95002 C 1430.248,765.04265 1433.8808,758.35504 1435.5783,756.8188 C 1435.8175,753.03716 1440.4491,750.98883 1443.2119,748.39561 C 1447.091,743.86378 1450.6566,743.35889 1453.0598,747.00116 C 1454.2843,748.85699 1454.0333,749.47213 1450.4233,753.46114 C 1448.2288,755.886 1446.4143,758.33798 1446.3911,758.90999 C 1446.3679,759.48201 1444.1218,762.20002 1441.3998,764.95002 C 1438.6778,767.70002 1436.4468,770.42709 1436.442,771.01018 C 1436.4372,771.59327 1435.1459,773.39327 1433.5725,775.01018 C 1431.999,776.62709 1430.3633,779.07502 1429.9375,780.45002 C 1429.5117,781.82502 1428.0991,784.02388 1426.7983,785.33638 C 1424.3373,787.81966 1423.7844,789.93094 1425.343,790.89419 C 1427.1437,792.00712 1435.1493,787.71374 1435.7891,785.29191 C 1436.1294,784.00387 1439.451,779.74222 1443.1706,775.82158 C 1448.5466,770.15485 1450.7232,768.55246 1453.7855,768.00709 C 1455.9042,767.62977 1457.8247,767.50812 1458.0534,767.73676 C 1459.069,768.75238 1455.0653,774.20761 1449.0123,780.05578 C 1442.2821,786.55814 1441.4789,787.86979 1443.7043,788.72375 C 1445.6792,789.48162 1455.495,785.45726 1456.1899,783.60479 C 1456.8397,781.87234 1461.3469,777.32438 1464.8359,774.88059 C 1469.4844,771.62469 1472.8502,774.5739 1472.9041,781.95002 C 1472.9264,785.00822 1473.2865,785.85579 1474.4333,785.54983 C 1475.2583,785.32972 1478.0344,784.85258 1480.6023,784.4895 C 1485.6822,783.77127 1487.1035,782.90483 1492.5297,777.21871 C 1498.5304,770.93051 1502.1416,773.00467 1499.1669,781.03088 C 1497.8641,784.54606 1497.8127,785.51998 1498.883,786.40827 C 1500.6722,787.89315 1504.1618,786.40814 1508.1437,782.46736 C 1511.4752,779.17026 1513.9465,779.02937 1517.4333,781.93773 C 1518.2583,782.62586 1520.0583,783.41477 1521.4333,783.69085 C 1522.8083,783.96694 1524.7179,784.52273 1525.6769,784.92594 C 1526.9159,785.4469 1527.6393,785.08414 1528.1769,783.67245 C 1529.0808,781.29863 1536.6146,774.84463 1539.5807,773.90325 C 1541.621,773.25567 1543.3991,774.672 1543.4055,776.95002 C 1543.4112,778.94416 1535.7688,786.10922 1531.3592,788.24383 C 1527.8674,789.93419 1526.5374,791.28391 1525.4995,794.19027 C 1524.761,796.25813 1522.8991,799.55178 1521.3619,801.50949 C 1519.8248,803.4672 1518.2754,806.3922 1517.9189,808.00949 C 1516.9707,812.31107 1515.2932,816.45002 1514.4978,816.45002 C 1514.1168,816.45002 1512.2878,818.47502 1510.4333,820.95002 C 1508.5789,823.42502 1506.8077,825.43588 1506.4975,825.4186 C 1506.1872,825.40131 1505.1661,824.33104 1504.2284,823.04021 z M 1033.4333,818.75586 C 1033.4333,818.2824 1034.0465,817.0074 1034.796,815.92253 C 1035.5456,814.83765 1036.425,812.60002 1036.7505,810.95002 C 1038.4683,802.24028 1039.7175,796.54106 1040.6957,792.95002 C 1041.295,790.75002 1041.6827,788.19069 1041.5571,787.26261 C 1041.4315,786.33453 1042.249,783.77152 1043.3736,781.56703 C 1044.5146,779.33059 1045.0077,777.30498 1044.4891,776.98452 C 1042.9737,776.04795 1029.1426,778.57737 1026.4333,780.28655 C 1023.3462,782.2341 1004.9503,782.77784 1003.4466,780.96599 C 1002.3958,779.69991 1008.7346,772.45002 1010.8924,772.45002 C 1011.5694,772.45002 1012.9006,771.59114 1013.8506,770.54139 C 1014.8006,769.49165 1017.0079,768.09624 1018.7556,767.44047 C 1022.9136,765.88039 1025.3061,764.95199 1028.7982,763.54361 C 1030.3739,762.90813 1032.4705,762.64443 1033.4573,762.95763 C 1047.5439,756.52472 1044.1643,757.76857 1058.4333,753.38299 C 1061.4583,752.39262 1064.9754,751.55255 1066.2491,751.51617 C 1067.5227,751.47979 1069.4079,750.9988 1070.4384,750.44732 C 1071.6029,749.82407 1072.5329,749.8022 1072.8959,750.38954 C 1073.2171,750.90925 1075.503,751.63784 1077.9756,752.00863 C 1087.9405,753.50295 1089.7913,765.31003 1080.0777,765.41822 C 1078.5071,765.43571 1075.885,766.57502 1074.2509,767.95002 C 1072.6169,769.32502 1070.0544,770.45002 1068.5566,770.45002 C 1063.9609,770.45002 1061.4649,774.6905 1065.3372,775.91952 C 1066.4223,776.26392 1068.8165,775.63899 1070.9042,774.46639 C 1073.9994,772.72789 1075.1588,772.56828 1078.3838,773.43668 C 1084.2262,775.00988 1085.3906,777.25244 1085.53,787.20002 C 1085.5659,789.76523 1085.9958,790.45002 1087.5701,790.45002 C 1088.6672,790.45002 1090.45,789.97625 1091.532,789.3972 C 1096.88,786.53504 1105.8223,795.15273 1101.9474,799.4345 C 1101.1146,800.35465 1100.4333,801.58642 1100.4333,802.17177 C 1100.4333,803.47932 1098.066,804.45002 1094.8772,804.45002 C 1093.2303,804.45002 1092.0012,803.51514 1090.9333,801.45002 C 1090.0801,799.80002 1088.9985,798.45002 1088.5298,798.45002 C 1085.8705,798.45002 1080.3889,801.81947 1078.0416,804.89693 C 1076.0386,807.52297 1074.5775,808.45002 1072.4414,808.45002 C 1070.8519,808.45002 1069.2995,808.04256 1068.9917,807.54456 C 1068.684,807.04655 1069.719,803.77083 1071.2919,800.26518 C 1074.9553,792.10022 1074.6125,787.86792 1070.2095,786.90086 C 1068.4228,786.50844 1066.2301,786.75598 1064.8233,787.50892 C 1063.1019,788.43018 1061.8251,788.49392 1060.1728,787.74109 C 1058.2854,786.88114 1057.0846,787.23669 1053.1642,789.81619 C 1050.5622,791.52826 1048.4333,793.45876 1048.4333,794.1062 C 1048.4333,794.75363 1048.0958,795.43335 1047.6833,795.61669 C 1046.6223,796.08823 1042.4272,804.6649 1042.4305,806.35563 C 1042.4321,807.12871 1041.1958,809.36561 1039.6833,811.3265 C 1038.1708,813.2874 1036.6959,815.77151 1036.4057,816.84676 C 1035.8772,818.80529 1033.4333,820.37492 1033.4333,818.75586 z M 1268.6333,814.25002 C 1267.0242,812.64092 1267.118,811.45002 1268.8539,811.45002 C 1269.6469,811.45002 1270.5822,810.01441 1270.9713,808.20002 C 1271.3545,806.41252 1272.5153,803.178 1273.5507,801.01219 C 1274.5861,798.84638 1275.4333,796.20646 1275.4333,795.14569 C 1275.4333,793.37036 1274.9246,793.2715 1269.0348,793.90225 C 1264.6755,794.36909 1262.4136,794.22721 1261.9377,793.45706 C 1261.5534,792.83534 1260.0948,791.89162 1258.6963,791.35991 C 1256.7283,790.61167 1255.728,790.77839 1254.2703,792.09754 C 1252.0832,794.07684 1247.7908,794.19632 1241.4209,792.45519 C 1237.0972,791.27339 1236.6804,791.35621 1231.4598,794.43439 L 1226.0112,797.64699 L 1224.2973,795.53036 C 1222.4398,793.2364 1222.8256,790.55223 1225.8184,784.95002 C 1226.6998,783.30002 1227.4238,781.22321 1227.4272,780.33488 C 1227.4305,779.44655 1228.3333,777.57557 1229.4333,776.17715 C 1230.5333,774.77873 1231.4333,773.1758 1231.4333,772.61509 C 1231.4333,771.31143 1238.505,765.45002 1240.0778,765.45002 C 1243.5776,765.45002 1241.3399,771.80581 1236.5001,775.61203 C 1232.7464,778.56405 1230.3505,784.13326 1231.5147,787.20002 C 1232.5568,789.94506 1232.3655,789.94282 1237.858,787.27434 C 1240.7104,785.88856 1242.7671,784.05842 1243.523,782.23342 C 1245.6446,777.11145 1248.3743,774.45002 1251.5059,774.45002 C 1254.0643,774.45002 1254.4333,774.81276 1254.4333,777.32805 C 1254.4333,779.17402 1253.6533,780.72399 1252.2581,781.65034 C 1250.8315,782.59758 1250.3045,783.67197 1250.7267,784.77231 C 1251.6465,787.16917 1252.3987,786.90396 1257.353,782.4359 C 1262.5668,777.73387 1264.1629,777.47765 1265.0522,781.20002 C 1266.0937,785.55988 1267.1498,786.28795 1271.7224,785.79825 C 1281.6324,784.73695 1282.4154,784.39832 1288.8256,778.40192 C 1295.5787,772.08466 1297.7299,771.2672 1299.3981,774.38428 C 1301.0168,777.4088 1300.6384,778.45002 1297.9204,778.45002 C 1295.0258,778.45002 1287.4375,785.05559 1287.435,787.57758 C 1287.4341,788.47273 1286.7717,789.75426 1285.963,790.42542 C 1285.1543,791.09658 1283.2716,795.53918 1281.7792,800.29786 C 1278.1771,811.78354 1272.3507,817.96736 1268.6333,814.25002 z M 1140.6798,800.29655 C 1139.0103,798.627 1139.1097,796.29932 1141.0585,791.42877 C 1143.0412,786.47361 1142.1212,785.12077 1139.1391,788.60609 C 1135.9359,792.34968 1127.6763,797.48047 1125.931,796.81076 C 1124.0816,796.10108 1123.9526,788.17578 1125.7284,784.36297 C 1127.0785,781.46422 1134.5619,774.45002 1136.3045,774.45002 C 1137.8113,774.45002 1137.7507,780.96892 1136.2212,783.41811 C 1134.6902,785.86955 1135.7827,787.08791 1137.9094,785.3009 C 1145.1575,779.21064 1147.1577,775.91875 1149.924,765.52706 C 1152.7736,754.8225 1159.0824,747.45002 1165.3928,747.45002 C 1167.8129,747.45002 1168.4333,747.87763 1168.4333,749.54573 C 1168.4333,751.86244 1165.4533,757.45002 1164.2177,757.45002 C 1163.7863,757.45002 1163.4333,758.57502 1163.4333,759.95002 C 1163.4333,761.32502 1163.0173,762.45002 1162.5089,762.45002 C 1162.0004,762.45002 1160.1317,765.48752 1158.3561,769.20002 C 1156.5805,772.91252 1154.2965,777.68004 1153.2805,779.79452 C 1150.775,785.00909 1150.924,786.45002 1153.9685,786.45002 C 1158.0802,786.45002 1161.1218,783.79961 1161.7875,779.63664 C 1162.6033,774.53501 1171.3468,765.45002 1175.4409,765.45002 C 1179.5965,765.45002 1181.4333,766.41763 1181.4333,768.60667 C 1181.4333,771.47785 1178.5966,776.45002 1176.9585,776.45002 C 1173.4778,776.45002 1168.7318,786.28042 1171.4126,787.93725 C 1172.7139,788.74149 1176.5627,786.65546 1178.4333,784.13202 C 1181.8214,779.56155 1185.5993,776.64147 1188.9336,776.01595 C 1194.1217,775.04266 1194.7642,775.86414 1194.1462,782.68 L 1193.6061,788.63565 L 1200.329,787.9605 C 1205.8146,787.40959 1207.2934,787.57653 1208.365,788.86769 C 1209.0873,789.73797 1210.468,790.45002 1211.4333,790.45002 C 1215.1711,790.45002 1215.5171,792.89272 1212.3273,796.76247 C 1209.0585,800.7281 1207.0454,801.26749 1203.8548,799.03265 C 1200.027,796.35156 1194.8963,796.05123 1191.7711,798.32534 C 1190.2103,799.46107 1187.0208,800.68625 1184.6833,801.04797 L 1180.4333,801.70564 L 1180.4333,798.07783 C 1180.4333,793.23356 1177.7383,793.21167 1172.9331,798.01689 C 1168.8728,802.07719 1167.0143,802.11512 1164.092,798.1973 C 1162.4976,796.05977 1162.3063,795.17701 1163.236,794.2473 C 1164.9652,792.51815 1164.7229,791.75901 1162.2341,791.10819 C 1159.6832,790.44109 1153.9452,793.62497 1152.3599,796.58726 C 1150.6723,799.74059 1142.6664,802.28307 1140.6798,800.29655 z M 1318.1042,796.70867 L 1312.2752,796.34549 L 1312.9631,792.14776 C 1313.3415,789.839 1314.3468,787.16252 1315.1972,786.20002 C 1316.8597,784.31826 1323.4333,783.73941 1323.4333,785.47477 C 1323.4333,786.98027 1328.5016,788.6497 1331.0956,787.99864 C 1334.6882,787.09696 1343.6521,776.86058 1348.3861,768.25365 C 1349.5043,766.22064 1350.9849,764.19564 1351.6763,763.75365 C 1352.3676,763.31165 1353.4295,762.05002 1354.0359,760.95002 C 1354.6424,759.85002 1359.1424,755.66689 1364.0359,751.65417 C 1372.2931,744.88328 1373.2102,744.3917 1376.7816,744.8222 C 1384.9093,745.80191 1387.1726,751.96724 1381.2379,756.96098 C 1377.7402,759.9041 1376.8547,760.02535 1375.5738,757.73656 C 1374.6859,756.14989 1374.2351,756.20096 1369.4831,758.42671 C 1366.5554,759.79798 1362.391,763.00351 1359.7873,765.89017 C 1357.2771,768.67309 1353.9097,772.41175 1352.3042,774.19832 C 1350.6987,775.98488 1348.9571,778.57238 1348.434,779.94832 C 1347.9108,781.32425 1346.7815,782.45002 1345.9243,782.45002 C 1345.0672,782.45002 1343.4366,784.02502 1342.3008,785.95002 C 1341.165,787.87502 1339.9156,789.45002 1339.5244,789.45002 C 1339.1331,789.45002 1337.4901,790.7317 1335.8732,792.29819 C 1332.0734,795.97946 1329.1318,797.49632 1326.2491,797.26094 C 1324.9754,797.15694 1321.3102,796.90842 1318.1042,796.70867 z M 1206.4864,776.01394 C 1205.0695,774.30669 1206.061,772.06173 1209.7597,768.60259 C 1211.7426,766.74809 1212.9144,766.39677 1215.34,766.92953 C 1219.4206,767.82577 1219.7737,768.66836 1217.8018,772.80343 C 1215.63,777.35788 1209.1319,779.20158 1206.4864,776.01394 z M 1099.8607,770.3757 C 1096.6776,767.1159 1096.1729,766.08664 1097.0647,764.67393 C 1097.8753,763.38986 1099.5282,762.95002 1103.5431,762.95002 C 1108.4714,762.95002 1108.9624,763.15562 1109.2724,765.34926 C 1109.6685,768.15139 1107.7159,772.22844 1105.3788,773.47922 C 1104.1494,774.13713 1102.7835,773.36889 1099.8607,770.3757 z"
       id="path2457"
       sodipodi:nodetypes="cssssssssssssssssssssssscccsssssssccsssssssssssssssssssssssssssccsssssssssssssssssssssssssssssssssssssccssssssssssssccsssssssssssssssssssssssssssssssccssssssssscccssssssssssssssssssssssccssssssssssssssssssssssscccssssscccsssssccccsssssssssssssssssssccsssccssssc" />
  </g>
</svg>
