<?xml version="1.0" encoding="UTF-8" standalone="no"?>
<!-- Created with Inkscape (http://www.inkscape.org/) -->

<svg
   xmlns:svg="http://www.w3.org/2000/svg"
   xmlns="http://www.w3.org/2000/svg"
   version="1.1"
   width="800pt"
   height="394pt"
   viewBox="0 0 800 394"
   id="svg42">
  <defs
     id="defs66" />
  <g
     id="#ffffffff" />
  <g
     id="#090909ff">
    <path
       d="m 200.84,17.69 c 10.92837,-3.032798 -2.25017,12.423693 10.6326,16.15153 11.63269,5.279957 23.01731,19.978106 16.19065,32.86895 -9.0464,15.232063 -25.89207,22.717331 -42.01623,28.079608 -12.43821,3.416314 -24.21692,8.997662 -37.14657,10.756712 -13.36349,1.98174 -10.14796,22.06725 -15.99783,32.21336 -5.34699,17.59972 -9.61628,35.48567 -15.18246,52.99234 -3.68462,14.10874 -4.29114,29.92913 -13.8113,41.6844 -12.097181,10.63755 -13.043221,-13.96998 -5.687695,-19.40494 12.287165,-3.29675 11.515085,-17.11024 13.329985,-27.2239 7.96442,-23.99715 12.00292,-49.29231 21.02161,-73.0231 -7.01419,-4.19825 -19.74478,1.83353 -27.92615,3.11374 -13.35312,1.57317 -26.424145,3.81081 -39.319544,7.55955 -11.665142,3.46563 -22.194856,6.89906 -33.852589,9.79677 -9.630165,4.87676 -11.064277,-8.97832 -1.551186,-10.13184 10.767074,-4.24133 21.883284,-7.91227 33.195295,-10.39295 11.132334,-1.72657 22.260581,-3.89849 33.240172,-6.10288 13.638972,-2.19626 28.476992,-2.83839 40.979322,-8.581986 7.31744,-8.142729 10.1692,-19.322909 17.43519,-27.649843 7.37937,-10.276768 15.67669,-19.865619 24.42255,-28.997025 2.20094,-7.876487 -14.19238,-6.252894 -23.31945,-6.634159 -18.34861,1.604313 -37.19736,0.918738 -54.7586,7.397955 C 89.159384,46.126113 77.195699,49.882177 66.955377,56.515397 56.506139,62.442308 53.601063,47.798493 64.525011,46.428221 83.035922,36.384936 103.61132,30.266825 124.35487,26.97092 c 14.82789,-1.83905 29.82997,-1.80235 44.72621,-2.000105 10.85484,0.69762 26.27959,5.916642 31.75892,-7.280815 l 0,0 z m -23.21,39.04 c -9.6803,10.760635 -18.19168,22.502439 -26.35254,34.437012 2.56901,9.066388 16.69086,-2.366452 23.84098,-2.404518 14.29917,-4.498439 30.43508,-9.314192 39.44468,-22.129147 C 218.71297,54.749632 207.09221,43.983355 196.78927,40.514561 186.82431,38.324728 183.15939,50.959996 177.63,56.73 z"
       id="path46"
       style="fill:#090909" />
    <path
       d="m 433.08,101.93 c 2.95586,-8.898048 16.31866,-6.242876 9.09357,2.88319 -5.83188,7.07437 -9.02256,15.62219 -11.71607,24.28931 0.14916,4.94544 -8.72878,12.83112 -3.7075,15.7375 7.14095,-9.51133 13.10361,-19.85431 19.92,-29.5925 3.69243,-10.27136 16.12358,-7.33277 16.17876,2.91148 2.43345,10.94598 0.37475,22.37426 -4.57733,32.33095 -1.6044,4.18428 -7.70578,14.48641 1.28482,9.95132 6.21812,-5.03121 12.26853,-10.48572 18.27552,-15.85076 7.80144,-8.78243 15.10745,-18.14761 19.82323,-28.98674 4.42387,-7.15507 12.1239,1.93802 18.14842,-2.921 10.8851,0.99653 8.05633,15.38405 8.3484,23.05577 -0.73005,9.76578 -5.48286,18.58997 -9.28018,27.42063 -4.32206,5.45166 -8.28038,13.76104 -15.86164,14.58085 -5.74379,-1.09075 -9.53014,-15.94522 -1.31785,-15.88604 9.0222,3.20186 10.96069,-8.54748 13.22152,-14.68461 2.13941,-7.04953 3.31808,-14.50892 2.43633,-21.86935 -9.40467,-0.0987 -12.34378,10.5839 -16.43968,17.16692 -3.58644,9.30824 -7.90069,18.37044 -9.87751,28.21042 -3.51933,8.22596 -5.14418,17.07631 -8.47562,25.36875 -1.2169,8.58968 -6.48063,15.62544 -8.89906,23.80205 -4.53521,11.3217 -10.75458,21.96922 -14.94422,33.47108 -5.2015,5.61018 -3.54662,15.91232 -8.2983,20.13555 -11.97558,-4.07857 -5.08502,-18.13166 -0.71139,-25.70774 3.29681,-9.1212 9.05587,-17.09732 11.85365,-26.39902 4.9926,-8.64586 6.99846,-18.50181 11.38307,-27.43473 4.93544,-12.3238 8.17613,-25.29208 14.10744,-37.20781 1.95051,-4.10266 3.0871,-11.81153 -2.78567,-5.76582 -7.51502,7.37653 -14.86769,14.83848 -24.29994,19.78176 -8.28817,4.95748 -14.32138,13.35293 -21.4684,18.70218 -8.93152,-1.92333 -7.88475,-18.67432 -2.28785,-24.19879 4.05617,-1.61974 9.82381,6.45761 10.92215,-1.63699 4.94969,-11.12721 7.37387,-23.25573 8.47008,-35.33156 -4.51398,-8.28522 -9.52637,6.36931 -12.57531,10.02219 -3.90883,8.07105 -10.55433,14.45618 -13.71115,22.94318 -3.93134,8.00334 -9.98727,14.81106 -12.77495,23.40314 -6.70507,16.20396 -15.03764,31.61909 -22.73734,47.34524 -3.27649,8.64874 -4.87431,19.87032 -13.10205,25.16406 -11.97057,2.26312 -7.6034,-12.96934 -3.93484,-18.86728 3.26234,-8.46385 6.54575,-16.9705 12.10192,-24.27325 5.02244,-8.31285 9.37254,-16.97047 14.56856,-25.1915 7.2266,-12.92483 9.6429,-27.68216 14.75543,-41.39947 5.95038,-12.41281 7.93856,-26.39245 15.18973,-38.22131 1.26388,-2.40148 2.5216,-4.80696 3.70125,-7.25125 z"
       id="path48"
       style="fill:#090909" />
    <path
       d="m 618.19,100.07 c 6.2676,-1.148591 10.11253,4.56978 10.91702,10.03908 1.15997,5.21056 1.22621,11.03295 4.74298,15.37092 5.35819,-4.52616 5.19623,-12.7402 10.88349,-17.09508 3.83979,-3.89212 12.79956,-10.560627 16.12167,-2.75914 1.41205,5.81442 -6.51711,7.91467 -9.21026,12.07104 -4.95154,6.41949 -8.3175,13.95188 -13.8999,19.91443 -3.84077,4.48735 -2.67248,11.06795 -1.70067,16.42911 1.64762,6.33487 6.29179,12.23465 5.29208,19.02089 -2.45066,6.98335 -13.71257,5.16261 -12.93321,-2.49518 -0.15036,-4.59347 -2.46203,-8.61021 -4.8332,-12.39607 -6.31417,4.6562 -10.14986,11.80128 -16.57327,16.34874 -5.7687,4.08432 -11.6052,8.0525 -17.38944,12.12614 -9.37241,6.21012 -19.27473,11.56546 -29.12377,16.96248 -4.8645,1.76971 -11.77186,6.22684 -16.11573,1.42504 -3.08421,-5.7572 1.38265,-10.25465 7.14241,-9.8644 7.04074,-1.81001 13.87881,-4.71234 19.49564,-9.4031 4.95376,-2.57733 9.64167,-5.59341 14.24777,-8.75842 9.7332,-4.65888 15.66677,-14.13278 24.07545,-20.55461 4.76596,-4.13897 9.5815,-8.62652 12.09094,-14.55187 -0.0794,-5.99403 -2.67156,-11.70227 -2.05999,-17.769 1.18515,-7.57762 -4.24101,-14.86074 -1.93892,-22.08756 l 0.39202,-0.9941 0.37689,-0.97934 0,0 z"
       id="path50"
       style="fill:#090909" />
    <path
       d="m 689.36,105.45 c 2.48226,-2.00562 7.16049,-0.60586 7.03837,2.93505 0.73407,7.13798 -3.0543,13.57248 -5.17814,20.1477 -2.60379,7.20424 -5.66307,14.23548 -8.50091,21.34356 -2.30724,7.25619 -4.2308,15.16104 -9.86703,20.66142 -1.90572,1.41235 -5.91041,1.49887 -7.31132,0.52529 -0.38186,-6.02577 -0.0715,-12.29154 2.60688,-17.81527 4.66454,-11.91138 7.8587,-24.41007 13.66037,-35.86286 1.87433,-4.29153 3.1135,-9.51045 7.55178,-11.93489 z"
       id="path52"
       style="fill:#090909" />
    <path
       d="m 705.9,107.91 c 1.63569,-2.28917 6.15783,-2.50259 7.92333,-1.11715 2.11809,6.61741 0.80501,13.71239 -0.93353,20.25312 -2.10402,5.86593 -6.41531,10.74645 -7.81968,16.89907 -1.86444,5.8008 -5.09284,11.27008 -5.40412,17.4817 -0.004,2.78776 -0.83152,5.97706 -3.88028,6.80193 -4.10833,1.51141 -9.07833,-2.42232 -8.30396,-6.80572 0.59414,-10.48326 6.24035,-19.66681 9.15857,-29.55044 1.99731,-5.15781 4.07782,-10.28911 5.55928,-15.62705 0.89731,-2.90686 1.88956,-5.85226 3.70039,-8.33546 z"
       id="path54"
       style="fill:#090909" />
    <path
       d="m 201.58,128.6 c 2.43,-0.31 5.81,-1.03 7.27,1.56 2.2,3.14 2.55,8.36 -0.99,10.72 -4.73,4.52 -13.65,-0.51 -12.51,-6.87 -0.35,-3.44 3.68,-4.49 6.23,-5.41 z"
       id="path56"
       style="fill:#090909" />
    <path
       d="m 294.81,149.95 c 9.00546,-1.71733 5.81596,10.91351 0.54995,13.70736 -3.83462,4.60212 -3.75513,11.03923 -5.77207,16.48482 -2.57561,9.93422 -6.62779,19.67242 -13.46129,27.44306 -3.57061,3.79256 -12.74218,7.92013 -15.7649,1.59943 -2.49107,-6.01187 -0.0599,-14.8352 6.31768,-17.24404 4.68686,-0.32834 10.01996,2.97024 10.9255,-3.99415 1.53643,-3.66266 8.07175,-14.68212 -0.59612,-11.55773 -10.28187,7.52116 -19.60395,16.35816 -30.28823,23.34413 -6.51711,5.3872 -13.86054,10.70174 -22.3674,12.07603 -8.82489,-0.061 -4.76331,-9.913 -5.94491,-15.29665 -1.6946,-5.74168 -6.68839,4.0238 -8.75946,6.45649 -2.96688,4.15561 -4.92676,9.3981 -9.28375,12.31125 -7.51049,2.56419 -5.40592,-9.22126 -4.0627,-13.23901 0.83779,-3.47947 5.17842,-13.90458 -1.77605,-9.44224 -6.09764,4.54729 -11.81874,10.12038 -15.04098,17.14354 -1.74482,5.10639 -13.618,10.24717 -11.28756,1.31087 -0.31626,-7.10546 3.68381,-13.33546 6.80213,-19.39441 0.27372,-7.54791 -8.68336,-0.31916 -10.36359,3.31724 -4.82254,5.7683 -9.97791,11.53921 -16.67625,15.16401 -5.45065,-7.36399 28.33881,-36.51656 34.33824,-46.77203 0.50315,-5.41335 10.96759,-8.78961 10.16334,-1.11711 -0.27598,7.4101 -4.30375,13.94506 -6.25688,20.96903 -2.14749,3.18439 -4.00893,11.39814 1.24644,9.91128 4.90819,-6.27907 9.96443,-12.47144 14.75105,-18.82476 1.6467,-5.86823 10.61347,-14.40474 12.24785,-3.88907 -0.37146,6.69694 -5.04185,14.34033 -5.36613,19.63625 4.92722,4.1231 7.78894,-4.75245 10.22859,-7.98718 3.75821,-6.17205 5.96143,-13.59315 11.48625,-18.47766 4.69232,-6.08602 8.43776,4.34182 6.04504,8.45645 -1.54146,7.39394 -2.23001,15.22122 -6.59291,21.65109 -3.10379,3.40357 -2.04582,11.02986 3.57912,7.06371 6.54128,-3.17768 10.61619,-9.73226 17.33,-12.73949 7.94174,-4.82921 13.04641,-13.16909 21.45268,-17.3569 4.75822,-4.14178 9.95631,-7.8313 14.37379,-12.34731 2.56797,-2.80857 4.31079,-6.56097 7.82353,-8.3663 z"
       id="path58"
       style="fill:#090909" />
    <path
       d="m 549.33,157.99 c 1.21922,-0.72834 2.79215,-0.83359 4.0635,-0.17439 2.07419,1.04567 3.44325,2.99928 5.01467,4.63719 0.34689,0.31992 0.74279,0.61698 0.2342,1.00073 -1.976,2.76941 -3.9481,5.70749 -6.89421,7.53847 -0.47555,0.34697 -1.01109,0.57462 -1.60882,0.46446 -1.63093,-0.0813 -3.16934,-0.67584 -4.73934,-1.06646 0.0426,-2.89321 -0.39002,-5.87765 0.51826,-8.68486 0.52952,-1.67221 1.77943,-3.05646 3.41174,-3.71514 z"
       id="path60"
       style="fill:#090909" />
    <path
       d="m 775.92,187.05 c 19.12007,6.74401 -13.47851,24.03985 -23.49352,25.1512 -42.71137,17.95261 -86.72779,32.72343 -130.56266,47.55712 -77.9906,22.00296 -154.56181,48.67839 -231.48093,74.01718 -36.29535,13.00075 -72.52117,26.1943 -108.76387,39.34078 -22.66062,-1.25091 2.15023,-16.98772 12.20939,-16.23357 96.46784,-36.06524 194.73772,-67.06767 292.7771,-98.50604 50.93746,-12.84317 99.57887,-33.02095 148.80498,-51.05408 13.96972,-5.76123 27.60719,-12.38928 40.50951,-20.27259 z"
       id="path62"
       style="fill:#090909" />
  </g>
</svg>
