<?xml version="1.0" encoding="UTF-8" standalone="no"?>
<!-- Created with Inkscape (http://www.inkscape.org/) -->

<svg
   xmlns:dc="http://purl.org/dc/elements/1.1/"
   xmlns:cc="http://creativecommons.org/ns#"
   xmlns:rdf="http://www.w3.org/1999/02/22-rdf-syntax-ns#"
   xmlns:svg="http://www.w3.org/2000/svg"
   xmlns="http://www.w3.org/2000/svg"
   xmlns:sodipodi="http://sodipodi.sourceforge.net/DTD/sodipodi-0.dtd"
   xmlns:inkscape="http://www.inkscape.org/namespaces/inkscape"
   id="svg3207"
   version="1.1"
   inkscape:version="0.48.5 r10040"
   width="4322.2603"
   height="1188.8173"
   sodipodi:docname="Signature of Tansu Ciller.svg">
  <metadata
     id="metadata3213">
    <rdf:RDF>
      <cc:Work
         rdf:about="">
        <dc:format>image/svg+xml</dc:format>
        <dc:type
           rdf:resource="http://purl.org/dc/dcmitype/StillImage" />
        <dc:title />
      </cc:Work>
    </rdf:RDF>
  </metadata>
  <defs
     id="defs3211" />
  <sodipodi:namedview
     pagecolor="#ffffff"
     bordercolor="#666666"
     borderopacity="1"
     objecttolerance="10"
     gridtolerance="10"
     guidetolerance="10"
     inkscape:pageopacity="0"
     inkscape:pageshadow="2"
     inkscape:window-width="1366"
     inkscape:window-height="705"
     id="namedview3209"
     showgrid="false"
     inkscape:zoom="0.26456984"
     inkscape:cx="2666.6888"
     inkscape:cy="346.7492"
     inkscape:window-x="-8"
     inkscape:window-y="-8"
     inkscape:window-maximized="1"
     inkscape:current-layer="svg3207"
     fit-margin-top="0"
     fit-margin-left="0"
     fit-margin-right="0"
     fit-margin-bottom="0" />
  <path
     inkscape:connector-curvature="0"
     id="path3223"
     d="m 525.81885,1188.568 c 0,-0.3074 0.1125,-0.6913 0.25,-0.853 0.1375,-0.1617 -0.47752,-1.4043 -1.3667,-2.7614 -2.19502,-3.35 -6.87294,-18.9421 -6.92719,-23.0892 -0.0241,-1.8455 -0.73434,-5.1554 -1.57822,-7.3554 -0.84389,-2.2 -1.8994,-5.575 -2.34559,-7.5 -1.31375,-5.6679 -3.19095,-10.36 -5.00093,-12.5 -0.93037,-1.1 -2.22011,-3.8591 -2.86608,-6.1314 -0.64597,-2.2722 -1.84742,-4.6898 -2.66989,-5.3724 -0.82247,-0.6826 -1.4954,-1.6349 -1.4954,-2.1163 0,-0.4814 -1.575,-3.0676 -3.5,-5.747 -1.925,-2.6795 -3.5,-5.6942 -3.5,-6.6994 0,-2.9097 -8.17129,-26.6627 -10.17855,-29.5879 -1.0018,-1.4599 -1.82145,-3.1936 -1.82145,-3.8526 0,-0.659 -1.12147,-3.2896 -2.49215,-5.8456 -1.37069,-2.5561 -2.94641,-6.4982 -3.50161,-8.7602 -0.5552,-2.2621 -2.13373,-5.7696 -3.50784,-7.7944 -1.37412,-2.0249 -2.4984,-4.0809 -2.4984,-4.5689 0,-0.488 -2.025,-5.0478 -4.5,-10.133 -2.475,-5.0852 -4.5,-10.0393 -4.5,-11.0093 0,-0.97 -0.41538,-2.0203 -0.92306,-2.3341 -0.50769,-0.3137 -1.20819,-1.8686 -1.55668,-3.4553 -0.34849,-1.5866 -1.50811,-3.6762 -2.57694,-4.6435 -1.06883,-0.9673 -1.9532,-2.4764 -1.96528,-3.3537 -0.0303,-2.202 -3.51137,-9.6778 -6.01445,-12.9164 -3.97406,-5.14176 -6.52561,-9.71136 -7.91696,-14.17856 -0.77087,-2.475 -2.89658,-7.1114 -4.72379,-10.303 -1.82722,-3.1917 -4.48047,-9.9417 -5.89613,-15 -1.67808,-5.9961 -3.4686,-10.1385 -5.14453,-11.9022 -1.41383,-1.4879 -2.67953,-4.0899 -2.81265,-5.7822 -0.13313,-1.6922 -1.43045,-4.7917 -2.88295,-6.8877 -1.4525,-2.0959 -3.36406,-6.694 -4.24792,-10.2178 -1.95335,-7.7879 -6.25317,-16.6012 -10.4082,-21.3335 -3.20656,-3.6521 -3.32137,-6.1744 -0.39173,-8.6057 1.49123,-1.2376 1.93846,-5.5608 0.86472,-8.3589 -0.3281,-0.855 -2.1323,-1.8427 -4.00932,-2.1948 -2.63352,-0.4941 -3.54507,-1.2424 -3.9922,-3.2772 -1.18201,-5.3794 -3.50693,-11.8963 -4.90106,-13.7382 -0.7905,-1.0443 -1.45157,-2.6051 -1.46907,-3.4685 -0.0175,-0.8633 -1.14488,-2.5374 -2.50531,-3.7203 -1.36043,-1.1829 -2.76823,-3.4015 -3.12845,-4.9303 -0.36023,-1.5289 -1.56452,-4.2918 -2.6762,-6.14 -1.11169,-1.8481 -2.37686,-5.2637 -2.81149,-7.5902 -0.43463,-2.3264 -1.75011,-5.7643 -2.92329,-7.6397 -1.17318,-1.8754 -4.11557,-6.5598 -6.53866,-10.4098 -2.42308,-3.85 -4.41523,-7.5006 -4.427,-8.1125 -0.0321,-1.6682 -5.86032,-15.4885 -7.22538,-17.1333 -1.15602,-1.3929 -4.47198,-9.7345 -5.46759,-13.7542 -0.76987,-3.1083 -1.72033,-5.4196 -5.5515,-13.5 -1.95579,-4.125 -4.06139,-9.09902 -4.67911,-11.05337 -0.61773,-1.95435 -2.69244,-5.98918 -4.61048,-8.96628 -1.91804,-2.9771 -3.48734,-6.18902 -3.48734,-7.13761 0,-0.94859 -0.41106,-1.97876 -0.91348,-2.28927 -0.93929,-0.58051 -5.08652,-8.63645 -5.08652,-9.8805 0,-0.38258 -1.73669,-3.278 -3.85931,-6.43428 -2.12262,-3.15628 -4.38168,-7.29433 -5.02013,-9.19567 -0.63846,-1.90134 -2.01153,-4.37634 -3.05128,-5.5 -1.03975,-1.12366 -2.37879,-3.88406 -2.97565,-6.13422 -0.59686,-2.25015 -1.98709,-4.9074 -3.08941,-5.90498 -1.10232,-0.99759 -2.01277,-2.30655 -2.02322,-2.90881 -0.0104,-0.60225 -1.44427,-3.34501 -3.18627,-6.09501 -4.15042,-6.55206 -7.51877,-13.15796 -8.92326,-17.5 -0.62266,-1.925 -1.47592,-3.95 -1.89613,-4.5 -0.42021,-0.55 -2.45061,-4.15 -4.51201,-8 -2.06139,-3.85 -4.80894,-8.27203 -6.10566,-9.82673 -1.29672,-1.55469 -2.35767,-3.24681 -2.35767,-3.76025 0,-0.51344 -1.575,-3.1743 -3.5,-5.91302 -1.925,-2.73872 -3.5,-5.36659 -3.5,-5.83971 0,-0.47312 -1.29383,-2.64629 -2.87517,-4.82927 -1.58135,-2.18298 -3.18312,-4.93932 -3.5595,-6.12519 -0.37638,-1.18587 -2.34682,-4.75481 -4.37875,-7.93098 -2.03193,-3.17617 -4.25749,-6.67485 -4.94568,-7.77485 -1.20138,-1.92025 -3.81031,-7.22465 -6.14804,-12.5 -0.60932,-1.375 -3.5714,-5.425 -6.5824,-9 -3.011,-3.575 -6.40552,-8.3 -7.54338,-10.5 -1.13786,-2.2 -3.83123,-7.15 -5.98527,-11 -2.15403,-3.85 -4.76965,-8.80637 -5.81249,-11.01416 -1.04283,-2.20779 -2.63255,-4.62539 -3.53269,-5.37245 -0.90015,-0.74705 -1.63663,-1.98932 -1.63663,-2.76059 0,-0.77126 -1.07345,-1.81043 -2.38544,-2.30925 -1.74992,-0.66531 -2.86541,-2.43286 -4.18698,-6.63448 -1.3961,-4.43858 -2.99543,-6.85915 -7.10672,-10.75594 -5.52643,-5.2381 -6.86992,-7.61853 -6.43581,-11.40313 0.19182,-1.67232 -0.25771,-2.25 -1.75086,-2.25 -2.07728,0 -13.13485,-12.04555 -13.13345,-14.30691 6.6e-4,-1.05848 -2.96638,-4.02734 -20.97055,-20.98347 -2.4584,-2.31529 -6.2834,-5.14269 -8.5,-6.28312 -2.21661,-1.14042 -5.02975,-3.55026 -6.25143,-5.3552 -2.52294,-3.72746 -17.85675,-20.0713 -18.83091,-20.0713 -0.95047,0 -21.35497,-20.80418 -25.7648,-26.26948 -2.09932,-2.60179 -4.60582,-4.73052 -5.57,-4.73052 -0.964178,0 -3.521548,-1.50527 -5.683048,-3.34504 -2.1615,-1.83978 -4.9425,-3.88061 -6.18,-4.53519 -1.2375,-0.65457 -2.25,-2.0743 -2.25,-3.15495 0,-1.08065 -0.45,-1.96482 -1,-1.96482 -0.55,0 -1.88856,-0.88855 -2.97457,-1.97456 -1.08601,-1.08601 -3.22351,-2.27775 -4.75,-2.64831 -1.52649,-0.37055 -4.26326,-2.18578 -6.08172,-4.03383 -1.81846,-1.84804 -4.96846,-4.2151 -7,-5.26011 -2.03154,-1.04501 -5.0154,-3.29124 -6.6308,-4.99161 -1.6154,-1.70037 -3.49182,-3.09158 -4.16982,-3.09158 -0.67799,0 -3.6313,-2.51844 -6.5629,-5.59654 -2.93161,-3.07809 -6.45519,-6.1863 -7.83019,-6.90713 -1.375,-0.72082 -4.46912,-3.13553 -6.87582,-5.366 -2.4067,-2.23048 -6.48333,-5.5084 -9.05918,-7.28427 -2.57585,-1.77587 -6.21932,-5.28023 -8.0966,-7.78746 -1.87728,-2.50723 -5.00065,-6.19677 -6.9408198,-8.19897 -5.95309,-6.14344 -7.02758,-7.48167 -7.02758,-8.75253 0,-0.67383 -0.4801,-0.92842 -1.06687995,-0.56576 -1.04244,0.64426 -0.98322,-2.49124 0.0669,-3.54134 0.27499995,-0.275 1.84999995,-3.13122 3.49999995,-6.34716 1.65,-3.21595 3.675,-6.06925 4.5,-6.34068 0.825,-0.27143 2.3999998,-0.8765 3.4999998,-1.3446 2.45715,-1.04562 8.71752,-2.42113 9.77859,-2.14853 0.42823,0.11002 8.30323,0.25504 17.5,0.32228 13.42223,0.0981 17.70792,-0.21617 21.72141,-1.59292 2.75,-0.94333 7.475,-1.91813 10.5,-2.16622 3.025,-0.24808 7.12154,-0.88515 9.10343,-1.41569 2.46612,-0.66018 4.62762,-0.6076 6.84849,0.16661 3.72021,1.29687 13.979398,0.52038 17.344178,-1.31274 1.21214,-0.66037 4.4539,-1.2813 7.2039,-1.37984 2.75,-0.0985 7.19384,-0.64039 9.87521,-1.20412 2.86864,-0.6031 6.09284,-0.67575 7.83361,-0.1765 1.77794,0.50991 4.82041,0.41804 7.6248,-0.23023 2.56651,-0.59328 7.14138,-1.19727 10.16638,-1.34219 3.025,-0.14492 8.65,-0.78849 12.5,-1.43015 3.85,-0.64166 9.475,-1.03927 12.5,-0.88358 3.025,0.15569 6.14577,-0.12274 6.93505,-0.61872 0.78928,-0.49598 7.08928,-1.01781 14,-1.15961 31.0575,-0.63726 52.25391,-1.50676 60.56495,-2.48441 4.95,-0.58229 17.1,-1.19862 27,-1.36961 18.438,-0.31847 50.06608,-2.73587 59,-4.50948 2.75,-0.54595 7.025,-1.02771 9.5,-1.07058 4.76067,-0.0825 16.52098,1.62458 18.15667,2.6355 0.53315,0.3295 1.78424,-0.13837 2.78022,-1.03972 1.3986,-1.26571 3.4901,-1.57982 9.18699,-1.37973 4.05686,0.14249 10.07612,-0.13678 13.37612,-0.6206 3.3,-0.48382 14.325,-0.99722 24.5,-1.14089 10.175,-0.14367 19.7375,-0.28067 21.25,-0.30446 1.5125,-0.0238 4.4375,0.0154 6.5,0.0871 2.0625,0.0717 6.45,0.0884 9.75,0.0373 8.99238,-0.13947 31.62267,-0.12444 43.5,0.0289 16.84982,0.21752 24.13486,0.18099 30,-0.15043 3.025,-0.17093 10.9,-0.0689 17.5,0.22671 35.87729,1.60702 48.44132,2.00087 52.5,1.64576 4.9691,-0.43476 25.96972,-0.58371 41.5,-0.29435 5.5,0.10247 14.95,0.22524 21,0.27281 6.05,0.0476 17.975,0.63256 26.5,1.29997 8.525,0.66742 17.8625,1.09616 20.75,0.95276 5.3619,-0.26629 12.77188,-0.35646 35.75,-0.43503 7.15,-0.0245 16.825,-0.13706 21.5,-0.25025 4.675,-0.11319 16.375,0.15425 26,0.5943 18.40224,0.84135 61.16954,2.10753 81.49994,2.41291 6.6,0.0991 23.25,0.49804 37,0.88647 42.8489,1.21043 97.26959,2.51528 101.50009,2.43368 1.375,-0.0265 3.625,-0.003 5,0.0513 1.375,0.0548 22.3,0.29969 46.5,0.54427 24.2,0.24458 49.9035,0.6425 57.1188,0.88427 7.2154,0.24177 15.0904,4.7e-4 17.5,-0.53623 5.1818,-1.15412 10.7706,-1.1205 12.2934,0.074 0.5983,0.4693 4.2378,0.66337 8.0878,0.43127 3.85,-0.2321 10.15,-0.5516 14,-0.71 3.85,-0.1584 10.375,-0.82885 14.5,-1.48989 4.125,-0.66104 11.0451,-1.20056 15.3781,-1.19893 4.3329,0.002 10.8579,-0.40736 14.5,-0.90888 15.2535,-2.10045 25.3384,-3.93297 26.4434,-4.80498 1.7235,-1.36015 11.1995,-2.37665 15.1851,-1.62894 10.9018,2.04518 16.1025,17.67875 8.3366,25.06003 -1.6623,1.58001 -4.3038,5.68525 -5.8701,9.12275 -1.5662,3.4375 -3.3191,6.25 -3.8954,6.25 -0.5762,0 -3.1919,1.29364 -5.8127,2.87476 -2.6207,1.58112 -6.7583,3.17436 -9.1946,3.54054 -3.9402,0.59221 -4.9346,0.30814 -9,-2.57113 -2.5137,-1.78029 -4.934,-3.83024 -5.3784,-4.55543 -0.4444,-0.72519 -3.4279,-2.64102 -6.6299,-4.25738 -4.5933,-2.31869 -8.0101,-3.14989 -16.192,-3.93892 -10.9622,-1.05717 -32.6823,-0.17094 -45.5419,1.85823 -6.2317,0.98332 -8.1902,0.8796 -14.9401,-0.79123 -5.9769,-1.47951 -8.4524,-1.68438 -10.7356,-0.88845 -1.9815,0.69075 -11.4706,0.76923 -28.56,0.2362 -14.0759,-0.43903 -29.9894,-0.91322 -35.3634,-1.05374 -5.374,-0.14053 -10.549,-0.60494 -11.5,-1.03204 -1.7913,-0.80446 -77.75109,-1.89367 -105.44179,-1.51196 -3.142,0.0433 -8.767,-0.53717 -12.5,-1.28995 -5.0403,-1.0164 -9.7474,-1.15919 -18.2874,-0.55477 -24.5147,1.73506 -29.4138,1.8367 -30.8555,0.64016 -0.7766,-0.6445 -6.4143,-1.49597 -12.5282,-1.89216 -6.114,-0.39627 -13.1413,-1.09414 -15.6163,-1.55092 -2.9393,-0.54246 -7.2745,-0.35812 -12.49994,0.53153 -9.06185,1.54281 -10.85906,1.55826 -21.97377,0.18894 -4.38557,-0.5403 -11.69333,-0.98236 -16.23947,-0.98236 -6.59856,0 -9.59383,-0.53168 -14.85046,-2.63605 -5.79636,-2.32044 -7.03872,-2.50004 -10.37654,-1.5 -2.08549,0.62483 -6.04067,1.13605 -8.78929,1.13605 -2.74862,0 -7.42141,0.47264 -10.38398,1.0503 -3.00208,0.58537 -18.22376,1.05135 -34.38649,1.05266 -25.67221,0.002 -32.70933,-0.42276 -42.5,-2.56581 -1.375,-0.30097 -10.375,-0.55752 -20,-0.57012 -9.625,-0.0126 -27.175,-0.0346 -39,-0.049 -32.50901,-0.0394 -42.59764,-0.38644 -53,-1.82291 -7.27619,-1.00478 -12.07494,-1.06634 -20.5,-0.263 -6.05,0.57687 -12.35,1.08184 -14,1.12215 -13.06754,0.31926 -21.55212,0.13155 -22.57298,-0.49937 -2.16559,-1.33841 -48.17243,-1.04724 -50.61128,0.32031 -2.70649,1.51763 -26.5482,1.60807 -37.31574,0.14155 -4.125,-0.56181 -12.34781,-1.04292 -18.27291,-1.06912 -8.76721,-0.0388 -11.28064,0.28849 -13.5,1.75779 -2.98618,1.97695 -5.47855,2.05532 -38.22709,1.20211 -12.68178,-0.33041 -18.73897,-0.0943 -22,0.85744 -2.475,0.72235 -5.89205,1.31824 -7.59345,1.3242 -1.7014,0.006 -5.64709,0.8894 -8.76821,1.96322 -3.12112,1.07383 -8.47906,2.23789 -11.90655,2.58682 -3.42748,0.34892 -8.82108,1.49534 -11.98577,2.54759 -6.18935,2.05795 -18.67083,2.51652 -26.63461,0.97857 -3.20791,-0.61951 -5.33674,-0.45135 -7.91289,0.62503 -3.79805,1.58693 -14.60784,2.574 -25.44852,2.32379 -21.80061,-0.50319 -33.02658,0.21528 -44.75,2.86403 -8.12006,1.83462 -16.39975,3.86464 -22.4601,5.50679 -3.27805,0.88824 -6.89043,1.61498 -8.02749,1.61498 -1.13707,0 -3.05357,0.69074 -4.25889,1.53498 -2.20491,1.54438 -8.14339,2.61817 -24.75352,4.47591 -4.95,0.55363 -9.9,1.39026 -11,1.85918 -1.1,0.46893 -6.62412,0.75177 -12.27582,0.62854 -5.65171,-0.12323 -10.48368,0.11224 -10.73771,0.52328 -0.25403,0.41103 -2.43165,1.04272 -4.839148,1.40375 -2.4075,0.36102 -5.22553,1.29864 -6.2623,2.08358 -1.03676,0.78495 -3.3004,1.44148 -5.03031,1.45898 -3.81571,0.0386 -17.36602,5.57757 -19.10471,7.80948 -1.83257,2.3524 -1.54573,4.90422 1.20478,10.71831 2.5422,5.37379 9.99079,12.50401 13.06231,12.50401 0.92427,0 2.87915,1.28317 4.34419,2.8515 1.46503,1.56832 4.04801,3.56735 5.73995,4.44229 3.44597,1.78198 42.398768,40.00065 42.398768,41.5997 0,0.56221 1.95352,2.16704 4.34115,3.56629 4.13747,2.42471 7.71924,5.87127 13.99706,13.46866 1.55813,1.88564 4.75049,4.6445 7.09414,6.1308 2.34365,1.4863 6.69264,5.89373 9.66442,9.79429 2.97178,3.90056 6.12898,7.33992 7.016,7.64303 1.42571,0.48719 5.96971,5.52917 13.87625,15.397 1.36897,1.70854 3.05647,3.10644 3.75,3.10644 0.69354,0 1.26098,0.41462 1.26098,0.92138 0,0.50676 2.98539,3.99426 6.6342,7.75 8.25678,8.49875 12.62131,13.85345 14.8214,18.18391 0.93756,1.84541 4.73457,7.47041 8.4378,12.5 3.70323,5.02959 7.34882,10.71971 8.10131,12.64471 1.19256,3.05079 4.24434,8.7525 8.29622,15.5 0.66055,1.1 2.82928,4.03335 4.8194,6.51855 5.30446,6.62405 10.4242,14.95285 11.81973,19.22835 0.67265,2.06079 1.97606,4.31079 2.89647,5 0.92041,0.6892 2.53769,2.8281 3.59396,4.7531 1.05627,1.925 3.79517,5.975 6.08643,9 2.29127,3.025 5.43667,8.41698 6.98978,11.98217 1.55311,3.5652 4.55172,8.66811 6.66357,11.3398 2.11185,2.67169 3.83973,5.57571 3.83973,6.45338 0,0.87766 0.85375,2.52475 1.89721,3.6602 1.88324,2.04925 5.92379,9.31729 15.32401,27.56445 2.69171,5.225 5.99309,10.64962 7.3364,12.05472 1.34331,1.40509 2.44238,2.81307 2.44238,3.12884 0,0.31577 1.575,3.18968 3.5,6.38646 1.925,3.19678 3.5,6.59177 3.5,7.54443 0,0.95265 1.03965,3.00413 2.31033,4.55882 1.27068,1.5547 2.86374,4.73923 3.54014,7.07673 0.6764,2.3375 1.6526,4.25 2.16935,4.25 0.51674,0 1.83665,1.75849 2.93312,3.90775 1.09647,2.14927 2.4061,4.06177 2.91028,4.25 0.99253,0.37056 5.5521,9.82318 10.59049,21.95555 1.73893,4.18731 4.51132,9.36231 6.16087,11.5 5.34966,6.93272 10.07815,14.7955 11.35804,18.8867 0.68825,2.2 3.45097,7.22354 6.13937,11.1634 2.68841,3.9399 4.88801,7.8167 4.88801,8.6152 0,0.7984 0.87913,2.5693 1.95363,3.9353 2.74157,3.4854 9.03561,15.9556 9.04149,17.9137 0.003,0.8951 0.74108,2.2385 1.64089,2.9853 2.55096,2.1171 6.29732,8.5161 9.2871,15.8628 2.75793,6.777 8.83568,17.0243 10.09727,17.0243 0.88294,0 6.97962,13.2024 6.97962,15.1144 0,2.3148 4.04116,13.2363 5.50793,14.8856 0.73372,0.825 2.25878,3.8517 3.38903,6.7261 1.13025,2.8743 3.61068,7.4394 5.51206,10.1445 1.90139,2.7051 3.93318,6.6534 4.5151,8.7739 0.58192,2.1205 3.13075,7.9055 5.66407,12.8555 2.53333,4.95 5.46431,11.7 6.5133,15 1.04898,3.3 2.41549,6.9829 3.03669,8.1843 0.6212,1.2014 0.86734,3.1866 0.54698,4.4117 -0.6747,2.58 0.48397,5.1096 4.41217,9.6326 1.54221,1.7758 3.11562,4.9258 3.49645,7 0.38084,2.0743 2.65304,8.3798 5.04933,14.0122 2.39629,5.6325 4.35689,10.5013 4.35689,10.8195 0,0.3183 2.57947,3.4627 5.73216,6.9875 3.56624,3.9871 6.36831,8.2802 7.41576,11.3618 3.4518,10.15496 16.09102,23.09036 22.56174,23.09036 4.4642,0 6.77432,-3.3634 8.24206,-12 0.70103,-4.12496 1.24288,-8.62496 1.20413,-9.99996 -0.27855,-9.8822 -1.41916,-22.8333 -2.15772,-24.5 -1.78033,-4.0175 -3.14892,-32.7089 -1.72057,-36.0703 0.56691,-1.3341 0.29741,-4.7122 -0.75789,-9.5 -3.46127,-15.7033 -4.57544,-22.769 -5.11376,-32.4297 -1.01262,-18.1724 -0.93152,-22.9602 0.45336,-26.7656 1.06459,-2.9253 1.11518,-4.3819 0.22674,-6.5267 -0.62902,-1.5186 -1.30475,-7.9291 -1.50162,-14.2455 -0.24371,-7.819 -0.89493,-12.7576 -2.04038,-15.4733 -0.92534,-2.1939 -1.69654,-6.4639 -1.71379,-9.4889 -0.0172,-3.025 -0.50252,-7.8393 -1.07838,-10.6984 -0.77573,-3.8515 -0.72025,-6.7382 0.21409,-11.141 0.96537,-4.5491 0.99238,-6.7569 0.11517,-9.4149 -0.63027,-1.9097 -1.28835,-7.2462 -1.46241,-11.8589 -0.39665,-10.51159 -2.37145,-23.24987 -4.35241,-28.07488 -0.87092,-2.12128 -1.24035,-4.7791 -0.86961,-6.25626 0.35452,-1.4125 -0.13018,-7.17787 -1.07711,-12.81192 -1.58604,-9.43669 -2.49159,-21.95331 -2.35283,-32.52127 0.0309,-2.35264 -0.62399,-5.59279 -1.45529,-7.20034 -1.00042,-1.93461 -1.51144,-5.7935 -1.51144,-11.41345 0,-4.66986 -0.41469,-8.74694 -0.92153,-9.06018 -0.50685,-0.31325 -1.23098,-3.60231 -1.60918,-7.30902 -0.37821,-3.70671 -1.78339,-11.13781 -3.12261,-16.51355 -1.33923,-5.37574 -2.1909,-10.16897 -1.8926,-10.65163 0.52545,-0.85019 -0.85637,-9.12812 -3.93522,-23.5743 -0.82053,-3.85 -1.97549,-11.01855 -2.56658,-15.93012 -0.59109,-4.91156 -1.46337,-9.65635 -1.93842,-10.54398 -0.47504,-0.88762 -0.90851,-4.96907 -0.96326,-9.06988 -0.2412,-18.06645 -0.32284,-17.63929 3.97946,-20.82012 2.86511,-2.11827 3.14383,-2.14625 5.79269,-0.58153 2.84246,1.67908 8.17725,10.01043 8.17725,12.77043 0,0.84152 1.08629,2.38452 2.41399,3.42888 2.85429,2.24519 5.58601,8.30942 5.58601,12.40056 0,1.6005 0.675,4.5255 1.5,6.5 0.825,1.97451 1.5,5.13964 1.5,7.03363 0,1.89399 0.52683,4.42653 1.17074,5.62787 0.6439,1.20134 1.09327,5.01789 0.9986,8.48122 -0.10018,3.66481 0.39718,7.42685 1.18983,9 0.74908,1.48667 1.63663,5.78177 1.97233,9.54467 0.62619,7.01906 4.00146,15.63944 9.01788,23.03156 3.18135,4.68799 4.74738,11.71831 5.20452,23.36455 0.19944,5.08076 0.84162,10.13278 1.42708,11.22673 0.58546,1.09394 1.26724,5.623 1.51506,10.06457 0.24782,4.44157 0.63922,8.38954 0.86977,8.77327 0.23055,0.38373 0.71228,5.64769 1.0705,11.69769 0.35822,6.05 1.0816,12.4625 1.6075,14.25 0.52591,1.7875 1.40619,4.74445 1.95619,6.571 0.55,1.82655 1,5.09202 1,7.2566 0,2.16458 0.46837,5.50763 1.04081,7.429 0.57245,1.92137 1.27351,9.3434 1.55791,16.4934 0.64734,16.2745 0.88321,18.0617 4.01991,30.4601 0.75975,3.0031 1.38137,7.2461 1.38137,9.429 0,2.1829 0.42136,5.3509 0.93637,7.0399 2.2072,7.239 2.79756,12.7814 1.78594,16.7669 -0.76402,3.01 -0.70065,4.9751 0.24477,7.5896 0.70166,1.9404 1.45385,8.295 1.67154,14.1213 0.21769,5.8262 0.68862,11.2682 1.04651,12.0932 0.35789,0.825 0.97254,4.425 1.36588,8 0.39334,3.575 1.2021,9.425 1.79725,13 0.59515,3.575 1.32632,11.225 1.62483,17 0.29851,5.775 0.77231,12.3 1.05288,14.5 0.28057,2.2 0.70052,10.075 0.93322,17.5 0.23269,7.425 0.839,16.4142 1.34734,19.976 0.50834,3.5617 0.58328,7.6648 0.16654,9.1179 -0.98029,3.4181 -0.47577,15.4995 1.01919,24.4061 0.64622,3.85 1.71525,11.94996 2.37562,17.99996 0.66037,6.05 1.77276,12.0296 2.47196,13.2881 1.49809,2.6963 0.78235,8.9881 -1.95796,17.2119 -2.36411,7.0948 -2.33681,7.9197 0.47056,14.2204 2.5141,5.6424 2.59093,12.5681 0.17784,16.0309 -0.93639,1.3437 -0.95744,2.7871 -0.0905,6.2016 0.62147,2.4476 1.446,4.7662 1.83228,5.1525 0.38628,0.3863 0.46149,2.3206 0.16714,4.2985 -0.29436,1.9778 0.10788,7.8021 0.89386,12.9429 0.78598,5.1407 1.21963,10.1476 0.96367,11.1264 -0.25597,0.9788 0.42647,4.7525 1.51652,8.3859 1.59965,5.332 1.79011,7.4293 0.98748,10.8736 -1.04461,4.4825 -0.64319,16.5222 1.19252,35.7673 1.08022,11.3247 0.73398,18 -0.93363,18 -0.46735,0 -1.90946,1.1172 -3.20469,2.4827 -1.29523,1.3655 -3.05246,2.4905 -3.90496,2.5 -0.8525,0.01 -1.99261,0.4599 -2.53358,1.0009 -0.98281,0.9828 -2.26208,1.0823 -14.35791,1.1167 -3.54281,0.01 -6.80531,0.2432 -7.25,0.518 -0.44468,0.2749 -0.80851,0.2482 -0.80851,-0.059 z m 1193.64955,-77.2428 c -0.2257,-0.2257 -2.3766,-0.6186 -4.7799,-0.8733 -15.9657,-1.6915 -20.77,-2.364 -23.863,-3.3403 -1.9214,-0.6064 -5.0939,-1.1026 -7.05,-1.1026 -1.9561,0 -3.9841,-0.4242 -4.5066,-0.9427 -0.5225,-0.5184 -2.75,-1.389 -4.95,-1.9346 -12.5585,-3.1145 -15.187,-3.8634 -17,-4.8438 -1.1,-0.5948 -4.25,-1.3973 -7,-1.7833 -5.0777,-0.7126 -14.883,-4.6882 -15.9931,-6.4844 -0.3348,-0.5417 -3.1733,-1.7241 -6.3078,-2.6276 -3.1345,-0.9035 -6.8241,-2.387 -8.1991,-3.2967 -1.375,-0.9097 -6.325,-3.1746 -11,-5.0331 -7.9795,-3.1721 -13.6195,-6.2724 -24.8122,-13.6393 -2.5783,-1.697 -5.917,-3.391 -7.4195,-3.7644 -1.5024,-0.3735 -4.2635,-2.024 -6.1357,-3.6678 -1.8723,-1.6439 -4.918,-3.6253 -6.7684,-4.4031 -1.8503,-0.7778 -5.9751,-3.929 -9.1661,-7.0028 -3.191,-3.0738 -7.466,-6.5012 -9.5,-7.6164 -7.9492,-4.3587 -21.0302,-13.412 -28.0298,-19.3993 -2.9324,-2.5084 -5.9189,-4.5607 -6.6366,-4.5607 -1.5564,0 -7.6466,-5.2398 -20.5296,-17.66276 -16.3712,-15.7866 -21.5453,-21.592 -24.656,-27.6646 -0.8938,-1.7449 -1.9115,-3.3976 -2.2615,-3.6726 -1.7165,-1.3488 -6.9015,-8.7693 -7.5243,-10.7685 -0.3888,-1.2476 -2.0238,-3.7104 -3.6336,-5.4728 -1.6097,-1.7624 -2.9267,-3.5951 -2.9267,-4.0726 0,-1.2463 -6.7755,-8.9877 -8.9101,-10.1803 -5.0179,-2.8036 -17.9982,-21.0311 -18.0679,-25.372 -0.012,-0.7513 -2.635,-4.3513 -5.8288,-8 -3.1937,-3.6486 -8.3122,-11.1338 -11.3743,-16.6338 -3.0622,-5.5 -6.7335,-12.025 -8.1584,-14.5 -4.5917,-7.9754 -6.2925,-12.3109 -8.6112,-21.9509 -1.2503,-5.1979 -2.8657,-10.8229 -3.5898,-12.5 -3.3776,-7.822 -8.4595,-22.3552 -8.4595,-24.1922 0,-1.1241 -0.8338,-4.4767 -1.8528,-7.4503 -1.019,-2.9736 -2.1756,-8.7816 -2.5701,-12.9066 -0.3945,-4.125 -1.3021,-8.4071 -2.0168,-9.5158 -2.8585,-4.4341 -5.9217,-19.0603 -6.4892,-30.9842 -0.3706,-7.78709 -1.084,-12.87769 -2.032,-14.5 -2.5388,-4.34438 -3.7436,-19.46507 -4.0238,-50.5 -0.1272,-14.08977 0.2877,-18.82897 2.5582,-29.2222 1.4852,-6.79828 3.8834,-19.43205 5.4627,-28.7778 0.4647,-2.75 1.5392,-8.15 2.3878,-12 0.8486,-3.85 1.7791,-8.8 2.0677,-11 1.0134,-7.72353 6.0418,-29.34197 8.0875,-34.77024 0.7814,-2.07363 1.4208,-4.8604 1.4208,-6.19284 0,-1.33243 0.8942,-3.93813 1.9871,-5.79044 1.0929,-1.85231 2.8801,-6.95605 3.9716,-11.34164 1.1636,-4.67512 4.2627,-12.30329 7.4915,-18.43932 3.0288,-5.75604 5.5165,-11.62175 5.5283,-13.03491 0.012,-1.41317 1.8215,-4.98194 4.0215,-7.93061 2.2,-2.94867 4,-5.89984 4,-6.55816 0,-0.65832 0.675,-1.75715 1.5,-2.44184 0.825,-0.68469 1.5,-2.3416 1.5,-3.68204 0,-1.34043 1.8,-6.20851 4,-10.81796 2.2,-4.60945 4,-8.90711 4,-9.55036 0,-1.03392 8.0313,-13.7104 24.75,-39.06505 2.8875,-4.37902 5.25,-8.59657 5.25,-9.37233 0,-0.77576 1.5963,-2.62802 3.5473,-4.11612 1.951,-1.4881 5.3676,-5.76966 7.5924,-9.51458 2.2248,-3.74493 6.2316,-8.93002 8.904,-11.52244 2.6724,-2.59243 7.8904,-9.35876 11.5955,-15.03631 3.7052,-5.67754 7.1423,-10.32281 7.6379,-10.32281 0.8518,0 2.8674,-1.86078 15.4948,-14.30469 2.8996,-2.85742 6.7246,-7.30437 8.5,-9.88212 1.7755,-2.57774 4.1281,-5.16246 5.2281,-5.74383 9.0633,-4.79003 12.0226,-6.8519 12.3257,-8.58777 0.4495,-2.57389 16.567,-18.05791 21.4134,-20.57168 6.6042,-3.42555 16.0318,-9.85166 17.4741,-11.91087 0.7701,-1.09947 2.034,-1.99904 2.8087,-1.99904 0.7747,0 2.931,-1.33678 4.7919,-2.97062 1.8608,-1.63384 5.5107,-3.88255 8.111,-4.99713 2.6002,-1.11458 7.1024,-3.6028 10.0049,-5.52938 2.9025,-1.92658 6.2068,-3.50287 7.3428,-3.50287 1.136,0 3.3394,-0.63086 4.8965,-1.4019 8.6792,-4.29787 19.085,-6.41876 44.8927,-9.14995 14.7568,-1.56168 15.2428,-1.55093 24,0.53095 4.9161,1.1687 11.8633,2.81238 15.4383,3.65263 9.2392,2.17153 19.6037,6.1113 26,9.88317 3.025,1.78381 7.2442,3.8586 9.3759,4.61063 2.1318,0.75203 4.0853,1.91268 4.341,2.5792 0.2558,0.66653 2.3366,2.33377 4.6241,3.70497 2.2874,1.37121 6.3798,4.76497 9.094,7.5417 2.7143,2.77673 5.3076,5.0486 5.7629,5.0486 1.5328,0 15.9402,13.71189 21.6796,20.63299 1.3076,1.57686 3.0011,4.32951 3.7634,6.11701 0.7623,1.7875 1.8475,3.25 2.4116,3.25 1.7631,0 8.2823,7.16309 14.191,15.59274 3.12,4.45101 6.3665,8.66861 7.2146,9.37245 0.848,0.70383 1.5419,1.61586 1.5419,2.02671 0,0.41086 2.4474,4.74326 5.4386,9.62756 2.9913,4.8843 6.6173,11.35421 8.0578,14.37759 1.4405,3.02338 3.4203,6.39838 4.3995,7.5 0.9793,1.10162 2.3854,3.57795 3.1248,5.50295 0.7394,1.925 2.1394,4.54417 3.1111,5.82038 0.9717,1.27621 2.0696,4.42621 2.4398,7 0.3702,2.57379 1.2574,5.35462 1.9717,6.17962 0.7143,0.825 2.2395,3.89258 3.3894,6.81684 3.5727,9.08539 8.2005,18.59367 10.0668,20.68316 1.0422,1.16686 2.2713,5.12426 2.9507,9.5 0.6404,4.125 2.2493,10.875 3.5753,15 3.4885,10.85222 5.8797,23.3942 6.1009,32 0.3361,13.07797 1.2492,23.36361 2.4648,27.7664 0.8701,3.15143 0.9018,6.15682 0.1214,11.5 -0.5811,3.97848 -1.0608,11.07605 -1.0659,15.77238 -0.01,6.03335 -0.5752,9.99449 -1.9379,13.5 -1.0607,2.72867 -2.2297,8.00401 -2.5977,11.72298 -0.3681,3.71897 -2.0061,10.23371 -3.6402,14.47719 -1.634,4.24349 -2.9709,8.94631 -2.9709,10.45073 0,3.4219 -3.4656,12.79571 -6.9407,18.77335 -1.4506,2.49533 -4.1636,8.07138 -6.0289,12.39121 -1.8652,4.31983 -4.2101,8.36557 -5.2109,8.99054 -1.0007,0.62497 -1.8195,1.52256 -1.8195,1.99464 0,0.47208 -0.6268,2.27633 -1.3929,4.00945 -0.7662,1.73312 -1.6813,3.82613 -2.0337,4.65113 -0.6174,1.44532 -3.241,5.50221 -12.3234,19.05553 -2.3375,3.48818 -4.2799,7.26516 -4.3164,8.39331 -0.037,1.12814 -1.6025,4.07616 -3.4801,6.55116 -1.8775,2.475 -4.1593,5.85 -5.0706,7.5 -0.9113,1.65 -3.041,4.76065 -4.7327,6.91255 -1.6917,2.15191 -4.0519,5.97691 -5.245,8.5 -1.1931,2.5231 -5.3169,7.75926 -9.1641,11.63591 -3.8471,3.87665 -7.9174,8.85682 -9.0449,11.06704 -3.9406,7.72414 -19.7736,20.3845 -25.4929,20.3845 -0.9326,0 -1.9354,-1.07651 -2.2793,-2.44689 -1.3609,-5.42207 4.2735,-16.15459 13.7631,-26.21656 3.1971,-3.38989 5.8129,-6.89667 5.8129,-7.79284 0,-0.89616 1.9573,-3.74761 4.3496,-6.33655 2.3923,-2.58894 5.6396,-6.95716 7.2162,-9.70716 1.5767,-2.75 3.4444,-5.59464 4.1504,-6.32143 0.7061,-0.72678 1.2895,-1.85178 1.2965,-2.5 0.023,-2.14833 5.7766,-12.58485 9.3254,-16.91575 1.9215,-2.34487 4.7205,-6.73828 6.2201,-9.76312 1.4995,-3.02483 5.6732,-9.75373 9.2748,-14.9531 4.4533,-6.42889 7.1006,-11.44481 8.2743,-15.67775 0.9493,-3.42339 2.5931,-7.49436 3.6529,-9.0466 6.079,-8.90362 7.3797,-11.5374 8.2066,-16.61834 0.5023,-3.08622 1.4527,-6.61917 2.1119,-7.851 1.6051,-2.99914 6.9213,-19.90898 6.9213,-22.01534 0,-0.91947 0.8721,-3.70639 1.9381,-6.19317 1.3298,-3.10221 2.2453,-8.69965 2.9169,-17.8329 1.2251,-16.66015 1.1173,-15.35447 1.7727,-21.46837 0.3065,-2.85919 -0.039,-7.7603 -0.7753,-11 -0.7304,-3.21372 -1.3587,-9.44313 -1.3963,-13.84313 -0.038,-4.4 -0.6403,-9.8 -1.3395,-12 -0.6992,-2.2 -1.6786,-6.7 -2.1764,-10 -0.4978,-3.3 -1.603,-8.475 -2.4559,-11.5 -2.1534,-7.63786 -7.4803,-24.73215 -9.1211,-29.27024 -0.7498,-2.07363 -1.3632,-4.66442 -1.3632,-5.75732 0,-1.0929 -1.0943,-4.1213 -2.4319,-6.72977 -1.3375,-2.60847 -3.6046,-7.44267 -5.038,-10.74267 -1.4333,-3.3 -2.9265,-6.49938 -3.3181,-7.10973 -2.489,-3.87925 -4.9563,-7.28194 -7.189,-9.91419 -1.4107,-1.66315 -4.4834,-6.61315 -6.8282,-11 -2.3448,-4.38684 -7.1765,-12.02608 -10.7371,-16.97608 -3.5606,-4.95 -7.2577,-10.29875 -8.2158,-11.88611 -0.958,-1.58736 -2.9898,-4.28736 -4.5151,-6 -1.5253,-1.71264 -4.5423,-5.13889 -6.7046,-7.61389 -10.3702,-11.86992 -17.8499,-19.299 -21.1813,-21.03789 -2.0124,-1.05048 -5.7523,-3.7217 -8.3108,-5.93604 -2.5584,-2.21434 -5.1654,-4.02607 -5.7933,-4.02607 -0.6279,0 -2.513,-1.27936 -4.1892,-2.84303 -1.6762,-1.56366 -6.6476,-4.3226 -11.0476,-6.13098 -4.4,-1.80837 -10.2565,-4.35401 -13.0144,-5.65697 -2.7578,-1.30296 -6.1328,-2.37483 -7.5,-2.38192 -1.3671,-0.007 -5.2646,-0.88419 -8.6611,-1.94909 -8.4537,-2.65045 -24.0911,-3.60662 -34.4822,-2.10845 -20.2169,2.91479 -27.4464,4.32913 -28.9279,5.65924 -0.8721,0.78299 -4.2471,2.77035 -7.5,4.41636 -3.2529,1.64601 -8.3894,4.77126 -11.4144,6.94499 -3.025,2.17373 -7.9687,5.20661 -10.9861,6.73972 -3.0173,1.53311 -7.4087,4.25507 -9.7586,6.0488 -2.3499,1.79373 -4.8624,3.26133 -5.5833,3.26133 -1.4889,0 -10.4328,6.21006 -15.672,10.88155 -7.3773,6.57789 -13.6082,12.23999 -16.3228,14.83272 -1.5526,1.48284 -4.0798,3.46047 -5.616,4.39472 -1.5363,0.93425 -4.091,3.51679 -5.6772,5.73896 -1.5862,2.22218 -3.7962,4.27387 -4.9111,4.5593 -1.115,0.28544 -3.943,3.23558 -6.2845,6.55587 -2.3415,3.32028 -4.6615,6.03688 -5.1555,6.03688 -0.494,0 -1.1814,0.89238 -1.5275,1.98307 -0.3462,1.09068 -2.6265,3.98016 -5.0674,6.42105 -2.4409,2.44089 -4.438,4.93316 -4.438,5.53837 0,0.60521 -1.125,1.61297 -2.5,2.23946 -1.375,0.6265 -2.5,1.50119 -2.5,1.94377 0,1.45028 -6.1745,7.87428 -7.5684,7.87428 -1.6576,0 -3.3376,3.00664 -2.6911,4.81607 0.261,0.7304 -0.429,1.55122 -1.5504,1.84448 -1.1114,0.29063 -2.2785,1.55568 -2.5937,2.81123 -0.3151,1.25554 -1.7032,3.0234 -3.0847,3.92857 -1.5275,1.0009 -2.5117,2.58623 -2.5117,4.04598 0,1.32012 -1.0566,3.67225 -2.3479,5.22694 -1.2914,1.5547 -2.6687,4.17673 -3.0609,5.82673 -0.3921,1.65 -1.8105,4.67785 -3.1521,6.72856 -1.3415,2.05071 -2.4391,4.16585 -2.4391,4.70031 0,0.53446 -0.5652,1.33161 -1.2559,1.77144 -1.2983,0.82665 -6.3267,7.24061 -8.4545,10.78402 -1.3362,2.22522 -2.8243,5.29496 -5.0161,10.34789 -0.7949,1.83272 -2.5317,4.93302 -3.8594,6.88955 -1.3278,1.95653 -2.4256,4.28203 -2.4397,5.16778 -0.014,0.88575 -1.5891,4.0646 -3.5,7.06411 -1.9109,2.99952 -3.4763,6.37452 -3.4786,7.5 0,1.12549 -1.1273,4.26011 -2.5,6.96582 -1.3727,2.70571 -2.4958,5.49346 -2.4958,6.19499 0,0.70154 -1.5946,4.45288 -3.5436,8.33632 -4.2347,8.43803 -10.4564,26.96651 -10.4564,31.13979 0,3.18814 -3.9208,11.76891 -6.2675,13.71648 -2.5025,2.07687 -7.4989,17.14392 -6.3185,19.05386 0.6681,1.08098 -1.3954,16.40927 -2.3696,17.60227 -0.4657,0.57024 -1.0807,3.51181 -1.3666,6.53681 -0.7869,8.32425 -2.3412,16.50256 -3.5742,18.80641 -0.607,1.13416 -1.1036,4.58252 -1.1036,7.66303 0,3.49894 -0.6133,6.53696 -1.6342,8.09508 -1.251,1.90929 -1.4844,3.76937 -0.9951,7.9323 0.4218,3.58882 0.1744,6.72445 -0.7273,9.22066 -2.8428,7.8693 -3.5144,12.759 -2.6784,19.50002 0.6008,4.84455 0.4644,7.74124 -0.4939,10.48784 -1.1004,3.15393 -1.0989,4.14443 0.01,5.86614 0.7328,1.13932 1.3295,3.61432 1.3259,5.5 -0.01,4.46887 3.8677,36.11524 5.1356,41.92852 0.5398,2.475 1.5036,6.975 2.1418,10 0.6382,3.025 1.5397,6.4 2.0033,7.5 1.7444,4.1384 5.0609,14.129 5.8095,17.5 0.4274,1.925 2.0129,5.921 3.5233,8.8799 1.5104,2.9589 2.5215,6.2392 2.2469,7.2894 -0.2747,1.0503 0.6195,5.1543 1.9871,9.1201 1.3675,3.9659 2.7268,8.3356 3.0205,9.7106 0.5617,2.6291 3.8115,10.4476 5.4035,13 0.5146,0.825 1.1864,2.175 1.493,3 0.3066,0.825 1.1808,2.85 1.9428,4.5 0.762,1.65 2.0881,4.7539 2.9469,6.8975 0.8588,2.1437 2.158,4.3937 2.8871,5 1.4599,1.2142 6.6531,12.9585 6.6531,15.046 0,0.7214 0.7447,1.9292 1.6549,2.6841 0.9102,0.7548 2.2662,2.8349 3.0134,4.6224 0.7472,1.7875 1.9969,3.25 2.777,3.25 1.7657,0 5.2637,4.6698 10.1983,13.6144 1.179,2.1371 3.0874,4.7392 4.2411,5.7825 1.1536,1.0433 3.2897,3.9683 4.747,6.5 1.4572,2.5317 5.2077,7.5281 8.3345,11.1031 5.9977,6.8576 16.209,20.809 19.4717,26.6035 2.7187,4.8283 16.4317,18.5254 28.1589,28.126 5.4467,4.4591 10.711,9.4855 11.6984,11.1697 0.9873,1.6843 4.8123,5.0149 8.5,7.4014 3.6876,2.3864 8.5048,6.02016 10.7048,8.07496 2.2,2.0548 5.35,4.454 7,5.3316 1.65,0.8775 6.15,3.7244 10,6.3263 3.85,2.602 9.7,6.2163 13,8.0318 3.3,1.8155 7.6327,4.681 9.6281,6.3678 1.9955,1.6868 6.4527,4.6419 9.9049,6.5669 3.4523,1.925 9.1751,5.3605 12.7175,7.6344 6.1701,3.9607 13.9705,7.628 30.2495,14.2215 4.125,1.6708 9.3908,3.9617 11.7017,5.091 2.3109,1.1292 4.5889,2.0531 5.0622,2.0531 0.4732,0 2.761,0.9182 5.0839,2.0405 4.4613,2.1555 16.6044,5.6282 24.1522,6.907 2.475,0.4194 5.85,1.3109 7.5,1.9811 8.1383,3.306 31.2379,4.6322 46.4053,2.6644 6.753,-0.8762 14.4067,-1.593 17.0083,-1.593 2.6016,0 6.7228,-0.6222 9.1583,-1.3827 2.4354,-0.7605 6.4531,-1.9558 8.9281,-2.6562 2.475,-0.7004 6.3,-2.2768 8.5,-3.5031 2.2,-1.2264 6.7639,-2.9344 10.1421,-3.7955 5.4044,-1.3778 23.3529,-9.9817 30.3579,-14.5527 4.1334,-2.6971 13.2153,-6.8812 17.9005,-8.2467 4.5994,-1.3405 5.421,-1.9128 15.5948,-10.8631 3.4386,-3.025 8.1158,-6.9938 10.394,-8.8196 4.5693,-3.662 7.52,-9.4134 6.6362,-12.9347 -0.3144,-1.2527 -4.0487,-5.8447 -8.2986,-10.2045 -12.0449,-12.35656 -20.7037,-22.81456 -21.8275,-26.36276 -0.3794,-1.1981 -2.8949,-4.6534 -5.59,-7.6784 -5.3032,-5.9524 -9.7732,-13.5588 -14.3205,-24.3681 -1.7014,-4.0442 -4.021,-7.7047 -5.6418,-8.903 -1.5138,-1.1193 -3.4685,-3.8786 -4.3437,-6.132 -3.9425,-10.1504 -8.01,-19.6547 -11.239,-26.2613 -1.9259,-3.9404 -3.8642,-8.8904 -4.3074,-11 -0.4432,-2.1096 -1.6806,-7.2106 -2.7499,-11.3356 -2.3585,-9.0988 -2.2129,-7.9247 -2.7287,-22 -0.2318,-6.325 -0.7343,-13.075 -1.1166,-15 -1.7944,-9.0351 0.4328,-41.2545 3.5254,-51 1.1345,-3.575 2.5688,-9.875 3.1873,-14 0.6186,-4.125 1.5395,-8.175 2.0465,-9 2.6501,-4.31263 4.8376,-9.80574 4.857,-12.19709 0.023,-2.76024 3.1263,-9.33187 6.9311,-14.67531 1.1732,-1.6475 2.7444,-4.71269 3.4916,-6.81153 0.7473,-2.09884 3.2128,-7.8165 5.479,-12.70592 2.2662,-4.88941 4.1203,-9.40152 4.1203,-10.02691 0,-0.62538 1.8,-3.53264 4,-6.46056 2.2,-2.92793 4,-5.84748 4,-6.4879 0,-2.04213 3.8797,-8.49741 9.7759,-16.26571 3.1482,-4.14788 6.7425,-9.25238 7.9872,-11.34333 1.2448,-2.09094 4.0573,-5.76443 6.25,-8.16329 2.1928,-2.39886 3.9869,-4.88301 3.9869,-5.52034 0,-1.24354 6.2482,-9.1358 12.7901,-16.15555 2.2109,-2.37239 4.5586,-5.61422 5.2172,-7.20407 0.99,-2.3901 1.9754,-3.00731 5.6909,-3.56449 10.9101,-1.63607 22.6193,3.19848 24.4654,10.10145 0.4381,1.63803 1.4804,3.47827 2.3162,4.08943 2.1804,1.59432 6.3906,8.02657 7.0976,10.84345 0.3314,1.32026 1.462,3.17834 2.5125,4.12906 1.0506,0.95072 1.9101,2.15187 1.9101,2.66923 0,0.51735 0.841,2.13511 1.8688,3.59501 1.0278,1.4599 2.2176,3.77937 2.6439,5.15437 0.4263,1.375 1.8353,3.89248 3.1312,5.59439 1.2958,1.70192 2.3561,3.81286 2.3561,4.69098 0,0.87813 0.3701,1.82533 0.8224,2.1049 0.7097,0.43859 8.2009,15.1576 11.5073,22.60973 0.61,1.375 2.3627,4.14263 3.8948,6.15029 1.5321,2.00766 3.0733,5.15766 3.4249,7 0.3516,1.84234 1.4094,4.92471 2.3506,6.84971 0.9412,1.925 1.9897,4.96085 2.3299,6.74634 0.5979,3.1377 4.7977,13.78081 10.7543,27.25366 2.8458,6.43661 5.7044,18.5447 4.6316,19.6175 -0.5812,0.5812 1.9781,10.1449 3.1799,11.8825 1.5884,2.2966 4.2676,11.632 3.736,13.0175 -0.3166,0.8249 -0.081,2.7335 0.5239,4.2412 0.6048,1.5077 1.0199,6.4482 0.9226,10.9789 -0.097,4.5307 0.3425,11.9557 0.9775,16.5 1.5724,11.2541 1.7584,17.8772 0.569,20.2624 -0.5485,1.1 -1.1212,8.3 -1.2726,16 -0.5098,25.9307 -1.2614,32.8592 -4.0257,37.1091 -0.7545,1.16 -1.1138,2.7813 -0.7985,3.603 0.5392,1.4051 -2.0948,15.4381 -4.5589,24.2879 -0.6125,2.2 -1.5399,6.475 -2.0609,9.5 -0.521,3.025 -2.0104,7.525 -3.3099,10 -1.2995,2.475 -4.9665,10.3403 -8.149,17.4785 -3.1825,7.1382 -6.5725,14.3382 -7.5335,16 -0.9609,1.6618 -2.4167,5.3197 -3.2351,8.1287 -1.3617,4.67376 -1.3385,5.44096 0.2734,9.04136 2.3214,5.185 6.6975,8.7365 12.6795,10.2903 4.3976,1.1423 7.7137,2.3373 22.3665,8.0597 9.447,3.6894 14.3146,4.2067 34.2244,3.6375 10.6016,-0.3032 20.8506,-0.98 22.7756,-1.5041 1.925,-0.5241 7.0598,-1.9184 11.4107,-3.0983 4.3509,-1.18 8.8385,-2.7953 9.9725,-3.5896 1.134,-0.7942 2.8073,-1.4441 3.7185,-1.4441 0.9111,0 4.2182,-1.1727 7.3491,-2.6061 3.1308,-1.4334 11.1968,-4.4905 17.9244,-6.7936 11.2796,-3.8616 16.3729,-6.3851 24.9113,-12.34236 1.7674,-1.2332 4.5635,-2.8814 6.2135,-3.6627 4.632,-2.1934 7.1993,-5.6593 7.919,-10.6911 0.5022,-3.5114 0.2944,-4.8971 -0.8808,-5.8724 -0.846,-0.7021 -1.5382,-2.0405 -1.5382,-2.9741 0,-0.9337 -1.9125,-3.4673 -4.25,-5.6303 -2.3375,-2.1629 -7.4,-8.3352 -11.25,-13.7161 -11.4896,-16.0584 -14.5128,-20.0516 -17.6999,-23.3797 -3.3612,-3.5097 -4.9613,-6.0009 -7.4387,-11.5815 -0.9156,-2.0625 -2.0093,-3.75 -2.4304,-3.75 -0.4211,0 -1.5621,-2.1375 -2.5355,-4.75 -1.6597,-4.4542 -3.9618,-8.031 -8.2061,-12.75 -1.6768,-1.8629 -10.1908,-18.5264 -10.1908,-19.9427 0,-0.3511 -0.8401,-1.8576 -1.8669,-3.3478 -5.8829,-8.5379 -8.1331,-12.8666 -8.1331,-15.6457 0,-1.7014 -0.9278,-4.8245 -2.0617,-6.9402 -2.4817,-4.6303 -6.5658,-15.7734 -8.493,-23.1723 -0.7715,-2.9619 -3.0274,-9.5433 -5.0132,-14.6251 -2.0108,-5.1459 -3.7353,-11.4743 -3.8922,-14.283 -0.1549,-2.7738 -0.7609,-7.5182 -1.3466,-10.5432 -0.5858,-3.025 -1.5931,-9.775 -2.2386,-15 -0.6454,-5.225 -1.5736,-10.25677 -2.0627,-11.18171 -0.4891,-0.92494 -1.295,-4.97494 -1.7909,-9 -0.4959,-4.02506 -1.6808,-9.79329 -2.6331,-12.81829 -1.8939,-6.01638 -1.9423,-6.59182 -1.5982,-19 0.1297,-4.675 -0.2209,-13.225 -0.7791,-19 -1.2595,-13.02957 -1.5095,-40.37757 -0.4093,-44.76231 0.4502,-1.79427 0.5911,-7.41927 0.3131,-12.5 -0.6925,-12.65487 0.5598,-24.35683 3.1057,-29.02094 1.9661,-3.60184 1.9893,-4.00598 0.4825,-8.42814 -1.8322,-5.37724 -2.1036,-18.562 -0.5078,-24.67259 0.5912,-2.26381 1.5066,-5.79471 2.0343,-7.84645 0.5276,-2.05174 1.1639,-9.45476 1.4139,-16.45116 0.25,-6.9964 0.8741,-14.0927 1.3869,-15.76957 0.5128,-1.67686 1.215,-5.55439 1.5604,-8.61673 0.3454,-3.06235 1.2641,-6.79389 2.0415,-8.29232 0.7774,-1.49844 1.374,-4.6863 1.3259,-7.08415 -0.048,-2.40967 1.0477,-7.42274 2.4505,-11.20768 1.3959,-3.76638 3.1097,-9.88546 3.8083,-13.59796 0.6987,-3.7125 1.7503,-6.75049 2.3369,-6.75109 0.5882,-6e-4 1.1316,-2.17066 1.2117,-4.83875 0.096,-3.20849 1.3592,-7.46516 3.75,-12.63974 1.9826,-4.29115 3.5983,-8.30121 3.5903,-8.91125 -0.031,-2.38785 4.4598,-15.475 7.6516,-22.2975 1.8496,-3.95359 3.3629,-7.68943 3.3629,-8.30188 0,-0.61246 0.8705,-2.77771 1.9345,-4.81167 1.064,-2.03397 2.8263,-6.39812 3.9162,-9.69812 3.2098,-9.7186 13.1834,-31.93224 14.7266,-32.79969 0.7825,-0.43983 1.4227,-1.20577 1.4227,-1.70209 0,-1.17908 8.5138,-13.34985 10.4803,-14.98185 0.8358,-0.69369 1.5197,-1.77601 1.5197,-2.40514 0,-0.62914 2.25,-3.60419 5,-6.61123 2.75,-3.00704 5,-5.9368 5,-6.51058 0,-1.48205 7.2445,-11.25292 11.8551,-15.98942 2.1416,-2.2 7.793,-8.5 12.5589,-14 14.271,-16.46941 15.1782,-17.33287 18.9562,-18.04162 4.8404,-0.90807 15.4835,2.7584 20.8847,7.19458 9.0988,7.47312 13.7676,11.84259 14.2382,13.32523 0.27,0.85068 2.7211,2.33879 5.4469,3.30692 3.261,1.15818 5.7254,2.86409 7.2053,4.98756 2.5826,3.70578 9.3043,10.72733 10.2692,10.72733 1.7058,0 16.7842,11.49988 19.269,14.69598 1.5491,1.99244 5.8748,6.66877 9.6127,10.39184 6.1564,6.13199 11.7038,13.05276 11.7038,14.60135 0,0.33019 0.9251,1.54771 2.0558,2.70559 3.0256,3.09847 11.9442,14.30022 11.9442,15.00199 0,0.33215 3.15,4.59181 7,9.46592 3.85,4.8741 7,9.27663 7,9.78339 0,0.50676 1.4932,3.23904 3.3182,6.07173 1.825,2.83268 3.9372,7.09251 4.6938,9.46627 0.7566,2.37377 2.5658,5.71143 4.0205,7.41704 1.4547,1.7056 3.6953,5.3056 4.9792,8 1.2838,2.69439 3.064,5.85464 3.956,7.02277 0.8919,1.16812 2.4472,4.76812 3.4561,8 1.0089,3.23187 2.4513,7.07056 3.2053,8.53042 0.754,1.45986 1.3809,3.48486 1.3931,4.5 0.012,1.01514 0.9023,2.97071 1.9778,4.34571 1.0755,1.375 1.9655,3.44205 1.9778,4.59345 0.023,2.13487 2.1419,8.56033 6.071,18.40655 1.2071,3.025 2.7994,8.875 3.5385,13 0.7391,4.125 1.9766,8.85 2.75,10.5 2.4511,5.2294 3.6748,12.69295 3.771,23 0.2005,21.48723 0.1843,27.21704 -0.093,33 -0.1585,3.3 -0.2283,8.925 -0.155,12.5 0.073,3.575 -0.325,10.775 -0.885,16 -0.56,5.225 -1.1674,14.225 -1.3498,20 -0.3225,10.21095 -2.1119,23.22125 -5.1576,37.5 -0.8212,3.85 -1.4874,8.20103 -1.4803,9.66896 0.01,1.46793 -0.633,3.94293 -1.4224,5.5 -2.7707,5.46534 -5.5648,16.42716 -5.5648,21.8318 0,3.00232 -0.6271,7.15537 -1.3935,9.229 -0.7664,2.07363 -2.1801,6.47024 -3.1416,9.77024 -0.9615,3.3 -2.5845,7.66957 -3.6066,9.71016 -1.0221,2.04059 -1.8583,4.87544 -1.8583,6.29966 0,1.42423 -0.6143,3.80465 -1.3651,5.28984 -0.7509,1.48519 -1.9065,5.85034 -2.5681,9.70034 -1.2604,7.3337 -1.3728,7.6711 -8.1609,24.5 -2.3295,5.775 -4.5704,12.3 -4.9799,14.5 -0.4095,2.2 -1.2415,6.7895 -1.8489,10.1988 -0.6073,3.4094 -1.9279,8.1344 -2.9346,10.5 -1.0066,2.3657 -2.1468,6.3262 -2.5337,8.8012 -0.387,2.475 -3.5409,10.35 -7.0087,17.5 -3.4678,7.15 -7.3331,16.375 -8.5896,20.5 -1.2564,4.125 -3.3344,9.5961 -4.6177,12.158 -1.2833,2.5619 -3.1259,7.5092 -4.0948,10.9939 -0.9688,3.4848 -3.2175,8.4995 -4.9971,11.144 -1.7796,2.6444 -3.6688,6.3768 -4.1982,8.2943 -0.5294,1.9174 -2.3441,5.0597 -4.0326,6.9828 -1.7239,1.9634 -3.0701,4.6239 -3.0701,6.0674 0,1.414 -1.0125,3.8031 -2.25,5.3091 -1.2375,1.5059 -3.6,4.4578 -5.25,6.5597 -3.3057,4.2109 -5.8928,6.8752 -9.8691,10.1636 -1.6045,1.3268 -2.3987,2.7688 -2.04,3.7036 0.3231,0.842 -0.1277,2.5518 -1.0017,3.7997 -0.8741,1.2479 -1.5892,3.1855 -1.5892,4.3059 0,1.1203 -0.9,2.599 -2,3.2859 -1.1,0.687 -2,1.9202 -2,2.7406 0,0.8203 -0.468,1.4915 -1.0401,1.4915 -1.4194,0 -8.9599,8.029 -8.9599,9.5403 0,0.6682 -0.675,1.775 -1.5,2.4597 -2.1554,1.7888 -1.8473,7.5855 0.6712,12.6283 2.0779,4.1607 7.309,9.2252 14.8288,14.35666 1.925,1.3136 5.975,4.494 9,7.0675 6.7352,5.73 13.8508,10.2544 25,15.8963 4.675,2.3656 11.3193,5.8625 14.7651,7.7707 3.4457,1.9082 8.3957,4.0776 11,4.8208 2.6042,0.7432 7.2238,2.2201 10.2658,3.282 3.042,1.0619 8.667,2.2141 12.5,2.5605 15.6618,1.4153 22.3413,1.633 22.8896,0.7458 0.3168,-0.5125 3.3892,-1.2333 6.8277,-1.6017 18.5003,-1.9823 40.3075,-7.8255 56.2722,-15.0779 3.8612,-1.7541 8.4426,-3.5016 10.1809,-3.8834 1.7383,-0.3818 3.6967,-1.3402 4.352,-2.1299 0.6554,-0.7896 1.735,-1.4357 2.3991,-1.4357 1.1495,0 16.5718,-7.1983 23.1437,-10.8022 6.0317,-3.3077 15.7585,-9.7384 19.2062,-12.69776 1.9223,-1.65 5.3988,-4.125 7.7257,-5.5 5.3748,-3.176 11.0414,-7.2355 18.5033,-13.2556 4.5985,-3.7099 6.141,-5.6706 7.015,-8.9165 1.4013,-5.2037 -0.09,-11.2079 -4.1897,-16.8671 -1.5711,-2.1689 -2.8566,-4.7876 -2.8566,-5.8192 0,-1.0707 -1.6641,-2.9771 -3.8768,-4.4414 -4.8953,-3.2395 -7.172,-7.031 -10.6287,-17.7002 -1.5146,-4.675 -3.4018,-9.2449 -4.1936,-10.1554 -0.7918,-0.9105 -2.0711,-3.7534 -2.8428,-6.3174 -0.7716,-2.5641 -2.2726,-5.4192 -3.3355,-6.3446 -1.0628,-0.9254 -3.7883,-7.0773 -6.0566,-13.6708 -2.2683,-6.5936 -5.2077,-13.5686 -6.5319,-15.5 -1.3243,-1.9315 -2.7139,-4.8618 -3.0881,-6.5118 -0.3741,-1.65 -1.9776,-6.7484 -3.5631,-11.3297 -1.586,-4.5813 -2.8833,-9.1926 -2.8833,-10.2473 0,-1.0547 -1.35,-4.7749 -3,-8.2672 -1.65,-3.4922 -3,-7.7107 -3,-9.3744 0,-4.6001 -4.5598,-21.7432 -8.3204,-31.2814 -4.8649,-12.3392 -6.8015,-17.9838 -7.7192,-22.5 -0.4471,-2.2 -1.269,-5.1955 -1.8264,-6.65674 -0.5575,-1.46121 -1.3084,-5.51121 -1.6687,-9 -0.3604,-3.48879 -1.1177,-8.14326 -1.683,-10.34326 -3.2698,-12.72475 -5.0621,-21.53196 -5.1896,-25.5 -0.08,-2.475 -0.6809,-5.45586 -1.3364,-6.62414 -0.6556,-1.16828 -1.6425,-6.79328 -2.1932,-12.5 -0.5507,-5.70672 -1.4543,-12.85086 -2.0079,-15.87586 -0.5537,-3.025 -1.2261,-13.41497 -1.4944,-23.08883 -0.2683,-9.67385 -0.9892,-18.89885 -1.6022,-20.5 -0.9636,-2.51702 -1.2463,-10.10463 -0.7793,-20.91117 0.071,-1.65 -0.1143,-5.25 -0.4125,-8 -0.2981,-2.75 -0.148,-7.7875 0.3336,-11.19445 0.4817,-3.40695 1.068,-16.68195 1.3029,-29.5 0.4524,-24.68431 1.0529,-28.8899 5.2787,-36.97154 2.2226,-4.25063 2.6381,-6.29828 2.5771,-12.70083 -0.1809,-18.98827 -0.036,-21.66459 1.3175,-24.28128 0.7784,-1.50523 1.8292,-5.57519 2.3352,-9.04434 0.5059,-3.46916 1.6528,-8.02863 2.5486,-10.13217 0.8959,-2.10353 1.8739,-6.82853 2.1735,-10.5 0.2995,-3.67146 1.1889,-8.92539 1.9764,-11.67539 0.7874,-2.75 2.1421,-7.475 3.0103,-10.5 0.8683,-3.025 1.9267,-6.18977 2.3519,-7.03282 0.4253,-0.84306 1.1126,-3.07829 1.5275,-4.96718 0.4149,-1.88889 1.107,-4.12412 1.5381,-4.96718 2.6698,-5.22075 6.1376,-13.42289 8.047,-19.03282 1.2168,-3.575 3.6745,-10.325 5.4616,-15 1.787,-4.675 3.843,-10.075 4.5688,-12 0.7257,-1.925 3.1806,-6.2 5.4553,-9.5 2.2746,-3.3 6.103,-9.6 8.5075,-14 2.4045,-4.4 5.6403,-9.06911 7.1906,-10.37579 1.5503,-1.30669 3.7018,-4.10656 4.781,-6.22194 1.0791,-2.11538 5.7904,-7.77039 10.4694,-12.5667 6.0077,-6.15833 8.8085,-9.83925 9.5325,-12.52806 0.5639,-2.09413 1.4163,-3.80751 1.8942,-3.80751 0.4778,0 3.7938,-2.925 7.3688,-6.5 7.182,-7.18195 8.0231,-7.42844 17.1963,-5.03912 8.6669,2.25743 16.1993,7.10467 25.5868,16.4656 4.7289,4.71543 10.9417,10.59852 13.8064,13.07352 6.0945,5.26545 6.0393,5.2089 10.5886,10.84461 1.9289,2.38954 3.5147,4.86454 3.5239,5.5 0.01,0.63547 1.8609,2.95539 4.1148,5.15539 4.4379,4.3319 13.2731,15.54645 18.8684,23.94965 6.5697,9.86672 7.4141,11.05271 10.2061,14.33515 1.5366,1.80663 2.8026,3.83163 2.8132,4.5 0.011,0.66836 2.4517,4.7357 5.4245,9.03854 3.3942,4.91261 5.6651,9.3773 6.1038,12 0.3842,2.29716 1.6203,5.97666 2.7468,8.17666 3.4076,6.65508 3.7056,7.40253 3.7056,9.2953 0,1.00234 0.6607,2.69595 1.4682,3.76357 0.8075,1.06762 1.4825,2.88611 1.5,4.04109 0.018,1.15498 1.3818,3.96358 3.0318,6.24134 1.65,2.27776 3,4.653 3,5.27831 0,0.62532 1.3037,3.44171 2.8972,6.25866 1.6203,2.86443 3.2134,7.54575 3.6145,10.62173 0.3945,3.025 1.5909,7.75 2.6586,10.5 2.8335,7.2982 5.8006,18.13277 6.8462,25 0.5025,3.3 1.6177,9.15 2.4782,13 0.8605,3.85 2.0265,9.7 2.5911,13 0.5645,3.3 1.632,7.125 2.3723,8.5 1.1794,2.19085 1.6848,5.01786 3.0783,17.22192 0.171,1.49705 0.6338,3.24441 1.0285,3.88303 0.3946,0.63861 0.8288,5.73805 0.9647,11.33208 0.136,5.59404 0.7647,12.66356 1.3971,15.71005 1.1963,5.76246 2.0626,57.42875 1.1022,65.72998 -0.2942,2.54261 -0.1215,6.69075 0.3838,9.21808 0.7068,3.535 0.5345,5.77007 -0.7469,9.6879 -0.9162,2.80101 -1.6658,6.41575 -1.6658,8.03273 0,1.61699 -0.689,4.58907 -1.5312,6.60462 -0.8421,2.01555 -1.4253,4.65801 -1.2959,5.87213 0.1294,1.21411 -0.07,3.78248 -0.4435,5.70748 -0.3733,1.925 -1.4041,7.99348 -2.2906,13.48551 -0.8865,5.49202 -1.844,10.36113 -2.1278,10.82024 -0.2837,0.45911 -1.392,4.29063 -2.4628,8.5145 -1.8193,7.1763 -2.8202,12.12738 -4.6861,23.17975 -0.4179,2.475 -1.4736,5.625 -2.346,7 -0.8725,1.375 -1.8218,5.3293 -2.1097,8.7874 -0.288,3.458 -1.1272,7.0147 -1.865,7.9037 -0.7378,0.8889 -1.4079,2.7846 -1.4892,4.2126 -0.2452,4.3079 -4.1497,19.4582 -6.3191,24.5191 -1.1182,2.6086 -2.0331,5.4401 -2.0331,6.2921 0,0.852 -0.8452,2.9522 -1.8783,4.6671 -1.0331,1.7149 -2.1846,4.8383 -2.559,6.9408 -0.3743,2.1025 -1.5524,5.2525 -2.6179,7 -1.0655,1.7475 -1.9413,4.0772 -1.9462,5.1772 0,1.1 -1.1175,3.8 -2.4725,6 -1.355,2.2 -2.4777,4.7807 -2.4949,5.735 -0.017,0.9542 -1.3071,3.8792 -2.8664,6.5 -1.5594,2.6207 -3.4027,6.79 -4.0961,9.265 -0.6935,2.475 -1.8927,5.9778 -2.6648,7.7839 -0.7721,1.8062 -1.4063,4.5062 -1.4092,6 0,1.4939 -0.7904,3.8828 -1.75,5.3087 -5.3174,7.9014 -6.2376,9.5908 -6.241,11.4586 0,1.1281 -1.7272,4.7281 -3.8337,8 -2.1065,3.2718 -4.9045,8.6488 -6.2178,11.9488 -1.3133,3.3 -3.7523,7.6461 -5.42,9.6579 -3.2519,3.9231 -8.3139,10.9373 -10.1715,14.0947 -0.6267,1.065 -2.7642,3.6003 -4.75,5.6341 -1.9859,2.0337 -3.6107,4.08 -3.6107,4.5474 0,0.4674 -1.8132,3.7208 -4.0294,7.2299 -5.2104,8.25 -5.6267,10.6545 -2.9048,16.7768 2.9541,6.6446 20.7231,23.96446 30.5414,29.76946 1.5911,0.9407 6.2678,4.1848 10.3928,7.2091 7.011,5.1402 14.6188,9.5806 16.4146,9.5806 0.4307,0 2.2011,0.6344 3.9343,1.4097 10.4001,4.6526 17.065,5.9881 30.1511,6.0417 7.15,0.029 15.475,-0.2487 18.5,-0.6176 3.025,-0.369 10.225,-1.1973 16,-1.8407 5.775,-0.6433 13.7253,-2.2253 17.6674,-3.5155 3.9421,-1.2901 9.6047,-2.7963 12.5835,-3.3469 2.9789,-0.5507 8.7536,-2.1994 12.8326,-3.6638 4.0791,-1.4645 9.9345,-3.4563 13.012,-4.4263 3.0775,-0.97 8.3879,-3.4003 11.8009,-5.4006 3.4129,-2.0002 8.3199,-4.151 10.9045,-4.7793 5.7987,-1.4099 7.4212,-2.7739 10.654,-8.95646 3.7412,-7.1548 2.9922,-13.7984 -2.025,-17.9623 -2.4646,-2.0455 -12.4292,-17.8687 -17.9112,-28.4419 -1.4258,-2.75 -3.4409,-6.35 -4.4779,-8 -3.5641,-5.6707 -8.9823,-17.5876 -11.0434,-24.2892 -1.1352,-3.6909 -2.9259,-8.2858 -3.9793,-10.2108 -3.6309,-6.6353 -5.6935,-12.0467 -7.0514,-18.5 -0.4629,-2.2 -2.1684,-6.7 -3.79,-10 -1.7939,-3.6507 -3.1733,-8.3555 -3.5227,-12.0158 -0.3159,-3.3086 -1.4371,-8.9336 -2.4916,-12.5 -4.0043,-13.5426 -5.5415,-20.6322 -5.4173,-24.9842 0.071,-2.475 -0.5061,-8.325 -1.2816,-13 -1.1125,-6.7058 -1.1971,-11.1385 -0.4007,-21 1.717,-21.2613 2.397,-26.64249 3.5509,-28.09655 0.6125,-0.7719 1.4163,-4.09588 1.7861,-7.38663 0.4172,-3.71171 1.747,-7.88779 3.5028,-11 1.5566,-2.75925 3.1295,-6.38098 3.4953,-8.04829 0.5894,-2.68663 2.5245,-5.84413 11.9315,-19.46853 1.3291,-1.925 3.9362,-4.92387 5.7936,-6.66415 1.8573,-1.74028 5.627,-6.16117 8.377,-9.82419 3.9256,-5.22891 6.1549,-7.18132 10.3744,-9.08585 6.2628,-2.82677 13.5779,-3.12514 19.6256,-0.8005 2.2,0.84565 5.0787,1.79101 6.3971,2.10082 1.3185,0.3098 5.1435,2.40202 8.5,4.64936 3.3566,2.24735 7.3376,4.76973 8.8467,5.6053 7.3217,4.05386 31.8,28.58106 35.5381,35.60907 0.7051,1.32558 1.7232,2.41014 2.2625,2.41014 1.4385,0 7.3492,9.80599 8.962,14.86823 0.7655,2.40252 2.1825,5.37353 3.149,6.60223 0.9665,1.22871 2.6739,4.55954 3.7942,7.40184 1.1204,2.8422 3.2125,7.4876 4.6493,10.3229 2.1252,4.1939 2.4999,6.0081 2.0097,9.7299 -0.4692,3.5624 -0.1604,5.2998 1.3951,7.8501 1.9875,3.2587 3.3422,7.6416 5.015,16.2248 0.4823,2.475 1.265,5.85 1.7393,7.5 1.1549,4.018 0.9067,43.6242 -0.2853,45.5117 -0.517,0.8185 -1.2857,4.4133 -1.7084,7.9883 -0.4227,3.575 -0.9936,7.85 -1.2689,9.5 -0.2752,1.65 -0.6667,6.825 -0.87,11.5 -0.2033,4.675 -1.0663,10.5476 -1.9178,13.0503 -0.8515,2.5026 -2.0275,7.6776 -2.6132,11.5 -0.5857,3.8223 -1.5493,8.9747 -2.1412,11.4497 -0.5919,2.475 -1.3301,5.85 -1.6404,7.5 -0.3102,1.65 -0.9079,3.45 -1.3282,4 -2.5678,3.3606 -7.9846,15.3678 -7.9846,17.6994 0,1.7928 -1.6849,4.939 -4.75,8.87 -6.129,7.8601 -7.4342,10.3854 -8.0105,15.4983 -0.6005,5.327 1.0037,10.2046 4.5104,13.71456 8.841,8.8491 21.5802,18.7177 24.1624,18.7177 0.4635,0 1.3953,0.6657 2.0705,1.4793 1.5774,1.9006 6.8215,4.5207 9.0484,4.5207 0.9481,0 2.2475,0.6308 2.8874,1.4019 0.6399,0.771 2.3825,1.7009 3.8724,2.0664 1.49,0.3655 6.759,2.2879 11.709,4.272 8.2812,3.3194 9.8386,3.612 19.5,3.6636 5.775,0.031 13.65,-0.515 17.5,-1.2132 10.6356,-1.9287 22.8212,-5.2393 24.5,-6.6561 0.825,-0.6963 2.625,-1.5373 4,-1.8688 1.375,-0.3316 4.7504,-2.0795 7.501,-3.8843 2.7505,-1.8048 6.8005,-3.9077 9,-4.6731 2.1994,-0.7654 5.799,-2.6653 7.999,-4.222 7.1984,-5.0935 32.5309,-33.17136 35.8471,-39.73206 1.0159,-2.0099 2.8587,-4.7793 4.095,-6.1543 2.6456,-2.9424 7.5579,-11.7109 7.5579,-13.4911 0,-0.6815 0.822,-2.3124 1.8267,-3.624 2.9991,-3.9155 5.2007,-10.6562 6.2726,-19.2042 1.1546,-9.2082 0.3143,-14.1211 -4.2549,-24.8759 -1.5644,-3.6823 -2.8555,-7.9573 -2.869,-9.5 -0.029,-3.2992 -2.9296,-12.3241 -5.7478,-17.8835 -1.0934,-2.1567 -2.325,-5.9439 -2.737,-8.4161 -0.412,-2.4721 -1.5909,-6.0654 -2.6199,-7.9852 -1.0289,-1.9197 -1.8707,-3.96 -1.8707,-4.534 0,-1.6393 -5.4338,-14.0988 -6.9404,-15.9141 -0.7457,-0.8986 -2.5267,-3.9832 -3.9577,-6.8547 -1.4311,-2.8714 -3.5567,-6.57 -4.7237,-8.219 -1.1669,-1.649 -3.3179,-5.2482 -4.7799,-7.9982 -1.462,-2.75 -4.2022,-7.475 -6.0893,-10.5 -1.8871,-3.025 -3.4487,-6.4574 -3.4701,-7.6276 -0.021,-1.1701 -0.6844,-2.6633 -1.4734,-3.3181 -0.789,-0.6548 -2.3852,-3.0724 -3.547,-5.3724 -1.1619,-2.3 -3.424,-5.3252 -5.027,-6.7226 -3.1302,-2.7287 -9.9915,-16.6469 -9.9915,-20.2679 0,-1.20879 -1.575,-4.41307 -3.5,-7.12062 -1.925,-2.70755 -3.5,-5.41037 -3.5,-6.00626 0,-0.59588 -0.9,-1.64549 -2,-2.33245 -1.1,-0.68696 -2,-1.83278 -2,-2.54626 0,-0.71349 -1.0675,-2.74413 -2.3722,-4.51254 -1.3047,-1.76841 -3.1648,-5.34334 -4.1336,-7.94428 -0.9689,-2.60094 -2.5527,-5.62899 -3.5197,-6.72899 -0.967,-1.1 -3.0206,-4.475 -4.5636,-7.5 -1.5429,-3.025 -3.3771,-5.85177 -4.076,-6.2817 -0.6988,-0.42994 -3.0905,-4.55942 -5.3148,-9.17662 -2.2243,-4.61721 -5.4157,-9.66544 -7.092,-11.2183 -1.6763,-1.55286 -3.6918,-4.17338 -4.4791,-5.82338 -0.7872,-1.65 -2.7816,-5.25 -4.4321,-8 -1.6504,-2.75 -3.4267,-5.96879 -3.9472,-7.15286 -0.5205,-1.18407 -1.4613,-2.47115 -2.0908,-2.86017 -0.6294,-0.38901 -2.0225,-2.57023 -3.0957,-4.84714 -2.6844,-5.69525 -4.5273,-8.79744 -5.6584,-9.52492 -1.0829,-0.69654 -6.2248,-11.27611 -6.2248,-12.80776 0,-1.7035 -2.956,-7.02654 -4.6935,-8.45193 -2.285,-1.87452 -11.5346,-16.33826 -15.797,-24.70186 -1.9409,-3.80853 -4.177,-7.46248 -4.9692,-8.1199 -0.7921,-0.65741 -2.4435,-3.29639 -3.6697,-5.86438 -1.2262,-2.56799 -3.8362,-6.5404 -5.8,-8.82757 -1.9638,-2.28717 -4.8831,-6.78717 -6.4874,-10 -1.6042,-3.21283 -4.4167,-8.16777 -6.25,-11.01098 -1.8332,-2.8432 -3.3332,-5.60156 -3.3332,-6.12968 0,-0.52811 -2.025,-3.56801 -4.5,-6.75532 -2.475,-3.18731 -4.5,-6.1439 -4.5,-6.57019 0,-1.06955 -5.6357,-9.32808 -7.3187,-10.7249 -0.7548,-0.62641 -2.2083,-3.05402 -3.2299,-5.39469 -1.0217,-2.34066 -3.4886,-6.28075 -5.482,-8.75575 -1.9934,-2.475 -5.0796,-7.07799 -6.8582,-10.22887 -1.7786,-3.15088 -3.6562,-5.98993 -4.1725,-6.30902 -0.5163,-0.31908 -0.9387,-1.38334 -0.9387,-2.36503 0,-0.98169 -2.25,-4.1316 -5,-6.9998 -2.75,-2.86819 -5,-5.58391 -5,-6.03493 0,-2.54994 -9.2958,-15.87586 -16,-22.93676 -1.375,-1.44814 -3.3943,-4.38558 -4.4874,-6.52762 -1.093,-2.14205 -3.1583,-5.14816 -4.5895,-6.68025 -1.4311,-1.53208 -4.4705,-5.62783 -6.7541,-9.10166 -2.2836,-3.47384 -7.0809,-9.39952 -10.6605,-13.1682 -3.5797,-3.76868 -6.5085,-7.20649 -6.5085,-7.63959 0,-0.43309 -1.5646,-2.52462 -3.4768,-4.64785 -1.9122,-2.12323 -3.4872,-4.10122 -3.5,-4.39552 -0.013,-0.29431 -4.0732,-4.77851 -9.0232,-9.9649 -4.95,-5.18639 -9,-9.99226 -9,-10.67971 0,-0.68746 -1.0125,-1.78517 -2.25,-2.43937 -1.2375,-0.65419 -4.1013,-3.03252 -6.3639,-5.28518 -2.2627,-2.25266 -7.7265,-7.02074 -12.1418,-10.59574 -5.58,-4.51804 -8.6896,-7.8776 -10.1983,-11.01796 -1.3281,-2.76442 -4.5722,-6.53196 -8.3583,-9.70695 -3.4032,-2.85395 -9.1282,-8.0475 -12.7221,-11.54123 -3.5939,-3.49373 -9.2189,-8.31309 -12.5,-10.7097 -3.2811,-2.3966 -8.8906,-7.2009 -12.4656,-10.67622 -3.575,-3.47532 -9.875,-8.78987 -14,-11.81012 -9.5865,-7.01904 -22.4702,-17.24759 -26.1841,-20.78782 -1.5867,-1.5125 -3.4318,-2.7614 -4.1004,-2.77533 -0.6685,-0.0139 -3.9619,-2.15143 -7.3187,-4.75 -11.8178,-9.14857 -16.9168,-13.24192 -18.8968,-15.16969 -1.1,-1.07101 -3.8048,-2.75902 -6.0107,-3.75114 -5.5177,-2.48166 -18.5361,-11.26214 -19.178,-12.93495 -0.2889,-0.75289 -1.3074,-1.36889 -2.2633,-1.36889 -0.9559,0 -2.5153,-0.85888 -3.4653,-1.90862 -0.95,-1.04975 -3.1573,-2.47832 -4.905,-3.1746 -1.7477,-0.69628 -4.3722,-2.0874 -5.8321,-3.09138 -1.4599,-1.00397 -3.4972,-1.8254 -4.5275,-1.8254 -1.0302,0 -2.7607,-0.60145 -3.8456,-1.33657 -2.1944,-1.48689 -11.564,-4.66343 -13.7554,-4.66343 -0.7739,0 -2.1768,-0.85051 -3.1176,-1.89003 -0.9407,-1.03951 -4.723,-3.372 -8.405,-5.18331 -11.0691,-5.44531 -22.1945,-13.76828 -22.1945,-16.60386 0,-0.56936 -1.56,-3.07821 -3.4666,-5.57524 -5.5886,-7.31913 -6.9111,-11.61106 -5.5695,-18.07372 1.1178,-5.38457 2.509,-7.37049 6.6664,-9.51649 2.6379,-1.3616 15.2757,1.03657 19.8514,3.76704 1.6601,0.99059 6.3933,3.31904 10.5183,5.17433 4.125,1.85529 8.3483,4.14466 9.3851,5.08749 1.0369,0.94283 3.1304,1.98774 4.6524,2.32202 1.5219,0.33428 4.4813,1.48167 6.5763,2.54977 2.095,1.0681 4.3198,1.942 4.944,1.942 0.6242,0 2.4416,0.64218 4.0386,1.42707 1.597,0.78489 5.8286,1.96045 9.4036,2.61236 3.575,0.65191 7.6332,1.77354 9.0182,2.49251 1.3849,0.71898 6.3349,1.53384 11,1.81081 4.665,0.27697 9.8318,0.91009 11.4818,1.40694 1.65,0.49684 6.5128,1.00219 10.8063,1.123 4.2935,0.1208 9.0101,0.67729 10.4813,1.23664 4.1733,1.5867 18.9101,3.94392 20.6006,3.29519 0.8355,-0.3206 4.0318,0.35723 7.1029,1.50628 3.0712,1.14906 6.4532,2.0892 7.5156,2.0892 1.0625,0 3.6331,0.8516 5.7125,1.89245 2.988,1.49563 4.9341,1.75393 9.2808,1.2318 3.025,-0.36336 9.775,-0.35724 15,0.0136 5.225,0.37084 13.55,0.73084 18.5,0.8 6.0545,0.0846 9.6131,0.59 10.8732,1.5443 1.1083,0.83926 2.9981,1.19357 4.6279,0.86763 1.515,-0.30301 3.733,-0.0273 4.9289,0.61276 1.1959,0.64002 10.3101,1.58544 20.2538,2.10092 9.9438,0.51548 20.1578,1.55316 22.6979,2.30595 2.7468,0.81406 7.6224,1.22563 12.0315,1.01564 4.3249,-0.20598 10.089,0.2675 13.8363,1.13658 3.5328,0.8193 6.7566,1.28364 7.1639,1.03186 0.4074,-0.25178 4.9464,0.17414 10.0866,0.9465 5.1402,0.77236 9.683,1.19591 10.0951,0.94124 0.412,-0.25467 6.0717,0.0177 12.577,0.60521 6.5054,0.58753 16.9252,1.2624 23.1553,1.4997 6.23,0.2373 11.7959,0.72102 12.3685,1.07493 0.5726,0.3539 3.5753,0.79843 6.6726,0.98784 3.0973,0.1894 11.0315,0.80444 17.6315,1.36674 6.6,0.5623 17.175,1.20488 23.5,1.42795 11.0862,0.391 14.626,0.74516 42,4.20219 6.875,0.86824 15.875,1.79401 20,2.05726 4.125,0.26326 10.875,0.93072 15,1.48325 4.125,0.55253 13.35,0.98897 20.5,0.96987 8.4176,-0.0225 16.8774,0.63677 24,1.87031 6.05,1.04778 15.725,2.40025 21.5,3.00549 5.775,0.60524 11.175,1.27644 12,1.49156 0.825,0.21512 6.45,0.68157 12.5,1.03655 6.05,0.35499 15.1918,1.48282 20.3152,2.50628 5.1233,1.02347 9.9689,1.60998 10.7679,1.30336 0.7991,-0.30662 2.6822,-0.0574 4.1849,0.55375 1.5026,0.61118 10.157,1.33918 19.232,1.61779 18.9763,0.58258 23.838,1.00969 29.7741,2.61575 2.3997,0.64926 6.9856,0.91052 10.457,0.59574 5.0934,-0.46185 7.2342,-0.13349 12.1483,1.86329 3.281,1.33317 7.3503,2.43495 9.043,2.4484 1.6927,0.0134 5.1026,0.53085 7.5776,1.14979 2.475,0.61894 11.925,1.21966 21,1.33492 9.075,0.11527 21,0.74638 26.5,1.40246 5.5,0.65609 16.75,1.363 25,1.57093 8.25,0.20793 17.25,0.81398 20,1.34679 2.75,0.53281 7.475,1.43589 10.5,2.00684 3.025,0.57096 11.35,1.24429 18.5,1.49631 7.15,0.25201 16.375,1.1616 20.5,2.02131 4.7698,0.9941 15.3265,1.75203 29,2.08211 20.8788,0.50401 36.5808,1.59838 52,3.62422 8.7266,1.14653 17.9394,1.41568 27.75,0.81069 1.5125,-0.0933 5,0.34715 7.75,0.97871 10.803,2.481 15.5682,3.04525 30.5,3.61148 8.525,0.32328 19.325,0.99807 24,1.49953 4.675,0.50146 12.7235,1.17663 17.8856,1.50037 5.162,0.32375 9.7999,0.84475 10.3064,1.15778 1.0234,0.63249 11.182,2.42884 14.308,2.5301 1.1,0.0356 6.1162,0.71619 11.1472,1.51234 5.0309,0.79616 11.3309,1.40393 14,1.3506 2.669,-0.0533 5.9778,-0.12328 7.3528,-0.15546 3.2841,-0.0769 23.8289,1.0474 42,2.29834 7.975,0.54902 19.225,1.14045 25,1.31428 5.775,0.17384 12.75,0.57811 15.5,0.89838 2.75,0.32028 11.9624,0.78655 20.4719,1.03617 8.5096,0.24961 18.4096,0.95349 22,1.56416 3.5905,0.61068 9.0031,1.53705 12.0281,2.0586 3.025,0.52156 13.15,1.1943 22.5,1.495 22.702,0.73009 34.9599,1.31672 41,1.96215 2.75,0.29386 9.4316,0.73498 14.848,0.98026 5.4163,0.24528 18.4663,1.12399 29,1.9527 10.5336,0.8287 20.952,1.44041 23.152,1.35936 5.1966,-0.19145 23.9514,2.04655 28.6666,3.42077 2.0166,0.58774 4.8853,0.83562 6.375,0.55086 2.3708,-0.45321 11.4839,-0.0933 47.4584,1.87455 7.9206,0.43325 31.9424,1.3374 34.75,1.30793 0.6875,-0.007 2.2625,-0.0546 3.5,-0.10538 1.2375,-0.0507 5.85,0.16716 10.25,0.48423 4.4,0.31707 10.925,0.20364 14.5,-0.25207 4.5932,-0.58549 8.2906,-0.4255 12.6039,0.54539 3.3571,0.75567 7.8571,1.36843 10,1.36168 2.1428,-0.007 9.9711,0.28277 17.3961,0.64338 7.425,0.36061 15.075,0.61072 17,0.5558 9.2402,-0.2636 13.3922,0.0509 17.6701,1.33835 3.1893,0.95984 5.2219,1.09185 6.4761,0.4206 1.101,-0.58923 7.3015,-0.73935 15.5909,-0.37748 7.5696,0.33045 22.1057,0.70808 32.3025,0.83919 10.1967,0.1311 18.9895,0.51647 19.5395,0.85637 1.3991,0.86474 15.005,2.00262 20.4209,1.70784 2.475,-0.13471 9,-0.15485 14.5,-0.0447 27.6337,0.5532 70.488,0.0559 74.5,-0.86449 2.475,-0.56781 7.65,-1.22429 11.5,-1.45886 3.85,-0.23456 9.3582,-0.89846 12.2404,-1.47533 2.8822,-0.57687 5.9012,-0.7953 6.7088,-0.48539 0.8076,0.3099 3.1744,-0.0121 5.2596,-0.71551 2.0851,-0.70343 4.9521,-1.16857 6.371,-1.03364 1.4189,0.13492 3.1093,-0.39262 3.7564,-1.17232 0.6803,-0.8197 2.217,-1.21873 3.6433,-0.94606 1.6852,0.32214 3.4503,-0.35591 5.5704,-2.13989 1.707,-1.4363 3.5866,-2.61145 4.1771,-2.61145 1.5359,0 9.773,-8.93824 9.773,-10.6049 0,-0.7673 -0.3889,-1.3951 -0.8641,-1.3951 -0.4753,0 -1.6527,-2.06479 -2.6165,-4.58842 -1.9042,-4.98595 -10.3053,-14.41161 -12.8451,-14.41161 -0.8662,0 -1.9348,-0.64231 -2.3746,-1.42736 -0.9332,-1.66568 -12.4505,-7.57264 -14.7651,-7.57264 -0.8676,0 -2.0867,-1.11752 -2.709,-2.48338 -0.7818,-1.71584 -2.2432,-2.68975 -4.7285,-3.15112 -3.8638,-0.71724 -11.5243,-7.5614 -10.835,-9.68027 0.9351,-2.87451 5.4652,-3.78177 13.7166,-2.74713 4.4308,0.55558 8.9187,1.47179 9.9729,2.03602 1.0543,0.56424 2.6131,1.02588 3.4641,1.02588 2.9644,0 18.43,8.14806 21.9449,11.56174 1.9471,1.89104 3.958,3.43826 4.4685,3.43826 0.5105,0 1.474,1.31747 2.141,2.92771 0.6669,1.61023 2.0715,3.70498 3.1213,4.65498 1.0497,0.95001 1.9086,2.30936 1.9086,3.02078 0,0.71142 1.125,2.50738 2.5,3.99103 1.3981,1.50862 2.5,3.90146 2.5,5.42908 0,1.50234 0.675,3.29173 1.5,3.97642 0.825,0.68469 1.5,2.34135 1.5,3.68146 0,1.34012 0.4144,2.18048 0.9208,1.86748 0.5266,-0.32542 0.895,2.16256 0.8604,5.8106 -0.033,3.50882 0.2224,6.8372 0.568,7.39638 0.3455,0.55919 -0.3092,1.26186 -1.455,1.5615 -1.7497,0.45755 -1.9747,1.0398 -1.4046,3.63523 0.5502,2.50521 0.2368,3.45878 -1.6554,5.03562 -1.2838,1.06985 -2.8743,1.96016 -3.5345,1.97846 -0.6602,0.0183 -1.5602,0.64965 -2,1.403 -1.3056,2.23619 -11.384,6.36136 -17.2997,7.08088 -3.025,0.36793 -6.5252,1.33576 -7.7782,2.15073 -1.2531,0.81498 -2.7063,1.21727 -3.2294,0.89398 -0.5231,-0.3233 -1.8131,-0.12645 -2.8667,0.43742 -1.4295,0.76503 -2.2249,0.65266 -3.134,-0.44274 -0.6701,-0.80739 -1.616,-1.22219 -2.1021,-0.92178 -1.5227,0.94106 -29.6342,2.59457 -47.3896,2.78743 -11.8099,0.12828 -17.7086,0.58245 -19.3209,1.48762 -1.7405,0.97713 -3.078,1.03901 -5.3486,0.24747 -2.1585,-0.75243 -3.6207,-0.73823 -5.0925,0.0495 -1.5199,0.81343 -3.4723,0.78993 -7.4001,-0.0891 -4.6073,-1.03107 -16.6999,-2.15094 -21.3379,-1.97605 -0.825,0.0311 -3.975,0.15383 -7,0.27272 -3.025,0.11889 -7.2376,-0.14925 -9.3613,-0.59587 -2.328,-0.48957 -4.3323,-0.42116 -5.0474,0.17229 -0.6837,0.56744 -5.8247,0.82484 -12.1387,0.60776 -22.6518,-0.77881 -31.4739,-0.84405 -32.0807,-0.23726 -0.344,0.34403 -1.9767,-0.0733 -3.6282,-0.92729 -2.1042,-1.08811 -4.2359,-1.35029 -7.1233,-0.8761 -2.2662,0.37219 -9.9704,0.82619 -17.1204,1.00889 -7.15,0.18271 -14.125,0.42333 -15.5,0.53472 -5.7333,0.46445 -28.7078,-0.94171 -31.2162,-1.91059 -1.4939,-0.57704 -3.9689,-1.0724 -5.5,-1.10081 -27.3293,-0.50718 -36.2791,-0.46616 -38.7331,0.17754 -1.6221,0.42549 -5.8905,0.30376 -9.4852,-0.27051 -5.8585,-0.93589 -17.7325,-1.80114 -47.0655,-3.42963 -20.3112,-1.12762 -28.5926,-1.22062 -30.8976,-0.34698 -1.6268,0.61662 -3.877,0.43815 -7,-0.55519 -6.1425,-1.95378 -18.4815,-3.01737 -36.1024,-3.11192 -29.9346,-0.16062 -85.106,-2.99339 -88.0258,-4.51968 -0.8392,-0.43868 -2.3253,-0.35021 -3.3024,0.1966 -1.1868,0.66416 -3.336,0.64237 -6.4742,-0.0656 -13.7018,-3.09132 -18.1166,-3.72299 -19.7258,-2.82238 -1.1047,0.61817 -2.4311,0.55192 -3.8308,-0.19133 -1.1775,-0.6253 -4.841,-1.10227 -8.141,-1.05993 -19.8891,0.25519 -58.5281,-1.30579 -60.3609,-2.43853 -0.5348,-0.33053 -8.3049,-0.85472 -17.2668,-1.16487 -8.9619,-0.31014 -16.5698,-0.73412 -16.9064,-0.94216 -1.3489,-0.83368 -13.9526,-2.61384 -21.8294,-3.08321 -4.8395,-0.28838 -9.3008,-1.11247 -10.5878,-1.95578 -1.6425,-1.07621 -6.163,-1.53132 -17.2826,-1.73998 -10.2144,-0.19167 -15.5434,-0.68522 -16.5665,-1.53432 -0.8364,-0.69417 -2.5723,-0.9847 -3.897,-0.65223 -1.7394,0.43656 -3.1644,-0.1194 -5.2426,-2.04542 -3.0307,-2.80871 -3.8758,-2.81571 -11.1999,-0.0928 -3.0203,1.12287 -5.4816,1.327 -9.1012,0.75483 -2.7287,-0.43135 -6.0044,-0.3984 -7.2793,0.0732 -2.7722,1.02549 -18.4409,0.3343 -21.9796,-0.96958 -1.3891,-0.51185 -5.8326,-0.59643 -10,-0.19036 -4.3419,0.42308 -8.2552,0.33265 -9.2935,-0.21474 -0.9865,-0.52005 -6.1615,-0.9417 -11.5,-0.93699 -5.3386,0.005 -12.6315,-0.45067 -16.2065,-1.01194 -3.575,-0.56126 -13.025,-1.39641 -21,-1.85588 -7.975,-0.45946 -16.525,-1.33701 -19,-1.9501 -2.475,-0.61308 -11.025,-1.31067 -19,-1.55018 -15.7436,-0.47283 -22.9673,-1.03153 -33,-2.55235 -3.575,-0.54192 -14.6019,-1.15999 -24.5042,-1.37349 -10.0443,-0.21656 -19.9918,-0.94061 -22.5,-1.63772 -2.7511,-0.76461 -9.7349,-1.18395 -17.9958,-1.08053 -7.425,0.093 -15.975,-0.32329 -19,-0.92499 -3.025,-0.6017 -13.5457,-1.27259 -23.3794,-1.49086 -11.6554,-0.25871 -19.6619,-0.91017 -23,-1.87142 -2.8163,-0.81101 -7.5956,-1.72611 -10.6206,-2.03356 -3.025,-0.30744 -8.2,-1.03583 -11.5,-1.61864 -8.6242,-1.52312 -13.6438,-1.91788 -25.5,-2.00545 -5.775,-0.0426 -12.1875,-0.49536 -14.25,-1.00602 -2.0625,-0.51065 -5.6625,-1.40886 -8,-1.99601 -2.3375,-0.58715 -7.625,-1.24699 -11.75,-1.46629 -4.125,-0.21931 -11.325,-0.64624 -16,-0.94873 -4.675,-0.30249 -11.2,-0.72206 -14.5,-0.93237 -3.3,-0.21032 -10.05,-0.87913 -15,-1.48625 -7.6027,-0.93248 -15.3707,-1.35215 -40,-2.16102 -1.65,-0.0542 -5.7,-1.03336 -9,-2.17594 -4.9705,-1.72098 -9.0027,-2.13799 -23.5,-2.43038 -9.625,-0.19413 -19.525,-0.569 -22,-0.83305 -2.475,-0.26405 -6.75,-0.64278 -9.5,-0.84163 -6.3203,-0.45701 -17.4071,-2.63986 -19.9076,-3.91955 -1.0491,-0.53694 -6.4491,-1.15151 -12,-1.36571 -5.5508,-0.21419 -15.4924,-0.88666 -22.0924,-1.49438 -6.6,-0.60771 -16.197,-1.25218 -21.3266,-1.43215 -5.1296,-0.17998 -9.9437,-0.83941 -10.698,-1.46541 -0.7543,-0.626 -5.3323,-1.3295 -10.1734,-1.56334 -27.7169,-1.33879 -48.1144,-2.17273 -66.302,-2.71072 -6.875,-0.20337 -14.075,-0.85721 -16,-1.45299 -5.5779,-1.72633 -15.1156,-2.27495 -20,-1.15042 -7.0694,1.62761 -16.8311,1.47935 -25.0185,-0.37998 -6.8926,-1.56529 -9.7692,-1.79792 -21.4815,-1.73726 -2.2,0.0114 -8.757,-0.0437 -14.5711,-0.12238 -7.3708,-0.0998 -11.344,0.27781 -13.1241,1.2472 -1.4042,0.76466 -4.0596,2.24101 -5.9009,3.28077 -3.822,2.15819 -14.2043,4.8022 -16.1218,4.10568 -0.7052,-0.25613 -9.3821,-0.96439 -19.2821,-1.57392 -9.9,-0.60952 -19.575,-1.25648 -21.5,-1.43767 -36.2222,-3.40948 -42.5416,-3.14291 -47.6965,2.01195 -1.8169,1.81692 -3.294,3.91099 -3.2825,4.65349 0.032,2.05148 25.3688,27.3623 36.9483,36.91042 3.0419,2.50824 9.3008,8.24574 13.9087,12.75 4.608,4.50427 8.633,8.18958 8.9446,8.18958 0.3116,0 1.9415,1.34167 3.622,2.98148 8.1242,7.92765 17.0227,16.01852 17.6175,16.01852 0.3646,0 2.925,3.0375 5.6897,6.75 2.7648,3.7125 7.8892,9.20958 11.3875,12.21574 10.4626,8.99049 18.8607,17.98178 18.8607,20.19277 0,1.28652 3.9223,5.90532 10.5,12.36454 6.4787,6.36204 10.5,11.08601 10.5,12.33488 0,1.11322 0.4172,2.28186 0.927,2.59698 0.5099,0.31512 1.4671,2.25418 2.1271,4.30902 1.1781,3.6676 7.5349,13.37036 15.4459,23.57591 2.2,2.83809 4.45,5.89322 5,6.78918 3.5954,5.85705 12.8619,18.87098 13.4369,18.87098 0.3822,0 1.6736,1.74152 2.8699,3.87004 1.1963,2.12852 2.8542,4.43362 3.6841,5.12244 0.83,0.68883 1.5091,1.98627 1.5091,2.88321 0,0.89694 1.3256,2.882 2.9459,4.41125 1.6202,1.52924 4.3376,5.21287 6.0385,8.18584 1.701,2.97297 6.1876,8.81275 9.9703,12.9773 3.7826,4.16454 7.856,9.47944 9.052,11.8109 4.8009,9.35898 10.1173,17.26352 15.207,22.61016 2.9471,3.09587 6.4671,7.20386 7.8223,9.12886 1.3552,1.925 3.4765,4.77203 4.714,6.32673 1.3357,1.678 2.25,4.20529 2.25,6.21907 0,2.38292 1.4878,5.67143 5,11.05158 2.75,4.21258 5,8.17172 5,8.7981 0,0.62638 2.025,3.45375 4.5,6.28305 2.475,2.82929 4.5,5.61574 4.5,6.19209 0,0.57635 1.1216,2.30375 2.4923,3.83865 5.3904,6.03569 13.2955,16.02786 14.5147,18.3468 0.7067,1.34416 1.8986,2.8062 2.6486,3.24898 0.7499,0.44278 2.0463,2.24278 2.8807,4 2.2077,4.64905 3.9353,7.47963 6.0926,9.98244 3.4611,4.01539 6.2958,8.50113 9.4152,14.89875 1.6932,3.47257 3.7472,7.43876 4.5645,8.81376 0.8173,1.375 2.3842,4.3 3.482,6.5 4.1481,8.3127 5.1257,9.55783 8.9585,11.40965 7.2076,3.48234 13.1972,4.56025 16.5181,2.97266 4.052,-1.93714 5.5332,-9.84951 3.1338,-16.74046 -1.762,-5.06037 -3.1711,-11.79094 -4.7401,-22.64185 -0.5567,-3.85 -1.4241,-7.97545 -1.9276,-9.16768 -0.5035,-1.19222 -1.4113,-5.91722 -2.0174,-10.5 -0.6061,-4.58277 -1.7548,-10.64168 -2.5526,-13.46424 -0.7978,-2.82255 -1.6731,-8.44755 -1.9451,-12.5 -0.8384,-12.48851 -2.169,-21.21145 -3.7935,-24.86808 -4.951,-11.14501 -5.7247,-14.05174 -5.7247,-21.5082 0,-6.72339 -1.3457,-14.3418 -5.1592,-29.20719 -0.5947,-2.31846 -0.8508,-4.81613 -0.5691,-5.55038 0.2818,-0.73425 -0.098,-2.43732 -0.8442,-3.78461 -0.7462,-1.34729 -1.3726,-3.9417 -1.3921,-5.76536 -0.02,-1.82366 -0.5379,-4.25469 -1.1521,-5.40229 -0.6142,-1.14761 -1.2842,-5.8633 -1.4889,-10.47933 -0.2048,-4.61603 -0.8308,-9.24951 -1.3912,-10.29662 -1.1005,-2.05635 -1.4277,-23.8301 -0.5411,-36.00602 0.3004,-4.125 0.6671,-12.9 0.815,-19.5 0.2961,-13.20896 1.0204,-15.42125 6.5625,-20.04339 l 3.3397,-2.78525 9.4103,2.29869 c 5.1757,1.26428 9.4104,2.6912 9.4104,3.17093 0,0.47974 1.125,1.85042 2.5,3.04597 1.375,1.19555 2.5,2.61964 2.5,3.16464 0,0.54501 0.6341,1.70136 1.4091,2.56967 1.2501,1.40061 3.8849,5.94892 8.244,14.23118 0.7678,1.45884 2.06,2.90722 2.8715,3.21862 0.8115,0.31139 1.4754,1.7097 1.4754,3.10734 0,1.39765 0.9,3.31178 2,4.25363 1.1,0.94185 2,2.27161 2,2.95503 0,0.68341 0.9467,1.74925 2.1039,2.36853 1.1571,0.61928 3.4623,4.12261 5.1225,7.78519 2.7492,6.06477 5.338,10.0518 9.1983,14.16658 0.7777,0.82906 2.599,3.86656 4.0473,6.75 1.4483,2.88345 3.006,5.24264 3.4615,5.24264 0.7821,0 8.0665,13.85803 8.0665,15.34603 0,0.38327 1.0887,2.3747 2.4193,4.42541 1.3306,2.05071 3.3158,6.68446 4.4114,10.29724 1.0957,3.61277 3.4047,8.6616 5.1311,11.21963 1.7264,2.55802 3.8334,6.68909 4.6822,9.18015 0.8487,2.49107 1.9511,4.78129 2.4496,5.08939 0.4985,0.3081 0.9064,1.61048 0.9064,2.89418 0,1.2837 0.5935,2.56173 1.3188,2.84007 1.3549,0.51993 7.6812,15.42578 7.6812,18.09828 0,0.82037 0.45,1.7697 1,2.10962 0.55,0.33992 1,1.43368 1,2.43058 0,0.9969 2.025,6.47769 4.5,12.17955 2.5585,5.89413 4.5,11.90807 4.5,13.93882 0,3.41822 3.9077,14.92416 5.8793,17.31094 0.5179,0.62706 1.2301,2.94011 1.5826,5.14011 0.9821,6.13077 2.7528,12.8753 3.7064,14.11826 0.4719,0.61505 1.0545,3.76505 1.2948,7 0.5868,7.90193 2.4334,19.41727 3.5089,21.88174 2.496,5.71936 5.178,17.34465 4.7456,20.56907 -0.2655,1.97953 -0.01,4.44982 0.5751,5.48953 1.4965,2.67401 2.8257,9.08862 3.0962,14.9414 0.1271,2.75 0.958,7.475 1.8465,10.5 1.764,6.00598 3.7959,19.67781 4.4535,29.96526 0.2298,3.59411 0.5062,7.88474 0.6144,9.53474 0.1082,1.65 0.5375,3.52489 0.9541,4.16642 0.4165,0.64153 1.0463,7.61653 1.3994,15.5 0.7272,16.23287 0.7122,17.86487 -0.2132,23.09737 -0.3769,2.1311 -0.2245,4.3 0.3514,5 1.7856,2.1704 3.4956,13.523 2.7846,18.486 -0.3743,2.6126 -0.9317,11.7252 -1.2387,20.2502 -0.3071,8.525 -0.8905,16.175 -1.2966,17 -0.4061,0.825 -0.5507,6.1915 -0.3213,11.9254 0.342,8.5501 0.064,11.4283 -1.5462,16 -1.0797,3.0661 -2.2738,8.0496 -2.6534,11.0746 -0.3797,3.025 -1.17,8.875 -1.7564,13 -0.5863,4.125 -1.0339,12.7364 -0.9948,19.1364 0.067,10.9334 0.6307,14.1497 4.0071,22.8636 0.5328,1.375 1.7386,4.975 2.6797,8 0.941,3.025 2.9651,8.65 4.4979,12.5 5.0876,12.7787 5.9264,16.7419 4.6268,21.8604 -1.449,5.7067 -5.002,10.6396 -7.6633,10.6396 -2.3926,0 -7.6116,2.5129 -10.4204,5.0172 -1.1,0.9807 -2.8966,1.9461 -3.9924,2.1452 -1.0958,0.1991 -2.5839,1.5962 -3.3068,3.10456 -1.0984,2.2917 -1.7572,2.64 -4.0077,2.1188 -1.4812,-0.343 -3.6898,-1.2452 -4.9079,-2.0048 -1.2629,-0.7875 -4.8755,-1.381 -8.4056,-1.381 -5.1793,0 -6.7781,0.4426 -9.7852,2.7086 -1.9769,1.4897 -3.7656,3.1284 -3.9749,3.6416 -0.8301,2.0353 -7.3856,8.5995 -9.1461,9.1583 -1.0291,0.3266 -2.1664,1.5242 -2.5273,2.6614 -1.1119,3.5031 -20.2299,21.8085 -24.8409,23.785 -2.3213,0.995 -4.9925,2.9872 -5.9359,4.4271 -0.9435,1.4399 -2.2675,2.6224 -2.9424,2.6277 -0.6748,0.01 -3.2027,1.5803 -5.6176,3.5 -2.4149,1.9197 -4.9529,3.4903 -5.64,3.4903 -0.6871,0 -3.9033,1.9125 -7.147,4.25 -5.2925,3.8138 -16.6364,9.9315 -23.3223,12.5776 -4.3917,1.7381 -30.2475,5.5198 -37.5,5.4848 -3.85,-0.019 -9.4442,-0.7715 -12.4315,-1.6731 -2.9873,-0.9016 -7.0373,-1.6461 -9,-1.6544 -3.6375,-0.015 -8.7605,-1.5359 -12.8392,-3.8109 -1.2488,-0.6966 -2.7308,-0.9821 -3.2932,-0.6345 -0.5624,0.3476 -2.4656,-0.453 -4.2293,-1.7791 -3.5555,-2.6733 -21.6388,-11.7604 -23.4031,-11.7604 -0.6162,0 -3.5858,-2.0083 -6.599,-4.4629 -3.0133,-2.4546 -7.3416,-5.2083 -9.6186,-6.1193 -2.2769,-0.9111 -4.6903,-2.4205 -5.363,-3.3544 -0.6727,-0.9338 -2.6862,-2.5525 -4.4744,-3.597 -1.7882,-1.0445 -3.4759,-2.5893 -3.7504,-3.4328 -0.6578,-2.0214 -11.1798,-8.7183 -14.9983,-9.5459 -1.65,-0.3577 -4.2435,-1.1208 -5.7633,-1.6958 -2.3433,-0.8866 -3.3311,-0.6533 -6.5,1.535 -2.0552,1.4193 -5.3208,3.2392 -7.257,4.0443 -1.9362,0.805 -4.4112,2.4662 -5.5,3.6914 -1.0888,1.2253 -3.8553,3.0672 -6.1477,4.0931 -2.2923,1.0259 -5.9636,3.3655 -8.1583,5.1992 -2.1947,1.8336 -6.1691,3.9102 -8.832,4.6145 -2.663,0.7044 -5.5167,2.0119 -6.3417,2.9056 -2.756,2.9857 -19.3262,9.125 -24.6284,9.125 -1.3193,0 -3.1801,0.4618 -4.1352,1.0262 -3.0197,1.7847 -16.3512,4.9671 -27.2364,6.5017 -5.775,0.8141 -11.625,1.8919 -13,2.3949 -4.9912,1.826 -8.1742,2.0788 -26.7524,2.1246 -14.4101,0.036 -19.9686,-0.3159 -23.3944,-1.479 -2.4715,-0.8391 -7.387,-1.9522 -10.9234,-2.4737 -3.5364,-0.5215 -8.9533,-1.8348 -12.0377,-2.9186 -5.4558,-1.9172 -21.8921,-11.765 -21.8921,-13.1167 0,-0.371 -1.8495,-1.4905 -4.11,-2.4879 -5.0698,-2.2367 -31.4047,-21.8748 -38.89,-29.0004 -12.2738,-11.6839 -18.4792,-14.7847 -28.118,-14.0501 -7.2291,0.5509 -9.5894,1.4953 -17.4256,6.9726 -3.546,2.4785 -6.8905,4.5064 -7.4322,4.5064 -0.5417,0 -4.3183,3.0375 -8.3924,6.75 -5.4694,4.984 -10.432,8.2599 -18.9682,12.5213 -6.3584,3.1742 -12.8214,6.8081 -14.3622,8.0754 -1.5408,1.2673 -5.5014,4.0612 -8.8014,6.2087 -3.3,2.1476 -6.15,4.2512 -6.3333,4.6746 -0.1834,0.4235 -1.0336,0.77 -1.8894,0.77 -0.8559,0 -3.6309,1.2759 -6.1667,2.8353 -4.2507,2.614 -24.9627,10.1647 -27.8823,10.1647 -0.6974,0 -2.9948,1.0901 -5.1054,2.4224 -9.3355,5.8933 -26.7734,10.4323 -45.1229,11.7454 -18.7606,1.3426 -22.703,1.268 -29,-0.5487 -3.025,-0.8727 -7.525,-1.5299 -10,-1.4604 -7.5873,0.213 -24.2229,-2.0533 -25.9095,-3.5298 -0.8748,-0.7658 -2.7155,-1.7335 -4.0905,-2.1506 -1.375,-0.417 -4.0683,-1.5952 -5.9852,-2.6183 -1.9168,-1.023 -4.0928,-1.86 -4.8355,-1.86 -3.4504,0 -33.5745,-16.5691 -39.0593,-21.4837 -1.991,-1.7841 -5.195,-4.0305 -7.12,-4.9921 -1.925,-0.9616 -5.525,-3.4166 -8,-5.4554 -2.475,-2.0389 -6.0598,-4.5759 -7.9663,-5.6379 -1.9065,-1.062 -6.9544,-4.4787 -11.2176,-7.5926 -9.6601,-7.0561 -13.181,-8.2655 -21.9282,-7.5321 -7.8875,0.6612 -8.9522,1.1371 -14.9259,6.6703 -6.1984,5.7415 -12.1881,9.6946 -15.9361,10.5178 -1.7459,0.3835 -4.6148,1.9619 -6.3753,3.5076 -1.7604,1.5457 -5.6645,3.5638 -8.6757,4.4847 -3.0112,0.9208 -6.5086,2.0881 -7.772,2.5938 -1.2633,0.5058 -3.8953,0.9196 -5.8487,0.9196 -2.6193,0 -4.254,0.7517 -6.2264,2.8632 -1.6287,1.7435 -4.8945,3.5085 -8.3517,4.5135 -3.1224,0.9077 -7.6119,2.7379 -9.9766,4.0671 -11.9265,6.7037 -14.0223,7.389 -24.7995,8.1094 -5.775,0.3861 -11.625,1.2589 -13,1.9396 -3.0939,1.5318 -6.7488,1.885 -19.5,1.8847 -10.3088,-2e-4 -16.5549,-0.8935 -29.5,-4.2187 -4.125,-1.0596 -10.2,-2.3793 -13.5,-2.9326 -7.5338,-1.2633 -12.756,-3.1754 -23.5,-8.6043 -12.4069,-6.2693 -21.0354,-8.7942 -30.5,-8.9249 -10.1669,-0.1404 -14.3372,1.3056 -22.9212,7.9476 -3.8066,2.9455 -7.5035,5.3554 -8.2152,5.3554 -0.7117,0 -2.7722,1.2675 -4.5788,2.8166 -4.5905,3.9362 -9.7253,6.8494 -13.4657,7.6398 -1.7495,0.3697 -3.7055,1.3042 -4.3466,2.0767 -1.2454,1.5007 -18.8617,10.4669 -20.5647,10.4669 -0.5589,0 -3.1504,1.3535 -5.7589,3.0077 -5.1508,3.2666 -14.8293,6.9923 -18.1642,6.9923 -1.1466,0 -2.5122,0.4185 -3.0347,0.93 -1.1334,1.1096 -8.0221,3.7002 -14.95,5.6224 -6.9387,1.9251 -18.9982,6.1087 -21.5583,7.4788 -3.8567,2.064 -64.5876,5.9895 -66.2922,4.285 z m 204.5817,-132.64526 c 5.7788,-4.2724 12.1265,-13.8174 15.3754,-23.12 1.7386,-4.978 4.1035,-11.0759 5.2553,-13.5509 1.1518,-2.475 2.1041,-5.0904 2.1161,-5.8119 0.012,-0.7216 1.1815,-3.7629 2.5986,-6.7585 1.4172,-2.9955 3.0057,-8.4802 3.5301,-12.188 0.5244,-3.7079 1.359,-8.3166 1.8547,-10.2416 0.4956,-1.925 1.1966,-6.65 1.5576,-10.5 0.361,-3.85 1.0752,-8.6537 1.587,-10.6748 1.5722,-6.2085 2.9935,-39.0277 1.9324,-44.6226 -0.5265,-2.7761 -1.0107,-8.7949 -1.076,-13.375 -0.2453,-17.1921 -2.6009,-30.935 -7.0838,-41.3276 -0.4745,-1.1 -1.7882,-5.15 -2.9193,-9 -1.1311,-3.85 -3.3652,-10.15 -4.9646,-14 -1.5994,-3.85 -3.3897,-8.8935 -3.9785,-11.20778 -0.5888,-2.31428 -1.5083,-4.47833 -2.0434,-4.80901 -0.535,-0.33069 -0.9728,-1.71465 -0.9728,-3.07547 0,-1.36083 -1.125,-4.69431 -2.5,-7.40774 -1.375,-2.71343 -2.5,-5.82191 -2.5,-6.90774 0,-1.08582 -0.3583,-2.19568 -0.7963,-2.46634 -0.4379,-0.27066 -2.5669,-4.00971 -4.7312,-8.30901 -2.1642,-4.2993 -6.3718,-10.74191 -9.3501,-14.31691 -2.9784,-3.575 -5.4962,-6.60932 -5.5951,-6.74294 -0.099,-0.13361 -2.4894,-0.68093 -5.3122,-1.21626 -4.078,-0.77339 -5.9112,-0.6491 -8.9237,0.60506 -4.6028,1.9162 -12.1792,8.62018 -14.4625,12.79712 -0.9191,1.68136 -3.5066,5.00725 -5.75,7.39087 -2.2434,2.38362 -4.0789,4.80235 -4.0789,5.37496 0,1.74888 -5.2442,13.16375 -7.0251,15.29119 -1.3954,1.66706 -6.2977,11.44148 -13.5415,27 -0.7682,1.65 -2.0642,5.6213 -2.8799,8.8251 -0.8157,3.2037 -2.4427,7.3777 -3.6156,9.2753 -1.1728,1.8977 -1.8579,4.1657 -1.5224,5.04 0.3355,0.8742 -0.2749,3.4503 -1.3563,5.7246 -2.8923,6.0824 -5.0421,19.3886 -5.515,34.135 -0.2293,7.15 -0.717,16.1853 -1.0837,20.0784 -0.5641,5.9887 -0.343,7.7892 1.4363,11.6952 1.1568,2.5392 2.1032,5.0975 2.1032,5.6851 0,0.5876 0.3915,1.8498 0.87,2.8049 4.8749,9.7302 5.9618,13.1937 7.7628,24.7364 0.3433,2.2 1.4901,4.9543 2.5484,6.1206 1.0584,1.1663 3.1857,5.4413 4.7274,9.5 1.5417,4.0587 4.4412,10.3044 6.4432,13.8794 2.002,3.575 5.0019,9.2 6.6663,12.5 3.6468,7.2302 12.7301,20.6132 16.9352,24.9518 1.6757,1.7289 3.0467,3.5874 3.0467,4.13 0,1.2692 9.4472,10.3893 14,13.5152 2.1571,1.481 5.6103,2.6295 9,2.9932 6.5366,0.7014 8.5485,0.3035 12.2312,-2.4193 z m 256.88,-31.1091 c 2.4138,-2.441 6.1888,-6.4832 8.3888,-8.9827 2.2,-2.4995 6.0961,-6.6899 8.658,-9.3118 4.5801,-4.6876 11.842,-14.6779 11.842,-16.2912 0,-0.4526 1.4789,-2.7699 3.2864,-5.1495 1.8076,-2.3796 4.5491,-7.9266 6.0924,-12.3266 3.255,-9.2802 9.8749,-23.0999 13.2692,-27.7007 1.2936,-1.7533 2.352,-3.9892 2.352,-4.9685 0,-2.2822 5.2137,-13.6855 8.5893,-18.7864 1.4301,-2.1609 2.2904,-4.43 1.9119,-5.0425 -0.3785,-0.6124 0.223,-3.4509 1.3366,-6.3077 1.1137,-2.8568 2.7965,-8.7942 3.7397,-13.1942 1.8851,-8.7939 2.2937,-10.1152 8.9678,-29 2.5269,-7.15 5.0218,-14.717 5.5443,-16.8155 0.5225,-2.0986 2.2178,-6.61192 3.7675,-10.02965 1.5497,-3.41772 3.0798,-8.67573 3.4002,-11.68445 0.4114,-3.86318 2.0751,-8.31897 5.6626,-15.16588 2.7941,-5.33252 5.0801,-10.74489 5.0801,-12.0275 0,-1.2826 0.7151,-3.35301 1.5892,-4.60089 0.874,-1.24789 1.3724,-2.83382 1.1074,-3.52428 -1.0105,-2.63339 2.4522,-21.05107 4.7162,-25.08446 1.4056,-2.50429 3.1311,-8.87116 4.4898,-16.56739 1.2138,-6.875 2.7058,-14.75 3.3156,-17.5 1.3703,-6.17999 2.6234,-15.91766 3.7317,-29 0.466,-5.5 1.4005,-12.025 2.0767,-14.5 1.1011,-4.03059 1.3901,-25.03605 0.5159,-37.5 -0.1543,-2.2 0.1471,-7.43209 0.6699,-11.62687 0.7864,-6.30985 0.6608,-8.46836 -0.7271,-12.5 -0.9226,-2.68022 -1.8262,-5.99813 -2.008,-7.37313 -0.4842,-3.66313 -2.323,-10.6699 -4.5926,-17.5 -1.0965,-3.3 -2.3797,-7.35 -2.8514,-9 -0.4717,-1.65 -1.324,-4.35 -1.8939,-6 -0.5699,-1.65 -1.9395,-5.98647 -3.0437,-9.63661 -1.1041,-3.65013 -3.7618,-10.40013 -5.9059,-15 -2.1442,-4.59986 -4.6538,-10.66126 -5.5768,-13.46976 -0.9231,-2.8085 -2.7886,-6.14944 -4.1457,-7.42431 -1.357,-1.27487 -2.4673,-3.07882 -2.4673,-4.00878 0,-0.92995 -0.9974,-2.9588 -2.2164,-4.50856 -2.1629,-2.7496 -2.7809,-3.76335 -7.6291,-12.51355 -2.118,-3.82248 -9.8529,-14.35062 -16.5862,-22.57568 -1.4126,-1.72548 -2.5683,-3.62215 -2.5683,-4.21481 0,-0.59267 -0.8512,-1.53313 -1.8916,-2.08993 -1.0404,-0.55679 -3.1247,-3.16012 -4.6318,-5.78518 -1.5071,-2.62506 -5.3641,-7.47283 -8.5712,-10.77283 -22.8611,-23.52366 -38.9404,-38.47421 -43.7468,-40.67584 -5.6491,-2.58759 -14.7653,-2.34152 -19.1048,0.51569 -1.9546,1.28692 -4.7913,3.0973 -6.3038,4.02306 -1.5125,0.92576 -2.7515,2.23532 -2.7534,2.91014 0,0.67482 -3.6547,5.05195 -8.1175,9.72695 -5.0833,5.32504 -8.9835,10.461 -10.4416,13.75 -1.2801,2.8875 -2.8271,5.25 -3.4378,5.25 -0.6107,0 -2.223,2.43029 -3.5828,5.40064 -1.3599,2.97036 -3.0655,5.89277 -3.7903,6.49425 -0.7247,0.60148 -2.1305,2.89619 -3.124,5.09936 -0.9935,2.20316 -2.1764,4.00575 -2.6288,4.00575 -1.2197,0 -3.8738,5.56439 -3.8738,8.1216 0,1.2215 -0.6027,2.93135 -1.3393,3.79966 -1.5978,1.8835 -6.2611,13.3413 -7.1546,17.57874 -0.3478,1.65 -1.687,4.575 -2.9758,6.5 -1.4022,2.09426 -2.829,6.47234 -3.5526,10.90051 -0.665,4.07029 -2.2777,9.69529 -3.5837,12.5 -1.3059,2.80472 -2.3789,6.01684 -2.3842,7.13805 -0.01,1.12121 -0.9098,3.80385 -2.0098,5.96144 -1.1,2.15759 -2,4.53965 -2,5.29347 0,0.75382 -1.0634,4.59617 -2.3631,8.53856 -1.2998,3.94238 -3.1568,9.86797 -4.1268,13.16797 -0.9701,3.3 -2.5679,8.025 -3.5508,10.5 -2.7067,6.81555 -6.4933,21.22961 -6.1967,23.58868 0.1444,1.14877 -0.4181,4.01785 -1.25,6.37572 -0.9885,2.80168 -1.5126,7.99188 -1.5126,14.97983 0,6.42419 -0.5802,12.66144 -1.4535,15.62427 -1.4594,4.95123 -3.6671,22.3238 -3.5497,27.9315 0.035,1.65 -0.4438,7.275 -1.0631,12.5 -0.784,6.615 -0.8157,10.83333 -0.1045,13.89053 0.6969,2.99596 0.6943,6.24736 -0.01,10.23644 -0.7286,4.13664 -0.6705,11.91692 0.1987,26.60947 0.6757,11.41996 1.3419,23.46356 1.4805,26.76356 0.1386,3.3 0.7644,8.7 1.3907,12 0.6264,3.3 1.3547,9.06244 1.6185,12.80543 0.2639,3.74299 0.8708,7.56799 1.3487,8.5 0.478,0.93201 1.1264,5.51957 1.4409,10.19457 0.615,9.14167 2.9955,23.4191 5.2519,31.5 1.3125,4.7003 2.9716,11.9966 5.912,26 0.693,3.3 1.9337,7.575 2.7573,9.5 0.8236,1.925 2.1777,5.525 3.0091,8 4.725,14.0654 6.9704,19.2957 9.2949,21.6516 0.625,0.6334 2.3604,4.6834 3.8565,9 1.4961,4.3166 3.3586,8.9734 4.1391,10.3484 0.7804,1.375 1.9279,3.625 2.55,5 4.0728,9.0017 10.5626,20.7833 13.0252,23.6461 2.3034,2.6775 11.9052,18.9421 11.9052,20.1662 0,0.569 1.4627,2.9815 3.2504,5.3611 1.7877,2.3796 4.1502,6.1132 5.25,8.2968 2.7133,5.3874 19.6011,21.9539 23.7283,23.2769 6.262,2.0075 8.2282,1.5213 12.8825,-3.1853 z m 621.499,1.6613 c 3.8893,-3.4053 9.4433,-11.7556 10.4578,-15.7231 0.4219,-1.65 1.7555,-6.15 2.9636,-10 4.8892,-15.5806 6.1548,-21.3828 6.4345,-29.5 0.1611,-4.675 0.8432,-9.85 1.5158,-11.5 0.6725,-1.65 1.4276,-5.25 1.678,-8 0.2503,-2.75 1.1042,-6.9282 1.8976,-9.2849 1.6524,-4.9086 1.7662,-11.5013 0.3229,-18.7151 -0.5502,-2.75 -1.4008,-9.0117 -1.8902,-13.9149 -0.4895,-4.9032 -1.3503,-10.9782 -1.9131,-13.5 -4.3603,-19.5392 -5.3884,-23.7064 -6.0652,-24.5851 -0.4236,-0.55 -1.7701,-3.7719 -2.9921,-7.1597 -1.2221,-3.3879 -3.5265,-7.4096 -5.1209,-8.9371 -1.5944,-1.5276 -2.8989,-3.1904 -2.8989,-3.6953 0,-0.5048 -1.35,-2.9182 -3,-5.363 -1.65,-2.44484 -3,-4.81103 -3,-5.25819 0,-0.44716 -2.3625,-2.92401 -5.25,-5.50409 -2.8875,-2.58009 -7.5687,-6.76864 -10.4027,-9.3079 -7.3625,-6.59693 -9.7144,-7.61985 -16.0224,-6.9688 -14.3896,1.48514 -23.7845,10.69303 -27.2362,26.69408 -0.6526,3.025 -1.6029,7.3 -2.1118,9.5 -4.3877,18.9682 -3.5071,59.6218 1.4446,66.6914 0.9628,1.3746 1.5785,4.3506 1.5785,7.63 0,2.957 0.6614,6.7944 1.4698,8.5275 0.8084,1.7331 2.1568,5.827 2.9965,9.0975 0.8396,3.2706 1.9782,6.3981 2.5301,6.95 0.552,0.552 1.0036,1.7622 1.0036,2.6893 0,0.9271 0.6722,2.9746 1.4938,4.55 0.8217,1.5754 1.499,3.9893 1.5052,5.3643 0.01,1.375 1.1199,4.3 2.4749,6.5 1.355,2.2 2.4777,4.7247 2.4949,5.6105 0.017,0.8857 1.0663,3.1357 2.3313,5 1.2651,1.8642 2.9005,5.6395 3.6342,8.3895 0.7338,2.75 2.4471,7.025 3.8073,9.5 1.3603,2.475 3.318,6.9128 4.3504,9.8617 2.2052,6.2989 7.7782,12.9533 12.8253,15.3141 1.9705,0.9218 5.8327,1.6971 8.5827,1.7231 4.0543,0.038 5.5883,-0.4678 8.1102,-2.6758 z m -279.2945,-16.3805 c 2.6152,-1.3857 13.668,-12.0046 13.6776,-13.1406 0,-0.439 1.5103,-3.1486 3.348,-6.0214 1.8377,-2.8728 4.622,-8.1387 6.1872,-11.7019 1.5652,-3.5633 3.7741,-7.8274 4.9087,-9.4758 1.1345,-1.6484 3.4504,-5.7487 5.1464,-9.1119 1.696,-3.3632 4.0548,-7.4788 5.2418,-9.1458 3.5033,-4.9199 8.173,-15.5237 8.1738,-18.5609 4e-4,-1.5487 0.4602,-3.6741 1.0216,-4.7231 0.5614,-1.0491 1.4684,-4.2679 2.0156,-7.153 0.5471,-2.8852 2.0489,-6.8348 3.3372,-8.777 1.2884,-1.9421 2.9349,-5.1062 3.659,-7.0312 0.7241,-1.925 2.138,-4.6945 3.142,-6.1544 1.004,-1.4599 1.8254,-3.5708 1.8254,-4.6909 0,-1.1202 0.4084,-2.2891 0.9075,-2.5975 1.0742,-0.6639 3.3508,-8.3983 7.817,-26.5572 0.8792,-3.575 3.5509,-12.9234 5.9371,-20.77423 2.3861,-7.85082 4.3384,-15.35101 4.3384,-16.66709 0,-1.31608 0.9769,-4.56768 2.171,-7.22577 4.3049,-9.58322 6.3993,-16.73793 8.4403,-28.83291 5.8382,-34.59624 6.3855,-38.59986 7.5878,-55.5 1.2501,-17.57165 1.2966,-19.41312 0.9211,-36.5 -0.133,-6.05 -0.037,-15.02276 0.2142,-19.93946 0.3045,-5.97037 0,-10.45417 -0.9284,-13.5 -0.7614,-2.5083 -1.3892,-5.96646 -1.3952,-7.68481 -0.01,-1.71835 -0.6601,-4.96468 -1.4538,-7.21407 -0.8251,-2.33882 -1.1978,-5.6 -0.8705,-7.61726 0.3483,-2.14631 0.086,-4.11312 -0.6689,-5.0232 -0.6827,-0.82265 -0.9561,-2.23899 -0.6075,-3.14742 0.3486,-0.90843 -0.2792,-3.53772 -1.3951,-5.84286 -1.1159,-2.30514 -2.1923,-6.40511 -2.3919,-9.11105 -0.4507,-6.10934 -1.8894,-12.10521 -7.6244,-31.77521 -1.0993,-3.77043 -1.9987,-7.95528 -1.9987,-9.29966 0,-1.34437 -0.6607,-3.72201 -1.4683,-5.28363 -0.8075,-1.56162 -2.8641,-7.27677 -4.5702,-12.70034 -1.7061,-5.42357 -3.9351,-11.69347 -4.9533,-13.93312 -1.0181,-2.23966 -2.5917,-6.51466 -3.4968,-9.5 -2.2406,-7.3905 -7.3398,-17.44958 -13.1435,-25.92791 -5.2883,-7.72555 -12.3679,-20.83993 -12.3679,-22.91075 0,-1.1772 -1.1151,-2.5091 -2.75,-3.28468 -1.5842,-0.75151 -3.8099,-3.35251 -5.25,-6.13527 -1.375,-2.65688 -3.2875,-5.26674 -4.25,-5.79969 -0.9625,-0.53294 -1.75,-1.61126 -1.75,-2.39625 0,-0.78499 -1.1048,-2.15116 -2.4552,-3.03594 -1.3503,-0.88477 -3.5637,-3.48265 -4.9186,-5.77305 -2.5519,-4.31407 -4.9531,-6.94022 -15.7799,-17.25824 -7.869,-7.49922 -9.6751,-8.49283 -15.6869,-8.62976 -6.3103,-0.14374 -16.4258,5.10125 -19.6313,10.17909 -1.2345,1.95562 -4.1133,5.24399 -6.3974,7.30749 -2.284,2.06349 -4.8578,5.51376 -5.7195,7.66726 -0.8616,2.15349 -2.1489,4.13891 -2.8607,4.41203 -1.3661,0.52421 -3.8224,5.38243 -7.5461,14.9248 -1.2378,3.17187 -2.6572,6.0184 -3.1543,6.32561 -0.4971,0.30722 -2.7068,4.14444 -4.9103,8.52716 -2.2036,4.38272 -4.6665,8.22184 -5.4732,8.53137 -0.883,0.33885 -1.4666,1.88946 -1.4666,3.89679 0,1.8337 -0.45,3.61211 -1,3.95203 -0.55,0.33992 -1,1.56854 -1,2.73028 0,1.16173 -0.5995,2.82267 -1.3322,3.69098 -3.0731,3.64185 -5.4312,11.84642 -6.0439,21.02877 -0.4343,6.50891 -1.2519,10.64227 -2.6272,13.28079 -1.0982,2.10692 -2.0166,5.27941 -2.0408,7.04997 -0.048,3.49807 -1.9825,11.46094 -3.2728,13.4712 -0.442,0.6886 -0.999,3.8386 -1.2378,7 -0.9504,12.58212 -3.9258,27.13926 -6.7628,33.08703 -0.9058,1.89898 -0.8123,2.50886 0.4974,3.24179 1.301,0.72809 1.4457,1.62996 0.7475,4.66098 -0.4761,2.06702 -0.6137,4.57888 -0.3057,5.58193 0.3079,1.00304 0.083,3.02804 -0.5003,4.5 -2.1296,5.37588 -2.8099,31.31934 -1.7877,68.17628 0.206,7.425 0.3425,15.75 0.3035,18.5 -0.21,14.79079 0.1582,23.52252 1.1808,28 0.9883,4.32755 1.7986,14.86975 2.6133,34 0.2847,6.68591 2.9038,18.77518 5.4784,25.28702 1.1497,2.90786 2.0903,7.04107 2.0903,9.1849 0,2.14383 0.4791,5.15804 1.0647,6.69822 2.1286,5.59866 4.225,15.96741 4.4136,21.82986 0.1159,3.603 1.0247,7.7977 2.2747,10.5 1.145,2.475 2.3819,6.75 2.7488,9.5 0.6948,5.2071 2.1856,9.4488 5.5088,15.6737 1.0897,2.0411 2.2534,6.8167 2.6186,10.7464 0.3711,3.9926 1.2482,7.5632 2.0141,8.1988 0.7462,0.6193 1.3567,2.1059 1.3567,3.3035 0,1.1977 0.4141,2.6051 0.9201,3.1276 1.2213,1.2609 4.9067,11.5767 6.5921,18.4517 0.7418,3.0259 2.0522,6.8509 2.9121,8.5 0.8599,1.649 1.5662,3.5151 1.5695,4.1468 0,0.6316 1.3562,3.7148 3.0062,6.8515 1.65,3.1367 3,6.6763 3,7.8657 0,1.1894 0.9,4.6248 2,7.6343 1.1,3.0095 2,6.2114 2,7.1155 0,1.4718 1.9068,5.4832 8.7388,18.3845 1.1651,2.2 3.2901,6.475 4.7224,9.5 4.951,10.4569 6.5106,12.3829 11.9134,14.7128 2.819,1.2156 6.7004,2.3805 8.6254,2.5887 1.925,0.2081 3.6421,0.4504 3.8157,0.5385 0.1737,0.088 1.2987,-0.3608 2.5,-0.9974 z m 522.465,-133.6859 c 0.7044,-0.447 2.1253,-3.0354 3.1575,-5.752 1.5924,-4.1908 1.6878,-5.3914 0.6297,-7.922 -0.7763,-1.8568 -1.299,-8.4837 -1.3846,-17.55581 -0.097,-10.27951 -0.5699,-15.60797 -1.6051,-18.08557 -0.9753,-2.33419 -1.288,-5.32876 -0.932,-8.92689 0.2946,-2.97794 -0.1578,-9.65632 -1.0053,-14.84085 -0.8475,-5.18453 -1.3156,-9.79098 -1.0402,-10.23656 0.2754,-0.44558 0.01,-2.5037 -0.5896,-4.57358 -0.5997,-2.06989 -1.327,-6.85896 -1.6162,-10.64236 -0.2891,-3.78341 -1.4506,-9.18341 -2.581,-12 -1.1304,-2.8166 -2.6365,-9.62108 -3.3467,-15.12108 -0.7103,-5.5 -1.7703,-11.8 -2.3555,-14 -0.5852,-2.2 -1.0747,-5.66094 -1.0878,-7.69098 -0.013,-2.03004 -0.4479,-3.95303 -0.9661,-4.27331 -0.5182,-0.32028 -1.2539,-2.70934 -1.6348,-5.30902 -0.3809,-2.59968 -1.7971,-7.87669 -3.1472,-11.72669 -1.3502,-3.85 -2.6777,-8.125 -2.9502,-9.5 -0.6922,-3.49281 -6.2274,-23.86655 -7.4714,-27.5 -0.5649,-1.65 -1.698,-5.475 -2.5181,-8.5 -0.8201,-3.025 -2.5812,-7.46918 -3.9136,-9.87595 -1.3324,-2.40678 -2.4225,-4.90794 -2.4225,-5.55813 0,-1.6987 -16.8207,-34.70423 -18.8227,-36.93395 -2.8687,-3.19497 -5.3515,-3.55081 -9.6773,-1.38699 -2.2,1.10047 -4.1667,2.14976 -4.3705,2.33175 -1.0445,0.93295 -1.9937,9.80843 -1.2063,11.27977 0.4931,0.92145 1.128,7.82149 1.4109,15.33343 0.2828,7.51194 0.9983,14.56268 1.59,15.66833 0.5918,1.10564 1.0759,3.54286 1.0759,5.41604 0,1.87317 0.8696,6.80573 1.9324,10.96123 1.0628,4.1555 2.456,11.31498 3.0962,15.90996 0.6401,4.59498 1.7796,9.92951 2.5323,11.85451 0.7527,1.925 1.796,8.04662 2.3183,13.60359 0.6005,6.38735 1.9371,12.8241 3.634,17.5 1.4763,4.06803 3.08,8.97141 3.5638,10.89641 1.0275,4.08801 4.0911,22.35726 4.36,26 0.1015,1.375 0.9681,4.29856 1.9259,6.4968 0.9577,2.19824 1.5255,4.82182 1.2618,5.83018 -0.2637,1.00837 0.099,3.48481 0.8057,5.50321 0.7068,2.01839 1.6177,5.91388 2.0241,8.65664 0.4065,2.74275 1.3705,6.2079 2.1423,7.70034 0.7718,1.49243 1.4032,4.0593 1.4032,5.70415 0,1.64486 0.4186,3.24934 0.9302,3.56553 1.222,0.75527 6.0698,15.7779 6.0698,18.80963 0,1.29682 0.9,4.22065 2,6.49738 1.1,2.27674 2,4.85419 2,5.72767 0,0.87348 0.9304,3.4118 2.0675,5.64071 1.1371,2.22896 2.4723,6.53996 2.967,9.57996 0.5489,3.3727 2.5766,8.4995 5.2012,13.151 3.5046,6.2113 4.8538,7.7419 7.2829,8.2619 4.3892,0.9397 7.8127,0.9513 9.2621,0.032 z M 2416.8189,579.24959 c 0,-1.30855 -4.0269,-3.34194 -5.1922,-2.62178 -0.7394,0.45701 -0.4948,1.13694 0.7318,2.03387 2.0118,1.47106 4.4604,1.7938 4.4604,0.58791 z m -580,-489.595403 c -1.925,-0.62983 -4.175,-1.58021 -5,-2.11195 -0.825,-0.53175 -4.3718,-1.97149 -7.8817,-3.19942 -3.5099,-1.22794 -7.3349,-3.09631 -8.5,-4.15195 -1.1651,-1.05564 -3.3225,-2.20362 -4.7943,-2.55107 -3.1176,-0.73597 -25.0534,-22.23993 -27.4869,-26.94583 -0.8854,-1.71215 -1.593,-4.92919 -1.5725,-7.14896 0.021,-2.21978 -0.8181,-5.52419 -1.8636,-7.34313 -2.3873,-4.1531 -2.394,-6.88496 -0.031,-12.35993 2.5151,-5.82643 9.1029,-10.82546 14.2839,-10.83907 1.2901,-0.003 3.6346,-0.67839 5.21,-1.5 1.5758,-0.82161 3.6526,-1.49384 4.6155,-1.49384 0.963,0 2.8241,-0.8381397 4.1357,-1.8625497 4.6462,-3.62861 10.4236,-5.89625 15.241,-5.98213 2.6709,-0.0476 5.3853,-0.52573 6.032,-1.06248 0.6468,-0.53673997 3.6365,-0.94219997 6.6439,-0.90100997 6.0292,0.0826 12.789,0.0359 26.6482,-0.18382 6.6317,-0.10515 9.8242,0.26807 11.5,1.34438997 1.2759,0.81947 4.5698,2.21665 7.3198,3.10483 2.75,0.88818 6.7282,3.06766 8.8404,4.84328 3.4448,2.8958197 3.8562,3.7419997 3.9938,8.2139497 0.1077,3.50045 -0.5757,6.47494 -2.2941,9.98554 -5.1208,10.4609 -6.6534,11.05176 -24.6236,9.49276 l -14.2818,-1.23902 -4.6933,2.62313 c -2.5813,1.44273 -5.3275,2.62313 -6.1025,2.62313 -2.8864,0 -6.2924,3.23535 -6.9183,6.57167 -0.5623,2.99698 -0.039,4.13977 4.6479,10.15272 2.9049,3.72659 5.8312,7.2412 6.5031,7.81024 0.6719,0.56905 1.9552,2.59405 2.8517,4.5 0.8966,1.90596 2.2865,4.59037 3.0887,5.96537 1.7945,3.07596 1.9213,9.05901 0.238,11.22949 -1.2383,1.59666 -7.8605,3.85133 -10.75,3.66008 -0.825,-0.0546 -3.075,-0.61459 -5,-1.24442 z"
     style="fill:#1a1a1a" />
</svg>
