<?xml version="1.0" encoding="utf-8"?>
<!-- Generator: Adobe Illustrator 18.0.0, SVG Export Plug-In . SVG Version: 6.00 Build 0)  -->
<!DOCTYPE svg PUBLIC "-//W3C//DTD SVG 1.1//EN" "http://www.w3.org/Graphics/SVG/1.1/DTD/svg11.dtd">
<svg version="1.1" id="Image" xmlns="http://www.w3.org/2000/svg" xmlns:xlink="http://www.w3.org/1999/xlink" x="0px" y="0px"
	 viewBox="0 0 602.4 49.9" enable-background="new 0 0 602.4 49.9" xml:space="preserve">
<g id="Tracés">
	<g>
		<path fill="none" stroke="#000000" stroke-width="3" stroke-linecap="round" stroke-miterlimit="10" d="M20.6,47.2
			c0,0,1.3-2.6,2.9-5.9s5.2-9.8,7.9-14.5l2-3.4c2.8-4.7,5.1-9.6,5.1-10.7s0-2.8,0-3.8s0-1.8,0-1.8"/>
	</g>
	<g>
		<path fill="none" stroke="#000000" stroke-width="3" stroke-linecap="round" stroke-miterlimit="10" d="M61.8,30.4
			c0,0-3.6,0.2-8.1,0.4s-10.9,0.7-14.4,1c-3.4,0.4-9.7,0.9-14,1.1s-8.1,0.6-8.6,0.8c-0.5,0.2-0.3,0.7,0.3,1c0.6,0.4,1.1,0.7,1.1,0.7
			"/>
	</g>
	<g>
		<path fill="none" stroke="#000000" stroke-width="3" stroke-linecap="round" stroke-miterlimit="10" d="M152.6,4.7
			c0,0-1.9,1.9-4.2,4.3c-2.3,2.4-5.3,5.3-6.7,6.6s-2.4,3.3-2.2,4.5c0.2,1.2,0.1,2.6-0.1,3.2c-0.2,0.6-0.7,0.1-1.1-1.1
			c-0.4-1.2-0.8-1.1-0.9,0.2c-0.1,1.3-0.9,2.9-1.8,3.6c-0.9,0.7-2,2.2-2.5,3.4c-0.5,1.1-0.7,2.8-0.5,3.7c0.3,0.9,1.3,1.9,2.3,2.1
			c1,0.3,2.7,0,3.8-0.6c1.1-0.6,3.2-1.8,4.7-2.7c1.5-0.9,3.3-2.2,4.1-2.9c0.8-0.7,1.4-1.2,1.4-1.2"/>
	</g>
	<g>
		<path fill="none" stroke="#000000" stroke-width="3" stroke-linecap="round" stroke-miterlimit="10" d="M137.1,24.6
			c0,0,1.9-0.6,4.2-1.3c2.3-0.7,6.4-2,9-2.9c2.7-0.9,6.2-1.8,7.9-2c1.7-0.2,4.6,0.2,6.5,0.9s4.3,1.9,5.3,2.7c1,0.8,2,2.2,2.2,3.3
			c0.2,1,1,2.6,1.7,3.5c0.7,0.9,0.9,2.8,0.4,4.1c-0.5,1.3,0.2,1.3,1.5,0c1.3-1.3,3.7-3,5.2-3.7c1.5-0.7,3.8-1.3,5.1-1.3
			s3.3,0.1,4.6,0.3c1.2,0.2,2.5,0.5,2.8,0.7c0.3,0.3,0.9,1,1.3,1.7c0.4,0.7,0.6,1.9,0.4,2.7c-0.2,0.8-0.8,2-1.3,2.5s-0.9,1-0.9,1"/>
	</g>
	<g>
		<path fill="none" stroke="#000000" stroke-width="3" stroke-linecap="round" stroke-miterlimit="10" d="M213.9,21.6
			c0,0-0.9-0.5-2.1-1.1s-2.9-1.1-3.9-1c-1,0.1-2.2,0.4-2.6,0.7c-0.4,0.4-0.1,0.5,0.7,0.3c0.8-0.2,1.5-0.4,1.5-0.4"/>
	</g>
	<g>
		<path fill="none" stroke="#000000" stroke-width="3" stroke-linecap="round" stroke-miterlimit="10" d="M219.1,28.9
			c0,0-0.4,0.7-0.9,1.5c-0.5,0.8-0.8,2.2-0.7,3.1s0.7,2.1,1.4,2.8c0.7,0.7,2.2,1.7,3.4,2.2c1.2,0.6,2.9,1.2,3.9,1.3
			c1,0.2,2.7,0.1,3.8-0.1c1.1-0.2,2.1-0.4,2.1-0.4"/>
	</g>
	<g>
		<path fill="none" stroke="#000000" stroke-width="3" stroke-linecap="round" stroke-miterlimit="10" d="M287.4,4.8
			c0,0-1.8,2.7-3.9,6c-2.2,3.3-5.1,8-6.6,10.4s-3,5.2-3.4,6.2c-0.4,0.9-2,4.4-3.5,7.7s-0.2,2.4,3-2l11.1-15
			c3.3-4.4,5.8-9.2,5.7-10.6c-0.2-1.4,0.3-1.7,1-0.7s1.1,4.3,0.9,7.4c-0.2,3.1-1,9-1.8,13.2s-1.1,3.2-0.8-2.3l0.4-6.9
			c0.3-5.5,0.1-5.5-0.4,0l-0.7,6.2c-0.6,5.5-1.3,10.4-1.6,11.1c-0.3,0.6-1.3,0.9-2.2,0.7c-0.9-0.3-2.5-1-3.5-1.7
			c-1-0.7-2.8-1.6-3.9-2.1c-1.1-0.5,0.6-0.5,3.7,0c0,0,0,0,0.6-0.2c0.6-0.2,0.6-0.2,0.6-0.2c3.5-0.6,7.6-1.5,9.2-2.1
			c1.6-0.5,4.2-1.3,5.9-1.7c1.6-0.4,4.5-1.3,6.3-2c1.8-0.7,4.2-1.5,5.2-2c1-0.4,2.4-0.6,3-0.4c0.6,0.2,0.7,1.1,0.2,2
			c-0.5,0.9-1.3,2.4-1.8,3.4s-0.5,2.4-0.1,3.3c0.4,0.8,1.5,1.4,2.5,1.4c1-0.1,3.1-0.6,4.8-1.1c1.6-0.6,4.6-1.8,6.5-2.8
			s4.3-2.4,5.3-3.2s2.4-2,3.2-2.8s1.7-1.3,2-1.2c0.3,0.1,0.1,0.9-0.5,1.9s-1.5,2.9-2.1,4.3c0,0,0,0,0.6,0.2c0.6,0.2,0.6,0.2,0.6,0.2
			c1.1,0.9,2.9,1.7,3.9,1.8s2.8-0.5,4-1.1c1.2-0.7,3-1.8,4-2.4c1-0.7,3-1.8,4.3-2.4c1.3-0.7,2.8-0.9,3.2-0.6
			c0.4,0.4,0.6,0.9,0.4,1.3s-0.6,1.2-0.8,1.8c-0.3,0.6-0.1,1.6,0.4,2.1c0.5,0.6,1.3,1.2,1.9,1.4s1.7,0.2,2.4-0.1s2.2-0.9,3.3-1.4
			s2.7-1.4,3.8-2.1c1.1-0.6,3.1-1.6,4.6-2.1c1.4-0.6,2.7-0.9,2.9-0.7c0.2,0.2-0.1,0.8-0.5,1.4s-0.7,1.2-0.7,1.5s0.5,0.6,1,0.7
			c0.6,0.2,1.6,0.3,2.2,0.4s2.8-0.5,4.8-1.3c2-0.8,4.5-1.7,5.6-2.1c1.1-0.4,2.8-1.1,3.7-1.6c1-0.5,2.3-0.8,2.9-0.6
			c0.6,0.2,1.7-0.4,2.5-1.3c0.8-0.9,2-1.6,2.8-1.5c0.8,0.1,1.7,0.6,2.1,1.2c0.4,0.6,0.5,1.7,0.3,2.5c-0.3,0.8,0,1.9,0.7,2.4
			c0.6,0.5,1.8,1,2.6,1c0.8,0.1,2.7-0.1,4.2-0.4c1.5-0.3,3-1,3.4-1.6s0.2-1.6-0.4-2.1c-0.6-0.6-1.9-1.6-2.9-2.2
			c-1-0.7-1.4-1.2-0.8-1.2c0.6,0,1.6-0.3,2.3-0.7c0.7-0.4,2.6-1.2,4.2-1.9c1.6-0.7,4.9-1.7,7.5-2.2c2.5-0.6,5.9-0.9,7.6-0.7
			c1.6,0.2,3.6,0.8,4.4,1.4c0.8,0.6,1.6,1.5,1.9,1.9c0.3,0.4,0.6,1,0.8,1.3c0.2,0.3-0.1,1.1-0.6,1.8s-1.5,1.6-2.1,2.1
			c-0.7,0.4-1.7,0.4-2.2-0.1c-0.6-0.5-0.5-1.3,0.1-1.8c0.6-0.5,3.3-1.9,6.1-3.2c2.7-1.2,6.6-2.6,8.6-3c2-0.4,4.7-0.6,6.1-0.4
			s2.8,1.1,3.2,2.1c0,0,0,0,0,0.6s0,0.6,0,0.6c0,1.4,0.2,3.7,0.4,5c0,0,0,0,0.6,0c0.6,0,0.9,0.6,1.9,0.2c0.9-0.4,0.9-0.4,0.9-0.4
			c1.3-0.9,3.1-2,4-2.4c0.9-0.4,2.7-0.9,4.1-1.1c1.4-0.2,2.8-0.3,3-0.2c0.3,0.1,0.8,0.3,1.2,0.4c0.4,0.1,1.2,0.6,1.9,1.1
			c0.7,0.5,2,1.9,3,3.1s0.3,0.9-1.6-0.7c-1.8-1.5-4.3-2.7-5.4-2.6c-1.1,0.1-2.9,0.3-3.9,0.5s-3.1,0.7-4.6,1.3s-2.7,1-2.7,1"/>
	</g>
	<g>
		<path fill="none" stroke="#000000" stroke-width="3" stroke-miterlimit="10" d="M470.7,4.7c0.6,0,0.6,0,0.6,0
			c1.1-0.5,1.5-1.3,0.8-1.8s-0.4-0.2,0.7,0.6c1,0.8,1.9,1.4,1.9,1.4"/>
	</g>
	<g>
		<path fill="none" stroke="#000000" stroke-width="3" stroke-linecap="round" stroke-miterlimit="10" d="M481.7,8.8
			c0,0,1-0.7,2.1-1.6c1.2-0.9,4.4-1.6,7.2-1.7s9.5-0.1,15,0l2.2,0c5.5,0,10.2,0.3,10.5,0.5c0.3,0.2-1.5,1.3-3.8,2.4
			s-6.2,3.3-8.5,4.8c-2.3,1.5-4.6,3.3-5,4c-0.5,0.7-0.4,1.6,0.1,2.1s2.7,1.2,4.8,1.5c2.1,0.3,6.3,0.2,9.4-0.3
			c3.1-0.5,7.6-1,10.1-1.3c2.5-0.3,8.9-1.1,14.4-2l7.3-1.1c5.4-0.8,13.5-2.1,17.9-2.9c4.4-0.8,10.9-1.6,14.4-1.8s6.3-0.4,6.3-0.4"/>
	</g>
</g>
</svg>
