<?xml version="1.0" encoding="UTF-8" standalone="no"?>
<!-- Created with Inkscape (http://www.inkscape.org/) -->

<svg
   xmlns:dc="http://purl.org/dc/elements/1.1/"
   xmlns:cc="http://creativecommons.org/ns#"
   xmlns:rdf="http://www.w3.org/1999/02/22-rdf-syntax-ns#"
   xmlns:svg="http://www.w3.org/2000/svg"
   xmlns="http://www.w3.org/2000/svg"
   xmlns:sodipodi="http://sodipodi.sourceforge.net/DTD/sodipodi-0.dtd"
   xmlns:inkscape="http://www.inkscape.org/namespaces/inkscape"
   id="svg2985"
   version="1.1"
   inkscape:version="0.48.5 r10040"
   width="930.97815"
   height="526.38184"
   sodipodi:docname="Sign_Abdurrahman_Wahid_new.png">
  <metadata
     id="metadata2991">
    <rdf:RDF>
      <cc:Work
         rdf:about="">
        <dc:format>image/svg+xml</dc:format>
        <dc:type
           rdf:resource="http://purl.org/dc/dcmitype/StillImage" />
        <dc:title></dc:title>
      </cc:Work>
    </rdf:RDF>
  </metadata>
  <defs
     id="defs2989" />
  <sodipodi:namedview
     pagecolor="#ffffff"
     bordercolor="#666666"
     borderopacity="1"
     objecttolerance="10"
     gridtolerance="10"
     guidetolerance="10"
     inkscape:pageopacity="0"
     inkscape:pageshadow="2"
     inkscape:window-width="1366"
     inkscape:window-height="705"
     id="namedview2987"
     showgrid="false"
     fit-margin-top="0"
     fit-margin-left="0"
     fit-margin-right="0"
     fit-margin-bottom="0"
     inkscape:zoom="1.2217742"
     inkscape:cx="420.79327"
     inkscape:cy="328.59281"
     inkscape:window-x="-8"
     inkscape:window-y="-8"
     inkscape:window-maximized="1"
     inkscape:current-layer="svg2985" />
  <g
     id="g2995"
     transform="translate(-34,-29.489564)">
    <path
       style="fill:#d0d0d0"
       d="m 346.73964,553.04984 c -17.5816,-11.14992 -74.85354,-59.82791 -106.8896,-90.85026 -6.41832,-6.21524 -11.88529,-10.94024 -12.14881,-10.5 -0.26352,0.44023 -1.01205,3.50042 -1.6634,6.80042 -3.23205,16.37492 -11.45548,43.03485 -19.97102,64.74506 -5.36329,13.67359 -8.58505,16.28154 -14.43195,11.68236 C 189.93542,533.59064 189,531.88352 189,530.11884 c 0,-1.5048 2.6658,-9.90964 5.924,-18.67742 9.83065,-26.45418 17.12893,-53.08694 18.72055,-68.31477 l 0.63786,-6.10269 -13.39121,-13.78491 C 158.76638,379.87574 117.2005,327.88498 90.62703,285.32018 52.931931,224.941 34,171.46945 34,125.38219 34,96.012269 38.584837,72.892315 45.262863,68.586956 50.816824,65.006287 64.915169,64.375326 77,67.166584 c 7.315811,1.689747 24.00391,10.225488 33.0664,16.91302 31.68319,23.380166 70.31329,76.959846 94.75202,131.420396 15.48496,34.50751 19.15506,51.14992 21.17055,96 0.59318,13.2 1.79937,34.125 2.6804,46.5 0.88104,12.375 1.69685,34.425 1.8129,49 l 0.21102,26.5 18.49331,17.5 C 272.1275,472.70871 292,490.44932 292,489.22046 c 0,-0.51028 -3.55809,-8.30613 -7.90687,-17.32412 -22.08628,-45.79993 -47.49348,-122.20985 -51.13871,-153.79516 -1.78106,-15.43261 -0.0864,-27.2606 4.44396,-31.01785 4.0967,-3.39755 10.78615,-0.41106 20.86918,9.31696 2.62216,2.52984 5.03192,4.59971 5.35503,4.59971 0.32312,0 0.38246,-1.9125 0.13188,-4.25 -0.25059,-2.3375 -0.0905,-8.34849 0.35577,-13.35775 2.50854,-28.15816 17.59808,-37.35176 45.00687,-27.42133 17.55553,6.36052 29.36684,16.41096 66.43321,56.52908 23.12256,25.0263 27.6482,29.55471 40.44899,40.47377 11.38447,9.71094 24.69115,18.44312 41.00548,26.90886 21.57981,11.19807 27.0674,13.2482 37.42161,13.98053 l 9.00418,0.63684 0.9092,3.17966 c 1.20612,4.21807 0.0484,10.06716 -2.12452,10.73398 -0.94339,0.2895 -6.38224,0.15744 -12.08632,-0.29347 l -10.37106,-0.81984 -19.62894,-9.89223 C 415.73617,375.03583 400.28305,362.85134 364.49184,322 c -32.68016,-37.30045 -49.58468,-50.57212 -68.96321,-54.14276 -8.78605,-1.61889 -12.69526,0.0865 -15.83064,6.90624 -1.8889,4.10849 -2.16563,6.39392 -2.08712,17.23652 0.0507,7.00382 0.8608,16.89694 1.84238,22.5 1.58369,9.04001 2.35359,11.00799 8.01988,20.5 35.25665,59.06091 71.11492,162.65696 71.87282,207.64363 0.13015,7.72493 -0.14152,9.47046 -1.75094,11.25 -2.58916,2.86287 -5.34883,2.64836 -10.85537,-0.84379 z m -25.8032,-60.17834 c -24.22093,-60.52078 -40.08618,-107.41507 -49.40812,-146.0399 -3.38197,-14.01296 -3.38516,-14.02009 -10.37559,-23.17444 -7.66754,-10.04104 -13.76142,-16.38181 -14.77237,-15.37085 -1.04715,1.04715 2.43402,22.85861 5.62111,35.21938 11.73934,45.52971 43.20096,122.43788 63.22211,154.54691 6.73501,10.80131 14.64683,21.41033 15.40307,20.65409 0.25502,-0.25503 -4.10557,-11.88086 -9.69021,-25.83519 z m 7.02447,-29.49972 c -6.64601,-21.80126 -22.83809,-64.50289 -27.06078,-71.36447 -2.96412,-4.81652 10.82509,35.23445 23.20637,67.40324 3.79142,9.85081 6.8935,18.13831 6.8935,18.41667 0,0.27836 0.26242,0.24369 0.58316,-0.077 0.32074,-0.32074 -1.30927,-6.79101 -3.62225,-14.37839 z M 216,403.1726 c 0,-7.60507 -0.67163,-23.69257 -1.49251,-35.75 -0.82088,-12.05743 -2.16128,-35.5252 -2.97867,-52.15059 C 209.41837,272.34597 207.29308,260.15347 197.71082,236 192.51735,222.9091 178.21101,193.73477 169.93378,179.35543 149.95735,144.65201 124.79177,113.43663 104.5,98.19137 96.048026,91.841378 81.682155,84.563118 73.539901,82.505886 66.798337,80.802554 55.430119,80.495036 54.505566,81.990995 52.543243,85.166099 49.868293,104.2932 49.328044,119.01261 48.427786,143.54072 51.19044,162.82895 59.186092,187.83927 76.155654,240.9199 119.95826,310.85345 177.03982,376 c 13.40148,15.29497 37.33817,40.97091 38.21018,40.98655 0.4125,0.007 0.75,-6.20888 0.75,-13.81395 z m 410.58425,-89.28499 c -2.65576,-2.08902 -2.7942,-2.56448 -2.25836,-7.75621 0.73083,-7.08112 10.14953,-26.14905 18.91838,-38.29981 C 676.06089,222.35843 746.1372,158.08917 823.5,102.51317 877.59748,63.650549 927.85901,35.308752 950,31.181526 c 11.47523,-2.139057 11.88216,-2.156511 13.46131,-0.577359 1.73566,1.735658 2.0659,8.542212 0.55173,11.371474 -0.60118,1.123307 -2.65332,2.116967 -5.25,2.542086 -6.7055,1.097797 -22.49852,6.377934 -31.26304,10.452285 -56.66395,26.341287 -188.27851,126.923518 -244.2423,186.654408 -26.07027,27.82513 -38.84763,46.33819 -44.24419,64.10519 -2.32942,7.66913 -3.11724,8.75635 -7.06239,9.74652 -1.80398,0.45277 -3.35566,-0.007 -5.36687,-1.58852 z"
       id="path3009"
       inkscape:connector-curvature="0" />
    <path
       style="fill:#1a1a1a"
       d="m 344.90501,550.7991 c -20.0297,-13.45892 -74.09958,-59.68935 -106.66101,-91.19651 -5.6408,-5.45816 -10.51911,-9.66081 -10.8407,-9.33922 -0.32159,0.32159 -1.61889,5.46777 -2.8829,11.43596 -5.12512,24.19903 -21.06615,70.3017 -25.25812,73.04839 -2.91634,1.91086 -6.77023,0.93288 -8.85358,-2.24672 -1.5477,-2.36209 -1.38189,-3.09663 3.89048,-17.23412 10.38195,-27.83847 17.349,-52.3282 19.89657,-69.93796 l 1.18209,-8.17108 -13.78639,-14.24489 C 107.64716,325.84431 47.802944,227.54855 36.57666,151.87166 33.657518,132.19359 34.795183,99.741777 39.001385,82.706557 42.459127,68.702616 45.807423,66.451982 63,66.575336 c 8.702846,0.06244 11.858532,0.542678 18.437318,2.805813 C 109.09252,78.894677 138.35949,106.33233 167.43118,150 c 17.66168,26.52906 33.2599,55.9223 43.57573,82.11397 9.95448,25.27421 12.23909,38.50494 14.48504,83.88603 0.85743,17.325 2.25087,41.85 3.09653,54.5 0.84567,12.65 1.40834,31.96555 1.25038,42.92344 l -0.28719,19.92344 13.97417,13.42418 c 15.03495,14.44322 47.78256,44.22382 50.05385,45.51886 1.65896,0.9459 1.9232,1.58873 -6.49052,-15.78992 -21.91333,-45.26227 -45.96997,-114.64342 -52.13088,-150.34937 -3.53582,-20.49206 -1.89303,-35.69563 4.2243,-39.09475 2.40502,-1.33636 3.04756,-1.31655 6.20975,0.19139 1.93993,0.92509 6.92026,4.90511 11.0674,8.84449 4.14715,3.93937 7.54982,6.99279 7.5615,6.78537 0.0117,-0.20742 0.1922,-5.77713 0.40115,-12.37713 0.58151,-18.36753 4.46682,-28.75639 12.81748,-34.27239 3.83039,-2.53016 4.85795,-2.7232 14.19472,-2.66672 8.9435,0.0541 10.99153,0.42698 18.37421,3.34536 17.32375,6.84809 28.4009,16.34779 64.24224,55.09375 23.63959,25.55537 29.08315,31.00237 41.94827,41.97478 11.26311,9.60607 24.53134,18.30479 41.00069,26.88025 19.07315,9.93124 26.81548,12.78222 36.99676,13.62343 4.67322,0.38612 8.82883,1.22393 9.23469,1.86179 1.18145,1.85681 0.88072,9.14758 -0.43145,10.45975 -1.43967,1.43967 -10.46472,1.56454 -17.91351,0.24785 -6.80857,-1.20352 -45.76068,-20.61904 -60.12304,-29.96808 C 405.78228,364.72416 391.96377,351.8702 365.55056,322 331.67523,283.69103 316.44104,271.56668 297,267.44306 281.79875,264.21874 276.75969,270.36039 276.85173,292 c 0.0287,6.74182 0.85474,16.0513 1.99652,22.5 1.82742,10.32112 2.35439,11.67108 8.53853,21.87369 30.57132,50.43659 64.15908,143.53253 70.56989,195.60008 2.79184,22.67488 -0.42265,27.31137 -13.05166,18.82533 z M 319.61065,487.39135 C 296.91323,430.15565 282.4955,387.6402 273.50375,351.42988 L 268.80308,332.5 l -6.82727,-9 c -3.75499,-4.95 -8.88568,-11.00619 -11.40153,-13.45821 L 246,305.58358 l 0,6.83257 c 0,39.30051 54.26745,174.88176 82.07079,205.04482 2.3219,2.51897 4.39223,4.40934 4.60074,4.20084 0.2085,-0.20851 -5.66889,-15.63021 -13.06088,-34.27046 z m 13.41966,-9.27264 C 329.897,465.84674 321.4249,440.16877 315.33954,424.5 c -7.55959,-19.46467 -17.63799,-42.10465 -18.11125,-40.68486 -0.21695,0.65083 1.50651,6.92117 3.8299,13.93409 9.58802,28.94049 33.07767,91.34319 33.69092,89.50344 0.19101,-0.57303 -0.58245,-4.68332 -1.7188,-9.13396 z M 216.99829,406.75 c -9.5e-4,-6.7375 -0.88017,-25.975 -1.95384,-42.75 -1.07367,-16.775 -2.43477,-41.04183 -3.02466,-53.92629 -2.07362,-45.29197 -5.70668,-59.65382 -25.44358,-100.58099 C 162.63716,159.85183 131.87387,117.77823 104.5,97.240747 95.199705,90.263117 81.10838,83.340913 72.487004,81.514723 63.876284,79.69079 55.594403,79.570723 54.22715,81.25 c -0.559757,0.6875 -1.734217,4.85 -2.609912,9.25 -8.89333,44.68524 -1.284069,88.09797 24.714083,141 21.882131,44.52659 55.064599,92.84852 97.374189,141.80105 C 187.85387,389.67081 215.09571,419 216.15208,419 c 0.46636,0 0.84715,-5.5125 0.84621,-12.25 z m 409.91069,-93.62262 c -3.09996,-2.5102 -2.89211,-6.69458 0.80557,-16.21729 C 646.43541,248.69788 746.06457,154.29739 854,82.50038 c 33.66494,-22.393408 61.85074,-38.297619 82.19265,-46.378289 9.97795,-3.963663 24.36821,-6.731434 26.36823,-5.071568 1.50803,1.251553 1.97271,8.563677 0.67381,10.602916 -0.40408,0.634392 -4.5836,2.067413 -9.28782,3.184492 -20.97726,4.981323 -45.45592,17.57364 -82.94345,42.66779 -74.5308,49.890919 -157.68498,118.680039 -196.92463,162.905469 -19.58061,22.06854 -30.17405,38.10723 -35.27094,53.40095 -3.74757,11.24497 -6.68034,13.54095 -11.89887,9.31524 z"
       id="path3007"
       inkscape:connector-curvature="0" />
  </g>
</svg>
