<?xml version="1.0" encoding="UTF-8" standalone="no"?>
<!-- Created with Inkscape (http://www.inkscape.org/) -->

<svg
   xmlns:dc="http://purl.org/dc/elements/1.1/"
   xmlns:cc="http://creativecommons.org/ns#"
   xmlns:rdf="http://www.w3.org/1999/02/22-rdf-syntax-ns#"
   xmlns:svg="http://www.w3.org/2000/svg"
   xmlns="http://www.w3.org/2000/svg"
   xmlns:sodipodi="http://sodipodi.sourceforge.net/DTD/sodipodi-0.dtd"
   xmlns:inkscape="http://www.inkscape.org/namespaces/inkscape"
   id="svg2816"
   version="1.1"
   inkscape:version="0.47 r22583"
   width="508"
   height="257"
   sodipodi:docname="Signature Louis de Broglie.png">
  <metadata
     id="metadata2822">
    <rdf:RDF>
      <cc:Work
         rdf:about="">
        <dc:format>image/svg+xml</dc:format>
        <dc:type
           rdf:resource="http://purl.org/dc/dcmitype/StillImage" />
        <dc:title></dc:title>
      </cc:Work>
    </rdf:RDF>
  </metadata>
  <defs
     id="defs2820">
    <inkscape:perspective
       sodipodi:type="inkscape:persp3d"
       inkscape:vp_x="0 : 0.5 : 1"
       inkscape:vp_y="0 : 1000 : 0"
       inkscape:vp_z="1 : 0.5 : 1"
       inkscape:persp3d-origin="0.5 : 0.33333333 : 1"
       id="perspective2824" />
  </defs>
  <sodipodi:namedview
     pagecolor="#ffffff"
     bordercolor="#666666"
     borderopacity="1"
     objecttolerance="10"
     gridtolerance="10"
     guidetolerance="10"
     inkscape:pageopacity="0"
     inkscape:pageshadow="2"
     inkscape:window-width="1366"
     inkscape:window-height="706"
     id="namedview2818"
     showgrid="false"
     inkscape:zoom="0.91828794"
     inkscape:cx="254"
     inkscape:cy="128.5"
     inkscape:window-x="0"
     inkscape:window-y="0"
     inkscape:window-maximized="1"
     inkscape:current-layer="svg2816" />
  <path
     style="fill:#000000"
     d="M 148.3383,226.27879 C 142.79532,223.73329 134.85393,217.3673 125.53603,208 c -10.68775,-10.74442 -13.80908,-14.1958 -18.99176,-21 -2.72304,-3.575 -5.23074,-6.725 -5.57268,-7 -2.744001,-2.20685 -9.1277,-13.81376 -10.490974,-19.07481 -1.682044,-6.49122 -1.363424,-15.91917 0.618886,-18.31284 0.506657,-0.61179 3.089649,-4.48735 5.739983,-8.61235 2.650334,-4.125 8.554275,-11.98604 13.119875,-17.46898 4.5656,-5.48294 10.05368,-12.34137 12.19573,-15.24095 2.14205,-2.899593 5.12095,-6.591635 6.61977,-8.204542 C 130.27369,91.47262 133.075,87.981051 135,85.326484 136.925,82.671918 138.97925,80.05 139.565,79.5 140.46143,78.658292 145.57525,72.056039 154.33341,60.43311 156.131,58.047528 156.12612,58 154.08341,58 152.93753,58 152,58.577977 152,59.284392 c 0,1.166198 -5.51921,5.149314 -7.2,5.196116 -0.385,0.01072 -1.2625,0.581992 -1.95,1.269492 -0.6875,0.6875 -2.01186,1.25 -2.94301,1.25 -0.93116,0 -1.96995,0.721689 -2.30843,1.603754 -0.33848,0.882065 -1.23179,1.36723 -1.98513,1.078145 -0.75335,-0.289085 -1.89183,-0.0035 -2.52997,0.63464 -0.63814,0.638137 -1.70547,1.19286 -2.37185,1.232717 -0.66639,0.03986 -3.01161,0.925166 -5.21161,1.967351 -2.6459,1.253417 -6.26343,1.907474 -10.68613,1.932073 -7.79532,0.04336 -10.96712,-1.73139 -14.18865,-7.93912 -4.692207,-9.041672 -0.16727,-33.968847 7.08069,-39.006459 2.60438,-1.810141 5.91872,-0.219804 6.59772,3.165816 0.46263,2.306798 -0.047,3.403843 -2.75203,5.923923 -2.62919,2.449439 -3.658,4.57979 -4.94554,10.240646 -1.76254,7.749326 -1.34693,16.432834 0.93595,19.554858 1.58415,2.166454 8.55667,4.737237 9.95799,3.671534 0.55,-0.418275 3.925,-1.35257 7.5,-2.076211 3.575,-0.723642 6.85986,-1.916002 7.29969,-2.64969 C 132.73952,65.60029 133.71555,65 134.46865,65 c 1.73727,0 7.30686,-2.991115 9.58614,-5.148182 0.95787,-0.9065 3.07438,-1.940915 4.70337,-2.2987 C 151.6446,56.919148 158,51.643448 158,49.881343 158,49.396604 158.64723,49 159.43828,49 c 0.79106,0 2.92856,-1.366541 4.75,-3.036757 6.01937,-5.519601 11.45164,-5.035182 8.45782,0.754221 -0.83825,1.620998 -3.01404,4.778702 -4.83509,7.01712 -8.45032,10.38703 -13.44544,16.82916 -14.95372,19.285574 -0.9035,1.471441 -5.516,7.490295 -10.25,13.375231 C 137.87328,92.280325 134,97.418685 134,97.813965 c 0,0.395281 -2.27376,3.186345 -5.05279,6.202365 -2.77903,3.01602 -6.04153,6.75512 -7.25,8.30912 -1.20847,1.554 -3.99121,5.154 -6.18387,8 -2.19267,2.846 -4.55517,5.76919 -5.25,6.49598 -0.69484,0.72678 -1.26334,1.63138 -1.26334,2.01022 0,0.37883 -1.02642,1.80919 -2.28094,3.17857 C 103.24229,135.80532 98,144.79139 98,146.95601 c 0,1.05927 -0.45,2.20407 -1,2.54399 -3.259393,2.01442 0.897471,16.99091 6.30842,22.72818 1.78404,1.89165 4.08957,4.75166 5.12339,6.35559 4.85781,7.53668 27.59634,31.56012 35.41501,37.41623 4.03242,3.02025 10.4163,6.54747 14.30146,7.90185 3.08316,1.07479 3.57081,2.25834 1.60172,3.88742 -1.85392,1.53379 -5.96857,0.98917 -11.4117,-1.51048 z m 181.32837,-39.94546 c -1.21252,-1.21251 -0.69425,-9.08181 1.31933,-20.03257 3.67786,-20.00182 5.91108,-32.77584 6.46069,-36.95503 0.54302,-4.12907 0.53124,-4.14727 -1.94238,-3 -1.36879,0.63485 -2.49222,1.47138 -2.49651,1.85896 -0.004,0.38757 -1.6953,0.98937 -3.7578,1.33732 -6.4517,1.08841 -7.0933,1.46807 -7.78232,4.60514 -0.36922,1.68107 -1.53312,3.91829 -2.58643,4.9716 -1.77706,1.77706 -2.13012,1.80391 -4.89818,0.3725 C 312.34238,138.64281 311,137.2852 311,136.47432 c 0,-1.95939 -0.98922,-1.82939 -4,0.52568 -2.65764,2.07884 -6.58088,2.55116 -8.91555,1.07335 -1.64688,-1.04244 -2.08149,-10.44406 -0.62746,-13.57335 0.67817,-1.45951 0.0664,-1.19014 -2.26384,0.99675 -1.75623,1.64822 -3.19315,3.56072 -3.19315,4.25 0,0.68929 -0.45,1.25325 -1,1.25325 -0.55,0 -1,0.6199 -1,1.37756 0,0.75765 -0.675,1.93775 -1.5,2.62244 -0.825,0.68469 -1.5,2.28927 -1.5,3.56574 0,1.27647 -0.99795,3.01985 -2.21767,3.87417 -3.72217,2.60711 -4.60956,0.36081 -5.30938,-13.43991 -0.52293,-10.31235 -0.2924,-14.11886 1.31719,-21.75 1.07308,-5.0875 1.80663,-9.25 1.6301,-9.25 -0.17652,0 -1.35315,2.25 -2.61474,5 -1.26159,2.75 -2.63393,5 -3.04965,5 -0.41572,0 -0.75882,0.7875 -0.76244,1.75 -0.004,0.9625 -0.90066,3.1 -1.99341,4.75 -2.56458,3.87239 -2.50977,4.5 0.39301,4.5 5.9104,0 3.19523,6.18797 -7.7759,17.72153 -5.74847,6.04316 -8.54155,8.28956 -10.04049,8.0753 -3.03885,-0.43437 -3.18121,-4.31439 -0.29726,-8.10181 1.33808,-1.75726 2.7782,-4.2871 3.20027,-5.62187 0.42208,-1.33477 1.80294,-3.54363 3.06859,-4.90858 1.26565,-1.36495 3.08148,-4.54787 4.03518,-7.07315 0.95369,-2.52528 2.78757,-6.15838 4.07529,-8.07355 C 271.94641,109.10269 273,107.004 273,106.3541 c 0,-1.16644 2.91518,-7.432664 9.5836,-20.600114 1.87902,-3.710308 3.4164,-7.392483 3.4164,-8.182612 0,-1.666937 3.45728,-3.024826 5.10642,-2.005606 1.30148,0.804365 0.8955,4.701852 -1.9202,18.434232 -1.07134,5.225 -1.99656,10.175 -2.05605,11 -0.0595,0.825 -0.53025,3.975 -1.04616,7 -1.09941,6.4464 -1.36435,17.38633 -0.44335,18.30732 0.35236,0.35236 1.98124,-1.48514 3.61973,-4.08333 1.63849,-2.59819 3.3752,-4.87399 3.85934,-5.05732 0.48415,-0.18334 0.88027,-0.88621 0.88027,-1.56194 0,-1.45334 4.60213,-5.02629 7.76857,-6.03128 3.4807,-1.10473 4.57759,2.99996 2.71383,10.15545 -2.73802,10.51196 -1.01192,12.4573 3.5176,3.96441 1.375,-2.57814 3.0625,-4.68882 3.75,-4.69042 0.6875,-0.002 1.25,-0.62279 1.25,-1.38045 0,-0.75765 0.61796,-1.89041 1.37325,-2.51725 1.60343,-1.33073 4.62675,-0.45067 4.62675,1.34681 0,1.85449 3.37755,4.548 5.70301,4.548 3.26877,0 9.87793,-2.64886 12.67304,-5.07918 2.62475,-2.28219 5.25697,-8.28798 4.74638,-10.82956 -0.15566,-0.77481 0.50668,-3.15997 1.47185,-5.30034 1.53346,-3.4006 2.12857,-3.853703 4.71681,-3.59126 4.42114,0.4483 5.71596,3.25998 4.05269,8.80034 -0.74302,2.475 -2.47883,5.80749 -3.85736,7.40554 -1.37853,1.59805 -2.50704,3.17305 -2.50779,3.5 -0.003,1.21064 -2.99392,16.82187 -4.52073,23.59446 -2.38557,10.5818 -2.54667,13.72923 -0.76924,15.02891 1.38918,1.0158 1.37176,1.49935 -0.17112,4.75073 -0.94474,1.9909 -1.4752,4.0122 -1.1788,4.49179 0.29639,0.47958 -0.0864,2.07721 -0.85062,3.55027 -0.76423,1.47307 -1.22747,2.6783 -1.02942,2.6783 0.46393,0 -1.26559,6.68466 -2.65199,10.25 -0.99572,2.56065 -3.62227,3.6211 -5.16004,2.08333 z m 71.81709,-0.35961 c -0.86191,-1.39459 -0.74248,-19.804 0.22427,-34.57146 l 0.79197,-12.09774 -3.37168,-0.12638 c -5.02196,-0.18824 -12.41837,-6.63862 -14.42495,-12.57993 -0.16751,-0.49598 -2.62769,1.42135 -5.46707,4.26073 -5.2657,5.2657 -8.58686,7.14106 -12.64641,7.14106 -3.33633,0 -5.43914,-2.91579 -6.72679,-9.32746 -1.26901,-6.31886 -3.09612,-7.33805 -4.4834,-2.50089 -0.50029,1.74441 -1.3775,3.32762 -1.94936,3.51824 -1.62837,0.54279 -0.12702,-9.97767 1.85574,-13.00375 0.94266,-1.43867 1.71392,-3.12464 1.71392,-3.74659 0,-0.62194 0.93064,-2.43778 2.06809,-4.03518 1.13746,-1.5974 1.8009,-2.90437 1.47432,-2.90437 -0.32657,0 0.1269,-1.39362 1.00771,-3.09693 0.88082,-1.70331 1.76628,-4.897303 1.9677,-7.097762 0.70288,-7.678908 1.52378,-9.777644 4.07483,-10.417917 5.44828,-1.367432 6.99667,4.557208 3.29626,12.612609 -2.8308,6.16237 -5.87038,25.05645 -4.90472,30.48779 0.83783,4.71229 3.54494,4.35604 8.32593,-1.09567 2.30443,-2.62773 5.20238,-5.83639 6.43988,-7.13036 1.2375,-1.29397 2.25,-3.00721 2.25,-3.80721 0,-0.85507 0.95688,-1.45455 2.32174,-1.45455 1.80656,0 2.8051,1.06949 4.5,4.81975 1.19804,2.65087 2.17826,5.31634 2.17826,5.92328 0,0.60694 1.165,2.48805 2.58889,4.18024 1.95918,2.32835 3.41861,3.07673 6,3.07673 2.92368,0 3.41111,-0.33927 3.41111,-2.37427 0,-1.30585 0.70918,-4.34335 1.57595,-6.75 0.86678,-2.40665 1.76152,-5.27573 1.98832,-6.37573 0.87099,-4.22432 6.6017,-5.96691 9.04368,-2.75 0.73065,0.9625 1.34275,4.00601 1.36025,6.76335 0.0259,4.0805 -0.60403,5.9575 -3.3853,10.08744 -2.92521,4.34369 -3.50886,6.2131 -4.0546,12.98666 -0.35062,4.3519 -0.84735,10.38755 -1.10383,13.41255 -0.25649,3.025 -0.7108,9.55 -1.00958,14.5 -0.29878,4.95 -1.01895,10.2375 -1.60038,11.75 -1.05824,2.75284 -4.08903,3.73286 -5.33075,1.72372 z M 100.02562,160.54787 c -1.079471,-2.01701 -1.081921,-3.30352 -0.0138,-7.25 0.71419,-2.63883 1.72905,-5.35464 2.25524,-6.03514 0.52618,-0.68049 0.69548,-1.91799 0.37621,-2.75 -1.79341,-4.67356 2.535,-5.3594 7.24392,-1.14779 1.44771,1.29482 2.54415,1.69894 2.78606,1.02687 0.21939,-0.6095 1.0313,-1.9595 1.80425,-3 2.16944,-2.92035 4.95714,-0.69341 4.93883,3.94535 -0.008,2.01456 0.34512,3.66284 0.78461,3.66284 1.3731,0 4.79907,-3.92635 4.79907,-5.5 0,-2.28227 4.7269,-1.8788 6.0068,0.51271 0.85345,1.59468 1.46935,1.80283 2.96535,1.0022 1.0385,-0.55579 2.0321,-2.02401 2.20801,-3.26272 0.48038,-3.38263 4.42288,-3.50668 7.82603,-0.24626 2.4499,2.34716 3.07728,2.52547 5.14208,1.46151 1.29345,-0.6665 3.547,-2.32556 5.00788,-3.6868 1.83665,-1.71139 3.28637,-2.27496 4.69885,-1.82666 2.33694,0.74172 3.03118,2.48984 4.13011,10.39987 0.80124,5.76728 0.0473,8.14615 -2.58187,8.14615 -1.90225,0 -4.67708,-5.78717 -4.13485,-8.62363 l 0.45247,-2.36697 -3.22846,1.9953 c -3.51574,2.17285 -10.4181,2.6696 -12.20903,0.87867 -0.82217,-0.82217 -1.7125,-0.56148 -3.37628,0.98857 -2.9644,2.76175 -5.40127,3.46913 -7.70451,2.23648 -1.49471,-0.79995 -2.53633,-0.39649 -5.15775,1.99781 -2.60897,2.38293 -4.03164,2.93781 -6.91481,2.69698 -3.15355,-0.26341 -3.77662,-0.75679 -4.74692,-3.75884 -1.17427,-3.63312 -3.3831,-5.33989 -3.3831,-2.61413 0,0.87829 0.52719,2.44107 1.17154,3.47283 0.98499,1.57722 0.65313,2.5305 -2.08403,5.98644 -3.80054,4.79857 -7.06188,5.39541 -9.06189,1.65836 z M 341.01531,156.25 c 0.008,-0.4125 0.45153,-1.425 0.98469,-2.25 0.78387,-1.21296 0.9723,-1.06944 0.98469,0.75 0.008,1.2375 -0.43469,2.25 -0.98469,2.25 -0.55,0 -0.99311,-0.3375 -0.98469,-0.75 z M 341.5,151 c -0.33992,-0.55 0.33508,-1 1.5,-1 1.16492,0 1.83992,0.45 1.5,1 -0.33992,0.55 -1.01492,1 -1.5,1 -0.48508,0 -1.16008,-0.45 -1.5,-1 z m -154.71504,-6.36648 c -1.46234,-1.11091 -1.55613,-1.87977 -0.63651,-5.2182 1.50176,-5.45177 4.541,-9.41532 7.21964,-9.41532 1.22755,0 2.78314,-0.55123 3.45687,-1.22496 0.93603,-0.93603 1.66156,-0.9523 3.07598,-0.069 1.44777,0.90415 2.31373,0.83188 3.97504,-0.33174 1.16821,-0.81825 2.12402,-1.88965 2.12402,-2.38089 0,-1.56913 6.0804,-9.96609 7.93559,-10.95896 1.22259,-0.65431 2.34117,-0.55258 3.53674,0.32164 1.65674,1.21144 1.63172,1.74796 -0.47621,10.21126 -1.22365,4.91294 -2.63919,9.72013 -3.14565,10.68263 -1.53803,2.92295 1.36487,2.00852 4.10262,-1.29235 1.3492,-1.62671 2.75072,-2.95765 3.11449,-2.95765 0.36377,0 2.18488,1.34613 4.04691,2.99141 2.21794,1.95975 5.36854,3.40825 9.13551,4.20008 6.28325,1.32075 7.12587,2.33491 3.1849,3.83326 -3.659,1.39115 -7.81395,1.20751 -12.17687,-0.53818 -3.51616,-1.40689 -4.06047,-1.37169 -7.73168,0.5 -7.72034,3.93605 -12.02812,2.07217 -11.3617,-4.91594 0.37005,-3.88031 0.3345,-3.92989 -1.62682,-2.26881 -1.10283,0.934 -2.46249,2.23802 -3.02148,2.89783 -2.53912,2.99706 -8.99017,7.29736 -10.90385,7.26855 -1.16188,-0.0175 -2.88427,-0.6181 -3.82754,-1.33468 z m -25.17355,-13.06841 c -5.65043,-5.47269 -6.79803,-8.33541 -4.2044,-10.48793 1.12234,-0.93146 2.03185,-0.50101 4.49537,2.12755 1.6986,1.8124 3.09045,3.85777 3.09299,4.54527 0.003,0.6875 0.35761,1.25 0.78902,1.25 1.25849,0 4.39157,5.90628 3.71434,7.00205 -1.07123,1.73329 -2.13392,1.13549 -7.88732,-4.43694 z M 408.08962,74.75 c -0.54408,-0.6875 -2.51039,-3.05 -4.36959,-5.25 -4.03707,-4.777099 -3.88823,-9 0.31722,-9 2.01178,0 3.02523,1.156253 5.69718,6.5 3.77713,7.554012 3.98679,9 1.305,9 -1.07832,0 -2.40573,-0.5625 -2.94981,-1.25 z"
     id="path2834" />
</svg>
