<?xml version="1.0" encoding="UTF-8" standalone="no"?>
<!-- Created with Inkscape (http://www.inkscape.org/) -->

<svg
   xmlns:dc="http://purl.org/dc/elements/1.1/"
   xmlns:cc="http://creativecommons.org/ns#"
   xmlns:rdf="http://www.w3.org/1999/02/22-rdf-syntax-ns#"
   xmlns:svg="http://www.w3.org/2000/svg"
   xmlns="http://www.w3.org/2000/svg"
   xmlns:sodipodi="http://sodipodi.sourceforge.net/DTD/sodipodi-0.dtd"
   xmlns:inkscape="http://www.inkscape.org/namespaces/inkscape"
   id="svg3835"
   version="1.1"
   inkscape:version="0.91 r13725"
   width="750"
   height="180"
   viewBox="0 0 750 180"
   sodipodi:docname="Signature_of_Petar_Poparsov_(vectorized).svg">
  <metadata
     id="metadata3841">
    <rdf:RDF>
      <cc:Work
         rdf:about="">
        <dc:format>image/svg+xml</dc:format>
        <dc:type
           rdf:resource="http://purl.org/dc/dcmitype/StillImage" />
        <dc:title></dc:title>
      </cc:Work>
    </rdf:RDF>
  </metadata>
  <defs
     id="defs3839" />
  <sodipodi:namedview
     pagecolor="#ffffff"
     bordercolor="#666666"
     borderopacity="1"
     objecttolerance="10"
     gridtolerance="10"
     guidetolerance="10"
     inkscape:pageopacity="0"
     inkscape:pageshadow="2"
     inkscape:window-width="1280"
     inkscape:window-height="960"
     id="namedview3837"
     showgrid="false"
     inkscape:zoom="0.48666667"
     inkscape:cx="375"
     inkscape:cy="90"
     inkscape:window-x="0"
     inkscape:window-y="27"
     inkscape:window-maximized="1"
     inkscape:current-layer="svg3835" />
  <path
     style="fill:#000000"
     d="m 272.76542,170.03242 c -1.04482,-2.74809 -0.49711,-5.28393 1.89689,-8.78242 2.15173,-3.14444 4.71269,-8.47162 4.71269,-9.8031 0,-0.59263 1.21394,-2.74267 2.69765,-4.77784 1.4837,-2.03517 3.92749,-6.02062 5.43064,-8.85656 1.50315,-2.83594 3.87515,-6.83621 5.27111,-8.8895 1.39595,-2.05329 2.5381,-4.22299 2.5381,-4.82158 0,-0.59857 0.63281,-1.33115 1.40625,-1.62795 0.77344,-0.29679 1.40625,-1.10675 1.40625,-1.7999 0,-0.69315 1.26562,-2.47282 2.8125,-3.95482 1.54687,-1.482 2.8125,-3.09921 2.8125,-3.5938 0,-0.49459 1.79297,-2.91462 3.98437,-5.37782 6.07568,-6.82927 7.77234,-9.389749 9.37308,-14.14519 0.80846,-2.401746 2.34178,-5.238672 3.40738,-6.304279 1.06561,-1.065608 2.2158,-3.108355 2.55599,-4.53944 C 324.34895,77.381339 330,74.355975 330,79.048593 c 0,4.317977 -3.06961,12.379444 -5.76262,15.133923 -3.43183,3.51015 -3.20543,6.267794 0.60637,7.386234 1.54687,0.45387 4.5,1.55309 6.5625,2.4427 3.58295,1.54543 4.2622,1.53361 15.24769,-0.26532 8.51809,-1.39489 12.4053,-1.65127 15,-0.98935 3.49953,0.89275 3.50418,0.88997 5.84606,-3.500514 2.79301,-5.236229 11.36766,-12.068766 15.14597,-12.068766 4.37269,0 4.79741,6.710916 0.5092,8.045784 -2.81681,0.876844 -8.916,5.253086 -9.55444,6.855426 -0.28651,0.7191 0.18743,2.09019 1.05322,3.04687 2.44859,2.70566 9.94553,2.37869 13.85647,-0.60433 2.21817,-1.69188 4.23796,-2.34375 7.26199,-2.34375 2.54789,0 6.09265,-0.91826 9.04753,-2.34375 2.6721,-1.289063 5.17684,-2.349094 5.56609,-2.355628 3.81317,-0.06399 21.80147,-12.704807 21.80147,-15.32043 0,-1.643044 5.29027,-7.167692 6.86361,-7.167692 0.73937,0 1.86949,-0.632813 2.51139,-1.40625 2.01472,-2.427579 4.60121,-1.650818 6.28909,1.888701 0.86419,1.812222 2.86127,4.12282 4.43795,5.134661 1.57669,1.011841 3.57752,2.357287 4.4463,2.989881 1.19205,0.867982 2.1121,0.89224 3.75,0.09887 5.14445,-2.491865 7.84861,-2.882239 10.46595,-1.510874 2.30894,1.209774 2.86958,1.162382 5.57332,-0.471123 1.65337,-0.998911 4.01062,-1.649015 5.23834,-1.444673 1.2277,0.20434 2.70426,-0.01518 3.28125,-0.487825 1.40504,-1.150969 5.47359,-1.616069 6.81693,-0.779283 1.22191,0.761142 7.42517,-5.196064 13.05733,-12.539398 2.02113,-2.635208 5.46776,-6.795385 7.65916,-9.244836 2.19141,-2.449452 3.98438,-5.14808 3.98438,-5.99695 0,-0.848871 0.52734,-1.546651 1.17187,-1.550623 0.64454,-0.0039 2.1337,-1.691471 3.30925,-3.75 1.17555,-2.058528 2.48133,-3.742779 2.90173,-3.742779 1.10163,0 18.89963,-17.940554 21.67965,-21.853288 1.28906,-1.81429 4.20587,-4.284041 6.4818,-5.488336 2.27593,-1.204294 5.15947,-2.757188 6.40787,-3.450877 2.91742,-1.6210993 7.86014,-0.723058 10.18475,1.850464 1.3767,1.524115 1.72292,3.183142 1.56022,7.476095 -0.23371,6.166225 -2.21834,10.158428 -7.52527,15.137506 -1.16015,1.088486 -2.10937,2.453041 -2.10937,3.032344 0,0.579303 -1.44876,2.457468 -3.21946,4.1737 -3.78157,3.66524 -6.15554,3.3663 -6.15554,-0.775132 0,-2.070372 0.946,-3.578616 3.75,-5.978731 2.0625,-1.765423 3.75,-3.617493 3.75,-4.115713 0,-0.498218 0.78593,-2.567123 1.74653,-4.597567 0.96059,-2.030443 2.01327,-4.81185 2.33929,-6.180905 0.52612,-2.209335 0.35611,-2.437691 -1.51216,-2.031125 -4.05421,0.882267 -6.8454,2.633548 -13.35491,8.379294 C 537.025,37.424944 533.07383,41.406193 527.14252,48.75 c -3.12338,3.867187 -6.78163,8.054007 -8.12944,9.304044 -1.34782,1.250038 -2.45058,2.780413 -2.45058,3.400833 0,0.620422 -0.62817,1.649372 -1.39593,2.286556 -2.08808,1.732956 -1.01683,2.507453 3.24789,2.348175 2.86319,-0.106933 4.57785,-0.863326 6.84359,-3.018943 3.75857,-3.575895 12.0853,-8.695665 14.14251,-8.695665 3.01263,0 1.46894,3.562131 -3.92526,9.057733 -5.10209,5.197997 -8.6003,10.451399 -8.6003,12.91542 0,0.583045 1.31903,1.839256 2.93119,2.79158 2.51648,1.48652 4.78279,1.708054 16.01839,1.565809 7.19796,-0.09112 13.78908,-0.501875 14.64693,-0.91277 0.85786,-0.410895 3.55901,-1.713532 6.00258,-2.894747 3.27356,-1.582439 5.43248,-2.014926 8.20313,-1.643303 2.06815,0.277397 3.76028,0.183364 3.76028,-0.208963 0,-1.58303 10.65052,-8.541377 14.593,-9.534106 2.61626,-0.65878 4.61492,-1.818155 5.26236,-3.052559 C 600.45334,58.339942 613.78029,45 615.73496,45 c 1.95891,0 2.66036,5.288982 1.48253,11.178172 -0.43591,2.179586 -1.50125,3.439798 -3.98438,4.71323 -4.17268,2.139899 -7.60811,5.06782 -7.60811,6.484187 0,0.584051 -0.42188,1.061911 -0.9375,1.061911 -0.51563,0 -0.9375,0.638537 -0.9375,1.418971 0,0.780434 -0.37856,2.151528 -0.84126,3.046875 -1.59374,3.084002 -3.58876,9.143953 -5.12606,15.570561 -1.78852,7.476837 -6.12214,13.996173 -12.58297,18.929393 -2.34734,1.79232 -4.81182,4.03533 -5.47661,4.98444 -1.8021,2.57287 -13.44518,9.26969 -17.34234,9.97489 -2.17886,0.39429 -4.10004,1.56153 -5.34774,3.24913 l -1.94724,2.6338 2.71314,1.12381 c 2.7022,1.11929 11.82327,1.07705 13.60733,-0.063 0.51562,-0.32949 7.6875,-0.625 15.9375,-0.65667 8.25,-0.0317 23.64844,-0.74042 34.21875,-1.57499 11.00369,-0.86879 28.94187,-1.49167 41.96555,-1.45722 12.92283,0.0342 23.47563,-0.32987 24.43437,-0.84297 1.13515,-0.60751 2.43535,-0.53242 3.97195,0.22941 3.03281,1.50366 3.50445,5.97557 0.97002,9.19757 -1.71495,2.18021 -2.73563,2.44964 -11.99877,3.16738 -11.63183,0.90129 -15.87976,0.9757 -28.87437,0.50582 -5.15625,-0.18645 -17.60156,-0.0849 -27.65625,0.22562 -10.05469,0.31053 -29.67188,0.82145 -43.59375,1.13536 -22.86827,0.51564 -25.68177,0.75439 -29.13672,2.47249 -2.10332,1.04595 -4.84551,1.75746 -6.09375,1.58116 -2.06253,-0.29133 -2.33361,-0.90082 -2.97213,-6.68248 -0.81534,-7.38285 0.27189,-9.89651 5.31585,-12.29002 1.70346,-0.80835 3.62885,-2.11032 4.27864,-2.89327 0.6498,-0.78297 1.69721,-1.42356 2.3276,-1.42356 0.63039,0 1.8881,-0.81983 2.79492,-1.82186 0.90682,-1.00203 2.87694,-2.09162 4.37806,-2.42132 1.5011,-0.32969 4.57563,-2.35751 6.83228,-4.50626 2.25665,-2.14874 5.51988,-4.72955 7.25163,-5.73512 4.85233,-2.8176 11.94199,-10.788649 15.16874,-17.054529 0.83422,-1.619937 1.63503,-4.784 1.77957,-7.03125 0.25783,-4.008536 0.20955,-4.082386 -2.54969,-3.899788 -4.25007,0.281257 -10.07721,2.277938 -12.24792,4.196778 -1.06449,0.940967 -2.41951,1.710849 -3.01117,1.710849 -0.59165,0 -4.22583,1.000343 -8.07596,2.222986 -4.66619,1.481793 -7.31277,1.910445 -7.9376,1.285612 -0.62483,-0.624831 -1.73747,-0.308024 -3.337,0.950169 -2.96278,2.330525 -10.44663,3.613135 -12.267,2.102364 -0.70997,-0.589219 -2.47659,-0.950145 -3.92585,-0.802056 -2.73411,0.279379 -15.51772,-0.87381 -18.26549,-1.647702 -1.06841,-0.300915 -2.50154,0.915276 -4.49816,3.817257 -1.6116,2.342378 -3.50831,4.25887 -4.21493,4.25887 -0.70661,0 -2.16158,1.418737 -3.23325,3.152756 -3.74716,6.063024 -18.82942,9.538864 -18.82942,4.339394 0,-0.96607 -0.36736,-1.98353 -0.81635,-2.26102 -0.44898,-0.27749 -1.02362,-2.661705 -1.27696,-5.298255 -0.39736,-4.135466 -0.15653,-5.09781 1.75385,-7.008187 1.21795,-1.217954 2.21446,-2.866449 2.21446,-3.663324 0,-1.644746 -2.38238,-1.965757 -3.32075,-0.447451 -0.3404,0.550777 -1.17972,0.786208 -1.86516,0.52318 -0.68544,-0.263027 -2.64668,1.079305 -4.3583,2.982962 L 479.53125,91.40625 466.875,91.245967 c -6.96094,-0.08815 -13.71094,-0.38829 -15,-0.666968 -1.28906,-0.278677 -3.50391,-0.783075 -4.92188,-1.120883 -2.02473,-0.482363 -2.57812,-0.279745 -2.57812,0.943956 0,0.856986 -0.94922,2.537437 -2.10938,3.734337 -2.54458,2.625169 -4.32844,5.184947 -5.02103,7.204961 -0.28242,0.8237 -2.2113,2.5112 -4.28642,3.75 -2.07512,1.23881 -4.85466,3.41254 -6.17677,4.83051 -1.32211,1.41796 -2.83836,2.57812 -3.36944,2.57812 -1.6263,0 -6.22446,-4.93658 -6.22446,-6.68257 0,-1.90479 -1.80377,-3.32069 -2.68294,-2.10602 -0.32907,0.45464 -1.85988,0.97405 -3.40178,1.15423 -1.54191,0.18018 -3.96748,1.15645 -5.39016,2.16948 -1.70347,1.21299 -5.08095,2.09334 -9.89174,2.57832 -4.01778,0.40504 -8.3422,1.29796 -9.60983,1.98428 -2.96126,1.60329 -14.51713,1.50029 -16.50208,-0.14707 -4.05283,-3.36356 -7.59362,-3.54563 -9.8177,-0.50487 -0.31762,0.43424 -1.46725,0.23387 -2.55472,-0.44526 -1.68067,-1.0496 -2.64867,-0.96707 -6.45377,0.55024 -2.51038,1.00102 -7.32833,1.89071 -10.9695,2.02562 -3.57112,0.13233 -7.48963,0.49075 -8.70778,0.79649 -2.54322,0.6383 -9.40578,-1.10274 -11.59182,-2.94086 -2.5898,-2.17762 -4.42643,-1.37074 -8.3704,3.67737 -4.33438,5.54779 -12.18078,17.38453 -12.18078,18.37539 0,0.35779 -1.20844,2.11774 -2.68541,3.91101 -1.47698,1.79325 -4.18978,6.30589 -6.02847,10.02809 -1.83868,3.72218 -4.83873,8.72645 -6.66679,11.12058 -1.82807,2.39414 -3.60047,5.88778 -3.93869,7.76365 -0.33822,1.87586 -0.99612,4.14893 -1.46202,5.05127 -1.29181,2.50197 -4.42887,2.03163 -5.5157,-0.82695 z M 434.50717,93.796556 C 436.25585,90.414997 436.2758,90 434.68967,90 c -1.58561,0 -3.86755,4.174228 -3.02617,5.535609 0.93467,1.512329 1.26761,1.308732 2.84367,-1.739053 z m 74.10482,-2.345264 c 1.67868,-1.779914 3.99743,-5.188911 5.15278,-7.575549 1.15535,-2.386639 2.67936,-4.561419 3.38669,-4.832845 1.60825,-0.617146 1.70602,-4.053584 0.11416,-4.013083 -0.64453,0.0164 -1.99079,0.649212 -2.99168,1.40625 -1.00089,0.75704 -2.50918,1.376435 -3.35175,1.376435 -1.88964,0 -11.86974,9.757667 -12.71996,12.436474 -0.42113,1.326841 -0.075,2.350059 1.08081,3.195217 2.91803,2.133709 6.07263,1.459815 9.32895,-1.992899 z M 55.800218,142.53069 c -0.308243,-0.49875 -0.266026,-3.12621 0.09381,-5.83881 0.550905,-4.15293 1.352433,-5.67571 5.074119,-9.64007 2.430925,-2.58943 4.682854,-5.56371 5.004287,-6.6095 0.321432,-1.04579 2.697967,-4.11737 5.281189,-6.82572 2.583222,-2.70835 5.799507,-6.67113 7.147301,-8.80617 1.347794,-2.13504 3.238505,-4.72768 4.201581,-5.761426 0.963076,-1.033744 2.01671,-2.754375 2.341408,-3.823641 C 85.810789,92.37067 88.170583,90 90.145301,90 c 2.451245,0 2.202488,3.038315 -0.614051,7.5 -1.289063,2.042006 -2.34375,3.98805 -2.34375,4.32453 0,0.33649 -0.758295,1.29409 -1.685101,2.128 -2.621741,2.35899 -5.814899,7.27067 -5.814899,8.94443 0,1.14503 0.56877,1.37101 2.335014,0.92771 4.699425,-1.17948 3.583664,4.60871 -1.788668,9.27902 -5.265571,4.57749 -6.256407,5.33165 -8.698743,6.62089 -1.445869,0.76324 -5.10431,4.16087 -8.129868,7.55031 -5.536385,6.20224 -6.576033,6.92073 -7.605017,5.2558 z m 36.610497,-2.44141 c -0.810268,-0.81026 -1.473215,-2.82013 -1.473215,-4.46636 0,-3.30562 2.967375,-12.14405 4.831172,-14.38979 1.241662,-1.49611 3.056606,-4.45604 4.205212,-6.85813 0.369836,-0.77344 2.917636,-5.05635 5.661766,-9.51758 5.4591,-8.875045 5.86841,-10.16992 3.21465,-10.16992 -5.20322,0 -1.22735,-7.227808 6.43867,-11.705009 2.77791,-1.622387 4.76685,-3.594421 5.44963,-5.403318 1.02741,-2.721896 1.17032,-2.784416 3.21517,-1.406553 1.17699,0.793078 2.05773,2.224772 1.95721,3.181544 -0.25708,2.44692 -1.27476,7.102881 -1.9171,8.770836 -0.29785,0.773438 -0.48806,1.682194 -0.42269,2.019458 0.0653,0.337264 -0.50046,1.127202 -1.25741,1.755417 -0.75696,0.628215 -1.37628,1.899794 -1.37628,2.825744 0,2.647275 -1.02496,4.649381 -2.38021,4.649381 -1.67932,0 -5.11191,4.74969 -10.03076,13.87959 -1.41197,2.62077 -3.24025,5.14169 -4.06284,5.60203 -1.6578,0.92775 -5.923909,12.45047 -5.986384,16.16915 -0.04181,2.48845 -2.380331,6.53673 -3.776006,6.53673 -0.44955,0 -1.480318,-0.66294 -2.290585,-1.47322 z M 199.8359,129.50061 c -1.49517,-4.99041 -1.37879,-6.77246 0.82735,-12.66888 2.34622,-6.27085 5.13367,-9.95673 7.52979,-9.95673 2.56191,0 2.34397,3.55674 -0.52549,8.57618 -2.34229,4.09725 -3.09932,8.29882 -1.49528,8.29882 1.33633,0 9.82495,-3.77783 10.37141,-4.61577 0.85005,-1.30342 6.41101,-3.82173 8.43918,-3.82173 1.07305,0 2.20348,0.65799 2.51209,1.46222 0.67898,1.76936 -4.01657,6.97528 -6.29144,6.97528 -0.86388,0 -3.16327,1.26563 -5.10976,2.8125 -1.97887,1.5726 -4.66641,2.8125 -6.09623,2.8125 -1.40644,0 -3.62982,0.84375 -4.94084,1.875 -3.31898,2.61071 -3.98092,2.38891 -5.22078,-1.74939 z m -63.81444,1.45835 c -0.5618,-0.5618 -1.01733,-1.8863 -1.0123,-2.94334 0.0118,-2.47358 4.32224,-11.76562 5.45792,-11.76562 2.27102,0 3.01506,2.75305 2.29847,8.50459 -0.66295,5.32092 -0.97665,5.95832 -3.22846,6.55971 -1.45627,0.38893 -2.91922,0.24107 -3.51563,-0.35534 z m 117.68584,-8.63559 c -1.06466,-1.06465 -1.29797,-2.67027 -0.91954,-6.32813 C 253.39741,110.10256 254.85393,105 255.92634,105 c 0.42952,0 1.78653,-2.00391 3.01558,-4.45312 3.75466,-7.482242 5.38796,-9.387737 9.43443,-11.006816 3.7801,-1.512496 5.24195,-2.963177 8.17812,-8.115622 5.33057,-9.354206 7.86937,-12.975277 9.44862,-13.476508 0.99517,-0.315857 1.80941,-0.999327 1.80941,-1.518823 0,-0.519496 1.89844,-3.879222 4.21875,-7.466058 2.32031,-3.586836 4.21875,-6.84432 4.21875,-7.238853 0,-0.394534 1.46576,-3.018097 3.25725,-5.830142 3.18473,-4.99896 4.64103,-10.10484 2.18025,-7.644058 -1.88733,1.887329 -4.25591,1.287659 -4.8898,-1.237987 -0.73126,-2.913558 0.17162,-4.631992 4.76871,-9.076252 6.37846,-6.166399 9.78233,-3.151334 8.62892,7.6433 -0.59985,5.61392 -2.66245,11.694657 -4.46764,13.170939 -0.31524,0.257813 -1.51642,2.402219 -2.66927,4.765348 -1.15287,2.36313 -2.99034,5.105318 -4.08328,6.09375 -1.09293,0.988434 -2.8428,3.484652 -3.88857,5.547152 -1.04577,2.0625 -3.11026,5.135773 -4.58774,6.829496 -1.47748,1.693723 -2.68633,3.685 -2.68633,4.425059 0,0.740059 -1.23392,2.257839 -2.74205,3.372842 -1.50812,1.115005 -3.01017,3.09559 -3.33788,4.401301 -0.59093,2.354437 -2.13354,4.649136 -7.47064,11.112921 -2.66988,3.233493 -2.70553,3.400575 -0.99269,4.653028 0.97715,0.714503 3.09192,1.299103 4.69951,1.299103 3.67187,0 6.38927,1.88904 5.61603,3.90407 -0.73403,1.91283 -7.41032,3.78706 -11.70978,3.28726 -2.56543,-0.29822 -3.74142,0.11343 -5.39063,1.88692 -1.16015,1.24759 -2.10937,2.44936 -2.10937,2.67059 0,0.22124 -1.48953,2.73075 -3.31006,5.5767 -3.44431,5.38433 -4.95276,6.1527 -7.35764,3.74783 z m -25.59016,-7.56923 c -1.13773,-2.96488 1.87594,-7.07598 8.22558,-11.22091 3.50923,-2.29077 6.74672,-4.819561 7.19441,-5.619549 0.44769,-0.799987 4.47561,-5.175239 8.95093,-9.722782 4.47532,-4.547544 8.13694,-8.714613 8.13694,-9.260155 0,-1.430895 3.76433,-2.416409 4.89834,-1.2824 1.7296,1.729591 -0.97523,6.922156 -6.04763,11.609883 -2.6732,2.470475 -5.18222,4.491773 -5.57559,4.491773 -0.39338,0 -1.25606,0.977241 -1.91705,2.171634 -1.68633,3.047128 -19.17453,19.091496 -21.46138,19.689526 -1.14323,0.29896 -2.09052,-0.0386 -2.40455,-0.85702 z M 89.0625,108.75 c 0,-1.20833 0.474759,-1.87299 1.171875,-1.64062 0.644531,0.21484 1.171875,0.95312 1.171875,1.64062 0,0.6875 -0.527344,1.42578 -1.171875,1.64063 -0.697116,0.23236 -1.171875,-0.4323 -1.171875,-1.64063 z m 200.73748,-6.35233 c -1.35284,-2.527811 0.22935,-4.410526 5.67532,-6.75332 l 4.89777,-2.106962 1.64146,2.027115 c 1.80616,2.230509 1.38458,4.747997 -0.79509,4.747997 -0.76584,0 -2.46511,0.84375 -3.77612,1.875 -2.95171,2.32181 -6.46157,2.41832 -7.64334,0.21017 z M 96.09375,102.1875 c 0.318675,-0.51562 0.76545,-0.9375 0.992831,-0.9375 0.227382,0 0.413419,0.42188 0.413419,0.9375 0,0.51563 -0.446775,0.9375 -0.992831,0.9375 -0.546057,0 -0.732094,-0.42187 -0.413419,-0.9375 z m 209.36328,-6.105469 c -1.10359,-1.103597 0.53897,-5.344397 2.59071,-6.688746 3.58037,-2.345954 5.68301,0.845945 2.93447,4.454665 -1.24565,1.635506 -4.71923,3.040022 -5.52518,2.234081 z M 93.131133,87.603111 c -0.799415,-2.083243 1.391695,-12.500259 3.495079,-16.616355 0.996207,-1.949472 1.811288,-3.991264 1.811288,-4.537317 0,-0.67832 -5.122867,-0.84589 -16.171875,-0.528984 -8.894531,0.255112 -17.329958,0.240678 -18.745395,-0.03207 -2.429807,-0.468221 -6.33273,-5.154111 -6.33273,-7.603143 0,-1.565545 3.894543,-4.847738 5.752169,-4.847738 0.906739,0 3.463908,0.953052 5.682598,2.117894 3.664439,1.923878 5.193394,2.103612 16.690233,1.961986 7.033412,-0.08664 19.04572,-1.059239 27.03809,-2.189182 7.91001,-1.118301 14.62633,-1.788777 14.92516,-1.489948 0.29883,0.29883 1.49424,-0.07974 2.65648,-0.841268 1.39361,-0.913128 5.56904,-1.540783 12.26234,-1.843286 13.03713,-0.589214 28.24244,-3.026893 49.49066,-7.934225 l 11.21649,-2.590477 2.08215,2.082149 c 2.45328,2.453273 2.09766,4.930845 -1.14502,7.977173 -2.01487,1.892872 -3.6045,2.174017 -16.16965,2.859787 -7.66431,0.418297 -15.08399,1.197345 -16.48819,1.731218 -1.40419,0.533873 -4.35533,0.970679 -6.5581,0.970679 -4.2052,0 -18.37097,2.005165 -26.34166,3.728665 -2.57813,0.557467 -7.6965,1.397086 -11.37416,1.865819 -3.67767,0.468734 -10.74408,1.604058 -15.70313,2.522942 l -9.01646,1.670699 -0.0101,3.777812 c -0.0251,9.358786 -7.010142,23.093093 -9.046218,17.787174 z M 316.40625,83.4375 c -0.31867,-0.515625 -0.13264,-0.9375 0.41342,-0.9375 0.54606,0 0.99283,0.421875 0.99283,0.9375 0,0.515625 -0.18604,0.9375 -0.41342,0.9375 -0.22738,0 -0.67416,-0.421875 -0.99283,-0.9375 z m -48.61117,-8.882513 c -0.60691,-1.581579 2.42524,-8.105202 4.61004,-9.918421 0.73969,-0.613883 1.34488,-1.626017 1.34488,-2.249189 0,-0.623173 0.96017,-1.646908 2.13371,-2.274968 1.17355,-0.62806 3.38837,-3.125114 4.92184,-5.549008 3.33993,-5.279281 4.85931,-6.867545 8.7921,-9.190704 2.5984,-1.534918 3.0952,-1.581688 3.86514,-0.363874 1.15003,1.819004 1.14115,2.803677 -0.0253,2.803677 -0.51563,0 -0.9375,0.599436 -0.9375,1.332079 0,0.732644 -3.18181,4.634988 -7.07068,8.671875 -3.88888,4.036888 -7.58215,8.394483 -8.20729,9.683546 -0.62512,1.289062 -2.01401,2.730085 -3.08642,3.202272 -1.07239,0.472188 -2.33615,1.710521 -2.80833,2.751851 -1.1045,2.43578 -2.81533,2.968987 -3.5322,1.100865 z"
     id="path3845"
     inkscape:connector-curvature="0" />
</svg>
