<?xml version="1.0" encoding="UTF-8" standalone="no"?>
<svg xmlns:rdf="http://www.w3.org/1999/02/22-rdf-syntax-ns#" xmlns="http://www.w3.org/2000/svg" height="112" width="368" viewBox="0 0 368 112" version="1.1" xmlns:cc="http://creativecommons.org/ns#" xmlns:dc="http://purl.org/dc/elements/1.1/"><title>Hellwag Signatur</title><metadata><rdf:RDF><cc:Work rdf:about=""><dc:format>image/svg+xml</dc:format><dc:type rdf:resource="http://purl.org/dc/dcmitype/StillImage"/><dc:title>Hellwag Signatur</dc:title><cc:license rdf:resource=""/><dc:creator><cc:Agent><dc:title>MagentaGree</dc:title></cc:Agent></dc:creator></cc:Work></rdf:RDF></metadata><g transform="translate(-68.386556,-54.643902)"><path fill="#2a2a2a" d="m219.969,70c-2.70585-0.507614-3.06919,6.50111-3.06919,11.3125,0,2.40525,0.68095,6.58134,1.5,9.28125,0.81904,2.69991,1.482,6.48125,1.5,8.40625,0.9834,3.24117,1.70178,15.6579,7.00669,14.7812,3.03569-0.60053,0.62813-15.3257-1.77569-22.7812-0.97533-3.025-2.09946-7.75-2.5-10.5-0.88151-6.05227-0.48025-10.0907-2.66181-10.5zm-132,3.4882c-1.3312,0.472-3.3941,2.1368-3.3941,2.1368-2.09018,2.15652-2.92755,3.82333-2.5,4.9375,0.551179,1.43635,1.57503,1.55306,7.03125,0.96875,2.39681-0.256677,4.82911-0.477415,6.22466-0.393699,0.697778,0.04186,1.26484,0.130632,1.69561,0.270691,0.430777,0.14006,0.398268,0.237973,0.480848,0.414897,0.3599,0.7711-1.2861,8.4255-1.197,16.6769,0.122597,11.3546,0.887727,16.5805,2.31471,21.5,1.79126,6.1753,2.04669,6.51017,5.1875,6.8125,1.81829,0.17503,3.96093-0.22013,4.75-0.875,1.83611-1.52382,1.81345-6.94838-0.0625-13.9375-0.40597-1.5125-1.15056-3.02232-1.42319-4.23505-0.6925-1.80584-1.18987-3.63343-1.67474-5.33609,0.0215-0.48368,0.42169-0.88771,0.64652-1.15787,0.85396-0.90506,3.59564-0.62788,5.01391-0.98682,1.5557-0.393721,3.17713-1.37947,4.03775-1.72851-0.19397,1.02827-0.13087,2.9237-0.1578,4.04053-0.0827,3.75144,0.51438,7.63474,1.21405,10.6538,2.56855,7.43194,3.63731,11.3613,6.65625,24.6875,0.57001,2.51616,3.28439,6.38024,5.46875,8.75,4.54147,4.9269,5.72494,5.31267,8.92511,1.90625,2.10295-2.23849,2.20263-2.69716,1-6.25-0.71383-2.10883-2.30368-4.96875-3.5-6.34375-3.27995-3.76985-4.05599-5.81343-5.40625-14-1.39764-8.47386-3.17011-11.4399-6.91386-14.9375-2.59787-3.09398-4.15907-6.80713-3.93165-10.3258,0.032-0.271063,0.0834-0.446151,0.22547-0.65447,0.14208-0.208318,0.40095-0.385274,0.61335-0.593359,0.41457-0.406145,0.77292-0.624582,1.17589-1.08261,1.22657-1.23238,4.08228-4.61419,3.462-7.78125-1.38964-4.19329-3.53613-5.57807-6.21252-7.34375-6.38471-4.21216-11.195-6.24531-21.9375-6.73108-0.04166-0.06248-5.59566,0.355391-7.81228,0.938-0.000094,0.000025-0.00029,0-0.00029,0zm76.6274-1.48366c-0.38742-0.21974-1.01597,0.135866-1.04487,0.150146-1.56399,0.771718-1.60486,3.34832-1.53238,5.13222,0.12529,3.0836,1.76358,8.07143,0.33626,9.62849-0.93194,0.915279-2.82799,0.361692-3.91365,0.198799-0.79948-0.166299-3.13846-0.445319-3.91305-1.0651-1.78037-1.89138-2.61546-4.58928-3.36772-6.94311-0.60845-1.8596-1.1104-4.86595-1.7432-5.605-0.6328-0.739052-1.14267-0.813773-1.55128-0.192254-0.4086,0.621518-0.95374,3.60382-1.18149,5.64973-0.22776,2.04591-0.37592,4.81996-0.46616,8.35407-0.24064,9.42422,0.0892,12.3711,2.03125,18.625,2.05031,6.60244,2.63685,7.52962,5.28125,8.25,1.63762,0.44611,2.83138,0.19876,3.51888-0.0563,1.84651-0.68514,1.36457-11.5191-0.28125-15.0458-0.69282-1.48458-1.89377-5.02697-1.98637-6.03994-0.0485-0.53006-0.1131-1.28193,0.281-1.59926,0.39411-0.317326,1.41328-0.202031,1.93128-0.202031,1.19965,0,4.56005,0.425152,5.6008,1.4706,1.04076,1.04544,1.90882,3.43742,2.29909,4.85087,0.3067,1.11075,1.60709,4.61589,1.99792,8.68062,0.34578,3.5962,1.70533,8.10337,1.70733,9.16006s0.75311,2.78001,1.6875,3.8125c1.11555,1.23267,1.44647,1.78977,3.44991,1.59375,3.51473-0.34388,4.36396-0.029,1.5-16.3125-1.00572-5.71816-2.6655-8.82821-3.90966-11.6668-0.54407-1.2413-0.89909-2.93484-1.39023-4.52074-1.99962-6.45686-2.92039-14.9349-5.34116-16.308zm40.998,0.9955c-2.09604,0-2.58831,4.86563-1.90625,19.125,0.56689,11.8515,0.90648,13.5785,3.1875,17.0625,3.9376,6.01419,5.6933,4.79328,5.34375-3.71875-0.159-3.832-0.707-8.094-1.22-9.469s-1.127-6.1295-1.344-10.5625c-0.407-8.3284-1.739-12.4375-4.062-12.4375zm56.2188,8.09375c-1.25399,0.08546-2.69982,1.19816-4.3125,3.3125-3.16731,4.15256-3.18808,8.45518-8.65625,3.53125-1.52363-1.37198-3.59103-1.79094-5.53125,0.59375-2.66841,3.2797-3.72318,5.02222-5.28125,0-0.67366-2.17145-2.24296-1.61574-3.625-0.46875-1.25457,1.0412-1.475,2.37829-1,5.84375,0.66389,4.84368,3.47192,13.0938,5.65625,13.0938,4.12432-0.0503,4.7681-6.68258,8.10232-7.84069,1.20921-0.32261,2.11641,2.63568,2.94519,3.85443,0.96148,1.41388,4.92687,6.09068,7.76278,5.32559,3.01863-0.7634,4.56029-5.66671,5.12721-7.80808,0.19143-0.723058,0.86622-3.40704,1.9375-5.90625,1.71048-3.99038,1.80555-5.07737,0.71875-8.84375-0.93176-3.2291-2.23148-4.79738-3.84375-4.6875zm157.749,0.9062c-23.94,5.17683-33.4055,11.5454-57.7534,12.3135-11.6175,0.366495-19.4506,1.5079-27.5991,6.86815-0.49193,0.3236-3.58971,2.33092-4.89383,1.16196-0.45432-0.40723-1.45176-1.09202-1.8896-1.71058-0.87567-1.23713-1.08267-3.54257-1.18245-4.91209-0.18743-2.57264-1.02748-3.30036-1.62855-4.56531s-1.88931-2.34953-2.93324-2.94558c-0.69275-0.391-0.86327-1.7057-1.44986-2.58268-0.35838-0.535802-1.04921-1.22411-2.1309-2.00238-1.99986-1.4389-5.52813-1.36156-7.82031-0.5625-7.648,2.66611-10.3697,14.1031-4.75,19.9688,3.00959,3.14133,9.15787,3.83686,11.2425,2.21671,2.39873-1.86424,1.36359-3.74142,3.19907-3.56119,2.23424,0.2194,1.98596,2.51803,2.47953,4.18467,0.86533,2.92194,3.05623,2.31043,2.15474,3.55942-8.78262,9.32313-9.73783,18.8403-9.98211,27.4754-0.14666,7.86465,4.42428,11.7202,8.06398,10.5416,4.27926-1.99519,3.25591-8.7011,1.89896-11.7614-0.92163-2.18485-0.96303-5.63244-0.59894-8.458,0.40153-3.11599,1.91445-6.8678,3.07587-7.27154,0.20366-0.0125,0.57896-0.16373,0.74892,0.27175,0.16996,0.43549,0.53503,1.45768,0.56391,1.85228,0.0289,0.39459,0.0354,1.21419,0.041,1.99665,0.12612,3.99525,0.0327,8.33736,0.25499,11.7004,0.28519,4.21136,0.53384,7.75506,1.23255,10.472,0.32405,1.26008,0.6158,2.40589,1.7158,3.50589,2.40831,2.40831,5.64342,1.81564,7.44045-0.34964,1.09868-1.32383,1.36671-3.12962-1.02159-10.75-2.15297-7.41191-3.84685-12.8465-3.71065-19.0521,0.27103-3.44657,1.33394-7.39406,4.19728-9.22403,5.59265-3.95916,16.9658-3.1221,26.3326-4.99542,17.99-3.34182,24.616-7.20806,37.8186-13.2427,2.60609-1.58799,17.4807-6.34653,18.8837-6.98576,3.29782-1.50258,1.6493-3.76433-2-3.15625zm-236.221,2.07054c-1.9664,1.53338-3.16576,4.07112-3.68542,6.50996-0.70173,3.29334-0.17097,6.88466,0.96087,10.056,1.0328,2.89383,2.25519,5.54561,5.13112,7.65768,2.94536,2.16306,6.66829,2.54707,10.9057,1.11833,3.24371-1.09368,5.65613-3.71076,4.81983-8.09703-0.31095-1.63089-1.00772-2.43898-1.92148-2.78399-2.93908-0.447405-3.26936,0.477828-4.54081,0.699584-3.46678,0.579507-7.14063-0.402599-9.10743-3.33754-1.27772-1.98337-2.06392-5.83831-0.12147-7.57437,2.68402-2.39883,7.41782-0.795167,4.42199,2.31942-1.00635,1.02735-2.53996,1.75502-1.30659,2.94809,0.71893,1.00167,1.5541,1.0674,2.31206,1.14849,0.79169,0.0847,1.82409-0.341451,2.44617-1.26642,1.70741-2.53875,1.68688-5.99625-0.28125-9-2.47194-3.05137-7.34213-2.38461-10.0333-0.398211zm104.815-1.63304c-0.74106-0.0024-1.59176,0.436439-2.64242,0.704919-4.72644,1.20776-2.83014,4.3501-4.26297,6.51346-0.34962,0.527879-0.80023,0.999345-1.0575,1.57788-0.51834,1.16564-2.51952,1.95705-3.4136,1.15484-0.61301-0.550023-0.0753-1.85864,0.53439-2.4123,1.30849-1.18818,3.83637-0.212025,3.76606-1.57032-0.0595-1.14992-3.06706-1.10371-3.30854-0.993107-4.6561,2.13262-5.11026,3.40136-5.77167,9.05587-0.32875,2.81059,0.1757,4.67274,1.72243,6.12279,1.42961,1.34025,2.5317,1.25215,5.75,1.22391,1.42648-0.0125,3.02718-0.35454,4.44924-0.86482,0.95149-0.34142,1.65536-1.41236,2.66568-1.44612,1.04474-0.0349,1.8378,1.04755,2.85015,1.30802,2.50572,0.6447,6.17617,0.39526,7.25-0.96875,2.17866-2.7674,1.42033-5.76228-2.6875-10.2188-2.2-2.38672-3.52757-2.2704-4-6.4375-0.20809-1.83548-0.60865-2.74605-1.84375-2.75zm-181.889,2.03485c-1.26896,0,1.98316,0.328766,1.73286,2.27624-0.41231,3.20794-3.67747,3.15957-4.48069,2.44158-1.35016-1.20689-1.38813-3.61305-0.0475-5.16418,0.50885-0.588746,3.2987,0.446367,2.79534,0.446367zm208.631,2.22036c0.55278-0.102143,2.27243-0.476234,3.13279,0.05051,0.25113,0.153748,0.97947,0.5985,0.91634,1.28872-0.12325,0.385975-0.42326,0.503634-0.71488,0.80843-0.28212,0.352396-0.65113,0.977296-0.80053,1.34731-1.01358,2.51025-3.64776,9.60894-8.18068,5.46497-2.64468-2.41775,3.01793-8.47416,5.64696-8.95994zm-177.929,12.3697c-0.50289-0.02174-1.09152,0.147832-1.75,0.5625-1.92913,1.21484-2.68761,3.71949-1.8125,6,0.90431,2.35658,3.82656,1.17813,4.875-1.96875,0.89105-2.67446,0.19617-4.52853-1.3125-4.59375z"/></g></svg>