<?xml version="1.0" encoding="UTF-8" standalone="no"?>
<!-- Created with Inkscape (http://www.inkscape.org/) -->

<svg
   xmlns:dc="http://purl.org/dc/elements/1.1/"
   xmlns:cc="http://creativecommons.org/ns#"
   xmlns:rdf="http://www.w3.org/1999/02/22-rdf-syntax-ns#"
   xmlns:svg="http://www.w3.org/2000/svg"
   xmlns="http://www.w3.org/2000/svg"
   xmlns:sodipodi="http://sodipodi.sourceforge.net/DTD/sodipodi-0.dtd"
   xmlns:inkscape="http://www.inkscape.org/namespaces/inkscape"
   width="706.87567"
   height="126.28622"
   id="svg2985"
   version="1.1"
   inkscape:version="0.48.1 "
   sodipodi:docname="New document 2">
  <title
     id="title3008">Signature of Hafez al-Assad</title>
  <defs
     id="defs2987" />
  <sodipodi:namedview
     id="base"
     pagecolor="#ffffff"
     bordercolor="#666666"
     borderopacity="1.0"
     inkscape:pageopacity="0.0"
     inkscape:pageshadow="2"
     inkscape:zoom="0.98994949"
     inkscape:cx="639.09791"
     inkscape:cy="143.87269"
     inkscape:document-units="px"
     inkscape:current-layer="layer1"
     showgrid="false"
     fit-margin-top="0"
     fit-margin-left="0"
     fit-margin-right="0"
     fit-margin-bottom="0"
     inkscape:window-width="1280"
     inkscape:window-height="949"
     inkscape:window-x="-9"
     inkscape:window-y="-9"
     inkscape:window-maximized="1" />
  <metadata
     id="metadata2990">
    <rdf:RDF>
      <cc:Work
         rdf:about="">
        <dc:format>image/svg+xml</dc:format>
        <dc:type
           rdf:resource="http://purl.org/dc/dcmitype/StillImage" />
        <dc:title>Signature of Hafez al-Assad</dc:title>
      </cc:Work>
    </rdf:RDF>
  </metadata>
  <g
     inkscape:label="Layer 1"
     inkscape:groupmode="layer"
     id="layer1"
     transform="translate(-16.089801,-679.63986)">
    <path
       style="fill:#000000"
       d="m 510.90855,798.42916 -3.44307,-7.49695 -9,-0.0854 c -4.95,-0.0469 -30.66911,-0.0211 -57.15357,0.0575 -33.00306,0.0979 -48.35979,-0.19085 -48.80902,-0.91771 -0.36049,-0.58329 -0.29139,-1.08754 0.15357,-1.12056 0.44496,-0.033 16.55902,-0.24056 35.80902,-0.4612 54.79422,-0.62807 90.86215,-1.68892 103.5,-3.04423 12.41386,-1.33127 90.49373,0.094 111.5,2.03533 2.2,0.20331 8.41852,0.62339 13.81894,0.93349 5.40042,0.3101 10.15175,0.76951 10.55851,1.0209 0.40677,0.2514 3.63825,0.54742 7.18106,0.65784 3.5428,0.11041 12.2915,1.00053 19.4415,1.97803 7.15,0.9775 15.025,1.98985 17.5,2.24966 7.1336,0.74886 11,2.53724 11,5.08804 0,3.92535 -1.4823,4.38912 -9.7951,3.06466 -29.0536,-4.62905 -107.48807,-9.99056 -160.73999,-10.98763 -36.4918,-0.68326 -38.5934,-0.20339 -35.43945,8.09212 1.16881,3.07422 0.43796,6.43302 -1.39979,6.43302 -0.68175,0 -2.78892,-3.37363 -4.68261,-7.49694 z m 208.05694,-5.50306 c 0,-0.55 0.1984,-1 0.441,-1 0.2425,0 0.7191,0.45 1.059,1 0.3399,0.55 0.1415,1 -0.441,1 -0.5824,0 -1.059,-0.45 -1.059,-1 z M 406.55474,768.55409 c 0.28957,-0.7546 2.61683,-1.65852 5.17169,-2.0087 2.55485,-0.35018 6.01631,-1.0707 7.69212,-1.60115 1.67581,-0.53044 5.29693,-1.2767 8.04693,-1.65834 2.78118,-0.38597 4.11247,-0.88472 3,-1.12391 -8.92876,-1.91977 7.74481,-2.77153 45,-2.29882 11.4554,0.14535 33.90454,2.26102 35.25,3.32206 1.67094,1.31772 1.57782,3.2702 -0.24281,5.09082 -1.11108,1.11108 -2.3257,1.27816 -4.75,0.65339 -11.02985,-2.84252 -45.16152,-4.97139 -60.95152,-3.80169 -5.33188,0.39498 -15.23188,1.63438 -22,2.75422 -14.74275,2.43931 -16.92932,2.52994 -16.21641,0.67212 z M 234.96548,750.89833 c 0,-0.4606 0.9733,-1.14637 2.16289,-1.52393 2.92508,-0.92838 0.84939,-1.98134 -5.54269,-2.81171 -2.68389,-0.34865 -6.34184,-1.5375 -8.12879,-2.6419 -3.61042,-2.23136 -6.80202,-2.4484 -51.99141,-3.53553 -26.44635,-0.63622 -38.90275,-1.7186 -41.13923,-3.57471 -2.19264,-1.81973 -1.57232,-3.80091 1.38923,-4.43693 15.76928,-3.38659 32.13209,-6.35524 38.75,-7.0303 3.3,-0.33661 6.34671,-0.82544 6.77047,-1.08629 0.42376,-0.26085 6.49876,-1.3078 13.5,-2.32656 7.00124,-1.01876 17.65383,-2.78651 23.67242,-3.92833 6.01859,-1.14182 12.20609,-2.07604 13.75,-2.07604 1.54391,0 2.80898,-0.3375 2.81127,-0.75 0.002,-0.4125 3.48979,-0.85382 7.75,-0.98072 10.36098,-0.30861 15.89427,-1.01076 18.35854,-2.32959 1.97016,-1.0544 8.03425,-2.91834 16.3873,-5.03702 2.2,-0.55802 4.98624,-1.65756 6.19164,-2.44344 3.65289,-2.38153 9.84682,-4.14967 11.88585,-3.39296 2.14475,0.79594 2.93034,0.34605 -8.57749,4.91208 -8.05667,3.19669 -23.18939,10.93418 -25.5,13.03836 -1.1,1.00173 -3.8,2.14842 -6,2.54819 -7.69268,1.39786 -17.22984,6.73184 -24.25,13.56261 -3.06934,2.98654 -2.85463,3.57731 1.5,4.12732 8.6782,1.09608 66.54003,-0.24756 75.96385,-1.764 5.24493,-0.844 11.0599,-1.2487 12.92216,-0.89934 2.12462,0.39858 3.9496,0.16739 4.89912,-0.62064 0.83226,-0.69072 1.8268,-0.94226 2.21008,-0.55898 0.38328,0.38328 0.0349,1.13128 -0.77417,1.66223 -0.96582,0.6338 5.77463,0.90725 19.62622,0.79619 l 21.09727,-0.16917 4.65273,-3.44637 c 2.55901,-1.8955 4.65274,-4.21326 4.65274,-5.15056 0,-2.37355 1.97873,-4.10419 4.69253,-4.10419 3.43158,0 15.91251,-12.67368 19.42303,-19.72298 1.5823,-3.17736 2.87861,-6.99413 2.88068,-8.48171 0.005,-3.45766 -0.51098,-3.5371 -27.49624,-4.2351 -11.55,-0.29875 -34.5,-1.10951 -51,-1.8017 -47.01501,-1.9723 -120.95975,-1.60361 -158,0.78779 -34.73286,2.24242 -70.619795,5.24015 -71.338745,5.95911 -1.47601,1.47601 1.83803,2.21195 6.33874,1.40763 2.750005,-0.49146 13.325005,-1.11528 23.500005,-1.38627 15.6471,-0.41674 18.99949,-0.24559 21.73904,1.10985 2.75807,1.3646 3.1486,1.99316 2.63006,4.23297 -0.33494,1.44673 -1.27948,3.1662 -2.09898,3.82104 -3.12929,2.50056 -24.70216,6.0041 -42.24345,6.86055 -10.011235,0.4888 -16.690035,1.12158 -37.276675,3.53177 -14.06892,1.64713 -40.65782,1.40023 -45.00932,-0.41794 -3.46497,-1.44776 -5.49597,-4.6339 -4.24458,-6.6587 0.73578,-1.19052 8.80876,-4.99204 10.69904,-5.03811 0.79858,-0.0195 0.54973,-0.60291 -0.64139,-1.50375 -5.22135,-3.94889 9.41496,-7.3355 34.44625,-7.97032 6.325,-0.1604 15.1,-0.8014 19.5,-1.42443 4.4,-0.62304 13.4,-1.55754 20.000005,-2.07668 19.67403,-1.5475 24.84454,-2.01935 28,-2.55521 1.65,-0.28021 9.525,-0.75661 17.5,-1.05868 9.91794,-0.37566 15.19453,-0.99283 16.69785,-1.95306 1.27856,-0.81666 2.44044,-1.01132 2.77784,-0.46541 0.33409,0.54057 5.54976,0.74812 12.30215,0.48953 6.44719,-0.24689 17.34716,-0.66758 24.22216,-0.93484 6.875,-0.26727 19.38063,-0.56488 27.7903,-0.66134 8.40966,-0.0965 15.52826,-0.56043 15.8191,-1.03102 0.29084,-0.47059 0.85846,-0.65187 1.26138,-0.40285 0.86808,0.5365 60.33798,2.01545 81.12922,2.01759 10.28675,10e-4 18.56797,-0.65684 28.5,-2.26416 17.89432,-2.89588 36.63246,-4.25189 41.22649,-2.98342 1.9156,0.52892 5.4746,2.79755 7.90889,5.04141 l 4.42598,4.07972 15.21932,0.35643 c 8.37063,0.19604 18.59432,0.79354 22.71932,1.32779 4.125,0.53425 12.225,1.20685 18,1.49467 5.775,0.28782 13.425,0.74103 17,1.00712 3.575,0.2661 10.1,0.71379 14.5,0.99487 4.4,0.28108 9.8,0.70775 12,0.94816 2.2,0.24041 8.275,0.71641 13.5,1.05778 5.225,0.34137 14.225,0.98438 20,1.42893 5.775,0.44454 10.85886,0.60306 11.29747,0.35226 0.4386,-0.2508 2.9136,0.032 5.5,0.62854 2.58639,0.5965 10.20536,1.22659 16.93103,1.40019 6.72568,0.17361 12.53818,0.62533 12.91667,1.00382 0.37849,0.37849 2.44275,0.68816 4.58724,0.68816 6.40496,0 9.87404,3.06485 6.51759,5.75814 -0.6875,0.55166 -8.9,1.26806 -18.25,1.59199 -33.04901,1.14498 -57.22069,2.60878 -76,4.60246 -10.45,1.10942 -26.425,2.71948 -35.5,3.57793 -9.075,0.85845 -17.85,1.73849 -19.5,1.95564 -3.46105,0.45549 -9.18267,0.7514 -11.80902,0.61073 -3.24414,-0.17376 -0.66789,-2.09689 2.80902,-2.09689 1.86008,0 3.62335,-0.39056 3.91837,-0.86791 0.29502,-0.47735 5.1979,-1.07524 10.89529,-1.32862 7.47541,-0.33247 11.02313,-0.92596 12.74513,-2.13209 1.31242,-0.91926 4.19859,-1.68212 6.41372,-1.69524 2.21512,-0.0131 5.82749,-0.45923 8.02749,-0.99135 2.2,-0.53212 8.45934,-1.21423 13.90964,-1.51579 5.4503,-0.30156 10.32925,-0.80763 10.84212,-1.1246 0.51287,-0.31697 3.25353,-0.69071 6.09036,-0.83055 29.31196,-1.44483 34.33418,-3.44687 13.74024,-5.47733 -6.2797,-0.61915 -13.7047,-1.07802 -16.5,-1.01971 -2.7953,0.0583 -8.00736,-0.33128 -11.58236,-0.86575 -3.575,-0.53447 -12.33959,-1.27365 -19.47686,-1.64261 -7.13727,-0.36896 -13.23582,-0.83087 -13.55231,-1.02648 -0.3165,-0.19561 -10.00191,-0.86169 -21.52314,-1.48018 -11.52123,-0.6185 -23.64769,-1.2861 -26.94769,-1.48357 -9.30056,-0.55652 -10.16111,-0.13055 -10.89377,5.39249 -0.43816,3.30303 -2.04606,6.8641 -5.26985,11.67131 -2.55161,3.80489 -5.17636,7.36798 -5.83277,7.91798 -0.65642,0.55 -2.19874,2.46929 -3.42739,4.26509 -1.22864,1.7958 -3.63892,3.99165 -5.35616,4.87967 -1.71725,0.88803 -3.72889,2.22121 -4.47032,2.96264 -0.74142,0.74143 -2.27471,1.99711 -3.4073,2.79041 -3.27801,2.296 -1.45687,3.27266 6.23378,3.3431 8.04562,0.0737 11.36527,1.81727 8.96543,4.7089 -1.05452,1.27063 -3.9245,1.55086 -15.91409,1.55393 -12.52821,0.003 -15.06799,0.27231 -17.69634,1.87509 -5.57333,3.39865 -7.31822,3.54857 -8.39321,0.72115 l -0.96354,-2.53429 -20.78723,0.46317 c -24.33361,0.5422 -37.79956,1.18327 -52.28724,2.48922 -5.775,0.52058 -13.65,1.185 -17.5,1.47649 -3.85,0.2915 -9.7,0.95171 -13,1.46715 -10.11799,1.58035 -14.5,1.88574 -14.5,1.01051 z m 15.38976,-5.44131 c 0.64062,-0.84768 2.5907,-1.42302 4.61024,-1.36018 11.5588,0.35965 20.31225,-0.083 21.3067,-1.07744 0.83695,-0.83695 -5.24897,-1.10464 -23.60384,-1.03822 -25.02245,0.0905 -31.23124,1.09802 -14.72461,2.38931 4.96196,0.38816 9.02175,1.12197 9.02175,1.63068 0,1.43587 2.15479,1.08997 3.38976,-0.54415 z m -34.63976,-6.18736 c 2.80387,-0.37648 4.25,-1.06858 4.25,-2.03403 0,-0.80485 1.2375,-2.7007 2.75,-4.21299 1.5913,-1.59107 2.59607,-3.54664 2.38466,-4.64124 -0.28261,-1.46327 -0.0562,-1.65547 1,-0.84873 0.98166,0.74983 2.34889,0.54362 4.86534,-0.7338 l 3.5,-1.77671 -7.5,-0.0267 c -9.41353,-0.0335 -47.00158,2.51067 -57,3.85803 -4.125,0.55588 -9.525,1.27668 -12,1.60179 -7.25462,0.95293 -14.80349,2.34079 -19.26156,3.54122 -3.10089,0.83498 -3.76791,1.33357 -2.63341,1.96847 1.76485,0.98766 26.62654,2.90778 41.89497,3.23564 27.33458,0.58694 33.80457,0.59877 37.75,0.069 z M 37.609535,713.15919 c -0.24919,-0.4032 2.31645,-0.75806 5.70143,-0.78858 3.38498,-0.0305 12.90451,-0.81702 21.15451,-1.74777 8.25,-0.93076 15.1125,-1.69328 15.25,-1.69451 0.1375,-10e-4 0.25,-0.45223 0.25,-1.00223 0,-0.55 -0.7875,-1.01618 -1.75,-1.03596 -1.34287,-0.0276 -1.05206,-0.60806 1.25,-2.49504 1.65,-1.35248 2.775,-2.46391 2.5,-2.46983 -0.275,-0.006 -3.15065,-0.44484 -6.39034,-0.97538 -7.11445,-1.16509 -16.31298,-0.0549 -32.76811,3.95468 -15.9392,3.8839 -22.70095,7.24724 -16.59155,8.25274 4.39114,0.7227 11.84031,0.72394 11.39406,0.002 z m 76.696415,-7.16391 c 7.06226,-1.05423 13.07074,-2.14706 13.35218,-2.4285 1.12687,-1.12687 -6.69999,-1.73973 -14.70708,-1.1516 -14.567485,1.07001 -13.696575,0.77093 -13.135575,4.51092 0.190475,1.26979 -0.58494,1.3196 14.490475,-0.93082 z m 280.65953,-19.09393 c 0,-3.00734 -12.82479,-3.88155 -26.69008,-1.81934 -11.18933,1.6642 -6.96278,2.68899 11.44008,2.7738 9.79128,0.0451 15.25,-0.29652 15.25,-0.95446 z m -56,46.02475 c 1.95653,-1.26441 4,-1.26441 4,0 0,0.55 -1.2375,0.99311 -2.75,0.98469 -2.14294,-0.0119 -2.41887,-0.22931 -1.25,-0.98469 z m 8.75,0.21465 c -3.59979,-0.7432 -1.57994,-2.16398 2.80509,-1.97313 2.65633,0.11561 4.86298,-0.29993 5.29371,-0.99688 0.93445,-1.51196 5.31641,-2.07701 5.77471,-0.74464 0.72729,2.11435 -1.32739,3.24788 -6.62351,3.65409 -3.025,0.23202 -6.2875,0.25927 -7.25,0.0605 z"
       id="path3006"
       inkscape:connector-curvature="0" />
  </g>
</svg>
