<?xml version="1.0" encoding="utf-8"?>
<!-- Generator: Adobe Illustrator 15.1.0, SVG Export Plug-In . SVG Version: 6.00 Build 0)  -->
<!DOCTYPE svg PUBLIC "-//W3C//DTD SVG 1.1//EN" "http://www.w3.org/Graphics/SVG/1.1/DTD/svg11.dtd">
<svg version="1.1" id="Layer_1" xmlns="http://www.w3.org/2000/svg" xmlns:xlink="http://www.w3.org/1999/xlink" x="0px" y="0px"
	 width="92.75px" height="49.25px" viewBox="0 0 92.75 49.25" enable-background="new 0 0 92.75 49.25" xml:space="preserve">
<g>
	<path fill-rule="evenodd" clip-rule="evenodd" d="M56.443,24.064c0.369-0.252,0.729-0.252,1.199,0
		C57.973,24.937,56.027,25.212,56.443,24.064z"/>
	<path fill-rule="evenodd" clip-rule="evenodd" d="M78.045,31.265c-0.01-2.784,1.223-5.426,3.602-5.041
		c-0.012,2.708-2.012,3.43-2.881,5.28l-0.281-0.36L78.045,31.265z"/>
	<path fill-rule="evenodd" clip-rule="evenodd" d="M75.885,34.625"/>
	<path fill-rule="evenodd" clip-rule="evenodd" d="M71.596,39.426c-0.256,0.224-1.079,2.096-1.726,1.93
		C68.796,42,71.072,39.382,71.596,39.426z"/>
	<path fill-rule="evenodd" clip-rule="evenodd" d="M66.208,42.546c-1.166,0.472-11.138,1.462-12.886,1.681
		c-3.367,0.42-7.244,0.495-10.801,0.72c-1.443,0.091-3.113,0.063-4.561,0c-1.115-0.049-2.863,0.362-3.359-0.96
		c0.285-0.887,1.64-0.266,2.881-0.24c7.842,0.16,21.133-1.679,28.441-1.746l-6,0.906L66.208,42.546z"/>
	<path fill-rule="evenodd" clip-rule="evenodd" d="M23.561,10.453c3.133-3.409,9.662-6.304,15.121-5.11l0.236,0.29l0.207,0.284
		c-0.643,0.237-0.75,0.739-1.523,1.677l-0.175-0.225l-0.161-0.226c0.36-0.773,0.266-0.831-0.024-0.84
		c-3.75,0.273-6.639,1.52-9.471,2.801c-0.97,0.439-1.661,0.578-2.291,1.759c-0.105,0.168,0,0.32,0,0.48l-0.36-0.12v0.36
		c-0.44-0.271-0.554-0.686-1.32-0.48l0.12-0.44L23.561,10.453z"/>
	<path fill-rule="evenodd" clip-rule="evenodd" d="M26.801,26.104l0.246,0.239c-1.545,0.534-3.671,0.672-3.727-0.359
		c-0.044-0.833,3.177-3.43,3.951-3.776l-1.976,2.458c0,0-0.367,0.25-0.524,0.688c-0.126,0.351,0.188,0.609,0.709,0.63
		c0.936,0.037,1.019-0.102,1.44-0.24L26.801,26.104z"/>
	<path fill-rule="evenodd" clip-rule="evenodd" d="M32.562,13.144l0.24,0.481c-1.083-0.359-1.952,0.089-2.489,0.578l-0.071-0.339
		l-0.44,0.12c0.667-0.84-0.031-0.708-0.24-0.96l0.36-0.12l-0.437-0.325c1.509,0.229,2.709-0.527,3.391-1.125l0.043,0.36l0.133,0.325
		c-1.255,0.83,0.11,0.627,0.11,0.885L32.562,13.144z"/>
	<path fill-rule="evenodd" clip-rule="evenodd" d="M7.153,33.614l0.245,0.219c-0.523,0.558-0.884,0.708-0.639,1.752l-0.44-0.119
		l-0.223,0.286c-0.86-0.486-1.335,0.497-1.737,0.073c-0.019-0.898,1.048-0.67,0.733-1.864l0.427,0.064h0.418
		c0.672-0.135,0.564-0.298,1.302-0.84L7.153,33.614z"/>
	<path fill-rule="evenodd" clip-rule="evenodd" d="M35.441,31.145L35,30.938c0.616-0.306,1.162-0.479,2.242-1.113
		c0.095-0.056,0.313,0.312,0.313,0.312l0.406,0.168c-0.5,0.779-0.995,1.564-1.439,2.4l-0.36-0.12l-0.36,0.12
		c-0.244-0.572,0.188-1.308-0.479-1.2L35.441,31.145z"/>
	<path fill-rule="evenodd" clip-rule="evenodd" d="M37.891,29.753l-0.408-0.168c0.965-1.653,4.699-3.49,5.52-2.64
		c0.665,0.689-3.563,2.758-5.448,3.514L37.891,29.753z"/>
	<path fill-rule="evenodd" clip-rule="evenodd" d="M47.203,29.865l-0.361-0.28c1.238-0.563,2.551-2.195,3.842-1.92
		c0.006,2.086-1.365,2.796-2.16,4.081l-0.168-0.408l-0.313-0.312c0-0.24,0-0.48,0-0.72c-0.32,0-0.641,0-0.961,0L47.203,29.865z"/>
	<path fill-rule="evenodd" clip-rule="evenodd" d="M51.043,32.825l-0.119-0.36c1.969-1.152,3.313-2.927,5.76-3.601
		c0.725,1.725,0.209,3.331,0.24,5.521l-0.441-0.12l-0.279,0.359c-0.824-0.55,0.139-1.404-0.48-2.16
		c-1.924-0.084-1.896,1.784-3.6,1.92c-1.246-0.01-0.133-0.989-0.961-1.2c-0.08,0-0.16,0-0.238,0L51.043,32.825z"/>
	<path fill-rule="evenodd" clip-rule="evenodd" d="M60.164,33.226h-0.727c0.912-0.849,1.602-1.721,3.246-2.681
		c0.668,1.168-1.469,2.333-0.391,3.684l-0.529-0.204v0.683c-0.572-0.148-0.674-1.369-1.721-1.043L60.164,33.226z"/>
	<path fill-rule="evenodd" clip-rule="evenodd" d="M64.293,34.313l-0.408-0.168c0.817-0.638,1.291-0.47,1.439-1.2
		c0.1-1.139-1.561-1.937-0.721-2.4c1.667-0.92,1.457-1.194,4.542-1.206c1.521-0.006-0.019,2.806,1.46,3.847
		c1.363,0.959,3.005-2.702,3.499-2.42c0.415,0.236-0.041,0.954-0.771,2.36c-1.141,1.627-1.202,1.498-2.494,3.125l-0.066-0.496
		h-0.477c0.729-0.96-0.04-1.5-0.589-1.983c-0.854-0.75,0.079-1.388-1.024-1.306c-1.068-0.029-0.004,2.076-0.959,2.16
		c-1.037,0.777-1.986-0.816-3.121,0L64.293,34.313z M66.523,31.745c0.752,0.111,1.072-0.208,0.961-0.96
		C66.732,30.674,66.412,30.994,66.523,31.745z"/>
	<path fill-rule="evenodd" clip-rule="evenodd" d="M68.885,39.065l0.428,0.185c-1.102,2.23-1.068,3.056,0.426,1.976l0.186,0.24
		l0.616-0.479c0,0.24-0.227,0.865-0.415,1.014c-0.553,0.436-2.703,0.959-3,0.479c-0.338-0.546,1.761-4.077,2.203-4.963
		L68.885,39.065z"/>
	<g>
		<path fill-rule="evenodd" clip-rule="evenodd" fill="none" stroke="#000000" stroke-width="0.9086" stroke-linecap="round" d="
			M78.484,31.145c-0.004,0.591,0.025,1.297,0.463,1.694c1.97,1.786,7.103-0.99,9.47-2.974"/>
		<path fill-rule="evenodd" clip-rule="evenodd" fill="none" stroke="#000000" stroke-width="0.6691" stroke-linecap="round" d="
			M59.924,42.906c2.004-0.141,4.08-0.301,6-0.601"/>
		<path fill-rule="evenodd" clip-rule="evenodd" fill="none" stroke="#000000" stroke-width="0.7569" stroke-linecap="round" d="
			M24.929,24.473c3.368-3.147,8.663-5.067,10.362-9.311c0.077-0.192-0.115-0.543-0.211-0.77c-0.054-0.129-0.166-0.25-0.275-0.338
			c-0.625-0.507-1.478-0.644-2.244-0.91"/>
		<path fill-rule="evenodd" clip-rule="evenodd" fill="none" stroke="#000000" stroke-width="0.8654" stroke-linecap="round" d="
			M37.555,30.137c0.111-0.126,0.229-0.25,0.336-0.384"/>
		<path fill-rule="evenodd" clip-rule="evenodd" fill="none" stroke="#000000" stroke-width="0.7651" stroke-linecap="round" d="
			M36.162,32.585c1.45,3.989,8.143-1.414,11.042-2.72"/>
		<path fill-rule="evenodd" clip-rule="evenodd" fill="none" stroke="#000000" stroke-width="0.7885" stroke-linecap="round" d="
			M56.482,34.266c1.061,1.604,2.611-0.531,3.682-1.04"/>
		<path fill-rule="evenodd" clip-rule="evenodd" fill="none" stroke="#000000" stroke-width="0.6646" stroke-linecap="round" d="
			M69.924,41.466c0.059-0.16,0.238-0.32,0.311-0.479"/>
		<path fill-rule="evenodd" clip-rule="evenodd" fill="none" stroke="#000000" stroke-width="0.6968" stroke-linecap="round" d="
			M68.885,39.065"/>
		<path fill-rule="evenodd" clip-rule="evenodd" fill="none" stroke="#000000" stroke-width="0.6968" stroke-linecap="round" d="
			M68.244,40.266"/>
		<path fill-rule="evenodd" clip-rule="evenodd" fill="none" stroke="#000000" stroke-width="0.8051" stroke-linecap="round" d="
			M68.765,39.421c0.296-0.575,1.634-3.226,2.009-3.667"/>
		<path fill-rule="evenodd" clip-rule="evenodd" fill="none" stroke="#000000" stroke-width="0.7936" stroke-linecap="round" d="
			M64.293,34.313c-0.5,0.262-1.082,0.445-1.65,0.538c-0.402-0.121-0.748-0.422-0.879-0.826"/>
		<path fill-rule="evenodd" clip-rule="evenodd" fill="none" stroke="#000000" stroke-width="0.9526" stroke-linecap="round" d="
			M51.043,32.825c-1.021,0.152-1.922,1.387-3.057,0.832c-0.684-0.656-0.025-1.699,0.369-2.32"/>
		<path fill-rule="evenodd" clip-rule="evenodd" fill="none" stroke="#000000" stroke-width="0.7141" stroke-linecap="round" d="
			M35.441,31.145c-1.574,0.447-4.382,1.778-6.155,2.456c-6.606,2.525-18.386,7.007-22.968,1.865"/>
		<path fill-rule="evenodd" clip-rule="evenodd" fill="none" stroke="#000000" stroke-width="0.7411" stroke-linecap="round" d="
			M5.519,34.025C3.7,28.319,11.058,19.361,16.131,15.299c2.41-1.93,5.638-3.741,7.79-4.636"/>
		<path fill-rule="evenodd" clip-rule="evenodd" fill="none" stroke="#000000" stroke-width="0.6411" stroke-linecap="round" d="
			M7.153,33.614c7.722-6.64,15.201-13.333,23.088-19.75"/>
		<path fill-rule="evenodd" clip-rule="evenodd" fill="none" stroke="#000000" stroke-width="0.6278" stroke-linecap="round" d="
			M26.801,26.104c4.81-2.152,15.525-9.25,18.059-15.038c1.42-3.247-0.656-6.571-6.297-5.364"/>
		<path fill-rule="evenodd" clip-rule="evenodd" fill="none" stroke="#000000" stroke-width="0.5575" stroke-linecap="round" d="
			M25.121,11.223c1.134,1.381,3.163,1.343,4.8,1.68"/>
		<path fill-rule="evenodd" clip-rule="evenodd" fill="none" stroke="#000000" stroke-width="0.6006" stroke-linecap="round" d="
			M32.801,11.943c1.488-1.67,3.403-2.95,4.8-4.8"/>
	</g>
</g>
<line fill-rule="evenodd" clip-rule="evenodd" fill="none" stroke="#000000" stroke-width="0.35" stroke-linecap="round" x1="76.109" y1="34.109" x2="70.953" y2="40.093"/>
</svg>
