<?xml version="1.0" standalone="no"?>
<!DOCTYPE svg PUBLIC "-//W3C//DTD SVG 20010904//EN"
 "http://www.w3.org/TR/2001/REC-SVG-20010904/DTD/svg10.dtd">
<svg version="1.0" xmlns="http://www.w3.org/2000/svg"
 width="500.000000pt" height="373.000000pt" viewBox="0 0 500.000000 373.000000"
 preserveAspectRatio="xMidYMid meet">
<metadata>
Created by potrace 1.12, written by Peter Selinger 2001-2015
</metadata>
<g transform="translate(0.000000,373.000000) scale(0.100000,-0.100000)"
fill="#000000" stroke="none">
<path d="M2025 3520 c-11 -5 -58 -9 -105 -9 -67 -1 -104 -8 -173 -31 -101 -35
-116 -42 -177 -90 -72 -56 -123 -113 -160 -184 -19 -37 -43 -81 -52 -99 -9
-17 -17 -42 -18 -53 0 -12 -7 -38 -15 -57 -20 -48 -19 -140 1 -180 28 -53 105
-137 133 -144 14 -3 37 -13 49 -21 24 -15 23 -16 -30 -35 -88 -31 -191 -75
-264 -110 -38 -19 -95 -46 -126 -61 -32 -16 -68 -39 -80 -51 -13 -13 -33 -34
-46 -47 -12 -13 -26 -38 -31 -56 -18 -61 -23 -235 -12 -351 l12 -115 51 -63
c62 -76 137 -118 192 -108 20 4 36 2 40 -4 4 -6 16 -11 27 -11 30 0 20 32 -13
41 -15 4 -39 17 -54 28 -15 12 -35 21 -45 21 -29 0 -85 56 -112 113 -21 44
-26 72 -32 188 -4 74 -4 162 0 195 7 55 11 62 65 114 61 59 77 69 210 135 95
47 119 56 205 78 33 8 83 21 110 28 59 16 275 19 274 4 -1 -5 -22 -16 -48 -23
-125 -35 -259 -103 -290 -148 -13 -19 -36 -42 -50 -50 -29 -17 -45 -40 -108
-159 -39 -73 -43 -86 -43 -154 0 -89 15 -144 50 -180 14 -14 33 -39 43 -54 10
-15 28 -32 40 -36 12 -5 31 -18 41 -30 11 -11 26 -21 34 -21 8 0 32 -18 52
-40 29 -31 44 -40 70 -40 21 0 47 -10 69 -27 50 -39 125 -63 192 -63 42 0 63
-5 83 -21 15 -11 33 -18 41 -15 9 3 25 1 38 -5 25 -11 71 0 197 47 102 37 146
72 231 183 55 72 63 113 30 159 -10 15 -28 46 -40 69 -26 51 -80 83 -143 83
-24 0 -52 7 -62 15 -11 8 -29 15 -41 15 -34 0 -45 20 -45 81 0 46 5 63 24 86
12 15 28 38 35 51 7 13 36 38 64 57 29 18 58 42 66 54 8 11 27 23 43 26 15 4
30 11 34 16 11 18 79 56 114 63 105 22 115 22 375 8 154 -9 162 -11 225 -43
36 -19 85 -54 109 -79 68 -70 137 -234 129 -311 l-3 -34 -100 -7 c-170 -12
-228 -22 -275 -47 -25 -13 -63 -33 -85 -44 -42 -22 -140 -116 -189 -179 -25
-34 -27 -43 -24 -105 4 -63 14 -100 42 -162 15 -34 126 -120 155 -121 13 0 41
-5 62 -12 72 -21 214 24 310 98 55 42 56 43 95 29 35 -12 40 -17 46 -57 17
-103 -15 -248 -80 -368 -46 -85 -163 -214 -261 -289 -43 -32 -91 -71 -107 -86
-16 -15 -43 -34 -61 -41 -17 -8 -34 -18 -38 -24 -4 -6 -23 -17 -43 -26 -20 -8
-54 -28 -74 -44 -20 -17 -47 -30 -60 -30 -13 -1 -43 -12 -68 -25 -110 -58
-297 -145 -313 -145 -7 0 -43 -11 -82 -24 -38 -13 -91 -26 -117 -30 -26 -4
-50 -11 -53 -17 -4 -5 -21 -9 -39 -9 -18 0 -52 -6 -77 -14 -88 -27 -141 -36
-210 -36 -39 0 -80 -5 -92 -12 -31 -17 -111 -28 -277 -37 -80 -5 -160 -14
-177 -21 -35 -13 -65 -11 -243 15 -63 9 -135 19 -160 22 -25 3 -54 12 -65 19
-11 8 -36 14 -57 14 -20 0 -54 7 -75 17 -121 52 -191 88 -213 108 -92 85 -110
108 -121 147 -25 94 24 205 118 269 26 18 50 35 53 39 18 21 118 60 154 60 23
0 52 8 66 17 34 24 246 46 352 36 51 -4 59 -8 75 -36 42 -73 18 -144 -75 -224
-78 -67 -140 -103 -252 -146 -79 -30 -109 -37 -168 -37 -40 0 -81 5 -91 12
-10 6 -26 8 -36 4 -16 -6 -16 -8 -3 -29 24 -35 58 -48 118 -43 166 12 391 124
510 253 70 77 100 126 100 166 0 38 -41 99 -78 117 -15 7 -38 18 -52 25 -72
36 -312 23 -442 -24 -94 -34 -218 -104 -269 -152 -17 -16 -34 -29 -38 -29 -10
0 -64 -59 -84 -92 -9 -15 -26 -52 -38 -83 -20 -54 -20 -56 -2 -103 19 -51 175
-222 203 -222 8 0 44 -18 80 -40 36 -22 73 -40 83 -40 10 0 28 -5 40 -12 25
-13 80 -25 177 -38 36 -4 90 -15 120 -24 75 -21 527 -14 640 10 41 8 98 19
125 24 28 5 84 16 125 24 41 9 97 16 123 16 26 0 60 6 75 14 15 7 47 17 72 21
25 4 58 13 75 21 16 8 59 21 94 30 36 8 76 21 88 29 12 8 31 15 42 15 10 0 32
7 47 15 16 8 36 15 44 15 8 0 29 9 47 19 17 11 62 32 100 47 37 15 88 38 112
51 24 12 52 23 61 23 10 0 35 14 56 30 22 17 80 58 129 91 114 75 176 125 276
219 75 70 188 219 203 267 4 11 13 27 21 33 8 7 15 21 15 31 0 10 11 52 25 93
23 72 24 88 26 367 2 305 5 322 45 288 9 -8 29 -12 44 -11 21 3 33 -5 53 -32
22 -29 27 -45 27 -95 0 -57 2 -61 31 -76 28 -15 32 -15 56 2 96 68 160 93 170
66 2 -6 -9 -26 -25 -45 -15 -18 -29 -44 -30 -57 0 -13 -5 -27 -10 -30 -34 -23
-44 -124 -14 -159 9 -11 31 -37 47 -58 37 -45 77 -84 88 -84 4 0 32 -25 61
-55 45 -47 59 -56 87 -55 19 0 59 -5 89 -11 30 -7 76 -12 102 -11 39 2 49 -2
59 -19 9 -17 17 -20 47 -15 21 3 62 9 92 14 30 4 73 18 95 30 22 12 57 22 78
22 32 0 39 4 48 27 5 15 19 33 29 40 11 8 20 20 20 28 0 7 11 26 24 42 20 24
38 104 36 158 -4 81 -14 117 -36 132 -17 11 -24 25 -24 48 0 39 -9 44 -70 38
-25 -2 -65 -5 -90 -6 -25 -2 -52 -7 -60 -12 -8 -5 -24 -8 -36 -7 -14 2 -27 -6
-38 -23 -14 -22 -20 -24 -32 -14 -26 21 -39 -6 -39 -79 0 -64 2 -70 40 -115
l40 -47 60 5 c166 16 165 15 165 36 0 30 28 79 45 79 36 0 -2 -124 -60 -194
-24 -30 -61 -59 -99 -78 -60 -31 -62 -31 -175 -24 -98 5 -118 9 -138 27 -16
16 -30 20 -51 16 -32 -6 -72 15 -72 38 0 16 -64 39 -99 37 -30 -2 -51 14 -51
40 0 12 -9 22 -21 25 -34 9 -59 81 -53 150 6 58 9 67 70 163 39 62 39 63 18
84 -20 20 -119 21 -165 2 -43 -18 -80 -7 -119 37 -16 19 -43 40 -60 47 -16 7
-30 16 -30 20 0 5 -34 16 -76 26 -95 23 -114 46 -114 140 0 41 -5 65 -14 73
-8 7 -17 25 -21 40 -3 16 -17 39 -31 51 -13 13 -24 30 -24 37 0 21 -39 93 -50
93 -6 0 -29 17 -53 39 -23 21 -64 50 -92 65 -80 42 -108 61 -108 71 -1 6 21
22 48 36 27 14 57 39 67 55 37 61 88 164 88 178 0 7 6 19 14 25 11 10 25 7 66
-14 29 -15 63 -37 76 -50 31 -31 32 -86 2 -127 -21 -30 -21 -31 -3 -44 31 -23
67 -16 118 20 64 45 74 40 69 -33 -4 -51 -1 -63 23 -100 23 -34 33 -41 60 -41
18 0 48 -11 67 -23 47 -32 119 -56 152 -50 16 3 36 -2 53 -13 16 -10 48 -24
73 -31 37 -9 50 -9 74 3 16 8 39 14 51 14 25 0 100 51 113 77 12 24 -4 80 -26
92 -10 5 -34 12 -54 16 -30 6 -43 3 -64 -14 -15 -12 -36 -21 -48 -21 -26 -1
-47 -16 -70 -52 -23 -35 -31 -35 -109 2 -35 17 -74 30 -87 30 -28 0 -127 74
-135 101 -4 11 2 33 14 53 12 18 21 41 21 50 0 24 -42 41 -68 27 -11 -6 -37
-11 -56 -11 -32 0 -36 3 -45 38 -6 20 -11 47 -11 60 0 12 -6 22 -14 22 -8 0
-27 11 -43 24 -33 28 -125 56 -182 56 -46 0 -75 24 -84 69 -7 33 -123 191
-140 191 -7 0 -32 20 -56 45 -24 25 -48 45 -53 45 -14 0 -181 83 -196 97 -7 7
-30 13 -51 13 -20 0 -46 7 -57 15 -10 8 -30 15 -44 15 -14 0 -33 7 -44 15 -12
9 -33 12 -65 8 -31 -3 -56 -1 -72 8 -40 22 -131 33 -239 29 -19 0 -71 2 -115
4 -44 3 -89 2 -100 -4z m370 -76 c106 -5 153 -13 192 -30 17 -8 37 -14 45 -14
7 0 21 -7 32 -15 10 -8 39 -17 65 -21 25 -4 62 -15 81 -24 19 -10 58 -28 85
-41 81 -38 240 -202 260 -268 10 -33 -7 -41 -92 -41 -40 0 -94 -5 -120 -11
-64 -16 -183 -60 -183 -69 0 -4 -23 -29 -51 -56 -50 -49 -50 -49 -44 -99 4
-27 13 -57 21 -66 8 -8 14 -23 14 -32 0 -26 -41 -57 -76 -57 -17 0 -57 -11
-88 -25 -31 -14 -63 -25 -70 -25 -13 0 -123 -80 -197 -144 -20 -17 -44 -38
-55 -47 -33 -28 -73 -82 -101 -137 -31 -64 -34 -141 -6 -157 9 -5 28 -22 42
-37 14 -16 35 -28 48 -28 12 0 33 -4 47 -10 17 -6 35 -6 52 1 35 13 83 -3 116
-39 43 -45 50 -68 42 -130 -6 -55 -10 -60 -78 -124 -39 -37 -78 -68 -86 -68
-8 0 -35 -7 -59 -15 -24 -9 -52 -13 -63 -9 -11 3 -33 0 -49 -6 -23 -10 -32
-10 -44 0 -8 7 -29 14 -47 16 -18 2 -56 7 -85 10 -40 4 -56 11 -68 30 -12 19
-24 24 -58 24 -36 0 -47 5 -65 30 -17 22 -31 30 -53 30 -26 0 -52 21 -166 135
l-136 135 7 92 c4 63 12 99 24 116 9 14 24 37 32 53 8 15 41 57 74 94 59 67
84 83 206 124 36 13 81 29 100 36 19 8 53 14 76 15 22 0 45 5 52 12 7 7 36 15
64 19 113 16 133 23 136 46 3 20 -2 22 -70 28 -93 8 -249 9 -356 2 -78 -5 -84
-4 -98 18 -10 15 -28 25 -52 28 -99 13 -182 73 -212 152 -15 39 -12 116 5 166
28 81 124 264 158 301 41 46 169 108 247 121 142 22 323 26 605 11z m791 -515
c4 -6 10 -28 15 -48 11 -48 -6 -101 -47 -150 -30 -35 -42 -41 -131 -62 -106
-25 -180 -32 -189 -17 -3 5 -23 20 -45 34 -33 20 -39 30 -39 58 0 60 17 89 78
128 77 50 103 58 159 52 26 -3 59 -1 73 5 34 13 117 14 126 0z m1044 -415 c12
-12 12 -16 -5 -29 -11 -8 -35 -15 -53 -15 -43 0 -54 26 -22 52 24 20 54 17 80
-8z m-891 -516 c24 1 51 -3 61 -8 30 -16 40 -81 40 -254 0 -182 -4 -194 -54
-161 -25 17 -27 16 -75 -14 -27 -18 -55 -39 -62 -47 -19 -23 -69 -47 -114 -55
-22 -4 -54 -13 -71 -20 -28 -11 -38 -10 -85 10 -75 32 -128 69 -145 104 -9 16
-18 68 -21 115 l-6 87 68 73 c47 49 76 72 92 72 13 0 33 12 46 26 25 29 44 39
137 65 43 12 79 17 105 13 22 -4 60 -6 84 -6z m1376 -333 c32 -31 31 -46 -4
-84 -32 -34 -64 -39 -120 -20 -28 10 -31 15 -31 50 0 23 5 41 13 43 6 2 32 10
57 19 59 21 57 21 85 -8z"/>
</g>
</svg>
