<?xml version="1.0" encoding="UTF-8" standalone="no"?>
<!-- Created with Inkscape (http://www.inkscape.org/) -->

<svg
   xmlns:dc="http://purl.org/dc/elements/1.1/"
   xmlns:cc="http://creativecommons.org/ns#"
   xmlns:rdf="http://www.w3.org/1999/02/22-rdf-syntax-ns#"
   xmlns:svg="http://www.w3.org/2000/svg"
   xmlns="http://www.w3.org/2000/svg"
   xmlns:sodipodi="http://sodipodi.sourceforge.net/DTD/sodipodi-0.dtd"
   xmlns:inkscape="http://www.inkscape.org/namespaces/inkscape"
   width="594.30737"
   height="583.68127"
   id="svg2"
   version="1.1"
   inkscape:version="0.48.4 r9939"
   sodipodi:docname="Nieuw document 1">
  <defs
     id="defs4" />
  <sodipodi:namedview
     id="base"
     pagecolor="#ffffff"
     bordercolor="#666666"
     borderopacity="1.0"
     inkscape:pageopacity="0.0"
     inkscape:pageshadow="2"
     inkscape:zoom="0.49497475"
     inkscape:cx="168.74452"
     inkscape:cy="196.02708"
     inkscape:document-units="px"
     inkscape:current-layer="layer1"
     showgrid="false"
     fit-margin-top="0"
     fit-margin-left="0"
     fit-margin-right="0"
     fit-margin-bottom="0"
     inkscape:window-width="1600"
     inkscape:window-height="837"
     inkscape:window-x="-8"
     inkscape:window-y="-8"
     inkscape:window-maximized="1" />
  <metadata
     id="metadata7">
    <rdf:RDF>
      <cc:Work
         rdf:about="">
        <dc:format>image/svg+xml</dc:format>
        <dc:type
           rdf:resource="http://purl.org/dc/dcmitype/StillImage" />
        <dc:title></dc:title>
      </cc:Work>
    </rdf:RDF>
  </metadata>
  <g
     inkscape:label="Laag 1"
     inkscape:groupmode="layer"
     id="layer1"
     transform="translate(-84.135948,-204.74951)">
    <path
       style="fill:#000000"
       d="m 87.456319,786.2191 c -1.43831,-1.2177 -2.91192,-3.4617 -3.27469,-4.9865 -0.64543,-2.713 5.54092,-32.0092 19.052961,-90.2276 l 5.57021,-23.99996 2.25537,-46 c 1.24046,-25.3 2.34457,-44.425 2.4536,-42.5 0.46092,8.13812 1.78192,7.36137 2.55103,-1.5 1.01337,-11.67578 1.73462,-9.37002 4.53564,14.5 1.19398,10.175 2.27437,18.61097 2.40086,18.7466 0.12649,0.13562 1.51004,-4.36438 3.07455,-10 5.7819,-20.82744 22.1905,-67.7466 23.69238,-67.7466 0.4005,0 3.25723,0.94624 6.3483,2.10276 5.24649,1.96296 5.57627,2.27752 4.9604,4.73136 -0.36286,1.44572 -0.73753,3.00801 -0.83262,3.47173 -0.0951,0.46373 2.16287,1.73109 5.01767,2.81635 l 5.19054,1.97322 -4.32232,12.20229 c -2.37727,6.71126 -12.25052,34.74254 -21.94054,62.29173 l -17.61823,50.08944 -0.0206,10.41058 c -0.0846,42.747 -6.81993,80.8352 -16.55055,93.5927 -1.33587,1.7514 -2.42885,3.5802 -2.42885,4.064 0,1.4621 -5.31219,6.0556 -8.315101,7.1902 -4.41963,1.6699 -8.93655,1.202 -11.80001,-1.2223 z M 105.65398,751.322 c 1.97969,-7.01 4.96547,-23.8946 4.83057,-27.317 -0.0858,-2.1764 -8.81868,35.0436 -8.79861,37.5 0.0173,2.1155 1.75218,-2.3367 3.96804,-10.183 z m 191.182,-26.3586 c -10.94682,-2.9481 -17.30808,-7.298 -23.20131,-15.8654 -8.85464,-12.8726 -13.28903,-42.53911 -9.655,-64.59296 2.98496,-18.11483 8.53692,-28.38057 17.94454,-33.17997 5.89053,-3.00513 14.89248,-2.15453 21.40138,2.02221 8.3829,5.37929 13.03107,11.76897 11.56579,15.89908 -2.12244,5.9824 -7.08487,6.8481 -11.99191,2.09201 -15.21315,-14.74517 -27.97473,25.44937 -19.35279,60.95453 2.88337,11.8738 4.19187,13.9308 10.84588,17.05 4.75414,2.2286 7.06299,2.6621 14.17887,2.6621 7.77076,0 9.03798,-0.2917 14.77072,-3.4003 7.28232,-3.949 16.7891,-13.5675 24.0195,-24.302 8.6014,-12.76996 8.58268,-12.70562 5.63683,-19.36671 -4.95573,-11.20578 -6.82998,-21.556 -6.77811,-37.43095 0.0764,-23.38522 6.07187,-68.22924 12.32051,-92.15328 5.58746,-21.39258 24.80177,-77.38267 34.09316,-99.34672 17.693,-41.82474 42.20457,-75.25773 61.78598,-84.2741 11.99103,-5.52134 20.40212,0.38381 22.03051,15.46688 l 0.62696,5.80722 4.36819,-10.5 c 8.10499,-19.48232 14.57238,-30.82398 27.6818,-48.54473 14.56427,-19.68735 27.83434,-28.86083 44.81893,-30.98291 14.79882,-1.84899 30.44385,7.27897 37.6726,21.97978 6.8177,13.86486 7.35977,29.13771 1.94034,54.66881 -14.66877,69.10491 -42.53272,145.74639 -82.8042,227.75798 l -8.04282,16.37894 3.91598,8.24244 c 4.60222,9.68685 10.2336,15.49969 15.01583,15.49969 12.25433,0 32.24623,-30.06426 54.8602,-82.5 4.03238,-9.35 11.58947,-25.775 16.79354,-36.5 29.58239,-60.96599 52.65466,-120.25023 62.65807,-161 16.0346,-65.31838 8.94563,-111.51303 -19.21639,-125.22194 -6.41426,-3.12238 -7.12499,-3.24423 -18.66813,-3.20059 -13.14028,0.0497 -22.03561,1.89378 -36.32716,7.53104 -27.64619,10.90497 -66.4425,37.16997 -99.69872,67.49578 l -9.02588,8.23055 -6.25898,-0.73799 c -11.15819,-1.31566 -11.01976,-2.30253 1.9823,-14.13166 56.35653,-51.27259 107.09146,-80.19734 144.82844,-82.56888 31.48102,-1.9784 52.78148,15.41199 61.36907,50.10369 12.72124,51.39065 -9.10167,134.25971 -67.19745,255.17162 -6.56125,13.65561 -14.73862,31.35338 -18.17193,39.32838 -31.47134,73.10255 -55.61047,100.90688 -77.78293,89.59325 -5.3694,-2.73977 -8.42153,-5.78495 -13.5267,-13.49591 l -3.57693,-5.40265 -2.80656,4.69243 c -13.16724,22.01496 -17.46016,28.05824 -26.48152,37.27891 -11.13344,11.37939 -24.1573,15.81766 -34.82505,11.86767 -2.475,-0.91642 -5.175,-1.87846 -6,-2.13785 -1.0376,-0.32624 -2.4983,1.47202 -4.73846,5.83354 -3.77134,7.34267 -8.96856,13.03137 -14.69848,16.08847 -3.304,1.7628 -5.74445,2.1674 -13.06306,2.1658 -7.90006,0 -9.64602,-0.3413 -14.2859,-2.7779 -2.90725,-1.5267 -7.08164,-4.3982 -9.27643,-6.381 -2.19479,-1.9829 -4.12033,-3.4296 -4.27897,-3.215 -0.15865,0.2146 -2.94256,4.4402 -6.18647,9.3902 -7.39861,11.2899 -19.02709,22.9936 -27.05368,27.2288 -11.44902,6.041 -23.22792,7.6722 -34.154,4.7296 z m 102.53511,-43.8609 c 5.00718,-2.60068 9.3154,-10.05644 13.77995,-23.84746 1.55794,-4.8125 3.15052,-8.75 3.53906,-8.75 0.38854,0 3.33329,2.18654 6.54388,4.85898 7.34688,6.1154 11.28314,8.14102 15.81991,8.14102 5.65626,0 10.17338,-2.47066 17.00209,-9.29936 5.61185,-5.61186 19.51545,-25.21339 19.51545,-27.51323 0,-0.47896 -1.86738,-1.43032 -4.14974,-2.11413 -5.94338,-1.78068 -14.23119,-9.99019 -17.94833,-17.77877 -4.19946,-8.79918 -7.53203,-22.69554 -8.96434,-37.38008 -1.44724,-14.8376 -0.66867,-45.35131 1.63898,-64.2349 0.86463,-7.07533 1.35947,-13.07683 1.09963,-13.33666 -0.25984,-0.25984 -1.25036,1.91922 -2.20116,4.84235 -3.47792,10.6925 -20.53478,56.96464 -29.78999,80.81478 -9.25953,23.86129 -20.57937,48.91036 -35.95824,79.57011 l -7.55913,15.0701 2.51859,3.21817 c 3.89046,4.97109 11.89452,9.12108 17.61339,9.13228 2.63981,0 6.01481,-0.6218 7.5,-1.3932 z m -15.52885,-67.09746 c 5.46748,-11.55 13.75607,-30.9 18.41909,-43 33.1025,-85.89731 52.72664,-146.61494 58.78455,-181.88099 1.53304,-8.92461 2.06767,-23.74356 0.89877,-24.91246 -2.15555,-2.15555 -17.70302,11.67715 -27.0179,24.03802 -11.49511,15.25403 -25.29049,41.2718 -34.60034,65.25543 -7.14514,18.40701 -26.39268,76.53388 -29.13942,88 -5.11784,21.36413 -11.62451,69.57007 -11.60799,86 0.008,8.04269 1.37341,18.35856 3.16929,23.94597 l 1.10759,3.44596 5.02274,-9.94596 c 2.7625,-5.47028 9.49613,-19.39597 14.96362,-30.94597 z m 110.43014,-24.5 c 41.50754,-83.41426 68.86464,-156.9337 85.02645,-228.5 3.08972,-13.68163 3.6166,-17.81123 3.63623,-28.5 0.0258,-14.08062 -1.66391,-20.27614 -7.44005,-27.27902 -14.89999,-18.06444 -39.10815,-4.41548 -61.68499,34.77902 -22.86414,39.69327 -44.20899,116.57687 -54.6807,196.95846 -1.90883,14.65232 -1.93172,21.96165 -0.11128,35.54154 3.34364,24.94249 11.31135,38.57578 22.05339,37.73485 2.85166,-0.22324 3.50439,-1.24848 13.20095,-20.73485 z M 183.92376,543.53327 c -1.18122,-0.48844 -2.52457,-1.48211 -2.98523,-2.20815 -1.4119,-2.22533 -5.17512,-14.74252 -7.91297,-26.32008 -1.43069,-6.05 -2.90566,-11.59705 -3.2777,-12.32677 -0.37203,-0.72972 -2.92643,-2.12311 -5.67643,-3.09642 -30.4602,-10.7808 -54.66707,-42.65695 -65.969981,-86.87074 -3.57703,-13.99236 -5.51415,-26.11918 -6.2165,-38.91677 -0.51335,-9.35392 -0.32169,-11.97939 1.15721,-15.85183 3.33757,-8.7393 11.219291,-9.23067 17.793551,-1.10931 4.73344,5.84734 4.9633,6.37808 3.74678,8.65117 -0.80596,1.50596 -2.09137,2.02067 -5.04624,2.02067 l -3.96482,0 0,4.96973 c 0,6.92601 2.75856,24.80132 5.48311,35.53027 9.36792,36.88965 27.68332,63.97162 51.34596,75.92239 l 5.32906,2.69143 -0.79009,-5.80691 c -1.32932,-9.76994 -0.70585,-38.90411 1.08725,-50.80691 2.10652,-13.98332 5.77793,-29.07254 10.19961,-41.91965 4.03915,-11.73565 16.45102,-37.62547 21.85173,-45.58035 14.19395,-20.90672 38.40846,-34.23907 59.49337,-32.75666 27.24905,1.91578 37.40011,32.68374 25.98364,78.75666 -15.71081,63.40344 -53.56719,109.24163 -93.98364,113.7996 l -6.5,0.73304 0.29265,3.72858 c 0.16095,2.05072 2.07345,9.81855 4.25,17.26185 4.3011,14.70881 4.59581,16.70217 2.70176,18.27409 -1.94513,1.61432 -6.01975,2.21203 -8.39208,1.23107 z m 9.89339,-55.49247 c 34.54123,-7.31977 67.69341,-52.42866 79.80496,-108.58754 2.724,-12.63063 3.24323,-32.60894 1.05124,-40.44822 -2.90141,-10.37638 -9.05223,-15.49672 -18.60192,-15.48544 -14.59556,0.0172 -32.11663,9.69207 -42.14898,23.27392 -5.99845,8.12075 -19.25153,35.39384 -23.68614,48.74296 -9.30458,28.00879 -12.47463,59.2106 -9.01036,88.68611 0.72177,6.14118 1.0951,6.25439 12.5912,3.81821 z"
       id="path3792"
       inkscape:connector-curvature="0" />
  </g>
</svg>
