<?xml version="1.0" encoding="UTF-8" standalone="no"?>
<!-- Created with Inkscape (http://www.inkscape.org/) -->

<svg
   xmlns:dc="http://purl.org/dc/elements/1.1/"
   xmlns:cc="http://creativecommons.org/ns#"
   xmlns:rdf="http://www.w3.org/1999/02/22-rdf-syntax-ns#"
   xmlns:svg="http://www.w3.org/2000/svg"
   xmlns="http://www.w3.org/2000/svg"
   xmlns:sodipodi="http://sodipodi.sourceforge.net/DTD/sodipodi-0.dtd"
   xmlns:inkscape="http://www.inkscape.org/namespaces/inkscape"
   id="svg2985"
   version="1.1"
   inkscape:version="0.48.1 "
   width="298"
   height="123"
   sodipodi:docname="Sudeep Bandho.jpg">
  <metadata
     id="metadata2991">
    <rdf:RDF>
      <cc:Work
         rdf:about="">
        <dc:format>image/svg+xml</dc:format>
        <dc:type
           rdf:resource="http://purl.org/dc/dcmitype/StillImage" />
        <dc:title></dc:title>
      </cc:Work>
    </rdf:RDF>
  </metadata>
  <defs
     id="defs2989" />
  <sodipodi:namedview
     pagecolor="#ffffff"
     bordercolor="#666666"
     borderopacity="1"
     objecttolerance="10"
     gridtolerance="10"
     guidetolerance="10"
     inkscape:pageopacity="0"
     inkscape:pageshadow="2"
     inkscape:window-width="1366"
     inkscape:window-height="706"
     id="namedview2987"
     showgrid="false"
     inkscape:zoom="1.6107383"
     inkscape:cx="149"
     inkscape:cy="61.5"
     inkscape:window-x="-8"
     inkscape:window-y="-8"
     inkscape:window-maximized="1"
     inkscape:current-layer="svg2985" />
  <path
     style="fill:#000000"
     d="m 292.36384,118.54229 c -1.14464,-0.80174 -3.08093,-3.78172 -4.30286,-6.62217 -1.90817,-4.43566 -2.17507,-6.58302 -1.89134,-15.21645 L 286.5,86.651696 283.34694,84.790411 C 278.79161,82.101358 258.93004,80.022337 237.5,79.99136 c -9.9,-0.01431 -22.05,-0.434993 -27,-0.934851 -12.92364,-1.305046 -36.24251,-1.590424 -48.82568,-0.59753 -9.86435,0.77836 -10.77456,1.017912 -10.25,2.697618 1.80165,5.769111 1.71647,6.297618 -0.48602,3.015612 -1.22826,-1.830285 -2.27936,-4.641759 -2.33576,-6.247719 -0.11859,-3.376981 -0.54524,-3.433579 -16.69892,-2.215268 -9.18347,0.692618 -9.27918,0.725364 -4.08821,1.398739 5.09073,0.660372 7.01515,1.394815 6.08692,2.323039 -0.64759,0.647593 -24.81431,-2.447036 -27.71152,-3.548553 -3.55408,-1.35126 -1.64551,-2.804389 4.66497,-3.551772 5.89022,-0.69761 7.98653,-2.339705 2.95324,-2.313346 -6.21914,0.03257 -21.566756,1.940057 -24.440087,3.037551 L 86.5,74.150694 89,75.525071 c 1.375,0.755907 6.665767,2.334685 11.75726,3.508396 5.64536,1.301389 9.0097,2.534577 8.62277,3.160643 -0.99568,1.611044 -54.536678,0.04308 -61.13003,-1.79021 -7.324913,-2.036702 -6.580282,-3.343735 1,-1.755276 7.142302,1.496679 17.373352,1.769822 18.167402,0.485023 C 68.311803,77.686476 65.137056,75.523189 49.728931,67.080641 13.509175,47.234811 6,40.384649 6,27.189402 6,16.91738 13.434588,9.1202687 27.33408,4.815036 33.078562,3.0357385 36.979511,2.5883124 47,2.5594192 65.800277,2.5052101 78.189471,6.5663237 92,17.310187 c 8.11897,6.316133 15.12921,12.89394 14.45748,13.565668 -0.28038,0.28038 -3.08551,-1.966707 -6.23363,-4.993527 C 86.987114,13.155608 80.108349,9.2648907 64.870897,5.8862472 51.54802,2.9321279 35.595268,3.6045243 25.081429,7.5633432 8.5336945,13.794129 3.0325362,25.775561 10.971641,38.29423 15.71941,45.780685 23.399288,50.984078 53.415264,67.051308 62.631148,71.984472 67.853227,75.396201 68.878285,77.153726 70.799071,80.447037 73.74264,80.99767 89,80.917752 l 11.5,-0.06024 -6.330781,-1.809539 C 86.672028,76.90504 85.084791,75.67959 86.623875,73.222476 87.338209,72.082057 90.202923,71.073773 95.101399,70.23867 103.57627,68.793854 123.5,68.977197 123.5,70.5 c 0,0.55 -3.375,1.778667 -7.5,2.730371 l -7.5,1.730371 13,-0.510006 c 7.15,-0.280503 16.7125,-0.783554 21.25,-1.11789 7.94985,-0.585769 8.25,-0.530118 8.25,1.529635 C 151,76.852618 151.50851,77 158.375,77 167.58881,77 172,76.150137 172,74.375 c 0,-1.856683 7.61161,-1.867472 8.70031,-0.01233 1.13306,1.93072 22.46892,3.360828 22.07249,1.479483 -0.56994,-2.704834 11.85908,-2.067415 14.67932,0.752825 1.18267,1.18267 4.3152,1.438708 15.76195,1.288306 21.35188,-0.280549 21.24805,-0.286013 35.9153,1.890258 13.87528,2.058762 18.25605,3.714736 19.40519,7.335346 0.3369,1.061481 0.30341,5.881664 -0.0744,10.711518 -0.60853,7.778874 -0.43321,9.371434 1.53549,13.947794 1.22791,2.85436 3.06866,5.43482 4.11341,5.76641 1.04003,0.33009 1.89096,1.01984 1.89096,1.53278 0,1.33287 -1.23897,1.15395 -3.63616,-0.5251 z m -80.1255,-42.249551 c -1.24391,-0.239193 -3.04391,-0.230112 -4,0.02018 -0.95609,0.250292 0.0617,0.445996 2.26166,0.434897 2.2,-0.0111 2.98225,-0.215885 1.73834,-0.455078 z"
     id="path2997"
     inkscape:connector-curvature="0" />
</svg>
