<?xml version="1.0" encoding="UTF-8" standalone="no"?>
<!-- Created with Inkscape (http://www.inkscape.org/) -->

<svg
   xmlns:dc="http://purl.org/dc/elements/1.1/"
   xmlns:cc="http://creativecommons.org/ns#"
   xmlns:rdf="http://www.w3.org/1999/02/22-rdf-syntax-ns#"
   xmlns:svg="http://www.w3.org/2000/svg"
   xmlns="http://www.w3.org/2000/svg"
   xmlns:sodipodi="http://sodipodi.sourceforge.net/DTD/sodipodi-0.dtd"
   xmlns:inkscape="http://www.inkscape.org/namespaces/inkscape"
   id="svg2"
   version="1.1"
   inkscape:version="0.48.5 r10040"
   width="249"
   height="116"
   sodipodi:docname="Signature de Cherif Guellal.svg">
  <title
     id="title2993">Reda Kerbouche</title>
  <metadata
     id="metadata8">
    <rdf:RDF>
      <cc:Work
         rdf:about="">
        <dc:format>image/svg+xml</dc:format>
        <dc:type
           rdf:resource="http://purl.org/dc/dcmitype/StillImage" />
        <dc:title>Reda Kerbouche</dc:title>
      </cc:Work>
    </rdf:RDF>
  </metadata>
  <defs
     id="defs6">
    <filter
       inkscape:collect="always"
       id="filter3802">
      <feGaussianBlur
         inkscape:collect="always"
         stdDeviation="2.6721365"
         id="feGaussianBlur3804" />
    </filter>
    <filter
       inkscape:collect="always"
       id="filter3823">
      <feGaussianBlur
         inkscape:collect="always"
         stdDeviation="3.3096715"
         id="feGaussianBlur3825" />
    </filter>
  </defs>
  <sodipodi:namedview
     pagecolor="#ffffff"
     bordercolor="#666666"
     borderopacity="1"
     objecttolerance="10"
     gridtolerance="10"
     guidetolerance="10"
     inkscape:pageopacity="0"
     inkscape:pageshadow="2"
     inkscape:window-width="1366"
     inkscape:window-height="706"
     id="namedview4"
     showgrid="false"
     inkscape:zoom="1.8035023"
     inkscape:cx="132.67274"
     inkscape:cy="93.229387"
     inkscape:window-x="-8"
     inkscape:window-y="-8"
     inkscape:window-maximized="1"
     inkscape:current-layer="svg2" />
  <path
     sodipodi:nodetypes="ccccsaaascssscsaaacaacacccaccaccccscccaacaacccccaaaaccsasacccaaaacaaaaaaccsscscsccaaacccsssscssssccaaaaascaaaacaacaaaaaccsaaaaaaaaccc"
     inkscape:connector-curvature="0"
     id="path3005"
     d="m 25.539937,108.26343 1.008656,-16.997297 4.860984,-5.054428 -0.845389,10.108848 c 0,0 0.211348,1.895404 1.056736,1.263609 0.845389,-0.631805 1.139769,-5.144793 2.113471,-7.581638 0.501284,-1.254542 1.25602,-2.393245 1.902124,-3.580211 0.691648,-1.270636 1.239905,-2.636795 2.113471,-3.790819 0.419977,-0.554812 1.007602,-1.985972 1.479431,-1.474208 2.038116,2.210613 4.015595,6.318028 4.015595,6.318028 0,0 2.076066,4.262624 1.902123,7.371031 -0.04095,0.731779 1.992034,0.09104 2.113471,-0.631805 0.24677,-1.468892 0.931352,-2.359954 1.268083,-3.580211 1.047665,-3.796567 2.324819,-11.583056 2.324819,-11.583056 0.01406,-0.04672 2.010549,3.011016 3.381556,6.10743 0.31795,0.718077 1.561164,0.61344 2.32482,0.421206 1.312063,-0.330281 2.372911,-1.437606 3.170207,-2.527218 1.865445,-2.549383 2.362381,-5.858041 3.381552,-8.845239 0.473495,-1.387816 1.268077,-4.212016 1.268077,-4.212016 0,0 -0.185134,-10.326426 3.592906,-12.425449 1.597443,-0.887521 3.664681,0.626351 5.283673,1.474199 0.487062,0.255072 1.268087,1.05301 1.268087,1.05301 0,0 -4.430274,4.363335 -7.185803,5.686224 -0.846754,0.40652 -2.747509,0.631805 -2.747509,0.631805 l -0.422698,2.316611 11.201398,-7.371039 c 0,0 0.673673,2.50775 0.845388,3.790819 0.400863,2.995363 0.422698,9.055836 0.422698,9.055836 l 2.113466,-1.474198 c 0,0 -0.01957,-9.0051 0.422698,-13.478461 0.04199,-0.424958 0.211345,-1.263609 0.211345,-1.263609 L 92.277547,47.882342 91.009461,47.671741 79.385373,56.095777 c 0,0 1.543924,-9.234822 1.690776,-13.89966 0.152667,-4.849568 -0.845388,-14.531463 -0.845388,-14.531463 l -1.690776,2.737812 0.501256,0.126117 c 0,0 0.435749,2.672322 0.448337,4.020768 0.03027,3.240119 -0.593888,6.453446 -0.896674,9.679627 -0.442633,4.71625 -1.345001,14.147151 -1.345001,14.147151 0,0 -1.508715,-0.122258 -2.241675,-0.297836 -1.309765,-0.313755 -2.552176,-0.861989 -3.810849,-1.340258 -0.981055,-0.372781 -2.914176,-1.19134 -2.914176,-1.19134 l 7.771135,-20.699509 2.839458,-4.616437 1.494447,-3.4251 -1.345002,0.521211 c 0,0 -0.694724,1.242487 -1.046119,1.861467 -0.988743,1.741649 -2.070652,3.432544 -2.988894,5.212107 -0.927517,1.797542 -1.782236,3.635276 -2.540566,5.509942 -0.848148,2.096696 -1.446585,4.286202 -2.241675,6.403445 -1.128212,3.004321 -3.586677,8.935039 -3.586677,8.935039 l -3.287794,12.657973 c 0,0 -2.147391,0.984258 -3.13834,0.595672 -0.862249,-0.338117 -1.113398,-1.0758 -1.195564,-1.787007 -0.09736,-0.84267 0.434364,-1.747232 0.896673,-2.382678 1.064291,-1.462915 1.880202,-3.179513 3.287785,-4.318603 0.812976,-0.657904 2.839458,-1.340253 2.839458,-1.340253 l 1.345001,-2.382682 -2.839448,0.446753 c 0,0 -2.124513,1.340386 -2.988903,2.233756 -1.515425,1.566246 -2.784056,3.403125 -3.736122,5.361029 -0.522243,1.07396 -1.248494,2.248851 -1.04612,3.425095 0.198664,1.154677 1.107031,2.190132 2.09223,2.829432 0.769728,0.499477 2.690012,0.595672 2.690012,0.595672 0,0 -1.016042,4.033835 -1.793338,5.956691 -0.774168,1.915122 -0.858069,4.906154 -2.839458,5.509937 -1.087345,0.331348 -2.271079,-0.759377 -2.988899,-1.638088 -1.283222,-1.570853 -0.318082,-4.414365 -1.793339,-5.807773 -0.447206,-0.422393 -1.250616,-0.737481 -1.793341,-0.446754 -0.790998,0.423726 -0.659827,1.6684 -0.89667,2.531596 -1.325619,4.831369 -2.914176,14.742815 -2.914176,14.742815 l -2.764733,-6.105609 c 0,0 -2.506002,-4.116585 -3.736124,-6.8502 -0.347096,-0.771323 -2.385579,-0.980018 -2.540565,-0.148917 -0.314986,1.689082 -3.736124,6.403445 -3.736124,6.403445 0,0 -0.525508,-3.07724 -1.046116,-2.382679 -1.685746,2.249008 -5.380019,3.871849 -5.380019,3.871849 0,0 0.908594,-11.722896 1.49445,-17.572238 1.603464,-16.009437 5.529465,-47.951386 5.529465,-47.951386 l -1.345005,-0.744587 c 0,0 -0.893286,6.552825 -1.345005,9.828545 -0.890002,6.454001 -1.853071,12.898207 -2.69001,19.359253 -0.912021,7.040676 -1.963322,14.070513 -2.540564,21.146264 -0.468642,5.744529 -0.747225,17.274411 -0.747225,17.274411 l -1.79334,0.744581 0.448335,-29.336712 c 0,0 2.668462,-10.056098 3.437234,-15.189568 0.493979,-3.298543 0.256833,-6.678387 0.747225,-9.977461 0.837606,-5.63492 1.784087,-11.324736 3.736125,-16.678741 0.55538,-1.523285 1.857162,-2.743846 2.241674,-4.318603 0.388638,-1.591656 0,-4.9142729 0,-4.9142729 0,0 -1.338598,0.2117766 -1.494449,0.7445871 -1.325043,4.5299358 -3.015614,9.7703618 -4.18446,14.7428168 -0.866784,3.687433 -1.633148,7.40929 -2.09223,11.1688 -0.313412,2.566595 -0.118377,5.179166 -0.448335,7.743701 -0.355314,2.761615 -1.643894,8.190454 -1.643894,8.190454 l -1.046115,5.063188 c 0,0 0.821055,-9.344574 0.448335,-13.998229 -0.125135,-1.562402 0.07723,-3.38564 -0.89667,-4.616437 -0.745369,-0.941988 -2.099501,-1.297021 -3.287789,-1.489173 -0.939426,-0.15191 -2.018553,-0.182004 -2.839455,0.297834 -1.788213,1.045255 -2.638553,3.226042 -3.586679,5.06319 -1.5923,3.085336 -2.046021,6.01747 -3.4372348,9.828544 -0.2772104,0.759386 1.7933388,1.63809 1.7933388,1.63809 0,0 1.805507,-6.418189 2.9889,-9.530709 0.560888,-1.475229 0.835122,-3.191476 1.942784,-4.318603 0.732754,-0.74563 1.79407,-1.403325 2.839455,-1.340256 1.117407,0.06741 2.311385,0.803419 2.839455,1.787008 0.940247,1.751314 -0.149445,5.956694 -0.149445,5.956694 0,0 -0.28995,9.529684 -0.29889,14.296064 -0.01089,5.80861 0.180515,11.615905 0.29889,17.423329 0.08601,4.219622 0.29889,12.657972 0.29889,12.657972 0,0 -0.686859,1.75 -1.345004,2.382679 -1.250698,1.202296 -2.909159,2.603494 -4.632795,2.382678 -2.956357,-0.378737 -5.294472,-3.311592 -6.6503016,-5.956691 -1.822956,-3.556429 -1.0582712,-7.925502 -1.2702822,-11.913392 -0.2450823,-4.609973 -0.6425746,-9.277498 0,-13.849316 0.5533133,-3.93673 3.2877898,-11.46663 3.2877898,-11.46663 l -1.345005,-0.893504 c 0,0 -1.9427848,4.020768 -1.9427848,4.616437 0,0.595669 -1.3385355,4.534305 -1.79334,6.850198 -0.5114487,2.604322 -0.8906453,5.243425 -1.0461148,7.892616 -0.2006824,3.419623 -0.018301,6.853924 0.1494447,10.275303 0.1463549,2.98511 -0.1829959,6.093746 0.7472254,8.935033 0.7419297,2.266168 2.0988678,4.367693 3.7361235,6.105618 0.832358,0.883539 1.835496,1.700652 2.988901,2.084842 1.370928,0.45665 2.935577,0.513861 4.333904,0.148909 1.297543,-0.33865 2.402656,-1.234181 3.437235,-2.084842 0.571202,-0.469663 1.494449,-1.638089 1.494449,-1.638089 l 0.747225,15.785239 z"
     style="fill:#cccccc;stroke:#000000;stroke-width:0;stroke-linecap:butt;stroke-linejoin:miter;stroke-opacity:1;stroke-miterlimit:4;stroke-dasharray:none;filter:url(#filter3802)" />
  <path
     sodipodi:nodetypes="ccccssccaassssscsssssaassaaaassascssssaassaaaasssaacaaaaaaaaaaaaaaaascsaaaaaaaaaaaaaaaaaaaacaccccaccccaacccccaaaacaacsssssssssssscsssscccccccc"
     inkscape:connector-curvature="0"
     id="path3007"
     d="m 102.09079,44.526078 3.71002,1.019843 2.17485,4.33433 0.76759,9.051103 c 0,0 -0.76759,5.226687 -1.15139,6.246536 -0.38379,1.019839 -2.4307,3.314489 -3.1983,2.549603 -0.76759,-0.764877 -2.17484,-5.481649 -2.17484,-5.481649 l -0.63966,-11.473231 c 0,0 0.7202,-8.274191 1.40725,-12.36559 0.64885,-3.86398 1.503,-7.699388 2.55864,-11.473228 1.1116,-3.973878 4.47762,-11.728188 3.96589,-11.728188 -0.51173,0 -0.3838,-1.402283 0.7676,-0.764882 1.15138,0.637402 2.28134,3.939144 2.8145,6.119055 0.62678,2.562665 0.33305,5.266588 0.3838,7.903779 0.0818,4.248775 -0.17826,8.49877 -0.12793,12.748031 0.0599,5.059223 0.51172,15.170157 0.51172,15.170157 0,0 1.36659,-9.64715 2.8145,-14.277795 0.31815,-1.017486 0.12793,-3.569449 1.27933,-2.932047 1.15138,0.637402 1.83336,4.480388 2.94243,6.628976 0.99689,1.931242 1.95199,3.923543 3.32624,5.609134 0.83746,1.027191 1.91897,2.804567 2.94243,2.677086 1.02345,-0.127481 3.77007,-4.77254 4.98935,-7.521338 1.26275,-2.846793 0.90378,-6.268271 2.30277,-9.051102 0.51605,-1.026511 1.03221,-2.529662 2.17485,-2.677086 0.78665,-0.101496 1.91897,0.38244 1.91897,1.402283 0,1.019842 -0.50512,5.772857 1.27933,7.648818 0.8114,0.853008 2.35361,1.187605 3.45416,0.764882 2.34053,-0.899011 2.98145,-4.024104 4.34969,-6.119055 1.40819,-2.156117 1.67556,-5.441871 3.96589,-6.628976 1.02426,-0.530889 3.62468,-0.88289 3.45417,0.254961 -0.42603,2.84298 -0.25587,5.609134 -0.3838,6.756456 -0.12794,1.147323 1.7863,-2.326205 2.55863,-3.569448 0.81332,-1.309221 2.43072,-2.804567 2.17485,-4.07937 -0.25586,-1.274804 1.02345,-3.824409 1.02345,-3.824409 0,0 2.43072,-1.784725 2.17485,-0.254961 -0.25586,1.529763 -0.76759,2.422126 -1.27932,2.422126 -0.51173,0 -0.89553,2.167165 -0.76759,2.932047 0.12793,0.764882 -1.02346,4.334331 0.63966,3.441968 1.66312,-0.892362 2.614,-4.719537 4.47762,-6.628976 0.51152,-0.524096 1.07025,-1.138429 1.79105,-1.274803 0.69096,-0.130727 1.53518,-0.382441 2.04691,0.509921 0.51173,0.892362 1.15139,3.569449 1.66311,0.892362 0.51173,-2.677086 -0.23644,-4.421555 -0.12793,-6.628976 0.0714,-1.452999 0.16764,-2.920575 0.51173,-4.33433 0.25764,-1.058505 0.4356,-2.23636 1.15139,-3.059528 0.98731,-1.135433 2.63356,-2.870399 3.96589,-2.167165 0.79495,0.41959 0,3.569449 0.25587,2.677087 0.25586,-0.892362 1.91897,-3.95189 2.30277,-2.549607 0.3838,1.402284 -1.91398,4.411849 -0.3838,4.589292 3.40075,0.394357 6.87657,-0.11352 10.23457,0.509921 4.01691,0.745775 7.92849,2.125441 11.6418,3.824409 3.30321,1.511328 9.33904,5.609133 9.33904,5.609133 0,0 5.44459,4.421429 7.93178,6.883938 2.05751,2.037076 4.05713,4.159677 5.75695,6.501495 2.72183,3.749823 5.17578,7.742827 7.03626,11.983149 1.41046,3.214659 2.22803,6.664354 3.07036,10.070945 0.87238,3.528104 1.92742,7.076671 2.04692,10.708345 0.10278,3.123829 -0.30073,6.297696 -1.1514,9.306063 -1.25771,4.447859 -2.99331,8.909715 -5.75693,12.620552 -2.77319,3.723685 -6.39578,6.975346 -10.49042,9.178586 -4.78841,2.57653 -10.29666,4.1563 -15.73564,4.33432 -6.31093,0.20657 -13.23121,-0.4335 -18.55014,-3.8244 -5.1369,-3.27485 -9.26185,-8.79978 -10.87422,-14.66024 -1.33731,-4.860724 0.30986,-10.152724 1.53518,-15.042674 1.52899,-6.101829 4.08092,-11.977169 7.16419,-17.464805 3.87505,-6.896866 8.95879,-13.079608 14.07252,-19.122046 3.44128,-4.066257 7.36303,-7.704577 11.13009,-11.473228 3.27735,-3.278745 6.60496,-6.508309 9.9787,-9.688503 2.06099,-1.94275 4.59566,-3.965422 6.26867,-5.736614 0.26467,-0.280199 1.15138,0.12748 1.15138,0.12748 0,0 0.36207,0.76897 0.12793,1.019843 -4.28752,4.594038 -8.53433,7.982913 -12.7932,11.983149 -3.11706,2.927769 -6.44388,5.650257 -9.33903,8.796141 -3.38498,3.678126 -6.27075,7.783846 -9.33904,11.728189 -2.29386,2.948794 -4.80471,5.754351 -6.7804,8.923622 -2.06294,3.309244 -3.58324,6.92717 -5.24521,10.45338 -1.4854,3.151602 -3.17381,6.239436 -4.22175,9.561025 -0.92552,2.933572 -1.49112,5.990534 -1.79105,9.0511 -0.21966,2.241495 -0.70413,4.616393 0,6.75646 1.61559,4.910283 4.91703,9.595921 9.21111,12.493071 5.21581,3.51905 11.99716,4.86655 18.29427,4.71677 5.17797,-0.12317 10.28934,-2.12473 14.84011,-4.58929 3.80424,-2.06026 7.32596,-4.876311 9.9787,-8.286222 2.80483,-3.60541 4.68682,-7.962702 5.88487,-12.36559 0.77293,-2.840542 0.96697,-5.859743 0.76759,-8.796139 -0.39248,-5.780404 -1.73028,-11.555346 -3.83796,-16.95488 -2.08425,-5.339512 -5.14013,-10.318137 -8.57144,-14.915197 -3.4024,-4.558333 -7.35553,-8.770427 -11.76975,-12.36559 -2.49195,-2.029572 -5.24821,-3.793113 -8.18764,-5.099212 -2.67492,-1.188569 -5.59279,-1.752718 -8.44352,-2.422126 -2.74355,-0.644241 -5.50337,-1.339308 -8.31558,-1.529763 -2.72592,-0.18461 -8.18764,0.38244 -8.18764,0.38244 0,0 -0.68695,2.324643 -1.1514,3.441969 -0.65683,1.580136 -2.30277,4.589291 -2.30277,4.589291 l 2.30277,2.422125 -1.02345,0.509922 -2.17485,-0.382441 c 0,0 -0.51419,1.252059 -0.63965,1.912204 -0.15098,0.794373 -0.12793,2.422127 -0.12793,2.422127 l -2.17485,-0.509922 -0.63966,-4.716772 -1.27931,0 c 0,0 -1.45684,2.433608 -2.30279,3.569449 -0.90138,1.210285 -1.68857,2.599074 -2.94243,3.441969 -0.44716,0.300603 -1.53518,0.509921 -1.53518,0.509921 l -2.04692,-0.254961 -3.1983,4.334331 -2.68657,0.509921 -0.89552,-6.119054 c 0,0 -0.96498,0.66908 -1.27933,1.147322 -0.96053,1.461334 -0.73098,3.492244 -1.6631,4.971732 -1.13846,1.806986 -2.5717,3.794926 -4.60556,4.461811 -1.79882,0.589817 -4.17126,0.439599 -5.62901,-0.764882 -1.66092,-1.372354 -2.04691,-6.119055 -2.04691,-6.119055 0,0 -1.07859,3.780003 -1.79104,5.609134 -0.88369,2.26876 -1.71933,4.601613 -3.07037,6.628976 -0.73472,1.102506 -2.68658,2.932047 -2.68658,2.932047 0,0 2.04691,1.402284 1.91898,2.03968 -0.12793,0.637405 -2.81624,-0.329518 -4.09382,-0.892357 -1.4826,-0.653161 -2.95895,-1.538693 -3.9659,-2.804567 -1.54458,-1.941761 -1.43907,-4.819746 -2.8145,-6.883937 -0.40031,-0.600767 -1.02345,-2.422125 -1.53518,-1.529763 -0.51173,0.892362 -0.51173,5.354172 -0.89552,6.501496 -0.3838,1.147322 -3.9659,10.835824 -4.60555,10.963305 -0.63967,0.127481 -1.58002,-2.791745 -1.91899,-4.334329 -0.58382,-2.656965 -0.15591,-5.438971 -0.12793,-8.15874 0.0364,-3.529073 0.17856,-7.057537 0.3838,-10.580866 0.12395,-2.127878 0.40094,-4.245417 0.51172,-6.374016 0.18559,-3.565668 0.68916,-7.164087 0.25587,-10.708345 -0.17639,-1.442832 -1.15139,-4.20685 -1.15139,-4.20685 0,0 -1.03911,-0.16531 -1.40725,0.12748 -1.40182,1.114911 -1.17514,3.379378 -1.66312,5.099212 -0.69224,2.439763 -1.20647,4.92628 -1.79105,7.393858 -0.91501,3.86237 -2.10226,7.67512 -2.68657,11.600708 -0.36998,2.485676 -0.51173,7.521338 -0.51173,7.521338 l 0.25587,9.051099 0.76759,3.059527 2.17484,-4.844253 0,-6.756452 -3.45416,-2.677086 -2.17484,-1.402283 z"
     style="fill:#cccccc;stroke:#000000;stroke-width:0;stroke-linecap:butt;stroke-linejoin:miter;stroke-miterlimit:4;stroke-opacity:1;stroke-dasharray:none;filter:url(#filter3823)" />
  <path
     inkscape:connector-curvature="0"
     id="path3009"
     d="m 129.41123,53.112856 -0.90462,1.442275 1.26647,0.360569 0.72368,-1.532417 z"
     style="fill:#e6e6e6;stroke:#000000;stroke-width:0.92127192px;stroke-linecap:butt;stroke-linejoin:miter;stroke-opacity:1" />
  <g
     id="g3011"
     transform="matrix(0.97278868,0,0,0.95480251,0.09556419,5.6567318)">
    <path
       sodipodi:nodetypes="ccccsaaascssscsaaacaacacccaccaccccscccaacaacccccaaaaccsasacccaaaacaaaaaaccsscscsccaaacccsssscssssccaaaaascaaaacaacaaaaaccsaaaaaaaaccc"
       inkscape:connector-curvature="0"
       id="path3013"
       d="m 24.981886,111.46082 1.092917,-18.48247 5.267061,-5.49607 -0.916011,10.99213 c 0,0 0.229003,2.06102 1.145013,1.37402 0.916011,-0.68701 1.234983,-5.59433 2.290026,-8.2441 0.54316,-1.36416 1.360946,-2.60236 2.061024,-3.89304 0.749427,-1.38166 1.343484,-2.86719 2.290026,-4.12205 0.455061,-0.60329 1.091775,-2.1595 1.603019,-1.60302 2.208377,2.40377 4.35105,6.87008 4.35105,6.87008 0,0 2.249496,4.63508 2.061023,8.01509 -0.04437,0.79572 2.158444,0.099 2.290026,-0.68701 0.267384,-1.59724 1.009155,-2.56616 1.374016,-3.89304 1.135184,-4.1283 2.519029,-12.59515 2.519029,-12.59515 0.01524,-0.0508 2.178506,3.27411 3.664045,6.64108 0.34451,0.78082 1.69158,0.66704 2.51903,0.45801 1.42167,-0.35914 2.57114,-1.56322 3.43504,-2.74804 2.02128,-2.77214 2.55973,-6.3699 3.66404,-9.61811 0.51305,-1.50908 1.37401,-4.58005 1.37401,-4.58005 0,0 -0.2006,-11.22872 3.89305,-13.51115 1.73089,-0.96507 3.97082,0.68108 5.72506,1.60301 0.52775,0.27736 1.37402,1.14502 1.37402,1.14502 0,0 -4.80037,4.74459 -7.78609,6.18307 -0.91749,0.44204 -2.97703,0.68701 -2.97703,0.68701 l -0.45801,2.51903 12.13714,-8.0151 c 0,0 0.72995,2.72687 0.91601,4.12205 0.43435,3.25709 0.45801,9.84711 0.45801,9.84711 l 2.29002,-1.60301 c 0,0 -0.0212,-9.79194 0.45801,-14.65617 0.0455,-0.46209 0.229,-1.37402 0.229,-1.37402 L 97.29462,45.803806 95.9206,45.574803 83.32546,54.734908 c 0,0 1.6729,-10.041735 1.83202,-15.114173 0.16542,-5.273309 -0.91601,-15.801181 -0.91601,-15.801181 l -1.83202,2.977034 0.54313,0.137137 c 0,0 0.47215,2.905822 0.48579,4.372091 0.0328,3.523232 -0.6435,7.01733 -0.97158,10.525406 -0.47961,5.128342 -1.45736,15.383288 -1.45736,15.383288 0,0 -1.63475,-0.13294 -2.42894,-0.32386 -1.41918,-0.34117 -2.76538,-0.937307 -4.1292,-1.457366 -1.06301,-0.405353 -3.15762,-1.295435 -3.15762,-1.295435 l 8.42032,-22.508174 3.07666,-5.019808 1.61929,-3.724375 -1.45736,0.566753 c 0,0 -0.75276,1.351052 -1.13351,2.024116 -1.07134,1.89383 -2.24363,3.73247 -3.23858,5.667526 -1.005,1.954607 -1.93112,3.952917 -2.7528,5.991385 -0.919,2.2799 -1.56743,4.660719 -2.42894,6.96296 -1.22246,3.26683 -3.8863,9.715758 -3.8863,9.715758 L 65.95,67.57798 c 0,0 -2.32678,1.07026 -3.40051,0.64772 -0.93428,-0.36766 -1.20641,-1.1698 -1.29544,-1.94315 -0.10549,-0.9163 0.47065,-1.8999 0.97158,-2.59087 1.1532,-1.59074 2.03727,-3.45733 3.56244,-4.69595 0.88089,-0.71539 3.07666,-1.45736 3.07666,-1.45736 l 1.45736,-2.590874 -3.07665,0.485788 c 0,0 -2.30199,1.457506 -3.23859,2.428936 -1.64202,1.7031 -3.01663,3.70048 -4.04823,5.82946 -0.56587,1.1678 -1.35279,2.44535 -1.13351,3.72437 0.21526,1.25557 1.19951,2.3815 2.26701,3.07666 0.83403,0.54312 2.91473,0.64772 2.91473,0.64772 0,0 -1.10092,4.3863 -1.94315,6.47717 -0.83884,2.08246 -0.92975,5.33484 -3.07666,5.99138 -1.17818,0.3603 -2.4608,-0.82573 -3.238586,-1.78122 -1.390419,-1.70811 -0.344653,-4.80008 -1.943151,-6.31524 -0.484564,-0.4593 -1.355089,-0.80192 -1.943152,-0.48579 -0.857077,0.46075 -0.714948,1.81418 -0.971576,2.7528 -1.436359,5.25352 -3.157621,16.031 -3.157621,16.031 l -2.995693,-6.6391 c 0,0 -2.715348,-4.47628 -4.048232,-7.44875 -0.376092,-0.83872 -2.584866,-1.06565 -2.752799,-0.16193 -0.341299,1.83667 -4.048232,6.96296 -4.048232,6.96296 0,0 -0.569408,-3.34612 -1.133506,-2.59087 -1.82657,2.44552 -5.829455,4.21016 -5.829455,4.21016 0,0 0.984496,-12.74721 1.619293,-19.10765 1.737414,-17.408297 5.991385,-52.141242 5.991385,-52.141242 l -1.457364,-0.809647 c 0,0 -0.967909,7.125392 -1.457364,10.687335 -0.964351,7.017933 -2.007872,14.025216 -2.914727,21.05081 -0.98821,7.65587 -2.127334,15.299954 -2.752798,22.993964 -0.507791,6.24647 -0.809647,18.7838 -0.809647,18.7838 l -1.943152,0.80964 0.485788,-31.90007 c 0,0 2.89138,-10.934771 3.724374,-16.516789 0.535245,-3.586761 0.278288,-7.261926 0.809647,-10.849264 0.907577,-6.127283 1.933126,-12.314259 4.048233,-18.136082 0.601775,-1.656385 2.012305,-2.983595 2.428939,-4.69595 0.421104,-1.73073 0,-5.343668 0,-5.343668 0,0 -1.450422,0.230281 -1.619293,0.809647 -1.435734,4.925749 -3.267532,10.624068 -4.534021,16.031002 -0.939193,4.009631 -1.769578,8.056693 -2.26701,12.144698 -0.339594,2.790857 -0.128266,5.631707 -0.485788,8.420324 -0.384997,3.002917 -1.781222,8.906112 -1.781222,8.906112 l -1.133505,5.505596 c 0,0 0.889644,-10.161077 0.485788,-15.221355 -0.135589,-1.69892 0.08368,-3.681468 -0.971576,-5.019808 -0.807636,-1.024296 -2.274889,-1.410351 -3.562445,-1.619293 -1.017903,-0.165183 -2.187178,-0.197907 -3.076657,0.323858 -1.937596,1.136586 -2.858972,3.507924 -3.886303,5.505597 -1.725317,3.354924 -2.216941,6.54326 -3.724374,10.687334 -0.300368,0.825739 1.943151,1.781222 1.943151,1.781222 0,0 1.956335,-6.978992 3.238586,-10.363475 0.607744,-1.604131 0.904887,-3.470338 2.105081,-4.69595 0.793966,-0.810781 1.943942,-1.525944 3.076657,-1.457364 1.210753,0.0733 2.504473,0.873619 3.076657,1.943152 1.018793,1.904338 -0.161929,6.477172 -0.161929,6.477172 0,0 -0.314172,10.362361 -0.323859,15.545214 -0.0118,6.31615 0.195595,12.63087 0.323859,18.94573 0.0932,4.58832 0.323858,13.76399 0.323858,13.76399 0,0 -0.744237,1.90291 -1.457363,2.59087 -1.355178,1.30735 -3.152184,2.83098 -5.019809,2.59087 C 12.062802,96.1515 9.529366,92.96238 8.060273,90.08616 6.085031,86.21898 6.913596,81.46815 6.683874,77.13181 6.418318,72.11903 5.98762,67.04367 6.683874,62.07238 7.28341,57.79167 10.246319,49.603828 10.246319,49.603828 L 8.788955,48.632253 c 0,0 -2.105081,4.372091 -2.105081,5.019808 0,0.647717 -1.450354,4.930499 -1.943152,7.448749 -0.554174,2.83188 -0.965048,5.70158 -1.133505,8.58225 -0.217447,3.71842 -0.01983,7.4528 0.161929,11.17313 0.158581,3.24594 -0.198283,6.6262 0.809647,9.71575 0.803909,2.46418 2.274203,4.74933 4.048232,6.63911 0.901891,0.96074 1.988829,1.84925 3.238587,2.26701 1.485453,0.49655 3.18081,0.55876 4.69595,0.16192 1.405937,-0.36824 2.603369,-1.34202 3.724374,-2.26701 0.61892,-0.5107 1.619293,-1.78122 1.619293,-1.78122 l 0.809646,17.16451 z"
       style="fill:#000000;stroke:#000000;stroke-width:1px;stroke-linecap:butt;stroke-linejoin:miter;stroke-opacity:1" />
    <path
       sodipodi:nodetypes="ccccssccaassssscsssssaassaaaassascssssaassaaaasssaacaaaaaaaaaaaaaaaascsaaaaaaaaaaaaaaaaaaaacaccccaccccaacccccaaaacaacsssssssssssscsssscccccccc"
       inkscape:connector-curvature="0"
       id="path3015"
       d="m 102.52047,42.154281 4.01995,1.108954 2.35653,4.713052 0.83172,9.841963 c 0,0 -0.83172,5.68338 -1.24758,6.79234 -0.41585,1.10895 -2.63376,3.6041 -3.46548,2.77238 -0.83171,-0.83171 -2.35652,-5.96062 -2.35652,-5.96062 l -0.6931,-12.475729 c 0,0 0.78037,-8.997166 1.52481,-13.44606 0.70306,-4.201604 1.62856,-8.372139 2.77239,-12.475726 1.20446,-4.321104 4.85167,-12.752964 4.29719,-12.752964 -0.55448,0 -0.41586,-1.524811 0.83172,-0.831715 1.24757,0.693096 2.47192,4.283335 3.04962,6.65372 0.67914,2.786584 0.36087,5.726768 0.41586,8.594389 0.0886,4.620021 -0.19315,9.241369 -0.13862,13.861918 0.0649,5.501283 0.55447,16.495682 0.55447,16.495682 0,0 1.48075,-10.490091 3.04962,-15.525348 0.34473,-1.106391 0.13862,-3.881337 1.3862,-3.188241 1.24757,0.693096 1.98652,4.871872 3.18824,7.208197 1.08016,2.099989 2.11505,4.266371 3.6041,6.099244 0.90742,1.116944 2.07928,3.049622 3.18824,2.911002 1.10895,-0.138619 4.08501,-5.189551 5.40615,-8.178531 1.36824,-3.095537 0.97928,-6.815974 2.49514,-9.841961 0.55916,-1.116205 1.11844,-2.750697 2.35653,-2.911003 0.85237,-0.110364 2.07928,0.415857 2.07928,1.524811 0,1.108953 -0.54732,6.277273 1.3862,8.31715 0.87918,0.927541 2.55023,1.291375 3.74271,0.831715 2.53606,-0.977564 3.23052,-4.375718 4.71306,-6.65372 1.52582,-2.344513 1.81553,-5.917367 4.29719,-7.208197 1.10983,-0.577277 3.92748,-0.960035 3.74272,0.277238 -0.46162,3.091392 -0.27724,6.099244 -0.41586,7.346816 -0.13862,1.247573 1.93553,-2.529462 2.77238,-3.881336 0.88126,-1.423617 2.63377,-3.049622 2.35653,-4.435814 -0.27724,-1.386192 1.10895,-4.158575 1.10895,-4.158575 0,0 2.63377,-1.940669 2.35653,-0.277239 -0.27724,1.66343 -0.83172,2.633765 -1.38619,2.633765 -0.55448,0 -0.97034,2.356526 -0.83172,3.188241 0.13862,0.831715 -1.10895,4.713052 0.6931,3.742717 1.80205,-0.970334 2.83237,-5.131916 4.85167,-7.208197 0.55425,-0.56989 1.15966,-1.237902 1.94067,-1.386191 0.74868,-0.14215 1.66343,-0.415858 2.2179,0.554476 0.55448,0.970334 1.24758,3.881337 1.80205,0.970334 0.55448,-2.911002 -0.25619,-4.807898 -0.13862,-7.208197 0.0774,-1.579958 0.18164,-3.175767 0.55448,-4.713052 0.27916,-1.150994 0.47199,-2.431766 1.24757,-3.32686 1.06979,-1.234644 2.85357,-3.121207 4.2972,-2.356526 0.86135,0.456252 0,3.881337 0.27724,2.911003 0.27724,-0.970334 2.07928,-4.297195 2.49514,-2.772384 0.41586,1.524811 -2.07387,4.797344 -0.41586,4.990291 3.68484,0.428815 7.45102,-0.123439 11.08954,0.554476 4.35248,0.810939 8.59082,2.311156 12.61434,4.158576 3.57915,1.643383 10.1192,6.099243 10.1192,6.099243 0,0 5.89942,4.807761 8.59439,7.485436 2.22938,2.21507 4.39605,4.523138 6.23787,7.069578 2.9492,4.077472 5.60815,8.419373 7.62405,13.030202 1.52829,3.495547 2.41416,7.246666 3.32686,10.950916 0.94525,3.83638 2.08843,7.69501 2.21791,11.64401 0.11137,3.39678 -0.32585,6.84797 -1.24758,10.1192 -1.36278,4.8365 -3.24337,9.68822 -6.23786,13.7233 -3.00485,4.04905 -6.93007,7.58483 -11.36677,9.98058 -5.18842,2.80166 -11.15682,4.51947 -17.05016,4.71305 -6.83813,0.22461 -14.33652,-0.47138 -20.09978,-4.15857 -5.56603,-3.561 -10.03557,-9.56868 -11.78263,-15.94121 -1.44903,-5.28544 0.33575,-11.03984 1.66343,-16.35706 1.65672,-6.63499 4.42183,-13.0237 7.76267,-18.99083 4.19876,-7.499495 9.70719,-14.222467 15.24811,-20.792876 3.72876,-4.421555 7.97812,-8.377781 12.05987,-12.475726 3.55114,-3.565233 7.15673,-7.076987 10.8123,-10.535057 2.23316,-2.112502 4.97957,-4.31191 6.79234,-6.237863 0.28678,-0.304682 1.24757,0.138619 1.24757,0.138619 0,0 0.39231,0.83616 0.13862,1.108954 -4.64569,4.995451 -9.24727,8.680437 -13.86192,13.030202 -3.37746,3.183589 -6.98219,6.14396 -10.1192,9.564723 -3.66775,3.99951 -6.79459,8.463976 -10.1192,12.752965 -2.48548,3.206451 -5.20609,6.25715 -7.34682,9.703342 -2.23528,3.598397 -3.88258,7.532447 -5.68338,11.366767 -1.60949,3.42698 -3.43895,6.78462 -4.57443,10.39644 -1.00284,3.1899 -1.61569,6.51397 -1.94067,9.84196 -0.23801,2.43735 -0.76295,5.01976 0,7.34682 1.75055,5.33933 5.32779,10.43438 9.98058,13.58468 5.65153,3.82653 12.99938,5.29178 19.82254,5.12891 5.61053,-0.13393 11.14889,-2.31039 16.07982,-4.99029 4.12204,-2.24028 7.93796,-5.30239 10.8123,-9.01025 3.03914,-3.92044 5.07835,-8.65846 6.37648,-13.44606 0.8375,-3.08874 1.04775,-6.37175 0.83172,-9.56472 -0.42527,-6.28548 -1.87483,-12.56502 -4.15858,-18.43635 -2.25836,-5.806063 -5.56952,-11.219706 -9.28748,-16.218444 -3.68663,-4.956627 -7.97,-9.536762 -12.75297,-13.44606 -2.70012,-2.206911 -5.68664,-4.124545 -8.87162,-5.544767 -2.89838,-1.292423 -6.06,-1.905866 -9.14887,-2.633764 -2.97274,-0.700533 -5.96311,-1.456334 -9.01025,-1.66343 -2.95364,-0.200741 -8.87162,0.415857 -8.87162,0.415857 0,0 -0.74433,2.527763 -1.24758,3.742718 -0.7117,1.718204 -2.49514,4.99029 -2.49514,4.99029 l 2.49514,2.633764 -1.10895,0.554477 -2.35653,-0.415857 c 0,0 -0.55715,1.36146 -0.69309,2.079287 -0.16359,0.863783 -0.13862,2.633765 -0.13862,2.633765 l -2.35653,-0.554477 -0.69309,-5.12891 -1.38619,0 c 0,0 -1.57854,2.646249 -2.49515,3.881337 -0.97669,1.316036 -1.82963,2.826173 -3.18824,3.742718 -0.48452,0.326869 -1.66343,0.554477 -1.66343,0.554477 l -2.21791,-0.277239 -3.46548,4.713052 -2.911,0.554477 -0.97033,-6.65372 c 0,0 -1.04559,0.727543 -1.3862,1.247572 -1.04077,1.589021 -0.79205,3.797386 -1.80204,5.406148 -1.23356,1.964875 -2.78653,4.126516 -4.99029,4.851671 -1.94909,0.641354 -4.51972,0.47801 -6.09925,-0.831715 -1.79967,-1.492266 -2.21791,-6.65372 -2.21791,-6.65372 0,0 -1.16869,4.110288 -1.94066,6.099244 -0.95751,2.466997 -1.86295,5.003689 -3.32686,7.208197 -0.79609,1.19884 -2.91101,3.188241 -2.91101,3.188241 0,0 2.21791,1.524811 2.07929,2.217901 -0.13862,0.6931 -3.0515,-0.35831 -4.43581,-0.970329 -1.60645,-0.710232 -3.20614,-1.673139 -4.2972,-3.049622 -1.67361,-2.111426 -1.55929,-5.240881 -3.04962,-7.485435 -0.43375,-0.653261 -1.10895,-2.633764 -1.66343,-1.66343 -0.55448,0.970334 -0.55448,5.822005 -0.97033,7.069578 -0.41586,1.247572 -4.2972,11.782628 -4.99029,11.921248 -0.6931,0.13862 -1.71201,-3.03568 -2.07929,-4.71305 -0.6326,-2.889124 -0.16894,-5.914213 -0.13862,-8.871628 0.0394,-3.837433 0.19348,-7.674205 0.41586,-11.505392 0.1343,-2.313806 0.43443,-4.616369 0.55447,-6.930959 0.20109,-3.877226 0.74673,-7.790065 0.27724,-11.64401 -0.19112,-1.568903 -1.24757,-4.574433 -1.24757,-4.574433 0,0 -1.12592,-0.179754 -1.52481,0.138619 -1.51892,1.212329 -1.27331,3.674659 -1.80205,5.544767 -0.75007,2.652942 -1.30726,5.356724 -1.94067,8.039912 -0.99145,4.199853 -2.27788,8.34575 -2.911,12.614345 -0.40089,2.702867 -0.55448,8.178531 -0.55448,8.178531 l 0.27724,9.841958 0.83171,3.32686 2.35653,-5.26753 0,-7.346811 -3.74272,-2.911003 -2.35652,-1.52481 z"
       style="fill:#000000;stroke:#000000;stroke-width:1px;stroke-linecap:butt;stroke-linejoin:miter;stroke-opacity:1" />
    <path
       inkscape:connector-curvature="0"
       id="path3017"
       d="m 137.53037,51.491348 -0.98018,1.568297 1.37226,0.392074 0.78414,-1.666315 z"
       style="fill:#000000;stroke:#000000;stroke-width:1px;stroke-linecap:butt;stroke-linejoin:miter;stroke-opacity:1" />
  </g>
</svg>
