<?xml version="1.0" encoding="UTF-8" standalone="no"?>
<!-- Created with Inkscape (http://www.inkscape.org/) -->
<svg
   xmlns:svg="http://www.w3.org/2000/svg"
   xmlns="http://www.w3.org/2000/svg"
   version="1.0"
   width="1863.9259"
   height="409.91556"
   id="svg2211">
  <defs
     id="defs2214" />
  <path
     d="M 292.6996,8.6500438 C 284.27129,15.09969 277.79766,24.614791 271.98085,33.743794 C 267.69482,40.526356 261.30875,45.794011 256.73085,52.868794 C 252.83268,55.846224 252.29351,66.106237 258.0121,65.212544 C 271.53471,63.134582 284.96164,38.187347 293.56211,26.880989 C 299.14571,20.488866 306.5994,14.215005 315.73085,15.431294 C 334.77177,15.618495 353.64989,20.659978 372.79335,19.337544 C 376.70339,19.181227 376.61083,23.551666 375.4496,26.150044 C 373.87229,29.898204 369.65405,31.501914 367.29335,34.712544 C 358.29317,41.048626 350.58577,49.907314 343.04335,58.431294 C 324.3209,78.516634 308.10393,100.43033 292.80245,123.00289 C 285.05741,137.81592 273.35229,150.18175 264.61951,164.70472 C 259.65686,172.08662 255.38564,180.15235 249.8246,186.93129 C 246.89071,190.52946 244.19901,194.97671 241.48085,199.08754 C 234.35279,206.76457 230.24541,216.86804 223.10022,224.6749 C 218.64696,229.05154 216.47442,235.50895 211.8246,239.58754 C 207.06638,241.547 202.12307,242.8663 197.6996,245.65004 C 190.11661,248.71088 182.95464,253.34456 175.6371,256.43129 C 154.33856,265.41555 134.99157,278.62183 114.0746,288.52504 C 88.827935,301.30177 64.495925,316.27609 40.949595,331.96254 C 35.803804,337.86488 28.770377,341.57332 23.605845,347.43129 C 19.037935,350.24068 17.030971,355.10625 12.480845,357.61879 C 4.7401332,365.60626 -2.3845768,376.7049 0.76209523,388.24379 C 2.7016862,395.61044 6.4397222,403.77264 14.262095,405.99379 C 17.87394,407.94286 21.653035,407.62281 25.074595,409.58754 C 35.372864,409.93167 46.069542,410.49027 56.199595,408.30629 C 71.046055,404.43362 84.626142,398.08885 97.793345,390.74379 C 105.11637,386.65879 111.89907,381.64554 118.3871,376.11879 C 124.42543,370.97511 129.91715,363.29201 136.60585,358.08754 C 145.8186,348.25988 161.86521,335.08391 169.85585,323.83754 C 179.75393,309.88579 190.40741,296.63011 199.7621,282.21254 C 203.56788,276.44002 207.37655,271.51315 211.41835,265.15004 C 215.46015,258.78693 220.00582,250.27301 227.91835,246.93129 C 237.03689,245.93665 244.77532,239.70585 253.17815,237.03778 C 261.9169,234.26305 269.52811,229.43794 278.41835,227.33754 C 284.74771,225.03657 291.23276,223.29719 297.8871,222.24379 C 293.95928,225.68965 296.60851,230.07158 296.9496,234.30629 C 297.48851,240.99706 306.09795,247.26208 313.2621,248.43129 C 319.38913,249.06111 325.68317,248.72408 330.59862,244.96907 C 341.96153,240.74474 349.74374,227.33652 358.4496,218.74379 C 377.09531,227.40239 401.79092,216.15387 420.23085,217.99379 C 425.14502,221.96252 420.63698,229.04232 421.5746,234.30629 C 421.07903,239.23888 424.95712,242.56764 429.60585,242.65004 C 433.5561,244.3684 437.37042,243.38347 440.66835,241.24379 C 444.7582,240.78708 447.19627,238.10666 450.41835,236.61879 C 453.03681,234.71972 455.73613,231.04889 459.2621,231.65004 C 461.73216,233.96192 462.01572,238.01426 465.41835,239.83754 C 476.1029,248.42051 491.42243,246.36728 503.79335,243.02504 C 509.99876,240.62851 516.04972,238.19668 521.9496,234.96254 C 524.04961,233.82721 527.30627,229.85537 528.4496,234.43129 C 527.6643,238.37836 528.68993,245.85881 534.04335,245.21254 C 541.27954,242.15644 549.48581,240.99304 555.9496,236.11879 C 559.59492,233.90487 561.71541,238.40685 560.79335,241.46254 C 560.49807,244.91269 560.81069,250.71103 565.91246,249.49093 C 574.152,250.48124 582.77085,249.6045 589.91835,245.27504 C 597.05273,243.37496 603.15935,238.84157 610.29335,237.36879 C 614.49349,233.05681 621.65089,232.22656 626.1996,228.02504 C 632.55022,226.86345 629.31407,236.2067 631.9496,238.86879 C 636.77593,239.50246 641.92479,237.74234 645.1996,234.55629 C 650.90997,234.17441 655.65519,230.04388 661.41835,229.83754 C 664.4735,226.83088 669.05377,228.81383 670.29335,232.58754 C 675.42072,241.5633 685.71483,246.63869 695.91835,244.96254 C 706.80116,244.53175 717.91846,244.40833 728.29335,241.49379 C 732.09954,241.42616 736.22599,237.90376 738.9496,242.08754 C 744.35382,247.38732 751.83148,249.46032 759.29335,248.30629 C 767.53895,247.43064 775.87554,244.84057 783.9496,243.46254 C 791.40006,238.46826 799.595,234.46708 807.41835,230.52504 C 816.51165,224.78573 825.36893,218.48688 834.2621,212.49379 C 837.28721,210.36163 840.87626,212.68507 839.16572,216.55572 C 839.22409,222.76178 837.86131,231.18646 830.54335,232.52504 C 826.29843,232.39845 824.5033,238.15759 828.5121,239.83754 C 835.37669,239.65364 842.42646,235.63326 847.0746,230.49379 C 848.58308,226.92586 852.2065,224.52735 852.1371,220.30629 C 855.02102,212.53204 856.50087,202.29218 850.41835,195.61879 C 845.26039,192.30549 840.0207,199.0085 835.66835,201.08754 C 822.37475,212.27575 807.89951,221.96851 792.0746,229.02504 C 780.76434,233.14464 769.22655,241.48149 756.7621,239.15004 C 754.597,237.04537 752.00632,233.38988 752.1477,231.18404 C 757.25417,225.37649 765.53642,224.21812 770.45057,218.0522 C 774.38382,215.08909 776.86996,210.56 780.98085,208.46254 C 783.80295,204.50076 788.52816,200.37068 785.8871,194.93129 C 783.10697,187.8229 773.73836,185.62354 767.41835,189.27504 C 764.10415,191.5127 758.84132,191.25181 757.48085,195.61879 C 749.9294,205.03858 741.22385,213.88594 737.9496,225.77504 C 734.51621,233.13307 724.93215,232.11678 718.3246,234.33754 C 709.24686,235.95658 699.33689,237.30534 690.48085,234.61879 C 684.62147,230.02936 686.52694,219.72963 679.5121,216.52504 C 672.75127,220.68503 660.27658,220.71204 654.16835,215.30629 C 652.22793,212.56835 655.26615,207.94998 650.91835,206.68129 C 646.0561,204.35074 641.19539,206.69477 637.3871,209.71254 C 631.23848,213.2714 625.10713,218.49372 618.14074,219.82019 C 616.33787,220.16347 611.30164,223.559 608.04335,226.05629 C 602.35214,229.39255 596.58773,233.05882 589.71014,233.04484 C 586.32088,232.73777 583.77949,235.14477 580.7621,235.21254 C 576.76868,233.12488 578.99367,228.22544 579.9496,225.08754 C 580.90033,216.77278 568.78193,212.83146 563.6371,218.80629 C 559.93726,220.37821 555.9918,223.39817 551.79335,221.58754 C 551.56907,216.39025 556.26375,208.32024 549.9496,205.30629 C 543.47446,200.95746 538.14293,208.80614 533.5121,212.24379 C 528.90598,215.40894 516.49068,224.45494 511.5746,226.05629 C 504.41186,228.38946 498.10944,233.50754 490.2621,233.83754 C 484.37156,235.50046 475.27868,233.74598 474.8871,226.40004 C 475.34453,216.3763 480.28488,205.14464 474.6371,195.90004 C 471.21905,190.66488 464.84622,191.50871 459.54335,191.93129 C 456.20839,191.54522 453.91176,187.69978 450.1996,189.65004 C 443.40998,192.21 441.17685,200.72552 433.54699,202.00769 C 429.81294,205.00747 425.91818,202.30402 421.7621,202.61879 C 416.43596,204.9306 410.50633,207.26904 404.5121,206.74379 C 400.60815,206.40171 388.05512,208.67913 383.60585,208.11879 C 377.76976,207.38379 370.70161,210.2738 365.9496,206.08754 C 363.39236,200.82283 363.71145,193.73407 357.7621,190.58754 C 352.89038,187.78981 346.1444,186.09967 340.79335,187.86879 C 336.01207,190.22983 330.09133,191.46716 326.35585,195.46254 C 322.66082,199.41465 315.2541,206.1473 310.3363,208.95474 C 307.65006,211.37033 303.14062,212.18166 300.7621,208.99379 C 292.76589,205.99966 285.42782,212.88395 277.5746,213.83754 C 270.32744,216.75003 262.62473,218.39476 255.60585,221.52504 C 252.58081,222.67738 247.33911,225.72342 244.54335,222.40004 C 244.66301,215.31598 250.72754,209.67791 254.3246,203.93129 C 264.81399,191.23734 272.37464,176.10794 282.91811,163.33393 C 301.98912,133.07167 319.90495,99.05378 344.3246,75.212544 C 350.40541,69.275766 356.95968,61.74131 362.29335,56.775044 C 364.04427,54.697184 365.2379,53.225314 367.3871,51.775044 C 371.97897,46.491534 377.61461,42.144584 382.8871,37.493794 C 389.222,32.61788 396.98399,27.348097 402.48085,21.993794 C 407.8061,17.915591 410.33698,7.0470118 402.73085,4.0875438 C 394.5128,2.3380518 385.82594,5.2919008 377.38912,4.9948018 C 355.46847,9.5112873 339.66416,3.1036326 317.6996,0.18129389 C 309.12434,-0.95962655 299.48919,3.4544078 292.6996,8.6500438 z M 1120.8558,23.368794 C 1113.1585,24.11385 1111.2687,33.202854 1106.1184,37.659344 C 1095.3577,50.873084 1086.7552,65.918804 1077.0746,79.931294 C 1069.5454,88.780004 1058.2063,93.135024 1049.6683,100.96254 C 1023.6217,121.45793 999.39874,143.92277 976.29335,167.71254 C 965.63299,178.68866 955.78178,190.79832 949.12253,204.90048 C 941.18122,217.16312 934.34865,233.88527 942.3246,247.71254 C 945.66812,251.6398 947.70399,256.43279 952.98085,258.02504 C 958.91625,260.28079 965.43315,256.08172 970.76205,253.90004 C 985.12489,243.61297 996.17868,229.7847 1008.2271,216.98602 C 1028.7745,193.58677 1046.0608,167.36535 1060.1996,139.65004 C 1067.12,126.08441 1077.2387,113.62484 1082.4808,99.337544 C 1085.589,92.300044 1088.4202,86.799499 1097.8096,82.434324 C 1107.199,78.069149 1120.0444,70.125044 1131.1996,63.993794 C 1140.6197,59.286454 1150.282,55.041104 1160.012,50.962544 C 1165.2783,53.709914 1160.3386,59.853334 1158.6683,63.368794 C 1145.5767,89.735487 1125.4257,111.65874 1106.127,133.64722 C 1102.5363,137.70197 1096.1882,140.3837 1094.512,145.77504 C 1094.8071,151.2971 1102.6135,153.03057 1105.9496,148.96254 C 1135.7593,122.97664 1161.0125,91.105312 1178.7933,55.775044 C 1180.6372,50.274314 1185.5269,43.543534 1180.512,38.150044 C 1175.4629,34.540654 1168.1459,35.577484 1162.2933,36.368794 C 1153.6086,38.861824 1146.4223,44.409104 1137.7943,47.231204 C 1129.6776,50.498454 1122.6811,57.175044 1113.9183,58.650044 C 1109.8749,58.980364 1109.3499,53.728634 1112.3558,51.837544 C 1114.3825,47.833424 1117.2774,44.472914 1119.9808,40.931294 C 1123.1659,37.305854 1128.233,34.237384 1128.8558,29.212544 C 1128.702,24.843727 1124.692,23.036272 1120.8558,23.368794 z M 1426.137,44.118794 C 1416.296,47.324214 1410.7335,56.958184 1403.1489,63.396264 C 1392.0107,75.667924 1380.4182,88.225554 1370.3558,101.46254 C 1361.8727,113.75102 1351.393,124.72709 1343.637,137.40004 C 1332.2144,152.63643 1324.7993,171.78292 1308.2933,182.46254 C 1292.7168,194.1197 1281.7742,211.34472 1265.4496,221.90004 C 1256.5248,226.10044 1246.9133,228.56443 1237.7933,232.30629 C 1231.7374,233.08281 1225.6257,238.26626 1219.4808,235.93129 C 1214.1212,231.89313 1215.9641,224.62289 1216.4808,218.99379 C 1215.2758,212.33355 1205.3009,213.45449 1201.6996,217.46254 C 1194.7558,224.46563 1185.7308,229.26842 1176.9183,233.49379 C 1173.3213,235.65512 1167.6212,234.37805 1167.2933,229.71254 C 1165.4282,225.06118 1168.7356,220.85927 1169.7308,216.68129 C 1169.2381,209.8606 1159.6984,210.73835 1156.1058,214.65004 C 1151.2726,219.21284 1146.3478,223.92485 1140.2308,226.71254 C 1129.8025,233.80955 1116.3045,239.65852 1103.6996,235.68129 C 1097.476,231.08259 1100.5234,222.29626 1099.262,215.80629 C 1099.1524,208.21495 1101.0167,196.55927 1091.6058,193.74379 C 1081.6492,190.62388 1072.8274,198.46221 1065.2714,203.7545 C 1056.1949,211.78665 1047.6187,221.41936 1043.1996,232.77504 C 1041.9876,236.1386 1044.1055,239.04364 1045.9808,241.15004 C 1047.4704,242.98739 1051.3578,242.59431 1053.4183,244.11879 C 1060.9314,244.47965 1068.7554,241.81397 1075.2933,238.24379 C 1078.7314,234.13435 1086.4283,233.15461 1088.9183,238.68129 C 1093.8795,245.55857 1103.1924,248.43092 1111.387,247.83754 C 1124.49,246.91777 1137.0819,242.2488 1148.3608,235.76886 C 1152.2901,232.70351 1154.4727,239.74329 1158.0746,241.21254 C 1167.8009,249.38197 1181.1873,243.74099 1191.1683,239.11879 C 1195.5689,237.90897 1201.1466,231.48433 1203.8446,238.01236 C 1208.1006,242.22463 1211.9559,250.23418 1219.1058,247.99379 C 1240.584,245.69512 1260.9197,237.20632 1280.262,228.15004 C 1285.1513,225.49002 1297.2533,202.37803 1303.6683,207.90004 C 1304.7296,214.47626 1303.178,221.82582 1305.9183,228.08754 C 1307.0712,231.02544 1308.5337,233.97383 1309.3246,237.02504 C 1313.6268,246.1244 1325.4454,248.84246 1333.9808,244.30629 C 1344.526,238.35065 1359.8341,230.31816 1369.3609,223.05898 C 1372.3381,221.7475 1377.4667,216.24188 1378.4496,221.90004 C 1381.0065,228.06418 1386.9255,233.61607 1393.9496,231.52504 C 1399.876,231.64428 1404.0799,225.61316 1409.637,225.83754 C 1414.5825,227.2465 1414.7477,234.58997 1420.7308,234.61879 C 1433.6147,237.74841 1446.0282,230.85033 1457.8558,226.61879 C 1465.486,221.59292 1472.6783,215.89051 1480.137,210.83754 C 1486.4817,209.09786 1488.341,217.08158 1491.1683,220.90004 C 1493.1096,223.82623 1495.0555,229.49778 1490.262,230.40004 C 1484.0166,233.22024 1486.1736,242.89327 1493.0746,242.15004 C 1500.4324,240.07896 1509.8377,236.88076 1512.8246,228.96254 C 1511.3236,219.9147 1501.7712,215.22638 1498.387,206.99379 C 1494.9789,201.71271 1491.9837,192.43388 1484.1996,193.18129 C 1475.1757,195.51299 1470.6773,204.42252 1462.3246,208.11879 C 1454.2116,213.80186 1445.1798,218.32964 1435.9496,221.74379 C 1432.0334,222.44103 1424.7707,224.5854 1424.1683,218.61879 C 1423.0597,213.49782 1423.2989,205.50048 1416.387,204.80629 C 1407.3604,204.28007 1404.7599,216.99667 1395.9183,217.18129 C 1392.4547,215.65565 1394.8859,209.91993 1395.9808,206.77504 C 1399.048,202.36111 1399.2495,194.00375 1392.7933,192.93129 C 1384.9005,192.02256 1381.6116,201.09174 1375.3558,204.11879 C 1362.4468,213.16653 1347.8326,219.9806 1335.9496,230.30629 C 1332.2658,232.04878 1327.3516,236.42832 1323.6097,234.18805 C 1314.9045,217.92417 1320.7827,200.98991 1328.8786,186.26229 C 1333.0223,177.71511 1339.5995,170.93953 1347.2296,165.51606 C 1356.5989,157.53267 1367.058,150.7467 1375.7152,141.77587 C 1384.4874,133.17355 1395.7685,124.32553 1402.1996,115.86879 C 1408.6307,107.41205 1412.4123,101.82461 1418.6996,92.681294 C 1424.9869,83.537976 1431.6447,70.637474 1437.7933,59.525044 C 1440.516,54.899144 1440.1189,48.094724 1434.3558,46.087544 C 1431.8103,44.836374 1429.0094,43.990194 1426.137,44.118794 z M 1411.3558,79.587544 C 1401.4435,95.370234 1389.5248,110.11707 1375.887,122.68129 C 1367.353,121.37765 1392.3804,95.94563 1395.1996,92.681294 C 1399.1092,87.000984 1403.4763,81.556784 1408.5433,76.868794 C 1415.0212,73.318004 1415.2017,72.067644 1411.3558,79.587544 z M 1692.637,85.243794 C 1675.8463,96.745203 1672.7324,120.55183 1658.1996,134.30629 C 1643.6998,146.62654 1632.133,162.17627 1621.012,177.58754 C 1614.7806,187.4869 1608.5317,197.47768 1602.9808,207.71254 C 1600.0813,216.60375 1592.0829,225.2269 1594.7933,234.96254 C 1597.1149,239.66034 1603.3678,242.8992 1607.6058,239.93129 C 1641.0178,216.53279 1648.3166,166.95358 1677.887,135.68129 C 1683.5071,129.85863 1690.8227,126.08859 1698.0746,122.68129 C 1700.9185,120.72262 1707.1037,118.70309 1707.4496,123.99379 C 1707.4368,135.63971 1703.0293,147.08004 1696.9808,156.86879 C 1689.6606,164.42735 1681.0226,171.41145 1677.387,181.61879 C 1672.4937,188.84796 1668.9696,196.76738 1665.2933,204.52504 C 1663.0681,208.16059 1662.5191,212.79694 1660.512,216.65004 C 1658.4786,223.94731 1659.2961,231.88285 1657.637,239.15004 C 1657.3613,243.94514 1660.6864,248.67539 1665.9183,248.24379 C 1677.2402,246.55924 1674.8013,231.29952 1680.0433,223.77504 C 1684.3834,212.40192 1690.71,201.79301 1695.2308,190.65004 C 1697.8022,186.13698 1699.9064,181.77594 1701.8246,176.86879 C 1706.1899,171.39869 1708.2607,164.42353 1713.719,159.69414 C 1719.9089,152.8172 1727.0213,146.85976 1734.887,141.93129 C 1736.2451,155.60316 1729.0776,167.78724 1724.2308,179.93129 C 1724.6867,186.87375 1736.8614,189.19661 1738.6219,181.51096 C 1744.144,168.41264 1749.4758,154.55476 1749.512,140.24379 C 1748.0489,131.9945 1738.4324,123.34113 1730.1683,128.65004 C 1727.7926,131.37215 1721.2343,132.21789 1721.9496,127.02504 C 1722.6112,118.87246 1719.2249,107.64976 1709.5746,107.08754 C 1704.013,106.69918 1698.6391,108.9322 1693.012,108.33754 C 1693.0465,101.53037 1700.9294,96.937774 1699.3246,90.150044 C 1697.9418,87.692014 1695.7047,84.924524 1692.637,85.243794 z M 1047.3413,134.70392 C 1036.1847,155.65439 1023.9295,176.22992 1010.3558,195.58754 C 995.17715,213.26238 980.52895,231.90401 962.32465,246.65004 C 957.07554,248.72214 955.26457,241.19917 955.6371,237.36879 C 955.17078,230.05103 954.82046,222.49618 958.01205,215.77504 C 967.58665,195.58231 982.76144,178.00914 999.01205,162.86879 C 1009.5635,150.96462 1022.1463,140.64623 1034.04,130.0842 C 1039.6457,125.10618 1049.5632,120.00103 1053.0746,113.68129 C 1056.6532,121.63268 1050.9224,127.97921 1047.3413,134.70392 z M 1800.512,118.43129 C 1794.1506,117.00132 1786.495,126.95042 1794.3558,130.30629 C 1815.4256,135.77021 1837.3852,137.97465 1858.9183,141.11879 C 1864.0023,139.97595 1866.2681,130.79734 1860.6126,128.93265 C 1856.4876,125.29202 1850.5559,127.10853 1845.5538,125.41176 C 1830.7877,123.58283 1815.8693,121.73541 1801.4808,118.36879 L 1801.137,118.36879 L 1800.512,118.43129 z M 1786.6996,151.93129 C 1773.6914,155.28545 1766.3554,168.15233 1757.137,176.83754 C 1749.5292,185.29936 1743.2867,194.73142 1737.262,204.30629 C 1735.3089,211.00147 1747.6546,215.1429 1749.9496,208.40004 C 1752.0587,206.28152 1752.4867,202.5799 1754.9496,200.40004 C 1754.5389,205.23076 1756.3251,210.73818 1761.762,211.36879 C 1768.7788,213.02446 1770.2765,203.67169 1773.1058,199.40004 C 1780.3707,187.88261 1789.5313,177.59437 1799.6058,168.46254 C 1801.8437,163.71666 1797.6477,158.91319 1793.6058,157.21254 C 1792.1516,154.77147 1789.9199,151.63797 1786.6996,151.93129 z M 345.0746,202.43129 C 349.83136,201.32915 347.4377,206.76254 346.8871,209.40004 C 344.6204,215.30536 339.51333,219.31317 336.35585,224.68129 C 334.06372,227.07241 330.71484,227.52157 328.85585,230.40004 C 325.19493,232.22098 322.77739,236.89498 318.3871,237.08754 C 312.48943,236.99044 308.67351,228.54015 314.09594,225.00835 C 322.38614,215.61086 332.31478,207.09301 344.0746,202.55629 C 344.41556,202.50942 344.72431,202.4138 345.0746,202.43129 z M 1082.762,209.58754 C 1083.4618,220.06326 1074.4283,228.24851 1065.2933,231.55629 C 1065.7399,228.0831 1060.5321,223.81721 1065.1996,221.36879 C 1069.242,214.92807 1074.9468,208.96281 1082.5433,206.99379 C 1082.6162,207.85837 1082.6891,208.72296 1082.762,209.58754 z M 454.35585,208.74379 C 458.19664,210.84617 454.91571,214.65683 453.35585,216.74379 C 451.15714,220.45735 450.40823,219.2247 449.5746,221.74379 C 447.53784,224.27968 441.91253,229.08119 440.41835,224.05629 C 438.95979,221.37461 441.03618,220.6664 442.98085,217.05629 C 445.96309,213.42925 448.87704,207.45735 454.35585,208.74379 z M 1804.262,240.49379 C 1792.9969,245.02039 1780.8746,249.35371 1768.6058,246.96254 C 1757.4081,247.29314 1745.5627,242.78179 1734.8558,246.86879 C 1730.5779,249.55 1731.7571,256.39 1736.8558,257.24379 C 1747.373,260.31612 1758.5036,259.83312 1769.3241,260.83658 C 1783.7553,261.28565 1799.2543,259.96682 1811.2933,251.74379 C 1814.2638,248.52619 1812.7681,242.82103 1808.1996,242.18129 C 1806.9113,241.30422 1806.0874,239.95628 1804.262,240.49379 z M 182.8871,281.83754 C 180.04223,286.29179 175.9411,291.28723 171.91835,295.55629 C 165.11584,305.74623 156.46344,314.6618 148.35585,323.77504 C 140.68789,332.39413 133.08968,340.20079 124.7621,347.99379 C 117.20704,355.06386 108.56167,360.4659 100.54335,367.71254 C 88.777593,378.34597 71.092271,383.82805 56.785598,389.52614 C 49.735414,392.3341 42.683009,391.58199 35.730845,393.11879 C 29.88522,393.25895 24.33463,390.9831 18.949595,389.05629 C 13.746979,386.74534 14.78161,380.4087 17.512095,376.58754 C 22.378074,368.15654 30.937836,363.12006 38.105845,356.90004 C 46.598282,349.53075 54.532973,343.18296 63.5838,335.61088 C 76.18298,328.62455 87.217807,318.92193 100.28153,312.79658 C 116.34845,305.26309 132.82346,294.8744 146.8871,287.77504 C 160.95074,280.67568 171.76877,273.35852 185.79335,269.68129 C 188.31507,274.50079 185.02565,278.48918 182.8871,281.83754 z "
     style="fill:black"
     id="path2220" />
</svg>
