<?xml version="1.0" standalone="no"?>
<!DOCTYPE svg PUBLIC "-//W3C//DTD SVG 20010904//EN"
 "http://www.w3.org/TR/2001/REC-SVG-20010904/DTD/svg10.dtd">
<svg version="1.0" xmlns="http://www.w3.org/2000/svg"
 width="308.000000pt" height="320.000000pt" viewBox="0 0 308.000000 320.000000"
 preserveAspectRatio="xMidYMid meet">
<metadata>
Created by potrace 1.13, written by Peter Selinger 2001-2015
</metadata>
<g transform="translate(0.000000,320.000000) scale(0.100000,-0.100000)"
fill="#000000" stroke="none">
<path d="M2533 2663 c-4 -10 -11 -21 -16 -25 -6 -3 -10 -23 -9 -43 2 -44 -11
-70 -51 -107 -35 -34 -47 -35 -49 -5 -6 91 -18 156 -31 164 -6 3 -19 -4 -29
-17 -13 -17 -18 -39 -18 -91 0 -66 -13 -99 -23 -59 -4 17 -12 20 -42 17 -39
-5 -62 -27 -71 -70 -4 -15 -11 -30 -15 -33 -5 -3 -9 -16 -9 -30 0 -13 -4 -24
-9 -24 -12 0 -49 -64 -57 -98 -4 -15 -13 -40 -21 -55 -12 -24 -19 -28 -51 -25
l-37 3 3 66 c4 85 -12 102 -53 59 -23 -24 -29 -40 -32 -94 -6 -80 5 -102 59
-117 68 -18 126 -4 178 44 50 46 62 68 62 111 -1 20 8 36 24 49 14 11 30 31
35 44 5 13 13 21 19 18 5 -3 10 -1 10 4 0 6 7 11 15 11 23 0 18 -45 -9 -77
-13 -15 -39 -53 -58 -83 -20 -30 -45 -64 -57 -74 -29 -27 -44 -84 -26 -102 7
-8 18 -14 23 -14 10 0 65 66 95 113 20 31 37 35 37 8 0 -31 26 -32 54 -2 14
15 26 31 26 35 0 4 28 42 62 84 76 94 89 119 82 157 -4 25 1 37 30 67 48 50
58 78 43 122 -13 38 -51 86 -67 86 -6 0 -14 -8 -17 -17z"/>
<path d="M1960 2504 c-16 -14 -34 -23 -40 -19 -5 3 -10 -3 -10 -14 0 -31 -21
-37 -42 -11 -17 21 -20 22 -36 6 -10 -9 -23 -16 -28 -16 -6 0 -23 -13 -39 -30
-16 -16 -33 -30 -38 -30 -6 0 -15 -8 -22 -17 -9 -12 -24 -17 -52 -15 -34 3
-41 0 -51 -22 -6 -14 -16 -27 -22 -27 -5 -1 -19 -2 -29 -3 -11 0 -23 -4 -27
-8 -17 -18 -44 -8 -44 15 0 13 3 27 6 30 6 6 9 22 18 98 4 36 -10 69 -29 69
-25 0 -85 -142 -85 -203 0 -78 56 -149 93 -119 17 14 47 17 80 7 19 -5 33 -3
45 7 9 8 51 21 92 28 42 6 93 23 115 36 22 13 50 28 63 34 12 5 22 14 22 20 0
6 16 18 35 26 19 8 35 19 35 24 0 6 13 10 29 10 25 0 31 6 41 34 14 45 1 96
-28 107 -16 6 -29 2 -52 -17z"/>
<path d="M728 2390 c-70 -21 -107 -81 -108 -175 0 -46 -3 -52 -36 -73 -19 -13
-45 -22 -57 -20 -30 4 -27 54 7 120 29 56 34 106 11 114 -44 17 -125 -122
-125 -213 0 -40 5 -54 29 -80 27 -30 33 -32 93 -30 52 2 74 8 113 32 26 17 57
42 67 56 19 25 19 28 4 57 -18 34 -22 92 -6 92 5 0 25 14 45 31 36 32 45 65
23 87 -14 14 -21 14 -60 2z"/>
<path d="M1093 2343 c-27 -27 -64 -60 -81 -76 -20 -17 -32 -37 -32 -52 0 -36
-36 -107 -78 -157 -29 -34 -36 -50 -34 -75 2 -24 8 -33 21 -33 37 0 149 128
183 210 8 19 22 41 31 49 10 7 17 20 17 27 0 7 13 23 30 35 25 19 29 28 26 59
-3 40 -12 60 -25 60 -5 0 -31 -21 -58 -47z"/>
<path d="M1293 2351 c-13 -3 -33 -15 -45 -26 -13 -11 -26 -19 -30 -17 -4 1
-20 -22 -34 -50 -26 -52 -26 -53 -10 -99 16 -44 16 -49 1 -80 -12 -23 -16 -48
-13 -86 4 -47 2 -55 -18 -68 -13 -8 -34 -15 -48 -15 -13 0 -31 -7 -40 -15 -8
-8 -23 -15 -34 -15 -10 0 -27 -9 -37 -20 -12 -13 -31 -20 -57 -20 -33 0 -40
-4 -49 -27 -13 -36 -8 -74 13 -87 14 -8 37 0 110 37 51 26 101 47 111 47 9 0
17 4 17 9 0 5 21 20 47 33 25 13 48 31 51 41 3 13 15 17 58 17 30 0 71 7 91
15 19 8 43 15 53 15 27 0 72 47 68 73 -2 18 -11 23 -48 28 -25 4 -50 2 -57 -3
-7 -5 -33 -10 -58 -10 -25 0 -45 -4 -45 -9 0 -5 -11 -9 -25 -9 -14 0 -25 6
-25 13 0 22 28 72 51 93 58 52 83 173 45 217 -15 18 -27 23 -43 18z"/>
<path d="M847 2334 c-4 -4 -7 -33 -7 -65 0 -75 -8 -94 -69 -161 -50 -55 -60
-79 -42 -107 8 -13 15 -12 48 4 50 26 103 75 103 96 0 9 9 28 20 42 26 32 26
119 1 162 -18 30 -41 42 -54 29z"/>
<path d="M2740 1965 c-7 -9 -18 -14 -24 -12 -6 2 -23 -5 -38 -15 -21 -14 -52
-21 -120 -25 -51 -3 -98 -10 -104 -14 -6 -5 -25 -6 -41 -3 -19 4 -42 0 -61
-10 -17 -9 -45 -16 -62 -16 -17 0 -52 -10 -78 -22 -36 -16 -63 -21 -116 -20
-56 2 -74 -2 -90 -17 -25 -22 -179 -46 -270 -43 -37 1 -67 -3 -80 -11 -12 -8
-38 -17 -60 -21 -21 -4 -50 -12 -65 -18 -39 -17 -78 -20 -86 -8 -8 13 -72 13
-80 0 -11 -17 -23 -11 -29 15 -9 35 -26 31 -26 -5 0 -23 -6 -33 -22 -39 -13
-5 -28 -6 -34 -4 -7 2 -39 -1 -72 -7 -41 -7 -68 -7 -86 0 -21 8 -28 7 -33 -6
-3 -8 -13 -14 -22 -13 -9 1 -33 -5 -53 -14 -39 -18 -63 -15 -72 9 -9 23 -35
16 -42 -11 -7 -27 -28 -36 -84 -34 -32 1 -77 -8 -137 -26 -19 -6 -23 -3 -23
13 0 11 -7 25 -15 32 -17 14 -20 50 -5 50 6 0 10 19 10 43 0 33 -6 49 -23 65
-23 22 -64 31 -52 12 3 -5 -2 -21 -11 -36 -15 -22 -16 -32 -6 -70 16 -59 6
-123 -17 -117 -10 2 -23 -3 -30 -11 -8 -9 -24 -16 -37 -16 -12 0 -25 -4 -29
-10 -3 -5 -12 -7 -19 -4 -8 3 -17 1 -21 -5 -3 -6 -20 -11 -37 -11 -21 0 -31 6
-35 20 -7 28 -23 25 -23 -5 0 -14 -9 -34 -20 -45 -21 -21 -26 -55 -11 -79 8
-12 18 -11 68 6 32 12 83 24 113 28 30 4 66 12 80 17 14 5 40 12 59 14 18 3
41 9 51 14 10 6 42 10 71 10 35 0 59 6 71 17 20 18 50 23 153 26 39 1 75 5 80
8 26 16 240 50 309 50 16 0 36 4 43 11 7 6 28 8 47 5 20 -3 39 0 45 6 7 7 36
13 65 14 29 0 73 10 99 22 30 14 66 21 107 21 33 0 95 10 138 21 97 27 118 30
166 29 21 0 50 7 64 16 28 18 33 20 129 33 33 5 66 11 71 15 6 4 28 8 49 11
68 7 181 30 189 38 4 4 30 7 59 7 28 0 57 6 63 12 9 9 55 13 157 13 131 0 146
-2 172 -21 24 -19 28 -28 25 -63 -2 -38 -36 -111 -51 -111 -12 0 -51 -76 -51
-98 0 -31 22 -44 53 -29 15 6 27 17 28 22 0 6 14 30 29 55 62 96 79 142 73
190 -9 72 -26 95 -82 114 -27 9 -61 16 -75 16 -31 0 -114 19 -138 31 -23 12
-23 12 -38 -6z"/>
<path d="M887 1363 c-3 -10 -8 -30 -11 -44 -5 -21 -10 -25 -30 -22 -21 4 -23
2 -19 -21 6 -27 17 -33 29 -15 10 17 26 -17 19 -41 -4 -12 -15 -20 -29 -20
-13 0 -29 -7 -36 -15 -7 -9 -15 -13 -18 -11 -2 3 -17 -1 -32 -9 -34 -17 -54
-68 -39 -96 10 -20 38 -25 55 -10 5 5 19 12 30 15 23 7 26 -10 10 -47 -13 -28
0 -97 23 -121 12 -12 21 -29 21 -37 0 -9 3 -10 8 -4 4 6 23 22 42 35 19 13 41
30 48 37 7 7 18 13 23 13 5 0 9 6 9 13 0 6 4 28 10 47 10 36 35 54 97 66 25 5
32 12 37 39 9 44 -26 105 -58 105 -26 0 -61 -34 -52 -49 10 -15 -8 -21 -39
-13 -26 7 -27 10 -30 77 -1 52 -8 80 -25 108 -24 41 -36 46 -43 20z"/>
<path d="M1576 1067 c-12 -9 -19 -31 -22 -72 -10 -131 -21 -161 -82 -225 -42
-44 -65 -60 -84 -60 -23 0 -28 5 -34 38 -4 20 -13 49 -21 65 -11 23 -17 26
-33 17 -42 -22 -61 -102 -36 -154 9 -19 22 -36 29 -39 6 -2 12 -19 12 -37 0
-45 18 -48 52 -10 23 27 78 59 105 61 13 1 118 111 118 124 0 7 4 15 9 17 11
3 23 109 25 205 1 70 -10 90 -38 70z"/>
<path d="M2017 1002 c-14 -29 -18 -60 -17 -123 1 -46 -2 -103 -5 -125 -7 -39
-6 -41 21 -47 40 -8 51 6 70 96 14 64 15 85 6 111 -7 18 -12 51 -12 73 0 28
-5 43 -16 47 -25 10 -28 8 -47 -32z"/>
<path d="M2136 1014 c-13 -13 -16 -37 -15 -122 2 -119 13 -182 33 -182 23 0
34 43 41 148 9 145 -13 202 -59 156z"/>
<path d="M1084 932 c-9 -7 -26 -40 -39 -77 -4 -11 -9 -46 -11 -77 -4 -60 -34
-150 -52 -156 -6 -2 -20 6 -32 18 -17 17 -24 19 -36 9 -24 -19 -15 -89 11 -89
21 0 23 -23 4 -55 -38 -62 -69 -125 -69 -139 0 -8 -9 -17 -19 -21 -12 -3 -22
-19 -26 -38 -7 -34 -90 -127 -112 -127 -7 0 -13 11 -13 25 0 14 -7 36 -14 48
-9 13 -14 39 -12 65 3 40 2 42 -25 42 -31 0 -36 -9 -18 -27 8 -8 5 -25 -13
-65 -26 -59 -25 -90 7 -132 17 -23 27 -26 75 -26 51 0 58 3 101 43 25 23 60
70 79 105 18 34 43 74 56 88 13 14 24 27 24 30 0 9 60 139 80 174 12 19 30 55
41 80 11 25 24 53 29 62 6 10 10 33 10 51 0 21 8 41 20 52 39 36 -5 166 -46
137z"/>
<path d="M1738 885 c-15 -8 -29 -24 -33 -35 -3 -11 -11 -20 -16 -20 -5 0 -9
-6 -8 -12 1 -7 -1 -21 -6 -31 -4 -9 -5 -27 -2 -39 4 -13 -3 -32 -17 -52 -27
-36 -46 -99 -46 -149 0 -50 63 -126 105 -126 35 0 125 55 155 95 35 47 38 70
8 77 -16 5 -31 -4 -61 -33 -22 -22 -47 -40 -56 -39 -12 0 -11 4 7 16 12 8 22
20 22 25 0 5 9 18 20 30 11 12 20 30 20 40 0 21 76 108 95 108 7 0 24 15 39
32 21 26 25 39 20 63 -8 36 -31 65 -54 65 -23 0 -87 -70 -96 -105 -12 -50 -63
-155 -79 -161 -8 -3 -17 -14 -20 -24 -3 -10 -13 -21 -21 -24 -12 -5 -15 -2 -9
11 4 10 8 26 10 35 6 27 26 61 48 78 19 16 37 81 40 150 2 28 -2 35 -18 37
-11 2 -32 -4 -47 -12z"/>
</g>
</svg>
