<?xml version="1.0" encoding="UTF-8" standalone="no"?>
<svg
   xmlns:dc="http://purl.org/dc/elements/1.1/"
   xmlns:cc="http://creativecommons.org/ns#"
   xmlns:rdf="http://www.w3.org/1999/02/22-rdf-syntax-ns#"
   xmlns:svg="http://www.w3.org/2000/svg"
   xmlns="http://www.w3.org/2000/svg"
   viewBox="0 0 113.7973 45.046012"
   height="45.046013"
   width="113.79732"
   version="1.1"
   id="svg2">
  <metadata
     id="metadata8">
    <rdf:RDF>
      <cc:Work
         rdf:about="">
        <dc:format>image/svg+xml</dc:format>
        <dc:type
           rdf:resource="http://purl.org/dc/dcmitype/StillImage" />
        <dc:title></dc:title>
      </cc:Work>
    </rdf:RDF>
  </metadata>
  <defs
     id="defs6" />
  <path
     id="path3338"
     d="m 71.957432,44.820274 c 0.816821,-0.44343 4.216718,-1.297108 8.970446,-2.252383 5.835613,-1.172684 10.421961,-2.203388 11.550643,-2.595812 l 0.824357,-0.286614 -2.091978,-0.01812 c -1.485417,-0.01287 -2.126111,-0.0721 -2.209701,-0.204279 -0.192784,-0.304853 0.262089,-0.516003 1.341679,-0.622803 0.5555,-0.05495 1.24625,-0.127802 1.535,-0.161885 0.28875,-0.03408 1.2,-0.136618 2.025,-0.227859 3.355482,-0.3711 6.273832,-1.212636 9.225002,-2.66013 1.97143,-0.966948 4.01442,-2.174013 4.23357,-2.501326 0.12272,-0.183284 -0.44031,-0.677 -0.78357,-0.687114 -0.37327,-0.011 -1.4145,-0.534867 -1.82192,-0.916659 -0.79216,-0.742317 -0.93393,-1.545133 -0.44182,-2.501857 0.57394,-1.115789 1.74726,-1.831524 3.00247,-1.831524 0.48579,0 0.57192,-0.05785 0.72776,-0.488823 0.16016,-0.442914 0.13252,-1.179626 -0.0557,-1.484153 -0.096,-0.155371 -0.92762,-0.524875 -1.43425,-0.637284 -0.21915,-0.04862 -0.93753,-0.127345 -1.5964,-0.174939 l -1.19795,-0.08653 -0.5786,0.640122 c -0.31823,0.352066 -0.73047,0.786571 -0.9161,0.965566 -0.18562,0.178995 -0.3375,0.40208 -0.3375,0.495744 0,0.09366 -0.0506,0.171611 -0.1125,0.173211 -0.0619,0.0016 -0.99492,0.862227 -2.07344,1.9125 -1.71818,1.673184 -3.48165,3.034588 -3.93081,3.034588 -0.0806,0 -0.22192,-0.09085 -0.31407,-0.201889 -0.12792,-0.154122 -0.0775,-0.3227 0.21311,-0.7125 0.20937,-0.280836 0.85797,-1.15186 1.44135,-1.93561 0.96674,-1.298798 2.0993,-2.648073 3.38874,-4.037189 l 0.48738,-0.525055 -1.31238,-0.316086 c -1.55707,-0.375026 -1.7736,-0.316275 -2.37924,0.645556 -0.23822,0.378333 -0.83813,1.106618 -1.33313,1.618409 -1.263654,1.306518 -1.649124,1.793998 -2.344415,2.964829 -0.563415,0.948761 -0.957666,1.899532 -0.787666,1.899532 0.161247,0 1.056905,-0.512876 1.412097,-0.808603 0.596088,-0.496293 1.766474,-1.070433 1.899484,-0.931803 0.0663,0.06907 -0.007,0.20205 -0.16204,0.295499 -0.1554,0.09345 -0.59415,0.411117 -0.975,0.70593 -0.380855,0.294811 -1.056251,0.718628 -1.500881,0.941815 -0.773161,0.388098 -0.82105,0.394365 -1.098042,0.143691 -0.280813,-0.254133 -0.287467,-0.78177 -0.0187,-1.48218 0.159917,-0.416734 -0.26616,-0.205926 -0.934392,0.462306 -0.960726,0.960726 -3.203992,2.321305 -3.829702,2.322781 -0.624873,0.0015 -0.895191,-0.84729 -0.568406,-1.784708 0.09204,-0.264023 0.139958,-0.507426 0.106488,-0.540897 -0.03347,-0.03347 -0.39565,0.200094 -0.804843,0.519031 -1.573581,1.226497 -2.448957,1.690041 -3.223615,1.707021 -0.401225,0.0088 -0.783696,-0.03821 -0.849936,-0.104447 -0.267069,-0.267069 -0.126504,-1.958891 0.217063,-2.612554 0.30978,-0.58938 0.433563,-1.082881 0.271614,-1.082881 -0.03624,0 -0.58333,0.37125 -1.215763,0.825 -0.632433,0.45375 -1.238409,0.825 -1.346615,0.825 -0.108205,0 -0.221874,0.07541 -0.252597,0.167584 -0.03072,0.09217 -0.323224,0.176547 -0.650001,0.1875 l -0.594138,0.01992 0.0087,-0.75 c 0.006,-0.517314 0.158702,-1.070457 0.492099,-1.782902 0.265847,-0.568095 0.445347,-1.070913 0.398888,-1.117371 -0.04646,-0.04646 -0.267902,0.13565 -0.492098,0.404682 -1.181552,1.417848 -3.786519,3.62059 -4.281725,3.62059 -0.03785,0 -0.107973,-0.102049 -0.155835,-0.226777 -0.09718,-0.25324 0.183206,-0.973222 0.379004,-0.973222 0.06926,0 0.125922,-0.07395 0.125922,-0.164345 0,-0.09039 0.151875,-0.375864 0.3375,-0.634387 0.185625,-0.258525 0.405,-0.583785 0.4875,-0.722801 0.0825,-0.139015 0.659559,-1.017915 1.282351,-1.953111 1.246535,-1.871814 1.479182,-2.329105 1.586603,-3.118626 0.08863,-0.651415 -0.214733,-2.195745 -0.473513,-2.410513 -0.248149,-0.205947 -0.492426,0.197875 -1.95313,3.228783 -0.636156,1.32 -1.468422,2.882895 -1.849479,3.4731 -0.381057,0.590206 -0.918366,1.439716 -1.194018,1.887802 -0.605097,0.983613 -2.374044,2.809273 -3.1017,3.201142 -0.826595,0.445151 -1.051839,0.203789 -1.027681,-1.101216 0.01918,-1.036082 0.241489,-1.939324 1.120759,-4.553632 0.734286,-2.183233 0.729483,-2.180119 -1.665192,1.079481 -1.86819,2.542955 -3.565603,4.488322 -3.916247,4.488322 -0.07874,0 -0.18475,-0.10836 -0.235572,-0.240798 -0.06324,-0.164796 0.120018,-0.422371 0.580602,-0.816067 0.562038,-0.480416 2.099933,-2.349027 3.520628,-4.277724 0.178425,-0.242226 0.549675,-0.74416 0.825,-1.11541 0.724696,-0.977127 1.325638,-1.922014 1.325638,-2.084289 0,-0.07739 0.05316,-0.163215 0.118144,-0.190716 0.160863,-0.06808 1.420383,-2.000533 1.816814,-2.787499 0.332806,-0.66066 0.410494,-0.715131 0.730377,-0.512099 0.233115,0.147962 0.01075,0.842105 -0.704625,2.199599 -0.507482,0.962995 -0.856089,1.866018 -1.428878,3.701331 -0.197627,0.633232 -0.435944,1.2945 -0.529592,1.469485 -0.17969,0.335753 -0.668244,2.003858 -0.929976,3.175279 -0.102476,0.458646 -0.10529,0.785871 -0.0082,0.959273 0.128298,0.229255 0.292612,0.117844 1.274857,-0.864401 1.442799,-1.442798 2.737412,-3.373279 4.115819,-6.137365 0.60242,-1.208019 1.09531,-2.244619 1.09531,-2.303556 0,-0.243817 0.961208,-2.125431 1.245202,-2.437546 0.416013,-0.457208 1.192025,-0.457208 1.490969,0 0.344161,0.526366 0.726508,2.254819 0.625164,2.82615 -0.04989,0.281242 -0.219098,0.79749 -0.37602,1.147215 -0.156974,0.349726 -0.285365,0.675003 -0.285365,0.722838 0,0.04783 -0.388773,0.639195 -0.86394,1.314135 -0.475167,0.674938 -1.133292,1.632162 -1.4625,2.127162 -0.329208,0.495 -0.664106,0.946954 -0.744216,1.004344 -0.08011,0.05739 -0.110068,0.139931 -0.06657,0.183428 0.04349,0.0435 0.743636,-0.543459 1.555867,-1.304345 0.812231,-0.760885 1.618439,-1.481565 1.791573,-1.601511 0.498477,-0.345343 1.739786,-1.544031 1.739786,-1.680052 0,-0.40007 2.035776,-2.425548 2.894541,-2.879901 1.085074,-0.574089 1.912057,-0.651998 2.67877,-0.252366 l 0.628932,0.327819 0.491231,-0.536208 c 0.270177,-0.294915 0.598041,-0.536208 0.728586,-0.536208 0.388806,0 0.441546,0.437959 0.09692,0.804799 -0.175441,0.186746 -0.31898,0.409098 -0.31898,0.49412 0,0.08502 -0.135,0.276757 -0.3,0.426081 -0.165,0.149323 -0.300921,0.412909 -0.302048,0.585748 -0.0043,0.660503 -0.185548,0.939107 -0.795302,1.22252 -0.510197,0.237139 -0.81198,0.57243 -1.612681,1.791732 -2.157565,3.285531 -2.907084,5.315207 -2.010225,5.443639 0.851822,0.121984 4.61012,-2.959507 6.053064,-4.963006 3.895065,-5.408225 3.982052,-5.505059 4.489425,-4.997685 0.218378,0.218376 0.210425,0.274174 -0.09305,0.652917 -0.182511,0.227775 -0.39707,0.56601 -0.476796,0.751635 -0.07973,0.185625 -0.214128,0.3375 -0.29867,0.3375 -0.08454,0 -0.153712,0.06516 -0.153712,0.14479 0,0.251889 -0.863388,1.518219 -1.493466,2.190464 -0.333594,0.355918 -0.607254,0.701713 -0.608135,0.768435 -9e-4,0.06672 -0.309297,0.454992 -0.685372,0.862822 -1.401927,1.520307 -2.087556,2.633691 -2.250905,3.655213 -0.08084,0.505532 -0.05605,0.628275 0.126875,0.628275 0.404751,0 2.345725,-1.418753 4.373494,-3.196802 1.1108,-0.974004 1.308438,-1.182911 2.084351,-2.203197 0.34507,-0.45375 0.661704,-0.85875 0.703625,-0.9 0.0419,-0.04125 0.37535,-0.476949 0.74094,-0.96822 0.36558,-0.491271 0.85945,-1.097009 1.09747,-1.346081 0.40499,-0.42378 0.42647,-0.507255 0.33447,-1.299951 -0.0797,-0.686949 -0.0366,-0.990511 0.22804,-1.605724 0.17949,-0.417248 0.45511,-0.875157 0.61248,-1.017576 0.15737,-0.142419 0.28613,-0.332129 0.28613,-0.421577 0,-0.08945 0.16314,-0.332112 0.36254,-0.539253 0.19939,-0.207139 0.68877,-0.718449 1.08749,-1.136242 1.81788,-1.904787 4.4481,-3.74943 6.08102,-4.264788 1.06007,-0.334566 1.08109,-0.335344 1.5942,-0.05901 0.29724,0.160071 0.60667,0.487513 0.72236,0.764406 0.2441,0.584214 0.26145,1.850254 0.0365,2.66062 -0.30612,1.102585 -1.83174,4.050132 -2.93717,5.674674 -0.69955,1.02807 -1.03132,1.638421 -0.91106,1.676035 0.10403,0.03254 0.6279,0.101112 1.16415,0.15239 1.5908,0.152115 2.87939,0.624664 3.16655,1.161232 0.19568,0.365618 0.0919,2.020578 -0.14127,2.253788 -0.0832,0.08317 -0.11504,0.493179 -0.0715,0.920151 0.0751,0.737038 0.0515,0.800745 -0.55038,1.48263 -0.46916,0.531535 -0.73587,0.7125 -1.05009,0.7125 -0.23166,0 -0.45604,-0.09079 -0.49862,-0.201752 -0.0886,-0.230908 0.39801,-1.392103 0.74326,-1.773598 0.53324,-0.589227 -0.52126,-0.80102 -1.3716,-0.27548 -0.37605,0.232412 -0.5372,0.485964 -0.7222,1.136279 -0.15313,0.53827 -0.19283,0.956275 -0.11123,1.170913 0.16567,0.435744 1.0154,0.979896 2.38542,1.527571 1.17644,0.470294 1.3763,0.673265 1.05095,1.067279 -0.56692,0.686559 -5.01685,3.198787 -5.66604,3.198787 -0.15853,0 -0.31131,0.06922 -0.33951,0.153815 -0.0892,0.267654 -3.9671,1.551423 -5.14873,1.704481 -0.165,0.02137 -0.46875,0.08205 -0.675,0.134847 -0.20625,0.05279 -0.75683,0.129627 -1.22352,0.170742 -0.466681,0.04111 -1.141681,0.143121 -1.499996,0.22668 -0.358315,0.08356 -0.820231,0.183839 -1.026481,0.222843 -0.20625,0.039 0.350625,0.04134 1.2375,0.0052 1.526937,-0.06225 1.612497,-0.05004 1.612497,0.22998 0,0.2016 -0.13128,0.323279 -0.4125,0.382325 -0.226872,0.04764 -0.783747,0.199318 -1.237497,0.337072 -0.45375,0.137754 -0.92625,0.264461 -1.05,0.281571 -0.215711,0.02983 -1.515117,0.365333 -3.326674,0.858945 -0.468422,0.127637 -1.075922,0.265797 -1.350001,0.307026 -1.304875,0.196287 -1.565805,0.243939 -1.846548,0.337217 -0.165978,0.05515 -0.403027,0.113704 -0.526777,0.130131 -0.12375,0.01642 -0.5625,0.1108 -0.975,0.209724 -0.605324,0.145165 -2.324253,0.462339 -3.675,0.678105 -0.630714,0.100749 -3.056183,0.695937 -3.375,0.828193 -0.165,0.06845 -0.73875,0.20175 -1.275,0.296228 -1.52583,0.268821 -2.897236,0.631981 -3.220877,0.852913 -0.16273,0.111089 -0.63523,0.199277 -1.05,0.195974 -0.747381,-0.006 -0.750507,-0.008 -0.349569,-0.225627 z m 8.800274,-15.287566 c 1.813884,-1.219738 5.195172,-4.802779 5.195172,-5.505154 0,-0.434207 -1.379817,-0.05507 -2.65952,0.730767 -0.307735,0.188973 -0.664228,0.343587 -0.792207,0.343587 -0.127978,0 -0.271542,0.10125 -0.319028,0.225 -0.04749,0.12375 -0.149858,0.225 -0.227487,0.225 -0.187675,0 -0.866001,0.777882 -0.872018,1 -0.0026,0.09625 -0.06464,0.197499 -0.137841,0.225 -0.225044,0.08454 -1.516899,2.703501 -1.516899,3.075191 0,0.490419 0.195312,0.443509 1.329828,-0.319391 z M 99.67369,27.916754 c 1.25656,-1.256834 2.48598,-2.539334 2.73203,-2.85 l 0.44737,-0.564846 -0.43883,0 c -0.34353,0 -0.63175,0.203584 -1.32723,0.9375 -1.19144,1.257297 -2.49972,2.774008 -2.68415,3.11181 -0.0825,0.151099 -0.40313,0.547627 -0.7125,0.881173 -0.30938,0.333546 -0.5625,0.643139 -0.5625,0.687983 0,0.274786 0.50466,-0.162047 2.54581,-2.20362 z m 7.95419,1.367449 c 0,-0.0825 -0.0675,-0.108283 -0.15,-0.05729 -0.0825,0.05099 -0.15,0.160204 -0.15,0.242704 0,0.0825 0.0675,0.108284 0.15,0.0573 0.0825,-0.05099 0.15,-0.160205 0.15,-0.242705 z M 83.70565,23.911641 c 0.519219,-0.245319 1.340769,-0.486532 1.855383,-0.544753 0.507957,-0.05747 0.962557,-0.167591 1.010222,-0.244715 0.111274,-0.180046 -0.35546,-0.530292 -0.86027,-0.645562 -0.661997,-0.151164 -2.237841,0.708886 -2.963973,1.617652 -0.2856,0.357431 -0.116006,0.325124 0.958638,-0.182622 z m 20.12869,-0.572233 c 0.72293,-0.942054 1.50253,-2.109497 1.92821,-2.8875 0.15799,-0.28875 0.35087,-0.614246 0.42864,-0.723323 0.4584,-0.642991 1.34504,-3.232855 1.50405,-4.393315 0.0897,-0.654373 0.0661,-0.716797 -0.43707,-1.158595 -0.44176,-0.387867 -0.61427,-0.451145 -1.01856,-0.373598 -0.2677,0.05135 -0.6659,0.21834 -0.88489,0.371096 -0.21898,0.152754 -0.46694,0.277735 -0.55101,0.277735 -0.0841,0 -0.47104,0.242877 -0.85993,0.539727 -0.3889,0.296852 -0.89851,0.656139 -1.13246,0.798417 -0.90449,0.550052 -3.88344,3.322392 -3.88344,3.614094 0,0.0556 -0.16958,0.297223 -0.37685,0.536931 -0.4019,0.464794 -0.67095,1.224493 -0.67232,1.898331 -9e-4,0.473433 0.0939,0.508998 0.46411,0.17398 0.38361,-0.347166 0.93364,-0.146656 0.79035,0.288117 -0.24072,0.730401 -0.15791,0.89865 0.54471,1.106793 1.183,0.350448 1.79331,0.295596 2.63552,-0.236868 0.46848,-0.296184 0.85727,-0.443685 1.0125,-0.384121 0.32616,0.12516 0.31759,0.237607 -0.048,0.630043 -0.3553,0.381372 -0.37396,0.484556 -0.0876,0.484556 0.11681,0 0.40664,-0.253125 0.64406,-0.5625 z M 59.855552,36.656233 c -0.04952,-0.08012 0.305708,-0.771996 0.78939,-1.5375 0.483683,-0.765504 1.19787,-1.965576 1.587083,-2.666826 0.389214,-0.70125 0.844395,-1.504688 1.011514,-1.785419 0.16712,-0.280731 0.830402,-1.529481 1.473962,-2.775 1.343305,-2.599781 2.249429,-4.298136 2.408659,-4.51458 0.151986,-0.206595 0.327045,-0.975 0.222126,-0.975 -0.04692,0 -0.286675,0.104133 -0.532794,0.231405 -0.246118,0.127273 -0.877869,0.364336 -1.403889,0.526807 -0.526018,0.162471 -1.148172,0.395423 -1.382562,0.517671 -0.23439,0.122247 -0.510538,0.222684 -0.613663,0.223193 -0.103125,4.5e-4 -0.1875,0.06501 -0.1875,0.143341 0,0.142406 -1.557804,2.453558 -2.98773,4.432583 -1.099658,1.521934 -1.612836,2.025 -2.065706,2.025 -0.382975,0 -0.387141,-0.01201 -0.307734,-0.887729 0.08914,-0.983046 0.751775,-2.396346 1.481612,-3.16005 0.236257,-0.247219 0.429558,-0.51159 0.429558,-0.587487 0,-0.14595 0.97372,-1.002001 2.1,-1.846224 0.651879,-0.488626 1.118161,-1.104694 1.986012,-2.62398 0.226057,-0.395742 0.681682,-1.181004 1.0125,-1.745026 0.330819,-0.564023 0.601488,-1.051095 0.601488,-1.082384 0,-0.06176 -1.741604,0.767384 -4.119014,1.96098 l -1.500027,0.753099 -0.781278,1.571901 c -0.429703,0.864545 -0.824244,1.74065 -0.876757,1.9469 -0.130184,0.511306 -2.627817,5.55 -2.751083,5.55 -0.05423,0 -0.181603,0.185625 -0.283044,0.4125 -0.197437,0.441578 -0.656331,1.025072 -1.403103,1.784078 -0.486264,0.494229 -1.288618,0.760497 -1.538541,0.510575 -0.241569,-0.241569 -0.295569,-1.729215 -0.09378,-2.58346 0.16116,-0.682235 1.39218,-3.312734 1.984852,-4.241322 1.051796,-1.647938 2.348396,-3.147309 3.726705,-4.309517 0.721791,-0.608623 1.331234,-1.452298 1.076417,-1.490127 -0.06399,-0.0095 -0.231827,-0.0057 -0.37296,0.0084 -0.529907,0.05308 -0.888633,-0.28311 -0.839652,-0.786898 0.04102,-0.421968 0.109777,-0.486042 0.607566,-0.566228 0.7018,-0.113049 0.827275,-0.0015 0.382951,0.340391 -0.325086,0.250155 -0.32755,0.264907 -0.04426,0.264907 0.658698,0 1.19524,-0.780745 1.876674,-2.730829 0.194592,-0.556875 0.408822,-1.0125 0.476065,-1.0125 0.06724,0 0.122261,-0.08822 0.122261,-0.196056 0,-0.415339 2.033835,-4.290454 2.888718,-5.503944 1.865307,-2.6477678 3.008355,-3.3123598 3.719095,-2.1623578 0.629966,1.019307 0.18165,2.6663848 -1.399486,5.1415998 -0.556521,0.871215 -1.464644,1.880641 -4.195827,4.663885 -0.969375,0.987853 -1.7625,1.897596 -1.7625,2.02165 0,0.254841 -0.07483,0.280278 1.8,-0.611833 0.70125,-0.333678 1.68,-0.795557 2.175,-1.026396 0.897139,-0.418373 2.325,-1.395579 2.325,-1.591194 0,-0.05665 0.318972,-0.667153 0.708825,-1.356676 0.389854,-0.689523 0.811729,-1.435785 0.9375,-1.658361 0.125772,-0.222576 0.419671,-0.762576 0.653112,-1.2 0.75193,-1.408982 2.094808,-3.3259608 2.842572,-4.0578168 1.095984,-1.072668 1.804929,-0.925323 1.737778,0.361175 -0.03364,0.644539 -0.536082,2.3111518 -0.81397,2.6999788 -0.07914,0.11074 -0.273179,0.437596 -0.431187,0.726346 -0.694094,1.268417 -2.898315,3.678602 -4.005257,4.379513 -0.48808,0.309084 -1.629365,1.716736 -1.629365,2.009684 0,0.109067 -0.409556,0.775032 -1.913502,3.111482 -0.363109,0.564108 -0.637992,1.045128 -0.610848,1.068936 0.106687,0.09358 2.496546,-0.785897 3.268482,-1.20281 0.776946,-0.419617 0.860157,-0.524532 1.659057,-2.091775 2.185993,-4.288371 3.612961,-6.543163 5.020552,-7.933114 2.124657,-2.0980318 3.468722,-1.6074198 3.004872,1.096846 -0.210547,1.227506 -1.046895,2.448047 -3.225012,4.706491 -0.620731,0.643623 -1.151101,1.234248 -1.178601,1.3125 -0.0275,0.07825 -0.132997,0.142277 -0.234436,0.142277 -0.101441,0 -0.382691,0.20838 -0.625001,0.463065 -0.24231,0.254686 -0.840312,0.764646 -1.328892,1.133244 -0.488581,0.368598 -0.967347,0.818343 -1.063923,0.999435 -0.09658,0.18109 -0.601512,1.139256 -1.122081,2.129256 -0.520569,0.99 -1.031184,1.90125 -1.134699,2.025 -0.103516,0.12375 -0.429727,0.73125 -0.724912,1.35 -0.596229,1.249777 -1.371009,2.655175 -1.653866,3 -0.101511,0.12375 -0.39999,0.685924 -0.663286,1.249276 -0.263297,0.563352 -0.747638,1.420273 -1.076313,1.904269 -0.328676,0.483996 -0.597591,0.925278 -0.597591,0.980627 0,0.115749 -0.899702,1.377154 -1.5696,2.200623 -0.443205,0.544806 -0.870147,0.714949 -1.052726,0.41953 z m -6.566296,-4.691826 c 0.316507,-0.340549 1.388622,-1.888979 1.388622,-2.005553 0,-0.0346 0.170004,-0.332211 0.377785,-0.661359 0.207782,-0.329147 0.741539,-1.432476 1.186127,-2.45184 0.444588,-1.019364 0.882094,-1.980596 0.972237,-2.136068 0.308634,-0.53232 0.77145,-1.750081 0.694407,-1.827124 -0.08186,-0.08185 -1.224328,1.059373 -1.927201,1.925103 -0.988712,1.217797 -1.364694,1.762269 -1.705191,2.469342 -0.198644,0.4125 -0.42444,0.85125 -0.50177,0.975 -0.776514,1.242651 -1.287709,2.993407 -1.092261,3.740803 0.103203,0.394648 0.219177,0.389242 0.607245,-0.0283 z m 6.116076,-3.674999 c 0.199686,-0.226875 0.365356,-0.48 0.368157,-0.5625 0.0028,-0.0825 0.207759,-0.38625 0.455463,-0.675 0.247704,-0.28875 0.492504,-0.656232 0.544001,-0.816627 0.0515,-0.160395 0.236797,-0.407709 0.411778,-0.549588 0.353781,-0.286854 0.298953,-0.511607 -0.05709,-0.234021 -0.517989,0.403848 -2.249763,2.812884 -2.249763,3.129603 0,0.215667 0.157408,0.128565 0.527454,-0.291867 z M 73.049846,17.226441 c 2.321246,-2.304427 3.31607,-3.782014 3.480374,-5.169313 0.07319,-0.617946 0.04244,-0.747457 -0.209459,-0.882268 -0.554457,-0.296738 -1.833744,0.891093 -3.09738,2.875945 -0.436597,0.685784 -2.64133,4.874538 -2.930695,5.568006 -0.121172,0.290388 1.275904,-0.921846 2.75716,-2.39237 z M 62.447443,16.664408 c 1.102592,-1.102623 2.280435,-2.412898 2.280435,-2.536836 0,-0.05733 0.08635,-0.193432 0.191893,-0.302449 0.501425,-0.517943 1.654388,-2.341844 2.00511,-3.171936 0.536549,-1.2699078 0.523779,-2.3512788 -0.02777,-2.3512788 -0.234513,0 -1.278388,1.078883 -1.86818,1.9308318 -0.603425,0.871642 -1.726918,3.032326 -2.544824,4.894168 -0.181213,0.4125 -0.492996,1.07013 -0.692855,1.461401 -0.589767,1.154612 -0.439698,1.172015 0.656187,0.0761 z m 7.39048,-2.4375 c 1.529876,-1.651011 2.989955,-4.114627 2.989955,-5.0450018 0,-0.415677 -0.406067,-0.339012 -0.701826,0.132502 -0.142307,0.226875 -0.347837,0.51375 -0.456732,0.6375 -0.42295,0.4806468 -0.838026,1.0903398 -1.153659,1.6945738 -0.181122,0.346734 -0.722296,1.364205 -1.20261,2.261048 -0.480313,0.896841 -0.777626,1.571841 -0.660693,1.5 0.116932,-0.07184 0.650436,-0.603122 1.185565,-1.180622 z M 5.8307413,32.868828 c -0.506839,-0.563139 -0.8421558,-2.10567 -0.830452,-3.820252 0.02068,-3.028901 0.530586,-5.746545 1.781854,-9.496668 0.289033,-0.86625 0.582539,-2.115 0.652237,-2.775 0.263934,-2.499348 0.868157,-4.268019 1.930327,-5.650426 0.7462637,-0.971258 1.4201887,-1.2454458 2.1289077,-0.866151 0.259627,0.138948 0.511944,-0.06055 2.052638,-1.6229178 2.11631,-2.146084 2.882139,-2.803998 3.814139,-3.276678 1.336737,-0.67795 2.243607,-0.403316 2.80441,0.849278 0.208988,0.466788 0.232727,0.793386 0.137015,1.885006 -0.102996,1.174715 -0.200147,1.486524 -0.880533,2.8261408 -0.768699,1.513497 -1.174692,2.234384 -1.704929,3.027288 -0.157587,0.235653 -0.460447,0.69846 -0.673024,1.02846 -0.7185,1.115388 -2.75293,3.601486 -3.593888,4.391776 -1.316583,1.237259 -1.520055,1.393238 -2.194668,1.682411 -0.407625,0.174729 -1.034344,0.300813 -1.4952287,0.300813 -0.746048,0 -0.829964,-0.0396 -1.404364,-0.662751 -0.732446,-0.794612 -0.783095,-0.757937 -1.228121,0.889279 -0.599697,2.219718 -0.757329,2.970363 -0.989678,4.712864 -0.461341,3.459828 -0.186873,6.160607 0.626073,6.160607 0.300122,0 1.722314,-1.240263 3.8486507,-3.356323 1.745212,-1.736778 1.930404,-1.973827 2.155705,-2.75934 0.564026,-1.966474 2.061259,-4.753305 3.187465,-5.932894 0.603678,-0.632294 1.865603,-1.301442 2.454345,-1.301442 0.440997,0 1.110752,0.482517 1.241481,0.894409 0.05003,0.157622 0.239642,0.307736 0.421367,0.333587 0.25371,0.03609 0.320911,0.134052 0.289497,0.422004 -0.0225,0.20625 -0.07634,0.74625 -0.119639,1.2 -0.129168,1.353594 -0.520989,2.518774 -1.173768,3.490506 -0.505501,0.752491 -0.889261,3.46747 -0.597568,4.227609 0.08536,0.222444 0.125031,0.221737 0.476395,-0.0085 0.741618,-0.485927 1.310518,-1.241664 3.228298,-4.288533 0.733579,-1.165475 2.234777,-4.257426 2.858281,-5.887079 0.549781,-1.436962 0.861052,-1.735386 1.409448,-1.351275 0.165102,0.115643 0.345819,0.397458 0.401593,0.626258 0.05577,0.228799 0.30518,0.837508 0.554237,1.352685 0.352942,0.730069 0.429553,1.044399 0.34731,1.425 -0.129588,0.599707 -0.907208,2.125566 -1.212275,2.378751 -0.123054,0.102124 -0.319824,0.393555 -0.437266,0.647622 -0.117443,0.254068 -0.333699,0.664441 -0.480569,0.911941 -0.904993,1.525062 -1.231105,2.173212 -1.384974,2.752641 -0.09532,0.358953 -0.1441,0.681851 -0.1084,0.717551 0.13584,0.13584 1.71834,-1.298877 2.604678,-2.361438 1.422805,-1.705692 1.908855,-2.448624 2.982477,-4.558754 1.29759,-2.550319 1.963615,-3.525 2.408733,-3.525 0.187668,0 0.383562,0.06852 0.435319,0.152265 0.105407,0.170552 -0.604981,1.688931 -1.020907,2.182085 -0.148228,0.175752 -0.8433,1.460547 -1.544601,2.8551 -0.903567,1.796761 -1.335484,2.840949 -1.482357,3.583686 -0.113994,0.576475 -0.181,1.074399 -0.148902,1.106496 0.101011,0.101013 1.52795,-1.162635 2.489184,-2.204337 1.034855,-1.121486 1.639019,-2.009321 2.415947,-3.550295 1.182766,-2.345923 2.364654,-4.10983 2.759371,-4.118218 0.597603,-0.01271 0.668976,0.317511 0.233474,1.080178 -0.579759,1.015296 -1.195127,2.027885 -1.755111,2.88804 -0.80261,1.232835 -2.301188,4.334441 -2.473142,5.118662 -0.0882,0.402237 -0.19618,0.849463 -0.239965,0.993838 -0.140277,0.46256 0.288828,0.290171 1.316838,-0.529024 1.442358,-1.149381 2.120026,-2.050017 3.128974,-4.158476 0.493478,-1.03125 0.982479,-1.97625 1.086671,-2.1 0.104193,-0.12375 0.306651,-0.472519 0.44991,-0.775042 0.143257,-0.302523 0.614897,-0.924845 1.048089,-1.382937 0.62879,-0.664938 0.855427,-0.815165 1.123873,-0.744963 0.463043,0.121087 0.432439,0.570991 -0.111845,1.644304 -0.246455,0.486002 -0.448956,0.934569 -0.449999,0.996818 -0.0023,0.137713 -1.309055,2.023894 -1.67923,2.423839 -0.801036,0.865454 -1.77128,2.579595 -2.502098,4.420484 -0.403869,1.017325 -0.401311,1.067502 0.05443,1.067502 0.510764,0 0.471583,0.24235 -0.08577,0.530572 -0.723882,0.374334 -0.944149,0.09198 -0.84937,-1.088772 0.04158,-0.51799 0.0403,-0.9418 -0.0029,-0.9418 -0.04315,0 -0.389751,0.274222 -0.770228,0.609384 -1.130596,0.995944 -1.462123,1.190616 -2.027625,1.190616 -0.494953,0 -0.681715,-0.657794 -0.505608,-1.780812 0.06976,-0.444848 0.09324,-0.842406 0.05218,-0.883464 -0.04106,-0.04106 -0.378375,0.237858 -0.749592,0.619812 -0.371219,0.381955 -0.741606,0.694464 -0.823085,0.694464 -0.08148,0 -0.202155,0.09652 -0.26817,0.214479 -0.146025,0.260931 -0.927346,0.683326 -1.26633,0.684597 -0.443095,0.0017 -0.624808,-0.792074 -0.443665,-1.937973 l 0.127956,-0.809447 -1.29392,1.359894 c -1.157568,1.216587 -2.187721,1.98845 -2.653854,1.98845 -0.09041,0 -0.249612,-0.159269 -0.353793,-0.353931 -0.281385,-0.525774 0.131702,-1.949558 1.04699,-3.608645 0.793578,-1.43847 0.799093,-1.447834 1.677546,-2.847999 0.776557,-1.237755 0.847308,-1.739095 0.36834,-2.610063 -0.210968,-0.383626 -0.445665,-0.7182 -0.521552,-0.743496 -0.07589,-0.0253 -0.260523,0.274896 -0.410305,0.667094 -0.431102,1.128823 -1.21781,2.703804 -2.121411,4.24704 -0.458904,0.78375 -0.967469,1.66125 -1.130144,1.95 -0.162675,0.28875 -0.481684,0.76125 -0.708909,1.05 -0.227226,0.28875 -0.497164,0.682846 -0.599863,0.87577 -0.286563,0.538317 -1.219414,1.520921 -1.650695,1.738733 -0.605293,0.305695 -1.334229,0.266305 -1.520731,-0.08218 -0.233532,-0.436359 -0.337128,-2.182187 -0.18587,-3.132327 0.140199,-0.880671 0.1035,-1.35 -0.105562,-1.35 -0.07089,0 -0.16784,0.118125 -0.215441,0.2625 -0.0476,0.144375 -0.2884,0.491022 -0.535108,0.770326 -0.246662,0.279319 -0.448514,0.550826 -0.448514,0.603365 0,0.05254 -0.572132,0.684642 -1.271403,1.404674 -1.101348,1.134045 -1.338886,1.309149 -1.775923,1.309149 -0.565085,0 -0.852674,-0.407115 -0.852674,-1.207058 0,-0.243618 -0.04638,-0.442942 -0.103067,-0.442942 -0.05669,0 -0.755712,0.658125 -1.55339,1.4625 -0.7976777,0.804375 -1.7371937,1.698749 -2.0878127,1.987499 -0.350618,0.28875 -0.80257,0.676875 -1.004338,0.8625 -0.201767,0.185625 -0.526601,0.3375 -0.721853,0.3375 -0.195252,0 -0.448139,0.03574 -0.561971,0.07942 -0.113833,0.04368 -0.34545,-0.07444 -0.514705,-0.2625 z m 8.5942427,-4.50442 c 0.940343,-0.965114 2.149225,-2.488052 2.708782,-3.4125 0.336717,-0.556293 0.619459,-1.95 0.395596,-1.95 -0.161615,0 -1.9236,1.732834 -3.051484,3.001003 -0.45375,0.510188 -0.904188,1.174299 -1.000972,1.475805 -0.201972,0.629186 -0.255801,1.823192 -0.08219,1.823192 0.06426,0 0.527881,-0.421875 1.030273,-0.9375 z m 0.355435,-3.530277 c 0.0014,-0.05897 0.314517,-0.444723 0.695818,-0.857223 0.381303,-0.4125 0.95313,-1.03208 1.270728,-1.376843 0.773603,-0.83977 1.143875,-0.946414 1.569195,-0.45195 0.370002,0.430154 0.446991,0.396581 0.749946,-0.327025 0.463188,-1.106331 0.05111,-1.819182 -1.051617,-1.819182 -0.572334,0 -0.719184,0.07469 -1.205797,0.613315 -0.779849,0.863199 -1.848354,2.555079 -2.271796,3.597177 -0.19746,0.485951 -0.359018,0.921012 -0.359018,0.966804 0,0.123581 0.599573,-0.219793 0.602541,-0.345073 z m -3.452541,-4.494492 c 1.335973,-0.754316 3.885523,-3.649785 5.646609,-6.412731 2.319756,-3.639436 3.188635,-6.1556248 2.583933,-7.4828038 -0.391443,-0.859125 -1.483025,-0.853677 -2.748807,0.01373 -0.78606,0.538658 -2.97363,2.703786 -3.756735,3.7181958 -0.2475,0.320604 -0.6525,0.835272 -0.9,1.143708 -1.054429,1.314034 -1.774576,2.463967 -2.9009127,4.632183 -0.692856,1.333759 -0.819336,1.701364 -0.825758,2.399999 -0.0097,1.060881 0.470916,2.036135 1.147755,2.328747 0.5515017,0.238427 0.8201847,0.186186 1.7539157,-0.341016 z M 9.3739963,14.076908 c 0.07053,-0.165 0.567334,-0.939589 1.1040127,-1.721311 0.53668,-0.781721 0.943467,-1.473596 0.903973,-1.5375 -0.124722,-0.201803 -0.608845,-0.126183 -0.936683,0.146311 -0.7334307,0.609615 -1.9792207,3.361625 -1.9627397,4.335786 0.0046,0.274043 0.601535,-0.545059 0.891437,-1.223286 z M 47.365378,30.660374 c -0.430166,-0.358859 -0.442772,-1.078277 -0.03758,-2.144357 0.42436,-1.116505 0.383604,-1.16379 -0.352163,-0.408582 -1.53134,1.571807 -2.588304,2.217126 -3.144162,1.91964 -0.248897,-0.133206 -0.276619,-0.27534 -0.210019,-1.076815 0.0422,-0.507843 0.12771,-1.092102 0.19002,-1.298352 0.08297,-0.274617 -0.224246,-0.04546 -1.147655,0.856057 -1.800532,1.757855 -2.290371,2.113644 -2.869865,2.084501 -0.71814,-0.03612 -0.879036,-0.460635 -0.612259,-1.615409 0.116266,-0.50326 0.300671,-1.159173 0.409793,-1.457583 0.10912,-0.298411 0.34748,-0.981316 0.529684,-1.517566 0.618797,-1.821185 2.48072,-5.169183 3.4438,-6.192432 0.917643,-0.974975 1.881604,-1.034907 2.067468,-0.12854 0.180145,0.878483 0.07723,1.340694 -0.568435,2.552891 -0.460496,0.864559 -0.876316,1.380114 -1.706561,2.115892 -0.603743,0.535046 -1.296432,1.053897 -1.539313,1.153002 -0.337489,0.137711 -0.549217,0.421134 -0.898084,1.202189 -0.524064,1.173298 -1.027198,2.861973 -0.892769,2.996403 0.254117,0.254118 3.302511,-2.556635 4.418885,-4.074405 0.795094,-1.080974 1.29315,-1.864007 1.811928,-2.848677 1.479535,-2.808251 2.346306,-3.819474 2.740756,-3.197522 0.179654,0.283271 0.169406,0.320043 -0.268317,0.962766 -0.740529,1.087349 -3.873877,7.201305 -4.17202,8.140673 -0.222032,0.699561 0.421962,0.293517 2.350866,-1.48224 0.8404,-0.77367 2.368502,-2.751204 2.368502,-3.065096 0,-0.03412 0.354375,-0.643378 0.7875,-1.353919 0.433125,-0.71054 0.866916,-1.435853 0.963981,-1.611809 0.351493,-0.637176 1.098519,-0.696895 1.098519,-0.08782 0,0.164594 -0.476922,1.119246 -1.059828,2.121452 -0.582906,1.002205 -1.11785,1.923441 -1.188764,2.047191 -0.790996,1.380337 -1.968828,4.081636 -1.994809,4.575 -0.03155,0.598968 -0.03063,0.6 0.531,0.6 0.600833,0 0.667371,0.06003 0.382401,0.345 -0.268921,0.268921 -1.049275,0.208164 -1.4325,-0.111534 z m -4.58633,-6.682934 c 1.467333,-1.283587 2.624933,-3.476863 2.142119,-4.058619 -0.167298,-0.20158 -0.252265,-0.170139 -0.692003,0.25607 -0.275707,0.267226 -0.501286,0.541149 -0.501286,0.608715 0,0.06757 -0.213791,0.501661 -0.475089,0.964659 -0.712671,1.262782 -1.477809,2.903643 -1.353976,2.903643 0.06007,0 0.456175,-0.30351 0.880236,-0.674468 z M 82.808341,13.562123 c -0.834434,-0.161932 -0.934846,-1.697938 -0.121167,-1.853484 0.632069,-0.120826 0.992163,0.136023 0.867879,0.619047 -0.0565,0.219572 -0.09986,0.58265 -0.09637,0.806838 0.0076,0.488483 -0.07083,0.54006 -0.650343,0.427599 z"
     style="fill:#000000" />
</svg>
