<?xml version="1.0" encoding="UTF-8" standalone="no"?>
<!-- Created with Inkscape (http://www.inkscape.org/) -->

<svg
   xmlns:dc="http://purl.org/dc/elements/1.1/"
   xmlns:cc="http://creativecommons.org/ns#"
   xmlns:rdf="http://www.w3.org/1999/02/22-rdf-syntax-ns#"
   xmlns:svg="http://www.w3.org/2000/svg"
   xmlns="http://www.w3.org/2000/svg"
   xmlns:sodipodi="http://sodipodi.sourceforge.net/DTD/sodipodi-0.dtd"
   xmlns:inkscape="http://www.inkscape.org/namespaces/inkscape"
   width="580"
   height="1052.3622"
   id="svg3019"
   version="1.1"
   inkscape:version="0.48.2 r9819"
   sodipodi:docname="Signature Orson Scott Card.svg">
  <defs
     id="defs3021" />
  <sodipodi:namedview
     id="base"
     pagecolor="#ffffff"
     bordercolor="#666666"
     borderopacity="1.0"
     inkscape:pageopacity="0.0"
     inkscape:pageshadow="2"
     inkscape:zoom="0.35"
     inkscape:cx="375"
     inkscape:cy="520"
     inkscape:document-units="px"
     inkscape:current-layer="layer1"
     showgrid="false"
     inkscape:window-width="1537"
     inkscape:window-height="878"
     inkscape:window-x="-8"
     inkscape:window-y="-8"
     inkscape:window-maximized="1" />
  <metadata
     id="metadata3024">
    <rdf:RDF>
      <cc:Work
         rdf:about="">
        <dc:format>image/svg+xml</dc:format>
        <dc:type
           rdf:resource="http://purl.org/dc/dcmitype/StillImage" />
        <dc:title></dc:title>
      </cc:Work>
    </rdf:RDF>
  </metadata>
  <g
     inkscape:label="Laag 1"
     inkscape:groupmode="layer"
     id="layer1">
    <path
       style="fill:#000000"
       d="m 342.04338,1030.9023 c 0,-0.7568 1.54806,-1.376 3.44014,-1.376 1.89207,0 3.44014,0.6192 3.44014,1.376 0,0.7569 -1.54807,1.3761 -3.44014,1.3761 -1.89208,0 -3.44014,-0.6192 -3.44014,-1.3761 z m -14.34811,-2.0936 c -1.45842,-1.1034 -2.25231,-2.4055 -1.76419,-2.8936 0.92309,-0.9231 8.94561,1.8149 11.22731,3.8317 2.3146,2.0459 -6.70006,1.1523 -9.46312,-0.9381 z m 28.79669,0.7176 c 0.46774,-0.7569 1.7674,-1.3761 2.88814,-1.3761 7.24999,0 28.58102,-16.2794 37.70547,-28.77604 3.40573,-4.66438 8.20472,-10.99297 10.66441,-14.06349 2.45971,-3.07051 4.47218,-6.09588 4.47218,-6.72304 0,-0.62715 1.53383,-2.96312 3.40852,-5.19106 1.87467,-2.22793 5.2501,-8.62249 7.50096,-14.21013 2.25085,-5.58765 5.36122,-12.76115 6.91191,-15.94112 1.55069,-3.17997 2.81943,-6.61667 2.81943,-7.6371 0,-1.02044 0.66736,-2.5227 1.48303,-3.33838 0.81566,-0.81565 1.98352,-3.5712 2.59526,-6.12343 0.61172,-2.55223 3.65585,-12.55338 6.76473,-22.22476 3.10888,-9.67139 6.95026,-22.3655 8.53639,-28.20912 1.58613,-5.84364 3.48308,-12.79206 4.21549,-15.44096 4.56522,-16.51152 9.45811,-47.51656 10.83787,-68.67699 0.85189,-13.06457 1.21275,-24.62971 0.80192,-25.7003 -1.23153,-3.20933 -4.53203,-2.20396 -6.03263,1.83762 -8.51134,22.92352 -9.28602,24.71676 -20.95513,48.50592 -10.31727,21.03324 -13.93713,27.49209 -23.74835,42.37382 -4.84306,7.34601 -9.62914,14.90444 -10.63572,16.79652 -3.70896,6.97174 -24.315,31.3797 -38.44167,45.53434 -14.89259,14.92204 -24.17336,21.96959 -40.63885,30.85988 -17.18542,9.27899 -22.75486,10.67772 -43.77155,10.99295 -10.42363,0.15633 -19.32865,0.66084 -19.78891,1.12112 -0.99398,0.99398 3.11564,10.07398 5.12021,11.31288 0.76725,0.47419 2.83507,3.13219 4.59514,5.90669 7.75001,12.21665 30.24526,33.31658 42.00096,39.39568 2.32394,1.2017 4.22534,2.83 4.22534,3.6184 0,1.8628 -5.10677,0.2751 -9.84481,-3.0607 -2.0089,-1.4144 -4.06269,-2.5716 -4.56398,-2.5716 -1.4591,0 -10.64029,-7.0803 -15.66641,-12.0815 -10.46469,-10.41298 -23.22352,-26.73529 -28.11128,-35.96267 -4.29706,-8.11221 -6.23631,-10.33207 -11.08317,-12.68686 l -5.87479,-2.8542 -15.91638,15.81338 c -13.51585,13.42839 -17.65534,16.66321 -27.44635,21.44804 -13.53484,6.61447 -27.72451,9.80851 -43.58128,9.81011 -12.63825,10e-4 -29.67095,-3.03224 -38.12749,-6.79036 -13.48564,-5.99308 -37.035829,-24.92755 -46.320939,-37.24231 -4.52015,-5.99503 -14.4663,-24.98087 -16.94057,-32.33727 -1.01822,-3.02732 -3.16464,-8.90996 -4.76983,-13.07253 -9.35551,-24.26076 -13.17958,-62.47268 -13.0824,-130.72517 0.0772,-54.22867 0.0909,-54.40501 8.18529,-105.9562 1.12893,-7.18988 3.30633,-22.6705 4.83866,-34.40136 1.53233,-11.73087 3.36036,-23.80575 4.06232,-26.83307 0.70193,-3.02732 1.94238,-9.52917 2.75652,-14.44857 1.8014,-10.88472 6.80976,-37.42034 8.311,-44.03375 0.60129,-2.6489 1.82879,-8.53153 2.72775,-13.07251 1.86326,-9.4119 6.39339,-26.26776 11.64946,-43.34572 1.9799,-6.43305 4.51001,-14.99806 5.62249,-19.03333 1.11249,-4.03528 2.61498,-8.44358 3.3389,-9.79624 0.72391,-1.35264 3.7629,-9.81631 6.7533,-18.80816 5.711639,-17.17428 16.117089,-41.85122 26.911969,-63.82268 11.01915,-22.42799 21.72964,-43.13224 25.07836,-48.47858 1.76825,-2.82308 3.215,-5.42374 3.215,-5.77925 0,-0.35551 1.79525,-3.30914 3.98947,-6.5636 11.10889,-16.4768 12.09447,-19.53004 13.01484,-40.31858 0.94159,-21.26768 4.74303,-52.39335 9.24335,-75.68299 1.60868,-8.32513 3.46582,-17.92312 4.12697,-21.32885 0.66116,-3.40573 1.86607,-8.66915 2.67759,-11.69647 0.81153,-3.02732 2.33493,-9.33311 3.38536,-14.01286 1.98272,-8.8333 7.36549,-26.36831 11.75006,-38.2772 7.25992,-19.71867 10.13921,-26.997413 14.15028,-35.77155 4.18788,-9.160877 11.06898,-21.997237 15.92326,-29.704064 1.23091,-1.95423 4.25298,-6.962491 6.7157,-11.129446 5.02896,-8.509066 12.11498,-16.424159 20.2913,-22.665392 7.90397,-6.033353 24.08096,-11.094688 24.08096,-7.534271 0,1.336878 -4.63752,2.850264 -8.94436,2.918847 -5.50062,0.08766 -20.2356,12.3101 -26.21788,21.747453 -1.29113,2.036822 -3.77965,5.251369 -5.53006,7.143443 -1.75039,1.892076 -6.65252,10.150824 -10.89362,18.352783 -4.24109,8.201959 -8.29336,15.942267 -9.00505,17.200682 -2.68028,4.73927 -8.21176,18.534475 -8.21176,20.479675 0,1.1135 -0.85341,3.66816 -1.89646,5.67701 -3.57117,6.87789 -4.98499,10.55445 -10.40015,27.04537 -6.69056,20.37485 -16.07834,58.86315 -17.28692,70.87338 -0.49467,4.91578 -1.49616,10.51896 -2.22553,12.45151 -2.85891,7.57509 -8.80569,64.44224 -6.93458,66.31335 1.69087,1.69087 4.42118,-2.99623 6.60851,-11.34477 2.13567,-8.15133 8.47385,-26.95482 11.132,-33.0253 1.1599,-2.64891 2.58937,-6.67387 3.17662,-8.94436 2.56172,-9.9045 8.13444,-23.48749 19.19493,-46.78585 4.97248,-10.47426 12.39212,-27.7246 12.39212,-28.81112 0,-0.45581 1.4313,-3.13853 3.18063,-5.9616 1.74935,-2.82307 4.03347,-7.30014 5.07581,-9.94905 1.04237,-2.6489 3.32642,-6.73232 5.07571,-9.07424 1.74928,-2.34193 3.18051,-4.96162 3.18051,-5.82151 0,-0.85991 2.16728,-4.95148 4.81619,-9.09237 2.6489,-4.14091 4.81619,-7.85092 4.81619,-8.24446 0,-1.06442 15.95176,-25.158913 20.30887,-30.675723 7.4709,-9.459397 18.31993,-19.65497 20.91468,-19.65497 2.66189,0 1.46632,1.658545 -9.69576,13.45052 -6.12145,6.466878 -12.69263,14.290779 -14.60265,17.386448 -1.91,3.095655 -5.52584,8.724605 -8.03516,12.508755 -10.51476,15.85654 -50.17162,95.11811 -50.17162,100.27726 0,0.92861 -0.53779,2.27664 -1.19512,2.99563 -0.65729,0.71899 -2.32366,4.40337 -3.703,8.18752 -1.37932,3.78415 -3.24385,8.11872 -4.14337,9.63238 -3.03255,5.10303 -14.8458,43.31072 -13.71703,44.36509 0.61514,0.5746 1.40249,0.2478 1.74968,-0.7262 0.34719,-0.974 1.99837,-3.4509 3.66925,-5.50422 1.6709,-2.05333 6.33372,-9.61594 10.36182,-16.80583 4.02809,-7.18987 10.21899,-17.09747 13.75754,-22.01686 3.53856,-4.9194 10.54577,-15.1366 15.57157,-22.7049 19.35821,-29.15126 36.84697,-51.60205 40.19705,-51.60205 0.98406,0 2.5855,-0.95949 3.55876,-2.13219 7.48329,-9.0168 31.83829,-9.96542 47.0357,-1.832 1.80056,0.96362 3.17292,0.94554 4.3818,-0.0576 1.31429,-1.09077 2.12171,-0.66723 3.18757,1.67208 1.66518,3.65469 17.68568,12.50063 20.60826,11.37913 1.63927,-0.62905 1.81925,-3.01568 1.01776,-13.49707 -0.53551,-7.00316 -1.08438,-15.20987 -1.21972,-18.23719 -0.53355,-11.93501 -2.52698,-26.91166 -3.67659,-27.62216 -0.6669,-0.41215 -1.21252,-3.932803 -1.21252,-7.823654 0,-8.717567 2.63509,-7.237537 3.29923,1.853064 0.24398,3.339407 0.79006,7.0005 1.21353,8.13575 1.47068,3.94256 5.23543,44.7966 5.32584,57.79429 0.13086,18.81644 2.5041,22.18452 8.484,12.04047 3.30822,-5.61194 6.66192,-9.36823 29.45073,-32.98611 10.57226,-10.95691 27.392,-26.3351 32.77761,-29.96838 27.40951,-18.49126 40.89702,-24.768986 53.21544,-24.768986 6.56788,0 4.21911,2.050198 -4.17669,3.645761 -10.94966,2.080896 -28.26665,10.471342 -39.57784,19.176295 -2.96148,2.27912 -7.17979,5.27243 -9.37402,6.65181 -5.59399,3.51659 -48.7155,46.88729 -54.51829,54.83336 -2.63488,3.60809 -7.4892,10.10995 -10.78739,14.44858 l -5.99666,7.88843 0.46391,28.20911 c 0.45582,27.71771 -0.33524,57.56414 -2.82652,106.64423 -0.69149,13.62293 -1.23073,26.31704 -1.1983,28.20911 0.0897,5.23787 -1.69185,56.75098 -2.32345,67.17947 -0.30617,5.05535 -1.2075,18.47992 -2.003,29.83238 -1.28523,18.34176 -2.19579,34.64554 -4.89155,87.58373 l -0.74616,14.65285 7.255,5.29994 c 8.11206,5.92607 38.51785,33.41278 43.49873,39.32268 4.27112,5.0678 7.39129,4.8153 11.79191,-0.9542 6.05631,-7.94027 1.62176,-16.93954 -5.19266,-10.53772 -4.3284,4.06633 -5.44779,3.65254 -2.98785,-1.10446 2.84556,-5.5027 7.43043,-6.82258 10.50599,-3.02443 1.30355,1.60981 3.19964,2.92461 4.21359,2.92179 1.01393,-0.002 4.73767,-3.56338 8.27498,-7.91231 3.53731,-4.34896 15.45738,-16.99125 26.48905,-28.094 11.03166,-11.10276 20.05757,-20.50544 20.05757,-20.89489 0,-0.38941 0.95325,-5.2379 2.11833,-10.77439 1.16507,-5.53651 3.9484,-20.90279 6.18513,-34.14732 2.23675,-13.24452 4.67028,-26.86746 5.40783,-30.27319 1.62495,-7.50342 6.53602,-34.34786 7.67815,-41.96966 0.45365,-3.02732 1.75821,-9.83879 2.89902,-15.13661 5.15412,-23.9353 6.03904,-28.48816 8.55868,-44.03374 3.70114,-22.83521 5.30094,-33.88707 8.36607,-57.79429 3.79077,-29.56713 4.17566,-33.15196 4.87563,-45.4098 0.34573,-6.05464 0.95112,-14.10455 1.34529,-17.88871 0.39417,-3.78415 1.10638,-19.57437 1.58272,-35.08939 0.47633,-15.51501 1.08411,-30.68601 1.35065,-33.71333 0.26653,-3.02732 0.84076,-14.85542 1.27606,-26.28466 0.69198,-18.16826 0.43718,-22.13303 -2.02693,-31.54076 -2.87095,-10.960992 -2.8492,-15.221077 0.0411,-8.059013 0.87941,2.17909 2.14117,5.200423 2.80395,6.714083 2.5973,5.93187 1.79727,55.29439 -2.27481,140.35756 -0.43476,9.08196 -2.0422,26.42026 -3.57204,38.52953 -1.52986,12.10928 -3.31116,26.35145 -3.95843,31.64925 -1.45661,11.92218 -4.4059,29.64009 -10.19298,61.23443 -7.42365,40.52925 -9.32621,51.10819 -10.51767,58.48232 -0.73371,4.54098 -2.21617,11.97167 -3.29438,16.51264 -1.0782,4.54099 -2.99776,15.0678 -4.2657,23.39294 -1.26793,8.32513 -3.12573,18.54233 -4.12844,22.70489 -1.00271,4.16257 -1.79299,9.11636 -1.75616,11.00844 0.0368,1.89207 -0.39385,5.76223 -0.95701,8.60034 -0.71617,3.60921 -0.53937,5.16021 0.58823,5.16021 0.88668,0 10.07194,-7.80067 20.4117,-17.33484 10.33976,-9.53416 22.54422,-20.19251 27.12104,-23.68523 4.57681,-3.49271 11.91414,-9.31497 16.30522,-12.93836 4.39105,-3.62338 8.57083,-6.58797 9.28836,-6.58797 4.23771,0 -1.82093,5.75471 -25.35275,24.08095 -7.97045,6.20727 -10.87366,8.73726 -30.93937,26.96203 -7.83807,7.11895 -15.67948,14.03973 -17.4254,15.37951 -1.80218,1.38298 -4.22796,5.8441 -5.61179,10.32042 -1.34057,4.33644 -3.87116,10.19424 -5.62351,13.0173 -1.75237,2.82307 -3.1861,5.68857 -3.1861,6.36776 0,0.67921 -0.99284,2.0589 -2.20631,3.06598 -1.21345,1.00709 -6.47341,7.80777 -11.68877,15.11262 -11.68959,16.37292 -18.2366,21.35352 -27.5362,20.94803 -6.24867,-0.27248 -6.7865,-10e-4 -10.78185,5.43128 -2.31281,3.14493 -4.20511,6.59686 -4.20511,7.6709 0,1.07406 3.8162,6.25731 8.48043,11.5183 9.755,11.00313 10.5885,11.11334 22.81378,3.01624 8.02744,-5.31678 32.52717,-17.71978 40.77764,-20.6437 12.94919,-4.58913 20.07107,-1.13903 21.16575,10.25346 2.12674,22.13347 -9.05777,81.9343 -22.63266,121.0112 -3.24173,9.33174 -3.46607,11.66959 -3.36713,35.08939 0.0583,13.80036 -0.43519,30.35496 -1.09666,36.788 -1.41672,13.77841 -7.29842,45.92276 -10.19739,55.73021 -1.11854,3.78416 -3.04038,10.28602 -4.27074,14.44858 -5.36054,18.13582 -6.89364,22.7828 -7.9219,24.01215 -0.60139,0.71899 -1.09343,2.48532 -1.09343,3.9252 0,1.43986 -1.75067,7.97267 -3.89039,14.51737 -2.1397,6.54467 -4.74053,14.68594 -5.7796,18.09168 -2.43458,7.97979 -14.62092,31.74128 -22.62258,44.1106 -3.43033,5.30274 -6.23696,9.95477 -6.23696,10.33783 0,0.38308 -3.87015,5.3557 -8.60034,11.05029 -9.06543,10.9136 -24.46209,22.6236 -34.31897,26.1013 -6.53322,2.305 -9.88112,2.5347 -8.68273,0.5957 z m -169.1487,-36.1312 c 12.40506,-5.01904 33.12433,-19.36821 42.8957,-29.70749 4.73018,-5.00511 8.60033,-9.94046 8.60033,-10.96744 0,-1.02698 -3.6357,-5.68377 -8.07936,-10.34845 -7.19526,-7.55316 -16.31753,-21.01738 -22.6486,-33.42874 -8.29749,-16.2663 -22.16914,-66.0106 -23.74117,-85.13686 -0.24883,-3.02732 -1.09137,-11.07724 -1.87231,-17.88871 -4.2326,-36.91716 -5.17581,-84.25025 -2.46351,-123.62548 0.87573,-12.71329 0.85038,-19.50687 -0.0763,-20.4335 -2.5439,-2.5439 -6.95077,0.24466 -8.67172,5.48723 -3.48673,10.6217 -11.09236,19.54304 -16.66088,19.54304 -1.32782,0 -3.47061,-1.61229 -4.76179,-3.58287 -1.94133,-2.96285 -2.34448,-7.02062 -2.32974,-23.44876 0.0155,-17.33033 -0.25831,-19.81273 -2.14584,-19.44924 -1.19002,0.22918 -3.04198,2.26679 -4.11545,4.52803 -3.73598,7.8697 -8.40329,14.37728 -12.0034,16.73615 -3.5465,2.32377 -3.69239,2.29365 -6.88751,-1.4209 -4.13983,-4.81283 -6.01134,-3.65851 -6.01134,3.70772 0,3.19266 -1.02413,7.26701 -2.27584,9.05408 -1.80662,2.57928 -1.94593,3.77751 -0.67571,5.81145 1.68086,2.69149 1.14941,8.13664 -3.47313,35.58543 -2.27129,13.48692 -3.74063,17.88871 -5.97137,17.88871 -1.41174,0 -0.81845,-16.73601 1.53659,-43.34572 2.07876,-23.48818 4.66442,-38.76277 8.16212,-48.21726 4.13305,-11.17185 5.04027,-16.66724 7.48761,-45.35445 1.16219,-13.62294 3.04431,-31.89006 4.18248,-40.59361 1.13817,-8.70355 2.7001,-21.39764 3.47096,-28.20912 1.42027,-12.55016 1.98104,-16.75239 5.90464,-44.24795 2.3002,-16.11913 3.11083,-21.11951 7.77309,-47.94769 5.32384,-30.63511 13.80494,-71.01255 19.37784,-92.25533 2.37397,-9.04913 4.40866,-17.31518 4.52151,-18.36896 0.3925,-3.66497 -3.20616,-3.09145 -4.86816,0.77585 -0.92001,2.14072 -2.72477,5.4491 -4.01058,7.35192 -7.26147,10.74596 -22.04348,40.41293 -39.07169,78.41556 -19.199869,42.84922 -40.878199,112.51523 -50.312779,161.6864 -0.8713,4.54099 -2.13757,11.04285 -2.81394,14.44857 -2.48516,12.51341 -5.26068,30.01647 -7.419,46.78586 -2.38904,18.56205 -3.26759,24.54674 -7.47416,50.91402 -5.93604,37.2079 -8.32155,74.41263 -7.51842,117.25796 0.71637,38.21577 4.6912,80.58993 8.74985,93.27837 0.60521,1.89208 1.86202,6.22665 2.79289,9.63238 1.72542,6.31271 3.01392,9.86842 6.23308,17.20069 0.99684,2.27049 2.19863,6.45281 2.67066,9.29406 0.5846,3.51886 2.15417,6.12403 4.92297,8.17109 2.23561,1.65286 4.06475,4.04369 4.06475,5.31295 0,1.26927 1.16374,3.78724 2.58611,5.59548 1.42235,1.80825 2.81562,4.32403 3.09612,5.59064 0.63969,2.88849 26.820969,27.07186 31.471229,29.06963 1.89208,0.81285 4.67859,2.54494 6.19225,3.84911 10.33766,8.90681 54.41015,11.98575 71.66086,5.00615 z m 118.94072,-37.16913 c 21.8739,-8.2738 40.28529,-20.56853 59.15234,-39.5006 10.12126,-10.15615 12.27412,-12.56255 24.39317,-27.26589 13.46472,-16.33595 41.25418,-60.27533 48.48477,-76.6618 1.66978,-3.78415 4.55052,-9.84549 6.40164,-13.46963 1.85114,-3.62416 4.53995,-9.50679 5.97515,-13.07252 1.4352,-3.56574 5.44169,-13.27768 8.90334,-21.58212 3.64442,-8.7429 6.2939,-17.25596 6.2939,-20.22292 0,-6.92203 -8.53047,-39.42983 -13.50352,-51.459 -7.56477,-18.29822 -28.53323,-53.58475 -32.81921,-55.22945 -1.10808,-0.42521 -3.36845,-0.0401 -5.02306,0.85581 -1.6546,0.8959 -5.48526,2.89924 -8.51258,4.45183 -3.02732,1.55262 -6.43306,3.63959 -7.5683,4.63771 -2.46772,2.16965 -13.39691,6.10778 -17.02868,6.13597 -2.15808,0.0168 -2.43943,-0.68332 -1.7201,-4.28003 0.98134,-4.90665 7.43021,-20.12882 9.8376,-23.22103 3.56732,-4.58215 7.70042,-15.20014 6.89926,-17.72434 -1.22745,-3.86737 -12.32877,-13.67272 -16.73067,-14.77753 -3.09225,-0.7761 -4.27999,-0.27034 -6.61758,2.81785 -6.36308,8.40626 -10.29862,11.79531 -13.69729,11.79531 -3.42149,0 -4.2771,0.6188 -8.56209,6.19224 -1.99971,2.601 -2.07099,2.48869 -1.2984,-2.04565 1.13839,-6.68126 3.69124,-9.01004 7.58977,-6.92363 2.7369,1.46476 3.67439,0.91785 9.79422,-5.71389 3.72217,-4.03354 7.14071,-8.48778 7.59673,-9.89833 1.60688,-4.97037 -26.82528,-30.47357 -30.20623,-27.09452 -1.04872,1.04814 -1.6768,9.37809 -1.85233,24.56687 -0.14607,12.63954 -0.62947,24.94519 -1.07426,27.34587 -0.90946,4.90875 1.08013,7.07908 4.15223,4.52946 3.57682,-2.96851 2.35013,1.60202 -1.51189,5.63309 -3.90563,4.0766 -3.9387,4.32822 -5.41474,41.20278 -0.46957,11.73086 -2.38492,31.85566 -4.25634,44.72177 -1.87143,12.86611 -4.33614,29.89478 -5.47715,37.8415 -1.82146,12.68581 -4.79597,27.76104 -10.18164,51.60205 -0.85483,3.78415 -2.45459,8.52386 -3.55501,10.53272 -1.10044,2.00884 -2.00079,5.06007 -2.00079,6.78052 0,1.72045 -1.89925,8.43636 -4.22056,14.92428 -4.77074,13.33401 -4.95159,13.78225 -10.79034,26.74329 -2.33962,5.19358 -4.25386,10.02654 -4.25386,10.73993 0,6.25488 -26.42831,54.85899 -37.49638,68.95929 -3.61617,4.60686 -3.90375,5.63127 -2.51092,8.94436 4.57382,10.87966 9.51474,12.84226 30.37491,12.06531 9.65218,-0.35951 15.41747,-1.37388 22.03489,-3.87693 z M 244.57917,946.0617 c 3.2732,-2.96221 3.29297,-2.82858 -2.14867,-14.5268 -2.56579,-5.51591 -6.66503,-16.22116 -9.10942,-23.78945 -2.44436,-7.56831 -5.26533,-16.23745 -6.26879,-19.26477 -5.64412,-17.02749 -13.54367,-57.17584 -15.6829,-79.70614 -3.26541,-34.39103 -0.25941,-73.48905 7.66485,-99.69415 10.61817,-35.1137 17.2907,-51.14411 27.08998,-65.08232 l 5.48466,-7.80122 -2.73394,-5.27131 c -3.02069,-5.82416 -6.61567,-7.47926 -7.8434,-3.61102 -0.43724,1.37763 -3.53095,5.48483 -6.87492,9.12711 -5.27232,5.74264 -6.69031,6.56272 -10.67503,6.17379 -3.92954,-0.38354 -4.89995,0.14941 -6.69997,3.67967 -2.93618,5.75854 -7.19809,12.19361 -8.87177,13.39546 -4.55802,3.27312 -8.7558,-0.75064 -10.26793,-9.84231 -1.06456,-6.40064 -3.26948,-6.66986 -7.64486,-0.93344 -3.19172,4.18456 -3.85645,6.81255 -4.97829,19.68158 -4.29904,49.31524 -2.95376,121.94755 2.84922,153.83369 0.68869,3.78415 1.96869,11.21484 2.84444,16.51265 2.13086,12.89057 8.71981,37.65704 13.17924,49.53796 1.98849,5.2978 3.92228,11.00673 4.29731,12.68647 0.37503,1.67976 1.54216,3.76806 2.59358,4.64068 1.05143,0.87262 1.9117,2.40641 1.9117,3.40844 0,5.93131 24.35547,39.12278 28.70778,39.12278 0.36338,0 1.79309,-1.0248 3.17713,-2.27735 z m 11.1168,-13.4738 c 2.08128,-2.60844 3.78414,-5.03415 3.78414,-5.39046 0,-0.35632 2.86973,-5.49802 6.37716,-11.42599 6.86218,-11.59784 15.67185,-28.99527 19.74226,-38.98724 1.38737,-3.40572 4.50268,-10.83642 6.92289,-16.51264 4.94986,-11.60915 14.87431,-38.43798 16.54335,-44.72178 0.60307,-2.27049 2.76126,-10.32041 4.79598,-17.88871 6.41408,-23.85769 7.75315,-29.93087 9.55718,-43.34571 0.96688,-7.18989 2.46341,-17.71671 3.32561,-23.39293 6.11225,-40.23935 8.06444,-59.79758 9.23682,-92.53967 1.11785,-31.2201 0.25681,-32.31461 -9.83952,-12.50734 -4.3121,8.45961 -8.13752,14.12158 -10.51989,15.57039 -2.05904,1.25218 -5.05143,3.93915 -6.64973,5.97107 -1.5983,2.03193 -4.05734,3.69439 -5.46455,3.69439 -2.96858,0 -8.25014,-6.78692 -8.25014,-10.60163 0,-1.43468 -0.66763,-3.27613 -1.48364,-4.09213 -0.81599,-0.816 -1.27777,-3.26194 -1.02619,-5.43541 0.39178,-3.3846 1.01699,-2.5199 4.35605,6.02461 4.10923,10.5154 7.51197,12.87897 10.50093,7.29406 0.78955,-1.47528 3.04143,-3.48775 5.00419,-4.47218 3.29518,-1.65268 9.99826,-11.94687 12.10842,-18.59538 0.49286,-1.55287 3.63547,-7.9045 6.9836,-14.1147 l 6.08747,-11.29132 0.94301,-20.25111 0.94302,-20.25114 -12.92006,-10.35974 c -7.10604,-5.69786 -14.62603,-11.46505 -16.71111,-12.816 -5.72499,-3.70931 -7.4584,-1.28078 -8.58477,12.02738 -2.14183,25.30603 -7.40925,53.72637 -11.7635,63.46982 -2.90028,6.48994 -2.92673,6.92149 -0.65946,10.75968 1.29913,2.19923 1.9073,4.42013 1.35153,4.93535 -0.55577,0.51524 -1.28692,0.16274 -1.62479,-0.78329 -1.30052,-3.64145 -4.50599,-1.40379 -9.30431,6.49507 -7.32539,12.05887 -10.65738,14.27462 -20.01965,13.31284 l -7.61014,-0.7818 -4.01235,6.48357 c -7.93866,12.82812 -10.88845,19.13585 -16.85217,36.03612 -7.92684,22.46348 -14.11214,48.26555 -15.67661,65.39522 -1.41407,15.483 -0.3751,60.35209 1.68877,72.9309 0.74505,4.54098 1.95623,12.28128 2.69148,17.20068 4.51341,30.19787 25.67287,97.69995 30.62538,97.69982 0.89055,-2e-5 3.32205,-2.13421 5.40334,-4.74267 z M 473.27859,728.51435 c 1.93636,-6.70448 10.38897,-39.39449 12.36421,-47.8179 7.1749,-30.59733 10.42817,-66.67383 6.44611,-71.48252 -3.50864,-4.23699 -15.09125,-2.22613 -31.01682,5.38483 -7.56829,3.61696 -18.10711,8.58703 -23.41959,11.04463 -15.00946,6.94348 -14.96328,6.70576 -4.38758,22.58988 9.79027,14.70445 16.13192,26.62911 22.75265,42.78359 4.28047,10.44426 11.24677,33.83731 11.24677,37.76697 0,2.94728 5.15188,2.71643 6.01425,-0.26948 z M 161.66567,680.83448 c 0.87918,-1.05934 2.71139,-5.08622 4.07157,-8.9486 1.36018,-3.86241 2.88398,-7.43347 3.3862,-7.93567 0.50221,-0.50222 0.91312,-1.97255 0.91312,-3.2674 0,-3.74139 3.67576,-6.15579 6.19224,-4.06731 1.62861,1.3516 2.49191,1.35798 4.09177,0.0303 2.22643,-1.84777 2.57258,-3.6188 4.84715,-24.79921 4.44007,-41.34506 10.77142,-77.00469 19.05681,-107.33225 2.94898,-10.79436 8.78347,-31.34817 10.54654,-37.15346 1.03431,-3.40574 2.53232,-8.33489 3.32892,-10.95368 1.41602,-4.65517 1.2721,-4.93281 -6.45087,-12.44384 -8.9613,-8.71537 -10.64586,-11.07171 -18.28567,-25.57784 -6.17655,-11.72773 -9.70258,-21.47686 -14.63639,-40.46819 -3.52827,-13.58099 -8.60386,-44.08946 -8.65888,-52.04695 -0.05,-7.23191 -4.14825,-5.17907 -6.38249,3.19701 -4.34701,16.29686 -16.41372,76.04641 -20.42574,101.14002 -6.0721,37.9788 -10.60486,69.37122 -11.82198,81.87523 -0.73669,7.56831 -1.9112,16.85667 -2.61005,20.64082 -1.27429,6.9002 -2.93179,19.79941 -3.53633,27.52109 -0.70562,9.01253 -4.94021,46.87508 -5.39549,48.24247 -0.58497,1.75689 2.78238,25.04308 4.12785,28.54532 0.59155,1.53977 2.06113,2.32275 3.87407,2.06409 2.14665,-0.30629 4.56252,-3.69984 9.11323,-12.80126 10.22662,-20.45322 13.13,-17.78198 14.49544,13.33642 0.47515,10.82888 1.10397,20.46292 1.39739,21.40895 0.72175,2.3272 6.7774,2.18482 8.76159,-0.20597 z m 47.10541,-25.25103 c 1.10418,-1.32444 3.46209,-6.74266 5.23981,-12.04047 1.77771,-5.29782 3.83261,-10.40642 4.56641,-11.35245 2.09755,-2.70419 3.74935,-2.02063 3.74935,1.55159 0,3.95298 2.96789,6.71959 5.97186,5.56685 1.20589,-0.46275 4.43292,-4.84755 7.17118,-9.74401 2.73826,-4.89647 5.86295,-9.24201 6.94377,-9.65675 2.66562,-1.02289 5.82448,1.8349 8.13159,7.35658 1.0529,2.51996 2.44934,4.58172 3.10318,4.58172 0.65385,0 3.00755,-1.9409 5.23043,-4.31313 5.48547,-5.85403 15.58448,-12.19952 19.41588,-12.19952 6.05792,0 11.51097,-14.03235 14.97278,-38.52953 3.38642,-23.96375 4.77478,-34.66873 5.63829,-43.4742 0.99452,-10.14117 2.34285,-8.81106 -25.19053,-24.85016 -13.64242,-7.94716 -37.77373,-23.45695 -43.34974,-27.86195 -6.29276,-4.97122 -7.42882,-3.97204 -11.96885,10.52692 -2.31062,7.37909 -4.83137,15.89344 -5.60168,18.92076 -0.77033,3.02731 -3.58498,13.8599 -6.25479,24.07242 -2.66981,10.21253 -4.85419,20.00602 -4.85419,21.76333 0,1.7573 -0.56127,4.24385 -1.24727,5.52564 -1.78541,3.33608 -6.52195,30.83936 -9.00999,52.31759 -2.93945,25.37515 -2.9981,24.72228 2.26719,25.23894 4.08074,0.40041 4.53054,0.97074 6.30129,7.98989 2.75329,10.91388 5.00841,13.1268 8.77403,8.60994 z m 194.38655,-13.24027 c 5.98854,-3.12427 11.49436,-6.66261 12.23517,-7.86302 1.03139,-1.67125 -0.0686,-3.98447 -4.69601,-9.87452 -3.32361,-4.23057 -7.11879,-7.73781 -8.43376,-7.79385 -2.25487,-0.096 -9.30563,9.17296 -9.30563,12.23335 0,0.75982 -1.84393,5.18805 -4.09763,9.84055 -6.2607,12.92447 -4.61235,13.32307 14.29786,3.45749 z m -133.69797,-4.7297 c 3.30657,-2.84005 9.43402,-14.04532 8.50367,-15.55066 -2.11352,-3.41975 -13.35243,2.57818 -18.57549,9.91327 l -3.14015,4.40995 3.05951,2.47743 c 3.20606,2.59611 6.08764,2.24131 10.15246,-1.24999 z m 164.49339,-52.36174 c 5.1927,-5.19271 10.81267,-12.0723 12.48876,-15.288 1.67612,-3.2157 4.80074,-8.10068 6.94359,-10.85551 5.43367,-6.98545 9.08456,-13.70199 8.0243,-14.76226 -1.45705,-1.45704 -12.34363,8.72299 -26.61757,24.89007 -7.35027,8.32512 -14.58494,16.49834 -16.07706,18.1627 -3.35955,3.74738 -2.21159,7.2943 2.36081,7.2943 2.41258,0 6.24775,-2.81187 12.87717,-9.4413 z m -94.38961,-42.95328 c 0.83947,-4.11933 5.27885,-76.5419 5.99363,-97.77794 0.14348,-4.26298 0.6859,-12.3129 1.20535,-17.8887 0.51948,-5.57581 1.19355,-16.9493 1.49795,-25.27444 0.84798,-23.19133 3.43686,-82.36312 4.24445,-97.01184 1.40176,-25.42575 2.6018,-83.38088 1.92305,-92.87103 -0.50611,-7.07629 -1.23377,-9.723 -2.75211,-10.01032 -2.06404,-0.39057 -13.3071,14.83724 -20.97228,28.40528 l -3.77159,6.67605 -0.0731,35.81184 c -0.0402,19.6965 -0.66826,42.84663 -1.3957,51.4447 -0.72743,8.59809 -1.93255,23.68279 -2.67805,33.52158 -0.74548,9.83879 -1.9797,23.15212 -2.74269,29.58518 -0.76299,6.43305 -1.65332,14.79258 -1.97851,18.57673 -0.32519,3.78415 -1.5371,14.31096 -2.69315,23.39292 -2.25572,17.72084 -8.39458,66.76415 -10.33467,82.56328 -0.65055,5.2978 -0.79475,10.35529 -0.32046,11.23884 0.47429,0.88356 7.20826,6.35904 14.96437,12.16776 7.7561,5.80871 14.46951,11.15592 14.91868,11.88269 1.53617,2.48559 4.00395,0.28233 4.9648,-4.43258 z m -36.89741,-40.14508 c 1.22844,-8.51434 2.80647,-20.74402 3.50675,-27.17708 1.22331,-11.238 5.3796,-45.68393 8.46785,-70.17877 4.90567,-38.90977 7.72112,-77.71072 8.96145,-123.5009 0.82368,-30.40841 0.70318,-33.36933 -1.35811,-33.36933 -1.27909,0 -3.28221,2.24227 -4.60985,5.16021 -1.29133,2.83812 -3.96327,7.6371 -5.93763,10.66443 -3.65189,5.59953 -43.96005,86.28548 -43.96005,87.99607 0,0.51468 -1.54806,4.3202 -3.44014,8.4567 -1.89207,4.13649 -3.44013,8.10077 -3.44013,8.80949 0,1.18895 -1.60594,5.17701 -6.37473,15.83054 -1.01632,2.27049 -4.03496,10.01079 -6.70808,17.20067 -2.67311,7.18989 -5.38848,14.02168 -6.03414,15.18177 -0.64566,1.16009 -1.63378,4.25622 -2.19582,6.88026 -0.56204,2.62407 -1.48695,5.39026 -2.05535,6.14709 -1.21593,1.61903 -7.09135,19.64052 -10.50343,32.21691 l -2.39404,8.82398 5.40429,4.53901 c 2.97236,2.49643 13.45421,9.31127 23.293,15.14407 19.23422,11.40275 30.19942,18.18097 37.82515,23.38188 8.44246,5.75796 9.0543,5.11149 11.55301,-12.207 z m -76.81892,-50.57001 c 2.501,-7.18988 4.95062,-15.23979 5.44358,-17.8887 0.49296,-2.64891 1.67761,-6.67386 2.63258,-8.94435 0.95498,-2.2705 3.60684,-9.08197 5.89306,-15.13661 10.45831,-27.69689 16.11551,-42.05442 20.33238,-51.60204 2.50702,-5.67623 6.01388,-13.71796 7.79303,-17.8705 9.05151,-21.12617 46.09386,-92.04216 52.93311,-101.33812 2.64866,-3.60008 3.28249,-6.53996 3.85682,-17.88871 1.36855,-27.04295 3.62766,-59.03266 4.30104,-60.90436 1.55585,-4.32454 -1.15764,-6.88546 -11.87202,-11.20443 -9.71712,-3.91696 -12.11425,-4.35997 -20.24678,-3.74167 -6.01104,0.45701 -11.31331,1.83458 -15.22007,3.95431 -5.58128,3.0283 -15.17675,13.65587 -23.58978,26.12715 -3.57224,5.2954 -22.57028,32.03315 -35.86096,50.47054 -4.20853,5.83823 -9.72989,14.33031 -12.26971,18.87129 -2.53981,4.54098 -6.57069,11.35245 -8.95748,15.13661 -12.957,20.54271 -21.12524,35.23253 -23.33715,41.96965 -1.36662,4.16257 -3.02598,8.99069 -3.68744,10.72917 -1.60917,4.2293 -1.52167,23.06817 0.18796,40.4749 1.30166,13.25293 3.58104,25.07757 9.83916,51.04251 6.10829,25.3433 27.70855,62.72809 35.36009,61.19966 1.0591,-0.21155 3.96196,-6.25024 6.46858,-13.4563 z M 338.52729,210.27935 c 3.47148,-5.56978 7.54043,-11.23876 9.04211,-12.59776 1.50167,-1.35899 2.73031,-3.22794 2.73031,-4.15321 0,-0.92529 0.92884,-2.45319 2.06408,-3.39536 1.42693,-1.18425 2.06408,-4.33582 2.06408,-10.20963 0,-8.02874 -0.28415,-8.76676 -5.1602,-13.4027 -7.58207,-7.20869 -13.45909,-10.28565 -15.85221,-8.29953 -1.79358,1.48853 -3.30797,14.75758 -5.85509,51.30201 -1.0195,14.62685 2.18405,14.84773 10.96692,0.75618 z m 73.95289,286.62782 c 0.33111,-0.99335 1.41475,-2.07697 2.40808,-2.4081 1.03205,-0.34401 1.54807,0.17202 1.20405,1.20405 -0.33111,0.99334 -1.41476,2.07698 -2.40808,2.4081 -1.03205,0.34401 -1.54807,-0.17201 -1.20405,-1.20405 z M 392.9574,410.30174 c 0,-0.75683 0.61922,-1.37605 1.37605,-1.37605 0.75683,0 1.37606,0.61922 1.37606,1.37605 0,0.75683 -0.61923,1.37605 -1.37606,1.37605 -0.75683,0 -1.37605,-0.61922 -1.37605,-1.37605 z M 330.19349,135.43485 c 0.44382,-9.89843 -2.51593,-50.722981 -4.64893,-64.124127 -1.50322,-9.444275 -3.16706,-11.895235 -8.09463,-11.923953 -1.98861,-0.01096 -4.5445,-0.62133 -5.67974,-1.354987 -1.53367,-0.99113 -0.72695,-1.339327 3.1393,-1.354988 5.74685,-0.02325 8.05816,-2.933404 5.35654,-6.744358 -2.0375,-2.874166 -5.74374,-11.127562 -5.74374,-12.79073 0,-0.709067 0.62052,-0.905719 1.37895,-0.43698 1.7788,1.099344 9.62949,16.893271 9.62949,19.372467 0,1.040132 1.69492,2.989065 3.76649,4.330967 5.90771,3.82682 13.49777,11.651287 15.98247,16.476037 2.81055,5.457556 2.86184,7.29262 0.20383,7.29262 -1.13525,0 -2.06408,-0.941138 -2.06408,-2.091423 0,-3.098338 -6.41716,-12.700488 -9.64073,-14.425702 -4.73285,-2.532946 -5.89993,-0.420537 -4.85273,8.783382 4.0632,35.711855 5.01842,68.280145 2.00265,68.280145 -0.63338,0 -0.96419,-4.17976 -0.73514,-9.28837 z M 495.81747,88.669582 c -3.59494,-0.283468 -6.53626,-1.181714 -6.53626,-1.996092 0,-0.945307 1.86588,-1.172301 5.16021,-0.627782 2.83811,0.469109 6.24385,0.859744 7.5683,0.868069 1.32446,0.0082 2.4081,0.634375 2.4081,1.391206 0,0.756829 -0.46442,1.264442 -1.03205,1.12802 -0.56762,-0.136367 -3.97335,-0.479954 -7.5683,-0.763421 z m -193.07821,-62.453886 -4.04159,-4.295009 4.47218,2.266265 c 2.45969,1.24643 4.47218,3.179181 4.47218,4.294996 0,2.772888 -0.2848,2.641254 -4.90277,-2.266252 z"
       id="path2995"
       inkscape:connector-curvature="0" />
  </g>
</svg>
