<?xml version="1.0" encoding="UTF-8" standalone="no"?>
<!-- Created with Inkscape (http://www.inkscape.org/) -->
<svg
   xmlns:dc="http://purl.org/dc/elements/1.1/"
   xmlns:cc="http://creativecommons.org/ns#"
   xmlns:rdf="http://www.w3.org/1999/02/22-rdf-syntax-ns#"
   xmlns:svg="http://www.w3.org/2000/svg"
   xmlns="http://www.w3.org/2000/svg"
   xmlns:sodipodi="http://sodipodi.sourceforge.net/DTD/sodipodi-0.dtd"
   xmlns:inkscape="http://www.inkscape.org/namespaces/inkscape"
   width="147.70523"
   height="37.027733"
   id="svg2"
   sodipodi:version="0.32"
   inkscape:version="0.46"
   version="1.0"
   sodipodi:docname="Signatur von Konrad Zuse.svg"
   inkscape:output_extension="org.inkscape.output.svg.inkscape">
  <defs
     id="defs4">
    <inkscape:perspective
       sodipodi:type="inkscape:persp3d"
       inkscape:vp_x="0 : 526.18109 : 1"
       inkscape:vp_y="0 : 1000 : 0"
       inkscape:vp_z="744.09448 : 526.18109 : 1"
       inkscape:persp3d-origin="372.04724 : 350.78739 : 1"
       id="perspective10" />
    <inkscape:perspective
       id="perspective2390"
       inkscape:persp3d-origin="372.04724 : 350.78739 : 1"
       inkscape:vp_z="744.09448 : 526.18109 : 1"
       inkscape:vp_y="0 : 1000 : 0"
       inkscape:vp_x="0 : 526.18109 : 1"
       sodipodi:type="inkscape:persp3d" />
  </defs>
  <sodipodi:namedview
     id="base"
     pagecolor="#ffffff"
     bordercolor="#666666"
     borderopacity="1.0"
     inkscape:pageopacity="0.0"
     inkscape:pageshadow="2"
     inkscape:zoom="0.7"
     inkscape:cx="107.05767"
     inkscape:cy="818.19898"
     inkscape:document-units="px"
     inkscape:current-layer="layer1"
     showgrid="false"
     inkscape:window-width="640"
     inkscape:window-height="667"
     inkscape:window-x="110"
     inkscape:window-y="145" />
  <metadata
     id="metadata7">
    <rdf:RDF>
      <cc:Work
         rdf:about="">
        <dc:format>image/svg+xml</dc:format>
        <dc:type
           rdf:resource="http://purl.org/dc/dcmitype/StillImage" />
      </cc:Work>
    </rdf:RDF>
  </metadata>
  <g
     inkscape:label="Ebene 1"
     inkscape:groupmode="layer"
     id="layer1"
     transform="translate(-174.3662,-351.02022)">
    <path
       style="fill:#000000"
       d="M 311.47642,385.89862 C 308.9002,383.05001 303.69629,380.54209 297.07143,378.95643 C 294.04643,378.23239 291.14393,377.27213 290.62143,376.82252 C 290.09893,376.3729 288.97393,375.99726 288.12143,375.98775 C 287.26893,375.97825 285.50733,374.84871 284.20676,373.47766 L 281.84208,370.98484 L 285.52926,367.60752 C 289.42543,364.03877 291.89353,363.8355 295.32143,366.80105 C 297.70416,368.86239 297.52204,369.88321 294.57143,371.00503 C 293.19643,371.5278 292.07143,372.33512 292.07143,372.79907 C 292.07143,373.26302 296.43241,374.41533 301.76249,375.35975 C 312.57328,377.27527 322.07143,381.7705 322.07143,384.97143 C 322.07143,388.54036 314.46736,389.20581 311.47642,385.89862 z M 239.57143,383.95907 C 233.81799,381.71245 228.98954,381.49969 222.59162,383.21087 C 219.07652,384.15102 217.81781,384.15141 216.87903,383.21263 C 215.19138,381.52498 215.55669,375.43956 217.5261,372.43387 C 218.46257,371.00464 218.90877,369.0679 218.55696,367.95945 C 218.08755,366.48045 218.40675,366.00503 219.86918,366.00503 C 222.56297,366.00503 227.07143,362.24066 227.07143,359.99147 C 227.07143,357.25507 225.55493,356.71091 217.92898,356.71091 C 212.1462,356.71091 211.07143,356.44494 211.07143,355.01389 C 211.07143,353.56912 212.81798,353.17285 222.82143,352.34798 C 229.28393,351.81509 234.65073,351.41173 234.74765,351.45161 C 234.84457,351.4915 234.33639,354.33935 233.61835,357.78017 C 232.89031,361.26898 232.70178,364.27657 233.19214,364.57963 C 234.82268,365.58736 234.08746,366.9629 231.58221,367.59168 C 230.21315,367.93529 227.73815,369.75953 226.08221,371.64553 C 220.80055,377.66101 222.43408,379.49217 231.73203,377.97889 C 240.64618,376.52808 249.07143,378.32644 249.07143,381.67997 C 249.07143,383.10753 246.37924,385.96561 245.07143,385.92645 C 244.79643,385.91822 242.32143,385.0329 239.57143,383.95907 z M 174.73611,377.25503 C 175.19554,372.99253 175.57143,366.35503 175.57143,362.50503 C 175.57143,356.09932 176.23769,354.06202 178.34618,354.02034 C 178.77229,354.01192 179.55895,355.15711 180.09431,356.5652 C 181.24538,359.59276 182.58176,359.09216 183.53993,355.27449 C 184.25234,352.43603 185.65036,351.04694 187.82143,351.02034 C 189.58019,350.9988 189.37938,353.76113 187.12554,360.59295 C 185.24231,366.3014 185.23829,366.55595 187.00058,368.49818 C 191.21451,373.14238 192.20325,377.82081 189.45318,380.10317 C 188.05438,381.26407 187.50246,381.04336 185.38318,378.47561 C 183.06345,375.66499 182.86788,375.60648 181.75143,377.38899 C 179.48764,381.00332 175.88622,385.00503 174.89722,385.00503 C 174.24917,385.00503 174.19285,382.29538 174.73611,377.25503 z M 195.07143,380.65105 C 195.07143,378.3927 200.07339,373.60699 201.22751,374.76111 C 202.54775,376.08135 201.91411,380.50503 200.40476,380.50503 C 199.7631,380.50503 198.9006,380.84253 198.4881,381.25503 C 197.25371,382.48941 195.07143,382.10364 195.07143,380.65105 z M 252.1062,371.0398 C 250.23051,369.16411 249.24831,368.96396 244.70505,369.5316 C 240.62083,370.04189 239.18453,369.84623 238.18644,368.64361 C 236.16243,366.20482 237.28576,363.66181 240.83696,362.64334 C 243.45902,361.89135 244.47644,362.06159 246.09065,363.52243 C 247.78169,365.0528 248.6383,365.16661 251.60728,364.25541 C 254.73163,363.29652 255.44067,363.44485 257.99108,365.59087 C 261.55215,368.58731 262.29256,368.58084 268.92073,365.49526 C 271.86284,364.12563 274.69706,363.00503 275.219,363.00503 C 275.74094,363.00503 276.78294,364.46753 277.53457,366.25503 C 279.52524,370.9892 278.13463,372.05933 270.18688,371.90941 C 266.54838,371.84078 261.47836,372.10365 258.92017,372.49356 C 254.92999,373.10174 253.96152,372.89512 252.1062,371.0398 z M 270.07143,368.89804 C 270.07143,368.40689 269.39643,368.00503 268.57143,368.00503 C 267.74643,368.00503 267.07143,368.66591 267.07143,369.47364 C 267.07143,370.36824 267.65772,370.71728 268.57143,370.36666 C 269.39643,370.05007 270.07143,369.3892 270.07143,368.89804 z"
       id="path2396" />
  </g>
</svg>
