<?xml version="1.0" encoding="UTF-8" standalone="no"?>
<!-- Created with Inkscape (http://www.inkscape.org/) -->

<svg
   xmlns:dc="http://purl.org/dc/elements/1.1/"
   xmlns:cc="http://creativecommons.org/ns#"
   xmlns:rdf="http://www.w3.org/1999/02/22-rdf-syntax-ns#"
   xmlns:svg="http://www.w3.org/2000/svg"
   xmlns="http://www.w3.org/2000/svg"
   xmlns:sodipodi="http://sodipodi.sourceforge.net/DTD/sodipodi-0.dtd"
   xmlns:inkscape="http://www.inkscape.org/namespaces/inkscape"
   id="svg2"
   version="1.1"
   inkscape:version="0.48.1 "
   width="710"
   height="520"
   sodipodi:docname="Signature Rachid Ha.svg">
  <title
     id="title3014">Reda Kerbouche </title>
  <metadata
     id="metadata8">
    <rdf:RDF>
      <cc:Work
         rdf:about="">
        <dc:format>image/svg+xml</dc:format>
        <dc:type
           rdf:resource="http://purl.org/dc/dcmitype/StillImage" />
        <dc:title>Reda Kerbouche </dc:title>
      </cc:Work>
    </rdf:RDF>
  </metadata>
  <defs
     id="defs6" />
  <sodipodi:namedview
     pagecolor="#ffffff"
     bordercolor="#666666"
     borderopacity="1"
     objecttolerance="10"
     gridtolerance="10"
     guidetolerance="10"
     inkscape:pageopacity="0"
     inkscape:pageshadow="2"
     inkscape:window-width="1280"
     inkscape:window-height="750"
     id="namedview4"
     showgrid="false"
     inkscape:zoom="0.37696372"
     inkscape:cx="267.6505"
     inkscape:cy="540.51944"
     inkscape:window-x="-8"
     inkscape:window-y="-8"
     inkscape:window-maximized="1"
     inkscape:current-layer="svg2" />
  <g
     id="g3007"
     transform="translate(58.361054,-203.90301)">
    <path
       sodipodi:nodetypes="csscsscsssssscssssssscsssssssssssccssccssssscscsssssscscscssscscscsscsscccssscssscssssssssssccsscssssssssssssssssscscscssssssssccssssssssssssssssscccccsc"
       inkscape:connector-curvature="0"
       id="path2987"
       d="m -13.599516,523.40864 c 0,0 4.652298,16.44706 6.0963347,24.85429 1.0637423,6.19314 1.9533559,12.47459 1.8757954,18.75795 -0.046666,3.7805 -0.4120558,10.59158 -0.4120558,10.59158 0,0 1.1707461,2.36715 1.184155,3.36798 0.063556,4.74378 -0.5517364,6.95795 -0.3031504,10.42578 0.2609205,3.6399 1.8757953,10.78582 1.8757953,10.78582 0,0 -5.5292447,3.20406 -10.3168742,4.68949 -1.341142,0.41611 -7.276309,-4.79834 -9.378977,-8.44108 -2.636165,-4.56699 -3.197445,-10.20279 -3.282641,-15.47531 -0.07183,-4.44551 0.586304,-9.18218 2.344744,-13.13057 0.220313,-0.49469 -4.742928,-3.21567 -6.096335,-5.62738 -1.950353,-3.47545 -2.291621,-7.73878 -2.344744,-11.72372 -0.06132,-4.59965 2.344744,-13.59952 2.344744,-13.59952 0,0 -5.399745,-10.95474 -5.627386,-16.88216 -0.0742,-1.9321 1.399941,-3.69387 1.406846,-5.62738 0.01896,-5.30782 -3.099612,-10.20765 -3.75159,-15.47531 -0.275609,-2.22679 0.999197,-4.78902 -0.05689,-6.73109 -2.971211,-5.46383 -5.433894,-9.34945 -6.039441,-14.84056 -0.473912,-4.29744 1.906168,-8.37784 1.321507,-12.66162 -0.359354,-2.63297 -2.073794,-4.57851 -2.259405,-7.03423 -0.739878,-9.78894 4.689489,-29.07483 4.689489,-29.07483 0,0 3.841581,-14.41052 7.034232,-21.1027 2.875355,-6.02709 6.126227,-12.09868 10.785823,-16.88215 4.477309,-4.59634 10.129391,-8.07292 15.9442604,-10.78583 4.1251322,-1.92457 9.5530965,-3.89863 13.9595594,-2.7568 4.7079302,1.21995 6.9310302,5.18502 9.4878822,9.32209 3.3784,5.46637 4.299677,12.11917 6.096335,18.289 2.342556,8.04447 4.578152,16.14542 6.096334,24.38534 0.713182,3.87079 2.38218,7.91054 1.406847,11.72372 -0.333215,1.30274 -2.287792,1.93916 -2.344744,3.28264 -0.407814,9.62019 -1.086025,19.186 -4.22054,28.13693 -2.268512,6.47797 -5.983078,12.49761 -10.316874,17.82006 -3.7048474,4.55002 -13.13056717,11.72372 -13.13056717,11.72372 l 7.97213007,1.87579 c 0,0 16.6901971,1.11192 25.1289921,2.87059 8.760128,1.82563 18.002643,3.76399 25.323236,8.91003 4.45388,3.13087 10.980069,11.66683 10.980069,11.66683 l 5.158437,-22.0406 c 0,0 -6.299301,-0.72736 -8.910028,-2.34474 -1.412561,-0.8751 -3.134609,-2.09653 -3.282642,-3.75159 -0.162401,-1.8157 2.240179,-2.95911 2.813693,-4.68949 0.494237,-1.49119 -0.422496,-3.39595 0.468949,-4.68949 0.991719,-1.43904 2.988571,-1.94321 4.689488,-2.34474 1.825616,-0.43097 5.627386,0 5.627386,0 0,0 -2.339341,-3.3885 -1.875795,-5.15844 4.819577,-18.40244 9.847925,-52.99122 9.847925,-52.99122 0,0 -2.334967,-4.23297 -2.813693,-6.56528 -0.377159,-1.83749 0.282991,-3.77306 0,-5.62739 -0.395315,-2.59035 -2.005794,-4.90486 -2.344744,-7.50318 -0.465501,-3.56844 -0.170616,-7.05598 -1.354834,-10.45422 -1.021039,-2.92999 -3.121214,-4.7714 -4.272552,-7.36584 -1.664324,-3.75041 -2.757744,-8.30052 -4.746381,-11.88952 -1.290163,-2.32842 -4.163647,-5.93053 -4.163647,-5.93053 0,0 0.341456,-1.87144 0.468949,-2.81369 0.202224,-1.49455 0.468949,-4.50013 0.468949,-4.50013 0,0 4.802031,-3.82906 7.915237,-5.3478 1.956804,-0.9546 7.091126,-2.34474 7.091126,-2.34474 0,0 3.639813,10.07258 7.034232,14.06846 1.946515,2.29142 4.872214,3.52415 7.30908,5.28517 0.994584,0.71875 1.871664,1.63801 2.984372,2.15538 1.859622,0.86466 5.968743,1.49218 5.968743,1.49218 0,0 1.16689,3.25179 2.15538,4.64236 1.42661,2.00691 5.30555,5.13975 5.30555,5.13975 0,0 -6.16554,4.40937 -8.95312,6.96354 -0.77848,0.7133 -2.15538,2.32117 -2.15538,2.32117 0,0 3.69613,7.06802 5.13975,10.7769 1.29993,3.33972 2.79219,6.71365 3.15017,10.27951 0.22741,2.26528 -0.66319,6.79773 -0.66319,6.79773 0,0 6.1963,20.21938 11.1085,29.51213 1.16797,2.20952 3.66279,3.72077 4.31076,6.13454 0.48907,1.82185 -0.4974,5.63715 -0.4974,5.63715 l 4.97396,10.77689 -19.23263,2.98438 c 0,0 0.8833,-5.25188 0.3316,-7.79253 -0.80246,-3.69547 -4.96864,-10.79014 -5.13975,-10.1137 -1.601,6.32908 -4.476555,17.40883 -2.81857,17.40883 1.65798,0 6.79773,0.4974 6.79773,0.4974 0,0 17.00761,-2.51603 25.36716,-4.47656 6.67414,-1.56525 13.11253,-4.01326 19.73002,-5.80295 4.67105,-1.26328 9.30266,-2.7973 14.09287,-3.48176 1.31419,-0.18778 3.97916,-0.1658 3.97916,-0.1658 0,0 -0.5821,5.10293 -1.98958,7.12933 -2.1441,3.08694 -5.78458,4.89743 -9.11892,6.63194 -5.2872,2.75037 -11.24402,3.95921 -16.91144,5.80295 -2.8593,0.93019 -5.91873,1.76988 -7.79253,2.65277 -0.92185,0.43436 -1.45587,1.84935 -0.66319,2.98437 1.75924,2.51901 2.66126,4.6635 4.31076,6.30034 1.21104,1.20174 2.39656,1.2106 3.31597,2.15538 3.02757,3.11113 4.59799,7.36598 6.79774,11.1085 1.25397,2.13343 2.90434,4.10572 3.64756,6.46614 0.51695,1.64179 0.43183,3.93176 1.65799,5.13975 2.46151,2.42502 5.30555,6.46614 5.30555,6.46614 l 1.98958,-0.49739 c 0,0 -1.73093,-2.17032 -1.98958,-3.48177 -0.24804,-1.25766 0.0833,-2.60019 0.49739,-3.81337 0.74396,-2.17989 3.48177,-5.96874 3.48177,-5.96874 0,0 2.82449,-0.0493 3.31597,0.99479 1.9345,4.10966 4.15171,8.26867 4.47656,12.76648 0.53952,7.47007 -2.30429,14.44635 -4.31076,22.05119 -0.55615,2.1079 -3.57787,2.60048 -5.63715,3.31597 -1.52827,0.53099 -3.21178,0.92621 -4.80815,0.6632 -2.0729,-0.34152 -4.12081,-1.36453 -5.63715,-2.81858 -2.55326,-2.44837 -3.54085,-6.12921 -5.13975,-9.28471 -0.71531,-1.4117 -1.44791,-2.82376 -1.98958,-4.31076 -0.21567,-0.59207 -0.0741,-1.35698 -0.4974,-1.82378 -0.83425,-0.92004 -2.53536,-0.52217 -3.48177,-1.32639 -1.50967,-1.28286 -2.35819,-3.26019 -2.98437,-5.13975 -0.29901,-0.89751 0.23449,-2.06064 -0.3316,-2.81858 -0.75559,-1.01165 -2.61299,-0.57587 -3.48176,-1.49218 -2.01491,-2.12517 -1.4386,-4.02001 -3.64757,-7.29513 -0.47273,-0.70089 -1.30255,-2.6579 -1.49219,-3.48177 -0.77854,-3.38234 -3.58,-4.94556 -4.97395,-8.12412 -0.63133,-1.43958 -1.30607,-3.27077 -2.15538,-4.80816 -1.7344,-3.13955 -5.96874,-8.95312 -5.96874,-8.95312 0,0 -4.45661,1.67191 -6.79774,1.82379 -2.50372,0.16243 -7.46093,-0.99479 -7.46093,-0.99479 0,0 -3.083109,22.72002 -4.642352,33.82288 -0.626392,4.46034 -2.486977,12.76648 -2.486977,12.76648 0,0 -6.945372,6.79269 -11.440093,7.29513 -8.148394,0.91086 -14.967075,-0.76513 -24.040775,-2.15538 -3.13056,-0.47966 -4.09521,-4.56996 -4.973954,-7.12933 -0.404901,-1.17929 -1.273519,0.40891 -3.647566,-0.82899 -2.374047,-1.2379 -6.066259,-7.731 -8.787318,-9.45051 -2.721059,-1.71951 -4.627515,-1.22203 -6.466139,-2.65278 -1.465535,-1.14042 -1.515007,-4.0239 -3.315969,-4.47656 -10.91121,-2.74244 -20.152291,-5.52531 -30.50691455,-6.13454 -2.04801615,-0.1205 -6.13454265,0.49739 -6.13454265,0.49739 l -8.4557208,-19.06682 c 0,0 1.463554,-5.67284 4.4765581,-8.78731 1.7466189,-1.80544 7.4927249,-3.94609 9.2847131,-6.30035 2.8055623,-3.68586 3.2577348,-8.71749 4.1449612,-13.26387 1.5401455,-7.89211 2.5826988,-16.02171 3.6475659,-24.04078 0.6894027,-5.1916 2.238539,-10.35379 1.9895811,-15.58505 -0.1669853,-3.5088 -0.00571,-6.90885 -0.9947904,-10.2795 -0.9106906,-3.10351 -2.0512493,-6.14207 -3.315969,-9.11892 -1.0824656,-2.54787 -2.655529,-4.87651 -3.6475659,-7.46093 -1.00928374,-2.62935 -1.04031093,-5.61583 -2.3211782,-8.12412 -0.8950106,-1.75268 -1.8327174,-3.88128 -3.6475659,-4.64236 -0.9230334,-0.38709 -2.3770502,-0.46401 -2.9843721,0.33159 -2.9676079,3.88763 -4.3687579,5.90912 -6.1345429,9.11892 -2.385585,4.33645 -4.525558,8.86123 -5.968744,13.59547 -1.637417,5.3714 -2.583733,10.97873 -2.984372,16.57985 -0.335366,4.68857 0.329088,9.39534 0.497395,14.09287 0.108909,3.0397 -0.638986,6.23628 0.331597,9.11891 0.582233,1.72923 2.637379,2.72548 3.150171,4.47656 0.715148,2.44209 -0.331597,7.62673 -0.331597,7.62673 l 0.828992,8.78732 1.657985,13.59547 0.331597,7.12933 13.6759312,21.91873 c 0,0 -5.3030026,0.60891 -7.8729862,1.29306 -1.027607,0.27356 -2.988415,1.11654 -2.988419,1.11654 z"
       style="fill:#000000;stroke:#000000;stroke-width:1px;stroke-linecap:butt;stroke-linejoin:miter;stroke-opacity:1" />
    <path
       sodipodi:nodetypes="sscsssssssssscssscssssscscssscssssssssssscsssssssscsssssssssssssssssssscssssssssssssssscsssssssssssssssssssssssssssssssssssssssssssssssssssssssscsssssssssssssssssssssssssssssssssssssssssssssssssszzs"
       inkscape:connector-curvature="0"
       id="path2989"
       d="m 178.89653,317.03362 c -4.61242,-1.46294 -9.53891,-1.8459 -14.09287,-3.48177 -1.44234,-0.51812 -4.14496,-1.98958 -4.14496,-1.98958 0,0 -1.05747,-1.36173 -1.82379,-1.65799 -0.61857,-0.23915 -1.46434,-0.4049 -1.98958,0 -0.85995,0.66292 -1.39763,2.22517 -0.82899,3.15017 0.8288,1.34821 3.32941,0.11121 4.64236,0.99479 1.38617,0.93286 1.8145,2.35768 1.76344,4.02773 -0.0476,1.55542 -1.3374,2.54582 -2.48698,3.15017 -2.58157,1.35716 -5.06191,0.99583 -7.56639,1.60942 -1.0028,0.24568 -1.952,0.81559 -2.98437,0.82899 -1.36709,0.0177 -2.80578,-0.29306 -3.97916,-0.99479 -1.41023,-0.84338 -2.75089,-2.1046 -3.31597,-3.64756 -0.5325,-1.454 0.1658,-4.64236 0.1658,-4.64236 0,0 -3.49812,-0.51371 -3.48177,-1.82378 0.0546,-4.37253 0.72103,-9.37526 2.88725,-13.57536 0.84211,-1.63276 2.13095,-3.24125 3.81336,-3.97916 2.53111,-1.11014 8.05545,-0.51751 8.05545,-0.51751 0,0 1.57815,-3.02603 2.98438,-2.98438 7.33269,0.21716 15.209,1.44782 22.71438,2.81858 5.53822,1.01149 10.9573,2.30615 16.41405,3.97916 1.90878,0.58522 2.6085,3.2747 4.47656,3.97916 4.30135,1.62208 7.35385,1.17095 11.44009,2.32118 1.97696,0.55649 2.48698,5.63715 2.48698,5.63715 0,0 7.30483,3.96461 10.2795,6.79774 8.38857,7.98941 20.55901,28.01993 20.55901,28.01993 0,0 1.7792,-4.91339 2.32118,-7.46093 5.73855,-26.9737 9.89854,-52.87156 13.09807,-79.91485 0.31175,-2.63497 0.68881,-5.44636 -0.16579,-7.95832 -0.4201,-1.23482 -2.32118,-3.15017 -2.32118,-3.15017 0,0 0.96094,-4.53349 2.15538,-6.46614 1.02725,-1.66213 3.83208,-2.21623 4.14496,-4.14497 0.85005,-5.24011 1.13181,-9.55865 3.15017,-13.59547 1.00607,-2.01218 3.80742,-2.52587 5.96874,-3.15017 0.69228,-0.19997 1.48133,-0.42056 2.15538,-0.1658 2.59569,0.98104 4.55062,3.49253 5.80295,5.96875 0.75858,1.49994 0.71695,3.29684 0.82899,4.97395 0.2322,3.47577 -0.27633,6.96222 -0.3316,10.4453 -0.0921,5.80222 0.69985,11.64825 0,17.40884 -4.14577,34.12474 -10.34371,67.77675 -17.07724,101.30285 -0.82943,4.12974 -2.22807,8.18673 -4.14496,11.93749 -0.307,0.60071 -1.16059,1.65798 -1.16059,1.65798 0,0 4.99939,12.11611 6.79774,18.40363 1.50519,5.26256 1.96503,10.7782 3.31597,16.08245 1.31174,5.15033 3.34092,10.10051 4.64236,15.25346 1.36685,5.41194 2.12391,10.96094 3.31596,16.41405 1.85509,8.48624 3.71116,16.97902 5.96875,25.36716 2.52176,9.36968 5.79141,18.52399 8.45572,27.85414 1.99511,6.98669 3.64702,14.06828 5.63715,21.0564 2.35607,8.27306 5.42185,16.34713 7.46093,24.70397 1.49285,6.11818 3.48176,18.56943 3.48176,18.56943 0,0 3.76233,-0.64005 5.63715,-0.99479 10.96913,-2.07553 21.89719,-4.36369 32.82809,-6.63194 34.02634,-7.06075 67.89885,-14.85869 101.96605,-21.7196 16.26804,-3.27627 32.5682,-6.40182 48.91054,-9.28471 20.29316,-3.57984 40.72385,-6.3501 61.01383,-9.94791 6.64894,-1.17899 13.22202,-2.78438 19.89582,-3.81336 6.10434,-0.94118 12.42251,-0.61426 18.40362,-2.15538 4.10453,-1.05759 7.63183,-3.89866 11.77169,-4.80816 3.62021,-0.79534 7.46402,0.17803 11.1085,-0.49739 2.74945,-0.50955 5.17192,-1.36297 7.95833,-1.59765 3.9567,-0.33323 8.27556,-0.0587 11.77169,1.82378 2.82484,1.52101 4.88335,3.57621 6.46613,6.07421 1.05703,1.66825 2.13243,3.68646 1.82379,5.63714 -0.30924,1.95449 -1.98576,3.51293 -3.48177,4.80816 -2.87812,2.49185 -6.92041,3.23294 -10.11371,5.30555 -2.2444,1.45673 -3.95317,3.68935 -6.30034,4.97395 -4.00161,2.19007 -8.43374,3.71999 -12.93228,4.47656 -3.37905,0.56829 -6.85388,-0.0778 -10.2795,0 -3.65039,0.0829 -7.4045,1.18564 -10.9427,0.4974 -1.16857,-0.22731 -1.17815,-2.13477 -1.32638,-3.31597 -0.26375,-2.10173 0.82899,-6.30034 0.82899,-6.30034 0,0 -2.06463,-0.8049 -3.15017,-0.829 -4.18317,-0.0929 -8.15504,1.88979 -12.26909,2.65278 -7.09355,1.31557 -14.28444,2.05557 -21.388,3.31597 -6.93673,1.2308 -13.81363,2.77791 -20.7248,4.14496 -27.67684,5.47457 -55.41172,10.65603 -83.06503,16.24825 -17.48697,3.53632 -34.96643,7.11671 -52.39231,10.9427 -9.13992,2.00674 -18.4958,3.83594 -27.35674,6.30034 -1.44843,0.40283 -1.3975,2.82022 -2.65278,3.64756 -2.08216,1.37233 -4.81171,1.43158 -7.29513,1.65799 -2.64411,0.24106 -5.31348,-0.56448 -7.95832,-0.3316 -4.34118,0.38225 -8.45553,2.18011 -12.76648,2.81857 -3.56404,0.52784 -7.77967,0.32091 -11.12861,1.64966 -2.0458,0.81171 -2.78218,2.41837 -4.78804,3.3243 -1.78857,0.8078 -3.98187,0.26321 -5.80295,0.99479 -2.28999,0.91995 -7.03212,1.84611 -6.13454,4.14496 6.26832,16.05425 11.77169,48.74474 11.77169,48.74474 0,0 0.31264,2.50827 1.16059,3.31597 1.1269,1.0734 3.3156,0.28992 4.47655,1.32639 1.47785,1.31939 2.07279,3.50586 2.32118,5.47135 0.3714,2.93891 -1.1047,5.83334 -1.32639,8.78732 -0.11994,1.59822 -0.0462,3.2061 0,4.80815 0.0829,2.87742 -0.1467,5.81589 0.4974,8.62152 0.87038,3.79126 4.91034,6.91127 4.47656,10.7769 -1.59034,14.17229 -4.16065,27.49273 -5.96875,42.4444 -0.26746,2.21174 -2.59164,3.93758 -4.64235,4.80816 -1.67877,0.71268 -3.87148,0.87556 -5.47135,0 -2.87799,-1.57503 -5.625,-6.21071 -5.30555,-8.28993 0.6502,-4.23195 1.91829,-8.46002 2.32118,-12.76648 0.76705,-8.19904 0.76002,-16.49059 0.1658,-24.70396 -0.60913,-8.41944 -2.34159,-16.72342 -3.81337,-25.03557 -0.97321,-5.49639 -1.76247,-11.0527 -3.31597,-16.41405 -1.81107,-6.25024 -3.97956,-12.45498 -6.96353,-18.23783 -0.54824,-1.06248 -1.61937,-1.84754 -1.98958,-2.98437 -0.82214,-2.52458 0.003,-5.32442 -0.3316,-7.95832 -0.39891,-3.13993 -0.80132,-6.35107 -1.98958,-9.28472 -0.5872,-1.44973 -2.08088,-2.46866 -2.48698,-3.97916 -0.4307,-1.60202 0.30038,-2.72161 -0.53762,-4.15329 -0.8491,-1.45063 -2.8304,-1.98144 -4.47656,-2.32118 -1.51938,-0.31357 -2.61678,-0.53791 -3.93894,-0.48906 -2.5345,0.0936 -5.07857,0.62223 -7.46093,1.49218 -2.36988,0.8654 -4.10934,3.60529 -6.63193,3.64757 -4.52712,0.0759 -7.90467,-1.1834 -11.77169,-0.4974 -16.13169,2.86174 -30.27496,6.67317 -45.26298,10.6111 -20.82276,5.47094 -41.63925,11.10013 -62.00862,18.07203 -4.2723,1.46229 -9.15618,2.05399 -12.60068,4.97396 -0.73744,0.62514 -0.53544,2.34823 -1.49219,2.48697 -1.94678,0.28231 -3.46683,-0.20786 -5.13975,0.1658 -2.99582,0.66914 -5.44951,3.02682 -8.45572,3.64757 -1.35311,0.2794 -2.94264,-0.68074 -4.14496,0 -0.84128,0.47632 -1.23413,1.55529 -1.49219,2.48697 -0.16228,0.58587 -0.16381,1.23835 0,1.82379 0.48781,1.74338 2.38906,2.88371 2.81858,4.64235 0.59137,2.42133 0.7239,5.28815 -0.4974,7.46093 -0.89405,1.59057 -2.75171,2.55509 -4.47656,3.15018 -2.0402,0.70389 -4.3973,0.94621 -6.46614,0.33159 -2.8823,-0.85629 -5.51029,-2.88579 -7.29513,-5.30555 -1.4213,-1.92689 -2.21369,-4.40578 -2.32118,-6.79773 -0.10471,-2.32999 0.75207,-4.64853 1.65799,-6.79774 1.21508,-2.88266 2.63332,-5.64527 4.73948,-7.95833 2.57493,-2.82789 5.47207,-3.47251 7.4776,-6.72906 0.94353,-1.53211 2.41477,-4.12864 4.04295,-5.42278 1.92027,-1.52631 4.70191,-1.4707 7.12933,-1.82378 1.42301,-0.20699 2.13867,0.0392 3.13839,-0.28304 1.34416,-0.43328 2.43523,-1.43099 3.64756,-2.15538 2.66057,-1.58974 5.1296,-3.54157 7.95833,-4.80816 2.74427,-1.22877 5.9167,-1.33944 8.62152,-2.65277 0.78607,-0.38168 1.36733,-1.11462 2.15538,-1.49219 1.40353,-0.67245 2.958,-0.9857 4.47656,-1.32639 2.75877,-0.61893 6.39981,1.36952 6.96353,0.6632 2.16411,-2.71155 6.66503,-5.07598 10.6111,-6.13455 3.36287,-0.90213 7.13479,1.07852 10.44531,0 28.09536,-9.15308 54.32787,-16.419 81.90443,-23.04598 5.48005,-1.31692 16.57984,-3.31597 16.57984,-3.31597 0,0 -2.51348,-21.3234 -4.64235,-31.8333 -1.61001,-7.9484 -3.60118,-15.8394 -6.13455,-23.54338 -1.02268,-3.10996 -2.01758,-5.98011 -3.64756,-9.11892 -0.59461,-1.14501 1.30662,-2.69505 0.66319,-3.81336 -3.28274,-5.70554 -2.25411,-11.2527 -4.31076,-16.57984 -0.47187,-1.22224 -1.78167,-2.17228 -1.82378,-3.48177 -0.07,-2.17611 0.92344,-3.6903 0.65975,-5.85151 -0.22895,-1.87648 -1.22133,-3.00649 -1.48874,-4.59379 -0.44997,-2.67097 0.13853,-5.43267 -0.1658,-8.12413 -0.82446,-7.29146 -2.81484,-14.40651 -4.47656,-21.5538 -1.70596,-7.33754 -3.43679,-14.68066 -5.63715,-21.88539 -1.88397,-6.16879 -5.32388,-13.25709 -6.46614,-18.23783 -0.2161,-0.9423 -1.11714,1.59593 -1.49218,2.48698 -2.28291,5.42388 -2.62892,11.49008 -4.47656,17.07724 -1.72065,5.20315 -3.71285,10.33727 -6.13454,15.25345 -2.83554,5.75633 -6.03159,11.37319 -9.78211,16.57985 -3.59483,4.99052 -7.39079,9.9748 -12.10329,13.92707 -2.96295,2.48496 -6.25519,4.82071 -9.9479,5.96874 -1.69208,0.52605 -3.53917,0.47223 -5.30555,0.3316 -4.51753,-0.35966 -9.20899,-0.96069 -13.26388,-2.98437 -6.49001,-3.23897 -11.68964,-8.73591 -16.57985,-14.09287 -4.46582,-4.89205 -8.07747,-10.54137 -11.44009,-16.24825 -3.08679,-5.23876 -5.69351,-10.77104 -7.95832,-16.41405 -3.95798,-9.86172 -7.07134,-20.06634 -9.78211,-30.34111 -1.67005,-6.33005 -3.70236,-12.69183 -3.97917,-19.23262 -0.17651,-4.17097 0.15816,-8.79114 1.49219,-12.43489 0.70327,-1.9209 2.96409,-2.92799 4.80816,-3.81336 1.78872,-0.8588 3.8197,-1.26467 5.80294,-1.32639 3.41458,-0.10627 6.40046,-0.0886 10.11371,1.65799 1.32408,0.62282 -0.44949,2.89758 -0.829,4.31076 -0.69811,2.59953 -2.08457,4.99574 -2.65277,7.62672 -0.38659,1.79004 -0.90263,3.68544 -0.4974,5.47135 0.59773,2.63431 3.58034,4.32194 4.14497,6.96354 0.50008,2.33961 -1.0821,4.7503 -0.829,7.12933 0.30877,2.90228 0.8604,5.85315 2.46687,8.28992 1.22775,1.8623 5.63895,2.3474 4.97395,4.47656 -0.52277,1.67376 -0.2429,3.41087 -0.10546,5.13975 0.39612,4.98274 2.76839,9.6248 4.64236,14.25867 1.8904,4.67448 3.44442,9.3209 5.92852,13.59547 3.01567,5.18928 6.30312,10.42342 10.77689,14.42447 4.15435,3.71538 9.13134,6.71059 14.42447,8.45572 1.47805,0.48731 3.12656,0.85019 4.64236,0.49739 3.12106,-0.72641 6.05587,-2.69209 8.12412,-5.13975 3.32555,-3.93562 4.11258,-9.4521 5.96874,-14.25866 1.6687,-4.32114 2.68858,-8.89814 4.64236,-13.09808 1.56719,-3.36891 4.28388,-6.15592 5.63715,-9.61631 2.63738,-6.74398 2.84387,-14.20775 4.64235,-21.2222 1.35943,-5.30208 5.41037,-14.30732 4.64236,-15.75086 -4.73067,-8.89166 -13.18376,-19.0756 -20.7248,-27.85413 -4.50731,-5.24696 -9.15614,-10.47628 -14.59027,-14.75607 -2.68803,-2.11703 -5.72326,-3.92053 -8.78732,-5.30555 -3.06406,-1.38502 -6.74578,-2.03073 -9.45051,-2.98437 -2.70473,-0.95364 -4.47922,-1.9174 -6.79773,-2.65277 z"
       style="fill:#000000;stroke:#000000;stroke-width:1px;stroke-linecap:butt;stroke-linejoin:miter;stroke-opacity:1" />
    <path
       sodipodi:nodetypes="ssssssssssssssssssssssssscssssssssssssscsss"
       inkscape:connector-curvature="0"
       id="path2991"
       d="m 532.54462,338.91901 c -1.29753,-0.84323 -3.31665,-0.79819 -4.64236,0 -1.82147,1.09667 -1.52802,4.08813 -2.98437,5.63715 -1.59715,1.69878 -4.68009,1.70434 -5.96875,3.64756 -1.23543,1.86296 -0.51248,4.44921 -0.99479,6.63194 -0.4226,1.9125 -0.48792,4.06641 -1.65798,5.63715 -1.57507,2.11444 -4.48168,2.78496 -6.63194,4.31076 -2.50625,1.77841 -4.8457,3.78125 -7.29513,5.63715 -3.84119,2.91041 -7.98226,5.44433 -11.60589,8.62152 -3.82034,3.34967 -6.09194,7.79263 -10.6111,10.94269 -0.77475,0.54003 1.65361,1.97615 0.99479,2.65278 -1.85602,1.90621 -3.45038,2.16241 -5.30555,2.98437 -4.15443,1.84067 -9.06697,1.92187 -12.93228,4.31076 -2.39347,1.47925 -3.69193,4.31557 -5.96875,5.96874 -5.72009,4.15327 -12.88923,5.89778 -18.90102,9.61631 -9.00568,5.57036 -16.81903,12.8845 -25.53296,18.90103 -1.51384,1.04523 -2.89079,2.42204 -4.64236,2.98437 -2.10746,0.67658 -4.5093,-0.29576 -6.63193,0.3316 -4.65433,1.37563 -8.60601,4.53874 -12.60069,7.29513 -5.04406,3.48048 -8.90011,4.31064 -12.93227,9.11891 -6.4499,7.69137 -12.86581,8.08819 -23.70918,14.09287 -2.01908,1.11809 -3.80246,5.63544 -3.48177,8.62152 0.19537,1.81917 1.13891,3.5776 2.32118,4.97395 1.3868,1.63791 3.25598,3.01099 5.30555,3.64757 2.11116,0.65571 4.54405,0.72642 6.63194,0 3.19556,-1.1118 9.6163,-5.96874 9.6163,-5.96874 0,0 8.38828,-4.64041 12.93228,-7.62673 5.31027,-3.48991 8.83638,-8.0833 14.42447,-11.1085 5.38136,-2.91328 12.14205,-3.99544 17.74043,-6.46614 7.30115,-3.22217 13.44496,-7.8598 19.73002,-12.43488 4.25064,-3.09417 7.63281,-7.34664 12.10329,-10.11371 3.28276,-2.03191 7.09976,-3.03744 10.6111,-4.64235 7.2395,-3.30892 14.95069,-5.83446 21.55379,-10.27951 5.71146,-3.84482 10.32552,-9.11886 15.25346,-13.92707 5.37155,-5.24105 9.24252,-12.23647 15.58506,-16.24825 2.06781,-1.30793 4.83292,-1.11825 6.96353,-2.32117 4.30126,-2.42844 6.94388,-5.86274 11.2743,-9.61631 0.8394,-0.72758 -0.88976,-2.35555 -0.3316,-3.31597 1.09399,-1.88243 4.48615,-1.05833 5.96874,-2.65278 1.9999,-2.15078 2.98437,-8.28992 2.98437,-8.28992 0,0 1.48046,-8.03174 0,-11.60589 -0.71784,-1.73301 -2.91721,-2.43292 -3.97916,-3.97916 -1.23261,-1.79472 -0.82718,-4.78234 -2.65277,-5.96875 z"
       style="fill:#000000;stroke:#000000;stroke-width:1px;stroke-linecap:butt;stroke-linejoin:miter;stroke-opacity:1" />
    <path
       sodipodi:nodetypes="sssssssssssssssssssssssssssssssssssssssss"
       inkscape:connector-curvature="0"
       id="path2993"
       d="m 503.52989,341.24019 c -5.95479,-5.36582 -9.64238,-8.93732 -14.59027,-13.26388 -4.78354,-4.18284 -8.88897,-8.25072 -13.42967,-12.26908 -0.76314,-0.67535 -1.60562,-1.26401 -2.32118,-1.98958 -1.81854,-1.84398 -2.99657,-4.29623 -4.97395,-5.96875 -4.68967,-3.96665 -10.51417,-6.36229 -15.91665,-9.28471 -3.91302,-2.11671 -7.5461,-5.25611 -11.93749,-5.96874 -0.77149,-0.1252 -1.54156,0.27619 -2.32118,0.33159 -1.43331,0.10186 -2.89523,-0.24703 -4.31076,0 -2.89319,0.50491 -6.17724,0.94426 -8.28992,2.98437 -2.56911,2.48085 -2.09219,6.9157 -3.97916,9.94791 -0.7857,1.26255 -1.86653,2.33527 -2.98438,3.31597 -1.6133,1.41535 -4.04892,1.90779 -5.30555,3.64757 -2.08916,2.89239 -2.84028,6.71443 -2.98437,10.2795 -0.20048,4.96007 2.17851,9.69199 2.98437,14.59026 0.57866,3.51728 -0.19853,7.38919 1.32639,10.6111 1.30444,2.75606 3.78517,4.90819 6.30034,6.63194 1.67623,1.14879 3.87068,1.31666 5.63715,2.32118 1.44125,0.81958 2.46377,2.31168 3.97916,2.98437 3.70505,1.64469 7.91764,2.84389 11.93749,2.32118 3.77477,-0.49084 6.51447,-2.36365 9.11891,-5.13975 2.20486,-2.35018 4.08438,-5.76032 3.64757,-8.95312 -0.58737,-4.29338 -4.03399,-7.13691 -6.79773,-10.1137 -2.678,-2.88444 -6.22511,-4.81915 -9.28472,-7.29513 -0.67107,-0.54307 -1.70781,-0.84198 -1.98958,-1.65799 -0.51654,-1.49591 -0.0256,-3.43264 0.99479,-4.64236 0.38378,-0.455 1.06295,-0.67864 1.65799,-0.66319 3.1641,0.0821 5.6226,2.96688 8.62152,3.97916 1.93107,0.65183 4.22318,0.27428 5.96874,1.32639 2.39689,1.44468 3.48278,3.31568 5.63715,6.30034 1.27427,1.76538 1.19741,4.3494 2.65277,5.96875 1.6221,1.80488 4.66171,1.85768 6.30034,3.64756 1.23548,1.34951 1.03595,3.67174 2.32118,4.97396 2.50031,2.53336 6.77618,2.49688 9.61631,4.64235 3.18607,2.4068 5.14361,6.12097 7.95833,8.95312 1.04826,1.05475 1.91337,2.49034 3.31597,2.98437 1.87947,0.662 4.07835,0.29853 5.96874,-0.3316 2.64655,-0.88218 5.43162,-2.31089 6.96353,-4.64235 1.35722,-2.06559 1.27949,-4.824 1.32639,-7.29513 0.0445,-2.34432 -0.70621,-4.63662 -0.99479,-6.96354 -0.2599,-2.09566 -0.25501,-4.88673 -1.82378,-6.30034 z"
       style="fill:#000000;stroke:#000000;stroke-width:1px;stroke-linecap:butt;stroke-linejoin:miter;stroke-opacity:1" />
    <path
       sodipodi:nodetypes="ssssssssssssssssssssssssssscsssssss"
       inkscape:connector-curvature="0"
       id="path2995"
       d="m 469.20961,589.60627 c -0.44371,0.77282 1.87993,-0.11209 2.65277,0.33159 2.05147,1.17773 3.6147,3.37638 4.31076,5.63715 0.58634,1.90443 0.29854,4.07835 -0.33159,5.96874 -0.63013,1.8904 -1.80171,3.67871 -3.31597,4.97396 -1.20264,1.0287 -2.78385,1.5735 -4.31076,1.98958 -1.07176,0.29205 -2.2907,-0.0959 -3.31597,0.3316 -3.0435,1.26908 -5.05699,4.23397 -7.62673,6.30034 -2.51576,2.02296 -4.81992,4.37398 -7.62673,5.96874 -3.19462,1.8151 -6.87173,2.60537 -10.2795,3.97916 -3.4461,1.38925 -6.95439,2.65266 -10.2795,4.31076 -1.37419,0.68525 -2.71783,1.44541 -3.97917,2.32118 -2.58083,1.79192 -4.54904,4.4421 -7.29513,5.96875 -4.18543,2.32684 -9.32257,2.48032 -13.59547,4.64235 -2.76328,1.39818 -5.28171,3.2828 -7.62673,5.30555 -1.95394,1.68541 -3.26083,4.06311 -5.30555,5.63715 -2.39064,1.84033 -4.99482,3.74544 -7.95833,4.31076 -2.73383,0.52151 -5.56379,-0.43439 -8.28992,-0.99479 -1.91852,-0.39438 -4.19716,-0.33032 -5.63715,-1.65799 -1.13186,-1.04358 -1.8938,-2.78939 -1.65798,-4.31076 0.21682,-1.3988 2.01672,-2.05141 2.65277,-3.31596 0.97581,-1.94003 0.22809,-4.66594 1.65799,-6.30035 1.33804,-1.52942 3.17867,-2.08392 4.47656,-3.64756 1.73068,-2.08504 1.77811,-4.17978 2.81857,-6.63194 0.56291,-1.32668 3.65624,0.95236 4.31076,-0.3316 2.9122,-5.71283 5.93925,-8.62355 10.2795,-11.27429 10.24768,-6.25861 18.77138,-10.965 28.84893,-14.92186 3.84413,-1.50936 11.93749,-3.31597 11.93749,-3.31597 0,0 8.24597,-2.99599 11.93749,-5.30555 2.32757,-1.45622 3.84426,-4.07844 6.30034,-5.30555 2.63839,-1.3182 6.41277,-0.035 8.62152,-1.98958 0.96887,-0.85736 0.38573,-2.75934 1.32639,-3.64757 0.83904,-0.79228 2.16211,-1.01227 3.31597,-0.99479 1.74747,0.0265 4.28001,0.054 4.97395,1.65799 0.62839,1.45248 -1.10005,2.76147 -1.98958,4.31076 z"
       style="fill:#000000;stroke:#000000;stroke-width:1px;stroke-linecap:butt;stroke-linejoin:miter;stroke-opacity:1" />
  </g>
</svg>
