<?xml version="1.0" encoding="UTF-8" standalone="no"?>
<!-- Created with Inkscape (http://www.inkscape.org/) -->
<svg
   xmlns:svg="http://www.w3.org/2000/svg"
   xmlns="http://www.w3.org/2000/svg"
   version="1.0"
   width="300"
   height="85"
   id="svg2457">
  <defs
     id="defs2460" />
  <path
     d="M 240,77.315074 C 223.37151,75.145529 212.21199,70.75414 209.78371,65.424638 C 208.29941,62.166946 209.41451,60.224054 214.38605,57.40578 C 218.45626,55.098454 218.32946,54.826202 211.6133,51.45243 C 209.47562,50.378594 204.86312,46.669742 201.3633,43.210538 C 197.86349,39.751334 195,37.31255 195,37.791018 C 195,38.269487 192.92126,40.153797 190.38058,41.978374 C 177.1673,51.467436 163.33196,53.698284 157.39892,47.296428 L 155.01509,44.72424 L 151.25755,47.191921 C 140.75996,54.085967 130.8781,53.492733 128.44361,45.822338 C 127.91482,44.156266 127.48426,44.258755 123.502,46.998624 C 119.07904,50.041702 111.84181,51.171095 110.51557,49.025198 C 110.17726,48.477794 108.11259,49.354685 105.80652,51.025198 C 101.16156,54.389986 96.834407,54.842353 94.25,52.233333 C 92.578477,50.545892 92.352761,50.613158 89.216667,53.733333 C 86.774999,56.162607 85.044671,57 82.466667,57 C 80.56,57 78.993109,56.6625 78.984687,56.25 C 78.976265,55.8375 78.599602,54.917104 78.147658,54.204676 C 77.539267,53.24563 76.275739,53.959555 73.280618,56.954676 C 67.996658,62.238636 66,62.268919 66,57.0651 C 66,54.900904 66.384108,52.088404 66.853574,50.8151 C 69.583833,43.409976 69.655788,43.510203 61.529266,43.398912 L 54.147754,43.297824 L 51.216012,48.898912 C 47.802439,55.420538 45.493956,56.525454 44.522541,52.102628 C 43.693209,48.326707 40.357005,44 38.274828,44 C 37.405822,44 34.015754,46.746417 30.741343,50.103148 C 23.334028,57.696689 17.386589,60.61272 12.557154,59.018863 C 2.7250425,55.773973 10.917645,44.413926 25.830767,40.613372 C 29.312689,39.726018 32.946747,39 33.906453,39 C 34.866158,39 36.681523,37.903455 37.940596,36.563233 C 40.087159,34.278321 40.155089,33.81495 39.030632,29.127687 C 37.342637,22.091335 39.034035,14.299636 43.093776,10.410157 C 45.517542,8.0880417 47.050374,7.504379 50.92386,7.4286635 L 55.740203,7.3345179 L 57.370101,12.505151 C 59.388963,18.909716 59.458235,27.159539 57.54649,33.511784 C 56.74706,36.168089 56.337502,38.737072 56.63636,39.220636 C 57.225912,40.174551 69.337782,40.06608 70.748767,39.094248 C 71.223295,38.767412 72.661711,35.575 73.945247,32 C 76.776892,24.113089 83.17617,14.396249 86.162968,13.448276 C 89.179858,12.490752 91,15.270552 91,20.8356 C 91,23.96198 89.697864,28.1511 86.629973,34.894471 C 80.311805,48.782105 79.45304,55.426589 84.310688,52.839362 C 88.740643,50.479927 91.883084,45.362596 92.958106,38.757406 C 94.455057,29.559785 95.973208,25 97.538544,25 C 99.501462,25 99.455521,30.555881 97.425675,38.649677 C 95.376243,46.821566 95.754362,49.413132 99.052158,49.797331 C 102.62969,50.214121 107.61268,45.20285 109.00512,39.787886 C 111.58014,29.774057 113.72234,24.489022 115.33287,24.176676 C 117.586,23.739703 117.49987,26.736366 115,35.757441 C 112.59074,44.451563 112.54311,45.610699 114.56335,46.385934 C 116.57119,47.156416 120.65686,45.003618 124.63663,41.078172 C 127.77969,37.978026 133,28.237257 133,25.472665 C 133,23.55699 135.89379,23.559656 136.62917,25.476008 C 136.94069,26.287813 135.96968,30.07658 134.47139,33.89549 C 131.2173,42.18961 131.54672,47.891089 135.29531,48.155525 C 145.1137,48.848141 153.95939,42.64093 155.96963,33.647904 C 157.36772,27.393383 159.66018,23 161.52568,23 C 163.5699,23 163.3656,27.275049 161,34 C 159.93591,37.025 159.0506,40.434059 159.03265,41.575686 C 158.98297,44.734438 163.07471,48.001746 167.06445,47.989176 C 174.90794,47.964463 186.59673,42.644834 191.43072,36.899962 C 193.81535,34.065992 194.01425,33.213147 193.47597,28.130349 C 192.78509,21.606644 195.21584,15.725948 198.82682,15.185081 C 201.97022,14.714249 202.64589,19.010434 200.50506,25.856088 C 197.57327,35.230991 197.97366,37.773508 203.08287,42.225396 C 205.51229,44.342257 210.78516,47.712164 214.80035,49.714077 C 218.81554,51.71599 222.3045,53.683679 222.55359,54.086718 C 223.54211,55.686173 221.71309,57.740862 217.46248,59.805965 C 209.76745,63.5445 211.9564,66.417795 226.0565,71.086795 C 237.36351,74.83091 251.78964,75.988322 263.2403,74.070061 C 273.55018,72.342906 295.19876,72.129742 295.74514,73.75 C 296.05315,74.66336 294.44984,75 289.7918,75 C 286.28562,75 278.26062,75.65398 271.95846,76.453289 C 254.22269,78.702737 251.25012,78.782895 240,77.315074 z M 20,53.877576 C 24.41788,51.207981 31.567797,44.234463 30.737915,43.404582 C 30.393645,43.060312 27.617614,43.563208 24.568956,44.522129 C 17.898549,46.620229 11.345249,51.851362 12.293052,54.321297 C 13.15981,56.580033 15.777111,56.429345 20,53.877576 z M 74.962739,49.054869 C 79.089583,42.977823 79.819221,41 77.934259,41 C 75.135486,41 72.937199,43.47238 71.533638,48.198682 C 68.918448,57.004983 69.470343,57.142782 74.962739,49.054869 z M 49.340335,44.603335 C 50.863804,42.278228 50.793235,42.128942 46.976785,39.603335 C 42.472109,36.622281 41.432862,36.429597 40.664115,38.432919 C 40.341436,39.273807 41.326393,40.823172 43.048052,42.182919 C 44.661642,43.457313 45.985935,45.0625 45.990926,45.75 C 46.005488,47.755978 47.641663,47.195836 49.340335,44.603335 z M 54.405998,33.321861 C 56.051049,28.493902 56.601815,16.489976 55.217535,15.634444 C 54.787179,15.368469 53.127707,17.704412 51.52982,20.825427 C 49.931933,23.946442 47.809042,27.694467 46.812285,29.15437 C 45.815528,30.614274 45,32.308389 45,32.919069 C 45,33.951576 50.68896,37.987902 52.155998,37.996262 C 52.516797,37.998318 53.529297,35.894838 54.405998,33.321861 z M 83.516066,29.624407 C 84.517522,26.805983 85.916989,23.595645 86.625992,22.490323 C 87.334996,21.385 87.56716,19.917684 87.141913,19.22962 C 85.579726,16.701948 79.582476,26.105708 76.530418,35.868574 L 75.789957,38.237148 L 78.742597,36.49298 C 80.762504,35.299792 82.270433,33.130024 83.516066,29.624407 z M 46.995033,22.398939 C 46.997765,21.793356 48.130476,19.171745 49.512169,16.573138 C 53.22804,9.5845452 50.813716,7.4536751 45.48338,13.017348 C 42.986603,15.623421 42.545922,16.95238 42.25029,22.767348 L 41.908004,29.5 L 44.449035,26.5 C 45.846602,24.85 46.992301,23.004523 46.995033,22.398939 z M 198,24 C 198,22.9 197.82748,22 197.61663,22 C 197.40578,22 196.99791,22.9 196.71025,24 C 196.42259,25.1 196.59511,26 197.09362,26 C 197.59213,26 198,25.1 198,24 z"
     id="path2474"
     style="fill:#000000" />
</svg>
