<?xml version="1.0" standalone="no"?>
<!DOCTYPE svg PUBLIC "-//W3C//DTD SVG 20010904//EN"
 "http://www.w3.org/TR/2001/REC-SVG-20010904/DTD/svg10.dtd">
<svg version="1.0" xmlns="http://www.w3.org/2000/svg"
 width="284.000000pt" height="132.000000pt" viewBox="0 0 284.000000 132.000000"
 preserveAspectRatio="xMidYMid meet">
<metadata>
Created by potrace 1.13, written by Peter Selinger 2001-2015
</metadata>
<g transform="translate(0.000000,132.000000) scale(0.100000,-0.100000)"
fill="#000000" stroke="none">
<path d="M1192 750 c2 -9 -3 -29 -11 -43 -17 -31 -20 -31 -171 -17 -58 5 -177
14 -265 20 -88 6 -200 17 -250 26 -119 20 -485 32 -485 16 0 -7 10 -12 23 -12
12 0 54 -9 92 -20 39 -11 120 -25 180 -30 61 -6 167 -22 238 -35 100 -20 161
-25 285 -26 152 0 245 -8 259 -23 4 -4 2 -16 -5 -26 -7 -11 -12 -33 -12 -49 0
-36 20 -82 31 -75 5 3 6 -1 3 -9 -7 -20 59 -84 145 -140 75 -50 248 -130 262
-122 4 3 10 1 14 -4 3 -6 12 -8 20 -4 8 3 15 0 15 -7 0 -7 6 -10 14 -7 8 3 17
3 20 -1 4 -3 16 -7 28 -9 12 -2 27 -8 33 -13 6 -5 29 -12 51 -14 21 -2 47 -7
57 -11 10 -4 21 -5 24 -1 3 3 13 0 21 -7 17 -13 369 -18 432 -5 19 4 59 12 88
18 78 15 228 96 244 132 7 15 16 28 20 28 14 0 8 60 -8 86 -25 38 -145 102
-231 125 -105 26 -285 53 -343 51 -14 -1 -32 2 -40 5 -8 4 -40 8 -70 9 -55 1
-87 5 -210 24 -36 5 -148 12 -250 15 -102 2 -213 7 -248 11 l-63 6 20 22 c22
24 48 25 171 8 41 -6 116 -16 165 -22 50 -6 101 -13 115 -16 14 -2 -7 8 -46
24 -39 16 -86 37 -105 46 -41 22 -129 49 -135 43 -7 -6 58 -30 74 -28 6 1 12
-4 12 -10 0 -7 3 -9 7 -6 3 4 11 3 17 -2 6 -5 28 -14 49 -21 57 -18 38 -23
-40 -11 -37 5 -109 16 -160 22 -90 11 -91 12 -81 34 10 23 10 23 30 3 24 -24
38 -15 15 10 -10 10 -17 28 -17 39 0 11 -7 20 -15 20 -9 0 -14 -7 -13 -17z
m-697 -25 c125 -20 348 -39 423 -37 36 1 62 -3 62 -9 0 -6 16 -8 44 -4 25 4
46 3 50 -3 3 -5 22 -8 41 -5 l36 4 -18 -26 c-15 -21 -24 -24 -48 -20 -16 3
-129 10 -250 14 -154 7 -248 15 -315 30 -52 11 -144 25 -205 30 -60 6 -139 20
-175 31 l-65 20 165 -5 c91 -3 206 -12 255 -20z m739 -135 c14 -5 110 -10 213
-10 129 -1 227 -7 313 -20 69 -10 197 -26 285 -35 280 -28 414 -65 503 -140
43 -36 47 -56 18 -112 -21 -43 -33 -52 -108 -90 -171 -86 -424 -108 -665 -58
-115 24 -264 65 -363 101 -25 9 -93 46 -152 81 -99 60 -110 70 -142 127 -43
76 -50 104 -37 139 9 24 15 27 60 27 27 0 61 -4 75 -10z"/>
</g>
</svg>
