<?xml version="1.0" encoding="UTF-8" standalone="no"?>
<!-- Created with Inkscape (http://www.inkscape.org/) -->
<svg
   xmlns:dc="http://purl.org/dc/elements/1.1/"
   xmlns:cc="http://creativecommons.org/ns#"
   xmlns:rdf="http://www.w3.org/1999/02/22-rdf-syntax-ns#"
   xmlns:svg="http://www.w3.org/2000/svg"
   xmlns="http://www.w3.org/2000/svg"
   xmlns:sodipodi="http://sodipodi.sourceforge.net/DTD/sodipodi-0.dtd"
   xmlns:inkscape="http://www.inkscape.org/namespaces/inkscape"
   width="508.12466"
   height="130.88803"
   id="svg2"
   sodipodi:version="0.32"
   inkscape:version="0.46"
   version="1.0"
   sodipodi:docname="signature_A._Kutzsche.svg"
   inkscape:output_extension="org.inkscape.output.svg.inkscape">
  <defs
     id="defs4">
    <inkscape:perspective
       sodipodi:type="inkscape:persp3d"
       inkscape:vp_x="0 : 526.18109 : 1"
       inkscape:vp_y="0 : 1000 : 0"
       inkscape:vp_z="744.09448 : 526.18109 : 1"
       inkscape:persp3d-origin="372.04724 : 350.78739 : 1"
       id="perspective10" />
    <inkscape:perspective
       id="perspective2447"
       inkscape:persp3d-origin="372.04724 : 350.78739 : 1"
       inkscape:vp_z="744.09448 : 526.18109 : 1"
       inkscape:vp_y="0 : 1000 : 0"
       inkscape:vp_x="0 : 526.18109 : 1"
       sodipodi:type="inkscape:persp3d" />
    <inkscape:perspective
       id="perspective2497"
       inkscape:persp3d-origin="372.04724 : 350.78739 : 1"
       inkscape:vp_z="744.09448 : 526.18109 : 1"
       inkscape:vp_y="0 : 1000 : 0"
       inkscape:vp_x="0 : 526.18109 : 1"
       sodipodi:type="inkscape:persp3d" />
    <inkscape:perspective
       id="perspective2446"
       inkscape:persp3d-origin="372.04724 : 350.78739 : 1"
       inkscape:vp_z="744.09448 : 526.18109 : 1"
       inkscape:vp_y="0 : 1000 : 0"
       inkscape:vp_x="0 : 526.18109 : 1"
       sodipodi:type="inkscape:persp3d" />
  </defs>
  <sodipodi:namedview
     id="base"
     pagecolor="#ffffff"
     bordercolor="#666666"
     borderopacity="1.0"
     gridtolerance="10000"
     guidetolerance="10"
     objecttolerance="10"
     inkscape:pageopacity="0.0"
     inkscape:pageshadow="2"
     inkscape:zoom="1.0040916"
     inkscape:cx="295.32599"
     inkscape:cy="18.454996"
     inkscape:document-units="px"
     inkscape:current-layer="layer1"
     showgrid="false"
     inkscape:window-width="1110"
     inkscape:window-height="713"
     inkscape:window-x="0"
     inkscape:window-y="0" />
  <metadata
     id="metadata7">
    <rdf:RDF>
      <cc:Work
         rdf:about="">
        <dc:format>image/svg+xml</dc:format>
        <dc:type
           rdf:resource="http://purl.org/dc/dcmitype/StillImage" />
      </cc:Work>
    </rdf:RDF>
  </metadata>
  <g
     inkscape:label="Layer 1"
     inkscape:groupmode="layer"
     id="layer1"
     transform="translate(-86.224481,-769.00504)">
    <path
       style="fill:#000000"
       d="M 418.08673,898.35099 C 416.22365,896.10549 416.51598,889.12209 418.71396,883.36669 C 420.92038,877.58929 430.37455,860.98443 434.57733,855.50504 C 436.26476,853.30504 439.90363,849.12355 442.66371,846.21284 C 449.36419,839.14665 449.70667,838.40705 447.25159,836.30495 C 445.03167,834.40419 444.62161,830.98099 446.24947,827.9393 C 447.514,825.5765 446.90427,825.50685 443.64584,827.64185 C 442.27189,828.54209 439.99296,831.80459 438.58155,834.89185 C 435.87759,840.80638 434.80072,841.9648 431.98334,841.98973 C 429.73924,842.00958 428.69133,837.85071 430.22049,834.99345 C 431.10737,833.33631 436.21429,820.05245 436.21429,819.4027 C 436.21429,819.14195 419.07741,836.95925 414.71556,841.75504 C 408.22666,848.8895 405.21429,848.62578 405.21429,840.92325 C 405.21429,839.31824 405.07381,838.00504 404.90212,838.00504 C 404.5562,838.00504 397.57073,841.53709 395.21429,842.90348 C 388.94911,846.53637 385.79318,846.67717 384.52803,843.38026 C 384.17554,842.46168 384.37166,840.42647 384.96385,838.85758 C 386.3592,835.16087 385.28364,835.24731 379.45403,839.30039 C 371.37674,844.91619 363.13741,849.13519 360.87657,848.8131 C 359.25074,848.58147 358.45927,847.44792 357.68638,844.24406 L 356.65847,839.98309 L 354.72644,843.24406 C 353.66382,845.0376 351.84266,848.30504 350.67941,850.50504 C 348.26011,855.08055 344.95214,856.25224 343.27915,853.12623 C 342.45055,851.57798 342.8009,849.24829 344.82972,842.81554 C 347.83752,833.27875 354.71132,815.29105 358.70539,806.50504 C 360.20555,803.20504 362.74116,797.64514 364.34008,794.14971 C 369.0513,783.85041 374.11499,776.84869 376.59622,777.20278 C 379.09966,777.56004 378.96252,780.13928 376.23549,783.98706 C 375.25398,785.37195 373.72347,788.65594 372.83436,791.28483 C 371.94525,793.91371 370.02221,798.41371 368.56093,801.28483 C 367.09966,804.15594 364.36953,810.33004 362.49399,815.00504 C 360.61844,819.68004 358.81176,824.14136 358.47916,824.91909 C 356.80198,828.84075 360.79416,823.82001 367.74965,813.26009 C 372.00813,806.79481 375.87978,801.35504 376.35331,801.17171 C 376.82685,800.98837 377.21429,800.38694 377.21429,799.83518 C 377.21429,798.65229 382.19424,791.35607 387.33643,785.00504 C 389.34035,782.53004 391.68733,778.81121 392.55195,776.74098 C 394.3879,772.34502 396.53063,771.17852 398.72987,773.37776 C 400.1525,774.80039 400.14201,775.24688 398.61603,778.22489 C 397.69159,780.02897 396.63673,781.73004 396.27189,782.00504 C 394.0114,783.70894 390.15816,790.10521 390.78307,791.11633 C 391.21737,791.81904 391.10036,792.05266 390.49998,791.6816 C 389.16668,790.85758 377.59689,808.18167 372.40229,818.78028 C 368.57335,826.59253 365.28584,837.40992 366.40151,838.52559 C 367.13709,839.26117 376.46524,834.65685 385.71429,828.9929 C 394.70056,823.48988 398.23463,822.71362 398.17885,826.25504 C 398.15937,827.49254 397.50031,829.63004 396.71429,831.00504 C 393.63,836.40044 395.04851,836.28509 402.73396,830.51555 C 406.84127,827.43215 409.69867,826.02277 411.8573,826.01555 C 414.93819,826.00525 416.89098,828.10112 415.65852,830.09528 C 414.3134,832.27172 417.27127,830.74785 419.23045,828.25504 C 420.41918,826.74254 427.5462,818.98004 435.06826,811.00504 C 445.12405,800.34375 450.26216,793.95691 454.47651,786.87998 C 457.62899,781.58619 460.87879,776.69844 461.6983,776.01831 C 463.27127,774.71286 468.21429,775.39495 468.21429,776.91745 C 468.21429,778.20143 462.47615,787.69025 456.44335,796.38236 C 453.54433,800.55929 451.18524,804.20992 451.20091,804.49486 C 451.21658,804.77981 450.04428,807.27945 448.5958,810.04961 C 447.14732,812.81978 446.20892,815.33301 446.51048,815.63456 C 446.81203,815.93611 448.77321,815.01783 450.86865,813.59394 C 455.26484,810.60665 456.49883,810.43244 458.57269,812.5063 C 460.3642,814.2978 459.58458,817.78527 455.75561,825.10805 C 453.24336,829.91263 453.27621,833.57899 455.82275,832.60179 C 457.23009,832.06175 471.73068,821.43548 474.03572,819.25504 C 474.7625,818.56754 476.25459,818.00504 477.35146,818.00504 C 478.44833,818.00504 480.10369,817.60822 481.03003,817.12321 C 483.32834,815.91987 486.89646,817.4283 487.69374,819.94029 C 488.36394,822.05189 491.21429,822.86266 491.21429,820.94168 C 491.21429,819.49821 497.45834,820.19429 497.94978,821.69254 C 498.16401,822.34567 497.47874,823.74059 496.42697,824.79236 C 495.37519,825.84414 494.04309,828.00977 493.46675,829.60486 C 492.89041,831.19996 492.07114,833.36692 491.64616,834.42033 C 490.28206,837.80152 499.14949,830.89432 510.4416,819.7798 C 516.47242,813.84383 522.90161,806.33797 525.66669,802.00504 C 535.90386,785.96318 546.37891,775.76966 549.46023,778.85098 C 550.60102,779.99177 548.58827,789.00504 547.19274,789.00504 C 546.77384,789.00504 546.17188,790.03788 545.85505,791.30024 C 545.53822,792.5626 540.45888,798.63141 534.56763,804.78649 C 525.98527,813.75319 523.29556,817.2919 521.03528,822.59026 C 517.68217,830.45032 517.69554,830.35303 520.14855,829.04022 C 523.31315,827.34658 525.54921,827.83244 529.47222,831.06612 C 533.41836,834.31886 535.13157,834.77507 539.35206,833.69703 C 541.16028,833.23516 542.47729,831.84107 543.53981,829.26416 C 544.39229,827.19664 547.13388,822.93729 549.63222,819.79892 C 553.2021,815.31451 555.0844,813.84783 558.42373,812.94865 C 563.29869,811.63595 565.25526,812.42476 566.62024,816.25315 C 568.33469,821.06172 562.46013,829.50185 553.96429,834.43627 C 550.60355,836.38819 549.21877,837.82536 549.2296,839.35006 C 549.26053,843.70228 550.70014,844.51249 558.17864,844.38661 C 566.10571,844.25317 567.19804,845.4563 562.30992,848.93695 C 556.07288,853.37811 544.43415,850.23128 542.21376,843.50343 L 541.04285,839.95555 L 533.6596,840.2303 C 527.1847,840.47124 526.0061,840.2352 524.07981,838.31176 L 521.88328,836.11848 L 517.67534,839.14039 C 511.99041,843.223 507.84859,842.89162 507.40568,838.31872 C 507.23595,836.56624 507.79845,833.77609 508.65568,832.11838 C 509.51292,830.46067 510.21429,828.84552 510.21429,828.52916 C 510.21429,828.21279 507.17679,830.45989 503.46429,833.5227 C 499.75179,836.58552 496.26429,839.42283 495.71429,839.82785 C 483.50134,848.82143 481.6746,849.04472 481.78943,841.52993 C 481.85012,837.55831 481.65776,836.96988 480.78943,838.47095 C 478.82871,841.86044 476.11348,844.13227 474.41429,843.80504 C 471.43042,843.2304 471.97527,840.11516 476.15416,833.85723 C 480.24678,827.72849 481.98753,823.44495 480.84844,822.30586 C 479.17531,820.63273 456.81186,838.06495 455.2004,842.29841 C 454.52907,844.06206 453.35756,846.92305 452.59705,848.65617 C 451.83653,850.38929 451.21429,852.28243 451.21429,852.86314 C 451.21429,854.23156 440.78567,874.39389 438.19884,878.02679 C 437.10734,879.55959 436.21429,881.23709 436.21429,881.75439 C 436.21429,882.27179 435.31429,883.50959 434.21429,884.50509 C 433.11429,885.50049 432.21429,886.72529 432.21429,887.22679 C 432.21429,888.58139 427.24964,895.17749 424.29378,897.75009 C 421.21346,900.43099 419.91676,900.55649 418.08673,898.35099 z M 434.97203,871.52769 C 438.68027,864.94017 442.26859,857.96517 442.94607,856.0277 L 444.17786,852.50504 L 441.63706,855.50504 C 434.87334,863.49118 424.19594,882.41909 424.23653,886.35109 C 424.25812,888.44289 424.31607,888.43289 426.24426,886.00509 C 427.33629,884.63009 431.26378,878.11529 434.97203,871.52769 z M 209.21429,862.90618 C 209.21429,861.54704 214.7652,855.11349 224.96429,844.65179 C 239.70924,829.52719 248.24846,820.40795 255.94927,811.56216 C 257.72851,809.51838 261.84338,802.36849 265.09342,795.67351 C 268.34346,788.97853 272.79126,781.48524 274.97741,779.02175 C 278.45336,775.10485 279.15696,774.71257 280.58327,775.8963 C 281.48033,776.6408 282.21429,777.83807 282.21429,778.55692 C 282.21429,780.77632 273.49134,798.27861 270.27881,802.50504 C 267.45196,806.22406 259.25424,826.62547 259.22659,830.01035 C 259.21511,831.4152 263.24034,833.31147 269.21429,834.71553 C 272.12359,835.3993 273.24554,836.76002 272.50063,838.70124 C 272.10197,839.74012 270.11371,840.00827 264.41353,839.79192 L 256.85504,839.50504 L 254.12008,848.33234 C 251.41843,857.0521 249.40759,859.9112 245.93291,859.97324 C 243.04912,860.02472 242.8059,857.35782 244.76299,847.14484 C 246.15818,839.86413 247.26336,836.73831 249.27904,834.37198 C 251.61536,831.62924 254.02271,824.48013 252.96585,823.42326 C 252.75827,823.21569 247.89175,828.09417 242.15136,834.26434 C 230.43366,846.85933 225.35199,852.00938 219.95128,856.76315 C 217.91545,858.55511 215.51503,861.14261 214.61702,862.51315 C 212.58112,865.62032 209.21429,865.86529 209.21429,862.90618 z M 106.18653,861.25504 C 104.2166,858.91346 102.21429,854.32337 102.21429,852.14912 C 102.21429,851.18012 101.6193,849.5736 100.89209,848.57909 C 99.638923,846.86528 99.354333,846.92056 95.441143,849.63796 C 93.170333,851.21485 90.863723,853.74254 90.315363,855.25504 C 89.322753,857.99283 86.204983,859.13605 86.224573,856.75504 C 86.236873,855.25948 95.108793,845.77549 98.691523,843.428 C 102.04521,841.23058 103.35858,842.39315 106.13989,850.02116 C 107.3399,853.31229 108.63505,856.00197 109.01801,855.99821 C 110.22956,855.98632 113.81082,849.91673 120.71,836.18242 C 124.3908,828.85497 127.0996,822.55702 126.72956,822.18698 C 126.35951,821.81693 124.17969,820.61211 121.88552,819.5096 C 119.39616,818.3133 117.13111,816.29541 116.26795,814.50504 C 114.42258,810.67738 114.48339,801.51781 116.36931,799.23631 C 117.15641,798.28411 118.39105,795.70504 119.11296,793.50504 C 119.83486,791.30504 121.62397,787.93004 123.08876,786.00504 C 124.55355,784.08004 126.81371,780.93004 128.11133,779.00504 C 131.1467,774.50212 137.87858,769.00504 140.35761,769.00504 C 141.41748,769.00504 143.39382,769.73179 144.74947,770.62005 C 146.96766,772.07346 147.21429,772.91278 147.21429,779.00818 C 147.21429,786.23039 144.13291,798.50687 139.64202,809.17675 C 138.24264,812.50152 137.23643,815.32763 137.40599,815.457 C 137.57555,815.58637 139.58529,816.72215 141.87208,817.98095 C 144.65105,819.51068 146.60825,821.55229 147.77395,824.13736 C 148.7332,826.26458 149.78719,828.00417 150.11616,828.00311 C 151.3249,827.9992 157.30318,818.26698 158.28816,814.69965 C 159.02957,812.01449 159.99009,810.84843 161.84377,810.38318 C 165.80156,809.38984 167.42497,811.65813 166.12524,816.36538 C 165.23007,819.60742 165.3452,820.49221 166.88335,822.19185 C 168.64314,824.13639 168.62717,824.25229 166.34482,826.10043 C 165.05117,827.14797 162.77936,828.00504 161.29637,828.00504 C 157.01374,828.00504 150.08691,838.25697 146.22616,850.30945 C 142.67496,861.39557 140.23087,863.97869 137.03129,860.02738 C 134.47022,856.86459 134.74312,854.4328 138.55196,846.47683 C 142.15148,838.95808 143.56263,832.05145 142.22055,828.52151 C 141.75847,827.30614 139.71695,825.52239 137.68384,824.55762 C 134.58981,823.0894 133.78352,823.02366 132.73722,824.15426 C 131.57394,825.41128 125.08485,837.79946 118.52565,851.28525 C 115.43541,857.63883 111.0706,863.00504 108.9929,863.00504 C 108.25913,863.00504 106.99626,862.21754 106.18653,861.25504 z M 134.42031,808.95391 C 136.8762,804.00872 140.71674,792.9343 141.82163,787.61181 C 142.97557,782.05299 143.41295,776.96513 142.86061,775.52575 C 142.31158,774.095 141.97242,774.11452 139.4823,775.72019 C 133.55262,779.54373 128.22965,787.41291 124.74632,797.50502 C 121.55531,806.75022 121.96561,810.27284 126.55972,813.07381 C 128.29473,814.13162 130.16429,814.86338 130.71429,814.69995 C 131.26429,814.53651 132.932,811.95079 134.42031,808.95391 z M 136.77858,788.71191 C 137.15411,787.72569 137.71327,787.17069 138.02116,787.47858 C 138.32905,787.78647 138.02179,788.59337 137.33837,789.27171 C 136.35076,790.25197 136.2359,790.13711 136.77858,788.71191 z M 173.96366,853.88466 C 171.66709,852.59943 171.65024,847.42008 173.93847,846.13952 C 178.15143,843.78183 181.1801,849.91603 177.46366,853.27936 C 176.19768,854.42506 175.22874,854.59263 173.96366,853.88466 z M 291.11164,838.25504 C 289.85289,834.96819 290.98676,832.64362 294.07261,832.18468 C 297.62052,831.65702 298.98183,838.05226 295.78723,840.23973 C 293.7266,841.65073 292.15689,840.98442 291.11164,838.25504 z M 587.21429,836.56406 C 587.21429,832.59163 588.34135,831.56913 591.77113,832.42995 C 596.31818,833.57119 594.40135,840.00504 589.51429,840.00504 C 587.5599,840.00504 587.21429,839.48798 587.21429,836.56406 z M 410.91591,813.18418 C 409.27423,811.32174 409.97322,808.27992 412.53059,806.15749 C 413.7881,805.11386 414.5988,805.15252 416.94974,806.36824 C 419.56502,807.72065 420.19018,807.68255 423.77158,805.95244 C 425.94007,804.90488 428.44062,803.51655 429.32837,802.86726 C 431.4482,801.31684 434.21429,802.4404 434.21429,804.85188 C 434.21429,806.04433 432.1162,808.2065 428.62761,810.60918 C 424.0591,813.75563 422.07092,814.49391 417.71847,814.66009 C 413.80163,814.80964 412.00512,814.41987 410.91591,813.18418 z"
       id="path2507" />
  </g>
</svg>
