<?xml version="1.0" encoding="UTF-8" standalone="no"?>
<!-- Created with Inkscape (http://www.inkscape.org/) -->

<svg
   xmlns:dc="http://purl.org/dc/elements/1.1/"
   xmlns:cc="http://creativecommons.org/ns#"
   xmlns:rdf="http://www.w3.org/1999/02/22-rdf-syntax-ns#"
   xmlns:svg="http://www.w3.org/2000/svg"
   xmlns="http://www.w3.org/2000/svg"
   xmlns:sodipodi="http://sodipodi.sourceforge.net/DTD/sodipodi-0.dtd"
   xmlns:inkscape="http://www.inkscape.org/namespaces/inkscape"
   width="633"
   height="363.95676"
   id="svg2"
   version="1.1"
   inkscape:version="0.48.1 ">
  <title
     id="title3000">Signature of Chandrika Kumaratunga</title>
  <defs
     id="defs4" />
  <sodipodi:namedview
     id="base"
     pagecolor="#ffffff"
     bordercolor="#666666"
     borderopacity="1.0"
     inkscape:pageopacity="0.0"
     inkscape:pageshadow="2"
     inkscape:zoom="0.98994949"
     inkscape:cx="270.67466"
     inkscape:cy="159.1309"
     inkscape:document-units="px"
     inkscape:current-layer="layer1"
     showgrid="false"
     fit-margin-top="0"
     fit-margin-left="0"
     fit-margin-right="0"
     fit-margin-bottom="0"
     inkscape:window-width="1280"
     inkscape:window-height="949"
     inkscape:window-x="-9"
     inkscape:window-y="-9"
     inkscape:window-maximized="1" />
  <metadata
     id="metadata7">
    <rdf:RDF>
      <cc:Work
         rdf:about="">
        <dc:format>image/svg+xml</dc:format>
        <dc:type
           rdf:resource="http://purl.org/dc/dcmitype/StillImage" />
        <dc:title>Signature of Chandrika Kumaratunga</dc:title>
      </cc:Work>
    </rdf:RDF>
  </metadata>
  <g
     inkscape:label="Layer 1"
     inkscape:groupmode="layer"
     id="layer1"
     transform="translate(339.59148,-735.4627)">
    <path
       style="fill:#000000"
       d="m -337.41716,1097.091 c -1.9626,-2.0891 -2.17432,-3.3944 -2.17432,-13.4054 l 0,-11.091 3.5,-4.1892 c 1.925,-2.3041 3.5,-4.75 3.5,-5.4354 0,-0.6854 3.15,-4.4149 7,-8.2879 3.85,-3.873 7,-7.502 7,-8.0646 0,-0.5626 1.575,-2.908 3.5,-5.2121 1.925,-2.3041 3.5,-4.6546 3.5,-5.2234 0,-0.5688 1.575,-2.7775 3.5,-4.9083 1.925,-2.1307 3.5,-4.4473 3.5,-5.148 0,-0.7007 3.15,-4.3998 7,-8.2203 3.85,-3.8205 7,-7.5479 7,-8.283 0,-0.7352 2.25,-3.7157 5,-6.6235 2.75,-2.9077 5,-5.9782 5,-6.82333 0,-0.84513 3.15,-4.66793 7,-8.49511 3.85,-3.82717 7,-7.50666 7,-8.17663 0,-0.66997 2.19312,-3.55369 4.87361,-6.40827 2.68048,-2.85458 5.16798,-6.14648 5.52778,-7.31534 0.35979,-1.16886 2.21667,-3.73406 4.12639,-5.70044 1.90972,-1.96637 3.47222,-4.22804 3.47222,-5.02593 0,-0.79788 1.96671,-3.40769 4.37047,-5.79956 2.40376,-2.39188 5.16689,-5.92387 6.14029,-7.84887 0.9734,-1.925 2.86109,-4.85 4.19486,-6.5 9.09793,-11.25498 13.29438,-16.77522 13.29438,-17.48814 0,-0.45245 1.575,-2.70779 3.5,-5.01186 1.925,-2.30407 3.5,-4.66567 3.5,-5.24799 0,-0.58232 2.25,-3.43781 5,-6.34553 2.75,-2.90772 5,-5.91025 5,-6.67231 0,-0.76205 1.16776,-2.47648 2.59501,-3.80986 1.42726,-1.33337 3.28553,-3.77431 4.12948,-5.42431 0.84395,-1.65 3.7262,-5.33556 6.40499,-8.19014 2.67878,-2.85458 4.87052,-5.72504 4.87052,-6.3788 0,-0.65376 1.575,-2.932 3.5,-5.06274 2.1741,-2.40647 3.5,-4.89404 3.5,-6.56648 0,-1.48082 1.07843,-3.84203 2.3965,-5.24712 3.73737,-3.98411 11.59924,-19.75494 11.63894,-23.34758 0.0195,-1.76393 0.67854,-4.33214 1.46456,-5.70714 2.04838,-3.58326 2.02362,-25.72362 -0.0318,-28.44113 -0.80751,-1.06762 -1.4682,-2.66379 -1.4682,-3.54705 0,-1.73714 -6.93834,-9.01182 -8.59516,-9.01182 -0.55596,0 -2.88332,-1.37704 -5.17191,-3.06009 -5.69829,-4.19057 -12.93131,-7.93991 -15.31723,-7.93991 -3.10133,0 -3.22493,2.24375 -0.46713,8.47963 1.40329,3.17308 2.56574,7.62574 2.58323,9.8948 0.0175,2.26906 0.6925,4.99908 1.5,6.0667 1.12638,1.4892 1.4682,5.15691 1.4682,15.75362 0,11.90198 -0.27664,14.32864 -2,17.54407 -1.1,2.05236 -2,5.23749 -2,7.07807 0,2.34434 -1.04814,4.62563 -3.5,7.61781 -1.925,2.3492 -3.5,4.76923 -3.5,5.37782 0,0.6086 -1.22092,2.23865 -2.71316,3.62233 -1.49224,1.38368 -3.40474,3.93628 -4.25,5.67245 -1.7937,3.68427 -7.6721,6.45205 -11.60619,5.46465 -1.41068,-0.35406 -3.32217,-1.97474 -4.24776,-3.60152 -0.92559,-1.62678 -2.27716,-2.96063 -3.00348,-2.96411 -0.72633,-0.003 -3.45529,1.79368 -6.06436,3.99368 -2.60907,2.2 -5.4472,4 -6.30696,4 -0.85976,0 -2.1234,0.675 -2.80809,1.5 -0.88326,1.06426 -3.22049,1.5 -8.04572,1.5 -5.90897,0 -7.21652,-0.34978 -9.97065,-2.66723 -2.87059,-2.41544 -3.47453,-2.55704 -6.39772,-1.5 -4.06596,1.47027 -8.26211,1.50017 -9.14897,0.0652 -0.3746,-0.60612 -2.08866,-1.73526 -3.80902,-2.50919 -1.72035,-0.77394 -4.32459,-2.3604 -5.78718,-3.52547 l -2.65925,-2.11831 -6.42406,3.12959 c -5.81214,2.83148 -7.01188,3.06815 -12.59512,2.48459 -5.65025,-0.59057 -6.50826,-1.01083 -10.16668,-4.97975 -3.72859,-4.04505 -3.99563,-4.73287 -3.99563,-10.29199 0,-3.27648 0.39997,-7.00922 0.88881,-8.29497 1.29672,-3.41063 6.96095,-8.60056 10.15132,-9.30128 3.88819,-0.85399 19.18156,6.5052 20.77182,9.99543 0.66169,1.45225 1.98083,2.51338 3.1245,2.51338 2.32826,0 10.06355,-7.03233 10.06355,-9.149 0,-0.80227 1.575,-2.98522 3.5,-4.851 1.925,-1.86578 3.51431,-4.09156 3.5318,-4.94617 0.0175,-0.85461 0.65995,-2.38283 1.42769,-3.39606 0.76773,-1.01323 1.6886,-3.57483 2.04637,-5.69243 0.35776,-2.11761 1.29031,-4.38121 2.07231,-5.03022 0.78201,-0.649 1.42183,-2.25154 1.42183,-3.56119 0,-1.30965 0.9,-4.06038 2,-6.11275 2.67069,-4.98292 2.61074,-12.33183 -0.14844,-18.19546 -2.65139,-5.63458 -6.63039,-10.06572 -9.03865,-10.06572 -1.5469,0 -1.81291,0.87083 -1.81291,5.9349 0,7.32969 -0.88343,9.73879 -5.28125,14.40184 -2.83868,3.00987 -4.15568,3.66326 -7.38388,3.66326 -3.25258,0 -4.58774,-0.67464 -7.75556,-3.91878 -3.49012,-3.57421 -3.83983,-4.43152 -3.97713,-9.75 -0.19154,-7.41954 3.75922,-15.31396 10.70783,-21.39641 4.42304,-3.87169 5.34826,-4.24622 11.5,-4.65524 l 6.68999,-0.4448 7.75,7.64201 c 4.2625,4.20311 7.75,8.46018 7.75,9.46017 0,0.99999 0.675,2.37836 1.5,3.06305 1.1731,0.97359 1.5,3.73377 1.5,12.66527 0,11.15047 -0.0827,11.57357 -3.5,17.90264 -1.925,3.56524 -3.5,7.38593 -3.5,8.49042 0,1.10449 -1.2375,4.30367 -2.75,7.10929 -1.5125,2.80563 -3.38019,6.27817 -4.15042,7.71676 -0.77024,1.43859 -2.68274,4.09378 -4.25,5.90042 -1.56727,1.80663 -2.84958,3.92911 -2.84958,4.71662 0,0.7875 -2.02173,3.70818 -4.49274,6.4904 -3.97332,4.47375 -4.34906,5.29119 -3.25,7.07051 0.68351,1.10657 2.30766,2.28217 3.60923,2.61245 3.19485,0.81071 8.84536,-5.34146 10.72775,-11.68017 0.76221,-2.56663 2.34321,-5.5279 3.51334,-6.58061 1.17013,-1.0527 4.12846,-6.01995 6.57408,-11.03833 2.44561,-5.01839 5.76771,-10.39008 7.38245,-11.93709 1.61474,-1.54702 2.93589,-3.44252 2.93589,-4.21223 0,-0.7697 2.77133,-4.28551 6.15851,-7.8129 5.35606,-5.57779 6.63192,-6.41345 9.79179,-6.41345 2.9793,0 4.35447,0.76499 7.63988,4.25 2.20363,2.3375 4.77233,5.95277 5.70821,8.03393 2.12589,4.72742 2.35041,18.32364 0.35081,21.24356 -0.74295,1.08488 -1.67613,3.30807 -2.07375,4.94042 -0.39762,1.63236 -2.03975,4.75851 -3.64919,6.94701 -3.3426,4.54522 -3.55673,5.81176 -1.35483,8.01365 1.85956,1.85956 4.42857,2.07364 4.42857,0.36904 0,-0.66132 1.32718,-2.57382 2.94929,-4.25 4.48498,-4.6345 8.05071,-12.06287 8.05071,-16.77178 0,-2.50738 0.67955,-4.86924 1.73723,-6.03797 2.44047,-2.69668 3.20737,-22.64728 1.00006,-26.01606 -0.81642,-1.24601 -1.80148,-4.14224 -2.18902,-6.43607 -0.38754,-2.29383 -1.34444,-4.7016 -2.12644,-5.35061 -0.78201,-0.649 -1.42183,-2.31899 -1.42183,-3.71107 0,-7.18808 -9.5183,-19.22405 -15.20277,-19.22405 -1.32824,0 -3.28848,-0.66069 -4.3561,-1.4682 -1.06762,-0.8075 -3.06613,-1.48419 -4.44113,-1.50373 -1.375,-0.0195 -3.97338,-0.93386 -5.77417,-2.03181 -1.80079,-1.09794 -3.86979,-1.99626 -4.59778,-1.99626 -0.72798,0 -3.86711,-2.66659 -6.97583,-5.92576 -4.3298,-4.53935 -5.65222,-6.63679 -5.65222,-8.96482 0,-4.56261 2.49819,-5.38207 15.09335,-4.95097 l 10.82837,0.37063 11.88181,11.73546 c 6.535,6.4545 12.57251,11.73546 13.41669,11.73546 0.84419,0 2.09843,0.67903 2.78721,1.50895 0.68877,0.82992 3.05482,1.79718 5.25788,2.14947 2.2687,0.36278 5.41332,1.87654 7.25214,3.49105 1.78562,1.56779 4.3902,2.85053 5.78797,2.85053 1.39776,0 4.60475,1.575 7.12664,3.5 2.52188,1.925 5.03006,3.5 5.57371,3.5 1.614,0 9.00475,7.11966 10.60686,10.21781 0.81574,1.57746 2.58661,3.28764 3.93527,3.8004 1.92598,0.73226 2.4521,1.64754 2.4521,4.26591 0,1.83349 0.66069,4.20713 1.4682,5.27475 0.83635,1.10576 1.46819,4.0929 1.46819,6.94113 0,2.84823 -0.63184,5.83537 -1.46819,6.94113 -0.89035,1.17715 -1.4682,4.17428 -1.4682,7.61514 0,3.87264 -0.56367,6.43115 -1.77545,8.05887 -2.53947,3.41113 -6.22455,11.30049 -6.22455,13.32609 0,0.9472 -1.575,3.64426 -3.5,5.99347 -2.25718,2.75459 -3.5,5.32686 -3.5,7.24398 0,1.89244 -0.92545,3.84211 -2.54669,5.36518 -1.40068,1.31588 -3.91854,5.10682 -5.59525,8.42432 -1.67671,3.3175 -3.62747,6.70682 -4.33503,7.53182 -0.70756,0.825 -1.56169,2.4 -1.89807,3.5 -0.33638,1.1 -3.53961,4.85793 -7.11828,8.35095 -3.57867,3.49302 -6.50668,7.11724 -6.50668,8.05383 0,0.93659 -1.575,3.22944 -3.5,5.09522 -1.925,1.86578 -3.5,3.93648 -3.5,4.60155 0,0.66507 -1.575,3.09438 -3.5,5.39845 -1.925,2.30407 -3.5,4.66847 -3.5,5.2542 0,0.58574 -2.475,3.65975 -5.5,6.83115 -3.025,3.1714 -5.5,6.30754 -5.5,6.96921 0,0.66167 -1.575,2.94638 -3.5,5.07712 -1.925,2.13074 -3.5,4.3918 -3.5,5.02458 0,0.63277 -2.25,3.52954 -5,6.43726 -2.75,2.90772 -5,5.89311 -5,6.63421 0,0.7411 -2.25,3.56362 -5,6.27227 -2.75,2.70865 -5,5.6362 -5,6.50568 0,0.86947 -2.25,3.70444 -5,6.29994 -2.75,2.59549 -5,5.42193 -5,6.28097 0,0.85903 -2.475,4.15666 -5.5,7.32806 -3.025,3.1714 -5.5,6.29804 -5.5,6.94811 0,0.65006 -1.9125,3.25594 -4.25,5.79082 -2.3375,2.5349 -5.15,6.0592 -6.25,7.8318 -5.05606,8.1474 -8.78523,13.3898 -12.72837,17.8932 -2.3494,2.6832 -4.49663,5.4523 -4.77163,6.1535 -0.275,0.7013 -2.8625,3.8071 -5.75,6.9019 -2.8875,3.0947 -5.25,6.4407 -5.25,7.4355 0,0.9947 -2.25,3.8498 -5,6.3444 -2.75,2.4947 -5,5.3582 -5,6.3634 0,1.0051 -1.32613,3.1989 -2.94696,4.8751 -3.80044,3.9303 -11.05304,18.0342 -11.05304,21.4946 0,1.4689 0.66069,3.5443 1.4682,4.6119 1.79043,2.3671 1.96132,6.6116 0.3318,8.2411 -2.02627,2.0263 -7.24249,1.4224 -9.62568,-1.1144 z m 99.82568,-241.61393 c 0.825,-0.42307 2.16576,-1.94164 2.97947,-3.3746 1.35327,-2.38316 1.30194,-2.84317 -0.60177,-5.39298 -2.79957,-3.74971 -7.53977,-5.08312 -10.70274,-3.01066 -3.04791,1.99706 -6.96652,10.21262 -6.12931,12.85042 1.34869,4.24934 4.53855,4.01272 14.45435,-1.07218 z m -59.2,-3.27165 c 0.66,-0.66 1.2,-2.87734 1.2,-4.92742 0,-6.18785 -7.43989,-10.28984 -11.42857,-6.30115 -2.23738,2.23738 -2.11504,10.01257 0.17857,11.34847 2.41751,1.40807 8.59574,1.33436 10.05,-0.1199 z m 71.07963,-15.15496 c 0.61849,-0.74523 2.24859,-3.46905 3.62245,-6.05292 3.34915,-6.2989 3.62961,-18.46043 0.49792,-21.59212 -1.1,-1.1 -2.54353,-2 -3.20784,-2 -1.86413,0 -8.79216,7.19111 -8.79216,9.12602 0,0.94608 -1.26358,2.99225 -2.80796,4.54706 -1.54437,1.5548 -3.10675,3.61833 -3.47194,4.5856 -0.97122,2.57243 0.90006,6.64564 3.51197,7.64449 1.24736,0.47702 3.12517,1.81895 4.17292,2.98207 2.18025,2.42033 4.8377,2.73218 6.47464,0.7598 z m 5.52244,-82.48659 c 0.78694,-1.27329 -5.29245,-6.73327 -10.6871,-9.59823 -4.02227,-2.13612 -4.87699,-2.30158 -5.36188,-1.03798 -0.66419,1.73085 1.28338,4.47776 3.17474,4.47776 0.70562,0 3.1681,1.575 5.47217,3.5 4.15509,3.47148 6.40106,4.27812 7.40207,2.65845 z m 103.67051,271.20673 c -1.88531,-2.3968 -2.07258,-3.9759 -2.07258,-17.4759 0,-13.07158 0.238,-15.23129 1.99626,-18.11511 1.09795,-1.80079 1.99795,-4.48511 2,-5.96515 0.002,-1.48004 0.41862,-2.9474 0.9257,-3.26079 0.50708,-0.31339 2.32769,-3.37745 4.04579,-6.80902 1.71811,-3.43156 3.47644,-6.91421 3.90742,-7.73921 4.25338,-8.14206 5.12483,-10.17127 5.12483,-11.93342 0,-1.86394 3.679884,-9.37072 13.369784,-27.27376 1.99662,-3.68895 3.63022,-7.76544 3.63022,-9.05887 0,-1.29343 0.66069,-3.2252 1.4682,-4.29282 0.8075,-1.06762 1.48419,-3.06613 1.50373,-4.44113 0.0196,-1.375 0.85794,-3.85 1.86309,-5.5 1.00515,-1.65 2.1284,-5.19977 2.4961,-7.88837 0.3677,-2.6886 2.01862,-7.38102 3.66872,-10.42758 2.25887,-4.17057 3.00016,-6.84809 3.00016,-10.83655 0,-4.15271 0.75626,-6.69799 3.5,-11.77959 2.60573,-4.82602 3.50157,-7.70685 3.50616,-11.27509 0.003,-2.63605 0.7481,-6.14282 1.65492,-7.79282 1.31516,-2.39298 1.63964,-5.8002 1.60365,-16.8391 l -0.0451,-13.83911 -3.30597,-3.41089 c -5.79835,-5.98238 -6.48056,-5.06948 -6.06212,8.11202 l 0.36579,11.52293 -4.47708,4.47707 c -2.46241,2.4624 -5.22136,4.47708 -6.13101,4.47708 -2.05845,0 -10.60924,-7.75942 -10.60924,-9.62736 0,-2.00939 -3.34624,-1.67473 -6.27287,0.62736 -3.81325,2.9995 -7.149224,2.5169 -11.829344,-1.7113 -6.17142,-5.57551 -6.4987,-7.32264 -2.78488,-14.8665 3.3601,-6.82532 6.1346,-9.36804 15.003944,-13.75054 5.51281,-2.72397 5.62786,-2.86832 6.21111,-7.79297 0.64051,-5.4081 -0.0167,-10.62398 -1.59112,-12.62869 -0.53995,-0.6875 -2.86744,-1.25 -5.17219,-1.25 -3.28586,0 -4.770544,-0.60546 -6.877564,-2.80472 -3.56002,-3.71586 -3.39962,-5.09361 1.10507,-9.49233 3.164514,-3.09006 4.492724,-3.70295 8.024754,-3.70295 3.57259,0 4.37797,0.38237 5.16488,2.4521 0.51276,1.34866 2.30162,3.16022 3.97525,4.02568 l 3.04296,1.57358 0,11.27432 c 0,12.36412 0.51595,13.66075 5.45,13.69628 1.6775,0.0121 5.01164,0.91208 7.4092,2 2.39757,1.08792 5.32257,1.99235 6.5,2.00984 1.17744,0.0175 3.01431,0.6925 4.08193,1.5 2.96752,2.24453 4.30575,1.83909 10.00719,-3.0318 l 5.26731,-4.5 9.4479,0 c 10.61537,0 11.97737,0.62471 19.39018,8.89378 3.43514,3.83193 3.92655,4.9828 3.84294,9 -0.0527,2.53342 -0.27604,5.28122 -0.49626,6.10622 -0.22021,0.825 0.0496,1.725 0.59961,2 0.5674302,0.28371 1.2724002,-1.73174 1.6297202,-4.65923 0.34634,-2.83758 1.35884,-6.2002 2.25,-7.47251 0.89115,-1.2723 1.62028,-3.41521 1.62028,-4.76203 0,-1.34681 0.74579,-3.27283 1.6573,-4.28005 1.14479,-1.26498 1.68597,-3.7698 1.75,-8.09982 0.0824,-5.57274 -0.26804,-6.75979 -3.1573,-10.69445 -2.95904,-4.02967 -3.25,-5.07334 -3.25,-11.65748 0,-5.24082 0.43259,-7.66416 1.57143,-8.803 2.0494,-2.04941 2.15721,-2.03149 6.69441002,1.11279 5.07723998,3.51854 6.73415998,6.95784 6.73415998,13.97827 0,5.36611 0.27198,6.03911 3.9603498,9.79966 2.17819,2.22082 5.51102,7.18785 7.40629,11.03785 1.89527,3.85 4.14881,7.9 5.00785,9 1.49455,1.91375 1.56327,1.83841 1.59371,-1.74712 0.0242,-2.85163 0.86823,-4.67295 3.5318,-7.6212 1.925,-2.13074 3.5,-4.63491 3.5,-5.56481 0,-3.16288 4.91307,-12.09048 8.57658,-15.58458 2.00811,-1.91526 4.38738,-5.12539 5.28727,-7.13363 0.92814,-2.07129 6.09551,-7.80498 11.9413,-13.25 l 10.30515,-9.59866 5.69485,0.073 c 10.46599,0.13417 16.00681,1.37266 19.00898,4.24893 3.45626,3.3113 4.6355,3.33523 8.774756,0.17807 1.80272,-1.375 3.89668,-2.5 4.65326,-2.5 0.75657,0 2.2491,-0.66069 3.31672,-1.4682 2.94301,-2.22598 7.6946,-1.82336 13.39708,1.1352 6.93141,3.59614 11.04405,8.88256 11.04405,14.19611 0,2.24142 0.94885,5.89572 2.10856,8.12067 1.72868,3.31655 2.04127,5.37803 1.73504,11.44234 -0.26331,5.21421 -0.88552,7.96272 -2.10857,9.31417 -1.3212,1.45992 -1.73503,3.70129 -1.73503,9.39732 0,5.02891 -0.48112,8.11623 -1.4682,9.42126 -0.8075,1.06762 -1.4825,3.67312 -1.5,5.79 -0.0175,2.11688 -0.75634,5.37573 -1.6419,7.2419 -1.90251,4.00924 -1.21502,6.9681 1.36853,5.88997 0.95786,-0.39972 2.86657,-1.0799 4.24157,-1.51152 1.375,-0.43162 4.60494,-1.46765 7.17765,-2.30229 2.5727,-0.83464 5.58452,-1.28038 6.69293,-0.99052 1.10841,0.28985 3.46011,-0.19376 5.22599,-1.0747 1.76589,-0.88094 5.50407,-1.61602 8.30707,-1.63351 2.88626,-0.018 5.93815,-0.66851 7.03749,-1.5 1.0741,-0.81242 4.0627,-1.4682 6.69098,-1.4682 2.61242,0 5.02797,-0.45 5.36789,-1 0.33992,-0.55 2.96635,-1 5.83651,-1 3.09187,0 6.11903,-0.63077 7.42833,-1.54784 1.6327,-1.14359 4.30514,-1.48571 10.23246,-1.30995 5.16646,0.1532 8.44627,-0.18578 9.21265,-0.95216 0.65453,-0.65453 2.38091,-1.19005 3.83641,-1.19005 1.4555,0 4.08006,-0.71522 5.83237,-1.58939 2.34925,-1.17196 4.50606,-1.40783 8.21229,-0.89809 3.95344,0.54374 5.413,0.34132 6.83803,-0.94831 1.47641,-1.33614 3.91793,-1.61486 13.19134,-1.50594 6.25879,0.0735 14.07961,-0.1469 17.37961,-0.48981 11.13933,-1.15753 14.68352,3.587 7.88239,10.55199 -3.36708,3.44819 -4.32557,3.87955 -8.62052,3.87955 -2.73069,0 -5.88651,0.69079 -7.25641,1.58838 -2.72019,1.78233 -7.60136,1.20592 -9.53684,-1.1262 -1.93406,-2.33039 -7.89049,-2.94663 -11.37853,-1.1772 -4.1237,2.0919 -8.33105,2.83913 -19.09009,3.3904 -4.95,0.25363 -9.4275,0.88043 -9.95,1.39289 -0.5225,0.51245 -3.245,0.93173 -6.05,0.93173 -2.805,0 -5.618,0.518 -6.25112,1.15112 -1.39704,1.39704 -8.18192,2.77245 -18.24888,3.69935 -4.125,0.3798 -8.56397,1.2872 -9.86437,2.01643 -1.54739,0.86774 -3.84507,1.10384 -6.64953,0.68329 -3.53132,-0.52956 -5.41938,-0.10672 -10.73248,2.4036 -5.04824,2.38518 -7.80742,3.04621 -12.71513,3.04621 -11.80454,0 -18.66598,6.18641 -20.51865,18.5 -0.331,2.2 -1.20315,5.35 -1.93809,7 -2.81817,6.32697 -3.8729,10.23653 -4.58626,17 -0.52204,4.94948 -1.65478,8.67882 -3.8669,12.7311 -2.32163,4.25289 -3.12859,7.01873 -3.12859,10.72325 0,2.75251 -0.85641,6.91084 -1.90894,9.2689 -2.83436,6.35006 -4.44107,12.42226 -3.75797,14.2024 0.41091,1.0708 1.88852,1.57435 4.61975,1.57435 3.01744,0 4.82171,0.72025 7.25854,2.89756 3.15214,2.81644 3.24224,3.12212 3.21792,10.91706 -0.0168,5.39626 -0.56482,9.10973 -1.67524,11.35244 -0.90762,1.83312 -1.88642,4.48782 -2.17511,5.89934 -0.38465,1.88068 -1.85292,3.18842 -5.49516,4.89436 -6.61008,3.09599 -15.100086,2.35586 -19.316766,-1.68397 l -2.76702,-2.65097 0,-14.25221 0,-14.25221 3.49512,-6.8107 c 2.22624,-4.33813 3.50843,-8.26287 3.5318,-10.8107 0.0202,-2.2 0.69738,-4.87351 1.50488,-5.94113 0.80751,-1.06762 1.48347,-3.54262 1.50213,-5.5 0.0187,-1.95738 0.90339,-5.35887 1.96607,-7.55887 1.06268,-2.2 1.94741,-5.60149 1.96607,-7.55887 0.0187,-1.95738 0.694616,-4.43238 1.502126,-5.5 0.8075,-1.06762 1.4825,-2.98321 1.5,-4.25687 0.0175,-1.27366 0.5665,-3.29866 1.22002,-4.5 0.65352,-1.20134 1.73708,-4.88426 2.4079,-8.18426 1.33217,-6.55341 2.83125,-11.26337 5.15461,-16.19526 2.27316,-4.82534 1.18378,-6.30474 -4.64262,-6.30474 -3.76366,0 -5.63666,0.57387 -7.791836,2.38733 -1.87791,1.58015 -4.52419,2.54361 -7.82673,2.84954 -2.74425,0.25422 -6.56454,1.02238 -8.48954,1.70703 -1.925,0.68466 -4.85,1.72298 -6.5,2.3074 -1.65,0.58441 -5.46704,1.26465 -8.48232,1.51165 -3.01528,0.247 -6.3779,1.07638 -7.47251,1.84307 -1.0946,0.76669 -3.35255,1.40829 -5.01768,1.42578 -1.66512,0.0175 -3.901,0.6925 -4.96862,1.5 -1.06762,0.80751 -3.22747,1.4682 -4.79966,1.4682 -1.57219,0 -4.15438,0.67011 -5.7382,1.48913 -1.689,0.87342 -4.07333,1.25041 -5.76658,0.91176 -2.61582,-0.52317 -12.08735,3.09773 -20.75443,7.93426 -1.1,0.61384 -5.8249998,1.15796 -10.4999998,1.20916 -5.94911,0.0652 -9.40031,0.596 -11.5,1.76888 -2.1720702,1.21331 -4.2620902,1.51024 -7.5731902,1.07592 -5.13374,-0.67339 -7.92169,1.05992 -7.9334,4.93232 -0.004,1.19821 -0.90066,3.52857 -1.99341,5.17857 -1.09275,1.65 -1.98979,4.15331 -1.99341,5.56291 -0.004,1.51791 -1.19193,3.69853 -2.9137,5.3481 -1.61212,1.5445 -3.20479,4.37191 -3.57535,6.34718 -0.36753,1.9591 -1.98433,6.0283 -3.59289,9.04267 -1.60856,3.01437 -2.92465,6.88341 -2.92465,8.59787 0,3.4254 -3.95485,11.67991 -7.47479,15.60127 -1.23425,1.375 -2.89955,3.85 -3.70068,5.5 -0.80113,1.65 -2.05933,4.125 -2.79599,5.5 -2.12056,3.95807 -2.64757,4.9628 -7.72773,14.73255 -7.64351,14.69939 -8.04709,15.38932 -10.61569,18.14751 -1.34192,1.44097 -5.23319,8.32222 -8.64726,15.29167 -3.41407,6.96945 -7.11532,13.49335 -8.22501,14.49765 -1.10968,1.0042 -2.6996,3.1447 -3.53314,4.7566 -0.83355,1.6119 -3.14997,4.5064 -5.14762,6.4322 -7.327284,7.0637 -13.221424,12.1418 -14.092894,12.1418 -0.49172,0 -1.8267,-1.1857 -2.96662,-2.6348 z m 11.62981,-16.5614 c 1.81369,-1.7578 3.29761,-3.8098 3.29761,-4.5598 0,-0.75 2.169994,-3.6993 4.822204,-6.55384 2.65541,-2.85802 6.93995,-9.37798 9.53527,-14.51019 5.82829,-11.52538 6.73619,-13.29322 7.79581,-15.17995 0.46334,-0.825 2.22153,-4.2 3.90708,-7.5 1.68555,-3.3 6.37285,-12.3 10.41622,-20 12.38912,-23.59325 15.52342,-30.00629 15.52342,-31.76225 0,-0.92817 1.575,-4.6046 3.5,-8.16984 1.925,-3.56525 3.50277,-7.28904 3.50616,-8.27509 0.003,-0.98605 0.67839,-3.08176 1.5,-4.65713 0.82161,-1.57537 1.49384,-3.61772 1.49384,-4.53856 0,-0.92083 0.9,-3.43954 2,-5.59713 1.42393,-2.79295 2,-5.89718 2,-10.77718 0,-7.06233 1.13464,-10.72282 3.32374,-10.72282 0.68936,0 3.01867,0.9 5.17626,2 4.63093,2.36098 12.28319,2.63122 15.05887,0.5318 1.0948,-0.82806 4.1468002,-1.48206 7.0000002,-1.5 2.8532,-0.0179 5.90520002,-0.67193 7,-1.5 1.20567,-0.91192 4.27843,-1.48024 8.1100898,-1.5 3.71556,-0.0191 7.49372,-0.69742 9.5,-1.70546 1.83207,-0.92052 4.52547,-2.27052 5.98533,-3 1.45986,-0.72949 4.60986,-1.34229 7,-1.36178 2.39014,-0.0195 5.47071,-0.67854 6.84571,-1.46456 1.375,-0.78602 3.85,-1.45939 5.5,-1.49637 1.65,-0.037 3.87351,-0.72793 4.94113,-1.53543 1.06762,-0.80751 3.31762,-1.48251 5,-1.5 1.68238,-0.0175 3.93238,-0.6925 5,-1.5 1.06762,-0.80751 4.05368,-1.4682 6.63569,-1.4682 2.58201,0 5.9835,-0.67223 7.55887,-1.49384 1.57537,-0.82161 4.55402,-1.49661 6.61921,-1.5 2.0652,-0.003 6.08692,-1.13116 8.93716,-2.50616 3.08403,-1.48778 7.02968,-2.52321 9.74509,-2.55733 6.973036,-0.0876 13.882686,-4.2792 17.239956,-10.45822 1.609,-2.96133 2.73149,-6.61915 2.76556,-9.01194 0.0315,-2.21513 0.72334,-4.97836 1.53735,-6.14053 1.17914,-1.68345 1.51449,-6.41703 1.64955,-23.28373 0.15678,-19.57985 0.023,-21.36693 -1.78021,-23.78214 -3.51187,-4.70377 -4.64388,-4.90853 -11.52688,-2.08502 -6.61041,2.7117 -7.11811,3.27559 -12.441736,13.81891 -4.23351,8.38438 -6.01006,10 -10.99604,10 -2.34666,0 -4.56322,-0.47984 -4.92568,-1.06631 -1.46453,-2.36966 -0.45403,-7.74702 2.48185,-13.20717 3.38999,-6.3047 3.26745,-7.33255 -1.39399,-11.69306 -2.19865,-2.0567 -2.92007,-2.2623 -4.34182,-1.23739 -0.93778,0.67603 -3.50506,2.08971 -5.70506,3.14151 -5.48964,2.62454 -13.74842,10.53394 -13.32034,12.75683 0.18688,0.97034 1.6854,2.16646 3.33006,2.65804 8.09916,2.42079 11.42709,4.71626 13.44229,9.27196 3.76973,8.5221 3.22721,13.5635 -1.99412,18.53043 -2.22316,2.11484 -4.6371,3.84516 -5.36431,3.84516 -1.99678,0 -19.10374,8.70485 -20.56343,10.46368 -0.96481,1.16252 -3.35502,1.53632 -9.82385,1.53632 -9.48565,0 -12.11466,-1.25985 -12.3223,-5.90499 -0.0918,-2.05305 -0.22037,-2.18354 -0.61574,-0.62479 -0.93818,3.69882 -6.45599,12.52978 -7.82892,12.52978 -0.75336,0 -2.90731,1.35 -4.78656,3 -1.87924,1.65 -4.5529598,3 -5.9415798,3 -1.38862,0 -5.53365998,1.35 -9.2112,3 -6.41668,2.87897 -7.2598102,3 -20.8989402,3 -13.58972,0 -14.36099,-0.10955 -17.60106,-2.5 -1.86371,-1.375 -3.92365,-2.5 -4.57765,-2.5 -1.56477,0 -2.39189,3.31281 -2.4087,9.64738 -0.01,3.76699 -0.86667,6.85096 -3.19452,11.5 -2.15292,4.29966 -3.32611,8.29162 -3.63027,12.35262 -0.24717,3.3 -1.06578,6.88763 -1.81913,7.97251 -0.75335,1.08487 -1.37961,3.33487 -1.39169,5 -0.0121,1.66512 -0.91208,4.98913 -2,7.38669 -1.08792,2.39757 -1.97804,5.2637 -1.97804,6.36919 0,1.1055 -1.575,4.60272 -3.5,7.77161 -2.51376,4.13809 -3.5,6.93226 -3.5,9.91599 0,2.28491 -0.62622,5.15104 -1.3916,6.36919 -0.76538,1.21815 -1.69838,4.38848 -2.07332,7.04517 -0.37495,2.65669 -1.91658,6.93169 -3.42586,9.5 -1.50927,2.56831 -3.99601,7.32384 -5.52608,10.56786 -1.53008,3.24401 -4.02816,6.94681 -5.55129,8.22845 -1.71843,1.44596 -3.01895,3.76148 -3.42709,6.10179 -0.36177,2.07435 -1.65833,5.67912 -2.88126,8.01059 -1.22292,2.33147 -3.66748,7.13096 -5.43233,10.66554 -1.764864,3.53458 -3.677364,6.71607 -4.250004,7.06998 -0.57265,0.35391 -1.04117,2.04398 -1.04117,3.75572 0,1.71173 -0.72095,3.90888 -1.60212,4.88256 -0.88117,0.97368 -1.92457,4.50501 -2.31867,7.84741 -0.3941,3.34239 -1.24814,6.60863 -1.89788,7.25843 -2.45461,2.4546 -1.29188,8.1679 1.77106,8.7024 0.24882,0.043 1.93632,-1.3594 3.75,-3.1173 z m 206.62662,-61.44382 c 0.32203,-1.98441 1.31139,-4.41011 2.19858,-5.39045 0.99347,-1.09777 1.49003,-3.06674 1.29274,-5.12597 -0.29273,-3.05545 -0.6063,-3.34354 -3.63936,-3.34354 -3.126306,0 -3.429266,0.31937 -5.217356,5.5 -2.40928,6.98041 -2.40212,7.57542 0.13399,11.13707 2.5438,3.57244 4.357236,2.60977 5.231406,-2.77711 z M -76.591476,819.14597 c 0,-2.15067 -0.66458,-3.67449 -1.95364,-4.47952 -2.78999,-1.74238 -3.36593,9.6e-4 -1.37772,4.17029 2.11893,4.44343 3.33136,4.55598 3.33136,0.30923 z m 52.68555,1.08514 c 1.78458,-1.67653 2.31445,-3.25376 2.31445,-6.88922 0,-5.65906 -1.65234,-7.93021 -8.30935,-11.42123 -3.69227,-1.93627 -5.25066,-2.2859 -6.70935,-1.50523 -2.44232,1.30709 -6.9813,7.24401 -6.9813,9.13143 0,3.06096 11.64763,12.36998 15.93555,12.73602 0.78955,0.0674 2.47705,-0.8559 3.75,-2.05177 z m 28.8144502,-3.82569 c 0.99549,-1.1 2.38309,-2 3.08356,-2 4.7484098,0 6.1713898,-10.00269 1.98277,-13.93769 l -2.43368,-2.28632 -0.70896,3.86201 c -0.38992,2.1241 -1.98894,6.27691 -3.55336,9.22847 -2.63112998,4.9641 -2.92499998,7.13353 -0.9663,7.13353 0.4323,0 1.60048,-0.9 2.59597,-2 z m -99.7000002,-2.2 c 1.65508,-1.65508 1.50561,-3.8 -0.26482,-3.8 -1.27987,0 -3.53518,2.82889 -3.53518,4.43426 0,1.02118 2.57423,0.59151 3.8,-0.63426 z m 143.16211,-15.38271 c 2.45416,-0.85448 6.38161,-3.32293 8.72766,-5.48545 2.34605,-2.16251 4.8955,-3.93184 5.66544,-3.93184 0.76995,0 1.9601,-0.675 2.64479,-1.5 2.30449,-2.77674 -0.52534,-4.5 -7.38962,-4.5 -5.8693,0 -6.37929,0.20518 -11.37756,4.57755 -4.64304,4.06162 -5.23282,5.01964 -5.23282,8.5 0,4.447 0.46298,4.60259 6.96211,2.33974 z M 279.09561,828.6007 c -3.7502,-3.91437 -3.44915,-7.04526 1.10507,-11.49233 2.08569,-2.03662 4.28333,-3.70295 4.88364,-3.70295 2.21127,0 8.3242,7.95203 8.3242,10.82857 0,6.83004 -9.24936,9.65192 -14.31291,4.36671 z m -73.90202,-25.14971 c -1.43029,-1.12506 -3.13092,-2.04557 -3.77918,-2.04557 -0.64825,0 -3.55672,-2.475 -6.46326,-5.5 -4.85483,-5.05269 -5.64691,-5.5 -9.73931,-5.5 -3.4587,0 -4.9798,0.55895 -6.80332,2.5 -2.94674,3.13666 -7.91574,3.35557 -10.53257,0.46402 -1.01339,-1.1198 -2.09564,-3.9323 -2.40498,-6.25 -0.65648,-4.91854 -2.85322,-5.63754 -4.80194,-1.57168 -0.69654,1.45328 -2.31296,2.90499 -3.59203,3.22602 -1.27908,0.32103 -2.8431,1.71948 -3.4756,3.10766 -1.01987,2.23837 -1.75218,2.52398 -6.47144,2.52398 -2.92679,0 -5.86144,-0.54 -6.52144,-1.2 -2.12047,-2.12047 -1.44675,-8.21956 1.18061,-10.68784 1.30933,-1.23005 3.81227,-5.246 5.56207,-8.92431 4.91328,-10.32835 6.52264,-12.66068 8.98458,-13.02073 3.98932,-0.58342 6.83465,0.713 7.85031,3.57685 0.53758,1.51582 2.76292,4.78103 4.9452,7.25603 2.18227,2.475 4.50323,5.5125 5.15768,6.75 1.5209,2.87586 2.6398,2.83147 6.30192,-0.25 1.69398,-1.42539 4.23414,-2.5 5.9095,-2.5 4.00488,0 12.46774,4.95255 17.86634,10.45557 2.45201,2.49943 5.00939,4.54443 5.68305,4.54443 0.67366,0 2.86242,1.99845 4.86391,4.441 2.65208,3.23652 3.5517,5.20285 3.31695,7.25 -0.30038,2.6194 -0.66347,2.82895 -5.37932,3.10457 -3.88896,0.2273 -5.65795,-0.17697 -7.65773,-1.75 z"
       id="path2998"
       inkscape:connector-curvature="0" />
  </g>
</svg>
