<?xml version="1.0" encoding="UTF-8" standalone="no"?>
<!-- Created with Inkscape (http://www.inkscape.org/) -->

<svg
   xmlns:dc="http://purl.org/dc/elements/1.1/"
   xmlns:cc="http://creativecommons.org/ns#"
   xmlns:rdf="http://www.w3.org/1999/02/22-rdf-syntax-ns#"
   xmlns:svg="http://www.w3.org/2000/svg"
   xmlns="http://www.w3.org/2000/svg"
   xmlns:sodipodi="http://sodipodi.sourceforge.net/DTD/sodipodi-0.dtd"
   xmlns:inkscape="http://www.inkscape.org/namespaces/inkscape"
   width="414.94028"
   height="75.792374"
   id="svg2"
   version="1.1"
   inkscape:version="0.48.4 r9939"
   sodipodi:docname="New document 1">
  <title
     id="title3034">Signature of Nathan Deal</title>
  <defs
     id="defs4" />
  <sodipodi:namedview
     id="base"
     pagecolor="#ffffff"
     bordercolor="#666666"
     borderopacity="1.0"
     inkscape:pageopacity="0.0"
     inkscape:pageshadow="2"
     inkscape:zoom="1.4"
     inkscape:cx="508.54091"
     inkscape:cy="-18.415165"
     inkscape:document-units="px"
     inkscape:current-layer="layer1"
     showgrid="false"
     fit-margin-top="0"
     fit-margin-left="0"
     fit-margin-right="0"
     fit-margin-bottom="0"
     inkscape:window-width="1920"
     inkscape:window-height="1005"
     inkscape:window-x="-9"
     inkscape:window-y="-9"
     inkscape:window-maximized="1" />
  <metadata
     id="metadata7">
    <rdf:RDF>
      <cc:Work
         rdf:about="">
        <dc:format>image/svg+xml</dc:format>
        <dc:type
           rdf:resource="http://purl.org/dc/dcmitype/StillImage" />
        <dc:title>Signature of Nathan Deal</dc:title>
      </cc:Work>
    </rdf:RDF>
  </metadata>
  <g
     inkscape:label="Layer 1"
     inkscape:groupmode="layer"
     id="layer1"
     transform="translate(-100.85917,-814.43363)">
    <path
       style="fill:#000000"
       d="m 118.10793,888.52357 c -1.71922,-1.89971 -2.45354,-4.20308 -10.57558,-33.17295 -2.69848,-9.625 -5.40708,-18.79694 -6.0191,-20.38208 -1.24563,-3.22618 -0.66877,-6.17104 1.36142,-6.9501 2.25813,-0.86652 5.45943,2.18997 6.15018,5.87197 0.35931,1.91526 1.05961,3.73342 1.55623,4.04035 0.49663,0.30693 0.68976,0.90302 0.42918,1.32464 -0.26058,0.42162 -0.14307,2.00313 0.26112,3.51447 l 0.7349,2.74788 3.24208,-5.00337 c 3.02047,-4.66138 14.09245,-13.91876 18.56014,-15.5183 4.22321,-1.51201 9.43085,1.26956 17.40311,9.29555 8.61314,8.6712 8.69649,8.80897 16.84264,27.83884 3.12661,7.30392 6.08974,13.53016 6.58475,13.83609 1.59972,0.98868 3.81241,-1.78008 3.81241,-4.7705 0,-4.64945 2.61297,-9.63906 6.18982,-11.81981 3.86784,-2.35815 9.05525,-2.64019 10.76085,-0.58507 0.65756,0.79231 1.76349,1.22262 2.45764,0.95625 0.69414,-0.26637 2.30552,0.36063 3.58083,1.39331 1.78411,1.44469 2.42622,3.1734 2.78479,7.49734 0.52843,6.37217 2.74198,9.31835 6.18105,8.22683 3.88148,-1.23193 4.87154,-4.31352 4.3007,-13.38604 l -0.52675,-8.37175 -5.2463,0.61659 c -5.86172,0.68894 -7.87949,-0.56517 -7.30939,-4.54302 0.48244,-3.36627 4.40206,-4.9548 10.45587,-4.23754 3.28071,0.38871 5.37412,0.21125 5.80901,-0.49241 0.8494,-1.37436 5.56188,-1.45919 5.56188,-0.10012 0,0.55 2.40277,1 5.33948,1 4.79205,0 5.46204,0.26898 6.53483,2.62348 1.12864,2.47711 1.29837,2.53022 3.04224,0.95204 3.14558,-2.84671 8.86469,-3.94888 11.50699,-2.21758 2.69201,1.76388 5.57646,7.42067 5.57646,10.9362 0,1.37053 0.66202,2.74592 1.47117,3.05642 0.80914,0.3105 3.11799,2.8568 5.13077,5.65845 l 3.65961,5.09391 2.35204,-2.20963 c 1.29362,-1.21529 2.59269,-2.96785 2.88682,-3.89457 0.99761,-3.14321 9.00551,-8 13.16307,-7.98341 2.11008,0.008 4.33165,0.34592 4.93682,0.75 2.04426,1.36499 3.27956,4.85678 3.22093,9.10455 -0.0321,2.32451 0.25721,4.54191 0.64287,4.92757 1.09809,1.09809 6.54308,-5.58332 7.19126,-8.82421 0.97461,-4.87309 6.77417,-5.09432 7.9764,-0.30428 l 0.61449,2.44835 2.40422,-2.25865 c 2.7793,-2.61102 8.24094,-3.02358 10.89271,-0.8228 0.95154,0.78971 2.60061,3.46671 3.6646,5.94889 1.06399,2.48218 3.0275,5.94603 4.36337,7.69744 3.02187,3.96188 3.06851,5.90512 0.17885,7.45163 -1.2375,0.66229 -2.31526,1.24062 -2.39501,1.28518 -0.85215,0.4761 -5.18021,-5.1195 -7.47873,-9.66898 -1.59778,-3.1625 -3.30843,-5.75 -3.80145,-5.75 -0.49302,0 -1.88419,2.04051 -3.09149,4.53446 -2.32799,4.80899 -4.4987,7.46554 -6.1002,7.46554 -0.53572,0 -2.11141,-1.13738 -3.50153,-2.5275 l -2.52751,-2.52751 -3.00376,2.52751 c -3.21773,2.70753 -5.82583,3.14616 -8.90587,1.49777 -1.4034,-0.75108 -2.5357,-0.64874 -4.18426,0.37815 -4.01174,2.49893 -8.2325,2.70501 -12.35499,0.60325 -2.10544,-1.07342 -5.1725,-1.95167 -6.81568,-1.95167 -2.28995,0 -4.07666,-1.15999 -7.65134,-4.96751 l -4.66374,-4.9675 -1.69707,3.7175 c -3.82494,8.37867 -6.64392,10.09063 -16.18678,9.83018 -6.90472,-0.18844 -7.75107,-0.49581 -13.98591,-5.07921 -0.92027,-0.6765 -2.00343,-0.32141 -3.60974,1.18339 -2.22196,2.08156 -7.2515,4.59152 -9.29494,4.6386 -0.55,0.0127 -2.66209,-0.70355 -4.69354,-1.59159 -3.42894,-1.49896 -4.03785,-1.48956 -8.5,0.13114 -5.65653,2.05452 -5.81343,2.05042 -10.15915,-0.2657 -2.78353,-1.48352 -3.83457,-1.58727 -6.19119,-0.61112 -2.16193,0.8955 -3.67664,0.89913 -6.35485,0.0153 -3.89112,-1.28419 -4.56736,-2.43507 -13.42788,-22.85258 -2.70168,-6.22553 -5.8797,-12.52553 -7.06228,-14 -4.88155,-6.08645 -13.53063,-14.18085 -15.1526,-14.18085 -3.10078,0 -13.67657,8.66277 -16.53919,13.54745 -3.83157,6.53809 -4.07871,11.98131 -1.1102,24.45255 4.00222,16.81409 4.00417,16.82956 2.34032,18.49342 -1.89657,1.89657 -1.99358,1.88878 -3.99292,-0.32047 z m 76.24985,-12.09392 c 1.18308,-0.74899 1.20304,-1.61659 0.12575,-5.46431 l -1.28063,-4.57396 -2.87574,2.04772 c -5.78949,4.12247 -1.93369,11.76644 4.03062,7.99055 z m 38.53878,-0.82903 c -1.8911,-4.30449 -1.46771,-12.45085 0.94849,-18.25 0.48613,-1.16675 -0.27053,-1.56126 -3.40584,-1.77574 -4.58118,-0.31339 -4.5693,-0.33179 -5.44986,8.44482 -0.5909,5.88955 -0.47648,6.33132 2.52515,9.75 3.33985,3.80387 6.76,4.96737 5.38206,1.83092 z m 48.2404,-0.42431 c 2.11736,-1.98916 3.26467,-6.82569 1.61917,-6.82569 -1.50055,0 -6.30472,5.47654 -6.30472,7.18709 0,2.43129 1.86608,2.28735 4.68555,-0.3614 z m -36.5541,-4.01029 c 2.80742,-3.94267 4.02791,-14.8154 1.66305,-14.8154 -2.91316,0 -6.0659,4.76908 -6.56133,9.92518 -0.81405,8.47196 1.03405,10.31702 4.89828,4.89022 z m 205.72245,13.05695 c -1.45536,-0.53336 -2.89102,-1.90628 -3.19035,-3.05093 -0.40305,-1.54125 -1.01373,-1.89126 -2.35389,-1.34911 -2.9155,1.17944 -13.80198,1.84551 -17.82575,1.09065 -5.34319,-1.00239 -8.48391,-4.52468 -8.48391,-9.51463 0,-3.26464 0.72163,-4.84369 3.75,-8.20566 4.50136,-4.99723 11.28228,-8.3007 15.08887,-7.35086 3.4593,0.86317 6.16113,3.34283 6.16113,5.65448 0,2.40631 -5.0541,7.17095 -10.3134,9.72271 l -4.1866,2.03131 4.5,0.0279 c 6.04239,0.0374 12.29459,-2.97093 18.63322,-8.96575 4.439,-4.19822 5.84544,-4.96244 9.13261,-4.96244 5.28976,0 7.9625,2.99102 8.9727,10.04122 0.63365,4.4223 1.17042,5.51461 2.82699,5.7528 3.91368,0.56274 5.77773,-3.09903 5.88868,-11.56778 0.10468,-7.98974 1.12164,-10.87513 5.79978,-16.45544 1.25839,-1.50105 3.7112,-3.01384 5.45071,-3.36174 2.55813,-0.51162 3.65332,-0.14196 5.72902,1.93374 2.08348,2.08348 2.56629,3.52485 2.56629,7.6614 0,5.45416 -1.56975,9.32665 -6.13701,15.1397 -1.57465,2.00415 -2.86299,3.93961 -2.86299,4.30103 0,0.36142 1.46436,1.26897 3.25413,2.01678 3.41372,1.42635 7.27844,1.0541 15.59889,-1.50249 4.16808,-1.2807 4.42921,-1.23652 6.14635,1.03995 0.98633,1.3076 1.56039,2.98449 1.2757,3.7264 -0.74861,1.95083 -5.91049,3.86356 -14.19989,5.26175 -6.33075,1.06782 -7.79551,1.0093 -11.65783,-0.46574 -2.42954,-0.92785 -4.41735,-2.09978 -4.41735,-2.60429 0,-1.65068 -2.15348,-0.96594 -5.30679,1.6874 -2.53078,2.12951 -3.80269,2.50984 -6.97197,2.08475 -2.13206,-0.28597 -4.70777,-1.27226 -5.72379,-2.19175 -1.73706,-1.57202 -2.07457,-1.51739 -5.65452,0.91525 -3.97663,2.70219 -7.03714,3.09096 -11.48903,1.45941 z m 8.34138,-9.55944 c 1.5426,-1.4779 2.80472,-3.52209 2.80472,-4.54263 0,-1.6289 -0.42751,-1.51443 -3.49997,0.93709 -1.92498,1.53595 -3.49998,3.58013 -3.5,4.54263 -4e-5,2.4062 0.92015,2.20065 4.19525,-0.93709 z M 490.42917,856.132 c 0.0312,-2.40809 -2.63388,-1.19039 -3.36556,1.53779 -0.32169,1.19946 -0.58103,2.85583 -0.57631,3.68083 0.0122,2.13605 3.91354,-3.02888 3.94187,-5.21862 z m -127.47776,24.55549 c -1.1,-0.23711 -3.6875,-1.15326 -5.75,-2.03587 -4.90175,-2.09762 -5.2808,-5.89691 -0.75863,-7.60384 2.28515,-0.86255 3.3435,-2.19953 4.4829,-5.66314 1.88751,-5.73777 3.17339,-19.03402 1.84077,-19.03402 -2.10974,0 -10.4686,-6.39627 -11.8501,-9.0678 -1.90203,-3.67812 -1.86929,-10.27785 0.0713,-14.36729 2.45643,-5.17654 8.17561,-7.74256 18.57878,-8.33572 25.22455,-1.43824 43.40308,7.80512 48.54326,24.6831 2.608,8.56345 -2.13926,24.83668 -9.45834,32.42244 -4.84431,5.02083 -9.53081,7.35105 -17.32915,8.61643 -6.19795,1.00569 -24.34983,1.25247 -28.37077,0.38571 z m 31.36469,-9.4186 c 7.56858,-1.69615 12.94351,-8.65521 15.62915,-20.23548 1.30546,-5.62905 1.30766,-6.98821 0.0183,-11.32997 -3.62713,-12.21385 -18.27375,-17.94704 -41.45307,-16.22614 -7.09202,0.52653 -8.73003,0.9837 -10.25,2.86078 -4.54975,5.61871 -0.13679,10.42393 12.78706,13.9237 10.79258,2.92262 13.30719,4.81084 11.54815,8.67152 -1.04492,2.29335 -1.66621,2.59173 -4.42983,2.12747 -1.76795,-0.297 -3.93741,-0.82666 -4.82103,-1.17703 -1.34289,-0.53247 -1.71896,0.45985 -2.29126,6.04578 -0.37657,3.67555 -1.34111,8.25389 -2.14342,10.17408 -0.80231,1.9202 -1.45874,4.40397 -1.45874,5.51949 0,1.95667 0.39274,2.00436 11.13458,1.35195 6.12402,-0.37195 13.20257,-1.13971 15.73011,-1.70615 z"
       id="path3031"
       inkscape:connector-curvature="0" />
  </g>
</svg>
