<?xml version="1.0" encoding="UTF-8" standalone="no"?>
<!-- Created with Inkscape (http://www.inkscape.org/) -->

<svg
   xmlns:dc="http://purl.org/dc/elements/1.1/"
   xmlns:cc="http://creativecommons.org/ns#"
   xmlns:rdf="http://www.w3.org/1999/02/22-rdf-syntax-ns#"
   xmlns:svg="http://www.w3.org/2000/svg"
   xmlns="http://www.w3.org/2000/svg"
   xmlns:sodipodi="http://sodipodi.sourceforge.net/DTD/sodipodi-0.dtd"
   xmlns:inkscape="http://www.inkscape.org/namespaces/inkscape"
   id="svg2"
   version="1.1"
   inkscape:version="0.47 r22583"
   width="416"
   height="168"
   sodipodi:docname="Iliasignature1.jpg">
  <metadata
     id="metadata8">
    <rdf:RDF>
      <cc:Work
         rdf:about="">
        <dc:format>image/svg+xml</dc:format>
        <dc:type
           rdf:resource="http://purl.org/dc/dcmitype/StillImage" />
        <dc:title></dc:title>
      </cc:Work>
    </rdf:RDF>
  </metadata>
  <defs
     id="defs6">
    <inkscape:perspective
       sodipodi:type="inkscape:persp3d"
       inkscape:vp_x="0 : 0.5 : 1"
       inkscape:vp_y="0 : 1000 : 0"
       inkscape:vp_z="1 : 0.5 : 1"
       inkscape:persp3d-origin="0.5 : 0.33333333 : 1"
       id="perspective10" />
  </defs>
  <sodipodi:namedview
     pagecolor="#ffffff"
     bordercolor="#666666"
     borderopacity="1"
     objecttolerance="10"
     gridtolerance="10"
     guidetolerance="10"
     inkscape:pageopacity="0"
     inkscape:pageshadow="2"
     inkscape:window-width="1366"
     inkscape:window-height="718"
     id="namedview4"
     showgrid="false"
     inkscape:zoom="0.917879"
     inkscape:cx="173.66384"
     inkscape:cy="57.104516"
     inkscape:window-x="-8"
     inkscape:window-y="-8"
     inkscape:window-maximized="1"
     inkscape:current-layer="svg2" />
  <rect
     style="fill:#f2f2f2;fill-opacity:1;fill-rule:nonzero;stroke:#be0000;stroke-width:2.70000004999999990;stroke-linecap:round;stroke-linejoin:round;stroke-miterlimit:4;stroke-opacity:1;stroke-dasharray:none;stroke-dashoffset:0"
     id="rect3614"
     width="471.73975"
     height="199.37268"
     x="-11.984151"
     y="-10.672789" />
  <path
     style="fill:none;stroke:#000000;stroke-width:2.7;stroke-linecap:round;stroke-linejoin:round;stroke-opacity:1;stroke-miterlimit:4;stroke-dasharray:none"
     d="m 132.09802,44.89009 c -10.2372,2.641032 -36.000978,1.513805 -55.190165,0.06181 -7.132184,-0.539675 -11.90257,18.674927 -10.655373,21.084147 0.686698,1.3265 5.239014,-4.273022 5.950683,-6.863514 0.614582,-2.237092 -4.724529,-2.532938 -5.872883,-2.260719 -6.34189,1.503353 -9.51019,7.802208 -13.76103,7.873033 -2.914421,0.04856 8.287125,-10.708028 11.528365,-17.532642 2.038557,-4.292299 -2.107396,-6.233733 -3.617607,-5.507349 -6.441128,3.098062 -8.879388,9.93557 -16.760247,19.219172 2.335306,-6.372515 6.996681,-14.616922 6.940508,-19.069972"
     id="path2818"
     sodipodi:nodetypes="cssssssscc" />
  <path
     style="fill:none;stroke:#000000;stroke-width:2.7;stroke-linecap:round;stroke-linejoin:round;stroke-opacity:1;stroke-miterlimit:4;stroke-dasharray:none"
     d="m 131.4171,57.555158 c 13.38536,-21.394447 20.53833,-16.859762 7.08155,1.770386"
     id="path2820"
     sodipodi:nodetypes="cc" />
  <path
     style="fill:none;stroke:#000000;stroke-width:2.7;stroke-linecap:round;stroke-linejoin:round;stroke-opacity:1;stroke-miterlimit:4;stroke-dasharray:none"
     d="m 154.29594,48.294679 c 9.62613,6.335443 9.47471,-2.63309 11.16705,-8.715746"
     id="path2822"
     sodipodi:nodetypes="cc" />
  <path
     style="fill:none;stroke:#000000;stroke-width:2.7;stroke-linecap:butt;stroke-linejoin:miter;stroke-opacity:1;stroke-miterlimit:4;stroke-dasharray:none"
     d="M 215.16997,28.548067 C 226.27705,20.14684 249.41459,-0.24792849 243.37732,7.3892667 233.18385,20.284074 224.2244,30.914208 216.53759,39.913 c -1.57594,1.380425 -4.02167,-2.643157 -7.07346,-2.293225 -5.13043,0.588277 -9.50851,6.288269 -11.09668,8.571597 -3.08891,4.440971 4.92227,11.137728 6.61036,9.862949 -3.44498,4.075767 -7.22695,8.789876 -10.65518,13.307416 -0.81079,1.068411 -6.76277,7.232568 -6.93328,7.91147 -0.24331,0.968794 2.3244,0.480882 4.83479,-1.997141 1.69343,-1.671591 2.8759,-4.728672 6.17593,-6.17878 28.50304,-5.511745 64.75389,-5.729341 94.33881,-4.879059 17.42939,-0.08573 18.15071,8.749182 15.83684,10.886152 -7.56528,6.986906 -51.92759,10.132496 -71.07097,9.529681 -7.67333,0.117374 -4.18529,-1.231934 -0.28441,-3.315708 18.44583,-7.731248 44.96983,-7.054792 71.39436,-5.901132 3.01522,0.415208 5.30573,0.955618 7.65863,1.623103 7.57758,3.646671 3.63729,6.003494 -6.22205,7.377925 -15.29289,1.158285 -42.47172,0.299501 -55.65845,2.83529 -13.2607,2.550012 -1.50225,7.949854 1.58374,8.40164 20.65609,3.024041 60.18977,-11.572223 75.1064,-6.66772 7.2974,2.399343 15.40925,3.985367 19.30924,8.718606 5.17419,6.279686 1.98574,15.409306 -1.99696,16.931776 -12.44481,4.75729 -47.1006,4.94415 -87.6342,6.51401 -86.89641,3.36547 -204.962119,4.77649 -218.351613,12.72697 -7.686792,4.5643 -4.722328,13.43689 -1.632412,15.68659 5.475155,3.98634 15.492783,7.28565 29.31326,9.28299 24.360813,3.52065 60.220765,3.07856 95.926395,-0.0717 54.41917,-4.80128 105.8407,-13.99157 145.74577,-24.70069 14.21203,-3.81401 30.03312,-17.79405 43.25783,-18.61711 25.48811,-1.58628 60.66379,1.87939 60.716,1.20515"
     id="path3596"
     sodipodi:nodetypes="cscsscsssccscccccssssssssssssc" />
  <path
     style="fill:none;stroke:#000000;stroke-width:2.7;stroke-linecap:butt;stroke-linejoin:miter;stroke-opacity:1;stroke-miterlimit:4;stroke-dasharray:none"
     d="m 220.32593,76.325926 c 32.92136,0.560142 106.17544,-23.498755 46.0574,-27.741705 -0.63174,-0.04459 -2.35961,0.385378 -1.93962,-0.127144 6.48585,-7.914909 1.55117,-11.892931 -7.25303,-13.406713 -13.45359,-2.313193 -35.94271,1.127746 -40.52401,5.068155"
     id="path3598"
     sodipodi:nodetypes="csssc" />
  <path
     style="fill:none;stroke:#000000;stroke-width:2.70000000000000020;stroke-linecap:round;stroke-linejoin:round;stroke-opacity:1;stroke-miterlimit:4;stroke-dasharray:none"
     d="M 211.6292,82.476745 C 232.09781,63.375134 253.27692,43.787997 269.23484,23.64546"
     id="path3600"
     sodipodi:nodetypes="cc" />
  <path
     style="fill:none;stroke:#000000;stroke-width:2.7;stroke-linecap:butt;stroke-linejoin:miter;stroke-opacity:1;stroke-miterlimit:4;stroke-dasharray:none"
     d="m 265.01315,48.567046 c -10.1647,2.751052 -22.98313,8.298819 -33.36497,15.524922"
     id="path3602"
     sodipodi:nodetypes="cc" />
  <path
     style="fill:none;stroke:#000000;stroke-width:2.70000000000000020;stroke-linecap:round;stroke-linejoin:round;stroke-opacity:1;stroke-miterlimit:4;stroke-dasharray:none"
     d="m 231.75048,56.687353 c 0.1173,-0.121684 -18.04219,2.465764 -19.91899,3.820675 -6.96084,5.025218 -11.03279,3.600248 -1.76948,-5.054013 6.14974,-5.745402 16.59173,-19.880165 16.94551,-20.344623 9.01593,-11.836644 17.26603,-20.941796 9.30359,-0.576059"
     id="path3604"
     sodipodi:nodetypes="csssc" />
  <path
     style="fill:none;stroke:#000000;stroke-width:2.70000000000000020;stroke-linecap:round;stroke-linejoin:round;stroke-opacity:1;stroke-miterlimit:4;stroke-dasharray:none"
     d="m 238.67048,34.742413 c -0.0487,-0.335093 2.22776,-2.004015 3.05156,-2.665442 C 247.59369,27.3626 272.6187,15.126392 273.92288,6.3083472 274.17595,2.8738633 272.67679,3.2410904 270.20386,4.4993285 260.2426,10.038089 255.66524,24.904066 247.99021,34.403959"
     id="path3606"
     sodipodi:nodetypes="csccc" />
  <path
     style="fill:none;stroke:#000000;stroke-width:2.7;stroke-linecap:butt;stroke-linejoin:miter;stroke-opacity:1;stroke-miterlimit:4;stroke-dasharray:none"
     d="M 204.72593,56.874074 218.59259,37.807407"
     id="path3608" />
  <path
     style="fill:none;stroke:#000000;stroke-width:2.7;stroke-linecap:butt;stroke-linejoin:miter;stroke-opacity:1;stroke-miterlimit:4;stroke-dasharray:none"
     d="m 209.48431,50.950257 c 0.43313,0.0907 1.91556,0.795929 2.33685,0.889211 13.99152,3.098013 21.6676,7.165124 37.3947,-17.980243"
     id="path3610"
     sodipodi:nodetypes="csc" />
  <path
     style="fill:none;stroke:#000000;stroke-width:2.70000000000000020;stroke-linecap:round;stroke-linejoin:round;stroke-opacity:1;stroke-miterlimit:4;stroke-dasharray:none"
     d="m 220.07258,65.862353 c 14.21493,-10.680732 28.18185,-21.73348 41.67216,-33.501147"
     id="path3612"
     sodipodi:nodetypes="cc" />
</svg>
