<?xml version="1.0" encoding="UTF-8" standalone="no"?>
<!-- Created with Inkscape (http://www.inkscape.org/) -->
<svg
   xmlns:svg="http://www.w3.org/2000/svg"
   xmlns="http://www.w3.org/2000/svg"
   version="1.0"
   width="566"
   height="193"
   id="svg2559">
  <defs
     id="defs2562" />
  <path
     d="M 287.98116,178.38029 C 285.53353,177.07113 281.83647,176 279.76547,176 C 277.69446,176 276,175.55 276,175 C 276,174.45 275.23399,174 274.29775,174 C 272.70844,174 258,159.62165 258,158.06801 C 258,157.67872 256.6258,155.82101 254.94622,153.93976 C 253.15354,151.93183 252.08236,149.79305 252.35234,148.76065 C 252.60529,147.79339 252.36137,146.72334 251.81031,146.38276 C 249.44109,144.9185 253.63312,130 256.41379,130 C 257.2475,130 258.36062,129.19469 258.88739,128.21042 C 259.41415,127.22615 261.11749,125.81306 262.67257,125.07022 C 270.55207,121.30632 272,120.48339 272,119.76897 C 272,118.16096 268.25327,112.08006 267.64023,112.69311 C 267.2881,113.04523 267,112.45348 267,111.37811 C 267,110.30273 266.1068,107.67093 265.01512,105.52966 C 263.92344,103.38838 263.24144,101.42523 263.49958,101.16709 C 263.75771,100.90896 263.18841,100.10507 262.23446,99.38068 C 260.81717,98.304455 260.7743,98.051975 262,98 C 263.33333,97.943461 263.33333,97.801038 262,96.718197 C 261.175,96.048188 260.39945,93.958944 260.27656,92.075432 C 260.15367,90.191919 259.65354,88.391919 259.16516,88.075432 C 258.67678,87.758944 257.73787,84.575 257.07868,81 C 255.51013,72.493252 255.55496,72.677793 254.74054,71.37569 C 254.35377,70.757319 253.73315,66.932319 253.36137,62.87569 C 252.88684,57.697812 252.15747,55.036411 250.91365,53.944232 C 249.74559,52.918574 249.4361,51.912404 250.00536,50.991327 C 250.48027,50.222902 250.61732,48.336614 250.30992,46.799576 C 250.00251,45.262538 250.21171,43.441346 250.77481,42.752481 C 251.3379,42.063616 251.65856,40.2625 251.48737,38.75 C 251.26715,36.804367 251.62714,36 252.71811,36 C 253.95056,36 254.15985,36.889421 253.76071,40.430654 C 253.48604,42.867513 253.63071,45.230713 254.08221,45.68221 C 254.74304,46.343038 256.55178,54.732439 258.4627,66 C 258.60262,66.825 259.23075,68.766795 259.85855,70.3151 C 260.48635,71.863404 261,73.695742 261,74.386961 C 261,78.32943 271.71855,107 273.19245,107 C 273.6366,107 274.03289,108.0125 274.07309,109.25 C 274.11329,110.4875 274.93444,112.85 275.89787,114.5 C 277.33382,116.95927 278.40212,117.55542 281.82478,117.8075 C 286.66136,118.1637 287.02511,119.21417 283.39356,122.3379 L 280.78712,124.57987 L 284.44893,131.76514 C 286.46292,135.71703 288.53582,139.21312 289.05537,139.53422 C 289.57492,139.85532 290,140.95398 290,141.97568 C 290,142.99739 290.35829,143.98333 290.79619,144.16667 C 291.73179,144.55836 300.38547,161.80564 300.74741,164 C 301.8393,170.61991 301.71103,176 300.4613,176 C 299.71225,176 298.73952,176.57198 298.29969,177.27106 C 297.85986,177.97014 296.35956,179.04127 294.96569,179.65134 C 292.85824,180.57374 291.68181,180.35966 287.98116,178.38029 z M 294.3021,169.6886 C 294.98252,165.44348 293.13003,158 291.3931,158 C 290.56349,158 289.76564,156.3866 289.36917,153.9072 C 289.00921,151.65616 287.71547,148.61866 286.49418,147.1572 C 285.2729,145.69574 283.93386,143.375 283.51855,142 C 283.10324,140.625 282.25417,138.825 281.63172,138 C 279.65416,135.37891 278,132.07025 278,130.73581 C 278,130.02558 277.07937,128.65622 275.95416,127.69278 C 274.12499,126.12659 273.62195,126.09357 271.20416,127.38099 C 267.21788,129.50361 261.32783,132 260.30596,132 C 258.38779,132 255.72195,142.66018 256.44101,147.45519 C 257.0594,151.57888 257.95466,152.87378 264.28803,158.80497 C 268.21997,162.48724 272.7435,166.75769 274.34031,168.29487 C 275.93711,169.83205 277.46735,170.86598 277.74084,170.59249 C 278.01433,170.319 278.89167,170.74881 279.69048,171.54762 C 280.48929,172.34643 282.12321,173.00689 283.32143,173.01531 C 284.51964,173.02373 286.12719,173.42777 286.89376,173.91318 C 287.71025,174.43019 289.42725,174.39842 291.03927,173.83646 C 293.06716,173.12954 293.92547,172.03842 294.3021,169.6886 z M 377.44166,129.9056 C 377.13383,129.40752 375.35588,129 373.49067,129 C 371.30062,129 369.75248,128.38013 369.12003,127.25 C 368.58139,126.2875 367.77153,125.55859 367.32034,125.6302 C 365.81423,125.86924 362.52392,124.21477 360.29181,122.09603 C 359.07731,120.94321 357.6087,120 357.02824,120 C 355.98128,120 351.9599,117.98241 351,116.97553 C 350.725,116.68707 348.26362,115.33707 345.53026,113.97553 C 342.7969,112.61399 339.1969,110.24525 337.53026,108.71168 C 334.58585,106.00235 334.555,105.88194 336.44113,104.46168 C 337.50875,103.65775 340.43375,102.94671 342.94113,102.88158 C 348.49968,102.73719 348.1181,102.70319 350.25,103.5329 C 351.49411,104.01709 352,103.72646 352,102.52753 C 352,101.20515 352.59785,100.9724 354.76946,101.44936 C 356.47804,101.82463 358.2925,101.5066 359.50618,100.61914 C 361.3791,99.249626 361.39016,99.088601 359.73672,97.261578 C 358.78153,96.206095 358,95.038246 358,94.666356 C 358,94.294467 356.83813,91.6299 355.41806,88.745097 C 348.79361,75.287843 346.13989,59.150771 349.69976,53.972506 C 351.8501,50.844558 360.18563,45 362.49638,45 C 364.09063,45 362.63181,47.980161 360.75,48.567597 C 354.16781,50.62233 351.02875,58.561569 352.98457,68.207711 C 353.68626,71.66847 354.88717,75.5125 355.65324,76.75 C 356.41932,77.9875 356.80425,79 356.50866,79 C 356.02903,79 360.93001,88.743709 363.5,92.899584 C 367.04896,98.638533 367.83618,99.257869 370.68203,98.549964 C 374.68955,97.553094 386.00522,92.084696 389.20193,89.600066 C 390.68798,88.44503 393.9226,85.949415 396.38997,84.054256 C 398.85733,82.159096 400.65359,80.248511 400.38165,79.808509 C 400.10972,79.368508 400.98017,78.510527 402.31599,77.901885 C 404.72194,76.805663 407,71.597406 407,67.192997 C 407,66.051768 407.39188,64.875841 407.87084,64.579826 C 408.3498,64.283812 408.99206,62.794755 409.29808,61.270809 C 409.6041,59.746864 410.36885,57.15 410.99754,55.5 C 411.62622,53.85 412.15721,52.275 412.17752,52 C 412.29709,50.38056 416.21339,44 417.0878,44 C 417.69444,44 418.0014,45.66504 417.81748,47.957966 C 417.50638,51.836388 419.1529,53.785692 419.85785,50.373542 C 420.05467,49.420888 420.84217,48.014975 421.60785,47.249293 C 422.37353,46.48361 423.05743,45.326786 423.12762,44.678571 C 423.84394,38.063548 423.9083,38.23456 421.5791,40.563758 C 420.07091,42.071944 418,41.771096 418,40.043811 C 418,38.094075 423.60294,33 425.74744,33 C 429.46057,33 430.28214,36.866859 427.98658,43.53901 C 425.872,49.685126 417.87541,65.901743 414.83678,70.206014 C 409.83005,77.298132 406.95679,90.852739 407.19628,106.25 C 407.29333,112.48961 407.93527,113.22088 410.26872,109.75 C 411.10068,108.5125 412.11652,107.82346 412.52615,108.21879 C 412.93577,108.61413 412.60285,109.96413 411.78632,111.21879 C 410.9698,112.47346 409.9689,115.29172 409.56211,117.48159 C 408.21508,124.73295 405.80662,126.88177 402.92194,123.40594 C 401.93438,122.216 401.66963,118.34982 401.87763,108.15594 C 402.03089,100.64517 402.23362,93.375 402.32814,92 C 402.47435,89.873152 402.12685,89.551792 400,89.846987 C 398.625,90.03783 396.69497,91.05033 395.71104,92.096987 C 394.72712,93.143644 393.08776,94 392.06803,94 C 391.0483,94 389.95496,94.675 389.63837,95.5 C 389.32179,96.325 388.35401,97 387.48774,97 C 386.62147,97 384.72757,98.098925 383.27907,99.442055 C 381.83056,100.78519 378.89387,102.18003 376.75308,102.54172 C 374.61229,102.9034 372.60913,103.85501 372.30161,104.65641 C 371.79073,105.98774 376.70347,114.11605 379.45985,116.5 C 381.06184,117.88553 383.72471,125.17609 383.29497,127 C 382.85746,128.8569 378.21714,131.16036 377.44166,129.9056 z M 374.75847,120.7536 C 374.06631,119.51808 372.4875,117.51457 371.25,116.30135 C 370.0125,115.08813 369,113.37743 369,112.49978 C 369,110.0391 363.84664,106.07498 360.5,105.96132 C 358.85,105.90528 356.6003,105.50831 355.50066,105.07917 C 353.76898,104.40336 349.9488,104.95157 345.13738,106.56635 C 343.02011,107.27693 345.37512,109.53626 351.35236,112.52882 C 354.18356,113.94629 358.075,115.94351 360,116.9671 C 361.925,117.99068 364.175,119.10947 365,119.4533 C 365.825,119.79713 367.625,120.72916 369,121.52448 C 370.375,122.3198 372.51631,122.97715 373.75847,122.98526 C 375.80719,122.99863 375.90007,122.79136 374.75847,120.7536 z M 416.79411,55.35622 C 416.50269,53.981402 416.25123,54.232864 415.8245,56.325823 C 415.45245,58.150644 415.59182,58.808179 416.21796,58.182042 C 416.75124,57.648761 417.01051,56.377141 416.79411,55.35622 z M 423.67387,117.55694 C 422.20324,116.3843 421,114.83775 421,114.12016 C 421,112.36796 417.24367,107.66663 415.16745,106.82029 C 413.92703,106.31464 414.15532,106.12257 416.05887,106.07029 C 419.13544,105.98578 420.82621,107.29059 424.05766,112.24317 C 427.6185,117.70056 430.05461,117.12916 438.35947,108.88862 C 443.00877,104.27532 443.17097,103.92919 442.10988,100.88536 C 441.3733,98.77239 441.33362,97.30294 441.99174,96.509955 C 442.53674,95.85327 442.77266,95.105988 442.516,94.84933 C 441.55853,93.891861 445.1757,73.718384 446.93951,70.178756 C 447.94774,68.15544 450.02233,63.870164 451.54971,60.655921 C 453.07708,57.441677 454.91111,54.587606 455.62531,54.31354 C 456.33952,54.039474 457.21655,52.844309 457.57428,51.657619 C 458.48015,48.652558 463.03109,44 465.06465,44 C 467.35281,44 469.00397,46.178153 468.51534,48.552036 C 467.09175,55.468151 462.72822,72.836894 461.99646,74.5 C 461.51247,75.6 460.81331,78.075 460.44277,80 C 460.07222,81.925 459.43426,83.95 459.02506,84.5 C 458.61586,85.05 457.44842,87.75 456.43075,90.5 C 455.41307,93.25 453.09983,97.578743 451.29022,100.11943 C 447.74515,105.09667 447.39552,106.96753 449.09783,111.85078 C 450.12785,114.8055 450.49841,115 455.09783,115 C 459.97789,115 461.13053,115.86465 458.75,117.73967 C 454.73687,120.9006 447.00961,118.75636 445.5219,114.069 C 444.75985,111.66798 442.20039,111.31421 441.36383,113.49426 C 441.04846,114.3161 440.44772,114.77671 440.02886,114.51784 C 439.61,114.25897 438.46241,114.93655 437.47866,116.02358 C 436.49491,117.11061 435.08477,118 434.34501,118 C 433.60526,118 433,118.4363 433,118.96955 C 433,120.72941 426.39852,119.7295 423.67387,117.55694 z M 452.64575,87 C 453.97779,83.975 455.49021,80.6 456.00667,79.5 C 456.52314,78.4 458.2947,72.214844 459.94347,65.75521 C 462.59644,55.361261 462.98358,51 461.25325,51 C 460.12314,51 458.06211,54.600427 458.0318,56.627555 C 458.01431,57.797711 457.325,59.315311 456.5,60 C 455.675,60.684689 454.99723,61.977289 454.99384,62.872445 C 454.99045,63.7676 454.39498,65.635652 453.67056,67.023672 C 450.68953,72.735513 446.95494,87.911267 447.03197,94 C 447.06306,96.456411 447.09116,96.465129 448.64373,94.5 C 449.5128,93.4 451.31371,90.025 452.64575,87 z M 508.41511,118.37555 C 504.20837,116.19879 501,112.93211 501,110.82569 C 501,108.70693 502.53857,108.40966 503.70031,110.30395 C 505.01257,112.44369 511.78695,115.12242 516.03421,115.18104 C 518.75902,115.21864 520,115.67808 520,116.64927 C 520,117.42669 519.4375,118.23471 518.75,118.44485 C 514.51292,119.73998 511.00653,119.71646 508.41511,118.37555 z M 490.75,117.28375 C 489.2375,117.05462 488,116.44705 488,115.93358 C 488,115.42011 487.40615,115 486.68034,115 C 484.95183,115 481.88954,111.41109 479.73375,106.8588 C 478.20616,103.63305 475.00202,100.87388 474.99878,102.78138 C 474.99665,104.03585 470.31467,109 469.13365,109 C 468.51014,109 467.99715,109.5625 467.99368,110.25 C 467.98402,112.15974 462.27253,115.15258 461.664,113.56677 C 461.39884,112.87578 462.07188,111.67808 463.15965,110.90521 C 464.24742,110.13234 466.976,106.8 469.22318,103.5 C 471.47035,100.2 473.71536,97.232417 474.21209,96.905371 C 474.70883,96.578324 475.28979,93.878324 475.50312,90.905371 C 476.29614,79.854065 477.25887,73.407862 478.60381,70.143766 C 479.36441,68.297837 479.72597,66.365625 479.40727,65.849961 C 479.08857,65.334297 479.29969,64.343819 479.87643,63.648898 C 480.45316,62.953977 481.56875,59.93619 482.35552,56.942703 C 484.69163,48.054292 486.04692,45.775814 488.69651,46.282317 C 490.52647,46.632135 491,46.27835 491,44.561328 C 491,43.372598 490.56099,41.960988 490.02442,41.424417 C 488.75525,40.155253 492.5961,33.695798 494.27992,34.267607 C 495.56208,34.703019 495.40144,43.05562 494.09274,44 C 493.71165,44.275 492.31992,50.125 491,57 C 489.68008,63.875 488.30077,69.725 487.93486,70 C 487.56894,70.275 486.95563,71.625 486.57193,73 C 486.18823,74.375 485.49099,76.4 485.02251,77.5 C 481.63362,85.457055 480.35029,96.547219 482.12347,102.5526 C 483.82288,108.30815 489.80006,114.33333 493.81035,114.33333 C 496.51175,114.33333 496.59529,114.44981 495.12527,116.16667 C 494.26191,117.175 493.54303,117.93258 493.52776,117.85017 C 493.51249,117.76776 492.2625,117.51287 490.75,117.28375 z M 485.92971,62.75 C 485.96837,62.3375 485.55,62 485,62 C 484.45,62 484.03163,63.2375 484.07029,64.75 C 484.13257,67.186844 484.23844,67.27225 485,65.5 C 485.47269,64.4 485.89106,63.1625 485.92971,62.75 z M 487,58.90437 C 487,57.751774 487.958,55.463349 489.1289,53.818981 C 491.15476,50.973913 491.17295,50.748662 489.50475,49.164611 C 487.85346,47.59663 487.78636,47.648965 488.34876,50.066166 C 488.69021,51.533694 488.3729,53.460254 487.60761,54.566166 C 485.60909,57.454207 484.68597,61 485.93261,61 C 486.51968,61 487,60.056967 487,58.90437 z M 522.25,117.33772 C 520.86732,116.7798 520.53147,115 521.80887,115 C 522.25375,115 523.49125,115.66069 524.55887,116.4682 C 526.00537,117.56227 526.11778,117.92438 525,117.88925 C 524.175,117.86332 522.9375,117.61513 522.25,117.33772 z M 28.356999,109.00842 C 27.178348,108.53277 25.489491,107.10923 24.603983,105.84499 C 23.079533,103.66854 23.112827,103.50241 25.23045,102.71905 C 26.545097,102.23273 28.42055,102.32622 29.780519,102.94586 C 33.601649,104.68688 37.382456,104.21849 38.881344,101.81839 C 42.460395,96.08742 44.878906,82.119964 45.54074,63.358865 C 46.000984,50.312269 45.852586,47.995443 44.46799,46.610847 C 43.250235,45.393092 42.3936,45.254168 40.930554,46.037166 C 39.868749,46.605427 39,47.463284 39,47.943515 C 39,48.423747 37.043515,51.220414 34.652256,54.158332 C 27.714886,62.681633 23.626069,72.593078 24.709404,78.260178 C 25.098119,80.293611 24.722358,80.81992 22.590968,81.227361 C 20.098821,81.703765 20,81.542518 20,76.999644 C 20,69.358907 28.603722,52.340508 36.852942,43.66406 C 41.364143,38.919223 49.277005,33.631264 54.236072,32.047368 C 56.290911,31.391065 58.229969,30.436919 58.545089,29.927045 C 59.49992,28.382095 63.592549,28.887606 65.207749,30.75 C 67.017025,32.83617 68.293707,38.725039 67.035271,39.179688 C 66.547638,39.355859 65.634497,43.280169 65.006068,47.900376 C 64.377638,52.520583 63.244246,57.920583 62.487419,59.900376 C 60.806888,64.296495 56.773696,84.00368 56.432223,89.487574 C 56.089056,94.998684 57.391607,97.210923 60.269062,96.00402 C 61.496078,95.489368 64.334501,94.606581 66.57667,94.042273 C 69.231548,93.374094 71.112557,92.158202 71.970044,90.555974 C 72.694231,89.202817 74.45973,87.672954 75.893374,87.156278 C 77.327018,86.639601 79.493684,85.268071 80.708187,84.108433 C 81.922689,82.948795 83.331124,82 83.838041,82 C 84.933647,82 93,71.522684 93,70.099611 C 93,69.557199 94.012302,68.404364 95.24956,67.537755 C 97.311995,66.093169 97.603135,66.104351 98.74956,67.672181 C 99.437302,68.612724 100.00703,70.983751 100.01562,72.94113 C 100.03568,77.512196 107.33795,86.514443 108.98614,84 C 109.52692,83.175 109.99602,81.825 110.02858,81 C 110.06114,80.175 110.69177,77.807374 111.42997,75.738609 C 112.1714,73.660808 112.37555,71.732102 111.88608,71.429592 C 110.7298,70.714975 110.73443,67 111.89159,67 C 112.73401,67 114.3156,62.885917 114.4594,60.320579 C 114.49576,59.671898 114.85727,58.809398 115.26275,58.403913 C 115.66824,57.998427 116,56.706667 116,55.533333 C 116,54.36 116.4852,52.914804 117.07821,52.321788 C 117.67123,51.728771 118.38244,48.412916 118.65868,44.953222 C 119.1867,38.340118 121.44149,33.840341 124,34.293806 C 125.23321,34.512379 125.44152,36.182194 125.17121,43.682266 C 124.83827,52.919907 126.30453,69.073806 128.16179,76.629783 C 128.859,79.466273 129.94387,81.109025 131.62604,81.875472 C 134.15328,83.02696 134.63522,83.37994 139.20639,87.427364 C 142.13517,90.02058 151.79011,94 155.15304,94 C 156.3069,94 158.88374,95.808025 160.94725,98.065472 L 164.66346,102.13094 L 168.30713,100.31547 C 170.31114,99.316962 171.96186,98.018651 171.9754,97.430335 C 171.98893,96.84202 173.125,95.382496 174.5,94.186949 C 175.875,92.991402 177,91.335251 177,90.506613 C 177,89.677976 177.39752,89 177.88337,89 C 178.36922,89 179.00209,88.1 179.28975,87 C 179.61092,85.771838 179.32043,85 178.53703,85 C 176.99274,85 176.57673,76.255478 178.01371,74 C 178.53933,73.175 178.97627,73.011425 178.98469,73.636501 C 178.99311,74.261576 180.30447,74.964457 181.89882,75.198458 C 184.76178,75.618652 184.79882,75.561291 184.89239,70.561958 C 184.9445,67.777881 185.62123,63.70571 186.39623,61.512688 C 189.1355,53.761417 193.65005,54.526999 192.2183,62.5 C 191.82323,64.7 191.5,69.598565 191.5,73.3857 C 191.5,81.084819 190.99757,80.504108 200.81576,84.152862 C 208.02052,86.830381 210.59542,89.07065 209.50486,91.712755 C 209.00892,92.914258 208.61413,93.090332 208.30024,92.25 C 208.04344,91.5625 207.04583,91 206.08333,91 C 205.12083,91 204.02493,90.691598 203.648,90.314662 C 202.92855,89.595219 196.04053,87.040964 194.75,87.015056 C 193.5975,86.99192 193.85974,89.802551 195.21215,91.96809 C 195.87882,93.035614 196.06554,94.267008 195.62707,94.704522 C 194.8605,95.46942 193.09897,93.77061 188.23215,87.572917 L 185.96431,84.684905 L 183.48215,87.016766 C 182.11697,88.29929 181,90.100442 181,91.019326 C 181,91.938211 180.1,93.504514 179,94.5 C 177.9,95.495486 177,96.724846 177,97.231911 C 177,98.419976 172.27201,103.13359 168.81706,105.38996 C 165.78885,107.36763 164.85361,107.06258 158.54183,102.03839 C 155.71629,99.789261 153.92784,99.052278 152.29183,99.462892 C 151.03132,99.779259 150,99.680384 150,99.243172 C 150,98.805959 147.97926,97.559885 145.50947,96.47412 C 143.03968,95.388354 141.01468,94.1625 141.00947,93.75 C 141.00426,93.3375 140.2125,92.99443 139.25,92.987621 C 138.2875,92.980813 136.48336,91.405813 135.24081,89.487621 C 133.99825,87.56943 132.31075,86 131.49081,86 C 129.59326,86 129.61258,86.252704 131.89641,91.304864 C 137.26105,103.17219 137.78343,107 134.03836,107 C 131.97596,107 129,103.95096 129,101.83793 C 129,101.0104 128.66697,100.0003 128.25994,99.593269 C 127.8529,99.186233 126.77304,96.523733 125.86025,93.676602 C 124.86614,90.575806 123.69153,88.622875 122.93105,88.806424 C 121.93031,89.047957 121.91791,88.80384 122.87247,87.65367 C 123.68807,86.670924 123.73619,86.078731 123.01984,85.839947 C 121.00476,85.168253 118.91162,66.570046 120.55234,63.915318 C 120.79223,63.527156 120.32837,62.956249 119.52153,62.646636 C 118.46207,62.240082 117.74069,63.252705 116.92471,66.291851 C 116.3033,68.606333 115.30713,71.4 114.711,72.5 C 113.75378,74.266311 113.42816,77.553048 113.99274,79.75 C 114.09874,80.1625 114.11163,82.382073 114.02137,84.682384 C 113.93111,86.982696 114.37524,89.83263 115.00833,91.015571 C 115.93419,92.745559 115.83921,93.520184 114.52289,94.97471 C 112.91394,96.752582 109,96.687851 109,94.883369 C 109,94.397516 108.41639,94 107.70309,94 C 106.98979,94 105.30229,92.669056 103.95309,91.042347 C 102.60389,89.415637 100.9375,88.065637 100.25,88.042347 C 99.5625,88.019056 99,87.523442 99,86.940983 C 99,86.358524 98.51338,86.182713 97.918623,86.550294 C 97.261625,86.956341 96.957498,86.488947 97.143665,85.359311 C 97.312195,84.33669 97.018205,82.825 96.490354,82 C 95.962504,81.175 95.523735,80.0875 95.515313,79.583333 C 95.4816,77.565187 92.913868,77.995223 90.482955,80.426136 C 89.06733,81.841761 87.643647,83 87.319216,83 C 86.994785,83 85.686727,84.125 84.41242,85.5 C 83.138113,86.875 81.638134,88 81.079134,88 C 80.520133,88 80.321791,88.675 80.638374,89.5 C 80.988154,90.411514 80.640805,91 79.753012,91 C 78.94948,91 77.129109,92.077773 75.707741,93.395052 C 74.286374,94.712331 72.86889,95.535556 72.557776,95.224442 C 72.246662,94.913328 70.981388,95.552477 69.746057,96.644772 C 65.595864,100.31443 62.092949,102 58.616971,102 C 54.155582,102 52,101.14051 52,99.361626 C 52,98.578209 51.325,97.678209 50.5,97.361626 C 49.5168,96.984337 49,95.424417 49,92.833994 C 49,90.626506 48.585704,89.138015 48.061467,89.462011 C 47.545274,89.781036 47.29906,90.956602 47.514324,92.074379 C 47.729588,93.192157 47.02861,95.545194 45.956595,97.303351 C 44.88458,99.061508 44.005794,101.1234 44.003738,101.88533 C 43.999706,103.37945 40.118735,107.3309 37.033654,108.98199 C 34.772227,110.19227 31.316669,110.20279 28.356999,109.00842 z M 51.810438,75.25 C 51.908438,72.517588 51.685205,71.907035 50.98778,73 C 49.803573,74.855824 49.7001,79 50.83797,79 C 51.298854,79 51.736464,77.3125 51.810438,75.25 z M 55.193042,66.806958 C 58.244535,63.755465 61.323155,49.24719 60.350918,42.5 C 59.954656,39.75 59.733319,36.9375 59.859058,36.25 C 59.984796,35.5625 59.591389,35 58.98482,35 C 58.37825,35 58.160081,35.45 58.5,36 C 58.839919,36.55 58.452944,37 57.640057,37 C 56.471935,37 52.327076,38.815342 49.087559,40.745774 C 48.860717,40.88095 49.242768,42.23095 49.936562,43.745774 C 50.745538,45.512087 51.148308,50.535262 51.059453,57.75 C 50.912569,69.676523 51.354713,70.645287 55.193042,66.806958 z M 314.75,104.25074 C 312.94306,103.84042 312.17627,99 313.91821,99 C 316.17408,99 318,100.36346 318,102.04797 C 318,104.21225 317.14186,104.79388 314.75,104.25074 z M 376.93047,51.75 C 375.93919,49.497839 374.43903,48.15708 372.04437,47.383095 C 367.13939,45.797745 366.89351,43.956173 371.68406,44.684466 C 376.57023,45.427297 380,48.516357 380,52.174314 C 380,55.931907 378.69149,55.751027 376.93047,51.75 z"
     id="path2570"
     style="fill:#000000" />
</svg>
