<?xml version="1.0" encoding="UTF-8" standalone="no"?>
<!-- Created with Inkscape (http://www.inkscape.org/) -->

<svg
   xmlns:dc="http://purl.org/dc/elements/1.1/"
   xmlns:cc="http://creativecommons.org/ns#"
   xmlns:rdf="http://www.w3.org/1999/02/22-rdf-syntax-ns#"
   xmlns:svg="http://www.w3.org/2000/svg"
   xmlns="http://www.w3.org/2000/svg"
   xmlns:sodipodi="http://sodipodi.sourceforge.net/DTD/sodipodi-0.dtd"
   xmlns:inkscape="http://www.inkscape.org/namespaces/inkscape"
   id="svg2985"
   version="1.1"
   inkscape:version="0.48.0 r9654"
   width="284"
   height="140"
   sodipodi:docname="dilma_signature3.svg">
  <metadata
     id="metadata2991">
    <rdf:RDF>
      <cc:Work
         rdf:about="">
        <dc:format>image/svg+xml</dc:format>
        <dc:type
           rdf:resource="http://purl.org/dc/dcmitype/StillImage" />
        <dc:title />
      </cc:Work>
    </rdf:RDF>
  </metadata>
  <defs
     id="defs2989" />
  <sodipodi:namedview
     pagecolor="#ffffff"
     bordercolor="#666666"
     borderopacity="1"
     objecttolerance="10"
     gridtolerance="10"
     guidetolerance="10"
     inkscape:pageopacity="0"
     inkscape:pageshadow="2"
     inkscape:window-width="1280"
     inkscape:window-height="977"
     id="namedview2987"
     showgrid="false"
     inkscape:zoom="2.0685228"
     inkscape:cx="164.52281"
     inkscape:cy="34.828873"
     inkscape:window-x="-4"
     inkscape:window-y="-4"
     inkscape:window-maximized="1"
     inkscape:current-layer="svg2985" />
  <path
     style="fill:#000000"
     d="m 171.41553,125.41551 c 0,-0.275 1.35,-1.79338 3,-3.37418 1.65,-1.5808 3,-2.64918 3,-2.37418 0,0.275 -1.35,1.79338 -3,3.37418 -1.65,1.5808 -3,2.64918 -3,2.37418 z m 7.01531,-10.12418 c 0.0101,-2.80911 0.31107,-3.78307 0.88766,-2.87276 0.6757,1.06679 1.6578,0.50326 4.35692,-2.5 6.88097,-7.65632 14.74011,-17.114986 14.74011,-17.740066 0,-0.35044 -5.60076,-0.63717 -12.44614,-0.63717 l -12.44614,0 1.94614,5.656549 c 2.49496,7.251707 2.4275,9.297737 -0.10119,3.069257 -1.06604,-2.625797 -2.63265,-5.833956 -3.48135,-7.129226 -1.39926,-2.13554 -1.3923,-2.41292 0.0746,-2.97582 0.8897,-0.34141 7.84809,-0.62076 15.46306,-0.62076 l 13.84541,0 2.82281,-3.34048 c 1.55254,-1.83726 7.4353,-8.43161 13.0728,-14.65412 5.6375,-6.2225 10.25,-11.66299 10.25,-12.08997 0,-0.42698 -1.0125,-0.97134 -2.25,-1.20969 -1.48629,-0.28628 -1.04975,-0.4796 1.28611,-0.56955 3.28869,-0.12666 4.09033,-0.88834 11.45735,-10.88619 16.6305,-22.5694 18.70911,-25.25 19.5796,-25.25 0.90162,0 -4.71125,8.19198 -15.01051,21.90781 -3.0594,4.0743 -7.08648,9.4743 -8.94906,12 -1.86258,2.52571 -6.8293,8.19219 -11.03714,12.59219 -6.67964,6.98467 -13.22521,14.5382 -18.10606,20.89425 -1.35614,1.76601 -1.2859,1.84439 1.03755,1.15775 2.80562,-0.82913 2.81452,-0.83852 19.99216,-21.10338 16.3319,-19.26711 24.51734,-29.4218 30.38792,-37.69862 4.3777,-6.17203 6.61208,-8.15597 6.61208,-5.87096 0,2.19857 -42.40691,54.7091 -48.88007,60.52595 -3.38226,3.03933 -2.6824,4.58182 2.13007,4.69469 2.3375,0.0548 5.375,0.49773 6.75,0.98423 1.65469,0.58546 -0.21036,0.7195 -5.51589,0.39644 l -8.01589,-0.4881 -9.04869,9.253876 c -4.97679,5.08963 -10.73726,11.39137 -12.80106,14.00387 -2.63612,3.33698 -4.47615,4.75 -6.18542,4.75 -2.19815,0 -2.43157,-0.41032 -2.41774,-4.25 z M 198.3946,99.749549 c 6.15968,-7.162665 7.20957,-10.042785 2.61197,-7.165305 -3.95567,2.47573 -19.59104,22.101246 -19.59104,24.590686 0,1.51643 5.87351,-4.51147 16.97907,-17.425381 z M 100.41553,65.191374 c 0,-1.43537 4.75288,-8.49192 8.52032,-12.65004 1.69146,-1.86685 2.139,-3.30888 1.76713,-5.69391 l -0.49799,-3.19392 -5.14472,2.01197 c -2.82961,1.10658 -6.88731,3.66884 -9.01712,5.69391 -2.81887,2.68024 -3.55277,3.06105 -2.69758,1.39974 1.10836,-2.15313 1.01631,-2.25159 -1.62761,-1.74097 -2.39831,0.46319 -2.31904,0.354 0.5497,-0.75722 1.84366,-0.71415 3.96522,-2.40571 4.71456,-3.75903 1.61564,-2.91784 1.85245,-11.72796 0.41674,-15.50416 -0.88934,-2.33913 -1.22273,-2.50373 -2.66372,-1.3151 -1.47743,1.2187 -1.53166,1.1419 -0.52636,-0.74535 0.9502,-1.78379 0.70876,-2.48342 -1.58628,-4.59664 -1.48888,-1.37092 -3.81969,-3.23661 -5.17957,-4.14596 -3.41378,-2.28278 -1.76889,-2.07223 3.06106,0.39182 2.20489,1.12485 4.26011,2.69985 4.56716,3.5 0.95807,2.49672 2.0928,1.63783 5.34428,-4.04518 1.73073,-3.025 3.38754,-5.5 3.6818,-5.5 1.35721,0 -1.11993,5.73498 -3.79132,8.77753 -2.20069,2.50645 -2.79246,3.94967 -2.27747,5.5544 1.736,5.40949 2.23811,9.47518 1.67634,13.57373 -0.55953,4.0822 -0.45725,4.3666 1.30171,3.61946 1.04992,-0.44597 4.61321,-1.79027 7.91841,-2.98734 3.30522,-1.19706 7.23531,-2.97967 8.73354,-3.96135 l 2.72406,-1.78487 -1.44686,4.80756 c -0.79578,2.64416 -1.24101,5.01342 -0.98941,5.26502 0.25161,0.25161 4.39761,-1.28416 9.21333,-3.41281 14.6007,-6.4538 25.74303,-19.54463 21.24677,-24.96229 -2.99245,-3.60569 -12.00907,0.30803 -20.16736,8.75376 -5.06547,5.24395 -5.44888,5.49874 -2.36768,1.57341 6.44137,-8.20605 12.05883,-12.11142 18.14727,-12.61632 4.97162,-0.41228 5.40955,-0.26617 6.52233,2.17613 1.62742,3.57179 -0.11944,9.15546 -4.3605,13.93787 -3.89149,4.38824 -18.07915,12.95419 -24.37574,14.71713 -3.20273,0.89671 -4.39382,1.71301 -4.17568,2.86177 0.22491,1.18445 1.68577,1.68679 5.55372,1.90975 6.09744,0.35146 16.09271,-3.53776 19.18051,-7.46327 3.04161,-3.86677 4.08812,-2.67464 1.93165,2.20042 -1.10447,2.49683 -1.85387,5.53433 -1.66535,6.75 0.32334,2.085 0.51124,2.01611 3.31435,-1.2152 9.96484,-11.48705 11.45502,-12.80031 13.97763,-12.31808 3.11813,0.59607 3.28998,3.89313 0.52088,9.99359 -1.83374,4.03982 -1.84032,4.25 -0.13303,4.25 2.29759,0 4.70278,-2.6859 8.66444,-9.67567 3.8745,-6.836 5.5581,-5.42266 1.89212,1.58838 -2.95069,5.6431 -2.91843,8.7541 0.0858,8.27248 2.54042,-0.40726 11.45681,-6.38147 11.47,-7.68519 0.0124,-1.2281 11.00625,-10.09294 14.47937,-11.6754 1.38756,-0.63221 2.76836,-0.90395 3.06845,-0.60386 0.30009,0.30009 -0.37682,3.17009 -1.50423,6.37778 -1.12742,3.20769 -2.04985,5.97182 -2.04985,6.1425 0,0.67087 6.85746,-3.27612 13.70484,-7.88819 3.96266,-2.66905 7.40233,-4.85283 7.6437,-4.85283 0.6997,0 -1.10177,7.16516 -2.85866,11.36998 -0.88387,2.11541 -1.41809,4.03515 -1.18715,4.26609 0.85359,0.85359 5.69727,-1.63251 5.69727,-2.92422 0,-1.9883 5.10139,-6.47067 8.25,-7.24893 2.43298,-0.60137 2.75,-0.39913 2.75,1.75436 0,2.79785 -3.20262,6.1579 -7.37702,7.73965 -2.5932,0.98261 -2.82137,1.43312 -2.31287,4.56662 0.69668,4.29315 -1.01395,4.62447 -2.45995,0.47645 -1.66739,-4.78305 -4.90809,-4.03456 -8.65938,2 -2.03666,3.27631 -3.79234,5 -5.09277,5 -2.34263,0 -5.13107,-3.59592 -5.01906,-6.4725 0.056,-1.43767 0.2394,-1.59112 0.63049,-0.5275 0.69745,1.89685 3.37403,5 4.31266,5 0.39167,0 1.93089,-1.84168 3.4205,-4.09262 l 2.70837,-4.09263 -6.07731,0.34263 c -4.69143,0.26449 -6.07689,0.0251 -6.07548,-1.04983 0.001,-1.10633 1.24696,-1.26232 6.06132,-0.75912 l 6.05949,0.63335 2.54313,-5.55493 c 1.39872,-3.05521 2.35203,-5.74603 2.11847,-5.97959 -0.23356,-0.23356 -2.64224,0.98972 -5.35262,2.71842 -2.71039,1.72869 -7.24706,4.21172 -10.08151,5.51785 -2.86581,1.32057 -6.3481,3.94091 -7.8445,5.90279 -2.99254,3.92343 -6.70471,4.38439 -7.35797,0.91368 -0.36293,-1.92826 -0.3054,-1.93608 1.60384,-0.21804 1.91287,1.7213 2.03596,1.69697 3.61622,-0.71482 2.30841,-3.52308 2.09138,-3.90273 -1.86405,-3.26085 -1.925,0.31239 -3.5,0.14626 -3.5,-0.36916 0,-0.51542 1.94214,-0.93713 4.31586,-0.93713 3.97274,0 4.4895,-0.30895 6.5,-3.88615 1.20128,-2.13739 2.18414,-4.86283 2.18414,-6.05654 0,-2.1492 -0.0304,-2.15275 -3.11089,-0.36384 -1.71099,0.99359 -4.74849,3.62714 -6.75,5.85232 -4.23138,4.70425 -10.37555,9.6968 -14.60718,11.86931 -2.75511,1.41448 -3.12029,1.3808 -5.08979,-0.46946 -1.96538,-1.84637 -2.33619,-1.88142 -5.03194,-0.47561 -3.23778,1.68848 -6.4102,2.00481 -6.4102,0.63918 0,-0.48994 0.89012,-2.85244 1.97804,-5.25 2.11786,-4.66736 2.62395,-8.85921 1.06958,-8.85921 -1.38465,0 -10.59875,9.43154 -12.71646,13.01655 -1.22066,2.06641 -2.46093,2.96648 -3.81941,2.77178 -1.65498,-0.23719 -2.01175,-1.04226 -2.01175,-4.53962 0,-2.33821 -0.0406,-4.25071 -0.0903,-4.25 -0.0496,7.1e-4 -2.84199,1.37634 -6.20521,3.05696 -7.95089,3.97311 -15.60082,4.40808 -18.32647,1.04204 -1.00219,-1.23765 -2.28829,-1.96219 -2.85799,-1.6101 -0.5697,0.3521 -3.51049,3.98643 -6.53509,8.07629 -5.64519,7.63347 -6.48494,8.42157 -6.48494,6.08614 z m 125.08666,-17.96334 c 0.87266,-0.65268 2.12599,-2.1992 2.78518,-3.4367 1.0113,-1.89851 0.94669,-2.25 -0.41358,-2.25 -1.7486,0 -7.45826,5.22829 -7.45826,6.82946 0,1.16855 2.85346,0.5275 5.08666,-1.14276 z m -110.08666,-0.60491 c 0,-0.50502 0.27314,-1.63002 0.60699,-2.5 0.4282,-1.11588 0.0207,-1.58179 -1.38342,-1.58179 -1.329,0 -2.14922,0.83075 -2.46832,2.5 -0.37132,1.94242 -0.0628,2.5 1.38342,2.5 1.02373,0 1.86133,-0.41319 1.86133,-0.91821 z m -44,12.63165 c 0,-2.40037 -0.0861,-2.42451 -5.25,-1.47135 -2.8875,0.53298 -9.75,0.77397 -15.25,0.53554 -8.16228,-0.35385 -11.12781,-0.94034 -16.137075,-3.19146 -14.701829,-6.60686 -17.238068,-16.54083 -7.000968,-27.42149 1.725926,-1.83442 4.462966,-4.02868 6.082311,-4.87613 3.404191,-1.78152 15.336672,-5.32478 17.552552,-5.21211 0.82675,0.042 -1.208,0.87809 -4.52167,1.85789 -11.253058,3.32736 -17.342408,7.27666 -21.096288,13.68217 -3.321106,5.66704 -3.307602,8.38169 0.06706,13.48115 4.130221,6.24118 13.0553,10.05034 25.014168,10.67587 10.13363,0.53005 21.43624,-1.00426 25.1047,-3.40792 1.29099,-0.84589 2.81705,-1.24764 3.39124,-0.89278 0.63477,0.39232 1.04397,-0.50582 1.04397,-2.29135 0,-1.61512 0.69986,-3.51741 1.55524,-4.22731 1.38666,-1.15083 1.4198,-0.99347 0.30573,1.45165 -0.96316,2.1139 -0.98051,3.17312 -0.0757,4.62193 0.74341,1.19039 0.81464,2.10151 0.19427,2.48492 -3.15354,1.949 2.65465,4.21686 6.291,2.45638 2.14483,-1.03839 2.15578,-1.02032 0.28835,0.4758 -2.68533,2.15139 -6.2984,1.9451 -7.79094,-0.44484 -1.71184,-2.74109 -3.09572,-2.51835 -6.691,1.07693 l -3.07693,3.07692 0,-2.44041 z m 7.27084,-42.3176 c 0.33229,-0.33229 1.19479,-0.36782 1.91666,-0.079 0.79774,0.31922 0.56078,0.55618 -0.60416,0.60416 -1.05417,0.0434 -1.64479,-0.19292 -1.3125,-0.52522 z m -18.52084,-1.05812 c 0.6875,-0.27741 1.8125,-0.27741 2.5,0 0.6875,0.27742 0.125,0.50439 -1.25,0.50439 -1.375,0 -1.9375,-0.22697 -1.25,-0.50439 z m 11.48835,-0.0248 c 0.95608,-0.25029 2.75608,-0.25937 4,-0.0202 1.24391,0.2392 0.46165,0.44398 -1.73835,0.45508 -2.2,0.0111 -3.21774,-0.1846 -2.26165,-0.4349 z"
     id="path2995"
     inkscape:connector-curvature="0" />
  <path
     style="fill:none;stroke:#000000;stroke-width:1px;stroke-linecap:butt;stroke-linejoin:miter;stroke-opacity:1"
     d="m 44.572968,19.577115 c 0.0013,-0.0013 6.508061,-2.349398 16.044776,-3.339552 6.137866,-0.637267 13.849503,-0.138889 13.849503,-0.138889 0,0 3.947373,0.739763 5.922914,1.099558 1.201454,0.218815 7.5989,2.663021 7.5989,2.663021 l -4.35481,-1.513551"
     id="path3022"
     inkscape:connector-curvature="0"
     sodipodi:nodetypes="cscscc" />
  <path
     style="fill:none;stroke:#000000;stroke-width:1px;stroke-linecap:butt;stroke-linejoin:miter;stroke-opacity:1"
     d="M 95.416667,27.5 81.527778,47.822196 82.169353,47.183439"
     id="path3026"
     inkscape:connector-curvature="0"
     sodipodi:nodetypes="ccc" />
  <path
     style="fill:none;stroke:#000000;stroke-width:1px;stroke-linecap:butt;stroke-linejoin:miter;stroke-opacity:1"
     d="M 118.47222,39.583333 123.61111,32.5 l 5,-5.833333"
     id="path3032"
     inkscape:connector-curvature="0" />
  <path
     style="fill:none;stroke:#000000;stroke-width:1px;stroke-linecap:butt;stroke-linejoin:miter;stroke-opacity:1"
     d="M 94.166667,52.083333 92.222222,55 c 0,0 -0.882389,0.974007 -1.388889,1.388889 -1.539231,1.26081 -2.730543,1.802739 -2.730543,1.802739 l -1.008188,0.411032"
     id="path3036"
     inkscape:connector-curvature="0"
     sodipodi:nodetypes="ccscc" />
  <path
     style="fill:none;stroke:#000000;stroke-width:1px;stroke-linecap:butt;stroke-linejoin:miter;stroke-opacity:1"
     d="m 175.97222,100.55556 2.36111,6.38888 0.41667,1.94445 0.13889,2.08333 0.13889,2.63889 0.13889,0"
     id="path3038"
     inkscape:connector-curvature="0" />
  <path
     style="fill:none;stroke:#000000;stroke-width:1px;stroke-linecap:butt;stroke-linejoin:miter;stroke-opacity:1"
     d="m 227.31387,58.558242 -1.41142,-0.411032 c 0,0 -2.68743,0.4357 -4.46632,-0.461086 -1.77889,-0.896785 -1.29724,-1.158346 -1.29724,-1.158346"
     id="path3042"
     inkscape:connector-curvature="0"
     sodipodi:nodetypes="cczc" />
  <path
     style="fill:none;stroke:#000000;stroke-width:1px;stroke-linecap:butt;stroke-linejoin:miter;stroke-opacity:1"
     d="m 185,54.027778 -0.83333,-2.361111 0.13889,-1.111111 0.41666,-0.833334"
     id="path3046"
     inkscape:connector-curvature="0" />
  <path
     style="fill:none;stroke:#000000;stroke-width:1px;stroke-linecap:butt;stroke-linejoin:miter;stroke-opacity:1"
     d="m 200,55.694444 -0.83333,-2.361111 -0.41667,-1.527777 0.27778,-1.25"
     id="path3048"
     inkscape:connector-curvature="0" />
  <path
     style="fill:none;stroke:#000000;stroke-width:1px;stroke-linecap:butt;stroke-linejoin:miter;stroke-opacity:1"
     d="m 94,50 -5.157895,1.684211 -4.421052,1.368421 -3.684211,1.052631"
     id="path3066"
     inkscape:connector-curvature="0" />
</svg>
