<?xml version="1.0" standalone="no"?>
<!DOCTYPE svg PUBLIC "-//W3C//DTD SVG 20010904//EN"
 "http://www.w3.org/TR/2001/REC-SVG-20010904/DTD/svg10.dtd">
<svg version="1.0" xmlns="http://www.w3.org/2000/svg"
 width="1086.000000pt" height="288.000000pt" viewBox="0 0 1086.000000 288.000000"
 preserveAspectRatio="xMidYMid meet">
<metadata>
Created by potrace 1.12, written by Peter Selinger 2001-2015
</metadata>
<g transform="translate(0.000000,288.000000) scale(0.100000,-0.100000)"
fill="#000000" stroke="none">
<path d="M2826 2794 c-3 -9 -6 -105 -6 -215 l0 -199 -152 0 c-84 0 -278 -3
-430 -7 -222 -5 -278 -9 -278 -20 0 -8 -12 -13 -33 -13 -18 0 -38 -5 -45 -12
-9 -9 -12 -9 -12 1 0 10 -3 11 -14 2 -7 -6 -45 -14 -82 -18 -38 -3 -73 -9 -79
-13 -5 -4 -36 -10 -68 -14 -32 -3 -65 -10 -75 -15 -9 -4 -26 -13 -38 -19 -12
-6 -43 -14 -70 -18 -26 -4 -54 -13 -62 -20 -7 -8 -22 -14 -33 -14 -10 0 -19
-4 -19 -9 0 -4 -21 -11 -46 -15 -25 -3 -52 -13 -60 -21 -9 -8 -24 -15 -35 -15
-10 0 -19 -4 -19 -9 0 -6 -20 -13 -44 -16 -25 -4 -47 -13 -50 -21 -3 -8 -12
-14 -21 -14 -8 0 -15 -4 -15 -9 0 -5 -16 -12 -35 -15 -19 -4 -35 -11 -35 -16
0 -6 -8 -10 -19 -10 -20 0 -161 -69 -229 -113 -60 -39 -144 -86 -164 -93 -10
-4 -18 -10 -18 -15 0 -5 -6 -9 -14 -9 -7 0 -25 -9 -39 -20 -14 -11 -32 -20
-40 -20 -8 0 -32 -19 -54 -42 -43 -46 -68 -65 -95 -74 -10 -4 -18 -10 -18 -15
0 -5 -6 -9 -13 -9 -19 0 -186 -177 -193 -205 -3 -14 -10 -25 -15 -25 -4 0 -11
-17 -15 -37 -4 -21 -11 -41 -17 -44 -6 -5 -6 -23 2 -55 18 -74 41 -112 72
-119 15 -4 30 -12 32 -19 3 -8 18 -16 32 -20 15 -4 34 -14 42 -21 8 -8 23 -15
34 -15 10 0 19 -4 19 -8 0 -5 39 -15 87 -22 49 -8 91 -18 95 -23 8 -13 175
-11 211 2 19 8 27 17 27 36 0 24 -3 25 -54 25 -30 0 -58 5 -61 10 -8 13 -55
13 -55 -1 0 -11 -56 -3 -75 11 -5 4 -32 11 -60 15 -27 4 -58 13 -69 21 -11 8
-28 14 -38 14 -21 0 -98 39 -98 50 0 4 -11 11 -25 14 -22 6 -25 12 -25 51 0
24 4 46 9 50 5 3 15 22 22 42 7 21 32 57 56 81 23 24 43 50 43 58 0 8 4 14 9
14 9 0 77 52 112 85 9 8 21 15 27 15 7 0 12 7 12 15 0 8 7 15 15 15 8 0 15 4
15 9 0 5 19 19 42 31 24 12 47 28 51 36 4 8 15 14 22 14 8 0 15 4 15 9 0 5 21
20 47 33 27 13 49 26 51 31 2 4 14 7 27 7 13 0 42 16 65 35 23 19 48 35 56 35
8 0 14 4 14 9 0 5 13 12 30 16 16 4 30 10 30 14 0 5 19 11 41 14 23 3 45 10
48 15 3 5 19 12 36 16 16 4 32 11 35 14 3 4 37 23 75 42 39 19 72 38 75 41 3
4 20 10 37 14 18 3 33 11 33 16 0 5 8 9 18 9 9 0 28 6 43 13 14 8 48 17 77 20
29 3 62 13 74 22 13 8 36 15 53 15 17 0 36 5 41 10 6 6 34 13 62 17 29 3 52
10 52 14 0 5 18 9 39 9 22 0 41 5 43 11 2 6 41 13 86 16 45 3 82 9 82 13 0 4
43 10 96 13 52 4 101 10 107 14 7 5 44 9 82 9 39 1 159 5 268 9 154 6 197 5
197 -4 0 -9 19 -12 68 -9 l67 3 3 -49 c2 -27 -1 -52 -7 -56 -7 -4 -9 -82 -4
-243 6 -234 7 -238 27 -235 17 2 22 11 24 43 2 22 9 44 15 48 9 6 9 10 0 14
-15 5 -18 40 -5 45 5 2 6 28 3 59 -8 67 -3 139 10 139 5 0 9 -9 9 -20 0 -11 4
-20 9 -20 4 0 11 -33 15 -72 4 -40 11 -74 16 -76 6 -2 10 -16 10 -32 0 -16 4
-30 10 -32 5 -1 13 -38 16 -80 6 -66 5 -78 -8 -78 -9 0 -18 -7 -22 -15 -3 -8
-12 -15 -21 -15 -8 0 -15 -4 -15 -9 0 -5 -13 -12 -29 -16 -16 -3 -32 -13 -35
-21 -3 -8 -11 -14 -17 -14 -6 0 -22 -11 -35 -25 -12 -13 -34 -27 -48 -31 -14
-3 -26 -10 -26 -15 0 -5 -6 -9 -13 -9 -7 0 -20 -9 -30 -20 -9 -11 -24 -20 -32
-20 -8 0 -15 -4 -15 -10 0 -5 -6 -10 -14 -10 -7 0 -25 -9 -39 -20 -14 -11 -32
-20 -41 -20 -9 0 -16 -4 -16 -10 0 -5 -11 -12 -25 -16 -14 -3 -25 -10 -25 -15
0 -4 -16 -11 -35 -15 -19 -3 -35 -10 -35 -14 0 -5 -13 -11 -29 -15 -16 -3 -32
-13 -35 -21 -3 -8 -12 -14 -21 -14 -8 0 -15 -4 -15 -10 0 -5 -5 -10 -11 -10
-6 0 -29 -13 -52 -28 -23 -15 -73 -44 -112 -63 -38 -18 -71 -37 -73 -41 -2 -4
-24 -18 -50 -30 -26 -13 -51 -29 -55 -35 -4 -7 -19 -13 -32 -13 -14 0 -25 -4
-25 -9 0 -5 -12 -12 -27 -16 -15 -3 -30 -10 -33 -13 -3 -4 -23 -16 -44 -27
-22 -11 -45 -24 -51 -30 -15 -14 -45 -33 -75 -47 -14 -7 -28 -16 -31 -21 -3
-4 -23 -10 -45 -14 -21 -3 -43 -12 -47 -20 -4 -7 -15 -13 -22 -13 -8 0 -15 -4
-15 -9 0 -5 -14 -12 -30 -16 -17 -4 -30 -11 -30 -16 0 -5 -6 -9 -13 -9 -7 0
-20 -9 -30 -20 -9 -11 -23 -20 -31 -20 -8 0 -16 -3 -18 -7 -4 -11 -67 -41
-100 -49 -15 -3 -29 -12 -32 -20 -3 -8 -12 -14 -21 -14 -8 0 -15 -3 -15 -8 0
-4 -21 -19 -47 -32 -27 -14 -50 -28 -53 -31 -3 -4 -15 -9 -27 -13 -13 -4 -23
-11 -23 -16 0 -5 -16 -12 -35 -16 -19 -3 -35 -10 -35 -14 0 -4 -16 -11 -35
-14 -19 -4 -35 -11 -35 -16 0 -6 -9 -10 -21 -10 -12 0 -41 -13 -66 -30 -24
-16 -49 -30 -55 -30 -6 0 -26 -13 -45 -30 -23 -21 -44 -30 -67 -30 -19 0 -39
-7 -46 -15 -7 -8 -20 -15 -29 -15 -9 0 -25 -7 -35 -15 -11 -8 -32 -15 -47 -15
-27 0 -91 -28 -97 -42 -2 -5 -14 -8 -26 -8 -36 0 -76 -37 -76 -70 0 -40 9 -60
26 -53 8 3 14 0 14 -7 0 -9 13 -11 45 -8 33 4 51 13 66 32 11 14 27 26 35 26
8 0 14 5 14 10 0 6 11 10 26 10 22 0 101 35 114 51 3 4 24 10 47 14 24 4 43
11 43 15 0 5 16 12 35 16 19 3 35 10 35 14 0 4 19 10 41 13 23 3 45 10 48 15
3 5 40 18 81 27 41 10 79 22 85 26 5 5 17 9 27 9 10 0 21 6 24 14 3 8 28 16
65 20 32 4 59 11 59 16 0 5 23 12 50 16 27 4 50 10 50 14 0 4 22 10 49 13 27
3 58 10 68 16 27 14 119 41 142 41 12 0 21 4 21 9 0 4 32 12 70 15 39 4 70 11
70 16 0 4 27 11 60 15 33 4 60 10 60 14 0 5 35 14 78 20 42 7 92 15 110 18 17
3 32 9 32 13 0 5 43 11 95 15 52 4 95 11 95 16 0 5 28 9 63 9 35 1 73 7 87 15
14 8 49 14 78 15 28 0 52 4 52 9 0 5 43 12 95 16 52 4 95 11 95 16 0 5 22 9
48 9 26 0 53 5 60 12 7 7 63 13 147 16 74 3 135 9 135 13 0 5 41 9 90 9 53 0
90 4 90 10 0 6 20 10 45 10 25 0 45 -4 45 -10 0 -17 46 -11 63 8 33 36 15 85
-36 105 -10 4 -25 20 -35 37 -9 16 -20 30 -24 30 -5 0 -8 7 -8 15 0 7 -6 18
-13 22 -20 12 -57 78 -57 102 0 11 -4 21 -9 21 -5 0 -12 14 -16 30 -4 16 -10
30 -15 30 -4 0 -11 16 -14 35 -4 19 -11 35 -15 35 -5 0 -11 23 -15 50 -4 28
-11 50 -16 50 -5 0 -12 20 -16 45 -3 25 -10 48 -15 51 -5 3 -9 18 -9 34 0 16
-4 31 -9 34 -5 3 -12 22 -16 42 -6 33 -3 39 27 65 18 15 38 28 44 29 7 0 14 7
18 15 3 8 11 15 19 15 7 0 24 13 37 30 14 16 30 29 36 30 15 0 71 61 78 85 3
11 17 32 30 47 14 14 28 38 32 52 3 14 9 26 13 26 4 0 5 30 3 68 -3 48 -10 73
-23 88 -10 11 -19 23 -19 27 0 11 -39 47 -50 47 -5 0 -18 8 -28 18 -29 29 -88
62 -111 62 -11 0 -21 5 -21 11 0 6 -9 8 -20 4 -12 -4 -27 -2 -34 5 -8 6 -37
13 -65 17 -28 3 -54 10 -57 14 -3 5 -13 9 -23 9 -32 0 -51 33 -51 86 0 28 -4
54 -10 60 -5 5 -13 58 -17 117 -3 59 -10 110 -15 113 -4 3 -8 16 -8 30 0 15
-6 24 -15 24 -8 0 -15 5 -15 10 0 16 -37 11 -44 -6z m292 -554 c2 -5 19 -12
38 -16 19 -3 34 -10 34 -14 0 -4 16 -10 36 -13 25 -4 50 -21 85 -56 43 -44 49
-55 49 -93 0 -38 -6 -48 -44 -86 -25 -23 -47 -55 -51 -72 -4 -17 -15 -32 -27
-36 -12 -3 -32 -19 -46 -35 -13 -16 -28 -29 -33 -29 -6 0 -20 -11 -33 -25 -13
-14 -32 -25 -43 -25 -17 0 -22 9 -27 50 -4 27 -11 52 -16 55 -5 3 -12 30 -15
60 -4 30 -11 55 -16 55 -5 0 -9 20 -9 44 0 24 -4 46 -9 48 -4 2 -11 50 -13
107 l-5 104 71 -7 c39 -4 72 -11 74 -16z m-84 -728 c5 -23 12 -42 16 -42 4 0
11 -20 14 -45 4 -25 11 -45 16 -45 5 0 12 -20 16 -45 3 -25 10 -45 15 -45 5 0
9 -9 9 -19 0 -11 4 -22 9 -25 5 -4 12 -24 16 -46 4 -22 11 -40 16 -40 5 0 9
-7 9 -16 0 -9 6 -30 14 -47 38 -90 54 -117 74 -130 6 -4 12 -19 12 -32 0 -25
-1 -25 -85 -25 -47 0 -85 -4 -85 -8 0 -5 -41 -9 -91 -10 -51 -1 -97 -7 -105
-13 -8 -6 -43 -14 -79 -17 -36 -2 -65 -9 -65 -13 0 -5 -42 -9 -94 -9 -52 0
-97 -4 -100 -9 -3 -5 -31 -12 -61 -16 -30 -3 -55 -10 -55 -14 0 -5 -42 -11
-92 -15 -51 -4 -97 -11 -102 -17 -6 -5 -20 -9 -33 -9 -13 0 -23 -4 -23 -9 0
-5 -32 -12 -70 -16 -39 -4 -72 -11 -75 -15 -3 -5 -43 -11 -90 -15 -47 -4 -85
-10 -85 -14 0 -7 -100 -26 -192 -37 -32 -3 -58 -10 -58 -14 0 -4 -23 -10 -50
-13 -28 -3 -60 -13 -72 -22 -13 -8 -35 -15 -50 -15 -16 0 -28 -4 -28 -9 0 -4
-19 -11 -42 -14 -24 -3 -44 -11 -46 -16 -2 -6 -16 -11 -31 -11 -15 0 -32 -5
-38 -11 -7 -7 -19 -9 -27 -6 -15 6 -14 9 1 27 10 11 23 20 30 20 7 0 13 5 13
10 0 6 5 10 10 10 6 0 29 13 52 30 22 16 52 30 65 30 12 0 23 4 23 10 0 5 16
12 35 16 20 3 44 17 54 30 10 13 23 24 29 24 5 0 15 6 21 14 6 7 25 16 41 20
28 5 39 11 75 44 8 7 28 15 45 18 17 4 33 11 36 15 3 5 14 9 24 9 10 0 23 7
28 16 9 16 43 38 75 50 9 3 17 10 17 14 0 4 12 11 26 14 24 6 34 13 68 43 8 7
32 15 55 19 23 4 41 10 41 15 0 5 7 9 15 9 9 0 18 6 21 14 3 8 19 18 35 21 16
4 29 11 29 16 0 5 7 9 15 9 9 0 18 6 21 14 3 8 17 17 31 21 13 3 35 17 47 30
13 14 37 28 55 31 17 4 31 10 31 15 0 5 13 9 28 9 16 0 37 9 47 20 10 11 24
20 30 20 7 0 15 7 19 15 3 8 12 15 21 15 8 0 15 4 15 9 0 5 13 12 29 16 16 3
32 13 35 21 3 8 12 14 21 14 8 0 15 4 15 9 0 5 14 12 30 16 17 4 30 10 30 14
0 3 20 17 45 31 24 13 47 30 49 37 3 7 12 13 21 13 8 0 15 4 15 8 0 5 19 17
43 28 23 10 53 29 66 41 34 33 54 26 65 -25z"/>
<path d="M5742 2350 c-32 -5 -38 -12 -73 -77 -7 -13 -16 -23 -20 -23 -4 0 -10
-13 -14 -29 -3 -16 -12 -32 -20 -34 -7 -3 -16 -20 -20 -37 -4 -17 -13 -43 -21
-58 -16 -31 -18 -58 -5 -66 11 -7 71 59 71 78 0 7 9 21 20 31 11 10 20 22 20
26 0 12 32 49 42 49 5 0 8 -15 8 -34 0 -19 4 -36 8 -38 11 -4 22 -111 14 -125
-4 -6 -47 -13 -97 -17 -49 -4 -91 -11 -93 -16 -2 -6 -30 -10 -63 -10 -32 0
-59 -4 -59 -9 0 -4 -36 -12 -80 -15 -44 -4 -80 -11 -80 -16 0 -5 -29 -12 -65
-15 -36 -4 -65 -11 -65 -16 0 -5 -27 -9 -60 -9 -33 0 -60 -4 -60 -9 0 -5 -29
-12 -65 -16 -36 -3 -65 -10 -65 -15 0 -5 -34 -11 -75 -15 -82 -8 -265 12 -265
28 0 6 -43 7 -112 3 -62 -4 -165 -9 -228 -11 -63 -3 -131 -10 -150 -15 -19 -6
-61 -10 -92 -10 -32 0 -58 -4 -58 -10 0 -6 -43 -10 -108 -10 -60 0 -113 -5
-118 -10 -6 -6 -40 -13 -77 -17 -37 -3 -67 -9 -67 -13 0 -4 -28 -10 -61 -13
-34 -3 -65 -10 -68 -15 -3 -5 -24 -12 -45 -15 -22 -4 -44 -13 -48 -22 -5 -8
-15 -15 -23 -15 -18 0 -29 -41 -20 -72 12 -39 35 -57 84 -64 25 -4 49 -11 52
-16 8 -12 219 -23 219 -11 0 6 37 13 82 17 45 4 87 11 92 15 6 5 40 11 76 14
73 4 175 24 204 39 11 6 54 13 98 15 43 3 78 9 78 13 0 4 32 10 70 14 39 3 79
11 90 16 11 6 28 14 38 19 10 5 50 12 90 16 40 4 74 11 77 15 16 26 205 17
205 -10 0 -5 14 -11 30 -15 17 -4 30 -11 30 -16 0 -5 18 -12 40 -15 22 -4 40
-10 40 -15 0 -5 5 -9 12 -9 6 0 19 -7 29 -16 15 -14 16 -18 4 -30 -7 -8 -18
-14 -24 -14 -6 0 -32 -11 -59 -24 -26 -14 -69 -35 -97 -47 -46 -22 -133 -76
-145 -90 -3 -4 -20 -10 -37 -14 -18 -3 -41 -17 -52 -31 -10 -13 -33 -27 -50
-30 -36 -8 -145 -117 -155 -157 -3 -15 -11 -27 -16 -27 -13 0 -13 -97 0 -113
6 -7 19 -24 31 -39 11 -16 27 -28 35 -28 8 0 14 -4 14 -10 0 -5 11 -12 25 -16
14 -3 25 -10 25 -14 0 -5 14 -11 30 -15 17 -4 30 -11 30 -15 0 -5 7 -7 16 -3
9 3 19 1 23 -6 4 -6 51 -14 114 -17 59 -4 107 -10 107 -13 0 -3 27 -4 60 -3
39 3 60 0 60 -7 0 -14 59 -14 308 1 111 6 202 16 202 20 0 4 52 8 115 8 70 0
115 4 115 10 0 6 38 10 93 10 54 0 98 5 104 11 6 6 72 13 157 16 80 3 146 9
146 13 0 4 9 10 20 13 33 8 27 68 -10 105 -16 17 -30 35 -30 41 0 7 48 10 140
10 77 0 145 3 151 6 5 4 16 1 24 -5 9 -7 15 -8 15 -2 0 6 82 12 210 17 116 4
210 11 210 16 0 5 28 9 63 9 35 0 67 4 73 10 5 5 64 12 132 16 67 4 125 11
128 16 3 4 50 8 105 8 54 0 99 4 99 9 0 4 40 11 89 14 49 4 101 11 115 17 15
5 54 10 86 10 32 0 61 4 64 8 3 5 52 12 108 15 57 3 119 11 138 17 19 5 61 10
92 10 32 0 58 4 58 9 0 5 50 13 110 16 61 4 110 11 110 15 0 4 37 8 82 9 45 1
87 6 92 10 6 5 49 11 96 14 47 3 117 11 155 16 39 6 201 16 360 22 160 7 369
16 465 22 207 12 651 11 659 -1 3 -5 68 -15 145 -21 110 -10 143 -17 159 -31
26 -25 16 -66 -23 -88 -17 -9 -30 -22 -30 -29 0 -7 -10 -21 -21 -32 -16 -15
-20 -27 -15 -45 8 -32 32 -33 60 -3 12 13 29 26 39 30 9 3 17 13 17 22 0 8 7
15 15 15 8 0 15 7 15 15 0 8 4 15 10 15 5 0 12 11 16 25 3 14 10 25 15 25 12
0 11 42 -2 94 -13 51 -42 69 -139 87 -36 7 -71 16 -77 22 -9 6 -13 5 -13 -4
-1 -10 -5 -8 -15 5 -14 18 -28 19 -405 12 -373 -7 -390 -6 -390 11 0 12 -3 14
-8 6 -5 -8 -47 -13 -130 -14 -89 -1 -122 -5 -122 -14 0 -10 -92 -14 -395 -20
-325 -6 -395 -10 -395 -21 0 -10 -16 -14 -60 -14 -33 0 -60 -4 -60 -9 0 -5
-45 -12 -100 -16 -55 -3 -100 -11 -100 -16 0 -5 -29 -9 -64 -9 -36 0 -67 -4
-70 -9 -3 -5 -60 -12 -126 -16 -66 -4 -120 -11 -120 -16 0 -5 -43 -9 -95 -9
-52 0 -95 -4 -95 -8 0 -8 -122 -21 -355 -39 -38 -3 -73 -10 -77 -16 -3 -6 -45
-13 -92 -15 -48 -2 -89 -8 -92 -13 -3 -5 -41 -9 -85 -9 -46 0 -79 -4 -79 -10
0 -6 -28 -10 -62 -11 -35 0 -101 -6 -148 -13 -47 -7 -130 -14 -185 -15 -55 -1
-101 -6 -103 -11 -5 -13 -122 -13 -122 0 0 6 -9 10 -20 10 -11 0 -20 -5 -20
-11 0 -15 -259 -7 -268 8 -4 5 -15 12 -24 16 -12 4 -18 17 -18 37 0 16 -4 30
-9 30 -5 0 -12 13 -16 30 -4 17 -11 30 -16 30 -5 0 -9 7 -9 16 0 9 -9 27 -20
41 -11 14 -20 39 -20 54 0 16 -4 29 -10 29 -5 0 -10 10 -10 23 0 12 -7 32 -15
43 -23 34 -45 106 -45 151 0 23 -4 45 -10 48 -23 14 1 65 31 65 7 0 26 11 43
24 21 16 52 26 94 31 34 4 62 10 62 13 0 11 52 32 61 26 5 -3 9 -1 9 4 0 5 23
12 50 16 28 4 50 10 50 15 0 5 19 11 42 14 24 3 44 10 46 16 2 6 19 13 38 17
19 3 34 10 34 15 0 5 6 9 14 9 23 0 31 58 11 80 -21 23 -84 38 -94 22 -4 -6
-26 -14 -49 -18 -23 -4 -42 -10 -42 -14 0 -4 -16 -11 -35 -14 -19 -4 -35 -11
-35 -16 0 -7 -172 -27 -207 -23 -7 0 -13 -3 -13 -8 0 -5 -13 -9 -29 -9 -17 0
-32 -4 -35 -9 -8 -12 -63 -19 -77 -11 -16 11 -39 116 -39 183 0 31 -4 57 -10
57 -5 0 -10 12 -10 28 0 38 -27 58 -68 52z m38 -450 c0 -23 -5 -30 -30 -35
-16 -4 -30 -11 -30 -16 0 -5 -15 -9 -34 -9 -19 0 -38 -4 -41 -10 -3 -5 -14
-10 -24 -10 -10 0 -30 -9 -44 -20 -14 -11 -39 -20 -55 -20 -17 0 -34 -4 -37
-10 -3 -5 -14 -10 -24 -10 -10 0 -30 -9 -44 -20 -14 -11 -39 -20 -56 -20 -17
0 -31 -4 -31 -9 0 -5 -15 -13 -32 -16 -18 -4 -37 -11 -43 -15 -5 -4 -25 -11
-42 -15 -18 -3 -33 -11 -33 -16 0 -5 -18 -9 -40 -9 -22 0 -40 4 -40 8 0 10
-77 62 -91 62 -5 0 -9 5 -9 10 0 6 -6 10 -12 10 -17 1 -62 39 -55 46 3 4 28 9
54 11 26 3 54 10 60 15 7 6 51 13 98 16 47 2 85 9 85 13 0 5 19 9 43 9 24 0
47 4 53 9 5 6 41 13 79 17 39 4 72 11 75 15 3 4 39 11 80 15 41 3 77 10 80 14
6 8 121 28 133 23 4 -3 7 -17 7 -33z m-1380 -110 c0 -5 19 -10 42 -10 65 0 33
-19 -45 -27 -37 -3 -67 -10 -67 -14 0 -5 -22 -11 -50 -15 -27 -4 -50 -10 -50
-15 0 -5 -22 -9 -49 -9 -28 0 -52 -4 -55 -9 -4 -5 -45 -12 -94 -16 -48 -4 -91
-11 -97 -15 -5 -4 -37 -10 -70 -14 -33 -3 -82 -10 -110 -15 -56 -11 -305 -14
-329 -5 -9 3 -16 10 -16 14 0 13 60 32 115 37 27 3 52 8 55 13 3 4 32 11 65
15 33 3 69 10 80 15 26 11 183 30 303 37 50 3 92 9 92 14 0 5 51 9 114 9 66 0
117 4 121 10 3 6 15 10 26 10 10 0 19 -4 19 -10z m1386 2 c6 -4 14 -34 17 -66
3 -33 10 -62 15 -65 5 -3 12 -24 15 -45 4 -22 10 -42 15 -45 5 -3 12 -27 16
-53 4 -27 11 -48 15 -48 10 0 41 -73 41 -98 0 -12 4 -22 10 -22 9 0 33 -46 45
-87 6 -20 3 -23 -24 -23 -17 0 -31 4 -31 9 0 5 -24 12 -54 15 -30 4 -62 14
-72 21 -11 8 -39 15 -63 15 -42 0 -43 -1 -36 -27 6 -25 30 -52 48 -53 5 0 15
-7 23 -15 9 -8 30 -15 49 -15 18 0 35 -5 37 -11 2 -6 39 -15 83 -21 94 -13
125 -34 125 -85 0 -30 -3 -33 -29 -33 -17 0 -33 -4 -36 -10 -4 -6 -54 -10
-116 -10 -61 0 -118 -4 -127 -9 -9 -5 -89 -12 -177 -16 -88 -4 -163 -12 -166
-17 -3 -5 -34 -9 -67 -10 -34 0 -62 -5 -62 -9 0 -5 -7 -9 -15 -9 -8 0 -15 5
-15 12 0 9 -3 9 -12 0 -15 -15 -144 -16 -153 -2 -4 6 -23 7 -46 4 -28 -5 -39
-3 -39 6 0 10 -3 10 -15 0 -10 -9 -15 -9 -15 -1 0 6 -13 11 -30 11 -16 0 -30
-5 -30 -11 0 -6 -5 -7 -12 -2 -7 4 -77 13 -155 19 -78 6 -148 15 -155 21 -7 5
-32 15 -55 22 -51 14 -67 40 -60 93 5 37 41 87 63 88 6 0 27 18 47 40 19 22
38 40 42 40 8 0 69 43 73 53 2 4 12 7 23 7 11 0 27 9 36 20 10 11 23 20 29 20
14 0 76 31 84 42 3 3 18 10 33 13 15 4 27 11 27 15 0 5 15 12 33 15 17 4 37
11 42 15 6 4 25 11 43 15 17 3 32 11 32 16 0 39 101 -38 135 -103 11 -21 23
-38 27 -38 4 0 10 -21 13 -47 3 -27 10 -55 14 -63 5 -9 3 -20 -5 -28 -15 -14
-34 -16 -34 -3 0 9 -194 31 -273 31 -43 0 -47 -2 -47 -24 0 -34 33 -54 102
-62 32 -4 58 -10 58 -14 0 -5 27 -11 60 -15 65 -8 117 -30 161 -70 29 -25 59
-33 59 -16 0 5 13 12 29 16 42 9 54 67 26 121 -8 16 -15 39 -15 52 0 12 -4 22
-10 22 -5 0 -12 16 -16 35 -3 19 -10 35 -14 35 -5 0 -11 14 -15 30 -4 17 -10
30 -15 30 -4 0 -18 19 -30 43 -12 23 -28 46 -36 50 -8 4 -14 15 -14 22 0 8 -4
15 -10 15 -22 0 -8 26 25 48 19 12 38 22 41 22 4 0 28 10 53 21 67 31 82 37
119 44 17 4 32 10 32 15 0 5 20 12 44 15 25 4 47 13 50 21 3 8 12 14 21 14 8
0 15 4 15 9 0 5 23 11 50 15 28 4 50 11 50 16 0 7 13 13 40 19 3 0 10 -3 16
-7z"/>
<path d="M3547 1112 c-18 -20 -23 -62 -8 -62 5 0 11 -9 14 -20 3 -11 12 -20
21 -20 9 0 16 -4 16 -9 0 -5 11 -12 25 -15 14 -4 25 -11 25 -16 0 -6 6 -10 13
-10 7 0 30 -9 51 -19 21 -11 52 -23 69 -27 18 -3 37 -10 42 -14 6 -4 37 -11
70 -15 135 -15 175 -6 175 39 0 32 -51 53 -155 65 -49 5 -103 17 -120 25 -16
9 -36 16 -43 16 -7 0 -20 7 -28 15 -9 8 -24 15 -35 15 -10 0 -19 7 -19 15 0 9
-8 19 -17 22 -10 4 -24 13 -31 20 -19 18 -46 16 -65 -5z"/>
</g>
</svg>
