<?xml version="1.0" encoding="UTF-8" standalone="no"?>
<!-- Created with Inkscape (http://www.inkscape.org/) -->

<svg
   xmlns:dc="http://purl.org/dc/elements/1.1/"
   xmlns:cc="http://creativecommons.org/ns#"
   xmlns:rdf="http://www.w3.org/1999/02/22-rdf-syntax-ns#"
   xmlns:svg="http://www.w3.org/2000/svg"
   xmlns="http://www.w3.org/2000/svg"
   xmlns:sodipodi="http://sodipodi.sourceforge.net/DTD/sodipodi-0.dtd"
   xmlns:inkscape="http://www.inkscape.org/namespaces/inkscape"
   id="svg2985"
   version="1.1"
   inkscape:version="0.48.1 "
   width="298"
   height="133"
   sodipodi:docname="Raj Babbar.jpg">
  <metadata
     id="metadata2991">
    <rdf:RDF>
      <cc:Work
         rdf:about="">
        <dc:format>image/svg+xml</dc:format>
        <dc:type
           rdf:resource="http://purl.org/dc/dcmitype/StillImage" />
        <dc:title></dc:title>
      </cc:Work>
    </rdf:RDF>
  </metadata>
  <defs
     id="defs2989" />
  <sodipodi:namedview
     pagecolor="#ffffff"
     bordercolor="#666666"
     borderopacity="1"
     objecttolerance="10"
     gridtolerance="10"
     guidetolerance="10"
     inkscape:pageopacity="0"
     inkscape:pageshadow="2"
     inkscape:window-width="1366"
     inkscape:window-height="706"
     id="namedview2987"
     showgrid="false"
     inkscape:zoom="1.6107383"
     inkscape:cx="149"
     inkscape:cy="66.5"
     inkscape:window-x="0"
     inkscape:window-y="0"
     inkscape:window-maximized="1"
     inkscape:current-layer="svg2985" />
  <path
     style="fill:#000000"
     d="m 241.19291,125.47262 c -1.5888,-1.14731 -2.21148,-2.46808 -2,-4.24219 0.40497,-3.39734 2.15917,-3.84227 4.64191,-1.17735 2.06098,2.2122 5.94747,2.33355 13.41518,0.41886 4.25816,-1.09178 3.51656,1.93583 -1,4.08256 -5.38615,2.56004 -12.20738,2.97597 -15.05709,0.91812 z m -76.66426,-9.82801 c -1.13487,-0.82984 -1.6089,-1.9931 -1.22251,-3 0.50151,-1.30694 2.05211,-1.64461 7.55201,-1.64461 3.8065,0 10.45812,-0.66306 14.78138,-1.47346 13.5806,-2.54571 63.84248,-8.47712 72.11047,-8.50976 4.26255,-0.0168 5.77814,1.40891 2.5,2.35179 -0.9625,0.27684 -6.925,1.02268 -13.25,1.65741 -19.72659,1.97964 -47.8896,6.03953 -62.90602,9.06833 -16.52446,3.33298 -17.06842,3.37608 -19.56533,1.5503 z m 76.75776,-36.345572 c -3.2856,-0.636161 -8.28699,-5.738738 -8.28267,-8.450248 0.002,-1.291834 0.85771,-3.74925 1.90146,-5.460922 1.75876,-2.884252 1.77679,-3.216459 0.24626,-4.536907 -0.9083,-0.783626 -2.3475,-2.482182 -3.19821,-3.774571 l -1.54674,-2.349797 -4.95326,2.244954 c -10.87677,4.929658 -22.84494,6.360773 -30.39113,3.634071 -2.8098,-1.015277 -4.18001,-0.983548 -7.5,0.173672 -2.77866,0.968534 -6.74776,1.272044 -12.56212,0.960603 -8.32118,-0.445718 -8.64726,-0.375464 -15.5,3.339395 -3.85,2.08708 -10.6,5.037734 -15,6.557008 -7.05491,2.435989 -9.4767,2.764542 -20.5,2.781147 C 108.97769,74.440071 102.41396,72.414366 96.577723,65.95435 93.350671,62.38239 93,61.43234 93,56.261472 93,48.573988 96.591363,41.549993 105.14071,32.516652 124.96661,11.568361 151.76755,3.5288837 158,16.660451 c 0.92287,1.944452 3.09248,3.938656 5.63896,5.183054 2.27642,1.112432 5.82187,3.500226 7.87877,5.30621 2.05691,1.805984 4.91938,3.438034 6.36105,3.626777 3.7826,0.495218 6.71749,2.690127 8.26165,6.178624 C 187.28369,39.537928 188.03662,40 191.10196,40 c 2.17011,0 6.24199,-1.369938 10.19287,-3.429276 7.41652,-3.865755 14.67007,-5.363378 18.19596,-3.756876 1.28461,0.585308 2.92463,2.692989 3.6445,4.683735 1.0542,2.91535 1.70338,3.510228 3.33677,3.057682 11.55036,-3.200116 15.64583,-3.822579 18.02332,-2.739324 3.21419,1.464484 3.60416,5.667816 0.43245,4.661153 -3.43582,-1.090487 -6.69127,0.342351 -8.35497,3.677309 -2.063,4.135389 -1.98452,6.118347 0.42942,10.850064 l 2.00228,3.92479 4.24772,-2.790598 C 245.58853,56.60383 250.425,53.485622 254,51.209309 c 9.82016,-6.252801 15,-10.157843 15,-11.308389 0,-0.569632 -0.85085,-0.765647 -1.89077,-0.435589 -1.46805,0.46594 -2.13876,-0.111284 -3,-2.581835 C 263.49915,35.133428 263,32.868704 263,31.850777 c 0,-3.097829 4.31206,-2.22093 8.3466,1.697361 7.36705,7.154789 4.00005,11.703176 -17.3466,23.43305 -15.89091,8.731972 -19.29126,13.624866 -12,17.267258 4.65546,2.325663 16.82765,2.360838 23.22729,0.06712 5.01586,-1.797752 6.87533,-1.34907 4.79539,1.15711 -2.88463,3.475759 -19.27516,5.65823 -28.73627,3.82636 z M 142.38559,68.103297 c 7.28827,-2.586705 16.44409,-7.018703 17.27417,-8.361799 0.34157,-0.552669 -0.15785,-1.440737 -1.10981,-1.973484 -0.95197,-0.532747 -2.32385,-2.378963 -3.04863,-4.102702 l -1.31778,-3.13407 -10.84177,0.308206 c -17.23053,0.489824 -31.32505,-3.188855 -36.26125,-9.464211 -1.15969,-1.474309 -2.24996,-2.499364 -2.42283,-2.277899 -6.223158,7.972672 -8.858258,14.402629 -7.918054,19.320988 0.765257,4.003184 6.499204,9.276252 12.014704,11.048987 6.87707,2.210361 25.71255,1.446432 33.63125,-1.364016 z M 185.6849,56.82631 188.5,55.65262 185,55.07631 c -3.04088,-0.500711 -3.62092,-1.065785 -4.42182,-4.307709 -0.73933,-2.992694 -0.59085,-4.097117 0.75,-5.578741 2.25793,-2.494984 2.10632,-5.837409 -0.3606,-7.949647 -2.65332,-2.271844 -3.41495,-1.554424 -3.0924,2.912909 0.27686,3.834376 -3.06165,12.926822 -5.48478,14.937837 -0.76472,0.634662 -1.3904,1.54883 -1.3904,2.031486 0,1.296408 11.41742,1.066165 14.6849,-0.296135 z m 20.5026,0.490576 c -0.72188,-0.288871 -1.58438,-0.253344 -1.91667,0.07895 -0.33229,0.332292 0.25834,0.568641 1.3125,0.52522 1.16495,-0.04798 1.4019,-0.284941 0.60417,-0.604167 z M 216,55.95431 c 1.09546,-0.741306 0.69092,-0.834084 -1.5,-0.34401 -3.67693,0.822471 -4.47511,1.394827 -1.91667,1.374387 C 213.6375,56.976265 215.175,56.512596 216,55.95431 z M 168.68384,52.75 c 1.69189,-1.7875 3.58017,-4.232916 4.19617,-5.434259 C 174.34906,44.450734 174.34041,37 172.86803,37 c -2.05789,0 -7.79749,4.092201 -9.91962,7.072448 -1.90167,2.670658 -1.94693,3.07189 -0.5087,4.510119 2.0029,2.002899 1.1942,3.395964 -1.55419,2.677244 -1.86908,-0.488774 -1.98551,-0.315161 -1.01046,1.506727 1.07393,2.006665 2.53862,2.994186 4.67877,3.154515 0.57961,0.04342 2.43811,-1.383553 4.13001,-3.171053 z m 26.48742,-1.404988 C 197.0845,49.613557 197.68311,46 196.0567,46 194.85932,46 192,50.033444 192,51.722506 c 0,1.723595 0.97826,1.607147 3.17126,-0.377494 z m 15.26364,0.679739 C 211.84571,51.488364 213,50.395979 213,49.597229 c 0,-0.79875 1.38686,-2.537655 3.08191,-3.864232 2.41169,-1.887426 3.00973,-3.044914 2.75,-5.322478 -0.31987,-2.804974 -0.51497,-2.906076 -5.37998,-2.788007 -2.87011,0.06965 -6.74145,0.991269 -8.97299,2.136121 -3.83884,1.969441 -3.92694,2.136751 -4.01639,7.627488 L 200.37109,53 l 3.74935,0 c 2.06215,0 4.90366,-0.438862 6.31446,-0.975249 z m 17.82532,-2.56522 c 3.93225,-3.646186 3.69226,-5.666316 -0.51022,-4.294918 -3.18226,1.038467 -6.75,4.181343 -6.75,5.946171 0,1.843031 4.62662,0.790761 7.26022,-1.651253 z M 189.17031,46.75 c 0.58417,-1.135821 0.52544,-1.75 -0.16735,-1.75 -1.30937,0 -2.98225,4.140119 -2.20246,5.450746 0.31112,0.52291 0.76909,0.29791 1.01771,-0.5 0.24863,-0.79791 0.85707,-2.238246 1.3521,-3.200746 z m -57.98215,-1.810529 c -0.72886,-3.063033 1.08319,-6.014182 5.15963,-8.403138 C 139.7878,34.520354 142.01859,34 147.22123,34 c 7.29191,0 7.7368,-0.472668 7.76512,-8.25 L 155,22 l -6.89052,0 c -4.12546,0 -10.76877,1.007651 -16.55508,2.511061 -25.04765,6.507928 -28.79723,15.425632 -8.66314,20.603709 7.2072,1.853544 8.7718,1.820487 8.2969,-0.175299 z m 21.06024,1.008391 c 2.55446,-0.709412 4.23486,-1.981711 5.27568,-3.994424 1.6835,-3.255536 0.14466,-4.250257 -2.01213,-1.300663 C 154.18328,42.46984 152,41.716503 152,39.440983 c 0,-2.289308 -9.73263,-1.901378 -13.75,0.548057 -4.3788,2.669804 -4.19013,4.763093 0.5,5.54754 2.0625,0.344964 4.2,0.779828 4.75,0.966366 1.96419,0.666174 5.05763,0.469896 8.7484,-0.555084 z M 167.04418,34.75 c 2.16723,-1.2375 3.94388,-2.547498 3.94812,-2.911106 0.0204,-1.747323 -10.38996,-8.843576 -11.37133,-7.751335 -0.20381,0.226843 -0.67951,2.961631 -1.05709,6.077308 -0.60144,4.962818 -0.46204,5.723006 1.1248,6.133998 3.10097,0.803151 3.31556,0.757964 7.3555,-1.548865 z M 139,18.946512 c 3.025,-0.51421 7.75,-0.951846 10.5,-0.972523 4.61438,-0.0347 4.85029,-0.150828 3.05887,-1.505792 -3.69135,-2.791996 -15.90277,-1.206045 -23.2376,3.017968 L 126.5,21.110893 130,20.496167 c 1.925,-0.3381 5.975,-1.035445 9,-1.549655 z M 7.0122219,74.022837 C 5.5077684,71.21174 7.8483218,66.146588 14.39716,58.041219 19.235931,52.052365 19.628308,51.212166 18.382201,49.508014 12.958008,42.089988 23.087012,27.026654 41.90011,14.533388 54.70777,6.0281693 56.621707,5.1931359 58.652879,7.2243075 60.091545,8.6629732 59.988644,9.2502087 57.495062,13.831739 55.989813,16.597377 52.198144,21.479133 49.06913,24.680086 41.423619,32.501373 26,49.601945 26,50.257435 c 0,0.289162 1.170309,0.819478 2.600686,1.17848 C 31.446493,52.150167 38,50.397696 38,48.922448 c 0,-1.228648 2.720148,-1.184276 3.487227,0.05688 1.20713,1.953177 -1.613611,4.97761 -5.65809,6.066676 -3.063012,0.824783 -5.316246,0.816963 -8.680347,-0.03013 -4.107149,-1.034192 -4.69261,-0.954209 -6.096144,0.832822 -10.674513,13.591189 -12.154364,16.165796 -9.271261,16.129899 0.945238,-0.01177 4.829781,-2.036769 8.632317,-4.5 C 30.621381,60.866206 35,61.347462 35,69.081787 c 0,1.801237 0.47845,2.822523 1.25,2.668213 0.6875,-0.1375 1.25,0.65 1.25,1.75 0,2.619252 -3.688141,3.169002 -5.967616,0.889526 -1.172175,-1.172174 -1.53693,-2.616798 -1.149646,-4.553216 0.791559,-3.957796 -0.763692,-3.673018 -8.969036,1.642292 -7.75214,5.021731 -12.6157217,5.880955 -14.4014801,2.544235 z M 39.731075,28.977615 C 50.317573,17.101273 53.469782,13.136448 52.832311,12.498978 51.881252,11.547919 32.74632,25.526941 29.223681,29.746259 c -6.669297,7.988296 -9.791155,15.352934 -7.485463,17.658626 0.7808,0.780799 1.815473,-0.278855 17.992857,-18.42727 z M 42.75,65.940339 c -2.524046,-1.499599 -2.218314,-7.082654 0.70361,-12.848792 2.572436,-5.076458 4.598071,-6.639866 6.342628,-4.895309 0.719931,0.719931 0.14198,2.499332 -1.878145,5.782454 -3.479088,5.654238 -3.73327,8.574872 -0.812737,9.338608 1.157946,0.30281 1.910198,1.142794 1.671672,1.866632 -0.556997,1.690278 -3.775344,2.094189 -6.027028,0.756407 z m 18,-3.020438 C 57.581831,61.074612 59.125705,55 62.762858,55 c 0.839367,0 1.242686,0.864254 1.05,2.25 -0.272638,1.960748 0.07281,2.207242 2.687142,1.917399 3.508097,-0.388932 8.656689,-3.137466 9.258369,-4.942505 C 75.988777,53.533668 73.37219,50.387793 69.943729,47.23406 60.689573,38.721452 57.887524,30.637741 61.44571,22.717881 65.317224,14.100611 77.325825,6.8897316 92.466034,4.0909118 102.21641,2.2884561 109,5.4359055 109,11.762344 109,15.376895 105.47525,21.560764 96.609724,33.5 87.043194,46.383284 82.294459,53.747134 81.831996,56.415786 c -0.252761,1.458559 0.500247,2.136369 3.155117,2.840034 3.298452,0.874244 3.382791,1.000531 1.558871,2.334214 -2.536454,1.8547 -5.028644,1.784449 -7.010715,-0.197622 -1.476785,-1.476785 -2.006221,-1.436102 -6.50681,0.5 -5.306722,2.28289 -9.518015,2.6353 -12.278459,1.027489 z M 81.375511,48.240735 C 82.160291,46.723139 87.324892,39.25892 92.852402,31.653583 107.8376,11.035348 108.35038,7.2581599 96.022981,8.298461 83.254839,9.3759565 69.356444,16.542459 65.473777,24.050709 c -3.446579,6.66495 -1.222363,12.603066 7.92395,21.155012 3.35625,3.138146 6.203217,5.725646 6.326593,5.75 0.123376,0.02435 0.866412,-1.19739 1.651191,-2.714986 z M 286.30397,36.75 c -1.69861,-1.7875 -4.14938,-5.22145 -5.44617,-7.630999 -1.29679,-2.40955 -2.94073,-5.438453 -3.65321,-6.730895 C 275.91007,20.039828 276.9575,16 278.86087,16 c 1.58392,0 4.86275,4.629551 7.08238,10 1.25024,3.025 3.3744,6.965148 4.72034,8.755885 4.26143,5.669709 0.68688,7.30473 -4.35962,1.994115 z"
     id="path2995"
     inkscape:connector-curvature="0" />
</svg>
