<?xml version="1.0" encoding="UTF-8" standalone="no"?>
<!-- Created with Inkscape (http://www.inkscape.org/) -->

<svg
   xmlns:dc="http://purl.org/dc/elements/1.1/"
   xmlns:cc="http://creativecommons.org/ns#"
   xmlns:rdf="http://www.w3.org/1999/02/22-rdf-syntax-ns#"
   xmlns:svg="http://www.w3.org/2000/svg"
   xmlns="http://www.w3.org/2000/svg"
   xmlns:sodipodi="http://sodipodi.sourceforge.net/DTD/sodipodi-0.dtd"
   xmlns:inkscape="http://www.inkscape.org/namespaces/inkscape"
   id="svg3051"
   version="1.1"
   inkscape:version="0.48.5 r10040"
   width="414"
   height="119"
   sodipodi:docname="Charles-K.-Wheeler-sig.jpg">
  <metadata
     id="metadata3057">
    <rdf:RDF>
      <cc:Work
         rdf:about="">
        <dc:format>image/svg+xml</dc:format>
        <dc:type
           rdf:resource="http://purl.org/dc/dcmitype/StillImage" />
        <dc:title></dc:title>
      </cc:Work>
    </rdf:RDF>
  </metadata>
  <defs
     id="defs3055" />
  <sodipodi:namedview
     pagecolor="#ffffff"
     bordercolor="#666666"
     borderopacity="1"
     objecttolerance="10"
     gridtolerance="10"
     guidetolerance="10"
     inkscape:pageopacity="0"
     inkscape:pageshadow="2"
     inkscape:window-width="1366"
     inkscape:window-height="705"
     id="namedview3053"
     showgrid="false"
     inkscape:zoom="1.9539376"
     inkscape:cx="192.11146"
     inkscape:cy="44.9912"
     inkscape:window-x="-8"
     inkscape:window-y="-8"
     inkscape:window-maximized="1"
     inkscape:current-layer="svg3051" />
  <path
     inkscape:connector-curvature="0"
     id="path3073"
     d="m 116.05131,107.78381 c -1.88381,-0.96165 -3.90881,-2.64348 -4.5,-3.73741 -0.59119,-1.09393 -3.21239,-4.392688 -5.82489,-7.330588 -2.6125,-2.93789 -4.75,-5.75536 -4.75,-6.26104 0,-1.77302 -2.607618,-0.892 -6.037768,2.03995 -4.02275,3.43846 -7.91832,3.85162 -10.405276,1.10357 -1.666879,-1.84188 -1.922848,-1.85609 -5.208861,-0.2891 -5.079362,2.42218 -6.886837,0.89815 -6.710499,-5.65818 0.07567,-2.81361 0.05564,-5.11565 -0.04451,-5.11565 -0.100157,0 -1.901348,2.25442 -4.002646,5.00982 -4.019417,5.27061 -7.616462,7.04339 -10.103416,4.9794 -2.123531,-1.76237 -1.806532,-5.59834 1.032091,-12.48922 4.119076,-9.99924 3.475589,-9.96136 -8.14106,0.47926 -4.882925,4.38859 -9.575545,7.9886 -10.428045,8 -2.352379,0.0315 -3.95,-2.06334 -3.95,-5.17926 0,-3.54258 -1.071609,-3.54699 -3.682804,-0.0152 -2.41267,3.26331 -13.191438,8.9964 -18.547829,9.86535 -11.5248621,1.86964 -13.4589601,-14.40899 -4.235673,-35.65019 1.791145,-4.125 3.559435,-8.939166 3.929533,-10.698146 0.370098,-1.75898 1.879775,-4.773746 3.354839,-6.69948 1.475064,-1.925733 3.806934,-5.389807 5.181934,-7.69794 1.375,-2.308134 7,-8.794186 12.5,-14.413448 8.457682,-8.6410797 10.600052,-10.3089197 13.890587,-10.8138577 2.220767,-0.34078 4.795937,-0.104062 6,0.551539 1.160177,0.631705 2.912886,1.214653 3.894909,1.29544 2.745344,0.225847 3.699092,1.7151687 3.868595,6.0409927 0.186212,4.752252 -1.774052,8.285889 -5.058868,9.119287 -4.981544,1.263878 -7.198434,-3.702885 -3.484498,-7.806738 0.86052,-0.950863 1.412637,-2.409808 1.226928,-3.242099 -0.679148,-3.043733 -8.878855,1.998168 -15.228743,9.36397 -12.831319,14.884194 -21.040727,30.41025 -26.038534,49.24542 -4.7645801,17.95621 4.670155,15.43474 28.282508,-7.5586 7.974382,-7.76533 13.920466,-16.688115 22.50405,-33.769919 8.748491,-17.409977 12.712644,-22.9164217 16.497795,-22.9164217 3.327792,0 6.145273,2.7171367 6.145273,5.9264127 0,3.819098 -7.84822,18.588958 -13.014876,24.493186 -2.686068,3.069522 -6.118525,7.268325 -7.627681,9.330675 -1.509156,2.062347 -3.756792,4.874727 -4.994746,6.249727 -2.849742,3.16522 -8.677078,14.01895 -7.928591,14.76744 0.309783,0.30978 3.670084,-2.43616 7.467336,-6.1021 6.693771,-6.46229 9.071791,-7.60137 11.999423,-5.74777 1.442372,0.91322 1.141508,8.21243 -0.518632,12.58243 -0.586358,1.54347 0.253418,1.19283 3.678988,-1.53614 6.950597,-5.53717 9.604809,-6.95635 14.183889,-7.58398 3.47343,-0.47609 4.59861,-0.21004 6.09231,1.44048 2.927308,3.23463 3.212708,9.08177 0.7113,14.57269 -1.19135,2.61517 -1.98129,5.28407 -1.75542,5.9309 0.50121,1.43531 10.418668,-9.09585 13.250998,-14.07096 2.65789,-4.6687 4.89253,-6.10275 7.2057,-4.62413 1.19401,0.76324 1.67789,2.19129 1.52302,4.49489 -0.12484,1.85694 -0.62175,8.55125 -1.10425,14.87625 -0.92251,12.09308 -0.73249,13.15199 3.74183,20.852518 1.9638,3.37981 1.84324,6.1488 -0.26759,6.14593 -0.62865,-8.6e-4 -2.68431,-0.78836 -4.56812,-1.75 z m 63.92511,-4.6568 c -1.375,-0.73055 -4.18203,-1.6319 -6.23785,-2.003 -4.26373,-0.76964 -5.76215,-2.855208 -5.76215,-8.019998 0,-5.05909 -4.07658,-27.82389 -5.24824,-29.30764 -1.50782,-1.90947 -2.36649,-0.81168 -5.23327,6.69061 -3.95699,10.35531 -8.0966,17.4345 -12.54503,21.45339 -4.2325,3.82381 -5.84717,4.32128 -7.77346,2.39499 -1.97512,-1.97512 -1.37529,-4.83633 1.7633,-8.41099 1.62982,-1.85626 5.95447,-9.56566 9.61033,-17.13201 3.65587,-7.56635 7.03817,-14.52364 7.51622,-15.46064 1.19666,-2.34548 -0.22986,-2.94724 -3.79584,-1.60123 -3.65543,1.37976 -6.29401,0.52401 -6.29401,-2.0413 0,-2.525235 1.59734,-3.716893 6.87359,-5.127882 7.33109,-1.960499 10.67031,-4.888669 15.53491,-13.622611 4.50197,-8.082887 11.22194,-15.403338 14.13984,-15.403338 2.75975,0 6.65117,4.777147 5.91934,7.266649 -1.26372,4.298823 -6.74303,12.46479 -9.42805,14.050872 -4.12858,2.43881 -11.03963,10.380411 -11.03963,12.68582 0,1.97988 0.10813,1.99353 3.25,0.41023 4.39956,-2.217097 12.21124,-8.759161 18.13347,-15.186272 5.94743,-6.454457 8.19811,-7.819449 10.18045,-6.174248 0.78985,0.655511 1.43608,1.996138 1.43608,2.979171 0,2.394301 -20.00987,22.421999 -24.88894,24.911119 -4.74379,2.4201 -5.3244,3.80471 -4.12163,9.82907 0.51913,2.60018 1.66994,9.22759 2.55736,14.72759 0.88741,5.5 1.95198,10.656 2.3657,11.45777 0.41371,0.80177 2.29015,1.83475 4.16986,2.29549 4.694,1.15058 8.27506,5.2104 6.88576,7.806328 -1.19577,2.23431 -4.36584,2.44598 -7.96811,0.53206 z m 26.74423,-0.67498 c -2.4742,-1.4409 -1.69438,-3.961638 6.37575,-20.609258 3.78401,-7.80592 6.88002,-14.61332 6.88002,-15.12755 0,-0.51424 0.6163,-1.44646 1.36956,-2.07161 0.75326,-0.62515 2.1687,-3.26775 3.14542,-5.87244 0.97673,-2.6047 3.2939,-7.83983 5.14929,-11.633635 1.85538,-3.793803 3.11594,-7.1553 2.80125,-7.469993 -0.3147,-0.314693 -2.52596,0.464313 -4.91392,1.731124 -4.91022,2.604861 -8.86164,2.525778 -9.37904,-0.187711 -0.52731,-2.765491 2.33326,-5.246933 8.86411,-7.689308 3.24593,-1.213897 6.39665,-2.80348 7.00161,-3.532408 1.43915,-1.734077 6.35376,-2.781613 9.04411,-1.927729 1.76097,0.558908 2.02192,1.20232 1.51519,3.735936 -0.66233,3.31167 -0.9144,3.849218 -8.04002,17.145394 -2.6255,4.89911 -5.6311,11.3997 -6.67909,14.44576 l -1.90545,5.53827 3.76349,-4.31088 c 2.06992,-2.37098 5.42255,-6.99362 7.4503,-10.27252 2.02774,-3.2789 4.72774,-6.960324 6,-8.180936 1.27225,-1.220612 3.78673,-4.364892 5.58773,-6.987289 2.73868,-3.987739 3.72055,-4.716601 6,-4.45394 3.76859,0.434254 3.95476,3.35596 0.66879,10.495669 -3.15994,6.865866 -5.4597,13.121136 -5.40232,14.694116 0.066,1.81017 7.97698,-7.48304 9.52608,-11.190549 1.80657,-4.323715 9.19327,-13.185182 10.99084,-13.185182 0.75444,0 1.87348,0.93758 2.48676,2.083511 0.92056,1.720071 0.663,2.723079 -1.47649,5.75 -1.42536,2.016569 -4.57822,6.65699 -7.00637,10.31204 -2.42815,3.65506 -4.8979,6.94412 -5.48833,7.30902 -1.41455,0.87424 -1.38346,3.54543 0.0413,3.54543 2.70756,0 12.92621,-8.75906 15.34343,-13.15185 1.40788,-2.55851 4.64383,-6.969812 7.19101,-9.802887 3.59136,-3.994451 5.19458,-5.083037 7.14015,-4.848155 6.88555,0.831265 4.08103,9.0044 -6.40544,18.667202 -5.11262,4.71105 -13.38392,16.75084 -13.38392,19.48179 0,1.40818 3.08797,0.53393 6.64845,-1.88228 4.23406,-2.87331 6.0212,-2.85614 7.96483,0.0765 1.1835,1.78573 1.03322,2.63963 -1.20433,6.84285 -1.40612,2.64138 -2.36277,4.99632 -2.12589,5.2332 0.87357,0.87358 3.80605,-0.91567 4.89067,-2.98404 0.61499,-1.17279 3.36437,-5.16985 6.10972,-8.88235 4.4535,-6.02241 5.35666,-6.75 8.3788,-6.75 2.71599,0 3.58055,0.50841 4.36264,2.56547 1.21783,3.20314 0.12032,5.50215 -5.32931,11.16356 -2.23897,2.32597 -3.76572,4.53416 -3.39279,4.90709 1.54715,1.54715 5.41655,-1.74114 10.1556,-8.63044 6.04584,-8.789 9.35591,-11.52009 12.88791,-10.63361 3.81621,0.9578 4.21117,4.00097 1.18864,9.15852 -1.44059,2.45817 -2.93778,4.47149 -3.32709,4.47404 -1.09837,0.007 -7.20785,5.97952 -7.20785,7.04606 0,2.40013 8.09862,-0.72954 14.70821,-5.68393 3.45542,-2.59009 11.68645,-13.18617 17.76289,-22.86676 4.82869,-7.69273 10.08905,-14.165698 13.13268,-16.159957 2.18478,-1.431523 2.61682,-1.425522 4.89622,0.068 2.01537,1.320522 2.49928,2.457462 2.49626,5.86501 -0.005,6.115607 -2.54137,9.649747 -17.07893,23.801287 -9.11602,8.87396 -12.91733,13.24649 -12.91733,14.8584 0,1.98106 0.36483,2.1987 2.75,1.64054 1.5125,-0.35395 4.27006,-2.31523 6.1279,-4.35841 12.06319,-13.26656 14.08288,-14.7851 17.3721,-13.06152 2.28372,1.19669 2.20866,3.58213 -0.23904,7.59665 -3.41697,5.60424 -0.68109,3.87143 8.0481,-5.09738 6.95933,-7.15036 8.80256,-7.1759 10.7871,-0.14947 1.36925,4.84795 1.32953,5.13426 -1.41669,10.21101 -1.55399,2.87276 -2.52207,5.52657 -2.15128,5.89736 0.37078,0.37078 3.23493,0.15988 6.36476,-0.46868 9.04526,-1.81655 18.31101,-1.4683 22.08021,0.82988 3.1816,1.9399 5.08255,5.9146 3.81197,7.97044 -0.9101,1.47257 -4.55936,1.25794 -7.53513,-0.44316 -3.27488,-1.87209 -11.43902,-1.87711 -17.59107,-0.0108 -6.33956,1.92317 -11.39857,1.90681 -14.18642,-0.0459 -1.787,-1.25167 -2.22251,-2.52536 -2.22251,-6.50001 0,-2.71881 -0.26468,-4.94329 -0.58819,-4.94329 -0.3235,0 -3.56157,2.68359 -7.19571,5.96353 -7.58439,6.84519 -10.30906,7.78332 -15.99636,5.50771 -3.07128,-1.22888 -4.554,-1.36272 -6.07553,-0.54842 -3.41059,1.82529 -6.13485,1.21087 -9.11937,-2.05677 l -2.86242,-3.13394 -8.47262,3.0303 c -7.50882,2.68559 -8.74091,2.87592 -10.83121,1.67316 -1.29722,-0.74642 -2.95455,-1.66076 -3.68294,-2.03187 -0.7284,-0.37111 -3.03988,-0.10857 -5.13663,0.58342 -2.09675,0.69199 -5.55079,1.0429 -7.67564,0.77981 -2.42079,-0.29974 -5.65086,0.21457 -8.6504,1.37735 -5.85125,2.26827 -8.07308,2.33168 -9.77665,0.279 -1.02547,-1.23561 -1.06808,-2.47766 -0.19699,-5.74121 0.61136,-2.29047 0.92846,-4.34761 0.70466,-4.57141 -0.2238,-0.2238 -2.99015,2.15581 -6.14744,5.28802 -4.79274,4.75468 -6.24045,5.64592 -8.76854,5.39812 -3.86139,-0.37849 -4.65701,-3.96614 -1.60096,-7.21916 2.79519,-2.97534 8.96461,-13.29783 9.70082,-16.23113 0.71951,-2.86677 0.29321,-2.88366 -6.62788,-0.26268 -5.64614,2.13816 -9,4.45933 -9,6.22879 0,0.55145 -1.73925,3.2942 -3.86501,6.09501 -2.12575,2.8008 -5.09351,7.22987 -6.59502,9.84237 -2.00966,3.49665 -3.33637,4.749998 -5.028,4.749998 -1.2639,0 -2.52682,-0.596318 -2.8065,-1.325148 -0.48567,-1.26565 1.98842,-8.9519 7.78154,-24.17485 3.83975,-10.08998 4.27477,-13.04005 1.17968,-8 -1.35101,2.2 -4.52156,6.475 -7.04566,9.5 -7.63008,9.14424 -14.06591,17.30312 -16.56508,21 -2.34262,3.465298 -4.91745,6.028328 -5.99708,5.969588 -0.30738,-0.0167 -1.34897,-0.49054 -2.31464,-1.05292 z"
     style="fill:#1a1a1a" />
</svg>
