<?xml version="1.0" encoding="UTF-8" standalone="no"?>
<!-- Created with Inkscape (http://www.inkscape.org/) -->

<svg
   xmlns:dc="http://purl.org/dc/elements/1.1/"
   xmlns:cc="http://creativecommons.org/ns#"
   xmlns:rdf="http://www.w3.org/1999/02/22-rdf-syntax-ns#"
   xmlns:svg="http://www.w3.org/2000/svg"
   xmlns="http://www.w3.org/2000/svg"
   xmlns:sodipodi="http://sodipodi.sourceforge.net/DTD/sodipodi-0.dtd"
   xmlns:inkscape="http://www.inkscape.org/namespaces/inkscape"
   id="svg2985"
   version="1.1"
   inkscape:version="0.48.5 r10040"
   width="806.95135"
   height="830.03979"
   sodipodi:docname="IMG-20161017-WA00031.jpg">
  <metadata
     id="metadata2991">
    <rdf:RDF>
      <cc:Work
         rdf:about="">
        <dc:format>image/svg+xml</dc:format>
        <dc:type
           rdf:resource="http://purl.org/dc/dcmitype/StillImage" />
        <dc:title></dc:title>
      </cc:Work>
    </rdf:RDF>
  </metadata>
  <defs
     id="defs2989" />
  <sodipodi:namedview
     pagecolor="#ffffff"
     bordercolor="#666666"
     borderopacity="1"
     objecttolerance="10"
     gridtolerance="10"
     guidetolerance="10"
     inkscape:pageopacity="0"
     inkscape:pageshadow="2"
     inkscape:window-width="1366"
     inkscape:window-height="705"
     id="namedview2987"
     showgrid="false"
     fit-margin-top="0"
     fit-margin-left="0"
     fit-margin-right="0"
     fit-margin-bottom="0"
     inkscape:zoom="0.7195122"
     inkscape:cx="361.78716"
     inkscape:cy="295.34527"
     inkscape:window-x="-8"
     inkscape:window-y="-8"
     inkscape:window-maximized="1"
     inkscape:current-layer="svg2985" />
  <path
     style="fill:#1a1a1a"
     d="m 300.6837,818.5763 c -38.5793,-14.816 -4.95389,-53.21014 23.21397,-31.65336 49.27365,9.02227 99.68426,0.63709 149.01168,-0.91917 22.66408,-15.32531 102.88326,-7.60252 56.50294,24.58942 -39.35845,4.21985 -79.93362,4.29279 -118.83026,5.82221 -34.39518,-4.20184 -80.27667,31.01057 -109.89833,2.1609 z M 207.26765,758.06179 C 172.75371,743.75164 125.83897,736.64418 112.39256,696.14786 88.357343,678.73888 77.774224,611.65021 45.293153,655.82257 14.999745,666.4497 -23.68376,585.80054 18.754977,586.90065 c 14.573093,34.66094 39.291342,9.6896 30.223087,-18.80758 -11.615334,-42.81345 54.970906,-35.59815 35.028271,4.77557 4.385019,46.10992 30.187515,86.14142 62.349835,118.25693 37.83628,37.1455 95.22965,58.57737 147.42208,41.91368 34.85269,-12.95771 74.92695,-17.71113 104.41589,-41.51602 53.44415,-30.50952 103.84348,-66.74741 143.87084,-114.04433 26.23366,-32.11769 52.30077,-64.38057 77.0443,-97.18046 23.42925,-17.46073 16.14219,-42.74031 -15.39127,-34.29516 -44.63098,1.49335 -92.92937,-17.95041 -114.32528,-59.03866 -30.0154,-26.97436 -18.46747,-76.61346 -3.37017,-109.24281 6.49453,-45.63825 62.13647,-60.85142 85.32355,-20.0982 13.86087,37.35392 -21.19923,58.14513 -51.22641,38.98684 -35.5869,33.69288 1.61689,87.55243 35.02104,105.84284 41.80121,18.11513 91.35075,27.42933 135.77554,13.91924 32.80053,-14.27057 71.50883,-52.85658 108.45041,-30.64193 29.58187,31.65284 -34.89005,66.58843 -64.40985,63.02809 -42.13087,-2.3957 -77.71392,28.88703 -96.64285,62.51156 -17.84066,32.84445 -49.30869,54.45726 -70.25347,84.11701 -27.49944,35.62895 -66.24853,60.14398 -100.03382,89.22964 -35.96293,17.09237 -68.80365,38.74616 -102.5135,59.15266 -48.83982,13.07867 -100.49208,18.18901 -150.99426,15.65111 l -7.25132,-1.35888 3e-5,0 z m 70.65452,-137.93 c -42.75494,-11.85132 -70.66406,-53.40415 -95.18426,-88.13378 -14.42491,-30.52085 -42.39709,-65.1329 -71.73975,-29.48057 -48.697188,3.02184 -66.365075,-57.51628 -17.354597,-74.677 44.925257,0.47933 21.770067,-80.7999 66.576307,-60.27263 8.85767,37.51415 11.96597,77.98964 31.21712,114.15578 20.99037,36.07558 44.68847,74.53621 81.90245,95.13993 33.1434,31.9593 41.06496,-13.32758 21.58082,-35.6608 -13.12661,-44.87525 -46.74236,-78.24619 -64.86659,-120.34753 -20.2695,-37.95441 32.05468,-40.40992 38.51198,-6.295 18.45745,34.26151 37.47056,67.69981 55.19144,102.21884 6.1599,31.48078 63.33673,92.14622 70.25346,31.7532 -22.97161,-34.58611 -34.35452,-76.82613 -60.47666,-110.0198 -21.58212,-36.65163 -43.85374,-72.98181 -63.13943,-110.66011 -13.91191,-21.55728 -18.45587,-78.22516 16.56294,-37.85031 27.62586,29.98981 42.30581,68.78261 64.9036,102.39461 18.62907,40.24048 42.22697,78.06176 63.44496,116.76823 20.2539,31.69182 18.55017,92.58056 -29.38508,94.54862 -18.64659,-2.4264 -30.20894,-25.70582 -47.71925,-1.28368 -17.71528,18.8831 -33.86102,30.85482 -60.27946,17.702 z M 132.54164,456.89902 c 8.26824,-33.61815 -39.321798,9.96174 -6.28989,5.545 l 6.28989,-5.54416 0,-8.4e-4 z m 346.24349,64.59046 C 459.47807,492.74235 440.04605,463.96413 428.26411,430.99469 412.47198,394.9396 393.84054,361.26234 377.15426,326.39368 360.10735,290.95711 338.43279,257.88438 325.52573,220.59823 304.45119,187.39211 295.084,148.84726 275.35159,115.22596 260.6655,87.964579 242.87451,62.544209 226.0989,36.551889 c 1.30887,-23.347068 16.06744,-56.220255 34.76135,-21.348628 26.28882,34.870799 39.42916,76.998646 59.5716,112.746029 21.42843,33.53663 30.18156,73.56603 49.16686,108.67158 10.3974,40.79471 38.54016,74.06862 52.78323,113.7233 13.17908,35.52831 28.49752,69.8017 44.56546,103.92975 5.48807,24.66949 49.54508,59.21888 20.98822,76.85868 l -4.83371,-2.89981 -4.31678,-6.74331 0,0 z M 57.752409,331.97941 c -48.8436349,-40.90016 62.319931,-70.22809 44.731841,-13.161 -7.205705,17.62964 -29.315199,18.50357 -44.731841,13.161 z"
     id="path3003"
     inkscape:connector-curvature="0" />
</svg>
