<?xml version="1.0" standalone="no"?>
<!DOCTYPE svg PUBLIC "-//W3C//DTD SVG 20010904//EN"
 "http://www.w3.org/TR/2001/REC-SVG-20010904/DTD/svg10.dtd">
<svg version="1.0" xmlns="http://www.w3.org/2000/svg"
 width="563.000000pt" height="428.000000pt" viewBox="0 0 563.000000 428.000000"
 preserveAspectRatio="xMidYMid meet">
<metadata>
Created by potrace 1.13, written by Peter Selinger 2001-2015
</metadata>
<g transform="translate(0.000000,428.000000) scale(0.100000,-0.100000)"
fill="#000000" stroke="none">
<path d="M1272 3794 c-10 -11 -11 -36 -6 -102 4 -48 10 -92 15 -97 4 -6 10
-53 13 -105 9 -178 26 -355 37 -385 2 -5 -2 -20 -9 -32 -9 -16 -9 -77 -2 -258
7 -162 7 -255 0 -293 -16 -90 -13 -326 6 -394 15 -54 15 -65 1 -141 -18 -91
-22 -341 -7 -382 6 -16 6 -27 -2 -31 -6 -4 -8 -25 -5 -55 l6 -49 -35 0 c-19 0
-42 -4 -52 -10 -68 -37 -85 -40 -152 -25 -36 8 -94 20 -130 26 -36 6 -95 20
-132 30 -140 40 -244 16 -259 -60 -4 -19 -5 -40 -2 -47 7 -20 111 -64 149 -64
33 0 98 -13 159 -31 17 -5 70 -12 118 -15 75 -6 87 -9 81 -23 -4 -9 -9 -41
-11 -71 -6 -74 16 -100 86 -100 31 0 53 5 61 15 7 8 19 15 27 15 7 0 31 18 52
41 l38 41 11 -108 c7 -60 12 -166 12 -235 l0 -126 30 -26 c48 -43 110 -33 110
19 0 12 5 24 12 26 27 9 49 228 29 280 -10 25 -41 159 -41 177 0 7 24 11 64
11 63 0 64 -1 80 -34 9 -19 16 -54 16 -78 0 -39 51 -275 70 -323 29 -71 62
-140 79 -161 11 -14 23 -39 27 -57 16 -75 81 -157 124 -157 10 0 22 -4 25 -10
3 -5 14 -10 24 -10 9 0 41 -11 69 -25 113 -54 207 -18 291 112 27 43 57 85 66
94 8 9 15 19 15 22 0 4 15 29 33 55 44 63 87 149 87 173 0 11 9 32 20 47 11
15 24 50 29 77 20 105 26 107 49 12 43 -175 68 -204 167 -192 64 8 66 10 93
63 16 31 22 60 22 110 0 65 -1 68 -48 124 -26 31 -58 59 -71 63 -14 3 -40 20
-58 36 -21 17 -45 29 -62 29 -24 0 -29 5 -33 31 -3 17 -3 42 0 56 4 23 7 24
56 19 201 -23 397 -29 536 -16 169 16 221 17 425 5 l150 -8 97 32 c53 17 118
31 145 31 26 0 72 7 101 14 40 11 100 13 266 9 158 -5 222 -3 247 7 20 7 120
16 239 20 113 5 225 13 250 19 25 5 78 10 118 11 l72 0 0 30 0 30 -102 0 c-57
0 -134 -7 -173 -15 -43 -9 -125 -15 -210 -15 -77 0 -167 -6 -200 -12 -55 -11
-131 -13 -400 -7 -67 1 -120 -4 -161 -15 -34 -9 -83 -16 -109 -16 -25 0 -89
-14 -141 -31 l-96 -31 -139 12 c-139 13 -239 10 -424 -10 -107 -12 -326 -1
-442 22 l-61 12 -4 44 c-2 24 0 46 4 48 3 2 9 18 13 34 4 17 11 30 16 30 12 0
12 57 -1 65 -12 8 5 43 32 65 12 10 20 33 24 70 7 69 22 118 45 150 10 14 25
56 33 93 8 38 19 74 25 80 6 6 11 24 11 39 0 25 -3 28 -35 28 -41 0 -47 -11
-65 -103 -7 -33 -22 -69 -36 -86 -17 -21 -27 -49 -33 -98 -10 -73 -25 -123
-39 -123 -17 0 -42 -73 -42 -125 0 -29 -4 -56 -9 -59 -4 -3 -11 -39 -13 -81
-3 -41 -7 -77 -10 -80 -2 -3 -87 -6 -189 -7 -249 -3 -622 16 -685 36 -27 8
-61 17 -75 20 -26 6 -26 6 -32 133 -3 71 -11 143 -17 161 -11 28 -16 32 -48
32 -33 0 -39 -4 -54 -38 -10 -20 -35 -62 -57 -92 -22 -30 -41 -62 -41 -71 0
-8 -7 -24 -15 -35 -13 -17 -15 -11 -17 71 -2 50 -1 127 0 172 2 45 -1 90 -7
100 -6 13 -5 39 4 83 16 75 19 217 6 253 -13 35 -15 252 -2 312 7 35 7 122 -1
283 -8 185 -8 239 2 257 10 19 10 59 0 202 -7 98 -18 196 -26 218 -8 22 -14
70 -14 107 0 64 -15 204 -26 241 -6 21 -34 22 -52 1z m307 -2326 c1 -57 0 -58
-27 -58 -15 0 -36 -6 -47 -14 -11 -7 -35 -17 -52 -21 -26 -5 -33 -3 -33 9 0 9
6 16 13 16 8 0 22 17 32 38 37 77 49 98 74 131 l26 34 7 -39 c4 -21 7 -65 7
-96z m-775 -49 c34 -6 99 -19 146 -30 47 -11 106 -22 133 -25 26 -4 47 -11 47
-16 0 -12 -179 -4 -245 11 -27 6 -77 15 -110 19 -53 7 -125 34 -125 47 0 9 93
5 154 -6z m1246 -209 c19 -5 85 -9 145 -8 100 0 182 -12 210 -33 6 -4 45 -15
88 -25 l79 -18 -6 -30 c-4 -16 -13 -42 -21 -58 -7 -16 -17 -49 -21 -74 -3 -24
-10 -47 -15 -50 -5 -3 -9 -14 -9 -24 0 -24 -53 -128 -97 -192 -18 -26 -33 -51
-33 -55 0 -3 -7 -13 -15 -22 -9 -9 -39 -51 -68 -95 -47 -71 -63 -85 -129 -117
-10 -5 -20 -5 -23 1 -3 5 -43 21 -88 35 -105 32 -152 79 -171 172 -4 18 -16
43 -27 57 -17 21 -50 90 -79 161 -21 53 -70 286 -70 332 0 41 4 52 18 56 30 6
296 -3 332 -13z m650 -125 c13 -14 28 -25 33 -25 18 0 95 -69 116 -104 l21
-33 -22 -47 c-24 -48 -50 -65 -72 -47 -16 13 -62 139 -72 194 -3 21 -15 44
-25 50 -19 12 -26 37 -11 37 5 0 19 -11 32 -25z"/>
</g>
</svg>
