<?xml version="1.0" standalone="no"?>
<!DOCTYPE svg PUBLIC "-//W3C//DTD SVG 20010904//EN"
 "http://www.w3.org/TR/2001/REC-SVG-20010904/DTD/svg10.dtd">
<svg version="1.0" xmlns="http://www.w3.org/2000/svg"
 width="110.000000pt" height="106.000000pt" viewBox="0 0 110.000000 106.000000"
 preserveAspectRatio="xMidYMid meet">
<metadata>
Created by potrace 1.13, written by Peter Selinger 2001-2015
</metadata>
<g transform="translate(0.000000,106.000000) scale(0.100000,-0.100000)"
fill="#000000" stroke="none">
<path d="M699 1038 c11 -28 11 -31 11 -69 0 -21 4 -28 13 -23 9 6 9 4 2 -7
-11 -14 -11 -26 -1 -114 8 -73 16 -98 34 -119 13 -15 13 -17 2 -11 -12 7 -13
6 -4 -6 6 -8 10 -22 9 -31 -2 -10 2 -18 8 -18 8 0 8 -3 2 -8 -6 -4 -11 -25
-11 -47 -2 -47 -7 -69 -22 -108 -7 -16 -12 -31 -12 -34 0 -14 -73 -102 -81
-97 -5 3 -9 1 -9 -4 0 -5 -32 -12 -72 -15 -80 -7 -115 -27 -80 -46 14 -8 34
-7 73 5 85 24 111 25 146 9 48 -23 60 -51 35 -84 -42 -57 -146 -97 -257 -99
-79 -2 -79 -2 -42 12 20 7 44 20 53 27 14 12 14 14 -2 26 -10 7 -37 13 -61 13
-34 0 -49 -6 -67 -25 -29 -31 -67 -32 -102 -1 -26 21 -27 25 -15 53 17 42 71
91 173 157 110 72 149 115 146 161 -1 18 -7 40 -12 47 -15 20 -115 67 -157 74
-66 11 -190 5 -239 -11 -80 -27 -116 -95 -81 -152 24 -38 70 -53 151 -52 l55
2 -69 8 c-108 14 -149 54 -126 124 9 26 20 37 48 46 20 7 40 12 45 11 4 -1 7
3 7 8 0 6 12 10 27 10 16 0 48 0 73 0 91 1 143 -11 212 -48 57 -30 69 -65 41
-112 -15 -27 -103 -95 -195 -152 -47 -30 -106 -98 -114 -130 -5 -27 -2 -36 20
-55 15 -13 38 -23 50 -23 13 0 41 -8 62 -17 48 -20 195 -22 239 -3 17 7 35 14
40 15 71 10 145 88 130 136 -7 20 -57 60 -80 63 -27 4 -27 14 -1 31 14 10 26
23 26 30 0 7 7 18 14 25 20 16 47 99 51 157 2 26 4 52 4 57 1 4 11 5 24 2 56
-17 66 -15 113 17 51 36 72 72 59 103 -6 16 -9 13 -17 -16 -13 -48 -26 -59
-42 -38 -14 19 -28 14 -20 -7 10 -26 -15 -55 -47 -55 -47 0 -79 26 -79 65 0
18 -6 36 -12 38 -9 4 -9 6 1 6 11 1 10 5 -5 17 -10 8 -13 13 -6 9 8 -4 12 2
12 20 0 14 -4 24 -8 21 -5 -3 -6 9 -4 26 4 24 2 29 -9 23 -11 -7 -12 -6 -2 7
7 8 10 18 7 21 -4 4 -8 25 -10 47 -2 23 -8 49 -13 58 -4 9 -8 29 -7 45 1 20
-3 27 -16 27 -14 0 -16 -4 -9 -22z"/>
</g>
</svg>
