<?xml version="1.0" encoding="UTF-8"?>
<!DOCTYPE svg PUBLIC "-//W3C//DTD SVG 1.1//EN" "http://www.w3.org/Graphics/SVG/1.1/DTD/svg11.dtd">
<!-- Creator: CorelDRAW -->
<svg xmlns="http://www.w3.org/2000/svg" xml:space="preserve" width="90mm" height="40mm" style="shape-rendering:geometricPrecision; text-rendering:geometricPrecision; image-rendering:optimizeQuality; fill-rule:evenodd; clip-rule:evenodd"
viewBox="0 0 90 40"
 xmlns:xlink="http://www.w3.org/1999/xlink">
 <defs>
  <style type="text/css">
   <![CDATA[
    .fil0 {fill:black}
   ]]>
  </style>
 </defs>
 <g id="Слой_x0020_1">
  <metadata id="CorelCorpID_0Corel-Layer"/>
  <path class="fil0" d="M64.8259 7.889c0,-0.5108 0.2915,-0.5707 0.6723,-0.6724l0.1739 0.8392 -0.2053 0.4937c-0.4431,-0.0274 -0.6409,0.0159 -0.6409,-0.4923l0 -0.1682zm16.2993 23.872c0,-1.9523 0.7072,-4.3236 2.3524,-4.7071l0.159 0.5078c-0.3699,1.6242 -0.7612,5.5807 -2.3434,5.7123 -0.0878,-0.377 -0.168,-0.3865 -0.168,-0.8406l0 -0.6724zm-6.0492 4.371c0.1304,-1.5676 3.451,-8.7418 4.3688,-8.7418l0.5041 0c1.7598,0 -4.0986,8.2231 -4.8729,8.7418zm3.0246 -10.0869c0.0604,-0.7083 0.2821,-0.6561 1.0081,-0.6724 -0.4697,0.702 -0.2988,0.332 -1.0081,0.6724zm2.1844 -1.0085c0.2498,-0.3732 0.6282,-1.1769 1.1763,-1.1769l0.672 0c0.3874,0 0.5041,0.117 0.5041,0.5045 0,0.3844 -1.508,2.1854 -2.3524,2.1854l-0.1679 0c-0.9742,0 -0.5734,-1.1378 1.1761,-1.1769l0 -0.3361 -1.0082 0zm-14.1148 -0.8406c0.0438,-0.5265 0.1153,-1.0087 0.6722,-1.0087 0.1805,0 0.672,0.4918 0.672,0.8406l0 0.1681c0,0.595 -1.0429,1.1767 -1.6803,1.1767 -0.4539,0 -0.4632,-0.0802 -0.8402,-0.1681l0 -0.5043c0,-0.3873 0.1169,-0.5043 0.5043,-0.5043l0.672 0zm15.9631 -1.345c-0.2354,0 -0.3359,-0.2291 -0.3359,-0.5043 0,-0.344 0.3461,-0.3091 0.672,-0.3361 -0.0081,0.3705 0.0515,0.8404 -0.3361,0.8404zm-4.3688 -0.6724c0.3325,-0.4967 1.274,-1.1767 2.0165,-1.1767 0.5223,0 1.3442,0.4479 1.3442,1.0087l0 0.168c0,1.0034 -1.6262,0.9482 -2.3526,1.0087l-1.0081 -1.0087zm-5.209 0.5045c0.029,-1.3034 1.5263,-3.3623 2.8566,-3.3623l0.3359 0c0.5664,0 1.1763,0.297 1.1763,0.8405 0,0.9454 -3.3726,2.2895 -4.3688,2.5218zm9.9139 -1.6812c0,-0.9549 1.2494,-2.9978 2.5206,-3.026l-1.4568 3.5559c-0.5261,-0.0362 -1.0638,-0.1136 -1.0638,-0.5299zm1.1763 1.6812c-0.3629,-0.785 1.221,-1.8791 1.5255,-3.1811 0.1207,-0.5164 1.2073,-2.8239 1.4991,-3.3754l-0.2059 -0.8334c-1.1858,0.02 -2.2054,1.6931 -2.862,2.4713 -1.1216,1.3293 -1.1614,2.3853 -2.1411,3.2374 -0.3645,-0.193 -0.9682,-0.5045 -1.5124,-0.5045 -0.9948,0 -3.0246,1.0882 -3.0246,2.0175 0,1.1721 1.9871,1.1763 2.6885,1.513 -0.5898,0.8056 -3.2299,1.6811 -4.7048,1.6811 -0.8012,0 -2.8566,-0.2388 -2.8566,-1.0087l0 -0.5043c0,-0.998 0.8444,-1.176 1.6712,-1.3539 0.4723,-0.1017 1.2964,-0.6413 1.9178,-0.9393 0.5561,-0.267 2.6383,-2.473 2.9643,-2.9184l-2.5289 -0.2094c-2.1713,-0.2712 -2.9192,1.1717 -3.7905,2.461 -1.2678,1.8759 -0.1547,2.2876 -3.9307,2.2876 -0.5398,-1.0208 -0.8434,-2.0174 -2.3524,-2.0174 -0.1918,0.7181 -2.0164,1.568 -2.0164,3.1941l0 0.3363c0,0.7578 0.9658,1.0826 1.5124,1.3449 1.2509,-0.6006 3.8973,-2.5218 4.8729,-2.5218l0.3361 0c1.0081,0 -0.114,2.5218 2.8564,2.5218l0.3361 0 2.8541 -0.1982c0.3788,0.7415 1.1788,1.1878 1.1788,1.543 0,0.0782 -2.1667,4.3811 -2.457,5.107 -0.3035,0.7591 -1.9769,5.4841 -1.4077,5.4841 0.9152,0 0.7298,-0.9017 1.2158,-1.4734 0.4639,-0.5458 0.7722,-0.8442 1.2072,-1.4819 0.4674,-0.6849 1.9539,-2.67 1.7777,-3.0966 0.5519,-0.1475 2.7821,-3.9807 2.8566,-4.8753l0.3361 0c0,2.132 -2.0153,5.4895 0,6.5562 1.6694,-0.8836 1.9375,-2.9873 2.424,-5.1397 0.3197,-1.4129 0.0709,-1.9619 1.47,-2.2279 1.158,-0.2202 2.5574,0.1872 2.6593,-1.0379l-1.5067 -0.2055 -0.8457 0.0373c-0.5793,0 -0.6508,0.1245 -1.1763,0.1682 -0.0877,-0.377 -0.1682,-0.3866 -0.1682,-0.8406 0,-0.5128 0.1615,-0.6784 0.3362,-1.0087l1.0083 0.0562 0.3941 0.5801c0.6875,0.0363 1.4542,-0.1055 1.4542,-0.8043l0 -0.5044 -2.3567 -0.2978c0.0821,-0.9752 0.9336,-2.0185 1.4746,-2.602 0.5984,-0.6454 1.9951,-1.3974 2.0584,-1.9755 -2.4326,0.65 -3.7483,4.1937 -5.0411,4.5392zm-61.1641 -5.7159c0.8263,-1.5622 1.5249,-2.0175 3.3605,-2.0175 1.5132,0 0.6827,-0.3891 2.0165,0.5045 0.8147,-0.0679 1.0534,-0.3363 2.0164,-0.3363 1.4789,0 -2.1548,3.6986 -5.3771,3.6986l-0.336 0c-0.9868,0 -1.3382,-1.1362 -1.6803,-1.8493zm0.1679 -1.8493c0.2988,-0.2988 -0.2987,0.299 0,0zm8.0657 4.8753c0.8114,-1.5343 1.6708,-2.6766 2.5912,-4.1322 0.6208,-0.9819 0.375,-1.437 1.5354,-1.8259 0.7092,-0.2376 1.6778,-0.7625 2.2506,-0.9424 0.8386,-0.2635 1.9569,-0.2126 2.8016,-0.5595 0.9182,-0.3772 1.4344,-0.5834 2.5164,-0.8445 1.0875,-0.2625 3.9318,-1.8306 3.9318,-2.6228 0,-0.3873 -0.1169,-0.5042 -0.504,-0.5042 -3.0667,0 -6.6347,0.645 -9.05,1.3686 -1.1785,0.3532 -7.2997,1.8253 -8.4256,1.8253 -0.6295,0.4219 -3.4574,1.2888 -3.6966,2.1856l-0.4921 -0.1995 -1.2923 1.4377c0.3675,-1.9144 1.0403,-2.2958 0.1575,-4.4857 -0.55,-1.3643 -1.4271,-2.3002 -3.2462,-2.3002 -2.1896,0 -4.7427,0.9954 -6.3633,1.703 -0.9203,0.4018 -1.665,1.2203 -2.3754,1.6583 -0.9241,0.5696 -1.6734,0.7788 -2.5652,1.4681 -1.9581,1.5138 -2.6098,1.9011 -3.8768,4.1908 -0.5821,1.0522 -2.1267,4.4006 -2.1267,5.7736 0,1.0332 0.7183,1.7661 1.3443,2.1854 2.5759,0 3.3158,0.2875 5.317,-1.2368 1.4945,-1.1386 1.2465,-3.9746 -0.9482,-3.9746l-2.1844 0c-0.513,0 -1.3443,0.3167 -1.3443,0.8406 0,0.2355 0.2291,0.3361 0.5041,0.3361 0.02,0 1.1519,-0.6724 2.1844,-0.6724l0.1682 0c0.9126,0 2.0164,0.6718 2.0164,1.6811 0,1.1696 -2.5197,1.9111 -3.6968,2.1855 -0.883,-0.4674 -2.0278,-0.1116 -2.2706,-1.6302 -0.1421,-0.8878 0.2814,-2.2434 0.6548,-3.1804 0.6537,-1.6397 2.1785,-4.2263 3.4941,-5.078 2.679,-1.7342 7.8908,-5.4095 11.3964,-5.4095 0.8878,0 1.7623,-0.1418 2.5938,0.5991 0.373,0.3326 1.1028,1.8329 1.1028,2.4269l0 0.5042c0,2.2347 -4.3611,5.0435 -6.2171,5.0435 0.1,0.3746 0.0393,0.5042 0.504,0.5042 1.6649,0 4.4042,-2.2616 5.5451,-3.026 -0.2019,0.867 -0.6722,0.8501 -0.6722,1.3449l0 0.6724c0,1.293 1.5033,2.3536 2.8567,2.3536 3.7887,0 5.9654,-5.1535 8.5697,-5.2114 -0.2492,1.0696 -1.4904,2.4852 -2.0238,3.3547 -0.8287,1.351 -0.9105,2.5293 -2.8491,2.5293 -0.2867,0.192 -0.6722,0.3657 -0.6722,0.8406l0 0.5042 0.8386 -0.1741c-0.0733,0.9063 -2.198,3.3683 -3.0231,3.3683 -0.2044,0 -0.504,-0.3479 -0.504,-0.6725 0,-0.5368 0.672,-0.5227 0.672,-1.8493l0 -0.6724c-0.4767,-0.1112 -0.2871,-0.1681 -0.672,-0.1681 -0.2923,0 -0.8489,0.9388 -1.0082,1.1769l0.055 1.3426 0.437 0.2017 -0.1874 0.461 1.0081 0.8852c2.9408,-0.2749 3.6607,-4.3587 4.7365,-4.4035l1.8481 -0.0052 0.3026 -0.3647 0.1179 -0.1398 -1.7645 -0.6672zm-1.0794 3.3676l-0.433 -0.0053 0 0.8405 0.4834 -0.1665 -0.0504 -0.6687zm36.1983 -13.7906c0.0778,-0.9347 0.6722,-1.6802 0.6722,-2.3536l0 -0.5042c0,-0.3935 -0.2788,-0.6725 -0.6722,-0.6725l-0.168 0c-0.4832,0 -1.5122,1.2454 -1.5122,1.6812l0 0.5042c0,1.3264 0.672,1.3123 0.672,1.8493l0 0.3362c0,1.7573 -5.2868,11.5976 -6.5532,11.9359 -0.3915,-0.8161 0.0024,-2.176 0.0037,-3.1897 0.0028,-1.947 0.4733,-1.9863 0.5003,-3.1985 -1.1689,0.0972 -0.8326,0.9626 -1.3797,1.6456 -0.2788,0.3478 -1.1847,0.8473 -1.6067,1.2505 -0.6999,0.6687 -1.9375,2.7401 -2.8948,2.8197 0,-2.1653 0.6055,-3.9821 1.1104,-5.7817 0.2531,-0.9028 0.4278,-2.1102 0.7141,-2.816 0.3198,-0.7887 1.2215,-1.9593 -0.3121,-1.9934 -0.1136,1.3647 -2.3526,4.9559 -2.3526,5.0434l0 0.5043c0,0.4092 0.3087,0.6156 0.5043,0.8406 -0.1987,0.4143 -0.5801,3.5288 -0.9007,4.4786 -0.1769,0.5245 -1.4519,3.7311 -1.4519,3.7589 0,0.6 1.0713,0.2144 1.2897,-0.0542 0.2513,-0.3093 0.1913,-0.8131 0.5187,-1.3307 0.6329,-1.0012 0.9055,-1.3377 1.6482,-2.2176 0.9754,-1.1558 2.49,-3.4079 3.9369,-3.7945l0 2.3536 -0.0666 1.1749 -0.1401 2.1832c1.0631,-0.0812 4.289,-5.1594 4.909,-6.2185 1.211,-2.0685 2.3433,-5.1481 3.5313,-7.3944 1.1,0 2.5538,0.1385 3.0246,-0.5043 -0.4318,-0.5898 -1.1563,-0.1682 -2.1845,-0.1682 -0.4538,0 -0.4631,-0.0802 -0.8401,-0.1681z"/>
 </g>
</svg>
