<?xml version="1.0" encoding="UTF-8" standalone="no"?>
<!-- Created with Inkscape (http://www.inkscape.org/) -->

<svg
   xmlns:dc="http://purl.org/dc/elements/1.1/"
   xmlns:cc="http://creativecommons.org/ns#"
   xmlns:rdf="http://www.w3.org/1999/02/22-rdf-syntax-ns#"
   xmlns:svg="http://www.w3.org/2000/svg"
   xmlns="http://www.w3.org/2000/svg"
   xmlns:sodipodi="http://sodipodi.sourceforge.net/DTD/sodipodi-0.dtd"
   xmlns:inkscape="http://www.inkscape.org/namespaces/inkscape"
   id="svg2985"
   version="1.1"
   inkscape:version="0.48.5 r10040"
   width="201.48141"
   height="38.589046"
   sodipodi:docname="Thorstein_Veblen_signature.png">
  <metadata
     id="metadata2991">
    <rdf:RDF>
      <cc:Work
         rdf:about="">
        <dc:format>image/svg+xml</dc:format>
        <dc:type
           rdf:resource="http://purl.org/dc/dcmitype/StillImage" />
        <dc:title></dc:title>
      </cc:Work>
    </rdf:RDF>
  </metadata>
  <defs
     id="defs2989" />
  <sodipodi:namedview
     pagecolor="#ffffff"
     bordercolor="#666666"
     borderopacity="1"
     objecttolerance="10"
     gridtolerance="10"
     guidetolerance="10"
     inkscape:pageopacity="0"
     inkscape:pageshadow="2"
     inkscape:window-width="1366"
     inkscape:window-height="705"
     id="namedview2987"
     showgrid="false"
     fit-margin-top="0"
     fit-margin-left="0"
     fit-margin-right="0"
     fit-margin-bottom="0"
     inkscape:zoom="4.2426407"
     inkscape:cx="104.57741"
     inkscape:cy="19.598047"
     inkscape:window-x="-8"
     inkscape:window-y="-8"
     inkscape:window-maximized="1"
     inkscape:current-layer="svg2985" />
  <path
     inkscape:connector-curvature="0"
     id="path3005"
     d="m 1.5528532,36.977656 c -1.62761293,-1.627612 -2.03072993,-3.635937 -0.94728693,-4.71938 0.34327797,-0.343278 1.38592993,0.316627 2.31700393,1.466454 1.4037,1.733497 2.051644,1.898581 3.793315,0.966467 2.222736,-1.189572 8.2655388,-12.278272 8.2655388,-15.167478 0,-0.938256 1.631618,-4.967332 3.625817,-8.953501 2.927306,-5.8513421 3.360767,-7.4163941 2.25,-8.1238531 -0.756699,-0.481949 -2.050817,-0.624484 -2.875817,-0.316745 -0.825,0.30774 -2.85,0.812519 -4.5,1.121733 -2.524293,0.473057 -2.793958,0.343026 -1.700616,-0.820031 1.145468,-1.218508 15.925166,-3.10623697 17.127714,-2.18762897 0.234903,0.17944 -0.726224,1.55905997 -2.135839,3.06582297 C 23.750714,6.5397529 21.921206,10.006656 18.644117,18.71308 12.283809,35.610861 6.4356702,41.860474 1.5528532,36.977656 z M 146.86627,37.299085 c -0.0633,-0.6875 -0.0351,-2.0375 0.0628,-3 0.22989,-2.259908 -0.55158,-2.206745 -3.67483,0.25 -3.01261,2.369719 -4.60158,2.513783 -6.21982,0.563922 -0.90349,-1.088643 -0.91449,-1.954313 -0.0454,-3.57814 0.63052,-1.178135 0.89466,-2.798067 0.58699,-3.599849 -0.41032,-1.06928 -1.71768,-0.248945 -4.90558,3.078141 -7.07969,7.388765 -12.73195,5.459522 -11.24518,-3.838228 1.06582,-6.665302 9.87896,-18.7804489 12.48855,-17.167631 0.67134,0.414912 -0.41663,2.443197 -2.87336,5.356734 -6.24709,7.408678 -8.91256,15.536555 -5.52178,16.837717 1.79865,0.690209 5.08568,-2.022814 7.04774,-5.817014 0.81442,-1.574911 2.83905,-3.150524 4.93886,-3.843523 4.13018,-1.363082 7.50514,-0.621121 5.64337,1.240654 -0.64197,0.641969 -1.16722,2.175659 -1.16722,3.4082 0,1.232541 -0.45,2.519098 -1,2.859017 -2.07396,1.281778 -0.95465,2.547041 1.25,1.412997 3.69527,-1.900799 7.82402,-6.199542 9.28088,-9.662997 0.75189,-1.7875 2.06503,-3.25 2.91809,-3.25 1.9113,0 1.92881,1.715173 0.051,5 -2.5515,4.463387 -1.98617,5.899027 1.97146,5.006437 3.64692,-0.822515 11.98556,-5.318857 13.04595,-7.034614 0.34143,-0.552446 1.02047,-0.757427 1.50898,-0.455515 0.4885,0.301913 -0.44259,2.647354 -2.0691,5.212093 -1.62647,2.564738 -2.95725,5.025059 -2.95725,5.46738 0,1.754965 2.77719,0.646218 5.5,-2.195781 3.10817,-3.244228 5.5,-3.896546 5.5,-1.5 0,1.929991 1.45679,1.902032 4.49121,-0.0862 1.35747,-0.889453 2.97257,-1.245203 3.67692,-0.809897 0.69084,0.426964 2.65495,0.682089 4.36469,0.566944 2.41643,-0.162738 3.40883,0.351598 4.45688,2.309898 0.98447,1.839508 2.17958,2.528228 4.42928,2.55252 l 3.08102,0.03327 -2.24635,1.874066 c -2.77665,2.316481 -6.0366,1.629882 -7.49883,-1.579377 -1.31872,-2.894273 -2.20177,-2.941417 -5.56356,-0.29703 -2.43148,1.912598 -2.71442,1.940824 -3.85255,0.384336 -1.14182,-1.561531 -1.46117,-1.539796 -4.53353,0.308564 -4.07444,2.451219 -14.73054,3.877235 -14.95749,2.001638 -0.0838,-0.692301 -0.20805,-1.933732 -0.27618,-2.758732 -0.21634,-2.620069 -5.36264,-1.334631 -9.77402,2.441346 -4.43842,3.799125 -5.72892,4.303012 -5.91264,2.308654 z M 27.648091,35.882418 c -0.366667,-0.366666 -0.666667,-1.716666 -0.666667,-3 0,-2.739878 -1.607255,-2.998738 -4.17739,-0.672797 -3.247271,2.938739 -3.078953,0.704365 0.66528,-8.831454 3.983262,-10.144574 7.300612,-15.811527 9.26211,-15.822249 1.699332,-0.0093 1.759525,-0.209241 -2.73468,9.084203 l -3.984681,8.239812 2.234681,1.107747 c 1.337644,0.66308 2.363437,2.220375 2.555438,3.879506 0.355819,3.074736 1.008083,3.048279 8.679242,-0.352051 3.675385,-1.629157 9.050424,-2.900664 13.968792,-3.304427 1.261759,-0.103581 2.090805,0.556617 2.308549,1.838377 0.806399,4.746904 1.032864,4.79803 6.810278,1.53746 5.693434,-3.213175 7.90059,-3.479866 7.90814,-0.95554 0.0091,3.044067 4.30563,2.570665 5.513984,-0.607546 0.528133,-1.389094 1.754495,-2.771943 2.725249,-3.072998 0.970754,-0.301054 2.596328,-0.995702 3.612387,-1.543662 2.630675,-1.418721 3.217516,-0.30881 1.844421,3.488417 -0.65549,1.812726 -1.1918,3.601416 -1.1918,3.974867 0,1.558964 2.793027,0.502234 4.813051,-1.820998 2.619196,-3.012339 4.621366,-3.269211 3.897196,-0.5 -0.64546,2.468274 -0.0874,2.486487 4.50162,0.146897 4.713159,-2.402904 12.487819,-1.484822 14.620009,1.726424 0.8037,1.210427 2.47251,2.126679 3.87343,2.126679 1.52197,0 2.30424,0.477066 2.0497,1.25 -0.74935,2.275366 -4.43263,1.892147 -7.62401,-0.793223 l -3.14481,-2.646182 -3.64832,2.152561 c -2.701549,1.593956 -3.841769,1.83955 -4.393769,0.946385 -0.57252,-0.926358 -1.63846,-0.860236 -4.59478,0.285022 -5.1202,1.983532 -11.92105,1.254962 -13.838445,-1.482504 -1.326483,-1.89382 -1.607861,-1.939063 -3.231927,-0.519668 -0.97842,0.855115 -3.54138,2.121276 -5.695468,2.813691 -3.425399,1.101069 -4.069094,1.050282 -5.133228,-0.405008 -1.127073,-1.541364 -1.601898,-1.512115 -6.445427,0.397025 -5.727755,2.257671 -8.59462,1.43555 -7.460012,-2.139282 0.481785,-1.517972 0.06199,-1.858817 -2.289364,-1.858817 -2.0397,0 -3.52611,0.874817 -5.097325,3 -2.395171,3.239642 -4.104985,3.674642 -7.097596,1.805726 -1.48228,-0.9257 -2.501796,-0.9257 -4.533484,0 -2.997797,1.365887 -3.921792,1.46619 -4.860374,0.527607 z"
     style="fill:#1a1a1a" />
</svg>
