<?xml version="1.0" encoding="UTF-8" standalone="no"?>
<!-- Created with Inkscape (http://www.inkscape.org/) -->

<svg
   xmlns:dc="http://purl.org/dc/elements/1.1/"
   xmlns:cc="http://creativecommons.org/ns#"
   xmlns:rdf="http://www.w3.org/1999/02/22-rdf-syntax-ns#"
   xmlns:svg="http://www.w3.org/2000/svg"
   xmlns="http://www.w3.org/2000/svg"
   xmlns:sodipodi="http://sodipodi.sourceforge.net/DTD/sodipodi-0.dtd"
   xmlns:inkscape="http://www.inkscape.org/namespaces/inkscape"
   width="375"
   height="100"
   id="svg2"
   version="1.1"
   inkscape:version="0.48.0 r9654"
   style="display:inline"
   sodipodi:docname="Nowy dokument 1">
  <defs
     id="defs4" />
  <sodipodi:namedview
     id="base"
     pagecolor="#ffffff"
     bordercolor="#666666"
     borderopacity="1.0"
     inkscape:pageopacity="0.0"
     inkscape:pageshadow="2"
     inkscape:zoom="1.7466667"
     inkscape:cx="212.9558"
     inkscape:cy="51.269452"
     inkscape:document-units="px"
     inkscape:current-layer="layer2"
     showgrid="false"
     fit-margin-top="0"
     fit-margin-left="0"
     fit-margin-right="0"
     fit-margin-bottom="0"
     inkscape:window-width="1440"
     inkscape:window-height="820"
     inkscape:window-x="-8"
     inkscape:window-y="-8"
     inkscape:window-maximized="1" />
  <metadata
     id="metadata7">
    <rdf:RDF>
      <cc:Work
         rdf:about="">
        <dc:format>image/svg+xml</dc:format>
        <dc:type
           rdf:resource="http://purl.org/dc/dcmitype/StillImage" />
        <dc:title></dc:title>
      </cc:Work>
    </rdf:RDF>
  </metadata>
  <g
     inkscape:groupmode="layer"
     id="layer2"
     inkscape:label="Warstwa">
    <path
       style="font-size:medium;font-style:normal;font-variant:normal;font-weight:normal;font-stretch:normal;text-indent:0;text-align:start;text-decoration:none;line-height:normal;letter-spacing:normal;word-spacing:normal;text-transform:none;direction:ltr;block-progression:tb;writing-mode:lr-tb;text-anchor:start;baseline-shift:baseline;color:#000000;fill:#000000;fill-opacity:1;stroke:none;stroke-width:3;marker:none;visibility:visible;display:inline;overflow:visible;enable-background:accumulate;font-family:Sans;-inkscape-font-specification:Sans"
       d="M 106.5625,8.0625 C 101.21574,11.438849 97.17221,17.641191 91.59375,21.125 80.913667,29.559458 69.729765,37.652815 57.125,42.96875 c -0.656901,-2.158989 -2.132202,-3.531549 -4,-4.3125 1.423568,-2.088618 2.829806,-4.178891 4.21875,-6.28125 0.0472,-0.885565 -0.777087,-1.648024 -1.65625,-1.53125 -2.228223,1.953143 -4.054895,4.428165 -5.78125,7.03125 -8.293945,-0.76401 -18.890453,5.983537 -7.0625,10.125 -8.569495,11.987488 -18.115671,23.398891 -28.0625,34.15625 0.03039,3.49898 4.810742,0.79671 5.09375,-1.25 9.585407,-10.263511 18.381182,-21.332576 26.59375,-32.75 3.225718,-0.235723 3.602626,0.109829 7.183944,-0.281656 -0.574937,1.911041 -0.729605,3.584086 -2.496444,6.594156 -3.933718,11.155146 -9.433536,21.705375 -13.5,32.78125 -1.110577,1.418941 2.909364,2.946484 3.71875,-0.09375 2.797096,-2.035685 6.741807,-0.258124 9.625,-1.1875 -0.102386,0.564809 -0.185819,1.131856 -0.21875,1.71875 3.049527,11.523642 16.893329,-7.307566 18.65625,1.59375 7.903705,2.983987 25.571116,-10.22861 28.375,-4.59375 1.433688,13.308367 20.98726,4.459105 27.90625,-0.53125 4.7845,6.537808 18.92857,1.575887 27.28125,-2.78125 4.76711,9.190543 21.95081,1.013212 31.625,-2.625 1.8097,0.873305 3.77448,12.222222 11.875,8.25 5.62453,-2.235591 12.7569,-2.560728 18.4375,-4.90625 0.0173,1.613291 1.20463,2.945695 4.15625,3.625 5.43955,-1.557165 7.39065,-6.548447 10.1875,-0.15625 11.1359,1.951334 24.51851,-4.11764 33.84375,-4.6875 -6.36615,11.644724 13.46772,7.185112 17.53125,2.75 6.31688,-4.072308 5.7926,-5.171146 7.1875,1.71875 10.35086,4.461894 26.91629,-8.575919 32,-9.5625 -9.28794,17.279597 15.84235,7.496975 24.6875,8.15625 3.99158,0.297513 11.15972,1.734445 13.5,-2.3125 -0.43399,-3.469994 -5.37046,-0.415222 -7.3125,-1 -8.75383,-1.514698 -25.45811,4.072372 -30.0625,0.34375 C 320.09206,76.212183 335.55587,68.647076 325.125,69 c -11.39411,5.246471 -22.07097,14.428794 -35.15625,14.21875 -0.5543,-3.655155 8.64674,-15.466076 -0.0312,-9.78125 -6.40675,5.153769 -18.47584,14.307533 -25.21875,10.71875 2.5508,-3.655584 17.89959,-17.783343 5.5625,-10.71875 -9.866,6.997955 -23.02199,6.958518 -34.59375,9.5 -11.83384,1.696624 -0.6611,-7.191568 2.8125,-10.25 -0.0724,-2.206098 -2.38232,-4.486523 -4.65625,-4.53125 -4.24673,-0.376475 -13.6339,5.153334 -17.34375,10.1875 -1.39008,0.192589 -3.02703,0.963569 -3.65625,1.25 -6.46217,1.115033 -27.80715,11.045535 -22.34375,-3.125 9.29831,-5.531318 19.08691,-11.131073 26.40625,-19.15625 1.3571,-2.160359 0.0946,-5.551982 -2.875,-5.15625 -11.86148,1.920885 -19.66688,12.700475 -25.84375,22.125 -10.26054,2.122157 -19.91269,10.359632 -30.84375,8.03125 -0.36214,-6.339635 22.54739,-11.377249 8.4375,-13.65625 -9.69217,7.627651 -20.62266,15.301111 -33.625,15.9375 -3.8913,-0.566502 11.48618,-15.614997 0.625,-9.03125 -8.01717,7.095544 -21.90408,16.241787 -32.375,11.0625 0.48051,-4.13322 17.73028,-15.641785 6.25,-12.28125 C 98.304356,83.5492 103.86263,78.354465 74.21875,87.125 62.835445,85.461281 92.460653,65.702614 75.53125,64.59375 67.069576,68.434818 55.134639,74.389508 51.71875,83.40625 50.131347,82.216695 45.780725,83.304147 44.375,83.3125 40.62322,81.071493 50.605003,67.428979 52.0625,60.46875 54.616431,53.900492 57.25048,49.474924 58.047354,46.507743 63.393093,43.101335 70.140569,39.903468 77.6875,35.0625 88.361957,27.457033 99.70988,19.875098 108,9.71875 108.10729,8.8822486 107.40578,8.0701905 106.5625,8.0625 z M 47.96875,40.90625 c -1.000501,1.558062 -2.046117,3.10003 -3.125,4.5625 -2.28543,-0.216101 -3.941062,-1.052905 -3.25,-2.90625 2.073322,-0.721637 4.219365,-1.244103 6.375,-1.65625 z m 3.25,0.53125 c 4.884267,1.544193 1.372846,3.386564 -2.75,3.9375 0.923542,-1.305598 1.841298,-2.623945 2.75,-3.9375 z m 67.5625,0.78125 c -11.86513,8.744764 14.14355,9.074056 0,0 z m 0.0625,3.25 c 0.73049,0.598841 0.19428,0.968995 0,0 z m 219.125,0.21875 c -0.0935,0.0168 -0.18412,0.05534 -0.28125,0.09375 -9.96621,0.255834 -1.2079,12.659191 2.125,2.875 0.5248,-1.152275 -0.44107,-3.220785 -1.84375,-2.96875 z M 214.375,55.28125 c -5.07586,6.699493 -13.57121,11.091055 -20.4375,15.59375 5.54742,-6.203335 11.43248,-14.791726 20.4375,-15.59375 z M 77.78125,67.21875 c -2.758747,8.897018 -11.359957,16.156993 -19.46875,20.4375 -12.957439,1.209625 5.088472,-13.811388 9.5,-16.03125 3.079989,-1.82807 6.44185,-3.706294 9.96875,-4.40625 z m 154.59375,4 c 3.17833,0.878812 -10.21775,11.167617 -15.03125,11.375 3.71789,-5.044145 8.94337,-9.56709 15.03125,-11.375 z"
       id="path2997"
       inkscape:connector-curvature="0"
       sodipodi:nodetypes="ccccccccccccccccccccccccccccccscccccccccccccccccccccccccccccccccccccccccccsccscccccccccc" />
  </g>
</svg>
