<?xml version="1.0" encoding="UTF-8" standalone="no"?>
<!-- Created with Inkscape (http://www.inkscape.org/) -->

<svg
   xmlns:dc="http://purl.org/dc/elements/1.1/"
   xmlns:cc="http://creativecommons.org/ns#"
   xmlns:rdf="http://www.w3.org/1999/02/22-rdf-syntax-ns#"
   xmlns:svg="http://www.w3.org/2000/svg"
   xmlns="http://www.w3.org/2000/svg"
   xmlns:sodipodi="http://sodipodi.sourceforge.net/DTD/sodipodi-0.dtd"
   xmlns:inkscape="http://www.inkscape.org/namespaces/inkscape"
   id="svg2"
   version="1.1"
   inkscape:version="0.48.2 r9819"
   width="72.735168"
   height="41.460392"
   sodipodi:docname="Signature of Victor Ponta.svg">
  <metadata
     id="metadata8">
    <rdf:RDF>
      <cc:Work
         rdf:about="">
        <dc:format>image/svg+xml</dc:format>
        <dc:type
           rdf:resource="http://purl.org/dc/dcmitype/StillImage" />
        <dc:title />
      </cc:Work>
    </rdf:RDF>
  </metadata>
  <defs
     id="defs6" />
  <sodipodi:namedview
     pagecolor="#ffffff"
     bordercolor="#666666"
     borderopacity="1"
     objecttolerance="10"
     gridtolerance="10"
     guidetolerance="10"
     inkscape:pageopacity="0"
     inkscape:pageshadow="2"
     inkscape:window-width="1440"
     inkscape:window-height="844"
     id="namedview4"
     showgrid="false"
     inkscape:zoom="3.4856857"
     inkscape:cx="33.748288"
     inkscape:cy="20.670972"
     inkscape:window-x="-4"
     inkscape:window-y="-4"
     inkscape:window-maximized="1"
     inkscape:current-layer="svg2"
     fit-margin-top="0"
     fit-margin-left="0"
     fit-margin-right="0"
     fit-margin-bottom="0" />
  <path
     style="fill:none;stroke:#000000;stroke-width:1px;stroke-linecap:round;stroke-linejoin:round;stroke-opacity:1"
     d="m 30.049428,24.947649 c -2.57469,-3.664362 -11.953645,1.494986 -7.31786,7.664912 3.97912,-0.272338 5.27274,-1.155759 7.49806,-5.698362 2.85606,5.695311 7.80136,3.084157 9.97816,-2.653689 7.78231,14.205524 6.58956,-5.194054 6.17887,-23.76051 3.00681,7.3358849 5.87455,14.532696 7.37565,20.362863 19.24667,-0.0035 19.26982,-0.529237 14.96282,16.190917 2.35786,0.07888 3.0368,-1.52115 3.51004,-3.326888 M 14.857641,24.259599 c 13.442457,1.069946 8.808011,-6.563359 4.494213,-8.734546 -6.77462,-1.86464 -4.257087,4.530413 -4.709816,8.285233 m 4.016427,13.196829 C 16.065516,27.048686 12.412193,21.331756 9.121931,14.162577 9.296719,22.815671 9.809579,31.553283 13.000433,40.960393 9.346976,32.18016 6.316891,23.399928 0.5,14.619695"
     id="path2991"
     inkscape:connector-curvature="0"
     sodipodi:nodetypes="ccccccccccccccc" />
  <path
     style="fill:none;stroke:#000000;stroke-width:1px;stroke-linecap:butt;stroke-linejoin:miter;stroke-opacity:1"
     d="m 53.861098,21.074666 c -1.00897,0.04984 -3.67353,0.506382 -2.52697,2.333069 2.36692,3.770957 6.80299,7.143899 2.52696,-2.476514"
     id="path2993"
     inkscape:connector-curvature="0"
     sodipodi:nodetypes="csc" />
</svg>
