<?xml version="1.0" encoding="UTF-8" standalone="no"?>
<!-- Created with Inkscape (http://www.inkscape.org/) -->

<svg
   xmlns:dc="http://purl.org/dc/elements/1.1/"
   xmlns:cc="http://creativecommons.org/ns#"
   xmlns:rdf="http://www.w3.org/1999/02/22-rdf-syntax-ns#"
   xmlns:svg="http://www.w3.org/2000/svg"
   xmlns="http://www.w3.org/2000/svg"
   xmlns:sodipodi="http://sodipodi.sourceforge.net/DTD/sodipodi-0.dtd"
   xmlns:inkscape="http://www.inkscape.org/namespaces/inkscape"
   id="svg4156"
   version="1.1"
   inkscape:version="0.91 r13725"
   width="118.8"
   height="48.900002"
   viewBox="0 0 118.8 48.900002"
   sodipodi:docname="Signature of Stoyan Mihaylovski (vectorized).svg">
  <metadata
     id="metadata4162">
    <rdf:RDF>
      <cc:Work
         rdf:about="">
        <dc:format>image/svg+xml</dc:format>
        <dc:type
           rdf:resource="http://purl.org/dc/dcmitype/StillImage" />
        <dc:title></dc:title>
      </cc:Work>
    </rdf:RDF>
  </metadata>
  <defs
     id="defs4160" />
  <sodipodi:namedview
     pagecolor="#ffffff"
     bordercolor="#666666"
     borderopacity="1"
     objecttolerance="10"
     gridtolerance="10"
     guidetolerance="10"
     inkscape:pageopacity="0"
     inkscape:pageshadow="2"
     inkscape:window-width="1280"
     inkscape:window-height="960"
     id="namedview4158"
     showgrid="false"
     inkscape:zoom="3.0723905"
     inkscape:cx="59.400002"
     inkscape:cy="24.450001"
     inkscape:window-x="0"
     inkscape:window-y="27"
     inkscape:window-maximized="1"
     inkscape:current-layer="svg4156" />
  <path
     style="fill:#000000"
     d="m 43.5,42.012737 c -0.2475,-0.166953 -1.09125,-0.305616 -1.875,-0.308142 -0.78375,-0.0025 -1.425,-0.139593 -1.425,-0.304593 0,-0.295803 0.464205,-0.4317 1.05,-0.307389 1.01544,0.215484 5.251659,-0.03044 7.107135,-0.412593 2.753586,-0.567126 8.978649,-1.570752 13.287249,-2.142222 1.81191,-0.240321 3.869187,-0.707139 4.57173,-1.037373 0.70254,-0.330231 1.71846,-0.600423 2.257596,-0.600423 0.539139,0 1.451859,-0.14283 2.02827,-0.317401 0.576411,-0.174573 1.35492,-0.380283 1.730019,-0.457137 0.375099,-0.07685 1.387599,-0.420255 2.25,-0.76311 0.862401,-0.342855 3.141708,-1.140558 5.065128,-1.77267 3.366306,-1.106298 4.459749,-1.542663 8.052873,-3.213675 1.956222,-0.909759 4.481343,-2.524457 4.492263,-2.872595 0.01269,-0.404915 -3.187473,0.115625 -7.342263,1.194292 -2.145,0.556885 -4.556844,1.139547 -5.35965,1.294805 -0.802809,0.155258 -2.085309,0.481259 -2.85,0.724448 -1.577691,0.501735 -3.787392,0.817743 -6.637125,0.949167 -1.074273,0.04954 -3.235725,0.172062 -4.803225,0.272262 -2.631555,0.168219 -2.804013,0.145905 -2.25,-0.291129 0.718206,-0.566562 0.920151,-0.607737 4.95,-1.009263 3.06582,-0.305469 7.940475,-1.031491 9.15,-1.362782 2.097024,-0.574378 8.635911,-1.895763 12,-2.424974 1.893309,-0.297839 3.444744,-0.81604 3.273357,-1.093347 -0.08635,-0.139712 0.491826,-0.23068 1.284825,-0.202151 0.792999,0.02853 2.589318,-0.185154 3.991818,-0.474851 1.4025,-0.289697 3.4275,-0.706053 4.5,-0.925234 1.0725,-0.219181 3.0975,-0.662894 4.5,-0.98603 3.82199,-0.880582 4.8,-0.994094 4.8,-0.557104 0,0.820677 -0.84187,1.394536 -2.7,1.840441 -1.0725,0.257373 -2.63469,0.670967 -3.47153,0.919098 -0.83684,0.24813 -1.74384,0.365838 -2.01555,0.261572 -0.50602,-0.194179 -5.827354,0.571269 -7.71292,1.109468 -1.580385,0.45109 -2.4,0.914352 -2.4,1.356523 0,0.577959 -8.548764,4.681392 -12.75,6.120039 -9.70503,3.323335 -11.311515,3.752008 -18.958059,5.05873 -0.856932,0.146439 -1.705662,0.35748 -1.886067,0.468978 -0.326547,0.201816 -5.14866,1.093839 -6.005874,1.111002 -0.2475,0.005 -0.99,0.121344 -1.65,0.258645 -0.66,0.137301 -2.28,0.38664 -3.6,0.554088 -1.32,0.167448 -2.805,0.381339 -3.3,0.475314 -0.495,0.09397 -1.1025,0.03427 -1.35,-0.132684 z M 21.428564,36.865319 c -0.286278,-0.46321 0.187467,-1.465318 0.692725,-1.465318 0.536989,0 4.638121,-1.807395 4.889224,-2.154711 0.633473,-0.876195 8.649326,-2.839323 12.589487,-3.083238 1.5675,-0.09703 3.1875,-0.241202 3.6,-0.32037 0.676236,-0.129785 5.159328,-0.545098 14.55,-1.347911 1.815,-0.155165 3.57,-0.344635 3.9,-0.421044 0.33,-0.07641 1.797969,-0.225917 3.262152,-0.332241 1.464183,-0.106324 3.151683,-0.355882 3.75,-0.554575 0.598317,-0.198692 1.627848,-0.33157 2.287848,-0.295284 0.66,0.03629 1.43625,0.07574 1.725,0.08767 0.969186,0.04006 0.536904,0.592687 -0.6,0.76704 -0.61875,0.09489 -1.5975,0.32515 -2.175,0.511688 -0.5775,0.186539 -1.32,0.380165 -1.65,0.430281 -0.33,0.05012 -1.6125,0.433449 -2.85,0.851851 -5.193387,1.755898 -5.886249,1.96096 -6.625452,1.960903 -0.426501,-3.6e-5 -1.615605,0.275745 -2.642454,0.61284 -1.026849,0.337098 -2.918637,0.669429 -4.203972,0.738516 -1.285338,0.06909 -2.931234,0.255558 -3.657549,0.414375 -0.726315,0.15882 -2.108697,0.369639 -3.071958,0.468483 -0.963264,0.09885 -2.178264,0.357885 -2.7,0.57564 -0.521739,0.217755 -1.893615,0.566373 -3.048615,0.774705 -1.155,0.208332 -2.9775,0.560538 -4.05,0.782679 -1.0725,0.222141 -2.76,0.400989 -3.75,0.39744 -0.99,-0.0035 -2.745,0.156801 -3.9,0.356337 -2.679032,0.462826 -6.104545,0.595177 -6.321436,0.24424 z M 31.95,34.943731 c 1.65,-0.118827 3.23625,-0.339525 3.525,-0.490443 0.347313,-0.181527 0.525,-0.163299 0.525,0.05386 0,0.189603 0.158403,0.227682 0.375,0.09015 0.20625,-0.130962 0.4425,-0.251187 0.525,-0.267165 0.0825,-0.01599 0.4875,-0.121644 0.9,-0.23481 0.4125,-0.113166 1.155,-0.258285 1.65,-0.322485 0.495,-0.0642 1.305,-0.194001 1.8,-0.288441 0.495,-0.09444 1.3725,-0.230214 1.95,-0.301722 0.5775,-0.0715 2.039877,-0.27795 3.249726,-0.458766 1.209849,-0.180816 2.307759,-0.261987 2.439801,-0.180381 0.132042,0.08161 0.993261,-0.11076 1.91382,-0.427479 1.566984,-0.539121 3.095433,-0.850968 5.169888,-1.0548 0.920361,-0.09043 3.749742,-0.746853 6.261543,-1.452685 0.816627,-0.229477 1.542891,-0.591573 1.613919,-0.804657 0.07103,-0.213084 0.0042,-0.310232 -0.148419,-0.215884 -0.152658,0.09435 -1.013922,0.253267 -1.913919,0.353153 -2.6514,0.294264 -3.611325,0.418367 -5.986359,0.77394 -1.2375,0.185269 -2.91957,0.391053 -3.737931,0.457296 -0.818364,0.06625 -2.226909,0.257052 -3.130098,0.424017 -0.903192,0.166962 -2.265372,0.30357 -3.027069,0.30357 -0.761697,0 -1.517007,0.132105 -1.67847,0.293568 -0.16146,0.16146 -1.03221,0.355707 -1.935,0.431658 C 41.388645,31.701178 39.9075,31.910413 39,32.090191 c -0.9075,0.179781 -1.9875,0.382098 -2.4,0.449598 -3.128325,0.511896 -4.8,1.012764 -4.8,1.438185 0,0.141591 -0.112398,0.187971 -0.249771,0.103068 -0.263613,-0.162918 -4.795036,0.863766 -5.082905,1.151634 -0.09246,0.09246 0.428322,0.11388 1.157287,0.0476 C 28.353575,35.214007 30.3,35.062558 31.95,34.943731 Z M 73.5,34.075 c 0,-0.261249 0.21375,-0.474999 0.474999,-0.474999 0.261252,0 0.421563,0.160311 0.35625,0.35625 C 74.145828,34.512517 73.5,34.604779 73.5,34.075 Z M 23.1,33.750001 c 0,-0.251736 0.267447,-0.45 0.607022,-0.45 0.716014,0 4.686978,-2.657253 6.425764,-4.299936 C 30.802254,28.3676 32.43,26.892261 33.75,25.721535 c 3.476736,-3.083568 7.95,-7.678619 7.95,-8.166445 0,-0.230823 0.135,-0.503114 0.3,-0.605089 0.165,-0.101976 0.3,-0.397643 0.3,-0.657038 0,-0.287357 -0.690993,0.201454 -1.768545,1.251073 -0.972699,0.947487 -2.127633,1.958262 -2.566518,2.246167 -0.438888,0.287905 -1.001238,0.81366 -1.249668,1.168344 -0.472311,0.674321 -2.167806,1.688918 -2.412852,1.443871 -0.078,-0.078 0.373293,-0.521285 1.002879,-0.98507 0.629586,-0.463785 1.801614,-1.489919 2.604501,-2.280297 0.80289,-0.790377 1.563393,-1.43705 1.690011,-1.43705 0.126618,0 0.300819,-0.27 0.387117,-0.6 0.0863,-0.33 0.342936,-0.6 0.570306,-0.6 0.227373,0 0.652644,-0.405 0.945048,-0.9 0.292404,-0.495 0.636951,-0.9 0.76566,-0.9 0.128709,0 1.842327,-1.557074 3.808038,-3.460163 1.965714,-1.90309 3.829974,-3.6058829 4.142799,-3.7839842 C 50.748651,7.154181 50.774049,7.2164922 50.590092,8.3668911 50.481489,9.0460633 50.158038,9.8925217 49.871316,10.24791 48.662763,11.745886 47.113731,13.476895 45,15.691499 c -1.2375,1.296557 -2.30064,2.515129 -2.362533,2.707939 -0.06189,0.192809 -0.424089,0.628491 -0.804882,0.968181 -0.380793,0.33969 -0.784317,1.01469 -0.896721,1.5 -0.208323,0.899455 0.152016,0.552553 10.379721,-9.992619 1.647813,-1.6989596 2.926842,-2.7749997 3.298491,-2.7749997 0.900882,0 0.413751,0.7259827 -2.666724,3.9742887 -4.512351,4.758194 -8.172996,10.178603 -9.034332,13.377358 -0.165411,0.614291 -0.503442,1.382722 -0.751182,1.707624 -0.390048,0.511533 -0.49182,0.5304 -0.759123,0.14073 -0.415023,-0.605018 -0.172788,-1.485151 0.917841,-3.334864 0.501705,-0.850894 0.84156,-1.731143 0.755235,-1.956109 -0.08633,-0.224965 -0.02894,-0.409027 0.127527,-0.409027 0.156468,0 0.572652,-0.57375 0.924852,-1.275 0.3522,-0.70125 0.969312,-1.71375 1.371363,-2.25 1.349553,-1.800014 0.26976,-0.957024 -1.699533,1.32682 -1.0725,1.243809 -2.656836,3.02348 -3.520749,3.954825 -0.86391,0.931345 -1.57266,1.793062 -1.575,1.914926 -0.0077,0.40103 -1.029696,1.428429 -1.420923,1.428429 -0.776871,0 -0.245262,-1.749915 1.073349,-3.533165 0.399846,-0.540741 0.674418,-1.034308 0.610158,-1.096815 -0.06426,-0.06251 -1.061835,0.762315 -2.216835,1.832937 -2.334324,2.163792 -4.348599,3.936069 -6.6,5.807061 -0.825,0.685604 -2.009797,1.705388 -2.632881,2.26619 C 25.534332,33.760798 23.1,34.738357 23.1,33.750001 Z M 40.442061,21.742063 c -0.09237,-0.09237 -0.260115,0.07413 -0.372774,0.37 -0.162804,0.427559 -0.128346,0.462018 0.16794,0.167938 0.205026,-0.2035 0.297201,-0.445572 0.204834,-0.537938 z M 49.085175,9.9860005 C 48.954924,9.8562004 48.58254,10.0875 48.257658,10.5 c -0.324882,0.4125 -0.887607,1.0875 -1.250496,1.5 -1.560747,1.774117 -1.377144,1.813711 0.398799,0.086 C 48.459783,11.0608 49.215429,10.1158 49.085175,9.9860005 Z M 74.4,33.163636 c 0,-0.260931 1.529175,-1.663635 1.813635,-1.663635 0.541632,0 0.284784,0.488334 -0.601488,1.143582 C 74.740149,33.28828 74.4,33.434215 74.4,33.163636 Z m -24,-6.138266 c 0,-0.151048 0.8775,-1.045034 1.95,-1.986637 1.972521,-1.731776 2.218599,-2.150132 1.617999,-2.750733 -0.242667,-0.242668 -0.874854,0.06408 -2.34948,1.14 -1.109613,0.8096 -2.167557,1.472001 -2.350986,1.472001 -0.183432,0 -0.523632,-0.271437 -0.756003,-0.603194 l -0.422493,-0.603194 -0.766839,0.603194 c -1.464165,1.151714 -1.851078,0.617955 -0.793023,-1.094011 0.346044,-0.559914 0.559275,-1.200178 0.473844,-1.42281 -0.144,-0.375254 1.808334,-2.579985 2.284629,-2.579985 0.516825,0 0.142851,1.460706 -0.537648,2.1 -0.4125,0.387523 -0.75,0.841313 -0.75,1.008421 0,0.167109 0.405891,-0.08503 0.901977,-0.560316 0.648963,-0.621744 0.993375,-0.772754 1.227792,-0.538335 0.23442,0.234419 0.233865,0.497624 -0.0021,0.9383 -0.41553,0.776653 -0.41205,0.95193 0.01901,0.95193 0.617328,0 2.356497,-1.516961 3.112893,-2.715167 C 54.009495,19.196883 54.9,19.023449 54.9,20.065346 c 0,0.275633 0.206766,0.796351 0.45948,1.157152 0.394866,0.563749 0.563619,0.608552 1.2,0.318597 C 56.966766,21.355523 57.3,21.093828 57.3,20.95955 c 0,-0.134278 0.391422,-0.446553 0.869823,-0.693944 0.693933,-0.358847 0.93312,-0.373536 1.18284,-0.07264 0.396597,0.477869 0.08944,0.966218 -0.777981,1.236921 -0.371427,0.115913 -0.824115,0.488777 -1.005975,0.828586 -0.327579,0.612091 -0.157221,0.884235 0.781293,1.248083 0.536802,0.208111 -0.299676,1.20003 -1.222953,1.450212 -0.641109,0.173722 -0.966648,0.117349 -1.210119,-0.209554 C 55.417812,24.07706 55.160175,24.168481 52.95,25.800001 50.925528,27.294438 50.4,27.546973 50.4,27.02537 Z M 74.718429,27.01139 C 74.305821,26.756384 75.200226,26.610261 82.2,25.789098 c 5.333514,-0.62569 9.909525,-0.775475 9.435,-0.308832 -0.15675,0.154145 -1.8375,0.354959 -3.735,0.446253 -4.401213,0.211753 -7.074042,0.455803 -8.4,0.766984 -0.5775,0.13553 -1.2525,0.24834 -1.5,0.250689 -0.2475,0.0023 -1.005612,0.06879 -1.684695,0.147654 -0.679083,0.07886 -1.397679,0.04265 -1.596876,-0.08046 z M 21.19261,25.868945 c -0.292479,-0.47324 -0.0026,-2.678831 0.419719,-3.193078 1.146312,-1.39596 1.799054,-1.975866 2.224034,-1.975866 0.700735,0 0.55633,0.998894 -0.285997,1.978338 -0.412298,0.479414 -0.749798,0.977662 -0.75,1.107217 -5.4e-4,0.350917 0.973468,-0.24959 1.582628,-0.975734 0.560805,-0.668504 1.272145,-0.546823 0.996873,0.170524 -0.251405,0.655152 0.245463,0.494253 1.020133,-0.330345 1.441049,-1.533927 1.690763,-0.317502 0.322555,1.571254 -0.862722,1.190953 -0.905231,1.209734 -2.533387,1.119256 -1.155806,-0.06423 -1.762661,0.03657 -2.009288,0.333734 -0.391747,0.472026 -0.769796,0.546581 -0.98727,0.1947 z M 13.821326,24.05291 c -2.190628,-0.829163 -3.201091,-2.008059 -3.450801,-4.026013 -0.19643,-1.587383 -0.135527,-1.864438 0.773224,-3.517454 0.824842,-1.500388 1.356681,-2.033503 3.24635,-3.254137 3.230744,-2.086906 7.323238,-3.8633847 8.502789,-3.6909108 0.298588,0.04366 0.7406,-0.084706 0.98225,-0.2852571 0.241649,-0.2005509 0.524928,-0.2790717 0.629509,-0.1744908 0.104581,0.1045812 0.337569,0.068744 0.51775,-0.079638 0.180182,-0.1483824 1.104192,-0.4719838 2.053356,-0.7191145 2.300421,-0.5989524 3.505959,-0.2715621 3.519654,0.9558394 0.0034,0.303528 -0.09772,0.3268227 -0.384711,0.088639 -0.280231,-0.2325702 -0.973642,-0.2008353 -2.474889,0.1132665 -1.14707,0.2399985 -2.337468,0.4363608 -2.645327,0.4363608 -0.307859,0 -2.089521,0.7495116 -3.95925,1.6655816 -3.791451,1.857614 -5.712195,3.599202 -7.148714,6.481921 -1.147368,2.302467 -1.001855,3.741091 0.526221,5.202498 0.532594,0.509357 1.024985,0.597929 3.259318,0.586293 2.669133,-0.0139 3.400852,0.234925 1.694445,0.576207 -1.638783,0.327757 -4.268005,0.16016 -5.641174,-0.359591 z M 30.975,23.798316 c -0.672828,-0.266107 -0.355521,-2.198315 0.361005,-2.198315 0.204498,0 0.810972,0.219081 1.347723,0.486848 0.945096,0.471477 0.958392,0.503639 0.421092,1.018648 -0.630423,0.604268 -1.575999,0.911859 -2.12982,0.692819 z m 29.342886,-0.226765 c -0.476484,-0.574128 0.226563,-1.932586 1.717788,-3.319179 1.230363,-1.144033 1.484097,-1.212752 2.600211,-0.704217 0.864753,0.394008 0.974961,0.903393 0.314115,1.451846 -0.69516,0.576931 -0.532479,0.916507 0.28938,0.604038 0.43929,-0.167019 0.807516,-0.170865 0.90726,-0.0095 0.243354,0.393756 -2.461494,1.897683 -3.108651,1.728447 -0.300693,-0.07863 -0.871002,0.03674 -1.26735,0.25638 -0.920295,0.509991 -1.023456,0.509434 -1.452753,-0.0078 z M 63.3,21.150001 c 0.208329,-0.251022 0.240816,-0.45 0.07347,-0.45 -0.165,0 -0.46806,0.2025 -0.673467,0.45 -0.208329,0.251022 -0.240816,0.45 -0.07347,0.45 0.165,0 0.46806,-0.2025 0.673467,-0.45 z m 4.192038,1.190405 c -0.318264,-0.383483 -0.232035,-0.644312 0.520686,-1.575 1.053276,-1.302304 2.069025,-1.69281 1.808127,-0.695137 l -0.164955,0.630787 0.864324,-0.615453 c 0.47538,-0.338499 1.036551,-0.580413 1.247052,-0.537587 0.210501,0.04283 0.697707,-0.09622 1.082685,-0.308985 0.597192,-0.330058 0.78438,-0.31045 1.275,0.133555 C 74.441229,19.65881 74.7,20.14207 74.7,20.446497 c 0,0.304427 0.08041,0.553504 0.178689,0.553504 0.217566,0 1.919541,-1.182905 2.46774,-1.715126 0.833022,-0.808741 1.61133,-0.07744 0.832959,0.782652 C 77.915724,20.358872 77.7,20.680977 77.7,20.783315 c 0,0.283339 2.169495,-0.67186 2.85,-1.254816 0.33,-0.282696 0.97125,-0.671862 1.425,-0.864814 0.740229,-0.314773 0.825,-0.289829 0.825,0.242747 0,1.453795 3.163086,-0.212767 5.943513,-3.13151 2.000136,-2.099634 3.717873,-2.686153 3.213582,-1.097273 -0.209187,0.659085 -2.225928,2.715337 -2.667489,2.71975 -0.47346,0.0047 -2.283861,1.770742 -1.997001,1.948032 0.154656,0.09558 0.205143,0.371962 0.112197,0.614177 -0.09295,0.242216 -0.09066,0.440393 0.0051,0.440393 0.198846,0 2.64702,-1.078757 3.836409,-1.690466 1.70619,-0.877501 1.959915,-0.210365 0.494862,1.301184 -1.377048,1.420754 -0.683799,1.220619 1.872966,-0.540708 1.770192,-1.219466 2.323185,-1.466141 2.724681,-1.215403 0.392271,0.244976 0.692643,0.14837 1.357467,-0.436586 1.17294,-1.032026 1.833945,-1.37365 2.033409,-1.050912 0.09135,0.147802 -0.248886,0.586917 -0.756075,0.975811 C 96.927774,19.311582 96.3,19.95997 96.3,20.504306 c 0,0.477444 0.151035,0.540488 0.924333,0.385828 0.508383,-0.101677 1.259499,-0.448508 1.669149,-0.770737 0.409647,-0.322229 0.946254,-0.50857 1.192458,-0.414092 0.24929,0.09566 0.71401,-0.114125 1.04874,-0.473415 0.60668,-0.651191 1.16532,-0.6132 1.16532,0.07925 0,0.206649 -0.28122,0.67758 -0.62493,1.046513 -0.48022,0.515456 -0.54632,0.765514 -0.28543,1.07986 0.52264,0.629752 0.0619,0.727862 -2.960357,0.63037 -1.965825,-0.06341 -2.87133,-0.212307 -3.050079,-0.501527 -0.202464,-0.327593 -0.330054,-0.335502 -0.626712,-0.03885 -0.20487,0.20487 -0.626217,0.372492 -0.93633,0.372492 -0.445965,0 -0.537213,-0.172468 -0.436494,-0.825 0.07004,-0.45375 0.07132,-0.658611 0.003,-0.455246 -0.06847,0.203364 -0.775782,0.696878 -1.571805,1.096698 C 90.288732,22.480901 89.7,22.348006 89.7,21.240001 c 0,-0.651484 0.03441,-0.649109 -1.303728,-0.09 -0.59235,0.2475 -1.486338,0.45 -1.986636,0.45 -0.500301,0 -0.909636,0.120556 -0.909636,0.267903 0,0.147347 -0.225456,0.35442 -0.501015,0.460161 -0.556335,0.213485 -1.074162,-0.369992 -0.845835,-0.953064 0.08077,-0.20625 0.222753,-0.561761 0.315525,-0.790024 0.251208,-0.618097 -2.602617,0.363504 -3.110685,1.06995 -0.474882,0.660302 -1.13874,0.704886 -1.477677,0.09924 -0.21759,-0.38881 -0.438324,-0.374159 -1.725756,0.114541 -1.0977,0.41668 -1.606962,0.478748 -1.985976,0.242049 -0.382044,-0.238591 -0.702315,-0.192136 -1.278597,0.185458 -1.3344,0.874333 -1.755426,0.678094 -1.640781,-0.764763 0.143133,-1.801345 -0.57387,-1.833706 -2.234244,-0.100842 -1.410159,1.471721 -2.765976,1.821861 -3.522921,0.909796 z M 25.446013,20.331337 C 26.591986,19.072204 29.1,19.004856 29.1,20.233217 c 0,0.302604 -0.418496,0.400679 -1.575,0.369101 -0.86625,-0.02365 -1.845,0.07777 -2.175,0.225378 -0.538705,0.240965 -0.528896,0.190257 0.09601,-0.496359 z m 0.874056,-3.411267 c -0.267915,-0.267916 0.421313,-1.620069 0.825791,-1.620069 0.422257,0 1.65414,-1.264428 1.65414,-1.69784 0,-0.170042 0.262501,-0.546728 0.583336,-0.837079 0.320834,-0.290352 0.624584,-0.942128 0.674999,-1.448393 0.05042,-0.506265 0.260415,-0.975878 0.466665,-1.043585 1.063449,-0.3491048 -0.611198,3.893225 -2.185365,5.536116 -1.194623,1.246778 -1.639136,1.49128 -2.019566,1.11085 z M 69.975,16.164081 c -0.611328,-0.62613 -0.437517,-1.076507 0.682614,-1.768787 1.150641,-0.711135 2.125125,-0.604217 1.816773,0.199332 -0.164922,0.429785 0.01443,0.46579 1.468875,0.29485 C 75.306222,14.729287 75.6,14.77502 75.6,15.14738 c 0,0.257422 -0.267264,0.452621 -0.619722,0.452621 -0.340848,0 -0.857496,0.127252 -1.148109,0.282783 -0.966741,0.517384 -3.449856,0.698473 -3.857169,0.281297 z"
     id="path4166"
     inkscape:connector-curvature="0" />
</svg>
