<?xml version="1.0" encoding="UTF-8"?>
<svg version="1.1" xmlns="http://www.w3.org/2000/svg" width="196" height="98" >
<path fill="#231F20" d="M38.729,8.928c0.979-4.611-5.235-7.76-9.089-7.039C23.38,3.06,19.373,10.386,17,15.614 c-1.982,4.367-5.213,13.963,0.145,17.396c5.188,3.324,9.166-3.162,10.568-7.428c2.148-6.532,1.531-15.202-2.768-20.883 c-4.069-5.376-11.065,6.052-12.093,8.865c-4.025,11.016-2.689,23.627-2.797,35.133c-0.057,6.11-0.195,12.315-1.589,18.291 c-0.199,0.851-1.317,5.158-2.547,2.779c-0.865-1.671-1.004-3.797-1.193-5.628c-0.059-0.573-1.514-0.235-1.449,0.389 c0.182,1.762,0.4,7.579,3.396,7.276c3.044-0.308,3.567-6.253,3.91-8.286c1.656-9.817,0.88-20.08,0.992-29.994 c0.092-8.115,0.355-16.938,4.766-24.027c1.243-1.999,5.398-6.667,7.742-3.57c1.126,1.488,1.56,3.714,2.049,5.477 c0.876,3.156,1.704,5.893,1.356,9.207c-0.355,3.383-1.616,6.708-3.413,9.575c-2.955,4.716-7.312,2.067-8.128-2.305 c-1.184-6.34,2.688-13.738,6.111-18.777c2.338-3.441,5.529-6.943,10.053-6.013c2.726,0.562,5.824,2.864,5.161,5.983 C37.136,9.71,38.609,9.494,38.729,8.928L38.729,8.928 M19.285,27.458c-1.031,6.672-1.945,13.364-2.726,20.069c-0.512,4.403-0.957,8.817-0.948,13.253 c0.003,1.398-0.746,9.031,0.829,9.767c0.385,0.18,1.038-0.028,1.339-0.298c1.701-1.522,1.544-6.098,1.911-8.188 c0.71-4.045,1.675-8.049,2.666-12.033c1.572-6.322,3.057-13.062,5.796-19.007c0.633-1.374-0.569-0.554-0.534,0.35 c0.046,1.192-0.13,2.422-0.233,3.607c-0.359,4.144-0.866,8.275-1.279,12.414c-0.797,7.988-2.259,17.305,0.169,25.136 c0.107,0.345,1.464-0.018,1.449-0.389c-0.355-8.569,0.007-17.242,3.143-25.296c1.582-4.063,3.2-8.704,5.951-12.149 c-0.347,0.435,0.088,3.279,0.045,4.011c-0.134,2.284-0.379,4.563-0.611,6.839c-0.467,4.589-0.996,9.172-1.425,13.766 c-0.3,3.211-0.917,6.847-0.271,10.051c0.171,0.848,1.015,0.857,1.672,0.516c1.647-0.857,1.992-3.537,2.417-5.13 c2.289-8.592,3.078-17.81,6.905-25.926c0.366-0.776,1.907-3.863,2.549-2.709c0.595,1.069,0.45,2.739,0.469,3.905 c0.099,5.985-0.788,12.051-1.394,17.992c-0.202,1.98-3.122,15.821,2.962,12.483c2.125-1.166,3.59-3.885,4.806-5.855 c2.946-4.773,5.144-10.044,7.065-15.298c0.606-1.655,5.926-18.278,2.283-17.302c-1.621,0.435-2.289,2.79-2.827,4.105 c-2.247,5.5-3.127,11.609-3.691,17.485c-0.222,2.312-0.977,14.82,4.843,11.707c5.511-2.947,6.166-12.08,6.797-17.498 c0.234-2.009,2.066-15.59-2.417-14.814c-4.378,0.758-7.511,9.219-5.925,12.954c1.646,3.881,7.509,1.765,9.99,0.276 c5.145-3.086,6.651-9.238,6.726-14.825c0.001-0.081,0.037-0.307-0.017-0.382c-0.226-0.317-1.308-0.013-1.44,0.318 c-0.838,2.095-0.431,5.45-0.562,7.658c-0.322,5.434-0.583,10.871-0.779,16.311c-0.16,4.47-0.369,8.983-0.107,13.453 c0.054,0.915,0.63,3.535,2.005,1.647c0.662-0.909,0.775-2.403,0.992-3.465c1.017-4.966,1.678-10.004,2.634-14.983 c0.784-4.085,1.653-8.203,3.029-12.136c0.324-0.925,0.706-1.903,1.321-2.678c-0.276,0.347,0.073,0.635,0.314,1.593 c1.899,7.538-0.464,15.909,0.308,23.598c0.688,6.86,6.582,7.551,11.351,3.202c1.486-1.355,2.895-3.347,1.89-5.425 c-0.181-0.373-1.575,0.128-1.449,0.389c2.021,4.178-5.551,8.976-8.62,6.357c-3.134-2.673-1.991-10.57-1.88-14.066 c0.113-3.552,1.954-12.513-0.705-15.871c-1.495-1.89-3.36,1.645-3.745,2.579c-3.411,8.288-4.07,17.819-5.66,26.553 c-0.263,1.447-0.473,3.037-1.081,4.394c0.158-0.353,1.074,0.265,0.883-0.748c-0.104-0.546-0.125-1.112-0.157-1.665 c-0.254-4.354-0.023-8.762,0.127-13.115c0.181-5.252,0.443-10.502,0.746-15.749c0.134-2.318-0.301-5.885,0.577-8.08 c-0.48,0.106-0.96,0.212-1.44,0.318c0.294,0.413-0.028,1.967-0.045,2.428c-0.202,5.288-2.672,10.506-7.52,12.988 c-5.141,2.633-7.377-1.88-6.282-6.021c0.6-2.266,1.966-4.53,3.386-6.364c1.539-1.987,2.15,1.783,2.288,2.664 c1.228,7.864-0.036,18.653-4.074,25.595c-3.832,6.586-5.018-3.915-5.017-6.35c0.005-6.85,1.453-14.057,3.838-20.48 c0.295-0.794,0.66-1.554,1.044-2.308c0.292-0.572,0.158-1.046,0.303-0.439c0.515,2.155-0.448,4.872-0.896,6.967 c-1.265,5.914-3.418,11.629-5.878,17.139c-1.866,4.182-4.029,8.512-7.059,11.982c-1.855,2.126-2.335,0.072-2.509-1.613 c-0.338-3.271,0.391-6.76,0.724-10.002c0.183-1.785,3.309-22.649,0.044-22.647c-4.664,0.002-6.314,8.442-7.214,11.661 c-1.438,5.141-2.406,10.407-3.577,15.611c-0.427,1.896-0.89,3.788-1.521,5.628c-0.644,1.873-0.396,1.492-0.519-0.278 c-0.687-9.908,1.942-20.175,2.522-30.063c0.085-1.451,0.347-4.553-1.951-3.436c-2.932,1.426-4.435,6.944-5.597,9.639 c-4.02,9.32-4.954,18.697-4.535,28.794c0.483-0.13,0.966-0.259,1.449-0.389c-2.665-8.594-0.81-18.916,0.086-27.667 c0.157-1.53,2.434-15.063,0.166-14.455c-1.147,0.308-1.494,1.754-1.876,2.717c-1.373,3.458-2.351,7.094-3.356,10.67 c-1.278,4.545-2.416,9.131-3.441,13.74c-0.45,2.021-0.849,4.054-1.207,6.094c-0.292,1.662-0.223,5.844-1.632,7.105 c0.447-0.1,0.893-0.199,1.339-0.298c-1.451-0.679-0.734-8.363-0.743-9.653c-0.028-4.042,0.38-8.061,0.815-12.074 c0.766-7.056,1.757-14.095,2.84-21.108C20.773,26.835,19.34,27.097,19.285,27.458L19.285,27.458 M130.002,11.37c-8.455-7.354-18.497,9.731-20.507,15.308c-1.403,3.893-0.134,7.732,4.423,7.282 c4.948-0.489,8.543-5.34,9.803-9.731c1.151-4.011,1.061-8.905,1.071-13.06c0.003-1.442,0.177-4.723-1.38-5.563 c-4.383-2.368-9.904,8.258-11.188,10.714c-4.167,7.968-4.498,17.739-5.229,26.506c-0.787,9.443-1.17,20.643-7.919,28.019 c-0.596,0.651,0.812,0.72,1.183,0.314c7.508-8.206,7.539-20.721,8.417-31.168c0.512-6.09,1.152-12.172,2.796-18.076 c0.847-3.042,2.168-5.891,3.877-8.537c1.021-1.582,6.453-10.004,7.69-5.322c1.25,4.728,0.216,11.627-0.775,16.326 c-0.736,3.489-7.353,12.412-11.318,7.54c-3.785-4.65,5.472-15.438,8.3-18.182c2.297-2.229,6.564-4.255,9.418-1.773 C129.092,12.339,130.455,11.764,130.002,11.37L130.002,11.37 M110.214,53.205c1.802-3.072,3.423-6.38,4.096-9.896c0.402-2.103,0.551-3.827,1.499-5.778 c1.299-2.677,0.258,3.66,0.071,4.588c-1.57,7.78-4.972,16.329-4.34,24.362c0.289,3.673,5.333,1.591,6.698-0.148 c3.192-4.066,4.386-9.574,5.657-14.467c0.557-2.143,1.113-4.285,1.691-6.423c0.182-0.671,0.374-1.34,0.571-2.007 c0.669-2.26-0.502,0.553-0.9-0.797c0.907,3.074-1.219,9.202-1.649,12.057c-0.695,4.618-1.434,9.483-0.695,14.144 c0.633,3.995,4.017,2.739,5.848,0.314c3.485-4.615,5.695-10.19,7.861-15.504c1.166-2.86,3.416-7.103,3.011-10.351 c-0.078-0.625-1.309-0.138-1.583,0.033c-1.728,1.078-2.297,4.821-2.761,6.555c-1.189,4.445-1.596,9.087-1.731,13.67 c-0.049,1.673-0.503,7.52,1.901,8.272c3.075,0.964,5.572-3.152,6.876-5.214c5.366-8.476,5.097-19.241,9.25-28.163 c-0.466,0.125-0.932,0.25-1.396,0.375c0.718,0.653-2.481,9.982-2.632,10.549c-1.915,7.242-4.063,14.418-5.281,21.822 c-0.903,5.488-0.892,11.015,0.524,16.406c0.785,2.99,2.426,7.51,6.142,7.476c6.551-0.059,10.457-11.553,12.414-16.105 c4.215-9.806,7.244-20.591,7.481-31.32c0.095-4.292-1.571-7.828-5.408-4.021c-5.927,5.881-8.122,17.169-7.515,25.183 c0.197,2.6,1.847,8.857,5.521,5.779c4.449-3.727,6.252-11.543,7.982-16.783c1.938-5.866,3.703-11.905,4.749-18.003 c0.368-2.146,0.486-5.161-0.732-7.083c-0.825-1.301-2.581,0.123-3.102,0.94c-1.377,2.161-1.897,5.048-2.512,7.485 c-1.411,5.605-2.397,11.339-3.275,17.049c-0.394,2.556-3.009,14.212,1.187,15.429c2.423,0.702,4.729-2.56,5.82-4.138 c3.08-4.455,4.29-9.795,5.985-14.854c1.025-3.062,2.095-6.109,3.182-9.15c0.409-1.143,0.97-4.452,1.95-5.248 c-0.46,0.083-0.92,0.167-1.38,0.25c-0.444,3.066-13.795,35.062-5.481,34.029c3.184-0.395,5.742-2.905,7.63-5.323 c1.801-2.308,3.06-4.738,4.181-7.435c1.223-2.94,2.27-5.957,3.205-9c0.229-0.747,0.924-2.259,0.64-3.093 c-0.122-0.36-1.214,0.098-1.38,0.25c-2.698,2.479-3.249,8.614-3.68,12.054c-0.523,4.173-0.405,9.006,0.869,13.057 c0.104,0.332,1.544-0.085,1.449-0.389c-1.003-3.187-1.089-6.678-1.064-9.986c0.027-3.752,0.621-11.985,3.736-14.848 c-0.46,0.084-0.92,0.167-1.38,0.25c0.685,2.011-1.844,6.73-2.506,8.561c-1.081,2.995-2.234,5.968-3.935,8.668 c-1.074,1.705-6.429,9.067-8.652,5.689c-2.767-4.202,1.222-13.167,2.537-17.211c1.631-5.01,4.519-10.408,5.28-15.661 c0.045-0.311-1.264,0.155-1.381,0.25c-0.828,0.673-1.221,3.052-1.564,3.998c-1.272,3.499-2.494,7.018-3.685,10.545 c-1.853,5.487-3.185,11.063-6.665,15.811c-1.816,2.477-3.508,2.813-4.11-0.533c-1.015-5.634,0.584-12.204,1.542-17.685 c0.899-5.143,1.894-10.304,3.387-15.311c0.35-1.171,0.768-2.321,1.306-3.418c0.558-1.137,0.173-1.162,0.63-0.271 c1.572,3.067,0.474,7.251-0.221,10.342c-1.707,7.605-4.029,15.163-6.947,22.392c-1.103,2.731-2.326,5.674-4.285,7.917 c-2.467,2.824-3.497-8.024-3.48-9.123c0.076-5.315,1.657-10.688,3.765-15.529c0.938-2.155,2.164-4.192,3.71-5.965 c2.03-2.329,2.479,1.4,2.598,2.675c0.797,8.55-1.947,18.106-4.719,26.101c-1.614,4.654-3.559,9.211-5.809,13.592 c-2.132,4.149-7.05,12.297-11.027,5.301c-5.615-9.88-1.821-23.242,0.845-33.361c1.406-5.337,2.909-10.644,4.212-16.009 c0.094-0.385,1.091-3.143,0.715-3.484c-0.252-0.229-1.263,0.086-1.397,0.374c-3.114,6.69-4.15,14.855-6.354,21.908 c-0.972,3.111-2.527,5.963-4.486,8.567c-1.93,2.565-3.444,2.044-4.042-0.98c-0.804-4.061-0.201-8.594,0.304-12.654 c0.398-3.197,1.136-6.374,2.206-9.413c0.267-0.759,0.6-1.489,0.979-2.197c0.408-0.457,0.214-0.541-0.581-0.252 c0.163,0.35-0.088,1.368-0.122,1.558c-1.32,7.463-5.282,15.3-9.084,21.764c-1.006,1.711-3.403,5.571-4.479,2.058 c-0.773-2.524-0.431-5.523-0.252-8.103c0.304-4.384,1.146-8.721,1.794-13.063c0.232-1.555,1.099-4.179,0.633-5.757 c-0.064-0.217-0.66-0.063-0.784-0.026c-1.176,0.348-1.225,1.771-1.521,2.814c-1.555,5.468-2.713,11.038-4.699,16.376 c-0.766,2.06-1.761,4.101-3.277,5.714c-2.202,2.343-3.317,0.18-3.452-1.541c-0.359-4.558,1.21-9.524,2.191-13.934 c0.9-4.046,1.932-8.069,2.643-12.153c0.2-1.151,0.97-4.572-1.207-3.818c-2.181,0.756-3.384,4.116-3.551,6.187 c-0.344,4.253-2.093,8.053-4.232,11.7C108.681,53.641,110.003,53.565,110.214,53.205L110.214,53.205z"/>
</svg>