<?xml version="1.0" encoding="UTF-8"?>
<svg version="1.1" xmlns="http://www.w3.org/2000/svg" width="163" height="39" >
<path fill="#231F20" d="M9.067,16.981c-4.335,0.196-7.793-3.071-4.75-7.088c2.564-3.386,7.729-4.554,11.625-5.361 c13.322-2.762,26.602,0.942,39.934,1.21c0.647,0.014,8.108,0.289,7.286-2.063c-0.833-2.384-6.058-0.082-7.168,0.442 C45.317,9.167,41.34,22.16,32.856,29.687c-1.216,1.079-2.631,1.902-4.266,2.149c-2.771,0.42-3.073-1.494-1.79-3.038 c1.825-2.196,4.835-3.709,7.255-5.06c6.552-3.656,13.76-5.689,20.604-8.669c1.961-0.854,15.7-7.177,11.888-11.143 c-3.892-4.048-9.959,8.357-10.943,10.221c-1.624,3.075-2.936,6.288-4.254,9.501c-1.024,2.495-2.324,4.839-3.955,6.99 c-4.166,1.687-5.463,1.669-3.894-0.052c0.454-0.497,0.944-0.956,1.47-1.377c4.683-4.017,10.375-7.012,15.589-10.266 c1.561-0.975,17.559-10.949,9.191-12.211c-0.7-0.105-1.481,0.886-0.507,1.033c4.836,0.729-4.076,6.94-5.596,7.952 c-4.492,2.989-9.158,5.712-13.693,8.636c-1.757,1.133-12.334,6.998-6.941,9.271c6.881,2.899,12.035-15.508,13.971-19.324 c1.28-2.523,2.737-4.96,4.433-7.227c1.629-2.178,6.042-3.181,3.221,0.363c-4.202,5.279-12.721,7.803-18.748,9.94 c-5.182,1.839-10.406,4.095-15.074,7.024c-2.216,1.392-5.958,3.373-6.456,6.289c-0.265,1.55,2.262,2.185,3.329,2.184 c3.284-0.005,5.73-2.078,7.972-4.274c7.5-7.348,12.864-23.487,24.769-24.832c2.382-0.269,0.192,0.726-1.109,0.851 c-5.615,0.542-11.518-0.422-17.07-1.136C30.703,2,15.306,0.588,5.094,7.646c-6.026,4.165-3.159,10.689,3.838,10.373 C9.745,17.982,10.057,16.937,9.067,16.981L9.067,16.981 M83.057,2.167c-4.546,9.272-7.719,19.529-14.914,27.118c-0.629,0.664,0.766,0.901,1.213,0.43 c7.307-7.708,10.475-17.976,15.086-27.382C84.807,1.591,83.34,1.59,83.057,2.167L83.057,2.167 M74.729,9.179c0.846-3.188,5.732-4.118,8.309-4.538C93,3.021,87.48,11.096,84.242,14.6 c-3.284,3.553-7.471,6.464-11.24,9.498c-1.454,1.17-2.99,2.217-4.565,3.216c-2.055,1.436-4.437,1.951-7.146,1.548 c0.921-1.415,1.843-2.829,2.764-4.243c2.035-1.091,4.188-1.329,6.458-0.713c3.872,1.772,6.382,5.851,9.815,8.271 c6.108,4.306,14.485,4.725,21.657,4.797c0.626,0.007,1.511-0.938,0.53-0.947c-7.202-0.072-14.854-0.584-21.054-4.624 c-3.046-1.986-5.394-5.013-8.285-7.24c-3.393-2.615-9.315-2-12.287,1.257c-2.479,2.716-0.665,6.103,3.111,5.021 c6.168-1.768,11.181-6.856,16.05-10.788c3.844-3.104,10.529-7.97,10.346-13.584c-0.191-5.869-15.832-1.62-17.126,3.254 C73.105,9.945,74.579,9.747,74.729,9.179L74.729,9.179 M78.523,24.831c-1.297,4.719,5.802,4.317,8.387,3.855c0.712-0.128,1.173-1.05,0.18-0.873 c-2.204,0.395-8.224,0.896-7.113-3.145C80.135,24.096,78.668,24.303,78.523,24.831L78.523,24.831 M99.771,24.322c-0.193,0.901-0.435,1.787-0.691,2.673c-0.134,0.464-0.842,3.525-2.151,3.023 c-2.337-0.898-0.175-3.81,0.505-4.896c2.5-4,4.818-8.094,7.783-11.782c0.434-0.526,0.891-1.033,1.368-1.519 c1.94-2.058,5.901-1.24,4.433,2.025c-0.785,1.746-1.995,3.374-3.017,4.989c-1.254,1.985-4.096,5.098-4.272,7.531 c-0.02,0.281,0.233,0.364,0.464,0.399c1.125,0.171,2.243-1.393,2.987-1.989c2.854-2.288,5.872-4.383,8.808-6.565 c4.597-3.418,11.71-7.557,14.282-12.934c2.234-4.671-4.688-2.802-6.322-1.558c-3.112,2.368-4.763,6.286-6.06,9.833 c-1.604,4.386-0.592,12.387-4.604,15.421c-0.786,0.594,0.418,0.939,0.932,0.551c1.633-1.234,2.395-2.604,2.883-4.588 c1.236-5.028,1.385-9.764,3.486-14.65c0.865-2.013,2.167-3.818,3.648-5.415c1.726-1.859,6.084-1.942,4.197,1.17 c-1.656,2.733-4.818,4.942-7.24,6.903c-4.853,3.93-10.024,7.438-14.942,11.281c-1.912,1.494-1.254,1.988-0.018-0.188 c1.547-2.723,3.302-5.329,4.953-7.988c1.979-3.185,3.014-8.521-2.716-6.758c-4.676,1.44-8.097,8.675-10.405,12.44 c-1.371,2.235-7.084,9.075-1.078,9.488c3.044,0.209,3.781-4.88,4.245-7.044C101.367,23.538,99.893,23.751,99.771,24.322 L99.771,24.322 M116.927,23.38c3.241-1.894,6.399-3.969,9.35-6.292c0.647-0.51,6.697-5.939,3.149-6.251 c-4.021-0.354-7.227,6.21-8.388,9.075c-1.059,2.612-0.685,6.154-2.335,8.503c1.631-2.32,0.538,0.575,1.137-0.175 c0.272-0.342,0.565-0.667,0.855-0.992c1.379-1.543,3.325-3.479,5.5-3.672c0.415-0.037,1.568-0.737,0.609-0.652 c-3.53,0.315-6.372,2.914-8.466,5.61c-0.063,0.081-0.094,0.14-0.019,0.224c0.465,0.514,1.625-0.203,1.869-0.648 c0.936-1.705,1.178-3.85,1.528-5.727c0.606-3.254,2.241-6.199,4.343-8.723c0.32-0.385,2.299-2.702,2.864-1.834 c0.427,0.656-0.246,1.616-0.598,2.109c-1.222,1.717-3.092,3.023-4.759,4.267c-2.391,1.782-4.921,3.414-7.495,4.918 C115.237,23.608,116.555,23.598,116.927,23.38L116.927,23.38 M137.852,15.197c0.746-0.994,3.923-5.556,1.227-6.135c-3.664-0.787-6.787,2.8-8.794,5.356 c-1.164,1.481-4.834,6.23-2.788,8.171c0.93,0.881,2.823,0.372,3.833-0.003c1.808-0.67,2.303-3.01,4.101-3.079 c0.806-0.031,1.131-1.054,0.141-1.016c-2.117,0.082-2.659,0.691-3.525,2.434c-0.756,1.521-3.787,1.742-3.563-0.327 c0.144-1.325,0.939-2.626,1.604-3.749c1.465-2.47,3.588-5.066,6.135-6.473c4.076-2.251,1.391,3.141,0.427,4.426 C136.1,15.534,137.473,15.702,137.852,15.197L137.852,15.197 M137.582,9.259c-2.617,3.745-3.9,7.193-3.675,11.732c0.159,3.213,0.072,6.401-0.889,9.489 c-0.933,2.997-3.784,4.322-6.457,5.502c-2.477,1.093-2.238-1.346-1.547-2.419c1.993-3.097,5.698-5.563,8.465-7.914 c4.089-3.474,8.23-6.885,12.267-10.419c1.333-1.167,13.331-10.743,7.07-11.597c-3.057-0.416-6.228,2.66-8,4.714 c-4.479,5.187,1.201,11.197-1.287,17.256c-0.163,0.397,1.263,0.229,1.441-0.207c1.161-2.827,1.098-5.342,0.531-8.317 c-0.805-4.225-1.811-5.899,1.326-9.532c1.521-1.761,8.572-4.575,5.794-0.487c-1.096,1.613-2.607,3.001-4.003,4.345 c-6.982,6.725-14.832,12.484-21.962,19.047c-1.309,1.204-3.647,2.896-3.517,4.925c0.223,3.464,5.038,0.647,6.563-0.129 c4.203-2.141,5.557-5.834,5.686-10.461c0.076-2.709-0.338-5.474-0.063-8.167c0.268-2.617,2.123-5.276,3.592-7.378 C139.267,8.742,137.824,8.913,137.582,9.259L137.582,9.259 M158.531,15.839c-2.233-0.056-5.325,0.209-7.08,1.769c-1.645,1.462-1.74,3.59-2.906,5.408 c-1.635,2.548-6.591,3.339-9.157,4.984c-1.282,0.821-3.76,5.083-0.51,4.675c2.004-0.252,4.544-3.11,4.347-5.119 c-0.048-0.48-1.503-0.163-1.449,0.389c0.088,0.893-0.535,1.642-1.012,2.325c-0.404,0.927-1.084,1.272-2.039,1.036 c0.16-1.647,0.965-2.788,2.413-3.421c2.315-1.484,5.092-1.993,7.396-3.503c1.371-0.898,2.048-2.413,2.604-3.886 c1.17-3.093,3.863-3.908,6.831-3.835C158.515,16.675,159.512,15.863,158.531,15.839L158.531,15.839z"/>
</svg>