<?xml version="1.0" standalone="no"?>
<!DOCTYPE svg PUBLIC "-//W3C//DTD SVG 20010904//EN"
 "http://www.w3.org/TR/2001/REC-SVG-20010904/DTD/svg10.dtd">
<svg version="1.0" xmlns="http://www.w3.org/2000/svg"
 width="468pt" height="110pt" viewBox="0 0 468 110"
 preserveAspectRatio="xMidYMid meet">
<metadata>
Created by POTRACE VERSION, written by Peter Selinger 2001-2007
</metadata>
<g transform="translate(0,110) scale(0.012059,-0.012059)"
fill="#000000" stroke="none">
<path d="M38541 9031 c-12 -8 -12 -12 -2 -25 8 -9 24 -16 38 -16 13 0 26 7 30
16 3 9 0 20 -8 25 -8 5 -21 9 -29 9 -8 0 -21 -4 -29 -9z"/>
<path d="M38340 8833 c-14 -2 -47 -11 -75 -20 -27 -8 -77 -27 -110 -40 -33
-14 -73 -34 -88 -46 -16 -11 -48 -29 -72 -41 -24 -11 -76 -46 -115 -76 -39
-30 -94 -74 -121 -96 -33 -27 -80 -52 -137 -73 -48 -17 -121 -52 -162 -77 -41
-26 -85 -55 -96 -66 -12 -10 -43 -26 -69 -34 -38 -11 -68 -33 -147 -111 -54
-54 -105 -105 -114 -113 -8 -8 -69 -70 -135 -137 -66 -68 -124 -123 -128 -123
-5 0 -38 -28 -73 -63 -34 -35 -134 -137 -221 -227 -87 -91 -168 -181 -180
-201 -12 -20 -51 -76 -87 -124 -36 -48 -82 -108 -103 -134 -20 -25 -56 -74
-79 -107 -22 -34 -54 -69 -69 -78 -16 -10 -39 -40 -55 -74 -14 -31 -60 -99
-101 -149 -41 -51 -96 -112 -122 -135 -32 -29 -71 -51 -119 -68 l-72 -24 -29
28 c-21 21 -35 26 -51 21 -16 -5 -20 -13 -18 -33 2 -21 10 -28 33 -32 23 -4
29 -10 27 -25 -2 -11 -16 -32 -33 -47 -21 -21 -40 -28 -68 -28 -21 0 -52 -7
-67 -15 -16 -8 -39 -15 -52 -15 -13 0 -35 -6 -50 -14 -15 -8 -38 -26 -52 -41
-14 -15 -39 -34 -57 -41 -28 -12 -41 -12 -95 1 -35 8 -88 15 -119 15 -31 0
-76 -7 -100 -16 -33 -12 -64 -14 -124 -10 -44 4 -120 2 -170 -3 -49 -5 -130
-21 -180 -36 -49 -15 -115 -33 -145 -40 -30 -8 -73 -21 -95 -30 -21 -10 -63
-17 -92 -16 -29 0 -61 5 -72 10 -10 6 -26 22 -35 36 -15 23 -16 32 -1 108 12
67 20 86 42 104 15 12 50 34 78 49 27 15 73 45 100 66 28 20 73 63 102 95 29
32 62 72 75 90 13 17 53 71 90 120 37 48 73 104 79 123 7 19 29 55 50 79 21
23 57 77 80 120 23 42 52 90 65 106 12 17 28 43 34 59 6 16 8 41 5 55 -3 15
-21 36 -43 50 -25 17 -50 24 -76 23 -21 0 -73 -17 -115 -37 -42 -20 -89 -43
-106 -52 -16 -9 -61 -32 -100 -51 -58 -28 -92 -56 -195 -161 -69 -69 -136
-142 -150 -161 -14 -19 -37 -46 -51 -60 -14 -14 -38 -44 -53 -68 -15 -23 -42
-59 -60 -80 -18 -20 -44 -53 -57 -73 -13 -20 -56 -79 -95 -131 -39 -52 -105
-125 -147 -163 -44 -40 -82 -84 -91 -105 -8 -19 -36 -55 -62 -80 -27 -26 -79
-80 -116 -120 -37 -41 -80 -93 -96 -115 -16 -22 -37 -47 -47 -55 -10 -8 -35
-42 -56 -75 -21 -33 -86 -108 -146 -166 -59 -58 -133 -135 -164 -170 -31 -35
-76 -86 -99 -114 -24 -27 -87 -93 -140 -146 -76 -75 -120 -109 -196 -152 -55
-30 -117 -71 -139 -91 -22 -20 -60 -55 -83 -78 -24 -24 -62 -62 -85 -85 -23
-24 -47 -43 -53 -43 -7 0 -35 -17 -64 -39 -29 -22 -68 -41 -90 -45 -25 -4 -55
-20 -85 -46 -27 -23 -65 -45 -91 -51 -24 -6 -64 -27 -89 -46 -30 -23 -63 -37
-102 -44 -32 -6 -98 -22 -148 -36 -49 -14 -126 -36 -170 -48 -44 -13 -98 -30
-120 -39 -22 -8 -73 -15 -115 -16 -41 0 -93 -6 -115 -12 -22 -6 -67 -11 -100
-10 -33 1 -100 14 -150 28 -49 14 -108 30 -130 36 -31 9 -65 36 -155 127 -63
64 -137 131 -165 149 -27 17 -75 44 -105 58 -33 16 -74 27 -101 27 -29 0 -58
-7 -80 -19 -20 -12 -45 -40 -61 -71 -15 -27 -48 -68 -72 -89 -25 -22 -65 -55
-90 -74 -26 -19 -69 -70 -97 -112 -28 -42 -66 -91 -84 -107 -19 -17 -50 -33
-69 -36 -19 -4 -42 -5 -53 -3 -10 2 -19 13 -21 25 -2 12 5 39 16 60 11 21 25
62 33 92 l13 53 -39 35 c-22 19 -70 61 -106 93 -37 33 -77 64 -90 69 -13 5
-87 7 -164 5 -77 -2 -194 -7 -260 -12 -66 -4 -129 -13 -141 -20 -12 -6 -39
-26 -61 -45 -26 -21 -60 -38 -96 -46 -31 -7 -76 -27 -103 -46 -27 -19 -54 -35
-60 -35 -6 0 -29 -13 -50 -29 -22 -15 -55 -33 -74 -39 -19 -6 -73 -16 -120
-22 -47 -7 -115 -14 -151 -17 -37 -3 -97 -2 -133 1 -44 5 -77 15 -101 32 -20
13 -45 24 -56 24 -11 0 -50 7 -87 16 -37 8 -84 20 -105 25 -24 6 -41 18 -46
32 -6 14 -3 34 6 57 8 19 17 42 20 51 2 9 -1 35 -7 59 -6 23 -22 52 -34 65
-13 12 -49 30 -82 40 -45 13 -81 16 -149 12 -62 -3 -146 -20 -270 -52 -99 -27
-211 -57 -250 -67 -38 -11 -95 -26 -125 -34 -30 -7 -100 -19 -155 -25 -55 -6
-182 -12 -283 -12 -148 0 -194 4 -240 18 -31 10 -70 22 -86 28 -15 6 -44 27
-63 46 -19 20 -55 77 -80 126 -25 50 -59 110 -77 134 -17 24 -48 62 -69 86
-21 24 -59 52 -87 64 -50 22 -51 22 -93 3 -29 -13 -56 -37 -81 -71 -21 -28
-41 -51 -46 -51 -4 0 -13 -14 -20 -30 -7 -17 -26 -47 -42 -68 -17 -20 -40 -59
-53 -87 -12 -27 -34 -61 -49 -75 -15 -13 -37 -40 -48 -60 -12 -19 -33 -48 -47
-64 -14 -15 -49 -43 -76 -61 -28 -17 -70 -54 -93 -81 -23 -27 -72 -85 -109
-129 -38 -44 -90 -101 -118 -126 -27 -25 -76 -62 -107 -82 -34 -21 -82 -67
-119 -112 -34 -41 -65 -75 -69 -75 -4 0 -36 -26 -71 -58 -35 -31 -80 -69 -100
-84 -20 -15 -86 -76 -146 -137 -61 -60 -128 -118 -150 -129 -21 -11 -45 -28
-53 -37 -7 -9 -25 -22 -40 -30 -15 -8 -47 -30 -71 -51 -24 -20 -64 -45 -88
-56 -25 -10 -64 -36 -88 -56 -23 -20 -75 -68 -115 -105 -41 -39 -97 -80 -128
-94 -30 -14 -82 -45 -115 -68 -33 -23 -77 -47 -97 -54 -20 -7 -56 -26 -80 -43
-24 -17 -73 -59 -109 -92 -36 -34 -115 -92 -175 -130 -60 -38 -120 -79 -134
-91 -14 -12 -50 -39 -80 -59 -38 -25 -66 -36 -92 -36 -20 0 -43 3 -52 6 -9 3
-16 14 -16 24 0 9 9 27 20 40 11 13 41 65 66 116 37 77 54 99 94 128 26 19 59
49 72 68 13 18 42 57 64 86 21 29 81 88 133 130 52 42 110 90 128 106 19 16
46 50 60 75 15 25 75 95 133 154 58 60 124 122 148 139 24 16 59 53 78 82 19
28 50 75 69 103 19 29 41 78 49 110 8 32 24 85 37 118 18 46 23 81 23 150 0
74 -4 98 -23 139 -16 33 -38 57 -67 75 -23 15 -82 37 -131 49 -48 11 -127 23
-174 26 -73 5 -100 2 -170 -18 -46 -14 -133 -41 -194 -62 -60 -20 -147 -49
-191 -64 -45 -15 -104 -41 -130 -56 -27 -16 -76 -48 -109 -72 -33 -23 -80 -58
-105 -78 -25 -19 -74 -48 -110 -65 -36 -17 -85 -45 -110 -62 -25 -17 -54 -39
-65 -48 -11 -10 -44 -27 -73 -38 -30 -12 -80 -40 -113 -62 -36 -24 -69 -39
-82 -37 -12 2 -23 11 -25 20 -2 9 21 45 52 80 30 35 70 79 88 98 18 19 47 55
66 79 19 24 40 61 48 83 8 23 14 56 14 75 0 18 -9 51 -19 72 -11 20 -38 54
-60 74 l-41 37 -98 0 c-80 0 -105 -4 -137 -21 -22 -12 -52 -28 -68 -36 -15 -8
-66 -21 -113 -28 -60 -10 -104 -24 -147 -48 -34 -19 -85 -42 -114 -51 -28 -10
-68 -30 -89 -47 -20 -16 -42 -29 -48 -29 -6 0 -46 -18 -88 -39 -43 -22 -93
-44 -112 -51 -19 -6 -87 -38 -153 -72 -65 -33 -134 -74 -153 -90 -19 -16 -65
-49 -101 -73 -37 -24 -131 -78 -210 -121 -79 -43 -178 -96 -221 -118 -42 -23
-110 -67 -151 -98 -41 -32 -79 -58 -84 -58 -5 0 -33 -16 -63 -36 -30 -20 -91
-54 -135 -75 -48 -24 -100 -59 -130 -89 -28 -28 -71 -58 -96 -68 -24 -10 -71
-32 -105 -49 -40 -21 -84 -56 -125 -101 -35 -38 -95 -93 -133 -121 -38 -29
-80 -57 -92 -61 -12 -5 -49 -29 -81 -54 -32 -25 -68 -56 -79 -68 -12 -13 -75
-53 -140 -88 -66 -35 -137 -81 -160 -102 -23 -21 -61 -45 -85 -53 -24 -9 -64
-29 -89 -44 -25 -16 -63 -36 -84 -45 -26 -11 -52 -14 -75 -10 -20 4 -49 13
-64 21 -16 8 -35 30 -43 49 -11 27 -13 58 -8 137 6 93 5 107 -15 144 -11 23
-21 53 -21 67 0 13 7 32 16 40 8 9 19 16 22 16 4 0 34 22 66 49 42 34 64 61
75 91 12 33 30 53 73 84 31 23 85 77 119 121 35 44 104 120 154 170 51 49 103
106 116 125 13 19 71 89 129 155 58 66 130 145 160 177 30 31 91 98 135 148
44 51 118 133 165 183 47 50 124 130 171 177 49 47 99 108 114 137 16 30 53
74 87 104 32 28 67 68 78 88 10 21 42 66 72 100 29 35 71 72 93 83 22 12 78
61 124 110 47 50 97 109 112 133 15 23 30 52 34 64 3 11 50 64 103 117 53 53
122 110 152 127 30 18 99 76 153 131 54 54 126 130 159 170 34 39 87 99 118
133 32 33 75 73 97 87 22 15 50 44 62 66 12 22 35 47 50 55 16 8 102 30 192
49 90 20 198 40 239 47 41 6 99 18 129 27 30 10 78 31 105 49 28 18 66 40 84
48 30 14 39 14 80 1 26 -8 101 -22 166 -31 65 -9 127 -20 138 -26 10 -5 35 -7
55 -3 21 4 56 15 78 25 23 10 75 23 116 29 40 6 116 20 166 31 51 10 112 19
137 19 24 0 119 15 212 34 93 19 223 37 289 42 66 4 143 7 170 6 28 -2 79 3
115 9 51 10 72 19 98 45 20 20 32 42 32 58 0 15 -6 41 -14 59 -10 25 -23 36
-53 45 -22 7 -51 12 -65 12 -14 0 -71 -16 -127 -35 -56 -19 -118 -35 -139 -35
-20 0 -109 -7 -197 -15 -88 -9 -200 -26 -250 -38 -76 -19 -121 -22 -290 -23
-149 0 -217 -5 -265 -17 -36 -9 -114 -23 -175 -32 -65 -9 -144 -28 -193 -47
-77 -29 -85 -30 -125 -18 -23 8 -94 14 -157 15 -83 2 -127 7 -158 20 -27 11
-44 25 -46 39 -3 11 -7 48 -10 81 -3 33 -8 69 -11 80 -4 14 2 25 22 38 15 9
50 33 77 52 26 19 61 53 77 74 17 24 46 48 73 59 24 11 67 44 95 73 28 30 75
79 104 109 29 30 75 71 102 90 39 28 51 42 53 66 2 25 -3 37 -27 57 -17 14
-55 31 -85 38 -44 10 -61 9 -87 -1 -18 -8 -52 -31 -76 -52 -25 -21 -62 -47
-83 -58 -20 -10 -48 -33 -61 -49 -13 -17 -44 -58 -69 -92 -25 -34 -60 -76 -78
-94 -19 -17 -43 -48 -55 -67 -12 -20 -41 -61 -64 -91 -26 -33 -63 -66 -96 -85
-36 -20 -57 -39 -61 -55 -3 -14 -21 -38 -40 -53 -19 -16 -46 -37 -60 -47 -14
-10 -36 -37 -47 -60 -12 -23 -47 -67 -78 -98 -32 -31 -68 -62 -80 -68 -12 -7
-74 -16 -138 -22 -64 -6 -121 -13 -127 -16 -5 -4 -98 -7 -205 -8 -138 -1 -218
-6 -271 -18 -41 -9 -109 -21 -150 -28 -41 -7 -109 -24 -150 -40 -41 -15 -99
-32 -128 -38 -29 -6 -116 -11 -194 -11 -77 0 -157 -4 -177 -10 -20 -5 -80 -19
-133 -30 -67 -15 -104 -28 -122 -45 -14 -13 -28 -35 -32 -50 -4 -15 -2 -43 4
-64 6 -20 17 -45 25 -55 7 -10 32 -21 55 -26 27 -5 79 -1 146 10 83 13 116 24
158 50 29 19 64 44 78 56 14 13 38 28 54 34 16 6 50 10 75 9 25 -1 118 6 206
15 88 9 182 14 210 11 27 -4 114 1 193 9 79 9 162 20 185 25 23 5 82 12 130
16 76 6 91 5 108 -11 10 -9 19 -30 19 -46 0 -16 -9 -46 -20 -68 -11 -21 -59
-81 -106 -132 -59 -63 -109 -107 -158 -135 -41 -25 -80 -57 -93 -77 -12 -19
-33 -42 -45 -51 -13 -8 -45 -30 -73 -48 -27 -18 -63 -38 -80 -45 -16 -6 -51
-11 -76 -10 -29 1 -58 -6 -78 -18 -24 -14 -43 -41 -70 -99 -21 -44 -53 -114
-72 -155 -19 -41 -58 -102 -86 -135 -29 -33 -77 -86 -105 -118 -29 -32 -73
-70 -98 -84 -25 -15 -58 -38 -73 -52 -16 -14 -41 -48 -57 -76 -16 -28 -72 -90
-126 -140 -54 -49 -109 -103 -123 -119 -14 -16 -39 -41 -56 -55 -16 -14 -54
-51 -83 -81 -29 -30 -65 -68 -80 -84 -15 -15 -38 -49 -52 -74 -15 -28 -45 -61
-74 -82 -27 -19 -99 -79 -160 -133 -61 -55 -162 -145 -225 -200 -62 -56 -142
-123 -178 -149 -36 -26 -92 -71 -125 -99 -33 -29 -80 -83 -104 -120 -37 -59
-57 -77 -146 -136 -57 -38 -124 -81 -150 -96 -27 -15 -48 -32 -48 -37 0 -5
-54 -65 -121 -133 -86 -90 -137 -134 -181 -157 -34 -18 -77 -47 -97 -65 -20
-18 -52 -40 -71 -50 -19 -10 -57 -36 -85 -60 -27 -23 -84 -64 -125 -92 -42
-28 -82 -58 -90 -68 -8 -10 -49 -35 -92 -55 -43 -21 -90 -48 -104 -59 -15 -12
-33 -21 -41 -21 -7 0 -55 -16 -105 -36 -83 -32 -100 -36 -168 -32 -64 2 -84 8
-119 31 -24 16 -59 55 -82 90 -22 33 -42 72 -46 85 -4 16 7 48 32 99 20 41 59
99 86 129 27 30 62 83 78 119 16 35 48 90 70 121 23 32 41 63 41 69 0 7 7 19
16 26 9 8 48 57 87 109 39 52 88 115 110 140 21 25 47 61 57 80 10 19 27 41
39 47 11 7 38 38 59 70 22 32 52 83 67 113 15 30 55 89 89 131 34 42 81 109
106 148 25 40 69 99 98 132 28 32 52 65 52 73 0 7 33 55 73 105 51 63 95 136
145 235 39 79 91 190 115 247 24 57 49 126 56 152 11 46 10 50 -26 120 -27 50
-47 76 -69 87 -16 8 -47 28 -67 43 -20 16 -60 35 -89 43 -29 7 -67 14 -85 14
-22 0 -46 -12 -83 -42 -29 -24 -68 -53 -89 -65 -20 -13 -63 -32 -96 -43 -33
-10 -91 -30 -129 -43 -37 -13 -72 -31 -77 -39 -5 -9 -38 -26 -73 -38 -35 -11
-81 -36 -102 -54 -22 -18 -70 -50 -109 -70 -38 -20 -88 -49 -111 -64 -23 -15
-95 -67 -160 -116 -65 -49 -134 -101 -153 -115 -19 -14 -61 -45 -93 -67 -35
-25 -77 -44 -101 -48 -23 -4 -61 -18 -84 -32 -24 -13 -47 -33 -53 -44 -6 -11
-17 -20 -25 -20 -8 0 -15 9 -15 20 0 11 7 23 15 27 9 3 33 30 53 61 20 30 45
69 54 86 10 17 29 41 42 53 14 11 49 57 80 100 30 44 65 100 77 126 14 29 33
50 51 58 20 8 31 22 39 52 6 22 8 51 4 64 -3 13 -12 26 -20 29 -8 3 -25 -3
-38 -13 -14 -10 -33 -30 -44 -46 -10 -15 -40 -42 -68 -61 -27 -18 -88 -70
-133 -115 -46 -44 -88 -81 -92 -81 -5 0 -18 -16 -31 -36 -12 -20 -33 -48 -46
-62 -14 -15 -55 -58 -91 -97 -37 -38 -77 -77 -88 -85 -12 -8 -49 -50 -83 -92
-35 -43 -68 -81 -74 -85 -7 -5 -25 -25 -40 -45 -15 -21 -52 -53 -81 -73 -30
-20 -108 -93 -174 -163 -66 -70 -152 -164 -191 -209 -40 -46 -93 -100 -118
-120 -25 -21 -53 -45 -62 -54 -9 -9 -37 -39 -63 -67 -27 -28 -48 -56 -48 -62
0 -6 -96 -109 -212 -229 -117 -120 -236 -237 -264 -259 -29 -23 -71 -67 -95
-98 -24 -32 -85 -99 -135 -148 -50 -50 -126 -120 -169 -156 -43 -36 -94 -81
-114 -101 -20 -20 -45 -40 -57 -43 -12 -4 -35 -24 -53 -46 -18 -22 -49 -49
-69 -59 -20 -11 -75 -51 -122 -90 -46 -39 -99 -90 -117 -112 -24 -31 -33 -52
-33 -80 0 -21 4 -49 10 -63 5 -14 26 -44 47 -67 21 -23 57 -51 81 -61 26 -12
51 -16 64 -12 12 3 72 39 134 79 66 43 115 82 119 95 4 11 39 56 78 99 40 43
80 91 90 105 10 14 35 35 55 46 20 10 60 45 87 76 28 31 79 87 114 123 35 36
80 89 101 117 21 28 66 73 101 100 34 27 110 94 168 148 58 55 141 124 183
155 43 31 96 69 119 84 22 15 45 41 51 57 5 16 25 39 44 51 19 11 41 30 49 42
8 12 112 121 230 243 181 185 227 227 287 260 39 21 97 62 128 90 31 27 72 60
92 72 19 12 55 47 79 77 24 31 64 71 88 90 24 19 49 35 54 35 6 0 24 11 41 24
17 12 46 31 64 40 17 9 55 45 82 80 30 39 61 66 76 70 15 4 60 36 101 71 40
36 90 73 111 84 20 10 69 42 107 69 39 28 84 62 100 75 17 13 45 32 64 42 19
9 56 34 83 55 26 21 61 41 76 45 16 3 47 25 69 48 22 23 56 49 74 58 19 9 53
22 76 28 23 6 60 28 82 49 22 20 58 52 80 70 22 18 59 39 82 47 23 8 76 15
118 15 53 0 83 -5 99 -16 12 -8 31 -32 42 -53 19 -38 19 -39 -1 -91 -11 -29
-29 -71 -41 -94 -11 -22 -40 -63 -64 -89 -24 -27 -48 -66 -54 -88 -6 -21 -20
-43 -30 -49 -11 -6 -32 -34 -46 -63 -15 -29 -60 -107 -100 -174 -41 -68 -74
-126 -74 -129 0 -3 -20 -33 -45 -66 -25 -33 -45 -63 -45 -68 0 -4 -22 -36 -49
-71 -27 -35 -63 -80 -80 -100 -16 -19 -47 -60 -67 -90 -20 -30 -71 -90 -113
-134 -42 -44 -92 -108 -111 -142 -19 -34 -60 -101 -90 -149 -30 -49 -74 -109
-98 -134 -24 -25 -64 -74 -90 -110 -25 -36 -72 -94 -105 -130 -33 -36 -66 -74
-73 -86 -8 -12 -21 -45 -29 -75 -8 -30 -26 -99 -40 -154 -18 -69 -37 -116 -62
-153 l-36 -52 5 -98 c4 -75 10 -107 28 -142 12 -25 48 -72 78 -105 30 -32 72
-72 93 -87 36 -26 44 -28 191 -33 137 -6 157 -9 194 -30 22 -13 61 -29 87 -36
41 -10 51 -9 92 11 28 14 52 34 62 53 9 18 31 54 50 82 19 27 50 65 69 83 19
17 42 32 52 32 10 0 41 14 68 32 27 17 83 54 124 81 41 27 87 61 102 74 14 14
55 43 90 64 34 21 68 39 74 39 5 0 33 19 61 42 27 24 70 58 94 75 24 18 82 67
129 108 47 42 108 92 137 111 28 20 60 34 70 32 13 -3 18 -12 16 -33 0 -17 -8
-64 -17 -105 -9 -41 -16 -99 -16 -128 0 -29 -5 -73 -11 -97 -9 -36 -8 -53 6
-95 15 -45 26 -58 91 -106 41 -30 74 -59 74 -63 0 -5 13 -22 28 -39 22 -24 40
-32 85 -37 31 -4 72 -4 90 -1 18 3 56 21 83 38 27 18 74 40 104 50 30 10 74
18 97 18 32 0 50 7 75 29 18 16 53 40 78 53 32 18 55 42 79 82 21 35 60 77
100 109 36 29 101 73 145 99 44 26 92 50 108 53 15 4 38 20 50 37 13 16 42 48
64 71 23 23 65 62 95 87 29 25 74 55 98 68 24 12 53 22 63 22 10 0 47 13 81
28 34 16 74 43 87 60 14 17 32 41 41 54 9 13 34 29 55 36 21 8 82 42 135 77
52 35 111 83 131 107 19 24 46 49 59 55 13 6 49 19 80 27 31 9 85 35 120 59
35 24 93 64 129 89 36 26 85 63 110 83 25 21 92 68 150 106 58 38 125 85 150
104 25 19 57 44 72 55 15 12 56 33 90 47 35 14 75 34 90 44 14 11 59 33 100
50 40 17 89 37 109 45 20 7 83 39 140 70 l104 58 113 4 c90 3 117 1 136 -12
22 -14 23 -18 13 -58 -9 -36 -38 -71 -190 -224 -99 -101 -192 -205 -208 -233
-17 -29 -62 -79 -111 -121 -46 -39 -122 -108 -171 -153 -48 -45 -132 -126
-187 -179 -56 -56 -111 -120 -127 -150 -21 -38 -41 -60 -78 -81 -27 -16 -73
-50 -102 -76 -28 -25 -76 -67 -106 -94 -40 -34 -64 -66 -86 -114 -18 -37 -34
-92 -37 -122 -4 -39 -1 -75 11 -116 10 -34 29 -71 46 -87 22 -23 36 -28 76
-28 35 0 77 13 162 50 62 27 129 61 148 76 20 15 44 41 55 59 10 18 29 36 41
39 13 3 54 40 92 82 38 42 101 100 139 129 39 29 77 64 85 78 8 15 30 37 50
51 20 13 65 53 101 88 36 35 81 86 99 113 19 28 55 71 80 96 26 25 61 53 78
63 18 9 37 24 42 34 6 10 38 33 72 52 34 18 87 54 118 81 31 27 65 57 77 67
12 10 23 23 25 28 2 5 41 37 86 70 55 42 98 66 132 74 40 9 59 21 91 58 22 26
64 70 92 99 38 38 69 58 122 78 39 15 132 60 208 101 75 41 140 74 144 74 4 0
37 18 73 39 36 21 77 42 91 45 14 4 50 18 80 31 30 13 85 33 121 44 36 12 86
21 111 21 37 0 55 -7 90 -33 27 -21 44 -42 46 -58 2 -18 -11 -44 -45 -87 -26
-34 -68 -94 -93 -134 -24 -40 -61 -91 -80 -113 -20 -22 -49 -59 -65 -83 -15
-24 -66 -87 -111 -140 -46 -53 -97 -122 -113 -152 -17 -30 -59 -84 -93 -120
-35 -36 -97 -97 -138 -136 -41 -39 -128 -124 -192 -190 -64 -66 -136 -149
-159 -184 -23 -36 -60 -85 -82 -110 -22 -25 -72 -79 -112 -120 -68 -71 -73
-79 -84 -141 -7 -36 -13 -107 -14 -157 -2 -77 1 -95 19 -119 11 -15 36 -36 55
-45 19 -10 56 -18 83 -18 26 0 89 7 140 16 50 9 111 27 136 40 25 13 72 44
105 69 33 24 74 52 90 61 17 9 42 27 57 39 14 12 57 30 95 39 37 10 92 31 121
48 29 16 74 47 100 68 27 21 63 45 82 55 18 9 54 36 79 60 25 23 67 54 94 69
26 16 50 34 55 41 4 6 18 18 32 25 14 7 77 52 140 99 63 47 129 93 145 101 17
9 56 33 88 53 31 21 73 52 94 70 20 18 58 41 85 52 27 11 80 49 120 85 39 36
94 88 122 116 28 28 108 100 178 160 69 60 146 124 170 142 23 18 86 65 138
104 52 40 118 93 146 119 28 26 73 58 100 72 30 15 56 38 68 59 11 18 76 90
145 159 69 69 144 146 166 170 23 24 66 65 96 91 31 26 74 56 95 68 21 12 50
32 63 43 13 12 37 46 53 75 17 29 41 60 53 68 16 10 29 12 46 5 13 -5 43 -29
67 -54 24 -24 65 -54 90 -65 26 -11 85 -38 132 -58 60 -27 107 -40 160 -45 41
-4 125 -12 185 -19 61 -6 139 -8 175 -5 36 4 102 18 148 31 45 13 104 24 131
24 29 0 53 -6 60 -14 8 -10 6 -19 -8 -38 -11 -14 -58 -50 -104 -81 -46 -32
-89 -57 -96 -57 -6 0 -46 -31 -88 -68 -43 -37 -111 -90 -151 -117 -40 -28 -93
-64 -119 -82 -26 -18 -51 -39 -55 -48 -5 -8 -64 -51 -131 -96 -67 -44 -142
-100 -167 -123 -25 -23 -61 -54 -81 -69 -22 -16 -53 -56 -77 -99 -22 -40 -55
-87 -74 -104 -18 -17 -57 -48 -86 -68 -29 -21 -63 -52 -76 -70 -13 -17 -35
-61 -49 -98 -14 -38 -42 -92 -63 -120 -21 -29 -61 -77 -90 -105 -29 -29 -67
-74 -85 -100 -18 -27 -42 -59 -53 -74 -12 -14 -43 -68 -69 -120 l-48 -94 -4
-175 c-2 -96 1 -202 7 -235 5 -33 17 -82 25 -110 9 -28 36 -73 60 -102 30 -36
56 -56 81 -63 20 -5 53 -10 72 -10 19 0 55 -12 80 -26 25 -15 62 -32 84 -40
21 -8 68 -19 105 -24 45 -7 84 -22 123 -45 37 -23 68 -35 92 -35 25 0 44 7 60
23 13 13 44 66 70 118 25 52 52 119 60 149 7 30 17 71 20 91 4 20 19 49 34 64
15 16 63 52 107 81 44 30 94 66 111 81 17 16 54 58 83 95 28 36 74 83 102 102
31 23 67 63 96 109 26 39 71 103 102 141 31 39 103 117 161 175 86 87 109 116
124 161 12 33 39 76 70 111 28 31 66 75 84 97 17 23 46 76 63 119 17 43 53
128 81 188 27 61 59 128 70 150 11 22 38 76 60 120 22 44 81 154 131 243 62
114 97 167 114 175 20 9 31 8 57 -7 17 -11 67 -37 111 -59 44 -21 123 -50 175
-64 52 -14 122 -29 155 -35 33 -5 105 -6 160 -3 55 4 130 11 167 16 37 5 113
24 170 42 57 19 128 42 159 51 31 9 61 16 68 16 6 0 51 15 99 34 48 19 117 50
153 69 36 19 77 38 90 42 13 3 58 20 100 37 64 26 84 29 124 24 25 -4 55 -16
64 -25 11 -11 23 -47 30 -83 6 -36 11 -79 11 -97 0 -17 -9 -49 -20 -70 -10
-21 -26 -41 -34 -44 -8 -3 -34 -34 -57 -69 -24 -35 -62 -91 -85 -126 -23 -34
-60 -75 -81 -91 -22 -16 -61 -54 -87 -84 -26 -30 -58 -60 -72 -67 -13 -7 -36
-31 -50 -54 -15 -23 -75 -91 -132 -153 -58 -62 -124 -124 -146 -139 -23 -15
-74 -62 -114 -105 -40 -43 -89 -88 -110 -100 -20 -12 -69 -54 -107 -93 -39
-39 -127 -122 -195 -184 -69 -63 -156 -144 -195 -181 -43 -42 -104 -87 -159
-117 -68 -38 -100 -63 -137 -109 -27 -33 -75 -87 -106 -120 -31 -33 -83 -81
-116 -107 -33 -27 -64 -48 -68 -48 -5 0 -60 -52 -122 -115 -99 -101 -116 -124
-149 -199 -21 -46 -38 -96 -38 -109 0 -14 8 -48 17 -77 15 -45 23 -55 57 -71
23 -10 59 -19 81 -19 22 0 69 7 105 14 39 8 107 36 165 67 55 29 123 72 150
96 28 25 59 53 70 62 11 10 39 30 61 44 23 14 67 55 98 90 31 35 84 86 117
113 34 27 85 72 114 99 29 28 92 86 140 130 50 46 97 99 110 125 13 25 33 51
44 58 11 6 32 29 45 50 14 20 82 96 153 168 70 71 149 142 175 157 25 15 78
62 118 104 39 43 80 95 91 115 10 20 28 43 40 51 11 8 50 47 85 87 36 40 98
98 137 129 40 32 109 96 153 142 45 46 105 104 134 129 29 25 96 88 148 140
52 52 105 112 119 132 14 21 34 40 44 43 10 4 52 45 93 93 41 48 98 107 126
132 28 25 84 75 124 113 50 46 80 67 98 67 14 0 47 -12 74 -27 27 -15 70 -43
95 -64 36 -27 60 -37 100 -42 30 -4 81 -20 114 -36 l60 -30 225 3 c124 2 261
9 305 15 44 7 123 21 175 32 52 11 134 23 181 28 70 7 104 17 185 54 54 25
119 50 144 57 25 6 72 23 105 37 33 14 89 39 124 54 35 16 71 29 82 29 17 0
16 -4 -7 -57 -18 -40 -47 -78 -94 -123 -37 -36 -76 -79 -86 -96 -11 -17 -48
-57 -83 -90 -36 -32 -94 -89 -130 -125 -36 -36 -99 -101 -139 -143 -39 -43
-79 -90 -86 -105 -8 -15 -61 -68 -118 -118 -57 -49 -123 -108 -148 -130 -25
-22 -60 -48 -78 -57 -17 -9 -44 -35 -60 -58 -15 -22 -42 -66 -60 -97 -18 -31
-45 -69 -60 -84 -15 -16 -43 -38 -62 -49 -19 -12 -52 -37 -73 -57 -21 -20 -57
-62 -79 -93 -22 -32 -49 -60 -59 -63 -10 -4 -34 -25 -53 -48 -19 -23 -53 -55
-75 -72 -23 -16 -53 -50 -67 -74 -22 -36 -25 -51 -20 -87 3 -24 17 -66 30 -93
14 -26 39 -60 56 -75 26 -21 42 -26 86 -26 30 0 96 7 147 15 50 8 109 14 130
13 28 -1 49 7 85 32 26 18 61 45 77 60 17 15 40 31 52 34 12 4 36 23 53 43 17
19 50 49 73 67 23 18 78 59 122 93 44 33 100 69 125 80 25 11 64 35 87 52 25
18 53 52 68 81 14 27 29 50 34 50 5 0 65 55 135 123 69 67 149 143 178 169 29
26 72 65 96 87 23 22 67 51 97 65 29 15 80 50 112 79 32 30 97 84 146 120 48
37 98 69 111 73 14 3 61 44 106 90 44 46 95 91 113 100 18 9 67 36 109 61 42
25 79 51 82 59 3 7 27 24 54 38 26 13 54 32 62 41 7 8 43 32 79 52 36 20 83
50 103 67 20 17 65 52 100 78 35 26 85 56 112 67 26 12 64 35 84 51 20 17 41
30 47 30 6 0 36 31 68 69 49 60 68 74 151 115 51 25 108 61 126 80 18 19 44
37 56 40 13 4 48 26 78 50 30 25 74 54 97 66 24 13 76 53 114 90 42 40 96 80
135 100 36 17 85 52 110 76 25 23 62 50 83 59 21 8 66 36 100 61 34 26 94 62
132 81 39 19 95 50 126 69 31 18 60 42 65 52 5 10 55 59 110 110 56 50 114 94
130 98 16 3 40 17 54 29 14 13 44 42 67 64 23 23 47 41 53 41 5 0 27 16 47 35
20 19 44 37 53 40 9 3 21 18 27 35 6 16 18 30 27 30 9 0 16 -4 16 -9 0 -4 -9
-19 -19 -32 -10 -14 -26 -41 -34 -60 -10 -25 -36 -52 -83 -85 -38 -27 -80 -62
-93 -77 -13 -16 -40 -55 -60 -87 -20 -33 -52 -69 -71 -82 -21 -14 -65 -68
-110 -136 -41 -62 -91 -128 -110 -147 -19 -19 -51 -53 -70 -75 -19 -23 -55
-52 -80 -65 -25 -13 -72 -45 -104 -72 -33 -26 -124 -111 -203 -188 -80 -77
-173 -175 -209 -217 -35 -42 -71 -89 -81 -105 -10 -16 -34 -49 -53 -75 -19
-25 -50 -56 -68 -68 -18 -13 -47 -42 -64 -64 -17 -23 -97 -107 -179 -187 -81
-80 -171 -174 -200 -210 -28 -35 -82 -95 -119 -134 -37 -38 -118 -122 -180
-185 -62 -63 -132 -145 -155 -181 -23 -36 -60 -81 -82 -100 -22 -19 -58 -59
-81 -90 -23 -31 -80 -90 -126 -132 -46 -42 -132 -124 -191 -184 -59 -59 -114
-121 -121 -138 -7 -16 -30 -46 -51 -66 -21 -21 -61 -48 -89 -63 -29 -14 -61
-38 -73 -53 -12 -15 -42 -59 -67 -98 -25 -38 -76 -99 -113 -136 -36 -36 -93
-94 -127 -130 -34 -35 -109 -101 -166 -147 -58 -45 -117 -99 -130 -120 -14
-20 -33 -50 -44 -66 -10 -16 -29 -47 -41 -70 -12 -22 -22 -54 -22 -70 -1 -16
8 -48 19 -70 12 -26 38 -54 69 -74 39 -27 65 -36 127 -44 44 -5 135 -8 203 -5
118 4 126 5 140 28 9 13 39 49 66 79 28 31 102 132 165 224 63 93 130 186 149
207 18 22 50 49 71 60 25 14 48 40 66 72 15 27 48 73 73 102 25 29 62 81 81
116 19 35 60 89 90 119 30 30 93 92 140 137 56 53 90 94 99 120 8 21 22 50 32
64 10 15 27 46 38 70 13 32 38 59 90 99 39 30 85 75 103 100 17 25 51 66 75
92 24 26 43 52 43 57 0 6 22 35 49 65 27 29 68 82 91 117 24 35 100 123 169
196 69 72 149 159 176 193 28 34 70 83 95 110 25 26 59 68 75 91 17 24 82 94
145 156 63 62 138 126 165 142 28 16 61 32 74 36 12 4 39 18 58 31 20 13 47
24 61 24 14 0 48 -7 76 -15 28 -8 67 -17 87 -20 21 -3 49 -15 64 -27 15 -12
41 -51 57 -87 22 -50 28 -76 25 -106 -3 -22 -10 -62 -16 -90 -5 -27 -28 -95
-51 -149 -22 -55 -40 -110 -40 -123 0 -15 -10 -30 -28 -41 -16 -9 -52 -44 -81
-77 -29 -33 -71 -86 -93 -118 -22 -32 -57 -95 -80 -140 -22 -45 -62 -111 -89
-147 -27 -36 -64 -85 -82 -110 -17 -24 -48 -62 -68 -85 -20 -22 -50 -67 -67
-100 -16 -33 -42 -71 -57 -85 -14 -13 -40 -49 -58 -80 -17 -30 -43 -72 -58
-93 -15 -21 -31 -53 -34 -70 -4 -18 -23 -59 -41 -93 -19 -34 -43 -85 -53 -115
-11 -30 -40 -94 -65 -144 -32 -63 -56 -133 -81 -235 -20 -80 -40 -164 -45
-188 -6 -23 -10 -93 -10 -154 0 -80 6 -135 20 -192 12 -45 25 -97 30 -116 6
-19 34 -64 63 -100 29 -37 70 -74 92 -85 36 -18 59 -20 240 -19 151 0 219 5
280 18 44 10 129 22 188 27 67 5 127 17 160 30 29 11 88 38 132 59 44 22 114
51 155 64 41 13 104 30 140 37 36 6 92 18 125 26 33 7 77 25 98 39 29 19 60
28 130 35 70 8 100 16 127 35 19 13 46 33 60 44 15 12 64 28 118 40 61 12 120
33 173 60 44 23 112 48 151 56 39 8 85 25 102 37 21 15 48 22 86 24 35 1 85
14 130 32 41 16 79 37 86 45 6 9 29 22 50 30 22 7 61 28 89 45 34 22 61 31 90
31 27 0 65 13 115 38 41 20 88 46 103 56 15 10 87 38 160 62 73 24 140 44 150
44 10 0 70 22 135 49 64 27 149 59 187 71 39 13 75 26 80 30 6 5 35 15 65 23
30 9 96 19 145 23 64 4 100 12 123 27 19 11 47 38 63 60 25 34 29 49 29 103 0
35 -5 74 -11 88 -7 13 -24 30 -40 36 -19 8 -69 10 -161 6 -73 -4 -164 -11
-203 -17 -38 -6 -101 -20 -140 -30 -38 -10 -99 -31 -135 -46 -36 -15 -83 -39
-105 -54 -22 -14 -59 -30 -82 -33 -23 -4 -63 -21 -90 -38 -26 -17 -88 -49
-137 -70 -49 -21 -94 -38 -99 -38 -5 0 -23 -6 -40 -14 -18 -8 -52 -21 -77 -31
-25 -9 -71 -25 -102 -35 -31 -9 -76 -30 -100 -45 -24 -14 -78 -48 -121 -75
-60 -37 -90 -49 -135 -54 -45 -5 -75 -17 -130 -51 -39 -24 -88 -52 -109 -61
-21 -9 -67 -24 -103 -35 -36 -10 -110 -31 -165 -47 -55 -16 -115 -36 -132 -46
-18 -9 -58 -22 -90 -30 -32 -8 -71 -19 -86 -25 -16 -6 -49 -11 -73 -11 -25 0
-80 -12 -122 -26 -42 -14 -108 -34 -147 -45 -38 -10 -78 -19 -88 -19 -10 0
-53 -13 -95 -29 -42 -16 -113 -40 -157 -54 -44 -14 -129 -35 -190 -46 -60 -12
-152 -28 -203 -37 -54 -9 -109 -13 -130 -9 -20 4 -77 29 -127 55 -62 34 -103
64 -133 99 -23 27 -47 62 -52 76 -6 15 -7 45 -4 68 4 23 15 59 26 80 11 21 26
82 34 134 12 82 21 108 60 176 25 43 61 123 79 177 19 54 50 126 70 161 20 35
52 89 71 119 19 30 54 75 78 100 24 25 51 61 60 80 9 19 54 82 100 138 45 57
100 137 121 179 22 41 42 76 46 79 4 2 19 36 34 75 19 50 41 83 73 115 l45 45
-6 59 -7 60 73 72 c44 45 79 90 91 118 10 25 29 68 42 95 14 28 34 65 46 84
16 25 22 51 22 90 0 31 -8 117 -17 191 -15 117 -22 141 -49 183 -17 27 -41 55
-53 63 -11 7 -49 18 -83 22 -42 6 -70 16 -86 31 -14 13 -30 36 -36 51 -8 20
-9 43 -1 86 6 33 19 70 29 84 10 14 36 58 56 97 31 60 48 79 94 110 31 20 80
60 109 88 28 27 75 70 104 95 28 24 65 66 81 92 20 32 45 56 71 70 23 11 50
32 61 45 10 14 36 33 57 42 20 9 62 44 93 79 31 34 59 74 62 87 4 15 31 43 70
71 36 25 71 56 80 69 9 13 32 34 52 46 20 11 52 33 70 48 18 14 64 54 101 89
45 41 88 70 127 86 32 13 84 35 115 49 30 14 63 37 72 51 9 14 53 55 96 92 44
36 97 91 119 122 22 32 48 64 58 73 11 9 37 22 59 29 22 7 60 27 83 44 24 17
60 45 80 62 21 17 55 43 78 57 22 14 69 55 105 92 35 37 84 79 109 93 25 15
94 71 155 125 60 55 132 110 160 124 27 14 61 34 75 45 14 10 76 67 138 126
62 59 157 150 210 203 53 53 147 149 207 214 61 65 175 183 255 262 80 79 168
166 195 193 28 28 73 64 99 81 27 16 55 28 62 25 7 -3 20 2 28 10 9 8 18 31
21 52 3 20 12 48 20 62 8 14 24 45 36 70 17 35 22 61 20 116 -1 48 -10 97 -31
158 -22 65 -39 98 -65 123 -19 19 -54 43 -78 53 -23 11 -60 19 -82 18 -22 0
-51 -3 -65 -5z m-225 -443 c8 -7 17 -31 20 -54 6 -37 2 -51 -31 -111 -21 -38
-59 -89 -84 -113 -25 -25 -62 -56 -82 -69 -21 -14 -51 -45 -67 -69 -16 -24
-53 -64 -83 -88 -31 -26 -61 -62 -72 -86 -10 -22 -38 -57 -63 -78 -24 -20 -53
-54 -64 -74 -10 -21 -47 -65 -82 -98 -34 -34 -74 -68 -89 -76 -14 -7 -39 -29
-55 -47 -15 -19 -53 -52 -83 -75 -30 -22 -61 -50 -68 -62 -7 -12 -32 -29 -55
-39 -23 -10 -82 -48 -132 -83 -49 -36 -131 -86 -181 -111 -50 -26 -96 -47
-103 -47 -7 0 -36 -21 -64 -46 -28 -25 -65 -53 -81 -61 -17 -9 -47 -29 -66
-44 -19 -15 -73 -51 -120 -79 -54 -31 -97 -50 -116 -50 -23 0 -33 5 -37 19 -3
11 6 43 19 72 14 30 50 77 87 113 34 34 70 76 79 94 9 18 32 41 51 52 18 11
42 37 54 57 11 21 23 49 26 63 4 15 27 41 53 60 26 19 61 45 77 57 16 12 76
63 134 113 57 51 110 104 117 119 8 14 38 47 68 72 29 25 65 50 78 54 14 4 46
29 71 54 26 25 79 73 119 105 40 33 90 83 111 112 22 28 54 58 72 65 18 7 71
52 119 100 48 48 108 100 135 115 26 15 64 40 83 55 19 14 68 44 109 65 41 22
83 45 95 52 12 7 36 11 54 8 19 -3 40 -10 47 -16z m-3389 -2565 c4 -9 -6 -25
-25 -41 -18 -15 -46 -36 -64 -49 -18 -12 -59 -34 -91 -48 -31 -15 -69 -36 -83
-47 -14 -11 -39 -38 -55 -59 -19 -26 -45 -46 -74 -57 -25 -9 -53 -27 -62 -39
-9 -12 -30 -30 -47 -40 -16 -11 -57 -39 -90 -64 -33 -25 -78 -62 -100 -82 -22
-21 -61 -47 -86 -57 -25 -11 -68 -40 -95 -64 -27 -23 -69 -51 -94 -61 -25 -10
-63 -27 -85 -37 -22 -10 -54 -21 -72 -25 -18 -3 -50 -24 -71 -45 -22 -21 -46
-42 -53 -46 -8 -5 -31 -31 -52 -57 -27 -33 -60 -58 -110 -84 -40 -19 -96 -56
-125 -81 -30 -25 -84 -59 -120 -77 -37 -18 -116 -62 -176 -99 -60 -36 -116
-66 -123 -66 -8 0 -38 -22 -67 -50 -29 -27 -75 -59 -102 -71 -27 -12 -63 -34
-81 -49 -17 -16 -46 -31 -63 -35 -18 -4 -58 -32 -93 -65 -34 -31 -84 -68 -112
-82 -27 -13 -79 -43 -115 -65 -36 -22 -82 -57 -104 -77 -21 -20 -55 -46 -77
-56 -21 -11 -49 -20 -62 -20 -16 0 -26 7 -30 19 -3 11 2 32 10 48 8 15 35 50
61 77 26 26 66 56 88 66 23 10 57 35 75 56 19 21 87 92 152 158 65 67 136 139
157 161 21 22 73 83 116 135 44 52 91 113 107 135 15 22 63 76 106 120 44 44
89 89 101 100 11 11 42 45 67 75 26 30 79 83 117 118 39 35 107 97 151 137 44
41 97 86 117 102 20 15 64 51 97 80 34 29 94 68 134 86 53 26 84 49 116 87 24
29 59 59 77 66 27 11 52 12 134 3 100 -11 101 -11 156 16 50 25 62 27 127 20
42 -3 91 -2 117 5 25 6 68 17 95 25 33 9 105 14 213 14 135 1 164 -2 168 -14z
m-8119 -1688 c2 -55 -2 -70 -32 -122 -19 -33 -52 -96 -73 -140 -22 -44 -61
-109 -88 -144 -27 -34 -64 -82 -82 -105 -18 -22 -42 -54 -53 -71 -10 -16 -19
-43 -19 -60 0 -16 -15 -61 -34 -100 -18 -38 -46 -95 -60 -126 -15 -31 -46 -79
-69 -107 -23 -27 -63 -77 -89 -110 -26 -33 -53 -75 -61 -93 -8 -19 -31 -50
-52 -69 -21 -19 -68 -66 -104 -104 -36 -37 -82 -98 -101 -134 -33 -63 -40 -69
-119 -113 -54 -29 -105 -68 -142 -106 -35 -36 -62 -73 -65 -91 -4 -19 -36 -60
-88 -114 -65 -67 -98 -93 -166 -127 -67 -34 -99 -44 -152 -48 -40 -4 -86 -1
-112 7 -24 7 -57 25 -73 40 -17 17 -34 49 -41 77 -11 40 -10 61 3 121 8 40 15
92 15 115 0 23 5 58 10 78 6 21 40 76 76 125 36 48 77 108 92 133 14 25 46 71
69 101 24 31 56 64 73 73 16 10 30 22 30 27 0 4 39 51 88 102 48 52 114 128
147 168 33 41 79 100 102 131 24 31 55 65 70 74 16 10 70 61 122 113 52 52
131 118 175 148 45 30 115 79 156 108 41 30 99 69 127 86 29 17 72 47 95 66
24 19 60 51 80 70 22 19 48 34 63 34 13 0 41 15 61 33 21 17 71 51 113 74 42
23 83 42 91 42 12 1 15 -13 17 -62z"/>
<path d="M38235 6563 c-22 -2 -83 -10 -135 -18 -52 -8 -124 -17 -160 -21 -36
-3 -108 -17 -160 -30 -52 -13 -138 -28 -190 -35 -64 -8 -178 -9 -353 -5 -250
7 -259 6 -305 -15 -29 -13 -80 -24 -137 -29 -49 -5 -114 -13 -143 -20 -29 -6
-75 -28 -104 -47 -28 -20 -79 -50 -112 -67 -52 -27 -62 -37 -70 -67 -6 -26 -5
-44 5 -65 8 -16 31 -37 53 -47 21 -10 57 -19 79 -19 23 -1 94 3 157 10 63 6
149 20 190 31 41 12 99 21 130 21 30 0 113 9 184 20 71 11 168 20 215 20 47 0
136 7 196 15 61 8 133 19 160 24 28 5 91 12 140 16 50 3 165 15 258 26 92 11
222 20 290 22 67 1 150 -2 184 -7 57 -8 65 -7 105 17 24 14 53 36 66 50 12 13
25 41 29 61 5 33 2 40 -36 76 -23 22 -56 47 -73 56 -22 11 -67 17 -152 20 -67
2 -155 5 -196 7 -41 1 -93 1 -115 0z"/>
<path d="M3240 5733 c-41 -8 -109 -26 -150 -40 -41 -14 -100 -40 -130 -58 -30
-18 -82 -40 -114 -50 -39 -11 -69 -27 -88 -47 -23 -24 -28 -39 -28 -78 0 -32
5 -52 18 -63 10 -9 48 -23 86 -31 37 -7 69 -16 71 -18 2 -2 -3 -17 -11 -33
-11 -21 -14 -47 -11 -87 3 -32 13 -74 24 -95 17 -36 21 -38 70 -41 29 -2 61 2
72 8 11 6 34 30 51 55 17 25 38 64 46 87 8 24 12 53 9 66 -3 12 -12 22 -20 22
-8 0 -32 9 -53 20 -35 19 -44 19 -86 8 -32 -8 -49 -9 -56 -2 -7 7 -8 19 -1 37
6 14 29 40 52 57 26 18 54 30 73 30 18 0 50 -13 75 -30 24 -17 47 -30 51 -30
4 0 12 -18 19 -39 10 -34 17 -41 58 -55 26 -9 59 -16 74 -16 16 0 54 9 84 21
31 12 72 35 91 52 21 17 39 26 44 21 4 -5 27 -45 50 -89 l42 -80 -6 -85 c-3
-47 -12 -103 -20 -124 -8 -25 -12 -62 -9 -101 4 -45 1 -70 -11 -93 -9 -18 -16
-55 -16 -89 0 -32 -6 -83 -14 -115 -8 -33 -28 -76 -50 -106 -20 -28 -50 -81
-66 -119 -16 -37 -34 -86 -40 -109 -5 -22 -24 -61 -40 -85 -17 -24 -60 -88
-95 -141 -36 -53 -65 -103 -65 -111 0 -8 -14 -32 -31 -53 -17 -22 -40 -57 -51
-79 -11 -22 -41 -63 -67 -92 -25 -28 -57 -66 -71 -84 -13 -18 -42 -62 -64 -98
-21 -36 -65 -95 -96 -131 -31 -36 -69 -83 -83 -105 -15 -22 -34 -51 -44 -65
-9 -14 -39 -48 -65 -77 -26 -28 -48 -59 -48 -68 0 -9 -9 -34 -20 -55 -11 -22
-30 -46 -41 -53 -11 -6 -51 -50 -88 -97 -38 -47 -126 -143 -195 -215 -70 -71
-159 -172 -198 -224 -40 -52 -116 -138 -169 -192 -54 -55 -104 -99 -111 -99
-7 0 -56 -43 -108 -95 -52 -51 -119 -121 -149 -154 -29 -33 -81 -77 -116 -98
-34 -20 -74 -55 -90 -76 -16 -23 -46 -47 -70 -58 -23 -10 -48 -26 -57 -36 -9
-10 -25 -37 -37 -60 -11 -23 -47 -63 -78 -89 -32 -25 -69 -64 -83 -85 -14 -21
-42 -55 -61 -76 -20 -21 -74 -72 -120 -114 -46 -42 -121 -105 -165 -142 -45
-36 -108 -82 -140 -103 -33 -21 -88 -63 -124 -95 -36 -32 -97 -79 -135 -104
-44 -28 -96 -76 -140 -128 -44 -51 -76 -100 -86 -131 -13 -37 -14 -57 -7 -85
6 -20 21 -55 35 -79 14 -23 45 -56 69 -72 24 -17 64 -39 89 -50 25 -11 67 -39
93 -64 26 -24 92 -74 147 -110 54 -36 109 -66 121 -66 12 0 44 9 71 21 31 12
56 31 67 49 9 16 30 37 46 47 16 9 44 37 61 61 18 25 55 84 83 131 28 48 82
139 120 204 51 84 78 119 98 128 16 6 38 24 51 40 12 15 33 44 47 64 14 20 46
63 73 97 26 33 47 64 47 68 0 4 23 33 51 65 28 32 74 74 102 94 28 20 78 63
112 96 33 33 95 92 138 130 42 39 82 72 87 73 6 2 24 24 41 48 16 24 45 50 63
58 18 7 72 44 119 81 48 36 91 75 97 85 5 9 26 25 47 33 21 9 89 57 151 107
63 50 128 98 144 106 17 9 75 60 130 114 75 74 116 106 171 133 40 20 81 37
91 39 11 2 53 46 92 98 49 64 88 103 118 121 25 14 92 70 148 123 57 54 119
105 138 113 19 9 63 36 97 60 42 32 70 61 88 97 16 28 46 68 69 89 23 21 59
46 81 56 23 10 69 43 104 74 35 30 92 69 127 86 40 19 69 42 80 61 10 16 42
46 70 64 28 19 99 81 157 138 58 57 134 121 169 143 34 22 86 60 113 86 28 25
71 58 98 73 26 15 47 31 47 36 0 5 24 22 53 36 28 15 65 38 81 51 17 14 66 43
110 64 45 22 103 54 129 73 27 19 58 44 69 56 11 12 40 30 64 41 24 10 72 37
107 60 34 23 77 55 95 71 18 15 41 28 52 28 11 0 45 23 76 51 31 28 73 58 92
66 20 8 63 33 96 55 32 23 79 47 104 54 25 8 60 14 79 14 24 0 41 -8 58 -26
14 -15 25 -33 25 -41 0 -8 -13 -33 -29 -56 -16 -23 -35 -67 -41 -99 -7 -37
-23 -71 -45 -100 -19 -24 -48 -80 -64 -124 -16 -43 -40 -106 -55 -138 -15 -33
-38 -75 -52 -93 -14 -18 -36 -57 -49 -87 -13 -29 -37 -68 -53 -85 -16 -18 -34
-49 -40 -69 -8 -25 -41 -68 -99 -127 -49 -49 -109 -115 -134 -145 -26 -30 -59
-80 -74 -110 -15 -30 -42 -73 -60 -95 -17 -22 -40 -56 -50 -75 -10 -19 -53
-69 -95 -110 -43 -41 -87 -94 -99 -117 -12 -24 -40 -55 -64 -71 -23 -17 -61
-50 -85 -76 -23 -25 -42 -49 -42 -53 0 -5 -50 -60 -111 -123 -61 -63 -152
-166 -201 -227 -50 -62 -94 -113 -98 -113 -5 0 -35 -37 -68 -83 -33 -45 -70
-91 -82 -102 -13 -11 -38 -44 -57 -72 -18 -29 -59 -74 -91 -101 -32 -26 -76
-59 -98 -72 -21 -13 -54 -37 -71 -54 -18 -16 -33 -35 -33 -42 0 -6 -29 -36
-65 -65 -36 -30 -79 -75 -96 -101 -20 -31 -49 -57 -84 -77 -39 -22 -73 -55
-122 -117 -38 -47 -87 -108 -110 -135 -23 -27 -47 -58 -54 -70 -6 -12 -12 -44
-12 -71 -1 -46 2 -52 49 -99 46 -46 56 -51 115 -59 35 -5 109 -15 165 -21 56
-7 114 -9 129 -5 16 4 45 25 64 46 20 21 52 58 71 81 19 23 57 58 83 77 26 19
57 52 68 74 11 21 26 41 34 44 8 4 24 22 36 42 12 21 41 57 63 81 23 24 60 56
84 71 23 15 59 48 80 71 21 24 50 60 65 81 14 20 42 45 60 57 18 11 47 39 65
63 17 24 59 72 92 107 33 36 60 70 60 77 0 7 19 33 43 58 23 24 59 65 80 89
20 25 37 50 37 56 0 5 24 36 53 68 30 32 65 76 79 98 14 22 38 55 54 74 16 19
41 46 56 60 15 14 41 57 57 94 23 52 53 92 118 161 49 50 111 116 140 146 28
30 59 62 70 71 10 9 38 40 63 69 25 29 51 61 58 71 6 10 53 51 103 91 49 40
122 99 162 131 40 31 117 84 172 116 65 38 121 81 161 122 34 35 97 91 140
124 43 33 141 120 218 193 78 74 159 146 181 161 22 15 74 42 115 61 41 18 93
46 115 61 22 15 67 51 100 81 33 29 89 71 125 92 36 22 108 69 160 106 52 36
127 84 165 107 39 23 90 59 115 80 25 21 70 55 100 74 30 19 84 49 120 66 36
17 92 43 124 57 32 15 77 29 100 32 23 4 50 11 61 17 11 6 45 29 75 51 30 22
72 55 92 72 20 18 48 40 62 49 23 16 28 15 88 -6 35 -12 71 -30 81 -39 13 -12
22 -42 28 -96 7 -57 7 -91 -1 -121 -7 -23 -27 -56 -47 -75 -19 -18 -43 -50
-54 -70 -10 -20 -30 -53 -44 -74 -14 -20 -30 -54 -36 -76 -5 -21 -25 -56 -43
-76 -18 -20 -38 -51 -44 -69 -6 -17 -29 -62 -51 -100 -22 -37 -54 -86 -70
-108 -17 -22 -59 -76 -93 -120 -35 -45 -88 -130 -117 -190 -30 -61 -66 -124
-80 -141 -14 -18 -37 -51 -51 -75 -14 -23 -48 -77 -75 -118 -28 -42 -70 -100
-93 -130 -24 -30 -56 -81 -73 -114 -16 -33 -44 -76 -62 -96 -18 -20 -42 -59
-54 -86 -11 -28 -29 -71 -38 -97 -9 -26 -32 -67 -50 -91 -19 -25 -57 -87 -85
-138 -27 -51 -64 -111 -80 -133 -17 -23 -47 -67 -68 -98 -21 -31 -50 -66 -65
-78 -15 -12 -42 -54 -61 -95 -18 -40 -41 -95 -50 -122 -12 -37 -37 -71 -94
-130 -42 -44 -114 -112 -158 -151 -45 -39 -93 -91 -108 -116 -14 -24 -26 -60
-26 -79 0 -20 -7 -41 -18 -50 -10 -10 -29 -17 -43 -17 -15 0 -74 -38 -153 -98
-103 -77 -139 -111 -174 -162 -24 -36 -57 -78 -72 -95 -16 -16 -35 -46 -43
-66 -8 -20 -30 -54 -49 -75 -18 -22 -50 -66 -70 -99 -19 -33 -42 -73 -51 -90
-8 -16 -18 -50 -22 -75 -4 -25 -19 -67 -33 -95 -23 -44 -26 -63 -26 -157 -1
-93 2 -110 20 -134 11 -16 40 -38 65 -51 24 -12 59 -23 76 -23 18 0 68 9 110
21 43 11 97 32 119 45 26 15 76 66 133 139 51 63 96 115 101 115 5 0 25 24 44
53 19 28 60 80 90 115 35 39 60 78 67 105 6 23 16 55 22 71 6 16 37 55 69 86
39 38 58 66 58 82 0 13 7 33 15 45 8 11 31 24 52 28 21 4 54 16 73 27 19 11
58 52 86 91 28 40 68 104 89 142 21 39 55 93 76 120 21 28 59 70 85 95 25 25
67 76 93 113 25 38 60 92 78 120 18 29 39 62 48 75 9 12 22 22 30 22 8 0 26
16 41 35 14 19 31 35 36 35 5 0 43 30 85 68 41 37 92 93 114 124 24 34 63 73
97 97 31 21 73 60 92 85 19 26 50 57 70 69 19 12 76 59 125 106 50 46 97 95
105 108 8 13 22 26 32 29 9 3 61 44 115 91 54 47 120 102 146 121 27 19 53 46
58 59 5 13 19 27 32 32 13 5 57 40 97 78 41 37 95 88 120 113 25 25 68 70 97
100 29 30 79 72 112 94 33 21 111 89 173 151 62 61 127 119 144 128 17 9 37
23 44 32 8 9 31 25 53 36 21 11 57 39 80 62 24 23 77 71 120 107 43 36 95 87
115 114 20 27 57 68 82 90 25 23 88 82 140 131 52 50 122 112 155 137 33 25
103 90 155 143 52 53 118 112 147 131 29 19 62 34 72 34 10 0 22 -7 25 -16 3
-9 6 -59 6 -112 0 -53 -5 -122 -12 -153 -9 -42 -9 -70 -1 -105 9 -37 8 -56 -3
-87 -8 -22 -14 -60 -14 -86 0 -34 8 -57 30 -91 21 -31 30 -57 30 -85 0 -22 -5
-56 -10 -76 -8 -27 -19 -40 -41 -50 -17 -7 -54 -32 -82 -56 -28 -24 -73 -53
-99 -65 -26 -12 -55 -32 -63 -45 -9 -13 -25 -53 -36 -88 -19 -63 -26 -72 -183
-228 -90 -89 -176 -182 -191 -207 -16 -25 -62 -81 -104 -126 -42 -44 -89 -100
-106 -125 -16 -24 -55 -72 -87 -106 -32 -34 -58 -68 -58 -76 0 -8 -25 -56 -56
-108 -31 -52 -64 -103 -73 -114 -10 -11 -33 -46 -52 -78 -19 -33 -48 -75 -65
-95 -17 -21 -46 -71 -64 -112 -18 -41 -45 -106 -61 -143 -16 -38 -35 -83 -43
-100 -9 -18 -31 -79 -50 -137 -19 -58 -44 -148 -56 -200 -12 -52 -29 -117 -38
-145 -8 -27 -16 -84 -16 -125 0 -64 4 -85 31 -141 17 -37 48 -86 69 -109 22
-24 57 -51 79 -61 24 -11 64 -19 98 -19 36 0 103 12 170 31 62 17 159 47 217
66 58 19 121 44 140 57 19 12 67 35 105 50 39 15 100 45 136 67 36 21 72 39
81 39 8 0 33 12 54 27 21 14 71 41 110 59 40 18 75 37 79 43 3 6 25 21 48 32
23 12 51 32 62 45 11 13 70 49 130 80 61 31 123 66 140 78 16 11 37 28 47 38
9 9 33 21 52 27 20 5 68 30 106 56 39 26 81 60 92 76 12 16 31 32 42 35 11 4
40 25 65 48 25 23 91 71 146 105 55 35 125 82 155 104 30 23 66 53 80 68 14
14 68 51 120 82 53 31 121 65 153 76 43 15 72 35 120 83 35 35 86 84 113 109
27 25 59 51 71 58 13 6 64 48 114 91 57 51 117 93 162 115 40 18 104 61 142
95 39 34 102 92 141 128 40 39 101 84 143 106 40 21 91 58 114 81 23 24 52 54
64 67 12 13 53 54 90 91 39 39 107 91 161 123 51 31 118 82 150 114 33 33 91
76 137 101 53 29 107 70 160 122 44 44 101 91 126 106 25 14 99 76 164 138 69
66 142 124 176 143 36 19 69 46 86 71 18 26 53 54 100 80 39 22 77 46 83 54 7
8 17 15 23 15 5 0 31 19 56 43 25 23 75 58 109 77 35 19 87 50 115 68 28 19
67 40 85 48 19 8 70 49 114 93 44 43 98 89 120 102 22 13 59 40 82 59 23 19
90 60 149 90 104 52 110 54 188 55 73 0 83 -2 100 -24 14 -17 19 -39 19 -86 0
-49 4 -66 20 -80 13 -12 27 -15 44 -11 14 3 65 33 113 65 55 37 101 77 122
106 32 45 33 49 26 111 -5 48 -13 72 -33 96 -14 17 -49 41 -77 54 -27 13 -61
24 -75 24 -14 0 -81 -18 -150 -40 -69 -22 -137 -40 -151 -40 -14 0 -44 -13
-66 -29 -22 -16 -59 -39 -81 -50 -23 -11 -57 -32 -77 -45 -20 -14 -50 -28 -68
-32 -17 -3 -46 -18 -64 -31 -18 -14 -89 -54 -158 -89 -69 -35 -140 -77 -158
-94 -17 -16 -88 -78 -157 -138 -69 -59 -149 -127 -179 -150 -29 -23 -60 -42
-68 -42 -8 0 -45 -29 -81 -64 -37 -35 -98 -81 -137 -101 -38 -21 -83 -48 -98
-61 -16 -13 -32 -24 -37 -24 -5 0 -47 -26 -93 -57 -46 -32 -129 -98 -182 -146
-54 -49 -117 -98 -139 -109 -23 -11 -73 -45 -113 -74 -40 -30 -75 -59 -78 -64
-3 -5 -38 -31 -78 -56 -40 -26 -76 -53 -80 -60 -4 -8 -33 -33 -64 -57 -31 -23
-82 -61 -115 -84 -32 -24 -73 -50 -90 -59 -18 -9 -57 -40 -88 -69 -30 -28 -65
-59 -78 -67 -13 -9 -72 -60 -132 -114 -59 -55 -134 -114 -167 -133 -32 -19
-87 -50 -123 -69 -43 -23 -99 -70 -164 -134 -81 -82 -113 -105 -180 -137 -44
-22 -92 -51 -104 -64 -13 -14 -47 -35 -75 -47 -29 -13 -84 -49 -124 -82 -40
-33 -73 -63 -73 -67 0 -3 -24 -25 -52 -46 -29 -22 -78 -55 -108 -73 -30 -19
-89 -52 -130 -74 -41 -22 -105 -68 -141 -103 -36 -34 -92 -76 -123 -93 -31
-17 -83 -39 -117 -51 -35 -12 -78 -36 -106 -60 -25 -23 -49 -41 -53 -41 -4 0
-13 -11 -20 -25 -7 -14 -52 -51 -99 -82 -47 -32 -112 -77 -143 -101 -31 -23
-75 -49 -97 -57 -22 -7 -96 -41 -165 -74 -69 -34 -143 -76 -164 -96 -21 -19
-59 -43 -85 -54 -26 -11 -66 -38 -89 -59 -24 -22 -57 -46 -74 -55 -17 -9 -82
-31 -145 -51 -63 -19 -141 -44 -174 -56 -38 -14 -72 -20 -93 -16 -19 3 -45 12
-58 21 -22 14 -23 20 -19 96 2 45 7 102 11 128 3 25 20 91 36 146 17 55 41
136 54 180 13 44 36 112 51 150 14 39 45 106 68 150 23 44 72 130 110 190 37
61 79 123 93 140 13 16 33 49 43 73 11 24 35 67 54 97 20 29 66 87 103 128 37
41 96 101 132 133 36 31 81 80 102 108 20 28 57 66 81 84 32 22 55 51 76 94
17 34 31 69 31 79 0 9 24 48 54 85 29 38 72 84 95 103 24 18 55 36 69 41 15 4
45 2 67 -5 22 -6 54 -25 71 -41 17 -16 54 -49 84 -73 30 -26 81 -55 119 -68
61 -23 74 -24 191 -18 69 4 169 16 223 26 54 10 115 19 135 19 21 1 61 13 92
30 30 17 60 30 67 30 7 0 25 16 40 35 15 20 69 65 118 100 52 37 107 86 130
117 22 29 58 70 79 91 21 22 70 59 108 83 61 39 73 52 94 102 14 31 28 62 32
69 4 6 29 41 55 79 27 37 75 113 108 169 32 56 59 110 59 121 0 11 -7 29 -15
40 -8 10 -15 28 -15 38 0 11 12 32 26 47 18 19 28 43 33 85 6 43 4 76 -9 128
-10 39 -21 96 -24 126 -4 30 -17 72 -29 93 -12 21 -42 51 -66 68 -25 16 -55
32 -67 35 -12 3 -37 1 -55 -5 -19 -6 -61 -20 -94 -31 -33 -12 -82 -37 -110
-55 -42 -29 -69 -38 -170 -55 -76 -13 -144 -32 -185 -51 -36 -16 -96 -51 -135
-76 -38 -26 -82 -54 -96 -64 -15 -10 -39 -21 -53 -25 -15 -3 -48 -25 -74 -48
-26 -23 -100 -86 -165 -140 -65 -54 -129 -115 -143 -135 -13 -20 -54 -64 -92
-97 -37 -34 -82 -68 -99 -78 -18 -9 -50 -16 -72 -16 -30 0 -43 5 -51 21 -8 15
-8 34 0 72 6 29 14 111 17 182 5 109 3 136 -11 162 -9 18 -16 52 -16 78 0 30
6 50 18 60 9 8 49 43 87 76 39 33 75 73 82 87 7 15 12 48 13 73 0 31 -6 54
-17 67 -10 12 -42 28 -70 36 -47 13 -59 13 -103 0 -41 -12 -56 -23 -78 -56
-15 -23 -68 -81 -119 -130 -50 -49 -120 -111 -155 -137 -35 -26 -97 -70 -139
-99 -42 -28 -89 -64 -105 -79 -16 -16 -56 -49 -89 -72 -33 -24 -77 -63 -97
-86 -20 -23 -62 -59 -93 -80 -30 -21 -74 -62 -96 -92 -23 -29 -44 -53 -48 -53
-4 0 -35 -18 -69 -40 -34 -22 -62 -44 -62 -48 0 -4 -21 -31 -46 -60 -26 -30
-72 -72 -103 -94 -31 -23 -76 -60 -101 -84 -25 -23 -67 -62 -95 -86 -27 -25
-68 -55 -90 -68 -22 -13 -54 -36 -70 -51 -17 -16 -59 -48 -95 -72 -36 -24 -83
-66 -105 -95 -22 -28 -72 -74 -111 -101 -39 -27 -84 -65 -100 -84 -16 -18 -56
-54 -89 -79 -33 -25 -67 -57 -74 -71 -8 -14 -38 -42 -67 -62 -30 -19 -65 -52
-79 -73 -13 -21 -39 -46 -57 -56 -18 -11 -67 -50 -109 -87 -42 -38 -109 -92
-150 -121 -41 -29 -87 -62 -103 -72 -17 -10 -40 -31 -53 -46 -12 -15 -35 -33
-50 -40 -16 -6 -62 -50 -103 -97 -41 -46 -97 -97 -125 -113 -27 -17 -55 -30
-61 -30 -7 0 -15 7 -18 16 -3 8 1 31 9 50 8 19 36 58 63 87 27 28 81 102 119
162 39 61 79 128 91 150 11 22 45 67 74 100 30 33 71 89 90 125 20 36 39 81
42 101 3 19 27 69 52 110 25 41 55 92 66 114 11 22 38 66 60 98 21 32 43 68
47 80 5 12 43 73 86 136 42 62 113 188 159 280 64 128 88 188 104 261 12 52
24 124 28 160 7 63 9 67 69 130 35 36 70 80 80 99 13 27 16 47 10 97 -5 47
-20 90 -55 162 -26 53 -56 102 -67 108 -11 7 -47 19 -82 28 -46 12 -73 13
-104 6 -23 -5 -59 -16 -79 -25 -21 -8 -48 -15 -61 -15 -13 0 -39 12 -58 26
-29 22 -41 25 -82 19 -27 -3 -74 -15 -105 -27 -37 -13 -76 -39 -112 -73 -30
-28 -77 -64 -105 -80 -27 -15 -66 -43 -85 -60 -19 -18 -47 -39 -62 -46 -14 -8
-64 -48 -111 -89 -46 -41 -106 -88 -133 -103 -27 -15 -67 -39 -89 -52 -21 -13
-55 -38 -75 -55 -19 -17 -73 -56 -120 -87 -47 -31 -106 -74 -131 -97 -26 -22
-66 -57 -89 -76 -24 -19 -71 -53 -105 -75 -34 -22 -79 -52 -101 -67 -21 -14
-56 -44 -77 -66 -21 -23 -78 -61 -128 -87 -70 -36 -98 -57 -122 -91 -17 -24
-34 -44 -37 -44 -4 0 -26 -13 -51 -29 -24 -16 -70 -39 -102 -51 -43 -16 -67
-34 -100 -72 -29 -35 -60 -59 -102 -78 -33 -15 -92 -50 -132 -77 -40 -27 -104
-85 -144 -127 -40 -42 -88 -85 -108 -96 -20 -10 -44 -27 -54 -38 -10 -11 -32
-26 -48 -33 -20 -8 -34 -8 -40 -2 -6 6 -4 40 5 96 9 47 18 97 21 110 4 13 26
41 51 61 33 28 47 48 55 82 9 34 21 51 48 70 19 13 44 24 54 24 10 0 38 20 64
45 25 25 49 45 54 45 5 0 18 19 30 42 11 22 28 63 36 91 8 28 30 66 53 90 21
23 67 86 103 140 36 54 75 124 88 155 12 31 33 74 46 95 13 21 30 66 38 100 8
34 18 83 21 109 3 31 18 67 46 110 23 35 47 79 54 98 7 19 13 67 14 105 0 52
-5 78 -20 102 -10 17 -27 36 -37 41 -10 5 -39 12 -64 16 -25 4 -57 2 -71 -3
-14 -5 -41 -32 -61 -59 -26 -37 -46 -54 -79 -65 -23 -8 -65 -20 -93 -26 -27
-7 -89 -34 -136 -62 -48 -27 -91 -49 -96 -49 -6 0 -16 -7 -23 -15 -6 -7 -37
-29 -68 -47 -31 -18 -81 -43 -111 -55 -29 -12 -72 -40 -95 -60 -23 -21 -58
-47 -76 -58 -19 -11 -45 -26 -59 -34 -15 -7 -37 -24 -51 -36 -14 -12 -65 -43
-115 -68 -49 -24 -119 -61 -155 -82 -36 -20 -88 -58 -117 -83 -28 -26 -80 -70
-115 -99 -35 -28 -85 -68 -113 -88 -27 -19 -66 -46 -85 -60 -19 -13 -57 -37
-84 -52 -26 -16 -69 -42 -95 -60 -25 -18 -74 -48 -109 -68 -34 -20 -78 -51
-96 -70 -18 -18 -55 -42 -81 -54 -26 -12 -67 -39 -91 -61 -24 -22 -50 -40 -58
-40 -8 0 -23 -10 -33 -22 -10 -13 -41 -41 -68 -64 -28 -22 -74 -54 -104 -70
-30 -16 -70 -48 -90 -72 -20 -23 -54 -55 -76 -69 -22 -15 -65 -50 -96 -78 -30
-27 -89 -72 -130 -98 -41 -26 -94 -63 -119 -83 -25 -19 -73 -58 -108 -87 -35
-28 -76 -60 -90 -70 -15 -10 -52 -34 -82 -52 -30 -18 -90 -52 -133 -76 -58
-31 -94 -60 -140 -112 -45 -51 -77 -77 -117 -94 -30 -14 -79 -27 -107 -30 -45
-5 -53 -3 -53 11 0 10 22 41 49 69 27 29 60 77 74 108 14 31 42 71 63 90 21
19 103 99 183 179 107 108 157 166 192 225 26 44 65 105 87 135 22 30 78 134
125 231 48 97 94 182 102 189 8 7 30 38 49 69 19 31 63 111 99 178 36 66 74
153 85 192 11 39 36 97 56 128 20 32 52 73 71 92 20 20 42 56 51 85 9 28 34
85 55 126 21 41 47 109 59 150 12 41 32 131 45 200 13 69 31 162 40 206 8 45
15 97 15 115 0 19 -9 77 -21 129 -12 52 -28 115 -37 140 -8 25 -29 57 -46 73
-17 15 -60 52 -96 82 -39 33 -85 62 -115 71 -27 9 -76 27 -107 40 -33 14 -85
26 -125 28 -39 3 -100 -2 -143 -11z m8919 -1077 c42 -18 62 -35 88 -72 18 -27
33 -53 33 -57 0 -5 16 -28 36 -53 20 -24 34 -50 31 -58 -3 -8 -26 -28 -50 -44
-24 -17 -57 -34 -73 -38 -16 -4 -39 -14 -51 -21 -12 -8 -36 -39 -52 -68 -25
-44 -41 -59 -93 -87 -53 -28 -67 -41 -89 -84 -14 -29 -43 -72 -64 -98 -20 -25
-45 -46 -53 -46 -9 0 -37 -22 -62 -49 -25 -26 -76 -71 -113 -100 -37 -28 -73
-51 -79 -51 -7 0 -28 -11 -47 -24 -20 -14 -65 -34 -100 -46 -37 -12 -103 -23
-160 -27 -77 -5 -103 -3 -127 10 -16 8 -59 23 -94 32 -36 9 -73 24 -82 32 -12
11 -18 31 -18 58 0 29 8 53 25 76 13 19 35 57 48 85 13 27 38 61 56 75 17 13
46 35 64 49 18 14 64 41 102 60 43 22 91 56 124 90 30 30 77 72 105 92 28 20
69 46 91 56 22 11 58 37 80 58 22 22 52 56 67 76 16 21 51 48 84 64 31 15 70
38 85 51 16 13 66 37 111 53 46 16 92 29 103 29 11 0 44 -10 74 -23z"/>
<path d="M2400 5461 c-25 -4 -65 -18 -90 -30 -25 -13 -66 -39 -91 -57 -25 -18
-75 -46 -110 -62 -50 -23 -89 -54 -184 -146 -66 -64 -131 -120 -145 -123 -14
-3 -42 -17 -62 -29 -20 -13 -47 -39 -60 -57 -13 -19 -50 -59 -83 -89 -33 -30
-78 -65 -100 -77 -22 -12 -59 -36 -83 -54 -24 -18 -58 -58 -78 -92 -18 -33
-43 -78 -53 -100 -11 -22 -38 -90 -60 -151 -22 -61 -45 -133 -51 -160 -7 -31
-9 -90 -4 -163 l7 -113 61 -91 c43 -65 73 -98 101 -114 33 -19 56 -23 125 -23
47 0 112 7 143 15 34 9 87 35 130 64 40 27 100 76 134 109 42 41 80 67 116 80
30 12 76 34 103 51 26 17 53 31 59 31 6 0 31 21 55 46 25 25 72 65 105 88 33
23 74 49 91 58 17 8 60 38 95 66 35 29 100 95 143 147 43 53 98 109 122 125
23 17 51 44 63 62 11 18 43 52 70 76 37 31 53 54 62 85 6 23 18 60 26 81 8 22
11 51 8 68 -5 20 -18 34 -47 49 -30 15 -50 19 -81 14 -23 -3 -52 -11 -64 -17
-13 -6 -45 -41 -72 -77 -27 -36 -55 -82 -64 -102 -8 -20 -30 -48 -49 -63 -19
-14 -40 -26 -47 -26 -6 0 -33 -11 -59 -24 -26 -13 -60 -39 -77 -56 -16 -18
-63 -57 -102 -87 -40 -29 -81 -62 -90 -72 -10 -10 -53 -46 -95 -80 -43 -34
-78 -65 -78 -69 0 -5 -18 -19 -40 -31 -23 -12 -61 -40 -85 -61 -24 -21 -75
-59 -114 -85 -41 -28 -85 -49 -108 -52 -32 -4 -48 2 -101 36 -37 24 -67 52
-73 68 -5 14 -7 40 -3 57 4 17 15 51 26 76 11 25 31 58 46 74 15 15 66 61 113
102 57 48 97 92 117 126 16 29 33 64 37 78 4 14 35 53 68 88 53 53 72 66 131
85 61 19 76 29 125 85 31 35 76 75 101 90 25 14 65 46 90 72 25 25 83 68 130
96 53 32 92 63 103 83 12 19 17 41 13 55 -3 13 -18 28 -33 34 -16 6 -53 13
-83 16 -30 2 -75 1 -100 -3z"/>
</g>
</svg>
