<?xml version="1.0" encoding="UTF-8"?>
<svg version="1.0" xmlns="http://www.w3.org/2000/svg" width="240px" height="52px">
<path fill="none" stroke="#000000" stroke-width="1.2" stroke-miterlimit="10" d="M120.565,15.442  c-1.034,0.058-1.115,0.478-1.063,1.408 M74.544,22.513c3.296,1.076,16.881-3.862,9.225-3.435c-2.986,0.167-1.376,2.575,1.74,3.138  c1.416,0.255,4.441-0.289,5.108-0.538c6.733-2.511-2.41,1.783,0.707,1.517c2.553-0.217,22.112-5.736,20.156-5.066l-10.486,3.594  c-2.478,0.849,3.908-0.633,4.162,3.918c0.115,2.069-5.264,2.369-3.977-0.608c1.275-3.184,7.671-3.926,10.538-4.53  c0.812-0.171,3.628-2.007,4.338-1.961c0.825,0.053,0.027,1.42,0.14,2.15c0.363,2.336,4.558,1.076,7.934-0.882  c2.002-1.162,2.568-3.615-0.273-3.171c-2.975,0.466,1.718,4.794,3.166,4.713 M56.788,22.176c-2.632-5.958-11.619,1.242-4.152,1.502  c2.287,0.079,3.215-1.015,3.7-0.983c2.802,0.185,6.435-5.837,10.88-3.221c0.691,0.407-0.449-0.496-1.739-0.547  c-0.338-0.013-0.693-0.077-1.06-0.019c-0.47,0.075-0.876,0.176-1.148,0.219c-0.917,0.144-2.474,1.335-2.903,1.798  c-6.506,7.024,11.574-0.488,14.908-2.748c5.523-3.744,3.307-0.375-1.126,2.137c-1.148,0.652-5.123,3.435-4.583,3.053  c2.95-2.089,1.275-0.985,5.388-3.512c4.327-2.658,9.169-3.636,14.007-5.441c11.507-4.296,25.994-5.713,35.833-5.017 M21.145,11.618  c6.797-2.041,8.473,1.525,7.555,3.154c-1.292,2.292-6.864,5.97-11.992,8.362c-5.719,2.67-12.24,3.298-12.786,1.504  c-0.252-0.827,2.403-3.252,5.793-5.284C14.742,16.341,34.311,9.14,41.255,7.942c3.56-0.613,5.846-0.631,6.639-0.152  c2.831,1.71-7.94,7.705-12.127,9.696c-5.232,2.489-11.866,5.178-12.196,5.614c-1.18,1.563,31.622-12.499,12.907-1.513  c-1.302,0.765-3.874,2.521-0.901,2.055c0.439-0.068,10.601-7.653,11.612-4.651c0.74,2.194-4.671,2.135-4.653,4.137  c0.014,1.672,2.641,1.178,4.1,0.394 M136.426,17.048c3.664-4.978,11.146-8.507,17.766-8.877c9.722-0.542,10.16,3.584,1.461,7.597  c-7.286,3.312-14.9,4.925-4.012-1.229c7.499-4.238,19.863-10.446,28.855-10.948c6.826-0.381-8.69,8.155-12.828,8.386  c-1.034,0.058,8.316,3.133-0.554,5.87c-9.297,2.869-3.398-4.435-0.91-2.75c2.916,1.975,11.227,0.126,12.214-0.392  c1.231-0.645,8.448-1.49,7.414-1.439l-1.886,0.093c-10.084,0.498-5.836,11.142,2,2.379c3.906-4.367-7.263-0.01,2.046-0.528  c5.999-0.335,3.266-1.096,5.014,0.468c2.839,2.539,8.591-1.109,10.152-2.856c0,0-0.551,6.141,3.232,3.373  c1.93-1.412,10.533-0.862,8.591-3.338c-1.547-1.972-11.061,6.454-0.097,5.842c5.172-0.288,13.285-14.754,16.237-11.497  c2.275,2.509-15.949,7.944-6.021,7.391c2.688-0.15,14.031-4.779,12.75-7.179c-1.679-3.146-19.437,13.151-9.4,12.592  c7.654-0.427-2.069,3.324-4.06,4.172c-9.771,4.166-22.628,3.545-33.19,3.927l-30.063,0.433c-1.035,0.057,3.93-0.22,4.551-0.255  c13.032-0.727,27.125-2.972,40.614-1.021c19.231,2.782,14.851,14.071,3.384,21.086"/>
</svg>