<?xml version="1.0" standalone="no"?>
<!DOCTYPE svg PUBLIC "-//W3C//DTD SVG 20010904//EN"
 "http://www.w3.org/TR/2001/REC-SVG-20010904/DTD/svg10.dtd">
<svg version="1.0" xmlns="http://www.w3.org/2000/svg"
 width="468pt" height="86pt" viewBox="0 0 468 86"
 preserveAspectRatio="xMidYMid meet">
<metadata>
Created by POTRACE VERSION, written by Peter Selinger 2001-2007
</metadata>
<g transform="translate(0,86) scale(0.011866,-0.011866)"
fill="#000000" stroke="none">
<path d="M35452 7096 c-30 -17 -97 -66 -149 -108 -53 -43 -99 -78 -103 -78 -4
0 -47 -38 -96 -85 -49 -47 -92 -85 -97 -85 -5 0 -30 -22 -56 -49 -26 -26 -65
-60 -87 -74 -22 -14 -63 -44 -90 -67 -26 -24 -62 -48 -78 -55 -16 -7 -65 -44
-109 -81 -44 -38 -98 -86 -119 -107 -21 -20 -60 -48 -87 -61 -26 -14 -63 -42
-82 -64 -19 -22 -42 -52 -52 -66 -10 -14 -27 -26 -38 -26 -11 0 -40 -11 -65
-25 -24 -14 -62 -28 -85 -31 -24 -4 -46 -15 -54 -28 -8 -11 -15 -30 -15 -41 0
-12 -21 -50 -47 -86 -27 -35 -52 -66 -58 -68 -5 -2 -33 -26 -61 -53 -28 -26
-54 -48 -58 -48 -3 0 -31 -19 -60 -42 -30 -24 -75 -58 -100 -75 -25 -18 -49
-33 -53 -33 -5 0 -32 -23 -62 -50 -29 -28 -69 -63 -89 -78 -20 -15 -71 -59
-112 -97 -41 -39 -95 -90 -120 -116 -25 -25 -66 -67 -92 -95 -26 -27 -111
-110 -188 -184 -78 -74 -219 -211 -314 -305 -96 -93 -196 -188 -222 -211 -27
-22 -76 -59 -109 -81 -33 -23 -79 -53 -102 -67 -24 -15 -60 -52 -83 -86 -23
-34 -48 -64 -56 -67 -8 -3 -22 -20 -31 -37 -8 -17 -39 -64 -67 -105 -28 -40
-64 -88 -80 -105 -15 -17 -39 -51 -51 -76 -13 -25 -37 -71 -53 -103 -16 -31
-38 -67 -49 -80 -12 -12 -44 -64 -72 -115 -29 -52 -61 -117 -72 -144 -11 -28
-32 -72 -46 -97 -14 -25 -36 -57 -48 -71 -12 -14 -29 -38 -38 -55 -9 -16 -25
-50 -36 -75 -12 -25 -32 -63 -46 -85 -14 -22 -30 -49 -35 -60 -5 -11 -14 -39
-20 -63 -6 -23 -24 -58 -41 -76 -16 -19 -60 -50 -97 -69 -37 -19 -132 -68
-212 -109 -80 -41 -164 -88 -188 -106 -24 -17 -67 -39 -95 -48 -29 -9 -61 -23
-72 -30 -11 -8 -32 -14 -47 -14 -15 0 -69 -12 -120 -26 -51 -14 -111 -33 -133
-42 -22 -9 -76 -41 -120 -70 -44 -30 -97 -68 -117 -85 -20 -18 -60 -48 -88
-67 -28 -19 -64 -45 -79 -57 -15 -12 -54 -36 -87 -54 -32 -17 -66 -37 -74 -43
-8 -6 -31 -20 -50 -30 -19 -10 -48 -31 -65 -47 -16 -15 -55 -37 -86 -48 -30
-12 -70 -37 -89 -56 -19 -19 -41 -35 -49 -35 -9 0 -38 11 -66 24 -27 13 -68
29 -90 35 -23 6 -56 24 -75 41 -18 16 -37 30 -42 30 -4 0 -15 15 -24 32 -9 18
-33 51 -54 73 -25 27 -43 59 -54 97 -9 31 -16 72 -16 92 0 21 -7 66 -16 102
l-17 64 37 55 c20 30 36 58 37 62 0 5 16 28 35 53 19 25 46 70 61 100 16 30
31 57 34 60 3 3 19 25 36 50 17 25 50 64 72 87 23 23 41 46 41 51 0 5 11 19
25 32 15 14 28 40 32 63 4 27 21 56 55 95 27 31 65 80 86 109 20 30 44 68 53
84 9 16 28 38 42 49 14 11 42 45 63 76 22 31 45 67 52 80 7 13 30 36 50 51 20
15 51 43 69 62 18 20 32 40 33 45 0 5 9 18 21 30 11 12 43 49 70 84 27 35 49
67 49 72 0 4 54 63 119 130 66 66 128 138 138 159 11 22 31 53 46 70 14 18 43
39 64 47 21 9 54 31 73 49 19 19 73 72 120 118 47 46 111 101 144 121 33 21
135 115 233 214 97 97 192 200 213 228 21 28 65 78 97 110 32 32 97 92 143
133 47 41 119 109 160 151 41 42 102 108 135 146 33 37 78 87 101 109 22 22
64 70 93 107 29 38 65 77 81 88 15 11 40 20 54 20 20 0 30 8 43 35 14 29 25
37 67 49 28 8 97 17 153 20 56 4 167 15 245 26 79 10 185 19 237 20 52 0 102
5 112 11 10 5 48 9 86 8 37 0 77 -4 88 -8 11 -4 35 -4 55 1 19 6 78 14 130 18
52 5 192 11 312 14 119 3 245 10 280 17 34 6 75 13 91 16 15 3 27 11 27 18 0
7 -6 17 -12 23 -7 5 -51 15 -98 22 -47 7 -161 12 -255 12 -93 -1 -237 -4 -320
-7 -82 -3 -159 -6 -170 -6 -11 0 -65 1 -120 3 -55 2 -119 0 -142 -3 -24 -3
-82 -2 -130 2 -49 4 -110 3 -138 -3 -27 -5 -73 -16 -102 -24 -47 -13 -56 -13
-83 1 -16 8 -30 22 -30 30 0 8 19 37 43 65 23 28 69 81 103 118 34 37 77 93
97 124 20 31 50 70 68 85 17 15 46 51 64 78 18 28 43 62 56 76 13 14 30 36 37
47 6 12 12 29 12 37 0 9 -11 20 -24 26 -14 7 -40 9 -58 5 -18 -3 -49 -15 -68
-25 -19 -11 -73 -57 -120 -103 -47 -46 -101 -91 -120 -100 -19 -9 -51 -24 -72
-32 -20 -9 -38 -16 -41 -16 -3 0 -21 -15 -40 -32 -19 -18 -41 -38 -48 -44 -8
-6 -43 -43 -78 -82 -44 -50 -75 -75 -99 -82 -19 -5 -53 -28 -76 -52 -22 -24
-48 -57 -57 -73 -9 -18 -35 -40 -64 -54 -27 -14 -67 -28 -90 -33 -22 -5 -94
-15 -160 -23 -66 -8 -132 -12 -148 -9 -15 3 -51 0 -80 -6 -28 -7 -68 -18 -87
-26 -19 -7 -55 -16 -80 -20 -25 -3 -79 -14 -120 -24 -41 -10 -102 -27 -135
-38 -33 -11 -77 -23 -97 -26 -21 -4 -57 -16 -80 -26 -24 -11 -55 -20 -69 -20
-18 0 -32 9 -43 25 -13 19 -25 25 -54 25 -22 0 -63 -13 -103 -34 -36 -18 -76
-37 -90 -41 -13 -4 -65 -27 -115 -51 -50 -24 -122 -55 -160 -69 -38 -15 -82
-30 -99 -34 -16 -5 -56 -20 -87 -35 -31 -14 -64 -26 -73 -26 -9 0 -52 -16 -95
-36 -44 -20 -80 -42 -80 -49 0 -7 13 -18 29 -23 22 -8 45 -6 98 10 37 11 97
28 133 39 36 11 97 25 135 31 39 6 86 19 105 28 19 10 70 32 113 49 43 17 86
31 95 31 9 0 55 16 102 35 81 34 90 35 195 34 94 -2 121 2 190 24 44 14 94 29
110 33 17 4 35 10 40 14 6 5 33 11 60 15 28 3 88 15 135 25 47 10 123 26 170
35 47 10 117 20 156 22 66 5 73 3 88 -18 9 -13 16 -35 16 -49 0 -20 -15 -38
-71 -80 -39 -30 -99 -79 -133 -108 -35 -29 -74 -72 -86 -95 -13 -23 -35 -54
-49 -68 -14 -14 -48 -51 -76 -83 -27 -31 -116 -123 -197 -205 -81 -82 -164
-162 -185 -177 -21 -16 -67 -55 -103 -87 -36 -32 -87 -80 -115 -107 -27 -26
-93 -86 -145 -132 -52 -47 -117 -105 -144 -129 -28 -24 -67 -62 -88 -84 -21
-22 -59 -64 -85 -93 -27 -30 -63 -67 -80 -85 -18 -17 -33 -36 -33 -42 0 -6
-18 -29 -40 -51 -21 -21 -42 -50 -45 -64 -4 -13 -27 -54 -53 -90 -25 -36 -69
-89 -96 -119 -28 -30 -62 -63 -75 -75 -13 -11 -48 -43 -77 -70 -30 -27 -54
-54 -54 -60 -1 -6 -21 -27 -45 -46 -25 -19 -45 -38 -45 -42 0 -3 -21 -26 -46
-50 -25 -23 -78 -80 -118 -125 -39 -45 -87 -103 -106 -128 -19 -26 -42 -55
-51 -64 -8 -9 -24 -29 -35 -45 -10 -16 -26 -39 -35 -52 -8 -13 -39 -48 -67
-79 -29 -31 -63 -73 -76 -93 -13 -21 -31 -43 -40 -51 -9 -7 -16 -18 -16 -23 0
-5 -15 -30 -32 -56 -18 -25 -58 -93 -88 -149 -38 -70 -75 -124 -119 -169 l-64
-66 12 -64 c7 -35 15 -121 17 -191 2 -71 8 -163 13 -205 7 -65 16 -88 51 -145
23 -37 56 -80 72 -96 16 -15 43 -35 61 -43 17 -9 53 -32 81 -52 41 -29 63 -37
109 -40 39 -3 83 2 135 16 42 11 99 26 125 33 26 6 58 20 70 29 12 9 46 23 76
30 35 8 71 27 105 55 28 23 65 45 80 49 16 4 49 21 74 38 25 17 71 44 102 61
32 16 93 61 136 99 44 38 90 77 104 86 14 9 45 33 70 53 25 20 65 41 90 47 25
6 68 16 95 22 28 6 60 18 72 25 12 8 67 34 121 59 55 24 114 47 131 51 17 3
51 23 76 44 24 20 66 42 91 49 26 7 77 28 113 46 36 18 95 51 131 74 36 23 73
42 82 42 9 0 20 -5 24 -11 3 -6 -8 -25 -25 -43 -17 -18 -35 -46 -40 -62 -5
-17 -61 -111 -126 -209 -65 -99 -128 -188 -142 -198 -13 -11 -41 -54 -63 -97
-32 -63 -47 -82 -83 -103 -24 -14 -93 -77 -152 -139 -60 -62 -116 -126 -127
-143 -10 -16 -18 -46 -18 -66 0 -26 8 -43 29 -63 27 -26 30 -27 62 -13 24 10
44 31 69 74 21 36 55 76 85 99 28 21 80 73 117 115 37 43 83 104 102 136 19
32 48 71 65 87 17 17 31 34 31 39 0 6 15 28 34 51 18 23 42 57 52 76 11 19 36
53 57 75 20 22 46 58 57 80 12 22 43 72 70 110 28 39 61 86 74 105 13 19 38
48 55 64 17 17 31 34 31 39 0 5 11 22 24 38 14 16 47 71 75 122 28 51 58 100
68 109 10 8 49 31 87 49 38 19 96 59 130 90 33 30 85 74 114 97 28 22 62 44
75 47 12 4 47 33 77 64 30 31 75 72 98 91 24 19 66 55 92 80 27 25 70 61 96
80 26 19 58 47 72 63 14 15 31 27 38 27 7 0 16 9 19 20 3 11 22 32 41 47 20
14 44 42 54 62 10 20 27 45 39 55 12 11 21 30 21 43 0 12 -4 23 -9 23 -5 0
-17 -7 -25 -16 -9 -8 -16 -25 -16 -36 0 -11 -17 -36 -37 -55 -21 -19 -45 -41
-53 -48 -8 -7 -28 -19 -45 -28 -16 -9 -55 -44 -85 -78 -30 -34 -66 -67 -81
-73 -14 -6 -40 -22 -58 -36 -18 -14 -59 -46 -91 -72 -32 -26 -65 -57 -74 -69
-8 -12 -29 -31 -47 -43 -18 -11 -41 -26 -51 -32 -11 -7 -40 -32 -64 -58 -25
-25 -50 -46 -55 -46 -5 0 -14 -11 -19 -24 -6 -16 -20 -27 -40 -31 -18 -4 -36
-3 -42 3 -7 7 -2 26 16 59 14 26 35 73 46 102 12 30 37 73 56 95 19 23 41 48
49 57 8 9 15 22 15 29 0 7 6 21 14 29 8 9 31 50 51 91 20 41 53 101 73 133 21
31 60 90 87 131 28 40 74 104 103 142 28 38 62 89 73 114 12 25 41 70 64 100
23 30 50 71 60 90 10 19 32 53 51 76 18 23 41 59 50 80 10 21 36 58 58 82 22
23 46 42 53 42 7 0 47 44 90 98 42 53 98 117 124 142 26 25 82 77 125 115 43
39 105 89 138 113 33 23 87 70 121 105 33 34 84 84 113 110 29 27 61 65 71 85
11 21 38 56 62 80 23 23 49 42 58 42 9 0 34 10 56 21 22 12 53 31 68 43 16 11
91 78 168 147 76 69 160 137 185 150 26 13 52 33 58 43 6 11 26 33 45 50 18
17 45 37 58 44 20 11 42 12 102 4 43 -5 102 -6 136 -1 33 4 74 11 91 14 21 5
34 2 43 -9 8 -9 18 -16 24 -16 6 0 20 -8 31 -19 12 -10 30 -22 42 -25 14 -4
30 1 47 15 15 11 27 26 27 33 0 7 14 32 30 54 17 23 30 49 30 57 0 10 -10 15
-29 15 -15 0 -40 -9 -54 -21 -15 -11 -35 -22 -46 -24 -10 -2 -40 -10 -65 -19
-26 -9 -51 -16 -56 -16 -5 0 -29 14 -54 31 -26 17 -46 36 -45 42 0 7 24 31 54
55 30 23 65 46 79 52 15 5 26 15 26 21 0 6 37 48 83 92 45 45 97 94 115 110
17 15 32 36 32 46 0 14 17 27 57 46 31 14 72 37 90 51 18 14 50 31 70 38 24 8
46 10 61 5 12 -5 22 -11 22 -14 0 -3 -9 -25 -21 -48 -11 -23 -26 -63 -33 -89
-7 -26 -9 -53 -5 -60 7 -10 9 -9 9 5 0 9 5 17 12 17 6 0 54 44 106 98 52 53
106 115 120 137 14 22 50 71 80 108 29 38 60 71 67 73 7 3 31 31 53 62 22 31
50 77 62 102 13 25 29 67 36 93 7 27 10 55 7 63 -3 8 -18 14 -37 13 -17 -1
-55 -15 -84 -33z"/>
<path d="M29955 6926 c-33 -12 -76 -30 -95 -40 -19 -9 -54 -21 -78 -27 -23 -5
-95 -34 -160 -65 -64 -31 -128 -66 -142 -79 -14 -12 -52 -31 -85 -40 -33 -10
-91 -34 -129 -54 -38 -20 -83 -44 -100 -53 -18 -9 -38 -23 -45 -32 -8 -9 -19
-16 -26 -16 -8 0 -27 -12 -44 -26 -17 -14 -46 -28 -63 -31 -18 -3 -47 -15 -64
-28 -18 -14 -50 -32 -72 -41 -23 -9 -44 -25 -48 -36 -3 -11 -3 -22 0 -25 3 -3
38 2 78 11 46 11 87 29 110 47 20 16 40 29 45 29 4 1 26 9 48 20 22 11 47 19
56 20 8 0 51 20 95 44 43 24 119 65 167 90 49 25 93 46 98 46 6 0 42 15 82 34
40 18 88 37 107 41 19 4 51 15 70 25 19 10 60 25 90 33 30 9 109 19 175 23
111 6 124 9 181 40 34 19 64 40 67 48 3 8 0 19 -6 24 -7 5 -31 16 -55 25 -28
11 -69 17 -120 16 -52 -1 -97 -8 -137 -23z"/>
<path d="M24947 6771 c-26 -21 -65 -59 -87 -83 -22 -23 -49 -60 -60 -81 -10
-20 -21 -55 -25 -77 -5 -30 -17 -47 -53 -77 -26 -21 -135 -125 -242 -233 -107
-107 -206 -211 -220 -231 -14 -20 -51 -69 -83 -109 -33 -39 -65 -74 -72 -76
-7 -3 -25 -33 -41 -67 -15 -35 -60 -101 -103 -152 -42 -49 -89 -101 -106 -115
-16 -14 -52 -46 -80 -71 -27 -26 -65 -59 -83 -74 -19 -16 -44 -52 -57 -81 -16
-37 -35 -61 -63 -79 -22 -15 -52 -43 -66 -63 -14 -21 -29 -51 -35 -67 -5 -17
-17 -59 -27 -94 -15 -53 -25 -69 -58 -92 -21 -16 -43 -29 -48 -29 -4 0 -34
-17 -66 -39 -31 -21 -76 -48 -99 -60 -26 -13 -49 -34 -59 -54 -9 -17 -31 -44
-48 -59 -17 -15 -34 -27 -39 -28 -4 0 -31 -16 -59 -35 -28 -20 -80 -59 -114
-87 -35 -28 -65 -56 -68 -64 -3 -7 -49 -45 -102 -85 -54 -41 -113 -89 -131
-107 -19 -19 -33 -41 -31 -50 2 -9 11 -18 21 -20 10 -2 28 -1 40 2 12 3 45 24
72 46 28 23 64 52 80 66 17 14 50 43 75 65 25 21 78 66 119 99 40 33 77 60 82
60 4 0 10 -4 14 -9 3 -6 -11 -49 -31 -97 -19 -48 -39 -94 -44 -103 -4 -9 -15
-32 -24 -51 -9 -19 -24 -48 -32 -63 -9 -15 -49 -56 -91 -90 -41 -34 -91 -70
-112 -81 -20 -10 -57 -38 -83 -62 -26 -24 -51 -44 -56 -44 -4 0 -46 -29 -93
-65 -46 -36 -95 -73 -109 -82 -14 -10 -48 -37 -76 -62 -27 -26 -87 -75 -132
-109 -45 -35 -82 -68 -82 -73 0 -4 -11 -14 -24 -21 -14 -7 -46 -33 -73 -58
-26 -25 -70 -61 -98 -80 -27 -19 -55 -39 -62 -45 -7 -5 -29 -25 -50 -43 -21
-18 -99 -81 -175 -140 -75 -59 -157 -122 -182 -141 -26 -19 -63 -42 -84 -52
-20 -11 -77 -49 -126 -86 -48 -38 -107 -83 -130 -101 -22 -18 -50 -37 -61 -41
-12 -5 -41 -24 -65 -43 -25 -19 -65 -48 -90 -65 -25 -17 -58 -43 -73 -57 -16
-15 -70 -52 -120 -83 -51 -30 -106 -68 -124 -83 -17 -16 -42 -31 -55 -35 -13
-4 -29 -12 -37 -18 -7 -6 -45 -25 -85 -42 -39 -17 -114 -57 -166 -89 -52 -32
-124 -67 -160 -78 -36 -10 -77 -24 -92 -30 -16 -6 -28 -14 -28 -18 0 -4 -25
-26 -56 -49 -31 -23 -80 -51 -108 -62 -29 -10 -73 -32 -99 -49 -26 -16 -59
-33 -75 -36 -15 -4 -49 -21 -77 -39 -27 -18 -81 -49 -120 -69 -56 -29 -92 -39
-176 -51 -58 -8 -127 -24 -153 -36 -26 -11 -66 -21 -89 -21 -23 -1 -81 6 -129
15 -48 9 -104 24 -125 34 -27 13 -44 31 -60 63 -12 25 -25 57 -28 72 -3 15
-21 44 -41 63 -19 20 -42 52 -51 72 -8 20 -15 57 -14 82 0 25 6 68 13 96 10
36 20 52 38 61 14 6 43 20 65 30 22 11 48 34 59 52 10 19 23 55 28 80 4 26 17
59 28 74 11 15 20 42 20 60 0 18 -4 39 -9 47 -8 12 -14 12 -45 0 -19 -8 -65
-39 -101 -69 -37 -30 -114 -100 -173 -154 -59 -54 -112 -108 -118 -120 -7 -12
-22 -50 -33 -86 -17 -49 -20 -78 -16 -120 4 -30 14 -77 22 -105 9 -27 41 -93
71 -145 30 -52 66 -114 79 -137 14 -25 45 -55 75 -75 28 -18 71 -46 94 -61 31
-20 66 -32 116 -39 40 -5 80 -13 88 -18 9 -5 43 -12 76 -15 58 -7 65 -5 160
40 54 26 106 53 114 61 8 7 51 31 94 54 44 23 107 51 140 62 34 11 99 41 145
67 46 25 94 56 108 69 13 12 45 33 71 47 26 14 54 25 62 25 8 0 31 10 50 22
19 11 69 39 110 61 41 21 84 47 95 57 11 10 51 25 90 35 47 12 92 32 139 64
38 25 91 59 120 74 28 16 71 43 97 62 25 18 66 41 90 52 24 11 64 35 89 54 25
19 68 49 95 68 28 19 66 48 85 66 19 17 67 51 105 74 39 24 92 58 119 76 27
19 63 47 80 63 17 16 65 46 106 66 41 21 93 52 115 69 22 17 61 51 87 75 25
24 78 67 116 96 39 28 94 70 124 93 29 23 70 57 90 75 21 17 40 39 43 48 3 8
29 27 57 43 29 15 82 54 118 87 36 32 84 76 108 97 23 21 63 63 88 93 25 30
57 61 71 69 14 7 40 26 57 41 17 16 56 45 86 65 30 21 80 64 110 96 34 36 64
59 77 59 11 0 26 -7 33 -15 10 -12 9 -27 -3 -77 -8 -35 -24 -87 -36 -117 -11
-29 -27 -61 -35 -70 -8 -9 -24 -38 -36 -66 -12 -27 -33 -68 -48 -90 -14 -22
-38 -54 -52 -71 -14 -17 -40 -49 -58 -70 -17 -21 -62 -91 -100 -154 -37 -64
-82 -137 -99 -163 -18 -26 -33 -55 -33 -63 0 -9 -17 -36 -37 -61 -21 -25 -59
-68 -84 -97 -25 -28 -73 -91 -106 -141 -33 -49 -76 -116 -97 -147 -21 -31 -49
-70 -64 -86 -15 -16 -40 -45 -56 -65 -16 -20 -36 -51 -45 -68 -8 -17 -49 -66
-90 -108 -42 -42 -91 -97 -109 -121 -18 -25 -44 -61 -57 -80 -14 -19 -38 -55
-55 -80 -17 -26 -29 -55 -28 -69 2 -18 11 -27 33 -33 17 -5 46 -6 66 -2 20 3
61 23 90 45 30 22 65 48 78 59 19 17 22 26 17 55 -6 30 -3 40 22 64 16 16 37
51 47 78 10 26 48 84 83 128 36 44 94 109 129 144 35 36 63 69 63 74 0 6 36
45 80 88 44 42 80 82 80 87 0 6 33 43 73 84 40 40 85 88 100 107 21 26 39 36
75 42 26 5 79 25 117 45 39 20 79 44 90 54 11 10 54 35 95 56 41 21 89 48 106
61 17 13 54 30 82 38 28 9 64 26 79 38 15 13 52 38 81 55 29 18 57 32 62 32 5
0 22 14 37 31 16 17 46 40 68 51 22 12 63 40 90 63 28 23 68 52 90 64 22 12
49 27 60 34 11 6 49 32 85 56 36 24 80 56 98 70 17 14 55 45 82 69 28 23 54
42 58 42 4 0 30 19 57 41 28 23 74 52 103 65 29 13 72 39 95 57 23 19 79 54
125 77 46 24 85 47 88 52 3 4 15 8 27 9 12 0 41 10 64 22 24 12 78 43 121 68
43 26 84 54 91 63 7 9 18 16 23 16 5 0 24 11 42 25 22 17 38 40 46 69 7 25 9
49 5 55 -3 6 -21 11 -38 11 -18 0 -44 -8 -57 -17 -14 -9 -27 -19 -30 -23 -3
-3 -24 -20 -46 -38 -23 -17 -70 -48 -105 -68 -35 -20 -91 -51 -125 -70 -33
-18 -116 -58 -183 -88 -68 -31 -148 -72 -178 -93 -30 -21 -68 -45 -83 -53 -16
-8 -48 -33 -72 -54 -23 -22 -86 -69 -138 -104 -52 -36 -111 -78 -130 -94 -19
-16 -40 -33 -47 -38 -7 -6 -16 -10 -20 -10 -4 0 -39 -25 -78 -55 -38 -30 -92
-72 -120 -93 -27 -22 -79 -58 -113 -80 -35 -23 -74 -44 -85 -48 -12 -4 -30
-18 -40 -31 -11 -13 -42 -38 -71 -54 -28 -17 -73 -44 -101 -61 -27 -17 -68
-37 -90 -45 -22 -7 -51 -25 -65 -38 -14 -13 -36 -26 -50 -30 -19 -4 -31 0 -45
14 -18 21 -18 22 1 57 10 20 33 52 49 72 17 21 44 69 59 109 16 40 39 82 52
94 13 13 24 28 24 34 0 6 17 40 38 76 22 35 47 86 57 113 11 27 36 68 58 90
21 22 47 55 58 73 11 18 26 36 33 40 6 5 33 34 59 66 26 33 47 67 47 77 0 10
12 32 26 49 14 17 39 33 57 36 18 4 40 12 49 19 10 7 29 39 43 70 14 31 25 76
25 99 0 23 9 61 19 83 10 23 29 49 42 58 13 9 31 16 40 16 9 0 24 9 33 19 14
15 16 29 12 58 -5 28 0 58 19 112 15 41 33 87 41 103 8 15 26 39 40 53 14 14
30 23 35 20 5 -4 9 -15 9 -25 0 -10 3 -25 6 -34 3 -9 14 -16 25 -16 10 0 23 9
29 19 5 11 10 29 10 41 0 12 11 38 25 58 14 20 25 50 25 66 0 16 15 52 35 82
19 29 53 68 76 88 25 21 57 37 82 41 25 5 51 18 66 35 15 14 43 50 63 79 21
30 43 72 49 95 6 22 27 70 47 106 19 36 50 83 67 105 18 22 49 75 70 118 21
42 44 77 52 77 7 0 25 -7 39 -16 19 -13 30 -14 48 -6 15 6 29 27 39 55 8 25
24 54 36 66 11 11 23 33 26 48 3 16 16 60 29 98 13 39 36 98 50 133 16 38 46
82 74 111 26 26 65 72 87 102 22 29 49 67 59 84 10 16 31 50 45 75 15 25 40
67 56 94 17 26 53 76 81 110 27 33 58 81 68 106 10 25 31 59 48 76 20 21 29
40 26 55 -2 17 -10 25 -29 27 -19 2 -39 -8 -72 -37z"/>
<path d="M27202 6511 c-29 -16 -87 -57 -130 -92 -42 -34 -81 -68 -85 -76 -4
-7 -13 -13 -18 -13 -6 0 -29 -15 -52 -34 -23 -18 -84 -56 -136 -85 -51 -28
-97 -51 -101 -51 -4 0 -32 -16 -61 -36 -30 -20 -74 -56 -98 -80 -24 -23 -56
-48 -72 -54 -16 -7 -29 -16 -29 -20 0 -5 -28 -34 -62 -67 -34 -32 -68 -65 -75
-73 -8 -8 -39 -43 -70 -77 -38 -42 -64 -63 -79 -63 -13 0 -26 5 -29 10 -3 6
-16 10 -28 10 -12 0 -31 -8 -42 -18 -12 -9 -27 -25 -34 -35 -8 -10 -18 -64
-23 -125 -5 -59 -13 -168 -17 -242 -5 -74 -9 -136 -10 -138 0 -1 -17 -18 -36
-37 -19 -19 -41 -35 -50 -35 -8 0 -15 -4 -15 -8 0 -4 -29 -25 -64 -45 -35 -21
-70 -45 -78 -54 -7 -9 -31 -24 -53 -33 -22 -10 -49 -26 -60 -36 -11 -11 -33
-28 -50 -39 -16 -10 -73 -41 -125 -68 -52 -27 -125 -65 -162 -84 -37 -19 -70
-39 -74 -44 -3 -6 -17 -14 -30 -19 -13 -5 -33 -24 -44 -42 -11 -18 -20 -47
-20 -64 0 -16 5 -35 12 -42 7 -7 23 -12 36 -12 13 0 61 17 106 38 45 21 99 52
121 68 22 16 57 43 78 59 20 17 37 36 37 43 0 7 12 18 28 24 15 7 48 26 73 43
25 17 52 37 60 43 8 7 31 26 53 42 21 17 43 30 49 30 5 0 19 9 31 21 12 11 49
38 82 60 34 21 73 39 87 39 18 0 31 -10 46 -35 14 -23 35 -41 63 -53 30 -12
69 -17 128 -16 53 0 113 9 160 22 41 11 106 30 144 40 37 11 80 29 95 39 14
10 49 29 78 41 29 12 91 42 139 67 47 25 95 45 106 45 10 0 31 8 46 19 15 10
43 28 62 39 19 12 60 34 90 49 30 15 78 47 106 70 29 25 73 50 101 58 27 8 58
24 68 35 10 11 37 29 61 41 24 11 53 33 64 49 13 18 33 30 55 34 20 4 38 13
41 21 3 7 30 30 61 52 31 21 73 49 93 63 20 14 45 33 54 43 10 9 32 17 50 17
18 0 55 12 82 26 27 14 63 39 79 55 17 16 35 29 40 29 5 0 38 20 74 43 36 24
80 52 96 63 17 10 55 27 85 37 35 12 72 34 100 62 25 23 59 49 75 58 17 8 41
17 55 20 14 4 52 31 85 62 33 30 68 61 78 70 9 8 17 22 17 30 0 9 -10 15 -26
15 -14 0 -38 -9 -53 -20 -16 -10 -48 -24 -73 -29 -25 -6 -57 -15 -71 -20 -14
-6 -44 -35 -67 -65 -22 -31 -45 -56 -51 -56 -6 0 -28 -13 -48 -28 -20 -16 -44
-32 -54 -35 -9 -4 -50 -28 -90 -53 -39 -26 -90 -61 -112 -78 -22 -17 -49 -37
-60 -44 -11 -6 -27 -15 -35 -19 -8 -3 -34 -21 -57 -40 -23 -18 -48 -33 -57
-33 -8 0 -24 -9 -35 -21 -10 -11 -34 -25 -53 -29 -18 -5 -59 -18 -92 -29 -32
-12 -82 -36 -110 -55 -28 -19 -60 -43 -70 -55 -11 -12 -24 -21 -31 -21 -6 0
-36 -18 -66 -41 -30 -22 -82 -54 -116 -69 -33 -16 -64 -33 -67 -39 -4 -5 -43
-29 -89 -54 -45 -24 -118 -56 -162 -72 -44 -15 -117 -45 -162 -66 -44 -21 -84
-39 -87 -39 -3 0 -28 -9 -54 -21 -26 -11 -63 -28 -82 -37 -19 -9 -44 -24 -55
-33 -11 -9 -31 -20 -45 -24 -14 -4 -45 -22 -70 -41 -25 -18 -58 -36 -72 -39
-20 -5 -35 0 -61 19 -19 15 -40 39 -46 54 -6 15 -15 45 -20 67 -5 22 -12 48
-16 57 -5 12 2 21 27 34 18 9 58 32 88 52 30 19 113 73 183 119 71 47 131 91
134 99 2 7 28 28 56 45 29 18 77 56 107 84 31 29 69 59 86 68 17 9 52 41 78
71 26 31 53 56 60 56 7 0 40 28 74 63 34 34 73 78 87 97 14 20 34 62 46 95 11
32 30 77 41 99 11 23 38 58 59 79 21 20 43 46 49 56 5 11 10 55 10 98 0 76 -1
80 -30 101 -18 14 -43 22 -67 22 -22 -1 -60 -13 -91 -29z m-403 -564 c46 -12
89 -30 95 -39 7 -12 6 -24 -2 -42 -6 -15 -22 -30 -34 -35 -13 -5 -37 -24 -54
-42 -17 -19 -54 -54 -83 -79 -29 -25 -79 -63 -111 -85 -31 -22 -85 -64 -119
-92 -34 -29 -67 -53 -72 -53 -5 0 -33 -15 -62 -33 -29 -18 -66 -39 -84 -46
-18 -7 -38 -19 -44 -27 -6 -8 -27 -14 -45 -14 -27 0 -36 5 -43 23 -5 13 -6 36
-3 53 3 16 24 56 46 89 23 33 64 83 92 110 28 28 66 73 85 100 18 28 54 69 79
92 25 23 71 64 103 92 33 27 71 52 85 54 15 3 41 3 57 1 17 -2 68 -14 114 -27z"/>
<path d="M34909 6262 c-19 -17 -29 -34 -25 -40 5 -9 18 -4 42 14 19 15 34 33
34 40 0 8 -4 14 -10 14 -5 0 -24 -13 -41 -28z"/>
<path d="M39312 5678 c-6 -7 -16 -34 -22 -60 -7 -26 -19 -53 -29 -61 -9 -7
-41 -24 -71 -36 -31 -12 -73 -38 -95 -57 -22 -20 -76 -66 -120 -103 -44 -36
-100 -80 -124 -96 -24 -16 -53 -42 -64 -57 -12 -16 -25 -28 -30 -28 -4 0 -24
-12 -43 -26 -19 -15 -34 -33 -34 -41 0 -7 -15 -22 -32 -33 -18 -11 -45 -35
-60 -53 -20 -26 -37 -36 -66 -39 -26 -4 -60 -21 -97 -49 -32 -24 -70 -53 -84
-64 -15 -11 -43 -36 -62 -55 -19 -19 -42 -47 -51 -62 -10 -14 -30 -29 -45 -32
-16 -4 -45 -22 -66 -41 -21 -19 -40 -35 -43 -35 -3 0 -36 -19 -72 -43 -37 -24
-80 -57 -97 -73 -16 -17 -57 -48 -90 -69 -33 -22 -78 -56 -100 -76 -22 -21
-74 -68 -116 -106 -41 -37 -110 -95 -153 -128 -43 -33 -92 -70 -110 -81 -17
-12 -58 -54 -91 -94 -33 -40 -76 -91 -96 -113 -33 -37 -41 -41 -89 -42 -42 -1
-56 -6 -71 -24 -11 -13 -19 -29 -19 -36 0 -6 -13 -30 -29 -51 -21 -30 -41 -44
-84 -59 -49 -16 -75 -38 -209 -169 -134 -133 -163 -166 -231 -276 -43 -69 -92
-146 -110 -172 -18 -26 -45 -68 -62 -94 -16 -26 -44 -70 -62 -98 -17 -28 -71
-94 -120 -146 -48 -53 -111 -117 -139 -142 -28 -26 -63 -71 -78 -100 -15 -29
-36 -68 -46 -86 -10 -18 -25 -41 -34 -51 -9 -10 -16 -21 -16 -25 0 -4 -16 -28
-35 -54 -33 -43 -35 -50 -30 -97 3 -27 2 -55 -2 -61 -4 -6 -21 -18 -38 -26
-16 -8 -64 -23 -105 -33 -41 -9 -106 -30 -145 -45 -38 -15 -95 -34 -125 -43
-30 -9 -82 -18 -115 -20 -36 -2 -78 -12 -105 -26 -29 -15 -76 -26 -135 -32
-49 -5 -97 -10 -105 -11 -8 -1 -48 4 -88 11 -57 10 -72 16 -70 29 2 8 22 25
45 37 23 11 55 39 71 60 16 22 58 67 93 100 36 33 98 87 139 119 41 33 98 86
125 118 28 33 62 72 77 87 15 15 40 57 56 93 17 35 42 81 56 103 14 21 26 42
26 46 0 5 -7 9 -17 9 -9 0 -36 -15 -61 -32 -25 -18 -59 -48 -77 -65 -17 -18
-38 -33 -46 -33 -8 0 -23 6 -32 13 -15 11 -15 17 -3 57 7 25 16 96 19 159 6
98 4 117 -10 133 -9 10 -26 18 -39 18 -12 0 -48 -10 -81 -22 -32 -12 -68 -30
-80 -41 -13 -11 -23 -27 -23 -34 0 -8 -10 -24 -22 -37 -13 -12 -49 -53 -82
-90 -32 -37 -76 -76 -98 -87 -21 -11 -56 -37 -76 -58 -20 -22 -47 -51 -59 -66
-13 -15 -37 -64 -54 -108 -17 -45 -48 -115 -69 -157 -24 -48 -41 -97 -45 -135
-4 -33 -14 -73 -22 -90 -9 -16 -22 -38 -31 -48 -8 -9 -38 -24 -66 -32 -27 -8
-62 -26 -76 -40 -14 -14 -80 -52 -145 -86 -66 -33 -127 -67 -136 -75 -8 -8
-20 -14 -26 -14 -6 0 -16 -6 -22 -14 -7 -8 -33 -16 -59 -19 -26 -2 -81 -14
-122 -26 -41 -12 -110 -26 -152 -31 -43 -5 -82 -12 -88 -15 -6 -4 -59 -1 -118
5 -59 7 -125 21 -147 31 -22 10 -53 30 -70 43 -25 20 -30 31 -29 65 1 25 15
70 37 114 19 39 45 96 58 125 13 29 44 75 70 101 25 26 79 67 119 92 40 24 84
52 99 61 14 9 86 47 159 84 73 37 135 70 137 74 3 4 -1 12 -8 17 -6 6 -24 13
-39 17 -18 4 -28 13 -28 25 0 11 13 27 28 38 16 10 53 45 82 78 30 33 66 67
80 76 15 9 39 37 53 62 16 26 27 61 27 81 0 30 -4 37 -25 42 -14 4 -50 4 -79
2 -38 -3 -69 -14 -107 -38 -30 -18 -78 -49 -108 -69 -29 -20 -62 -41 -73 -48
-11 -6 -39 -31 -62 -55 -23 -23 -80 -70 -126 -103 -47 -33 -105 -77 -130 -98
-25 -20 -52 -43 -60 -51 -8 -7 -57 -37 -108 -65 -50 -28 -96 -51 -101 -51 -5
0 -14 -6 -20 -14 -7 -8 -32 -24 -58 -36 -25 -11 -68 -44 -95 -71 -37 -37 -65
-55 -102 -65 -28 -9 -55 -17 -61 -20 -5 -2 -28 -16 -50 -30 -22 -13 -67 -38
-100 -54 -33 -16 -69 -41 -79 -56 l-19 -27 59 7 c34 4 79 18 109 34 27 16 100
50 160 76 61 27 125 54 143 62 29 13 34 12 52 -6 11 -11 20 -24 20 -30 0 -5
-7 -28 -16 -50 -14 -36 -15 -53 -4 -138 7 -53 17 -108 23 -121 7 -13 28 -34
49 -47 20 -13 51 -41 68 -63 23 -28 49 -46 91 -61 54 -20 76 -22 249 -22 151
1 198 4 228 17 20 9 51 23 67 32 17 8 80 26 141 38 105 21 115 25 155 64 25
24 85 61 139 88 52 25 105 50 116 55 15 7 28 6 43 -1 11 -6 25 -20 31 -31 5
-10 10 -30 10 -43 0 -16 16 -39 46 -67 l46 -43 62 7 c33 4 102 10 151 15 50 5
124 17 165 26 41 10 98 23 125 30 28 7 100 31 160 52 61 22 126 48 145 59 19
10 51 24 70 31 19 7 49 13 66 13 16 0 35 -5 42 -12 7 -7 12 -22 12 -35 0 -12
-8 -26 -17 -31 -9 -5 -30 -32 -47 -59 -17 -28 -44 -70 -60 -94 -16 -24 -53
-69 -82 -99 -29 -30 -66 -73 -82 -95 -16 -22 -36 -46 -45 -54 -9 -7 -17 -23
-17 -36 0 -12 -21 -49 -47 -81 -27 -33 -66 -86 -88 -117 -22 -32 -79 -104
-126 -160 -47 -57 -99 -111 -115 -122 -16 -10 -66 -54 -111 -98 -63 -61 -83
-87 -83 -107 0 -15 10 -36 23 -48 21 -20 34 -22 150 -22 89 0 138 4 162 14 19
8 52 32 72 52 21 20 57 49 80 64 22 14 66 52 97 83 30 31 59 57 64 57 4 0 19
15 33 33 13 17 35 49 49 69 14 20 41 47 60 60 19 13 51 46 70 73 19 26 60 76
92 110 31 35 63 76 71 91 8 16 20 49 27 74 7 25 22 58 34 75 11 16 29 43 38
60 9 16 31 59 48 95 18 36 37 75 43 88 6 12 31 46 55 75 25 28 73 95 108 147
35 52 74 109 87 125 12 17 43 59 69 95 26 36 56 74 68 85 12 11 32 42 46 70
13 27 47 80 75 118 28 37 57 67 64 67 7 0 27 11 44 25 16 14 52 32 79 40 36
11 63 29 98 66 27 28 60 57 74 64 14 8 40 27 58 43 18 15 72 48 120 72 48 23
92 49 98 56 6 7 53 42 105 76 52 35 102 66 112 70 10 4 55 38 100 75 45 38 97
84 117 103 19 19 53 48 75 64 22 17 75 63 118 105 42 41 87 94 98 118 12 24
19 46 16 49 -2 2 -24 2 -48 -2 -33 -6 -52 -17 -79 -47 -19 -21 -47 -44 -61
-50 -15 -7 -73 -56 -130 -109 -57 -54 -122 -111 -144 -127 -22 -17 -44 -31
-49 -31 -5 0 -32 -22 -60 -50 -28 -27 -78 -76 -111 -107 -46 -44 -77 -64 -127
-81 -55 -19 -77 -34 -120 -82 -51 -55 -56 -58 -115 -65 -34 -4 -67 -4 -72 -1
-7 5 -4 20 6 44 10 20 29 51 43 67 15 17 41 50 58 74 18 25 32 51 32 58 0 7
13 22 29 34 16 12 64 71 106 133 42 61 98 142 125 180 27 38 60 81 73 95 13
14 33 40 43 56 11 17 82 95 159 174 77 80 182 185 233 235 52 50 225 221 385
379 161 159 311 304 334 323 23 19 46 34 52 34 6 0 25 13 44 29 18 16 42 46
52 65 11 20 24 36 30 36 5 0 45 22 87 50 42 27 79 54 83 60 3 6 21 16 38 24
18 7 43 25 57 39 14 15 32 34 40 43 8 8 41 31 74 50 38 22 71 34 96 34 20 0
51 -5 68 -11 25 -8 33 -18 38 -45 3 -19 10 -37 15 -40 5 -3 9 -18 9 -33 0 -15
-4 -31 -9 -36 -5 -6 -16 -35 -26 -65 -10 -30 -28 -66 -40 -80 -12 -14 -26 -38
-29 -54 -5 -19 -3 -32 6 -37 7 -5 21 -9 31 -9 9 0 38 19 64 43 25 23 63 65 84
93 21 28 44 66 52 85 8 19 46 67 85 107 40 40 72 77 72 82 0 6 23 41 52 78 28
37 59 72 68 78 8 7 26 34 40 60 13 27 32 72 42 99 9 28 17 74 18 103 0 29 -5
63 -11 75 -7 11 -11 47 -11 79 0 32 -3 58 -8 58 -4 0 -15 2 -23 5 -7 3 -19 0
-25 -7z"/>
<path d="M34354 5655 c-14 -14 -22 -30 -19 -35 3 -6 17 -10 30 -10 14 0 29 9
35 21 7 11 9 27 6 35 -3 8 -10 14 -16 14 -6 0 -22 -11 -36 -25z"/>
<path d="M34183 5497 c-17 -5 -43 -21 -57 -36 -14 -15 -29 -41 -32 -59 -6 -29
-4 -32 18 -32 14 0 46 14 71 31 26 17 48 38 48 47 1 10 0 24 -1 32 -1 8 -5 18
-8 21 -4 3 -21 2 -39 -4z"/>
<path d="M33589 4931 c-24 -28 -81 -88 -126 -136 -46 -47 -83 -91 -83 -98 0
-7 -9 -18 -20 -25 -11 -7 -20 -19 -20 -26 0 -8 5 -18 10 -21 6 -4 26 6 46 22
19 15 49 42 67 58 18 17 50 57 72 90 21 33 55 74 74 90 19 17 45 40 58 52 13
12 23 27 23 33 0 5 -13 10 -29 10 -21 0 -39 -12 -72 -49z"/>
<path d="M5086 4941 c-27 -16 -85 -39 -129 -52 -44 -12 -114 -42 -156 -66 -42
-23 -94 -53 -115 -65 -21 -13 -48 -33 -60 -44 -12 -12 -30 -32 -42 -45 -11
-13 -51 -51 -89 -84 -37 -33 -104 -98 -149 -144 -44 -47 -99 -101 -120 -120
-21 -20 -68 -67 -104 -104 -41 -42 -91 -81 -131 -102 -37 -19 -91 -59 -121
-87 -30 -29 -67 -71 -81 -93 -15 -22 -33 -52 -40 -66 -8 -15 -23 -42 -33 -60
-10 -19 -39 -64 -62 -100 -24 -36 -44 -73 -44 -81 0 -9 -20 -40 -45 -71 -25
-30 -68 -98 -95 -151 -28 -54 -50 -108 -50 -120 0 -13 -7 -29 -16 -37 -9 -7
-30 -39 -47 -72 -18 -32 -49 -91 -69 -131 -21 -39 -38 -77 -38 -84 0 -7 -11
-35 -25 -62 -13 -26 -29 -70 -35 -96 -6 -26 -20 -58 -30 -72 -11 -13 -20 -29
-20 -33 0 -5 -20 -51 -43 -101 -24 -51 -57 -121 -72 -156 -17 -37 -42 -73 -62
-87 -17 -14 -40 -39 -50 -55 -10 -18 -26 -30 -38 -30 -12 0 -41 -14 -66 -30
-24 -17 -58 -40 -74 -53 -17 -12 -42 -32 -55 -45 -14 -13 -38 -30 -55 -38 -16
-8 -43 -23 -60 -34 -16 -11 -59 -33 -95 -50 -35 -17 -72 -38 -82 -47 -10 -9
-68 -42 -130 -73 -62 -31 -147 -75 -188 -96 -42 -22 -90 -49 -107 -62 -17 -12
-35 -22 -40 -22 -4 0 -24 -11 -44 -24 -20 -14 -76 -41 -125 -61 -49 -20 -124
-49 -167 -65 -49 -18 -88 -39 -106 -59 -16 -17 -37 -31 -46 -31 -9 0 -25 11
-36 23 -10 13 -39 32 -65 42 -45 17 -47 17 -72 -2 -17 -13 -29 -36 -37 -69 -6
-28 -25 -68 -41 -90 -16 -21 -40 -49 -54 -61 -14 -12 -38 -23 -55 -23 -16 0
-50 -9 -74 -20 -24 -11 -55 -20 -70 -20 -15 0 -35 -6 -46 -14 -11 -7 -60 -25
-110 -39 -49 -14 -120 -31 -156 -38 -56 -10 -77 -9 -144 6 -42 9 -98 28 -123
41 -25 13 -61 43 -81 66 -29 34 -37 52 -40 93 -1 27 -3 86 -4 130 0 57 4 89
16 112 10 18 21 33 25 33 5 0 16 15 24 34 9 19 37 57 62 85 25 29 47 62 47 74
1 12 3 29 4 37 1 8 3 22 4 32 0 9 23 30 50 46 26 17 64 49 82 73 19 23 54 61
78 83 25 23 73 69 108 103 34 35 66 75 69 89 4 15 3 39 -2 53 -8 22 -16 26
-54 29 -45 3 -45 3 -153 -105 -59 -59 -163 -165 -232 -234 -68 -70 -130 -142
-138 -160 -8 -19 -38 -65 -66 -104 -29 -38 -62 -88 -73 -110 -15 -27 -22 -67
-26 -128 -3 -48 1 -136 8 -195 8 -69 21 -125 36 -159 13 -29 36 -60 50 -70 14
-10 40 -31 57 -46 18 -15 41 -30 52 -33 11 -2 41 -8 67 -13 26 -4 60 -6 75 -4
16 3 37 8 48 12 11 5 36 14 55 21 19 7 64 16 100 20 36 3 74 11 85 17 11 6 49
19 83 28 35 9 87 26 115 39 29 13 67 29 85 36 24 9 36 10 44 2 8 -8 8 -18 1
-34 -6 -13 -50 -65 -97 -116 -59 -63 -86 -100 -86 -116 0 -14 7 -32 16 -40 8
-9 23 -16 33 -16 9 0 32 -15 50 -34 19 -19 47 -40 63 -47 23 -9 34 -9 54 1 13
8 36 29 50 47 14 19 29 56 34 86 5 33 21 72 40 101 18 26 41 70 51 97 11 27
19 61 19 75 0 14 -5 34 -10 44 -8 14 -5 28 12 57 12 21 29 43 38 50 8 6 58 21
110 33 53 12 122 36 155 54 33 18 76 36 96 40 21 3 53 17 72 30 19 13 46 27
58 31 13 5 51 21 84 37 33 16 71 36 85 44 14 8 40 22 58 30 19 8 73 33 120 55
48 23 101 52 119 65 17 13 36 24 41 24 5 0 33 16 61 35 27 19 89 53 136 76 47
22 100 53 118 67 18 15 57 41 87 57 30 15 69 39 86 52 17 13 36 23 42 23 7 0
12 -5 12 -10 0 -6 -25 -61 -55 -123 -30 -62 -65 -128 -77 -148 -13 -19 -38
-58 -55 -85 -18 -27 -33 -54 -33 -60 0 -6 -11 -21 -25 -34 -14 -13 -25 -29
-25 -35 0 -6 -22 -49 -50 -94 -27 -45 -50 -86 -50 -90 0 -5 -9 -19 -20 -33
-10 -14 -26 -45 -35 -69 -9 -24 -20 -56 -25 -71 -4 -15 -24 -51 -43 -80 -18
-29 -43 -69 -54 -88 -11 -20 -42 -60 -69 -89 -27 -29 -80 -85 -117 -124 -37
-39 -76 -89 -86 -112 -10 -22 -25 -46 -34 -54 -10 -7 -17 -19 -17 -26 0 -7
-15 -25 -32 -40 -18 -15 -73 -65 -123 -112 -49 -46 -117 -110 -150 -142 -33
-31 -78 -65 -100 -73 -22 -9 -58 -21 -81 -28 -32 -9 -54 -9 -100 0 -32 6 -77
22 -99 35 -22 13 -59 42 -83 64 -31 30 -42 48 -42 70 0 17 -11 42 -25 59 -13
16 -38 35 -55 42 -27 11 -34 11 -47 -3 -9 -8 -19 -39 -24 -67 -7 -44 -4 -62
15 -110 13 -31 44 -83 68 -114 25 -31 68 -73 96 -92 28 -18 54 -34 57 -34 4 0
33 -21 66 -46 l59 -45 97 7 c73 5 115 14 168 36 38 16 84 42 100 58 17 16 50
36 75 46 25 10 58 28 74 41 16 14 54 55 84 91 30 37 66 84 79 105 13 21 53 69
87 105 35 37 82 89 105 115 23 27 48 61 56 77 8 15 17 47 21 71 3 24 17 62 30
84 14 22 40 60 59 85 20 25 43 58 53 73 9 16 34 51 54 77 21 26 38 52 38 57 0
5 21 31 48 56 26 26 59 62 73 80 14 17 32 43 39 57 7 14 30 45 50 70 21 25 53
74 71 108 18 35 47 76 64 90 17 15 49 59 70 97 21 39 69 102 106 141 65 68 69
75 69 118 0 39 7 56 49 113 27 38 58 93 69 123 11 30 25 75 31 100 7 25 17 63
24 85 10 33 20 44 58 62 25 12 59 39 76 60 16 21 41 56 54 79 13 22 65 77 116
122 50 45 96 82 100 82 5 0 27 18 48 41 22 22 56 50 75 62 19 12 41 26 49 32
8 5 59 54 113 108 55 53 104 97 111 97 7 0 40 27 74 60 34 33 64 69 68 79 3
10 17 23 32 30 14 7 38 21 52 32 14 11 63 48 108 83 46 36 133 115 196 178 62
62 143 146 180 185 37 40 67 76 67 79 0 3 18 27 41 52 23 26 52 66 66 90 14
23 28 42 33 42 4 0 27 28 51 63 23 34 66 90 95 124 29 34 56 73 59 85 4 13 14
30 21 39 8 8 19 40 25 70 6 30 15 104 21 164 5 61 10 124 10 142 0 18 -13 60
-28 93 -15 33 -42 74 -61 90 -18 17 -41 30 -51 30 -9 0 -39 -13 -66 -29z m-63
-248 c6 -15 20 -36 30 -45 11 -12 17 -34 17 -63 0 -26 9 -63 19 -84 17 -32 18
-44 9 -75 -6 -20 -25 -53 -42 -74 -17 -20 -42 -57 -56 -82 -13 -25 -41 -69
-62 -99 -21 -30 -38 -60 -38 -67 0 -7 -47 -61 -105 -119 -58 -59 -105 -111
-105 -116 0 -5 -35 -46 -77 -91 -43 -45 -91 -93 -107 -107 -16 -14 -45 -42
-63 -61 -18 -19 -46 -48 -61 -63 -15 -16 -73 -71 -130 -123 -57 -52 -109 -94
-116 -94 -7 0 -23 -12 -37 -26 -13 -15 -38 -33 -55 -40 -18 -7 -45 -34 -63
-61 -18 -26 -41 -53 -52 -58 -11 -6 -48 -38 -82 -71 -34 -32 -137 -131 -230
-219 -92 -88 -167 -166 -167 -172 0 -7 -6 -13 -12 -13 -7 0 -26 -16 -41 -35
-15 -19 -32 -35 -37 -35 -6 0 -10 5 -10 11 0 6 6 25 14 42 8 18 17 48 20 68 4
25 19 47 45 71 33 29 41 45 55 108 9 40 25 85 35 99 10 14 26 43 35 65 9 21
16 47 16 58 0 11 10 43 21 71 12 29 35 79 50 111 16 33 29 66 29 75 0 9 6 25
13 36 8 11 17 35 20 53 4 19 16 45 26 58 11 14 27 49 37 77 9 29 23 59 30 68
8 8 14 23 14 33 0 9 5 27 11 39 7 12 33 49 60 82 26 33 55 77 65 98 11 24 34
47 62 63 25 15 79 57 121 95 42 38 82 74 89 81 7 7 51 52 97 100 46 47 101 98
123 112 22 14 85 70 139 124 54 55 120 115 146 136 37 28 58 36 90 37 23 0 71
10 107 23 36 13 71 24 78 25 7 0 18 -11 25 -26z"/>
<path d="M8167 4411 c-32 -16 -72 -42 -89 -57 -16 -16 -34 -39 -39 -51 -4 -12
-27 -32 -50 -44 -23 -11 -75 -51 -114 -88 -40 -36 -89 -77 -109 -91 -21 -14
-70 -52 -111 -85 -40 -33 -104 -82 -141 -110 -38 -27 -70 -53 -72 -57 -2 -4
-31 -30 -65 -57 -34 -27 -75 -60 -91 -73 -16 -13 -63 -55 -105 -94 -42 -40
-98 -90 -126 -112 -27 -22 -87 -77 -131 -123 -45 -46 -85 -91 -90 -101 -5 -9
-45 -46 -88 -82 -44 -36 -86 -66 -94 -66 -8 0 -45 -20 -81 -45 -36 -25 -84
-59 -106 -76 -22 -16 -56 -40 -75 -53 -20 -13 -49 -39 -66 -57 -16 -19 -63
-61 -104 -94 -41 -33 -94 -79 -119 -102 -26 -23 -68 -58 -96 -77 -27 -19 -85
-53 -129 -76 -43 -22 -85 -45 -93 -52 -9 -7 -23 -17 -33 -23 -10 -5 -34 -23
-54 -38 -19 -16 -74 -42 -122 -59 -48 -16 -108 -32 -133 -35 -44 -5 -47 -4
-78 35 -18 23 -33 45 -33 50 0 5 -8 16 -17 25 -10 8 -38 22 -63 31 -25 9 -57
16 -72 16 -15 0 -38 -5 -51 -11 -16 -7 -37 -38 -61 -90 -31 -66 -38 -93 -42
-166 -3 -48 -10 -102 -15 -120 -6 -17 -40 -62 -77 -99 -37 -37 -79 -74 -93
-83 -14 -9 -38 -31 -53 -49 -15 -17 -34 -32 -41 -32 -7 0 -33 -15 -58 -34 -24
-19 -54 -39 -66 -45 -11 -7 -43 -43 -70 -82 -27 -39 -52 -83 -56 -98 -3 -15
-29 -53 -58 -84 -29 -31 -70 -68 -91 -82 -21 -14 -59 -31 -84 -37 -26 -7 -58
-20 -71 -30 -13 -10 -31 -18 -40 -18 -9 0 -31 -9 -50 -21 -34 -20 -34 -20 -60
-1 -14 10 -31 29 -37 41 -8 15 -9 36 -2 64 5 23 18 60 30 82 11 22 45 73 75
113 30 41 61 76 69 79 7 3 26 30 41 61 15 32 55 93 89 137 34 44 110 128 168
187 58 59 118 114 133 122 16 8 50 37 76 65 26 29 70 86 97 128 28 41 50 83
50 93 0 10 -7 23 -15 30 -8 6 -23 9 -34 5 -11 -3 -62 -49 -113 -101 -51 -53
-114 -111 -141 -131 -26 -19 -82 -48 -125 -64 -42 -16 -93 -38 -112 -48 -19
-11 -64 -29 -100 -41 -36 -13 -110 -45 -165 -72 -55 -27 -105 -54 -112 -60 -7
-6 -13 -21 -13 -33 0 -13 7 -26 16 -29 9 -3 34 -6 57 -6 23 0 53 -6 67 -13 20
-10 24 -20 22 -43 -2 -16 -9 -33 -15 -39 -7 -5 -23 -26 -34 -45 -12 -19 -42
-54 -67 -77 -25 -24 -55 -61 -66 -82 -11 -22 -20 -46 -20 -52 0 -7 -20 -34
-45 -60 -25 -27 -54 -68 -64 -91 -10 -24 -21 -58 -24 -76 -4 -17 0 -71 9 -119
10 -57 22 -95 35 -109 11 -11 40 -25 65 -31 26 -6 61 -7 81 -3 19 5 45 17 56
28 12 11 45 30 72 42 28 13 79 37 115 55 36 17 90 45 120 60 30 16 76 43 103
61 26 18 56 36 67 39 11 4 20 11 20 16 0 5 7 9 16 9 8 0 29 15 45 33 17 17 44
55 60 82 16 28 29 57 29 65 0 8 23 44 50 79 27 35 63 72 80 82 17 11 33 26 37
34 3 9 22 22 41 31 20 8 43 21 51 28 9 8 46 44 84 80 37 36 67 70 67 76 0 6
21 24 47 40 26 17 53 30 61 30 7 0 28 11 46 25 26 20 54 28 121 36 48 6 106
17 128 25 22 8 51 14 66 14 14 0 37 6 51 14 14 7 55 30 93 50 37 20 76 36 87
36 14 0 20 -7 20 -22 0 -13 -9 -37 -19 -55 -11 -17 -30 -55 -43 -85 -12 -29
-36 -71 -53 -93 -17 -23 -38 -61 -46 -85 -9 -25 -30 -88 -47 -140 -17 -52 -36
-116 -42 -142 -7 -33 -7 -62 1 -97 8 -38 24 -65 69 -116 43 -49 77 -75 127
-100 41 -21 95 -38 135 -44 51 -7 81 -6 125 5 32 8 94 18 138 23 46 5 131 27
199 50 66 23 133 50 150 61 17 10 72 39 121 65 50 25 110 59 135 75 25 16 63
39 85 50 22 11 61 35 86 53 25 18 64 48 85 68 22 19 64 50 94 68 30 18 73 46
95 62 22 16 51 37 65 46 14 9 35 26 48 37 12 11 22 30 22 42 0 13 -9 28 -19
34 -11 5 -30 10 -44 10 -13 0 -60 -19 -104 -42 -45 -24 -103 -62 -130 -86 -26
-23 -53 -46 -58 -51 -6 -4 -35 -25 -65 -46 -30 -21 -61 -42 -68 -48 -7 -5 -43
-20 -80 -33 -37 -13 -77 -35 -88 -48 -12 -14 -48 -39 -80 -56 -34 -19 -97 -40
-149 -51 -62 -12 -118 -33 -179 -65 -65 -34 -105 -48 -145 -51 -50 -4 -61 -2
-101 26 -25 17 -53 31 -62 31 -10 0 -41 9 -69 21 -29 11 -66 32 -83 46 -17 14
-39 40 -48 57 -14 28 -15 39 -3 88 7 30 18 73 25 94 7 21 33 67 57 102 24 36
56 88 70 116 14 28 33 60 43 71 10 11 21 31 25 45 4 14 22 48 40 75 18 28 42
69 54 93 12 23 26 42 31 42 5 0 37 25 70 56 32 31 62 64 65 73 3 9 20 26 38
39 17 12 50 36 72 52 22 17 67 43 101 59 34 16 93 49 131 74 38 25 93 71 121
101 28 31 55 56 60 56 5 0 18 12 28 28 10 15 47 57 83 93 36 37 109 111 162
165 67 69 115 108 155 128 33 17 91 57 129 89 39 33 72 64 75 68 3 5 34 27 70
50 35 22 85 62 110 87 25 26 83 78 128 116 45 37 82 71 82 75 0 4 42 41 93 81
50 41 135 119 187 172 53 54 100 98 105 98 6 1 22 19 37 40 15 22 54 61 87 86
41 31 65 59 76 87 13 32 14 46 5 67 -8 19 -21 30 -42 34 -17 3 -36 6 -42 6 -6
-1 -37 -14 -69 -29z"/>
<path d="M24892 4344 c-47 -32 -53 -39 -50 -68 2 -23 9 -32 24 -34 12 -2 33 7
46 20 14 13 30 33 36 45 7 12 12 33 12 47 0 14 -3 26 -7 26 -5 0 -32 -17 -61
-36z"/>
<path d="M22470 4123 c-8 -3 -32 -21 -53 -39 -20 -19 -44 -34 -53 -34 -9 0
-45 -27 -81 -60 -35 -33 -79 -71 -97 -83 -19 -12 -58 -41 -87 -64 -30 -23 -68
-54 -86 -68 -17 -15 -48 -43 -70 -63 -21 -20 -57 -51 -81 -68 -23 -17 -68 -53
-99 -80 -31 -27 -81 -73 -111 -103 -34 -34 -50 -57 -44 -63 6 -6 25 -3 53 10
24 11 58 33 74 49 17 15 47 40 67 56 20 15 41 27 46 27 5 0 34 24 64 53 31 29
75 66 99 82 24 17 59 47 78 68 19 21 56 49 82 62 26 14 49 28 51 33 1 4 28 28
58 51 30 24 65 59 77 80 13 20 30 42 40 49 9 6 27 12 40 12 12 0 37 13 54 28
24 22 30 33 25 50 -4 12 -13 22 -19 21 -7 0 -19 -3 -27 -6z"/>
<path d="M38143 4090 c-18 -16 -33 -34 -33 -40 0 -5 6 -10 14 -10 8 0 30 10
50 23 19 12 35 30 36 40 0 10 -7 17 -17 17 -10 0 -33 -14 -50 -30z"/>
<path d="M37943 3877 c-17 -7 -35 -15 -38 -19 -4 -3 2 -11 13 -17 11 -6 27 -8
36 -5 8 3 22 17 31 30 11 18 12 24 3 23 -7 0 -27 -6 -45 -12z"/>
<path d="M22927 3652 c-9 -10 -17 -24 -17 -30 0 -6 10 -16 21 -23 17 -8 24 -8
34 3 8 7 15 24 17 38 2 19 -2 26 -18 28 -11 2 -28 -6 -37 -16z"/>
<path d="M25688 3244 c-29 -7 -92 -26 -140 -42 -48 -17 -98 -38 -110 -46 -12
-9 -33 -16 -45 -16 -13 0 -43 -9 -67 -21 -25 -11 -47 -27 -50 -35 -3 -8 -14
-14 -25 -14 -11 0 -23 -5 -27 -11 -3 -6 -1 -16 5 -22 8 -8 20 -7 44 5 17 9 47
20 65 23 18 4 45 13 60 21 15 8 33 14 41 14 8 0 34 -10 58 -22 39 -19 44 -26
40 -48 -3 -14 -13 -52 -22 -85 -9 -33 -28 -76 -43 -95 -14 -19 -36 -44 -50
-56 -13 -11 -46 -51 -73 -90 -26 -38 -67 -102 -91 -143 -24 -41 -59 -93 -79
-115 -20 -23 -47 -59 -61 -81 -14 -22 -61 -74 -104 -116 -44 -42 -108 -101
-143 -130 -55 -46 -67 -63 -85 -115 -12 -34 -26 -68 -32 -75 -6 -8 -23 -41
-38 -74 -15 -33 -48 -93 -73 -133 -39 -63 -45 -79 -39 -110 3 -20 16 -47 30
-60 18 -19 36 -25 68 -26 24 0 61 7 83 17 22 10 47 22 55 27 8 5 42 24 75 41
33 18 70 37 82 43 13 6 28 23 34 39 9 21 9 30 -1 42 -7 8 -18 15 -26 15 -7 0
-20 10 -28 22 -9 12 -16 34 -16 48 0 14 4 30 9 36 5 5 32 54 61 108 28 55 67
123 85 152 23 35 48 60 75 74 22 11 73 55 113 98 40 42 83 88 97 103 14 14 49
53 78 87 29 33 72 70 96 81 23 12 50 21 59 21 10 0 21 -11 26 -23 5 -13 24
-36 41 -50 17 -15 36 -27 42 -27 5 0 44 -14 86 -31 69 -28 84 -30 147 -25 39
3 109 16 158 28 77 19 92 26 125 62 25 26 57 47 89 59 28 9 57 17 65 17 7 0
38 16 68 36 29 19 70 43 89 53 20 10 77 40 126 66 50 26 97 54 106 61 8 8 22
14 30 14 8 0 34 14 57 31 23 17 42 37 42 44 0 8 -9 17 -20 20 -11 3 -30 3 -42
0 -13 -4 -54 -22 -93 -40 -38 -18 -86 -40 -105 -49 -19 -9 -49 -26 -67 -39
-17 -12 -62 -39 -100 -60 -37 -21 -101 -60 -140 -88 -40 -27 -73 -54 -73 -60
0 -5 -8 -9 -18 -9 -10 0 -28 -7 -40 -16 -12 -8 -46 -21 -74 -28 -29 -8 -77
-16 -106 -18 -47 -5 -58 -2 -85 21 -18 14 -37 33 -44 41 -7 8 -15 35 -19 59
-5 31 -2 53 10 77 9 19 16 47 16 62 0 15 6 44 13 64 7 20 21 45 30 55 10 12
13 23 7 32 -7 12 -15 12 -52 -2 -24 -9 -51 -17 -60 -17 -10 0 -29 5 -43 12
-14 6 -25 18 -25 26 0 9 8 24 17 34 14 16 17 40 18 133 0 97 -3 117 -18 132
-10 10 -31 18 -47 18 -16 0 -53 -5 -82 -11z"/>
<path d="M27215 3186 c-17 -18 -63 -60 -104 -94 -40 -34 -77 -62 -81 -62 -5 0
-18 -20 -30 -44 -12 -25 -27 -47 -33 -49 -7 -2 -9 -8 -4 -12 4 -5 26 2 50 15
23 13 66 46 96 74 30 28 72 69 93 91 22 22 48 49 58 61 11 12 20 29 20 38 0 9
-8 16 -17 16 -10 0 -32 -15 -48 -34z"/>
<path d="M19945 3053 c-11 -2 -51 -15 -90 -28 -38 -13 -106 -27 -150 -30 -44
-4 -91 -12 -105 -17 -14 -6 -63 -20 -110 -32 -47 -13 -95 -28 -107 -34 -12 -7
-29 -12 -38 -12 -10 0 -74 -31 -143 -68 -70 -38 -154 -79 -187 -92 -33 -13
-82 -40 -110 -60 -27 -20 -63 -42 -80 -49 -16 -6 -41 -27 -54 -47 -24 -35 -24
-35 -5 -54 10 -10 33 -21 49 -24 26 -6 44 2 115 49 47 30 96 58 110 62 14 3
34 13 45 23 11 9 72 42 135 73 63 31 156 69 205 85 50 17 137 40 195 52 58 12
128 28 156 36 29 8 85 20 126 28 41 8 90 21 109 29 19 8 49 26 67 41 17 15 32
34 32 41 0 7 -23 17 -57 24 -31 6 -63 10 -72 10 -9 -1 -25 -3 -36 -6z"/>
<path d="M23727 2990 c-20 -11 -43 -20 -49 -21 -7 0 -47 -18 -88 -39 -41 -22
-97 -51 -125 -65 -27 -14 -59 -31 -70 -38 -11 -7 -48 -31 -82 -53 -33 -23 -76
-46 -95 -53 -18 -7 -44 -18 -58 -24 -14 -7 -61 -35 -105 -63 -44 -28 -107 -66
-140 -84 -33 -19 -94 -51 -135 -71 -41 -21 -83 -38 -92 -39 -9 0 -19 -4 -23
-9 -3 -6 -30 -21 -60 -35 -29 -14 -58 -26 -64 -26 -6 0 -32 -7 -58 -16 -26 -9
-65 -32 -87 -50 -22 -19 -47 -34 -55 -34 -9 0 -25 -7 -35 -15 -11 -8 -28 -15
-38 -15 -10 0 -49 14 -86 31 -53 24 -76 29 -109 25 -24 -3 -66 -17 -94 -32
-29 -14 -67 -40 -85 -58 -19 -18 -34 -42 -34 -53 0 -10 6 -27 13 -36 7 -10 47
-26 91 -37 43 -11 104 -20 134 -20 31 0 77 8 102 17 25 9 64 30 88 47 23 16
42 33 42 37 0 4 33 28 74 53 48 29 95 49 132 55 32 6 70 11 86 11 20 0 28 -5
28 -17 0 -10 -27 -46 -60 -80 -32 -34 -65 -74 -74 -91 -8 -16 -37 -62 -64
-103 -27 -41 -62 -99 -77 -129 -20 -39 -26 -63 -22 -90 2 -20 16 -55 31 -78
14 -23 26 -53 26 -68 0 -14 10 -40 22 -56 11 -17 41 -39 65 -50 33 -15 75 -21
161 -24 65 -3 133 -9 152 -14 19 -6 47 -10 61 -10 14 0 48 11 74 25 27 13 74
30 105 36 38 7 65 20 87 41 18 17 35 44 38 60 4 15 11 28 16 28 5 0 30 16 56
35 27 19 76 56 111 82 35 27 62 55 62 65 0 12 -8 18 -24 18 -15 0 -57 -29
-119 -83 -52 -46 -108 -89 -124 -94 -15 -6 -53 -19 -83 -29 -44 -14 -92 -17
-235 -17 -176 0 -181 0 -221 25 -30 19 -45 39 -59 74 -17 46 -17 49 1 103 10
30 34 74 54 97 19 24 43 54 53 69 11 14 51 51 90 81 40 30 106 84 147 120 41
35 98 78 125 94 28 16 79 52 115 80 36 28 97 77 135 109 39 32 98 72 132 90
34 17 76 31 93 31 16 0 51 5 77 11 27 6 65 16 86 22 22 6 47 23 62 43 13 18
40 42 59 53 19 12 45 38 58 58 13 20 31 49 41 65 19 28 19 29 -3 71 -12 23
-29 50 -38 60 -8 9 -29 17 -46 17 -17 0 -48 -9 -69 -20z"/>
<path d="M15242 2969 c-12 -5 -46 -32 -73 -61 -28 -29 -56 -64 -61 -78 -5 -14
-6 -55 -3 -93 6 -53 4 -72 -9 -92 -12 -19 -26 -25 -63 -27 -47 -3 -48 -4 -72
-53 -21 -46 -23 -55 -13 -105 7 -32 8 -69 3 -90 -4 -20 -13 -45 -20 -57 -6
-12 -20 -28 -30 -35 -10 -7 -36 -40 -58 -73 -21 -33 -51 -86 -67 -117 -15 -31
-34 -62 -42 -69 -8 -6 -14 -16 -14 -22 0 -5 -21 -35 -47 -66 -27 -30 -66 -73
-88 -94 -22 -22 -59 -53 -82 -69 -24 -16 -50 -42 -58 -58 -8 -16 -15 -40 -15
-53 0 -14 7 -30 16 -38 12 -10 24 -10 52 -2 20 6 69 23 107 37 43 16 79 36 93
53 13 16 37 42 54 60 20 20 48 36 80 43 37 9 56 21 80 51 17 21 36 39 42 39 6
0 43 21 81 46 39 26 91 66 116 89 25 23 56 48 70 55 13 7 41 27 61 43 21 17
41 39 44 51 4 12 22 40 40 63 19 22 38 53 44 67 6 18 6 26 -1 26 -5 0 -23 -7
-40 -15 -16 -9 -48 -37 -71 -63 -23 -26 -64 -68 -90 -94 -34 -35 -56 -48 -76
-48 -15 0 -33 5 -40 12 -7 7 -12 25 -12 40 0 15 8 50 19 77 10 27 45 80 76
118 32 37 66 86 76 108 10 22 19 58 19 80 0 22 7 71 15 110 8 38 15 95 15 126
0 31 5 71 11 88 8 24 8 39 1 56 -6 13 -19 28 -29 33 -11 6 -27 6 -41 1z"/>
<path d="M24990 2920 c-36 -26 -96 -72 -134 -102 -38 -29 -87 -71 -110 -93
-22 -22 -59 -62 -81 -90 -22 -27 -48 -57 -57 -66 -9 -10 -24 -32 -33 -49 -9
-17 -26 -35 -38 -40 -12 -5 -57 -16 -100 -25 -43 -8 -82 -13 -86 -11 -4 3 -24
0 -44 -6 -29 -9 -42 -8 -62 2 -17 9 -49 11 -109 8 -65 -4 -88 -3 -97 8 -6 7
-11 40 -10 72 0 44 7 71 26 103 13 24 25 56 25 72 0 15 -9 36 -21 48 -17 17
-28 20 -56 14 -19 -3 -58 -18 -87 -33 -28 -15 -72 -43 -98 -62 -25 -19 -56
-51 -67 -71 -15 -27 -21 -54 -21 -100 0 -54 3 -66 27 -89 15 -15 32 -42 38
-60 6 -19 28 -45 51 -61 32 -24 56 -30 134 -39 52 -6 166 -13 253 -15 86 -2
162 -7 167 -10 6 -3 10 -13 10 -22 0 -9 -7 -24 -16 -34 -9 -10 -14 -25 -11
-34 4 -8 11 -15 16 -15 5 0 36 23 68 51 32 28 66 65 75 83 9 18 32 40 50 49
19 9 51 34 72 57 20 22 55 48 76 56 21 9 41 22 44 30 3 8 13 14 21 14 9 0 33
12 53 27 20 15 45 36 54 47 10 12 18 29 18 39 0 11 -8 17 -24 17 -13 0 -40 -7
-59 -15 -20 -8 -48 -15 -62 -15 -16 0 -25 6 -25 16 0 8 33 50 73 92 39 42 98
102 130 134 32 32 79 74 103 94 24 20 44 45 44 55 0 14 -7 19 -27 19 -17 -1
-53 -20 -93 -50z"/>
<path d="M12068 2883 c-18 -21 -46 -51 -63 -67 -16 -16 -41 -34 -55 -40 -14
-6 -50 -29 -80 -50 -30 -22 -80 -73 -110 -114 -30 -41 -65 -81 -77 -89 -13 -9
-23 -21 -23 -29 0 -7 -39 -55 -87 -106 -49 -50 -96 -100 -105 -110 -11 -11
-33 -18 -55 -18 -21 0 -48 -3 -60 -6 -21 -6 -23 -3 -23 35 0 23 9 73 20 112
11 39 22 104 26 143 5 60 4 75 -11 89 -9 9 -31 17 -48 17 -18 0 -45 -7 -62
-16 -16 -9 -43 -23 -60 -31 -16 -8 -39 -19 -50 -26 -11 -6 -33 -18 -50 -27
-16 -8 -67 -43 -112 -78 -45 -34 -85 -67 -88 -72 -3 -6 -14 -10 -24 -10 -10 0
-24 -6 -30 -13 -6 -8 -31 -24 -55 -36 -24 -13 -64 -42 -87 -66 -24 -24 -62
-67 -84 -95 -22 -28 -59 -70 -82 -92 -24 -23 -43 -45 -43 -50 0 -6 -29 -48
-65 -95 -35 -47 -88 -105 -116 -130 -28 -24 -89 -61 -135 -83 -73 -35 -91 -40
-156 -40 -40 0 -83 -3 -95 -6 -13 -4 -32 -22 -44 -41 -15 -23 -19 -43 -15 -63
3 -16 17 -47 31 -70 14 -22 25 -45 25 -52 0 -7 9 -32 20 -55 12 -27 26 -43 37
-43 9 0 29 12 43 26 14 14 70 62 125 106 79 64 112 99 157 167 32 47 69 101
83 120 14 19 25 40 25 46 0 7 19 30 43 51 23 21 49 49 58 63 9 15 72 83 140
152 68 69 163 158 210 197 48 40 103 79 122 87 20 8 58 15 85 15 35 0 54 -5
65 -18 10 -10 24 -40 33 -66 10 -28 14 -62 11 -83 -3 -19 -21 -58 -39 -85 -17
-28 -39 -63 -47 -79 -9 -15 -41 -65 -72 -111 -31 -46 -76 -116 -100 -156 -24
-41 -55 -93 -69 -117 -14 -24 -35 -61 -46 -82 -12 -21 -45 -62 -73 -91 -28
-29 -51 -59 -51 -65 0 -7 -13 -44 -30 -82 -16 -39 -30 -82 -30 -96 0 -16 7
-29 17 -33 9 -4 40 0 68 9 38 11 62 26 86 54 19 21 50 61 69 89 19 28 49 74
65 102 17 28 54 88 82 133 29 45 70 101 90 126 21 24 64 73 96 109 32 36 67
82 77 103 11 20 30 46 44 56 13 11 32 33 43 49 10 17 56 66 103 109 47 43 103
97 125 120 22 23 58 54 80 68 22 14 76 57 119 95 43 39 94 79 113 89 26 14 37
15 51 7 9 -7 16 -20 14 -30 -2 -11 -12 -38 -24 -61 -11 -24 -28 -76 -38 -116
-9 -41 -25 -85 -34 -99 -9 -13 -27 -57 -41 -96 -14 -39 -25 -83 -25 -98 0 -14
-12 -60 -26 -102 -14 -42 -39 -99 -54 -127 -15 -27 -40 -81 -54 -120 -15 -38
-41 -103 -57 -143 -23 -56 -27 -76 -19 -92 5 -10 20 -26 32 -34 12 -9 32 -16
44 -16 12 0 32 9 46 19 13 11 45 55 71 99 26 44 67 126 92 182 25 57 51 110
58 118 6 8 23 41 37 74 19 44 37 67 75 96 27 21 63 57 80 81 16 24 50 62 74
85 24 23 77 75 118 116 41 41 86 94 100 118 20 34 31 42 53 42 24 0 30 -5 35
-31 5 -24 2 -38 -14 -58 -12 -14 -33 -44 -48 -66 -14 -22 -44 -74 -66 -115
-22 -41 -56 -91 -75 -110 -19 -19 -38 -45 -43 -58 -5 -13 -9 -38 -9 -55 0 -18
3 -42 6 -55 4 -15 24 -31 61 -47 29 -14 59 -25 66 -25 7 -1 30 -8 52 -16 25
-9 104 -18 215 -24 157 -8 182 -12 240 -36 36 -15 74 -37 86 -48 12 -12 31
-49 44 -84 14 -38 34 -72 53 -88 16 -14 46 -33 66 -43 20 -10 68 -21 108 -25
42 -3 93 -1 120 5 26 6 71 17 98 24 28 8 62 16 76 19 14 3 57 24 95 46 38 23
76 45 84 49 8 5 32 16 53 26 21 10 79 59 130 109 51 50 107 111 124 136 17 25
44 69 62 98 17 29 31 56 31 61 0 4 10 21 22 36 12 16 29 41 38 56 8 15 27 45
42 67 19 28 37 42 60 47 18 4 48 20 66 36 18 16 42 31 55 33 12 3 43 7 70 10
26 3 61 13 78 21 17 9 78 30 135 46 58 17 121 39 140 51 19 11 34 24 34 29 0
5 -17 17 -37 26 -21 10 -39 26 -41 35 -2 11 15 28 50 51 29 19 65 47 80 61 15
14 30 26 34 26 3 0 20 6 37 14 18 8 40 16 50 20 9 3 17 15 17 26 0 15 -7 20
-29 20 -15 0 -53 -10 -82 -22 -30 -12 -71 -33 -91 -46 -21 -14 -38 -28 -38
-33 0 -4 -29 -24 -64 -44 -35 -20 -70 -43 -77 -51 -7 -9 -34 -26 -61 -40 -26
-13 -59 -24 -72 -24 -14 0 -35 5 -48 11 -13 5 -31 24 -41 40 -9 17 -17 43 -17
59 0 15 18 67 40 115 22 48 40 97 40 108 0 12 -3 32 -6 44 -4 15 -18 26 -42
33 -33 9 -48 5 -152 -40 -63 -27 -128 -52 -145 -56 -16 -3 -85 -24 -152 -46
-116 -39 -123 -43 -139 -77 -9 -20 -24 -44 -33 -55 -9 -10 -36 -29 -61 -42
-25 -13 -59 -32 -76 -42 -17 -10 -44 -28 -60 -41 -16 -12 -56 -43 -89 -68 -33
-25 -76 -54 -95 -64 -19 -11 -51 -31 -70 -45 -19 -14 -69 -57 -110 -96 -41
-39 -83 -84 -92 -100 -10 -15 -46 -55 -80 -88 -46 -44 -72 -61 -101 -65 -23
-4 -65 0 -110 10 -40 10 -77 22 -83 27 -6 4 -34 15 -62 23 -27 8 -63 22 -79
30 -15 8 -36 15 -47 15 -15 0 -17 5 -13 28 4 15 11 50 16 77 6 28 13 84 16
125 3 41 10 109 17 150 6 41 26 121 45 178 20 59 32 111 28 122 -5 15 -15 20
-40 20 -28 0 -41 -9 -84 -57 -27 -32 -74 -88 -104 -124 -30 -36 -62 -79 -70
-95 -8 -16 -33 -40 -55 -54 -22 -14 -47 -38 -56 -53 -8 -15 -31 -34 -50 -42
-20 -8 -45 -15 -56 -15 -12 0 -34 -7 -51 -15 -26 -14 -30 -14 -35 0 -4 8 1 34
11 57 13 34 18 88 22 263 3 127 10 225 15 233 8 9 6 18 -7 32 -10 11 -31 20
-46 20 -20 0 -38 -11 -61 -37z m1942 -429 c0 -9 -10 -30 -22 -47 -12 -18 -33
-43 -45 -57 -13 -14 -22 -34 -21 -45 2 -16 10 -20 35 -19 17 1 45 11 61 23 17
12 45 21 64 21 19 0 39 -5 46 -12 7 -7 12 -24 12 -40 0 -15 -20 -62 -45 -104
-25 -41 -45 -77 -45 -79 0 -2 -12 -21 -26 -42 -14 -21 -32 -52 -40 -68 -8 -17
-26 -45 -39 -61 -14 -16 -52 -64 -85 -106 -34 -42 -71 -80 -83 -84 -12 -3 -44
-17 -72 -30 -27 -13 -70 -39 -95 -56 -28 -20 -70 -38 -108 -47 -49 -11 -68
-11 -85 -2 -12 6 -37 23 -56 36 -19 14 -42 38 -52 54 -13 21 -18 55 -20 127
-2 55 0 104 4 111 4 6 24 17 45 24 20 6 42 16 48 20 6 5 37 18 69 29 32 11 67
20 78 20 11 0 38 15 61 33 23 19 48 38 57 43 9 5 33 23 54 39 20 17 57 47 81
69 24 21 44 42 44 47 0 5 -11 9 -24 9 -14 0 -41 -9 -60 -21 -20 -12 -36 -25
-36 -30 0 -5 -11 -9 -23 -9 -13 0 -46 -7 -72 -15 -35 -10 -54 -11 -68 -4 -18
10 -18 12 7 38 15 16 44 33 64 39 20 7 64 36 97 65 33 29 84 68 113 86 29 19
70 40 90 47 20 7 49 13 65 14 18 0 27 -5 27 -16z"/>
<path d="M15970 2870 c-36 -16 -72 -30 -81 -30 -9 0 -33 -11 -53 -25 -20 -14
-41 -25 -45 -25 -5 0 -42 -27 -82 -59 -41 -33 -86 -75 -101 -95 -16 -19 -33
-47 -40 -63 -7 -15 -18 -32 -24 -38 -6 -5 -19 -22 -28 -37 -10 -14 -13 -28 -9
-31 5 -3 23 1 41 10 17 8 44 32 59 52 15 20 45 55 67 79 22 23 58 55 80 70 23
15 61 36 86 47 25 11 67 34 94 52 26 18 54 33 61 33 8 0 23 -13 34 -29 12 -16
25 -51 30 -78 9 -44 7 -53 -23 -108 -18 -33 -54 -97 -79 -141 -26 -45 -53 -87
-62 -94 -8 -7 -15 -16 -15 -20 0 -5 -28 -47 -62 -95 -34 -48 -78 -99 -97 -113
-20 -15 -38 -31 -40 -37 -2 -5 -22 -28 -44 -50 -24 -24 -46 -58 -54 -85 -8
-26 -11 -61 -7 -83 3 -23 14 -43 27 -52 12 -8 41 -17 63 -21 31 -4 48 -2 68
11 19 13 37 16 68 11 24 -3 77 -2 118 4 41 5 118 15 170 21 52 6 124 19 160
30 36 11 74 23 85 28 11 5 46 16 78 25 31 10 81 21 111 26 29 5 89 22 132 38
43 16 95 35 114 41 19 7 71 21 115 32 44 11 100 29 125 41 25 11 66 31 91 44
26 13 55 24 66 24 10 0 54 23 96 51 55 36 77 56 77 71 0 20 -4 21 -63 15 -34
-3 -84 -15 -111 -26 -26 -12 -57 -21 -68 -21 -10 0 -38 -11 -61 -24 -23 -14
-62 -32 -87 -42 -25 -9 -59 -33 -76 -53 -29 -33 -37 -36 -105 -42 -41 -4 -103
-12 -139 -18 -36 -6 -85 -16 -110 -22 -25 -6 -54 -15 -65 -19 -11 -5 -51 -18
-90 -30 -38 -12 -81 -28 -97 -36 -15 -8 -56 -19 -90 -25 -35 -6 -94 -13 -133
-15 -58 -3 -78 0 -115 19 -38 19 -46 28 -52 60 -6 30 -3 48 12 80 11 23 28 56
37 72 9 17 24 35 33 42 10 7 23 27 30 45 7 18 30 69 50 113 20 44 52 127 71
185 18 58 50 142 71 187 21 45 38 88 38 97 0 8 -12 24 -26 35 -21 17 -41 21
-93 21 -51 0 -80 -7 -131 -30z"/>
<path d="M25177 2839 c-37 -34 -74 -74 -83 -90 -14 -28 -14 -29 11 -29 15 0
36 5 47 11 12 6 50 40 86 75 53 54 62 67 52 79 -7 8 -20 15 -29 15 -9 0 -47
-27 -84 -61z"/>
<path d="M32057 2775 c-32 -19 -60 -35 -62 -35 -3 0 -31 -16 -62 -37 -32 -20
-74 -51 -93 -70 -19 -18 -40 -33 -47 -33 -6 0 -49 -33 -94 -72 -46 -40 -136
-122 -201 -182 -79 -72 -135 -133 -168 -183 -28 -42 -50 -81 -50 -88 0 -6 8
-19 18 -28 10 -10 30 -17 45 -17 14 0 37 10 52 23 16 14 28 38 34 71 7 39 18
57 60 97 28 27 51 55 51 63 0 8 19 29 43 47 23 18 62 52 87 75 25 24 72 67
104 96 33 29 67 60 76 68 9 8 29 22 43 30 15 8 66 42 115 76 48 33 99 64 112
67 14 3 34 12 44 20 12 9 17 20 13 31 -4 9 -18 16 -34 16 -15 0 -54 -16 -86
-35z"/>
<path d="M32490 2795 c-10 -12 -9 -23 4 -55 9 -22 16 -50 16 -63 0 -12 -11
-56 -24 -98 -13 -41 -29 -86 -36 -99 -7 -12 -29 -41 -50 -64 -20 -23 -69 -88
-109 -146 -39 -58 -108 -145 -154 -194 -45 -49 -103 -103 -129 -121 -26 -17
-61 -50 -77 -73 -17 -22 -65 -67 -107 -99 -43 -32 -100 -75 -128 -95 -28 -20
-74 -50 -102 -67 -28 -16 -58 -41 -67 -55 -9 -14 -17 -34 -17 -45 0 -11 12
-29 26 -40 15 -12 35 -21 46 -21 10 0 33 7 51 16 18 9 42 25 55 35 13 10 55
30 95 44 40 15 90 35 112 45 22 9 60 26 85 37 25 11 101 44 169 74 80 35 138
67 163 90 l39 37 -20 38 c-19 36 -19 43 -7 89 8 28 24 73 36 100 12 28 30 59
40 70 10 11 24 32 31 46 8 15 26 48 40 75 15 27 36 80 48 118 11 37 21 96 21
130 0 33 7 92 15 131 8 38 15 87 15 107 0 27 -6 41 -22 52 -12 9 -28 16 -34
16 -6 0 -17 -7 -24 -15z"/>
<path d="M20863 2765 c-3 -9 -3 -18 0 -21 3 -3 15 -1 26 6 12 6 21 15 21 20 0
6 -9 10 -20 10 -11 0 -23 -7 -27 -15z"/>
<path d="M20810 2721 c0 -5 -7 -17 -16 -25 -9 -9 -11 -16 -4 -16 6 0 19 4 29
10 10 5 21 16 25 25 4 10 -1 15 -14 15 -11 0 -20 -4 -20 -9z"/>
<path d="M8990 2699 c-19 -11 -46 -39 -60 -61 -14 -23 -37 -59 -52 -82 -24
-36 -28 -51 -28 -119 0 -44 -7 -104 -16 -134 -14 -48 -22 -58 -68 -88 -29 -18
-75 -58 -103 -89 -28 -30 -61 -77 -74 -103 -12 -26 -42 -72 -66 -100 -25 -29
-52 -53 -61 -53 -9 0 -51 -33 -93 -73 -42 -39 -114 -105 -160 -146 -46 -41
-91 -86 -100 -100 -9 -15 -40 -45 -70 -67 -30 -23 -68 -48 -86 -57 -18 -10
-38 -17 -45 -17 -7 0 -30 5 -51 11 -31 8 -42 19 -63 61 -24 48 -25 55 -15 106
6 31 18 63 26 72 8 9 15 22 15 28 0 6 11 19 24 27 14 9 44 42 68 73 24 31 47
59 53 61 5 2 37 34 70 69 33 36 69 73 79 81 11 9 41 36 67 59 27 24 53 59 59
77 6 19 26 47 45 62 18 15 53 45 78 66 25 21 65 57 89 81 23 24 50 52 59 62 9
11 19 27 22 37 4 10 21 25 38 35 17 9 52 31 77 47 26 17 71 55 100 85 34 35
52 62 50 75 -2 13 -12 21 -28 23 -17 2 -58 -17 -125 -59 -55 -34 -116 -71
-135 -84 -19 -12 -53 -33 -75 -47 -22 -14 -100 -83 -174 -154 -74 -71 -200
-194 -280 -274 -80 -80 -165 -167 -189 -194 -25 -27 -72 -68 -105 -90 -33 -23
-69 -53 -80 -67 -10 -14 -25 -57 -32 -95 -7 -38 -16 -121 -20 -184 -6 -95 -4
-122 9 -156 12 -28 29 -47 54 -62 20 -11 65 -26 99 -32 34 -7 77 -10 95 -6 18
3 59 18 90 34 42 20 71 44 110 92 29 36 69 83 88 104 19 21 53 51 76 66 22 16
63 50 90 77 27 26 60 55 73 63 13 8 42 33 65 56 22 23 59 51 81 63 22 12 56
33 75 46 19 13 45 32 58 41 13 9 31 32 40 52 9 21 32 57 51 82 19 25 50 61 69
80 18 18 43 53 53 76 11 23 31 52 45 64 13 13 24 29 24 36 0 6 6 17 14 23 8 7
18 27 21 44 4 18 17 43 29 55 11 13 33 30 48 38 15 8 38 14 51 14 12 0 27 4
33 10 7 7 34 3 82 -10 39 -11 102 -20 138 -20 64 0 70 2 132 48 36 26 94 75
130 109 42 40 63 68 60 80 -2 11 -13 19 -30 21 -15 2 -39 -3 -55 -11 -15 -8
-54 -40 -85 -71 -39 -38 -65 -56 -82 -56 -14 0 -48 5 -75 11 -38 8 -57 19 -73
41 -13 16 -42 50 -65 75 -23 25 -55 54 -70 64 -15 11 -39 19 -53 19 -14 0 -41
-10 -60 -21z"/>
<path d="M20584 2568 c-20 -18 -59 -46 -85 -63 -26 -16 -72 -47 -102 -68 -31
-21 -72 -56 -91 -78 -20 -21 -36 -43 -36 -48 0 -5 7 -14 16 -21 12 -11 25 -10
69 4 43 13 64 28 101 70 25 30 84 85 130 122 61 50 84 74 82 89 -2 12 -12 21
-25 23 -13 2 -36 -10 -59 -30z"/>
<path d="M17709 2574 c-7 -9 -32 -25 -54 -34 -22 -9 -66 -38 -97 -64 -32 -26
-58 -54 -58 -62 0 -7 3 -14 8 -14 4 0 23 6 42 13 19 6 48 21 63 32 16 11 49
37 73 58 25 20 50 37 55 37 6 0 9 10 7 22 -2 12 -8 23 -14 25 -6 2 -17 -4 -25
-13z"/>
<path d="M925 2566 c-17 -7 -39 -21 -48 -30 -9 -10 -17 -24 -17 -32 0 -10 12
-14 43 -14 35 0 49 6 73 31 28 30 28 31 10 45 -11 8 -22 14 -25 14 -3 -1 -20
-7 -36 -14z"/>
<path d="M15444 2422 c-12 -9 -25 -27 -28 -39 -4 -12 -2 -24 3 -27 5 -4 21 -1
35 6 15 6 29 22 32 34 3 13 3 28 -1 33 -3 6 -9 11 -13 11 -4 0 -17 -8 -28 -18z"/>
<path d="M36755 2380 c-11 -5 -46 -9 -78 -9 -45 -1 -66 -6 -90 -25 -18 -13
-53 -27 -79 -30 -29 -5 -57 -17 -76 -34 -16 -15 -45 -39 -63 -54 -18 -16 -27
-28 -20 -28 7 0 55 16 105 36 50 20 96 41 103 46 8 7 36 -3 88 -32 41 -23 80
-50 85 -60 8 -14 6 -30 -5 -56 -8 -20 -15 -44 -15 -53 0 -10 -14 -39 -32 -67
-17 -27 -42 -69 -56 -94 -13 -25 -36 -58 -51 -75 -15 -16 -45 -54 -66 -82 -22
-29 -44 -53 -50 -53 -5 0 -46 -32 -90 -70 -44 -38 -102 -87 -130 -109 -27 -21
-79 -66 -115 -100 -36 -33 -79 -67 -96 -76 -17 -8 -37 -28 -44 -45 -7 -16 -18
-30 -24 -30 -6 0 -25 9 -43 20 -17 10 -36 28 -42 38 -6 11 -18 23 -27 26 -9 4
-29 -1 -43 -10 -14 -10 -50 -38 -80 -63 -30 -25 -79 -80 -110 -121 -33 -43
-73 -84 -96 -97 -21 -12 -43 -31 -47 -42 -4 -12 -5 -28 -2 -36 4 -8 18 -15 34
-15 16 0 57 13 92 30 34 16 68 30 73 30 6 0 48 15 93 33 45 19 99 46 120 60
21 15 44 27 51 27 7 0 43 30 79 66 37 36 81 73 97 81 17 9 48 31 69 50 22 18
74 49 115 69 42 20 92 51 111 69 19 18 71 52 115 75 44 24 103 59 130 79 28
20 70 51 95 68 25 17 72 44 106 61 34 17 75 43 93 58 18 14 41 44 51 65 11 21
20 41 20 45 0 4 -20 4 -45 1 -24 -4 -47 -2 -50 3 -3 5 -1 18 5 29 5 11 17 53
26 93 8 40 16 96 16 123 0 38 -7 62 -29 100 -18 31 -44 59 -69 72 -21 13 -50
22 -64 22 -14 0 -34 -4 -45 -9z"/>
<path d="M37879 2371 c-25 -10 -68 -23 -95 -30 -27 -7 -74 -28 -105 -47 -31
-19 -64 -34 -73 -34 -9 0 -16 -4 -16 -9 0 -5 13 -12 29 -16 17 -3 42 0 62 9
19 8 61 23 94 32 33 9 64 21 70 26 5 4 24 8 41 8 18 0 44 4 59 10 14 5 28 17
32 26 4 11 -1 22 -12 30 -10 8 -24 14 -29 14 -6 -1 -32 -9 -57 -19z"/>
<path d="M7915 2240 c-8 -16 -15 -34 -15 -39 0 -6 9 -15 20 -21 11 -6 31 -8
45 -4 15 4 33 17 41 30 12 17 13 27 4 43 -8 15 -21 21 -45 21 -28 0 -37 -6
-50 -30z"/>
<path d="M27213 2225 c-18 -19 -33 -45 -33 -58 0 -13 5 -28 12 -35 7 -7 22
-12 33 -12 12 0 29 8 37 18 9 9 21 33 28 53 7 20 10 44 7 53 -4 9 -17 16 -29
16 -13 0 -37 -15 -55 -35z"/>
<path d="M23700 2215 c-7 -8 -10 -22 -6 -30 3 -8 9 -15 14 -15 5 0 15 7 22 15
7 8 10 22 6 30 -3 8 -9 15 -14 15 -5 0 -15 -7 -22 -15z"/>
<path d="M37372 2168 c-7 -7 -12 -18 -12 -25 0 -7 9 -13 21 -13 11 0 29 5 40
10 10 6 19 17 19 25 0 10 -10 15 -28 15 -15 0 -33 -5 -40 -12z"/>
<path d="M36231 2134 c-12 -15 -21 -30 -21 -35 0 -4 4 -10 8 -13 5 -3 23 8 40
24 18 16 32 34 32 39 0 6 -9 11 -19 11 -11 0 -29 -12 -40 -26z"/>
<path d="M37288 2114 c-16 -8 -28 -21 -28 -29 0 -8 5 -15 11 -15 6 0 24 9 40
21 16 11 29 25 29 30 0 5 -6 9 -12 9 -7 -1 -25 -8 -40 -16z"/>
<path d="M36137 2043 c-15 -16 -42 -48 -59 -71 -18 -24 -43 -57 -54 -73 -12
-16 -41 -45 -65 -64 -24 -19 -63 -51 -87 -71 -23 -20 -58 -60 -77 -90 -19 -30
-35 -57 -35 -59 0 -3 -20 -36 -45 -75 -25 -39 -45 -79 -45 -90 0 -14 7 -20 23
-20 12 1 33 11 47 23 14 12 39 40 55 62 16 22 33 45 37 50 5 6 25 33 46 60 21
28 48 71 60 97 12 26 31 52 42 58 11 6 20 16 20 22 0 7 12 30 28 52 15 23 41
54 57 69 17 16 42 35 58 43 15 8 27 20 27 28 0 7 9 21 20 31 11 10 20 24 20
32 0 7 -10 13 -23 13 -13 0 -36 -12 -50 -27z"/>
<path d="M23575 2051 c-3 -5 -1 -12 3 -15 5 -3 12 -3 16 1 3 3 6 10 6 15 0 4
-4 8 -9 8 -6 0 -12 -4 -16 -9z"/>
<path d="M24258 2039 c-10 -5 -18 -19 -18 -29 0 -15 7 -20 25 -20 13 0 28 8
33 18 5 9 7 23 5 30 -3 6 -10 12 -16 12 -7 0 -20 -5 -29 -11z"/>
<path d="M27124 1966 c-9 -7 -34 -64 -56 -127 -22 -63 -42 -132 -45 -155 -3
-29 0 -45 11 -56 12 -12 45 -16 168 -16 139 -1 159 1 228 25 41 14 89 36 107
49 17 13 35 24 40 24 4 1 26 16 47 34 22 19 36 38 32 45 -4 6 -18 11 -31 11
-13 0 -28 -6 -32 -13 -4 -7 -33 -20 -63 -29 -30 -9 -92 -20 -136 -24 -75 -6
-83 -5 -103 15 -11 11 -23 33 -26 48 -4 16 -16 48 -28 72 -12 24 -28 56 -36
72 -8 15 -24 29 -37 32 -13 2 -31 -1 -40 -7z"/>
<path d="M3435 1781 c-16 -4 -41 -13 -55 -21 -14 -7 -43 -27 -65 -44 -22 -17
-85 -77 -140 -134 -55 -57 -104 -111 -109 -120 -4 -9 -20 -35 -34 -57 -15 -22
-40 -56 -57 -76 -16 -20 -38 -46 -47 -58 -10 -11 -18 -28 -18 -36 0 -9 9 -15
25 -15 14 0 44 17 73 43 27 23 91 99 143 169 77 104 101 130 134 142 22 9 65
41 95 72 30 31 70 62 88 69 18 8 35 22 39 31 4 11 -1 22 -12 30 -10 8 -21 14
-24 13 -3 -1 -19 -4 -36 -8z"/>
<path d="M1036 1463 c-34 -41 -46 -64 -44 -82 2 -17 10 -27 23 -29 14 -2 41
18 85 64 l64 66 -23 19 c-13 10 -31 19 -41 19 -10 0 -39 -26 -64 -57z"/>
<path d="M11500 1318 c-19 -12 -50 -38 -68 -59 -22 -25 -34 -51 -38 -83 -5
-30 -2 -51 6 -61 8 -10 31 -15 68 -15 55 0 57 1 110 57 30 31 58 68 63 81 5
13 9 36 9 51 0 15 -5 32 -12 39 -7 7 -32 12 -57 12 -29 -1 -59 -9 -81 -22z"/>
<path d="M1304 1043 c-3 -10 -10 -25 -15 -33 -5 -8 -12 -21 -15 -28 -4 -7 -4
-15 -1 -18 3 -3 15 4 26 15 12 12 30 21 40 21 11 0 21 6 24 13 2 6 0 20 -5 30
-5 9 -18 17 -29 17 -11 0 -22 -8 -25 -17z"/>
</g>
</svg>
