<?xml version="1.0" encoding="UTF-8" standalone="no"?>
<!-- Created with Inkscape (http://www.inkscape.org/) -->
<svg
   xmlns:dc="http://purl.org/dc/elements/1.1/"
   xmlns:cc="http://creativecommons.org/ns#"
   xmlns:rdf="http://www.w3.org/1999/02/22-rdf-syntax-ns#"
   xmlns:svg="http://www.w3.org/2000/svg"
   xmlns="http://www.w3.org/2000/svg"
   xmlns:sodipodi="http://sodipodi.sourceforge.net/DTD/sodipodi-0.dtd"
   xmlns:inkscape="http://www.inkscape.org/namespaces/inkscape"
   width="207.67899"
   height="71.242165"
   id="svg2"
   sodipodi:version="0.32"
   inkscape:version="0.46"
   version="1.0"
   sodipodi:docname="Sonny Perduel signature.svg"
   inkscape:output_extension="org.inkscape.output.svg.inkscape">
  <defs
     id="defs4">
    <inkscape:perspective
       sodipodi:type="inkscape:persp3d"
       inkscape:vp_x="0 : 526.18109 : 1"
       inkscape:vp_y="0 : 1000 : 0"
       inkscape:vp_z="744.09448 : 526.18109 : 1"
       inkscape:persp3d-origin="372.04724 : 350.78739 : 1"
       id="perspective10" />
    <inkscape:perspective
       id="perspective2390"
       inkscape:persp3d-origin="372.04724 : 350.78739 : 1"
       inkscape:vp_z="744.09448 : 526.18109 : 1"
       inkscape:vp_y="0 : 1000 : 0"
       inkscape:vp_x="0 : 526.18109 : 1"
       sodipodi:type="inkscape:persp3d" />
    <inkscape:perspective
       id="perspective2427"
       inkscape:persp3d-origin="372.04724 : 350.78739 : 1"
       inkscape:vp_z="744.09448 : 526.18109 : 1"
       inkscape:vp_y="0 : 1000 : 0"
       inkscape:vp_x="0 : 526.18109 : 1"
       sodipodi:type="inkscape:persp3d" />
    <inkscape:perspective
       id="perspective2462"
       inkscape:persp3d-origin="372.04724 : 350.78739 : 1"
       inkscape:vp_z="744.09448 : 526.18109 : 1"
       inkscape:vp_y="0 : 1000 : 0"
       inkscape:vp_x="0 : 526.18109 : 1"
       sodipodi:type="inkscape:persp3d" />
    <inkscape:perspective
       id="perspective2477"
       inkscape:persp3d-origin="372.04724 : 350.78739 : 1"
       inkscape:vp_z="744.09448 : 526.18109 : 1"
       inkscape:vp_y="0 : 1000 : 0"
       inkscape:vp_x="0 : 526.18109 : 1"
       sodipodi:type="inkscape:persp3d" />
    <inkscape:perspective
       id="perspective2514"
       inkscape:persp3d-origin="372.04724 : 350.78739 : 1"
       inkscape:vp_z="744.09448 : 526.18109 : 1"
       inkscape:vp_y="0 : 1000 : 0"
       inkscape:vp_x="0 : 526.18109 : 1"
       sodipodi:type="inkscape:persp3d" />
  </defs>
  <sodipodi:namedview
     id="base"
     pagecolor="#ffffff"
     bordercolor="#666666"
     borderopacity="1.0"
     gridtolerance="10000"
     guidetolerance="10"
     objecttolerance="10"
     inkscape:pageopacity="0.0"
     inkscape:pageshadow="2"
     inkscape:zoom="3.1589712"
     inkscape:cx="103.86215"
     inkscape:cy="37.899418"
     inkscape:document-units="px"
     inkscape:current-layer="layer1"
     showgrid="false"
     inkscape:window-width="1024"
     inkscape:window-height="719"
     inkscape:window-x="-4"
     inkscape:window-y="-4" />
  <metadata
     id="metadata7">
    <rdf:RDF>
      <cc:Work
         rdf:about="">
        <dc:format>image/svg+xml</dc:format>
        <dc:type
           rdf:resource="http://purl.org/dc/dcmitype/StillImage" />
      </cc:Work>
    </rdf:RDF>
  </metadata>
  <g
     inkscape:label="Layer 1"
     inkscape:groupmode="layer"
     id="layer1"
     transform="translate(-272.46389,-623.46483)">
    <path
       style="fill:#000000"
       d="M 345.26196,689.07952 C 344.20978,688.44192 343.51196,686.80322 343.51196,684.96996 C 343.51196,680.77748 347.48243,677.31484 359.03893,671.42891 C 364.23364,668.78315 368.68112,666.10788 368.92223,665.48387 C 369.24685,664.64371 368.6054,664.63436 366.45025,665.44784 C 364.28329,666.26577 363.23946,666.24594 362.36373,665.37021 C 361.46218,664.46866 361.84089,663.25129 363.98576,660.15624 C 367.05057,655.73372 367.97744,655.28311 368.92582,657.75456 C 369.49953,659.24961 369.70471,659.25398 371.30565,657.80515 C 373.70474,655.634 375.93077,657.14727 375.28754,660.51207 C 374.71844,663.48916 374.83093,663.5607 377.48005,661.9063 C 378.54757,661.23962 379.72206,660.99521 380.09002,661.36317 C 381.45393,662.72708 379.45381,665.17372 375.29441,667.22936 C 372.28114,668.71856 369.47838,671.47908 365.83737,676.54387 C 358.40317,686.88512 350.04455,691.97764 345.26196,689.07952 z M 351.91699,685.15455 C 354.67031,684.10774 363.51196,675.61525 363.51196,674.01747 C 363.51196,672.57148 348.97998,681.10627 347.32794,683.52252 C 345.71344,685.88386 347.92762,686.67131 351.91699,685.15455 z M 295.19694,673.15111 C 292.35449,672.24791 288.91486,669.83027 282.51196,664.2351 C 279.66454,661.74688 279.28182,660.99762 280.45929,660.21656 C 281.42931,659.57311 283.06564,659.74077 285.42109,660.72494 C 287.35405,661.53258 291.54025,662.46562 294.72376,662.79837 C 297.90727,663.13111 300.51196,663.73415 300.51196,664.13845 C 300.51196,665.50383 298.02911,666.93932 295.01196,667.31834 C 292.073,667.68754 292.09952,667.72341 296.31532,669.0811 C 304.29004,671.64934 307.33482,668.876 311.09562,655.61844 C 314.61317,643.21839 319.7771,636.10487 328.23255,632.01165 C 331.70879,630.32884 332.85332,630.15686 334.03726,631.13943 C 336.3873,633.08979 335.77483,636.25479 331.94763,641.93786 C 328.12531,647.61368 326.04511,649.05159 324.25133,647.25781 C 323.41641,646.42289 323.78827,645.41868 325.6891,643.37503 C 329.17872,639.62322 331.95468,635.11844 330.77701,635.11844 C 328.87602,635.11844 321.40787,641.24027 319.45584,644.39868 C 318.36137,646.16955 316.07805,652.11844 314.3818,657.61844 C 310.75606,669.37469 307.89154,673.06076 301.91858,673.65617 C 299.76994,673.87036 296.7452,673.64308 295.19694,673.15111 z M 384.76196,672.45616 C 380.93248,670.91093 385.31152,664.13032 399.38767,649.80938 C 410.34073,638.66583 420.32183,630.70623 424.72973,629.59992 C 426.70561,629.10401 427.70767,629.55178 429.38013,631.67798 C 432.1147,635.15442 432.05405,637.41213 429.05289,643.85831 C 427.30839,647.60531 425.38168,649.88457 422.29028,651.85831 C 419.33365,653.74601 418.0794,655.18677 418.32216,656.41648 C 418.51738,657.4054 418.09704,658.9804 417.38807,659.91648 C 416.67909,660.85256 417.73728,660.09641 419.73958,658.23616 C 422.0032,656.13312 423.97239,655.08115 424.94605,655.45477 C 427.27116,656.347 426.86214,658.40279 423.52371,662.60366 C 421.30657,665.39356 420.69503,666.99968 421.15385,668.82777 C 421.69492,670.98356 421.47463,671.24956 419.3921,670.95505 C 417.56749,670.697 417.01877,670.00738 417.04113,668.00039 L 417.07031,665.38233 L 413.30029,667.87722 C 410.50284,669.72848 408.75386,670.21682 406.52068,669.77018 C 404.86541,669.43913 402.31113,669.6245 400.8445,670.18211 C 398.85572,670.93824 397.97006,670.86836 397.36024,669.90719 C 395.94393,667.67487 396.43746,666.11844 398.56162,666.11844 C 401.69535,666.11844 405.76389,663.6504 408.2919,660.21591 L 410.57183,657.11844 L 406.23282,657.11844 C 402.08061,657.11844 401.58128,657.46287 394.63501,665.11844 C 390.64268,669.51844 387.06927,673.08291 386.69409,673.03949 C 386.31892,672.99607 385.44946,672.73357 384.76196,672.45616 z M 414.72445,651.13549 C 421.02241,648.77359 424.97807,645.33197 427.02472,640.43366 C 428.68541,636.45907 427.73711,634.11844 424.46611,634.11844 C 422.39611,634.11844 414.9569,639.48405 408.76196,645.44523 C 401.30253,652.62318 403.96986,655.16874 414.72445,651.13549 z M 425.61694,670.18332 C 422.06917,667.99068 430.15512,657.11844 435.33362,657.11844 C 437.36341,657.11844 440.2224,655.08512 446.53548,649.15161 C 451.19754,644.76986 455.36358,641.16986 455.79334,641.15161 C 456.22311,641.13337 456.82889,641.78077 457.13953,642.59029 C 457.50757,643.54939 454.69934,646.90662 449.07845,652.22726 C 444.33421,656.71808 440.69767,660.63748 440.99724,660.93706 C 441.29682,661.23663 443.0191,660.04999 444.82455,658.30009 C 446.62999,656.55018 448.64825,655.11844 449.30957,655.11844 C 451.59961,655.11844 450.49749,658.48571 447.26196,661.37441 L 444.01196,664.27603 L 447.10077,662.24392 C 448.79962,661.12625 450.76722,659.51579 451.47322,658.66512 C 452.17922,657.81445 453.37675,657.11844 454.1344,657.11844 C 456.44313,657.11844 455.67032,660.96858 453.01196,662.7104 C 449.64947,664.91359 449.84179,666.24802 453.34577,665.02653 C 455.04749,664.43331 456.82943,662.67591 457.80625,660.6275 C 458.70092,658.75136 460.60269,656.44987 462.03242,655.51308 C 464.30803,654.02204 464.8133,653.99121 466.08775,655.26566 C 467.3622,656.54011 467.08881,657.25279 463.89355,660.98574 C 459.311,666.33942 460.24004,667.97528 466.98631,666.43152 C 470.98581,665.5163 471.51196,665.59363 471.51196,667.09666 C 471.51196,670.64546 462.63857,672.44798 459.43604,669.54973 C 457.96219,668.21592 457.09418,668.16333 453.63903,669.19851 C 450.53174,670.12948 449.24358,670.14059 448.16533,669.24573 C 447.15207,668.4048 445.99382,668.36494 444.04968,669.1041 C 442.56163,669.66986 440.82186,669.80997 440.18352,669.41546 C 438.19394,668.18582 431.10914,668.39485 429.00228,669.74533 C 427.79435,670.51961 426.44379,670.69435 425.61694,670.18332 z M 318.17863,669.45177 C 316.55558,667.82873 317.88684,665.1266 322.98906,659.68777 C 328.14488,654.19179 328.67904,653.88387 332.09547,654.43828 C 334.09159,654.76221 336.27202,655.77562 336.94086,656.69031 C 338.07277,658.2383 338.38911,658.23333 341.51196,656.61844 C 344.68356,654.97834 344.93574,654.97751 346.12447,656.6032 C 347.2661,658.16447 347.58363,658.18164 349.57098,656.78965 C 351.30237,655.57694 352.1522,655.50133 353.63598,656.42797 C 355.08596,657.33349 355.97536,657.31013 357.55264,656.32511 C 358.67501,655.62418 360.02501,655.31749 360.55264,655.64358 C 361.88313,656.46587 361.75558,660.47482 360.35434,661.87606 C 359.47752,662.75288 359.5262,663.43067 360.55505,664.67036 C 361.73035,666.08651 361.58315,666.56084 359.46267,668.19051 C 354.54291,671.97152 350.75405,669.4503 353.97301,664.53753 C 355.57684,662.08978 355.5699,662.01706 353.82178,662.95263 C 352.81407,663.49194 351.13737,664.87487 350.09578,666.02582 C 347.88769,668.46573 345.51196,668.77288 345.51196,666.61844 C 345.51196,664.45978 344.50296,664.75288 341.26935,667.85088 C 338.89444,670.12618 338.26502,670.33692 337.50709,669.11055 C 336.90667,668.13906 337.12016,666.83916 338.13432,665.29135 C 340.61982,661.49799 339.1459,661.80828 334.26306,666.10633 C 331.75616,668.31299 329.21161,670.11844 328.60851,670.11844 C 326.70957,670.11844 327.41213,667.11588 330.15141,663.5245 C 334.36753,657.99688 332.18814,658.48084 325.60332,664.53445 C 319.10077,670.51244 319.1841,670.45724 318.17863,669.45177 z"
       id="path2520" />
  </g>
</svg>
