<?xml version="1.0" standalone="no"?>
<!DOCTYPE svg PUBLIC "-//W3C//DTD SVG 20010904//EN"
 "http://www.w3.org/TR/2001/REC-SVG-20010904/DTD/svg10.dtd">
<svg version="1.0" xmlns="http://www.w3.org/2000/svg"
 width="2002.000000pt" height="781.000000pt" viewBox="0 0 2002.000000 781.000000"
 preserveAspectRatio="xMidYMid meet">
<metadata>
Created by potrace 1.11, written by Peter Selinger 2001-2013
</metadata>
<g transform="translate(0.000000,781.000000) scale(0.100000,-0.100000)"
fill="#000000" stroke="none">
<path d="M10717 7125 c-26 -20 -57 -51 -70 -70 -13 -19 -35 -43 -49 -55 -14
-11 -43 -46 -64 -77 -20 -32 -53 -76 -71 -98 -19 -22 -37 -44 -41 -50 -4 -5
-20 -26 -35 -46 -15 -20 -27 -43 -27 -51 0 -9 -23 -40 -50 -69 -28 -30 -53
-65 -57 -77 -3 -13 -16 -35 -29 -49 -13 -14 -24 -33 -24 -43 0 -9 -13 -29 -30
-45 -16 -16 -30 -34 -30 -41 0 -7 -3 -14 -8 -16 -4 -1 -29 -37 -56 -78 -27
-41 -58 -87 -68 -102 -10 -15 -18 -30 -18 -34 0 -3 -11 -19 -25 -36 -14 -16
-25 -38 -25 -48 0 -10 -8 -21 -17 -25 -18 -6 -64 -88 -63 -112 0 -7 -4 -13 -9
-13 -8 0 -91 -159 -91 -174 0 -3 -11 -29 -24 -56 -13 -27 -22 -58 -20 -67 3
-13 -16 -35 -60 -73 -39 -33 -67 -66 -71 -82 -4 -16 -13 -28 -20 -28 -16 0
-65 -67 -65 -88 0 -7 7 -20 15 -28 8 -9 15 -11 15 -5 0 6 18 11 40 11 33 0 40
3 40 20 0 11 15 36 33 56 31 34 36 36 97 36 37 0 71 6 80 13 8 7 38 25 67 40
28 14 57 33 63 40 7 8 28 17 47 21 19 4 40 15 46 25 7 11 21 19 32 19 19 0 20
-6 20 -77 0 -99 28 -195 56 -191 10 2 24 -6 32 -16 11 -15 30 -21 82 -24 41
-3 71 0 78 7 6 6 24 11 40 11 21 0 28 4 25 17 -2 13 -18 17 -87 19 -46 1 -87
6 -91 11 -25 27 -51 230 -41 319 0 6 39 41 86 79 47 37 85 71 85 75 0 24 66
86 106 100 25 8 58 27 72 41 15 15 38 30 51 34 30 9 141 110 160 144 7 14 20
37 29 51 22 33 24 66 6 80 -23 20 -100 -9 -153 -57 -25 -24 -52 -43 -58 -43
-7 0 -13 -4 -13 -9 0 -18 -217 -229 -253 -246 -21 -10 -75 -43 -120 -73 -74
-49 -83 -59 -95 -101 -7 -25 -20 -51 -28 -57 -8 -6 -14 -15 -14 -20 0 -5 -17
-17 -38 -26 -20 -10 -44 -22 -52 -27 -8 -5 -34 -17 -58 -27 -88 -36 -68 24 43
131 65 63 155 173 155 189 0 9 9 20 21 27 11 6 30 31 40 55 11 24 24 44 29 44
12 0 101 123 150 207 23 40 55 86 71 104 16 17 29 42 29 55 0 15 6 24 15 24 9
0 23 17 32 38 10 20 33 54 51 76 19 21 46 64 60 95 14 31 36 64 48 74 12 9 28
33 34 53 7 19 34 64 61 99 27 36 49 69 49 76 0 6 13 28 28 48 39 50 52 85 52
134 0 54 -13 67 -66 67 -32 0 -52 -8 -87 -35z m-96 -328 c-16 -23 -33 -55 -37
-70 -4 -16 -12 -31 -20 -34 -7 -2 -20 -22 -28 -44 -9 -21 -20 -39 -25 -39 -8
0 -35 -39 -69 -100 -7 -14 -21 -33 -30 -43 -16 -18 -51 -81 -87 -154 -8 -18
-20 -33 -25 -33 -5 0 -21 -17 -34 -37 -13 -21 -43 -58 -65 -83 -23 -25 -41
-53 -41 -62 0 -10 -9 -27 -20 -38 -11 -11 -20 -24 -20 -28 0 -5 -20 -31 -44
-58 -48 -54 -78 -88 -130 -149 -19 -22 -37 -37 -40 -34 -8 7 30 85 60 125 13
17 24 34 24 38 0 11 70 127 92 152 10 11 18 24 18 28 0 5 20 35 45 68 25 33
45 66 45 73 0 8 9 20 19 27 10 7 26 31 35 52 9 21 36 61 61 89 26 28 53 66 61
85 8 19 29 52 47 72 17 21 43 55 57 75 14 20 37 52 53 70 15 18 27 35 27 38 0
3 19 24 41 47 36 36 43 40 51 26 7 -12 1 -28 -21 -59z"/>
<path d="M6910 6812 c-47 -13 -94 -27 -105 -32 -11 -5 -42 -16 -70 -25 -118
-38 -301 -127 -332 -161 -12 -13 -28 -24 -35 -24 -29 0 -232 -184 -243 -221
-3 -10 -15 -21 -26 -24 -11 -4 -19 -15 -19 -29 0 -13 -15 -40 -34 -60 -22 -24
-36 -52 -40 -79 -4 -22 -10 -46 -15 -52 -4 -5 -13 -30 -20 -55 -7 -25 -18 -58
-23 -75 -18 -53 -26 -187 -16 -245 5 -30 18 -73 28 -95 9 -22 28 -65 41 -95
23 -52 117 -160 139 -160 6 0 54 -43 107 -96 96 -95 97 -97 76 -113 -41 -34
-380 -11 -428 29 -8 7 -14 26 -12 43 3 45 -29 50 -44 8 -6 -17 -17 -31 -24
-31 -16 0 -22 -24 -17 -62 5 -30 30 -43 107 -53 28 -4 59 -12 70 -18 20 -11
81 -15 327 -17 115 -2 131 0 163 20 38 24 40 29 25 79 -11 41 -85 138 -111
146 -10 4 -47 33 -81 66 -34 33 -72 62 -85 65 -27 7 -114 113 -148 179 -38 77
-48 127 -43 232 5 89 22 169 48 215 6 10 10 24 10 33 0 8 13 34 28 57 16 24
46 70 68 103 57 87 187 219 280 283 29 20 51 33 72 42 12 6 32 14 45 20 12 5
29 14 37 19 33 21 88 43 140 56 30 8 79 21 109 29 104 29 193 39 239 27 58
-16 75 -56 73 -171 -2 -81 -3 -86 -31 -108 -17 -13 -30 -31 -30 -41 0 -10 -11
-27 -25 -39 -14 -12 -25 -28 -25 -35 0 -8 -9 -24 -20 -37 -11 -13 -20 -26 -20
-29 0 -3 -16 -24 -36 -46 -20 -22 -51 -62 -70 -90 -49 -72 -53 -76 -114 -118
-54 -36 -150 -143 -150 -166 0 -7 -4 -9 -10 -6 -5 3 -19 -10 -31 -29 -12 -20
-25 -36 -30 -36 -12 0 -42 -108 -35 -126 3 -7 16 -14 30 -14 19 0 23 -4 19
-19 -7 -26 7 -32 58 -23 36 7 43 11 41 27 -2 11 -13 30 -24 42 -23 24 -19 50
12 78 11 10 20 24 20 31 0 15 75 100 150 171 53 51 50 48 116 116 76 78 224
279 224 304 0 6 12 27 26 49 66 97 79 224 33 319 -30 62 -51 73 -165 82 -77 7
-100 5 -174 -15z"/>
<path d="M1395 6790 c-3 -5 -18 -10 -31 -10 -50 0 -170 -68 -223 -126 -28 -31
-51 -61 -51 -67 0 -7 -8 -17 -17 -23 -16 -10 -58 -87 -104 -189 -10 -22 -23
-66 -29 -98 -7 -32 -18 -61 -26 -64 -8 -3 -14 -16 -14 -29 0 -13 -7 -42 -16
-64 -9 -22 -14 -56 -12 -75 2 -19 0 -36 -5 -38 -12 -4 -38 -78 -31 -89 3 -4 0
-17 -6 -28 -8 -14 -8 -31 0 -59 7 -29 7 -46 -1 -65 -10 -22 -8 -31 14 -64 28
-39 35 -86 16 -97 -19 -12 -30 -56 -18 -71 9 -11 7 -20 -5 -39 -13 -20 -16
-45 -14 -118 l3 -92 43 1 c32 1 49 7 66 25 23 24 60 129 71 204 4 22 12 56 20
75 7 19 25 75 39 125 37 124 59 133 145 60 71 -60 89 -69 107 -54 21 17 17 40
-16 79 -17 19 -30 42 -30 51 0 9 -7 22 -15 29 -18 15 -20 64 -2 77 12 10 115
47 172 62 17 4 40 13 52 19 12 7 29 9 37 6 16 -6 18 -17 21 -112 2 -49 31 -95
63 -100 11 -2 28 -14 36 -28 13 -19 25 -24 57 -24 26 0 42 -5 45 -15 4 -8 17
-15 30 -15 17 0 27 -8 34 -24 6 -16 20 -26 47 -31 21 -5 43 -8 49 -7 44 7 23
-83 -21 -94 -24 -6 -29 -14 -26 -41 1 -8 -9 -13 -22 -13 -14 0 -27 -7 -31 -15
-3 -8 -12 -15 -21 -15 -18 0 -46 -15 -95 -50 -58 -42 -87 -53 -120 -46 -26 5
-37 1 -61 -23 -47 -47 -39 -57 40 -56 54 1 74 6 96 23 15 12 33 22 39 22 6 0
23 11 38 24 14 14 41 33 59 43 19 10 44 28 57 41 12 12 30 22 40 22 9 0 28 12
42 26 36 38 70 58 80 48 15 -15 29 -96 20 -113 -5 -9 -18 -43 -31 -76 -12 -33
-31 -70 -42 -82 -11 -12 -21 -34 -23 -48 -1 -15 -9 -32 -17 -38 -8 -7 -23 -28
-33 -47 -10 -19 -25 -42 -32 -51 -7 -9 -14 -27 -14 -40 -1 -13 -7 -31 -14 -39
-16 -19 -2 -45 20 -37 8 3 32 -1 52 -9 35 -15 39 -14 123 19 47 19 91 36 96
39 32 11 85 52 85 64 0 8 8 14 18 14 26 0 91 52 89 70 -3 21 43 14 63 -9 8
-10 38 -32 66 -49 46 -29 58 -32 133 -32 46 0 110 7 144 16 64 16 76 12 77
-28 0 -28 43 -32 92 -10 46 21 118 82 118 100 0 6 9 16 21 22 28 16 48 33 136
118 42 39 79 72 83 72 13 0 23 -51 24 -125 4 -124 61 -180 181 -178 83 1 181
11 220 21 81 22 97 25 104 15 15 -23 112 -83 152 -93 47 -13 185 -7 287 12 32
6 71 10 89 9 18 0 63 10 99 23 l68 25 55 -21 c31 -11 70 -21 86 -23 17 -1 53
-9 80 -18 81 -26 114 -30 130 -17 12 10 18 10 29 0 17 -13 237 -8 321 8 56 10
120 36 130 52 3 5 19 10 36 10 19 0 29 5 29 15 0 9 8 19 18 23 26 10 82 59 82
71 0 14 -23 14 -37 0 -7 -7 -27 -13 -45 -14 -21 -2 -40 -12 -53 -29 -15 -18
-30 -26 -54 -26 -18 0 -54 -9 -80 -21 -43 -18 -62 -20 -192 -15 -79 2 -173 10
-209 15 -36 6 -85 15 -110 19 -42 6 -45 9 -48 40 -3 28 0 32 20 32 29 0 144
107 173 160 11 21 35 62 52 91 27 44 33 64 33 113 0 55 -2 61 -40 98 l-40 40
-65 -4 c-40 -3 -72 -12 -83 -21 -10 -9 -42 -22 -71 -29 -62 -14 -107 -53 -168
-148 -28 -42 -48 -87 -58 -133 -15 -64 -15 -75 0 -135 9 -35 13 -68 8 -72 -13
-12 -83 -32 -122 -36 -20 -1 -85 -7 -146 -13 -109 -10 -111 -10 -168 17 -50
23 -57 30 -55 52 2 18 14 30 39 42 20 9 46 29 57 43 11 14 24 25 28 26 14 0
106 114 127 156 11 21 23 40 28 43 16 11 39 93 39 139 0 62 -31 125 -67 139
-51 19 -148 0 -205 -39 -14 -11 -30 -19 -35 -19 -31 -1 -143 -160 -143 -203 0
-10 -8 -29 -17 -43 -12 -20 -18 -56 -21 -141 -4 -94 -7 -116 -21 -120 -9 -3
-27 -10 -40 -16 -14 -7 -73 -12 -143 -12 -133 0 -128 -2 -152 77 -17 56 -6
125 45 279 36 108 35 149 -5 149 -12 0 -36 -11 -52 -25 -16 -14 -32 -25 -36
-25 -4 0 -9 -8 -12 -18 -3 -10 -20 -26 -37 -36 -16 -10 -35 -28 -41 -41 -11
-25 -54 -49 -63 -35 -3 4 1 35 8 67 15 60 8 97 -19 107 -23 9 -84 -23 -94 -48
-5 -14 -15 -28 -23 -33 -16 -9 -57 -85 -57 -106 0 -7 -11 -28 -24 -45 -13 -18
-32 -54 -41 -80 -25 -66 -51 -97 -96 -118 -22 -9 -39 -21 -39 -25 0 -5 -23
-15 -52 -24 -58 -17 -208 -21 -208 -5 0 6 -6 10 -13 10 -40 0 -58 152 -24 203
37 57 87 160 87 181 0 12 -5 27 -12 34 -14 14 -58 16 -58 4 0 -5 -11 -14 -25
-20 -14 -6 -25 -20 -25 -30 0 -11 -10 -30 -23 -44 -12 -13 -31 -51 -41 -83
-29 -93 -49 -135 -62 -135 -13 0 -24 -31 -24 -68 0 -19 -4 -22 -20 -17 -21 7
-80 -19 -80 -35 0 -6 -5 -10 -10 -10 -6 0 -32 -16 -60 -35 -27 -19 -65 -36
-84 -38 -20 -2 -41 -9 -49 -15 -7 -6 -18 -8 -24 -4 -16 10 2 62 42 122 17 25
44 74 60 110 17 36 33 67 37 70 22 17 6 215 -18 224 -25 10 -15 55 36 151 28
52 50 104 50 114 0 11 5 23 10 26 16 10 12 108 -6 151 -28 69 -63 104 -133
136 -52 23 -81 30 -139 30 -40 1 -75 5 -78 10 -3 4 11 41 31 83 32 65 35 79
27 108 -6 17 -13 48 -16 68 -4 19 -17 51 -31 69 -14 19 -25 38 -25 42 0 14
-98 108 -111 108 -7 0 -25 12 -40 26 -16 15 -47 30 -71 35 -60 11 -186 11
-193 -1z m180 -112 c28 -12 52 -26 55 -29 3 -3 15 -11 28 -18 12 -6 22 -18 22
-25 0 -8 7 -19 15 -26 8 -6 26 -37 41 -68 29 -64 29 -131 -1 -189 -18 -37
-104 -117 -149 -140 -17 -9 -33 -19 -36 -22 -9 -11 -80 -41 -98 -41 -9 0 -55
-14 -102 -31 -47 -16 -94 -28 -106 -25 -31 8 -60 78 -46 113 25 64 45 162 71
348 l16 120 47 25 c67 37 173 40 243 8z m393 -504 c33 -1 58 -8 65 -17 7 -9
23 -17 37 -19 31 -4 37 -31 35 -158 -2 -85 -4 -99 -29 -135 -14 -22 -32 -49
-39 -59 -25 -40 -49 -58 -70 -53 -29 6 -216 74 -247 89 -36 18 -80 68 -86 98
-3 14 -7 33 -9 42 -7 35 27 119 61 152 43 42 145 78 194 69 19 -3 59 -7 88 -9z
m2129 -535 c2 -54 -2 -71 -17 -90 -11 -12 -20 -28 -20 -36 0 -7 -11 -31 -25
-53 -14 -22 -25 -44 -25 -49 0 -5 -10 -11 -22 -13 -14 -2 -24 -11 -26 -23 -1
-11 -16 -28 -32 -37 -18 -10 -30 -25 -30 -38 0 -18 -5 -21 -37 -18 l-38 3 1
61 c1 86 49 233 90 278 18 19 34 39 35 43 8 18 76 43 109 41 l35 -3 2 -66z
m684 -36 c10 -28 0 -87 -22 -123 -5 -8 -15 -26 -22 -40 -22 -45 -49 -80 -62
-80 -7 0 -16 -11 -19 -25 -4 -15 -21 -32 -44 -43 -20 -11 -52 -27 -70 -38
l-32 -19 -25 30 c-22 27 -24 36 -19 90 4 33 12 67 19 75 7 8 22 36 33 63 12
26 25 47 29 47 5 0 26 16 47 35 42 38 79 53 139 54 32 1 39 -3 48 -26z"/>
<path d="M14466 6737 l-38 -11 6 -66 c3 -36 9 -75 12 -87 7 -26 24 -31 24 -7
0 12 7 15 30 12 l29 -4 -6 44 -6 45 74 -6 c41 -3 83 -8 94 -11 11 -2 40 -9 65
-15 25 -6 62 -11 82 -11 20 0 40 -4 43 -10 3 -5 17 -10 30 -10 13 0 26 -4 29
-9 4 -5 37 -21 76 -36 38 -14 80 -35 94 -46 13 -10 30 -19 36 -19 20 0 130
-77 185 -128 28 -26 67 -60 88 -75 20 -15 37 -34 37 -42 0 -7 3 -15 8 -17 12
-5 48 -60 77 -118 71 -140 85 -282 41 -425 -31 -103 -112 -249 -158 -283 -10
-7 -18 -18 -18 -23 0 -14 -53 -79 -65 -79 -5 0 -21 -11 -35 -25 -82 -81 -146
-139 -179 -160 -21 -13 -43 -37 -50 -53 -7 -16 -28 -38 -49 -48 -29 -16 -38
-27 -40 -52 -3 -26 -8 -32 -27 -32 -14 0 -26 -7 -29 -18 -4 -11 -17 -25 -31
-32 -27 -15 -42 -76 -30 -128 7 -35 19 -47 56 -56 39 -9 55 15 41 60 -8 26 -7
43 2 64 13 33 113 138 202 215 32 28 65 57 74 65 9 8 38 33 65 54 28 22 60 49
72 60 99 95 148 148 171 186 14 25 34 53 44 64 30 33 98 183 118 261 16 61 18
236 3 287 -6 21 -20 56 -32 78 -11 22 -18 40 -16 40 3 0 -6 21 -19 48 -24 44
-58 85 -165 200 -43 45 -156 132 -173 132 -5 0 -31 16 -58 35 -56 39 -72 46
-293 122 -87 29 -162 51 -168 48 -5 -4 -9 -16 -9 -28 0 -22 -1 -21 -23 4 -27
31 -46 39 -72 29 -11 -4 -26 -3 -34 4 -8 6 -28 12 -45 13 -17 1 -47 4 -66 7
-19 2 -52 -1 -74 -7z"/>
<path d="M12685 6666 c-35 -13 -92 -62 -100 -85 -3 -9 -18 -24 -35 -33 -29
-16 -84 -92 -126 -173 -27 -52 -56 -67 -117 -60 -37 4 -49 2 -53 -10 -3 -8
-16 -15 -29 -15 -25 0 -38 -21 -28 -46 4 -11 17 -15 42 -13 41 3 81 -8 81 -22
0 -10 -19 -46 -37 -69 -12 -16 -53 -89 -84 -152 -11 -20 -19 -46 -19 -56 0
-11 -10 -34 -23 -53 -49 -72 -61 -118 -62 -238 -1 -102 -3 -114 -21 -125 -35
-20 -76 -60 -85 -83 -6 -15 -17 -23 -33 -23 -14 0 -27 -4 -30 -8 -7 -11 -135
-46 -142 -39 -19 19 5 183 32 218 11 15 39 81 49 116 7 26 -10 63 -28 63 -34
0 -134 -99 -139 -135 -2 -25 -8 -31 -35 -35 -18 -3 -45 -18 -60 -33 -60 -60
-123 -105 -158 -111 -20 -4 -39 -5 -42 -2 -10 9 6 36 25 44 31 12 112 111 112
136 0 13 7 29 15 36 18 15 20 81 3 98 -7 7 -22 12 -33 12 -24 0 -65 -34 -65
-54 0 -8 -6 -16 -14 -19 -8 -3 -17 -19 -21 -35 -3 -17 -15 -38 -27 -48 -11
-11 -29 -36 -40 -57 -40 -80 -172 -177 -240 -177 -59 0 -87 77 -92 254 -3 114
-14 132 -66 113 -32 -12 -60 3 -60 32 0 37 -40 53 -69 27 -9 -7 -37 -21 -63
-31 -28 -10 -48 -25 -51 -36 -3 -10 -14 -19 -24 -19 -10 0 -25 -10 -33 -22 -8
-12 -28 -34 -44 -49 -18 -18 -27 -33 -23 -44 5 -10 -1 -19 -17 -26 -22 -10
-55 -65 -70 -116 -4 -13 -1 -34 8 -51 15 -29 15 -29 -22 -48 -43 -22 -52 -32
-45 -51 6 -15 39 -18 48 -3 3 5 36 8 73 6 57 -2 75 1 127 26 33 17 69 38 81
49 11 10 25 19 30 19 12 0 59 50 67 73 14 37 46 7 67 -63 16 -51 45 -96 69
-105 35 -14 163 -14 189 -1 28 14 64 8 77 -13 9 -15 67 -14 90 3 11 7 31 17
44 21 14 4 46 23 73 41 26 19 52 34 58 34 5 0 15 9 22 20 18 28 85 73 97 65 7
-3 8 -28 5 -64 -7 -63 10 -112 46 -131 50 -27 207 9 300 68 25 15 53 31 63 35
11 4 21 16 24 26 6 25 51 45 69 31 7 -6 21 -10 31 -9 10 2 29 -3 42 -10 35
-20 205 -9 231 14 10 9 23 14 29 11 6 -4 41 9 77 29 77 40 94 43 118 16 15
-17 31 -19 123 -18 96 2 106 4 123 25 10 12 21 22 25 22 4 0 33 21 66 46 64
49 97 101 120 192 17 68 39 82 75 47 13 -14 29 -25 34 -25 6 0 10 -6 10 -14 0
-16 74 -46 112 -46 15 0 29 -4 33 -10 10 -16 204 -60 260 -59 11 1 67 -2 125
-6 84 -6 116 -4 159 9 30 9 77 16 104 16 32 0 58 7 75 19 15 10 37 21 49 25
23 7 39 39 28 56 -9 15 -61 12 -103 -6 -56 -25 -133 -36 -281 -38 -89 -1 -138
2 -145 10 -6 6 -19 9 -28 6 -31 -8 -191 40 -291 87 -65 31 -73 40 -122 130
-25 47 -35 56 -60 59 -41 4 -75 -33 -82 -90 -3 -23 -12 -52 -19 -63 -8 -11
-14 -28 -14 -38 0 -40 -72 -185 -108 -218 -48 -44 -126 -65 -159 -44 -32 22
-29 39 17 89 22 24 40 46 40 50 0 4 16 28 35 53 19 25 35 50 35 56 0 6 6 18
14 26 21 23 40 103 32 134 -13 52 -85 45 -142 -14 -15 -16 -33 -29 -38 -29
-31 0 -114 -170 -146 -297 -8 -31 -19 -53 -27 -53 -8 0 -42 -14 -76 -31 -84
-43 -168 -60 -228 -47 -65 15 -78 39 -46 86 13 21 38 52 56 71 17 18 31 39 31
46 0 7 7 18 15 25 8 7 15 17 15 22 0 5 15 33 34 61 19 29 42 70 51 92 9 22 26
57 36 77 10 20 19 42 19 48 0 7 9 23 20 37 11 14 20 32 20 40 0 8 11 29 25 47
14 18 25 42 25 53 0 19 10 20 228 28 125 5 254 8 286 6 33 -1 80 3 105 8 25 6
58 13 74 16 29 6 35 26 13 45 -12 9 -56 9 -198 -1 -101 -6 -195 -11 -210 -10
-40 2 -106 3 -120 1 -27 -3 -90 8 -99 17 -10 10 8 80 31 120 5 10 19 45 30 78
43 127 17 176 -75 141z m-181 -442 c14 -6 14 -10 -7 -38 -13 -17 -32 -54 -41
-83 -9 -28 -26 -61 -36 -74 -11 -12 -20 -29 -20 -37 0 -8 -13 -37 -30 -64 -16
-26 -30 -52 -30 -57 0 -4 -13 -25 -30 -46 -16 -21 -30 -42 -30 -47 0 -5 -7
-16 -15 -24 -8 -9 -15 -24 -15 -35 0 -10 -6 -19 -14 -19 -7 0 -17 -10 -21 -22
-8 -22 -8 -22 -12 4 -5 33 24 121 77 233 20 44 40 87 44 95 3 8 20 38 36 65
16 28 40 69 52 92 26 50 58 70 92 57z m-1729 -566 c12 -33 -33 -102 -127 -200
-36 -36 -60 -8 -34 39 8 15 22 42 30 59 16 32 99 114 116 114 6 0 13 -6 15
-12z"/>
<path d="M17567 6663 c-38 -4 -122 -49 -162 -85 -16 -15 -63 -54 -140 -117 -5
-4 -23 -25 -40 -46 -16 -20 -41 -49 -54 -64 -13 -14 -31 -37 -40 -51 -21 -33
-40 -56 -73 -92 -16 -16 -28 -33 -28 -39 0 -12 -41 -71 -57 -82 -6 -4 -17 -24
-23 -45 -7 -20 -18 -42 -26 -48 -8 -6 -25 -36 -38 -67 -14 -30 -29 -57 -34
-58 -13 -6 -62 -97 -62 -117 0 -9 -9 -32 -20 -50 -11 -18 -20 -39 -20 -48 0
-22 -58 -71 -92 -78 -17 -3 -41 -17 -53 -30 -28 -31 -126 -53 -162 -37 -50 23
-53 91 -7 189 35 73 30 92 -27 106 -25 7 -64 27 -86 45 -23 18 -57 36 -75 40
-48 10 -133 -4 -165 -27 -15 -11 -43 -23 -60 -27 -18 -3 -33 -13 -33 -21 0 -7
-12 -16 -27 -19 -52 -11 -117 -50 -175 -106 -32 -30 -58 -61 -58 -67 0 -7 -4
-12 -10 -12 -5 0 -10 -9 -10 -20 0 -11 -11 -27 -24 -35 -36 -24 -54 -70 -61
-161 l-7 -81 32 -37 c22 -25 38 -35 50 -31 10 3 21 2 24 -4 3 -5 33 -12 67
-16 50 -6 63 -4 80 11 10 9 19 25 19 36 0 15 -8 18 -45 18 -92 0 -145 59 -123
137 18 66 55 129 103 174 26 24 53 56 61 72 8 15 22 27 31 27 9 0 27 10 39 21
38 35 120 79 164 86 96 16 98 16 138 -31 36 -43 42 -112 12 -146 -11 -13 -20
-29 -20 -36 0 -17 -32 -77 -46 -86 -7 -4 -15 -23 -18 -41 -5 -26 -14 -36 -41
-47 -19 -8 -35 -17 -35 -22 0 -4 -5 -8 -11 -8 -13 0 -66 -40 -59 -45 7 -5 -46
-45 -59 -45 -6 0 -11 -4 -11 -10 0 -5 -8 -10 -17 -10 -10 0 -27 -7 -37 -15
-19 -14 -18 -15 17 -15 20 0 37 5 37 11 0 7 9 9 23 5 24 -6 131 57 208 123 20
17 42 31 48 31 7 0 25 6 40 14 25 13 34 13 89 -4 67 -21 93 -19 183 11 30 10
62 19 71 19 8 0 26 9 38 20 31 27 54 22 57 -12 2 -24 37 -117 45 -119 2 0 38
-3 80 -5 58 -4 86 -1 115 11 41 18 149 70 173 83 61 35 80 37 80 8 0 -7 14
-25 31 -42 29 -28 35 -29 128 -32 68 -1 111 3 141 13 23 8 53 15 66 15 13 0
45 11 71 24 27 14 62 30 78 37 17 8 41 21 54 31 41 31 59 23 85 -34 12 -29 30
-59 38 -66 19 -15 110 -19 186 -8 53 8 147 61 166 95 5 9 24 30 43 47 18 17
33 36 33 42 0 19 7 15 60 -38 28 -27 57 -50 65 -50 8 0 19 -9 25 -19 5 -11 20
-23 32 -26 13 -4 34 -17 48 -30 14 -12 41 -29 60 -37 160 -68 191 -78 250 -83
147 -14 212 -1 218 43 3 19 -1 22 -30 23 -18 1 -37 0 -43 -2 -27 -7 -203 25
-219 41 -6 6 -22 10 -37 10 -15 0 -31 5 -34 11 -4 5 -17 15 -28 20 -43 19 -71
38 -87 57 -8 11 -39 35 -67 55 -94 63 -134 131 -135 227 0 33 -6 67 -12 76
-11 14 -16 14 -47 1 -52 -21 -61 -39 -60 -111 1 -80 -14 -101 -151 -221 -81
-71 -136 -76 -156 -15 -16 49 12 112 78 170 33 29 60 57 60 63 0 5 11 32 25
59 28 55 22 78 -20 78 -43 0 -135 -53 -135 -77 0 -5 -18 -27 -40 -48 -22 -21
-40 -45 -40 -53 0 -16 -113 -132 -128 -132 -5 0 -15 -6 -21 -14 -7 -8 -27 -18
-44 -22 -18 -3 -36 -9 -42 -13 -5 -3 -30 -10 -54 -16 -45 -10 -68 -35 -34 -35
15 -1 13 -3 -7 -14 -20 -12 -26 -12 -35 -1 -8 11 -26 12 -89 5 -65 -8 -85 -7
-113 6 -27 13 -33 22 -33 48 0 37 22 65 72 95 20 12 39 28 42 36 3 8 13 15 21
15 23 0 266 246 312 316 44 66 57 85 98 144 17 23 38 54 47 69 10 14 29 40 43
56 l25 31 277 -3 c153 -1 310 -6 350 -12 52 -8 80 -8 100 0 15 6 66 10 113 9
47 -1 94 -1 105 0 11 1 51 1 90 1 42 0 72 5 77 12 11 17 0 27 -32 27 -16 0
-39 4 -52 9 -13 5 -126 11 -251 14 -125 3 -232 9 -239 13 -7 5 -87 9 -178 10
-191 2 -275 11 -291 30 -11 14 -6 28 37 104 18 33 18 60 -2 88 -25 37 -83 27
-174 -27 -41 -25 -77 -49 -79 -55 -2 -5 -19 -25 -37 -43 -19 -18 -41 -45 -50
-58 -15 -23 -23 -25 -90 -25 -67 0 -74 2 -74 20 0 11 15 42 33 68 19 26 36 58
39 72 3 14 12 39 19 57 9 23 10 40 3 60 -10 30 -29 34 -107 26z m-32 -143 c4
-6 1 -18 -7 -27 -7 -9 -20 -34 -29 -57 -13 -31 -27 -46 -60 -63 -24 -12 -55
-21 -70 -21 -14 1 -31 -2 -38 -6 -6 -4 -16 -4 -22 -1 -14 9 110 130 165 161
46 27 52 28 61 14z m-245 -242 c0 -5 9 -22 21 -37 19 -26 20 -31 6 -57 -9 -16
-35 -51 -59 -79 -25 -27 -62 -70 -84 -94 -21 -25 -69 -75 -106 -112 -38 -37
-68 -72 -68 -78 0 -6 -4 -11 -9 -11 -6 0 -24 -14 -40 -32 -17 -18 -33 -29 -37
-25 -8 8 22 72 48 103 10 11 31 47 47 80 16 33 36 66 45 73 9 7 16 19 16 26 0
7 7 18 15 25 8 6 25 36 39 65 13 29 41 71 62 93 22 22 47 52 57 67 15 21 22
24 33 14 8 -6 14 -16 14 -21z m296 -4 c19 -5 20 -9 10 -30 -6 -13 -18 -24 -26
-24 -22 0 -40 -20 -40 -45 0 -11 -28 -54 -62 -95 -106 -126 -218 -308 -218
-353 0 -12 -9 -39 -20 -60 -11 -20 -20 -46 -20 -56 0 -38 -13 -52 -75 -81 -34
-16 -65 -36 -68 -45 -4 -8 -15 -15 -26 -15 -11 0 -24 -6 -28 -14 -8 -13 -40
-24 -104 -33 -42 -6 -54 6 -68 67 -9 41 -8 48 16 83 15 21 40 49 57 63 85 68
118 98 223 200 62 62 113 117 113 124 0 18 48 72 82 92 16 10 33 29 38 42 5
13 27 41 49 63 21 21 41 49 43 63 2 17 14 31 38 42 37 19 52 21 86 12z m248
-10 c23 -9 20 -23 -9 -46 -14 -11 -25 -25 -25 -31 0 -7 -14 -27 -30 -46 -17
-18 -30 -39 -30 -46 0 -6 -11 -22 -25 -35 -14 -13 -25 -31 -25 -41 0 -9 -17
-29 -37 -45 -47 -35 -46 -34 -112 -116 -30 -38 -58 -68 -62 -68 -4 0 -10 -9
-14 -19 -3 -11 -20 -29 -38 -40 -18 -11 -40 -26 -49 -33 -9 -7 -20 -9 -23 -6
-6 6 21 67 34 78 3 3 23 39 44 80 20 41 54 94 75 117 20 23 62 74 92 113 30
38 61 70 68 70 7 0 16 8 19 18 11 28 64 91 82 95 26 7 48 7 65 1z"/>
<path d="M2535 6425 c-30 -29 -31 -49 -6 -74 11 -11 25 -29 31 -41 18 -34 57
-43 104 -24 23 8 44 20 47 26 4 6 -11 37 -33 68 -29 43 -47 59 -70 64 -45 9
-47 8 -73 -19z"/>
<path d="M15035 6374 c-46 -48 -110 -183 -97 -204 15 -24 49 -24 57 -1 16 51
60 3 70 -75 7 -51 -15 -189 -55 -354 -11 -47 -23 -103 -27 -125 -3 -22 -9 -44
-13 -50 -4 -5 -12 -32 -19 -60 -6 -27 -16 -72 -22 -100 -21 -91 -28 -270 -11
-287 14 -14 71 -13 85 1 7 7 12 53 14 118 2 74 9 126 23 169 11 35 20 69 20
76 0 7 11 49 24 93 73 238 71 225 52 276 -20 58 -20 56 6 55 21 -1 24 6 35 74
20 130 17 265 -9 381 -7 32 -30 49 -65 49 -27 0 -42 -8 -68 -36z"/>
<path d="M9091 5999 c-13 -5 -50 -37 -82 -70 -81 -84 -91 -129 -28 -129 19 0
40 10 56 26 20 20 32 24 52 19 59 -14 82 -17 106 -11 23 6 24 9 18 54 -3 26
-17 64 -30 85 -24 39 -45 45 -92 26z"/>
<path d="M7723 5901 c-18 -9 -33 -20 -33 -26 0 -5 -13 -19 -29 -29 -31 -21
-85 -113 -95 -162 -7 -29 -4 -33 34 -53 22 -11 56 -21 76 -21 58 0 123 -20
129 -41 3 -10 -1 -39 -9 -64 -9 -25 -16 -53 -16 -61 0 -25 -62 -94 -107 -121
-24 -14 -43 -31 -43 -38 0 -7 -25 -20 -56 -30 -30 -9 -58 -24 -61 -31 -8 -21
-61 -17 -90 6 -19 15 -30 17 -43 10 -10 -6 -31 -10 -45 -10 -24 0 -26 -3 -23
-37 5 -57 45 -80 137 -77 l71 1 72 65 c40 36 83 68 94 72 12 4 29 15 39 26 10
11 24 20 30 20 17 0 95 86 95 105 0 8 9 29 20 47 11 18 20 42 20 53 0 11 9 39
19 62 l19 41 104 -3 c105 -2 141 -8 191 -28 26 -12 27 -14 27 -90 0 -65 -5
-88 -29 -140 -16 -34 -32 -73 -35 -87 -4 -14 -11 -34 -16 -45 -53 -128 -96
-344 -72 -359 12 -7 88 18 146 48 27 14 56 26 64 26 7 0 26 9 41 19 14 10 45
24 68 30 23 6 55 23 71 36 17 14 40 25 51 25 12 0 32 11 45 25 30 32 61 32 82
-1 9 -14 29 -31 43 -38 27 -14 204 -24 231 -13 8 3 35 11 60 17 58 15 74 28
59 46 -8 10 -16 11 -29 4 -10 -5 -31 -7 -47 -4 -17 3 -45 -1 -66 -10 -36 -14
-38 -14 -63 10 -15 13 -39 24 -54 24 -31 0 -50 32 -50 83 0 40 59 218 94 283
31 58 32 74 8 104 l-17 22 -19 -21 c-11 -12 -29 -21 -40 -21 -14 0 -34 -17
-57 -47 -45 -61 -66 -114 -74 -185 -7 -59 -33 -122 -73 -173 -31 -40 -90 -78
-109 -71 -9 4 -34 -2 -57 -13 -79 -38 -146 -61 -161 -55 -17 7 -19 19 -6 60 5
16 17 56 26 89 17 59 37 114 55 147 17 31 41 140 41 187 1 68 -21 122 -58 147
-51 34 -129 55 -217 59 -45 2 -93 8 -108 13 -25 10 -26 13 -21 70 7 71 -4 95
-57 122 -47 24 -130 25 -177 1z m108 -81 c14 -8 19 -21 19 -53 0 -35 -6 -49
-29 -71 -28 -26 -31 -27 -46 -12 -9 9 -27 19 -41 22 -33 8 -30 28 12 80 38 46
52 51 85 34z"/>
<path d="M15982 3609 c-20 -6 -36 -19 -42 -34 -6 -17 -14 -23 -25 -19 -11 5
-32 -10 -66 -45 -27 -28 -53 -51 -57 -51 -14 0 -162 -150 -186 -189 -13 -20
-33 -45 -45 -55 -11 -11 -21 -30 -21 -43 0 -17 -8 -27 -28 -34 -22 -7 -43 -35
-89 -117 -80 -140 -79 -139 -86 -197 -3 -28 -13 -71 -21 -95 -9 -25 -21 -76
-26 -114 -6 -39 -13 -72 -16 -75 -3 -3 -14 0 -24 7 -21 13 -72 16 -83 5 -9 -9
23 -43 40 -43 26 0 10 -44 -22 -59 -16 -9 -50 -27 -75 -41 -37 -20 -90 -38
-175 -60 -5 -1 -20 -2 -32 -1 -30 1 -32 41 -3 48 11 3 20 8 20 12 0 4 22 20
49 36 54 31 71 60 39 68 -23 7 -138 -43 -167 -72 -12 -12 -28 -21 -36 -21 -8
0 -15 -9 -15 -20 0 -11 -9 -28 -20 -37 -29 -25 -25 -47 16 -78 32 -25 41 -27
87 -21 48 6 93 18 142 36 11 4 40 13 65 20 25 6 69 26 98 42 82 47 119 52 167
24 78 -46 225 -54 261 -15 11 12 31 19 53 19 20 0 45 7 55 15 11 8 29 15 40
15 12 0 35 9 51 20 40 27 64 25 75 -5 19 -49 61 -63 184 -61 89 1 120 6 156
22 25 12 65 30 90 40 24 10 73 40 109 66 36 27 69 48 74 48 8 0 20 -27 36 -85
12 -43 57 -98 106 -130 66 -43 228 -15 329 57 22 15 48 28 57 28 10 0 24 8 31
18 15 22 73 52 99 52 28 0 32 -17 18 -87 -14 -72 -32 -91 -91 -99 -18 -2 -62
-9 -98 -14 -36 -6 -101 -12 -145 -15 -44 -3 -96 -9 -115 -15 -19 -5 -96 -14
-170 -20 -127 -10 -201 -29 -282 -71 -10 -5 -25 -9 -34 -9 -10 0 -33 -12 -53
-27 -58 -45 -101 -73 -111 -73 -6 0 -10 -6 -10 -12 -1 -16 -39 -59 -66 -74
-10 -6 -20 -21 -22 -33 -2 -11 -9 -21 -16 -21 -16 0 -85 -90 -108 -140 -39
-86 -49 -107 -63 -130 -8 -14 -15 -33 -15 -42 0 -10 -4 -18 -10 -18 -5 0 -10
-7 -10 -15 0 -8 7 -15 15 -15 17 0 46 45 122 189 10 19 36 54 58 78 59 63 95
109 95 122 0 6 12 17 28 25 15 8 41 29 59 45 18 17 38 31 45 31 7 0 30 11 50
25 20 14 42 25 48 25 5 0 18 4 28 9 15 9 92 28 207 51 22 5 83 11 135 15 52 3
114 10 137 15 23 6 79 12 125 15 46 2 104 10 131 17 62 16 71 6 56 -58 -6 -27
-15 -57 -20 -66 -5 -10 -9 -24 -9 -32 0 -8 -6 -27 -14 -43 -7 -15 -20 -44 -29
-63 -8 -19 -24 -56 -36 -82 -12 -26 -21 -52 -21 -57 0 -5 -3 -11 -7 -13 -5 -2
-19 -25 -32 -53 -38 -80 -37 -77 -70 -142 -3 -6 -25 -39 -48 -73 -24 -34 -43
-74 -43 -89 0 -46 -12 -71 -34 -77 -14 -3 -27 -19 -35 -42 -8 -20 -22 -46 -32
-57 -10 -11 -28 -43 -40 -70 -24 -54 -33 -66 -67 -84 -16 -9 -22 -21 -22 -46
0 -24 -6 -39 -20 -47 -11 -7 -20 -18 -20 -24 0 -11 -54 -54 -68 -54 -10 0 -52
-43 -52 -53 0 -4 -20 -27 -44 -51 -30 -29 -57 -46 -83 -51 -21 -4 -61 -18 -89
-31 -28 -13 -59 -21 -68 -18 -10 4 -25 -1 -37 -12 -20 -18 -21 -18 -38 4 -14
19 -25 23 -65 21 -37 -2 -50 1 -58 14 -5 10 -25 24 -44 32 -19 8 -37 22 -40
32 -4 10 -17 41 -29 68 -30 64 -36 96 -41 230 -5 125 -11 175 -23 175 -16 0
-37 -182 -24 -203 4 -7 9 -21 9 -32 1 -11 6 -42 12 -70 6 -27 8 -54 5 -58 -10
-16 48 -114 88 -151 62 -58 124 -84 217 -92 72 -6 82 -5 82 10 0 18 21 21 37
5 20 -20 173 35 173 62 0 5 5 9 11 9 35 0 219 160 219 191 0 5 6 9 13 9 14 0
155 193 209 286 18 30 41 68 50 82 10 15 24 43 33 62 9 19 23 42 32 52 9 10
22 28 29 41 18 31 106 198 148 281 20 38 40 74 44 80 5 6 19 38 30 71 12 33
31 85 43 115 11 30 28 78 37 105 19 58 47 105 63 105 26 0 296 126 321 150 10
9 38 27 63 39 44 22 47 22 72 6 22 -15 40 -17 107 -12 44 4 84 11 90 17 5 5
20 10 32 10 12 0 32 8 45 19 41 31 77 32 113 2 61 -52 79 -56 235 -55 139 1
160 4 316 43 22 5 50 21 62 35 14 17 32 26 52 26 31 0 52 15 134 96 51 49 89
93 127 144 46 62 40 -32 -17 -250 -22 -81 -25 -332 -5 -351 6 -7 12 -22 12
-34 0 -26 56 -120 96 -159 110 -110 216 -206 228 -206 7 0 19 -7 26 -15 19
-23 76 -47 102 -43 16 2 28 -5 40 -24 29 -46 82 -33 57 13 -14 27 -75 89 -87
89 -5 0 -24 14 -42 30 -18 17 -43 30 -55 30 -14 0 -27 10 -36 28 -7 15 -20 34
-29 43 -8 9 -28 33 -45 53 -16 20 -45 52 -62 71 -18 19 -33 41 -33 48 0 8 -9
22 -20 32 -11 10 -20 26 -20 35 0 10 -7 34 -15 54 -18 42 -19 217 -1 251 5 11
13 38 17 60 4 22 15 74 25 115 21 93 20 176 -5 210 -10 14 -26 40 -35 58 -16
31 -16 37 -2 73 22 55 20 94 -10 157 -47 100 -111 146 -269 193 -22 6 -50 15
-63 20 -56 22 -190 -5 -217 -44 -18 -25 -20 -80 -4 -109 9 -16 17 -19 45 -13
37 7 44 -1 17 -20 -15 -11 -15 -15 -4 -29 7 -9 22 -16 33 -16 10 0 21 -6 24
-14 3 -8 19 -18 35 -21 18 -4 35 -17 41 -30 7 -16 22 -25 47 -29 20 -3 47 -15
58 -26 12 -11 25 -20 29 -20 3 0 26 -12 49 -27 50 -32 68 -82 41 -112 -9 -10
-16 -22 -16 -27 0 -6 -13 -23 -30 -39 -16 -16 -30 -36 -30 -45 0 -8 -12 -23
-27 -32 -16 -9 -48 -35 -72 -57 -24 -23 -50 -41 -58 -41 -7 0 -13 -4 -13 -10
0 -5 -17 -16 -37 -26 -21 -9 -54 -24 -73 -34 -19 -10 -41 -15 -47 -13 -7 3
-36 -2 -65 -10 -92 -24 -298 -9 -319 24 -5 8 -11 28 -15 46 -5 26 3 45 45 114
44 72 51 90 51 134 0 28 -6 59 -13 69 -12 16 -16 16 -68 -3 -50 -19 -59 -27
-82 -74 -14 -28 -31 -74 -37 -101 -13 -59 -38 -104 -62 -112 -10 -3 -18 -11
-18 -17 0 -20 -58 -47 -115 -53 -61 -7 -105 1 -105 19 0 6 27 44 61 82 72 83
104 136 113 188 12 65 -39 114 -74 72 -7 -8 -19 -15 -27 -15 -19 0 -143 -119
-143 -137 0 -7 -7 -16 -15 -19 -14 -6 -39 -78 -48 -141 -5 -33 -54 -103 -72
-103 -6 0 -18 -9 -28 -20 -10 -12 -22 -18 -27 -15 -11 7 -80 -32 -80 -44 0 -8
-17 -12 -116 -28 -18 -3 -34 -1 -37 4 -6 10 17 114 37 168 8 22 15 48 16 57 0
10 12 42 26 71 26 52 26 55 9 80 -29 46 -73 28 -117 -48 -13 -22 -33 -55 -43
-73 -13 -21 -31 -35 -48 -39 -15 -3 -32 -14 -38 -24 -5 -11 -16 -19 -24 -19
-7 0 -30 -16 -51 -35 -72 -68 -241 -133 -311 -120 -70 13 -90 30 -108 91 -14
48 -15 68 -5 128 7 39 21 90 32 114 26 56 19 92 -20 92 -44 0 -65 -23 -96
-104 -16 -42 -35 -76 -43 -76 -7 0 -23 -12 -36 -26 -12 -14 -46 -42 -75 -61
-30 -21 -55 -45 -58 -59 -5 -19 -13 -24 -38 -25 -43 -2 -45 -2 -101 -21 -27
-9 -63 -17 -80 -17 -16 0 -43 0 -59 0 -34 0 -96 34 -96 53 0 13 31 46 43 46
24 0 217 219 217 245 0 8 6 20 13 27 8 7 23 41 35 75 l21 61 -26 47 c-24 44
-28 47 -57 41 -17 -4 -50 -20 -73 -36 -23 -17 -46 -30 -52 -30 -17 0 -188
-179 -194 -203 -54 -230 -74 -276 -123 -277 -11 0 -24 -4 -30 -9 -24 -22 -164
-61 -226 -64 -62 -2 -69 0 -97 27 -36 34 -38 44 -13 53 9 3 24 12 32 19 8 8
31 27 51 44 20 16 44 46 53 65 10 21 24 35 35 35 17 0 131 110 131 127 0 4 20
29 45 55 25 27 45 54 45 60 0 7 15 30 33 51 55 65 77 95 77 106 0 6 16 28 35
50 19 21 35 48 35 59 0 12 9 26 20 32 11 6 20 15 20 20 0 5 13 31 28 57 16 27
32 62 36 78 4 17 13 44 21 60 30 71 36 111 19 144 -25 50 -60 61 -132 40z m88
-63 c0 -8 -5 -18 -11 -21 -6 -4 -7 -19 -4 -36 4 -16 3 -29 -2 -29 -5 0 -17
-14 -27 -30 -13 -23 -16 -41 -11 -70 5 -28 2 -46 -9 -62 -16 -23 -16 -22 -10
12 l6 35 -21 -30 c-11 -16 -21 -38 -21 -48 0 -11 -9 -30 -20 -44 -11 -14 -20
-31 -20 -38 0 -20 -64 -114 -77 -114 -13 -1 -93 -112 -93 -129 0 -5 -36 -42
-80 -83 -44 -41 -80 -78 -80 -82 0 -17 -39 -58 -79 -85 -22 -15 -60 -47 -85
-70 -48 -46 -71 -47 -63 -3 12 55 36 131 60 182 14 30 42 90 62 133 20 44 45
91 56 105 34 44 89 125 96 141 3 8 27 38 52 65 25 28 75 83 111 123 36 39 70
72 76 72 6 0 16 11 22 25 6 14 18 25 26 25 8 0 21 9 29 21 14 19 75 48 105 49
6 0 12 -6 12 -14z m2825 -268 c4 -10 10 -18 14 -18 4 0 18 -9 31 -20 13 -11
36 -20 52 -20 24 0 28 -3 23 -19 -6 -19 17 -51 36 -51 6 0 9 -26 7 -62 -3 -60
-4 -63 -30 -66 -16 -2 -35 4 -46 15 -31 30 -53 43 -132 78 -82 36 -164 108
-172 150 -4 24 28 32 134 32 67 0 78 -3 83 -19z m-2691 -357 c7 -11 -55 -153
-77 -175 -9 -10 -15 -22 -12 -27 6 -9 -7 -13 -32 -10 -6 1 -13 -9 -15 -21 -2
-14 -21 -35 -52 -55 -84 -57 -93 -44 -46 62 17 37 30 73 30 79 0 15 58 78 115
123 39 32 78 42 89 24z"/>
<path d="M5112 3578 c-16 -16 -15 -76 1 -92 50 -49 93 -57 152 -29 26 12 35
23 35 41 0 26 -35 61 -61 62 -9 0 -22 7 -29 15 -15 18 -81 20 -98 3z"/>
<path d="M6675 3390 c-3 -5 -15 -10 -25 -10 -13 0 -33 -25 -65 -82 -25 -46
-66 -114 -90 -153 -24 -38 -44 -80 -44 -92 -1 -13 -5 -23 -9 -23 -10 0 -72
-93 -72 -107 0 -6 -9 -18 -20 -28 -11 -10 -45 -59 -75 -109 -31 -50 -76 -118
-101 -151 -24 -33 -51 -74 -59 -91 -8 -17 -25 -38 -38 -47 -13 -9 -34 -42 -47
-74 -13 -32 -27 -62 -31 -68 -28 -39 -51 -95 -56 -137 -3 -28 -12 -52 -19 -55
-8 -3 -14 -13 -14 -23 0 -11 -10 -20 -27 -25 -15 -3 -30 -11 -33 -16 -4 -5
-41 -12 -82 -15 l-77 -6 -5 34 c-13 88 -14 113 -5 166 8 47 6 63 -8 94 -22 47
-30 50 -73 29 -24 -11 -38 -27 -46 -51 -11 -34 -65 -80 -94 -80 -8 0 -21 -9
-27 -20 -14 -21 -83 -46 -107 -37 -13 5 -13 14 5 74 25 88 24 133 -2 167 -21
27 -57 34 -76 15 -6 -6 -21 -9 -34 -7 -18 2 -24 9 -24 28 0 23 -3 25 -35 22
-42 -5 -89 -47 -90 -81 0 -36 -50 -121 -67 -114 -11 4 -12 16 -6 52 4 25 7 60
8 76 0 29 -1 30 -45 27 -49 -3 -79 -29 -80 -69 0 -12 -8 -30 -19 -40 -21 -21
-64 -104 -92 -179 -25 -67 -42 -84 -109 -112 -30 -13 -69 -30 -86 -37 -28 -13
-33 -12 -51 4 -11 10 -29 21 -40 25 -15 5 -22 18 -27 52 -8 64 2 118 35 191
16 34 29 66 29 71 0 5 9 17 20 27 24 22 26 55 4 55 -9 0 -28 -6 -42 -14 -15
-8 -35 -17 -44 -20 -9 -3 -22 -24 -29 -48 -7 -24 -19 -50 -28 -58 -34 -32 -57
-202 -28 -213 7 -3 4 -6 -6 -6 -10 -1 -17 -4 -15 -8 2 -5 12 -25 21 -45 10
-21 23 -38 29 -38 6 0 21 -9 33 -20 30 -28 125 -34 188 -12 38 14 51 14 67 4
34 -21 79 -15 103 14 51 61 92 93 127 100 49 9 95 38 98 62 2 14 10 22 22 22
21 0 40 27 41 57 0 10 12 28 27 41 15 12 40 33 56 47 31 27 36 28 60 19 22 -9
20 -28 -9 -74 -26 -42 -48 -101 -59 -159 -11 -60 27 -82 114 -65 20 4 36 16
42 30 6 13 18 24 26 24 17 0 95 58 161 119 24 23 52 41 61 41 12 0 21 10 25
30 4 17 13 30 21 30 19 0 18 -16 -1 -24 -8 -3 -15 -17 -15 -30 0 -18 4 -24 15
-20 8 4 15 3 15 -1 0 -3 -7 -13 -15 -21 -24 -24 -18 -43 12 -41 33 2 44 -28
17 -47 -15 -12 -15 -13 -1 -19 10 -4 14 -12 11 -22 -4 -9 0 -21 9 -28 8 -7 17
-21 19 -32 4 -27 80 -39 123 -20 17 8 41 17 55 21 13 3 30 13 38 20 7 8 19 14
27 14 7 0 15 7 19 15 3 8 11 15 17 15 6 0 41 25 76 55 36 30 70 55 77 55 7 0
23 11 36 25 13 14 27 25 32 25 5 0 39 20 75 45 36 25 71 44 77 42 6 -2 14 -30
17 -63 12 -128 76 -244 135 -244 14 0 48 -7 75 -16 38 -13 67 -15 122 -10 40
4 86 6 102 5 66 -6 172 -2 210 8 100 26 160 67 225 155 19 26 40 48 47 48 7 0
30 -17 52 -38 73 -70 121 -103 196 -137 41 -19 81 -32 90 -29 8 3 27 -3 42
-14 34 -23 109 -34 223 -33 71 1 95 6 143 29 37 17 56 32 54 42 -2 9 -11 14
-22 12 -11 -2 -80 -4 -153 -5 -105 -2 -141 1 -166 14 -19 9 -54 21 -79 28 -55
13 -94 39 -187 121 -70 62 -106 119 -117 184 -7 47 -20 56 -71 49 l-42 -6 -26
-81 c-14 -44 -34 -89 -45 -99 -10 -10 -19 -22 -19 -27 0 -20 -87 -98 -124
-110 -33 -11 -40 -10 -55 4 -15 16 -14 20 7 56 12 21 22 52 22 69 0 16 4 32 9
36 20 12 -4 144 -29 160 -27 17 -89 -7 -139 -54 -28 -26 -51 -52 -51 -57 0 -6
-5 -15 -12 -22 -19 -19 -38 -83 -44 -152 -3 -36 -11 -70 -19 -75 -7 -6 -40 -8
-79 -5 -59 5 -69 9 -104 43 -43 42 -48 64 -55 232 -4 83 -20 125 -48 125 -9 0
-22 -7 -29 -15 -9 -11 -22 -14 -44 -9 -47 9 -52 20 -24 49 14 13 44 62 67 107
23 46 61 118 84 160 23 43 56 103 73 135 17 32 35 74 38 93 8 40 37 100 48
100 7 0 17 19 63 125 53 120 54 124 27 148 -21 20 -28 21 -37 7z"/>
<path d="M2588 3327 c-25 -7 -55 -20 -65 -29 -11 -10 -27 -18 -36 -18 -30 0
-47 -41 -46 -110 1 -108 10 -142 46 -165 18 -11 36 -32 42 -47 11 -31 65 -68
98 -68 14 0 27 -10 35 -27 9 -19 22 -29 41 -31 15 -2 33 -12 40 -23 6 -10 17
-19 23 -19 16 0 104 -73 104 -86 0 -6 -7 -17 -14 -24 -8 -6 -20 -28 -27 -48
-29 -88 -131 -212 -175 -212 -8 0 -22 -8 -32 -17 -50 -48 -78 -60 -158 -67
l-80 -7 -35 53 c-58 89 -75 148 -49 174 6 6 11 45 12 87 1 62 -2 80 -17 97
-24 26 -37 25 -73 -5 -37 -31 -43 -31 -79 -2 -69 56 -129 61 -203 17 -72 -42
-166 -138 -189 -194 -11 -25 -24 -46 -29 -46 -15 0 -47 -142 -35 -153 3 -3 6
-24 7 -47 1 -23 12 -53 24 -70 26 -35 27 -43 6 -61 -20 -16 -142 -15 -190 3
-18 6 -35 21 -38 32 -12 45 -4 125 20 206 78 259 86 299 78 385 -8 87 -33 125
-80 125 -18 0 -35 -4 -39 -9 -3 -5 -36 -20 -73 -32 -61 -20 -142 -64 -150 -81
-6 -13 -103 -59 -112 -53 -6 4 -10 20 -10 37 0 61 -41 180 -80 232 -72 97
-119 122 -217 111 -34 -4 -65 -10 -68 -15 -3 -5 -25 -12 -49 -15 -25 -4 -53
-15 -63 -25 -11 -10 -37 -29 -59 -42 -22 -14 -45 -33 -53 -42 -7 -9 -24 -16
-36 -16 -24 0 -38 -21 -29 -43 3 -8 -2 -20 -11 -27 -8 -7 -15 -23 -15 -36 0
-21 -4 -23 -24 -18 -30 7 -38 -12 -27 -71 9 -47 4 -95 -9 -95 -14 0 -20 -29
-10 -52 8 -20 9 -19 10 12 0 26 3 31 10 20 14 -21 12 -60 -2 -60 -24 -1 47
-50 72 -50 14 0 38 -7 54 -15 43 -23 66 -19 66 9 0 17 -9 27 -30 36 -77 32
-123 141 -85 205 10 16 24 42 32 56 21 42 132 133 198 163 150 69 214 41 283
-124 21 -48 34 -141 31 -223 -1 -45 1 -92 5 -103 6 -17 3 -23 -16 -28 -15 -4
-31 -23 -45 -54 -27 -57 -43 -118 -35 -127 4 -4 -1 -12 -10 -19 -22 -16 -38
-58 -38 -100 0 -17 -5 -37 -11 -43 -7 -7 -8 -24 -4 -42 6 -28 10 -31 44 -31
72 0 125 94 192 340 11 41 25 83 31 95 23 43 110 155 122 155 7 0 25 13 40 29
16 16 42 35 60 41 17 7 45 19 63 26 58 26 66 13 60 -90 -4 -69 -15 -119 -45
-211 -51 -152 -68 -258 -51 -314 15 -50 17 -52 97 -80 53 -19 75 -21 155 -16
150 9 183 19 407 129 52 25 82 43 89 53 14 21 79 63 97 63 10 0 35 -16 54 -36
25 -25 41 -33 56 -30 12 3 37 -2 55 -11 70 -35 186 -5 301 78 37 27 72 49 77
49 5 0 7 -26 4 -60 -6 -58 -5 -60 31 -96 30 -30 41 -35 69 -31 17 2 46 -1 64
-8 19 -8 53 -11 90 -8 55 5 60 3 87 -26 17 -17 34 -31 39 -31 5 0 20 -9 34
-20 21 -16 36 -19 92 -15 36 2 77 8 91 13 52 18 90 37 90 43 0 4 23 21 50 38
28 17 50 38 50 46 0 23 17 9 46 -37 27 -43 88 -77 139 -78 58 0 118 32 188 99
37 36 67 71 67 77 0 7 14 26 30 44 17 18 30 37 30 44 0 6 15 28 34 47 18 20
42 50 52 68 15 26 24 31 49 29 27 -3 31 -8 42 -57 15 -69 4 -160 -32 -261 -29
-82 -51 -112 -97 -131 -22 -9 -38 -10 -62 -2 -17 6 -49 14 -71 17 -22 4 -52 9
-67 12 -21 4 -30 0 -43 -19 -8 -13 -13 -32 -9 -41 11 -27 77 -55 156 -64 141
-17 267 45 282 140 4 22 18 63 33 91 23 46 27 66 31 184 l5 131 -34 42 c-42
52 -76 70 -131 70 -38 0 -49 -6 -93 -49 -27 -26 -66 -71 -85 -100 -19 -29 -59
-84 -88 -123 -29 -38 -58 -80 -63 -92 -11 -22 -80 -76 -98 -76 -16 0 -51 32
-65 60 -7 14 -16 48 -20 77 -5 42 -4 53 10 61 25 14 33 146 10 171 -48 53
-134 -56 -136 -172 0 -29 -8 -42 -52 -87 -16 -16 -28 -32 -28 -37 0 -10 -62
-53 -104 -72 -17 -7 -52 -15 -78 -16 -37 -3 -52 1 -74 20 l-28 24 25 9 c70 27
114 51 162 89 16 13 34 23 42 23 7 0 29 20 49 45 21 25 44 45 51 45 8 0 12 6
9 13 -2 7 4 33 15 58 25 54 26 88 4 135 -30 62 -126 87 -208 54 -11 -4 -32
-12 -47 -19 -16 -6 -28 -15 -28 -21 0 -5 -8 -10 -18 -10 -33 0 -132 -130 -132
-173 0 -11 -11 -32 -24 -47 -16 -20 -25 -47 -30 -89 -8 -66 -6 -65 -85 -74
-41 -5 -88 16 -96 44 -8 26 11 106 45 189 40 97 42 110 46 310 5 251 5 265 -9
319 -22 80 -54 129 -110 166 -47 31 -60 35 -142 39 -54 3 -109 0 -137 -7z
m180 -69 c26 -6 57 -22 69 -35 12 -12 29 -23 38 -23 13 0 14 -4 5 -20 -6 -11
-7 -20 -1 -20 11 0 11 -7 15 -172 1 -70 -1 -133 -5 -140 -10 -15 -47 0 -100
43 -20 16 -42 29 -49 29 -18 0 -90 53 -141 104 -37 36 -47 54 -52 90 -13 90
13 131 93 147 54 10 77 10 128 -3z m-701 -565 c3 -10 15 -38 25 -61 11 -24 20
-54 20 -65 1 -12 6 -28 11 -34 14 -20 -1 -63 -26 -72 -16 -6 -28 -25 -40 -62
-10 -35 -29 -66 -52 -87 -31 -30 -43 -34 -109 -39 -70 -5 -75 -4 -89 18 -22
35 -27 103 -11 134 7 15 19 45 25 67 5 22 26 62 45 89 19 27 34 52 34 56 0 11
125 69 153 72 4 1 10 -7 14 -16z m1383 -92 c21 -52 -7 -118 -85 -197 -11 -11
-24 -28 -30 -38 -9 -16 -46 -29 -119 -43 -29 -6 -29 -5 -23 32 7 44 57 148 98
204 18 26 42 44 71 54 62 22 74 20 88 -12z"/>
<path d="M13196 3165 c-36 -35 -66 -69 -66 -75 0 -5 -8 -10 -17 -10 -10 0 -44
-26 -76 -58 -85 -84 -97 -98 -97 -113 0 -8 -9 -20 -20 -27 -23 -14 -62 -86
-52 -97 4 -3 3 -6 -3 -5 -23 5 -34 -2 -48 -27 -8 -16 -28 -53 -45 -85 -18 -31
-32 -70 -32 -86 0 -17 -8 -44 -17 -61 -17 -30 -17 -32 0 -62 9 -17 17 -37 17
-45 0 -8 7 -17 15 -20 8 -4 15 -12 15 -20 0 -15 31 -24 70 -21 37 3 42 -49 8
-78 -14 -11 -35 -35 -47 -52 -12 -18 -30 -33 -40 -33 -22 0 -61 -41 -61 -63 0
-19 -35 -58 -49 -54 -13 3 -61 -54 -68 -83 -3 -14 -15 -40 -25 -58 -20 -37
-23 -58 -8 -67 15 -10 50 5 50 20 0 8 14 34 30 58 17 25 30 49 30 53 0 9 14
25 107 119 32 33 76 82 97 108 21 27 49 54 62 59 13 6 24 15 24 21 0 5 11 22
24 38 13 15 26 33 28 39 2 7 18 9 46 4 42 -7 42 -7 36 -40 -6 -31 -2 -38 32
-70 22 -20 48 -39 59 -44 42 -16 247 5 295 32 48 26 85 52 111 77 15 14 38 34
53 44 24 17 61 77 73 122 9 34 9 148 0 185 -23 87 -94 132 -211 132 -70 0
-142 -23 -159 -49 -4 -7 -16 -13 -25 -13 -21 -1 -58 -27 -49 -36 7 -7 131 22
159 37 11 5 46 5 91 -2 68 -10 75 -13 91 -44 10 -18 27 -35 37 -38 17 -4 19
-13 15 -59 -2 -29 -9 -65 -16 -80 -9 -20 -10 -31 -2 -40 13 -17 -8 -47 -47
-68 -57 -31 -131 -82 -131 -91 0 -5 -19 -9 -43 -9 -24 0 -48 -5 -54 -11 -7 -7
-40 -10 -88 -7 -114 5 -121 21 -68 157 14 36 37 83 50 105 19 30 23 44 15 55
-5 9 -15 15 -21 13 -30 -6 -43 102 -14 123 19 14 7 69 -14 61 -8 -3 -16 -6
-18 -6 -2 0 -16 -23 -30 -52 -14 -28 -37 -63 -51 -76 -13 -14 -27 -37 -31 -51
-11 -50 -97 -182 -133 -206 -24 -16 -73 -21 -107 -11 -26 7 -34 16 -39 42 -12
66 11 147 64 221 12 17 22 34 22 37 0 9 86 129 119 165 17 19 31 38 31 41 0
14 110 120 125 120 8 0 15 7 15 15 0 9 11 21 25 27 14 6 25 19 25 30 0 19 16
23 39 9 9 -6 13 -29 13 -72 0 -53 -4 -66 -21 -81 -18 -14 -20 -20 -10 -36 7
-11 9 -27 4 -38 -4 -11 -9 -30 -11 -43 -3 -22 -2 -23 17 -5 12 11 18 26 15 37
-2 10 4 27 15 38 10 10 19 30 19 42 0 13 8 34 19 46 40 46 34 178 -9 201 -41
22 -67 11 -134 -55z"/>
<path d="M8630 3085 c-75 -16 -100 -28 -134 -61 -156 -156 -128 -415 57 -510
26 -13 47 -28 47 -32 0 -5 20 -19 45 -31 70 -35 71 -32 -41 -128 -20 -18 -41
-33 -46 -33 -4 0 -8 -12 -8 -26 0 -22 -2 -24 -15 -14 -15 13 -31 4 -125 -69
-114 -88 -138 -126 -110 -171 8 -12 11 -12 28 3 10 9 24 17 32 17 15 0 36 25
50 58 5 12 22 27 37 33 16 6 37 19 48 29 22 21 85 58 152 90 24 12 55 37 69
56 37 48 70 45 66 -6 -2 -19 -12 -54 -23 -78 -48 -111 -58 -216 -29 -307 17
-50 71 -69 172 -60 114 11 126 12 180 26 41 11 50 10 65 -3 49 -43 130 -65
159 -43 11 8 26 15 35 15 21 0 141 48 148 59 3 4 25 17 48 28 l41 20 37 -48
c23 -31 49 -52 72 -60 43 -14 138 -5 170 16 12 8 31 15 41 15 10 0 43 18 73
40 63 46 66 49 99 91 14 17 42 49 63 70 20 20 37 45 37 54 0 10 7 15 18 13 14
-3 17 -15 19 -68 1 -40 -4 -71 -11 -80 -7 -8 -19 -37 -26 -65 -20 -80 -40
-115 -63 -115 -11 0 -45 -12 -74 -26 -30 -14 -82 -30 -116 -35 -34 -5 -82 -16
-107 -24 -61 -20 -161 -40 -184 -37 -23 3 -104 -26 -127 -45 -8 -7 -20 -13
-26 -13 -6 0 -14 -6 -16 -12 -4 -10 -6 -10 -6 0 -1 16 -36 15 -50 -2 -7 -8
-32 -20 -56 -27 -25 -7 -45 -19 -45 -26 0 -8 -13 -13 -35 -13 -29 0 -35 -4
-35 -21 0 -17 -3 -19 -14 -10 -23 19 -92 -23 -106 -65 -6 -19 -17 -34 -23 -34
-27 -1 -69 -53 -87 -109 -26 -76 -35 -220 -15 -227 10 -4 13 -21 9 -67 -8
-102 20 -231 67 -307 5 -8 21 -39 36 -69 50 -97 190 -223 252 -226 20 -1 71
-6 113 -10 l78 -8 46 37 c26 20 50 36 54 36 4 0 13 14 20 31 7 17 28 49 46 71
19 22 39 58 45 81 7 23 23 53 36 68 13 14 23 29 23 33 0 5 24 59 54 120 30 61
58 125 62 141 3 17 12 37 20 45 7 8 24 48 37 88 13 40 27 76 31 79 3 4 6 15 6
26 0 13 -5 17 -15 13 -9 -3 -15 0 -15 9 0 9 10 15 25 15 22 0 30 11 59 73 19
39 39 90 46 112 7 22 23 64 36 93 13 29 24 62 24 73 0 11 9 37 20 57 10 20 21
45 24 54 3 10 20 24 38 32 18 9 41 20 51 26 41 24 55 31 102 56 28 14 61 32
75 40 14 7 35 14 48 14 14 0 26 8 31 23 8 20 15 22 92 23 98 0 203 25 254 60
20 13 40 24 46 24 5 0 12 6 15 14 3 8 31 27 62 43 31 15 80 51 109 80 28 29
61 53 72 53 13 0 33 -19 58 -57 21 -31 54 -73 74 -93 19 -21 46 -51 60 -67 13
-17 49 -44 79 -59 45 -24 66 -28 118 -27 70 2 115 23 110 51 -2 12 -14 17 -43
17 -55 1 -124 37 -187 98 -41 39 -68 81 -112 170 -61 121 -68 130 -99 132 -18
2 -103 -69 -159 -131 -24 -27 -176 -136 -261 -187 -16 -10 -36 -24 -44 -32
-21 -21 -49 -18 -67 6 -19 28 -4 62 41 90 18 11 33 26 33 33 0 7 16 31 36 55
33 38 47 71 60 141 7 33 -33 108 -68 128 -23 14 -35 14 -95 3 -63 -12 -71 -17
-120 -70 -34 -36 -51 -62 -47 -73 3 -9 -1 -20 -8 -25 -17 -10 -48 -57 -69
-103 -12 -26 -13 -45 -7 -74 5 -22 7 -45 4 -53 -3 -7 2 -29 11 -47 19 -40 12
-66 -17 -66 -11 0 -30 -12 -43 -26 -12 -14 -39 -35 -59 -47 -21 -11 -38 -24
-38 -29 0 -9 -61 1 -73 12 -10 9 19 172 37 215 23 52 34 108 35 173 0 34 5 71
11 82 17 32 12 67 -10 73 -11 3 -22 1 -25 -3 -3 -4 -14 -6 -25 -3 -15 4 -20 0
-20 -16 0 -12 -7 -24 -15 -27 -8 -4 -15 -12 -15 -19 0 -11 -10 -23 -69 -90
-10 -11 -25 -34 -34 -51 -9 -17 -39 -58 -66 -91 -28 -34 -51 -66 -51 -72 0 -6
-6 -11 -13 -11 -16 0 -47 -36 -47 -54 0 -8 5 -16 12 -18 25 -9 -5 -30 -34 -24
-24 5 -35 0 -60 -24 -16 -17 -35 -30 -42 -30 -7 0 -21 -7 -32 -15 -30 -23 -46
-18 -97 32 -38 36 -47 52 -43 69 4 13 1 26 -5 30 -6 3 -8 16 -4 28 4 11 8 32
10 46 3 14 7 36 10 50 18 85 18 88 -10 106 -15 10 -30 13 -33 8 -4 -5 -16 -14
-27 -20 -11 -6 -23 -26 -27 -45 -20 -98 -28 -119 -67 -170 -46 -62 -130 -125
-179 -135 -33 -7 -92 11 -92 27 0 5 19 22 42 37 51 33 118 102 118 121 0 7 8
21 18 30 34 32 67 127 57 169 -3 15 -18 40 -32 57 -23 26 -32 30 -82 30 -59 0
-119 -22 -158 -58 -30 -27 -70 -105 -79 -153 -3 -21 -10 -44 -15 -49 -4 -6
-10 -40 -13 -75 -6 -82 -13 -100 -40 -100 -11 -1 -46 -9 -76 -20 -37 -12 -60
-15 -72 -9 -9 5 -34 9 -56 9 -34 0 -41 4 -52 30 -20 49 10 203 61 314 16 34 6
126 -15 142 -24 17 -11 41 74 142 11 13 20 32 20 43 0 10 3 19 8 19 7 0 17 20
73 145 10 22 21 67 25 101 5 50 3 67 -14 100 -32 61 -55 80 -141 113 -89 34
-175 39 -281 16z m209 -93 c30 -9 70 -32 89 -50 l35 -32 -7 -70 c-4 -43 -15
-89 -30 -118 -63 -123 -79 -150 -116 -189 -38 -40 -41 -41 -72 -30 -18 7 -42
20 -52 30 -11 9 -25 17 -31 17 -6 0 -38 26 -71 58 -53 52 -61 64 -73 123 -8
35 -13 77 -12 93 7 77 77 176 125 176 11 0 27 4 35 9 20 13 115 3 180 -17z
m1973 -580 c11 -11 -3 -122 -16 -122 -6 0 -17 -9 -23 -19 -9 -15 -9 -23 2 -37
8 -11 15 -22 15 -25 0 -11 -38 -17 -47 -8 -5 5 -25 -8 -48 -31 -45 -46 -62
-50 -71 -14 -19 77 21 190 88 247 26 22 40 27 63 22 16 -3 33 -9 37 -13z
m-1434 -159 c4 -37 -32 -130 -62 -158 -32 -31 -78 -65 -87 -65 -16 0 -9 64 14
128 30 84 70 134 105 130 22 -2 28 -9 30 -35z m727 -543 c4 -6 2 -16 -3 -23
-5 -7 -24 -55 -42 -107 -18 -52 -41 -107 -52 -122 -10 -14 -18 -31 -18 -37 0
-7 -13 -41 -30 -76 -16 -35 -30 -69 -30 -75 0 -5 -9 -27 -20 -47 -11 -21 -20
-46 -20 -56 0 -10 -18 -51 -40 -92 -22 -41 -40 -81 -40 -89 0 -8 -11 -31 -25
-51 -13 -20 -33 -62 -45 -93 -48 -135 -188 -361 -212 -346 -6 4 -18 -3 -27
-15 l-17 -22 -80 42 c-70 38 -96 57 -176 133 -11 10 -31 41 -44 70 -14 28 -29
58 -34 66 -39 66 -55 125 -75 279 -15 110 -11 182 11 218 8 12 14 27 14 32 0
31 83 125 143 160 21 13 45 34 54 47 10 16 22 23 32 19 10 -3 38 9 65 26 35
23 50 29 58 21 8 -8 15 -8 24 -2 6 6 33 12 60 15 62 6 106 15 120 26 14 11
136 37 206 42 31 3 68 13 82 22 21 14 77 30 148 44 4 0 10 -4 13 -9z"/>
<path d="M10579 2950 c-19 -14 -25 -27 -23 -46 3 -30 60 -84 121 -115 24 -11
45 -25 49 -30 6 -10 45 -12 68 -3 24 9 19 53 -10 91 -14 19 -31 51 -36 71 -13
47 -21 52 -88 52 -39 -1 -63 -6 -81 -20z"/>
<path d="M14253 2751 c-45 -10 -98 -29 -117 -42 -36 -24 -39 -32 -85 -196 -6
-23 -20 -48 -30 -55 -48 -34 -53 -92 -13 -154 35 -55 64 -67 170 -68 125 -1
228 22 302 65 27 17 55 28 81 33 37 8 105 75 113 112 12 54 -1 147 -24 166
-11 9 -20 21 -20 26 0 17 -88 91 -117 97 -15 4 -39 10 -53 15 -52 18 -126 18
-207 1z m240 -123 c15 -11 27 -25 27 -33 0 -7 4 -15 8 -17 15 -6 72 -97 72
-115 0 -10 -11 -31 -25 -47 -13 -16 -22 -33 -19 -37 3 -5 0 -9 -6 -9 -7 0 -25
-11 -42 -25 -24 -20 -40 -25 -87 -25 -31 0 -62 -5 -68 -11 -7 -7 -23 -9 -40
-4 -15 4 -58 7 -95 7 -53 0 -73 4 -101 23 -19 13 -37 30 -39 37 -9 22 40 86
80 107 20 10 46 29 57 41 25 28 91 60 124 60 38 0 101 19 101 31 0 6 -4 19
-10 29 -8 15 -6 17 13 12 12 -3 34 -14 50 -24z"/>
</g>
</svg>
