<?xml version="1.0" encoding="UTF-8" standalone="no"?>
<!-- Created with Inkscape (http://www.inkscape.org/) -->

<svg
   xmlns:dc="http://purl.org/dc/elements/1.1/"
   xmlns:cc="http://creativecommons.org/ns#"
   xmlns:rdf="http://www.w3.org/1999/02/22-rdf-syntax-ns#"
   xmlns:svg="http://www.w3.org/2000/svg"
   xmlns="http://www.w3.org/2000/svg"
   xmlns:sodipodi="http://sodipodi.sourceforge.net/DTD/sodipodi-0.dtd"
   xmlns:inkscape="http://www.inkscape.org/namespaces/inkscape"
   width="2999.9998"
   height="2010.9594"
   viewBox="0 0 2999.9998 2010.9594"
   id="svg2"
   version="1.1"
   inkscape:version="0.91 r13725"
   sodipodi:docname="Stevie Wonder Signature.svg">
  <title
     id="title4179">Stevie Wonder signature.</title>
  <defs
     id="defs4" />
  <sodipodi:namedview
     id="base"
     pagecolor="#ffffff"
     bordercolor="#666666"
     borderopacity="1.0"
     inkscape:pageopacity="0.0"
     inkscape:pageshadow="2"
     inkscape:zoom="0.2715122"
     inkscape:cx="1499.9999"
     inkscape:cy="1005.4797"
     inkscape:document-units="px"
     inkscape:current-layer="layer2"
     showgrid="false"
     inkscape:window-width="1280"
     inkscape:window-height="721"
     inkscape:window-x="-4"
     inkscape:window-y="-4"
     inkscape:window-maximized="1"
     units="px"
     fit-margin-left="20"
     fit-margin-top="20"
     fit-margin-right="20"
     fit-margin-bottom="20" />
  <metadata
     id="metadata7">
    <rdf:RDF>
      <cc:Work
         rdf:about="">
        <dc:format>image/svg+xml</dc:format>
        <dc:type
           rdf:resource="http://purl.org/dc/dcmitype/StillImage" />
        <dc:title>Stevie Wonder signature.</dc:title>
        <cc:license
           rdf:resource="http://creativecommons.org/licenses/by-sa/3.0/" />
        <dc:subject>
          <rdf:Bag>
            <rdf:li>Stevie Wonder</rdf:li>
            <rdf:li>Signature</rdf:li>
            <rdf:li>Firma</rdf:li>
            <rdf:li>Autograph</rdf:li>
            <rdf:li>Autógrafo</rdf:li>
            <rdf:li>Sign</rdf:li>
          </rdf:Bag>
        </dc:subject>
      </cc:Work>
      <cc:License
         rdf:about="http://creativecommons.org/licenses/by-sa/3.0/">
        <cc:permits
           rdf:resource="http://creativecommons.org/ns#Reproduction" />
        <cc:permits
           rdf:resource="http://creativecommons.org/ns#Distribution" />
        <cc:requires
           rdf:resource="http://creativecommons.org/ns#Notice" />
        <cc:requires
           rdf:resource="http://creativecommons.org/ns#Attribution" />
        <cc:permits
           rdf:resource="http://creativecommons.org/ns#DerivativeWorks" />
        <cc:requires
           rdf:resource="http://creativecommons.org/ns#ShareAlike" />
      </cc:License>
    </rdf:RDF>
  </metadata>
  <g
     inkscape:groupmode="layer"
     id="layer2"
     inkscape:label="Capa 2"
     style="display:inline"
     transform="translate(20,938.59717)">
    <path
       style="color:#000000;font-style:normal;font-variant:normal;font-weight:normal;font-stretch:normal;font-size:medium;line-height:normal;font-family:sans-serif;text-indent:0;text-align:start;text-decoration:none;text-decoration-line:none;text-decoration-style:solid;text-decoration-color:#000000;letter-spacing:normal;word-spacing:normal;text-transform:none;direction:ltr;block-progression:tb;writing-mode:lr-tb;baseline-shift:baseline;text-anchor:start;white-space:normal;clip-rule:nonzero;display:inline;overflow:visible;visibility:visible;opacity:1;isolation:auto;mix-blend-mode:normal;color-interpolation:sRGB;color-interpolation-filters:linearRGB;solid-color:#000000;solid-opacity:1;fill:#000000;fill-opacity:1;fill-rule:evenodd;stroke:none;stroke-width:4;stroke-linecap:round;stroke-linejoin:round;stroke-miterlimit:4;stroke-dasharray:none;stroke-dashoffset:0;stroke-opacity:1;color-rendering:auto;image-rendering:auto;shape-rendering:auto;text-rendering:auto;enable-background:accumulate"
       d="m 538.16774,-918.57645 c -37.7553,-0.65757 -71.7607,14.46003 -101.50605,28.01803 -36.47118,16.62376 -69.41863,39.28342 -99.57502,65.23567 -61.1741,52.64573 -99.9879,102.94381 -145.99237,154.84588 -43.94551,49.57923 -73.9619,82.70726 -128.321684,153.93508 -5.326105,6.9787 -21.848473,29.1664 -35.705691,51.33601 -6.928515,11.08471 -13.171949,21.91442 -17.23338,32.15324 -2.0307155,5.11942 -3.7667851,9.92768 -3.9531423,16.59587 -0.093272,3.3341 0.2145253,7.41073 2.4411118,12.00512 2.2268665,4.59439 7.0193625,9.14437 11.9321795,11.11241 2.109716,0.84971 4.357009,1.30665 6.631071,1.34806 104.556475,1.66621 165.035365,-4.40738 243.545295,-12.31478 35.48498,-1.81684 70.90009,-1.17215 102.38047,8.1431 29.50924,8.73202 58.23481,22.52069 78.97141,42.22736 18.09972,17.20082 32.22169,40.74517 39.31264,64.926 6.91855,23.59293 5.95768,51.30196 1.6942,78.38849 -4.25145,27.01014 -12.25781,53.64896 -26.03232,74.79967 -15.86065,24.35385 -41.67394,44.289035 -68.56942,63.887603 -30.55366,22.264186 -65.06421,40.165207 -100.72271,55.653376 C 269.54176,-4.1521171 241.2728,6.294241 212.90025,11.300609 174.36918,18.099384 132.72289,15.371461 89.642941,15.4541 67.205083,15.500736 19.579711,13.249805 19.579711,13.249805 3.2691629,12.478447 -6.0918835,31.551242 4.4958748,43.982146 c 0,0 8.6164572,10.120093 20.1299382,21.641969 11.513575,11.52197 25.080065,24.606989 40.715417,32.226183 31.37433,15.289032 67.04318,20.386902 100.70444,18.016772 52.56079,-3.70056 104.85618,-24.453838 146.26565,-47.619683 58.30712,-32.618765 93.56194,-57.911862 136.84735,-90.174887 43.78301,-32.633968 86.50887,-67.44798 126.081,-105.85995 36.79229,-35.71381 71.60325,-73.35107 105.31343,-111.92627 2.25219,21.01668 5.09458,46.29289 24.64783,66.09181 15.02925,15.21833 35.64716,20.37356 54.74258,18.80016 28.1703,-2.32098 46.61312,-20.84356 61.28255,-30.82347 6.41384,-4.36344 12.00435,-9.58555 18.18072,-14.20941 3.02827,1.87346 5.81258,3.96918 9.45471,5.26482 33.13911,11.78845 65.04623,-5.16968 87.38772,-19.67458 43.48251,-28.23032 63.09433,-51.42303 89.57389,-77.89658 27.7535,-27.74726 50.492,-58.23309 74.6357,-85.51138 12.8839,-14.55657 21.9004,-26.49528 34.1936,-38.2925 0.7471,30.79978 -12.4469,58.63099 -27.7447,88.89977 -14.6739,27.99686 -27.7738,54.54111 -34.8495,86.45866 -1.6352,7.3987 1.3668,15.05147 7.5965,19.36483 8.7696,6.08198 20.0471,7.51435 28.9107,5.73846 8.8635,-1.7759 15.9679,-5.74248 22.3889,-10.03765 12.8419,-8.59043 23.6468,-19.47302 30.9328,-25.3401 35.7658,-28.80077 63.8503,-51.35979 99.8846,-80.3195 -6.6594,14.93591 -13.1583,28.25345 -19.6745,50.58908 -5.8183,19.94359 -4.0842,44.22813 14.5556,60.37173 10.5145,9.10641 23.3602,11.71821 34.6308,11.85933 11.2705,0.14084 21.7599,-2.07185 30.7142,-4.7911 23.9041,-7.25916 40.7424,-24.63357 53.5037,-40.56963 26.1682,-32.67837 37.8577,-48.91467 61.483,-80.04621 -3.3067,22.42797 -6.2897,46.78471 -1.1295,72.10355 4.4551,21.85873 11.1765,48.80666 32.463,67.85893 22.532,20.16716 52.3861,26.00663 78.3338,26.92499 34.2829,1.21318 67.2259,-9.80549 95.6219,-24.1924 25.5665,-12.95341 56.1715,-38.31357 86.5315,-66.41984 -0.5773,23.96126 2.9117,49.32861 19.5288,69.79003 21.3801,26.32618 54.8015,35.29362 83.0885,38.47466 38.4204,4.32044 77.056,-5.74602 110.0499,-21.71491 34.0316,-16.47107 66.844,-41.31227 87.916,-75.05468 18.2385,-29.20492 27.3778,-64.69645 25.2855,-99.13785 -1.8874,-31.07082 -14.8658,-58.50693 -32.5177,-82.26869 -18.8057,-25.31492 -42.3708,-36.85387 -65.4906,-50.31589 -29.5456,-17.20326 -64.066,-28.6881 -94.1646,-38.675 -15.8225,-5.25009 -41.8084,-9.07219 -41.8084,-9.07219 -24.2984,-5.31426 -35.1191,8.39065 -7.9791,21.29593 0,0 28.4003,11.254 38.9847,15.61213 35.6766,14.68995 58.1964,22.74696 83.3618,37.39979 22.7856,13.26718 44.2758,26.77715 57.1472,44.1038 13.9856,18.82637 23.8832,42.29395 25.2126,64.17908 1.5849,26.08964 -5.791,54.90002 -19.6746,77.13146 -16.0922,25.76813 -43.4001,47.11462 -72.5225,61.20968 -28.1026,13.60147 -60.5977,21.49992 -89.6284,18.2354 -23.0358,-2.59053 -47.1164,-11.15644 -58.295,-24.92113 -10.6945,-13.1685 -14.5319,-37.37666 -11.8229,-58.44062 1.6003,-12.4435 5.0793,-22.15179 8.1795,-32.40834 7.3346,-7.58646 16.0941,-15.41999 22.7168,-22.57115 22.3617,-24.14576 38.393,-42.38666 46.1988,-56.56427 0.9757,-1.77216 1.875,-3.53733 2.7143,-6.10278 0.8394,-2.56535 2.6405,-6.10539 0.1455,-13.53533 -1.2474,-3.71493 -4.5007,-8.16111 -8.4528,-10.52947 -3.9522,-2.36845 -7.7264,-2.8197 -10.3656,-2.80552 -5.2782,0.028 -7.569,1.28808 -9.7644,2.25895 -8.7815,3.88366 -15.4968,9.45236 -27.9269,19.69277 -0.2929,0.24065 -0.5783,0.48968 -0.8563,0.74711 -24.8821,23.2039 -38.7741,46.028 -47.6014,69.40734 -40.8532,40.91437 -88.5831,84.3024 -115.0597,97.71695 -24.7247,12.52679 -52.2115,21.07749 -77.4411,20.1846 -20.7954,-0.73592 -42.4597,-6.4075 -54.7791,-17.43383 -10.2727,-9.19455 -16.7825,-27.86814 -20.7857,-47.51036 -4.0232,-19.73941 -1.2481,-42.74586 2.3864,-66.69304 3.4742,-22.89079 21.3869,-76.60317 21.3869,-76.60317 6.8844,-20.11763 -19.8543,-34.2417 -32.5905,-17.2152 0,0 -67.7347,90.80839 -117.191,152.56875 -10.6318,13.27678 -23.3259,24.58451 -35.2319,28.2001 -6.2968,1.91226 -13.6467,3.26004 -19.4013,3.18803 -5.7547,-0.0746 -9.1418,-1.44086 -10.6753,-2.76896 -2.5219,-2.18424 -5.4952,-13.74427 -3.1698,-21.71491 8.056,-27.6137 14.9142,-41.36823 24.6296,-63.03137 7.9007,-17.61682 28.2184,-55.32552 28.2184,-55.32552 9.6977,-17.90662 -12.2168,-36.18287 -28.0909,-23.42729 0,0 -105.3724,84.65534 -164.1913,132.01983 -6.9922,5.63054 -13.4027,11.09907 -19.8203,16.39542 5.8815,-15.00698 12.8031,-30.01219 21.4234,-46.45378 0.047,-0.0746 0.084,-0.15763 0.1278,-0.23691 17.5294,-34.68437 39.8144,-76.17235 30.5502,-127.11942 -0.084,-0.44024 -0.1781,-0.87769 -0.291,-1.31159 -1.9993,-7.77467 -7.9917,-13.58784 -13.2257,-16.32258 -5.2338,-2.73473 -10.0687,-3.51355 -14.6466,-3.71632 -9.1556,-0.40573 -17.6489,0.61279 -26.6335,8.19776 -20.3782,17.20306 -30.9146,33.95106 -43.4479,48.1115 -25.5084,28.82027 -47.8432,58.63342 -73.06908,83.85357 -27.63907,27.63292 -43.45854,46.97686 -83.50745,72.97798 -12.0217,7.8049 -25.01138,12.4518 -36.83511,14.64667 18.50618,-16.20496 36.15956,-33.11198 53.39451,-50.00614 26.16231,-25.64501 49.36089,-47.51353 75.80163,-85.05593 l -0.019,0 c 6.7879,-9.63574 13.1204,-19.50082 18.0896,-28.91065 4.9694,-9.40992 9.1219,-17.56785 9.6734,-28.7103 0.276,-5.57122 -0.7938,-13.42341 -6.7403,-19.74743 -5.9463,-6.32374 -14.4856,-8.09199 -20.7494,-7.83335 -12.43061,0.513 -22.79536,5.53513 -38.00101,14.02725 -32.9911,16.43834 -65.10466,36.83531 -92.70718,62.7399 -22.8025,21.39983 -46.34283,46.40481 -59.9709,78.29736 -6.20193,14.51395 -12.28608,33.05864 -7.21401,53.26702 1.1153,4.44356 3.97,8.98404 5.86594,13.60818 -5.50468,4.10844 -10.63769,8.90924 -16.28615,12.75204 -17.95359,12.21414 -32.22182,23.56496 -43.37507,24.48387 -8.87316,0.73125 -20.43126,-3.08413 -25.12147,-7.83335 -9.56249,-9.68264 -12.84748,-31.18974 -15.63034,-54.46938 -1.07912,-9.02732 -0.39631,-18.56297 -0.10931,-27.98156 14.26248,-17.18572 29.0964,-33.93623 42.84677,-51.4817 28.36235,-36.19033 56.84755,-73.8524 79.40863,-115.82475 5.83768,-10.8603 11.20811,-22.02746 16.34079,-33.31915 26.18525,-7.43871 52.21149,-15.39806 77.78729,-24.66603 46.32304,-16.78623 89.55312,-41.33325 135.71792,-58.55002 52.31,-19.50866 106.1322,-34.73287 159.6734,-50.55262 22.4959,-6.64683 28.8527,-9.72303 67.859,-18.63619 14.8327,-3.38941 12.4608,-22.42312 -2.6597,-21.29584 -40.0617,2.98685 -59.8159,7.85443 -89.1549,14.64658 -50.9908,11.80468 -100.872,28.20635 -150.3644,45.23323 -46.3427,15.94324 -90.77445,37.08705 -137.04777,53.23054 -14.37183,5.01402 -28.82395,9.80568 -43.32041,14.46442 3.05324,-8.97555 5.85077,-18.04037 8.34346,-27.19817 0.0946,-0.33765 0.17964,-0.67809 0.255,-1.02021 3.78032,-17.83694 7.10073,-32.98393 9.18145,-45.25142 1.04036,-6.13374 1.79918,-11.51003 2.05854,-16.63224 0.25939,-5.12221 0.80261,-9.80054 -2.45932,-17.08769 -1.63094,-3.64357 -5.09612,-8.3608 -10.49308,-10.985 -5.39697,-2.62411 -11.22781,-2.43934 -15.13847,-1.47556 -7.82131,1.92746 -11.43299,5.32088 -15.83072,9.12684 -8.79546,7.61182 -18.73364,18.98465 -32.77267,36.23389 l -0.12751,0.18188 c -27.24992,34.27229 -52.40551,70.73973 -74.18029,109.17549 -17.71417,3.7485 -35.45274,7.43227 -53.04839,11.67717 -34.7191,8.37591 -69.77229,15.71435 -103.78319,26.61532 -14.04035,4.50009 -27.83525,9.86667 -41.26189,15.95826 -9.57533,4.34432 -20.78593,6.92861 -27.92691,14.64658 -4.58809,4.9588 -8.55891,11.88554 -7.99733,18.61791 0.61363,7.35644 5.73998,14.7031 11.98689,18.63619 6.05217,3.81052 14.31713,4.30291 21.27765,2.65974 4.66927,-1.10229 7.97515,-5.34803 11.98689,-7.97913 13.6826,-8.97388 26.17808,-20.23002 41.24366,-26.61532 39.60126,-16.78437 82.36183,-23.70533 125.02441,-31.07848 -1.07693,2.25523 -2.22779,4.47267 -3.27908,6.74039 -14.09871,30.41149 -24.00093,62.72376 -30.2405,95.31221 -3.26004,17.02669 -5.8065,34.82698 -7.15935,52.97545 -41.18531,49.01503 -83.72332,96.83319 -129.4876,141.25598 -23.27801,22.59558 -48.12168,43.73882 -73.52449,64.306581 7.69991,-8.101969 15.96497,-15.516521 22.2796,-25.212601 17.88057,-27.45551 26.85735,-59.08383 31.625,-89.3734 4.70858,-29.91435 6.58624,-62.8965 -2.73258,-94.67461 -8.96939,-30.58655 -26.15138,-59.36942 -49.42317,-81.4854 -26.75358,-25.42479 -60.77897,-41.09596 -94.09165,-50.9534 -38.22472,-11.31099 -77.83995,-11.52225 -114.95032,-9.61866 -0.31022,0.0186 -0.62007,0.0466 -0.92908,0.0746 -72.01181,7.2531 -129.93986,12.08282 -217.330762,11.75012 2.694998,-5.14656 4.699598,-9.59311 8.507422,-15.68498 12.684511,-20.29354 29.031808,-42.30906 33.738121,-48.47592 53.733369,-70.40675 82.522669,-102.10398 126.591129,-151.82182 46.99671,-53.02152 84.23061,-101.26696 142.40358,-151.33 28.1075,-24.18903 58.16219,-44.71948 90.70327,-59.55195 29.15502,-13.28891 58.41862,-25.15366 85.38385,-24.68422 17.30561,0.30127 34.85853,4.53236 42.59173,12.27841 6.41998,6.43053 8.79245,22.90925 8.74424,34.90401 -0.0728,18.17375 -6.50625,29.38261 -13.68109,52.7752 -3.75757,27.14687 12.38347,39.7521 25.15791,17.61598 0,0 6.32368,-10.27511 12.75202,-23.44548 6.42831,-13.17045 13.73472,-28.35083 14.40977,-45.47004 0.81361,-20.6351 -3.26234,-45.00509 -20.96796,-62.73999 -19.69669,-19.72924 -46.83848,-22.83398 -68.3508,-23.20866 z m 310.93058,334.41254 c -1.32383,6.33708 -2.14928,10.83447 -3.73452,18.30825 -4.66881,17.11978 -10.4858,34.04144 -17.26987,50.62546 -9.12329,2.63829 -18.26311,5.19478 -27.43505,7.65128 -2.78513,0.74618 -5.60402,1.36746 -8.39812,2.0767 16.2552,-25.73418 34.086,-50.58619 53.04839,-74.43535 1.80861,-2.22024 2.11676,-2.22006 3.78917,-4.22634 z m -42.42778,114.36738 c -0.44304,0.83478 -0.82779,1.69988 -1.2752,2.53215 -20.75437,38.6112 -47.84019,74.6688 -75.91093,110.48717 -1.45248,1.85331 -3.05999,3.57931 -4.51786,5.4287 5.75134,-26.55217 13.74132,-52.68947 25.03039,-77.04043 4.87525,-10.51613 10.13061,-20.87472 15.59389,-31.15132 7.74339,-1.66835 15.4443,-3.44649 23.08115,-5.46517 5.99857,-1.58562 11.99898,-3.19671 17.99856,-4.7911 z m 181.75263,65.38135 c -3.30294,5.52944 -6.44751,11.01056 -10.63878,16.96019 -24.49058,34.77353 -44.93252,53.94492 -71.39309,79.88234 -19.34259,18.96012 -39.10109,37.12892 -59.3333,54.39644 -1.32997,-6.93924 0.55384,-17.58949 5.11902,-28.27304 10.20375,-23.879 29.768,-45.65948 51.19023,-65.76396 24.30671,-22.8115 53.5165,-41.51783 84.27262,-56.80118 0.26396,-0.12778 0.52512,-0.26116 0.78349,-0.40106 z M 2291.2967,-13.383702 c -5.545,0.317124 -10.6601,3.088605 -13.9544,7.5601527 0,0 -140.338,189.2912793 -188.6569,302.6053393 -12.1754,28.55286 -21.0302,59.50448 -26.7246,91.26794 -12.271,20.01111 -24.7675,39.59243 -39.7317,56.49143 -23.6475,26.70523 -53.0319,49.42085 -84.2544,68.98845 -3.8837,2.43403 -6.7276,3.98402 -10.1834,6.19382 0.1007,-0.10167 0.2089,-0.17162 0.3097,-0.27329 41.6872,-42.1837 59.2549,-74.72785 104.8397,-139.4341 2.6187,-3.71717 6.4529,-9.24008 4.4451,-18.69085 -2.008,-9.45077 -11.2347,-14.95661 -16.1769,-16.19508 -9.8844,-2.47693 -15.1874,-0.51766 -22.2614,1.1659 -14.148,3.36656 -30.6124,9.89662 -44.377,18.29006 -30.0218,18.30666 -58.2074,46.03704 -81.7769,72.88685 -14.3134,16.3057 -31.9711,34.90551 -40.77,60.57207 -4.9901,14.5562 -6.9362,31.15216 -2.6597,47.61968 0.1707,0.65663 0.8413,2.72027 1.0384,3.6252 -4.5338,2.81392 -7.4653,5.35987 -12.5699,8.32526 -8.1934,4.75985 -26.0466,4.4099 -33.5196,-0.5102 -1.4067,-0.92619 -5.2699,-9.83664 -7.4872,-22.09741 -2.3341,-12.90669 -0.1735,-28.55883 3.4248,-44.86882 5.5683,-25.23909 32.3719,-83.98116 32.3719,-83.98116 9.2334,-19.53151 -16.5717,-36.51651 -30.8599,-20.3121 0,0 -67.0572,75.66924 -101.8157,109.17539 -33.2029,32.00672 -58.7923,58.14421 -101.6518,88.1716 -7.7799,5.44987 -15.5932,11.29429 -21.8059,14.39092 -5.4645,2.72447 -7.7331,2.83266 -8.8171,2.55098 0.028,0.0933 -0.065,0.0933 -0.4552,-0.11192 0.1064,0 0.3069,0.0933 0.4552,0.11192 -0.065,-0.21452 -0.9874,-1.28995 -1.8035,-4.0993 -1.1673,-4.02188 -1.5425,-10.09388 -1.2206,-13.55333 2.0679,-22.22278 5.0598,-33.87859 8.7261,-52.26528 6.6754,-33.4777 11.3225,-50.1536 23.4272,-100.39478 2.527,-10.48861 0.8292,-16.94442 -1.1841,-24.59319 -1.0066,-3.82433 -1.8217,-7.35374 -5.4469,-12.36943 -1.8126,-2.5079 -4.5978,-6.20548 -11.2582,-8.21595 -6.6605,-2.01048 -15.6617,1.00528 -19.5288,4.51781 -44.7989,40.69145 -61.7107,65.69372 -88.4626,98.70068 -24.1509,29.79776 -44.9997,60.47889 -66.5109,90.79412 10.272,-27.97905 19.707,-56.80864 25.1943,-86.91391 l 0,-0.0373 c 2.3033,-12.51448 5.4907,-28.14041 3.9168,-45.0146 -1.5752,-16.88678 -9.6902,-36.07691 -27.6719,-48.02038 -0.901,-0.59787 -1.8515,-1.11562 -2.8419,-1.5485 -28.5924,-12.50794 -55.8051,-0.43931 -74.1439,3.31554 -43.6295,8.9333 -88.6809,21.50961 -129.1596,44.79597 -27.2407,15.67089 -50.6197,37.06485 -70.1544,60.37172 -19.6696,23.46786 -33.4194,50.21152 -45.3425,76.07535 -15.8748,34.43504 -30.4017,71.08623 -37.3816,110.1401 -2.5536,14.28833 -2.8014,26.48456 0.6743,37.67345 3.4755,11.18983 13.2557,22.13995 25.5952,24.55662 12.3393,2.41761 23.3482,-2.01374 33.0823,-8.5437 9.734,-6.52996 18.9124,-15.85902 27.9452,-28.05432 21.5552,-29.10362 37.6327,-61.51934 50.6436,-94.07309 12.3497,-30.89911 23.8567,-64.14242 27.089,-99.61195 0.8935,-9.81071 -0.2388,-19.80022 -1.2934,-28.50986 -0.7369,-6.08207 -1.159,-8.35455 -1.5849,-10.96672 3.1806,-2.10468 6.0546,-4.83951 9.3272,-6.72211 35.0838,-20.18282 76.2748,-32.03478 118.0472,-40.58782 22.1069,-4.52648 40.1407,-9.31674 50.3158,-5.72017 6.5475,4.99442 8.8762,10.1504 9.6915,18.89119 0.8936,9.57828 -1.1375,22.30149 -3.443,34.83117 l -0.019,0.0373 c -8.3425,45.79417 -27.4022,92.46733 -45.051,136.90205 -5.3906,13.57199 -8.5568,21.31916 -8.3435,32.06221 0.056,2.6853 0.3339,5.82577 2.095,9.74598 1.7608,3.92022 5.8713,8.64817 10.9484,10.78503 10.1545,4.27279 16.4746,0.40107 20.3304,-1.69475 7.7118,-4.20003 12.4095,-9.28801 18.1808,-15.50272 5.7712,-6.21377 11.6732,-13.41716 17.1241,-20.65786 31.8336,-42.2876 59.8626,-86.00563 91.7234,-125.31619 18.9851,-23.42411 34.6074,-42.54018 54.4329,-63.74182 -6.5962,26.91174 -12.4868,49.87854 -17.5613,75.32796 -3.4937,17.52094 -7.0049,31.72056 -9.2725,56.09083 -0.7639,8.21445 -0.3032,17.58548 2.5503,27.41633 2.8536,9.83179 8.5844,21.52156 21.5874,27.49003 15.1501,6.95435 30.5433,2.51088 41.4987,-2.95113 10.9554,-5.462 19.8952,-12.54506 26.5606,-17.21519 45.5032,-31.8794 73.3554,-60.27248 106.1332,-91.86926 13.9344,-13.43227 21.5182,-22.94694 38.4929,-41.24362 -0.1036,0.44864 -0.4123,1.01471 -0.5102,1.45738 -3.9174,17.75607 -7.5721,38.11201 -3.6981,59.53367 2.26,12.49647 4.0755,33.72739 23.6823,46.63622 22.121,14.56347 50.3341,14.62317 72.7776,1.58469 4.6474,-2.70022 7.523,-5.20177 11.7865,-7.83297 5.7417,3.44919 13.5252,5.49651 20.2575,4.00696 42.4272,-9.38595 63.9389,-25.08249 89.173,-40.89721 33.2912,-20.86408 65.5343,-45.56079 92.3611,-75.85625 2.6675,-3.0124 4.8008,-6.31618 7.3415,-9.40003 1.8024,12.06481 5.2738,24.25498 12.078,35.74206 11.7943,19.91187 30.5333,38.22683 55.453,44.97813 27.3252,7.40299 52.8328,-2.46256 72.5954,-10.51127 38.1484,-15.53677 71.0903,-41.21704 98.7735,-69.37097 18.0965,-18.40422 36.6676,-44.72965 54.0503,-70.95584 8.4294,16.70957 22.9069,26.95287 36.4162,33.71993 20.633,10.33546 43.743,14.02809 65.7093,12.91601 29.448,-1.49076 57.3205,-11.53931 81.795,-24.46568 3.0416,-1.60642 5.2678,-4.02151 8.1067,-5.97518 0.2481,8.54557 0.028,17.20372 1.2934,24.7024 4.1125,24.34956 10.3346,50.68777 24.8482,74.23501 14.2769,23.16304 33.5354,47.78524 61.9202,61.04533 30.4315,14.21743 63.5531,12.05539 91.6505,8.90839 41.9146,-4.69437 81.6962,-19.65173 117.8651,-37.83686 35.9968,-18.09866 71.5574,-41.11051 99.2107,-70.90127 5.8476,-6.29968 9.7454,-14.2581 13.3896,-22.04276 2.5839,-5.51983 5.9206,-17.28804 5.9206,-17.28804 7.5313,-25.90002 -16.6264,-35.3022 -28.5464,-12.71557 0,0 -3.8244,9.14969 -6.5399,13.26205 -3.0734,4.65436 -6.7773,8.93405 -10.8939,12.69738 -26.9821,24.66669 -56.3278,47.09083 -89.3005,63.66898 -33.6461,16.91681 -69.5164,30.06274 -105.2588,34.06606 -26.239,2.93919 -52.6153,3.31479 -71.721,-5.61086 -17.6834,-8.26109 -33.5409,-26.69554 -45.9437,-46.81811 -10.374,-16.831 -16.0336,-38.46168 -19.8203,-60.88173 -2.4352,-14.41834 -0.692,-56.58255 -0.692,-56.58255 1.0253,-17.03079 -19.4587,-26.38885 -31.6615,-14.46442 0,0 -5.1693,5.05581 -11.9504,10.96673 -6.7812,5.91101 -15.7188,12.68656 -19.292,14.57373 -21.1033,11.1458 -44.2255,19.08762 -66.2558,20.20288 -16.307,0.82545 -33.4971,-2.18965 -47.1278,-9.01753 -9.1935,-4.60521 -17.1371,-11.42459 -20.0207,-17.30632 -3.7554,-7.65986 -5.8974,-16.07065 -6.54,-24.48387 13.8493,-22.91867 28.2731,-47.45571 28.2731,-47.45571 7.331,-13.1476 -3.1258,-29.11696 -18.1079,-27.65362 0,0 -9.7204,1.37184 -18.454,7.23221 -8.7335,5.86027 -18.2086,16.53412 -24.2106,32.97301 -2.9683,8.13004 -4.2322,16.35522 -4.7547,24.53853 -1.6427,2.65358 -1.2636,2.28469 -2.9876,5.028 -20.6855,32.91481 -47.2928,71.56967 -66.9663,91.57761 -25.2122,25.64109 -54.5352,48.03474 -86.2582,60.95467 -18.1824,7.40513 -36.5287,12.36468 -48.7491,9.0539 -11.9983,-3.25053 -25.4204,-14.96622 -33.1189,-27.96329 -7.0297,-11.86791 -9.0645,-29.96144 -8.5074,-48.3666 0.2471,-8.182 2.7244,-16.4609 3.8984,-24.7025 15.9642,-26.42626 30.2332,-53.36318 45.1058,-78.80747 59.8814,-102.44639 166.7963,-311.003445 166.7963,-311.003445 6.5672,-12.83215989 -3.2791,-27.946589 -17.6706,-27.12533 z M 364.7221,-7.4267065 C 344.22216,6.3037547 322.10871,20.00297 294.09416,35.675165 256.22336,56.861221 207.74922,75.528564 163.4224,78.649441 135.46592,80.617851 105.83559,76.082785 81.681999,64.312526 78.532394,62.777644 72.097566,56.490279 66.671101,52.052403 c 10.246383,0.31246 15.061451,0.726588 23.044685,0.710731 41.278594,-0.07462 85.125404,3.141584 129.669774,-4.718251 32.88994,-5.80347 63.80758,-17.457606 92.94398,-30.113015 17.64837,-7.665457 35.18079,-16.1212999 52.39256,-25.3582947 z M 351.75148,173.17826 c -20.13777,1.20796 -36.70166,11.10458 -49.49603,16.8145 -34.11342,15.22411 -62.99112,40.46265 -87.80674,65.5636 -26.39351,26.69675 -49.76164,57.46062 -66.98448,91.50476 -16.5579,32.72976 -29.05643,91.8328 -29.05643,91.8328 -5.98525,24.54738 31.16401,32.99287 36.37968,8.27051 0,0 14.8997,-61.40891 25.95947,-83.27062 15.1641,-29.9747 36.17884,-57.78129 60.22595,-82.10473 23.32192,-23.59004 49.42473,-45.64978 76.49388,-57.73026 16.22381,-7.24042 33.15945,-14.1541 40.42389,-13.62637 3.63222,0.26396 4.75977,0.5074 7.72408,4.26281 2.96431,3.75521 7.05043,12.45711 9.41827,28.25475 3.81615,25.46034 3.71011,52.24215 2.62327,79.48155 -1.23354,30.91646 -4.39726,61.70952 -10.43844,91.61407 -12.36916,61.22927 -33.67103,121.43515 -53.61311,182.84564 -19.48492,60.00274 -44.98439,119.22572 -64.87132,181.58917 -17.57494,55.11249 -34.02693,110.90587 -47.18246,167.70658 -6.75835,29.18105 -15.46637,84.54628 -15.46637,84.54628 -3.011,19.1021 21.45347,29.6045 33.22811,14.2641 0,0 61.09199,-79.81929 91.77807,-119.39548 47.78033,-61.62287 92.66135,-124.57393 142.54933,-182.31763 51.7191,-59.86283 105.86602,-117.6317 163.40797,-171.45984 35.79395,-33.48377 71.92318,-66.0379 111.21579,-92.7435 15.35048,-10.43312 26.1066,-13.88641 29.87615,-14.1001 3.76956,-0.21359 1.04338,-1.55195 2.62327,1.49384 3.15979,6.09159 4.4072,35.08497 -1.00194,68.22326 -13.78394,84.44519 -37.71958,171.63016 -56.54608,259.02965 -9.67884,44.93279 -28.61917,134.64356 -28.61917,134.64356 -4.02132,19.12167 20.3309,30.77599 32.69981,15.64823 0,0 70.96886,-86.92567 104.14754,-134.7527 43.71079,-63.00796 79.54022,-129.76917 119.3953,-192.55514 46.01098,-72.48317 91.98806,-144.81226 140.03536,-215.50899 22.8009,-33.54924 30.8764,-45.35905 59.7887,-79.73655 43.2843,7.63262 67.2038,-52.11986 81.9773,-92.43384 10.9724,-29.94177 -14.5478,-42.69633 -31.1149,-23.77342 0,0 -92.8214,103.33415 -141.511,174.97582 -48.47705,71.32921 -94.65419,143.97924 -140.67294,216.47482 -40.82529,64.31376 -76.4577,130.61235 -118.55731,191.29784 -15.94947,22.99152 -30.5832,40.1834 -52.70226,68.16869 5.09146,-23.98113 7.69317,-36.43946 11.60433,-54.5967 18.52564,-86.00227 42.68192,-173.70116 56.91043,-260.86962 5.77527,-35.38138 10.3567,-66.21474 -2.71436,-91.41372 -6.53552,-12.59954 -22.26087,-22.45297 -37.85527,-21.56913 -15.59441,0.88422 -30.55731,8.13005 -48.74913,20.49435 -42.13996,28.64082 -79.60567,62.58945 -115.71544,96.3688 -58.739,54.94843 -113.78063,113.69479 -166.15876,174.31965 -51.4089,59.50373 -96.62557,123.00417 -143.78809,183.82956 -15.08954,19.46118 -26.07015,33.87635 -44.92353,58.44137 0.51197,-2.41574 0.72314,-4.50783 1.20233,-6.5766 12.82447,-55.37179 28.97385,-110.20633 46.3809,-164.79277 19.14691,-60.04191 44.62007,-119.19401 64.81668,-181.38864 19.73418,-60.77008 41.6199,-122.31013 54.68793,-186.99884 6.52149,-32.28234 9.87135,-65.02198 11.16712,-97.49832 1.12054,-28.08445 1.367,-57.21736 -3.02405,-86.51331 -2.94903,-19.67515 -8.12335,-34.57058 -17.01483,-45.83437 -8.89146,-11.26379 -22.21537,-17.46674 -34.30292,-18.34471 -3.02189,-0.21919 -5.97672,-0.22759 -8.85355,-0.056 z M 1977.2328,395.09978 c -26.6722,39.19331 -46.1654,68.29414 -75.6559,98.13592 -11.9667,12.10921 -23.0233,22.1503 -35.3049,31.86177 0.1679,-5.10178 -0.6763,-9.95481 1.0384,-14.95624 5.426,-15.82805 18.8949,-31.39671 33.5195,-48.05694 22.1382,-25.21932 48.7954,-50.79755 73.1602,-65.65464 0.8907,-0.54377 2.2528,-0.78348 3.2427,-1.32987 z m -822.9423,117.88335 c 0.093,2.43253 0.5261,6.21676 0.4188,7.39609 -2.6881,29.49789 -12.7315,59.47687 -24.5932,89.15505 -12.2378,30.6193 -27.0442,60.14451 -45.9801,85.71127 -7.1546,9.66017 -13.9455,16.05396 -18.7454,19.2737 -2.0677,1.38789 -1.2306,0.9234 -2.2043,1.25731 -0.6026,-3.14047 -1.2711,-8.2471 0.3647,-17.39707 6.1059,-34.16456 19.2754,-67.97562 34.5398,-101.08714 11.4181,-24.76835 23.8974,-48.47042 40.0412,-67.73162 4.9678,-5.92706 10.7081,-11.09712 16.1587,-16.57759 z"
       id="path3348"
       inkscape:connector-curvature="0" />
  </g>
</svg>
