<?xml version="1.0" encoding="UTF-8" standalone="no"?>
<!-- Created with Inkscape (http://www.inkscape.org/) -->

<svg
   xmlns:dc="http://purl.org/dc/elements/1.1/"
   xmlns:cc="http://creativecommons.org/ns#"
   xmlns:rdf="http://www.w3.org/1999/02/22-rdf-syntax-ns#"
   xmlns:svg="http://www.w3.org/2000/svg"
   xmlns="http://www.w3.org/2000/svg"
   version="1.1"
   width="299.99954"
   height="252.16972"
   viewBox="0 0 299.99954 252.16973"
   id="svg7569">
  <defs
     id="defs7571" />
  <metadata
     id="metadata7574">
    <rdf:RDF>
      <cc:Work
         rdf:about="">
        <dc:format>image/svg+xml</dc:format>
        <dc:type
           rdf:resource="http://purl.org/dc/dcmitype/StillImage" />
        <dc:title></dc:title>
      </cc:Work>
    </rdf:RDF>
  </metadata>
  <g
     transform="translate(-24.376697,-406.27733)"
     id="layer1">
    <path
       d="m 55.080081,657.34926 -1.82549,-1.09397 0.2621,-3.2423 c 0.14414,-1.78327 0.35292,-3.98077 0.46394,-4.88333 0.72661,-5.907 1.14944,-8.37734 1.46753,-8.57393 0.20234,-0.12508 0.20454,-0.48236 0.006,-0.80525 -0.37758,-0.61096 -0.11808,-1.74665 0.49364,-2.16051 0.19987,-0.13515 0.18315,-0.71428 -0.0373,-1.29425 -0.23557,-0.6196 -0.24616,-1.29312 -0.0259,-1.64412 0.20526,-0.32702 0.27261,-0.91798 0.14965,-1.31326 -0.12298,-0.39529 -0.0249,-1.08978 0.21781,-1.54332 0.37803,-0.70637 0.95163,-5.45639 0.92776,-7.6829 -0.004,-0.4461 0.21639,-0.62471 0.59411,-0.47976 0.33095,0.12704 0.60172,0.0218 0.60172,-0.23374 0,-0.25556 -0.18888,-0.46465 -0.41974,-0.46465 -0.23085,0 -0.41974,-0.37776 -0.41974,-0.83947 0,-0.46172 0.20004,-0.83948 0.44452,-0.83948 0.24447,0 0.30973,0.21807 0.14501,0.48459 -0.18556,0.30024 -0.11515,0.37065 0.1851,0.18509 0.26652,-0.16472 0.48459,-0.77169 0.48459,-1.34883 0,-0.68712 -0.16751,-0.94582 -0.48525,-0.74944 -0.3516,0.2173 -0.41067,-0.15161 -0.21448,-1.33938 0.14891,-0.9016 0.27283,-1.87538 0.27537,-2.16395 0.003,-0.28857 0.20465,-0.52467 0.44914,-0.52467 0.24447,0 0.30863,0.2361 0.14257,0.52467 -0.16607,0.28857 -0.13866,0.37586 0.061,0.19399 0.19964,-0.18187 0.41211,-0.84296 0.47215,-1.46908 0.0942,-0.98156 0.0575,-1.02275 -0.26619,-0.29893 -0.29086,0.65049 -0.382,0.68567 -0.40486,0.15633 -0.0162,-0.37574 0.25174,-0.91656 0.59548,-1.20184 0.68969,-0.57239 0.42763,-1.44432 -0.2991,-0.99517 -0.27419,0.16945 -0.33466,0.0859 -0.15187,-0.20987 0.16705,-0.27029 0.47956,-0.38277 0.69446,-0.24995 0.21491,0.13278 0.39074,0.15134 0.39074,0.0411 0,-0.11011 0.12718,-0.53186 0.28273,-0.93712 0.21544,-0.56141 0.12061,-0.67459 -0.39836,-0.47543 -0.47856,0.18363 -0.61196,0.0811 -0.44863,-0.34445 0.12788,-0.33321 0.40158,-0.50133 0.60823,-0.3736 0.20668,0.12774 0.37576,-0.15669 0.37576,-0.63203 0,-0.47532 -0.18888,-0.86424 -0.41973,-0.86424 -0.64104,0 -0.49973,-1.67461 0.16277,-1.92883 0.32037,-0.12299 0.7234,-0.82532 0.89562,-1.56084 0.36862,-1.57432 0.36702,-1.47029 0.0431,-2.80639 -0.13992,-0.57714 -0.14551,-0.81207 -0.0126,-0.52206 0.13306,0.29001 0.41461,0.42052 0.62573,0.29002 0.60454,-0.37362 0.4482,-1.02718 -0.2457,-1.02718 -0.74002,0 -0.79052,-0.38805 -0.16383,-1.25921 0.38228,-0.53145 0.41605,-0.51508 0.21661,0.10493 -0.12998,0.404 -0.077,0.73454 0.11781,0.73454 0.53306,0 0.97435,-2.69643 0.46887,-2.86493 -0.23626,-0.0788 -0.42668,-0.55243 -0.42315,-1.05262 0.004,-0.65173 0.10605,-0.75224 0.35818,-0.35468 0.33406,0.5269 0.55679,-0.19341 1.6641,-5.38174 0.17244,-0.80799 0.30491,-2.22461 0.29438,-3.14803 -0.0112,-0.92342 0.16421,-1.80969 0.38834,-1.96945 0.22413,-0.15978 0.44103,-1.19863 0.482,-2.30856 0.041,-1.10994 0.20631,-2.49026 0.36744,-3.0674 0.16111,-0.57714 0.26832,-1.6863 0.23825,-2.46477 -0.0402,-1.03771 0.0982,-1.35675 0.51835,-1.19554 0.60582,0.23248 0.70912,-0.79417 0.16801,-1.66973 -0.16599,-0.26857 -0.10913,-0.60736 0.12634,-0.75289 0.23547,-0.14552 0.31251,-0.72522 0.17121,-1.28822 -0.18516,-0.73773 -0.0844,-1.02361 0.36089,-1.02361 0.38283,0 0.58959,-0.3592 0.54365,-0.94441 -0.0409,-0.51943 0.0919,-1.28592 0.29499,-1.70332 0.20303,-0.41741 0.43626,-1.58268 0.5183,-2.58951 0.082,-1.00682 0.36606,-2.23586 0.63115,-2.73116 0.26508,-0.49532 0.56515,-1.31331 0.66682,-1.81775 0.42139,-2.09078 0.57408,-3.08654 0.67163,-4.38 0.0565,-0.75028 0.21465,-1.36415 0.35126,-1.36415 0.13656,0 0.29282,-0.75305 0.34714,-1.67345 0.0543,-0.9204 0.3889,-2.47868 0.74355,-3.46284 0.35464,-0.98416 0.7174,-2.07271 0.80615,-2.41899 0.0887,-0.34629 0.29303,-1.08414 0.45397,-1.63967 0.23128,-0.79825 0.16877,-0.93714 -0.29815,-0.66238 -0.41712,0.24544 -0.39251,0.11053 0.0837,-0.45904 0.37096,-0.44368 0.86927,-1.60536 1.10734,-2.5815 0.41667,-1.70845 0.40244,-1.75351 -0.38039,-1.2052 -0.44728,0.3133 -1.9426,1.58416 -3.32293,2.82417 -1.38033,1.23999 -3.98013,3.57671 -5.77735,5.1927 -1.79722,1.61599 -4.74133,4.1659 -6.54246,5.66646 -1.80114,1.50056 -3.7724,3.17561 -4.38058,3.72235 -2.66826,2.39862 -13.04767,12.77048 -14.95715,14.94629 -1.15428,1.31526 -2.54276,2.89436 -3.08549,3.50911 -0.54275,0.61473 -1.46004,1.9241 -2.03841,2.90972 -0.87817,1.49647 -0.96213,1.8998 -0.50914,2.44563 1.02518,1.23527 8.18523,-0.36513 12.73776,-2.84713 0.60299,-0.32873 0.92325,-0.29475 1.25921,0.13362 0.24782,0.31598 0.97431,0.84485 1.61447,1.17527 0.64014,0.33041 1.09812,0.80262 1.01772,1.04934 -0.24049,0.73804 -4.22249,3.59224 -5.01486,3.59451 -0.404,10e-4 -0.73454,0.17761 -0.73454,0.39208 0,0.86578 -4.85487,1.85714 -9.24467,1.88777 l -4.417681,0.0308 -2.17085,-1.67895 c -2.03395,-1.57305 -3.47474,-3.84607 -3.47474,-5.48178 0,-1.10825 1.71288,-4.08837 3.72491,-6.48072 3.456721,-4.11015 14.788571,-15.13229 15.258731,-14.84172 0.25121,0.15526 0.33437,0.087 0.18619,-0.15273 -0.14728,-0.23834 1.16867,-1.73135 2.92436,-3.31783 1.75568,-1.58647 3.70024,-3.35669 4.32123,-3.93383 0.621,-0.57714 2.22597,-1.99375 3.56661,-3.14803 1.34064,-1.15428 3.02895,-2.62865 3.75181,-3.27638 2.16413,-1.9392 3.48977,-2.80297 3.81012,-2.48262 0.16632,0.16633 0.23944,0.10129 0.16249,-0.14436 -0.1199,-0.38303 4.54201,-5.2197 5.03116,-5.2197 0.24296,0 3.00552,-2.27733 4.27303,-3.52249 0.57714,-0.56696 2.16059,-1.88907 3.51877,-2.93801 2.812161,-2.17188 3.794831,-3.38327 3.457511,-4.26229 -0.13404,-0.34916 0.01,-0.61014 0.33608,-0.61014 0.77502,0 2.35338,-3.46628 2.12301,-4.66245 -0.10214,-0.53021 -0.0112,-1.07149 0.20072,-1.20283 0.21251,-0.13138 0.47525,-0.72887 0.58387,-1.32784 0.24117,-1.32995 1.7256,-4.6391 1.97917,-4.41206 0.10074,0.0901 0.5609,-0.2184 1.02261,-0.68574 0.717,-0.72573 0.7323,-0.8116 0.10494,-0.58863 -0.404,0.1436 -0.73455,0.0781 -0.73455,-0.14549 0,-0.22361 0.27218,-0.40657 0.60483,-0.40657 0.33267,0 0.73962,-0.21806 0.90434,-0.48459 0.18555,-0.30024 0.11515,-0.37066 -0.1851,-0.18509 -0.7116,0.43979 -0.59117,-0.39828 0.14502,-1.00927 0.34628,-0.28739 0.6296,-0.78212 0.6296,-1.0994 0,-0.91515 4.14093,-4.66071 5.4399,-4.9205 1.06065,-0.21213 3.37826,0.18445 5.05355,0.86474 0.83706,0.33991 1.15078,0.42316 1.83025,0.48557 0.31407,0.0288 1.26687,0.52467 2.117328,1.10181 0.85046,0.57714 1.67957,1.04891 1.84245,1.04837 0.16289,-4.2e-4 0.95726,-0.57096 1.76525,-1.2676 0.808,-0.69663 2.07902,-1.68782 2.8245,-2.20264 1.60553,-1.10874 12.6814,-12.25969 14.95642,-15.05779 0.87171,-1.07216 1.90246,-2.50277 2.29053,-3.17913 0.38806,-0.67637 1.24946,-2.12406 1.9142,-3.21708 0.66474,-1.09304 1.30179,-2.81398 1.41567,-3.82432 0.20022,-1.7763 0.15812,-1.85744 -1.27389,-2.45577 -7.22068,-3.017 -22.29711,-1.72988 -43.743928,3.73454 -3.23198,0.82347 -6.330541,1.58935 -6.885671,1.70197 -0.55515,0.11263 -1.37407,0.39995 -1.81983,0.63852 -0.44578,0.23858 -0.90602,0.33825 -1.02276,0.22151 -0.11669,-0.11669 -1.09219,0.067 -2.16767,0.40853 -1.07548,0.34143 -2.52206,0.71518 -3.21463,0.83055 -0.69257,0.11543 -1.84825,0.39487 -2.56818,0.62114 -2.32363,0.73028 -11.00726,0.60884 -13.59173,-0.19006 -2.44368,-0.75538 -4.10529,-1.75793 -3.65682,-2.20638 0.14816,-0.14816 0.0666,-0.64837 -0.18133,-1.11155 -0.88242,-1.64882 -0.88353,-3.15508 -0.003,-3.43471 0.44877,-0.14243 1.50997,-0.9135 2.35821,-1.7135 0.84824,-0.79999 1.67239,-1.45454 1.83146,-1.45454 0.15907,0 0.76318,-0.4395 1.34248,-0.97665 0.5793,-0.53715 1.26837,-0.90495 1.53127,-0.81731 0.2629,0.0876 0.61892,-0.0687 0.79118,-0.34742 0.19891,-0.32188 0.13641,-0.39749 -0.17141,-0.20725 -0.26655,0.16472 -0.48461,0.0995 -0.48461,-0.14502 0,-0.24448 0.19685,-0.44452 0.43745,-0.44452 0.2406,0 0.66559,-0.18602 0.94441,-0.41341 2.51109,-2.04773 3.24615,-2.52475 3.89048,-2.52475 0.40914,0 0.63372,-0.11011 0.49905,-0.24485 -0.42202,-0.422 3.76176,-3.95253 4.68387,-3.95253 0.24066,0 1.056,-0.68103 1.8119,-1.51341 0.75587,-0.83237 2.22428,-1.95509 3.26314,-2.49493 1.03885,-0.53984 2.5499,-1.61285 3.3579,-2.38444 2.00468,-1.91436 3.981561,-3.26119 4.786841,-3.26119 0.36837,0 0.66975,-0.30353 0.66975,-0.67451 0,-0.40605 0.23413,-0.58468 0.58825,-0.44878 0.34977,0.13418 0.67417,-0.10284 0.80017,-0.58471 0.12425,-0.4752 0.57544,-0.81043 1.09071,-0.81043 0.48332,0 0.87877,-0.26484 0.87877,-0.58854 0,-0.3237 0.54943,-0.78008 1.22095,-1.01417 0.67153,-0.23409 1.9386,-1.10254 2.81574,-1.92989 0.87714,-0.82733 1.83878,-1.50425 2.13696,-1.50425 0.29818,0 0.54216,-0.18888 0.54216,-0.41974 0,-0.23086 0.28332,-0.41974 0.62961,-0.41974 0.34628,0 0.6296,-0.15253 0.6296,-0.33895 0,-0.18643 0.75553,-0.67231 1.67895,-1.07972 0.92343,-0.40741 1.67896,-0.93171 1.67896,-1.16509 0,-0.23339 0.22429,-0.34959 0.49843,-0.25821 0.27415,0.0914 0.8408,-0.17621 1.25922,-0.59463 0.41842,-0.41842 1.05525,-0.76078 1.41516,-0.76078 0.3599,0 0.53764,-0.18888 0.39496,-0.41973 -0.14269,-0.23086 -0.0413,-0.41974 0.22523,-0.41974 0.26656,0 1.03324,-0.39062 1.70373,-0.86806 0.67049,-0.47743 1.225068,-0.71353 1.232418,-0.52467 0.007,0.18886 0.24345,0.0469 0.52467,-0.3154 0.58197,-0.74977 5.75805,-3.86041 5.75805,-3.46036 0,0.14396 0.33054,-0.0221 0.73454,-0.36911 0.404,-0.34699 1.01786,-0.75612 1.36415,-0.90917 0.34628,-0.15306 1.19625,-0.65223 1.88882,-1.10927 0.69257,-0.45703 2.67945,-1.54103 4.41529,-2.40887 1.73584,-0.86784 3.19968,-1.71955 3.25297,-1.8927 0.0533,-0.17314 0.14411,-0.28237 0.20182,-0.24273 0.0576,0.0396 0.98728,-0.42054 2.0657,-1.02261 1.07842,-0.60207 2.73114,-1.32549 3.67271,-1.60759 0.94157,-0.2821 1.71194,-0.65138 1.71194,-0.82063 0,-0.16926 0.79389,-0.62539 1.76421,-1.01363 2.38046,-0.95247 4.27958,-0.57144 5.23791,1.05087 0.40379,0.68356 0.97676,1.24283 1.27326,1.24283 0.75606,0 0.67067,0.59324 -0.19543,1.35775 -0.72371,0.63882 -6.0826,3.25937 -6.66525,3.25937 -0.16459,0 -0.59744,0.2437 -0.96191,0.54154 -0.36446,0.29785 -1.89039,1.1006 -3.39095,1.78389 -1.50057,0.68329 -2.82274,1.35183 -2.93817,1.48564 -0.11543,0.13376 -1.90981,1.15217 -3.98751,2.26302 -2.0777,1.11085 -4.24985,2.3461 -4.82698,2.74499 -0.57714,0.3989 -1.88748,1.14959 -2.91185,1.6682 -1.02439,0.51862 -2.12395,1.20437 -2.44348,1.5239 -0.31953,0.31954 -0.76955,0.58096 -1.00002,0.58096 -0.40982,0 -4.14265,2.40955 -4.55784,2.94209 -0.11543,0.14804 -0.865288,0.63271 -1.666368,1.07704 -0.80107,0.44432 -1.65104,0.95635 -1.88882,1.13784 -0.23777,0.18148 -2.51002,1.67953 -5.04943,3.32898 -2.53942,1.64946 -4.75895,3.23165 -4.93229,3.51598 -0.17334,0.28433 -1.48369,1.31459 -2.91189,2.28947 -1.42821,0.97489 -2.79744,1.93917 -3.04275,2.14284 -0.24529,0.20367 -2.00427,1.51307 -3.90883,2.90977 -1.904561,1.39672 -3.462841,2.71551 -3.462841,2.93065 0,0.21516 -0.25925,0.39119 -0.57611,0.39119 -0.53046,0 -4.08544,2.6372 -7.23982,5.37072 -0.72049,0.62436 -2.02495,1.70186 -2.89879,2.39443 -4.54929,3.60557 -4.91205,4.13271 -2.61196,3.79552 6.61986,-0.97048 10.40686,-1.83414 10.86626,-2.47819 0.14733,-0.20654 0.4451,-0.266 0.66172,-0.13208 0.21661,0.1339 1.57557,-0.0323 3.01991,-0.36921 1.44433,-0.33694 2.799291,-0.50556 3.010991,-0.37473 0.2117,0.13082 0.38492,0.0809 0.38492,-0.11123 0,-0.192 0.89718,-0.58447 1.99375,-0.87215 1.09657,-0.28768 2.65484,-0.69805 3.46284,-0.91193 0.80799,-0.21387 2.11427,-0.50186 2.90283,-0.63996 0.78858,-0.1381 1.56417,-0.33169 1.72356,-0.43021 0.15939,-0.0985 1.02525,-0.27504 1.92415,-0.3923 0.89889,-0.11724 2.234,-0.38897 2.9669,-0.60376 0.73291,-0.21481 1.42865,-0.29446 1.54609,-0.17702 0.11739,0.11739 0.4622,0.0583 0.76613,-0.13152 0.88027,-0.54962 2.52953,-0.77784 11.255918,-1.55759 5.99264,-0.53547 10.96624,-0.5633 13.85135,-0.0775 2.3777,0.40037 8.06536,2.4355 9.65397,3.45434 2.35807,1.51233 4.63209,3.5345 4.39895,3.91174 -0.11837,0.19157 -0.0232,0.46694 0.21132,0.61195 0.23462,0.145 0.42658,1.28118 0.42658,2.52485 0,1.81745 -0.32945,2.89784 -1.67881,5.50542 -0.92335,1.78433 -2.05664,3.59623 -2.51843,4.02644 -0.46178,0.43022 -0.84016,1.01097 -0.84081,1.29054 -8.4e-4,0.27958 -1.1982,1.73605 -2.6612,3.23662 -4.15694,4.26368 -16.31953,15.8562 -17.48502,16.66546 -0.57714,0.40074 -1.47251,1.14884 -1.98971,1.66243 -0.51721,0.51361 -1.26631,1.11623 -1.66467,1.33915 -0.68441,0.38302 -0.68502,0.56341 -0.0112,3.27608 0.90582,3.6463 1.65371,7.84858 1.78084,10.0063 0.12746,2.16393 0.52445,6.48887 1.27985,13.94435 0.33265,3.28313 0.60816,6.30524 0.61224,6.7158 0.004,0.41058 0.7757,-0.57568 1.71471,-2.19167 2.49298,-4.29032 6.66554,-8.09733 9.84115,-8.97899 2.66238,-0.73916 4.61924,-0.54805 8.073,0.78839 4.96853,1.92258 7.32511,4.43096 9.16465,9.75499 1.09986,3.18326 3.09915,12.20658 3.09915,13.98733 0,0.56536 0.14166,1.0278 0.31481,1.02764 0.17314,-1.5e-4 1.34735,-1.74731 2.60937,-3.88257 3.61169,-6.11081 6.01031,-8.27634 9.8416,-8.88522 1.21174,-0.19258 2.12361,-0.022 3.56085,0.66607 2.53776,1.21497 4.24053,2.47653 4.24053,3.1418 0,0.5785 1.24011,1.36861 2.54148,1.61923 2.07486,0.39957 3.1246,1.25662 3.25943,2.66109 0.0768,0.79955 -0.12564,1.69883 -0.4716,2.09578 -0.33333,0.3824 -0.84345,1.45081 -1.13357,2.37423 -0.29014,0.92343 -0.66841,1.86784 -0.84062,2.09869 -0.17221,0.23086 -0.73408,1.83636 -1.24863,3.56777 -0.51451,1.73142 -1.28694,4.09245 -1.71647,5.24673 -0.87145,2.34181 -2.48873,8.43077 -2.48873,9.36989 0,0.37637 0.3191,0.20149 0.83948,-0.46006 0.46171,-0.58698 0.83948,-1.27354 0.83948,-1.52569 0,-0.25217 0.16022,-0.45847 0.35606,-0.45847 0.19583,0 0.65652,-0.7083 1.02375,-1.57401 0.61895,-1.45912 1.80711,-3.60622 4.0068,-7.24048 1.50016,-2.47853 3.00815,-5.40681 3.00815,-5.84134 0,-0.22697 0.54607,-1.22486 1.21349,-2.21759 0.66741,-0.9927 1.4968,-2.48703 1.84307,-3.32071 1.04305,-2.51122 1.90571,-3.27398 3.26267,-2.88482 0.64508,0.18501 1.28153,0.22772 1.41433,0.0949 0.13278,-0.13277 0.24146,0.0733 0.24146,0.45809 0,0.41413 0.33448,0.69958 0.81974,0.69958 1.11036,0 2.94309,0.8682 3.02183,1.43151 0.0351,0.25151 0.10787,0.64619 0.16146,0.87705 0.23769,1.02309 0.25724,1.40953 0.20167,3.98751 -0.0323,1.50056 -0.173,3.2005 -0.31257,3.77764 -0.22729,0.93997 -0.18086,0.98929 0.4455,0.47327 0.38458,-0.31684 0.69923,-0.73429 0.69923,-0.92768 0,-0.34009 5.4349,-10.44319 6.30363,-11.71799 0.23598,-0.34628 0.69445,-1.2036 1.01882,-1.90512 0.71688,-1.55043 2.65404,-3.55147 3.4381,-3.55147 0.3148,0 0.57237,-0.1754 0.57237,-0.38977 0,-0.59867 -1.2466,-1.70892 -1.91881,-1.70892 -0.32978,0 -0.59962,-0.16066 -0.59962,-0.357 0,-0.42906 -4.04392,-2.99529 -4.74993,-3.01425 -0.71252,-0.0192 -1.96587,-1.04367 -1.96587,-1.60695 0,-0.26312 -0.18889,-0.47839 -0.41974,-0.47839 -0.23086,0 -0.41974,-0.28333 -0.41974,-0.62961 0,-0.34628 -0.16686,-0.62961 -0.37081,-0.62961 -0.20394,0 -0.46797,-0.5083 -0.58672,-1.12955 -0.22997,-1.20293 0.71002,-3.06783 1.5463,-3.06783 0.27071,0 2.27948,-1.0385 4.46391,-2.30777 6.95815,-4.04307 16.42307,-8.45193 17.16291,-7.99466 0.24765,0.15303 0.45025,0.0831 0.45025,-0.15547 0,-0.23856 0.56665,-0.72675 1.25922,-1.0849 0.69256,-0.35814 1.25921,-0.51578 1.25921,-0.35029 0,0.16548 0.2361,-0.008 0.52467,-0.38604 0.28857,-0.37781 1.56353,-1.0828 2.83323,-1.56665 1.26971,-0.48386 3.37386,-1.43856 4.67587,-2.1216 1.37291,-0.72022 3.01422,-1.24188 3.90735,-1.24188 0.9198,0 1.43556,-0.16904 1.28062,-0.41974 -0.14268,-0.23086 0.0823,-0.42563 0.4999,-0.43283 0.41762,-0.007 1.51484,-0.47845 2.43827,-1.04719 1.76905,-1.0896 2.52909,-1.31506 2.10165,-0.62347 -0.14684,0.2376 0.0208,0.3085 0.39257,0.16588 0.35694,-0.13697 0.55586,-0.39973 0.44203,-0.58391 -0.21428,-0.3467 1.98137,-1.25612 3.0327,-1.25612 0.32832,0 0.88668,-0.28973 1.2408,-0.64385 0.39086,-0.39086 0.977,-0.53812 1.49167,-0.37477 0.53378,0.16942 0.74835,0.10815 0.57928,-0.16541 -0.34513,-0.55843 1.06481,-1.01186 2.09803,-0.67471 0.5558,0.18137 0.6312,0.14211 0.25156,-0.13096 -0.3888,-0.27967 0.0266,-0.58315 1.46908,-1.07321 1.10615,-0.37579 3.69218,-1.26343 5.74672,-1.97253 2.05453,-0.70909 4.50538,-1.36342 5.44633,-1.45406 0.94094,-0.0907 1.77878,-0.36868 1.86185,-0.61789 0.0831,-0.24922 0.3238,-0.34636 0.53493,-0.21586 0.21114,0.13054 0.38389,0.026 0.38389,-0.23203 0,-0.2581 0.17275,-0.36252 0.38389,-0.23202 0.21113,0.13054 0.45511,0.0236 0.54216,-0.23757 0.087,-0.26115 0.71704,-0.47211 1.4,-0.46879 0.68294,0.003 1.57303,-0.34377 1.97797,-0.7713 0.6116,-0.64571 2.95133,-1.58615 4.72034,-1.8973 0.23086,-0.0406 0.51418,-0.11011 0.62961,-0.15435 0.30505,-0.11711 1.27733,-0.36913 2.85404,-0.73994 0.76171,-0.17914 1.38899,-0.5146 1.39396,-0.74546 0.0126,-0.61427 1.13761,-1.14275 1.69651,-0.79733 0.27801,0.17183 0.36737,0.11319 0.21156,-0.13893 -0.34617,-0.56013 9.18282,-4.89802 9.85154,-4.48472 0.27054,0.1672 0.38266,0.12732 0.24919,-0.0887 -0.13348,-0.21599 0.73451,-0.90699 1.92889,-1.53559 13.2173,-6.95619 13.47687,-7.07518 14.86473,-6.81482 0.75244,0.14116 1.36808,0.402 1.36808,0.57963 0,0.17765 0.65106,0.63346 1.4468,1.01291 1.13077,0.53923 1.50889,1.02095 1.73108,2.20533 0.24274,1.29387 0.13865,1.61808 -0.71225,2.21779 -0.5481,0.38631 -1.13821,0.65662 -1.31135,0.6007 -0.17314,-0.056 -0.3148,0.10297 -0.3148,0.35304 0,0.25009 -0.2361,0.36958 -0.52467,0.26551 -0.28857,-0.10409 -1.09132,0.0961 -1.78389,0.4447 -0.69257,0.34863 -1.6344,0.82529 -2.09298,1.05922 -0.45856,0.23394 -2.72515,1.35138 -5.03685,2.4832 -2.3117,1.13182 -5.65733,2.80228 -7.43474,3.71212 -1.77739,0.90984 -3.442,1.65424 -3.69912,1.65424 -0.25712,0 -1.44723,0.45386 -2.6447,1.00856 -1.19745,0.55471 -2.93272,1.32889 -3.85614,1.72039 -0.92343,0.39151 -2.39308,1.07095 -3.2659,1.50987 -0.87282,0.43892 -1.79653,0.79804 -2.05271,0.79804 -0.25617,0 -1.24199,0.3505 -2.1907,0.7789 -0.9487,0.42839 -3.33042,1.29831 -5.2927,1.93316 -1.96227,0.63485 -4.13441,1.39501 -4.82698,1.68925 -0.69257,0.29422 -2.29807,0.86624 -3.56777,1.27115 -1.26971,0.40489 -4.07833,1.48642 -6.24138,2.40336 -3.51565,1.49034 -4.55979,1.85626 -5.60914,1.96577 -0.62565,0.0653 -3.65744,6.58165 -3.67346,7.89552 -0.003,0.28489 -0.55901,1.65893 -1.23451,3.05342 -1.43354,2.95939 -3.09642,7.88008 -3.97039,11.74903 -0.76635,3.39252 -1.16959,9.95455 -1.26382,20.56716 -0.0803,9.03606 -0.46724,11.1355 -2.43223,13.19483 -0.98127,1.02839 -1.58553,1.26195 -3.65142,1.41139 -1.43265,0.10367 -3.1574,-0.0534 -4.09406,-0.373 -0.89016,-0.30362 -1.85459,-0.50549 -2.14316,-0.44857 -0.28857,0.0569 -0.52468,-0.18811 -0.52468,-0.54451 0,-0.3564 -0.20108,-0.64801 -0.44683,-0.64801 -0.24576,0 -0.92364,-0.56664 -1.50639,-1.25921 -1.06063,-1.2605 -2.24415,-1.67526 -2.24415,-0.78646 0,0.69149 -2.30178,5.10661 -3.65753,7.01563 -0.64321,0.9057 -1.45278,2.06594 -1.79907,2.57833 -0.34628,0.51237 -1.32262,1.69838 -2.16965,2.63557 -1.37703,1.5236 -1.78691,1.72444 -3.87218,1.89736 -4.12359,0.34196 -7.89777,-2.43725 -8.51686,-6.2716 -0.12452,-0.77131 -0.2852,-1.68569 -0.35704,-2.03198 -0.0718,-0.34628 -0.14505,-2.51323 -0.16272,-4.81545 -0.028,-3.64109 -0.10549,-4.07809 -0.59607,-3.35791 -0.31018,0.45538 -0.77178,1.43959 -1.0258,2.18717 -0.25401,0.74758 -1.03907,2.19823 -1.74459,3.22366 -0.70551,1.02545 -1.28276,1.95426 -1.28276,2.06403 0,0.10983 -0.94442,2.18191 -2.09869,4.60471 -1.15428,2.42281 -2.09869,4.66943 -2.09869,4.99249 0,0.32305 -0.19331,0.78068 -0.42956,1.01694 -0.23626,0.23625 -0.51443,0.87024 -0.61817,1.40885 -0.24886,1.29226 -1.70999,2.8103 -3.02186,3.13955 -1.49716,0.37577 -3.93168,-0.52761 -5.2015,-1.93011 -1.31736,-1.45502 -1.50193,-3.6937 -0.62387,-7.56706 0.33144,-1.46207 0.71354,-3.39454 0.84912,-4.29438 0.13557,-0.89983 0.36507,-2.10852 0.51001,-2.68597 0.38737,-1.54342 -0.51635,-0.81847 -1.62985,1.30741 -0.5057,0.96548 -0.9359,1.84986 -0.95601,1.96529 -0.0434,0.24936 -1.23685,2.50666 -2.42839,4.59317 -0.46893,0.82116 -1.05911,1.87079 -1.31149,2.3325 -0.47515,0.86924 -2.39392,3.13553 -3.76014,4.44113 -1.15674,1.10543 -4.92203,1.50444 -7.00747,0.74262 -1.11,-0.4055 -1.48653,-0.82035 -2.96076,-3.26218 l -0.86716,-1.43631 -0.87055,1.43631 c -1.41574,2.33582 -3.49786,5.4895 -5.08997,7.70951 -1.21433,1.69325 -1.4473,2.33615 -1.26414,3.48862 0.35611,2.24076 -0.21516,2.55829 -4.47467,2.48719 -2.06554,-0.0344 -3.75553,-0.16955 -3.75553,-0.30013 0,-0.13054 -0.62495,-0.46342 -1.38876,-0.7396 -0.76383,-0.2762 -1.83603,-1.10715 -2.38269,-1.84654 -1.13543,-1.53575 -1.16895,-2.89359 -0.20662,-8.36707 0.33032,-1.87882 0.49941,-3.57975 0.37574,-3.77987 -0.12369,-0.2001 -0.0567,-0.36381 0.14893,-0.36381 0.20559,0 0.57434,-0.80275 0.81946,-1.78389 0.24511,-0.98113 0.87602,-3.29494 1.40203,-5.14179 0.52601,-1.84684 0.97115,-4.58563 0.9892,-6.08619 0.0346,-2.87249 -0.47233,-12.06387 -0.76388,-13.85135 -0.37873,-2.32187 -0.77051,-4.89462 -0.92684,-6.0862 -0.0908,-0.69257 -0.28191,-1.54254 -0.42458,-1.88882 -0.14267,-0.34629 -0.31259,-1.0333 -0.37762,-1.52669 -0.0651,-0.49338 -0.40643,-1.53224 -0.75869,-2.30855 -0.35225,-0.77632 -0.76079,-2.01082 -0.90788,-2.74331 -0.35188,-1.75244 -2.56735,-5.06487 -3.60861,-5.39536 -3.88489,-1.233 -10.8604,6.40895 -14.72099,16.12744 -1.10499,2.78166 -2.1416,6.64256 -2.09662,7.809 0.10773,2.79542 0.0464,12.79478 -0.0824,13.43161 -0.0935,0.46171 -0.31532,2.35053 -0.49314,4.19738 -0.40223,4.17768 -0.45148,4.52385 -1.03367,7.26704 -0.5598,2.63765 -2.85015,8.78527 -3.39951,9.1248 -0.21123,0.13054 -0.38403,0.59325 -0.38403,1.02824 0,0.435 -0.37269,1.05195 -0.82819,1.37099 -0.7091,0.49668 -1.47626,0.56239 -3.9988,0.34255 -1.32445,-0.11543 -3.820008,-3.38993 -3.405918,-4.46902 0.12452,-0.32462 0.34291,-1.96258 0.48519,-3.63991 0.14228,-1.67733 0.52646,-3.97899 0.85374,-5.11481 0.32729,-1.13583 0.5079,-2.15229 0.40139,-2.25882 -0.10648,-0.10648 0.004,-0.56382 0.24652,-1.01622 0.242118,-0.45239 0.520578,-1.76545 0.618778,-2.91793 0.0982,-1.15246 0.37614,-2.46456 0.61763,-2.91576 0.24148,-0.45121 0.32646,-1.17512 0.18885,-1.60868 -0.13767,-0.43356 -0.0618,-0.90467 0.16828,-1.04692 0.23017,-0.14225 0.31883,-0.51834 0.19704,-0.83573 -0.12187,-0.3174 0.0894,-1.49186 0.46939,-2.60991 0.37997,-1.11806 0.75571,-3.16613 0.83497,-4.55126 0.0793,-1.38514 0.34849,-3.05015 0.59828,-3.70003 0.55459,-1.44289 0.58219,-5.49993 0.0606,-8.89211 -0.21302,-1.38513 -0.48852,-4.12392 -0.61223,-6.0862 -0.46764,-7.41822 -1.30521,-16.47567 -1.96012,-21.19677 -0.22417,-1.61599 -0.47753,-3.6937 -0.56303,-4.61712 -0.31968,-3.45264 -0.786118,-6.0862 -1.077948,-6.0862 -0.29562,0 -1.26264,0.75104 -3.38209,2.62671 -0.58486,0.51759 -1.79653,1.50771 -2.69259,2.20028 -6.48427,5.01175 -8.47617,6.84749 -9.34206,8.60966 -1.1425,2.32511 -3.49334,9.36557 -4.90365,14.6858 -0.58136,2.19313 -1.35589,5.02636 -1.7212,6.29607 -0.62957,2.18822 -1.326891,5.49515 -1.710781,8.11299 -0.0957,0.65303 -0.26132,1.32841 -0.3679,1.50085 -0.24417,0.39509 -2.75309,12.91548 -2.75309,13.73892 0,0.34725 0.31578,0.55607 0.73454,0.48576 0.48934,-0.0821 0.98037,0.37926 1.471,1.38234 0.65766,1.34456 0.67142,1.63651 0.12872,2.72829 -0.62235,1.25193 -0.74343,3.68581 -1.3033,26.19703 -0.33788,13.58538 -1.50522,24.73057 -2.75173,26.27223 -0.20384,0.2521 -0.26722,0.56175 -0.14085,0.68812 0.28356,0.28356 -0.87958,5.11172 -1.64504,6.82855 -1.77544,3.98205 -5.94075,12.23569 -6.41348,12.70842 -0.30512,0.30512 -0.70059,0.78153 -0.87882,1.05872 -0.4117,0.64021 -3.27143,1.97429 -4.22089,1.96906 -0.39616,-10e-4 -1.54176,-0.49626 -2.54576,-1.09794 z m 9.13039,-23.8725 c 0.46855,-2.30856 0.93914,-5.09072 1.04576,-6.18258 0.10661,-1.09187 0.28059,-2.13072 0.38663,-2.30856 0.10606,-0.17784 0.30601,-2.40105 0.44437,-4.94047 0.30091,-5.52285 -0.27435,-4.77643 -1.00623,1.30565 -0.27473,2.28301 -0.56424,4.52871 -0.64334,4.99042 -0.27761,1.62006 -1.48097,9.66641 -1.62131,10.84095 -0.31654,2.649 0.59744,0.21974 1.39412,-3.70541 z m 80.785899,-46.10495 c 0.12732,-0.50733 0.57636,-1.29641 0.99783,-1.75351 0.42149,-0.45713 1.01836,-1.44499 1.32639,-2.19528 0.30803,-0.75028 0.69569,-1.36414 0.86148,-1.36414 0.33056,0 1.34568,-1.94142 1.53233,-2.93056 0.0645,-0.34208 0.31653,-0.68837 0.55995,-0.76952 0.24344,-0.0811 0.4426,-0.50954 0.4426,-0.95202 0,-0.44247 0.20004,-0.8045 0.44452,-0.8045 0.24447,0 0.33773,-0.17275 0.20725,-0.38389 -0.13054,-0.21114 -0.0944,-0.44724 0.0802,-0.52467 0.24762,-0.10983 2.95854,-5.25489 3.28098,-6.22698 0.45045,-1.35803 1.27635,-2.93816 1.5357,-2.93816 0.18025,0 0.32771,-0.37777 0.32771,-0.83948 0,-0.46171 0.14977,-0.83948 0.33281,-0.83948 0.18307,0 0.68979,-1.08607 1.12609,-2.41349 0.43629,-1.32742 0.91419,-2.60237 1.06201,-2.83323 0.40651,-0.63492 0.41389,-2.30856 0.01,-2.30856 -0.19521,0 -1.3486,0.51554 -2.56311,1.14565 -3.39136,1.7595 -5.5657,5.3809 -11.54555,19.22928 -1.28314,2.97155 -2.13304,8.81261 -1.53568,10.55423 0.25833,0.75322 1.25388,0.19404 1.51634,-0.85169 z m 55.5327,-8.4178 c 0.50197,-0.60089 0.80323,-1.09251 0.66948,-1.09251 -0.13375,0 0.0784,-0.35528 0.47133,-0.7895 0.39297,-0.43423 1.72812,-2.62406 2.967,-4.8663 l 2.25251,-4.07682 -1.36123,-2.37418 c -0.74865,-1.30579 -2.00731,-3.64843 -2.797,-5.20584 -0.78968,-1.55743 -1.55828,-2.83239 -1.70799,-2.83323 -0.14972,-8.4e-4 -0.40973,1.36785 -0.57781,3.04155 -0.16809,1.6737 -0.26668,3.0431 -0.2191,3.0431 0.0476,0 -0.29425,1.03885 -0.75961,2.30856 -0.46537,1.2697 -0.94917,2.96964 -1.07512,3.77764 -0.12592,0.80799 -0.34381,1.94129 -0.48415,2.51843 -0.14035,0.57714 -0.34395,3.12704 -0.45244,5.66646 l -0.19725,4.61711 1.17937,-1.32098 c 0.64865,-0.72655 1.59006,-1.81263 2.09201,-2.41349 z m 19.63339,-7.49223 c 0.61109,-1.49489 0.77271,-4.89222 0.67903,-14.27237 -0.0315,-3.14647 -0.55099,-3.65592 -1.28422,-1.25922 -0.56695,1.85326 -0.71771,2.21155 -2.78177,6.61088 -0.86648,1.84684 -1.59774,3.54678 -1.62503,3.77764 -0.0512,0.43304 -0.92415,2.59982 -1.27836,3.17296 -0.10998,0.17804 0.27338,0.88641 0.85206,1.57413 0.5787,0.68773 1.05216,1.38175 1.05216,1.54227 0,0.16054 0.41852,0.63077 0.93004,1.04498 0.86543,0.70078 0.99545,0.70546 1.87163,0.0673 0.51786,-0.3772 1.23086,-1.39356 1.58446,-2.25855 z m -9.84013,-10.28486 c 0.001,-0.404 0.30426,-1.30119 0.67299,-1.99376 0.36871,-0.69256 0.91205,-1.9203 1.2074,-2.72829 0.66441,-1.81759 3.5077,-8.14209 6.22712,-13.85135 0.71476,-1.50056 1.33718,-2.91718 1.38318,-3.14804 0.10283,-0.51612 1.293,-3.12918 1.8162,-3.98751 0.21108,-0.34628 0.74308,-1.47959 1.18222,-2.51844 0.43915,-1.03885 1.1136,-2.60353 1.49879,-3.47706 0.38518,-0.87355 0.70033,-1.68903 0.70033,-1.81218 0,-0.62046 -5.15969,1.60715 -16.33552,7.05252 -4.71371,2.29674 -8.90326,4.20096 -9.3101,4.2316 -0.40683,0.0306 -0.65514,0.19256 -0.55177,0.35981 0.1034,0.16726 -1.13617,1.02524 -2.75456,1.90664 -1.61838,0.88138 -2.94377,1.71216 -2.94531,1.84617 -0.001,0.13404 0.89438,0.87612 1.99094,1.64912 3.26539,2.30193 9.11588,8.49779 10.96823,11.61576 0.95086,1.60054 1.72884,3.03932 1.72884,3.19727 0,0.43335 1.7805,2.39228 2.17438,2.39228 0.18922,0 0.34521,-0.33054 0.34664,-0.73454 z m -1.47464,-33.67917 c 0.14705,-0.23793 -0.0214,-0.30829 -0.39497,-0.16495 -0.72716,0.27903 -0.86021,0.57988 -0.25645,0.57988 0.21724,0 0.51037,-0.18671 0.65142,-0.41493 z M 96.208122,514.15413 c 0.7175,-0.64694 1.03227,-1.28126 0.89545,-1.80443 -0.51668,-1.97581 -2.78184,-0.2903 -5.35699,3.98616 -0.80953,1.34437 -1.47188,2.53046 -1.47188,2.63577 0,0.19017 3.81482,-2.90718 5.93342,-4.8175 z m 149.233798,55.00683 c -1.11877,-0.16584 -1.86462,-0.71297 -3.14438,-2.3066 -0.46632,-0.58071 -0.37668,-1.06592 0.57827,-3.12989 1.47027,-3.1777 1.66741,-3.68227 2.51235,-6.43013 0.70181,-2.28232 1.23596,-3.65563 2.69381,-6.92567 2.37832,-5.33473 3.33704,-7.68684 3.57103,-8.76109 0.24155,-1.10896 0.37967,-1.18681 1.71987,-0.96933 1.93881,0.31462 5.15996,1.95219 5.88987,2.99428 0.56515,0.80685 0.86096,4.0029 0.32047,3.46242 -0.37835,-0.37835 -1.46188,1.19369 -2.83497,4.11319 -0.65146,1.38514 -1.51399,3.17952 -1.91676,3.98751 -0.40275,0.808 -1.16309,2.6536 -1.68964,4.10136 -0.52653,1.44775 -1.12169,2.73385 -1.32256,2.858 -0.20088,0.1241 -0.36523,0.67598 -0.36523,1.2263 0,0.98888 -1.55369,4.06572 -2.18979,4.33652 -0.18075,0.077 -0.32864,0.37602 -0.32864,0.66459 0,0.28857 -0.2361,0.53365 -0.52467,0.54462 -0.28857,0.0112 -0.808,0.10759 -1.15428,0.21478 -0.34628,0.10717 -1.16291,0.11571 -1.81475,0.0192 z m 28.66225,-12.71583 c -0.31561,-0.19504 -0.7168,-0.26624 -0.89157,-0.15823 -0.32372,0.20008 -1.8409,-0.5415 -2.66198,-1.30112 -1.76747,-1.6352 -1.67628,-6.92922 0.19455,-11.29369 0.47096,-1.09872 0.85629,-2.23969 0.85629,-2.53551 0,-0.82208 3.66085,-8.00732 4.38656,-8.6096 0.39743,-0.32985 1.07825,-0.42051 1.79912,-0.23959 0.63786,0.1601 1.25418,0.28905 1.36961,0.28656 0.11542,-0.003 0.36091,0.26538 0.54553,0.59527 0.54795,0.97915 1.4151,0.69314 2.7282,-0.89988 1.60523,-1.94743 3.83949,-2.26212 5.3483,-0.75332 0.54658,0.54659 1.21631,0.99378 1.48829,0.99378 0.61661,0 1.95101,1.50727 2.2956,2.593 0.50265,1.58367 3.45484,5.61213 4.53731,6.19145 0.96455,0.51621 1.19071,0.50276 1.86901,-0.11109 1.16859,-1.05756 2.84816,-0.88146 3.72908,0.39097 0.41477,0.59914 1.1057,1.47015 1.5354,1.93557 0.42971,0.46543 0.96394,1.50772 1.18717,2.31621 0.3631,1.31504 0.28465,1.59653 -0.7441,2.67032 -0.97366,1.01626 -1.38095,1.16393 -2.65625,0.96294 -0.82844,-0.13053 -1.96047,-0.21963 -2.51562,-0.19794 -0.55514,0.0217 -1.24417,-0.29582 -1.53116,-0.70557 -0.287,-0.40975 -1.20218,-1.01195 -2.03375,-1.33824 -0.83156,-0.32627 -1.51193,-0.74685 -1.51193,-0.93463 0,-0.18776 -0.26298,-0.34138 -0.5844,-0.34138 -0.5658,0 -5.28538,-4.78836 -5.29835,-5.37559 -0.003,-0.15999 -0.17439,-0.55618 -0.37967,-0.88042 -0.29909,-0.47243 -0.59983,-0.34735 -1.51392,0.6296 -1.20123,1.28386 -6.07501,8.34257 -6.07501,8.79848 0,0.14635 -0.35056,0.76746 -0.77902,1.38024 -0.71197,1.01825 -0.85762,1.55128 -0.93853,3.43477 -0.0741,1.72459 -2.44895,3.30368 -3.75476,2.49663 z M 150.60634,513.65847 c -0.32736,-0.12467 -1.1919,-0.73397 -1.92124,-1.35392 -1.63328,-1.38833 -1.69908,-2.63313 -0.29324,-5.54678 0.56804,-1.1773 1.09606,-2.65282 1.17339,-3.27894 0.0774,-0.62612 0.27364,-1.27147 0.43627,-1.4341 0.16262,-0.16264 0.2957,-0.69674 0.2957,-1.18691 0,-0.49016 0.29194,-2.01201 0.64874,-3.38189 0.35681,-1.36988 0.72453,-2.96784 0.81716,-3.55102 0.0926,-0.58318 0.57092,-2.94916 1.06283,-5.25772 0.49194,-2.30856 0.97322,-4.7403 1.06954,-5.40387 0.0963,-0.66358 0.35574,-1.89131 0.57647,-2.7283 0.22074,-0.83698 0.51353,-2.37177 0.65066,-3.41062 0.37004,-2.80347 0.46094,-3.3348 1.03825,-6.06837 0.29044,-1.37533 0.58285,-2.98083 0.64977,-3.56778 0.0669,-0.58693 0.24806,-1.63381 0.40254,-2.32638 0.15449,-0.69257 0.62465,-3.05359 1.04481,-5.24672 0.88625,-4.62591 1.14605,-5.75034 1.43763,-6.22213 0.21513,-0.34809 0.3529,-0.90373 1.05906,-4.27132 0.21784,-1.03885 0.53147,-2.23845 0.69696,-2.66578 0.28606,-0.73873 0.23695,-0.7439 -0.99783,-0.10536 -0.7143,0.36937 -2.11123,1.21743 -3.1043,1.88456 -0.99306,0.66714 -2.84442,1.77508 -4.11413,2.4621 -4.25663,2.30319 -6.90498,3.76896 -9.98537,5.52659 -1.68282,0.96019 -3.4772,1.93528 -3.98751,2.16686 -1.26271,0.57304 -2.60493,1.36575 -3.32648,1.96457 -0.32966,0.2736 -1.65813,0.60027 -2.95218,0.72594 -2.17388,0.21111 -2.37576,0.15607 -2.65474,-0.7237 -0.16607,-0.52371 -0.70963,-1.61327 -1.2079,-2.42127 -1.03555,-1.6792 -1.23987,-3.13143 -0.51723,-3.67615 0.27307,-0.20584 1.34645,-0.61233 2.3853,-0.90332 1.03886,-0.29099 2.47937,-0.87057 3.20115,-1.28798 0.72178,-0.41738 1.92258,-0.89292 2.66845,-1.05674 1.14888,-0.25235 3.16856,-1.3466 4.83372,-2.61893 0.23086,-0.1764 1.55303,-0.87732 2.93816,-1.55762 1.38514,-0.68029 3.65172,-1.92566 5.03686,-2.76748 4.1501,-2.52225 10.01215,-5.84522 12.69707,-7.1975 0.51942,-0.26161 0.94441,-0.62651 0.94441,-0.81089 0,-0.18436 1.20661,-0.89369 2.68133,-1.57628 4.00126,-1.852 15.06485,-7.22486 15.78714,-7.66679 0.34629,-0.21187 1.7629,-0.94497 3.14804,-1.62913 1.38513,-0.68415 3.3498,-1.73071 4.36593,-2.32568 1.01611,-0.59498 3.84935,-2.11435 6.29607,-3.37636 2.44671,-1.26203 5.39297,-2.8444 6.54725,-3.51637 2.42698,-1.41291 6.45336,-3.36447 6.94141,-3.36447 0.18372,0 0.39701,-0.15722 0.47396,-0.34937 0.15879,-0.39653 4.64944,-3.00846 8.80618,-5.12204 2.58416,-1.31394 2.87829,-1.3758 3.98751,-0.83851 0.65867,0.31906 1.32271,0.55263 1.47566,0.51908 0.15295,-0.0336 0.81404,0.62279 1.46908,1.45855 0.65505,0.83576 1.40242,1.7255 1.66082,1.9772 0.34058,0.33175 0.34507,0.74752 0.0164,1.51131 -0.70601,1.64044 -6.15993,6.70916 -8.17182,7.59467 -1.80455,0.79425 -4.95867,0.97937 -5.3692,0.31512 -0.11907,-0.19261 -0.56556,-0.35021 -0.99228,-0.35021 -0.73455,0 -5.20613,2.18918 -8.40883,4.11676 -1.29881,0.78172 -19.22901,9.99629 -24.42887,12.55433 -1.08509,0.53382 -2.08787,1.15661 -2.2284,1.38398 -0.14051,0.22738 -0.53032,0.4134 -0.86621,0.4134 -0.75629,0 -3.52482,1.7588 -3.53193,2.24377 -0.003,0.19522 -0.41211,0.9264 -0.90944,1.62485 -0.92373,1.29726 -4.1326,10.41256 -4.1326,11.73929 0,0.40337 -0.26147,1.35367 -0.58106,2.11177 -0.86578,2.05378 -2.52689,9.06932 -3.42674,14.47236 -0.24312,1.45983 -0.72992,3.95832 -1.61961,8.31267 -0.37734,1.84684 -0.87928,4.49119 -1.11543,5.87633 -0.37742,2.214 -0.86628,4.83254 -1.41047,7.55528 -1.27877,6.39802 -2.14448,10.33773 -2.99344,13.62252 -0.56412,2.18271 -1.02566,4.37659 -1.02566,4.87532 0,2.11249 -3.01382,3.94832 -5.14747,3.13553 z m 112.56912,-23.91216 c -0.3291,-0.35332 -0.54647,-0.80191 -0.48303,-0.99688 0.0634,-0.19498 -0.0909,-0.22702 -0.34305,-0.0712 -0.25946,0.16035 -0.55845,-0.0993 -0.68896,-0.59841 -0.12676,-0.48494 -0.41764,-0.88172 -0.64627,-0.88172 -0.22863,0 -0.3158,-0.2603 -0.19371,-0.57845 0.12215,-0.31815 0.0506,-0.74972 -0.1586,-0.95903 -0.20931,-0.20933 -0.44255,-1.16396 -0.51828,-2.12143 -0.11501,-1.45456 0.004,-1.7871 0.72817,-2.02218 1.78707,-0.58065 2.7941,-0.48618 3.21574,0.30166 0.23227,0.43398 0.64852,0.76067 0.92505,0.72595 1.26961,-0.15933 2.00921,0.11963 3.15697,1.19065 1.72512,1.60982 2.00533,2.79081 0.9197,3.87642 -0.48194,0.48194 -0.76377,1.05825 -0.6263,1.28067 0.13753,0.22245 -0.11585,0.40443 -0.5629,0.40443 -0.44707,0 -1.04895,0.28449 -1.33753,0.6322 -0.65007,0.78329 -2.58439,0.67895 -3.387,-0.18269 z m -33.65034,-4.18962 c -2.31941,-1.08323 -4.09482,-2.81946 -4.09482,-4.00448 0,-0.56226 -0.37656,-1.28606 -0.8368,-1.60842 -0.46025,-0.32237 -0.75111,-0.67182 -0.64637,-0.77655 0.2082,-0.20822 -4.58775,-5.23696 -7.01241,-7.35278 -0.83351,-0.72733 -2.42675,-1.94317 -3.54056,-2.70186 -2.45314,-1.67104 -4.94897,-3.71247 -7.73863,-6.32973 l -2.08834,-1.95927 -3.34615,3.44935 c -1.8404,1.89714 -3.63522,3.86204 -3.98852,4.36642 -0.35327,0.5044 -2.56966,2.56568 -4.92528,4.58063 -5.43038,4.64501 -6.00119,5.15417 -9.88393,8.81645 -3.39637,3.20352 -5.10995,3.93779 -7.27165,3.11591 -1.0463,-0.3978 -2.86754,-2.79894 -2.86754,-3.78059 0,-0.43552 2.33049,-3.20144 3.70279,-4.39463 0.30512,-0.26529 0.87431,-0.76822 1.26489,-1.11762 0.39057,-0.3494 1.36865,-1.09249 2.17353,-1.65132 0.80487,-0.55882 2.21894,-1.66423 3.14237,-2.45647 2.24722,-1.92798 15.32029,-14.87183 15.32094,-15.16951 2.8e-4,-0.12914 0.48428,-0.79738 1.07555,-1.48491 0.96758,-1.1251 1.04359,-1.46078 0.76028,-3.3579 -0.17313,-1.15932 -0.29946,-2.53099 -0.28074,-3.04818 0.0382,-1.05638 2.50589,-6.03436 3.2176,-6.4908 0.7536,-0.4833 4.10701,-0.0673 4.49307,0.55732 0.1964,0.31777 0.50563,0.5441 0.68719,0.50297 0.18157,-0.0411 1.03747,0.52551 1.90202,1.25921 1.42982,1.21341 1.57164,1.52372 1.56889,3.43269 -0.003,1.46946 -0.43991,3.09951 -1.46021,5.43674 l -1.4572,3.33805 0.93765,1.05098 c 2.31933,2.59967 5.31254,5.29554 7.33866,6.60965 1.21199,0.78609 2.20362,1.61231 2.20362,1.83608 0,0.22376 0.17675,0.40683 0.39279,0.40683 0.3885,0 3.54375,2.68584 5.30083,4.51219 0.49971,0.51942 1.12302,0.94441 1.38512,0.94441 0.2621,0 0.47654,0.1979 0.47654,0.43978 0,0.56552 2.07699,2.49839 2.68466,2.49837 0.49838,-2e-5 2.48881,-2.31928 3.76916,-4.39189 0.43306,-0.701 0.90961,-1.369 1.05904,-1.48443 0.14943,-0.11543 0.6329,-0.77651 1.07438,-1.46908 0.44149,-0.69257 1.23987,-1.60347 1.77419,-2.02422 0.53432,-0.42076 0.97149,-1.03462 0.97149,-1.36414 0,-0.32954 0.18888,-0.59915 0.41974,-0.59915 0.23086,0 0.41974,-0.27597 0.41974,-0.61325 0,-0.33729 0.41337,-0.99838 0.91862,-1.46909 0.50524,-0.4707 0.77316,-0.85583 0.59537,-0.85583 -0.4146,0 1.33183,-2.91355 2.33709,-3.89893 0.42132,-0.41298 0.76603,-1.00664 0.76603,-1.31923 0,-0.3126 0.2953,-0.68166 0.65621,-0.82016 0.36092,-0.13851 0.54799,-0.4269 0.41575,-0.64091 -0.13222,-0.214 0.23353,-0.76194 0.81286,-1.21764 0.57934,-0.45571 1.05335,-1.04413 1.05335,-1.3076 0,-0.48025 1.08646,-2.34431 1.88338,-3.2313 0.23385,-0.26028 0.7085,-0.89179 1.05478,-1.40333 1.65376,-2.44303 3.27705,-4.402 6.15615,-7.42921 0.73103,-0.76864 1.25311,-1.39753 1.16017,-1.39753 -0.46209,0 1.81514,-5.13556 3.25712,-7.34542 2.01432,-3.08697 4.17214,-4.27403 6.02338,-3.31358 0.62048,0.32191 1.39579,0.58528 1.72294,0.58528 0.32713,0 0.7031,0.28225 0.83547,0.6272 0.13236,0.34496 0.38998,0.53493 0.57245,0.42215 0.18248,-0.11277 0.44008,0.0772 0.57246,0.42214 0.13235,0.34497 0.63551,0.6272 1.11809,0.6272 0.48258,0 0.77292,0.1691 0.6452,0.37576 -0.12774,0.20667 0.0712,0.49222 0.44223,0.63458 0.52592,0.20181 0.56712,0.38816 0.18708,0.84608 -0.31076,0.37444 -0.33708,0.68017 -0.0726,0.8436 0.49678,0.30704 -1.23507,3.19138 -1.81684,3.0259 -0.21643,-0.0616 -0.70747,0.18321 -1.09121,0.54391 -0.38372,0.36074 -1.05662,0.95453 -1.49531,1.31956 -1.3477,1.12141 -3.30264,3.692 -3.56495,4.68763 -0.13683,0.51961 -0.0491,1.3225 0.195,1.78421 0.24415,0.46171 0.45059,0.9654 0.45877,1.1193 0.008,0.1539 0.15654,0.42149 0.32968,0.59463 0.17314,0.17314 0.3148,0.6263 0.3148,1.00703 0,1.82315 7.03828,3.68967 14.48096,3.84027 6.86431,0.13893 15.16297,-0.47591 20.77702,-1.53931 1.73142,-0.32795 3.80912,-0.69617 4.61712,-0.81826 2.86535,-0.43297 10.91318,-3.2704 10.91318,-3.84768 0,-1.58787 0.48718,-2.07779 2.36999,-2.38333 3.1133,-0.50522 7.86984,3.50774 7.0858,5.97806 -0.44514,1.4025 -7.62777,4.5013 -13.65317,5.89038 -2.19313,0.5056 -5.02636,1.18099 -6.29607,1.50084 -3.28887,0.82853 -4.45144,0.97105 -15.11056,1.85228 -8.3872,0.69339 -14.10975,0.3726 -18.77178,-1.05232 -1.20568,-0.3685 -2.43342,-0.7151 -2.72831,-0.77021 -0.29488,-0.0551 -1.26752,-0.41692 -2.16143,-0.80403 -0.8939,-0.38709 -1.71013,-0.70381 -1.81387,-0.70381 -0.10367,0 -0.43931,-0.2361 -0.74576,-0.52467 -0.30645,-0.28857 -1.26559,-1.09132 -2.13144,-1.78389 -0.86584,-0.69257 -1.78214,-1.50186 -2.0362,-1.79845 -0.25407,-0.29657 -0.68905,-0.79352 -0.96662,-1.10432 -0.27759,-0.31077 -0.38777,-0.68199 -0.24485,-0.82489 0.14291,-0.14293 0.0765,-0.25985 -0.14752,-0.25985 -0.49791,0 -2.53449,2.14317 -4.1802,4.39896 -0.67035,0.91888 -1.53908,2.05217 -1.93051,2.51843 -1.82102,2.16915 -7.75825,11.40082 -7.96885,12.39055 -0.0736,0.34628 -0.24009,0.72405 -0.36979,0.83948 -0.67553,0.60112 -5.37785,7.55623 -5.11245,7.56171 0.1713,0.003 0.11347,0.14519 -0.12858,0.31481 -0.84203,0.59019 -2.28834,2.96161 -2.28834,3.75205 0,0.43762 -0.22666,1.02233 -0.50368,1.29935 -0.39176,0.39176 -0.38089,0.50369 0.049,0.50369 0.34599,0 0.47055,0.31391 0.3331,0.83947 -0.12075,0.46172 -0.0483,0.83948 0.16093,0.83948 0.56898,0 0.45862,1.24768 -0.16047,1.81387 -1.83971,1.68253 -3.41636,1.88227 -5.85772,0.74209 z"
       id="path7558"
       style="fill:#000000" />
  </g>
</svg>
