<?xml version="1.0" encoding="UTF-8" standalone="no"?>
<!-- Created with Inkscape (http://www.inkscape.org/) -->

<svg
   xmlns:dc="http://purl.org/dc/elements/1.1/"
   xmlns:cc="http://creativecommons.org/ns#"
   xmlns:rdf="http://www.w3.org/1999/02/22-rdf-syntax-ns#"
   xmlns:svg="http://www.w3.org/2000/svg"
   xmlns="http://www.w3.org/2000/svg"
   xmlns:sodipodi="http://sodipodi.sourceforge.net/DTD/sodipodi-0.dtd"
   xmlns:inkscape="http://www.inkscape.org/namespaces/inkscape"
   id="svg5072"
   version="1.1"
   inkscape:version="0.91 r13725"
   width="482.86063"
   height="120.77264"
   viewBox="0 0 482.86062 120.77264"
   sodipodi:docname="Scott 2.svg">
  <metadata
     id="metadata5078">
    <rdf:RDF>
      <cc:Work
         rdf:about="">
        <dc:format>image/svg+xml</dc:format>
        <dc:type
           rdf:resource="http://purl.org/dc/dcmitype/StillImage" />
        <dc:title></dc:title>
      </cc:Work>
    </rdf:RDF>
  </metadata>
  <defs
     id="defs5076" />
  <sodipodi:namedview
     pagecolor="#ffffff"
     bordercolor="#666666"
     borderopacity="1"
     objecttolerance="10"
     gridtolerance="10"
     guidetolerance="10"
     inkscape:pageopacity="0"
     inkscape:pageshadow="2"
     inkscape:window-width="1289"
     inkscape:window-height="761"
     id="namedview5074"
     showgrid="false"
     fit-margin-top="0"
     fit-margin-left="0"
     fit-margin-right="0"
     fit-margin-bottom="0"
     inkscape:zoom="1.63"
     inkscape:cx="278.79765"
     inkscape:cy="60.509313"
     inkscape:window-x="-5"
     inkscape:window-y="0"
     inkscape:window-maximized="0"
     inkscape:current-layer="svg5072" />
  <path
     style="fill:#272727"
     d="m 0,119.17106 c 0,-1.80118 2.4422211,-4.625 4,-4.625 0.55,0 1,0.88166 1,1.95923 0,1.46093 0.712835,1.73299 2.802697,1.0697 2.491429,-0.79075 2.613256,-0.66128 1.096945,1.16576 C 6.860863,121.19733 0,121.52906 0,119.17106 Z M 116.44817,110.146 c -3.71775,-3.12828 -3.84161,-3.1423 -17.908406,-2.02682 C 85.23615,109.17414 80,108.56923 80,105.97736 c 0,-0.5394 7.048711,-1.57323 15.663804,-2.2974 16.469976,-1.38443 20.586186,-3.01197 20.586186,-8.139711 0,-3.131055 -3.32642,-9.604772 -6.93378,-13.49419 -5.40168,-5.824033 -11.810606,-17.947342 -13.300136,-25.158932 -1.32945,-6.43657 -1.7241,-7.0501 -3.815109,-5.93103 -4.214568,2.25557 -42.648284,29.416371 -50.950965,36.006642 -10.977046,8.71306 -10.608259,8.41486 -21.359215,17.270821 -5.216319,4.29688 -10.438071,7.8125 -11.603894,7.8125 -5.02931,0 39.875619,-35.939282 69.213109,-55.394133 7.90625,-5.24294 15.535754,-10.34001 16.954454,-11.32682 1.4187,-0.98681 3.25528,-3.95641 4.08127,-6.59912 2.469016,-7.89939 7.884966,-14.45851 17.117086,-20.73006 8.46237,-5.74863 21.95533,-10.9498696 28.40597,-10.9498696 1.74033,0 4.49218,1.0772198 6.11523,2.3938197 l 2.95098,2.3938099 -3.08025,3.28426 c -2.95445,3.15013 -6.45971,5.36924 -36.64354,23.1983 -8.64497,5.10643 -13.698596,8.88087 -14.101096,10.53177 -1.77368,7.27495 2.877066,18.25403 13.268456,31.323042 6.87665,8.648607 8.6215,14.72003 5.6955,19.818292 -2.21225,3.854609 -2.2056,3.896029 1.07947,6.721719 2.61569,2.24993 3.81156,2.57235 5.73095,1.54513 2.81958,-1.509 3.47346,0.99191 0.92551,3.53986 -2.32983,2.32983 -5.4658,1.7881 -9.55183,-1.65006 z m 5.87391,-81.398753 c 19.02298,-11.22365 24.3096,-15.07233 23.19061,-16.88289 -1.02961,-1.66596 -8.43393,-1.25491 -11.17206,0.62021 -1.3561,0.92868 -3.93553,2.04507 -5.73207,2.48088 -6.04276,1.46585 -18.80043,11.04631 -22.5201,16.91163 -3.54344,5.58742 -4.31127,7.66898 -2.82888,7.66898 0.41777,0 8.9959,-4.85946 19.0625,-10.79881 z m 53.25151,83.215653 c -0.45316,-0.73324 -0.62699,-1.50313 -0.38628,-1.71086 0.24073,-0.20773 5.50018,-4.19763 11.68768,-8.86645 18.62581,-14.05423 25.2536,-20.307337 40.98075,-38.664003 19.76717,-23.07217 18.72404,-22.02644 20.7299,-20.78154 1.33944,0.83129 0.56825,2.60809 -3.55384,8.18795 -6.42479,8.69691 -9.79226,16.07139 -10.84454,23.748616 l -0.79595,5.807099 3.49078,-0.876131 c 2.4771,-0.621712 3.23372,-0.460206 2.60557,0.556174 -0.48687,0.787768 -1.65558,1.432304 -2.59716,1.432304 -3.3036,0 -5.39427,3.743386 -6.2609,11.210217 -0.48104,4.144747 -1.38124,7.222795 -2.00042,6.840115 -0.61919,-0.38268 -0.78723,-3.475552 -0.37343,-6.873056 0.64209,-5.27171 0.44144,-6.177276 -1.36871,-6.177276 -1.1666,0 -2.41529,1.125 -2.77486,2.5 -0.80625,3.083082 -2.318,3.220626 -3.43472,0.3125 -0.57415,-1.495208 0.0544,-2.780894 1.98592,-4.0625 6.00196,-3.98233 7.09458,-5.715044 7.88232,-12.500002 l 0.79819,-6.875 -11.60945,12.118303 c -6.3852,6.665065 -17.5157,16.67682 -24.73445,22.248351 -7.21875,5.571519 -14.1158,10.946409 -15.32679,11.944189 -2.63148,2.16821 -3.0281,2.21474 -4.09961,0.481 z m 81.46998,0.35592 c -0.99399,-1.60831 4.95066,-7.69195 17.95642,-18.376271 29.44027,-24.185382 52.56346,-44.928132 51.92855,-46.582692 -0.37157,-0.96831 -0.72156,-7.48679 -0.77774,-14.48551 -0.15337,-19.10666 5.10367,-30.8628894 14.59739,-32.64392938 12.3722,-2.32104002 19.82256,13.34422938 12.6893,26.68075938 -1.54688,2.89208 -7.24934,9.68658 -12.67214,15.09889 l -9.85962,9.84056 2.35962,3.68024 c 1.2978,2.02412 4.89089,7.01108 7.98464,11.08211 3.09375,4.07104 6.49705,8.726313 7.56287,10.345057 1.7338,2.633222 2.26036,2.776383 5,1.359395 1.68418,-0.871077 4.26842,-2.680789 5.74275,-4.02158 4.41657,-4.016482 4.85467,-0.206847 0.54117,4.70595 -2.11574,2.409687 -3.84679,5.139822 -3.84679,6.066966 0,1.870048 3.75639,3.184177 9.17631,3.210225 4.0216,0.01933 18.32369,-9.352383 18.32369,-12.006945 0,-0.913982 1.59691,-2.487584 3.5487,-3.496888 1.95179,-1.00931 6.70336,-5.24251 10.55904,-9.4071 3.85569,-4.1646 7.38386,-7.572 7.84041,-7.572 0.82427,0 -0.21723,7.29228 -1.53017,10.71377 -0.50158,1.30706 0.33457,1.78623 3.11691,1.78623 5.65111,0 9.78323,-1.96352 10.58511,-5.02987 0.75556,-2.8893 3.38,-2.32354 3.38,0.72864 0,2.32999 5.46077,2.32855 28.125,-0.007 29.18024,-3.00759 35.15862,-3.3919 33.125,-2.12934 -1.03125,0.64024 -15.07765,2.95698 -31.21424,5.14831 -16.13657,2.19133 -29.7772,4.25491 -30.3125,4.58574 -0.53529,0.33088 -0.97326,2.249833 -0.97326,4.264384 0,6.832377 -6.77736,21.189642 -10.0026,21.189642 -0.47581,0 0.53409,-2.827286 2.24423,-6.282853 1.71013,-3.455566 2.76486,-6.627329 2.34383,-7.04836 -0.42103,-0.421031 -1.33802,0.740299 -2.03776,2.580735 -1.75226,4.608817 -7.31882,9.500474 -10.81125,9.500474 -4.23079,0 -5.9102,-4.15604 -5.13481,-12.707125 0.63438,-6.996096 0.54257,-7.292875 -2.25589,-7.292875 -1.60445,0 -3.77097,0.853795 -4.8145,1.897321 -1.04353,1.043528 -2.45801,1.746653 -3.1433,1.5625 -2.20554,-0.592672 -16.44056,9.570488 -15.79233,11.274996 0.968,2.545296 -2.29438,3.033523 -6.30281,0.943242 -2.0173,-1.051962 -4.60619,-1.916123 -5.75307,-1.920358 -3.88039,-0.01434 -6.03968,-1.513861 -6.0536,-4.203937 -0.0125,-2.387207 -0.35995,-2.239652 -3.19365,1.355698 -4.64789,5.897152 -12.56334,7.847054 -31.70687,7.810717 -18.02245,-0.03421 -25.00108,-1.275558 -27.40652,-4.875025 -1.6397,-2.453625 -2.01255,-2.283452 -11.25,5.134726 -5.25475,4.219852 -12.15944,10.167121 -15.34374,13.216161 -3.18431,3.04904 -6.12811,4.99606 -6.54178,4.32672 z m 83.86209,-23.592108 c 7.81664,-3.81886 7.09587,-7.16953 -5.23373,-24.330045 -2.77582,-3.86342 -5.60944,-7.96351 -6.29694,-9.11131 -1.0706,-1.7874 -3.67195,-0.0131 -18.125,12.3622 -9.28125,7.947008 -16.88361,14.859598 -16.89414,15.361306 -0.01,0.501707 -0.4959,1.664334 -1.07858,2.583611 -2.80789,4.429829 6.57452,6.30586 28.87839,5.774287 10.58007,-0.252157 15.19132,-0.901433 18.75,-2.64005 z m 66.40845,-1.034928 c 3.82973,-4.361811 7.53908,-13.709193 6.03653,-15.211737 -0.43994,-0.43995 -3.20194,-0.29569 -6.13777,0.32056 -5.32962,1.118718 -5.33962,1.131378 -6.45833,8.179691 -1.12855,7.110212 -0.56494,11.065761 1.57672,11.065761 0.63787,0 2.88014,-1.959424 4.98286,-4.354275 z m -8.56412,-19.543267 c 0,-0.6875 -0.5625,-0.90236 -1.25,-0.47746 -0.6875,0.4249 -1.25,1.33504 -1.25,2.02254 0,0.6875 0.5625,0.90236 1.25,0.47746 0.6875,-0.4249 1.25,-1.33504 1.25,-2.02254 z m -58.90655,-30.41257 c 4.25685,-4.43307 8.90896,-10.70339 10.33804,-13.93404 4.52331,-10.22571 1.16071,-20.5058494 -6.7074,-20.5058494 -9.45912,0 -13.74115,7.6619694 -14.48498,25.9183994 -0.51917,12.7426 -0.0507,16.5816 2.02353,16.5816 0.6001,0 4.57396,-3.62705 8.83081,-8.06011 z M 119.99999,103.87913 c 0,-2.88104 5.61915,-3.49104 17.78562,-1.93076 17.98279,2.3062 17.50898,3.75235 -1.22312,3.73316 -13.51172,-0.0138 -16.5625,-0.34584 -16.5625,-1.8024 z m 133.0736,-11.916235 c -1.1799,-1.909112 -0.24554,-2.42388 2.90442,-1.600145 1.50913,0.394644 2.43574,1.216084 2.05915,1.825421 -0.94463,1.528442 -3.96442,1.391385 -4.96357,-0.225276 z"
     id="path5082"
     inkscape:connector-curvature="0" />
</svg>
