<?xml version="1.0" encoding="UTF-8" standalone="no"?>
<!-- Created with Inkscape (http://www.inkscape.org/) -->

<svg
   xmlns:dc="http://purl.org/dc/elements/1.1/"
   xmlns:cc="http://creativecommons.org/ns#"
   xmlns:rdf="http://www.w3.org/1999/02/22-rdf-syntax-ns#"
   xmlns:svg="http://www.w3.org/2000/svg"
   xmlns="http://www.w3.org/2000/svg"
   xmlns:sodipodi="http://sodipodi.sourceforge.net/DTD/sodipodi-0.dtd"
   xmlns:inkscape="http://www.inkscape.org/namespaces/inkscape"
   width="369.71359"
   height="136.2603"
   id="svg2"
   version="1.1"
   inkscape:version="0.48.2 r9819"
   sodipodi:docname="Nouveau document 1">
  <defs
     id="defs4" />
  <sodipodi:namedview
     id="base"
     pagecolor="#ffffff"
     bordercolor="#666666"
     borderopacity="1.0"
     inkscape:pageopacity="0.0"
     inkscape:pageshadow="2"
     inkscape:zoom="1.4"
     inkscape:cx="177.78368"
     inkscape:cy="41.709233"
     inkscape:document-units="px"
     inkscape:current-layer="layer1"
     showgrid="false"
     fit-margin-top="0"
     fit-margin-left="0"
     fit-margin-right="0"
     fit-margin-bottom="0"
     inkscape:window-width="1366"
     inkscape:window-height="706"
     inkscape:window-x="-8"
     inkscape:window-y="-8"
     inkscape:window-maximized="1" />
  <metadata
     id="metadata7">
    <rdf:RDF>
      <cc:Work
         rdf:about="">
        <dc:format>image/svg+xml</dc:format>
        <dc:type
           rdf:resource="http://purl.org/dc/dcmitype/StillImage" />
        <dc:title></dc:title>
      </cc:Work>
    </rdf:RDF>
  </metadata>
  <g
     inkscape:label="Calque 1"
     inkscape:groupmode="layer"
     id="layer1"
     transform="translate(-197.21632,-211.3749)">
    <g
       transform="matrix(0.61653944,0,0,-0.61653944,187.92732,355.00303)"
       inkscape:label="ink_ext_XXXXXX"
       id="g2993">
      <g
         transform="scale(0.1,0.1)"
         id="g2995">
        <path
           id="path2997"
           style="fill:#000000;fill-opacity:1;fill-rule:nonzero;stroke:none"
           d="M 705,2323.29 C 594,2298.37 492.141,2171.1 503.082,2071 c 2.731,-25 1.363,-54.55 -3.082,-66.5 -4.406,-11.85 -3.742,-43.5 1.484,-70.5 8.903,-46 80.481,-284.92 98.567,-329 21.855,-53.27 29.949,-93 29.949,-147 0,-55 -1.293,-58 -25,-58 -46.547,0 -113.691,70 -169.773,177 -42.977,82 -66.633,105.59 -86.227,86 -15.34,-15.34 83,-215.18 120,-243.85 14.484,-11.23 57,-44.56 96,-75.28 70.699,-55.68 177,-112.04 250,-132.55 114.668,-32.21 233,4.82 355,111.11 l 81,70.57 27,-21.56 c 71,-56.69 126.62,-81.44 183,-81.44 47,0 58.71,4 80.5,27.5 13.91,15 28.37,35.68 31.82,45.5 8,22.83 29.06,22 50.77,-2 16.57,-18.31 96.91,-61.59 139.91,-75.37 32.2,-10.32 89,15.04 137,61.17 43,41.32 47.07,43.16 62.5,28.2 9,-8.73 16.5,-19.64 16.5,-24 0,-4.35 23.5,-17.81 51.5,-29.5 48,-20.04 53.23,-20.38 77,-5 13.73,8.88 36.35,28.5 49,42.5 l 23.5,26 19.5,-25 c 16.04,-20.55 18.18,-33 12.1,-70 -18.1,-110 13.08,-346.301 53.31,-404 26.5,-38 100.66,-54.156 87.21,-19 -3.82,10 -1.99,13.449 4.88,9.199 38.95,-24.078 13,188.771 -27,221.521 -9,7.37 -10.4,12.28 -3.5,12.28 7.29,0 0.41,30 -18.81,82 -44.73,121 -45.62,131.73 -14.27,173 14.43,19 33.44,35 41.58,35 27,0 132.39,-52.8 137.73,-69 2.88,-8.73 12.54,-26 21.27,-38 15.3,-21.04 15,-21.74 -7,-16 -13,3.39 -28.43,10.13 -35.5,15.5 -8.93,6.79 -12.5,3.5 -12.5,-11.5 0,-30.38 38,-51 94,-51 l 49,0 -6.52,32 c -13.15,64.51 -162.48,178.09 -233.48,177.58 -43,-0.31 -78.44,-22.63 -75.55,-47.58 2.43,-21 1.64,-21.23 -17.45,-5 -10.91,9.27 -22.82,32 -26.2,50 -6.96,37 -36.72,44.83 -53.19,14 -5.19,-9.73 -24.59,-35 -42.22,-55 -52.97,-60.09 -109.98,-45 -147.36,39 -11.13,25 -24.48,45 -30.03,45 -23,0 -41,-13.61 -41,-31 0,-26.08 -69,-95.86 -103,-104.16 -15.33,-3.75 -47,-1.16 -70,5.71 -40.21,12.02 -57.82,28.45 -165.53,154.45 -21.77,25.46 -36.46,12 -33.84,-31 1.47,-24.27 -6.13,-56 -20.13,-84 l -22.5,-45 -58.5,0.5 c -45,0.38 -61.5,4.65 -71.5,18.5 -7.22,10 -21,19.12 -31,20.51 -22.36,3.12 -25.3,18.49 -27.87,145.49 -1.93,95 -4.7,109.05 -29.13,147.5 -14.61,23 -27,45.25 -27,48.5 0,9.85 -35,40.83 -54,47.8 -27.39,10.04 -36,-8.8 -36,-78.8 0,-65.71 15.09,-125 50.13,-197 l 22.87,-47 -48,-49.5 c -26.18,-27 -64.36,-57.91 -84,-68 -20,-10.28 -42.67,-23.83 -51,-30.5 -26.71,-21.36 -141,-45.48 -194,-40.94 -53,4.54 -149.672,43.18 -178,71.15 -14,13.82 -14.262,20.79 -2.105,55.79 15.921,45.83 9.89,90 -36.192,265 -15.801,60 -26.457,112.82 -23.703,117.5 2.695,4.59 25.5,13.57 49.5,19.5 24,5.93 44.5,15.38 44.5,20.5 0,5.7 3.199,7.53 8,4.58 17.254,-10.62 106,15.46 146,42.91 66.094,45.35 86,84.01 86,167.01 0,88 -34.883,164.88 -111.621,246 C 782.242,2331.34 767,2337.2 705,2323.29 z M 814.09,2237 c 69.105,-76.02 101.109,-171 84.91,-252 -2.184,-10.91 -24,-38.86 -48,-61.5 -45.68,-43.08 -141,-81.46 -226,-91.01 -37,-4.15 -41.203,-1.94 -56.035,29.51 -25.168,53.37 -25.981,235 -1.305,291 24.68,56 66.488,98.71 117.34,119.87 54,22.47 83.508,14.27 129.09,-35.87 z m 439.52,-624 c 26.5,-83 19.91,-138.37 -11.91,-100 -17.52,21.13 -43.72,137 -37.09,164 6.14,25 6.89,25.27 19.39,7 7.25,-10.6 20.34,-42 29.61,-71 z M 2275.5,1214.5 c 11,-8.74 13.83,-12.74 6.5,-9.18 -17.55,8.54 -15.36,-13.32 8.14,-81.32 40.43,-117 60.86,-234 40.86,-234 -19.95,0 -49.25,38 -61.68,80 -7.4,25 -16.52,49.45 -20.53,55 -14.42,20 -15.13,205 -0.79,205 4.51,0 16.5,-6.76 27.5,-15.5"
           inkscape:connector-curvature="0" />
        <path
           id="path2999"
           style="fill:#000000;fill-opacity:1;fill-rule:nonzero;stroke:none"
           d="m 3535,1722.5 c 3.84,-37 11.28,-72.02 16.47,-77.5 15.16,-16 27.99,8 29.93,56 2.06,51 -13.9,89 -37.4,89 -13.75,0 -15.02,-9.5 -9,-67.5"
           inkscape:connector-curvature="0" />
        <path
           id="path3001"
           style="fill:#000000;fill-opacity:1;fill-rule:nonzero;stroke:none"
           d="m 2830.25,1715 c -21.27,-44 -21.37,-75 -0.25,-75 5.36,0 10,-13 10,-28 0,-15.22 7.08,-49 15.5,-74 14.15,-42 14.02,-48.91 -1.5,-79.5 -11.21,-22.1 -18.7,-66.5 -22,-130.5 -4.43,-86 -1.88,-106.41 22.5,-180 15.24,-46 44.44,-118.66 65.5,-163 25.65,-54 34.43,-82.273 27,-87 -6,-3.816 -14.41,-4.727 -18.5,-2 -4.17,2.777 -35.5,0.07 -70.5,-6.094 -143,-25.183 -306.83,-51.797 -373,-60.597 -38.5,-5.121 -106,-15.832 -150,-23.809 -44,-7.977 -134,-21.562 -200,-30.191 -136.74,-17.883 -145,-19.586 -355,-73.223 -170,-43.422 -236,-57.34 -440,-92.789 C 1304,603.039 1254.92,589.969 1230,580 1205.25,570.102 1095,532.293 985,495.988 518,341.848 242.879,246.793 198,224.086 129.68,189.512 135,165.207 216,141.879 267,127.188 410,125.805 410,140 c 0,5.715 -30,10 -70,10 -71,0 -120,14.293 -120,35 0,9.715 20,20.129 105,54.68 37,15.039 220.953,70.32 234,70.32 7.016,0 27.5,6.445 44.5,14 17.219,7.652 65.5,23.746 106.5,35.5 41,11.754 104.465,32.188 140,45.074 66,23.938 366.41,118.977 430,136.035 19.38,5.2 64,17.645 100,27.891 35.91,10.219 112,28.348 170,40.5 58,12.152 129.62,28.227 160,35.914 136,34.402 231.5,56.356 305,70.113 44,8.235 113.75,21.723 155,29.973 41.16,8.23 112,19.063 157,24 45,4.938 96.89,13.512 115,19 18.04,5.465 67,14.996 108,21.016 226,33.199 289.64,42.789 335,50.492 28,4.758 61,6.953 75,4.992 13.64,-1.91 67.5,3.316 118.5,11.5 51,8.184 114.41,14.41 139.5,13.699 60,-1.699 209.42,18.258 234,31.254 10.4,5.5 62,11.86 114,14.047 52,2.191 98.17,6.035 102,8.5 3.85,2.477 88,9.504 187,15.617 174,10.746 295.77,22.344 438,41.713 59.01,8.04 216,17.8 560,34.82 48,2.37 92.32,6.85 97.5,9.85 5.25,3.04 94.5,5.72 199.5,6 154,0.41 190,2.96 190,13.5 0,20 -20.7,29.55 -30.33,14 -6.74,-10.89 -12.67,-11.55 -26.67,-3 -9.77,5.97 -34,9.86 -53,8.5 -19.25,-1.37 -107,-5.46 -195,-9.09 -212,-8.72 -685.7,-34.55 -755,-41.16 -30.2,-2.88 -188,-16.3 -350,-29.75 -162,-13.453 -353.61,-31.262 -425,-39.5 -71.66,-8.27 -193.5,-19.039 -271.5,-24 -78,-4.961 -150.7,-13.937 -162,-20 -11.46,-6.148 -35.5,-11 -54.5,-11 -32,0 -34.41,2.5 -41,42.5 -3.79,23 -8.37,58.56 -10,77.5 -1.66,19.32 -12.31,91 -23.78,160 -30.43,183 -38.26,290 -21.22,290 22,0 109,-33.52 109,-42 0,-4.15 6.5,-8 13.5,-8 7.36,0 25.55,-17.5 40,-38.5 l 26.5,-38.5 -20.4,-46 c -21.73,-49 -18.42,-72.82 11.4,-82.19 33.02,-10.37 79,46.19 79,97.19 0,27 51.3,88 74,88 18.84,0 73.71,-54 111.77,-110 16.32,-24 33.65,-44.41 39.23,-46.18 20.29,-6.46 36.27,14.18 39.64,51.18 2.45,27 12.41,44.7 36.86,65.5 18,15.31 36.74,28.71 40.5,28.95 12.96,0.84 99.62,-103.45 113.38,-136.45 16.67,-40 54.62,-46.95 54.62,-10 0,43 -138.72,217 -173,217 -16.89,0 -72.78,-50 -100.61,-90 -17.39,-25 -17.39,-25 -34.6,-5 -82.62,96 -144.76,117.96 -183.9,65 -31.76,-43 -50.07,-44.41 -89.89,-6.94 -46,43.29 -148.38,96.94 -185,96.94 l -29,0 4,59.5 c 2.22,33 -0.68,72.86 -6.5,89.5 -7.35,21 -7.2,31.09 0.5,33.64 17.33,5.74 -2,47.36 -22,47.36 -11.6,0 -25.73,-16 -39.75,-45 z m 40.66,-363 c 13.64,-35 49.09,-215.55 49.09,-250 0,-47.1 -25.7,-4 -43.53,73 -14.59,63 -28.08,205 -19.47,205 1.61,0 8.07,-13 13.91,-28"
           inkscape:connector-curvature="0" />
        <path
           id="path3003"
           style="fill:#000000;fill-opacity:1;fill-rule:nonzero;stroke:none"
           d="m 3840,1710 c -35.46,-38 -43.45,-77.23 -21.78,-107 27.29,-37.49 42.86,-30 35.34,17 -5.28,33 -3.05,43.54 11.44,54 15.32,11.06 21.5,9.72 41.5,-9 13.13,-12.29 28.57,-37 35,-56 6.43,-19 19.66,-45.69 30,-60.5 l 18.5,-26.5 -35.5,-22 c -19.3,-11.96 -51.24,-45.5 -70,-73.5 -28.14,-42 -34.5,-60.91 -34.5,-102.5 0,-43 5.1,-56.8 32.5,-88 31.12,-35.43 34.5,-36.7 79.5,-30 32,4.77 51.43,13.7 60.86,28 16.53,25.04 29.66,173 18.9,213 -13.99,52 -5.24,64.15 41.24,57.27 58.38,-8.63 94.79,-47.27 122.75,-130.27 17.52,-52 28.3,-69.74 43.75,-72 14.64,-2.14 23.71,5 31.75,25 25.73,64 35.27,79.95 70.57,118 l 36.18,39 56.5,-87 c 31.17,-48 60.98,-87 66.5,-87 6,0 7.6,-4 4,-10 -3.43,-5.71 3,-10 15,-10 33.91,0 35.04,28 2.95,73 -16.4,23 -37.01,55.57 -45.55,72 -23.92,46 -76.74,95 -102.4,95 -23.89,0 -68.72,-44 -100.87,-99 -9.95,-17 -21.29,-31 -25.13,-31 -3.83,0 -22.82,24 -41.94,53 -48.79,74 -61.18,82.11 -127.06,83.11 -32,0.49 -63.38,4.48 -70,8.89 -6.57,4.38 -22.65,32 -35.52,61 -29.3,66 -83.84,134 -107.48,134 -5.1,0 -21.13,-13 -37,-30 z m 158.92,-410 c -19.98,-77 -57.12,-87.84 -99.31,-29 -32.73,45.64 -20.11,93 42.34,159 l 52.05,55 7,-75 c 3.83,-41 2.88,-90.87 -2.08,-110"
           inkscape:connector-curvature="0" />
        <path
           id="path3005"
           style="fill:#000000;fill-opacity:1;fill-rule:nonzero;stroke:none"
           d="m 4695.59,1495 c -22.25,-33.8 -13.64,-69 29.08,-119 23.08,-27 38.25,-37.07 49.33,-32.74 21.77,8.52 20,50.27 -3,70.85 -12.2,10.91 -21.21,33.89 -23.11,58.89 -3.78,50 -27.35,59.91 -52.3,22"
           inkscape:connector-curvature="0" />
        <path
           id="path3007"
           style="fill:#000000;fill-opacity:1;fill-rule:nonzero;stroke:none"
           d="m 2696.48,1402 c -10.23,-16.71 18.92,-86 50.05,-119 47.61,-50.47 90.63,-40 45.18,11 -10.16,11.4 -24.65,37 -31.71,56 -7.06,19 -17.24,40.48 -22.27,47 -10.82,14 -34.02,16.81 -41.25,5"
           inkscape:connector-curvature="0" />
        <path
           id="path3009"
           style="fill:#000000;fill-opacity:1;fill-rule:nonzero;stroke:none"
           d="m 5980,1226 c 14,-8.4 30.28,-15.22 37,-15.5 6.72,-0.28 23,-11.5 37,-25.5 l 25,-25 -27,-13.73 c -31.92,-16.23 -178,-46.27 -225,-46.27 -18,0 -38.56,-4.29 -47,-9.81 -19.71,-12.89 34,-13.47 115,-1.24 33,4.98 80.25,11.73 105,15.02 76,10.07 140.41,22.44 146,28.03 2.8,2.8 0.77,16 -4.61,30 -10.68,27.76 -80.39,62.4 -146.39,72.73 -39,6.11 -39.37,5.9 -15,-8.73"
           inkscape:connector-curvature="0" />
        <path
           id="path3011"
           style="fill:#000000;fill-opacity:1;fill-rule:nonzero;stroke:none"
           d="m 5740,1090 c 0,-6 4,-10 10,-10 6,0 10,4 10,10 0,6 -4,10 -10,10 -6,0 -10,-4 -10,-10"
           inkscape:connector-curvature="0" />
        <path
           id="path3013"
           style="fill:#000000;fill-opacity:1;fill-rule:nonzero;stroke:none"
           d="m 5640,1080 -25,-8 25,-0.5 c 14,-0.28 33.8,3.46 45,8.5 l 20,9 -20,-0.5 c -11.2,-0.28 -31,-4.02 -45,-8.5"
           inkscape:connector-curvature="0" />
        <path
           id="path3015"
           style="fill:#000000;fill-opacity:1;fill-rule:nonzero;stroke:none"
           d="m 5365,1070 c -11,-4.95 -17.75,-9.64 -15,-10.43 18.04,-5.15 80,-4.26 105,1.51 29.59,6.83 29.5,6.94 -6.5,7.92 -20,0.55 -42.6,3.04 -50,5.5 -7.43,2.48 -22.5,0.45 -33.5,-4.5"
           inkscape:connector-curvature="0" />
        <path
           id="path3017"
           style="fill:#000000;fill-opacity:1;fill-rule:nonzero;stroke:none"
           d="m 5490,1070 c 0,-5.52 6.5,-10 14.5,-10 8,0 17.19,4.48 20.5,10 3.22,5.37 -3.5,10 -14.5,10 -11,0 -20.5,-4.63 -20.5,-10"
           inkscape:connector-curvature="0" />
        <path
           id="path3019"
           style="fill:#000000;fill-opacity:1;fill-rule:nonzero;stroke:none"
           d="M 2085,464.199 C 2063,455.84 2030.15,444.5 2012,439 c -18,-5.453 -41.86,-18.863 -52.5,-29.5 -10.73,-10.727 -37.5,-26.699 -59.5,-35.5 -22,-8.801 -40,-20.051 -40,-25 0,-5.145 -9,-9 -21,-9 -11.67,0 -33,-8.414 -48,-18.93 -28.89,-20.261 -229,-69.84 -386,-95.636 -55,-9.039 -129.25,-22.668 -165,-30.286 C 1128.68,171.422 1110,169.176 910,155.414 803,148.055 648.211,143.441 567,145.199 434,148.07 400.527,143.137 430,125 c 11.371,-6.996 320,-7.449 395,-0.582 27.727,2.543 99,7.254 160,10.582 61,3.328 134.5,10.23 165,15.5 30.5,5.27 104,18.41 165,29.5 60.5,11 164,29.316 230,40.699 155,26.739 275.48,62.938 315,94.645 37,29.683 189,103.133 226,109.207 49,8.047 79.97,27.746 69.88,44.449 -8.89,14.699 -21.88,13.82 -70.88,-4.801"
           inkscape:connector-curvature="0" />
      </g>
    </g>
  </g>
</svg>
