<?xml version="1.0" encoding="UTF-8"?>
<svg version="1.0" xmlns="http://www.w3.org/2000/svg" width="541" height="98" >
<path fill="#231F20" d="M10.3,83.121c21.042-14.366,45.917-43.441,25.692-68.222c-1.238-1.517-3.165,0.185-2.925,1.703 c3.109,19.669,5.672,40.146,4.532,60.07c-0.245,4.274-0.594,9.076-2.594,12.951c-2.137,4.14-5.69,1.067-8.197-1.062 c-7.7-6.543-15.127-14.586-18.624-24.239c-1.023-2.826-0.566-6.047-1.504-8.716c-0.243-0.69-0.883-1.356-1.688-1.285 c-0.002,0-0.004,0-0.006,0c-0.834,0.074-1.402,0.492-1.688,1.285c-1.407,3.914,3.87,8.619,6.557,10.284 c4.699,2.913,10.553,3.711,15.956,4.076c10.684,0.723,21.686-1.072,32.095-3.297c12.117-2.591,29.348-8.463,29.447-23.453 c0.029-4.476-1.692-8.819-3.566-12.802c-1.085-2.307-3.863-5.76-3.766-8.378c0.084-2.268-3.361-2.235-3.5,0 c-0.437,7.007-0.346,14.078,0.093,21.08c0.568,9.047,1.404,20.275,7.512,27.511c6.027,7.141,16.206,1.86,19.127-5.369 c2.795-6.914,1.336-16.079-0.708-23.043c-0.635-2.164-3.931-1.26-3.375,0.931c1.477,5.82,4.533,11.738,9,15.79 c9.836,8.922,22.041,0.785,29.73-6.757c1.007-0.987,0.334-3.162-1.237-2.987c-3.427,0.381-7.024,1.952-8.45,5.286 c-2.154,5.034,2.209,12.586,7.407,13.725c5.252,1.151,9.799-4.001,11.988-8.069c3.014-5.602,2.596-12.376-1.997-16.92 c-0.567,0.975-1.135,1.95-1.703,2.925c5.142,0.889,10.284,1.777,15.425,2.666c1.875,0.324,1.131,0.659,0.627-0.471 c0.217,0.486,0.448,0.966,0.679,1.446c1.079,2.241,2.29,4.422,3.711,6.464c1.891,2.719,5.34,5.662,7.892,1.976 c1.998-2.886,1.384-7.957,1.598-11.187c0.06-0.996,0.2-1.98,0.419-2.951c0.213-1.073-0.554-1.15,0.039-0.346 c0.858,1.167,1.456,2.555,2.061,3.861c1.674,3.615,2.729,8.415,7.109,9.643c1.703,0.478,3.47-0.661,4.001-2.283 c0.438-1.337,0.455-2.635,0.394-4.034c-0.05-1.159-1.767-8.154,0.239-7.635c3.201,0.83,5.637,4.335,7.97,6.454 c2.643,2.4,5.962,4.219,9.231,5.595c8.184,3.447,17.636,4.75,25.338-0.528c1.849-1.267,0.101-4.302-1.767-3.022 c-8.5,5.825-19.404,2.526-27.496-2.452c-4.707-2.895-8.102-9.198-14.057-9.702c-1.936-0.164-3.11,1.573-3.589,3.172 c-0.426,1.423,0.587,11.091,0.142,10.886c-3.626-1.67-4.634-9.114-6.901-12.193c-2.788-3.786-5.583-0.894-6.277,2.597 c-0.785,3.952,0.3,8.667-1.477,12.357c-0.067,0.139-3.507-4.572-3.786-5.055c-1.609-2.791-1.814-5.389-5.169-5.969 c-5.142-0.888-10.284-1.777-15.425-2.666c-1.638-0.283-3.04,1.603-1.703,2.925c5.642,5.582,2.216,16.976-5.424,19.057 c-4.273,1.164-8.165-6.833-5.7-9.902c1.021-1.272,3.253-1.997,4.65-2.152c-0.413-0.996-0.825-1.992-1.237-2.987 c-7.197,7.058-17.723,14.28-26.279,5.293c-3.239-3.403-5.451-8.249-6.601-12.782c-1.125,0.31-2.25,0.621-3.375,0.931 c1.747,5.949,2.632,12.652,1.413,18.768c-0.987,4.95-4.506,8.598-9.753,8.547c-3.564-0.034-5.72-4.063-6.9-6.878 c-5.218-12.444-4.736-28.272-3.909-41.545c-1.167,0-2.333,0-3.5,0c-0.083,2.221,1.377,4.481,2.351,6.377 c1.745,3.398,3.432,6.789,4.398,10.504c3.431,13.193-9.586,19.624-20.187,22.823c-9.768,2.948-20.257,4.406-30.436,4.801 C26.479,66.78,20.1,66.395,14.28,64.19c-2.722-1.031-5.316-2.812-6.777-5.374c-0.362-0.636-0.587-1.317-0.739-2.031 c-0.012-0.055,0.125-0.847-0.09-0.25c-0.563,0.428-1.125,0.857-1.688,1.285c0.002,0,0.004,0,0.006,0 c-0.563-0.428-1.125-0.856-1.688-1.285c-0.236-0.672,0.021,1.874,0.077,2.427c0.269,2.686,1.01,5.269,1.986,7.777 c3.762,9.668,11.308,17.567,18.965,24.296c2.943,2.586,6.601,5.509,10.658,3.604c3.303-1.55,4.439-6.283,5.094-9.471 c2.643-12.862,1.141-26.873-0.018-39.819c-0.874-9.767-2.064-19.52-3.553-29.212c-0.024-0.156-0.048-0.312-0.073-0.467 c-0.975,0.568-1.95,1.135-2.925,1.703c18.51,22.681-6.07,49.811-24.984,62.725C6.682,81.363,8.43,84.398,10.3,83.121L10.3,83.121 M56.571,51.198c-5.386-3.111-6.785-8.172-1.886-12.641c5.152-4.699,12.777-6.932,19.33-8.92 c6.007-1.823,12.178-3.084,18.362-4.126c33.146-5.583,67.651-3.86,101.024-1.725c2.255,0.145,2.241-3.356,0-3.5 c-36.992-2.367-75.67-4.336-112.129,3.835c-6.413,1.438-12.855,3.309-18.871,5.981c-5.494,2.442-11.694,5.495-14.116,11.375 c-2.098,5.092,2.387,10.356,6.52,12.743C56.762,55.352,58.524,52.327,56.571,51.198L56.571,51.198 M328.271,38.044c-16.208-2.848-33.219-2.996-49.513-1.019c-11.547,1.401-22.775,4.732-34.512,3.085 c-2.491-0.35-7.134-1.082-8.061-3.895c-1.216-3.689,7.263-8.144,9.422-9.432c4.558-2.719,10.229-5.108,13.498,0.434 c2.689,4.558,3.194,10.619,4.031,15.734c1.665,10.188,3.084,24.476,13.661,29.552c2.024,0.971,3.801-2.046,1.766-3.022 c-12.018-5.768-11.19-25.385-13.736-36.482c-1.021-4.448-2.708-9.732-7.081-11.94c-6.23-3.146-14.309,2.607-18.974,6.031 c-4.135,3.035-8.931,8.782-3.825,13.238c6.622,5.778,19.739,3.931,27.504,2.94c7.326-0.936,14.477-2.641,21.85-3.343 c6.831-0.65,13.714-0.729,20.568-0.548c7.485,0.197,15.086,0.744,22.472,2.042C329.548,41.807,330.492,38.435,328.271,38.044 L328.271,38.044 M265.972,83.083c2.588-4.842,7.055-8.759,11.638-11.618c8.242-5.141,18.296-4.483,27.055-8.36 c7.557-3.344,14.193-8.439,18.174-15.799c4.464-8.254,3.367-17.912,0.047-26.327c-0.717-1.817-3.313-1.585-3.438,0.465 c-0.788,12.896-0.846,26.136,1.134,38.921c0.703,4.543,1.936,12.359,6.811,14.51c4,1.766,5.64-3.253,6.26-6.168 c1.114-5.237,1.138-10.66,1.78-15.961c0.102-0.839,0.261-1.676,0.502-2.486c-0.294,0.987-2.048-0.938-1.048,0.914 c1.995,3.696,2.59,7.87,5.101,11.347c8.813,12.208,19.389-11.309,16.729-19.225c-0.973-2.895-4.658-3.349-4.44,0.255 c0.241,4.001,1.835,8.141,3.523,11.726c1.4,2.972,4.013,6.923,7.842,5.902c5.816-1.551,7.317-12.966,8.271-17.442 c-1.146-0.155-2.292-0.31-3.438-0.465c0.545,6.503,4.104,13.811,11.654,12.976c11.275-1.247,15.49-13.272,12.715-22.88 c-1.125,0.31-2.25,0.621-3.375,0.931c2.322,7.438,4.792,15.019,8.317,21.982c0.788,1.557,3.078,5.771,5.5,4.086 c1.074-0.746,1.445-1.814,1.677-3.063c0.655-3.533,0.947-7.146,2.038-10.585c-1.438-0.413-1.652,0.021-0.644,1.3 c0.31,0.914,0.587,1.838,0.832,2.772c0.662,2.345,1.135,4.719,2.005,7.002c0.447,1.176,1.403,2.698,2.909,2.284 c3.396-0.934,1.97-8.873,1.808-11.207c-0.194-2.798,2.426,1.138,2.945,1.926c0.991,1.507,1.511,3.178,2.64,4.594 c1.161,1.456,3.62,1.823,5.315,1.441c6.598-1.487,11.548-7.654,14.679-13.267c-1.065-0.139-2.132-0.279-3.198-0.418 c1.995,4.802,5.033,13.697,10.575,15.329c7.919,2.332,7.348-19.252,1.91-22.614c-0.449,1.066-0.898,2.132-1.348,3.199 c5.112,0.756,10.226,1.512,15.338,2.268c1.539,0.228-0.829-1.842-0.455-0.738c0.3,0.883,0.613,1.762,0.928,2.639 c0.882,2.452,1.838,4.876,2.879,7.265c0.597,1.37,4.32,8.9,6.541,4.604c1.293-2.5,0.612-5.938,0.663-8.605 c0.032-1.761-0.212-5.314,1.412-2.819c1.031,1.585,1.452,3.539,1.767,5.373c0.104,0.608,0.68,1.04,1.223,1.222 c8.997,3.023,25.924,5.407,26.454-8.175c0.233-5.983-4.406-10.687-9.42-5.655c-5.611,5.632-2.976,14.443,2.105,19.267 c3.944,3.745,9.796,5.593,14.933,3.258c6.924-3.147,10.205-10.849,12.136-17.735c2.972-10.599,3.531-23.191,2.23-34.102 c-0.401-3.363-2.775-7.492-5.854-3.468c-1.598,2.086-2.338,5.129-3.107,7.582c-1.405,4.48-2.742,9.178-3.211,13.858 c-0.837,8.36,3.129,16.977,7.703,23.711c2.942,4.333,7.839,10.777,13.487,11.568c5.771,0.809,5.019-6.363,4.188-9.902 c-0.516-2.197-3.89-1.265-3.375,0.931c0.392,1.669,1.816,6.283-1.236,5.27c-3.16-1.049-5.853-4.378-7.913-6.816 c-5.937-7.024-10.556-16.99-9.162-26.346c0.658-4.414,2.079-8.896,3.468-13.132c0.468-1.428,1.003-2.831,1.695-4.165 c0.826-1.595-0.766-1.722-0.338,0.084c1.041,4.387,0.559,9.397,0.434,13.85c-0.202,7.233-0.773,14.405-2.733,21.396 c-1.885,6.722-6.807,16.489-15.316,14.756c-3.728-0.759-6.858-3.848-8.692-7.007c-1.343-2.313-1.28-5.099-0.561-7.574 c0.313-1.077,2.844-5.62,4.326-3.532c2.717,3.828-0.177,9.132-4.036,10.384c-3.521,1.141-7.688,0.528-11.239-0.132 c-1.986-0.37-3.959-0.878-5.883-1.498c1.729,0.557,0.351-1.953-0.16-3.22c-0.553-1.375-1.31-2.615-2.342-3.679 c-1.414-1.455-3.84-1.498-5.012,0.269c-2.508,3.779-0.817,8.627-1.575,12.783c0.394-2.157,2.389,0.93,1.174-0.913 c-0.324-0.492-0.587-1.028-0.856-1.55c-0.837-1.619-1.509-3.325-2.176-5.019c-0.824-2.093-1.589-4.214-2.304-6.347 c-0.178-0.531-0.617-1.133-1.223-1.222c-5.324-0.787-10.648-1.574-15.974-2.361c-1.885-0.279-3.144,2.088-1.348,3.199 c3.486,2.156,2.547,9.415,1.888,12.611c-0.936,4.54-2.172,3.383-4.18,0.449c-2.039-2.98-3.684-6.433-5.053-9.728 c-0.542-1.304-2.385-1.876-3.198-0.418c-2.343,4.199-11.85,17.084-15.836,8.579c-1.074-2.291-5.919-9.583-9.304-6.198 c-2.651,2.652-0.313,9.506-0.913,12.977c2.177,0.596,2.786,0.213,1.827-1.148c-0.288-0.852-0.545-1.713-0.771-2.583 c-0.596-2.112-1.067-4.245-1.739-6.336c-0.439-1.367-1.109-3.292-2.605-3.821c-3.311-1.168-4.022,4.298-4.415,6.271 c-0.352,1.769-0.611,3.559-0.892,5.34c-0.092,0.687-0.203,1.369-0.335,2.049c-0.337,0.713,0.008,0.801,1.032,0.264 c-1.083-0.951-1.719-2.67-2.331-3.931c-3.068-6.325-5.25-13.189-7.343-19.892c-0.67-2.145-4.004-1.247-3.375,0.931 c2.323,8.043-0.874,17.513-10.338,18.56c-4.839,0.535-6.838-5.793-7.156-9.586c-0.155-1.857-3.001-2.514-3.438-0.465 c-0.537,2.521-3.663,19.881-8.359,13.117c-2.359-3.399-3.999-8.25-4.402-12.372c-0.117-1.189-3.073-0.415-2.486,0.604 c0.707,1.229,0.495,2.966,0.387,4.307c-0.32,3.966-2.093,8.25-4.521,11.373c-6.367,8.185-9.183-7.644-11.864-11.443 c-2.485-3.521-4.731,0.323-5.156,2.89c-0.87,5.266-0.818,10.644-1.743,15.907c-0.132,0.748-0.808,4.498-1.514,4.546 c-1.988,0.138-3.471-5.771-3.816-7.003c-2.288-8.159-2.392-17.048-2.504-25.463c-0.079-5.937,0.028-11.896,0.391-17.824 c-1.146,0.155-2.292,0.31-3.438,0.465c3.76,9.528,4.056,19.533-2.458,27.923c-5.384,6.934-13.974,10.881-22.325,12.83 c-8.437,1.969-15.988,2.969-22.973,8.634c-3.4,2.757-6.717,6.115-8.804,10.021C261.887,83.307,264.908,85.075,265.972,83.083 L265.972,83.083z"/>
</svg>