<?xml version="1.0" encoding="UTF-8" standalone="no"?>
<!-- Created with Inkscape (http://www.inkscape.org/) -->
<svg
   xmlns:dc="http://purl.org/dc/elements/1.1/"
   xmlns:cc="http://creativecommons.org/ns#"
   xmlns:rdf="http://www.w3.org/1999/02/22-rdf-syntax-ns#"
   xmlns:svg="http://www.w3.org/2000/svg"
   xmlns="http://www.w3.org/2000/svg"
   xmlns:sodipodi="http://sodipodi.sourceforge.net/DTD/sodipodi-0.dtd"
   xmlns:inkscape="http://www.inkscape.org/namespaces/inkscape"
   id="svg2"
   sodipodi:version="0.32"
   inkscape:version="0.46"
   width="417.26904"
   height="69.999321"
   version="1.0"
   sodipodi:docname="Susilo Bambang Yudhoyono signature.svg"
   inkscape:output_extension="org.inkscape.output.svg.inkscape">
  <metadata
     id="metadata7">
    <rdf:RDF>
      <cc:Work
         rdf:about="">
        <dc:format>image/svg+xml</dc:format>
        <dc:type
           rdf:resource="http://purl.org/dc/dcmitype/StillImage" />
      </cc:Work>
    </rdf:RDF>
  </metadata>
  <defs
     id="defs5">
    <inkscape:perspective
       sodipodi:type="inkscape:persp3d"
       inkscape:vp_x="0 : 526.18109 : 1"
       inkscape:vp_y="0 : 1000 : 0"
       inkscape:vp_z="744.09448 : 526.18109 : 1"
       inkscape:persp3d-origin="372.04724 : 350.78739 : 1"
       id="perspective9" />
  </defs>
  <sodipodi:namedview
     inkscape:window-height="667"
     inkscape:window-width="886"
     inkscape:pageshadow="2"
     inkscape:pageopacity="0.0"
     guidetolerance="10.0"
     gridtolerance="10.0"
     objecttolerance="10.0"
     borderopacity="1.0"
     bordercolor="#666666"
     pagecolor="#ffffff"
     id="base"
     showgrid="false"
     inkscape:zoom="5.7288226"
     inkscape:cx="-357.74547"
     inkscape:cy="35.962388"
     inkscape:window-x="155"
     inkscape:window-y="31"
     inkscape:current-layer="g2399" />
  <g
     id="g2402"
     transform="translate(-58.749162,-53.938695)">
    <g
       id="g2399">
      <path
         id="path2395"
         d="M 66.056767,93.994499 C 61.188222,87.683929 58.037389,80.998796 58.887506,78.783419 C 59.197692,77.975069 60.542275,77.328899 61.875469,77.347482 C 64.193291,77.379793 64.212512,77.447102 62.314185,78.884782 C 60.40568,80.330175 60.461494,80.606085 63.758187,86.022869 C 68.674576,94.100972 71.110549,96.438695 74.611741,96.438695 C 78.872345,96.438695 79.320008,94.061553 76.095575,88.559482 C 74.574872,85.964623 73.34132,82.492309 73.354315,80.843246 C 73.39265,75.975636 79.009705,70.480694 85.102239,69.350661 C 88.28159,68.760974 89.469185,69.120024 92.345975,71.540676 L 95.786885,74.43602 L 98.979905,70.562368 C 101.03735,68.066301 103.08089,66.688695 104.7261,66.688695 C 106.13035,66.688695 108.811,65.757222 110.68306,64.618764 C 112.55511,63.480306 114.47918,62.791328 114.95875,63.087712 C 115.43832,63.384107 115.83069,63.120267 115.83069,62.501404 C 115.83069,60.959482 121.48113,61.076634 123.05569,62.651195 C 126.47263,66.06811 122.74581,75.977686 116.41153,80.318009 C 113.87162,82.058395 112.64831,83.874654 112.13013,86.674756 C 111.20044,91.698617 108.41218,97.638343 107.30481,96.953954 C 106.83448,96.663276 106.25375,97.013242 106.01427,97.731651 C 105.72822,98.589886 104.14844,97.921818 101.4079,95.783664 C 99.113865,93.993861 95.683025,91.857971 93.783805,91.037232 C 90.130475,89.458452 89.592755,88.028965 91.502145,84.971557 C 92.285545,83.717149 92.364375,81.522109 91.740135,78.345351 C 90.904085,74.090665 90.473345,73.561997 87.612587,73.279266 C 83.546208,72.877375 77.178104,77.02206 76.695123,80.384904 C 76.49158,81.802099 77.734907,85.094457 79.616998,88.122114 C 81.418902,91.020752 82.893185,94.050694 82.893185,94.855294 C 82.893185,97.192741 78.502977,99.626195 74.285979,99.626195 C 70.850172,99.626195 69.899851,98.975828 66.056778,93.994488 L 66.056767,93.994499 z M 107.63284,91.227876 C 108.63541,89.530692 109.45568,86.646578 109.45568,84.818759 C 109.45568,80.901981 106.83383,74.126195 105.31827,74.126195 C 104.23026,74.126195 94.572335,85.453964 94.591215,86.707969 C 94.602425,87.453653 104.17059,94.313695 105.19943,94.313695 C 105.53526,94.313695 106.63029,92.925082 107.63284,91.227887 L 107.63284,91.227876 z M 118.44719,72.917166 C 123.5104,66.899888 119.65914,62.006204 113.19413,66.242254 C 108.93281,69.034366 107.85818,71.773947 110.06691,74.214584 C 112.70476,77.129383 115.23208,76.738117 118.44719,72.917166 z"
         style="fill:#000000;stroke:none;stroke-width:1px;stroke-linecap:butt;stroke-linejoin:miter;stroke-opacity:1" />
      <path
         id="path2397"
         d="M 180.95882,121.15741 C 181.30981,119.40245 182.9653,115.63294 184.63768,112.78075 C 190.36328,103.01591 190.48646,103.22933 180.11194,104.93917 C 172.75294,106.15201 163.4106,104.77598 156.89694,101.51981 C 148.12583,97.135153 140.14529,87.325877 142.39184,83.690873 C 143.92015,81.218053 153.0869,83.023421 155.9595,86.363018 C 159.33549,90.287872 158.12505,90.973599 153.97904,87.484954 C 150.59783,84.639887 146.642,84.177562 145.86561,86.536747 C 145.32197,88.188584 152.56284,96.148654 156.42643,98.1466 C 158.09662,99.010274 162.65786,100.70369 166.56254,101.90972 C 174.87864,104.4783 179.75764,104.10724 187.58648,100.31084 C 192.53525,97.911054 193.38548,96.892712 198.93515,86.718329 C 202.23469,80.669229 206.73679,71.894945 208.93985,67.219945 C 212.80952,59.008371 212.95891,58.842919 213.34311,62.343941 C 214.02148,68.5258 206.52802,85.588764 198.83642,95.376195 C 191.53104,104.67216 194.01295,103.91924 204.07658,93.786536 C 208.42731,89.405965 212.56813,85.820027 213.27847,85.817786 C 214.02694,85.815416 214.8663,88.047389 215.27473,91.126195 C 215.66236,94.04807 216.51552,96.436644 217.1707,96.434148 C 217.82586,96.431629 220.5135,94.999316 223.14319,93.251195 C 225.77288,91.503074 228.48988,90.07075 229.18096,90.068242 C 229.87204,90.065756 230.70816,89.21089 231.03898,88.168588 C 231.84788,85.619916 237.95645,81.961272 238.1755,83.894246 C 238.26201,84.657769 238.4303,85.999632 238.54944,86.876195 C 238.66858,87.752757 238.83686,89.545726 238.92338,90.86057 C 239.00991,92.175414 239.76313,93.251195 240.59724,93.251195 C 243.42117,93.251195 256.33637,85.848662 260.97949,81.568774 C 263.51839,79.228469 266.09554,77.313695 266.70644,77.313695 C 267.32643,77.313695 267.08598,76.197751 266.16216,74.787803 C 260.06106,65.476414 264.18097,53.938695 273.60696,53.938695 C 277.17582,53.938695 283.62013,57.67096 287.03275,61.714325 C 289.60558,64.76268 292.20569,73.399434 292.20569,78.897213 C 292.20569,84.937664 293.86529,86.678921 301.05386,88.180828 C 308.29211,89.693127 308.26694,89.713049 314.45108,77.574857 C 319.81438,67.047862 324.74541,59.538846 327.13479,58.260084 C 329.30959,57.096158 332.58069,57.731416 332.58069,59.317686 C 332.58069,59.813576 333.776,61.980715 335.23694,64.133531 C 336.69788,66.286326 337.89319,68.952266 337.89319,70.057808 C 337.89319,72.491475 340.75992,73.809464 342.42711,72.142274 C 344.11734,70.452059 348.68868,70.645084 351.36505,72.519695 C 352.60653,73.389234 354.36058,76.267579 355.26298,78.915998 C 356.69974,83.132561 356.71752,84.350016 355.40618,88.707297 C 354.58254,91.444095 354.07847,93.853144 354.28607,94.060735 C 355.27065,95.045311 362.70804,90.822139 367.06951,86.801862 C 372.25155,82.025202 374.11009,81.903684 372.026,86.477757 C 370.1731,90.544444 371.00248,90.512888 375.69299,86.338283 C 380.80338,81.789944 382.51819,81.642394 382.51819,85.750986 C 382.51819,87.469622 383.00749,89.178186 383.60553,89.547798 C 384.8226,90.300016 391.01819,87.861387 391.01819,86.630152 C 391.01819,85.314426 399.52237,80.378359 400.62022,81.056872 C 401.18288,81.404607 401.64319,84.29058 401.64319,87.470154 C 401.64319,91.67215 402.04298,93.251195 403.10685,93.251195 C 405.43041,93.251195 406.63643,90.981185 407.22231,85.504954 C 407.87128,79.439332 410.10437,76.666462 415.68746,74.993726 C 422.86466,72.843386 429.21572,75.240024 436.45637,82.831087 C 445.03889,91.828922 445.56807,92.004542 449.72107,87.232951 C 451.62044,85.050671 454.0488,82.52377 455.11748,81.617574 C 456.18615,80.711368 460.42021,75.776162 464.52652,70.650428 C 471.99869,61.323166 476.01819,57.79302 476.01819,60.55773 C 476.01819,61.317439 472.43496,65.995987 468.05545,70.954484 C 463.67594,75.912991 457.10174,83.647268 453.44608,88.141781 L 446.79944,96.313628 L 444.67444,93.823011 C 441.92838,90.604507 433.61203,84.751195 431.78526,84.751195 C 431.0075,84.751195 430.05591,86.066039 429.67057,87.67307 C 428.75889,91.475216 426.10158,96.760303 424.60431,97.749257 C 423.13397,98.720435 417.27952,97.819584 411.91599,95.796871 C 408.86137,94.644887 406.88956,94.525441 404.0178,95.318374 C 398.76061,96.769951 396.98061,95.195347 397.83548,89.849346 C 398.2077,87.521674 398.04736,85.813695 397.45665,85.813695 C 396.24955,85.813695 382.8412,95.056468 381.94525,96.506153 C 381.60702,97.053436 380.64131,97.501195 379.79923,97.501195 C 377.98785,97.501195 377.79051,94.004051 379.42912,90.942276 C 380.19273,89.515456 380.23121,88.414217 379.54156,87.724569 C 378.35918,86.542219 362.78733,101.59707 354.89319,111.55455 C 350.50617,117.08825 347.45569,119.19145 347.45569,116.68246 C 347.45569,116.12904 349.73257,112.66262 352.51543,108.97934 C 360.55285,98.341346 362.59792,95.289261 362.05348,94.744826 C 361.77356,94.464878 358.97215,95.252807 355.8282,96.495804 C 352.68427,97.738813 346.7081,99.015916 342.54785,99.333838 L 334.98377,99.911891 L 330.5612,93.925277 C 328.1288,90.632664 325.3725,87.938695 324.43608,87.938695 C 320.87673,87.938695 314.28688,90.535764 312.11172,92.795744 C 310.13644,94.848026 309.56792,94.970341 307.66685,93.751919 C 306.46787,92.983487 302.49538,91.776445 298.83902,91.069574 L 292.1911,89.784353 L 287.68273,94.613203 C 284.49669,98.025815 282.00586,99.659579 279.19007,100.18364 C 271.48489,101.61767 261.25766,97.981041 257.07115,92.318501 L 254.82325,89.27804 L 248.53378,92.324684 C 241.21301,95.870938 235.48451,96.730968 235.28554,94.313695 C 235.21338,93.437132 235.08154,91.612151 234.99252,90.258186 C 234.83428,87.850571 234.73139,87.876857 230.31506,91.453997 C 227.83147,93.46565 224.1831,96.00783 222.20756,97.103257 C 220.23207,98.198694 217.62103,99.667441 216.40531,100.36716 C 213.49424,102.04267 211.45569,100.37113 211.45569,96.308603 C 211.45569,94.622245 210.87825,93.251195 210.16802,93.251195 C 207.85486,93.251195 191.75102,110.6976 185.72521,119.73178 C 182.41273,124.69802 180.11314,125.38583 180.95882,121.15742 L 180.95882,121.15741 z M 283.91314,94.646151 C 288.90766,89.86114 287.95546,87.963494 278.14838,83.157445 C 273.37854,80.819945 269.0917,78.74807 268.62207,78.553282 C 268.15243,78.358494 267.76819,78.868164 267.76819,79.685907 C 267.76819,80.503639 266.09475,82.654245 264.04944,84.465032 C 259.56706,88.433416 259.39443,90.250397 263.25256,92.852247 C 271.15622,98.182311 279.46888,98.904067 283.91318,94.646162 L 283.91314,94.646151 z M 351.96969,88.83774 C 354.65699,83.694762 354.33497,79.550077 350.97566,76.04371 C 347.42799,72.34077 345.32983,72.291821 341.79218,75.829467 C 338.41882,79.202852 332.96472,93.146347 334.97132,93.267196 C 335.11741,93.276004 337.14944,93.955707 339.48694,94.777667 C 343.32918,96.128764 344.04276,96.086062 346.92444,94.332597 C 348.67757,93.265847 350.94792,90.793165 351.96967,88.837751 L 351.96969,88.83774 z M 422.8513,94.336135 C 425.84453,92.734182 428.56462,83.688695 426.0531,83.688695 C 424.74486,83.688695 414.39319,91.292232 414.39319,92.253125 C 414.39319,92.950592 418.51582,95.177731 420.04116,95.304285 C 420.51788,95.343842 421.78242,94.908164 422.85129,94.336124 L 422.8513,94.336135 z M 333.0017,87.311565 C 333.35831,86.38226 333.36691,85.163732 333.0208,84.60372 C 332.07234,83.069119 329.41363,85.693165 330.10127,87.485124 C 330.8703,89.489191 332.19653,89.409832 333.00172,87.311565 L 333.0017,87.311565 z M 419.00149,84.692704 C 422.31066,82.323053 425.01819,79.922186 425.01819,79.357446 C 425.01819,78.792706 423.85294,77.799714 422.42874,77.150803 C 420.25792,76.161722 419.07696,76.417742 415.12377,78.734459 C 410.19621,81.622186 408.68591,84.309907 410.33492,87.256538 C 411.70164,89.698684 412.22833,89.542868 419.00148,84.692715 L 419.00149,84.692704 z M 289.41099,82.36057 C 290.61427,77.870636 290.08206,73.043465 287.8634,68.323468 C 284.95318,62.132259 281.1702,58.469344 276.12513,56.957799 C 272.56924,55.89242 271.74052,55.985633 269.89162,57.658869 C 266.97958,60.294209 265.13888,67.392994 266.55925,70.510337 C 268.40519,74.561777 283.19494,84.558649 287.56615,84.709609 C 288.22847,84.732495 289.05865,83.675414 289.41101,82.36057 L 289.41099,82.36057 z M 324.68885,81.940734 C 328.90751,82.518967 329.46629,82.292219 332.59009,78.734406 C 335.49549,75.425356 335.85473,74.389366 335.23757,71.099611 C 334.41137,66.695697 332.09329,61.85704 330.26972,60.730014 C 328.48793,59.628797 322.90749,66.410373 318.90456,74.541462 C 314.87617,82.724296 314.67835,84.24638 317.86492,82.540982 C 319.1874,81.833219 322.06056,81.580493 324.68884,81.940744 L 324.68885,81.940734 z"
         style="fill:#000000;stroke:none;stroke-width:1px;stroke-linecap:butt;stroke-linejoin:miter;stroke-opacity:1" />
    </g>
  </g>
</svg>
