<?xml version="1.0" encoding="utf-8"?>
<!-- Generator: Adobe Illustrator 15.0.1, SVG Export Plug-In . SVG Version: 6.00 Build 0)  -->
<!DOCTYPE svg PUBLIC "-//W3C//DTD SVG 1.1//EN" "http://www.w3.org/Graphics/SVG/1.1/DTD/svg11.dtd">
<svg version="1.1" id="Слой_1" xmlns="http://www.w3.org/2000/svg" xmlns:xlink="http://www.w3.org/1999/xlink" x="0px" y="0px"
	 width="450px" height="118.5px" viewBox="0 0 450 118.5" enable-background="new 0 0 450 118.5" xml:space="preserve">
<path stroke="#000000" stroke-miterlimit="10" d="M11.552,31.64c-3.318-1.304-6.655-4.163-8.377-7.286
	C1.299,20.953,3.938,18.08,6.875,16c3.84-2.72,7.73-3.757,12.308-4.125c5.044-0.406,10.407-0.36,15.442,0.375
	c4.5,0.658,8.537,2.857,8.84,7.673c0.271,4.316-4.566,5.165-5.359,1.902c-1.355-5.575-6.948-5.382-11.83-5.751
	c-4.285-0.323-11.476-0.07-15.025,2.676c-3.586,2.774,1.605,5.593,4.304,6.659c3.63,1.435,7.465,2.404,10.908,4.285
	c6.532,3.568,12.998,9.95,14.815,17.338c0.896,3.643,0.188,7.577-1.839,10.724c-1.863,2.891-4.971,3.643-8.023,4.705
	c-4.867,1.693-11.927,3.355-16.304-0.315c-1.045-0.875-2.025-1.83-2.868-2.903c-0.585-0.745-1.099-1.588-1.619-2.367
	c-0.315-0.473-0.629-0.947-0.945-1.419c-0.399-0.594-0.589-1.332-0.45-2.047c0.081-0.416,0.417-0.659,0.666-0.973
	c0.247-0.311,0.411-0.663,0.56-1.029c0.476-1.168,0.922-1.736,2.009-2.366c1.575-0.913,4.876-1.598,4.225,1.429
	c-0.139,0.647-0.732,1.129-0.837,1.759C14.896,57.992,22.34,58.366,26,58c3.55-0.355,8.791-2.447,9.276-6.447
	c0.107-0.886,0.026-1.881-0.218-2.731c-0.859-3.001-2.712-5.987-5.058-8.072l-3.375-3l-4.25-3c-1.449-0.505-2.893-1.028-4.347-1.519
	c-2.075-0.699-4.331-0.779-6.394-1.56C11.606,31.662,11.58,31.651,11.552,31.64z"/>
<path stroke="#000000" stroke-miterlimit="10" d="M52.633,36.259c1.585-1.65,4.01-4.676,6.577-4.406
	c0.634,0.067,2.002,0.772,2.374,1.352c1.556,2.431-1.491,4.01-2.938,5.119c-1.973,1.51-3.41,3.135-4.027,5.602
	c-0.55,2.199-0.588,4.653-0.444,6.907c0.085,1.344,0.226,2.771,0.913,3.96c1.296,2.24,4.509,1.828,6.698,1.56
	c1.272-0.156,2.5-1.292,3.506-2.035c1.821-1.343,3.406-2.971,4.803-4.746c0.894-1.135,1.978-2.271,2.413-3.684
	c0.679-2.203,0.152-4.648,0.159-6.905c0.004-1.24-0.012-2.48,0.008-3.719c0.021-1.281,0.541-3.377,1.477-4.304
	c0.791-0.782,2.386-1.011,3.451-1.127c1.547-0.169,3.157,0.861,2.951,2.534c-0.097,0.789-0.486,1.402-0.438,2.227
	c0.087,1.505,0.197,3.805,0.26,5.343c0.131,3.173-0.086,6.588-0.375,9.75c-0.71,7.781-0.757,14.534-1.802,22.276
	c-1.31,9.708-2.101,19.665-3.954,29.279c-0.869,4.509-2.052,10.937-6.667,13.158c-2.569,1.237-5.417,0.972-8.016,0.042
	c-4.064-1.454-9.792-4.778-10.654-9.434c-0.171-0.926-0.332-1.855-0.439-2.791c-0.067-0.582-0.195-2.413,0.207-2.599
	c0.813-0.375,1,0.411,1.317,0.961c0.146,0.251,0.259,0.517,0.415,0.762c0.42,0.666,0.877,1.309,1.384,1.911
	c0.977,1.163,2.142,2.253,3.483,2.983c0.769,0.418,1.641,0.749,2.496,0.94c1.405,0.314,2.939,0.852,4.371,0.979
	c2.179,0.193,2.497-0.638,3.137-2.454c1.096-3.112,1.475-6.465,2.057-9.701c1.243-7.77,2.838-15.548,3.651-23.375
	c0.37-3.562,0.349-7.232,0.515-10.792c0.065-1.389-0.226-2.933-0.333-4.334c-1.989,0.499-3.543,1.858-5.021,3.265
	c-1.389,1.322-2.788,2.528-4.709,2.951c-1.92,0.424-3.133,0.772-5.053,0.154c-1.76-0.567-3.321-1.304-4.59-2.694
	c-2.346-2.57-4.183-4.603-5.039-8.076c-0.409-1.659-0.088-3.584-0.088-5.267C46.667,43.609,49.542,39.478,52.633,36.259z"/>
<path stroke="#000000" stroke-linejoin="round" stroke-miterlimit="10" d="M86.75,39c2.411-7.87,4.604-15.053,9.417-21.833
	c0,0,3.497-3.83,3.5-3.833c1.945-2.13,5.413-6.043,7.502-1.94c0.696,1.368,1.169,2.855,1.481,4.355
	c0.153,0.739,0.379,3.695,0.379,3.695c-0.938-0.986-1.736-2.365-3.209-2.595c-1.271-0.198-2.402,0.646-3.245,1.499
	c-2.048,2.071-3.287,4.968-4.363,7.628c-0.511,1.263-0.946,2.549-1.378,3.84c-2.092,6.254-4.279,12.316-5.333,18.852
	c-0.429,2.643-0.096,9.314,2.533,10.983c1.685,1.07,3.109,0.364,4.846-0.205c2.92-0.957,5.6-2.969,8.372-4.428
	c1.899-1,3.633-2.729,4.47-4.729c1.09-2.604,0.426-5.572,1.511-8.192c0.642-1.553,1.154-2.183,2.605-2.52
	c1.037-0.241,3.016-0.578,3.734,0.497c0.782,1.175,0.22,3.232,0.147,4.534c-0.284,5.14,2.782,9.411,6.108,13.182
	c0.687,0.778,2.03,2.257,2.964,2.581c3.149,1.09,5.425-3.076,6.907-5.124c2.415-3.337,4.396-6.915,4.919-11.066
	c0.211-1.674,0.625-3.363,0.471-5.06c-0.165-1.818-1.08-4.743-3.098-5.275c-1.31-0.345-2.857-0.265-4.171,0.018
	c-1.14,0.245-2.758,0.671-3.486,0.678c-0.793,0.007-0.646-0.417-0.646-0.417s4.949-3.167,6.313-3.542
	c1.403-0.385,4.445-0.993,5.925-0.492c3.497,1.185,4.353,7.326,4.559,10.362c0.311,4.581-1.622,9.933-3.626,13.998
	c-2.156,4.371-10.656,18.918-17.051,14.144c-2.008-1.5-3.817-2.902-5.574-4.683c-2.077-2.105-3.618-4.452-5.232-6.912
	c0.455,0.698-14.917,9.386-17,9.833c-3.877,0.831-7.12,0.32-9.878-2.72C81.725,57.063,84.262,47.121,86.75,39z"/>
<path stroke="#000000" stroke-linejoin="round" stroke-miterlimit="10" d="M152.688,39.379c-0.315,0.94-0.562,1.857-0.773,2.634
	c-1.331,4.88-2.701,9.749-4.121,14.605c-0.718,2.456-1.127,4.981-1.205,7.541c-0.095,3.14,2.196,1.987,3.338,4.186
	c2.133-2.866,17.741-34.628,8.323-34.096C155.297,34.417,153.617,36.605,152.688,39.379z"/>
<path stroke="#000000" stroke-linejoin="round" stroke-miterlimit="10" d="M210.618,18.869c-0.146,0.953,1.129,2.081,1.132,3.128
	c0.002,0.691,0.25,1.112,0.889,1.354c1.773,0.674,3.749-0.732,4.392-2.418c0.504-1.321-0.691-2.346-1.781-3.099
	c-1.449-1.001-2.592-0.608-3.903,0.146C210.876,18.25,210.667,18.549,210.618,18.869z"/>
<g>
	<path stroke="#000000" stroke-linejoin="round" stroke-miterlimit="10" d="M166.252,44.492c-5.496,5.519-8.79,12.601-3.247,19.693
		c5.28,6.757,15.291,3.746,21.263-0.259c3.146-2.11,6.27-4.264,9.236-6.625c-0.546-1.034-0.351-4.45-1.689-4.668
		c-1.121-0.183-3.506,2.271-4.346,2.896c-3.134,2.332-6.106,5.583-10.136,6.191c-3.553,0.537-8.8-0.569-9.749-4.749
		c-2.223-9.783,12.38-15.982,18.84-19.968c1.703-1.05,4.62-2.05,6.38-0.618c0.678,0.552,0.905,1.428,1.591,1.971
		c0.962,0.762,2.228,0.652,3.372,0.44c1.685-0.312,1.869-2.047,1.511-3.395c-0.546-2.055-2.394-3.593-4.326-4.298
		c-5.656-2.063-12.476,2.668-17.386,5.227C174.021,38.179,169.703,41.028,166.252,44.492z"/>
	<path stroke="#000000" stroke-linejoin="round" stroke-miterlimit="10" d="M201.109,36.364c0.229,0.395,0.421,0.856,0.566,1.384
		c0.764,2.783-0.639,5.541-1.654,8.045c-1.042,2.57-0.798,5.208-0.262,7.888c0.988,4.941,5.514,8.317,10.103,9.654
		c2.148,0.625,4.411,0.686,6.622,0.961c1.377,0.172,10.127-0.875,8.22,2.343c-0.848,1.43-3.013,1.782-4.475,2.094
		c-3.926,0.838-7.413,0.854-11.43,0.521c-6.328-0.524-11.921-5.174-15.087-10.367c-4.294-7.044-3.487-15.666,1.187-22.3
		C196.708,34.018,199.655,33.86,201.109,36.364z"/>
</g>
<path stroke="#000000" stroke-linejoin="round" stroke-miterlimit="10" d="M255.812,39.584c0.291-3.355,1.14-6.644,3.597-8.895
	c1.488-1.363,5.313-3.447,7.258-2.541c7.396,3.445,2.455,15.402,0.44,20.126c-0.779,1.827-4.251,21.977-8.731,14.615
	c-2.982-4.9-2.717-11.438-2.708-16.922C255.671,43.991,255.623,41.773,255.812,39.584z"/>
<path stroke="#000000" stroke-linejoin="round" stroke-miterlimit="10" d="M267.701,30.141c-4.043-1.024,2.511-15.022,3.494-17.138
	c1.16-2.499,2.714-4.898,4.66-6.865c1.702-1.72,3.596-1.888,5.891-1.888c11.599-0.001,20.766,13.344,18.911,24.156
	c-1.042,6.074-3.246,10.311-8.667,13.423c-3.767,2.163-7.936,3.434-12.115,4.528c-2.65,0.693-8.184,3.021-10.763,1.492
	c-0.968-0.574-1.908-2.635-2.603-3.588c-0.1-0.137,1.241-2.867,2.344-4.181c0.587-0.7,1.429-2.611,1.309-0.289
	c0.173,1.793,0.694,3.959,6.382,2.54c2.804-0.7,5.299-2.109,7.764-3.616c3.153-1.929,6.826-3.912,8.563-7.336
	c2.227-4.388,0.603-9.35-1.588-13.413c-1.674-3.104-4.323-5.825-7.911-6.537c-7.155-1.417-10.148,13.052-11.278,17.631
	c-0.418,1.696-1.441,6.269-1.503,6.694c-0.633,0.135-0.849-1.229-1.196-1.55C268.252,33.146,268.347,30.304,267.701,30.141z"/>
<path stroke="#000000" stroke-linejoin="round" stroke-miterlimit="10" d="M293.167,49c0.499-7.659,5.622-14.62,9.71-20.795
	c3.543-5.353,6.685-11.054,10.513-16.208c2.282-3.072,4.999-5.325,7.135-2.333c2.516,3.523-2.809,9.756-4.752,12.465
	c-3.602,5.02-7.518,9.847-10.539,15.257c-2.51,4.494-6.148,11.767-4.056,17.015c1.695,4.252,6.612,4.486,10.503,3.83
	c2.508-0.422,6.18-0.881,8.32-2.396c2.137-1.514,5.652-4.362,8.355-2.09c2.651,2.23,0.648,6.256-2.355,6.756l-5,0.833
	c-2.765,0-4.155,0.493-6.694,1.445c-1.487,0.558-3.005,1.059-4.563,1.378C300.105,66.135,292.584,57.958,293.167,49z"/>
<path stroke="#000000" stroke-linejoin="round" stroke-miterlimit="10" d="M324.975,62.562c-2.68-1.113-5.334-3.127-6.419-4.929
	c-3.276-5.438-2.986-10.925,0.174-16.42c1.894-3.292,4.911-5.685,8.051-7.72c3.411-2.211,7.02-4.207,10.675-5.983
	c2.446-1.189,6.867-3.688,9.65-2.209c3.387,1.799,1.536,8.158,1.042,10.988c-1.85-2.715-1.006-7.576-5.659-5.943
	c-4.435,1.556-8.905,4.049-12.269,7.365c-3.073,3.029-6.943,7.847-5.672,12.543c0.708,2.617,2.7,5.173,5.199,6.28
	c2.943,1.303,5.963-0.464,8.05-2.607c1.341-1.376,2.312-3.779,4.105-4.632c1.779-0.846,3.574,0.331,4.18,2.111
	c1.636,4.806-8.603,10.015-12.12,11.038C330.884,63.34,328.02,63.827,324.975,62.562z"/>
<path stroke="#000000" stroke-linejoin="round" stroke-miterlimit="10" d="M343.111,38.864c-1.145,2.852-1.484,6.016-1.292,9.071
	c0.252,4.013,0.834,9.033,4.343,11.642c7.936,5.899,13.573-5.33,20.005-7.743c0,0,1.284-0.481,1.332-0.5
	c-0.637,0.239,5.91,6.989,6.695,7.519c5.326,3.592,11.592,3.336,17.735,3.202c2.03-0.044,4.271-0.215,5.996-1.4
	c0.702-0.482,3.254-2.801,2.384-3.779c-0.162-0.182-3.029,0.446-5.332-0.174c-1.878-0.505-3.586-0.926-3.687-0.884
	c-3.116,1.282-6.28,1.337-9.406,0.051c-2.777-1.143-5.75-3.009-6.864-5.95c-1.982-5.233-0.86-10.359,2.39-14.773
	c2.235-3.036,8.766-11.166,2.639-13.771c-4.271-1.814-7.751,3.63-9.43,6.697c-2.703,4.939-3.411,10.041-5.053,15.352
	c-1.37,4.433-6.025,8.381-10.383,9.749c-3.297,1.035-6.387,0.105-6.28-4.021c0.135-5.214,4.138-9.248,2.451-14.712
	c-0.405-1.312-1.678-2.522-2.275-3.926c-1.258,2.276-3.469,3.836-4.823,6.057C343.809,37.305,343.429,38.072,343.111,38.864z"/>
<path stroke="#000000" stroke-linejoin="round" stroke-miterlimit="10" d="M396.051,58.374c0.078-0.083,0.151-0.178,0.219-0.285
	c0.631-0.989,0.32-2.471,0.455-3.574c0.27-2.22,0.169-5.798,1.906-7.471c1.522-1.466,3.742-1.71,5.638-0.856
	c2.087,0.94,3.329,3.369,4.927,4.886c1.873,1.779,4.218,3.425,6.47,4.684c4.625,2.585,10.181,3.672,15.261,1.808
	c3.359-1.233,6.774-3.705,8.967-6.547c0.662-0.858,2.533-3.718,1.409-4.791c-0.804-0.766-2.826,0.938-3.466,1.531
	c-1.488,1.384-2.982,2.745-4.637,3.933c-5.941,4.265-14.435-0.825-18.891-5.246c-1.674-1.661-3.167-3.486-4.749-5.231
	c-1.273-1.406-2.754-3.291-4.799-3.443c-1.217-0.09-2.596,0.728-3.855,0.714c-2.899-0.032-4.215-3.067-4.999-5.386
	c-1.446-4.281-2.507-8.245-5.736-11.583c-3.092-3.196-6.724-5.992-11.156-6.986c-2.295-0.515-4.651-0.432-6.991-0.406
	c-1.914,0.022-4.551,0.689-4.716-1.989c0.012,0.198-4.14,0.999-4.599,1.209c-1.649,0.758-2.932,1.989-2.314,3.955
	c0.508,1.62,2.183,2.181,3.58,2.805c1.8,0.804,3.364,2.115,4.878,3.333c-0.129-0.104-0.146-2.405-0.139-2.662
	c0.029-1.086,0.261-1.699,1.32-2.104c1.845-0.705,4.645-0.205,6.523,0.211c5.545,1.227,8.968,5.981,10.911,11.238
	c1.055,2.853,1.674,5.853,1.96,8.518c0.468,4.361,0.686,9.197-0.208,13.519c-0.381,1.844-1.928,3.997,0.125,5.092
	c0.798,0.426,3.12,2.092,4.033,2C394.355,58.995,395.371,59.104,396.051,58.374z"/>
</svg>
