<?xml version="1.0" encoding="UTF-8"?>
<svg version="1.0" xmlns="http://www.w3.org/2000/svg" width="302" height="161" >
<path fill="#231F20" d="M6.958,101.098c8.973-14.271,16.17-30.029,21.239-46.081c3.508-11.107,7.024-21.875,12.205-32.344 c3.315-6.7,7.293-13.115,10.056-20.075c0.237-0.597-1.628-0.017-1.841,0.19c-3.442,3.333-5.486,7.045-8.158,10.861 c-0.832,1.189-2.032,2.132-2.935,3.276c-1.935,2.454-2.982,5.566-3.981,8.476c-3.75,10.921-3.32,22.782-2.387,34.115 c0.602,7.313,1.859,14.3,0.885,21.633c-0.712,5.36-2.337,10.624-4.54,15.55c-0.925,2.069-5.07,10.935-8.23,8.239 c-3.593-3.064-2.823-11.675-2.804-15.698c-0.644,0.172-1.288,0.345-1.932,0.518c1.012,4.173,3.79,13.38,9.655,12.053 c4.811-1.088,7.126-6.459,9.128-10.411c1.848-3.65,3.803-7.393,6.388-10.583c1.351-1.667,0.243,3.119,0.034,4.062 c-0.34,1.532-8.839,22.342-3.404,21.486c2.866-0.451,4.854-3.257,6.474-5.394c4.953-6.534,8.516-14.206,11.898-21.623 c-0.638,0.101-1.277,0.203-1.915,0.304c-1.928,11.047-4.087,22.058-6.425,33.024c-1.74,8.16-3.603,16.305-5.892,24.331 c-1.04,3.646-2.306,7.221-3.538,10.806c-0.565,1.643-1.361,6.546-2.85,7.673c0.553-0.09,1.105-0.18,1.658-0.271 c-0.678-0.358,0.951-7.129,1.056-7.74c0.847-4.929,1.63-9.88,2.821-14.739c2.252-9.192,5.761-18.12,9.625-26.741 c0.684-1.526,8.659-17.624,9.442-17.196c1.819,0.994-0.255,9.45-0.421,11.145c-0.193,1.978-1.502,6.685-0.496,8.637 c0.067,0.131,0.211,0.178,0.353,0.184c1.782,0.075,2.175-1.325,2.747-2.768c1.936-4.888,3.36-9.96,5.364-14.826 c0.341-0.827,0.728-1.631,1.127-2.431c0.526-1.052,0.551-2.039,1.06-0.815c1.167,2.805,1.41,6.033,2.589,8.913 c1.714,4.186,4.246,8.233,7.083,11.761c0.336,0.418,2.181-0.233,1.811-0.694c-2.208-2.746-4.04-5.78-5.687-8.887 c-1.19-2.246-2.085-4.614-2.838-7.036c-0.54-1.74-0.438-3.904-1.483-5.45c-1.994-2.948-5.301,4.308-5.578,4.944 c-1.594,3.673-2.799,7.523-4.101,11.305c-0.492,1.43-0.999,2.854-1.556,4.26c-0.697,1.761,0.889,1.208,0.915-0.355 c0.083-5.099,0.933-10.26,1.38-15.336c0.079-0.897,0.387-2.783-0.619-3.333c-5.376-2.936-14.359,21.319-15.431,23.885 c-3.433,8.215-6.403,16.729-8.172,25.468c-0.286,1.413-4.396,17.698-2.8,18.541c0.477,0.252,1.249,0.04,1.658-0.271 c0.894-0.676,1.204-2.325,1.564-3.303c1.454-3.937,2.806-7.925,4.106-11.914c2.592-7.956,4.411-16.185,6.216-24.347 c2.695-12.179,5.084-24.439,7.229-36.727c0.11-0.628-1.717-0.131-1.915,0.304c-3.104,6.807-6.421,13.552-10.598,19.774 c-0.731,1.089-5.459,8.252-5.962,4.669c-0.617-4.405,2.4-9.829,3.758-13.811c0.787-2.307,3.581-8.435,1.937-10.91 c-2.565-3.861-11.215,13.693-11.384,14.027c-1.218,2.405-4.446,9.214-8.197,7.037c-1.664-0.966-2.685-2.958-3.52-4.606 c-1.046-2.066-1.814-4.342-2.36-6.592c-0.129-0.535-1.929-0.034-1.932,0.518c-0.018,3.7-0.274,21.181,8.108,15.873 c8.188-5.185,10.917-19.399,11.684-28.146c0.675-7.688-1.081-15.535-1.591-23.201c-0.502-7.542-0.445-15.146,0.985-22.589 c1.143-5.954,3.04-12.482,7.381-16.885c1.714-1.739,2.431-3.866,3.799-5.877c1.542-2.267,3.518-4.319,5.484-6.223 c-0.614,0.063-1.228,0.126-1.841,0.19c-2.609,6.573-6.296,12.68-9.5,18.969c-5.185,10.177-9.081,20.783-12.245,31.745 c-4.81,16.665-12.519,33.096-21.755,47.787C4.834,101.733,6.637,101.607,6.958,101.098L6.958,101.098 M100.638,82.837c-9.313-12.36-25.784,20.716-15.405,22.245c4.107,0.605,6.808-9.207,7.747-11.68 c1.089-2.868,2.052-5.785,2.975-8.71c0.247-0.782,0.485-1.566,0.719-2.352c-0.127,0.428,0.009,1.88,0.017,3.337 c0.043,7.634-1.778,15.747-2.662,23.322c-1.028,8.815-2.052,17.651-3.605,26.392c-0.441,2.484-0.833,5.174-1.881,7.49 c-0.037,0.08-1.428,0.645-1.342,0.721c-0.778-0.693,0.229-3.924,0.378-4.698c0.996-5.164,2.394-10.263,3.704-15.353 c3.226-12.535,5.806-26.912,12.226-38.313c1.017-1.806,0.878-0.415,1.099,1.082c0.549,3.72,0.315,7.659,0.372,11.412 c0.022,1.465-0.911,10.027,1.141,10.744c0.464,0.162,1.028-0.037,1.365-0.366c1.89-1.848,2.045-6.518,2.607-8.859 c0.683-2.841,1.437-5.67,2.382-8.437c0.772-2.258,0.459-1.898,0.714,0.27c0.485,4.123,0.586,8.191,2.54,11.97 c1.07,2.069,3.158,2.728,5.029,1.238c4.736-3.771,5.661-14.105,6.719-19.378c0.188-0.934-1.739-0.578-1.949,0.173 c-1.091,3.889-4.428,16.749,2.129,17.824c7.307,1.198,15.858-6.404,20.976-10.761c0.998-0.85-0.565-1.389-1.26-0.798 c-4.79,4.079-10.399,8.505-16.537,10.176c-7.8,2.123-4.402-12.889-3.358-16.614c-0.649,0.058-1.3,0.115-1.949,0.173 c-1.109,5.525-2.197,11.282-4.679,16.387c-1.697,3.492-3.035,1.853-4.077-0.948c-0.858-2.31-1.078-13.503-3.497-13.288 c-1.955,0.174-2.632,3.281-3.07,4.685c-0.958,3.067-1.743,6.176-2.493,9.299c-0.365,1.52-0.706,3.042-1.101,4.554 c-0.569,2.18,0.787,2.001,0.581,0.389c-0.783-6.113-0.22-12.501-0.507-18.654c-0.049-1.059,0.004-4.341-1.533-4.711 c-4.038-0.972-6.188,8.306-7.014,10.614c-4.409,12.313-7.554,25.123-10.703,37.802c-0.496,1.996-4.114,11.338-1.922,13.29 c0.84,0.748,3.629,0.122,4.319-0.646c1.849-2.063,2.072-6.08,2.544-8.64c1.131-6.134,1.893-12.34,2.662-18.526 c0.789-6.335,1.496-12.68,2.23-19.021c0.538-4.643,2.437-10.776,1.038-15.279c-0.439-1.412-2.226-1.359-3.183-0.542 c-0.514,0.438-0.605,1.356-0.792,1.966c-0.787,2.577-1.642,5.133-2.544,7.672c-0.915,2.571-1.922,5.109-3.067,7.587 c-0.604,1.307-2.203,5.656-3.675,3.735c-2.898-3.782,0.126-9.395,2.088-12.797c1.897-3.291,7.612-11.818,11.731-6.352 C99.354,84.316,101.205,83.59,100.638,82.837L100.638,82.837 M154.659,86.917c-2.154-1.603-5.683-0.815-7.793,0.442c-4.104,2.447-6.796,6.471-9.217,10.487 c-0.948,1.574-4.011,6.528-2.435,8.558c2.63,3.386,8.723-3.515,10.004-5.139c3.811-4.832,6.719-10.583,9.235-16.182 c-0.636,0.111-1.272,0.222-1.908,0.333c-0.827,3.25-1.599,6.515-2.32,9.791c-0.252,1.142-2.517,8.336-1.134,9.209 c1.934,1.22,3.861-3.477,4.3-4.232c1.591-2.74,3.214-5.46,4.97-8.099c1.169-1.757,3.258-5.927,3.423-2.077 c0.144,3.357-1.877,15.553,2.501,16.979c3.136,1.021,6.111-4.39,7.299-6.241c0.33-0.523,0.67-1.041,1.021-1.551 c0.809-1.358,1.039-1.399,0.691-0.123c0.658,1.5,0.859,3.187,1.56,4.711c1.232,2.683,3.363,4.852,5.998,6.139 c4.438,2.168,9.433-0.731,12.772-3.488c0.431-0.355-1.39-0.168-1.752,0.131c-6.398,5.282-11.146,3.085-14.574-2.351 c-1.108-1.756-1.105-4.926-2.403-6.358c-1.098-1.21-2.972,0.011-3.732,1.039c-1.523,2.062-2.732,4.311-4.422,6.255 c-2.604,3-2.983-6.603-3.008-7.271c-0.071-1.949,1.565-10.811-1.635-10.707c-2.303,0.075-3.922,2.815-5.085,4.431 c-2.809,3.903-4.647,8.586-7.589,12.357c1.368-1.754,1.369,0.478,1.325-0.939c-0.027-0.868,0.159-1.752,0.291-2.604 c0.334-2.147,0.812-4.275,1.279-6.396c0.659-2.991,1.377-5.97,2.133-8.938c0.12-0.473-1.716-0.094-1.908,0.333 c-2.898,6.451-6.315,13.179-11.138,18.401c-1.999,2.165-5.123,3.492-4.35-0.583c0.482-2.541,2.035-4.953,3.345-7.126 c1.851-3.069,7.736-12.024,12.438-8.527C153.28,87.91,154.962,87.143,154.659,86.917L154.659,86.917 M215.14,40.593c-0.834-0.933-2.563-2.988-4.041-2.204c-1.615,0.856-1.285,3.524-1.524,5.145 c-1.537,10.408-3.414,20.76-4.665,31.21c-0.749,6.262-1.039,12.568-1.655,18.843c-0.032,0.326-0.874,6.734-1.761,5.869 c-1.214-1.183-2.482-2.3-3.667-3.513c-7.778-7.96-8.868-18.901-8.778-29.523c0.099-11.634,7.282-20.873,14.475-29.388 c1.938-2.294,18.177-19.164,20.262-9.524c2.236,10.341-5.494,20.058-9.817,28.658c-4.467,8.886-7.367,18.762-8.692,28.598 c-1.513,11.236-0.044,27.739,12.95,31.57c7.342,2.165,15.64-3.395,20.32-8.6c0.8-0.889-1.069-1.05-1.59-0.471 c-5.325,5.922-13.926,10.834-21.496,6.078c-9.969-6.262-9.389-21.395-7.86-31.381c1.534-10.03,4.978-20.13,9.964-28.971 c4.494-7.967,9.531-16.448,8.153-26c-0.601-4.162-5.744-3.751-8.636-2.731c-9.282,3.274-16.316,13.229-21.832,20.77 c-5.547,7.583-8.359,15.254-8.119,24.646c0.251,9.758,1.661,18.923,8.317,26.438c1.245,1.405,5.002,6.515,7.385,5.016 c1.637-1.029,1.787-3.485,2.061-5.192c0.839-5.235,0.967-10.619,1.411-15.897c0.766-9.084,2.26-18.104,3.699-27.101 c0.552-3.452,1.123-6.902,1.634-10.361c0.383-2.593-0.348-3.49,1.725-1.172C213.892,42,215.734,41.259,215.14,40.593 L215.14,40.593 M221.479,63.96c1.514,0.757,3.657-0.398,4.882-1.19c6.963-4.507,11.188-13.976,14.786-21.006 c0.56-1.092,7.19-13.719,2.078-12.513c-5.63,1.328-9.627,10.425-11.822,14.91c-5.243,10.708-6.494,23.032-9.918,34.385 c-2.76,9.147-6.4,18.34-7.621,27.866c-0.506,3.943,2.377,3.202,4.362,1.045c5.239-5.692,8.626-13.902,11.665-20.914 c1.188-2.742,2.24-5.547,3.073-8.418c0.196-0.678-1.733-0.377-1.93,0.25c-2.153,6.886-4.696,14.504-4.495,21.785 c0.118,4.245,3.563,4.167,5.97,1.457c3.396-3.825,5.584-8.633,7.776-13.204c1.395-2.908,4.421-7.49,4.18-10.908 c-0.063-0.885-1.826-0.195-2.139,0.071c-2.803,2.381-4.556,6.516-6.304,9.643c-1.564,2.799-10.157,17.172-1.826,17.166 c7.955-0.007,15.178-5.89,20.281-11.445c1.575-1.714,7.819-11.536,0.71-9.978c-5.494,1.205-10.996,7.388-12.969,12.438 c-0.933,2.388,1.022,5.876,2.419,7.692c3.148,4.095,8.897,5.141,13.706,5.541c4.795,0.399,43.291-6.325,38.44,7.242 c-0.227,0.632,1.704,0.382,1.93-0.25c1.216-3.401-1.429-6.057-4.256-7.477c-8.928-4.485-20.609-1.106-29.924-0.553 c-6.978,0.414-16.244-0.448-19.56-7.661c-2.84-6.178,3.414-12.012,8.289-15.154c2.79-1.798,3.943,0.193,3.124,2.641 c-0.688,2.055-2.32,3.883-3.705,5.493c-4.027,4.682-9.854,9.104-15.997,10.298c-8.137,1.583-1.729-10.492-0.396-13.119 c1.338-2.635,2.825-5.2,4.35-7.731c0.514-0.853,1.061-1.685,1.616-2.512c0.27-0.396,0.552-0.784,0.847-1.163 c0.857-0.793,0.658-0.861-0.596-0.205c-0.622,4.988-4.352,10.748-6.558,15.035c-0.756,1.468-6.282,12.056-7.347,7.309 c-0.893-3.978,0.705-8.895,1.611-12.738c0.79-3.35,1.723-6.678,2.75-9.963c-0.644,0.083-1.286,0.167-1.93,0.25 c-1.871,6.453-4.804,12.601-7.934,18.524c-1.393,2.635-2.899,5.21-4.543,7.696c-0.577,0.874-2.869,5.063-2.816,2.208 c0.119-6.466,2.96-13.522,4.882-19.642c2.534-8.072,5-16.116,6.914-24.364c2.081-8.973,4.312-17.18,9.239-25.089 c1.521-2.441,3.286-4.832,5.438-6.752c2.252-2.011-0.197,4.926-0.46,5.591c-3.117,7.88-7.682,15.996-13.186,22.49 c-0.819,0.967-4.107,4.724-5.55,4.003C222.471,62.765,220.691,63.566,221.479,63.96L221.479,63.96z"/>
</svg>