<?xml version="1.0" standalone="no"?>
<!DOCTYPE svg PUBLIC "-//W3C//DTD SVG 20010904//EN"
 "http://www.w3.org/TR/2001/REC-SVG-20010904/DTD/svg10.dtd">
<svg version="1.0" xmlns="http://www.w3.org/2000/svg"
 width="2496.000000pt" height="599.000000pt" viewBox="0 0 2496.000000 599.000000"
 preserveAspectRatio="xMidYMid meet">
<metadata>
Created by potrace 1.11, written by Peter Selinger 2001-2013
</metadata>
<g transform="translate(0.000000,599.000000) scale(0.100000,-0.100000)"
fill="#000000" stroke="none">
<path d="M16950 5440 c-14 -11 -31 -20 -37 -20 -7 0 -15 -12 -19 -27 -6 -27
-60 -149 -91 -206 -8 -16 -17 -45 -19 -65 -2 -20 -11 -62 -20 -92 -9 -30 -19
-73 -24 -95 -4 -22 -13 -60 -20 -85 -8 -27 -10 -61 -6 -83 14 -74 126 -98 193
-41 27 23 27 24 6 24 -12 0 -25 5 -28 10 -3 6 -24 10 -45 10 -21 0 -41 4 -44
8 -3 5 2 51 10 103 8 52 18 128 20 169 3 42 14 92 24 115 10 22 20 49 22 59 2
10 12 24 22 30 30 17 70 66 78 96 7 24 12 27 53 27 41 0 46 -3 52 -26 3 -14
16 -37 28 -51 48 -53 91 -184 102 -304 5 -67 4 -73 -21 -103 -29 -35 -32 -43
-13 -43 35 0 37 -39 6 -102 -15 -29 -11 -58 6 -52 11 5 15 -1 15 -20 0 -14 5
-26 11 -26 6 0 9 20 6 55 -3 38 -1 58 8 63 24 14 65 85 60 103 -5 13 5 26 33
46 21 15 47 38 56 51 16 21 16 22 -2 22 -10 0 -27 -9 -36 -19 -11 -12 -30 -19
-48 -19 -26 1 -29 4 -25 26 3 13 -1 54 -9 90 -7 36 -11 76 -8 89 4 13 2 23 -4
23 -6 0 -14 17 -18 38 -7 41 -49 125 -76 153 -10 10 -29 21 -43 25 -14 3 -25
10 -25 15 0 5 -8 9 -18 9 -10 0 -24 6 -30 12 -10 10 -15 10 -22 -2 -8 -12 -10
-10 -10 8 0 27 -17 28 -50 2z"/>
<path d="M18377 5313 c-4 -3 -7 -37 -7 -74 0 -40 -6 -78 -15 -95 -10 -19 -15
-58 -15 -111 0 -89 5 -113 25 -113 33 0 23 -57 -11 -71 -14 -5 -30 -21 -36
-36 -7 -16 -25 -45 -39 -65 -49 -69 -47 -169 3 -198 23 -12 30 -12 54 0 20 11
28 12 31 3 3 -8 11 -7 31 3 15 8 32 14 38 14 18 0 31 22 38 63 10 53 -17 62
-54 17 -21 -26 -34 -33 -66 -34 l-39 -1 2 48 c2 37 11 58 40 97 21 28 44 50
51 50 8 0 27 -14 44 -32 47 -50 91 -68 132 -52 14 5 13 9 -4 34 -38 53 -24
100 29 100 20 0 44 7 55 15 21 16 30 10 62 -45 20 -34 42 -117 47 -174 6 -74
57 -3 56 78 -1 60 -29 117 -86 174 -38 37 -48 42 -90 42 -26 0 -61 5 -79 12
-29 10 -32 15 -38 69 -4 32 -11 59 -16 61 -5 2 -14 26 -21 53 -6 28 -15 59
-19 70 -4 11 -13 39 -20 63 -12 38 -16 42 -45 42 -17 0 -35 -3 -38 -7z m69
-205 c11 -18 26 -96 27 -148 2 -38 -1 -45 -17 -45 -14 0 -23 12 -34 45 -13 38
-16 41 -23 23 -13 -36 -28 -35 -34 1 -6 30 -3 50 20 124 5 16 51 16 61 0z"/>
<path d="M14982 5254 c-12 -8 -31 -13 -41 -9 -11 3 -28 2 -38 -4 -10 -5 -40
-19 -68 -31 -27 -12 -72 -33 -100 -45 -27 -13 -72 -31 -100 -40 -27 -9 -57
-22 -65 -29 -21 -18 -95 -54 -157 -78 -29 -10 -59 -27 -65 -37 -7 -10 -32 -22
-55 -26 -24 -4 -46 -11 -49 -17 -4 -5 -34 -23 -68 -39 -33 -17 -92 -48 -131
-69 -38 -22 -77 -42 -85 -45 -24 -10 -198 -98 -283 -143 -43 -23 -84 -42 -91
-42 -7 0 -21 -9 -31 -20 -10 -11 -33 -25 -51 -32 -19 -7 -34 -16 -34 -20 0 -4
-7 -8 -15 -8 -8 0 -23 -4 -33 -9 -58 -32 -291 -141 -300 -141 -6 0 -23 -11
-39 -23 -15 -13 -50 -32 -78 -42 -27 -10 -59 -26 -69 -36 -18 -17 -18 -21 -5
-45 8 -15 22 -29 31 -32 9 -2 38 -41 63 -86 54 -94 53 -121 -5 -141 -26 -9
-38 -21 -49 -48 -17 -44 -9 -67 22 -67 31 0 84 26 97 48 13 21 8 -52 -8 -113
-8 -28 -8 -41 0 -46 27 -17 -41 -105 -107 -139 -20 -10 -50 -35 -67 -54 -31
-37 -55 -46 -63 -23 -3 6 -9 42 -14 79 -7 48 -17 78 -36 103 -26 33 -31 35
-85 35 -31 0 -60 -3 -64 -7 -4 -4 -27 -12 -52 -19 -54 -13 -74 1 -56 40 6 13
14 56 18 94 6 65 4 75 -20 115 -63 108 -180 127 -351 58 -11 -5 -38 -14 -60
-21 -22 -7 -50 -21 -62 -32 -24 -22 -18 -26 -83 54 -39 46 -108 66 -175 49
-24 -6 -56 -11 -71 -11 -28 0 -85 -15 -116 -31 -10 -5 -23 -9 -29 -9 -7 0 -42
-15 -78 -32 -51 -25 -79 -32 -123 -32 -56 0 -59 1 -106 49 -27 28 -60 58 -73
68 -13 9 -33 24 -44 32 -26 19 -69 19 -85 0 -9 -11 -9 -22 1 -50 7 -19 17 -35
21 -35 4 0 8 -12 8 -27 0 -34 75 -108 120 -118 l32 -7 -6 -52 c-10 -76 4 -104
55 -112 35 -6 43 -12 56 -41 16 -39 9 -55 -47 -113 -25 -25 -34 -29 -49 -20
-50 26 -72 -4 -41 -55 21 -34 26 -84 11 -101 -5 -5 -18 -36 -30 -69 -36 -102
-62 -145 -85 -145 -7 0 -31 18 -55 40 -23 22 -48 40 -55 40 -7 0 -26 13 -42
30 -16 16 -33 30 -37 30 -21 0 -107 47 -107 57 0 7 15 36 33 65 36 56 73 120
102 178 10 19 22 42 26 50 5 8 16 31 26 50 9 19 20 37 23 40 4 3 12 15 19 28
10 18 10 27 0 38 -18 22 -35 17 -63 -18 -15 -18 -30 -38 -35 -44 -5 -6 -16
-25 -25 -42 -39 -76 -101 -148 -133 -154 -14 -3 -18 -13 -19 -53 0 -38 -8 -65
-34 -110 -35 -61 -105 -153 -128 -168 -15 -10 -52 -81 -52 -101 0 -9 12 -23
26 -33 26 -17 27 -16 51 13 45 53 60 69 80 85 11 9 26 25 34 36 8 10 25 26 38
36 28 19 31 17 132 -49 37 -24 71 -44 76 -44 5 0 29 -25 53 -55 69 -83 114
-71 155 40 10 27 31 69 45 92 15 23 30 62 33 86 3 23 13 56 21 72 9 17 16 44
16 61 0 36 14 50 50 56 19 2 32 17 53 58 42 84 28 131 -70 226 -42 40 -24 67
62 94 22 7 58 21 80 31 22 9 60 23 85 29 25 7 72 21 106 31 33 11 88 20 123
22 56 2 64 -1 82 -23 32 -41 51 -93 45 -124 -4 -16 -17 -52 -30 -80 -35 -74
-51 -153 -36 -171 7 -8 19 -15 26 -15 25 0 91 50 104 78 22 48 40 132 40 186
0 50 1 53 35 69 20 9 49 17 66 17 17 0 61 14 99 30 95 42 139 40 185 -5 40
-41 41 -52 19 -160 -21 -101 -56 -178 -110 -242 -49 -57 -54 -80 -21 -92 28
-11 53 3 144 84 67 60 71 64 75 75 2 6 41 17 88 26 84 16 84 16 102 -6 14 -18
18 -40 18 -109 0 -128 34 -174 100 -136 14 8 30 17 37 20 51 27 185 164 210
216 70 145 118 285 107 313 -4 9 -24 26 -45 36 -42 22 -54 36 -39 45 5 3 10 1
10 -6 0 -9 3 -10 10 -3 10 10 -3 72 -17 83 -20 15 -33 55 -33 98 0 46 2 49 38
65 20 10 64 33 97 53 33 19 67 38 75 41 8 3 47 21 85 41 39 19 90 45 115 58
25 12 98 49 163 81 64 32 117 62 117 66 0 5 11 8 23 8 13 0 32 9 42 20 10 11
26 20 35 20 10 0 28 8 41 18 38 27 59 39 124 72 33 16 80 43 105 59 25 16 52
30 61 30 9 1 22 8 29 16 7 8 20 15 30 15 10 0 23 7 30 15 7 8 18 15 24 15 12
0 95 40 186 90 30 17 59 30 64 30 15 0 78 30 316 149 30 16 73 34 95 42 42 14
75 36 75 51 0 14 -54 9 -78 -8z"/>
<path d="M17607 5106 c-19 -13 -43 -26 -53 -28 -24 -4 -30 -28 -7 -28 11 0 24
-5 30 -11 8 -8 22 -8 49 0 22 6 58 11 81 11 41 0 43 -2 64 -47 38 -86 50 -143
43 -215 -5 -61 -11 -74 -67 -155 -33 -48 -77 -108 -97 -133 -20 -25 -44 -58
-55 -75 -10 -16 -29 -41 -42 -55 -96 -99 -138 -180 -114 -218 14 -22 54 -10
69 20 7 16 31 42 53 60 21 17 39 36 39 42 0 6 12 22 26 35 14 13 32 37 40 53
8 15 18 28 22 28 10 0 80 92 104 137 11 19 27 44 37 54 10 11 27 35 36 54 12
22 28 35 47 39 35 7 45 30 23 53 -14 14 -16 27 -11 76 7 53 4 67 -30 148 -43
104 -86 152 -150 168 -65 17 -98 13 -137 -13z"/>
<path d="M20206 4993 c-3 -4 -6 -14 -6 -24 0 -10 -9 -23 -20 -29 -34 -18 -73
-118 -104 -266 -7 -34 -16 -66 -20 -73 -4 -7 -20 -63 -36 -125 -28 -114 -41
-147 -67 -178 -9 -10 -12 -25 -8 -38 7 -21 -3 -90 -31 -225 -8 -38 -18 -113
-23 -165 -5 -52 -14 -113 -20 -135 -16 -61 -14 -312 4 -392 17 -78 49 -154 82
-198 64 -86 108 -133 170 -183 23 -18 54 -44 70 -58 36 -32 210 -124 293 -157
80 -31 114 -39 133 -31 13 5 13 8 -3 24 -24 24 -74 50 -95 50 -9 0 -37 14 -63
32 -25 18 -73 46 -107 63 -66 33 -97 58 -194 157 -103 104 -160 191 -176 268
-4 19 -13 54 -21 78 -16 47 -18 162 -4 262 4 36 13 108 20 160 50 410 55 430
111 482 23 21 53 41 65 44 13 4 24 10 24 16 0 5 5 6 11 3 5 -4 18 3 28 14 10
12 24 21 30 21 6 0 16 11 22 24 6 13 20 27 30 29 10 3 22 13 26 24 4 10 17 29
30 43 13 14 23 30 23 36 0 6 7 18 16 25 14 11 16 29 12 109 -4 78 -10 105 -32
150 -15 30 -34 62 -42 71 -8 8 -14 23 -14 32 0 22 -100 74 -114 60z m79 -113
c64 -123 80 -242 45 -316 -29 -59 -153 -184 -183 -184 -8 0 -17 -7 -21 -15 -3
-8 -12 -15 -21 -15 -13 0 -15 11 -9 79 4 51 3 80 -4 85 -21 13 11 174 37 184
20 7 31 22 31 45 0 10 11 33 24 50 14 18 34 54 45 80 22 52 32 53 56 7z"/>
<path d="M8335 4890 c-51 -21 -95 -99 -95 -172 0 -21 -14 -72 -30 -114 -36
-90 -60 -196 -60 -263 0 -61 19 -114 65 -184 49 -74 44 -88 -74 -212 -11 -12
-25 -33 -32 -48 -7 -15 -18 -27 -25 -27 -7 0 -32 -21 -56 -47 -131 -143 -138
-149 -166 -121 -16 16 -52 -17 -52 -48 0 -17 -16 -35 -53 -63 -62 -45 -94 -55
-234 -72 -105 -12 -116 -11 -249 27 -79 23 -168 123 -150 169 3 9 20 22 38 30
18 7 44 25 57 38 13 14 29 23 36 20 8 -3 20 8 29 26 17 32 34 33 67 4 9 -8 20
-13 25 -12 5 1 16 -1 24 -4 8 -3 51 -13 94 -22 73 -14 81 -14 98 2 17 15 20
15 46 -4 15 -11 43 -24 61 -28 18 -4 50 -22 71 -41 28 -25 40 -31 46 -22 19
27 9 50 -34 73 -23 12 -52 34 -63 49 -11 14 -26 26 -33 26 -6 0 -18 6 -24 13
-19 18 -149 38 -280 44 l-114 4 -62 -40 c-34 -23 -66 -41 -70 -41 -5 0 -23
-12 -41 -27 -17 -16 -46 -36 -64 -45 -19 -11 -31 -25 -31 -38 0 -30 47 -118
70 -132 11 -7 20 -18 20 -24 0 -18 32 -42 101 -75 90 -44 167 -59 254 -47 145
18 190 31 293 80 77 36 111 47 122 40 8 -5 23 -40 32 -78 l16 -69 1 47 c1 26
5 49 10 52 5 3 9 33 8 67 0 59 1 62 43 100 23 21 46 39 51 39 5 0 9 4 9 10 0
5 25 35 55 67 117 123 155 169 155 188 0 20 20 59 20 41 0 -5 10 0 23 11 14
13 43 23 82 27 33 3 80 13 105 20 25 8 62 17 82 21 44 7 53 17 38 45 -12 22
-30 26 -47 9 -7 -7 -42 -12 -78 -13 -78 -2 -94 9 -72 51 53 102 77 166 77 202
0 25 -5 41 -12 41 -7 0 -6 5 4 13 17 13 38 127 38 205 0 27 -9 75 -20 108 -12
32 -22 66 -24 74 -1 8 -13 16 -25 18 -13 2 -31 12 -42 23 -21 21 -25 22 -54 9z
m87 -128 c7 -15 12 -87 12 -167 1 -114 -2 -146 -16 -175 -10 -19 -18 -41 -18
-48 0 -8 -8 -29 -19 -46 -10 -17 -26 -52 -36 -78 -14 -37 -23 -48 -39 -48 -14
0 -30 15 -51 48 -24 39 -30 60 -33 127 -5 90 13 235 34 279 8 16 14 33 14 39
0 5 14 25 30 44 17 18 30 38 30 44 0 16 43 28 63 17 10 -5 23 -21 29 -36z"/>
<path d="M10674 4623 c-32 -36 -70 -76 -83 -87 -13 -12 -31 -29 -40 -40 -9
-10 -28 -30 -43 -44 -16 -14 -28 -31 -28 -39 0 -7 -11 -18 -23 -24 -13 -6 -38
-34 -55 -62 -17 -29 -40 -58 -52 -64 -11 -7 -28 -30 -39 -51 -11 -21 -38 -56
-60 -79 -23 -22 -41 -45 -41 -51 0 -6 -17 -21 -37 -33 -21 -13 -51 -36 -68
-51 -16 -15 -35 -28 -41 -28 -6 0 -20 -11 -33 -24 -12 -12 -47 -36 -79 -52
-31 -16 -58 -32 -60 -36 -2 -5 -9 -8 -16 -8 -7 0 -20 -8 -30 -18 -9 -11 -35
-24 -59 -31 -23 -7 -55 -18 -72 -25 -92 -41 -163 -47 -183 -16 -7 11 -23 20
-36 20 -13 0 -29 7 -37 16 -24 29 -99 -7 -99 -48 0 -27 45 -68 74 -68 14 0 28
-4 31 -10 8 -13 104 -13 162 1 52 13 162 52 206 75 16 8 35 14 43 14 7 0 19 9
26 20 7 11 20 20 28 20 26 1 218 149 288 223 65 68 112 123 112 128 0 4 20 29
45 56 25 26 45 51 45 54 0 4 13 22 30 40 16 19 30 39 30 46 0 7 13 22 29 34
16 11 35 33 42 48 7 14 25 38 39 52 60 63 78 86 91 117 8 17 19 32 26 32 6 0
21 14 33 30 41 57 -4 32 -66 -37z"/>
<path d="M17124 4564 c-8 -42 -24 -51 -56 -30 -57 37 -110 48 -206 41 -51 -4
-98 -12 -105 -19 -7 -7 -30 -16 -52 -19 -76 -12 -167 -70 -150 -96 9 -16 52
-13 58 3 3 8 25 17 49 21 23 4 52 13 63 20 27 18 88 26 189 28 78 1 86 -1 105
-24 23 -28 44 -103 36 -127 -2 -10 -11 -51 -19 -92 -23 -120 -27 -133 -51
-165 -30 -41 -75 -137 -75 -162 0 -23 -42 -65 -61 -61 -7 2 -15 -6 -17 -17 -2
-11 -19 -39 -38 -62 -37 -45 -42 -68 -18 -77 26 -10 63 -7 71 7 4 7 17 17 29
22 19 9 134 137 134 150 0 3 22 52 49 108 57 118 75 178 91 298 9 64 9 96 0
128 -8 32 -8 50 1 75 12 34 6 86 -11 86 -5 0 -12 -16 -16 -36z"/>
<path d="M9840 4539 c-78 -8 -114 -16 -300 -69 -81 -23 -273 -87 -405 -135
-149 -55 -166 -59 -176 -44 -6 10 -13 11 -31 1 -13 -6 -48 -19 -78 -27 -117
-35 -142 -46 -130 -60 8 -10 6 -15 -9 -20 -30 -9 -28 -39 2 -32 72 17 148 41
187 59 65 30 80 35 135 48 28 6 64 17 80 24 43 19 155 57 190 65 17 5 39 13
50 18 31 17 243 80 310 93 33 6 76 16 96 21 20 5 50 9 67 9 17 0 34 5 37 10 3
6 25 10 48 11 48 0 152 21 163 32 9 9 -125 7 -236 -4z"/>
<path d="M18747 4489 c-11 -31 -18 -71 -17 -90 5 -61 1 -75 -41 -130 -22 -30
-47 -69 -56 -86 -19 -40 -40 -42 -49 -5 -17 77 -26 102 -39 116 -8 8 -15 19
-15 25 0 6 -27 38 -60 71 -57 57 -62 60 -110 60 -28 0 -58 -4 -68 -9 -9 -5
-24 -12 -32 -15 -8 -4 -28 -15 -45 -26 -16 -11 -52 -30 -80 -43 -62 -30 -170
-148 -152 -166 24 -24 53 -9 122 62 75 77 110 107 123 107 5 0 27 9 49 20 35
17 46 18 74 8 43 -15 90 -64 119 -125 13 -27 27 -56 32 -65 4 -10 10 -33 12
-51 6 -43 46 -106 68 -107 9 0 30 11 47 25 50 43 157 276 153 334 -1 13 3 30
9 37 9 11 8 20 -4 37 -8 13 -17 34 -19 47 -2 18 -7 10 -21 -31z"/>
<path d="M3250 4489 c0 -8 -8 -19 -19 -26 -19 -12 -35 -53 -20 -53 4 0 16 8
26 19 25 26 55 33 99 23 39 -9 104 -57 104 -77 0 -6 11 -26 25 -45 14 -19 25
-40 25 -48 0 -7 7 -20 15 -28 9 -10 15 -11 15 -4 0 7 8 9 20 5 16 -5 19 -3 14
12 -16 48 -27 73 -34 73 -11 0 -50 36 -50 47 0 21 -43 64 -83 84 -55 27 -137
37 -137 18z"/>
<path d="M14590 4431 c-58 -16 -21 -81 45 -81 32 0 75 -36 88 -72 7 -19 -16
-115 -36 -157 -8 -14 -29 -57 -48 -95 -19 -38 -53 -90 -76 -115 -24 -25 -43
-49 -43 -53 0 -10 -190 -198 -201 -198 -4 0 -10 -7 -13 -15 -3 -9 -19 -21 -36
-26 -43 -15 -39 -37 6 -36 28 1 39 7 47 24 6 13 15 22 21 21 18 -3 93 40 99
57 4 8 13 15 20 15 25 0 177 162 177 189 0 6 7 14 15 18 18 6 48 60 41 72 -3
4 8 17 23 29 22 16 35 40 51 94 12 40 26 86 31 102 14 44 11 70 -13 125 -15
34 -32 54 -50 62 -14 6 -34 19 -44 30 -17 19 -56 23 -104 10z"/>
<path d="M16503 4430 c-12 -5 -27 -18 -33 -29 -6 -12 -19 -21 -30 -21 -13 0
-22 -10 -28 -32 -6 -22 -15 -33 -25 -32 -9 1 -14 -2 -11 -7 3 -5 0 -9 -7 -9
-6 0 -29 -20 -51 -45 -22 -25 -53 -52 -69 -61 -16 -8 -29 -21 -29 -28 0 -7 -7
-19 -15 -26 -8 -7 -15 -20 -15 -29 0 -9 -10 -21 -22 -26 -15 -6 -26 -24 -32
-48 -13 -50 1 -65 41 -44 44 23 73 33 147 51 84 21 164 65 196 108 30 40 60
104 60 128 0 25 -39 71 -57 68 -10 -2 -17 5 -18 21 -1 17 5 26 27 33 31 11 36
23 12 32 -9 3 -16 6 -17 5 -1 0 -12 -4 -24 -9z m-21 -163 c1 -36 -5 -53 -31
-86 -18 -23 -45 -44 -59 -47 -15 -3 -52 -16 -83 -30 -82 -35 -115 -29 -70 13
10 10 22 32 25 49 4 18 16 35 29 41 12 6 36 17 52 24 31 14 85 65 85 79 0 11
33 18 43 9 5 -4 9 -27 9 -52z"/>
<path d="M19096 4373 c-50 -25 -54 -34 -29 -54 12 -10 43 -13 119 -11 97 2
103 1 118 -20 9 -12 16 -40 16 -61 0 -33 -6 -45 -40 -76 -22 -20 -40 -44 -40
-53 0 -10 -23 -28 -62 -46 -35 -17 -80 -46 -102 -66 -25 -24 -48 -36 -67 -36
-19 0 -34 -8 -45 -25 -9 -14 -30 -27 -48 -30 -18 -4 -43 -15 -56 -26 -14 -10
-47 -36 -74 -56 -57 -42 -45 -58 14 -19 22 14 44 26 50 26 16 0 166 77 227
116 28 19 58 34 65 34 8 0 32 13 54 30 21 16 44 30 50 30 6 0 20 8 32 18 12 9
39 28 61 41 48 29 62 58 68 136 4 60 4 60 -44 112 l-48 51 -87 4 c-75 4 -92 1
-132 -19z"/>
<path d="M2255 4323 c-21 -5 -85 -70 -85 -85 0 -5 5 -18 10 -29 8 -15 6 -25
-11 -49 -28 -38 -17 -51 15 -19 40 39 59 55 89 74 56 36 73 116 24 114 -12 -1
-31 -3 -42 -6z"/>
<path d="M2366 4291 c-4 -6 4 -17 18 -26 24 -16 32 -38 57 -160 6 -27 15 -53
21 -56 7 -5 7 -17 0 -40 -6 -19 -10 -57 -9 -86 0 -35 -4 -58 -15 -70 -9 -10
-18 -27 -22 -38 -3 -11 -23 -38 -44 -61 -20 -22 -53 -60 -72 -84 -50 -61 -115
-130 -124 -130 -5 0 -40 -28 -80 -63 -148 -129 -168 -134 -177 -42 -5 45 -1
81 18 154 13 53 28 112 32 131 7 32 60 162 81 200 42 75 79 149 85 170 7 24 6
24 -27 -7 -41 -39 -52 -41 -44 -8 8 31 -10 33 -19 3 -4 -13 -15 -32 -25 -43
-24 -26 -93 -168 -120 -247 -54 -156 -78 -342 -58 -451 6 -35 4 -42 -26 -72
-18 -18 -42 -36 -53 -39 -22 -7 -153 -134 -153 -148 0 -4 -11 -8 -24 -8 -21 0
-79 -37 -97 -63 -4 -5 -16 -14 -27 -20 -94 -53 -132 -79 -132 -92 0 -8 -12
-18 -27 -21 -16 -4 -35 -15 -44 -26 -9 -10 -22 -18 -28 -18 -20 0 -85 -37
-105 -59 -11 -12 -30 -21 -43 -21 -15 0 -27 -8 -32 -22 -10 -28 4 -36 27 -15
9 8 22 12 29 10 6 -2 30 6 54 19 23 13 50 27 60 33 11 5 19 13 19 17 0 5 6 8
13 8 8 0 24 11 37 25 13 14 34 25 46 25 12 0 29 7 38 15 8 8 19 15 25 15 6 0
11 5 11 10 0 6 6 10 13 10 8 0 22 9 32 20 10 11 24 20 32 20 7 0 13 4 13 10 0
5 16 17 35 26 20 9 49 30 66 45 17 16 35 29 40 29 4 0 12 6 16 13 4 8 42 37
83 66 41 28 90 64 109 79 34 27 34 27 200 27 144 0 170 3 193 18 15 10 35 20
45 21 11 2 17 10 15 22 -5 29 -17 36 -44 25 -13 -5 -66 -12 -116 -16 -80 -7
-92 -6 -98 9 -4 12 5 27 32 49 20 18 48 42 60 55 13 12 27 22 31 22 16 0 149
128 178 171 17 24 32 46 35 49 3 3 16 22 30 42 14 21 28 38 33 38 4 0 7 7 7
15 0 8 4 15 9 15 5 0 12 13 16 29 3 16 12 35 20 41 13 11 20 39 30 129 4 33 1
47 -11 56 -9 6 -18 30 -20 56 -3 25 -23 81 -47 129 -40 79 -66 105 -81 81z"/>
<path d="M3086 4244 c-4 -14 -4 -71 0 -127 6 -96 23 -157 43 -157 5 0 12 -11
15 -24 11 -43 104 -127 171 -154 17 -7 47 -14 66 -16 70 -6 75 -25 24 -86 -19
-23 -35 -49 -35 -57 0 -8 -11 -29 -24 -46 -13 -18 -31 -50 -41 -72 -54 -125
-119 -247 -150 -281 -19 -21 -50 -55 -68 -76 -36 -41 -119 -98 -143 -98 -12 0
-15 9 -13 40 3 34 -2 44 -30 72 -39 38 -81 42 -169 15 -71 -21 -82 -32 -82
-81 0 -22 -7 -54 -15 -70 -12 -23 -13 -33 -2 -55 15 -32 43 -39 50 -12 4 18
10 20 37 14 32 -6 32 -5 26 24 -6 28 -2 35 38 68 53 43 86 42 86 -3 0 -15 3
-36 6 -48 8 -30 -20 -54 -65 -54 -35 0 -91 -19 -91 -30 0 -16 59 -37 91 -33
20 3 39 1 42 -4 3 -4 1 -33 -4 -63 -8 -48 -6 -59 11 -82 11 -15 20 -37 20 -48
0 -23 -31 -41 -38 -22 -7 22 -19 12 -30 -25 -18 -60 -22 -102 -12 -108 6 -3
10 -2 10 3 0 4 8 17 18 28 32 34 92 169 103 230 18 106 28 122 125 220 52 52
94 100 94 108 0 8 12 21 27 28 16 8 39 35 56 68 15 30 37 69 48 86 10 17 19
41 19 53 0 11 4 21 9 21 5 0 13 10 17 23 3 12 25 51 48 87 60 93 131 212 139
232 8 22 54 34 207 53 263 32 270 33 525 95 45 11 88 20 98 20 9 0 25 4 35 9
9 5 44 14 77 21 33 6 96 22 140 35 44 13 100 27 125 31 25 3 60 12 79 20 18 8
46 14 60 14 15 0 36 7 47 15 10 8 32 15 47 15 42 0 164 39 178 56 11 13 3 15
-57 13 -38 -1 -82 -8 -98 -16 -16 -8 -38 -17 -50 -18 -12 -2 -39 -8 -61 -14
-22 -5 -74 -15 -115 -22 -41 -7 -79 -15 -85 -19 -13 -10 -136 -40 -161 -40
-11 0 -24 -4 -29 -9 -16 -15 -335 -82 -415 -87 -41 -3 -82 -7 -90 -10 -19 -7
-40 -11 -119 -19 -35 -3 -74 -13 -87 -22 -15 -10 -33 -13 -50 -9 -15 4 -32 2
-41 -6 -23 -19 -100 -20 -107 -1 -8 20 4 86 16 94 5 3 11 21 13 40 1 19 6 53
10 76 5 29 2 57 -10 95 -22 65 -19 62 -44 48 -18 -9 -21 -20 -21 -83 0 -86
-15 -196 -31 -231 -14 -30 -92 -58 -121 -44 -9 4 -25 8 -35 8 -23 0 -140 113
-148 143 -14 47 -30 77 -42 77 -7 0 -13 -8 -13 -17 -1 -15 -2 -16 -9 -3 -15
27 -24 94 -22 163 3 67 -11 91 -23 41z"/>
<path d="M13877 3973 c-3 -5 -5 -25 -5 -46 0 -21 -6 -44 -12 -53 -21 -24 -50
-183 -43 -233 9 -78 45 -174 74 -203 34 -34 71 -36 158 -8 101 32 195 88 203
119 5 21 -44 20 -60 -2 -9 -12 -21 -15 -38 -11 -14 4 -33 0 -47 -8 -12 -8 -50
-18 -85 -21 -62 -7 -63 -7 -82 25 -26 43 -54 166 -41 182 5 6 11 27 13 46 2
26 8 36 23 38 11 2 26 11 33 20 17 22 16 82 -2 82 -8 0 -16 16 -20 40 -6 36
-9 40 -36 40 -16 0 -31 -3 -33 -7z"/>
<path d="M10526 3901 c-11 -12 -16 -33 -15 -57 0 -22 -4 -66 -11 -99 -7 -33
-13 -98 -13 -145 -2 -95 14 -137 68 -183 26 -22 36 -24 77 -17 59 9 134 55
119 74 -6 7 -7 17 -3 22 4 4 0 3 -8 -3 -8 -6 -31 -13 -50 -15 -19 -3 -42 -8
-51 -12 -11 -5 -26 1 -43 16 -23 20 -27 35 -38 123 -12 112 -5 195 18 195 8 0
14 5 14 11 0 6 -9 9 -20 6 -26 -7 -26 10 -1 18 36 11 45 32 27 60 -20 30 -46
32 -70 6z"/>
<path d="M5457 3846 c-10 -15 -29 -25 -56 -30 -44 -7 -77 -43 -92 -99 -4 -18
-15 -52 -24 -77 -13 -34 -16 -63 -11 -120 3 -41 11 -79 16 -84 6 -6 10 -21 10
-35 0 -31 43 -121 69 -145 16 -15 29 -17 73 -11 29 4 65 14 81 23 27 16 36 32
17 32 -5 0 -10 6 -10 14 0 9 -13 13 -38 13 -49 0 -82 11 -82 27 0 7 -13 37
-30 67 -25 46 -30 65 -30 128 l0 73 46 47 c25 25 49 53 54 61 7 11 11 12 23 1
12 -10 19 -10 35 0 17 11 24 9 46 -12 14 -13 26 -31 26 -39 0 -8 9 -26 20 -40
11 -14 20 -31 20 -37 0 -7 8 -21 18 -31 14 -14 18 -31 16 -68 -3 -64 3 -84 27
-84 28 0 45 47 25 69 -8 9 -20 39 -25 66 -14 67 -31 125 -44 152 -8 18 -13 20
-24 12 -10 -9 -13 -4 -13 25 0 24 -5 36 -14 36 -8 0 -23 10 -33 23 -10 13 -24
22 -31 19 -7 -2 -10 2 -6 11 3 9 -2 20 -15 26 -26 15 -26 15 -44 -13z"/>
<path d="M18350 3658 c-25 -5 -52 -10 -59 -12 -34 -6 -18 -21 24 -22 25 0 62
-8 82 -17 127 -56 497 -92 565 -56 19 10 96 28 178 42 8 1 41 13 72 27 56 24
73 40 43 40 -8 0 -15 -3 -15 -7 0 -5 -23 -9 -51 -10 -28 -1 -61 -9 -74 -17
-14 -9 -37 -16 -52 -16 -15 0 -41 -7 -57 -15 -15 -8 -32 -12 -38 -9 -5 3 -78
7 -161 8 -93 1 -160 7 -173 14 -12 6 -48 15 -80 18 -33 4 -70 12 -84 19 -40
19 -72 23 -120 13z"/>
<path d="M9030 3524 c-8 -9 -24 -44 -35 -78 -18 -50 -28 -65 -58 -81 l-36 -20
-24 23 c-44 41 -131 22 -145 -32 -5 -20 -15 -31 -26 -31 -19 0 -106 -91 -106
-111 0 -7 -6 -14 -12 -17 -9 -2 -13 -26 -12 -73 1 -57 8 -83 38 -146 37 -80
36 -80 101 -80 45 0 50 2 80 32 17 17 41 41 54 53 32 30 73 96 66 107 -3 5 8
16 25 25 16 8 32 26 36 40 3 13 12 29 20 36 8 6 14 20 14 30 0 10 11 38 24 63
15 28 27 72 31 115 4 39 11 71 17 71 5 0 8 19 6 43 -2 34 -7 43 -24 45 -11 2
-27 -4 -34 -14z m-107 -227 c9 -4 24 -9 32 -12 11 -3 14 -12 9 -32 -10 -43
-33 -83 -47 -83 -7 0 -17 -13 -23 -28 -7 -18 -26 -36 -50 -48 -35 -17 -40 -24
-48 -70 -8 -48 -11 -53 -47 -67 -44 -17 -44 -17 -80 58 -18 38 -23 65 -22 111
1 54 5 65 35 96 18 19 40 46 49 59 15 22 23 24 95 24 43 0 87 -4 97 -8z"/>
<path d="M9812 3445 c-41 -13 -84 -31 -97 -39 -14 -9 -38 -16 -55 -16 -23 0
-33 -6 -40 -25 -5 -14 -15 -25 -22 -25 -29 -1 -75 -56 -88 -105 -7 -27 -18
-53 -24 -57 -14 -10 -13 -151 2 -203 18 -63 34 -80 61 -66 21 11 21 16 15 99
-6 74 -4 90 10 101 9 7 16 21 16 31 0 9 13 33 30 51 32 37 36 53 20 94 -9 23
-7 27 28 42 20 8 49 22 64 29 14 8 31 14 37 14 6 0 29 11 51 25 22 14 46 25
53 25 17 0 49 34 40 43 -9 10 -19 8 -101 -18z"/>
<path d="M2403 3386 c-22 -19 -25 -27 -16 -37 10 -9 8 -18 -5 -38 -26 -38 -59
-117 -78 -186 -9 -33 -23 -69 -30 -80 -7 -11 -25 -56 -39 -100 -15 -44 -41
-111 -60 -150 -18 -38 -42 -92 -53 -120 -11 -27 -28 -70 -38 -93 -20 -49 -12
-75 24 -80 27 -4 110 78 147 145 15 28 42 66 60 83 l33 32 7 -58 c19 -174 73
-333 131 -383 38 -33 92 -61 117 -61 49 1 129 98 152 185 8 32 19 63 25 69 13
13 13 36 1 36 -5 0 -13 -9 -16 -21 -5 -16 -12 -19 -30 -15 -17 4 -29 -2 -49
-26 -14 -18 -26 -40 -26 -49 0 -21 -47 -79 -64 -79 -31 0 -117 134 -121 189
-8 97 -46 254 -66 277 -11 11 -19 27 -19 36 0 20 -25 30 -56 22 -30 -8 -30 2
-3 63 12 27 26 58 30 71 5 12 14 32 19 45 16 33 42 138 44 173 1 17 9 42 19
57 9 14 17 34 17 43 0 9 8 22 17 29 15 11 15 15 4 29 -19 23 -45 20 -78 -8z"/>
<path d="M415 3210 c-3 -4 -13 -34 -23 -66 -15 -52 -16 -70 -6 -150 14 -114
26 -150 64 -192 16 -19 32 -41 35 -50 5 -17 70 -60 115 -76 14 -5 31 -13 38
-19 24 -19 185 -21 263 -3 105 25 131 36 127 55 -4 17 -3 17 -113 -1 -122 -21
-196 -15 -269 21 -35 17 -78 47 -95 66 -82 93 -124 259 -86 339 17 36 23 38
60 25 21 -8 16 17 -6 33 -27 18 -96 31 -104 18z"/>
<path d="M7135 3201 c-25 -5 -31 -12 -33 -39 -2 -18 1 -39 6 -45 7 -8 5 -24
-5 -47 -66 -146 -86 -218 -79 -290 6 -70 21 -90 64 -90 37 0 62 17 139 95 47
47 71 79 67 88 -5 13 -12 12 -52 -5 -26 -12 -65 -36 -88 -54 -23 -19 -44 -34
-49 -34 -9 0 5 162 15 175 5 6 11 31 15 58 7 48 40 87 73 87 11 0 13 7 7 33
-3 17 -8 38 -9 45 -2 13 -26 33 -36 31 -3 -1 -18 -4 -35 -8z"/>
<path d="M7493 3158 c-15 -13 -37 -28 -48 -34 -11 -6 -21 -20 -23 -32 -2 -11
-14 -28 -28 -36 -13 -9 -24 -23 -24 -31 0 -7 -9 -20 -20 -28 -10 -7 -24 -26
-30 -41 -13 -34 -13 -33 4 -39 10 -4 22 9 36 39 12 24 28 44 36 44 8 0 14 6
14 13 0 8 11 19 25 25 14 6 25 17 25 24 0 7 17 21 36 31 33 16 38 16 60 2 13
-8 24 -21 24 -27 0 -14 67 -117 92 -141 10 -10 18 -23 18 -30 0 -14 72 -57 95
-57 57 0 108 71 125 173 5 31 11 61 14 66 3 4 0 16 -7 25 -11 16 -14 15 -35
-4 -12 -11 -25 -33 -28 -48 -17 -77 -25 -101 -39 -112 -23 -19 -49 -7 -72 35
-12 22 -31 56 -42 77 -11 20 -32 45 -46 56 -14 11 -25 25 -25 30 0 14 -57 42
-86 42 -12 0 -35 -10 -51 -22z"/>
<path d="M4860 3091 c-5 -11 -10 -28 -10 -39 0 -20 -25 -36 -40 -27 -5 3 -23
-19 -40 -50 -99 -173 -108 -215 -64 -291 31 -52 52 -66 96 -61 59 7 141 62
153 105 5 19 3 22 -20 22 -17 0 -29 -8 -37 -25 -10 -22 -17 -25 -65 -25 -69 0
-69 12 3 87 48 49 90 119 97 158 1 6 6 13 10 16 5 4 9 31 9 60 -1 43 -5 58
-23 71 -28 23 -56 23 -69 -1z"/>
<path d="M16600 2969 c-47 -5 -175 -13 -285 -19 -182 -10 -465 -34 -700 -60
-49 -6 -151 -17 -225 -25 -187 -20 -444 -51 -575 -69 -133 -18 -234 -31 -379
-46 -60 -7 -165 -23 -235 -36 -118 -23 -438 -76 -561 -94 -30 -4 -89 -15 -130
-23 -63 -13 -207 -42 -260 -52 -8 -1 -37 -6 -65 -9 -27 -4 -63 -11 -80 -16
-16 -5 -64 -16 -105 -25 -41 -9 -95 -20 -120 -26 -126 -28 -303 -62 -365 -71
-68 -10 -345 -66 -435 -89 -25 -6 -85 -22 -135 -34 -49 -13 -151 -37 -225 -55
-74 -17 -153 -37 -175 -44 -46 -16 -136 -39 -215 -56 -30 -7 -82 -21 -115 -31
-120 -37 -164 -49 -185 -49 -11 0 -33 -6 -49 -14 -15 -8 -61 -22 -102 -32 -41
-9 -114 -29 -164 -45 -49 -16 -112 -34 -140 -40 -27 -6 -54 -16 -60 -20 -5 -5
-19 -9 -30 -9 -12 0 -44 -7 -71 -15 -141 -45 -175 -54 -244 -69 -41 -10 -109
-28 -150 -41 -139 -43 -182 -55 -206 -55 -12 0 -26 -4 -29 -10 -3 -5 -25 -14
-48 -20 -23 -6 -78 -21 -122 -34 -44 -13 -118 -34 -165 -46 -47 -12 -103 -28
-125 -36 -22 -7 -101 -29 -175 -48 -74 -20 -151 -40 -170 -47 -59 -18 -103
-30 -145 -39 -22 -4 -125 -32 -230 -62 -104 -30 -230 -64 -280 -76 -129 -30
-283 -69 -335 -87 -25 -8 -85 -24 -135 -35 -49 -12 -130 -32 -180 -45 -92 -24
-256 -59 -332 -70 -24 -4 -45 -11 -49 -16 -3 -5 -17 -9 -31 -9 -27 0 -151 -29
-233 -55 -25 -8 -94 -26 -155 -40 -60 -15 -153 -40 -206 -56 -53 -16 -107 -29
-121 -29 -13 0 -57 -11 -97 -25 -39 -13 -100 -27 -134 -30 -34 -4 -93 -17
-132 -30 -38 -13 -95 -29 -125 -35 -30 -6 -75 -16 -100 -22 -25 -6 -65 -14
-90 -19 -25 -4 -88 -18 -140 -29 -52 -12 -136 -29 -186 -39 -50 -10 -96 -21
-102 -25 -16 -10 -179 -33 -297 -42 -55 -4 -109 -8 -120 -10 -11 -1 -25 -3
-31 -3 -6 -1 -21 -10 -33 -20 l-22 -19 32 -11 c44 -15 116 -14 229 4 52 9 153
25 225 36 71 10 134 24 139 29 6 6 27 10 47 10 20 0 53 7 73 15 20 8 62 20 94
25 168 28 358 69 427 93 22 7 67 19 100 26 120 24 240 54 259 63 10 6 28 12
40 13 11 2 39 8 61 14 22 5 67 14 100 21 33 6 74 16 90 22 17 5 48 14 70 18
22 4 94 24 160 43 66 19 152 42 190 51 67 14 112 26 360 95 61 16 127 30 148
31 21 0 54 7 75 16 20 9 69 22 107 29 83 15 272 61 335 82 69 22 111 34 155
43 48 10 93 23 160 44 85 27 233 66 251 66 18 0 113 26 149 41 11 4 42 11 69
14 27 4 60 11 75 17 94 38 252 86 306 93 28 4 55 11 60 15 6 5 37 13 70 19 61
11 112 26 195 57 25 9 68 23 95 30 28 8 66 19 85 25 31 9 132 33 185 43 11 2
45 14 75 26 51 20 227 69 327 90 59 13 196 59 208 71 5 5 21 9 36 9 15 0 67
11 115 24 49 13 116 32 149 40 33 9 76 23 95 30 19 8 89 26 155 41 66 15 129
33 141 40 11 7 56 18 100 25 43 7 102 19 129 27 51 16 175 46 255 63 46 10 90
22 168 46 23 8 62 14 85 14 23 1 53 7 67 15 14 8 36 14 50 14 34 1 271 50 292
62 10 5 32 9 50 9 18 0 49 5 68 11 53 16 109 29 170 39 92 15 161 28 260 50
91 21 198 40 343 60 38 5 72 12 76 15 5 2 33 7 62 11 30 3 57 8 61 10 4 3 85
18 180 34 95 17 193 34 218 40 25 5 70 9 100 10 30 0 91 7 135 16 98 18 170
27 445 59 118 14 258 31 310 39 52 8 165 22 250 31 85 9 191 20 235 25 44 5
148 17 230 25 83 8 193 20 245 26 52 6 151 13 220 15 69 2 220 9 335 15 225
12 588 6 645 -10 19 -6 78 -13 130 -16 52 -3 127 -12 165 -19 145 -29 177 -36
186 -41 5 -3 34 -13 64 -20 30 -8 78 -26 105 -40 27 -14 55 -25 63 -25 11 0
116 -73 139 -97 8 -8 40 -45 70 -82 36 -43 70 -123 64 -153 -12 -59 -50 -122
-104 -175 -69 -66 -66 -63 -122 -116 -70 -67 -120 -120 -120 -128 0 -12 31 2
52 23 10 10 37 27 61 38 58 28 267 204 267 226 0 4 12 23 27 43 23 30 27 45
26 94 -1 32 -7 73 -14 90 -33 81 -161 237 -194 237 -9 0 -18 6 -21 14 -6 16
-65 47 -94 49 -11 1 -20 6 -20 13 0 6 -19 19 -42 29 -43 19 -52 21 -163 48
-33 9 -76 20 -95 26 -47 15 -302 48 -469 61 -153 11 -474 11 -601 -1z"/>
<path d="M5102 2865 c-60 -28 -91 -59 -92 -93 0 -23 0 -23 45 8 25 17 61 34
80 37 33 5 36 3 55 -38 11 -24 26 -53 33 -64 72 -120 76 -125 137 -154 39 -19
45 -19 78 -5 57 23 100 62 122 106 24 50 24 48 4 48 -10 0 -14 5 -10 15 3 8 9
22 12 30 4 9 0 15 -9 15 -18 0 -57 -50 -57 -72 0 -20 -30 -45 -69 -59 -31 -11
-35 -10 -67 22 -19 19 -42 57 -52 84 -37 102 -78 146 -135 144 -12 0 -46 -11
-75 -24z"/>
<path d="M6246 2792 c-13 -21 -34 -102 -40 -147 -3 -27 -8 -62 -12 -77 -9 -39
19 -48 52 -18 19 19 24 33 24 75 0 28 4 55 8 61 5 5 15 28 22 52 12 37 12 45
-1 53 -18 11 -46 12 -53 1z"/>
<path d="M3984 2765 c-3 -8 -2 -27 3 -42 6 -17 6 -42 1 -63 -5 -19 -13 -51
-17 -70 -5 -19 -12 -42 -15 -51 -5 -12 -1 -18 16 -23 80 -21 111 10 106 107
-3 59 -4 62 -27 59 -13 -1 -30 3 -37 9 -11 9 -11 15 3 35 12 19 13 27 3 39
-16 19 -29 19 -36 0z"/>
<path d="M22909 2650 c-9 -5 -32 -10 -50 -11 -81 -2 -118 -20 -169 -79 -28
-32 -50 -61 -50 -65 0 -21 -56 -114 -84 -140 -42 -38 -123 -75 -166 -75 -7 0
-18 -7 -24 -14 -16 -22 -185 -32 -261 -16 -66 14 -115 53 -115 93 0 13 -9 32
-20 42 -26 23 -117 65 -142 65 -11 0 -42 -20 -69 -44 -50 -45 -259 -160 -333
-183 -21 -7 -43 -16 -50 -21 -6 -5 -32 -12 -57 -16 -26 -4 -54 -13 -64 -20
-28 -20 -68 -5 -84 31 -16 36 -37 47 -119 63 l-61 12 -41 -32 c-51 -40 -63
-64 -56 -104 5 -25 2 -37 -14 -51 -24 -22 -25 -38 -4 -56 14 -11 18 -10 30 6
8 10 15 17 16 14 2 -2 11 -17 20 -34 21 -37 45 -43 64 -16 9 12 21 21 28 21 8
0 17 11 20 25 4 14 13 25 21 25 24 0 17 29 -8 35 -12 3 -36 -1 -52 -9 -18 -9
-33 -12 -39 -6 -16 16 3 56 37 75 34 18 35 18 81 -5 35 -16 44 -25 36 -35 -5
-6 -13 -52 -16 -101 -4 -49 -10 -93 -15 -99 -5 -5 -9 -30 -9 -56 0 -26 -4 -51
-10 -54 -5 -3 -10 -22 -10 -41 0 -19 5 -34 10 -34 6 0 10 6 10 13 0 7 9 20 20
30 20 17 28 71 11 81 -16 10 15 81 37 84 12 2 23 14 27 30 24 101 23 99 72
116 26 9 54 16 62 16 9 0 29 7 45 15 15 8 39 15 51 15 13 0 25 5 27 10 2 6 17
13 33 15 32 4 227 98 258 123 25 22 23 2 -9 -83 -24 -66 -26 -82 -27 -265 -2
-171 0 -199 15 -223 10 -14 26 -31 36 -36 27 -14 78 14 97 55 9 19 20 34 25
34 6 0 23 19 40 42 22 30 30 52 30 85 0 23 -4 43 -10 43 -5 0 -10 -6 -10 -14
0 -8 -15 -17 -35 -20 -26 -5 -39 -15 -48 -34 -15 -34 -29 -44 -40 -29 -11 17
1 227 19 312 8 39 14 85 14 103 0 26 5 35 26 42 33 13 31 13 46 -12 25 -47 36
-156 23 -220 -6 -31 -4 -39 10 -44 24 -10 31 7 38 88 3 39 8 73 11 75 3 3 22
-1 43 -10 60 -24 143 -30 229 -17 83 12 87 13 174 54 67 31 82 40 142 89 41
33 47 35 52 20 8 -26 -18 -166 -45 -243 -30 -85 -29 -238 2 -350 27 -97 30
-103 64 -112 32 -8 78 12 98 43 6 11 32 31 55 45 51 30 69 67 79 154 3 33 9
57 14 55 12 -8 39 36 39 63 0 20 -2 22 -14 9 -8 -8 -30 -43 -49 -78 -27 -52
-37 -63 -55 -61 -13 2 -28 -6 -39 -19 -46 -57 -82 -93 -87 -88 -3 3 -11 32
-17 65 -14 75 -7 184 19 299 11 50 26 122 32 160 20 119 49 205 74 214 30 12
87 39 114 55 50 29 93 -5 104 -82 21 -159 21 -162 -15 -257 -20 -49 -32 -94
-29 -99 3 -5 20 8 39 30 18 21 33 33 33 27 0 -7 4 -13 10 -13 17 0 44 73 47
125 1 27 3 59 3 70 6 69 -6 157 -22 171 -9 9 -14 22 -12 29 9 23 -25 79 -62
103 -38 23 -69 27 -95 12z"/>
<path d="M20746 2128 c-5 -16 -15 -61 -22 -108 -4 -19 -12 -61 -18 -93 -12
-60 -2 -184 24 -289 6 -24 15 -60 19 -81 5 -22 18 -52 30 -68 11 -15 21 -32
21 -37 0 -5 13 -15 29 -22 38 -15 58 -3 117 72 43 55 94 150 94 176 0 6 5 12
10 12 6 0 10 5 10 11 0 5 -10 3 -22 -5 -12 -9 -35 -16 -49 -16 -22 0 -31 -8
-48 -43 -12 -24 -21 -47 -21 -51 0 -16 -49 -58 -62 -53 -9 3 -20 34 -27 79 -8
40 -17 80 -21 88 -13 24 -19 133 -9 152 6 11 5 25 -3 37 -9 14 -9 28 -2 48 13
38 28 35 32 -5 4 -41 32 -41 46 1 8 21 6 34 -7 56 -9 16 -17 40 -17 54 0 37
-41 91 -73 95 -16 2 -29 -2 -31 -10z"/>
<path d="M20067 2098 c-11 -9 -15 -21 -10 -37 6 -22 9 -23 61 -18 64 7 111
-13 114 -48 0 -11 2 -33 3 -50 1 -16 6 -62 10 -102 5 -45 3 -108 -5 -170 -12
-97 -16 -107 -104 -293 -9 -19 -52 -72 -95 -117 -43 -46 -94 -100 -114 -122
-20 -22 -45 -44 -56 -50 -11 -6 -40 -28 -64 -49 -25 -20 -66 -55 -92 -77 -26
-22 -62 -49 -80 -60 -17 -11 -48 -33 -68 -50 -19 -16 -52 -41 -72 -55 -20 -14
-58 -42 -85 -62 -27 -21 -58 -38 -69 -38 -10 0 -21 -7 -24 -14 -3 -8 -20 -22
-37 -31 -29 -15 -39 -22 -92 -68 -12 -9 -26 -17 -32 -17 -18 0 -76 -57 -76
-74 0 -25 37 -19 83 12 23 16 67 41 97 56 88 44 148 80 177 108 25 23 184 132
267 183 50 31 136 98 136 107 0 4 6 8 13 8 7 0 22 10 33 23 11 12 43 40 70 62
44 36 90 81 185 181 16 16 29 35 29 40 0 6 9 19 20 29 11 10 20 22 20 28 0 5
10 22 21 39 27 37 88 180 100 233 15 65 29 266 20 284 -15 29 -31 87 -31 110
0 34 -17 59 -60 86 -32 20 -52 25 -108 25 -39 0 -75 -5 -85 -12z"/>
<path d="M13773 2091 c-13 -8 -39 -59 -47 -94 -4 -15 -20 -56 -37 -90 -34 -71
-32 -112 6 -129 32 -14 81 6 99 41 8 14 32 41 55 59 50 40 53 69 13 133 -16
24 -31 51 -34 60 -7 18 -40 30 -55 20z"/>
<path d="M19978 2052 c-15 -9 -32 -27 -39 -39 -7 -12 -15 -20 -20 -18 -7 5
-40 -26 -91 -82 -23 -25 -24 -79 -2 -87 16 -6 16 -8 0 -24 -24 -28 -20 -44 23
-86 34 -33 44 -38 68 -32 15 4 44 10 63 13 66 10 117 88 89 139 -7 13 -15 24
-19 24 -11 0 -90 -102 -90 -115 0 -25 -39 -3 -61 34 -18 30 -20 41 -11 65 6
16 8 35 3 43 -8 16 -3 63 8 63 3 0 17 10 31 23 14 13 30 24 35 25 6 2 24 8 42
14 24 9 30 15 22 24 -6 7 -8 18 -4 24 9 15 -16 11 -47 -8z"/>
<path d="M18102 1837 c-7 -8 -27 -18 -45 -21 -35 -7 -92 -45 -68 -46 26 0 -32
-51 -85 -75 -34 -15 -57 -33 -66 -51 -7 -16 -22 -30 -33 -33 -29 -5 -35 -19
-35 -92 0 -52 4 -69 19 -83 18 -17 19 -16 29 30 6 27 8 52 6 56 -10 15 17 84
45 114 45 50 227 133 313 144 45 5 77 5 83 -1 5 -5 22 -9 38 -9 45 0 140 -27
188 -55 39 -21 89 -72 89 -91 0 -14 62 -84 71 -78 12 7 10 62 -4 101 -14 37
-82 112 -118 130 -108 53 -165 67 -289 71 -104 3 -128 2 -138 -11z"/>
<path d="M13025 1813 c-11 -2 -29 -8 -40 -13 -11 -5 -36 -11 -55 -12 -39 -3
-43 -12 -19 -45 13 -18 29 -24 86 -29 69 -7 70 -6 91 24 29 40 28 60 -4 72
-14 6 -28 9 -32 9 -4 -1 -16 -3 -27 -6z"/>
<path d="M15744 1689 c-17 -5 -39 -18 -49 -29 -10 -11 -24 -20 -31 -20 -17 0
-86 -70 -81 -84 2 -6 9 -11 15 -11 5 0 14 -3 18 -7 4 -4 20 4 36 17 16 14 35
25 43 25 7 0 23 11 36 25 21 22 32 25 97 25 82 0 103 -11 178 -90 36 -37 44
-54 49 -95 8 -70 -15 -149 -62 -219 -35 -51 -38 -62 -29 -82 6 -13 16 -24 22
-24 21 0 76 49 103 92 56 89 66 119 65 199 -1 71 -4 79 -43 139 -46 72 -105
115 -186 136 -56 15 -135 17 -181 3z"/>
<path d="M17835 1410 c-8 -13 26 -70 42 -70 7 0 13 -4 13 -10 0 -5 6 -10 13
-10 8 0 22 -9 32 -20 10 -11 28 -20 41 -20 36 0 37 -15 4 -91 -33 -79 -38
-104 -15 -96 8 4 17 2 20 -3 7 -11 35 -2 35 12 0 17 59 135 72 145 16 13 130
52 178 61 38 8 50 33 29 59 -14 16 -42 15 -169 -6 -164 -26 -152 -28 -242 29
-26 16 -50 25 -53 20z"/>
<path d="M15854 1110 c-12 -5 -25 -13 -29 -19 -3 -6 -16 -11 -28 -11 -12 0
-40 -12 -62 -25 -22 -14 -50 -25 -62 -25 -12 0 -24 -4 -27 -9 -3 -4 -30 -11
-59 -14 -69 -7 -94 -22 -102 -64 -3 -17 -12 -45 -20 -60 -33 -62 -10 -158 48
-206 57 -46 182 -76 357 -84 106 -5 135 -3 180 12 62 21 134 89 177 168 17 30
33 47 45 47 13 0 18 8 18 30 0 29 -13 40 -25 20 -3 -5 -19 -7 -35 -3 -25 4
-36 -1 -65 -30 -35 -35 -45 -70 -24 -82 6 -4 18 3 26 15 23 33 35 5 15 -36
-20 -38 -52 -63 -52 -39 0 12 -8 11 -45 -7 -41 -20 -49 -21 -93 -9 -26 6 -55
9 -63 6 -18 -7 -191 10 -252 25 -28 7 -61 25 -82 44 -36 34 -37 45 -26 179 1
4 8 7 16 7 8 0 23 4 33 9 26 13 82 29 130 36 23 4 49 13 57 21 8 8 22 14 32
12 12 -2 19 7 25 37 5 21 13 42 19 46 18 11 -4 17 -27 9z"/>
<path d="M4626 835 c-26 -14 -56 -25 -66 -25 -10 0 -21 -4 -25 -9 -3 -5 -18
-12 -35 -16 -16 -4 -32 -15 -35 -26 -4 -12 -14 -19 -24 -17 -10 2 -24 -2 -32
-8 -8 -7 -23 -13 -33 -15 -10 -2 -28 -16 -39 -30 -17 -24 -18 -30 -6 -55 20
-40 91 -91 140 -99 23 -4 60 -15 83 -25 47 -20 196 -37 196 -22 0 17 -26 32
-76 42 -74 14 -136 35 -174 59 -19 11 -44 21 -55 21 -11 0 -30 9 -43 19 -18
16 -21 24 -12 45 5 14 17 26 26 26 10 0 31 10 48 23 17 13 60 34 96 47 36 13
74 28 85 34 11 6 29 11 40 11 13 0 21 8 23 23 5 30 -22 29 -82 -3z"/>
<path d="M17005 813 c-30 -7 -45 -32 -45 -74 0 -54 31 -89 80 -89 32 0 50 9
98 49 74 61 113 144 54 112 -12 -6 -30 -11 -41 -11 -12 0 -35 -14 -53 -30 -39
-37 -52 -34 -56 13 -2 20 -6 36 -10 36 -4 -1 -16 -3 -27 -6z"/>
</g>
</svg>
