<?xml version="1.0" encoding="UTF-8" standalone="no"?>
<!-- Created with Inkscape (http://www.inkscape.org/) -->
<svg
   xmlns:svg="http://www.w3.org/2000/svg"
   xmlns="http://www.w3.org/2000/svg"
   version="1.0"
   width="640"
   height="275"
   id="svg2">
  <defs
     id="defs5" />
  <path
     d="M 47.436834,263.68322 C 46.398934,261.17751 46.406086,258.70172 47.475112,250.43322 C 49.550138,234.38369 49.274595,230.76161 44.229189,207.76471 C 40.242827,189.59492 37.742314,177.41792 35.912627,167.26471 C 33.977687,156.52744 29.468865,128.54009 29.249865,125.90734 L 28.970589,122.54998 L 24.720589,126.85469 C 20.47353,131.15642 19.129023,134.21675 21.96415,133.12881 C 23.593043,132.50374 25.56176,136.33435 24.732199,138.51471 C 24.127943,140.10289 21.237325,140.13145 19.670589,138.56471 C 16.41247,135.30659 20.40058,125.6615 26.717234,121.52267 C 29.150418,119.92839 29.276034,119.36264 29.706074,108.06158 C 30.079713,98.242716 30.772399,94.168796 33.837257,83.764706 C 35.862507,76.889706 38.611025,69.014706 39.945074,66.264706 L 42.370618,61.264706 L 33.670603,70.348656 C 21.564295,82.989226 19.802786,85.270576 15.783316,93.514706 C 13.839189,97.502206 11.848501,100.76471 11.359564,100.76471 C 10.175535,100.76471 10.134223,100.94717 12.84879,94.187116 C 14.1568,90.929786 15.543253,85.644606 15.929796,82.442266 C 16.576548,77.084216 16.466626,76.576426 14.551596,76.075636 C 12.068656,75.426336 11.799829,72.959326 14.115197,72.070836 C 16.900059,71.002186 18.679648,74.620636 18.22489,80.427096 L 17.820574,85.589486 L 19.850731,82.927096 C 24.785358,76.455716 35.553786,64.663286 42.821786,57.771656 C 47.168029,53.650476 55.383943,44.566476 61.079372,37.584986 C 68.053723,29.035786 73.562782,23.372796 77.952643,20.240256 C 81.537513,17.682146 84.470589,15.173066 84.470589,14.664506 C 84.470589,13.423566 94.966535,6.7647059 96.922545,6.7647059 C 99.406555,6.7647059 98.711665,9.7824959 95.571285,12.633016 C 93.976675,14.080446 86.214174,20.876126 78.321289,27.734536 C 70.428404,34.592946 60.242393,43.905466 55.685708,48.429026 C 48.492367,55.570086 46.760465,58.011446 42.540414,66.959196 C 37.3107,78.047736 32.7692,93.761106 31.802692,104.11121 L 31.202492,110.53862 L 33.935976,110.01608 C 36.2141,109.58059 36.60605,109.80765 36.288816,111.37912 C 36.046596,112.579 35.101293,113.23584 33.689381,113.18531 C 32.000625,113.12488 31.470589,113.67097 31.470589,115.47131 C 31.470589,117.65675 32.031368,117.40291 38.841057,112.135 L 46.211526,106.43329 L 44.229136,101.95177 C 40.799013,94.197406 43.83497,85.042746 51.143054,81.103466 C 53.954572,79.587966 54.786652,79.548896 58.456445,80.760036 C 62.192502,81.993046 66.015858,85.342826 68.256046,89.345826 C 68.962731,90.608596 70.050589,90.456766 75.799036,88.293056 C 82.174835,85.893216 89.478255,85.062946 92.845715,86.355156 C 95.846895,87.506826 91.955815,96.764706 88.470589,96.764706 C 87.920589,96.764706 87.450976,97.102206 87.427004,97.514706 C 87.403032,97.927206 84.296237,100.28379 80.523014,102.75156 L 73.662609,107.23842 L 73.994795,112.68181 C 74.290058,117.52017 74.579792,118.14383 76.601499,118.29277 C 77.852484,118.38493 79.34512,119.20402 79.918468,120.11297 C 80.821303,121.54426 81.527151,121.12937 85.188698,117.01515 C 88.796868,112.96092 89.423655,111.60521 89.465495,107.76471 C 89.520305,102.73251 92.062435,96.483506 95.525255,92.868716 L 97.820515,90.472726 L 100.63103,93.618246 C 102.17681,95.348286 103.94992,98.782706 104.57127,101.2503 L 105.70099,105.73683 L 108.83579,103.54895 C 110.55992,102.34562 112.19558,101.11255 112.47058,100.8088 C 112.74558,100.50506 116.1208,97.742196 119.97106,94.669116 C 123.82132,91.596046 130.12132,85.623616 133.97106,81.397066 C 140.80123,73.898346 152.9875,63.163976 157.27571,60.868996 C 159.58232,59.634536 164.19711,58.612326 180.23848,55.782566 C 185.88582,54.786356 191.73582,53.157636 193.23848,52.163196 C 194.74113,51.168756 200.59874,47.974916 206.25538,45.065756 C 211.91201,42.156606 219.01625,37.947196 222.04258,35.711516 C 230.07821,29.775246 240.55608,26.939166 241.86359,30.346496 C 242.19744,31.216476 242.47058,32.066396 242.47058,32.235206 C 242.47058,32.950576 208.66214,57.682116 205.47642,59.297166 C 203.55463,60.271446 198.82963,63.194116 194.97642,65.791976 C 191.12321,68.389836 182.86751,73.530396 176.63042,77.215456 C 170.39334,80.900506 163.2698,85.457806 160.80034,87.342786 C 158.33088,89.227766 153.13735,92.623196 149.25914,94.888196 C 145.38094,97.153186 141.19267,99.889066 139.95187,100.96793 C 136.65092,103.83807 128.85835,109.07868 121.72058,113.22872 C 118.28308,115.22735 115.47212,116.95307 115.47401,117.06365 C 115.47589,117.17423 116.74804,120.41471 118.30099,124.26471 C 119.85394,128.11471 121.72112,133.43879 122.45028,136.096 L 123.77602,140.92729 L 127.59344,136.596 C 129.69301,134.21379 132.35435,130.37303 133.50752,128.06098 C 135.88672,123.29081 135.86617,117.27615 133.47058,117.24556 C 130.76672,117.21103 130.90576,115.27221 133.63474,114.95657 C 135.68135,114.71986 136.47101,115.18346 137.04139,116.95657 L 137.78389,119.26471 L 138.67594,116.61861 C 139.82495,113.21026 142.81309,112.45969 145.81924,114.82433 C 148.16016,116.6657 148.22242,116.65777 150.50544,114.2276 C 152.89459,111.68447 156.85063,110.9526 158.01597,112.83815 C 158.43535,113.51672 159.17813,113.19955 160.03516,111.97597 C 161.69416,109.60741 166.90178,107.33246 168.90501,108.10117 C 169.7137,108.4115 171.30625,110.70885 172.44401,113.2064 C 174.50865,117.73855 184.44085,147.1335 186.14817,153.76471 C 186.98098,156.99929 187.18761,156.46846 188.87303,146.76471 C 189.87608,140.98971 191.34408,132.66471 192.13527,128.26471 C 192.92645,123.86471 193.88827,118.27714 194.27264,115.84789 C 195.14618,110.32702 197.47058,109.08152 197.47058,114.13432 C 197.47058,118.38029 199.30139,122.76471 201.07439,122.76471 C 202.63646,122.76471 205.47058,118.90285 205.47058,116.77434 C 205.47058,114.49324 210.3167,107.76471 211.95963,107.76471 C 214.09174,107.76471 215.31587,113.54669 217.04079,131.76471 C 217.90003,140.83971 218.81258,148.90139 219.06868,149.67956 C 219.34005,150.50409 221.45169,147.87256 224.12981,143.37239 C 229.51056,134.33088 235.9659,127.70656 242.38539,124.63895 C 246.20637,122.81307 249.41241,122.34843 261.62125,121.85118 C 277.58416,121.20102 276.22545,121.677 284.97058,113.67153 C 288.48017,110.45877 299.62708,101.79673 314.35982,90.833716 C 323.28667,84.191016 328.3511,78.566286 332.3113,70.896136 C 337.30381,61.226586 338.14153,57.578516 335.88715,55.324136 C 334.80951,54.246496 334.54604,53.289246 335.15849,52.676796 C 335.77095,52.064336 336.76718,52.434956 337.91364,53.701796 C 340.54054,56.604476 339.30327,62.625826 334.09934,72.264706 C 330.38116,79.151636 328.40212,81.427276 319.8754,88.620486 C 314.42775,93.216166 304.79558,100.96545 298.47058,105.84111 C 292.14558,110.71678 285.39558,116.0867 283.47058,117.77427 L 279.97058,120.84259 L 284.02342,119.41757 C 286.25248,118.63381 290.85215,116.59129 294.2449,114.87863 C 297.63766,113.16597 301.03015,111.76471 301.78378,111.76471 C 302.5374,111.76471 303.70168,109.93673 304.37106,107.70254 C 305.6647,103.38476 311.82086,95.764706 314.01551,95.764706 C 316.53619,95.764706 318.47058,98.882186 318.47058,102.94455 C 318.47058,106.8621 318.55193,106.95953 321.22058,106.23801 C 322.73308,105.82907 324.64558,105.41327 325.47058,105.31401 C 326.29558,105.21475 329.22058,103.7091 331.97058,101.96812 C 337.93484,98.192246 344.14812,97.645916 346.87373,100.65769 C 348.41731,102.36333 348.44369,102.89331 347.14029,106.01278 C 343.9568,113.63194 331.74221,121.76471 323.4825,121.76471 C 319.68075,121.76471 319.24664,122.04931 317.76254,125.51471 C 316.08406,129.43395 315.41075,145.84895 316.7256,150.79459 C 317.32871,153.06311 317.81468,153.28475 321.42979,152.93999 C 324.95463,152.60384 325.9019,152.99603 328.96598,156.06011 C 333.37205,160.46618 333.74089,164.7469 329.89195,166.80679 C 326.54351,168.59882 323.33814,166.92429 318.84794,161.03725 C 315.36694,156.47335 313.9364,156.77045 313.30907,162.18759 C 312.75581,166.96501 310.79396,166.32608 310.21387,161.17956 C 309.6604,156.26913 308.40814,154.8052 304.73963,154.78002 C 302.23317,154.76282 300.8417,158.20792 301.94767,161.69254 C 302.33901,162.92553 302.16296,163.76471 301.51297,163.76471 C 300.91215,163.76471 300.15798,162.45169 299.83702,160.84689 C 299.51606,159.2421 298.045,156.48155 296.568,154.71234 C 294.03682,151.6804 293.78454,151.59361 292.17656,153.20158 C 290.07718,155.30097 290.02727,157.45948 291.97058,162.11047 C 293.70222,166.25486 293.89624,168.76471 292.48498,168.76471 C 291.9429,168.76471 290.97654,166.68836 290.33753,164.15059 C 289.63152,161.34676 287.88651,158.2473 285.8898,156.25059 C 282.33195,152.69275 282.42922,150.85236 286.04972,153.22461 C 288.1166,154.57888 288.41246,154.50236 289.9026,152.22812 C 291.96098,149.08664 294.49661,149.09906 297.47104,152.2652 C 299.64458,154.57883 299.99045,154.6541 302.09919,153.2724 C 304.70095,151.56766 309.04375,152.63388 311.23036,155.51424 C 312.32987,156.9626 312.66296,156.98868 313.84854,155.71922 C 314.94342,154.54687 315.0056,152.75141 314.16904,146.46373 C 313.175,138.99237 314.01137,128.37588 315.97695,123.51471 C 317.29576,120.25312 312.51117,121.559 307.73324,125.76471 C 297.99767,134.3343 291.07714,127.97709 299.58862,118.28305 C 303.26335,114.09777 301.80451,113.68662 295.36952,117.09396 C 289.67958,120.10679 281.80138,122.76471 278.56112,122.76471 C 274.53183,122.76471 263.95677,134.38843 262.00419,140.9635 C 259.10783,150.71661 260.18266,153.51649 267.18136,154.44982 C 271.45501,155.01974 276.47058,152.00096 276.47058,148.8588 C 276.47058,146.3744 275.38682,145.58934 273.78842,146.91589 C 271.79614,148.56933 270.80726,146.99946 272.6686,145.13812 C 273.65282,144.1539 275.02364,143.80547 276.30792,144.21308 C 283.0109,146.34053 276.25301,157.76471 268.29156,157.76471 C 265.65097,157.76471 259.75174,154.15859 258.46784,151.75958 C 257.31291,149.60159 258.67682,141.20035 260.87089,136.95748 C 261.66967,135.41282 264.53519,131.79295 267.23871,128.91334 L 272.1542,123.67768 L 261.56239,124.109 C 247.06397,124.6994 242.47892,126.05261 236.37149,131.54371 C 231.1136,136.271 224.30345,145.51295 222.97927,149.71807 C 222.55437,151.06742 221.63985,152.7383 220.94701,153.43114 C 220.04095,154.3372 219.83682,157.08755 220.21989,163.22778 C 220.59665,169.26672 220.41864,171.76471 219.61154,171.76471 C 218.9348,171.76471 218.47058,170.02483 218.47058,167.48848 C 218.47058,165.13655 218.02945,159.62405 217.49028,155.23848 C 216.95112,150.8529 215.82073,139.96732 214.9783,131.0483 C 213.45452,114.91559 212.1204,108.60817 210.60066,110.35187 C 210.16309,110.85393 208.81767,113.92398 207.61085,117.1742 C 204.30844,126.06824 200.8011,128.00092 197.57879,122.70225 L 195.7164,119.63979 L 195.0081,124.45225 C 194.61854,127.0991 193.48522,133.53971 192.48961,138.76471 C 189.39132,155.02465 187.96059,164.19234 188.22374,166.0991 C 188.37496,167.19482 187.97228,167.76778 187.22374,167.52198 C 186.5345,167.29565 185.84173,165.79518 185.68425,164.18759 C 185.05382,157.75214 178.55084,134.63102 174.45565,124.26471 C 174.0211,123.16471 172.66631,119.66954 171.44501,116.49767 C 170.22371,113.3258 168.82581,110.48426 168.33857,110.18313 C 166.67881,109.15733 163.90704,110.75584 162.13041,113.76343 C 160.48518,116.54857 157.47058,117.91249 157.47058,115.8717 C 157.47058,115.38054 156.78537,114.71575 155.9479,114.39438 C 153.85581,113.59157 150.47058,117.2197 150.47058,120.26471 C 150.47058,123.26912 148.8618,123.57271 147.96212,120.73807 C 146.62437,116.52319 140.47058,114.53997 140.47058,118.32373 C 140.47058,119.11627 140.11391,119.76471 139.67798,119.76471 C 139.24206,119.76471 138.35655,121.742 137.71018,124.15868 C 136.99883,126.81836 134.15868,131.54297 130.51444,136.12885 L 124.49392,143.70505 L 126.57444,152.48488 C 127.71873,157.31379 128.8089,161.42263 128.99705,161.61565 C 129.18519,161.80867 129.85267,160.00867 130.48033,157.61565 C 133.61666,145.65803 134.80351,142.73575 138.07672,138.91175 C 140.96105,135.54205 142.27063,134.76471 145.0632,134.76471 C 147.86745,134.76471 148.86468,135.36286 150.48154,138.01471 C 153.24259,142.54316 153.0645,147.96755 150.04014,151.45895 C 148.1625,153.62655 147.33624,153.99569 146.40736,153.08193 C 144.73431,151.4361 145.99157,148.76471 148.4392,148.76471 C 149.94621,148.76471 150.47058,148.11108 150.47058,146.23259 C 150.47058,142.39564 147.7855,136.76471 145.95587,136.76471 C 141.48419,136.76471 138.85492,140.38444 134.04558,153.16168 C 130.56685,162.40383 130.17139,166.45641 132.02601,173.85807 C 132.90892,177.38172 133.83399,182.28971 134.08173,184.76471 C 134.32946,187.23971 134.9683,191.42436 135.50137,194.06393 C 136.70599,200.02882 136.76247,207.76471 135.60141,207.76471 C 135.12336,207.76471 134.2031,203.82721 133.55638,199.01471 C 131.18836,181.39343 129.62982,173.07213 127.06499,164.3561 C 125.62317,159.45637 124.16548,153.7089 123.82568,151.58394 C 123.48589,149.45898 122.8406,147.49339 122.3917,147.21596 C 121.9428,146.93852 119.68592,149.21428 117.37642,152.2732 L 113.17732,157.83487 L 114.32619,166.04979 C 115.02675,171.05906 115.136,175.44649 114.60616,177.29318 C 113.39679,181.50831 109.65814,188.64701 107.3785,191.09392 C 104.8233,193.8366 104.97333,195.37013 108.37351,201.26471 C 112.3051,208.08055 114.60927,209.94282 124.37342,214.19617 C 145.95637,223.59789 157.48725,223.18899 205.97058,211.30263 C 218.07058,208.33615 234.04558,204.48456 241.47058,202.74354 C 261.27727,198.09925 293.38523,188.24447 312.87146,180.82872 C 318.42598,178.71487 327.02058,175.55667 331.97058,173.81048 C 336.92058,172.0643 342.01271,170.2108 343.28643,169.6916 L 345.60227,168.74759 L 343.53643,166.12129 C 340.98683,162.88001 340.91592,160.57665 343.29932,158.4197 C 345.47123,156.45415 348.55386,156.27829 350.39844,158.01471 C 351.49564,159.04758 351.60919,158.48303 351.0521,154.76471 C 350.68128,152.28971 349.73053,149.61257 348.93932,148.8155 C 347.68373,147.55064 347.11165,147.65396 344.44201,149.62771 C 338.3954,154.09816 332.40467,150.25785 334.71121,143.38986 C 336.13432,139.15242 337.3558,137.76471 339.66258,137.76471 C 342.39581,137.76471 341.67645,141.95503 338.72058,143.25184 C 337.18964,143.9235 336.47058,145.0985 336.47058,146.92851 C 336.47058,150.54548 339.19617,151.01133 342.85849,148.02031 C 344.44683,146.7231 346.69683,145.79742 347.85849,145.96323 C 350.95566,146.40532 353.46719,152.22131 353.46903,158.95569 C 353.46988,162.08573 353.86425,164.88998 354.3454,165.18735 C 354.82655,165.48471 357.60047,164.91894 360.50967,163.93008 C 365.45916,162.2477 365.9257,161.79898 367.76877,156.94843 C 370.11079,150.78471 371.75157,150.15531 370.85459,155.76471 C 370.33498,159.01417 370.51157,159.76471 371.79572,159.76471 C 374.13902,159.76471 378.71863,157.60891 380.7847,155.53324 C 381.90235,154.41039 383.82191,153.78556 385.7847,153.9057 C 387.56479,154.01466 391.17685,152.98058 393.97058,151.56221 C 400.83912,148.07507 403.82381,147.20502 403.27556,148.84976 C 403.03816,149.56197 399.98169,151.29669 396.4834,152.7047 C 392.98511,154.1127 389.92404,155.87091 389.68103,156.61182 C 389.3323,157.67502 389.6712,157.72771 391.28914,156.86182 C 394.21865,155.29399 397.22705,155.50714 398.26163,157.35582 C 398.98769,158.65322 399.82246,158.01378 402.78385,153.89173 C 406.43642,148.80762 414.37285,143.26116 419.61641,142.1281 C 421.52755,141.71513 422.42177,140.75877 422.83673,138.68396 C 423.70492,134.34302 428.43034,127.76471 430.68039,127.76471 C 431.74961,127.76471 433.91964,129.05993 435.50269,130.64297 C 438.28628,133.42657 438.4361,133.4603 440.05765,131.6685 C 442.57708,128.88456 445.27528,128.40672 448.08401,130.24708 C 451.26373,132.33051 456.47058,131.44748 456.47058,128.8248 C 456.47058,126.59498 460.60126,120.43141 464.22638,117.25202 C 465.73569,115.92829 469.50985,113.47644 472.6134,111.80346 C 479.93934,107.85439 488.34755,99.384936 491.65252,92.625676 C 493.09421,89.677146 496.14743,83.328406 498.43744,78.517376 C 501.62536,71.819956 503.17114,69.626976 505.0336,69.159536 C 508.55457,68.275826 510.41213,69.272216 509.77633,71.703536 C 509.14186,74.129726 507.65158,74.399966 506.82241,72.239186 C 505.86565,69.745896 503.75472,72.279266 499.79041,80.678466 C 497.82108,84.850896 495.03098,90.724566 493.59019,93.731056 C 490.18182,100.84331 482.71565,108.36482 473.97058,113.49609 C 460.30951,121.51187 456.16364,128.46771 460.36969,136.3153 C 461.52518,138.47118 462.47058,141.2277 462.47058,142.44088 C 462.47058,143.65407 462.92058,144.92479 463.47058,145.26471 C 464.7275,146.04153 464.72775,145.14822 463.47187,140.76921 C 460.39815,130.05176 472.80754,123.7246 476.2634,134.24722 C 476.97445,136.41227 477.73461,138.36207 477.95264,138.5801 C 478.17068,138.79814 480.31642,138.22519 482.72096,137.30689 C 486.15324,135.99609 487.29463,134.95245 488.03171,132.45098 C 488.67352,130.27287 489.68249,129.1636 491.22058,128.94516 C 492.45808,128.76941 493.47058,129.10691 493.47058,129.69516 C 493.47058,130.28341 492.84372,130.76471 492.07757,130.76471 C 490.90718,130.76471 489.47058,132.75213 489.47058,134.37125 C 489.47058,134.61488 490.59242,135.24073 491.96355,135.76204 C 494.39814,136.68767 494.44271,136.88876 493.86681,144.34938 C 493.54248,148.55112 493.5898,154.07407 493.97198,156.62261 L 494.66685,161.25633 L 496.81871,158.71233 C 499.30693,155.77069 503.47021,153.76471 507.08718,153.76471 C 509.12319,153.76471 509.54805,154.19344 509.29013,155.98768 C 508.90203,158.68748 502.21039,162.72474 498.08466,162.74826 C 495.22354,162.76457 495.20426,162.80505 495.84203,167.45811 C 496.41452,171.63488 499.53069,176.76471 501.49542,176.76471 C 501.86733,176.76471 503.59214,174.62721 505.32831,172.01471 C 507.06449,169.40221 510.89365,164.04087 513.83756,160.10061 C 518.01906,154.50392 519.33468,151.84686 519.85081,147.95608 C 520.54852,142.69645 522.44573,140.15746 524.95785,141.12145 C 527.31862,142.02736 526.73968,146.29145 523.77804,149.81116 L 521.08551,153.01106 L 523.90064,158.38788 C 526.31137,162.99232 527.12911,163.76471 529.59317,163.76471 C 531.45687,163.76471 532.47058,164.2821 532.47058,165.23333 C 532.47058,166.12792 531.88429,166.47696 530.97058,166.12634 C 529.08382,165.40232 529.09709,166.68681 531.00238,169.20584 C 532.5607,171.26612 532.92831,175.53334 531.70527,177.36501 C 530.83008,178.67572 527.03949,180.76471 525.53632,180.76471 C 524.95016,180.76471 523.57058,179.86471 522.47058,178.76471 C 519.65818,175.95231 519.74626,169.16462 522.63505,166.08964 C 524.66377,163.93016 524.69513,163.67032 523.13505,161.94645 C 522.21959,160.93488 521.47058,159.60672 521.47058,158.99499 C 521.47058,158.38325 521.04761,157.62133 520.53064,157.30183 C 519.47014,156.6464 509.50245,168.74392 505.95029,174.99762 L 503.62199,179.09666 L 506.26342,182.55975 C 511.71241,189.70375 508.57316,204.59003 500.84419,208.25766 C 496.84532,210.15525 494.34486,210.15685 489.81634,208.26471 C 485.34723,206.3974 485.66943,206.34401 485.29013,209.01471 C 484.85065,212.10918 481.39089,211.95172 479.79684,208.76471 C 479.10911,207.38971 478.29471,204.63452 477.98708,202.64208 C 477.48797,199.4095 477.04422,198.95721 473.86585,198.44143 C 469.78236,197.77877 460.38322,199.23931 455.97058,201.22218 C 446.2846,205.5747 443.43438,207.19459 438.47058,211.16814 L 432.97058,215.57091 L 432.97058,223.62754 C 432.97058,229.9724 432.59792,232.0578 431.21661,233.44269 C 429.54311,235.12054 429.36039,235.09897 427.23382,232.97239 C 424.41027,230.14884 424.42434,224.62237 427.26746,219.76471 C 429.11939,216.60057 429.18998,215.88087 428.00303,212.26471 C 427.28091,210.06471 425.88472,205.56471 424.90037,202.26471 C 423.08151,196.16698 418.13318,185.54347 415.78764,182.70066 C 414.68637,181.36592 415.26492,180.33895 419.73388,175.69591 C 422.61406,172.70352 425.86315,168.56476 426.95407,166.49866 C 428.70038,163.1913 428.7705,162.4746 427.54045,160.50499 C 426.77205,159.27457 425.35142,155.1891 424.38349,151.42615 C 423.41557,147.66321 422.362,144.3228 422.04221,144.00301 C 421.72243,143.68323 418.44243,144.96129 414.75332,146.84315 C 405.60516,151.50974 400.52169,158.03852 401.21904,164.22543 C 401.50929,166.80049 401.25721,168.77854 400.58594,169.19341 C 399.93474,169.59588 399.40896,169.12992 399.32252,168.07373 C 399.24109,167.07877 399.08271,165.58971 398.97058,164.76471 C 398.85845,163.93971 398.70007,162.73435 398.61864,162.08614 C 398.45165,160.75686 395.68595,157.75663 394.64915,157.78002 C 391.79104,157.84452 391.0313,160.16566 390.33878,170.9489 C 389.93908,177.1726 389.11165,186.67512 388.50004,192.06561 C 386.66307,208.25616 389.30853,217.1552 399.10368,227.73513 C 405.41201,234.54888 408.30663,236.08807 419.013,238.32171 C 439.61698,242.62027 459.09021,236.81947 488.47058,217.63126 C 503.09647,208.07916 506.8475,205.85893 522.65627,197.39684 C 532.0801,192.35246 535.9726,192.59737 526.98574,197.66924 C 523.96907,199.37175 521.27699,200.76471 521.00334,200.76471 C 520.7297,200.76471 517.56495,202.56471 513.97058,204.76471 C 510.37621,206.96471 507.16052,208.76471 506.82462,208.76471 C 505.84217,208.76471 485.24525,221.82993 482.10152,224.44728 C 478.78375,227.20953 461.6037,235.76471 459.37446,235.76471 C 458.54733,235.76471 457.44308,236.17104 456.92058,236.66768 C 455.28835,238.2191 441.26142,241.65566 434.79443,242.08853 C 426.6806,242.63163 414.89979,240.51826 407.48042,237.18864 C 402.86166,235.11586 400.27035,233.01119 395.94736,227.82146 C 388.7717,219.20712 387.87595,217.37647 386.41981,208.34995 C 385.40101,202.03441 385.48612,198.60434 386.96276,186.46863 C 388.56093,173.33417 388.7523,158.7131 387.34446,157.30526 C 387.03272,156.99352 385.21292,157.39225 383.30046,158.19132 C 378.9681,160.0015 377.52213,164.21396 376.74145,177.29926 C 376.32138,184.34022 376.5773,187.62968 377.83154,191.31067 C 379.58355,196.45255 380.04942,204.76471 378.58559,204.76471 C 376.22853,204.76471 374.17601,199.09658 373.90313,191.8339 C 373.66863,185.59264 370.08321,165.04401 369.0481,164.0089 C 367.60838,162.56917 365.45301,166.52162 362.73355,175.58833 L 359.49651,186.38063 L 361.034,194.82267 C 363.5228,208.48822 363.58968,209.19484 362.543,210.76471 C 361.66006,212.08899 361.35433,212.07619 359.93317,210.65542 C 357.63765,208.36054 356.52184,202.55447 356.49493,192.76471 C 356.48208,188.08971 355.70093,180.83506 354.75905,176.64326 L 353.04654,169.02181 L 336.50856,174.76183 C 316.36371,181.75373 298.06207,188.43476 293.81945,190.34552 C 292.08633,191.12608 290.00627,191.76471 289.1971,191.76471 C 288.38792,191.76471 284.18093,192.88436 279.84822,194.25282 C 275.51552,195.62127 269.27058,197.59612 265.97058,198.64136 C 258.82269,200.90537 255.97788,201.65609 238.97058,205.76636 C 231.82058,207.49435 222.82058,209.74727 218.97058,210.77285 C 178.24404,221.62175 158.01226,224.81708 143.97058,222.61806 C 123.9026,219.47528 107.67166,210.05463 104.58712,199.75937 C 103.59321,196.44197 103.00007,195.7479 101.65583,196.32923 C 100.72894,196.73007 97.270585,197.23197 93.970585,197.44455 C 85.041513,198.01975 79.649101,194.66351 73.712644,184.836 C 69.4693,177.81135 69.255352,177.10426 69.779178,171.836 C 70.083854,168.77179 72.596471,159.14294 75.362771,150.43855 C 79.443931,137.59684 80.175041,134.26432 79.23974,132.76667 C 78.405175,131.43032 78.376277,129.97864 79.135027,127.50641 C 81.262851,120.57333 75.760739,118.36468 72.208228,124.72587 C 68.803194,130.82299 64.360612,132.51064 61.125577,128.93597 C 58.770916,126.3341 59.073197,123.39043 62.059483,119.84144 C 64.018656,117.51309 65.478091,116.76471 68.059483,116.76471 C 71.435609,116.76471 71.470589,116.71856 71.470589,112.26471 C 71.470589,107.38474 70.714294,106.9037 66.935132,109.3799 C 65.012936,110.63937 63.225176,110.83955 58.817551,110.28886 C 55.708681,109.90043 52.14209,109.11653 50.891793,108.54685 C 48.919066,107.64802 47.560355,108.28804 40.614573,113.3879 C 31.252735,120.26172 30.745809,121.50328 32.469379,133.33695 C 33.10445,137.69722 33.829328,143.06471 34.080219,145.26471 C 34.505352,148.99259 35.716442,155.37952 38.536297,168.76471 C 39.173573,171.78971 40.250531,177.63971 40.929538,181.76471 C 41.936497,187.88203 49.742277,223.80974 50.799529,227.19338 C 51.210637,228.50909 56.986185,209.94843 59.424389,199.47598 C 61.566859,190.27377 61.88646,186.09406 60.845589,180.88971 C 60.152631,177.42492 58.470589,176.62816 58.470589,179.76471 C 58.470589,181.91435 57.730998,182.21641 55.669419,180.90876 C 53.816666,179.73356 56.191089,174.76471 58.605424,174.76471 C 61.501103,174.76471 63.471239,179.91391 63.464703,187.46505 C 63.459346,193.65443 62.429002,198.33482 56.464317,219.26471 C 52.822151,232.04495 52.716922,232.70113 53.573927,237.28846 C 54.056347,239.87072 55.309562,244.97176 56.35885,248.6241 C 59.071532,258.06634 59.752866,263.71966 58.377834,265.37647 C 57.725172,266.16288 55.380541,266.76471 52.969465,266.76471 C 49.15811,266.76471 48.579815,266.44262 47.436834,263.68322 z M 56.081086,259.51471 C 55.247931,251.69246 51.839032,238.75371 51.141132,240.76471 C 49.549608,245.35069 48.539793,258.53797 49.513914,262.01471 C 50.437941,265.31266 50.937215,265.76471 53.655688,265.76471 L 56.746779,265.76471 L 56.081086,259.51471 z M 430.84194,227.07199 C 431.1957,224.491 431.07016,221.96429 430.56296,221.45709 C 429.41564,220.30977 426.56158,225.6423 427.18701,227.76471 C 427.43013,228.58971 427.80426,229.82721 428.01842,230.51471 C 428.8581,233.21021 430.22986,231.53763 430.84194,227.07199 z M 436.73471,209.5113 C 443.12847,204.31727 455.38138,197.76471 458.70015,197.76471 C 460.04055,197.76471 461.4241,197.47785 461.77471,197.12725 C 462.12531,196.77665 458.34761,193.56232 453.37981,189.9843 C 447.19312,185.52839 442.24024,180.86663 437.65902,175.18757 C 433.98038,170.62739 430.69288,166.86671 430.35347,166.83052 C 430.01405,166.79432 428.59777,168.45221 427.20617,170.51471 C 425.81458,172.57721 423.16323,175.83858 421.31429,177.7622 L 417.95258,181.25969 L 421.18896,187.2622 C 424.32513,193.07886 425.37399,195.85845 429.01985,208.01471 C 429.96833,211.17721 430.91412,213.76471 431.1216,213.76471 C 431.32908,213.76471 433.85498,211.85068 436.73471,209.5113 z M 483.27808,204.59243 C 483.10895,202.29768 482.40808,200.23518 481.72058,200.0091 C 480.37268,199.56585 480.07529,202.68779 481.10087,206.51471 C 482.11984,210.31698 483.60344,209.00709 483.27808,204.59243 z M 502.28567,203.92853 C 505.4541,200.28284 506.47058,197.42191 506.47058,192.14995 C 506.47058,187.61423 504.21609,181.76471 502.46795,181.76471 C 501.94476,181.76471 500.77782,182.89237 499.87476,184.27061 C 498.47067,186.41352 498.41905,187.22608 499.51837,189.88009 C 501.26259,194.09101 501.1856,201.69907 499.38725,202.83737 C 497.15969,204.24735 496.63268,203.97886 494.84596,200.52372 C 493.38882,197.70592 493.32811,196.51715 494.381,191.41955 C 495.45571,186.21631 495.3989,185.34299 493.87631,183.66054 C 492.48294,182.12088 492.43396,181.76471 493.61559,181.76471 C 494.41584,181.76471 495.60889,182.30302 496.26683,182.96096 C 497.19517,183.8893 497.79275,183.72133 498.93503,182.21096 C 500.86142,179.66383 500.82627,179.13054 498.62928,177.57141 C 496.58478,176.12051 494.53302,172.64491 493.54906,168.96576 C 492.94464,166.70576 492.68068,166.89541 489.45476,171.90736 C 487.55823,174.8539 486.11052,177.93971 486.23762,178.76471 C 486.36472,179.58971 486.60751,182.96471 486.77716,186.26471 C 487.05221,191.6152 487.32956,192.30017 489.33924,192.59227 C 493.66274,193.22069 492.77254,198.76471 488.34814,198.76471 C 487.03786,198.76471 486.47058,199.48306 486.47058,201.14227 C 486.47058,204.0243 488.40548,205.76765 492.72674,206.77908 C 497.12386,207.80826 499.54004,207.08774 502.28567,203.92853 z M 360.13286,202.51471 C 359.85545,201.82721 359.62847,202.38971 359.62847,203.76471 C 359.62847,205.13971 359.85545,205.70221 360.13286,205.01471 C 360.41027,204.32721 360.41027,203.20221 360.13286,202.51471 z M 359.15991,196.01471 C 358.90838,195.05221 358.70258,195.83971 358.70258,197.76471 C 358.70258,199.68971 358.90838,200.47721 359.15991,199.51471 C 359.41143,198.55221 359.41143,196.97721 359.15991,196.01471 z M 498.40029,196.51471 C 498.36164,194.72721 497.94327,192.36471 497.47058,191.26471 C 496.8394,189.79586 496.59248,190.65899 496.54087,194.51471 C 496.50221,197.40221 496.92058,199.76471 497.47058,199.76471 C 498.02058,199.76471 498.43895,198.30221 498.40029,196.51471 z M 481.47058,196.76471 C 481.47058,196.21471 480.99402,195.76471 480.41156,195.76471 C 479.8291,195.76471 479.63066,196.21471 479.97058,196.76471 C 480.3105,197.31471 480.78706,197.76471 481.0296,197.76471 C 481.27214,197.76471 481.47058,197.31471 481.47058,196.76471 z M 484.07475,194.03554 C 483.74246,193.70325 483.50611,194.29388 483.54953,195.34804 C 483.59751,196.51299 483.83447,196.74994 484.15369,195.95221 C 484.44256,195.23033 484.40704,194.36784 484.07475,194.03554 z M 488.97058,195.76471 C 489.3105,195.21471 488.88706,194.76471 488.0296,194.76471 C 487.17214,194.76471 486.47058,195.21471 486.47058,195.76471 C 486.47058,196.31471 486.89402,196.76471 487.41156,196.76471 C 487.9291,196.76471 488.63066,196.31471 488.97058,195.76471 z M 100.62383,193.68269 C 101.67035,193.12261 102.28768,192.27779 101.99567,191.8053 C 101.70366,191.33282 101.36928,187.40724 101.2526,183.08179 C 101.02101,174.49654 102.05265,170.89935 106.73664,163.95971 C 108.33478,161.59196 109.43146,159.11696 109.17372,158.45971 C 108.91597,157.80246 106.2007,153.78244 103.13977,149.52634 C 100.07885,145.27023 96.676395,139.75773 95.578755,137.27634 C 93.729675,133.09618 91.347455,131.53689 90.040655,133.65135 C 89.739265,134.139 87.889059,134.83883 85.929078,135.20652 C 83.969097,135.57421 82.211663,136.41273 82.023669,137.06988 C 81.835675,137.72704 79.609326,144.92226 77.076225,153.05926 C 71.874035,169.7701 71.35041,175.64865 74.51208,181.84604 C 77.261424,187.2352 83.654,193.46448 87.681997,194.67954 C 91.289945,195.76789 97.641785,195.27864 100.62383,193.68269 z M 477.70527,193.36482 C 478.10935,192.75976 478.44685,191.11143 478.45527,189.70186 C 478.46369,188.2923 479.5698,184.86045 480.91329,182.07553 C 483.34533,177.03416 483.34912,176.97717 481.78226,169.02399 C 480.23793,161.18521 480.13155,160.99823 476.08955,159.01904 C 473.82412,157.90975 469.88326,155.15466 467.33209,152.8966 C 463.34239,149.36529 462.52102,148.99901 461.45965,150.27788 C 460.78097,151.09564 459.83079,151.76471 459.34814,151.76471 C 457.86309,151.76471 458.37632,149.55412 460.16503,148.24619 C 461.74947,147.08761 461.73692,146.82078 459.97165,144.13594 C 458.93335,142.55677 457.82802,139.68971 457.51536,137.76471 C 457.04847,134.89007 456.46909,134.20928 454.2727,133.95446 C 451.83716,133.6719 451.56688,133.98426 451.24431,137.45446 C 450.88559,141.31349 450.16849,140.69121 449.0423,135.54357 C 448.71486,134.04695 447.50982,132.3209 446.36442,131.7079 C 444.64935,130.79002 443.86413,130.98582 441.91435,132.81754 C 439.86871,134.73932 439.62723,135.66871 440.13832,139.65322 C 440.84799,145.18581 439.37499,144.26062 437.61509,138.06836 C 436.59554,134.48106 432.58663,129.74932 430.58572,129.77154 C 429.34467,129.78533 425.47058,136.45407 425.47058,138.57659 C 425.47058,140.24021 426.06605,140.76471 427.9548,140.76471 C 429.32113,140.76471 431.82316,142.00221 433.51489,143.51471 C 437.64253,147.20506 437.80417,152.63297 433.98072,159.15719 L 431.25858,163.80218 L 435.56666,169.53344 C 437.9361,172.68564 441.59616,177.11229 443.70013,179.37045 C 448.45309,184.47173 459.94095,192.47453 465.01463,194.21877 C 469.13764,195.6362 476.52012,195.13943 477.70527,193.36482 z M 484.33894,188.01471 C 484.21293,183.46793 484.17873,183.41445 483.53955,186.76471 C 483.17229,188.68971 483.05467,190.82721 483.27818,191.51471 C 484.07813,193.97533 484.46844,192.6875 484.33894,188.01471 z M 108.86164,184.1901 C 111.91038,179.08845 113.37083,170.48772 112.06908,165.30115 C 111.10941,161.47751 109.89625,162.19533 106.87231,168.37604 C 104.79987,172.61196 104.01319,175.95251 103.66283,182.00468 C 103.11393,191.48653 104.22276,191.95265 108.86164,184.1901 z M 360.27123,175.51471 C 364.11349,165.14014 364.11175,165.4688 360.32013,166.26874 C 358.47788,166.65741 356.5666,167.35449 356.07285,167.8178 C 355.30409,168.53915 357.15728,180.76471 358.03537,180.76471 C 358.1957,180.76471 359.20184,178.40221 360.27123,175.51471 z M 529.48965,176.24173 C 530.52033,174.99984 530.41924,173.97726 528.94193,170.70118 C 526.09375,164.38505 521.53084,166.94195 522.87398,174.10147 C 523.43192,177.07555 523.99997,177.76471 525.89345,177.76471 C 527.17618,177.76471 528.79447,177.07937 529.48965,176.24173 z M 375.05917,169.71102 C 375.4155,166.71555 376.14246,163.43463 376.67464,162.42008 C 377.51881,160.81075 377.34428,160.66564 375.30641,161.28248 C 371.74019,162.36192 371.60182,162.80305 372.71631,169.53945 C 373.28728,172.99056 373.90223,175.6664 374.08287,175.48576 C 374.26351,175.30512 374.70284,172.70648 375.05917,169.71102 z M 488.91585,168.56988 C 490.83997,165.71272 492.27744,163.23824 492.11023,163.07103 C 491.94302,162.90381 489.66981,162.36788 487.05865,161.88007 C 482.51749,161.03169 482.33422,161.08598 482.84302,163.12892 C 483.13558,164.3036 483.67898,167.17721 484.05057,169.51471 C 484.42217,171.85221 484.88173,173.76471 485.07182,173.76471 C 485.26191,173.76471 486.99173,171.42704 488.91585,168.56988 z M 349.43075,165.3127 C 352.11399,162.07959 347.58715,157.21957 344.63873,160.16799 C 343.33637,161.47034 343.36006,161.9471 344.83932,164.20473 C 346.75731,167.13195 347.72676,167.36589 349.43075,165.3127 z M 330.47058,163.31176 C 330.47058,160.54375 328.23886,156.98016 325.81326,155.87498 C 323.26214,154.71262 318.47058,154.35728 318.47058,155.33045 C 318.47058,156.47282 320.77664,160.32634 322.76986,162.51471 C 325.11404,165.08841 330.47058,165.64283 330.47058,163.31176 z M 433.07261,156.17475 C 435.2634,150.93145 434.8579,147.21453 431.83572,144.83729 C 428.58531,142.28052 425.4616,142.1216 425.49503,144.51471 C 425.52988,147.01011 427.32435,154.77855 428.61051,158.002 C 429.90604,161.24893 431.1685,160.73195 433.07261,156.17475 z M 491.64465,151.87034 L 491.31873,143.77875 L 488.14465,146.15566 C 486.39891,147.46297 483.95808,148.84013 482.72058,149.21603 C 480.32603,149.94339 480.11731,150.74834 481.07786,155.55113 C 481.61268,158.22522 482.23916,158.69616 486.32786,159.49774 C 488.88136,159.99834 491.19558,160.30758 491.47058,160.18493 C 491.74558,160.06227 491.82391,156.32071 491.64465,151.87034 z M 506.0927,157.76471 C 506.30054,157.76471 506.47058,157.31471 506.47058,156.76471 C 506.47058,154.95456 503.63141,155.72016 500.77634,158.30019 L 497.97058,160.83566 L 501.8427,159.30019 C 503.97237,158.45567 505.88487,157.76471 506.0927,157.76471 z M 479.07757,156.18292 C 478.74372,155.31294 478.47058,153.73794 478.47058,152.68292 C 478.47058,151.2545 477.76462,150.76471 475.70577,150.76471 C 474.18513,150.76471 471.26013,149.86384 469.20577,148.76277 C 462.23751,145.028 466.44831,150.61865 474.18688,155.37616 C 478.6645,158.1289 479.90269,158.33315 479.07757,156.18292 z M 121.47058,142.25392 C 121.47058,139.57771 117.53425,127.52066 114.93943,122.24886 C 113.58156,119.49014 112.47058,116.94203 112.47058,116.58638 C 112.47058,116.23074 115.95808,113.92519 120.22058,111.46294 C 124.48308,109.00069 130.67058,105.01882 133.97058,102.61434 C 137.27058,100.20986 143.34558,96.043836 147.47058,93.356516 C 156.61573,87.398716 158.52279,86.116866 165.25138,81.405006 C 168.15582,79.371096 173.10582,76.316886 176.25138,74.617876 C 179.39694,72.918866 186.24558,68.725906 191.47058,65.300206 C 196.69558,61.874496 203.37915,57.628396 206.32296,55.864426 C 209.26677,54.100456 217.92701,48.068896 225.56795,42.460956 C 236.02577,34.785626 238.94916,32.183316 237.3921,31.935526 C 234.51445,31.477576 228.432,34.077326 222.63181,38.244336 C 219.93676,40.180546 217.49396,41.764706 217.20335,41.764706 C 216.91275,41.764706 213.8165,43.477306 210.32278,45.570486 C 196.54688,53.824006 189.48138,56.601816 175.86433,59.117906 C 168.66516,60.448126 160.65097,62.476016 158.05504,63.624326 C 154.79375,65.066946 148.47249,70.433006 137.59998,80.988426 C 122.24745,95.893226 111.73061,105.00162 106.98454,107.50376 C 105.57884,108.24484 104.36225,110.05335 103.95738,112.00376 C 103.2506,115.40852 98.292905,125.06173 95.781185,127.92378 C 94.500675,129.38289 94.541485,129.98553 96.119785,132.92378 C 97.106815,134.76129 98.377025,137.40698 98.942485,138.80308 C 99.507935,140.19919 102.38605,144.75531 105.33829,148.92779 L 110.706,156.51412 L 116.08829,150.16953 C 119.04855,146.68 121.47058,143.11798 121.47058,142.25392 z M 476.67307,146.15112 C 475.99956,141.8806 475.6521,141.72506 471.82708,143.98188 L 468.1113,146.17424 L 470.99156,147.35155 C 474.86084,148.93312 477.03924,148.47285 476.67307,146.15112 z M 485.50382,145.24786 C 490.5497,142.69092 491.5581,140.91216 489.11245,138.88245 C 487.17479,137.27434 478.47058,140.55924 478.47058,142.89862 C 478.47058,144.81806 479.46382,147.76471 480.11081,147.76471 C 480.34525,147.76471 482.77211,146.63213 485.50382,145.24786 z M 524.45527,144.45569 C 524.46369,144.01073 524.02058,143.92479 523.47058,144.26471 C 522.92058,144.60463 522.47747,145.64369 522.48589,146.57373 C 522.49909,148.031 522.63518,148.0574 523.47058,146.76471 C 524.00374,145.93971 524.44685,144.90065 524.45527,144.45569 z M 471.97175,142.06276 C 475.20934,140.51886 475.4801,140.07775 474.88737,137.31276 C 473.44742,130.59565 470.4982,128.86674 467.02557,132.70395 C 464.42688,135.57546 464.77494,143.76471 467.49567,143.76471 C 467.99455,143.76471 470.00879,142.99883 471.97175,142.06276 z M 89.641845,131.10972 C 91.631095,129.30948 92.064885,126.25004 90.470585,125.26471 C 89.920585,124.92479 89.470585,122.79479 89.470585,120.53138 L 89.470585,116.41608 L 86.878767,118.8404 C 83.070462,122.40257 82.363616,124.24354 83.081204,128.73109 C 83.590524,131.9162 84.156063,132.76471 85.769657,132.76471 C 86.893555,132.76471 88.636041,132.01997 89.641845,131.10972 z M 70.001105,123.7057 C 71.783836,120.25828 71.251581,118.76471 68.240313,118.76471 C 65.19798,118.76471 62.470589,121.63483 62.470589,124.83636 C 62.470589,129.83732 67.197314,129.12763 70.001105,123.7057 z M 306.16729,124.40384 L 309.83463,121.04298 L 307.72956,118.36682 L 305.6245,115.69067 L 302.09538,118.78928 C 298.44412,121.99513 296.88334,125.00552 297.96505,126.75576 C 299.16662,128.69994 302.53261,127.73478 306.16729,124.40384 z M 99.520085,117.55455 C 100.59285,115.51396 101.47058,112.9301 101.47058,111.81265 C 101.47058,109.83017 101.36752,109.82092 97.220585,111.4311 C 90.798935,113.9245 90.621355,114.18057 91.605605,119.52795 C 93.232235,128.36543 93.927765,128.19201 99.520085,117.55455 z M 318.90859,116.88459 C 319.72774,115.30052 321.5793,112.60052 323.02316,110.88459 C 325.86731,107.50451 325.46744,107.17264 320.59654,108.87065 C 318.30154,109.67069 316.8773,111.17678 315.44731,114.31578 C 313.01178,119.66212 313.01173,119.76471 315.4449,119.76471 C 316.60891,119.76471 318.03049,118.58264 318.90859,116.88459 z M 331.95418,116.77254 C 341.6267,112.15627 348.58693,103.17454 343.88879,101.3717 C 340.53834,100.08601 337.22737,100.88466 333.14266,103.96383 C 328.92228,107.14527 322.04614,115.10124 320.87168,118.16184 C 319.86968,120.77301 324.89084,120.14356 331.95418,116.77254 z M 312.9449,114.81437 C 313.78402,113.19168 314.47058,111.65881 314.47058,111.40799 C 314.47058,110.6293 311.06649,111.82031 309.0722,113.29676 C 307.50221,114.45907 307.39365,114.96709 308.44464,116.23345 C 310.27757,118.442 311.22317,118.14383 312.9449,114.81437 z M 102.24307,103.6478 C 102.41032,101.57133 101.7191,98.974926 100.45335,96.925226 C 98.713375,94.107556 98.152665,93.783666 96.864925,94.852396 C 94.400125,96.898006 92.629135,101.08883 91.896905,106.6086 L 91.212855,111.76526 L 96.591715,109.39807 C 101.43417,107.26695 101.99775,106.69351 102.24307,103.6478 z M 311.84346,109.71792 C 316.15098,107.81249 316.46952,107.41534 316.45527,103.96792 C 316.432,98.339926 315.25582,97.086606 312.15404,99.384606 C 309.69416,101.20706 305.47058,108.30988 305.47058,110.62424 C 305.47058,112.21658 306.538,112.06477 311.84346,109.71792 z M 67.200442,106.54543 C 70.454818,105.36864 70.549054,105.18573 69.905311,101.29543 C 69.538472,99.078536 68.842661,96.510666 68.359065,95.589056 C 67.547837,94.043066 67.22796,94.036356 64.225195,95.502396 C 60.415733,97.362286 51.470589,104.5734 51.470589,105.7845 C 51.470589,107.82239 62.229747,108.34286 67.200442,106.54543 z M 55.648458,98.209456 C 58.958624,95.692056 62.734189,93.146096 64.038602,92.551766 C 66.318553,91.512946 66.348184,91.366076 64.804884,88.753476 C 62.769671,85.308136 58.500802,82.764706 54.753388,82.764706 C 49.350235,82.764706 43.75429,91.063586 45.027451,97.188426 C 45.831061,101.05439 48.670068,105.66627 49.223756,104.00521 C 49.447176,103.33495 52.338291,100.72687 55.648458,98.209456 z M 79.765165,100.35297 C 85.005898,97.000506 90.470585,91.053986 90.470585,88.703616 C 90.470585,87.120726 83.865679,88.166116 76.1461,90.970826 C 71.095588,92.805806 70.403122,93.364576 70.93502,95.175856 C 71.272395,96.324726 71.814794,98.727206 72.140352,100.51471 C 72.465909,102.30221 73.114657,103.76471 73.582014,103.76471 C 74.049371,103.76471 76.831789,102.22943 79.765165,100.35297 z M 69.74287,32.541076 C 79.508391,24.174976 93.470585,11.531896 93.470585,11.055106 C 93.470585,10.788696 91.783085,11.980546 89.720585,13.703666 C 87.658089,15.426796 83.720589,18.575726 80.970589,20.701306 C 78.220589,22.826876 73.045589,27.636396 69.470589,31.389116 C 65.895589,35.141846 63.371222,37.898426 63.860883,37.514856 C 64.350545,37.131286 66.997439,34.893086 69.74287,32.541076 z M 537.0018,175.47158 C 536.57374,174.48536 536.5041,173.39786 536.84704,173.05492 C 537.86253,172.03942 538.68113,173.46586 538.21374,175.43644 C 537.79939,177.18339 537.74548,177.18495 537.0018,175.47158 z M 552.22058,170.29518 C 549.33768,166.33047 550.16288,164.27128 553.44447,167.24108 C 554.89596,168.55466 555.49798,168.43061 558.90411,166.11608 C 563.55023,162.95897 566.71392,162.82917 570.51538,165.63971 C 574.3113,168.44616 575.41179,168.34028 581.4481,164.5879 C 586.65808,161.3492 588.08511,161.11449 598.97058,161.70587 C 602.27058,161.88515 609.39533,161.2786 614.80336,160.35798 C 624.57191,158.69506 636.47058,158.9864 636.47058,160.88849 C 636.47058,161.36449 632.75808,161.70093 628.22058,161.63612 C 623.68308,161.57132 617.04558,162.06948 613.47058,162.74314 C 607.15469,163.93329 595.65435,164.17373 592.32589,163.18523 C 590.83341,162.74199 584.51338,165.32417 577.15111,169.38521 C 574.48002,170.85859 574.13513,170.80425 570.59736,168.35257 C 568.54351,166.92925 566.21227,165.76639 565.41683,165.76845 C 563.52565,165.77334 557.19525,169.6193 556.17089,171.38572 C 555.05908,173.30293 554.24403,173.07792 552.22058,170.29518 z M 541.13725,171.09804 C 539.98661,169.94741 540.40901,168.76471 541.97058,168.76471 C 542.79558,168.76471 543.47058,169.43971 543.47058,170.26471 C 543.47058,171.82628 542.28788,172.24868 541.13725,171.09804 z M 534.13725,166.09804 C 532.91932,164.88011 533.44817,162.76471 534.97058,162.76471 C 535.80391,162.76471 536.47058,163.6536 536.47058,164.76471 C 536.47058,166.75695 535.40504,167.36583 534.13725,166.09804 z M 335.47058,162.70569 C 335.47058,161.57323 335.92058,160.92479 336.47058,161.26471 C 337.02058,161.60463 337.47058,162.53119 337.47058,163.32373 C 337.47058,164.11627 337.02058,164.76471 336.47058,164.76471 C 335.92058,164.76471 335.47058,163.83815 335.47058,162.70569 z M 335.16443,156.12523 C 334.81272,155.77352 334.76881,155.09118 335.06686,154.60892 C 335.70605,153.5747 337.47058,154.46647 337.47058,155.82373 C 337.47058,156.89882 336.11522,157.07602 335.16443,156.12523 z M 33.470589,121.26471 C 33.470589,120.43971 33.920589,119.76471 34.470589,119.76471 C 35.020589,119.76471 35.470589,120.43971 35.470589,121.26471 C 35.470589,122.08971 35.020589,122.76471 34.470589,122.76471 C 33.920589,122.76471 33.470589,122.08971 33.470589,121.26471 z M 21.470589,115.26471 C 21.470589,114.43971 21.920589,113.76471 22.470589,113.76471 C 23.020589,113.76471 23.470589,114.43971 23.470589,115.26471 C 23.470589,116.08971 23.020589,116.76471 22.470589,116.76471 C 21.920589,116.76471 21.470589,116.08971 21.470589,115.26471 z M 4.4705887,88.264706 C 4.4705887,87.439706 4.9205887,86.764706 5.4705887,86.764706 C 6.0205887,86.764706 6.4705887,87.439706 6.4705887,88.264706 C 6.4705887,89.089706 6.0205887,89.764706 5.4705887,89.764706 C 4.9205887,89.764706 4.4705887,89.089706 4.4705887,88.264706 z M 5.0018077,82.471576 C 4.5737447,81.485356 4.5041037,80.397856 4.8470497,80.054916 C 5.8625417,79.039416 6.6811377,80.465856 6.2137437,82.436436 C 5.7993937,84.183386 5.7454847,84.184946 5.0018077,82.471576 z"
     id="path2384"
     style="fill:#000000" />
</svg>
