<?xml version="1.0" encoding="UTF-8" standalone="no"?>
<!-- Created with Inkscape (http://www.inkscape.org/) -->
<svg
   xmlns:dc="http://purl.org/dc/elements/1.1/"
   xmlns:cc="http://creativecommons.org/ns#"
   xmlns:rdf="http://www.w3.org/1999/02/22-rdf-syntax-ns#"
   xmlns:svg="http://www.w3.org/2000/svg"
   xmlns="http://www.w3.org/2000/svg"
   xmlns:sodipodi="http://sodipodi.sourceforge.net/DTD/sodipodi-0.dtd"
   xmlns:inkscape="http://www.inkscape.org/namespaces/inkscape"
   id="svg2"
   sodipodi:version="0.32"
   inkscape:version="0.46"
   width="354"
   height="130"
   version="1.0"
   sodipodi:docname="Taylor Swift logo.svg"
   inkscape:output_extension="org.inkscape.output.svg.inkscape">
  <metadata
     id="metadata7">
    <rdf:RDF>
      <cc:Work
         rdf:about="">
        <dc:format>image/svg+xml</dc:format>
        <dc:type
           rdf:resource="http://purl.org/dc/dcmitype/StillImage" />
      </cc:Work>
    </rdf:RDF>
  </metadata>
  <defs
     id="defs5">
    <inkscape:perspective
       sodipodi:type="inkscape:persp3d"
       inkscape:vp_x="0 : 526.18109 : 1"
       inkscape:vp_y="0 : 1000 : 0"
       inkscape:vp_z="744.09448 : 526.18109 : 1"
       inkscape:persp3d-origin="372.04724 : 350.78739 : 1"
       id="perspective9" />
  </defs>
  <sodipodi:namedview
     inkscape:window-height="997"
     inkscape:window-width="1680"
     inkscape:pageshadow="2"
     inkscape:pageopacity="0.0"
     guidetolerance="10.0"
     gridtolerance="10.0"
     objecttolerance="10.0"
     borderopacity="1.0"
     bordercolor="#666666"
     pagecolor="#ffffff"
     id="base"
     showgrid="false"
     showguides="true"
     inkscape:guide-bbox="true"
     inkscape:zoom="2.005652"
     inkscape:cx="262.29065"
     inkscape:cy="73.668326"
     inkscape:window-x="-4"
     inkscape:window-y="-4"
     inkscape:current-layer="svg2" />
  <path
     style="fill:#000000"
     d="M 70.692138,118.94616 C 63.827705,112.08172 70.24513,91.624717 83.709548,77.450174 C 89.253808,71.613514 90.636358,69.532554 90.636358,67.024214 C 90.636358,63.394124 89.676768,63.083254 87.136358,65.890374 C 84.785938,68.487574 81.636358,68.521364 81.636358,65.949394 C 81.636358,62.913694 80.054322,62.664023 75.582918,64.917644 C 69.833596,67.815345 66.499842,65.487236 66.120763,65.644623 C 65.235819,66.012037 60.807296,68.018734 59.775861,68.346104 C 56.679574,69.328824 52.635864,67.242884 52.6401,64.665134 C 52.647117,60.394844 56.219107,56.079824 60.759014,54.857354 C 66.420899,53.332764 69.636362,54.741454 69.636362,58.746494 C 69.636362,63.362284 71.626458,64.252204 76.896698,61.993114 C 80.817808,60.312324 81.746088,60.234664 83.991468,61.399584 C 85.960698,62.421234 87.260318,62.481134 89.458148,61.651544 C 93.287358,60.206184 95.636358,61.235574 95.636358,64.358994 C 95.636358,65.751254 95.973858,66.883484 96.386358,66.875064 C 98.577568,66.830324 99.144738,64.438954 99.228768,54.890374 C 99.366658,39.221544 103.24349,26.603206 110.67335,17.640379 C 113.14809,14.655039 114.47363,13.890379 117.17398,13.890379 C 119.50411,13.890379 120.89006,14.495907 121.60118,15.824637 C 125.13604,22.429593 118.26556,45.080604 108.28054,59.740864 C 106.27625,62.683634 104.63636,65.930474 104.63636,66.956074 C 104.63636,67.981664 106.03298,70.411444 107.73995,72.355584 C 110.29548,75.266164 111.53162,75.890374 114.73995,75.890374 C 119.40155,75.890374 119.89697,77.388254 115.52459,78.262734 C 110.39539,79.288574 103.86809,75.794674 101.82441,70.929374 C 100.89598,68.719114 99.831519,66.906144 99.458938,66.900554 C 99.086358,66.894954 97.848858,68.076064 96.708938,69.525234 C 95.159468,71.495074 94.636358,73.607354 94.636358,77.894244 C 94.636358,85.707844 92.148558,99.373959 89.435588,106.46339 C 86.473728,114.2032 80.156988,120.89038 75.807778,120.89038 C 74.000018,120.89038 71.800378,120.05439 70.692138,118.94616 z M 80.419128,115.48501 C 82.128688,113.53793 84.508448,108.72031 85.976298,104.23501 C 89.642278,93.032857 91.991878,74.271874 89.630258,75.059084 C 89.076898,75.243534 85.954578,78.959324 82.691758,83.316394 C 75.370578,93.092907 70.975968,105.05561 71.989418,112.44955 C 72.336698,114.98323 72.875888,117.46892 73.187618,117.97331 C 74.358308,119.86753 77.529208,118.77645 80.419128,115.48501 z M 62.605362,61.246923 C 62.397076,58.282852 66.13327,58.15384 64.043971,57.216554 C 60.856747,55.786725 56.630887,60.827774 57.973518,64.326604 C 59.029978,67.079704 62.87882,65.138441 62.605362,61.246923 z M 110.56737,50.390374 C 115.2316,40.755564 117.80499,31.94777 118.38296,23.640379 C 118.84027,17.067155 118.68618,15.890379 117.36815,15.890379 C 111.99982,15.890379 104.97101,33.709302 103.10033,52.061114 C 101.9292,63.550044 104.47221,62.981054 110.56737,50.390374 z M 264.42683,98.675279 C 260.44893,93.448777 255.25164,83.798889 255.25164,81.557919 C 255.25164,79.625239 261.82728,76.864633 264.87159,76.479918 C 264.39057,72.917648 264.96242,69.142227 264.34217,65.685426 C 256.98795,70.716601 244.27764,67.622574 239.93575,63.280684 C 236.95875,60.303674 234.72735,60.773474 232.29619,64.889094 C 230.15751,68.509584 226.28528,68.913324 223.74834,65.780334 L 222.03973,63.670294 L 218.10286,65.780334 C 215.93757,66.940864 213.43752,67.890374 212.54719,67.890374 C 209.89648,67.890374 205.63636,63.245134 205.63636,60.354794 C 205.63636,57.068224 207.64054,57.520954 209.44093,61.214224 C 211.08545,64.587764 214.08235,64.665544 216.22832,61.390374 C 218.39694,58.080634 221.9341,58.155324 224.41662,61.563274 L 226.36368,64.236164 L 228.11503,61.563274 C 229.5159,59.425284 230.64385,58.890374 233.75137,58.890374 C 236.49199,58.890374 237.63636,58.460014 237.63636,57.429334 C 237.63636,56.572729 238.31108,54.534443 239.63942,53.313156 C 240.96776,52.091869 242.94972,51.687581 243.81046,51.687581 C 244.61622,51.687581 242.95424,53.66488 242.63415,56.54596 C 242.229,60.19264 243.82649,60.745274 246.12431,62.890374 C 248.36109,64.978514 249.76596,65.384794 254.65181,65.356464 C 262.55321,65.310644 264.37979,62.771412 264.37979,62.746149 L 264.63636,51.186034 L 257.98143,50.083274 C 250.66895,48.871554 248.51155,47.615184 250.43701,45.689724 C 251.37122,44.755524 252.2377,45.306208 254.95801,45.689724 C 262.42993,46.743135 263.66346,46.527615 264.42432,46.521763 C 264.42432,40.425917 276.73438,19.890379 281.10406,19.890379 C 285.1029,19.890379 284.90075,27.995712 280.58937,40.526954 C 279.51521,43.649044 278.53,46.838128 278.73899,46.841668 C 279.31355,46.851401 284.24934,46.966722 286.15499,46.966722 C 286.25797,46.915408 286.3245,47.415054 289.19066,38.890374 C 291.39188,32.343416 292.25675,31.11077 293.66268,32.516704 C 294.36445,33.21847 294.0523,35.574411 292.67559,39.966704 C 291.5682,43.499724 290.55373,46.792682 290.54663,46.845362 C 290.53954,46.898042 299.74886,46.867214 310.88636,47.215864 C 332.51649,47.892984 343.24653,49.064454 345.03083,50.943644 C 345.86658,51.823844 345.16026,51.962394 342.13636,51.511404 C 339.93636,51.183294 327.60304,50.61908 314.72898,50.257594 C 301.28532,49.880115 293.53062,50.603992 290.00919,50.929365 C 289.9771,50.946855 288.63636,53.849939 288.63636,58.446654 C 288.63636,67.117654 293.75857,71.294794 299.47852,67.288384 C 302.59137,65.108054 303.72589,66.584594 300.77558,68.976454 C 299.40886,70.084474 296.87083,70.890374 294.74808,70.890374 C 287.39986,70.890374 283.433,65.260834 284.37179,56.164924 L 284.91617,50.890374 L 277.06176,50.736432 C 277.05501,50.685118 273.59925,58.311588 268.56267,62.751501 C 268.45863,62.843217 268.63636,63.683874 268.63636,69.583784 L 268.7133,75.895408 L 271.38636,75.518404 C 276.75654,74.481714 287.14112,74.399894 287.63636,75.390374 C 287.92392,75.965504 285.79954,76.641794 282.63636,76.982104 C 279.61136,77.307554 275.46343,77.887714 273.41874,78.271344 L 269.08559,78.968854 L 269.41874,90.098137 C 269.24117,97.096659 268.72634,101.36341 268.03167,101.5938 C 267.42409,101.79531 265.80191,100.48198 264.42683,98.675279 z M 265.02229,79.935408 C 264.89048,79.92899 264.15441,79.968354 261.86394,80.517634 C 260.36377,80.877384 258.94818,81.564933 258.71819,81.763393 C 258.24238,82.173953 260.14924,85.873494 263.119,90.603437 L 265.13636,93.816497 L 265.44865,89.169707 C 265.62042,86.613974 265.34389,81.216738 265.02229,79.935408 z M 272.16915,53.826964 C 273.60783,51.044864 273.27328,51.146944 273.25278,51.198258 C 272.13866,51.198258 269.47628,51.093676 269.52008,51.114094 C 269.20469,52.51999 268.55858,57.973121 268.34941,59.593989 C 268.3046,59.94121 270.13186,57.766644 272.16915,53.826964 z M 275.8362,46.595885 C 281.56166,31.945119 281.7779,21.748032 276.12731,28.183699 C 274.04723,30.552771 272.77402,33.191371 271.66864,38.051395 C 269.45559,47.781399 269.83285,46.318482 269.77438,46.400978 C 272.18524,46.687215 275.54933,46.703394 275.8362,46.595885 z M 182.87638,89.724847 C 177.77073,87.248904 176.63746,84.208294 178.98529,79.284854 C 180.79349,75.493024 182.72894,75.066564 188.0464,77.288344 C 191.98422,78.933674 192.87898,80.094554 191.99162,82.406964 C 191.49378,83.704324 190.55089,83.975914 187.98838,83.560074 C 186.14477,83.260904 184.63636,83.389684 184.63636,83.846264 C 184.63636,86.622194 195.86914,86.657594 198.63636,83.890374 C 201.08831,81.438424 201.12791,80.155694 198.85792,76.713764 C 196.65575,73.374674 194.51819,71.748754 182.63636,64.374944 C 169.02949,55.930574 166.88407,54.040874 163.98417,47.945894 C 156.02307,31.213379 170.42681,9.9425343 191.68736,7.0349713 C 210.14728,4.5104206 224.51403,17.602642 222.14952,34.794713 C 221.42455,40.065874 218.41697,44.070994 216.57035,42.224364 C 215.87868,41.532694 216.0468,40.794634 217.09398,39.925554 C 220.6646,36.962203 217.74878,25.642529 211.86094,19.610058 C 198.33077,5.7475363 168.74074,14.954271 166.14404,33.834556 C 164.81856,43.471904 169.87227,50.141514 185.13636,58.899574 C 200.96843,67.983524 203.63636,70.926584 203.63636,79.307384 C 203.63636,83.106454 203.09871,84.361364 200.25094,87.209124 C 195.19392,92.266147 189.74403,93.055257 182.87638,89.724847 z M 43.025258,84.461444 C 42.688572,83.584054 42.593499,71.734134 42.813985,58.128284 C 43.215163,33.372213 43.96011,28.160809 46.954066,29.165657 C 48.216839,29.589476 48.37622,37.282813 47.632015,61.890374 C 47.313594,72.419154 47.537636,75.878314 48.649965,77.607344 C 49.922959,79.586114 49.858008,80.116544 48.045432,82.544294 C 45.539797,85.900314 43.828227,86.553944 43.025258,84.461444 z M 142.30303,71.223714 C 141.93636,70.857044 141.63636,68.598474 141.63636,66.204664 C 141.63636,62.197254 141.45802,61.895204 139.38636,62.393914 C 138.14886,62.691814 134.21136,63.555324 130.63636,64.312824 C 127.06136,65.070334 124.6264,63.285502 123.52711,64.965973 C 120.6407,69.378376 114.39168,70.115504 112.07421,68.441614 C 109.09664,66.290937 108.98795,64.447884 112.02463,61.411194 C 115.57656,57.859264 121.15964,57.093894 124.00673,59.768594 C 125.64507,61.307734 127.55192,61.890374 130.95081,61.890374 C 135.31408,61.890374 135.63636,61.713904 135.63636,59.324634 C 135.63636,56.108144 137.42685,52.642864 138.68653,53.421384 C 139.20894,53.744254 139.63636,54.898884 139.63636,55.987244 C 139.63636,57.549084 140.21586,57.905424 142.38636,57.678224 C 145.03946,57.400524 145.1403,57.563464 145.2481,62.302694 C 145.32583,65.719494 145.88909,67.602004 147.09824,68.486164 C 148.05436,69.185294 148.54002,70.237254 148.17748,70.823844 C 147.45099,71.999324 143.35729,72.277974 142.30303,71.223714 z M 120.41513,64.818654 C 120.58632,63.919424 119.61356,62.745394 118.14163,62.074734 C 116.02853,61.111944 115.46651,61.169414 114.99565,62.396454 C 114.68035,63.218114 114.69352,64.596944 115.0249,65.460514 C 115.79223,67.460134 120.00784,66.958154 120.41513,64.818654 z M 8.7364772,31.590494 C 8.1314132,30.985431 7.6363612,29.463952 7.6363612,28.209431 C 7.6363612,26.51756 8.3465762,25.790237 10.386362,25.393184 C 14.881662,24.518156 19.49965,23.336937 31.636362,19.957722 C 48.412906,15.286641 72.089248,10.996389 88.410458,9.6700183 C 101.2792,8.6242193 102.84603,8.6714763 104.32456,10.150006 C 105.6551,11.480543 105.72892,12.073923 104.7158,13.29466 C 103.73711,14.473915 102.08208,14.669987 97.062948,14.201293 C 83.060318,12.893708 48.433594,19.660709 19.986477,29.264126 C 12.604098,31.756332 9.536631,32.390648 8.7364772,31.590494 z M 245.99502,29.382659 C 245.30918,27.595365 248.1498,22.890379 249.91472,22.890379 C 251.15818,22.890379 249.81298,25.12693 251.03594,26.560851 C 252.09959,27.807977 253.40488,29.744901 252.81632,30.377082 C 251.69541,31.581071 246.53676,30.7944 245.99502,29.382659 z"
     id="path2384"
     sodipodi:nodetypes="cssssscssssssssssssssssssssssssccsssssccssscsssccsccsscccsssscccssssssscccsscscccsssssssscsssscccscccsscccsccsscccccccsccsscccssssssssssssssssssccsssssccsssssssssssssssccsssccssssssssccsssc" />
</svg>
