<?xml version="1.0" encoding="UTF-8"?>
<svg version="1.0" xmlns="http://www.w3.org/2000/svg" width="151" height="37" >
<path d="M22.345,9.806c-0.626,0.751-0.894,1.925-1.219,2.815c-0.979,2.678-1.765,5.101-3.26,7.54 c-1.399,2.284-10.708,15.199-12.641,8.646c-0.097-0.328-1.541,0.077-1.449,0.389c1.668,5.65,8.054-0.11,10.137-2.28 c2.51-2.613,4.673-5.646,6.433-8.806c1.402-2.518,1.523-6.271,3.31-8.414C23.947,9.344,22.563,9.543,22.345,9.806L22.345,9.806z"/>
<path d="M28.965,12.686c-4.108-0.167-6.465,6.005-7.67,8.83c-0.274,0.642-4.649,10.878-0.485,8.024 c0.615-0.422-0.843-0.27-1.119-0.08c0.753-0.516,0.609,0.126,0.588-0.626c-0.016-0.547,0.184-1.157,0.316-1.683 c0.413-1.645,1.069-3.237,1.693-4.81c0.822-2.071,1.736-4.087,2.894-5.993c0.383-0.63,2.099-3.064,2.854-3.034 C28.366,13.328,29.703,12.715,28.965,12.686L28.965,12.686z"/>
<path d="M17.068,12.235c-1.178,0.118-2.343,0.072-3.503-0.189c-4.784-1.075,1.668-4.404,2.569-4.606 C21.1,6.326,26.638,6.77,31.682,6.765c3.013-0.003,7.001,0.384,9.877-0.89c0.448-0.199,1.417-1.112,1.373-1.11 c0.809-0.039,1.126-1.077,0.137-1.029c-1.617,0.077-2.384,1.468-4.23,1.714c-7.313,0.972-14.828-0.4-22.123,0.883 c-2.773,0.488-5.644,1.372-6.049,4.517c-0.348,2.697,4.745,2.568,6.266,2.416C17.729,13.185,18.059,12.136,17.068,12.235 L17.068,12.235z"/>
<path d="M28.326,28.528c0.629,0.465,1.346,0.825,2.138,0.865c0.317,0.016,0.763-0.121,0.958-0.388 c0.208-0.283-0.176-0.386-0.385-0.397c-0.472-0.023-0.99-0.36-1.362-0.635c-0.267-0.197-0.671-0.116-0.955,0 C28.599,28.022,28.06,28.331,28.326,28.528L28.326,28.528z"/>
<path d="M40.486,13.228c3.206,0.406,6.524,0.261,9.57-0.855c-0.301-0.182-0.601-0.364-0.902-0.545 c-3.938,3.349-8.188,7.545-9.924,12.515c-1.924,5.509,3.724,7.469,7.737,5.19c0.852-0.484-0.389-0.873-0.935-0.563 c-2.47,1.403-4.729,0.624-5.558-2.163c-0.677-2.273,1.209-4.939,2.414-6.689c2.037-2.959,4.725-5.619,7.458-7.943 c0.644-0.547-0.583-0.663-0.902-0.545c-2.663,0.975-5.639,0.999-8.43,0.645C40.367,12.19,39.508,13.104,40.486,13.228 L40.486,13.228z"/>
<path d="M59.426,21.227c-3.806-4.246-13.603,6.52-10.844,9.121c3.088,2.913,10.557-7.905,11.838-9.603 c-0.446,0.003-0.893,0.006-1.339,0.009c-0.502,0.743-4.496,6.149-2.138,6.12c3.217-0.041,7.288-3.184,9.998-4.693 c-0.338-0.09-0.676-0.181-1.014-0.272c-0.794,0.733-6.681,6.355-3.827,6.809c3.159,0.502,7.343-3.803,9.473-5.626 c-0.414-0.029-0.828-0.058-1.243-0.087c-0.823,0.859-2.222,2.369-0.663,3.076c0.392,0.178,1.725-0.407,1.164-0.661 c-1.053-0.478,0.513-2.086,0.837-2.424c0.416-0.435-0.998-0.297-1.243-0.087c-1.796,1.537-3.677,2.99-5.682,4.244 c-2.985,1.867-0.818-1.764-0.011-2.692c0.727-0.836,1.526-1.618,2.339-2.369c0.613-0.565-0.741-0.424-1.014-0.272 c-2.331,1.298-4.688,2.559-7.109,3.681c-2.878,1.333,0.691-3.604,1.469-4.754c0.357-0.529-1.093-0.317-1.339,0.009 c-1.625,2.155-3.365,4.226-5.21,6.196c-1.056,1.127-5.162,4.84-3.836,0.729c0.67-2.077,5.605-8.624,8.04-5.907 C58.383,22.117,59.762,21.602,59.426,21.227L59.426,21.227z"/>
<path d="M71.32,15.507c2.878,1.879,6.598,2.039,9.294-0.209c0.921-0.768,2.801-1.663,3.235-2.867 c0.405-1.124-3.509-1.222-3.888-1.255c-0.348-0.031-1.679,0.582-0.924,0.648c0.424,0.038,3.455,0.083,3.377,0.841 c-0.069,0.676-1.583,1.478-2.059,1.844c-0.519,0.399-1.016,0.824-1.534,1.223c-1.088,0.84-2.521,0.65-3.744,0.326 c-0.836-0.222-1.673-0.593-2.398-1.066C72.312,14.752,71.058,15.336,71.32,15.507L71.32,15.507z"/>
<path d="M78.275,20.444c0.518,3.028-2.333,5.906-4.368,7.645c0.395,0.107,0.79,0.215,1.185,0.322 c1.27-1.34,12.203-11.607,12.683-10.467c0.241,0.57,1.672,0.14,1.449-0.389c-1.655-3.923-13.875,9.012-15.317,10.533 c-0.636,0.671,0.808,0.645,1.185,0.322c2.247-1.919,5.197-5.051,4.632-8.355C79.626,19.48,78.172,19.838,78.275,20.444 L78.275,20.444z"/>
<path d="M82.718,27.385c2.699-5.022,6.315-4.71,11.062-6.5c2.257-0.851,9.357-3.277,8.945-6.579 c-0.304-2.431-5.465,1.502-5.774,1.775c-1.334,1.172-10.047,8.985-6.268,11.199c0.334,0.195,0.961,0.025,1.243-0.205 c2.371-1.928,0.305-6.85,6.297-5.838c2.538,0.429,5.167,0.31,7.688,0.818c0.371,0.075,1.646-0.515,1.178-0.609 c-3.371-0.679-8.957-2.054-12.193-0.378c-1.001,0.518-1.5,1.185-2.215,2.01c-0.327,0.376-2.353,5.171-1.089,0.888 c0.733-2.483,3.475-4.885,5.258-6.652c0.257-0.254,3.798-3.713,4.426-2.619c0.806,1.402-2.894,3.311-3.647,3.745 c-2.555,1.472-6.853,3.769-9.917,3.481c-3.123-0.292-5.18,3.371-6.429,5.694C81.133,27.893,82.507,27.777,82.718,27.385 L82.718,27.385z"/>
<path d="M102.182,21.426c-1.624,1.137-5.299,5.344-1.114,5.38c3.261,0.028,8.037-2.328,10.099-4.823 c0.36-0.436-1.073-0.279-1.332,0.034c-1.711,2.071-5.092,3.542-7.671,4.024c-2.112,0.395-1.774-1.497-0.865-2.655 c0.554-0.704,1.289-1.3,2.021-1.813C103.958,21.126,102.496,21.206,102.182,21.426L102.182,21.426z"/>
<path d="M117.576,16.737c-1.952,3.858-4.745,7.491-8.156,10.147c0.387,0.077,0.773,0.154,1.16,0.23 c1.451-1.289,2.919-2.561,4.395-3.822c2.027-1.732,4.11-3.811,6.474-5.083c0.86-0.462-0.43-0.672-0.896-0.421 c-2.199,1.183-4.129,3.066-6.023,4.666c-1.722,1.454-3.423,2.933-5.108,4.429c-0.646,0.573,0.824,0.492,1.16,0.23 c3.483-2.712,6.353-6.416,8.344-10.353C119.235,16.146,117.787,16.321,117.576,16.737L117.576,16.737z"/>
<path d="M126.246,20.705c-2.647-0.241-5.147,1.533-6.339,3.835c-1.393,2.69,6.587-1.947,6.578-1.941 c-0.394-0.147-0.787-0.295-1.181-0.443c-3.209,6.289,6.98,0.101,8.742-0.571c-0.218-0.298-0.436-0.597-0.653-0.896 c-1.523,0.779-3.366,3.201-1.058,4.064c2.213,0.827,6.463-0.96,8.024-2.524c-0.407-0.153-0.813-0.305-1.221-0.458 c-0.823,0.853-3.227,3.966-0.448,4.03c3.324,0.077,7.036-1.853,7.544-5.35c0.11-0.76-1.372-0.581-1.471,0.099 c-0.401,2.761-2.917,3.863-5.281,4.165c-1.267,0.162,0.753-2.357,0.877-2.485c0.644-0.667-0.752-0.928-1.221-0.458 c-0.793,0.756-1.739,1.222-2.841,1.398c-0.359,0.082-0.718,0.164-1.077,0.246c-2.005,0.829-2.396,0.218-1.175-1.831 c0.907-0.464,0.092-1.18-0.653-0.896c-1.083,0.414-2.126,0.993-3.174,1.487c-0.828,0.39-4.827,2.72-3.524,0.167 c0.372-0.728-0.846-0.662-1.181-0.443c-7.224,4.716-2.537-0.358,0.239-0.106C126.486,21.862,127.226,20.794,126.246,20.705 L126.246,20.705z"/>
<path d="M126.32,16.446c0.304,0.057,0.609,0.148,0.886,0.286c0.551,0.274,0.63,0.644,0.199,1.096 c-0.224,0.234-0.146,0.528,0.165,0.618c0.34,0.098,0.78-0.018,1.024-0.274c0.626-0.656,0.809-1.399,0.062-2.017 c-0.396-0.326-0.978-0.509-1.477-0.602c-0.358-0.067-0.761,0-1.024,0.274C125.948,16.043,125.992,16.385,126.32,16.446 L126.32,16.446z"/>
</svg>