<?xml version="1.0" encoding="UTF-8"?>
<svg version="1.0" xmlns="http://www.w3.org/2000/svg" width="202" height="41" >
<path fill="#231F20" d="M8.77,26.037c-5.125-2.083-7.614-5.424-3.707-10.501c3.13-4.067,11.493-12.867,17.04-8.827 c3.588,2.614-1.031,13.382-2.054,16.398c-0.948,2.793-2.001,5.55-3.023,8.316c-0.423,1.145-1.686,3.359-1.389,4.645 c0.679,2.938,7.433-7.252,6.88-6.459c1.369-1.965,2.705-3.953,4.074-5.918c0.572-0.821,1.17-1.621,1.787-2.409 c1.288-1.646,0.552-0.712,0.657,0.144c0.475,3.874-0.55,7.987-0.516,11.892c0.056,6.409,5.293,0.659,6.935-1.476 c1.081-1.406,2.091-2.87,3.133-4.305c0.508-0.7,1.038-1.38,1.585-2.049c0.316-0.386-0.199-0.506-0.15,1.013 c0.079,2.436,0.298,7.763,3.183,8.888c2.3,0.897,4.115-0.114,6.16-1.216c3.603-1.942,9.261-3.866,11.201-7.824 c-0.621,0.036-1.242,0.071-1.863,0.107c-0.28,1.045-0.608,2.076-0.95,3.103c-0.464,1.396-1.731,6.094-2.381,2.955 c-0.46-2.218,0.316-4.836,1.029-6.921c2.778-8.116,8.479,2.595,4.478,2.2c-0.292-0.029-1.561,0.277-1.344,0.799 c0.903,2.178,2.917,7.66,6.179,6.296c3.034-1.269,4.535-8.701,5.613-11.339c0.327-0.8,4.328-8.204,4.442-7.993 c1.033,1.911-0.641,6.142-1.108,8.067c-0.335,1.374-3.529,10.374-0.163,10.435c4.423,0.081-0.75-7.717,4.018-8.034 c3.618-0.24,4.23,0.608,4.158,4.227c-0.024,1.205,0.013,2.389,0.568,3.471c0.506,0.987,2.288,1.149,3.22,0.918 c4.198-1.042,5.479-8.459,4.507-11.952c-0.502-1.804-2.339-1.934-3.783-1.493c-2.072,0.632-2.934,3.194-3.149,5.093 c-0.087,0.763,1.856,0.396,1.93-0.247c0.065-0.572,1.457-5.801,3.071-2.836c0.71,1.304,0.258,3.215,0.028,4.567 c-0.28,1.65-0.933,3.257-1.728,4.718c-1.154,2.123-2.559-0.069-2.703-1.441c-0.157-1.482,0.748-5.121-1.144-6.002 c-1.604-0.747-3.976-0.091-5.612-0.089c-2.642,0.002-3.479,2.068-3.472,4.454c0.004,1.165,0.088,2.334,0.02,3.499 c0.63-0.093,0.827-0.377,0.593-0.852c-0.04-0.563-0.021-1.123,0.059-1.68c0.232-2.361,0.948-4.708,1.513-7.004 c0.478-1.94,2.567-7.286,0.626-8.989c-1.458-1.279-3.528,1.01-4.235,2.003c-2.69,3.777-4.089,8.678-5.814,12.932 c-0.477,1.172-0.971,2.336-1.524,3.474c-0.532,1.093-0.379,1.228-1.009,0.715c-1.542-1.254-2.418-3.631-3.167-5.438 c-0.448,0.266-0.896,0.533-1.344,0.799c4.562,0.451,5.748-3.305,2.653-6.498c-2.93-3.022-6.65-0.547-7.949,2.602 c-0.667,1.617-3.516,10.716,0.814,10.161c3.208-0.412,4.343-6.506,4.991-8.928c0.192-0.716-1.641-0.347-1.863,0.107 c-1.396,2.849-5.007,4.316-7.68,5.756c-3.563,1.918-6.893,3.639-8.453-1.025c-0.451-1.349,0.131-6.923-1.355-7.216 c-1.471-0.29-2.61,1.263-3.395,2.222c-1.277,1.56-2.397,3.26-3.583,4.888c-0.538,0.739-3.295,4.988-3.714,3.351 c-0.552-2.152,2.367-15.503-1.336-15.069c-1.983,0.232-3.475,3.056-4.458,4.435c-1.723,2.416-3.361,4.894-5.057,7.329 c-0.82,1.178-1.655,2.346-2.507,3.5c-1.402,1.9,0.359,0.312,0.341,1.027c0.045-1.832,1.25-3.979,1.873-5.658 c1.171-3.157,2.334-6.314,3.37-9.518c1.132-3.5,4.219-11.109,1.083-14.381C19.13,0.983,10.322,8.377,6.974,11.487 c-2.217,2.059-6.007,5.474-5.97,8.753c0.042,3.686,3.133,5.465,6.226,6.722C7.801,27.195,9.565,26.36,8.77,26.037L8.77,26.037 M112.786,9.995c1.747-5.015-1.522-3.887-3.964-0.831c-2.671,3.342-4.78,7.222-6.819,10.966 c-1.676,3.077-3.878,6.714-4.367,10.25c-0.6,4.338,4.198,0.44,5.209-0.862c2.285-2.943,4.021-6.371,5.791-9.634 c0.954-1.759,2.279-6.104,3.996-7.252c-0.55,0.101-1.1,0.203-1.649,0.304c0.837,0.608-5.996,19.395-0.135,17.291 c1.838-0.66,2.324-3.406,2.862-5.013c1.079-3.218,1.8-6.61,3.183-9.718c0.409-0.92-1.175-0.412-0.983,0.319 c0.391,1.497,0.208,3.244,0.227,4.769c0.04,3.297-0.387,6.636,0.089,9.914c0.297,2.04,2.35,1.599,3.644,0.854 c2.269-1.305,3.062-6.309,3.825-8.517c1.994-5.768,4.359-12.163,9.545-15.813c-0.563,0.05-1.127,0.1-1.69,0.149 c-1.119,2.472-11.443,24.048-6.825,24.192c0.604,0.019,1.766-0.317,2.08-0.872c1.668-2.94,2.343-6.171,4.311-9.104 c0.936-1.396,2.016-2.692,3.18-3.902c1.446-1.504,1.806,0.435,2.248,1.754c1.584,4.737,1.072,10.337,0.493,15.185 c-0.031,0.259,1.816,0.026,1.918-0.431c0.739-3.309,1.981-6.519,3.35-9.61c1.395-3.149,3.163-6.106,5.181-8.892 c2.247-3.104,7.91-9.816,12.228-9.302c6.063,0.722-1.406,19.225-2.162,22.481c0.635-0.114,1.27-0.229,1.904-0.344 c0.643-2.81,1.704-5.736,3.698-7.868c3.384-3.616,7.138,6.016,7.384,8.132c0.053,0.454,1.757-0.141,1.918-0.431 c0.692-1.243,1.607-2.34,2.649-3.303c4.504-4.162,8.233,4.783,9.433,7.734c0.187,0.458,2.074-0.167,1.932-0.518 c-1.791-4.407-4.553-10.473-10.266-8.71c-2.468,0.762-4.426,2.94-5.652,5.141c0.64-0.144,1.278-0.287,1.918-0.431 c-0.435-3.735-3.473-10.215-8.278-8.879c-4.132,1.149-5.762,5.636-6.64,9.476c-0.095,0.416,1.795,0.127,1.904-0.344 c0.802-3.452,9.164-24.387,0.202-22.897c-12.208,2.03-20.19,18.088-22.606,28.908c0.64-0.144,1.278-0.287,1.918-0.431 c0.325-2.72,2.222-17.823-2.853-18.153c-3.538-0.23-6.655,5.517-8.133,7.868c-0.719,1.144-1.311,2.353-1.836,3.595 c-0.374,0.885-0.32,4.179-0.961,1.907c-0.661-2.347,1.354-5.933,2.17-8.025c1.878-4.818,3.966-9.562,6.099-14.271 c0.196-0.434-1.521,0.029-1.69,0.149c-7.063,4.972-8.946,13.931-11.867,21.545c-0.331,0.864-1.103,3.455-1.737,1.459 c-0.926-2.909-0.119-6.918-0.09-9.915c0.013-1.224,0.869-6.017-1.585-5.433c-3.246,0.772-4.235,9.696-5.165,12.351 c-0.211,0.601-0.453,1.188-0.706,1.771c-0.666,1.532,0.038,0.102,0.147,0.307c-0.916-1.716-0.113-4.855,0.126-6.639 c0.128-0.955,2.604-9.646,1.919-10.142c-0.378-0.274-1.319,0.084-1.648,0.304c-2.038,1.363-3.312,5.578-4.424,7.642 c-0.791,1.467-7.105,11.164-7.192,10.97c-0.649-1.45,0.991-4.382,1.541-5.678c1.273-3.001,2.869-5.874,4.481-8.702 c1.455-2.552,3.02-5.05,4.738-7.434c2.303-3.193,1.428-1.472,0.582,0.954C110.759,10.692,112.616,10.481,112.786,9.995 L112.786,9.995 M179.304,9.761c0.029,0,0.059,0.003,0.088,0.006c-0.332-0.031,0.128,0.059,0.035,0.02 c0.278,0.118,0.382,0.358,0.441,0.64c0.156,0.738,2.094,0.246,1.932-0.518c-0.177-0.835-0.94-1.322-1.77-1.335 c-0.444-0.007-1.02,0.139-1.27,0.547C178.521,9.51,178.963,9.755,179.304,9.761L179.304,9.761 M196.372,25.753c-0.257,0.189,0.157-0.078,0.111-0.056c-0.154,0.064-0.316,0.104-0.486,0.117 c-0.136-0.013-0.164-0.006-0.086,0.02c0.171,0.077,0.234,0.262,0.29,0.425c0.147,0.435,2.059-0.142,1.932-0.518 c-0.478-1.408-2.691-0.427-3.505,0.173c-0.367,0.27,0.324,0.307,0.45,0.295C195.533,26.167,196.003,26.025,196.372,25.753 L196.372,25.753z"/>
</svg>