<?xml version="1.0" encoding="UTF-8"?>
<svg version="1.1" xmlns="http://www.w3.org/2000/svg" width="479" height="43" >
<path d="M24.182,8.021c0.389,3.784,1.919,7.978,5.229,10.111c5.726,3.69,13.863-2.525,17.859-5.966 c0.708-0.61-1.604-0.215-1.793-0.147c-1.908,0.679-3.14,2.31-4.197,3.957c-3.351,5.222-3.838,11.849-6.947,17.264 c-4.767,8.305-15.417,8.774-23.803,6.58c-3.114-0.815-5.667-2.242-8.95-1.673c-1.118,0.194-2.607,1.33-0.564,0.976 c1.837-0.318,3.748,0.705,5.438,1.251c2.44,0.789,4.94,1.369,7.509,1.517c5.424,0.314,11.609,0.07,16.462-2.707 c4.642-2.656,7.262-6.683,9.168-11.598c1.504-3.876,3.137-13.677,6.86-15.003c-0.598-0.049-1.195-0.098-1.793-0.147 c-3.266,2.813-7.977,7.086-12.511,4.738c-1.592-0.825-2.624-2.461-3.405-4.009c-0.909-1.8-1.457-3.912-1.664-5.917 C27.03,6.767,24.108,7.31,24.182,8.021L24.182,8.021z"/>
<path d="M36.792,32.237c8.87-2.376,17.585-5.534,25.985-9.226c0.741-0.326,16.074-7.653,12.484-9.688 c-4.648-2.634-12.123,8.698-13.631,11.006c-0.673,1.031-9.685,12.953-3.605,11.38c2.136-0.553,4.13-2.064,6.073-3.057 c2.835-1.449,10.708-5.659,12.083-0.631c0.376,1.374,1.357,1.88,2.676,2.2c4.205,1.018,13.814-0.767,16.425-4.591 c3.721-5.451-2.302-7.989-6.458-4.816c-2.403,1.835-4.698,5.327-1.859,7.848c2.176,1.932,6.002,1.733,8.662,1.576 c6.233-0.37,12.363-2.419,18.211-4.458c-0.661-0.088-1.321-0.177-1.981-0.266c-1.03,3.465-0.056,8.578,4.745,6.493 c3.768-1.636,5.932-8.785,0.272-9.076c-0.491-0.025-3.252,1.063-2.08,1.342c9.525,2.272,21.313,0.729,30.377-2.827 c1.208-0.474,1.01-1.424-0.313-1.166c-3.334,0.652-6.886,1.739-9.432,4.074c-2.523,2.314-0.829,4.489,2.059,4.189 c5.169-0.536,10.311-3.382,14.585-6.161c0.975-0.634,11.928-8.039,10.524-9.687c-2.378-2.792-13.603,8.427-10.216,12.411 c2.527,2.972,7.889,1.465,11.037,0.573c2.041-0.578,7.975-2.153,8.575-4.713c0.047-0.201-0.067-0.375-0.271-0.427 c-5.606-1.435-11.112,10.492-2.715,9.106c6.466-1.066,14.828-12.266,3.52-11.033c-0.359,0.039-2.469,0.854-1.398,1.326 c3.721,1.644,13.515-1.763,14.979,2.233c0.783,2.139-4.303,4.401-0.486,6.34c3.32,1.687,7.642,0.489,10.956-0.545 c4.55-1.419,10.574-3.722,13.927-7.31c3.257-3.485-6.889-0.639-7.874-0.173c-1.918,0.907-4.404,2.528-4.594,4.854 c-0.273,3.339,5.123,5.091,7.425,5.935c0.769,0.282,3.408-0.889,2.339-1.28c-4.307-1.578-10.115-5.143-3.882-8.624 c1.171-0.654,2.927-1.459,4.313-1.319c0.239,0.024-0.847,1.041-0.894,1.079c-1.831,1.483-4.115,2.515-6.194,3.572 c-3.268,1.661-9.736,4.859-13.352,2.396c-1.937-1.32,0.793-3.461,1.208-4.853c1.585-5.311-13.592-2.728-15.533-3.585 c-0.466,0.442-0.932,0.884-1.398,1.326c5.403-0.589,3.355,3.612,1.245,5.945c-1.49,1.646-6.546,3.578-6.042-0.21 c0.187-1.401,1.744-2.676,2.753-3.498c2.021-1.647-2.024,0.158-2.506,0.436c-1.668,0.96-3.561,1.568-5.402,2.09 c-3.924,1.112-8.893,0.55-6.758-4.571c1.051-2.522,3.588-4.922,5.843-6.375c-0.893-0.427-1.515-0.291-1.866,0.408 c-0.796,1.033-1.9,1.991-2.832,2.853c-1.708,1.581-3.62,2.938-5.535,4.25c-3.62,2.483-7.964,4.981-12.33,5.788 c-1.342,0.132-1.827-0.352-1.454-1.45c0.243-1.625,2.693-2.54,3.936-3.047c1.031-0.421,2.182-0.735,3.28-0.95 c-0.104-0.389-0.208-0.777-0.313-1.166c-7.898,3.098-18.666,4.483-26.956,2.506c-0.693,0.447-1.386,0.895-2.08,1.342 c1.725,0.088,2.121,0.931,2.395,2.358c0.18,0.936-1.438,6.347-2.998,2.91c-0.598-1.316-0.106-3.191,0.287-4.517 c0.253-0.85-1.712-0.36-1.981-0.266c-5.851,2.041-16.554,6.612-22.721,3.031c-2.771-1.609-1.165-4.862,0.679-6.435 c2.795-2.384,3.418,4.207,0.835,5.299c-3.178,1.344-7.637,2.882-11.087,2.047c-2.062-0.5-1.419-3.772-3.926-4.329 c-2.761-0.613-5.47,0.133-8.101,0.985c-2.586,0.837-5.065,2.033-7.465,3.302c-0.788,0.417-1.563,0.857-2.346,1.284 c-1.592,0.869-0.158,0.485,0.259-0.542c2.594-6.4,7.991-15.195,14.157-18.687c-0.923,0.523-3.096,3.018-4.579,3.921 c-4.536,2.762-9.676,4.68-14.612,6.6c-5.676,2.208-11.495,4.156-17.381,5.732C34.752,31.488,35.076,32.697,36.792,32.237 L36.792,32.237z"/>
<path d="M251.822,41.003c-4.147-0.149,0.277-7.159,1.126-9.214c1.605-3.887,3.442-7.401,6.394-10.458 c2.71-2.808,13.752-10.51,17.698-7.076c0.979,0.852,0.271,2.477-0.206,3.361c-1.014,1.883-2.643,2.448-4.664,2.273 c-2.299-0.198-5.336-1.736-7.442-0.113c-1.834,1.412-0.444,4.824,0.703,6.214c5.486,6.648,19.824,2.646,26.147,0.062 c-0.603-0.369-1.204-0.738-1.807-1.107c-3.912,5.247,0.265,9.631,6.401,8.244c6.74-1.524,9.255-9.165,1.263-11.268 c-1.867-0.491-6.29,1.083-3.411,3.164c5.967,4.313,17.053,0.82,23.178-0.898c-0.537-0.333-1.073-0.667-1.609-1.001 c-1.373,2.26-2.891,5.403-1.371,7.892c1.604,2.625,6.656,0.678,8.558-0.349c2.271-1.227,5.213-3.606,5.286-6.429 c0.097-3.719-6.597-2.863-8.613-2.626c-1.11,0.13-2.514,1.933-0.681,1.923c3.981-0.021,8.511-0.056,12.14-1.876 c1.498-0.751,2.898-1.365,4.578-1.659c3.923-0.687,3.047,2.762,2.81,4.813c-0.445,3.841-3.391,4.321-6.602,2.826 c-0.593-0.276-2.318-1.263-2.273-1.872c-0.538,0.366-1.077,0.732-1.615,1.098c10.632-0.725,20.844-3.499,31.228-5.697 c1.316-0.279,7.027-1.124,7.055-3.401c0.022-1.854-2.746-1.384-3.902-1.151c-4.508,0.912-12.59,3.191-10.418,9.101 c0.88,2.396,3.396,2.584,5.566,2.274c2.276-0.325,4.491-1.481,6.564-2.399c1.253-0.555,8.436-4.174,9.729-2.743 c0.133-0.394,0.265-0.788,0.397-1.182c-1.664,1.049-4.025,2.86-3,5.027c1.248,2.639,5.365,1.041,7.075,0.126 c0.727-0.389,4.373-3.455,5.063-3.131c0.85,0.397,1.569,0.576,2.521,0.65c3.742,0.29,7.952-0.971,11.401-2.253 c1.27-0.472,16.979-8.163,13.527-10.262c-2.935-1.785-9.496,2.573-11.838,3.896c-2.155,1.217-9.572,5.104-7.922,8.625 c1.604,3.423,8.568,1.499,11.126,0.922c14.696-3.313,29.54-10.254,42.46-17.883c2.021-1.194,6.271-3.209,6.804-5.85 c0.566-2.804-5.549-1.117-6.442-0.821c-5.445,1.804-10.549,5.003-15.231,8.252c-3.801,2.638-9.324,6.367-10.853,11.012 c-3.465,10.532,19.713,1.286,22.364,0.072c2.379-1.089,4.718-2.265,7.094-3.359c0.325-0.149,0.653-0.293,0.982-0.432 c1.706-0.733-0.76,0.355-0.269-0.971c-0.567,1.531-2.661,3.171-3.69,4.441c-2.044,2.522-11.005,12.617-6.035,15.629 c0.978,0.593,3.585-0.765,2.262-1.567c-5.321-3.225,12.123-17.48,10.225-19.288c-2.216-2.109-9.864,3.143-11.798,4.041 c-2.236,1.039-19.926,8.78-18.363,1.615c0.627-2.875,4.119-5.489,6.232-7.241c3.292-2.728,6.934-5.079,10.655-7.171 c2.715-1.526,5.591-2.985,8.618-3.765c2.919-0.752-0.303,1.55-1.137,2.149c-5.898,4.238-12.806,7.289-19.395,10.266 c-7.586,3.427-15.393,6.575-23.446,8.721c-2.49,0.664-5.183,1.335-7.778,1.083c-3.839-0.373,0.263-3.908,1.415-4.783 c2.923-2.219,6.313-3.921,9.715-5.272c0.53-0.211,1.072-0.376,1.62-0.532c1.113-0.317,0.231-0.588-0.134-0.145 c-2.351,2.843-6.22,4.678-9.509,6.142c-3.007,1.339-6.273,2.229-9.53,2.681c-1.889,0.262-3.155-0.6-4.849-0.57 c-1.471,0.025-2.65,0.71-3.882,1.453c-1.4,0.844-2.668,1.849-4.117,2.624c-1.962-0.994-2.184-1.857-0.665-2.589 c0.194-0.14,0.393-0.272,0.595-0.397c0.353-0.222,0.756-0.785,0.397-1.182c-2.001-2.215-7.034-0.073-9.158,0.701 c-2.688,0.979-10.221,5.614-12.29,2.956c-2.406-3.09,1.603-4.828,3.944-5.789c1.005-0.413,2.061-0.688,3.112-0.95 c2.722-0.678-1.392,0.384-2.018,0.543c-4.354,1.11-8.806,1.807-13.163,2.927c-6.078,1.563-12.344,2.501-18.606,2.928 c-0.551,0.038-1.564,0.422-1.615,1.098c-0.204,2.714,5.627,4.678,7.493,4.821c4.827,0.37,6.831-2.95,7.343-7.369 c0.546-4.712-2.254-5.991-6.532-5.242c-2.333,0.408-4.146,1.667-6.331,2.42c-2.639,0.911-5.873,0.92-8.654,0.935 c-0.227,0.641-0.454,1.282-0.681,1.923c1.408-0.166,6.057-1.083,5.99,1.463c-0.042,1.633-2.073,3.104-3.23,3.928 c-2.328,1.657-6.021,1.403-5.117-2.222c0.288-1.159,0.931-2.329,1.551-3.349c0.597-0.982-1.046-1.16-1.609-1.001 c-4.713,1.322-15.953,5.174-20.459,1.078c-0.47-0.427-1.197,0.175-0.602,0.228c2.204,0.194,4.233,2.256,4.092,4.472 c-0.341,5.321-12.095,3.492-7.601-2.537c0.952-1.276-0.968-1.45-1.807-1.107c-4.949,2.022-20.844,6.414-23.27-1.635 c-0.411-1.361-1.266-2.072,0.521-1.712c1.173,0.236,2.334,0.449,3.518,0.616c1.681,0.238,3.146,0.068,4.707-0.563 c3.669-1.484,7.405-8.994,1.12-9.446c-9.606-0.692-19.976,6.864-24.505,14.89c-1.852,3.28-9.566,15.949-1.669,16.233 C252.054,42.976,253.788,41.074,251.822,41.003L251.822,41.003z"/>
<path d="M456.181,25.004c2.415-1.222,4.925-2.55,6.917-4.406c3.289-3.063,9.688-2.747,13.983-3.229 c1.354-0.152,2.449-1.7,0.432-1.474c-4.778,0.536-10.345,0.61-14.786,2.699c-1.298,0.61-1.988,1.749-3.095,2.613 c-1.564,1.223-3.449,2.158-5.219,3.053C452.678,25.139,455.301,25.449,456.181,25.004L456.181,25.004z"/>
</svg>