<?xml version="1.0" encoding="UTF-8"?>
<svg version="1.0" xmlns="http://www.w3.org/2000/svg" width="290" height="104" >
<path d="M23.94,37.823c0.603-0.687,1.461-0.781,2.575-0.281c-2.155,0.979-4.101,0.932-5.839-0.141 c-1.672-0.843-2.678-2.582-3.237-4.273c-1.815-5.488,4.88-7.953,9.073-8.555c5.978-0.858,9.769-2.69,14.095-7.083 c0.827-0.839-1.111-0.667-1.548-0.313c-6.469,5.25-12.757,11.31-17.205,18.395c-2.678,4.266-4.988,8.754-7.657,13.028 c-1.18,1.89-2.46,3.765-4.087,5.299c-1.905,1.797-2.441-2.623-2.433-3.267c0.044-3.648,3.78-1.791,4.023-0.206 c0.1,0.652,2.042,0.197,1.932-0.518c-0.488-3.183-5.906-2.987-7.29-0.51c-1.949,3.49,0.946,7.505,4.605,5.357 c2.51-1.474,4.22-4.794,5.693-7.152c2.453-3.928,4.606-8.037,7.012-11.994c4.266-7.018,10.607-12.968,16.955-18.12 c-0.516-0.104-1.032-0.208-1.548-0.313c-3.703,3.76-7.101,5.688-12.282,6.333c-2.382,0.297-5.181,0.804-7.248,2.089 c-4.671,2.904-5.664,8.236-1.354,12.076c1.553,1.384,8.857,4.125,10.13,0.634c1.568-4.303-4.503-2.193-5.913-0.8 C21.589,38.304,23.492,38.266,23.94,37.823L23.94,37.823z"/>
<path d="M35.588,40.104c2.034-3.495,4.119-6.96,6.25-10.396c1.394-2.247,2.811-4.485,4.363-6.626 c0.211-0.289,0.43-0.571,0.655-0.848c1.245-1.567-0.826,0.553-0.694-0.594c-0.094,0.819-0.729,1.729-1.104,2.438 c-3.17,5.981-7.228,11.574-11.035,17.155c-1.931,2.831-3.884,5.646-5.837,8.461c-0.569,0.821-2.703,3.956-2.575,3.902 c0.468,0.16,0.935,0.32,1.402,0.48c0.323-1.484,2.033-3.343,2.86-4.599c1.937-2.938,4.021-5.788,6.284-8.485 c0.909-1.084,6.343-7.131,5.863-2.439c-0.351,3.428-4.931,6.828-6.884,9.473c-3.386,4.583,2.417,5.266,5.767,3.848 c3.557-1.506,6.722-3.854,9.52-6.497c1.479-1.396,4.979-4.033,5.063-6.357c0.007-0.19-0.058-0.372-0.231-0.475 c-2.863-1.686-7.952,7.174-9.032,8.944c-2.806,4.603,1.166,3.457,3.686,1.644c2.343-1.687,4.57-3.519,6.977-5.116 c2.052-1.363,3.054-1.688,2.542,1.21c-0.339,1.917-1.359,3.686-2.531,5.197c-2.515,3.247-1.172,0.182-0.745-0.401 c2.396-3.278,5.906-5.944,9.192-8.27c1.369-0.968,4.868-3.571,4.699-0.102c-0.159,3.265-3.196,6.242-5.68,7.917 c0.481,0.236,0.962,0.472,1.444,0.707c2.911-3.193,6.036-6.276,9.546-8.805c0.954-0.688,4.028-2.007,2.978,0.563 c-0.382,0.935-1.04,1.796-1.592,2.635c-0.788,1.198-2.011,2.732-1.53,4.254c0.815,2.576,8.684,0.952,10.412,0.316 c1.893-0.696,3.215-1.915,4.575-3.373c1.602-1.716,2.969-3.506,4.716-5.104c0.473-0.432,7.47-5.474,7.611-3.186 c0.621-0.166,1.242-0.333,1.863-0.499c-5.157-6.091-14.459,7.588-16.218,10.552c-0.938,1.58-1.889,5.438,1.411,4.313 c5.722-1.951,10.151-8.06,13.562-12.666c0.732-0.989-1.087-1.236-1.612-0.553c-1.013,1.317-10.063,12.988-4.568,11.819 c4.196-0.892,8.751-5.373,12.098-7.808c3.346-2.434,6.648-4.931,9.914-7.472c-0.52-0.178-1.04-0.356-1.56-0.535 c-3.758,6.292-7.524,14.108-13.049,19.007c-0.98,0.87,0.561,1.495,1.275,0.861c5.746-5.096,9.719-13.132,13.618-19.66 c0.527-0.882-1.15-0.854-1.56-0.535c-5.28,4.107-10.639,8.133-16.174,11.891c-1.49,1.013-3.007,1.995-4.613,2.815 c0.349-0.178,1.387-2.89,1.685-3.378c1.366-2.241,2.947-4.375,4.546-6.455c-0.538-0.184-1.075-0.369-1.612-0.553 c-2.504,3.383-5.173,6.568-8.337,9.357c-0.929,0.819-1.95,1.545-3.021,2.164c-2.169,1.254,0.311-3.197,0.438-3.412 c1.2-2.022,8.682-12.837,12.006-8.911c0.407,0.481,1.912,0.285,1.863-0.499c-0.344-5.56-9.345,1.242-10.842,2.479 c-3.771,3.114-5.674,7.971-10.999,8.528c-1.411,0.148-6.385,0.95-5.224-1.627c0.624-1.386,1.656-2.621,2.431-3.926 c2.27-3.816-1.215-4.767-4.178-3.259c-4.393,2.236-8.189,6.504-11.472,10.105c-0.815,0.895,0.894,1.077,1.444,0.707 c3.17-2.138,5.59-5.128,6.36-8.932c0.384-1.899-0.943-3.563-2.912-3.138c-5.384,1.164-12.179,7.252-15.053,11.814 c-0.497,0.789-1.281,2.919,0.482,2.945c2.547,0.039,4.135-2.164,5.374-4.13c2.954-4.691,2.25-9.689-3.461-6.341 c-2.556,1.498-4.86,3.428-7.225,5.203c-0.527,0.396-1.064,0.777-1.606,1.153c-1.206,0.835-0.517,0.892-0.221,0.053 c0.783-2.218,2.56-4.187,4.014-5.99c0.582-0.722,1.204-1.409,1.831-2.091c0.179-0.185,0.359-0.37,0.538-0.554 c1.054-0.596,0.957-0.892-0.292-0.889c-0.524,1.421-2.106,2.757-3.131,3.819c-1.764,1.829-3.742,3.434-5.797,4.922 c-0.821,0.594-9.977,5.149-8.335,1.217c1.278-3.062,11.047-9.948,6.937-13.812c-2.832-2.661-7.755,3.76-9.122,5.389 c-2.175,2.593-4.11,5.389-5.988,8.202c-0.939,1.406-2.601,3.258-2.971,4.96c-0.162,0.744,1.042,0.635,1.402,0.481 c1.22-0.52,2.171-2.783,2.869-3.789c2.549-3.675,5.095-7.354,7.61-11.052c2.349-3.455,4.664-6.932,6.902-10.459 c1.469-2.314,3.485-4.936,4.198-7.631c0.251-0.952-0.227-1.615-1.269-1.336c-1.54,0.413-2.688,2.758-3.479,3.936 c-3.385,5.039-6.495,10.27-9.548,15.514C33.204,40.824,35.17,40.823,35.588,40.104L35.588,40.104z"/>
<path d="M121.053,41.446c10.517-4.933,22.606-11.672,29.065-21.621c0.123-0.189-1.6-0.118-1.903,0.35 c-6.279,9.672-18.027,16.243-28.268,21.046C118.793,41.762,120.613,41.653,121.053,41.446L121.053,41.446z"/>
<path d="M154.747,10.016c-5.143-5.2-24.929,31.358-24.396,36.928c0.508,5.301,10.682,0.385,12.42-0.794 c3.902-2.646,3.56-7.606-1.738-6.992c-4.152,0.481-7.359,4.922-8.983,8.357c-0.107,0.226,1.678,0.105,1.899-0.363 c1.177-2.488,8.886-11.72,9.848-4.711c0.521,3.794-6.575,6.371-9.608,5.969c-4.156-0.552-0.732-7.731,0.061-9.588 c3.459-8.103,8.353-15.984,13.617-23.035c1.313-1.757,2.748-3.488,4.483-4.844c0.825-0.645,0.356-0.507,0.57-0.291 C153.248,10.982,154.988,10.26,154.747,10.016L154.747,10.016z"/>
<path d="M159.882,33.304c-1.996,2.223-13.848,14.571-9.99,17.077c2.843,1.848,8.272-2.977,10.093-4.454 c3.889-3.155,7.402-6.91,10.633-10.731c-0.564-0.081-1.127-0.162-1.691-0.243c-1.361,1.72-11.082,13.711-5.833,14.205 c3.933,0.371,8.841-4.194,11.615-6.326c3.956-3.04,7.484-6.621,11.452-9.629c-0.465-0.176-0.931-0.352-1.396-0.528 c-1.549,1.339-2.925,2.819-4.197,4.42c-1.136,1.43-4.089,11.167-6.009,9.013c-0.486-0.547-2.333,0.17-1.786,0.783 c1.853,2.08,4.751,0.185,6.163-1.45c1.722-1.993,1.445-5.083,2.81-7.35c1.155-1.918,2.901-3.565,4.588-5.025 c0.831-0.718-0.914-0.893-1.396-0.527c-6.052,4.587-11.243,10.128-17.828,14.045c-2.109,1.255-4.502,1.879-3.192-1.229 c0.626-1.485,1.545-2.865,2.416-4.215c1.356-2.104,2.853-4.132,4.406-6.095c0.557-0.704-1.309-0.695-1.691-0.243 c-1.598,1.891-3.291,3.701-5.013,5.479c-0.957,0.988-12.201,11.243-12.959,8.599c-0.713-2.488,3.972-7.408,5.318-9.147 c1.606-2.074,3.304-4.087,5.056-6.04C162.232,32.826,160.354,32.778,159.882,33.304L159.882,33.304z"/>
<path d="M206.039,17.937c-2.974,3.408-3.37,7.545-5.461,11.397c-3.163,5.825-7.154,11.474-11.539,16.436 c-0.824,0.933,1.071,0.927,1.588,0.459c4.462-4.041,9.084-7.951,13.98-11.457c1.335-0.955,2.717-1.855,4.191-2.579 c2.75-1.35-0.213,4.433-0.678,5.179c-1.778,2.855-4.087,5.473-6.415,7.898c-0.824,0.858,1.058,1.003,1.588,0.459 c3.958-4.063,8.155-7.948,12.646-11.416c2.18-1.684,9.36-6.524,7.888-0.259c-0.589,2.504-2.367,4.934-3.897,6.929 c-0.636,0.83-1.362,1.582-2.095,2.326c-0.398,0.347-0.798,0.692-1.197,1.038c-1.355,0.465-1.401,0.798-0.14,1 c1.104-1.89,3.67-3.546,5.3-4.892c2.701-2.229,5.53-4.311,8.488-6.185c1.149-0.729,2.342-1.368,3.588-1.914 c2.965-1.299,2.305,1.979,1.348,3.688c-1.565,2.794-4.483,5.181-7.011,7.081c0.472,0.201,0.943,0.401,1.416,0.603 c1.471-1.331,16.591-13.624,16.907-12.971c0.985,2.035-4.87,8.906-1.362,10.22c1.505,0.564,2.829,0.376,4.366,0.011 c1.694-0.402,7.08-4.109,8.54-2.972c0.595,0.463,2.336-0.393,1.51-1.036c-1.045-0.813-2.399-0.535-3.563-0.077 c-2.759,1.084-11.842,5.737-9.096-0.852c0.56-1.342,3.483-7.413-0.407-6.531c-3.867,0.876-7.423,4.402-10.396,6.809 c-2.759,2.234-5.453,4.558-8.087,6.939c-0.836,0.756,0.9,0.99,1.416,0.603c3.416-2.566,7.425-5.87,8.624-10.125 c1.042-3.699-3.021-3.15-5.021-2.378c-2.156,0.833-20.222,12.526-18.463,14.662c2.437,2.958,17.566-15.047,9.229-16.711 c-3.948-0.788-8.858,3.971-11.526,6.152c-3.718,3.038-7.241,6.358-10.592,9.797c0.529,0.153,1.059,0.306,1.588,0.459 c3.059-3.188,6.062-6.711,8.044-10.68c1.211-2.424,1.041-5.122-2.148-4.309c-4.32,1.103-8.4,5.121-11.754,7.834 c-2.864,2.317-5.665,4.723-8.396,7.195c0.529,0.153,1.059,0.306,1.588,0.459c4.027-4.559,7.503-9.642,10.663-14.83 c2.507-4.116,3.214-9.426,6.337-13.004C208.411,17.497,206.546,17.356,206.039,17.937L206.039,17.937z"/>
<path d="M275.287,29.836c1.676-3.775,1.449-8.079-3.526-5.133c-4.986,2.952-12.12,9.426-13.039,15.462 c-0.797,5.24,8.098,1.174,9.623-0.067c2.867-2.333,4.732-5.835,7.048-8.661c0.412-0.504,2.854-2.323,1.318-1.085 c-1.673,1.35-3.196,2.875-4.681,4.426c-4.995,5.22-8.323,11.583-11.876,17.795c-4.105,7.18-8.294,14.313-12.746,21.284 c-3.98,6.233-8.131,12.821-13.617,17.858c-2.289,2.102-4.313,2.369-5.091-1.004c-0.848-3.672,2.392-7.784,4.482-10.386 c9.933-12.356,24.874-21.412,38.229-29.615c4.04-2.481,10.353-5.329,13.029-9.551c0.523-0.826-0.374-1.101-1.027-1.07 c-0.534,0.025-2.108,0.879-0.826,0.818c0.266-0.012-0.548,1.211-0.829,1.5c-3.273,3.365-7.887,5.777-11.835,8.212 c-8.73,5.384-17.331,11.068-25.342,17.488c-6.34,5.082-13.668,10.847-17.085,18.457c-1.168,2.6-1.27,8.646,3.064,7.786 c4.005-0.796,6.907-4.508,9.353-7.482c4.998-6.081,9.186-12.858,13.289-19.558c7.61-12.424,13.866-28.39,25.709-37.435 c0.063-0.048,0.37-0.282,0.164-0.381c-6.793-3.244-9.713,13.479-16.976,12.341c-5.103-0.8,4.192-11.083,5.28-12.208 c0.559-0.579,6.515-6.448,7.183-4.228c0.41,1.363-0.625,3.501-1.184,4.761C273.22,30.521,275.062,30.345,275.287,29.836 L275.287,29.836z"/>
<path d="M227.927,11.816c0.334,0.167,0.667,0.333,1,0.5c1.342,0.671,2.926,0.538,4.151-0.366c0.49-0.362,0.94-0.888,1.021-1.516 c0.067-0.522-0.2-1.17-0.692-1.417c-0.334-0.167-0.667-0.333-1-0.5c-1.342-0.671-2.926-0.538-4.151,0.366 c-0.49,0.362-0.94,0.888-1.021,1.516C227.167,10.922,227.435,11.57,227.927,11.816L227.927,11.816z"/>
</svg>