<?xml version="1.0" encoding="UTF-8" standalone="no"?>
<!-- Created with Inkscape (http://www.inkscape.org/) -->
<svg
   xmlns:dc="http://purl.org/dc/elements/1.1/"
   xmlns:cc="http://creativecommons.org/ns#"
   xmlns:rdf="http://www.w3.org/1999/02/22-rdf-syntax-ns#"
   xmlns:svg="http://www.w3.org/2000/svg"
   xmlns="http://www.w3.org/2000/svg"
   xmlns:sodipodi="http://sodipodi.sourceforge.net/DTD/sodipodi-0.dtd"
   xmlns:inkscape="http://www.inkscape.org/namespaces/inkscape"
   width="500"
   height="230"
   id="svg2475"
   sodipodi:version="0.32"
   inkscape:version="0.46"
   version="1.0"
   sodipodi:docname="Thomas Mann signature.svg"
   inkscape:output_extension="org.inkscape.output.svg.inkscape">
  <defs
     id="defs2477">
    <inkscape:perspective
       sodipodi:type="inkscape:persp3d"
       inkscape:vp_x="0 : 526.18109 : 1"
       inkscape:vp_y="0 : 1000 : 0"
       inkscape:vp_z="744.09448 : 526.18109 : 1"
       inkscape:persp3d-origin="372.04724 : 350.78739 : 1"
       id="perspective2483" />
    <inkscape:perspective
       id="perspective2529"
       inkscape:persp3d-origin="372.04724 : 350.78739 : 1"
       inkscape:vp_z="744.09448 : 526.18109 : 1"
       inkscape:vp_y="0 : 1000 : 0"
       inkscape:vp_x="0 : 526.18109 : 1"
       sodipodi:type="inkscape:persp3d" />
  </defs>
  <sodipodi:namedview
     id="base"
     pagecolor="#ffffff"
     bordercolor="#666666"
     borderopacity="1.0"
     gridtolerance="10000"
     guidetolerance="10"
     objecttolerance="10"
     inkscape:pageopacity="0.0"
     inkscape:pageshadow="2"
     inkscape:zoom="1"
     inkscape:cx="204.85271"
     inkscape:cy="82.788643"
     inkscape:document-units="px"
     inkscape:current-layer="layer1"
     showgrid="false"
     inkscape:window-width="1060"
     inkscape:window-height="701"
     inkscape:window-x="55"
     inkscape:window-y="22" />
  <metadata
     id="metadata2480">
    <rdf:RDF>
      <cc:Work
         rdf:about="">
        <dc:format>image/svg+xml</dc:format>
        <dc:type
           rdf:resource="http://purl.org/dc/dcmitype/StillImage" />
      </cc:Work>
    </rdf:RDF>
  </metadata>
  <g
     inkscape:label="Layer 1"
     inkscape:groupmode="layer"
     id="layer1">
    <path
       style="fill:#000000"
       d="M 453.61474,201.99911 C 452.04659,200.43096 396.32147,197.61342 337.01447,196.10365 C 320.62673,195.68647 304.58953,195.17502 301.37624,194.96711 C 298.16296,194.75917 272.92407,194.30289 245.28984,193.95312 C 217.6556,193.60336 191.3651,193.02857 186.8665,192.67582 C 153.27487,190.04179 92.43905,189.78347 62.424797,192.14741 C 35.651122,194.25612 35.018339,194.2393 34.614097,191.40772 C 34.273348,189.02081 34.838454,188.91733 52.72533,188.09141 C 62.879962,187.62252 72.765727,186.98981 74.693698,186.6854 C 79.402793,185.94186 155.81171,186.07588 164.66563,186.84321 C 168.52157,187.17738 190.8685,187.72064 214.32547,188.05044 C 251.89805,188.57872 297.93104,189.83835 342.27257,191.55155 C 349.98446,191.84952 372.83067,192.39577 393.04193,192.76543 C 413.25319,193.1351 430.08625,193.62086 430.44873,193.84487 C 430.81122,194.0689 437.14746,194.6053 444.52928,195.03688 C 451.91111,195.46847 458.39738,196.25005 458.94321,196.77374 C 460.52682,198.2931 458.57922,202.635 456.31409,202.635 C 455.17919,202.635 453.96449,202.34884 453.61474,201.99911 z M 293.78121,183.71528 C 293.78121,182.86391 296.0159,178.82399 298.74719,174.73766 C 301.47848,170.65133 306.63813,162.76858 310.21307,157.2204 C 313.78801,151.67224 319.11347,143.41533 322.04742,138.87172 L 327.38186,130.61062 L 321.97408,130.92071 C 314.72812,131.33619 311.80642,129.27346 310.98692,123.16374 C 310.62905,120.49551 310.06874,118.0449 309.74181,117.71798 C 307.15455,115.13071 291.04782,130.11477 286.87595,138.99003 C 284.15202,144.78498 282.45485,146.20583 280.54188,144.29286 C 279.51947,143.27045 279.72564,142.03043 281.38942,139.19499 C 286.13251,131.11178 291.5863,119.53319 299.11517,101.56263 C 300.99986,97.064035 305.04796,88.438232 308.11093,82.394174 C 313.31418,72.12674 313.55459,71.266468 311.77145,69.296106 C 309.3783,66.651703 309.38063,59.097027 311.77605,54.464816 C 313.96043,50.24068 320.13349,44.885574 322.79042,44.90989 C 327.15479,44.949828 327.88087,46.50494 326.37858,52.595048 C 325.60059,55.748926 323.70459,61.115717 322.16525,64.521248 C 320.62592,67.926779 319.67292,71.678761 320.04752,72.858971 C 320.42211,74.039193 324.26146,77.632941 328.57941,80.845067 C 341.86973,90.731744 345.22102,95.110679 340.23721,96.077627 C 339.22426,96.274151 337.42749,95.452771 336.24439,94.252323 C 335.06131,93.051876 331.46426,90.038354 328.25097,87.555596 C 325.03769,85.072837 321.26189,81.724665 319.86031,80.11522 C 316.85684,76.666292 314.79177,77.688934 312.45523,83.782265 C 311.6625,85.849588 309.02694,91.484611 306.59843,96.304531 C 302.78826,103.86669 296.11814,119.25729 296.11814,120.48672 C 296.11814,120.7122 298.75119,118.81537 301.96935,116.27156 C 311.11176,109.04491 313.90332,108.90135 315.33485,115.58423 C 315.61017,116.86955 316.14603,119.38574 316.52562,121.17577 C 317.523,125.87894 321.93969,127.26319 328.6516,124.97622 C 331.55218,123.98789 334.35752,123.17927 334.8857,123.17927 C 337.90481,123.17927 333.94352,130.39914 320.56803,149.27466 C 316.54911,154.9462 315.77061,156.22965 309.81854,166.99676 C 300.41309,184.01095 300.04693,184.51777 296.88886,184.8935 C 294.90212,185.12986 293.78121,184.70489 293.78121,183.71528 z M 319.62068,58.284651 C 322.16219,51.592619 322.27339,50.734334 320.59881,50.734334 C 319.15663,50.734334 314.87643,59.707259 314.83927,62.808487 C 314.79325,66.650335 317.36913,64.213205 319.62068,58.284651 z M 97.478802,172.24914 C 97.478802,169.27239 101.71259,160.65338 107.22038,152.41757 C 109.57439,148.89763 111.5004,145.60055 111.5004,145.09075 C 111.5004,144.58094 114.99034,136.46064 119.25581,127.04562 C 124.91548,114.55327 126.70852,109.44749 125.89102,108.1515 C 124.14553,105.38432 122.28836,105.29218 121.45078,107.93118 C 120.3578,111.37487 114.98872,117.46429 113.73083,116.68687 C 113.14674,116.32589 112.66886,114.95764 112.66886,113.64632 C 112.66886,110.86884 120.79676,95.248289 127.38367,85.366742 C 129.89437,81.600259 132.87191,77.076845 134.00045,75.314725 L 136.05234,72.110861 L 119.20476,54.669987 C 99.813823,34.596196 94.430643,30.97916 87.993314,33.698568 C 79.520038,37.278049 73.533936,46.129944 66.200615,65.924402 C 59.530609,83.928371 60.341888,95.880874 69.126339,109.0286 C 72.108687,113.4923 72.519928,116.16846 70.223506,116.16846 C 66.590346,116.16846 60.383369,105.90509 57.727373,95.505808 C 56.454797,90.523115 56.447435,87.93287 57.685881,80.899974 C 58.513868,76.198016 59.608885,71.825159 60.11926,71.182502 C 60.629634,70.539845 61.42744,67.910795 61.892163,65.340168 C 62.356897,62.769542 63.466216,59.225839 64.357336,57.465264 C 65.248455,55.704688 65.959841,53.992229 65.938212,53.659812 C 65.916572,53.327384 67.28376,50.298461 68.976413,46.928884 C 74.465893,36.000892 85.614047,27.364999 94.23163,27.364999 C 101.5923,27.364999 107.17045,31.960486 131.66787,58.206374 L 140.27807,67.431104 L 143.2925,65.455974 C 147.23015,62.875931 151.42669,63.966753 153.9415,68.223991 C 158.95375,76.709034 153.2104,81.675263 143.93336,76.877925 C 140.31904,75.00888 140.21609,75.03239 137.53581,78.338508 C 128.74761,89.178724 125.82566,94.44734 126.40662,98.405704 C 127.26632,104.26318 129.51429,105.26505 133.76746,101.68625 C 137.76246,98.32467 139.00492,97.993037 140.22259,99.963258 C 140.69292,100.72426 138.81951,103.32688 135.80693,106.09771 C 132.19335,109.42129 129.02815,114.16413 125.57702,121.42656 C 117.95398,137.46824 117.62824,138.5936 122.02569,133.69546 C 124.04506,131.44617 126.84091,128.16462 128.2387,126.40314 C 129.63646,124.64167 131.40632,123.19571 132.17172,123.18986 C 134.55816,123.17168 135.29578,125.7691 133.23214,126.92398 C 131.4826,127.90307 131.60556,128.29078 134.35044,130.4499 C 137.15893,132.65907 137.96182,132.75405 143.33777,131.51313 C 148.27801,130.37279 149.68244,130.43965 151.94627,131.92297 C 155.14013,134.01567 159.57513,134.22895 161.42525,132.37883 C 162.40176,131.40232 163.74491,131.66507 166.62492,133.39605 C 171.53262,136.34574 177.73891,137.30041 183.52433,135.99558 C 186.00406,135.43632 188.47338,135.41919 189.0117,135.95751 C 189.98554,136.93136 183.70645,146.72488 178.52665,152.31105 C 176.48072,154.5175 175.4795,154.90869 174.46773,153.89692 C 173.45599,152.88517 174.02692,151.45932 176.7823,148.11654 C 178.79401,145.67601 180.43994,143.35322 180.43994,142.95479 C 180.43994,142.55636 178.82793,142.18454 176.85771,142.12851 C 172.07587,141.99256 166.36477,140.72003 163.49717,139.15158 C 162.21186,138.44857 158.26828,137.75525 154.73366,137.61089 C 151.19906,137.46652 146.86112,137.27139 145.09382,137.17726 C 134.32301,136.60361 131.86066,137.26605 129.67451,141.32548 C 125.23583,149.56761 118.5112,152.64986 118.5112,146.4422 C 118.5112,141.82669 115.48777,146.07194 108.40242,160.6361 C 103.5321,170.64723 101.02881,174.5918 99.545942,174.5918 C 98.256094,174.5918 97.478802,173.71091 97.478802,172.24914 z M 127.16486,137.57695 C 129.5577,130.55431 129.55636,130.55058 126.10623,134.65084 C 124.49959,136.56023 123.18506,139.22962 123.18506,140.58283 C 123.18506,144.81616 125.22257,143.27728 127.16486,137.57695 z M 149.47557,71.766736 C 146.9921,69.022545 145.38593,68.759441 145.38593,71.09683 C 145.38593,72.565148 147.11568,73.530092 150.53301,73.968127 C 151.11461,74.042675 150.63876,73.052048 149.47557,71.766736 z M 452.92638,173.18964 C 452.15519,172.41845 451.52421,171.10393 451.52421,170.26847 C 451.52421,169.23112 449.72913,168.74947 445.86299,168.74947 C 439.7707,168.74947 435.68438,165.96 436.949,162.66448 C 437.48381,161.27074 436.14465,160.76118 430.35722,160.15627 C 425.90822,159.69126 421.21046,158.29316 418.23209,156.54772 C 413.41385,153.72404 413.29791,153.71471 405.40259,155.51565 C 395.37066,157.80394 389.25064,156.39256 386.28406,151.10659 C 385.10903,149.01289 383.64262,147.84471 382.58468,148.15956 C 381.62069,148.44647 377.8217,149.77879 374.14248,151.12029 C 366.21798,154.0097 359.54651,154.24557 356.00031,151.76171 C 353.58327,150.06876 352.97845,150.26947 345.61871,155.20674 C 339.32652,159.42784 337.3743,160.21964 335.60022,159.27019 C 331.5213,157.08722 335.56016,149.08355 346.25809,138.14986 C 352.74675,131.5182 354.68539,130.19006 357.87687,130.19006 C 361.3664,130.19006 361.67458,130.4762 361.33777,133.40334 C 361.02492,136.12237 360.49,136.56097 357.86016,136.2547 C 355.38486,135.96645 353.33722,137.31222 347.80035,142.8663 C 341.59333,149.09262 338.08655,154.72787 340.41894,154.72787 C 341.3099,154.72787 349.72212,147.82496 354.30247,143.33532 C 358.06948,139.6429 360.38381,139.94645 360.38381,144.13292 C 360.38381,146.53939 361.08326,147.78157 362.73314,148.30523 C 364.788,148.95741 379.24196,144.89831 386.8876,141.52195 C 390.60056,139.88228 392.91289,141.16291 392.27399,144.50506 C 391.56556,148.21098 396.08338,151.27731 401.46112,150.74055 C 408.96713,149.99136 414.0602,148.6288 415.40319,147.01059 C 417.49353,144.49188 420.63076,145.07681 422.07897,148.25528 C 423.6886,151.78802 434.46464,155.28632 441.02613,154.40624 C 446.8602,153.62372 449.10756,155.01099 447.14247,158.18176 C 443.26597,164.43673 448.23814,164.49172 457.95079,158.30132 C 459.87875,157.07252 462.11344,156.02871 462.91676,155.98173 C 465.46503,155.83273 464.49226,161.22336 461.45619,164.0756 C 457.72304,167.5827 457.73297,169.20411 461.48184,168.2632 C 465.3105,167.30227 466.93497,170.68621 463.75964,173.00807 C 461.07852,174.96855 454.81034,175.0736 452.92638,173.18964 z M 208.0053,152.56307 C 207.66662,152.0151 208.14468,150.56912 209.06763,149.34979 C 209.9906,148.13046 210.76246,146.667 210.78292,146.09766 C 210.84033,144.49809 200.52274,146.28718 196.71359,148.5373 C 194.09866,150.08199 192.99767,150.22599 191.93407,149.16239 C 189.01226,146.24058 198.1097,133.17788 204.19163,131.56219 C 208.59043,130.39364 209.42454,131.28645 208.99474,136.70325 C 208.69223,140.51586 208.86023,140.70627 212.52668,140.70627 C 216.91132,140.70627 218.97708,138.75282 220.0284,133.61239 C 220.85153,129.58779 225.80523,125.90763 228.83467,127.07013 C 231.26859,128.00411 230.01368,130.68103 223.52483,138.39686 C 220.25942,142.27973 219.26028,144.3729 219.76005,146.28401 C 220.30518,148.36861 219.94894,148.88553 217.96714,148.88553 C 216.60688,148.88553 215.49394,149.32694 215.49394,149.86644 C 215.49394,150.40594 214.15468,151.45756 212.51779,152.20337 C 208.95936,153.82471 208.79321,153.83795 208.0053,152.56307 z M 201.94912,140.12203 C 203.00184,138.51539 203.67976,137.20087 203.45566,137.20087 C 203.23153,137.20087 201.81324,138.51539 200.30387,140.12203 C 198.7945,141.72868 198.11657,143.0432 198.79734,143.0432 C 199.4781,143.0432 200.89641,141.72868 201.94912,140.12203 z"
       id="path2535" />
  </g>
</svg>
