<?xml version="1.0" encoding="UTF-8" standalone="no"?>
<!-- Created with Inkscape (http://www.inkscape.org/) -->

<svg
   xmlns:dc="http://purl.org/dc/elements/1.1/"
   xmlns:cc="http://creativecommons.org/ns#"
   xmlns:rdf="http://www.w3.org/1999/02/22-rdf-syntax-ns#"
   xmlns:svg="http://www.w3.org/2000/svg"
   xmlns="http://www.w3.org/2000/svg"
   xmlns:sodipodi="http://sodipodi.sourceforge.net/DTD/sodipodi-0.dtd"
   xmlns:inkscape="http://www.inkscape.org/namespaces/inkscape"
   width="1055.6271"
   height="439.98883"
   id="svg2"
   version="1.1"
   inkscape:version="0.48.0 r9654"
   sodipodi:docname="Стаффорд.svg">
  <defs
     id="defs4" />
  <sodipodi:namedview
     id="base"
     pagecolor="#ffffff"
     bordercolor="#666666"
     borderopacity="1.0"
     inkscape:pageopacity="0.0"
     inkscape:pageshadow="2"
     inkscape:zoom="1"
     inkscape:cx="527.81354"
     inkscape:cy="219.99442"
     inkscape:document-units="px"
     inkscape:current-layer="layer1"
     showgrid="false"
     inkscape:window-width="1280"
     inkscape:window-height="968"
     inkscape:window-x="-4"
     inkscape:window-y="-4"
     inkscape:window-maximized="1"
     fit-margin-top="0"
     fit-margin-left="0"
     fit-margin-right="0"
     fit-margin-bottom="0" />
  <metadata
     id="metadata7">
    <rdf:RDF>
      <cc:Work
         rdf:about="">
        <dc:format>image/svg+xml</dc:format>
        <dc:type
           rdf:resource="http://purl.org/dc/dcmitype/StillImage" />
        <dc:title></dc:title>
      </cc:Work>
    </rdf:RDF>
  </metadata>
  <g
     inkscape:label="Layer 1"
     inkscape:groupmode="layer"
     id="layer1"
     transform="translate(1719.6883,453.70627)">
    <path
       style="fill:#000000"
       d="m -940.905,-453.70375 c -29.78329,0.108 -59.5669,3.67158 -87.3437,14.6875 -18.91,19.25072 -41.2436,2.42314 -63.0626,8.5 -31.2888,9.72262 -47.6882,41.41628 -53.3124,71.5625 -6.0845,39.75005 -14.9038,79.84997 -33.6876,115.78125 -10.7549,25.29007 -38.7346,35.06108 -57.75,52.84375 -32.6165,26.65196 -67.8532,49.92589 -99.5312,77.78125 -14.7674,14.82933 -34.9175,28.658 -39.0938,50.40625 6.7902,25.22812 37.3026,12.38536 53.0938,3.71875 25.4958,-16.6216 46.4663,-39.13161 66.5625,-61.78125 22.7153,-25.81972 44.9864,-52.45186 63.1875,-81.71875 10.4513,-21.46785 28.6894,-37.02953 46.9688,-51.65625 33.2254,-26.57264 62.2753,-58.16267 96.8437,-83 -16.3021,21.15779 -37.1329,38.59216 -52.5,60.5 -19.9635,21.68589 -38.5195,44.90588 -55.125,69.375 -11.2525,23.37028 19.3881,12.35507 24.625,-1.03125 6.9529,-5.34733 37.6889,-42.88133 29.1875,-19.09375 -4.6545,30.04746 32.0333,14.20563 43.6562,3.28125 -8.0167,15.01386 -22.0169,28.74809 -32.4687,42.96875 -25.3082,35.8327 -54.0188,69.76311 -74.7187,108.71875 -7.3567,16.81728 -23.99,37.47279 -15.375,55.59375 4.5249,5.04944 10.6601,1.52748 15.1562,-1.40625 17.8648,-15.0424 32.0904,-34.4103 44.0625,-54.34375 17.3035,-25.46658 39.3499,-47.41792 57.4375,-72.34375 13.8383,-15.36791 26.0388,-31.9881 39.75,-47.5625 15.5204,-21.3441 33.8834,-40.47226 49.25,-61.9375 18.9628,-24.19819 37.951,-48.87797 60.96875,-69.46875 14.15608,-9.05507 31.11202,-30.59359 47.40625,-26.59375 -31.05124,34.6345 -65.59922,66.0099 -96.875,100.46875 -39.2,44.40536 -76.2883,90.68219 -112.0625,137.875 -11.4698,20.68354 -28.8477,37.91602 -37.25,60.28125 -10.72,16.47785 5.9555,34.17478 20.125,17.375 19.6727,-20.13573 36.7564,-42.75022 53.0625,-65.625 19.2677,-26.86596 36.2934,-55.39244 57.9375,-80.5 22.1958,-33.34621 50.21922,-62.26064 80.25,-88.625 12.20192,-8.0774 31.04575,-27.07473 41.4375,-24.90625 -14.26854,24.1326 -33.70725,44.73595 -52.78125,65.125 -5.83722,9.94527 -36.23827,30.71955 -16.84375,37.375 21.72096,-10.60368 36.06536,-31.57907 54.71875,-46.5 4.69482,-2.83056 25.07926,-23.85195 22.78125,-14 -7.47769,25.89555 21.22462,11.69306 28.25,-0.375 8.86148,-16.74851 20.48211,2.3293 32.6875,-6.46875 20.35403,-11.04924 41.43651,-23.0725 56.46875,-41 10.37695,-15.98026 4.67594,-35.54002 -1.59375,-51.28125 23.90026,-2.99525 48.34054,2.66412 72.34375,-0.1875 -8.38701,-5.96357 -33.51573,-4.42305 -48.03125,-6.71875 -20.3728,0.26139 -41.56882,-1.69724 -52.15625,-21.875 -13.81866,-11.4479 -25.98937,-25.31884 -40.4375,-35.59375 -30.0046,-16.47583 -61.00206,-33.63328 -95.8125,-37 -13.34439,-1.00267 -26.86839,-1.67409 -40.40625,-1.625 z m 8.21875,7.75 c 21.80056,-0.15003 43.55156,1.21641 64.375,8.0625 16.68601,7.73365 46.24892,13.78443 51.1875,31.34375 -20.58227,14.25302 -41.16678,28.64373 -61.46875,43.34375 -10.75368,2.71875 -22.38685,2.42503 -33.3125,0.84375 0.84763,-12.94005 22.20977,-20.90457 28.96875,-33.8125 8.41847,-19.66803 -18.53488,-5.27103 -23.8125,3.6875 -16.20107,12.40127 -28.97412,36.82883 -52.90625,30.4375 -9.1766,-3.21372 -27.78645,-0.14234 -40.8437,-3.59375 22.56845,-23.16403 26.99985,-38.26289 5.99995,-28.28125 -14.72465,11.68102 -31.93095,32.32644 -51.18755,15.75 -19.3491,-1.13463 -23.5416,-33.29834 -7.125,-30.90625 -11.0918,23.57976 18.2803,2.52411 9.9063,-11 20.4773,-15.22724 46.6788,-19.75306 71.125,-24.84375 12.92807,-0.30353 26.01342,-0.94123 39.09375,-1.03125 z m -141.65625,23.46875 c 9.6059,0.0184 15.9535,3.57754 4.8438,12.75 -16.7942,24.06111 7.8931,33.77247 31.375,48.8125 -7.2273,9.32757 -30.1656,23.19373 -39.2188,34.46875 -22.711,20.78325 -45.9352,41.00709 -68.375,62.0625 -3.051,3.82822 -21.171,21.65919 -15.75,4.25 18.5279,-33.43754 20.7362,-72.02814 29.6562,-108.375 4.1939,-19.58138 15.0097,-39.11199 34.2188,-47.15625 3.7673,-4.08042 14.7742,-6.82877 23.25,-6.8125 z m 275.65625,25.09375 c 13.88407,7.15476 33.40365,22.69029 38.46875,36.40625 l -3.28125,1 c -23.18124,-0.41408 -46.63585,0.43531 -69.65625,-2.28125 2.06481,-13.67818 23.69896,-24.55302 34.46875,-35.125 z m -673.78125,3.90625 c -27.3751,-0.55395 -52.6654,17.27991 -70.8125,36.8125 -19.1796,4.26835 -8.4178,52.03092 -0.8437,22.84375 6.7952,-18.59128 23.8607,-32.07287 40.9687,-40.84375 17.1658,-10.82836 48.8809,-13.60656 55.5937,10.8125 8.7617,33.79741 -11.1984,66.54311 -29.75,93.25 -7.3573,17.36726 -25.8891,21.89927 -41.5312,28.65625 -43.8103,16.76422 -88.0149,32.43953 -131.0625,51.125 -22.4752,9.64228 -44.3439,24.00813 -58.4063,44.34375 -11.5,15.22017 -20.5188,47.98694 5.3126,53.8125 7.5209,1.14579 15.1638,0.92143 22.75,1.03125 10.8395,-0.0155 19.6154,-9.04631 29.4687,-12.8125 21.5884,-13.59892 44.1999,-25.87415 64.0937,-42 38.1646,-26.56367 68.9202,-61.72569 101.7813,-94.1875 18.0033,-12.04571 39.8523,-16.93204 60.0625,-24.21875 7.6518,3.20023 -15.3054,18.59608 -19.75,25.90625 -23.4222,25.69199 -50.7126,47.94158 -71.5312,75.90625 -17.6233,13.90875 7.6297,26.71761 18.0312,11.96875 35.2423,-31.787 61.1816,-72.96207 98.6875,-102.34375 8.9049,-3.3511 39.878,-33.32697 36.5313,-11.34375 -12.6921,24.59577 -27.9787,48.06849 -45.5,69.5625 -2.0326,24.03624 22.3707,-0.27409 28.8124,-8.65625 14.6128,-16.15034 24.4218,-36.52919 41.6563,-50.5 19.6038,-11.43684 -5.1742,19.32753 -2.7813,27.96875 11.6962,18.40863 28.0727,-13.763 40.1563,-19.65625 12.6919,-13.9236 9.7212,5.48221 16.6875,11.28125 6.5119,-6.49193 23.6776,-40.34809 2.5625,-37.0625 -11.1448,1.19419 -41.2571,32.90639 -31.1563,4.46875 2.4865,-26.42244 -26.1714,-5.93045 -35,3.25 0.2582,-7.69529 2.1901,-38.15783 -18.6562,-25.09375 -12.1013,-9.15497 -25.9697,-2.38478 -38.9062,4.375 -21.0785,5.4319 -41.775,18.40062 -62.7188,20.3125 11.2616,-18.7424 23.2276,-37.61577 29.0312,-58.9375 9.3775,-23.66606 5.3428,-59.1742 -21.9374,-68.59375 -3.9814,-0.87792 -7.9331,-1.35836 -11.8438,-1.4375 z m 639.46875,9.875 c 3.22218,-0.46558 -4.71938,10.55068 -10.3125,14.78125 -2.2013,2.14817 -4.25017,4.47392 -6.8125,6.21875 -20.60374,3.95391 3.88695,-11.35374 9.6875,-16.03125 4.04783,-3.38422 6.36344,-4.81356 7.4375,-4.96875 z m -179.24995,29.21875 c 15.88215,2.96965 40.28725,3.44236 57.06245,6.90625 -19.0164,24.61842 -39.25275,48.45505 -59.21875,72.375 -18.9624,18.68356 -40.5143,34.88624 -62.7187,49.46875 -2.6594,1.35001 -5.2551,2.86603 -8.125,3.75 -11.6279,-11.00333 13.6103,-30.05726 20.9062,-41.125 15.9,-18.56812 -10.6339,-18.97475 -18.875,-5.53125 -9.1638,4.06957 -24.8692,29.40285 -29.7188,22.78125 26.3363,-31.51871 64.5046,-80.06886 100.6876,-108.625 z m 187.2812,0.96875 c 11.66068,-0.0521 23.67308,1.3526 34.96875,0.3125 18.37102,0.64627 44.42367,-5.49509 50.3125,18.28125 8.4249,19.44165 -7.88548,36.86586 -23.5625,46 -7.36672,5.42793 -39.06987,26.58413 -21.78125,5.5 6.18716,-7.05151 35.15163,-29.03385 10.59375,-28.96875 -20.85572,12.48172 -34.85973,34.83673 -55.65625,46.53125 3.45631,-25.60082 -22.84398,-7.60658 -30.125,3.25 -13.20054,11.92394 -6.27748,-3.42232 -0.15625,-9 6.7457,-11.09994 31.92046,-39.26903 7.78125,-41.59375 -20.51724,7.65256 -37.73067,22.41975 -54.53125,36.15625 -60.11345,48.98694 -100.65945,115.90501 -145.40625,178.0625 -13.9582,16.98168 -25.3121,35.97717 -39.9375,52.375 l -1.9375,1.96875 -1.875,1.875 c -13.74,16.04539 -12.346,-8.23982 -3.625,-15.125 17.7003,-33.07838 41.9582,-61.83781 64.5313,-91.5625 17.2649,-19.5174 31.9921,-40.99696 49.24995,-60.46875 41.13578,-49.93293 88.32798,-94.39674 135.0625,-139 8.15322,-3.64277 17.02433,-4.55319 26.09375,-4.59375 z m -87.65625,0.84375 c 10.54213,-0.3734 18.99538,2.97839 6.75,9.53125 -52.00807,41.74626 -87.71305,99.05707 -130.96875,149.03125 -23.525,30.30889 -47.9713,59.96432 -71.8125,90.0625 -21.0898,22.04137 -33.4211,50.8873 -55.6563,71.875 -2.2682,2.76877 -9.0924,3.91418 -8.4062,-1.65625 7.9928,-25.25472 22.1627,-48.10446 37.0938,-69.8125 18.8101,-28.67697 39.9882,-55.9292 61.4374,-82.65625 24.4373,-30.81037 49.3314,-61.55941 77.0938,-89.59375 22.6503,-22.02077 43.10124,-46.14012 64.875,-68.9375 1.94203,-5.01455 11.39432,-7.55333 19.59375,-7.84375 z M -1515.9675,-230.985 c 1.8975,0.0287 3.3288,0.65278 4.0938,2.15625 -29.6339,34.63325 -65.0187,63.68394 -102.0938,90 -21.5815,13.74671 -43.1444,29.0118 -67.75,36.65625 -11.0255,3.6355 -27.3466,3.85634 -27.8438,-11.59375 1.4422,-26.32863 24.4766,-43.71706 44.1563,-57.78125 36.7448,-19.27776 76.3045,-32.61573 115.125,-47.0625 9.1639,-1.24694 26.0902,-12.49945 34.3125,-12.375 z m 307.25,34.1875 c -16.2427,30.18288 -41.5214,54.39913 -63.7188,80.21875 -20.7253,21.46406 -41.0588,47.71438 -71.5,54.96875 -10.4189,2.63486 -21.9643,1.01851 -13.4374,-12.21875 13.0027,-20.35283 32.7594,-35.46801 51.125,-50.8125 16.9454,-14.60095 36.496,-25.74911 53.4374,-40.59375 15.149,-9.14309 27.2717,-28.27705 44.0938,-31.5625 z m -272.2812,10.71875 c -3.0429,10.80325 -11.8763,17.03046 -20.25,23.5625 5.4813,-9.17383 11.4985,-17.6685 20.25,-23.5625 z"
       id="path3796"
       inkscape:connector-curvature="0" />
  </g>
</svg>
