<?xml version="1.0" encoding="UTF-8"?>
<svg version="1.0" xmlns="http://www.w3.org/2000/svg" width="252" height="53" >
<path fill="#231F20" d="M29.411,22.494c-2.089-0.596-4.129-1.347-6.12-2.216c-3.623-1.582-5.932-3.396-1.889-6.164 c3.374-2.309,6.914-4.441,10.575-6.261c3.821-1.9,2.12,0.75,1.131,2.805c-5.776,12.009-10.854,24.66-17.952,35.969 c-0.444,0.708-0.919,1.412-1.495,2.021c0.153-0.162-2.65-3.272-2.826-3.52C8.697,42.12,7.002,38.561,5.98,35.019 c-1.157-4.006,5.882-3.996,8.663-4.673c2.55-0.622,13.623-5.703,13.864-2.93c0.298,3.443-8.829,17.378-6.078,19.371 c3.355,2.429,7.289-3.91,7.902-6.177c-0.639,0.145-1.278,0.29-1.917,0.435c0.934,2.475,3.345,3.875,5.884,4.076 c1.446,0.114,8.357-3.443,8.812-2.317c0.532-0.212,1.064-0.425,1.597-0.637c-1.647-0.103-3.842,0.192-5.191,1.218 c-1.619,1.232-2.872,5.852,0.399,4.975c3.246-0.87,3.88-4.057,6.425-5.771c0.99-0.667,7.644-4.652,8.649-3.349 c0.521,0.676-0.884,7.5-2.358,5.454c-0.329-0.457-2.061,0.339-1.932,0.518c4.235,5.878,8.082-6.801,4.971-6.961 c-3.084-0.159-6.707,2.028-9.287,3.413c-1.052,0.565-3.05,1.518-3.655,2.658c-0.214,0.404-2.046,4.042-2.875,2.796 c-1.466-2.202,1.815-4.305,3.592-4.194c0.203,0.013,1.752-0.251,1.597-0.637c-0.558-1.384-1.883-1.33-3.161-0.82 c-1.616,0.645-3.087,1.52-4.64,2.305c-2.896,1.464-5.957-0.757-6.895-3.243c-0.151-0.4-1.82,0.076-1.917,0.435 c-0.171,0.633-3.16,7.081-4.35,4.807c-0.852-1.627,1.301-5.123,1.981-6.649c1.658-3.721,3.705-7.5,4.342-11.565 c0.294-1.88-0.809-2.875-2.604-2.61c-1.157,0.171-2.291,0.479-3.353,0.984c-4.35,2.068-8.654,3.663-13.375,4.63 c-1.881,0.385-4.931,0.524-6.466,1.921c-2,1.819,0.259,5.56,1.112,7.465c1.16,2.593,5.068,11.755,9.354,8.809 c1.339-0.92,2.194-2.78,2.992-4.128c1.978-3.34,3.709-6.833,5.445-10.303c3.672-7.34,7.126-14.787,10.64-22.204 c1.011-2.133,4.663-7.281-0.253-5.708c-3.08,0.984-5.924,2.702-8.692,4.336c-2.505,1.479-6.554,3.237-8.184,5.775 c-1.916,2.982,8.976,6.177,10.801,6.699C28.248,23.343,29.941,22.646,29.411,22.494L29.411,22.494z M60.465,42.697c0.25,0.767,0.5,1.533,0.751,2.3c0.208,0.636,2.128,0.085,1.932-0.518 c-0.25-0.767-0.5-1.533-0.751-2.3C62.189,41.544,60.268,42.095,60.465,42.697L60.465,42.697 M86.641,15.412C77.35,16.52,75.163,27.044,73.5,34.557c-0.298,1.344-2.744,9.357-0.61,10.173 c2.416,0.923,3.788-4.359,4.299-5.662c2.262-5.766,4.011-11.717,6.33-17.464c1.221-3.026,2.631-6.01,4.579-8.641 c1.814-2.451,7.795-2.336,5.036,1.473c-1.142,1.576-2.457,3.055-3.639,4.605c-1.507,1.976-4.979,4.329-4.888,7.006 c0.193,5.7,2.128,11.598,3.459,17.089c0.228,0.942,2.161,0.43,1.932-0.518c-1.319-5.445-3.007-11.083-3.428-16.699 c-0.117-1.559-0.619-0.227,0.278-1.056c2.004-1.853,3.538-4.229,5.186-6.389c1.858-2.437,6.697-6.889,3.159-9.94 c-2.6-2.243-7.247,2.035-8.726,3.805c-6.849,8.195-8.095,20.337-12.553,29.802c-0.583,1.238,0.272,1.097,0.285,0.263 c0.017-1.148,0.229-2.307,0.4-3.438c0.479-3.173,1.232-6.31,2.03-9.415c1.319-5.129,3.695-11.917,9.86-12.651 C87.586,16.769,87.951,15.256,86.641,15.412L86.641,15.412 M94.534,38.025c0.395,0,2.198-0.773,1.257-0.773C95.396,37.252,93.593,38.025,94.534,38.025 L94.534,38.025z M97.418,38.926c-0.419-1.15-0.839-2.3-1.259-3.451c-0.16-0.438-2.063,0.158-1.932,0.518 c0.419,1.15,0.839,2.3,1.259,3.451C95.646,39.882,97.549,39.286,97.418,38.926L97.418,38.926 M123.032,27.387c-3.208-5.372-6.504-10.971-8.539-16.909c-0.423-1.234-0.913-2.424,0.45-3.076 c1.822-0.873,3.573-1.866,5.429-2.671c6.78-2.939,1.841,8.021,0.888,10.565c-1.608,4.29-3.393,8.521-5.377,12.65 c-0.712,1.482-1.487,2.933-2.344,4.335c-1.273,2.083-0.797,1.565-0.732-0.988c0.154-6.075,3.758-12.429,7.99-16.596 c4.653-4.583,8.044-1.072,7.486,3.743c-0.426,3.681-2.233,7.256-3.912,10.49c-0.446,0.86,1.497,0.677,1.809,0.079 c1.874-3.59,4.008-7.242,6.858-10.142c1.94-1.975,5.18-1.375,4.55,1.657c-0.438,2.115-0.732,4.157-0.853,6.317 c-0.096,1.735-0.027,3.526,0.149,5.255c0.07,0.695,2.011,0.259,1.932-0.518c-0.49-4.811,0.808-9.081,1.062-13.781 c0.108-2.008-2.056-2.378-3.559-1.881c-6.033,1.998-9.143,7.637-11.948,13.012c0.603,0.026,1.206,0.053,1.809,0.079 c1.598-3.079,8.291-16.318,1.193-17.565c-6.333-1.112-10.808,5.244-13.458,10.093c-0.823,1.505-5.725,13.917-1.571,13.439 c3.657-0.42,5.882-8.016,7.065-10.654c1.504-3.356,2.863-6.779,4.154-10.222c0.938-2.502,2.799-6.08,2.599-8.815 c-0.386-5.285-8.48-0.571-10.646,0.555c-1.142,0.594-3.044,0.987-3.412,2.396c-0.511,1.959,1.245,4.906,1.996,6.586 c2.053,4.593,4.567,9.024,7.145,13.342C121.594,28.751,123.47,28.12,123.032,27.387L123.032,27.387 M155.441,19.939c-4.354-1.061-9.221,1.353-9.221,6.26c0,1.414,1.723,1.916,2.848,1.554 c2.665-0.857,4.675-2.815,5.638-5.442c-0.631,0.043-1.263,0.085-1.895,0.128c0.236,2.413,1.14,5.516,3.928,3.685 c1.795-1.18,3.175-3.794,4.619-5.381c2.361-2.593,0.47,2.863,1.268,4.206c0.264,0.443,0.938,0.322,1.319,0.172 c2.664-1.048,5.544-4.91,7.888-6.69c1.762-1.338,3.596-2.627,5.591-3.593c0.656-0.317-1.129,3.406-1.137,3.422 c-1.58,3.328-1.803,1.934-3.419,1.755c2.463,0.272,4.174,1.117,6.706,0.256c4.217-1.434,6.516-6.294,8.189-10.013 c0.46-1.021-1.292-1.011-1.745-0.444c-2.398,3.003-7.453,9.111-4.866,13.068c2.043,3.125,7.209-3.098,8.213-4.408 c-0.566,0.041-1.132,0.082-1.698,0.123c2.532,3.806,6.695,3.407,10.033,0.997c1.7-1.229,5.55-7.663,0.813-5.259 c-3.189,1.618-3.344,6.819,0.413,7.827c3.294,0.884,4.837-4.723,5.371-6.879c-0.649,0.107-1.298,0.215-1.947,0.322 c1.755,5.12,4.759,7.162,8.849,3.03c2.71-2.738,5.555-5.791,7.06-9.395c0.592-1.417-0.085-3.138-1.843-2.667 c-4.067,1.09-5.683,11.757-0.248,11.221c3.121-0.308,5.588-2.504,7.759-4.597c1.558-1.5,5.013-4.686,4.856-7.17 c-0.026-0.417-0.271-0.582-0.656-0.674c-1.342-0.321-2.485,1.376-2.975,2.363c-1.335,2.691-1.507,5.451,0.872,7.611 c6.146,5.581,14.486,2.384,21.133-0.587c1.204-0.538,0.138-1.671-0.877-1.217c-5.612,2.509-12.733,5.531-18.199,1.173 c-1.448-1.154-2.063-2.439-1.949-4.293c0.191-1.063,0.59-2.041,1.197-2.931c0.729-0.622,0.523-0.834-0.618-0.636 c-0.715,2.292-3.217,4.574-4.875,6.172c-2.156,2.078-7.469,4.972-7.129-0.669c0.075-1.239,1.774-2.956,1.807-3.789 c-0.059,1.501-1.648,3.229-2.463,4.345c-1.635,2.241-3.577,4.33-5.641,6.175c-2.036,1.82-3.784-2.982-4.128-3.984 c-0.316-0.924-1.758-0.443-1.947,0.322c-0.217,0.876-0.518,1.723-0.837,2.566c-1.054,2.782-4.456,2.117-3.215-1.14 c0.716-0.348,0.995-0.815,0.838-1.401c-0.81,2.475-4.815,5.195-7.363,4.33c-0.939-0.319-1.785-1.224-2.326-2.039 c-0.365-0.547-1.355-0.325-1.698,0.123c-0.514,0.671-1.069,1.303-1.636,1.929c-2.294,2.533-4.157,1.088-2.988-2.035 c0.992-2.65,2.786-5.1,4.543-7.299c-0.582-0.148-1.164-0.296-1.745-0.444c-1.562,3.468-3.488,7.775-7.386,9.1 c-1.609,0.547-3.147-0.138-4.69-0.486c-1.272-0.287-2.625,0.244-2.395,1.764c1.423,9.368,11.194-6.331,7.494-7.192 c-2.499-0.582-5.789,2.409-7.601,3.708c-1.974,1.416-3.864,2.958-5.683,4.57c-0.484,0.429-0.945,0.883-1.395,1.35 c0.07,1.151,0.116,1.137,0.138-0.044c0.069-0.925,0.112-1.852,0.13-2.78c0.085-2.461-1.946-2.249-3.463-1.146 c-1.732,1.258-3.059,3.25-4.396,4.889c-1.784,2.185-1.717,0.242-1.918-1.807c-0.085-0.864-1.678-0.464-1.895,0.128 c-0.24,0.859-0.66,1.629-1.26,2.308c-1.434,1.91-4.911,2.291-2.302-1.667c1.123-1.704,3.788-1.694,5.504-1.276 C155.782,21.655,156.71,20.248,155.441,19.939L155.441,19.939z"/>
</svg>