<?xml version="1.0" encoding="UTF-8"?>
<svg version="1.0" xmlns="http://www.w3.org/2000/svg" width="704" height="234" >
<path fill="#231F20" d="M62.67,95.422c0.263-2.479,1.556-4.967,2.654-7.147c4.103-8.145,10.439-15.249,16.685-21.788 c9.688-10.142,20.678-19.156,31.172-28.446c9.153-8.104,18.357-16.166,27.892-23.82c3.478-2.792,7.018-5.53,10.723-8.014 c1.287-0.863,2.612-1.663,3.972-2.404c1.491-0.812,1.435-0.211,0.929-0.673c0.759,0.693-0.891,3.231-1.507,4.281 c-4.463,7.603-9.965,14.666-15.253,21.699c-18.593,24.731-38.248,48.692-58.166,72.361 c-19.473,23.139-39.181,46.313-60.568,67.722c-3.94,3.945-7.963,7.833-12.252,11.4c-1.332,1.107-2.697,2.194-4.16,3.123 c-1.633,1.037-1.725,0.52-0.164,0.68c-1.678-0.173-6.792,2.646-3.595,2.975c5.863,0.602,11.377-4.913,15.375-8.455 c8.448-7.483,16.208-15.781,23.884-24.039c22.158-23.835,43.197-48.738,63.864-73.868c17.449-21.217,34.967-42.581,50.771-65.07 c2.331-3.316,7.862-9.203,7.754-13.613c-0.11-4.486-8.042-1.272-9.877-0.327c-7.405,3.816-13.972,9.475-20.375,14.726 c-9.752,8-19.188,16.389-28.616,24.765c-9.958,8.847-20.152,17.495-29.272,27.224c-5.766,6.15-11.088,12.853-14.993,20.352 c-1.121,2.153-2.393,4.684-2.654,7.147C56.663,98.375,62.478,97.236,62.67,95.422L62.67,95.422 M168.713,31.341c3.486-3.118,7.267-7.046,11.488-9.119c-3.763,1.848-2.176-1.65-3.017,0.483 c-0.227,0.575-0.637,1.169-0.965,1.689c-0.208,0.33-0.424,0.654-0.64,0.978c-0.761,1.144-1.544,2.271-2.328,3.398 c-6.119,8.803-12.441,17.466-18.776,26.114c-19.258,26.291-38.91,52.353-59.652,77.497c-8.176,9.912-16.48,19.88-25.772,28.779 c-2.468,2.362-5.07,4.866-8.117,6.475c-0.521,0.274,0.711-0.201,0.988,0.021c-1.983-1.578-3.068-4.694-3.92-6.975 c-4.763-12.746-4.522-33.398,8.919-40.867c4.784-2.659,10.933-1.872,16.159-1.941c7.082-0.093,14.157-0.427,21.214-1.021 c12.151-1.023,24.209-3.299,35.646-7.586c5.499-2.062,10.748-4.812,15.661-8.017c3.037-1.981-1.13-2.745-2.907-1.916 c-14.846,6.925-26.414,21.86-35.058,35.154c-2.851,4.385-5.517,8.959-7.513,13.803c-0.713,1.732-2.083,5.059-0.721,6.837 c2.896,3.782,9.724-1.671,11.867-3.701c4.697-4.451,8.105-10.161,11.528-15.592c4.98-7.901,9.773-15.919,14.669-23.873 c5.258-8.541,10.6-17.038,16.299-25.293c4.169-6.038,8.534-12.502,14.207-17.248c3.115-2.606,34.136-24.012,35.512-21.704 c1.291,2.165-1.861,6.895-2.772,8.551c-1.795,3.263-3.912,6.355-6.041,9.406c-5.095,7.299-10.65,14.28-16.224,21.215 c-12.154,15.122-24.836,29.821-36.745,45.14c-2.023,2.602-18.021,20.665-12.617,24.369c4.208,2.884,10.887-2.252,14.095-4.58 c8.226-5.969,15.527-13.334,22.745-20.45c7.647-7.54,15.089-15.284,22.554-23.003c2.621-2.71,5.26-5.401,7.91-8.083 c0.712-0.721,2.108-1.736,2.075-2.871c-0.013-0.448-0.792-0.705-1.109-0.745c-3.217-0.415-5.46,2.105-7.605,4.074 c-3.904,3.584-7.656,7.338-11.33,11.156c-7.959,8.272-17.133,17.439-21.575,28.229c-4.688,11.39,9.615,10.123,16.404,7.737 c15.291-5.371,27.95-19.186,38.661-30.749c7.054-7.616,13.82-15.595,20.028-23.922c1.62-2.172-4.322-1.198-5.376-0.048 c-8.679,9.466-17.328,19.494-23.918,30.546c-2.198,3.686-5.49,9.103-2.106,13.032c3.315,3.848,10.426-0.48,13.389-2.532 c9.71-6.722,17.811-15.673,26.583-23.507c7.64-6.822,18.282-14.861,28.814-16.125c9.461-1.135-6.353,18.583-7.578,20.13 c-7.313,9.238-15.389,19.538-25.499,25.874c-4.432,2.777-4.796-2.244-4.762-5.787c0.016-1.679-5.774-0.629-5.796,1.553 c-0.066,6.874,3.737,10.295,10.489,7.617c8.69-3.448,15.528-11.426,21.643-18.178c4.315-4.764,8.362-9.772,12.293-14.855 c3.067-3.965,6.439-8.078,7.943-12.945c1.957-6.336-5.034-6.984-9.481-6.249c-22.444,3.71-38.298,24.495-54.716,38.145 c-1.713,1.424-5.549,4.989-7.402,5.05c-1.831,0.061-1.55-3.992-1.307-4.959c1.76-6.996,7.589-13.57,11.899-19.135 c4.704-6.075,9.695-11.963,14.888-17.627c-1.792-0.016-3.584-0.032-5.376-0.048c-6.635,8.899-13.911,17.374-21.481,25.484 c-6.277,6.725-12.953,13.135-20.219,18.787c-5.325,4.142-12.291,9.288-19.375,9.182c-10.383-0.157,3.856-18.135,5.851-20.637 c7.211-9.045,15.402-17.462,23.97-25.229c0.444-0.403,2.558-2.13,1.914-1.697c-8.139,5.464-3.249-2.135-4.557-0.552 c-0.127,0.153-0.265,0.298-0.4,0.445c-0.652,0.708-1.355,1.373-2.032,2.055c-5.6,5.643-11.069,11.416-16.616,17.111 c-6.731,6.913-13.53,13.764-20.548,20.388c-5.423,5.118-11.012,10.501-17.394,14.424c-0.679,0.417-1.417,0.862-2.182,1.085 c0.821-0.239,0.729,0.306,0.476-0.38c-0.463-1.252,0.66-3.214,1.193-4.274c2.831-5.629,6.909-10.723,10.718-15.703 c11.705-15.302,24.339-29.884,36.459-44.854c5.705-7.046,11.338-14.162,16.627-21.528c3.941-5.488,8.98-11.874,10.427-18.598 c1.14-5.297-5.353-4.428-8.473-3.38c-7.201,2.418-13.737,7.027-20.006,11.2c-6.002,3.996-12.491,7.859-18.027,12.49 c-5.51,4.608-9.774,10.927-13.866,16.75c-11.167,15.892-20.806,32.806-31.093,49.265c-3.38,5.408-6.736,11.068-11.279,15.601 c-0.962,0.96-2.005,1.851-3.173,2.548c1.558-0.93,1.118,0.747,1.257-1.42c0.255-3.96,2.898-8.082,4.766-11.404 c6.351-11.299,14.499-21.86,24.148-30.529c2.657-2.388,5.49-4.597,8.489-6.539c0.787-0.509,1.595-0.986,2.414-1.441 c0.537-0.299,0.824-0.419,0.396-0.219c-0.969-0.639-1.938-1.277-2.907-1.916c-10.862,7.086-23.077,10.798-35.808,12.812 c-13.702,2.167-27.4,1.19-41.114,2.426c-16.555,1.491-25.182,14.377-25.564,30.173c-0.163,6.725,0.957,13.679,3.75,19.826 c1.484,3.267,3.131,6.174,7.016,5.77c7.1-0.737,13.581-8.715,18.127-13.429c21.263-22.046,39.811-46.923,58.292-71.287 c14.874-19.608,29.784-39.309,43.635-59.662c1.948-2.862,5.174-8.502-1.306-6.705c-5.603,1.554-10.752,7.136-14.974,10.913 C161.618,32.709,167.376,32.537,168.713,31.341L168.713,31.341 M302.415,109.611c-3.801-18.991,1.869-40.06,11.17-56.545c5.518-9.779,12.43-18.798,20.057-27.019 c6.641-7.158,14.372-14.25,23.56-17.916c6.209-2.478,12.715-0.483,13.542,6.631c0.913,7.862-3.877,16.642-7.366,23.323 c-9.703,18.583-23.295,35.354-38.172,50.022c-12.875,12.695-24.672,26.551-36.097,40.548c-4.448,5.45-8.827,10.967-12.985,16.643 c-1.477,2.016-4.94,5.488-4.671,8.249c0.245,2.508,6.057,1.123,5.796-1.553c0.088,0.899,0.361-0.226,0.628-0.677 c0.538-0.908,1.147-1.777,1.747-2.646c2.193-3.171,4.58-6.217,6.946-9.259c6.577-8.457,13.442-16.693,20.439-24.804 c13.958-16.182,29.893-30.566,43.044-47.425c6.519-8.356,12.528-17.164,17.689-26.424c3.997-7.171,7.81-15.106,8.781-23.354 c0.64-5.435-1.07-10.953-6.438-13.195c-6.566-2.743-13.843-0.379-19.806,2.774c-18.331,9.694-32.82,28.896-42.805,46.592 c-9.429,16.711-14.689,38.434-10.856,57.586C297.129,113.715,302.938,112.227,302.415,109.611L302.415,109.611 M325.877,92.509c3.569-1.294,7.647-2.625,11.477-2.521c7.209,0.196-8.435,17.326-10.019,19.202 c-6.583,7.792-15.255,15.913-18.847,25.691c-1.978,5.385,1.232,10.488,7.112,10.443c5.2-0.04,10.193-3.183,14.444-5.845 c6.831-4.278,13.083-9.518,19.136-14.815c11.916-10.428,23.723-21.774,33.228-34.491c1.294-1.731,5.703-6.755,3.969-9.238 c-2.17-3.105-6.617,0.755-8.326,2.358c-9.464,8.873-17.449,19.757-24.905,30.313c-3.843,5.442-7.563,11.046-10.574,16.999 c-1.414,2.795-4.025,7.64-2.479,10.852c3.887,8.079,19.466-4.546,23.046-7.161c13.154-9.609,25.383-20.465,38.014-30.738 c5.436-4.421,10.925-8.816,16.732-12.744c1.82-1.231,3.691-2.377,5.691-3.294c0.318-0.146,1.524-0.49,1.232-0.448 c0.357-0.051-0.384-0.363-0.255,0.014c1.137,3.336-5.81,10.094-7.607,12.241c-5.083,6.07-10.574,11.795-15.934,17.619 c-2.164,2.351-21.548,21.101-11.665,23.192c4.103,0.868,8.536-2.568,11.646-4.751c5.527-3.881,10.662-8.309,16.08-12.34 c2.513-1.87,9.946-8.673,13.031-5.444c3.818,3.996-2.511,12.082-5.198,15.109c1.617,0.572,3.234,1.143,4.852,1.715 c4.654-6.468,9.069-13.131,13.199-19.944c2.626-4.332,5.222-8.807,6.945-13.586c1.161-3.217-0.532-14.464,3.553-14.378 c10.843,0.226,21.254,0.773,32.146-0.41c15.478-1.682,31.084-5.278,45.001-12.416c2.571-1.319,1.716-3.86-1.027-3.835 c-8.728,0.077-17.914,6.191-24.704,10.93c-10.118,7.062-18.915,16.022-27.02,25.264c-7.968,9.085-15.935,18.378-22.948,28.232 c-2.187,3.072-6.302,8.022-5.26,12.175c0.89,3.543,6.231,3.219,8.924,2.978c12.83-1.146,24.664-9.701,35.229-16.375 c12.278-7.755,24.201-16.11,35.798-24.848c4.235-3.191,8.432-6.45,12.449-9.914c1.846-1.591,4.247-4.481,5.355-5.57 c-0.895,0.422-1.789,0.845-2.683,1.267c0.013-0.001,0.025-0.001,0.038-0.002c-0.881-0.449-1.761-0.898-2.642-1.348 c-0.161-0.707-0.245,0.382-0.391,0.823c-0.363,1.102-0.757,2.193-1.146,3.286c-1.209,3.402-2.442,6.796-3.637,10.204 c-1.874,5.348-4.684,11.475-4.908,17.219c-0.178,4.549,5.062,2.598,7.226,1.086c4.317-3.017,8.204-6.761,12.129-10.255 c10.941-9.741,21.583-19.94,33.165-28.93c1.588-1.232,3.214-2.496,4.977-3.471c1.651-0.913-0.085,0.315-1.403-0.933 c-0.496-0.47-0.271,0.604-0.43,1.477c-0.959,5.292-3.168,10.265-5.744,14.952c-8.489,15.448-22.114,28.128-35.35,39.438 c1.449,0.728,2.899,1.455,4.349,2.183c35.042-34.862,70.237-69.704,106.768-103.011c7.04-6.419,14.083-13.103,21.847-18.658 c1.147-0.821,1.111-0.841,2.107-1.31c-0.229,0.107-1.756,0.405-2.751-0.564c-0.395-0.385-0.113-0.69-0.23-0.354 c-1.02,2.926-3.3,5.606-5.099,8.067c-17.612,24.092-37.907,46.334-57.02,69.225c-8.143,9.753-16.418,19.482-23.876,29.779 c-1.64,2.264-3.751,4.784-4.597,7.5c-0.874,2.807,1.821,4.034,4.283,3.129c7.165-2.633,13.48-9.979,18.975-14.97 c10.165-9.234,20.098-18.723,30.079-28.155c9.056-8.558,18.068-17.19,27.482-25.358c2.171-1.883,5.749-4.934,7.426-5.916 c0.902-0.528,0.507-0.218-0.369-0.072c-1.63,0.271-2.292-1.157-2.187-1.497c-0.377,1.208-1.18,2.333-1.854,3.386 c-12.153,18.983-29.295,34.131-45.647,49.348c-4.011,3.732-9.861,8.375-11.2,14.012c-0.866,3.642,1.316,6.207,5.056,5.687 c5.783-0.805,11.224-5.215,15.798-8.517c8.179-5.902,15.892-12.467,23.492-19.086c12.752-11.104,26.35-22.476,37.212-35.51 c2.408-2.89-3.124-3.555-4.852-1.715c-4.051,4.316-7.882,8.855-11.51,13.531c-3.858,4.972-9.816,11.868-9.504,18.589 c0.408,8.762-6.592,19.02-11.375,25.747c-3.402,4.785-7.4,9.149-11.941,12.868c-1.344,1.1-2.783,2.095-4.24,3.039 c-1.94,1.259,2.411,2.892,3.33,1.771c4.343-5.296,9.928-9.81,14.993-14.377c7.189-6.484,14.513-12.828,21.996-18.97 c3.812-3.128,7.648-5.818,10.443-9.934c2.532-3.728,4.383-7.842,5.825-12.101c7.166-21.156,3.891-46.936-15.581-60.329 c-13.899-9.561-32.174-10.606-48.445-9.442c-23.319,1.668-46.744,8.249-67.604,18.759 c-23.536,11.859-45.487,30.548-56.096,55.172c-7.736,17.959-7.542,39.724,7.296,53.972c1.892,1.816,7.366-0.575,5.305-2.555 c-22.716-21.815-8.832-55.378,8.958-75.325c13.636-15.29,31.591-26.262,50.455-33.879c21.639-8.739,46.736-14.068,70.115-11.785 c14.252,1.392,28.153,7.065,36.294,19.32c6.293,9.476,7.734,21.448,6.542,32.538c-0.972,9.041-3.754,18.89-9.509,26.11 c-3.913,4.909-9.936,8.513-14.698,12.551c-7.297,6.185-14.463,12.531-21.478,19.035c-3.11,2.884-6.251,5.771-9.118,8.902 c-1.692,1.848-2.936,4.885,0.953,4.844c3.203-0.034,6.985-3.746,9.177-5.541c6.139-5.025,11.063-11.389,15.317-18.034 c3.481-5.438,6.299-11.331,8.108-17.532c1.339-4.587,0.827-8.429,3.231-12.787c4.534-8.221,11.207-15.619,17.61-22.441 c-1.617-0.572-3.234-1.143-4.852-1.715c-8.357,10.029-18.597,18.802-28.257,27.523c-11.714,10.574-23.718,21.397-37.019,29.965 c-1.651,1.064-3.435,2.188-5.289,2.863c-0.604,0.22-1.338,0.25-0.912,0.286c0.972,0.083,0.451,0.561,0.438-0.659 c-0.053-5.229,8.098-11.021,11.434-14.106c16.314-15.093,32.823-30.291,45.048-49.054c0.993-1.525,3.243-4.308,2.015-6.225 c-1.58-2.466-5.563-0.08-7.187,1.017c-7.829,5.29-14.682,12.433-21.568,18.844c-18.439,17.166-36.046,35.773-55.826,51.419 c-1.099,0.869-2.222,1.712-3.403,2.463c0.654-0.416-1.42,0.59-0.1,0.105c0.626-0.23,2.641,0.607,2.574,1.195 c0.154-1.368,2.86-4.882,4.108-6.605c7.541-10.411,15.949-20.228,24.183-30.089c19.033-22.797,39.202-44.957,56.741-68.949 c1.082-1.48,10.377-13.705,2.528-12.476c-6.058,0.949-12.022,7.737-16.382,11.519c-22.206,19.261-43.255,39.919-64.357,60.366 c-18.268,17.699-36.434,35.506-54.465,53.445c-2.421,2.408,2.615,3.664,4.349,2.183c15.4-13.161,31.49-28.183,39.849-47.057 c1.613-3.643,3.619-8.452,3.567-12.528c-0.051-4.079-5.571-2.209-7.595-1.03c-11.319,6.593-21.016,16.873-30.691,25.572 c-5.097,4.583-10.169,9.198-15.389,13.642c-1.553,1.321-3.122,2.629-4.776,3.821c-0.614,0.443-1.151,0.621-0.358,0.352 c3.163-1.073,2.804,1.976,2.864,0.422c0.024-0.615,0.159-1.231,0.275-1.834c1.195-6.19,3.674-12.238,5.785-18.157 c0.988-2.771,1.999-5.533,2.964-8.312c0.397-1.144,1.251-2.743,0.967-3.991c-0.257-1.127-1.688-1.397-2.642-1.348 c-2.864,0.148-5.294,4.372-7.53,6.301c-5.371,4.63-11.081,8.883-16.784,13.09c-14.421,10.635-29.305,20.958-45.01,29.618 c-4.729,2.607-9.736,5.448-15.151,6.228c-2.694,0.388-6.3,1.42-5.116-1.949c2.494-7.105,8.863-13.511,13.514-19.215 c9.235-11.329,18.629-22.687,29.557-32.439c7.56-6.747,20.139-17.184,30.315-17.273c-0.342-1.278-0.685-2.557-1.027-3.835 c-14.6,7.488-30.979,10.701-47.212,12.108c-6.143,0.532-12.343,0.761-18.506,0.532c-4.407-0.164-8.823-1.406-13.033,0.412 c-5.188,2.241-4.373,9.554-4.357,14.045c0.015,4.327-3.301,9.114-5.331,12.728c-4.396,7.826-9.447,15.335-14.688,22.619 c-2.212,3.073,3.164,3.615,4.852,1.715c3.882-4.372,7.954-10.458,7.019-16.551c-1.057-6.878-8.96-5.865-13.44-3.868 c-6.909,3.08-12.924,8.486-18.812,13.119c-2.852,2.244-5.712,4.481-8.707,6.532c-1.106,0.758-2.247,1.434-3.455,2.015 c-1.229,0.591-0.196,0.36-0.157,0.505c-0.751-2.754,6.528-9.568,8.165-11.435c5.212-5.948,10.701-11.65,16.006-17.514 c2.648-2.929,20.563-20.437,11.591-24.144c-3.396-1.403-7.838,1.312-10.613,2.977c-5.515,3.308-10.602,7.309-15.633,11.297 c-12.897,10.225-25.249,21.125-38.289,31.174c-4.735,3.649-9.598,7.417-14.978,10.08c-0.706,0.35-1.415,0.651-2.169,0.874 c-0.269,0.08-1.13-0.016-0.503,0.161c-0.248-0.069-0.141-1.824,0.07-2.78c1.16-5.247,4.748-10.327,7.581-14.779 c4.087-6.424,8.653-12.555,13.334-18.554c4.055-5.197,8.266-10.294,12.758-15.12c1.286-1.381,2.598-2.757,4.049-3.968 c0.585-0.489,1.425-0.773,0.23-0.37c-4.413,1.487-2.241-2.693-3.31-0.264c-2.144,4.875-6.418,9.159-9.883,13.096 c-5.61,6.377-11.611,12.417-17.771,18.264c-6.389,6.065-13.07,11.859-20.123,17.142c-4.314,3.232-9.823,7.781-15.334,8.681 c-9.215,1.506,2.033-14.65,3.298-16.295c7.355-9.558,16.295-18.047,22.754-28.273c3.354-5.311,2.167-10.486-4.653-10.671 c-4.702-0.127-9.573,1.184-13.97,2.778C321.386,89.773,322.36,93.784,325.877,92.509L325.877,92.509 M658.443,185.958c-1.553,1.526-6.428,4.139-9.42,5.368c-10.774,4.43-22.834,5.264-34.35,5.056 c-15.061-0.272-30.154,0.283-45.192,1.061c-18.577,0.96-37.175,2.451-55.589,5.136c-13.295,1.938-28.065,4.023-39.985,10.652 c-2.982,1.658-6.519,4.165-7.126,7.781c-0.956,5.693,4.343,10.308,9.224,11.7c8.377,2.39,18.149-0.249,26.234-2.533 c13.406-3.787,26.29-9.458,38.97-15.156c22.605-10.158,44.104-22.161,65.607-34.439c9.824-5.609,19.653-11.22,29.679-16.462 c7.215-3.772,14.707-7.737,22.64-9.769c4.387-1.124,8.482,0.756,3.663,4.549c-7.485,5.892-18.181,8.494-27.243,10.601 c-14.278,3.318-29.227,3.992-43.739,2.018c-10.995-1.496-21.911-2.947-32.994-3.691c-22.931-1.539-46.158-1.338-68.958,1.729 c-15.718,2.113-34.459,5.448-46.438,16.763c-3.947,3.728-7.141,9.2-5.663,14.766c1.508,5.681,7.734,8.64,12.896,10.044 c9.395,2.555,19.678,1.456,29.079-0.412c15.686-3.115,30.593-9.522,44.693-16.919c3.439-1.805-1.847-2.11-3.473-1.258 c-12.646,6.635-25.825,12.242-39.796,15.379c-8.553,1.921-17.983,2.807-26.547,0.478c-4.685-1.273-9.504-3.987-11.059-8.864 c-1.529-4.8,1.496-9.525,4.674-12.847c5.494-5.742,13.742-8.501,21.188-10.587c10.459-2.931,21.37-4.32,32.17-5.239 c23.644-2.014,47.627-1.331,71.192,1.301c12.277,1.371,24.208,3.564,36.629,3.225c12.275-0.337,24.569-2.502,36.309-6.063 c7.643-2.318,15.796-5.26,22.145-10.257c3.023-2.38,4.966-6.037,0.221-7.561c-4.882-1.567-10.912,0.7-15.465,2.328 c-8.315,2.972-16.228,7.207-23.997,11.358c-20.962,11.199-41.235,23.642-62.244,34.76c-12.254,6.484-24.877,12.257-37.608,17.735 c-12.146,5.227-24.8,10.528-37.943,12.569c-7.702,1.196-16.799,0.043-18.271-9.077c-0.597-3.7,3.623-6.114,6.341-7.498 c12.99-6.616,29.49-7.949,43.715-9.706c18.689-2.31,37.522-3.51,56.334-4.246c16.541-0.647,33.41,0.456,49.866-1.204 c11.446-1.154,26.337-4.24,34.956-12.715C665.275,184.328,659.583,184.837,658.443,185.958L658.443,185.958 M567.688,223.448c1.324,1.766,2.649,3.532,3.974,5.298c1.201,1.602,6.796-0.39,5.379-2.279 c-1.324-1.766-2.649-3.532-3.974-5.298C571.865,219.567,566.271,221.558,567.688,223.448L567.688,223.448z"/>
</svg>