<?xml version="1.0" encoding="UTF-8" standalone="no"?>
<svg xmlns="http://www.w3.org/2000/svg" version="1.0" width="230" height="90">
<path d="M163.556,6.001c4.046,0.046,3.893-4.109,9.001-3 c-1.866,4.49,0.364,4.769,0,7.501c-5.21,3.791-11.656,6.347-15.002,12.001c2.781,0.532,3.219-1.281,6.001-0.75 c-0.31,7.942-9.746,6.756-9.752,15.002c8.566,4.388,14.369-6.504,20.253-9.751c-2.335-5.51,2.188-10.187,9.001-9.001 c0.954,2.374,2.271,5.279-0.75,6.001c-2.71,0.71-1.046-2.955-1.5-4.5c-3.921,5.616-7.036,11.85-13.502,16.502 c12.908,4.642,18.254-18.437,32.255-12.751c-1.038,5.561-8.745,8.125-8.251,12.751c9.905-2.099,18.978-11.524,24.003-21.003 c1.75,0,3.5,0,5.251,0c-0.735,2.766-2.728,4.274-4.501,6.001c1.439,1.39,3.514-2.95,7.501-1.5 c1.422,6.526-7.415,9.01-7.501,16.502c2.297,0.678,8.235-2.223,11.252,0.75c0.542,2.292-0.768,2.734-0.75,4.501 c-4.061,1.821-11.211,0.883-12.752-2.25c-9.276,1.591-13.208,17.572-8.251,26.253c-5.638,8.365-10.524,17.48-21.003,21.003 c2.976-9.776,16.311-9.192,14.252-24.003c-17.433-11.992-44.133,0.023-65.259-3.75c-0.478-3.479,1.36-4.641,3-6.001 c-13.572-3.411-31.195,2.168-48.007,2.25c-6.917,10.757-28.461,7.471-42.756,6.75c14.242-1.492,35.637,1.641,42.756-9.001 c17.574-0.078,31.272-4.923,49.507-2.25c2.038,3.292-0.957,4.019-1.5,6.751c22.145,2.208,42.118-7.894,60.758,2.25 c2.158-6.093,4.168-12.334,6.751-18.002c3.121-1.129,5.881-2.621,9.002-3.75c-1.083-8.083,3.603-10.399,6-15.002 c-12.068,1.683-11.474,16.03-21.753,19.503c-1.45-3.46,3.925-5.888,5.251-9.001c-3.993-0.231-7.513,6.48-13.502,6.751 c-1.28-0.72-1.644-2.356-2.25-3.75c-2.801,2.2-5.91,4.091-9.751,5.251c-3.481-1.366,0.662-4.384,1.5-6.001 c-3.71,3.389-8.44,2.237-15.002,3c-4.573,0.532-10.217,4.975-14.252-1.5c0.378-6.372,6.043-7.458,9.001-11.251 c-3.89-2.859-5.273,3.205-9.001,3c5.067-8.435,12.821-14.183,20.253-20.253c-16.005,0.585-21.692,32.798-40.506,28.504 c0.28-9.09,11.328-10.27,18.002-14.252c7.305-4.358,9.449-11.532,15.752-14.252c-1.057-2.444-5.453-1.548-6.001-4.5 c-7.704,5.549-13.938,12.566-21.753,18.002c-1.829-4.146,5.294-5.907,9.001-9.001c4.477-3.736,7.594-8.789,12.002-12.002 C159.823,1.232,159.788,5.519,163.556,6.001z M132.802,36.005c5.56-1.515,12.683-9.219,12.001-12.001 C140.859,28.061,134.161,29.363,132.802,36.005z M184.559,33.755c4.554-1.947,8.239-4.762,10.501-9.001 C189.806,26,186.264,28.959,184.559,33.755z M217.563,39.755c2.383,1.128,6.104,1.128,6.001-2.25 C221.044,37.736,217.062,36.504,217.563,39.755z
M48.04,10.501c-9.769-2.194-23.23,4.039-33.755,6.001 c-0.48,2.02-2.895,2.105-3,4.5c0.233,2.812,2.509,3.045,4.5,2.25c-2.565,4.512-13.53,0.088-10.501-5.251 c12.562-7.447,28.682-6.769,45.006-10.501c3.096-0.845,6.391-5.391,9.001-2.25c-5.459,5.292-13.429,8.073-16.502,15.752 C56.004,21.694,56.846-0.417,74.293,4.5c-1.364,12.46-23.614,10.336-27.004,23.253c1.098,1.048,4.583-1.881,7.501-1.5 c1.314,6.664-8.577,8.353-9.001,15.752c11.163,0.078,15.714-19,27.754-15.752c-2.242,10.26-7.507,17.497-18.002,19.503 c-1.034-0.967-0.743-3.258-0.75-5.25c-2.943,2.323-9.267,6.193-12.751,1.5c1.331-6.42,6.953-8.55,9.751-13.502 c-11.4,0.983-12.498,18.111-22.503,15.752c6.916-6.086,12.332-13.671,18.002-21.002C31.991,23.832,26.362,48.162,8.284,43.506 c2.248-9.503,10.931-12.573,18.753-16.502c-2.995-1.506-8.622-0.38-12.002-1.5c5.592-2.109,18.215,2.066,24.003-3 C41.935,18.398,44.811,14.273,48.04,10.501z M57.041,15.002c4.945-2.556,12.803-2.199,13.502-9.001 C65.204,5.279,59.759,10.633,57.041,15.002z M12.035,42.756c10.402-2.6,16.289-9.715,22.503-16.502 C25.343,30.061,15.947,33.666,12.035,42.756z M58.542,44.256c4.595-4.155,9.044-8.458,11.251-15.002 C63.347,31.064,59.318,39.275,58.542,44.256z
M103.547,9.751c0.859,1.838,2.5,5.376,0.75,7.501 c2.75-0.25,3.029-2.973,6.751-2.25c-13.13,7.373-19.11,21.896-32.254,29.254c-0.192-1.558-3.295-0.205-3.75-1.5 c11.736-7.517,21.04-17.466,27.754-30.004c0.229-1.73-2.167-0.833-2.25-2.25c-7.404,2.347-14.861,4.641-16.502,12.752 c4.105,2.095,6.856-2.956,10.501-3.75c-1.455,4.139-7,10.434-14.252,11.251C78.775,17.888,90.964,8.529,103.547,9.751z
M130.551,13.502c-3.293,13.459-11.99,21.515-23.253,27.004 c5.568-9.684,17.514-12.991,19.503-26.254c-1.346-0.095-1.582,0.918-3,0.75C124.356,12.861,128.616,11.941,130.551,13.502z
M111.799,14.252c2.871,0.129,3.623,2.378,3.75,5.251 c3.203-0.297,3.681-3.32,6.751-3.751c-11.602,7.401-16.854,21.151-30.754,26.254C97.869,32.326,108.822,27.277,111.799,14.252z
M126.801,31.504c-0.1,2.401-1.701,3.3-4.5,3 C121.8,31.504,124.285,31.489,126.801,31.504z
M118.55,38.255c1.318,0.432,4.407-0.907,4.5,0.75 c0.109,2.109-1.837,2.164-3.75,2.25C118.717,40.588,118.493,39.562,118.55,38.255z
M42.789,64.509c-2.346,0.904-3.721,2.78-7.501,2.25 c1.553-1.198,3.872-1.629,4.5-3.75c0.116-1.866-1.178-2.322-1.5-3.75c-2.368-0.367-2.649,1.352-5.251,0.75 C32.608,49.13,46.159,55.048,42.789,64.509z" />
</svg>