<?xml version="1.0" encoding="UTF-8"?>
<svg version="1.1" xmlns="http://www.w3.org/2000/svg" width="465" height="66" >
<path d="M9.709,3.853c-0.043,2.595,1.275,4.868,2.951,6.742c1.606,1.795,8.497,3.224,6.898,6.084 c-2.069,3.703-5.402,7.009-8.307,10.03c-1.449,1.507-2.991,2.917-4.58,4.273c-0.438,0.374-4.959,3.897-2.377,2.771 c16.161-7.048,32.469-13.84,47.751-22.694c2.412-1.397,11.292-5.292,9.606-9.052c-1.822-4.062-9.333-0.853-12.193,0.069 c-8.137,2.623-13.66,6.174-17.194,14.212c-2.117,4.813-3.477,9.979-5.24,14.926c-0.581,1.63-2.853,5.184-2.63,6.971 c0.035,0.277,3.734-0.834,4.077-0.986c1.081-0.479,2.04-1.805,3.028-2.504c1.154-0.816,2.388-1.52,3.617-2.215 c1.765-0.997,1.735-1.423,2.418,0.728c0.67,2.111,0.907,6.505-1.013,8.073c-0.138,0.112-0.839,0.419-0.523,0.677 c1.143,0.932,5.418-0.837,6.54-1.162c6.476-1.871,12.67-4.816,18.746-7.679c-1.358,0.329-2.717,0.658-4.076,0.987 c-1.534,3.036-3.39,6.737-3.125,10.214c0.204,2.676,4.678,0.787,5.961,0.316c3.704-1.358,6.601-5.006,9.602-7.434 c0.461-0.367,0.937-0.715,1.425-1.046c1.021-0.636,0.9-0.569-0.363,0.2c1.22,0.662,1.398,2.453,1.509,3.639 c0.187,2-0.528,4.268-1.259,6.111c0.125-0.317,3.679-0.607,4.283-1.092c4.855-3.896,10.377-7.589,16.282-9.615 c-1.105,0.236-2.21,0.472-3.315,0.708c-0.434,2.474-0.833,5.032-0.654,7.546c0.148,2.082,3.069,0.604,4.22,0.246 c2.205-0.687,4.219-2.514,6.148-3.729c2.236-1.408,4.525-2.729,6.881-3.925c1.852-0.941,2.239-1.613,1.769,0.459 c-0.503,2.217-1.749,6.91,0.636,8.402c1.614,1.009,5.739-0.075,7.387-0.338c8.155-1.302,16.446-3.306,24.111-6.42 c3.343-1.358,15.029-6.758,6.188-8.669c-6.432-1.39-10.881,3.781-14.38,8.429c-0.617,0.819-4.637,6.045-2.189,6.59 c1.485,0.331,3.94-0.824,5.279-1.417c4.819-2.136,9.081-6.705,12.888-10.267c-1.428,0.364-2.855,0.728-4.283,1.092 c-0.841,3.054-1.569,6.275-1.458,9.457c0.108,3.097,3.044,2.004,5.023,1.335c3.146-1.063,5.792-3.162,8.43-5.122 c1.954-1.451,3.87-2.953,5.798-4.438c0.895-0.689,1.796-1.371,2.707-2.041c1.417-1.044,2.858-1.133-0.953-0.368 c-0.374,0.04-0.748,0.08-1.122,0.12c0.852,0.642,0.644,4.495,0.684,5.443c0.058,1.376-0.059,2.734-0.344,4.079 c-0.109,0.446-0.272,0.871-0.49,1.275c-1.108,2.401,2.754,0.31,0.979-0.187c-0.753-0.211-3.789,0.552-4.255,1.196 c0.079-0.109,9.398-0.191,9.823-0.231c1.007-0.094,2.035-0.415,2.992-0.727c0.133-0.043,1.571-0.557,0.708-0.477 c-0.89,0.083-8.958-0.033-9.177,0.269c-1.418,0.399-2.837,0.797-4.255,1.196c4.466,1.25,8.021-1.52,8.349-5.852 c0.176-2.321-0.097-4.82-0.594-7.094c-0.098-0.447-3.725,0.736-3.991,0.833c-5.19,1.904-9.839,7.231-14.336,10.376 c-0.479,0.332-0.965,0.654-1.456,0.968c-2.412,1.571-0.062-0.386,0.298-0.051c-0.882-0.822-0.485-3.095-0.403-4.108 c0.191-2.36,0.76-4.738,1.388-7.018c-0.063,0.227-3.757,0.6-4.283,1.092c-3.767,3.525-7.687,7.188-12.119,9.86 c2.416-1.457,1.315-0.85,2.355-3.221c0.747-1.703,1.983-3.239,3.093-4.713c1.46-1.94,3.104-3.706,4.893-5.342 c-0.691,0.632-0.004,0.237,1.306,0.52c0.59,0.128,1.126,0.314,1.648,0.619c2.678,1.566-2.374,4.435-3.396,5.031 c-6.366,3.717-14.142,5.447-21.331,6.701c-2.757,0.481-7.677,2.027-8.394-1.731c-0.47-2.463,0.334-5.436,0.977-7.816 c-0.102-0.047-0.21-0.054-0.323-0.019c-3.49,0.391-6.835,1.624-9.985,3.131c-2.52,1.207-4.92,2.668-7.294,4.136 c-1.17,0.724-4.191,2.953-4.565,3.069c1.105-0.236,2.21-0.472,3.315-0.707c-1.754-0.986-0.187-6.965,0.102-8.61 c0.012-0.066-3.077,0.626-3.315,0.708c-6.648,2.281-12.746,5.993-18.218,10.385c1.428-0.364,2.855-0.728,4.283-1.092 c1.01-2.547,2.889-9.315-1.235-10.099c-2.156-0.41-5.459,1.227-7.218,2.333c-1.88,1.183-3.525,2.799-5.181,4.266 c-0.944,0.835-1.897,1.654-2.88,2.443c-2.223,1.786,0.23,0.484-0.199-0.167c-1.639-2.485,1.819-8.513,2.963-10.776 c-0.128,0.254-3.527,0.728-4.076,0.987c-4.008,1.889-8.039,3.726-12.159,5.357c-1.181,0.468-3.667,2.003-4.975,1.51 c1.669,0.63,1.815-7.08,1.71-7.907c-0.508-3.998-4.307-2.383-7.005-1.322c-2.117,0.833-4.094,1.869-6.047,3.036 c-1.388,0.829-3.046,2.835-4.338,3.408c1.359-0.329,2.718-0.658,4.076-0.986c-0.067-0.54,0.523-1.463,0.713-1.935 c1.078-2.674,2.052-5.386,2.997-8.109c1.875-5.404,3.354-10.988,6.229-15.976c1.294-2.244,3.092-4.072,5.137-5.629 c2.719-2.072,9.206-5.568,12.484-3.564c2.422,1.48,1.105,3.608-0.433,4.942c-7.679,6.658-18.195,11.031-27.263,15.363 c-9.329,4.457-18.9,8.431-28.376,12.563c-0.796,0.347,0.719,0.087,0.851,0.059c8.26-1.8,13.988-8.179,19.248-14.446 c1.28-1.525,2.459-3.127,3.577-4.773c1.228-1.807-0.61-2.276-2.044-2.959c-3.957-1.887-7.884-5.062-7.805-9.867 C14.055,2.79,9.721,3.164,9.709,3.853L9.709,3.853z"/>
<path d="M211.306,29.438c-0.153-1.371-0.276-5.187-2.269-5.001c-1.695,0.159-3.414,0.775-5.008,1.341 c-6.513,2.313-11.462,7.569-13.893,13.953c-0.849,2.229-1.99,6.334,0.584,7.873c1.399,0.836,3.739-0.052,5.147-0.411 c7.907-2.017,13.344-9.455,17.439-16.004c-0.396,0.634-3.523,0.275-4.283,1.092c-2.679,2.878-3.449,9.028-2.7,12.979 c1.093,5.764,12.397,2.937,15.81,2.311c0.568-0.104,4.725-1.417,2.999-1.101c-3.881,0.712-13.907,3.131-14.595-3.268 c-0.401-3.729,0.17-9.217,2.705-11.942c-1.427,0.364-2.855,0.728-4.283,1.092c-3.25,5.197-7.022,10.148-12.138,13.629 c-3.679,2.504-3.251-4.065-2.765-6.044c1.249-5.087,4.666-9.337,8.833-12.365c0.723-0.525,1.503-0.967,2.279-1.405 c2.759-1.559,1.506,0.16,0.476-0.35c1.081,0.535,1.2,3.741,1.316,4.785C206.969,30.687,211.363,29.953,211.306,29.438 L211.306,29.438z"/>
<path d="M247.709,21.603c1.718,2.909-1.188,7.044-2.75,9.25c-3.376,4.769-7.218,9.444-9.75,14.75 c0.248-0.52,3.627-0.353,4.283-1.092c1.067-1.203,2.247-2.485,3.741-3.148c-1.328,0.339-2.656,0.679-3.984,1.018 c0.184,0.001,0.368,0.003,0.552,0.004c1.317,0.01,3.345-1.232,4.163-1.227c-3.54-0.025-6.412,1.804-8.691,4.373 c1.427-0.364,2.855-0.728,4.283-1.092c2.512-5.264,6.27-10.107,9.75-14.75c1.61-2.147,4.445-6.38,2.75-9.25 C251.71,19.852,247.757,21.682,247.709,21.603L247.709,21.603z"/>
<path d="M269.807,25.188c-0.033-0.441-0.109-0.614-0.433-0.918c-0.379-0.356-2.399,0.425-2.802,0.549 c-2.897,0.891-4.104,2.993-5.753,5.473c-3.017,4.542-5.434,9.774-5.36,15.311c-0.001-0.082,4.306-0.481,4.347-1.165 c0.191-3.24-0.869-12.231-5.833-11.686c-4.464,0.49-6.663,1.915-3.359,6.4c6.941,9.423,22.072,5.901,28.878-1.392 c-1.428,0.364-2.855,0.728-4.283,1.092c-0.649,1.238-3.534,6.956-0.908,7.531c1.898,0.416,4.425-0.671,6.187-1.264 c6.037-2.034,11.764-5.421,17.255-8.609c-1.428,0.364-2.855,0.728-4.283,1.092c-0.691,2.271-1.245,4.755-0.788,7.116 c0.425,2.2,3.248,1.265,4.658,0.905c5.578-1.423,10.635-4.485,15.413-7.614c-1.428,0.364-2.855,0.728-4.283,1.092 c-4.777,11.209,16.158,10.093,21.756,9.77c4.329-0.25,8.674-1.172,12.704-2.772c3.587-1.424,3.797-5.951-0.623-5.619 c-3.521,0.265-7.11,1.95-9.087,4.872c-0.869,1.285-0.939,3.945,0.842,4.514c2.167,0.692,5.089-0.576,7.082-1.367 c5.262-2.089,9.31-7.791,12.674-12.062c-0.601,0.762-3.517,0.12-4.348,1.165c-2.631,3.309-9.689,13.508-1.016,13.18 c3.267-0.124,6.732-1.274,9.771-2.391c3.733-1.372,9.127-4.585,11.891-5.279c-0.549,0.08-1.098,0.16-1.646,0.239 c-0.202,2.932-0.222,6.222-1.25,9c1.449-0.388,2.898-0.777,4.348-1.165c0.144-0.81-1.04-0.402,0.11-0.19 c0.859,0.158,1.874-0.037,2.718-0.141c2.245-0.278,4.512-0.884,6.671-1.542c3.42-1.042,7.311-2.044,10.266-4.125 c-1.428,0.364-2.855,0.728-4.283,1.092c-5.063,7.763,7.906,7.961,12.513,7.854c1.323-0.03,3.325-1.208,4.164-1.227 c-4.747,0.11-17.328-0.13-12.33-7.792c-0.336,0.515-3.5,0.54-4.283,1.092c-1.215,0.855-2.615,1.379-3.998,1.917 c-4.135,1.608-6.591,1.042-10.395,1.404c-1.702,0.162-5.135,0.771-5.5,2.824c0.059-0.329,4.034-0.32,4.348-1.165 c1.027-2.777,1.047-6.067,1.25-9c0.008-0.118-1.583,0.223-1.646,0.239c-6.656,1.671-13.297,7.524-20.217,7.114 c-6.46-0.383,1.236-11.059,2.863-13.104c-1.449,0.388-2.898,0.777-4.348,1.165c-2.715,3.447-5.538,6.786-8.908,9.611 c-0.983,0.823-2.069,1.537-3.224,2.094c2.426-1.169,1.337-0.062,0.22-1.184c-2.621-2.634,3.518-9.691,3.912-3.771 c0.38,5.684-19.6,3.144-23.002,2.534c-4.398-0.788-7.509-4.591-5.65-8.949c-0.119,0.279-3.682,0.698-4.283,1.092 c-3.142,2.057-6.396,3.977-9.788,5.588c-3.123,1.483-1.265-7.079-0.929-8.18c-0.035,0.115-3.776,0.798-4.283,1.092 c-3.659,2.124-7.388,4.138-11.188,5.996c-1.63,0.797-4.251,2.897-4.678,0.068c-0.283-1.871,1.055-4.3,1.898-5.906 c-0.289,0.551-3.588,0.347-4.283,1.092c-4.545,4.87-9.321,5.799-15.329,3.014c-2-0.927-9.124-6.042-6.32-8.851 c-1.203,0.354-2.406,0.707-3.609,1.06c4.628-0.751,5.607,8.838,5.444,11.6c1.449-0.388,2.898-0.777,4.347-1.165 c-0.052-3.861,1.111-7.293,2.746-10.751c0.749-1.583,1.68-3.081,2.614-4.56c0.308-0.487,2.29-4.126,2.663-4.241 c-0.934,0.183-1.868,0.366-2.802,0.549c0.323,0.304,0.399,0.477,0.432,0.918C265.462,26.384,269.849,25.754,269.807,25.188 L269.807,25.188z"/>
<path d="M404.307,31.688c-0.139-1.067-0.165-2.152-0.131-3.227c0.029-0.928,0.157-1.848,0.407-2.742 c0.103-0.366,0.26-0.708,0.437-1.043c0.354-0.671,1.434-1.046-0.009-0.622c0.198-0.058,1.606-0.639,1.454-0.647 c-0.873-0.048-1.889,0.337-2.71,0.58c-2.331,0.686-3.369,1.646-3.782,4.09c-0.263,1.552-0.215,3.217-0.014,4.776 C399.974,32.962,404.369,32.177,404.307,31.688L404.307,31.688z"/>
<path d="M416.307,46.938c-1.063-2.715-4.67-1.131-6.604-0.421c-2.89,1.06-7.473,8.609-1.693,7.485 c4.561-0.886,8.553-2.905,12.766-4.814c3.958-1.794,7.946-3.523,11.994-5.107c2.723-1.065,5.712-1.708,8.294-3.109 c4.533-2.459,9.572-6.836,10.943-12.063c0.547-2.085-4.436,0.008-5.271,0.441c-3.594,1.862-7.181,7.324-8.644,10.942 c-1.791,4.433-2.19,11.145-5.383,14.812c1.449-0.388,2.898-0.777,4.348-1.165c0.963-4.264,7.825-4.312,11.233-5.116 c0.688-0.163,6.139-1.271,5.702-2.574c-0.03-0.01-0.061-0.021-0.091-0.031c-2.062-0.058-4.413,0.887-6.133,1.968 c-1.384,0.869-2.674,2.169-3.152,3.749c-0.663,2.191,3.714,3.036,2.843,5.919c0.044-0.144,3.764-0.754,4.283-1.092 c0.254-0.119,0.507-0.237,0.761-0.356c-1.219,0.296-2.438,0.591-3.655,0.887c4.866,0.375,9.321-2.328,12.878-5.434 c2.162-1.889-4.573-0.203-2.802,0.524c0.646,0.265,0.978,0.92,1.179,1.539c1.23,3.788-4.31,8.979-6.329,11.11 c0.407-0.43,3.387-0.142,4.219-1.02c2.531-2.67,7.702-7.424,6.332-11.641c-0.608-1.874-2.71-1.284-4.071-0.919 c-2.839,0.761-4.626,3.039-7.112,4.602c-3.758,2.364,3.453,0.287-0.13,0.011c-0.498-0.039-1.079,0.155-1.555,0.27 c-1.334,0.322-2.773,0.692-3.933,1.446c1.428-0.364,2.855-0.728,4.283-1.092c1.007-3.333-4.146-3.969-2.264-7.233 c0.658-1.141,2.003-2.012,3.095-2.698c-2.919,1.834-7.571,2.283-10.953,3.05c-2.931,0.665-8.178,1.766-8.976,5.295 c0.048-0.212,3.839-0.581,4.348-1.165c2.937-3.375,3.613-9.773,5.052-13.917c1.492-4.301,5.177-9.789,9.276-11.914 c-1.203,0.354-2.406,0.707-3.609,1.06c0.074-0.013-0.739,2.625-0.848,2.861c-1.065,2.303-2.866,4.298-4.632,6.07 c-4.233,4.248-10.372,5.586-15.786,7.767c-5.058,2.037-10.007,4.342-14.967,6.606c-2.143,0.978-2.35-1.154-1.823-2.713 c0.211-0.366,0.421-0.732,0.631-1.099c2.624-2.262,2.877-2.844,0.759-1.746c0.405,0.208,0.691,0.785,0.85,1.191 C412.128,48.533,416.358,47.071,416.307,46.938L416.307,46.938z"/>
</svg>