<?xml version="1.0" encoding="UTF-8"?>
<svg version="1.1" xmlns="http://www.w3.org/2000/svg" width="205" height="82" >
<path fill="#231F20" d="M4.661,20.035c4.09-3.623,8.612-6.765,13.356-9.463c1.397-0.795,2.882-1.614,4.514-1.756 c1.851-0.16,0.369,4.3,0.177,4.937c-1.248,4.12-3.516,7.929-5.476,11.735c-4.668,9.064-8.688,18.506-12.534,27.945 c-0.427,1.047,1.264,1.492,1.688,0.465c5.315-12.892,10.967-26.017,18.391-37.848c1.88-2.996,4.203-5.664,6.487-8.354 c0.741-0.873,1.492-1.745,2.341-2.516c-0.685,0.622-0.437-1.457-0.924,0.25c-0.188,0.661-0.454,1.306-0.699,1.946 c-4.037,10.576-9.795,20.497-12.768,31.48c-0.731,2.705-0.488,6.949,2.989,3.874c3.218-2.846,5.472-7.085,7.916-10.544 c1.012-1.433,2.008-2.935,3.24-4.19c-1.393,1.419-0.726-1.734-1.337-0.062c-0.204,0.558-0.469,1.099-0.715,1.639 c-0.779,1.711-5.609,9.541-0.701,8.707c3.561-0.605,6.747-4.522,9.866-6.228c2.711-1.482-1.331,5.009-1.845,6.222 c-0.225,0.528-0.293,0.999,0.017,1.49c0.216,0.343,0.594,0.494,0.987,0.402c1.269-0.299,2.33-1.565,3.24-2.4 c2.557-2.343,4.903-4.945,7.722-6.986c-0.005-0.253-0.009-0.506-0.014-0.758c-0.347,0.759-0.688,1.521-1.027,2.283 c-0.183,0.408-0.374,1.027-0.243,1.485c0.192,0.675,0.567,1.465,1.436,1.436c2.307-0.078,4.139-1.597,5.956-2.882 c3.086-2.184,1.081-0.472,2.494,0.956c2.331,2.355,5.637-2.081,7.592-3.054c-0.438-0.252-0.878-0.504-1.316-0.755 c0.033,0.272-3.814,5.07-0.448,5.268c3.276,0.192,7.125-2.526,9.847-3.987c2.359-1.267,4.687-2.703,6.792-4.364 c-0.413-0.413-0.825-0.825-1.238-1.238c-1.631,1.428-7.244,5.94-5.637,8.686c1.871,3.193,7.123-1.602,7.883-3.631 c0.229-0.611-0.475-1.286-1.076-1.076c-3.54,1.234,0.373,3.488,2.079,3.758c3.209,0.507,5.987,1.978,1.958,4.459 c-1.935,1.191-1.654-0.23-0.636-1.538c1.553-1.992,3.745-3.631,5.743-5.129c9.362-7.025,20.709-12.409,31.495-16.857 c1.112-0.459,2.373-1.088,3.582-1.238c-1.542,0.192,0.458-1.732-1.499-0.322c-1.586,1.142-3.299,2.122-4.955,3.155 c-3.532,2.203-7.133,4.328-10.505,6.775c-1.05,0.762-2.377,1.693-2.694,3.033c-0.959,4.054,10.765,0.209,3.987,4.861 c-1.336,0.918-9.271,4.917-8.3,7.438c0.102,0.265,0.299,0.564,0.611,0.611c2.464,0.369,5.632-2.367,7.519-3.515 c3.726-2.266,7.518-4.423,11.364-6.476c1.592-0.85,3.208-1.649,4.844-2.409c0.91-0.423,1.827-0.781,2.773-1.104 c1.07-0.364,0.921-0.616,0.639-0.133c-1.891,3.236-5.854,5.563-7.213,9.146c-0.377,0.992,0.062,1.892,1.207,1.774 c0.834-0.086,1.678-0.641,2.391-1.02c1.809-0.961,4.31-3.212,6.053-0.439c0.352,0.559,0.6,0.884,1.021,1.394 c5.453,6.594,11.086-4.678,12.211-8.766c1.449-5.267,1.209-16.597-5.662-18.492c-5.42-1.496-9.228,4.628-10.568,8.991 c-2.379,7.737,3.895,12.594,10.779,14.106c2.438,0.536,17.899-0.554,16.758-5.269c-0.097-0.402-0.46-0.606-0.844-0.643 c-2.117-0.196-7.377,1.502-8.018,3.832c-0.664,2.415,3.99,1.501,4.906,1.33c0.794-0.148,8.558-3.173,6.238,0.02 c-0.471,0.646-1.104,1.665-0.62,2.49c0.627,1.071,2.403,0.671,3.304,0.564c2.688-0.317,2.425,1.936,4.301,2.235 c0.431,0.069,0.728-0.056,0.988-0.402c1.343-1.785,0.066-4.029,2.445-5.451c2.988-1.785,7.494-2.042,10.807-2.928 c3.498-0.936,7.013-2.065,10.348-3.486c1.028-0.438,3.05-0.964,3.628-2.081c0.221-0.427,0.11-0.942-0.314-1.197 c-1.328-0.797-4.18,0.928-5.329,1.4c-2.493,1.026-5.54,2.467-6.348,5.259c-0.535,1.851,1.5,3.512,3.054,3.838 c2.063,0.434,2.648,0.837,3.977,2.99c0.433,0.701,0.912,1.156,1.649,1.536c1.588,0.819,3.734,0.581,5.453,0.644 c6.254,0.227,4.814,6.319,3.835,10.798c-2.218,10.14-3.64,20.386-5.337,30.613c-0.184,1.104,1.503,1.576,1.688,0.465 c1.804-10.868,3.394-21.726,5.75-32.5c1.238-5.663,0.621-10.723-5.936-11.126c-1.28-0.079-2.56-0.009-3.832-0.212 c-1.946-0.309-2.112-2.434-3.017-3.864c-0.373-0.59-1.282-1.094-1.982-1.109c-0.825-0.019-5.997,0.397-2.636-3.201 c1.245-1.333,3.503-2.177,5.135-2.849c0.828-0.341,1.682-0.621,2.531-0.902c1-0.33,0.278-1.519-0.589-1.042 c-2.214,1.215-4.713,1.979-7.095,2.787c-5.027,1.706-10.851,2.139-15.663,4.354c-2.185,1.006-3.091,2.454-3.386,4.808 c-0.142,1.131,0.8,1.417-0.441,0.192c-0.451-0.445-0.919-0.695-1.468-0.999c-1.235-0.683-4.269,0.613-3.389-0.74 c1.097-1.688,2.196-3.646,0.102-5.004c-0.727-0.472-2.202-0.094-2.866,0.217c-1.789,0.837-3.543,1.666-5.449,2.197 c-5.479,1.525,1.21-1.27,1.471-1.367c2.24-0.829,0.062-0.537-0.556-0.199c-1.213,0.665-2.519,1.131-3.825,1.572 c-3.41,1.153-6.95,1.186-10.436,0.42c-8.405-1.847-10.3-9.324-6.084-15.94c5.167-8.106,10.954-0.004,11.485,6.387 c0.451,5.428-5.089,22.313-11.221,12.562c-1.549-2.463-4.341-1.12-6.348-0.139c-1.273,0.623-1.833,0.832-2.37,1.767 c0.656-1.143,1.599-2.142,2.433-3.156c1.55-1.887,3.433-3.617,4.671-5.737c2.721-4.655-8.332,0.381-8.874,0.651 c-4.267,2.126-8.396,4.54-12.489,6.98c-2.249,1.342-4.455,2.893-6.915,3.832c1.061-0.405,0.718,0.475,1.91-0.585 c1.216-1.081,2.599-1.965,3.955-2.855c1.813-1.191,5.769-2.914,5.857-5.512c0.073-2.133-6.837-2.129-6.593-2.425 c3.193-3.872,9.425-6.469,13.602-9.075c1.374-0.856,4.425-2.141,5.098-3.882c1.07-2.767-7.796,1.196-8.206,1.376 c-4.233,1.854-40.995,18.625-36.442,25.246c1.645,2.391,5.438-0.232,6.645-1.842c1.068-1.428,1.593-2.768,0.224-4.143 c-1.03-1.033-5.767-2.338-7.089-1.877c-0.358-0.359-0.718-0.718-1.076-1.076c-0.959,2.561-6.2,4.213-2.738,0.047 c1.021-1.229,2.216-2.348,3.418-3.398c0.863-0.757-0.373-1.92-1.238-1.238c-3.281,2.591-7.116,4.534-10.862,6.338 c-6.977,3.36-2.03,0.536-2.34-2.016c-0.082-0.671-0.677-1.074-1.317-0.756c-0.125,0.063-5.22,3.703-5.236,3.053 c-0.025-1.022,0.254-1.729-0.558-2.479c-0.408-0.378-1.081-0.313-1.556-0.104c-0.995,0.438-1.837,1.016-2.736,1.629 c-0.602,0.41-5.344,3.428-3.873,0.476c0.468-0.939,0.748-2.646-0.792-2.646c-3.238,0-7.425,5.892-9.518,7.866 c-0.271,0.249-0.544,0.498-0.815,0.748c-0.804,0.285-0.928,0.669-0.371,1.15c0.569-1.344,1.438-2.607,2.147-3.88 c0.46-0.827,1.258-2.359,0.998-3.372c-0.527-2.052-2.582-1.288-4.005-0.634c-1.821,0.837-3.415,2.227-5.022,3.397 c-1.566,1.143-5.486,4.595-3.655,0.582c0.979-2.146,2.111-4.241,2.922-6.46c0.234-0.642,0.056-2.165-1.023-1.725 c-2.101,0.858-3.846,4.462-5.039,6.151c-1.869,2.646-3.637,5.351-5.714,7.842c-1.366,1.639-1.86,2.328-1.347-0.209 c1.193-5.902,3.976-11.705,6.353-17.182c0.634-1.46,9.741-17.889,7.071-19.453c-2.323-1.36-8.32,7.997-9.379,9.455 c-8.71,11.996-14.431,26.847-20.057,40.49c0.563,0.155,1.125,0.31,1.688,0.465c2.212-5.429,4.547-10.809,6.949-16.155 c3.669-8.163,8.788-16.021,11.386-24.6c1.052-3.475,0.269-6.821-3.919-5.786C14.566,8.899,8.183,14.582,3.423,18.797 C2.577,19.547,3.819,20.78,4.661,20.035L4.661,20.035z"/>
</svg>