<?xml version="1.0" encoding="UTF-8" standalone="no"?>
<!-- Created with Inkscape (http://www.inkscape.org/) -->

<svg
   xmlns:dc="http://purl.org/dc/elements/1.1/"
   xmlns:cc="http://creativecommons.org/ns#"
   xmlns:rdf="http://www.w3.org/1999/02/22-rdf-syntax-ns#"
   xmlns:svg="http://www.w3.org/2000/svg"
   xmlns="http://www.w3.org/2000/svg"
   xmlns:sodipodi="http://sodipodi.sourceforge.net/DTD/sodipodi-0.dtd"
   xmlns:inkscape="http://www.inkscape.org/namespaces/inkscape"
   id="svg3039"
   version="1.1"
   inkscape:version="0.48.2 r9819"
   width="300.80154"
   height="103.78242"
   sodipodi:docname="Thomas Dongan signature.svg">
  <metadata
     id="metadata3045">
    <rdf:RDF>
      <cc:Work
         rdf:about="">
        <dc:format>image/svg+xml</dc:format>
        <dc:type
           rdf:resource="http://purl.org/dc/dcmitype/StillImage" />
        <dc:title />
      </cc:Work>
    </rdf:RDF>
  </metadata>
  <defs
     id="defs3043" />
  <sodipodi:namedview
     pagecolor="#ffffff"
     bordercolor="#666666"
     borderopacity="1"
     objecttolerance="10"
     gridtolerance="10"
     guidetolerance="10"
     inkscape:pageopacity="0"
     inkscape:pageshadow="2"
     inkscape:window-width="1264"
     inkscape:window-height="682"
     id="namedview3041"
     showgrid="false"
     inkscape:zoom="1.5392183"
     inkscape:cx="205.53621"
     inkscape:cy="89.555893"
     inkscape:window-x="20"
     inkscape:window-y="0"
     inkscape:window-maximized="0"
     inkscape:current-layer="svg3039"
     fit-margin-top="0"
     fit-margin-left="0"
     fit-margin-right="0"
     fit-margin-bottom="0"
     showborder="true" />
  <path
     style="fill:#000000"
     d="m 228.89402,103.04998 c 0.0308,-1.60352 10.53602,-6.44444 15.86829,-7.31229 3.08888,-0.50272 12.59141,-1.17905 21.11672,-1.50295 17.89564,-0.67989 22.45608,-2.18317 27.26594,-8.987792 2.3317,-3.298712 2.72637,-4.737591 2.40295,-8.760753 -0.30983,-3.853999 -1.08929,-5.548752 -3.90941,-8.5 -6.04287,-6.323844 -7.02112,-9.844677 -4.23322,-15.235875 0.83912,-1.622687 1.32434,-2.95034 1.07826,-2.95034 -1.41016,0 -14.47462,9.593583 -16.42642,12.062362 -2.37753,3.007273 -5.18603,3.924628 -5.16674,1.687638 0.006,-0.6875 1.71332,-3.05 3.79421,-5.25 4.27249,-4.517052 9.19501,-10.857913 9.19501,-11.844391 0,-2.048895 -3.29141,0.250144 -10.6727,7.454843 -5.45483,5.324321 -8.82885,7.911061 -9.82182,7.530023 -0.83192,-0.319237 -3.60301,0.53106 -6.15797,1.889548 -2.55496,1.358487 -6.15337,2.469977 -7.99645,2.469977 -2.9078,0 -3.35106,-0.330688 -3.35106,-2.5 0,-4.67761 -3.34973,-2.594523 -5.46396,3.397862 -1.93984,5.498092 -7.35646,12.884183 -13.35043,18.204609 -5.02224,4.457899 -21.16075,12.897529 -24.66303,12.897529 -5.49861,0 -5.96166,-5.84643 -1.06885,-13.495118 5.18396,-8.103844 9.05464,-11.317208 19.97814,-16.585472 8.93267,-4.308116 9.66206,-4.857732 7.25,-5.46312 -2.0145,-0.505607 -2.68187,-1.295219 -2.68187,-3.173106 0,-2.150569 -0.34086,-2.414448 -2.43871,-1.887922 -1.3413,0.336643 -2.71786,0.160427 -3.05902,-0.391592 -0.34117,-0.552018 -1.47791,-1.00367 -2.5261,-1.00367 -2.42501,0 -4.19968,-3.261268 -3.43425,-6.311012 0.32468,-1.293628 1.73111,-3.582328 3.12539,-5.086 3.13126,-3.376921 2.46125,-4.367391 -1.33055,-1.966938 -6.03443,3.820189 -21.18122,16.471247 -23.74503,19.832568 -2.72632,3.574397 -5.59173,4.678096 -5.59173,2.153827 0,-0.757656 0.68387,-1.94512 1.51972,-2.638811 1.67111,-1.3869 10.40533,-13.624733 11.19761,-15.689386 0.34963,-0.911116 -0.49711,-1.26474 -2.86034,-1.194568 -5.64134,0.16751 -8.37955,1.33402 -8.14434,3.469584 0.70126,6.366882 -6.41927,16.883335 -13.14652,19.416356 -5.77409,2.174126 -10.87501,-2.286329 -9.0805,-7.940357 0.36643,-1.154494 2.48924,-4.20541 4.71737,-6.779814 4.2714,-4.935214 3.96421,-5.894602 -1.55584,-4.859034 -2.75547,0.516929 -3.7293,1.551383 -6.44972,6.851223 -4.20159,8.185427 -11.08066,13.794916 -20.60932,16.805725 -6.1548,1.94476 -7.76816,2.097351 -12.2527,1.158864 -6.65236,-1.392146 -12.89997,-5.53433 -14.26848,-9.460035 -1.49025,-4.274955 -1.33053,-6.723811 0.48396,-7.420097 0.85299,-0.327324 5.14917,-2.75776 9.54705,-5.400967 4.39789,-2.643208 8.4571,-4.959478 9.02047,-5.147267 0.68282,-0.227609 0.61908,-1.950714 -0.19122,-5.168706 l -1.21552,-4.827272 -6.10584,0.627168 c -3.35821,0.344943 -8.80584,0.860066 -12.10584,1.144718 -10.94019,0.943681 -14.773723,1.368822 -14.887463,1.651029 -1.75338,4.350146 -5.44566,9.451395 -11.077688,15.304927 -8.250227,8.574697 -14.895537,12.721293 -18.284852,11.409535 -3.268668,-1.265064 -2.832007,-2.813187 2.745942,-9.735355 2.747768,-3.409948 4.455821,-6.199905 3.795673,-6.199905 -0.660148,0 -5.999383,2.925 -11.864968,6.5 -9.955626,6.067828 -15.926647,8.081729 -15.926647,5.371727 0,-2.878214 6.999991,-12.838384 13.653728,-19.42766 7.149548,-7.080285 9.240609,-10.424478 5.596272,-8.950009 -0.9625,0.38942 -4.45,1.609758 -7.75,2.711863 -8.985162,3.000784 -10.908427,4.244593 -16.176637,10.461707 -7.115156,8.396732 -20.561592,22.369429 -22.573363,23.456831 -2.767362,1.495812 -5.75,-0.661876 -5.75,-4.159643 0,-1.630649 0.45,-2.964816 1,-2.964816 0.55,0 1,1.35 1,3 0,1.769475 0.524568,3 1.278888,3 1.416779,0 9.706962,-8.329675 20.279628,-20.376234 l 6.91258,-7.876234 -5.485548,0.743483 c -7.269494,0.985269 -9.740518,2.377867 -14.480683,8.160895 -2.185605,2.666449 -6.758755,7.66059 -10.162555,11.09809 -4.9497034,4.998707 -6.8110064,6.25 -9.2969044,6.25 -3.94434194,0 -4.73883784,-1.958263 -3.17170804,-7.817586 C 3.0013556,50.577184 12.266156,42.619794 21.928987,40.794937 28.326424,39.58676 29.334458,38.525851 34.895383,27.148403 41.053602,14.548912 40.218775,13.546052 29.879607,21.12305 22.556827,26.489506 12.686954,36.614797 8.2186256,43.344585 c -1.992199,3.000467 -4.281613,5.455395 -5.087588,5.455395 -5.7051942,0 17.4995554,-24.39555 30.6595874,-32.232948 5.09298,-3.033101 7.88032,-3.474392 8.685876,-1.375146 0.531736,1.385682 -5.637602,14.393674 -9.536724,20.108094 -1.125846,1.65 -2.049957,3.401605 -2.053581,3.892456 -0.01071,1.45026 11.900629,-0.224576 15.119324,-2.125906 1.626029,-0.960519 3.211677,-2.763433 3.52366,-4.006474 0.311984,-1.243042 1.109468,-2.260076 1.772186,-2.260076 0.662719,0 4.326436,-3.075176 8.141592,-6.833724 C 72.688319,10.91743 91.254287,-1.4214295 95.304557,0.13281045 c 2.09134,0.80252 1.98738,4.52196005 -0.21996,7.86904005 -0.98,1.48604 -4.51258,5.5733105 -7.850166,9.0828355 -3.337586,3.509526 -6.470298,7.028157 -6.961581,7.819181 -0.491284,0.791024 -2.018243,2.013256 -3.393243,2.716071 -7.112168,3.635303 -8,4.369334 -8,6.614146 0,1.546312 -1.523645,3.573485 -4.549399,6.052862 -6.633378,5.435555 -16.876034,20.513034 -13.935217,20.513034 0.283462,0 2.870962,-1.522107 5.75,-3.38246 2.879039,-1.860353 9.959616,-6.095374 15.734616,-9.411159 16.563898,-9.510357 16.523594,-9.479442 16.311736,-12.511763 -0.200805,-2.874125 0.318714,-3.213952 2.654726,-1.736508 0.933178,0.5902 1.942018,0.53281 2.774168,-0.157813 1.38764,-1.151643 2.74342,-0.404935 2.78349,1.533036 0.0133,0.641667 0.91327,1.07823 2,0.970141 7.410683,-0.737088 14.249933,-1.302595 22.671653,-1.87462 9.63331,-0.654318 9.69979,-0.676845 10.31914,-3.496747 1.35127,-6.152262 7.69928,-10.932107 14.51871,-10.932107 4.00598,0 6.54706,1.349545 11.48867,6.101522 l 4.0223,3.867939 9.7947,-1.470339 c 6.18714,-0.928786 16.28641,-3.692635 27.41997,-7.503978 9.69389,-3.318501 18.10124,-5.858978 18.683,-5.645503 1.96759,0.722005 -18.42032,8.502734 -39.69226,15.147933 -11.24331,3.512327 -14.76877,5.011316 -14.82895,6.305109 -0.0485,1.041637 -0.27379,1.214437 -0.58333,0.447317 -0.27741,-0.6875 -1.02939,-1.260772 -1.67105,-1.273938 -1.99766,-0.04099 -20.66667,7.475729 -20.66667,8.321036 0,0.440377 1.9125,1.668802 4.25,2.729832 4.63535,2.104062 11.14941,2.53211 15.1849,0.997821 2.16704,-0.823906 2.5651,-1.599827 2.5651,-5 0,-2.213613 0.34939,-4.024751 0.77643,-4.024751 0.42703,0 0.60476,1.8 0.39496,4 -0.44523,4.668689 0.14863,4.842091 8.86851,2.589505 3.00306,-0.775772 10.5226,-1.733666 16.7101,-2.128653 12.56848,-0.802326 12.96073,-0.570291 8.63131,5.10587 -3.70863,4.862272 -1.76887,4.257792 5.16197,-1.6086 6.57828,-5.567982 15.81108,-10.419855 18.13287,-9.528901 1.20491,0.462367 0.89643,1.38725 -1.59068,4.769195 -4.67341,6.354854 -3.9384,12.801584 1.45954,12.801584 1.17976,0 2.95485,-0.894859 3.94465,-1.988575 5.66632,-6.261217 18.4854,-10.936863 21.9964,-8.022994 2.25216,1.869124 1.93816,2.675713 -2.98606,7.670597 -2.475,2.510515 -4.5,4.964263 -4.5,5.452773 0,2.352145 3.99384,0.349531 8.46129,-4.242705 6.26421,-6.439186 8.16339,-7.665708 14.72613,-9.510367 2.92192,-0.821295 6.10008,-1.740478 7.06258,-2.042628 2.88471,-0.905573 2.03894,0.969655 -3.86341,8.565971 -3.08737,3.973444 -5.32421,7.513641 -4.97075,7.867103 0.35346,0.353463 3.892,-2.545217 7.86341,-6.441511 7.6337,-7.489306 10.30136,-9.307664 13.65501,-9.307664 2.74817,0 2.61466,0.888947 -0.91606,6.099519 -1.63999,2.420265 -2.98999,4.768623 -3,5.218575 -0.024,1.080675 5.14951,-2.57414 12.05938,-8.519255 6.62293,-5.698241 11.22189,-6.834346 6.26971,-1.548839 -4.44758,4.746937 -6.34729,7.893232 -6.34729,10.512344 0,3.020769 3.23678,9.298802 7.00965,13.59586 2.01649,2.296666 3.20737,4.946016 3.63912,8.09597 0.62737,4.57711 0.53194,4.79462 -4.2535,9.694766 -8.05614,8.24925 -13.90645,10.25341 -33.26544,11.3959 -5.29641,0.31257 -11.42983,0.9563 -13.62983,1.43051 -2.2,0.47421 -6.60847,1.42565 -9.7966,2.11432 -3.18813,0.68866 -6.02719,1.62522 -6.30902,2.08122 -0.63881,1.03362 -4.39961,1.10154 -4.37997,0.0791 z M 208.91259,91.78333 c 8.32531,-4.202601 19.97381,-16.084279 22.33497,-22.782068 1.02737,-2.914294 1.70121,-5.46546 1.49741,-5.669257 -0.67124,-0.671234 -14.25686,6.108701 -19.86536,9.913852 -11.36877,7.713267 -17,14.21576 -17,19.630233 0,3.08496 0.0721,3.13294 3.68824,2.45455 2.02853,-0.38055 6.23366,-1.97684 9.34474,-3.54731 z M 142.13281,68.675088 c 2.33574,-1.189252 6.1624,-3.729413 8.50369,-5.644803 4.17858,-3.418456 8.90116,-10.306875 8.13305,-11.862971 -0.21447,-0.434481 -3.76494,-0.810741 -7.88994,-0.836134 -4.87048,-0.02998 -9.07771,-0.688231 -12,-1.877481 -5.18753,-2.111109 -6.646,-1.682653 -17.40962,5.114433 -7.39172,4.667781 -8.28591,6.015173 -6.47712,9.759946 3.72525,7.71245 17.25774,10.378572 27.13994,5.34701 z m 33.73668,-6.484932 c 4.7697,-4.309138 6.92684,-10.082777 5.19073,-13.893125 -2.00312,-4.396362 -4.76772,-2.952498 -11.30259,5.902987 -2.71075,3.673366 -3.84809,9.296562 -2.21135,10.933295 1.52566,1.525668 4.56723,0.450145 8.32321,-2.943157 z M 10.822215,61.232865 c 3.887002,-3.511672 15.057392,-17.422853 15.057392,-18.751905 0,-1.077002 -5.813554,-0.791672 -6.5,0.31902 -0.339919,0.55 -1.388947,1 -2.331173,1 -4.426394,0 -15.1688274,13.364795 -15.1688274,18.871727 0,3.404913 4.357129,2.703863 8.9426084,-1.438842 z m 63.084886,0.933727 C 77.862934,59.553288 90.693526,46.0605 92.446797,42.670051 c 0.93328,-1.804759 1.23219,-3.470691 0.71545,-3.987427 -1.9785,-1.9785 -24.28264,19.642041 -24.28264,23.538401 0,2.029848 1.903658,2.009237 5.027494,-0.05443 z M 252.72957,60.793708 c 3.8692,-2.802832 5.30698,-4.993728 3.27716,-4.993728 -1.11797,0 -10.12712,3.972101 -10.12712,4.465007 0,0.20428 -0.27314,1.083222 -0.60699,1.953206 -1.00991,2.631779 2.88439,1.88786 7.45695,-1.424485 z m -19.71343,-1.733447 c 1.61981,-0.956845 4.98159,-4.331845 7.47064,-7.5 4.40918,-5.61218 4.46107,-5.760281 2.0182,-5.760281 -1.37904,0 -2.74953,0.391877 -3.04554,0.870838 -0.29602,0.478961 -1.78508,1.129975 -3.30902,1.446698 -4.58066,0.952003 -10.27081,6.356535 -10.27081,9.755268 0,3.502273 2.51067,3.920035 7.13653,1.187477 z M 255.5467,54.73608 c 4.30626,-1.838995 9.19918,-6.147287 9.29695,-8.1861 0.0799,-1.666993 -4.92241,-0.591684 -8.57449,1.843184 -5.41172,3.608022 -9.10633,8.406816 -6.47246,8.406816 0.50441,0 3.09191,-0.928755 5.75,-2.0639 z M 148.87961,38.308834 c 5.225,-1.986418 10.0625,-3.799413 10.75,-4.028877 0.6875,-0.229464 1.25,-0.881331 1.25,-1.448592 0,-1.877091 -11.34017,-0.982865 -23.5,1.853085 -2.61674,0.610284 -2.95521,1.077551 -2.64942,3.657599 0.65066,5.489724 -0.3843,5.492153 14.14942,-0.03321 z M 61.258069,33.415209 c 4.502393,-1.88122 3.92793,-3.615229 -1.197697,-3.615229 -2.578034,0 -4.532616,0.770931 -6.440983,2.540469 -1.50688,1.397258 -2.739782,2.806137 -2.739782,3.130842 0,0.917695 6.201731,-0.310933 10.378462,-2.056082 z m 87.621541,-2.192326 c 8.72249,-0.917216 9.72276,-1.857401 5.6962,-5.354045 -5.44335,-4.726966 -7.18551,-5.302147 -11.83782,-3.908282 -4.27103,1.279632 -7.84719,5.476176 -7.85464,9.217232 -0.003,1.605787 0.53949,1.794571 3.74626,1.303206 2.0625,-0.316031 6.675,-0.882181 10.25,-1.258111 z m 20.46875,-0.577697 c 0.74749,-0.809863 0.34336,-0.946039 -1.46875,-0.494905 -1.375,0.342315 -3.2875,0.628534 -4.25,0.636044 -0.9625,0.0075 -1.75,0.519905 -1.75,1.138655 0,1.381595 5.95398,0.361361 7.46875,-1.279794 z M 74.351915,26.04998 C 82.496538,19.423199 92.594267,9.2524505 94.295987,5.9616805 c 1.53167,-2.96191 1.53259,-3.24405 0.0125,-3.82737 -0.9026,-0.34636 -3.523536,0.28482 -5.824309,1.40262 -6.920962,3.36245 -28.604571,21.1547825 -28.604571,23.4712575 0,0.435486 1.098442,0.791792 2.440983,0.791792 1.342541,0 2.719098,0.45 3.059017,1 1.200469,1.9424 4.416681,0.956635 8.972308,-2.75 z"
     id="path3055"
     inkscape:connector-curvature="0" />
</svg>
