<?xml version="1.0" encoding="UTF-8"?>
<svg version="1.0" xmlns="http://www.w3.org/2000/svg" width="205" height="61" >
<path fill="#231F20" d="M36.472,11.4c0.888-3.399,2.954-8.68,7.41-7.583c0.633,0.156,5.599,0.492,4.325,2.063 c-1.53,1.889-3.785,3.203-5.675,4.727c-6.186,4.985-12.138,10.269-18.163,15.444c-5.941,5.103-11.813,10.435-18.188,14.995 c-0.356,0.255-0.723,0.493-1.093,0.727c-0.695,0.438,0.229,0.71,0.516,0.367c0.584-0.703,1.403-1.237,2.128-1.779 c2.81-2.101,5.804-3.967,8.766-5.842c13.106-8.293,26.721-17.191,41.081-23.187c0.446-0.187,0.898-0.354,1.359-0.499 c0.657-0.207-0.146-0.41-0.425-0.116c-0.944,0.993-2.166,1.769-3.271,2.566c-5.295,3.822-10.913,7.179-16.352,10.787 c-3.308,2.195-11.699,6.521-12.6,11.132c-0.227,1.158,1.249,1.659,2.112,1.272c1.513-0.678,2.922-2.706,4.117-3.805 c1.509-1.387,3.065-2.721,4.678-3.987c1.428-1.12,3.68-3.431,3.985-0.503c0.144,1.379-0.021,4.636,2.345,3.576 c1.992-0.893,3.692-3.863,5.041-5.488c4.476-5.394,8.947-10.79,13.419-16.188c1.142-1.378,1.544-3.35,2.479-4.9 c0.961-1.594,2.293-0.833,3.725-0.675c3.423,0.379,6.858,0.599,10.165,1.637c16.242,5.099-16.263,25.569-19.974,28.001 c-1.114,0.73,0.551,1.126,1.236,0.713c13.833-8.333,27.667-16.667,41.5-25c-0.412-0.237-0.824-0.476-1.236-0.713 c-5.617,3.506-11.133,7.193-16.493,11.08c-1.145,0.829-13.493,9.405-10.378,11.428c1.815,1.178,4.777,0.203,6.641-0.321 c4.816-1.354,9.382-3.749,13.792-6.059c6.911-3.617,13.646-7.646,20.175-11.915c1.118-0.73-0.552-1.119-1.236-0.713 c-6.533,3.88-13.303,7.918-18.955,13.029c-8.379,7.575,12.729,3.3,15.725,2.392c1.156-0.351,0.867-1.483-0.303-1.129 c-1.406,0.427-2.84,0.748-4.276,1.058c-1.695,0.364-10.563,2.279-11.396,0.623c-0.746-1.482,5.611-5.571,6.45-6.183 c4.487-3.27,9.22-6.243,13.992-9.077c-0.412-0.237-0.824-0.476-1.236-0.713c-3.882,2.538-35.753,22.567-37.884,17.881 c-1.269-2.791,12.041-10.972,13.856-12.241c4.178-2.919,8.44-5.729,12.764-8.427c1.12-0.699-0.542-1.131-1.236-0.713 c-13.833,8.333-27.667,16.667-41.5,25c0.412,0.237,0.824,0.476,1.236,0.713c4.028-2.639,32.875-19.482,23.711-27.881 c-2.41-2.208-6.238-2.723-9.336-3.157c-2.254-0.316-5.784-1.356-8.006-1.128c-2.517,0.259-3.717,2.823-4.657,4.859 c-0.903,1.957-1.46,2.748-3.046,4.661c-4.774,5.763-9.546,11.527-14.331,17.281c-1.109,1.334-0.037-4.175-2.14-4.324 c-2.181-0.154-4.229,1.581-5.853,2.803c-2.564,1.932-4.93,4.144-7.252,6.354c-1.361,1.296-1.742,0.909-0.362,1.056 c0.249,0.026-0.014,0.022-0.083-0.126c-1.572-3.358,16.213-13.308,17.955-14.42c1.229-0.785,15.437-8.538,14.492-10.911 C59.575,7.07,33.969,22.539,32.213,23.563c-7.523,4.39-15.019,8.863-22.273,13.688c-0.37,0.246-7.97,5.279-5.97,5.903 c2.672,0.834,7.544-4.519,9.223-5.896c6.888-5.648,13.603-11.507,20.358-17.31c3.844-3.301,7.668-6.641,11.652-9.771 c1.044-0.82,7.879-5.112,4.502-6.59c-7.79-3.409-13.145,0.237-15.177,8.013C34.315,12.413,36.278,12.142,36.472,11.4L36.472,11.4 M101.873,34.924c2-1.5,4-3,6-4.5c0.366-0.274-0.322-0.317-0.453-0.307 c-0.455,0.04-0.926,0.184-1.293,0.459c-2,1.5-4,3-6,4.5c-0.366,0.274,0.322,0.317,0.453,0.307 C101.035,35.343,101.506,35.199,101.873,34.924L101.873,34.924 M112.475,38.413c0.008-1.616,0.221-5.371,2.189-5.801c1.205-0.263,0.858-1.484-0.328-1.225 c-3.082,0.673-3.799,4.516-3.811,7.199C110.521,39.549,112.472,39.216,112.475,38.413L112.475,38.413 M127.668,18.627c0.984-0.239,13.583-4.03,11.163-6.249c-2.905-2.663-11.892,2.399-14.58,3.699 c-3.529,1.707-8.416,4.06-5.878,8.526c3.184,5.604,13.431,2.529,17.87,1.201c10.313-3.084,21.41-8.507,29.642-15.552 c4.532-3.879-0.939-3.343-3.808-2.244c-8.841,3.389-16.898,9.988-24.174,15.866c-6.981,5.641-12.355,11.98-17.983,18.92 c-1.388,1.712-11.91,14.507-14.059,9.633c-1.273-2.888,6.076-7.974,7.686-9.222c9.477-7.352,21.782-13.839,33.858-15.033 c1.054-0.104,1.512-1.477,0.189-1.346c-9.392,0.928-18.295,5-26.39,9.651c-5.903,3.393-13.086,7.707-16.707,13.718 c-2.675,4.44,3.134,5.035,6.035,3.672c7.745-3.639,12.946-13.299,18.269-19.607c6.273-7.438,14.899-13.461,22.906-18.866 c3.883-2.62,7.998-5.251,12.46-6.768c2.982-1.014,0.34,0.926-0.839,1.872c-2.178,1.745-4.587,3.212-6.97,4.653 c-6.411,3.879-13.339,7.056-20.452,9.399c-4.21,1.387-11.452,3.567-15.195-0.05c-5.557-5.371,10.508-10.06,13.696-10.923 c4.72-1.277-0.669,1.814-2.289,2.394c-1.563,0.559-3.175,1.009-4.787,1.4C126.134,17.664,126.479,18.916,127.668,18.627 L127.668,18.627 M147.907,32.493c3.957-1.564,9.545-3.189,12.419-6.494c2.613-3.006-7.949-1.285-8.829-0.952 c-5.81,2.2-0.674,5.287,2.654,5.945c7.452,1.475,16.509,0.964,23.647-1.676c1.151-0.425,9.33-3.916,4.517-5.358 c-3.178-0.952-9.088-0.261-11.672,1.951c-2.732,2.339,2.202,5.271,4.115,6.06c7.888,3.256,17.56,1.521,25.635,0.162 c0.992-0.167,1.532-1.483,0.213-1.262c-8.05,1.354-19.306,3.774-26.644-1.216c-0.813-0.553-1.471-1.292-2.073-2.058 c-1.165-1.483,3.399-2.238,4.07-2.355c2.78-0.484,8.568-0.404,3.152,2.247c-4.911,2.404-10.939,2.821-16.322,2.879 c-3.621,0.039-8.183,0.024-11.416-1.812c-3.921-2.227,8.523-4.346,7.082-2.688c-1.19,1.369-3.437,2.135-5.038,2.905 c-2.068,0.994-4.191,1.891-6.325,2.734C145.85,31.999,146.966,32.865,147.907,32.493L147.907,32.493z"/>
</svg>