<?xml version="1.0" standalone="no"?>
<!DOCTYPE svg PUBLIC "-//W3C//DTD SVG 20010904//EN"
 "http://www.w3.org/TR/2001/REC-SVG-20010904/DTD/svg10.dtd">
<svg version="1.0" xmlns="http://www.w3.org/2000/svg"
 width="468pt" height="100pt" viewBox="0 0 468 100"
 preserveAspectRatio="xMidYMid meet">
<metadata>
Created by POTRACE VERSION, written by Peter Selinger 2001-2007
</metadata>
<g transform="translate(0,100) scale(0.015600,-0.015600)"
fill="#000000" stroke="none">
<path d="M1915 6046 c-22 -7 -59 -23 -83 -35 -24 -12 -103 -40 -175 -63 -73
-22 -161 -55 -197 -73 -36 -18 -90 -38 -120 -45 -30 -7 -95 -33 -145 -56 -49
-24 -130 -55 -179 -69 -49 -14 -97 -30 -108 -36 -10 -6 -55 -36 -99 -66 -52
-37 -82 -65 -86 -81 -3 -14 -1 -32 4 -41 6 -9 26 -17 44 -19 27 -2 45 5 79 31
25 19 60 42 78 51 19 10 75 33 125 53 51 19 109 44 129 54 21 11 72 24 115 30
43 6 101 21 128 34 28 13 64 27 80 31 17 3 92 33 167 65 75 33 148 59 161 59
13 0 31 -8 40 -18 10 -10 17 -33 17 -51 0 -17 -11 -54 -25 -80 -18 -37 -26
-72 -31 -144 -6 -86 -5 -99 15 -141 13 -25 40 -59 61 -76 22 -17 60 -38 85
-47 40 -13 60 -14 143 -3 53 6 130 20 170 31 40 10 85 19 101 19 15 0 35 -8
44 -18 10 -10 17 -28 17 -39 0 -11 -9 -32 -20 -46 -11 -14 -38 -57 -60 -95
-22 -39 -44 -92 -50 -119 -5 -26 -23 -91 -39 -143 -17 -52 -39 -122 -49 -155
-11 -33 -42 -123 -69 -200 -27 -77 -64 -171 -80 -210 -17 -38 -37 -89 -43
-112 -7 -22 -29 -63 -49 -89 -20 -27 -54 -58 -75 -70 -21 -12 -92 -36 -159
-54 -67 -18 -150 -44 -183 -56 -34 -13 -93 -28 -130 -35 -38 -6 -86 -20 -106
-30 -21 -11 -69 -26 -107 -34 -39 -8 -97 -26 -130 -39 -33 -13 -91 -31 -130
-40 -39 -9 -117 -36 -173 -60 -57 -24 -119 -47 -138 -51 -19 -4 -64 -22 -100
-39 -36 -18 -92 -43 -125 -56 -33 -13 -76 -34 -96 -46 -19 -12 -51 -38 -70
-58 -19 -20 -42 -51 -51 -68 -10 -18 -18 -49 -18 -69 0 -19 5 -62 11 -94 6
-33 23 -87 38 -120 16 -33 48 -85 72 -115 24 -30 80 -91 124 -135 73 -73 90
-85 200 -134 66 -29 145 -62 175 -73 43 -16 72 -19 130 -15 41 2 118 17 170
32 52 15 129 45 170 65 41 21 106 64 145 97 38 32 82 77 96 98 15 22 69 112
120 200 51 88 108 192 128 230 19 39 63 105 98 148 37 46 91 131 129 205 35
70 84 153 108 186 23 32 54 64 67 71 13 7 61 18 107 24 45 7 98 19 117 27 19
8 72 23 117 33 46 11 128 38 183 60 54 23 111 41 126 41 14 0 33 -8 42 -18 10
-10 17 -32 17 -48 0 -18 -16 -55 -41 -94 -23 -35 -54 -91 -69 -124 -15 -34
-39 -98 -54 -143 -14 -45 -33 -135 -41 -200 -9 -65 -20 -136 -25 -158 -5 -22
-19 -72 -31 -111 -16 -51 -20 -81 -15 -109 5 -24 20 -51 42 -73 35 -35 35 -35
104 -29 37 3 97 17 132 31 34 14 115 44 178 66 63 23 165 59 226 80 62 21 132
50 156 64 25 14 58 26 74 26 16 0 34 -4 40 -8 6 -4 16 -17 23 -29 7 -14 9 -42
5 -77 -5 -43 -3 -61 10 -80 9 -14 30 -32 46 -41 16 -8 55 -18 87 -21 41 -4 84
0 148 15 50 11 126 25 169 31 51 6 106 23 156 45 43 20 94 35 114 35 25 0 44
-7 60 -23 13 -14 28 -46 35 -76 6 -28 18 -62 27 -76 8 -13 37 -38 63 -54 33
-22 68 -33 119 -41 39 -5 122 -13 184 -16 75 -4 133 -2 173 6 33 6 110 28 170
47 l110 35 107 112 c84 86 111 122 124 161 12 34 20 97 23 193 6 138 7 145 31
164 22 18 36 20 145 16 99 -2 126 -7 155 -23 19 -12 48 -40 65 -64 26 -37 30
-50 28 -104 -1 -34 -12 -98 -24 -142 -12 -44 -24 -97 -26 -118 -3 -23 2 -56
12 -82 9 -25 30 -56 46 -70 17 -14 42 -25 56 -25 13 0 59 15 101 33 43 19 126
46 186 61 59 15 127 36 150 48 22 12 70 27 106 35 36 7 90 26 120 42 30 16 81
36 113 45 32 9 88 33 125 53 37 20 87 55 112 78 25 24 55 48 67 54 15 7 30 8
47 1 14 -5 32 -22 40 -38 9 -18 18 -74 22 -148 4 -65 12 -130 19 -144 7 -14
22 -33 33 -43 11 -10 38 -21 59 -24 21 -3 75 4 123 15 47 11 128 28 180 37 52
10 126 26 164 37 38 11 88 20 110 20 28 1 78 -15 161 -51 66 -29 147 -62 180
-73 42 -14 103 -23 205 -28 80 -5 195 -11 255 -15 61 -3 149 -13 198 -21 48
-8 109 -14 137 -14 27 0 100 7 162 16 61 8 159 27 216 41 67 16 117 22 138 18
19 -3 73 -25 121 -48 83 -40 93 -42 178 -42 50 0 155 3 235 8 80 4 186 17 235
28 50 11 126 27 170 35 44 9 119 29 168 45 48 16 93 29 101 29 7 0 25 -9 39
-20 18 -15 34 -45 51 -103 16 -53 39 -100 61 -129 25 -32 52 -52 88 -67 29
-12 73 -32 98 -46 25 -13 101 -45 170 -71 68 -25 145 -57 171 -70 26 -13 78
-31 115 -40 38 -9 82 -13 103 -9 21 4 47 15 59 27 12 11 26 31 32 45 5 13 9
36 9 50 0 15 -13 38 -32 57 -23 22 -50 36 -88 44 -30 7 -86 30 -125 50 -45 24
-75 47 -83 64 -10 21 -10 37 -3 65 6 21 27 65 46 98 20 33 43 87 51 120 7 33
14 80 14 105 0 25 -7 76 -15 113 -8 38 -31 102 -52 143 -21 41 -56 95 -77 120
-22 26 -55 53 -73 60 -18 8 -46 14 -62 14 -17 0 -42 -5 -56 -12 -15 -7 -36
-30 -47 -52 -11 -23 -48 -82 -81 -133 -39 -57 -73 -97 -92 -106 -16 -8 -86
-33 -155 -56 -69 -22 -170 -51 -225 -65 -55 -13 -120 -27 -145 -31 -25 -3 -72
-15 -105 -25 -33 -10 -85 -22 -115 -25 -30 -4 -89 -15 -132 -26 -42 -10 -97
-19 -123 -19 -25 0 -59 7 -74 15 -16 8 -31 22 -35 30 -3 9 -6 25 -6 35 0 9 18
40 40 67 21 27 43 67 48 89 4 21 4 57 0 80 -6 29 -22 53 -56 86 -31 31 -75 59
-127 81 -44 20 -113 42 -153 50 -52 11 -82 13 -107 6 -20 -6 -57 -23 -83 -38
-26 -16 -67 -40 -92 -54 -25 -14 -83 -46 -131 -71 -62 -32 -101 -62 -145 -108
-33 -36 -65 -78 -72 -94 -6 -16 -16 -48 -22 -71 -6 -23 -20 -49 -33 -58 -12
-9 -43 -15 -73 -15 -28 0 -100 9 -160 21 -60 11 -159 24 -219 29 -61 5 -124
14 -140 20 -16 6 -38 19 -48 27 -9 9 -24 39 -32 66 -8 28 -22 61 -30 73 -8 13
-29 31 -47 40 -22 11 -48 15 -87 12 -37 -3 -86 -18 -146 -45 -49 -22 -126 -52
-170 -67 -44 -14 -111 -32 -148 -41 -38 -8 -83 -15 -100 -15 -18 0 -42 7 -54
15 -12 9 -27 32 -33 53 -5 20 -10 56 -10 79 0 23 -14 76 -31 119 -17 43 -36
86 -43 96 -6 10 -26 23 -45 29 -18 6 -55 9 -82 7 -28 -3 -82 -22 -131 -46 -46
-22 -99 -44 -118 -47 -19 -4 -51 -16 -70 -26 -19 -10 -62 -36 -95 -59 -36 -24
-94 -51 -145 -66 -47 -14 -126 -48 -176 -74 -51 -27 -116 -56 -145 -64 -29 -9
-69 -16 -90 -16 -28 0 -42 6 -57 24 -14 19 -20 48 -25 125 -5 81 -12 115 -38
176 -17 42 -42 89 -56 105 -13 16 -47 40 -76 54 -34 15 -92 29 -167 39 -63 9
-181 19 -262 22 -90 4 -162 2 -185 -4 -22 -6 -55 -27 -77 -50 l-39 -40 -78 6
c-61 5 -83 3 -101 -9 -13 -9 -48 -36 -78 -62 -30 -26 -113 -77 -185 -115 -94
-49 -173 -81 -285 -115 -85 -26 -202 -65 -260 -87 -58 -21 -136 -44 -175 -49
-38 -5 -93 -10 -121 -10 -37 0 -55 5 -67 18 -10 10 -17 26 -17 34 0 9 16 35
35 59 20 23 40 51 46 61 6 10 11 37 11 58 0 22 -7 52 -17 66 -9 14 -32 32 -50
40 -19 8 -49 14 -67 14 -18 0 -60 -12 -93 -26 -33 -14 -108 -43 -167 -64 -59
-21 -126 -49 -150 -61 -23 -12 -85 -36 -138 -54 -52 -17 -143 -49 -201 -70
-75 -27 -113 -36 -132 -31 -15 3 -36 15 -47 26 -13 13 -20 33 -20 58 0 20 13
78 29 127 15 50 40 113 53 140 14 28 31 75 38 105 7 30 28 86 47 125 18 38 33
75 33 83 0 7 12 36 27 65 14 29 32 81 40 116 7 35 22 75 32 90 13 18 77 56
179 108 92 47 199 111 256 153 53 39 117 93 142 118 25 26 76 90 113 142 38
52 85 129 106 170 l37 74 -4 181 c-3 106 -10 192 -17 210 -7 16 -42 77 -79
135 -36 58 -79 122 -95 143 -16 21 -69 65 -118 97 -48 32 -105 63 -125 69 -26
7 -51 7 -81 0 -24 -7 -62 -28 -86 -49 -23 -21 -63 -66 -87 -100 -25 -35 -71
-95 -103 -134 -31 -39 -62 -87 -68 -106 -6 -19 -27 -70 -46 -113 -22 -50 -40
-111 -49 -170 -7 -51 -19 -108 -25 -127 -6 -19 -15 -111 -19 -205 -5 -93 -13
-216 -19 -272 -8 -81 -16 -114 -38 -155 -15 -29 -39 -58 -53 -65 -14 -7 -56
-27 -95 -44 -38 -17 -106 -37 -150 -44 -58 -9 -109 -26 -187 -64 -67 -32 -120
-51 -143 -51 -22 0 -43 8 -56 21 -16 16 -20 29 -15 53 3 17 26 69 50 116 24
47 62 135 85 195 24 63 47 148 55 200 8 50 21 107 29 128 9 20 29 56 45 79 16
24 34 59 41 78 6 19 15 53 21 76 5 22 40 86 78 142 38 57 99 134 137 172 37
39 72 70 76 70 5 0 25 15 45 32 20 18 43 47 50 65 8 18 14 42 14 53 0 12 -11
32 -25 45 -17 18 -35 25 -61 25 -24 0 -60 -13 -102 -36 -36 -20 -90 -45 -121
-55 -31 -9 -93 -34 -139 -54 -46 -20 -115 -43 -155 -50 -40 -7 -105 -20 -145
-29 -40 -9 -95 -16 -122 -16 -27 0 -60 5 -74 11 -13 7 -30 24 -36 40 -7 15 -9
41 -5 58 3 16 14 40 24 53 10 13 24 34 30 47 7 13 19 62 27 109 10 62 11 97 4
123 -6 21 -25 50 -45 68 -30 26 -44 31 -83 30 -26 0 -65 -6 -87 -13z m1799
-380 c19 -14 55 -55 80 -92 26 -36 55 -82 65 -103 11 -20 24 -64 30 -97 8 -45
7 -83 -3 -156 -10 -68 -22 -111 -39 -141 -14 -24 -33 -49 -42 -57 -8 -7 -29
-39 -47 -72 -20 -39 -63 -89 -127 -151 -53 -50 -138 -120 -189 -154 -51 -35
-104 -63 -117 -63 -13 0 -31 3 -40 6 -8 4 -23 20 -31 36 -13 25 -13 46 -4 146
6 64 15 135 20 157 5 22 10 72 10 111 0 40 7 109 16 155 8 47 33 124 56 174
22 50 51 113 64 140 13 28 47 76 76 107 29 32 67 65 83 73 18 10 45 14 68 11
21 -2 53 -16 71 -30z m-1886 -1822 c14 -9 22 -26 22 -43 0 -19 -18 -48 -60
-97 -33 -38 -74 -96 -92 -129 -17 -33 -41 -73 -54 -90 -12 -16 -34 -57 -49
-90 -14 -33 -48 -94 -74 -135 -27 -41 -68 -108 -92 -149 -35 -59 -60 -87 -119
-132 -41 -32 -102 -72 -136 -88 -33 -17 -89 -38 -124 -47 -43 -11 -82 -14
-117 -10 -29 3 -83 18 -120 32 -37 14 -97 35 -132 46 -47 15 -73 31 -101 62
-21 22 -65 72 -99 110 -33 38 -67 84 -76 102 -8 18 -15 50 -15 72 0 28 7 49
24 69 15 18 46 36 83 47 32 10 83 31 113 47 30 15 74 35 98 43 24 9 62 29 85
45 24 17 81 41 132 55 50 14 126 32 170 42 44 9 105 29 135 44 30 15 80 35
110 43 30 9 82 22 115 30 33 8 94 29 135 46 41 18 102 45 134 62 33 16 64 29
70 29 7 0 22 -7 34 -16z m3508 -229 c14 -21 16 -43 12 -118 -3 -51 -13 -110
-22 -132 -10 -26 -45 -67 -96 -113 -44 -40 -99 -81 -122 -92 -24 -10 -78 -24
-120 -30 -42 -7 -115 -11 -163 -8 -65 3 -92 9 -113 25 -15 11 -28 30 -30 43
-2 12 -1 32 2 45 3 12 26 38 51 57 29 23 69 42 111 52 40 10 105 39 163 73 63
37 125 86 181 140 54 52 93 83 107 83 13 0 29 -11 39 -25z m4339 -119 c18 -8
39 -24 45 -36 6 -11 8 -30 5 -41 -4 -10 -32 -36 -63 -57 -32 -21 -71 -48 -87
-60 -17 -11 -67 -30 -112 -42 -45 -11 -98 -20 -119 -20 -21 0 -46 7 -56 17
-10 9 -18 28 -18 42 0 15 7 36 15 48 8 12 54 45 102 74 49 29 108 61 133 70
25 10 62 18 83 19 21 0 53 -6 72 -14z m1583 -222 c16 -11 22 -25 22 -52 0 -20
-9 -51 -19 -68 -10 -17 -33 -37 -50 -44 -26 -10 -40 -10 -72 -1 -30 9 -44 21
-56 47 -15 31 -15 37 -1 67 9 19 31 41 50 50 18 9 49 17 68 17 20 0 46 -7 58
-16z"/>
<path d="M19920 6042 c-27 -15 -44 -37 -73 -97 -28 -56 -62 -102 -125 -169
-48 -50 -102 -111 -121 -135 -19 -24 -46 -69 -62 -101 -15 -31 -46 -74 -69
-96 -23 -21 -63 -68 -89 -104 -27 -36 -86 -99 -133 -140 -46 -41 -113 -113
-148 -160 -36 -46 -111 -145 -168 -220 -57 -74 -131 -162 -165 -195 -34 -34
-77 -79 -94 -102 -18 -23 -75 -70 -126 -106 -52 -36 -109 -72 -126 -82 -23
-12 -61 -17 -136 -17 -101 -2 -106 -1 -180 36 -55 27 -99 60 -155 115 -57 56
-91 81 -128 94 -31 11 -53 25 -57 37 -3 10 -1 37 4 58 6 21 24 57 39 78 16 22
61 74 100 116 54 59 85 104 128 190 31 61 76 136 99 165 24 29 50 74 59 100 9
27 17 64 17 83 1 19 -1 73 -5 120 -5 47 -12 102 -17 122 -7 29 -23 48 -62 77
-29 22 -92 58 -142 81 -80 37 -102 43 -200 50 -60 5 -150 16 -200 24 -49 8
-144 20 -210 26 -66 7 -123 14 -127 16 -4 3 -49 -3 -100 -11 -77 -14 -106 -15
-171 -5 -43 6 -90 9 -105 6 -15 -3 -91 -10 -169 -16 -78 -6 -173 -17 -210 -26
-37 -9 -109 -20 -159 -24 -68 -6 -116 -17 -185 -44 -52 -21 -116 -47 -143 -59
-27 -12 -62 -34 -77 -49 -15 -16 -30 -41 -34 -57 -4 -20 0 -45 13 -74 14 -31
35 -55 68 -77 27 -19 70 -53 96 -77 29 -26 57 -43 71 -43 14 0 30 7 37 15 7 8
10 25 6 39 -3 13 -21 35 -41 50 -19 15 -40 36 -46 47 -8 15 -8 28 1 49 7 16
22 36 34 44 13 8 40 19 62 25 21 5 117 17 212 26 95 8 207 21 250 27 50 7 226
11 497 11 231 0 488 -5 571 -11 87 -6 167 -17 187 -26 21 -8 42 -27 52 -46 9
-17 16 -53 17 -79 0 -27 -6 -75 -12 -107 -7 -33 -26 -86 -43 -119 -16 -33 -55
-88 -87 -123 -31 -35 -78 -98 -103 -141 -25 -42 -56 -86 -68 -96 -12 -11 -50
-63 -84 -115 -35 -52 -87 -125 -116 -162 -30 -36 -69 -93 -88 -125 -19 -32
-58 -94 -87 -138 -29 -44 -72 -116 -95 -160 -23 -44 -63 -103 -88 -131 -25
-28 -64 -82 -86 -120 -22 -38 -75 -109 -117 -159 -43 -49 -101 -117 -131 -150
-29 -33 -80 -102 -113 -154 -32 -51 -88 -127 -124 -169 -36 -41 -86 -103 -111
-136 -25 -34 -66 -79 -90 -102 -24 -22 -67 -68 -96 -101 -28 -33 -66 -86 -83
-119 -18 -32 -42 -70 -53 -83 -12 -13 -48 -41 -79 -62 -32 -22 -70 -56 -85
-76 -15 -20 -62 -75 -103 -122 -41 -47 -105 -120 -144 -161 -38 -41 -88 -104
-111 -140 -24 -36 -71 -92 -105 -125 -34 -33 -104 -120 -155 -195 -61 -88
-109 -147 -139 -169 -25 -19 -46 -38 -46 -42 0 -3 -44 -54 -97 -111 -54 -58
-130 -142 -169 -188 -40 -45 -89 -114 -110 -153 -22 -39 -61 -94 -87 -123 -27
-29 -77 -95 -112 -146 -36 -51 -96 -157 -134 -235 -64 -130 -72 -154 -91 -267
-11 -68 -18 -136 -14 -150 3 -15 18 -35 31 -46 14 -11 34 -20 44 -20 10 0 29
5 42 11 14 6 30 22 36 35 6 14 15 63 20 109 10 80 16 95 126 312 64 125 140
259 167 298 28 38 65 86 82 106 17 19 56 66 86 104 30 38 78 94 106 125 27 30
65 75 84 100 18 25 88 101 154 170 67 69 155 165 196 214 41 50 91 108 111
130 19 23 61 73 93 111 32 39 84 97 116 130 31 33 74 83 95 110 20 28 121 138
224 246 102 108 215 229 251 270 36 41 83 97 105 124 22 28 65 80 95 116 30
36 84 104 120 150 36 46 73 95 82 109 9 14 49 62 90 107 41 44 89 110 108 147
19 37 66 104 105 149 39 45 106 129 150 187 44 58 96 123 116 145 21 22 54 65
74 95 20 30 50 81 66 112 16 31 42 72 58 90 15 18 38 51 49 74 11 22 27 46 36
53 8 7 25 11 38 9 13 -2 29 -15 37 -33 8 -16 39 -70 68 -120 28 -49 81 -155
117 -235 51 -113 70 -169 86 -255 11 -60 32 -170 47 -244 22 -113 24 -146 17
-210 -4 -42 -8 -98 -8 -126 0 -27 3 -62 7 -77 4 -15 21 -44 39 -63 17 -20 51
-48 77 -63 42 -25 53 -27 141 -24 52 1 124 9 160 17 36 8 110 24 164 35 54 11
142 34 195 51 53 17 126 44 162 60 36 16 76 29 90 29 13 0 36 -8 50 -18 15 -9
45 -30 68 -46 30 -21 58 -31 95 -34 28 -2 117 3 196 12 80 9 188 17 240 18 84
2 102 -1 159 -26 54 -23 75 -27 130 -24 36 2 120 19 186 37 66 19 140 39 165
46 26 7 58 9 78 4 18 -4 58 -24 88 -43 32 -21 77 -41 107 -47 35 -6 129 -6
282 1 127 6 246 13 265 16 19 3 62 16 96 29 33 13 94 28 135 35 41 6 90 13
110 16 28 5 41 1 63 -17 21 -19 29 -37 36 -87 5 -35 16 -74 24 -88 9 -13 28
-31 43 -41 16 -11 46 -17 78 -17 40 0 72 10 151 47 54 26 144 61 198 78 73 23
112 30 144 26 28 -3 62 -18 97 -42 30 -20 71 -41 92 -46 21 -5 71 -9 111 -9
40 0 104 7 141 16 46 10 93 31 146 64 48 31 94 51 119 54 23 3 165 11 316 17
151 6 298 10 325 10 28 0 90 -12 140 -26 54 -15 132 -27 196 -31 61 -4 170 -1
255 6 82 7 185 21 228 31 71 16 96 17 244 8 115 -7 229 -7 373 0 154 8 216 8
240 -1 18 -6 54 -24 79 -40 41 -26 63 -31 187 -43 77 -8 169 -19 204 -24 35
-6 116 -11 179 -12 63 0 167 -4 230 -8 63 -4 228 -4 365 0 138 5 408 9 600 10
264 2 360 5 389 16 21 7 76 13 122 13 63 0 99 6 146 24 35 13 91 37 125 54 34
18 64 36 67 41 4 5 63 40 132 76 113 60 130 73 167 125 23 32 56 67 73 79 16
12 38 21 48 21 10 0 57 -39 105 -88 47 -48 204 -202 349 -342 145 -140 330
-320 411 -400 89 -88 165 -173 192 -215 25 -38 57 -96 71 -127 18 -38 38 -64
60 -78 18 -11 48 -20 66 -20 18 0 43 7 57 16 13 8 30 32 38 52 8 20 17 66 21
102 5 52 3 72 -11 100 -10 19 -41 64 -68 100 -28 35 -75 89 -106 120 -31 30
-78 76 -105 101 -27 25 -98 101 -159 168 -60 67 -137 144 -171 170 -34 27
-110 96 -171 153 -60 56 -140 132 -179 168 -38 36 -115 116 -171 178 -56 62
-113 136 -127 165 -16 31 -29 84 -35 132 -5 44 -15 121 -21 170 -7 50 -19 104
-28 120 -8 17 -23 41 -33 55 -10 14 -34 64 -53 111 -22 54 -40 125 -50 194 -9
59 -19 112 -22 117 -3 5 -9 48 -14 95 -7 77 -11 90 -34 110 -15 13 -35 23 -44
23 -9 0 -31 -9 -48 -19 -17 -10 -38 -35 -48 -55 -9 -19 -24 -95 -33 -168 -13
-106 -14 -151 -5 -223 5 -50 19 -122 30 -160 11 -39 25 -107 32 -151 7 -45 9
-95 6 -112 -4 -16 -19 -41 -34 -55 -15 -14 -83 -50 -152 -81 -70 -30 -144 -58
-165 -61 -23 -4 -102 3 -182 14 -79 12 -155 26 -170 32 -16 6 -73 13 -128 16
-77 4 -131 0 -230 -16 -72 -12 -153 -33 -180 -45 -28 -13 -73 -40 -99 -60 -27
-20 -65 -46 -85 -56 -20 -10 -62 -41 -93 -70 -38 -34 -68 -72 -89 -115 -27
-56 -31 -72 -26 -117 3 -29 9 -74 13 -100 5 -36 3 -54 -10 -73 -9 -14 -29 -30
-43 -36 -18 -7 -43 -5 -87 6 -35 8 -108 15 -171 15 -60 0 -141 1 -180 1 -38 0
-115 4 -170 10 -55 6 -129 18 -164 26 -36 8 -79 20 -96 27 -18 8 -51 36 -74
64 -24 28 -56 56 -72 62 -16 7 -53 11 -83 8 -38 -3 -67 -13 -101 -36 -44 -29
-55 -32 -128 -32 -44 0 -98 5 -121 12 -29 9 -61 33 -111 83 -38 39 -95 88
-125 108 -30 20 -71 50 -90 66 -19 16 -87 55 -150 87 l-115 59 -165 -3 c-133
-2 -176 -7 -223 -23 -33 -11 -82 -25 -110 -31 -29 -6 -68 -19 -88 -29 -20 -10
-56 -40 -79 -66 -23 -26 -48 -59 -55 -73 -7 -14 -16 -41 -20 -60 -4 -19 -14
-48 -22 -63 -8 -17 -32 -37 -56 -48 -34 -15 -66 -19 -175 -19 -73 0 -165 -5
-204 -11 -53 -8 -81 -8 -110 0 -21 7 -45 23 -54 37 -12 17 -19 61 -24 142 -6
91 -15 139 -41 216 -30 92 -35 99 -68 113 -24 10 -53 13 -88 10 -28 -3 -61
-11 -73 -17 -11 -6 -42 -43 -67 -83 -25 -39 -73 -100 -106 -134 -33 -34 -88
-81 -123 -104 -58 -38 -72 -42 -148 -48 -47 -3 -88 -10 -93 -14 -4 -5 -21 -34
-38 -65 -26 -49 -39 -62 -105 -99 -52 -30 -87 -43 -113 -43 -21 0 -47 4 -57
10 -10 5 -24 26 -30 46 -8 22 -9 56 -5 91 4 30 13 74 21 97 8 22 31 67 50 99
26 42 40 80 50 137 7 44 23 99 35 121 13 27 24 74 29 133 5 50 18 129 29 176
10 47 22 117 26 155 3 39 18 106 31 149 18 58 28 124 37 240 6 89 11 197 11
241 -1 52 -9 102 -23 145 -12 36 -26 112 -31 170 -8 84 -17 118 -41 168 -17
35 -44 79 -61 98 -17 20 -43 36 -62 39 -20 4 -47 1 -69 -8 -20 -9 -56 -34 -82
-58 -38 -35 -49 -54 -66 -113 -11 -39 -36 -107 -54 -151 -18 -44 -45 -118 -59
-165 -14 -47 -30 -110 -36 -140 -6 -30 -17 -79 -25 -108 -13 -42 -15 -94 -11
-265 2 -116 9 -264 15 -327 6 -63 16 -167 22 -230 6 -63 15 -149 19 -190 5
-41 9 -111 9 -155 0 -58 -5 -91 -19 -122 -13 -29 -34 -51 -67 -72 -26 -17 -68
-38 -93 -47 -25 -9 -75 -29 -111 -45 -50 -22 -95 -32 -180 -41 -63 -7 -161
-12 -219 -12 -80 -1 -113 4 -136 16 -17 10 -46 40 -64 68 -18 28 -41 55 -51
60 -10 6 -33 10 -53 10 -19 0 -68 -13 -109 -30 -42 -16 -82 -30 -89 -30 -8 0
-67 -18 -131 -41 -76 -26 -125 -38 -140 -34 -12 4 -38 22 -57 40 -19 19 -48
39 -63 44 -16 6 -50 11 -77 11 -27 0 -59 -4 -73 -9 -13 -5 -79 -21 -146 -35
-68 -14 -152 -26 -188 -26 -36 0 -76 6 -91 14 -15 8 -33 25 -39 38 -7 12 -21
44 -32 70 -12 31 -32 55 -53 68 -18 11 -44 20 -57 20 -13 0 -69 -21 -125 -46
-56 -25 -123 -63 -151 -84 -36 -27 -90 -52 -190 -85 -77 -26 -162 -56 -189
-67 -27 -10 -90 -23 -140 -29 -50 -5 -113 -12 -141 -15 -35 -4 -56 -1 -69 9
-18 13 -20 31 -22 201 -2 102 -8 212 -14 244 -5 31 -23 101 -39 154 -16 53
-38 109 -50 124 -11 15 -21 34 -21 44 0 9 8 24 18 33 9 9 39 21 65 27 35 7 66
7 112 -1 49 -8 73 -8 102 1 21 7 74 31 117 52 51 26 98 59 130 92 28 29 77 71
108 94 31 23 71 60 90 83 18 23 76 88 129 143 52 56 116 133 142 171 26 39 70
100 99 136 29 37 134 147 234 245 142 141 195 201 247 281 37 56 96 133 132
172 35 39 76 94 91 123 15 29 45 78 67 109 26 38 41 71 44 101 4 37 1 49 -18
71 -13 15 -37 29 -54 32 -19 4 -42 -1 -65 -13z m2044 -855 c9 -12 20 -55 26
-95 7 -48 7 -103 0 -168 -6 -53 -17 -125 -25 -161 -8 -35 -15 -90 -15 -122 0
-31 -7 -82 -15 -113 -8 -31 -19 -96 -25 -144 -6 -49 -15 -106 -21 -127 -5 -20
-21 -44 -34 -53 -14 -9 -32 -13 -45 -9 -11 3 -27 20 -36 38 -12 22 -16 55 -15
115 0 46 3 87 5 91 3 4 5 79 6 167 1 114 7 181 20 239 10 44 23 115 29 159 6
43 20 99 31 124 12 26 28 54 37 64 9 10 27 18 39 18 13 0 30 -10 38 -23z
m6199 -1289 c12 -6 27 -18 34 -27 7 -9 13 -32 13 -52 0 -22 -13 -61 -32 -99
-22 -42 -49 -76 -81 -102 -35 -27 -58 -38 -83 -38 -19 0 -48 6 -63 14 -15 8
-51 43 -79 78 -33 39 -52 72 -52 89 0 14 6 33 13 43 8 11 49 26 107 40 52 12
113 32 135 44 22 12 46 22 53 22 7 0 23 -5 35 -12z m-873 -165 c8 -2 66 -9
128 -14 69 -5 129 -16 152 -26 21 -10 70 -53 110 -95 62 -67 71 -82 68 -109
-2 -21 -13 -39 -30 -52 -24 -18 -41 -20 -140 -19 -62 1 -139 -2 -171 -8 -33
-5 -136 -14 -230 -21 -134 -9 -198 -9 -295 1 -106 11 -128 16 -153 37 -23 20
-29 33 -29 66 0 24 9 56 20 74 10 18 36 41 57 51 21 11 51 22 68 26 16 4 52
18 80 31 27 13 81 29 119 35 38 6 73 13 78 16 4 3 27 9 50 13 24 4 57 6 73 4
17 -3 37 -7 45 -10z m-2826 -122 c17 -16 26 -35 26 -56 0 -17 -6 -38 -12 -46
-7 -8 -22 -22 -32 -29 -14 -11 -67 -17 -200 -23 -100 -5 -209 -9 -243 -10 -53
-2 -65 1 -87 22 -14 14 -26 33 -26 44 0 11 17 36 38 57 29 29 48 39 82 44 25
3 74 9 110 14 36 6 122 9 192 8 119 -1 128 -2 152 -25z m-1704 -123 c13 -25
13 -31 0 -55 -8 -14 -23 -31 -33 -37 -13 -8 -24 -7 -45 4 -19 11 -28 25 -30
47 -2 22 3 38 18 53 13 13 31 20 48 18 16 -2 32 -13 42 -30z"/>
<path d="M14670 5723 c-14 -2 -55 -13 -92 -23 -43 -12 -90 -35 -130 -63 -35
-25 -131 -115 -215 -201 -123 -126 -159 -169 -193 -233 -22 -43 -52 -116 -67
-163 -14 -47 -45 -130 -68 -185 -24 -55 -60 -136 -80 -179 -27 -59 -40 -106
-50 -180 -8 -56 -21 -155 -29 -221 -8 -66 -15 -178 -15 -250 -1 -71 -6 -152
-13 -180 -12 -46 -17 -52 -69 -80 -31 -16 -79 -51 -108 -77 -29 -26 -76 -56
-105 -67 -30 -11 -88 -41 -129 -68 -42 -26 -97 -61 -123 -78 -26 -16 -92 -58
-146 -92 -55 -34 -126 -85 -158 -113 -37 -32 -80 -58 -116 -70 -32 -11 -73
-35 -91 -52 -18 -18 -33 -42 -33 -55 0 -13 9 -27 21 -34 12 -6 42 -9 66 -6 27
3 64 18 98 41 30 19 107 54 171 76 68 23 147 59 187 85 38 24 90 52 116 61 25
9 59 21 75 27 15 6 46 25 68 44 22 18 60 42 85 53 25 11 60 20 78 20 18 0 37
-6 43 -13 7 -8 10 -56 9 -122 -2 -98 1 -120 27 -195 25 -73 36 -92 83 -137 38
-36 71 -58 106 -69 36 -11 104 -18 217 -22 98 -3 210 0 275 7 61 7 131 17 157
23 31 6 61 22 87 46 22 21 56 70 76 109 36 72 37 75 36 188 0 63 -5 131 -10
152 -6 21 -22 54 -35 72 -14 19 -48 51 -76 72 -28 21 -70 44 -93 51 -24 7 -89
12 -147 12 -77 -1 -122 -7 -169 -22 -35 -11 -95 -42 -133 -68 -60 -42 -72 -46
-96 -38 -14 5 -32 20 -38 33 -8 15 -9 34 -3 55 4 17 29 50 54 73 24 22 80 60
122 84 43 23 116 67 161 98 46 31 105 69 130 85 26 15 77 48 113 72 37 25 80
64 99 91 19 27 68 84 111 128 42 44 84 94 92 110 8 17 36 59 62 93 26 35 67
109 91 166 24 57 59 164 78 238 19 74 40 182 47 240 11 91 10 118 -4 194 -9
49 -19 111 -22 139 -4 27 -26 88 -52 138 -24 49 -54 99 -67 112 -12 12 -47 31
-77 43 -30 11 -79 22 -109 25 -30 3 -66 3 -80 0z m106 -268 c12 -8 43 -49 70
-91 39 -64 49 -89 52 -134 2 -30 -3 -97 -12 -148 -9 -51 -29 -132 -45 -180
-15 -48 -39 -127 -51 -176 -19 -69 -34 -102 -67 -145 -23 -31 -65 -88 -92
-127 -28 -40 -71 -89 -97 -110 -25 -22 -65 -55 -87 -75 -23 -20 -62 -51 -87
-68 -25 -18 -64 -57 -87 -86 -23 -30 -64 -66 -90 -81 -26 -15 -69 -40 -94 -56
-28 -17 -60 -28 -82 -28 -27 0 -41 7 -56 26 -17 22 -21 41 -21 103 0 42 7 130
15 196 8 65 17 126 20 135 3 8 9 54 14 102 7 68 15 97 38 135 16 26 68 131
116 231 54 113 105 207 135 243 26 33 63 86 83 117 30 49 53 69 160 139 68 46
142 87 164 92 22 5 49 6 60 4 11 -3 29 -11 41 -18z m-351 -2090 c17 -9 38 -27
45 -40 7 -14 10 -35 6 -52 -4 -15 -17 -38 -28 -50 -13 -13 -43 -27 -77 -33
-31 -7 -87 -18 -125 -26 -38 -8 -88 -14 -113 -14 -24 0 -57 7 -73 15 -16 9
-32 26 -36 39 -3 13 -1 33 5 45 6 11 30 33 54 49 23 16 57 37 76 47 18 9 63
20 100 25 36 4 81 8 99 9 19 0 49 -6 67 -14z"/>
<path d="M25379 5171 c-16 -16 -29 -38 -30 -48 0 -10 -2 -42 -2 -70 -2 -48 -6
-57 -45 -94 -23 -23 -45 -52 -48 -65 -4 -14 0 -34 9 -47 8 -13 33 -29 55 -35
21 -7 59 -12 83 -12 24 0 55 6 68 13 13 6 33 24 44 39 16 22 20 42 19 95 0 37
3 87 9 111 7 31 6 51 -5 75 -8 21 -27 40 -49 50 -19 9 -45 17 -57 17 -12 0
-35 -13 -51 -29z"/>
<path d="M20063 5045 c-16 -7 -39 -28 -51 -47 -11 -18 -34 -74 -51 -124 -19
-55 -28 -99 -24 -114 3 -14 13 -33 21 -42 8 -10 29 -18 47 -18 23 0 40 10 67
38 19 20 55 64 79 96 39 53 44 65 44 112 0 40 -5 58 -20 74 -12 11 -34 24 -51
29 -21 6 -41 4 -61 -4z"/>
<path d="M15022 3113 c-18 -9 -40 -30 -49 -46 -10 -20 -14 -45 -10 -76 4 -33
12 -52 31 -68 15 -13 38 -26 51 -29 14 -3 37 -3 51 0 14 4 50 30 80 58 47 44
54 56 54 89 0 29 -6 43 -31 63 -25 21 -41 26 -87 26 -32 0 -72 -8 -90 -17z"/>
</g>
</svg>
