<?xml version="1.0" encoding="UTF-8" standalone="no"?>
<!-- Created with Inkscape (http://www.inkscape.org/) -->
<svg
   xmlns:dc="http://purl.org/dc/elements/1.1/"
   xmlns:cc="http://creativecommons.org/ns#"
   xmlns:rdf="http://www.w3.org/1999/02/22-rdf-syntax-ns#"
   xmlns:svg="http://www.w3.org/2000/svg"
   xmlns="http://www.w3.org/2000/svg"
   xmlns:sodipodi="http://sodipodi.sourceforge.net/DTD/sodipodi-0.dtd"
   xmlns:inkscape="http://www.inkscape.org/namespaces/inkscape"
   id="svg2457"
   sodipodi:version="0.32"
   inkscape:version="0.46"
   width="213"
   height="54"
   version="1.0"
   sodipodi:docname="Todd_Platts-signature.svg"
   inkscape:output_extension="org.inkscape.output.svg.inkscape">
  <metadata
     id="metadata2462">
    <rdf:RDF>
      <cc:Work
         rdf:about="">
        <dc:format>image/svg+xml</dc:format>
        <dc:type
           rdf:resource="http://purl.org/dc/dcmitype/StillImage" />
      </cc:Work>
    </rdf:RDF>
  </metadata>
  <defs
     id="defs2460">
    <inkscape:perspective
       sodipodi:type="inkscape:persp3d"
       inkscape:vp_x="0 : 526.18109 : 1"
       inkscape:vp_y="0 : 1000 : 0"
       inkscape:vp_z="744.09448 : 526.18109 : 1"
       inkscape:persp3d-origin="372.04724 : 350.78739 : 1"
       id="perspective2464" />
  </defs>
  <sodipodi:namedview
     inkscape:window-height="998"
     inkscape:window-width="1280"
     inkscape:pageshadow="2"
     inkscape:pageopacity="0.0"
     guidetolerance="10.0"
     gridtolerance="10.0"
     objecttolerance="10.0"
     borderopacity="1.0"
     bordercolor="#666666"
     pagecolor="#ffffff"
     id="base"
     showgrid="false"
     inkscape:zoom="1"
     inkscape:cx="78.798254"
     inkscape:cy="48.926471"
     inkscape:window-x="-4"
     inkscape:window-y="-4"
     inkscape:current-layer="svg2457" />
  <path
     style="fill:#000000"
     d="M 20.683784,51.298453 C 20.683784,50.505912 21.098391,49.601229 21.605133,49.288045 C 23.071284,48.381914 31.824786,29.687032 31.488197,28.180752 C 31.274948,27.226434 29.237194,28.066427 24.683784,30.985632 C 17.235438,35.760791 2.7384098,43.739436 1.5103937,43.739436 C 1.0557577,43.739436 0.68378371,43.135954 0.68378371,42.398365 C 0.68378371,41.660776 3.0462838,39.789662 5.9337837,38.240334 C 8.8212837,36.691006 16.583784,31.984507 23.183784,27.781448 C 33.613215,21.139703 44.413776,15.331654 51.183784,12.724327 C 52.283784,12.300685 55.596105,11.01001 58.544498,9.8561606 C 61.492891,8.7023106 64.305391,8.0055755 64.794498,8.3078606 C 66.659494,9.4604916 65.556808,11.546702 62.433784,12.77418 C 60.646284,13.476741 56.807948,15.106335 53.904149,16.3955 C 51.000349,17.684665 48.335911,18.739436 47.983175,18.739436 C 47.630439,18.739436 44.492825,20.127381 41.010699,21.823757 C 36.146254,24.193554 34.537135,25.525619 34.064763,27.573757 C 33.091489,31.793734 22.783669,52.739436 21.680203,52.739436 C 21.132173,52.739436 20.683784,52.090994 20.683784,51.298453 z M 33.349663,50.612261 C 31.34431,49.446349 31.719171,45.5628 34.109591,42.739436 C 37.065654,39.24798 36.95354,38.548579 33.706922,40.227471 C 30.708571,41.777979 30.530865,41.774152 30.846857,40.16588 C 31.160333,38.570419 45.713291,28.739436 47.761603,28.739436 C 48.268802,28.739436 48.683784,29.24695 48.683784,29.867244 C 48.683784,30.945237 53.316414,30.607365 59.433784,29.083211 C 63.242709,28.134211 62.056413,30.91769 56.677865,35.549592 C 51.340972,40.145623 48.195005,45.023314 49.080045,47.329693 C 49.84952,49.334912 54.63427,49.067033 58.333053,46.811654 C 60.793622,45.311292 61.641495,43.945323 62.210181,40.565392 C 62.610504,38.186116 64.225701,31.964436 65.79951,26.739436 C 67.419385,21.361494 68.665927,14.874677 68.672382,11.789436 C 68.681262,7.5449285 68.949707,6.6053585 69.886015,7.5416665 C 70.82126,8.4769116 70.823359,11.114301 69.895468,19.417786 C 69.23944,25.288426 68.867724,30.256709 69.069431,30.458416 C 69.271138,30.660124 70.954384,30.163721 72.809978,29.355298 C 74.665571,28.546876 76.901586,27.668458 77.7789,27.403257 C 78.894027,27.066169 79.889351,24.260769 81.086594,18.080255 C 83.18166,7.2649245 83.612309,5.7394355 84.570434,5.7394355 C 85.831116,5.7394355 82.934555,27.785073 80.69445,35.239436 C 77.571415,45.631909 77.418894,45.118137 83.933784,46.151292 C 87.928981,46.784866 89.683784,47.514224 89.683784,48.541195 C 89.683784,49.738205 88.618392,49.909283 84.080595,49.440942 C 80.998841,49.122876 77.688363,48.148567 76.723977,47.27581 C 75.25609,45.947391 74.786683,45.910524 73.84148,47.049424 C 73.220492,47.797669 70.868025,49.018571 68.613777,49.76254 C 65.32359,50.8484 64.122456,50.869975 62.524314,49.871918 C 60.903214,48.859524 59.612134,48.934648 55.572425,50.276424 C 50.39865,51.994876 47.683784,51.261393 47.683784,48.145126 C 47.683784,47.173527 46.38214,47.487797 43.034845,49.267571 C 37.94726,51.972666 36.12476,52.225702 33.349663,50.612261 z M 42.524396,47.138522 C 43.781489,46.25802 45.202118,44.506315 45.681348,43.245844 C 46.745375,40.44724 45.903477,36.739436 44.203995,36.739436 C 42.407588,36.739436 33.464376,46.57541 34.191321,47.751631 C 35.134037,49.276978 39.980401,48.920405 42.524396,47.138522 z M 70.79457,45.884132 C 74.926077,43.264007 75.381188,42.563899 76.320055,37.384132 C 77.515365,30.789559 76.643679,30.219413 71.711347,34.369697 C 68.290648,37.248025 63.257352,46.240437 64.206956,47.776929 C 65.100662,49.222977 65.885212,48.997555 70.79457,45.884132 z M 52.062345,36.131714 L 54.940907,32.524052 L 51.562345,33.237097 C 47.23735,34.149887 46.618679,34.774469 47.333169,37.506683 C 48.1197,40.514383 48.700032,40.345657 52.062345,36.131714 z M 93.683784,48.562653 C 93.683784,47.182089 94.584949,43.433255 95.686374,40.231909 C 96.787798,37.030564 97.4884,34.210718 97.243266,33.965585 C 96.998133,33.720452 97.671968,31.888451 98.740677,29.894471 C 101.64339,24.478632 101.11834,22.799335 97.76603,26.77721 C 95.592383,29.356474 94.554085,29.953469 93.69471,29.118116 C 92.828916,28.276524 93.154757,27.514129 95.00088,26.061969 C 97.722348,23.921261 103.99492,14.54735 105.13509,10.917115 C 105.55487,9.5805536 106.41765,8.8070656 107.16768,9.0948796 C 107.88444,9.3699276 109.53129,8.4611516 110.82734,7.0753785 C 115.88561,1.6669235 119.68379,2.0213075 119.68379,7.9017185 C 119.68379,12.676672 116.34901,17.811381 108.29044,25.444558 C 104.10678,29.407375 100.68378,33.09792 100.68378,33.645768 C 100.68378,34.193616 101.35878,37.233356 102.18378,40.400745 C 103.90157,46.995752 104.03584,48.739436 102.82586,48.739436 C 102.35401,48.739436 101.56651,46.912328 101.07586,44.679196 C 100.58522,42.446065 99.772624,40.533565 99.270103,40.429196 C 98.767579,40.324828 97.642579,42.345114 96.770103,44.91872 C 94.85357,50.572062 93.683784,51.953196 93.683784,48.562653 z M 112.93563,18.239436 C 116.14421,14.803744 119.0325,7.6881425 117.74222,6.3978665 C 114.71181,3.3674535 106.69772,13.681795 105.04507,22.739436 L 104.40646,26.239436 L 107.73715,23.239436 C 109.56902,21.589436 111.90834,19.339436 112.93563,18.239436 z M 105.68379,49.739436 C 105.68379,49.189436 106.13379,48.739436 106.68379,48.739436 C 107.23379,48.739436 107.68379,49.189436 107.68379,49.739436 C 107.68379,50.289436 107.23379,50.739436 106.68379,50.739436 C 106.13379,50.739436 105.68379,50.289436 105.68379,49.739436 z M 117.37881,49.054991 C 117.09981,48.603556 117.53387,46.435378 118.34339,44.236818 C 121.2941,36.223028 121.30253,35.944844 118.51749,38.489436 C 116.09024,40.70714 113.68376,41.453924 113.68382,39.989436 C 113.68384,39.576936 115.25566,37.985287 117.17676,36.452439 C 121.05245,33.360015 125.75364,26.344728 130.05206,17.239436 C 135.62623,5.4317215 140.27386,0.32441953 143.21983,2.7693485 C 144.31539,3.6785895 144.99074,3.5753285 146.26185,2.3042255 C 147.59504,0.97103153 148.17533,0.90249353 149.4155,1.9317445 C 150.6399,2.9479015 150.8381,4.8984675 150.43511,11.966263 L 149.93489,20.739436 L 155.19062,20.739436 L 160.44635,20.739436 L 161.49092,16.489436 C 162.06544,14.151936 162.84577,10.096403 163.22503,7.4771385 C 163.60427,4.8578755 164.31263,2.4688185 164.79917,2.1681215 C 165.76158,1.5733195 165.91082,2.7147535 166.24668,13.239436 C 166.4601,19.927444 166.5838,20.253302 169.02193,20.550551 C 171.77165,20.885789 171.73751,20.961443 174.68883,7.9894355 C 175.34576,5.1019355 176.28838,2.7394355 176.78352,2.7394355 C 178.00933,2.7394355 177.8691,5.0775455 176.18378,12.739436 C 175.39742,16.314436 174.73823,19.617332 174.71892,20.079205 C 174.69959,20.541078 178.56561,20.59562 183.31004,20.20041 C 190.42049,19.608113 191.85666,19.72413 191.48303,20.860641 C 191.23373,21.618978 189.48942,22.351675 187.60678,22.488857 C 174.4789,23.445437 173.73371,23.684183 172.16623,27.435711 C 169.82397,33.041495 170.36867,33.284617 175.23028,28.803339 C 180.35896,24.075891 183.38735,23.75889 185.39401,27.739436 C 187.24155,31.404361 186.95085,37.789188 184.77391,41.359269 L 182.87151,44.479102 L 186.84932,45.670886 C 190.91919,46.890251 203.68378,46.836018 203.68378,45.599361 C 203.68378,44.99897 208.35125,45.047244 211.18378,45.676931 C 213.02154,46.085474 197.23554,49.706292 193.54387,49.722981 C 188.79524,49.744448 170.52093,45.976579 169.26048,44.716141 C 167.44285,42.898502 164.91292,43.690338 164.26287,46.280334 C 163.91213,47.677828 163.17004,48.539958 162.6138,48.196177 C 162.05754,47.852397 161.87606,46.708993 162.2105,45.655279 C 162.96009,43.293491 162.98338,43.293035 157.91993,45.739436 C 153.25083,47.995299 151.68378,48.227644 151.68378,46.66407 C 151.68378,46.062776 150.3434,45.7293 148.64332,45.907628 C 146.8538,46.095337 145.25665,45.666354 144.76136,44.86496 C 144.08814,43.775673 143.48201,43.941217 141.73049,45.692721 C 140.12277,47.300452 138.55646,47.810979 135.8346,47.614454 C 133.79599,47.467262 131.61653,47.662972 130.99133,48.049365 C 130.36613,48.435758 129.67187,48.203686 129.44852,47.533651 C 129.06939,46.396237 125.0899,47.111423 119.18085,49.378936 C 118.46873,49.652202 117.65782,49.506427 117.37881,49.054991 z M 125.94814,44.542089 C 129.54407,43.464721 130.24216,42.688147 132.91483,36.792089 C 136.24191,29.452355 139.06235,20.784669 138.35407,20.076388 C 137.3489,19.071222 125.44567,34.220846 123.13449,39.446818 C 121.78661,42.494631 120.68379,45.157303 120.68379,45.363866 C 120.68379,45.971256 121.7156,45.810188 125.94814,44.542089 z M 142.06781,42.270076 C 143.32649,40.911929 145.06881,37.986929 145.93961,35.770076 C 147.4549,31.912531 147.44045,31.739436 145.60333,31.739436 C 144.54758,31.739436 143.68378,32.216373 143.68378,32.799297 C 143.68378,33.38222 141.3685,36.30722 138.53873,39.299297 L 133.39367,44.739436 L 136.58648,44.739436 C 138.69705,44.739436 140.555,43.90243 142.06781,42.270076 z M 149.93168,42.835286 C 151.55763,42.217099 152.72043,40.55664 153.6082,37.585286 C 154.32233,35.195069 155.77349,31.536503 156.83301,29.45514 C 159.13303,24.93691 158.75305,23.997354 154.7227,24.237121 C 153.0513,24.336553 151.68378,24.024418 151.68378,23.543488 C 151.68378,23.062557 150.78378,23.150734 149.68378,23.739436 C 146.54044,25.421699 147.17708,27.467418 150.68378,26.952744 C 154.23793,26.431105 154.83933,28.684674 151.72849,30.867464 C 149.63581,32.335842 145.39287,42.115193 146.40803,43.130357 C 147.18028,43.902605 147.10863,43.908605 149.93168,42.835286 z M 182.94646,40.526091 C 183.91594,39.404337 184.96507,37.466907 185.27784,36.220691 C 186.02977,33.224757 183.13432,27.739436 180.80096,27.739436 C 178.68919,27.739436 168.68378,37.353185 168.68378,39.382293 C 168.68378,40.128722 168.79628,40.746211 168.93378,40.754492 C 169.07129,40.762773 170.98379,41.414307 173.18378,42.202345 C 177.80291,43.856914 180.46245,43.400271 182.94646,40.526091 z M 161.46127,41.182732 C 162.68365,40.326545 163.68378,38.976545 163.68378,38.182732 C 163.68378,37.388919 164.07379,36.739436 164.55045,36.739436 C 165.50778,36.739436 169.68378,27.275596 169.68378,25.106083 C 169.68378,24.354427 168.81953,23.739436 167.76324,23.739436 C 166.40703,23.739436 165.63657,24.694426 165.14121,26.989436 C 164.23468,31.189359 161.01753,37.62883 158.39661,40.489436 C 155.91642,43.196469 157.93447,43.653 161.46127,41.182732 z M 157.90821,37.989436 C 161.50797,33.88387 164.94659,23.739436 162.73848,23.739436 C 162.13118,23.739436 161.23519,24.751936 160.7474,25.989436 C 160.25961,27.226936 158.70142,30.826936 157.28476,33.989436 C 154.72356,39.706924 154.97694,41.332576 157.90821,37.989436 z M 140.70501,31.067832 C 142.26347,30.14722 144.28828,27.563948 145.21195,25.317832 C 146.13439,23.074714 147.28854,20.46502 147.77676,19.518512 C 148.26497,18.572003 148.95839,14.634503 149.3177,10.768512 C 149.8591,4.9431925 149.71824,3.7394355 148.49517,3.7394355 C 147.68346,3.7394355 146.5183,5.2019355 145.90593,6.9894355 C 145.29354,8.7769356 143.05338,15.301936 140.92779,21.489436 C 138.80221,27.676936 137.24581,32.739436 137.46914,32.739436 C 137.69247,32.739436 139.14862,31.987214 140.70501,31.067832 z M 134.87717,20.146528 C 140.23338,14.501347 141.862,12.100742 143.12809,7.9845095 C 144.07862,4.8942805 141.26589,3.9041915 138.53623,6.3681545 C 135.53017,9.0816036 127.38115,25.739436 129.05978,25.739436 C 129.34071,25.739436 131.95853,23.222627 134.87717,20.146528 z M 164.61349,17.489436 C 164.55461,14.765909 164.404,14.563419 163.68378,16.239436 C 162.49662,19.002138 162.49662,20.739436 163.68378,20.739436 C 164.23379,20.739436 164.65216,19.276936 164.61349,17.489436 z"
     id="path2512" />
</svg>
