<?xml version="1.0" encoding="UTF-8"?>
<svg version="1.1" xmlns="http://www.w3.org/2000/svg" width="186" height="46" >
<path fill="#231F20" d="M3.93,27.401c7.124-1.304,14.127-3.506,21.004-5.729c1.697-0.548,20.749-7.792,21.666-4.993 c0.27,0.823,1.574,0.471,1.302-0.359c-1.169-3.569-11.526,0.2-13.143,0.67C24.354,20.012,14.276,24.14,3.57,26.099 C2.715,26.256,3.079,27.557,3.93,27.401L3.93,27.401 M19.167,25.409c-3.163,5.136-6.365,10.257-9.75,15.25c-0.49,0.723,0.681,1.397,1.166,0.682 c3.385-4.993,6.587-10.114,9.75-15.25C20.791,25.347,19.623,24.67,19.167,25.409L19.167,25.409 M30.651,34.93c0.261-0.702,0.34-1.773-0.572-2.024c-2.571-0.707-6.695,4.954-7.881,6.529 c-1.198,1.59,0.126,2.426,1.624,1.823c2.239-0.899,3.635-3.543,5.695-4.393c2.187-0.902,4.201-0.808,2.649,2.294 c-0.36,0.721,0.466,1.281,1.061,0.818c1.188-0.925,2.394-1.825,3.613-2.707c2.268-1.64,1.167-2.226,0.27,0.022 c-0.864,2.165,1.729,1.876,2.859,1.396c0.747-0.318,1.556-0.927,2.178-1.416c0.874-0.693,1.753-1.378,2.638-2.058 c-0.355-0.483-0.583-0.46-0.681,0.069c-0.363,0.727-0.773,1.473-0.589,2.299c0.534,2.394,7.141-2.667,8.644-1.75 c0.746,0.454,1.423-0.713,0.682-1.166c-1.527-0.931-4.069,0.347-5.415,0.898c-1.154,0.473-3.148,2.431-2.156,0.401 c0.256-0.524,0.529-1.001,0.592-1.585c0.12-1.108-1.337-0.587-1.759-0.332c-1.69,1.023-3.089,2.475-4.815,3.473 c-1.895,1.096,0.277-1.625,0.429-2.149c0.097-0.335-0.114-0.759-0.471-0.831c-2.031-0.409-5.461,3.302-6.974,4.48 c0.354,0.273,0.707,0.545,1.061,0.818c1.48-2.961,1.314-5.558-2.577-4.788c-2.423,0.479-3.711,2.362-5.651,3.847 c-3.921,3,1.066-1.851,2.128-2.836c-0.431,0.399,2.611-2.822,2.116-1.493C29.045,35.388,30.35,35.738,30.651,34.93L30.651,34.93z M82.591,28.083c3.559-2.718,10.074-6.688,11.22-11.288c1.012-4.062-8.099,1.121-8.615,1.415 c-5.593,3.184-12.595,7.444-16.073,13.049c-2.872,4.628,3.768,6.15,6.968,4.574c0.781-0.385,0.097-1.549-0.682-1.166 c-2.134,1.051-6.748,0.429-5.121-2.727c0.8-1.551,2.297-2.829,3.561-3.992c3.611-3.325,7.804-6.095,12.028-8.573 c1.61-0.945,3.276-1.824,5.02-2.499c2.992-1.158,0.152,1.945-0.777,2.929c-2.471,2.618-5.353,4.929-8.211,7.111 C81.228,27.438,81.898,28.611,82.591,28.083L82.591,28.083 M92.82,28.599c-1.548,0.476-3.915,1.01-4.471,2.721c-0.099,0.305,0.069,0.591,0.31,0.763 c0.833,0.591,1.629,0.074,2.479-0.309c1.271-0.572,2.421-1.38,3.703-1.941c0.729-0.319,3.724-1.262,1.682,0.439 c0.318,0.318,0.637,0.637,0.955,0.955c1.996-1.907,2.356-0.442,4.46-0.625c3.067-0.268,6.021-2.518,8.353-4.297 c1.8-1.374,3.381-3,4.931-4.641c1.189-1.26,2.272-2.622,3.451-3.894c0.206-0.222,2.208-2.83,1.817-1.292 c-0.464,1.829-6.999,11.75-8.512,10.045c-0.331-0.372-1.022-0.184-1.128,0.298c-0.225,1.019-0.971,4.847-2.516,1.839 c-0.254,0.331-0.508,0.661-0.763,0.992c4.336,0.691,8.76,0.909,13.109,0.25c0.858-0.13,0.492-1.431-0.359-1.302 c-4.09,0.62-8.314,0.4-12.391-0.25c-0.583-0.093-1.051,0.43-0.763,0.992c2.168,4.22,4.273,1.058,4.984-2.161 c-0.376,0.099-0.752,0.198-1.128,0.298c3.621,4.081,13.381-12.038,10.226-12.906c-1.295-0.356-2.807,1.531-3.53,2.244 c-3.78,3.723-6.742,7.679-11.317,10.566c-2.167,1.368-4.11,2.346-6.225,1.107c-1.172-0.687-2.925,1.088-3.654,1.784 c-0.639,0.611,0.297,1.503,0.955,0.955c0.729-0.608,3.222-4.301,0.559-4.301c-1.595,0-3.23,1.457-4.641,2.075 c-2.666,1.167-3.995,2.061-0.216,0.899C94.009,29.646,93.655,28.343,92.82,28.599L92.82,28.599 M117.401,33.43c1.598-4.258,9.742-5.728,13.661-7.619c3.692-1.781,10.085-4.775,11.528-9.086 c0.367-1.098,0.518-5.021-1.798-3.667c-4.458,2.607-7.526,9.113-9.821,13.474c-0.761,1.446-3.016,6.766,0.75,6.075 c2.758-0.506,5.289-2.661,7.458-4.281c6.126-4.575,11.737-9.87,17.299-15.098c0.635-0.598-0.321-1.55-0.955-0.955 c-6.656,6.258-13.452,13.105-21.339,17.839c-4.218,2.532-3.411-0.306-1.851-3.271c2.212-4.205,4.833-8.651,8.244-11.993 c0.31,0.289,0.62,0.578,0.929,0.867c-0.267,0.884-0.72,1.662-1.36,2.334c-0.781,0.958-1.864,1.772-2.829,2.508 c-1.826,1.391-3.875,2.498-5.898,3.566c-4.804,2.536-13.178,3.243-15.32,8.948C115.792,33.887,117.098,34.237,117.401,33.43 L117.401,33.43 M159.522,4.022c-4.204,3.785-7.739,8.367-10.89,13.039c-1.071,1.588-9.548,18.978-11.292,18.106 c-0.776-0.388-1.46,0.776-0.682,1.166c2.587,1.293,5.891-5.565,6.591-6.776c5.099-8.813,9.518-17.64,17.227-24.58 C161.125,4.394,160.168,3.442,159.522,4.022L159.522,4.022 M127.25,19.425c17.898-2.226,36.47-4.334,54.5-3c0.869,0.064,0.862-1.286,0-1.35 c-18.03-1.334-36.602,0.774-54.5,3C126.398,18.181,126.388,19.532,127.25,19.425L127.25,19.425z"/>
</svg>