<?xml version="1.0" encoding="UTF-8"?>
<svg version="1.0" xmlns="http://www.w3.org/2000/svg" width="180" height="78" >
<path d="M55.119,21.881c-5.557-4.625-12.641-8.267-19.824-9.288c-14.957-2.125-22.169,11.616-25.052,24.158 c-0.989,4.302-7.801,40.225,4.65,37.803c4.855-0.944,8.229-6.436,10.592-10.292c4.92-8.028,7.988-17.255,10.24-26.34 c0.216-0.895,0.422-1.791,0.618-2.69c0.246-1.099-1.441-1.566-1.688-0.465c-1.876,8.378-4.495,16.563-8.302,24.272 c-2.34,4.739-5.388,10.313-10.046,13.142c-5.214,3.167-6.396-5.254-6.692-8.521c-0.905-9.975,0.685-20.829,3.313-30.422 c3.341-12.199,11.705-21.568,25.044-18.354c5.692,1.372,11.404,4.485,15.908,8.234C54.742,23.835,55.987,22.604,55.119,21.881 L55.119,21.881z"/>
<path d="M45.745,46.059c-3.215,4.79-6.618,9.589-9.307,14.699c-0.683,1.297-0.391,3.44,1.371,1.984 c1.461-1.208,2.63-2.92,3.814-4.379c2.777-3.42,5.454-6.924,8.133-10.422c-0.533-0.069-1.066-0.139-1.599-0.209 c0.388,2.623,1.31,8.687,4.904,8.647c0.877-0.009,1.61-0.688,2.19-1.26c1.037-1.024,0.396-1.783,1.778-1.63 c2.657,0.295,5.314,0.59,7.971,0.886c1.121,0.125,1.109-1.627,0-1.75c-3-0.333-6-0.667-9-1c-0.298-0.033-0.611,0.19-0.755,0.434 c-0.573,0.965-1.805,3.445-3.142,2.081c-0.799-0.814-1.135-2.179-1.459-3.237c-0.362-1.182-0.62-2.412-0.8-3.635 c-0.125-0.851-1.207-0.721-1.599-0.209c-3.546,4.629-7.018,9.421-10.959,13.731c-0.232,0.254-0.479,0.55-0.761,0.751 c1.723-1.227,0.619,1.75,1.317,0.31c0.466-0.962,1.038-1.879,1.589-2.794c2.48-4.116,5.147-8.126,7.825-12.116 C47.886,46.001,46.37,45.127,45.745,46.059L45.745,46.059z"/>
<path d="M74.625,28.5c-0.29,5.394-0.372,10.839,0.027,16.228c0.159,2.152,1.153,10.627,4.949,6.55 c3.025-3.25,4.294-8.521,6.692-12.276c3.742-5.861,8.531-11.056,13.418-15.972c5.809-5.844,12.1-11.37,18.729-16.274 c0.897-0.663,0.025-2.183-0.883-1.511c-12.926,9.561-25.7,21.195-34.104,35.003c-0.379,0.624-5.321,10.7-5.793,10.28 c-1.614-1.436-1.296-6.066-1.396-7.976c-0.244-4.67-0.141-9.383,0.109-14.052C76.436,27.372,74.685,27.377,74.625,28.5 L74.625,28.5z"/>
<path d="M95.656,38.768c-0.627,2.552-1.625,8.896,2.778,8.161c5.455-0.911,10.697-9.55,13.667-13.337 c4.113-5.244,10.368-12.291,11.119-19.317c0.241-2.253-0.901-4.188-3.37-3.299c-3.814,1.374-6.424,6.471-7.816,9.912 c-1.418,3.503-2.257,7.1-2.749,10.841c-0.3,2.281-1.392,8.29,0.119,10.17c3.149,3.917,11.462,1.297,15.078,0.195 c1.076-0.328,0.617-2.018-0.465-1.688c-3.276,0.999-10.434,3.484-13.375,0.254c-0.901-0.989,0.243-7.475,0.393-8.932 c0.301-2.916,1.037-5.78,1.978-8.549c1.23-3.623,3.298-7.637,6.428-9.988c3.729-2.802,1.102,4.119,0.538,5.347 c-2.951,6.431-7.712,12.184-12.15,17.609c-2.493,3.047-5.693,7.518-9.53,9c-2.354,0.909-1.231-4.791-0.955-5.915 C97.613,38.137,95.925,37.672,95.656,38.768L95.656,38.768z"/>
<path d="M134.406,26.268c-1.377,5.566-2.458,15.379,4.445,17.633c2.338,0.763,5.087-0.059,7.292-0.814 c5.253-1.799,10.172-4.608,15.411-6.512c4.688-1.704,9.259-2.594,14.195-2.95c1.119-0.081,1.127-1.831,0-1.75 c-10.941,0.789-20,5.516-30.071,9.524c-10.819,4.306-11.423-7.239-9.585-14.667C136.365,25.637,134.677,25.172,134.406,26.268 L134.406,26.268z"/>
<path d="M169.656,25.518c-0.167,0.75-0.333,1.5-0.5,2.25c-0.244,1.099,1.442,1.566,1.688,0.465c0.167-0.75,0.333-1.5,0.5-2.25 C171.588,24.883,169.901,24.416,169.656,25.518L169.656,25.518z"/>
</svg>