<?xml version="1.0" encoding="UTF-8"?>
<svg version="1.1" xmlns="http://www.w3.org/2000/svg" width="454" height="113" >
<path d="M8.163,80.61c51.049-6.121,101.776-18.168,151.514-30.8c1.093-0.278,0.629-1.965-0.465-1.688 C109.631,60.715,59.051,72.758,8.163,78.86C7.057,78.993,7.043,80.744,8.163,80.61L8.163,80.61z"/>
<path d="M104.156,65.768c-0.295,1.189-1.135,2.328-1.78,3.339c-3.085,4.833-7.081,9.116-10.995,13.275 c-0.772,0.821,0.462,2.061,1.237,1.237c3.924-4.17,7.792-8.46,11-13.219c0.833-1.236,1.858-2.688,2.226-4.167 C106.116,65.137,104.428,64.673,104.156,65.768L104.156,65.768z"/>
<path d="M118.768,67.156c-2.589,1.052-6.731,3.129-7.434,6.174c-0.642,2.785,0.504,5.17,3.522,5.271 c3.718,0.123,21.632-9.376,14.697-13.578c-4.549-2.756-9.189,1.763-3.493,4.111c3.748,1.545,8.234,0.674,12.106,0.132 c2.084-0.292,15.388-3.41,14.656,0.834c-0.133,0.77,0.563,1.343,1.285,0.988c2.738-1.344,23.208-10.264,22.048-3.988 c-0.132,0.712,0.582,1.423,1.285,0.988c2.034-1.258,4.129-2.417,6.255-3.511c1.729-0.89,3.506-1.679,5.366-2.251 c2.466-0.758,1.409,0.72,2.677,1.752c4.523,3.681,12.546-3.012,16.427-5.132c2.924-1.598,9.783-4.907,9.539,1.138 c-0.047,1.159,1.089,1.782,2.115,1.534c5.009-1.213,9.456-5.915,13.879-8.425c1.102-0.625,2.319-1.272,3.602-1.395 c1.478-0.142,0.728,4.197,0.771,5.046c0.082,1.598,1.012,2.495,2.515,1.845c1.159-0.502,2.176-1.886,3.055-2.734 c2.241-2.162,4.739-3.75,7.473-5.21c1.901-1.016,3.914-2.286,5.234-0.528c0.549,0.73,1.19,1.259,2.146,1.373 c1.526,0.182,2.66-0.194,4.028-0.83c1.106-0.515,5.707-6.039,6.439-4.997c1.676,2.383,1.499,4.106,4.878,4.272 c2.745,0.135,5.115-1.778,6.223-4.123c1.642-3.474-1.033-2.488-1.015-2.39c1.292,6.86-1.9,15.168-5.113,20.991 c-8.295,15.033-24.667,23.167-40.602,27.536c-9.853,2.701-20.142,3.995-30.319,4.723c-2.159,0.154-4.332,0.252-6.496,0.146 c-0.626-0.031-1.244-0.103-1.852-0.256c-0.666-0.169-0.332,0.16-0.22,0.035c2.193-2.447,6.973-3.509,9.915-4.563 c6.464-2.315,13.071-4.238,19.68-6.092c36.453-10.229,74.424-18.465,112.262-20.962c21.232-1.401,42.465-2.802,63.697-4.204 c1.12-0.074,1.127-1.824,0-1.75c-22.222,1.466-44.447,2.887-66.667,4.402c-37.591,2.563-75.431,11.12-111.613,21.349 c-6.396,1.808-12.772,3.732-19.021,6.002c-3.091,1.123-6.586,2.247-9.2,4.316c-1.442,1.141-0.925,2.652,0.703,3.155 c3.832,1.183,8.811,0.211,12.679-0.147c28.533-2.64,65.488-12.204,73.067-44.377c0.697-2.96,1.077-6.062,0.956-9.105 c-0.021-0.534-0.387-4.103-1.791-2.503c-1.337,1.523-0.352,3.696-2.554,5.269c-4.867,3.478-4.582-3.138-7.859-3.973 c-2.223-0.566-9.793,10.104-10.855,5.589c-0.474-2.013-2.395-1.783-4.063-1.364c-4.256,1.07-8.22,4.037-11.376,6.979 c-0.652,0.609-1.282,1.243-1.933,1.854c-1.531,1.439-0.69-0.872-0.677-1.781c0.021-1.332,0.239-2.426-0.316-3.647 c-1.645-3.614-8.94,1.889-10.475,2.898c-2.456,1.617-4.832,3.356-7.359,4.862c-0.63,0.375-2.279,1.491-2.134,0.662 c0.227-1.294,0.263-2.35-0.398-3.512c-2.511-4.419-12.301,1.468-14.786,3.265c-1.425,1.031-10.985,6.218-11.482,2.782 c-0.212-1.469-1.399-1.835-2.737-1.759c-4.63,0.265-9.72,3.868-13.548,6.236c0.428,0.329,0.856,0.659,1.285,0.988 c1.981-10.719-20.862,0.168-24.619,2.012c0.428,0.329,0.857,0.659,1.285,0.988c1.441-8.354-17.801-2.763-21.395-2.463 c-2.601,0.216-5.689,0.381-7.686-1.564c-1.021-0.994,2.006-0.58,2.046-0.57c3.169,0.798,1.029,3.363-0.583,4.609 c-3.287,2.539-7.791,5.801-12.036,6.272c-4.974,0.552,0.329-5.717,1.621-6.573c0.853-0.564,1.808-1.048,2.756-1.434 C120.264,68.425,119.813,66.731,118.768,67.156L118.768,67.156z"/>
<path d="M272.542,73c-0.704-8.049-4.573-17.48-13.31-19.177c-0.824-0.16-1.512,0.812-0.852,1.462 c3.611,3.557,9.508,4.743,14.352,3.978c17.146-2.708,28.636-21.899,36.357-35.488c0.558-0.982-0.954-1.864-1.512-0.883 c-7.481,13.167-18.325,31.5-34.724,34.59c-4.38,0.825-9.944-0.192-13.235-3.435c-0.284,0.487-0.568,0.975-0.852,1.462 c7.916,1.538,11.387,10.194,12.024,17.49C270.89,74.115,272.641,74.125,272.542,73L272.542,73z"/>
<path d="M304.911,34.559c-2.651,4.342-0.348,11.601,5.826,10.093c8.337-2.036,7.942-12.792,5.288-19.027 c-4.466-10.491-28.635-6.354-21.29,4.005c4.617,6.513,13.642,7.931,21.02,7.531c5.955-0.323,11.781-2.216,17.269-4.431 c1.098-0.443,4.563-1.453,4.63-3.125c0.125-3.128-6.857,0.378-7.761,0.994c-4.606,3.139-1.375,8.678,3.262,9.543 c5.325,0.994,10.969-6.062,10.023-11.041c-0.86-4.532-6.246-6.158-10.312-5.254c-5.28,1.174,3.549,4.73,4.37,4.966 c7.344,2.105,16.918,3,23.872-0.724c-0.354-0.458-0.707-0.916-1.061-1.374c-0.741,0.823-5.219,5.75-2.427,6.524 c2.638,0.732,6.369-2.049,8.463-3.203c3.493-1.924,6.857-4.191,10.024-6.615c-0.398-0.399-0.798-0.798-1.197-1.197 c-1.847,2.592-5.608,8.932-0.237,9.758c3.018,0.464,13.267-3.312,12.66-7.376c-0.09-0.601-0.832-0.741-1.285-0.523 c-2.753,1.323-3.928,6.052-0.281,6.76c1.103,0.214,1.572-1.473,0.465-1.688c-2.101-0.408-0.248-3.105,0.699-3.561 c-0.428-0.174-0.856-0.349-1.285-0.523c0.244,1.636-7.483,4.638-8.873,5.015c-5.829,1.578-1.251-5.715-0.351-6.979 c0.494-0.693-0.504-1.728-1.197-1.197c-3.183,2.435-6.563,4.601-10.024,6.614c-0.861,0.501-7.177,4.009-6.012,2.089 c0.582-0.959,1.346-1.829,2.097-2.662c0.666-0.739-0.17-1.851-1.061-1.374c-6.625,3.547-15.549,2.323-22.523,0.547 c-1.712-0.436-6.638-1.866-2.202-1.75c4.068,0.105,6.678,2.762,5.616,6.896c-1.23,4.789-9.271,9.578-11.771,2.74 c-0.756-2.067,2.312-3.563,3.747-4.157c0.643-0.267,1.319-0.444,1.996-0.602c1.126-0.262,0.919-0.976,0.229-0.538 c-3.463,2.205-7.958,3.342-11.87,4.404c-7.557,2.05-16.169,2.216-23.116-1.784c-2.224-1.28-4.399-3.372-5.377-5.785 c-1.062-2.617,3.176-4.311,4.903-4.877c6.621-2.173,13.297,0.513,15.507,7.197c1.473,4.453,1.021,10.26-2.979,13.252 c-4.338,3.245-8.426-2.647-5.963-6.68C307.013,34.476,305.498,33.597,304.911,34.559L304.911,34.559z"/>
<path d="M390.156,24.101c-1.588,8.544-7.798,16.075-14.523,21.165c-2.453,1.856-5.241,3.62-8.105,4.771 c-2.045,0.822,1.112-3.055,1.305-3.29c2.465-3.01,5.368-5.334,8.755-7.195c8-4.395,16.588-7.726,24.784-11.734 c6.306-3.083,14.126-6.552,18.288-12.503c2.118-3.029,1.28-6.951-2.896-5.548c-5.356,1.798-10.729,7.696-12.739,12.848 c-1.704,4.368-1.185,11.519,4.79,11.876c5.733,0.343,11.261-6.81,15.427-9.822c0.396-0.286,1.656-1.334,2.141-0.717 c0.129-0.487,0.258-0.975,0.387-1.462c-2.994,1.073-12.361,6.055-7.845,10.572c1.403,1.403,2.324-1.46,2.544-2.303 c-0.144,0.55-0.554,0.459,0.238,0.087c0.784-0.369,1.506-0.777,2.238-1.243c1.453-0.924,2.309-2.136,2.9-3.704 c-0.573-0.077-1.146-0.155-1.719-0.232c0.18,3.196,1.977,5.7,5.234,6.078c3.86,0.448,8.141-3.191,11.077-5.138 c1.321-0.876,2.609-1.803,3.945-2.658c0.726-0.465,0.128-1.303-0.166-0.418c-0.382,1.149-1.085,2.289-1.638,3.362 c-0.516,1.001,0.995,1.887,1.512,0.883c0.733-1.425,3.894-7.93-0.592-5.337c-3.8,2.197-17.058,13.298-17.623,3.229 c-0.057-1.018-1.372-1.151-1.719-0.232c-0.96,2.545-4.908,2.822-5.377,4.859c-0.315,1.172-0.132,0.635,0.552-1.611 c0.632-1.252,2.137-2.094,3.277-2.802c1.124-0.697,2.382-1.257,3.624-1.702c0.665-0.238,0.804-0.93,0.387-1.462 c-2.332-2.973-8.368,3.761-9.906,5.049c-2.489,2.085-6.292,5.585-9.856,4.852c-5.212-1.071-2.589-8.965-1.011-11.691 c1.95-3.369,5.024-6.26,8.265-8.369c0.348-0.226,3.859-2.333,4.005-0.907c0.155,1.535-1.144,3.122-2.071,4.17 c-5.682,6.424-15.453,10.044-23.036,13.571c-7.155,3.327-14.812,6.175-21.439,10.511c-2.055,1.344-10.529,8.12-8.614,11.389 c2.563,4.374,15.788-7.949,17.605-9.825c4.333-4.47,8.13-10.688,9.284-16.899C392.049,23.463,390.362,22.992,390.156,24.101 L390.156,24.101z"/>
</svg>