<?xml version="1.0" encoding="UTF-8" standalone="no"?>
<!-- Created with Inkscape (http://www.inkscape.org/) -->

<svg
   xmlns:dc="http://purl.org/dc/elements/1.1/"
   xmlns:cc="http://creativecommons.org/ns#"
   xmlns:rdf="http://www.w3.org/1999/02/22-rdf-syntax-ns#"
   xmlns:svg="http://www.w3.org/2000/svg"
   xmlns="http://www.w3.org/2000/svg"
   xmlns:sodipodi="http://sodipodi.sourceforge.net/DTD/sodipodi-0.dtd"
   xmlns:inkscape="http://www.inkscape.org/namespaces/inkscape"
   width="3000"
   height="1473.4434"
   viewBox="0 0 3000 1473.4434"
   id="svg2"
   version="1.1"
   inkscape:version="0.91 r13725"
   sodipodi:docname="Tori Kelly Signature.svg">
  <title
     id="title4179">Tori Kelly signature.</title>
  <defs
     id="defs4" />
  <sodipodi:namedview
     id="base"
     pagecolor="#ffffff"
     bordercolor="#666666"
     borderopacity="1.0"
     inkscape:pageopacity="0.0"
     inkscape:pageshadow="2"
     inkscape:zoom="0.18528028"
     inkscape:cx="2060.9979"
     inkscape:cy="504.40585"
     inkscape:document-units="px"
     inkscape:current-layer="layer2"
     showgrid="false"
     inkscape:showpageshadow="false"
     units="px"
     fit-margin-top="20"
     fit-margin-left="20"
     fit-margin-right="20"
     fit-margin-bottom="20"
     inkscape:window-width="1280"
     inkscape:window-height="721"
     inkscape:window-x="-4"
     inkscape:window-y="-4"
     inkscape:window-maximized="1" />
  <metadata
     id="metadata7">
    <rdf:RDF>
      <cc:Work
         rdf:about="">
        <dc:format>image/svg+xml</dc:format>
        <dc:type
           rdf:resource="http://purl.org/dc/dcmitype/StillImage" />
        <dc:title>Tori Kelly signature.</dc:title>
        <cc:license
           rdf:resource="http://creativecommons.org/licenses/by-sa/3.0/" />
        <dc:subject>
          <rdf:Bag>
            <rdf:li>Tori Kelly</rdf:li>
            <rdf:li>Signature</rdf:li>
            <rdf:li>Autograph</rdf:li>
            <rdf:li>Firma</rdf:li>
            <rdf:li>Autógrafo</rdf:li>
          </rdf:Bag>
        </dc:subject>
      </cc:Work>
      <cc:License
         rdf:about="http://creativecommons.org/licenses/by-sa/3.0/">
        <cc:permits
           rdf:resource="http://creativecommons.org/ns#Reproduction" />
        <cc:permits
           rdf:resource="http://creativecommons.org/ns#Distribution" />
        <cc:requires
           rdf:resource="http://creativecommons.org/ns#Notice" />
        <cc:requires
           rdf:resource="http://creativecommons.org/ns#Attribution" />
        <cc:permits
           rdf:resource="http://creativecommons.org/ns#DerivativeWorks" />
        <cc:requires
           rdf:resource="http://creativecommons.org/ns#ShareAlike" />
      </cc:License>
    </rdf:RDF>
  </metadata>
  <g
     inkscape:groupmode="layer"
     id="layer2"
     inkscape:label="tori"
     transform="translate(20,324.69333)">
    <path
       style="opacity:1;fill:#000000;fill-opacity:1;fill-rule:evenodd;stroke:none;stroke-width:1px;stroke-linecap:butt;stroke-linejoin:miter;stroke-opacity:1"
       d="m 1032.8978,-301.97232 c -0.6924,-0.21366 -1.4287,-0.36645 -2.1998,-0.47777 -5.1407,-0.74193 -11.7967,0.50829 -16.7842,-0.1092 -10.6061,-1.31319 -21.33379,-2.6038 -32.00174,-1.9659 -32.96893,1.97151 -65.1504,11.00514 -97.46442,17.83454 -21.68444,4.58285 -43.2393,9.80409 -64.65471,15.51349 -50.74304,13.52827 -100.94559,29.03387 -151.16842,44.38131 -24.36999,7.44719 -48.56401,15.45329 -72.85617,23.15069 -17.71109,5.61207 -35.99094,9.65798 -53.14574,16.79184 -25.96775,10.7987 -49.32514,27.11455 -74.7578,39.11933 -14.5627,6.87394 -29.60015,12.69726 -44.50018,18.80553 -24.0069,9.84168 -48.39847,18.72528 -72.33235,28.7432 -19.11249,7.999843 -38.66672,15.190338 -56.89381,25.042166 -16.53362,8.936517 -31.42125,20.625571 -47.26867,30.729038 -17.68688,11.276201 -35.81981,21.859337 -53.3609,33.361064 C 178.09078,-0.9433521 164.48935,12.17983 147.92043,20.266471 131.2239,28.415439 112.95711,33.240266 94.774644,37.05832 82.498606,39.636133 69.901355,40.736483 57.363211,41.112043 46.026254,41.451734 33.908741,35.264732 23.379269,39.48079 13.101921,43.595675 2.9152264,52.734496 0.46589589,63.53064 -1.1659178,70.723121 1.576389,79.942441 7.3205754,84.568373 c 11.5725226,9.319544 29.5022516,4.009222 44.3541986,4.453454 17.800603,0.532413 35.753161,0.385012 53.380086,-2.152142 24.37111,-3.507713 48.38852,-9.904227 71.65577,-17.959705 17.56548,-6.081426 34.36926,-14.278694 50.89148,-22.7961 14.51519,-7.48275 28.79082,-15.544357 42.24394,-24.801531 12.81,-8.814712 23.44888,-20.58577463 36.44015,-29.1310209 12.30658,-8.0948851 25.80877,-14.2342361 39.01064,-20.7679651 20.80025,-10.294161 41.895,-20.015292 63.28322,-29.024495 10.46159,-4.406666 21.04792,-8.498113 31.67418,-12.496501 0.43184,22.485889 1.73687,79.4587869 4.49998,112.051251 3.67191,43.311303 11.58918,86.160722 17.02726,129.285862 4.91905,39.00957 8.92171,78.13058 14.11696,117.10437 4.18537,31.39754 8.32628,62.81572 13.73623,94.02559 4.05005,23.36468 9.52599,46.46245 14.00681,69.74836 4.47525,23.25699 9.18669,46.48209 12.85971,69.87923 3.02865,19.2924 4.71373,38.77454 7.56334,58.09431 1.70937,11.58879 2.38172,23.44691 5.72114,34.67485 2.12806,7.15511 3.72949,15.23303 9.02371,20.49544 2.95954,2.94198 8.46587,2.09901 11.48684,4.97797 3.84041,3.65977 -0.1036,9.4246 7.01754,14.28085 3.32634,2.26864 8.39271,0.42731 11.8077,2.55999 2.11313,1.31948 2.3999,4.74143 4.62412,5.86367 3.39843,1.71442 7.64241,0.90426 11.41027,0.36256 2.22224,-0.3194 4.17548,-1.85211 6.40769,-2.09123 5.55786,-0.59522 11.49457,3.81386 16.67734,1.72047 3.88405,-1.56897 5.7123,-6.17531 8.10002,-9.61711 2.8917,-4.16867 1.63726,-9.91407 7.4686,-13.26092 3.68425,-2.11498 5.61643,-6.93842 6.15506,-11.15241 1.92467,-15.05692 -7.66076,-29.38352 -11.26615,-44.12881 -6.60046,-26.99441 -12.17299,-54.23754 -18.97852,-81.18089 -4.68631,-18.5535 -10.14205,-36.89986 -15.04708,-55.39672 -7.77064,-29.30337 -15.54703,-58.607 -22.78038,-88.04759 -6.43101,-26.17458 -12.72091,-52.39129 -18.33199,-78.75372 -6.31999,-29.693 -12.47915,-59.44259 -17.26703,-89.42081 -2.95713,-18.51512 -4.1962,-37.27688 -7.06631,-55.80573 -3.41807,-22.06626 -8.07801,-43.922707 -12.08369,-65.889951 -5.39816,-29.603827 -11.77344,-59.051706 -16.10617,-88.830126 -3.09287,-21.256827 -6.28179,-54.181472 -7.55919,-67.588665 12.50833,-4.664563 24.97932,-9.42443 37.26933,-14.629698 28.35051,-12.00742 55.19213,-27.46174 83.80498,-38.82979 29.4083,-11.68409 59.8289,-20.67132 90.04214,-30.08017 30.09385,-9.37169 60.79622,-16.72762 90.83991,-26.25888 36.00682,-11.42309 71.40806,-24.67256 107.09858,-37.04851 25.13764,-8.71665 49.85824,-18.73232 75.39367,-26.20376 13.97483,-4.0889 28.47503,-6.1984 42.48644,-10.15997 4.8299,-1.36563 10.4615,-1.45847 14.3083,-4.68269 6.9789,-5.8496 16.8438,-15.87537 12.907,-24.08667 -0.9776,-2.03931 -2.6531,-3.20449 -4.7306,-3.84576 z m 716.6179,225.667973 c -2.9018,-0.815777 -5.8274,-1.059777 -8.675,-0.289191 -3.5503,0.960503 -5.6138,4.964113 -7.4014,8.178406 -4.7264,8.49863 -5.2453,18.72878 -8.0541,28.038786 -2.2865,7.578658 -4.4331,15.215456 -7.1617,22.646368 -4.7522,12.9414658 -10.5739,25.4605406 -16.0053,38.131937 -8.1111,18.922841 -15.347,38.280547 -24.7622,56.589569 -9.5772,18.624068 -20.5207,36.559002 -32.1662,53.964752 -15.625,23.35346 -34.0587,44.71323 -50.4639,67.52543 -14.7037,20.44619 -27.646,42.1564 -42.9765,62.1369 -20.7838,27.08795 -42.7584,53.34748 -66.2885,78.08724 -9.5455,10.03618 -19.324,19.94978 -29.9212,28.86622 -0.104,-2.39687 -0.1783,-4.7947 -0.2901,-7.19131 -0.7783,-16.68369 -2.4035,-33.32593 -3.2407,-50.00681 -0.8472,-16.87986 -2.0561,-33.76878 -1.8057,-50.66802 0.2408,-16.24765 2.7257,-32.39896 3.1757,-48.64217 0.392,-14.1521 -0.6483,-28.32047 -0.4156,-42.47606 0.4286,-26.10168 3.6889,-52.13983 3.3358,-78.242673 -0.3418,-25.282495 -0.7009,-50.803161 -5.2787,-75.670127 -2.0205,-10.9755725 -3.992,-22.4616314 -9.7193,-32.040023 -3.6,-6.020825 -8.8044,-11.35506 -14.8515,-14.9109 -6.8408,-4.022559 -15.0092,-7.232103 -22.9093,-6.478523 -2.8907,0.27581 -5.9789,1.628921 -7.775,3.910638 -2.7596,3.505727 -2.5032,8.608695 -3.0368,13.038194 -0.6831,5.671077 -0.3453,11.427357 -0.1916,17.1373239 0.4494,16.6958121 2.8594,33.3011971 3.2426,49.9986061 0.5321,23.182709 0.1166,46.411214 -1.3125,69.555944 -1.6627,26.9263 -6.4829,53.58397 -8.4384,80.49059 -1.7283,23.78151 -2.6602,47.6281 -2.9012,71.47112 -0.2983,29.52022 1.2767,59.02866 1.8037,88.54572 0.23,12.89002 0.5927,25.78375 0.929,38.67446 -5.0705,-0.21884 -10.1105,-0.19942 -15.0174,0.77822 -15.9672,3.18119 -31.7814,8.68656 -45.8145,16.94137 -9.2724,5.45435 -18.5194,12.06867 -24.4919,21.01615 -3.7064,5.55264 -7.3308,12.46102 -6.2097,19.04218 1.0694,6.27786 6.3892,11.5158 11.6063,15.16776 9.5025,6.65174 21.757,8.53148 33.2034,10.40825 11.0813,1.81693 22.4995,1.71144 33.6851,0.72202 4.7234,-0.41781 9.4461,-1.15421 14.0669,-2.272 -0.022,2.0034 0.01,4.00702 -0.022,6.01033 -0.6299,37.40586 -4.1497,74.7089 -5.4906,112.09614 -1.4975,41.75486 -2.0476,83.53992 -2.8479,125.3142 -0.2296,11.99452 -0.4727,23.98515 -0.5643,35.98096 -0.1644,21.55638 -0.3833,43.12095 0.022,64.67388 0.3203,16.95349 0.7049,33.92166 1.8963,50.83631 0.8014,11.37686 -0.013,23.18836 3.5349,34.02741 3.0276,9.24764 6.9077,19.42154 14.7415,25.19414 5.0883,3.74956 12.2324,3.25232 18.4654,4.30074 2.9559,0.49724 5.9986,1.48049 8.9473,0.94182 2.8565,-0.52227 4.9016,-3.57388 7.7851,-3.91703 5.907,-0.70355 11.5124,5.01854 17.3815,4.04824 2.075,-0.34098 3.7011,-2.03254 5.355,-3.33174 3.812,-2.99463 6.3873,-7.43393 10.3854,-10.1752 5.0292,-3.44828 12.7875,-2.85652 16.652,-7.57335 3.5344,-4.31369 3.2192,-10.75056 3.7961,-16.29785 1.7067,-16.41353 -0.052,-33.02085 -1.0669,-49.49179 -1.6919,-27.46062 -4.932,-54.8211 -8.3643,-82.119 -2.894,-23.01657 -8.2479,-45.71245 -10.311,-68.81837 -1.8126,-20.29991 -0.8915,-40.76038 -1.7945,-61.12158 -1.3915,-31.37851 -4.3986,-62.67803 -5.5818,-94.06517 -0.6352,-16.85051 -0.4382,-33.71737 -0.8145,-50.57565 -0.3591,-16.09317 -0.7113,-32.18902 -1.08,-48.28306 11.0442,0.39192 21.8871,5.88992 31.7374,11.05357 9.0513,4.7448 17.0094,11.58999 24.0762,18.97239 13.0474,13.63009 23.8757,29.47033 33.0513,45.95727 18.3374,32.94856 29.1298,69.56341 43.2379,104.53263 17.3461,42.99449 31.4094,87.37321 50.9156,129.43193 15.085,32.52535 31.8873,64.36268 50.9788,94.71046 16.4842,26.20372 34.7772,51.35124 54.6596,75.07957 17.7204,21.14849 36.2829,41.86664 57.3556,59.67649 22.0245,18.61481 45.2725,36.70951 71.489,48.72131 16.3076,7.4715 34.4067,10.3802 51.9971,13.8941 20.7952,4.154 41.8732,9.4449 63.0558,8.4457 17.6976,-0.8348 35.1791,-5.7851 51.7756,-11.9867 11.1355,-4.1609 22.7014,-8.7189 31.5039,-16.7084 3.9973,-3.6278 7.6234,-8.2717 8.937,-13.5078 1.1124,-4.4345 1.2174,-9.8217 -1.2676,-13.65972 -2.1153,-3.26699 -6.4556,-4.56792 -10.1659,-5.74367 -4.8887,-1.54912 -10.184,-1.50768 -15.3123,-1.52365 -10.0586,-0.0432 -20.0005,3.28642 -30.0475,2.79997 -14.7417,-0.71348 -29.288,-4.30204 -43.4825,-8.34467 -14.3166,-4.07716 -28.7336,-8.66148 -41.7097,-15.95557 -23.5736,-13.25185 -43.4611,-32.25212 -64.1428,-49.67609 -20.2985,-17.10111 -40.5912,-34.39041 -58.7325,-53.76534 -22.3791,-23.90055 -42.5636,-49.89104 -61.425,-76.65502 -20.889,-29.6412 -40.3365,-60.44262 -57.0674,-92.61447 -16.1799,-31.11262 -27.8036,-64.38986 -41.6275,-96.61825 -13.4428,-31.33988 -23.6086,-64.2814 -40.1838,-94.0833 -9.5676,-17.20237 -20.6636,-33.78246 -33.9059,-48.3462 -13.117,-14.42606 -28.1067,-27.39312 -44.4843,-37.97341 -9.0468,-5.84446 -29.2233,-13.78322 -29.2233,-13.78322 0,0 9.6962,-6.96743 14.1252,-10.95762 13.4853,-12.14921 25.5376,-25.82237 37.664,-39.32819 12.355,-13.76048 24.233,-27.96149 35.7179,-42.45621 17.049,-21.51705 33.2927,-43.6683 49.2305,-66.02095 16.7415,-23.47993 33.6651,-46.89101 48.7128,-71.49084 11.2756,-18.43329 21.5985,-37.47168 31.0657,-56.89577 7.8529,-16.11194 13.4728,-33.256132 21.3,-49.380554 5.0526,-10.408585 11.8652,-19.928146 16.5415,-30.511152 5.8081,-13.14472 10.5403,-26.810502 14.1907,-40.7099237 2.7212,-10.3616673 5.9964,-20.9256823 5.6977,-31.6345513 -0.1934,-6.933503 -1.4039,-14.202554 -4.8255,-20.236113 -3.6964,-6.51832 -9.6596,-11.848626 -16.0871,-15.700736 -4.2172,-2.527442 -8.9871,-5.478139 -13.8235,-6.837897 z M 1258.3813,-188.94896 c -3.1196,-0.60026 -6.2995,-0.99019 -9.4086,-1.5249 -4.435,-0.76264 -9.052,-2.58739 -13.4205,-1.50716 -4.5152,1.11645 -9.365,3.72565 -11.5375,7.83829 -2.1446,4.05963 -0.7971,9.26144 0.03,13.77804 1.1925,6.52722 3.7027,12.8725 6.9998,18.63055 1.4896,2.60125 3.1744,5.31377 5.6607,6.98806 6.5565,4.41504 14.8169,7.69994 22.6809,6.90143 3.1495,-0.31984 6.0802,-2.31806 8.3437,-4.53127 1.9625,-1.91885 1.7485,-5.72711 4.0971,-7.1476 2.5649,-1.55127 6.5795,1.45848 8.984,-0.33105 2.1195,-1.57756 3.0071,-4.90093 2.5618,-7.5052 -0.2836,-1.65931 -2.7613,-2.32263 -3.1273,-3.96571 -0.6288,-2.82272 2.4396,-5.59542 1.9678,-8.44861 -0.6065,-3.66815 -3.4072,-6.71199 -5.895,-9.47493 -2.5188,-2.79725 -5.5136,-5.3111 -8.9112,-6.93152 -2.8474,-1.35811 -5.9041,-2.16802 -9.0238,-2.76833 z m 1143.7682,300.10805 c -6.1457,-1.36291 -12.6497,-1.53858 -18.774,-0.74594 -9.8818,1.27896 -19.638,5.69369 -27.399,11.94285 -9.7346,7.83837 -16.2573,19.27229 -21.9665,30.39012 -9.0415,17.60681 -14.06,37.10022 -18.8448,56.30582 -5.6736,22.77417 -9.0063,46.12841 -11.5897,69.45606 -2.3683,21.38524 -3.2872,42.93091 -3.5586,64.44516 -0.3298,26.1508 1.1338,52.29815 2.3436,78.42297 0.7184,15.51 2.9182,46.48662 2.9182,46.48662 0,0 -16.8784,27.44517 -25.5804,41.00015 -11.5662,18.01659 -22.519,36.49801 -35.3968,53.60184 -6.8015,9.03346 -12.5594,19.61806 -22.0367,25.78603 -2.5123,1.63501 -5.9029,3.85012 -8.6145,2.5725 -6.1187,-12.10717 -8.5807,-18.36612 -11.8148,-27.94905 -6.5671,-19.45896 -15.8531,-39.15079 -15.3043,-59.68076 0.3289,-12.30002 7.3548,-23.48286 11.067,-35.21396 10.1766,-32.15975 21.9619,-63.84662 30.7241,-96.42018 10.0026,-37.1846 19.129,-74.73345 24.8812,-112.8078 1.9087,-12.63363 2.8458,-25.42364 3.1664,-38.19669 0.6856,-27.3177 4.6337,-55.6064 -2.6765,-81.93676 -1.4786,-5.32573 -4.3283,-10.41743 -8.08,-14.47629 -4.3124,-4.66552 -10.2598,-7.57309 -15.8631,-10.56756 -5.9838,-3.1978 -12.022,-7.33729 -18.7899,-7.81286 -8.7924,-0.61783 -18.1298,1.95303 -25.5994,6.6318 -10.992,6.88507 -18.5918,18.48577 -25.2261,29.63093 -12.2907,20.6478 -19.4889,44.11046 -25.9642,67.25057 -5.8188,20.79417 -8.1687,42.41045 -11.4139,63.75814 -4.8317,31.78385 -9.7214,63.63387 -11.9902,95.70268 -1.7445,24.65927 -2.5078,49.46568 -1.2322,74.1536 0.6736,13.03785 4.6807,38.88181 4.6807,38.88181 0,0 -19.5775,34.61507 -30.2861,51.35582 -9.2637,14.48186 -17.0887,30.35326 -29.3448,42.40872 -11.6264,11.43599 -26.5103,19.10689 -40.6842,27.17273 -6.2073,3.53244 -12.2203,9.87004 -19.3346,9.24245 -6.4643,-0.57061 -11.6653,-6.3609 -15.8205,-11.34535 -6.4723,-7.76413 -9.768,-17.82667 -12.9412,-27.42393 -1.4103,-4.26531 -2.6446,-13.21028 -2.6446,-13.21028 0,0 7.594,-23.41609 10.995,-35.23938 5.1411,-17.87269 11.1553,-35.60355 14.2184,-53.94701 3.9051,-23.38536 7.2629,-47.31371 5.2084,-70.93375 -1.196,-13.7496 -3.4924,-28.04664 -10.1142,-40.15597 -6.4316,-11.76161 -16.063,-22.38277 -27.5355,-29.31692 -7.6431,-4.61967 -16.9766,-8.43212 -25.8158,-7.15553 -9.1961,1.3282 -17.3689,7.90255 -23.6545,14.74528 -10.4239,11.34755 -16.1935,26.53072 -21.0381,41.15787 -5.6875,17.17207 -8.3277,35.43551 -9.0273,53.51145 -0.8106,20.94278 2.6501,41.87714 5.6345,62.62205 2.4405,16.96424 10.0142,50.43321 10.0142,50.43321 0,0 -10.6801,22.43712 -17.8756,32.48551 -7.0268,9.81307 -14.0379,20.57356 -24.4138,26.73851 -5.4223,3.22167 -12.6915,1.78694 -18.3741,4.52346 -4.7609,2.29281 -9.1293,5.6457 -12.5529,9.67063 -2.7466,3.22901 -2.9284,8.3205 -6.0439,11.19514 -2.7326,2.52114 -7.9717,1.52797 -10.2134,4.49411 -2.4759,3.27606 -2.8018,8.24713 -1.6904,12.20041 1.6502,5.87057 6.6002,10.64956 11.5919,14.15179 7.3492,5.15623 16.5074,7.69464 25.3952,8.9619 11.5054,1.64019 23.8667,1.96391 34.8095,-1.95053 12.8772,-4.60633 24.2485,-13.80606 33.1292,-24.20657 5.9725,-6.99497 12.5845,-24.56008 12.5845,-24.56008 0,0 15.5981,27.47529 28.0862,36.31806 12.9677,9.18246 29.5245,12.71577 45.2521,14.98052 14.1823,2.04204 29.0055,1.81414 42.9584,-1.44595 12.3627,-2.88889 23.7826,-9.22087 34.6915,-15.71515 12.6047,-7.50343 24.3533,-16.57366 35.0765,-26.58355 11.004,-10.27189 21.4544,-21.42474 29.6865,-34.02785 2.9112,-4.45656 6.8032,-14.4548 6.8032,-14.4548 0,0 5.1319,19.46428 9.3865,28.52631 4.0575,8.64206 8.8425,17.15679 15.2072,24.27262 6.8907,7.70456 14.7367,15.31676 24.2796,19.28817 10.3192,4.2947 22.15,4.65597 33.3032,3.92264 12.206,-0.80283 24.7126,-3.38613 35.5664,-9.02794 11.359,-5.90424 20.0579,-16.00348 29.1323,-25.03357 9.3988,-9.35296 18.3248,-19.28041 26.0743,-30.0396 6.2003,-8.60796 16.1825,-27.40913 16.1825,-27.40913 0,0 4.7695,20.31704 10.4785,28.78041 6.8862,10.20887 17.3704,17.65273 27.4551,24.71935 4.7268,3.31231 9.8807,6.11876 15.2842,8.14741 4.1769,1.56811 8.7502,4.29514 13.0301,3.03521 4.1592,-1.22496 5.0892,-7.57853 9.0491,-9.34432 3.8716,-1.72651 8.6601,0.76528 12.7137,-0.47522 8.2959,-2.53884 15.5397,-8.06929 22.0981,-13.74865 8.359,-7.23841 21.3705,-25.37845 21.3705,-25.37845 0,0 6.769,14.45739 12.6198,19.54974 6.1601,5.36169 14.2692,8.46423 22.221,10.32584 10.7204,2.51035 22.3427,3.49878 33.0219,0.8188 12.7598,-3.20225 23.6388,-11.80417 34.3158,-19.48974 14.7332,-10.60554 28.0491,-23.1919 40.5399,-36.36472 7.9521,-8.38637 15.1293,-17.53106 21.7492,-27.00435 7.6103,-10.89058 20.548,-34.14827 20.548,-34.14827 0,0 -3.0244,45.27867 -3.234,67.95724 -0.3233,34.98869 1.4116,69.97604 3.0517,104.92757 0.7829,16.68372 3.2427,49.99895 3.2427,49.99895 0,0 -23.6804,28.39984 -34.203,43.57071 -20.9738,30.23815 -40.5428,61.58731 -57.4551,94.27106 -14.4116,27.85081 -27.6095,56.54675 -37.2992,86.3714 -7.0081,21.57019 -12.514,43.82926 -14.8908,66.38442 -1.7247,16.3665 -2.9169,33.2842 0.5312,49.3757 2.4774,11.5607 7.1154,23.0213 14.1826,32.4999 5.8641,7.8647 15.4892,12.1209 22.4978,18.9856 4.5697,4.4759 7.3126,10.918 12.6757,14.4043 6.2521,4.0637 13.925,5.9478 21.3444,6.6936 5.6739,0.5707 11.3216,-1.9272 17.0218,-1.7653 5.4017,0.1554 10.641,3.2773 16.0002,2.5841 14.0852,-1.8223 27.2505,-9.2139 38.9485,-17.2681 12.2377,-8.4258 22.6175,-19.6555 31.4206,-31.6245 8.6558,-11.7688 15.7677,-24.9145 20.4758,-38.7443 8.1616,-23.9743 9.1026,-49.83578 12.8621,-74.88101 4.3824,-29.1949 8.9022,-58.42433 11.2949,-87.84929 2.0269,-24.92783 3.1812,-49.98039 2.5766,-74.98289 -0.5571,-23.03859 -5.7133,-68.89866 -5.7133,-68.89866 0,0 29.2702,-36.7389 45.6722,-53.49384 19.411,-19.82814 40.3974,-38.16069 62.1521,-55.38524 18.7848,-14.87305 38.1353,-29.23332 58.8548,-41.26539 9.8416,-5.71519 20.4444,-10.01895 30.8759,-14.56952 8.3195,-3.62926 17.4102,-5.59986 25.2665,-10.14573 4.1211,-2.38453 8.6708,-4.819 11.225,-8.83724 2.7922,-4.39285 5.1141,-10.24388 3.5417,-15.20583 -1.4074,-4.4409 -6.3412,-7.08224 -10.4361,-9.30349 -8.8299,-4.78969 -19.0539,-7.204 -29.0734,-7.92288 -11.8496,-0.85014 -23.954,1.0827 -35.3718,4.36432 -19.0862,5.48565 -36.5807,15.63798 -53.9749,25.22 -17.2719,9.51459 -33.6544,20.60817 -49.8056,31.92136 -15.7912,11.06091 -32.0704,21.74328 -45.9752,35.09872 -6.5955,6.33457 -17.5131,21.11784 -17.5131,21.11784 0,0 -3.8525,-55.84838 -5.6837,-83.77964 -3.8858,-59.27279 -1.0095,-119.33382 -11.2572,-177.84318 -1.1775,-6.72291 -2.4678,-13.6641 -5.7302,-19.6592 -4.8343,-8.88373 -11.3434,-17.46644 -19.844,-22.94648 -5.3216,-3.43054 -12.0627,-6.87299 -18.2192,-5.39479 -10.1773,2.44362 -16.6415,13.13604 -22.7789,21.61426 -5.6873,7.85632 -8.3689,17.49298 -12.4276,26.30174 -7.6894,16.68843 -15.7309,33.2371 -22.5921,50.28275 -4.2621,10.58853 -6.3472,22.07718 -11.5197,32.25208 -7.9474,15.63344 -18.5235,29.89306 -29.5972,43.49228 -9.5822,11.76753 -20.094,22.899 -31.6729,32.70823 -4.2173,3.57267 -13.645,9.41623 -13.645,9.41623 0,0 -1.1312,-38.2073 2.8716,-56.58992 6.7255,-30.88783 10.7285,-55.5269 15.9691,-83.31547 1.5173,-8.04615 6.1624,-16.13922 4.483,-24.15309 -1.349,-6.43787 -6.7992,-11.33784 -11.0852,-16.32751 -3.9062,-4.54763 -7.8884,-9.41532 -13.1824,-12.22833 -5.5816,-2.96571 -12.2295,-5.33194 -18.4654,-4.30087 -8.3001,1.37236 -16.5315,6.49363 -21.43,13.33308 -7.3607,10.27698 -5.0103,24.8106 -8.6018,36.93072 -4.4679,15.07764 -10.9601,29.48465 -16.0623,44.3596 -6.4164,18.7062 -10.2614,38.36307 -18.2946,56.43401 -5.2077,11.71482 -11.7889,22.8737 -19.2137,33.32506 -4.8638,6.84658 -16.4726,19.06675 -16.4726,19.06675 0,0 -7.9395,-19.26137 -11.5541,-29.03101 -3.6513,-9.86875 -10.2242,-29.87243 -10.2242,-29.87243 0,0 15.3205,-23.55719 21.0548,-36.32406 11.8539,-26.39152 19.5447,-54.52238 27.2121,-82.41933 8.7208,-31.72934 17.2221,-63.73746 21.308,-96.3888 3.7663,-30.09791 6.231,-60.8115 2.8606,-90.95633 -1.9126,-17.10573 -4.6649,-34.90051 -12.9779,-49.97232 -4.2083,-7.62976 -10.186,-14.99221 -17.8938,-19.05586 -3.2777,-1.72799 -6.8376,-2.97535 -10.525,-3.79311 z m -14.1761,82.78962 c 0,0 -1.2408,42.2788 -3.848,63.23526 -2.1823,17.54068 -6.025,34.84228 -9.8497,52.09943 -3.9025,17.60866 -13.3553,52.4342 -13.3553,52.4342 0,0 -0.3777,-41.05605 1.7156,-61.4381 1.8257,-17.77686 5.3052,-35.38932 9.4277,-52.77773 4.2961,-18.12083 15.9097,-53.55306 15.9097,-53.55306 z m -181.7249,5.77415 c 0,0 -1.1834,25.57453 -3.1664,38.19668 -2.6543,16.89531 -6.7131,33.59091 -11.6386,49.96891 -5.9367,19.7403 -21.5191,57.97674 -21.5191,57.97674 0,0 6.6046,-49.57609 12.6097,-73.79743 6.1074,-24.63453 23.7144,-72.3449 23.7144,-72.3449 z M 1255.3168,19.463556 c -9.6142,-2.113856 -19.6773,-0.646881 -29.5081,-1.151368 -9.0343,-0.463569 -18.0665,-2.396012 -27.0881,-1.730312 -6.9665,0.51407 -14.0717,1.638418 -20.4906,4.394019 -5.5615,2.387595 -10.8103,5.871655 -14.983,10.255789 -2.4316,2.554937 -3.1153,6.445245 -5.5352,9.011232 -6.8638,7.277943 -15.8959,12.269335 -24.6175,17.169696 -6.4827,3.642425 -12.9905,8.643874 -20.4184,8.989781 -8.0193,0.373358 -15.7817,-3.791941 -22.8457,-7.606283 -3.0732,-1.659567 -4.9768,-5.214543 -8.2232,-6.502954 -2.4436,-0.969782 -5.5093,-1.861569 -7.8573,-0.678821 -3.15,1.586794 -4.1951,5.748597 -5.5352,9.011275 -1.13,2.751328 -0.4469,6.173837 -2.0252,8.694892 -2.2494,3.593046 -7.0845,4.821503 -9.8805,8.007826 -3.1018,3.534905 -5.09,7.909716 -7.3783,12.018386 -5.3966,9.690312 -8.1482,20.968496 -14.9487,29.730816 -5.0614,6.52155 -11.561,12.0839 -18.6773,16.26806 -7.0673,4.15542 -15.6949,11.81393 -23.1259,8.3505 -6.44922,-3.00582 -4.46567,-13.52861 -7.3578,-20.02958 -2.99973,-6.74281 -6.27186,-13.42036 -10.32597,-19.58703 -2.98264,-4.536715 -5.62118,-9.801371 -10.21875,-12.689309 -5.98185,-3.757453 -13.5953,-4.299276 -20.64111,-4.807605 -7.21217,-0.520414 -14.61407,3.636555 -21.61763,1.837658 -3.07677,-0.790225 -4.98906,-4.075952 -7.9275,-5.282828 -9.29213,-3.816414 -19.58206,-6.72002 -29.58021,-5.747087 -7.70021,0.749264 -14.61688,5.223393 -21.51037,8.735422 -9.37,4.773722 -18.69516,9.946182 -26.78499,16.664819 -10.50122,8.72131 -20.25834,18.7312 -27.64605,30.20983 -11.64447,18.09265 -18.60564,38.94051 -25.28543,59.39334 -6.00209,18.37804 -10.14974,37.39002 -13.15698,56.48805 -4.79271,30.43687 -8.59462,61.31085 -7.71704,92.11029 0.70403,24.70808 2.81875,49.89398 10.38947,73.42415 5.40994,16.81429 13.3699,33.28471 24.56258,46.94898 8.64029,10.54835 19.40212,20.05194 31.79848,25.73095 6.76875,3.10087 14.54104,3.87689 21.98555,3.97815 12.01195,0.16359 24.35648,-1.28245 35.62418,-5.4481 9.86348,-3.64652 18.86129,-9.75104 26.78499,-16.66482 8.76995,-7.65216 16.29358,-16.90329 22.29105,-26.87814 8.34653,-13.88159 13.98644,-29.37726 18.48224,-44.9385 5.47809,-18.96121 7.46984,-38.7764 10.15806,-58.32916 3.57397,-25.99532 5.90028,-52.16197 7.93355,-78.32295 1.49196,-19.19667 3.12585,-57.68189 3.12585,-57.68189 0,0 10.55029,3.85552 16.04345,4.88801 9.61208,1.80671 19.48408,2.59599 29.25758,2.22695 6.0022,-0.22661 12.1194,-0.7828 17.806,-2.71684 9.4713,-3.22112 18.7309,-7.93303 26.2802,-14.49723 7.6631,-6.66322 12.8315,-15.80675 18.2805,-24.37586 6.1942,-9.74103 9.9957,-20.87894 16.2768,-30.56407 2.8965,-4.46632 9.8083,-12.60363 9.8083,-12.60363 0,0 11.4331,4.00292 17.3816,4.04841 7.8163,0.06 15.4365,-2.70967 22.9187,-4.97097 6.9103,-2.08848 13.9122,-4.28858 20.1641,-7.89776 7.7946,-4.49981 14.8615,-10.35714 21.0972,-16.847059 5.8854,-6.125279 10.5473,-13.354016 15.0912,-20.531087 2.2676,-3.581651 6.0439,-11.195228 6.0439,-11.195228 0,0 10.7162,2.170659 16.1346,2.044105 6.662,-0.155386 13.2477,-1.740584 19.6943,-3.428207 7.6826,-2.011215 15.3023,-4.502142 22.4597,-7.943039 3.3172,-1.594737 7.6123,-2.600387 9.3737,-5.832074 2.201,-4.037925 1.3595,-9.47929 -0.2227,-13.797428 -2.0978,-5.725678 -6.6981,-10.513687 -11.5919,-14.151709 -3.63,-2.698453 -8.1076,-4.231208 -12.5252,-5.202458 z M 909.15068,128.94519 c 0,0 0.22617,22.90673 0.013,34.35822 -0.21884,11.73748 -0.7847,23.46236 -1.32346,35.18957 -0.88363,19.23421 -1.7156,38.47767 -3.13406,57.6799 -1.21632,16.46554 -2.32138,32.96945 -4.61462,49.31979 -2.37771,16.9528 -5.74346,33.76593 -9.4628,50.47572 -3.39342,15.24675 -5.83147,30.90342 -11.71888,45.37125 -2.92609,7.19071 -6.90506,14.00366 -11.571,20.20841 -2.60592,3.46532 -9.04913,9.34401 -9.04913,9.34401 0,0 -9.38636,-22.28984 -12.72647,-33.88303 -4.19116,-14.54725 -7.11842,-29.49091 -9.10248,-44.49932 -2.89821,-21.92403 -5.19465,-44.13118 -4.04427,-66.216 0.91082,-17.48625 3.83001,-34.98195 8.63334,-51.82016 5.06373,-17.75106 12.98489,-34.61797 21.08443,-51.20522 6.29716,-12.89615 12.52767,-26.05947 21.3154,-37.40586 3.78896,-4.8922 8.00822,-9.74284 13.31215,-12.93011 3.71645,-2.23333 12.38907,-3.98717 12.38907,-3.98717 z M 2650.9568,832.93045 c 0,0 -0.6362,58.25082 -3.332,87.21955 -2.283,24.53332 -5.8409,48.99197 -10.8579,73.1148 -3.0122,14.4833 -4.4765,29.857 -11.5242,42.8633 -4.221,7.7896 -17.7329,19.7944 -17.7329,19.7944 0,0 -8.918,-14.002 -11.1155,-21.8826 -3.3848,-12.1387 -3.4591,-25.1234 -2.7989,-37.70795 0.7887,-15.03317 4.4444,-29.81774 8.0389,-44.43655 4.0198,-16.34922 8.8883,-32.55168 15.0882,-48.20468 5.8652,-14.8083 13.8844,-28.6709 20.82,-43.00916 4.4738,-9.24893 13.4143,-27.75111 13.4143,-27.75111 z"
       id="path4175"
       inkscape:connector-curvature="0" />
  </g>
</svg>
