<?xml version="1.0" encoding="UTF-8" standalone="no"?>
<!-- Created with Inkscape (http://www.inkscape.org/) -->
<svg
   xmlns:dc="http://purl.org/dc/elements/1.1/"
   xmlns:cc="http://web.resource.org/cc/"
   xmlns:rdf="http://www.w3.org/1999/02/22-rdf-syntax-ns#"
   xmlns:svg="http://www.w3.org/2000/svg"
   xmlns="http://www.w3.org/2000/svg"
   xmlns:sodipodi="http://sodipodi.sourceforge.net/DTD/sodipodi-0.dtd"
   xmlns:inkscape="http://www.inkscape.org/namespaces/inkscape"
   id="svg2244"
   sodipodi:version="0.32"
   inkscape:version="0.45"
   width="105.96"
   height="57.139999"
   version="1.0"
   sodipodi:docbase="C:\Documents and Settings\Sigurd\Mine dokumenter\Mine bilder"
   sodipodi:docname="Trichet.svg"
   inkscape:output_extension="org.inkscape.output.svg.inkscape"
   sodipodi:modified="true">
  <metadata
     id="metadata2249">
    <rdf:RDF>
      <cc:Work
         rdf:about="">
        <dc:format>image/svg+xml</dc:format>
        <dc:type
           rdf:resource="http://purl.org/dc/dcmitype/StillImage" />
      </cc:Work>
    </rdf:RDF>
  </metadata>
  <defs
     id="defs2247" />
  <sodipodi:namedview
     inkscape:window-height="717"
     inkscape:window-width="1024"
     inkscape:pageshadow="2"
     inkscape:pageopacity="0.0"
     guidetolerance="10.0"
     gridtolerance="10.0"
     objecttolerance="10.0"
     borderopacity="1.0"
     bordercolor="#666666"
     pagecolor="#ffffff"
     id="base"
     inkscape:zoom="1"
     inkscape:cx="59.520861"
     inkscape:cy="54.327731"
     inkscape:window-x="-4"
     inkscape:window-y="-4"
     inkscape:current-layer="svg2244"
     width="105.96px"
     height="57.14px" />
  <path
     style="opacity:1;color:#000000;fill:none;fill-opacity:1;fill-rule:evenodd;stroke:#000000;stroke-width:0.85000002;stroke-linecap:round;stroke-linejoin:miter;marker:none;marker-start:none;marker-mid:none;marker-end:none;stroke-miterlimit:4;stroke-dasharray:none;stroke-dashoffset:0;stroke-opacity:1;visibility:visible;display:inline;overflow:visible;enable-background:accumulate"
     d="M 31.315224,19.28619 C 31.315224,19.28619 22.26576,20.716606 29.093002,13.889364 C 31.250367,11.731999 29.065296,16.115192 26.517158,25.899688 C 25.090259,31.378785 23.190632,37.516375 22.34594,46.405145 C 22.123497,51.136933 22.108875,52.873127 22.108875,55.952856 C 20.020846,51.847818 19.778642,49.359364 16.64726,46.430421 C 13.351607,43.347826 7.1052179,40.373139 2.4263356,38.968729 C 2.3676121,38.955788 4.2478,37.928273 7.5922515,36.853947 C 10.080523,36.054649 13.005363,35.360995 15.458284,34.494853 C 18.411268,33.452135 20.680304,32.302063 20.680304,32.302063"
     id="path2253"
     sodipodi:nodetypes="cssccscssc" />
  <path
     style="opacity:1;color:#000000;fill:none;fill-opacity:1;fill-rule:evenodd;stroke:#000000;stroke-width:0.85000002;stroke-linecap:round;stroke-linejoin:miter;marker:none;marker-start:none;marker-mid:none;marker-end:none;stroke-miterlimit:4;stroke-dasharray:none;stroke-dashoffset:0;stroke-opacity:1;visibility:visible;display:inline;overflow:visible;enable-background:accumulate"
     d="M 40.204113,21.667142 C 40.204113,21.667142 36.518773,25.028866 40.362843,26.746507 C 43.18599,28.00797 45.919605,26.7338 47.452728,25.814077 C 49.172656,24.782291 50.150673,23.238065 49.272977,21.843364 C 48.632493,20.825605 46.92962,19.88747 44.172367,19.28619 C 44.02655,19.254391 49.585487,17.455456 58.344069,14.855847 C 65.844238,12.629744 71.557957,11.549075 83.143095,7.6335357 C 93.874664,4.0064857 103.53745,1.6671417 103.53745,1.6671417"
     id="path3278"
     sodipodi:nodetypes="cssssssc" />
  <path
     style="opacity:1;color:#000000;fill:none;fill-opacity:1;fill-rule:evenodd;stroke:#000000;stroke-width:0.85000002;stroke-linecap:round;stroke-linejoin:miter;marker:none;marker-start:none;marker-mid:none;marker-end:none;stroke-miterlimit:4;stroke-dasharray:none;stroke-dashoffset:0;stroke-opacity:1;visibility:visible;display:inline;overflow:visible;enable-background:accumulate"
     d="M 32.426335,39.44492 C 32.426335,39.44492 36.62521,37.492959 44.247647,34.659458 C 51.787393,31.856696 62.400781,28.508875 74.175946,25.017036 C 81.048556,22.979014 88.316927,20.682614 95.600938,18.968729"
     id="path4249"
     sodipodi:nodetypes="csss" />
  <path
     style="opacity:1;color:#000000;fill:none;fill-opacity:1;fill-rule:evenodd;stroke:#000000;stroke-width:0.85000002;stroke-linecap:round;stroke-linejoin:miter;marker:none;marker-start:none;marker-mid:none;marker-end:none;stroke-miterlimit:4;stroke-dasharray:none;stroke-dashoffset:0;stroke-opacity:1;visibility:visible;display:inline;overflow:visible;enable-background:accumulate"
     d="M 75.759668,16.429047 C 75.759668,16.429047 81.632684,14.683015 84.172367,13.889364 C 86.712049,13.095713 88.934271,12.302062 91.632684,12.143332"
     id="path5220"
     sodipodi:nodetypes="css" />
  <path
     style="opacity:1;color:#000000;fill:none;fill-opacity:1;fill-rule:evenodd;stroke:#000000;stroke-width:0.85000002;stroke-linecap:round;stroke-linejoin:miter;marker:none;marker-start:none;marker-mid:none;marker-end:none;stroke-miterlimit:4;stroke-dasharray:none;stroke-dashoffset:0;stroke-opacity:1;visibility:visible;display:inline;overflow:visible;enable-background:accumulate"
     d="M 67.66443,18.016348 C 67.66443,18.016348 65.442208,19.60365 64.807287,20.238571 C 64.172367,20.873491 62.902526,18.651269 68.616811,19.127459"
     id="path6191"
     sodipodi:nodetypes="css" />
</svg>
