<?xml version="1.0" standalone="no"?>
<!DOCTYPE svg PUBLIC "-//W3C//DTD SVG 20010904//EN"
 "http://www.w3.org/TR/2001/REC-SVG-20010904/DTD/svg10.dtd">
<svg version="1.0" xmlns="http://www.w3.org/2000/svg"
 width="468pt" height="78pt" viewBox="0 0 468 78"
 preserveAspectRatio="xMidYMid meet">
<metadata>
Created by POTRACE VERSION, written by Peter Selinger 2001-2007
</metadata>
<g transform="translate(0,78) scale(0.011700,-0.011700)"
fill="#000000" stroke="none">
<path d="M7545 6265 c-22 -8 -60 -14 -85 -14 -25 -1 -72 -8 -105 -16 -33 -8
-123 -20 -200 -26 -77 -6 -187 -14 -245 -19 -58 -4 -125 -14 -150 -20 -25 -7
-103 -14 -175 -15 -71 -2 -219 -8 -327 -13 -108 -6 -201 -13 -206 -15 -4 -3
-66 -8 -138 -11 -71 -2 -158 -12 -195 -21 -53 -13 -83 -15 -160 -8 -66 7 -112
6 -154 -3 -33 -6 -99 -12 -146 -12 -47 -1 -130 -11 -185 -23 -54 -12 -133 -22
-174 -22 -41 -1 -131 0 -200 2 -118 4 -133 2 -271 -32 -80 -20 -179 -44 -220
-52 -41 -9 -135 -18 -209 -21 -83 -4 -151 -12 -178 -21 -37 -14 -58 -14 -167
-3 -102 10 -146 10 -233 0 -59 -7 -141 -21 -182 -31 -41 -11 -104 -30 -140
-44 -49 -18 -106 -28 -236 -39 -96 -9 -191 -22 -215 -31 -24 -9 -60 -23 -79
-30 -19 -8 -72 -14 -118 -15 -46 0 -93 -5 -105 -11 -12 -6 -31 -19 -42 -29
-15 -13 -44 -19 -115 -23 -59 -3 -142 -17 -218 -36 -67 -17 -147 -41 -178 -52
-42 -16 -70 -20 -109 -16 -37 4 -63 0 -91 -12 -21 -10 -61 -23 -89 -30 -27 -7
-72 -25 -100 -41 -42 -23 -65 -28 -150 -33 l-99 -6 -186 -92 c-147 -73 -193
-101 -225 -135 -35 -38 -48 -46 -100 -55 -33 -6 -75 -19 -95 -29 -19 -10 -61
-42 -92 -72 -54 -50 -58 -57 -58 -99 0 -24 7 -54 15 -65 8 -12 30 -29 49 -38
28 -13 39 -14 61 -4 17 8 37 36 62 87 20 42 46 86 57 99 13 15 31 22 55 22 20
0 71 -12 113 -26 75 -25 80 -25 126 -10 26 9 69 34 95 56 34 28 61 41 95 46
32 5 66 2 108 -10 34 -9 76 -16 93 -16 25 0 43 13 94 64 47 48 73 67 106 76
24 6 119 15 211 20 135 6 176 12 214 29 26 11 61 23 79 26 18 4 61 2 96 -4 44
-7 88 -7 140 0 42 5 84 12 94 15 10 3 39 24 65 46 25 23 61 47 79 54 18 8 48
14 68 14 20 0 67 -7 105 -16 62 -14 77 -14 152 0 46 8 111 18 145 22 47 5 76
15 115 41 29 18 78 41 108 50 47 13 65 14 135 3 l81 -13 78 37 c60 27 92 36
134 36 30 0 76 -8 102 -17 45 -16 51 -16 100 0 29 9 71 17 94 17 22 0 88 6
146 14 58 8 154 20 214 26 61 5 137 18 169 27 48 13 70 14 111 6 45 -10 58 -8
115 13 35 13 76 24 91 24 15 0 47 -7 71 -16 24 -9 71 -16 104 -16 49 -1 73 6
135 36 45 22 89 36 112 36 20 0 62 -9 92 -21 50 -18 69 -20 208 -14 96 4 172
12 203 22 28 9 83 33 123 54 41 22 82 39 93 39 10 0 33 -7 51 -15 18 -8 65
-28 105 -45 63 -27 76 -29 120 -21 26 5 59 14 73 19 14 5 46 12 71 16 25 4 85
2 134 -3 60 -7 119 -7 184 0 53 6 119 17 147 26 45 13 65 14 150 3 55 -7 124
-10 154 -6 30 3 82 8 115 11 49 5 66 2 90 -13 24 -15 35 -33 48 -81 9 -33 27
-71 38 -82 18 -18 29 -20 64 -16 23 4 82 27 131 52 56 29 111 67 147 103 33
31 70 73 82 93 13 20 31 63 41 94 13 46 14 65 5 94 -7 26 -38 62 -107 126 -53
50 -106 95 -118 102 -12 7 -28 12 -36 12 -8 -1 -33 -7 -55 -14z"/>
<path d="M27320 5635 l-95 -34 -195 0 c-107 1 -235 -4 -285 -10 -56 -8 -114
-23 -158 -42 -37 -17 -103 -37 -145 -45 -42 -8 -95 -19 -117 -25 -22 -6 -56
-21 -75 -34 -21 -15 -63 -28 -105 -35 -38 -6 -79 -18 -90 -26 -11 -8 -35 -26
-53 -39 -19 -13 -57 -31 -87 -39 -31 -10 -83 -38 -126 -70 -41 -31 -101 -68
-134 -84 -47 -23 -78 -50 -145 -126 -62 -71 -101 -106 -143 -128 -40 -22 -68
-46 -89 -77 -17 -25 -62 -81 -101 -124 -38 -42 -79 -99 -92 -126 -13 -26 -54
-79 -91 -117 -37 -38 -73 -83 -80 -101 -8 -18 -14 -46 -14 -63 0 -17 -6 -45
-14 -63 -7 -18 -25 -45 -40 -62 -14 -16 -35 -55 -47 -85 -11 -30 -40 -84 -63
-120 -24 -36 -55 -91 -69 -123 -14 -31 -31 -83 -37 -114 -5 -31 -10 -84 -11
-117 0 -34 -6 -93 -13 -131 -9 -52 -10 -92 -2 -148 8 -67 7 -86 -9 -135 -11
-33 -18 -83 -18 -117 1 -33 6 -73 12 -88 6 -16 11 -60 11 -98 0 -38 5 -113 11
-166 6 -52 22 -134 36 -182 14 -47 40 -139 58 -204 21 -79 40 -126 56 -143 13
-14 45 -37 70 -49 37 -19 50 -33 67 -74 12 -27 33 -62 47 -79 15 -17 49 -38
87 -52 45 -16 79 -39 123 -80 33 -32 101 -84 152 -116 51 -33 121 -76 157 -96
36 -21 95 -50 133 -64 41 -16 101 -29 149 -33 69 -6 90 -13 134 -41 45 -29 64
-34 144 -41 50 -5 109 -13 131 -18 22 -6 94 -15 160 -21 86 -8 134 -8 168 -1
38 9 63 8 125 -6 42 -9 88 -16 102 -16 14 1 60 5 103 9 76 7 81 6 195 -39 64
-25 144 -50 177 -55 33 -6 87 -14 120 -18 45 -4 71 -2 100 10 22 9 48 24 59
34 10 9 27 35 37 57 11 23 19 63 19 93 0 31 -10 84 -24 125 -14 40 -42 111
-64 159 -23 50 -49 91 -62 98 -13 7 -38 9 -63 5 -23 -4 -59 -18 -81 -32 -23
-15 -47 -23 -60 -20 -11 3 -41 13 -66 23 -27 10 -73 17 -115 17 -38 0 -95 -7
-127 -17 -54 -16 -59 -16 -140 5 -61 16 -130 24 -258 29 -96 4 -222 15 -280
24 -58 9 -135 21 -172 27 -37 6 -76 8 -86 5 -11 -4 -42 -2 -68 4 -27 6 -94 33
-149 59 -55 27 -124 56 -154 66 -29 10 -77 35 -107 57 -29 22 -74 68 -99 102
-25 34 -65 79 -90 99 -25 21 -54 56 -65 77 -11 21 -42 64 -69 94 -39 45 -54
74 -74 139 -14 45 -29 96 -33 112 -4 17 -8 109 -10 205 -2 160 -1 180 19 228
21 52 21 54 4 115 -10 34 -21 75 -24 90 -4 22 3 41 29 80 20 29 39 58 43 65 4
7 11 44 16 82 5 39 20 92 34 120 14 27 35 75 46 106 12 30 34 71 50 89 16 18
45 68 65 110 19 42 40 103 46 136 9 52 19 70 67 126 31 37 82 94 114 128 31
34 57 67 57 72 0 6 18 34 40 62 22 28 58 60 80 71 21 11 53 37 70 58 17 21 50
49 73 62 23 13 75 50 116 83 41 32 98 70 127 84 29 14 60 36 69 50 9 13 31 31
48 38 18 7 66 16 107 19 44 4 101 18 135 32 33 14 96 38 140 54 44 15 127 50
185 76 99 46 109 49 180 47 58 -2 92 3 147 22 52 18 92 25 150 25 43 0 94 -4
113 -10 19 -5 52 -24 73 -41 23 -19 37 -39 37 -53 0 -14 -14 -34 -37 -53 -21
-16 -53 -38 -71 -47 -22 -11 -62 -18 -114 -20 -74 -2 -83 -5 -105 -30 -12 -15
-23 -34 -23 -43 0 -9 27 -43 60 -75 34 -32 72 -63 86 -68 17 -7 39 -7 66 1 22
6 52 23 67 39 14 16 39 33 54 39 20 8 42 8 75 0 29 -6 59 -22 80 -42 23 -22
42 -31 65 -31 18 0 51 9 73 20 25 13 49 38 69 70 16 28 50 67 75 86 26 20 59
56 76 79 24 36 29 52 28 101 -1 45 -9 74 -37 130 -20 40 -44 99 -52 132 -10
34 -26 68 -41 81 -14 13 -48 28 -75 34 -28 6 -71 11 -98 11 -37 0 -56 7 -91
32 -38 28 -53 33 -109 35 -54 2 -84 -4 -161 -32z"/>
<path d="M38545 5141 c-38 -11 -90 -27 -114 -35 -23 -9 -84 -21 -135 -27 -50
-6 -118 -9 -151 -5 -33 3 -93 17 -134 32 -61 21 -87 25 -140 21 -36 -2 -124
-10 -196 -16 -71 -7 -197 -20 -280 -31 -82 -10 -181 -22 -220 -25 -38 -4 -87
-11 -107 -16 -23 -6 -45 -21 -58 -39 -12 -17 -30 -35 -41 -41 -15 -8 -46 -7
-110 2 -79 11 -94 10 -135 -6 -26 -10 -64 -33 -85 -52 -31 -28 -47 -35 -95
-38 -37 -3 -72 -14 -100 -30 -43 -25 -44 -27 -44 -76 0 -30 -9 -72 -22 -102
-12 -29 -33 -67 -45 -86 -13 -19 -23 -40 -23 -48 0 -9 20 -35 45 -59 30 -30
46 -56 51 -82 4 -20 27 -70 51 -110 25 -40 57 -81 72 -91 14 -10 36 -21 48
-25 15 -5 29 0 47 16 14 13 28 34 31 49 5 19 -3 38 -30 77 -19 29 -38 65 -41
81 -4 20 0 35 18 55 14 16 54 38 103 55 44 16 98 36 120 44 22 9 68 16 102 17
59 0 65 2 113 45 36 32 59 45 81 45 25 0 33 -6 45 -35 7 -19 14 -47 14 -63 0
-16 -7 -49 -15 -72 -8 -23 -15 -66 -15 -94 0 -28 -7 -73 -15 -100 -8 -27 -15
-77 -15 -110 0 -34 -4 -88 -10 -121 -5 -33 -14 -136 -20 -229 -6 -93 -17 -200
-25 -237 -10 -49 -12 -104 -8 -187 4 -94 1 -137 -15 -222 -17 -84 -21 -149
-22 -330 -2 -170 1 -234 11 -260 8 -19 29 -61 48 -93 21 -36 71 -93 132 -150
54 -50 109 -97 121 -104 13 -7 39 -17 59 -23 25 -7 45 -7 66 0 19 7 38 26 53
53 13 23 42 67 66 97 23 31 49 62 58 69 9 8 16 28 16 47 0 20 -15 64 -37 104
-34 65 -35 73 -25 109 7 21 12 48 12 60 0 12 -9 40 -21 63 -11 22 -23 64 -26
92 -4 37 1 72 17 126 14 46 23 102 23 145 0 39 -3 109 -8 157 -7 80 -6 89 15
123 21 35 22 39 9 116 -11 68 -11 98 1 187 8 59 15 191 17 294 1 156 5 192 19
220 13 24 18 59 20 129 0 52 7 111 13 132 7 20 29 50 48 68 37 32 37 32 119
25 59 -4 99 -2 141 9 31 8 62 15 69 15 6 0 28 -13 49 -30 24 -19 49 -30 69
-30 17 0 58 11 91 25 33 13 69 25 80 25 10 0 38 -19 61 -41 36 -35 51 -43 94
-47 45 -4 57 -1 103 29 51 32 56 33 183 39 101 4 136 9 157 23 15 9 45 40 67
68 22 28 43 62 46 76 4 13 4 55 1 91 -3 37 -13 92 -22 122 -11 35 -29 66 -52
88 -19 18 -48 39 -64 47 -20 11 -72 17 -166 20 -116 5 -149 2 -208 -14z"/>
<path d="M3824 5044 l-27 -45 13 -142 c6 -78 14 -193 16 -255 2 -62 6 -118 10
-124 4 -6 10 -128 15 -272 5 -195 11 -273 23 -310 9 -27 16 -72 16 -101 0 -30
-11 -82 -26 -126 -24 -68 -27 -92 -34 -299 -4 -124 -14 -272 -23 -330 -8 -58
-20 -151 -27 -207 -12 -95 -12 -109 8 -190 11 -49 24 -103 27 -121 4 -18 -1
-72 -11 -123 -16 -85 -16 -97 0 -197 9 -59 19 -128 22 -153 4 -31 1 -63 -10
-95 -14 -44 -14 -58 -1 -139 8 -49 12 -111 9 -137 -4 -25 -1 -68 5 -95 7 -27
27 -68 46 -91 20 -26 36 -59 40 -85 3 -23 11 -57 16 -74 6 -18 20 -40 32 -48
12 -8 42 -15 67 -15 28 0 58 8 80 21 21 13 63 25 107 30 39 4 81 14 92 21 12
7 30 31 41 54 13 25 20 61 20 96 0 49 -4 61 -35 98 -24 28 -43 70 -61 128 -15
48 -39 112 -54 142 -19 39 -32 91 -45 180 -10 69 -18 165 -17 213 1 50 -5 123
-14 165 -13 59 -15 106 -10 199 5 89 11 133 26 165 16 36 20 65 20 177 0 74
-5 163 -11 197 -9 50 -8 85 4 166 9 57 19 130 23 163 4 33 9 141 11 240 2 99
5 212 6 250 0 39 -4 134 -11 212 -9 123 -9 150 5 195 11 40 13 71 8 123 -4 39
-8 102 -9 140 0 39 3 99 8 135 5 42 4 79 -3 106 -6 22 -26 56 -44 75 -23 23
-71 50 -148 82 -63 26 -126 47 -141 47 -22 0 -33 -9 -54 -46z"/>
<path d="M32549 4642 c-15 -9 -38 -31 -52 -48 -15 -17 -31 -53 -37 -80 -6 -27
-12 -123 -13 -214 l-2 -165 37 -105 c22 -64 39 -135 43 -180 3 -41 17 -115 31
-163 14 -48 29 -122 34 -164 6 -42 19 -122 29 -177 17 -87 20 -154 22 -496 2
-243 -2 -458 -10 -560 -7 -91 -23 -223 -37 -295 -23 -121 -25 -145 -20 -350 4
-157 10 -240 23 -290 13 -55 17 -121 17 -310 1 -231 2 -243 28 -325 15 -47 34
-111 43 -142 9 -33 29 -73 46 -92 16 -19 49 -44 73 -55 23 -12 58 -21 77 -21
19 0 52 9 75 19 31 14 47 30 63 63 11 24 21 56 21 71 0 15 9 60 20 99 12 43
20 103 20 148 0 47 -9 113 -25 175 -14 55 -30 143 -36 195 -5 52 -14 111 -19
130 -6 21 -6 146 -1 312 5 176 5 296 -1 330 -6 29 -8 107 -5 173 3 91 10 136
28 188 l23 68 -19 92 c-10 51 -18 125 -17 165 1 40 11 147 22 238 11 92 23
170 25 175 3 4 17 74 30 156 20 116 32 163 60 220 19 39 35 78 35 85 0 7 5 30
11 51 5 21 23 52 38 70 16 17 42 59 59 92 16 33 38 67 48 76 11 9 35 19 55 23
20 4 52 18 70 31 19 14 48 32 66 40 18 8 52 15 77 15 25 0 56 -4 70 -10 14 -5
45 -27 68 -48 24 -21 71 -54 106 -72 41 -22 69 -44 79 -63 12 -23 14 -46 8
-101 -3 -39 -7 -134 -8 -211 -2 -127 -5 -146 -29 -205 -15 -36 -34 -90 -42
-120 -9 -30 -19 -60 -23 -66 -5 -6 -34 -28 -67 -50 -32 -21 -77 -51 -100 -67
-40 -27 -44 -27 -162 -25 l-122 3 -73 -50 c-41 -27 -80 -62 -86 -76 -7 -15
-16 -47 -19 -72 -4 -25 -3 -66 0 -92 5 -30 18 -58 38 -81 17 -19 52 -47 77
-62 25 -14 71 -45 101 -68 30 -23 73 -48 95 -54 22 -6 56 -10 75 -8 27 2 39
11 57 38 12 19 30 45 40 58 11 14 41 29 77 38 32 8 87 29 122 45 52 25 72 42
117 102 30 40 71 104 90 142 19 39 51 102 71 140 23 45 50 125 75 225 28 112
41 190 47 280 4 69 8 152 9 185 0 51 -5 67 -32 108 -17 26 -36 69 -42 95 -5
26 -13 63 -17 82 -5 27 -37 66 -148 178 -105 106 -158 152 -206 178 -36 19
-92 41 -125 49 -33 8 -98 15 -145 15 -78 0 -89 -3 -129 -30 -24 -17 -60 -34
-80 -40 -20 -5 -46 -17 -59 -26 -13 -9 -39 -51 -58 -93 -22 -47 -53 -94 -81
-123 -26 -26 -60 -73 -77 -104 -17 -32 -44 -67 -59 -78 -26 -19 -30 -19 -55
-5 -15 8 -33 26 -39 41 -7 14 -20 60 -28 103 -8 43 -27 101 -41 129 -19 37
-28 71 -32 121 -3 58 0 80 17 117 11 26 21 55 21 65 0 10 -18 61 -39 113 -21
52 -53 112 -71 133 -18 22 -48 46 -66 53 -18 8 -55 14 -81 14 -29 0 -58 -7
-74 -18z"/>
<path d="M39162 3735 c-56 -18 -121 -45 -143 -60 -22 -16 -53 -47 -69 -69 -17
-23 -54 -57 -83 -76 -43 -30 -61 -51 -104 -129 -40 -73 -55 -113 -68 -185 -10
-50 -30 -131 -45 -181 -16 -49 -33 -128 -40 -175 -6 -46 -18 -96 -25 -111 -9
-16 -32 -34 -57 -44 -28 -11 -70 -17 -119 -17 -41 0 -94 5 -117 11 -27 8 -50
23 -67 45 -14 19 -44 41 -66 50 -22 9 -62 32 -90 51 -36 24 -62 35 -88 35 -20
0 -53 -5 -74 -11 -20 -5 -46 -19 -56 -30 -12 -13 -23 -48 -30 -95 -8 -52 -8
-81 -1 -94 6 -11 19 -24 30 -30 10 -5 48 -10 84 -10 54 0 77 -6 141 -37 57
-27 88 -50 122 -89 32 -38 55 -55 78 -60 19 -3 55 -1 82 6 26 7 69 14 94 17
25 3 64 0 87 -7 24 -6 48 -20 56 -33 8 -12 16 -64 20 -119 4 -81 10 -107 35
-155 16 -32 46 -74 66 -93 20 -19 47 -58 60 -87 13 -28 33 -57 45 -63 13 -7
38 -10 59 -6 25 4 48 -1 78 -15 23 -11 57 -40 77 -64 20 -24 59 -55 88 -69 32
-16 69 -26 95 -26 24 0 58 6 76 14 18 7 43 25 56 40 21 22 26 41 31 109 4 45
17 118 28 163 12 45 29 98 38 119 10 25 13 50 9 74 -4 19 -13 47 -20 61 -7 14
-25 31 -40 38 -14 7 -41 12 -59 12 -19 0 -39 -6 -45 -14 -6 -7 -20 -39 -31
-71 -11 -32 -25 -64 -31 -71 -6 -8 -21 -14 -33 -14 -12 0 -39 14 -60 32 -21
17 -47 50 -57 72 -10 23 -19 64 -19 91 0 28 9 69 19 91 13 29 47 65 108 115
49 41 117 95 151 121 46 36 69 63 92 108 20 40 56 85 105 132 41 39 93 97 115
129 22 32 44 78 50 101 5 24 10 75 10 114 0 57 -5 79 -25 115 -13 24 -38 70
-54 101 -21 39 -49 70 -90 102 -32 25 -73 63 -90 85 -17 22 -55 51 -83 65 -29
14 -63 26 -77 25 -15 0 -72 -15 -129 -34z m106 -481 c12 -8 22 -24 22 -35 0
-11 -13 -45 -29 -77 -17 -34 -40 -64 -57 -72 -15 -8 -33 -29 -41 -47 -7 -18
-13 -41 -13 -52 0 -10 -9 -29 -20 -42 -20 -24 -20 -24 -36 -4 -13 16 -15 34
-10 90 4 46 17 94 38 140 17 38 42 80 55 93 13 12 34 22 46 22 13 0 33 -7 45
-16z"/>
<path d="M7300 3632 c-23 -11 -45 -35 -63 -67 -17 -30 -26 -60 -23 -75 2 -14
16 -56 30 -94 21 -55 29 -98 37 -210 5 -78 17 -177 25 -221 9 -44 25 -108 35
-141 16 -50 20 -103 23 -280 2 -121 0 -246 -5 -279 -6 -38 -5 -107 2 -190 11
-119 10 -139 -9 -235 -12 -58 -26 -145 -31 -195 -6 -49 -11 -114 -11 -144 0
-29 8 -75 17 -102 16 -45 16 -50 0 -84 -9 -20 -17 -43 -17 -53 0 -9 16 -44 36
-77 20 -33 48 -73 62 -88 15 -16 39 -35 54 -43 15 -8 36 -14 48 -14 11 0 38 9
59 19 21 11 52 36 69 55 16 19 38 61 48 93 9 32 20 108 24 168 6 95 11 120 40
183 l33 72 -27 118 c-15 64 -34 137 -42 162 -9 25 -18 58 -21 73 -4 19 2 45
17 73 12 26 19 52 15 62 -4 9 -11 67 -16 127 -6 61 -13 136 -16 168 -5 50 -2
62 20 96 14 21 33 64 42 94 15 51 15 61 1 108 -9 29 -16 71 -16 94 0 28 6 47
18 58 10 10 42 24 70 32 37 11 60 27 86 56 19 23 58 61 86 85 35 30 61 44 80
44 16 0 58 -15 94 -34 37 -19 90 -42 119 -50 29 -8 64 -27 77 -42 14 -14 41
-34 61 -45 21 -10 47 -35 60 -56 12 -21 42 -57 65 -80 29 -28 48 -58 58 -92 8
-28 21 -95 27 -149 l12 -97 -44 -100 c-39 -87 -50 -103 -84 -122 -22 -13 -55
-23 -72 -23 -28 0 -40 9 -82 63 -27 34 -62 72 -78 83 -16 12 -48 31 -73 44
-31 16 -54 21 -80 17 -21 -3 -65 -17 -99 -32 -34 -16 -71 -39 -82 -53 -12 -16
-19 -40 -19 -69 0 -24 6 -58 14 -76 7 -18 38 -60 68 -92 31 -33 68 -85 83
-115 15 -30 37 -68 49 -85 12 -16 36 -59 54 -95 23 -49 63 -98 161 -199 92
-97 132 -146 140 -173 7 -21 25 -67 40 -102 20 -43 42 -74 71 -97 23 -19 51
-52 62 -74 11 -22 41 -70 66 -107 32 -49 57 -74 87 -88 23 -11 55 -20 72 -20
17 0 50 7 73 15 24 8 63 31 87 51 24 20 50 49 58 64 9 18 15 57 15 100 0 40
-6 86 -15 106 -8 20 -28 52 -45 70 -16 19 -30 39 -30 45 0 6 -61 72 -137 146
-75 74 -160 151 -190 170 -30 19 -63 49 -74 66 -10 18 -19 44 -19 59 0 19 10
34 33 52 17 13 52 30 77 36 25 7 57 18 72 26 18 9 40 41 67 95 23 45 41 96 41
113 0 18 16 79 35 136 19 57 38 125 41 152 6 42 2 59 -26 120 -31 66 -32 75
-26 145 l6 74 -42 45 c-32 35 -43 56 -49 97 -5 30 -20 69 -37 92 -15 22 -51
57 -79 78 -34 26 -61 58 -83 98 -20 38 -46 69 -71 86 -29 19 -51 25 -91 25
-29 0 -76 9 -105 20 -28 10 -82 42 -120 70 -37 28 -82 57 -100 64 -18 8 -54
14 -80 14 -26 0 -81 -11 -122 -25 -40 -14 -101 -42 -135 -62 -33 -20 -75 -50
-92 -65 -17 -16 -46 -33 -65 -38 -19 -6 -46 -8 -62 -4 -15 3 -32 14 -37 24 -6
10 -10 41 -10 68 0 27 7 69 15 92 8 24 13 51 10 60 -3 10 -32 42 -64 73 -36
34 -72 59 -97 66 -21 6 -52 11 -69 11 -16 0 -46 -8 -65 -18z"/>
<path d="M29855 3423 c-27 -8 -75 -16 -105 -18 -30 -2 -72 -4 -92 -4 -34 -1
-50 -13 -150 -106 -62 -57 -122 -118 -133 -135 -11 -17 -50 -55 -86 -85 -44
-36 -85 -83 -126 -144 -52 -78 -63 -102 -78 -178 -10 -48 -27 -112 -37 -142
-15 -47 -17 -75 -12 -195 3 -78 10 -163 16 -191 6 -27 19 -66 29 -86 10 -20
36 -51 59 -69 22 -17 52 -52 66 -76 14 -24 52 -68 84 -98 38 -34 80 -62 115
-75 37 -14 79 -21 125 -21 46 0 96 9 152 26 46 14 113 43 149 64 36 21 107 50
159 65 52 15 119 41 149 59 44 24 61 42 79 79 16 33 33 52 62 67 21 11 49 20
60 20 11 0 42 -11 68 -24 26 -13 66 -29 88 -35 23 -6 63 -28 89 -49 26 -20 65
-54 86 -74 28 -26 52 -39 82 -43 23 -3 119 -7 212 -9 94 -2 200 -9 237 -16 61
-11 71 -10 100 7 19 10 43 38 56 63 12 24 22 56 22 70 0 15 -10 36 -22 47 -13
12 -39 28 -59 36 -20 8 -55 38 -79 66 -24 28 -58 60 -75 71 -18 11 -70 28
-116 39 -46 11 -111 23 -144 26 -33 4 -97 23 -141 42 -72 30 -88 42 -128 93
-25 33 -64 72 -86 86 -23 15 -50 45 -61 66 -11 21 -34 47 -51 58 -17 10 -54
24 -82 30 -28 7 -74 23 -102 37 -46 22 -57 23 -93 13 -23 -6 -57 -25 -76 -41
-24 -22 -40 -48 -51 -85 -8 -29 -15 -71 -16 -92 0 -22 3 -49 7 -61 4 -15 -2
-36 -21 -69 -15 -26 -36 -58 -48 -70 -11 -13 -38 -32 -58 -43 -20 -10 -43 -28
-51 -40 -8 -11 -32 -27 -54 -34 -21 -8 -78 -14 -126 -15 -53 0 -100 5 -120 14
-18 7 -51 33 -74 57 -23 24 -47 57 -52 72 -6 16 -8 47 -5 70 4 23 14 56 22 72
9 17 16 58 17 92 1 58 4 64 52 120 27 32 62 77 77 101 21 34 41 50 89 72 34
15 79 46 101 68 l38 40 72 -5 c39 -3 83 0 98 5 15 6 45 36 68 66 35 48 45 56
73 56 18 -1 50 -8 72 -16 22 -9 63 -21 90 -26 28 -6 61 -12 74 -15 13 -2 49
-28 80 -57 31 -29 67 -60 81 -69 13 -9 40 -17 60 -17 19 0 49 9 67 20 17 10
37 29 44 41 6 13 11 46 11 75 0 29 -6 63 -13 75 -6 13 -26 37 -43 54 -17 17
-47 53 -66 80 -19 27 -64 71 -99 97 -35 26 -79 52 -97 57 -22 6 -57 6 -97 0
-34 -6 -82 -13 -107 -16 -25 -3 -80 2 -122 11 -42 9 -90 16 -105 15 -15 0 -50
-7 -78 -16z"/>
<path d="M35490 3277 c-52 -25 -79 -31 -137 -33 -64 -1 -77 -5 -107 -30 -19
-16 -46 -37 -61 -48 -15 -10 -38 -43 -51 -72 -13 -30 -35 -73 -50 -95 -14 -23
-32 -59 -40 -81 -8 -22 -18 -67 -24 -100 -7 -48 -5 -79 12 -161 11 -56 28
-118 38 -137 10 -19 43 -64 73 -100 40 -49 64 -69 94 -78 21 -6 47 -20 57 -29
10 -10 30 -40 44 -68 15 -27 42 -60 61 -72 19 -13 49 -23 69 -23 20 0 50 5 68
12 26 9 40 8 77 -6 24 -9 67 -19 94 -23 38 -4 61 -1 95 15 26 11 51 28 56 39
6 10 13 36 17 58 4 22 18 59 31 83 13 24 26 59 30 78 3 18 0 63 -7 99 -12 62
-12 66 9 93 13 15 34 50 47 77 14 28 25 57 25 66 0 9 -16 40 -35 68 -29 41
-39 72 -56 159 -12 59 -28 119 -37 134 -9 16 -39 39 -69 53 -30 14 -57 25 -62
25 -5 0 -26 16 -47 36 -22 20 -58 49 -81 65 -23 16 -48 29 -55 28 -7 0 -42
-15 -78 -32z m155 -339 c15 -7 33 -24 41 -39 8 -16 14 -45 14 -66 0 -21 -9
-70 -19 -108 -14 -51 -28 -77 -50 -97 -24 -22 -41 -28 -76 -28 -25 0 -61 7
-81 15 -24 10 -39 25 -51 52 -11 26 -14 56 -10 99 2 33 11 72 18 87 8 15 39
42 69 62 33 20 68 35 87 35 18 0 44 -5 58 -12z"/>
<path d="M9522 2413 c-18 -9 -44 -30 -56 -47 -13 -17 -29 -49 -37 -71 -7 -24
-14 -98 -15 -185 -1 -80 -6 -159 -12 -177 -7 -22 -7 -43 0 -67 6 -19 28 -56
49 -81 21 -25 47 -74 59 -110 12 -35 30 -75 41 -89 11 -14 29 -51 39 -82 11
-31 25 -64 32 -72 7 -8 31 -26 53 -40 22 -14 66 -50 98 -81 32 -30 74 -81 93
-113 23 -37 55 -72 92 -98 30 -22 77 -47 103 -54 26 -8 58 -20 71 -26 13 -7
34 -22 47 -34 13 -11 38 -45 57 -74 20 -30 46 -57 62 -63 15 -6 38 -8 52 -5
14 2 54 -2 90 -9 36 -8 84 -14 108 -15 24 0 57 -8 75 -17 18 -9 64 -20 102
-23 39 -4 106 -17 150 -29 44 -12 107 -24 141 -28 59 -5 62 -5 94 28 22 23 50
78 86 166 30 73 65 171 79 219 14 47 25 106 25 130 0 25 -9 72 -21 106 -11 34
-33 87 -49 117 -23 45 -30 75 -36 151 -3 52 -13 110 -20 128 -8 19 -27 50 -42
70 -16 21 -54 86 -86 146 -50 96 -56 115 -54 161 1 32 -3 59 -11 69 -7 8 -40
29 -74 46 -33 16 -71 30 -84 30 -13 0 -38 -6 -57 -14 -18 -7 -43 -26 -55 -42
-20 -26 -21 -35 -16 -123 4 -53 13 -123 21 -156 8 -33 25 -76 39 -96 13 -20
30 -60 39 -89 9 -30 16 -68 16 -86 0 -17 7 -50 15 -74 8 -23 29 -60 46 -82 18
-22 37 -56 43 -76 7 -21 11 -95 11 -167 -1 -127 -1 -130 -25 -142 -14 -7 -61
-13 -105 -14 -44 -1 -114 -2 -155 -2 -41 1 -102 8 -135 16 -33 9 -99 30 -147
49 -54 21 -101 47 -127 70 -22 21 -52 56 -66 78 -14 23 -41 50 -60 61 -18 11
-54 45 -79 76 -25 30 -46 61 -46 67 0 7 -15 30 -33 52 -19 21 -49 64 -69 94
-19 30 -43 61 -52 69 -10 8 -31 40 -47 70 -16 31 -59 101 -95 156 -54 83 -65
105 -60 131 2 18 23 61 45 97 27 42 41 76 41 98 0 19 -9 49 -20 67 -11 18 -32
37 -46 42 -14 6 -40 10 -57 10 -18 0 -47 -8 -65 -17z"/>
<path d="M12044 2321 c-11 -5 -58 -34 -105 -64 -46 -30 -105 -73 -130 -96 -26
-22 -65 -71 -87 -108 -22 -37 -45 -86 -51 -108 -6 -23 -12 -86 -13 -140 -2
-75 2 -116 16 -165 12 -39 17 -76 13 -92 -4 -15 -26 -48 -48 -74 -37 -43 -41
-52 -36 -88 3 -22 14 -46 24 -53 9 -8 33 -18 53 -23 20 -5 43 -15 53 -22 10
-7 24 -38 32 -68 11 -41 25 -65 54 -92 22 -21 50 -38 62 -38 12 0 42 11 65 25
24 14 49 35 55 47 6 11 15 34 20 51 5 17 6 41 3 53 -3 13 -36 48 -73 79 -36
31 -76 65 -88 76 -11 10 -26 41 -33 68 -9 38 -9 63 0 105 6 30 28 80 49 113
20 32 57 96 82 142 24 46 62 104 85 129 38 43 44 46 100 50 l59 4 63 -72 c50
-56 81 -80 145 -113 45 -23 113 -54 151 -70 40 -16 92 -49 126 -78 37 -32 65
-66 75 -92 10 -23 21 -70 25 -105 6 -49 15 -70 39 -97 17 -20 32 -43 32 -53 1
-9 1 -57 0 -107 l-3 -90 66 -137 c52 -109 71 -140 95 -153 17 -8 41 -15 55
-15 16 0 42 15 68 39 24 22 67 62 97 88 30 26 60 62 67 80 8 18 14 68 14 113
0 50 6 95 16 118 12 30 14 60 8 158 -5 89 -3 127 6 145 7 13 38 55 68 93 36
43 72 76 99 89 43 21 43 21 62 2 11 -11 40 -59 65 -107 43 -82 46 -93 46 -166
0 -70 3 -83 31 -127 19 -29 48 -108 75 -204 25 -86 56 -175 69 -197 14 -24 39
-48 59 -58 19 -9 59 -16 90 -16 37 0 71 7 96 20 22 11 40 21 40 23 0 1 14 35
30 76 17 41 46 94 66 117 19 24 43 46 54 49 10 3 32 -1 47 -9 15 -8 38 -25 50
-38 12 -12 41 -57 64 -98 23 -41 67 -122 96 -180 30 -58 65 -124 79 -146 15
-27 35 -46 55 -53 18 -6 50 -11 73 -11 23 0 55 9 73 20 18 11 48 41 67 68 19
26 53 62 75 80 33 26 41 40 47 78 4 26 2 62 -5 83 -6 23 -21 43 -36 51 -14 8
-51 43 -82 79 -31 37 -65 86 -76 111 -10 25 -34 61 -53 80 -19 20 -49 59 -66
87 -18 28 -53 78 -78 112 -25 33 -58 79 -73 101 -18 27 -44 49 -74 62 -25 11
-74 24 -107 28 -34 5 -82 18 -109 30 -39 18 -53 19 -85 11 -20 -6 -60 -11 -89
-11 -44 0 -55 4 -72 26 -16 21 -21 41 -21 90 0 35 -5 73 -10 86 -6 13 -26 33
-45 45 -19 13 -42 35 -52 50 -9 16 -37 52 -62 82 -25 29 -59 60 -75 67 -17 7
-65 36 -106 64 -65 43 -81 50 -125 50 -37 0 -63 -8 -100 -29 -27 -16 -77 -52
-110 -80 -33 -28 -65 -61 -71 -74 -7 -12 -15 -42 -19 -66 -4 -24 -16 -52 -27
-63 -17 -17 -28 -19 -77 -13 -31 3 -73 11 -94 16 -21 6 -44 20 -54 35 -9 14
-28 31 -43 39 -16 8 -46 17 -69 21 -24 4 -56 19 -78 38 -21 18 -72 51 -113 74
-41 22 -111 50 -155 61 -44 11 -116 23 -160 26 -51 5 -99 16 -134 31 -29 13
-77 26 -105 29 -28 3 -60 1 -72 -4z"/>
<path d="M15668 2277 c-20 -8 -56 -26 -81 -40 -24 -14 -75 -35 -114 -45 -38
-11 -84 -27 -101 -36 -17 -9 -41 -30 -53 -48 -13 -18 -37 -50 -55 -71 -20 -24
-38 -62 -48 -100 -8 -34 -24 -96 -35 -137 -10 -41 -28 -100 -40 -130 -16 -44
-20 -79 -21 -177 0 -67 5 -134 11 -150 6 -15 19 -37 30 -49 10 -11 30 -48 43
-82 13 -33 39 -80 57 -103 19 -23 66 -65 104 -93 39 -29 82 -57 98 -64 15 -6
73 -24 128 -38 62 -16 111 -23 128 -19 14 3 67 10 116 15 50 4 108 12 129 18
24 7 57 7 83 3 35 -7 55 -20 103 -69 33 -34 73 -88 90 -122 17 -33 47 -79 68
-102 20 -23 60 -52 87 -64 37 -18 68 -24 117 -24 61 0 71 3 100 29 31 28 33
33 36 109 4 69 1 88 -21 135 -14 30 -40 72 -59 93 -20 22 -43 53 -51 70 -9 18
-34 46 -56 63 -23 18 -45 47 -52 68 -7 24 -9 63 -4 117 3 44 6 96 6 114 0 17
-1 58 -3 90 -1 37 4 67 14 88 9 16 37 43 61 58 25 16 50 40 56 53 6 13 11 38
11 56 0 18 -7 61 -15 97 -8 36 -17 86 -20 112 -5 36 -15 57 -48 94 -23 26 -63
64 -90 85 -27 22 -73 46 -105 55 -32 9 -83 29 -114 45 -50 25 -69 29 -145 29
-80 0 -94 3 -158 35 -38 19 -88 37 -110 40 -23 3 -56 -1 -77 -8z m265 -381
c18 -7 63 -16 99 -20 37 -4 72 -14 78 -21 8 -10 8 -19 1 -34 -6 -11 -31 -32
-54 -45 -23 -14 -55 -38 -69 -53 -15 -15 -32 -41 -38 -57 -8 -23 -7 -40 5 -77
15 -45 15 -51 -3 -92 -11 -24 -36 -57 -57 -73 -20 -16 -55 -43 -77 -61 -21
-18 -55 -35 -75 -39 -28 -5 -47 -2 -80 16 -24 13 -57 38 -73 57 -17 19 -41 56
-55 83 -14 27 -25 57 -25 66 0 9 16 51 35 94 32 70 34 83 29 137 -5 49 -3 62
11 77 14 14 26 16 59 9 22 -4 57 -7 76 -6 19 0 57 13 84 27 27 14 60 26 73 26
13 0 38 -6 56 -14z"/>
<path d="M17215 2169 c-23 -6 -56 -25 -78 -47 -21 -20 -46 -50 -57 -67 -10
-16 -23 -54 -29 -83 -6 -29 -22 -69 -36 -90 -23 -35 -26 -50 -28 -148 -2 -105
-3 -112 -35 -162 -19 -28 -36 -69 -39 -89 -4 -33 1 -46 37 -93 23 -30 47 -58
54 -62 6 -4 32 -8 57 -8 25 0 53 6 62 13 15 10 18 39 21 217 3 137 8 218 17
245 8 23 21 41 31 43 11 2 41 -18 74 -50 32 -30 67 -75 80 -103 19 -40 24 -67
24 -140 1 -54 7 -106 16 -130 8 -22 24 -69 36 -105 11 -36 33 -91 49 -122 16
-32 29 -65 29 -75 0 -10 11 -41 24 -69 16 -34 40 -64 71 -88 27 -20 59 -36 72
-36 14 0 43 11 66 24 23 13 60 29 82 36 22 7 50 20 63 28 13 8 37 36 54 61 17
25 40 54 52 63 12 10 34 18 49 18 19 0 39 -11 59 -30 l30 -30 -4 -107 -3 -107
65 -49 c36 -27 96 -76 133 -109 38 -34 85 -67 105 -74 20 -7 51 -13 69 -14 18
0 57 11 87 24 39 17 60 34 72 58 12 21 18 54 18 93 -1 35 -12 93 -27 140 -14
44 -37 112 -51 150 -17 48 -36 79 -58 97 -18 15 -59 53 -90 85 -38 39 -63 74
-73 105 -9 26 -28 57 -41 67 -14 11 -49 27 -77 37 -29 9 -77 32 -109 51 -31
19 -73 39 -95 44 -21 5 -54 9 -74 9 -20 0 -53 -7 -74 -15 -25 -11 -51 -14 -83
-9 -41 6 -55 14 -110 73 -38 40 -66 80 -71 101 -5 19 -12 64 -16 100 -5 48
-14 76 -34 105 -16 22 -32 51 -36 64 -4 14 -31 49 -59 79 -28 30 -65 61 -81
68 -17 7 -58 15 -90 18 -33 3 -78 1 -100 -5z"/>
</g>
</svg>
