<?xml version="1.0" encoding="UTF-8" standalone="no"?>
<!-- Created with Inkscape (http://www.inkscape.org/) -->

<svg
   xmlns:dc="http://purl.org/dc/elements/1.1/"
   xmlns:cc="http://creativecommons.org/ns#"
   xmlns:rdf="http://www.w3.org/1999/02/22-rdf-syntax-ns#"
   xmlns:svg="http://www.w3.org/2000/svg"
   xmlns="http://www.w3.org/2000/svg"
   version="1.1"
   width="1920"
   height="576"
   id="svg2">
  <defs
     id="defs4" />
  <metadata
     id="metadata7">
    <rdf:RDF>
      <cc:Work
         rdf:about="">
        <dc:format>image/svg+xml</dc:format>
        <dc:type
           rdf:resource="http://purl.org/dc/dcmitype/StillImage" />
        <dc:title></dc:title>
      </cc:Work>
    </rdf:RDF>
  </metadata>
  <g
     transform="translate(0,-476.36218)"
     id="layer1">
    <path
       d="m 527.1696,1039.6646 c -4.77855,-7.7318 0.72257,-14.0579 12.22401,-14.0579 11.50186,0 31.42732,-10.515 44.27901,-23.3666 14.43236,-14.43241 26.91025,-17.94757 32.63433,-9.19346 5.09724,7.79526 28.24575,19.03516 51.44121,24.97746 37.99108,9.7328 39.38519,11.9406 14.05786,22.2633 -40.26128,16.409 -144.36926,15.9898 -154.63642,-0.6228 z m 214.38231,-9.3102 c 9.66477,-3.8998 25.47986,-3.8998 35.14464,0 9.66477,3.8997 1.75723,7.0905 -17.57232,7.0905 -19.32956,0 -27.2371,-3.1908 -17.57232,-7.0905 z m 133.84245,-27.2988 c 4.67129,-4.67134 16.79628,-5.17067 26.94428,-1.1092 11.2144,4.4877 7.8834,7.8188 -8.4933,8.4933 -14.81927,0.6101 -23.12226,-2.7122 -18.45098,-7.3834 z M 22.09094,975.40009 C 9.94087,963.25017 0,932.862 0,907.87107 0,855.70012 57.40258,732.35382 99.347147,694.39451 117.79176,677.70236 110.34236,697.62079 78.140587,751.09716 -0.49765,881.68888 -2.18319,972.94067 73.772957,987.5659 c 31.361953,6.03869 31.371653,6.11432 1.03466,8.01073 C 57.96321,996.62956 34.24058,987.55015 22.09066,975.40009 z m 937.6506,13.5976 c 4.67116,-4.67128 16.79626,-5.17062 26.94416,-1.10916 11.2144,4.48769 7.8834,7.81884 -8.4933,8.49333 -14.81916,0.61011 -23.12216,-2.71218 -18.45086,-7.38347 z m 112.46276,-28.11571 c 4.6713,-4.67129 16.7963,-5.17062 26.9443,-1.10917 11.2144,4.48769 7.8833,7.81884 -8.4934,8.49334 -14.8192,0.61011 -23.1222,-2.71218 -18.4509,-7.38347 z m 70.2893,-14.05786 c 4.6713,-4.67128 16.7963,-5.17062 26.9443,-1.10916 11.2143,4.48769 7.8833,7.81884 -8.4934,8.49333 -14.8192,0.61011 -23.1222,-2.71218 -18.4509,-7.38346 z M 190.85817,916.65835 c 5.92075,-23.86728 1.57617,-31.90261 -17.70207,-32.74004 -14.71985,-0.63963 -18.11088,-4.11164 -8.00047,-8.19236 10.87206,-4.38801 14.29459,-20.04565 8.99618,-41.15606 -10.77633,-42.93648 5.29236,-132.29384 23.78983,-132.29384 8.96245,0 8.73569,9.67841 -0.63682,27.19155 -16.26958,30.39983 -19.86698,113.38701 -4.91519,113.38701 5.30052,0 24.00126,-13.49414 41.55713,-29.98709 l 31.91977,-29.9871 -14.15443,51.26282 c -7.78482,28.19443 -10.2971,57.5038 -5.5828,65.13159 4.7143,7.62808 -3.92664,13.86906 -19.20233,13.86906 -15.27569,0 -31.40567,7.90754 -35.84458,17.57232 -4.43877,9.66478 -4.5397,3.33874 -0.22352,-14.05786 z m 1039.20423,10.5434 c 15.4636,-6.64501 40.7677,-11.89576 56.2314,-11.66845 22.6019,0.33177 21.2236,2.62039 -7.0289,11.66845 -48.0662,15.39349 -85.0252,15.39349 -49.2025,0 z M 319.81622,916.90858 c 32.86024,-2.95974 86.63154,-2.95974 119.49178,0 32.86024,2.9596 5.97459,5.38121 -59.74589,5.38121 -65.72047,0 -92.60612,-2.42161 -59.74589,-5.38121 z m 275.40774,-33.17963 c 52.89367,-15.07986 115.16027,-37.23813 138.3705,-49.24059 23.21022,-12.00246 45.45931,-18.56368 49.44246,-14.58067 14.23245,14.2326 -213.51044,94.43042 -261.93328,92.23767 -12.12744,-0.54966 21.2268,-13.33655 74.12032,-28.41641 z m 803.04544,7.75544 c 38.3912,-10.53004 72.1961,-16.75162 75.1219,-13.82562 7.0288,7.02865 -96.8004,35.66084 -123.8372,34.14976 -11.5977,-0.64806 10.3241,-9.7941 48.7153,-20.32414 z M 787.23994,874.89795 c 0,-8.88541 7.11932,-33.96364 15.82057,-55.72942 8.70125,-21.76578 29.26086,-91.7576 45.68803,-155.5371 16.42717,-63.77965 36.1935,-117.55095 43.9253,-119.49178 7.7318,-1.94097 24.4289,49.8157 37.1045,115.01463 15.1782,78.07171 31.694,124.86666 48.37486,137.0641 13.9306,10.18632 17.9389,18.52052 8.9076,18.52052 -25.52596,0 -59.03666,-60.49658 -70.40786,-127.1065 -5.6772,-33.25596 -17.3067,-62.79335 -25.8433,-65.63894 -18.9646,-6.32153 -49.62872,105.32343 -31.93185,116.26072 6.85194,4.23479 2.72905,31.08375 -9.16207,59.66449 -23.31074,56.02815 -62.47578,104.28526 -62.47578,76.97928 z M 1534.517,864.07368 c 11.1662,-11.16616 316.0614,-77.45049 356.2573,-77.45049 20.9611,0 33.0702,6.05303 28.123,14.05785 -4.7785,7.73182 -29.7596,14.05786 -55.5136,14.05786 -25.754,0 -108.3154,12.65207 -183.4699,28.11571 -147.8658,30.42457 -155.7535,31.57563 -145.3968,21.21907 z m -93.8432,-44.57057 c -16.0333,-16.03313 -21.7294,-40.36166 -18.1756,-77.62749 4.2527,-44.59278 1.3426,-52.55866 -16.3117,-44.65014 -66.3279,29.71269 -209.121,74.73353 -239.3845,75.47509 -19.3295,0.47375 -50.9597,9.90179 -70.2893,20.95154 -19.3295,11.04976 -44.6337,19.81526 -56.2314,19.47885 -11.5977,-0.33598 -3.456,-7.04355 18.0927,-14.9047 29.7721,-10.8611 37.1342,-20.73759 30.6609,-41.13301 -10.9957,-34.64488 33.096,-54.15578 55.1988,-24.4258 22.1044,29.73222 96.3254,18.35295 203.3843,-31.18215 49.1919,-22.76052 95.2736,-41.38282 102.4037,-41.38282 7.4255,0 8.9855,29.9885 3.6518,70.19608 -6.3395,47.79024 -3.7011,76.95636 8.266,91.37606 23.7347,28.59846 7.8859,26.98012 -21.2657,-2.17151 z M 281.15712,747.17516 c 0,-8.31832 6.32604,-19.03378 14.05786,-23.81233 7.73182,-4.77854 14.05785,-24.13002 14.05785,-43.00326 0,-39.89915 -41.81621,-47.53608 -70.57128,-12.88838 -9.78033,11.78456 -21.16368,18.04522 -25.29627,13.9125 -13.92669,-13.9267 46.33596,-48.4989 85.32416,-48.94988 52.24054,-0.60449 49.7097,-54.28694 -3.51446,-74.54755 -14.17285,-5.39512 -10.80375,-8.39085 10.27559,-9.13676 58.15299,-2.05793 59.91823,106.44103 2.91082,178.91419 -14.98441,19.04952 -27.24427,27.82964 -27.24427,19.51147 z M 1660.5842,704.03328 c 5.8797,-17.63895 26.3585,-21.73471 26.3585,-5.27169 0,5.79886 -7.1168,12.91565 -15.8151,15.81508 -8.6983,2.89944 -13.4428,-1.84509 -10.5434,-10.54339 z m -139.6277,-54.47419 c 3.5004,-18.05422 18.6742,-24.72299 57.0169,-25.05869 59.8617,-0.52436 80.4325,-16.58152 101.2271,-79.01668 15.0554,-45.20402 55.2236,-81.5693 71.795,-64.9979 5.0435,5.04339 -0.7268,29.00979 -12.8243,53.25861 -13.2266,26.51325 -18.7148,60.48645 -13.7674,85.22336 6.4459,32.2296 3.1859,41.13469 -15.0582,41.13469 -12.807,0 -26.857,-9.30785 -31.2225,-20.68402 -6.7468,-17.58188 -16.0845,-16.52769 -62.2592,7.02892 -68.0608,34.72206 -101.2469,35.81014 -94.9074,3.11171 z M 150.57426,635.07865 c 48.01475,-47.77576 81.14616,-65.17643 39.2068,-20.59124 -23.19547,24.65874 -47.16453,45.00974 -53.26466,45.22454 -6.09998,0.21509 0.22633,-10.87023 14.05786,-24.6333 z"
       id="path3026"
       style="fill:#000000" />
  </g>
</svg>
