<?xml version="1.0" encoding="UTF-8"?>
<svg version="1.1" xmlns="http://www.w3.org/2000/svg" width="216" height="61" >
<path fill="#231F20" d="M2.932,36.121c0.27-3.728,3.063-7.404,5.312-10.141C16.403,16.056,29.12,9.662,40.851,5.093 C48.537,2.099,62.09-1.89,67.534,6.929c5.772,9.352-4.373,20.731-10.56,26.723C48.324,42.028,38,47.364,26.94,51.792 c-5.663,2.267-11.429,4.36-17.355,5.831c-1.37,0.34-8.246,1.729-4.804-1.144c5.254-4.386,12.586-6.917,18.813-9.5 c12.943-5.371,26.27-9.822,39.625-14.041c1.743-0.551,1.263-2.445-0.506-1.887c-12.8,4.043-25.52,8.363-37.989,13.343 c-7.031,2.809-14.319,5.731-20.643,9.963c-1.875,1.255-5.458,4.347-1.706,5.765c2.599,0.982,6.332-0.27,8.856-0.896 c5.791-1.437,11.422-3.641,16.964-5.821c10.631-4.181,20.167-9.308,28.838-16.828c6.737-5.843,14.19-13.853,14.894-23.212 c1.558-20.71-27.023-12.277-37.055-7.945c-10.903,4.708-21.996,11.21-29.63,20.496c-2.305,2.803-4.969,6.678-5.242,10.453 C-0.102,37.819,2.841,37.368,2.932,36.121L2.932,36.121z"/>
<path fill="#231F20" d="M67.976,29.67c-1.738,0.369-3.64,0.961-5.004,2.142c-1.758,1.523-0.678,3.854,1.486,4.122 c2.302,0.286,4.868-0.827,6.542-2.362c0.62-0.569,1.118-1.296,1.179-2.149c0.069-0.978-1.015-1.5-1.776-1.76 c-0.605-0.207-1.49,0.091-2.029,0.356c-0.293,0.144-0.957,0.597-0.341,0.807c1.32,0.451,1.553,1.516,0.678,2.564 c-0.408,0.489-0.933,0.874-1.498,1.16c-0.389,0.197-0.442,0.24-0.939,0.119c-1.307-0.319-1.806-2.132-0.735-2.978 c0.477-0.377,0.966-0.559,1.513-0.747c0.455-0.157-0.265,0.077,0.145-0.043c0.104-0.031,0.209-0.059,0.313-0.086 c0.176-0.046,0.593-0.132-0.051,0.004c0.496-0.105,1.448-0.279,1.691-0.819C69.375,29.497,68.146,29.634,67.976,29.67 L67.976,29.67z"/>
<path fill="#231F20" d="M79.916,31.106c-0.08-0.218-0.136-0.444-0.178-0.672c-0.036-0.19-0.049-0.382-0.042-0.575 c0.003-0.084,0.033-0.163,0.063-0.241c0.046-0.074,0.045-0.084-0.002-0.032c-0.416,0.284-0.887,0.449-1.416,0.497 c0.627-0.028,1.468-0.252,1.938-0.694c0.491-0.46-0.433-0.494-0.687-0.482c-0.988,0.045-2.68,0.437-2.788,1.648 c-0.04,0.446,0.059,0.91,0.213,1.328C77.276,32.581,80.13,31.686,79.916,31.106L79.916,31.106z"/>
<path fill="#231F20" d="M75.359,37.648c4.123-0.047,8.296-2.099,11.483-4.554c1.214-0.935-1.689-0.634-2.25-0.201 c-2.246,1.729-5.077,3.413-8.017,3.446C75.714,36.35,73.422,37.67,75.359,37.648L75.359,37.648z"/>
<path fill="#231F20" d="M107.126,16.744c-2.139,2.62-4.001,5.45-5.535,8.463c-1.299,2.554-2.231,4.684-4.152,6.85 c-1.501,1.692-2.253,3.377-2.416,5.635c-0.08,1.1,2.824,0.503,2.889-0.396c0.316-4.379,4.18-6.626,5.75-10.5 c1.488-3.67,3.644-6.988,6.146-10.052C110.579,15.8,107.68,16.066,107.126,16.744L107.126,16.744z"/>
<path fill="#231F20" d="M129.37,15.245c-5.619,3.669-10.435,7.259-17.054,8.825c-3.584,0.849-10.212,1.545-12.273,5.196 c-0.158,0.279,2.456,0.155,2.85-0.543c2.213-3.922,12.101-4.283,16.186-5.682c4.539-1.555,8.497-5.191,12.487-7.797 C132.735,14.479,129.84,14.938,129.37,15.245L129.37,15.245z"/>
<path fill="#231F20" d="M108.543,25.018c-0.576,2.477-0.605,5.312,0.451,7.657c2.259,5.019,9.189,3.343,13.206,2.079 c1.984-0.624,0.087-0.852-0.965-0.521c-4.226,1.33-8.708,0.889-9.893-3.95c-0.45-1.836-0.375-3.992,0.049-5.813 C111.509,23.966,108.697,24.359,108.543,25.018L108.543,25.018z"/>
<path fill="#231F20" d="M130.166,33.606c-0.599-1.165-1.565-2.458-2.897-2.809c-1.827-0.482-4.601,0.429-5.109,2.478 c-0.433,1.746,1.113,3.071,2.598,3.62c2.75,1.017,5.774,0.346,8.311-0.945c1.779-0.905,0.158-2.105-1.204-1.412 c-1.849,0.941-5.904,1.945-6.825-0.866c-0.109-0.333-0.001-0.628,0.166-0.914c0.312-0.534,0.788,0.045,1.075,0.316 c0.32,0.302,0.996,1.325,0.987,1.308C127.836,35.486,130.668,34.583,130.166,33.606L130.166,33.606z"/>
<path fill="#231F20" d="M138.386,30.533c-5.416,5.775-9.34,13.304-13.108,20.18c-0.353,0.644,2.427,0.312,2.878-0.437 c2.173-3.606,4.53-7.111,7.012-10.511c1.542-2.111,3.191-4.146,5.027-6.009c1.442-1.462,4.601-1.393,2.805,1.192 c-0.849,1.222-2.871,2.022-3.228,3.573c-0.762,3.322,3.393,1.469,4.813,0.608c5.211-3.159,10.098-6.963,14.847-10.765 c2.556-2.046,9.29-6.402,9.251-10.15c-0.031-2.913-8.896,1.859-9.304,2.113c-5.544,3.455-16.9,19.999-2.895,17.836 c1.276-0.197,2.489-1.653,0.467-1.341c-8.354,1.291-3.04-8.253-0.735-11.312c1.873-2.485,4.386-4.362,7.093-5.846 c3.566-1.955,0.747,2.234,0.575,2.425c-0.993,1.098-2.116,2.08-3.222,3.061c-3.821,3.39-7.944,6.458-12.081,9.446 c-1.576,1.138-3.176,2.241-4.797,3.313c-4.012,2.654,0.628-1.667,1.877-3.038c2.5-2.746,0.035-4-2.598-4.081 c-2.161-0.067-4.084,1.68-5.529,3.043c-4.972,4.688-8.749,11.057-12.255,16.879c0.959-0.146,1.918-0.291,2.878-0.437 c3.699-6.75,7.564-14.139,12.892-19.82C141.788,29.667,138.934,29.949,138.386,30.533L138.386,30.533z"/>
<path fill="#231F20" d="M164.403,35.763c2.236-4.592-6.338-4.254-7.836-0.986c-0.747,1.63,0.32,3.413,1.775,4.169 c2.786,1.449,6.467,0.349,9.149-0.786c0.192-0.081,1.297-0.566,0.834-0.934c-0.452-0.359-1.424-0.093-1.883,0.102 c-1.782,0.753-3.911,1.453-5.724,0.395c-0.981-0.573-1.621-1.709-1.446-2.853c0.072-0.478,0.297-0.887,0.634-1.224 c0.216-0.216,0.22-0.07-0.119-0.004c0.513-0.1,1.115-0.051,1.563,0.23c0.779,0.489,0.513,1.673,0.182,2.354 C161.245,36.815,164.017,36.556,164.403,35.763L164.403,35.763z"/>
<path fill="#231F20" d="M171.875,36.458c0.843-0.476,3.56-1.931,4.143-0.326c0.566,1.559-0.638,3.787-1.72,4.846 c-1.244,1.218,1.439,1.108,2.077,0.729c1.579-0.938,3.177-1.843,4.782-2.735c1.655-0.921,3.334-1.796,5.042-2.616 c0.509-0.241,1.023-0.468,1.545-0.681c1.559-0.661,0.308-0.348-0.317,0.322c-4.057,4.343,1.151,3.869,4.65,2.903 c2.174-0.6,4.612-1.611,5.902-3.544c0.78-1.168-0.324-2.052-1.416-1.923c-1.641,0.194-2.27,1.653-2.762,3.035 c-0.86,2.411,2.153,3.892,0.246,5.761c-1.229,1.204,1.427,1.142,2.077,0.729c3.557-2.252,7.064-3.191,10.94-4.538 c2.892-1.004,8.028-3.162,8.716-6.566c0.59-2.921-4.488-1.439-5.536-1.031c-3.35,1.306-7.343,4.106-9.383,7.12 c-0.774,1.145,2.155,0.918,2.709,0.101c1.529-2.259,4.152-3.869,6.446-5.249c0.996-1.048,1.84-0.943,2.533,0.315 c-0.638,0.773-1.394,1.41-2.267,1.909c-1.353,0.905-2.877,1.539-4.385,2.134c-1.959,0.773-3.998,0.867-5.969,1.744 c-1.952,0.868-3.82,1.992-5.622,3.133c0.692,0.243,1.385,0.486,2.077,0.729c0.98-0.961,2.485-2.103,2.095-3.635 c-0.418-1.641-2.439-0.296-1.776-3c0.812-3.306-3.268,0.648-5.036,1.248c-0.928,0.314-4.036,1.466-2.411-0.316 c0.688-0.754,1.983-1.656,1.773-2.806c-0.547-3-15.155,5.749-16.472,6.53c0.692,0.243,1.385,0.486,2.077,0.729 c1.513-1.48,4.048-6.216,1.229-7.651c-2.372-1.208-5.756,0.515-7.807,1.672C168.353,36.493,170.897,37.01,171.875,36.458 L171.875,36.458z"/>
<path fill="#231F20" d="M193.664,19.303c1.397-2.914,4.066-5.906,7.605-5.416c5.36,0.743,8.322,6.666,7.752,11.549 c-0.13,1.11,2.783,0.556,2.893-0.383c0.797-6.818-4.08-12.722-11.012-12.868c-4.486-0.095-8.321,3.729-10.131,7.501 C190.378,20.503,193.232,20.202,193.664,19.303L193.664,19.303z"/>
</svg>