<?xml version="1.0" encoding="UTF-8"?>
<svg version="1.0" xmlns="http://www.w3.org/2000/svg" width="162px" height="53px">

<path fill="none" stroke="#231F20" d="M0.667,28.167c0,0,14.167-17.334,9.333-2.167s4.833,26.5,10.833-7.667 c0,0,3.833,6.167,5.333,6.833
M29.5,35.167c0,0,1.333-4.167-5.667-3.667s-5.5,4.667,0.833,5.333s10-1.167,10-1.167 s-3-6.167,6.167-4.667c0,0-10.667-1.333-5,6s14,0.834,16.667-4.833s-5.667-14-5.167-1.5S56.833,36.333,56,32s0.833,8.167,6.5,1.833 s-8.333-5.833-3.333-2S66.667,37,67.5,30.5S69.667,44.667,76,30l1.833,0.333
M36.5,30.833c0,0-7.5-11,1.167-4
M107.333,3.833c0,0-6.167,3.333-15.667,16.167s-11.5,18.333-9.833,24.5 S97.666,56,109.5,42.833S90.333,18.5,87.167,39.667s28.666,6.5,25.833-4.167l-3.666-1.5c0,0,12.833,6.167,19.833-5.667 s-21.499-13.167-22.833,5.167s9.334,16,12.5,9s8-5,10.833,1.833c0,0-6.334-13.167-10.167-1.333c0,0,3.668,9,9.334,1.833 c0,0,1.333,6.833,6.833-0.333c0,0,2.999,5,9.333,0s10.667,1.333,10.667,1.333"/>
</svg>