<?xml version="1.0" encoding="UTF-8" standalone="no"?>
<!-- Created with Inkscape (http://www.inkscape.org/) -->
<svg
   xmlns:dc="http://purl.org/dc/elements/1.1/"
   xmlns:cc="http://creativecommons.org/ns#"
   xmlns:rdf="http://www.w3.org/1999/02/22-rdf-syntax-ns#"
   xmlns:svg="http://www.w3.org/2000/svg"
   xmlns="http://www.w3.org/2000/svg"
   xmlns:sodipodi="http://sodipodi.sourceforge.net/DTD/sodipodi-0.dtd"
   xmlns:inkscape="http://www.inkscape.org/namespaces/inkscape"
   id="svg2"
   sodipodi:version="0.32"
   inkscape:version="0.46"
   width="405"
   height="300"
   version="1.0"
   sodipodi:docname="5432_Sd-498.svg"
   inkscape:output_extension="org.inkscape.output.svg.inkscape">
  <metadata
     id="metadata7">
    <rdf:RDF>
      <cc:Work
         rdf:about="">
        <dc:format>image/svg+xml</dc:format>
        <dc:type
           rdf:resource="http://purl.org/dc/dcmitype/StillImage" />
      </cc:Work>
    </rdf:RDF>
  </metadata>
  <defs
     id="defs5">
    <inkscape:perspective
       sodipodi:type="inkscape:persp3d"
       inkscape:vp_x="0 : 526.18109 : 1"
       inkscape:vp_y="0 : 1000 : 0"
       inkscape:vp_z="744.09448 : 526.18109 : 1"
       inkscape:persp3d-origin="372.04724 : 350.78739 : 1"
       id="perspective9" />
  </defs>
  <sodipodi:namedview
     inkscape:window-height="667"
     inkscape:window-width="640"
     inkscape:pageshadow="2"
     inkscape:pageopacity="0.0"
     guidetolerance="10.0"
     gridtolerance="10.0"
     objecttolerance="10.0"
     borderopacity="1.0"
     bordercolor="#666666"
     pagecolor="#ffffff"
     id="base"
     showgrid="false"
     inkscape:zoom="0.73"
     inkscape:cx="313.24454"
     inkscape:cy="133.40696"
     inkscape:window-x="198"
     inkscape:window-y="243"
     inkscape:current-layer="svg2" />
  <path
     style="fill:#000000"
     d="M 174.79158,279.76618 C 173.86408,279.22516 171.16408,278.80248 168.79158,278.8269 C 160.87884,278.90833 124.25388,277.03261 119.83538,276.31965 C 115.26292,275.58185 107.88611,273.53037 101.97794,271.35351 C 100.05294,270.64425 96.227941,269.5438 93.477941,268.90806 C 90.727941,268.27233 87.782371,266.97784 86.932221,266.03142 C 84.995441,263.87532 81.431501,261.81066 79.646501,261.81066 C 78.899281,261.81066 77.483821,260.92215 76.501041,259.83619 C 75.518267,258.75023 73.761022,257.55946 72.596058,257.19002 C 70.462018,256.51328 67.501437,253.90302 57.421037,243.81066 C 50.007723,236.38855 48.785491,234.96266 45.849198,230.31066 C 44.460582,228.11066 42.152797,224.51066 40.720786,222.31066 C 39.288775,220.11066 37.802137,216.51066 37.417145,214.31066 C 37.032154,212.11066 36.213337,209.679 35.597552,208.90697 C 34.981766,208.13493 34.536532,207.23493 34.608141,206.90697 C 34.679751,206.579 34.342251,205.26887 33.858141,203.99556 C 33.374032,202.72226 32.989764,195.74726 33.004212,188.49556 C 33.033781,173.65498 35.818304,159.42598 40.433901,150.52962 C 41.833123,147.83267 42.977942,145.08004 42.977942,144.41265 C 42.977942,143.74526 44.102942,141.67437 45.477942,139.81066 C 46.852942,137.94695 47.977942,135.44521 47.977942,134.25124 C 47.977942,133.05727 48.80592,131.00719 49.817894,129.69552 C 50.829867,128.38385 52.163822,125.82704 52.782238,124.01372 C 53.400654,122.2004 54.822676,119.55221 55.942287,118.12886 C 57.061897,116.7055 57.977942,115.01405 57.977942,114.37008 C 57.977942,113.72611 59.102942,111.67437 60.477942,109.81066 C 61.852942,107.94695 62.977942,105.79925 62.977942,105.03798 C 62.977942,103.52741 70.572825,95.810662 72.059541,95.810662 C 72.564662,95.810662 72.977942,95.345662 72.977942,94.777332 C 72.977942,93.141472 79.438301,87.115772 82.080391,86.287322 C 83.399041,85.873842 85.551131,84.697442 86.862801,83.673102 C 88.174471,82.648762 89.783531,81.810662 90.438491,81.810662 C 91.093441,81.810662 92.644761,80.729762 93.885871,79.408672 C 95.126971,78.087572 98.213061,76.485282 100.74383,75.848022 C 103.31381,75.200902 107.36119,73.016462 109.91159,70.900032 C 112.42308,68.815902 115.79243,66.790292 117.39902,66.398692 C 119.00561,66.007082 121.4288,64.814582 122.78388,63.748672 C 124.13896,62.682762 125.80687,61.810662 126.49035,61.810662 C 127.17384,61.810662 128.28099,61.150432 128.9507,60.343492 C 130.57698,58.383932 141.53685,52.370062 146.23562,50.858952 C 148.30234,50.194302 150.43984,48.816112 150.98562,47.796322 C 152.61445,44.752812 152.10702,38.743972 149.59355,31.311708 C 146.96026,23.525172 144.01451,20.825194 138.14237,20.815926 C 135.37119,20.811552 133.89334,21.783568 129.40813,26.560661 C 126.43886,29.723161 123.71546,33.210661 123.35614,34.310661 C 122.99681,35.410661 121.86472,37.383847 120.84038,38.69552 C 119.81604,40.007192 118.97794,41.967116 118.97794,43.050902 C 118.97794,44.134692 117.84786,48.726372 116.46666,53.254632 C 114.22106,60.616822 113.50696,61.806842 109.71666,64.503412 C 107.38536,66.161992 104.91544,67.322132 104.22794,67.081502 C 103.51336,66.831392 102.97794,64.955662 102.97794,62.702362 C 102.97794,60.124332 101.75452,56.434222 99.441501,52.035702 C 94.250741,42.164742 91.425661,38.690602 86.966001,36.693953 C 84.772571,35.711924 82.977941,34.51925 82.977941,34.043567 C 82.977941,32.675462 72.779083,28.810661 69.168778,28.810661 C 65.554456,28.810661 59.011655,31.801682 54.651217,35.447318 C 53.096518,36.747157 51.296518,37.84315 50.651217,37.882858 C 50.005916,37.922567 48.224687,39.464864 46.69293,41.310186 C 44.462945,43.996672 43.684431,46.335642 42.786504,53.046672 C 41.499525,62.665442 41.961635,65.449402 45.553874,69.718532 C 48.707056,73.465872 48.413848,76.200022 44.813983,76.617952 C 41.629111,76.987712 38.3073,72.983062 35.434706,65.310662 C 32.546321,57.596082 33.027458,50.475532 36.904358,43.560662 C 38.677449,40.398161 40.462304,37.810661 40.870702,37.810661 C 41.279101,37.810661 44.268256,35.339752 47.51327,32.319753 C 56.30591,24.13681 62.177976,21.50627 71.892389,21.398513 C 78.657591,21.323469 80.152371,21.621939 82.145101,23.445726 C 83.428161,24.620012 85.428421,25.868151 86.590111,26.219368 C 90.335871,27.351832 103.04314,40.462919 104.09812,44.283762 C 105.08496,47.857802 108.11806,50.354602 110.40626,49.476542 C 111.10589,49.208072 111.93761,46.810922 112.25454,44.149532 C 112.57147,41.488155 113.98449,36.835661 115.39459,33.810661 C 116.80469,30.785661 117.9628,27.764566 117.96817,27.097117 C 117.97926,25.719736 129.52793,15.810661 131.12213,15.810661 C 131.69432,15.810661 133.30665,14.910661 134.70507,13.810661 C 137.51921,11.597055 144.82549,11.058206 146.69376,12.926477 C 147.30745,13.540176 148.82436,14.552676 150.06465,15.176477 C 151.30494,15.800278 153.70533,18.560661 155.39883,21.310661 C 158.28233,25.993018 158.47794,26.926835 158.47794,36.009818 C 158.47794,45.372382 159.34854,48.508152 161.53448,47.019022 C 163.49626,45.682592 166.61567,40.308392 167.77416,36.269135 C 169.13614,31.520391 172.57477,28.038458 179.46998,24.426018 C 185.01633,21.520259 192.70793,20.958467 200.40599,22.896861 C 204.13679,23.836286 210.09861,24.175686 206.17936,24.132632 C 203.6134,24.104445 212.94746,19.483295 213.13569,19.017825 C 213.32393,18.552356 216.38817,16.727406 219.94511,14.962382 C 225.40909,12.25105 227.11541,11.849245 230.94511,12.372105 C 238.13062,13.353125 247.97329,16.933449 249.05834,18.960889 C 249.60282,19.978264 250.70747,20.810661 251.51312,20.810661 C 253.68734,20.810661 260.27688,27.800853 262.38526,32.343823 C 263.3978,34.525584 265.03437,37.210661 266.02207,38.310661 C 268.098,40.62261 278.97794,62.851562 278.97794,64.780962 C 278.97794,65.492462 279.88804,67.547172 281.0004,69.346992 C 282.42474,71.651632 283.14716,74.902562 283.44317,80.339672 C 283.7593,86.146132 284.34125,88.586802 285.79075,90.185302 C 286.85074,91.354252 288.01341,94.264452 288.37446,96.652432 C 288.73552,99.040402 289.86356,102.6404 290.88122,104.65243 C 293.58132,109.9908 294.97794,117.75524 294.97794,127.42798 L 295.71429,137.05137 L 297.88231,133.87875 C 299.47971,132.7413 301.21095,131.81066 301.7295,131.81066 C 302.24804,131.81066 303.07858,130.97857 303.57513,129.96158 C 304.465,128.13901 315.89529,118.07534 319.14993,116.24893 C 320.06952,115.73288 322.76952,113.64923 325.14993,111.61858 C 333.69423,104.32973 338.17991,100.81066 338.92653,100.81066 C 339.34418,100.81066 340.85902,99.798162 342.29283,98.560662 C 347.36898,94.179542 349.39338,92.719402 358.72794,86.706582 C 360.51544,85.555172 361.97794,84.283342 361.97794,83.880302 C 361.97794,82.939202 370.80661,77.206502 374.30345,75.877002 C 375.77442,75.317742 376.97794,74.405062 376.97794,73.848832 C 376.97794,73.292602 378.55294,72.179422 380.47794,71.375112 C 382.40294,70.570792 383.97794,69.457102 383.97794,68.900232 C 383.97794,68.343362 385.77029,67.405122 387.96093,66.815242 C 390.15158,66.225362 392.41741,64.858012 392.99612,63.776692 C 393.57482,62.695382 394.70747,61.810662 395.51312,61.810662 C 397.69099,61.810662 397.28508,64.575912 394.92153,65.840852 C 393.79051,66.446152 392.55301,67.745822 392.17153,68.728992 C 391.41088,70.689412 380.17633,80.421092 375.91522,82.810662 C 374.44407,83.635662 371.49384,85.281622 369.35917,86.468362 C 367.22449,87.655092 363.23775,90.692592 360.49974,93.218362 C 357.76172,95.744132 355.15501,97.810662 354.70704,97.810662 C 354.25906,97.810662 351.38261,99.723162 348.31493,102.06066 C 345.24724,104.39816 341.96895,106.76352 341.02985,107.31701 C 340.09074,107.87051 338.59676,108.99551 337.70989,109.81701 C 336.82303,110.63852 334.46763,112.43566 332.47567,113.81066 C 324.11516,119.58172 310.09468,131.49292 306.37801,135.98211 C 305.77305,136.71281 303.63555,138.78407 301.62801,140.58491 L 296.84889,147.09912 L 297.97794,152.80401 C 297.97794,159.87868 298.53499,163.37569 300.64225,169.52976 C 303.07245,176.62696 303.31409,178.71901 303.39225,193.33856 L 303.47794,209.36647 L 308.7269,214.83856 C 311.61384,217.84822 313.97634,220.83863 313.9769,221.48393 C 313.97747,222.12924 315.15892,224.06072 316.60233,225.77612 C 319.01712,228.64594 319.17258,229.37363 318.54877,234.88737 C 318.11552,238.7168 316.98779,242.18091 315.42438,244.48473 C 314.07884,246.46749 312.97794,249.47363 312.97794,251.16504 C 312.97794,252.9055 312.1046,255.12368 310.96585,256.27549 C 306.35659,260.93762 299.41045,270.32829 298.47874,273.15714 C 297.20385,277.02796 291.64456,278.90881 289.08046,276.33682 C 286.75577,274.00497 287.11972,263.49887 289.77933,256.16271 C 291.9471,250.1832 295.35887,217.51067 294.29137,213.42851 C 291.5565,212.89043 288.42953,211.80347 280.87006,211.24243 C 275.5687,210.84898 275.22578,208.17449 274.63371,210.38598 C 274.28806,211.67709 273.9991,216.7127 273.99159,218.4263 C 273.96849,223.69742 267.37714,235.53357 262.88601,238.36869 C 260.73657,239.72557 258.97794,241.48959 258.97794,242.28873 C 258.97794,243.08786 257.62794,245.12273 255.97794,246.81066 C 254.32794,248.49859 252.97794,250.29676 252.97794,250.80659 C 252.97794,251.31643 251.28113,252.19047 249.20725,252.74891 C 246.68985,253.42678 244.84019,254.77385 243.64227,256.80176 C 241.90528,259.74225 230.75923,267.81066 228.43409,267.81066 C 227.80369,267.81066 226.51744,268.66202 225.57575,269.70258 C 224.50447,270.88633 221.80773,271.85136 218.37122,272.28073 C 215.35042,272.65815 210.90275,273.84108 208.48751,274.90945 C 206.07227,275.97783 200.3967,277.31583 195.87513,277.88278 C 191.35355,278.44974 186.85654,279.34045 185.88175,279.86214 C 183.59035,281.08846 176.9601,281.03109 174.79158,279.76618 z M 191.47794,270.11225 C 194.77794,269.27581 200.39105,267.9516 203.95153,267.16956 C 207.512,266.38753 211.42014,265.09571 212.63628,264.29887 C 214.48933,263.0847 218.17477,261.91036 224.62706,260.47808 C 225.25907,260.33779 226.56209,259.56772 227.52265,258.76683 C 228.4832,257.96594 230.32273,256.86066 231.61049,256.31066 C 235.83985,254.5043 253.50584,237.86367 259.97794,229.58971 C 261.35294,227.8319 263.67154,222.77501 265.13038,218.35218 C 267.78154,210.31456 267.78185,210.30981 265.7696,208.56066 C 264.66232,207.59816 262.75097,206.81066 261.52214,206.81066 C 260.29332,206.81066 258.52448,205.96708 257.5914,204.93603 C 256.60431,203.8453 253.99232,202.84696 251.34507,202.54857 C 248.45472,202.22279 245.27845,200.92584 242.63659,198.99268 C 236.86537,194.76963 237.04708,191.26241 243.32335,185.73782 C 245.82169,183.5387 248.13256,180.89887 248.45862,179.87154 C 248.78468,178.8442 250.60384,177.267 252.5012,176.36665 C 254.39855,175.46629 256.42284,173.84787 256.99962,172.77015 C 257.5764,171.69243 258.44209,170.81066 258.92338,170.81066 C 259.40467,170.81066 262.04858,170.10313 263.87453,168.14198 C 266.3184,165.51716 268.41259,162.64126 269.88742,160.7905 C 268.13899,156.00457 267.19847,141.50242 264.9197,135.14351 C 263.55699,131.34087 263.1086,127.51182 263.22174,120.64351 C 263.44345,107.18339 263.00209,106.05208 254.94237,99.421612 C 249.64737,95.065572 245.96966,93.003902 239.48776,90.757962 C 234.80942,89.136942 230.40317,87.810662 229.69609,87.810662 C 227.5498,87.810662 217.63415,80.965312 216.29933,78.562102 C 214.44869,75.230202 214.70263,73.893222 217.42141,72.654462 C 219.54329,71.687672 220.58288,72.017722 225.32019,75.162172 C 234.17534,81.039882 235.39468,81.261662 239.42066,77.726812 C 243.97468,73.728332 245.349,66.737282 242.20005,63.588332 C 239.30362,60.691892 219.46082,59.732102 213.56688,62.203352 C 206.8189,65.032682 204.16332,62.765502 206.51103,56.179492 C 208.28333,51.207692 208.40824,37.781395 206.70389,35.450546 C 205.53082,33.84628 205.25112,33.949895 203.17517,36.757764 C 201.93511,38.435039 197.52537,43.613082 193.37576,48.264522 C 193.37576,48.264522 191.93596,54.361259 185.83101,56.721692 C 183.95595,57.44667 179.15447,56.148342 179.15447,56.148342 L 172.47794,55.574992 L 175.68692,58.019232 C 177.45186,59.363562 180.77744,61.084432 183.07709,61.843382 C 188.2809,63.560792 190.51834,67.031662 191.39039,74.739562 C 192.01705,80.278552 191.90015,80.705752 188.79936,84.208152 C 185.99281,87.378212 185.14437,87.786492 182.54825,87.216282 C 179.09643,86.458142 172.81094,81.696472 170.25372,77.902372 C 169.29297,76.476932 168.27539,72.610662 167.99242,69.310662 C 167.50724,63.652362 167.27883,63.211302 163.98161,61.565952 L 160.48528,59.821242 L 159.73413,62.565952 C 159.02358,65.162302 159.36561,82.027502 160.50975,100.81066 C 160.90445,107.29037 160.6651,109.99145 159.50273,112.17497 C 158.66409,113.75034 157.97794,116.02456 157.97794,117.2288 C 157.97794,120.1425 152.28619,125.43404 148.23714,126.28468 C 145.58564,126.84173 144.06705,126.36337 139.88586,123.65405 C 133.44406,119.47991 126.97794,111.52248 126.97794,107.76913 C 126.97794,106.23997 126.08375,102.13626 124.99084,98.649752 C 121.35574,89.85334 123.38201,85.947885 126.0162,78.694732 C 126.76331,76.430972 128.86034,72.632972 130.67626,70.254722 C 132.49218,67.876482 133.97794,65.702202 133.97794,65.423002 C 133.97794,63.670532 117.14317,73.116262 115.48512,75.799042 C 115.14125,76.355432 114.02099,76.810662 112.99565,76.810662 C 111.97031,76.810662 109.7944,77.935662 108.16031,79.310662 C 106.52621,80.685662 104.12919,81.818852 102.83358,81.828862 C 101.53798,81.838872 98.497721,83.188872 96.077461,84.828862 C 93.657201,86.468852 91.294701,87.810662 90.827461,87.810662 C 90.360221,87.810662 89.126431,88.598162 88.085701,89.560662 C 87.044971,90.523162 84.291611,92.660662 81.967111,94.310662 C 77.148541,97.731042 62.977942,113.94377 62.977942,116.03637 C 62.977942,116.79852 61.852942,118.94695 60.477942,120.81066 C 59.102942,122.67437 57.977942,124.97727 57.977942,125.92821 C 57.977942,126.87916 56.852942,128.9942 55.477942,130.62829 C 54.102942,132.26239 52.977942,133.99108 52.977942,134.46983 C 52.977942,134.94857 52.149591,136.90861 51.137162,138.82547 C 50.124733,140.74232 48.741433,144.55468 48.063162,147.29736 C 47.384891,150.04005 46.409789,152.79032 45.896269,153.40907 C 45.382749,154.02782 43.829271,160.22889 42.444096,167.18921 C 40.600121,176.45493 40.200434,180.35787 40.951769,181.76176 C 41.516164,182.81634 41.99375,187.19626 42.013071,191.49492 C 42.032392,195.79358 42.646645,202.09936 43.378077,205.50778 C 44.864559,212.43466 49.824775,224.81066 51.114541,224.81066 C 51.574649,224.81066 52.576246,226.27316 53.34031,228.06066 C 54.980713,231.89832 73.955809,250.17856 80.160931,253.89912 C 82.535291,255.32278 86.052941,257.09723 87.977941,257.84235 C 89.902941,258.58747 91.750591,259.59428 92.083821,260.07971 C 92.417051,260.56514 94.667051,261.211 97.083821,261.51496 C 99.500591,261.81891 102.38651,262.89059 103.49698,263.89647 C 104.94958,265.21225 107.89538,265.91704 113.99698,266.40865 C 118.66151,266.78446 124.59661,267.91467 127.18609,268.92022 C 130.85957,270.3467 135.78636,270.86569 149.605,271.28182 C 159.34592,271.57515 167.53684,272.03622 167.80704,272.30643 C 168.70397,273.20336 185.38196,271.65739 191.47794,270.11225 z M 306.1957,248.86529 C 307.14046,245.81514 308.21365,239.61978 308.58056,235.09781 C 309.32899,225.87386 308.27022,221.88741 304.39814,219.35033 C 302.1497,217.87709 301.62696,215.33796 301.18341,217.47437 C 300.92544,218.71687 300.79673,227.48566 300.44739,233.81066 C 300.09804,240.13566 299.17458,248.68566 298.39525,252.81066 C 297.61592,256.93566 296.98701,260.98566 296.99768,261.81066 C 297.03639,264.80353 304.5223,254.26779 306.1957,248.86529 z M 295.13547,201.06066 C 295.22212,197.89816 295.18821,194.63566 295.06012,193.81066 C 294.93203,192.98566 294.44567,189.38566 293.97931,185.81066 C 293.51295,182.23566 292.42223,175.93566 291.55548,171.81066 C 290.68873,167.68566 290.12707,162.72361 289.90847,160.81066 C 289.25184,155.06446 288.97031,153.16988 288.98446,153.47906 L 278.13573,163.65299 C 279.85161,175.11429 279.71915,184.90356 278.61197,196.41361 L 277.75288,202.51656 L 282.61541,203.87137 C 286.86463,205.0553 291.86486,206.26425 294.22794,206.67902 C 294.64044,206.75142 295.04883,204.22316 295.13547,201.06066 z M 270.65832,193.23599 C 271.96251,186.96526 272.39007,173.32181 271.30008,169.4605 C 271.73081,168.88068 269.78426,169.39946 261.47794,177.73759 C 256.52794,182.70656 251.97054,186.78075 251.35038,186.79137 C 248.96384,186.8322 247.76804,189.54784 249.05825,191.99674 C 250.70727,195.12668 251.87151,195.7715 255.97794,195.82928 C 257.90294,195.85636 261.27794,196.7471 263.47794,197.80869 C 265.67794,198.87028 267.91624,199.60891 268.45195,199.45009 C 268.98766,199.29127 269.98052,196.49492 270.65832,193.23599 z M 278.50678,152.81854 C 279.21597,151.9554 285.96313,146.24935 287.20063,145.0883 C 288.81825,143.57062 287.97871,143.30617 287.98068,140.38032 C 287.98599,132.50915 285.67582,114.2883 284.4218,112.31066 C 283.7243,111.21066 282.64268,106.93651 282.01821,102.81254 C 281.39374,98.688572 280.22921,94.316902 279.43037,93.097722 C 278.57782,91.796562 277.97794,88.460382 277.97794,85.020162 C 277.97794,80.094652 277.58723,78.792242 275.52981,76.859392 C 274.18334,75.594452 272.77435,73.153512 272.39871,71.435082 C 271.37266,66.741162 266.52051,55.074812 264.7612,53.071712 C 263.91052,52.103132 262.87979,50.215742 262.4707,48.877512 C 261.14478,44.540092 257.11592,37.709054 254.01008,34.532331 C 252.3424,32.826591 250.97794,31.090467 250.97794,30.674277 C 250.97794,30.258088 248.39937,28.206015 245.24779,26.114115 C 245.24779,26.114115 241.49299,22.906575 239.51765,22.310661 C 236.2863,21.335837 232.83502,19.106548 229.73971,18.997108 C 226.25296,18.873828 221.60736,20.650861 218.48909,21.942488 C 217.21498,22.47024 210.82049,27.770224 210.82049,27.770224 C 209.79079,29.168105 210.52184,28.821683 212.30628,31.561189 C 217.50462,39.541804 218.62287,44.513722 216.63573,50.810662 C 216.54894,51.085662 220.97794,51.350462 226.47794,51.399102 C 235.31253,51.477232 237.11892,51.810242 241.97794,54.256562 C 250.59373,58.594262 252.97794,61.313762 252.97794,66.803472 C 252.97794,70.146862 252.29481,72.348042 250.50379,74.775622 C 246.56128,80.119392 247.508,83.182082 254.54731,87.856732 C 260.89671,92.073222 269.18959,100.48411 271.75637,105.31066 C 272.90834,107.47682 273.30278,110.6732 273.17552,116.81066 C 272.98973,125.77053 274.18329,137.78508 276.13099,146.56066 C 277.36794,152.13391 275.86434,156.03459 278.50678,152.81854 z M 148.98275,116.30817 C 151.05172,115.23827 152.07762,113.79626 152.54597,111.2997 C 153.01774,108.78498 152.5579,64.527562 152.0342,62.043812 C 152.00326,61.897052 149.83978,62.860462 147.22646,64.184722 C 144.58481,65.523352 140.47748,68.967692 137.97646,71.941632 C 137.97646,71.941632 133.72947,75.221128 133.47794,77.290782 C 132.38149,86.312721 131.28432,96.993083 133.78192,104.88663 C 134.31708,106.57796 137.12993,109.7608 137.12993,109.7608 C 139.83172,113.69418 144.07715,117.63305 145.7776,117.78405 C 145.94241,117.79869 147.38473,117.13454 148.98275,116.30817 z M 183.35126,77.015632 C 183.6215,76.578372 183.58463,74.297182 183.26931,71.946322 C 182.63544,67.220482 180.42752,65.146022 175.47794,64.625912 C 170.97699,64.152942 171.05555,67.395252 175.68362,73.114242 C 179.18944,77.446452 182.15305,78.954372 183.35126,77.015632 z M 191.78904,40.933689 C 195.74294,36.900571 198.97794,33.197978 198.97794,32.705704 C 198.97794,31.269941 186.24445,29.395201 179.37542,32.666986 C 174.21657,35.124195 172.17627,38.733199 171.48389,43.767432 L 170.75751,49.048812 L 177.67883,48.657722 C 177.67883,48.657722 182.69124,49.092024 184.60014,48.266632 C 189.24652,46.257578 191.78904,40.933689 191.78904,40.933689 z"
     id="path2384"
     sodipodi:nodetypes="csssssssssssssssssssssssssssssssssssssssssssssssssssssssssssssssssssssssssssssssssssssssssssssssscccsssssssssssssssssssssssssscccscccssssssssscscsssssssssssssccsssssssssssssssssscsssssssssssssscscccsssssscccssssssccsssssssssssssssssssssssssssssssssccssssssccsssscccccscccsssssscccssssssssssscssscssssssssssccssscsscsccsssccsscccsc" />
</svg>
