<?xml version="1.0" encoding="UTF-8" standalone="no"?>
<!-- Created with Inkscape (http://www.inkscape.org/) -->
<svg
   xmlns:svg="http://www.w3.org/2000/svg"
   xmlns="http://www.w3.org/2000/svg"
   version="1.0"
   width="477"
   height="412"
   id="svg2">
  <defs
     id="defs5" />
  <path
     d="M 172.9026,373.16187 C 162.73084,372.66945 153.69346,371.69792 150.4026,370.74309 C 141.87078,368.26761 128.48754,361.18825 122.22272,355.83672 C 119.09879,353.16819 115.38743,350.1772 113.97525,349.19007 C 112.56307,348.20294 110.67055,345.95294 109.76964,344.19007 C 108.86874,342.4272 107.51761,340.62499 106.76712,340.18516 C 106.01664,339.74533 105.4026,338.81127 105.4026,338.10947 C 105.4026,337.40768 104.2776,335.7766 102.9026,334.48485 C 101.5276,333.1931 100.4026,331.76005 100.4026,331.30028 C 100.4026,330.84051 98.922555,328.33145 97.113615,325.72459 C 90.460345,316.13659 89.225295,306.00722 89.768685,265.48485 C 90.001015,248.15985 90.669415,231.73485 91.254045,228.98485 C 94.374785,214.30515 95.722805,206.75232 95.582055,204.73535 C 95.495725,203.49812 96.770025,199.54935 98.413845,195.9603 C 100.05766,192.37126 101.4026,189.18961 101.4026,188.88998 C 101.4026,188.59035 102.69095,186.46412 104.26561,184.16503 C 105.84026,181.86593 107.45968,178.92793 107.86433,177.63613 C 108.26897,176.34433 109.47651,174.31933 110.54774,173.13613 C 114.54998,168.71556 115.15628,167.92597 116.42286,165.48485 C 117.13629,164.10985 118.54859,162.39683 119.5613,161.67815 C 121.39615,160.19814 121.22942,158.16739 123.31022,157.01417 C 124.35941,156.68117 125.47029,155.75085 125.77883,154.94678 C 126.73795,153.31035 128.46506,153.73761 129.40548,152.23485 C 129.40706,151.54735 130.64456,150.15271 132.15548,149.13564 C 133.66639,148.11857 135.96398,145.59688 137.26122,143.53188 C 140.07589,139.05137 145.13214,133.56145 148.35659,131.48485 C 149.63762,130.65985 152.21919,128.61121 154.09342,126.93232 L 157.50111,123.8798 L 155.45185,121.27459 C 154.32476,119.84173 153.4026,118.41603 153.4026,118.10636 C 153.4026,117.79669 152.1132,115.61767 150.53727,113.26409 C 148.96134,110.9105 146.90405,107.7139 145.96552,106.16052 C 144.40933,103.58485 144.07486,103.45851 142.16663,104.72553 C 141.01578,105.48967 139.95315,106.93946 139.80523,107.94729 C 139.27244,111.57744 136.95098,118.48485 136.26374,118.48485 C 135.87751,118.48485 135.265,119.83485 134.9026,121.48485 C 134.5402,123.13485 133.89779,124.48485 133.47502,124.48485 C 133.05225,124.48485 131.88508,126.3061 130.88131,128.53207 C 129.87753,130.75804 128.56523,132.89554 127.96508,133.28207 C 127.36493,133.6686 124.88061,136.40151 122.44436,139.35521 L 118.01482,144.72557 L 110.45871,144.065 C 106.30285,143.70169 100.99109,142.68676 98.654785,141.80962 C 94.999805,140.43738 94.254415,139.64826 93.313875,136.15534 C 92.334225,132.51721 92.508765,131.49333 94.995555,126.29037 C 96.521685,123.09733 98.085105,120.48485 98.469835,120.48485 C 98.854555,120.48485 99.391205,119.63641 99.662385,118.59943 C 99.933565,117.56245 102.34855,115.46604 105.02902,113.94075 C 107.70949,112.41546 110.3526,110.64336 110.9026,110.00275 C 112.8622,107.72032 120.96778,103.62227 124.9026,102.92457 C 131.29084,101.79186 137.38102,97.792252 137.51775,94.639822 C 137.71837,90.014442 137.28061,88.270282 135.41703,86.269962 C 134.419,85.198702 133.3754,82.896302 133.09793,81.153532 C 132.82045,79.410752 132.07783,74.834852 131.44767,70.984852 C 128.88015,55.298662 130.02314,43.147792 134.69341,36.480042 C 139.62697,29.436392 150.23022,27.299472 153.022,32.786192 C 153.6373,33.995452 154.93803,36.508332 155.91251,38.370372 C 157.493,41.390362 157.55922,42.632032 156.52581,49.870372 C 155.88864,54.333332 155.21911,60.023272 155.03797,62.514682 C 154.85684,65.006082 154.16896,68.052882 153.50937,69.285342 C 152.84978,70.517802 152.56326,71.935792 152.87267,72.436412 C 153.18207,72.937042 153.03601,73.593382 152.54807,73.894942 C 151.75639,74.384222 150.52036,78.323402 149.85273,82.484852 C 149.72037,83.309852 148.88995,85.657892 148.00734,87.702732 C 147.12473,89.747562 146.4026,91.885062 146.4026,92.452732 C 146.4026,94.011152 153.62828,93.628722 155.84373,91.953042 C 156.91135,91.145532 159.66875,90.484852 161.97128,90.484852 C 164.45884,90.484852 166.65918,89.880612 167.39346,88.995862 C 168.62134,87.900846 170.01568,87.890674 171.42507,86.998732 C 171.98743,87.346292 174.79993,86.815852 177.67507,85.819992 C 183.88593,83.668722 183.44136,83.745592 190.51305,83.600202 C 194.7185,83.513732 197.04607,82.858782 199.80746,80.984852 C 203.48982,78.485932 207.4026,77.671042 207.4026,79.403062 C 207.4026,79.908082 207.65308,80.974022 207.95923,81.771822 C 208.54359,83.294652 202.47645,90.484852 200.6071,90.484852 C 200.02446,90.484852 198.66284,91.609852 197.58126,92.984852 C 196.49968,94.359852 194.89202,95.484852 194.00868,95.484852 C 193.12534,95.484852 192.39625,95.822352 192.38848,96.234852 C 192.38072,96.647352 190.58072,98.973712 188.38848,101.40453 C 186.19625,103.83536 184.4026,106.15092 184.4026,106.55022 C 184.4026,107.43093 172.36661,119.58022 170.10259,120.98485 C 168.24756,122.13573 166.80466,131.48485 168.48206,131.48485 C 169.05328,131.48485 169.24252,131.93485 168.9026,132.48485 C 168.56268,133.03485 168.71234,133.48485 169.23517,133.48485 C 169.75801,133.48485 170.48178,134.66421 170.84356,136.10565 C 171.20534,137.54709 172.15826,139.38337 172.96116,140.18627 C 173.76406,140.98917 174.16529,142.05981 173.85277,142.56547 C 173.54026,143.07113 173.78768,143.48485 174.4026,143.48485 C 175.01752,143.48485 175.26627,143.89642 174.95539,144.39944 C 174.6445,144.90246 174.80172,145.46496 175.30477,145.64944 C 175.80781,145.83392 176.37311,146.88485 176.561,147.98485 C 176.74888,149.08485 177.57689,150.51056 178.40103,151.15309 C 179.22516,151.79562 179.55855,152.66224 179.14188,153.0789 C 178.72522,153.49557 179.233,154.76986 180.27028,155.91066 C 181.30757,157.05147 182.69267,159.66048 183.34828,161.70847 L 184.54029,165.4321 L 189.72145,162.7594 C 192.57108,161.28942 195.23321,159.61379 195.63729,159.03578 C 196.04137,158.45777 196.37887,158.31937 196.38729,158.72824 C 196.40211,159.44764 200.51045,156.25654 202.78562,153.75841 C 210.2424,145.5709 218.13836,133.4103 219.00812,128.77407 C 219.83731,124.35413 218.75075,119.09226 216.63304,117.27222 C 215.6813,116.45425 211.68931,115.02467 207.76196,114.09536 L 200.62132,112.40571 L 193.76196,115.12228 C 184.59377,118.75323 182.38142,120.29129 180.76617,124.15713 C 178.59317,129.35785 179.04019,131.33848 182.90111,133.61647 C 184.82529,134.75177 186.14874,136.08659 185.8421,136.58275 C 184.74561,138.3569 181.70701,137.43226 178.12639,134.23485 C 172.73166,129.41749 172.71269,125.09431 178.05858,118.77935 C 184.72131,110.90884 191.4571,108.06103 202.7247,108.35081 C 209.23577,108.51827 215.09137,110.8242 220.4026,115.31237 C 223.89808,118.26616 223.9026,118.281 223.9026,126.80303 C 223.9026,135.23007 223.8498,135.41095 219.6526,141.36161 C 217.3151,144.67565 215.4026,147.70431 215.4026,148.09198 C 215.4026,148.47965 213.6026,150.56128 211.4026,152.71782 C 209.2026,154.87436 207.4026,157.02865 207.4026,157.50512 C 207.4026,157.9816 206.42713,159.05469 205.23488,159.88977 C 203.19528,161.31836 203.13664,161.72066 204.24273,166.69647 C 205.53073,172.4906 205.17259,182.83081 203.61699,184.7632 C 201.47992,187.4179 201.21557,192.35965 203.04496,195.45657 C 204.02883,197.12212 205.11927,198.48485 205.46817,198.48485 C 205.81706,198.48485 207.97004,197.13203 210.25256,195.47858 C 213.52566,193.10756 214.4026,191.8397 214.4026,189.47858 C 214.4026,187.83203 214.80075,186.48485 215.28738,186.48485 C 215.774,186.48485 216.47393,184.06952 216.84276,181.11746 C 217.36021,176.97599 217.04392,174.41438 215.45799,169.90212 C 214.32752,166.68574 213.4026,163.2814 213.4026,162.3369 C 213.4026,160.29776 216.56653,159.08472 219.47632,160.00825 C 223.59526,161.31555 227.31178,158.60118 230.31198,152.09441 C 231.86136,148.73415 233.43168,144.63485 233.80158,142.98485 C 234.48697,139.92757 237.82068,130.63699 239.55816,126.94209 C 240.08647,125.81857 240.64964,124.24357 240.80963,123.44209 C 241.33186,120.82591 242.43745,118.06173 244.79221,113.48485 C 246.51086,110.14435 247.77687,108.90454 249.70555,108.6732 C 252.61003,108.3248 256.4026,109.99113 256.4026,111.61566 C 256.4026,112.1989 257.33106,113.98 258.46583,115.57366 C 259.60061,117.16731 260.24906,118.92427 259.90682,119.47803 C 259.56458,120.03178 259.7007,120.48485 260.20931,120.48485 C 260.75954,120.48485 260.80108,122.20604 260.31188,124.73485 C 258.95161,131.76638 259.27427,132.19078 262.4026,127.48485 C 264.04789,125.00985 265.39596,122.4912 265.39832,121.88786 C 265.40067,121.28452 266.3465,119.70952 267.50015,118.38786 C 268.65381,117.0662 270.51522,114.19491 271.63661,112.0072 C 272.75801,109.8195 274.72103,106.4445 275.99887,104.5072 C 277.93236,101.57589 278.2389,100.07791 277.8257,95.579952 C 277.55261,92.607262 277.0817,89.774642 276.77924,89.285242 C 275.58854,87.358652 276.33727,71.704942 277.82441,67.433852 C 278.6764,64.986902 279.38004,62.174002 279.38805,61.182962 C 279.4162,57.696782 283.76765,51.708682 287.45507,50.081802 C 295.76921,46.081717 300.67375,52.315519 302.4026,60.222442 C 302.4026,65.406152 300.3984,75.594772 299.00691,77.484852 C 298.39954,78.309852 296.7893,81.234852 295.4286,83.984852 C 294.0679,86.734852 291.39054,91.234852 289.47891,93.984852 C 285.03998,100.37053 284.61321,106.18764 288.0409,113.58596 C 289.33984,116.38957 290.4026,119.37697 290.4026,120.22462 C 290.4026,121.63041 292.04488,125.55576 296.23607,134.16769 C 297.40037,136.56006 298.17219,137.14334 299.34383,136.5163 C 300.20116,136.05748 301.1276,135.66675 301.4026,135.64801 C 304.36172,135.44642 305.16809,133.91791 305.77814,127.35405 C 306.13714,123.49129 307.09951,119.03785 307.91674,117.45751 C 308.73396,115.87717 309.4026,113.42788 309.4026,112.01463 C 309.4026,107.41889 315.93505,99.059562 319.11209,99.589762 C 322.1863,100.1028 324.65345,99.241592 325.10991,97.496092 C 325.39595,96.402282 326.00608,95.739792 326.46576,96.023882 C 326.92544,96.307982 327.59936,94.952922 327.96336,93.012642 C 328.32736,91.072352 328.92277,89.484852 329.28649,89.484852 C 329.6502,89.484852 330.7555,88.022352 331.7427,86.234852 C 334.17351,81.833422 339.55962,78.574162 345.17556,78.106332 C 351.29106,77.596882 353.35928,78.673572 357.07081,84.298872 C 359.99155,88.725622 360.1722,89.565712 360.33622,99.484852 C 360.4544,106.63217 360.05453,111.10241 359.08389,113.48485 C 358.29961,115.40985 357.57616,120.26604 357.47623,124.27639 C 357.3763,128.28673 356.64446,135.26173 355.84993,139.77639 C 355.0554,144.29104 354.40472,149.71989 354.40397,151.84051 C 354.40322,153.96112 353.7476,158.23612 352.94703,161.34051 C 351.2738,167.82892 350.37496,173.18114 349.94192,179.23485 C 349.7747,181.57235 349.54461,183.59735 349.43059,183.73485 C 349.31658,183.87235 349.01208,186.45985 348.75393,189.48485 C 348.49578,192.50985 347.83512,196.55985 347.28581,198.48485 C 346.33203,201.82722 343.52537,220.10101 342.83171,227.48485 C 342.65087,229.40985 342.05348,242.90985 341.50418,257.48485 C 340.95488,272.05985 340.00949,285.6784 339.40331,287.74829 C 338.79714,289.81817 338.5262,291.87581 338.80122,292.32082 C 340.31236,294.76588 332.78664,320.60874 327.71886,330.377 C 325.89492,333.89269 324.4026,337.38913 324.4026,338.14687 C 324.4026,342.14973 314.16365,353.98469 306.33964,359.02542 C 299.96041,363.13532 296.56086,363.37718 287.4026,360.37267 C 276.63186,356.83916 273.07703,355.14141 269.24227,351.6995 L 265.58194,348.41414 L 262.82856,350.96589 C 261.3142,352.36935 255.98635,355.58393 250.98889,358.10941 C 245.99143,360.63488 240.46736,363.57236 238.71317,364.63714 C 236.85532,365.76484 233.7241,366.5697 231.21317,366.56496 C 218.78925,366.54152 210.89143,368.06256 208.07667,371.02082 C 205.35465,373.88161 197.56473,374.35578 172.9026,373.16187 z M 203.63833,366.09865 C 207.15281,363.84648 213.68351,362.4299 224.75167,361.51894 C 233.11241,360.83081 235.78438,360.18315 239.9026,357.84649 C 242.6526,356.28615 246.10241,354.32896 247.56884,353.49718 C 253.5182,350.12262 261.4026,343.33 261.4026,341.57903 C 261.4026,340.56553 260.71494,337.78726 259.87446,335.4051 C 259.03399,333.02293 258.55728,330.52415 258.81511,329.85225 C 259.07294,329.18036 258.86754,327.36032 258.35867,325.80773 C 254.65588,314.51038 252.99974,304.14349 252.66023,290.13737 C 252.36528,277.96928 252.58025,274.86267 253.85146,272.92255 C 254.70459,271.62052 255.4026,269.67008 255.4026,268.58825 C 255.4026,265.0129 265.21266,239.48485 266.58661,239.48485 C 267.03541,239.48485 267.4026,238.81366 267.4026,237.99332 C 267.4026,237.17298 268.3026,235.93974 269.4026,235.25278 C 270.5026,234.56582 271.4026,233.50271 271.4026,232.89033 C 271.4026,232.27794 272.52858,230.56194 273.90478,229.077 C 275.28098,227.59206 277.07181,225.16385 277.88441,223.68098 C 279.77761,220.22616 282.98164,216.48826 284.06289,216.473 C 284.52473,216.46649 286.61709,213.99149 288.71258,210.973 C 290.80807,207.95452 292.94655,205.48485 293.46477,205.48485 C 293.98298,205.48485 295.89905,203.90297 297.72269,201.96957 L 301.0384,198.45429 L 300.81797,182.19572 C 300.63436,168.65249 300.22389,164.70695 298.36018,158.57111 C 295.97703,150.7251 292.24331,145.3579 291.57662,148.81976 C 287.85604,152.10607 284.12621,156.06263 282.4026,161.46931 C 282.4026,163.54382 274.30498,170.26753 271.05286,170.89336 C 264.74914,172.10643 263.81129,171.94626 258.46143,168.74289 C 252.19774,164.99235 251.03447,164.74961 251.86501,167.36643 C 252.24191,168.55391 251.89787,169.46455 250.9324,169.83504 C 250.0888,170.15876 249.4026,171.61765 249.4026,173.08745 C 249.4026,176.55312 247.31796,183.48485 246.2757,183.48485 C 245.83002,183.48485 245.71231,184.12835 246.01412,184.91486 C 246.31593,185.70136 245.91863,187.83886 245.13123,189.66486 C 244.34383,191.49085 243.11725,195.23485 242.40549,197.98485 C 241.69373,200.73485 240.08291,206.80985 238.82589,211.48485 C 237.56887,216.15985 235.58911,223.58485 234.42643,227.98485 C 233.26374,232.38485 230.94069,240.16217 229.26409,245.26778 C 226.52043,253.62282 226.36007,254.77232 227.6597,256.76778 C 228.45388,257.98717 229.90668,264.86746 230.88815,272.05732 C 232.44979,283.49726 232.5447,287.68085 231.64814,305.55732 C 230.82657,321.93886 230.19574,327.24588 228.46318,332.35157 C 227.27492,335.85327 226.52462,338.9402 226.79585,339.21143 C 227.06707,339.48266 226.25529,341.34263 224.99188,343.34471 C 223.72848,345.34679 222.35107,348.06872 221.93097,349.39344 C 221.51087,350.71817 218.7052,354.20567 215.69615,357.14344 C 209.79379,362.90599 205.99597,364.00015 203.2304,360.73485 C 201.23301,358.37655 196.67783,347.46888 195.85199,343.06679 C 194.98077,338.42277 197.36343,315.78464 199.06699,312.52042 C 199.7948,311.12586 200.39305,308.24525 200.39644,306.11906 C 200.40412,301.29804 202.76028,293.97007 207.07797,285.33862 C 208.90652,281.68319 210.4026,277.79383 210.4026,276.69561 C 210.4026,275.59738 210.9651,274.48222 211.6526,274.21747 C 212.3401,273.95273 213.53724,271.54208 214.31292,268.86048 C 215.08859,266.17888 216.55109,262.41651 217.56292,260.49966 C 218.57474,258.5828 219.4026,255.62698 219.4026,253.93116 C 219.4026,248.23759 215.51456,237.3322 209.26079,225.48485 C 208.24466,223.55985 205.72337,218.60985 203.65794,214.48485 C 198.78977,204.76235 198.03338,204.61749 195.82603,212.98485 C 195.18268,215.42358 194.3411,221.38717 193.99146,225.98485 C 193.28932,235.21806 192.19915,241.93648 190.1782,249.48485 C 189.07381,253.60985 187.83775,259.00985 187.43141,261.48485 C 187.02507,263.95985 186.14389,267.33485 185.47324,268.98485 C 184.80258,270.63485 183.34397,275.80884 182.23189,280.48261 C 181.11981,285.15638 178.86548,291.85594 177.22228,295.37053 C 175.57908,298.88511 174.07941,302.48612 173.88969,303.37277 C 173.69996,304.25941 172.66792,306.78485 171.59627,308.98485 C 170.52462,311.18485 168.40484,315.68485 166.88566,318.98485 C 163.28758,326.80071 160.79356,329.48485 157.12942,329.48485 C 155.52091,329.48485 152.67615,330.21027 150.80773,331.09689 C 144.72719,333.9823 139.81397,332.01074 134.33022,324.48485 C 129.96641,318.49596 129.17756,315.3145 129.57086,305.29015 C 130.02045,293.83133 131.38,290.87327 137.68456,287.6367 C 142.42209,285.2046 142.44935,285.16229 140.61918,283.08332 C 137.64526,279.70512 135.81867,276.32125 134.08852,270.98485 C 131.46798,262.90218 129.19092,250.29324 129.80097,247.243 C 130.8942,241.77685 135.72668,230.95744 138.17929,228.48485 C 139.54318,227.10985 141.83032,224.40985 143.26183,222.48485 C 146.90152,217.59043 149.98511,214.74754 153.70647,212.8555 C 155.46434,211.96175 157.02101,211.13182 157.16573,211.01121 C 157.31045,210.89061 156.70163,209.05143 155.81279,206.92415 C 153.70349,201.87588 154.42568,196.81558 158.35818,189.08903 C 162.41488,181.11847 165.8428,178.91923 174.15138,178.95668 C 177.58821,178.97218 180.40071,178.62079 180.40138,178.17583 C 180.40205,177.73087 180.8526,177.64493 181.4026,177.98485 C 182.85299,178.88124 182.68055,177.99737 179.9026,170.29624 C 178.5276,166.48442 177.4026,162.26747 177.4026,160.92525 C 177.4026,159.58303 176.98877,158.48485 176.48297,158.48485 C 175.97717,158.48485 174.8497,156.34735 173.97747,153.73485 C 173.10525,151.12235 171.46342,147.63485 170.32897,145.98485 C 169.19453,144.33485 166.74927,139.72601 164.89507,135.74298 C 162.35301,130.28236 161.13994,128.64841 159.9632,129.09997 C 159.10487,129.42934 158.4026,130.00463 158.4026,130.37838 C 158.4026,130.75214 156.16807,132.72617 153.43697,134.76513 C 150.70587,136.80408 144.90293,143.09478 140.54153,148.74447 C 136.18014,154.39416 130.99434,160.16742 129.01753,161.57394 C 122.89812,165.92796 111.64908,181.50205 105.60737,193.98485 C 102.58457,200.23028 98.435465,217.98207 97.894335,226.98485 C 97.729035,229.73485 97.085475,235.58485 96.464185,239.98485 C 93.693405,259.60763 94.759005,303.0258 98.289805,314.37026 C 99.273575,317.53114 102.02692,323.01251 104.40833,326.55108 C 109.34713,333.88973 120.0486,347.0028 123.54814,350.0041 C 125.96759,352.07909 133.5102,356.94591 134.4026,357.00787 C 134.6776,357.02696 136.7026,358.2289 138.9026,359.67886 C 141.1026,361.12881 145.6026,362.85209 148.9026,363.50837 C 152.2026,364.16465 155.41538,365.11668 156.04212,365.62398 C 157.5239,366.8234 183.66634,368.42976 193.63833,367.93413 C 198.05759,367.71449 202.3448,366.92758 203.63833,366.09865 z M 213.03302,352.31693 C 216.60926,348.51031 222.47384,338.25993 222.88051,335.10502 C 223.03082,333.93893 223.44261,331.85985 223.79559,330.48485 C 224.14857,329.10985 224.62769,326.63485 224.86031,324.98485 C 225.09293,323.33485 225.55545,320.40985 225.88812,318.48485 C 226.2208,316.55985 226.66302,310.48485 226.87083,304.98485 C 227.07864,299.48485 227.50592,293.85985 227.82034,292.48485 C 228.13476,291.10985 227.95389,287.50985 227.4184,284.48485 C 226.88291,281.45985 226.2312,277.40985 225.97014,275.48485 C 224.59539,265.34745 221.46091,258.61656 220.61475,263.98485 C 220.44136,265.08485 219.90178,266.88485 219.41567,267.98485 C 216.11419,275.45568 214.33116,280.09453 213.94718,282.21204 C 213.70321,283.55744 213.04775,285.2075 212.49059,285.87883 C 211.93343,286.55017 210.81866,289.62915 210.01333,292.72102 C 209.20801,295.81289 208.1282,299.1621 207.61377,300.16372 C 207.09933,301.16534 206.40693,304.39499 206.07509,307.34073 C 205.74325,310.28646 205.0101,313.25286 204.44585,313.93274 C 203.88161,314.61261 203.61575,315.36467 203.85506,315.60397 C 204.09437,315.84328 203.8214,318.05188 203.24847,320.51196 C 202.18264,325.08844 202.03412,326.20164 200.97993,337.51479 C 200.48149,342.86384 200.73595,344.79915 202.38703,348.21648 C 203.49559,350.51095 204.4026,352.99498 204.4026,353.73654 C 204.4026,354.47811 204.92154,355.60379 205.5558,356.23805 C 207.00671,357.68896 208.9372,356.6766 213.03302,352.31693 z M 301.0995,355.51721 C 308.67385,351.85768 317.32566,342.00176 320.09287,333.88046 C 321.00725,331.19689 322.54301,327.64755 323.50567,325.99305 C 324.46832,324.33854 325.56403,321.29735 325.94057,319.23485 C 326.3171,317.17235 326.9775,315.48485 327.4081,315.48485 C 327.83871,315.48485 328.19992,314.47235 328.21078,313.23485 C 328.23101,310.93061 329.82949,303.33974 331.42211,297.98485 C 331.91285,296.33485 332.60443,291.83485 332.95896,287.98485 C 333.31349,284.13485 334.07195,280.41211 334.64442,279.71209 C 335.28222,278.93218 335.47192,275.32673 335.13432,270.40121 C 334.8313,265.98024 334.96175,259.35298 335.42421,255.67397 C 335.88667,251.99495 336.49608,244.02407 336.77846,237.9609 C 337.06084,231.89773 337.62605,226.04773 338.03447,224.9609 C 338.70502,223.17656 338.60598,223.12413 337.01362,224.42055 C 334.74759,226.26542 333.73659,224.84339 332.79359,218.48485 C 331.93156,212.67226 327.75349,203.14995 326.42532,203.97081 C 325.86282,204.31845 325.4026,204.18092 325.4026,203.66519 C 325.4026,203.14945 324.03742,202.16201 322.36886,201.47088 C 319.03007,200.0879 309.75781,200.72964 308.02374,202.46371 C 307.04103,203.44642 306.29143,221.80091 306.47169,240.46678 C 306.55524,249.11855 304.45221,268.48485 303.42915,268.48485 C 303.11841,268.48485 302.77323,271.07235 302.66209,274.23485 C 302.44284,280.47344 302.08663,283.15911 301.16996,285.48485 C 299.28082,290.27789 298.4026,294.28272 298.4026,298.10444 C 298.4026,302.35684 294.16255,313.48485 292.54227,313.48485 C 292.10133,313.48485 291.12717,314.72235 290.37748,316.23485 C 287.76645,321.50256 276.96365,336.01021 272.94715,339.64296 L 268.9026,343.30107 L 271.72744,346.27579 C 274.43101,349.12282 277.75803,351.07523 285.4026,354.30089 C 287.3276,355.11315 289.5776,356.13537 290.4026,356.57248 C 292.9871,357.94184 296.87491,357.5583 301.0995,355.51721 z M 273.4276,330.80359 C 277.13899,326.57655 285.4026,314.11143 285.4026,312.74008 C 285.4026,312.24807 286.47728,310.9111 287.79078,309.76903 C 289.10427,308.62696 290.73792,305.95831 291.4211,303.83869 C 292.10428,301.71908 293.01523,299.53485 293.44542,298.98485 C 293.87562,298.43485 294.90993,293.70985 295.7439,288.48485 C 296.57786,283.25985 297.51233,277.40985 297.82049,275.48485 C 298.12866,273.55985 298.81419,269.88972 299.3439,267.329 C 299.87361,264.76829 300.57419,254.19329 300.90073,243.829 C 301.46681,225.86218 301.4598,221.44202 300.85263,213.48485 C 300.70575,211.55985 300.5444,209.43758 300.49408,208.76868 C 300.39713,207.47986 291.4026,213.04028 291.4026,214.38903 C 291.4026,214.8084 289.87608,216.68902 288.01034,218.56818 C 286.14459,220.44735 283.63644,224.08746 282.43666,226.65732 C 281.23687,229.22717 278.71339,232.91737 276.82892,234.85775 C 274.94444,236.79813 273.4026,238.64886 273.4026,238.97047 C 273.4026,239.29208 272.62753,240.73812 271.68023,242.18388 C 269.86503,244.95423 267.84269,250.12886 263.74624,262.48485 C 260.76054,271.49053 260.4415,272.87929 260.23288,277.7782 C 260.14403,279.86454 259.76653,281.75993 259.39399,281.99017 C 258.7293,282.40097 259.11165,293.89726 259.86371,296.11351 C 260.07436,296.73428 259.87163,298.90524 259.4132,300.93787 C 258.74815,303.88661 259.16379,306.36157 261.46967,313.18327 C 263.05917,317.88562 264.3263,322.68966 264.28553,323.85892 C 264.24476,325.02818 264.47183,327.10985 264.79013,328.48485 C 265.10843,329.85985 265.63656,332.21939 265.96374,333.72828 C 266.45445,335.99128 266.87119,336.30444 268.34347,335.5165 C 269.32513,334.99113 271.61299,332.87032 273.4276,330.80359 z M 147.81197,327.74215 C 148.22046,327.33366 150.37371,326.54616 152.59697,325.99215 C 155.83771,325.18459 157.06195,324.19172 158.77093,320.985 C 159.94335,318.78509 161.2401,316.83509 161.6526,316.65167 C 162.0651,316.46825 162.4026,315.71283 162.4026,314.97295 C 162.4026,314.23306 162.9651,313.03306 163.6526,312.30628 C 166.87324,308.9016 180.4145,273.8744 180.3942,269.00076 C 180.38503,266.79872 182.81279,255.82345 185.01308,248.12002 C 185.77732,245.44436 186.4026,241.73186 186.4026,239.87002 C 186.4026,238.00817 186.78576,236.48485 187.25407,236.48485 C 187.72238,236.48485 188.38427,232.77235 188.72495,228.23485 C 189.06563,223.69735 189.61276,218.85985 189.9408,217.48485 C 191.37745,211.46314 193.44453,196.0365 192.97776,194.82011 C 192.69594,194.08572 193.00137,193.48485 193.65649,193.48485 C 194.31161,193.48485 193.73498,192.7131 192.37511,191.76984 C 191.01523,190.82658 189.0774,189.29551 188.06882,188.36746 C 184.88632,185.43905 178.39983,184.38127 171.93722,185.73682 C 166.50563,186.87611 166.01811,187.22767 163.30102,191.96456 C 159.7215,198.20497 159.45292,203.84506 162.57691,207.1704 C 163.77279,208.44335 165.14101,209.48485 165.61741,209.48485 C 167.20515,209.48485 172.4026,213.8419 172.4026,215.17291 C 172.4026,215.89448 172.9077,216.48485 173.52504,216.48485 C 174.31925,216.48485 174.2966,216.90764 173.44758,217.93065 C 172.55568,219.00532 171.60912,219.13367 169.76004,218.43065 C 165.82631,216.93505 159.14263,217.33752 156.29546,219.24144 C 151.05781,222.74388 142.2294,232.08801 140.47614,235.98485 C 135.43912,247.18025 135.11319,248.39345 135.73412,253.63617 C 136.07255,256.49371 136.81141,259.29366 137.37602,259.85827 C 137.94064,260.42289 138.4026,262.28969 138.4026,264.00671 C 138.4026,268.7147 141.41374,276.69373 144.16825,279.28471 C 145.64553,280.6743 147.66001,281.50516 149.25793,281.38391 C 154.58411,280.97979 156.94857,281.52819 158.14584,283.44532 C 160.30097,286.89623 158.75865,288.22761 152.08875,288.67402 C 144.88626,289.15608 137.4026,293.14265 137.4026,296.49739 C 137.4026,297.5905 136.98057,298.48485 136.46475,298.48485 C 135.94893,298.48485 135.53025,299.27235 135.53434,300.23485 C 135.53843,301.19735 135.3324,304.23485 135.07649,306.98485 C 134.46113,313.59745 136.68466,320.04295 141.19978,324.73485 C 144.77463,328.44966 146.37609,329.17802 147.81197,327.74215 z M 228.44361,229.24666 C 229.51206,223.58918 232.20992,215.58037 233.56788,214.03485 C 234.02698,213.51235 234.4026,211.57027 234.4026,209.71911 C 234.4026,207.86795 234.87949,205.46229 235.46236,204.37319 C 236.04522,203.2841 237.43233,198.79359 238.54482,194.39429 C 239.65731,189.99499 241.20265,185.17815 241.97891,183.6902 C 242.75516,182.20226 243.39305,180.04735 243.39644,178.90152 C 243.39983,177.75568 243.7401,176.48068 244.1526,176.06818 C 244.5651,175.65568 244.92866,175.01818 244.96052,174.65152 C 244.99237,174.28485 245.60017,170.69486 246.31117,166.67376 C 247.02218,162.65266 247.37586,158.49061 247.09714,157.42476 C 246.81841,156.3589 246.9471,155.26636 247.38312,154.99689 C 247.81913,154.72742 248.46605,152.81447 248.82071,150.7459 C 249.39037,147.42326 250.06165,145.42497 253.44337,136.98485 C 254.41718,134.55443 255.67607,125.06738 255.55176,121.09604 C 255.4648,118.31816 252.98095,114.48485 251.26794,114.48485 C 250.10005,114.48485 246.4026,122.01067 246.4026,124.3878 C 246.4026,126.91546 241.29659,140.87491 240.20914,141.32026 C 239.75869,141.50474 239.61107,142.01314 239.88109,142.45005 C 240.15112,142.88696 239.27626,145.30533 237.93696,147.82421 C 236.59765,150.34309 235.67869,153.32218 235.89481,154.44442 C 236.11094,155.56666 235.8636,156.48485 235.34518,156.48485 C 234.82676,156.48485 234.4026,157.03032 234.4026,157.697 C 234.4026,159.58803 226.19274,167.48485 224.22675,167.48485 C 222.68086,167.48485 222.45627,168.60755 222.37635,176.73485 C 222.19641,195.03495 221.59277,196.20715 208.30873,204.05258 C 206.64421,205.03563 206.62148,205.35284 208.02212,208.05258 C 208.85882,209.66533 209.47022,210.98485 209.38079,210.98485 C 208.39739,210.98485 211.07493,218.78333 212.50163,220.07447 C 213.54716,221.02066 214.4026,222.62508 214.4026,223.63984 C 214.4026,224.65459 214.8526,225.48485 215.4026,225.48485 C 215.9526,225.48485 216.4026,226.63641 216.4026,228.04387 C 216.4026,229.45133 216.7868,230.36544 217.25637,230.07522 C 218.19431,229.49554 220.4026,233.70114 220.4026,236.06709 C 220.4026,236.88556 221.15062,238.69683 222.06486,240.09214 L 223.72711,242.62907 L 225.5885,238.56877 C 226.61226,236.33561 227.89706,232.14066 228.44361,229.24666 z M 340.45304,205.98485 C 341.65252,198.83485 342.81351,192.08485 343.033,190.98485 C 344.67359,182.76303 346.45263,169.71987 346.53635,165.29967 C 346.59173,162.37652 347.0284,159.49583 347.50674,158.89814 C 347.98508,158.30045 348.58107,154.5532 348.83117,150.57092 C 349.08127,146.58863 349.87465,142.60377 350.59425,141.71567 C 350.3852,139.69155 350.85167,135.70958 351.7283,131.48485 C 352.00897,127.35985 352.4683,122.40985 352.74904,120.48485 C 353.51838,115.20949 354.56956,107.35533 354.95735,103.98485 C 355.54245,98.899432 353.35545,87.694622 351.25706,85.026952 C 346.76435,79.315392 336.01613,85.298992 332.31246,95.573542 C 330.48663,100.63867 331.16973,104.6876 334.34999,107.65046 C 336.72324,109.86148 337.36593,118.51049 335.1526,118.45158 C 332.74855,118.3876 326.78686,111.72461 325.11645,107.23485 C 324.35667,105.19269 321.45597,104.94644 319.22679,106.73485 C 315.78445,109.49655 311.4026,121.77944 311.4026,128.66707 C 311.4026,132.30159 311.58364,132.5647 313.6526,131.93705 C 316.76928,130.99157 316.47833,130.99541 320.73618,131.84337 C 324.69059,131.89337 326.38925,134.5804 329.4377,136.50984 C 335.2523,140.65021 335.54544,151.53597 329.99084,157.05122 C 326.96357,160.05705 325.79972,160.01546 322.90552,160.4734 C 320.66431,161.14264 316.41309,159.08899 312.80372,156.62896 C 308.76072,153.59286 307.57557,151.94489 306.03478,147.21665 C 304.15324,141.44273 302.6468,140.28075 300.45955,142.91623 C 299.53522,144.02998 299.61189,145.41687 300.80506,149.16623 C 304.54675,160.92386 305.67253,167.58347 305.99483,179.86664 C 306.18073,186.95162 306.56684,192.98242 306.85285,193.26843 C 307.13885,193.55443 311.4402,194.12536 316.4114,194.53714 C 325.39193,195.28104 329.88367,196.96897 331.06333,200.04312 C 331.36762,200.83607 332.08132,201.48485 332.64935,201.48485 C 334.90386,201.48485 336.34019,205.21637 336.3708,211.15306 C 336.3999,216.79702 337.41773,222.21354 338.0209,219.93429 C 338.15909,219.4121 339.25355,213.13485 340.45304,205.98485 z M 199.60461,179.73485 C 201.02023,176.38963 201.25291,169.00183 199.98266,167.73158 C 199.2654,167.01432 186.4026,169.72828 186.4026,170.59688 C 186.4026,171.00669 186.97439,171.93664 187.67324,172.66342 C 188.37209,173.39021 190.6763,176.12235 192.7937,178.73485 C 194.9111,181.34735 196.95271,183.48485 197.33061,183.48485 C 197.70851,183.48485 198.73181,181.79735 199.60461,179.73485 z M 270.43009,165.78074 C 273.43892,163.70699 274.17519,162.82157 280.12942,154.11666 C 282.71326,150.33915 285.83435,146.78962 287.06518,146.22882 C 290.71738,144.56477 291.75479,139.90568 289.72808,134.26959 C 288.78177,131.63798 287.69736,129.48485 287.31829,129.48485 C 286.93921,129.48485 286.0761,126.55427 285.40026,122.97244 C 284.72442,119.39061 283.81571,116.24016 283.38091,115.97144 C 282.94611,115.70272 282.8256,114.58331 283.11311,113.48385 C 283.95453,110.26625 280.16599,111.00567 276.8179,114.71252 C 270.16586,122.07733 268.61016,124.6157 267.92166,129.22823 C 267.53115,131.84437 266.51535,135.33485 265.66433,136.98485 C 262.71741,142.69848 262.4026,143.4645 262.4026,144.92159 C 262.4026,145.72672 261.6151,146.84415 260.6526,147.40475 C 259.61545,148.00884 259.42611,148.43642 260.18778,148.45444 C 261.20676,148.47855 261.2259,148.94651 260.28017,150.71361 C 258.60969,153.83494 257.949,160.48485 259.30937,160.48485 C 259.91065,160.48485 260.4026,161.12719 260.4026,161.91227 C 260.4026,163.4852 265.00498,167.48485 266.81495,167.48485 C 267.4434,167.48485 269.07022,166.718 270.43009,165.78074 z M 326.27056,152.07686 C 328.18223,149.62267 328.26268,144.95082 326.435,142.5278 C 325.43119,141.19703 324.79358,139.62955 325.01808,139.04451 C 325.47001,137.86681 320.68466,137.37248 315.74037,138.08612 C 313.32573,138.43464 312.33327,139.24497 311.54239,141.5137 C 310.97273,143.14783 310.88445,144.48485 311.34621,144.48485 C 311.80798,144.48485 312.48518,145.67773 312.8511,147.1357 C 313.49164,149.6878 316.50714,152.7325 320.76187,155.12308 C 322.24287,155.9552 323.26155,155.96538 324.54966,155.16093 C 326.05718,154.35971 325.65911,153.36986 326.27056,152.07686 z M 121.01502,134.73485 C 123.13436,132.12235 125.21357,129.83485 125.63548,129.65152 C 126.0574,129.46818 126.4026,128.74069 126.4026,128.03487 C 126.4026,126.59148 130.49705,116.25835 131.37548,115.48485 C 132.33113,114.64336 134.4026,109.47887 134.4026,107.93779 C 134.4026,105.92423 133.1106,106.10238 126.80889,108.98485 C 123.80283,110.35985 120.70403,111.48485 119.92266,111.48485 C 119.14129,111.48485 118.14212,112.08452 117.70229,112.81747 C 117.26246,113.55041 114.3151,115.40321 111.1526,116.93482 C 107.9901,118.46642 105.4026,120.0846 105.4026,120.53077 C 105.4026,120.97694 104.80814,121.93664 104.08157,122.66342 C 102.56162,124.18382 99.402595,132.96052 99.402595,135.66299 C 99.402595,136.70427 100.15239,137.51539 101.1526,137.55613 C 104.69567,137.70045 110.84972,138.59863 111.28621,139.03513 C 111.53356,139.28247 112.95673,139.48485 114.44881,139.48485 C 116.47773,139.48485 118.13316,138.28731 121.01502,134.73485 z M 167.30821,115.82928 C 172.93237,111.67409 190.4026,93.331022 190.4026,91.581052 C 190.4026,91.069812 190.9651,90.384932 191.6526,90.059122 C 194.56628,88.678282 183.36752,90.564212 177.52233,92.438732 C 174.01318,93.564092 170.12712,94.484852 168.88664,94.484852 C 167.64615,94.484852 165.34228,95.157072 163.76691,95.978692 C 162.19154,96.800302 160.17006,97.475302 159.27472,97.478692 C 158.37939,97.482072 156.05629,98.149422 154.11229,98.961682 C 151.1989,100.17897 150.67264,100.83801 151.11782,102.71168 C 151.41488,103.96192 152.16297,105.43936 152.78026,105.99487 C 154.74174,107.76007 160.01211,114.91764 160.68848,116.73485 C 161.58441,119.14197 163.10615,118.9338 167.30821,115.82928 z M 286.4026,88.584852 C 286.4026,87.539852 288.0376,85.049852 290.03593,83.051512 C 292.03427,81.053182 293.42481,79.173722 293.12603,78.874952 C 292.82725,78.576172 293.40833,76.453672 294.41731,74.158282 C 295.42629,71.862892 296.56811,66.730242 296.95469,62.752382 C 297.7548,54.519362 296.78152,53.256822 291.36439,55.500672 C 285.94024,57.747432 283.80141,61.438692 282.88988,70.126282 C 281.48896,83.478212 282.18822,90.484852 284.92165,90.484852 C 285.73617,90.484852 286.4026,89.629852 286.4026,88.584852 z M 143.39345,82.484852 C 143.40526,81.109852 144.10687,78.657902 144.95258,77.036072 C 145.79829,75.414252 146.71764,72.153772 146.99558,69.790552 C 147.27351,67.427342 148.14515,63.951922 148.93256,62.067392 C 150.34983,58.675392 150.9158,55.692642 151.98627,45.974132 C 152.47032,41.579462 152.24788,40.710992 150.17703,38.910412 C 145.20102,34.583822 142.89419,35.486382 138.1584,43.612752 C 136.10665,47.133442 135.44193,49.645532 135.38,54.112752 C 135.24904,63.559882 136.46253,74.736232 137.98835,78.135982 C 138.76619,79.869102 139.4026,81.787702 139.4026,82.399542 C 139.4026,83.011392 139.94964,84.387932 140.61824,85.458532 C 142.06078,87.768412 143.36002,86.376262 143.39345,82.484852 z"
     id="path2384"
     style="fill:#000000" />
</svg>
