<?xml version="1.0" encoding="UTF-8" standalone="no"?>
<!-- Created with Inkscape (http://www.inkscape.org/) -->

<svg
   xmlns:dc="http://purl.org/dc/elements/1.1/"
   xmlns:cc="http://creativecommons.org/ns#"
   xmlns:rdf="http://www.w3.org/1999/02/22-rdf-syntax-ns#"
   xmlns:svg="http://www.w3.org/2000/svg"
   xmlns="http://www.w3.org/2000/svg"
   xmlns:sodipodi="http://sodipodi.sourceforge.net/DTD/sodipodi-0.dtd"
   xmlns:inkscape="http://www.inkscape.org/namespaces/inkscape"
   width="214.50032"
   height="100.00001"
   id="svg3992"
   version="1.1"
   inkscape:version="0.48.4 r9939"
   sodipodi:docname="Documento nuevo 11">
  <defs
     id="defs3994" />
  <sodipodi:namedview
     id="base"
     pagecolor="#ffffff"
     bordercolor="#666666"
     borderopacity="1.0"
     inkscape:pageopacity="0.0"
     inkscape:pageshadow="2"
     inkscape:zoom="1.979899"
     inkscape:cx="280.20585"
     inkscape:cy="-6.6750354"
     inkscape:document-units="px"
     inkscape:current-layer="layer1"
     showgrid="false"
     fit-margin-top="0"
     fit-margin-left="0"
     fit-margin-right="0"
     fit-margin-bottom="0"
     inkscape:window-width="1920"
     inkscape:window-height="1017"
     inkscape:window-x="-8"
     inkscape:window-y="-8"
     inkscape:window-maximized="1" />
  <metadata
     id="metadata3997">
    <rdf:RDF>
      <cc:Work
         rdf:about="">
        <dc:format>image/svg+xml</dc:format>
        <dc:type
           rdf:resource="http://purl.org/dc/dcmitype/StillImage" />
        <dc:title></dc:title>
      </cc:Work>
    </rdf:RDF>
  </metadata>
  <g
     inkscape:label="Capa 1"
     inkscape:groupmode="layer"
     id="layer1"
     transform="translate(109.14885,-646.41726)">
    <path
       style="font-size:medium;font-style:normal;font-variant:normal;font-weight:normal;font-stretch:normal;text-indent:0;text-align:start;text-decoration:none;line-height:normal;letter-spacing:normal;word-spacing:normal;text-transform:none;direction:ltr;block-progression:tb;writing-mode:lr-tb;text-anchor:start;baseline-shift:baseline;color:#000000;fill:#000000;fill-opacity:1;stroke:none;stroke-width:5;marker:none;visibility:visible;display:inline;overflow:visible;enable-background:accumulate;font-family:Sans;-inkscape-font-specification:Sans"
       d="m -64.959761,668.70301 c -0.351237,-0.0333 -0.734192,0.004 -1.131426,0.10949 -1.815932,0.48175 -3.895175,1.3028 -5.700928,2.48914 -1.805752,1.18635 -4.083549,3.61728 -3.985539,4.73739 0.09085,1.03828 0.992548,0.71833 1.139388,0.14135 0.44899,-1.76421 1.821326,-2.80529 3.488509,-3.9006 1.667183,-1.09531 3.648435,-1.88236 5.35785,-2.33585 0.573367,-0.15211 0.934012,-0.0861 1.189822,0.0657 0.255811,0.15183 0.446822,0.42018 0.562064,0.81754 0.230485,0.79472 0.05328,2.03517 -0.532865,2.96361 -1.051959,1.66626 -2.823839,3.38176 -4.635198,4.5841 -0.319632,0.008 -0.638251,0.004 -0.963537,0.0438 -2.004645,0.24557 -4.045863,1.01324 -5.306753,1.89057 -0.0041,0.003 -0.01049,0.004 -0.0146,0.007 -0.366107,0.23531 -0.611576,0.40991 -0.795648,0.59126 -0.09353,0.0922 -0.186457,0.1712 -0.255483,0.38688 -0.03451,0.10784 -0.05069,0.27279 0.0146,0.43797 0.06529,0.16518 0.196094,0.28133 0.29928,0.33578 0.206372,0.10889 0.329238,0.0975 0.445271,0.0949 0.116033,-0.003 0.22244,-0.0231 0.343078,-0.0438 0.241276,-0.0414 0.520522,-0.1089 0.832145,-0.19708 1.246492,-0.35272 3.005724,-1.00976 3.861448,-1.37231 0.642512,-0.27222 1.298009,-0.62334 1.941673,-1.02924 0.440646,0.0114 0.855002,0.0549 1.211721,0.15329 0.672054,0.1853 1.135591,0.50381 1.408808,1.01464 0.158104,0.2956 0.263224,0.62648 0.335778,0.97083 -4.06739,2.23344 -8.071696,4.52128 -11.963918,6.91265 -2.207853,1.35651 -4.823698,3.62051 -6.1243,5.86882 -0.6503,1.12415 -0.999876,2.30606 -0.605861,3.37968 0.394016,1.07362 1.499577,1.82003 3.270187,2.16796 1.107028,0.21753 2.323563,-0.10055 3.584065,-0.70806 1.260503,-0.60751 2.577307,-1.52098 3.883347,-2.59863 2.612077,-2.15529 5.163334,-4.97685 6.876151,-7.40171 0.811429,-1.14875 1.604498,-2.69938 2.036567,-4.32862 0.231741,-0.87385 0.348307,-1.77496 0.29928,-2.64973 6.458127,-3.52031 13.108448,-6.82999 20.04449,-9.75946 0.05196,-0.022 0.05946,-0.0213 0.08759,-0.0292 4.67e-4,0.005 -4.67e-4,0.002 0,0.007 0.02872,0.30361 -0.102172,1.05012 -0.372276,1.86138 -0.540204,1.62251 -1.587986,3.66014 -2.073064,4.27752 -0.548247,0.69777 -1.104172,1.43377 -1.656992,2.15336 -3.322217,2.77199 -10.923462,8.4489 -12.517677,13.6283 -0.280977,1.06343 1.507597,0.10489 2.559471,-0.71329 3.916177,-3.04612 6.979583,-7.14775 10.81225,-12.10477 2.00401,-1.65242 4.20784,-3.31631 6.416281,-4.69359 2.779325,-1.7333 5.474818,-3.00635 7.233828,-3.29208 0.213688,-0.0347 0.319146,-0.0118 0.372275,0.0146 0.05313,0.0263 0.09008,0.0587 0.138691,0.16788 0.09722,0.21832 0.136909,0.74198 0.0438,1.36502 -0.18622,1.24607 -0.813828,2.88531 -1.313914,3.83225 -1.222935,2.31569 -2.561995,4.10121 -3.795752,5.83961 -1.361206,1.50007 -2.900517,3.19737 -3.919844,4.35052 -1.73275,1.96023 -3.210853,4.022 -3.489172,4.6206 -0.278318,0.5986 -0.18342,1.66784 0.91974,0.67885 1.10316,-0.98899 5.155253,-5.6223 6.627967,-7.81779 0.232875,-0.34716 0.521011,-0.73877 0.77375,-1.09492 0.943299,-1.0397 1.621239,-1.7765 2.708123,-3.00011 6.784363,-7.6378 13.159456,-9.87634 15.248704,-10.24123 0.401478,-0.0701 0.570297,-0.009 0.583961,0 0.01366,0.009 0.03453,-0.008 0.0292,0.18249 -0.01065,0.38038 -0.355665,1.27287 -0.890541,2.21905 -1.069755,1.89236 -2.78522,4.12465 -3.430776,5.05857 -2.498824,3.61504 -6.57475,9.55492 -8.023713,11.75377 -1.277335,1.93841 1.073702,0.26673 3.114359,-2.56294 1.539165,-2.13427 3.384704,-4.92692 5.872891,-8.52657 0.587064,-0.84931 2.343929,-3.14048 3.481872,-5.15346 0.568973,-1.00649 1.020093,-1.91169 1.043832,-2.75922 0.01187,-0.42377 -0.146808,-0.91576 -0.547464,-1.18253 -0.400656,-0.26676 -0.884214,-0.2792 -1.438006,-0.18248 -2.23663,0.39063 -7.773271,2.40357 -13.949389,8.56234 0.03759,-0.0698 0.07944,-0.12635 0.116792,-0.19709 0.567404,-1.07441 1.212273,-2.74291 1.430707,-4.20453 0.109217,-0.7308 0.134848,-1.41678 -0.131391,-2.01466 -0.13312,-0.29894 -0.366098,-0.57857 -0.686156,-0.73726 -0.320057,-0.15869 -0.696033,-0.18651 -1.080329,-0.12409 -2.097857,0.34078 -4.821476,1.68695 -7.664499,3.45998 -1.148849,0.71647 -2.295772,1.53501 -3.430776,2.35774 0.58348,-1.0105 1.19473,-2.26878 1.620494,-3.54757 0.292275,-0.87785 0.495221,-1.66086 0.430672,-2.34314 -0.03227,-0.34115 -0.160562,-0.73684 -0.532865,-0.95624 -0.372304,-0.2194 -0.795749,-0.15297 -1.175224,0.007 -6.846777,2.89176 -13.420422,6.15131 -19.796306,9.61347 -0.09177,-0.3209 -0.197306,-0.6418 -0.357676,-0.94164 -0.447084,-0.83589 -1.245853,-1.33981 -2.131461,-1.584 -0.0532,-0.0147 -0.113926,-0.009 -0.167889,-0.0219 1.526904,-1.1857 2.925158,-2.61503 3.868747,-4.10963 0.76446,-1.21088 1.024325,-2.69619 0.671556,-3.91255 -0.176384,-0.60818 -0.527366,-1.16387 -1.087629,-1.4964 -0.280131,-0.16627 -0.605,-0.27327 -0.956237,-0.30658 z m -0.810247,14.24137 c -0.02259,0.55482 -0.0932,1.12367 -0.248184,1.70809 -0.387106,1.4597 -1.136957,2.92043 -1.868678,3.95634 -1.643418,2.32662 -4.151833,5.0949 -6.664465,7.16813 -1.256314,1.03662 -2.514939,1.8984 -3.649761,2.44534 -1.134823,0.54694 -2.131648,0.761 -2.846814,0.62046 -1.560708,-0.30668 -2.188864,-0.84389 -2.401543,-1.4234 -0.212679,-0.57952 -0.03613,-1.41596 0.525565,-2.38695 1.123389,-1.94196 3.660215,-4.19726 5.715527,-5.46004 3.723324,-2.28761 7.557417,-4.4861 11.438353,-6.62797 z m 13.686605,2.33585 c -2.159316,2.68689 -4.423651,5.28482 -6.971045,7.41631 1.695461,-2.81993 4.442004,-5.28077 6.971045,-7.41631 z"
       id="path3862"
       inkscape:connector-curvature="0"
       sodipodi:nodetypes="cssssssssscsccssssccsscsscssssssssccccssccscsscssscsssscssscssssssssscsssssscsssccsccssscccsssssssscccc" />
    <path
       style="font-size:medium;font-style:normal;font-variant:normal;font-weight:normal;font-stretch:normal;text-indent:0;text-align:start;text-decoration:none;line-height:normal;letter-spacing:normal;word-spacing:normal;text-transform:none;direction:ltr;block-progression:tb;writing-mode:lr-tb;text-anchor:start;baseline-shift:baseline;color:#000000;fill:#000000;fill-opacity:1;stroke:none;stroke-width:5;marker:none;visibility:visible;display:inline;overflow:visible;enable-background:accumulate;font-family:Sans;-inkscape-font-specification:Sans"
       d="m -4.4985825,649.44955 c -8.7721675,1.66698 -22.4156415,6.36386 -28.0903235,6.76913 -2.781962,0.19868 -2.11857,1.61137 -0.443865,1.57682 1.403272,-0.0289 14.423475,-4.16684 23.4524708,-6.46746 2.3351816,-0.59501 3.6683899,-1.18286 5.0817177,-1.87849 z"
       id="path3868"
       inkscape:connector-curvature="0"
       sodipodi:nodetypes="csssc" />
    <path
       style="font-size:medium;font-style:normal;font-variant:normal;font-weight:normal;font-stretch:normal;text-indent:0;text-align:start;text-decoration:none;line-height:normal;letter-spacing:normal;word-spacing:normal;text-transform:none;direction:ltr;block-progression:tb;writing-mode:lr-tb;text-anchor:start;baseline-shift:baseline;color:#000000;fill:#000000;fill-opacity:1;stroke:none;stroke-width:5;marker:none;visibility:visible;display:inline;overflow:visible;enable-background:accumulate;font-family:Sans;-inkscape-font-specification:Sans"
       d="m -46.762051,646.43946 c -0.596638,0.0908 -1.225406,0.43905 -1.919774,0.97814 -3.446445,2.67575 -5.705471,6.42248 -8.233862,10.06604 -8.760138,12.62389 -16.622287,23.01496 -24.832977,30.19813 -2.673403,2.33885 -6.034772,5.39137 -9.686467,7.46012 -3.651696,2.06874 -7.5227,3.14192 -11.336159,1.69348 -1.2136,-0.46095 -2.8171,-1.20361 -3.91255,-2.24825 -1.09544,-1.04464 -1.87891,-2.17516 -0.88612,-4.11615 0.43157,-0.84376 -0.37906,-1.84079 -0.9479,-0.71585 -1.37073,2.71072 -0.26862,4.43932 1.03108,5.67875 1.2997,1.23942 3.022,2.01124 4.29942,2.49643 4.239184,1.61014 8.510715,0.38514 12.321592,-1.77378 3.810876,-2.15892 7.231446,-5.26491 9.890853,-7.59151 8.352425,-7.30716 16.247407,-17.77129 25.022765,-30.41711 2.554702,-3.68148 4.763456,-7.30159 7.985678,-9.80326 0.792418,-0.61522 1.446326,-0.77792 1.620494,-0.75185 0.08708,0.013 0.0453,0.002 0.0584,0.0292 0.0131,0.0276 0.04737,0.16266 -0.0146,0.42337 -0.247889,1.04283 -2.311286,4.41129 -5.476824,6.5494 -1.289084,0.87069 -1.398525,2.21672 -0.257469,1.51967 3.87689,-2.36829 6.468497,-6.09723 6.873019,-7.79899 0.10113,-0.42544 0.107839,-0.83092 -0.0657,-1.19712 -0.173535,-0.3662 -0.562439,-0.62101 -0.948938,-0.67886 -0.193249,-0.0289 -0.385083,-0.0303 -0.583962,0 z"
       id="path3872"
       inkscape:connector-curvature="0"
       sodipodi:nodetypes="sssssssssssssssscsssssss" />
    <path
       style="font-size:medium;font-style:normal;font-variant:normal;font-weight:normal;font-stretch:normal;text-indent:0;text-align:start;text-decoration:none;line-height:normal;letter-spacing:normal;word-spacing:normal;text-transform:none;direction:ltr;block-progression:tb;writing-mode:lr-tb;text-anchor:start;baseline-shift:baseline;color:#000000;fill:#000000;fill-opacity:1;stroke:none;stroke-width:5;marker:none;visibility:visible;display:inline;overflow:visible;enable-background:accumulate;font-family:Sans;-inkscape-font-specification:Sans"
       d="m 17.632801,667.59712 c -0.877368,1.11689 -3.221017,4.46656 -5.130012,6.85062 -1.07797,1.0302 -2.20275,2.05038 -3.3650914,3.022 -3.9357627,3.28998 -7.9930362,6.07993 -9.64268174,7.10244 -2.49816546,1.54845 -9.62961486,5.2681 -13.35081586,6.0513 -1.362229,0.28671 -2.616231,0.0348 -3.124196,-0.61316 -0.253982,-0.32398 -0.394955,-0.76848 -0.291981,-1.4818 0.07581,-0.52517 0.365653,-1.23227 0.781049,-2.02197 2.027058,-0.0601 4.768695,-1.26292 7.7520934,-3.1388 3.0299328,-1.90513 6.2569761,-4.51948 8.93460468,-7.41631 1.15822992,-1.25303 1.99745322,-2.63073 2.46726222,-3.89795 0.4697856,-1.26721 0.627175,-2.43906 0.1386792,-3.33588 -0.2442362,-0.44841 -0.7032068,-0.78327 -1.2409189,-0.88324 -0.5377121,-0.1 -1.12998955,-0.007 -1.81028175,0.25548 -1.36058445,0.52421 -3.10256595,1.73003 -5.36516115,3.87605 -5.0240967,4.76526 -7.7467327,7.31859 -11.4018437,13.05885 -0.8219,1.29077 -1.271757,2.3865 -1.408808,3.33588 -0.137051,0.94938 0.05834,1.77634 0.525566,2.37234 0.934458,1.19201 2.662093,1.37807 4.28482,1.03654 4.1349451,-0.87028 11.1020374,-4.57998 13.7230918,-6.2046 1.5292092,-0.94785 4.8946515,-3.2768 8.4090507,-6.1024 -5.231177,6.58979 -10.4236724,13.32286 -14.562537,19.81091 -4.1899355,6.56811 -9.8612475,15.06991 -13.3435285,20.61385 -5.770786,9.18734 -9.77348,16.29947 -15.642878,24.59939 -0.306825,0.43922 -0.519682,0.69565 -0.700754,0.57666 -0.170433,-0.11199 -0.223793,-0.52952 -0.236238,-0.91974 -0.04978,-1.56087 -0.06868,-2.04159 0.288554,-3.87569 0.267078,-1.37122 0.37121,-1.67143 0.539616,-3.0078 -1.20839,2.00273 -1.93436,5.11046 -1.876653,6.91999 0.01444,0.45238 0.05993,0.852 0.16059,1.20442 0.100663,0.35242 0.253327,0.69878 0.620459,0.91244 0.367132,0.21367 0.85513,0.11984 1.189822,-0.10219 0.334692,-0.22203 0.63301,-0.55881 0.970837,-1.03653 5.906393,-8.35224 9.916338,-15.48711 15.672076,-24.65049 3.464791,-5.5161 9.1353288,-14.02126 13.3362336,-20.60656 5.14416664,-8.06395 11.9525545,-16.56459 18.4020864,-24.62129 2.616219,-2.48009 5.188291,-6.05459 5.678001,-7.22549 0.489734,-1.17091 -0.502768,-1.57416 -1.380112,-0.45727 z m -16.2836829,1.38327 c 0.2344957,0.0436 0.326715,0.12185 0.423349,0.29928 0.1933147,0.35486 0.2032654,1.26547 -0.2043867,2.36505 -0.4076287,1.09958 -1.17656631,2.37477 -2.23363069,3.51837 -2.59697181,2.80956 -5.76206841,5.36398 -8.70104331,7.21193 -2.4697054,1.55288 -4.7648114,2.53862 -6.3651844,2.83951 3.439134,-5.30653 6.0412187,-7.77439 10.9200986,-12.40189 2.2018164,-2.08838 3.87643216,-3.20335 4.97825139,-3.62786 0.55093297,-0.21226 0.94802701,-0.24799 1.18254611,-0.20439 z"
       id="path3874"
       inkscape:connector-curvature="0"
       sodipodi:nodetypes="scssssscssccscsssssscsscsssccsssssscsscccsscscc" />
    <path
       style="font-size:medium;font-style:normal;font-variant:normal;font-weight:normal;font-stretch:normal;text-indent:0;text-align:start;text-decoration:none;line-height:normal;letter-spacing:normal;word-spacing:normal;text-transform:none;direction:ltr;block-progression:tb;writing-mode:lr-tb;text-anchor:start;baseline-shift:baseline;color:#000000;fill:#000000;fill-opacity:1;stroke:none;stroke-width:5;marker:none;visibility:visible;display:inline;overflow:visible;enable-background:accumulate;font-family:Sans;-inkscape-font-specification:Sans"
       d="m 104.2432,668.51322 c -0.63694,0.74099 -0.96163,1.0725 -1.56941,1.6351 -1.82339,1.68779 -4.344282,3.47541 -6.963748,4.85418 -3.492606,1.83835 -7.186047,2.91955 -9.533177,2.37235 -0.335288,-0.0782 -0.478732,-0.18891 -0.554764,-0.29199 -0.07603,-0.10307 -0.123333,-0.23513 -0.102193,-0.48176 0.04225,-0.49327 0.413024,-1.32181 0.992735,-2.19716 0.259956,-0.39253 0.571582,-0.79962 0.890542,-1.20442 1.301627,-1.14619 2.720468,-2.66811 3.423465,-3.75196 0.50863,-0.78417 -0.318306,-1.29294 -0.970825,-0.64966 -0.865315,0.85305 -2.198897,2.19771 -3.313984,3.60597 -1.799677,1.56787 -3.851298,2.943 -5.934524,4.00744 -3.560789,1.81943 -7.141853,2.77375 -8.941904,2.64243 -0.699563,-0.051 -1.163859,-0.21265 -1.445306,-0.40148 -0.281446,-0.18883 -0.409287,-0.39122 -0.47448,-0.68615 -0.130364,-0.58987 0.137301,-1.60441 0.729952,-2.70083 0.254654,-0.4711 0.581603,-0.95723 0.919763,-1.438 1.558992,-1.38553 3.39373,-3.5602 3.890634,-4.27753 0.496882,-0.71732 -0.303473,-1.20235 -0.832145,-0.79564 -0.528696,0.4067 -2.664735,2.46442 -3.949054,4.28482 -1.364065,1.2013 -2.895236,2.35625 -4.54028,3.35048 -3.511316,2.12216 -7.467097,3.55642 -11.000393,3.50377 -0.485926,-0.007 -0.772792,-0.10944 -0.927051,-0.21898 -0.154236,-0.10955 -0.221322,-0.22369 -0.255472,-0.45257 -0.06832,-0.45778 0.174278,-1.34868 0.700754,-2.32855 0.514307,-0.95722 1.270398,-2.00442 2.080376,-2.96361 0.99409,-0.91275 1.907103,-1.74938 2.591319,-2.56943 0.684217,-0.82005 -0.162505,-1.38485 -0.868631,-0.78835 -0.706127,0.5965 -1.721029,1.52839 -2.569432,2.52564 -0.0065,0.008 -0.01542,0.0141 -0.02196,0.0219 -3.956809,3.59576 -10.081214,7.80232 -16.8473,8.48935 -1.012333,0.10279 -1.566559,-0.13289 -1.912475,-0.50367 -0.345916,-0.37078 -0.516923,-0.96591 -0.496368,-1.71539 0.02126,-0.7728 0.270562,-1.667 0.656958,-2.49643 0.424843,-0.4164 0.816635,-0.81501 1.080329,-1.18253 0.305412,-0.42565 0.485996,-0.69944 0.608465,-1.15307 0.09589,-0.35516 0.09542,-0.86987 -0.259653,-0.95364 -0.324052,-0.0765 -0.617061,0.24805 -0.992992,0.59675 -0.64703,0.60016 -1.030015,1.22253 -1.443484,2.07203 -0.962556,0.90602 -2.300833,1.93942 -3.715469,2.83221 -3.704,2.33766 -8.684493,4.80513 -11.657326,4.45271 -0.566046,-0.0671 -0.78926,-0.30381 -0.948938,-0.83215 -0.159679,-0.52833 -0.138493,-1.35276 0.08759,-2.24825 0.452197,-1.79097 2.266286,-4.11095 3.054331,-4.76242 0.788044,-0.65147 0.08271,-1.65747 -0.95966,-0.7799 -2.962532,2.49419 -8.585617,4.60106 -15.7739308,7.76139 l 0.4671695,1.06573 c 5.2284443,-2.29868 9.6109613,-3.98032 13.0223493,-5.90532 -0.404405,0.76628 -0.744948,1.55688 -0.941627,2.33585 -0.260096,1.03008 -0.32863,2.02292 -0.07302,2.86871 0.255635,0.84579 0.958374,1.54129 1.934385,1.657 3.695918,0.43813 8.635067,-2.2387 12.409189,-4.6206 0.86097,-0.54337 1.660788,-1.13915 2.408843,-1.72999 -0.0594,0.33132 -0.122539,0.66209 -0.131391,0.98544 -0.02602,0.94886 0.184088,1.87636 0.810235,2.54753 0.626171,0.67117 1.628436,0.99607 2.883323,0.86864 5.501925,-0.55867 10.496387,-3.24594 14.365462,-6.1462 -0.494686,0.97493 -0.836771,1.91134 -0.708042,2.77382 0.07073,0.47405 0.321809,0.93129 0.73724,1.22632 0.41543,0.29503 0.952605,0.42846 1.591296,0.43797 3.857722,0.0575 7.978484,-1.47029 11.620841,-3.67166 0.822685,-0.49721 1.607366,-1.04143 2.372356,-1.59859 -0.337156,0.83679 -0.506294,1.65931 -0.335801,2.43074 0.121721,0.55065 0.451987,1.05831 0.963537,1.40151 0.511574,0.3432 1.173717,0.53774 2.007381,0.59856 2.278105,0.1662 5.867999,-0.88256 9.555064,-2.76652 1.202798,-0.61458 2.394711,-1.34951 3.554879,-2.13876 -0.167924,0.40007 -0.295111,0.79299 -0.328467,1.18252 -0.03789,0.44209 0.0452,0.90325 0.321179,1.27742 0.275957,0.37417 0.713672,0.61604 1.233608,0.73725 2.907289,0.67779 6.728035,-0.57156 10.343413,-2.47454 1.228492,-0.64662 2.40027,-1.38766 3.525681,-2.15336 -1.733035,2.48663 -2.962251,4.69863 -3.883346,6.01481 0,0 1.145359,-0.72454 1.971548,-1.68752 0.82619,-0.96297 2.255381,-3.42778 5.598041,-7.196 0.0217,-0.0202 0.0368,-0.0382 0.0584,-0.0584 0.18479,-0.20726 0.39686,-0.41292 0.59127,-0.62045 0.3415,-0.34742 0.561,-0.59137 0.98543,-1.03654 0.55686,-0.58407 0.13027,-1.94192 -0.86132,-0.78835 z"
       id="path3880"
       inkscape:connector-curvature="0"
       sodipodi:nodetypes="ssssscscsscssscscsscssccscssccssccsssscssscsscccccsscccsccssscccsscccsscczcccss" />
  </g>
</svg>
