<?xml version="1.0" encoding="UTF-8" standalone="no"?>
<!-- Created with Inkscape (http://www.inkscape.org/) -->

<svg
   xmlns:dc="http://purl.org/dc/elements/1.1/"
   xmlns:cc="http://creativecommons.org/ns#"
   xmlns:rdf="http://www.w3.org/1999/02/22-rdf-syntax-ns#"
   xmlns:svg="http://www.w3.org/2000/svg"
   xmlns="http://www.w3.org/2000/svg"
   xmlns:sodipodi="http://sodipodi.sourceforge.net/DTD/sodipodi-0.dtd"
   xmlns:inkscape="http://www.inkscape.org/namespaces/inkscape"
   width="1119.2625"
   height="321.39276"
   id="svg2"
   version="1.1"
   inkscape:version="0.48.0 r9654"
   sodipodi:docname="Бранд.svg">
  <defs
     id="defs4" />
  <sodipodi:namedview
     id="base"
     pagecolor="#ffffff"
     bordercolor="#666666"
     borderopacity="1.0"
     inkscape:pageopacity="0.0"
     inkscape:pageshadow="2"
     inkscape:zoom="0.7147564"
     inkscape:cx="559.63123"
     inkscape:cy="160.69638"
     inkscape:document-units="px"
     inkscape:current-layer="layer1"
     showgrid="false"
     inkscape:window-width="1280"
     inkscape:window-height="968"
     inkscape:window-x="-4"
     inkscape:window-y="-4"
     inkscape:window-maximized="1"
     fit-margin-top="0"
     fit-margin-left="0"
     fit-margin-right="0"
     fit-margin-bottom="0" />
  <metadata
     id="metadata7">
    <rdf:RDF>
      <cc:Work
         rdf:about="">
        <dc:format>image/svg+xml</dc:format>
        <dc:type
           rdf:resource="http://purl.org/dc/dcmitype/StillImage" />
      </cc:Work>
    </rdf:RDF>
  </metadata>
  <g
     inkscape:label="Layer 1"
     inkscape:groupmode="layer"
     id="layer1"
     transform="translate(-386.27727,-869.52217)">
    <path
       style="font-size:medium;font-style:normal;font-variant:normal;font-weight:normal;font-stretch:normal;text-indent:0;text-align:start;text-decoration:none;line-height:normal;letter-spacing:normal;word-spacing:normal;text-transform:none;direction:ltr;block-progression:tb;writing-mode:lr-tb;text-anchor:start;baseline-shift:baseline;color:#000000;fill:#000000;fill-opacity:1;stroke:none;stroke-width:5.5;marker:none;visibility:visible;display:inline;overflow:visible;enable-background:accumulate;font-family:Sans;-inkscape-font-specification:Sans"
       d="m 1047.5977,869.52268 c -12.412,0.03 -25.0186,4.519 -38.125,9.6874 -27.96012,11.0258 -54.50916,31.0778 -70.99996,50.25 -36.46218,42.391 -64.10172,104.33082 -78.875,157.75002 -7.38664,26.7096 -11.86594,50.8924 -13.25,68.875 -0.69204,8.9914 -0.69332,16.3676 0.375,22.1876 0.53416,2.9098 1.2934,5.4426 2.75,7.75 1.4566,2.3072 4.13076,4.4984 7.3125,4.8124 5.11554,0.5048 9.88714,-1.4354 14.875,-4.375 4.98786,-2.9396 10.27718,-7.1086 15.8125,-12.1874 11.07062,-10.1578 23.19296,-24.0262 34.6875,-39.0626 11.49454,-15.0364 22.32536,-31.1878 30.6875,-45.9374 8.36214,-14.7498 14.3207,-27.814 15.8125,-38.0626 1.00054,-6.8736 -0.48008,-15.2988 -2.75,-25.0626 -2.26992,-9.7636 -5.5159,-20.6156 -8.875,-30.74982 -4.0218,-5.4636 -14.99766,-44.85 -21.0625,-41.0626 -4.30636,3.5188 8.47516,38.12 10.625,44.5626 3.2942,9.93842 6.47866,20.51802 8.625,29.74982 2.14634,9.2322 3.09186,17.3634 2.5625,21 -1.03952,7.1416 -6.4497,19.988 -14.5,34.1876 -8.0503,14.1996 -18.66698,30.0258 -29.875,44.6876 -11.20802,14.6616 -23.04392,28.1458 -33.375,37.625 -5.16554,4.7396 -9.97304,8.4758 -13.9375,10.8124 -3.47078,2.0456 -6.0298,2.7218 -7.4375,2.8126 -0.2949,-0.5548 -0.78162,-1.6294 -1.125,-3.5 -0.76062,-4.1438 -0.90016,-10.9276 -0.25,-19.375 1.30034,-16.8946 3.4495,-40.5778 10.6875,-66.75 14.47598,-52.3442 42.71894,-114.78142 77.3125,-155.00002 14.99912,-17.4382 41.5407,-36.9508 67.49996,-47.1876 12.9797,-5.1184 25.8168,-7.8908 36.8125,-7.375 10.9958,0.5158 20.0004,4.063 26.875,11.9376 8.0476,9.218 10.5328,22.0846 8.6875,37.0624 -1.8452,14.9778 -8.1755,31.686 -16.875,47.0626 -3.6897,6.5216 -7.8754,12.7302 -12.25,18.5624 -2.373,-2.1908 -5.1451,-3.8682 -8.125,-4.375 -4.0546,-0.6896 -8.0822,0.028 -12,1.375 -7.8354,2.6924 -15.5083,8.12122 -22.125,14.18762 -6.6167,6.0662 -12.1084,12.633 -14.93746,18.8748 -1.4145,3.1208 -2.49122,6.3544 -1.25,10.1876 0.62062,1.9166 2.08532,3.793 3.87496,4.875 1.7897,1.082 3.6929,1.4798 5.625,1.5624 12.5498,0.539 25.3843,-6.7856 37.625,-17.6874 3.3448,-2.9788 6.5884,-6.2906 9.8125,-9.8126 3.409,10.443 3.3218,22.9084 0.3125,36.4376 -2.1974,9.8796 -5.9814,20.1618 -10.625,30.3126 -3.8842,0.3786 -7.8023,1.1224 -11.625,2.3124 -13.141,4.0908 -25.8711,12.2944 -36.81246,21.9376 -10.94136,9.6434 -20.0547,20.651 -25.5,31.0624 -2.72266,5.2056 -4.55356,10.258 -5.0625,15.1876 -0.50894,4.9298 0.5286,10.1072 4,13.875 2.07128,2.248 4.98308,3.6184 7.875,3.9374 2.89192,0.319 5.71832,-0.2 8.5,-1.1874 5.56336,-1.9766 11.21738,-5.8202 17.24996,-11 12.0653,-10.3598 25.3909,-26.2942 36.9375,-44.6876 4.1637,-6.6326 7.9016,-13.6344 11.4375,-20.75 4.9456,0.3426 9.5559,1.8448 13.6875,4.75 5.8932,4.1438 6.7826,8.041 5.75,13.875 -1.0325,5.834 -5.0444,13.1374 -10.1875,19.9376 -10.2646,13.5724 -24.3786,25.077 -24.4375,25.125 l -0.062,0 c -2.2417,1.8162 -2.6288,5.5082 -0.8125,7.75 1.8163,2.2416 5.5084,2.6288 7.75,0.8124 17.7659,-14.4544 45.9115,-48.0332 74.125,-73.125 0.8788,5.9646 3.5941,11.5406 9.1875,15 9.0882,5.6208 20.4247,5.6256 31.9375,3.3126 0.658,-0.132 1.3394,-0.4144 2,-0.5626 -1.8403,3.163 -3.3567,6.335 -4.0625,9.5626 -0.8902,4.071 -0.5338,8.7282 2.25,12.3124 3.0438,3.919 8.1019,5.9376 12.625,5.375 4.5231,-0.5626 8.494,-2.8174 12.4375,-5.8124 1.977,-1.5012 3.9506,-3.792 5.9375,-5.6876 0.1408,0.9412 0.1116,1.8856 0.4375,2.8126 1.2892,3.6672 4.1044,6.7668 7.8125,8.875 7.9861,4.5406 17.4069,1.8078 27.1875,-2.4376 8.313,-3.6084 17.1348,-9.0248 25.6875,-14.75 -2.0419,3.2402 -3.8836,6.4288 -5.125,9.5626 -1.3948,3.5212 -2.333,7.034 -1.6875,10.8124 0.6456,3.7784 3.664,7.479 7.5,9 6.4988,2.5768 12.6245,-0.134 19,-3.4374 5.823,-3.0176 11.9092,-7.231 17.6875,-11.625 -0.7203,2.046 -1.4107,4.1116 -1.75,6.1874 -0.4425,2.7078 -0.5271,5.5092 0.3125,8.3126 0.8397,2.8032 2.8186,5.5262 5.5625,7.1874 4.9179,2.9772 10.5537,2.4722 16.4375,0.9376 5.8839,-1.5344 12.3549,-4.411 19.375,-8.125 3.7072,-1.9614 7.808,-4.6668 11.75,-7.0626 -0.3487,2.077 -0.3114,4.373 0.75,6.5626 1.1445,2.3606 3.2932,4.119 5.5625,5.0624 8.3406,3.4674 17.6344,0.132 28,-5 10.3657,-5.1328 21.8718,-12.9028 33.1875,-21.75 10.4453,-8.1666 20.5122,-17.1156 29.3125,-25.875 6.2496,6.7126 28.6447,31.1752 37.375,32.75 -5.1083,-12.3434 -22.3424,-28.6108 -29.6875,-40.9374 6.5919,-7.226 12.3214,-14.2004 15.625,-20.0626 14.8398,-26.333 28.9302,-52.4376 37.5,-73.25002 4.285,-10.4062 7.2454,-19.3984 8.125,-27 0.4398,-3.8008 0.3675,-7.3176 -0.6875,-10.625 -1.0549,-3.3074 -3.5208,-6.4122 -6.875,-7.9374 -9.0276,-4.1054 -19.2124,-0.728 -28.0625,6 -8.85,6.7278 -17.186,17.1042 -24.1875,29.8124 -14.7933,26.85122 -23.9143,50.68362 -22.0625,74.37502 l -0.125,0 c -1.4477,0.5424 -1.1077,0.5428 -1.4375,0.75 -0.3297,0.2072 -0.7447,0.4522 -1.1875,0.75 -0.8855,0.5956 -2.0031,1.4228 -3.4375,2.4376 -2.8688,2.0294 -6.8136,4.9042 -11.375,8.3124 -9.1227,6.8162 -20.8016,15.8476 -31.8125,25.25 -6.2069,5.3002 -11.986,10.6304 -17.1875,15.8126 -11.927,8.4706 -21.881,19.8594 -32.1875,25.3124 -6.5735,3.478 -14.1623,4.3198 -18.6875,5.5 -4.5251,1.18 -7.6107,-0.9502 -8.3125,-1.375 -0.5137,-0.311 -0.5763,-0.4202 -0.75,-1 -0.1738,-0.5798 -0.2635,-1.7624 0,-3.375 0.5271,-3.2252 2.4572,-7.8836 4.875,-12.375 4.8358,-8.9828 11.375,-17.3124 11.375,-17.3124 1.698,-2.1622 1.4107,-5.652 -0.625,-7.5 -2.0356,-1.8478 -5.5117,-1.7728 -7.5,0.124 0,0 -10.3363,10.023 -22.25,19.25 -5.9568,4.6134 -12.3393,8.9784 -17.6875,11.75 -5.3481,2.7718 -9.5322,3.136 -9.875,3 -1.0341,-0.41 -0.6526,-0.054 -0.75,-0.625 -0.097,-0.57 0.078,-2.453 1.0625,-4.9376 1.9684,-4.969 6.7394,-12.0948 12.1875,-18.9374 10.8963,-13.685 24.375,-26.625 24.375,-26.625 2.1276,-1.947 2.3223,-5.6852 0.375,-7.8126 -1.9473,-2.1274 -5.6854,-2.26 -7.8125,-0.3124 0,0 -0.1848,0.186 -0.1874,0.188 -0.3096,0.273 -14.7406,16.7734 -33.6875,29.9376 -9.5629,6.644 -19.0781,14.2006 -27.6875,17.9374 -8.6093,3.737 -17.9276,0.8388 -20.0625,-0.375 -1.9836,-1.1278 -2.5407,-1.9864 -2.875,-2.9374 -0.3343,-0.9508 -0.4047,-2.412 0.1874,-4.5626 1.1848,-4.3012 5.125,-10.7698 10.375,-17.75 10.5002,-13.9606 25.7176,-29.882 31.6875,-45.4376 0.8309,-2.1728 0.077,-4.8728 -1.75,-6.3124 -1.8272,-1.4396 -4.5819,-1.5038 -6.5,-0.188 -2.6532,1.8414 -4.1484,4.0026 -6.5,7.125 -0.5096,0.6766 -1.2037,1.7504 -1.75,2.5002 -0.2885,-0.07 -0.5975,-0.2108 -0.875,-0.25 -1.9171,-0.2728 -3.6396,-0.086 -5.375,0.3124 -3.4706,0.7986 -7.0646,2.45 -11,4.625 -7.8707,4.3502 -16.9792,11.0054 -25.5,18.5626 -4.2268,3.7486 -8.2759,7.746 -11.9375,11.75 -5.1781,1.9192 -10.3903,3.5236 -15.25,4.5 -10.0449,2.018 -18.5513,1.4322 -24,-1.9376 -4.2844,-2.6498 -5.2069,-6.2934 -4.1875,-12.875 0.3645,-2.3528 1.4615,-5.097 2.4375,-7.8124 7.3154,-8.255 15.3726,-17.1936 20.5625,-23.6252 4.1767,-5.1758 7.4876,-9.519 9.75,-13 1.1313,-1.7406 2.0372,-3.2528 2.6875,-4.8124 0.3252,-0.7798 0.6145,-1.53 0.75,-2.6876 0.1356,-1.1576 0.142,-3.1722 -1.4375,-5 -1.9656,-2.2746 -5.2915,-2.372 -6.9375,-1.9374 -1.6459,0.4346 -2.7721,1.0856 -3.9375,1.875 -2.3308,1.5786 -4.6801,3.7964 -7.3125,6.5624 -5.2647,5.5318 -11.3186,13.2934 -16.5,21.875 -2.9598,4.9026 -5.4186,10.074 -7.4375,15.2502 -3.9363,4.421 -10.5821,14.7648 -14.875,19.4374 -9.0158,9.8136 -12.9465,13.1868 -24.0625,22.1876 1.415,-8.7144 -1.496,-18.2824 -10.25,-24.4376 -4.6904,-3.298 -9.8766,-4.9704 -15.1875,-5.875 4.066,-9.4248 7.3955,-19.0384 9.5,-28.5 3.7968,-17.0696 3.4118,-33.7616 -3.1875,-47.9376 5.6306,-7.14602 10.9204,-14.98222 15.5625,-23.18742 9.2538,-16.3562 16.0352,-34.1616 18.125,-51.125 2.0899,-16.9634 -0.6579,-33.4832 -11.3125,-45.6876 -10.1716,-9.3564 -23.3032,-15.0184 -34.625,-15.6874 -0.8256,-0.038 -1.6725,-0.064 -2.5,-0.062 z m 440.8125,92.3124 c 0.4827,-0.036 0.9823,-0.024 1.4375,0 1.2139,0.064 2.363,0.3522 3.375,0.8126 0.5048,0.2294 0.5985,0.2496 0.9375,1.3124 0.3391,1.063 0.5168,3.1558 0.1874,6 -0.6582,5.6886 -0.2829,14.1248 -4.375,24.0626 -8.184,19.87542 -22.8542,47.35182 -37.625,73.56242 -2.1513,3.8176 -7.6587,10.157 -12.5,15.6876 -2.3858,-6.16 -5.0068,-15.0068 -5.5,-21.1876 -1.6202,-20.3048 6.3457,-42.1676 20.75,-68.31242 6.4236,-11.6594 14.1415,-20.971 21.25,-26.375 4.665,-3.5464 8.6836,-5.31 12.0625,-5.5626 z m -1036.43746,25.5626 c -8.6199,4.3354 -19.8934,37.27902 -23.875,46.18742 -7.6133,16.9754 -16.66368,36.0472 -24.4375,54.5 -7.77382,18.4528 -14.29916,36.2372 -16.5625,51.25 -1.13166,7.5064 -1.20694,14.3784 0.5,20.5 1.70694,6.1216 5.61944,11.511 11.5625,14.4376 9.624,4.739 20.41168,1.5448 30.125,-5 9.71332,-6.545 19.35078,-16.656 28.75,-28.4376 18.79844,-23.5632 36.60244,-53.8714 48.75,-74.875 2.21364,-3.8274 3.83468,-8.9872 5.5625,-15.1876 1.72782,-6.2002 3.43244,-13.2364 4.875,-19.9374 0.1298,-5.8554 6.92472,-21.8142 0.4375,-31.75002 -8.20418,3.65562 -11.15894,22.28682 -12.6875,29.43742 -1.41424,6.5696 -0.55526,13.4552 -2.1875,19.3126 -1.63224,5.8574 -4.46708,10.839 -5.5,12.625 -12.10038,20.922 -29.83338,50.8854 -47.875,73.5 -9.0208,11.3074 -16.66836,21.742 -24.75,27.1876 -8.08164,5.4454 -15.59454,5.727 -20.625,3.25 -3.14118,-1.5468 -4.80536,-3.7266 -5.875,-7.5626 -1.06964,-3.836 0.8202,-9.2938 1.8125,-15.875 1.9844,-13.1626 6.18002,-30.5076 13.8125,-48.625 7.63248,-18.1172 16.68102,-37.0946 24.375,-54.25 5.22608,-18.729 21.6778,-49.30062 13.8125,-50.68742 z m 589.62496,11.8124 c 2.3757,-0.106 4.9147,0.4922 6.0625,0.6876 1.4056,0.23902 0.6302,2.52662 1.5625,3.75002 -3.8959,4.521 -7.8042,8.7426 -11.8125,12.3124 -10.6947,9.5248 -21.3273,14.7184 -28.875,14.8124 0.082,-0.4354 -1.0665,-1.039 -0.6875,-1.875 -1.8542,-4.0772 5.7431,-10.727 11.5625,-16.0624 5.8195,-5.3354 14.4333,-11.3586 19.9375,-13.25002 0.6881,-0.2364 1.4581,-0.3398 2.25,-0.375 z m -249.49996,37.25002 c -1.4372,0.142 -2.16596,0.5742 -2.875,0.9374 -1.41808,0.7266 -2.56572,1.569 -3.9375,2.6876 -2.74356,2.2374 -6.12662,5.482 -10,9.5 -7.74674,8.036 -17.3722,19.1968 -26.25,31 -3.0393,4.0408 -5.7541,8.1672 -8.5,12.25 -12.74486,10.7848 -28.33146,27.327 -41.1875,36 -4.58344,3.0202 -13.08944,5.6422 -15.6875,4.1876 -0.0256,-0.094 -0.2229,-0.5216 -0.3125,-1.6876 -0.1344,-1.7488 0.1324,-4.6104 0.8125,-7.9374 1.36026,-6.6536 4.33376,-15.3246 7.6875,-23.75 6.70748,-16.8506 14.875,-32.75 14.875,-32.75 1.45664,-2.4872 0.54978,-6.1062 -1.9375,-7.5626 -2.48728,-1.4564 -6.10646,-0.4874 -7.5625,2 0,0 -12.5738,19.0924 -26.5,37.1876 -6.9631,9.0474 -14.2415,17.862 -20.25,23.6874 -3.00426,2.9126 -5.73578,5.0698 -7.5,6.0626 -0.1394,0.078 -0.1244,0.062 -0.25,0.124 0.004,-0.2198 -5.8e-4,0.2456 0.0624,-0.5 0.1756,-2.071 1.19682,-5.6222 2.9375,-9.75 3.48134,-8.2554 9.73462,-19.0286 16.5,-29.5 13.53076,-20.9424 29,-40.8752 29,-40.8752 1.4635,-1.9374 1.39702,-4.8578 -0.125,-6.75 -9.24918,-3.93 -75.61042,63.7468 -92.75,76.9376 -3.858,2.9292 -5.86392,3.5366 -8.625,4.5626 -2.76108,1.0258 -4.48316,0.9694 -5.75,0.5 -4.11526,-1.5252 -4.69088,-2.5942 -5,-4.375 -0.30912,-1.7806 -1.05068,-3.97 1.375,-8.9376 4.85138,-9.9352 15.45316,-24.1122 26.5,-40.9374 1.56226,-2.3274 0.9473,-5.8416 -1.3125,-7.5 0.112,-0.136 0.32786,-0.3034 0.4375,-0.4376 1.90776,-2.3356 3.46424,-4.4566 4.625,-6.4376 0.58038,-0.99 1.055,-1.948 1.4375,-3.0624 0.3825,-1.1144 0.90618,-2.4542 0.3125,-4.625 -0.6868,-2.5112 -3.2495,-4.8596 -5.5625,-5.5 -2.313,-0.6404 -4.25124,-0.3884 -6.1875,0.062 -3.8725,0.9024 -7.99818,2.917 -12.6875,5.6876 -9.37866,5.5412 -20.7441,14.3948 -31.4375,24.875 -10.6934,10.4802 -20.63048,22.4914 -26.6875,34.75 -6.05702,12.2586 -8.39426,25.596 -1.5625,36.5626 1.04374,1.6756 2.8355,3.2712 4.9375,3.9374 2.102,0.6662 4.18418,0.4164 5.875,-0.124 3.38166,-1.0848 5.92142,-3.174 8.75,-5.8124 5.65716,-5.2766 11.91464,-13.2464 18.6875,-22.1876 0.1216,-0.16 0.25308,-0.3388 0.375,-0.5 -0.0312,1.2024 -0.39842,2.4106 -0.1874,3.625 0.99592,5.7372 5.66952,10.4038 12,12.75 4.4033,1.632 9.10184,1.111 13.4375,-0.5 4.33566,-1.611 8.56222,-4.3032 12.9375,-7.625 8.75056,-6.6436 18.06734,-16.0958 27.75,-26.25 8.88336,-9.316 18.14912,-19.0108 27.125,-27.75 -2.42266,3.5448 -4.53268,6.2778 -6.9375,10 -6.9403,10.742 -13.40488,21.773 -17.375,31.1876 -1.98506,4.7074 -3.40172,8.9528 -3.75,13.0624 -0.34828,4.1096 0.77742,9.137 4.875,11.6876 2.03054,1.2642 4.4902,1.5026 6.4375,1.1874 1.9473,-0.3152 3.57032,-1.09 5.1875,-2 3.23438,-1.82 6.37496,-4.4778 9.75,-7.75 5.94252,-5.7614 12.47488,-13.5432 18.8125,-21.625 -1.46086,4.4222 -2.74516,8.752 -3.5625,12.75 -0.8014,3.9202 -1.20062,7.5164 -0.9375,10.9376 0.26312,3.421 1.30002,7.188 4.5625,9.625 4.60766,3.4418 9.81194,2.1292 14.75,0.25 12.9638,-5.6348 26.74306,-19.5514 36.9375,-27.6876 -1.33838,3.8384 -5.03838,12.9534 -5,16.5626 0.0522,4.9172 2.4459,10.2676 7.125,12.8124 4.8554,2.6406 9.8165,1.0698 14.5625,-1.125 4.746,-2.1948 9.8725,-5.627 15.375,-9.9374 3.238,-2.5364 6.7475,-5.8674 10.1875,-8.9376 -0.1158,0.3382 -0.3264,0.7268 -0.4375,1.0626 -1.96626,5.9412 -3.17288,11.4646 -3.1875,16.625 -0.6177,6.6776 7.71314,12.9676 13,13.5624 -0.0628,-5.566 -1.97646,-9.0182 -2,-13.5 0.01,-3.321 0.88332,-7.987 2.625,-13.25 2.54756,-7.698 7.04586,-16.772 12.0625,-25.9374 0.96356,-1.0192 1.98366,-1.9114 2.9375,-2.9376 11.6902,-12.578 22.49346,-25.5264 29.9375,-35.75 3.72202,-5.1118 6.61004,-9.539 8.4375,-13.1876 0.91374,-1.824 1.62852,-3.3478 1.9375,-5.375 0.1544,-1.0136 0.22906,-2.2526 -0.3125,-3.8124 -0.54156,-1.5598 -2.14528,-3.3004 -3.8125,-3.9376 -2.13602,-0.8166 -3.65766,-0.3106 -4.625,0.062 -0.96734,0.3736 -1.6185,0.8022 -2.25,1.25 -1.26298,0.8956 -2.4451,1.993 -3.75,3.3124 -2.6098,2.6394 -5.68974,6.2826 -9.1875,10.75 -6.9955,8.9354 -15.4696,21.0888 -23.1875,33.9376 -1.79818,2.9936 -3.31226,6.029 -5,9.0626 -10.33122,10.857 -21.06272,21.2272 -30.1875,28.375 -5.1128,4.005 -9.75886,7.0396 -13.1875,8.625 -3.00006,1.3874 -4.61934,1.218 -4.6875,1.3124 -1.07228,-0.5912 -1.35062,-0.895 -1.375,-3.1874 -0.025,-2.355 0.97082,-6.3054 2.9375,-10.9376 2.42478,-5.7112 6.44644,-12.4966 11.0625,-19.5 13.29632,-12.0618 25.89704,-24.6208 35.0625,-34.8124 4.66726,-5.19 8.45308,-9.7482 11.0625,-13.5002 1.3047,-1.876 2.31374,-3.5238 3.0625,-5.25 0.37438,-0.8632 0.71478,-1.708 0.875,-2.875 0.1602,-1.1666 0.1522,-2.867 -0.9375,-4.625 -1.28808,-2.078 -4.2503,-2.9548 -5.6875,-2.8124 z m -195.9375,18.75 c -3.31104,3.9098 -7.57758,8.5106 -12.5625,13.125 -5.50648,5.0972 -11.53134,10.0598 -17.0625,13.75 -3.31666,2.2128 -6.27752,3.7058 -8.8125,4.75 2.17992,-2.3904 4.1303,-4.926 6.4375,-7.1874 10.0953,-9.8942 21.07192,-18.3442 29.375,-23.2502 1.13742,-0.672 1.59816,-0.6574 2.625,-1.1874 z m 829.49996,20.3126 c 1.2153,4.7394 3.543,12.4932 5.75,17.1874 -8.8597,9.058 -18.9954,18.7926 -29.8125,27.25 -10.9125,8.532 -23.0149,15.5838 -32.3125,20.1876 -9.0396,4.4762 -16.4492,2.7626 -18.8125,2 0.3051,-1.23 1.7452,-4.1556 4.4375,-7.625 2.3231,-2.9938 5.7728,-6.5116 9.375,-10.125 2.9887,-2.1352 5.9902,-4.128 8.9375,-6.3126 15.2733,-11.3204 29.6958,-22.9746 40.0625,-31.75 5.1834,-4.3878 9.3178,-8.0548 12.125,-10.625 0.098,-0.09 0.1558,-0.102 0.25,-0.188 z m -850.74996,13.875 c -5.78914,7.6894 -11.67552,15.6608 -17.1875,22.9374 -6.66342,8.7968 -12.8879,16.5064 -17.4375,20.75 -1.6687,1.5564 -2.54052,2.0136 -3.375,2.5 -3.03308,-6.397 -2.07834,-14.4796 2.6875,-24.125 2.40152,-4.8604 5.73914,-9.9266 9.5625,-14.9374 9.08236,0.4214 18.09552,-1.7736 23.4375,-5.3126 0.77172,-0.5148 1.53638,-1.2646 2.3125,-1.8124 z m 628.56246,1.1874 c -1.7958,2.4714 -3.2958,4.7872 -5.125,7.1876 -7.5681,9.9312 -15.3591,18.8514 -21.5625,23.5624 -3.1016,2.3556 -5.7582,3.5176 -7.125,3.6876 -1.3667,0.17 -1.4884,0.2758 -2.625,-1.1876 -0.3981,-0.5126 -0.6369,-1.1954 -0.1874,-3.25 0.4494,-2.0546 1.7841,-5.05 3.9375,-8.375 1.837,-2.8364 4.4279,-5.984 7.1875,-9.125 4.9534,-1.9606 9.886,-4.0202 14.5625,-6.375 3.9006,-1.964 7.4012,-4.0612 10.9375,-6.125 z m -165.3125,2.8126 c -2.4397,4.5316 -4.9827,9.0038 -7.6875,13.3124 -11.0375,17.5824 -23.9126,32.9446 -34.74996,42.25 -5.41868,4.6528 -10.41076,7.7292 -13.8125,8.9376 -1.70088,0.6044 -2.97664,0.6964 -3.625,0.625 -0.64836,-0.072 -0.68708,-0.098 -1,-0.4376 -0.89968,-0.9764 -2.7345,-3.4358 -2.4375,-6.3124 0.297,-2.8768 0.90056,-7.1276 3.1875,-11.5 4.5739,-8.7454 13.63516,-20.0778 23.68746,-28.9376 10.0524,-8.8596 23.1472,-13.938 34.1875,-17.375 0.779,-0.2424 1.4833,-0.3582 2.25,-0.5624 z"
       id="path2996"
       inkscape:connector-curvature="0"
       sodipodi:nodetypes="cssssccssssssscccssssssccsssssssscsccssscccscsssscscsscssscccccsccccsccccsccssccsccccccccscccssssccsccssccscscccsscccsccccscscccccccscscccccccccssccccccsccccscscscsscccccscccsscsssccccsssccssscccsssccscscccccsccscccccsscccscscscsccccssccccccsccccssscssscscccccsssscssscssscsssccccsccccccsccsccsccsccscscccsccsccscccssccccccsscccssccccsccsccccccsccscccccssccsscscc" />
  </g>
</svg>
