<?xml version="1.0" encoding="UTF-8" standalone="no"?>
<!-- Created with Inkscape (http://www.inkscape.org/) -->

<svg
   xmlns:dc="http://purl.org/dc/elements/1.1/"
   xmlns:cc="http://creativecommons.org/ns#"
   xmlns:rdf="http://www.w3.org/1999/02/22-rdf-syntax-ns#"
   xmlns:svg="http://www.w3.org/2000/svg"
   xmlns="http://www.w3.org/2000/svg"
   version="1.1"
   width="480"
   height="299"
   id="svg3036">
  <metadata
     id="metadata3042">
    <rdf:RDF>
      <cc:Work
         rdf:about="">
        <dc:format>image/svg+xml</dc:format>
        <dc:type
           rdf:resource="http://purl.org/dc/dcmitype/StillImage" />
        <dc:title></dc:title>
      </cc:Work>
    </rdf:RDF>
  </metadata>
  <defs
     id="defs3040" />
  <path
     d="m 106.09395,276.48709 c -1.5741,-2.4821 -3.41695,-5.9696 -4.09522,-7.75 -0.67827,-1.7804 -1.85546,-4.6551 -2.615975,-6.38822 C 98.62224,260.61575 98,258.42202 98,257.47392 c 0,-0.94811 -1.091173,-4.2551 -2.424828,-7.34887 C 94.241516,247.03127 91.804981,240.9 90.160649,236.5 c -1.644332,-4.4 -3.637646,-8.13288 -4.429587,-8.29529 -1.559784,-0.31987 -27.818892,9.99767 -31.445879,12.35549 -4.238387,2.75528 -9.842724,0.76897 -7.684268,-2.72348 0.731845,-1.18415 17.724044,-9.21352 29.103384,-13.7523 9.038807,-3.60523 8.933775,-3.1495 3.476432,-15.08442 -0.880222,-1.925 -1.482224,-3.90876 -1.337781,-4.40836 0.144442,-0.4996 -0.15902,-1.1746 -0.67436,-1.5 -1.630092,-1.02929 -7.066449,-11.85699 -6.352164,-12.65173 0.375966,-0.41831 0.121074,-0.43686 -0.566426,-0.0412 -0.77308,0.44489 -1.25,0.12452 -1.25,-0.83967 0,-1.83145 -0.794836,-1.93935 -12,-1.62893 -10.767037,0.29828 -29,-3.45074 -29,-5.96291 0,-1.80234 16.833324,-10.12604 22.861769,-11.30464 4.455562,-0.87109 11.099608,2.08494 15.211053,6.76762 3.651821,4.15919 8.331369,4.95622 9.216927,1.56984 0.566109,-2.16481 3.631024,-2.67923 5.403343,-0.90691 1.857139,1.85714 20.893598,-2.79296 40.147078,-9.80686 19.23925,-7.00871 31.6985,-9.2781 30.98315,-5.64341 -0.40174,2.04126 -1.01312,2.33224 -13.32332,6.34104 -5.5,1.79107 -15.625,5.16349 -22.5,7.49427 -6.875,2.33078 -16.775,5.26057 -22,6.51064 -12.760559,3.05293 -12.534182,2.04778 -5.407738,24.01123 3.550155,10.94145 2.929332,10.5376 11.504008,7.48357 4.07205,-1.45033 12.32417,-4.10074 18.33805,-5.88979 7.82652,-2.32829 11.17952,-3.80233 11.79701,-5.18617 1.23396,-2.76542 7.42169,-6.74494 9.50571,-6.11342 0.96963,0.29383 3.22627,1.12181 5.01477,1.83994 2.99482,1.20252 3.37469,1.13027 4.8067,-0.91421 3.13446,-4.47506 13.91622,-2.04391 21.13726,4.76618 6.05697,5.71228 9.8479,4.45599 11.27388,-3.7361 2.14174,-12.30396 6.73835,-17.49883 15.80267,-17.85939 2.38086,-0.0947 5.12902,-0.89633 6.107,-1.7814 3.0068,-2.72112 4.76738,-1.89136 13.56004,6.39079 10.22326,9.62968 11.71287,9.92192 14.01738,2.75 4.37809,-13.6252 11.12594,-17.17926 19.39944,-10.21757 9.12931,7.68181 3.78978,18.92517 -10.11495,21.29889 -12.48038,2.13056 -3.96573,44.3134 9.63366,47.72664 11.92862,2.99389 22.56603,-11.83611 18.0333,-25.14087 -10.97744,-32.22162 25.71539,-66.86671 45.53115,-42.99018 1.74754,2.10565 2.72055,1.98167 3.35041,-0.42691 1.62772,-6.22443 5.63963,-2.07289 10.17267,10.52671 16.55639,46.01861 41.25972,51.33134 46.16677,9.9287 1.56146,-13.1746 -0.58875,-15.9501 -12.40147,-16.00789 -16.87995,-0.0826 -28.56922,-6.25863 -34.31667,-18.13128 -7.84379,-16.2031 25.89019,-15.97106 42.86624,0.29486 2.51928,2.4139 4.61251,4.38827 4.65161,4.38749 0.0391,-7.7e-4 0.13996,-3.79927 0.22411,-8.4411 0.38115,-21.02287 13.79535,-31.65866 24.70237,-19.58589 10.36142,11.46885 6.40938,25.97868 -9.63082,35.35934 -7.45305,4.35871 -7.39757,3.96271 -2.18324,15.58177 5.09134,11.34504 14.39073,17.08729 27.6723,17.08729 14.32265,0 20.86453,-9.12766 13.98536,-19.51331 C 416.24345,170.92741 407.60971,103.96549 415.01783,80.5 421.86162,58.822071 445.08244,39.482445 453.8,48.2 c 1.9556,1.955596 1.42862,2.508966 -3.05,3.202781 C 430.33367,54.565617 417.55106,76.334797 417.51678,108 c -0.0193,17.83429 0.57409,21.63198 4.00294,25.61848 3.58409,4.16699 15.48028,43.1548 15.48028,50.73407 0,1.72521 9.82827,16.6898 16.78538,25.55754 9.38492,11.96229 2.60049,13.18113 -8.73896,1.56998 -7.34396,-7.51993 -7.34396,-7.51993 -9.05201,-4.75 -9.70349,15.73607 -38.39781,11.88079 -52.07229,-6.99628 -2.80542,-3.87277 -2.80542,-3.87277 -3.42118,-0.0533 -5.93882,36.8378 -28.37088,45.77169 -46.4631,18.50459 -5.46215,-8.23212 -5.46215,-8.23212 -6.81398,-1.54335 -4.90759,24.28247 -26.55789,33.36166 -46.20087,19.37462 -3.48045,-2.4783 -5.01574,-2.55934 -5.04635,-0.26637 -0.19743,14.79104 -22.72264,23.43349 -35.55206,13.64057 -2.54161,-1.94006 -4.82166,-3.32682 -5.06679,-3.0817 -0.24512,0.24513 -1.4384,2.41155 -2.65173,4.81429 -5.49814,10.88785 -21.18445,12.18421 -35.49697,2.93358 -6.07832,-3.9286 -6.07832,-3.9286 -6.75158,-0.74267 -2.49619,11.81225 -14.29826,16.35306 -28.14998,10.83062 -5.19246,-2.07015 -5.19246,-2.07015 -7.57869,0.76571 -3.99022,4.74211 -10.67694,6.67661 -14.56313,4.21317 C 138.87823,268.30745 142.96457,264 145.02628,264 145.78314,264 149,256.75982 149,255.05636 c 0,-0.49674 -1.48451,-2.85014 -3.29891,-5.22976 -1.81439,-2.37963 -4.17689,-5.9016 -5.25,-7.8266 -1.0731,-1.925 -3.17953,-5.05404 -4.68096,-6.95342 -1.50143,-1.89939 -2.30585,-3.71549 -1.7876,-4.03578 1.44695,-0.89427 0.0333,-4.95411 -1.51777,-4.3589 C 131.12998,227.1641 128,218.86839 128,214.8185 c 0,-2.37303 0.0375,-2.37811 -11.55352,1.56615 -25.249523,8.59207 -23.966057,6.3492 -15.36882,26.85715 2.70729,6.45799 4.92234,12.00309 4.92234,12.32243 0,0.31934 2.25815,5.43999 5.01811,11.37922 5.41952,11.66241 5.56478,14.05655 0.85288,14.05655 -2.36664,0 -3.45346,-0.849 -5.77704,-4.51291 z m 73.98174,-19.07343 c 6.61715,-7.05939 -0.60647,-43.20283 -8.99775,-45.02028 -4.78185,-1.03569 -12.58269,-4.41737 -17.09448,-7.41049 -5.79514,-3.84449 -6.67867,-3.76092 -3.55369,0.33615 7.18901,9.42527 8.92652,15.81087 9.16455,33.68096 0.21977,16.5 0.21977,16.5 4.47001,18.75 6.07352,3.21521 12.81504,3.0736 16.01136,-0.33634 z m 40.85658,-4.6784 c 6.19949,-3.14849 9.91164,-15.25029 8.02288,-26.15503 -0.57922,-3.34413 -1.44991,-8.4074 -1.93487,-11.25172 -1.49213,-8.75142 -5.56588,-15.74709 -11.21477,-19.25863 C 210.16152,192.56138 210,192.51413 210,194.37139 c 0,2.90792 -7.68512,9.83157 -15,13.51374 -8.63447,4.34644 -9.031,5.30841 -7.0169,17.02286 3.47102,20.18818 20.18922,34.30757 32.94917,27.82727 z m -68.19608,-19.1244 C 151.91893,214.68964 146.47109,202 139.1652,202 c -2.95359,0 -4.27772,2.03033 -2.49002,3.81804 1.39548,1.39548 1.3892,1.66171 -0.0643,2.72453 -4.89179,3.57696 3.09914,24.94646 13.87415,37.10247 2.20646,2.48926 2.7524,-0.4292 2.25114,-12.03418 z M 149,231 c 0,-0.73333 0.3,-1.03333 0.66667,-0.66667 0.36666,0.36667 0.36666,0.96667 0,1.33334 C 149.3,232.03333 149,231.73333 149,231 z m 161.73321,1.32821 c 19.62473,-15.88361 6.46501,-56.32971 -17.17428,-52.78478 -10.59444,1.58874 -23.38679,15.98537 -18.66571,21.00657 1.28955,1.37154 3.10678,10.78766 3.10678,16.09809 0,15.28648 20.86847,25.28305 32.73321,15.68012 z M 132.5,224 c -0.33992,-0.55 -0.84303,-1 -1.11803,-1 -0.275,0 -0.22189,0.45 0.11803,1 0.33992,0.55 0.84303,1 1.11803,1 0.275,0 0.22189,-0.45 -0.11803,-1 z m 32.05887,-20.5318 c -1.06762,-0.80751 -2.41762,-1.45225 -3,-1.43276 -0.58238,0.0195 0.0661,0.67854 1.44113,1.46456 3.23925,1.85173 4.02785,1.83564 1.55887,-0.0318 z M 192.07891,202 c 1.62848,0 8.91863,-7.18187 9.00004,-8.86636 0.0506,-1.04647 0.26098,-1.18212 0.58541,-0.37741 0.69573,1.72568 2.33564,0.53633 2.33564,-1.69393 0,-4.96048 -9.54985,-4.90756 -13.25781,0.0735 -2.7393,3.67978 -3.73618,12.45965 -1.30894,11.52823 C 190.38493,202.29879 191.57547,202 192.07891,202 z M 381,194.5 c 0,-0.275 -0.225,-0.5 -0.5,-0.5 -0.275,0 -0.5,0.225 -0.5,0.5 0,0.275 0.225,0.5 0.5,0.5 0.275,0 0.5,-0.225 0.5,-0.5 z m -136.49513,-4.50508 c 3.55437,-3.70996 1.38162,-9.8969 -2.6094,-7.43032 -1.26036,0.77895 -4.89547,8.02388 -4.89547,9.75689 0,2.23256 4.46226,0.84922 7.50487,-2.32657 z M 77.162413,189.51489 C 76.407408,186.69182 74,184.74069 74,186.95185 c 0,1.2914 3.106508,6.27497 3.602392,5.77909 0.182311,-0.18231 -0.01568,-1.62953 -0.439979,-3.21605 z M 249,186.5 c 0,-0.275 -0.225,-0.5 -0.5,-0.5 -0.275,0 -0.5,0.225 -0.5,0.5 0,0.275 0.225,0.5 0.5,0.5 0.275,0 0.5,-0.225 0.5,-0.5 z M 62.769549,181.56378 C 64.523711,179.80962 56.266756,175 51.501123,175 c -4.546535,0 -13.989817,3.91131 -12.658223,5.2429 2.102983,2.10298 22.043711,3.20382 23.926649,1.32088 z m 305.228231,-4.54125 c 3.43956,-2.17436 -4.45251,-11.57392 -12.67815,-15.09984 C 345.87535,157.87439 332,157.53023 332,161.34426 c 0,9.12333 27.45292,21.08002 35.99778,15.67827 z m 19.9424,-6.48476 c 8.97363,-5.66481 12.6265,-16.12793 8.13019,-23.28777 -5.15458,-8.20804 -13.99287,-2.18861 -15.00793,10.22134 -1.27001,15.527 -0.21004,17.54074 6.87774,13.06643 z M 75.928488,127.28145 C 61.019544,111.15536 32.413267,50.946689 38.975601,49.505359 43.187619,48.580245 43.397197,48.84065 48.038343,60.766022 53.321044,74.339865 70.57728,108.08627 73.725504,111 74.444635,111.66557 73.204263,96.071842 71.502382,83.051331 68.573272,60.641709 75.072151,29 82.603965,29 c 2.663795,0 2.68896,3.057537 0.08079,9.815712 -5.440195,14.096379 -6.703937,24.139879 -5.040259,40.05709 0.644494,6.166184 0.644494,6.166184 3.006028,2.690873 3.903792,-5.744946 11.224282,-6.051522 18.155092,-0.76032 1.942744,1.483155 4.895754,3.146645 6.562254,3.696645 2.85,0.940599 3.16442,1.577109 5.29315,10.715533 3.66549,15.735557 6.61885,20.034237 13.08898,19.051237 2.76685,-0.42036 3.25,-0.19019 3.25,1.5483 0,5.12956 -8.31302,7.08635 -13.33222,3.13825 -2.60193,-2.04668 -2.60193,-2.04668 -4.17299,1.7134 -3.91036,9.3588 -15.15205,10.92858 -22.195829,3.09941 -1.770587,-1.968 -1.806845,-1.93856 -2.298959,1.86717 -0.669095,5.17438 -5.071883,5.9743 -9.071512,1.64815 z M 99.116001,116.25 c 0.0638,-2.0625 0.321797,-2.9625 0.573325,-2 0.965994,3.6965 2.317194,1.49983 2.460444,-4 0.26644,-10.22945 0.0894,-11.290126 -2.549333,-15.277595 C 96.476045,90.251131 96.446659,90.042537 99,90.710251 c 3.04605,0.796559 2.39561,-1.155717 -1.534796,-4.606659 -3.61167,-3.171088 -8.131107,-4.281291 -7.163488,-1.759716 0.360936,0.940584 -0.148177,1.216969 -1.696496,0.920989 -7.757486,-1.482937 -4.28942,25.488505 4.176394,32.480165 4.186937,3.45787 6.195843,2.98373 6.334387,-1.49503 z M 101.18333,92.783333 C 100.46577,92.065771 100,92.006729 100,92.633333 c 0,1.334781 1.18261,2.517391 1.85,1.85 0.28417,-0.284166 -0.0158,-1.049166 -0.66667,-1.7 z m 39.61325,32.402137 c -3.13742,-3.2019 -6.74283,-10.65122 -6.77462,-13.9974 -0.0328,-3.44907 -4.97694,-13.333931 -6.26969,-12.534962 -0.70695,0.436915 -0.85794,0.06464 -0.4281,-1.055493 0.41184,-1.073252 -0.663,-4.231141 -2.83006,-8.314748 -3.80269,-7.165764 -4.32175,-10.028043 -1.98138,-10.926127 2.25178,-0.864087 4.41545,1.423838 7.11133,7.519706 2.41312,5.456487 2.41312,5.456487 5.24321,1.040021 9.37429,-14.628945 18.71247,-12.361721 25.0567,6.083533 5.04215,14.65961 10.21678,20.42698 16.12997,17.97766 5.81356,-2.40806 6.23069,-4.83963 2.06855,-12.058133 C 169.71598,84.339915 167.84253,77.000899 170.49144,69.025783 176.24193,51.712678 191.5,68.761503 191.5,92.5 c 0,17.70839 7.822,26.17839 22.18634,24.02433 5.65419,-0.8479 7.04388,1.59065 2.92536,5.13325 -5.06511,4.35682 -22.38193,0.0539 -27.75242,-6.89604 -1.64071,-2.12324 -1.64071,-2.12324 -4.77943,0.51782 -9.6089,8.08535 -21.7934,2.37851 -28.08687,-13.15502 -5.5556,-13.71233 -6.32847,-15.233519 -8.2666,-16.270778 -8.47989,-4.538297 -10.9969,14.239468 -3.8587,28.787148 6.32019,12.88058 4.69282,18.46823 -3.0711,10.54476 z m 41.35467,-45.344572 c -1.47307,-2.977337 -1.61524,-3.849188 -0.56173,-3.444918 2.0447,0.784624 1.74644,-0.266726 -1.1547,-4.070323 -5.93364,-7.779406 -3.84419,9.522483 2.29249,18.983123 1.84151,2.838965 1.31481,-7.646084 -0.57606,-11.467882 z m 85.05371,39.326162 c -7.40307,-2.64275 -12.62473,-7.06195 -13.01832,-11.01768 -0.43214,-4.3432 1.64516,-4.1193 7.93904,0.85573 10.16069,8.03156 22.60686,6.58217 24.49377,-2.85237 0.91652,-4.58257 -8.41084,-13.590709 -21.1827,-20.457763 -12.36448,-6.64801 -18.47217,-10.438018 -21.64061,-13.428639 -12.11055,-11.43088 -1.22551,-23.894061 15.43362,-17.671243 11.2249,4.192923 15.46788,7.144498 14.3728,9.998239 -0.7738,2.016482 -3.41195,1.439156 -12.02973,-2.632546 -6.86947,-3.245668 -8.72033,-3.502535 -13.42361,-1.862963 -5.67338,1.977751 0.41354,9.456296 13.35078,16.403112 26.1975,14.067083 34.70504,23.218336 31.88956,34.302473 -2.17591,8.56623 -14.54752,12.51786 -26.1846,8.36365 z m -38.09542,-0.25018 c -2.90087,-1.16055 -8.81074,-3.74316 -11.8065,-5.15943 -2.52557,-1.19399 -3.49215,-3.10107 -2.66467,-5.25745 0.82907,-2.16052 2.55563,-1.87918 9.20543,1.5 14.55826,7.39798 26.56666,-0.28308 15.86313,-10.1467 C 235.78571,96.239786 217.81771,84 216.43429,84 c -5.6629,0 -12.60691,-13.257771 -10.09403,-19.271927 3.33191,-7.974397 16.71069,-8.56393 22.6616,-0.998578 3.43653,4.368835 1.29522,5.444871 -5.50186,2.764756 -1.6455,-0.648828 -1.77844,-0.549821 -0.75,0.55857 2.63839,2.843501 1.10024,3.643572 -1.67308,0.870256 -3.29875,-3.298753 -3.83551,-3.42126 -6.41762,-1.464712 -3.85613,2.921927 2.26022,9.710382 18.74976,20.810108 19.04677,12.821087 23.18729,21.610687 13.98589,29.689617 -3.70796,3.25563 -12.64963,4.21349 -18.28541,1.95879 z M 357.5,116.10193 c -8.65052,-2.31562 -17.08962,-8.46579 -21.57494,-15.72319 -2.69776,-4.36506 -3.34485,-4.258684 -4.86016,0.79896 -9.61399,32.08867 -54.50401,-4.925936 -47.21167,-38.928953 3.2381,-15.098734 14.56421,-20.643244 29.3137,-14.350041 6.2843,2.681336 6.69503,2.737177 7.15638,0.972945 C 320.59251,47.842243 320.40489,47 319.90638,47 319.40787,47 319,46.55 319,46 c 0,-0.55 0.48214,-1 1.07143,-1 0.58928,0 1.72731,-0.65588 2.52894,-1.45751 7.42428,-7.424288 16.29113,14.365779 13.59155,33.400943 -2.16433,15.261087 15.06429,34.899447 28.67885,32.690117 4.67211,-0.75818 13.45891,-6.73022 20.18093,-13.716177 10.33087,-10.736521 9.76731,-1.605817 -0.61353,9.940177 -7.57864,8.42927 -18.37743,12.53597 -26.93817,10.24438 z M 320.32517,101.0254 c 10.6466,-12.652761 3.366,-45.013036 -11.22439,-49.889335 -22.29754,-7.452127 -26.9215,24.636605 -6.84506,47.502405 5.60617,6.38507 13.79502,7.4668 18.06945,2.38693 z M 328.22528,53.25 C 327.98369,52.5625 327.33602,52 326.78602,52 c -0.55,0 -0.72685,0.711804 -0.39301,1.581787 0.33385,0.869984 0.65185,2.557484 0.70667,3.75 0.0908,1.975297 0.16486,1.945776 0.83227,-0.331787 0.40293,-1.375 0.53493,-3.0625 0.29333,-3.75 z m 1.44139,3.083333 C 329.3,55.966667 329,56.266667 329,57 c 0,0.733333 0.3,1.033333 0.66667,0.666667 0.36666,-0.366667 0.36666,-0.966667 0,-1.333334 z"
     id="path3046"
     style="fill:#000000" />
</svg>
