<?xml version="1.0" encoding="UTF-8" standalone="no"?>
<!-- Created with Inkscape (http://www.inkscape.org/) -->

<svg
   xmlns:dc="http://purl.org/dc/elements/1.1/"
   xmlns:cc="http://creativecommons.org/ns#"
   xmlns:rdf="http://www.w3.org/1999/02/22-rdf-syntax-ns#"
   xmlns:svg="http://www.w3.org/2000/svg"
   xmlns="http://www.w3.org/2000/svg"
   xmlns:sodipodi="http://sodipodi.sourceforge.net/DTD/sodipodi-0.dtd"
   xmlns:inkscape="http://www.inkscape.org/namespaces/inkscape"
   id="svg2"
   version="1.1"
   inkscape:version="0.91 r13725"
   width="468"
   height="325"
   viewBox="0 0 468 325"
   sodipodi:docname="vechyaslav fetisov2.svg">
  <metadata
     id="metadata8">
    <rdf:RDF>
      <cc:Work
         rdf:about="">
        <dc:format>image/svg+xml</dc:format>
        <dc:type
           rdf:resource="http://purl.org/dc/dcmitype/StillImage" />
        <dc:title></dc:title>
      </cc:Work>
    </rdf:RDF>
  </metadata>
  <defs
     id="defs6" />
  <sodipodi:namedview
     pagecolor="#ffffff"
     bordercolor="#666666"
     borderopacity="1"
     objecttolerance="10"
     gridtolerance="10"
     guidetolerance="10"
     inkscape:pageopacity="0"
     inkscape:pageshadow="2"
     inkscape:window-width="1366"
     inkscape:window-height="705"
     id="namedview4"
     showgrid="false"
     inkscape:zoom="1.6492308"
     inkscape:cx="234"
     inkscape:cy="162.5"
     inkscape:window-x="-8"
     inkscape:window-y="-8"
     inkscape:window-maximized="1"
     inkscape:current-layer="svg2" />
  <path
     style="fill:#000000;fill-opacity:1"
     d="M 419.70703,45.394531 C 401.23683,55.679019 397.46174,78.573166 392.04883,96 c -3.22445,8.4833 -4.98695,19.192 -9.48047,25.63672 -1.88785,2.67465 -5.54807,8.01328 -8.13281,11.86328 -5.54145,8.25406 -33.26802,36.61801 -35.42383,36.23828 -1.63922,-6.41743 3.59104,-9.55891 -5.56445,-6.54687 -2.04162,0.9575 -6.4668,4.159 -6.4668,2.87304 -0.25854,-2.34535 4.15364,-7.22164 7.30859,-7.35351 3.15495,-0.13187 3.66199,1.37483 4.47656,-0.90625 3.47616,-8.62684 -2.27452,-9.32123 -10.69335,-1.29102 -6.91845,6.59908 -9.88251,12.31311 -8.44727,16.28711 0.89441,2.47655 1.36904,2.67793 5.76367,2.44727 3.89773,-0.20458 5.11705,0.15426 6.55469,1.92968 l 1.76562,2.18165 4.69922,-2.75391 c 4.51876,-2.64817 31.00096,-28.71906 33.08008,-32.56641 0.55633,-1.02947 2.22946,-2.82628 3.71875,-3.99414 l 2.70899,-2.12304 -1.54297,5.28906 c -4.10824,13.83604 -12.40625,26.78228 -18.37696,38.3125 -7.32003,13.71453 -14.6949,29.33516 -21.40625,41.47656 -4.87547,8.75148 -6.25667,12.81961 -5.24609,15.45312 1.41739,3.69367 3.89511,-1.59377 11.93488,-16.25629 5.52492,-12.66743 13.59397,-32.09799 21.46746,-40.38824 l 2.07422,-2.07226 2.83985,2 c 1.56201,1.10088 4.75234,2.97133 7.08984,4.15429 3.23714,1.63831 4.25,2.72655 4.25,4.57032 0,2.63441 -0.95185,3.51419 -5.45117,5.03906 -3.25225,1.10223 -7.07743,6.68127 -6.18164,9.01562 0.74899,1.95188 5.59055,1.90256 8.42969,-0.0859 3.29356,-2.30691 8.18245,-11.40955 8.19335,-15.25586 C 386.00169,185.11051 381.3833,180 377.69922,180 c -3.71289,0 -4.72693,-1.96186 -4.03516,-7.80273 0.40085,-3.38462 -0.71181,-6.2668 -1.49935,-7.21572 4.2351,-10.76877 8.71771,-21.98036 12.44857,-32.98155 3.2063,-9.53799 7.28219,-18.67523 9.54297,-21.38867 7.69059,-9.23043 14.8818,-19.020958 18.98242,-25.843752 3.12321,-4.367022 5.39315,-10.00627 7.35547,-14.164062 4.13952,-8.750231 6.07885,-22.430907 3.53906,-24.970704 -1.35401,-0.646384 -2.95889,-0.488291 -4.32617,-0.238281 z m -0.10547,7.115235 c 0.10901,-0.01593 0.21136,-0.01571 0.30664,0 0.0984,0.01621 0.1886,0.05033 0.27149,0.101562 2.08973,1.291522 -1.76212,17.116865 -5.44336,22.361328 -4.42592,8.43212 -8.578,15.418731 -13.94922,22.777344 -2.11812,2.8875 -4.28571,5.25 -4.81836,5.25 C 395.4361,103 395,102.86497 395,102.69922 c 0,-0.83345 5.0633,-16.927062 6.89258,-21.908204 4.54602,-12.378903 14.32985,-27.78729 17.70898,-28.28125 z M 246.64258,129.11328 c -1.38916,0.0296 -3.16489,0.81116 -5.19727,2.36133 -2.70035,2.05965 -3.44531,3.34009 -3.44531,5.92773 0,3.57806 1.09832,5.31783 11,17.41993 3.575,4.36947 7.26621,9.34645 8.20312,11.06054 1.85276,3.38961 4.4856,4.09112 5.49415,1.46289 0.85139,-2.21868 -2.40121,-8.12084 -10.21875,-18.53711 C 248.91574,144.06146 246,139.70455 246,139.125 c 0,-0.57955 0.92647,-1.55035 2.05859,-2.15625 1.54301,-0.82579 1.98119,-1.89872 1.75,-4.28516 -0.23294,-2.40463 -1.37996,-3.6084 -3.16601,-3.57031 z m -186.416018,1.91797 c -1.166128,0.0352 -2.463369,0.54951 -3.234374,1.47852 -0.688984,0.83018 -1.389942,3.64268 -1.558594,6.25 C 55.264942,141.3671 54.886213,147.325 54.59375,152 c -1.199611,19.17572 -1.565353,20.95712 -4.460938,21.66211 -7.205123,1.75424 -13.831719,8.70292 -20.628906,21.63086 -5.477319,12.25447 -8.79308,27.17823 -2.240234,37.01953 7.769769,11.55918 16.560186,8.57646 21.916016,-7.4375 C 53.073,213.23398 60.611943,204.01591 66.25,204.00391 c 0.9625,-0.002 2.710352,0.95644 3.884766,2.13086 1.929311,1.92931 2.07649,2.85001 1.511718,9.53125 C 70.961854,223.76518 68.862955,229 66.302734,229 64.005669,229 61,231.94062 61,234.1875 c 0,2.20591 3.812871,3.93501 6.072266,2.75391 0.864919,-0.45213 2.839336,-2.64799 4.386718,-4.88086 C 73.006366,229.82768 74.868656,228 75.597656,228 c 0.729,0 1.838732,1.90777 2.466797,4.24023 1.180323,4.38339 4.059672,9.26671 6.839844,11.59766 1.113186,0.93331 3.283676,1.16856 7.183594,0.78125 9.842949,-0.97753 20.259409,-9.41873 41.732419,-33.82031 9.58786,-10.89549 13.34379,-13.97447 15.00586,-12.30274 0.37102,0.3732 0.57611,5.54615 0.45703,11.4961 -0.1698,8.48348 0.1,11.0807 1.25,12.03515 1.77162,1.47032 4.47308,-0.28854 4.45508,-2.90039 -0.0317,-4.59985 7.43677,-40.20449 9.19141,-43.81836 C 167.71505,168.02715 188.83961,148 192.98438,148 c 2.11124,0 2.80537,1.66939 3.12109,7.5 0.61773,11.40829 -4.08087,27.93069 -11.26563,39.60742 -2.97289,4.83156 -3.27322,5.03358 -6.52343,4.42383 -6.3726,-1.1955 -14.3045,6.06175 -14.3125,13.0957 -0.008,6.76782 4.70188,6.45094 12.62109,-0.84961 l 4.64062,-4.27734 9.22657,-0.11133 c 6.97134,-0.0836 9.97833,-0.55387 12.30078,-1.92578 l 3.07422,-1.81641 2.96875,3.17774 c 2.40527,2.57485 3.74738,3.17578 7.08789,3.17578 3.44014,0 4.90122,-0.7023 8.84765,-4.25 2.60021,-2.3375 5.31647,-5.0375 6.03516,-6 0.87579,-1.1729 3.2972,-4.45365 4.16797,-4.35352 0.88831,0.10215 0.23071,3.61171 1.61328,5.10352 2.9849,3.22076 3.68413,3.15239 6.90039,-0.66992 2.62876,-3.1241 2.70839,-3.14558 5.49414,-1.5 4.13013,2.43973 5.3016,2.14229 11.12696,-2.83008 2.89951,-2.475 5.60236,-4.5 6.00781,-4.5 0.40545,0 1.6235,1.125 2.70508,2.5 2.34619,2.9827 5.70658,3.24958 7.14257,0.56641 1.50499,-2.81211 1.28531,-3.85224 -0.96484,-4.56641 -1.1,-0.34913 -2,-1.43442 -2,-2.41211 0,-2.59081 -3.48483,-5.38678 -5.79883,-4.65234 -1.0679,0.33893 -3.77234,2.6292 -6.01172,5.08984 -2.23937,2.46063 -4.83262,4.47461 -5.76172,4.47461 -1.74392,0 -1.73214,-0.96556 0.11329,-9.64844 0.56468,-2.65691 0.33186,-3.25753 -1.48438,-3.83398 -2.31013,-0.7332 -5.05664,0.89337 -5.05664,2.99414 0,0.69672 -0.8851,2.32851 -1.9668,3.62695 -2.18759,2.83528 -3.9366,4.11631 -3.9707,0.80664 -0.0183,-1.77279 2.9047,-6.88115 4.08594,-9.3125 2.22637,-4.58255 1.9981,-7.63281 -0.57032,-7.63281 -1.67913,0 -2.07984,0.52064 -11.52734,15 -8.3933,12.86366 -16.51664,21.2148 -19.80273,20.35547 -3.10416,-0.81176 -2.81137,-2.77648 0.82422,-5.5293 8.08111,-6.11891 15.17121,-14.39916 18.74804,-21.89258 2.67922,-5.61292 2.69571,-6.41757 0.17969,-8.93359 -4.00325,-4.00325 -11.56337,-1.8961 -19.73633,5.5 -6.93745,6.846 -10.12691,13.36066 -10.26367,23.29688 l 0,4.46093 -8.00195,-0.46484 c -4.40076,-0.25476 -8.29277,-0.75566 -8.65039,-1.11328 -0.35762,-0.35762 0.91958,-3.01819 2.83984,-5.91407 4.83679,-7.29401 8.11122,-16.14647 11.24414,-30.4082 1.93324,-8.80057 1.97045,-12.45984 0.17383,-16.75976 -2.98566,-7.14571 -9.78922,-8.61772 -16.21875,-3.50977 -3.46468,2.75252 -11.4822,10.36973 -17.54297,16.66602 -1.19329,1.23967 -2.41069,2.01118 -2.70703,1.71484 -0.29635,-0.29635 -0.41011,-6.59809 -0.25195,-14.00391 L 166.17188,134 l -2.9629,0 c -3.90768,0 -5.54115,1.99735 -4.30078,5.25977 0.96177,2.52964 -2.09153,20.42084 -1.82812,29.69531 0.25996,9.15334 -2.74738,10.83255 -6.71875,12.5 -1.10472,0.46383 -1.02241,-1.94269 -4.32617,-7.57422 -4.37781,-7.46233 -8.96499,-10.85219 -16.23828,-12.00195 -7.61357,-1.20355 -13.76281,0.55564 -22.58985,6.46289 -4.23911,2.83691 -7.888461,5.58804 -8.109374,6.11328 -0.220912,0.52523 -2.282253,3.00023 -4.582031,5.5 -4.591495,4.99076 -8.981243,12.43328 -12.560547,21.29492 -1.277366,3.1625 -2.842755,5.75 -3.478516,5.75 -0.63576,0 -1.767445,-1.85024 -2.513671,-4.11133 -1.813462,-5.49484 -4.538158,-6.70384 -10.216797,-4.53515 -6.707069,2.56144 -6.737518,2.53387 -6.710938,-6.10352 0.01312,-4.2625 -0.02265,-9.1 -0.08008,-10.75 -0.168256,-4.83398 0.885004,-18.92956 2.5625,-34.28125 0.858305,-7.85484 1.292098,-14.71734 0.962891,-15.25 -0.340749,-0.55134 -0.999025,-0.85296 -1.763672,-0.92383 -0.159302,-0.0148 -0.323645,-0.0187 -0.490235,-0.0137 z m 230.037108,23.17578 c -1.51998,0.0747 -2.47646,1.34923 -3.89648,4.61133 -6.72065,15.43889 -7.89697,22.65186 -4.28125,26.26758 2.43564,2.43564 5.74259,2.02578 10.32031,-1.2793 l 2.90625,-2.09766 1.92773,2.64649 c 1.18929,1.63262 2.87628,2.64453 4.40821,2.64453 6.34419,0 9.1533,-5.60401 3.10156,-6.1875 -2.95902,-0.2853 -3.22128,-0.58113 -2.93359,-3.3125 0.1738,-1.65 1.4113,-4.87979 2.75,-7.17773 2.88953,-4.95997 3.03803,-6.33158 0.68359,-6.29688 -2.06891,0.0305 -7.94636,8.38932 -8.41992,11.97461 -0.23685,1.7932 -1.03688,2.59708 -2.83008,2.8418 -1.375,0.18764 -3.27088,1.02953 -4.21289,1.87109 -2.01004,1.79568 -4.78711,1.0546 -4.78711,-1.27734 0,-3.65997 3.27692,-12.51873 6.04492,-16.33985 3.43834,-4.74648 3.77124,-7.70304 0.96485,-8.59375 -0.67016,-0.21269 -1.23944,-0.31982 -1.7461,-0.29492 z m 122.53711,12.93555 c -2.56319,-0.0216 -6.76721,1.10103 -12.45117,3.3457 -8.53787,3.37172 -10.20434,4.77751 -8.33399,7.03125 0.73936,0.89085 2.05065,1.39343 2.91407,1.11719 5.86168,-1.87537 12.89066,-3.615 14.64648,-3.625 2.81477,-0.0161 6.85833,-4.43452 6.03125,-6.58984 -0.32282,-0.84128 -1.26872,-1.26633 -2.80664,-1.2793 z m -286.72461,1.07617 c 2.58659,-0.071 4.21159,0.39764 6.72461,1.67969 8.03628,4.0998 12.29146,13.50244 13.4082,19.31054 -5.08611,7.33544 -41.16557,45.06831 -45.61914,47.18164 -1.768773,0.83936 -5.041541,1.81725 -7.271481,2.17383 -3.822801,0.61129 -4.217956,0.43351 -6.935547,-3.1289 C 82.409143,230.22654 81.567669,220.3202 84.306641,211 c 4.688307,-15.95341 10.8983,-26.5311 20.371089,-34.69531 6.24494,-5.38223 9.61931,-6.81972 18.42188,-7.84571 1.14431,-0.13337 2.11437,-0.21656 2.97656,-0.24023 z m 100.9961,4.93555 c 0.57486,-0.0171 1.0471,0.26917 1.78125,0.73437 2.29428,1.45382 0.12051,4.65026 -10.44532,15.36133 -4.85424,4.92097 -5.85312,5.45902 -6.92382,3.72656 -2.06014,-3.33337 2.91798,-11.48048 10.1621,-16.63086 3.223,-2.29147 4.46767,-3.16285 5.42579,-3.1914 z M 49.066406,181 c 3.767574,0 3.713606,2.41101 -0.548828,24.5 -0.849052,4.4 -1.96291,9.8 -2.474609,12 -0.511699,2.2 -1.180455,5.20372 -1.486328,6.67383 -0.305873,1.47011 -1.72048,4.05761 -3.144532,5.75 -3.432071,4.07878 -7.34642,4.13302 -10.699218,0.14844 -7.277385,-12.32329 2.297974,-35.99755 13.060547,-46.17774 C 45.586596,182.30255 47.968282,181 49.066406,181 Z m 107.824214,4.99609 -1.9707,6.36719 -2.12109,-3.0332 z"
     id="path3344"
     inkscape:connector-curvature="0"
     sodipodi:nodetypes="cccscccscsssccsscccccscccccsscccssccscccccccccsssccssssssssscsssssccscssssssssssscscsssssscccccccsssssssssssssssssssccsssssssccccscsssssccsssssssssssssssssccssscccsssssssssscssscsccsscccsssssscsssscscssssccccccc" />
</svg>
