<?xml version="1.0" encoding="UTF-8"?>
<svg version="1.1" xmlns="http://www.w3.org/2000/svg" width="76" height="77" >
<path d="M26.792,25.079c1.244-0.081-0.214,23.165-0.346,25.175c-0.191,2.907-0.266,5.915-0.833,8.78 c0.547-2.766,1.842,1.242,1.263-1.042c-0.271-1.068-0.114-2.239,0.021-3.313c1.454-11.601,9.276-23.351,15.462-32.924 C46.49,15.36,57.387-2.357,67.146,1.939c4.114,1.811,6.35,6.123,5.889,10.505c-0.912,8.659-10.547,14.894-17.184,18.948 c-11.759,7.182-25.017,11.734-37.059,18.457c-5.949,3.321-12.624,6.911-16.958,12.34c-3.873,4.852-1.125,9.017,3.699,11.622 c6.06,3.272,13.93,3.135,20.583,2.673c8.194-0.569,16.44-2.681,23.854-6.208c1.205-0.573,0.113-1.389-0.805-0.952 c-11.408,5.427-25.787,8.001-38.198,4.921c-3.943-0.979-10.454-4.066-8.904-9.212c1.745-5.793,10.067-9.875,14.786-12.663 c11.993-7.083,25.087-11.921,37.289-18.57c8.634-4.705,26.664-16.392,19.301-28.695C65.832-7.61,51.681,6.588,46.298,13.56 c-8.405,10.885-15.975,23.477-20.229,36.618c-0.278,0.86-3.057,10.522,0.484,9.687c1.565-0.369,1.296-3.09,1.408-4.257 c0.462-4.809,0.695-9.644,0.949-14.467c0.128-2.432,2.361-17.563-1.897-17.288C25.995,23.917,25.462,25.165,26.792,25.079 L26.792,25.079z"/>
<path d="M51.965,46.667c-3.583-1.218-6.533,2.625-7.998,5.262c-1.723,3.102,0.72,6.656,3.682,3.684 c0.665-0.667,7.936-10.356,8.566-8.962c0.668,1.479,0.522,3.525,0.866,5.107c1.015,4.667,4.633,6.876,9.146,7.387 c0.918,0.104,1.987-1.211,0.682-1.358c-4.524-0.511-7.085-2.819-8.032-7.173c-0.279-1.286,0.014-4.357-1.215-5.231 c-1.552-1.104-3.739,0.222-4.875,1.306c-1.618,1.545-3.002,3.29-4.238,5.156c-0.558,0.8-1.115,1.6-1.673,2.4 c-1.891,0.297-2.247-0.41-1.069-2.122c0.594-1.564,2.947-4.901,5.033-4.191C51.633,48.201,53.116,47.058,51.965,46.667 L51.965,46.667z"/>
<path d="M68.663,44.141c2.786,2.085-5.473,8.428-6.75,9.81c-1.932,2.092-3.71,4.329-5.58,6.476 c-0.181,0.207-4.255,5.598-4.146,5.61c-0.46-0.051-2.239,0.746-1.234,0.856c0.824,0.091,1.992-0.02,2.56-0.736 c2.422-3.057,4.827-6.075,7.354-9.063c2.798-3.308,6.895-6.227,9.234-9.802c0.667-1.019,1.709-2.838,0.376-3.836 C70.017,43.114,68.308,43.876,68.663,44.141L68.663,44.141z"/>
</svg>