<!-- Created with Inkscape (http://www.inkscape.org/) -->
<svg xmlns:inkscape="http://www.inkscape.org/namespaces/inkscape" xmlns:rdf="http://www.w3.org/1999/02/22-rdf-syntax-ns#" xmlns="http://www.w3.org/2000/svg" sodipodi:docname="Victoria_K_Kaahumanu_1855_signature.svg" height="34.848" width="335.41" version="1.1" xmlns:cc="http://creativecommons.org/ns#" xmlns:dc="http://purl.org/dc/elements/1.1/" inkscape:version="0.48.1 r9760" xmlns:sodipodi="http://sodipodi.sourceforge.net/DTD/sodipodi-0.dtd">
<sodipodi:namedview bordercolor="#666666" inkscape:pageshadow="2" inkscape:window-y="-12" fit-margin-left="0" pagecolor="#ffffff" fit-margin-top="0" inkscape:window-maximized="1" inkscape:zoom="1.4142136" inkscape:window-x="-7" inkscape:window-height="981" showgrid="false" borderopacity="1.0" inkscape:current-layer="layer2" inkscape:cx="140.56668" inkscape:cy="61.701546" fit-margin-right="0" fit-margin-bottom="0" inkscape:window-width="1280" inkscape:pageopacity="0.0" inkscape:document-units="px"/>
<metadata>
<rdf:RDF>
<cc:Work rdf:about="">
<dc:format>image/svg+xml</dc:format>
<dc:type rdf:resource="http://purl.org/dc/dcmitype/StillImage"/>
<dc:title/>
</cc:Work>
</rdf:RDF>
</metadata>
<g inkscape:label="Warstwa" inkscape:groupmode="layer" transform="translate(-14.97851,-11.6237)">
<path style="baseline-shift:baseline;block-progression:tb;color:#000000;direction:ltr;text-indent:0;text-align:start;enable-background:accumulate;text-transform:none;" inkscape:connector-curvature="0" fill="#000" d="m331.88,11.625c-0.48667-0.0104-0.94475,0.0416-1.375,0.15625-0.86051,0.22931-1.6301,0.77824-1.9688,1.625a0.75729,0.75729,0,1,0,1.4062,0.5625c0.15045-0.37613,0.40021-0.57557,0.9375-0.71875s1.3131-0.14722,2.2188,0.03125c1.8114,0.35694,4.1117,1.4052,6.0938,2.9688,1.982,1.5636,3.6572,3.6381,4.4062,5.9688,0.749,2.3306,0.63118,4.9063-1.0938,7.7812-1.2464,2.0775-4.6707,5.3557-7.0625,6.3125-0.14878,0.05951-0.23369,0.08866-0.28125,0.09375-0.005-0.01827-0.0166-0.0489-0.0312-0.125-0.0725-0.3769,0.0368-1.3042,0.28125-2.25,0.24447-0.94576,0.60459-1.9509,0.90625-2.6875,0.15083-0.36832,0.28054-0.66044,0.375-0.84375,0.0181-0.03504,0.017-0.03742,0.0312-0.0625,0.023-0.04052,0.0637-0.09548,0.0625-0.09375,0.005-0.0061,0.026,0.0067,0.0312,0,0.016-0.02022,0.0281-0.03615,0.0625-0.09375,0.0172-0.0288,0.0621-0.1863,0.0625-0.1875,0.00019-0.000599,0.0313-0.21834,0.0312-0.21875-0.00001-0.000405-0.21854-0.53104-0.21875-0.53125-0.1698-0.16981-0.49696-0.2309-0.6875-0.1875s-0.28624,0.10881-0.34375,0.15625c-0.0671,0.05535-0.0661,0.08943-0.0937,0.125-0.0198,0.02541-0.0781,0.0402-0.0937,0.0625-0.0134,0.01909-0.019,0.04375-0.0312,0.0625-0.0232,0.0237-0.0343,0.03434-0.0625,0.0625-0.16944,0.16896-0.42928,0.4296-0.75,0.71875-0.64145,0.57829-1.538,1.3291-2.5312,2.0312-0.99328,0.70218-2.1028,1.348-3.0938,1.7188-0.78531,0.29378-1.3653,0.2482-1.9062,0.15625,0.006-0.01421-0.006-0.01673,0-0.03125,0.19685-0.48416,0.55511-1.1698,0.96875-1.8125,0.18688-0.29036,0.3696-0.48952,0.5625-0.75,0.0703-0.0615,0.59029-0.33438,1.0312-0.59375,0.22048-0.12969,0.44344-0.22916,0.65625-0.53125,0.1064-0.15104,0.20656-0.38557,0.1875-0.65625-0.0191-0.27068-0.1645-0.50824-0.3125-0.65625-0.20119-0.2012-0.5565-0.30586-0.78125-0.28125s-0.36655,0.1081-0.5,0.1875c-0.2669,0.15881-0.45748,0.34876-0.6875,0.59375-0.19751,0.21037-0.39046,0.54882-0.59375,0.8125-0.009,0.01146-0.0224,0.01971-0.0312,0.03125-0.88598,0.77495-3.3255,2.8622-5.7812,4.5312-1.2352,0.83953-2.4602,1.5689-3.4375,1.9375-0.48864,0.18429-0.90189,0.27781-1.1875,0.28125-0.28561,0.0034-0.41807-0.04307-0.5-0.125-0.36481-0.36483-0.42004-0.73656-0.28125-1.3438,0.13879-0.60719,0.53187-1.3682,1-2.0625,0.46813-0.69435,1.006-1.3329,1.4062-1.8125,0.20014-0.23982,0.37316-0.45319,0.5-0.625,0.0634-0.0859,0.1166-0.13968,0.1875-0.3125,0.0355-0.08641,0.12948-0.20599,0.0312-0.53125-0.0491-0.16263-0.18455-0.34662-0.34375-0.4375s-0.31375-0.09375-0.40625-0.09375c-0.342,0-0.44203,0.0798-0.5625,0.15625s-0.23823,0.15937-0.34375,0.25c-0.21104,0.18126-0.4162,0.41092-0.625,0.625s-0.41264,0.43791-0.5625,0.59375c-0.0614,0.06387-0.11777,0.08705-0.15625,0.125-0.17928,0.04315-0.6623-0.01719-1.375-0.125-0.76092-0.1151-1.7377-0.2173-2.7188,0.21875-0.73652,0.32735-1.3822,0.88467-2,1.4688,0.0183-0.18607,0.0489-0.37376,0.0312-0.5625-0.0374-0.39917-0.17818-0.85438-0.5625-1.1562-0.38432-0.30187-0.9037-0.38496-1.4062-0.3125-0.50255,0.07246-1.0508,0.29102-1.7188,0.625-1.3489,0.67447-2.3756,1.8334-3.4062,2.875-1.01,1.0208-2.0097,1.8985-3,2.2188-0.0227-0.04433-0.0256-0.06716-0.0937-0.21875-0.10037-0.22293-0.24501-0.57757-0.625-0.84375s-0.93542-0.29237-1.4375-0.125c-0.83262,0.27755-1.6697,0.94365-2.5312,1.375-0.43078,0.21568-0.84699,0.34917-1.0938,0.375-0.24676,0.02583-0.23402,0.04214-0.3125-0.0625-0.0189-0.02517,0.0706-0.43386,0.0937-0.6875,1.2381-1.332,2.3259-2.7345,3.0625-3.9062,0.38313-0.60951,0.69239-1.1511,0.875-1.625,0.0913-0.23693,0.16392-0.44291,0.1875-0.6875,0.0236-0.24459,0.0166-0.60841-0.28125-0.90625-0.27165-0.27166-0.6706-0.23095-0.8125-0.1875s-0.191,0.08503-0.25,0.125c-0.11801,0.07994-0.18567,0.15733-0.28125,0.25-0.19115,0.18535-0.43433,0.44538-0.6875,0.75-0.50635,0.60925-1.1364,1.4388-1.7188,2.3438-0.58238,0.90497-1.107,1.87-1.4375,2.7812-0.0417,0.11503-0.0571,0.22788-0.0937,0.34375-1.1814,1.2234-2.4648,2.3752-3.6562,3.0312-1.2588,0.69308-2.2769,0.85073-3,0.4375-0.0509-0.0291-0.0747-0.01854-0.0937-0.21875-0.0191-0.20021,0.0455-0.54053,0.1875-0.96875,0.14536-0.4383,0.3888-0.93776,0.6875-1.4688,0.34632-0.23565,0.6566-0.46776,0.78125-0.5625a0.75938,0.75938,0,0,0,0.18,-0.968c0.77948-0.99978,1.7309-1.8771,2.5312-2.3438,0.4002-0.23334,0.7387-0.35412,1-0.375s0.41992,0.0081,0.59375,0.15625a0.75008,0.75008,0,1,0,0.96875,-1.125c-0.47754-0.40704-1.109-0.57748-1.6875-0.53125-0.57849,0.04623-1.1253,0.25294-1.6562,0.5625-1.0618,0.61911-2.0722,1.6401-2.9375,2.75-0.34657,0.44452-0.65367,0.91509-0.9375,1.375-0.40833,0.27318-0.89101,0.56186-1.375,0.84375-0.55156,0.32125-1.1162,0.61922-1.5312,0.78125-0.16535,0.06455-0.28148,0.07344-0.375,0.09375-0.27491-0.24854-0.50246-0.53107-0.59375-0.96875-0.10249-0.49136-0.0697-1.0925,0-1.6562,0.0697-0.56371,0.18648-1.0893,0.28125-1.4688,0.0474-0.18972,0.0657-0.33099,0.0937-0.46875,0.0141-0.06888,0.0575-0.09533,0.0312-0.34375-0.007-0.06211-0.0131-0.13599-0.0937-0.28125-0.0202-0.03632-0.0621-0.12455-0.0625-0.125-0.00038-0.000454-0.12457-0.12468-0.125-0.125-0.00086-0.000649-0.37392-0.15612-0.375-0.15625-0.00054-0.000064-0.1869-0.000068-0.1875,0s-0.0859,0.01928-0.125,0.03125c-0.0782,0.02393-0.14592,0.06854-0.1875,0.09375-0.0832,0.05042-0.0943,0.09432-0.125,0.125-0.4419,0.44192-2.7186,2.4883-5.0312,4.125-1.1563,0.81837-2.3421,1.5376-3.2812,1.9062-0.46956,0.18431-0.88244,0.27617-1.1562,0.28125-0.14542,0.0027-0.17868-0.03725-0.25-0.0625,0.0138-0.0662,0.007-0.10102,0.0312-0.1875,0.10612-0.38009,0.31516-0.91075,0.53125-1.4688,0.21609-0.558,0.43915-1.161,0.625-1.6875,0.18585-0.52654,0.34375-0.94077,0.34375-1.4375,0-0.18511-0.079-0.4112-0.21875-0.5625-0.13974-0.1513-0.28649-0.21522-0.40625-0.25-0.23953-0.06956-0.4252-0.05022-0.59375-0.03125-0.33711,0.03794-0.69424,0.13845-1.125,0.28125-0.86153,0.28559-1.9554,0.75171-3.0625,1.3125-0.65768,0.33314-1.2048,0.74441-1.8125,1.125,0.0479-0.12321,0.11722-0.38511,0.15625-0.46875,0.078-0.16711,0.46726-1.0383,0.84375-1.875,0.18824-0.41836,0.36447-0.81594,0.5-1.125,0.0678-0.15453,0.11577-0.27776,0.15625-0.375,0.0202-0.04862,0.047-0.08341,0.0625-0.125,0.008-0.0208,0.0188-0.05074,0.0312-0.09375,0.006-0.0215-0.01-0.04847,0-0.125,0.002-0.01913,0.0312-0.06218,0.0312-0.0625,0.00001-0.000319-0.0312-0.15603-0.0312-0.15625-0.00004-0.000224-0.0937-0.28112-0.0937-0.28125-0.00008-0.000128-0.46862-0.31247-0.46875-0.3125-1.1384-0.28462-2.336,0.17516-3.6562,0.84375s-2.7609,1.6046-4.1875,2.625c-2.8532,2.0408-5.723,4.3771-7.0312,5.0312-0.12064,0.06032-0.0938,0.04585-0.15625,0.0625-0.0126-0.20996,0.002-0.67775,0.15625-1.3125,0.1767-0.72596,0.41907-1.5288,0.625-2.1875,0.10296-0.32934,0.19051-0.62504,0.25-0.875,0.0298-0.12498,0.0517-0.2384,0.0625-0.375s0.15237-0.34761-0.21875-0.71875c-0.00028-0.000281-0.34328-0.18737-0.34375-0.1875-0.00047-0.000127-0.2181-0.03128-0.21875-0.03125-0.00065,0.000025-0.0928-0.0068-0.125,0s-0.0735,0.02473-0.0937,0.03125c-0.0814,0.02606-0.0976,0.04809-0.125,0.0625-0.0548,0.02882-0.0906,0.0401-0.125,0.0625-0.0687,0.04481-0.12597,0.09002-0.21875,0.15625-0.18556,0.13246-0.44526,0.34206-0.75,0.5625-0.60949,0.44089-1.4243,1.0069-2.2812,1.5625-0.85692,0.55564-1.7634,1.0823-2.5,1.4062-0.36832,0.162-0.70468,0.26918-0.9375,0.3125s-0.34031,0.01734-0.3125,0.03125c-0.036-0.01803-0.016,0.04234-0.0312-0.125-0.0153-0.16734,0.0353-0.5167,0.15625-0.90625,0.24194-0.77911,0.7368-1.756,1.1875-2.5625,0.22535-0.40324,0.43465-0.78386,0.59375-1.0625,0.0796-0.13932,0.16411-0.23709,0.21875-0.34375,0.0273-0.05333,0.0373-0.1258,0.0625-0.1875s0.0662-0.07429,0.0625-0.34375c-0.00092-0.06736,0.0195-0.15793-0.0312-0.28125-0.0254-0.06166-0.12439-0.18677-0.125-0.1875-0.00061-0.000729-0.21794-0.18704-0.21875-0.1875-0.00081-0.000462-0.14496-0.07973-0.21875-0.09375-0.0738-0.01402-0.13312-0.0036-0.1875,0-0.10876,0.0072-0.19787,0.04228-0.25,0.0625-0.2085,0.08087-0.22886,0.1109-0.28125,0.15625-0.10479,0.0907-0.18619,0.20654-0.3125,0.34375-0.25261,0.27443-0.63111,0.69461-1.1875,1.3438-0.94573,1.1034-2.5533,2.5673-4.3125,3.5938-1.7592,1.0264-3.6175,1.5898-5.0625,1.1562-0.2619-0.07857-0.32854-0.16336-0.34375-0.1875-0.0152-0.02414-0.0253-0.05841,0-0.21875,0.0507-0.32068,0.36283-0.95315,0.75-1.5625s0.81667-1.2098,1.0625-1.8125c0.12291-0.30136,0.26641-0.6565,0.0312-1.125-0.11755-0.23425-0.34973-0.44453-0.5625-0.53125s-0.41995-0.09375-0.625-0.09375c-0.49611,0-0.70502,0.15236-1.0938,0.34375-0.38873,0.19138-0.85815,0.44609-1.375,0.75-1.0337,0.60783-2.2672,1.4247-3.5,2.1875-1.2328,0.76279-2.4641,1.4873-3.375,1.9688-0.10335,0.05463-0.16704,0.05626-0.25,0.09375,0.0971-0.16753,0.20017-0.27701,0.28125-0.5,0.39413-1.0839,1.3084-2.3141,2.3125-3.5312,1.2378-0.74767,2.4869-1.4129,3.75-2.2812,1.8766-1.2902,4.3498-2.371,6.5625-3.5625,1.9826-1.0676,3.98-1.9866,5.9688-3.3125,2.7958-1.8639,4.6888-3.2303,5.8438-4.2188,0.5775-0.49425,0.97999-0.88707,1.25-1.25,0.135-0.18146,0.24772-0.34158,0.3125-0.59375,0.0648-0.25216-0.0185-0.6914-0.28125-0.9375-0.26272-0.2461-0.50833-0.27288-0.71875-0.28125-0.21042-0.0084-0.4089,0.02016-0.625,0.0625-0.43219,0.08467-0.9317,0.24236-1.5312,0.46875-1.1991,0.45278-2.7661,1.1658-4.5312,2.0938-3.5304,1.856-7.8684,4.5385-11.625,7.5-2.1519,1.6965-4.0597,3.479-5.5625,5.2812-1.5122,0.90498-3.0041,1.8539-4.5938,2.7812-1.8577,1.0837-4.218,2.4238-6.4062,2.9688-1.6789,0.41813-3.1638,0.42522-4.4375-0.4375,0.66828-0.82225,1.2626-1.6928,1.7188-2.5312,0.44333-0.81484,0.77017-1.5866,0.9375-2.2812,0.16733-0.69464,0.27732-1.4153-0.25-2-0.26366-0.29234-0.69378-0.41515-1.0625-0.40625s-0.70783,0.10193-1.0938,0.28125c-0.77185,0.35865-1.6998,1.038-2.9062,2.0938a0.75008,0.75008,0,0,0,-0.25,0.40625c-0.11198,0.01936-0.23812-0.03343-0.34375,0-0.41294,0.1307-0.77586,0.3509-1.1562,0.625-0.76078,0.54821-1.4941,1.2951-2.125,2.125-0.63088,0.8299-1.1671,1.7116-1.4375,2.5312-0.13521,0.40981-0.20962,0.82575-0.15625,1.25,0.0534,0.42425,0.31232,0.90615,0.75,1.125,0.88514,0.44259,1.852,0.45693,2.75,0.21875,0.89796-0.23818,1.746-0.72389,2.5312-1.3438,0.38695-0.30544,0.706-0.70242,1.0625-1.0625,1.7293,1.2434,3.8526,1.3709,5.8438,0.875,2.4951-0.6214,4.9194-2.0389,6.7812-3.125,0.63638-0.37124,1.2508-0.76394,1.875-1.125-0.17914,0.35694-0.4329,0.70607-0.5625,1.0625,0.0208-0.05727-0.0627,0.11992-0.15625,0.28125-0.0935,0.16133-0.23104,0.34555-0.34375,0.5625s-0.21028,0.45431-0.28125,0.71875c-0.071,0.26444-0.1434,0.66295,0.15625,1.0625,0.24926,0.33235,0.62491,0.35388,0.84375,0.34375s0.37275-0.06099,0.5625-0.125c0.37951-0.12801,0.82186-0.33442,1.3125-0.59375,0.98129-0.51866,2.198-1.2643,3.4375-2.0312,1.2395-0.76695,2.4991-1.5365,3.5-2.125,0.43722-0.25709,0.78316-0.46592,1.0938-0.625-0.18532,0.3069-0.339,0.56781-0.59375,0.96875-0.4122,0.64874-0.84353,1.3324-0.96875,2.125-0.0626,0.39631-0.0329,0.85042,0.21875,1.25,0.25167,0.39958,0.69507,0.69601,1.1875,0.84375,2.0776,0.6233,4.3045-0.14613,6.25-1.2812,1.0632-0.62035,2.0214-1.3769,2.875-2.125-0.0145,0.04386-0.0489,0.08132-0.0625,0.125-0.15345,0.49415-0.26432,0.97158-0.21875,1.4688,0.0456,0.49717,0.35312,1.0828,0.875,1.3438,0.42534,0.21268,0.84084,0.16988,1.25,0.09375,0.40916-0.07612,0.81529-0.21505,1.25-0.40625,0.86942-0.3824,1.8258-0.95225,2.7188-1.5312,0.6677-0.43295,1.2134-0.83616,1.75-1.2188-0.15743,0.50361-0.33568,1.0158-0.46875,1.5625-0.1968,0.80855-0.38049,1.5285-0.15625,2.2812,0.11212,0.37639,0.46568,0.80369,0.9375,0.90625s0.89633-0.02628,1.3438-0.25c1.7324-0.86626,4.4531-3.1558,7.25-5.1562,1.3984-1.0002,2.8049-1.926,4-2.5312,0.71247-0.36082,1.0696-0.3382,1.5625-0.4375-0.0552,0.12315-0.0988,0.21614-0.15625,0.34375-0.37442,0.83214-0.78879,1.726-0.84375,1.8438-0.31523,0.67552-0.63584,1.7718-0.9375,2.6875-0.061,0.06676-0.16341,0.11903-0.21875,0.1875-0.29331,0.36291-0.53125,0.76152-0.53125,1.2812,0,0.11035,0.0124,0.22749,0.0312,0.34375,0.019,0.11626-0.0444,0.29529,0.3125,0.5625,0.17844,0.1336,0.49501,0.18545,0.6875,0.125s0.28318-0.15731,0.34375-0.21875c0.12115-0.12289,0.17585-0.20106,0.21875-0.28125,0.16777-0.31361,0.30569-0.70392,0.46875-1.1875,0.004-0.01105-0.004-0.02009,0-0.03125,0.15696-0.1507,0.28383-0.27128,0.5-0.4375,0.74859-0.57559,1.7949-1.1875,2.8438-1.7188s2.0883-0.96833,2.8438-1.2188c0.0689-0.02285,0.0923-0.01189,0.15625-0.03125-0.0156,0.04768-0.014,0.04484-0.0312,0.09375-0.16981,0.48108-0.40479,1.0564-0.625,1.625-0.22021,0.56863-0.42668,1.1385-0.5625,1.625-0.0679,0.24324-0.13963,0.48151-0.15625,0.71875-0.0166,0.23724-0.0546,0.53918,0.28125,0.875,0.41706,0.41708,1.0155,0.57265,1.5625,0.5625,0.54704-0.01015,1.0835-0.15018,1.6562-0.375,1.1456-0.44964,2.4155-1.2065,3.625-2.0625,1.6558-1.1718,2.5564-2.0365,3.5625-2.9375-0.005,0.03806-0.0265,0.05516-0.0312,0.09375-0.0821,0.66428-0.12208,1.3897,0.0312,2.125,0.15338,0.73533,0.53022,1.4836,1.2188,2,0.34513,0.25886,0.66296,0.25621,0.9375,0.21875s0.53884-0.11193,0.8125-0.21875c0.39892-0.15572,0.84716-0.35782,1.2812-0.59375-0.099,0.41202-0.16246,0.82613-0.125,1.2188,0.0499,0.52349,0.30302,1.0839,0.8125,1.375,1.3635,0.77917,2.9873,0.37817,4.4688-0.4375,1.032-0.5682,2.0028-1.51,2.9688-2.4062,0.0541,0.12134,0.007,0.25981,0.0937,0.375,0.40847,0.54465,1.1179,0.71588,1.6875,0.65625,0.56961-0.05963,1.0867-0.27741,1.5938-0.53125,1.014-0.50769,2.0942-1.1877,2.375-1.2812,0.068-0.02268,0.0725-0.02455,0.0937-0.03125-0.0177-0.0058,0.0205,0.0247,0.0937,0.1875,0.0834,0.18515,0.16794,0.4516,0.46875,0.75s0.90304,0.45409,1.375,0.3125c1.4907-0.44723,2.6324-1.5586,3.6875-2.625s2.0475-2.1331,3.0312-2.625c0.57947-0.28975,0.99625-0.40091,1.25-0.4375s0.27677-0.01022,0.25-0.03125c-0.0268-0.02103,0.0176-0.02179,0.0312,0.125,0.0138,0.14679-0.0242,0.39446-0.0937,0.6875-0.13911,0.58609-0.45889,1.3254-0.75,1.875-0.0754,0.14233-0.1194,0.23051-0.1875,0.34375-0.0562,0.04471-0.0716,0.05117-0.125,0.09375-0.13675,0.10912-0.2695,0.15196-0.4375,0.40625-0.042,0.06357-0.0923,0.15823-0.125,0.3125s-0.0149,0.42742,0.125,0.625c0.27982,0.39515,0.57606,0.34375,0.71875,0.34375,0.28725,0,0.38833-0.09928,0.46875-0.15625,0.0804-0.05697,0.14294-0.10924,0.1875-0.15625,0.0891-0.09401,0.14285-0.204,0.21875-0.3125,0.0369-0.05271,0.0869-0.12833,0.125-0.1875,0.15482-0.11555,0.27718-0.19864,0.4375-0.375,1.0077-1.1085,2.4632-2.6954,3.5-3.1562,0.54773-0.24345,1.1722-0.20007,1.875-0.09375,0.34158,0.05167,0.69441,0.12407,1.0625,0.15625-0.44671,0.6977-0.84761,1.4466-1.0312,2.25-0.20955,0.91674-0.10372,1.99,0.65625,2.75,0.41924,0.41926,1.0086,0.56917,1.5625,0.5625,0.55391-0.0067,1.1284-0.15235,1.7188-0.375,1.1807-0.4453,2.4628-1.2189,3.75-2.0938,1.2616-0.85748,1.8916-1.4351,2.9375-2.2812-0.0521,0.16628-0.1386,0.32516-0.15625,0.5-0.0159,0.15697-0.007,0.32021,0.0625,0.53125,0.0697,0.21104,0.24417,0.45286,0.5,0.5625,1.1108,0.47609,2.3479,0.28644,3.5312-0.15625,1.1834-0.44269,2.3792-1.1581,3.4375-1.9062,0.51169-0.36173,0.84178-0.67538,1.2812-1.0312-0.12777,0.39288-0.27023,0.71969-0.375,1.125-0.26804,1.0369-0.44998,2.0286-0.28125,2.9062,0.0844,0.43884,0.29928,0.93582,0.78125,1.1875s1.0429,0.17659,1.5625-0.03125c2.9681-1.1873,6.3008-4.47,7.7812-6.9375,1.9188-3.1981,2.1186-6.3283,1.25-9.0312-0.86865-2.703-2.7465-4.9838-4.9062-6.6875s-4.6015-2.8328-6.7188-3.25c-0.52931-0.1043-1.0446-0.1771-1.5312-0.1875zm-236.16,0.5a0.75008,0.75008,0,0,0,-0.564,0.875c0.03026,0.18154,0.0086,0.24646-0.125,0.375-0.08591,0.08266-0.22018,0.11042-0.34375,0.15625,0.02884-0.08096-0.01792,0.01331,0.125-0.1875a0.75016,0.75016,0,1,0,-1.2188,-0.875c-0.46728,0.65653-0.72273,1.3024-0.4375,1.9375,0.14262,0.31757,0.44757,0.5234,0.71875,0.625s0.52704,0.12114,0.78125,0.09375c0.50841-0.05477,1.0002-0.26555,1.4062-0.65625,0.40607-0.3907,0.70836-1.031,0.59375-1.7188a0.75008,0.75008,0,0,0,-0.875,-0.625,0.75008,0.75008,0,0,0,-0.0625,0zm-16.5,0.34375c-0.58358,0.07552-1.1416,0.38823-1.75,0.875-1.376,1.1008-5.3195,2.8194-7.5312,3.5-4.0096,1.3359-8.8743,4.5834-14,7.7812-5.1257,3.1979-10.49,6.3499-15.281,7.5625a0.75008,0.75008,0,0,0,-0.25,0.09375c-1.0996,0.71151-5.8411,3.8517-10.469,6.625-2.3138,1.3866-4.5975,2.6583-6.3438,3.5-0.64386,0.31036-1.1036,0.48948-1.5625,0.65625,0.3288-0.41053,0.64208-0.83465,1.1562-1.4062,1.3786-1.5326,3.3317-3.5369,5.375-5.5625s4.1774-4.0829,5.9688-5.7188,3.3075-2.872,3.7812-3.1562c0.03207-0.01924,0.09235-0.07244,0.125-0.09375,0.15281-0.09131,0.31692-0.15656,0.46875-0.25,0.38334-0.23591,1.7018-1.1607,3.0312-2.0938,0.66474-0.46652,1.3346-0.92344,1.8125-1.2812,0.23896-0.1789,0.41237-0.3418,0.5625-0.46875,0.07507-0.06347,0.14793-0.11145,0.21875-0.1875,0.03541-0.03802,0.06426-0.08094,0.125-0.1875,0.03037-0.05328,0.07171-0.12679,0.09375-0.28125,0.0055-0.03862,0.0329-0.07477,0.03125-0.125-0.0016-0.05023-0.03107-0.15555-0.03125-0.15625-0.000364-0.0014-0.21776-0.34276-0.21875-0.34375-0.26465-0.26466-0.57316-0.27321-0.75-0.25s-0.31066,0.07017-0.4375,0.125c-0.25368,0.10966-0.49222,0.28085-0.78125,0.46875-0.57807,0.3758-1.2677,0.89224-1.9688,1.4375-0.70102,0.54526-1.405,1.1103-1.9688,1.5625-0.49788,0.3994-0.8446,0.64783-0.9375,0.71875-7.1479,4.2763-15.871,6.3208-22.406,13.125a0.75008,0.75008,0,1,0,1.0625,1.0312c4.5806-4.7691,10.482-7.1115,16.25-9.8125-1.6139,1.4971-3.3535,3.1498-5.0938,4.875-2.0568,2.039-4.0251,4.0549-5.4375,5.625-0.70618,0.78507-1.2642,1.4392-1.6562,1.9688-0.19603,0.26476-0.3548,0.49193-0.46875,0.71875-0.05698,0.11341-0.09305,0.24332-0.125,0.40625s-0.06594,0.44101,0.15625,0.71875c0.28134,0.35168,0.69472,0.40716,1,0.40625,0.30528-0.000908,0.57743-0.0621,0.90625-0.15625,0.65764-0.18829,1.4616-0.49721,2.375-0.9375,1.8268-0.88057,4.1354-2.1954,6.4688-3.5938,4.6407-2.7811,9.3354-5.9112,10.438-6.625,0.0062-0.004,0.05653-0.02739,0.0625-0.03125,5.0622-1.3337,10.458-4.4912,15.531-7.6562,5.1369-3.2049,9.9728-6.3707,13.625-7.5938,0.0077-0.0024,0.02354,0.0024,0.03125,0,2.3822-0.73552,6.1918-2.3033,8-3.75,0.48746-0.38998,0.85466-0.54369,1-0.5625s0.05836-0.02537,0.125,0.0625c0.13329,0.17573,0.33736,1.0987,0.1875,2.2812-0.29972,2.3651-1.6455,5.6777-3.0938,7a0.76307,0.76307,0,1,0,1.0312,1.125c1.9625-1.7919,3.2203-5.2372,3.5625-7.9375,0.1711-1.3501,0.19234-2.5034-0.46875-3.375-0.33054-0.4358-0.94767-0.73177-1.5312-0.65625zm117.56,5.9375c-0.1574,0.01865-0.31676,0.0568-0.46875,0.09375-0.60797,0.14778-1.1966,0.41919-1.75,0.75-1.1069,0.66162-2.0474,1.4715-2.5,2.2812a0.75008,0.75008,0,1,0,1.32,0.719c0.1575-0.28176,1.048-1.1371,1.9688-1.6875,0.46038-0.27518,0.94592-0.49705,1.3438-0.59375,0.39783-0.0967,0.65638-0.07806,0.8125,0,0.65244,0.32623,0.69002,0.53351,0.65625,0.90625-0.0338,0.37274-0.33663,0.96713-0.84375,1.5938-1.0142,1.2532-2.6919,2.5344-3.375,3.0312-1.4723,1.0708-5.5249,3.7841-9.6562,5.8125-2.0657,1.0142-4.158,1.8434-5.9062,2.25-0.15658,0.03642-0.29802,0.04368-0.4375,0.0625,2.1243-2.0594,4.2133-4.1443,6.4062-5.9375,2.1672,0.21897,4.3185-0.08554,6.125-0.46875a0.75081,0.75081,0,1,0,-0.3,-1.467c-1.2483,0.2648-2.5957,0.48384-3.9688,0.53125,0.16584-0.11645,0.33236-0.23182,0.5-0.34375a0.75008,0.75008,0,0,0,-0.5,-1.375,0.75008,0.75008,0,0,0,-0.3125,0.125c-0.69637,0.46496-1.3673,0.9794-2.0312,1.5-1.7561-0.26423-3.4526-0.98382-4.9062-2.4375-0.27859-0.2786-0.58502-0.28802-0.8125-0.28125-0.22748,0.0068-0.43494,0.06029-0.65625,0.125-0.44261,0.12942-0.95308,0.34282-1.5312,0.625-1.1564,0.56436-2.5736,1.4018-4,2.3125-1.4264,0.91068-2.8436,1.8718-3.9688,2.75-0.5626,0.43909-1.0507,0.84764-1.4375,1.2188-0.38683,0.37111-0.68928,0.66811-0.875,1.0938a0.75008,0.75008,0,1,0,1.375,0.59375c-0.004,0.0088,0.202-0.27788,0.53125-0.59375s0.77638-0.70657,1.3125-1.125c1.0722-0.83685,2.4829-1.7988,3.875-2.6875,1.3921-0.88874,2.7732-1.6963,3.8438-2.2188,0.53528-0.26124,1.0169-0.44482,1.3125-0.53125,0.1304-0.03813,0.18367-0.05894,0.21875-0.0625,1.3117,1.2337,2.7739,1.9682,4.2812,2.375-1.8577,1.587-3.626,3.3111-5.375,5-0.0446-0.5567-0.18311-1.1329-0.5-1.6875-0.12123-0.21217-0.14448-0.43341-0.5-0.75-0.17776-0.1583-0.4477-0.27015-0.6875-0.28125s-0.43694,0.02795-0.65625,0.09375c-1.3965,0.41897-2.3153,1.2492-2.4062,2.2812s0.5683,1.9418,1.4375,2.5938c0.18657,0.13993,0.39979,0.22204,0.625,0.28125-2.5438,2.2986-5.1489,4.3019-8.0938,5.4062-1.1869,0.44509-2.0909,0.46216-3,0.1875-0.90914-0.27466-1.8428-0.85864-2.9062-1.6562-0.1327-0.09953-0.30123-0.51506-0.3125-1.1562-0.0113-0.64118,0.12599-1.4338,0.3125-2.125,0.10669-0.39541,0.19774-0.56953,0.3125-0.84375a0.75008,0.75008,0,0,0,0.71875,-0.78125c0-0.1735,0.009-0.30029-0.0312-0.46875-0.0399-0.16846-0.0842-0.43283-0.4375-0.625-0.17664-0.09609-0.42857-0.13124-0.59375-0.09375-0.16518,0.03748-0.26429,0.12674-0.34375,0.1875-0.15891,0.12152-0.23554,0.22798-0.3125,0.34375-0.30785,0.46307-0.53595,1.113-0.75,1.9062-0.21405,0.79328-0.39005,1.6753-0.375,2.5312,0.0151,0.85591,0.19891,1.7585,0.9375,2.3125,1.1114,0.83359,2.1478,1.5449,3.3438,1.9062,1.196,0.36133,2.5277,0.32166,3.9688-0.21875,2.7169-1.0189,5.1207-2.6624,7.375-4.5625-0.31728,0.73316-0.57177,1.4815-0.46875,2.2812,0.12939,1.0044,0.95742,1.8709,2.3438,2.375,0.83641,0.30416,1.5108,0.39651,2.125,0.25,0.61423-0.14651,1.0713-0.50078,1.5-0.84375a0.7565,0.7565,0,1,0,-0.94,-1.188c-0.40806,0.32646-0.66571,0.50513-0.90625,0.5625s-0.59248,0.06297-1.2812-0.1875c-1.1074-0.40271-1.2898-0.76872-1.3438-1.1875-0.0539-0.41878,0.16718-1.1327,0.5625-2,0.25326-0.55565,0.49308-1.2507,0.75-1.9062,0.70818-0.01426,1.4378-0.06834,2.2188-0.25,1.9362-0.45037,4.0932-1.3314,6.2188-2.375,4.2512-2.0873,8.3397-4.7982,9.9062-5.9375,0.72063-0.52412,2.4276-1.8016,3.625-3.2812,0.59873-0.73982,1.1058-1.5361,1.1875-2.4375,0.0817-0.90141-0.45125-1.8662-1.4688-2.375-0.45005-0.22504-0.93405-0.2747-1.4062-0.21875zm-43.844,0.8125c-0.00021,0.000022-0.12469,0.03116-0.125,0.03125-0.00031,0.000091-0.0477,0.02552-0.0625,0.03125-0.059,0.02291-0.0786,0.02316-0.0937,0.03125-0.0306,0.01618-0.0445,0.02053-0.0625,0.03125-0.0359,0.02144-0.074,0.03059-0.125,0.0625-0.10199,0.06382-0.22602,0.16802-0.40625,0.28125-0.36046,0.22646-0.87826,0.55397-1.4688,0.90625-1.181,0.70455-2.6924,1.5333-4,2.0938-3.7333,1.6001-7.3735,4.9166-10.438,7.4062-0.61774,0.50193-1.3562,0.891-2.0312,1.4688-0.67506,0.57775-1.286,1.4004-1.5,2.5312a0.75008,0.75008,0,1,0,1.4688,0.28125c0.14633-0.7733,0.47625-1.208,1-1.6562,0.52375-0.44825,1.2613-0.86855,2-1.4688,3.109-2.5262,6.7306-5.7148,10.094-7.1562,1.4239-0.61028,2.9781-1.4973,4.1875-2.2188,0.19152-0.11426,0.29679-0.17644,0.46875-0.28125-0.004,0.01322,0.005,0.018,0,0.03125-0.25635,0.75143-0.5615,1.587-0.6875,2.4062-0.063,0.40964-0.0858,0.80596,0,1.2188,0.0858,0.41279,0.29883,0.84428,0.6875,1.125,0.03,0.02167,0.0629,0.04264,0.0937,0.0625a0.75008,0.75008,0,0,0,-0.25,0.375c-0.20743,0.64305-1.206,1.7708-2.75,2.9062-1.544,1.1355-3.6078,2.3402-5.7812,3.5312-0.0122,0.0067-0.019,0.02454-0.0312,0.03125-0.0256-0.25342-0.0865-0.50763-0.1875-0.75-0.25813-0.61953-0.8128-1.1042-1.4375-1.125-0.6247-0.02083-1.106,0.31876-1.5,0.71875-0.78789,0.79999-1.3771,2.0376-1.4688,3.4062-0.003,0.04251,0.001,0.08239,0,0.125-2.8538,1.4493-5.5534,2.7894-7.3438,3.8125-1.9218,1.0982-5.1126,1.2428-6.8125,0.5625-0.84995-0.34014-1.2201-0.73522-1.25-1.2188-0.0299-0.48353,0.34731-1.3974,1.75-2.5938a0.75008,0.75008,0,1,0,-0.96875,-1.125c-1.576,1.3442-2.3569,2.5579-2.2812,3.7812,0.0756,1.2233,1.0752,2.1049,2.2188,2.5625,2.2872,0.9153,5.6536,0.7382,8.0938-0.65625,1.636-0.93487,4.1806-2.2071,6.9062-3.5938,0.23037,0.53382,0.57197,1.0317,1.0312,1.4688-0.0131,0.03092-0.0182,0.06292-0.0312,0.09375-0.48893,1.1569-0.94875,2.233-1.0312,3.1875-0.0412,0.47723,0.0303,0.98644,0.40625,1.4062,0.37598,0.41981,0.9595,0.55533,1.5312,0.5a0.75406,0.75406,0,1,0,-0.15625,-1.5c-0.15633,0.01513-0.24599,0.0083-0.28125,0,0.0322,0.03597-0.0232-0.01327,0-0.28125,0.0436-0.50454,0.40616-1.5087,0.84375-2.5625,1.4896,0.59503,3.5076,0.71146,6.5312,0,0.57165-0.13451,1.1684-0.44749,1.9375-0.90625s1.6777-1.0778,2.6562-1.7812c1.957-1.407,4.2424-3.1929,6.375-5.0312s4.1196-3.7172,5.5-5.25c0.69022-0.76642,1.2145-1.4271,1.5625-2.0312,0.17398-0.30207,0.31603-0.58183,0.375-0.90625,0.059-0.32442-0.005-0.78643-0.3125-1.0938-0.359-0.35902-0.77758-0.42055-1.1875-0.4375s-0.86121,0.03629-1.3438,0.125c-0.96509,0.17742-2.0775,0.49238-3.2188,0.875-2.2824,0.76524-4.6784,1.7566-5.2812,1.9375-1.3125,0.39376-1.9218,0.23533-2.0312,0.15625-0.0548-0.03954-0.0633-0.04062-0.0937-0.1875-0.0305-0.14688-0.0465-0.41661,0-0.71875,0.0929-0.60428,0.3668-1.3994,0.625-2.1562,0.2582-0.75684,0.53125-1.4207,0.53125-2.125,0-0.000119-0.4374-0.68745-0.4375-0.6875-0.0001-0.000048-0.40604-0.06252-0.40625-0.0625zm96.344,0c-1.0723,0.91344-2.8521,2.2659-5.5938,4.0938-1.8629,1.242-3.8365,2.1523-5.875,3.25-1.6501,0.88854-3.4668,1.8184-5.1875,2.8125,0.32183-0.26722,0.54125-0.54939,0.875-0.8125,3.6594-2.8849,7.9533-5.5285,11.406-7.3438,1.7264-0.90764,3.2686-1.5822,4.375-2zm-84.78,4.344c-0.0303,0.06987-0.0392,0.09255-0.0937,0.1875-0.24877,0.43193-0.72234,1.0565-1.375,1.7812-1.3053,1.4494-3.2737,3.2824-5.375,5.0938-2.1013,1.8113-4.3404,3.5959-6.25,4.9688-0.95478,0.68641-1.818,1.2933-2.5312,1.7188-0.71326,0.42544-1.3109,0.6669-1.5312,0.71875-2.8753,0.67657-4.5621,0.51636-5.625,0.09375,0.33246-0.77671,0.68142-1.5493,0.9375-2.3125,0.0799-0.23826,0.15114-0.4857,0.21875-0.71875,0.33362-0.17887,0.67073-0.35081,1-0.53125,2.2033-1.2074,4.2985-2.4509,5.9375-3.6562,1.639-1.2054,2.8882-2.3098,3.3125-3.625a0.75008,0.75008,0,0,0,0,-0.5c0.56682,0.01815,1.2398-0.10632,2.0312-0.34375,0.90404-0.27122,3.1285-1.1948,5.3438-1.9375,1.1076-0.37136,2.1974-0.69045,3.0312-0.84375,0.40402-0.07428,0.74086-0.10035,0.96875-0.09375zm-48.188,1c-0.17119-0.0078-0.17905,0.02163-0.21875,0.03125-0.0794,0.01923-0.12596,0.04039-0.1875,0.0625-0.24616,0.08843-0.66385,0.27203-1.4062,0.59375a0.75008,0.75008,0,0,0,-0.34375,0.25,0.75008,0.75008,0,0,0,0,0.03125c-0.27709,0.12762-0.39536,0.18384-0.6875,0.3125-0.16378,0.07213-0.20934,0.08691-0.375,0.15625a0.75008,0.75008,0,0,0,-1.0312,-0.21875c-0.70275,0.44912-1.0992,0.72574-1.375,1-0.069,0.06856-0.14048,0.13367-0.21875,0.28125-0.0391,0.07379-0.0833,0.18166-0.0937,0.34375-0.0106,0.16209,0.057,0.37531,0.1875,0.53125,0.26105,0.31188,0.5013,0.30983,0.625,0.3125,0.1237,0.0027,0.19843-0.0152,0.28125-0.03125,0.66255-0.12841,1.5769-0.5522,2.5938-1,1.0168-0.4478,2.0057-0.89058,2.4375-1.125,0.054-0.0293,0.0758-0.06299,0.125-0.09375,0.0246-0.01538,0.0554-0.03326,0.0937-0.0625,0.0192-0.01462,0.0597-0.0295,0.0937-0.0625,0.017-0.0165,0.0372-0.03149,0.0625-0.0625s0.0935-0.1555,0.0937-0.15625c0.00037-0.000746,0.0625-0.34317,0.0625-0.34375-0.00001-0.000577-0.21836-0.4996-0.21875-0.5-0.00039-0.000405-0.31172-0.21852-0.3125-0.21875s-0.1447-0.02929-0.1875-0.03125zm-31.406,2.0938c-0.69801-0.0219-1.3972-0.0056-2.125,0.03125a0.75008,0.75008,0,0,0,-0.15625,0,0.75793,0.75793,0,1,0,0.21875,1.5c5.4286-0.27486,10.402,1.717,16.062,0.21875a0.75008,0.75008,0,1,0,-0.404,-1.437c-4.4733,1.1841-8.7077-0.1592-13.594-0.3125zm-9.279,1.719c-0.3128,0.04069-0.61117,0.14156-0.9375,0.28125-0.65265,0.27938-1.4059,0.70712-2.25,1.2812-1.3264,0.90214-2.9328,2.268-4.5,3.625-0.76295,0.41977-1.574,0.83056-2.25,1.2812-2.3323,1.5549-5.4038,3.8656-8.5625,5.7812-3.1121,1.8874-6.3111,3.3322-8.8125,3.375-0.000293-0.02342-0.0034,0.0021,0-0.03125,0.03362-0.33319,0.28536-0.99657,0.625-1.6875,0.31316-0.63708,0.69953-1.3046,1.0625-1.875,0.46864-0.25693,1.0988-0.63079,1.25-0.6875,0.51316-0.19244,0.82976-0.53824,1.1562-0.90625,0.1456-0.16412,0.27316-0.32994,0.40625-0.5,0.27774-0.09148,0.54195-0.15272,0.8125-0.34375,0.36492-0.25767,0.71875-0.76599,0.71875-1.3125,0-0.11308-0.02313-0.2305-0.0625-0.375s-0.11476-0.3444-0.375-0.5-0.58991-0.12494-0.75-0.0625-0.23676,0.12289-0.3125,0.1875c-0.30298,0.25846-0.49294,0.56201-0.75,0.90625-0.06329,0.08476-0.12198,0.16298-0.1875,0.25-0.63042,0.16716-1.4393,0.29764-2.0625,0.96875-0.23411,0.25212-0.5334,0.70134-0.875,1.2188-0.26153,0.15006-0.38509,0.19881-0.6875,0.375-1.0691,0.62285-2.3477,1.3898-3.5938,2.0938-1.2461,0.70395-2.4872,1.3432-3.4375,1.75-0.47513,0.20339-0.88711,0.3495-1.1562,0.40625-0.11801,0.02488-0.18226,0.03315-0.21875,0.03125-0.05514-0.05459-0.05763-0.09728-0.03125-0.28125,0.03517-0.2453,0.20066-0.68685,0.53125-1.1875,0.66117-1.0013,1.8578-2.2721,3.125-3.5s2.6048-2.4105,3.5938-3.375c0.49449-0.48226,0.89729-0.90482,1.1875-1.2812,0.1451-0.18821,0.28562-0.35893,0.375-0.59375,0.04469-0.11741,0.07155-0.24899,0.0625-0.4375-0.009-0.18851-0.08899-0.43274-0.25-0.59375-0.17297-0.17297-0.37044-0.24071-0.5-0.25-0.12956-0.0093-0.21176,0.01498-0.28125,0.03125-0.13898,0.03254-0.24393,0.07753-0.34375,0.125-0.19964,0.09495-0.42646,0.21043-0.6875,0.375-0.52208,0.32914-1.2096,0.82603-2.0312,1.4062-1.6433,1.1604-3.7816,2.7131-6,4.25s-4.5214,3.0465-6.375,4.0625c-0.92679,0.50802-1.7245,0.8906-2.3438,1.0938-0.6192,0.20315-1.0045,0.13691-0.96875,0.15625a0.75008,0.75008,0,1,0,-0.71875,1.3125c0.68656,0.37093,1.3541,0.22166,2.125-0.03125,0.77087-0.25291,1.6525-0.68566,2.625-1.2188,1.9451-1.0662,4.2631-2.5753,6.5-4.125,1.3635-0.94462,2.4826-1.7325,3.6875-2.5938-0.24363,0.23055-0.44448,0.38951-0.6875,0.625-1.2954,1.2552-2.5517,2.5505-3.3438,3.75-0.39601,0.59973-0.69231,1.1609-0.78125,1.7812-0.08894,0.62031,0.13836,1.3381,0.6875,1.75,0.47797,0.35849,0.93854,0.27952,1.375,0.1875s0.91159-0.27488,1.4375-0.5c1.0518-0.45025,2.3272-1.097,3.5938-1.8125,0.73772-0.41677,1.3945-0.80893,2.0938-1.2188-0.33287,0.69625-0.65307,1.3804-0.71875,2.0312-0.03585,0.35529,0.0049,0.72296,0.25,1.0938,0.24506,0.37079,0.70245,0.59375,1.125,0.59375,3.0749,0,6.4706-1.6551,9.7188-3.625,1.7784-1.0785,3.1433-2.0845,4.7188-3.1875-0.39735,0.43316-0.93286,0.8997-1.2812,1.3125-0.72823,0.86288-1.3389,1.6808-1.7812,2.4062-0.44231,0.72543-0.75,1.338-0.75,2.0312,0,0.3374,0.12378,0.69677,0.34375,0.9375s0.47984,0.34099,0.6875,0.40625c0.41531,0.13053,0.73865,0.18182,0.75,0.1875,1.4747,0.73736,3.0024,0.54458,4.2812-0.125,1.2789-0.66958,2.3855-1.745,3.4375-2.875s2.04-2.323,2.9375-3.1875c0.57899-0.55773,0.96078-0.66631,1.4062-0.875-0.42514,0.62672-1.0044,1.4111-1.7188,2.1875-0.72412,0.78705-1.4072,1.4565-1.9375,1.9688-0.16661,0.1618-0.44255,0.3488-0.59375,0.5-0.11987,0.11987-0.18742,0.21069-0.25,0.28125-0.01565,0.01764-0.03905,0.03203-0.0625,0.0625-0.01172,0.01524-0.03952,0.0254-0.0625,0.0625-0.01149,0.01855-0.0126,0.05353-0.03125,0.09375s-0.06244,0.2183-0.0625,0.21875c-0.000059,0.000448,0.21854,0.65606,0.21875,0.65625,0.000206,0.000193,0.62453,0.18756,0.625,0.1875,0.000468-0.000059,0.14946-0.04631,0.1875-0.0625s0.07566-0.021,0.09375-0.03125c0.07234-0.04101,0.07334-0.04678,0.09375-0.0625,0.03618-0.02786,0.0892-0.09463,0.125-0.125,0.12581-0.10672,0.25337-0.2015,0.46875-0.40625,0.07855-0.07467,0.22194-0.25612,0.3125-0.34375,0.98254-0.95071,2.1161-2.0109,3.4062-2.9062,1.5197-1.0546,3.1274-1.7812,4.375-1.7812,0.55938,0,0.82855,0.12923,0.90625,0.1875s0.06699,0.04318,0.0625,0.21875c-0.009,0.35114-0.38559,1.2275-0.9375,2.0312-0.55191,0.80373-1.2265,1.5775-1.625,2.0625-0.09962,0.12125-0.1796,0.2186-0.25,0.3125-0.0352,0.04695-0.05832,0.09919-0.09375,0.15625s-0.09088,0.03921-0.125,0.34375c-0.0043,0.03807-0.0037,0.10178,0,0.15625s0.03094,0.18656,0.03125,0.1875c0.000314,0.000937,0.12445,0.21804,0.125,0.21875,0.000552,0.000712,0.18671,0.18702,0.1875,0.1875,0.000794,0.000484,0.15352,0.07778,0.21875,0.09375s0.14013-0.00083,0.1875,0c0.09475,0.0017,0.13972,0.01194,0.1875,0,0.19114-0.04777,0.22386-0.08975,0.28125-0.125,0.11478-0.07051,0.22707-0.16746,0.375-0.28125,0.73623-0.56635,3.8618-2.7016,6.8125-4.5625,0.99092-0.62494,1.8227-1.0895,2.6875-1.5938-0.92202,1.1247-1.8125,2.4456-1.8125,4.0312a0.75008,0.75008,0,1,0,1.5,0c0-1.1958,0.93884-2.6126,1.9375-3.7188,0.49933-0.55308,0.999-1.0159,1.375-1.375,0.188-0.17954,0.34019-0.32857,0.46875-0.46875,0.06428-0.07009,0.1155-0.13151,0.1875-0.25,0.036-0.05924,0.06293-0.12314,0.09375-0.28125s0.02045-0.51079-0.1875-0.71875c-0.3617-0.36172-0.70395-0.25316-0.90625-0.21875-0.2023,0.0344-0.35802,0.10712-0.5625,0.1875-0.40895,0.16075-0.92677,0.37752-1.5,0.6875-1.1465,0.61996-2.6028,1.5285-4.0938,2.4688-1.6211,1.0224-2.4749,1.6169-3.7812,2.5,0.37906-0.63851,0.70047-1.2857,0.71875-2,0.01313-0.51314-0.18626-1.1163-0.65625-1.4688-0.46999-0.35243-1.0699-0.46875-1.8125-0.46875-1.1846,0-2.3611,0.46136-3.5,1.0625,0.15483-0.29185,0.35807-0.55172,0.34375-0.9375-0.01-0.26924-0.14186-0.64096-0.40625-0.84375s-0.58159-0.25-0.84375-0.25c-1.2369,0-2.2266,0.7943-3.2188,1.75-0.99214,0.9557-1.988,2.1629-3,3.25s-2.0676,2.0416-3.0625,2.5625c-0.99488,0.52089-1.862,0.64716-2.9062,0.125-0.4356-0.21781-0.74438-0.21153-0.90625-0.25,0.01524-0.15276,0.13998-0.59704,0.5-1.1875,0.373-0.618,0.954-1.389,1.65-2.214,1.3923-1.6497,3.298-3.5733,5.25-5.3438,0.33496-0.30381,0.60151-0.48774,0.9375-0.78125,2.2991-1.2377,4.8718-2.4958,6.7188-4.3125,0.02889-0.01647,0.09179-0.02954,0.15625-0.0625,0.12893-0.06591,0.29705-0.16067,0.46875-0.25s0.3363-0.1654,0.5-0.28125c0.08185-0.05793,0.15982-0.10937,0.28125-0.28125,0.06072-0.08594,0.15451-0.22741,0.15625-0.46875,0.0017-0.24134-0.16135-0.51164-0.3125-0.625-0.334-0.251-0.718-0.26-1.031-0.219zm118.75,1.5c-0.21174-0.01335-0.4236,0.03231-0.625,0.09375-0.40281,0.12288-0.82452,0.36025-1.3125,0.6875-0.97597,0.65451-2.2565,1.7252-3.9375,3.4062-0.97913,0.97917-1.34,2.252-1.8125,3.0938a0.75008,0.75008,0,0,0,-0.0312,0.625c-0.22426,0.14235-0.43783,0.23486-0.65625,0.40625-0.5128,0.40239-0.99521,0.88718-1.2812,1.5-0.28604,0.61282-0.26391,1.4502,0.21875,2.0938,0.60411,0.80551,1.6256,1.039,2.5,0.78125,0.87444-0.25774,1.686-0.85664,2.5-1.625,0.46931-0.44299,0.9228-1.0207,1.375-1.5625,0.52612,0.58526,0.89697,1.4152,1.5625,2.125,0.67656,0.7216,1.7836,1.2005,3.25,0.90625,1.4664-0.29423,3.3491-1.2014,6.1875-3.0938a0.75008,0.75008,0,1,0,-0.8125,-1.25c-2.7655,1.8437-4.5604,2.6551-5.6562,2.875-1.0958,0.21987-1.4325,0.0032-1.875-0.46875-0.44248-0.47194-0.85917-1.3256-1.5938-2.125-0.0274-0.02978-0.0653-0.06432-0.0937-0.09375,0.74815-1.025,1.4194-2.1271,1.9688-3.1562,0.54269-1.0167,0.97155-1.9698,1.1875-2.7812,0.10798-0.40573,0.14743-0.75223,0.125-1.125-0.0224-0.37277-0.15925-0.8277-0.5625-1.0938-0.20163-0.13302-0.41326-0.2054-0.625-0.21875zm-19.281,1.2812c0.001,0.0026,0.0299-0.003,0.0312,0,0.0284,0.0571,0.0151,0.05764,0.125,0.25,0.42543,0.74453,0.44124,1.4709,0.28125,2.25-0.33333-0.07354-0.72769-0.12389-0.9375-0.28125-0.60893-0.45672-0.83741-0.96738-0.8125-1.25,0.0249-0.28262,0.23244-0.64472,1.3125-0.96875zm18.969,0.3125c-0.01,0.13165-0.0344,0.24572-0.0937,0.46875-0.1659,0.6234-0.52423,1.5189-1.0312,2.4688-0.51375,0.9625-1.1679,2.001-1.875,2.9688-0.61245-0.31118-1.342-0.54276-2.25-0.5625-0.10817-0.0024-0.14725,0.01894-0.21875,0.03125,0.30094-0.6263,0.59016-1.3401,0.96875-1.7188,1.6429-1.6429,2.8898-2.6628,3.7188-3.2188,0.35855-0.24046,0.59847-0.3682,0.78125-0.4375zm18.781,0.84375c-0.0195,0.02061,0.0335,0.1016-0.0625,0.5-0.1204,0.49983-0.38324,1.206-0.78125,1.9375-0.32459,0.59659-0.7622,1.2049-1.2188,1.8125,0.0483-0.31306,0.0896-0.54853,0.0937-0.90625,0.004-0.36453-0.0389-0.77012-0.21875-1.1562-0.0825-0.17719-0.29062-0.28635-0.4375-0.4375,0.9595-0.80663,1.773-1.4034,2.25-1.625,0.20301-0.09433,0.28725-0.10916,0.375-0.125zm-71.406,0.59375c-0.0249-0.000829-0.0327-0.08492,0.0937,0.21875,0.0672,0.16123,0.0762,0.53138,0,1-0.44672,0.2361-0.89574,0.45583-1.3438,0.6875,0.19942-0.69464,0.55044-1.3267,0.875-1.6562,0.22657-0.23005,0.39987-0.24917,0.375-0.25zm67.594,2.0312c0.0442-0.0012,0.0539-0.0037,0.0625,0,0.14315,0.06135,0.17697,0.09779,0.21875,0.1875,0.0418,0.08971,0.0652,0.26766,0.0625,0.5-0.005,0.46468-0.16568,1.1147-0.21875,1.75a0.75008,0.75008,0,0,0,0.15625,0.53125c0.0448,0.05639,0.11046,0.07099,0.15625,0.125-0.29701,0.29738-0.56574,0.66214-0.875,0.90625-0.67276,0.53103-1.3768,0.8972-2,1.0625-0.61171,0.16225-1.1303,0.1292-1.6562-0.125-0.006-0.08564,0.037-0.29579,0.125-0.5625,0.18533-0.56173,0.63042-1.3297,1.1875-2.0625,0.55708-0.73281,1.2277-1.4224,1.8125-1.8438,0.29239-0.2107,0.55849-0.37689,0.75-0.4375,0.0958-0.0303,0.17452-0.0301,0.21875-0.03125zm-105.47,0.875c-0.17939,0.0062-0.34069,0.04953-0.46875,0.09375-0.25612,0.08844-0.49197,0.2177-0.75,0.375-0.51606,0.3146-1.0742,0.75522-1.6562,1.2188-1.1641,0.92707-2.313,1.9301-2.5938,2.1875-0.38598,0.35382-0.56822,0.43446-0.90625,0.71875-0.26843-0.05875-0.56731-0.09135-0.875,0.0625-1.1662,0.5831-2.003,1.1443-2.5312,1.625-0.26414,0.24034-0.45,0.4606-0.59375,0.75-0.07187,0.1447-0.14394,0.30166-0.09375,0.59375s0.32611,0.61087,0.5625,0.6875c0.47279,0.15326,0.72058,0.02738,1.0312-0.09375,0.31068-0.12113,0.67176-0.33002,1.0938-0.59375,0.41572-0.25981,1.1099-0.85441,1.6562-1.2812,0.35017,0.23231,0.76167,0.568,1.2188,0.9375,0.50352,0.40705,1.0263,0.83634,1.5625,1.1562,0.41514,0.24767,0.89455,0.39354,1.4062,0.375a0.75008,0.75008,0,0,0,0.4375,0,0.75008,0.75008,0,0,0,0.5,-0.53125c0.10061-0.14189,0.30474-0.24146,0.34375-0.375,0.0949-0.32505,0.0842-0.62943,0.0937-0.875,0.01-0.24557,0.008-0.42838,0.0312-0.53125,0.0118-0.05144,0.003-0.06331,0-0.0625,0.83181-0.47883,1.8156-0.81271,2.75-1.125,0.94791-0.3168,1.8542-0.57209,2.5625-1.0625a0.75016,0.75016,0,1,0,-0.875,-1.2188c-0.38849,0.26896-1.2006,0.55561-2.1562,0.875-0.73006,0.24399-1.5489,0.58945-2.3438,0.96875,0.04-0.08119,0.0526-0.13731,0.0937-0.21875,0.40213-0.79648,0.85068-1.5874,1.1562-2.2812,0.15279-0.34693,0.28529-0.66453,0.34375-1,0.0292-0.16774,0.0411-0.35093,0-0.5625s-0.18578-0.45964-0.40625-0.625c-0.21688-0.16267-0.41436-0.19368-0.59375-0.1875zm37.312,0.34375c-0.1406,0.35628-0.25453,0.70312-0.40625,1.0625-0.14517-0.21944-0.23599-0.44502-0.3125-0.6875,0.24279-0.12491,0.47477-0.2484,0.71875-0.375zm-38.15,1.719c-0.26377,0.56064-0.63381,1.2122-1,1.9375-0.41781,0.82754-0.81115,1.6639-1,2.4688-0.0339,0.1446-0.0135,0.29245-0.0312,0.4375-0.33953-0.23189-0.7037-0.49719-1.0938-0.8125-0.31451-0.25425-0.62176-0.48383-0.9375-0.71875,0.18481-0.16277,0.273-0.19555,0.46875-0.375,0.25833-0.23681,1.3869-1.2698,2.5-2.1562,0.40296-0.32091,0.7446-0.54189,1.0938-0.78125zm86.062,0.4375c0.53523,0.01164,0.90502,0.12759,1.25,0.25-0.37403,0.44017-0.75526,0.93225-1.125,1.2812-0.72035,0.67995-1.3983,1.1407-1.875,1.2812-0.4767,0.14051-0.6261,0.12355-0.90625-0.25-0.1797-0.23961-0.15248-0.30289-0.0312-0.5625,0.12118-0.25961,0.43812-0.6192,0.84375-0.9375s0.88773-0.58796,1.2812-0.78125c0.19676-0.09665,0.37584-0.17426,0.5-0.21875s0.24214-0.05859,0.0625-0.0625zm159.97,2.094a0.75008,0.75008,0,0,0,-0.53125,0.375c-0.60781,1.0175-0.82396,1.8189-0.65625,2.5312,0.16771,0.71237,0.89125,1.1891,1.5312,1.0938,0.64-0.09531,1.1923-0.65473,1.2812-1.375,0.089-0.72027-0.2152-1.4976-0.9375-2.3438a0.75008,0.75008,0,0,0,-0.68,-0.281zm-200.66,1.094c-0.5271,0.05216-0.97135,0.24007-1.3438,0.46875-0.49653,0.3049-0.85159,0.64435-1.0312,1.1562-0.0449,0.12798-0.0937,0.25805-0.0625,0.46875s0.1888,0.49214,0.40625,0.625c0.43489,0.26573,0.73505,0.13221,1,0.03125,0.5299-0.20191,1.1248-0.62952,2.0312-1.4375a0.75008,0.75008,0,0,0,-0.44,-1.312c-0.19082-0.0146-0.3868-0.01739-0.5625,0z"/>
</g>
</svg>
