<?xml version="1.0" standalone="no"?>
<!DOCTYPE svg PUBLIC "-//W3C//DTD SVG 20010904//EN"
 "http://www.w3.org/TR/2001/REC-SVG-20010904/DTD/svg10.dtd">
<svg version="1.0" xmlns="http://www.w3.org/2000/svg"
 width="468pt" height="118pt" viewBox="0 0 468 118"
 preserveAspectRatio="xMidYMid meet">
<metadata>
Created by POTRACE VERSION, written by Peter Selinger 2001-2007
</metadata>
<g transform="translate(0,118) scale(0.018978,-0.018978)"
fill="#000000" stroke="none">
<path d="M4077 6075 c-65 -7 -153 -21 -195 -30 -42 -9 -117 -28 -167 -42 -49
-14 -133 -41 -185 -60 -52 -19 -144 -57 -205 -84 -60 -27 -149 -68 -197 -93
-47 -25 -133 -73 -190 -107 -57 -34 -135 -84 -174 -110 -39 -26 -78 -54 -85
-61 -8 -8 -48 -39 -89 -71 -41 -31 -104 -78 -139 -104 -36 -27 -99 -80 -140
-119 -42 -39 -135 -129 -208 -200 -72 -71 -165 -168 -205 -216 -41 -47 -87
-106 -103 -130 -17 -24 -47 -66 -67 -94 -21 -28 -49 -71 -63 -95 -13 -24 -36
-69 -51 -99 -14 -30 -42 -104 -61 -165 -20 -60 -47 -148 -61 -195 -13 -47 -31
-98 -38 -115 -7 -16 -27 -84 -44 -150 -18 -66 -36 -138 -41 -160 -4 -22 -13
-56 -19 -75 -6 -19 -25 -84 -41 -145 -17 -60 -50 -186 -74 -280 -24 -93 -50
-195 -59 -225 -8 -31 -22 -76 -30 -100 -9 -25 -16 -58 -16 -73 0 -16 4 -26 10
-22 5 3 19 38 30 78 11 40 25 80 30 89 6 10 10 29 10 42 0 14 5 28 10 31 6 3
10 16 10 28 0 12 8 44 19 72 10 27 30 97 45 155 14 58 36 139 47 180 11 41 27
100 35 130 8 30 19 69 23 85 5 17 23 77 40 135 17 58 41 137 52 175 12 39 28
77 36 86 8 10 21 41 29 70 9 30 19 69 24 88 5 18 13 38 19 44 6 6 11 22 11 37
0 14 7 34 15 44 8 11 15 28 15 38 0 10 7 21 15 24 8 4 15 15 15 26 0 11 9 31
20 45 11 14 20 32 20 40 0 8 9 26 20 40 11 14 20 34 20 44 0 10 18 39 40 64
22 25 44 55 50 65 6 10 24 34 40 52 17 18 30 38 30 45 0 6 43 54 95 107 52 52
98 96 102 98 5 1 28 26 53 53 25 28 74 75 110 107 36 31 101 90 145 132 44 42
83 76 88 76 5 0 37 25 72 55 34 30 67 55 72 55 6 0 21 10 34 23 13 13 45 38
72 56 26 17 47 36 47 42 0 6 26 21 57 35 31 14 78 42 103 63 25 20 66 49 92
64 26 15 55 27 66 27 10 0 29 9 42 20 13 11 28 20 35 20 6 0 22 11 35 25 18
19 34 25 66 25 24 0 46 5 49 11 4 6 25 24 47 40 31 21 52 29 85 29 31 0 43 4
43 14 0 8 4 17 9 20 5 4 29 8 53 10 23 3 52 7 63 11 11 4 29 10 40 15 11 4 36
12 55 18 19 6 67 13 105 17 39 4 81 13 95 20 14 7 39 17 56 22 23 8 38 7 59
-5 25 -13 32 -12 62 2 28 13 60 15 200 10 92 -3 186 -9 208 -14 22 -5 81 -14
130 -19 50 -6 119 -16 155 -23 36 -7 74 -17 85 -24 11 -7 40 -15 65 -19 25 -4
70 -16 100 -27 30 -11 87 -35 126 -53 39 -18 105 -56 148 -85 42 -28 110 -85
150 -126 40 -42 90 -101 111 -132 21 -31 47 -70 59 -87 11 -16 30 -51 43 -77
13 -27 30 -48 38 -48 8 0 15 7 15 15 0 8 -23 57 -51 107 -29 51 -65 113 -82
138 -17 24 -65 80 -106 123 -42 44 -102 99 -133 123 -31 24 -94 63 -140 87
-46 24 -117 55 -158 69 -41 14 -91 30 -110 36 -19 6 -82 22 -140 35 -58 14
-174 35 -258 46 -87 12 -201 21 -265 20 -62 -1 -165 -7 -230 -14z"/>
<path d="M16950 4430 c-25 -4 -58 -10 -75 -13 -16 -3 -75 -15 -130 -26 -55
-11 -116 -25 -135 -30 -19 -5 -69 -19 -110 -31 -41 -13 -114 -42 -161 -65 -48
-24 -129 -71 -180 -105 -52 -35 -136 -99 -187 -142 -51 -44 -98 -88 -105 -99
-7 -10 -39 -45 -70 -78 -31 -33 -102 -129 -159 -214 -57 -84 -107 -160 -113
-169 -5 -8 -67 -100 -136 -204 -69 -104 -136 -207 -150 -229 -13 -22 -29 -49
-36 -60 -7 -11 -16 -27 -20 -35 -4 -8 -31 -57 -60 -109 -29 -51 -53 -96 -53
-100 0 -3 -19 -38 -41 -76 -23 -39 -52 -88 -64 -110 -12 -22 -49 -87 -82 -145
-33 -58 -90 -154 -128 -215 -37 -60 -77 -126 -88 -145 -12 -19 -38 -58 -59
-86 -21 -28 -38 -56 -38 -62 0 -5 -4 -12 -8 -14 -4 -1 -23 -25 -42 -53 -19
-27 -59 -81 -88 -120 -29 -38 -84 -111 -121 -160 -38 -50 -112 -132 -166 -183
-54 -51 -114 -100 -133 -108 -26 -11 -38 -11 -48 -3 -9 7 -14 33 -14 74 0 37
10 99 25 151 14 49 45 130 69 179 24 50 63 133 86 185 23 52 48 102 56 110 7
9 29 49 48 90 22 48 56 98 95 140 33 36 63 77 66 92 4 14 12 29 20 31 7 3 19
23 25 44 7 21 18 45 25 53 7 8 15 34 19 57 3 23 2 53 -4 67 -7 19 -17 26 -36
26 -17 0 -38 -12 -58 -33 -17 -19 -61 -90 -96 -158 l-64 -124 -238 -238 -238
-237 -30 22 c-17 12 -30 26 -30 30 0 5 7 22 15 37 13 26 13 30 -1 42 -14 11
-19 10 -35 -10 -10 -12 -23 -20 -29 -16 -5 3 -10 15 -10 25 0 10 -6 23 -12 27
-7 4 -19 18 -25 30 -11 19 -10 29 4 58 10 21 34 45 60 61 24 13 43 32 43 40 0
11 6 13 23 8 12 -4 25 -11 28 -16 4 -6 19 -7 35 -4 16 3 45 2 64 -4 21 -6 38
-6 44 0 6 6 5 15 -3 24 -7 8 -10 20 -6 26 5 8 11 8 21 -1 7 -6 21 -9 29 -5 8
3 15 18 15 33 0 15 9 43 21 62 11 18 18 39 16 46 -3 6 1 37 8 67 7 30 20 67
30 82 10 15 21 46 26 70 4 24 26 83 49 132 23 49 52 112 65 139 13 28 28 67
35 87 6 21 23 46 36 57 14 11 39 47 56 81 18 34 40 66 50 71 10 5 33 40 52 77
19 38 42 74 51 82 9 7 23 26 31 41 8 16 14 35 14 44 0 10 -10 15 -34 15 -27 0
-36 -5 -41 -22 -4 -11 -74 -88 -157 -171 -82 -82 -146 -152 -143 -156 4 -3 20
9 36 27 16 17 33 32 39 32 6 0 24 15 40 33 16 17 30 26 30 19 0 -7 -39 -66
-87 -130 -48 -64 -122 -161 -165 -214 -43 -54 -88 -103 -99 -109 -11 -6 -27
-25 -34 -43 -8 -18 -30 -47 -50 -64 -19 -17 -35 -40 -35 -51 0 -11 -4 -22 -9
-25 -5 -3 -12 2 -15 11 -6 14 -9 13 -21 -10 -12 -23 -12 -31 2 -57 8 -17 12
-34 9 -37 -3 -4 -6 -1 -6 5 0 7 -6 12 -14 12 -8 0 -17 -9 -21 -20 -3 -11 -22
-35 -41 -55 -19 -19 -34 -39 -34 -43 0 -4 -18 -29 -40 -56 -22 -26 -40 -58
-40 -70 0 -12 -6 -30 -13 -41 -7 -11 -12 -30 -11 -42 1 -13 -2 -23 -5 -23 -4
0 -12 5 -18 11 -6 6 -16 8 -22 5 -6 -4 -11 -16 -11 -28 0 -15 5 -19 20 -15 11
3 20 2 20 -2 0 -5 -7 -21 -15 -38 -8 -16 -24 -38 -35 -48 -11 -10 -20 -22 -20
-27 0 -4 -9 -17 -20 -28 -11 -11 -26 -17 -34 -14 -8 3 -17 0 -21 -6 -4 -6 0
-19 9 -29 9 -10 16 -23 16 -30 0 -7 -5 -9 -12 -5 -7 5 -24 8 -37 8 -16 0 -25
-6 -27 -18 -1 -10 -10 -23 -20 -30 -9 -7 -14 -18 -10 -24 4 -7 16 -12 26 -12
10 0 24 8 30 18 9 15 10 14 8 -8 -2 -14 -9 -25 -18 -25 -9 0 -16 -11 -18 -28
-2 -15 -7 -27 -11 -27 -5 0 -14 7 -21 15 -6 8 -9 19 -5 25 3 5 4 14 0 19 -3 6
-21 3 -43 -7 -20 -10 -52 -32 -69 -49 -18 -17 -33 -38 -33 -46 0 -8 6 -20 14
-26 7 -6 24 -10 37 -7 20 3 23 9 21 32 -2 22 0 26 8 14 5 -8 10 -23 10 -32 0
-10 3 -18 7 -18 3 0 15 7 25 17 10 9 21 14 24 11 3 -4 -1 -16 -8 -27 -8 -14
-20 -20 -32 -17 -11 3 -26 0 -33 -6 -7 -6 -24 -8 -38 -6 -20 4 -25 1 -25 -17
0 -11 -9 -31 -20 -43 -12 -12 -16 -22 -10 -22 5 0 10 -7 10 -15 0 -8 5 -26 12
-40 6 -14 19 -25 29 -25 9 0 19 -6 22 -13 2 -7 20 -21 39 -31 33 -18 36 -18
61 -1 15 9 27 23 27 31 0 7 6 11 14 8 8 -3 23 -1 35 5 11 6 22 19 25 28 4 13
17 18 42 19 26 0 42 7 55 25 10 13 19 33 21 44 2 13 13 22 32 25 20 3 34 16
47 40 10 19 40 56 66 83 26 26 54 47 64 47 9 0 33 22 53 50 19 27 52 58 73 69
21 10 46 33 56 50 10 17 23 31 28 31 6 0 19 20 30 45 17 39 24 45 50 45 22 0
40 9 60 31 29 31 29 31 29 7 0 -13 -5 -29 -11 -35 -6 -6 -27 -46 -46 -89 -19
-44 -66 -157 -105 -252 -60 -151 -70 -185 -75 -256 -3 -46 -3 -100 1 -120 6
-32 13 -40 52 -57 25 -10 54 -19 64 -19 11 0 44 9 75 21 31 11 67 33 80 47 14
15 25 33 25 40 0 7 11 16 23 21 13 5 38 23 55 41 19 18 32 42 32 56 0 16 8 27
23 33 12 5 42 29 66 54 24 25 49 61 56 81 7 20 27 49 44 65 17 16 31 35 31 43
0 8 14 24 31 37 16 12 35 34 42 49 6 15 26 48 43 73 17 25 35 56 39 69 4 13
18 33 31 43 13 10 24 23 24 29 0 6 11 25 24 42 12 17 29 48 37 70 8 21 25 50
39 65 14 14 30 35 36 46 6 11 21 39 33 63 13 23 26 42 30 42 4 0 17 24 29 53
12 28 38 70 57 92 19 22 35 48 35 57 0 9 6 23 13 30 6 8 18 23 25 33 7 11 19
34 27 51 7 17 21 36 29 44 9 7 16 20 16 30 0 10 11 37 24 61 13 24 27 55 31
69 4 13 26 51 49 85 22 33 44 62 48 63 5 2 8 8 8 14 0 6 15 31 34 57 19 26 37
58 41 73 4 14 17 30 31 37 13 6 24 17 24 25 0 9 13 30 28 48 16 18 31 41 35
50 3 10 30 53 58 95 29 43 55 80 58 83 3 3 11 12 16 21 6 9 23 36 39 60 15 24
39 55 51 69 12 14 38 54 56 89 20 37 62 91 101 130 37 36 75 74 85 84 10 9 49
49 87 88 38 39 93 83 123 99 29 16 67 43 84 60 17 17 44 34 60 37 16 3 29 9
29 14 0 4 20 20 43 34 24 14 50 25 57 25 7 0 47 16 89 36 42 20 85 38 95 40
10 2 33 8 50 14 18 6 68 16 112 24 43 7 124 12 179 10 55 -1 132 -5 170 -9 39
-3 93 -8 121 -10 28 -2 68 -8 90 -14 21 -5 50 -10 64 -9 14 0 68 -9 120 -20
52 -11 118 -25 145 -32 28 -7 64 -18 81 -25 17 -8 53 -16 80 -20 27 -4 87 -18
134 -32 47 -14 200 -54 340 -89 140 -36 279 -73 308 -84 29 -11 64 -20 78 -20
14 0 37 -6 52 -14 15 -7 55 -18 89 -25 35 -7 79 -19 98 -27 20 -8 75 -26 123
-39 48 -13 130 -40 182 -58 52 -18 113 -38 135 -45 22 -6 90 -28 150 -50 61
-22 121 -44 135 -50 14 -5 50 -20 80 -32 30 -12 78 -32 105 -45 28 -12 75 -34
105 -49 30 -14 62 -30 70 -36 8 -5 49 -25 90 -45 41 -20 86 -44 100 -55 l25
-20 -30 -26 c-16 -14 -45 -40 -63 -56 -18 -17 -64 -52 -103 -78 -38 -26 -82
-58 -97 -71 -15 -14 -48 -39 -73 -56 -26 -18 -71 -56 -100 -85 -30 -29 -71
-74 -92 -99 -20 -25 -37 -51 -37 -56 0 -5 -10 -18 -21 -29 -12 -10 -47 -52
-78 -93 -31 -41 -67 -90 -81 -110 -14 -20 -31 -48 -39 -63 -8 -15 -21 -36 -30
-45 -9 -10 -32 -45 -52 -78 -19 -33 -50 -89 -69 -125 -18 -35 -46 -75 -62 -88
-15 -13 -28 -28 -28 -33 0 -5 7 -9 16 -9 11 0 14 -6 9 -22 -4 -13 -15 -36 -25
-53 -9 -16 -23 -46 -30 -65 -8 -19 -29 -60 -47 -90 -18 -30 -35 -74 -39 -97
-3 -24 -10 -46 -15 -49 -5 -3 -9 -12 -9 -20 0 -8 -18 -51 -40 -97 -23 -45 -55
-108 -73 -139 -18 -31 -44 -75 -59 -97 -15 -22 -44 -56 -64 -77 -28 -27 -38
-46 -40 -75 -3 -29 -16 -55 -49 -97 -26 -31 -53 -65 -61 -75 -7 -9 -18 -17
-24 -17 -6 0 -6 9 0 26 6 14 10 30 10 35 0 5 -3 9 -7 9 -5 0 -19 -17 -33 -37
-14 -20 -30 -48 -36 -63 -9 -21 -8 -30 7 -49 15 -18 22 -20 39 -11 11 6 53 44
93 85 39 41 80 84 90 95 9 11 17 24 17 30 0 5 11 17 24 25 14 9 38 45 55 79
16 35 37 69 46 76 8 7 15 16 15 21 0 5 16 31 34 57 19 26 59 64 88 84 29 20
68 43 86 52 17 9 32 21 32 26 0 6 -6 10 -12 10 -7 0 -26 -9 -43 -20 -16 -11
-38 -25 -47 -32 -9 -7 -20 -10 -23 -6 -4 3 4 23 17 45 13 21 28 49 35 63 6 14
27 66 47 115 20 50 36 94 36 98 0 4 21 51 47 105 26 53 58 115 72 137 13 21
30 61 37 88 7 27 23 59 36 71 13 12 30 31 39 42 8 10 32 34 53 52 21 18 35 36
32 39 -3 4 -18 0 -33 -8 -16 -7 -31 -15 -36 -17 -4 -2 -4 5 0 15 3 10 20 36
37 57 17 22 39 53 48 70 9 17 24 46 32 65 9 18 31 51 49 71 17 21 55 70 82
110 28 40 69 95 91 123 23 29 85 90 138 137 52 46 118 99 146 118 27 18 50 38
50 43 0 5 6 9 13 9 8 0 25 10 38 21 13 12 38 32 55 45 17 13 43 24 57 24 14 0
29 -5 32 -10 4 -6 -9 -38 -29 -73 -19 -34 -65 -98 -102 -142 -37 -44 -73 -90
-82 -103 -8 -12 -48 -55 -88 -94 -41 -39 -74 -75 -74 -80 0 -4 4 -8 8 -8 4 0
38 28 75 61 37 34 67 67 67 74 0 7 13 18 29 24 15 7 35 24 42 38 8 15 47 67
86 117 40 50 80 105 88 123 9 18 20 35 26 39 6 3 17 -3 25 -15 9 -12 26 -21
40 -21 13 0 24 3 24 8 0 4 -4 12 -8 19 -4 6 -20 17 -36 23 -23 8 -27 15 -22
33 4 12 10 37 13 56 l6 33 -39 -4 c-21 -3 -53 -11 -71 -18 -30 -13 -32 -12
-58 18 -15 18 -32 32 -38 32 -7 0 -23 9 -37 20 -14 11 -31 20 -39 20 -8 0 -22
6 -30 14 -9 7 -45 28 -81 47 -36 18 -67 36 -70 40 -3 3 -16 9 -30 13 -14 4
-61 25 -105 46 -44 22 -107 49 -140 61 -33 12 -78 29 -100 39 -22 10 -76 30
-119 44 -43 15 -88 32 -100 38 -12 7 -50 22 -86 35 -36 13 -79 27 -95 32 -17
4 -40 13 -53 20 -12 6 -41 16 -64 21 -24 5 -65 16 -93 25 -27 9 -72 26 -100
37 -27 12 -86 31 -130 44 -44 12 -125 36 -180 52 -55 17 -143 41 -195 55 -52
14 -106 27 -120 30 -14 3 -56 16 -95 30 -38 14 -101 33 -140 42 -38 9 -86 20
-105 25 -19 5 -62 16 -95 24 -33 9 -91 21 -130 27 -38 6 -97 15 -130 20 -33 5
-118 16 -190 24 -71 8 -177 14 -235 14 -58 -1 -125 -5 -150 -9z m989 -159 c8
-5 9 -11 3 -15 -5 -3 -24 -3 -41 0 -17 4 -31 10 -31 15 0 5 12 9 28 9 15 0 33
-4 41 -9z m-4173 -2102 c3 -6 1 -16 -5 -22 -8 -8 -14 -8 -22 0 -6 6 -8 16 -5
22 4 6 11 11 16 11 5 0 12 -5 16 -11z m64 -8 c0 -6 -4 -13 -10 -16 -5 -3 -10
1 -10 9 0 9 5 16 10 16 6 0 10 -4 10 -9z m-290 -311 c0 -5 -4 -10 -10 -10 -5
0 -10 5 -10 10 0 6 5 10 10 10 6 0 10 -4 10 -10z m-74 -75 c-3 -8 0 -27 6 -40
9 -19 9 -28 0 -37 -7 -7 -12 -21 -12 -33 0 -12 5 -26 12 -33 9 -9 8 -12 -4
-12 -9 0 -19 7 -22 16 -3 8 -10 13 -15 10 -5 -3 -14 1 -21 9 -7 9 -10 18 -7
22 4 3 13 0 22 -7 12 -10 16 -9 21 4 3 9 2 22 -3 29 -5 6 -8 22 -7 34 0 12 4
28 7 37 4 9 11 16 18 16 6 0 9 -7 5 -15z m264 -34 c0 -6 -11 -23 -24 -38 -13
-15 -27 -25 -31 -22 -3 4 0 18 6 32 6 14 19 28 28 30 9 3 17 5 19 6 1 0 2 -3
2 -8z m-320 -186 c7 -9 10 -18 6 -22 -3 -3 -14 -7 -24 -8 -9 -1 -25 -6 -35
-10 -10 -4 -20 -5 -24 -2 -3 3 7 17 22 31 16 15 31 26 35 26 4 0 13 -7 20 -15z
m-222 -127 c-2 -12 -8 -23 -14 -25 -6 -2 -14 4 -18 12 -3 9 -4 21 0 26 3 5 12
9 20 9 10 0 14 -8 12 -22z"/>
<path d="M1245 4251 c-16 -11 -44 -32 -61 -48 -16 -15 -66 -67 -110 -114 -43
-47 -104 -116 -134 -153 -30 -37 -69 -83 -86 -104 -17 -20 -82 -104 -144 -186
-62 -82 -140 -194 -174 -250 -34 -55 -78 -128 -98 -161 -20 -33 -54 -97 -77
-142 -22 -45 -58 -126 -80 -180 -21 -54 -50 -132 -64 -173 -13 -41 -35 -111
-47 -155 -12 -44 -27 -91 -32 -105 -6 -14 -23 -65 -39 -113 -15 -49 -31 -119
-35 -157 -3 -38 -3 -85 0 -104 4 -20 13 -36 20 -36 10 0 15 25 18 98 4 69 12
119 31 172 14 41 42 115 61 164 20 49 36 97 36 106 0 8 24 78 54 155 29 77 65
165 79 196 13 31 30 60 36 63 6 4 11 15 11 25 0 10 12 40 27 67 15 27 37 65
50 84 12 19 28 42 35 49 7 8 20 29 30 45 9 17 22 40 28 51 5 11 24 40 40 65
17 25 36 59 44 75 8 17 35 52 60 79 25 28 48 62 51 77 3 14 24 41 47 59 22 18
47 48 55 67 7 19 29 50 48 68 18 19 36 48 40 65 4 19 18 38 34 47 14 9 44 40
65 69 22 30 44 54 50 54 6 0 31 20 55 45 24 25 48 45 53 45 5 0 11 -7 15 -16
3 -9 -4 -59 -16 -110 -13 -51 -43 -142 -68 -201 -24 -59 -53 -130 -63 -158
-10 -27 -37 -90 -60 -140 -23 -49 -69 -153 -103 -230 -33 -77 -75 -183 -94
-235 -19 -52 -50 -144 -69 -205 -20 -60 -47 -144 -61 -185 -14 -41 -41 -127
-60 -190 -19 -63 -40 -140 -48 -170 -7 -30 -21 -102 -30 -159 -10 -57 -15
-131 -13 -164 3 -44 10 -64 24 -74 12 -10 35 -13 65 -10 30 2 64 15 97 37 28
18 53 39 56 46 3 8 1 14 -5 14 -5 0 -26 -11 -47 -24 -20 -13 -46 -27 -58 -30
-13 -4 -28 1 -42 14 -12 11 -24 31 -28 45 -3 13 -4 50 -1 82 2 32 12 99 21
148 10 50 28 122 40 160 13 39 38 117 55 175 17 58 51 161 76 230 24 69 53
157 66 195 12 39 25 75 29 80 4 6 13 28 20 50 7 22 32 83 57 135 24 52 51 108
59 123 8 16 14 34 14 41 0 7 23 58 50 113 28 56 50 106 50 112 0 7 14 49 31
94 18 45 38 89 46 98 8 9 28 68 45 130 18 63 33 147 36 187 2 48 -1 78 -8 88
-7 7 -15 14 -19 14 -3 0 -19 -9 -36 -19z"/>
<path d="M4602 3777 c-12 -13 -22 -32 -22 -43 0 -11 6 -27 13 -36 6 -8 31 -23
55 -32 23 -9 66 -16 95 -16 29 0 57 -4 63 -9 5 -5 39 -11 76 -14 52 -3 70 -1
80 10 9 11 23 13 52 8 23 -4 64 -6 91 -6 28 1 82 3 120 5 39 3 91 0 116 -5 32
-7 65 -7 105 0 40 8 60 8 64 0 5 -7 63 -8 176 -5 93 3 176 5 184 5 8 0 31 1
50 1 19 1 49 2 65 2 17 -1 64 -1 105 -2 41 0 150 3 242 6 92 4 165 10 163 15
-3 4 -141 8 -308 8 -166 1 -349 3 -407 6 -58 3 -154 7 -215 10 -60 3 -148 8
-195 11 -47 2 -112 7 -145 9 -33 2 -163 7 -290 11 -157 4 -241 11 -264 20 -28
12 -32 17 -27 39 4 17 2 25 -7 25 -7 0 -23 -10 -35 -23z"/>
<path d="M11330 3789 c-58 -5 -140 -19 -184 -29 -43 -11 -86 -20 -96 -20 -9 0
-48 -9 -86 -20 -38 -12 -87 -26 -109 -31 -22 -6 -116 -35 -209 -66 -93 -30
-193 -65 -224 -79 -30 -13 -58 -24 -63 -24 -5 0 -55 -21 -111 -46 -57 -26
-143 -67 -193 -92 -49 -24 -97 -50 -105 -56 -8 -7 -40 -25 -70 -41 -30 -16
-86 -49 -125 -75 -38 -26 -92 -62 -120 -80 -27 -19 -97 -72 -155 -119 -58 -47
-154 -135 -215 -196 -60 -60 -132 -136 -160 -168 -33 -38 -57 -57 -72 -57 -13
0 -23 -4 -23 -9 0 -4 -18 -31 -40 -59 -25 -31 -38 -56 -34 -66 4 -11 1 -16
-10 -16 -12 0 -16 -10 -16 -37 0 -21 -15 -78 -33 -128 -30 -83 -32 -99 -32
-215 0 -104 4 -138 24 -200 13 -41 29 -79 35 -85 6 -5 28 -36 49 -68 20 -31
48 -82 62 -112 13 -30 29 -55 35 -55 6 0 20 -16 31 -35 14 -24 40 -44 75 -62
30 -14 54 -30 54 -35 0 -4 13 -8 29 -8 17 0 33 -5 37 -11 3 -6 19 -9 35 -5 15
3 52 -2 81 -11 38 -11 69 -13 108 -8 30 4 69 6 85 5 17 -1 115 -2 219 -2 146
-1 190 2 196 13 6 9 41 14 121 17 66 2 123 9 138 16 18 10 34 11 51 4 14 -5
34 -6 45 -3 11 3 54 8 95 11 41 3 111 12 155 20 44 8 87 18 95 21 8 3 31 5 50
4 19 -1 60 7 90 19 37 13 79 20 129 20 66 0 78 3 100 24 19 18 41 26 83 30 32
3 76 15 98 26 29 15 65 22 123 24 66 3 92 9 132 30 27 15 55 24 63 21 8 -3 31
0 51 6 20 6 52 18 71 25 19 7 62 14 96 16 50 3 71 11 115 40 30 19 65 38 79
41 14 3 43 10 64 16 22 5 52 19 67 30 16 12 35 21 42 21 8 0 32 7 53 17 22 9
46 18 54 19 8 2 35 8 60 13 25 5 64 15 88 22 23 7 41 18 39 24 -2 5 -10 9 -18
8 -8 -1 -72 -12 -144 -23 -71 -12 -173 -31 -225 -42 -52 -11 -129 -26 -170
-34 -41 -8 -124 -24 -185 -35 -60 -11 -120 -24 -132 -29 -13 -5 -68 -19 -124
-30 -56 -11 -123 -20 -150 -20 -26 0 -58 -4 -71 -9 -13 -5 -45 -16 -73 -25
-27 -9 -63 -17 -80 -17 -16 -1 -54 -10 -84 -21 -29 -10 -61 -16 -71 -13 -9 3
-46 1 -81 -5 -35 -5 -97 -19 -138 -29 -41 -11 -86 -17 -101 -15 -14 3 -52 -2
-83 -11 -31 -9 -61 -14 -66 -11 -4 3 -34 0 -65 -6 -41 -9 -62 -9 -74 -2 -12 8
-50 8 -122 3 -58 -5 -202 -9 -320 -10 -182 0 -227 3 -290 19 -41 11 -91 27
-110 35 -19 8 -53 22 -75 31 -22 8 -60 20 -85 27 -25 6 -47 12 -49 13 -3 0 -8
-13 -13 -30 -6 -23 -16 -34 -36 -40 -15 -4 -36 -8 -47 -8 -10 -1 -28 8 -40 19
-11 11 -31 33 -45 48 -15 18 -19 27 -11 25 10 -2 17 8 22 27 4 17 7 23 8 14 0
-9 8 -22 16 -29 11 -9 19 -10 26 -3 7 7 22 4 47 -8 20 -11 42 -19 49 -19 7 0
13 4 13 9 0 4 -32 37 -71 72 -50 46 -78 80 -95 118 -13 29 -24 64 -24 77 0 12
-4 25 -9 28 -4 3 -11 34 -15 68 -5 35 -8 72 -8 83 0 11 5 40 11 65 7 25 23 62
36 82 14 21 25 47 25 58 0 11 16 41 36 67 19 27 63 77 97 113 34 36 86 93 116
126 30 34 74 72 98 85 l45 24 -6 48 c-3 28 -1 45 4 42 5 -3 24 2 42 11 18 9
35 18 37 20 2 2 -7 12 -20 23 l-24 19 35 36 c30 30 42 36 78 36 39 0 45 3 55
30 7 18 25 36 47 46 19 10 62 45 95 79 47 49 68 63 98 68 22 3 54 18 72 32 19
14 38 25 44 25 6 0 15 9 21 20 6 11 17 20 25 20 8 0 25 5 38 11 14 6 30 22 36
35 6 13 18 24 28 24 9 0 33 5 52 11 20 6 43 15 51 20 8 5 38 22 66 39 28 16
62 30 75 30 13 0 42 11 64 25 22 13 47 25 56 25 9 0 36 11 61 24 25 13 67 29
94 36 27 6 63 14 79 17 17 3 39 12 50 19 11 7 42 15 68 18 26 2 54 9 61 15 7
6 40 16 72 22 33 5 76 16 97 24 20 8 63 15 95 15 31 0 72 4 90 9 18 5 65 10
105 10 39 0 101 -1 137 -2 36 -2 91 -11 124 -21 32 -10 83 -29 113 -42 30 -14
68 -39 84 -57 17 -17 40 -50 51 -72 14 -27 20 -56 19 -91 -1 -27 -14 -87 -30
-132 -17 -47 -54 -119 -85 -166 -35 -52 -96 -120 -162 -182 -58 -54 -120 -106
-139 -115 -20 -10 -49 -29 -66 -43 -17 -14 -35 -26 -40 -26 -6 0 -30 -14 -54
-30 -24 -17 -84 -50 -134 -75 -50 -25 -95 -45 -101 -45 -6 0 -37 -12 -68 -26
-31 -14 -66 -29 -77 -34 -11 -4 -54 -19 -95 -33 -41 -14 -104 -32 -140 -42
-36 -9 -81 -20 -100 -25 -19 -5 -69 -14 -110 -20 -41 -5 -115 -11 -165 -11
-49 -1 -117 2 -150 5 -33 4 -89 16 -124 27 -35 11 -75 27 -90 36 -14 9 -43 34
-63 56 -21 21 -43 57 -50 80 -6 23 -12 71 -12 107 1 48 6 74 22 100 12 19 28
49 37 66 9 17 37 58 63 90 27 34 57 60 70 62 12 2 34 -6 48 -17 15 -12 31 -21
35 -21 5 0 9 6 9 13 0 7 -9 23 -21 36 -16 17 -27 21 -50 16 -16 -4 -49 -18
-73 -31 -24 -13 -64 -46 -88 -72 -24 -26 -64 -81 -89 -122 -43 -74 -44 -76
-44 -165 0 -79 3 -95 26 -135 15 -25 44 -59 65 -76 22 -17 55 -38 74 -47 19
-8 63 -23 97 -32 52 -15 93 -16 255 -12 106 4 209 9 230 12 20 3 55 12 79 20
23 8 67 18 98 21 31 3 71 13 90 21 19 9 46 15 60 15 14 0 33 6 41 13 8 7 58
28 110 45 52 18 102 39 111 46 8 8 23 14 32 14 9 0 38 12 64 28 26 15 66 33
88 41 22 8 46 22 53 32 7 11 18 19 24 19 6 0 38 17 72 37 33 20 77 49 96 65
19 15 40 28 46 28 6 0 46 35 90 78 43 42 102 108 129 145 28 37 68 100 88 141
21 41 42 98 47 127 6 28 10 78 10 109 0 32 -7 77 -15 101 -9 24 -30 59 -48 77
-18 18 -56 47 -85 64 -29 16 -76 36 -105 44 -29 8 -110 16 -182 18 -71 3 -177
0 -235 -5z m-1883 -956 c-9 -9 -19 -14 -23 -11 -3 4 -3 11 1 17 3 6 14 11 23
11 15 0 15 -1 -1 -17z m-279 -1242 c12 -10 22 -22 22 -26 0 -4 9 -18 20 -32
11 -14 20 -29 20 -34 0 -4 -15 -7 -32 -7 -18 1 -36 6 -40 11 -4 6 2 17 12 24
11 8 17 20 14 28 -4 8 -17 15 -30 15 -17 0 -24 6 -24 20 0 11 4 20 8 20 5 0
19 -8 30 -19z m479 -103 c-2 -7 0 -21 5 -31 7 -14 12 -16 23 -7 8 6 23 9 34 5
13 -4 18 -12 14 -21 -4 -10 2 -17 16 -21 11 -3 18 -9 15 -14 -3 -5 -16 -9 -30
-9 -13 0 -24 5 -24 10 0 6 -10 15 -22 19 -17 7 -26 5 -36 -7 -11 -15 -14 -15
-29 0 -13 14 -14 20 -4 32 7 9 8 16 2 20 -5 4 -12 2 -16 -4 -3 -5 -13 -10 -20
-10 -8 0 -12 6 -9 14 3 7 15 18 27 24 12 6 30 11 40 11 11 1 17 -4 14 -11z"/>
<path d="M2381 3437 c-14 -7 -35 -22 -47 -34 -13 -13 -28 -23 -34 -23 -6 0
-18 -6 -25 -12 -8 -7 -21 -18 -28 -24 -10 -9 -16 -53 -21 -157 -4 -79 -4 -156
0 -171 3 -14 10 -26 16 -26 5 0 25 12 43 26 19 14 49 49 66 78 17 28 47 64 66
80 19 16 39 40 45 55 5 14 10 64 9 110 0 47 -5 89 -12 97 -6 8 -21 14 -33 13
-11 0 -32 -6 -45 -12z"/>
<path d="M4268 3333 c-46 -43 -124 -114 -173 -158 -50 -44 -110 -100 -135
-125 -25 -25 -86 -90 -135 -145 -49 -55 -160 -172 -246 -260 -87 -88 -168
-173 -180 -190 -13 -16 -53 -66 -90 -110 -36 -44 -74 -94 -83 -112 -9 -18 -16
-38 -16 -45 0 -7 4 -19 9 -27 5 -8 16 -11 30 -6 14 4 21 15 21 31 0 16 12 36
32 55 18 16 36 29 40 29 3 0 10 9 13 21 4 11 20 36 37 55 17 19 35 34 42 34 6
0 26 16 45 35 18 19 36 35 40 35 4 0 17 18 30 40 12 22 28 40 36 40 7 0 37 22
67 48 29 27 75 68 101 92 26 24 83 90 125 146 42 56 85 117 94 134 10 17 31
38 47 48 16 9 36 31 45 49 9 18 22 33 30 33 8 0 40 27 72 61 33 33 71 66 85
74 15 8 52 48 83 89 31 41 56 82 56 90 0 9 -8 16 -19 16 -11 0 -57 -35 -103
-77z"/>
<path d="M18530 3228 c-27 -14 -107 -83 -198 -173 -85 -82 -184 -186 -220
-230 -37 -44 -75 -89 -85 -100 -11 -11 -49 -60 -85 -109 -37 -48 -89 -125
-117 -170 -27 -45 -61 -106 -74 -136 -13 -30 -30 -68 -36 -85 -7 -16 -22 -73
-34 -125 -11 -52 -23 -122 -25 -155 -2 -33 -5 -72 -5 -87 -1 -18 -7 -28 -16
-28 -8 0 -15 -4 -15 -10 0 -5 7 -10 15 -10 8 0 15 -5 15 -11 0 -5 -4 -8 -10
-4 -5 3 -16 -8 -24 -24 -9 -16 -55 -61 -103 -100 -49 -39 -115 -96 -148 -126
-33 -30 -91 -75 -130 -100 -38 -24 -86 -53 -105 -63 -19 -10 -44 -23 -55 -30
-11 -6 -42 -21 -69 -32 -27 -12 -58 -19 -71 -16 -13 3 -26 13 -29 22 -3 9 0
28 7 42 8 19 25 30 52 38 22 6 61 20 88 32 26 12 47 26 47 33 0 6 -7 8 -17 4
-10 -3 -46 -16 -80 -28 -49 -17 -65 -19 -74 -10 -10 10 -7 24 12 65 16 34 54
81 114 140 61 60 102 91 126 98 20 5 43 18 53 28 9 11 53 37 99 60 45 23 106
51 135 62 29 11 62 20 72 20 12 0 20 7 20 16 0 8 -5 25 -11 36 -10 18 -17 20
-61 14 -27 -4 -100 -26 -161 -48 -62 -23 -126 -49 -143 -59 -17 -9 -42 -23
-55 -31 -13 -7 -45 -30 -71 -50 -26 -20 -63 -41 -82 -48 -24 -7 -35 -18 -39
-36 -4 -20 -1 -23 14 -19 11 4 19 3 19 -1 0 -4 -18 -29 -40 -55 -22 -26 -40
-51 -40 -56 -1 -4 -12 -21 -25 -38 -14 -16 -25 -26 -25 -21 0 4 12 31 27 60
16 28 32 54 38 58 5 4 7 10 3 13 -3 3 -21 -13 -41 -37 -19 -24 -46 -68 -60
-98 -23 -51 -25 -62 -18 -137 5 -45 14 -89 21 -98 7 -8 31 -20 53 -26 22 -6
60 -8 84 -4 24 3 79 24 123 46 44 22 80 45 80 50 0 6 17 17 37 25 20 9 55 35
77 58 23 24 64 56 91 72 28 16 78 56 113 88 34 33 77 68 95 79 18 11 41 20 52
21 12 1 21 9 23 23 2 12 10 27 18 34 8 6 17 9 20 6 3 -3 7 -24 8 -46 1 -30 8
-46 24 -57 12 -8 22 -21 22 -29 0 -8 8 -20 18 -27 9 -7 23 -24 29 -38 7 -14
17 -37 23 -52 5 -16 16 -28 23 -28 8 0 57 -41 108 -91 52 -50 113 -104 136
-120 23 -16 44 -29 48 -29 3 0 20 -13 38 -30 18 -16 43 -30 56 -30 13 0 38 -9
55 -20 18 -10 59 -26 91 -35 33 -8 72 -15 87 -15 15 0 28 4 28 10 0 5 -25 17
-55 25 -43 13 -55 21 -55 36 0 17 -5 19 -34 14 -20 -4 -36 -2 -40 4 -4 6 -15
11 -25 11 -9 0 -30 14 -47 31 -16 17 -48 44 -70 60 -23 16 -71 63 -106 106
-35 43 -75 96 -89 118 -15 22 -37 60 -51 85 -14 25 -32 70 -42 100 -9 31 -20
80 -25 109 -5 29 -5 67 -1 85 4 17 11 39 15 49 4 9 13 17 20 17 8 0 50 39 94
88 44 48 111 123 150 167 39 44 71 88 71 97 0 10 -3 18 -8 18 -4 0 -34 -34
-66 -75 -33 -42 -64 -79 -70 -83 -6 -4 -49 -50 -96 -102 -46 -52 -86 -97 -87
-99 -2 -2 -6 -2 -9 2 -3 3 0 48 6 99 7 51 21 110 31 131 11 21 18 43 17 50 -2
7 7 22 19 34 13 13 26 35 29 50 4 16 3 28 -4 31 -7 2 -6 12 3 30 7 15 24 49
36 75 12 26 27 51 32 54 4 3 11 2 15 -2 4 -4 1 -10 -5 -12 -7 -3 -13 -11 -13
-19 0 -7 6 -11 14 -8 8 3 16 16 18 29 3 13 1 28 -4 33 -6 6 3 30 25 63 19 30
47 67 61 83 14 16 26 32 26 35 0 3 21 28 46 55 25 28 50 60 55 73 5 13 17 23
28 23 13 0 21 8 23 23 2 16 11 23 31 25 22 3 27 8 27 30 1 15 9 37 19 50 11
12 23 22 27 22 4 0 3 -5 -4 -12 -7 -7 -12 -16 -12 -20 0 -4 4 -8 9 -8 4 0 26
18 47 40 22 22 42 40 46 40 4 0 26 20 49 45 23 25 48 45 55 45 8 0 14 -9 14
-20 0 -10 -7 -35 -15 -55 -8 -19 -22 -52 -31 -72 -8 -21 -26 -54 -39 -73 -13
-19 -26 -50 -30 -69 -4 -18 -21 -53 -38 -77 -24 -34 -28 -47 -19 -56 9 -9 16
-7 32 7 11 10 20 24 20 30 0 7 18 40 40 73 22 33 40 65 40 71 0 6 4 19 8 29 5
9 18 36 30 59 12 23 33 73 47 111 14 38 25 79 25 91 0 14 -6 21 -19 21 -11 0
-23 5 -26 10 -3 6 -18 10 -33 10 -15 0 -47 -10 -72 -22z m-823 -1190 c-3 -7
-5 -2 -5 12 0 14 2 19 5 13 2 -7 2 -19 0 -25z"/>
<path d="M23845 3171 c-6 -4 -39 -14 -74 -21 -42 -9 -73 -22 -93 -40 -18 -17
-26 -30 -19 -34 5 -4 27 1 48 10 21 10 42 16 47 15 6 -1 26 4 45 13 20 8 47
17 61 20 14 3 31 14 38 26 11 18 10 20 -16 20 -15 0 -32 -4 -37 -9z"/>
<path d="M23375 3041 c-66 -21 -140 -47 -165 -58 -25 -12 -83 -38 -130 -59
-47 -20 -90 -41 -97 -46 -6 -5 -13 -21 -15 -36 -2 -18 -11 -28 -30 -33 -25 -6
-27 -5 -18 11 7 13 6 21 -4 30 -9 7 -28 9 -50 4 -20 -3 -36 -9 -36 -13 0 -4 6
-13 12 -19 10 -10 10 -15 -2 -22 -8 -5 -23 -10 -33 -10 -10 0 -33 -14 -50 -30
-18 -17 -75 -72 -128 -123 -53 -50 -111 -100 -128 -109 -17 -10 -34 -25 -38
-35 -3 -10 -19 -33 -35 -51 -16 -19 -32 -47 -35 -64 -3 -16 -12 -32 -19 -35
-8 -3 -14 -13 -14 -23 0 -9 -8 -28 -19 -41 -10 -13 -22 -40 -26 -59 -4 -19
-18 -58 -32 -87 -13 -28 -31 -54 -38 -57 -7 -2 -13 -20 -13 -38 0 -18 -9 -71
-20 -118 -11 -47 -23 -103 -26 -125 -3 -22 -9 -67 -12 -100 -3 -40 -11 -67
-24 -81 -11 -11 -20 -24 -20 -28 0 -4 10 -16 22 -26 19 -15 23 -30 26 -96 2
-44 8 -84 14 -91 5 -6 6 -22 3 -36 -4 -15 0 -37 9 -55 9 -17 16 -40 16 -50 0
-11 10 -44 22 -73 12 -30 27 -61 35 -70 7 -8 13 -21 13 -29 0 -7 15 -29 33
-50 17 -21 50 -59 72 -85 22 -26 44 -55 49 -64 5 -9 42 -48 82 -88 41 -39 74
-77 74 -83 0 -7 7 -10 15 -6 8 3 20 -3 28 -14 7 -11 31 -31 53 -46 21 -14 55
-40 74 -58 19 -17 53 -42 76 -54 22 -12 65 -28 95 -36 30 -7 72 -23 94 -34 22
-12 49 -25 60 -30 11 -5 36 -15 55 -21 19 -7 50 -17 69 -21 19 -5 47 -18 62
-29 16 -12 42 -21 58 -21 16 0 33 -4 36 -10 3 -5 17 -10 31 -10 13 0 33 -9 45
-21 15 -15 28 -19 46 -14 19 4 32 0 48 -15 13 -12 41 -24 62 -27 21 -3 60 -6
86 -7 27 -1 52 -7 55 -12 4 -5 21 -14 37 -19 17 -6 56 -8 90 -4 33 4 68 3 77
-2 9 -5 37 -9 62 -9 33 0 52 -6 67 -21 15 -15 29 -20 49 -16 15 4 30 3 34 0 3
-3 1 -12 -6 -20 -6 -7 -8 -16 -5 -19 3 -4 18 -4 32 0 16 4 25 13 25 26 0 16 7
20 30 20 23 0 33 -6 40 -24 9 -24 11 -24 134 -24 70 0 126 4 126 9 0 5 5 9 10
9 6 0 10 -9 10 -20 0 -13 7 -20 19 -20 10 0 32 -7 47 -15 l29 -15 3 52 c2 28
-1 55 -6 60 -6 6 -42 6 -99 0 -50 -5 -112 -5 -143 -1 -30 5 -81 12 -112 15
-40 5 -58 11 -58 21 0 10 -9 12 -37 8 -21 -3 -48 -8 -60 -11 -20 -4 -23 0 -23
26 0 21 -5 30 -16 30 -12 0 -15 -7 -12 -25 4 -21 1 -25 -18 -25 -13 0 -43 7
-66 16 -24 9 -53 20 -64 26 -12 5 -42 7 -67 4 -40 -6 -46 -4 -52 14 -4 14 -15
20 -35 20 -16 0 -32 5 -35 11 -4 6 -13 8 -20 5 -7 -2 -21 4 -30 14 -9 10 -14
24 -10 29 3 6 0 18 -9 26 -8 8 -17 15 -20 15 -3 0 -5 -10 -3 -22 2 -18 -4 -23
-28 -25 -16 -2 -40 2 -52 7 -13 6 -33 14 -45 19 -13 5 -57 19 -98 30 -41 12
-93 30 -115 41 -22 11 -78 35 -124 55 -47 20 -97 45 -112 56 -15 10 -31 19
-36 19 -5 0 -43 20 -86 46 -53 31 -112 79 -185 152 -59 59 -134 139 -167 177
-34 39 -72 86 -85 104 -13 19 -33 51 -43 70 -10 20 -30 65 -44 101 -13 36 -30
72 -37 80 -7 8 -23 67 -36 130 -12 63 -24 129 -27 145 -2 17 -7 37 -10 45 -3
8 -7 24 -8 35 -1 11 5 25 14 32 9 7 12 13 8 13 -5 0 0 13 9 30 16 26 16 32 4
55 -12 22 -12 32 -1 58 7 18 15 47 17 66 3 18 12 47 20 63 8 15 12 33 9 39 -4
5 6 44 21 87 15 42 37 100 49 127 12 28 34 64 48 81 15 18 27 39 27 47 0 9 4
18 8 21 5 3 21 37 36 75 22 58 41 84 104 146 42 42 120 106 175 142 55 36 163
96 241 133 77 38 188 87 246 110 58 23 109 46 115 51 5 5 19 9 31 9 12 0 38 7
58 15 20 9 34 20 31 24 -3 5 -14 7 -25 4 -11 -3 -20 0 -20 6 0 6 -12 11 -27
11 -16 -1 -82 -18 -148 -39z m423 -2809 c3 -9 -3 -13 -19 -10 -12 1 -24 9 -27
16 -3 9 3 13 19 10 12 -1 24 -9 27 -16z"/>
<path d="M6233 2995 c-17 -7 -37 -23 -43 -34 -6 -12 -10 -45 -8 -73 3 -45 7
-55 29 -67 25 -14 28 -13 52 15 14 16 28 43 32 60 3 18 12 37 20 44 8 7 15 25
15 41 0 26 -3 29 -32 29 -18 -1 -47 -7 -65 -15z"/>
<path d="M14030 2895 c-13 -14 -19 -25 -13 -25 5 0 18 9 28 20 10 11 16 22 13
25 -2 3 -15 -6 -28 -20z"/>
<path d="M13947 2822 c-20 -21 -37 -40 -37 -44 0 -5 4 -8 9 -8 5 0 25 20 45
45 21 25 34 45 29 44 -4 -1 -25 -17 -46 -37z"/>
<path d="M19882 2829 c-7 -12 -11 -24 -7 -27 3 -4 14 -1 23 4 9 6 18 19 20 28
2 9 -3 16 -10 16 -7 0 -19 -9 -26 -21z"/>
<path d="M19712 2677 c-29 -29 -52 -56 -52 -60 0 -4 5 -7 11 -7 6 0 33 23 60
50 27 28 49 55 49 60 0 6 -4 10 -8 10 -4 0 -31 -24 -60 -53z"/>
<path d="M18402 2708 c-7 -7 -12 -17 -12 -22 0 -6 -14 -31 -30 -55 -17 -24
-30 -55 -30 -68 0 -12 -6 -23 -12 -23 -7 0 -23 -15 -35 -33 -13 -18 -23 -41
-23 -50 0 -9 4 -17 10 -17 5 0 21 12 35 27 14 15 25 38 25 50 0 13 8 24 19 28
11 3 25 22 32 43 6 20 20 46 29 57 10 11 22 32 25 48 5 20 3 27 -7 27 -8 0
-19 -5 -26 -12z"/>
<path d="M13764 2646 c-32 -30 -55 -59 -51 -63 4 -4 33 18 64 50 32 31 54 59
51 62 -4 4 -32 -18 -64 -49z"/>
<path d="M1096 2579 c-10 -33 -16 -63 -14 -65 3 -2 10 8 17 24 8 15 17 35 22
44 5 10 9 27 9 38 0 11 -4 20 -8 20 -4 0 -16 -27 -26 -61z"/>
<path d="M1638 2596 c-29 -22 -47 -45 -51 -63 -3 -16 -32 -69 -65 -118 -33
-50 -98 -132 -144 -183 -47 -51 -91 -103 -98 -116 -7 -14 -10 -32 -7 -40 4 -9
16 -16 28 -16 12 0 37 17 58 39 20 21 72 80 116 132 44 51 94 107 111 124 17
17 45 60 62 95 17 36 37 87 46 115 8 27 12 53 10 57 -3 4 -9 8 -13 8 -5 0 -28
-15 -53 -34z"/>
<path d="M22007 2623 c-10 -3 -44 -19 -76 -38 -32 -18 -123 -86 -202 -152 -79
-66 -171 -146 -204 -179 -33 -32 -107 -111 -165 -174 -57 -63 -123 -134 -146
-158 -23 -23 -47 -56 -54 -72 -7 -17 -10 -33 -7 -37 4 -3 0 -20 -7 -37 -7 -17
-16 -55 -20 -84 -6 -46 -13 -59 -58 -103 -28 -27 -48 -52 -45 -56 4 -3 20 0
37 7 18 8 35 9 40 4 4 -5 17 -38 27 -74 11 -36 32 -85 47 -108 21 -33 41 -50
84 -69 49 -21 71 -25 159 -24 85 0 112 4 160 25 31 13 59 29 61 35 2 6 -7 11
-21 11 -13 0 -44 -7 -68 -15 -24 -9 -69 -17 -100 -18 -34 -1 -69 5 -91 16 -20
9 -46 27 -58 40 -12 13 -28 40 -35 61 -11 32 -11 47 2 95 8 31 20 72 25 91 5
19 15 58 22 85 7 28 16 58 19 68 4 9 9 24 12 32 2 8 0 17 -5 20 -6 4 -10 19
-10 35 0 20 15 46 50 87 27 32 50 62 50 67 0 4 24 36 53 69 28 33 109 117 178
186 69 69 142 140 163 156 20 17 49 42 64 58 14 15 34 27 43 27 9 0 24 11 33
25 9 14 22 25 30 25 7 0 20 -8 29 -17 13 -16 14 -20 1 -37 -8 -11 -14 -27 -14
-35 1 -10 16 1 40 28 31 34 40 52 40 80 0 20 -5 42 -12 49 -7 7 -21 11 -32 11
-12 -1 -29 -3 -39 -6z"/>
<path d="M4384 2597 c-26 -22 -26 -25 -15 -76 11 -51 10 -54 -24 -113 -20 -33
-61 -90 -91 -126 -30 -35 -74 -80 -97 -99 -23 -18 -58 -46 -77 -62 -19 -15
-54 -40 -77 -56 -24 -15 -43 -32 -43 -36 0 -5 -7 -9 -15 -9 -8 0 -15 -4 -15
-10 0 -5 1 -10 3 -10 2 0 27 11 55 25 29 14 55 25 58 25 3 0 25 15 47 33 23
17 50 40 59 50 10 9 21 17 26 17 4 0 13 13 20 30 7 16 22 32 33 35 10 4 19 11
19 16 0 5 16 26 35 47 20 20 54 61 75 91 22 30 40 58 40 62 0 4 8 10 18 14 9
4 49 10 87 12 39 2 90 5 115 7 25 2 73 8 108 14 35 6 69 15 75 20 7 5 38 13
70 16 42 6 57 12 57 23 0 13 -8 14 -46 8 -26 -4 -54 -10 -63 -15 -9 -5 -69
-16 -133 -25 -66 -9 -134 -13 -155 -9 -21 4 -46 11 -55 16 -12 6 -18 21 -18
46 0 21 -5 43 -12 50 -7 7 -18 12 -24 12 -7 0 -25 -10 -40 -23z"/>
<path d="M5011 2571 c-14 -4 -26 -12 -29 -19 -2 -6 4 -12 12 -12 9 0 19 -7 22
-15 3 -8 1 -30 -6 -50 -6 -19 -28 -59 -47 -88 -20 -28 -94 -112 -165 -186 -71
-73 -135 -146 -144 -163 -8 -16 -14 -41 -12 -55 2 -19 13 -29 41 -40 20 -8 48
-12 62 -9 16 4 25 13 25 26 0 13 -8 20 -27 22 -14 2 -28 9 -31 15 -2 7 35 50
82 95 47 45 86 88 86 95 0 7 14 19 30 28 17 9 30 19 30 23 0 5 18 29 41 54 22
25 56 72 76 104 23 39 37 76 41 108 4 40 1 52 -13 63 -11 7 -26 13 -34 12 -9
-1 -27 -4 -40 -8z"/>
<path d="M2346 2563 c-4 -4 -44 -10 -89 -14 -46 -4 -99 -15 -119 -25 -21 -10
-38 -21 -38 -26 0 -4 15 -8 33 -8 l32 -1 -40 -35 c-22 -20 -70 -64 -106 -98
-36 -35 -80 -83 -97 -108 -17 -24 -33 -60 -37 -79 -5 -27 -2 -41 13 -59 17
-21 31 -26 99 -31 43 -3 98 -1 123 4 25 5 54 13 65 18 11 4 34 10 50 14 17 3
42 11 58 17 15 6 27 14 27 19 0 5 -11 9 -25 9 -13 0 -34 -4 -47 -9 -13 -5 -32
-13 -43 -17 -11 -4 -24 -8 -30 -9 -5 -1 -37 -5 -69 -10 -49 -6 -65 -5 -94 11
-31 16 -33 22 -29 51 3 19 16 47 29 63 13 15 36 47 52 69 16 22 41 44 55 49
14 5 47 29 73 53 31 28 64 47 95 56 35 9 63 9 105 2 40 -7 64 -7 78 1 13 7 20
21 20 39 0 15 -8 35 -18 44 -12 11 -36 17 -69 17 -27 0 -53 -3 -57 -7z"/>
<path d="M13637 2522 c-20 -21 -37 -41 -37 -45 0 -4 4 -7 9 -7 5 0 25 17 45
37 20 21 36 41 36 45 0 4 -4 8 -8 8 -4 0 -25 -17 -45 -38z"/>
<path d="M4277 2526 c-3 -8 -25 -23 -49 -34 -24 -10 -83 -47 -133 -81 -49 -33
-114 -78 -142 -99 -29 -21 -91 -71 -137 -110 -46 -39 -104 -98 -129 -132 -25
-33 -48 -74 -52 -90 -5 -21 -2 -39 9 -55 11 -17 26 -25 44 -25 15 0 43 3 63 6
20 4 49 17 65 30 l29 24 -57 -7 c-54 -5 -58 -4 -58 15 0 11 18 42 41 68 22 27
45 59 50 72 5 13 23 31 41 40 18 9 43 29 57 45 14 15 31 27 39 27 7 0 24 11
38 25 14 14 39 32 56 41 18 9 38 22 45 28 7 6 27 22 45 36 18 14 53 45 78 70
25 25 58 54 74 66 20 14 27 26 23 38 -4 9 -13 16 -21 16 -7 0 -16 -6 -19 -14z"/>
<path d="M19540 2525 c-10 -12 -10 -15 4 -15 9 0 16 7 16 15 0 8 -2 15 -4 15
-2 0 -9 -7 -16 -15z"/>
<path d="M1057 2473 c-4 -3 -7 -15 -7 -26 0 -16 3 -17 15 -7 8 7 15 19 15 26
0 8 -4 14 -8 14 -5 0 -12 -3 -15 -7z"/>
<path d="M1945 2406 c-38 -30 -89 -72 -112 -93 -23 -21 -43 -44 -43 -50 0 -7
4 -13 10 -13 5 0 13 6 17 14 4 7 23 21 42 31 18 9 35 24 38 33 3 10 33 38 69
65 35 26 64 52 64 57 0 6 -3 10 -7 10 -5 0 -39 -25 -78 -54z"/>
<path d="M7060 2421 c0 -5 7 -12 16 -15 8 -3 12 -11 9 -17 -4 -6 -17 -8 -30
-5 -14 4 -28 0 -36 -10 -7 -9 -23 -20 -35 -24 -12 -5 -39 -29 -60 -55 -32 -40
-36 -49 -26 -66 7 -10 12 -25 12 -33 0 -8 16 -34 36 -58 27 -32 52 -49 97 -66
48 -18 90 -24 186 -28 105 -4 127 -2 142 12 14 13 29 15 62 10 35 -5 48 -3 61
10 10 9 13 21 9 25 -5 5 -47 2 -93 -7 -51 -10 -111 -14 -150 -11 -36 2 -78 12
-95 21 -16 9 -35 16 -42 16 -6 0 -27 9 -46 20 -19 11 -39 32 -45 46 -7 14 -12
30 -12 36 0 5 15 42 33 82 19 39 41 77 50 85 10 7 17 20 17 27 0 9 -11 14 -30
14 -16 0 -30 -4 -30 -9z m110 -351 c0 -6 -9 -10 -19 -10 -11 0 -23 5 -26 10
-3 6 -3 15 0 20 4 7 13 7 26 0 10 -6 19 -15 19 -20z"/>
<path d="M21973 2418 c2 -7 7 -13 12 -13 5 0 10 6 13 13 2 6 -4 12 -13 12 -9
0 -15 -6 -12 -12z"/>
<path d="M18216 2395 c-9 -13 -16 -30 -16 -37 0 -7 12 0 25 15 14 15 25 32 25
38 0 5 -4 9 -9 9 -5 0 -16 -11 -25 -25z"/>
<path d="M5783 2379 c-18 -5 -33 -16 -33 -24 0 -7 -15 -24 -32 -36 -18 -13
-49 -36 -69 -53 -19 -17 -46 -40 -60 -51 -13 -11 -55 -46 -94 -77 -38 -31 -89
-74 -112 -96 -29 -26 -43 -48 -43 -65 0 -14 7 -28 16 -31 9 -3 20 -6 26 -6 6
0 7 7 4 16 -4 11 7 28 33 53 21 20 63 55 92 78 30 24 92 73 139 110 47 38 111
87 143 111 36 27 57 50 57 62 0 13 -6 20 -17 19 -10 0 -33 -5 -50 -10z"/>
<path d="M6890 2370 c0 -5 4 -10 9 -10 6 0 13 5 16 10 3 6 -1 10 -9 10 -9 0
-16 -4 -16 -10z"/>
<path d="M13461 2331 c-23 -27 -41 -52 -41 -55 0 -3 6 -6 13 -6 6 0 25 18 40
40 16 22 33 40 38 40 5 0 9 7 9 15 0 8 -4 15 -9 15 -5 0 -28 -22 -50 -49z"/>
<path d="M6710 2355 c-30 -7 -73 -20 -95 -30 -22 -9 -66 -34 -98 -54 -32 -20
-76 -47 -97 -61 -21 -14 -68 -53 -104 -87 -59 -56 -66 -67 -66 -101 0 -25 6
-44 18 -53 9 -8 33 -20 53 -27 20 -7 44 -10 53 -6 9 3 16 10 16 14 0 4 -14 13
-30 20 -17 7 -35 21 -41 31 -7 14 -4 29 10 58 11 21 37 52 58 69 21 17 55 38
76 48 20 10 37 21 37 25 0 4 30 28 68 53 37 25 83 48 102 52 19 3 44 9 55 14
11 4 33 13 48 19 15 6 41 11 57 11 17 0 30 5 30 10 0 6 -21 10 -47 9 -27 -1
-73 -7 -103 -14z"/>
<path d="M5651 2341 c-10 -7 -10 -10 -1 -16 6 -4 16 -3 22 3 5 5 6 12 1 15 -5
3 -15 2 -22 -2z"/>
<path d="M983 2318 c-5 -7 -26 -46 -46 -85 -21 -40 -32 -73 -26 -73 6 0 20 11
31 25 11 14 31 47 44 73 13 26 24 53 24 60 0 6 -4 12 -9 12 -5 0 -13 -6 -18
-12z"/>
<path d="M5540 2305 c-14 -8 -33 -14 -42 -15 -10 0 -18 -5 -18 -10 0 -7 14 -8
38 -4 20 3 41 10 46 14 4 5 7 13 5 18 -3 7 -13 5 -29 -3z"/>
<path d="M21853 2305 c-3 -9 -3 -18 0 -21 3 -3 10 -3 16 1 6 3 11 13 11 21 0
8 -5 14 -10 14 -6 0 -13 -7 -17 -15z"/>
<path d="M21780 2257 c0 -7 -13 -26 -30 -42 -16 -16 -30 -35 -30 -42 0 -7 4
-13 9 -13 5 0 27 20 50 45 22 24 41 49 41 55 0 5 -9 10 -20 10 -11 0 -20 -6
-20 -13z"/>
<path d="M7706 2215 c-25 -26 -46 -49 -46 -51 0 -2 6 -4 13 -4 6 0 32 18 57
39 34 29 42 42 34 51 -9 9 -23 0 -58 -35z"/>
<path d="M13363 2224 c-15 -20 -64 -80 -108 -133 -44 -53 -94 -115 -111 -136
-17 -22 -38 -54 -47 -72 -10 -18 -17 -37 -17 -43 0 -5 8 -10 18 -10 12 0 25
14 37 39 10 22 24 42 31 45 7 3 20 21 28 41 9 20 20 34 26 30 5 -3 7 -17 4
-31 -3 -13 -2 -24 2 -24 5 0 17 7 28 15 11 8 16 20 12 30 -3 9 -11 13 -17 10
-7 -5 -9 3 -7 21 2 18 11 33 26 39 12 5 22 18 22 28 0 10 8 30 17 45 10 15 37
47 60 71 24 24 43 50 43 57 0 8 -4 14 -10 14 -5 0 -22 -16 -37 -36z"/>
<path d="M5393 2243 c-13 -2 -23 -8 -23 -13 0 -5 -8 -10 -17 -12 -10 -2 -13
-6 -8 -10 6 -3 30 5 55 18 25 12 38 23 30 22 -8 0 -25 -3 -37 -5z"/>
<path d="M5295 2199 c-4 -6 -5 -13 -2 -16 3 -3 10 -2 16 2 6 3 11 10 11 16 0
5 -4 9 -9 9 -6 0 -13 -5 -16 -11z"/>
<path d="M6769 2138 c-55 -42 -77 -64 -66 -66 9 -2 48 23 87 54 38 32 70 62
70 66 0 4 -2 8 -4 8 -2 0 -41 -28 -87 -62z"/>
<path d="M5240 2170 c0 -5 7 -10 16 -10 8 0 12 5 9 10 -3 6 -10 10 -16 10 -5
0 -9 -4 -9 -10z"/>
<path d="M5170 2140 c-8 -5 -12 -11 -9 -14 2 -3 11 -1 19 4 8 5 12 11 9 14 -2
3 -11 1 -19 -4z"/>
<path d="M7578 2137 c-16 -6 -28 -14 -28 -19 0 -4 6 -8 14 -8 8 0 26 4 40 10
14 5 26 14 26 20 0 5 -6 10 -12 9 -7 -1 -25 -6 -40 -12z"/>
<path d="M19027 2118 c-26 -18 -47 -37 -47 -41 0 -5 10 -5 22 -1 13 4 37 19
55 33 18 14 33 29 33 34 0 4 -4 7 -8 7 -4 0 -29 -15 -55 -32z"/>
<path d="M850 2095 c0 -8 5 -15 10 -15 6 0 10 7 10 15 0 8 -4 15 -10 15 -5 0
-10 -7 -10 -15z"/>
<path d="M21620 2074 c0 -9 5 -14 12 -12 6 2 14 10 16 16 2 7 -3 12 -12 12 -9
0 -16 -7 -16 -16z"/>
<path d="M810 2050 c0 -5 5 -10 10 -10 6 0 10 5 10 10 0 6 -4 10 -10 10 -5 0
-10 -4 -10 -10z"/>
<path d="M6650 2044 c0 -8 5 -12 10 -9 6 3 10 10 10 16 0 5 -4 9 -10 9 -5 0
-10 -7 -10 -16z"/>
<path d="M18923 2041 c-13 -11 -23 -24 -23 -30 0 -6 14 -4 35 7 19 9 33 21 32
26 -2 6 -7 11 -13 13 -5 1 -19 -6 -31 -16z"/>
<path d="M4915 2025 c-27 -14 -55 -25 -62 -25 -6 0 -15 -5 -19 -12 -5 -8 0 -9
17 -4 13 4 41 12 62 17 21 5 47 15 57 22 11 6 20 15 20 19 0 5 -6 8 -12 8 -7
0 -35 -12 -63 -25z"/>
<path d="M21580 2030 c0 -5 5 -10 10 -10 6 0 10 5 10 10 0 6 -4 10 -10 10 -5
0 -10 -4 -10 -10z"/>
<path d="M6584 2015 c-4 -8 -12 -15 -20 -15 -8 0 -14 -4 -14 -10 0 -5 2 -10 5
-10 3 0 17 7 30 16 14 9 25 20 25 25 0 5 -5 9 -10 9 -6 0 -13 -7 -16 -15z"/>
<path d="M21530 1995 c-7 -9 -10 -18 -7 -22 4 -3 13 0 22 7 8 7 15 16 15 21 0
5 -4 9 -9 9 -5 0 -14 -7 -21 -15z"/>
<path d="M18839 1981 c-13 -11 -22 -22 -19 -25 3 -2 20 2 38 11 17 8 32 19 32
24 0 5 -6 9 -14 9 -8 0 -24 -9 -37 -19z"/>
<path d="M3865 1980 c-3 -5 3 -10 14 -10 12 0 21 5 21 10 0 6 -6 10 -14 10 -8
0 -18 -4 -21 -10z"/>
<path d="M22620 1979 c0 -5 5 -7 10 -4 6 3 10 8 10 11 0 2 -4 4 -10 4 -5 0
-10 -5 -10 -11z"/>
<path d="M6457 1973 c-4 -3 -7 -10 -7 -15 0 -4 7 -8 15 -8 8 0 15 7 15 15 0 8
-4 15 -8 15 -5 0 -12 -3 -15 -7z"/>
<path d="M13615 1971 c-3 -6 -3 -15 0 -21 3 -5 13 -10 21 -10 9 0 14 7 12 17
-2 9 -8 18 -15 20 -6 2 -14 -1 -18 -6z"/>
<path d="M16314 1960 c-12 -5 -25 -13 -28 -19 -4 -6 -1 -29 5 -51 10 -33 10
-49 0 -78 -7 -20 -25 -55 -39 -77 -15 -22 -34 -56 -44 -75 -10 -19 -23 -44
-30 -55 -7 -11 -30 -45 -52 -75 -21 -30 -62 -78 -91 -105 -29 -28 -79 -65
-111 -82 -33 -17 -73 -34 -90 -37 -23 -5 -33 -3 -37 8 -3 8 -2 29 3 46 5 18
21 52 36 78 15 25 72 90 128 144 56 54 105 98 109 98 5 0 33 24 64 52 30 29
61 65 69 81 8 15 12 33 8 39 -5 8 -57 9 -188 2 -100 -5 -244 -8 -321 -8 -102
0 -160 5 -213 18 -40 10 -88 16 -107 13 -18 -3 -58 -18 -89 -33 -31 -15 -56
-31 -56 -35 0 -5 -12 -15 -27 -23 -16 -8 -41 -28 -58 -44 -16 -15 -52 -45 -79
-66 -27 -20 -80 -73 -119 -118 -38 -44 -76 -88 -83 -97 -7 -9 -33 -38 -56 -66
-24 -27 -61 -76 -82 -107 -21 -32 -40 -74 -43 -96 -3 -22 0 -48 5 -59 7 -12
26 -23 49 -26 28 -5 50 0 88 17 27 13 68 30 90 37 22 7 47 19 56 26 8 7 22 13
29 13 7 0 32 16 56 35 23 19 47 35 53 35 5 0 19 14 31 30 12 17 27 30 33 30 7
0 26 12 43 28 16 15 48 52 70 82 22 30 55 82 72 115 17 33 37 80 43 105 6 25
13 65 16 90 3 25 8 48 12 52 3 4 40 4 81 -1 48 -5 165 -3 322 7 135 8 254 12
263 8 15 -5 12 -12 -16 -44 -18 -20 -69 -66 -113 -102 -45 -36 -109 -95 -143
-131 -34 -36 -78 -96 -98 -133 -19 -37 -35 -78 -35 -92 0 -13 8 -32 19 -43 16
-16 29 -18 91 -13 50 3 86 12 115 28 23 13 48 35 55 50 8 14 31 34 52 45 20
10 43 29 49 42 6 12 18 29 26 37 8 8 37 46 64 84 27 39 57 86 66 105 9 20 24
45 34 56 10 12 25 38 32 60 8 21 20 43 29 48 11 7 31 -2 79 -34 35 -25 82 -50
104 -56 22 -6 69 -16 105 -22 36 -6 103 -9 149 -6 47 2 89 9 95 15 7 7 -29 10
-111 10 -116 0 -123 1 -194 34 -41 19 -93 51 -116 71 -23 20 -53 60 -68 90
-14 30 -29 55 -33 54 -4 0 -17 -4 -28 -9z m-936 -158 c7 -19 6 -50 -3 -98 -7
-38 -20 -85 -29 -104 -10 -19 -23 -44 -29 -55 -7 -11 -26 -40 -43 -65 -18 -25
-56 -67 -87 -95 -30 -27 -83 -70 -117 -95 -35 -24 -92 -62 -128 -82 -35 -21
-68 -38 -73 -38 -5 0 -18 -5 -29 -12 -15 -10 -23 -9 -39 6 -12 11 -21 31 -21
45 0 14 13 44 28 66 15 22 41 58 57 80 17 22 35 45 40 52 6 6 21 26 35 43 14
17 43 50 65 73 22 24 56 60 76 82 19 22 71 72 115 111 43 39 97 81 119 92 22
12 43 21 47 22 3 0 10 -13 16 -28z"/>
<path d="M22572 1958 c-7 -7 -12 -18 -12 -25 0 -7 6 -13 13 -13 7 0 18 5 25
12 7 7 12 18 12 25 0 7 -6 13 -13 13 -7 0 -18 -5 -25 -12z"/>
<path d="M13676 1915 c4 -8 8 -15 10 -15 2 0 4 7 4 15 0 8 -4 15 -10 15 -5 0
-7 -7 -4 -15z"/>
<path d="M21450 1921 c0 -5 -8 -11 -18 -13 -10 -3 -29 -19 -41 -37 -14 -19
-18 -31 -10 -31 7 0 29 18 51 39 21 22 38 42 38 45 0 3 -4 6 -10 6 -5 0 -10
-4 -10 -9z"/>
<path d="M22461 1855 c-30 -24 -58 -51 -63 -59 -5 -9 -6 -21 -3 -26 3 -6 13
-10 21 -10 8 0 18 8 21 18 4 9 26 36 50 59 24 24 43 47 43 53 0 5 -3 10 -7 10
-5 -1 -32 -20 -62 -45z"/>
<path d="M19398 1812 c-27 -15 -48 -30 -48 -34 0 -5 11 -6 24 -2 17 4 27 1 33
-11 7 -11 6 -35 -2 -68 -7 -29 -18 -63 -24 -77 -6 -14 -25 -50 -42 -80 -17
-30 -42 -68 -55 -83 -13 -16 -24 -32 -24 -37 0 -5 -6 -15 -13 -22 -7 -7 -32
-39 -55 -70 -23 -31 -42 -60 -42 -64 0 -4 -7 -15 -15 -25 -11 -11 -14 -26 -9
-43 5 -20 16 -28 46 -36 22 -6 56 -10 76 -8 26 2 38 8 40 21 3 12 -3 17 -22
17 -14 0 -29 8 -34 17 -8 13 0 29 34 72 25 31 53 65 64 76 10 11 30 31 45 45
14 14 28 36 32 50 3 14 15 41 26 60 12 19 24 37 28 40 3 3 21 34 39 69 28 56
32 72 28 122 -3 38 -11 65 -23 79 -10 11 -28 20 -39 19 -12 0 -42 -13 -68 -27z"/>
<path d="M13050 1795 c0 -8 5 -15 10 -15 6 0 10 7 10 15 0 8 -4 15 -10 15 -5
0 -10 -7 -10 -15z"/>
<path d="M17580 1800 c0 -5 5 -10 10 -10 6 0 10 5 10 10 0 6 -4 10 -10 10 -5
0 -10 -4 -10 -10z"/>
<path d="M19273 1749 c-24 -12 -43 -25 -43 -30 0 -5 5 -9 10 -9 6 0 23 6 39
14 15 8 33 22 40 30 8 9 10 16 5 16 -5 0 -28 -9 -51 -21z"/>
<path d="M20039 1712 c-14 -9 -58 -50 -98 -89 -39 -40 -69 -73 -65 -73 3 0 14
5 26 11 11 6 22 8 25 6 2 -3 -7 -27 -22 -54 -14 -26 -33 -60 -43 -74 -9 -14
-32 -50 -49 -80 -21 -34 -31 -61 -27 -74 3 -11 15 -28 26 -37 11 -10 36 -18
57 -18 20 0 63 9 96 21 33 11 70 32 83 46 13 14 21 27 19 29 -2 2 -17 -2 -33
-10 -16 -8 -47 -16 -69 -18 -37 -3 -40 -1 -43 24 -2 18 7 37 30 63 18 21 40
54 48 74 8 20 35 72 60 116 25 44 44 87 42 95 -1 8 -5 25 -7 38 -3 12 -11 22
-18 22 -6 0 -24 -8 -38 -18z"/>
<path d="M17465 1709 c-4 -6 -5 -13 -2 -16 3 -3 10 -2 16 2 6 3 11 10 11 16 0
5 -4 9 -9 9 -6 0 -13 -5 -16 -11z"/>
<path d="M17375 1639 c-4 -6 -4 -13 -1 -17 4 -3 14 2 23 11 16 16 16 17 1 17
-9 0 -20 -5 -23 -11z"/>
<path d="M20475 1632 c-16 -8 -47 -15 -67 -13 -33 2 -38 -1 -39 -21 -1 -13 -2
-30 -3 -39 -1 -8 -9 -24 -20 -34 -17 -18 -19 -18 -31 -2 -7 9 -20 17 -30 17
-11 0 -15 -5 -11 -15 3 -8 8 -21 11 -28 4 -9 -21 -33 -64 -66 -39 -28 -73 -56
-77 -62 -3 -6 -4 -12 -2 -15 3 -2 27 11 54 28 27 18 65 41 84 51 19 11 52 35
73 53 20 19 42 34 49 34 6 0 4 -7 -5 -18 -10 -10 -17 -26 -17 -35 0 -9 -4 -19
-10 -22 -5 -3 -10 -30 -10 -58 0 -29 7 -74 16 -102 9 -27 18 -55 20 -61 1 -6
21 -21 44 -33 23 -12 50 -19 60 -16 10 3 21 12 24 20 3 8 16 15 30 15 13 0 31
3 40 6 9 3 16 12 16 20 0 7 14 20 30 29 17 9 30 20 30 25 0 5 12 13 26 16 15
4 52 23 83 44 31 20 72 44 92 53 19 9 53 30 75 46 21 17 45 35 52 41 6 6 12
17 12 25 0 8 -6 15 -13 15 -7 0 -28 -13 -47 -29 -19 -15 -49 -35 -66 -44 -17
-9 -34 -22 -37 -30 -3 -7 -51 -37 -107 -66 -79 -40 -111 -51 -139 -49 -34 3
-36 5 -39 43 -2 23 -12 47 -23 58 -10 10 -19 22 -19 26 0 5 16 25 35 44 19 19
35 42 35 51 0 9 -6 16 -14 16 -8 0 -17 16 -21 38 -4 20 -11 43 -17 50 -6 6
-16 12 -22 11 -6 -1 -24 -8 -41 -17z"/>
<path d="M17330 1602 c-8 -2 -23 -11 -32 -20 -10 -8 -18 -19 -18 -24 0 -4 4
-8 9 -8 6 0 23 11 38 24 15 13 26 26 23 29 -3 2 -12 2 -20 -1z"/>
<path d="M22035 1531 c-6 -5 -39 -24 -75 -42 -36 -18 -67 -34 -69 -35 -2 -2
-1 -10 3 -19 5 -14 12 -13 50 9 25 14 63 37 85 52 23 15 41 31 41 35 0 5 -6 9
-13 9 -7 0 -17 -4 -22 -9z"/>
<path d="M17180 1510 c0 -5 7 -10 15 -10 8 0 15 5 15 10 0 6 -7 10 -15 10 -8
0 -15 -4 -15 -10z"/>
<path d="M17130 1490 c0 -5 5 -10 10 -10 6 0 10 5 10 10 0 6 -4 10 -10 10 -5
0 -10 -4 -10 -10z"/>
<path d="M19690 1450 c0 -5 5 -10 10 -10 6 0 10 5 10 10 0 6 -4 10 -10 10 -5
0 -10 -4 -10 -10z"/>
<path d="M21773 1390 c-29 -17 -53 -33 -53 -35 0 -3 10 -4 23 -1 12 2 41 12
65 21 23 9 42 23 42 31 0 8 -6 14 -12 14 -7 0 -37 -14 -65 -30z"/>
<path d="M19604 1386 c-10 -8 -16 -17 -13 -20 3 -4 18 -2 33 3 14 6 26 15 26
21 0 5 -6 10 -13 10 -7 0 -22 -6 -33 -14z"/>
<path d="M20990 1380 c0 -5 7 -10 15 -10 8 0 15 5 15 10 0 6 -7 10 -15 10 -8
0 -15 -4 -15 -10z"/>
<path d="M19560 1352 c-8 -3 -27 -14 -42 -24 -16 -11 -28 -24 -28 -29 0 -5 6
-9 14 -9 8 0 28 14 46 30 18 17 31 32 29 34 -2 2 -11 1 -19 -2z"/>
<path d="M20095 1340 c-3 -5 -2 -10 4 -10 5 0 13 5 16 10 3 6 2 10 -4 10 -5 0
-13 -4 -16 -10z"/>
<path d="M18710 1315 c0 -8 5 -15 10 -15 6 0 10 7 10 15 0 8 -4 15 -10 15 -5
0 -10 -7 -10 -15z"/>
<path d="M19463 1283 c-7 -2 -13 -9 -13 -14 0 -5 7 -9 15 -9 8 0 15 7 15 15 0
8 -1 15 -2 14 -2 0 -9 -3 -15 -6z"/>
<path d="M18650 1254 c-6 -14 -10 -27 -10 -30 0 -2 9 1 20 8 11 7 20 21 20 30
0 10 -5 18 -10 18 -6 0 -15 -12 -20 -26z"/>
<path d="M19395 1240 c-3 -5 1 -10 10 -10 9 0 13 5 10 10 -3 6 -8 10 -10 10
-2 0 -7 -4 -10 -10z"/>
<path d="M19338 1203 c7 -3 16 -2 19 1 4 3 -2 6 -13 5 -11 0 -14 -3 -6 -6z"/>
<path d="M23870 130 c0 -5 7 -10 15 -10 8 0 15 5 15 10 0 6 -7 10 -15 10 -8 0
-15 -4 -15 -10z"/>
<path d="M23910 120 c0 -5 9 -10 21 -10 11 0 17 5 14 10 -3 6 -13 10 -21 10
-8 0 -14 -4 -14 -10z"/>
</g>
</svg>
