<?xml version="1.0" encoding="UTF-8" standalone="no"?>
<!-- Created with Inkscape (http://www.inkscape.org/) -->

<svg
   xmlns:dc="http://purl.org/dc/elements/1.1/"
   xmlns:cc="http://creativecommons.org/ns#"
   xmlns:rdf="http://www.w3.org/1999/02/22-rdf-syntax-ns#"
   xmlns:svg="http://www.w3.org/2000/svg"
   xmlns="http://www.w3.org/2000/svg"
   version="1.1"
   width="601.5"
   height="178.5"
   id="svg3137">
  <metadata
     id="metadata3143">
    <rdf:RDF>
      <cc:Work
         rdf:about="">
        <dc:format>image/svg+xml</dc:format>
        <dc:type
           rdf:resource="http://purl.org/dc/dcmitype/StillImage" />
        <dc:title></dc:title>
      </cc:Work>
    </rdf:RDF>
  </metadata>
  <defs
     id="defs3141" />
  <path
     d="M 0.24452,89.249999 0,0 300.75,0.24835 601.5,0.4967 301.2554,0.74999 1.0108,1.00329 0.74993,89.751644 0.48905,178.5 0.24452,89.249999 z m 56.7087,75.804881 c -3.26737,-0.99199 -10.06173,-5.27577 -11.92105,-7.51611 -2.23492,-2.69292 -3.20521,-24.41776 -1.40653,-31.4923 2.64414,-10.39989 9.25099,-21.5965 19.00637,-32.21008 2.35759,-2.564988 4.57405,-5.809214 4.92547,-7.209394 1.01548,-4.045981 -2.27392,-11.15202 -6.93826,-14.988619 -2.40655,-1.979476 -5.47066,-6.03883 -7.36961,-9.763297 -2.96441,-5.81419 -3.25035,-7.17827 -3.25,-15.50424 3.3e-4,-7.70642 0.40531,-10.01362 2.5986,-14.80441 4.34563,-9.4921 4.60838,-9.107 15.30639,22.43357 1.58568,4.675 3.66098,11.649999 4.61178,15.499999 0.95079,3.85 2.20268,7.591429 2.78196,8.314286 1.45715,1.818285 5.57663,0.637571 8.94123,-2.562707 3.31785,-3.155814 5.00082,-2.200816 1.9133,1.085699 -1.21865,1.29719 -2.06971,3.337567 -1.92061,4.604559 0.28764,2.444319 -1.11628,3.598607 -5.50016,4.522145 -2.75297,0.57996 -2.76701,0.624757 -2.60472,8.309559 0.0897,4.24955 0.5826,8.5494 1.09523,9.55522 0.58682,1.15137 0.4938,6.52227 -0.25112,14.5 -0.65074,6.96918 -1.15056,15.57344 -1.11071,19.12057 0.0719,6.39747 -2.17128,18.70857 -4.10888,22.55067 -2.72562,5.40469 -8.34538,7.51413 -14.79868,5.55488 z m 6.75566,-5.56352 c 1.18464,-0.82976 3.12473,-4.09226 4.31131,-7.25 1.89664,-5.04735 2.1712,-7.91719 2.27131,-23.74136 0.0626,-9.9 0.0137,-20.475 -0.10881,-23.5 -0.12247,-3.025 -0.10118,-6.83764 0.0473,-8.47254 0.34056,-3.749469 -2.68105,-4.83243 -3.78432,-1.35632 -0.39886,1.25669 -2.43129,4.54478 -4.51652,7.30687 -2.08522,2.7621 -5.66028,9.07199 -7.94458,14.02199 -3.42408,7.41986 -4.33747,10.73193 -5.20242,18.86457 -1.4343,13.48597 -0.13572,19.43264 5.0165,22.97232 4.30134,2.9551 6.90621,3.25855 9.91021,1.15447 z M 64.39886,65.163649 C 64.88912,64.370387 63.07215,57.94886 59.5424,48 55.77062,37.36894 54,36.77299 54,46.13454 c 0,5.22204 0.53401,6.93088 4.04411,12.94099 3.87218,6.630088 5.22109,7.922406 6.35475,6.088119 z m 398.93021,79.317361 c -10.022,-6.00722 -9.43534,-23.08571 1.3291,-38.69187 l 2.55959,-3.71086 -5.08984,-10.318948 c -2.79941,-5.675419 -5.35284,-11.655532 -5.67428,-13.289139 -0.62774,-3.190306 2.82728,-12.470194 4.64281,-12.470194 1.41708,0 7.07145,2.949993 9.15355,4.775577 2.68393,2.353266 2.10228,4.06374 -1.5,4.411065 -2.95559,0.284972 -3.2373,0.601714 -3.10982,3.496565 0.15568,3.53496 5.07947,13.995236 6.92025,14.701614 1.49147,0.57233 8.51592,-4.480425 14.78478,-10.634821 4.86066,-4.77191 8.12459,-5.880201 10.45479,-3.55 0.66,0.66 1.2,2.197626 1.2,3.416947 0,1.219321 1.575,5.185784 3.5,8.814363 1.925,3.628581 3.5,7.265951 3.5,8.083051 0,3.79244 -8.82621,-0.28994 -11.53685,-5.33613 -1.07973,-2.010044 -2.67171,-3.790231 -3.53773,-3.955971 -0.86603,-0.165739 -4.21072,2.23156 -7.43267,5.327331 l -5.85808,5.62868 1.61915,4.16086 c 0.89054,2.28848 2.73856,6.86087 4.10672,10.16087 1.36816,3.3 3.28699,9.02302 4.26407,12.71783 1.65595,6.262 1.66539,6.95083 0.13903,10.15163 -1.1978,2.51181 -2.66129,3.75187 -5.45055,4.61841 -2.0972,0.65154 -5.2311,1.82081 -6.96422,2.59837 -4.47492,2.00768 -7.25255,1.75228 -12.0198,-1.10523 z m 17.04881,-5.99443 C 482.37004,137.6542 484,136.80038 484,136.5892 c 0,-0.21117 -1.35,-3.10489 -3,-6.43049 -1.65,-3.32559 -3,-6.32585 -3,-6.66724 C 478,121.53225 473.55748,113 472.53737,113 c -1.87415,0 -7.55437,13.89851 -7.52263,18.40655 0.0505,7.1746 7.22436,10.48063 15.36314,7.08003 z M 268,106.35236 c -0.825,-0.30686 -3.44316,-1.46666 -5.81813,-2.57733 -3.83363,-1.79283 -4.95563,-1.89376 -10,-0.89959 -3.12503,0.61589 -9.80698,1.30473 -14.84878,1.53075 -8.53335,0.38254 -9.56975,0.21065 -14.99569,-2.48703 -3.24057,-1.61116 -6.62714,-2.64459 -7.62672,-2.32734 -0.98885,0.31386 -3.99174,0.008 -6.67307,-0.67882 -4.24808,-1.08875 -5.20264,-1.03489 -7.4212,0.41877 -3.34528,2.19191 -5.26168,2.10539 -7.34844,-0.33177 -2.1598,-2.52246 -3.29398,-2.50722 -7.71924,0.10375 -1.96108,1.15707 -4.2368,1.84619 -5.05716,1.53139 -2.28914,-0.87843 -1.82399,-5.97397 0.75843,-8.308381 1.2375,-1.118652 3.01657,-3.449803 3.95349,-5.180336 2.65327,-4.90072 7.36291,-3.574482 9.24562,2.603576 1.08175,3.549748 3.2296,2.660719 3.91413,-1.620128 0.34037,-2.12857 1.29204,-4.42882 2.11482,-5.111667 2.37048,-1.967319 6.38841,-0.421688 7.14102,2.747025 1.37631,5.794723 5.99904,8.319731 6.5645,3.585632 0.40604,-3.399473 3.15284,-5.252342 5.56642,-3.754866 0.9625,0.597172 2.80634,2.97572 4.09742,5.285664 3.86766,6.919851 4.94394,7.263851 17.54934,5.609271 5.98005,-0.78495 11.07193,-1.62629 11.31529,-1.86965 0.24337,-0.24336 -0.26542,-4.220326 -1.13064,-8.837693 -1.41888,-7.572103 -1.42278,-8.972395 -0.0398,-14.282104 C 253.15809,65.295461 254.4772,63 256.4271,63 c 2.05143,0 13.3356,11.614529 15.60386,16.060683 2.40886,4.721753 2.15269,10.476315 -0.65749,14.770107 -2.31529,3.53762 -1.09572,5.1718 3.84515,5.15238 3.62701,-0.0143 4.82864,-0.58741 7.86195,-3.75 6.57183,-6.851932 10.68219,-18.573734 10.84508,-30.927703 C 294.02545,56.73772 295.31303,53 297.82026,53 c 3.95153,0 5.1771,3.06945 5.22208,13.07874 0.0341,7.580936 0.58445,11.026884 2.81764,17.641016 C 308.61087,91.867203 311.18844,96 313.51899,96 c 1.66367,0 6.00323,-6.650547 7.50387,-11.500001 0.68078,-2.2 1.57482,-4.45 1.98674,-5 0.41193,-0.55 1.51761,-3.7 2.45708,-7 0.93946,-3.3 4.99725,-12.749999 9.01731,-20.999999 4.02006,-8.25 7.96436,-16.575 8.76511,-18.5 0.80076,-1.925 2.87229,-5.01009 4.60341,-6.85576 C 349.58363,24.29858 351,22.40764 351,21.94215 c 0,-0.46549 2.763,-2.46569 6.14001,-4.4449 4.85319,-2.84438 7.00138,-3.53555 10.25,-3.29791 2.31943,0.16968 4.10999,0.81433 4.10999,1.47971 0,0.64848 -2.47289,2.47091 -5.49531,4.04984 -3.02243,1.57893 -5.94743,3.75701 -6.5,4.84017 -0.55258,1.08316 -3.25469,5.26729 -6.00469,9.29807 -2.75,4.03077 -5.32215,7.84712 -5.7159,8.48077 -1.08984,1.7539 -4.45395,9.83401 -5.26763,12.6521 -0.39701,1.375 -1.51007,3.87711 -2.47347,5.56026 -0.96341,1.68314 -3.23116,7.533136 -5.03946,12.999995 -3.91763,11.843814 -13.27479,29.916145 -16.6265,32.112275 -2.04356,1.33898 -2.85775,1.3756 -5.63294,0.2533 -4.13498,-1.67219 -10.06819,-7.68062 -12.72281,-12.884092 -1.13406,-2.222956 -2.45104,-4.041739 -2.9266,-4.041739 -0.47557,0 -1.65635,1.2375 -2.62395,2.75 -3.72418,5.821431 -10.82626,11.633181 -15.95445,13.055801 -6.91753,1.91901 -8.77898,2.19276 -10.51629,1.54656 z m -1.76091,-18.468178 c 1.79097,-2.401194 1.82797,-2.852459 0.45099,-5.5 -0.82503,-1.586301 -2.65606,-3.964091 -4.06897,-5.28398 -2.28661,-2.136073 -2.64027,-2.213845 -3.21823,-0.707702 -0.6554,1.707951 0.16866,10.327376 1.25901,13.16877 0.82494,2.14978 3.27163,1.414053 5.5772,-1.677088 z m 272.53669,15.050148 c -0.94832,-0.55267 -3.49446,-1.62943 -5.65808,-2.3928 -3.56086,-1.25635 -4.27411,-1.20559 -7.52216,0.53526 -4.58082,2.45518 -6.68974,2.42355 -9.96068,-0.14937 C 513.36321,99.14054 513,98.10226 513,93.3953 c 0,-6.249608 1.98475,-11.724577 5.62992,-15.530261 2.29638,-2.397491 3.19719,-2.630621 9.99538,-2.586813 6.99772,0.04509 7.62701,0.232914 9.92312,2.961685 3.01323,3.581023 3.11063,6.652525 0.32332,10.196017 -1.76865,2.24847 -1.94107,3.116502 -1.02039,5.137152 0.96072,2.10857 5.5654,5.70788 8.64865,6.76033 0.58993,0.20137 0.4372,1.02314 -0.37244,2.00397 -1.53335,1.85754 -4.74173,2.11805 -7.35178,0.59695 z M 525.55385,90.912867 c 0.36954,-0.597923 0.21278,-1.546235 -0.34834,-2.10736 -0.69364,-0.693636 -1.38126,-0.345627 -2.14805,1.087133 -0.91023,1.700768 -0.84302,2.107359 0.34834,2.107359 0.81189,0 1.77851,-0.48921 2.14805,-1.087132 z M 156.5,101.15832 c -4.62725,-2.82911 -5.64007,-4.61151 -6.21344,-10.934702 -1.15528,-12.740678 7.39755,-18.26329 17.63555,-11.38737 5.378,3.611904 8.06295,7.696529 8.0713,12.278892 0.009,4.84274 -2.93428,8.33597 -8.66969,10.29022 -5.9445,2.0255 -7.15185,1.99794 -10.82372,-0.24704 z m 11,-9.734529 c 0,-4.204654 -0.35185,-5.044588 -2.65458,-6.337081 C 160.91947,82.883131 159,84.875674 159,91.154668 c 0,4.176752 0.33593,5.034852 2.25,5.747482 1.2375,0.46073 3.15,0.50718 4.25,0.10322 1.6239,-0.59636 2,-1.64597 2,-5.581579 z m -33,8.733549 c -1.65,-1.00827 -3.6176,-2.58115 -4.37244,-3.49528 -1.82062,-2.20481 -2.47745,-2.12723 -8.99756,1.06276 -4.57452,2.23811 -6.94717,2.72933 -13.2829,2.75 -7.18979,0.0235 -7.9221,-0.17453 -10.78452,-2.91592 -2.05794,-1.97092 -4.14166,-2.96054 -6.31677,-3 -4.25428,-0.0772 -5.23677,-3.922452 -1.44379,-5.650651 2.04937,-0.933753 2.52507,-2.012677 2.98038,-6.759673 0.29798,-3.106718 1.26238,-7.336077 2.14311,-9.398577 1.45283,-3.402245 1.95665,-3.75 5.43292,-3.75 3.92017,0 5.7555,1.318674 8.07662,5.803001 0.99242,1.917317 0.83015,3.050579 -0.96891,6.766949 -1.18853,2.455172 -3.01713,4.922154 -4.06355,5.482183 C 101.85616,87.612161 101,88.504534 101,89.035183 c 0,2.029473 3.95326,4.781127 7.80355,5.431627 5.89994,0.99679 9.6569,-1.32238 12.91986,-7.975424 4.32592,-8.820392 7.31534,-8.279649 12.22463,2.211262 3.56216,7.612162 4.2513,8.260602 8.80196,8.282042 2.15598,0.0102 3.25,0.50038 3.25,1.45629 0,3.12067 -7.3956,4.22446 -11.5,1.71636 z m -31.44254,-19.2647 c 0.756,-1.412603 0.79632,-2.438857 0.12231,-3.112868 -1.48775,-1.487752 -3.179773,-0.0089 -3.179773,2.779244 0,2.999197 1.540903,3.167337 3.057463,0.333624 z m 473.12048,18.37707 -1.98888,-2.73029 -3.62846,1.73029 C 568.37638,99.31129 564.55748,100 560.96607,100 c -7.37472,0 -9.2909,-1.62396 -11.01697,-9.336827 -1.06637,-4.765076 -0.98373,-6.631627 0.60316,-13.623121 3.38548,-14.915672 7.71078,-19.055372 14.20245,-13.593002 1.6687,1.404123 3.4834,2.552949 4.03266,2.552949 1.31959,0 2.21263,-2.469279 2.21263,-6.117979 0,-4.52703 4.09598,-20.16121 5.79835,-22.13202 1.68228,-1.94756 3.00721,-2.15888 5.12646,-0.81763 1.96644,1.24453 4.22269,18.06655 2.99658,22.34173 C 584.41462,61.04108 584,64.532722 584,67.033298 c 0,2.500577 -0.675,7.138003 -1.5,10.305392 -1.75726,6.746564 -1.91622,12.436364 -0.45484,16.28008 0.74928,1.97077 0.71494,3.54619 -0.12132,5.5651 -1.46865,3.54564 -3.2067,3.5716 -5.7459,0.0858 z M 564.362,92.052467 C 567.50225,90.858544 572,83.310631 572,79.234722 c 0,-6.200923 -8.77383,-9.846685 -10.79286,-4.484723 -3.43162,9.113402 -3.78532,11.599065 -2.23189,15.6849 1.07377,2.824235 1.71026,3.015361 5.38675,1.617568 z M 426.5,98.02394 c -4.36261,-1.85255 -8.62555,-6.558237 -9.53377,-10.523941 -1.60129,-6.991979 -0.009,-11.49559 5.28377,-14.940149 2.59796,-1.690913 2.89351,-1.695837 5.34575,-0.08907 2.48374,1.627409 2.67959,1.610797 4.53895,-0.38499 3.76538,-4.04166 8.43765,-1.931122 12.19314,5.50783 2.20225,4.36226 3.15112,12.642925 1.74895,15.262891 C 443.54381,97.58943 432.4023,100.53031 426.5,98.02394 z m 12.32284,-9.901099 c 0.43261,-4.525426 -0.85899,-5.533035 -7.34307,-5.728475 -5.06538,-0.152679 -5.47977,0.005 -5.47977,2.085373 0,1.237799 0.95105,3.459609 2.11345,4.937356 1.78271,2.26635 2.76078,2.63956 6.25,2.384858 3.89753,-0.284506 4.1552,-0.497093 4.45939,-3.679112 z M 354.522,95.75 C 350.13588,91.938964 349.8217,82.236155 354.01181,79.99368 357.18738,78.294168 360,80.377037 360,84.428194 c 0,6.011851 6.03107,5.493675 9.95495,-0.855309 2.81656,-4.557285 6.06156,-4.762813 9.04505,-0.572886 1.65774,2.328078 2.89909,3 5.54241,3 2.78835,0 3.69336,-0.555242 4.98909,-3.060905 2.09198,-4.045456 6.09103,-3.78006 8.45184,0.560905 0.94254,1.733108 3.41774,3.818319 5.86126,4.93778 2.72697,1.249316 4.12267,2.492813 3.92842,3.5 -0.30822,1.598091 -0.70325,1.633601 -24.02302,2.159881 -3.7125,0.0838 -7.85425,0.0398 -9.20389,-0.0977 -1.34964,-0.1375 -4.2885,0.70625 -6.5308,1.875 -5.34297,2.78492 -10.19603,2.73996 -13.49331,-0.125 z"
     id="path3147"
     style="fill:#000000" />
</svg>
