<?xml version="1.0" encoding="UTF-8" standalone="no"?>
<!-- Created with Inkscape (http://www.inkscape.org/) -->

<svg
   xmlns:dc="http://purl.org/dc/elements/1.1/"
   xmlns:cc="http://creativecommons.org/ns#"
   xmlns:rdf="http://www.w3.org/1999/02/22-rdf-syntax-ns#"
   xmlns:svg="http://www.w3.org/2000/svg"
   xmlns="http://www.w3.org/2000/svg"
   xmlns:sodipodi="http://sodipodi.sourceforge.net/DTD/sodipodi-0.dtd"
   xmlns:inkscape="http://www.inkscape.org/namespaces/inkscape"
   width="422.06769"
   height="298.08475"
   id="svg2"
   version="1.1"
   inkscape:version="0.48.4 r9939"
   sodipodi:docname="Firmas.svg">
  <defs
     id="defs4" />
  <sodipodi:namedview
     id="base"
     pagecolor="#ffffff"
     bordercolor="#666666"
     borderopacity="1.0"
     inkscape:pageopacity="0.0"
     inkscape:pageshadow="2"
     inkscape:zoom="3.179589"
     inkscape:cx="319.80749"
     inkscape:cy="224.52843"
     inkscape:document-units="px"
     inkscape:current-layer="g3877"
     showgrid="false"
     fit-margin-top="1"
     fit-margin-left="1"
     fit-margin-right="1"
     fit-margin-bottom="1"
     inkscape:window-width="1280"
     inkscape:window-height="961"
     inkscape:window-x="-8"
     inkscape:window-y="-8"
     inkscape:window-maximized="1" />
  <metadata
     id="metadata7">
    <rdf:RDF>
      <cc:Work
         rdf:about="">
        <dc:format>image/svg+xml</dc:format>
        <dc:type
           rdf:resource="http://purl.org/dc/dcmitype/StillImage" />
        <dc:title></dc:title>
      </cc:Work>
    </rdf:RDF>
  </metadata>
  <g
     inkscape:label="Capa 1"
     inkscape:groupmode="layer"
     id="layer1"
     transform="translate(-96.656372,-382.60502)">
    <g
       id="g3877">
      <path
         style="fill:#000000"
         d="m 360.90625,1 c -0.32454,0.043229 -0.67217,0.199588 -1.0625,0.4375 -2.72645,1.66182 -3.68837,5.58999 -1.875,7.59375 0.94664,1.04596 1.30789,2.48436 0.96875,3.78125 -0.5034,1.92503 -0.67961,1.99259 -2.15625,0.65625 -2.51982,-2.2804 -4.2131,-0.86062 -5.84375,4.90625 -3.81669,13.49798 -5.3795,26.12835 -5.3125,42.625 0.0559,13.75768 -0.24559,15.36697 -4.125,24.0625 -1.34286,3.00997 -2.4355,5.95452 -2.4375,6.53125 -0.002,0.57672 -1.45824,3.94269 -3.25,7.5 -1.79177,3.55731 -3.28032,7.13954 -3.28125,7.9375 -10e-4,0.79795 -1.33606,3.75876 -3,6.59375 -1.66394,2.83499 -3.77366,6.62978 -4.6875,8.40625 -2.24487,4.36402 -12.16675,15.5315 -16.21875,18.28125 -2.54836,1.72937 -3.55939,1.98875 -4.5625,1.15625 -2.21396,-1.83743 -4.125,-0.27986 -4.125,3.375 0,3.30737 -0.0366,3.36962 -3,2.71875 -3.86668,-0.84927 -7.03829,-2.91855 -7.71875,-5.0625 -0.31821,-1.00258 0.81316,-4.13823 2.78125,-7.71875 3.37926,-6.1478 3.55385,-9.0625 0.53125,-9.0625 -2.44228,0 -4.76229,3.07787 -7.53125,10.03125 -1.81446,4.55643 -3.17807,6.61936 -5.03125,7.53125 -2.40807,1.18493 -2.51999,1.50107 -2.03125,6.03125 0.28481,2.63997 0.506,6.58188 0.5,8.75 -0.0116,4.422 1.37098,7.71875 3.25,7.71875 2.52184,0 3.64479,-2.92508 3.78125,-9.8125 0.0754,-3.80577 0.41913,-7.20038 0.75,-7.53125 0.33087,-0.33087 1.90189,0.49903 3.5,1.84375 2.98079,2.50816 7.73605,3.28036 8.875,1.4375 0.34425,-0.55685 1.41415,-0.81377 2.375,-0.5625 0.96086,0.25127 2.76023,-0.3373 4,-1.3125 1.23978,-0.97521 2.70816,-1.78125 3.25,-1.78125 0.54183,0 2.40553,-1.2441 4.15625,-2.78125 1.75072,-1.53715 3.65234,-2.8125 4.21875,-2.8125 0.56641,0 2.13248,-1.72696 3.46875,-3.84375 1.33627,-2.11679 4.15251,-6.0099 6.28125,-8.65625 3.56743,-4.43482 10.48499,-17.91759 15.5625,-30.34375 1.15152,-2.81812 2.65033,-6.44791 3.34375,-8.0625 0.69341,-1.61458 1.28125,-3.37344 1.28125,-3.90625 0,-0.5328 0.46018,-1.24069 1.03125,-1.59375 2.40594,-1.48696 -2.97695,37.79824 -7.28125,53.15625 -3.56892,12.73413 -9.3932,29.96782 -11.59375,34.28125 l -1.96875,3.84375 -2,-2.53125 c -3.12613,-3.92054 -8.9375,-2.80422 -8.9375,1.71875 0,3.12884 3.67828,4.9027 7.03125,3.375 1.30507,-0.59464 2.61862,-1.09375 2.90625,-1.09375 0.83559,0 -0.55858,4.73111 -2.875,9.78125 -7.32748,15.97494 -12.79973,29.52102 -14.5,35.875 -1.59483,5.95993 -2.26139,6.95756 -4.78125,7.28125 -1.22863,0.15784 -118.61293,33.57681 -125.65625,35.25 -4.48027,1.06433 -7.26812,5.05332 -4.3125,6.1875 1.32119,0.50699 129.15625,-35.18139 129.15625,-33.375 0,0.75119 -0.61596,2.72362 -1.34375,4.40625 -1.30849,3.02524 -4.89276,13.76429 -9.4375,28.21875 -1.28883,4.09908 -2.92936,9.35052 -3.65625,11.65625 -1.83344,5.81602 -2.63413,10.85351 -1.90625,12.03125 0.91344,1.47798 2.811,1.21501 4.40625,-0.625 0.77739,-0.89668 2.348,-5.20723 3.46875,-9.5625 2.09897,-8.15672 4.43776,-15.72962 9.4375,-30.28125 1.58443,-4.61146 3.2754,-10.04421 3.75,-12.09375 0.4746,-2.04954 1.07739,-4.67277 1.34375,-5.84375 0.52533,-2.30955 91.92982,-29.80147 102.46875,-33.96875 8.90563,-3.52144 9.75007,-4.07327 9.78125,-6.71875 2.6e-4,-0.0224 -1.5e-4,-0.0398 0,-0.0625 0,-0.0356 0.002,-0.0594 0,-0.0937 0,-0.0811 0.002,-0.14578 0,-0.21875 10e-4,-0.0305 0,-0.063 0,-0.0937 0,-1.42349 -0.47557,-2.03461 -1.25,-1.8125 -0.89711,-0.14322 -2.36,0.25847 -4.5625,1.1875 -13.11819,5.53333 -99.70142,31.3125 -100.3125,31.3125 -1.71683,0 -0.30855,-5.77549 3.84375,-15.84375 2.00749,-4.86765 4.73562,-11.75706 6.0625,-15.34375 1.32688,-3.58669 2.96746,-7.19107 3.65625,-8 0.68879,-0.80892 1.25,-1.84288 1.25,-2.28125 0,-0.43836 0.78043,-2.47928 1.75,-4.5625 0.96957,-2.0832 2.50312,-5.90682 3.375,-8.46875 0.87187,-2.56192 2.11994,-5.68779 2.78125,-6.96875 0.66131,-1.28096 1.50567,-3.74304 1.875,-5.46875 0.36935,-1.7257 1.8159,-5.94183 3.21875,-9.34375 1.40284,-3.40194 3.03822,-9.1046 3.65625,-12.6875 0.61804,-3.5829 1.5751,-8.20046 2.09375,-10.25 3.3543,-13.25502 5.51718,-36.97929 4.375,-47.90625 -0.96423,-9.22471 0.0501,-16.97569 3.4375,-26.15625 1.22886,-3.3305 2.86684,-9.61348 3.65625,-13.96875 0.78943,-4.35527 2.48793,-12.73258 3.75,-18.625 C 366.60439,7.90209 366.60752,6.24597 363.8125,3.03125 362.64386,1.6871 361.92749,1.064833 361.21875,1 361.11244,0.990275 361.01443,0.9855903 360.90625,1 z M 81.46875,6.46875 c -2.99267,0 -6.02838,4.67178 -16.03125,24.6875 -4.09703,8.19816 -8.77172,17.11204 -10.375,19.8125 -15.296755,33.277245 -35.876783,65.40794 -51.34375,94.3125 -3.067645,5.69983 -3.538522,8.85001 -1.4375,9.65625 2.466976,0.94666 4.06505,-0.39714 5.75,-4.84375 0.90512,-2.38865 2.48981,-5.66635 3.53125,-7.28125 1.74828,-2.71098 5.3411,-8.80894 9,-15.3125 0.82545,-1.46719 3.77001,-6.49541 6.53125,-11.15625 9.00919,-15.20704 10.10082,-17.1244 12.8125,-22.3125 C 44.65322,84.94917 66.52364,41.24001 68.3125,37.25 c 0.95284,-2.12528 1.94007,-3.68493 2.1875,-3.4375 0.66223,0.66222 -20.2173,64.06394 -22.28125,70.46875 -3.94938,12.25567 -4.36241,13.45366 -9.125,26.09375 -1.641,4.35527 -7.44508,20.33785 -8.03125,21.875 -1.61821,4.2436 -4.92533,12.23129 -8.40625,20.34375 -3.45776,8.05847 -3.63105,9.05645 -2,10.6875 0.61486,0.61486 1.38648,1.04919 1.71875,1.125 2.923976,0.66717 16.17178,-25.32518 16.59375,-26.09375 2.55575,-4.65499 4.223437,-8.67068 9,-17.6875 1.464283,-2.76416 8.368395,-18.81745 9.255603,-17.1204 0.181492,3.88054 -4.897463,17.71647 -5.661853,21.3079 -5.4794,25.74493 -6.04963,31.30441 -3.46875,34.15625 2.82827,3.12521 8.04851,1.39801 12.34375,-4.0625 2.30026,-2.92432 2.44758,-4.75865 0.5,-6.375 -1.20806,-1.00259 -1.92501,-0.71069 -4.625,1.90625 -1.76468,1.71039 -3.45078,2.89297 -3.75,2.59375 -1.16231,-1.16231 1.77004,-17.58343 5.5,-30.71875 1.49664,-5.27054 5.74821,-24.17785 6.6875,-29.71875 0.40688,-2.40018 0.17803,-3.62606 -0.875,-4.5 -2.69665,-2.23802 -3.7716,-1.11655 -8.4375,9.21875 -0.34698,0.76858 -1.74499,3.37202 -3.125,5.75 -1.38002,2.37799 -4.28176,7.59818 -6.4375,11.625 -2.218652,4.14435 -7.65827,16.04036 -8.71875,17.25 -0.863354,1.56344 -2.058765,1.81504 -1.34375,-0.59375 0.189322,-0.89373 6.165819,-15.56479 6.53125,-16.3125 0.62606,-1.28096 2.71195,-6.95752 4.65625,-12.59375 1.9443,-5.63623 6.16601,-15.42541 6.53125,-17.21875 0.36524,-1.79335 19.25117,-57.9963 20.5625,-61.03125 0.66416,-1.53715 1.49046,-4.22709 1.84375,-6 0.35329,-1.77291 1.47679,-5.12332 2.46875,-7.4375 2.35381,-4.295931 5.40625,-17.02268 5.40625,-20.09375 0,-3.85617 -0.19079,-4.1875 -2.34375,-4.1875 z m 276.1875,11.65625 -0.46875,4.1875 c -0.25891,2.30573 -1.08412,6.06927 -1.84375,8.375 l -1.375,4.1875 0.53125,-4.40625 c 0.29159,-2.42571 1.11677,-6.18924 1.84375,-8.375 z m -4.25,19.25 c 0.0635,-0.0234 0.11011,0.01636 0.1875,0.09375 0.30953,0.30956 0.36292,1.10875 0.0937,1.78125 -0.29738,0.74317 -0.5178,0.52277 -0.5625,-0.5625 -0.0303,-0.736553 0.0906,-1.242313 0.28125,-1.3125 z m -0.9375,3.75 c 0.0635,-0.0234 0.14136,-0.01489 0.21875,0.0625 0.30952,0.30957 0.33161,1.10875 0.0625,1.78125 -0.29739,0.74318 -0.5178,0.52277 -0.5625,-0.5625 -0.0303,-0.736552 0.0906,-1.211059 0.28125,-1.28125 z m -58.6875,8.78125 c -2.1711,0.144251 -4.09375,2.952684 -4.09375,6.5625 0,1.8811 -0.6139,4.09649 -1.375,4.9375 -0.76111,0.84101 -2.06373,5.08307 -2.875,9.40625 -1.94044,10.3406 -6.063,26.29694 -9.78125,37.75 -2.66166,8.19852 -10.53357,26.46148 -13,30.1875 -0.50875,0.76858 -1.2938,2.22523 -1.75,3.25 -0.4562,1.02477 -2.11564,3.50234 -3.6875,5.46875 -1.57186,1.9664 -3.12474,4.35834 -3.4375,5.34375 -0.64459,2.03094 -4.97641,4.5625 -7.8125,4.5625 -2.52524,0 -3.32098,-3.42147 -2.09375,-9.0625 0.53145,-2.44287 1.21611,-7.066 1.5,-10.28125 0.28389,-3.21525 1.16147,-7.1264 1.96875,-8.6875 1.72205,-3.33008 0.47221,-5.77727 -2.71875,-5.3125 -2.56634,0.3738 -4.39015,6.52463 -4.8125,16.125 -0.18033,4.09907 -0.60182,9.01744 -0.9375,10.9375 -1.67818,9.5992 5.2811,14.94625 13.1875,10.125 3.35676,-2.04693 8.3446,-8.02339 11.96875,-14.3125 1.40251,-2.43383 2.6081,-4.43808 2.6875,-4.4375 0.0795,5.7e-4 0.15625,4.45385 0.15625,9.875 0,8.68202 0.21963,10.02337 1.8125,11.1875 2.45514,1.7943 3.02525,1.66224 5.75,-1.0625 2.71087,-2.71087 2.53645,-4.49284 -0.5,-4.9375 -2.07744,-0.30422 -2.11611,-0.45881 -1.5,-8.84375 0.88721,-12.07439 3.07265,-22.48811 6.1875,-29.40625 1.47377,-3.27327 2.6875,-6.73941 2.6875,-7.71875 0,-0.97933 0.68139,-3.11019 1.53125,-4.75 0.84987,-1.63981 1.87565,-4.2441 2.28125,-5.78125 0.4056,-1.53715 1.65628,-5.72581 2.75,-9.3125 1.0937,-3.58669 2.33055,-7.77535 2.75,-9.3125 7.381,-27.04899 7.87102,-30.45248 4.6875,-32.15625 -0.5077,-0.271714 -1.03023,-0.377039 -1.53125,-0.34375 z M 203.125,74.46875 c -1.8308,0 -3.8125,3.61569 -3.8125,7 0,1.23789 -0.81898,4.36889 -1.84375,6.96875 -1.02477,2.59986 -1.875,5.62637 -1.875,6.71875 0,2.51817 -7.65742,26.02661 -10.15625,31.15625 -1.03424,2.1231 -2.31095,5.67408 -2.8125,7.90625 -1.37819,6.13368 -6.25494,17.34909 -8.90625,20.5 -1.29417,1.53804 -2.34375,3.12805 -2.34375,3.53125 0,1.29378 -4.86657,5.65625 -6.3125,5.65625 -1.1295,0 -1.26875,-0.84951 -0.78125,-4.40625 0.66689,-4.8655 3.48024,-10.74277 9.03125,-18.875 3.99889,-5.85839 4.5903,-8.40625 1.96875,-8.40625 -1.95454,0 -5.45514,3.54323 -8.8125,8.875 -7.41704,11.77889 -21.77605,23.71621 -25.625,21.3125 -4.53187,-2.83019 -5.12177,-11.22233 -1.53125,-21.625 2.11884,-6.13884 2.24864,-7.09511 1.03125,-8.3125 -0.75837,-0.75794 -1.84748,-1.09535 -2.40625,-0.75 -0.55878,0.34533 -2.89388,4.47647 -5.1875,9.1875 -5.74401,11.79803 -10.91834,19.4186 -17.28125,25.5 -4.39827,4.20369 -6.09589,3.74388 -5.875,-1.59375 0.24742,-5.97845 2.97497,-22.84301 4.6875,-29.03125 0.80478,-2.90789 1.21588,-5.9431 0.90625,-6.75 -1.10246,-2.87295 -3.38222,-1.43572 -5.46875,3.4375 -1.15177,2.69002 -3.2631,7.06967 -4.6875,9.75 -1.4244,2.68034 -2.59375,5.92811 -2.59375,7.21875 0,1.29065 -0.41167,2.34375 -0.90625,2.34375 -0.49458,0 -2.77102,2.85391 -5.0625,6.3125 -5.5242,8.33779 -8.62288,12.02621 -9.4375,11.21875 -1.03745,-1.02832 -2.2052,-8.15447 -2.25,-13.6875 -0.0223,-2.75465 0.61665,-8.93437 1.4375,-13.75 1.18946,-6.97812 1.26049,-9.05165 0.34375,-10.15625 -2.148783,-1.87621 -4.548457,-0.22639 -5.90625,0.6875 -1.401419,0.94325 -3.04442,1.79109 -8.90625,13.15625 -6.78286,13.15088 -7.62491,16.46875 -4.21875,16.46875 0.93539,0 2.63997,-2.51915 4.625,-6.875 4.87028,-10.68714 5.62774,-10.4798 6.9375,1.90625 0.91272,8.63141 3.03838,16.05474 4.96875,17.28125 1.75768,1.11678 5.61128,0.82326 7.4375,-0.5625 2.66396,-2.02144 9.30619,-12.76203 10.96875,-17.75 1.71268,-5.13836 4.40171,-7.30036 3.375,-2.71875 -0.33074,1.47593 -0.86714,5.63778 -1.1875,9.25 -0.77422,8.72995 0.93841,12.53125 5.6875,12.53125 4.02138,0 8.03269,-3.37832 15.0625,-12.71875 2.83047,-3.76081 5.29911,-6.84375 5.46875,-6.84375 0.16963,0 0.98158,2.02959 1.8125,4.53125 1.87191,5.63579 4.10458,7.75 8.21875,7.75 3.48643,0 7.34131,-1.73059 13.0625,-5.875 2.04743,-1.48315 4.07429,-2.6875 4.5,-2.6875 0.42571,0 0.52639,1.84927 0.21875,4.09375 -0.46569,3.39758 -0.24614,4.41011 1.4375,6.09375 1.41875,1.41882 2.6566,1.83752 4.09375,1.40625 2.52854,-0.75877 8.23549,-6.1643 11.5,-10.875 1.34329,-1.93837 2.72887,-3.5 3.09375,-3.5 0.36488,0 1.43675,1.70057 2.375,3.78125 1.69977,3.7694 3.73994,5.53125 6.375,5.53125 2.03299,0 6.66982,-4.20339 9.84375,-8.90625 3.5816,-5.30693 3.9011,-7.31443 1.28125,-7.6875 -1.52598,-0.21731 -2.39356,0.47749 -3.53125,2.875 -0.83077,1.75071 -2.79009,4.39272 -4.34375,5.875 L 188,160.65625 186.21875,158.4375 c -2.20073,-2.7036 -2.4662,-11.85768 -0.46875,-16.28125 1.11611,-2.47178 4.43586,-11.78343 9.875,-27.625 0.61573,-1.79335 1.87672,-5.34433 2.78125,-7.90625 0.90454,-2.56192 3.16135,-9.4807 5.03125,-15.375 2.95911,-9.3277 3.26136,-11.11772 2.34375,-13.75 -0.64497,-1.85016 -1.66364,-3.03125 -2.65625,-3.03125 z M 87.6875,116.875 c -1.77051,0 -2.53828,0.88966 -3.96875,4.65625 -0.97297,2.56192 -1.78083,5.17202 -1.78125,5.8125 -0.001,1.56749 5.09063,1.49146 6.40625,-0.0937 0.57088,-0.68787 1.14891,-3.29797 1.28125,-5.8125 0.22346,-4.24618 0.0961,-4.5625 -1.9375,-4.5625 z m 122.40625,10.1875 c -2.07996,0.27029 -4.42503,3.80668 -6.625,10.28125 -0.8705,2.56192 -1.95685,5.07573 -2.40625,5.5625 -1.31056,1.41952 -0.94563,5.15625 0.5,5.15625 1.03444,0 1.21087,1.16908 0.8125,5.5625 -0.38541,4.25029 -0.15029,6.13425 1.03125,7.9375 1.9111,2.91672 6.08877,3.13313 8.5,0.46875 2.19685,-2.4275 3.06622,-2.34721 5.28125,0.46875 1.43906,1.82947 2.68119,2.34375 5.78125,2.34375 2.17061,0 4.62763,-0.51577 5.46875,-1.15625 2.08047,-1.5842 9.09375,-13.80039 9.09375,-15.84375 0,-3.55659 -3.395,-1.53469 -7.21875,4.28125 -4.3695,6.64601 -6.238,8.50153 -7.65625,7.625 -1.72658,-1.06709 -1.07964,-6.33406 1.9375,-15.59375 2.43249,-7.4654 2.7597,-9.32104 1.78125,-10.5 -0.65246,-0.78617 -1.52445,-1.4375 -1.9375,-1.4375 -1.50908,0 -3.6875,2.98721 -3.6875,5.0625 0,1.17224 -1.24409,4.49444 -2.78125,7.375 -1.53715,2.88056 -2.8125,6.27874 -2.8125,7.5625 0,1.80568 -0.77317,2.68107 -3.40625,3.78125 -1.87202,0.78217 -3.62516,1.18735 -3.90625,0.90625 -0.2811,-0.28109 -0.538,-2.70315 -0.5625,-5.375 -0.0371,-4.03957 -0.30056,-4.82634 -1.65625,-4.71875 -2.27217,0.18034 -2.08909,-0.35769 1.625,-4.46875 1.79334,-1.98501 3.25,-4.18068 3.25,-4.90625 0,-0.72559 0.72833,-2.61863 1.625,-4.1875 1.25758,-2.20032 1.39069,-3.22866 0.59375,-4.5 -0.79795,-1.27297 -1.67957,-1.81036 -2.625,-1.6875 z m -129.53125,13 c 0.4473,-0.0285 0.61249,0.63587 0.125,1.90625 -0.30341,0.79068 -0.98476,1.4375 -1.53125,1.4375 -0.68902,0 -0.68974,-0.59022 0.03125,-1.9375 0.50593,-0.94534 1.0271,-1.38406 1.375,-1.40625 z"
         transform="translate(96.656372,382.60502)"
         id="path3885"
         inkscape:connector-curvature="0"
         sodipodi:nodetypes="sscssssssscsssssssssssscsssscsssssssssscscccssssscssssscsssssssccccscssssssssscssssssssssssccsssssssssssssssscssssssssssssccssssscsscccccccccccccssccsssssssssssssssssscssssssssssssssssssssssssssssccssscsssssssssscssssssssssssssssscsssssssscccsssssssscsssssssssssssssssssssssccssssssssscscs" />
    </g>
  </g>
</svg>
