<?xml version="1.0" standalone="no"?>
<!DOCTYPE svg PUBLIC "-//W3C//DTD SVG 20010904//EN"
 "http://www.w3.org/TR/2001/REC-SVG-20010904/DTD/svg10.dtd">
<svg version="1.0" xmlns="http://www.w3.org/2000/svg"
 width="1360.000000pt" height="297.000000pt" viewBox="0 0 1360.000000 297.000000"
 preserveAspectRatio="xMidYMid meet">
<metadata>
Created by potrace 1.12, written by Peter Selinger 2001-2015
</metadata>
<g transform="translate(0.000000,297.000000) scale(0.100000,-0.100000)"
fill="#000000" stroke="none">
<path d="M0 1485 l0 -1485 6800 0 6800 0 0 1485 0 1485 -6800 0 -6800 0 0
-1485z m13579 1461 c8 -10 10 -402 9 -1472 l-3 -1459 -6774 -3 c-5000 -1
-6777 1 -6787 9 -12 10 -14 256 -14 1469 0 801 3 1460 7 1463 3 4 3054 7 6778
7 5690 0 6774 -2 6784 -14z"/>
<path d="M7445 2257 c-11 -12 -32 -28 -47 -36 -16 -8 -28 -20 -28 -28 0 -7
-11 -13 -25 -13 -16 0 -25 -6 -25 -15 0 -8 -7 -15 -15 -15 -8 0 -15 -7 -15
-15 0 -8 -7 -15 -15 -15 -8 0 -15 -7 -15 -15 0 -8 -7 -15 -15 -15 -8 0 -15 -9
-15 -20 0 -11 -7 -23 -15 -26 -8 -4 -15 -12 -15 -20 0 -10 -12 -14 -40 -14
-39 0 -40 -1 -40 -35 0 -22 -6 -38 -15 -41 -10 -4 -15 -20 -15 -45 0 -26 -5
-42 -15 -45 -10 -4 -15 -21 -15 -54 0 -27 -4 -52 -10 -55 -5 -3 -10 -15 -10
-26 0 -11 -7 -22 -15 -25 -8 -4 -15 -17 -15 -30 0 -14 -7 -27 -15 -30 -9 -4
-15 -19 -15 -40 0 -22 -6 -37 -15 -40 -21 -8 -19 -47 3 -67 24 -22 107 -23
116 -2 3 8 17 15 31 15 20 0 25 5 25 25 0 14 6 25 14 25 9 0 15 19 20 57 4 35
13 61 24 69 45 35 91 -4 92 -77 0 -29 6 -51 15 -59 9 -7 15 -29 15 -53 0 -31
7 -48 27 -69 26 -27 31 -28 121 -28 l93 0 -3 27 c-2 15 -12 32 -23 38 -51 26
-74 49 -81 78 -3 17 -10 38 -14 47 -59 127 -63 140 -45 140 8 0 15 4 15 8 0 4
25 19 55 32 30 13 55 30 55 37 0 7 6 13 13 13 7 0 21 11 31 25 10 14 27 25 37
25 14 0 19 7 19 30 0 17 5 30 10 30 6 0 10 9 10 19 0 10 7 21 15 25 9 3 15 18
15 36 0 20 5 30 15 30 12 0 15 13 15 55 0 42 3 55 15 55 9 0 15 9 15 24 0 13
-7 29 -15 36 -8 7 -15 19 -15 26 0 8 -6 14 -13 14 -8 0 -24 11 -37 25 -21 23
-31 25 -104 25 -71 0 -83 -3 -101 -23z m154 -91 c21 -22 22 -28 11 -60 -6 -20
-18 -36 -26 -36 -8 0 -14 -10 -14 -25 0 -14 -7 -28 -15 -31 -8 -4 -15 -15 -15
-25 0 -11 -7 -22 -15 -25 -8 -4 -15 -18 -15 -34 0 -17 -9 -34 -25 -46 -14 -10
-25 -24 -25 -31 0 -8 -13 -13 -30 -13 -16 0 -30 -4 -30 -10 0 -5 -7 -10 -15
-10 -8 0 -15 -7 -15 -16 0 -14 -3 -14 -15 -4 -8 7 -15 24 -15 38 0 30 -26 62
-50 62 -17 0 -40 18 -40 32 0 4 7 8 15 8 8 0 17 11 21 25 3 14 10 25 15 25 5
0 9 7 9 15 0 8 6 15 14 15 8 0 16 10 18 23 2 14 11 23 26 25 12 2 22 10 22 18
0 8 6 14 14 14 8 0 16 7 20 15 3 8 16 15 30 15 13 0 26 7 30 15 3 8 14 15 25
15 10 0 21 7 25 15 8 22 40 18 65 -9z"/>
<path d="M1101 2230 c-17 -17 -31 -35 -31 -40 0 -6 -7 -10 -15 -10 -8 0 -15
-7 -15 -15 0 -8 -4 -15 -10 -15 -5 0 -10 -7 -10 -15 0 -8 -7 -15 -15 -15 -8 0
-15 -7 -15 -15 0 -8 -7 -15 -15 -15 -8 0 -15 -4 -15 -10 0 -5 -7 -10 -15 -10
-9 0 -15 -9 -15 -25 0 -14 -7 -28 -15 -31 -8 -4 -15 -10 -15 -16 0 -13 -26
-38 -39 -38 -6 0 -11 -7 -11 -15 0 -8 -7 -15 -15 -15 -9 0 -15 -9 -15 -25 0
-14 -7 -28 -15 -31 -8 -4 -15 -12 -15 -20 0 -8 -7 -14 -15 -14 -8 0 -15 -9
-15 -19 0 -10 -11 -29 -25 -42 -13 -13 -25 -30 -25 -36 0 -7 -6 -13 -13 -13
-7 0 -20 -9 -30 -20 -9 -11 -23 -20 -31 -20 -8 0 -22 -7 -31 -16 -8 -9 -22
-13 -30 -10 -20 7 -19 46 0 46 12 0 15 13 15 55 0 42 3 55 15 55 12 0 15 13
15 60 0 33 4 60 10 60 6 0 10 42 10 105 l0 105 -65 0 c-51 0 -65 -3 -65 -15 0
-8 -7 -15 -15 -15 -9 0 -15 -9 -15 -24 0 -13 7 -29 15 -36 19 -16 19 -39 0
-46 -20 -8 -20 -68 0 -84 8 -7 15 -25 15 -41 0 -15 -7 -34 -15 -43 -8 -8 -15
-21 -15 -30 0 -8 -4 -18 -10 -21 -5 -3 -10 -24 -10 -46 0 -26 -5 -42 -15 -45
-19 -8 -19 -38 0 -54 8 -7 15 -20 15 -29 1 -38 25 -51 93 -51 48 0 66 4 71 15
3 8 15 15 26 15 11 0 20 7 20 15 0 8 6 15 14 15 7 0 19 7 26 15 7 8 19 15 27
15 21 0 43 25 43 49 0 12 4 21 8 21 11 0 42 30 67 64 11 15 30 39 43 52 12 14
22 29 22 35 0 5 5 9 11 9 16 0 33 21 49 60 7 19 23 44 35 55 12 11 24 28 28
38 3 9 12 17 18 17 14 0 89 76 89 90 0 6 6 10 14 10 8 0 17 8 20 17 6 15 9 15
27 -4 11 -11 23 -39 26 -62 5 -35 9 -41 29 -41 13 0 24 5 24 10 0 6 7 10 15
10 17 0 21 55 5 65 -5 3 -10 13 -10 22 0 8 -7 30 -16 49 -16 34 -17 34 -84 34
-61 0 -70 -3 -99 -30z"/>
<path d="M3280 2245 c0 -9 -9 -15 -25 -15 -14 0 -25 -4 -25 -10 0 -5 -7 -10
-15 -10 -9 0 -15 -9 -15 -25 0 -14 -7 -28 -15 -31 -8 -4 -15 -12 -15 -20 0 -8
-7 -14 -15 -14 -8 0 -15 -9 -15 -19 0 -11 -4 -23 -10 -26 -5 -3 -10 -17 -10
-31 0 -14 -7 -27 -15 -30 -8 -4 -15 -15 -15 -25 0 -11 -7 -22 -15 -25 -8 -4
-15 -12 -15 -20 0 -8 -7 -14 -15 -14 -8 0 -15 -7 -15 -15 0 -8 -7 -15 -15 -15
-8 0 -15 -9 -15 -20 0 -11 -4 -28 -9 -38 -5 -9 -12 -25 -15 -34 -3 -11 -15
-18 -31 -18 -16 0 -25 -6 -25 -15 0 -8 -7 -15 -15 -15 -9 0 -15 -9 -15 -24 0
-14 -10 -30 -25 -40 -14 -9 -25 -23 -25 -31 0 -8 -7 -15 -15 -15 -8 0 -15 -4
-15 -9 0 -5 -14 -12 -31 -16 -17 -4 -33 -13 -36 -21 -3 -8 -19 -14 -39 -14
-24 0 -34 -5 -34 -15 0 -21 -6 -19 -45 11 -47 35 -52 58 -21 89 14 14 26 35
26 45 0 11 6 20 14 20 8 0 16 7 20 15 3 9 19 15 41 15 28 0 35 4 35 19 0 11 6
21 13 24 9 3 9 10 -2 30 -13 25 -19 27 -78 27 -49 0 -63 -3 -63 -15 0 -8 -7
-15 -15 -15 -8 0 -15 -6 -15 -13 0 -23 -25 -67 -37 -67 -7 0 -13 -10 -13 -23
0 -12 -8 -30 -17 -39 -36 -33 -43 -48 -43 -86 0 -47 24 -72 68 -72 17 0 34 -4
37 -10 3 -6 51 -10 109 -10 97 0 104 1 124 25 12 14 29 25 38 25 8 0 37 23 64
50 27 28 52 50 57 50 4 0 27 -23 51 -50 41 -47 46 -50 91 -50 34 0 51 5 55 15
3 8 17 15 31 15 16 0 25 6 25 15 0 8 6 15 14 15 8 0 16 7 20 15 3 8 14 15 25
15 11 0 23 5 26 10 8 13 35 -6 35 -25 0 -7 7 -18 15 -25 8 -7 15 -20 15 -30 0
-40 30 -50 158 -50 75 0 122 4 122 10 0 17 25 11 38 -10 8 -14 23 -20 46 -20
18 0 39 -7 46 -15 7 -8 23 -15 35 -15 13 0 25 7 29 15 3 8 14 15 24 15 10 0
23 5 28 10 11 11 68 -12 79 -31 4 -5 48 -9 100 -9 73 0 94 3 99 15 4 11 21 15
64 15 61 0 82 -11 82 -43 0 -19 6 -20 127 -14 101 4 128 8 135 21 5 9 16 16
23 16 8 0 15 5 15 10 0 16 50 12 56 -5 4 -8 14 -15 24 -15 10 0 23 -7 30 -15
10 -12 37 -15 122 -15 l109 0 -3 28 c-3 25 -6 27 -58 30 -49 3 -59 7 -97 45
-24 23 -43 51 -43 63 0 11 -8 28 -18 37 -24 22 -82 23 -82 2 0 -8 -7 -15 -15
-15 -8 0 -15 -7 -15 -15 0 -8 -7 -15 -15 -15 -8 0 -15 -7 -15 -15 0 -10 -10
-15 -30 -15 -20 0 -30 -5 -30 -15 0 -20 -43 -29 -69 -15 -17 9 -21 20 -21 65
l0 55 -65 0 c-63 0 -65 -1 -65 -25 0 -14 -7 -28 -15 -31 -8 -4 -15 -12 -15
-20 0 -8 -10 -14 -25 -14 -16 0 -25 -6 -25 -15 0 -11 -12 -15 -44 -15 -26 0
-46 -5 -49 -12 -4 -10 -7 -10 -18 0 -7 6 -27 12 -44 12 -34 0 -55 15 -55 41 0
9 -7 22 -15 29 -8 7 -15 25 -15 41 0 15 -4 31 -10 34 -5 3 -10 23 -10 44 0 24
-7 44 -18 54 -23 21 -62 22 -62 3 0 -9 -7 -12 -20 -9 -32 8 -90 -6 -90 -22 0
-8 -7 -15 -15 -15 -8 0 -15 -8 -15 -18 0 -22 -32 -62 -49 -62 -6 0 -11 -10
-11 -22 0 -13 -7 -32 -15 -42 -14 -19 -15 -19 -15 -2 0 16 -6 18 -37 12 -21
-3 -50 -6 -65 -6 -18 0 -28 -5 -28 -15 0 -18 -41 -20 -58 -3 -7 7 -12 31 -12
54 0 25 -6 47 -15 54 -8 7 -15 27 -15 44 -1 53 -19 66 -94 66 -52 0 -66 -3
-66 -15 0 -8 -4 -15 -10 -15 -5 0 -10 -7 -10 -15 0 -8 -7 -15 -15 -15 -8 0
-15 -7 -15 -15 0 -8 -7 -15 -15 -15 -8 0 -15 -8 -15 -18 0 -26 -11 -34 -27
-21 -19 17 -18 109 2 109 8 0 15 5 15 10 0 6 7 10 15 10 11 0 15 12 15 45 0
33 4 45 15 45 12 0 15 13 15 55 0 42 3 55 15 55 11 0 15 11 15 40 0 22 5 40
10 40 6 0 10 14 10 30 0 20 5 30 15 30 11 0 15 12 15 50 0 47 -2 50 -25 50
-16 0 -25 -6 -25 -15z"/>
<path d="M1690 2199 c0 -65 115 -163 134 -114 3 8 12 15 21 15 11 0 15 12 15
49 0 63 -24 81 -110 81 l-60 0 0 -31z"/>
<path d="M9213 2216 c-13 -6 -23 -16 -23 -23 0 -7 -6 -13 -13 -13 -7 0 -18 -9
-25 -20 -7 -11 -19 -20 -27 -20 -8 0 -15 -4 -15 -10 0 -5 -7 -10 -15 -10 -8 0
-15 -7 -15 -15 0 -8 -7 -15 -15 -15 -8 0 -15 -9 -15 -20 0 -11 -7 -23 -15 -26
-8 -4 -15 -17 -15 -29 0 -13 -4 -27 -10 -30 -5 -3 -10 -15 -10 -26 0 -11 -7
-22 -15 -25 -8 -4 -15 -12 -15 -20 0 -8 -7 -14 -15 -14 -10 0 -15 -11 -15 -35
0 -19 -6 -38 -14 -42 -8 -4 -16 -21 -18 -38 -2 -22 -9 -31 -25 -33 -13 -2 -23
-8 -23 -13 0 -5 -7 -9 -15 -9 -9 0 -15 -9 -15 -24 0 -23 5 -25 47 -28 38 -2
50 -8 59 -26 19 -38 114 -132 134 -132 10 0 23 -7 30 -15 7 -8 25 -15 41 -15
15 0 31 -4 34 -10 3 -5 43 -10 89 -10 60 0 88 -4 102 -16 13 -11 15 -17 7 -20
-7 -3 -13 -17 -13 -30 0 -14 -7 -27 -15 -30 -8 -4 -15 -16 -15 -28 0 -26 -32
-56 -60 -56 -11 0 -20 -7 -20 -15 0 -11 -12 -15 -45 -15 -33 0 -45 -4 -45 -15
0 -8 -4 -15 -10 -15 -5 0 -10 -7 -10 -15 0 -10 -10 -15 -30 -15 -20 0 -30 -5
-30 -15 0 -8 -7 -15 -15 -15 -8 0 -15 -9 -15 -20 0 -11 -7 -23 -15 -26 -8 -4
-15 -12 -15 -20 0 -8 -4 -14 -10 -14 -5 0 -10 -11 -10 -25 0 -14 -7 -28 -15
-31 -9 -4 -15 -19 -15 -40 0 -22 -6 -37 -15 -40 -11 -4 -15 -21 -15 -55 0 -35
-4 -51 -15 -55 -21 -8 -19 -47 3 -67 23 -21 58 -22 66 -2 3 9 19 15 41 15 24
0 35 4 35 15 0 8 7 15 15 15 8 0 15 7 15 15 0 8 7 15 15 15 8 0 15 5 15 10 0
6 7 10 15 10 8 0 15 7 15 15 0 8 5 15 10 15 6 0 10 14 10 30 0 20 5 30 15 30
8 0 15 7 15 15 0 8 7 15 15 15 8 0 15 5 15 10 0 6 7 10 15 10 10 0 15 10 15
30 0 20 5 30 15 30 8 0 15 7 15 15 0 8 5 15 10 15 6 0 10 11 10 25 0 16 6 25
15 25 8 0 15 6 15 14 0 8 7 16 15 20 8 3 15 17 15 31 0 16 6 25 15 25 8 0 15
7 15 15 0 8 7 15 15 15 11 0 15 11 15 40 0 22 5 40 10 40 6 0 10 14 10 30 0
19 5 30 14 30 7 0 16 9 19 20 3 13 14 20 30 20 23 0 27 5 33 45 3 25 10 45 15
45 5 0 9 18 9 40 l0 40 -70 0 -70 0 0 -29 c0 -47 -18 -54 -133 -49 -89 4 -109
8 -149 32 -26 15 -50 37 -54 49 -3 12 -13 30 -21 39 -8 9 -13 27 -11 39 2 19
13 25 65 36 51 12 62 18 67 38 4 14 13 25 21 25 9 0 20 11 25 25 6 15 17 25
30 25 11 0 20 7 20 15 0 8 5 15 10 15 6 0 10 7 10 15 0 8 7 15 15 15 8 0 15 7
15 15 0 8 7 15 15 15 8 0 15 4 15 8 0 5 15 14 34 22 22 8 37 22 41 37 3 12 10
23 15 23 6 0 10 7 10 15 0 9 7 18 15 21 17 7 20 49 5 59 -5 3 -10 16 -10 29 0
25 -20 46 -63 64 -34 15 -184 14 -214 -2z m135 -98 c17 -17 15 -48 -2 -48 -10
0 -16 -14 -18 -42 -2 -36 -7 -44 -25 -46 -13 -2 -23 -8 -23 -13 0 -5 -7 -9
-15 -9 -8 0 -15 -7 -15 -15 0 -8 -7 -15 -15 -15 -8 0 -15 -7 -15 -15 0 -8 -7
-15 -15 -15 -8 0 -15 -7 -15 -15 0 -9 -9 -15 -25 -15 -16 0 -25 -6 -25 -15 0
-8 -6 -15 -14 -15 -8 0 -16 -6 -19 -12 -3 -10 -10 -8 -23 5 -17 16 -17 17 -1
17 12 0 17 8 17 30 0 20 5 30 15 30 9 0 15 9 15 25 0 16 6 25 15 25 10 0 15
10 15 30 0 17 5 30 10 30 6 0 10 7 10 15 0 8 7 15 15 15 8 0 15 5 15 10 0 6 7
10 15 10 8 0 15 7 15 15 0 8 6 15 14 15 8 0 16 7 20 15 7 18 57 20 74 3z"/>
<path d="M5640 2055 c0 -8 -7 -15 -15 -15 -8 0 -15 -7 -15 -15 0 -8 -7 -15
-15 -15 -8 0 -15 -7 -15 -15 0 -8 -7 -15 -15 -15 -8 0 -15 -4 -15 -10 0 -5 -7
-10 -15 -10 -9 0 -15 -9 -15 -24 0 -14 -4 -28 -10 -31 -5 -3 -10 -17 -10 -31
0 -14 -7 -27 -15 -30 -8 -4 -15 -15 -15 -25 0 -11 -7 -22 -15 -25 -8 -4 -15
-17 -15 -30 0 -14 -7 -27 -15 -30 -8 -4 -15 -12 -15 -20 0 -19 -34 -18 -50 1
-8 10 -31 15 -66 15 -41 0 -54 -4 -54 -15 0 -12 -14 -15 -70 -15 -40 0 -70 -4
-70 -10 0 -5 -11 -10 -25 -10 -16 0 -25 -6 -25 -15 0 -8 -7 -15 -15 -15 -8 0
-15 -7 -15 -15 0 -8 -7 -15 -15 -15 -21 0 -19 -43 3 -63 10 -10 33 -17 50 -17
17 0 34 -4 37 -10 3 -6 48 -10 100 -10 52 0 97 4 100 10 3 6 17 10 30 10 12 0
25 7 29 15 3 8 14 15 25 15 10 0 21 7 25 15 7 18 37 20 54 3 7 -7 12 -24 12
-39 0 -15 7 -32 15 -39 8 -7 15 -21 15 -31 0 -11 6 -19 14 -19 7 0 19 -7 26
-15 7 -8 23 -15 36 -15 12 0 26 -4 29 -10 3 -5 35 -10 71 -10 57 0 64 2 64 20
0 15 -7 20 -27 20 -29 0 -83 44 -83 69 0 8 -6 22 -14 30 -16 18 -19 41 -17
164 1 70 4 87 16 87 9 0 15 9 15 25 0 16 6 25 15 25 9 0 15 9 15 25 0 32 29
65 57 65 18 0 23 6 23 25 0 16 6 25 15 25 11 0 15 11 15 40 l0 40 -65 0 c-51
0 -65 -3 -65 -15z"/>
<path d="M12330 1945 c0 -10 -10 -15 -30 -15 -20 0 -30 -5 -30 -15 0 -8 -7
-15 -15 -15 -8 0 -15 -7 -15 -15 0 -8 -4 -15 -10 -15 -5 0 -10 -7 -10 -15 0
-8 -7 -15 -15 -15 -8 0 -15 -9 -15 -20 0 -11 -7 -23 -15 -26 -8 -4 -15 -12
-15 -20 0 -8 -7 -14 -15 -14 -8 0 -15 -7 -15 -15 0 -8 -7 -15 -15 -15 -8 0
-15 -5 -15 -11 0 -14 -25 -39 -39 -39 -6 0 -11 -7 -11 -15 0 -8 -7 -15 -15
-15 -8 0 -15 -7 -15 -15 0 -8 -7 -15 -15 -15 -11 0 -15 -11 -15 -35 0 -22 -6
-38 -15 -41 -8 -4 -15 -12 -15 -20 0 -8 -10 -14 -24 -14 -19 0 -25 -6 -28 -27
-2 -22 -9 -29 -30 -31 -16 -2 -28 -8 -28 -13 0 -5 -6 -9 -14 -9 -8 0 -16 -12
-18 -26 -2 -20 -12 -29 -40 -39 -40 -13 -48 -11 -48 15 0 10 -7 23 -15 30 -8
7 -15 21 -15 31 0 11 7 19 15 19 11 0 15 11 15 40 0 29 4 40 15 40 10 0 15 10
15 30 0 20 5 30 15 30 10 0 15 10 15 30 0 17 5 30 11 30 14 0 39 25 39 39 0 6
7 11 15 11 8 0 15 7 15 15 0 8 7 15 15 15 8 0 15 7 15 15 0 8 7 15 15 15 8 0
15 7 15 15 0 8 7 15 15 15 9 0 15 9 15 25 0 14 5 25 10 25 6 0 10 18 10 40 l0
40 -80 0 c-64 0 -80 -3 -80 -15 0 -8 -4 -15 -10 -15 -5 0 -10 -7 -10 -15 0 -8
-7 -15 -15 -15 -8 0 -15 -7 -15 -15 0 -8 -7 -15 -15 -15 -8 0 -15 -9 -15 -20
0 -11 -7 -23 -15 -26 -8 -4 -15 -12 -15 -20 0 -8 -10 -14 -25 -14 -20 0 -25
-5 -25 -25 0 -14 -7 -28 -15 -31 -8 -4 -15 -15 -15 -25 0 -11 -7 -22 -15 -25
-8 -4 -15 -17 -15 -29 0 -13 -5 -27 -11 -31 -6 -3 -62 -6 -125 -5 -97 2 -114
0 -114 -14 0 -8 -7 -15 -15 -15 -8 0 -15 -4 -15 -10 0 -5 -6 -10 -14 -10 -8 0
-16 -7 -20 -15 -3 -8 -15 -15 -26 -15 -11 0 -20 -7 -20 -15 0 -8 -6 -15 -14
-15 -8 0 -21 -6 -28 -14 -8 -7 -29 -17 -46 -21 -18 -3 -49 -22 -69 -41 -27
-26 -44 -34 -72 -34 -21 0 -42 5 -49 12 -18 18 -16 78 3 78 9 0 15 9 15 25 0
25 0 25 -95 25 -78 0 -95 -3 -95 -15 0 -8 -7 -15 -15 -15 -8 0 -15 -7 -15 -15
0 -8 -7 -15 -15 -15 -8 0 -15 -4 -15 -10 0 -5 -7 -10 -15 -10 -8 0 -15 -7 -15
-15 0 -18 -31 -20 -48 -3 -7 7 -12 31 -12 55 l0 43 -95 0 c-78 0 -95 -3 -95
-15 0 -8 -7 -15 -15 -15 -8 0 -15 -5 -15 -11 0 -14 -25 -39 -39 -39 -6 0 -11
-7 -11 -15 0 -8 -7 -15 -15 -15 -8 0 -15 -7 -15 -15 0 -10 -10 -15 -30 -15
-20 0 -30 -5 -30 -15 0 -8 -4 -15 -10 -15 -5 0 -10 -6 -10 -14 0 -9 -21 -15
-71 -20 -96 -9 -109 3 -109 91 0 49 3 63 15 63 11 0 15 11 15 40 0 38 -2 40
-29 40 -23 0 -37 9 -58 38 -15 20 -32 41 -38 45 -5 4 -52 6 -103 5 l-92 -4
-39 -42 c-22 -23 -49 -42 -60 -42 -12 0 -21 -6 -21 -15 0 -8 -7 -15 -15 -15
-9 0 -15 -9 -15 -25 0 -14 -7 -28 -15 -31 -11 -4 -15 -21 -15 -55 0 -41 3 -49
19 -49 10 0 24 -7 31 -15 7 -8 18 -15 25 -15 7 0 18 -7 25 -15 9 -11 33 -15
90 -15 43 0 80 4 82 9 2 4 12 11 24 15 15 5 32 -4 65 -35 l44 -41 147 5 147 5
30 31 c17 17 34 31 38 31 5 0 16 8 25 18 46 47 54 52 66 40 7 -7 12 -20 12
-30 0 -16 11 -18 120 -18 100 0 120 3 120 15 0 8 6 15 14 15 8 0 16 7 20 15 3
9 18 15 36 15 27 0 30 -3 30 -30 0 -19 5 -30 14 -30 7 0 19 -7 26 -15 9 -11
35 -15 106 -15 52 0 94 4 94 9 0 5 13 12 30 16 16 3 47 15 69 26 41 20 63 17
94 -10 23 -19 183 -23 195 -5 4 6 18 15 32 19 14 4 30 15 37 24 15 21 47 4 51
-28 2 -11 11 -21 19 -21 9 0 24 -6 32 -13 19 -16 89 -37 122 -37 44 0 129 24
129 37 0 7 6 13 14 13 8 0 17 7 20 16 5 13 9 14 21 4 8 -7 15 -20 15 -29 0 -9
5 -22 12 -29 15 -15 164 -16 173 -2 3 6 17 10 31 10 15 0 24 6 24 15 0 8 6 15
14 15 8 0 16 7 20 15 3 8 17 15 31 15 21 0 25 -5 25 -29 0 -16 7 -34 15 -41 8
-7 15 -18 15 -25 0 -6 8 -19 18 -28 26 -24 252 -25 252 -2 0 8 6 15 14 15 8 0
17 7 20 16 10 27 36 -3 36 -42 l0 -34 64 0 c73 0 76 4 76 97 0 45 -4 54 -31
77 -17 14 -41 26 -54 26 -13 0 -27 5 -30 10 -3 6 -37 10 -76 10 -55 0 -69 -3
-69 -15 0 -9 -9 -15 -25 -15 -16 0 -25 -6 -25 -15 0 -18 -41 -20 -58 -3 -7 7
-12 38 -12 69 0 32 -4 61 -10 64 -5 3 -10 17 -10 31 0 23 -2 24 -80 24 -64 0
-80 -3 -80 -15 0 -8 -7 -15 -15 -15 -8 0 -15 -7 -15 -15 0 -8 -9 -15 -20 -15
-13 0 -20 7 -20 20 0 11 7 20 15 20 9 0 15 9 15 25 0 16 6 25 15 25 8 0 15 7
15 15 0 8 7 15 15 15 8 0 15 7 15 15 0 8 5 15 10 15 6 0 10 11 10 25 0 16 6
25 15 25 10 0 15 10 15 30 0 20 5 30 15 30 8 0 15 7 15 15 0 8 7 15 15 15 8 0
15 7 15 15 0 8 5 15 11 15 14 0 39 25 39 39 0 6 7 11 15 11 23 0 20 72 -3 93
-24 22 -82 23 -82 2z"/>
<path d="M1800 1885 c0 -8 -7 -15 -15 -15 -8 0 -15 -7 -15 -15 0 -8 -5 -15
-11 -15 -6 0 -17 -6 -25 -14 -8 -8 -14 -19 -14 -25 0 -6 -7 -11 -15 -11 -8 0
-15 -7 -15 -15 0 -8 -7 -15 -15 -15 -8 0 -15 -7 -15 -15 0 -8 -7 -15 -15 -15
-8 0 -15 -7 -15 -15 0 -8 -7 -15 -15 -15 -8 0 -15 -4 -15 -8 0 -5 -18 -17 -40
-28 -22 -10 -40 -25 -40 -31 0 -23 -36 -14 -65 17 -22 23 -25 30 -12 30 26 0
25 150 -1 173 -23 21 -62 22 -62 2 0 -8 -7 -15 -15 -15 -8 0 -15 -4 -15 -10 0
-5 -11 -10 -25 -10 -16 0 -25 -6 -25 -15 0 -8 -7 -15 -15 -15 -21 0 -21 -102
0 -120 8 -7 15 -25 15 -41 0 -18 5 -29 14 -29 7 0 19 -7 26 -15 10 -12 38 -15
136 -15 75 0 124 4 124 10 0 19 35 50 57 50 14 0 23 6 23 15 0 8 7 15 15 15 8
0 15 5 15 10 0 6 7 10 15 10 8 0 15 7 15 15 0 8 5 15 10 15 6 0 10 7 10 15 0
8 6 15 14 15 8 0 17 7 20 16 6 16 8 16 24 0 10 -9 23 -16 29 -16 6 0 16 -7 23
-15 7 -8 27 -15 44 -15 18 0 37 -5 44 -12 17 -17 15 -67 -3 -74 -20 -8 -19
-47 3 -66 22 -20 66 -28 183 -35 100 -5 139 4 139 32 0 8 5 15 10 15 6 0 10 7
10 15 0 8 5 15 10 15 6 0 10 9 10 19 0 11 4 21 10 23 5 2 12 22 16 46 l7 42
-37 0 c-24 0 -36 -5 -36 -14 0 -8 -7 -16 -15 -20 -8 -3 -15 -12 -15 -20 0 -7
-7 -16 -15 -20 -8 -3 -15 -12 -15 -21 0 -8 -7 -15 -15 -15 -8 0 -15 -7 -15
-15 0 -23 -82 -20 -103 3 -22 24 -23 72 -2 72 11 0 15 11 15 40 0 32 -4 40
-19 40 -10 0 -24 7 -31 15 -8 10 -31 15 -69 15 -64 0 -81 11 -81 52 0 17 -5
28 -14 28 -7 0 -19 7 -26 15 -7 8 -23 15 -36 15 -15 0 -24 -6 -24 -15z"/>
<path d="M13127 1740 c-9 -11 -17 -25 -17 -30 0 -6 -11 -10 -25 -10 -14 0 -25
-4 -25 -10 0 -5 -7 -10 -15 -10 -8 0 -15 -7 -15 -15 0 -8 -7 -15 -15 -15 -23
0 -20 -72 3 -93 23 -21 58 -22 66 -2 3 9 19 15 41 15 22 0 35 5 35 13 0 14 35
47 49 47 5 0 11 7 15 15 3 8 15 15 26 15 11 0 20 5 20 10 0 6 7 10 15 10 21 0
19 43 -3 63 -28 26 -132 23 -155 -3z"/>
<path d="M8210 1665 c0 -8 -6 -15 -14 -15 -9 0 -19 -20 -27 -51 -7 -28 -19
-54 -26 -56 -20 -8 -16 -77 5 -96 20 -18 82 -23 82 -7 0 6 6 10 14 10 8 0 16
16 20 40 3 22 11 40 16 40 6 0 10 32 10 75 l0 75 -40 0 c-29 0 -40 -4 -40 -15z"/>
</g>
</svg>
