<?xml version="1.0" encoding="UTF-8" standalone="no"?>
<svg xmlns="http://www.w3.org/2000/svg" version="1.0" width="403" height="118">
<path d="M79.044,65c6.735-7.437,28.516-13.02,23,6c4.707,0.623,9.386-7.452,15-7 c4.919,0.396,8.233,9.622,13,11c13.996,4.046,36.329-10.091,54-14c36.74-8.128,91.712-10.508,131-15 c22.207-2.539,45.224-10.267,64-9c-3.869,6.589-9.753,4.049-15,5c-37.578,6.81-82.886,13.274-127,17 c-25.715,2.172-49.243,5.521-72,12c-13.556,3.859-40.795,18.127-49-2c-11.271,1.068-13.718,16.273-21,18 c-4.912-5.255,8.756-18.447,0-25c-6.963,1.371-11.63,5.036-14,11c1.92,4.541,3.898,15.122-1,18c-9.756-0.57-4.243-12.008-4-19 c-6.368,0.647-13.519,14.466-21,14c-6.599-9.817,1.394-28.641,8-35c-4.496-20.014-36.751-49.096-41-11 c-2.363,21.185,7.599,49.979,4,67c-6.197-8.584-8.682-23.417-10-38c-1.669-18.466,2.78-38.913,8-51 c22.681-13.008,33.857,14.608,43,30C71.156,54.923,76.562,59.396,79.044,65z M59.044,79c8.139-3.616,17.695-16.828,5-22 C61.355,62.656,56.674,71.614,59.044,79z" />
</svg>