<?xml version="1.0" encoding="UTF-8" standalone="no"?>
<!-- Created with Inkscape (http://www.inkscape.org/) -->

<svg
   xmlns:dc="http://purl.org/dc/elements/1.1/"
   xmlns:cc="http://creativecommons.org/ns#"
   xmlns:rdf="http://www.w3.org/1999/02/22-rdf-syntax-ns#"
   xmlns:svg="http://www.w3.org/2000/svg"
   xmlns="http://www.w3.org/2000/svg"
   xmlns:sodipodi="http://sodipodi.sourceforge.net/DTD/sodipodi-0.dtd"
   xmlns:inkscape="http://www.inkscape.org/namespaces/inkscape"
   id="svg2"
   version="1.1"
   inkscape:version="0.91 r13725"
   width="382"
   height="289"
   viewBox="0 0 382 289"
   sodipodi:docname="vladimir krutov2.svg">
  <metadata
     id="metadata8">
    <rdf:RDF>
      <cc:Work
         rdf:about="">
        <dc:format>image/svg+xml</dc:format>
        <dc:type
           rdf:resource="http://purl.org/dc/dcmitype/StillImage" />
        <dc:title />
      </cc:Work>
    </rdf:RDF>
  </metadata>
  <defs
     id="defs6" />
  <sodipodi:namedview
     pagecolor="#ffffff"
     bordercolor="#666666"
     borderopacity="1"
     objecttolerance="10"
     gridtolerance="10"
     guidetolerance="10"
     inkscape:pageopacity="0"
     inkscape:pageshadow="2"
     inkscape:window-width="1366"
     inkscape:window-height="705"
     id="namedview4"
     showgrid="false"
     inkscape:zoom="1.8546713"
     inkscape:cx="181.56437"
     inkscape:cy="144.5"
     inkscape:window-x="-8"
     inkscape:window-y="-8"
     inkscape:window-maximized="1"
     inkscape:current-layer="svg2" />
  <path
     style="fill:#000000;fill-opacity:1"
     d="m 254.41684,7.498669 c -6.64054,0.089029 -13.66211,2.483451 -18.63245,5.85668 -12.15831,8.092212 -9.57527,25.400362 -7.39201,37.8992 2.89554,17.275542 12.68506,32.185493 18.14608,48.503084 -5.7187,11.335557 -10.8035,23.747407 -14.46127,36.265247 -4.24899,15.87165 -14.19542,33.18974 -15.40714,46.71449 -1.21171,13.52474 -5.46066,17.09539 -14.27523,8.91837 -12.67682,3.21184 -19.3336,-30.44125 -24.11033,-11.6125 -6.49575,-1.1819 -1.72882,-12.32664 -4.22946,-24.91946 -13.502,-25.64235 -32.38264,-64.838028 -43.61916,-84.140758 -7.2395,-14.126311 -9.64862,-5.02579 -11.19785,10.579232 -1.54923,15.605021 6.18141,47.827466 15.93833,69.365696 4.85391,12.39389 8.24497,25.10367 11.0051,38.21523 3.59639,12.93967 -7.9619,5.47991 -11.02105,-2.96051 -3.05916,-8.44042 -8.72822,-34.68553 -13.5286,-33.88301 -5.3269,0.89054 3.8819,24.56058 8.10945,35.86377 2.6335,7.04117 0.88594,11.2142 -7.69243,12.6417 -2.35544,0.39195 -0.99399,3.11396 0.53115,3.44109 8.11104,1.73973 0.69053,14.71922 -5.51607,20.80358 C 115.0236,213.87512 105.8418,206.25213 93.585624,204.76547 91.863259,195.2108 91.177559,179.70802 76.551274,185.08631 69.31248,174.56555 65.798001,160.85855 62.528641,139.93891 59.259282,119.01926 56.72943,108.13571 57.584864,87.356176 55.634469,67.714495 81.812492,116.09789 73.039059,134.09755 76.592605,146.92547 82.749266,128.9916 80.63952,123.53401 77.944335,105.30954 68.236564,79.269485 59.51916,74.436962 50.801757,69.60444 53.916862,95.160414 52.781624,105.40362 c 2.550686,28.97692 7.443497,58.13641 17.585731,85.49679 -8.710782,9.06708 -17.281186,20.07447 -16.411257,33.37612 -0.897167,12.76712 11.39213,17.46058 19.383304,24.09466 11.072863,-1.21377 15.86399,-11.03185 27.967718,-11.61251 12.10373,-0.58067 27.79398,-9.73037 30.84788,-23.87051 0.0683,-13.72823 11.72155,-0.46255 17.04332,-1.87154 8.33671,-10.3351 22.98246,-4.92566 32.69027,-7.59373 13.75038,16.87125 25.24651,35.73699 41.27917,50.69289 13.32753,5.50176 5.26884,-19.45175 3.43601,-26.4817 -6.06907,-24.68625 21.17773,-4.06669 45.98276,5.3937 24.80503,9.46039 50.45651,22.93336 67.85381,31.89585 2.35458,1.24233 6.16837,3.93818 8.64718,1.59362 C 321.69762,207.47804 274.43603,155.54015 256.51251,100.25074 256.47063,80.144145 281.68581,45.23935 271.9824,18.0129 268.97861,10.259284 261.94279,7.3977637 254.41684,7.498669 Z m -1.50171,4.75393 c 28.63952,0.341377 0.78818,78.757749 -1.06062,77.815688 -14.45211,-18.154476 -27.34324,-66.875519 -5.67916,-76.482078 2.51545,-0.873555 4.75506,-1.300143 6.73978,-1.33361 z M 129.28066,84.926415 c 9.58414,14.04935 20.70735,37.086915 27.56967,50.495785 7.19959,11.97253 16.15184,28.34695 9.277,42.05019 -10.95145,3.11489 2.8762,10.44153 -5.78047,14.95439 -1.67067,1.66527 -3.39352,3.43121 -5.71548,4.17789 -5.62054,-10.55241 -5.11514,-24.67205 -10.07941,-37.51817 -4.96427,-12.84612 -12.25998,-27.03211 -15.27264,-41.66469 -0.6923,-6.58312 -7.34477,-32.124605 0.001,-32.495395 z m 122.29285,25.325235 c 21.96121,50.57262 56.98726,97.81604 82.02633,141.32087 -33.02183,-13.60964 -69.1337,-31.93499 -104.27505,-45.29637 -14.25772,-6.70531 -5.30803,-25.55953 -2.78602,-37.0699 3.35427,-7.46555 22.03473,-58.56063 25.03474,-58.9546 z m 55.95466,56.65945 c -3.13767,0.21013 -3.26866,9.02985 2.83084,11.68646 4.81017,0.50343 4.09308,-4.57388 2.04189,-7.09166 -1.95589,-3.43945 -3.64495,-4.67702 -4.87273,-4.5948 z m -134.26882,22.33741 c 1.91282,-0.0265 3.81104,1.25448 4.79875,4.99377 -0.11315,2.31451 -3.27906,1.43483 -4.75617,1.56222 -9.91051,2.11223 -4.93093,-6.48816 -0.0426,-6.55599 z m -93.814477,2.23016 c 3.271085,-0.15375 6.157593,10.41248 4.061349,14.79972 -2.606947,8.88728 -6.603679,-8.19116 -7.291152,-10.44699 1.005546,-3.05923 2.139441,-4.30148 3.229803,-4.35273 z m 113.334497,6.92805 c 12.53698,5.66968 26.34105,11.62833 26.34722,27.80411 0.006,16.17579 -2.26499,7.26146 -7.85822,1.3874 -5.80923,-8.43953 -20.26227,-21.90812 -18.489,-29.19151 z m -124.043727,3.41136 c 4.363492,0.2346 7.860918,13.05969 8.828728,18.79382 -9.792233,7.99465 8.334331,11.82392 3.429284,17.75608 -16.931759,4.1564 -27.32115,-16.68756 -17.677627,-29.86392 1.872467,-4.94288 3.712162,-6.77778 5.419615,-6.68598 z m 22.400178,11.33233 c 8.212846,-0.12212 20.294869,6.52981 14.337999,14.73024 -5.65421,5.59507 -17.268155,0.19326 -20.210372,-6.06513 -2.590697,-6.07987 0.944663,-8.59184 5.872373,-8.66511 z"
     id="path3344"
     inkscape:connector-curvature="0"
     sodipodi:nodetypes="scccczccccscczssssccczcccscccczccccczccccsccccccccczcccscccsscssscssccscsccssccssscss" />
</svg>
