<?xml version="1.0" standalone="no"?>
<!DOCTYPE svg PUBLIC "-//W3C//DTD SVG 20010904//EN"
 "http://www.w3.org/TR/2001/REC-SVG-20010904/DTD/svg10.dtd">
<svg version="1.0" xmlns="http://www.w3.org/2000/svg"
 width="468pt" height="107pt" viewBox="0 0 468 107"
 preserveAspectRatio="xMidYMid meet">
<metadata>
Created by POTRACE VERSION, written by Peter Selinger 2001-2007
</metadata>
<g transform="translate(0,107) scale(0.039000,-0.039000)"
fill="#000000" stroke="none">
<path d="M385 2704 c-8 -20 -15 -43 -15 -52 0 -8 -6 -23 -13 -31 -8 -9 -21
-45 -31 -81 -10 -36 -24 -80 -32 -98 -8 -18 -14 -50 -14 -71 0 -22 -6 -44 -15
-51 -10 -8 -15 -31 -15 -69 0 -31 -4 -61 -9 -66 -6 -6 -15 -38 -20 -72 -6 -35
-15 -89 -21 -120 -5 -32 -10 -88 -12 -125 -1 -48 -6 -68 -15 -68 -7 0 -13 -6
-13 -14 0 -7 -7 -27 -15 -42 -8 -16 -15 -38 -15 -49 0 -11 7 -31 17 -44 13
-19 14 -28 4 -43 -6 -10 -14 -46 -17 -81 -4 -34 -13 -72 -20 -84 -9 -14 -11
-30 -5 -45 4 -12 4 -38 0 -58 -5 -19 -9 -52 -9 -72 0 -20 -5 -40 -11 -44 -6
-3 -9 -14 -6 -23 2 -9 0 -41 -4 -71 -5 -30 -14 -82 -20 -115 -6 -33 -12 -80
-14 -105 -1 -25 -4 -49 -5 -55 -2 -5 -4 -26 -6 -45 -1 -19 -8 -87 -14 -150 -6
-63 -12 -212 -12 -330 -1 -118 2 -230 6 -248 6 -23 19 -40 47 -57 21 -14 44
-25 50 -25 6 0 34 24 62 54 29 29 66 73 82 96 17 23 46 64 65 90 19 26 50 62
68 80 18 17 39 45 48 61 8 16 18 29 22 29 4 0 15 12 24 27 10 16 36 48 58 73
23 25 53 61 68 80 14 19 42 52 61 73 20 21 51 46 70 54 33 16 34 16 57 -11 13
-15 24 -36 24 -47 0 -11 7 -31 16 -44 8 -13 20 -50 25 -82 5 -32 12 -86 15
-121 5 -48 12 -66 28 -77 11 -8 28 -15 38 -15 9 0 33 14 53 32 33 28 36 35 30
69 -4 21 -15 55 -26 76 -10 20 -19 42 -19 49 0 6 -12 36 -26 65 -14 30 -36 72
-47 94 -12 22 -40 62 -62 88 -21 26 -46 47 -53 47 -8 0 -36 -14 -63 -32 -27
-17 -49 -37 -49 -43 0 -7 -22 -27 -48 -45 -27 -18 -59 -48 -72 -68 -14 -19
-46 -58 -72 -86 -26 -28 -59 -68 -73 -88 -14 -21 -36 -55 -50 -75 -13 -21 -47
-63 -75 -93 -27 -30 -67 -72 -88 -93 -22 -23 -45 -36 -57 -35 -16 3 -21 13
-27 58 -3 30 -11 75 -17 100 -7 30 -7 63 0 101 5 32 8 81 7 110 -1 30 1 104 5
164 4 61 11 126 17 145 6 19 8 57 4 83 -4 36 -2 52 9 65 11 12 17 52 22 142 4
69 12 145 17 170 5 25 11 72 13 105 1 33 5 76 8 95 3 19 8 76 12 125 5 62 12
94 23 102 8 7 19 34 24 60 5 27 13 91 18 143 6 52 12 118 14 145 3 28 9 63 16
79 6 16 10 54 10 85 -1 31 3 83 8 116 6 33 14 80 18 105 4 25 15 57 25 72 11
14 19 33 19 41 0 8 11 26 25 41 13 14 29 26 34 26 6 0 15 -17 20 -37 6 -21 15
-82 21 -136 7 -66 7 -104 0 -117 -5 -10 -10 -32 -10 -48 0 -16 -6 -35 -14 -41
-8 -6 -17 -25 -20 -41 -3 -17 -9 -45 -12 -62 -3 -18 -13 -38 -21 -45 -9 -7
-12 -19 -8 -33 5 -15 -1 -29 -24 -52 -21 -22 -30 -41 -31 -67 0 -20 -2 -51 -3
-68 -1 -18 -5 -33 -8 -33 -3 0 -11 -12 -18 -27 -7 -16 -19 -52 -27 -81 -8 -29
-14 -67 -14 -85 1 -18 -2 -52 -5 -77 -3 -25 -6 -63 -7 -85 -1 -22 1 -57 6 -78
4 -22 26 -60 57 -97 27 -33 56 -60 64 -60 7 0 16 4 19 8 2 4 -15 37 -39 73
-24 36 -48 83 -55 105 -9 30 -9 62 -2 125 6 46 8 95 6 109 -3 15 7 56 25 100
17 41 31 81 31 88 0 6 11 35 25 64 14 28 25 64 25 80 0 15 5 28 10 28 6 0 10
7 10 15 0 8 6 29 14 47 8 18 26 74 40 123 21 76 25 110 25 220 0 119 -3 135
-26 187 -16 34 -36 61 -50 67 -13 6 -30 11 -38 11 -8 0 -22 -16 -30 -36z"/>
<path d="M6995 2343 c-5 -73 -15 -129 -31 -173 -13 -36 -24 -72 -24 -80 0 -8
-6 -26 -13 -41 -8 -14 -17 -58 -21 -99 -3 -41 -11 -77 -17 -81 -6 -3 -8 -15
-5 -26 4 -12 1 -25 -9 -33 -8 -7 -15 -23 -15 -37 0 -13 -7 -34 -15 -46 -10
-15 -17 -64 -21 -147 -5 -100 -3 -138 10 -190 9 -36 25 -76 35 -90 10 -14 24
-25 32 -25 8 0 16 16 20 40 4 23 2 49 -4 60 -6 11 -15 40 -19 65 -5 25 -11 77
-13 115 -1 39 1 95 6 125 6 30 17 71 25 90 8 19 22 91 32 159 9 69 22 126 29
128 6 2 12 -13 15 -38 2 -23 0 -74 -4 -113 -4 -39 -9 -111 -10 -161 -1 -49 -6
-103 -11 -120 -6 -16 -11 -91 -13 -165 -1 -74 -5 -184 -10 -245 -4 -60 -6
-130 -5 -155 1 -25 -5 -97 -14 -160 -8 -63 -20 -139 -26 -168 -9 -46 -8 -55 9
-77 12 -15 25 -57 33 -105 10 -63 17 -81 32 -86 13 -4 28 3 48 22 16 15 29 35
29 43 0 9 -9 22 -21 29 -17 11 -19 19 -13 59 4 25 8 98 10 162 2 64 8 179 14
256 6 77 12 158 15 180 2 22 7 128 11 235 4 107 7 215 7 240 1 25 0 77 -2 115
-1 39 2 126 6 195 5 69 5 180 1 247 -4 67 -12 132 -19 145 -7 12 -15 30 -19
38 -4 8 -14 16 -23 18 -12 3 -16 -15 -22 -105z"/>
<path d="M8169 2334 c-10 -12 -8 -37 4 -117 10 -56 17 -125 17 -152 0 -29 -7
-60 -15 -72 -14 -21 -21 -22 -99 -16 -76 5 -85 4 -105 -16 -11 -11 -21 -31
-21 -44 0 -13 9 -33 20 -45 12 -12 28 -22 38 -22 9 0 35 7 59 16 24 10 53 14
68 10 16 -4 25 -13 25 -26 0 -11 -9 -43 -20 -71 -10 -29 -22 -73 -25 -98 -4
-25 -13 -62 -21 -81 -7 -19 -20 -62 -28 -95 -8 -33 -24 -93 -34 -132 -13 -49
-17 -84 -13 -106 5 -18 13 -42 20 -55 6 -12 22 -24 36 -28 13 -3 34 -3 47 1
12 4 43 29 68 54 26 25 72 66 104 91 32 25 63 51 70 59 6 7 35 39 64 71 28 31
52 61 52 66 0 5 9 20 20 34 11 14 20 33 20 42 0 9 5 20 11 24 6 3 22 -6 35
-22 13 -16 23 -36 24 -44 0 -9 5 -21 11 -27 5 -5 17 -46 26 -89 8 -43 17 -104
20 -134 3 -32 13 -64 24 -79 10 -13 19 -31 19 -40 1 -9 9 -40 19 -69 10 -29
29 -64 41 -77 13 -14 34 -25 47 -25 13 0 56 21 96 47 39 25 94 69 121 96 28
27 66 61 83 74 18 14 43 42 55 62 12 20 34 49 50 65 15 17 28 37 28 47 0 9 6
19 14 22 7 3 22 23 32 44 11 21 32 56 46 78 15 22 31 58 37 81 6 22 20 49 31
59 11 10 20 31 20 46 0 15 8 42 17 61 9 18 19 40 23 48 4 8 14 16 23 18 11 2
19 -6 24 -25 4 -15 7 -57 6 -93 -1 -36 -2 -102 -3 -147 -1 -46 2 -88 7 -95 4
-7 9 -26 10 -43 1 -16 4 -48 7 -70 2 -22 12 -109 20 -192 9 -84 21 -162 28
-172 9 -16 21 -19 50 -17 22 2 40 5 41 7 1 2 9 20 18 39 9 19 24 51 34 71 10
20 51 73 92 118 40 45 73 86 73 91 0 6 14 22 30 37 17 14 30 30 30 34 0 3 20
49 43 100 24 52 53 119 65 149 11 30 23 67 26 83 4 15 13 27 21 27 7 0 17 -5
20 -10 3 -6 8 -29 9 -53 2 -23 9 -127 15 -232 7 -104 17 -212 22 -240 6 -27
13 -68 16 -90 3 -22 14 -50 25 -62 17 -19 24 -20 42 -11 11 6 33 25 49 41 15
16 27 37 27 47 0 9 14 36 31 60 17 24 36 59 41 79 6 20 18 45 28 56 9 11 40
75 69 142 28 67 51 126 51 133 0 6 8 10 17 8 10 -2 20 -17 24 -38 4 -19 8 -80
8 -135 0 -55 5 -161 11 -235 8 -105 14 -138 27 -147 9 -7 29 -13 43 -13 15 0
33 8 42 17 8 10 22 44 32 76 11 37 28 68 47 84 16 15 35 38 43 52 7 14 26 49
41 76 15 28 35 55 42 62 8 6 36 54 62 105 35 71 51 93 66 93 16 0 19 -6 17
-30 -2 -16 -4 -111 -5 -210 0 -99 2 -192 6 -207 4 -16 14 -28 22 -28 8 0 19
-9 25 -20 6 -11 20 -20 30 -20 13 0 20 7 20 18 0 10 6 26 13 37 8 11 19 35 25
52 6 18 27 60 46 93 20 34 36 65 36 69 0 4 19 28 43 53 23 24 56 71 73 104 17
32 38 60 47 62 12 3 16 -14 20 -95 3 -54 12 -131 20 -172 8 -40 21 -78 28 -83
8 -5 22 -13 31 -18 14 -9 26 2 71 63 30 40 58 83 61 94 4 12 14 27 22 34 9 7
18 9 24 3 5 -5 11 -55 13 -111 4 -97 5 -103 35 -137 17 -20 33 -36 35 -36 2 0
12 19 22 43 9 23 21 52 26 65 5 13 9 40 9 61 0 21 8 62 19 92 10 30 30 72 45
93 14 21 27 48 27 60 1 12 3 28 4 36 0 8 4 22 7 30 3 8 11 31 17 50 7 19 14
63 16 97 3 41 -1 76 -11 99 -8 19 -20 34 -27 31 -8 -2 -12 -31 -13 -85 0 -51
-6 -87 -14 -97 -7 -9 -17 -38 -21 -66 -5 -33 -16 -56 -31 -69 -13 -11 -29 -19
-35 -20 -9 0 -13 19 -13 64 0 45 -5 69 -16 80 -8 9 -23 16 -33 16 -10 0 -25
-8 -34 -18 -10 -10 -17 -26 -17 -35 0 -9 -10 -36 -22 -59 -12 -24 -32 -56 -43
-73 -11 -16 -31 -45 -44 -62 -14 -18 -31 -33 -38 -33 -7 0 -15 10 -17 23 -3
12 -7 45 -10 72 -3 28 -7 87 -9 133 -2 46 -8 87 -15 94 -7 7 -12 25 -12 40 0
23 -4 28 -24 28 -18 0 -33 -13 -59 -52 -19 -29 -41 -69 -50 -89 -8 -19 -35
-62 -59 -95 -25 -32 -53 -74 -62 -92 -9 -18 -24 -36 -32 -39 -8 -3 -21 -21
-29 -40 -11 -27 -20 -34 -37 -31 -22 3 -23 4 -24 182 0 127 -4 181 -12 184 -7
2 -12 17 -12 34 0 17 -9 46 -21 65 -17 27 -24 31 -35 22 -8 -6 -14 -17 -14
-25 0 -7 -16 -39 -35 -71 -19 -32 -35 -64 -35 -71 0 -7 -7 -27 -16 -45 -9 -18
-24 -41 -34 -52 -10 -11 -34 -50 -53 -87 -20 -36 -52 -88 -73 -115 -20 -26
-46 -53 -58 -60 -14 -8 -25 -8 -33 -1 -7 6 -13 24 -13 40 0 16 -5 38 -11 49
-5 11 -12 43 -14 72 -3 29 -9 70 -14 92 -5 22 -15 56 -22 75 -7 19 -19 50 -28
68 -9 19 -20 42 -26 53 -5 10 -15 19 -22 19 -7 0 -13 -7 -13 -16 0 -9 -13 -36
-30 -61 -16 -24 -30 -46 -30 -49 0 -3 -8 -18 -19 -32 -10 -15 -22 -41 -25 -58
-4 -18 -16 -40 -27 -50 -10 -9 -19 -28 -19 -41 0 -13 -11 -41 -25 -63 -14 -22
-25 -44 -25 -50 0 -6 -14 -29 -32 -51 -28 -35 -34 -38 -46 -25 -9 9 -18 49
-23 108 -4 51 -13 125 -19 163 -6 39 -13 88 -17 110 -3 22 -16 64 -30 93 -13
30 -22 60 -19 68 3 7 0 28 -6 46 -6 18 -19 38 -27 45 -9 6 -19 9 -24 6 -4 -2
-17 -26 -28 -51 -11 -26 -28 -63 -38 -82 -10 -19 -22 -51 -26 -70 -4 -19 -15
-46 -25 -60 -10 -14 -21 -36 -25 -50 -4 -14 -16 -45 -27 -70 -11 -25 -38 -74
-61 -110 -23 -36 -63 -86 -89 -111 -27 -26 -48 -51 -48 -57 0 -6 -16 -20 -36
-32 -19 -12 -37 -21 -38 -19 -2 2 -11 54 -21 114 -9 61 -21 117 -25 126 -5 9
-11 41 -15 73 -4 31 -11 59 -17 62 -5 3 -6 14 -3 25 4 11 0 43 -9 72 -8 29
-18 69 -21 90 -3 20 -10 37 -15 37 -6 0 -10 15 -10 34 0 19 -8 48 -17 65 -10
17 -23 31 -30 31 -6 0 -21 -12 -32 -27 -12 -14 -24 -38 -28 -52 -3 -14 -17
-42 -30 -61 -12 -19 -23 -39 -23 -45 0 -5 -13 -35 -30 -65 -16 -30 -29 -62
-30 -71 0 -9 -7 -22 -15 -29 -9 -7 -27 -37 -40 -67 -14 -29 -41 -68 -61 -85
-19 -17 -44 -48 -55 -70 -11 -21 -24 -38 -29 -38 -5 0 -26 -25 -47 -55 -21
-30 -48 -59 -60 -64 -13 -6 -43 -29 -67 -51 -24 -22 -50 -40 -58 -40 -8 0 -19
-5 -26 -12 -8 -8 -15 -8 -25 1 -8 6 -28 40 -45 75 -17 34 -38 92 -48 127 -9
35 -23 71 -30 79 -7 8 -35 70 -62 137 -27 68 -55 130 -62 138 -7 9 -22 21 -32
26 -15 8 -23 7 -34 -8 -7 -10 -14 -29 -14 -44 0 -14 -15 -41 -35 -63 -19 -21
-35 -43 -35 -48 0 -5 -9 -22 -21 -36 -11 -15 -43 -50 -70 -79 -28 -29 -75 -66
-105 -82 -29 -17 -61 -31 -70 -31 -13 0 -15 6 -10 28 3 15 11 53 16 86 6 32
17 70 24 85 8 14 17 53 21 86 4 33 18 90 32 127 16 46 23 77 18 97 -3 17 -2
32 5 36 5 3 10 18 9 33 0 15 4 45 10 67 7 24 9 78 5 137 -4 64 -11 102 -20
109 -8 6 -23 31 -33 54 -11 25 -27 44 -39 47 -12 4 -26 0 -33 -8z"/>
<path d="M1971 1786 c-12 -19 -21 -50 -21 -72 0 -22 -7 -52 -15 -68 -9 -16
-20 -48 -26 -70 -6 -23 -15 -59 -20 -81 -6 -22 -17 -85 -26 -140 -8 -55 -16
-134 -18 -175 -1 -41 -5 -121 -10 -176 -4 -56 -5 -121 -1 -145 5 -35 13 -48
37 -61 17 -10 37 -18 44 -18 8 0 32 24 53 53 22 28 50 62 63 73 13 12 39 38
58 59 19 20 43 53 54 73 10 19 27 42 37 51 10 9 28 32 39 51 12 19 28 50 38
68 9 17 22 32 29 32 6 0 16 -12 22 -27 6 -16 15 -50 21 -78 6 -27 14 -79 20
-115 5 -36 14 -83 21 -105 6 -22 16 -62 21 -90 4 -27 11 -67 15 -88 3 -20 10
-40 15 -43 5 -3 9 -14 9 -24 0 -10 10 -31 23 -46 19 -22 28 -25 54 -20 20 5
41 22 63 52 17 25 53 66 78 92 26 26 63 67 83 92 20 25 43 59 52 76 9 17 32
50 51 73 20 24 36 49 36 56 0 7 12 38 26 69 14 30 30 58 35 61 5 4 9 15 9 26
0 11 12 38 27 62 15 23 32 58 39 77 7 19 18 35 25 35 7 0 18 -25 26 -59 7 -33
17 -64 22 -70 4 -6 11 -37 15 -70 3 -32 12 -68 18 -80 6 -11 18 -48 25 -81 8
-33 18 -79 22 -102 4 -23 16 -53 25 -68 11 -17 16 -37 13 -55 -4 -16 0 -36 9
-49 8 -11 24 -21 35 -21 11 0 35 6 53 14 24 10 40 27 57 62 12 27 36 67 51 88
15 21 28 45 28 52 0 7 14 22 30 34 17 12 30 27 30 34 0 7 18 38 40 69 22 30
40 59 40 64 0 4 11 22 24 38 16 20 28 27 34 20 6 -5 26 -52 46 -102 20 -51 36
-108 36 -128 0 -19 9 -65 21 -102 11 -38 29 -93 40 -124 10 -31 19 -67 19 -80
1 -13 9 -33 18 -45 10 -12 28 -27 41 -33 19 -11 26 -10 43 6 12 10 29 37 39
59 10 23 26 47 34 54 8 7 15 18 15 25 0 6 21 35 48 63 26 27 63 69 82 91 19
22 40 51 45 63 6 13 28 49 49 82 21 32 41 54 45 50 4 -5 13 -31 19 -59 6 -27
14 -71 18 -97 4 -29 11 -48 19 -48 7 0 18 -7 25 -16 8 -8 25 -14 39 -12 16 2
30 13 38 28 6 14 20 59 31 100 12 47 25 75 33 75 7 0 18 -13 23 -30 5 -16 20
-59 32 -95 13 -36 24 -77 24 -90 0 -14 7 -34 15 -44 8 -11 15 -27 15 -37 0 -9
9 -38 21 -65 11 -27 25 -59 31 -70 6 -14 23 -24 45 -27 29 -5 45 1 99 35 35
23 64 45 64 50 0 4 22 32 49 62 27 30 55 65 62 78 7 13 20 29 31 36 10 7 18
19 18 26 0 8 6 16 14 19 8 3 19 0 24 -6 5 -7 12 -47 16 -90 4 -43 9 -84 12
-92 3 -7 15 -20 27 -28 12 -8 34 -17 50 -21 22 -5 27 -3 27 13 0 10 37 59 83
109 45 49 97 108 116 131 29 35 37 40 48 28 7 -7 16 -36 20 -65 5 -49 4 -52
-21 -61 -14 -6 -26 -14 -26 -19 0 -5 26 -26 57 -46 l57 -37 43 21 c28 14 45
30 49 46 4 14 1 37 -5 50 -6 14 -11 37 -11 52 -1 15 -9 45 -20 67 -11 22 -19
45 -20 52 0 7 -7 34 -16 59 -9 26 -27 65 -40 86 -14 21 -32 38 -42 38 -10 0
-28 -9 -40 -20 -11 -11 -24 -37 -28 -57 -4 -21 -17 -51 -28 -68 -12 -16 -24
-31 -28 -33 -4 -2 -24 -27 -44 -55 -21 -29 -47 -60 -58 -69 -12 -10 -29 -18
-38 -18 -15 0 -18 10 -20 55 -1 30 -2 63 -2 72 -1 14 7 17 51 14 l53 -2 -3 48
c-2 27 -6 53 -10 59 -4 6 -13 38 -22 70 -10 41 -26 69 -49 93 l-34 34 -36 -17
c-20 -9 -40 -25 -46 -36 -5 -10 -10 -34 -10 -53 0 -19 -11 -68 -25 -108 -13
-41 -33 -80 -43 -89 -10 -8 -24 -29 -31 -46 -7 -17 -32 -51 -57 -75 -24 -24
-44 -47 -44 -51 0 -5 -10 -22 -22 -38 -12 -17 -30 -30 -40 -30 -9 0 -22 -9
-28 -21 -7 -12 -19 -19 -32 -17 -16 2 -26 17 -39 58 -10 30 -17 60 -15 66 3 7
-2 20 -9 31 -7 11 -20 46 -29 79 -9 32 -27 91 -42 129 -14 39 -30 89 -35 113
-5 23 -14 52 -20 64 -7 13 -23 31 -36 41 -12 10 -23 24 -23 32 0 7 -18 29 -40
49 -22 20 -46 36 -53 36 -7 0 -18 -5 -25 -12 -8 -8 -15 -3 -29 20 -10 18 -26
35 -37 38 -10 4 -25 -1 -35 -10 -13 -13 -16 -37 -16 -115 0 -96 -1 -100 -36
-152 -20 -30 -43 -66 -52 -81 -10 -15 -17 -34 -17 -41 0 -8 -9 -22 -21 -33
-12 -10 -28 -32 -37 -49 -8 -16 -33 -49 -56 -73 -22 -23 -44 -49 -49 -57 -4
-8 -14 -15 -22 -15 -7 0 -23 -12 -34 -26 -12 -15 -27 -24 -35 -21 -7 3 -23 36
-35 73 -11 37 -21 77 -21 88 0 12 -13 48 -30 81 -16 33 -30 68 -30 78 0 10
-12 43 -26 72 -14 30 -29 57 -33 60 -5 2 -14 25 -21 50 -12 42 -15 45 -47 45
-27 0 -35 -5 -43 -25 -5 -14 -14 -25 -19 -25 -5 0 -13 -10 -17 -22 -3 -13 -13
-30 -21 -38 -7 -8 -25 -33 -40 -55 -14 -22 -29 -51 -33 -65 -3 -14 -17 -30
-30 -37 -13 -6 -31 -25 -39 -41 -9 -15 -31 -49 -50 -75 -19 -26 -41 -47 -48
-47 -7 0 -15 6 -17 13 -1 6 -11 35 -20 62 -10 28 -21 66 -26 85 -5 19 -25 80
-45 135 -20 55 -40 104 -46 110 -5 5 -9 19 -9 31 0 12 -6 24 -14 27 -7 3 -16
19 -19 35 -3 16 -18 43 -32 61 -15 17 -33 31 -40 31 -7 0 -27 -16 -44 -35 -17
-20 -31 -43 -31 -53 0 -9 -11 -35 -25 -57 -13 -22 -25 -49 -25 -60 0 -11 -15
-45 -33 -75 -17 -31 -45 -82 -62 -114 -16 -32 -43 -73 -60 -90 -16 -17 -47
-56 -67 -86 -21 -30 -56 -74 -78 -98 -27 -31 -46 -43 -61 -40 -17 2 -25 16
-40 63 -10 33 -28 93 -39 133 -12 41 -23 83 -25 95 -1 12 -8 35 -14 50 -6 16
-11 40 -11 55 0 15 -7 36 -15 46 -8 11 -21 42 -30 71 -8 28 -26 64 -40 79 -14
15 -33 26 -42 24 -10 -2 -29 -24 -43 -49 -14 -26 -47 -79 -75 -119 -27 -39
-63 -88 -78 -108 -16 -21 -38 -50 -50 -66 -12 -16 -36 -44 -54 -63 -17 -20
-36 -32 -42 -29 -6 4 -11 34 -11 66 0 32 4 61 9 64 4 3 11 40 15 83 4 43 10
132 13 198 3 66 9 128 15 138 5 9 13 17 19 17 5 0 16 -15 23 -32 8 -18 22 -52
31 -75 10 -23 26 -50 36 -59 11 -10 24 -34 29 -56 6 -21 17 -38 24 -38 8 0 18
19 25 44 9 37 8 53 -9 102 -11 32 -29 67 -39 79 -11 11 -27 40 -35 65 -9 25
-16 62 -16 83 0 21 -5 58 -11 83 -8 29 -21 51 -39 64 -16 11 -30 20 -33 20 -3
0 -15 -15 -26 -34z m2429 -612 c0 -8 -4 -12 -10 -9 -5 3 -10 13 -10 21 0 8 5
12 10 9 6 -3 10 -13 10 -21z"/>
</g>
</svg>
