<?xml version="1.0" encoding="UTF-8" standalone="no"?>
<!-- Created with Inkscape (http://www.inkscape.org/) -->

<svg
   xmlns:dc="http://purl.org/dc/elements/1.1/"
   xmlns:cc="http://creativecommons.org/ns#"
   xmlns:rdf="http://www.w3.org/1999/02/22-rdf-syntax-ns#"
   xmlns:svg="http://www.w3.org/2000/svg"
   xmlns="http://www.w3.org/2000/svg"
   xmlns:sodipodi="http://sodipodi.sourceforge.net/DTD/sodipodi-0.dtd"
   xmlns:inkscape="http://www.inkscape.org/namespaces/inkscape"
   width="409"
   height="80"
   id="svg2"
   version="1.1"
   inkscape:version="0.48.0 r9654"
   sodipodi:docname="Walter_M._Gibson_1886_signature.2011_08_22_16_54_35.0.svg">
  <defs
     id="defs4" />
  <sodipodi:namedview
     id="base"
     pagecolor="#ffffff"
     bordercolor="#666666"
     borderopacity="1.0"
     inkscape:pageopacity="0.0"
     inkscape:pageshadow="2"
     inkscape:zoom="1.8429727"
     inkscape:cx="246.13818"
     inkscape:cy="32.729892"
     inkscape:document-units="px"
     inkscape:current-layer="layer3"
     showgrid="false"
     fit-margin-top="0"
     fit-margin-left="0"
     fit-margin-right="0"
     fit-margin-bottom="0"
     inkscape:window-width="1440"
     inkscape:window-height="820"
     inkscape:window-x="-8"
     inkscape:window-y="-8"
     inkscape:window-maximized="1" />
  <metadata
     id="metadata7">
    <rdf:RDF>
      <cc:Work
         rdf:about="">
        <dc:format>image/svg+xml</dc:format>
        <dc:type
           rdf:resource="http://purl.org/dc/dcmitype/StillImage" />
        <dc:title />
      </cc:Work>
    </rdf:RDF>
  </metadata>
  <g
     inkscape:groupmode="layer"
     id="layer3"
     inkscape:label="Warstwa#1">
    <path
       style="font-size:medium;font-style:normal;font-variant:normal;font-weight:normal;font-stretch:normal;text-indent:0;text-align:start;text-decoration:none;line-height:normal;letter-spacing:normal;word-spacing:normal;text-transform:none;direction:ltr;block-progression:tb;writing-mode:lr-tb;text-anchor:start;baseline-shift:baseline;color:#000000;fill:#000000;fill-opacity:1;stroke:none;stroke-width:1.50000000000000000;marker:none;visibility:visible;display:inline;overflow:visible;enable-background:accumulate;font-family:Sans;-inkscape-font-specification:Sans"
       d="M 305.40625 15.53125 C 304.55003 15.561284 303.63857 15.772515 302.65625 16.125 C 300.03672 17.064952 296.97769 18.937438 293.90625 21.125 C 292.41666 22.185928 291.13566 23.330465 289.71875 24.46875 C 281.89362 27.516221 274.30235 32.72367 266.6875 36.53125 C 255.16671 42.291875 242.96218 48.002614 231.375 52.96875 C 230.02127 53.548946 229.1271 53.687333 228.84375 53.65625 C 228.82014 53.65366 228.82503 53.657727 228.8125 53.65625 C 228.81502 53.666205 228.79426 53.669186 228.8125 53.53125 C 228.8581 53.186406 229.18336 52.446219 229.6875 51.59375 C 230.19164 50.741281 230.87741 49.760609 231.65625 48.71875 C 233.21393 46.635033 235.11029 44.364973 236.59375 42.59375 C 237.33548 41.708138 237.96073 40.943001 238.40625 40.375 C 238.62901 40.090999 238.80784 39.858462 238.9375 39.65625 C 239.0023 39.555144 239.07157 39.479391 239.125 39.34375 C 239.1517 39.27593 239.1806 39.185701 239.1875 39.03125 C 239.1945 38.876799 239.1278 38.564618 238.875 38.375 C 238.5393 38.123211 238.35963 38.204651 238.21875 38.21875 C 238.07787 38.23285 237.94518 38.24418 237.8125 38.28125 C 237.54714 38.35538 237.25213 38.474484 236.875 38.625 C 236.12073 38.926032 235.1004 39.381734 233.90625 39.9375 C 231.51795 41.049031 228.38449 42.577755 225.1875 44.125 C 221.99051 45.672245 218.73892 47.234295 216.09375 48.40625 C 215.32936 48.744917 214.76734 48.956001 214.125 49.21875 C 214.91996 48.739508 215.79842 48.295354 216.3125 47.78125 C 217.02934 47.064384 220.24095 43.820561 222.3125 41.03125 C 222.83039 40.333922 223.30145 39.684243 223.625 39.0625 C 223.94855 38.440757 224.18152 37.856966 224.125 37.21875 C 224.0967 36.899642 223.95581 36.557661 223.6875 36.3125 C 223.41919 36.067339 223.061 35.945378 222.71875 35.90625 C 222.03426 35.82799 221.26861 35.98337 220.1875 36.34375 C 217.64825 37.1902 215.27834 37.720084 212.90625 38.3125 C 213.56826 36.955037 214.00309 35.671744 214.125 34.5 C 216.62612 34.214852 219.1012 33.955037 221.625 33.65625 C 222.27335 33.2925 221.85365 32.136836 221.125 32.28125 C 218.78536 32.533168 216.43766 32.769901 214.09375 33 C 214.06385 32.805227 214.02181 32.622683 213.96875 32.4375 C 213.36489 30.330131 211.71758 28.823073 209.8125 27.625 C 207.90742 26.426927 205.69105 25.51054 203.78125 24.65625 C 203.46295 24.513868 203.39204 24.39166 203.09375 24.25 C 203.16295 24.086853 203.24846 23.945691 203.3125 23.78125 C 203.78669 22.563676 204.14038 21.331425 204.09375 20.15625 C 204.04715 18.981075 203.51265 17.820119 202.40625 17.15625 C 201.63644 16.694348 200.7385 16.726345 200.0625 17.09375 C 199.3865 17.461155 198.89573 18.060341 198.53125 18.75 C 198.16677 19.439659 197.94895 20.231137 197.90625 21 C 197.86355 21.768863 197.98665 22.540247 198.5 23.15625 C 199.10537 23.882721 200.01473 24.46927 201.03125 25 C 200.22483 26.555419 199.34042 28.014832 198.8125 28.71875 C 197.06405 31.050105 194.91703 33.016284 192.5 34.75 C 176.65375 35.742429 160.77439 36.01829 144.9375 35.21875 C 144.93274 35.212229 144.90631 35.187542 144.90625 35.1875 C 144.90569 35.187091 144.56335 35.062637 144.5625 35.0625 C 144.56165 35.062363 144.39569 35.0564 144.34375 35.0625 C 144.29185 35.0686 144.2806 35.08508 144.25 35.09375 C 144.1886 35.11108 144.1534 35.1117 144.125 35.125 C 144.08134 35.145458 144.08665 35.170813 144.0625 35.1875 C 139.19222 34.929218 134.3256 34.571121 129.46875 34.09375 C 130.04492 33.750417 130.6064 33.411171 131.1875 33.0625 C 131.2927 32.99937 132.37916 32.426744 133.71875 31.75 C 135.05834 31.073256 136.72939 30.214134 138.3125 29.3125 C 139.89561 28.410866 141.38925 27.490973 142.40625 26.625 C 142.91475 26.192013 143.32 25.785366 143.5625 25.28125 C 143.68375 25.029192 143.74269 24.73903 143.6875 24.40625 C 143.6323 24.07347 143.43979 23.751721 143.1875 23.5625 C 142.72889 23.218531 142.19842 23.018012 141.625 22.9375 C 141.05158 22.85699 140.4155 22.91105 139.78125 23.03125 C 138.51274 23.271643 137.13197 23.851028 135.625 24.65625 C 132.61107 26.266695 129.1609 28.803283 125.78125 31.625 C 125.10674 32.188156 124.45918 32.740131 123.8125 33.3125 C 121.5173 33.310652 119.51353 34.180999 122.375 34.625 C 120.92203 35.957055 119.52332 37.292984 118.1875 38.59375 C 116.976 39.145772 115.82563 39.743412 114.625 40.34375 C 110.84236 42.235143 106.95857 43.830247 103.15625 46.25 C 98.451981 49.243747 95.101862 52.632645 90.0625 54.3125 C 89.323805 54.558742 88.926569 54.488572 88.78125 54.40625 C 88.635931 54.32393 88.515763 54.152791 88.46875 53.6875 C 88.37472 52.756917 88.814631 50.976815 89.5625 49.21875 C 90.310369 47.460685 91.34891 45.690488 92.28125 44.5 C 92.74742 43.904756 93.199931 43.446284 93.5 43.25 C 93.635031 43.16167 93.691933 43.131564 93.71875 43.125 C 93.73004 43.1283 93.75341 43.124576 93.75 43.125 A 0.750075 0.750075 0 0 0 94.625 41.9375 C 94.336775 41.693565 93.936914 41.582356 93.59375 41.625 C 93.250586 41.66764 92.960026 41.821733 92.6875 42 C 92.574539 42.073891 92.455134 42.16105 92.34375 42.25 C 92.31572 42.217344 92.281787 42.182832 92.25 42.15625 C 92.038088 41.979036 91.833355 41.954593 91.65625 41.9375 C 90.94783 41.86913 90.353073 42.136185 89.59375 42.46875 C 88.834427 42.801315 88.002526 43.246328 87.28125 43.71875 C 86.819303 44.021317 86.524665 44.366361 86.1875 44.6875 C 86.1821 44.6927 86.16164 44.6823 86.15625 44.6875 C 85.635486 45.032565 85.066502 45.506452 84.4375 46.0625 C 84.115705 46.346972 83.746509 46.768467 83.40625 47.09375 C 82.473133 46.196353 81.157016 45.828672 79.75 45.71875 C 78.317192 45.606813 76.761154 45.74029 75.28125 45.875 C 73.801346 46.009713 72.395139 46.170117 71.375 46.15625 C 70.86493 46.149317 70.463299 46.07869 70.21875 46 C 69.974201 45.92131 69.948413 45.869215 69.9375 45.84375 C 69.669288 45.217897 69.89754 44.505295 70.3125 43.625 C 70.727458 42.744705 71.34375 41.843558 71.34375 40.71875 C 71.34375 40.71863 70.75007 39.968764 70.75 39.96875 C 70.74993 39.968736 70.18764 40.093659 70.1875 40.09375 C 70.18736 40.093841 70.09396 40.15605 70.09375 40.15625 C 70.09354 40.156446 70.03981 40.20956 70.03125 40.21875 C 69.99701 40.25552 70.00797 40.2398 70 40.25 C 69.98405 40.2704 69.97938 40.29794 69.96875 40.3125 C 69.94748 40.34162 69.90866 40.35953 69.875 40.40625 C 69.80768 40.49968 69.719063 40.644639 69.59375 40.8125 C 69.343125 41.148223 68.972893 41.606988 68.53125 42.125 C 67.647965 43.161023 66.442211 44.391556 65.21875 45.15625 C 64.510541 45.598899 63.325671 46.586311 61.78125 47.875 C 60.236829 49.163689 58.379508 50.755642 56.5625 52.25 C 54.745492 53.744358 52.964965 55.139138 51.5625 56.125 C 50.861267 56.617931 50.2472 57.030759 49.8125 57.25 C 49.72256 57.29536 49.69756 57.3132 49.625 57.34375 C 49.64105 57.25262 49.6195 57.210471 49.65625 57.09375 C 49.804853 56.621521 50.09863 56.059346 50.25 55.71875 C 54.243256 46.733559 60.891548 42.288568 69 35.53125 C 69.08729 35.4585 69.106047 35.45153 69.1875 35.375 C 69.26895 35.29847 69.394788 35.191219 69.53125 35.0625 C 69.804175 34.805062 70.180676 34.445193 70.625 34.03125 C 71.026018 33.657652 71.57636 33.161908 72.0625 32.71875 C 72.66083 32.335489 74.118292 31.566155 75.53125 30.71875 C 76.282182 30.268387 76.996012 29.780905 77.5625 29.3125 C 77.845744 29.078298 78.11217 28.855965 78.3125 28.59375 C 78.51283 28.331535 78.6875 28.041481 78.6875 27.625 C 78.6875 27.350903 78.480473 26.873607 78.125 26.71875 C 77.769527 26.563893 77.519238 26.6541 77.3125 26.71875 C 76.899023 26.848048 76.519759 27.061038 76.0625 27.375 C 75.147982 28.002924 74.013142 28.979603 72.84375 30 C 72.259054 30.510199 71.769842 30.967871 71.21875 31.46875 C 71.16911 31.50117 71.044338 31.56305 71 31.59375 C 58.525274 40.23045 43.404733 45.96923 29.65625 52.84375 C 28.611705 53.366044 26.704123 54.535909 24.78125 55.4375 C 23.819814 55.888295 22.852247 56.289677 22.0625 56.46875 C 21.57639 56.578974 21.360667 56.47155 21.0625 56.4375 C 21.402992 55.998096 21.944057 55.412494 22.6875 54.6875 C 24.2712 53.1431 26.585862 51.10054 29 49.0625 C 31.414138 47.02446 33.945188 44.972273 35.96875 43.3125 C 37.992312 41.652727 39.435534 40.470738 39.96875 39.9375 C 40.606498 39.299726 42.77318 37.398598 45.59375 35 C 47.608443 33.286716 50.155892 31.21297 52.625 29.21875 C 55.11624 27.780415 57.216555 26.593556 60.6875 24.5 C 63.364884 22.885093 65.922849 21.296095 67.78125 20.03125 C 68.710451 19.398827 69.447617 18.855455 69.96875 18.40625 C 70.229317 18.181647 70.427381 17.978796 70.59375 17.75 C 70.67694 17.635602 70.763013 17.525043 70.8125 17.3125 C 70.86199 17.099957 70.813318 16.719577 70.59375 16.5 C 70.219567 16.125802 69.739387 16.073017 69.3125 16.125 C 68.885613 16.17698 68.434415 16.321179 67.9375 16.53125 C 66.943669 16.951391 65.741619 17.662155 64.34375 18.5625 C 61.548012 20.363191 58.023599 22.978608 54.5 25.75 C 53.55038 26.496898 52.781276 27.181331 51.84375 27.9375 C 50.503626 28.711207 47.959162 30.200895 47.5 30.46875 C 34.420266 38.098905 21.101982 42.218954 7.4375 49.1875 A 0.75470529 0.75470529 0 0 0 8.125 50.53125 C 20.611975 44.163204 32.932392 40.037572 45.1875 33.375 C 45.020526 33.516442 44.787483 33.705576 44.625 33.84375 C 41.791575 36.253279 39.663369 38.11785 38.90625 38.875 C 38.600038 39.181225 37.022567 40.497293 35 42.15625 C 32.977433 43.815207 30.457348 45.889363 28.03125 47.9375 C 25.605152 49.985637 23.294303 51.996345 21.65625 53.59375 C 20.837223 54.392452 20.175647 55.083837 19.75 55.65625 C 19.537177 55.942456 19.382706 56.18697 19.28125 56.5 C 19.23052 56.656515 19.173468 56.85592 19.21875 57.09375 C 19.26403 57.33158 19.443661 57.591191 19.65625 57.71875 C 20.459412 58.200667 21.438547 58.125674 22.40625 57.90625 C 23.373953 57.686826 24.390627 57.288702 25.40625 56.8125 C 27.437496 55.860095 29.437824 54.624856 30.3125 54.1875 C 41.520472 48.583287 53.705315 43.61312 64.75 37.1875 C 58.217198 42.496106 52.420393 47.147542 48.875 55.125 C 48.77787 55.343545 48.425759 55.96717 48.21875 56.625 C 48.115246 56.953915 48.039734 57.298921 48.0625 57.6875 C 48.08527 58.076079 48.324836 58.615534 48.78125 58.84375 C 49.142887 59.024576 49.425786 58.94115 49.6875 58.875 C 49.949214 58.80885 50.223122 58.702143 50.5 58.5625 C 51.053755 58.283213 51.67311 57.89036 52.40625 57.375 C 53.872529 56.34428 55.702247 54.910473 57.53125 53.40625 C 59.360253 51.902027 61.213009 50.313739 62.75 49.03125 C 64.286991 47.748761 65.533265 46.729222 66 46.4375 C 67.007176 45.807989 67.779044 44.941808 68.5625 44.125 C 68.339016 44.858729 68.211953 45.619524 68.5625 46.4375 C 68.788023 46.963742 69.264739 47.281355 69.75 47.4375 C 70.235261 47.593645 70.785137 47.648232 71.375 47.65625 C 72.554725 47.67229 73.945309 47.507987 75.40625 47.375 C 76.867191 47.242013 78.393247 47.120079 79.65625 47.21875 C 80.906395 47.31642 81.842069 47.636688 82.375 48.15625 C 81.714088 48.829433 81.077748 49.402973 80.4375 50.125 C 79.116032 51.615261 77.913199 53.122798 77.125 54.34375 C 76.730901 54.954226 76.408731 55.499808 76.25 56 C 76.17064 56.250096 76.13658 56.500108 76.1875 56.8125 C 76.23842 57.124892 76.509085 57.499495 76.84375 57.625 C 77.507306 57.873844 78.224926 57.759462 78.90625 57.5 C 79.587574 57.240538 80.276862 56.815474 81 56.28125 C 82.446276 55.212802 83.997514 53.690672 85.5 52.0625 C 86.349326 51.142126 87.163414 50.201878 87.9375 49.28125 C 87.278769 50.935492 86.835569 52.525634 86.96875 53.84375 C 87.04367 54.58519 87.384695 55.334778 88.0625 55.71875 C 88.740305 56.102722 89.576361 56.037059 90.53125 55.71875 C 95.94514 53.914047 99.426885 50.421645 103.96875 47.53125 C 107.53431 45.262166 111.23366 43.695218 114.96875 41.84375 C 113.27092 43.62809 111.47883 45.473348 110.8125 46.40625 C 110.39888 46.985337 109.17722 48.282548 108.1875 49.625 C 107.69264 50.296226 107.24543 50.998642 106.96875 51.71875 C 106.69207 52.438858 106.57165 53.237128 106.9375 53.96875 C 107.14466 54.383089 107.57338 54.66771 107.96875 54.78125 C 108.36412 54.89479 108.74517 54.89573 109.15625 54.84375 C 109.9784 54.739791 110.88486 54.413374 111.78125 54.03125 C 113.57402 53.267003 115.24463 52.279315 115.90625 51.75 C 116.82566 51.014445 119.12477 49.899983 121.9375 48.6875 C 124.75023 47.475017 128.11643 46.119367 131.40625 44.71875 C 132.02623 44.454796 132.48427 44.173043 133.09375 43.90625 C 132.49528 44.484647 131.91632 44.962851 131.34375 45.5625 C 129.73101 47.251508 128.30402 48.952402 127.5 50.4375 C 127.09799 51.180049 126.81516 51.876146 126.84375 52.59375 C 126.87235 53.311354 127.39035 54.005745 128.125 54.28125 C 131.14771 55.414813 133.97694 54.636639 136.46875 53.375 C 138.96056 52.113361 141.21254 50.400017 143.3125 49.5 C 143.3739 49.47369 144.2968 49.078249 144.875 48.84375 C 144.74321 50.908027 144.8949 52.939418 145.71875 54.3125 C 145.90367 54.620713 146.17628 54.689364 146.34375 54.71875 C 146.51122 54.74814 146.64568 54.76261 146.78125 54.75 C 147.05238 54.72478 147.3378 54.65596 147.6875 54.5625 C 148.3869 54.375586 149.32282 54.055397 150.40625 53.65625 C 152.57311 52.857956 155.36817 51.697544 158.1875 50.5 C 161.00683 49.302456 163.8417 48.063668 166 47.09375 C 167.07915 46.608791 167.98863 46.185834 168.65625 45.875 C 168.99006 45.719583 169.26549 45.598806 169.46875 45.5 C 169.67201 45.40119 169.74086 45.389611 169.90625 45.28125 A 0.750075 0.750075 0 1 0 169.09375 44.03125 C 169.17615 43.97729 169.00295 44.06365 168.8125 44.15625 C 168.62201 44.24885 168.3604 44.378003 168.03125 44.53125 C 167.37295 44.837743 166.44959 45.267089 165.375 45.75 C 163.22581 46.715823 160.40103 47.932574 157.59375 49.125 C 154.78647 50.317426 151.99758 51.468018 149.875 52.25 C 148.81371 52.640991 147.92547 52.929935 147.3125 53.09375 C 147.12308 53.14437 147.03139 53.16414 146.90625 53.1875 C 146.37875 52.08329 146.23383 50.155862 146.4375 48.1875 C 147.98214 47.524344 149.83567 46.71856 151.34375 45.875 C 152.11722 45.442355 152.7778 44.999533 153.3125 44.5625 C 153.8472 44.125467 154.34468 43.7327 154.40625 43 C 154.43705 42.63365 154.2638 42.216297 154 41.96875 C 153.7362 41.721203 153.39828 41.576924 153.03125 41.46875 C 152.29718 41.252401 151.31039 41.151408 149.875 41.15625 C 148.52453 41.16085 147.40514 41.894404 146.625 42.90625 C 145.84486 43.918096 145.3302 45.209786 145.03125 46.59375 C 144.98895 46.789663 145.0352 46.989094 145 47.1875 C 143.99172 47.605064 142.94918 48.026237 142.71875 48.125 C 140.35945 49.136171 138.10553 50.854436 135.78125 52.03125 C 133.45697 53.208064 131.18368 53.822825 128.65625 52.875 C 128.34237 52.757291 128.35348 52.77557 128.34375 52.53125 C 128.33375 52.286929 128.47631 51.777229 128.8125 51.15625 C 129.48489 49.914291 130.86982 48.235563 132.4375 46.59375 C 134.00518 44.951937 135.75887 43.31602 137.25 42.03125 C 137.41163 41.891992 137.43738 41.912629 137.59375 41.78125 C 138.48632 41.335825 139.60093 40.881166 140.375 40.4375 C 141.62027 39.723758 142.70526 39.030184 143.53125 38.3125 C 143.94424 37.953658 144.30997 37.599023 144.59375 37.21875 C 151.73184 37.701193 158.99924 37.933533 165.6875 37.875 C 173.5867 37.868371 181.35031 37.497548 189.0625 36.9375 C 185.97729 38.747276 182.6234 40.332274 179.15625 41.84375 C 171.39615 45.226681 163.21656 48.355142 157 53.6875 A 0.750075 0.750075 0 1 0 157.96875 54.8125 C 163.90876 49.717352 171.94846 46.61977 179.75 43.21875 C 184.16618 41.29355 188.48992 39.256777 192.3125 36.6875 C 199.07318 36.144771 205.84585 35.455166 212.65625 34.6875 C 212.52974 35.853582 212.03221 37.218565 211.03125 38.84375 C 207.79822 39.694576 204.56247 40.705019 201.09375 42.65625 C 199.03995 43.811561 196.31417 46.262397 193.53125 48.4375 C 192.13979 49.525051 190.75488 50.555906 189.5 51.28125 C 188.25615 52.000222 187.13054 52.39908 186.375 52.40625 C 186.368 52.406314 186.35035 52.40625 186.34375 52.40625 C 186.30665 52.40975 186.24915 52.40285 186.21875 52.40625 C 186.19015 52.40945 186.1742 52.39735 186.125 52.40625 C 186.1004 52.41075 186.0734 52.41175 185.9375 52.46875 C 185.9035 52.48301 185.78149 52.56232 185.78125 52.5625 C 185.78113 52.56259 185.65632 52.687412 185.65625 52.6875 C 185.65618 52.687588 185.50002 53.031164 185.5 53.03125 C 185.49998 53.031336 185.5625 53.468667 185.5625 53.46875 C 185.56254 53.468833 185.74991 53.718669 185.75 53.71875 C 185.75009 53.718831 185.87485 53.81242 185.875 53.8125 C 185.87515 53.812579 185.96855 53.87492 185.96875 53.875 C 185.96955 53.875305 186.09762 53.90193 186.125 53.90625 C 186.1524 53.91055 186.1736 53.90505 186.1875 53.90625 C 186.2154 53.90865 186.2331 53.905677 186.25 53.90625 C 186.2839 53.90735 186.30475 53.90625 186.34375 53.90625 C 186.35375 53.90625 186.3653 53.906319 186.375 53.90625 C 186.378 53.905794 186.40395 53.906145 186.40625 53.90625 C 186.47615 53.89905 186.647 53.86177 186.84375 53.84375 C 187.26484 53.80519 187.76242 53.77219 188.1875 53.65625 C 191.78852 52.674116 194.13073 50.217351 197.375 49.40625 C 202.76526 48.058633 208.76905 45.080991 212.03125 40.1875 C 212.05275 40.15519 212.0414 40.12595 212.0625 40.09375 C 214.80659 39.388139 217.58154 38.806194 220.65625 37.78125 C 221.63799 37.453991 222.30017 37.376259 222.5625 37.40625 C 222.6499 37.41625 222.6218 37.40505 222.625 37.40625 C 222.626 37.49835 222.538 37.850266 222.28125 38.34375 C 222.01687 38.85179 221.61376 39.498147 221.125 40.15625 C 219.16997 42.788661 215.96196 46.00676 215.25 46.71875 C 214.70956 47.259209 212.93687 48.278323 211.625 49.0625 C 210.96906 49.454588 210.44765 49.773616 210.0625 50.15625 C 209.9662 50.25191 209.86752 50.344979 209.78125 50.53125 C 209.69495 50.717521 209.6568 51.09442 209.84375 51.375 C 210.0307 51.65558 210.27096 51.74091 210.4375 51.78125 C 210.60404 51.82159 210.74161 51.8125 210.90625 51.8125 C 211.54792 51.8125 212.2189 51.574028 213.1875 51.21875 C 214.1561 50.863472 215.34803 50.374707 216.6875 49.78125 C 219.36643 48.594337 222.64307 47.017782 225.84375 45.46875 C 229.04443 43.919718 232.16624 42.413195 234.53125 41.3125 C 235.3037 40.952997 235.82353 40.721356 236.40625 40.46875 C 236.08771 40.855006 235.83428 41.151254 235.4375 41.625 C 233.95562 43.394335 232.03376 45.677171 230.4375 47.8125 C 229.63937 48.880165 228.92379 49.915794 228.375 50.84375 C 227.82621 51.771706 227.4462 52.569749 227.34375 53.34375 C 227.29255 53.730751 227.30915 54.15529 227.5625 54.53125 C 227.8159 54.90721 228.2604 55.109398 228.6875 55.15625 C 229.54169 55.24995 230.51851 54.965307 231.96875 54.34375 C 243.58705 49.364276 255.79774 43.648237 267.34375 37.875 C 273.38863 34.852434 279.34265 31.026464 285.25 28.0625 C 282.79348 30.242096 280.91968 32.09255 280.09375 33.125 C 279.9711 33.278323 279.40467 33.784505 278.625 34.40625 C 277.84533 35.027995 276.83096 35.817602 275.65625 36.6875 C 273.30682 38.427295 270.35304 40.524398 267.5 42.625 C 264.64696 44.725602 261.90675 46.807287 259.9375 48.46875 C 258.95288 49.299482 258.15688 50.015225 257.625 50.625 C 257.35906 50.929888 257.14141 51.216874 257 51.53125 C 256.9293 51.688438 256.87454 51.866982 256.875 52.09375 C 256.87546 52.320518 256.9691 52.594107 257.15625 52.78125 C 257.61931 53.244326 258.25666 53.331301 258.875 53.3125 C 259.49334 53.2937 260.17042 53.146182 260.9375 52.9375 C 262.47167 52.520136 264.28569 51.80523 266.125 51 C 267.48863 50.403018 268.01079 50.100904 269.25 49.5 C 269.1277 49.72727 268.94793 49.952086 268.875 50.1875 C 268.69773 50.759683 268.70566 51.433462 269.0625 51.96875 C 269.71431 52.94651 270.91021 53.197449 272.0625 53.09375 C 273.21479 52.990051 274.44096 52.590769 275.6875 52.09375 C 276.93404 51.596731 278.17822 50.990529 279.21875 50.5 C 280.25928 50.009471 281.17872 49.635521 281.5 49.5625 C 284.7068 48.833652 287.83822 47.680142 290.96875 46.375 C 290.35167 47.130013 289.82153 47.926819 289.5625 48.75 C 289.30347 49.573181 289.36376 50.551233 290.03125 51.21875 C 290.59031 51.777835 291.39426 51.957028 292.1875 51.90625 C 292.98074 51.85547 293.82558 51.614846 294.75 51.25 C 296.59883 50.520308 298.73763 49.290942 300.84375 47.96875 C 302.94987 46.646558 305.02272 45.208073 306.71875 44.09375 C 307.56676 43.536588 308.3064 43.06615 308.90625 42.71875 C 308.98295 42.67434 308.98985 42.69595 309.0625 42.65625 C 308.9823 42.943933 308.88565 43.236945 309 43.65625 C 309.21538 44.446 309.82388 45.013591 310.46875 45.53125 C 311.11362 46.048909 311.81501 46.469426 312.5 46.65625 C 315.41452 47.451153 319.85922 47.454854 323.125 46.75 C 322.67503 47.263802 322.06597 47.710451 321.71875 48.25 C 320.8116 49.65965 320.27515 51.147256 320.5625 52.59375 A 0.750075 0.750075 0 0 0 321.0625 53.15625 C 322.66695 53.717569 324.81237 53.343835 327.3125 52.625 C 329.68428 51.943067 332.33162 50.872334 334.8125 49.71875 C 334.7262 49.843253 334.54463 49.970684 334.46875 50.09375 C 334.11551 50.666678 333.85677 51.224368 333.84375 51.84375 C 333.83075 52.463132 334.18797 53.113881 334.78125 53.4375 C 336.04728 54.12809 337.65726 54.041427 339.40625 53.6875 C 341.15539 53.333573 343.08757 52.660273 345 52 C 346.91243 51.339727 348.79357 50.690382 350.40625 50.28125 C 351.02322 50.124727 351.26886 50.24929 351.78125 50.1875 C 351.51263 50.336803 351.23056 50.49472 351 50.625 C 350.79639 50.740051 350.6173 50.844963 350.46875 50.9375 C 350.3202 51.03004 350.25682 50.99928 350.03125 51.28125 C 350.04265 51.26697 349.47435 51.767789 348.84375 52.21875 C 348.21315 52.669711 347.44674 53.184859 346.71875 53.65625 C 346.21572 53.981975 345.85327 54.204354 345.46875 54.4375 C 345.12734 54.631879 344.70231 54.714973 344.40625 54.96875 C 344.32415 55.03912 344.31035 55.01656 344.15625 55.28125 C 344.13695 55.31434 344.0848 55.34153 344.0625 55.40625 C 344.0513 55.43861 344.0705 55.48394 344.0625 55.53125 C 344.0545 55.57856 344.03115 55.686772 344.03125 55.6875 C 344.03129 55.688228 344.09355 55.936897 344.09375 55.9375 C 344.09397 55.938103 344.21834 56.155771 344.21875 56.15625 C 344.21916 56.156729 344.40566 56.312145 344.40625 56.3125 C 344.40684 56.312855 344.51166 56.35966 344.5625 56.375 C 344.96918 56.497747 344.99842 56.39601 345.0625 56.375 C 345.31881 56.29094 345.42657 56.225391 345.65625 56.09375 C 345.86261 55.975471 346.2174 55.736713 346.5 55.5625 C 347.70082 54.975522 349.22989 54.573235 350.96875 54.3125 C 353.24686 53.970907 355.60509 53.759991 357.375 52.875 C 358.40388 52.360541 360.57171 51.366491 362.375 50.84375 C 363.27664 50.58238 364.10362 50.463577 364.5625 50.5 C 364.74782 50.51471 364.80397 50.54246 364.84375 50.5625 C 364.79155 50.62019 364.74775 50.664926 364.65625 50.75 C 364.38163 51.005223 363.94566 51.339918 363.4375 51.71875 C 362.42117 52.476413 361.07641 53.398509 359.8125 54.21875 C 359.33187 54.530663 359.05897 54.695332 358.625 54.96875 C 357.87174 55.395918 357.07829 55.822789 356.4375 56.25 C 356.26024 56.368179 356.15206 56.433718 356.0625 56.5 C 356.0177 56.53314 355.9989 56.56079 355.90625 56.65625 C 355.88305 56.68011 355.83605 56.69098 355.78125 56.78125 C 355.75385 56.82639 355.6876 57.030697 355.6875 57.03125 C 355.68738 57.031803 355.81226 57.624668 355.8125 57.625 C 355.81274 57.625332 356.28067 57.906137 356.28125 57.90625 C 356.28183 57.906363 356.48341 57.9429 356.53125 57.9375 C 356.62695 57.9267 356.65748 57.88496 356.6875 57.875 C 356.92765 57.79532 356.91599 57.78347 357.03125 57.71875 C 357.14651 57.65403 357.29163 57.574124 357.46875 57.46875 C 357.83866 57.248672 358.54856 56.798057 359.125 56.4375 C 360.60547 55.582134 362.18402 54.751007 363.75 54.34375 C 364.86336 54.054203 365.93105 53.960222 366.84375 54.125 C 367.75645 54.289778 368.50142 54.682926 369.15625 55.46875 C 369.1553 55.46765 369.189 55.47907 369.1875 55.59375 C 369.1865 55.708428 369.1513 55.911406 369.0625 56.15625 C 368.88489 56.645937 368.51712 57.283383 368.09375 57.9375 C 367.67038 58.591617 367.1883 59.261425 366.78125 59.84375 C 366.3742 60.426075 366.02695 60.886452 365.84375 61.375 C 364.54815 64.830067 366.28391 68.823987 366.96875 70.5625 A 0.750075 0.750075 0 0 0 367.15625 70.8125 C 368.15628 71.760039 369.70986 72.967241 371.4375 73.9375 C 373.16514 74.907759 375.05893 75.659952 376.875 75.59375 C 386.86672 75.229519 396.0949 72.571266 400.5625 68.5 C 402.7963 66.464367 403.82798 63.854 402.8125 61.25 C 401.79702 58.646 398.96968 56.164787 393.9375 53.75 C 392.32392 52.975696 390.07435 52.26936 387.875 51.75 C 385.67565 51.23064 383.60733 50.896866 382.21875 51.03125 A 0.75259966 0.75259966 0 1 0 382.34375 52.53125 C 383.31608 52.43715 385.41363 52.68744 387.53125 53.1875 C 389.64887 53.68756 391.86959 54.432591 393.3125 55.125 C 398.17559 57.458648 400.65714 59.811436 401.4375 61.8125 C 402.21786 63.813564 401.527 65.584796 399.5625 67.375 C 395.63354 70.955408 386.59326 73.738348 376.84375 74.09375 C 375.50978 74.14238 373.7535 73.52203 372.15625 72.625 C 370.60973 71.756461 369.21658 70.653754 368.3125 69.8125 C 367.60082 67.997231 366.28424 64.450462 367.25 61.875 C 367.2838 61.78472 367.60278 61.287006 368 60.71875 C 368.39722 60.150494 368.89234 59.478684 369.34375 58.78125 C 369.79516 58.083816 370.21775 57.3483 370.46875 56.65625 C 370.59425 56.310225 370.68303 55.989215 370.6875 55.625 C 370.6915 55.260785 370.58058 54.852964 370.3125 54.53125 C 369.43588 53.479265 368.29949 52.873933 367.09375 52.65625 C 366.2424 52.502548 365.35622 52.70226 364.46875 52.84375 C 364.94002 52.488517 365.37215 52.136825 365.6875 51.84375 C 365.86079 51.6827 365.99933 51.537735 366.125 51.375 C 366.25067 51.212265 366.40625 51.064589 366.40625 50.65625 C 366.40625 50.188763 366.19638 49.693016 365.84375 49.40625 C 365.49112 49.119484 365.06771 49.032659 364.65625 49 C 363.83332 48.93468 362.922 49.120863 361.9375 49.40625 C 359.96851 49.977025 357.81458 50.983311 356.71875 51.53125 C 355.37622 52.202541 353.07405 52.464018 350.75 52.8125 C 350.62405 52.83139 350.50114 52.85557 350.375 52.875 C 350.64625 52.667372 351.00251 52.449996 351.1875 52.21875 C 351.0216 52.426133 351.1368 52.28927 351.25 52.21875 C 351.36321 52.14823 351.5233 52.047943 351.71875 51.9375 C 352.10965 51.716614 352.60671 51.432902 353.09375 51.15625 C 353.58079 50.879598 354.05617 50.625434 354.40625 50.375 C 354.58129 50.249783 354.71621 50.143078 354.875 49.9375 C 354.9544 49.834711 355.107 49.67757 355.09375 49.34375 C 355.08045 49.00993 354.75619 48.699657 354.5625 48.625 C 353.303 48.139542 351.75116 48.376165 350.03125 48.8125 C 348.31134 49.248835 346.40277 49.936813 344.5 50.59375 C 342.59723 51.250687 340.70183 51.893337 339.09375 52.21875 C 337.48567 52.544163 336.19215 52.502551 335.5 52.125 C 335.29249 52.011807 335.34017 52.04517 335.34375 51.875 C 335.34775 51.704831 335.47204 51.325827 335.75 50.875 C 336.30591 49.973346 337.39889 48.800543 338.625 47.6875 C 339.73276 47.075064 341.07808 46.427158 341.90625 45.875 C 342.74984 45.312557 343.41474 44.813142 343.875 44.34375 C 344.10513 44.109054 344.27751 43.893752 344.40625 43.59375 C 344.47065 43.443749 344.51703 43.251644 344.5 43.03125 C 344.483 42.810856 344.37713 42.564642 344.21875 42.40625 C 343.98756 42.175059 343.73928 42.182919 343.625 42.1875 C 343.51072 42.1921 343.45719 42.2032 343.40625 42.21875 C 343.30438 42.24984 343.25624 42.27817 343.1875 42.3125 C 343.05002 42.38115 342.89609 42.482166 342.71875 42.59375 C 342.36408 42.816917 341.88473 43.136239 341.34375 43.53125 C 340.30692 44.288325 339.01302 45.33205 337.78125 46.4375 C 336.69106 47.037138 335.84467 47.596274 334.59375 48.1875 C 332.05328 49.388206 329.29009 50.502099 326.90625 51.1875 C 324.80309 51.7922 323.10061 51.957371 322.0625 51.78125 C 322.0665 50.98438 322.35289 50.068061 323 49.0625 C 323.58594 48.151984 324.53263 47.261462 325.46875 46.40625 C 326.03253 46.295849 326.55306 46.206361 327.53125 46.0625 C 328.93965 45.855368 330.59307 45.607002 332.03125 45.3125 C 333.46943 45.017998 334.65018 44.780957 335.4375 44.125 C 335.63433 43.961011 335.8204 43.72435 335.90625 43.40625 C 335.99205 43.08815 335.91125 42.723781 335.75 42.46875 C 335.42692 41.958687 334.94338 41.716817 334.21875 41.40625 C 332.98302 40.87663 331.49515 41.086124 329.96875 41.65625 C 328.44235 42.226376 326.86009 43.194718 325.40625 44.34375 C 325.14903 44.547044 324.99657 44.816255 324.75 45.03125 C 324.57444 45.07233 324.23406 45.10948 324.09375 45.15625 C 321.4372 46.0418 315.75972 46.005526 312.875 45.21875 C 312.53882 45.12706 311.92061 44.787893 311.40625 44.375 C 310.89189 43.962107 310.50995 43.43233 310.46875 43.28125 C 310.46727 43.238526 310.47465 43.15349 310.5 43.0625 C 310.5507 42.880523 310.66398 42.642196 310.75 42.40625 C 310.836 42.170304 310.92807 41.95492 310.9375 41.59375 C 310.9425 41.413165 310.9063 41.113637 310.625 40.875 C 310.34365 40.636363 310.0113 40.647739 309.8125 40.6875 C 309.2925 40.791503 308.80345 41.031425 308.15625 41.40625 C 307.50905 41.781075 306.7636 42.280453 305.90625 42.84375 C 304.19155 43.970343 302.10387 45.38634 300.03125 46.6875 C 297.95863 47.98866 295.89632 49.181651 294.21875 49.84375 C 293.37996 50.1748 292.63431 50.371647 292.09375 50.40625 C 291.55319 50.44085 291.26154 50.32405 291.09375 50.15625 C 290.86791 49.930399 290.83717 49.704825 291 49.1875 C 291.16278 48.670175 291.57937 48.011335 292.125 47.34375 C 293.21626 46.00858 294.84336 44.681475 295.59375 44.28125 C 301.62139 41.393798 307.49268 38.035023 313.125 35.21875 C 317.14194 33.2102 321.33886 31.030021 325.34375 29.25 C 326.07351 28.92565 327.72519 28.460517 329 27.96875 C 329.6374 27.722867 330.19228 27.511 330.625 27.09375 C 330.84136 26.885125 331.06987 26.539198 331 26.09375 C 330.9301 25.648302 330.63984 25.36516 330.34375 25.1875 C 330.10978 25.047115 329.95078 25.039496 329.8125 25.03125 C 329.67422 25.02305 329.53852 25.05095 329.40625 25.0625 C 329.14171 25.08559 328.8773 25.13673 328.59375 25.1875 C 328.02664 25.28904 327.33783 25.375 327.3125 25.375 C 320.89538 25.375 315.26903 28.515922 310 32.25 C 304.76432 35.960444 299.86582 40.289456 295 42.90625 C 294.9663 42.92239 294.93985 42.95264 294.90625 42.96875 C 290.369 45.140143 285.76731 47.045738 281.15625 48.09375 C 280.46399 48.251089 279.64056 48.66276 278.59375 49.15625 C 277.54694 49.64974 276.33837 50.216165 275.15625 50.6875 C 273.97413 51.158835 272.79149 51.514084 271.90625 51.59375 C 271.02101 51.67342 270.57462 51.51819 270.3125 51.125 C 270.2439 51.022123 270.2212 50.919657 270.3125 50.625 C 270.4038 50.330343 270.63669 49.931649 271 49.46875 C 271.38487 48.978376 272.12013 48.395353 272.71875 47.84375 C 273.16836 47.619152 274.3465 47.068448 274.5625 46.96875 C 276.70692 45.978977 278.6684 44.206656 280.21875 42.65625 C 280.17495 42.70002 280.45784 42.470053 280.65625 42.34375 C 280.75545 42.2806 280.82327 42.24623 280.9375 42.15625 C 280.9661 42.13376 280.9862 42.12328 281.0625 42.03125 C 281.0816 42.00824 281.0976 41.98342 281.125 41.9375 C 281.1387 41.91454 281.1873 41.8442 281.1875 41.84375 C 281.1877 41.8433 281.21875 41.719149 281.21875 41.71875 C 281.21884 41.718351 281.2501 41.531597 281.25 41.53125 C 281.24999 41.530903 281.1876 41.281545 281.1875 41.28125 C 281.18738 41.280955 281.03148 41.031492 281.03125 41.03125 C 281.03102 41.031008 280.84408 40.906438 280.84375 40.90625 C 280.84342 40.906062 280.68795 40.81263 280.6875 40.8125 C 280.68705 40.812366 280.62535 40.8169 280.59375 40.8125 C 280.53055 40.8036 280.47188 40.77976 280.4375 40.78125 C 280.3687 40.78425 280.3425 40.80616 280.3125 40.8125 C 280.2524 40.82518 280.2209 40.83263 280.1875 40.84375 C 279.55567 41.054368 278.61592 41.597598 277.375 42.375 C 276.13408 43.152402 274.68192 44.14359 273.3125 45.21875 C 272.74723 45.662559 272.38458 46.136077 271.875 46.59375 C 270.20006 47.430093 268.25318 48.43337 265.53125 49.625 C 263.72659 50.415059 261.93194 51.118948 260.53125 51.5 C 259.8309 51.690526 259.23503 51.799653 258.8125 51.8125 C 258.67889 51.8166 258.71117 51.79348 258.625 51.78125 C 258.6761 51.71415 258.6811 51.70398 258.75 51.625 C 259.18055 51.131394 259.94983 50.431933 260.90625 49.625 C 262.81908 48.011133 265.5623 45.937653 268.40625 43.84375 C 271.2502 41.749847 274.19937 39.624938 276.5625 37.875 C 277.74406 37.000031 278.75688 36.236189 279.5625 35.59375 C 280.36812 34.951311 280.93952 34.489684 281.28125 34.0625 C 281.95464 33.220728 283.83662 31.323054 286.28125 29.15625 C 287.49862 28.077234 289.06964 26.934408 290.5 25.78125 C 291.07481 25.56065 291.6438 25.254157 292.21875 25.0625 A 0.750075 0.750075 0 0 0 292.3125 25 C 292.66006 24.826034 294.04929 24.360752 295.71875 23.8125 C 297.38821 23.264248 299.41748 22.61564 301.375 21.9375 C 303.33252 21.25936 305.18837 20.556367 306.5625 19.90625 C 307.24957 19.581192 307.82554 19.275549 308.25 18.9375 C 308.46223 18.768476 308.63709 18.603096 308.78125 18.34375 C 308.92541 18.084404 309.01225 17.649514 308.84375 17.3125 C 308.33075 16.286466 307.33411 15.690624 306.25 15.5625 C 305.97897 15.530469 305.69166 15.521239 305.40625 15.53125 z M 305.46875 17.03125 C 305.68208 17.018592 305.88439 17.0102 306.0625 17.03125 C 306.65622 17.10142 307.02844 17.339878 307.3125 17.75 C 307.06419 17.947762 306.57258 18.230787 305.9375 18.53125 C 304.66734 19.132176 302.81111 19.829278 300.875 20.5 C 298.93889 21.170722 296.92599 21.824603 295.25 22.375 C 294.82892 22.513282 294.709 22.566245 294.34375 22.6875 C 294.48604 22.584732 294.60767 22.476368 294.75 22.375 C 297.76327 20.228872 300.78765 18.412412 303.15625 17.5625 C 304.04448 17.243783 304.82875 17.069224 305.46875 17.03125 z M 201.1875 18.28125 C 201.32267 18.282668 201.475 18.328743 201.65625 18.4375 C 202.31742 18.834215 202.5605 19.349692 202.59375 20.1875 C 202.62705 21.025308 202.36848 22.112117 201.9375 23.21875 C 201.9008 23.3131 201.8515 23.405458 201.8125 23.5 C 201.04457 23.066274 199.98467 22.612869 199.65625 22.21875 C 199.48062 22.007988 199.34623 21.580495 199.375 21.0625 C 199.4038 20.544505 199.57975 19.968283 199.84375 19.46875 C 200.10775 18.969217 200.47515 18.572612 200.78125 18.40625 C 200.9343 18.323069 201.05233 18.279832 201.1875 18.28125 z M 66.5625 19.03125 C 65.93344 19.454111 64.981473 20.01468 64.21875 20.5 C 64.495146 20.315588 64.893509 19.981728 65.15625 19.8125 C 65.720527 19.449058 66.072509 19.314947 66.5625 19.03125 z M 140.6875 24.4375 C 141.27166 24.419032 141.71407 24.54507 142.0625 24.75 C 141.95278 24.915291 141.80205 25.158338 141.4375 25.46875 C 140.57331 26.204603 139.10881 27.119327 137.5625 28 C 136.01619 28.880673 134.36058 29.734687 133.03125 30.40625 C 131.70192 31.077813 130.80073 31.513301 130.40625 31.75 C 129.22943 32.456119 128.08874 33.145762 126.9375 33.84375 C 126.72907 33.821516 126.5209 33.803917 126.3125 33.78125 C 126.16389 33.713578 126.00937 33.644655 125.84375 33.59375 C 126.13681 33.3277 126.4344 33.04475 126.75 32.78125 C 130.08477 29.997007 133.46155 27.492109 136.3125 25.96875 C 137.73798 25.207071 139.03241 24.69521 140.0625 24.5 C 140.29458 24.456019 140.49278 24.443656 140.6875 24.4375 z M 202.40625 25.65625 C 202.67694 25.78005 202.90677 25.905673 203.1875 26.03125 C 205.12534 26.898085 207.28085 27.805456 209.03125 28.90625 C 210.78165 30.007044 212.07603 31.286357 212.53125 32.875 C 212.55777 32.96754 212.5734 33.060127 212.59375 33.15625 C 206.80234 33.712259 200.99728 34.201195 195.1875 34.59375 C 196.97724 33.129022 198.59973 31.492099 200 29.625 C 200.58562 28.844148 201.54789 27.326274 202.40625 25.65625 z M 327.90625 26.78125 C 326.83485 27.154018 325.58251 27.504983 324.75 27.875 C 320.68341 29.682447 316.46905 31.874768 312.46875 33.875 C 310.14284 35.038 307.72023 36.352731 305.34375 37.625 C 307.17129 36.22448 308.97478 34.79326 310.84375 33.46875 C 316.02196 29.799039 321.38686 26.875 327.3125 26.875 C 327.50491 26.875 327.71253 26.81215 327.90625 26.78125 z M 124.40625 34.90625 C 124.60006 34.94028 124.80436 34.966585 125 35 C 124.35541 35.390003 123.71097 35.798205 123.0625 36.1875 C 123.5371 35.756983 123.96335 35.330406 124.40625 34.90625 z M 127.28125 35.40625 C 131.75339 36.0929 136.62649 36.603772 141.625 37 C 140.98394 37.46484 140.3164 37.925769 139.65625 38.28125 C 139.08964 38.586358 138.01851 39.475376 136.875 40.4375 C 134.94329 41.400615 133.06221 42.385951 130.8125 43.34375 C 127.54313 44.735657 124.185 46.087721 121.34375 47.3125 C 118.5025 48.537279 116.21226 49.567651 114.96875 50.5625 C 114.6321 50.83183 112.84048 51.951594 111.1875 52.65625 C 110.36101 53.008578 109.5388 53.271669 108.96875 53.34375 C 108.68373 53.37979 108.47525 53.37254 108.375 53.34375 C 108.27475 53.31496 108.29065 53.30009 108.28125 53.28125 C 108.17783 53.074402 108.18003 52.757563 108.375 52.25 C 108.57002 51.742437 108.95423 51.113114 109.40625 50.5 C 110.31028 49.273772 111.44479 48.10233 112.03125 47.28125 C 112.79844 46.207133 114.8568 43.936686 117.5 41.28125 C 117.95602 40.823122 118.60306 40.291509 119.09375 39.8125 C 120.54266 39.15045 121.98386 38.553469 123.375 37.71875 C 124.67212 36.940443 125.98487 36.176265 127.28125 35.40625 z M 209.40625 40.90625 C 206.27748 44.413651 201.5047 46.819093 197.03125 47.9375 C 196.7734 48.00197 196.55808 48.109293 196.3125 48.1875 C 198.3713 46.522517 200.5439 44.699946 201.84375 43.96875 C 204.44871 42.503405 206.92353 41.638502 209.40625 40.90625 z M 332.3125 42.625 C 332.84697 42.57733 333.30569 42.6444 333.625 42.78125 C 333.97165 42.929821 333.98796 42.964934 334.125 43.0625 C 333.75244 43.257886 332.92235 43.597285 331.71875 43.84375 C 330.60807 44.071188 329.34994 44.260219 328.15625 44.4375 C 328.95064 43.954014 329.75157 43.342046 330.5 43.0625 C 331.16727 42.813268 331.77803 42.672674 332.3125 42.625 z M 149.875 42.65625 C 151.23773 42.65165 152.16068 42.769404 152.625 42.90625 C 152.7538 42.94421 152.75715 42.9708 152.8125 43 C 152.7732 43.03494 152.70659 43.135228 152.375 43.40625 C 151.95744 43.747537 151.32345 44.154333 150.59375 44.5625 C 149.43306 45.211744 148.02672 45.827255 146.71875 46.40625 C 146.9911 45.413022 147.32411 44.445939 147.8125 43.8125 C 148.39557 43.056257 149.03054 42.659099 149.875 42.65625 z M 90.375 43.78125 C 89.325884 45.172448 87.099476 48.143981 84.40625 51.0625 C 82.938876 52.652622 81.402847 54.126643 80.09375 55.09375 C 79.439201 55.577303 78.858043 55.909797 78.375 56.09375 C 78.118615 56.19139 78.013372 56.14469 77.84375 56.15625 C 77.959359 55.889919 78.096684 55.587374 78.375 55.15625 C 79.089775 54.049035 80.244217 52.576428 81.53125 51.125 C 82.36706 50.182431 83.216857 49.391211 84.0625 48.5625 C 84.280109 48.53219 84.5033 48.53573 84.71875 48.46875 C 85.480278 48.232015 86.261364 47.809213 86.9375 47.34375 C 87.613636 46.878287 88.170286 46.385989 88.53125 45.875 C 88.711732 45.619505 88.951461 45.341313 88.8125 44.8125 C 88.79556 44.74803 88.72099 44.71675 88.6875 44.65625 C 89.188646 44.362053 89.706104 44.054589 90.1875 43.84375 C 90.28396 43.8015 90.28067 43.81639 90.375 43.78125 z "
       id="path3091" />
  </g>
</svg>
