<?xml version="1.0" encoding="UTF-8"?>
<svg version="1.1" xmlns="http://www.w3.org/2000/svg" width="149" height="69" >
<path fill="#231F20" d="M18.836,3.562c-1.977,1.938-3.288,4.754-4.505,7.179C9.436,20.5,6.584,31.325,4.054,41.887 c-0.94,3.926-4.876,16.9,0.878,19.257c3.383,1.385,7.806-2.53,9.971-4.526c5.114-4.714,8.53-10.563,10.669-17.135 c1.594-4.899,4.955-14.752,2.338-19.832c-2.017-3.913-7.351,5.655-7.616,6.14c-3.225,5.884-8.764,20.135-1.395,25.4 c2.929,2.093,6.412-0.386,7.868-2.904c2.325-4.021,2.731-9.625,2.9-14.199c0.014-0.355-1.838-0.032-1.92,0.423 c-0.608,3.381-1.834,12.736,3.344,13.244c2.031,0.199,4.142-0.121,5.631-1.601c1.456-1.446-0.132-3.491-1.713-3.68 c-3.886-0.465-3.801,4.6-1.859,6.559c4.343,4.382,8.367-8.473,8.762-9.82c0.135-0.46-1.715-0.125-1.908,0.328 c-1.005,2.351-3.941,9.623,0.916,9.247c4.194-0.325,5.691-6.687,6.439-9.91c-0.64,0.141-1.28,0.282-1.92,0.423 c-0.166,1.688-1.164,8.556,1.881,8.167c3.263-0.417,4.366-4.581,5.214-7.248c-0.64,0.141-1.28,0.282-1.92,0.423 c-0.62,9.015,6.74,3.862,8.456-1.429c-0.636,0.109-1.272,0.219-1.908,0.328c-0.508,1.631-2.153,7.108,0.877,7.287 c2.892,0.171,4.789-2.049,5.661-4.598c-0.636,0.109-1.272,0.219-1.908,0.328c-0.794,3.601,0.73,4.928,3.967,3.335 c1.151-0.566-0.648-0.526-1.123-0.293c-1.67,0.821-1.007-3.047-0.936-3.371c0.107-0.488-1.75-0.136-1.908,0.328 c-0.537,1.57-3.16,4.823-3.532,1.336c-0.162-1.522,0.357-3.227,0.811-4.682c0.134-0.428-1.745-0.174-1.908,0.328 c-0.309,0.952-3.071,6.407-4.132,4.954c-0.774-1.06-0.569-3.133-0.484-4.371c0.025-0.366-1.787,0.003-1.92,0.423 c-0.196,0.617-2.601,6.035-2.908,5.57c-1.167-1.759-0.543-5.346-0.347-7.334c0.032-0.325-1.813-0.042-1.92,0.423 c-0.597,2.569-1.479,5.086-2.824,7.359c-2.129,3.597-2.457-0.298-2.479-0.89c-0.039-1.103,0.354-2.313,0.648-3.372 c0.292-1.051,0.687-2.087,1.115-3.09c-0.636,0.109-1.272,0.219-1.908,0.328c-0.383,1.305-3.184,11.41-5.543,8.241 c-0.859-1.155-0.796-5.722,0.585-3.524c1.772,2.82-3.724,2.866-4.972,0.521c-0.655-1.231-0.746-2.792-0.849-4.151 c-0.16-2.125,0.055-4.352,0.431-6.443c-0.64,0.141-1.28,0.282-1.92,0.423c-0.187,5.038-0.636,11.824-4.127,15.779 c-3.384,3.833-5.918-5.239-6.095-6.909c-0.591-5.606,1.562-11.378,3.86-16.37c1.009-2.192,2.227-4.372,3.696-6.294 c0.959-1.253,0.763-1.2,1.207,0.061c0.911,2.586,0.154,6.179-0.226,8.758c-1.023,6.962-3.046,14.304-7.012,20.187 c-1.86,2.76-9.045,12.692-13.111,10.253c-2.147-1.288-1.849-5.355-1.779-7.393c0.208-6.165,2.052-12.358,3.609-18.282 c2.213-8.416,4.898-16.841,8.81-24.637c1.072-2.137,2.285-4.617,4.023-6.32C21.025,3.014,19.178,3.227,18.836,3.562L18.836,3.562 M79.19,23.335c-2.649,1.326-9.983,7.044-4.505,9.605c0.942,0.44,2.417-0.099,2.789,1.091 c1.369,4.378-2.167,11.602-3.405,15.602c-0.342,1.105,1.587,1.157,1.861,0.271c1.327-4.289,2.694-8.614,3.428-13.053 c0.213-1.289,0.529-3.35-0.525-4.397c-0.688-0.683-1.651-0.666-2.552-0.769c-4.719-0.537,2.292-6.367,3.79-7.117 C81.247,23.981,80.199,22.831,79.19,23.335L79.19,23.335 M96.65,21.432c-1.529,3.829-3.116,7.636-4.755,11.419c-1.087,2.511-2.203,5.015-3.482,7.435 c-0.18,0.335-0.37,0.665-0.572,0.987c-0.771,0.805-0.373,0.875,1.196,0.209c-0.248-0.43,0.278-1.729,0.393-2.16 c1.315-4.963,3.473-9.929,6.162-14.294c0.623-1.011,1.357-1.931,2.193-2.771c3.232-3.249,2.756,4.328,2.716,4.539 c-0.197,1.05-1.646,5.983-2.486,6.321c0.433,0.029,0.864,0.058,1.297,0.087c0.554-0.94,3.141-3.892,4.14-1.792 c1.167,2.454-0.268,6.035-1.213,8.354c-1.531,3.753-4.259,7.236-7.146,10.061c0.586-0.038,1.172-0.076,1.758-0.114 c4.302-4.269,8.58-8.866,13.441-12.503c0.785-0.588-0.823-0.072-1.063,0.641c-0.146,0.437-0.248,1.079-0.262,1.537 c-0.023,0.797-0.146,2.237,0.876,2.514c2.313,0.628,3.95-2.596,4.786-4.029c-0.637,0.108-1.273,0.216-1.91,0.324 c-0.391,2.126,0.438,4.208,2.949,3.52c1.392-0.381,2.31-0.835,3.414-1.794c1.058-0.919,0.516,2.329,2.126,3.143 c3.456,1.749,13-7.227,11.92-10.489c-0.105-0.318-0.856-0.119-1.054-0.07c-2.805,0.683-4.198,6.047-4.921,8.373 c-1.267,4.079-0.495,9.302-0.283,13.508c0.025,0.503,1.753-0.112,1.921-0.421c1.983-3.651,4.094-7.238,6.319-10.746 c1.481-2.334,3.03-4.691,4.976-6.667c0.836-0.849-0.854,4.489-0.906,4.966c0.035,0.074,0.094,0.118,0.177,0.131 c0.595,0.259,1.29-0.078,1.818-0.347c0.438-0.223,2.357-2.087,2.557-1.418c0.251,0.847-0.401,1.742,0.542,2.196 c0.461,0.222,1.263,0.012,1.653-0.287c0.301-0.231,0.601-0.461,0.901-0.692c0.796-0.61-1.136-0.372-1.49-0.1 c-0.301,0.23-0.602,0.461-0.902,0.691c0.551-0.096,1.103-0.191,1.653-0.287c-1.32-0.636,0.425-2.655-1.521-2.813 c-1.501-0.121-3.091,1.279-4.132,2.073c1.129-0.861,3.891-6.483,0.116-5.316c-3.146,0.972-5.117,4.797-6.81,7.356 c-2.472,3.739-4.723,7.645-6.861,11.583c0.641-0.14,1.281-0.281,1.921-0.421c-0.169-3.344-0.232-6.696-0.115-10.042 c0.076-2.152,0.522-3.903,1.33-5.872c0.239-0.583,1.828-4.691,2.233-4.79c-0.351-0.023-0.702-0.047-1.054-0.071 c0.872,2.633-3.924,6.189-5.611,7.509c-1.292,1.009-3.284,2.498-3.762-0.019c-0.182-0.955-0.125-1.455-0.705-2.215 c-1.514-1.984-7.705,6.124-6.489-0.496c0.106-0.581-1.699-0.037-1.91,0.324c-3.04,5.217-0.762,0.053-1.325-1.723 c-0.042-0.133-0.238-0.145-0.346-0.157c-2.408-0.26-5.16,3.207-6.651,4.571c-3.172,2.903-6.253,5.911-9.305,8.939 c-0.443,0.44,1.415,0.22,1.758-0.114c4.346-4.253,11.283-13.035,8.224-19.468c-1.439-3.026-6.926,2.018-7.671,3.284 c-0.245,0.416,1.2,0.125,1.296,0.087c4.676-1.879,6.046-15.995-1.46-12.146c-3.512,1.8-5.456,7.106-6.92,10.441 c-0.761,1.733-4.284,8.236-3.16,10.182c0.106,0.184,0.373,0.165,0.555,0.156c2.749-0.133,3.952-4.948,4.836-6.884 c2.141-4.689,4.1-9.469,6.012-14.256C98.717,20.716,96.856,20.917,96.65,21.432L96.65,21.432z"/>
</svg>