<?xml version="1.0" encoding="UTF-8"?>
<svg version="1.1" xmlns="http://www.w3.org/2000/svg" width="492" height="98" >
<path d="M16.178,21.867c9.47-1.297,20.071-4.727,27.481-10.908c1.494-1.246,2.933-2.585,4.544-3.683 c1.23-0.838,0.316-1.386-0.539,0.022c-3.407,5.613-8.132,10.613-12.364,15.594C25.334,34.621,15.033,46.066,4.714,57.483 c-0.757,0.838,0.402,2.001,1.237,1.238c9.234-8.439,18.569-16.771,28.005-24.983c8.778-7.64,17.917-14.48,27.138-21.495 c2.045-1.556,4.006-3.228,6.114-4.701c1.771-1.238,1.947-1.867,1.206,0.222c-1.762,4.966-4.911,9.627-7.582,14.125 c-6.198,10.437-12.764,20.658-19.324,30.869c-0.356,0.553-0.712,1.106-1.068,1.66c0.503,0.294,1.007,0.589,1.511,0.883 c3.409-6.885,7.683-13.599,12.927-19.22c4.534-4.861,8.58-6.676,15.069-5.038c2.562,0.647,7.706,1.641,9.42,3.115 c0.059-0.458,0.118-0.916,0.177-1.374c-6.01,3.912-12.323,8.861-15.831,15.22c-2.546,4.616-1.058,9.623,4.664,8.074 c5.83-1.578,29.242-19.728,14.768-23.382c-0.596-0.15-1.046,0.278-1.107,0.844c-0.457,4.218-0.287,9.71,3.184,12.668 c1.292,1.101,6.983-1.425,8.378-1.755c5.017-1.188,10.915-2.775,16.072-1.703c4.154,0.864-0.86,7.305-1.994,9.269 c-0.534,0.925-1.445,3.021-2.518,3.477c0.399,0.399,0.798,0.798,1.197,1.197c3.998-6.238,11.224-9.808,18.188-11.457 c3.012-0.713,6.208-2.073,9.333-2.112c1.286-0.016-5.138,10.571-5.611,11.296c-0.625,0.957,0.867,1.787,1.511,0.883 c4.365-6.12,15.761-19.949,23.876-12.8c0.843,0.743,2.086-0.49,1.237-1.237c-9.375-8.26-21.561,6.056-26.624,13.155 c0.503,0.294,1.007,0.589,1.511,0.883c1.486-2.275,7.489-9.142,6.219-12.479c-0.92-2.419-4.27-1.234-6.098-0.784 c-9.421,2.319-19.473,5.062-25.053,13.77c-0.526,0.82,0.465,1.508,1.197,1.197c0.779-0.331,1.352-1.365,1.816-2.011 c2.065-2.866,4.18-6.441,5.217-9.809c1.172-3.805-3.842-4.427-6.354-4.458c-5.762-0.071-11.681,1.5-17.216,2.935 c-1.232,0.319-3.285,1.104-3.743,0.713c-2.613-2.228-2.314-7.706-1.975-10.837c-0.369,0.281-0.738,0.563-1.107,0.844 c11.112,2.806-9.625,17.975-13.626,19.613c-1.267,0.519-4.059,1.555-4.693-0.297c-1.238-3.613,2.75-7.9,4.914-10.24 c3.243-3.509,7.152-6.561,11.152-9.165c0.442-0.288,0.625-0.989,0.177-1.374c-2.192-1.885-6.105-2.456-8.745-3.184 c-5.712-1.574-9.762-2.04-14.609,1.821c-7.317,5.828-12.698,14.553-16.81,22.86c-0.5,1.008,0.897,1.837,1.511,0.883 c6.741-10.474,13.458-20.97,19.869-31.651c2.812-4.685,5.813-9.44,7.917-14.502c1.979-4.763-0.929-4.953-4.268-2.5 c-18.59,13.654-35.993,28.494-53.153,43.949c-2.541,2.289-5.078,4.582-7.602,6.889c0.413,0.413,0.825,0.825,1.237,1.238 c11.394-12.607,22.776-25.244,33.691-38.271c3.391-4.047,8.281-8.671,10.264-13.701c1.296-3.287-3.604-0.252-4.213,0.229 c-8.873,7.005-18.676,11.652-29.981,13.201C14.599,20.332,15.075,22.018,16.178,21.867L16.178,21.867z"/>
<path d="M168.18,37.297c-3.952,0.022-8.885,0.302-12.143,2.765c-1.447,1.093-1.674,2.73-1.143,4.368 c0.664,2.047,2.318,3.759-0.216,5.258c-1.516,0.897-3.11,1.729-4.429,2.91c-3.194,2.86,3.14,3.481,4.555,3.407 c9.655-0.508,19.37-5.567,27.357-10.59c-0.353-0.458-0.707-0.916-1.06-1.374c-1.097,1.292-9.563,10.748-5.941,11.744 c1.123,0.309,2.656-0.39,3.77-0.498c1.871-0.181,3.736-0.286,5.598-0.559c6.313-0.926,11.305-4.745,15.376-9.451 c-0.458-0.354-0.916-0.707-1.374-1.06c-2.766,3.867-2.893,8.563,3.181,7.211c3.417-0.761,6.712-2.51,9.811-4.067 c6.727-3.381,13.239-7.305,19.375-11.662c6.628-4.707,14.674-11.041,17.705-18.929c1.192-3.103,1.212-6.91-2.819-7.375 c-6.476-0.746-14.104,7.095-18.193,11.036c-3.271,3.152-10.854,10.868-8.074,16.178c3.194,6.102,14.391,2.44,19.16,0.975 c3.907-1.201,7.685-2.945,11.162-5.088c0.932-0.574,3.605-1.907,3.832-3.194c0.087-0.491-0.126-0.913-0.611-1.077 c-2.402-0.81-8.533,6.693-9.769,7.907c-8.983,8.825-17.128,18.46-24.203,28.877c-4.194,6.176-7.586,12.761-11.387,19.162 c-0.656,1.104,0.284,1.619,0.25,0.704c-0.041-1.089,0.099-2.199,0.19-3.283c0.219-2.579,1.444-4.653,2.951-6.703 c4.338-5.898,10.65-10.573,16.435-14.933c7.649-5.765,15.677-11.028,23.738-16.195c13.975-8.958,28.521-17.127,42.146-26.619 c-0.398-0.399-0.798-0.798-1.197-1.197c-8.416,11.741-16.833,23.483-25.25,35.225c-0.658,0.919,0.86,1.792,1.512,0.883 c8.416-11.741,16.833-23.483,25.25-35.225c0.507-0.707-0.491-1.688-1.197-1.197c-14.645,10.202-30.3,18.957-45.288,28.64 c-7.965,5.146-15.878,10.442-23.357,16.28c-5.464,4.265-11.066,8.786-15.065,14.521c-1.869,2.68-3.706,7.701-2.452,10.968 c1.211,3.156,4.662-4.219,4.913-4.677c5.504-10.043,11.747-19.554,18.981-28.445c6.463-7.944,13.871-16.849,22.368-22.774 c0.735-0.513-0.171-1.863-0.717-1.316c-0.463,0.464-1.017,0.843-1.547,1.223c-1.882,1.348-3.943,2.44-6.023,3.445 c-4.845,2.341-18.977,8.206-23.059,2.715c-3.831-5.152,8.253-15.347,11.335-17.969c1.393-1.185,13.536-11.139,14.987-5.564 c1.431,5.495-7.267,12.875-10.588,15.905c-8.336,7.605-18.55,13.477-28.656,18.396c-0.751,0.366-10.796,5.247-10.106,1.717 c0.251-1.285,1.034-2.54,1.788-3.595c0.579-0.809-0.727-1.808-1.374-1.06c-3.482,4.024-7.356,7.106-12.534,8.569 c-2.816,0.795-5.773,0.713-8.652,1.091c-0.67,0.088-1.557,0.723-1.22-0.047c0.515-1.175,1.341-2.247,2.076-3.289 c1.242-1.761,2.607-3.444,4.001-5.087c0.614-0.723-0.172-1.933-1.06-1.374c-7.07,4.446-14.63,8.048-22.827,9.824 c-2.116,0.458-4.509,0.835-6.671,0.419c-0.605-0.117,4.569-3.283,5.297-3.919c3.314-2.9-3.351-6.875,0.972-9.407 c2.832-1.659,6.919-1.757,10.131-1.775C169.308,39.041,169.309,37.291,168.18,37.297L168.18,37.297z"/>
<path d="M268.196,35.699c-3.695,3.121-9.94,10.632-7.576,15.892c1.216,2.706,5.68,1.103,7.549,0.399 c7.089-2.666,13.526-7.389,19.623-11.769c11.348-8.151,22.031-17.233,32.509-26.46c-0.413-0.413-0.825-0.825-1.238-1.237 c-10.856,13.596-21.713,27.191-32.569,40.787c0.459,0.354,0.917,0.707,1.375,1.06c4.072-5.734,8.485-15.732,3.414-21.984 c-1.354-1.669-3.611-2.146-5.224-0.711c-1.591,1.417-1.041,4.668-0.467,6.456c1.234,3.84,5.646,4.48,9.114,4.68 c11.104,0.641,22.679-1.831,33.625-3.334c-0.225-0.533-0.449-1.066-0.674-1.599c-3.081,1.641-6.107,3.39-9.066,5.24 c-1.705,1.066-6.667,3.509-6.667,6.029c0,3.396,7.918,0.55,9.036,0.136c3.458-1.28,6.913-4.11,8.627-7.427 c-0.504-0.294-1.008-0.589-1.512-0.883c-1.702,3.83,2.836,4.351,5.513,4.098c2.195-0.208,4.289-1.333,6.245-2.268 c0.811-0.388,3.049-1.801,3.639-0.369c0.885,2.146-0.118,5.461-0.48,7.555c-0.16,0.923,1.103,1.607,1.6,0.674 c4.338-8.142,14.67-10.211,23.03-9.3c1.121,0.122,1.109-1.629,0-1.75c-8.96-0.977-19.92,1.493-24.542,10.167 c0.533,0.225,1.066,0.449,1.6,0.674c0.457-2.642,2.485-9.956-1.936-10.419c-1.449-0.152-3.224,0.984-4.462,1.576 c-1.128,0.539-10.161,3.544-8.694,0.245c0.448-1.009-0.984-1.902-1.512-0.883c-1.24,2.4-3.402,4.232-5.646,5.647 c-2.428,1.531-5.558,2.318-8.408,2.306c-0.564-0.002,1.701-1.739,2.181-2.097c3.829-2.859,8.128-5.196,12.339-7.44 c0.953-0.508,0.233-1.724-0.674-1.599c-8.353,1.147-16.715,2.341-25.121,3.031c-4.044,0.332-8.507,0.749-12.449-0.456 c-1.216-0.372-2.184-1.112-2.806-2.215c-1.108-1.966-0.325-7.208,2.555-4.527c4.954,4.613-0.545,15.438-3.688,19.864 c-0.573,0.807,0.756,1.835,1.375,1.06c10.856-13.596,21.713-27.191,32.569-40.787c0.694-0.871-0.376-1.997-1.238-1.237 c-14.433,12.71-29.367,25.989-46.29,35.35c-2.579,1.426-6.894,4.164-10.045,3.328c-4.331-1.149,4.92-12.757,6.707-14.266 C270.298,36.208,269.053,34.976,268.196,35.699L268.196,35.699z"/>
<path d="M385.687,29.913c-4.822,1.196-9.539,2.913-14.041,5.003c-3.435,1.594-12.543,6.369-11.154,11.601 c1.265,4.769,10.752-0.933,12.929-1.974c8.077-3.862,18.395-7.327,23.896-14.806c0.525-0.714,4.149-8.311,0.005-6.007 c-2.666,1.481-4.87,4.225-6.971,6.382c-2.304,2.365-4.768,4.964-6.157,8c-2.812,6.143,7.884,3.152,9.967,2.727 c7.26-1.482,15.881-3.152,18.951-10.778c0.39-0.967-1.079-1.453-1.6-0.674c-1.726,2.584-4.985,9.136-0.514,10.917 c6.854,2.729,15.417-3.091,19.82-8.003c-0.459-0.354-0.917-0.707-1.375-1.06c-1.376,1.898-2.735,4.347-2.147,6.746 c0.774,3.163,7.053,1.923,9.186,1.983c4.766,0.134,21.201,2.505,20.609-6.185c-0.144-2.098-2.373-1.588-3.587-0.867 c-2.431,1.442-4.618,4.408-5.197,7.166c-1.343,6.392,15.722,5.439,19.219,5.451c0.523,0.002,0.813-0.403,0.875-0.875 c0.804-6.196,5.642-8.8,11.492-6.197c0.757,0.337,1.677-0.378,1.197-1.197c-4.566-7.791-12.708,3.828-14.817,7.417 c-6.145,10.455-8.771,22.736-15.909,32.648c-0.964,1.338-4.167,4.674-5.049,2.321c-0.393-1.047-2.084-0.594-1.688,0.465 c2.981,7.956,11.277-6.716,12.211-8.488c5.612-10.656,8.225-23.878,16.769-32.747c1.791-1.858,5.254-3.665,6.972-0.734 c0.399-0.399,0.799-0.798,1.197-1.197c-5.446-2.424-10.593-1.811-13.13,4.037c-0.318,0.732-0.545,1.495-0.741,2.268 c-0.468,1.839-0.227,0.525,0.511,0.528c-4.345-0.015-8.712-0.314-13-1.003c-1.779-0.286-4.817-0.348-4.298-2.817 c0.355-1.693,1.76-3.221,2.918-4.414c2.412-2.482,3.112-0.311,0.702,1.352c-1.896,1.307-4.728,1.342-6.921,1.472 c-4.13,0.247-8.291-0.128-12.421-0.203c-2.582-0.046-6.398-0.348-4.792-3.816c0.362-0.783,0.845-1.533,1.352-2.231 c0.586-0.809-0.717-1.793-1.375-1.06c-3.131,3.493-7.217,6.167-11.688,7.56c-3.976,1.237-8.394,0.266-6.826-4.549 c0.434-1.333,1.179-2.639,1.957-3.804c-0.533-0.225-1.066-0.449-1.6-0.674c-2.421,6.013-9.059,7.586-14.773,8.92 c-3.118,0.728-6.379,1.57-9.573,1.84c-3.772,0.319,1.811-6.044,2.195-6.495c1.471-1.718,3.084-3.318,4.693-4.904 c0.749-0.738,3.735-2.799,3.87-3.749c-0.723,5.102-7.972,9.299-11.992,11.279c-5.241,2.58-10.46,5.235-15.757,7.699 c-2.184,1.016-4.575,2.149-7.012,2.378c-2.896,0.272,3.426-6.604,3.875-6.938c5.466-4.065,12.637-6.399,19.202-8.027 C387.246,31.329,386.782,29.641,385.687,29.913L385.687,29.913z"/>
<path d="M265.156,74.272c48.98,0.218,98.017,1.069,146.942,3.435c15.263,0.738,30.549,1.601,45.744,3.261 c5.038,0.551,10.089,1.188,15.047,2.258c1.638,0.353,5.864,0.853,6.688,2.664c0.467,1.026,1.975,0.136,1.512-0.883 c-1.756-3.863-11.389-4.211-14.729-4.708c-11.656-1.735-23.464-2.531-35.217-3.284c-32.305-2.068-64.695-2.903-97.056-3.571 c-22.973-0.475-45.953-0.818-68.932-0.921C264.027,72.517,264.028,74.267,265.156,74.272L265.156,74.272z"/>
</svg>