<?xml version="1.0" encoding="UTF-8"?>
<svg version="1.0" xmlns="http://www.w3.org/2000/svg" width="254" height="84" >
<path fill="#070203" d="M41.679,49.365c-7.114,1.853-14.583,2.885-21.933,2.676c-5.383-0.153-9.521-1.895-13.943-4.811 c-1.831-1.207-3.864-2.705-4.578-4.877c-1.096-3.337,4.504-6.453,6.612-7.8C14.327,30.409,60.447,9.09,62.35,24.12 c0.927,7.315-9.138,14.875-13.757,19.061c-10.134,9.182-21.054,17.46-31.312,26.503c-3.947,3.479-9.006,7.249-11.7,11.898 c-1.039,1.793,0.333,2.525,1.927,1.894c9.24-3.669,18.014-8.903,26.896-13.344c5.775-2.888,11.574-5.732,17.464-8.379 c3.257-1.463,7.654-4.037,11.371-3.987c6.18,0.083-2.598,8.251-3.713,9.276c-3.07,2.822-6.483,5.551-8.169,9.48 c-0.786,1.831-0.186,4.992,2.417,4.158c4.977-1.593,9.724-5.498,14.203-8.101c6.302-3.66,13.498-8.243,20.903-8.991 c-0.177-0.427-0.354-0.854-0.53-1.28c-3.881,3.698-7.696,7.516-11.145,11.624c-0.749,0.893-4.844,6.064-1.085,5.741 c5.104-0.438,10.881-4.95,15.295-7.245c2.451-1.274,5.295-3.158,8.081-3.531c-0.016,0.002-3.007,4.396-3.586,4.995 c-0.814,0.843-1.679,1.644-2.56,2.416c0.354,0.354,0.707,0.707,1.061,1.061c5.396-6.393,12.747-13.796,15.443-21.831 c-0.482-0.133-0.964-0.266-1.446-0.398c-0.612,2.493-1.181,5.905,0.823,7.893c1.893,1.878,7.136-0.829,8.971-1.483 c5.254-1.873,10.419-4.053,15.466-6.426c2.018-0.949,6.602-2.422,7.437-4.835c0.257-0.745-0.736-1.214-1.253-0.729 c-4.198,3.929-8.333,7.926-12.413,11.977c-2.745,2.726-5.455,5.489-8.05,8.358c-1.304,1.441-3.131,3.162-3.734,5.078 c-0.923,2.935,8.581-0.228,9.3-0.405c3.451-0.856,6.924-1.73,10.455-2.192c0.432-0.056,4.084-0.55,3.476,0.662 c-0.875,1.743-3.055,3.119-4.533,4.272c0.393,0.303,0.785,0.605,1.178,0.909c2.703-4.325,5.522-8.58,8.401-12.789 c4.061-5.936,8.253-12.821,13.981-17.31c-0.354-0.354-0.707-0.707-1.061-1.061c-3.318,3.936-10.747,14.791-3.331,18.3 c3.184,1.507,7.659,0.577,10.834-0.48c0.589-0.196,3.663-1.794,1.791-2.681c-5.537-2.623-11.514,5.149-9.641,10.208 c0.664,1.791,2.131,2.875,4.03,2.603c4.164-0.597,6.222-8.125,7.32-11.22c0.285-0.806-0.978-1.323-1.371-0.578 c-0.993,1.883-5.768,9.668-2.89,11.354c2.875,1.685,19.887-9.402,13.39,2.396c0.432,0.253,0.863,0.505,1.295,0.758 c2.163-4.822,4.547-9.551,7.051-14.203c1.983-3.683,4.111-7.291,6.469-10.747c1.732-2.54,4.144-6.254,7.282-7.205 c-0.243-0.418-0.486-0.836-0.729-1.254c-1.423,1.397-11.719,12.216-5.026,12.448c3.737,0.129,8.039-2.117,11.426-3.416 c4.754-1.822,9.417-3.896,14.219-5.594c2.546-0.901,1.193-1.185-0.808-0.508c-2.043,0.69-4.121,1.311-6.09,2.201 c-3.759,1.699-7.614,4.16-7.4,8.752c0.153,3.314,3.822,4.774,6.454,5.665c0.889,0.301,1.781,0.551,2.62,0.981 c0.721,0.369-3.861,3.38-4.165,3.586c-1.878,1.275-4.814,4.122-7.199,4.414c-0.947,0.116-0.959,1.617,0,1.5 c2.771-0.339,17.332-8.7,11.518-11.089c-1.882-0.773-3.839-1.228-5.628-2.232c-4.522-2.54-1.009-7.13,1.955-8.98 c3.282-2.051,8.55-2.149,11.368-4.743c1.295-1.191-0.858-1.606-1.631-1.428c-4.359,1.005-8.619,3.257-12.757,4.908 c-4.266,1.701-8.838,3.869-13.437,4.456c-3.138,0.399,4.33-8.573,5.642-9.861c0.529-0.52-0.006-1.473-0.729-1.254 c-6.105,1.852-10.241,10.84-13.104,15.855c-3.143,5.504-6,11.206-8.594,16.989c-0.388,0.863,0.819,1.621,1.295,0.758 c3.095-5.619,1.243-8.681-5.115-7.403c-0.826,0.166-8.859,2.685-8.868,2.556c-0.201-2.838,2.19-6.449,3.483-8.902 c-0.457-0.193-0.914-0.386-1.371-0.578c-0.59,1.663-5.995,15.262-8.638,8.129c-0.714-1.929-0.124-3.668,1.11-5.248 c0.963-1.233,2.6-1.991,4.018-2.518c0.757-0.281,3.314-1.209,1.058-0.321c-3.856,1.517-11.899,2.587-12.014-3.354 c-0.08-4.165,3.385-8.892,5.97-11.958c0.634-0.752-0.307-1.651-1.061-1.061c-5.527,4.33-9.623,10.994-13.579,16.688 c-3.122,4.494-6.138,9.072-9.038,13.713c-0.488,0.781,0.552,1.397,1.178,0.909c1.685-1.315,8.624-6.926,2.734-7.615 c-6.093-0.713-13.165,2.352-19.028,3.688c-0.485,0.11-0.972,0.207-1.461,0.298c-1.27,0.238-0.284-0.016-0.451,0.349 c0.52-1.137,1.494-2.119,2.296-3.059c2.61-3.059,5.479-5.909,8.316-8.754c4.286-4.297,8.663-8.509,13.094-12.656 c-0.418-0.243-0.835-0.486-1.253-0.729c-0.585,1.691-5.323,3.254-6.748,3.938c-3.725,1.789-7.551,3.369-11.396,4.879 c-2.904,1.141-5.845,2.234-8.854,3.066c-3.931,1.087-3.426-3.705-2.805-6.235c0.232-0.945-1.14-1.311-1.446-0.398 c-2.617,7.798-9.83,14.977-15.057,21.169c-0.622,0.737,0.328,1.703,1.061,1.061c1.433-1.255,8.793-7.263,6.114-9.684 c-2.078-1.877-9.941,3.484-11.623,4.364c-3.085,1.615-6.148,3.272-9.292,4.77c-1.071,0.51-2.161,0.978-3.303,1.303 c-1.005,0.285,0.955-1.859,1.444-2.491c3.432-4.435,7.606-8.399,11.66-12.262c0.444-0.423,0.135-1.348-0.53-1.28 c-8.081,0.816-15.805,5.796-22.663,9.778c-3.385,1.966-6.711,4.032-10.11,5.974c-0.965,0.551-1.961,1.147-3.025,1.487 c-1.44,0.462,0.256-3.466,0.333-3.606c1.06-1.948,2.775-3.542,4.34-5.078c3.005-2.949,14.361-10.783,6.074-14.278 c-2.886-1.217-8.707,2.342-11.205,3.425C38.538,65.893,25.067,73.338,11.29,80.084c-1.597,0.782-3.209,1.641-4.897,2.211 c0.223-0.075,0.066,0.765,0.61-0.174c0.501-0.865,1.215-1.618,1.878-2.358c6.22-6.939,13.774-12.849,20.909-18.791 c9.17-7.638,18.751-14.954,27.001-23.617c3.331-3.498,7.327-8.068,7.059-13.234c-0.69-13.319-27.657-3.188-33.584-1.198 C22.947,25.38-10.424,36.034,3.258,47.227c10.96,8.966,25.987,6.926,38.819,3.586C43.013,50.568,42.616,49.122,41.679,49.365 L41.679,49.365 M104.827,36.063c40.713-12.515,82.157-25.244,124.171-32.517c6.31-1.092,15.236-3.483,21.561-1.218 c4.731,1.694-9.006,10.672-10.06,11.364c-0.805,0.528-0.054,1.828,0.758,1.295c2.848-1.869,13.242-7.432,11.811-12.237 c-1.228-4.121-10.809-2.463-13.578-2.19c-24.527,2.414-48.923,9.687-72.632,16.084c-20.903,5.642-41.733,11.611-62.429,17.973 C103.507,34.899,103.9,36.347,104.827,36.063L104.827,36.063z"/>
</svg>