<?xml version="1.0" standalone="no"?>
<!DOCTYPE svg PUBLIC "-//W3C//DTD SVG 20010904//EN"
 "http://www.w3.org/TR/2001/REC-SVG-20010904/DTD/svg10.dtd">
<svg version="1.0" xmlns="http://www.w3.org/2000/svg"
 width="468pt" height="109pt" viewBox="0 0 468 109"
 preserveAspectRatio="xMidYMid meet">
<metadata>
Created by POTRACE VERSION, written by Peter Selinger 2001-2007
</metadata>
<g transform="translate(0,109) scale(0.023145,-0.023145)"
fill="#000000" stroke="none">
<path d="M3990 4534 c-14 -3 -49 -16 -78 -30 -29 -13 -59 -24 -67 -24 -7 0
-17 -5 -20 -10 -4 -6 -32 -27 -63 -47 -31 -19 -107 -74 -169 -120 -62 -46
-156 -123 -210 -170 -54 -48 -145 -134 -203 -192 -58 -58 -142 -152 -185 -208
-44 -56 -111 -151 -148 -210 -37 -59 -84 -135 -103 -167 -19 -33 -61 -118 -93
-190 -33 -72 -69 -163 -80 -201 -12 -39 -23 -95 -26 -125 -2 -30 -1 -84 2
-118 4 -47 12 -72 30 -93 22 -25 32 -29 76 -29 40 0 58 5 77 23 14 12 36 28
50 35 14 7 48 29 77 50 29 21 84 69 124 107 40 39 109 111 153 161 45 51 103
120 130 155 27 35 53 74 59 86 5 13 19 25 29 29 10 3 25 1 32 -5 9 -7 34 -9
70 -5 31 4 59 11 62 15 3 5 20 9 38 9 19 0 39 6 45 14 7 8 26 18 42 21 17 4
59 27 95 51 35 24 68 44 73 44 5 0 13 9 16 20 3 11 10 20 14 20 4 0 18 9 31
20 13 11 26 20 30 20 4 0 17 -9 30 -20 13 -11 28 -20 35 -20 6 0 17 -11 23
-25 6 -14 16 -25 21 -25 6 0 15 -9 21 -20 8 -14 8 -26 0 -40 -6 -11 -15 -20
-21 -20 -6 0 -59 -28 -117 -62 -59 -34 -136 -82 -170 -107 -35 -26 -95 -73
-133 -106 -39 -33 -83 -80 -99 -105 -15 -25 -33 -63 -39 -85 -6 -22 -11 -61
-11 -86 0 -25 5 -61 11 -80 7 -19 20 -44 31 -55 12 -14 36 -23 63 -27 31 -3
64 2 107 17 35 13 77 30 93 39 17 9 45 23 63 32 17 8 32 22 32 29 0 8 9 17 19
21 10 3 38 28 62 55 24 27 55 64 69 82 14 18 36 58 49 88 13 30 41 92 62 137
20 45 48 88 61 96 12 8 48 25 78 37 30 12 84 36 120 54 56 27 65 35 68 61 2
16 1 54 -3 83 -6 49 -9 54 -28 49 -12 -3 -47 -14 -78 -25 -30 -11 -74 -30 -98
-41 -23 -12 -46 -19 -51 -16 -5 3 -6 21 -3 41 4 22 0 47 -10 67 -8 18 -23 49
-34 70 -10 22 -30 48 -45 59 -16 10 -28 26 -28 34 0 9 24 64 54 122 30 59 59
132 66 162 7 30 16 60 20 65 5 6 11 42 15 80 4 39 11 77 15 85 5 9 10 52 11
95 2 44 -1 104 -5 134 -7 42 -16 63 -45 93 -33 36 -41 39 -101 43 -36 2 -76 1
-90 -1z m75 -250 c8 -20 15 -66 15 -103 0 -36 -5 -84 -10 -106 -6 -22 -17 -62
-26 -90 -8 -27 -33 -81 -54 -120 -22 -38 -44 -80 -49 -91 -5 -12 -17 -24 -25
-27 -9 -4 -16 -13 -16 -21 0 -8 -6 -16 -12 -19 -7 -2 -26 0 -42 6 -16 6 -68 7
-122 3 -52 -3 -94 -4 -94 -1 0 4 13 39 29 78 18 44 34 111 42 170 10 77 10
103 1 118 -7 10 -18 28 -24 39 -11 17 -9 23 19 48 17 16 37 32 45 36 7 3 42
24 78 47 36 23 83 47 105 54 22 7 59 13 82 14 40 1 44 -1 58 -35z m-458 -316
c8 -19 1 -42 -45 -133 -30 -60 -65 -124 -78 -142 -13 -17 -24 -36 -24 -42 0
-6 -12 -17 -27 -26 -16 -8 -42 -27 -59 -42 -20 -18 -38 -49 -49 -83 -10 -30
-22 -67 -28 -82 -5 -16 -13 -28 -18 -28 -5 0 -18 -14 -29 -32 -10 -18 -38 -54
-62 -81 -24 -28 -65 -75 -91 -106 -26 -31 -52 -60 -58 -66 -5 -5 -26 -28 -47
-50 -20 -22 -64 -66 -96 -98 -33 -32 -92 -82 -130 -111 -39 -29 -81 -58 -93
-64 -12 -7 -27 -12 -33 -12 -9 0 -10 12 -6 38 4 20 18 75 32 122 14 47 30 97
36 112 6 15 18 30 27 33 9 2 21 14 26 24 6 11 31 55 57 99 26 44 77 123 114
176 37 54 112 145 166 204 54 59 104 114 111 122 7 8 47 45 88 82 41 37 92 79
114 94 22 14 51 37 65 49 14 13 45 33 70 44 25 11 48 20 51 20 3 1 10 -9 16
-21z m343 -903 c0 -9 -11 -26 -25 -39 -14 -13 -25 -28 -25 -33 0 -6 -12 -23
-26 -39 -14 -16 -38 -42 -53 -59 -15 -16 -45 -42 -67 -56 -21 -14 -61 -38 -87
-53 -26 -15 -57 -26 -69 -24 -12 2 -23 8 -25 14 -2 5 10 26 26 45 17 18 34 37
38 41 4 4 36 30 69 57 34 28 100 75 145 105 46 30 87 55 92 56 4 0 7 -7 7 -15z"/>
<path d="M11433 4435 c-11 -8 -24 -26 -27 -40 -4 -14 -22 -58 -41 -98 -19 -41
-35 -79 -35 -86 0 -7 -38 -61 -84 -119 -47 -59 -127 -147 -178 -197 -51 -49
-109 -104 -128 -122 -19 -18 -39 -37 -45 -43 -5 -6 -28 -24 -50 -40 -22 -16
-71 -51 -109 -76 -38 -26 -97 -55 -130 -65 -34 -11 -87 -19 -118 -19 -31 0
-60 5 -63 10 -4 6 5 24 19 41 14 17 26 34 26 39 0 4 -7 13 -16 21 -12 10 -24
10 -60 1 -24 -7 -57 -12 -72 -12 -15 0 -32 -4 -37 -9 -6 -5 -30 -16 -55 -25
-25 -8 -70 -25 -100 -36 -30 -12 -64 -24 -75 -27 -11 -4 -36 -19 -55 -35 -19
-15 -38 -28 -42 -28 -4 0 -29 -23 -55 -51 -26 -28 -57 -65 -68 -82 -10 -17
-29 -42 -42 -55 -13 -14 -23 -30 -23 -37 0 -7 -6 -18 -13 -24 -8 -6 -19 -37
-26 -68 -7 -32 -17 -74 -22 -93 -6 -19 -14 -58 -18 -87 -4 -28 -6 -65 -3 -82
3 -20 15 -39 34 -52 24 -17 34 -19 51 -11 12 6 39 13 60 16 21 3 71 21 112 41
43 21 96 59 128 90 31 30 58 63 62 75 3 11 13 20 20 20 8 0 27 26 42 58 14 31
42 78 60 104 18 26 33 57 33 68 0 11 7 32 17 46 14 22 21 24 56 19 21 -4 49
-3 61 2 11 6 51 19 88 31 37 12 78 22 92 22 14 0 28 5 31 10 4 6 29 23 57 38
28 15 58 32 67 37 9 6 25 18 36 28 11 10 46 38 77 62 31 25 59 53 63 63 3 11
28 33 55 51 27 17 103 88 168 157 66 69 123 121 126 115 4 -5 -1 -29 -10 -53
-9 -24 -32 -83 -51 -133 -20 -49 -46 -111 -59 -137 -14 -27 -29 -48 -35 -48
-6 0 -8 -7 -5 -17 4 -9 -3 -31 -17 -52 -13 -20 -51 -79 -85 -131 -34 -53 -62
-99 -62 -103 0 -5 -5 -13 -10 -20 -6 -7 -30 -43 -55 -80 -25 -38 -45 -72 -45
-77 0 -5 -3 -10 -7 -12 -5 -1 -20 -21 -35 -44 -16 -22 -28 -45 -28 -51 0 -6
-4 -13 -8 -15 -5 -1 -26 -27 -46 -55 -21 -29 -41 -53 -46 -53 -4 0 -19 -17
-32 -37 -20 -30 -25 -46 -21 -76 3 -21 11 -41 19 -44 7 -2 22 1 32 9 10 7 45
42 77 78 31 36 77 94 101 130 24 36 70 103 103 150 34 47 83 119 111 160 27
41 50 81 50 88 0 6 4 12 9 12 4 0 22 29 40 64 17 35 37 69 45 75 8 7 17 27 20
45 4 19 13 39 21 46 8 7 21 10 28 7 7 -3 19 -25 26 -48 8 -25 13 -84 12 -134
-1 -49 4 -144 11 -210 11 -105 17 -130 51 -199 21 -44 54 -98 73 -122 20 -24
55 -54 79 -68 24 -14 72 -33 107 -41 34 -8 79 -15 98 -15 20 0 59 8 87 18 28
10 57 23 65 29 8 7 15 34 16 62 2 49 1 51 -25 52 -16 0 -53 0 -85 -1 -31 -1
-83 4 -116 10 -54 11 -63 16 -98 63 -21 27 -43 55 -49 61 -6 6 -23 58 -38 116
-14 58 -31 130 -36 160 -5 30 -12 107 -16 170 -5 91 -11 126 -31 169 -13 29
-24 57 -24 61 0 4 17 10 39 14 21 3 82 29 136 56 53 28 111 61 129 73 17 12
59 46 94 76 34 29 107 103 162 165 55 61 111 123 125 138 19 19 25 33 20 48
-4 13 1 31 14 49 12 16 21 34 21 40 0 6 -12 14 -26 17 -21 5 -33 -1 -70 -37
-26 -25 -44 -52 -44 -65 0 -13 -8 -25 -18 -28 -9 -3 -64 -52 -121 -108 -57
-56 -129 -121 -160 -144 -31 -23 -63 -48 -72 -56 -8 -7 -51 -30 -95 -51 -43
-21 -92 -45 -107 -53 -16 -8 -33 -12 -38 -9 -5 3 3 36 16 73 14 37 29 76 34
87 5 11 23 85 40 165 17 80 31 156 31 171 0 14 5 30 11 36 8 8 8 17 0 32 -7
12 -22 21 -34 21 -12 0 -32 -7 -44 -15z m-1226 -1055 c-12 -30 -27 -59 -33
-65 -7 -5 -15 -23 -19 -40 -3 -16 -27 -61 -53 -100 -25 -38 -74 -97 -108 -131
-40 -39 -74 -63 -94 -68 -18 -3 -45 -6 -60 -6 -21 0 -29 6 -34 25 -4 14 1 43
11 67 9 24 35 67 57 96 23 29 52 69 66 87 14 19 47 51 74 72 27 21 84 59 125
84 42 25 79 43 83 40 5 -4 -2 -32 -15 -61z"/>
<path d="M7069 4436 c-1 -1 -2 -25 -4 -54 -1 -29 2 -55 7 -58 4 -3 8 -23 8
-45 0 -22 7 -51 16 -64 11 -17 26 -25 45 -25 15 0 31 5 34 11 4 6 12 41 17 77
6 37 11 87 12 112 l1 45 -67 1 c-38 0 -69 0 -69 0z"/>
<path d="M8804 4331 c-22 -26 -74 -90 -117 -142 -42 -52 -94 -112 -115 -134
-20 -22 -90 -96 -155 -163 -65 -67 -122 -122 -125 -122 -4 0 -38 -30 -76 -65
-38 -36 -70 -65 -72 -65 -2 0 -14 -10 -28 -22 -14 -13 -53 -49 -88 -80 -35
-32 -130 -111 -213 -176 -82 -65 -179 -135 -215 -156 -36 -21 -67 -41 -70 -45
-3 -3 -39 -23 -82 -43 -42 -21 -80 -38 -86 -38 -5 0 -23 -7 -41 -16 -18 -9
-67 -18 -110 -21 -75 -5 -80 -4 -91 17 -7 13 -10 45 -8 74 2 29 14 73 27 98
12 25 31 56 41 68 11 13 20 29 20 37 0 7 9 13 20 13 11 0 20 -5 20 -11 0 -6
-6 -17 -14 -24 -7 -7 -16 -44 -20 -81 -6 -58 -4 -72 12 -93 16 -22 27 -26 64
-25 25 1 66 13 94 27 27 14 75 48 106 76 31 29 60 60 63 71 3 10 15 22 26 25
10 4 19 12 19 18 0 7 9 23 20 37 11 14 20 37 20 52 0 15 4 30 10 33 5 3 7 19
4 34 -4 16 -1 32 5 35 6 4 11 24 11 45 0 26 -7 44 -21 57 -17 15 -36 19 -103
19 -68 0 -94 -5 -161 -32 -44 -18 -105 -48 -135 -67 -30 -19 -74 -50 -97 -68
-24 -18 -43 -37 -43 -41 0 -5 -11 -23 -25 -41 -13 -17 -37 -59 -52 -91 -25
-56 -27 -68 -25 -175 1 -63 8 -133 14 -155 6 -22 20 -49 30 -61 10 -12 42 -29
71 -38 48 -17 57 -17 117 -3 36 9 103 33 150 55 47 21 121 60 165 86 44 26
100 62 124 79 24 18 55 43 70 57 14 13 49 40 76 58 28 19 63 49 78 68 16 19
35 34 43 34 8 0 17 7 20 15 4 8 12 15 20 15 8 0 14 -4 14 -9 0 -5 -9 -20 -20
-33 -10 -12 -54 -70 -97 -127 -43 -57 -82 -111 -88 -120 -5 -8 -18 -22 -28
-31 -11 -9 -20 -34 -23 -64 -2 -27 -2 -57 1 -67 4 -13 16 -19 34 -19 17 0 38
10 52 25 13 14 39 42 57 63 18 20 55 62 82 92 28 30 67 80 88 109 20 30 44 62
52 71 8 9 22 27 30 40 8 12 21 28 28 34 7 6 20 18 27 26 8 8 55 66 105 129 49
62 90 117 90 120 0 4 15 24 34 44 28 31 39 37 60 31 15 -3 35 -19 46 -34 11
-16 20 -39 20 -52 -1 -12 -13 -44 -28 -70 -15 -26 -50 -87 -79 -135 -28 -49
-57 -102 -63 -118 -6 -17 -14 -65 -17 -108 -3 -58 -1 -87 11 -110 8 -18 26
-43 39 -55 14 -13 52 -30 87 -38 34 -8 65 -12 69 -10 4 3 25 -1 47 -9 23 -8
57 -11 84 -8 25 3 52 12 61 20 14 11 25 12 62 2 35 -8 67 -8 133 1 48 6 96 16
107 21 10 6 25 8 34 5 8 -4 46 5 85 19 38 14 80 25 93 25 12 0 25 6 28 14 3 8
18 17 34 21 15 3 47 23 70 43 27 24 45 49 49 70 6 32 6 32 -31 32 -20 0 -76
-13 -124 -29 -47 -15 -107 -29 -132 -29 -26 0 -55 -5 -65 -10 -11 -5 -68 -13
-129 -16 -60 -4 -162 -7 -225 -7 -102 -1 -122 2 -172 25 -57 25 -58 27 -58 66
0 25 12 66 33 108 17 37 39 74 48 82 9 8 27 47 42 85 14 39 33 94 42 123 9 29
15 67 13 83 -4 28 -1 32 53 60 32 16 65 29 72 29 8 0 22 9 32 20 10 11 28 20
40 20 13 0 28 7 35 16 8 8 34 27 59 42 25 15 98 69 161 121 63 51 123 101 134
110 10 9 46 45 80 80 33 34 64 74 68 87 3 13 4 42 1 65 -3 22 -11 43 -18 45
-7 3 -27 -8 -46 -24 -19 -16 -86 -74 -149 -128 -63 -55 -142 -120 -175 -145
-33 -25 -93 -67 -133 -93 -40 -25 -79 -46 -88 -46 -8 0 -30 -10 -47 -23 -18
-13 -63 -35 -100 -50 -38 -15 -73 -25 -78 -21 -5 3 -1 17 10 33 11 15 33 41
49 57 16 16 60 72 97 124 38 52 76 113 86 135 10 22 19 48 19 59 0 10 12 40
26 67 15 26 24 55 21 63 -4 9 -17 16 -30 16 -17 0 -36 -15 -63 -49z m-1269
-861 c3 -5 0 -20 -6 -32 -7 -13 -37 -47 -66 -75 -30 -29 -56 -53 -58 -53 -2 0
-10 3 -19 6 -8 3 -18 22 -22 42 -3 21 -13 43 -22 50 -10 7 -12 15 -6 21 5 5
45 18 89 29 44 12 85 21 92 21 6 1 15 -3 18 -9z"/>
<path d="M2533 4270 c-13 -5 -23 -15 -23 -21 0 -7 11 -9 34 -5 24 5 37 2 47
-10 11 -14 11 -18 -4 -29 -9 -7 -17 -17 -17 -24 0 -6 5 -11 10 -11 6 0 10 -7
10 -17 0 -9 -20 -50 -45 -92 -24 -42 -77 -114 -117 -161 -41 -47 -132 -134
-203 -193 -72 -59 -153 -125 -182 -147 -29 -22 -57 -40 -63 -40 -5 0 -10 -4
-10 -9 0 -5 -39 -35 -86 -68 -47 -32 -117 -77 -156 -100 -38 -24 -73 -43 -77
-43 -3 0 -32 -13 -63 -29 -31 -16 -59 -27 -61 -24 -3 3 -2 15 2 27 5 11 14 53
20 91 7 39 19 108 28 155 11 55 17 141 17 246 1 141 -1 164 -16 181 -10 11
-18 29 -18 40 0 11 -17 34 -40 52 -35 28 -49 33 -95 33 -37 0 -64 -5 -82 -18
-16 -10 -51 -41 -79 -68 -27 -28 -68 -82 -89 -120 -21 -38 -45 -87 -52 -109
-8 -22 -21 -76 -29 -120 -12 -60 -14 -109 -8 -191 3 -61 15 -137 25 -170 11
-32 19 -71 19 -86 0 -15 7 -33 15 -40 8 -7 15 -19 15 -26 0 -8 3 -14 8 -14 4
0 25 -16 47 -35 21 -19 35 -38 31 -42 -4 -4 -24 -9 -44 -9 -21 -1 -55 -4 -77
-8 -22 -4 -49 -11 -60 -16 -11 -5 -38 -14 -60 -20 -22 -7 -100 -43 -173 -81
-87 -45 -165 -94 -225 -143 -51 -41 -105 -88 -122 -104 -16 -17 -36 -36 -43
-44 -7 -7 -31 -31 -53 -53 -23 -22 -67 -71 -98 -110 -32 -38 -77 -101 -100
-140 l-43 -70 6 -100 c3 -55 11 -117 19 -138 8 -21 26 -50 40 -65 23 -22 37
-27 95 -30 59 -4 78 0 147 29 44 18 114 53 155 78 41 25 77 49 78 53 2 4 13 8
24 8 13 0 50 29 94 74 40 40 80 76 88 79 9 4 16 11 16 17 0 6 12 21 28 35 15
13 45 39 67 57 22 18 56 50 75 72 19 21 43 47 53 57 9 10 17 23 17 27 0 5 18
32 39 61 21 28 44 65 51 81 7 17 16 30 21 30 5 0 23 21 39 47 17 26 30 55 30
65 0 9 10 22 21 29 12 6 37 9 57 6 20 -4 49 0 70 8 19 9 60 18 91 21 31 3 66
7 79 10 12 2 22 11 22 18 0 8 -22 34 -48 58 -27 23 -54 53 -61 66 -11 20 -9
23 14 32 15 6 32 10 39 10 7 0 48 19 92 41 43 23 121 66 172 96 50 29 92 58
92 63 0 6 6 10 14 10 7 0 38 19 67 42 30 23 72 58 94 77 22 19 89 86 149 150
59 64 133 151 163 194 30 42 58 77 63 77 5 0 12 9 15 21 4 11 19 35 34 52 15
18 38 59 51 92 13 33 27 65 32 72 6 7 7 21 3 33 -4 12 -2 26 3 33 5 7 6 40 2
78 -4 36 -15 77 -25 92 -13 20 -25 27 -49 26 -17 0 -41 -4 -53 -9z m-1126
-465 c12 -8 26 -35 33 -63 7 -30 9 -90 6 -158 -3 -60 -12 -134 -20 -164 -8
-30 -25 -85 -37 -122 -13 -37 -29 -70 -37 -73 -8 -3 -25 1 -38 10 -13 8 -28
15 -33 15 -6 0 -21 10 -33 23 -13 12 -29 45 -35 72 -7 28 -14 64 -17 80 -3 17
-1 55 4 85 5 30 13 78 19 107 5 28 16 64 24 80 9 15 35 49 60 76 24 26 53 47
63 47 11 0 29 -7 41 -15z m-237 -970 c11 -13 9 -21 -9 -46 -12 -17 -36 -51
-54 -77 -17 -26 -48 -68 -69 -93 -21 -26 -38 -51 -38 -56 0 -5 -14 -19 -31
-32 -16 -12 -38 -35 -48 -51 -9 -16 -34 -43 -55 -59 -21 -17 -64 -53 -95 -81
-31 -28 -85 -69 -120 -93 -35 -23 -91 -59 -125 -79 -33 -21 -83 -44 -110 -53
-27 -8 -71 -15 -98 -15 l-48 0 0 39 c0 22 6 44 15 51 8 7 15 25 15 41 0 18 6
30 19 34 10 3 32 24 47 47 16 23 60 71 97 107 38 37 85 81 105 100 20 19 55
46 77 60 23 14 61 43 86 64 26 20 50 37 55 37 5 0 25 11 44 24 19 13 46 26 60
30 14 4 61 23 105 43 44 19 96 43 115 53 19 11 38 19 41 20 4 0 12 -7 19 -15z"/>
<path d="M6293 4098 c-44 -46 -108 -116 -142 -155 -34 -40 -70 -77 -81 -83
-12 -6 -20 -21 -20 -35 0 -14 -26 -63 -60 -113 -33 -48 -85 -121 -115 -162
-30 -41 -64 -93 -76 -115 -12 -22 -36 -59 -54 -82 -18 -24 -48 -74 -66 -113
-19 -38 -39 -70 -45 -70 -7 0 -14 7 -17 15 -4 8 -39 31 -78 51 -53 26 -98 40
-165 50 -51 8 -101 13 -111 12 -10 0 -26 0 -35 0 -10 1 -18 8 -18 15 0 7 14
27 30 45 17 18 30 37 30 41 0 5 25 36 55 70 30 34 55 68 55 76 0 7 8 16 18 19
9 3 32 25 50 48 18 24 49 66 69 93 20 28 49 67 65 87 15 20 28 42 28 48 0 6
10 30 21 52 19 37 20 48 10 90 -9 40 -8 54 6 82 9 19 13 42 9 51 -3 9 -13 15
-22 13 -9 -2 -31 -30 -48 -63 -18 -33 -45 -80 -61 -105 -15 -25 -62 -87 -104
-138 -42 -51 -104 -128 -138 -170 -34 -42 -83 -108 -109 -146 -26 -37 -54 -70
-61 -73 -7 -3 -13 -14 -13 -24 0 -10 -4 -19 -9 -19 -5 0 -35 -37 -67 -82 -31
-46 -83 -127 -115 -181 -33 -55 -59 -105 -59 -113 0 -7 -7 -30 -16 -51 -9 -21
-20 -47 -25 -58 -4 -11 -12 -49 -18 -85 -6 -36 -9 -90 -7 -121 2 -38 11 -66
26 -87 12 -16 32 -35 44 -42 18 -9 30 -9 61 4 34 14 37 19 30 43 -4 16 -7 44
-7 63 1 19 -4 38 -11 42 -7 4 -22 8 -34 8 -19 0 -21 3 -14 23 5 12 16 48 26
80 9 32 27 74 40 93 13 20 27 44 30 54 3 10 12 21 20 24 8 3 30 -9 49 -26 20
-17 66 -41 103 -54 38 -12 100 -28 138 -35 44 -9 131 -13 234 -13 90 1 191 7
225 14 33 6 102 20 151 31 50 11 128 32 175 46 47 15 108 37 135 49 28 12 84
34 125 49 41 14 80 27 85 28 6 1 11 -33 13 -82 l3 -83 62 6 c34 4 67 12 72 17
6 6 10 29 10 52 1 34 8 49 36 80 20 22 51 68 70 105 25 48 33 79 34 116 0 51
0 51 -34 54 -19 2 -44 -1 -55 -6 -12 -6 -28 -13 -36 -15 -8 -3 -53 -22 -100
-42 -47 -20 -149 -61 -228 -91 -79 -30 -178 -64 -220 -76 -42 -11 -115 -29
-162 -39 -47 -10 -95 -21 -106 -24 -12 -4 -25 -2 -28 4 -4 6 7 30 24 53 17 24
42 59 55 78 14 19 33 48 42 63 10 16 42 61 71 100 28 40 52 78 52 84 0 7 4 13
9 13 5 0 27 28 49 63 22 34 69 103 104 152 34 50 92 129 127 175 36 47 80 103
99 124 33 37 34 41 28 97 -3 34 -2 61 4 64 6 3 10 15 10 26 0 13 -7 19 -24 19
-16 0 -48 -25 -103 -82z m-893 -998 c3 -1 12 -3 20 -4 8 -1 30 -6 48 -10 17
-5 32 -14 32 -22 0 -10 -13 -12 -52 -8 -29 3 -80 10 -113 16 -33 5 -73 11 -89
12 -16 0 -31 7 -33 14 -3 6 5 16 17 20 12 4 54 3 93 -4 40 -6 74 -13 77 -14z"/>
<path d="M17688 2533 c-10 -2 -18 -7 -18 -9 0 -3 -5 -38 -11 -77 -5 -40 -19
-100 -30 -134 -19 -57 -20 -80 -15 -263 5 -164 9 -204 21 -217 9 -8 17 -14 19
-12 1 2 10 15 19 29 9 13 17 43 17 65 0 22 7 67 15 98 8 32 15 68 15 81 0 13
7 41 17 62 9 22 17 58 18 81 1 24 8 56 15 73 10 24 19 30 42 30 21 0 39 11 63
38 21 22 35 47 35 63 0 15 -11 36 -27 51 -19 17 -44 28 -73 31 -25 3 -58 8
-75 11 -16 2 -38 2 -47 -1z"/>
<path d="M16595 2445 c-16 -9 -37 -23 -45 -33 -8 -9 -41 -33 -72 -52 -32 -19
-58 -38 -58 -42 0 -4 -5 -8 -11 -8 -6 0 -43 -20 -82 -44 -40 -24 -104 -64
-144 -90 -39 -25 -76 -46 -81 -46 -5 0 -17 -11 -26 -25 -9 -14 -24 -25 -32
-25 -9 0 -34 -16 -57 -35 -22 -19 -44 -35 -48 -35 -4 0 -10 -9 -14 -19 -3 -11
-16 -23 -27 -27 -12 -4 -38 -21 -57 -39 -20 -18 -74 -67 -121 -110 -47 -42
-111 -105 -143 -139 -33 -33 -89 -97 -126 -141 -36 -44 -73 -90 -81 -102 -8
-11 -36 -52 -61 -90 -25 -37 -66 -99 -91 -138 -25 -38 -53 -86 -63 -105 -9
-19 -23 -42 -29 -50 -7 -8 -27 -62 -46 -120 -18 -58 -39 -131 -46 -163 -6 -32
-9 -68 -7 -80 3 -12 24 -41 45 -64 31 -31 50 -43 84 -48 42 -6 47 -4 111 48
38 30 95 83 129 118 34 35 88 93 120 129 33 36 83 92 111 125 27 33 73 94 102
135 28 41 51 78 51 82 0 4 17 43 39 87 21 43 42 101 46 127 4 27 10 54 15 59
4 6 10 52 14 103 5 87 4 97 -21 149 l-26 56 26 21 c14 12 47 37 74 56 26 19
74 56 106 83 32 26 75 56 96 66 20 11 59 38 86 60 27 23 54 41 58 41 5 0 37
17 70 37 34 20 67 42 72 48 6 5 22 16 37 22 24 11 29 10 37 -6 8 -14 -10 -58
-89 -211 -54 -106 -101 -195 -104 -197 -3 -3 -43 4 -88 16 -46 11 -94 21 -107
21 -12 0 -34 -9 -48 -20 -14 -11 -33 -20 -43 -20 -9 0 -26 -10 -38 -23 -16
-17 -26 -46 -34 -103 -11 -76 -10 -82 14 -135 14 -30 39 -71 56 -91 24 -26 42
-37 73 -41 25 -3 54 0 77 10 19 8 51 26 69 40 19 15 45 46 59 70 14 23 30 43
35 43 5 0 21 -7 34 -16 14 -9 25 -20 25 -25 0 -6 -8 -13 -17 -16 -10 -4 -52
-31 -93 -61 -41 -30 -95 -69 -120 -86 -25 -17 -80 -65 -123 -106 -44 -41 -110
-113 -147 -160 -38 -48 -85 -117 -104 -155 -20 -39 -36 -77 -36 -85 0 -9 -5
-21 -10 -26 -6 -6 -13 -53 -17 -106 -4 -66 -2 -97 6 -102 6 -4 11 -18 11 -30
0 -13 7 -30 16 -37 9 -7 20 -24 25 -36 5 -13 21 -28 36 -33 16 -6 37 -15 49
-21 15 -8 33 -7 65 1 24 7 67 19 94 29 28 9 66 28 85 42 19 15 46 32 60 39 14
7 40 25 58 39 18 14 47 38 63 53 17 15 43 35 59 45 17 9 30 20 30 23 0 3 18
26 40 50 22 25 47 52 55 61 8 8 28 42 45 75 16 32 30 65 30 72 0 7 8 27 17 45
9 18 26 68 38 113 13 50 21 110 20 155 0 41 -4 82 -9 91 -6 13 -3 20 8 24 11
4 26 -2 41 -16 23 -22 27 -22 66 -10 l41 14 -7 45 c-3 25 -14 57 -24 71 -10
13 -31 32 -47 41 -19 12 -52 18 -96 18 -67 1 -68 1 -92 39 -13 21 -41 52 -61
69 l-38 30 41 69 c22 38 52 96 66 127 14 32 39 79 56 104 17 25 47 76 66 114
19 38 41 95 49 126 8 32 15 73 15 93 0 25 -7 43 -22 57 -13 11 -32 23 -43 27
-11 3 -33 -1 -50 -9z m-842 -771 c3 -3 0 -15 -6 -26 -9 -16 -9 -22 1 -25 7 -3
19 -11 27 -20 8 -8 13 -18 10 -23 -3 -5 -10 -35 -16 -67 -6 -32 -24 -98 -40
-146 -17 -49 -37 -96 -44 -105 -8 -9 -44 -55 -80 -102 -36 -47 -75 -97 -88
-111 -12 -14 -58 -68 -102 -119 -44 -50 -93 -105 -110 -120 -16 -16 -50 -47
-75 -70 -27 -25 -53 -40 -65 -38 -16 2 -22 14 -28 57 -5 29 -6 68 -3 86 4 18
27 74 52 124 25 51 85 152 134 225 49 74 126 176 171 227 45 52 118 131 163
177 44 45 83 82 87 82 3 0 8 -3 12 -6z m464 -21 c3 -7 -10 -21 -27 -32 -27
-16 -38 -17 -64 -9 -17 6 -37 16 -45 23 -7 7 -11 18 -7 23 3 5 36 9 73 8 42 0
68 -5 70 -13z m283 -238 c0 -8 10 -33 21 -55 19 -36 20 -50 14 -118 -5 -54
-16 -95 -36 -137 -16 -33 -29 -65 -29 -72 0 -7 -4 -13 -8 -13 -4 0 -15 -12
-24 -27 -9 -16 -40 -55 -70 -89 -29 -34 -86 -88 -125 -120 -40 -32 -93 -74
-117 -92 -25 -17 -71 -39 -103 -47 -31 -8 -71 -15 -88 -15 -16 0 -45 9 -62 20
l-33 20 0 92 c0 72 4 99 18 119 9 15 30 46 46 69 15 24 56 73 91 110 34 36 64
70 66 76 2 5 40 39 84 77 44 37 85 72 90 77 6 6 33 25 60 43 28 18 70 44 95
58 25 15 54 29 65 32 11 2 26 5 33 6 6 0 12 -6 12 -14z"/>
<path d="M13483 2188 c-6 -7 -13 -29 -17 -48 -3 -19 -18 -64 -32 -100 -15 -36
-37 -86 -50 -111 -13 -26 -38 -69 -56 -95 -17 -27 -57 -80 -87 -119 -30 -38
-71 -88 -90 -111 -20 -22 -43 -48 -51 -58 -8 -9 -49 -51 -90 -92 -41 -42 -136
-136 -210 -209 -74 -73 -166 -159 -205 -192 -38 -33 -114 -90 -167 -126 -54
-37 -103 -68 -110 -69 -8 -2 -12 5 -10 17 2 11 30 54 63 95 32 41 65 82 72 90
7 8 35 48 63 89 27 41 59 85 72 97 12 13 22 28 22 34 0 5 6 10 13 10 6 1 27
21 45 46 19 25 40 61 48 80 8 19 16 59 17 87 2 52 2 52 -30 55 -17 2 -46 -4
-62 -13 -17 -8 -31 -20 -31 -24 0 -5 -20 -33 -46 -63 -25 -29 -73 -93 -107
-141 -48 -68 -74 -94 -114 -117 -29 -17 -53 -35 -53 -40 0 -6 -7 -10 -15 -10
-8 0 -30 -10 -48 -22 -19 -13 -87 -56 -151 -97 -64 -40 -116 -78 -116 -82 0
-5 -5 -9 -11 -9 -7 0 -37 -17 -68 -37 -31 -21 -76 -49 -101 -62 -25 -13 -54
-32 -65 -42 -11 -10 -61 -38 -110 -62 -50 -25 -127 -57 -172 -72 -46 -14 -120
-33 -165 -40 -46 -7 -86 -11 -90 -8 -5 2 -8 12 -8 21 0 9 22 32 48 50 26 17
85 63 132 102 47 38 101 82 120 96 19 15 62 58 95 95 32 37 61 71 63 77 1 5
22 29 46 54 24 25 67 85 96 133 29 48 68 126 87 174 18 47 45 136 59 196 14
61 28 158 31 218 l6 107 -40 0 c-37 0 -45 -5 -100 -67 -32 -38 -88 -105 -124
-151 -35 -46 -90 -117 -121 -158 -32 -41 -58 -77 -58 -80 0 -3 -19 -31 -42
-62 -24 -31 -57 -77 -75 -102 -17 -25 -66 -95 -107 -157 -42 -61 -80 -114 -86
-118 -5 -3 -10 -13 -10 -20 0 -8 -15 -38 -34 -67 -18 -29 -47 -80 -63 -113
-17 -33 -33 -72 -37 -87 -4 -18 -24 -38 -63 -63 -32 -20 -90 -51 -130 -70 -40
-19 -114 -50 -165 -69 -51 -19 -115 -39 -143 -45 -27 -6 -86 -17 -130 -25 -44
-8 -119 -13 -167 -12 -49 1 -90 5 -93 8 -3 3 3 21 14 39 12 19 26 45 33 59 7
14 33 57 59 95 26 39 54 77 63 84 9 7 16 21 16 31 0 10 7 23 15 30 13 11 13
16 -2 41 -16 26 -16 29 0 47 9 10 17 24 17 30 0 7 -11 12 -24 12 -17 0 -40
-18 -78 -62 -30 -35 -77 -101 -105 -148 -28 -47 -64 -112 -82 -145 -25 -48
-32 -74 -33 -126 -2 -48 2 -73 15 -92 9 -15 26 -31 37 -37 10 -6 68 -14 128
-19 67 -5 127 -5 153 1 24 5 69 13 99 18 31 5 103 25 160 45 58 20 152 59 210
87 58 28 119 57 136 64 30 13 32 12 62 -25 20 -25 42 -41 64 -45 18 -4 67 -6
108 -6 45 1 81 7 90 14 8 7 29 16 47 19 17 3 62 20 100 38 37 17 100 46 138
65 39 19 91 47 117 62 25 15 70 44 100 65 29 21 105 71 168 112 63 42 132 87
154 101 26 17 42 22 48 16 7 -7 0 -28 -21 -65 -22 -39 -34 -76 -40 -127 -6
-49 -6 -80 1 -96 6 -12 17 -25 25 -28 8 -3 31 3 51 13 20 11 66 34 102 51 36
18 93 53 128 79 35 25 85 62 112 82 27 20 67 52 88 70 22 19 47 42 58 51 10 9
25 23 33 30 8 7 69 67 136 133 67 66 130 132 139 146 9 15 28 29 42 32 13 2
27 0 30 -5 3 -5 -5 -26 -18 -46 -13 -20 -37 -66 -53 -102 -15 -36 -39 -82 -52
-102 -12 -21 -23 -43 -23 -49 0 -7 -13 -54 -30 -106 -25 -77 -30 -110 -30
-191 0 -79 4 -103 20 -130 11 -18 20 -41 20 -50 0 -10 13 -30 28 -45 16 -16
52 -33 86 -42 31 -8 68 -15 82 -15 13 0 32 4 42 9 9 6 44 18 77 27 33 10 74
27 90 38 17 12 32 24 33 29 2 4 13 7 25 7 12 0 41 17 64 38 23 20 62 63 87 94
31 38 55 84 72 135 19 55 27 103 29 163 1 49 -4 113 -13 150 -12 55 -23 73
-66 119 -28 29 -87 77 -132 107 -45 30 -86 54 -93 54 -6 0 -11 5 -11 10 0 6
14 35 31 65 17 30 35 58 40 61 5 3 9 12 9 20 0 7 14 44 31 81 17 38 40 88 51
113 11 25 26 57 34 72 8 15 28 68 45 119 17 51 31 113 31 138 1 25 -2 61 -6
79 -7 28 -12 32 -41 32 -18 0 -37 -6 -42 -12z m-1650 -597 c-2 -12 -21 -59
-42 -104 -22 -45 -63 -116 -91 -157 -28 -41 -62 -91 -76 -110 -14 -19 -33 -44
-43 -55 -10 -11 -56 -56 -102 -100 -46 -44 -106 -99 -132 -123 -26 -24 -52
-40 -57 -37 -6 3 -10 9 -10 13 0 4 18 32 40 62 22 30 50 68 63 84 12 16 39 54
60 84 20 30 37 61 37 68 0 7 6 17 14 21 7 4 30 33 51 63 22 30 54 73 72 95 18
22 43 53 55 69 13 15 30 35 39 43 9 8 27 25 40 38 13 12 32 35 42 49 10 15 24
25 30 23 7 -2 11 -14 10 -26z m1469 -366 c40 -24 91 -60 112 -80 22 -19 43
-35 46 -35 4 0 16 -20 29 -44 12 -25 24 -67 28 -95 3 -31 1 -63 -7 -83 -7 -18
-22 -52 -33 -75 -11 -24 -29 -45 -39 -49 -10 -3 -18 -10 -18 -16 0 -6 -17 -29
-37 -52 -24 -26 -61 -51 -103 -69 -47 -21 -88 -30 -147 -34 -59 -4 -83 -2 -83
6 0 6 -10 11 -23 11 -15 0 -28 11 -41 34 -14 27 -16 45 -11 92 4 33 15 75 25
94 9 19 23 53 29 75 7 22 22 65 34 95 12 30 24 57 28 60 3 3 27 48 53 100 26
52 53 98 59 102 7 4 15 8 19 8 4 0 40 -20 80 -45z"/>
<path d="M18505 2112 c-11 -4 -35 -16 -52 -27 -18 -10 -33 -23 -33 -27 0 -4
-8 -8 -17 -9 -10 0 -40 -28 -68 -62 -27 -33 -63 -82 -79 -107 -16 -25 -51 -90
-79 -145 -27 -55 -54 -101 -58 -103 -5 -2 -9 -14 -9 -27 0 -12 -11 -47 -24
-76 -13 -30 -27 -70 -31 -89 -4 -19 -11 -41 -16 -50 -4 -8 -12 -42 -16 -75 -4
-33 -7 -69 -6 -80 0 -11 4 -52 7 -91 3 -39 6 -77 8 -84 2 -7 -48 -47 -110 -89
-61 -42 -133 -89 -159 -106 -26 -16 -100 -56 -163 -87 -63 -32 -122 -58 -130
-58 -9 0 -20 -4 -26 -10 -5 -5 -38 -16 -74 -25 -36 -9 -74 -17 -85 -18 -14 -2
-20 4 -18 18 1 11 8 40 17 65 9 25 28 88 43 140 14 52 37 118 50 145 12 28 38
71 56 97 19 25 51 61 71 78 33 29 36 37 36 86 l0 54 -32 -7 c-18 -3 -48 -16
-66 -28 -18 -12 -58 -51 -88 -86 -31 -35 -69 -89 -84 -120 -16 -31 -38 -85
-50 -120 -11 -35 -25 -73 -29 -84 -5 -11 -15 -52 -21 -92 -8 -41 -11 -106 -7
-152 4 -62 10 -87 27 -108 17 -21 31 -28 66 -30 29 -2 72 6 119 22 41 14 121
49 177 77 57 27 113 54 126 59 12 5 22 15 22 22 0 8 19 20 43 27 23 8 59 28
79 45 21 18 61 44 90 60 29 16 71 43 92 62 22 18 43 33 48 33 5 0 25 -10 46
-23 32 -20 48 -23 115 -20 50 1 85 8 99 18 13 8 32 15 43 15 12 0 30 8 41 18
10 9 35 23 53 29 28 10 37 10 43 0 4 -6 8 -27 8 -45 0 -19 7 -59 16 -90 9 -32
27 -78 40 -104 14 -27 30 -48 36 -48 6 0 19 -6 27 -14 9 -8 41 -20 71 -26 30
-6 80 -11 110 -11 30 1 80 3 110 6 30 2 91 12 135 21 44 9 100 18 125 21 24 3
53 11 65 18 11 6 56 20 100 30 44 9 87 21 97 26 9 4 45 15 80 24 34 9 97 31
138 49 41 18 102 44 135 58 33 14 80 33 105 42 25 9 72 31 105 50 47 26 60 38
60 57 0 15 -7 25 -18 27 -9 2 -51 -10 -93 -27 -42 -17 -84 -31 -93 -31 -9 0
-21 -4 -26 -9 -6 -5 -55 -26 -110 -47 -55 -20 -116 -41 -135 -45 -19 -4 -82
-22 -140 -39 -58 -17 -143 -38 -190 -46 -47 -9 -93 -20 -103 -26 -12 -6 -23
-6 -32 2 -10 9 -20 7 -39 -5 -20 -13 -37 -16 -73 -10 -27 4 -54 12 -61 17 -7
6 -31 8 -54 5 -23 -3 -80 1 -127 10 -48 9 -92 20 -98 26 -8 6 -13 35 -13 78 0
45 8 91 22 131 11 35 31 79 44 99 13 20 48 59 78 85 31 27 56 53 56 57 0 5 28
37 63 72 34 35 103 108 154 162 50 54 104 116 119 138 14 22 38 50 51 63 13
12 31 22 39 22 7 0 14 4 14 9 0 5 -10 11 -22 13 -20 3 -22 8 -20 46 2 24 -2
50 -8 58 -7 7 -21 14 -31 14 -11 0 -27 -4 -37 -9 -9 -6 -42 -21 -72 -34 -30
-13 -91 -52 -135 -87 -44 -35 -83 -68 -87 -73 -3 -6 -22 -29 -42 -51 -19 -23
-52 -61 -74 -86 -21 -25 -51 -63 -67 -85 -17 -22 -37 -53 -47 -70 -9 -16 -31
-59 -48 -95 -17 -36 -40 -81 -50 -100 -13 -25 -36 -44 -79 -66 -34 -17 -89
-41 -123 -54 -35 -12 -79 -25 -99 -27 -21 -3 -40 0 -43 6 -4 6 1 14 11 18 10
4 29 16 42 27 14 12 66 62 116 111 49 50 113 116 142 148 28 33 54 71 58 85 4
15 23 50 44 77 20 28 45 73 55 100 10 28 24 57 32 65 7 8 13 26 13 40 0 14 6
57 12 95 7 43 9 99 5 147 -7 67 -12 81 -41 115 -32 38 -35 39 -102 40 -37 1
-77 -2 -88 -5z m128 -192 c13 -27 16 -51 13 -105 -3 -38 -13 -89 -22 -112 -9
-24 -21 -43 -26 -43 -4 0 -8 -10 -8 -22 0 -13 -13 -43 -29 -68 -16 -25 -39
-54 -50 -66 -12 -12 -21 -25 -21 -29 0 -5 -7 -15 -15 -24 -9 -9 -45 -47 -80
-84 -36 -38 -65 -72 -65 -77 0 -5 -8 -11 -18 -14 -9 -3 -42 -31 -72 -61 -30
-30 -60 -55 -67 -55 -6 0 -13 8 -15 18 -2 9 2 51 9 92 7 41 33 131 59 200 26
69 53 130 61 136 7 6 13 16 13 21 0 6 18 43 40 83 22 40 40 76 40 81 0 4 9 11
20 14 11 3 20 13 20 20 0 8 12 27 28 42 15 15 41 37 57 47 17 11 34 25 38 33
5 9 21 13 40 11 25 -2 36 -11 50 -38z"/>
<path d="M8865 1628 c-22 -6 -47 -14 -55 -18 -8 -5 -73 -38 -145 -75 -71 -37
-146 -80 -165 -95 -19 -15 -50 -35 -68 -44 -19 -10 -72 -44 -118 -77 -46 -33
-117 -93 -157 -133 -39 -40 -90 -95 -111 -121 -21 -26 -50 -68 -63 -94 -17
-31 -26 -70 -30 -121 -4 -60 -2 -83 11 -108 9 -18 28 -37 41 -42 14 -5 53 -8
87 -6 35 2 72 7 83 11 11 3 35 13 53 21 18 8 38 14 45 14 7 0 47 16 88 37 41
20 110 61 154 90 44 30 94 64 110 77 17 12 48 40 70 62 22 21 62 71 88 110 26
38 47 75 47 82 0 7 4 12 9 12 5 0 14 14 21 30 7 17 18 60 25 97 7 38 9 77 5
89 -5 11 -5 26 -1 33 4 6 19 14 33 16 15 3 31 -1 38 -10 8 -10 10 -29 6 -54
-3 -21 -13 -62 -22 -92 -9 -30 -36 -115 -61 -189 -24 -74 -48 -144 -53 -155
-4 -11 -11 -35 -14 -54 -4 -19 -17 -58 -31 -87 -14 -29 -25 -57 -25 -62 0 -5
-42 -40 -92 -78 -51 -37 -114 -83 -140 -101 -26 -18 -49 -33 -51 -33 -2 0 -19
-13 -38 -29 -19 -16 -59 -49 -89 -73 -53 -42 -55 -46 -64 -107 -9 -60 -8 -64
17 -88 20 -20 39 -27 81 -31 44 -4 60 0 84 17 17 11 39 21 49 21 10 0 39 21
64 48 25 26 68 74 96 107 27 33 58 74 68 90 10 17 35 52 54 78 20 26 49 56 66
67 16 10 48 32 70 49 22 16 73 53 113 80 41 28 77 51 80 51 4 0 13 9 20 20 7
11 23 20 36 20 13 0 29 6 35 14 6 8 22 16 35 18 13 3 31 1 40 -4 9 -5 16 -13
16 -18 0 -4 -16 -28 -35 -52 -19 -23 -41 -50 -48 -58 -6 -8 -24 -37 -40 -65
-15 -27 -40 -75 -56 -105 -16 -30 -39 -95 -51 -145 -14 -53 -22 -117 -22 -156
1 -37 6 -78 12 -93 5 -14 16 -26 23 -26 8 0 21 8 30 18 8 9 38 59 66 111 28
52 51 99 51 106 0 7 18 45 40 85 22 40 40 81 40 90 0 10 14 53 31 96 18 44 48
97 68 120 20 22 43 49 52 60 10 10 63 62 119 114 56 52 117 109 136 127 19 18
44 35 54 38 11 3 28 17 39 31 10 13 23 24 28 24 6 0 39 22 74 48 35 27 102 69
149 94 47 25 102 51 123 58 21 7 65 12 96 13 45 0 64 -5 89 -23 26 -20 34 -21
47 -10 11 9 14 22 10 38 -3 14 2 46 11 73 14 39 15 50 5 63 -8 9 -19 16 -26
16 -7 0 -18 7 -26 16 -10 12 -24 14 -63 9 -28 -3 -73 -11 -101 -17 -27 -6 -83
-24 -122 -40 -40 -16 -73 -34 -73 -39 0 -5 -11 -9 -24 -9 -14 0 -27 -4 -30 -9
-3 -5 -32 -26 -63 -47 -32 -21 -113 -82 -181 -137 -67 -54 -125 -104 -130
-111 -4 -6 -18 -19 -32 -28 -14 -9 -38 -29 -55 -45 -16 -16 -51 -53 -77 -82
l-47 -53 -20 40 c-11 22 -27 42 -36 46 -9 3 -34 6 -56 6 -22 0 -55 -6 -74 -14
-19 -8 -71 -38 -115 -67 -44 -29 -80 -56 -80 -61 0 -4 -6 -8 -13 -8 -7 0 -30
-16 -52 -35 -23 -22 -42 -32 -47 -27 -6 6 -4 21 5 38 8 16 32 85 55 154 22 69
47 159 56 200 9 41 21 84 26 95 5 11 13 55 19 98 5 47 6 91 0 109 -5 17 -18
42 -31 55 -18 19 -31 23 -77 22 -31 -1 -74 -6 -96 -11z m-44 -229 c-7 -22 -26
-62 -42 -89 -16 -26 -29 -52 -29 -58 0 -5 -13 -24 -29 -41 -17 -18 -33 -41
-36 -52 -4 -10 -11 -19 -16 -19 -5 0 -38 -26 -72 -58 -34 -32 -89 -76 -122
-98 -33 -22 -100 -60 -150 -84 -49 -24 -132 -54 -184 -66 -51 -13 -97 -21
-102 -18 -5 3 -9 11 -9 18 0 7 9 23 20 36 11 13 20 26 20 30 0 4 10 18 23 32
12 14 33 40 47 57 14 18 61 63 105 100 44 38 131 105 193 149 62 45 168 108
236 141 69 34 128 66 131 72 5 7 10 8 18 0 7 -7 7 -23 -2 -52z"/>
<path d="M10761 1440 c-9 -5 -12 -24 -9 -61 3 -30 11 -70 18 -89 7 -19 15 -41
19 -48 3 -7 18 -21 34 -30 21 -13 31 -14 45 -6 13 8 19 32 24 93 6 58 4 90 -5
113 -12 29 -17 31 -63 34 -28 1 -56 -1 -63 -6z"/>
<path d="M7930 90 c0 -5 7 -10 15 -10 8 0 15 5 15 10 0 6 -7 10 -15 10 -8 0
-15 -4 -15 -10z"/>
</g>
</svg>
