<?xml version="1.0" encoding="UTF-8" standalone="no"?>
<svg
	xmlns="http://www.w3.org/2000/svg"
	version="1.1"
	width="369"
	height="228">
<path
	fill="#000"
	d="m 161.539,56.458 c -0.665,0.38 -1.181,0.922 -1.337,1.697 -0.319,1.588 1.583,2.959 2.661,3.717 0.873,0.614 3.099,-0.604 1.945,-1.415 -0.722,-0.507 -2.074,-1.476 -2.083,-2.341 0.001,-0.057 0.007,-0.114 0.016,-0.171 0.032,-0.248 -0.072,0.149 0.017,-0.065 0.113,-0.272 -0.107,0.092 0.064,-0.109 0.195,-0.229 -0.203,0.152 -0.008,0.002 0.102,-0.078 0.315,-0.185 -0.182,0.099 0.405,-0.232 1.006,-0.733 0.605,-1.251 -0.362,-0.468 -1.234,-0.429 -1.698,-0.163 l 0,0 z M 95.648,56.079 c 1.341,-1.667 6.951,-5.571 6.867,-1.191 -0.064,3.362 -2.647,7.012 -4.425,9.63 -2.782,4.099 -6.266,7.917 -9.417,11.738 -5.585,6.773 -16.319,20.765 -26.656,17.872 -6.057,-1.695 5.953,-14.026 7.524,-15.697 7.266,-7.728 15.396,-14.67 23.462,-21.541 9.262,-7.889 18.664,-15.363 29.071,-21.719 4.623,-2.824 9.396,-5.416 14.306,-7.707 1.557,-0.727 7.777,-4.26 9.296,-2.41 1.409,1.715 -0.355,5.334 -1.059,6.957 -2.165,5 -5.7,9.429 -9.148,13.593 -6.085,7.346 -13.181,13.92 -19.753,20.833 -13.396,14.092 -26.565,28.4 -40.086,42.375 -5.051,5.22 -10.113,10.476 -15.558,15.292 -1.175,1.04 -2.422,2.234 -3.853,2.916 1.631,-0.777 0.465,1.184 1.458,-0.417 0.496,-0.799 1.088,-1.542 1.669,-2.28 9.328,-11.851 20.841,-22.31 31.774,-32.631 10.809,-10.205 22.001,-21.604 34.829,-29.306 2.678,-1.608 5.604,-2.918 8.486,-4.115 2.683,-1.114 4.462,-1.839 2.285,1.305 -6.795,9.814 -17.053,17.553 -25.531,25.845 -3.484,3.407 -8.451,7.202 -10.579,11.74 -0.631,1.345 0.547,2.944 2.067,2.779 1.977,-0.214 3.742,-1.655 5.34,-2.728 3.618,-2.429 7.071,-5.094 10.771,-7.4 1.191,-0.742 2.644,-1.738 4.062,-1.941 -0.269,0.039 -1.706,2.683 -2.001,3.054 -2.536,3.195 -5.551,6.036 -8.388,8.958 -0.694,0.715 -9.592,9.131 -5.163,9.773 1.884,0.273 3.811,-1.23 5.277,-2.189 3.509,-2.295 6.717,-5.097 9.898,-7.814 1.019,-0.871 2.026,-1.753 3.033,-2.637 1.255,-1.102 2.223,-1.114 0.538,-1.211 -0.263,-0.379 -0.525,-0.759 -0.788,-1.139 -1.757,3.118 -5.043,5.962 -7.299,8.774 -1.795,2.238 -5.5,5.85 -5.604,8.964 -0.143,4.225 10.572,-4.716 11.024,-5.082 8.853,-7.157 17.372,-14.735 25.941,-22.225 3.871,-3.383 7.737,-6.771 11.636,-10.122 1.499,-1.288 5.256,-4.86 6.105,-5.099 -0.501,-0.194 -1.001,-0.389 -1.502,-0.584 -0.199,-0.64 0.353,-0.811 -0.4,-0.086 -0.544,0.522 -1.102,1.03 -1.657,1.54 -1.752,1.61 -3.518,3.206 -5.273,4.811 -4.726,4.318 -9.405,8.688 -13.924,13.223 -3.255,3.268 -7.127,6.803 -9.145,11.034 -1.038,2.177 0.605,3.16 2.612,2.592 3.811,-1.078 7.419,-4.115 10.579,-6.362 5.642,-4.011 11.074,-8.321 16.451,-12.676 5.068,-4.104 10.066,-8.302 14.938,-12.639 2.102,-1.871 5.266,-4.064 6.604,-6.633 0.18,-0.345 0.017,-0.698 -0.249,-0.93 -0.006,-0.005 -0.012,-0.011 -0.018,-0.016 -0.384,-0.336 -1.118,-0.275 -1.531,-0.043 -4.63,2.591 -8.744,8.318 -12.414,12.026 -6.563,6.63 -13.188,13.259 -19.4,20.222 -9.521,10.673 -17.746,22.627 -26.582,33.862 -11.156,14.186 -22.498,28.696 -35.845,40.916 -3.56,3.259 -8.506,8.168 -13.623,8.556 -4.55,0.345 0.824,-7.261 1.649,-8.452 8.931,-12.889 21.119,-23.958 32.612,-34.498 9.904,-9.083 20.29,-16.38 31.288,-24.012 7.787,-5.404 15.475,-10.951 23.271,-16.341 2.274,-1.572 4.546,-3.206 6.961,-4.557 1.59,-0.889 -1.89,0.596 -1.006,-0.686 -0.34,0.493 -0.777,0.934 -1.177,1.376 -1.397,1.551 -2.892,3.019 -4.333,4.529 -1.578,1.655 -4.51,4.103 -4.887,6.535 -0.249,1.606 1.21,2.089 2.525,1.587 4.578,-1.748 10.072,-8.492 11.748,-12.962 0.966,-2.575 -3.798,-2.95 -3.352,1.579 0.547,5.55 2.599,6.845 7.146,4.322 7.486,-4.153 14.407,-9.52 21.271,-14.602 9.393,-6.956 18.597,-14.184 27.533,-21.717 1.304,-1.099 -0.68,-2.099 -1.693,-1.25 -5.195,4.348 -10.16,9.005 -14.849,13.894 -3.096,3.229 -12.42,11.803 -9.245,17.145 4.84,8.144 31.954,-17.042 37.985,-17.685 -0.322,-0.463 -0.644,-0.927 -0.966,-1.391 0.646,-0.742 -1.336,0.464 -1.745,0.679 -1.239,0.651 -2.358,1.497 -3.394,2.432 -2.101,1.896 -4,5.345 -3.424,8.277 0.769,3.906 6.367,1.481 8.523,0.534 6.487,-2.85 12.415,-7.082 18.407,-10.82 2.313,-1.442 4.638,-2.896 7.096,-4.081 3.688,-1.777 -2.629,3.707 -3.299,4.883 -0.853,1.498 0.723,2.777 2.263,2.601 3.413,-0.39 5.894,-3.24 8.453,-5.27 1.849,-1.466 3.451,1.37 5.559,1.884 3.632,0.886 7.883,-2.458 10.578,-4.333 1.967,-1.367 21.226,-14.551 17.549,-18.444 -3.138,-3.322 -11.142,1.656 -12.017,5.279 -0.476,1.968 0.888,3.424 1.9,4.988 2.177,3.365 4.228,6.802 6.142,10.324 5.95,10.947 10.143,22.875 11.5,35.291 1.608,14.715 0.37,31.249 -3.162,45.579 -4.308,17.474 -14.934,31.868 -31.437,39.494 -11.265,5.205 -24.078,6.74 -36.361,6.917 -10.572,0.151 -21.322,-1.51 -30.928,-6.057 -11.702,-5.539 -20.932,-16.975 -21.289,-30.242 -0.082,-3.041 0.464,-11.355 4.979,-10.991 5.589,0.451 9.224,8.379 10.291,12.954 2.123,9.105 -3.888,15.975 -11.82,19.415 -11.865,5.145 -25.664,3.795 -37.168,-1.483 -20.424,-9.371 -31.65,-29.62 -40.659,-49.063 -0.553,-1.193 -4.824,-10.778 -2.201,-10.517 3.066,0.306 6.181,1.917 8.824,3.39 7.2,4.009 13.586,10.771 13.494,19.453 -0.085,8.058 -6.684,15.333 -11.693,21.063 -6.514,7.449 -13.854,14.176 -21.424,20.53 -17.232,14.466 -36.775,27.447 -58.129,34.892 -9.456,3.297 -19.382,5.087 -29.393,4.035 -5.434,-0.57 -13.421,-2.63 -12.552,-9.588 0.88,-7.053 8.715,-12.994 13.868,-16.949 9.464,-7.266 20.379,-12.644 31.344,-17.224 16.089,-6.72 33.282,-11.133 49.86,-16.526 37.469,-12.19 74.751,-24.967 111.938,-37.991 33.311,-11.667 66.65,-23.388 99.49,-36.335 13.799,-5.44 27.3,-11.492 40.158,-18.939 7.04,-4.078 15.066,-9.128 18.378,-16.928 2.821,-6.647 -0.855,-13.792 -5.195,-18.796 C 356.923,29.43 349.202,24.739 341.826,20.79 331.285,15.146 320.165,10.726 308.743,7.213 285.714,0.13 261.325,-2.51 237.635,2.825 c -7.446,1.677 -31.331,9.544 -22.516,21.511 4.194,5.695 13.302,6.95 19.736,7.798 10.854,1.431 22.032,0.926 32.887,-0.191 10.001,-1.029 21.709,-2.288 30.225,-8.11 5.123,-3.503 7.501,-9.048 0.12,-11.334 -5.665,-1.754 -12.243,-0.892 -18.008,-0.383 -7.338,0.647 -14.631,1.869 -21.829,3.419 -5.127,1.104 -10.233,2.453 -15.174,4.224 -1.317,0.472 -4.138,1.105 -4.521,2.735 -0.304,1.292 2.275,1.02 2.553,-0.159 -0.163,0.693 1.77,-0.475 2.463,-0.734 1.717,-0.643 3.476,-1.174 5.231,-1.698 5.756,-1.717 11.65,-2.967 17.559,-4.025 3.643,-0.652 36.605,-5.935 34.021,2.487 -1.105,3.6 -6.465,5.663 -9.562,6.946 -5.529,2.292 -11.716,3.19 -17.602,4.031 -11.546,1.648 -23.4,2.178 -35.023,1.137 -6.825,-0.611 -19.196,-1.778 -22.011,-9.496 -2.502,-6.861 8.144,-11.661 12.797,-13.547 23.978,-9.719 52.777,-5.888 76.886,1.121 11.521,3.349 22.752,7.83 33.381,13.394 8.158,4.271 16.773,9.519 22.484,16.905 16.411,21.226 -20.925,35.423 -35.07,42.175 -25.524,12.185 -53.014,20.96 -79.587,30.501 -38.575,13.851 -77.316,27.247 -116.174,40.284 -16.157,5.421 -32.339,10.773 -48.578,15.943 -19.138,6.093 -38.211,11.758 -55.764,21.815 -7.604,4.357 -15,9.484 -20.911,16.008 -3.181,3.51 -6.509,8.393 -5.452,13.375 1.045,4.931 7.052,6.761 11.278,7.633 8.393,1.731 17.284,0.672 25.525,-1.302 20.436,-4.896 39.279,-16.576 56.014,-28.913 14.595,-10.76 29.298,-23.28 39.828,-38.194 4.328,-6.131 6.977,-13.127 4.468,-20.535 -2.19,-6.467 -8.199,-11.48 -14.048,-14.575 -2.382,-1.261 -9.231,-5.172 -12.026,-2.782 -1.759,1.503 -1.223,3.782 -0.711,5.783 1.414,5.53 4.521,10.855 7.113,15.89 9.009,17.496 19.963,33.178 38.441,41.656 14.776,6.78 41.405,7.231 50.42,-9.178 4.605,-8.383 -0.21,-24.226 -10.603,-25.942 -9.336,-1.542 -8.77,13.894 -7.643,19.22 7.693,36.347 59.822,36.208 86.773,26.612 15.654,-5.574 27.61,-17.082 34.066,-32.323 5.694,-13.442 6.813,-28.4 6.989,-42.832 0.124,-10.097 -0.574,-19.74 -3.435,-29.5 -2.845,-9.708 -7.449,-18.902 -12.723,-27.501 -1.039,-1.695 -3.735,-4.474 -3.817,-6.565 -0.092,-2.336 4.217,-4.193 5.942,-4.718 2.661,-0.81 0.312,2.434 0.105,2.712 -1.183,1.594 -2.709,2.944 -4.159,4.283 -4.867,4.496 -10.521,9.236 -16.483,12.16 -4.51,2.212 -4.308,-2.424 -7.706,-2.21 -3.085,0.194 -5.801,3.706 -8.11,5.392 -2.561,1.87 -0.525,-0.67 -0.203,-0.95 0.729,-0.631 1.343,-1.33 1.903,-2.112 0.618,-0.863 0.997,-2.219 0.635,-3.246 -1.163,-3.295 -9.801,2.949 -10.948,3.655 -6.457,3.977 -12.754,8.463 -19.722,11.524 -0.991,0.436 -2.638,1.231 -3.772,0.936 -1.834,-0.479 0.63,-5.265 1.172,-6.062 1.685,-2.478 4.793,-2.657 6.523,-4.643 0.63,-0.723 -0.201,-1.472 -0.966,-1.391 -4.929,0.525 -9.38,4.414 -13.325,7.083 -3.877,2.623 -7.738,5.268 -11.745,7.69 -2.856,1.727 -6.287,3.984 -9.708,4.203 -3.729,0.239 0.643,-6.79 1.22,-7.637 2.342,-3.442 5.27,-6.507 8.165,-9.48 4.108,-4.219 8.486,-8.226 13.003,-12.007 -0.564,-0.417 -1.129,-0.833 -1.693,-1.25 -9.3,7.84 -18.899,15.322 -28.674,22.561 -6.79,5.029 -13.815,10.817 -21.519,14.414 -2.094,0.978 -0.149,-10.088 -4.086,-3.782 -2.079,3.331 -4.979,6.456 -8.003,8.937 -2.15,1.764 0.293,-0.376 1.081,-1.391 1.129,-1.453 2.436,-2.777 3.703,-4.106 1.462,-1.534 5.047,-4.042 5.423,-6.298 0.561,-3.364 -7.148,2.075 -7.519,2.323 -7.523,5.044 -14.849,10.386 -22.261,15.59 -11.163,7.837 -22.13,15.023 -32.314,24.142 -11.754,10.524 -23.41,21.625 -33.252,33.991 -2.339,2.939 -12.068,16.639 -1.196,14.583 4.762,-0.901 8.933,-4.421 12.508,-7.469 5.936,-5.059 11.251,-10.871 16.422,-16.69 12.255,-13.792 23.489,-28.476 34.751,-43.077 9,-11.668 18.362,-22.405 28.676,-32.96 5.131,-5.251 10.149,-10.916 15.784,-15.64 -2.429,2.037 -1.019,-1.899 -2.206,-0.492 -0.237,0.28 -0.484,0.549 -0.735,0.817 -0.719,0.767 -1.494,1.481 -2.262,2.199 -2.455,2.296 -5.003,4.495 -7.554,6.683 -6.384,5.476 -12.923,10.777 -19.592,15.9 -4.924,3.782 -10.078,8.145 -15.805,10.667 -1.027,0.453 -0.345,0.632 -0.169,0.057 0.294,-0.964 0.974,-1.82 1.556,-2.622 1.99,-2.743 4.419,-5.192 6.78,-7.61 5.462,-5.594 11.271,-10.849 17.051,-16.111 0.804,-0.732 5.692,-4.081 5.24,-5.536 -0.19,-0.614 -0.961,-0.736 -1.502,-0.584 -1.423,0.398 -2.77,1.868 -3.865,2.775 -2.862,2.368 -5.656,4.82 -8.458,7.258 -8.044,7 -16.039,14.056 -24.151,20.978 -3.359,2.867 -6.741,5.708 -10.196,8.46 -1.285,1.024 -2.59,2.024 -3.928,2.979 -0.469,0.335 -0.946,0.655 -1.441,0.95 -1.305,0.774 0.419,-0.376 0.388,0.537 0.104,-3.078 5.101,-7.646 6.927,-9.876 1.864,-2.278 4.381,-4.506 5.833,-7.083 0.303,-0.538 -0.269,-1.109 -0.788,-1.139 -1.443,-0.083 -2.612,1.485 -3.591,2.345 -3.084,2.708 -6.217,5.359 -9.466,7.866 -1.457,1.124 -2.956,2.205 -4.556,3.116 -1.7,0.968 -0.587,0.262 0.253,-0.887 2.256,-3.083 5.191,-5.741 7.847,-8.469 1.388,-1.426 10.451,-9.162 7.192,-11.604 -3.336,-2.502 -12.135,5.429 -14.438,7.06 -1.09,0.772 -6.591,4.856 -6.796,4.744 -0.533,-0.292 -0.485,-0.223 -0.102,-0.937 0.953,-1.773 2.66,-3.308 4.021,-4.751 3.899,-4.134 8.038,-8.047 12.142,-11.974 6.889,-6.591 15.664,-13.276 20.52,-21.657 2.121,-3.662 -2.128,-3.588 -4.491,-2.844 -12.247,3.857 -22.248,13.181 -31.666,21.466 -12.903,11.35 -25.345,23.301 -37.21,35.732 -3.687,3.862 -7.517,7.768 -10.616,12.134 -0.835,1.176 -2.259,4.501 0.761,3.645 3.446,-0.978 6.551,-4.792 9.024,-7.148 5.711,-5.441 11.175,-11.146 16.631,-16.841 13.318,-13.901 26.343,-28.079 39.666,-41.975 7.179,-7.487 14.719,-14.62 20.714,-23.139 2.512,-3.569 7.622,-10.58 5.516,-15.333 -1.766,-3.985 -8.542,-0.468 -11.034,0.573 -10.606,4.429 -20.567,10.879 -29.847,17.596 -8.593,6.22 -16.607,13.403 -24.559,20.415 -7.074,6.238 -14.175,12.673 -20.15,19.999 -2.038,2.499 -7.974,9.912 -2.948,12.508 8.14,4.205 17.948,-4.54 23.188,-9.675 3.917,-3.838 7.407,-8.093 10.84,-12.36 3.883,-4.826 8.028,-9.456 10.441,-15.237 4.004,-9.594 -6.276,-8.425 -10.65,-2.986 -1.006,1.254 1.366,1.773 2.132,0.821 l 0,0 z" />
</svg>