<?xml version="1.0" encoding="UTF-8"?>
<svg version="1.0" xmlns="http://www.w3.org/2000/svg" width="559" height="328" >
<path fill="#231F20" d="M33.521,202.563c-3.559,3.137-7.485,5.907-11.563,8.318c-3.021,1.787-6.296,3.357-9.748,4.073 c-1.437,0.298-2.894,0.304-4.341,0.103c-0.653-0.092-1.323-0.379-1.875-0.734c0.795,0.512-0.234-1.132-0.463-2.232 c-1.296-6.21,3.117-13.877,5.921-19.06c4.851-8.96,10.989-17.234,17.155-25.318c13.152-17.245,27.608-33.472,40.481-50.932 c2.21-2.998,4.276-6.083,6.359-9.169c0.452-0.669,1.017-1.347,1.72-1.762c0.357-0.211-0.169-0.112,0.308-0.052 c-1.898-0.24-3.271-3.194-3.637-4.309c0.345,1.052,0.282,1.182,0.358,2.671c0.439,8.635-1.086,17.529-2.297,26.043 c-1.922,13.515-4.338,26.96-6.888,40.368c-5.426,28.542-11.525,57.005-18.737,85.153c-2.226,8.686-4.42,17.491-7.573,25.898 c-0.532,1.419-1.276,3.727-2.206,4.327c0.613-0.396,2.363,1.762,2.671,2.18c-0.391-0.53,1.09,2.439,0.923,1.804 c-0.188-0.716,0.053,0.631-0.035-0.191c-0.153-1.432,0.016-2.915,0.219-4.333c1.839-12.857,6.729-25.536,10.941-37.746 c7.928-22.985,16.672-45.693,25.464-68.359c8.056-20.769,15.812-41.765,25.454-61.866c3.682-7.676,8.32-19.552,16.407-23.807 c1.517-0.798,3.455-0.617,4.311-0.074c1.019,0.646,0.829,0.595,1.423,1.291c0.772,0.903,0.802,0.976,1.829,2.495 c3.587,5.309,6.748,10.823,11.277,15.425c0.664,0.674,2.767,2.019,2.702,0.07c-0.066-1.977-1.55-3.942-2.871-5.284 c-6.089-6.188-15.478-31.195-27.876-17.615c-4.434,4.857-7.579,10.985-10.552,16.787c-5.693,11.11-10.441,22.714-15.079,34.294 C73.218,167.198,63.07,193.532,53.345,220c-5.917,16.106-11.879,32.318-16.313,48.911c-1.828,6.84-4.991,16.117,0.358,22.188 c4.77,5.411,6.379-1.77,7.735-5.756c3.208-9.431,5.611-19.159,8.022-28.816c7.138-28.594,13.243-57.478,18.61-86.454 c2.383-12.867,4.607-25.776,6.31-38.753c1-7.617,2.435-15.808,1.566-23.51c-0.427-3.786-4.711-13.053-8.867-7.749 c-5.021,6.41-9.399,13.348-14.455,19.765c-6.846,8.69-13.924,17.194-20.881,25.795c-12.093,14.951-25.743,30.639-33.12,48.622 c-2.537,6.184-3.29,12.383-0.703,18.676c2.693,6.55,8.238,10.83,15.38,9.348c7.925-1.645,15.449-7.182,21.428-12.452 C40.31,208.147,35.07,201.198,33.521,202.563L33.521,202.563 M79.944,150.778c-0.347,22.792-0.985,45.583-1.882,68.36c-0.635,16.118-1.383,32.246-2.743,48.321 c-0.477,5.637-1.024,11.282-1.936,16.867c-0.463,2.84-0.897,5.865-2.567,8.272c-1.227,1.769-2.547,3.54-4.124,5.016 c-3.256,3.049,3.775-4.112,6.633,0.479c-0.36-0.578-0.028-1.647,0.1-2.238c0.954-4.397,3.047-8.657,4.861-12.741 c4.118-9.275,8.712-18.344,13.331-27.377c20.363-39.824,40.377-80.384,46.491-125.236c0.419-3.075,0.813-6.192,0.907-9.298 c0.028-0.944-8.698-0.914-8.739,0.437c-0.224,7.418-1.641,14.891-3.083,22.144c-4.112,20.667-10.878,40.782-18.916,60.229 c-10.44,25.262-24.315,48.841-35.969,73.528c-0.794,1.683-10.497,19.713-7.334,21.399c2.513,1.34,7.804,0.718,10.027-1.209 c1.597-1.384,2.88-3.188,4.095-4.901c4.404-6.206,4.087-16.167,4.753-23.41c2.917-31.716,3.583-63.692,4.354-95.519 c0.19-7.852,0.363-15.706,0.483-23.559C88.698,149.358,79.964,149.464,79.944,150.778L79.944,150.778 M146.766,119.037c1.738,1.521,3.477,3.042,5.215,4.563c0.404,0.353,0.809,0.705,1.213,1.058 c1.379,0.798,2.85,1.367,4.411,1.707c3.12,0.763,6.399,1.011,9.603,0.864c2.497-0.115,5.284-0.418,7.551-1.581 c0.863-0.443,2.754-1.988,1.407-3.167c-1.738-1.521-3.477-3.042-5.215-4.563c-0.404-0.353-0.809-0.705-1.213-1.058 c-1.379-0.798-2.85-1.367-4.411-1.707c-3.12-0.763-6.399-1.011-9.603-0.864c-2.497,0.115-5.284,0.418-7.551,1.581 C147.31,116.313,145.418,117.857,146.766,119.037L146.766,119.037 M170.235,239.314c1.987,0,3.974,0,5.96,0c6.234,0,11.311-5.709,10.311-11.877 c-1.088-6.711-7.542-10.664-13.943-10.664c-1.987,0-3.974,0-5.96,0c-6.234,0-11.311,5.709-10.311,11.877 C157.381,235.361,163.834,239.314,170.235,239.314L170.235,239.314 M375.586,26.74c-1.332-6.092-4.959-12.069-9.216-16.524c-9.976-10.443-24.402-11.934-37.874-8.685 c-20.229,4.878-38.684,17.974-52.938,32.775c-14.473,15.027-25.563,33.069-34.833,51.655 c-20.662,41.422-32.012,88.474-33.119,134.714c-0.553,23.117,2.107,46.5,8.94,68.634c4.207,13.626,11.568,31.636,26.293,36.867 c19.209,6.823,32.391-14.228,37.39-29.622c6.18-19.03,6.011-40.227,6.478-60.011c0.569-24.128,1.56-48.245,10.769-70.892 c1.56-3.835-6.013-8.042-7.781-3.692c-11.558,28.421-10.277,59.064-11.491,89.136c-0.788,19.505-1.991,41.684-13.791,58.174 c-5.247,7.332-14.751,14.538-23.615,8.554c-5.967-4.029-9.571-11.071-12.461-17.433c-5.104-11.238-7.788-23.712-9.917-35.803 c-7.956-45.165-0.096-93.447,14.283-136.505c12.933-38.727,33.768-80.65,68.394-104.366c13.896-9.518,38.9-23.752,55.827-12.949 c5.75,3.669,9.631,9.895,10.951,15.931C368.774,30.818,376.755,32.083,375.586,26.74L375.586,26.74 M330.537,110.956c-1.797-3.489-4.941-6.677-8.889-7.49c-8.819-1.816-15.485,8.708-19.483,14.779 c-11.231,17.054-21.749,34.982-29.077,54.092c-4.553,11.875-11.824,35.107,1.118,44.699c8.541,6.329,17.956-8.953,21.584-14.5 c9.131-13.956,16.158-29.377,22.449-44.78c5.349-13.095,10.788-26.937,12.888-41.008c0.524-3.509-5.424-9.126-6.209-3.901 c-3.551,23.609-6.502,47.379-8.282,71.189c-0.903,12.075-2.427,25.368,0.337,37.311c0.823,3.556,2.888,7.701,6.892,8.176 c2.971,0.352,5.084-3.895,6.17-5.939c5.925-11.153,8.753-24.371,12.223-36.419c4.659-16.182,9.152-32.439,14.834-48.301 c2.362-6.595,4.965-13.139,8.239-19.34c2.001-3.79,4.576-8.27,8.405-10.48c1.096-0.633,2.542-0.891,3.269-0.691 c0.181,0.049,0.185-0.138,0.473,0.725c1.392,4.166,1.033,9.476,0.73,14.047c-1.28,19.295-6.016,38.519-10.724,57.214 c-2.839,11.271-5.872,22.511-9.237,33.638c1.926,1.874,3.852,3.747,5.777,5.621c6.242-21.948,13.216-43.738,20.977-65.194 c4.954-13.696,10.121-27.605,17.282-40.33c1.806-3.209,4.165-7.376,7.277-9.316c0.552-0.343,1.028-0.491,1.136-0.507 c0.48-0.073,0.602,0.054,0.5-0.003c-0.301-0.168-0.595-0.613-0.695-0.93c0.06,0.187,0.219,0.985,0.203,1.896 c-0.098,5.801-1.926,11.645-3.544,17.161c-2.275,7.757-4.909,15.408-7.451,23.081c-4.888,14.756-10.49,30.134-11.573,45.762 c-0.59,8.523,2.761,26.337,15.286,23.413c6.027-1.407,10.026-7.557,12.968-12.526c5.404-9.131,9.182-19.156,12.612-29.162 c9.479-27.652,15.056-56.312,20.825-84.896c1.912-9.473,4.578-18.871,8.52-27.71c2.049-4.596,4.769-10.234,9.088-13.159 c1.114-0.755,2.391-1.134,3.123-0.953c0.725,0.18,0.722,0.311,1.443,2.008c2.36,5.546,1.754,13.656,1.377,19.759 c-1.645,26.666-9.956,52.878-17.025,78.486c-3.726,13.495-8.592,27.07-10.969,40.897c-1.031,6.002,0.492,12.812,7.413,13.759 c2.813,0.386,5.815-0.025,8.637-0.13c5.372-0.199,14.707,0.312,17.83-5.233c3.729-6.624-2.944-15.894-6.409-21.092 c-6.884-10.328-15.453-19.283-24.363-27.86c-5.669-5.457-11.566-10.71-16.873-16.529c-3.422-3.752-5.029-5.078,0.813-5.893 c13.278-1.852,26.354-3.012,39.49-6.059c11.717-2.717,25.002-5.725,34.932-12.884c8.459-6.1,6.354-15.153-1.557-20.782 c-1.595-1.135-3.33-0.135-3.557,1.688c-0.269,2.161,0.927,4.361,2.652,5.589c0.853,0.607,1.628,1.238,2.227,2.101 c-0.309-0.446-0.105-0.947-0.318-0.275c-0.693,2.186-3.11,3.776-4.922,4.951c-6.491,4.207-14.296,6.567-21.653,8.718 c-9.044,2.644-18.3,4.567-27.586,6.133c-7.608,1.283-15.274,1.627-22.888,2.688c-19.716,2.749,5.82,26.179,10.793,30.901 c8.788,8.347,17.634,16.648,24.966,26.344c3.144,4.157,6.773,8.7,8.546,13.672c0.893,2.504-0.351,3.425-2.662,4.262 c-5.145,1.863-11.43,1.318-16.856,1.507c-1.099,0.038-2.199,0.054-3.295-0.048c-0.441-0.04-1.043-0.565-0.398,0.049 c0.893,0.85,0.987,2.712,0.926,0.99c0.036,1.025,0.073-0.842,0.108-1.164c0.101-0.929,0.27-1.85,0.444-2.766 c1.035-5.419,2.671-10.74,4.164-16.044c6.588-23.415,13.436-46.831,18.746-70.576c2.562-11.452,4.525-23.122,5.031-34.861 c0.294-6.82,0.196-14.026-1.946-20.579c-1.304-3.987-3.839-8.737-8.267-9.833c-3.912-0.969-7.349,1.874-9.769,4.596 c-10.962,12.33-14.442,31.943-17.335,47.525c-5.356,28.843-11.896,57.849-22.191,85.375 c-1.876,5.016-14.078,38.729-24.121,29.538c-2.318-2.123-1.972-8.45-1.601-12.318c0.722-7.526,2.697-14.93,4.778-22.174 c4.513-15.712,10.455-30.984,14.787-46.749c2.172-7.904,6.765-23.049-3.348-27.592c-7.316-3.286-13.98,11.478-16.259,15.854 c-10.31,19.805-17.297,41.535-24.22,62.695c-4.24,12.959-8.298,25.992-12.027,39.107c-0.919,3.229,4.459,9.98,5.777,5.621 c6.551-21.653,12.229-43.692,16.557-65.896c2.482-12.733,5.194-26.415,3.804-39.442c-0.778-7.287-5.829-18.071-14.758-12.915 c-9.376,5.415-13.826,19.857-17.352,29.27c-5.886,15.716-10.349,31.954-14.975,48.071c-3.639,12.678-6.78,25.976-12.393,37.969 c-0.646,1.378-1.349,2.703-2.326,3.875c-0.571,0.685-0.289,0.431-0.782,0.7c-0.587,0.318,0.587-0.033-0.027,0.036 c-0.156,0.019,0.696,0.318,1.07,0.619c-0.262-0.211,0.61,1.132,0.127-0.025c0.412,0.988-0.253-1.171-0.336-1.563 c-0.34-1.611-0.515-4.612-0.611-6.735c-0.89-19.533,1.832-39.47,4.087-58.832c1.478-12.682,3.12-25.354,5.019-37.98 c-2.069-1.3-4.14-2.601-6.209-3.901c-2.226,14.911-8.358,29.552-14.144,43.365c-6.473,15.456-13.698,31.273-23.725,44.791 c-2.308,3.111-5.865,8.272-9.964,9.146c-1.517,0.322-1.573-0.072-1.854-0.471c-1.815-2.569-1.841-6.583-1.729-9.567 c0.363-9.711,4.031-19.25,7.758-28.099c4.249-10.09,9.462-19.774,14.959-29.231c5.383-9.262,10.949-19.717,18.49-27.401 c2.361-2.406,5.791-4.732,9.237-3.419c0.442,0.168,1.629,1.496,1.274,1.05c0.563,0.707,0.803,1.337,0.286,0.333 C327.949,118.083,333.004,115.747,330.537,110.956L330.537,110.956 M547.147,112.285c3.894-1.495,13.719-5.727,10.547-11.346c-0.967-1.713-2.592-3.038-4.098-4.249 c-2.501-2.012-5.196-3.803-7.979-5.4c-2.146-1.231-4.447-2.494-6.85-3.159c-0.325-0.09-2.832-0.667-2.008,0.793 c0.273,0.485,0.438,0.941,0.503,1.495c-0.016-0.25-0.032-0.5-0.048-0.75c0.041,2.951-3.223,4.991-5.435,6.333 c-1.788,1.085-3.711,2.017-5.665,2.767c-0.914,0.351,2.375,3.486,2.21,3.332c2.157,2.014,4.6,3.748,7.076,5.339 s5.068,3.093,7.796,4.218C544.487,112.19,545.799,112.802,547.147,112.285L547.147,112.285 M520.947,206.954c3.09,0.884,6.181,1.767,9.271,2.649c5.988,1.712,13.299-2.037,16.036-7.438 c2.812-5.545-0.125-10.996-5.86-12.635c-3.09-0.883-6.181-1.766-9.271-2.649c-5.988-1.711-13.299,2.038-16.036,7.438 C512.275,199.864,515.211,205.315,520.947,206.954L520.947,206.954z"/>
</svg>