<?xml version="1.0" encoding="UTF-8"?>
<svg version="1.0" xmlns="http://www.w3.org/2000/svg" width="279" height="40" >
<path d="M14.466,14.325c-0.694-5.669,9.733-6.765,12.59-10.593c-0.617,0.054-1.233,0.106-1.85,0.16 c-3.903,7.065-8.686,13.259-13.749,19.502c-1.036,1.277-9.158,10.31-8.015,11.923c0.219,0.31,1.011,0.063,1.264-0.034 c1.236-0.472,2.188-1.853,3.028-2.784c3.932-4.359,7.857-8.493,12.334-12.316c5.189-4.431,12.313-8.955,13.892-16.073 c0.147-0.663-1.715-0.203-1.921,0.283c-1.904,4.496-3.907,8.952-5.969,13.379c-1.597,3.427-3.261,6.824-5.041,10.16 c-0.778,1.458-3.277,6.596-4.525,6.87c0.358,0.049,0.716,0.099,1.075,0.147c-0.199-1.029,6.436-5.6,7.409-6.349 c1.944-1.498,3.966-2.907,6.136-4.058c1.645-0.872,3.195-0.081,1.795,1.714c-0.643,0.823-1.606,1.539-2.365,2.275 c-1.923,1.867-4.809,7.801-0.544,8.608c2.264,0.429,5.064-1.515,6.749-2.785c0.842-0.636-1.1-0.526-1.521-0.209 c-2.526,1.905-5.833,3.138-5.32-1.513c0.34-3.084,3.435-4.692,5.165-6.909c1.777-2.279-1.49-2.873-2.98-2.506 c-3.687,0.909-7.176,4.013-10.073,6.291c-0.897,0.706-6.665,4.5-6.383,5.957c0.072,0.373,0.867,0.193,1.075,0.147 c4.301-0.943,7.362-10.067,8.984-13.351c2.942-5.957,5.663-12.036,8.253-18.154c-0.64,0.095-1.281,0.188-1.921,0.283 c-1.626,7.328-9.294,11.997-14.646,16.567c-3.433,2.932-6.643,6.078-9.616,9.476c-1.032,1.179-2.045,2.368-3.117,3.512 c-1.097,0.766-0.884,0.974,0.639,0.625c0.129-0.55,0.58-1.083,0.875-1.556c6.414-10.273,15.049-18.723,20.952-29.407 c0.267-0.483-1.575-0.209-1.85,0.16c-2.609,3.495-13.479,5.063-12.743,11.073C12.6,15.382,14.544,14.964,14.466,14.325 L14.466,14.325z"/>
<path d="M48.873,26.84c3.167-2.365,12.398-9.279,10.437-14.131c-1.107-2.735-6.894,4.64-7.189,5.036 c-2.355,3.175-4.365,6.626-6.135,10.155c-1.138,2.27-2.883,5.475-2.386,8.129c0.597,3.186,8.64-1.865,9.484-2.403 c6.119-3.9,12.198-9.082,16.367-15.06c0.529-0.76,2.898-5.09,1.137-5.468c-1.615-0.347-3.21,1.468-4.006,2.515 c-1.33,1.75-13.342,21.989-7.353,21.462c3.352-0.296,6.448-2.939,9.084-4.74c3.112-2.127,1.4,4.056,4.654,3.873 c2.225-0.126,4.312-1.168,6.377-1.917c2.271-0.824,4.661-1.768,6.614,0.004c1.167,1.058,2.604,1.667,4.115,2.008 c1.83,0.413,4.047-0.69,5.964-0.491c1.986,0.207,3.736,0.104,5.519-0.775c1.146-0.564-0.664-0.459-1.109-0.238 c-2.354,1.16-5.231-0.486-7.736,0.414c-3.527,1.268-4.782-2.845-7.753-2.952c-2.844-0.102-6.134,1.537-8.725,2.515 c-5.13,1.935-2.259-3.428-5.232-4.065c-0.815-0.176-1.924,0.231-2.611,0.624c-1.748,0.999-3.375,2.207-5.067,3.295 c-5.446,3.504-4.221-0.356-3.348-3.166c1.532-4.931,4.13-9.696,6.924-14.008c0.675-1.022,1.414-1.996,2.217-2.923 c1.126-1.324,0.021,0.593-0.232,1.726c-0.215,0.959-0.814,1.842-1.335,2.654c-3.484,5.432-9.214,9.933-14.404,13.633 c-1.185,0.845-7.185,5.241-7.676,2.614c-0.441-2.355,1.457-5.586,2.424-7.603c1.442-3.008,3.204-5.869,5.063-8.634 c0.931-1.384,1.938-2.718,3.015-3.992c0.29-0.336,0.59-0.662,0.902-0.977c0.913-0.953,0.507-0.731,0.613-0.469 c1.816,4.49-7.335,11.254-10.354,13.51C46.723,27.296,48.508,27.112,48.873,26.84L48.873,26.84z"/>
<path d="M44.11,11.657c0.212,0.357,0.398,0.767,0.424,1.186c0.028,0.457,0.859,0.402,1.124,0.331 c0.41-0.11,0.836-0.383,0.808-0.849c-0.032-0.523-0.314-1.037-0.576-1.48C45.496,10.179,43.634,10.853,44.11,11.657L44.11,11.657 z"/>
<path d="M133.038,8.719c-4.945,9.151-12.339,18.256-18.764,26.704c-0.492,0.646,1.438,0.444,1.784-0.012 c6.56-8.625,13.726-17.382,18.903-26.962C135.216,7.979,133.343,8.153,133.038,8.719L133.038,8.719z"/>
<path d="M146.601,4.562c-6.925,9.448-14.973,19.015-20.229,29.516c-1.823,3.642,3.318-0.03,4.063-0.848 c5.055-5.555,9.982-12.886,11.828-20.243c1.347-5.375-3.095-8.724-5.738-3.035c-2.594,5.582,2.521,9.298,7.378,9.534 c4.512,0.22,9.218-1.126,13.53-2.238c6.291-1.623,12.608-3.594,18.529-6.29c0.895-0.407,11.03-6.774,5.384-7.947 c-2.394-0.497-4.253,2.515-5.345,4.091c-3.343,4.822-5.843,10.198-9.008,15.137c-1.827,2.852-4.134,5.361-6.041,8.164 c-0.458,0.69-0.922,1.376-1.394,2.057c-1.375,1.543-0.526,1.434,2.545-0.328c0.571,0.627,1.03,0.909,1.852,1.203 c3.536,1.268,8.26-0.865,11.245-2.575c1.702-0.975,6.212-5.242,3.11-7.021c-2.875-1.648-5.719,4.046-6.443,5.635 c-1.382,3.027-0.002,5.362,3.145,5.68c5.46,0.551,11.306-4.456,15.097-7.639c-0.559-0.062-1.117-0.122-1.675-0.184 c-1.767,2.926-2.725,6.873,1.654,7.32c4.135,0.423,9.172-3.106,12.346-5.343c-0.5-0.104-1-0.207-1.5-0.312 c-1.864,2.718-1.113,4.839,1.976,5.717c4.307,1.224,5.996-4.045,9.974-3.653c3.364,0.332,5.91-0.611,9.243,0.945 c1.619,0.756,3.924,1.529,5.72,0.998c1.461-0.433,7.929-1.548,6.2-4.332c-0.555,0.282-1.11,0.565-1.665,0.848 c4.827,2.211,10.272,1.595,15.655,0.538c0-0.342,0-0.684,0.001-1.024c-3.423,0.905-8.051,1.963-10.392,4.816 c-2.391,2.913,4.491,2.255,5.308,2.043c5.732-1.492,11.209-4.874,16.204-7.944c3.747-2.304,9.066-5.161,11.409-9.072 c0.501-0.836-1.358-0.471-1.675-0.184c-3.746,3.403-8.927,7.556-10.979,12.294c-0.753,1.738-0.151,2.861,1.948,2.914 c2.601,0.065,4.857-1.284,6.538-3.191c0.56-0.635-1.388-0.512-1.799-0.045c-1.777,2.017-6.338,2.588-4.16-0.913 c1.195-1.92,2.844-3.612,4.385-5.247c1.793-1.904,3.682-3.73,5.617-5.489c-0.559-0.062-1.117-0.122-1.675-0.184 c-1.589,2.651-4.85,4.575-7.315,6.271c-3.721,2.558-7.653,4.837-11.679,6.877c-1.7,0.861-9.122,5.123-10.442,2.466 c-0.835-1.681,7.808-4.132,8.966-4.438c0.875-0.231,1.135-1.247,0.001-1.024c-4.924,0.967-9.758,1.717-14.381-0.4 c-0.441-0.201-2.112,0.128-1.665,0.849c0.563,0.906-1.344,1.361-2.165,1.694c-3.443,1.394-5.53,0.447-8.417-1.026 c-2.575-1.314-5.271-0.221-8.038-0.138c-1.798,0.054-3.598-0.619-5.105,0.779c-0.788,0.73-1.432,1.561-2.18,2.334 c-3.636,0.227-5.086-0.639-4.353-2.595c0.121-0.482,0.447-1.012,0.738-1.437c0.517-0.753-1.21-0.517-1.5-0.312 c-2.001,1.41-4.127,2.631-6.341,3.673c-2.125,1.001-6.478,2.09-6.025-1.722c0.136-1.149,0.781-2.336,1.366-3.306 c0.512-0.848-1.365-0.443-1.675-0.184c-2.118,1.778-17.163,12.21-15.048,2.88c0.096-0.28,0.192-0.56,0.289-0.839 c0.241-2.293,1.377-3.2,3.406-2.723c-0.245,1.716-1.905,2.897-3.205,3.771c-3.137,2.107-7.962,3.545-10.769,0.463 c-3.132-3.438-9.759,3.637-5.997,4.418c1.893,0.393,3.135-1.224,4.123-2.558c3.122-4.211,6.395-8.415,9.104-12.909 c2.324-3.855,4.408-7.85,6.816-11.655c0.242-0.383,2.635-4.13,3.159-3.642c1.792,1.669-1.68,3.872-2.705,4.521 c-5.538,3.505-12.472,5.176-18.694,6.948c-5.184,1.477-12.692,4.211-18.001,1.879c-1.169-0.514-1.945-1.591-2.518-2.681 c-0.563-1.072-0.629-2.056-0.563-3.293c0.001-0.029,1.38-4.751,2.307-2.478c1.656,4.063-2.026,9.831-3.902,13.124 c-2.04,3.58-4.451,6.983-7.091,10.144c-0.541,0.646-1.113,1.246-1.717,1.831c-0.729,0.707,0.329,0.616,0.435,0.27 c0.342-1.114,1.136-2.188,1.737-3.173c3.94-6.456,8.455-12.592,12.854-18.738c1.927-2.691,3.864-5.374,5.82-8.043 C148.922,3.894,146.974,4.053,146.601,4.562L146.601,4.562z"/>
<path d="M270.918,33.811c1.167,0.333,2.333,0.666,3.5,1c0.443,0.127,1.039-0.051,1.366-0.366 c0.311-0.299,0.195-0.641-0.202-0.755c-1.167-0.333-2.333-0.666-3.5-1c-0.443-0.127-1.039,0.051-1.366,0.366 C270.405,33.354,270.521,33.696,270.918,33.811L270.918,33.811z"/>
</svg>