<?xml version="1.0" encoding="UTF-8" standalone="no"?>
<svg xmlns="http://www.w3.org/2000/svg" version="1.0" width="487" height="193">
<path d="M333.749,48.242c2.059,0.583,2.401,3.044,3.239,4.966 C335.917,51.644,331.832,50.857,333.749,48.242z
M147.125,78.747c-1.512,0-3.024,0-4.536,0 C141.902,74.921,147.811,74.921,147.125,78.747z
M208.036,83.713c0.942,0.388,3.35-0.83,3.24,0.709 C212.005,86.856,206.562,86.524,208.036,83.713z
M405.028,115.638c3.16-0.149,2.606,3.768,2.593,7.095 C404.706,122.791,403.402,118.298,405.028,115.638z
M153.604,124.86c1.378,2.254,6.098,3.905,4.536,7.095 C155.247,131.102,154.387,128.023,153.604,124.86z
M342.173,128.408c-0.48,3.494-2.783,4.993-5.832,5.675 c0.104-0.824-0.144-1.263-0.648-1.419C336.034,129.256,339.134,128.865,342.173,128.408z
M304.589,21.283c-13.039-10.785-39.03,0.345-51.84,11.351 c8.816-1.833,20.016,14.994,8.424,21.993c-1.188-4.001,2.609-5.323,2.592-9.223c-0.035-7.234-8.709-11.648-14.256-10.642 c-7.749,1.406-28.729,20.88-24.624,31.215c13.759,8.61,27.769-4.342,36.289-10.642c-6.557,11.316-24.856,21.206-38.88,12.06 c-0.929-20.171,13.453-23.581,22.68-32.634c-28.179-2.081-57.249,11.598-80.352,21.993c16.424,22.186-25.433,32.477-38.232,36.181 c5.413-5.898,16.686-5.381,23.328-9.932c8.085-3.741,24.627-15.668,11.016-24.121c-16.279,9.845-34.066,18.04-45.36,33.344 c2.422,2.278,9.221-3.469,10.368,1.419c-5.267,0.382-10.04,1.305-14.256,2.837c-8.979,8.809-18.752,21.919-32.4,29.087 c-3.352,1.76-7.122,2.712-11.016,2.128c1.328-16.697,20.477-19.136,28.512-29.796c-6.736,2.183-16.349-0.219-22.68,1.419 c-6.925,1.791-10.678,9.228-16.848,10.642c0.789-3.875,8.755-6.017,11.664-9.932c-6.395-0.369-12.778-5.753-18.144-2.838 c-0.446,1.907,1.34,1.371,1.944,2.128c-13.502,3.664-23.322,11.356-31.104,21.283c7.185,5.538,16.786-3.536,23.976-4.966 c-5.521,5.956-18.537,10.38-25.92,7.804c1.578-13.171,13.588-14.919,20.736-21.992c-2.516-1.975-6.557-2.281-8.424-4.966 c-0.295-10.255,5.108-14.272,11.016-17.736c2.064-17.84,12.385-26.643,25.272-32.634c1.199-0.107,0.397-2.403,1.296-2.838 c18.795-6.651,44.533-25.138,65.448-12.061c0.116,8.404-2.949,13.325-7.776,16.317c21.031,3.077,39.551-17.312,58.968-20.574 c2,3.068-2.574,3.983-4.536,4.966c-8.734,7.228-19.188,12.573-27.216,20.574c7.168,8.066,13.839-0.074,23.976-4.256 c8.013-3.307,19.128-7.328,27.216-9.932c8.298-2.672,18.636-5.552,26.568-6.385c4.862-0.51,9.517,1.042,14.256,0 c5.742-1.263,10.844-5.747,16.199-8.513c10.405-5.373,20.541-9.52,33.049-8.513C302.859,15.489,304.521,17.029,304.589,21.283z M108.892,96.483c-15.025,0.339-18.957,12.825-30.456,17.026c-1.923,4.989-7.834,5.612-8.424,12.061 C87.069,123.186,97.84,107.803,108.892,96.483z M117.316,28.377C95.23,30.245,68.5,46.371,52.516,60.302 c-1.32,4.318-8.153,9.872-5.832,13.479c16.495-7.927,40.063-22.172,64.152-23.412c11.72-0.603,20.934-3.446,21.384-17.736 C128.594,28.576,122.165,27.968,117.316,28.377z M143.236,49.66c3.269,0.442,5.556,1.958,9.072,2.128 c6.057-6.851,17.001-12.126,21.384-18.445C163.678,38.934,151.13,41.749,143.236,49.66z M94.636,70.943 c10.734-4.33,23.055-10.703,27.216-19.864C91.294,55.224,64.225,63.188,44.74,79.457c0.922,6.321,3.831,10.468,7.776,13.479 C68.557,86.428,80.202,78.342,94.636,70.943z M73.252,97.902c11.692-10.397,25.913-20.212,34.344-31.215 c-17.39,8.393-33.683,17.988-50.544,26.959C59.84,98.672,68.708,96.541,73.252,97.902z M101.116,95.773 c2.369-0.806,3.201-4.916,5.832-2.837c1.435-3.407,6.115-7.006,9.072-6.385c-2.011,3.711-7.982,3.085-9.072,7.804 c6.464,0.691,7.554-4.5,11.016-7.094c0.351-2.825-2.294,0.766-1.944-2.837c2.217-0.646,4.015-1.753,6.48-2.128 c6.663-11.387,17.961-17.699,25.272-28.377c-4.998-3.738-9.647-2.694-13.608-0.709c-7.669,3.844-18.93,8.609-25.272,14.898 c-0.54,0.537-0.148,2.237-0.648,2.838c-3.181,3.827-8.625,7.175-11.664,9.932c-7.063,6.408-15.305,10.915-20.736,17.026 C83.493,96.094,93.789,98.269,101.116,95.773z M120.556,56.755c5.793-1.021,7.624-2.027,11.016-5.676 C124.796,49.992,124.425,53.639,120.556,56.755z M134.165,72.362c8.146-4.797,16.753-9.09,23.976-14.898 c-3.518,0.304-4.316-2.369-7.128-2.838C146.65,61.44,136.351,65.53,134.165,72.362z M34.373,96.483 c5.249,3.675,14.183,2.783,16.2-2.128c-3.274-3.51-6.934-6.597-7.128-13.479C38.454,83.742,32.418,88.266,34.373,96.483z
M344.765,87.97c-0.435,5.207-7.615,9.158-9.721,14.898 c2.652,3.482,7.379,4.691,11.017,7.094c2.694-2.489,5.258-5.122,9.071-6.385c-1.423,3.172-4.922,4.07-7.127,6.385 c8.625,2.939,17.492,1.81,25.271,1.418c-2.38-5.435-7.027-8.386-10.368-12.77c-3.462,0.703-4.382,4.188-7.776,4.966 c0.902-3.269,4.555-3.527,5.832-6.385c-0.199-1.673-2.25-1.32-1.943-3.547c2.881-0.777,3.43,3.132,5.184,1.418 c2.1-0.505,0.416-4.05,1.297-4.256c1.978,0.583,1.554,1.995,3.887,0.709c-0.619,2.87-3.013,3.795-5.184,4.966 c3.335,5.572,8.744,8.872,11.664,14.898c15.256-2.921,27.658-15.573,27.864-34.762c-1.978-1.855-3.628-4.068-5.832-5.675 c-2.812,1.179-4.518,3.566-7.776,4.257c1.451-2.668,4.847-3.207,6.48-5.676c-16.763-4.505-35.531,4.331-46.008,13.479 c1.63,4.843,7.749,4.467,7.127,9.932c0.521-0.375,1.053-0.74,1.945-0.709c-2.409,1.896-4.957-2.473-8.425-5.676 c-2.806-0.707-3.596,0.793-5.184,1.419c-0.177-2.941,0.851-2.764,0-4.966c2.034,0.788,1.712,0.333,3.239-0.709 c11.748-9.996,29.932-20.08,48.601-14.189c4.695-1.249,7.963-7.029,12.96-5.675c0.265,1.709-1.184,1.542-0.648,3.547 c-4.174,0.414-6.47,4.167-9.72,3.547c3.542,3.619,4.876,7.498,4.536,12.77c-1.027,15.943-12.356,28.233-26.568,29.086 c2.715,6.856,10.018,10.339,14.904,15.607c1.833,1.977,2.262,3.049,3.888,4.257c1.896,1.407,0.851,2.562,1.944,3.548 c0.909,0.818,2.663,0.393,3.888,1.418c5.475,4.585,11.283,12.13,15.553,12.771c4.796,0.719,11.457-4.372,18.144-5.676 c7.62-1.486,17.966-3.95,27.864-1.419c0.849,0.218,1.404,2.148,3.24,2.838c3.388,1.272,6.932,0.389,7.128,6.385 c-12.727-13.702-37.077-6.974-53.137-1.419c9.067,9.021,36.626,18.294,51.84,6.385c0.232-2.208,0.1-5.063,0.648-3.547 c3.291-1.06,0.605,2.758,0.648,5.676c-21.053,12.626-42.423-1.675-62.208-8.514c0.16-0.771,1.288-0.481,1.296-1.419 c-13.93-10.289-26.086-22.52-37.584-35.472c-10.855,1.742-23.337-0.723-32.4,0c-2.504-3.644-7.387-4.683-11.016-7.094 c-2.494,1.29-1.941,5.916-5.184,6.385c-0.08-4.889,4.28-6.006,3.887-9.222c-5.184-3.285-9.811-11.729-8.424-19.864 c0.055-0.316,0.629,1.167,0.648,1.419c-0.6-8.107,15.164-6.435,21.384-2.128c-4.203,2.386-15.146-4.893-20.088,1.419 c-1.098,6.886,3.599,11.183,3.24,14.898c1.031,0.011,3.036,0.791,3.888,2.838C337.692,98.529,340.94,90.127,344.765,87.97z
M271.54,114.219c5.429-1.432,12.5-5.209,18.145-2.128 c0.335,4.861-2.821,5.897-5.184,7.804c18.418-0.682,42.568-8.187,59.615-7.095c0.518,1.326,1.083,2.598,1.296,4.257 c-2.923,6.108-13.581,6.061-16.848,7.804c-4.272-7.65,6.808-6.285,9.72-9.932c-14.29-0.73-40.945,6.275-59.615,8.513 c1.084-5.197,7.23-4.853,8.424-9.932c-10.611-2.554-18.557,6.1-29.16,8.513c0.339-4.122,4.223-4.362,7.128-5.675 c16.749-12.17,33.677-24.141,46.655-40.438c-4.24,0.884-8.049,3.149-11.664,5.676c-9.386,6.562-19.367,13.176-28.512,19.864 c-9.952,7.278-24.857,13.321-36.936,17.736c-2.731,2.461-9.925,6.763-12.312,4.965c5.9-4.891,13.04-8.426,17.496-14.897 c-13.934,0.826-25.72,10.149-39.528,13.479c-0.143-2.995,1.216-4.345,3.24-4.966c-5.196,0.276-12.546,7.955-18.792,7.094 c2.298-3.632,5.932-5.803,9.72-7.804c-7.197-0.258-10.442,5.922-20.736,4.966c-1.231-6.314,3.649-5.937,4.536-9.932 c-8.518,2.366-17.55,7.306-25.272,9.932c4.516-9.245,14.733-12.247,20.088-20.573c-17.473,7.847-33.184,18.46-47.952,22.701 c3.76-9.642,14.443-14.542,20.088-19.864c-15.662,5.319-30.044,18.187-48.6,22.702c-0.274-1.482,0.444-1.878,0.648-2.838 c-0.721-0.353-6,1.952-3.888,4.967c-2.061,0.107-2.851,1.608-5.184,1.418c6.216-10.929,17.973-15.794,26.568-24.12 c3.22,6.585-6.466,10.088-9.72,14.188c12.104-0.702,21.574-10.432,32.4-14.898c3.968-4.406,10.696-5.789,13.608-11.351 c9.573-2.052,11.972-11.96,22.032-13.479c-3.664,6.102-9.75,9.155-14.904,13.479c-9.713,8.148-18.584,17.352-28.512,26.249 c11.328-3.871,19.849-10.713,31.104-14.188c8.943-7.236,21.36-10.667,27.864-20.574c2.248,0.569,2.491-1.056,4.536-0.709 c-1.186,6.463-7.92,7.945-11.664,11.351c-6.889,6.269-12.646,13.782-20.088,19.155c8.471-1.196,18.764-10.113,28.512-9.932 c-3.266,5.884-10.812,7.081-13.608,13.479c8.119-1.269,16.4-3.423,24.624-6.385c5.493-1.979,9.014-6.798,14.256-9.223 c2.269-1.049,3.664,0.081,6.48,0c0.481,5.967-2.957,7.642-5.832,9.932c9.805-0.397,17.641-7.999,27.864-6.385 c-0.396,6.424-6.728,6.35-9.072,10.642c10.781-4.441,25.873-9.806,36.287-18.445c1.163-0.09,1.367,0.869,2.593,0.709 c-0.018-0.69-0.793-0.551-1.296-0.709c16.131-10.435,30.063-21.718,47.304-31.925c2.949,3.224-3.813,9.275-5.832,9.223 c-0.956,3.919-4.407,5.107-7.128,7.095C297.103,96.327,283.137,103.977,271.54,114.219z M333.101,122.022 c4.426-0.12,6.764-2.526,8.424-5.675C337.984,117.438,335.487,119.67,333.101,122.022z M210.628,109.962 c2.508-0.802,5.255-1.341,6.48-3.547C213.723,106.256,212.209,108.146,210.628,109.962z M197.021,118.476 c3.79-3.418,9.871-4.328,12.96-8.513C205.667,112.341,198.657,115.53,197.021,118.476z M206.74,118.476 c2.427-0.181,4.167-1.113,5.184-2.838C209.937,113.98,207.557,116.633,206.74,118.476z
M390.124,75.909c-7.339,4.055-13.427,13.167-20.736,14.898 C376.804,86.837,382.5,77.296,390.124,75.909z
M55.756,109.253c0.728,4.826-4.205,0.231-3.24,4.256 c-3.382-0.773-4.541,3.558-6.48,2.128C48.601,111.626,53.213,111.876,55.756,109.253z" />
</svg>