<?xml version="1.0" encoding="UTF-8" standalone="no"?>
<!-- Created with Inkscape (http://www.inkscape.org/) -->

<svg
   xmlns:dc="http://purl.org/dc/elements/1.1/"
   xmlns:cc="http://creativecommons.org/ns#"
   xmlns:rdf="http://www.w3.org/1999/02/22-rdf-syntax-ns#"
   xmlns:svg="http://www.w3.org/2000/svg"
   xmlns="http://www.w3.org/2000/svg"
   xmlns:sodipodi="http://sodipodi.sourceforge.net/DTD/sodipodi-0.dtd"
   xmlns:inkscape="http://www.inkscape.org/namespaces/inkscape"
   width="325.50793"
   height="145.99927"
   id="svg2"
   version="1.1"
   inkscape:version="0.47pre2 r22153"
   sodipodi:docname="New document 1">
  <defs
     id="defs4">
    <inkscape:perspective
       sodipodi:type="inkscape:persp3d"
       inkscape:vp_x="0 : 526.18109 : 1"
       inkscape:vp_y="0 : 1000 : 0"
       inkscape:vp_z="744.09448 : 526.18109 : 1"
       inkscape:persp3d-origin="372.04724 : 350.78739 : 1"
       id="perspective10" />
    <inkscape:perspective
       id="perspective2902"
       inkscape:persp3d-origin="0.5 : 0.33333333 : 1"
       inkscape:vp_z="1 : 0.5 : 1"
       inkscape:vp_y="0 : 1000 : 0"
       inkscape:vp_x="0 : 0.5 : 1"
       sodipodi:type="inkscape:persp3d" />
    <inkscape:perspective
       id="perspective2984"
       inkscape:persp3d-origin="0.5 : 0.33333333 : 1"
       inkscape:vp_z="1 : 0.5 : 1"
       inkscape:vp_y="0 : 1000 : 0"
       inkscape:vp_x="0 : 0.5 : 1"
       sodipodi:type="inkscape:persp3d" />
    <inkscape:perspective
       id="perspective3060"
       inkscape:persp3d-origin="0.5 : 0.33333333 : 1"
       inkscape:vp_z="1 : 0.5 : 1"
       inkscape:vp_y="0 : 1000 : 0"
       inkscape:vp_x="0 : 0.5 : 1"
       sodipodi:type="inkscape:persp3d" />
  </defs>
  <sodipodi:namedview
     id="base"
     pagecolor="#ffffff"
     bordercolor="#666666"
     borderopacity="1.0"
     inkscape:pageopacity="0.0"
     inkscape:pageshadow="2"
     inkscape:zoom="1.0098387"
     inkscape:cx="-65.793284"
     inkscape:cy="75.276256"
     inkscape:document-units="px"
     inkscape:current-layer="layer1"
     showgrid="false"
     inkscape:window-width="990"
     inkscape:window-height="722"
     inkscape:window-x="0"
     inkscape:window-y="0"
     inkscape:window-maximized="0" />
  <metadata
     id="metadata7">
    <rdf:RDF>
      <cc:Work
         rdf:about="">
        <dc:format>image/svg+xml</dc:format>
        <dc:type
           rdf:resource="http://purl.org/dc/dcmitype/StillImage" />
        <dc:title></dc:title>
      </cc:Work>
    </rdf:RDF>
  </metadata>
  <g
     inkscape:label="Layer 1"
     inkscape:groupmode="layer"
     id="layer1"
     transform="translate(-608.65797,-461.63919)">
    <path
       style="fill:#000000"
       d="m 804.85728,607.27111 c -0.63988,-0.26005 -2.70323,-0.6532 -4.58522,-0.87368 -1.882,-0.22048 -3.67242,-0.60885 -3.97871,-0.86305 -0.30629,-0.2542 -1.48887,-0.60789 -2.62795,-0.78599 -1.13909,-0.17809 -2.80092,-0.71081 -3.69296,-1.18382 -0.89204,-0.47301 -1.97911,-0.86003 -2.4157,-0.86003 -0.43661,0 -0.93646,-0.23078 -1.11078,-0.51285 -0.17433,-0.28206 -0.97199,-0.80986 -1.77259,-1.17288 -5.13715,-2.32935 -13.24265,-8.02762 -15.88199,-11.16523 -0.5119,-0.60854 -1.69022,-1.93512 -2.61847,-2.94795 -2.07522,-2.26429 -6.7074,-9.17005 -7.62649,-11.36976 -0.37238,-0.89122 -0.88964,-1.75179 -1.14947,-1.91237 -0.25983,-0.16058 -0.47242,-0.65416 -0.47242,-1.09684 0,-0.44268 -0.40668,-1.60256 -0.90374,-2.57751 -0.49706,-0.97494 -1.04208,-2.40253 -1.21117,-3.17239 -0.34864,-1.58732 -2.38097,-5.7882 -3.37679,-6.97991 -0.54506,-0.65227 -1.20701,-0.74788 -3.75118,-0.54176 -1.69913,0.13766 -3.82228,0.51947 -4.71811,0.84848 -0.89583,0.32901 -3.82764,0.74421 -6.51513,0.92268 -2.68749,0.17846 -6.03813,0.61208 -7.44586,0.9636 -1.40774,0.35151 -4.75837,0.8697 -7.44587,1.15152 -2.68749,0.28182 -5.51459,0.70125 -6.28244,0.93208 -0.76786,0.23083 -4.64203,0.66727 -8.60928,0.96987 -3.96725,0.30261 -7.71373,0.73897 -8.3255,0.9697 -0.61178,0.23073 -5.63773,0.61674 -11.1688,0.85779 -5.53106,0.24105 -10.78942,0.66379 -11.68525,0.93944 -0.92872,0.28576 -8.17012,0.62246 -16.84783,0.78337 -13.13834,0.24361 -15.49242,0.18253 -17.21856,-0.44684 -1.09973,-0.40097 -3.51471,-0.82381 -5.36662,-0.93963 -1.85192,-0.11582 -3.63194,-0.4277 -3.95562,-0.69307 -0.32368,-0.26537 -1.42616,-0.71169 -2.44997,-0.99182 -1.02381,-0.28014 -2.78701,-1.34769 -3.91824,-2.37234 -1.13122,-1.02464 -2.23065,-1.86299 -2.44317,-1.86299 -0.21252,0 -0.3864,-0.30372 -0.3864,-0.67493 0,-0.3712 -0.28451,-0.84239 -0.63223,-1.04707 -1.05371,-0.62025 -1.8183,-3.74225 -1.47582,-6.0261 0.21707,-1.44751 0.7705,-2.56566 1.79273,-3.62203 1.8535,-1.9154 6.24157,-3.98696 8.44536,-3.98696 0.9199,0 2.43805,-0.31985 3.37366,-0.71078 1.30877,-0.54683 4.82054,-0.79748 15.22581,-1.08669 15.14855,-0.42106 47.34865,0.10282 49.18285,0.80018 0.65565,0.24928 4.52332,0.69371 8.59481,0.98761 4.07148,0.29391 8.24036,0.81625 9.26417,1.16076 1.0238,0.34451 4.20231,0.76028 7.06335,0.92394 2.86103,0.16366 5.89754,0.51375 6.74781,0.77796 0.85026,0.26422 4.15454,0.75022 7.34283,1.08 3.39255,0.35092 5.86961,0.81773 5.9722,1.12551 0.16635,0.49903 2.88994,0.77919 2.88994,0.29727 0,-0.51673 -2.97982,-3.02893 -3.59274,-3.02893 -0.7802,0 -4.56399,-2.15307 -6.06361,-3.45035 -1.13136,-0.9787 -1.34432,-2.11602 -0.54576,-2.91459 0.67346,-0.67346 3.72337,0.0305 4.25606,0.98239 0.22435,0.40089 0.71162,0.72889 1.08283,0.72889 0.37121,0 1.04569,0.37076 1.49884,0.82391 1.50744,1.50744 5.08203,3.33059 7.14472,3.64403 1.12021,0.17022 2.35087,0.57716 2.73479,0.9043 0.38393,0.32714 1.74513,0.74083 3.02488,0.91929 1.27976,0.17847 2.74874,0.58844 3.2644,0.91106 0.51565,0.32262 1.66743,0.73784 2.55951,0.92272 0.89208,0.18488 2.56432,0.64679 3.71611,1.02647 2.25031,0.74182 4.58267,0.58568 8.5774,-0.57421 1.26223,-0.36649 3.48711,-0.66635 4.94418,-0.66635 1.45707,0 3.53954,-0.31412 4.62771,-0.69805 1.08816,-0.38392 2.75454,-0.69804 3.70307,-0.69804 0.94852,0 3.15394,-0.44866 4.90094,-0.99702 2.47279,-0.77618 3.36292,-0.88051 4.0186,-0.47104 0.57011,0.35604 1.21987,0.38241 2.011,0.0816 0.64282,-0.2444 3.4245,-0.5772 6.18149,-0.73954 2.75701,-0.16235 6.30517,-0.58126 7.88481,-0.93092 1.57965,-0.34965 5.45382,-0.75578 8.60928,-0.9025 3.15546,-0.14672 9.61138,-0.59801 14.34648,-1.00286 5.90766,-0.50511 10.79979,-0.64327 15.58978,-0.44029 10.96118,0.46449 30.10579,1.98769 31.64492,2.51777 0.76785,0.26445 3.18275,0.60058 5.36643,0.74696 2.18368,0.14638 5.01078,0.56311 6.28244,0.92606 1.27167,0.36296 3.56839,0.80566 5.10384,0.98379 1.53544,0.17813 3.31547,0.58959 3.95561,0.91434 0.64015,0.32476 2.73451,0.69606 4.65415,0.82512 1.91964,0.12905 4.11849,0.57342 4.88635,0.98749 0.76785,0.41406 1.71998,0.75413 2.11584,0.7557 0.81929,0.003 2.21295,0.97677 4.4269,3.0923 1.12805,1.07789 1.61478,2.03527 1.85745,3.65352 0.18086,1.20607 0.45896,1.99055 0.61799,1.74329 0.15903,-0.24726 0.77125,-0.60007 1.36048,-0.78403 1.70493,-0.53227 5.5955,-5.24769 6.38681,-7.7409 0.47736,-1.50404 0.30967,-6.21923 -0.26665,-7.4977 -2.44658,-5.42735 -5.96467,-7.06066 -17.76911,-8.24947 -3.56565,-0.35909 -6.17809,-1.5662 -7.91021,-3.65498 -0.97253,-1.17278 -0.66023,-6.52825 0.50774,-8.70694 1.34106,-2.50158 1.28689,-4.12905 -0.1692,-5.08312 -0.63988,-0.41927 -1.16342,-1.07053 -1.16342,-1.44724 0,-1.22054 3.67959,-2.49826 7.75806,-2.69396 2.72753,-0.13087 4.01959,-0.39959 4.57057,-0.95057 0.42246,-0.42246 1.14374,-0.76811 1.60284,-0.76811 0.45911,0 1.33416,-0.39002 1.94457,-0.86672 0.61041,-0.47669 1.55987,-1.00763 2.1099,-1.17985 0.55004,-0.17223 2.33007,-1.62798 3.95562,-3.23499 5.08577,-5.02781 6.08461,-6.74567 5.04821,-8.68221 -0.44001,-0.82217 -0.83161,-0.97132 -2.01738,-0.76838 -3.64988,0.62466 -7.67339,1.74912 -9.36467,2.61717 -1.01394,0.5204 -2.11148,0.94619 -2.43899,0.94619 -1.07943,0 -10.59003,5.13837 -12.69569,6.85919 -2.54857,2.08281 -10.7111,10.55173 -10.7111,11.11316 0,0.17207 -1.83238,2.12927 -4.07196,4.34933 -4.74467,4.70333 -10.56008,9.32323 -11.73583,9.32323 -1.24753,0 -3.27224,-1.80429 -3.27224,-2.91601 0,-0.6503 1.86527,-2.78725 5.46806,-6.26451 5.94069,-5.73369 8.99202,-8.03804 10.64371,-8.03804 0.68727,0 1.67649,-0.73695 2.81096,-2.09414 0.96277,-1.15179 2.02027,-2.09415 2.34999,-2.09415 0.32973,0 0.59951,-0.20942 0.59951,-0.46537 0,-0.91275 -2.21057,-0.49486 -2.46168,0.46537 -0.14975,0.57264 -0.63476,0.93073 -1.26063,0.93073 -0.55948,0 -1.5497,0.41883 -2.20047,0.93073 -0.65078,0.51191 -1.5804,0.93074 -2.06582,0.93074 -0.48542,0 -0.99522,0.29353 -1.13289,0.6523 -0.13767,0.35877 -1.02064,0.79682 -1.96214,0.97345 -0.9415,0.17662 -1.81701,0.47646 -1.94557,0.6663 -0.31745,0.46876 -5.95464,3.29234 -6.57305,3.29234 -0.27192,0 -1.02685,0.41883 -1.67763,0.93074 -0.65077,0.5119 -1.52147,0.93783 -1.93486,0.94652 -0.4134,0.009 -1.5893,0.42041 -2.6131,0.91494 -1.02381,0.49454 -2.32029,0.90626 -2.88108,0.91494 -0.56078,0.009 -1.14258,0.21477 -1.29289,0.45797 -0.3739,0.60498 -5.69897,3.28076 -6.52905,3.28076 -0.36839,0 -1.47103,0.41762 -2.45032,0.92806 -2.52249,1.31479 -7.88381,1.45608 -8.77935,0.23137 -0.35067,-0.47958 -0.63758,-1.16112 -0.63758,-1.51454 0,-1.40314 2.50288,-4.7727 6.11195,-8.22831 2.97402,-2.84758 3.64577,-3.72017 3.09934,-4.02597 -0.44256,-0.24767 -1.35421,-0.0557 -2.49335,0.52509 -0.98764,0.50352 -2.24932,0.9155 -2.80375,0.9155 -0.55442,0 -1.24778,0.28889 -1.54082,0.64197 -0.29303,0.35308 -1.19002,0.77341 -1.99331,0.93407 -0.80329,0.16066 -1.75284,0.70943 -2.1101,1.2195 -0.35726,0.51007 -0.84054,0.92739 -1.07394,0.92739 -0.23341,0 -1.63508,0.79112 -3.11484,1.75804 -3.55526,2.32311 -4.33268,2.79524 -5.71535,3.47091 -0.63987,0.3127 -1.32209,0.81901 -1.51602,1.12514 -0.19395,0.30613 -1.08396,0.79796 -1.97781,1.09296 -0.89386,0.295 -1.6252,0.72146 -1.6252,0.9477 0,0.22624 -0.83766,0.6369 -1.86146,0.91258 -1.02381,0.27568 -1.86147,0.70258 -1.86147,0.94867 0,0.24609 -0.85002,0.44743 -1.88893,0.44743 -2.21142,0 -2.08175,-0.69337 0.21008,-1.12332 0.87394,-0.16395 1.70481,-0.5999 1.84636,-0.96878 0.14155,-0.36888 0.97386,-0.97006 1.84958,-1.33596 0.87572,-0.3659 1.73485,-0.89605 1.90918,-1.17812 0.17433,-0.28207 0.69139,-0.51285 1.14902,-0.51285 0.45763,0 1.31498,-0.41883 1.90521,-0.93073 0.59023,-0.51191 1.2853,-0.93074 1.54461,-0.93074 0.2593,0 0.80315,-0.31926 1.20855,-0.70948 1.18305,-1.13874 4.21519,-3.01345 4.87392,-3.01345 0.3329,0 0.9843,-0.41883 1.44756,-0.93073 0.46327,-0.5119 1.15231,-0.93073 1.53121,-0.93073 0.37889,0 1.16437,-0.47119 1.7455,-1.04708 1.61294,-1.59839 2.23928,-2.04064 4.45342,-3.14456 2.4101,-1.20161 6.19741,-2.31019 7.91901,-2.31797 3.43422,-0.0155 2.93344,4.26499 -0.89577,7.65679 -4.34459,3.84831 -6.18543,6.03469 -6.05148,7.18739 0.12052,1.03712 0.33502,1.18519 1.53618,1.0604 0.76785,-0.0798 1.92791,-0.52463 2.5779,-0.98858 0.64998,-0.46395 1.90647,-1.00133 2.7922,-1.19419 0.88571,-0.19284 2.02347,-0.63799 2.52833,-0.98922 0.50486,-0.35122 1.36284,-0.63859 1.9066,-0.63859 0.54377,0 1.47158,-0.41883 2.06181,-0.93073 0.59023,-0.5119 1.30597,-0.93073 1.59054,-0.93073 0.28457,0 1.29884,-0.41883 2.25394,-0.93073 0.9551,-0.51191 1.95969,-0.93074 2.23242,-0.93074 0.5266,0 5.31262,-2.08288 6.48799,-2.82358 0.38393,-0.24195 1.01218,-0.56395 1.3961,-0.71555 1.29551,-0.51157 6.25861,-3.02728 10.00538,-5.07157 2.04762,-1.1172 5.2456,-2.80518 7.10664,-3.75107 1.86103,-0.94589 3.49279,-1.89631 3.62612,-2.11205 0.13334,-0.21573 1.04668,-0.63321 2.02965,-0.92772 1.0207,-0.3058 2.95836,-1.62896 4.51779,-3.08502 1.50181,-1.40226 4.30117,-4.02324 6.22081,-5.82439 1.91963,-1.80116 4.01378,-3.60722 4.65366,-4.01347 0.63988,-0.40625 1.33089,-1.00543 1.53557,-1.33152 0.20468,-0.32608 0.66546,-0.59288 1.02395,-0.59288 0.35849,0 0.81927,-0.28763 1.02395,-0.63918 0.53468,-0.91834 5.66021,-3.54911 6.91473,-3.54911 2.68583,0 3.38746,1.7171 1.48499,3.63423 -2.28475,2.30237 -5.26614,4.72957 -5.81708,4.73579 -0.31994,0.004 -0.58171,0.21318 -0.58171,0.46569 0,0.25252 -0.74803,0.77167 -1.66227,1.15367 -0.91425,0.382 -1.53014,0.90834 -1.36864,1.16966 0.46338,0.74977 2.94257,0.55445 4.30657,-0.33927 0.84165,-0.55147 2.16226,-0.8144 4.09046,-0.8144 2.52429,0 3.01526,0.15831 4.3251,1.39459 1.76758,1.66831 1.88849,3.14011 0.47997,5.84241 -1.01021,1.93814 -6.65233,7.88741 -7.48019,7.88741 -0.24752,0 -0.9825,0.41883 -1.63328,0.93074 -0.65078,0.5119 -1.54818,0.93073 -1.99423,0.93073 -0.44605,0 -1.06052,0.30066 -1.36549,0.66814 -0.30498,0.36747 -1.22064,0.80961 -2.0348,0.98252 -0.81415,0.17292 -1.8305,0.62295 -2.25855,1.00009 -0.42805,0.37713 -1.68454,0.78341 -2.7922,0.90284 -4.5519,0.49081 -4.93457,0.6214 -5.22628,1.78366 -0.15523,0.6185 -0.0546,1.62411 0.22356,2.23468 0.37368,0.82013 0.33385,2.28551 -0.15248,5.60954 -0.59231,4.0484 -0.58448,4.56561 0.0781,5.1597 0.92747,0.83162 5.90659,2.13495 8.15617,2.13495 0.93559,0 2.26656,0.28614 2.95771,0.63586 0.69116,0.34972 2.08724,0.78653 3.10241,0.97069 1.01516,0.18417 2.40868,0.73569 3.09672,1.22562 0.68803,0.48992 1.37781,0.89076 1.53284,0.89076 0.15504,0 1.23489,0.89002 2.39967,1.97781 2.63083,2.45695 4.35585,5.83864 4.70159,9.21686 0.22508,2.19935 0.0695,2.99845 -1.04191,5.35172 -0.71858,1.52148 -1.58163,3.04305 -1.9179,3.38127 -0.33627,0.33822 -0.61139,0.80917 -0.61139,1.04654 0,0.562 -9.25259,7.87852 -9.96329,7.87852 -0.29884,0 -1.36485,0.41883 -2.36892,0.93074 -1.00407,0.5119 -2.27926,0.93073 -2.83377,0.93073 -0.5545,0 -1.71436,0.29105 -2.57746,0.64678 -0.86309,0.35574 -3.13988,0.79895 -5.05952,0.98491 -1.91963,0.18596 -4.04417,0.62188 -4.72119,0.9687 -0.67702,0.34683 -3.60883,0.85347 -6.51513,1.12587 -2.9063,0.2724 -6.12184,0.7313 -7.14565,1.01976 -2.42382,0.68294 -34.96689,0.66527 -37.92737,-0.0206 -1.15178,-0.26684 -4.73122,-0.71144 -7.95431,-0.988 -3.2231,-0.27655 -6.57373,-0.7152 -7.44587,-0.97477 -0.87213,-0.25957 -3.33228,-0.67764 -5.46699,-0.92904 -2.13472,-0.2514 -4.43828,-0.7448 -5.11903,-1.09644 -0.68076,-0.35163 -2.70364,-0.79238 -4.4953,-0.97942 -1.79166,-0.18705 -3.81706,-0.62481 -4.5009,-0.97278 -0.68383,-0.34798 -2.93838,-0.82233 -5.0101,-1.05411 -2.07173,-0.23178 -4.02521,-0.63589 -4.34107,-0.898 -0.31586,-0.26212 -2.1449,-0.62223 -4.06454,-0.80024 -1.91963,-0.17801 -3.91952,-0.59203 -4.44419,-0.92006 -0.52467,-0.32802 -2.47522,-0.83243 -4.33454,-1.12091 -1.85932,-0.28848 -3.83831,-0.80974 -4.39776,-1.15835 -0.55945,-0.34861 -2.33128,-0.76079 -3.9374,-0.91596 -1.60611,-0.15517 -3.49084,-0.57043 -4.18829,-0.92281 -0.69745,-0.35237 -2.40374,-0.78588 -3.79176,-0.96335 -1.38802,-0.17747 -2.90077,-0.5245 -3.36168,-0.77117 -1.09208,-0.58446 -11.06836,-1.89973 -11.65577,-1.5367 -0.24831,0.15347 -1.95264,0.41317 -3.78739,0.57711 -3.03717,0.27139 -3.34968,0.39529 -3.48965,1.38353 -0.0846,0.597 0.1469,1.43466 0.51435,1.86147 0.36744,0.42681 1.86064,2.87016 3.31821,5.42968 3.46697,6.08805 3.40919,5.99166 5.85181,9.76238 2.74356,4.23528 2.56302,4.02435 9.31671,10.88438 5.82655,5.91826 9.71149,9.36935 10.54726,9.36935 0.24532,0 0.85988,0.36648 1.36569,0.81439 1.66235,1.47207 3.67533,2.77172 4.84924,3.13084 0.63493,0.19424 1.49196,0.64878 1.9045,1.0101 0.41255,0.36131 1.95279,0.85268 3.42275,1.09192 1.46996,0.23924 2.95296,0.66761 3.29554,0.95193 0.34258,0.28432 1.8969,0.81415 3.45403,1.17741 1.55714,0.36325 3.32334,0.98295 3.92491,1.37712 0.8026,0.52588 2.9684,0.7936 8.13629,1.00574 3.8734,0.159 6.92938,0.40226 6.79106,0.54058 -0.47663,0.47663 -16.26538,0.46004 -17.44245,-0.0183 z m 73.5279,-38.09469 c 3.19939,-0.26589 10.56302,-0.66908 16.36361,-0.89598 7.51784,-0.29407 10.9257,-0.6036 11.86685,-1.07786 0.72617,-0.36593 2.1328,-0.79082 3.12584,-0.9442 2.48256,-0.38345 6.80375,-2.22907 6.80375,-2.90595 0,-0.30549 0.29149,-0.79735 0.64776,-1.09303 1.52017,-1.26164 1.25038,-2.48292 -1.00617,-4.55466 -1.19945,-1.10121 -2.60732,-2.00221 -3.12859,-2.00221 -0.52127,0 -1.72463,-0.41637 -2.67412,-0.92527 -0.9495,-0.5089 -2.93584,-1.0606 -4.41409,-1.226 -1.47826,-0.16541 -3.21127,-0.56997 -3.85115,-0.89905 -0.63988,-0.32907 -3.19624,-0.82484 -5.6808,-1.10171 -2.48456,-0.27688 -4.99754,-0.70226 -5.5844,-0.9453 -0.58686,-0.24304 -3.57999,-0.66971 -6.65141,-0.94816 -3.07142,-0.27846 -6.31735,-0.69767 -7.21318,-0.93158 -2.81886,-0.73605 -27.20155,-1.4528 -39.09078,-1.14911 -11.26748,0.28781 -16.19839,0.64064 -21.63954,1.54843 -1.53571,0.25621 -4.78164,0.57762 -7.21318,0.71424 -2.43154,0.13662 -6.0963,0.55509 -8.14392,0.92993 -2.04761,0.37485 -5.29354,0.82214 -7.21318,0.99398 -1.91963,0.17184 -4.57275,0.58914 -5.89581,0.92734 -1.32306,0.3382 -4.15016,0.74705 -6.28245,0.90857 -2.13228,0.16151 -4.39699,0.40307 -5.03268,0.53679 -1.0544,0.22178 -0.95232,0.34205 1.16341,1.37074 1.27557,0.62019 3.5443,1.32861 5.04161,1.57426 1.49731,0.24565 3.00273,0.67931 3.34538,0.96367 0.34264,0.28437 2.3635,0.80338 4.49079,1.15335 2.12729,0.34997 4.91488,0.8672 6.19464,1.14939 9.00652,1.98598 11.80643,2.53027 19.3127,3.75431 1.66369,0.2713 4.07196,0.70563 5.35172,0.96517 3.61032,0.73222 9.98022,1.54282 21.87222,2.78337 17.51712,1.82734 25.48805,2.12828 35.13517,1.32653 z M 682.93127,564.7877 c 6.27081,-0.37638 12.44855,-0.88396 13.72831,-1.12796 1.27976,-0.24399 4.7351,-0.59164 7.67855,-0.77255 2.94344,-0.18091 5.71924,-0.5182 6.16845,-0.74954 0.44921,-0.23134 3.27631,-0.63789 6.28245,-0.90345 3.00614,-0.26556 6.61749,-0.76761 8.02522,-1.11567 1.40773,-0.34805 4.33954,-0.76395 6.51513,-0.92421 2.17559,-0.16026 4.79327,-0.57817 5.81708,-0.92868 1.02381,-0.35051 3.9533,-0.85417 6.50998,-1.11926 3.49361,-0.36222 4.79588,-0.68349 5.24165,-1.29312 0.81922,-1.12034 0.51103,-1.71113 -1.08466,-2.07927 -4.68586,-1.08105 -7.03887,-1.45593 -11.5977,-1.84777 -2.81547,-0.24198 -5.95669,-0.65358 -6.9805,-0.91464 -1.02381,-0.26106 -4.64581,-0.76062 -8.04889,-1.11013 -3.40309,-0.34951 -6.47801,-0.87664 -6.83316,-1.17139 -0.38648,-0.32075 -3.97457,-0.70278 -8.93699,-0.95154 -4.56018,-0.2286 -10.07127,-0.67481 -12.24686,-0.99159 -5.71942,-0.83277 -51.45477,-0.824 -52.96657,0.0101 -0.59301,0.3272 -3.10599,0.80125 -5.5844,1.05345 -2.4784,0.25221 -4.92501,0.72776 -5.43692,1.05678 -0.5119,0.32903 -1.49136,0.73622 -2.17658,0.90488 -0.7568,0.18628 -1.53317,0.88261 -1.97781,1.7739 -0.94754,1.89939 -0.96677,4.85749 -0.0339,5.21547 0.38392,0.14732 0.69805,0.54648 0.69805,0.88703 0,0.34054 0.73295,0.88421 1.62878,1.20814 0.89583,0.32394 1.62878,0.78484 1.62878,1.02422 0,0.23939 0.26984,0.43525 0.59965,0.43525 0.32981,0 1.42924,0.43191 2.44318,0.9598 3.37004,1.75456 10.58959,2.89817 21.85031,3.4612 3.32519,0.16626 6.08665,0.33897 6.13658,0.38382 0.43988,0.39501 13.76182,0.17833 22.95279,-0.37332 z m 197.74029,-35.26203 c 0.22104,-0.57589 1.21057,-1.79461 2.19897,-2.70826 0.9884,-0.91366 2.35409,-2.32721 3.03486,-3.14123 1.11638,-1.33488 1.15061,-1.48003 0.34903,-1.48003 -0.48881,0 -0.88875,0.2146 -0.88875,0.47688 0,0.26229 -0.52353,0.67594 -1.16341,0.91922 -0.63988,0.24328 -1.16342,0.73923 -1.16342,1.10211 0,0.36288 -0.31412,0.78031 -0.69805,0.92764 -0.38392,0.14733 -0.69805,0.69327 -0.69805,1.21321 0,0.53005 -0.30665,0.94534 -0.69805,0.94534 -0.38392,0 -0.69805,0.20941 -0.69805,0.46536 0,0.25595 -0.41883,0.8842 -0.93073,1.3961 -0.93073,0.93073 -0.93073,0.93073 0.0115,0.93073 0.54783,0 1.11048,-0.4383 1.34413,-1.04707 z m 7.63714,-8.44744 c 0.29091,-0.7581 -0.0999,-1.29529 -0.6811,-0.93612 -0.52863,0.32672 -0.51662,1.58867 0.0151,1.58867 0.22857,0 0.52826,-0.29365 0.66599,-0.65255 z m 29.67787,-24.29903 c 3.55407,-2.75188 4.72172,-3.90114 3.96357,-3.90114 -0.66378,0 -2.7708,1.53411 -5.07534,3.69533 -1.48242,1.39023 -3.4195,3.01979 -4.30464,3.62125 -0.88513,0.60147 -1.60933,1.2113 -1.60933,1.35518 0,0.42227 2.59331,-1.33864 7.02574,-4.77062 z m -100.33171,37.05111 c -0.15819,-0.25595 -0.7042,-0.46537 -1.21335,-0.46537 -0.57509,0 -1.13756,-0.50004 -1.48497,-1.32018 -0.60914,-1.43795 -0.91426,-1.44587 -3.81681,-0.099 -4.49634,2.0864 -9.6226,1.87061 -10.81161,-0.45513 -0.67554,-1.32137 -0.34657,-3.69876 0.61706,-4.45943 0.35999,-0.28417 0.65453,-0.70824 0.65453,-0.94238 0,-0.53872 6.13855,-6.53394 8.60928,-8.40826 2.16979,-1.64602 5.65498,-3.39563 6.76402,-3.39563 0.42467,0 1.25503,-0.41883 1.84526,-0.93073 0.59023,-0.51191 1.32699,-0.93074 1.63723,-0.93074 0.31025,0 1.09654,-0.41883 1.74732,-0.93073 0.65078,-0.5119 1.66229,-0.93073 2.24779,-0.93073 1.28177,0 3.67499,2.17075 3.67499,3.33338 0,2.99045 -5.92115,8.08192 -13.49563,11.60461 -3.71784,1.72906 -4.07542,1.81388 -4.66286,1.10607 -0.4494,-0.5415 -0.0675,-0.87062 2.14678,-1.84985 3.79342,-1.67763 6.97098,-3.9086 10.08413,-7.08009 2.26584,-2.30828 2.59059,-2.84261 2.09415,-3.44557 -0.79247,-0.96253 -5.4739,-0.65791 -5.4739,0.35618 0,0.37254 -0.61968,0.89337 -1.37708,1.1574 -0.7574,0.26403 -1.49416,0.82903 -1.63724,1.25555 -0.14309,0.42652 -1.5652,1.75985 -3.16024,2.96293 -5.56254,4.19564 -10.43533,10.06856 -9.05945,10.9189 0.92458,0.57142 4.18423,0.15896 5.63744,-0.71334 0.79896,-0.47957 2.05385,-1.0139 2.78863,-1.18739 0.73479,-0.1735 1.63976,-0.61922 2.01105,-0.99052 0.37129,-0.37129 1.06707,-0.67507 1.54618,-0.67507 0.47911,0 1.18356,-0.4461 1.56546,-0.99132 0.48564,-0.69337 1.22793,-1.00809 2.46956,-1.04708 2.51915,-0.0791 2.5702,1.21059 0.16738,4.22841 -1.03533,1.30032 -1.88242,2.596 -1.88242,2.8793 0,0.2833 0.61112,0.51509 1.35804,0.51509 1.63554,0 2.83026,0.4139 2.83026,0.98052 0,0.57261 -4.06462,0.52683 -4.42098,-0.0498 z m -82.53836,-2.33424 c -1.35116,-1.35116 -1.59689,-1.43212 -2.93304,-0.96633 -0.80208,0.2796 -2.97889,0.50837 -4.83735,0.50837 -3.24271,0 -3.47457,-0.0755 -5.74764,-1.87228 l -2.36862,-1.87229 0,-2.75392 c 0,-1.51465 0.19414,-2.87389 0.43142,-3.02054 0.23728,-0.14664 0.68111,-1.02321 0.98629,-1.94792 0.30518,-0.92471 1.21047,-2.61556 2.01176,-3.75744 0.80129,-1.14188 1.66629,-2.43186 1.92225,-2.86662 0.58551,-0.99456 1.26897,-1.79173 4.25659,-4.96481 1.31731,-1.39909 2.20545,-2.66102 1.97364,-2.80429 -0.54023,-0.33388 -2.27462,0.20741 -2.27462,0.70989 0,0.21022 -0.76136,0.52505 -1.69191,0.69962 -0.93055,0.17458 -2.4457,0.72142 -3.36701,1.21521 -0.92131,0.49379 -1.88763,0.89722 -2.14737,0.89651 -0.25974,-9.3e-4 -1.30992,0.39482 -2.33372,0.87895 -2.17555,1.02876 -4.38222,1.81135 -6.9805,2.4756 -1.0238,0.26174 -2.71289,0.87082 -3.75351,1.35351 -1.04063,0.4827 -2.67099,0.87763 -3.62302,0.87763 -1.12364,0 -2.96365,0.6531 -5.24435,1.86147 -1.93237,1.0238 -3.75736,1.86275 -4.05553,1.86433 -0.29818,10e-4 -1.10092,0.2944 -1.78387,0.65072 -0.68294,0.35632 -2.14885,0.79666 -3.25757,0.97853 -1.10871,0.18187 -2.32996,0.60619 -2.71389,0.94294 -2.24863,1.97226 -7.20566,4.83199 -9.2087,5.31251 -2.75574,0.66109 -5.22783,0.14816 -6.91218,-1.4342 -0.87388,-0.82097 -1.09768,-1.51309 -1.09768,-3.39478 0,-2.00691 0.20437,-2.55644 1.35431,-3.64181 1.49937,-1.41516 2.80668,-1.6057 4.36281,-0.63589 0.56688,0.3533 2.05665,0.77241 3.31058,0.93135 1.25393,0.15893 2.51042,0.47264 2.7922,0.69711 0.97573,0.7773 4.62676,-0.77094 6.79476,-2.88137 2.23748,-2.17806 3.21139,-3.30248 3.95562,-4.56695 1.61396,-2.74216 9.67088,-14.34207 10.45342,-15.05026 1.99621,-1.80654 0.464,-2.82731 -2.21628,-1.4765 -0.69116,0.34833 -2.1614,0.77199 -3.26721,0.94148 -1.10582,0.16947 -2.50275,0.63062 -3.10428,1.02477 -0.60154,0.39414 -2.89534,1.00827 -5.09733,1.36472 -2.20198,0.35646 -4.2402,0.79433 -4.52937,0.97304 -0.28917,0.17872 -2.22128,0.48049 -4.29359,0.6706 -3.5508,0.32575 -4.54937,0.63426 -7.95612,2.45802 -0.76785,0.41105 -1.91964,1.01118 -2.55952,1.3336 -0.63987,0.32243 -1.33088,0.8524 -1.53556,1.17773 -0.20468,0.32533 -0.63518,0.59151 -0.95666,0.59151 -0.32149,0 -1.23389,0.47118 -2.02758,1.04708 -0.79368,0.57589 -1.90514,1.36119 -2.4699,1.74512 -0.56476,0.38393 -1.6268,1.32629 -2.36009,2.09415 -2.48064,2.59755 -4.84158,5.24109 -5.30925,5.94476 -0.82641,1.24345 -6.28014,7.46219 -9.37676,10.69209 -1.96213,2.04658 -3.37481,3.14122 -4.05387,3.14122 -1.13715,0 -2.15914,-0.79318 -2.15914,-1.67575 0,-1.10156 4.20713,-6.11222 10.4262,-12.41749 3.47984,-3.52809 6.32699,-6.62353 6.32699,-6.87877 0,-0.25523 0.31412,-0.58459 0.69805,-0.73192 0.38392,-0.14733 0.69805,-0.53312 0.69805,-0.85732 0,-0.32419 0.85314,-1.50592 1.89588,-2.62606 1.04273,-1.12015 2.08462,-2.50781 2.31531,-3.0837 0.23069,-0.57589 0.73874,-1.04707 1.129,-1.04707 0.39026,0 0.70957,-0.30461 0.70957,-0.6769 0,-0.65816 1.8436,-2.78516 2.69976,-3.11478 0.2342,-0.0902 1.7412,-1.69448 3.34889,-3.56513 2.76043,-3.21193 7.56028,-7.53492 8.3661,-7.53492 0.20263,0 0.47795,-0.41883 0.61182,-0.93073 0.13386,-0.51191 0.57712,-0.93074 0.98501,-0.93074 0.40788,0 0.74161,-0.20941 0.74161,-0.46536 0,-0.67964 -1.0818,-0.56854 -2.12154,0.21788 -0.49684,0.37579 -1.2483,0.68991 -1.66993,0.69805 -0.42162,0.008 -2.20165,0.73748 -3.95561,1.62076 -1.75396,0.88328 -3.92198,1.93185 -4.81781,2.33017 -0.89583,0.39831 -2.46644,1.23185 -3.49025,1.85231 -1.02381,0.62045 -2.48971,1.45811 -3.25756,1.86146 -0.76786,0.40335 -2.23376,1.24463 -3.25757,1.86951 -1.02381,0.62487 -2.29102,1.33531 -2.81603,1.57875 -0.525,0.24344 -1.99091,1.14316 -3.25756,1.99938 -2.42179,1.63705 -4.17615,2.66142 -6.4913,3.79027 -0.76786,0.3744 -2.59116,1.85847 -4.05178,3.29794 -1.46062,1.43946 -2.86681,2.61721 -3.12485,2.61721 -0.25805,0 -0.6703,0.3758 -0.91612,0.83512 -0.24582,0.45932 -1.73208,1.49792 -3.3028,2.308 -2.10937,1.08789 -3.38421,2.17723 -4.87724,4.16757 -1.11177,1.48208 -2.45998,3.13555 -2.99602,3.67439 -0.53605,0.53884 -0.97463,1.20533 -0.97463,1.48108 0,0.27576 -0.41883,0.63431 -0.93074,0.79678 -0.5119,0.16247 -0.93073,0.60198 -0.93073,0.9767 0,0.37471 -0.30615,0.79878 -0.68033,0.94236 -0.37419,0.14359 -0.80713,0.66055 -0.9621,1.14881 -0.15496,0.48826 -0.52941,0.8898 -0.8321,0.89231 -0.3027,0.003 -1.2833,0.83812 -2.17913,1.8569 -0.89584,1.01878 -1.79433,1.85438 -1.99666,1.8569 -0.20232,0.002 -0.95715,0.44025 -1.6774,0.97275 -0.80955,0.59852 -1.82399,0.90946 -2.65701,0.81439 -1.14814,-0.13104 -1.36942,-0.38241 -1.49576,-1.69917 -0.20684,-2.15558 0.54502,-3.08873 5.89348,-7.31454 2.5791,-2.03773 8.72867,-7.88389 13.66571,-12.99144 14.01955,-14.50376 19.41004,-19.79894 20.15529,-19.79894 0.3784,0 0.688,-0.34339 0.688,-0.76309 0,-0.41969 0.36614,-1.03082 0.81366,-1.35805 1.2964,-0.94795 0.227,-1.40203 -1.24881,-0.53025 -0.73548,0.43446 -1.66496,0.78993 -2.0655,0.78993 -0.70711,0 -2.90428,0.96242 -6.43351,2.81806 -0.94654,0.49768 -2.20303,0.90625 -2.7922,0.90793 -0.58917,0.002 -1.69947,0.41914 -2.46732,0.92767 -0.76785,0.50853 -2.07746,0.92598 -2.91023,0.92767 -0.83277,0.002 -2.29557,0.42189 -3.25067,0.9338 -0.9551,0.5119 -2.26385,0.93073 -2.90833,0.93073 -0.64449,0 -2.63637,0.41883 -4.4264,0.93073 -4.482,1.28174 -12.45539,1.33291 -13.35289,0.0857 -0.33446,-0.46477 -0.94571,-0.97066 -1.35834,-1.12419 -0.61856,-0.23017 -0.73796,-0.98525 -0.68026,-4.30197 0.0385,-2.21254 0.27139,-4.16728 0.51756,-4.34386 0.63417,-0.45491 2.54172,-3.23098 2.54172,-3.69899 0,-1.6847 9.42248,-9.42898 12.3734,-10.16961 0.61723,-0.15492 1.12223,-0.45214 1.12223,-0.66049 0,-0.20836 0.7162,-0.6152 1.59156,-0.90409 0.87535,-0.28889 1.84336,-0.82867 2.15113,-1.19951 0.30776,-0.37083 0.87747,-0.67424 1.26601,-0.67424 0.38854,0 1.56703,-0.39306 2.61887,-0.87346 4.32989,-1.97758 7.60933,-3.03417 10.04124,-3.23515 1.41604,-0.11702 3.0071,-0.49567 3.53569,-0.84144 1.44258,-0.94365 7.61038,-0.91847 9.4612,0.0386 2.43263,1.25796 3.30692,2.4059 3.29758,4.32971 -0.0142,2.936 -3.77293,7.55016 -6.15764,7.55914 -0.44791,0.002 -0.81439,-0.20635 -0.81439,-0.4623 0,-0.25595 0.19531,-0.46537 0.43401,-0.46537 0.2387,0 0.55441,-0.36647 0.70158,-0.81439 0.14715,-0.44791 1.11228,-1.74958 2.14471,-2.8926 2.07971,-2.30247 2.23421,-3.6363 0.5198,-4.48772 -0.59744,-0.2967 -1.31992,-0.77312 -1.60551,-1.05872 -0.73905,-0.73904 -4.39652,-0.63025 -6.78586,0.20186 -1.11747,0.38916 -3.0022,0.81923 -4.1883,0.9557 -1.1861,0.13647 -3.09891,0.63373 -4.25069,1.10503 -5.77792,2.36424 -6.98083,2.80255 -7.69141,2.80255 -0.42409,0 -1.30352,0.41883 -1.9543,0.93073 -0.65078,0.5119 -1.57597,0.93073 -2.05598,0.93073 -1.51057,0 -10.03781,6.48167 -12.484,9.48927 -0.64723,0.79576 -2.05347,2.38284 -3.12497,3.52684 -1.54092,1.64517 -2.01369,2.55623 -2.2615,4.35802 -0.40624,2.95367 0.67916,4.59304 3.32912,5.02826 2.35315,0.38648 7.81916,-0.23557 10.1879,-1.15941 1.02381,-0.3993 2.91662,-0.73519 4.20624,-0.74643 1.38952,-0.0121 3.08851,-0.3996 4.17036,-0.95116 1.00406,-0.5119 2.3839,-0.93073 3.06629,-0.93073 0.6824,0 1.49025,-0.30066 1.79523,-0.66814 0.30498,-0.36747 1.22063,-0.80889 2.03479,-0.98093 0.81415,-0.17204 2.13324,-0.70904 2.93131,-1.19333 0.79807,-0.48429 1.91682,-0.88053 2.48611,-0.88053 0.5693,0 1.56755,-0.41883 2.21832,-0.93074 0.65078,-0.5119 1.65289,-0.93073 2.22691,-0.93073 0.57403,0 1.30799,-0.31847 1.63103,-0.70772 0.32305,-0.38924 1.50047,-0.93764 2.6165,-1.21866 1.11603,-0.28102 2.02915,-0.67818 2.02915,-0.88257 0,-0.2044 0.97026,-0.74218 2.15614,-1.19507 1.18588,-0.45289 2.80884,-1.47436 3.60659,-2.26993 1.96576,-1.9604 7.54738,-6.34141 9.31847,-7.31408 3.57105,-1.96118 3.49164,-1.93751 4.68154,-1.39536 1.08513,0.49442 1.11405,0.60405 0.52739,1.9993 -0.34138,0.81191 -1.01508,1.69435 -1.49711,1.96099 -0.48203,0.26664 -1.08583,0.74519 -1.34178,1.06345 -0.41748,0.51911 -1.40559,1.09471 -7.21318,4.20188 -0.89583,0.47928 -1.79625,1.13319 -2.00093,1.45313 -0.20469,0.31994 -0.65831,0.58171 -1.00806,0.58171 -0.34974,0 -1.4856,0.79233 -2.52412,1.76074 -1.03852,0.9684 -3.14181,2.69607 -4.67397,3.83927 -1.53216,1.14319 -2.79817,2.28795 -2.81333,2.5439 -0.0266,0.44879 -2.19171,3.01424 -7.33937,8.6965 -1.34375,1.48329 -2.44318,2.90813 -2.44318,3.1663 0,0.93794 1.3189,0.43297 3.07832,-1.1786 0.98957,-0.9064 2.32473,-1.76918 2.96703,-1.91728 0.64231,-0.1481 1.37908,-0.5292 1.63726,-0.84689 0.25818,-0.3177 1.61938,-1.20276 3.02488,-1.96681 4.2608,-2.31623 5.60548,-3.12413 6.61676,-3.97541 0.5321,-0.44792 1.25158,-0.81439 1.59885,-0.81439 0.34727,0 0.99002,-0.41883 1.42832,-0.93073 0.43831,-0.51191 1.14097,-0.93074 1.56147,-0.93074 0.4205,0 1.29701,-0.41883 1.94778,-0.93073 0.65078,-0.5119 1.46433,-0.93211 1.80789,-0.9338 0.34356,-0.002 1.25289,-0.41914 2.02075,-0.92767 0.76785,-0.50853 1.84164,-0.92598 2.38619,-0.92766 0.54455,-0.002 1.2419,-0.30648 1.54967,-0.67731 0.30776,-0.37084 1.32812,-0.92167 2.26747,-1.22407 0.93934,-0.3024 1.91731,-0.70603 2.17326,-0.89696 1.14203,-0.85192 7.24816,-2.41588 8.35127,-2.13902 1.67231,0.41973 1.62144,2.31422 -0.091,3.38983 -0.70387,0.44211 -2.03387,1.44166 -2.95556,2.22122 -0.92169,0.77956 -2.66996,2.25505 -3.88506,3.27886 -4.28113,3.60716 -9.09819,8.99104 -9.09819,10.16877 0,0.2989 -0.42695,0.81009 -0.94878,1.13598 -0.52184,0.32589 -0.8309,0.7833 -0.6868,1.01646 0.1441,0.23315 1.29896,-0.22069 2.56636,-1.00855 1.2674,-0.78785 2.19613,-1.60757 2.06386,-1.8216 -0.13228,-0.21402 0.34395,-0.50797 1.05829,-0.65322 0.71434,-0.14525 2.07323,-0.67493 3.01977,-1.17706 1.10151,-0.58435 2.63247,-0.91297 4.25323,-0.91297 1.39274,0 4.17835,-0.29802 6.19025,-0.66227 2.0119,-0.36425 5.06935,-0.79951 6.79433,-0.96725 1.72497,-0.16774 3.24689,-0.48387 3.38202,-0.70252 0.13513,-0.21865 1.43778,-0.64502 2.89476,-0.94749 1.457,-0.30247 3.07631,-0.81659 3.59848,-1.14249 0.52217,-0.3259 1.7378,-0.73083 2.70139,-0.89984 1.68275,-0.29514 2.89927,-1.26658 5.93487,-4.7392 0.64445,-0.73723 2.07919,-2.07337 3.18832,-2.9692 1.10912,-0.89583 2.36187,-1.96864 2.78389,-2.38403 0.42201,-0.41538 1.39554,-1.09865 2.16339,-1.51836 0.76786,-0.41971 1.71022,-0.95505 2.09415,-1.18963 2.54468,-1.55484 5.29704,-2.40324 7.8359,-2.41538 3.34646,-0.016 4.72899,0.61281 4.72899,2.15091 0,1.74409 -2.36704,3.79221 -8.02343,6.9424 -1.72539,0.96092 -3.25601,1.93956 -3.40136,2.17476 -0.14537,0.23519 -0.74302,0.42763 -1.32812,0.42763 -0.58511,0 -1.43212,0.40696 -1.88226,0.90435 -0.45014,0.4974 -1.41049,1.0344 -2.13412,1.19333 -0.72363,0.15894 -1.56521,0.58964 -1.87019,0.95711 -0.30498,0.36748 -0.9966,0.66814 -1.53694,0.66814 -1.93217,0 -6.60968,2.75345 -8.01692,4.71923 -0.74659,1.04291 -1.67155,2.25848 -2.05548,2.70127 -0.88643,1.02235 -1.6135,2.14565 -2.77488,4.28707 -0.50774,0.93621 -1.08582,1.77387 -1.28463,1.86147 -0.19881,0.0876 -0.98865,1.10164 -1.75522,2.25342 -0.76656,1.15178 -2.1665,3.09046 -3.11098,4.30817 -0.94448,1.21771 -1.86603,2.68282 -2.04788,3.25578 -0.18185,0.57297 -0.64601,1.27236 -1.03147,1.55421 -0.46245,0.33816 -0.53132,0.61722 -0.20248,0.82046 0.27409,0.1694 0.78886,0.0175 1.14394,-0.3376 0.35507,-0.35507 1.36668,-0.78679 2.24801,-0.95938 2.16696,-0.42434 12.7545,-3.88123 15.22683,-4.97165 1.09464,-0.48279 2.29954,-0.87779 2.67755,-0.87779 0.37801,0 1.46873,-0.41883 2.42383,-0.93074 0.9551,-0.5119 2.15848,-0.93211 2.67417,-0.9338 0.5157,-0.002 1.56587,-0.41913 2.33372,-0.92766 0.76786,-0.50853 1.76334,-0.92598 2.21218,-0.92767 0.44885,-0.002 1.59752,-0.4219 2.55263,-0.9338 0.9551,-0.5119 2.09415,-0.93073 2.53122,-0.93073 0.43708,0 1.48725,-0.40196 2.33373,-0.89325 0.84647,-0.49129 2.3767,-1.11958 3.4005,-1.39621 1.04872,-0.28336 3.38538,-1.73468 5.35172,-3.32399 4.01322,-3.24372 7.30523,-5.55535 7.91143,-5.55535 0.23041,0 0.58638,-0.26543 0.79107,-0.58985 0.20468,-0.32443 0.82228,-0.90032 1.37245,-1.27976 6.43245,-4.43639 8.43109,-5.67087 9.54044,-5.89274 0.71787,-0.14357 1.54498,-0.54993 1.83801,-0.90301 0.29303,-0.35308 0.77699,-0.64196 1.07545,-0.64196 0.29848,0 1.37226,-0.44373 2.3862,-0.98605 1.32041,-0.70625 2.76283,-1.00337 5.08329,-1.04708 3.09484,-0.0583 3.25918,-0.007 3.67345,1.15338 0.87789,2.4584 0.0398,3.66834 -4.53966,6.55416 -1.97021,1.24155 -7.77155,3.63291 -8.81327,3.63291 -0.71677,0 -1.38855,0.31402 -1.54522,0.7223 -0.28132,0.73311 -9.29464,5.32567 -10.45987,5.32962 -0.80591,0.003 -5.71818,1.99336 -6.53507,2.64824 -0.33841,0.27129 -1.13802,0.65407 -1.77693,0.85062 -1.18135,0.36343 -5.16249,4.24656 -7.3842,7.20242 -0.67333,0.89583 -1.90361,2.36173 -2.73394,3.25756 -0.83035,0.89583 -1.51154,1.89055 -1.51376,2.21049 -0.002,0.31994 -0.18669,0.58171 -0.40995,0.58171 -0.22325,0 -1.11327,1.16871 -1.97781,2.59713 -0.86454,1.42842 -1.81909,2.86479 -2.12122,3.19194 -0.30213,0.32716 -0.79098,1.92744 -1.08633,3.55618 -0.51079,2.81688 -0.48716,3.00171 0.48455,3.78855 0.74238,0.60114 1.83986,0.82719 4.01602,0.82719 2.55884,0 3.16066,-0.16617 4.13674,-1.14226 0.62824,-0.62825 1.14227,-1.55825 1.14227,-2.06669 0,-0.50843 0.20941,-1.05384 0.46536,-1.21203 0.25595,-0.15819 0.46537,-0.82642 0.46537,-1.48497 0,-2.03458 2.93695,-6.16375 8.21181,-11.54529 6.29861,-6.426 12.46224,-10.12452 19.66932,-11.80269 3.50703,-0.81661 3.86776,-0.82492 5.26734,-0.12137 0.82636,0.4154 1.81329,1.31577 2.19317,2.00083 0.63477,1.1447 0.60171,1.42734 -0.40832,3.49025 -1.02857,2.10078 -3.51789,5.52314 -5.18288,7.12551 -1.37937,1.32751 -7.33898,6.75331 -7.96429,7.25092 -0.34391,0.27368 -1.98349,1.2769 -3.64351,2.22938 -4.2823,2.45707 -4.73885,2.72782 -6.0615,3.59468 -0.64999,0.426 -1.85412,0.92222 -2.67586,1.1027 -0.82173,0.18049 -1.49405,0.51694 -1.49405,0.74768 0,0.23073 -0.57589,0.55875 -1.27976,0.72892 -1.78472,0.43147 -4.76211,2.16481 -4.76642,2.77486 -0.006,0.83326 2.21327,1.58714 4.67197,1.58714 1.26772,0 2.30494,0.20941 2.30494,0.46536 0,0.25596 -0.99472,0.46823 -2.21049,0.47172 -1.21577,0.004 -2.64955,0.12423 -3.18616,0.26829 -0.69336,0.18614 -1.40239,-0.16478 -2.45039,-1.21278 z m 4.68529,-6.51033 c 0.58718,-0.25329 1.38172,-0.65957 1.76565,-0.90283 0.89277,-0.56567 3.15768,-1.69852 4.65367,-2.32766 0.63987,-0.2691 1.47753,-0.69569 1.86146,-0.94798 0.38393,-0.25229 1.3263,-0.74896 2.09415,-1.10372 0.76786,-0.35476 1.91964,-1.2164 2.55952,-1.91477 0.63988,-0.69836 2.21268,-1.9689 3.49512,-2.82343 2.35154,-1.56691 8.13904,-6.9061 8.13904,-7.50859 0,-0.17877 0.39876,-0.75736 0.88613,-1.28576 1.32842,-1.44026 1.98926,-4.26797 1.15854,-4.9574 -0.83948,-0.6967 -7.28236,-0.30103 -7.53699,0.46287 -0.0975,0.29263 -0.83877,0.85221 -1.64716,1.2435 -1.80676,0.87454 -3.67667,1.94989 -6.14996,3.53675 -2.17886,1.39795 -8.02819,7.27649 -9.87988,9.92922 -0.69433,0.99469 -1.6289,2.18538 -2.07681,2.64595 -0.44792,0.46059 -0.81439,1.11909 -0.81439,1.46335 0,0.34426 -0.41883,1.00496 -0.93074,1.46823 -0.58845,0.53254 -0.93073,1.43331 -0.93073,2.44941 0,1.47416 0.0945,1.58337 1.14289,1.32025 0.62859,-0.15776 1.62331,-0.49409 2.21049,-0.74739 z m -60.22628,-2.85644 c 0.16362,-0.84917 -1.65804,-1.73421 -4.32069,-2.09917 -2.33974,-0.3207 -2.96876,0.31191 -1.91271,1.92364 1.1108,1.69529 5.9145,1.83057 6.2334,0.17553 z m 69.50915,-27.57438 c 0.67912,-0.35434 2.04032,-0.90388 3.02488,-1.2212 0.98456,-0.31733 2.0561,-0.78822 2.38119,-1.04643 0.32509,-0.25821 1.8957,-0.92939 3.49025,-1.49151 1.59454,-0.56212 3.7137,-1.58005 4.70924,-2.26207 0.99553,-0.68203 2.09496,-1.24004 2.44317,-1.24004 0.34821,0 0.63311,-0.21391 0.63311,-0.47535 0,-0.26144 0.52353,-0.71388 1.16341,-1.00543 0.63988,-0.29155 1.16342,-0.81059 1.16342,-1.15344 0,-1.13863 -2.93842,-0.62932 -5.81708,1.00826 -1.53571,0.87361 -3.31574,1.85617 -3.95562,2.18345 -0.63988,0.32729 -1.44014,0.85928 -1.77836,1.1822 -0.33822,0.32293 -0.88587,0.58714 -1.217,0.58714 -0.33113,0 -1.13451,0.41883 -1.78529,0.93073 -0.65077,0.5119 -1.58334,0.93073 -2.07237,0.93073 -0.48903,0 -1.66013,0.68592 -2.60245,1.52427 -2.38908,2.12545 -2.28558,2.85572 0.2195,1.54869 z m -29.01627,-9.54764 c 0.94654,-0.48966 2.97747,-1.47538 4.51318,-2.19049 1.53571,-0.7151 2.8969,-1.41423 3.02488,-1.55362 0.12797,-0.13939 0.79193,-0.54135 1.47545,-0.89324 0.68353,-0.3519 2.04472,-1.47774 3.02488,-2.50187 l 1.78212,-1.86205 -2.7795,0.30836 c -1.79191,0.1988 -3.12538,0.63329 -3.75293,1.22285 -0.53538,0.50297 -1.16934,0.91829 -1.4088,0.92295 -0.47832,0.009 -3.89037,2.24733 -5.01619,3.2902 -0.39005,0.36132 -1.5606,1.27291 -2.60122,2.02576 -1.32521,0.95874 -1.71785,1.47942 -1.31061,1.738 0.83857,0.53247 1.13491,0.4832 3.04874,-0.50685 z m 54.88556,47.09287 c -1.59069,-1.01212 -1.91783,-1.98757 -1.53123,-4.56566 0.24763,-1.65128 0.84927,-2.58926 3.32858,-5.18941 4.13178,-4.33317 8.28155,-9.42505 7.95077,-9.75583 -0.25206,-0.25207 -3.83437,1.19493 -5.43995,2.19734 -0.70893,0.44261 -1.38154,0.75432 -5.11903,2.37226 -1.15178,0.49859 -2.40827,1.10453 -2.7922,1.34652 -0.38392,0.24198 -1.22158,0.69581 -1.86146,1.0085 -0.63988,0.31269 -1.33088,0.83471 -1.53557,1.16004 -0.20468,0.32533 -0.65979,0.59151 -1.01136,0.59151 -0.35158,0 -1.26142,0.52353 -2.02187,1.16341 -0.76045,0.63988 -1.61418,1.16342 -1.89717,1.16342 -0.28299,0 -0.51453,0.18951 -0.51453,0.42115 0,0.62125 -4.1253,2.93027 -4.65279,2.60427 -0.56546,-0.34947 2.03047,-2.97821 4.66912,-4.72816 1.09648,-0.72718 2.53609,-1.68906 3.19913,-2.13751 0.66304,-0.44844 1.8718,-1.12587 2.68614,-1.50539 0.81434,-0.37951 1.61397,-0.90578 1.77695,-1.16949 0.16298,-0.26371 0.9626,-0.79713 1.77694,-1.18538 0.81434,-0.38825 2.63241,-1.31417 4.04014,-2.0576 1.40773,-0.74343 2.90902,-1.36497 3.33619,-1.38119 0.42718,-0.0162 1.36954,-0.33808 2.09415,-0.71522 0.72461,-0.37715 3.0975,-1.49565 5.27309,-2.48555 2.60786,-1.18658 4.77765,-2.58957 6.36829,-4.11773 1.32697,-1.27485 3.81927,-3.55934 5.53844,-5.07665 1.71917,-1.51732 4.12056,-3.65528 5.33642,-4.75103 10.28423,-9.26826 19.424,-13.69429 22.313,-10.8053 1.98828,1.98828 0.93256,3.63388 -5.81081,9.05761 -2.39836,1.929 -4.51102,3.50728 -4.69481,3.50728 -0.18379,0 -1.4393,0.73355 -2.79004,1.63012 -1.35073,0.89657 -3.36185,2.04571 -4.46915,2.55365 -2.11472,0.97006 -3.13985,1.56981 -4.97923,2.91307 -0.61334,0.44791 -1.48012,0.81439 -1.92616,0.81439 -0.44605,0 -1.04357,0.28023 -1.32782,0.62273 -0.28425,0.34251 -1.36159,0.87583 -2.39409,1.18518 -2.17381,0.65129 -5.11428,2.2952 -5.11428,2.85922 0,0.21279 -1.60132,2.02449 -3.55849,4.02599 -3.37626,3.45273 -5.09666,5.48834 -9.13495,10.80863 -1.80994,2.38454 -3.41487,5.6271 -2.78624,5.62925 1.09579,0.004 7.15937,-1.62712 8.84314,-2.37848 1.085,-0.48416 2.06222,-0.8803 2.17159,-0.8803 0.10937,0 2.24539,-1.15899 4.7467,-2.57554 2.66765,-1.51075 4.84818,-2.45974 5.27427,-2.29544 0.57147,0.22036 0.37898,0.56857 -0.90235,1.6323 -0.89584,0.7437 -1.87868,1.35781 -2.18411,1.3647 -0.30542,0.007 -0.83832,0.41657 -1.18422,0.91041 -0.3459,0.49384 -1.19543,1.04008 -1.88786,1.21386 -0.69242,0.17379 -1.25894,0.51013 -1.25894,0.74744 0,0.2373 -0.89002,0.8402 -1.97781,1.33978 -1.0878,0.49958 -2.29193,1.09008 -2.67586,1.31222 -3.50982,2.03083 -9.31817,2.85439 -11.28867,1.60061 z m 26.97166,-30.09735 c 0.20469,-0.35639 1.10511,-0.98704 2.00094,-1.40146 0.89583,-0.41442 3.09468,-1.58633 4.88634,-2.60425 1.79166,-1.01791 3.88581,-2.17877 4.65367,-2.57969 4.70025,-2.45414 8.98915,-5.71622 9.36986,-7.12661 0.38022,-1.40857 -0.67488,-2.14967 -1.71733,-1.20626 -0.40993,0.37098 -0.94135,0.6745 -1.18094,0.6745 -0.23959,0 -1.16546,0.38952 -2.0575,0.8656 -0.89204,0.47608 -2.12934,1.02524 -2.74956,1.22036 -0.62022,0.19511 -1.35317,0.54483 -1.62879,0.77714 -1.90535,1.60602 -6.617,5.04056 -6.91954,5.04397 -0.49327,0.006 -1.28861,0.69358 -4.28738,3.70883 -1.74808,1.75767 -2.35259,2.6523 -1.96054,2.90141 0.81743,0.5194 1.17019,0.45874 1.59077,-0.27354 z"
       id="path3068" />
  </g>
</svg>
