<?xml version="1.0" encoding="UTF-8"?>
<svg version="1.0" xmlns="http://www.w3.org/2000/svg" width="106" height="48" >
<path fill="#231F20" d="M8.876,18.058c-4.624-2.003-2.374-6.48-0.45-9.644c2.191-3.603,1.615,1.689,1.42,2.896 C8.461,19.878,4.28,27.954,0.042,35.407c-0.255,0.448,0.725,0.283,0.906,0.045c3.97-5.209,7.935-10.422,11.895-15.64 c1.398-1.843,2.795-3.688,4.191-5.533c0.594-0.786,1.188-1.573,1.78-2.36c0.268-0.355,0.391-1.792-0.024-1.21 c-2.009,2.822-3.409,6.231-4.7,9.415c-0.42,1.035-6.765,17.146-0.104,14.235c2.625-1.147,3.399-6.114,3.965-8.389 c1.515-6.081,1.153-12.531,2.94-18.524c0.179-0.393,0.357-0.785,0.535-1.178c2.726-0.337,3.837,0.658,3.335,2.985 c0.01,1.458-0.423,2.94-0.77,4.339c-0.05,0.203-1.522,6.597-0.678,4.179c0.449-1.284,1.018-2.519,1.597-3.748 c1.24-2.633,3.001-4.864,4.811-7.117c3.437-4.28-0.196,0.785-1.086,2.577c-0.457,0.919-2.561,5.236-0.652,5.706 c1.609,0.396,3.493-2.919,4.128-3.66c1.385-1.614,2.805-3.198,4.226-4.781c0.683-0.76-1.069,0.345-1.604,1.18 c-1.385,2.163-3.118,4.993-2.708,7.669c0.571,3.731,8.35,0.84,7.704-3.047c-0.06-0.362-1.03-0.127-0.966,0.259 c0.48,2.892-6.006,4.85-5.831,1.292c0.068-1.372,0.843-2.74,1.439-3.933c0.691-1.384,1.549-2.711,2.453-3.967 c0.274-0.382-0.664-0.32-0.845-0.119c-2.082,2.305-4.142,4.629-6.142,7.006c-3.342,3.971-0.442-3.217-0.297-3.561 c0.705-1.664,2.051-3.27,2.395-5.068c0.044-0.228-0.28-0.247-0.425-0.236c-1.356,0.098-2.759,2.717-3.484,3.62 c-2.574,3.206-4.597,6.729-5.89,10.639c-0.122,0.368,0.817,0.238,0.938-0.031c1.003-2.259,5.649-13.06,0.371-13.542 c-3.228-0.294-3.769,3.191-4.231,5.701c-0.946,5.133-1.12,10.344-2.231,15.468c-0.469,2.159-1.143,4.261-2.112,6.249 c-2.619,5.367-3.046-1.99-2.868-3.108c0.986-6.16,4.039-13.57,7.822-18.643c0.278-0.373-0.703-0.315-0.906-0.045 C13.65,17.546,8.331,24.52,3.019,31.5c-0.815,1.071-1.631,2.142-2.446,3.212c-0.165,0.217-0.33,0.434-0.495,0.649 c1.371-1.799,2.472-2.748,3.569-4.816c2.398-4.523,4.414-9.263,5.927-14.153c0.292-0.943,3.252-11.401,0.44-10.647 c-2.282,0.611-3.771,4.779-4.536,6.613c-1.121,2.686,0.039,5.067,2.636,6.193C8.425,18.685,9.302,18.243,8.876,18.058 L8.876,18.058 M51.703,8.74c2.38-0.428,9.141-4.468,7.432-7.527c-1.068-1.911-6.118-1.052-7.529-0.815 c-3.178,0.532-5.848,3.046-7.907,5.331c-1.077,1.195-7.384,10.01-2.791,9.885c5.424-0.148,11.468-8.071,12.951-12.602 c0.133-0.407-0.822-0.333-0.947-0.003c-3.509,9.259-5.337,18.918-7.756,28.482c-0.908,3.591-2.093,7.111-3.463,10.551 c-0.506,1.272-3.064,7.138-3.091,2.561c-0.038-6.38,4.116-13.072,7.125-18.479c1.422-2.553,2.984-4.998,4.624-7.415 c0.383-0.564,1.708-2.155,1.355-3.017c-0.374-0.912-1.391-1.436-2.24-0.676c-2.101,1.878-5.477,13.33-0.674,13.276 c3.088-0.035,4.952-10.909,3.489-12.773c-1.757-2.24-4.457,3.51-4.017,4.996c1.279,4.325,14.274-1.169,16.489-2.969 c0.52-0.424,1.157-1.69,0.241-2.136c-1.786-0.868-4.036,0.904-5.421,1.856c-1.938,1.334-8.491,9.225-2.723,9.909 c2.1,0.249,4.437-1.72,5.929-2.87c4.521-3.485,8.613-8.237,11.851-12.913c0.93-1.341,5.765-9.149,0.287-8.422 c-4.456,0.591-7.582,10.099-8.98,13.391c-0.729,1.719-5.856,13.938-1.821,14.52c3.918,0.565,7.576-8.242,9.004-10.777 c0.286-0.509,0.572-1.018,0.864-1.524c0.363-0.632-0.321-0.922-0.677-0.338c-0.919,1.512-1.835,3.005-2.643,4.581 c-0.901,1.759-2.192,4.556,0.21,5.53c2.992,1.213,13.78-5.463,11.499-8.37c-1.531-1.951-10.631,5.916-5.704,8.738 c2.067,1.185,5.341-1.471,6.795-2.554c4.139-3.082,7.597-7.225,10.505-11.449c0.705-1.024,5.273-8.118,2.939-9.403 c-1.983-1.092-4.267,2.189-5.141,3.458c-3.038,4.41-7.017,12.125-6.015,17.74c0.517,2.898,3.325,2.514,5.693,2.502 c0.537-0.003,0.754-0.673,0.096-0.67c-3.776,0.02-5.175-0.755-4.653-4.789c0.632-4.873,2.513-9.534,5.099-13.678 c-0.037,0.06,4.485-6.325,4.315-2.54c-0.074,1.656-0.929,3.266-1.677,4.706c-1.654,3.183-4.02,6.012-6.405,8.667 c-2.359,2.626-5.036,5.144-8.141,6.86c-2.727,1.507-4.361-0.304-3.379-2.86c0.65-1.69,2.432-3.131,3.943-4.003 c1.125,0.617,0.965,1.398-0.481,2.345c-0.81,1.012-1.745,1.896-2.808,2.651c-2.646,2.066-8.037,2.815-6.196-1.872 c0.85-2.165,2.338-3.968,3.367-6.026c0.235-0.472-0.573-0.372-0.774-0.249c-1.211,0.739-2.043,3.333-2.713,4.501 c-0.901,1.574-7.044,11.456-7.289,5.833c-0.319-7.342,4.935-17.327,9.418-22.921c0.889-1.108,2.784-2.066,3.425-0.17 c0.489,1.447-0.93,3.446-1.612,4.607c-3.46,5.881-8.969,11.852-14.548,15.756c-2,1.4-4.78,1.923-4.825-1.149 c-0.045-2.96,3.356-5.484,5.479-6.945c0.591-0.406,5.369-1.826,2.634,0.397c-0.991,0.806-2.677,1.318-3.808,1.718 c-2.195,0.776-11.368,4.184-10.77-0.31c0.254-1.904,2.538-4.188,2.514-0.787c-0.014,1.904-0.482,3.829-0.967,5.657 c-0.291,1.1-0.702,2.086-1.225,3.081c-1.516,2.885-2.035-4.321-1.997-3.146c-0.086-2.68,0.786-5.909,2.396-8.047 c0.196,0.438,0.393,0.876,0.589,1.313c-0.308,0.578-0.648,1.136-1.023,1.673c-0.801,1.234-1.643,2.44-2.439,3.678 c-1.541,2.392-2.874,4.943-4.201,7.457c-2.588,4.903-5.192,10.439-5.159,16.094c0.006,1.075,0.327,2.251,1.56,1.841 c2.438-0.811,3.708-6.243,4.442-8.212c4.273-11.456,5.699-23.771,9.808-35.324c0.282-0.792,0.815-3.902-1.305,0.857 c-0.956,2.148-2.7,3.94-4.352,5.571c-1.667,1.646-3.669,3.064-5.787,4.057c-3.178,1.489-0.817-3.576-0.531-4.167 c2.103-4.337,6.191-8.758,11.104-9.581c1.577-0.198,3.152-0.138,4.724,0.181c3.581,0.83-1.948,4.863-2.283,5.111 c-0.994,0.734-2.221,1.712-3.476,1.938C50.927,8.228,51.109,8.847,51.703,8.74L51.703,8.74 M25.498,23.531c-0.239,0.189-0.543,0.507-0.417,0.84c0.118,0.31,0.557,0.422,0.838,0.49 c0.806,0.197,1.673,0.169,2.495,0.149c0.271-0.006,1.055-0.427,0.412-0.412c-0.703,0.016-1.427,0.023-2.117-0.126 c-0.235-0.051-0.578-0.139-0.674-0.391c-0.051-0.134,0.022-0.27,0.096-0.378c0.018-0.026,0.26-0.244,0.111-0.126 C26.635,23.266,25.672,23.391,25.498,23.531L25.498,23.531 M36.557,21.739c-0.325,0.155-0.72,0.448-0.612,0.859c0.093,0.354,0.528,0.581,0.819,0.739 c0.898,0.485,1.952,0.729,2.934,0.974c0.297,0.073,1.138-0.379,0.594-0.514c-0.829-0.206-1.655-0.43-2.441-0.769 c-0.325-0.14-0.678-0.309-0.897-0.598c-0.089-0.116-0.053-0.237-0.004-0.303c0.002-0.003,0.125-0.075-0.015-0.009 C37.541,21.83,36.98,21.536,36.557,21.739L36.557,21.739 M99.729,19.012c1.646,0.364,3.31,0.995,4.689,1.967c0.246,0.174,1.103-0.211,0.904-0.35 c-1.419-1-3.12-1.658-4.811-2.033C100.258,18.541,99.401,18.939,99.729,19.012L99.729,19.012z"/>
</svg>