<?xml version="1.0" encoding="utf-8"?>
<!-- Generator: Adobe Illustrator 19.0.0, SVG Export Plug-In . SVG Version: 6.00 Build 0)  -->
<svg version="1.1" id="Layer_1" xmlns="http://www.w3.org/2000/svg" xmlns:xlink="http://www.w3.org/1999/xlink" x="0px" y="0px"
	 viewBox="0 0 451 119.5" style="enable-background:new 0 0 451 119.5;" xml:space="preserve">
<g>
	<g>
		<path d="M321,48.8c-4.5-1.2-8.5,0.6-12.5,2.6c-0.8,0.4-1.8,0.5-2.8,0.5c-2-0.1-2.8-1.7-1.8-3.5c0.7-1.2,1.5-2.4,2.6-4.1
			c-2.9,1.5-5.2,2.9-7.6,4.1c-2.9,1.5-5.7,2.9-8.6,4.3c-1.1,0.5-2.4,0.5-2.8-0.7c-0.4-1-0.4-2.4,0-3.3c0.7-1.4,2-2.5,2.8-4
			c-0.9,0.7-1.7,1.6-2.7,2.2c-2.4,1.5-4.7,3.2-7.3,4.4c-1.2,0.6-3.2,0.9-4.1,0.2c-0.9-0.7-1.3-2.8-1-4c0.6-2.6,1.8-5.1,2.7-7.5
			c-1.8,1.7-3.7,3.7-5.9,5.5c-2.7,2.3-5.4,4.5-8.2,6.5c-0.8,0.6-2.4,0.7-3.4,0.3c-0.6-0.2-1-2-0.7-2.8c1-2.3,2.3-4.5,3.5-6.7
			c1.1-2,2.3-3.9,3.5-5.8c-0.2-0.2-0.3-0.3-0.5-0.5c-1.6,1.2-3.1,2.5-4.8,3.5c-4.6,2.9-9.3,5.8-14,8.6c-1.6,1-3.1,2.2-4.9,2.8
			c-1.3,0.5-3,0.3-4.4,0.4c-0.6,0-1.3-0.1-1.8,0.1c-5.4,2.4-10.3,0.6-12.7-4.9c-0.8-1.8-1-3.7-1.6-5.6c-0.3-1.1-0.6-2.2-1.1-3.2
			c-0.5-1.1-0.2-2,1-1.8c3.2,0.8,5.7-1,7.9-2.5c6-3.9,11.8-8.3,17.5-12.6c0.9-0.7,1.3-1.9,1.8-3c0.7-1.4,1.2-2.9,1.8-4.3
			c1.1-2.6,0.2-4-2.5-4.1c-4.2-0.2-7.7,1.7-11.2,3.6c-2.9,1.6-5.6,3.5-8.1,5.7c-3.6,3.2-6.4,7.1-8.6,11.6c-1.9,3.9-4.2,7.6-6.1,11.4
			c-1.8,3.5-3.3,7-5,10.6c-0.2,0-0.4-0.1-0.7-0.1c0.1-1,0-2,0.4-2.9c2.6-6.1,5.1-12.2,8.1-18.1c4.9-9.4,11.7-17.2,21.9-21.3
			c2.6-1,5.2-1.9,7.9-2.6c2.1-0.6,4.4-0.4,5.7,1.6c1.3,1.8,0.7,3.9-0.1,5.8c-3.7,7.9-10.4,12.8-17.3,17.4c-3.2,2.2-6.8,3.8-10.2,5.8
			c-0.5,0.3-0.9,1.3-0.9,1.9c0.1,1.2,0.5,2.4,0.7,3.6c1,5.5,5.7,8,10.8,5.6c0.6-0.3,1.1-1,1.3-1.6c1.3-3.5,3.6-6.3,6.3-8.7
			c0.7-0.7,1.3-1.5,2-2.3c0.9-1,1.7-2.1,2.7-3.1c1.1-1.1,2.8-1.2,3.7-0.2c0.7,0.7,0.6,2.3,0.4,3.5c-0.5,3.6-2.8,6.3-5.1,9.1
			c1.6-0.9,3.2-1.8,4.7-2.8c4.6-3.1,9.2-6.2,13.8-9.2c0.8-0.6,1.8-1,2.8-1.3c0.7-0.2,1.5-0.1,2.2-0.1c0,0.8,0.2,1.7-0.2,2.3
			c-1.1,2.1-2.4,4-3.7,6c-1.5,2.4-3,4.8-4.5,7.2c-0.2,0.3-0.2,0.7-0.2,1.1c0.2,0.2,0.3,0.3,0.5,0.5c1.7-1.4,3.6-2.7,5.2-4.1
			c3.7-3.2,7.3-6.6,11-9.9c0.4-0.4,0.8-0.9,1.3-1c0.7-0.1,1.5-0.1,2.1,0.3c0.3,0.2,0.3,1.2,0.2,1.6c-0.9,2.3-2,4.6-3,6.9
			c-0.7,1.7-1.4,3.5-2.1,5.2c0.2,0.1,0.4,0.2,0.6,0.4c2-0.9,4-1.8,6-2.7c0.9-0.4,2-0.3,2.7-0.8c1.3-1,2.3-2.6,3.6-3.6
			c1.7-1.3,3.6-2.2,5.5-3.3c0.2-0.1,1,0.1,1,0.2c0,0.6,0.1,1.3-0.3,1.7c-1.3,1.7-2.8,3.3-4.1,5c-1,1.3-2,2.6-3,4
			c0.1,0.2,0.2,0.3,0.4,0.5c1.8-0.7,3.5-1.5,5.3-2.2c0.9-0.3,1.8-0.4,2.7-0.8c0.4-0.2,0.6-0.6,0.9-1c0.1-0.1,0.2-0.4,0.4-0.4
			c3-1.7,6-3.4,9-5.1c0.6-0.4,1.4-0.6,2.1-0.8c0.7-0.2,1.4-0.2,2.1-0.2c-0.1,0.7-0.1,1.6-0.5,2.1c-1.4,1.9-3,3.7-4.4,5.5
			c-0.4,0.5-0.8,1.1-1.2,1.6c0.2,0.2,0.4,0.4,0.4,0.3c4.1-1.9,9-1.8,12.5-5.6c2.2-2.3,5.4-3.7,8.2-5.4c0.6-0.4,1.6-0.7,2.1-0.4
			c1.8,0.8,2.7-0.2,3.3-1.6c0.3-0.5,0.2-1.2,0.3-1.8c-0.6,0-1.1-0.1-1.7,0c-0.5,0.1-0.9,0.3-1.3,0.5c-0.2-0.1-0.4-0.1-0.4-0.2
			c-0.6-1-1.1-2-1.7-3c1.1-0.4,2.3-0.8,3.4-1.2c3.3-1.3,6.7-2.6,9.9-4.1c4-1.8,8.1-3.2,12.4-3.5c0.8-0.1,2.2,0.3,2.3,0.8
			c0.3,0.9,0.2,2.3-0.3,3.1c-1.4,2-3.1,3.9-4.9,6.1c2.1-1.1,4-1.9,5.7-2.9c2.4-1.3,4.7-2.9,7.2-4.1c2-1,4.1-1.6,6.2-2.3
			c0.5-0.1,1.3,0.1,1.6,0.4c0.3,0.4,0.2,1.2-0.1,1.7c-1.1,1.8-2.3,3.6-3.6,5.3c-1.6,2-3.3,3.8-4.8,6.2c1.2-0.7,2.6-1.3,3.7-2.2
			c4-2.9,7.8-6,11.8-8.9c1.1-0.8,2.7-2.3,3.9-0.8c1.1,1.5-0.7,2.5-1.8,3.5c-2.1,2-4.4,3.9-6.5,5.8c-0.4,0.3-0.4,1-0.6,1.6
			c0.6,0.1,1.1,0.3,1.7,0.2c0.8-0.2,1.5-0.6,2.3-0.8c0.8-0.2,1.7-0.3,2.6-0.4c0.9-0.1,1.9,0.2,1.6-1.4c0-0.2,0.5-0.7,0.8-0.9
			c2.5-1.4,5-3,7.6-4.2c2.7-1.3,5.6-2.2,8.5-3.2c0.3-0.1,1.4,0.8,1.3,0.9c-0.5,1,0.1,2.2-1.1,3.3c-1.8,1.6-3,3.8-4.7,5.9
			c0.7,0.2,1.1,0.5,1.5,0.4c5.1-1.6,9.7-3.8,13.6-7.5c5.5-5.3,10.3-11.2,14.6-17.6c0.9-1.3,2.2-2.3,3.4-3.4c0.3-0.3,1.1-0.4,1.4-0.2
			c0.3,0.2,0.4,1,0.3,1.4c-0.1,0.6-0.4,1.1-0.7,1.7c-2.7,6.3-5.8,12.5-7.2,19.3c-0.1,0.4-0.1,0.8-0.1,1.2c1.3-0.9,2.5-1.8,3.8-2.4
			c0.5-0.2,1.3,0.4,2,0.6c-0.2,0.5-0.3,1.2-0.6,1.6c-1.3,1.3-2.7,2.6-4.2,3.7c-0.7,0.5-2,0.7-2.7,0.4c-0.6-0.3-1.1-1.5-1.1-2.3
			c-0.2-4,1.4-7.5,3.1-11c0.6-1.1,1-2.2,1.6-3.4c-0.2-0.2-0.5-0.3-0.7-0.5c-1.4,1.6-2.7,3.1-4,4.7c-3.2,4-6.4,7.9-10.9,10.7
			c-4.3,2.7-8.8,4.4-13.7,5.6c-1.2,0.3-2.2,1.2-3.3,1.8c-0.7,0.3-1.7,0.8-2.1,0.6c-0.6-0.4-1-1.5-0.9-2.2c0.2-0.7,1-1.3,1.7-1.8
			c1-0.7,2.4-1.1,3-2c1.3-1.8,2.3-3.8,3.2-6c-1.5,0.9-3,1.8-4.9,2.9c-0.5,0.2-1.5,0.4-2.5,0.9c-4.4,2.1-8.8,4.3-13.3,6.4
			c-0.9,0.4-2.2,0.5-3.1,0.3c-1.5-0.4-1.8-2-1-4c-2.2,1.5-4.6,2.7-6.5,4.5c-1.3,1.2-2.8,1-3.6,0.3c-0.6-0.5-0.8-2.5-0.3-3.4
			c1.5-2.4,3.4-4.6,5.1-6.8c0.9-1.1,2-2.2,2.8-3.6c-0.7,0.3-1.4,0.6-2.1,1c-5.4,3-10.7,6-16.1,9c-1.4,0.8-2.8,1.2-4-0.6
			c2.2-3.4,4.5-6.9,7-10.9c-6,2.1-11.7,4-17.3,5.9c0,0.2,0,0.5,0,0.7c0.8,0.3,1.5,0.7,2.3,0.9c1.3,0.4,1.7,1,1.4,2.4
			c-0.4,1.6-0.4,3.3-0.7,4.9c-0.3,2.1-0.5,4.3-0.9,6.4c-1.1,5.4-2.2,10.8-3.6,16.2c-1.6,5.9-3.6,11.7-5.5,17.5
			c-0.9,2.7-1.7,5.4-2.9,7.9c-5,10.4-12.1,19-22.2,24.8c-2.4,1.4-5.1,2.6-8.1,1.8c-6-1.5-9.1-6.1-7.4-12.1c1.1-3.7,2.6-7.4,4.6-10.7
			c4.3-7.1,9.1-13.9,13.8-20.8c4.1-6.2,8.3-12.3,12.4-18.5C319.6,51.3,320.3,50,321,48.8z M336.9,38.9c-0.2-0.1-0.3-0.1-0.5-0.2
			c-1.3,1.2-2.4,2.8-3.9,3.4c-3.2,1.3-5.6,3.7-7.6,6.1c-3.9,4.8-7.2,10.1-10.6,15.3c-2.6,3.9-5,8-7.6,11.9c-1.4,2.1-3.1,3.9-4.5,5.9
			c-3.3,5.2-6.7,10.4-9.6,15.9c-1.3,2.4-2,5.3-2.5,8c-0.3,1.7,0.1,3.8,1.9,4.8c1.5,0.9,3.2,2.2,4.8,2.2c2.4,0,5-0.6,7.2-1.7
			c3.2-1.6,5.9-4,8-7.1c1.7-2.6,4.1-4.7,6.2-7.1c3.9-4.4,6-9.7,8.2-15c1.5-3.5,2.8-7,3.8-10.7c1.7-6.4,3.1-12.9,4.4-19.3
			C335.5,47.2,336.2,43.1,336.9,38.9z M250.7,36c-5.8,3.7-10.5,9.1-10.7,12.1C244.6,46.8,250.8,39.8,250.7,36z M320.4,45.6
			c4.3-1.1,7.7-3.2,8.5-5.7C326.6,40.2,322,43.1,320.4,45.6z"/>
		<path d="M103.9,37c-0.7,1.6-1.2,3.3-2.1,4.8c-1.3,2.3-2.8,4.5-4.3,6.7c-0.5,0.8-1.1,1.6-1.6,2.5c-1.6,2.8-3.3,5.5-4.8,8.4
			c-0.3,0.5-0.2,1.3-0.3,2.1c0.6,0,1,0,1.2-0.1c3.5-1.9,7.2-3.5,10.3-5.9c3-2.3,5.3-5.5,7.8-8.4c1.8-2,3.5-4.2,5.2-6.3
			c0.7-0.8,1.1-1.9,1.9-2.6c0.4-0.5,1.2-0.6,1.8-0.8c0.1,0.7,0.5,1.5,0.3,2.2c-0.3,0.9-1,1.6-1.5,2.4c-3,4.9-6,9.9-9,14.8
			c-0.5,0.8-0.8,1.7-1.1,2.5c0.1,0.2,0.3,0.4,0.4,0.5c1.5-0.8,2.9-1.6,4.4-2.4c1.1-0.6,2.3-1.2,3.4-1.9c0.7-0.4,1.5-0.8,1.9-1.4
			c2.7-3.7,6.6-6.9,11.3-9.1c0.1,1,0.6,2,0.2,2.6c-1.3,2.3-2.8,4.5-4.4,6.7c-2.1,3.1-4.4,6.1-6.5,9.1c0.2,0.2,0.3,0.4,0.5,0.6
			c1.2-0.5,2.5-0.9,3.5-1.7c4.6-3.4,9-6.8,13.5-10.3c0.8-0.6,1.6-1.5,2.6-0.5c1.1,1.1,0.1,2-0.6,2.8c-1.6,1.9-3.3,3.7-4.9,5.6
			c-0.3,0.3-0.4,0.8-0.6,1.2c0.1,0.2,0.2,0.3,0.3,0.5c0.8-0.5,1.5-1,2.3-1.5c1.5-1,3.1-1.9,4.5-2.9c2.1-1.5,4.1-3.1,6.2-4.5
			c1.8-1.2,2.6-0.8,3.2,1.7c1-0.8,1.7-1.6,2.7-2.1c0.8-0.5,2.1-1,2.8-0.7c1.4,0.7,0.2,1.7-0.3,2.5c-0.7,1.1-1.4,2.2-2.4,3.8
			c0.9-0.2,1.4-0.1,1.6-0.4c1.5-2.1,4-1.9,6-2.7c1.5-0.6,1.5,0.7,1.2,1.6c-0.2,0.9-0.8,1.6-1.3,2.6c2.3,0.4,5.3-1.9,6,2.3
			c-0.3,0.2-0.8,0.5-1,0.4c-1.8-0.9-3.4-0.2-5.2,0.4c-2.4,0.8-3.1-0.2-2.6-4c-0.8,0.5-1.3,0.9-1.9,1.2c-1,0.8-2,1.7-3.1,2.2
			c-0.9,0.4-2.2,0.5-3,0.1c-0.6-0.3-0.7-1.6-1-2.4c-1.2,1-2.5,2.3-4.1,3.4c-0.6,0.4-1.6,0.2-2.4,0.2c0-0.7-0.2-1.5,0.1-2.1
			c0.5-1.2,1.2-2.2,2.1-3.9c-1.6,1-2.7,1.8-3.8,2.6c-1.9,1.4-3.7,2.9-5.7,4.3c-1.2,0.9-2.1,0.7-4.4-1c-0.3,0.5-0.6,1.2-1.1,1.8
			c-1.7,1.9-2.3,1.8-3-0.9c-1.6,0.8-3.1,1.4-4.6,2.3c-1.4,0.8-2.7,1.1-3.9-0.2c-1.1-1.2-0.6-2.5,0.2-3.5c1.4-2,2.9-3.8,4.3-5.7
			c1.3-1.8,2.6-3.7,3.7-5.9c-0.4,0.3-0.9,0.5-1.3,0.8c-4.2,3.3-8.3,6.7-12.6,9.9c-0.8,0.6-2.1,1-3.1,1c-2.1-0.1-2.9-1.3-2.2-3.3
			c0.4-1.3,1.2-2.6,1.8-3.8c0.2-0.5,0.4-0.9,0.7-1.4c-0.1-0.2-0.3-0.3-0.4-0.5c-1.8,1.4-3.5,2.8-5.3,4.1c-3,2.1-5.9,4.4-9.1,6.2
			c-2.3,1.3-3.4,0.6-4.2-1.9c-0.7-2-0.9-2.1-2.7-0.7c-3.9,3-7.8,6-11.8,9c-2.4,1.8-4.7,1.8-6.3,0.3c-1.1-1.1-1.7-2.4-1-3.9
			c1.2-2.5,2.6-5,3.9-7.6c0.3-0.6,0.6-1.1,0.7-1.9C66.5,62.2,63,68.7,57,73c-0.2-0.1-0.5-0.2-0.7-0.3c0.1-1.4,0.2-2.8,0.3-4.6
			c1.8,1.5,2.7,0.5,3.6-0.5c5.1-6.3,10.1-12.6,15.3-18.9c0.7-0.9,1.7-2.8,3.2-1.6c1.4,1.1-0.2,2.2-0.8,3.3c-2.8,5-5.5,10.1-8.3,15.1
			c-0.2,0.4-0.4,0.9-0.4,1.3c-0.3,1.7,0.8,2.7,2.2,1.8c4.2-2.6,9.3-4,12.3-8.6c1.2-1.8,3.2-3.1,4.8-4.6c3.8-3.6,6.6-7.8,9.2-12.2
			c1.1-2,2.6-3.7,4-5.5c0.4-0.5,1-0.8,1.5-1.3C103.5,36.7,103.7,36.9,103.9,37z"/>
		<path d="M184.9,44.1c-3.1,3.1-5.9,5.8-8.7,8.5c-0.7,0.7-1.3,1.4-2.1,1.9c-0.5,0.3-1.3,0.3-1.8,0.1c-0.3-0.2-0.6-1.1-0.4-1.6
			c0.3-0.9,0.8-1.9,1.4-2.6c3.1-3.9,6.3-7.8,9.5-11.7c0.5-0.6,0.8-1.3,1.1-2c-0.1-0.2-0.2-0.3-0.3-0.5c-0.9,0.2-1.7,0.5-2.6,0.7
			c-3.1,1-6.2,2.1-9.4,3c-1.8,0.5-3.1-0.7-4.1-2c-0.9-1.3-0.9-2.7-0.1-4.2c1.5-3,3-5.9,5.7-8c3.1-2.3,5.6-2.8,8-1.2
			c0.7,0.5,1.4,1.2,1.7,1.9c1,2.1,1.8,4.4,2.9,7.1c0.8-0.5,2-0.9,2.5-1.7c2.9-4.5,5.7-9.1,8.5-13.7c0.3-0.5,0.2-1.3,0.5-1.7
			c0.3-0.4,0.9-0.6,1.4-0.8c0.1,0.4,0.5,1,0.4,1.3c-1.7,3.6-3.4,7.1-5.2,10.6c-0.4,0.8-0.9,1.6-1.5,2.8c4.3-1.2,7.2-3.4,9.7-6.8
			c4.2-5.8,8.2-11.8,14.2-15.9c1.3-0.9,2.8-2.7,4.5-1.2c1.4,1.2,0.2,2.9-0.4,4.3c-2.3,4.5-4.4,9.1-6.9,13.5
			c-2.9,5.1-5.9,10.1-9.2,14.9c-3.6,5.1-7.6,9.9-11.4,14.9c-1.5,2-2.7,4.2-4.2,6.2c-0.5,0.7-1.3,1.1-2,1.6c-0.3-0.8-0.9-1.6-0.9-2.4
			c-0.2-4.4-0.2-8.8-0.3-13.2C185.4,45.6,185.2,45.2,184.9,44.1z M187.5,55.4c0.3,0,0.5,0.1,0.8,0.1c12-14.4,23.2-29.4,30.3-47
			c-1.3,0.4-2.6,0.9-3.4,1.8c-3.1,3.2-6.2,6.4-8.9,9.9c-2.8,3.5-5.1,7.4-8,10.9c-2.9,3.4-6.4,6.4-9.4,9.7c-0.9,1-1.7,2.4-1.8,3.6
			C186.9,48.1,187.3,51.8,187.5,55.4z M183.8,34.7c-1-2.7-1.7-5.3-3-7.7c-1.1-2.1-3.2-2.5-4.8-1.1c-2.1,2-4.1,4.2-5.8,6.6
			c-0.7,1-1,3-0.5,4c0.4,0.8,2.5,1.2,3.7,0.9C176.8,36.9,180,35.8,183.8,34.7z M187,39.9c3-3.2,5.8-6.1,9-9.4
			C190.3,31.9,186.7,37,187,39.9z"/>
		<path d="M47.1,43.5c-2.1,2.6-4,5.2-6.2,7.7c-3.6,4-7.4,7.9-11.2,11.7c-3.8,3.9-7.6,7.7-11.8,11.2c-1.8,1.5-4.2,2.4-6.5,3
			c-2.6,0.6-4.3-1.4-3.3-3.9c1.1-3,2.5-6,4.4-8.6c4.3-6.2,8.8-12.3,13.5-18.2c5-6.2,10.3-12.2,15.7-18.1c3-3.3,6.3-6.4,9.7-9.3
			c1.7-1.5,4-1.5,6.4-1.7c-0.2,1.5-0.3,2.7-0.4,3.8c-0.6-0.8-1.3-2.2-1.6-2.1c-1.5,0.4-3.1,0.9-4.2,1.9c-3,2.7-5.7,5.7-8.5,8.6
			c-2.5,2.7-5.1,5.3-7.4,8.1c-3.1,3.8-6.1,7.8-9.1,11.7c-2.1,2.6-4.2,5.2-6.2,7.9c-1.5,2-2.9,4.2-4.2,6.4c-1.8,3-3.6,6-5.3,9.1
			c-0.3,0.5-0.3,1.1-0.5,2c3.1-0.1,5.1-1.7,7.4-3c5.3-3.2,8.1-8.8,12.8-12.6c2.9-2.3,5.4-5,7.8-7.8c2.6-2.9,4.8-6.1,7.2-9.1
			c1.3-1.7,2.7-3.4,4.1-5c0.4-0.4,1.3-0.5,1.9-0.7c0.1,0.6,0.3,1.2,0.3,1.9c0,0.6-0.2,1.2-0.5,1.7c-3.1,6.3-6.3,12.6-9.5,18.9
			c-1.7,3.3-3.5,6.5-5.2,9.9c-0.6,1.2-1.7,2.6-0.2,3.8c1,0.9,3.6,0.3,4.9-0.9c1.4-1.2,2.9-2.3,4.2-3.6c1.6-1.6,3.2-3.3,4.7-5
			c1.6-1.9,3.1-3.9,4.8-5.6c4.4-4.4,7.1-9.8,10.4-14.9c1.1-1.7,2.3-3.3,3.6-4.9c0.6-0.7,1.6-1.2,2.1,0c0.2,0.6-0.2,2-0.5,2.1
			c-2.9,0.5-3.6,3.1-4.7,5.1c-4.7,7.9-9.4,15.7-16.2,22.1c-2.4,2.2-4.5,4.7-7,6.8c-1.8,1.5-3.9,2.3-6.2,1.5
			c-2.7-0.9-3.9-3.9-2.5-6.5c3.3-6.2,6.7-12.3,10.2-18.5c0.9-1.6,2.2-3,3.2-4.6c0.4-0.6,0.4-1.4,0.5-2
			C47.6,43.6,47.3,43.6,47.1,43.5z"/>
		<path d="M131.4,36.3c-4.4-0.5-8.8-1-13.2-1.4c-0.8-0.1-1.6,0.1-2.4,0c-0.8-0.2-1.6-0.6-2.4-0.9c0.3-0.6,0.4-1.5,1-1.9
			c2.8-1.9,5.6-3.6,8.4-5.4c0.2,0.2,0.4,0.4,0.6,0.6c-0.2,0.4-0.4,0.8-0.7,1.1c-0.3,0.3-0.9,0.3-1.2,0.7c-0.7,0.8-1.3,1.8-2,2.7
			c0.8,0.3,1.7,0.7,2.5,0.9c2.2,0.6,4.4,1.1,6.6,1.8c1,0.3,1.9,0.9,2.9,1.4C131.5,36.1,131.4,36.2,131.4,36.3z"/>
		<path d="M428.7,28.3c2.6-3.3,10.6-6.7,13-5.3C437.3,24.8,433,26.5,428.7,28.3z"/>
		<path d="M90.8,26.7c0.8-1.1,1.3-1.8,1.8-2.3c0.6,1,1.2,2,2,3.3C93.2,27.3,91.9,27,90.8,26.7z"/>
		<path d="M387.2,18.3c-1.2,0.7-1.9,1.2-2.7,1.6c-0.1-0.2-0.3-0.3-0.4-0.5c0.1-0.6,0.2-1.1,0.3-2C385.3,17.7,386,17.9,387.2,18.3z"
			/>
	</g>
</g>
</svg>
