<?xml version="1.0" encoding="UTF-8"?>
<svg version="1.1" xmlns="http://www.w3.org/2000/svg" width="209" height="54" >
<path d="M18.859,16.688c4.399-4.586,8.833-9.179,13.541-13.451c0.473-0.429,0.959-0.841,1.452-1.247 c1.586-1.308-0.641,0.186-0.236-1.207C33.492,1.212,33.173,1.626,32.944,2c-1.318,2.148-2.812,4.199-4.256,6.262 C20.18,20.415,11.2,32.278,3.204,44.779c-0.346,0.541-4.632,6.468-2.711,6.941c3.989,0.983,9.189-6.819,11.638-9.09 c1.276-1.183-0.149-0.452-0.178-0.363c-0.513,1.599-1.256,3.152-1.908,4.697c-0.509,1.208-1.766,3.593-1.417,5.011 c0.427,1.733,2.451,2.392,3.925,1.278c3.104-2.344,7.495-11.642,4.527-15.203c-0.339-0.407-0.887-0.488-1.372-0.55 c-0.973-0.121-1.962,1.278-0.659,1.441c2.657,0.332-0.905,9.038-1.436,10.183c-0.431,0.928-0.989,1.779-1.624,2.577 c-0.445-0.319-0.89-0.639-1.334-0.958c0.322-1.212,0.736-2.391,1.242-3.536c0.757-1.869,1.812-3.744,2.188-5.74 c0.224-1.188-1.308-1.025-1.948-0.738c-2.041,0.917-3.834,3.467-5.35,5.011c-1.128,1.149-2.274,2.276-3.483,3.342 c-0.539,0.474-1.109,0.91-1.739,1.257c0.606-0.334,0.177,0.86,0.46,0.027c0.558-1.64,1.669-3.175,2.578-4.629 c3.728-5.967,7.858-11.695,11.915-17.438c4.138-5.86,8.324-11.686,12.463-17.545c2.145-3.036,5.046-6.257,6.487-9.727 c0.351-0.845-0.554-1.161-1.244-0.976c-1.856,0.498-3.58,2.677-4.906,3.922c-4.156,3.903-8.139,8.001-12.085,12.115 C16.388,16.971,18.243,17.331,18.859,16.688L18.859,16.688z"/>
<path d="M23.414,48.647c0.004,1.147,0.089,2.89,1.196,3.536c0.535,0.313,2.321-0.468,1.54-0.924 c-0.52-0.304-0.619-1.26-0.7-1.786c-0.068-0.442-0.103-0.896-0.104-1.344C25.344,47.542,23.411,47.907,23.414,48.647 L23.414,48.647z"/>
<path d="M41.692,46.858c2.727-3.693,7.458-5.984,10.971-8.95c3.362-2.84,7.886-6.286,9.702-10.436 c0.959-2.19-2.696-1.338-3.584-1.085c-4.704,1.34-9.111,4.52-12.952,7.417c-4.104,3.096-7.894,6.759-10.257,11.369 c-0.854,1.666-2.488,4.834-1.104,6.62c3.659,4.724,18.59-11.282,19.965-12.644c-0.703,0.048-1.405,0.095-2.107,0.143 c-2.478,3.133-4.621,6.977-4.272,11.072c0.041,0.48,2.375,0.043,2.318-0.621c-0.33-3.869,1.716-7.63,4.061-10.594 c0.522-0.66-1.753-0.207-2.107,0.143c-3.552,3.519-7.175,6.989-11.235,9.923c-1.72,1.243-5.201,3.453-4.747-0.205 c0.875-7.043,7.941-12.71,13.215-16.531c1.74-1.261,3.576-2.397,5.447-3.452c0.742-0.418,5.54-2.972,5.068-1.164 c-0.722,2.773-4.409,5.536-6.391,7.401c-4.411,4.152-10.69,7.12-14.283,11.985C39.208,47.512,41.277,47.421,41.692,46.858 L41.692,46.858z"/>
<path d="M53.853,39.062c1.183-0.188,3.515-0.893,3.187-2.483c-0.126-0.612-2.456-0.045-2.318,0.621 c0.039,0.189,0.058,0.405-0.059,0.575c-0.143,0.208-0.12,0.153-0.299,0.243c0.264-0.132-0.057,0.016-0.116,0.036 c0.354-0.124,0.053-0.021-0.029,0c-0.304,0.078,0.305-0.051,0.023-0.006c-0.401,0.063-1.174,0.245-1.343,0.689 C52.729,39.179,53.677,39.09,53.853,39.062L53.853,39.062z"/>
<path d="M101.963,12.981c6.818,4.773-6.116,19.269-9.448,23.21c-4.856,5.745-11.071,9.656-17.955,12.539 c-2.615,1.095-14.076,5.843-9.782-0.702c0.523-0.798-1.774-0.49-2.131,0.053c-1.693,2.58-1.942,5.076,1.882,4.697 c7.557-0.75,15.463-4.814,21.664-8.975c7.214-4.839,12.109-12.111,16.751-19.275c1.921-2.966,5.247-9.557,1.185-12.4 C103.525,11.704,101.458,12.627,101.963,12.981L101.963,12.981z"/>
<path d="M110.22,15.863c-2.169,7.07-9.426,13.242-13.545,19.302c-1.652,2.432-6.725,10.233-0.116,9.213 c1.12-0.172,1.909-1.56,0.309-1.313c-3.466,0.534,0.799-6.015,1.392-6.954c1.742-2.762,3.754-5.361,5.759-7.934 c3.033-3.892,7.043-7.774,8.522-12.597C112.798,14.741,110.465,15.065,110.22,15.863L110.22,15.863z"/>
<path d="M65.898,30.405c-3.33,5.456,8.2,6.106,10.579,6.179c11.478,0.35,23.456-1.103,34.708-3.358 c-1.86,0.373-13.271,5.561-11.464,9.139c2.225,4.406,12.045-3.653,13.424-5.577c-0.74,0.119-1.479,0.238-2.22,0.357 c0.481,0.854-2.218,3.467-0.046,4.559c4.221,2.121,11.646-3.763,14.736-5.726c-0.684,0.031-1.367,0.063-2.051,0.094 c-0.72,1.212-3.032,4.906-1.672,6.241c3.034,2.979,11.784-4.688,13.556-6.002c-0.684,0.031-1.367,0.063-2.051,0.094 c-0.738,1.736-1.725,4.597-0.218,6.164c3.136,3.266,12.267-4.157,14.269-5.591c-0.684,0.031-1.367,0.063-2.051,0.094 c-0.808,1.308-2.032,3.576-0.797,4.942c2.35,2.6,10.342-2.443,12.132-3.405c-0.612-0.013-1.224-0.025-1.835-0.037 c-1.365,6.587,4.847,4.896,8.502,2.703c-0.612-0.013-1.224-0.025-1.835-0.037c-0.442,5.051,5.248,3.546,8.069,2.323 c1.502-0.651,0.091-1.084-0.842-0.68c-2.919,1.266-5.185,0.896-4.931-2.011c0.063-0.708-1.549-0.209-1.835-0.037 c-3.557,2.134-5.614,1.151-4.832-2.629c0.147-0.71-1.597-0.165-1.835-0.037c-1.608,0.864-10,5.842-8.794,1.015 c0.216-0.867,0.662-1.72,1.129-2.478c0.354-0.571-1.83-0.064-2.051,0.094c-1.652,1.184-10.684,8.459-10.898,3.139 c-0.052-1.292,0.449-2.721,0.949-3.899c0.291-0.683-1.838-0.064-2.051,0.094c-1.428,1.06-11.05,8.867-9.489,3.276 c0.36-1.294,1.024-2.551,1.707-3.703c0.362-0.609-1.856-0.029-2.051,0.094c-1.009,0.641-11.851,8.144-11.407,3.407 c0.045-0.48,1.035-2.336,0.84-2.682c-0.333-0.59-1.912-0.069-2.219,0.358c-1.106,1.542-2.886,2.701-4.415,3.781 c-1.311,0.925-6.221,2.146-4.314-0.653c0.615-0.903,1.628-1.56,2.499-2.194c2.157-1.573,6.908-2.944,8.353-5.291 c0.034-0.092,0.014-0.17-0.063-0.232c-1.07-0.836-4.416,0.463-5.54,0.651c-6.002,1.001-12.058,1.687-18.122,2.164 c-2.662,0.209-25.606,2.104-21.227-5.07C68.442,29.635,66.273,29.791,65.898,30.405L65.898,30.405z"/>
<path d="M174.887,45.537c2.322-0.462,4.925-0.978,7.28-0.623c0.733,0.111,1.895,1.355,2.689,1.652 c6.789,2.53,14.391,3.332,21.492,4.5c0.813,0.134,2.744-1.134,1.395-1.355c-6.917-1.138-16.258-1.423-22.504-5.013 c-3.354-1.928-6.836-1.225-10.7-0.458C173.1,44.526,173.481,45.815,174.887,45.537L174.887,45.537z"/>
<path d="M172.04,31.911c-0.136-1.058-0.189-2.197,0.097-3.233c0.031-0.114,0.069-0.193,0.127-0.294 c-0.348,0.609-1.496-0.027-0.553,0.397c0.562,0.253,1.102,0.549,1.648,0.831c0.827,0.427,1.611,0.512,2.519,0.304 c0.351-0.08,1.126-0.433,0.995-0.922c-0.136-0.506-0.972-0.381-1.323-0.301c0.292-0.067,0.158-0.004-0.034-0.082 c-0.238-0.097-0.465-0.227-0.692-0.346c-0.625-0.328-1.278-0.732-1.964-0.917c-1.002-0.271-2.163,0.096-2.763,0.955 c-0.764,1.095-0.535,2.979-0.375,4.229C169.827,33.356,172.156,32.82,172.04,31.911L172.04,31.911z"/>
</svg>