<?xml version="1.0" encoding="UTF-8"?>
<svg version="1.1" xmlns="http://www.w3.org/2000/svg" width="493" height="99" >
<path d="M27.767,46.735c-2.725-3.415,0.848-8.76,2.851-11.441c4.609-6.172,11.751-12.512,18.677-15.89 c5.603-2.733,3.091,5.855,1.955,8.021c-1.986,3.785-5.248,6.719-8.141,9.791c-4.619,4.903-8.918,10.133-13.066,15.436 c-6.216,7.944-11.572,16.61-17.187,24.98C9.913,82.019,6.973,86.409,4.05,90.81c-1.079,1.625-3.74,4.319-4.039,6.33 c-0.192,1.29,2.104,0.922,2.713,0.621c1.626-0.805,2.781-2.861,3.879-4.227c2.897-3.602,5.792-7.204,8.716-10.784 c7.646-9.36,15.372-18.787,24.016-27.254c1.393-1.365,2.839-2.677,4.359-3.898c0.62-0.498,1.285-0.936,1.97-1.336 c0.595-0.349-0.494-0.353-0.017,0.036c1.929,1.572,0.625,4.452-0.172,6.278c-2.079,4.763-4.842,9.264-7.345,13.808 c-4.971,9.021-9.738,18.148-14.293,27.387c1.247-0.053,2.495-0.105,3.742-0.158c3.238-19.828,20.799-37.385,38.599-44.975 c2.433-1.037,2.969-0.18,4.408,1.572c1.377,1.679,3.587,2.129,5.661,2.008c3.424-0.199,6.453-1.651,9.539,0.299 c3.478,2.196,8.407,1.643,12.275,1.446c1.96-0.099,3.167-2.381,0.499-2.246c-2.87,0.146-6.192,0.446-8.924-0.7 c-0.994-0.417-1.783-1.164-2.815-1.513c-3.707-1.257-7.753,1.5-11.233,0.247c-1.659-0.597-2.278-2.627-3.798-3.493 c-2.358-1.343-5.761,0.086-7.963,1.025c-18.4,7.845-36.777,26.324-40.118,46.786c-0.265,1.624,3.275,0.787,3.742-0.158 c4.722-9.576,9.684-19.021,14.835-28.371c2.614-4.743,5.52-9.452,7.509-14.506c2.445-6.211-2.612-8.71-7.645-5.323 C32.825,55.983,25.438,66.17,18.284,74.67c-4.121,4.896-8.159,9.862-12.173,14.846c-1.345,1.669-2.685,3.342-4.03,5.011 c-0.542,0.672-2.506,2.326-0.912,1.538c0.904,0.207,1.809,0.414,2.713,0.62c0.264-1.773,4.421-6.704,5.852-8.851 c3.906-5.862,7.836-11.709,11.763-17.557c8.033-11.964,16.278-23.581,26.31-34.008c3.486-3.624,11.946-11.792,8.493-17.633 c-2.644-4.474-8.793-0.989-12.024,0.958c-7.231,4.358-14.447,11.042-19.06,18.113c-1.828,2.802-3.407,7.588-1.029,10.569 C25.057,49.366,28.773,47.996,27.767,46.735L27.767,46.735z"/>
<path d="M69.095,46.442c36.796-18.086,77.138-28.408,116.383-39.778c7.446-2.157,14.654-3.882,22.421-4.576 c4.694-0.419,9.448-0.612,14.15-0.217c1.931,0.163,5.215,0.631,3.325,3.054c-4.323,5.541-15.53,6.494-21.739,7.521 c-13.882,2.297-28.014,2.875-41.93,5.051c-15.119,2.364-31.271,5.633-44.404,13.895c-9.555,6.011-18.942,18.059-21.899,29.116 c-0.228,0.85,3.55,0.313,3.813-0.672c2.182-8.158,7.926-15.611,13.477-21.705c8.615-9.459,20.883-13.308,32.99-16.218 c14.122-3.395,28.689-4.964,43.127-6.281c10.441-0.952,21.071-2.303,31.009-5.794c3.248-1.141,8.596-3.044,9.949-6.65 c1.479-3.938-11.369-3.137-12.861-3.093c-16.542,0.485-31.547,5.234-47.272,9.888C134.82,20.288,99.567,29.826,66.859,45.902 C64.562,47.032,68.17,46.897,69.095,46.442L69.095,46.442z"/>
<path d="M120.844,49.464c-4.875,6.342-9.696,12.742-14.237,19.328c-1.794,2.601-3.078,5.052-4.284,7.927 c-2.517,6.004-8.453,10.695-13.229,14.802c-1.696,1.458,2.15,1.453,3.099,0.639c4.773-4.104,9.727-8.451,12.987-13.916 c1.555-2.605,2.382-5.398,4.079-7.969c4.711-7.139,9.974-13.947,15.184-20.726C125.505,48.165,121.609,48.469,120.844,49.464 L120.844,49.464z"/>
<path d="M79.474,86.73c-2.065,0.179-5.969,0.945-6.123,3.582c-0.179,3.051,4.645,2.101,6.322,1.548 c0.758-0.25,1.831-0.896,1.569-1.871c-0.245-0.914-1.535-1.086-2.294-0.836c-0.487,0.161-0.989,0.282-1.493,0.379 c0.715-0.138-1.084,0.009-0.402,0.042c-0.493-0.023,0.09,0.068-0.14-0.015c0.137,0.042,0.246,0.121,0.328,0.238 c-0.148-0.149,0.021,0.113,0.028,0.235c-0.007-0.126-0.008-0.058-0.104,0.081c0.143-0.204-0.256,0.168,0.143-0.107 c-0.429,0.295,0.106-0.021,0.218-0.068c-0.517,0.221,0.233-0.062,0.366-0.099c0.187-0.051,0.377-0.091,0.566-0.131 c0.605-0.127-0.336,0.043,0.194-0.035c0.164-0.023,0.329-0.044,0.494-0.059c0.861-0.074,2.012-0.6,2.123-1.582 C81.379,87.063,80.254,86.663,79.474,86.73L79.474,86.73z"/>
<path d="M113.712,85.024c0.116,1.369-0.05,3.428-1.248,4.3c-0.629,0.458-0.463,1.006,0.294,1.097 c0.917,0.111,1.989-0.19,2.732-0.731c1.775-1.293,2.262-3.61,2.085-5.7C117.491,82.997,113.605,83.766,113.712,85.024 L113.712,85.024z"/>
<path d="M151.518,73.792c15.535-14.257,31.413-29.028,48.98-40.752c1.744-1.164-0.186-1.793-1.435-1.454 c-9.817,2.672-18.393,11.081-25.101,18.196c-7.823,8.298-14.175,17.927-20.685,27.252c-1.54,2.206-3.054,4.607-5.033,6.454 c-0.63,0.435-0.38,0.446,0.751,0.034c-0.346-0.254-0.582-0.719-0.771-1.079c-0.62-1.173-0.954-2.521-1.316-3.788 c-0.392-1.372-3.519-0.192-3.86,0.772c-1.206,3.406-0.226,6.739,2.96,8.52c4.606,2.573,10.764-0.091,14.98-2.107 c11.669-5.583,23.834-14.275,32.447-23.982c1.149-1.296-2.679-0.861-3.333-0.302c-3.115,2.662-27.93,23.183-23.923,26.695 c2.098,1.839,6.019-0.088,8.005-1.079c1.986-0.991,3.798-2.392,5.583-3.698c1.071-0.784,2.117-1.604,3.204-2.364 c1.381-0.967-1.751-0.166-2.429,0.813c-2.555,3.697,2.421,4.439,5.112,4.453c4.807,0.026,9.229-2.196,13.685-3.654 c1.073-0.351,2.725-2.053,0.516-1.976c-2.665,0.094-6.016,1.199-7.92,3.093c-3.29,3.271,3.564,5.103,5.813,4.859 c2.302-0.249,4.506-1.622,6.476-2.731c3.881-2.187,5.933-1.759,8.248,1.742c2.356,3.563,5.887-1.634,6.767-3.457 c0.669-1.385-3.094-0.301-3.469-0.03c-0.889,0.643-4.54,3.277-2.254,4.3c2.382,1.067,7.033-0.77,9.428-1.271 c4.926-1.032,9.858-2.049,14.835-2.812c1.616-0.248,3.437-0.641,5.076-0.425c-0.423-0.056-4.884,4.117-5.732,4.626 c-1.833,1.101,0.243,1.768,1.435,1.453c5.577-1.468,11.191-2.809,16.836-3.983c1.963-0.409,3.938-0.753,5.922-1.044 c1.331-0.194,3.271-0.695,1.922,0.995c-0.549,0.688-2.555,1.918-2.329,2.979c0.097,0.456,0.813,0.542,1.169,0.538 c3.145-0.035,6.522-1.667,9.712-2.08c6.212-0.805,12.505-1.023,18.759-1.269c-0.26-0.446-0.52-0.894-0.778-1.341 c-0.823,0.719-2.455,2.4-1.045,3.321c3.718,2.432,12.627-2.104,16.003-3.286c2.561-0.896,0.207-2.099-1.502-1.5 c-0.447,0.156-10.882,3.899-11.185,3.087c-0.104-0.281,0.605-0.875,0.809-1.052c0.827-0.722,0.116-1.376-0.778-1.341 c-8.138,0.319-16.417,0.541-24.436,2.066c-1.09,0.207-2.154,0.476-3.213,0.805c-2.175,0.676-0.082,1.633,0.955,0.616 c0.691-0.678,2.834-2.413,2.405-3.605c-1.16-3.229-10.719-0.166-12.884,0.27c-5.65,1.138-11.263,2.517-16.836,3.984 c0.478,0.484,0.957,0.969,1.435,1.453c2.221-1.333,7.051-3.905,7.079-6.894c0.016-1.686-5.819-0.743-6.497-0.664 c-4.936,0.573-9.829,1.652-14.692,2.65c-2.328,0.478-4.652,0.974-6.98,1.454c-2.606,0.538-0.939-0.463,0.443-1.461 c-1.156-0.011-2.313-0.021-3.469-0.03c-1.784,2.01-1.446,2.633,1.014,1.87c-0.258-0.295-0.487-0.611-0.686-0.948 c-0.63-0.954-1.25-1.742-2.13-2.48c-1.487-1.25-3.964-1.406-5.767-0.93c-2.528,0.668-4.717,1.924-6.982,3.2 c-1.211,0.867-2.574,1.203-4.087,1.007c-1.361-0.457-1.734-1.33-1.12-2.619c0.58-0.406,2.663-1.002,2.707-1.004 c0.172-0.658,0.344-1.317,0.516-1.976c-2.485,0.813-4.882,1.838-7.393,2.584c-1.58,0.469-9.365,2.09-7.325-1.508 c0.428-0.755,1.086-1.336,1.306-2.196c0.048-0.188,0.004-0.351-0.131-0.489c-2.372-2.14-6.956,2.396-8.616,3.632 c-0.579,0.43-7.43,5.118-7.049,3.195c0.363-1.835,2.352-3.683,3.52-5.027c5.994-6.902,13.087-13.015,20.026-18.948 c-1.111-0.101-2.222-0.201-3.333-0.302c-6.891,7.766-16.119,14.106-24.91,19.484c-3.98,2.435-9.218,5.957-14.096,5.353 c-4.005-0.496-5.109-4.438-3.94-7.741c-1.287,0.258-2.573,0.515-3.86,0.772c1.009,3.532,2.179,7.168,6.508,5.514 c1.921-0.734,3.322-2.719,4.524-4.273c2.851-3.684,5.389-7.624,8.07-11.431c7.403-10.508,15.202-20.763,25.275-28.87 c3.418-2.75,8.109-6.108,12.134-7.204c-0.478-0.485-0.957-0.969-1.435-1.454c-17.819,11.892-33.929,26.789-49.686,41.249 C146.8,74.724,150.631,74.605,151.518,73.792L151.518,73.792z"/>
<path d="M338.76,76.03c-5.825,1.313-12.02,3.038-17.016,6.396c-1.057,0.709-3.537,3.174-1.952,4.558 c1.69,1.475,4.624,0.841,6.587,0.394c3.477-0.791,6.827-2.034,10.172-3.253c6.027-2.198-1.67,0.575,0.994,1.895 c2.585,1.279,6.395-0.074,8.982-0.739c3.325-0.855,6.61-1.964,9.839-3.13c-0.885-0.041-1.77-0.083-2.654-0.125 c-0.235,6.664,17.594,2.478,21.279,2.18c23.034-1.861,46.306-0.577,69.38-0.478c12.465,0.055,25.746-1.098,38.06,1.385 c0.854,0.172,6.104,2.376,6.997,2.083c-2.492,0.817-5.311,0.597-7.899,0.863c-4.181,0.429-8.304,1.237-12.432,2.007 c-11.639,2.169-23.269,3.307-35.12,3.132c-24.563-0.361-49.117-1.075-73.683-1.293c-27.27-0.242-54.841-0.685-82.013,2.019 c-1.76,0.175-3.309,2.104-0.609,1.836c19.291-1.919,38.804-1.952,58.172-2.011c21.533-0.066,43.068,0.277,64.598,0.712 c17.258,0.349,34.748,1.52,51.956-0.142c9.306-0.898,18.368-3.242,27.637-4.333c1.268-0.149,18.266-1.71,11.139-5.029 c-6.914-3.219-16.062-2.921-23.503-3.038c-16.521-0.262-33.049-0.13-49.572-0.37c-14.644-0.213-29.371-0.354-43.974,0.945 c-2.9,0.258-16.724,3.468-16.549-1.503c0.031-0.879-2.354-0.233-2.654-0.125c-2.177,0.785-4.378,1.496-6.593,2.165 c-1.607,0.485-3.235,0.923-4.88,1.263c-2.356,0.488-1.758-0.393-1.233-1.713c1.133-2.857-5.597-0.287-6.339-0.021 c-2.732,0.979-5.443,2-8.239,2.79c-2.582,0.729-6.463,0.314-2.854-2.51c3.815-2.985,9.756-4.139,14.411-5.188 C341.521,77.125,341.053,75.513,338.76,76.03L338.76,76.03z"/>
</svg>