<?xml version="1.0" encoding="UTF-8"?>
<svg version="1.0" xmlns="http://www.w3.org/2000/svg" width="358" height="67" >
<path fill="#231F20" d="M4.205,53.808c8.444-8.099,16.95-16.155,25.725-23.896c1.866-1.646,3.749-3.285,5.732-4.79 c1.399-1.061,0.199-0.889-0.084-0.258c-0.465,1.039-1.193,2-1.824,2.941c-4.578,6.827-9.83,13.311-15.318,19.42 c-2.217,2.468-4.546,5.006-7.266,6.933c-2.711,1.92-0.025-3.396,0.475-4.071c4.582-6.184,11.317-11.208,17.469-15.716 c2.682-1.965,5.497-3.94,8.54-5.31c2.61-1.175-1.932,5.677-2.314,6.171c-4.555,5.88-9.95,11.186-15.253,16.387 c-0.341,0.334-0.683,0.667-1.026,0.998c0.581-0.056,1.162-0.112,1.743-0.168c2.145-2.169,4.338-4.291,6.553-6.388 c1.942-1.84,3.925-3.637,5.955-5.38c1.11-0.954,4.025-3.694,4.886-3.729c0.38-0.015,2.183-0.794,1.262-0.757 c-3.589,0.144-6.883,3.762-9.367,5.934c-3.815,3.337-7.467,6.884-11.031,10.488c-0.391,0.395,1.43,0.134,1.743-0.168 c2.33-2.244,22.745-22.013,19.452-24.258c-2.27-1.547-8.304,3.191-9.821,4.201c-6.324,4.208-12.32,9.136-17.636,14.56 c-0.817,0.833-7.557,7.947-3.853,8.497c3.731,0.555,7.842-4.768,9.94-6.985c5.468-5.778,10.414-12.118,15.063-18.565 c0.525-0.729,5.9-7.159,2.168-5.912c-2.141,0.716-4.029,2.735-5.697,4.154c-3.903,3.321-7.672,6.803-11.437,10.278 C13.424,43.549,7.921,48.74,2.461,53.976C2.074,54.348,3.881,54.118,4.205,53.808L4.205,53.808 M43.83,40.06c-1.829,1.833-3.578,3.745-5.277,5.697c-1.615,1.855-5.615,5.65-4.979,8.453 c0.537,2.365,7.783-3.065,8.254-3.414c7.205-5.32,13.879-11.436,20.452-17.505c2.932-2.708,5.829-5.458,8.624-8.308 c0.604-0.616,2.93-2.46,2.874-3.464c-0.018-0.021-0.036-0.041-0.054-0.061c-2.614-1.195-8.604,5.642-10.045,6.905 c-6.215,5.445-12.88,11.131-17.791,17.832c-3.769,5.142,3.854,2.269,5.985,1.169c11.022-5.686,21.282-14.965,29.016-24.553 c0.153-0.19-1.532,0.036-1.82,0.271C72.83,28.16,66.745,33.524,61.19,39.346c-2.28,2.39-5.46,5.371-6.124,8.75 c-0.549,2.795,4.187,1.938,5.531,1.703c0.743-0.129,1.74-0.882,0.378-0.645c-10.013,1.743,3.541-11.653,5.436-13.503 c4.583-4.472,9.431-8.708,14.396-12.751c-0.606,0.09-1.213,0.18-1.82,0.271c-6.09,7.549-13.517,13.986-21.374,19.634 c-1.656,1.19-8.46,6.77-10.716,5.747c-1.118-0.508,1.645-3.712,1.938-4.078c3.895-4.859,8.662-9.119,13.247-13.307 c3.458-3.158,7.005-6.746,11.002-9.232c-1.406,0.875-1.009-0.024-1.91,1.063c-0.628,0.758-1.327,1.46-2.011,2.167 c-1.867,1.929-3.813,3.782-5.76,5.629c-5.276,5.004-10.707,9.854-16.266,14.542c-2.301,1.94-4.644,3.833-7.049,5.643 c-1.01,0.76-5.321,4.58-4.522,1.491c1.215-4.696,6.697-9.278,10.003-12.591C45.94,39.506,44.141,39.748,43.83,40.06L43.83,40.06z M73.124,40.406c-1.352,0.58-2.695,1.647-3.432,2.927c-0.781,1.356-1.405,4.197,0.534,4.944 c2.799,1.077,6.544-1.306,8.824-2.763c1.102-0.705-0.486-1.416-1.287-0.903c-1.692,1.082-3.775,2.292-5.806,2.455 c-1.816,0.146-0.863-2.825-0.335-3.608c0.556-0.825,1.453-1.498,2.365-1.889C75.202,41.047,74.124,39.977,73.124,40.406 L73.124,40.406 M91.05,40.953c-2.676-3.054-8.803,1.51-9.595,4.305c-1.581,5.574,9.635-1.95,10.235-2.423 c-0.557-0.054-1.113-0.109-1.669-0.163c-0.818,1.513-2.101,4.981,1.023,4.219c1.588-0.387,3.06-1.229,4.521-1.935 c2.316-1.118,6.071-3.04,3.393,1.111c-0.488,0.755,1.208,0.49,1.494,0.289c0.775-0.544,1.577-1.047,2.387-1.537 c0.695-0.42,1.412-0.786,2.151-1.123c2.978-1.354-0.101,3.625-0.159,3.729c-0.475,0.851,1.364,0.42,1.669,0.163 c2.004-1.681,2.786-0.602,3.715,1.229c0.182,0.358,0.84,0.428,1.202,0.381c1.644-0.212,2.788-1.841,3.635-3.104 c0.49-0.73-1.452-0.539-1.795-0.027c-2.838,4.229-0.073-1.222-2.976-1.206c-2.052,0.011-3.792,1.143-5.326,2.429 c0.557,0.055,1.113,0.108,1.669,0.163c4.497-8.048-3.622-4.276-7.367-1.647c0.498,0.096,0.996,0.193,1.494,0.289 c1.045-1.62,2.543-4.585-0.76-3.918c-1.826,0.368-3.513,1.214-5.184,2.01c-0.951,0.453-1.896,0.917-2.856,1.353 c-1.837,0.833-0.426-2.306-0.137-2.84c0.47-0.869-1.366-0.402-1.669-0.163c0.214-0.169-8.543,6.129-6.557,2.053 c0.771-1.581,4.154-4.613,5.665-2.888C89.688,42.196,91.535,41.505,91.05,40.953L91.05,40.953 M139.288,41.256c3.649-3.052,7.168-6.279,10.483-9.69c0.917-0.943,8.036-8.083,4.081-8.878 c-3.758-0.755-8.396,4.532-10.567,6.704c-2.396,2.397-11.918,11.605-8.63,15.313c3.304,3.726,21.264-2.71,19.262-7.76 c-1.379-3.479-16.574,9.583-16.979,12.79c-0.031,0.246,1.857,0.072,1.932-0.518c0.354-2.798,3.832-5.34,5.799-7.059 c1.551-1.355,3.215-2.574,4.948-3.684c1.603-1.026,3.166-1.211,1.943,0.925c-1.969,3.439-7.972,5.008-11.551,5.379 c-6.099,0.631-3.519-4.418-1.581-7.437c2.732-4.255,6.297-8.082,10.127-11.367c0.953-0.817,5.541-3.966,4.308-0.527 c-0.555,1.548-1.866,2.934-2.903,4.15c-3.684,4.324-8.069,8.162-12.42,11.801C137.119,41.749,138.932,41.554,139.288,41.256 L139.288,41.256 M162.647,45.099c4.135-2.675,8.124-5.587,12.006-8.613c4.88-3.802,12.39-9.065,13.929-15.497 c0.843-3.525-2.945-2.547-4.725-1.435c-5.366,3.354-9.673,8.925-12.876,14.293c-2.091,3.506-4.977,11.543,1.779,12.272 c4.993,0.539,12.065-2.649,13.079-8.015c0.709-3.749-7.267-0.315-8.249,0.156c-5.014,2.406-12.077,7.367-12.311,13.513 c-0.012,0.312,1.91,0.061,1.932-0.518c0.193-5.084,5.313-8.916,9.192-11.42c1.264-0.816,6.784-4.276,7.511-1.744 c0.859,2.992-4.35,6.035-6.26,6.826c-8.577,3.553-7.559-5.858-5.609-9.856c2.027-4.16,5.087-7.87,8.266-11.195 c1.37-1.434,7.529-7.417,6.229-1.979c-0.946,3.955-5.056,7.319-7.908,9.933c-5.361,4.914-11.365,9.256-17.468,13.206 C160.349,45.553,162.294,45.327,162.647,45.099L162.647,45.099 M197.235,43.321c4.842-3.314,9.508-6.909,13.998-10.681c3.005-2.524,5.993-5.201,8.528-8.206 c0.863-1.023,4.119-4.212,3.551-5.894c-0.804-2.378-6.036,2.061-6.736,2.621c-5.116,4.089-10.049,9.243-13.29,14.963 c-2.336,4.124-1.867,8.601,3.517,9.075c4.747,0.418,11.742-2.401,14.894-5.982c3.396-3.86-2.943-2.087-4.582-1.313 c-4.594,2.17-12.297,6.756-13.021,12.37c-0.102,0.785,1.847,0.434,1.934-0.236c0.554-4.293,5.614-7.519,8.922-9.652 c0.516-0.333,5.983-2.854,5.621-2.081c-0.894,1.912-3.983,3.207-5.745,4.025c-3.963,1.839-12.688,3.4-10.803-3.689 c1.102-4.147,4.754-7.958,7.573-11.003c2.585-2.792,5.428-5.47,8.546-7.66c1.479-1.039,1.548-1.091,0.615,0.611 c-1.247,2.277-3.125,4.218-4.915,6.067c-5.878,6.071-12.849,11.309-19.811,16.074C194.949,43.467,196.613,43.747,197.235,43.321 L197.235,43.321 M233.277,37.69c5.732-3.892,12.039-8.384,15.979-14.173c0.559-0.821,2.292-3.692,0.523-4.309 c-1.669-0.583-3.714,1.051-4.968,1.911c-6.005,4.116-12.106,9.955-16.015,16.112c-3.932,6.195,3.706,10.584,7.968,5.397 c0.778-0.948-1.062-1.237-1.615-0.563c-1.989,2.422-5.451,1.705-5.577-1.558c-0.042-1.088,0.542-2.15,1.07-3.06 c1.172-2.016,2.857-3.79,4.422-5.5c3.464-3.786,7.308-7.406,11.548-10.313c2.822-1.935,1.998-0.106,0.608,1.936 c-1.646,2.419-3.978,4.43-6.169,6.33c-2.863,2.482-5.919,4.787-9.055,6.916C230.913,37.553,232.5,38.217,233.277,37.69 L233.277,37.69 M255.141,35.535c-3.961-0.383-10.003,0.717-11.92,4.68c-0.998,2.062,3.101,1.837,3.897,1.752 c3.068-0.325,5.793-2.239,8.095-4.124c-0.606,0.089-1.214,0.178-1.82,0.267c-1.285,1.495-4.863,6.397-0.497,5.956 c4.561-0.461,8.915-3.251,12.53-5.883c-0.606,0.089-1.214,0.178-1.82,0.267c-4.965,5.83,1.584,3.835,4.719,1.978 c7.882-4.669,15.854-10.41,22.381-16.847c0.391-0.385-1.431-0.097-1.74,0.177c-4.798,4.231-9.895,8.601-13.705,13.77 c-1.335,1.809-0.971,2.906,1.397,2.667c2.367-0.239,4.565-2.067,6.134-3.71c0.374-0.391-1.436-0.143-1.74,0.177 c-0.966,1.011-5.924,4.487-4.465,1.419c1.031-2.17,3.122-3.986,4.765-5.68c2.969-3.06,6.12-5.958,9.313-8.783 c-1.163-0.026-2.088,0.365-2.774,1.175c-0.431,0.397-0.867,0.788-1.311,1.172c-1.036,0.913-2.112,1.782-3.186,2.65 c-2.803,2.269-5.705,4.414-8.632,6.518c-2.797,2.011-5.656,3.949-8.621,5.706c-3.594,2.129-2.169-0.943-0.634-2.747 c0.168-0.197-1.54,0.063-1.82,0.267c-1.789,1.302-9.463,6.688-11.038,4.444c-0.828-1.179,1.946-4.236,2.646-5.05 c0.146-0.17-1.518,0.018-1.82,0.267c-0.888,0.726-10.379,6.027-8.024,1.163c1.096-2.265,5.355-3.196,8.097-2.93 C253.987,36.295,255.603,35.58,255.141,35.535L255.141,35.535 M294.269,36.226c-2.659,0.158-7.994,5.138-3.641,6.6c1.147,0.385,2.489,0.224,3.287-0.769 c0.811-1.008,1.449-2.107,2.106-3.22c0.355-1.18,1.137-1.759,2.346-1.735c1.066,0.247-1.462,4.005-1.536,4.125 c-0.567,0.918,1.308,0.823,1.726,0.37c0.852-0.924,1.765-1.786,2.707-2.618c0.697-0.616,1.448-1.154,2.213-1.681 c3.902-2.688,3.661,2.959,1.556,4.285c-1.004,0.631,0.318,1.371,1.058,0.971c1.333-0.719,4.435-2.606,4.882-0.218 c0.275,1.473,2.381,1.77,3.518,1.881c4.449,0.436,8.855-3.553,10.788-7.164c4.275-7.987-9.153-6.161-8.5,0.735 c0.374,3.941,7.561,6.322,10.636,6.771c4.8,0.7,9.833,0.703,14.651,0.202c1.747-0.182,5.618-0.539,5.841-2.896 c0.243-2.577-6.807-6.302-8.806-7.538c-0.7-0.433-2.409,0.528-1.494,1.094c1.342,0.83,2.604,1.784,3.865,2.729 c0.649,0.487,5.466,3.66,4.041,4.487c-1.194,0.693-2.923,0.714-4.245,0.852c-6.1,0.634-13.046,0.568-18.604-2.235 c-1.266-0.638-2.323-1.529-3.259-2.589c-3.086-3.496,5.063-8.002,4.588-3.479c-0.32,3.04-3.459,5.477-5.786,6.809 c-9.283,5.313-4.137-0.38-5.804-1.811c-1.9-1.633-5.352,0.299-7.155,1.273c0.353,0.324,0.705,0.647,1.058,0.971 c2.692-1.695,3.792-6.84-0.276-7.366c-3.331-0.43-7.085,3.831-9.08,5.995c0.575,0.124,1.15,0.247,1.726,0.37 c1.671-2.705,3.349-5.216-0.582-5.876c-0.756-0.127-1.722,0.28-2.233,0.822c-0.666,0.705-1.164,1.447-1.677,2.264 c-2.176,3.468-0.277-1.028-0.094-1.039C295.163,37.535,295.589,36.147,294.269,36.226L294.269,36.226z
M275.063,27.674c0.341-0.453,0.681-0.906,1.021-1.358c0.734-0.978-1.096-1.218-1.607-0.537 c-0.341,0.453-0.681,0.906-1.021,1.358C272.722,28.114,274.552,28.355,275.063,27.674L275.063,27.674z
M98.437,5.667c0.596,0.339,1.191,0.679,1.787,1.019c0.348,0.198,0.906,0.03,1.248-0.096 c0.077-0.028,0.89-0.391,0.569-0.573c-0.596-0.339-1.191-0.679-1.787-1.019c-0.348-0.198-0.906-0.03-1.248,0.096 C98.929,5.123,98.116,5.485,98.437,5.667L98.437,5.667z
M57.844,11.469c0.34,0.227,0.681,0.453,1.021,0.68c0.364,0.242,0.889,0.131,1.268-0.021 c0.133-0.054,0.892-0.466,0.535-0.704c-0.341-0.227-0.681-0.453-1.021-0.68c-0.364-0.242-0.888-0.131-1.268,0.021 C58.245,10.818,57.486,11.23,57.844,11.469L57.844,11.469z
M152.181,48.515c0.511,0.113,1.021,0.227,1.532,0.34c0.445,0.099,0.955-0.029,1.354-0.23 c0.159-0.081,0.67-0.463,0.221-0.563c-0.511-0.113-1.021-0.227-1.532-0.34c-0.445-0.099-0.955,0.029-1.354,0.23 C152.243,48.033,151.731,48.415,152.181,48.515L152.181,48.515z
M184.324,45.354c0.426,0.113,0.852,0.227,1.277,0.34c0.47,0.125,1.032,0.008,1.365-0.366 c0.283-0.316,0.197-0.78-0.24-0.896c-0.426-0.113-0.852-0.227-1.277-0.34c-0.47-0.125-1.032-0.008-1.365,0.366 C183.801,44.774,183.887,45.238,184.324,45.354L184.324,45.354z"/>
</svg>