<?xml version="1.0" encoding="UTF-8"?>
<svg version="1.0" xmlns="http://www.w3.org/2000/svg" width="573" height="161" >
<path d="M21.886,90.321c-2.67,4.526-5.626,9.06-9.219,12.908c-0.849,0.91-1.756,1.785-2.855,2.384 c-0.583,0.318-0.392,0.315-0.653-0.609c-1.649-5.833,0.953-13.797,2.157-19.447c2.791-13.105,6.336-26.175,10.844-38.795 c2.658-7.441,5.787-16.229,11.557-21.924c3.688-3.64,5.732,0.126,6.79,3.786c2.249,7.787,1.642,16.578,1.06,24.546 c-1.227,16.815-4.951,33.458-9.362,49.691c-0.506,1.862,2.402,3.211,3.199,1.349c6.378-14.925,13.465-29.683,21.616-43.722 c3.841-6.617,8.53-16.065,15.546-19.904c6.348-3.474,5.844,15.998,5.838,18.361c-0.038,15.355-2.105,30.76-4.219,45.938 c1.146,0.155,2.292,0.31,3.438,0.465c0.709-9.026,4.015-18.196,7.633-26.392c9.251-20.954,25.043-38.229,43.975-50.894 c1.866-1.248,0.116-4.281-1.766-3.022C107.938,38.102,91.95,55.704,82.232,77.189c-3.954,8.743-7.352,18.506-8.11,28.159 c-0.154,1.955,3.166,2.418,3.438,0.465c2.618-18.808,6.297-39.173,3.74-58.207c-0.729-5.43-3.254-13.376-10.239-10.177 c-6.881,3.153-11.696,12.388-15.406,18.497c-5.695,9.381-10.635,19.228-15.358,29.125c-2.742,5.747-5.413,11.536-7.916,17.391 c1.066,0.45,2.132,0.899,3.199,1.349c6.015-22.136,11.949-46.649,9.443-69.787c-0.78-7.2-5.013-19.664-13.781-11.641 c-5.146,4.708-7.994,12.177-10.553,18.464c-5.034,12.371-8.42,25.454-11.526,38.418c-1.806,7.538-3.785,15.486-3.76,23.294 c0.008,2.569,0.499,6.331,3.668,6.695c4.023,0.462,7.758-5.356,9.774-8.035c2.19-2.91,4.211-5.976,6.063-9.113 C26.058,90.139,23.032,88.379,21.886,90.321L21.886,90.321z"/>
<path d="M126.132,54.502c2.915,0.674,5.83,1.348,8.745,2.021c2.196,0.508,3.129-2.867,0.93-3.375 c-2.915-0.674-5.83-1.348-8.745-2.021C124.865,50.62,123.933,53.994,126.132,54.502L126.132,54.502z"/>
<path d="M147.347,81.986c7.311-12.38,14.862-24.643,22.832-36.609c3.798-5.702,7.645-12.49,12.941-16.974 c1.021-0.865,0.056,0.331-0.667-0.835c-0.214-0.344-0.125,1.18-0.284,1.985c-0.92,4.657-2.746,9.192-4.418,13.614 c-6.826,18.057-14.929,35.658-22.931,53.214c-0.417,0.914-0.172,2.385,1.046,2.571c10.999,1.677,22.872,0.342,33.349-3.227 c19.882-6.773,31.815-24.311,34.496-44.71c0.773-5.879,0.979-10.572-0.328-16.171c-1.275-5.463-3.013-10.854-5.497-15.892 c-2.181-4.422-5.452-8.967-10.405-10.395c-6.04-1.741-11.606,3.346-15.216,7.468c-2.291,2.617-5.013,5.025-3.885,8.533 c1.401,4.355,2.962,8.659,4.642,12.915c2.789,7.066,7.012,20.618,15.319,23.09c-0.429-0.563-0.856-1.125-1.285-1.688 c-0.246,3.882-2.52,27.521-9.064,23.285c-3.985-2.579-6.323-8.689-8.234-12.757c-2.562-5.457-4.555-11.167-6.828-16.747 c-1.185-2.907-2.185-6.732-4.159-9.245c-1.076-1.37-3.518,0.107-2.925,1.703c1.918,5.154,6.153,10.083,9.727,14.119 c6.8,7.677,15.738,13.66,26.15,14.572c21.943,1.923,33.686-20.218,50.845-29.676c2.989-1.647,8.137-4.133,9.137,0.724 c0.809,3.923-0.633,8.519-1.641,12.259c-2.135,7.921-5.311,15.586-8.543,23.108c-0.716,1.665,1.359,3.781,2.748,2.121 c5.769-6.895,12.15-13.471,19.155-19.109c3.151-2.537,8.645-7.146,13.073-5.953c6.085,1.64,2.219,17.902,1.579,21.338 c-0.321,1.726,1.57,2.909,2.925,1.703c7.283-6.488,15.099-13.072,23.798-17.56c0.945-0.487,4.217-2.323,5.31-1.382 c1.057,0.911-0.322,4.223-0.572,5.214c-0.505,1.994-0.811,4.043-1.032,6.086c-0.608,5.581-0.122,13.425,6.355,15.255 c4.551,1.286,9.71-1.319,13.574-3.411c9.635-5.216,18.054-12.979,26.031-20.365c-0.975-0.567-1.95-1.135-2.925-1.703 c-1.709,4.236-3.143,10.48-0.286,14.503c2.422,3.409,6.911,3.235,10.575,2.501c10.472-2.097,20.362-9.216,29.014-15.028 c-0.877-0.504-1.755-1.008-2.633-1.511c0.521,7.309,1.656,15.735,5.672,22.007c8.544,13.345,20.629-8.907,23.826-15.062 c-1.007,0-2.015,0-3.021,0c2.978,5.787,8.378,11.793,15.232,12.264c6.004,0.413,10.674-4.813,13.795-9.229 c6.882-9.735,10.601-22.386,13.427-33.823c0.84-3.4,3.351-11.149,0.311-14.236c-2.683-2.723-5.4,2.313-6.159,4.203 c-2.384,5.94-2.716,12.637-2.037,18.936c0.441,4.104,1.494,8.091,2.945,11.948c0.815,2.166,2.168,4.142,2.739,6.364 c0.971,3.779,3.445,6.965,7.487,7.45c3.206,0.384,6.479-1.758,8.885-3.572c5.854-4.413,10.361-10.581,14.612-16.47 c-1.087-0.294-2.174-0.589-3.261-0.883c0.296,5.968,2.035,12.512,6.099,17.02c9.522,10.562,24.908-3.055,31.874-9.721 c-0.975-0.567-1.95-1.135-2.925-1.703c-0.864,3.785-0.352,8.194,2.005,11.345c6.262,8.374,20.363,3.666,28.132,0.912 c-0.658-0.857-1.317-1.714-1.976-2.571c-4.905,11.331-9.811,22.661-14.716,33.991c-1.116,2.578-2.231,5.155-3.348,7.733 c-0.307,0.709-0.613,1.418-0.921,2.126c-0.536,1.24-0.047-0.166,1.222-0.267c-0.87,0.069-1.74,0.138-2.611,0.208 c-15.539,1.233-31.079,2.46-46.619,3.684c-65.33,5.147-130.664,10.241-196.005,15.24c-62.527,4.784-125.057,9.645-187.632,13.768 c-7.942,0.523-16.433,0.207-24.278,1.544c-4.12,0.702-9.045-0.963-12.68-3.253c-3.979-2.506-6.838-6.441-9.115-10.466 c-2.146-3.794-2.902-8.121-4.923-11.92c-3.573-6.717-10.627-0.54-13.903,2.924c-6.78,7.168-12.219,15.512-18.78,22.877 c-3.147,3.533-10.187,12.079-15.655,8.303c-3.329-2.298-4.464-7.826-5.331-11.437c-2.164-9.014-2.583-18.477-2.919-27.703 c-0.082-2.25-3.582-2.258-3.5,0c0.349,9.575,0.926,19.261,3.044,28.634c1.01,4.469,2.542,9.558,6.002,12.784 c5.852,5.455,13.349-0.543,17.725-4.824c7.138-6.985,12.719-15.423,19.13-23.043c2.301-2.735,4.786-5.773,7.947-7.55 c2.977-1.673,3.727,1.9,4.452,4.144c3.97,12.283,14.036,25.502,28.436,24.04c7.443-0.756,15.453-0.972,23.105-1.472 c27.064-1.771,54.116-3.75,81.165-5.741c71.192-5.24,142.365-10.74,213.534-16.283c45.475-3.542,90.947-7.111,136.417-10.719 c1.009-0.08,2.018-0.16,3.026-0.24c0.568-0.045,1.261-0.289,1.511-0.867c6.414-14.816,12.828-29.632,19.242-44.448 c0.544-1.255-0.356-3.145-1.976-2.571c-6.304,2.234-19.797,7.374-24.749-0.111c-1.434-2.167-1.653-5.343-1.083-7.84 c0.389-1.701-1.632-2.94-2.925-1.703c-6.057,5.796-20.423,19.174-28.05,8.315c-2.573-3.665-3.729-8.704-3.948-13.14 c-0.091-1.821-2.252-2.281-3.261-0.883c-2.904,4.022-21.131,28.788-24.714,12.91c-0.611-2.711-2.467-5.342-3.397-8.006 c-1.528-4.38-2.244-8.999-2.35-13.625c-0.103-4.559,0.213-11.97,3.627-15.553c-0.755,0.792-1.144-1.263-0.948,0.266 c0.142,1.109,0.024,2.26-0.075,3.366c-0.449,4.972-2.006,9.917-3.449,14.666c-3.117,10.249-7.08,24.426-16.39,30.998 c-7.207,5.087-14.338-2.801-17.489-8.84c-0.003-0.005-0.006-0.01-0.009-0.016c-0.589-1.144-2.431-1.137-3.021,0 c-3.021,5.815-6.552,13.577-12.554,16.936c-3.505,1.961-5.789-2.4-6.88-5.036c-2.196-5.307-3.136-11.369-3.543-17.079 c-0.088-1.229-1.452-2.305-2.633-1.511c-7.879,5.293-16.099,10.73-25.14,13.833c-2.761,0.948-8.057,2.591-10.032-0.61 c-1.883-3.051-0.221-8.197,1.01-11.247c0.7-1.736-1.752-2.789-2.925-1.703c-8.047,7.449-16.42,14.998-26.121,20.25 c-3.104,1.68-8.898,4.569-12.069,1.507c-3.568-3.445-1.968-11.258-0.988-15.505c0.625-2.712,2.058-6.32-0.021-8.784 c-2.607-3.092-7.585-0.534-10.363,0.899c-8.712,4.494-16.609,11.299-23.901,17.795c0.975,0.567,1.95,1.135,2.925,1.703 c1.296-6.955,3.943-17.813-1.228-23.901c-3.441-4.051-9.622-1.278-13.254,0.842c-9.72,5.672-18.007,14.809-25.176,23.377 c0.916,0.707,1.832,1.414,2.748,2.121c4.059-9.442,8.17-19.132,10.148-29.266c0.731-3.749,1.555-9.03-1.146-12.246 c-4.647-5.531-14.03,1.153-18.183,4.074c-6.357,4.473-11.41,9.897-17.177,15.024c-10.483,9.32-24.213,14.197-37.332,7.512 c-6.35-3.235-11.628-8.476-15.921-14.092c-1.521-1.992-2.922-4.079-4.219-6.223c-0.401-0.663-0.786-1.336-1.158-2.016 c-0.124-0.228-0.668-1.469-0.334-0.57c-0.975,0.568-1.949,1.135-2.925,1.703c-0.484-0.616,0.899,2.145,1.137,2.682 c1.481,3.348,2.838,6.75,4.176,10.157c2.696,6.867,5.333,13.786,9.165,20.121c1.785,2.95,4.311,6.589,7.896,7.418 c10.153,2.348,11.508-21.396,11.888-27.387c0.05-0.782-0.572-1.476-1.285-1.688c-2.972-0.884-4.897-4.472-6.385-6.934 c-2.432-4.025-4.324-8.398-6.101-12.743c-1.402-3.433-2.671-6.922-3.879-10.428c-0.396-1.147-0.776-2.3-1.151-3.455 c-0.514-1.583-0.232-0.886,0.132-1.417c3.532-5.138,10.337-13.611,17.261-9.042c4.754,3.138,7.092,10.077,8.791,15.191 c1.333,4.012,2.348,8.155,3.093,12.316c0.785,4.392-0.727,10.241-1.566,14.54c-1.192,6.106-3.384,11.966-6.487,17.352 c-9.765,16.944-29.459,23.474-48.038,23.492c-2.553,0.002-6.102-0.172-8.144-0.483c0.349,0.857,0.697,1.714,1.046,2.571 c8.752-19.202,17.738-38.473,24.872-58.354c0.664-1.85,6.45-15.378,0.637-15.191c-4.49,0.145-9.102,8.778-11.268,11.823 c-5.563,7.818-10.698,15.945-15.773,24.084c-4.067,6.524-8.075,13.088-11.984,19.708C143.175,82.168,146.2,83.928,147.347,81.986 L147.347,81.986z"/>
</svg>