<?xml version="1.0" encoding="UTF-8"?>
<svg version="1.1" xmlns="http://www.w3.org/2000/svg" width="304" height="70" >
<path d="M32.337,31.287c9.201-8.173,18.531-16.292,28.347-23.721c1.969-1.491,3.985-3.073,6.213-4.164 c-4.179,2.046-1.188-2.732-2.18-1.124c-0.193,0.313-0.843,1.026-1.215,1.451c-3.46,3.945-7.357,7.539-11.141,11.167 C40.896,25.89,29.183,36.624,17.746,47.648c-4.521,4.358-9.038,8.742-13.272,13.382c-1.327,1.454-5.055,4.732-4.396,7.076 c0.446,1.586,3.057,1.248,4.01,0.43c9.272-7.962,18.854-15.615,28.755-22.781c5.591-4.047,11.658-8.782,18.275-11.018 c1.402-0.474,2.152-0.823,1.373,0.7c-1.308,2.557-3.958,4.697-6.014,6.625c-5.765,5.403-12.058,10.229-18.044,15.381 c-0.819,0.705-9.667,7.745-6.419,9.344c4.207,2.069,9.715-5.977,12.33-8.213c2.398-2.05,7.037-5.252,6.209,0.881 c-0.37,2.74,0.719,4.021,3.681,3.924c8.885-0.292,18.297-3.138,26.337-6.778c2.277-1.03,15.105-8.722,10.082-12.627 c-5.568-4.328-21.082,14.096-10.417,16.167c3.978,0.771,8.881-2.094,12.288-3.713c6.898-3.28,13.54-7.12,20.14-10.953 c15.37-8.926,30.42-18.395,45.496-27.804c4.671-2.916,9.313-5.9,14.09-8.642c0.519-0.298,9.744-6.041,4.329-6.224 c-4.304-0.146-9.333,4.26-12.628,6.477c-10.645,7.158-20.372,15.628-29.802,24.291c-7.812,7.176-15.614,14.674-21.978,23.2 c-2.021,2.707-5.528,7.048-4.655,10.751c1.614,6.84,17.385-6.752,19.152-8.075c10.439-7.813,20.662-15.914,31.035-23.815 c7.937-6.045,16.036-13.045,25.049-17.461c2.425-1.188-0.402,0.338-0.28-0.942c-0.119,1.251-2.068,2.787-2.863,3.601 c-4.836,4.947-10.463,9.196-15.806,13.57c-11.907,9.747-25.506,19.548-34.324,32.366c-1.739,2.528,2.797,3.18,4.031,1.385 c10.673-15.514,27.781-26.679,42.023-38.652c3.733-3.139,9.828-7.138,11.622-11.936c1.434-3.832-3.423-3.403-5.563-2.606 c-4.319,1.606-8.307,4.782-12.037,7.402c-6.177,4.337-12.18,8.922-18.172,13.508c-11.753,8.995-23.262,18.377-35.383,26.879 c-1.489,1.045-2.994,2.098-4.593,2.971c-1.762,0.963,0.842,1.011,0.885-0.034c0.208-5.086,6.375-10.792,9.441-14.262 c9.08-10.278,19.438-19.569,29.972-28.315c7.119-5.911,14.641-11.866,22.838-16.238c0.494-0.264,1.378-0.672,1.421-0.685 c-5.862,1.722-0.645-3.399-2.492-2.007c-0.314,0.236-0.648,0.447-0.978,0.662c-1.826,1.19-3.775,2.212-5.644,3.335 c-5.606,3.371-11.133,6.875-16.681,10.339c-15.446,9.644-30.894,19.321-46.766,28.252c-4.272,2.404-8.589,4.737-13.004,6.87 c-2.419,1.169-5.19,2.721-7.896,3.061c-3.475,0.437,2.241-6.701,2.91-7.412c0.618-0.657,1.294-1.242,2-1.802 c1.97-1.563-0.909-1.022-0.972-0.624c-0.489,3.117-4.492,5.163-6.946,6.443c-6.064,3.163-13.108,4.904-19.819,6.061 c-1.299,0.224-2.601,0.371-3.912,0.502c-0.924,0.092-0.245-0.964-0.216-2.168c0.048-2.009-1.245-4.231-3.005-5.179 c-3.348-1.804-7.41,0.867-10.024,2.806c-2.042,1.515-3.89,3.315-5.719,5.074c-0.75,0.722-1.488,1.454-2.231,2.183 c-0.451,0.44-2.194,1.547-1.034,1.247c0.767,0.082,1.534,0.164,2.301,0.247c1.092,0.537,0.085,1.182,1.099-0.035 c0.572-0.687,1.232-1.305,1.875-1.923c1.941-1.865,4.04-3.576,6.099-5.307c5.019-4.214,10.136-8.321,14.955-12.768 c2.647-2.441,7.076-5.814,7.832-9.609c0.689-3.458-3.641-3.815-6.02-3.315c-4.446,0.935-8.52,3.55-12.328,5.907 c-5.978,3.699-11.64,7.92-17.224,12.18C14.89,54.721,7.799,60.454,0.897,66.382c1.337,0.144,2.673,0.286,4.01,0.43 c0.092,0.328,0.784-1.083,1.363-1.811c1.472-1.848,3.117-3.563,4.747-5.271c4.778-5.004,9.79-9.787,14.792-14.563 c11.278-10.771,22.792-21.297,33.98-32.163c3.075-2.987,6.395-5.96,8.987-9.395c2.286-3.028-0.773-4.405-3.68-3.141 c-5.462,2.375-10.294,6.953-14.86,10.661c-5.89,4.784-11.647,9.733-17.362,14.724c-1.247,1.088-2.49,2.18-3.727,3.278 C26.699,31.307,30.548,32.875,32.337,31.287L32.337,31.287 M146.479,41.605c-3.153,4.619,7.358,4.115,9.01,3.986c5.77-0.449,11.431-2.058,17.021-3.453 c1.297-0.324,3.027-1.363,2.266-0.052c-0.867,1.493-2.227,2.761-3.401,4.006c-2.636,2.796-5.407,5.461-8.067,8.232 c-1.47,1.531-3.961,3.623-4.388,5.835c-0.838,4.353,10.003-1.844,10.652-2.24c6.368-3.879,12.39-8.58,19.083-11.895 c2.167-1.073-1.107,0.597-1.035-0.352c-0.063,0.827-0.596,1.803-0.922,2.514c-0.783,1.703-1.696,3.339-2.442,5.06 c-0.94,2.172-1.144,4.534,1.822,4.672c2.719,0.127,5.386-1.688,7.588-3.043c1.768-1.088,3.483-2.262,5.225-3.391 c1.1-0.714,4.804-3.567,5.214-2.229c0.415,1.358-0.696,2.973-1.388,4.02c-0.915,1.386-1.079,2.365,0.66,1.101 c2.001-1.455,4.328-2.539,6.511-3.682c3.38-1.77,6.638-3.679,10.142-5.196c4.378-1.895,8.88-3.534,13.45-4.896 c1.63-0.485,3.282-0.915,4.971-1.125c0.689-0.086-0.509,1.581-1.103,2.575c-2.314,3.876-5.364,7.394-8.31,10.792 c-1.24,1.434-2.523,2.829-3.833,4.199c-0.767,0.802-3.553,2.537-1.572,1.975c0.922,0.222,1.845,0.443,2.767,0.666 c0.182,0.694-0.259,0.749,0.505-0.032c0.756-0.773,1.557-1.506,2.351-2.241c2.011-1.859,4.099-3.637,6.219-5.37 c2.107-1.723,4.299-3.36,6.646-4.743c1.332-0.786,0.558,0.252,0.688,1.57c0.141,1.425-0.042,2.901,0.042,4.338 c0.647,11.068,23.453-5.242,26.122-8.469c2.521-3.048-1.336-3.86-3.533-2.037c-1.85,1.534-2.546,4.715-1.892,6.927 c1.47,4.962,9.644,4.301,13.394,4.021c5.146-0.386,10.269-0.889,15.431-1.026c1.64-0.044,3.28-0.025,4.918,0.058 c0.439,0.021,0.876,0.065,1.312,0.132c0.814,0.128,1.301-1.414,0.161-0.945c-3.108,1.277-0.286,3.112,1.963,2.188 c1.281-0.526,4.428-2.348,1.997-3.645c-3.126-1.669-8.371-0.726-11.706-0.604c-3.848,0.141-7.688,0.456-11.523,0.787 c-3.186,0.275-7.825,1.174-10.473-1.265c-0.968-0.892-0.954-2.28-0.721-3.459c0.265-1.338,1.73-2.243,0.161-1.636 c-0.963,0.043-1.926,0.085-2.889,0.128c-1.048-0.739-1.309,0.354-2.487,1.409c-1.452,1.299-3.074,2.405-4.684,3.496 c-1.604,1.087-8.338,6.081-10.214,4.383c-2.807-2.541,2.015-11.226-5.449-9.516c-4.771,1.094-9.024,5.169-12.675,8.201 c-1.367,1.136-9.088,6.366-8.492,8.645c0.273,1.046,2.027,0.876,2.767,0.666c1.956-0.556,3.41-2.257,4.78-3.658 c2.939-3.007,5.651-6.249,8.279-9.528c1.38-1.723,9.92-11.234,3.768-11.875c-6.843-0.714-15.095,3.469-21.251,5.958 c-2.925,1.183-5.781,2.484-8.499,4.088c-3.964,2.338-8.671,3.957-12.202,6.971c-1.481,1.264-2.555,3.326,0.096,3.964 c3.185,0.767,6.107-1.861,7.935-4.078c1.619-1.964,2.819-5.826,0.357-7.563c-2.026-1.429-5.784,0.491-7.556,1.445 c-3.543,1.909-6.806,4.283-10.229,6.39c-0.737,0.454-1.492,0.856-2.28,1.213c1.181-0.534,0.67,0.445,1.131-1.159 c0.622-2.162,1.994-4.189,2.932-6.228c2.822-6.139-2.88-4.899-6.507-2.918c-6.889,3.763-13.233,8.457-19.963,12.486 c-1.063,0.638-2.139,1.245-3.279,1.734c3.01-1.29,1.296,1.462,2.384-0.188c0.523-0.794,1.197-1.492,1.832-2.194 c2.747-3.041,5.737-5.864,8.59-8.806c2.073-2.138,9.333-9.872,1.263-8.964c-5.513,0.62-10.859,2.61-16.334,3.531 c-0.815,0.137-9.607,1.06-8.576-0.452C152.325,39.878,147.432,40.209,146.479,41.605L146.479,41.605z"/>
</svg>