<?xml version="1.0" encoding="UTF-8"?>
<svg version="1.0" xmlns="http://www.w3.org/2000/svg" width="666" height="241" >
<path fill="#231F20" d="M47.118,130.02c18.354-14.567,36.286-29.704,53.864-45.194c13.648-12.028,27.083-24.343,39.764-37.394 c8.699-8.951,18.592-18.722,23.932-30.195c2.419-5.199,7.836-18.111-2.69-17.189c-13.015,1.141-25.021,12.11-34.528,20.022 C87.225,53.558,53.084,94.199,25.089,138.313c-8.62,13.583-17.398,27.688-23.459,42.651c-0.538,1.326-2.955,6.022-0.655,6.77 c3.691,1.199,7.486-1.98,10.093-4.126c9.74-8.015,19.992-15.456,30.217-22.833c11.429-8.246,23.018-16.633,35.407-23.397 c1.485-0.811,3.218-1.644,4.408-2.05c-0.718,0.246-1.976,0.37-2.188,0.265c0.153,0.076,0.23,0.469,0.166,0.784 c-0.867,4.272-5.565,8.596-8.069,11.943c-10.635,14.215-21.125,28.54-31.539,42.918c-9.386,12.958-18.803,25.922-27.709,39.218 c-1.649,2.462-4.194,5.364-5.008,8.279c-0.754,2.702,7.36-0.563,8.599-1.761c18.479-17.883,36.89-35.739,56.145-52.811 c12.178-10.796,24.556-21.42,37.526-31.261c4.849-3.68,9.813-7.237,15.049-10.348c1.687-1.002,3.413-1.915,5.22-2.681 c1.024-0.435,0.067-0.14,0.191-0.095c3.683,1.329,0.446,9.99-0.344,12.178c-2.877,7.969-7.809,15.231-12.425,22.269 c-2.433,3.709-20.99,26.726-11.007,29.752c4.685,1.42,10.338-0.549,14.737-2.107c6.934-2.457,13.5-5.979,19.916-9.54 c16.413-9.108,32.049-19.668,47.44-30.389c5.499-3.83,10.956-7.72,16.372-11.667c1.953-1.423,3.898-2.858,5.833-4.306 c0.75-0.561,1.496-1.128,2.242-1.693c1.147-0.867,0.989-0.209-1.508,0.36c-1.161,0.115-2.322,0.229-3.484,0.345 c-1.085-0.13-0.264-0.946-0.972-0.031c-0.311,0.402-0.656,0.776-0.995,1.154c-1.428,1.591-2.908,3.138-4.377,4.691 c-4.291,4.537-8.587,9.066-12.8,13.675c-7.933,8.678-17.603,18.143-22.273,29.129c-4.349,10.229,9.347,7.07,14.585,4.97 c13.367-5.359,25.303-14.589,36.92-22.912c13.065-9.359,25.8-19.313,39.461-27.804c2.118-1.316,4.275-2.585,6.526-3.661 c0.412-0.197,1.917-0.785,1.531-0.67c0.921-0.275-1-0.087-0.535,0.138c3.339,1.622-1.516,9.477-2.486,11.177 c-7.204,12.63-17.359,23.385-25.826,35.142c-0.679,0.942-5.493,6.813-3.121,7.894c3.47,1.583,8.839-1.583,11.796-3.239 c12.451-6.976,23.929-15.919,35.688-23.971c11.574-7.925,23.826-17.642,37.147-22.453c0.818-0.295,0.335-0.568,1.312,0.136 c1.509,1.089,0.506,4.178,0.04,5.48c-2.296,6.415-7.348,12.096-11.501,17.366c-2.137,2.711-22.061,24.286-13.529,26.713 c4.247,1.208,9.4-1.012,13.261-2.592c6.022-2.465,11.719-5.834,17.333-9.097c13.891-8.072,27.32-17.038,41.648-24.336 c3.008-1.532,8.39-4.928,11.43-4.242c5.192,1.171-0.94,12.694-2.193,14.795c-4.247,7.122-10.209,13.048-15.355,19.496 c-2.26,2.832-5.804,7.737,0.055,8.243c5.078,0.438,10.387-3.087,14.276-5.91c6.278-4.559,12.073-9.772,17.924-14.857 c6.575-5.714,13.16-11.44,20.166-16.626c3.056-2.262,9.531-8.389,13.638-5.997c9.414,5.484-9.846,28.098-13.017,33.394 c-1.811,3.024-3.413,6.771,1.602,6.482c3.668-0.211,7.227-2.253,10.346-4.019c9.804-5.553,19.056-12.18,28.34-18.54 c14.927-10.224,29.751-20.595,44.644-30.867c33.238-22.927,66.654-45.881,101.735-65.929c-2.143,0.094-4.286,0.188-6.429,0.282 c-23.804,17.977-46.683,37.547-67.898,58.505c-14.695,14.517-28.243,29.93-38.375,48.016c-1.255,2.238-8.36,13.179-4.142,15.567 c4.006,2.268,11.124-1.93,14.484-3.878c10.492-6.081,19.973-14.135,29.828-21.193c12.969-9.288,26.073-18.402,39.433-27.122 c5.939-3.877,11.942-7.676,18.12-11.166c2.037-1.15,4.104-2.241,6.238-3.203c2.808-1.266,0.25,0.271-0.325-0.435 c1.747,2.148-7.699,12.171-8.495,13.227c-7.32,9.711-14.645,19.431-21.443,29.518c-4.138,6.138-10.084,13.772-11.068,21.369 c-0.714,5.513,4.871,5.266,8.779,4.22c13.298-3.557,24.862-14.552,35.755-22.458c2.691-1.954,5.412-3.867,8.222-5.647 c0.97-0.615,1.959-1.219,2.985-1.735c2.342-1.177-1.727-0.026-1.601,0.165c0.78,1.18-0.033,4.232-0.032,5.577 c0.004,3.427,0.424,6.852,1.022,10.221c2.642,14.852,11.342,28.666,28.113,26.759c13.172-1.498,26.314-9.328,30.981-22.114 c2.758-7.555,2.686-16.881,0.216-24.527c-0.545-1.689-8.212,0.567-7.727,2.07c4.116,12.748,1.492,28.08-9.273,36.665 c-7.932,6.324-17.975,6.832-25.313-0.317c-5.416-5.276-7.883-13.392-9.271-20.605c-0.604-3.141-0.916-6.338-1.012-9.533 c-0.054-1.819,0.738-4.575,0.021-6.265c-1.448-3.413-9.788,0.62-11.754,1.657c-12.766,6.737-23.465,17.084-35.725,24.676 c-1.553,0.961-4.208,2.747-5.621,3.06c0.995-0.22-0.188-0.089-0.699-0.8c-0.657-0.915-0.482-2.37-0.292-3.389 c1.519-8.117,7.898-16.057,12.417-22.692c6.883-10.108,14.318-19.839,21.678-29.601c1.104-1.465,8.399-8.702,6.862-11.569 c-4.83-9.008-59.036,31.177-63.885,34.562c-10.171,7.101-20.239,14.343-30.212,21.718c-4.54,3.357-10.382,8.711-15.604,10.316 c1.955-0.601,1.313,0.393,0.851-0.93c-0.33-0.944,0.022-2.126,0.263-3.035c1.234-4.677,3.985-9.09,6.364-13.242 c10.461-18.252,24.922-33.638,39.93-48.222c14.3-13.895,29.415-26.955,44.85-39.568c6.359-5.196,12.772-10.341,19.326-15.29 c1.048-0.792-0.302-1.171-0.965-1.183c-1.854-0.033-3.86,0.548-5.464,1.464c-39.739,22.709-77.389,49.048-114.983,75.088 c-15.15,10.494-30.23,21.1-45.578,31.305c-4.646,3.089-9.316,6.166-14.157,8.942c-0.638,0.366-1.294,0.733-1.881,1.031 c-0.275,0.14-2.051,0.894-1.068,0.518c-0.422,0.162,2.726-0.603,2.767-0.534c-0.395-0.655,0.162-1.696,0.412-2.289 c2.464-5.852,7.022-11.031,10.393-16.375c2.98-4.728,7.213-11.094,6.219-17.001c-0.879-5.227-7.341-5.204-11.266-4.372 c-6.529,1.385-12.336,4.984-17.694,8.825c-13.52,9.691-25.146,21.702-38.412,31.702c-1.126,0.849-2.286,1.643-3.478,2.396 c-0.499,0.314-3.022,1.4-1.449,0.92c2.437-0.743,1.085,0.288,0.747-1.06c-0.235-0.942,0.708-2.2,1.159-2.938 c4.003-6.526,9.979-11.902,14.531-18.056c3.34-4.514,8.973-12.573,6.472-18.607c-1.362-3.285-6.937-2.195-9.483-1.638 c-13.361,2.923-25.75,11.422-37.303,18.351c-12.172,7.3-24.407,16.26-37.756,21.308c-1.604,0.606-0.868,0.73-1.954,0.138 c-1.636-0.892-0.418-3.555,0.106-4.717c2.739-6.079,7.709-11.394,11.827-16.552c2.339-2.93,21.783-24.665,13.529-28.183 c-3.885-1.656-9.458,0.684-13.043,2.17c-5.947,2.465-11.53,5.815-16.998,9.185c-14.166,8.729-27.674,18.497-41.398,27.891 c-4.991,3.417-9.992,6.878-15.247,9.881c-0.643,0.368-1.293,0.707-1.966,1.018c-0.553,0.255,3.182-0.402,3.177-0.417 c-0.4-1.088,1.378-3.257,1.897-4.066c7.679-11.966,17.69-22.316,25.461-34.251c2.417-3.711,6.083-8.857,5.586-13.57 c-0.411-3.896-5.929-2.592-8.325-2.036c-11.534,2.675-22.284,12.059-31.66,18.762c-13.789,9.858-27.269,20.191-41.546,29.346 c-4.961,3.182-10.141,6.532-15.75,8.456c-1.493,0.513-3.473-0.827-2.896-3.565c0.961-4.566,4.442-8.848,7.151-12.493 c4.159-5.597,8.778-10.853,13.442-16.028c6.722-7.459,14.491-14.343,20.634-22.292c1.956-2.531-6.257-0.196-7.438,0.617 c-4.075,2.805-7.959,5.917-11.967,8.819c-14.665,10.619-29.634,20.855-45,30.434c-7.496,4.672-15.117,9.2-23.023,13.148 c-3.543,1.77-9.359,5.54-13.559,4.907c-8.998-1.356,11.739-29.146,13.646-32.104c4.41-6.842,8.895-14.02,11.129-21.916 c0.728-2.571,2.322-8.585-1.023-10.103c-7.009-3.179-18.083,4.771-23.493,8.345c-12.24,8.083-23.573,17.592-34.726,27.087 c-22.528,19.179-44.4,39.287-65.383,60.148c-1.158,1.15-2.308,2.309-3.445,3.479c-0.45,0.464-0.893,0.935-1.35,1.391 c-1.356,1.35-0.036,0.015,1.966-0.479c1.161-0.114,2.322-0.229,3.483-0.345c1.038,0.114,0.7-0.061,1.521-1.481 c1.035-1.793,2.187-3.52,3.328-5.246c3.705-5.606,7.579-11.104,11.452-16.594c10.637-15.077,21.497-29.998,32.416-44.872 c4.987-6.793,9.996-13.57,15.035-20.323c2.983-3.997,7.105-8.125,8.952-12.827c2.726-6.942-15.621,1.729-17.343,2.697 c-12.436,6.988-24.092,15.493-35.645,23.828c-10.081,7.273-20.164,14.638-29.767,22.54c-0.527,0.434-1.048,0.874-1.563,1.321 c-1.756,1.526,5.635-0.777,5.577-0.959c-0.333-1.033,0.438-2.598,0.763-3.533c1.893-5.451,4.671-10.644,7.35-15.736 c9.842-18.712,21.415-36.565,33.632-53.799c16.177-22.819,34.191-44.054,53.981-63.813 c15.178-15.155,31.165-31.413,49.743-42.456c1.652-0.982,3.851-2.172,5.379-2.592c-0.802,0.22,0.666,0.105,1.296,0.978 c2.125,2.943-0.281,8.332-1.371,11.172c-4.585,11.951-14.059,21.718-22.729,30.835c-29.268,30.779-62.449,58.351-95.689,84.732 c-1.404,1.115,1.245,1.199,1.793,1.146C43.701,131.666,45.707,131.139,47.118,130.02L47.118,130.02 M501.838,72.078c0.536,2.12,1.312,4.22,2.353,6.143c0.743,1.374,1.622,2.622,2.996,3.408 c2.024,1.157,4.857,0.646,6.881-0.245c0.73-0.322,3.378-1.662,2.134-2.828c-1.188-1.114-3.8-0.483-5.073,0.078 c0.789-0.259,1.605-0.375,2.45-0.347c0.668,0.091-0.101-0.153,0.107-0.012c-0.382-0.258-0.693-0.619-0.987-0.968 c-0.727-0.862-1.201-1.923-1.648-2.947c-0.611-1.399-1.11-2.872-1.485-4.353C508.954,67.594,501.218,69.627,501.838,72.078 L501.838,72.078 M107.589,42.676c33.342-1.426,66.691-2.705,100.041-3.942c70.626-2.621,141.265-4.954,211.918-6.698 c63.778-1.574,127.692-3.264,191.489-1.762c10.064,0.237,20.141,0.555,30.183,1.314c0.023-0.953,0.048-1.905,0.072-2.857 c-13.094,6.792-27.498,11.539-41.561,15.798c-4.519,1.369-3.669,4.757,0.904,3.372c15.387-4.661,31.017-9.875,45.336-17.304 c1.367-0.709,2.377-2.683,0.072-2.857c-22.061-1.667-44.254-1.767-66.366-1.853c-32.237-0.125-64.477,0.309-96.708,0.891 c-73.18,1.321-146.343,3.572-219.49,6.107c-48.004,1.664-96.004,3.473-143.997,5.467c-2.925,0.122-5.85,0.243-8.774,0.369 c-1.729,0.074-3.984,0.579-5.124,2.021C104.468,42.155,106.529,42.722,107.589,42.676L107.589,42.676 M103.309,237.182c34.872,5.321,71.443,3.805,106.398,0.754c35.837-3.128,71.647-4.611,107.622-5.191 c41.872-0.676,83.771-0.474,125.631,0.704c32.944,0.927,66.303,1.776,98.97,6.492c1.841,0.266,4.022-0.258,5.464-1.464 c1.194-1,0.924-2.307-0.681-2.538c-34.071-4.919-68.875-5.758-103.235-6.705c-43.966-1.213-87.976-1.315-131.949-0.479 c-33.653,0.641-67.175,2.135-100.695,5.169c-24.913,2.255-50.02,2.854-75.008,1.666c-9.243-0.439-18.574-1.013-27.732-2.41 c-1.833-0.279-4.031,0.266-5.464,1.464C101.425,235.65,101.713,236.938,103.309,237.182L103.309,237.182z"/>
</svg>