<?xml version="1.0" encoding="UTF-8"?>
<svg version="1.0" xmlns="http://www.w3.org/2000/svg" width="758" height="214" >
<path fill="#231F20" d="M10.42,35.361c23.82-12.316,52.346-19.435,78.989-23.541c50.777-7.824,108.362-3.843,153.087,23.449 c31.538,19.245,56.885,50.589,65.826,86.745c3.525,14.252,4.167,29.51-0.16,43.657c-5.268,17.223-18.669,27.866-34.612,35.274 c-9.87,4.586-20.532,6.495-31.25,4.256c-7.857-1.642-15.014-5.778-21.515-10.332c-5.073-3.553-9.78-7.682-15.121-10.842 c-8.943-5.292-18.651-9.658-28.938-11.466c-7.225-1.27-15.615-0.531-20.901,5.061c-1.881,1.99-3.447,5.494-2.666,8.313 c0.94,3.396,4.77,5.323,7.804,6.4c14.904,5.291,33.326,0.756,47.806-3.616c31.655-9.558,60.758-26.978,87.675-45.821 c36.153-25.311,69.102-55.069,100.227-86.268c1.663-1.666-3.992-1.096-4.959-0.305c-9.492,7.755-19.699,14.716-29.787,21.656 c-32.743,22.524-66.721,43.261-101.014,63.324c-3.369,1.971,1.822,2.375,3.508,1.389c34.401-20.126,68.43-40.976,101.317-63.507 c10.353-7.093,20.821-14.231,30.55-22.18c-1.653-0.102-3.307-0.204-4.959-0.305c-37.108,37.194-77.009,72.551-121.815,100.271 c-23.774,14.708-50.099,28.463-77.954,33.225c-8.532,1.459-25.746,4.107-31.963-4.436c-0.627-0.862-0.932-2.243-0.774-3.214 c1.848-11.362,16.097-7.175,23.389-4.749c8.593,2.858,16.831,7.146,24.113,12.521c5.522,4.075,10.901,8.271,16.863,11.704 c16.153,9.302,34.283,8.629,51.165,1.549c15.479-6.491,29.852-16.632,37.058-32.13c13.044-28.052,2.333-62.635-12.721-87.546 C248.918,1.538,138.191-6.232,53.749,16.738C37.835,21.066,21.616,26.37,6.913,33.972C3.457,35.759,8.718,36.241,10.42,35.361 L10.42,35.361z"/>
<path fill="#231F20" d="M311.939,197.387c8.64-7.475,17.201-15.045,25.687-22.694c5.94-5.354,11.834-10.762,17.581-16.324 c2.932-2.839,7.231-6.138,8.907-9.999c1.901-4.38-3.448-5.516-6.575-4.976c-7.224,1.245-13.408,7.01-18.374,11.978 c-8.589,8.592-15.659,19.385-21.268,30.137c-1.9,3.642-5.981,11.154-1.652,14.575c4.453,3.519,12.953-1.518,16.821-3.589 c11.462-6.14,22.068-14.157,32.384-22.02c9.621-7.333,18.946-15.066,27.983-23.107c4.025-3.582,8.638-7.208,11.979-11.479 c2.125-2.719-2.616-3.927-4.379-2.295c-7.045,6.521-12.949,14.973-18.891,22.459c-4.628,5.831-9.133,11.776-13.244,17.985 c-2.753,4.159-5.809,8.666-6.869,13.621c-0.862,4.029,2.6,5.839,6.173,5.399c6.088-0.75,11.669-5.437,16.236-9.159 c6.632-5.408,12.709-11.559,18.45-17.894c4.291-4.735,8.771-9.755,11.804-15.426c0.342-0.64,0.584-1.299,0.774-1.997 c0.288-1.056-0.602-0.45,0.397-0.689c3.198-0.767,7.149,0.041,10.369,0.327c6.613,0.588,14.556,2.188,20.987-0.159 c-0.83-1.149-1.66-2.299-2.491-3.447c-8.554,7.34-16.854,15.01-24.835,22.968c-3.465,3.454-22.86,20.364-15.915,26.301 c3.271,2.795,9.197-0.797,12.008-2.564c6.126-3.852,11.528-8.782,16.699-13.811c5.754-5.595,11.158-11.653,15.738-18.253 c2.84-4.09,6.174-9.095,5.773-14.297c-0.063-0.807-0.457-1.582-0.882-2.254c-0.755-1.194-1.653-2.326-2.463-3.487 c-0.637-0.912-0.846-2.206-0.821-0.647c-1.721,0.637-3.442,1.274-5.164,1.911c1.119,0.929,2.215,2.489,5.012,2.272 c5.806-0.45,11.598-1.075,17.367-1.858c6.665-0.904,13.521-1.914,19.864-4.227c1.232-0.449,3.03-1.259,3.44-1.378 c0.711-0.206-1.275,0.058-1.523-0.831c-0.087-0.314-0.074,0.184-0.408,0.896c-0.513,1.099-1.216,2.099-1.912,3.085 c-2.768,3.916-5.978,7.533-9.16,11.11c-12.455,13.999-25.905,27.141-39.318,40.209c-2.393,2.331,2.596,4.001,4.379,2.295 c8.131-7.777,16.459-15.362,24.963-22.729c5.617-4.865,11.327-9.691,17.44-13.929c1.536-1.065,3.31-2.339,5.066-2.869 c-0.752,0.228-1.308-1.026-1.422-0.243c-0.147,1.01-1.25,2.141-1.843,2.901c-4.661,5.979-10.6,10.986-15.772,16.51 c-3.194,3.411-9.643,9.525-8.593,14.873c2.096,10.681,21.76-4.207,25.124-6.538c23.294-16.14,44.462-36.478,69.733-49.583 c-1.247-0.896-2.495-1.792-3.742-2.688c-8.165,9.409-16.537,18.649-25.07,27.725c-6.093,6.48-12.276,12.911-18.856,18.901 c-2.279,2.075-4.628,4.101-7.159,5.865c-0.376,0.262-1.769,1.035-1.604,0.974c-0.215,0.08,1.399,0.468,1.404,0.575 c-0.119-3.126-5.984-2.287-5.883,0.402c0.243,6.382,8.06,2.199,10.774,0.247c7.225-5.195,13.496-11.968,19.677-18.319 c10.881-11.18,21.372-22.771,31.597-34.555c2.108-2.43-1.968-3.608-3.742-2.688c-16.629,8.624-31.499,20.761-46.346,32.057 c-7.622,5.8-15.225,11.63-23.037,17.172c-4.875,3.459-10.216,7.7-16.002,9.52c-1.097,0.345-1.104,0.613-1.04-0.947 c0.117-2.822,2.894-5.693,4.574-7.724c5.033-6.08,11.006-11.323,16.366-17.104c2.199-2.372,7.723-7.735,4.206-11.032 c-2.895-2.715-8.799,1.505-11.158,3.033c-15.882,10.292-29.897,24.375-43.534,37.419c1.46,0.765,2.919,1.529,4.379,2.295 c13.419-13.075,26.814-26.247,39.318-40.21c4.104-4.583,11.191-10.905,12.438-17.315c1.156-5.95-8.658-1.546-10.504-0.928 c-11.17,3.74-23.755,4.542-35.453,5.352c0.803,0.299,1.606,0.598,2.409,0.896c-0.618-0.793-1.223-1.665-2.001-2.311 c-1.39-1.153-5.198-0.217-5.165,1.911c0.037,2.297,2.948,4.864,4.063,6.629c0.764,1.209-0.224,3.533-0.66,4.666 c-2.289,5.937-6.743,11.152-10.82,15.93c-4.958,5.808-10.42,11.207-16.248,16.138c-3.157,2.67-8.151,7.509-12.339,8.012 c0.144-0.018,3.201-5.94,4.006-7.008c4.164-5.521,9.12-10.476,14.022-15.332c7.209-7.143,14.731-14.009,22.435-20.618 c2.223-1.907-0.054-4.337-2.491-3.447c-7.48,2.73-17.358-0.291-25.119-0.548c-2.9-0.097-5.872-0.054-8.552,1.185 c-2.149,0.993-2.193,2.629-2.95,4.499c-2.278,5.63-7.511,10.68-11.486,15.114c-5.834,6.508-12.111,12.678-18.941,18.139 c-2.561,2.048-5.241,3.977-8.174,5.456c-0.829,0.418-1.747,0.829-2.677,0.943c-0.772,0.096-0.323,0.064-0.381-0.127 c-1.022-3.357,3.878-9.557,5.505-12.081c7.707-11.963,16.964-23.005,26.17-33.83c1.378-1.621,2.766-3.232,4.163-4.836 c0.302-0.346,2.353-2.519,1.238-1.487c-1.46-0.765-2.92-1.529-4.379-2.294c-3.563,4.557-8.522,8.354-12.827,12.161 c-9.745,8.617-19.879,16.801-30.285,24.605c-10.216,7.661-20.962,15.996-32.834,20.925c-1.31,0.544-3.911,1.916-4.309-0.083 c-0.583-2.926,1.951-6.984,3.182-9.435c5.715-11.371,13.594-22.671,22.942-31.334c2.875-2.663,6.061-5.063,9.648-6.671 c0.854-0.383,1.758-0.621,2.688-0.67c-0.232,0.013-0.138-0.57-0.184,0.02c-0.208,2.669-6.872,7.651-8.826,9.543 c-5.957,5.768-12.123,11.322-18.289,16.863c-7.728,6.943-15.521,13.818-23.378,20.616 C305.086,197.187,309.679,199.343,311.939,197.387L311.939,197.387z"/>
<path fill="#231F20" d="M574.898,156.798c23.045-14.218,45.512-29.625,66.915-46.207c13.317-10.316,27.019-21.222,37.442-34.579 c2.784-3.568,15.196-21.595,2.427-18.777c-4.982,1.1-9.442,3.931-13.635,6.726c-7.575,5.05-14.607,10.96-21.477,16.915 c-20.316,17.611-38.645,37.326-56.972,56.953c-17.908,19.178-35.812,38.435-52.897,58.355c-1.346,1.568,4.369,0.441,5.264-0.369 c5.925-5.368,56.18-48.571,58.513-45.119c1.639,2.424-5.69,9.968-6.927,11.49c-4.089,5.033-8.397,9.892-12.249,15.113 c-0.992,1.345-5.751,7.232-2.265,8.373c3.697,1.21,8.603-1.006,11.682-2.92c5.767-3.586,10.451-9.125,15.589-13.513 c11.624-9.929,24.946-17.593,38.711-24.135c-1.439-0.084-2.879-0.169-4.317-0.254c-8.411,8.278-16.565,16.915-24.021,26.064 c-3.14,3.853-16.355,20.727-2.533,17.37c5.076-1.232,9.797-4.469,14.123-7.25c6.743-4.334,13.222-9.082,19.701-13.796 c6.69-4.868,13.342-9.793,20.126-14.531c4.021-2.808,9.019-6.971,13.558-8.366c-1.495,0.46-0.333,0.096-0.845,1.864 c-0.593,2.05-1.961,3.945-3.137,5.691c-3.861,5.735-8.507,10.983-13.063,16.168c-6.852,7.796-13.962,15.388-21.241,22.785 c1.755-0.123,3.509-0.246,5.264-0.369c4.573-5.632,9.969-10.755,15.781-15.077c8.271-6.151,18.022-6.814,27.478-10.181 c9.246-3.291,18.207-7.548,26.851-12.178c1.466-0.785,12.212-5.616,11.5-8.036c-0.784-2.66-11.499,2.564-12.627,3.092 c-7.599,3.554-14.897,8.129-21.118,13.771c-3.707,3.363-10.207,10.371-7.557,15.934c1.982,4.163,8.504,4.783,12.44,5.074 c10.583,0.782,21.777-1.791,31.543-5.714c8.405-3.377,18.856-9.215,20.606-18.993c0.265-1.479-5.464-0.48-5.727,0.986 c-2.681,14.983-24.022,20.247-36.696,21.219c-4.749,0.364-12.957,0.72-16.153-3.756c-4.064-5.691,5.601-14.193,9.248-17.244 c6.209-5.194,13.803-9.609,21.43-12.355c1.536-0.553-0.981-0.657-1.678-0.054c-0.866,0.751-1.927,1.336-2.896,1.941 c-3.731,2.333-7.669,4.349-11.6,6.321c-8.959,4.498-18.487,9.024-28.33,11.185c-9.545,2.095-16.917,5.222-24.65,11.414 c-4.776,3.824-9.249,8.267-13.109,13.021c-1.291,1.589,4.368,0.541,5.264-0.369c7.968-8.097,15.722-16.427,23.176-24.998 c1.575-1.81,19.985-22.616,13.039-23.504c-3.956-0.506-8.222,2.176-11.465,4.073c-6.067,3.552-11.767,7.771-17.46,11.882 c-12.577,9.079-24.862,19.287-38.533,26.709c-2.709,1.471-5.13,2.906-3.707-1.491c1.78-5.503,6.446-10.449,10.062-14.791 c6.949-8.345,14.483-16.265,22.222-23.88c1.542-1.518-3.795-0.503-4.317-0.254c-18.455,8.771-34.666,19.713-49.64,33.528 c-1.257,1.16-6.69,6.767-8.257,5.506c-1.903-1.532,5.888-10.335,6.678-11.313c1.689-2.092,19.785-21.716,14.855-23.622 c-3.841-1.484-9.275,1.579-12.498,3.372c-6.501,3.617-12.487,8.162-18.368,12.694c-13.015,10.028-25.542,20.76-37.717,31.791 c1.755-0.123,3.51-0.246,5.264-0.369c21.02-24.508,43.173-48.092,65.307-71.584c18.824-19.979,38.168-40.009,60.24-56.464 c3.012-2.246,6.114-4.376,9.348-6.292c0.702-0.417,3.547-2.429,4.361-1.981c3.068,1.686-3.554,11.477-4.448,12.921 c-6.233,10.052-15.81,18.276-24.68,25.915c-11.604,9.995-23.923,19.158-36.393,28.038c-14.761,10.51-29.842,20.652-45.266,30.168 C567.954,158.067,573.807,157.472,574.898,156.798L574.898,156.798z"/>
<line fill="none" x1="688.414" y1="100.032" x2="688.279" y2="96.035"/>
<path fill="#231F20" d="M695.175,98.22c-0.045-1.333-0.09-2.665-0.135-3.997c-0.03-0.883-1.933-1.028-2.405-1.056 c-1.66-0.097-3.361,0.196-4.957,0.624c-1.597,0.428-3.217,1.024-4.605,1.938c-0.755,0.497-1.589,1.121-1.556,2.117 c0.045,1.333,0.09,2.665,0.135,3.997c0.03,0.883,1.933,1.028,2.405,1.056c1.66,0.097,3.361-0.196,4.957-0.624 c1.597-0.428,3.217-1.024,4.605-1.938C694.375,99.84,695.208,99.216,695.175,98.22L695.175,98.22z"/>
</svg>