<?xml version="1.0" encoding="UTF-8" standalone="no"?>
<!-- Created with Inkscape (http://www.inkscape.org/) -->
<svg
   xmlns:dc="http://purl.org/dc/elements/1.1/"
   xmlns:cc="http://creativecommons.org/ns#"
   xmlns:rdf="http://www.w3.org/1999/02/22-rdf-syntax-ns#"
   xmlns:svg="http://www.w3.org/2000/svg"
   xmlns="http://www.w3.org/2000/svg"
   xmlns:sodipodi="http://sodipodi.sourceforge.net/DTD/sodipodi-0.dtd"
   xmlns:inkscape="http://www.inkscape.org/namespaces/inkscape"
   id="svg2244"
   sodipodi:version="0.32"
   inkscape:version="0.46"
   width="141.85291"
   height="56.814682"
   version="1.0"
   sodipodi:docbase="C:\Documents and Settings\Sigurd\Mine dokumenter\Mine bilder"
   sodipodi:docname="Wim_Duisenberg_signature.svg"
   inkscape:output_extension="org.inkscape.output.svg.inkscape"
   sodipodi:modified="true">
  <metadata
     id="metadata2249">
    <rdf:RDF>
      <cc:Work
         rdf:about="">
        <dc:format>image/svg+xml</dc:format>
        <dc:type
           rdf:resource="http://purl.org/dc/dcmitype/StillImage" />
      </cc:Work>
    </rdf:RDF>
  </metadata>
  <defs
     id="defs2247" />
  <sodipodi:namedview
     inkscape:window-height="750"
     inkscape:window-width="1280"
     inkscape:pageshadow="2"
     inkscape:pageopacity="0.0"
     guidetolerance="10.0"
     gridtolerance="10.0"
     objecttolerance="10.0"
     borderopacity="1.0"
     bordercolor="#666666"
     pagecolor="#ffffff"
     id="base"
     inkscape:zoom="6.1318583"
     inkscape:cx="70.926455"
     inkscape:cy="28.407341"
     inkscape:window-x="-8"
     inkscape:window-y="-8"
     inkscape:current-layer="svg2244"
     width="105.96px"
     height="57.14px"
     showgrid="false" />
  <path
     style="fill:none;fill-rule:evenodd;stroke:#000000;stroke-width:1;stroke-linecap:round;stroke-linejoin:miter;stroke-miterlimit:4;stroke-dasharray:none;stroke-opacity:1"
     d="M 71.335845,23.392334 C 71.335845,23.392334 67.21029,27.89172 73.046765,24.026005 C 77.666686,20.966056 73.300233,26.117127 73.300233,26.117127"
     id="path2420"
     sodipodi:nodetypes="csc" />
  <path
     style="opacity:1;fill:none;fill-opacity:0.65174124000000000;fill-rule:evenodd;stroke:#000000;stroke-width:1;stroke-linecap:round;stroke-linejoin:miter;marker:none;marker-start:none;marker-mid:none;marker-end:none;stroke-miterlimit:4;stroke-dasharray:none;stroke-dashoffset:0;stroke-opacity:1;visibility:visible;display:inline;overflow:visible;enable-background:accumulate"
     d="M 108.20464,4.2426956 C 108.20464,4.2426956 112.59247,2.6630774 111.36388,2.4875643 C 110.13529,2.3120512 72.399963,10.912195 49.583254,20.214391 C 26.766546,29.516588 13.60306,35.133009 12.023442,35.484035 C 10.443824,35.835062 32.207453,26.708378 42.562729,26.357351 C 52.918004,26.006325 51.689412,35.659548 49.232228,38.467759 C 46.775044,41.275968 42.913755,42.329047 48.705689,36.186087 C 54.497623,30.043128 55.199675,30.74518 55.199675,30.74518 C 55.199675,30.74518 38.70144,43.0311 41.158624,37.941219 C 43.615808,32.851338 49.407741,28.990048 45.195426,30.394154 C 40.983111,31.798259 3.9498369,49.17406 1.4926538,52.684323 C -0.96453021,56.194586 38.350413,32.500312 50.811846,26.357351 C 63.273279,20.214391 57.305833,20.214391 53.444543,21.618497 C 49.583254,23.022601 45.721965,24.777733 49.056715,24.777733 C 52.391464,24.777733 62.886545,21.68872 64.063924,18.941504 C 65.117002,16.48432 58.183398,22.847088 60.640582,22.496063 C 63.097766,22.145036 49.93428,27.059404 40.632084,34.606469 C 31.329887,42.153534 17.572763,52.21775 15.884731,55.141507 C 15.582867,55.664352 19.746021,52.50881 30.627835,46.190337 C 41.509649,39.871863 78.542923,20.916444 98.024882,14.071432 C 117.50684,7.2264191 134.00507,2.4875643 136.63778,1.9610248 C 139.27047,1.4344854 143.48278,0.38140646 137.16432,1.0834591 C 130.84584,1.7855117 96.445264,8.9815505 89.951277,11.263222 C 83.457291,13.544892 80.122541,13.720406 79.069462,13.720406 C 78.016384,13.720406 78.718436,11.965274 82.228699,12.140787 C 85.738962,12.3163 87.31858,13.720406 82.579725,15.12451 C 77.840871,16.528616 69.767266,19.161313 68.187647,18.9858 C 66.608029,18.810286 66.257003,17.406181 68.538673,18.283747 C 70.820344,19.161313 65.379437,21.442983 63.624306,21.618497 C 61.869175,21.79401 49.407741,25.304272 49.407741,25.304272 C 49.407741,25.304272 59.411991,20.038878 62.220201,19.687852"
     id="path2397"
     sodipodi:nodetypes="csssssscssssssssssssssssssssscs" />
</svg>
