<?xml version="1.0" encoding="utf-8"?>
<!-- Generator: Adobe Illustrator 13.0.1, SVG Export Plug-In . SVG Version: 6.00 Build 14948)  -->
<!DOCTYPE svg PUBLIC "-//W3C//DTD SVG 1.1//EN" "http://www.w3.org/Graphics/SVG/1.1/DTD/svg11.dtd">
<svg version="1.1" id="Layer_1" xmlns="http://www.w3.org/2000/svg" xmlns:xlink="http://www.w3.org/1999/xlink" x="0px" y="0px"
	 width="636.042px" height="192px" viewBox="0 0 636.042 192" enable-background="new 0 0 636.042 192" xml:space="preserve">
<g>
	<g>
		<path d="M436.042,114c20.207-16.459,34.551-38.783,48-62c-7.758,1.253-17.533,14.456-29,12c-1.16-6.612,5.172-4.796,9-4
			c25.727-7.941,31.844-35.49,52-49c21.619,10.709-16.408,25.66-26,37c-6.826,8.072-12.604,21.046-20,32
			c-7.174,10.623-14.285,22.23-21,30c-5.051,5.846-13.814,13.264-18,14C403.896,128.773,423.419,90.25,436.042,114z M498.042,38
			c5.781-6.394,20.762-13.67,18-22C508.507,21.137,498.753,29.369,498.042,38z"/>
		<path d="M625.042,18c-2.818,12.848-17.484,13.848-25,22c-8.025,12.309-18.273,22.393-25,36c0.639,2.029,4.676,0.658,5,3
			c16.662-12.671,28.564-30.102,46-42c-6.443,18.889-18.939,31.728-28,48c3.516,3.484,10.588,3.412,16,5
			c-2.744,6.086-11.918-0.244-17-1c-13.293,8.708-15.209,28.791-31,35c2.484-9.25,11.791-20.158,10-37
			c-6.963,6.002-13.412,12.594-20,19c-6.117,5.948-11.525,14.666-21,17c17.148-23.859,38.377-52.282,57-78
			c-18.07,8.93-29.914,24.085-48,33c-6.582,10.57-21.182,50.533-41,42c-0.781-2.143-2.428-5.587-1-7
			c-8.979,2.395-22.953,22.104-38,12c-0.174-4.58,0.578-9.98,3-14c3.9-6.473,16.123-16.867,20-8c-6.307,4.229-17.158,5.823-18,18
			c22.195,7.739,34.084-24.905,53-27c-3.857,8.218-18.113,11.118-15,23c17.533-5.133,24.135-21.198,31-37
			C565.226,57.517,596.068,38.692,625.042,18z M583.042,83c-1.891,0.224-2.207-1.127-4-1c1.654,6.928-3.98,15.169,1,19
			c9.887-16.448,25.895-32.103,32-49C602.355,62.313,591.367,71.324,583.042,83z M559.042,100c4.996-7.004,12.807-11.194,17-19
			c-1.986-0.013-1.271-2.729-4-2C569.617,87.248,559.707,93.32,559.042,100z"/>
		<path d="M73.044,41c1.163-0.163,1.779,0.221,2,1c-10.168,25.165-24.175,46.492-35,71c7.516,3.695,13.049-8.084,19-6
			c-1.262,3.992-5.482,10.225-1,14c25.008-19.658,30.179-59.154,55-79c8.283,0.185,9.606,16.048,1,17c-4.563,0.229-3.168-5.499-5-8
			c-16.296,16.047-23.794,40.917-37,61c-3.887,5.91-8.935,14.934-18,14c-3.321-1.915-3.897-8.813-2-13
			c-5.694,1.641-8.922,5.745-17,5c3.586-19.414,15.163-30.836,22-47c-8.028,8.192-15.44,20.632-23,32
			c-7.699,11.577-14.063,24.605-24,33c7.238-17.712,19.137-32.411,30-47C51.587,73.497,60.867,56.607,73.044,41z"/>
		<path d="M144.043,70c1.362,2.638,1.182,6.818,2,10c-2.969-1.031-7.246-0.754-9-3C136.081,71.37,139.07,69.693,144.043,70z"/>
		<path d="M228.043,75c-0.073,4.341-6.407,6.354-10,4C216.599,71.943,225.078,72.145,228.043,75z"/>
		<path fill="#FFFFFF" d="M155.043,178c1.235-8.771,10.026-18.635,14-28C169.215,156.254,159.832,170.061,155.043,178z"/>
		<path d="M319.042,95c-8.451,5.046-21.204,31.109-31,13c-7.982,4.684-12.274,13.059-26,12c-1.546-1.454-0.881-5.119-1-8
			c-8.402,5.598-16.538,11.462-30,12c-0.852-2.814-3.23-4.104-3-8c-4.977,1.797-24.976,10.535-24-3c-6.701,2.966-10.609,8.725-20,9
			c-4.023,11.395-9.032,23.706-14,35c-4.593,10.441-9.15,23.589-21,27c3.331-23.439,20.121-41.803,29-63
			c-0.346-4.021-5.731-3.598-3-8c3.396-4.35,3.788,1.743,8,2c6.165-11.502,13.264-22.069,19-34c-9.835,5.993-19.03,16.695-30,25
			c-10.386,7.861-21.432,18.355-35,19c-2.205-4.128,0.029-8.204,1-12c-7.038,1.305-11.887,13.439-23,14
			c-2.041-3.82-0.204-7.646,0-12c-7.825,3.175-10.887,11.113-21,12c-3.024-7.686,0.235-25.365,11-22c-1.707,6.626-6.324,10.343-8,17
			c8.247-0.521,14.569-11.355,24-14c0,4,0,8,0,12c10.048-2.952,13.825-12.175,24-15c0.746,6.412-1.167,10.166-1,16
			c21.821-15.736,47.719-29.401,64-51c4.587-6.086,8.132-14.281,13-21c3.799-5.244,7.802-16.759,18-14
			c-5.676,15.845-20.004,24.751-29,38c-8.919,13.136-16.61,27.584-23,44c10.345,0.338,18.338-10.323,28-14
			c-0.84,5.494-5.161,7.506-6,13c17.323,4.65,21.847-12.148,36-14c0.293,5.803-8.567,10.636-11,17c28.099,1.325,37.644-27.378,52-48
			c6.692-9.613,13.907-20.695,26-23c-0.043,1.71,0.743,2.59,2,3c-9.993,27.34-34.545,40.121-48,64c7.47-0.193,15.733-5.255,23-11
			c6.188-4.893,14.166-19.654,22-9c-5.273,5.727-16.998,5.001-17,16c12.628-4.652,21.566-14.958,30-24
			c8.576-9.193,15.104-21.215,27-27c-5.105,15.922-23.572,27.073-30,45c10.6,9.67,37.813,0.288,51,3
			c-14.955,4.632-40.465,8.089-56,3C313.873,105.602,316.782,99.041,319.042,95z M227.043,46c3.503-1.194,8.148-6.478,7-9
			C230.866,39.156,228.77,42.394,227.043,46z M308.043,51c-10.3,13.034-22.911,29.086-29,43c12.023-12.644,24.418-24.915,32-42
			C309.765,51.945,309.658,50.718,308.043,51z M169.043,150c-3.974,9.365-12.765,19.229-14,28
			C159.832,170.061,169.215,156.254,169.043,150z"/>
	</g>
</g>
</svg>
