<?xml version="1.0" encoding="UTF-8" standalone="no"?>
<!-- Created with Inkscape (http://www.inkscape.org/) -->

<svg
   xmlns:dc="http://purl.org/dc/elements/1.1/"
   xmlns:cc="http://creativecommons.org/ns#"
   xmlns:rdf="http://www.w3.org/1999/02/22-rdf-syntax-ns#"
   xmlns:svg="http://www.w3.org/2000/svg"
   xmlns="http://www.w3.org/2000/svg"
   xmlns:sodipodi="http://sodipodi.sourceforge.net/DTD/sodipodi-0.dtd"
   xmlns:inkscape="http://www.inkscape.org/namespaces/inkscape"
   width="276.70749"
   height="47.056767"
   id="svg2"
   version="1.1"
   inkscape:version="0.48.2 r9819"
   sodipodi:docname="Nouveau document 1">
  <defs
     id="defs4" />
  <sodipodi:namedview
     id="base"
     pagecolor="#ffffff"
     bordercolor="#666666"
     borderopacity="1.0"
     inkscape:pageopacity="0.0"
     inkscape:pageshadow="2"
     inkscape:zoom="1.4"
     inkscape:cx="140.74791"
     inkscape:cy="-112.46266"
     inkscape:document-units="px"
     inkscape:current-layer="layer1"
     showgrid="false"
     fit-margin-top="0"
     fit-margin-left="0"
     fit-margin-right="0"
     fit-margin-bottom="0"
     inkscape:window-width="1366"
     inkscape:window-height="706"
     inkscape:window-x="-8"
     inkscape:window-y="-8"
     inkscape:window-maximized="1" />
  <metadata
     id="metadata7">
    <rdf:RDF>
      <cc:Work
         rdf:about="">
        <dc:format>image/svg+xml</dc:format>
        <dc:type
           rdf:resource="http://purl.org/dc/dcmitype/StillImage" />
        <dc:title></dc:title>
      </cc:Work>
    </rdf:RDF>
  </metadata>
  <g
     inkscape:label="Calque 1"
     inkscape:groupmode="layer"
     id="layer1"
     transform="translate(-234.25209,-225.97666)">
    <g
       transform="matrix(0.6756621,0,0,-0.6756621,225.35659,296.17698)"
       inkscape:label="ink_ext_XXXXXX"
       id="g2993">
      <g
         transform="scale(0.1,0.1)"
         id="g2995">
        <path
           id="path2997"
           style="fill:#000000;fill-opacity:1;fill-rule:nonzero;stroke:none"
           d="m 470,1024.59 c -41.187,-6.91 -130,-15.76 -197,-19.62 -137,-7.896 -163.219,-19.607 -126,-56.279 20.391,-20.089 23,-20.23 90,-4.75 78,18.02 243.648,36.989 256,29.317 C 504.133,966.344 491.777,838 473.723,773 465.672,744.012 452.203,664.5 444,597.5 435.797,530.5 424.906,460.051 419.969,442 409.02,402 415.773,380 439,380 c 30.602,0 38.223,21 50.824,140 6.668,63 23.028,158.859 36.176,212 13.113,53 24,110.609 24,127 0,40 22.035,124.16 35,133.668 5.516,4.043 62,7.332 126,7.332 64,0 118.691,2.69 122,6 3.43,3.43 3.688,12 0.602,20 -6.95,18.01 -253.602,17.05 -363.602,-1.41"
           inkscape:connector-curvature="0" />
        <path
           id="path2999"
           style="fill:#000000;fill-opacity:1;fill-rule:nonzero;stroke:none"
           d="m 2992,870.5 c -7.59,-30 -6.87,-42.137 3,-50.469 15.08,-12.722 23.54,-3.031 40.99,46.969 12.22,35 9.06,43 -16.99,43 -11.62,0 -20.16,-12.5 -27,-39.5"
           inkscape:connector-curvature="0" />
        <path
           id="path3001"
           style="fill:#000000;fill-opacity:1;fill-rule:nonzero;stroke:none"
           d="M 3510,775.832 C 3455,723.125 3405.73,680 3400.5,680 c -5.29,0 -30.34,25.5 -56.5,57.5 -26.16,32 -51.43,57.5 -57,57.5 -22.8,0 -14.75,-23 28,-80 24.75,-33 45,-62.699 45,-66 0,-9.848 -121,-129 -131,-129 -4.83,0 -18.5,-9.5 -29.5,-20.5 -16,-16 -17.98,-23.684 -9,-35 6.34,-8 15.31,-14.5 20,-14.5 4.64,0 46,34.09 91,75 45,40.91 88.64,75 96,75 7.43,0 29.7,-18 49.5,-40 34.2,-38 63,-52.172 63,-31 0,4.891 -15.98,30 -35,55 -19.02,25 -35,50.336 -35,55.5 0,5.227 45,53.375 100,107 55,53.625 98.54,102 96.75,107.5 -8.62,26.457 -33.75,10.957 -126.75,-78.168"
           inkscape:connector-curvature="0" />
        <path
           id="path3003"
           style="fill:#000000;fill-opacity:1;fill-rule:nonzero;stroke:none"
           d="m 2064,706 c -83,-83 -158.12,-132.18 -231,-151.23 -93,-24.313 -133,-5.297 -133,63.23 0,38 -30.95,77.234 -54,68.465 C 1632.4,681.293 1630.31,673 1635.56,645 1644.14,599.25 1625,576.668 1559,554.668 1497,534 1463.61,537.797 1468.09,565 c 5.84,35.43 29.91,62.973 91.91,105.168 39,26.539 60,47.832 60,60.832 0,27.805 -22,23.926 -82,-14.461 -75,-47.984 -106.77,-82.992 -113.94,-125.539 -3.36,-20 -7.84,-42.891 -10.06,-51.5 -2.11,-8.156 2.53,-24.5 9.79,-34.5 19.95,-27.48 79.21,-22.664 164.21,13.344 l 70,29.656 36,-24.332 c 49.98,-33.785 109,-31.852 193,6.332 36,16.363 68.27,27.727 71,25 2.74,-2.738 -3.53,-24 -13.86,-47 -23.79,-53 -26.51,-161.461 -4.14,-165.375 8.22,-1.437 25.4,13.875 38,33.875 21.43,34 21.9,37.699 7,54 -14.75,16.129 -13.98,21.5 9.72,68.5 27.24,54 38.06,59.609 69.28,35.906 25,-18.98 99.95,-18.922 115.69,0.094 29.79,36 82.36,133.309 86.98,161 7.74,46.43 -25.67,74 -89.67,74 -46.7,0 -52,-3 -113,-64 z m 164.06,-7 C 2231.29,671.543 2165,577.617 2134,565.727 2085.39,547.082 2057.35,596 2085.11,651 c 31.3,62 54.73,80.023 99.89,76.828 35,-2.473 40.38,-6.078 43.06,-28.828"
           inkscape:connector-curvature="0" />
        <path
           id="path3005"
           style="fill:#000000;fill-opacity:1;fill-rule:nonzero;stroke:none"
           d="m 3885,752.926 c -16.83,-8.934 -48,-32.348 -71,-53.328 -47,-42.879 -78.34,-61.508 -88,-52.313 -3.23,3.078 -6,23.715 -6,44.715 0,60.082 -19.54,43 -46.9,-41 -20.19,-62 -21.91,-76.187 -10.6,-87.5 11.3,-11.297 29.5,-0.586 111.5,65.594 151,121.867 188.74,120.969 129.67,-3.094 -23.34,-49 -33.03,-80.637 -26.67,-87 16.02,-16.016 49.1,31 73.89,105 20.77,62 21.61,71.637 8.36,95 -17.78,31.352 -35.25,34.629 -74.25,13.926"
           inkscape:connector-curvature="0" />
        <path
           id="path3007"
           style="fill:#000000;fill-opacity:1;fill-rule:nonzero;stroke:none"
           d="m 2498,735.699 c -21,-7.57 -49.63,-21.285 -64,-30.656 -59,-38.477 -84.33,-134.063 -45,-169.785 18.18,-16.508 21,-16.363 65,3.277 67,29.91 132.67,80.16 145.67,111.465 13.71,33 0.54,74.18 -28.67,89.707 -23.96,12.738 -27,12.57 -73,-4.008 z M 2563.9,692 c 17.08,-27.852 -66.9,-98.055 -124.9,-104.418 -34.82,-3.82 -27.14,27.418 18.28,74.418 28.02,29 44.42,38 69.22,38 18,0 34.69,-3.57 37.4,-8"
           inkscape:connector-curvature="0" />
        <path
           id="path3009"
           style="fill:#000000;fill-opacity:1;fill-rule:nonzero;stroke:none"
           d="M 4178,739.684 C 4154.34,725.961 4138.8,662 4146,608 c 5.6,-42 3.56,-47.734 -30.62,-86 -33.94,-38 -39.51,-62 -14.38,-62 5.59,0 25,11.391 44,25.816 45.88,34.832 68.64,94.184 59.91,156.184 -5.5,39 -3.4,52.879 10.29,68 28.26,31.199 1.8,52.309 -37.2,29.684"
           inkscape:connector-curvature="0" />
        <path
           id="path3011"
           style="fill:#000000;fill-opacity:1;fill-rule:nonzero;stroke:none"
           d="M 1277,713.824 C 1210.69,679.23 1116,651.152 1028,639.992 913,625.41 900.586,615.484 940.457,570 965,542 965,542 935.699,499 905.719,455 867.941,442.258 834,464.695 795.012,490.469 801.289,541 850.063,594 c 43.25,47 51.238,76 20.937,76 -48.461,0 -111.406,-86 -114.18,-156 -1.543,-39 2.442,-49.656 26.18,-70.035 49,-42.055 126.121,-51.781 165,-20.801 21.953,17.488 53.17,85.836 55.66,121.836 1.3,19 4.77,36.426 7.84,39.5 2.98,2.984 32.5,10.383 64.5,16.172 57,10.312 213.52,66.277 264,94.402 14,7.797 26.48,20.965 28.37,29.926 4.83,22.961 -35.37,18.043 -91.37,-11.176"
           inkscape:connector-curvature="0" />
        <path
           id="path3013"
           style="fill:#000000;fill-opacity:1;fill-rule:nonzero;stroke:none"
           d="m 2770.78,701 c -27.4,-51 7.62,-144.758 58.22,-155.855 78,-17.11 239.35,113.507 195,157.855 -3.34,3.34 -27.05,-15.5 -53.5,-42.5 -30.36,-31 -63.02,-53.191 -90.5,-61.5 -41,-12.395 -43.88,-11.906 -62,10.5 -13.3,16.449 -18.06,35.5 -15.88,63.5 3.43,44 -14.26,59.801 -31.34,28"
           inkscape:connector-curvature="0" />
      </g>
    </g>
  </g>
</svg>
