<?xml version="1.0" encoding="UTF-8" standalone="no"?>
<!-- Created with Inkscape (http://www.inkscape.org/) -->
<svg
   xmlns:dc="http://purl.org/dc/elements/1.1/"
   xmlns:cc="http://creativecommons.org/ns#"
   xmlns:rdf="http://www.w3.org/1999/02/22-rdf-syntax-ns#"
   xmlns:svg="http://www.w3.org/2000/svg"
   xmlns="http://www.w3.org/2000/svg"
   xmlns:sodipodi="http://sodipodi.sourceforge.net/DTD/sodipodi-0.dtd"
   xmlns:inkscape="http://www.inkscape.org/namespaces/inkscape"
   id="svg2529"
   sodipodi:version="0.32"
   inkscape:version="0.46"
   width="400"
   height="110"
   version="1.0"
   sodipodi:docname="Yitzhak Navon signature.svg"
   inkscape:output_extension="org.inkscape.output.svg.inkscape">
  <metadata
     id="metadata2534">
    <rdf:RDF>
      <cc:Work
         rdf:about="">
        <dc:format>image/svg+xml</dc:format>
        <dc:type
           rdf:resource="http://purl.org/dc/dcmitype/StillImage" />
      </cc:Work>
    </rdf:RDF>
  </metadata>
  <defs
     id="defs2532">
    <inkscape:perspective
       sodipodi:type="inkscape:persp3d"
       inkscape:vp_x="0 : 526.18109 : 1"
       inkscape:vp_y="0 : 1000 : 0"
       inkscape:vp_z="744.09448 : 526.18109 : 1"
       inkscape:persp3d-origin="372.04724 : 350.78739 : 1"
       id="perspective2536" />
  </defs>
  <sodipodi:namedview
     inkscape:window-height="751"
     inkscape:window-width="1280"
     inkscape:pageshadow="2"
     inkscape:pageopacity="0.0"
     guidetolerance="10.0"
     gridtolerance="10.0"
     objecttolerance="10.0"
     borderopacity="1.0"
     bordercolor="#666666"
     pagecolor="#ffffff"
     id="base"
     showgrid="false"
     inkscape:zoom="1.415"
     inkscape:cx="187.63251"
     inkscape:cy="55"
     inkscape:window-x="-4"
     inkscape:window-y="-4"
     inkscape:current-layer="svg2529" />
  <path
     style="fill:#000000"
     d="M 36.64255,97.971794 C 33.307495,96.972368 30,94.223923 30,92.452001 C 30,89.928028 32.786648,90.264411 35.263783,93.087405 C 38.320308,96.570685 41.470084,96.834712 43.168364,93.75 C 44.841443,90.71106 44.817853,76.558533 43.121395,65.571645 C 41.753685,56.713854 41.731029,56.666434 40.25478,59.571645 C 38.119103,63.774592 32.906287,69 30.849146,69 C 29.635182,69 28.88972,67.929078 28.441845,65.541697 C 27.631922,61.224439 28.438993,33.227673 29.401106,32.265561 C 31.227705,30.438961 31.842029,35.660455 31.453377,49.709022 C 31.197697,58.951086 31.404528,65 31.976222,65 C 35.130268,65 41.609714,52.923334 42.593364,45.211321 C 43.381979,39.028424 45.714336,38.432602 45.065224,44.579861 C 44.410695,50.778419 44.831356,58.34 46.892689,77.429434 C 47.655643,84.494947 46.732619,93.762572 44.930613,97.129651 C 43.869004,99.113285 41.316979,99.372594 36.64255,97.971794 z M 99.2,84.8 C 98.54,84.14 98,82.816558 98,81.859017 C 98,80.901476 97.55,79.839919 97,79.5 C 95.761051,78.734288 95.661865,69 96.893011,69 C 98.057394,69 99,71.52654 99,74.647529 C 99,76.75875 100.33302,80.430177 101.64144,81.922653 C 102.00402,82.336229 111,73.347228 111,72.57136 C 111,72.354923 114.52049,66.850325 118.82331,60.338919 C 123.12613,53.827514 126.94795,47.683978 127.31625,46.686618 C 128.01793,44.786432 130.01855,45.254871 129.9744,47.309017 C 129.96033,47.964058 128.40453,50.923698 126.51707,53.885995 C 124.58264,56.922008 122.61323,61.721457 122.0033,64.885995 C 121.40819,67.973698 120.70541,71.5125 120.44158,72.75 C 119.50613,77.137778 122.02392,74.906569 125.51957,68.25 C 131.44292,56.970495 137.20117,49.98086 156.75162,30.339037 C 164.088,22.968371 171.54778,16.380138 173.46337,15.57975 C 182.44846,11.825541 190.15318,12.911807 196.32574,18.803048 C 199.20348,21.549632 207.42385,33 206.51792,33 C 206.24428,33 202.41847,29.324743 198.0161,24.832762 C 190.22606,16.884134 189.86607,16.653439 184.56697,16.213996 C 180.32705,15.862389 178.10312,16.255757 174.51742,17.991568 C 169.6688,20.338744 155.59299,33.732838 146.89295,44.278133 C 144.06972,47.70016 139.65832,52.75 137.08983,55.5 C 132.01337,60.935227 129.03974,65.566154 127.16147,70.961777 C 125.56858,75.537603 119.76626,84.026783 118.5,83.634083 C 117.33655,83.273268 117.29879,71.559822 118.4504,68.25 C 119.98578,63.8372 117.39376,66.110499 113.11522,72.929141 C 108.43456,80.38864 103.48303,86 101.58134,86 C 100.9316,86 99.86,85.46 99.2,84.8 z M 79.2,82.8 C 77.97423,81.57423 77.544565,79 78.565741,79 C 80.171114,79 83,81.255311 83,82.535184 C 83,84.305607 80.855083,84.455083 79.2,82.8 z M 199.97525,81.4349 C 199.43886,80.024096 199,76.424096 199,73.4349 C 199,70.445705 198.74358,68 198.43018,68 C 198.11677,68 195.89819,69.35 193.5,71 C 191.10181,72.65 188.89638,74 188.59906,74 C 187.83035,74 178.62869,80.32293 177.8618,81.378115 C 176.35479,83.451668 174.87172,80.560805 175.17782,76.146372 C 175.40773,72.83071 175.142,71.571599 174.25,71.75 C 173.5625,71.8875 173,71.1 173,70 C 173,67.512045 172.18067,67.512045 169,70 C 167.625,71.075541 166.07462,71.965534 165.55472,71.977764 C 165.03481,71.989994 163.45981,73.077567 162.05472,74.394594 C 158.60152,77.631355 153.74545,78.602595 151.62371,76.480855 C 149.48957,74.346711 149.60155,70.474376 151.9468,65.308667 C 155.45396,57.583725 166.83757,54.358058 172.69424,59.429665 L 175.5,61.85933 L 178.23957,59.252567 C 181.60633,56.049015 182.67891,56.786458 180.57374,60.85741 C 179.14558,63.619157 178.25593,76 179.48564,76 C 180.59082,76 193.74811,68.649139 196.81568,66.317862 C 198.6393,64.931952 200.24565,63.95597 200.38534,64.149013 C 201.235,65.32317 203,73.232621 203,75.86602 C 203,80.314481 204.7314,79.973899 214.24807,73.65342 C 219.39119,70.237625 220.12309,69 217,69 C 214.76991,69 214.32271,66.774454 216.25,65.267537 C 216.9375,64.729993 219.0706,63.760619 220.99022,63.113371 C 224.02209,62.091102 224.65515,62.170542 225.8108,63.718278 C 226.5425,64.698225 227.49759,65.408104 227.93322,65.295788 C 228.36885,65.183471 233.17459,64.161189 238.61264,63.02405 C 248.90513,60.87181 253.42221,61.051911 254.42085,63.654341 C 255.07367,65.355554 259.47491,65.044742 272.39906,62.384735 C 276.19355,61.603766 279.52836,61.195024 279.80975,61.476419 C 280.09115,61.757814 279.50338,63.506982 278.5036,65.363459 C 277.50382,67.219937 276.94319,69.409569 277.25775,70.229309 C 278.06744,72.339318 285.43581,73.163858 306.96787,73.553949 C 324.22802,73.866648 325.9283,73.73126 332.96787,71.483653 C 348.07646,66.65975 365,63.216991 365,64.967348 C 365,65.394718 363.11351,66.046045 360.80781,66.414742 C 354.60658,67.406359 340.64589,71.643312 330.35297,75.657533 C 324.81581,77.817015 323.37721,77.977201 315.85297,77.272079 C 311.25884,76.841548 304.8,76.785088 301.5,77.146614 C 298.2,77.50814 295.03808,77.426425 294.47352,76.965026 C 293.90895,76.503626 289.65429,75.923152 285.01871,75.675083 C 277.20415,75.256893 276.4216,75.015629 274.27267,72.362024 C 272.69166,70.409718 272.13719,68.744616 272.52828,67.123519 C 272.97576,65.268632 272.76389,64.876624 271.56298,65.33746 C 270.71674,65.662193 267.65638,66.196304 264.76218,66.524373 C 255.46957,67.577729 255.14877,67.734692 254.06146,71.760058 C 252.95645,75.850932 251.1612,77.323224 244.7381,79.406205 C 236.75815,81.994067 235.32465,82.083472 232.92801,80.142787 L 230.65095,78.298938 L 232.80064,75.279974 C 233.98297,73.619544 236.53651,70.996359 238.47517,69.450673 C 242.16852,66.505971 243.17367,64.335643 240.3406,65.422795 C 239.42793,65.773019 235.37783,66.550882 231.34037,67.151378 C 225.63742,67.999587 223.38603,68.838855 221.24978,70.912926 C 218.01596,74.052611 210.63733,79.854277 206.78518,82.286137 C 203.01318,84.667403 201.11399,84.430006 199.97525,81.4349 z M 248.72708,75.177315 C 252.62507,73.036475 253.31197,70.46263 250.75329,67.585025 L 248.5,65.050868 L 242.25,70.209222 C 238.8125,73.046316 236,75.871083 236,76.486482 C 236,77.904939 245.5492,76.922664 248.72708,75.177315 z M 162.5,72.104137 C 171.86982,67.766053 174.91975,60 167.25361,60 C 161.03778,60 157.28988,61.977468 154.87378,66.531847 C 151.10662,73.633011 154.24494,75.926103 162.5,72.104137 z M 177,64.440983 C 177,63.583524 176.55,63.160081 176,63.5 C 175.45,63.839919 175,64.541476 175,65.059017 C 175,65.576558 175.45,66 176,66 C 176.55,66 177,65.298442 177,64.440983 z M 96,66 C 96,65.45 96.45,65 97,65 C 97.55,65 98,65.45 98,66 C 98,66.55 97.55,67 97,67 C 96.45,67 96,66.55 96,66 z M 366,64.606989 C 366,64.390833 366.675,63.954956 367.5,63.638374 C 368.325,63.321791 369,63.498646 369,64.031385 C 369,64.564123 368.325,65 367.5,65 C 366.675,65 366,64.823145 366,64.606989 z"
     id="path2540" />
</svg>
