<?xml version="1.0" encoding="UTF-8" standalone="no"?>
<svg xmlns="http://www.w3.org/2000/svg" version="1.0" width="193" height="65">
<path d="M132,16c4.286,2.331-12.611,9.439-16,4C123.289,20.623,128.258,18.925,132,16z
M185,3c0.255,12.593-18.084,15.245-24,25c1.893,1.753-1.745,3.474,3,3 c0.688,2.689-2.067,1.933-3,3c1.789,4.211,7.296,4.705,10,8c-3.654,6.286-15.745,7.859-25,10c-8.814,2.039-22.037,7.779-27,0 c16.364,4.037,36.747-4.346,51-9c-8.982-4.769-12.27-8.841-10-17c-2.367,1.016-9.453,2.481-8,4c-0.944,2.455-3.934-1.285-4-3 C167.483,26.15,169.795,8.128,185,3z M183,6c-2.974,1.226-5.07,3.323-5,5c-4.141-0.777-12.592,8.045-13,11 C171.384,17.709,181.432,11.775,183,6z
M152,32c0,1.333,0,2.667,0,4c-5.964-3.373-11.885,0.306-19,1 c-1.158-1.479-1.158-2.521,0-4c-7.247-0.248-12.262,1.738-15,6c-0.154-2.488,1.571-3.096,2-5c-4.944,2.345-13.349,3.282-18,3 c0.426,1.952,2.857-1.635,2,3c-1.333,0-2.667,0-4,0c-0.127-1.794,1.225-2.109,1-4c-6.743,0.59-12.545,2.121-19,3 c0.354-1.313,1.761-1.573,2-3c-4.514,1.82-7.62,5.046-14,5c-1.158-1.479-1.158-2.521,0-4c-6.199,3.171-12.685,2.84-18,5 c2.491-2.412-0.481-4.079,3-5c-11.889,1.187-28.274,18.892-45,9C3.438,33.182,20.645,21.541,28,25c4.252,2,8.408,12.901,2,15 c3.114-3.938,0.816-9.581-2-13c-17.509-3.402-25.313,20.679-6,21c13.518,0.225,26.187-14.888,35-14c0.857,3.19-1.574,3.093-2,5 c7.543,0.543,10.994-3.006,17-4c2.009,2.039-0.442,1.961-1,4c11.366-4.51,20.415-4.566,34-4c-1.2-1.313-0.39-1.573,0-3 c1.357,0.31,0.83,2.504,1,4c10.473-2.101,17.986-6.013,30-3c-0.649,1.017-2.299,1.034-2,3c3.44,0.322,8.191-7.185,9-3 C138.76,35.375,148.856,31.637,152,32z" />
</svg>