<?xml version="1.0" encoding="UTF-8"?>
<svg version="1.1" xmlns="http://www.w3.org/2000/svg" width="561" height="181" >
<path fill="#231F20" d="M6.132,104.124c9.616-7.251,18.963-14.886,28.09-22.741c11.931-10.27,26.435-21.643,33.296-36.191 c1.846-3.915,6.255-17.022-2.433-16.631c-7.839,0.353-14.309,7.35-18.679,13.194c-4.367,5.84-7.567,13.503-5.371,20.794 c2.605,8.645,13.025,11.689,20.841,13.044c6.134,1.063,12.549,0.81,18.566-0.775c1.747-0.46,5.777-1.327,6.793-3.11 c0.301-0.529-1.042-0.446-1.198-0.422c-4.643,0.706-9.705,7.32-12.669,10.309c-5.471,5.517-10.939,10.946-16.727,16.141 c-12.791,11.481-26.085,22.388-39.127,33.58c-3.907,3.353-7.898,6.684-11.504,10.366c-1.047,1.07-3.019,3.315-0.082,2.93 c4.026-0.529,8.294-3.998,11.618-6.021c8.527-5.189,19.387-13.101,29.994-11.683c8.682,1.16,10.747,11.451,14.235,17.855 c2.426,4.454,6.649,6.575,11.534,7.701c5.569,1.284,10.017-1.416,14.552-4.173c1.66-1.009-0.948-1.052-1.724-0.581 c-4.988,3.032-8.6,4.56-14.514,2.245c-3.231-1.265-5.268-3.031-6.951-5.969c-2.277-3.977-3.463-8.509-6.075-12.31 c-8.507-12.378-25.613-3.614-35.552,1.97c-5.302,2.979-10.919,7.987-16.861,9.717c2.509-0.73,5.491-4.703,7.799-6.756 c11.989-10.668,24.468-20.783,36.593-31.294c6.183-5.36,12.316-10.787,18.212-16.462c3.201-3.082,6.2-6.358,9.361-9.48 c1.916-1.891,3.914-3.7,6.006-5.393c0.745-0.603,3.139-1.663,1.402-1.399c-0.399-0.141-0.798-0.281-1.198-0.422 c0.313-0.55-0.205-0.007-0.605,0.199c-1.142,0.587-2.387,0.98-3.616,1.336c-4.859,1.409-10.031,1.342-15.009,0.762 c-9.447-1.103-20.657-5.332-21.891-16.049c-0.941-8.174,4.786-16.226,10.086-21.788c2.832-2.971,11.601-10.843,13.88-3.532 c1.435,4.603-1.586,10.75-3.603,14.714c-3.171,6.232-8.544,11.54-13.39,16.47c-6.603,6.72-13.681,12.975-20.846,19.086 c-8.297,7.076-16.792,13.956-25.5,20.522C2.63,104.811,5.541,104.57,6.132,104.124L6.132,104.124 M160.554,106.051c14.92-8.301,29.615-17.031,44.167-25.958c23.57-14.46,47.81-29.333,68.432-47.892 c1.245-1.121-1.657-0.942-2.304-0.401c-10.68,8.948-21.099,18.222-31.338,27.668c-8.047,7.425-15.937,15.026-23.514,22.932 c-9.036,9.426-17.221,19.597-26.39,28.911c-10.076,10.235-20.892,19.798-32.589,28.146 c-10.602,7.566-23.578,15.724-37.028,15.723c-3.014,0-7.785-0.728-8.444-4.321c-0.937-5.108,9.036-9.155,12.231-10.586 c13.206-5.914,29.072-8.406,42.99-3.572c7.707,2.677,15.799,9.045,14.087,18.12c-2.26,11.979-20.833,16.367-30.366,18.843 c-1.734,0.45-1.37,1.793,0.36,1.344c11.666-3.029,37.563-10.193,32.497-27.394c-1.962-6.663-9.265-10.528-15.325-12.632 c-9.907-3.441-20.84-2.732-30.918-0.547c-8.909,1.932-22.355,5.703-27.634,13.992c-3.513,5.516,3.98,7.898,8.042,8.239 c9.469,0.794,18.887-3.328,27.066-7.604c11.609-6.069,22.11-14.295,31.963-22.855c21.422-18.609,38.721-41.264,59.304-60.757 c12.088-11.448,24.546-22.553,37.309-33.246c-0.768-0.134-1.536-0.268-2.304-0.401c-20.479,18.431-44.51,33.142-67.901,47.525 c-14.542,8.942-29.248,17.658-44.167,25.958C157.073,106.232,159.665,106.545,160.554,106.051L160.554,106.051 M254.218,62.055c2.593,14.122-12.45,25.933-23.065,31.541c-12.125,6.405-27.213,10.738-40.826,7.048 c-8.309-2.252-15.311-8.816-15.53-17.77c-0.232-9.532,4.885-17.976,11.255-24.657c14.024-14.709,34.168-23.638,52.576-31.336 C266.397,15.27,295.38,7.498,325.576,6.538c11.82-0.375,23.851,0.403,35.365,3.206c7.606,1.852,15.853,4.853,21.107,10.939 c10.433,12.086-5.066,25.896-14.548,32.096c-15.021,9.823-32.896,15.555-50.209,19.743c-10.355,2.504-20.923,4.288-31.559,4.985 c-7.033,0.461-15.106,0.8-21.738-2.028c-9.331-3.978-1.803-15.326,3.367-19.322c6.525-5.044,15.174-8.736,23.223-10.553 c1.807-0.408,1.282-2.277-0.502-1.874c-11.349,2.563-27.61,9.058-32.476,20.494c-4.985,11.716,7.584,14.826,16.107,15.385 c15.418,1.012,31.315-2.056,46.209-5.733c16.616-4.103,33.236-9.93,47.898-18.875c9.537-5.818,22.376-16.023,20.234-28.753 c-2.409-14.319-23.76-18.53-35.208-20.305c-24.869-3.854-50.993-0.559-75.223,5.494c-25.288,6.318-50.685,16.672-73.086,30.034 c-11.287,6.732-22.979,15.306-29.158,27.254c-4.477,8.655-5.294,19.603,1.724,27.152c14.586,15.69,42.699,6.377,58.179-2.239 c10.996-6.12,22.949-17.465,21.953-31.249c-0.026-0.371-0.054-0.743-0.122-1.109C256.882,60.005,253.977,60.741,254.218,62.055 L254.218,62.055 M214.89,124.8c5.658-5.934,18.538-18.702,27.695-12.168c10.286,7.338-21.417,31.811-24.892,34.659 c0.732,0.392,1.464,0.784,2.197,1.175c6.765-7.148,13.769-14.108,21.118-20.656c2.018-1.798,4.091-3.532,6.231-5.183 c0.867-0.668,1.765-1.294,2.675-1.9c0.457-0.295,0.926-0.569,1.408-0.82c0.495-0.255,0.99-0.509,1.485-0.764 c1.267-0.176,1.45-0.607,0.55-1.295c-1.247,4.12,0.852,5.734,3.104,8.783c2.827,3.825,4.855,7.07,9.834,8.273 c12.138,2.934,26.541-2.114,37.985-5.522c1.778-0.53,1.23-2.629-0.562-2.096c-8.312,2.476-16.744,4.788-25.381,5.778 c-4.318,0.495-9.039,0.68-13.1-1.114c-3.244-1.432-9.791-9.668-9.344-12.827c0.121-0.85,1.002-2.127,0.042-2.825 c-1.255-0.911-3.391,0.509-4.442,1.031c-4.964,2.466-9.152,6.139-13.264,9.803c-7.24,6.451-14.123,13.359-20.788,20.402 c-1.203,1.271,1.293,1.916,2.197,1.175c9.209-7.547,19.375-15.734,25.432-26.207c2.088-3.61,3.489-8.6-0.268-11.598 c-2.745-2.192-7.08-2.269-10.375-1.741c-8.521,1.365-16.243,8.682-21.985,14.704C211.172,125.201,213.947,125.79,214.89,124.8 L214.89,124.8 M320.017,115.448c-8.946-6.795-21.166-1.329-29.077,4.23c-4.542,3.191-25.308,20.355-15.248,26.78 c6.043,3.86,16.52-5.422,20.676-8.698c8.275-6.521,15.552-14.103,23.2-21.313c-0.767-0.131-1.535-0.263-2.302-0.395 c-7.132,6.901-16.586,15.107-20.148,24.566c-3.522,9.353,16.796-1.058,18.527-2.009c15.9-8.739,30.882-19.305,45.616-29.854 c14.721-10.54,29.474-21.372,42.892-33.559c1.235-1.122-1.66-0.944-2.303-0.395c-23.876,20.41-48.013,42.228-67.19,67.196 c-0.773,1.007,2.148,0.646,2.684,0.003c3.647-4.379,8.244-8.101,12.635-11.687c13.986-11.425,29.528-20.835,45.301-29.554 c19.487-10.772,40.157-22.01,57.207-36.563c-0.768-0.131-1.535-0.263-2.303-0.395c-18.34,17.226-36.982,35.594-51.246,56.396 c-3.068,4.475-13.341,19.839-2.38,21.901c4.908,0.923,10.471-2.508,14.267-5.147c7.227-5.026,13.443-11.399,19.038-18.16 c10.915-13.19,20.717-29.677,15.004-47.169c-6.121-18.741-25.431-29.585-44.429-29.136c-11.378,0.269-35.859,5.97-32.221,22.177 c1.583,7.047,8.186,12.46,13.822,16.301c8.512,5.798,18.436,9.353,28.371,11.802c13.68,3.373,27.98,3.411,41.958,4.496 c15.488,1.202,30.964,2.595,46.48,3.408c12.075,0.633,24.249,0.911,36.291-0.383c7.976-0.857,16.424-2.598,23.014-7.424 c1.3-0.952-1.617-0.896-2.303-0.395c-8.024,5.876-19.355,6.521-28.925,6.984c-12.818,0.62-25.71-0.166-38.499-1.025 c-14.609-0.982-29.193-2.314-43.797-3.381c-14.315-1.046-28.188-1.906-41.898-6.526c-10.838-3.653-39.802-17.229-30.363-33.346 c5.548-9.474,21.426-11.453,31.097-11.122c11.461,0.393,22.235,5.853,29.994,14.138c6.653,7.104,10.675,16.801,10.4,26.565 c-0.248,8.847-4.994,17.3-9.676,24.526c-5.374,8.296-12.008,15.891-19.424,22.415c-3.609,3.176-13.252,12.056-18.512,7.981 c-3.643-2.822-0.755-8.758,0.787-11.881c3.176-6.433,7.767-12.241,12.23-17.812c10.129-12.639,21.434-24.365,32.909-35.776 c3.396-3.377,6.819-6.733,10.312-10.012c1.227-1.152-1.668-0.937-2.303-0.395c-17.896,15.275-39.686,26.778-60.125,38.106 c-15.074,8.354-29.749,17.691-43.111,28.607c-4.289,3.503-8.725,7.207-12.287,11.483c0.895,0.001,1.789,0.002,2.684,0.003 c19.069-24.828,43.063-46.505,66.81-66.804c-0.768-0.131-1.535-0.263-2.303-0.395c-11.255,10.223-23.508,19.389-35.751,28.381 c-14.07,10.335-28.441,20.332-43.328,29.461c-5.13,3.146-10.351,6.237-15.827,8.748c-2.583,1.184-8.782,3.735-6.751-1.658 c2.056-5.458,7.062-10.303,10.905-14.533c2.729-3.003,5.554-5.931,8.47-8.753c1.197-1.158-1.669-0.991-2.302-0.395 c-4.761,4.487-9.339,9.156-14.172,13.57c-6.228,5.689-13.447,12.891-21.617,15.625c-3.989,1.335-5.744-2.229-5.004-5.708 c1.107-5.203,5.909-9.938,9.556-13.482c7.419-7.209,21.116-17.234,31.289-9.507C318.096,117.143,320.743,116,320.017,115.448 L320.017,115.448z"/>
</svg>