<?xml version="1.0" encoding="UTF-8" standalone="no"?>
<!-- Created with Inkscape (http://www.inkscape.org/) -->

<svg
   xmlns:dc="http://purl.org/dc/elements/1.1/"
   xmlns:cc="http://creativecommons.org/ns#"
   xmlns:rdf="http://www.w3.org/1999/02/22-rdf-syntax-ns#"
   xmlns:svg="http://www.w3.org/2000/svg"
   xmlns="http://www.w3.org/2000/svg"
   xmlns:sodipodi="http://sodipodi.sourceforge.net/DTD/sodipodi-0.dtd"
   xmlns:inkscape="http://www.inkscape.org/namespaces/inkscape"
   width="570.67798"
   height="220"
   id="svg2"
   version="1.1"
   inkscape:version="0.48.5 r10040"
   sodipodi:docname="New document 1">
  <defs
     id="defs4" />
  <sodipodi:namedview
     id="base"
     pagecolor="#ffffff"
     bordercolor="#666666"
     borderopacity="1.0"
     inkscape:pageopacity="0.0"
     inkscape:pageshadow="2"
     inkscape:zoom="2.1518265"
     inkscape:cx="285.33899"
     inkscape:cy="110"
     inkscape:document-units="px"
     inkscape:current-layer="layer1"
     showgrid="false"
     fit-margin-top="10"
     fit-margin-right="10"
     fit-margin-bottom="10"
     fit-margin-left="10"
     inkscape:window-width="1366"
     inkscape:window-height="715"
     inkscape:window-x="-8"
     inkscape:window-y="-8"
     inkscape:window-maximized="1" />
  <metadata
     id="metadata7">
    <rdf:RDF>
      <cc:Work
         rdf:about="">
        <dc:format>image/svg+xml</dc:format>
        <dc:type
           rdf:resource="http://purl.org/dc/dcmitype/StillImage" />
        <dc:title></dc:title>
      </cc:Work>
    </rdf:RDF>
  </metadata>
  <g
     inkscape:label="Layer 1"
     inkscape:groupmode="layer"
     id="layer1"
     transform="translate(-291.43658,-349.07959)">
    <g
       transform="matrix(4.678599,0,0,-4.678599,301.43653,559.0808)"
       inkscape:label="Untitled-1"
       id="g2993"
       style="fill:#000000;fill-opacity:1">
      <g
         id="g2995"
         style="fill:#000000;fill-opacity:1">
        <path
           id="path2997"
           style="fill:#000000;fill-opacity:1;fill-rule:nonzero;stroke:none"
           d="m 45.1233,26.8815 3.6746,-0.1783 C 44.2378,22.0011 39.2992,14.2146 34.8256,8.1564 c -1.103,-2.0911 3.1663,-0.9482 1.6982,0.1423 -0.5782,0.6812 7.9932,12.7488 13.1114,18.3481 3.4452,-0.0859 4.2939,-0.4116 2.6824,-1.7305 -0.8968,-0.7342 -0.2644,-1.3499 1.251,-1.2751 l 9.3991,1.7433 c -1.7181,-1.4034 -0.546,-1.6075 1.1506,-1.2387 4.0589,0.1641 8.0294,0.9323 11.9877,2.2005 -1.3955,-1.5083 -0.1854,-1.5029 1.0083,-1.4003 l 9.064,0.779 c 0.076,-1.876 1.5883,-0.8598 3.3903,-0.2449 -0.1021,-0.7983 0.2857,-0.9196 0.9365,-0.4757 l 17.7999,-1.7697 c 0.525,-0.1624 -0.2299,-0.7013 -0.3447,-1.0519 -6.425,-7.5892 -10.9015,-14.3124 -13.7132,-20.2955 -1.0726,-3.3182 3.8022,-1.6679 1.7504,0.4346 2.5875,5.7378 6.9534,12.3179 13.3555,19.8623 1.1914,1.0582 1.2441,1.6889 0.0269,1.8442 -4.9677,0.7538 -18.6307,1.1693 -17.7265,1.9231 0.5755,0.3489 1.1135,1.3748 0.3711,1.2719 -0.6214,-0.1491 -1.0922,0.0034 -0.5094,0.6823 2.1039,2.035 0.4995,3.0705 -1.5695,1.514 -2.069,-1.5566 -2.5974,-2.8044 -3.6922,-2.9535 -1.9556,0.1279 -10.4292,-1.7206 -8.3222,0.1863 2.5311,1.2707 4.4535,2.6617 5.8263,4.3214 2.0333,2.4588 0.8161,2.7728 -0.7792,0.8949 -2.219,-3.2993 -7.6258,-5.5641 -16.9733,-6.5483 -0.7911,0.0306 -0.5264,0.2888 -0.2018,0.5369 1.6038,1.2877 0.6468,1.6724 -1.2481,0.54 L 54.5272,25.0398 c 1.0219,0.9117 0.0119,2.071 -4.4489,2.2924 1.1953,1.3402 2.2552,3.0464 3.3046,3.9436 2.4177,1.2685 4.8872,3.5277 7.4092,6.1523 1.1954,-0.0507 3.5583,1.5318 0.4088,1.6719 2.8723,3.7757 -0.7226,5.8827 -1.9707,-0.095 C 55.04,35.8631 53.4135,31.8308 52.6632,31.5564 50.3014,30.1425 48.0277,28.474 45.0139,27.4513 32.1744,27.597 18.697,27.4725 4.6089,27.089 -1.3666,27.0269 -1.3215,24.9605 3.5297,24.4959 16.1223,23.9151 31.2863,21.6397 45.1233,26.8815 z m 58.3685,8.1054 c 0.2109,0.1806 0.2568,0.1675 0.5751,0.2775 0.4017,0.201 1.6263,0.2781 1.8513,-0.3747 0.2311,-0.671 -0.6998,-1.2524 -1.2242,-1.4332 -0.944,0.1553 -1.3088,-0.3223 -1.539,0.3486 -0.0309,0.0902 -0.3469,0.2121 -0.3347,0.3076 -4.3816,0.0442 -9.8538,0.3784 -14.6991,0.6741 -5.3561,0.3268 -9.9445,0.6069 -11.3757,0.3982 -0.1933,-0.0275 -0.3725,0.1069 -0.4,0.3002 -0.0275,0.1934 0.1069,0.3725 0.3002,0.4 1.5004,0.2185 6.122,-0.0632 11.5169,-0.3926 5.0057,-0.3053 10.9114,-0.4799 15.3292,-0.5057 z m 13.1096,-15.4406 c -0.1729,0.0541 -0.3288,1.0315 -0.2814,1.1832 0.1139,0.3418 0.4436,0.9343 0.8869,0.8178 0.7815,0 0.6778,-2.4004 -0.6055,-2.001 z M 72.1809,31.3007 c -0.2863,-0.1726 -0.7045,-0.6264 -0.4879,-0.985 0.2149,-0.3572 0.8096,-0.2007 1.0953,-0.0298 0.2874,0.1766 0.7107,0.6239 0.4915,0.9873 -0.1955,0.3246 -0.9022,0.2242 -1.0989,0.0275 z m -14.2124,5.6852 c 1.9882,1.4468 1.7334,0.3586 -1.0933,-2.4988 -1.7206,-1.3759 -1.4171,-0.3081 -0.8943,0.3586 l 1.9876,2.1402 z m -11.3428,-9.565 c 1.5559,0.8779 1.9598,0.8085 3.5158,1.6864 1.3388,0.7302 -0.1344,-0.8518 -0.934,-1.7907 l -2.5818,0.1043 z M 4.644,24.9443 c -3.7936,0.1273 -5.8938,1.4256 1.2518,1.5908 12.1005,0.4782 24.8269,0.591 38.0228,0.339 C 29.4661,22.9771 24.3879,24.2031 4.644,24.9443"
           inkscape:connector-curvature="0" />
      </g>
    </g>
  </g>
</svg>
