<?xml version="1.0" encoding="UTF-8" standalone="no"?>
<!-- Created with Inkscape (http://www.inkscape.org/) -->

<svg
   xmlns:dc="http://purl.org/dc/elements/1.1/"
   xmlns:cc="http://creativecommons.org/ns#"
   xmlns:rdf="http://www.w3.org/1999/02/22-rdf-syntax-ns#"
   xmlns:svg="http://www.w3.org/2000/svg"
   xmlns="http://www.w3.org/2000/svg"
   xmlns:sodipodi="http://sodipodi.sourceforge.net/DTD/sodipodi-0.dtd"
   xmlns:inkscape="http://www.inkscape.org/namespaces/inkscape"
   id="svg3055"
   version="1.1"
   inkscape:version="0.48.0 r9654"
   width="612"
   height="590"
   sodipodi:docname="Zogu_Signature.png">
  <metadata
     id="metadata3061">
    <rdf:RDF>
      <cc:Work
         rdf:about="">
        <dc:format>image/svg+xml</dc:format>
        <dc:type
           rdf:resource="http://purl.org/dc/dcmitype/StillImage" />
        <dc:title></dc:title>
      </cc:Work>
    </rdf:RDF>
  </metadata>
  <defs
     id="defs3059" />
  <sodipodi:namedview
     pagecolor="#ffffff"
     bordercolor="#666666"
     borderopacity="1"
     objecttolerance="10"
     gridtolerance="10"
     guidetolerance="10"
     inkscape:pageopacity="0"
     inkscape:pageshadow="2"
     inkscape:window-width="1680"
     inkscape:window-height="973"
     id="namedview3057"
     showgrid="false"
     inkscape:zoom="19.712699"
     inkscape:cx="68.223342"
     inkscape:cy="492.30719"
     inkscape:window-x="0"
     inkscape:window-y="24"
     inkscape:window-maximized="1"
     inkscape:current-layer="svg3055" />
  <path
     style="fill:#000000"
     d="m 574.20651,576.30571 c -5.94541,-0.27815 -9.20132,-0.94154 -11.5,-2.34312 -1.76358,-1.07531 -3.96745,-1.9568 -4.89749,-1.95885 -2.29214,-0.005 -3.38967,-2.02186 -1.68714,-3.10023 0.75797,-0.48009 2.58906,-0.87978 4.0691,-0.8882 3.46598,-0.0197 3.68444,-0.45914 4.30013,-8.6496 1.43241,-19.05521 0.62904,-45.51355 -2.0151,-66.36571 -2.58153,-20.35842 -8.85685,-57.03436 -13.17484,-77 -1.36792,-6.325 -3.38463,-15.775 -4.48159,-21 -1.09695,-5.225 -3.50108,-16.25 -5.34251,-24.5 -1.84143,-8.25 -3.8145,-17.475 -4.38459,-20.5 -1.10349,-5.85524 -5.79221,-28.49256 -9.04552,-43.67211 -1.08118,-5.04467 -3.13169,-16.29467 -4.55668,-25 -3.34062,-20.40796 -9.54954,-44.41955 -14.43599,-55.82789 -2.1202,-4.95 -4.81954,-11.70137 -5.99854,-15.00304 -2.80418,-7.85282 -6.66309,-10.26463 -17.77091,-11.10681 -4.28166,-0.32463 -10.99825,-1.69634 -14.92576,-3.04823 -5.64643,-1.94357 -8.36713,-2.34321 -13,-1.90954 -16.37827,1.53314 -33.97797,1.55141 -40.35908,0.0419 -3.575,-0.8457 -8.23099,-1.92091 -10.34665,-2.38936 -2.11566,-0.46845 -5.12792,-1.79901 -6.69392,-2.9568 -2.78439,-2.05859 -3.00858,-2.06948 -10.15334,-0.49299 -4.01835,0.88665 -10.3162,1.7258 -13.99522,1.86479 -3.67903,0.13899 -7.8924,0.5547 -9.36306,0.92381 -3.64944,0.91595 -12.82206,-1.11762 -16.94153,-3.75595 -1.86163,-1.19228 -3.92643,-3.42876 -4.58845,-4.96994 -0.66202,-1.54118 -1.70186,-2.62307 -2.31075,-2.40421 -0.60889,0.21886 -5.38208,1.67021 -10.60708,3.22522 -5.225,1.55501 -10.21043,3.4244 -11.07874,4.15421 -0.86831,0.72981 -2.07516,1.32693 -2.68189,1.32693 -1.13374,0 -13.48194,5.87866 -23.23937,11.06367 -3.025,1.60746 -8.72612,4.56233 -12.66917,6.56638 -4.16897,2.11888 -7.375,4.43085 -7.66103,5.52462 -0.27052,1.0345 0.87324,5.67091 2.5417,10.30315 5.10399,14.17045 2.74653,19.91007 -12.2115,29.73093 -7.26867,4.77233 -14.71327,6.25312 -26.92912,5.35642 -13.39563,-0.9833 -19.00142,-4.32495 -19.04864,-11.35503 -0.0329,-4.90068 7.85566,-12.65343 23.19638,-22.79694 C 247.24838,218.74502 253,214.33338 253,213.58955 c 0,-2.55036 -13.59854,-17.09137 -24.49123,-26.18865 -5.99218,-5.0045 -11.35805,-10.1795 -11.92415,-11.5 -1.40863,-3.28578 -2.03551,-3.5984 -7.93594,-3.95762 -13.51281,-0.82267 -15.5913,-0.41524 -20.02514,3.92529 -2.26795,2.22022 -5.92354,4.77787 -8.12354,5.68368 -2.2,0.90581 -4.675,2.22022 -5.5,2.92091 -4.03273,3.4251 -21.16448,5.58949 -24.56439,3.10342 -2.37174,-1.73427 -2.09751,-6.83829 0.56859,-10.58248 1.61337,-2.26577 1.81377,-3.1103 0.81683,-3.44235 -2.48442,-0.8275 -9.31881,-1.60695 -18.32103,-2.0895 -7.29115,-0.39083 -9.66455,-0.14759 -12.5,1.28105 -4.37144,2.20254 -4.80746,4.89056 -2.18044,13.44196 3.42107,11.13617 3.6902,14.69117 1.28203,16.93472 C 118.94571,204.19684 118,205.50474 118,206.02641 118,207.2487 110.49708,212 108.56692,212 c -2.9338,0 -6.45297,-2.31603 -7.41465,-4.87972 -0.89654,-2.39002 -6.24493,-25.23852 -7.670023,-32.76659 -1.198946,-6.33344 -2.729126,-6.82236 -22.334421,-7.13617 -17.134174,-0.27425 -17.725235,-0.21604 -20.307418,2 -2.746385,2.35697 -5.790249,12.09412 -9.853633,31.52124 C 39.134402,209.59498 37.829682,212 34.877555,212 33.279218,212 33,211.2192 33,206.74963 33,199.6257 35.725819,186.88653 40.007483,174 c 1.005084,-3.025 1.592128,-6.71126 1.304543,-8.19168 -0.3937,-2.02667 0.257556,-3.63256 2.636029,-6.5 5.393668,-6.5025 19.22045,-40.94456 22.504637,-56.05832 L 67.158911,100 57.329455,99.807929 C 51.923255,99.70229 46.6,99.64625 45.5,99.683395 c -7.549493,0.254938 -9.299194,0.189399 -11.75,0.200091 -35.0179935,0.152764 -32.1871241,-3.404147 0.5,-3.258554 1.805739,0.008 10.211447,-0.975469 18.719881,-1.598527 8.508435,-0.623059 15.598798,-1.261751 15.756364,-1.419316 0.735914,-0.735915 5.441859,-27.110773 6.283859,-35.218413 1.171706,-11.282382 1.448987,-12.004464 5.098247,-13.276603 4.591593,-1.600638 5.671109,-0.601198 6.169944,5.71227 0.246643,3.121611 1.352624,8.825657 2.457738,12.675657 1.105113,3.85 3.262591,11.725 4.794396,17.5 1.531806,5.775 3.276607,11.03189 3.877336,11.681977 0.674785,0.730227 6.251915,1.419861 14.592235,1.804387 7.425,0.342326 14.7375,0.858691 16.25,1.147479 3.40062,0.649294 3.61161,3.221608 0.5,6.095997 -2.33223,2.15442 -9.75,5.62681 -9.75,4.56415 0,-0.33218 -0.7875,0.10146 -1.75,0.96366 -0.9625,0.86219 -4.27989,2.68169 -7.37198,4.04334 -3.09209,1.36165 -5.93943,2.98936 -6.32742,3.61714 -0.38799,0.62778 -0.004,4.61552 0.85321,8.86164 0.85725,4.24613 2.72643,13.79523 4.15373,21.22023 1.4273,7.425 2.97435,13.8911 3.43789,14.36911 0.46353,0.47801 5.04169,1.2519 10.17368,1.71975 22.90711,2.08831 35.02121,3.58238 44.58089,5.49831 2.93921,0.58906 2.85097,2.49962 -0.25,5.41283 -2.8414,2.66936 -3.29197,6.48211 -0.8756,7.40936 0.89343,0.34284 4.01428,-0.47077 6.93524,-1.80803 l 5.31083,-2.43138 -1.58798,-4.96574 c -0.87339,-2.73116 -1.31742,-5.67081 -0.98673,-6.53256 0.33069,-0.86176 2.4715,-2.07044 4.75737,-2.68596 3.39393,-0.91389 4.89261,-0.82444 8.17211,0.48776 2.26105,0.90469 10.0336,2.08526 17.78666,2.70161 l 13.77067,1.09473 4.35871,-2.60711 c 11.88065,-7.10626 23.15002,-12.02229 28.59457,-12.4738 l 5.57716,-0.4625 -0.60322,6.88681 c -0.7001,7.99283 -4.48883,18.28401 -8.62714,23.43359 l -2.88882,3.59475 6.65308,6.49567 c 3.6592,3.57262 8.45309,8.58622 10.65309,11.14133 l 4,4.64566 11,-5.42674 c 6.05,-2.98471 18.425,-8.61848 27.5,-12.51948 9.075,-3.901 17.86995,-7.7191 19.54433,-8.48467 8.75935,-4.00499 20.60953,-7.75827 25.6661,-8.12917 l 5.71043,-0.41885 2.13271,4.95762 c 1.60463,3.73005 3.02676,5.38187 5.74338,6.67099 3.41569,1.62085 4.34213,1.61702 17.15686,-0.0709 24.3232,-3.20377 26.42064,-3.16604 36.07411,0.64891 L 426.5,186.5 l 21.26104,-0.27407 c 21.21491,-0.27348 21.27327,-0.26829 26.89266,2.39011 3.55956,1.68394 8.4306,2.95198 13.23896,3.4464 17.9998,1.85084 22.16898,2.99645 30.65108,8.42239 5.63753,3.60628 12.74408,13.01264 16.07447,21.27642 0.82871,2.05631 2.12546,5.09739 2.88167,6.75795 3.51962,7.72879 8.22389,29.32856 10.99435,50.4808 2.48036,18.93736 12.67884,72.26287 15.3956,80.5 0.5442,1.65 1.73766,6.6 2.65213,11 0.91447,4.4 2.05407,9.8 2.53244,12 1.11936,5.14783 4.82348,21.37937 11.86667,52 11.26037,48.95511 16.32208,85.43744 16.47082,118.71372 0.0777,17.38312 -0.1152,19.91709 -1.6316,21.434 -1.89161,1.89223 -7.44463,2.31899 -21.57378,1.65799 z M 255.09272,247.67226 c 6.56965,-3.46981 7.56313,-5.88437 6.22965,-15.14054 C 260.23707,224.99834 258.16557,221 255.34789,221 c -0.73817,0 -3.03092,1.51553 -5.09501,3.36785 -2.06408,1.85232 -5.55288,4.28105 -7.75288,5.39717 -2.2,1.11613 -5.20584,3.08809 -6.67965,4.38215 -1.47381,1.29406 -3.83631,3.16134 -5.25,4.14951 -1.90275,1.33003 -2.57035,2.6783 -2.57035,5.19099 0,1.86686 0.52322,3.71766 1.16271,4.11289 2.22398,1.3745 7.38043,2.19534 14.43001,2.29708 5.63055,0.0813 8.00128,-0.3775 11.5,-2.22538 z m -9.77793,-77.20619 c 2.27344,-4.76745 2.12317,-6.31805 -0.6805,-7.02172 C 242.01033,162.78578 234,164.61896 234,165.87803 c 0,0.44052 1.1012,1.30268 2.44711,1.91592 1.34591,0.61324 3.19766,2.26047 4.11501,3.66051 2.18748,3.33852 2.74455,3.22267 4.75267,-0.98839 z M 89.643081,154.30306 C 89.283973,151.11138 88.801802,147.6 88.57159,146.5 c -0.230212,-1.1 -0.452998,-3.4625 -0.495079,-5.25 -0.104816,-4.45233 -3.280634,-7.49552 -7.180746,-6.88085 -4.030619,0.63523 -4.51892,1.03744 -23.395765,19.27097 l -5,4.8296 4,0.55779 c 2.2,0.30678 10.704101,0.67498 18.898002,0.8182 l 14.898003,0.26041 z m -10.661883,-30.35887 5.408515,-4.55581 -1.294001,-7.44419 C 81.830087,104.66324 79.85951,100 78.048376,100 c -1.914079,0 -3.894467,3.13399 -4.568798,7.23018 -0.764735,4.64535 -8.673003,26.12818 -11.695115,31.76982 -1.519876,2.83728 -0.581339,2.17456 4.956669,-3.5 3.757353,-3.85 9.265383,-9.05011 12.240066,-11.55581 z m 29.425582,-17.90237 c 3.62627,-1.62699 6.59322,-3.20199 6.59322,-3.5 0,-0.298 -2.18931,-0.54182 -4.86514,-0.54182 -5.40841,0 -10.472377,2.95687 -9.48237,5.53679 0.70584,1.83938 0.034,1.96892 7.75429,-1.49497 z M 78.993631,87.565701 c -0.273923,-0.677032 -0.971248,1.335028 -0.950868,2.985028 0.02038,1.65 0.903971,2.203936 1.157515,1.230968 0.253543,-0.972967 0.06728,-3.538963 -0.206647,-4.215996 z M 503.6875,155.35417 c -1.37384,-1.37385 -0.66124,-3.49576 1.0625,-3.1638 0.9625,0.18536 1.75,0.96836 1.75,1.73999 0,1.57886 -1.76429,2.47201 -2.8125,1.42381 z M 512,155 c 0,-0.55 0.675,-1 1.5,-1 0.825,0 1.5,0.45 1.5,1 0,0.55 -0.675,1 -1.5,1 -0.825,0 -1.5,-0.45 -1.5,-1 z"
     id="path3065"
     inkscape:connector-curvature="0"
     sodipodi:nodetypes="sscsssssssssssssssssssssssssssssssssssssssssssssssssssssssssssssscssssssssssssssssssssssssssscssssscsscsscsscsssscsssscsssssssssssssssssssssssssssssssssssscsscsscssssssssssssssssssssssss" />
</svg>
